<svg id="Layer_8" data-name="Layer 8" xmlns="http://www.w3.org/2000/svg" viewBox="0 0 204.9 219"><defs><style>.cls-1{fill:#60bceb;}.cls-2{fill:#50a5c7;}.cls-3{fill:#70c8e4;}.cls-4{fill:#448ea5;}.cls-5{fill:#ffde3a;}.cls-13,.cls-6{fill:#fff;}.cls-7{fill:#f6b1a0;}.cls-8{fill:#b1dff9;}.cls-9{fill:#dd998d;}.cls-10{fill:#f4bf38;}.cls-11{fill:#6ac9f3;}.cls-12{fill:#e7ad27;}.cls-13{opacity:0.36;}</style></defs><polygon class="cls-1" points="19.11 70.64 19.11 169 101.61 198.15 101.61 94.93 19.11 70.64"/><polygon class="cls-2" points="101.61 94.93 186.01 71.86 186.01 169 101.61 198.15 101.61 94.93"/><polygon class="cls-1" points="15.76 69.95 101.61 94.93 101.61 63.23 15.76 39.93 15.76 69.95"/><path class="cls-2" d="M101.61,63.23c.93-.27,87.53-21.75,87.53-21.75V71.86L101.61,94.93Z"/><polygon class="cls-3" points="15.76 39.93 101.61 22.21 189.14 41.48 101.61 63.23 15.76 39.93"/><path class="cls-4" d="M186,72.68l-84.4,22.25v7s52-14,66.51-15,17.89,1,17.89,1Z"/><polygon class="cls-2" points="19.11 70.64 101.61 94.93 101.61 101.92 19.11 72.68 19.11 70.64"/><polygon class="cls-5" points="58.69 51.58 151.6 33.21 133.82 29.3 44.37 47.69 58.69 51.58"/><polygon class="cls-5" points="140.48 53.57 60.36 30.72 75.01 27.7 155.79 49.33 140.48 53.57"/><path class="cls-6" d="M33.13,91.76c0,5.61-2,10.16-4.45,10.16s-4.45-4.55-4.45-10.16,2-10.15,4.45-10.15S33.13,86.16,33.13,91.76Z"/><ellipse class="cls-7" cx="48.26" cy="96.44" rx="4.45" ry="10.16"/><ellipse class="cls-7" cx="49.8" cy="139.8" rx="4.45" ry="10.16"/><path class="cls-6" d="M67.32,172.5c0,5.61-2,10.16-4.45,10.16s-4.45-4.55-4.45-10.16,2-10.16,4.45-10.16S67.32,166.89,67.32,172.5Z"/><path class="cls-6" d="M67.58,122.57c0,5.61-2,10.16-4.44,10.16s-4.45-4.55-4.45-10.16,2-10.16,4.45-10.16S67.58,117,67.58,122.57Z"/><path class="cls-6" d="M81.05,104.5c0,5.61-2.47,10.16-5.52,10.16S70,110.11,70,104.5s2.47-10.16,5.53-10.16S81.05,98.89,81.05,104.5Z"/><ellipse class="cls-6" cx="77.93" cy="146.87" rx="6.19" ry="10.16"/><path class="cls-6" d="M93.44,180c0,5.61-2.77,10.15-6.19,10.15s-6.2-4.54-6.2-10.15,2.78-10.16,6.2-10.16S93.44,174.43,93.44,180Z"/><ellipse class="cls-6" cx="90.16" cy="124.32" rx="5.62" ry="10.16"/><ellipse class="cls-8" cx="113.69" cy="106.6" rx="5.62" ry="10.16"/><ellipse class="cls-8" cx="113.69" cy="149.96" rx="5.62" ry="10.16"/><ellipse class="cls-8" cx="129.24" cy="172.87" rx="6.42" ry="11.59"/><path class="cls-8" d="M138,125.77c0,5.61-2.51,10.16-5.62,10.16s-5.62-4.55-5.62-10.16,2.52-10.15,5.62-10.15S138,120.16,138,125.77Z"/><ellipse class="cls-9" cx="150.58" cy="97.46" rx="5.62" ry="10.16"/><ellipse class="cls-9" cx="155.05" cy="167.19" rx="5.62" ry="10.16"/><path class="cls-8" d="M168.4,134.4c0,5.6-2.52,10.15-5.63,10.15s-5.62-4.55-5.62-10.15,2.52-10.16,5.62-10.16S168.4,128.79,168.4,134.4Z"/><ellipse class="cls-8" cx="168.4" cy="96.44" rx="4.76" ry="10.16"/><path class="cls-8" d="M179.17,158.67c0,5.61-2.13,10.16-4.76,10.16s-4.76-4.55-4.76-10.16,2.13-10.16,4.76-10.16S179.17,153.06,179.17,158.67Z"/><path class="cls-8" d="M183.93,122.57c0,5.61-2.13,10.16-4.76,10.16s-4.76-4.55-4.76-10.16,2.13-10.16,4.76-10.16S183.93,117,183.93,122.57Z"/><path class="cls-6" d="M42,116.08c0,5.61-2,10.16-4.45,10.16s-4.45-4.55-4.45-10.16,2-10.16,4.45-10.16S42,110.47,42,116.08Z"/><path class="cls-6" d="M31,140.56c0,5.61-2,10.16-4.45,10.16s-4.45-4.55-4.45-10.16,2-10.16,4.45-10.16S31,135,31,140.56Z"/><ellipse class="cls-6" cx="37.58" cy="163.2" rx="4.45" ry="10.16"/><polygon class="cls-10" points="44.37 47.69 42.54 177.28 62.87 184.47 58.69 51.58 44.37 47.69"/><polygon class="cls-10" points="140.48 53.57 141.24 184.47 160.67 177.75 155.79 49.33 140.48 53.57"/><path class="cls-11" d="M79.72,54.81a29.25,29.25,0,0,1,6-4.19,37.76,37.76,0,0,0,.37,7.05C88.75,52.8,94,50,97.88,46.06a3.31,3.31,0,0,0,1.18-2,2.27,2.27,0,0,0-1.13-1.94,5.06,5.06,0,0,0-2.23-.65,13.63,13.63,0,0,0-9,2.28,15,15,0,0,0-2.2,2.43,22.29,22.29,0,0,0-2.78,3.76A19.66,19.66,0,0,0,79.72,54.81Z"/><path class="cls-11" d="M104.61,51a28,28,0,0,1-3.84,7.21,29.79,29.79,0,0,0,3.61-1.38l6-2.61a16,16,0,0,1-.48,5.42,29.38,29.38,0,0,0,7.8-10.31,5.67,5.67,0,0,0,.6-2.11,4.5,4.5,0,0,0-.52-2,8.77,8.77,0,0,0-4.43-4.06,11.6,11.6,0,0,0-6-.73,4.29,4.29,0,0,0-2.47,1c-.89.87-.56,1.56-.19,2.57A11,11,0,0,1,104.61,51Z"/><path class="cls-10" d="M69.73,48.37a20.81,20.81,0,0,0,5.52-.06c7.27-1.9,12.43-2.46,20.27-4,1.2-.23,2.45-.26,3.63-.6.51-.14,1.09-.42,1.13-1A1,1,0,0,0,100,42a4.11,4.11,0,0,0-2.36-1.19c-5.06-1.19-10.34-1-15.54-1.16a42.61,42.61,0,0,0-8.3.08,11.2,11.2,0,0,0-7,3.58C65.27,45.23,67.73,48,69.73,48.37Z"/><path class="cls-12" d="M101.74,36.36c-1.62-2.51-4.22-4.21-6.8-5.73A113.4,113.4,0,0,0,81.73,24c-2.63-1.13-5.43-2.17-8.28-1.91-2,.17-4.11,1.19-4.75,3.09-.71,2.11.65,4.35,2.19,6,4.83,5.06,11.82,7.59,18.76,8.5a49.8,49.8,0,0,0,9,.38c.88,0,2.58.15,3.3-.5C102.91,38.68,102.28,37.19,101.74,36.36Z"/><path class="cls-5" d="M89.09,34.91c-8.76-2.31-21.93-7.1-19.27-11.4-4.44,3.38-7.38,9.14-6.9,14.7.2,2.31,1,4.72,2.84,6.12a8.13,8.13,0,0,0,2.79,1.27c3.42.95,7,.73,10.57.35,7.73-.82,15.37-2.34,23-3.86.16-.91,1.52-3.83.49-3.83A15.08,15.08,0,0,1,99,37.68C95.94,36.93,92.09,35.7,89.09,34.91Z"/><path class="cls-10" d="M103.39,43c.41.27,11.51,3.28,11.51,3.28a36.57,36.57,0,0,0,10.57.61c6-.51,13.66-2,13.66-2s-5.54-1.91-5.8-2.15-29.82-2.79-29.82-2.79Z"/><path class="cls-12" d="M101.35,37.29c1.43-2.63,3.89-4.52,6.34-6.24a115.45,115.45,0,0,1,12.66-7.66c2.54-1.32,5.25-2.57,8.11-2.54,2,0,4.19.88,5,2.72.88,2.05-.31,4.39-1.72,6.12-4.43,5.42-11.2,8.48-18.05,9.92a50.28,50.28,0,0,1-9,1.07c-.89,0-2.56.35-3.33-.25C100.37,39.69,100.89,38.15,101.35,37.29Z"/><path class="cls-5" d="M114.13,34.87c8.56-3,20.93-8.86,17.94-12.95,4.68,3,8.46,8.65,8.41,14.23,0,2.31-.62,4.78-2.36,6.32A8.22,8.22,0,0,1,135.43,44c-3.33,1.21-7,1.26-10.51,1.16-7.77-.22-15.5-1.16-23.21-2.09-.23-.89-1.82-3.69-.79-3.77a14.33,14.33,0,0,0,3.59-.86C107.46,37.41,111.2,35.89,114.13,34.87Z"/><path class="cls-5" d="M101.7,34.4a4.18,4.18,0,0,0-2.12.25,4,4,0,0,0-2.32,1.56,4.43,4.43,0,0,0-.44,2.22c0,.67,0,1.35,0,2A3.74,3.74,0,0,0,97.18,42c.55,1.06,1.89,1.39,3.08,1.52a24.86,24.86,0,0,0,4.88,0,3.36,3.36,0,0,0,1.94-.64,3.15,3.15,0,0,0,.81-2.3,13,13,0,0,0-1-5.45,2.83,2.83,0,0,0-.47-.83,2.7,2.7,0,0,0-1.79-.75,8,8,0,0,0-4.61.89Z"/><path class="cls-10" d="M107.09,35.22a2.93,2.93,0,0,0-.46-.83,2.37,2.37,0,0,0-1.29-.67,13.26,13.26,0,0,1,.73,4.83,3.16,3.16,0,0,1-.81,2.3,3.29,3.29,0,0,1-1.94.64,23.51,23.51,0,0,1-4.89,0,6.78,6.78,0,0,1-1.33-.25,2.58,2.58,0,0,0,.25.86c.55,1.06,1.89,1.38,3.08,1.51a23.41,23.41,0,0,0,4.88,0,3.29,3.29,0,0,0,1.94-.64,3.12,3.12,0,0,0,.81-2.3A13,13,0,0,0,107.09,35.22Z"/><path class="cls-13" d="M98.17,37.2a2,2,0,0,0,.66,2.1.79.79,0,0,0,.8,0c.41-.25.34-.85.43-1.32a1.6,1.6,0,0,1,1.13-1.21c.41-.11.85-.05,1.26-.14.67-.14,1-.75.56-1.3-.33-.37-1.48-.44-2-.44A2.87,2.87,0,0,0,98.17,37.2Z"/><path class="cls-13" d="M65.48,31.67c-1,2.63-2.07,5.44-1.46,8.2.08.38.44.84.75.61a.53.53,0,0,0,.17-.24,8,8,0,0,0,.28-1.84,1.86,1.86,0,0,1,.93-1.53c.69-.29,1.45.15,2.13.46a6,6,0,0,0,2.11.49c.68,0,1.52-.18,1.66-.84a1.34,1.34,0,0,0-.67-1.29,6.53,6.53,0,0,1-1.23-.91,1,1,0,0,1,0-1.37,1.28,1.28,0,0,1,1.1,0c2.36.63,4.59,1.77,7,2.13a2.11,2.11,0,0,0,1.06,0,.85.85,0,0,0,.6-.79,1.16,1.16,0,0,0-.61-.8,14.6,14.6,0,0,0-3.2-1.36,23.47,23.47,0,0,1-5.67-2.93,3,3,0,0,1-1.49-2c0-.53.18-1.68-.72-1.56-.49.07-.66.77-.82,1.12C66.73,28.65,66.08,30.15,65.48,31.67Z"/><path class="cls-13" d="M131.55,27.31a5,5,0,0,1,1.28-1,1.55,1.55,0,0,1,1.56.06,4,4,0,0,1,.83,1.43,8,8,0,0,0,1.34,1.57,8.67,8.67,0,0,1,2.21,4.34.8.8,0,0,1-.1.71c-.25.27-.72.09-1-.2-.5-.59-.7-1.63-1.48-1.67-.51,0-.89.44-1.28.78s-1.09.52-1.33.06a.72.72,0,0,1-.05-.48,12.15,12.15,0,0,1,.58-1.4c.15-.49,0-1.16-.55-1.21a1.07,1.07,0,0,0-.59.18c-.81.45-1.56,1-2.33,1.53a26,26,0,0,1-13,4.4c-.47,0-1.11-.1-1.12-.57s.48-.61.87-.65c2.51-.25,5.18-1.67,7.35-2.88A32.05,32.05,0,0,0,131.55,27.31Z"/></svg>