<svg id="Layer_2" data-name="Layer 2" xmlns="http://www.w3.org/2000/svg" viewBox="0 0 204.9 219"><defs><style>.cls-1{fill:#c2c7d8;}.cls-1,.cls-10,.cls-11,.cls-12,.cls-13,.cls-2,.cls-3,.cls-4,.cls-5,.cls-6,.cls-7,.cls-8,.cls-9{fill-rule:evenodd;}.cls-2{fill:#b8bdca;}.cls-3{fill:#e3e5ef;}.cls-10,.cls-11,.cls-12,.cls-13,.cls-4,.cls-9{fill:#fff;}.cls-4{opacity:0.66;}.cls-10,.cls-12,.cls-13,.cls-4,.cls-9{isolation:isolate;}.cls-5{fill:#b2cee6;}.cls-6{fill:#97b9d1;}.cls-7{fill:#a7cbe3;}.cls-8{fill:#caddea;}.cls-9{opacity:0.69;}.cls-10{opacity:0.67;}.cls-12{opacity:0.61;}.cls-13{opacity:0.36;}</style></defs><path class="cls-1" d="M102.49,39.19c30.36,0,55,5.63,55,12.58s-24.62,12.58-55,12.58-55-5.64-55-12.58S72.12,39.19,102.49,39.19Z"/><path class="cls-2" d="M150.43,57.93c-9.43,3.83-27.37,6.42-47.94,6.42S64,61.76,54.55,57.93c9.43-3.83,27.36-6.41,47.94-6.41S141,54.1,150.43,57.93Z"/><path class="cls-1" d="M147.33,172.1c-8.51,3.72-24.61,7.71-44.84,7.71-23.2,0-40.81-5.3-47.87-9.36-4.09-2.39-3.4-3.33-3.59-8.11L47.43,51.77h.07c0,6.94,24.62,12.58,55,12.58,29.25,0,53.15-5.22,54.88-11.81l-3.32,108C153.84,167.23,155.45,168.55,147.33,172.1Z"/><path class="cls-3" d="M51.09,162.32,47.43,51.77h.07c0,6.94,24.62,12.58,55,12.58,22.61,0,42-3.13,50.47-7.59L150,154.58c-.19,6.68,1.35,8-6.5,11.54-8.25,3.73-23.85,7.72-43.44,7.72-22.49,0-39.49-5.3-46.34-9.37A8.18,8.18,0,0,1,51.09,162.32Z"/><path class="cls-4" d="M150.25,148.55c0,.2.08-2.55.08.6s-19.61,11.06-47.87,11.06-47.56-8-47.56-11.06V149h-.09L52.53,90.27h.12c.36,5.89,22.53,10.64,49.84,10.64S152,96.12,152.32,90.27h.06Z"/><path class="cls-5" d="M102.49,72.45c27.53,0,49.85,5.11,49.85,11.4S130,95.26,102.49,95.26,52.65,90.15,52.65,83.85,75,72.45,102.49,72.45Z"/><path class="cls-6" d="M150.25,145.65c0,.22.08-2.7.08.64S130.72,158,102.46,158s-47.54-8.47-47.54-11.69v-.11h-.08L52.53,84h.12c.36,6.22,22.53,11.25,49.84,11.25S152,90.23,152.32,84h.06Z"/><path class="cls-7" d="M99.13,157.94c-26.4-.63-44.21-8.53-44.21-11.65v-.11h-.08L52.53,84h.12c.36,6.22,22.53,11.25,49.84,11.25,18.31,0,34.31-2.26,43-5.63l-1.94,56c0,.22.07-2.7.07.64S125.54,157.32,99.13,157.94Z"/><path class="cls-6" d="M150.25,145.65c0,.22.08-2.7.08.64S130.72,158,102.46,158s-47.54-8.47-47.54-11.69v-.11h-.08l-.77-22.39c5.21-7.31,9.22-5.92,16.62-2.07,8.63,4.49,13.26-.55,17.19-3s10.27.93,13.63,4.47,8.59,0,13.45-3.73,10.46,2.62,14.76,4.3c.33.13,6-3.59,12-3.4,3.43.08,7.18,3.8,9.38,4.18Z"/><path class="cls-8" d="M146.82,112.5c1.26-1.3,1.3-1.79,1.48-3.71h0c0-5,1-17.31-1.19-21.69-2.88-5.65-8.69-6.45-13.87-8.38l-8.26-3a5.26,5.26,0,0,0-4-.09,1,1,0,0,0-.47.12C120,76,104.65,85.91,101.88,89c-1.2.79-1.89,2.28-1.94,4.78,0,2.87.1,17.42,1.09,20.16a9.59,9.59,0,0,0,5.93,6.1h0a10.61,10.61,0,0,1-5.34-6.31c-.82-2.53-.64-17.31-.53-20a4.82,4.82,0,0,1,1.2-3.42c2.82-2.88,11.34,2.09,12.46,2.51,5.53,2,11.57,2.74,13.7,8.83.87,2.45,1,17.2.94,19.83s-1.19,4.79-4.09,4.51c-.69-.07-17-5.56-18.32-6,3.21,1.29,16.47,7.18,19.43,6.93a3.83,3.83,0,0,0,2.3-.94c2-1.44,17.51-12.67,18.1-13.59-11.84,7.81-7.18,4.68-16.64,11.17a8.53,8.53,0,0,0,.34-2.12c.07-1.85,0-17-.28-18.77-1.4-8-8.47-9-15-11.25-2.4-.85-6.23-2.76-9.45-3.17,8.54-6,4.52-3.18,15.56-11.12,5.6-.31,1.73-.68,11.67,2.82,14.59,5.12,14.07,4.48,14.58,20,.13,4.17,1.19,8.93-.73,12.4h0Zm0,0Zm0,0Z"/><path class="cls-5" d="M101,84l4.11,17.68c.81,3.44-1.6,5.85-5.34,5.35L82.71,104.7a10.4,10.4,0,0,1-8.27-7.18L70.31,79.86c-.8-3.45,1.61-5.86,5.35-5.35l17.08,2.28A10.44,10.44,0,0,1,101,84Z"/><path class="cls-9" d="M152.34,83.85c1.19,8.17-28.89,11.67-34.94,12.21-16.4,1.45-40.91.69-56.47-5.16-2.55-1-8.84-3.4-8.28-7.05l.21.55C58.55,97.34,146.22,99,152.34,83.85Z"/><path class="cls-5" d="M112.09,106,125,118.73c2.53,2.47,1.77,5.8-1.66,7.37l-15.65,7.18a10.4,10.4,0,0,1-10.77-1.63L84,118.94c-2.51-2.47-1.77-5.79,1.66-7.37l15.66-7.18A10.42,10.42,0,0,1,112.09,106Z"/><path class="cls-8" d="M127,122.9c-.5,6.26-2.22,20.25-3.59,22.74l.17-.08a6,6,0,0,1-3.3,3.37h0c-4.79,2.3-15.29,8.57-20.56,8.46-6.68-.13-10-5.33-14-9.44l-6.14-6.27a5.43,5.43,0,0,1-1.33-4c.22-3.11,2.14-16,3.52-22,0-4.78,8.85-7.12,11.55-8.3,6.1-2.71,13-7.3,18.87-1.46h0c2.6,2.39,13.63,11.65,14.73,14.51a3.94,3.94,0,0,1,.18,2.4ZM82.31,118c-1,10.33-.55,6.53-2,16.75-.88,6.18,2.71,7.18,7.39,11.65,3.52,3.34,6.38,7.88,12,8.15,3.9.19,15.56-5.83,19.35-7.52a5.26,5.26,0,0,0,2.39-2.25c2.52-12.48,2.61-14.48,3.59-19-2.8,2.39-7.63,3.87-9.21,4.62-6.2,2.92-13.16,7.7-19.6,1.95-1-.89-13-12.92-13.69-13.93-.08-.14-.16-.27-.22-.39Zm29.78-12h0c-7.1-4.58-11.27-.93-18.42,2.47-.54.25-9.21,3.14-10.3,6.18-1.34,3.74,6.92,9.34,7.63,10,4.2,4.06,7.45,9.21,13.8,8.51,2.56-.27,15.94-6.52,18.28-7.69s3.77-3.12,2.26-5.53C125,119.5,113,107,112.09,106Z"/><path class="cls-8" d="M61.86,129.55a1.2,1.2,0,0,0-.51,1.61,1.18,1.18,0,0,0,1.61.51,1.19,1.19,0,0,0,.52-1.61l0-.06A1.18,1.18,0,0,0,61.86,129.55Z"/><path class="cls-8" d="M63.53,124.64a1.89,1.89,0,1,0,2.58.74,1.89,1.89,0,0,0-2.58-.74Z"/><path class="cls-8" d="M65.73,134.42a1.76,1.76,0,1,0,2.39.68,1.75,1.75,0,0,0-2.39-.68Z"/><path class="cls-8" d="M67.83,128.28a.73.73,0,0,0-.29,1h0a.73.73,0,0,0,1,.29.76.76,0,0,0,.29-1A.75.75,0,0,0,67.83,128.28Z"/><path class="cls-10" d="M90.79,82.12a1.28,1.28,0,1,0-1.11,1.43h0a1.26,1.26,0,0,0,1.1-1.41Z"/><path class="cls-10" d="M95.18,85.84a2.11,2.11,0,1,0-1.81,2.39,2.11,2.11,0,0,0,1.81-2.39Z"/><path class="cls-10" d="M87.34,85.77a2,2,0,1,0-1.7,2.2,2,2,0,0,0,1.7-2.2Z"/><path class="cls-10" d="M89.66,88.81A.82.82,0,0,0,88,89a.83.83,0,1,0,1.65,0A1.13,1.13,0,0,0,89.66,88.81Z"/><path class="cls-11" d="M125.27,84.88a1.2,1.2,0,1,0,1.28,2,1.2,1.2,0,0,0-1.18-2.09Z"/><path class="cls-10" d="M102.73,115.75a2.39,2.39,0,1,0,2.39,2.39A2.39,2.39,0,0,0,102.73,115.75Z"/><path class="cls-10" d="M107.48,111.52a1.69,1.69,0,1,0,1.68,1.7h0A1.69,1.69,0,0,0,107.48,111.52Z"/><path class="cls-8" d="M88.78,122.64c-1.39,1.2-1.92,1.2-3.86,1.13h0c-6.2-.66-18-.35-22.82-4.6-4.14-3.59-4.41-9.28-5.56-13.89l-2.1-8.56a5.54,5.54,0,0,1,.37-4.15,1.36,1.36,0,0,1,.24-.55C55.8,91,69.88,74.52,71.14,74.54a1.15,1.15,0,0,1,.33.21c3.41-2,10.32.07,12.8.43,6.69,1,14.8.74,16.75,8.78h0c-3.43-7.71-9.13-6.89-16.87-7.84C82.79,76,71.88,72.72,70.9,77.7c-.39,1.94,3.71,17.56,4.32,19.68,2.09,7.36,10.09,7,16.11,7.85,2.22.32,13.45,4,13.48-2.32,0-.69-3.59-17.56-3.8-18.89.93,3.26,5.2,17.13,4.62,20-1.2,5.9-11.81,2.69-14.47,2.39-6.75-.83-15.15-.51-17.5-8.76-.32-1.1-3.31-14.19-4-18C63,87,66,83.59,57.05,93.38c-.94,5.37-.92,1.2,1.4,11.7,3.33,15,2.67,14.36,17.89,16.69,4.38.69,8.56,2.28,12.4.87h0c8.28-10.11,5.88-7.29,11.29-13.53h2c-4.59,5-13.16,14.26-13.3,13.55Z"/><path class="cls-12" d="M52.88,63.34c.95,5,1.1,16.94,1.35,22.42.81,18.28,1.52,36.71,2.67,55,.49,7.9.24,8.51,8.72,11.33,13.24,4.39,30.29,4.64,44.12,5.79-10.12,1.73-38.29-.82-48.08-4.79-7.1-2.85-6.81-4.88-7.42-12.18-1.46-17.33-1.46-37.56-1.62-55.14C52.52,80.37,52.1,68.43,52.88,63.34Z"/><path class="cls-13" d="M152,63.34c-.95,5-1.1,16.94-1.34,22.42-.82,18.28-1.52,36.71-2.68,55-.49,7.9-.23,8.51-8.73,11.33-13.22,4.41-30.29,4.63-44.12,5.82,10.13,1.74,38.29-.81,48.09-4.78,7.09-2.85,6.8-4.89,7.42-12.19,1.46-17.32,1.45-37.55,1.61-55.13C152.34,80.37,152.75,68.43,152,63.34Z"/><path class="cls-9" d="M63,156.42c.51,4.22-.44,5,3.73,7.3,18.35,10.16,51.63,6.8,72.07,4.32-8.58,5-27.94,5.92-37.85,6-9.37.06-39.61-1-44.5-10.77-1.2-2.54-.81-11.81-1.2-16.06C62.71,153,62.33,150.57,63,156.42Z"/><path class="cls-10" d="M156.15,53.6c1.33,8.16-31,11.67-37.47,12.2-17.65,1.46-44,.7-60.74-5.15-2.74-1-10.49-3.72-9.89-7.37C53.29,61,79.73,64.19,105.16,64.19,114,64.18,152.4,62.14,156.15,53.6Z"/><path class="cls-8" d="M67.52,147.83a1.2,1.2,0,0,0,1.44.9,1.2,1.2,0,1,0-.54-2.33l-.08,0A1.2,1.2,0,0,0,67.52,147.83Z"/><path class="cls-8" d="M63.17,145a1.89,1.89,0,1,0,1.33-2.32A1.89,1.89,0,0,0,63.17,145Z"/><path class="cls-8" d="M73.22,145.27a1.77,1.77,0,1,0,1.24-2.18h0A1.77,1.77,0,0,0,73.22,145.27Z"/><path class="cls-8" d="M67.73,141.74a.74.74,0,0,0,.9.54.74.74,0,0,0-.36-1.44h0A.74.74,0,0,0,67.73,141.74Z"/><path class="cls-8" d="M144,129.55a1.18,1.18,0,0,1,.53,1.6,1.2,1.2,0,1,1-2.14-1.08.25.25,0,0,0,0-.07A1.19,1.19,0,0,1,144,129.55Z"/><path class="cls-8" d="M142.37,124.64a1.89,1.89,0,1,1-2.58.74,1.89,1.89,0,0,1,2.58-.74Z"/><path class="cls-8" d="M140.17,134.42a1.76,1.76,0,1,1-2.4.68A1.76,1.76,0,0,1,140.17,134.42Z"/><path class="cls-8" d="M138.07,128.28a.73.73,0,0,1,.29,1,.74.74,0,0,1-1,.3.75.75,0,0,1-.3-1h0A.73.73,0,0,1,138.07,128.28Z"/><path class="cls-8" d="M138.38,147.83a1.2,1.2,0,1,1-.9-1.43l.09,0A1.19,1.19,0,0,1,138.38,147.83Z"/><path class="cls-8" d="M142.74,145a1.89,1.89,0,1,1-1.34-2.32,1.88,1.88,0,0,1,1.34,2.32Z"/><path class="cls-8" d="M132.72,145.27a1.76,1.76,0,1,1-1.21-2.17h0A1.77,1.77,0,0,1,132.72,145.27Z"/><path class="cls-8" d="M138.17,141.74a.74.74,0,1,1-.54-.9h0a.74.74,0,0,1,.52.9Z"/><path class="cls-13" d="M78.64,67.34v82.31c-6.26,0-9.57-.42-14.56-2.9V65A140.49,140.49,0,0,0,78.64,67.34Z"/><path class="cls-13" d="M135.23,94.61v55.05a7.49,7.49,0,0,0,5.61-1.77V93.39C136.65,94.34,140.64,94,135.23,94.61Z"/></svg>