<svg id="Layer_3" data-name="Layer 3" xmlns="http://www.w3.org/2000/svg" viewBox="0 0 204.9 219"><defs><style>.cls-1{fill:#900;}.cls-2{fill:#bf0000;}.cls-3{fill:#f7f7f7;}.cls-4{opacity:0.48;}.cls-5{fill:#e2e2e2;opacity:0.69;isolation:isolate;}.cls-6{opacity:0.59;}.cls-7{fill:#7f0012;}.cls-8{fill:#e5e5e5;}.cls-9{fill:#fff;}</style></defs><path class="cls-1" d="M58,111.44l-10.55,2.81,3.64,70.4c.1,2.78,1.13,4.94,2.38,5l6.59-.16h.61c.66,0,1.18-1.19,1.18-2.64a2.81,2.81,0,0,0,0-.29Z"/><path class="cls-2" d="M54.72,75.34,30.13,82.9a8.58,8.58,0,0,0-6.19,5.75l-.19.61a28,28,0,0,0,1.67,21.09l.07.15a8.6,8.6,0,0,0,6.85,4.69L57,119.42Z"/><path class="cls-3" d="M168.29,93.4v-.31l-1.75-63.75C138.4,56.15,67.55,72.69,55.47,75a2.53,2.53,0,0,0-1.85,1.83,29.74,29.74,0,0,0-.8,4.49,103.42,103.42,0,0,0,1.1,31.94A31.16,31.16,0,0,0,55,117.72a2.55,2.55,0,0,0,2,1.7c12.22,1.5,84.05,13.11,114,37.92l-2.7-63.73Z"/><g class="cls-4"><path class="cls-1" d="M28.86,91h0a1.48,1.48,0,0,0-1.49-1.47h-3.7a28.54,28.54,0,0,0-.74,3h4.46A1.49,1.49,0,0,0,28.86,91Z"/><path class="cls-1" d="M28.89,95h0a1.48,1.48,0,0,0-1.46-1.5H22.76a25.19,25.19,0,0,0-.3,3h5A1.46,1.46,0,0,0,28.89,95Z"/><path class="cls-1" d="M28.92,99h0a1.48,1.48,0,0,0-1.49-1.46h-5a27.38,27.38,0,0,0,.14,3h4.87a1.48,1.48,0,0,0,1.48-1.48Z"/><path class="cls-1" d="M28.94,103.05h0a1.49,1.49,0,0,0-1.48-1.47H22.7q.21,1.5.57,3h4.21a1.47,1.47,0,0,0,1.46-1.48Z"/><path class="cls-1" d="M29,107.06h0a1.47,1.47,0,0,0-1.47-1.47h-4a31.32,31.32,0,0,0,1.05,3h2.91a1.48,1.48,0,0,0,1.46-1.5Z"/></g><path class="cls-5" d="M163.81,147.19c-30.6-18.45-83.62-28.84-103.95-31.62a1.73,1.73,0,0,1-1.44-1.33c-.11-.48-.23-1.07-.38-1.79-.34-1.79-.64-3.61-.89-5.44a1.73,1.73,0,0,1,1.44-2l.25,0h0c36.58-.26,81,13.71,105.75,22.68a1.72,1.72,0,0,1,1.13,1.55l.69,16.36a1.72,1.72,0,0,1-1.6,1.83A1.75,1.75,0,0,1,163.81,147.19Z"/><path class="cls-2" d="M182.42,93.14c.5,35.33-3.36,64.08-11,64.19s-16.23-28.47-16.74-63.8,3.89-64.08,11.56-64.19S181.92,57.81,182.42,93.14Z"/><path class="cls-1" d="M179.36,93.18c.45,31.61-2.21,57.32-7.65,57.4s-11.58-25.51-12-57.12,2.59-57.32,8-57.39S178.91,61.58,179.36,93.18Z"/><g class="cls-6"><path class="cls-1" d="M159.65,90.72v2.74l.06,3c0-1,0-2-.05-3.09S159.66,91.59,159.65,90.72Z"/><path class="cls-7" d="M172,93.62c-.38-26.77-4.94-40.35-9.52-46.55-1.93,9.94-2.92,25.73-2.78,43.65v2.67c0,.91,0,2.07.05,3.09.52,20.09,3.32,37.42,6.68,46.75l.08.1C170.15,136.3,172.32,119.62,172,93.62Z"/></g><path class="cls-8" d="M166.7,95.12V92L166,77l-6.23-1.3c-.17,5.6-.22,11.58-.13,17.78s.41,12.38.9,18l6.89-1.46Z"/><path class="cls-9" d="M170.32,93.47c.15,9.13-.84,16.56-2.85,16.58s-4.27-7.36-4.42-16.49S164,77,166,77,170.17,84.34,170.32,93.47Z"/></svg>