<svg xmlns="http://www.w3.org/2000/svg" viewBox="0 0 204.9 219"><defs><style>.cls-1{fill:#abd232;}.cls-2{fill:#44a347;}.cls-3{fill:#97c33b;}.cls-4{fill:#bbd032;}.cls-5{fill:#ffed00;}.cls-6{fill:#3e9440;}.cls-7{fill:#62ab1f;}</style></defs><g id="Layer_4" data-name="Layer 4"><path class="cls-1" d="M136.71,59.57,30,58.88l28.72-8.51a5.53,5.53,0,0,1,1.62-.24L165.5,51.19a4,4,0,0,1,2,1.22Z"/><path class="cls-2" d="M136.71,59.57l27.48-8.25a3.07,3.07,0,0,1,3.95,2.93v98.69a3.06,3.06,0,0,1-1.89,2.83l-30.83,13.1Z"/><rect class="cls-3" x="27.74" y="58.87" width="109.99" height="109.99" rx="2.9"/><rect class="cls-4" x="38.7" y="69.84" width="88.07" height="88.07" rx="1.98"/><path class="cls-5" d="M98.19,137.83l-3-7.84H69.84l-3,8a28.15,28.15,0,0,1-3,6.32,4.79,4.79,0,0,1-4,1.64,6,6,0,0,1-4.22-1.75,5.35,5.35,0,0,1-1.83-4,8.62,8.62,0,0,1,.43-2.63c.28-.91.75-2.18,1.4-3.79l16-40.53,1.64-4.2a20.7,20.7,0,0,1,2-4.06,8.22,8.22,0,0,1,2.85-2.62,8.58,8.58,0,0,1,4.36-1,8.69,8.69,0,0,1,4.41,1A8.3,8.3,0,0,1,89.73,85a16.81,16.81,0,0,1,1.84,3.42q.75,1.8,1.9,4.83l16.3,40.28c1.28,3.06,1.92,5.28,1.92,6.68a5.56,5.56,0,0,1-1.81,4,6,6,0,0,1-4.37,1.81,5.75,5.75,0,0,1-2.55-.53,5.38,5.38,0,0,1-1.79-1.45,13.54,13.54,0,0,1-1.55-2.81C99.06,139.91,98.59,138.79,98.19,137.83Zm-25-17.33H91.81L82.4,94.75Z"/><path class="cls-6" d="M153.33,70.48l-6.33.8a1.32,1.32,0,0,0-1.12.88A56.29,56.29,0,0,0,146,109.8a1.34,1.34,0,0,0,1.26.89l6.41,0Z"/><ellipse class="cls-7" cx="153.33" cy="90.6" rx="5.93" ry="20.13"/><path class="cls-6" d="M153.92,117.65l-6.18.8a1.35,1.35,0,0,0-1.12.89,56.34,56.34,0,0,0,.15,37.63,1.35,1.35,0,0,0,1.26.9l6.41,0Z"/><ellipse class="cls-7" cx="153.92" cy="137.78" rx="5.78" ry="20.13"/><path class="cls-6" d="M171.38,64.85l-7.11.76a1.32,1.32,0,0,0-1.12.88,56.34,56.34,0,0,0,.15,37.63,1.33,1.33,0,0,0,1.25.9l6.42,0Z"/><ellipse class="cls-7" cx="170.82" cy="84.93" rx="6.15" ry="20.13"/><path class="cls-6" d="M171.38,110l-7.11.76a1.32,1.32,0,0,0-1.12.88,56.34,56.34,0,0,0,.15,37.63,1.33,1.33,0,0,0,1.25.9l6.42,0Z"/><ellipse class="cls-7" cx="170.91" cy="130.03" rx="6.25" ry="20.13"/></g></svg>