<svg xmlns="http://www.w3.org/2000/svg" xmlns:xlink="http://www.w3.org/1999/xlink" viewBox="0 0 1920 900"><defs><clipPath id="ba4247ff-bd66-4f4f-a6f7-d00744bcef0b"><rect width="1920" height="900" style="fill:none"/></clipPath></defs><g id="a25d5c80-b386-4459-807f-e6f1e8b194d4" data-name="Layer 22"><g style="clip-path:url(#ba4247ff-bd66-4f4f-a6f7-d00744bcef0b)"><rect y="0.35" width="1920.57" height="900" style="fill:#8876b7"/><g style="opacity:0.44"><g id="fa6dec43-dc83-4e0c-8bf6-8701f117a2f3" data-name="&lt;Grid Repeat&gt;"><line x1="18.89" y1="-27.83" x2="50.82" y2="47.17" style="fill:none;stroke:#3a1e85;stroke-linecap:round;stroke-miterlimit:10"/><line x1="82.82" y1="-27.83" x2="50.89" y2="47.17" style="fill:none;stroke:#3a1e85;stroke-linecap:round;stroke-miterlimit:10"/><line x1="123.55" y1="50.42" x2="91.61" y2="125.42" style="fill:none;stroke:#3a1e85;stroke-linecap:round;stroke-miterlimit:10"/><line x1="123.61" y1="50.42" x2="155.55" y2="125.42" style="fill:none;stroke:#3a1e85;stroke-linecap:round;stroke-miterlimit:10"/><ellipse cx="123.54" cy="126.7" rx="32.3" ry="10.05" style="fill:none;stroke:#3a1e85;stroke-miterlimit:10"/></g><g id="ea85a832-0e99-49df-8edb-ad05f5860859" data-name="&lt;Grid Repeat&gt;"><line x1="167.19" y1="-27.83" x2="199.13" y2="47.17" style="fill:none;stroke:#3a1e85;stroke-linecap:round;stroke-miterlimit:10"/><line x1="231.13" y1="-27.83" x2="199.19" y2="47.17" style="fill:none;stroke:#3a1e85;stroke-linecap:round;stroke-miterlimit:10"/><line x1="271.85" y1="50.42" x2="239.91" y2="125.42" style="fill:none;stroke:#3a1e85;stroke-linecap:round;stroke-miterlimit:10"/><line x1="271.91" y1="50.42" x2="303.85" y2="125.42" style="fill:none;stroke:#3a1e85;stroke-linecap:round;stroke-miterlimit:10"/><ellipse cx="271.84" cy="126.7" rx="32.3" ry="10.05" style="fill:none;stroke:#3a1e85;stroke-miterlimit:10"/></g><g id="b686c708-0f4f-4104-bda4-e0c1589b6b49" data-name="&lt;Grid Repeat&gt;"><line x1="315.49" y1="-27.83" x2="347.43" y2="47.17" style="fill:none;stroke:#3a1e85;stroke-linecap:round;stroke-miterlimit:10"/><line x1="379.43" y1="-27.83" x2="347.49" y2="47.17" style="fill:none;stroke:#3a1e85;stroke-linecap:round;stroke-miterlimit:10"/><line x1="420.15" y1="50.42" x2="388.22" y2="125.42" style="fill:none;stroke:#3a1e85;stroke-linecap:round;stroke-miterlimit:10"/><line x1="420.22" y1="50.42" x2="452.15" y2="125.42" style="fill:none;stroke:#3a1e85;stroke-linecap:round;stroke-miterlimit:10"/><ellipse cx="420.15" cy="126.7" rx="32.3" ry="10.05" style="fill:none;stroke:#3a1e85;stroke-miterlimit:10"/></g><g id="b03e59ef-8da8-48bf-ad9f-8dab569e5bb3" data-name="&lt;Grid Repeat&gt;"><line x1="463.8" y1="-27.83" x2="495.74" y2="47.17" style="fill:none;stroke:#3a1e85;stroke-linecap:round;stroke-miterlimit:10"/><line x1="527.74" y1="-27.83" x2="495.8" y2="47.17" style="fill:none;stroke:#3a1e85;stroke-linecap:round;stroke-miterlimit:10"/><line x1="568.46" y1="50.42" x2="536.52" y2="125.42" style="fill:none;stroke:#3a1e85;stroke-linecap:round;stroke-miterlimit:10"/><line x1="568.52" y1="50.42" x2="600.46" y2="125.42" style="fill:none;stroke:#3a1e85;stroke-linecap:round;stroke-miterlimit:10"/><ellipse cx="568.45" cy="126.7" rx="32.3" ry="10.05" style="fill:none;stroke:#3a1e85;stroke-miterlimit:10"/></g><g id="aa7a93e2-2775-4323-8fdd-ff3f0cf9b565" data-name="&lt;Grid Repeat&gt;"><line x1="612.1" y1="-27.83" x2="644.04" y2="47.17" style="fill:none;stroke:#3a1e85;stroke-linecap:round;stroke-miterlimit:10"/><line x1="676.04" y1="-27.83" x2="644.1" y2="47.17" style="fill:none;stroke:#3a1e85;stroke-linecap:round;stroke-miterlimit:10"/><line x1="716.76" y1="50.42" x2="684.82" y2="125.42" style="fill:none;stroke:#3a1e85;stroke-linecap:round;stroke-miterlimit:10"/><line x1="716.82" y1="50.42" x2="748.76" y2="125.42" style="fill:none;stroke:#3a1e85;stroke-linecap:round;stroke-miterlimit:10"/><ellipse cx="716.76" cy="126.7" rx="32.3" ry="10.05" style="fill:none;stroke:#3a1e85;stroke-miterlimit:10"/></g><g id="aed34dba-87b2-46b8-8b6f-a7b6923da02b" data-name="&lt;Grid Repeat&gt;"><line x1="760.41" y1="-27.83" x2="792.34" y2="47.17" style="fill:none;stroke:#3a1e85;stroke-linecap:round;stroke-miterlimit:10"/><line x1="824.34" y1="-27.83" x2="792.41" y2="47.17" style="fill:none;stroke:#3a1e85;stroke-linecap:round;stroke-miterlimit:10"/><line x1="865.06" y1="50.42" x2="833.13" y2="125.42" style="fill:none;stroke:#3a1e85;stroke-linecap:round;stroke-miterlimit:10"/><line x1="865.13" y1="50.42" x2="897.06" y2="125.42" style="fill:none;stroke:#3a1e85;stroke-linecap:round;stroke-miterlimit:10"/><ellipse cx="865.06" cy="126.7" rx="32.3" ry="10.05" style="fill:none;stroke:#3a1e85;stroke-miterlimit:10"/></g><g id="b1c93e34-b32b-4d5f-961a-252c077cb8cc" data-name="&lt;Grid Repeat&gt;"><line x1="908.71" y1="-27.83" x2="940.65" y2="47.17" style="fill:none;stroke:#3a1e85;stroke-linecap:round;stroke-miterlimit:10"/><line x1="972.65" y1="-27.83" x2="940.71" y2="47.17" style="fill:none;stroke:#3a1e85;stroke-linecap:round;stroke-miterlimit:10"/><line x1="1013.37" y1="50.42" x2="981.43" y2="125.42" style="fill:none;stroke:#3a1e85;stroke-linecap:round;stroke-miterlimit:10"/><line x1="1013.43" y1="50.42" x2="1045.37" y2="125.42" style="fill:none;stroke:#3a1e85;stroke-linecap:round;stroke-miterlimit:10"/><ellipse cx="1013.36" cy="126.7" rx="32.3" ry="10.05" style="fill:none;stroke:#3a1e85;stroke-miterlimit:10"/></g><g id="ed5cbe3c-a5b9-409b-88f1-a24a0fae56d3" data-name="&lt;Grid Repeat&gt;"><line x1="1057.01" y1="-27.83" x2="1088.95" y2="47.17" style="fill:none;stroke:#3a1e85;stroke-linecap:round;stroke-miterlimit:10"/><line x1="1120.95" y1="-27.83" x2="1089.01" y2="47.17" style="fill:none;stroke:#3a1e85;stroke-linecap:round;stroke-miterlimit:10"/><line x1="1161.67" y1="50.42" x2="1129.73" y2="125.42" style="fill:none;stroke:#3a1e85;stroke-linecap:round;stroke-miterlimit:10"/><line x1="1161.73" y1="50.42" x2="1193.67" y2="125.42" style="fill:none;stroke:#3a1e85;stroke-linecap:round;stroke-miterlimit:10"/><ellipse cx="1161.67" cy="126.7" rx="32.3" ry="10.05" style="fill:none;stroke:#3a1e85;stroke-miterlimit:10"/></g><g id="a23fdf42-2497-467c-bc16-79da9f7e6ca9" data-name="&lt;Grid Repeat&gt;"><line x1="1205.32" y1="-27.83" x2="1237.25" y2="47.17" style="fill:none;stroke:#3a1e85;stroke-linecap:round;stroke-miterlimit:10"/><line x1="1269.25" y1="-27.83" x2="1237.32" y2="47.17" style="fill:none;stroke:#3a1e85;stroke-linecap:round;stroke-miterlimit:10"/><line x1="1309.98" y1="50.42" x2="1278.04" y2="125.42" style="fill:none;stroke:#3a1e85;stroke-linecap:round;stroke-miterlimit:10"/><line x1="1310.04" y1="50.42" x2="1341.98" y2="125.42" style="fill:none;stroke:#3a1e85;stroke-linecap:round;stroke-miterlimit:10"/><ellipse cx="1309.97" cy="126.7" rx="32.3" ry="10.05" style="fill:none;stroke:#3a1e85;stroke-miterlimit:10"/></g><g id="e8854e9b-270f-4dbe-8f64-20c48c5fa0ed" data-name="&lt;Grid Repeat&gt;"><line x1="1353.62" y1="-27.83" x2="1385.56" y2="47.17" style="fill:none;stroke:#3a1e85;stroke-linecap:round;stroke-miterlimit:10"/><line x1="1417.56" y1="-27.83" x2="1385.62" y2="47.17" style="fill:none;stroke:#3a1e85;stroke-linecap:round;stroke-miterlimit:10"/><line x1="1458.28" y1="50.42" x2="1426.34" y2="125.42" style="fill:none;stroke:#3a1e85;stroke-linecap:round;stroke-miterlimit:10"/><line x1="1458.34" y1="50.42" x2="1490.28" y2="125.42" style="fill:none;stroke:#3a1e85;stroke-linecap:round;stroke-miterlimit:10"/><ellipse cx="1458.27" cy="126.7" rx="32.3" ry="10.05" style="fill:none;stroke:#3a1e85;stroke-miterlimit:10"/></g><g id="f0abee42-0db7-41da-a45f-2db4fba54c96" data-name="&lt;Grid Repeat&gt;"><line x1="1501.92" y1="-27.83" x2="1533.86" y2="47.17" style="fill:none;stroke:#3a1e85;stroke-linecap:round;stroke-miterlimit:10"/><line x1="1565.86" y1="-27.83" x2="1533.92" y2="47.17" style="fill:none;stroke:#3a1e85;stroke-linecap:round;stroke-miterlimit:10"/><line x1="1606.58" y1="50.42" x2="1574.65" y2="125.42" style="fill:none;stroke:#3a1e85;stroke-linecap:round;stroke-miterlimit:10"/><line x1="1606.65" y1="50.42" x2="1638.58" y2="125.42" style="fill:none;stroke:#3a1e85;stroke-linecap:round;stroke-miterlimit:10"/><ellipse cx="1606.58" cy="126.7" rx="32.3" ry="10.05" style="fill:none;stroke:#3a1e85;stroke-miterlimit:10"/></g><g id="e10a8363-7a04-4a50-be10-0dd1c240ad64" data-name="&lt;Grid Repeat&gt;"><line x1="1650.23" y1="-27.83" x2="1682.17" y2="47.17" style="fill:none;stroke:#3a1e85;stroke-linecap:round;stroke-miterlimit:10"/><line x1="1714.17" y1="-27.83" x2="1682.23" y2="47.17" style="fill:none;stroke:#3a1e85;stroke-linecap:round;stroke-miterlimit:10"/><line x1="1754.89" y1="50.42" x2="1722.95" y2="125.42" style="fill:none;stroke:#3a1e85;stroke-linecap:round;stroke-miterlimit:10"/><line x1="1754.95" y1="50.42" x2="1786.89" y2="125.42" style="fill:none;stroke:#3a1e85;stroke-linecap:round;stroke-miterlimit:10"/><ellipse cx="1754.88" cy="126.7" rx="32.3" ry="10.05" style="fill:none;stroke:#3a1e85;stroke-miterlimit:10"/></g><g id="a0ee36d8-6b78-4877-858b-9e905f1df10f" data-name="&lt;Grid Repeat&gt;"><line x1="1798.53" y1="-27.83" x2="1830.47" y2="47.17" style="fill:none;stroke:#3a1e85;stroke-linecap:round;stroke-miterlimit:10"/><line x1="1862.47" y1="-27.83" x2="1830.53" y2="47.17" style="fill:none;stroke:#3a1e85;stroke-linecap:round;stroke-miterlimit:10"/><line x1="1903.19" y1="50.42" x2="1871.25" y2="125.42" style="fill:none;stroke:#3a1e85;stroke-linecap:round;stroke-miterlimit:10"/><line x1="1903.25" y1="50.42" x2="1935.19" y2="125.42" style="fill:none;stroke:#3a1e85;stroke-linecap:round;stroke-miterlimit:10"/><ellipse cx="1903.19" cy="126.7" rx="32.3" ry="10.05" style="fill:none;stroke:#3a1e85;stroke-miterlimit:10"/></g><g id="b6880987-c028-4b43-8360-939ccff8e218" data-name="&lt;Grid Repeat&gt;"><line x1="18.89" y1="199.09" x2="50.82" y2="274.09" style="fill:none;stroke:#3a1e85;stroke-linecap:round;stroke-miterlimit:10"/><line x1="82.82" y1="199.09" x2="50.89" y2="274.09" style="fill:none;stroke:#3a1e85;stroke-linecap:round;stroke-miterlimit:10"/><ellipse cx="50.85" cy="197.8" rx="32.32" ry="10.05" style="fill:none;stroke:#3a1e85;stroke-miterlimit:10"/><line x1="123.55" y1="277.33" x2="91.61" y2="352.33" style="fill:none;stroke:#3a1e85;stroke-linecap:round;stroke-miterlimit:10"/><line x1="123.61" y1="277.33" x2="155.55" y2="352.33" style="fill:none;stroke:#3a1e85;stroke-linecap:round;stroke-miterlimit:10"/><ellipse cx="123.54" cy="353.62" rx="32.3" ry="10.05" style="fill:none;stroke:#3a1e85;stroke-miterlimit:10"/></g><g id="f122d8f2-9138-4525-ab04-f551ff18aa3c" data-name="&lt;Grid Repeat&gt;"><line x1="167.19" y1="199.09" x2="199.13" y2="274.09" style="fill:none;stroke:#3a1e85;stroke-linecap:round;stroke-miterlimit:10"/><line x1="231.13" y1="199.09" x2="199.19" y2="274.09" style="fill:none;stroke:#3a1e85;stroke-linecap:round;stroke-miterlimit:10"/><ellipse cx="199.16" cy="197.8" rx="32.32" ry="10.05" style="fill:none;stroke:#3a1e85;stroke-miterlimit:10"/><line x1="271.85" y1="277.33" x2="239.91" y2="352.33" style="fill:none;stroke:#3a1e85;stroke-linecap:round;stroke-miterlimit:10"/><line x1="271.91" y1="277.33" x2="303.85" y2="352.33" style="fill:none;stroke:#3a1e85;stroke-linecap:round;stroke-miterlimit:10"/><ellipse cx="271.84" cy="353.62" rx="32.3" ry="10.05" style="fill:none;stroke:#3a1e85;stroke-miterlimit:10"/></g><g id="e1417c84-a0e4-4856-bf5a-e9c263b310f9" data-name="&lt;Grid Repeat&gt;"><line x1="315.49" y1="199.09" x2="347.43" y2="274.09" style="fill:none;stroke:#3a1e85;stroke-linecap:round;stroke-miterlimit:10"/><line x1="379.43" y1="199.09" x2="347.49" y2="274.09" style="fill:none;stroke:#3a1e85;stroke-linecap:round;stroke-miterlimit:10"/><ellipse cx="347.46" cy="197.8" rx="32.32" ry="10.05" style="fill:none;stroke:#3a1e85;stroke-miterlimit:10"/><line x1="420.15" y1="277.33" x2="388.22" y2="352.33" style="fill:none;stroke:#3a1e85;stroke-linecap:round;stroke-miterlimit:10"/><line x1="420.22" y1="277.33" x2="452.15" y2="352.33" style="fill:none;stroke:#3a1e85;stroke-linecap:round;stroke-miterlimit:10"/><ellipse cx="420.15" cy="353.62" rx="32.3" ry="10.05" style="fill:none;stroke:#3a1e85;stroke-miterlimit:10"/></g><g id="b0836136-6313-40dc-8c9d-0504f47228fd" data-name="&lt;Grid Repeat&gt;"><line x1="463.8" y1="199.09" x2="495.74" y2="274.09" style="fill:none;stroke:#3a1e85;stroke-linecap:round;stroke-miterlimit:10"/><line x1="527.74" y1="199.09" x2="495.8" y2="274.09" style="fill:none;stroke:#3a1e85;stroke-linecap:round;stroke-miterlimit:10"/><ellipse cx="495.76" cy="197.8" rx="32.32" ry="10.05" style="fill:none;stroke:#3a1e85;stroke-miterlimit:10"/><line x1="568.46" y1="277.33" x2="536.52" y2="352.33" style="fill:none;stroke:#3a1e85;stroke-linecap:round;stroke-miterlimit:10"/><line x1="568.52" y1="277.33" x2="600.46" y2="352.33" style="fill:none;stroke:#3a1e85;stroke-linecap:round;stroke-miterlimit:10"/><ellipse cx="568.45" cy="353.62" rx="32.3" ry="10.05" style="fill:none;stroke:#3a1e85;stroke-miterlimit:10"/></g><g id="b5f1a875-d959-4568-a0a1-bbe158013e91" data-name="&lt;Grid Repeat&gt;"><line x1="612.1" y1="199.09" x2="644.04" y2="274.09" style="fill:none;stroke:#3a1e85;stroke-linecap:round;stroke-miterlimit:10"/><line x1="676.04" y1="199.09" x2="644.1" y2="274.09" style="fill:none;stroke:#3a1e85;stroke-linecap:round;stroke-miterlimit:10"/><ellipse cx="644.07" cy="197.8" rx="32.32" ry="10.05" style="fill:none;stroke:#3a1e85;stroke-miterlimit:10"/><line x1="716.76" y1="277.33" x2="684.82" y2="352.33" style="fill:none;stroke:#3a1e85;stroke-linecap:round;stroke-miterlimit:10"/><line x1="716.82" y1="277.33" x2="748.76" y2="352.33" style="fill:none;stroke:#3a1e85;stroke-linecap:round;stroke-miterlimit:10"/><ellipse cx="716.76" cy="353.62" rx="32.3" ry="10.05" style="fill:none;stroke:#3a1e85;stroke-miterlimit:10"/></g><g id="e4327aae-b7f4-4189-a173-ef9765227fa2" data-name="&lt;Grid Repeat&gt;"><line x1="760.41" y1="199.09" x2="792.34" y2="274.09" style="fill:none;stroke:#3a1e85;stroke-linecap:round;stroke-miterlimit:10"/><line x1="824.34" y1="199.09" x2="792.41" y2="274.09" style="fill:none;stroke:#3a1e85;stroke-linecap:round;stroke-miterlimit:10"/><ellipse cx="792.37" cy="197.8" rx="32.32" ry="10.05" style="fill:none;stroke:#3a1e85;stroke-miterlimit:10"/><line x1="865.06" y1="277.33" x2="833.13" y2="352.33" style="fill:none;stroke:#3a1e85;stroke-linecap:round;stroke-miterlimit:10"/><line x1="865.13" y1="277.33" x2="897.06" y2="352.33" style="fill:none;stroke:#3a1e85;stroke-linecap:round;stroke-miterlimit:10"/><ellipse cx="865.06" cy="353.62" rx="32.3" ry="10.05" style="fill:none;stroke:#3a1e85;stroke-miterlimit:10"/></g><g id="e3496a11-0908-4059-bb64-9c56a36781d9" data-name="&lt;Grid Repeat&gt;"><line x1="908.71" y1="199.09" x2="940.65" y2="274.09" style="fill:none;stroke:#3a1e85;stroke-linecap:round;stroke-miterlimit:10"/><line x1="972.65" y1="199.09" x2="940.71" y2="274.09" style="fill:none;stroke:#3a1e85;stroke-linecap:round;stroke-miterlimit:10"/><ellipse cx="940.68" cy="197.8" rx="32.32" ry="10.05" style="fill:none;stroke:#3a1e85;stroke-miterlimit:10"/><line x1="1013.37" y1="277.33" x2="981.43" y2="352.33" style="fill:none;stroke:#3a1e85;stroke-linecap:round;stroke-miterlimit:10"/><line x1="1013.43" y1="277.33" x2="1045.37" y2="352.33" style="fill:none;stroke:#3a1e85;stroke-linecap:round;stroke-miterlimit:10"/><ellipse cx="1013.36" cy="353.62" rx="32.3" ry="10.05" style="fill:none;stroke:#3a1e85;stroke-miterlimit:10"/></g><g id="b4508977-94f6-416f-8f99-fd357f51e30b" data-name="&lt;Grid Repeat&gt;"><line x1="1057.01" y1="199.09" x2="1088.95" y2="274.09" style="fill:none;stroke:#3a1e85;stroke-linecap:round;stroke-miterlimit:10"/><line x1="1120.95" y1="199.09" x2="1089.01" y2="274.09" style="fill:none;stroke:#3a1e85;stroke-linecap:round;stroke-miterlimit:10"/><ellipse cx="1088.98" cy="197.8" rx="32.32" ry="10.05" style="fill:none;stroke:#3a1e85;stroke-miterlimit:10"/><line x1="1161.67" y1="277.33" x2="1129.73" y2="352.33" style="fill:none;stroke:#3a1e85;stroke-linecap:round;stroke-miterlimit:10"/><line x1="1161.73" y1="277.33" x2="1193.67" y2="352.33" style="fill:none;stroke:#3a1e85;stroke-linecap:round;stroke-miterlimit:10"/><ellipse cx="1161.67" cy="353.62" rx="32.3" ry="10.05" style="fill:none;stroke:#3a1e85;stroke-miterlimit:10"/></g><g id="f8fe083f-a9c1-4aeb-9ed1-f99648fcd567" data-name="&lt;Grid Repeat&gt;"><line x1="1205.32" y1="199.09" x2="1237.25" y2="274.09" style="fill:none;stroke:#3a1e85;stroke-linecap:round;stroke-miterlimit:10"/><line x1="1269.25" y1="199.09" x2="1237.32" y2="274.09" style="fill:none;stroke:#3a1e85;stroke-linecap:round;stroke-miterlimit:10"/><ellipse cx="1237.28" cy="197.8" rx="32.32" ry="10.05" style="fill:none;stroke:#3a1e85;stroke-miterlimit:10"/><line x1="1309.98" y1="277.33" x2="1278.04" y2="352.33" style="fill:none;stroke:#3a1e85;stroke-linecap:round;stroke-miterlimit:10"/><line x1="1310.04" y1="277.33" x2="1341.98" y2="352.33" style="fill:none;stroke:#3a1e85;stroke-linecap:round;stroke-miterlimit:10"/><ellipse cx="1309.97" cy="353.62" rx="32.3" ry="10.05" style="fill:none;stroke:#3a1e85;stroke-miterlimit:10"/></g><g id="e832d147-b7df-461a-a258-566b8478be6c" data-name="&lt;Grid Repeat&gt;"><line x1="1353.62" y1="199.09" x2="1385.56" y2="274.09" style="fill:none;stroke:#3a1e85;stroke-linecap:round;stroke-miterlimit:10"/><line x1="1417.56" y1="199.09" x2="1385.62" y2="274.09" style="fill:none;stroke:#3a1e85;stroke-linecap:round;stroke-miterlimit:10"/><ellipse cx="1385.59" cy="197.8" rx="32.32" ry="10.05" style="fill:none;stroke:#3a1e85;stroke-miterlimit:10"/><line x1="1458.28" y1="277.33" x2="1426.34" y2="352.33" style="fill:none;stroke:#3a1e85;stroke-linecap:round;stroke-miterlimit:10"/><line x1="1458.34" y1="277.33" x2="1490.28" y2="352.33" style="fill:none;stroke:#3a1e85;stroke-linecap:round;stroke-miterlimit:10"/><ellipse cx="1458.27" cy="353.62" rx="32.3" ry="10.05" style="fill:none;stroke:#3a1e85;stroke-miterlimit:10"/></g><g id="ac9cd7fe-55e6-497c-a62f-a60f37f7213a" data-name="&lt;Grid Repeat&gt;"><line x1="1501.92" y1="199.09" x2="1533.86" y2="274.09" style="fill:none;stroke:#3a1e85;stroke-linecap:round;stroke-miterlimit:10"/><line x1="1565.86" y1="199.09" x2="1533.92" y2="274.09" style="fill:none;stroke:#3a1e85;stroke-linecap:round;stroke-miterlimit:10"/><ellipse cx="1533.89" cy="197.8" rx="32.32" ry="10.05" style="fill:none;stroke:#3a1e85;stroke-miterlimit:10"/><line x1="1606.58" y1="277.33" x2="1574.65" y2="352.33" style="fill:none;stroke:#3a1e85;stroke-linecap:round;stroke-miterlimit:10"/><line x1="1606.65" y1="277.33" x2="1638.58" y2="352.33" style="fill:none;stroke:#3a1e85;stroke-linecap:round;stroke-miterlimit:10"/><ellipse cx="1606.58" cy="353.62" rx="32.3" ry="10.05" style="fill:none;stroke:#3a1e85;stroke-miterlimit:10"/></g><g id="a20ce0d3-9bd2-4fd8-865d-99c5fadf8d71" data-name="&lt;Grid Repeat&gt;"><line x1="1650.23" y1="199.09" x2="1682.17" y2="274.09" style="fill:none;stroke:#3a1e85;stroke-linecap:round;stroke-miterlimit:10"/><line x1="1714.17" y1="199.09" x2="1682.23" y2="274.09" style="fill:none;stroke:#3a1e85;stroke-linecap:round;stroke-miterlimit:10"/><ellipse cx="1682.2" cy="197.8" rx="32.32" ry="10.05" style="fill:none;stroke:#3a1e85;stroke-miterlimit:10"/><line x1="1754.89" y1="277.33" x2="1722.95" y2="352.33" style="fill:none;stroke:#3a1e85;stroke-linecap:round;stroke-miterlimit:10"/><line x1="1754.95" y1="277.33" x2="1786.89" y2="352.33" style="fill:none;stroke:#3a1e85;stroke-linecap:round;stroke-miterlimit:10"/><ellipse cx="1754.88" cy="353.62" rx="32.3" ry="10.05" style="fill:none;stroke:#3a1e85;stroke-miterlimit:10"/></g><g id="a16917bd-20d2-4c54-b464-e4a6e355977f" data-name="&lt;Grid Repeat&gt;"><line x1="1798.53" y1="199.09" x2="1830.47" y2="274.09" style="fill:none;stroke:#3a1e85;stroke-linecap:round;stroke-miterlimit:10"/><line x1="1862.47" y1="199.09" x2="1830.53" y2="274.09" style="fill:none;stroke:#3a1e85;stroke-linecap:round;stroke-miterlimit:10"/><ellipse cx="1830.5" cy="197.8" rx="32.32" ry="10.05" style="fill:none;stroke:#3a1e85;stroke-miterlimit:10"/><line x1="1903.19" y1="277.33" x2="1871.25" y2="352.33" style="fill:none;stroke:#3a1e85;stroke-linecap:round;stroke-miterlimit:10"/><line x1="1903.25" y1="277.33" x2="1935.19" y2="352.33" style="fill:none;stroke:#3a1e85;stroke-linecap:round;stroke-miterlimit:10"/><ellipse cx="1903.19" cy="353.62" rx="32.3" ry="10.05" style="fill:none;stroke:#3a1e85;stroke-miterlimit:10"/></g><g id="bf803283-860c-489f-8cd0-c90773d450e2" data-name="&lt;Grid Repeat&gt;"><line x1="18.89" y1="426" x2="50.82" y2="501" style="fill:none;stroke:#3a1e85;stroke-linecap:round;stroke-miterlimit:10"/><line x1="82.82" y1="426" x2="50.89" y2="501" style="fill:none;stroke:#3a1e85;stroke-linecap:round;stroke-miterlimit:10"/><ellipse cx="50.85" cy="424.71" rx="32.32" ry="10.05" style="fill:none;stroke:#3a1e85;stroke-miterlimit:10"/><line x1="123.55" y1="504.25" x2="91.61" y2="579.25" style="fill:none;stroke:#3a1e85;stroke-linecap:round;stroke-miterlimit:10"/><line x1="123.61" y1="504.25" x2="155.55" y2="579.25" style="fill:none;stroke:#3a1e85;stroke-linecap:round;stroke-miterlimit:10"/><ellipse cx="123.54" cy="580.53" rx="32.3" ry="10.05" style="fill:none;stroke:#3a1e85;stroke-miterlimit:10"/></g><g id="f0defde7-5170-4c60-b330-8fa6e5072e70" data-name="&lt;Grid Repeat&gt;"><line x1="167.19" y1="426" x2="199.13" y2="501" style="fill:none;stroke:#3a1e85;stroke-linecap:round;stroke-miterlimit:10"/><line x1="231.13" y1="426" x2="199.19" y2="501" style="fill:none;stroke:#3a1e85;stroke-linecap:round;stroke-miterlimit:10"/><ellipse cx="199.16" cy="424.71" rx="32.32" ry="10.05" style="fill:none;stroke:#3a1e85;stroke-miterlimit:10"/><line x1="271.85" y1="504.25" x2="239.91" y2="579.25" style="fill:none;stroke:#3a1e85;stroke-linecap:round;stroke-miterlimit:10"/><line x1="271.91" y1="504.25" x2="303.85" y2="579.25" style="fill:none;stroke:#3a1e85;stroke-linecap:round;stroke-miterlimit:10"/><ellipse cx="271.84" cy="580.53" rx="32.3" ry="10.05" style="fill:none;stroke:#3a1e85;stroke-miterlimit:10"/></g><g id="e32e39fd-41d5-4c5b-8ad5-e92058d9eb3a" data-name="&lt;Grid Repeat&gt;"><line x1="315.49" y1="426" x2="347.43" y2="501" style="fill:none;stroke:#3a1e85;stroke-linecap:round;stroke-miterlimit:10"/><line x1="379.43" y1="426" x2="347.49" y2="501" style="fill:none;stroke:#3a1e85;stroke-linecap:round;stroke-miterlimit:10"/><ellipse cx="347.46" cy="424.71" rx="32.32" ry="10.05" style="fill:none;stroke:#3a1e85;stroke-miterlimit:10"/><line x1="420.15" y1="504.25" x2="388.22" y2="579.25" style="fill:none;stroke:#3a1e85;stroke-linecap:round;stroke-miterlimit:10"/><line x1="420.22" y1="504.25" x2="452.15" y2="579.25" style="fill:none;stroke:#3a1e85;stroke-linecap:round;stroke-miterlimit:10"/><ellipse cx="420.15" cy="580.53" rx="32.3" ry="10.05" style="fill:none;stroke:#3a1e85;stroke-miterlimit:10"/></g><g id="b677c126-a6ea-4216-901d-3b21ba8ada06" data-name="&lt;Grid Repeat&gt;"><line x1="463.8" y1="426" x2="495.74" y2="501" style="fill:none;stroke:#3a1e85;stroke-linecap:round;stroke-miterlimit:10"/><line x1="527.74" y1="426" x2="495.8" y2="501" style="fill:none;stroke:#3a1e85;stroke-linecap:round;stroke-miterlimit:10"/><ellipse cx="495.76" cy="424.71" rx="32.32" ry="10.05" style="fill:none;stroke:#3a1e85;stroke-miterlimit:10"/><line x1="568.46" y1="504.25" x2="536.52" y2="579.25" style="fill:none;stroke:#3a1e85;stroke-linecap:round;stroke-miterlimit:10"/><line x1="568.52" y1="504.25" x2="600.46" y2="579.25" style="fill:none;stroke:#3a1e85;stroke-linecap:round;stroke-miterlimit:10"/><ellipse cx="568.45" cy="580.53" rx="32.3" ry="10.05" style="fill:none;stroke:#3a1e85;stroke-miterlimit:10"/></g><g id="a3978163-3807-4fca-9516-d618f62ffb6b" data-name="&lt;Grid Repeat&gt;"><line x1="612.1" y1="426" x2="644.04" y2="501" style="fill:none;stroke:#3a1e85;stroke-linecap:round;stroke-miterlimit:10"/><line x1="676.04" y1="426" x2="644.1" y2="501" style="fill:none;stroke:#3a1e85;stroke-linecap:round;stroke-miterlimit:10"/><ellipse cx="644.07" cy="424.71" rx="32.32" ry="10.05" style="fill:none;stroke:#3a1e85;stroke-miterlimit:10"/><line x1="716.76" y1="504.25" x2="684.82" y2="579.25" style="fill:none;stroke:#3a1e85;stroke-linecap:round;stroke-miterlimit:10"/><line x1="716.82" y1="504.25" x2="748.76" y2="579.25" style="fill:none;stroke:#3a1e85;stroke-linecap:round;stroke-miterlimit:10"/><ellipse cx="716.76" cy="580.53" rx="32.3" ry="10.05" style="fill:none;stroke:#3a1e85;stroke-miterlimit:10"/></g><g id="f7600315-8f4a-4f77-9b5f-143097609eab" data-name="&lt;Grid Repeat&gt;"><line x1="760.41" y1="426" x2="792.34" y2="501" style="fill:none;stroke:#3a1e85;stroke-linecap:round;stroke-miterlimit:10"/><line x1="824.34" y1="426" x2="792.41" y2="501" style="fill:none;stroke:#3a1e85;stroke-linecap:round;stroke-miterlimit:10"/><ellipse cx="792.37" cy="424.71" rx="32.32" ry="10.05" style="fill:none;stroke:#3a1e85;stroke-miterlimit:10"/><line x1="865.06" y1="504.25" x2="833.13" y2="579.25" style="fill:none;stroke:#3a1e85;stroke-linecap:round;stroke-miterlimit:10"/><line x1="865.13" y1="504.25" x2="897.06" y2="579.25" style="fill:none;stroke:#3a1e85;stroke-linecap:round;stroke-miterlimit:10"/><ellipse cx="865.06" cy="580.53" rx="32.3" ry="10.05" style="fill:none;stroke:#3a1e85;stroke-miterlimit:10"/></g><g id="bc66dc54-1d64-409b-b5ca-fdcf5e4476f7" data-name="&lt;Grid Repeat&gt;"><line x1="908.71" y1="426" x2="940.65" y2="501" style="fill:none;stroke:#3a1e85;stroke-linecap:round;stroke-miterlimit:10"/><line x1="972.65" y1="426" x2="940.71" y2="501" style="fill:none;stroke:#3a1e85;stroke-linecap:round;stroke-miterlimit:10"/><ellipse cx="940.68" cy="424.71" rx="32.32" ry="10.05" style="fill:none;stroke:#3a1e85;stroke-miterlimit:10"/><line x1="1013.37" y1="504.25" x2="981.43" y2="579.25" style="fill:none;stroke:#3a1e85;stroke-linecap:round;stroke-miterlimit:10"/><line x1="1013.43" y1="504.25" x2="1045.37" y2="579.25" style="fill:none;stroke:#3a1e85;stroke-linecap:round;stroke-miterlimit:10"/><ellipse cx="1013.36" cy="580.53" rx="32.3" ry="10.05" style="fill:none;stroke:#3a1e85;stroke-miterlimit:10"/></g><g id="ff2061f2-ed4f-4009-b271-b9c2a4b2da8e" data-name="&lt;Grid Repeat&gt;"><line x1="1057.01" y1="426" x2="1088.95" y2="501" style="fill:none;stroke:#3a1e85;stroke-linecap:round;stroke-miterlimit:10"/><line x1="1120.95" y1="426" x2="1089.01" y2="501" style="fill:none;stroke:#3a1e85;stroke-linecap:round;stroke-miterlimit:10"/><ellipse cx="1088.98" cy="424.71" rx="32.32" ry="10.05" style="fill:none;stroke:#3a1e85;stroke-miterlimit:10"/><line x1="1161.67" y1="504.25" x2="1129.73" y2="579.25" style="fill:none;stroke:#3a1e85;stroke-linecap:round;stroke-miterlimit:10"/><line x1="1161.73" y1="504.25" x2="1193.67" y2="579.25" style="fill:none;stroke:#3a1e85;stroke-linecap:round;stroke-miterlimit:10"/><ellipse cx="1161.67" cy="580.53" rx="32.3" ry="10.05" style="fill:none;stroke:#3a1e85;stroke-miterlimit:10"/></g><g id="a6af463c-3d3c-4f6a-835a-cf4d89ae5b32" data-name="&lt;Grid Repeat&gt;"><line x1="1205.32" y1="426" x2="1237.25" y2="501" style="fill:none;stroke:#3a1e85;stroke-linecap:round;stroke-miterlimit:10"/><line x1="1269.25" y1="426" x2="1237.32" y2="501" style="fill:none;stroke:#3a1e85;stroke-linecap:round;stroke-miterlimit:10"/><ellipse cx="1237.28" cy="424.71" rx="32.32" ry="10.05" style="fill:none;stroke:#3a1e85;stroke-miterlimit:10"/><line x1="1309.98" y1="504.25" x2="1278.04" y2="579.25" style="fill:none;stroke:#3a1e85;stroke-linecap:round;stroke-miterlimit:10"/><line x1="1310.04" y1="504.25" x2="1341.98" y2="579.25" style="fill:none;stroke:#3a1e85;stroke-linecap:round;stroke-miterlimit:10"/><ellipse cx="1309.97" cy="580.53" rx="32.3" ry="10.05" style="fill:none;stroke:#3a1e85;stroke-miterlimit:10"/></g><g id="bd088604-4f4e-4e65-9439-3fa7319de636" data-name="&lt;Grid Repeat&gt;"><line x1="1353.62" y1="426" x2="1385.56" y2="501" style="fill:none;stroke:#3a1e85;stroke-linecap:round;stroke-miterlimit:10"/><line x1="1417.56" y1="426" x2="1385.62" y2="501" style="fill:none;stroke:#3a1e85;stroke-linecap:round;stroke-miterlimit:10"/><ellipse cx="1385.59" cy="424.71" rx="32.32" ry="10.05" style="fill:none;stroke:#3a1e85;stroke-miterlimit:10"/><line x1="1458.28" y1="504.25" x2="1426.34" y2="579.25" style="fill:none;stroke:#3a1e85;stroke-linecap:round;stroke-miterlimit:10"/><line x1="1458.34" y1="504.25" x2="1490.28" y2="579.25" style="fill:none;stroke:#3a1e85;stroke-linecap:round;stroke-miterlimit:10"/><ellipse cx="1458.27" cy="580.53" rx="32.3" ry="10.05" style="fill:none;stroke:#3a1e85;stroke-miterlimit:10"/></g><g id="b166e687-bcf1-44cb-b883-18bde10fbaf6" data-name="&lt;Grid Repeat&gt;"><line x1="1501.92" y1="426" x2="1533.86" y2="501" style="fill:none;stroke:#3a1e85;stroke-linecap:round;stroke-miterlimit:10"/><line x1="1565.86" y1="426" x2="1533.92" y2="501" style="fill:none;stroke:#3a1e85;stroke-linecap:round;stroke-miterlimit:10"/><ellipse cx="1533.89" cy="424.71" rx="32.32" ry="10.05" style="fill:none;stroke:#3a1e85;stroke-miterlimit:10"/><line x1="1606.58" y1="504.25" x2="1574.65" y2="579.25" style="fill:none;stroke:#3a1e85;stroke-linecap:round;stroke-miterlimit:10"/><line x1="1606.65" y1="504.25" x2="1638.58" y2="579.25" style="fill:none;stroke:#3a1e85;stroke-linecap:round;stroke-miterlimit:10"/><ellipse cx="1606.58" cy="580.53" rx="32.3" ry="10.05" style="fill:none;stroke:#3a1e85;stroke-miterlimit:10"/></g><g id="ed89e812-95fd-4e5b-a7cf-a9d49fd65cbe" data-name="&lt;Grid Repeat&gt;"><line x1="1650.23" y1="426" x2="1682.17" y2="501" style="fill:none;stroke:#3a1e85;stroke-linecap:round;stroke-miterlimit:10"/><line x1="1714.17" y1="426" x2="1682.23" y2="501" style="fill:none;stroke:#3a1e85;stroke-linecap:round;stroke-miterlimit:10"/><ellipse cx="1682.2" cy="424.71" rx="32.32" ry="10.05" style="fill:none;stroke:#3a1e85;stroke-miterlimit:10"/><line x1="1754.89" y1="504.25" x2="1722.95" y2="579.25" style="fill:none;stroke:#3a1e85;stroke-linecap:round;stroke-miterlimit:10"/><line x1="1754.95" y1="504.25" x2="1786.89" y2="579.25" style="fill:none;stroke:#3a1e85;stroke-linecap:round;stroke-miterlimit:10"/><ellipse cx="1754.88" cy="580.53" rx="32.3" ry="10.05" style="fill:none;stroke:#3a1e85;stroke-miterlimit:10"/></g><g id="ad736abe-8754-49dc-b9a0-bdcd44ae6728" data-name="&lt;Grid Repeat&gt;"><line x1="1798.53" y1="426" x2="1830.47" y2="501" style="fill:none;stroke:#3a1e85;stroke-linecap:round;stroke-miterlimit:10"/><line x1="1862.47" y1="426" x2="1830.53" y2="501" style="fill:none;stroke:#3a1e85;stroke-linecap:round;stroke-miterlimit:10"/><ellipse cx="1830.5" cy="424.71" rx="32.32" ry="10.05" style="fill:none;stroke:#3a1e85;stroke-miterlimit:10"/><line x1="1903.19" y1="504.25" x2="1871.25" y2="579.25" style="fill:none;stroke:#3a1e85;stroke-linecap:round;stroke-miterlimit:10"/><line x1="1903.25" y1="504.25" x2="1935.19" y2="579.25" style="fill:none;stroke:#3a1e85;stroke-linecap:round;stroke-miterlimit:10"/><ellipse cx="1903.19" cy="580.53" rx="32.3" ry="10.05" style="fill:none;stroke:#3a1e85;stroke-miterlimit:10"/></g><g id="b6790597-ac42-44c7-b821-8e25b3da1dd0" data-name="&lt;Grid Repeat&gt;"><line x1="18.89" y1="652.92" x2="50.82" y2="727.92" style="fill:none;stroke:#3a1e85;stroke-linecap:round;stroke-miterlimit:10"/><line x1="82.82" y1="652.92" x2="50.89" y2="727.92" style="fill:none;stroke:#3a1e85;stroke-linecap:round;stroke-miterlimit:10"/><ellipse cx="50.85" cy="651.63" rx="32.32" ry="10.05" style="fill:none;stroke:#3a1e85;stroke-miterlimit:10"/><line x1="123.55" y1="731.16" x2="91.61" y2="806.16" style="fill:none;stroke:#3a1e85;stroke-linecap:round;stroke-miterlimit:10"/><line x1="123.61" y1="731.16" x2="155.55" y2="806.16" style="fill:none;stroke:#3a1e85;stroke-linecap:round;stroke-miterlimit:10"/><ellipse cx="123.54" cy="807.45" rx="32.3" ry="10.05" style="fill:none;stroke:#3a1e85;stroke-miterlimit:10"/></g><g id="a311ddc5-ce3a-4627-8100-e2e8148683c3" data-name="&lt;Grid Repeat&gt;"><line x1="167.19" y1="652.92" x2="199.13" y2="727.92" style="fill:none;stroke:#3a1e85;stroke-linecap:round;stroke-miterlimit:10"/><line x1="231.13" y1="652.92" x2="199.19" y2="727.92" style="fill:none;stroke:#3a1e85;stroke-linecap:round;stroke-miterlimit:10"/><ellipse cx="199.16" cy="651.63" rx="32.32" ry="10.05" style="fill:none;stroke:#3a1e85;stroke-miterlimit:10"/><line x1="271.85" y1="731.16" x2="239.91" y2="806.16" style="fill:none;stroke:#3a1e85;stroke-linecap:round;stroke-miterlimit:10"/><line x1="271.91" y1="731.16" x2="303.85" y2="806.16" style="fill:none;stroke:#3a1e85;stroke-linecap:round;stroke-miterlimit:10"/><ellipse cx="271.84" cy="807.45" rx="32.3" ry="10.05" style="fill:none;stroke:#3a1e85;stroke-miterlimit:10"/></g><g id="aad5a8b2-cc89-491b-b1d8-6de684d23e6e" data-name="&lt;Grid Repeat&gt;"><line x1="315.49" y1="652.92" x2="347.43" y2="727.92" style="fill:none;stroke:#3a1e85;stroke-linecap:round;stroke-miterlimit:10"/><line x1="379.43" y1="652.92" x2="347.49" y2="727.92" style="fill:none;stroke:#3a1e85;stroke-linecap:round;stroke-miterlimit:10"/><ellipse cx="347.46" cy="651.63" rx="32.32" ry="10.05" style="fill:none;stroke:#3a1e85;stroke-miterlimit:10"/><line x1="420.15" y1="731.16" x2="388.22" y2="806.16" style="fill:none;stroke:#3a1e85;stroke-linecap:round;stroke-miterlimit:10"/><line x1="420.22" y1="731.16" x2="452.15" y2="806.16" style="fill:none;stroke:#3a1e85;stroke-linecap:round;stroke-miterlimit:10"/><ellipse cx="420.15" cy="807.45" rx="32.3" ry="10.05" style="fill:none;stroke:#3a1e85;stroke-miterlimit:10"/></g><g id="b772d3b5-5832-42e3-860d-60888089e0c9" data-name="&lt;Grid Repeat&gt;"><line x1="463.8" y1="652.92" x2="495.74" y2="727.92" style="fill:none;stroke:#3a1e85;stroke-linecap:round;stroke-miterlimit:10"/><line x1="527.74" y1="652.92" x2="495.8" y2="727.92" style="fill:none;stroke:#3a1e85;stroke-linecap:round;stroke-miterlimit:10"/><ellipse cx="495.76" cy="651.63" rx="32.32" ry="10.05" style="fill:none;stroke:#3a1e85;stroke-miterlimit:10"/><line x1="568.46" y1="731.16" x2="536.52" y2="806.16" style="fill:none;stroke:#3a1e85;stroke-linecap:round;stroke-miterlimit:10"/><line x1="568.52" y1="731.16" x2="600.46" y2="806.16" style="fill:none;stroke:#3a1e85;stroke-linecap:round;stroke-miterlimit:10"/><ellipse cx="568.45" cy="807.45" rx="32.3" ry="10.05" style="fill:none;stroke:#3a1e85;stroke-miterlimit:10"/></g><g id="a2000cf1-f0c7-4909-a0ee-9c7bf8d5038b" data-name="&lt;Grid Repeat&gt;"><line x1="612.1" y1="652.92" x2="644.04" y2="727.92" style="fill:none;stroke:#3a1e85;stroke-linecap:round;stroke-miterlimit:10"/><line x1="676.04" y1="652.92" x2="644.1" y2="727.92" style="fill:none;stroke:#3a1e85;stroke-linecap:round;stroke-miterlimit:10"/><ellipse cx="644.07" cy="651.63" rx="32.32" ry="10.05" style="fill:none;stroke:#3a1e85;stroke-miterlimit:10"/><line x1="716.76" y1="731.16" x2="684.82" y2="806.16" style="fill:none;stroke:#3a1e85;stroke-linecap:round;stroke-miterlimit:10"/><line x1="716.82" y1="731.16" x2="748.76" y2="806.16" style="fill:none;stroke:#3a1e85;stroke-linecap:round;stroke-miterlimit:10"/><ellipse cx="716.76" cy="807.45" rx="32.3" ry="10.05" style="fill:none;stroke:#3a1e85;stroke-miterlimit:10"/></g><g id="fdd21673-2343-4a4b-9e7e-fe9136ae68a9" data-name="&lt;Grid Repeat&gt;"><line x1="760.41" y1="652.92" x2="792.34" y2="727.92" style="fill:none;stroke:#3a1e85;stroke-linecap:round;stroke-miterlimit:10"/><line x1="824.34" y1="652.92" x2="792.41" y2="727.92" style="fill:none;stroke:#3a1e85;stroke-linecap:round;stroke-miterlimit:10"/><ellipse cx="792.37" cy="651.63" rx="32.32" ry="10.05" style="fill:none;stroke:#3a1e85;stroke-miterlimit:10"/><line x1="865.06" y1="731.16" x2="833.13" y2="806.16" style="fill:none;stroke:#3a1e85;stroke-linecap:round;stroke-miterlimit:10"/><line x1="865.13" y1="731.16" x2="897.06" y2="806.16" style="fill:none;stroke:#3a1e85;stroke-linecap:round;stroke-miterlimit:10"/><ellipse cx="865.06" cy="807.45" rx="32.3" ry="10.05" style="fill:none;stroke:#3a1e85;stroke-miterlimit:10"/></g><g id="e92c705e-c15e-42c5-9321-fa977cbdafc1" data-name="&lt;Grid Repeat&gt;"><line x1="908.71" y1="652.92" x2="940.65" y2="727.92" style="fill:none;stroke:#3a1e85;stroke-linecap:round;stroke-miterlimit:10"/><line x1="972.65" y1="652.92" x2="940.71" y2="727.92" style="fill:none;stroke:#3a1e85;stroke-linecap:round;stroke-miterlimit:10"/><ellipse cx="940.68" cy="651.63" rx="32.32" ry="10.05" style="fill:none;stroke:#3a1e85;stroke-miterlimit:10"/><line x1="1013.37" y1="731.16" x2="981.43" y2="806.16" style="fill:none;stroke:#3a1e85;stroke-linecap:round;stroke-miterlimit:10"/><line x1="1013.43" y1="731.16" x2="1045.37" y2="806.16" style="fill:none;stroke:#3a1e85;stroke-linecap:round;stroke-miterlimit:10"/><ellipse cx="1013.36" cy="807.45" rx="32.3" ry="10.05" style="fill:none;stroke:#3a1e85;stroke-miterlimit:10"/></g><g id="b3eea880-5986-45b7-afa4-1d5119a3d408" data-name="&lt;Grid Repeat&gt;"><line x1="1057.01" y1="652.92" x2="1088.95" y2="727.92" style="fill:none;stroke:#3a1e85;stroke-linecap:round;stroke-miterlimit:10"/><line x1="1120.95" y1="652.92" x2="1089.01" y2="727.92" style="fill:none;stroke:#3a1e85;stroke-linecap:round;stroke-miterlimit:10"/><ellipse cx="1088.98" cy="651.63" rx="32.32" ry="10.05" style="fill:none;stroke:#3a1e85;stroke-miterlimit:10"/><line x1="1161.67" y1="731.16" x2="1129.73" y2="806.16" style="fill:none;stroke:#3a1e85;stroke-linecap:round;stroke-miterlimit:10"/><line x1="1161.73" y1="731.16" x2="1193.67" y2="806.16" style="fill:none;stroke:#3a1e85;stroke-linecap:round;stroke-miterlimit:10"/><ellipse cx="1161.67" cy="807.45" rx="32.3" ry="10.05" style="fill:none;stroke:#3a1e85;stroke-miterlimit:10"/></g><g id="a1c4a2a9-6c1f-48ff-a3c8-279fcb54f1f5" data-name="&lt;Grid Repeat&gt;"><line x1="1205.32" y1="652.92" x2="1237.25" y2="727.92" style="fill:none;stroke:#3a1e85;stroke-linecap:round;stroke-miterlimit:10"/><line x1="1269.25" y1="652.92" x2="1237.32" y2="727.92" style="fill:none;stroke:#3a1e85;stroke-linecap:round;stroke-miterlimit:10"/><ellipse cx="1237.28" cy="651.63" rx="32.32" ry="10.05" style="fill:none;stroke:#3a1e85;stroke-miterlimit:10"/><line x1="1309.98" y1="731.16" x2="1278.04" y2="806.16" style="fill:none;stroke:#3a1e85;stroke-linecap:round;stroke-miterlimit:10"/><line x1="1310.04" y1="731.16" x2="1341.98" y2="806.16" style="fill:none;stroke:#3a1e85;stroke-linecap:round;stroke-miterlimit:10"/><ellipse cx="1309.97" cy="807.45" rx="32.3" ry="10.05" style="fill:none;stroke:#3a1e85;stroke-miterlimit:10"/></g><g id="ac9c08e4-5aee-4621-ba04-fa5d03c51726" data-name="&lt;Grid Repeat&gt;"><line x1="1353.62" y1="652.92" x2="1385.56" y2="727.92" style="fill:none;stroke:#3a1e85;stroke-linecap:round;stroke-miterlimit:10"/><line x1="1417.56" y1="652.92" x2="1385.62" y2="727.92" style="fill:none;stroke:#3a1e85;stroke-linecap:round;stroke-miterlimit:10"/><ellipse cx="1385.59" cy="651.63" rx="32.32" ry="10.05" style="fill:none;stroke:#3a1e85;stroke-miterlimit:10"/><line x1="1458.28" y1="731.16" x2="1426.34" y2="806.16" style="fill:none;stroke:#3a1e85;stroke-linecap:round;stroke-miterlimit:10"/><line x1="1458.34" y1="731.16" x2="1490.28" y2="806.16" style="fill:none;stroke:#3a1e85;stroke-linecap:round;stroke-miterlimit:10"/><ellipse cx="1458.27" cy="807.45" rx="32.3" ry="10.05" style="fill:none;stroke:#3a1e85;stroke-miterlimit:10"/></g><g id="faf160b3-eb54-4cf3-9915-1864cd051716" data-name="&lt;Grid Repeat&gt;"><line x1="1501.92" y1="652.92" x2="1533.86" y2="727.92" style="fill:none;stroke:#3a1e85;stroke-linecap:round;stroke-miterlimit:10"/><line x1="1565.86" y1="652.92" x2="1533.92" y2="727.92" style="fill:none;stroke:#3a1e85;stroke-linecap:round;stroke-miterlimit:10"/><ellipse cx="1533.89" cy="651.63" rx="32.32" ry="10.05" style="fill:none;stroke:#3a1e85;stroke-miterlimit:10"/><line x1="1606.58" y1="731.16" x2="1574.65" y2="806.16" style="fill:none;stroke:#3a1e85;stroke-linecap:round;stroke-miterlimit:10"/><line x1="1606.65" y1="731.16" x2="1638.58" y2="806.16" style="fill:none;stroke:#3a1e85;stroke-linecap:round;stroke-miterlimit:10"/><ellipse cx="1606.58" cy="807.45" rx="32.3" ry="10.05" style="fill:none;stroke:#3a1e85;stroke-miterlimit:10"/></g><g id="f1ab143b-6d3a-489a-bb2f-f15f6998185d" data-name="&lt;Grid Repeat&gt;"><line x1="1650.23" y1="652.92" x2="1682.17" y2="727.92" style="fill:none;stroke:#3a1e85;stroke-linecap:round;stroke-miterlimit:10"/><line x1="1714.17" y1="652.92" x2="1682.23" y2="727.92" style="fill:none;stroke:#3a1e85;stroke-linecap:round;stroke-miterlimit:10"/><ellipse cx="1682.2" cy="651.63" rx="32.32" ry="10.05" style="fill:none;stroke:#3a1e85;stroke-miterlimit:10"/><line x1="1754.89" y1="731.16" x2="1722.95" y2="806.16" style="fill:none;stroke:#3a1e85;stroke-linecap:round;stroke-miterlimit:10"/><line x1="1754.95" y1="731.16" x2="1786.89" y2="806.16" style="fill:none;stroke:#3a1e85;stroke-linecap:round;stroke-miterlimit:10"/><ellipse cx="1754.88" cy="807.45" rx="32.3" ry="10.05" style="fill:none;stroke:#3a1e85;stroke-miterlimit:10"/></g><g id="b6b7b836-2511-4293-a6b4-c97bfaba2f5f" data-name="&lt;Grid Repeat&gt;"><line x1="1798.53" y1="652.92" x2="1830.47" y2="727.92" style="fill:none;stroke:#3a1e85;stroke-linecap:round;stroke-miterlimit:10"/><line x1="1862.47" y1="652.92" x2="1830.53" y2="727.92" style="fill:none;stroke:#3a1e85;stroke-linecap:round;stroke-miterlimit:10"/><ellipse cx="1830.5" cy="651.63" rx="32.32" ry="10.05" style="fill:none;stroke:#3a1e85;stroke-miterlimit:10"/><line x1="1903.19" y1="731.16" x2="1871.25" y2="806.16" style="fill:none;stroke:#3a1e85;stroke-linecap:round;stroke-miterlimit:10"/><line x1="1903.25" y1="731.16" x2="1935.19" y2="806.16" style="fill:none;stroke:#3a1e85;stroke-linecap:round;stroke-miterlimit:10"/><ellipse cx="1903.19" cy="807.45" rx="32.3" ry="10.05" style="fill:none;stroke:#3a1e85;stroke-miterlimit:10"/></g></g><rect x="19.89" y="-39.4" width="1926.47" height="683.98" style="fill:none"/></g></g></svg>