<svg id="Layer_10" data-name="Layer 10" xmlns="http://www.w3.org/2000/svg" xmlns:xlink="http://www.w3.org/1999/xlink" viewBox="0 0 204.9 219"><defs><style>.cls-1{fill:#3b3a3a;}.cls-2{fill:#4a4a4a;}.cls-3{fill:url(#linear-gradient);}.cls-4{fill:url(#linear-gradient-2);}.cls-5{fill:url(#linear-gradient-3);}.cls-6{fill:url(#linear-gradient-4);}.cls-7{fill:url(#linear-gradient-5);}.cls-8{fill:url(#linear-gradient-6);}.cls-9{fill:url(#linear-gradient-7);}.cls-10{fill:url(#linear-gradient-8);}.cls-11{fill:url(#linear-gradient-9);}.cls-12{fill:url(#linear-gradient-10);}.cls-13{fill:url(#linear-gradient-11);}.cls-14{fill:url(#linear-gradient-12);}.cls-15{fill:url(#linear-gradient-13);}.cls-16{fill:url(#linear-gradient-14);}.cls-17{fill:url(#linear-gradient-15);}.cls-18{fill:url(#linear-gradient-16);}.cls-19{fill:url(#linear-gradient-17);}.cls-20{fill:url(#linear-gradient-18);}.cls-21{fill:#626161;}.cls-22{fill:url(#linear-gradient-19);}.cls-23{fill:url(#linear-gradient-20);}.cls-24{fill:url(#linear-gradient-21);}.cls-25{fill:url(#linear-gradient-22);}.cls-26{fill:url(#linear-gradient-23);}.cls-27{fill:url(#linear-gradient-24);}.cls-28{fill:url(#linear-gradient-25);}.cls-29{fill:url(#linear-gradient-26);}.cls-30{fill:url(#linear-gradient-27);}</style><linearGradient id="linear-gradient" x1="25.22" y1="92.17" x2="80.7" y2="183.63" gradientUnits="userSpaceOnUse"><stop offset="0" stop-color="#f5f6e9"/><stop offset="1" stop-color="#e1e0d8"/></linearGradient><linearGradient id="linear-gradient-2" x1="34.58" y1="86.49" x2="90.06" y2="177.95" xlink:href="#linear-gradient"/><linearGradient id="linear-gradient-3" x1="35.31" y1="86.04" x2="90.79" y2="177.51" xlink:href="#linear-gradient"/><linearGradient id="linear-gradient-4" x1="44.68" y1="80.36" x2="100.16" y2="171.83" xlink:href="#linear-gradient"/><linearGradient id="linear-gradient-5" x1="45.41" y1="79.92" x2="100.88" y2="171.39" xlink:href="#linear-gradient"/><linearGradient id="linear-gradient-6" x1="43.95" y1="80.81" x2="99.43" y2="172.27" xlink:href="#linear-gradient"/><linearGradient id="linear-gradient-7" x1="54.04" y1="74.68" x2="109.52" y2="166.15" xlink:href="#linear-gradient"/><linearGradient id="linear-gradient-8" x1="64.14" y1="68.56" x2="119.62" y2="160.03" xlink:href="#linear-gradient"/><linearGradient id="linear-gradient-9" x1="54.77" y1="74.24" x2="110.25" y2="165.71" xlink:href="#linear-gradient"/><linearGradient id="linear-gradient-10" x1="84.36" y1="146.23" x2="142.73" y2="176.89" gradientUnits="userSpaceOnUse"><stop offset="0" stop-color="#74bbd1"/><stop offset="1" stop-color="#53a5b7"/></linearGradient><linearGradient id="linear-gradient-11" x1="93.3" y1="129.2" x2="151.68" y2="159.85" xlink:href="#linear-gradient-10"/><linearGradient id="linear-gradient-12" x1="93.73" y1="128.39" x2="152.1" y2="159.05" xlink:href="#linear-gradient-10"/><linearGradient id="linear-gradient-13" x1="102.67" y1="111.35" x2="161.05" y2="142.01" xlink:href="#linear-gradient-10"/><linearGradient id="linear-gradient-14" x1="103.1" y1="110.55" x2="161.47" y2="141.2" xlink:href="#linear-gradient-10"/><linearGradient id="linear-gradient-15" x1="102.25" y1="112.16" x2="160.62" y2="142.81" xlink:href="#linear-gradient-10"/><linearGradient id="linear-gradient-16" x1="111.62" y1="94.32" x2="169.99" y2="124.97" xlink:href="#linear-gradient-10"/><linearGradient id="linear-gradient-17" x1="120.99" y1="76.47" x2="179.36" y2="107.13" xlink:href="#linear-gradient-10"/><linearGradient id="linear-gradient-18" x1="112.04" y1="93.51" x2="170.42" y2="124.16" xlink:href="#linear-gradient-10"/><linearGradient id="linear-gradient-19" x1="48.2" y1="75.07" x2="156.54" y2="75.07" gradientUnits="userSpaceOnUse"><stop offset="0" stop-color="#ed927e"/><stop offset="1" stop-color="#dc6f5e"/></linearGradient><linearGradient id="linear-gradient-20" x1="48.2" y1="86.45" x2="156.54" y2="86.45" xlink:href="#linear-gradient-19"/><linearGradient id="linear-gradient-21" x1="48.2" y1="63.69" x2="156.54" y2="63.69" xlink:href="#linear-gradient-19"/><linearGradient id="linear-gradient-22" x1="48.2" y1="75.07" x2="156.54" y2="75.07" xlink:href="#linear-gradient-19"/><linearGradient id="linear-gradient-23" x1="48.2" y1="52.3" x2="156.54" y2="52.3" xlink:href="#linear-gradient-19"/><linearGradient id="linear-gradient-24" x1="48.2" y1="97.83" x2="156.54" y2="97.83" xlink:href="#linear-gradient-19"/><linearGradient id="linear-gradient-25" x1="48.2" y1="86.45" x2="156.54" y2="86.45" xlink:href="#linear-gradient-19"/><linearGradient id="linear-gradient-26" x1="48.2" y1="75.07" x2="156.54" y2="75.07" xlink:href="#linear-gradient-19"/><linearGradient id="linear-gradient-27" x1="48.2" y1="63.69" x2="156.54" y2="63.69" xlink:href="#linear-gradient-19"/></defs><path class="cls-1" d="M161.94,76.77l-.73-2.12a4.25,4.25,0,0,0-1.2.09c-.07.12-.66,1.26-.37,1.5a6.38,6.38,0,0,1,1,.88c.39.45.68.66.86.54A3.14,3.14,0,0,0,161.94,76.77Z"/><polygon class="cls-2" points="43.17 75.98 44.47 74.5 45.14 75.83 43.75 76.82 43.17 75.98"/><rect class="cls-1" x="100.94" y="107.29" width="3.77" height="4.4"/><path class="cls-2" d="M100.71,177.09,44.57,144.68a4.17,4.17,0,0,1-1.74-3.32V77.15c0-1.28.78-1.87,1.74-1.31l56.14,32.41a4.17,4.17,0,0,1,1.74,3.32v64.21C102.45,177.06,101.67,177.65,100.71,177.09Z"/><path class="cls-3" d="M61.75,136.29V149.6c0,2-1.37,2.75-3.06,1.77l-11.53-6.66a6.76,6.76,0,0,1-3.06-5.3V126.1c0-2,1.37-2.75,3.06-1.77L58.69,131A6.79,6.79,0,0,1,61.75,136.29Z"/><path class="cls-4" d="M81.47,147.67V161c0,2-1.37,2.75-3.06,1.77l-11.53-6.66a6.74,6.74,0,0,1-3.07-5.3V137.48c0-2,1.37-2.75,3.07-1.77l11.53,6.66A6.76,6.76,0,0,1,81.47,147.67Z"/><path class="cls-5" d="M61.75,113.52v13.32c0,1.95-1.37,2.74-3.06,1.77L47.16,122a6.77,6.77,0,0,1-3.06-5.3V103.33c0-2,1.37-2.74,3.06-1.77l11.53,6.66A6.77,6.77,0,0,1,61.75,113.52Z"/><path class="cls-6" d="M81.47,124.91v13.31c0,1.95-1.37,2.74-3.06,1.77l-11.53-6.66a6.76,6.76,0,0,1-3.07-5.3V114.71c0-1.95,1.37-2.74,3.07-1.76l11.53,6.65A6.77,6.77,0,0,1,81.47,124.91Z"/><path class="cls-7" d="M61.75,90.76v13.31c0,2-1.37,2.75-3.06,1.77L47.16,99.18a6.76,6.76,0,0,1-3.06-5.3V80.57c0-2,1.37-2.75,3.06-1.77l11.53,6.65A6.79,6.79,0,0,1,61.75,90.76Z"/><path class="cls-8" d="M101.18,159.05v13.32c0,1.95-1.37,2.74-3.06,1.76l-11.53-6.65a6.77,6.77,0,0,1-3.06-5.31V148.86c0-2,1.37-2.74,3.06-1.77l11.53,6.66A6.77,6.77,0,0,1,101.18,159.05Z"/><path class="cls-9" d="M101.18,136.29V149.6c0,2-1.37,2.75-3.06,1.77l-11.53-6.66a6.76,6.76,0,0,1-3.06-5.3V126.1c0-2,1.37-2.75,3.06-1.77L98.12,131A6.76,6.76,0,0,1,101.18,136.29Z"/><path class="cls-10" d="M101.18,113.52v13.32c0,1.95-1.37,2.74-3.06,1.77L86.59,122a6.77,6.77,0,0,1-3.06-5.3V103.33c0-2,1.37-2.74,3.06-1.77l11.53,6.66A6.77,6.77,0,0,1,101.18,113.52Z"/><path class="cls-11" d="M81.47,102.14v13.32c0,2-1.37,2.74-3.06,1.76l-11.53-6.65a6.76,6.76,0,0,1-3.07-5.31V92c0-2,1.37-2.75,3.07-1.77l11.53,6.66A6.76,6.76,0,0,1,81.47,102.14Z"/><path class="cls-1" d="M160.33,145.1l-56.14,32.41c-1,.56-1.74,0-1.74-1.31V112a4.19,4.19,0,0,1,1.74-3.33l56.14-32.41c1-.55,1.74,0,1.74,1.32v64.2A4.16,4.16,0,0,1,160.33,145.1Z"/><path class="cls-12" d="M121.37,149.28V162.6a6.77,6.77,0,0,1-3.06,5.3l-11.53,6.66c-1.69,1-3.06.18-3.06-1.77V159.48a6.77,6.77,0,0,1,3.06-5.31l11.53-6.65C120,146.54,121.37,147.33,121.37,149.28Z"/><path class="cls-13" d="M141.09,137.9v13.31a6.76,6.76,0,0,1-3.07,5.31l-11.53,6.66c-1.69,1-3.06.18-3.06-1.77V148.09a6.77,6.77,0,0,1,3.06-5.3L138,136.13C139.72,135.16,141.09,136,141.09,137.9Z"/><path class="cls-14" d="M121.37,126.52v13.31a6.77,6.77,0,0,1-3.06,5.31l-11.53,6.65c-1.69,1-3.06.19-3.06-1.76V136.71a6.77,6.77,0,0,1,3.06-5.3l11.53-6.66C120,123.78,121.37,124.57,121.37,126.52Z"/><path class="cls-15" d="M141.09,115.14v13.31a6.74,6.74,0,0,1-3.07,5.3l-11.53,6.66c-1.69,1-3.06.19-3.06-1.77V125.33a6.76,6.76,0,0,1,3.06-5.3L138,113.37C139.72,112.39,141.09,113.18,141.09,115.14Z"/><path class="cls-16" d="M121.37,103.75v13.32a6.76,6.76,0,0,1-3.06,5.3L106.78,129c-1.69,1-3.06.18-3.06-1.77V114a6.77,6.77,0,0,1,3.06-5.31L118.31,102C120,101,121.37,101.8,121.37,103.75Z"/><path class="cls-17" d="M160.8,126.52v13.31a6.77,6.77,0,0,1-3.06,5.31l-11.53,6.65c-1.69,1-3.06.19-3.06-1.77V136.71a6.76,6.76,0,0,1,3.06-5.3l11.53-6.66C159.43,123.78,160.8,124.57,160.8,126.52Z"/><path class="cls-18" d="M160.8,103.76v13.31a6.76,6.76,0,0,1-3.06,5.3L146.21,129c-1.69,1-3.06.18-3.06-1.77V114a6.77,6.77,0,0,1,3.06-5.31L157.74,102C159.43,101,160.8,101.8,160.8,103.76Z"/><path class="cls-19" d="M160.8,81V94.31a6.77,6.77,0,0,1-3.06,5.3l-11.53,6.66c-1.69,1-3.06.18-3.06-1.77V91.18a6.76,6.76,0,0,1,3.06-5.3l11.53-6.66C159.43,78.25,160.8,79,160.8,81Z"/><path class="cls-20" d="M141.09,92.37v13.32A6.76,6.76,0,0,1,138,111l-11.53,6.66c-1.69,1-3.06.18-3.06-1.77V102.56a6.77,6.77,0,0,1,3.06-5.3L138,90.6C139.72,89.63,141.09,90.42,141.09,92.37Z"/><path class="cls-21" d="M101,108.48,44.89,76.07c-1-.55-.84-1.52.26-2.16l55.6-32.1a4.19,4.19,0,0,1,3.75-.16l56.14,32.41c1,.56.84,1.53-.27,2.17l-55.6,32.1A4.15,4.15,0,0,1,101,108.48Z"/><path class="cls-22" d="M77.92,76.84,66.39,83.49a6.74,6.74,0,0,1-6.12,0L48.74,76.84c-1.69-1-1.69-2.56,0-3.54l11.53-6.66a6.8,6.8,0,0,1,6.12,0L77.92,73.3C79.62,74.28,79.62,75.86,77.92,76.84Z"/><path class="cls-23" d="M97.64,88.22,86.11,94.88a6.8,6.8,0,0,1-6.12,0L68.45,88.22c-1.69-1-1.69-2.56,0-3.54L80,78a6.76,6.76,0,0,1,6.13,0l11.53,6.65C99.33,85.66,99.33,87.24,97.64,88.22Z"/><path class="cls-24" d="M97.64,65.45,86.11,72.11a6.74,6.74,0,0,1-6.12,0L68.46,65.45c-1.7-1-1.7-2.56,0-3.53L80,55.26a6.8,6.8,0,0,1,6.12,0l11.53,6.66C99.33,62.89,99.33,64.48,97.64,65.45Z"/><path class="cls-25" d="M117.35,76.84l-11.53,6.65a6.74,6.74,0,0,1-6.12,0L88.17,76.84c-1.69-1-1.69-2.56,0-3.54L99.7,66.64a6.8,6.8,0,0,1,6.12,0l11.53,6.66C119.05,74.28,119.05,75.86,117.35,76.84Z"/><path class="cls-26" d="M117.35,54.07l-11.53,6.66a6.8,6.8,0,0,1-6.12,0L88.17,54.07c-1.69-1-1.69-2.56,0-3.53L99.7,43.88a6.76,6.76,0,0,1,6.13,0l11.52,6.66C119.05,51.51,119.05,53.09,117.35,54.07Z"/><path class="cls-27" d="M117.35,99.6l-11.53,6.66a6.8,6.8,0,0,1-6.12,0L88.17,99.6c-1.69-1-1.69-2.56,0-3.54L99.7,89.41a6.74,6.74,0,0,1,6.12,0l11.53,6.65C119,97,119,98.62,117.35,99.6Z"/><path class="cls-28" d="M137.07,88.22l-11.53,6.66a6.82,6.82,0,0,1-6.13,0l-11.53-6.66c-1.69-1-1.69-2.56,0-3.54L119.41,78a6.76,6.76,0,0,1,6.13,0l11.53,6.65C138.76,85.66,138.76,87.24,137.07,88.22Z"/><path class="cls-29" d="M156.78,76.84l-11.53,6.65a6.74,6.74,0,0,1-6.12,0L127.6,76.84c-1.69-1-1.69-2.56,0-3.54l11.53-6.66a6.8,6.8,0,0,1,6.12,0l11.53,6.66C158.47,74.28,158.47,75.86,156.78,76.84Z"/><path class="cls-30" d="M137.07,65.45l-11.53,6.66a6.74,6.74,0,0,1-6.12,0l-11.54-6.66c-1.69-1-1.69-2.56,0-3.53l11.54-6.66a6.74,6.74,0,0,1,6.12,0l11.53,6.66C138.76,62.89,138.76,64.48,137.07,65.45Z"/></svg>