<svg id="Layer_13" data-name="Layer 13" xmlns="http://www.w3.org/2000/svg" viewBox="0 0 204.9 219"><defs><style>.cls-1{fill:#06ba27;}.cls-2{fill:#febe00;}.cls-3{fill:#fff;opacity:0.34;}.cls-3,.cls-4{isolation:isolate;}.cls-4{fill:#1a1a1a;opacity:0.23;}</style></defs><path class="cls-1" d="M102.45,33.29,45.74,169A53.78,53.78,0,0,0,70,182.43c12.22,3.12,32.45,3.28,32.45,3.28s20.23-.16,32.45-3.28c.59-.15,1.17-.3,1.74-.47a55.73,55.73,0,0,0,19.84-10.51,34.59,34.59,0,0,0,2.68-2.45l-.83-2Z"/><polygon class="cls-2" points="105.02 167.68 98.41 160.87 88.99 162.06 93.49 154.12 89.11 145.84 98.51 147.74 105.22 141.42 106.52 150.55 115.05 154.93 106.46 158.66 105.02 167.68"/><path class="cls-2" d="M97.26,140.24c-.23-2.67-.46-5.33-.67-8a.43.43,0,0,0-.42-.41.41.41,0,0,0-.41.41h0c.23,2.67.45,5.33.67,8a.44.44,0,0,0,.42.42A.42.42,0,0,0,97.26,140.24Z"/><path class="cls-2" d="M99.1,139.21a38.47,38.47,0,0,1,1.14-9,.41.41,0,0,0-.29-.5.41.41,0,0,0-.5.27h0a38.62,38.62,0,0,0-1.17,9.21.41.41,0,0,0,.82,0Z"/><path class="cls-2" d="M109.1,147.51a12.88,12.88,0,0,1,4.17-4.63c.44-.3,0-1-.42-.72a13.72,13.72,0,0,0-4.46,4.93c-.25.47.46.89.71.42Z"/><path class="cls-2" d="M110.81,148.62a28.14,28.14,0,0,1,4.83-3.1.43.43,0,0,0,.08-.59.42.42,0,0,0-.5-.13,30.32,30.32,0,0,0-5,3.24.41.41,0,0,0,.58.58Z"/><path class="cls-2" d="M110.25,164.58a.42.42,0,0,0,.35-.48h0a.42.42,0,0,0-.35-.35.42.42,0,0,0-.35.48h0A.42.42,0,0,0,110.25,164.58Z"/><path class="cls-2" d="M110,164.43l4.07,3.48a.44.44,0,0,0,.59,0,.43.43,0,0,0,0-.58l-4.08-3.48a.43.43,0,0,0-.58,0,.41.41,0,0,0,0,.58Z"/><path class="cls-2" d="M110.73,162.64a12.64,12.64,0,0,0,5.66,3.19.41.41,0,0,0,.21-.79,11.93,11.93,0,0,1-5.28-3c-.38-.37-1,.21-.59.58Z"/><path class="cls-2" d="M97.16,165a19.8,19.8,0,0,0-2.8,6.36c-.12.51.67.73.8.22a19.14,19.14,0,0,1,2.71-6.17C98.17,165,97.45,164.56,97.16,165Z"/><path class="cls-2" d="M98.82,167.65a20.41,20.41,0,0,1-3.33,5.91.43.43,0,0,0,0,.58.41.41,0,0,0,.58,0h0a21,21,0,0,0,3.54-6.27.41.41,0,0,0-.28-.51h0A.42.42,0,0,0,98.82,167.65Z"/><path class="cls-2" d="M87.9,157H80.36a.42.42,0,0,0-.35.48h0a.42.42,0,0,0,.35.35H87.9a.42.42,0,0,0,.35-.48h0A.42.42,0,0,0,87.9,157Z"/><path class="cls-2" d="M87.12,155.22a.41.41,0,0,0,0-.82h0a.41.41,0,0,0,0,.82Z"/><path class="cls-2" d="M87.23,154.41a34.58,34.58,0,0,1-6.9-2.6c-.47-.24-.89.48-.42.71A34.7,34.7,0,0,0,87,155.2a.41.41,0,0,0,.5-.29.41.41,0,0,0-.27-.5h0Z"/><polygon class="cls-2" points="136.13 131.11 128.28 127.95 121.04 132.34 121.83 124.24 115.26 119.08 123.6 117.23 126.78 109.65 131.15 116.61 137.29 116.95 138.08 118.83 134.03 123.24 136.13 131.11"/><path class="cls-2" d="M119.87,111.58l-3.46-6.31a.39.39,0,0,0-.49-.19.38.38,0,0,0-.19.49l3.47,6.31a.37.37,0,0,0,.51.12A.37.37,0,0,0,119.87,111.58Z"/><path class="cls-2" d="M121,110.07a33.63,33.63,0,0,1-2.33-7.73.35.35,0,0,0-.42-.28h0a.38.38,0,0,0-.29.39,34.79,34.79,0,0,0,2.39,7.92.37.37,0,0,0,.51.12h0A.37.37,0,0,0,121,110.07Z"/><path class="cls-2" d="M132.14,113.2a11.61,11.61,0,0,1,1.52-5c.06-.11-.38-.78-.4-.76a12.28,12.28,0,0,0-1.85,5.63c0,.47.7.55.73.08Z"/><path class="cls-2" d="M133.94,113.48c.34-.64.7-1.27,1.09-1.88l-.33-.84c-.52.79-1,1.62-1.44,2.46a.34.34,0,0,0,.18.46h0a.35.35,0,0,0,.48-.16A.08.08,0,0,0,133.94,113.48Z"/><path class="cls-2" d="M139.26,126.68a.37.37,0,0,0,.12-.51h0A.36.36,0,0,0,139,126a.37.37,0,0,0-.11.51.39.39,0,0,0,.4.16Z"/><path class="cls-2" d="M139,126.67l2.69.79-.36-.87-2.07-.61a.37.37,0,0,0-.26.69Z"/><path class="cls-2" d="M139,124.93a11.14,11.14,0,0,0,1.88.52l-.34-.82a11.71,11.71,0,0,1-1.28-.38.36.36,0,1,0-.26.68Z"/><path class="cls-2" d="M128.76,131.77a17.4,17.4,0,0,0,0,6.19.37.37,0,0,0,.42.31.39.39,0,0,0,.3-.42,16.8,16.8,0,0,1,0-6c.08-.47-.65-.55-.73-.08Z"/><path class="cls-2" d="M131.07,133.33a17.84,17.84,0,0,1-.57,6,.38.38,0,0,0,.21.48.4.4,0,0,0,.48-.21,19.39,19.39,0,0,0,.61-6.39.35.35,0,0,0-.42-.28h0a.38.38,0,0,0-.29.39Z"/><path class="cls-2" d="M118.32,128.61l-6.14,2.73a.37.37,0,0,0-.12.51h0a.37.37,0,0,0,.42.16l6.14-2.73a.37.37,0,0,0,.12-.51h0A.37.37,0,0,0,118.32,128.61Z"/><path class="cls-2" d="M117,127.45a.37.37,0,1,0-.3-.68h0a.37.37,0,0,0,.3.68Z"/><path class="cls-2" d="M116.83,126.75a30.56,30.56,0,0,1-6.55.38c-.47,0-.56.71-.08.73a31.72,31.72,0,0,0,6.74-.39.34.34,0,0,0,.3-.39v0a.36.36,0,0,0-.4-.31Z"/><path class="cls-2" d="M136.64,181.94h-.17l4-8-4.67-7.86,9.26,1.4L151.3,161l1.71,8.84,3.46,1.56a57.13,57.13,0,0,1-7.17,5C141.5,181.12,136.64,181.94,136.64,181.94Z"/><path class="cls-2" d="M143.48,160.28c-.35-2.61-.69-5.22-1-7.81a.43.43,0,0,0-.43-.39.42.42,0,0,0-.38.43l1.05,7.81a.41.41,0,0,0,.42.38.4.4,0,0,0,.38-.42h0Z"/><path class="cls-2" d="M145.23,159.19a37.39,37.39,0,0,1,.68-8.83.4.4,0,1,0-.79-.17,37.73,37.73,0,0,0-.69,9,.4.4,0,0,0,.8,0Z"/><path class="cls-2" d="M155.39,166.79a12.34,12.34,0,0,1,1.63-2.6l-.34-.84a13.51,13.51,0,0,0-2,3.07c-.22.47.5.84.72.37Z"/><path class="cls-2" d="M157.11,167.79c.35-.3.7-.6,1.06-.88l-.32-.77c-.46.36-.9.73-1.33,1.11a.4.4,0,1,0,.56.57l0,0Z"/><path class="cls-2" d="M135.16,177.07l-7.35.37a.4.4,0,0,0,0,.8h0l7.35-.36a.41.41,0,0,0,0-.81Z"/><path class="cls-2" d="M134.32,175.38a.4.4,0,1,0-.4-.4h0A.4.4,0,0,0,134.32,175.38Z"/><path class="cls-2" d="M134.39,174.58a33.63,33.63,0,0,1-6.86-2.19c-.47-.21-.85.5-.37.71a34.12,34.12,0,0,0,7.05,2.27.41.41,0,0,0,.44-.38h0A.41.41,0,0,0,134.39,174.58Z"/><polygon class="cls-2" points="95.67 110.03 87.82 106.88 80.58 111.26 81.37 103.16 75.33 98.08 83.15 96.15 86.32 88.58 90.69 95.53 99.22 96.01 93.58 102.16 95.67 110.03"/><path class="cls-2" d="M79.41,90.5l-.56-1-.36.86.25.46a.38.38,0,0,0,.49.18.36.36,0,0,0,.18-.48h0Z"/><path class="cls-2" d="M80.54,89c-.26-.6-.5-1.2-.73-1.81l-.41,1c.15.38.31.76.47,1.13a.37.37,0,0,0,.51.12h0a.37.37,0,0,0,.16-.42Z"/><path class="cls-2" d="M91.69,92.12a11.41,11.41,0,0,1,1.71-5.28c.25-.4-.34-.83-.59-.43A12.23,12.23,0,0,0,91,92a.36.36,0,0,0,.36.36h0a.36.36,0,0,0,.35-.28Z"/><path class="cls-2" d="M93.49,92.41a25.21,25.21,0,0,1,2.8-4.28c.3-.37-.3-.79-.6-.43a27,27,0,0,0-2.89,4.44.38.38,0,0,0,.21.48A.4.4,0,0,0,93.49,92.41Z"/><path class="cls-2" d="M98.81,105.6a.37.37,0,0,0,.12-.51h0a.32.32,0,1,0-.54.35h0A.37.37,0,0,0,98.81,105.6Z"/><path class="cls-2" d="M98.53,105.59l4.58,1.35a.4.4,0,0,0,.48-.21.38.38,0,0,0-.21-.48L98.8,104.9a.4.4,0,0,0-.48.21A.38.38,0,0,0,98.53,105.59Z"/><path class="cls-2" d="M98.5,103.85a11.29,11.29,0,0,0,5.76.55.35.35,0,0,0,.28-.42v0a.38.38,0,0,0-.39-.29,10.52,10.52,0,0,1-5.39-.5.36.36,0,0,0-.26.68Z"/><path class="cls-2" d="M88.3,110.69a17.87,17.87,0,0,0,0,6.19.35.35,0,0,0,.42.28h0a.38.38,0,0,0,.29-.39,17.27,17.27,0,0,1,0-6C89.11,110.3,88.38,110.23,88.3,110.69Z"/><path class="cls-2" d="M90.61,112.25a17.84,17.84,0,0,1-.57,6,.37.37,0,1,0,.69.27h0a19.12,19.12,0,0,0,.61-6.39.37.37,0,0,0-.42-.31.38.38,0,0,0-.31.42Z"/><path class="cls-2" d="M77.86,107.53l-6.14,2.73a.37.37,0,0,0-.12.51h0a.37.37,0,0,0,.42.16l6.14-2.73a.37.37,0,0,0,.12-.51h0A.37.37,0,0,0,77.86,107.53Z"/><path class="cls-2" d="M76.58,106.37a.37.37,0,0,0,.12-.51h0a.32.32,0,1,0-.54.35h0A.37.37,0,0,0,76.58,106.37Z"/><path class="cls-2" d="M76.38,105.67a31.88,31.88,0,0,1-4.47.41l-.31.74a30.85,30.85,0,0,0,4.89-.43.35.35,0,0,0,.3-.41h0A.35.35,0,0,0,76.38,105.67Z"/><polygon class="cls-2" points="115.81 69.7 108.66 66.83 102.08 70.82 102.79 63.44 96.81 58.75 104.41 57.06 107.3 50.16 111.28 56.49 112.05 56.54 114.35 62.05 113.91 62.53 115.81 69.7"/><path class="cls-2" d="M101,51.91l-3.15-5.74a.34.34,0,0,0-.62.27l3.16,5.74a.33.33,0,0,0,.61-.27Z"/><path class="cls-2" d="M102,50.54a30.09,30.09,0,0,1-2.12-7c-.08-.42-.74-.32-.67.1a31.91,31.91,0,0,0,2.18,7.21.33.33,0,0,0,.61-.27h0Z"/><path class="cls-2" d="M109.1,70.3a16.19,16.19,0,0,0,0,5.64c.07.42.74.32.66-.1a15.7,15.7,0,0,1,0-5.47c.07-.43-.6-.5-.67-.07Z"/><path class="cls-2" d="M111.21,71.72a16.62,16.62,0,0,1-.52,5.48.34.34,0,0,0,.19.43.33.33,0,0,0,.43-.19h0a17.58,17.58,0,0,0,.56-5.82.33.33,0,0,0-.37-.28h0A.35.35,0,0,0,111.21,71.72Z"/><path class="cls-2" d="M99.6,67.42,94,69.91a.33.33,0,1,0,.27.61L99.87,68a.33.33,0,1,0-.27-.61Z"/><path class="cls-2" d="M98.43,66.36a.33.33,0,1,0-.44-.17.32.32,0,0,0,.44.17Z"/><path class="cls-2" d="M98.25,65.72a28.68,28.68,0,0,1-6,.36c-.43,0-.51.64-.08.66a29.43,29.43,0,0,0,6.15-.35c.42-.08.32-.74-.1-.67Z"/><polygon class="cls-2" points="62.07 167.41 57.87 160.96 50.18 160.43 55.01 154.81 53.56 150 54.33 148.16 60 150.52 66.33 146.54 65.94 154.01 72.05 158.83 64.63 160.46 62.07 167.41"/><path class="cls-2" d="M60.18,144.35l.72-6.51a.34.34,0,0,0-.32-.36.36.36,0,0,0-.34.23l-.72,6.51a.35.35,0,0,0,.27.4.34.34,0,0,0,.39-.27Z"/><path class="cls-2" d="M61.81,143.82a31.24,31.24,0,0,1,2.31-7,.35.35,0,0,0-.22-.43.35.35,0,0,0-.38.13,31.59,31.59,0,0,0-2.37,7.15.34.34,0,0,0,.32.36h0a.36.36,0,0,0,.34-.23Z"/><path class="cls-2" d="M68.47,152a10.39,10.39,0,0,1,4-3c.39-.16.17-.8-.22-.63A11,11,0,0,0,68,151.55c-.27.33.23.77.5.44Z"/><path class="cls-2" d="M69.66,153.14A22.51,22.51,0,0,1,74,151.43c.42-.12.2-.75-.22-.64a24.11,24.11,0,0,0-4.48,1.8.34.34,0,0,0-.09.46h0a.34.34,0,0,0,.46.09Z"/><path class="cls-2" d="M66.72,165.76a.34.34,0,0,0,.36-.32h0a.36.36,0,0,0-.23-.34.34.34,0,0,0-.36.32h0A.36.36,0,0,0,66.72,165.76Z"/><path class="cls-2" d="M66.52,165.6l2.71,3.4a.34.34,0,0,0,.46.09.35.35,0,0,0,.09-.47l-2.7-3.4a.35.35,0,0,0-.47-.09.34.34,0,0,0-.09.46Z"/><path class="cls-2" d="M67.41,164.29a10.21,10.21,0,0,0,4,3.43.35.35,0,0,0,.43-.22.35.35,0,0,0-.13-.38,9.6,9.6,0,0,1-3.75-3.2.33.33,0,0,0-.55.37Z"/><path class="cls-2" d="M56.23,164.05A16.17,16.17,0,0,0,53,168.67c-.18.4.42.69.6.3a15.83,15.83,0,0,1,3.12-4.48c.3-.31-.2-.75-.5-.44Z"/><path class="cls-2" d="M57.14,166.42a16.65,16.65,0,0,1-3.58,4.18.35.35,0,0,0-.09.47.34.34,0,0,0,.46.09h0a17.56,17.56,0,0,0,3.8-4.44.34.34,0,0,0-.15-.45.33.33,0,0,0-.44.15Z"/><path class="cls-3" d="M66.91,149.75c-1.23,3.19-2.48,6.55-2,9.94s3.36,6.69,6.77,6.36c2.35-.23,4.28-2.12,5.26-4.27a22.15,22.15,0,0,0,1.45-6.92A177.74,177.74,0,0,1,91.05,105.4c1.13-2.69,3.68-13.25-2.73-9.33-3.72,2.28-5.62,12.61-7.15,16.58Q74,131.19,66.91,149.75Z"/><path class="cls-3" d="M90.43,88.32a2.65,2.65,0,0,0,.26,1.54,2.08,2.08,0,0,0,2.77.33c1.77-1,2.32-3.3,2.71-5.31.53-2.71,4.58-15.62-1.83-10.91C90.54,76.77,90.52,84.17,90.43,88.32Z"/><path class="cls-4" d="M102.45,33.29,159.16,169a41.47,41.47,0,0,1-6.88,5.58C142.26,124.68,112.48,83.19,102.45,33.29Z"/></svg>