<svg id="Layer_7" data-name="Layer 7" xmlns="http://www.w3.org/2000/svg" xmlns:xlink="http://www.w3.org/1999/xlink" viewBox="0 0 204.9 219"><defs><style>.cls-1{fill:url(#linear-gradient);}.cls-2,.cls-5,.cls-6{fill:#643824;}.cls-3{fill:url(#linear-gradient-2);}.cls-4{fill:#cf8c48;}.cls-5{opacity:0.59;}.cls-6{opacity:0.52;}.cls-7{fill:#fff;opacity:0.1;isolation:isolate;}.cls-8{fill:#26130d;opacity:0.19;}</style><linearGradient id="linear-gradient" x1="34.29" y1="114.83" x2="170.55" y2="114.83" gradientUnits="userSpaceOnUse"><stop offset="0" stop-color="#8c5a43"/><stop offset="1" stop-color="#7e462d"/></linearGradient><linearGradient id="linear-gradient-2" x1="37.51" y1="58.89" x2="162.24" y2="58.89" gradientUnits="userSpaceOnUse"><stop offset="0.01" stop-color="#e2a76c"/><stop offset="0.34" stop-color="#dfa265"/><stop offset="0.79" stop-color="#d69553"/><stop offset="0.99" stop-color="#d18e49"/></linearGradient></defs><path class="cls-1" d="M168.21,162.61c-.28,2.74-1.4,4.43-8.66,7.28s-25.43,6.61-33.53,6-14.81-1.14-22.91-1.9S83,173,76.29,172.41s-22.91-5.68-27.94-7.67-9.22-2.31-10.34-4.45-.28-5.61-1.4-12.53-.56-10.85-.84-17.29c-.22-5-.09-17,0-27.94V93.72c0-12.5-1.48-31.13-1.48-31.13h0a2.06,2.06,0,0,0,.92,1.49c1.16.83,7.86,3.49,15.79,6.07,2,.63,4,1.26,6,1.85,6.92,2,14,3.63,18.6,3.72a216,216,0,0,0,34.46-2.5c2.69-.49,8.07-1.46,14.16-2.61l3.82-.72,6.5-1.27,3.21-.65c5.58-1.15,10.57-2.26,13.48-3.12L153,64.3c7.24-2.32,11.13-4.69,11.82-6.31a5,5,0,0,0-.36-4.29c1.72,1.78,1.2,11.53.68,19.52s1.64,12.37,3,17.29.83,15.15,2.1,23.1S168.49,159.88,168.21,162.61Z"/><path class="cls-2" d="M164.85,58c-.74,1.75-5.21,4.37-13.59,6.86s-34.09,7.07-41.17,8.37a216,216,0,0,1-34.46,2.5c-11.54-.22-38-9.92-40.41-11.64s.18-5.54,4.47-8.6c3.87-2.77,20.4-7.57,28.07-9.17l1.12-.22,1-.17c1-.15,2.23-.32,3.69-.5l2-.24c8-1,19.66-2.08,20.25-2.13,5.29-.4,16,1.53,26.26,1.73,8.63.16,17.79.18,27.25,1.9,1.77.32,3.56.7,5.35,1.15C166,50.72,165.6,56.27,164.85,58Z"/><path class="cls-3" d="M162.18,56.22a10.22,10.22,0,0,1-2.85,1.88c-.44.22-.93.46-1.49.71a62.67,62.67,0,0,1-7.4,2.65c-1.58.47-3.8,1-6.42,1.6h0l-1.7.38h0c-9.69,2.11-23.47,4.63-30.37,5.88l-2.37.43c-.45.09-.94.17-1.47.26-3.71.59-9.07,1.18-14.85,1.61-5,.37-10.36.61-15.18.61H75.71A10.77,10.77,0,0,1,74,72.14c-.59-.09-1.33-.14-2-.24a82.38,82.38,0,0,1-8.1-1.64l-1.67-.43c-5.66-1.49-11.63-3.43-16.37-5.12l-2.85-1c-1.78-.66-3.28-1.26-4.36-1.72-.48-.2-.87-.38-1.18-.52h0l.06-.12h0a10.7,10.7,0,0,1,2-2.35,21,21,0,0,1,1.82-1.45c2.61-2,14.14-5.55,22.39-7.7h0c2.63-.67,4.92-1.17,6.49-1.42.7-.11,1.57-.23,2.57-.36h0c2.56-.33,5.93-.71,9.3-1.08h0l8.46-.88h0l5.4-.52c.41,0,.89-.05,1.42-.05.69,0,1.45,0,2.26.07s1.8.12,2.79.2h0l4.73.45c4.55.45,9.71,1,14.79,1.06h2.06a182.63,182.63,0,0,1,19.84,1.08c.85.1,1.71.22,2.57.36h0a73.33,73.33,0,0,1,7.48,1.5c5.22,1.32,7.13,3.1,7.82,4.1.1.16.18.3.24.41a1.88,1.88,0,0,1,.12.3A2,2,0,0,1,162.18,56.22Z"/><path class="cls-4" d="M162.09,55.1l-.19.14c-1.1.79-2.23,1.6-2.49,2.35a2.26,2.26,0,0,0-.08.51c-.44.22-.93.46-1.49.71a2,2,0,0,0,.11-.59,2.62,2.62,0,0,1,.09-.56c.27-.79,1.43-1.63,2.57-2.44.39-.28.77-.55,1.12-.83.1.16.18.3.24.41A1.88,1.88,0,0,1,162.09,55.1Z"/><path class="cls-4" d="M70.3,48.43c.7-.11,1.57-.23,2.57-.36-2.27.38-4.45.82-6.65,1.27l-2.41.51C66.44,49.18,68.73,48.68,70.3,48.43Z"/><path class="cls-4" d="M99.65,45.61c.87,0,1.8.12,2.79.2-5.1.22-10.33.54-15.62.87-1.63.1-3.15.2-4.6.31l8.46-.88h0Q95.18,45.84,99.65,45.61Z"/><path class="cls-4" d="M152.09,56.41a19.3,19.3,0,0,1-3.35,2.4,17.38,17.38,0,0,0-3.44,2.52,7.28,7.28,0,0,0-.62.84,8.19,8.19,0,0,1-.66.89h0l-1.7.38a5.34,5.34,0,0,0,1-1.22,7.59,7.59,0,0,1,.63-.86,18.32,18.32,0,0,1,3.53-2.59,19.86,19.86,0,0,0,3.27-2.34c3-3.06-1.47-5.65-6.89-8,.85.1,1.71.22,2.57.36h0C151.33,51,155,53.5,152.09,56.41Z"/><path class="cls-4" d="M142.45,50.77a5.76,5.76,0,0,0-2.06-.9q-.52-.15-1.17-.3c-.75-.18-1.57-.34-2.44-.49a123.27,123.27,0,0,0-19-1.34c-8.42-.06-17.39.33-25.31.67-4.48.19-9.63.42-14.81.86l-1.31.11c-2.72.25-5.44.57-8,1a125.58,125.58,0,0,0-19.75,5A57.45,57.45,0,0,0,41.17,58a13.12,13.12,0,0,0-1.62.94,10.7,10.7,0,0,0-2,2.35h0v.13c.31.14.7.32,1.18.52.33-1.28,1.17-2.6,3.73-3.86a55.24,55.24,0,0,1,7.17-2.59,122.35,122.35,0,0,1,19.22-4.84c2.65-.42,5.44-.73,8.24-1l1-.09,1-.08c4.67-.36,9.29-.56,13.35-.74,7.85-.34,16.76-.73,25-.66a118.61,118.61,0,0,1,18.16,1.25c1,.15,1.83.33,2.63.51l.87.22a6.36,6.36,0,0,1,2.12.88,1.31,1.31,0,0,1,.44,1.22c-.14,3.06-2.06,5.78-5.89,8.31-4.5,3-11.88,5.68-20.77,7.63l-1.94.41c-1,.2-2,.41-2.9.63l-1.33.31c-1,.24-1.91.46-2.93.65A79.77,79.77,0,0,1,93,71.28c-1.9,0-3.82.07-5.68.08-2.47,0-5,0-7.63.14l-4.14.2L72,71.88c.71.1,1.4.18,2,.24l1.3-.07c1.34-.07,2.72-.14,4-.19,2.52-.1,5-.12,7.48-.14,1.88,0,3.82,0,5.76-.08h.64c5.78-.43,11.14-1,14.85-1.61l1.41-.33,1.3-.31c.92-.21,1.89-.42,2.83-.61l2-.42c9.14-2,16.72-4.79,21.34-7.83,3.89-2.58,5.85-5.33,6-8.44A1.42,1.42,0,0,0,142.45,50.77Z"/><path class="cls-4" d="M129.38,52l-1-.44a14.75,14.75,0,0,0-1.39-.5c-.36-.11-.76-.22-1.19-.32a74.53,74.53,0,0,0-12.32-1.17c-3.39-.16-6.9-.32-10.74-.22-10.64.29-24.25,1-35.23,3.78L56.61,55.9c-4.36,1.11-9.29,2.37-12,3.84C42.41,61,41.87,62.33,43,63.65l2.85,1c-2.72-1.64-2.72-3.36,0-4.86,2.51-1.39,7.31-2.61,11.55-3.69l10.9-2.78a120.1,120.1,0,0,1,19.42-2.91c5.14-.4,10.2-.6,14.71-.72,3.66-.1,7.09.06,10.39.21A76,76,0,0,1,124.67,51c.39.09.75.19,1.08.29s.85.29,1.23.44l1.17.48c2.51,1.07,5.64,2.41,4.76,4a8.48,8.48,0,0,1-2.57,2.12l-1,.65c-.83.58-1.54,1.18-2.24,1.75a23.29,23.29,0,0,1-4.1,2.95c-5.41,2.87-16.71,5.33-28.28,6.24-1.12.09-2.23.16-3.35.22-6.07.32-12,.2-17.12.06-4-.11-8.08-.24-12-.4l1.67.43c3.25.12,6.54.23,9.82.31,5.2.14,11.26.26,17.53-.06,1.17-.06,2.33-.14,3.49-.23,12.07-1,23.85-3.51,29.49-6.51a23.27,23.27,0,0,0,4.22-2.94c.68-.57,1.39-1.15,2.21-1.72.31-.22.64-.43,1-.65a8.44,8.44,0,0,0,2.65-2.21C135.2,54.51,132,53.13,129.38,52Z"/><path class="cls-4" d="M127.64,58a18,18,0,0,0-4.87-3.67,11.37,11.37,0,0,0-4-1.36l-.32,0h-.37c-1.61-.2-3.6-.23-5.37-.26-2.47,0-5-.14-7.73-.23-5.47-.19-11.12-.39-16.51-.21-8.3.27-17.81,2.63-22.92,3.9A66.74,66.74,0,0,0,58,58.24c-3.3,1.27-4.64,2.79-3.76,4.3.77,1.32,3,2.45,5.22,3.54a20,20,0,0,0,8.79,2.26,83.81,83.81,0,0,0,8.68-.15c1.41-.07,2.86-.14,4.23-.18,2.11-.06,4.24,0,6.3,0,3.26,0,6.62.06,10.08-.21a18.19,18.19,0,0,0,2-.19,64.46,64.46,0,0,0,12.79-2.93L124,60.9c1.46-.46,3.29-1,3.89-1.64C128.29,58.79,128,58.37,127.64,58Zm-1.14,1.3a11.66,11.66,0,0,1-3.5,1.44l-11.74,3.68a60.27,60.27,0,0,1-12,2.79,89.78,89.78,0,0,1-11.36.36H81.42c-1.44,0-2.92.12-4.36.19a79.36,79.36,0,0,1-8.16.15,18.63,18.63,0,0,1-8.17-2.14c-2.16-1.08-4.39-2.18-5.14-3.47-.48-.82-.66-2.44,3.49-4a61.41,61.41,0,0,1,7.29-2h0c4.46-1.1,12.37-3.07,19.53-3.63.8-.07,1.58-.11,2.35-.14,5.22-.17,10.79,0,16.18.21,2.72.1,5.3.19,7.81.23a43,43,0,0,1,5,.24,11,11,0,0,1,4.29,1.35,18.1,18.1,0,0,1,4.81,3.62c.28.33.55.7.16,1.1Z"/><path class="cls-4" d="M111.61,55a118.72,118.72,0,0,0-12.36-.8,115.72,115.72,0,0,0-13.3.11C78,55,71.23,56.48,67.4,58.49c-4.35,2.27-4.06,4.69.74,6.17,5.2,1.6,15.42,2.15,26,1.39L95,66a53.7,53.7,0,0,0,10.69-1.66,17.7,17.7,0,0,0,4-1.78l5.13-3a6.7,6.7,0,0,0,2.47-1.88C117.81,56.6,115.69,55.58,111.61,55Zm4.3,2.77a6.5,6.5,0,0,1-2.35,1.77l-5.12,3a16.4,16.4,0,0,1-3.67,1.66,52.7,52.7,0,0,1-10.59,1.57C84,66.49,74.27,66,69.3,64.45c-4.53-1.4-4.81-3.69-.69-5.85,3.6-1.88,9.94-3.31,17.38-3.91a114.49,114.49,0,0,1,12.7-.1c4.2.14,8.55.28,12,.77C114.44,55.85,116.39,56.77,115.91,57.77Z"/><path class="cls-4" d="M105.45,56.28c-5.68-2.07-17.28-1.18-26.24.34a24.09,24.09,0,0,0-7,2c-2.43,1.24-1.57,2-.65,2.77a3.61,3.61,0,0,1,1,1.13,1.53,1.53,0,0,1,.08.37.91.91,0,0,0,.38.74c1.06.78,4.77,1,11,.79,4.89-.2,9.87-.49,14.81-.86h.3a17.14,17.14,0,0,0,2.14-.27,5.42,5.42,0,0,0,1.9-.72,4.52,4.52,0,0,1,.69-.36,12.23,12.23,0,0,1,1.46-.43,11.62,11.62,0,0,0,1.92-.62c.66-.32.72-.63.78-.89C108.3,58.89,108.36,57.34,105.45,56.28Zm1.19,4.06a.89.89,0,0,1-.59.72,11,11,0,0,1-1.6.5,16.85,16.85,0,0,0-1.71.52,6.21,6.21,0,0,0-.81.42,3.83,3.83,0,0,1-1.33.53,17.64,17.64,0,0,1-1.78.21c-4.87.36-9.79.65-14.62.85-5.66.23-9,0-9.88-.64a.84.84,0,0,1-.32-.66,1.37,1.37,0,0,0-.09-.4,3.53,3.53,0,0,0-1-1.17c-.88-.76-1.64-1.42.53-2.52a21.1,21.1,0,0,1,6.32-1.81,95.4,95.4,0,0,1,9.75-1.22c5.81-.46,11.42-.36,14.77.86C107,57.53,106.92,59,106.64,60.34Z"/><path class="cls-4" d="M101.36,56.93a16.3,16.3,0,0,0-2.7-.22A74.62,74.62,0,0,0,88,57.57c-1,.14-2,.27-2.93.44-2.69.48-4.42,1-5.13,1.59s-.26,1.3,1.56,1.91a14.7,14.7,0,0,0,2.51.65,38.35,38.35,0,0,0,7.65.11l1.46-.1a38.86,38.86,0,0,0,5.57-.77c2.83-.66,4.37-1.63,4.58-2.87C103.4,58,103.29,57.27,101.36,56.93Zm.57,1.68c-.13.78-.92,1.86-4,2.57a41.4,41.4,0,0,1-6.18.76A36.24,36.24,0,0,1,85,61.85a12.76,12.76,0,0,1-2.28-.6c-1.12-.37-2.29-1-1.44-1.65.58-.47,2-.92,4.37-1.33h0c.83-.15,1.72-.27,2.71-.4,2-.26,4-.52,5.92-.67a38.7,38.7,0,0,1,3.88-.14,13.38,13.38,0,0,1,2.19.17C101.93,57.51,102,58.15,101.93,58.61Z"/><path class="cls-4" d="M89,60c.83,0,1.65.07,2.54.06a21,21,0,0,0,2.75-.16c.88-.14,1.56-.45,1.1-.61a5.17,5.17,0,0,0-1.24-.12l-3.51-.1a12.2,12.2,0,0,0-2.7.12C87.14,59.39,87.14,60,89,60Z"/><path class="cls-2" d="M106.77,100.42c.9.39,1.29-26.46,1.37-27.66s-11.09-8.24-11.09-8.24l8,9.71Z"/><path class="cls-2" d="M84.39,92.8c.56-1.55,0-17.16,0-17.16L79.11,69l3.11,6.76S83.83,94.34,84.39,92.8Z"/><path class="cls-5" d="M170.31,113.63c-1.27-7.95-.71-18.18-2.1-23.1s-3.56-9.3-3-17.29,1-17.74-.68-19.52a5,5,0,0,1,.36,4.29c-.69,1.62-4.58,4-11.82,6.31.62,2,2.37,4.59,3.26,7.91,1.3,4.88.74,5.83,1.55,11.75s-.06,6.89,0,12.43-1.55,7.84-1.74,12.47.19,7,1.74,16.59-1.37,13.76-2.11,20-4.47,12.89-6.15,16.36-2.61,3.23-6.64,6.25-5.09,1.56-9.56,2.62-6-.1-16-2.62-1.49-3.79-4.47-9.14-2.24-5.16-2.8-11.13.19-6.27-1.12-9.74-1.11.61-2.2,1.91.53,6.34,0,11.26,0,3.68,1.37,7.89.28,4.4,0,5.66-4.19,3.13-8.41,5.12-11.62-.07-18.46-1.83-11.6-2.26-12.93-5.45-.34-5.6,0-10.76-.9-6.31-.9-10.9.74-2.1,3.17-3.82,1.3-.19,2.26.92,1.27.61,2.39,0-.18-3.79-.18-7.26.74-6.85,3.16-14.69,1.68-4.59,2.76-7.22-1.27.53-2.76,1.48-2.42,3.25-4.1,7.84-.37,3.63-.37,8.33-.56,5-.9,5.61a5,5,0,0,1-4.53,2.16c-2.45-.34-1.27.91-2.64,1.87s-.87,2.87-1.37,9.28.31,5.06,1.37,9.44.81,9.38,0,11.41-5.9-.5-8-2.58-3.54-4.23-5.58-9.46-1.5-6.62-4.1-13.5-2.42-5-2.42-7.27,2.42-4.2,5.77-9.17,1.68-5.35,2.49-13,.68-10.67,1.39-22.73A123.33,123.33,0,0,1,57,72c-2-.59-4.07-1.22-6-1.85a19.42,19.42,0,0,0-.34,2,45.94,45.94,0,0,0,0,11.48c.56,6.31.56,7.46.56,24.09s-.93,7.84-2.23,12.42-3.35,5-4.84,6.42-1.68-3.17-4.85-7.39-1.49-8.2-2.61-12.68c-.25-1-.59-2.4-1-3.9-.06,11-.19,22.91,0,27.94.28,6.44-.28,10.37.84,17.29s.28,10.4,1.4,12.53,5.31,2.47,10.34,4.45,21.23,7,27.94,7.67,18.72.81,26.82,1.58,14.81,1.32,22.91,1.9,26.26-3.18,33.53-6,8.38-4.54,8.66-7.28S171.58,121.59,170.31,113.63ZM50.49,161.81c-1.31,0-4.66,1-6.33-.36s-3.54-2-3.54-3.87-.75-8.28-.75-8.28-.37-6.5-.56-9.34-.74-7.82-.74-7.82-1.17-6.08.56-3c1.22,2.15,3.16,4.53,4.84,9s1.68,4.19,3.35,8.8,3,10,3,10S51.79,161.83,50.49,161.81Z"/><path class="cls-6" d="M139.52,131.83c.37-7.51,1.31-14.21.19-17s-3.17-8.39-3.17-8.39l-2.11-7.57-2.36-6.35a36.61,36.61,0,0,1,1.68-10.07c1.67-5.18,4.71-13.08,4-14.48l-3.21.65c.29,1.37.81,4.59-.14,6.36-1.12,2.07-3.22,4.29-3.27,5.13a4,4,0,0,1,.06-2.84,5.43,5.43,0,0,0,0-4.53c-.45-1.39-2.68-2-3.15-2.85l-3.82.72c2,2.36,4.91,5.89,5,7.31.18,2.22-.93,13.5-1.21,16.75s2.89,9.39,4.19,11.77,2.1,6.31,2.17,10.46-1,6.1-1.37,11.35-1.67,4.79-.18,9.8a61.47,61.47,0,0,0,4.65,10.73c.94,1.92,2.42,3.95,2.24-1A141.45,141.45,0,0,1,139.52,131.83Z"/><path class="cls-2" d="M101,128.25c.37,4.12,1,2.54,1,2.54a34.36,34.36,0,0,0,2.37-7.81c.37-3.25-2-8.18-2.37-9.18-1.34-3.22-.8,3.25-1,6.5A36.43,36.43,0,0,0,101,128.25Z"/><path class="cls-2" d="M79,50.56l-2-.9-.64-.28L73.26,48l-4.38-1.91,1-.17c1-.15,2.23-.32,3.69-.5L76,47.69l1.69,1.58.33.3Z"/><path class="cls-2" d="M154.61,47.85l-7.42,1.06-.38.05-1.34.19-5.08.72-1.39.2-10.67,1.52-1.36.19L118.75,53l-1.54.21,1.22-.26,7.31-1.56,1.2-.25,8.56-1.75,1.28-.26,4.68-.92c2.69-.52,5.34-1,7.8-1.46A53.54,53.54,0,0,1,154.61,47.85Z"/><path class="cls-7" d="M45.32,79.44A50.81,50.81,0,0,0,45,89.76c.41,11.91.58,23.94-1.13,35.66-.7,4.73-1.7,9.42-1.94,14.19s.36,9.89,2.58,13.76,6.34,6.18,9.85,4.53,5.44-6.45,5.78-11.21-.64-9.41-1.4-14.05a162.29,162.29,0,0,1-2-31.26,109.87,109.87,0,0,0,.11-11.62,27.81,27.81,0,0,0-4.74-13.58C49.46,72.26,46.14,74.82,45.32,79.44Z"/><path class="cls-8" d="M120.65,71.3a6.11,6.11,0,0,1,3.71,3.09c.67,1.62.07,3.13-.25,4.63-.7,3.26.15,5.28,1,9.53,1.42,7,1.6,13.84,1.86,23.66.18,6.49-.18,5.49.05,11,.35,8.24,1.18,10.95,1.32,18a97.19,97.19,0,0,1-.51,12.08,105.44,105.44,0,0,1-4.77,22.51c6.13,1.07,14.81-.4,24.64-2.5,7.67-1.64,19.09-5.65,20.3-8.43,1.57-6.65,3.72-30.44,2.06-51.2-.79-9.8,0-16.16-1.61-22A78,78,0,0,0,165.17,81c-1.12-3.22.6-8.66.45-14.86-.08-3.12.09-7.36-.17-9-6.35,4.84-15.64,8.38-23.13,10C134,68.81,126.78,70.72,120.65,71.3Z"/></svg>