<svg xmlns="http://www.w3.org/2000/svg" xmlns:xlink="http://www.w3.org/1999/xlink" viewBox="0 0 1920 900"><defs><style>.cls-1,.cls-30{fill:none;}.cls-2{fill:#0e142e;}.cls-3{clip-path:url(#clip-path);}.cls-4{fill:#d2eaf8;}.cls-5{fill:#79ccf3;}.cls-6{fill:#ffe969;}.cls-14,.cls-28,.cls-7{fill:#fff;}.cls-8{fill:#de6756;}.cls-9{fill:#eee;}.cls-10{fill:#d3d3d3;}.cls-11{fill:#00bfff;}.cls-12{fill:#00aad0;}.cls-13{fill:#008bbc;opacity:0.64;}.cls-14{opacity:0.61;}.cls-15{fill:#80e3ff;}.cls-16{fill:#0072a5;}.cls-17{fill:#72c400;}.cls-18{fill:#6760d0;opacity:0.08;}.cls-19{fill:#f3b50f;}.cls-20{fill:#36acbb;}.cls-21{fill:#d82a3e;}.cls-22{fill:#a72332;}.cls-23{fill:#84ccdb;}.cls-24{font-size:50px;fill:#00408c;}.cls-24,.cls-28{font-family:Montserrat-Bold, Montserrat;font-weight:700;}.cls-25,.cls-29{fill:#c91031;}.cls-26{fill:#b83667;}.cls-27{fill:#c9425a;}.cls-28{font-size:70px;}.cls-29{stroke:#f9b50b;stroke-width:5px;}.cls-29,.cls-30{stroke-miterlimit:10;}.cls-30{stroke:#fff;stroke-width:50px;}.cls-31{fill:#721036;}.cls-32{fill:#f92d74;}</style><clipPath id="clip-path"><rect class="cls-1" width="1920" height="900"/></clipPath></defs><g id="Rocket"><path class="cls-19" d="M439.68,454.7c-11.7.1-22.08,6.43-26.11,9.76,10.72-.08,18,.75,20.52,2-4.76.88-10.06.16-25.68,6.89-14.59,6.29-20.5,15.13-20.5,15.13s4.17,7.32,20,15.44c12.65,6.48,20.24,5.76,25.9,5.65-9.26,3.64-16.15,2.79-20.72,2.74,5,5.48,19.35,10.64,27,10.72,26.44.27,24.6-14.25,24.79-34.93S466.91,454.47,439.68,454.7Z"/><path class="cls-20" d="M542.55,520.21s-27.59,51.3-86.26,50.72c0,0-6.43-3.28,1.37-8.37s29.11-9.39,29.43-42.26Z"/><path class="cls-20" d="M543.16,459.34s-26.56-51.86-85.24-52.44c0,0-6.48,3.16,1.21,8.4s28.91,10,28.59,42.84Z"/><path class="cls-21" d="M584.56,432.91c-49.72-.49-77.64,9.75-102.78,25.39l-.31,30.87L481.18,520C506,536.15,533.7,547,583.41,547.45A228.68,228.68,0,0,0,649.93,538l.47-47.17.47-47.17A228.41,228.41,0,0,0,584.56,432.91Zm14.49,25.83A31.59,31.59,0,1,1,567.14,490,31.59,31.59,0,0,1,599.05,458.74Z"/><path class="cls-22" d="M481.69,458.77l-.31,30.39-.3,30.43a1.44,1.44,0,0,1-1.46,1.42l-6.74-.06a1.43,1.43,0,0,1-1.42-1.46l.3-30.42.3-30.4a1.45,1.45,0,0,1,1.47-1.44l6.73.07A1.45,1.45,0,0,1,481.69,458.77Z"/><path class="cls-7" d="M599.2,443.13a47.19,47.19,0,1,0,46.74,47.68A47.21,47.21,0,0,0,599.2,443.13ZM599.06,458a32.34,32.34,0,1,1-32.68,32A32.39,32.39,0,0,1,599.06,458Z"/><path class="cls-23" d="M632,490.67a33.3,33.3,0,1,1-33-33.64A33.28,33.28,0,0,1,632,490.67Z"/><path class="cls-20" d="M711.81,491.46c-.1,10.3-17.63,33.5-61.88,46.56l.47-47.17.47-47.17C694.85,457.61,711.92,481.16,711.81,491.46Z"/><path class="cls-20" d="M526.81,487.63a1.38,1.38,0,0,1,.08.5v0l0,1.44,0,1.63,0,0a2.5,2.5,0,0,1-.09.49,3.63,3.63,0,0,1-.39.93,6.6,6.6,0,0,1-6.83,4.78l-58.22-5.15-2.94-.09-2.19,0a1.64,1.64,0,0,1-1.52-1,1.93,1.93,0,0,1-.21-.79l0-.05v-3.11a1.66,1.66,0,0,1,1.66-1.64l2.2,0,3.17,0,58.24-4C525.69,481.66,526.57,486.62,526.81,487.63Z"/><text class="cls-24" transform="translate(573.3 508.35)">10</text></g><g id="Meteor"><polygon class="cls-25" points="1218.23 614 1207.9 617.5 1201.71 627.36 1190.76 627.57 1180.69 629.24 1170.12 630.59 1160.01 627.32 1151.68 620.82 1141.81 616.52 1135.63 607.86 1132.11 597.99 1127.6 588.66 1129.21 578.25 1130.62 568.55 1128.95 557.55 1134.32 548.46 1140.32 539.79 1150.88 536.48 1158.04 528.77 1167.98 526.06 1178.14 524.66 1188.32 525.75 1198.11 528.59 1206.14 534.84 1214.86 539.81 1223.61 545.91 1225.4 556.65 1232.56 565.11 1229.12 575.82 1230.57 585.91 1226.95 595.38 1222.49 604.31 1218.23 614"/><path class="cls-26" d="M1167.6,544.62c.88-2.59,4.52-4.61,8.94-4.72s8.16,1.73,9.16,4.28a3.75,3.75,0,0,0,.22-1.28c-.08-3.19-4.3-5.67-9.44-5.55s-9.23,2.82-9.15,6A3.7,3.7,0,0,0,1167.6,544.62Z"/><path class="cls-26" d="M1157.82,564a5.67,5.67,0,0,1,1.94,3.53c.25-2.54-.38-4.76-2-6.07-3.37-2.75-9.69-.56-14.1,4.87-3.05,3.74-4.4,8-3.84,11.27a17,17,0,0,1,3.9-8.72C1148.13,563.49,1154.45,561.3,1157.82,564Z"/><path class="cls-26" d="M1177.56,606.19c5.28,3,8.8,7.47,9.54,11.48.66-4.54-3.16-10.37-9.6-14-7.56-4.28-15.84-4-18.51.73a7,7,0,0,0-.67,4.78,6.18,6.18,0,0,1,.74-2.23C1161.72,602.23,1170,601.91,1177.56,606.19Z"/><path class="cls-26" d="M1203.65,574.71c.2-3.62,1.74-6.49,4.24-7.15,3.58-.94,7.71,3,9.22,8.74a16.62,16.62,0,0,1,.44,2.45,16.25,16.25,0,0,0-.5-5c-1.52-5.76-5.64-9.68-9.22-8.74C1204.76,565.82,1203.11,569.93,1203.65,574.71Z"/><path class="cls-26" d="M1178.49,575.88a6.84,6.84,0,0,1,8.25,5.06c0,.14,0,.29.07.43a7.18,7.18,0,0,0-.13-3,6.68,6.68,0,1,0-13,3A6.68,6.68,0,0,1,1178.49,575.88Z"/><path class="cls-27" d="M1176.54,539.9c-4.42.11-8.06,2.13-8.94,4.72,1,2.55,4.74,4.38,9.16,4.27s8.07-2.12,8.94-4.71C1184.7,541.63,1181,539.8,1176.54,539.9Z"/><path class="cls-27" d="M1155.86,576.3a17,17,0,0,0,3.9-8.73,5.67,5.67,0,0,0-1.94-3.53c-3.37-2.74-9.69-.55-14.1,4.88a17,17,0,0,0-3.9,8.72,5.69,5.69,0,0,0,1.94,3.53C1145.13,583.91,1151.45,581.73,1155.86,576.3Z"/><path class="cls-27" d="M1167.86,620.63c7.55,4.29,15.84,4,18.5-.72a6.57,6.57,0,0,0,.74-2.24c-.74-4-4.26-8.47-9.54-11.48-7.56-4.28-15.84-4-18.5.73a6.18,6.18,0,0,0-.74,2.23C1159.05,613.17,1162.57,617.63,1167.86,620.63Z"/><path class="cls-27" d="M1207.89,567.56c-2.5.66-4,3.53-4.24,7.15a16.73,16.73,0,0,0,.44,2.44c1.51,5.77,5.64,9.68,9.22,8.74,2.5-.66,4-3.52,4.24-7.14a16.62,16.62,0,0,0-.44-2.45C1215.6,570.53,1211.47,566.62,1207.89,567.56Z"/><path class="cls-27" d="M1182,586.85a6.69,6.69,0,0,0,4.83-5.48c0-.14,0-.29-.07-.43a6.84,6.84,0,0,0-8.25-5.06,6.68,6.68,0,0,0-4.84,5.47c0,.15,0,.29.07.44A6.86,6.86,0,0,0,1182,586.85Z"/><text class="cls-28" transform="translate(1161.95 600.63)">1</text><polygon class="cls-29" points="1063.91 415.1 1053.57 418.6 1047.39 428.46 1036.43 428.67 1026.36 430.34 1015.79 431.69 1005.68 428.42 997.35 421.92 987.48 417.62 981.3 408.96 977.78 399.09 973.27 389.76 974.88 379.36 976.29 369.65 974.62 358.66 979.99 349.57 985.99 340.9 996.55 337.58 1003.71 329.88 1013.65 327.16 1023.81 325.76 1034 326.85 1043.78 329.7 1051.81 335.94 1060.53 340.92 1069.28 347.02 1071.07 357.76 1078.23 366.21 1074.8 376.92 1076.24 387.02 1072.63 396.48 1068.16 405.42 1063.91 415.1"/><path class="cls-26" d="M1013.28,345.72c.87-2.59,4.51-4.6,8.94-4.71s8.15,1.72,9.16,4.27a4,4,0,0,0,.21-1.28c-.08-3.19-4.3-5.67-9.44-5.54s-9.23,2.81-9.15,6A3.66,3.66,0,0,0,1013.28,345.72Z"/><path class="cls-26" d="M1003.49,365.15a5.65,5.65,0,0,1,1.94,3.52c.26-2.54-.38-4.75-2-6.07-3.37-2.75-9.69-.56-14.1,4.87-3.05,3.75-4.4,8.06-3.84,11.27a17.05,17.05,0,0,1,3.9-8.72C993.81,364.59,1000.12,362.41,1003.49,365.15Z"/><path class="cls-26" d="M1023.23,407.3c5.29,3,8.81,7.46,9.54,11.48.66-4.55-3.16-10.37-9.6-14-7.56-4.29-15.84-4-18.5.73a7,7,0,0,0-.68,4.78,6.06,6.06,0,0,1,.74-2.23C1007.39,403.34,1015.67,403,1023.23,407.3Z"/><path class="cls-26" d="M1049.32,375.81c.2-3.62,1.74-6.49,4.24-7.14,3.58-.94,7.71,3,9.22,8.73a16.86,16.86,0,0,1,.44,2.45,16.25,16.25,0,0,0-.5-5c-1.51-5.76-5.64-9.67-9.22-8.73C1050.43,366.92,1048.78,371,1049.32,375.81Z"/><path class="cls-26" d="M1024.16,377a6.84,6.84,0,0,1,8.25,5.06,3.21,3.21,0,0,1,.07.43,7,7,0,0,0-.13-3,6.68,6.68,0,1,0-13,3A6.68,6.68,0,0,1,1024.16,377Z"/><path class="cls-27" d="M1022.22,341c-4.43.11-8.07,2.12-8.94,4.71,1,2.55,4.73,4.39,9.15,4.28s8.07-2.12,9-4.72C1030.37,342.73,1026.64,340.9,1022.22,341Z"/><path class="cls-27" d="M1001.54,377.4a16.91,16.91,0,0,0,3.89-8.73,5.65,5.65,0,0,0-1.94-3.52c-3.37-2.74-9.68-.56-14.1,4.87a17.05,17.05,0,0,0-3.9,8.72,5.74,5.74,0,0,0,1.94,3.53C990.8,385,997.12,382.83,1001.54,377.4Z"/><path class="cls-27" d="M1013.53,421.73c7.55,4.29,15.84,4,18.5-.72a6.12,6.12,0,0,0,.74-2.23c-.73-4-4.25-8.48-9.54-11.48-7.56-4.29-15.84-4-18.5.73a6.06,6.06,0,0,0-.74,2.23C1004.72,414.27,1008.24,418.73,1013.53,421.73Z"/><path class="cls-27" d="M1053.56,368.67c-2.5.65-4,3.52-4.24,7.14a16.86,16.86,0,0,0,.44,2.45c1.51,5.76,5.64,9.67,9.22,8.73,2.5-.65,4-3.52,4.24-7.14a16.86,16.86,0,0,0-.44-2.45C1061.27,371.64,1057.14,367.73,1053.56,368.67Z"/><path class="cls-27" d="M1027.65,388a6.67,6.67,0,0,0,4.83-5.48,3.21,3.21,0,0,0-.07-.43,6.84,6.84,0,0,0-8.25-5.06,6.68,6.68,0,0,0-4.84,5.48c0,.14,0,.29.07.43A6.85,6.85,0,0,0,1027.65,388Z"/><text class="cls-28" transform="translate(1007.62 401.73)">7</text><polygon class="cls-25" points="962.09 545.7 951.76 549.2 945.57 559.06 934.61 559.27 924.54 560.94 913.97 562.29 903.86 559.02 895.53 552.52 885.66 548.22 879.48 539.56 875.96 529.69 871.45 520.36 873.06 509.96 874.47 500.25 872.8 489.26 878.17 480.17 884.17 471.49 894.73 468.18 901.89 460.47 911.83 457.76 921.99 456.36 932.18 457.45 941.96 460.3 949.99 466.54 958.71 471.51 967.46 477.62 969.25 488.36 976.42 496.81 972.98 507.52 974.42 517.62 970.81 527.08 966.35 536.02 962.09 545.7"/><path class="cls-26" d="M911.46,476.32c.87-2.59,4.51-4.6,8.94-4.71s8.16,1.72,9.16,4.27a3.7,3.7,0,0,0,.21-1.28c-.08-3.19-4.3-5.67-9.44-5.54s-9.23,2.81-9.15,6A3.66,3.66,0,0,0,911.46,476.32Z"/><path class="cls-26" d="M901.67,495.75a5.62,5.62,0,0,1,1.94,3.52c.26-2.54-.38-4.76-2-6.07-3.37-2.75-9.68-.56-14.1,4.87-3,3.74-4.4,8.06-3.83,11.27a16.91,16.91,0,0,1,3.89-8.72C892,495.19,898.3,493,901.67,495.75Z"/><path class="cls-26" d="M921.41,537.9c5.29,3,8.81,7.46,9.54,11.48.66-4.55-3.16-10.37-9.6-14-7.56-4.29-15.84-4-18.5.73a7,7,0,0,0-.68,4.78,6.57,6.57,0,0,1,.74-2.24C905.57,533.93,913.86,533.61,921.41,537.9Z"/><path class="cls-26" d="M947.5,506.41c.2-3.62,1.74-6.49,4.24-7.15,3.58-.93,7.71,3,9.22,8.74a16.86,16.86,0,0,1,.44,2.45,16,16,0,0,0-.5-5c-1.51-5.76-5.64-9.67-9.22-8.74C948.62,497.52,947,501.63,947.5,506.41Z"/><path class="cls-26" d="M922.34,507.58a6.85,6.85,0,0,1,8.26,5.06c0,.14,0,.29.07.43a7.19,7.19,0,0,0-.14-3,6.68,6.68,0,1,0-13,3A6.68,6.68,0,0,1,922.34,507.58Z"/><path class="cls-27" d="M920.4,471.61c-4.43.11-8.07,2.12-8.94,4.71,1,2.55,4.73,4.38,9.16,4.28s8.06-2.12,8.94-4.72C928.56,473.33,924.82,471.5,920.4,471.61Z"/><path class="cls-27" d="M899.72,508a16.94,16.94,0,0,0,3.89-8.73,5.62,5.62,0,0,0-1.94-3.52c-3.37-2.75-9.68-.56-14.1,4.87a16.91,16.91,0,0,0-3.89,8.72,5.68,5.68,0,0,0,1.93,3.53C889,515.61,895.3,513.43,899.72,508Z"/><path class="cls-27" d="M911.71,552.33c7.56,4.29,15.84,4,18.5-.72a6.12,6.12,0,0,0,.74-2.23c-.73-4-4.25-8.48-9.54-11.48-7.55-4.29-15.84-4-18.5.72a6.57,6.57,0,0,0-.74,2.24C902.9,544.87,906.42,549.33,911.71,552.33Z"/><path class="cls-27" d="M951.74,499.26c-2.5.66-4,3.53-4.24,7.15a16.49,16.49,0,0,0,.44,2.44c1.51,5.77,5.64,9.68,9.22,8.74,2.5-.65,4-3.52,4.24-7.14A16.86,16.86,0,0,0,961,508C959.45,502.24,955.32,498.33,951.74,499.26Z"/><path class="cls-27" d="M925.83,518.55a6.68,6.68,0,0,0,4.84-5.48c0-.14,0-.29-.07-.43a6.85,6.85,0,0,0-8.26-5.06,6.68,6.68,0,0,0-4.84,5.48c0,.14,0,.29.07.43A6.86,6.86,0,0,0,925.83,518.55Z"/><text class="cls-28" transform="translate(905.8 532.33)">6</text><polygon class="cls-25" points="1066.19 734.65 1055.86 738.14 1049.67 748.01 1038.71 748.22 1028.64 749.88 1018.07 751.24 1007.96 747.97 999.63 741.47 989.76 737.17 983.58 728.51 980.06 718.64 975.55 709.31 977.16 698.9 978.57 689.2 976.9 678.2 982.27 669.11 988.27 660.44 998.83 657.13 1005.99 649.42 1015.93 646.71 1026.09 645.31 1036.28 646.4 1046.06 649.24 1054.09 655.49 1062.81 660.46 1071.56 666.56 1073.35 677.3 1080.52 685.76 1077.08 696.47 1078.52 706.56 1074.91 716.02 1070.45 724.96 1066.19 734.65"/><path class="cls-26" d="M1015.56,665.27c.87-2.6,4.51-4.61,8.94-4.72s8.16,1.73,9.16,4.28a3.74,3.74,0,0,0,.21-1.28c-.08-3.19-4.3-5.67-9.44-5.55s-9.23,2.81-9.15,6A3.71,3.71,0,0,0,1015.56,665.27Z"/><path class="cls-26" d="M1005.77,684.69a5.67,5.67,0,0,1,1.94,3.53c.26-2.54-.38-4.76-2-6.08-3.37-2.74-9.68-.56-14.1,4.88-3.05,3.74-4.4,8.05-3.83,11.27a16.88,16.88,0,0,1,3.89-8.72C996.09,684.13,1002.4,682,1005.77,684.69Z"/><path class="cls-26" d="M1025.51,726.84c5.29,3,8.81,7.47,9.54,11.48.66-4.54-3.16-10.37-9.6-14-7.56-4.29-15.84-4-18.5.73a7,7,0,0,0-.68,4.78,6.31,6.31,0,0,1,.74-2.23C1009.67,722.88,1018,722.56,1025.51,726.84Z"/><path class="cls-26" d="M1051.6,695.36c.2-3.62,1.74-6.49,4.24-7.15,3.58-.94,7.71,3,9.22,8.74a16.73,16.73,0,0,1,.44,2.44,15.92,15.92,0,0,0-.5-5c-1.51-5.76-5.64-9.68-9.22-8.74C1052.72,686.47,1051.06,690.57,1051.6,695.36Z"/><path class="cls-26" d="M1026.44,696.53a6.84,6.84,0,0,1,8.25,5.05c0,.15,0,.29.08.44a7.24,7.24,0,0,0-.14-3,6.68,6.68,0,1,0-13,3A6.68,6.68,0,0,1,1026.44,696.53Z"/><path class="cls-27" d="M1024.5,660.55c-4.43.11-8.07,2.12-8.94,4.72,1,2.55,4.73,4.38,9.16,4.27s8.06-2.12,8.94-4.71C1032.66,662.28,1028.92,660.44,1024.5,660.55Z"/><path class="cls-27" d="M1003.82,696.94a16.88,16.88,0,0,0,3.89-8.72,5.67,5.67,0,0,0-1.94-3.53c-3.37-2.74-9.68-.56-14.1,4.88a16.88,16.88,0,0,0-3.89,8.72,5.68,5.68,0,0,0,1.93,3.53C993.08,704.56,999.4,702.38,1003.82,696.94Z"/><path class="cls-27" d="M1015.81,741.28c7.56,4.29,15.84,4,18.5-.73a6.06,6.06,0,0,0,.74-2.23c-.73-4-4.25-8.47-9.54-11.48-7.55-4.28-15.84-4-18.5.73a6.31,6.31,0,0,0-.74,2.23C1007,733.82,1010.52,738.28,1015.81,741.28Z"/><path class="cls-27" d="M1055.84,688.21c-2.5.66-4,3.53-4.24,7.15a16.73,16.73,0,0,0,.44,2.44c1.51,5.77,5.64,9.68,9.22,8.74,2.5-.66,4-3.53,4.24-7.15a16.73,16.73,0,0,0-.44-2.44C1063.55,691.18,1059.42,687.27,1055.84,688.21Z"/><path class="cls-27" d="M1029.93,707.5a6.69,6.69,0,0,0,4.84-5.48c0-.15,0-.29-.08-.44a6.84,6.84,0,0,0-8.25-5.05,6.68,6.68,0,0,0-4.84,5.47c0,.15,0,.29.07.44A6.86,6.86,0,0,0,1029.93,707.5Z"/><text class="cls-28" transform="translate(1009.9 721.28)">3</text><polygon class="cls-25" points="1383.78 839.72 1373.45 843.22 1367.26 853.08 1356.3 853.3 1346.24 854.96 1335.66 856.32 1325.55 853.05 1317.22 846.55 1307.36 842.25 1301.17 833.59 1297.65 823.72 1293.14 814.38 1294.75 803.98 1296.16 794.28 1294.5 783.28 1299.87 774.19 1305.86 765.52 1316.42 762.21 1323.58 754.5 1333.53 751.79 1343.68 750.38 1353.87 751.48 1363.65 754.32 1371.68 760.57 1380.41 765.54 1389.15 771.64 1390.94 782.38 1398.11 790.83 1394.67 801.54 1396.11 811.64 1392.5 821.1 1388.04 830.04 1383.78 839.72"/><path class="cls-26" d="M1333.15,770.35c.87-2.6,4.51-4.61,8.94-4.72s8.16,1.73,9.16,4.27a3.48,3.48,0,0,0,.21-1.28c-.07-3.18-4.3-5.66-9.43-5.54s-9.24,2.81-9.16,6A3.71,3.71,0,0,0,1333.15,770.35Z"/><path class="cls-26" d="M1323.37,789.77a5.74,5.74,0,0,1,1.94,3.53c.25-2.55-.39-4.76-2-6.08-3.37-2.74-9.68-.56-14.1,4.87-3,3.75-4.39,8.06-3.83,11.28a16.94,16.94,0,0,1,3.89-8.73C1313.68,789.21,1320,787,1323.37,789.77Z"/><path class="cls-26" d="M1343.1,831.92c5.29,3,8.81,7.46,9.54,11.48.66-4.55-3.16-10.37-9.6-14-7.55-4.29-15.84-4-18.5.73a7,7,0,0,0-.68,4.78,6.45,6.45,0,0,1,.74-2.23C1327.26,828,1335.55,827.63,1343.1,831.92Z"/><path class="cls-26" d="M1369.19,800.44c.2-3.63,1.74-6.5,4.24-7.15,3.58-.94,7.71,3,9.22,8.74a15.49,15.49,0,0,1,.44,2.44,15.92,15.92,0,0,0-.5-5c-1.51-5.77-5.64-9.68-9.22-8.74C1370.31,791.54,1368.66,795.65,1369.19,800.44Z"/><path class="cls-26" d="M1344,801.6a6.86,6.86,0,0,1,8.26,5.06c0,.15,0,.29.07.44a7.23,7.23,0,0,0-.14-3,6.68,6.68,0,1,0-13,3A6.66,6.66,0,0,1,1344,801.6Z"/><path class="cls-27" d="M1342.09,765.63c-4.43.11-8.07,2.12-8.94,4.72,1,2.55,4.73,4.38,9.16,4.27s8.06-2.12,8.94-4.72C1350.25,767.36,1346.51,765.52,1342.09,765.63Z"/><path class="cls-27" d="M1321.41,802a17,17,0,0,0,3.9-8.72,5.74,5.74,0,0,0-1.94-3.53c-3.38-2.74-9.69-.56-14.11,4.87a16.94,16.94,0,0,0-3.89,8.73,5.65,5.65,0,0,0,1.94,3.52C1310.68,809.64,1317,807.45,1321.41,802Z"/><path class="cls-27" d="M1333.4,846.36c7.56,4.29,15.84,4,18.5-.73a6.06,6.06,0,0,0,.74-2.23c-.73-4-4.25-8.48-9.54-11.48-7.55-4.29-15.84-4-18.5.73a6.45,6.45,0,0,0-.74,2.23C1324.59,838.9,1328.11,843.36,1333.4,846.36Z"/><path class="cls-27" d="M1373.43,793.29c-2.5.65-4,3.52-4.24,7.15a16.73,16.73,0,0,0,.44,2.44c1.51,5.76,5.64,9.68,9.22,8.74,2.5-.66,4-3.53,4.24-7.15a15.49,15.49,0,0,0-.44-2.44C1381.14,796.26,1377,792.35,1373.43,793.29Z"/><path class="cls-27" d="M1347.52,812.57a6.66,6.66,0,0,0,4.84-5.47c0-.15,0-.29-.07-.44a6.86,6.86,0,0,0-8.26-5.06,6.66,6.66,0,0,0-4.83,5.48,3.21,3.21,0,0,0,.07.43A6.84,6.84,0,0,0,1347.52,812.57Z"/><text class="cls-28" transform="translate(1327.49 826.36)">2</text><polygon class="cls-25" points="1501.96 288.84 1491.63 292.33 1485.44 302.2 1474.49 302.41 1464.42 304.07 1453.84 305.43 1443.74 302.16 1435.41 295.66 1425.54 291.36 1419.35 282.7 1415.83 272.83 1411.33 263.5 1412.94 253.09 1414.35 243.39 1412.68 232.39 1418.05 223.3 1424.05 214.63 1434.6 211.32 1441.76 203.61 1451.71 200.9 1461.87 199.5 1472.05 200.59 1481.84 203.43 1489.87 209.68 1498.59 214.65 1507.34 220.75 1509.13 231.49 1516.29 239.95 1512.85 250.66 1514.3 260.75 1510.68 270.21 1506.22 279.15 1501.96 288.84"/><path class="cls-26" d="M1451.33,219.46c.88-2.59,4.52-4.61,8.94-4.72s8.16,1.73,9.16,4.28a3.75,3.75,0,0,0,.22-1.28c-.08-3.19-4.31-5.67-9.44-5.55s-9.23,2.81-9.16,6A3.71,3.71,0,0,0,1451.33,219.46Z"/><path class="cls-26" d="M1441.55,238.88a5.67,5.67,0,0,1,1.94,3.53c.25-2.54-.38-4.76-2-6.07-3.38-2.75-9.69-.57-14.11,4.87-3,3.74-4.39,8-3.83,11.27a17,17,0,0,1,3.9-8.72C1431.86,238.32,1438.18,236.14,1441.55,238.88Z"/><path class="cls-26" d="M1461.29,281c5.28,3,8.8,7.47,9.54,11.48.65-4.54-3.16-10.37-9.61-14-7.55-4.29-15.84-4-18.5.73a7,7,0,0,0-.67,4.78,6.3,6.3,0,0,1,.73-2.23C1445.45,277.07,1453.73,276.75,1461.29,281Z"/><path class="cls-26" d="M1487.37,249.55c.21-3.62,1.75-6.49,4.25-7.15,3.58-.94,7.7,3,9.22,8.74a18.19,18.19,0,0,1,.44,2.44,16.24,16.24,0,0,0-.51-5c-1.51-5.76-5.64-9.68-9.22-8.74C1488.49,240.66,1486.84,244.76,1487.37,249.55Z"/><path class="cls-26" d="M1462.22,250.72a6.84,6.84,0,0,1,8.25,5.06c0,.14,0,.29.07.43a7.18,7.18,0,0,0-.13-3,6.68,6.68,0,1,0-13,3A6.68,6.68,0,0,1,1462.22,250.72Z"/><path class="cls-27" d="M1460.27,214.74c-4.42.11-8.06,2.13-8.94,4.72,1,2.55,4.74,4.38,9.16,4.27s8.07-2.12,8.94-4.71C1468.43,216.47,1464.7,214.63,1460.27,214.74Z"/><path class="cls-27" d="M1439.59,251.13a17,17,0,0,0,3.9-8.72,5.67,5.67,0,0,0-1.94-3.53c-3.37-2.74-9.69-.56-14.1,4.88a17,17,0,0,0-3.9,8.72,5.64,5.64,0,0,0,1.94,3.53C1428.86,258.75,1435.17,256.57,1439.59,251.13Z"/><path class="cls-27" d="M1451.58,295.47c7.56,4.29,15.84,4,18.51-.73a6.45,6.45,0,0,0,.74-2.23c-.74-4-4.26-8.47-9.54-11.48-7.56-4.28-15.84-4-18.51.73a6.3,6.3,0,0,0-.73,2.23C1442.78,288,1446.3,292.47,1451.58,295.47Z"/><path class="cls-27" d="M1491.62,242.4c-2.5.66-4,3.53-4.25,7.15a16.78,16.78,0,0,0,.45,2.44c1.51,5.77,5.64,9.68,9.21,8.74,2.5-.66,4-3.53,4.25-7.15a18.19,18.19,0,0,0-.44-2.44C1499.32,245.37,1495.2,241.46,1491.62,242.4Z"/><path class="cls-27" d="M1465.7,261.69a6.69,6.69,0,0,0,4.84-5.48c0-.14,0-.29-.07-.43a6.84,6.84,0,0,0-8.25-5.06,6.68,6.68,0,0,0-4.84,5.47c0,.15,0,.29.07.44A6.85,6.85,0,0,0,1465.7,261.69Z"/><text class="cls-28" transform="translate(1445.67 275.47)">9</text><polygon class="cls-25" points="1538.13 729.33 1527.8 732.83 1521.61 742.69 1510.65 742.9 1500.58 744.57 1490.01 745.92 1479.9 742.65 1471.57 736.15 1461.7 731.85 1455.52 723.19 1452 713.32 1447.49 703.99 1449.1 693.59 1450.51 683.88 1448.84 672.89 1454.21 663.8 1460.21 655.13 1470.77 651.81 1477.93 644.1 1487.87 641.39 1498.03 639.99 1508.22 641.08 1518 643.93 1526.03 650.17 1534.75 655.14 1543.5 661.25 1545.29 671.99 1552.45 680.44 1549.02 691.15 1550.46 701.25 1546.85 710.71 1542.38 719.65 1538.13 729.33"/><path class="cls-26" d="M1487.5,660c.87-2.59,4.51-4.6,8.94-4.71s8.15,1.72,9.16,4.27a4,4,0,0,0,.21-1.28c-.08-3.19-4.3-5.67-9.44-5.54s-9.23,2.81-9.15,6A3.66,3.66,0,0,0,1487.5,660Z"/><path class="cls-26" d="M1477.71,679.38a5.65,5.65,0,0,1,1.94,3.52c.26-2.54-.38-4.76-2-6.07-3.37-2.75-9.69-.56-14.1,4.87-3,3.74-4.4,8.06-3.84,11.27a17,17,0,0,1,3.9-8.72C1468,678.82,1474.34,676.63,1477.71,679.38Z"/><path class="cls-26" d="M1497.45,721.53c5.29,3,8.81,7.46,9.54,11.48.66-4.55-3.16-10.37-9.6-14-7.56-4.29-15.84-4-18.5.73a7,7,0,0,0-.68,4.78,6.06,6.06,0,0,1,.74-2.23C1481.61,717.56,1489.9,717.24,1497.45,721.53Z"/><path class="cls-26" d="M1523.54,690c.2-3.62,1.74-6.49,4.24-7.15,3.58-.93,7.71,3,9.22,8.74a16.86,16.86,0,0,1,.44,2.45,16,16,0,0,0-.5-5c-1.51-5.76-5.64-9.67-9.22-8.73C1524.65,681.15,1523,685.26,1523.54,690Z"/><path class="cls-26" d="M1498.38,691.21a6.84,6.84,0,0,1,8.25,5.06c0,.14,0,.29.08.43a7.19,7.19,0,0,0-.14-3,6.68,6.68,0,1,0-13,3A6.68,6.68,0,0,1,1498.38,691.21Z"/><path class="cls-27" d="M1496.44,655.24c-4.43.11-8.07,2.12-8.94,4.71,1,2.55,4.73,4.38,9.15,4.28s8.07-2.12,8.95-4.72C1504.59,657,1500.86,655.13,1496.44,655.24Z"/><path class="cls-27" d="M1475.76,691.63a16.94,16.94,0,0,0,3.89-8.73,5.65,5.65,0,0,0-1.94-3.52c-3.37-2.75-9.68-.56-14.1,4.87a17,17,0,0,0-3.9,8.72,5.74,5.74,0,0,0,1.94,3.53C1465,699.24,1471.34,697.06,1475.76,691.63Z"/><path class="cls-27" d="M1487.75,736c7.56,4.29,15.84,4,18.5-.72A6.12,6.12,0,0,0,1507,733c-.73-4-4.25-8.48-9.54-11.48-7.55-4.29-15.84-4-18.5.73a6.06,6.06,0,0,0-.74,2.23C1478.94,728.5,1482.46,733,1487.75,736Z"/><path class="cls-27" d="M1527.78,682.89c-2.5.66-4,3.53-4.24,7.15a16.86,16.86,0,0,0,.44,2.45c1.51,5.76,5.64,9.67,9.22,8.73,2.5-.65,4-3.52,4.24-7.14a16.86,16.86,0,0,0-.44-2.45C1535.49,685.87,1531.36,682,1527.78,682.89Z"/><path class="cls-27" d="M1501.87,702.18a6.69,6.69,0,0,0,4.84-5.48c0-.14,0-.29-.08-.43a6.84,6.84,0,0,0-8.25-5.06,6.68,6.68,0,0,0-4.84,5.48c0,.14,0,.29.07.43A6.85,6.85,0,0,0,1501.87,702.18Z"/><text class="cls-28" transform="translate(1481.84 715.96)">4</text><polygon class="cls-25" points="1459.49 554.99 1449.16 558.49 1442.97 568.35 1432.02 568.56 1421.95 570.23 1411.37 571.58 1401.27 568.31 1392.94 561.81 1383.07 557.51 1376.88 548.85 1373.36 538.98 1368.86 529.65 1370.47 519.25 1371.88 509.54 1370.21 498.55 1375.58 489.46 1381.58 480.79 1392.13 477.47 1399.29 469.76 1409.24 467.05 1419.4 465.65 1429.58 466.74 1439.37 469.59 1447.39 475.83 1456.12 480.8 1464.87 486.91 1466.66 497.65 1473.82 506.1 1470.38 516.81 1471.83 526.91 1468.21 536.37 1463.75 545.31 1459.49 554.99"/><path class="cls-26" d="M1408.86,485.61c.88-2.59,4.52-4.6,8.94-4.71s8.16,1.72,9.16,4.27a3.71,3.71,0,0,0,.22-1.28c-.08-3.19-4.31-5.67-9.44-5.54s-9.23,2.81-9.16,6A3.66,3.66,0,0,0,1408.86,485.61Z"/><path class="cls-26" d="M1399.08,505a5.65,5.65,0,0,1,1.94,3.52c.25-2.54-.38-4.76-2-6.07-3.38-2.75-9.69-.56-14.11,4.87-3,3.74-4.39,8.06-3.83,11.27a17,17,0,0,1,3.9-8.72C1389.39,504.48,1395.71,502.29,1399.08,505Z"/><path class="cls-26" d="M1418.82,547.19c5.28,3,8.8,7.46,9.54,11.48.65-4.55-3.16-10.37-9.61-14-7.55-4.29-15.84-4-18.5.73a6.94,6.94,0,0,0-.67,4.78,6.23,6.23,0,0,1,.73-2.23C1403,543.22,1411.26,542.9,1418.82,547.19Z"/><path class="cls-26" d="M1444.9,515.7c.21-3.62,1.75-6.49,4.25-7.15,3.58-.93,7.7,3,9.22,8.74a18.33,18.33,0,0,1,.44,2.45,16.27,16.27,0,0,0-.51-5c-1.51-5.76-5.64-9.67-9.22-8.73C1446,506.81,1444.37,510.92,1444.9,515.7Z"/><path class="cls-26" d="M1419.75,516.87a6.84,6.84,0,0,1,8.25,5.06c0,.14,0,.29.07.43a7.18,7.18,0,0,0-.13-3,6.68,6.68,0,1,0-13,3A6.68,6.68,0,0,1,1419.75,516.87Z"/><path class="cls-27" d="M1417.8,480.9c-4.42.11-8.06,2.12-8.94,4.71,1,2.55,4.74,4.38,9.16,4.28s8.07-2.12,8.94-4.72C1426,482.62,1422.23,480.79,1417.8,480.9Z"/><path class="cls-27" d="M1397.12,517.29a17,17,0,0,0,3.9-8.73,5.65,5.65,0,0,0-1.94-3.52c-3.37-2.75-9.69-.56-14.1,4.87a17,17,0,0,0-3.9,8.72,5.64,5.64,0,0,0,1.94,3.53C1386.39,524.9,1392.7,522.72,1397.12,517.29Z"/><path class="cls-27" d="M1409.11,561.62c7.56,4.29,15.85,4,18.51-.72a6.52,6.52,0,0,0,.74-2.23c-.74-4-4.26-8.48-9.54-11.48-7.56-4.29-15.84-4-18.51.73a6.23,6.23,0,0,0-.73,2.23C1400.31,554.16,1403.83,558.62,1409.11,561.62Z"/><path class="cls-27" d="M1449.15,508.55c-2.5.66-4,3.53-4.25,7.15a16.91,16.91,0,0,0,.45,2.45c1.51,5.76,5.64,9.67,9.21,8.73,2.5-.65,4-3.52,4.25-7.14a18.33,18.33,0,0,0-.44-2.45C1456.85,511.53,1452.73,507.62,1449.15,508.55Z"/><path class="cls-27" d="M1423.23,527.84a6.68,6.68,0,0,0,4.84-5.48c0-.14,0-.29-.07-.43a6.84,6.84,0,0,0-8.25-5.06,6.68,6.68,0,0,0-4.84,5.48c0,.14,0,.29.07.43A6.84,6.84,0,0,0,1423.23,527.84Z"/><text class="cls-28" transform="translate(1403.2 541.62)">7</text><polygon class="cls-25" points="1284.3 406.04 1273.97 409.54 1267.78 419.4 1256.83 419.61 1246.76 421.28 1236.18 422.63 1226.08 419.36 1217.75 412.86 1207.88 408.56 1201.69 399.9 1198.18 390.03 1193.67 380.7 1195.28 370.3 1196.69 360.59 1195.02 349.6 1200.39 340.51 1206.39 331.83 1216.94 328.52 1224.11 320.81 1234.05 318.1 1244.21 316.7 1254.39 317.79 1264.18 320.64 1272.21 326.88 1280.93 331.85 1289.68 337.96 1291.47 348.7 1298.63 357.15 1295.19 367.86 1296.64 377.95 1293.02 387.42 1288.56 396.36 1284.3 406.04"/><path class="cls-26" d="M1233.67,336.66c.88-2.59,4.52-4.6,8.94-4.71s8.16,1.72,9.16,4.27a3.71,3.71,0,0,0,.22-1.28c-.08-3.19-4.31-5.67-9.44-5.54s-9.23,2.81-9.15,6A3.48,3.48,0,0,0,1233.67,336.66Z"/><path class="cls-26" d="M1223.89,356.09a5.62,5.62,0,0,1,1.94,3.52c.25-2.54-.38-4.76-2-6.07-3.37-2.75-9.69-.56-14.11,4.87-3,3.74-4.39,8.06-3.83,11.27a17,17,0,0,1,3.9-8.72C1214.2,355.53,1220.52,353.34,1223.89,356.09Z"/><path class="cls-26" d="M1243.63,398.24c5.28,3,8.8,7.46,9.54,11.48.66-4.55-3.16-10.37-9.6-14-7.56-4.29-15.85-4-18.51.72a7,7,0,0,0-.67,4.79,6.17,6.17,0,0,1,.74-2.24C1227.79,394.27,1236.07,394,1243.63,398.24Z"/><path class="cls-26" d="M1269.72,366.75c.2-3.62,1.74-6.49,4.24-7.15,3.58-.93,7.7,3,9.22,8.74a16.62,16.62,0,0,1,.44,2.45,16.25,16.25,0,0,0-.5-5c-1.52-5.76-5.65-9.67-9.22-8.74C1270.83,357.86,1269.18,362,1269.72,366.75Z"/><path class="cls-26" d="M1244.56,367.92a6.84,6.84,0,0,1,8.25,5.06c0,.14,0,.29.07.43a7.18,7.18,0,0,0-.13-3,6.68,6.68,0,1,0-13,3A6.68,6.68,0,0,1,1244.56,367.92Z"/><path class="cls-27" d="M1242.61,332c-4.42.11-8.06,2.12-8.94,4.71,1,2.55,4.74,4.38,9.16,4.28s8.07-2.12,8.94-4.72C1250.77,333.67,1247,331.84,1242.61,332Z"/><path class="cls-27" d="M1221.93,368.34a17,17,0,0,0,3.9-8.73,5.62,5.62,0,0,0-1.94-3.52c-3.37-2.75-9.69-.56-14.1,4.87a17,17,0,0,0-3.9,8.72,5.64,5.64,0,0,0,1.94,3.53C1211.2,376,1217.52,373.77,1221.93,368.34Z"/><path class="cls-27" d="M1233.93,412.67c7.55,4.29,15.84,4,18.5-.72a6.59,6.59,0,0,0,.74-2.23c-.74-4-4.26-8.48-9.54-11.48-7.56-4.29-15.84-4-18.5.72a6.17,6.17,0,0,0-.74,2.24C1225.12,405.21,1228.64,409.67,1233.93,412.67Z"/><path class="cls-27" d="M1274,359.6c-2.5.66-4,3.53-4.24,7.15a16.49,16.49,0,0,0,.44,2.44c1.51,5.77,5.64,9.68,9.22,8.74,2.5-.65,4-3.52,4.24-7.14a16.62,16.62,0,0,0-.44-2.45C1281.66,362.58,1277.54,358.67,1274,359.6Z"/><path class="cls-27" d="M1248,378.89a6.68,6.68,0,0,0,4.84-5.48c0-.14,0-.29-.07-.43a6.84,6.84,0,0,0-8.25-5.06,6.68,6.68,0,0,0-4.84,5.48c0,.14,0,.29.07.43A6.85,6.85,0,0,0,1248,378.89Z"/><text class="cls-28" transform="translate(1228.01 392.67)">8</text></g><g id="Layer_11" data-name="Layer 11"><path class="cls-30" d="M691.37,406.53l.22,8.18v16.8q0,23.65-.89,24.54-2.87,2.86-9.94,4.42A56.83,56.83,0,0,1,669.15,462c-3,0-4.53-.22-4.53-.67q1.54-9.94,1.55-32.71l-.67-49.74q0-13.71,1.11-14.82,2.43-2.43,8.4-4.31a37.35,37.35,0,0,1,11.16-1.87c3.46,0,5.2.36,5.2,1.1a85.87,85.87,0,0,0-.67,10.61c0,3.54.23,5.31.67,5.31l.66-.44a37.18,37.18,0,0,1,3.32-3.87q2.21-2.33,9.39-6.19a29,29,0,0,1,13.71-3.87,24,24,0,0,1,11,2.32,24.45,24.45,0,0,1,7.41,5.64,28.61,28.61,0,0,1,5,9.5,99.47,99.47,0,0,1,3.21,11.5,116.86,116.86,0,0,1,1.77,14.15q.66,12.15.66,30.94l-.66,25.87c0,1-2.44,2-7.3,3a63.64,63.64,0,0,1-11.72,1.44l-7.29-1.1a350.39,350.39,0,0,0,2.21-38.58q0-18.68-2.43-28.08t-9.73-9.39q-7.29,0-11.83,4t-5.85,8l-1.55,3.75Z"/><path class="cls-30" d="M821.8,447.87l-.23-4.64-.22-.45A40.92,40.92,0,0,1,808,455.83q-8.07,4.86-15.81,4.86-23.2,0-26.52-36-.45-5.75-.45-29.63t2-28.29q5.74-4.65,18.57-4.64c3.39,0,5.45.36,6.19,1.1q0,.23-.22,6-1.11,16.8-1.1,25.86c0,6.05.07,10.5.22,13.38s.25,4.72.33,5.53.29,2.24.66,4.31a19.45,19.45,0,0,0,1.66,5.3q3.32,6.42,10.28,6.41t12.38-7q5.42-7,5.19-9.84v-7.51q0-40.45,1.33-43.55,1.11-2,7-4.2a32.63,32.63,0,0,1,11.61-2.22q5.75,0,6.63.89L847.44,367q-1.32,31.62-1.33,48.85T847,437.7q1.54,11.06,6,17.68,0,2.22-9.07,7.08t-15.47,4.86q-1.77,0-4-6.63A51.78,51.78,0,0,1,821.8,447.87Z"/><path class="cls-30" d="M867.78,428.86l-.67-51.95q0-14.15,1.11-15.26a25.76,25.76,0,0,1,8.18-4.53A29.81,29.81,0,0,1,887,355c3.39,0,5.08.3,5.08.89q-.89,9.72-.88,14.81c0,3.39.14,5.08.44,5.08s.74-.33,1.33-1a44.22,44.22,0,0,1,3.2-3.1A56.85,56.85,0,0,1,904.8,366q6.3-3.65,11.61-3.64,14.37,0,21.66,12.82,12.61-17.68,27.86-17.69,13.71,0,19.67,11.72a75.51,75.51,0,0,1,7.3,26.09q1.32,19,1.33,39.34l-.89,25.87q0,1.54-7.29,3a63.74,63.74,0,0,1-11.72,1.44l-7.07-1.1a335.28,335.28,0,0,0,2.43-35.37q0-13.49-.33-19.35a71.47,71.47,0,0,0-1.66-11.71q-1.34-5.87-4.09-8.41a9.93,9.93,0,0,0-7-2.54,12.83,12.83,0,0,0-7.52,2.32,17.5,17.5,0,0,0-4.75,4.54,7.73,7.73,0,0,0-1.44,2.87q.66,7.08.66,32.72l-.88,17.46q0,1.77-7.08,3.1a65.59,65.59,0,0,1-11.49,1.32l-7.08-1.1a303.44,303.44,0,0,0,2-33.49q0-15.58-1.66-21.89t-8.73-6.3q-7.08,0-11.93,7.07t-4.87,10.84v4.64l.22,23.43q0,21.68-.88,22.77Q885.68,462,868,462c-1.18,0-1.77-.22-1.77-.67Q867.78,451.85,867.78,428.86Z"/><path class="cls-30" d="M1015.67,424.44l-.44-81.58q0-27.63,1.1-28.74,2.65-2.64,8.73-5.08a31.29,31.29,0,0,1,11.61-2.43c3.68,0,5.53.29,5.53.88q-.45,2.22-1.22,25.09t-.55,28.41H1044q24.54,0,40,11.27,6.18,4.65,10.83,13.82a46.6,46.6,0,0,1,4.64,21.33q0,21-17,35t-41.78,18a32.15,32.15,0,0,1-.22,5.53q-2.88,2.87-10.06,4.42a58.22,58.22,0,0,1-11.72,1.54q-4.53,0-4.53-.66Q1015.67,465.11,1015.67,424.44Zm25.42,11.71a40.84,40.84,0,0,0,11.94-1.88,32.71,32.71,0,0,0,10.06-4.75c2.57-1.91,4.93-4.94,7.07-9.06s3.21-9.51,3.21-16.14-2.33-11.72-7-15.25a25.69,25.69,0,0,0-16-5.31l-10.17.66v15.92Q1040.21,430.19,1041.09,436.15Z"/><path class="cls-30" d="M1187.43,456.27q-7.52,5.09-29.4,5.08t-33.6-13q-11.72-13-11.72-34.82a55.53,55.53,0,0,1,14-37.8q14-16,39.46-16a35.08,35.08,0,0,1,19.12,5.53q8.73,5.54,8.74,19.34t-12,27.3q-12.06,13.5-32.83,20.56c0,1.77,1.8,3.21,5.42,4.32a36.62,36.62,0,0,0,10.72,1.65q16.8,0,26.53-6a.9.9,0,0,1,.66-.22c.29,0,.44,1.41.44,4.2Q1193,449.2,1187.43,456.27ZM1168.2,386q0-6.41-6.85-6.41-9.07,0-15.92,9.28t-6.85,22.33c0,2.07.29,3.1.88,3.1q8-.22,18.35-9.18T1168.2,386Z"/><path class="cls-30" d="M1211.09,426.43l-.45-50.19q0-13,.89-13.92,2.43-2.43,8.4-4.31a37.06,37.06,0,0,1,11.16-1.88c3.46,0,5.2.37,5.2,1.1a124.73,124.73,0,0,0-.67,13.6q0,7.62.45,7.62a1.2,1.2,0,0,0,.88-.55c.3-.36.77-1,1.44-1.77s2.06-2.24,4.2-4.31a42.56,42.56,0,0,1,27.3-11.49q1.77,2.87,1.77,8.84,0,12.6-3.1,17.91l-.88,1.76-2.87-.44q-15.93,0-25,13.05-3.54,5.3-3.54,7.95v19.46q0,26.52-.67,27.19-6.18,6-24.31,6c-1.18,0-1.77-.22-1.77-.67Q1211.09,452.74,1211.09,426.43Z"/><path class="cls-30" d="M791.53,569.05l-.32-59.61q0-20.2.81-21a19.4,19.4,0,0,1,6.38-3.71,22.73,22.73,0,0,1,8.48-1.78c2.69,0,4,.22,4,.65q-.33,1.62-.89,18.33t-.4,20.76h2.58q17.94,0,29.24,8.24a28.21,28.21,0,0,1,7.92,10.1,34.12,34.12,0,0,1,3.39,15.59q0,15.35-12.44,25.6t-30.53,13.17a23.8,23.8,0,0,1-.16,4c-1.4,1.4-3.86,2.47-7.35,3.23a42.9,42.9,0,0,1-8.57,1.13c-2.2,0-3.31-.16-3.31-.49Q791.53,598.78,791.53,569.05Zm18.58,8.56a30.11,30.11,0,0,0,8.72-1.37,24.13,24.13,0,0,0,7.36-3.48,18.88,18.88,0,0,0,5.16-6.62q2.34-4.53,2.35-11.79t-5.09-11.15a18.77,18.77,0,0,0-11.71-3.88l-7.44.49v11.63Q809.46,573.25,810.11,577.61Z"/><path class="cls-30" d="M921.66,585.28q-9.3,11.24-25.2,11.23t-25-9.85q-9.06-9.85-9-25.61t11.23-27.95q11.22-12.2,30.29-12.19c5.17.21,8,.54,8.4,1s.65,1.46.65,3.07a33.09,33.09,0,0,1-.49,5.34q2.43,0,6.22,2.82a36.53,36.53,0,0,1,6.22,5.74,25.58,25.58,0,0,1,4.2,8.16A36.48,36.48,0,0,1,931,558.71,40.38,40.38,0,0,1,921.66,585.28Zm-14.3-37.88a13.26,13.26,0,0,0-7.27-2.42H898.8a7.3,7.3,0,0,1-.32-2.75,16.74,16.74,0,0,1,.48-4q-6.63,0-12.36,6t-5.73,16.64q0,12.6,8.07,17.44c2,1.3,4.88,1.94,8.49,1.94s7-1.66,10.17-5,4.77-8.3,4.77-14.87S910.7,549.45,907.36,547.4Z"/><path class="cls-30" d="M963.42,556l.16,6v12.28q0,17.28-.65,17.93c-1.4,1.4-3.82,2.47-7.27,3.23a41.54,41.54,0,0,1-8.48,1.13c-2.21,0-3.31-.16-3.31-.48q1.13-7.28,1.13-23.91l-.48-36.35c0-6.68.26-10.29.8-10.83a15.52,15.52,0,0,1,6.14-3.15,27.44,27.44,0,0,1,8.16-1.37c2.53,0,3.8.27,3.8.81a61.09,61.09,0,0,0-.49,7.75c0,2.59.16,3.88.49,3.88l.48-.32a27.09,27.09,0,0,1,2.43-2.83q1.6-1.69,6.86-4.52a21.12,21.12,0,0,1,10-2.83,17.48,17.48,0,0,1,8.08,1.7,17.9,17.9,0,0,1,5.41,4.11,21.06,21.06,0,0,1,3.63,7,73.51,73.51,0,0,1,2.34,8.4,84.43,84.43,0,0,1,1.3,10.34q.48,8.89.48,22.62l-.48,18.9q0,1.13-5.33,2.18a46.7,46.7,0,0,1-8.57,1.05l-5.33-.81a254.6,254.6,0,0,0,1.62-28.19q0-13.65-1.78-20.51c-1.19-4.58-3.55-6.87-7.11-6.87a12.62,12.62,0,0,0-8.64,2.91,13.85,13.85,0,0,0-4.28,5.81l-1.13,2.75Z"/><path class="cls-30" d="M1059.38,523l-.33-23.9q0-10,.49-10.5a20.05,20.05,0,0,1,6.38-3.8,22,22,0,0,1,8.48-1.86c2.69,0,4,.22,4,.65q-1.29,26.82-1.29,57t1,36q1.13,8.73,5.33,12.92c0,1.08-2.24,2.77-6.71,5.09s-8.26,3.47-11.39,3.47c-.32,0-.8-.43-1.45-1.29q-3.08-4-3.72-11c0-.33-.1-.49-.32-.49l-.48.33q-6.8,9.69-20.2,9.69a20.16,20.16,0,0,1-17.12-8.56,31.66,31.66,0,0,1-6.3-19.23q0-18.26,11.31-31.1T1059.38,523Zm.32,17c0-.22-.59-.33-1.78-.33h-.64q-10.35,0-16.24,6.63t-5.9,16.8a16,16,0,0,0,2.83,9.77q2.82,3.81,8.56,3.8a10.71,10.71,0,0,0,9.21-5c2.32-3.34,3.47-6,3.47-7.91Q1059.21,545.78,1059.7,540Z"/><path class="cls-30" d="M1138.86,573.73q0,8.73-8.16,15.59a51.31,51.31,0,0,1-17.61,9.86,56,56,0,0,1-16.56,3c-.54,0-1.29-.64-2.26-1.93a20.07,20.07,0,0,1-4-12.44v-1.13q12.6,0,19.23-4.37t6.62-9q0-3.07-4-6.46a50.55,50.55,0,0,0-8.88-6,34.2,34.2,0,0,1-8.89-6.87q-4-4.28-4-9,0-9.86,12.28-18.1a46.15,46.15,0,0,1,26.17-8.24q1.62,0,4.2,4.45a19.34,19.34,0,0,1,2.75,9.12,37.61,37.61,0,0,0-9.7,1.94q-12.75,4.05-12.76,10,0,4.2,12.6,11.47a32.56,32.56,0,0,1,8.89,7.59A16.89,16.89,0,0,1,1138.86,573.73Z"/></g><g id="Layer_11_copy" data-name="Layer 11 copy"><path class="cls-31" d="M697.37,413.53l.22,8.18v16.8q0,23.65-.89,24.54-2.87,2.86-9.94,4.42A56.83,56.83,0,0,1,675.15,469c-3,0-4.53-.22-4.53-.67q1.54-9.94,1.55-32.71l-.67-49.74q0-13.71,1.11-14.82,2.43-2.43,8.4-4.31a37.35,37.35,0,0,1,11.16-1.87c3.46,0,5.2.36,5.2,1.1a85.87,85.87,0,0,0-.67,10.61c0,3.54.23,5.31.67,5.31l.66-.44a37.18,37.18,0,0,1,3.32-3.87q2.21-2.33,9.39-6.19a29,29,0,0,1,13.71-3.87,24,24,0,0,1,11,2.32,24.45,24.45,0,0,1,7.41,5.64,28.61,28.61,0,0,1,5,9.5,99.47,99.47,0,0,1,3.21,11.5,116.86,116.86,0,0,1,1.77,14.15q.66,12.15.66,30.94l-.66,25.87c0,1-2.44,2-7.3,3a63.64,63.64,0,0,1-11.72,1.44l-7.29-1.1a350.39,350.39,0,0,0,2.21-38.58q0-18.68-2.43-28.08t-9.73-9.39q-7.29,0-11.83,4t-5.85,8l-1.55,3.75Z"/><path class="cls-31" d="M827.8,454.87l-.23-4.64-.22-.45A40.92,40.92,0,0,1,814,462.83q-8.07,4.86-15.81,4.86-23.2,0-26.52-36-.45-5.75-.45-29.63t2-28.29q5.74-4.65,18.57-4.64c3.39,0,5.45.36,6.19,1.1q0,.23-.22,6-1.11,16.8-1.1,25.86c0,6.05.07,10.5.22,13.38s.25,4.72.33,5.53.29,2.24.66,4.31a19.45,19.45,0,0,0,1.66,5.3q3.32,6.42,10.28,6.41t12.38-7q5.42-7,5.19-9.84v-7.51q0-40.45,1.33-43.55,1.11-2,7-4.2a32.63,32.63,0,0,1,11.61-2.22q5.75,0,6.63.89L853.44,374q-1.32,31.62-1.33,48.85T853,444.7q1.54,11.06,6,17.68,0,2.22-9.07,7.08t-15.47,4.86q-1.77,0-4-6.63A51.78,51.78,0,0,1,827.8,454.87Z"/><path class="cls-31" d="M873.78,435.86l-.67-51.95q0-14.15,1.11-15.26a25.76,25.76,0,0,1,8.18-4.53A29.81,29.81,0,0,1,893,362c3.39,0,5.08.3,5.08.89q-.89,9.72-.88,14.81c0,3.39.14,5.08.44,5.08s.74-.33,1.33-1a44.22,44.22,0,0,1,3.2-3.1A56.85,56.85,0,0,1,910.8,373q6.3-3.65,11.61-3.64,14.37,0,21.66,12.82,12.61-17.68,27.86-17.69,13.71,0,19.67,11.72a75.51,75.51,0,0,1,7.3,26.09q1.32,19,1.33,39.34l-.89,25.87q0,1.54-7.29,3a63.74,63.74,0,0,1-11.72,1.44l-7.07-1.1a335.28,335.28,0,0,0,2.43-35.37q0-13.49-.33-19.35a71.47,71.47,0,0,0-1.66-11.71q-1.34-5.87-4.09-8.41a9.93,9.93,0,0,0-7-2.54,12.83,12.83,0,0,0-7.52,2.32,17.5,17.5,0,0,0-4.75,4.54,7.9,7.9,0,0,0-1.44,2.87q.66,7.08.66,32.72l-.88,17.46q0,1.77-7.08,3.1a65.49,65.49,0,0,1-11.49,1.32l-7.08-1.1a303.44,303.44,0,0,0,2-33.49q0-15.58-1.65-21.89t-8.74-6.3q-7.06,0-11.93,7.07t-4.87,10.84v4.64l.22,23.43q0,21.68-.88,22.77Q891.68,469,874,469c-1.18,0-1.77-.22-1.77-.67Q873.78,458.85,873.78,435.86Z"/><path class="cls-31" d="M1021.67,431.44l-.44-81.58q0-27.63,1.1-28.74,2.65-2.64,8.73-5.08a31.29,31.29,0,0,1,11.61-2.43c3.68,0,5.53.29,5.53.88q-.45,2.22-1.22,25.09t-.55,28.41H1050q24.54,0,40,11.27,6.18,4.65,10.83,13.82a46.6,46.6,0,0,1,4.64,21.33q0,21-17,35t-41.78,18a32.15,32.15,0,0,1-.22,5.53q-2.88,2.87-10.06,4.42a58.22,58.22,0,0,1-11.72,1.54q-4.53,0-4.53-.66Q1021.67,472.11,1021.67,431.44Zm25.42,11.71a40.84,40.84,0,0,0,11.94-1.88,32.71,32.71,0,0,0,10.06-4.75c2.57-1.91,4.93-4.94,7.07-9.06s3.21-9.51,3.21-16.14-2.33-11.72-7-15.25a25.69,25.69,0,0,0-16-5.31l-10.17.66v15.92Q1046.21,437.19,1047.09,443.15Z"/><path class="cls-31" d="M1193.43,463.27q-7.52,5.09-29.4,5.08t-33.6-13q-11.72-13-11.72-34.82a55.53,55.53,0,0,1,14-37.8q14-16,39.46-16a35.08,35.08,0,0,1,19.12,5.53q8.73,5.54,8.74,19.34t-12,27.3q-12.06,13.5-32.83,20.56c0,1.77,1.8,3.21,5.42,4.32a36.57,36.57,0,0,0,10.72,1.65q16.8,0,26.52-6a1,1,0,0,1,.67-.22c.29,0,.44,1.41.44,4.2Q1199,456.2,1193.43,463.27ZM1174.2,393q0-6.41-6.85-6.41-9.07,0-15.92,9.28t-6.85,22.33c0,2.07.29,3.1.88,3.1q8-.22,18.35-9.18T1174.2,393Z"/><path class="cls-31" d="M1217.08,433.43l-.44-50.19q0-13,.89-13.92,2.43-2.43,8.4-4.31a37.06,37.06,0,0,1,11.16-1.88c3.46,0,5.2.37,5.2,1.1a122.26,122.26,0,0,0-.67,13.6q0,7.62.45,7.62a1.2,1.2,0,0,0,.88-.55c.29-.36.77-1,1.44-1.77s2.06-2.24,4.2-4.31a42.56,42.56,0,0,1,27.3-11.49q1.77,2.87,1.77,8.84,0,12.6-3.1,17.91l-.88,1.76-2.88-.44q-15.91,0-25,13.05c-2.36,3.53-3.53,6.18-3.53,7.95v19.46q0,26.52-.67,27.19-6.18,6-24.31,6c-1.19,0-1.77-.22-1.77-.67Q1217.09,459.74,1217.08,433.43Z"/><path class="cls-31" d="M797.53,576.05l-.32-59.61q0-20.21.81-21a19.4,19.4,0,0,1,6.38-3.71,22.73,22.73,0,0,1,8.48-1.78c2.69,0,4,.22,4,.65q-.33,1.62-.89,18.33t-.4,20.76h2.58q17.94,0,29.24,8.24a28.21,28.21,0,0,1,7.92,10.1,34.12,34.12,0,0,1,3.39,15.59q0,15.35-12.44,25.6t-30.53,13.17a23.8,23.8,0,0,1-.16,4c-1.4,1.4-3.86,2.47-7.35,3.23a42.9,42.9,0,0,1-8.57,1.13c-2.2,0-3.31-.16-3.31-.49Q797.53,605.78,797.53,576.05Zm18.58,8.56a30.11,30.11,0,0,0,8.72-1.37,24.13,24.13,0,0,0,7.36-3.48,18.88,18.88,0,0,0,5.16-6.62q2.34-4.53,2.35-11.79t-5.09-11.15a18.77,18.77,0,0,0-11.71-3.88l-7.44.49v11.63Q815.46,580.25,816.11,584.61Z"/><path class="cls-31" d="M927.66,592.28q-9.3,11.24-25.2,11.23t-25-9.85q-9.06-9.85-9-25.61t11.23-27.95q11.22-12.2,30.29-12.19c5.17.21,8,.54,8.4,1s.65,1.46.65,3.07a33.09,33.09,0,0,1-.49,5.34q2.43,0,6.22,2.82a36.53,36.53,0,0,1,6.22,5.74,25.58,25.58,0,0,1,4.2,8.16A36.48,36.48,0,0,1,937,565.71,40.38,40.38,0,0,1,927.66,592.28Zm-14.3-37.88a13.26,13.26,0,0,0-7.27-2.42H904.8a7.3,7.3,0,0,1-.32-2.75,16.74,16.74,0,0,1,.48-4q-6.63,0-12.36,6t-5.73,16.64q0,12.6,8.07,17.44c2,1.3,4.88,1.94,8.49,1.94s7-1.66,10.17-5,4.77-8.3,4.77-14.87S916.7,556.45,913.36,554.4Z"/><path class="cls-31" d="M969.42,563l.16,6v12.28q0,17.28-.65,17.93c-1.4,1.4-3.82,2.47-7.27,3.23a41.54,41.54,0,0,1-8.48,1.13c-2.21,0-3.31-.16-3.31-.48q1.13-7.28,1.13-23.91l-.48-36.35c0-6.68.26-10.29.8-10.83a15.52,15.52,0,0,1,6.14-3.15,27.44,27.44,0,0,1,8.16-1.37c2.53,0,3.8.27,3.8.81a61.09,61.09,0,0,0-.49,7.75c0,2.59.16,3.88.49,3.88l.48-.32a27.09,27.09,0,0,1,2.43-2.83q1.6-1.69,6.86-4.52a21.12,21.12,0,0,1,10-2.83,17.48,17.48,0,0,1,8.08,1.7,17.9,17.9,0,0,1,5.41,4.11,21.06,21.06,0,0,1,3.63,7,73.51,73.51,0,0,1,2.34,8.4,84.43,84.43,0,0,1,1.3,10.34q.48,8.89.48,22.62l-.48,18.9q0,1.13-5.33,2.18a46.7,46.7,0,0,1-8.57,1.05l-5.33-.81a254.6,254.6,0,0,0,1.62-28.19q0-13.65-1.78-20.51c-1.19-4.58-3.55-6.87-7.11-6.87a12.62,12.62,0,0,0-8.64,2.91,13.85,13.85,0,0,0-4.28,5.81l-1.13,2.75Z"/><path class="cls-31" d="M1065.38,530l-.33-23.9c0-6.68.17-10.18.49-10.5a20.05,20.05,0,0,1,6.38-3.8,22,22,0,0,1,8.48-1.86c2.69,0,4,.22,4,.65q-1.29,26.82-1.29,57t1,36q1.13,8.73,5.33,12.92c0,1.08-2.24,2.77-6.71,5.09s-8.26,3.47-11.39,3.47c-.32,0-.8-.43-1.45-1.29q-3.08-4-3.71-11c0-.33-.11-.49-.33-.49l-.48.33q-6.8,9.69-20.2,9.69a20.16,20.16,0,0,1-17.12-8.56,31.66,31.66,0,0,1-6.3-19.23q0-18.26,11.31-31.1T1065.38,530Zm.32,17c0-.22-.59-.33-1.78-.33h-.64q-10.35,0-16.24,6.63t-5.89,16.8a16,16,0,0,0,2.82,9.77q2.83,3.81,8.56,3.8a10.69,10.69,0,0,0,9.21-5q3.48-5,3.48-7.91Q1065.22,552.78,1065.7,547Z"/><path class="cls-31" d="M1144.86,580.73q0,8.73-8.16,15.59a51.31,51.31,0,0,1-17.61,9.86,56,56,0,0,1-16.56,3c-.54,0-1.29-.64-2.26-1.93a20.07,20.07,0,0,1-4-12.44v-1.13q12.6,0,19.23-4.37t6.62-9q0-3.07-4-6.46a50.55,50.55,0,0,0-8.88-6,34.37,34.37,0,0,1-8.89-6.87q-4-4.28-4-9,0-9.86,12.28-18.1a46.15,46.15,0,0,1,26.17-8.24q1.62,0,4.2,4.45a19.34,19.34,0,0,1,2.75,9.12,37.48,37.48,0,0,0-9.69,1.94q-12.76,4.05-12.77,10,0,4.2,12.6,11.47a32.41,32.41,0,0,1,8.89,7.59A16.89,16.89,0,0,1,1144.86,580.73Z"/></g><g id="Layer_11_copy_2" data-name="Layer 11 copy 2"><path class="cls-32" d="M691.37,406.53l.22,8.18v16.8q0,23.65-.89,24.54-2.87,2.86-9.94,4.42A56.83,56.83,0,0,1,669.15,462c-3,0-4.53-.22-4.53-.67q1.54-9.94,1.55-32.71l-.67-49.74q0-13.71,1.11-14.82,2.43-2.43,8.4-4.31a37.35,37.35,0,0,1,11.16-1.87c3.46,0,5.2.36,5.2,1.1a85.87,85.87,0,0,0-.67,10.61c0,3.54.23,5.31.67,5.31l.66-.44a37.18,37.18,0,0,1,3.32-3.87q2.21-2.33,9.39-6.19a29,29,0,0,1,13.71-3.87,24,24,0,0,1,11,2.32,24.45,24.45,0,0,1,7.41,5.64,28.61,28.61,0,0,1,5,9.5,99.47,99.47,0,0,1,3.21,11.5,116.86,116.86,0,0,1,1.77,14.15q.66,12.15.66,30.94l-.66,25.87c0,1-2.44,2-7.3,3a63.64,63.64,0,0,1-11.72,1.44l-7.29-1.1a350.39,350.39,0,0,0,2.21-38.58q0-18.68-2.43-28.08t-9.73-9.39q-7.29,0-11.83,4t-5.85,8l-1.55,3.75Z"/><path class="cls-32" d="M821.8,447.87l-.23-4.64-.22-.45A40.92,40.92,0,0,1,808,455.83q-8.07,4.86-15.81,4.86-23.2,0-26.52-36-.45-5.75-.45-29.63t2-28.29q5.74-4.65,18.57-4.64c3.39,0,5.45.36,6.19,1.1q0,.23-.22,6-1.11,16.8-1.1,25.86c0,6.05.07,10.5.22,13.38s.25,4.72.33,5.53.29,2.24.66,4.31a19.45,19.45,0,0,0,1.66,5.3q3.32,6.42,10.28,6.41t12.38-7q5.42-7,5.19-9.84v-7.51q0-40.45,1.33-43.55,1.11-2,7-4.2a32.63,32.63,0,0,1,11.61-2.22q5.75,0,6.63.89L847.44,367q-1.32,31.62-1.33,48.85T847,437.7q1.54,11.06,6,17.68,0,2.22-9.07,7.08t-15.47,4.86q-1.77,0-4-6.63A51.78,51.78,0,0,1,821.8,447.87Z"/><path class="cls-32" d="M867.78,428.86l-.67-51.95q0-14.15,1.11-15.26a25.76,25.76,0,0,1,8.18-4.53A29.81,29.81,0,0,1,887,355c3.39,0,5.08.3,5.08.89q-.89,9.72-.88,14.81c0,3.39.14,5.08.44,5.08s.74-.33,1.33-1a44.22,44.22,0,0,1,3.2-3.1A56.85,56.85,0,0,1,904.8,366q6.3-3.65,11.61-3.64,14.37,0,21.66,12.82,12.61-17.68,27.86-17.69,13.71,0,19.67,11.72a75.51,75.51,0,0,1,7.3,26.09q1.32,19,1.33,39.34l-.89,25.87q0,1.54-7.29,3a63.74,63.74,0,0,1-11.72,1.44l-7.07-1.1a335.28,335.28,0,0,0,2.43-35.37q0-13.49-.33-19.35a71.47,71.47,0,0,0-1.66-11.71q-1.34-5.87-4.09-8.41a9.93,9.93,0,0,0-7-2.54,12.83,12.83,0,0,0-7.52,2.32,17.5,17.5,0,0,0-4.75,4.54,7.9,7.9,0,0,0-1.44,2.87q.66,7.08.66,32.72l-.88,17.46q0,1.77-7.08,3.1a65.49,65.49,0,0,1-11.49,1.32l-7.08-1.1a303.44,303.44,0,0,0,2-33.49q0-15.58-1.65-21.89t-8.74-6.3q-7.06,0-11.93,7.07t-4.87,10.84v4.64l.22,23.43q0,21.68-.88,22.77Q885.68,462,868,462c-1.18,0-1.77-.22-1.77-.67Q867.78,451.85,867.78,428.86Z"/><path class="cls-32" d="M1015.67,424.44l-.44-81.58q0-27.63,1.1-28.74,2.65-2.64,8.73-5.08a31.29,31.29,0,0,1,11.61-2.43c3.68,0,5.53.29,5.53.88q-.45,2.22-1.22,25.09t-.55,28.41H1044q24.54,0,40,11.27,6.18,4.65,10.83,13.82a46.6,46.6,0,0,1,4.64,21.33q0,21-17,35t-41.78,18a32.15,32.15,0,0,1-.22,5.53q-2.88,2.87-10.06,4.42a58.22,58.22,0,0,1-11.72,1.54q-4.53,0-4.53-.66Q1015.67,465.11,1015.67,424.44Zm25.42,11.71a40.84,40.84,0,0,0,11.94-1.88,32.71,32.71,0,0,0,10.06-4.75c2.57-1.91,4.93-4.94,7.07-9.06s3.21-9.51,3.21-16.14-2.33-11.72-7-15.25a25.69,25.69,0,0,0-16-5.31l-10.17.66v15.92Q1040.21,430.19,1041.09,436.15Z"/><path class="cls-32" d="M1187.43,456.27q-7.52,5.09-29.4,5.08t-33.6-13q-11.72-13-11.72-34.82a55.53,55.53,0,0,1,14-37.8q14-16,39.46-16a35.08,35.08,0,0,1,19.12,5.53q8.73,5.54,8.74,19.34t-12,27.3q-12.06,13.5-32.83,20.56c0,1.77,1.8,3.21,5.42,4.32a36.57,36.57,0,0,0,10.72,1.65q16.8,0,26.52-6a1,1,0,0,1,.67-.22c.29,0,.44,1.41.44,4.2Q1193,449.2,1187.43,456.27ZM1168.2,386q0-6.41-6.85-6.41-9.07,0-15.92,9.28t-6.85,22.33c0,2.07.29,3.1.88,3.1q8-.22,18.35-9.18T1168.2,386Z"/><path class="cls-32" d="M1211.08,426.43l-.44-50.19q0-13,.89-13.92,2.43-2.43,8.4-4.31a37.06,37.06,0,0,1,11.16-1.88c3.46,0,5.2.37,5.2,1.1a122.26,122.26,0,0,0-.67,13.6q0,7.62.45,7.62a1.2,1.2,0,0,0,.88-.55c.29-.36.77-1,1.44-1.77s2.06-2.24,4.2-4.31a42.56,42.56,0,0,1,27.3-11.49q1.77,2.87,1.77,8.84,0,12.6-3.1,17.91l-.88,1.76-2.88-.44q-15.91,0-25,13.05c-2.36,3.53-3.53,6.18-3.53,7.95v19.46q0,26.52-.67,27.19-6.18,6-24.31,6c-1.19,0-1.77-.22-1.77-.67Q1211.09,452.74,1211.08,426.43Z"/><path class="cls-32" d="M791.53,569.05l-.32-59.61q0-20.2.81-21a19.4,19.4,0,0,1,6.38-3.71,22.73,22.73,0,0,1,8.48-1.78c2.69,0,4,.22,4,.65q-.33,1.62-.89,18.33t-.4,20.76h2.58q17.94,0,29.24,8.24a28.21,28.21,0,0,1,7.92,10.1,34.12,34.12,0,0,1,3.39,15.59q0,15.35-12.44,25.6t-30.53,13.17a23.8,23.8,0,0,1-.16,4c-1.4,1.4-3.86,2.47-7.35,3.23a42.9,42.9,0,0,1-8.57,1.13c-2.2,0-3.31-.16-3.31-.49Q791.53,598.78,791.53,569.05Zm18.58,8.56a30.11,30.11,0,0,0,8.72-1.37,24.13,24.13,0,0,0,7.36-3.48,18.88,18.88,0,0,0,5.16-6.62q2.34-4.53,2.35-11.79t-5.09-11.15a18.77,18.77,0,0,0-11.71-3.88l-7.44.49v11.63Q809.46,573.25,810.11,577.61Z"/><path class="cls-32" d="M921.66,585.28q-9.3,11.24-25.2,11.23t-25-9.85q-9.06-9.85-9-25.61t11.23-27.95q11.22-12.2,30.29-12.19c5.17.21,8,.54,8.4,1s.65,1.46.65,3.07a33.09,33.09,0,0,1-.49,5.34q2.43,0,6.22,2.82a36.53,36.53,0,0,1,6.22,5.74,25.58,25.58,0,0,1,4.2,8.16A36.48,36.48,0,0,1,931,558.71,40.38,40.38,0,0,1,921.66,585.28Zm-14.3-37.88a13.26,13.26,0,0,0-7.27-2.42H898.8a7.3,7.3,0,0,1-.32-2.75,16.74,16.74,0,0,1,.48-4q-6.63,0-12.36,6t-5.73,16.64q0,12.6,8.07,17.44c2,1.3,4.88,1.94,8.49,1.94s7-1.66,10.17-5,4.77-8.3,4.77-14.87S910.7,549.45,907.36,547.4Z"/><path class="cls-32" d="M963.42,556l.16,6v12.28q0,17.28-.65,17.93c-1.4,1.4-3.82,2.47-7.27,3.23a41.54,41.54,0,0,1-8.48,1.13c-2.21,0-3.31-.16-3.31-.48q1.13-7.28,1.13-23.91l-.48-36.35c0-6.68.26-10.29.8-10.83a15.52,15.52,0,0,1,6.14-3.15,27.44,27.44,0,0,1,8.16-1.37c2.53,0,3.8.27,3.8.81a61.09,61.09,0,0,0-.49,7.75c0,2.59.16,3.88.49,3.88l.48-.32a27.09,27.09,0,0,1,2.43-2.83q1.6-1.69,6.86-4.52a21.12,21.12,0,0,1,10-2.83,17.48,17.48,0,0,1,8.08,1.7,17.9,17.9,0,0,1,5.41,4.11,21.06,21.06,0,0,1,3.63,7,73.51,73.51,0,0,1,2.34,8.4,84.43,84.43,0,0,1,1.3,10.34q.48,8.89.48,22.62l-.48,18.9q0,1.13-5.33,2.18a46.7,46.7,0,0,1-8.57,1.05l-5.33-.81a254.6,254.6,0,0,0,1.62-28.19q0-13.65-1.78-20.51c-1.19-4.58-3.55-6.87-7.11-6.87a12.62,12.62,0,0,0-8.64,2.91,13.85,13.85,0,0,0-4.28,5.81l-1.13,2.75Z"/><path class="cls-32" d="M1059.38,523l-.33-23.9c0-6.68.17-10.18.49-10.5a20.05,20.05,0,0,1,6.38-3.8,22,22,0,0,1,8.48-1.86c2.69,0,4,.22,4,.65q-1.29,26.82-1.29,57t1,36q1.13,8.73,5.33,12.92c0,1.08-2.24,2.77-6.71,5.09s-8.26,3.47-11.39,3.47c-.32,0-.8-.43-1.45-1.29q-3.08-4-3.71-11c0-.33-.11-.49-.33-.49l-.48.33q-6.8,9.69-20.2,9.69a20.16,20.16,0,0,1-17.12-8.56,31.66,31.66,0,0,1-6.3-19.23q0-18.26,11.31-31.1T1059.38,523Zm.32,17c0-.22-.59-.33-1.78-.33h-.64q-10.35,0-16.24,6.63t-5.89,16.8a16,16,0,0,0,2.82,9.77q2.83,3.81,8.56,3.8a10.69,10.69,0,0,0,9.21-5q3.48-5,3.48-7.91Q1059.22,545.78,1059.7,540Z"/><path class="cls-32" d="M1138.86,573.73q0,8.73-8.16,15.59a51.31,51.31,0,0,1-17.61,9.86,56,56,0,0,1-16.56,3c-.54,0-1.29-.64-2.26-1.93a20.07,20.07,0,0,1-4-12.44v-1.13q12.6,0,19.23-4.37t6.62-9q0-3.07-4-6.46a50.55,50.55,0,0,0-8.88-6,34.37,34.37,0,0,1-8.89-6.87q-4-4.28-4-9,0-9.86,12.28-18.1a46.15,46.15,0,0,1,26.17-8.24q1.62,0,4.2,4.45a19.34,19.34,0,0,1,2.75,9.12,37.48,37.48,0,0,0-9.69,1.94q-12.76,4.05-12.77,10,0,4.2,12.6,11.47a32.41,32.41,0,0,1,8.89,7.59A16.89,16.89,0,0,1,1138.86,573.73Z"/></g></svg>