<svg id="Layer_1" data-name="Layer 1" xmlns="http://www.w3.org/2000/svg" viewBox="0 0 104.96 105.93"><defs><style>.cls-1{fill:#c91031;}.cls-2{fill:#b83667;}.cls-3{fill:#c9425a;}.cls-4{font-size:70px;fill:#fff;font-family:Montserrat-Bold, Montserrat;font-weight:700;}</style></defs><polygon class="cls-1" points="90.64 89.34 80.3 92.84 74.11 102.7 63.16 102.91 53.09 104.58 42.52 105.93 32.41 102.66 24.08 96.16 14.21 91.86 8.03 83.2 4.51 73.33 0 64 1.61 53.6 3.02 43.89 1.35 32.9 6.72 23.81 12.72 15.13 23.27 11.82 30.44 4.11 40.38 1.4 50.54 0 60.73 1.09 70.51 3.94 78.54 10.18 87.26 15.15 96.01 21.26 97.8 32 104.96 40.45 101.52 51.16 102.97 61.26 99.36 70.72 94.89 79.66 90.64 89.34"/><path class="cls-2" d="M944,506.78c.87-2.59,4.51-4.6,8.94-4.72s8.15,1.73,9.16,4.28a4,4,0,0,0,.21-1.28c-.08-3.19-4.3-5.67-9.44-5.54s-9.23,2.81-9.15,6A3.71,3.71,0,0,0,944,506.78Z" transform="translate(-904.01 -486.82)"/><path class="cls-2" d="M934.23,526.21a5.62,5.62,0,0,1,1.94,3.52c.26-2.54-.38-4.76-2-6.07-3.37-2.75-9.69-.56-14.1,4.87-3.05,3.74-4.4,8.06-3.84,11.27a17,17,0,0,1,3.9-8.72C924.55,525.65,930.86,523.46,934.23,526.21Z" transform="translate(-904.01 -486.82)"/><path class="cls-2" d="M954,568.36c5.29,3,8.81,7.46,9.54,11.48.66-4.55-3.16-10.38-9.6-14-7.56-4.29-15.84-4-18.5.72a7,7,0,0,0-.68,4.78,6.18,6.18,0,0,1,.74-2.23C938.13,564.39,946.42,564.07,954,568.36Z" transform="translate(-904.01 -486.82)"/><path class="cls-2" d="M980.06,536.87c.2-3.62,1.74-6.49,4.24-7.15,3.58-.93,7.71,3,9.22,8.74a16.62,16.62,0,0,1,.44,2.45,16,16,0,0,0-.5-5c-1.51-5.76-5.64-9.68-9.22-8.74C981.17,528,979.52,532.09,980.06,536.87Z" transform="translate(-904.01 -486.82)"/><path class="cls-2" d="M954.9,538a6.84,6.84,0,0,1,8.25,5.06c0,.14.05.29.08.43a7.19,7.19,0,0,0-.14-3,6.68,6.68,0,1,0-13,3A6.68,6.68,0,0,1,954.9,538Z" transform="translate(-904.01 -486.82)"/><path class="cls-3" d="M953,502.06c-4.43.12-8.07,2.13-8.94,4.72,1,2.55,4.73,4.38,9.15,4.28s8.07-2.13,9-4.72C961.11,503.79,957.38,502,953,502.06Z" transform="translate(-904.01 -486.82)"/><path class="cls-3" d="M932.28,538.46a16.94,16.94,0,0,0,3.89-8.73,5.62,5.62,0,0,0-1.94-3.52c-3.37-2.75-9.68-.56-14.1,4.87a17,17,0,0,0-3.9,8.72,5.74,5.74,0,0,0,1.94,3.53C921.54,546.07,927.86,543.89,932.28,538.46Z" transform="translate(-904.01 -486.82)"/><path class="cls-3" d="M944.27,582.79c7.56,4.29,15.84,4,18.5-.72a6.18,6.18,0,0,0,.74-2.23c-.73-4-4.25-8.48-9.54-11.48-7.55-4.29-15.84-4-18.5.72a6.18,6.18,0,0,0-.74,2.23C935.46,575.33,939,579.79,944.27,582.79Z" transform="translate(-904.01 -486.82)"/><path class="cls-3" d="M984.3,529.72c-2.5.66-4,3.53-4.24,7.15a16.49,16.49,0,0,0,.44,2.44c1.51,5.77,5.64,9.68,9.22,8.74,2.5-.65,4-3.52,4.24-7.14a16.62,16.62,0,0,0-.44-2.45C992,532.7,987.88,528.79,984.3,529.72Z" transform="translate(-904.01 -486.82)"/><path class="cls-3" d="M958.39,549a6.69,6.69,0,0,0,4.84-5.48c0-.14,0-.29-.08-.43A6.84,6.84,0,0,0,954.9,538a6.68,6.68,0,0,0-4.84,5.48c0,.14,0,.28.07.43A6.86,6.86,0,0,0,958.39,549Z" transform="translate(-904.01 -486.82)"/><text class="cls-4" transform="translate(34.35 75.97)">7</text></svg>