<svg id="धूप" xmlns="http://www.w3.org/2000/svg" viewBox="0 0 150 160"><defs><style>.cls-1,.cls-3{fill:#fff;}.cls-2,.cls-6,.cls-7,.cls-8{fill:none;}.cls-2,.cls-3,.cls-5,.cls-7,.cls-9{stroke:#fff;}.cls-2,.cls-3,.cls-5,.cls-6,.cls-7,.cls-8,.cls-9{stroke-miterlimit:10;}.cls-2,.cls-3,.cls-5,.cls-6{stroke-width:5px;}.cls-4,.cls-5,.cls-9{fill:#ffc400;}.cls-6,.cls-8{stroke:#ffc400;}.cls-7{stroke-width:9px;}.cls-8{stroke-width:3.29px;}.cls-9{stroke-width:5.75px;}</style></defs><path class="cls-1" d="M138.15,80c0,2.6-28.5,3-28.9,5.44s26.61,11.67,25.83,14.08-28-6-29.17-3.78,21.68,19.33,20.18,21.39-24.76-14.42-26.57-12.61,14.69,25.06,12.61,26.57S93,109.74,90.74,110.91s6.23,28.37,3.78,29.17S83,113.85,80.44,114.25s-2.84,28.9-5.44,28.9-3-28.5-5.44-28.9-11.67,26.61-14.08,25.83,6.05-28,3.78-29.17-19.33,21.68-21.39,20.18,14.42-24.76,12.61-26.57-25.06,14.69-26.57,12.61S45.26,98,44.09,95.74,15.72,102,14.92,99.52,41.15,88,40.75,85.44,11.85,82.6,11.85,80s28.5-3,28.9-5.44S14.14,62.89,14.92,60.48s28,6.05,29.17,3.78S22.41,44.93,23.91,42.87,48.67,57.29,50.48,55.48,35.79,30.42,37.87,28.91,57,50.26,59.26,49.09,53,20.72,55.48,19.92,67,46.15,69.56,45.75,72.4,16.85,75,16.85s3,28.5,5.44,28.9S92.11,19.14,94.52,19.92s-6,28-3.78,29.17,19.33-21.68,21.39-20.18S97.71,53.67,99.52,55.48s25.06-14.69,26.57-12.61S104.74,62,105.91,64.26s28.37-6.23,29.17-3.78S108.85,72,109.25,74.56,138.15,77.4,138.15,80Z"/><path class="cls-2" d="M138.15,80c0,2.6-28.5,3-28.9,5.44s26.61,11.67,25.83,14.08-28-6-29.17-3.78,21.68,19.33,20.18,21.39-24.76-14.42-26.57-12.61,14.69,25.06,12.61,26.57S93,109.74,90.74,110.91s6.23,28.37,3.78,29.17S83,113.85,80.44,114.25s-2.84,28.9-5.44,28.9-3-28.5-5.44-28.9-11.67,26.61-14.08,25.83,6.05-28,3.78-29.17-19.33,21.68-21.39,20.18,14.42-24.76,12.61-26.57-25.06,14.69-26.57,12.61S45.26,98,44.09,95.74,15.72,102,14.92,99.52,41.15,88,40.75,85.44,11.85,82.6,11.85,80s28.5-3,28.9-5.44S14.14,62.89,14.92,60.48s28,6.05,29.17,3.78S22.41,44.93,23.91,42.87,48.67,57.29,50.48,55.48,35.79,30.42,37.87,28.91,57,50.26,59.26,49.09,53,20.72,55.48,19.92,67,46.15,69.56,45.75,72.4,16.85,75,16.85s3,28.5,5.44,28.9S92.11,19.14,94.52,19.92s-6,28-3.78,29.17,19.33-21.68,21.39-20.18S97.71,53.67,99.52,55.48s25.06-14.69,26.57-12.61S104.74,62,105.91,64.26s28.37-6.23,29.17-3.78S108.85,72,109.25,74.56,138.15,77.4,138.15,80Z"/><circle class="cls-3" cx="75" cy="80" r="44.4" transform="translate(-34.6 76.46) rotate(-45)"/><circle class="cls-3" cx="75" cy="80" r="38.15" transform="translate(-34.6 76.46) rotate(-45)"/><path class="cls-4" d="M138.15,80c0,2.6-28.5,3-28.9,5.44s26.61,11.67,25.83,14.08-28-6-29.17-3.78,21.68,19.33,20.18,21.39-24.76-14.42-26.57-12.61,14.69,25.06,12.61,26.57S93,109.74,90.74,110.91s6.23,28.37,3.78,29.17S83,113.85,80.44,114.25s-2.84,28.9-5.44,28.9-3-28.5-5.44-28.9-11.67,26.61-14.08,25.83,6.05-28,3.78-29.17-19.33,21.68-21.39,20.18,14.42-24.76,12.61-26.57-25.06,14.69-26.57,12.61S45.26,98,44.09,95.74,15.72,102,14.92,99.52,41.15,88,40.75,85.44,11.85,82.6,11.85,80s28.5-3,28.9-5.44S14.14,62.89,14.92,60.48s28,6.05,29.17,3.78S22.41,44.93,23.91,42.87,48.67,57.29,50.48,55.48,35.79,30.42,37.87,28.91,57,50.26,59.26,49.09,53,20.72,55.48,19.92,67,46.15,69.56,45.75,72.4,16.85,75,16.85s3,28.5,5.44,28.9S92.11,19.14,94.52,19.92s-6,28-3.78,29.17,19.33-21.68,21.39-20.18S97.71,53.67,99.52,55.48s25.06-14.69,26.57-12.61S104.74,62,105.91,64.26s28.37-6.23,29.17-3.78S108.85,72,109.25,74.56,138.15,77.4,138.15,80Z"/><path class="cls-2" d="M138.15,80c0,2.6-28.5,3-28.9,5.44s26.61,11.67,25.83,14.08-28-6-29.17-3.78,21.68,19.33,20.18,21.39-24.76-14.42-26.57-12.61,14.69,25.06,12.61,26.57S93,109.74,90.74,110.91s6.23,28.37,3.78,29.17S83,113.85,80.44,114.25s-2.84,28.9-5.44,28.9-3-28.5-5.44-28.9-11.67,26.61-14.08,25.83,6.05-28,3.78-29.17-19.33,21.68-21.39,20.18,14.42-24.76,12.61-26.57-25.06,14.69-26.57,12.61S45.26,98,44.09,95.74,15.72,102,14.92,99.52,41.15,88,40.75,85.44,11.85,82.6,11.85,80s28.5-3,28.9-5.44S14.14,62.89,14.92,60.48s28,6.05,29.17,3.78S22.41,44.93,23.91,42.87,48.67,57.29,50.48,55.48,35.79,30.42,37.87,28.91,57,50.26,59.26,49.09,53,20.72,55.48,19.92,67,46.15,69.56,45.75,72.4,16.85,75,16.85s3,28.5,5.44,28.9S92.11,19.14,94.52,19.92s-6,28-3.78,29.17,19.33-21.68,21.39-20.18S97.71,53.67,99.52,55.48s25.06-14.69,26.57-12.61S104.74,62,105.91,64.26s28.37-6.23,29.17-3.78S108.85,72,109.25,74.56,138.15,77.4,138.15,80Z"/><circle class="cls-5" cx="75" cy="80" r="44.4" transform="translate(-34.6 76.46) rotate(-45)"/><circle class="cls-5" cx="75" cy="80" r="38.15" transform="translate(-34.6 76.46) rotate(-45)"/><path class="cls-1" d="M138.15,80c0,2.6-28.5,3-28.9,5.44s26.61,11.67,25.83,14.08-28-6-29.17-3.78,21.68,19.33,20.18,21.39-24.76-14.42-26.57-12.61,14.69,25.06,12.61,26.57S93,109.74,90.74,110.91s6.23,28.37,3.78,29.17S83,113.85,80.44,114.25s-2.84,28.9-5.44,28.9-3-28.5-5.44-28.9-11.67,26.61-14.08,25.83,6.05-28,3.78-29.17-19.33,21.68-21.39,20.18,14.42-24.76,12.61-26.57-25.06,14.69-26.57,12.61S45.26,98,44.09,95.74,15.72,102,14.92,99.52,41.15,88,40.75,85.44,11.85,82.6,11.85,80s28.5-3,28.9-5.44S14.14,62.89,14.92,60.48s28,6.05,29.17,3.78S22.41,44.93,23.91,42.87,48.67,57.29,50.48,55.48,35.79,30.42,37.87,28.91,57,50.26,59.26,49.09,53,20.72,55.48,19.92,67,46.15,69.56,45.75,72.4,16.85,75,16.85s3,28.5,5.44,28.9S92.11,19.14,94.52,19.92s-6,28-3.78,29.17,19.33-21.68,21.39-20.18S97.71,53.67,99.52,55.48s25.06-14.69,26.57-12.61S104.74,62,105.91,64.26s28.37-6.23,29.17-3.78S108.85,72,109.25,74.56,138.15,77.4,138.15,80Z"/><path class="cls-6" d="M138.15,80c0,2.6-28.5,3-28.9,5.44s26.61,11.67,25.83,14.08-28-6-29.17-3.78,21.68,19.33,20.18,21.39-24.76-14.42-26.57-12.61,14.69,25.06,12.61,26.57S93,109.74,90.74,110.91s6.23,28.37,3.78,29.17S83,113.85,80.44,114.25s-2.84,28.9-5.44,28.9-3-28.5-5.44-28.9-11.67,26.61-14.08,25.83,6.05-28,3.78-29.17-19.33,21.68-21.39,20.18,14.42-24.76,12.61-26.57-25.06,14.69-26.57,12.61S45.26,98,44.09,95.74,15.72,102,14.92,99.52,41.15,88,40.75,85.44,11.85,82.6,11.85,80s28.5-3,28.9-5.44S14.14,62.89,14.92,60.48s28,6.05,29.17,3.78S22.41,44.93,23.91,42.87,48.67,57.29,50.48,55.48,35.79,30.42,37.87,28.91,57,50.26,59.26,49.09,53,20.72,55.48,19.92,67,46.15,69.56,45.75,72.4,16.85,75,16.85s3,28.5,5.44,28.9S92.11,19.14,94.52,19.92s-6,28-3.78,29.17,19.33-21.68,21.39-20.18S97.71,53.67,99.52,55.48s25.06-14.69,26.57-12.61S104.74,62,105.91,64.26s28.37-6.23,29.17-3.78S108.85,72,109.25,74.56,138.15,77.4,138.15,80Z"/><circle class="cls-1" cx="75" cy="80" r="44.4" transform="translate(-34.6 76.46) rotate(-45)"/><circle class="cls-3" cx="75" cy="80" r="38.15" transform="translate(-34.6 76.46) rotate(-45)"/><path class="cls-4" d="M138.15,80c0,2.6-28.5,3-28.9,5.44s26.61,11.67,25.83,14.08-28-6-29.17-3.78,21.68,19.33,20.18,21.39-24.76-14.42-26.57-12.61,14.69,25.06,12.61,26.57S93,109.74,90.74,110.91s6.23,28.37,3.78,29.17S83,113.85,80.44,114.25s-2.84,28.9-5.44,28.9-3-28.5-5.44-28.9-11.67,26.61-14.08,25.83,6.05-28,3.78-29.17-19.33,21.68-21.39,20.18,14.42-24.76,12.61-26.57-25.06,14.69-26.57,12.61S45.26,98,44.09,95.74,15.72,102,14.92,99.52,41.15,88,40.75,85.44,11.85,82.6,11.85,80s28.5-3,28.9-5.44S14.14,62.89,14.92,60.48s28,6.05,29.17,3.78S22.41,44.93,23.91,42.87,48.67,57.29,50.48,55.48,35.79,30.42,37.87,28.91,57,50.26,59.26,49.09,53,20.72,55.48,19.92,67,46.15,69.56,45.75,72.4,16.85,75,16.85s3,28.5,5.44,28.9S92.11,19.14,94.52,19.92s-6,28-3.78,29.17,19.33-21.68,21.39-20.18S97.71,53.67,99.52,55.48s25.06-14.69,26.57-12.61S104.74,62,105.91,64.26s28.37-6.23,29.17-3.78S108.85,72,109.25,74.56,138.15,77.4,138.15,80Z"/><path class="cls-7" d="M138.15,80c0,2.6-28.5,3-28.9,5.44s26.61,11.67,25.83,14.08-28-6-29.17-3.78,21.68,19.33,20.18,21.39-24.76-14.42-26.57-12.61,14.69,25.06,12.61,26.57S93,109.74,90.74,110.91s6.23,28.37,3.78,29.17S83,113.85,80.44,114.25s-2.84,28.9-5.44,28.9-3-28.5-5.44-28.9-11.67,26.61-14.08,25.83,6.05-28,3.78-29.17-19.33,21.68-21.39,20.18,14.42-24.76,12.61-26.57-25.06,14.69-26.57,12.61S45.26,98,44.09,95.74,15.72,102,14.92,99.52,41.15,88,40.75,85.44,11.85,82.6,11.85,80s28.5-3,28.9-5.44S14.14,62.89,14.92,60.48s28,6.05,29.17,3.78S22.41,44.93,23.91,42.87,48.67,57.29,50.48,55.48,35.79,30.42,37.87,28.91,57,50.26,59.26,49.09,53,20.72,55.48,19.92,67,46.15,69.56,45.75,72.4,16.85,75,16.85s3,28.5,5.44,28.9S92.11,19.14,94.52,19.92s-6,28-3.78,29.17,19.33-21.68,21.39-20.18S97.71,53.67,99.52,55.48s25.06-14.69,26.57-12.61S104.74,62,105.91,64.26s28.37-6.23,29.17-3.78S108.85,72,109.25,74.56,138.15,77.4,138.15,80Z"/><path class="cls-4" d="M138.15,80c0,2.6-28.5,3-28.9,5.44s26.61,11.67,25.83,14.08-28-6-29.17-3.78,21.68,19.33,20.18,21.39-24.76-14.42-26.57-12.61,14.69,25.06,12.61,26.57S93,109.74,90.74,110.91s6.23,28.37,3.78,29.17S83,113.85,80.44,114.25s-2.84,28.9-5.44,28.9-3-28.5-5.44-28.9-11.67,26.61-14.08,25.83,6.05-28,3.78-29.17-19.33,21.68-21.39,20.18,14.42-24.76,12.61-26.57-25.06,14.69-26.57,12.61S45.26,98,44.09,95.74,15.72,102,14.92,99.52,41.15,88,40.75,85.44,11.85,82.6,11.85,80s28.5-3,28.9-5.44S14.14,62.89,14.92,60.48s28,6.05,29.17,3.78S22.41,44.93,23.91,42.87,48.67,57.29,50.48,55.48,35.79,30.42,37.87,28.91,57,50.26,59.26,49.09,53,20.72,55.48,19.92,67,46.15,69.56,45.75,72.4,16.85,75,16.85s3,28.5,5.44,28.9S92.11,19.14,94.52,19.92s-6,28-3.78,29.17,19.33-21.68,21.39-20.18S97.71,53.67,99.52,55.48s25.06-14.69,26.57-12.61S104.74,62,105.91,64.26s28.37-6.23,29.17-3.78S108.85,72,109.25,74.56,138.15,77.4,138.15,80Z"/><path class="cls-8" d="M138.15,80c0,2.6-28.5,3-28.9,5.44s26.61,11.67,25.83,14.08-28-6-29.17-3.78,21.68,19.33,20.18,21.39-24.76-14.42-26.57-12.61,14.69,25.06,12.61,26.57S93,109.74,90.74,110.91s6.23,28.37,3.78,29.17S83,113.85,80.44,114.25s-2.84,28.9-5.44,28.9-3-28.5-5.44-28.9-11.67,26.61-14.08,25.83,6.05-28,3.78-29.17-19.33,21.68-21.39,20.18,14.42-24.76,12.61-26.57-25.06,14.69-26.57,12.61S45.26,98,44.09,95.74,15.72,102,14.92,99.52,41.15,88,40.75,85.44,11.85,82.6,11.85,80s28.5-3,28.9-5.44S14.14,62.89,14.92,60.48s28,6.05,29.17,3.78S22.41,44.93,23.91,42.87,48.67,57.29,50.48,55.48,35.79,30.42,37.87,28.91,57,50.26,59.26,49.09,53,20.72,55.48,19.92,67,46.15,69.56,45.75,72.4,16.85,75,16.85s3,28.5,5.44,28.9S92.11,19.14,94.52,19.92s-6,28-3.78,29.17,19.33-21.68,21.39-20.18S97.71,53.67,99.52,55.48s25.06-14.69,26.57-12.61S104.74,62,105.91,64.26s28.37-6.23,29.17-3.78S108.85,72,109.25,74.56,138.15,77.4,138.15,80Z"/><circle class="cls-4" cx="75" cy="80" r="44.4" transform="translate(-34.6 76.46) rotate(-45)"/><circle class="cls-9" cx="75" cy="80" r="38.15" transform="translate(-34.6 76.46) rotate(-45)"/></svg>