<svg xmlns="http://www.w3.org/2000/svg" viewBox="0 0 150 160"><defs><style>.cls-1{isolation:isolate;}.cls-2{fill:#fff;stroke:#fff;stroke-miterlimit:10;stroke-width:5px;}.cls-3{fill:#104e59;}.cls-4{fill:#9fc0c2;}.cls-5,.cls-6{opacity:0.1;}.cls-10,.cls-5,.cls-6{mix-blend-mode:multiply;}.cls-7{fill:#0b4049;}.cls-8{fill:#115e6a;}.cls-9{fill:#0e4f59;}.cls-10{opacity:0.05;}.cls-11{fill:#09434c;}.cls-12{fill:#33858a;}.cls-13{fill:#e08b8e;}.cls-14{fill:#348a90;}.cls-15{fill:#0a363e;}.cls-16{fill:#04272c;}</style></defs><g class="cls-1"><g id="साँप"><path class="cls-2" d="M132.54,131.7c-.47-6.12-9-5.72-7.23-11.79,0-6.11-10.61-5.42-9.47-10-9.31-36.7-47.23,12.43-6.4-64.06h0A35,35,0,0,0,110.85,37v0c1.5-16.6-14.63-26.57-29.78-25.76C66,10.67,50.05,20.39,51.53,37v0A35.21,35.21,0,0,0,53,45.91h0C57.44,61,73.44,74.61,69.41,93.12c-8.92.74-19.1,4.23-22.63,10.13C19.63,96.51,25.24,66,31.87,67.29c-.13,0,.12-.06,0,0h0c-22.66,13.18-16,35,1,44.08,7.39,2.86,7.93,2.09,3.91,8.55,1.8,5.74-6.4,5.92-7.1,11.14h0C32,152.46,65.19,147,81,148.77h.15C95.6,147.53,130.81,151.45,132.54,131.7Z"/><path class="cls-3" d="M55.37,136.8s-.5-18-18.48-23.8S6.11,82,32.22,67.09c0,0-18.42,21,4.68,31.51s25.79,12.92,34.45,32.23Z"/><path class="cls-4" d="M20.21,88C19.51,75,29.94,68.47,31.87,67.29c-25.64,14.89-12.88,40,5,45.71a25.49,25.49,0,0,1,14.25,10.84c1.66-1.44,2.36-3.16,1.58-5.23C48.52,107.6,21.48,111.61,20.21,88Z"/><g class="cls-5"><path d="M48.05,113.59c-1,.59-2.46,1.54-4.31,2.66.4.26.79.54,1.17.81A31.41,31.41,0,0,0,48.64,114Z"/><path d="M39.46,114a33.94,33.94,0,0,0,3.8-2.7l-.83-.34c-1.11.59-2.69,1.44-4.6,2.41C38.39,113.53,38.94,113.73,39.46,114Z"/><path d="M49.16,121.11c1.36-1.08,2.5-2.09,3.37-2.93a6.55,6.55,0,0,0-.46-.87c-1,.73-2.32,1.67-3.86,2.72C48.54,120.38,48.86,120.74,49.16,121.11Z"/><path d="M32.92,111.37a40.39,40.39,0,0,0,4.4-2.5l-1.1-.46c-1.29.58-3,1.32-4.89,2.1C31.85,110.82,32.38,111.1,32.92,111.37Z"/><path d="M23.59,75.22a.35.35,0,0,0,.05-.08c0-.11-.4-.17-1.11-.22q-.32.38-.6.75A5.43,5.43,0,0,0,23.59,75.22Z"/><path d="M20.69,91.88c-.87.13-1.85.27-2.92.4.09.47.19.93.31,1.39,1.05-.2,2-.43,2.86-.65C20.85,92.65,20.77,92.27,20.69,91.88Z"/><path d="M23.27,98.59c-.16-.27-.32-.54-.47-.82-.84.18-1.83.4-3,.63.19.39.4.78.62,1.16C21.55,99.23,22.5,98.9,23.27,98.59Z"/><path d="M18.59,81.67c.84-.09,1.6-.19,2.27-.3.1-.36.2-.71.31-1.06l-2.05,0C18.93,80.79,18.75,81.23,18.59,81.67Z"/><path d="M27.66,108a43,43,0,0,0,3.92-1.84l-1.08-.63c-1.14.41-2.52.91-4.08,1.42C26.83,107.3,27.24,107.66,27.66,108Z"/><path d="M17.55,86q-.09.72-.12,1.44c1-.13,1.93-.28,2.75-.44,0-.41,0-.81,0-1.2Z"/><path d="M22.76,103c.29.37.58.73.89,1.09,1.25-.46,2.32-.92,3.17-1.32-.26-.23-.5-.47-.75-.71C25.15,102.36,24,102.68,22.76,103Z"/></g><path class="cls-6" d="M70.8,129.6c-7.44-16.43-10.66-20.09-27.87-28.22a14.61,14.61,0,0,0-1.3,6.59c0,3-5,4.13-6.5,4.4.58.23,1.16.44,1.76.63,18,5.76,18.48,23.8,18.48,23.8l14.49-5.41Z"/><path class="cls-3" d="M81.25,117.89s50.84-1,51.35,14.47-32.45,16.41-51.83,16.41h.6c-19.39,0-52.34-.92-51.83-16.41S81.25,117.89,81.25,117.89Z"/><path class="cls-7" d="M81.34,137.42h0Z"/><path class="cls-7" d="M127.44,125.14c-13-7.91-46.19-7.25-46.19-7.25s-33.46-.66-46.55,7.27c2.25,11.48,29.7,12.25,46.37,12.26S125.21,136.64,127.44,125.14Z"/><path class="cls-4" d="M81.37,148.77h0Z"/><path class="cls-4" d="M81.07,145.25h0c-18.44,0-48.77-.91-51.35-14.19a6.9,6.9,0,0,0-.18,1.3c-.5,15.41,32.11,16.4,51.53,16.41s52-1,51.53-16.41a6.9,6.9,0,0,0-.18-1.3C129.85,144.34,99.51,145.24,81.07,145.25Z"/><path class="cls-8" d="M81.22,108.24s43.74-.87,44.17,12.45-27.9,14.12-44.58,14.12h.52c-16.68,0-45-.8-44.59-14.12S81.22,108.24,81.22,108.24Z"/><path class="cls-3" d="M81.22,108.24s-24.35-.48-37,4.75c3,12.22,24,11.86,36.87,11.86s33.92.36,36.87-11.88C105.34,107.76,81.22,108.24,81.22,108.24Z"/><path class="cls-4" d="M81.33,134.81h0Z"/><path class="cls-4" d="M36.74,120.69c-.43,13.25,27.62,14.11,44.33,14.12s44.76-.87,44.32-14.12a5.85,5.85,0,0,0-.33-1.78c-3.75,9.22-26,15.08-55.31,12.52-29.88-2.6-32.64-12-32.73-12.33A6,6,0,0,0,36.74,120.69Z"/><path class="cls-8" d="M81.19,92.53s34.47-1,34.81,14.78-22,15.3-35.13,15.3h.4c-13.14,0-35.48.51-35.14-15.3S81.19,92.53,81.19,92.53Z"/><path class="cls-9" d="M91.69,94s-.44,3.71,6.3,4.9-.86,5.34-17.22,5.34-24-4.15-17.22-5.34,6.3-4.9,6.3-4.9Z"/><path class="cls-4" d="M81.07,122.61c13.17,0,35.28.42,34.93-15.3a9.71,9.71,0,0,0-.1-1.22C105.25,120.38,88,120.6,88,120.6l-13.93-.47a123.49,123.49,0,0,1-16.35-4c-9.49-3-11.61-8.85-11.61-8.85C45.79,123,67.9,122.61,81.07,122.61Z"/><g class="cls-10"><path d="M90.34,122.51l1.39-.06c0-.77,0-1.52,0-2.24-.5.08-1,.14-1.36.19C90.38,121.08,90.35,121.79,90.34,122.51Z"/><path d="M109.42,118.43v.18a14.77,14.77,0,0,0,1.39-.86c0-2.41.17-4.63.34-6.48-.43.38-.86.74-1.3,1.09A44.18,44.18,0,0,0,109.42,118.43Z"/><path d="M97.54,118.84c-.06.88-.09,1.8-.09,2.74,0,.14,0,.27,0,.4.46,0,.92-.11,1.37-.18v-.22c0-1.11,0-2.18.08-3.2C98.44,118.55,98,118.7,97.54,118.84Z"/><path d="M47.91,114.26c.06-1.4.15-2.71.25-3.87A13.12,13.12,0,0,1,46.44,108c-.08.37-.16.77-.23,1.19A11.55,11.55,0,0,0,47.91,114.26Z"/><path d="M114,108.38a43.53,43.53,0,0,0-.9,7.33,11.73,11.73,0,0,0,2.87-8.4,9.71,9.71,0,0,0-.1-1.22.76.76,0,0,1-.08.11,39.66,39.66,0,0,0-1.24,7.46c.14-2.7.39-5,.54-6.56C114.77,107.54,114.4,108,114,108.38Z"/><path d="M104.19,116.07q-.18,1.84-.18,3.9c0,.26,0,.52,0,.77.46-.12.92-.26,1.37-.41V120c0-1.65.06-3.22.15-4.65Q104.87,115.71,104.19,116.07Z"/><path d="M53.9,114.64a42.07,42.07,0,0,0-.32,4.43c.44.21.9.42,1.37.61,0-1.59.07-3.1.16-4.49C54.69,115,54.29,114.83,53.9,114.64Z"/><path d="M59.47,121.09l1.38.29c0-1.5.06-2.93.14-4.26l-1.25-.36C59.59,118.1,59.49,119.56,59.47,121.09Z"/><path d="M49.26,116a11.61,11.61,0,0,0,1.32,1.2c0-1.58.11-3.08.21-4.43-.4-.29-.76-.59-1.1-.88C49.5,113.12,49.34,114.5,49.26,116Z"/><path d="M67,118.68c-.11,1.11-.19,2.29-.21,3.52l1.37.11c0-1.16.06-2.28.12-3.33Z"/></g><path class="cls-6" d="M69.76,108s.2,11.63-7,13.75a115.44,115.44,0,0,0,17.29.89l.12,0S69.76,118.33,69.76,108Z"/><path class="cls-6" d="M92.81,108c0,10.36-10.45,14.61-10.45,14.61l.12,0a110.78,110.78,0,0,0,17.15-.93C92.61,119.44,92.81,108,92.81,108Z"/><path class="cls-9" d="M91.08,90.8c1.49-23,15.88-32.51,19-47.55s-2.67-31.66-28.91-31.66-32,16.62-28.91,31.66S69.22,67.85,70.7,90.8Z"/><path class="cls-8" d="M93.12,59.57a103.22,103.22,0,0,0,1.17-18.33c-.9-31.42-13.1-29.65-13.1-29.65-5.91,0-17.09,4.3-12.84,42.79,0,0,2.93,19.79,2.12,30.78-1.48,20.11-3.2,39.41,12.81,37.29,11.64-1.55,8.94-16.15,8.16-34.4A153.88,153.88,0,0,1,93.12,59.57Z"/><path class="cls-4" d="M80.87,19.54c-3.91.16-9.68,9-7.45,34.47a255.48,255.48,0,0,1,.66,31.15c-.51,10.45-1,24.33,0,35,2.08,2,5,2.87,9.19,2.32A9.64,9.64,0,0,0,88,120.6c.67-9.9,0-22.67-.25-32.55-.32-11.46.18-21.85.37-28.12.22-7,.55-13.29.76-19.42.47-13.6-3.68-21-7.5-21Z"/><g class="cls-10"><path d="M74.13,83.9c0,.42,0,.83,0,1.24a23.81,23.81,0,0,0,7.29,1.16,24.2,24.2,0,0,0,6.34-.87c0-.47,0-.93,0-1.39a44.65,44.65,0,0,1-6.32.49A46.71,46.71,0,0,1,74.13,83.9Z"/><path d="M73.83,90.66c0,.39,0,.78,0,1.18a23.44,23.44,0,0,0,14.12.33c0-.46,0-.91,0-1.36a44.75,44.75,0,0,1-6.49.52A48.73,48.73,0,0,1,73.83,90.66Z"/><path d="M74.29,77.13c0,.43,0,.85,0,1.28a23.36,23.36,0,0,0,13.4.23c0-.47,0-.94,0-1.4a44.5,44.5,0,0,1-6.31.49A47,47,0,0,1,74.29,77.13Z"/><path d="M73.48,104.2v1.13a23.41,23.41,0,0,0,14.79.33c0-.44,0-.87,0-1.31a46.61,46.61,0,0,1-6.88.58A50.69,50.69,0,0,1,73.48,104.2Z"/><path d="M73.55,111c0,.38,0,.77,0,1.15a23.45,23.45,0,0,0,7.78,1.34,24,24,0,0,0,6.93-1c0-.44,0-.87,0-1.31a47.13,47.13,0,0,1-6.94.58A50.41,50.41,0,0,1,73.55,111Z"/><path d="M74.24,70.32c0,.43,0,.86,0,1.28a23.27,23.27,0,0,0,13.51.21l0-1.38a45.44,45.44,0,0,1-6.43.51A47.26,47.26,0,0,1,74.24,70.32Z"/><path d="M73.6,97.42l0,1.14a23.53,23.53,0,0,0,7.8,1.34,23.87,23.87,0,0,0,6.74-1c0-.45,0-.89,0-1.33a46.38,46.38,0,0,1-6.7.55A49.92,49.92,0,0,1,73.6,97.42Z"/><path d="M72.92,42.93v1a23.41,23.41,0,0,0,8.45,1.59,23.88,23.88,0,0,0,7.39-1.2c0-.41,0-.83,0-1.24a48.17,48.17,0,0,1-7.44.66A53.9,53.9,0,0,1,72.92,42.93Z"/><path d="M73.23,36.18l-.09,1a23.48,23.48,0,0,0,8.23,1.5,23.66,23.66,0,0,0,7.56-1.26c0-.4,0-.8,0-1.19a48.56,48.56,0,0,1-7.52.67A51.8,51.8,0,0,1,73.23,36.18Z"/><path d="M74,63.49c0,.42,0,.83.06,1.26A23.45,23.45,0,0,0,88,65c0-.47,0-.92,0-1.36a46.14,46.14,0,0,1-6.65.54A47.51,47.51,0,0,1,74,63.49Z"/><path d="M88.09,119.31c0-.45,0-.9.07-1.35a45.94,45.94,0,0,1-6.79.56,48.51,48.51,0,0,1-7.48-.66c0,.42.07.83.11,1.24a23.47,23.47,0,0,0,14.09.21Z"/><path d="M74.25,29.54c-.09.38-.18.78-.26,1.19a23.42,23.42,0,0,0,14.37.12c-.07-.43-.14-.85-.23-1.26a45.61,45.61,0,0,1-6.76.56A47.14,47.14,0,0,1,74.25,29.54Z"/><path d="M73.63,56.63c0,.39.05.79.08,1.19a23.38,23.38,0,0,0,14.49.27c0-.44,0-.89,0-1.32a46.76,46.76,0,0,1-6.88.57A48.41,48.41,0,0,1,73.63,56.63Z"/><path d="M73.11,49.76c0,.35,0,.71.07,1.07a23.43,23.43,0,0,0,15.29.38c0-.43,0-.86,0-1.28a47.34,47.34,0,0,1-7.15.61A52.16,52.16,0,0,1,73.11,49.76Z"/></g><path class="cls-6" d="M81.19,11.59c-26.24,0-32,16.62-28.91,31.66,1,5,3.26,9.38,5.81,13.86h0s-1.85-15.56,4-21.43,5.73-1.39,18.43-1.3h0C79,37.08,74.91,39,77.12,44.87a6.17,6.17,0,0,1,1.58-4.42s1.5,3.07,3.81,3.75c0,0-2.5-4-.77-6.29a17.41,17.41,0,0,0,2.09-3.61c10.25-.58,10.59-4,16,1.38,5.83,5.87,4.5,21.16,4.5,21.16,2.57-4.38,4.79-8.7,5.81-13.59C113.23,28.21,107.43,11.59,81.19,11.59Z"/><path class="cls-6" d="M110.1,43.25c3.13-15-2.67-31.66-28.91-31.66s-32,16.62-28.91,31.66c1,5,3.26,9.38,5.81,13.86h0s-1.85-22.33,4-28.21,5.72,9.41,18.85,9.41S94,23,99.79,28.9s4.5,27.94,4.5,27.94C106.86,52.46,109.08,48.14,110.1,43.25Z"/><path class="cls-11" d="M110.49,34.25c-.08-.46-.16-.91-.26-1.36s-.21-.89-.34-1.34c-.19-.66-.4-1.31-.64-1.95a23.34,23.34,0,0,0-1.13-2.5C104.24,19.82,96,14.56,81.19,14.56c-13.53,0-21.63,4.42-25.87,10.77a21,21,0,0,0-2.19,4.27c-.24.64-.46,1.29-.64,1.95-.13.45-.24.89-.34,1.34s-.18.9-.26,1.36-.14.91-.19,1.38c-.08.63-.12,1.27-.15,1.92a35.71,35.71,0,0,0,.73,5.7c1,4.88,3.16,9.18,5.63,13.54-.45-5.21-1.56-11.57-1.17-16.79C57.51,29.5,69,24.68,69,24.68H93.35S104.86,29.5,105.64,40c.38,5.12-.68,11.34-1.15,16.5a44.33,44.33,0,0,0,5.61-13.25,36.89,36.89,0,0,0,.73-5.7q0-1-.15-1.92C110.63,35.16,110.56,34.7,110.49,34.25Z"/><path class="cls-12" d="M110.84,34.75c0-.71-.08-1.41-.16-2.1-.05-.46-.12-.92-.19-1.38s-.16-.91-.26-1.35-.21-.9-.34-1.34c-.19-.66-.4-1.31-.64-1.95a22.48,22.48,0,0,0-1.13-2.5C104.24,16.85,96,11.59,81.19,11.59c-13.53,0-21.63,4.42-25.87,10.76a21.35,21.35,0,0,0-2.19,4.28c-.24.64-.46,1.29-.64,1.95-.13.44-.24.89-.34,1.34s-.18.9-.26,1.35-.14.92-.19,1.38c-.08.69-.14,1.39-.16,2.1a34.48,34.48,0,0,0,.74,8.5c1,5,3.26,9.38,5.81,13.86C58,51.49,56.27,43.41,56.74,37,57.51,26.53,69,21.71,69,21.71H93.35S104.86,26.53,105.64,37c.46,6.29-1.24,14.21-1.35,19.82,2.57-4.38,4.79-8.7,5.81-13.59A34.48,34.48,0,0,0,110.84,34.75Z"/><path class="cls-3" d="M92.59,20.25c0,4.78-2,8.65-11.4,8.65S69.79,25,69.79,20.25c0-3.1-2.16-5.39,2.67-6.92a28.51,28.51,0,0,1,8.73-1,33.5,33.5,0,0,1,8.75.83C95.11,14.63,92.59,17,92.59,20.25Z"/><path class="cls-13" d="M77.75,26.23s2.75,2.31,1.28,5-5.61,4.62-3.39,10.49a6.19,6.19,0,0,1,1.58-4.43S78.71,40.37,81,41c0,0-2.5-4-.77-6.28s4.24-3.82,3-9Z"/><path class="cls-6" d="M80.25,34.76c1.41-1.85,3.32-3.22,3.31-6.46h0v-.13s0-.08,0-.13,0-.38,0-.58a.76.76,0,0,0,0-.15c0-.23-.06-.47-.1-.71a.09.09,0,0,0,0-.05h0c0-.25-.1-.52-.17-.8l-5.48.48a5.7,5.7,0,0,1,1.44,2,15.21,15.21,0,0,1,2.13-.12c0,1.51-.28,3.71-1.52,4.69a8.57,8.57,0,0,0-2.58,4.47S78.71,40.37,81,41C81,41,78.52,37,80.25,34.76Z"/><path class="cls-12" d="M98.27,24.67c0-3.23-3.16-11.13-8.33-12.62a34,34,0,0,0-8.75-.82,28.51,28.51,0,0,0-8.73,1c-4.83,1.53-8.35,9.33-8.35,12.43,2.37-.21,3.26,1.44,8.16,3a19.79,19.79,0,0,0,5.88,0h.06a15.77,15.77,0,0,1,6,0h.06a19.57,19.57,0,0,0,5.86,0C95,26.11,94.92,24.56,98.27,24.67Z"/><path class="cls-14" d="M51.54,36.57c0-.7.08-1.4.16-2.09,0-.46.11-.92.19-1.38s.16-.91.26-1.36.21-.89.34-1.33c.18-.66.4-1.31.64-2a21.54,21.54,0,0,1,2.19-4.27c4.24-6.34,12.34-10.76,25.87-10.76,14.76,0,23,5.26,26.93,12.54a23.18,23.18,0,0,1,1.13,2.49c.24.65.45,1.3.64,2,.13.44.24.89.34,1.33s.18.91.26,1.36.14.92.19,1.38c.08.69.13,1.39.16,2.09,0,.14,0,.28,0,.42,0-.75,0-1.5,0-2.24s-.08-1.41-.16-2.1c-.05-.46-.12-.92-.19-1.38s-.16-.91-.26-1.35-.21-.9-.34-1.34c-.19-.66-.4-1.31-.64-1.95a22.48,22.48,0,0,0-1.13-2.5C104.24,16.85,96,11.59,81.19,11.59c-13.53,0-21.63,4.42-25.87,10.76a21.35,21.35,0,0,0-2.19,4.28c-.24.64-.46,1.29-.64,1.95-.13.44-.24.89-.34,1.34s-.18.9-.26,1.35-.14.92-.19,1.38c-.08.69-.14,1.39-.16,2.1s0,1.49,0,2.24C51.53,36.85,51.53,36.71,51.54,36.57Z"/><path class="cls-15" d="M74.9,18.57a2.1,2.1,0,1,1-2.1-2A2.06,2.06,0,0,1,74.9,18.57Z"/><path class="cls-16" d="M74.64,17.6a1.51,1.51,0,0,1,.08.48,1.92,1.92,0,0,1-3.84,0A1.51,1.51,0,0,1,71,17.6a1.9,1.9,0,0,0-.26,1,2.1,2.1,0,0,0,4.2,0A1.9,1.9,0,0,0,74.64,17.6Z"/><ellipse class="cls-8" cx="72.21" cy="17.98" rx="0.76" ry="0.73"/><path class="cls-15" d="M91.81,18.57a2.1,2.1,0,1,1-2.1-2A2.06,2.06,0,0,1,91.81,18.57Z"/><path class="cls-16" d="M91.55,17.6a1.51,1.51,0,0,1,.08.48,1.92,1.92,0,0,1-3.84,0,1.51,1.51,0,0,1,.08-.48,1.9,1.9,0,0,0-.26,1,2.1,2.1,0,0,0,4.2,0A1.9,1.9,0,0,0,91.55,17.6Z"/><ellipse class="cls-8" cx="89.12" cy="17.98" rx="0.76" ry="0.73"/><path class="cls-3" d="M75.47,24.18c-.16.15.43.31.87.81s.58,1.15.75,1,.11-.91-.34-1.41A1.16,1.16,0,0,0,75.47,24.18Z"/><path class="cls-3" d="M86.92,24.18a1.16,1.16,0,0,0-1.28.4c-.44.5-.5,1.26-.33,1.41s.3-.5.74-1S87.09,24.33,86.92,24.18Z"/><g class="cls-5"><path d="M92.83,134.58l1.67-.09c.06-1.05.14-2.05.24-3l-1.5.13C93.07,132.56,92.93,133.54,92.83,134.58Z"/><path d="M116.54,130.76c.59-.23,1.17-.47,1.72-.73.1-1.79.27-3.4.43-4.76-.47.27-1,.53-1.47.79A34.15,34.15,0,0,0,116.54,130.76Z"/><path d="M101.62,133.93l1.7-.19c.06-1.23.15-2.38.26-3.43-.51.09-1,.19-1.54.27C101.86,131.62,101.71,132.74,101.62,133.93Z"/><path d="M39.84,127.47c.13-1.68.31-3.17.46-4.38-.34-.27-.65-.53-.92-.78-.13.39-.25.81-.37,1.27q.09-.78.18-1.44a10.37,10.37,0,0,1-.81-.84,29.69,29.69,0,0,0-.86,3.19A9.24,9.24,0,0,0,39.84,127.47Z"/><path d="M125,123.62c.17-1.43.33-2.56.39-3.28a8.11,8.11,0,0,0-.14-.86c-.43.33-1.55,3.2-2.14,7.23A8.66,8.66,0,0,0,125,123.62Z"/><path d="M123,126.8c.21-2.36.49-4.3.63-5.52a12.79,12.79,0,0,1-1.24,1.33,32.39,32.39,0,0,0-1.14,5.7A12.35,12.35,0,0,0,123,126.8Z"/><path d="M109.76,132.69c.59-.12,1.16-.25,1.72-.38.07-1.47.18-2.84.31-4.06-.5.16-1,.32-1.54.47A36.81,36.81,0,0,0,109.76,132.69Z"/><path d="M47,131.26c.52.18,1.06.34,1.61.5.09-1.56.23-3,.37-4.26L47.7,127A35.2,35.2,0,0,0,47,131.26Z"/><path d="M41.63,128.81q.72.45,1.53.87c.11-1.68.27-3.2.43-4.48l-1.13-.64A32.71,32.71,0,0,0,41.63,128.81Z"/><path d="M54.34,133.07c.54.1,1.09.19,1.64.27.08-1.39.2-2.69.32-3.84L55,129.2A34.26,34.26,0,0,0,54.34,133.07Z"/><path d="M74.17,134.74l1.63,0c.07-1,.16-2,.26-2.91l-1.41-.07C74.46,132.69,74.3,133.68,74.17,134.74Z"/><path d="M64,130.81a32.82,32.82,0,0,0-.54,3.4l1.63.13c.08-1.21.18-2.34.29-3.35Z"/><path d="M84.09,134.79h1.63c.07-1,.15-1.92.24-2.78l-1.44,0C84.35,132.88,84.2,133.81,84.09,134.79Z"/></g><g class="cls-5"><path d="M52.26,143.6l-1.61-.26a30.42,30.42,0,0,0-.62,3.42l1.89.32C52,145.83,52.13,144.66,52.26,143.6Z"/><path d="M61.27,144.61a30.4,30.4,0,0,0-.64,3.47l1.9.15c.09-1.27.22-2.45.35-3.5Z"/><path d="M42.16,141.36a30,30,0,0,0-.64,3.31c.6.2,1.21.39,1.84.58.09-1.24.21-2.39.34-3.43Z"/><path d="M33.23,140.33c.13-1.19.28-2.27.41-3.19-.37-.3-.73-.62-1.06-.94-.13.37-.27.78-.4,1.22.07-.52.14-1,.2-1.42-.31-.33-.6-.66-.87-1a22.42,22.42,0,0,0-.8,2.31A11.4,11.4,0,0,0,33.23,140.33Z"/><path d="M75.34,145.21l-1.6,0a32.8,32.8,0,0,0-.67,3.51l1.9,0C75.07,147.45,75.2,146.26,75.34,145.21Z"/><path d="M35.35,141.88q.81.51,1.71,1c.11-1.22.24-2.34.38-3.34-.47-.23-.93-.47-1.36-.72A28.48,28.48,0,0,0,35.35,141.88Z"/><path d="M130.21,139a9.33,9.33,0,0,0,2.36-5.65c0-.06,0-.1-.09-.1C132.13,133.28,131,135.58,130.21,139Z"/><path d="M105,147.76l2-.23c.08-1.28.19-2.48.32-3.57-.58.08-1.17.15-1.76.21A30.27,30.27,0,0,0,105,147.76Z"/><path d="M94.75,148.51l1.94-.1c.09-1.28.21-2.47.35-3.55l-1.69.09A32.93,32.93,0,0,0,94.75,148.51Z"/><path d="M84.58,148.76l1.91,0c.1-1.28.23-2.48.37-3.53l-1.61,0A33.21,33.21,0,0,0,84.58,148.76Z"/><path d="M130,139.31c.22-1.78.46-3.24.59-4.22a12.31,12.31,0,0,1-1.54,1.62,28.32,28.32,0,0,0-1.08,4.4A14.24,14.24,0,0,0,130,139.31Z"/><path d="M122.36,144.05c.69-.27,1.36-.56,2-.86.11-1.36.25-2.62.4-3.72-.56.28-1.15.54-1.76.79A29.56,29.56,0,0,0,122.36,144.05Z"/><path d="M114.45,146.31c.68-.14,1.34-.29,2-.45.08-1.29.2-2.51.33-3.61-.59.15-1.19.29-1.79.42A31.17,31.17,0,0,0,114.45,146.31Z"/></g><path class="cls-14" d="M80.77,14.56a41.26,41.26,0,0,0,11.9-1.66c-.49-.13-1-.25-1.51-.36a8,8,0,0,0-1.22-.49,34,34,0,0,0-8.75-.82,28.51,28.51,0,0,0-8.73,1l-.35.13c-1,.18-1.94.4-2.85.65A41.58,41.58,0,0,0,80.77,14.56Z"/><path class="cls-14" d="M53,45.9a53.8,53.8,0,0,0,5.13,11.21c0-.73-.05-1.5-.1-2.31A54.93,54.93,0,0,1,53,45.9Z"/><path class="cls-14" d="M104.78,50.77c.72-4.67,1.92-10.21,1.78-14.93-.18-5.8-3.92-9.94-7.26-12.49-3.52-.1-3.5,1.5-8.7,3a21.44,21.44,0,0,1-6.19,0h-.06a17.11,17.11,0,0,0-6.3,0H78a21.64,21.64,0,0,1-6.21,0c-5.19-1.56-6.2-3.25-8.69-3C59.74,25.9,56,30,55.82,35.84c-.14,4.71,1.06,10.24,1.78,14.9-.51-4.51-1.17-9.48-.86-13.72.43-5.81,4.15-9.88,7.39-12.36,2.35-.19,3.26,1.45,8.14,3a19.79,19.79,0,0,0,5.88,0h.06a15.77,15.77,0,0,1,6,0h.06a19.57,19.57,0,0,0,5.86,0c4.89-1.51,4.83-3.06,8.15-3,3.24,2.47,7,6.54,7.39,12.35C106,41.27,105.28,46.25,104.78,50.77Z"/><path class="cls-14" d="M104.41,54.56c-.06.79-.1,1.56-.12,2.28a51.39,51.39,0,0,0,5.15-11A53.43,53.43,0,0,1,104.41,54.56Z"/><path class="cls-6" d="M81.07,148.77h9.11l.67,0h.4l.65,0,.43,0,.63,0,.45,0,.62,0,.46,0,.61,0,.48,0,.6,0,.5,0,.58,0,.51,0,.58,0,.51,0,.57,0,.54,0,.54,0,.55,0,.54,0,.56-.05.53-.05.56,0,.52-.05.57-.06.51,0,.57-.06.5-.06.58-.07.49-.06.58-.07.48-.06.58-.08.47-.07.58-.08.47-.07.58-.1.45-.07.58-.1.44-.08.58-.1.43-.08.57-.11.43-.09.24-.05h0l.32-.07.42-.09.57-.13.4-.09.56-.14.39-.09.55-.15.38-.1.54-.15.38-.11.52-.15.37-.12.52-.16.35-.12.51-.17.34-.13.49-.18.34-.13.48-.19.32-.13.46-.2.32-.14.45-.21.31-.15.42-.21.3-.16.41-.22.29-.16.39-.23.27-.17.37-.24.27-.18.35-.25.25-.18c.12-.08.23-.17.34-.26a2.11,2.11,0,0,0,.23-.19l.32-.27.22-.19.29-.28c.07-.07.15-.14.21-.21a2.44,2.44,0,0,0,.27-.29l.2-.21a3.47,3.47,0,0,0,.25-.29l.18-.23a1.71,1.71,0,0,0,.11-.14.61.61,0,0,1,.07-.1l.05-.06.16-.23.15-.23.07-.11.14-.22c.06-.11.12-.22.17-.33l0,0,0-.06.09-.16.15-.34.12-.25c0-.12.09-.23.13-.35l.1-.27c0-.11.07-.24.1-.35s.06-.19.08-.28.06-.25.08-.38a2.61,2.61,0,0,0,.06-.27c0-.13,0-.27.06-.41s0-.17,0-.26l0-.45a1.94,1.94,0,0,1,0-.24v-.72c0-.22,0-.45-.06-.66s-.07-.43-.12-.64h0c-.54-2.38-2.35-4.32-5-5.92h0a26.2,26.2,0,0,0-2.54-1.33l0,0,.06-.18.09-.31c0-.08,0-.15.07-.23s0-.23.07-.34a1.74,1.74,0,0,0,0-.22c0-.12,0-.24,0-.36l0-.22c0-.13,0-.27,0-.4s0-.13,0-.2,0-.4,0-.61a4.91,4.91,0,0,0,0-.55l0-.17a.13.13,0,0,0,0-.06h0l-.06-.33a1.24,1.24,0,0,0,0-.16,4.91,4.91,0,0,0-.15-.51c-.91-2.53-3.55-4.46-7.12-5.94h0c-.83-.34-1.71-.66-2.63-1l0-.09c0-.08.05-.17.08-.26l.06-.2,0-.13a1.6,1.6,0,0,0,0-.21,2.33,2.33,0,0,0,.07-.25,1.24,1.24,0,0,1,0-.16l0-.17.06-.28,0-.18s0-.09,0-.14,0-.21,0-.32l0-.2a.31.31,0,0,1,0-.1l0-.37a1.49,1.49,0,0,0,0-.21v-.07c0-.14,0-.29,0-.43a1.48,1.48,0,0,0,0-.21v0q0-.34,0-.69t0-.63C115.19,97.15,101.65,94,91.69,93c-.09-1.61-.18-3.26-.25-4.94l0-.64c1.71-13.5,8-22.17,12.88-30.57h0l.2-.34h0c.1-.16.19-.32.28-.48h0c.13-.21.25-.42.37-.63l.25-.44c.08-.16.17-.32.26-.48l0-.08,0,0,.2-.37.19-.36.06-.1.33-.64,0-.07h0l0-.1c0-.08.09-.16.13-.24l.19-.38.11-.22.19-.39v0l.14-.28.06-.13.26-.56.12-.27.07-.15.09-.21a1.19,1.19,0,0,0,.08-.2l.13-.28c.06-.16.13-.33.2-.49l.1-.25,0-.11.21-.53c0-.11.07-.21.11-.32a1.18,1.18,0,0,0,.07-.2l.09-.25,0-.08c0-.11.08-.22.11-.33l.18-.54a.36.36,0,0,1,0-.11c0-.05,0-.1,0-.15l0-.06c.06-.19.11-.37.16-.56s.07-.21.1-.32a6445228320533.34,6445228320533.34,0,0,1,.14-.54v-.06l.08-.29c.07-.3.13-.6.2-.9l.18-.94c0-.08,0-.16,0-.23s0-.17.05-.25h0q.13-.82.24-1.65l0-.24c.07-.63.13-1.26.16-1.89,0-.08,0-.16,0-.24s0-.17,0-.26h0c0-.54,0-1.09,0-1.63v-.23c0-.63,0-1.26-.08-1.88,0-.08,0-.15,0-.23a25.54,25.54,0,0,0-1.15-5.87,1.42,1.42,0,0,0-.07-.22,21.07,21.07,0,0,0-1.79-4l-.12-.21-.26-.42-.15-.24c-.09-.13-.17-.26-.26-.38a2.2,2.2,0,0,0-.17-.25l-.26-.36-.18-.25-.27-.35-.2-.24q-.14-.18-.3-.36c-.06-.07-.12-.15-.19-.22l-.34-.38-.17-.18c-.35-.37-.72-.73-1.1-1.08l-.2-.17-.4-.35-.24-.19c-.12-.11-.25-.21-.38-.31l-.26-.2-.39-.29-.27-.19-.41-.28L101,16.4l-.44-.27-.28-.17-.49-.29-.25-.13c-.5-.28-1-.54-1.56-.8l-.27-.11-.56-.25-.33-.14L96.25,14l-.36-.13-.53-.19L95,13.58l-.55-.18-.38-.12-.58-.17-.38-.1-.66-.17-.33-.09-.94-.21-.56-.25-.07,0c-.2-.08-.39-.15-.59-.21a34,34,0,0,0-8.75-.82h-.12Z"/></g></g></svg>