<svg xmlns="http://www.w3.org/2000/svg" viewBox="0 0 150 160"><defs><style>.cls-1{isolation:isolate;}.cls-2,.cls-7{fill:#fff;mix-blend-mode:screen;}.cls-2{stroke:#fff;stroke-miterlimit:10;stroke-width:5px;}.cls-3{fill:#77563a;}.cls-4{fill:#d29766;}.cls-5{fill:#d8d8d8;}.cls-6{fill:#878787;}</style></defs><g class="cls-1"><g id="शीशा"><polygon class="cls-2" points="117.53 13.29 69.99 3.89 67.39 3.92 67.23 3.89 32.47 140.32 79.07 156.11 79.08 156.07 81.95 155.51 117.53 13.29"/><polygon class="cls-3" points="117.53 13.29 81.95 155.51 79.04 156.08 67.3 3.93 69.99 3.89 117.53 13.29"/><polygon class="cls-4" points="114.78 13.29 79.07 156.11 32.47 140.32 67.23 3.89 114.78 13.29"/><polygon class="cls-5" points="110.8 15.04 76.6 152.6 35.44 138.04 68.81 7.21 110.8 15.04"/><path class="cls-6" d="M76.6,152.88a.18.18,0,0,1-.1,0L35.35,138.3a.27.27,0,0,1-.18-.33L68.53,7.14a.3.3,0,0,1,.33-.21l42,7.84a.3.3,0,0,1,.19.12.29.29,0,0,1,0,.22L76.87,152.67a.27.27,0,0,1-.27.21Zm-40.82-15L76.4,152.23l34.05-137L69,7.53Z"/><path class="cls-7" d="M109.9,18.66l.9-3.62-2.4-.44c-7.76,3.46-39.35,18.79-47.36,23l-1,4C72.08,36.26,105.23,20.68,109.9,18.66Z"/><path class="cls-7" d="M46.26,111.76C55.86,106.09,87,88.69,93,85.53l6.31-25.35c-5,2.15-38.37,20-50.48,26.56l-7.1,27.85C43.33,113.66,44.65,112.71,46.26,111.76Z"/><path class="cls-7" d="M81.71,130.86,83,125.61c-10.89,6-21.28,11.76-32.28,17.55L55.92,145C64.64,140.13,72.83,135.43,81.71,130.86Z"/></g></g></svg>