<svg xmlns="http://www.w3.org/2000/svg" xmlns:xlink="http://www.w3.org/1999/xlink" viewBox="0 0 150 160"><defs><style>.cls-1{isolation:isolate;}.cls-16,.cls-2{fill:#ffb;}.cls-2{stroke:#fff;stroke-miterlimit:10;stroke-width:5px;}.cls-12,.cls-13,.cls-14,.cls-15,.cls-16,.cls-17,.cls-18,.cls-19,.cls-2,.cls-20,.cls-21,.cls-22,.cls-23,.cls-24,.cls-25,.cls-26,.cls-3,.cls-4,.cls-5,.cls-6,.cls-7{fill-rule:evenodd;}.cls-3{fill:url(#Áåçûìÿííûé_ãðàäèåíò_565);}.cls-4{fill:url(#Áåçûìÿííûé_ãðàäèåíò_683);}.cls-5{fill:url(#Áåçûìÿííûé_ãðàäèåíò_683-2);}.cls-6{fill:url(#Áåçûìÿííûé_ãðàäèåíò_53);}.cls-7{fill:url(#Áåçûìÿííûé_ãðàäèåíò_565-2);}.cls-8{fill:url(#Áåçûìÿííûé_ãðàäèåíò_38);}.cls-9{fill:url(#Áåçûìÿííûé_ãðàäèåíò_32);}.cls-10{fill:url(#Áåçûìÿííûé_ãðàäèåíò_38-2);}.cls-11{fill:url(#Áåçûìÿííûé_ãðàäèåíò_32-2);}.cls-12{fill:url(#Áåçûìÿííûé_ãðàäèåíò_565-3);}.cls-13{fill:url(#Áåçûìÿííûé_ãðàäèåíò_683-3);}.cls-14{fill:url(#Áåçûìÿííûé_ãðàäèåíò_683-4);}.cls-15{fill:url(#Áåçûìÿííûé_ãðàäèåíò_565-4);}.cls-16,.cls-17{mix-blend-mode:soft-light;}.cls-17{fill:#fff4bb;}.cls-18{fill:url(#Áåçûìÿííûé_ãðàäèåíò_127);}.cls-19{fill:url(#Áåçûìÿííûé_ãðàäèåíò_238);}.cls-20{fill:url(#Áåçûìÿííûé_ãðàäèåíò_38-3);}.cls-21{fill:url(#Áåçûìÿííûé_ãðàäèåíò_38-4);}.cls-22{opacity:0.5;mix-blend-mode:screen;fill:url(#Áåçûìÿííûé_ãðàäèåíò_31);}.cls-23{fill:url(#Áåçûìÿííûé_ãðàäèåíò_36);}.cls-24{fill:url(#Áåçûìÿííûé_ãðàäèåíò_53-2);}.cls-25{fill:url(#Áåçûìÿííûé_ãðàäèåíò_36-2);}.cls-26{fill:url(#Áåçûìÿííûé_ãðàäèåíò_53-3);}</style><linearGradient id="Áåçûìÿííûé_ãðàäèåíò_565" x1="115.59" y1="127" x2="115.59" y2="33" gradientUnits="userSpaceOnUse"><stop offset="0.01" stop-color="#f20044"/><stop offset="1" stop-color="#d90e27"/></linearGradient><linearGradient id="Áåçûìÿííûé_ãðàäèåíò_683" x1="129.95" y1="127" x2="129.95" y2="33" gradientUnits="userSpaceOnUse"><stop offset="0.01" stop-color="#ff2c5b"/><stop offset="1" stop-color="#ff754c"/></linearGradient><linearGradient id="Áåçûìÿííûé_ãðàäèåíò_683-2" x1="109.92" y1="127" x2="109.92" y2="42.04" xlink:href="#Áåçûìÿííûé_ãðàäèåíò_683"/><linearGradient id="Áåçûìÿííûé_ãðàäèåíò_53" x1="75.94" y1="44.08" x2="75.94" y2="37.52" gradientUnits="userSpaceOnUse"><stop offset="0" stop-color="#e5eecc"/><stop offset="0.97" stop-color="#afa7c3"/></linearGradient><linearGradient id="Áåçûìÿííûé_ãðàäèåíò_565-2" x1="105.04" y1="115.11" x2="127.52" y2="115.11" xlink:href="#Áåçûìÿííûé_ãðàäèåíò_565"/><linearGradient id="Áåçûìÿííûé_ãðàäèåíò_38" x1="64.24" y1="102.88" x2="64.24" y2="42.69" gradientUnits="userSpaceOnUse"><stop offset="0" stop-color="#ffb8bd"/><stop offset="1" stop-color="#ffeab8"/></linearGradient><linearGradient id="Áåçûìÿííûé_ãðàäèåíò_32" x1="69.77" y1="102.87" x2="69.77" y2="81.76" gradientTransform="translate(25.37 -14.54) rotate(14.52)" gradientUnits="userSpaceOnUse"><stop offset="0" stop-color="#ffeab8"/><stop offset="1" stop-color="#ffb8bd"/></linearGradient><linearGradient id="Áåçûìÿííûé_ãðàäèåíò_38-2" x1="85.31" y1="102.88" x2="85.31" y2="42.95" xlink:href="#Áåçûìÿííûé_ãðàäèåíò_38"/><linearGradient id="Áåçûìÿííûé_ãðàäèåíò_32-2" x1="90.84" y1="102.87" x2="90.84" y2="81.76" gradientTransform="translate(26.04 -19.82) rotate(14.52)" xlink:href="#Áåçûìÿííûé_ãðàäèåíò_32"/><linearGradient id="Áåçûìÿííûé_ãðàäèåíò_565-3" x1="31.58" y1="127" x2="31.58" y2="33" xlink:href="#Áåçûìÿííûé_ãðàäèåíò_565"/><linearGradient id="Áåçûìÿííûé_ãðàäèåíò_683-3" x1="45.94" y1="127" x2="45.94" y2="33" xlink:href="#Áåçûìÿííûé_ãðàäèåíò_683"/><linearGradient id="Áåçûìÿííûé_ãðàäèåíò_683-4" x1="25.91" y1="127" x2="25.91" y2="42.04" xlink:href="#Áåçûìÿííûé_ãðàäèåíò_683"/><linearGradient id="Áåçûìÿííûé_ãðàäèåíò_565-4" x1="21.01" y1="115.4" x2="43.48" y2="115.4" xlink:href="#Áåçûìÿííûé_ãðàäèåíò_565"/><linearGradient id="Áåçûìÿííûé_ãðàäèåíò_127" x1="58.21" y1="104.54" x2="74.19" y2="104.54" gradientUnits="userSpaceOnUse"><stop offset="0" stop-color="#d85239"/><stop offset="1" stop-color="#e25b36"/></linearGradient><linearGradient id="Áåçûìÿííûé_ãðàäèåíò_238" x1="74.19" y1="104.54" x2="96.2" y2="104.54" gradientUnits="userSpaceOnUse"><stop offset="0" stop-color="#ff7a55"/><stop offset="1" stop-color="#ff8e36"/></linearGradient><linearGradient id="Áåçûìÿííûé_ãðàäèåíò_38-3" x1="67.27" y1="84.82" x2="67.27" y2="80.47" xlink:href="#Áåçûìÿííûé_ãðàäèåíò_38"/><linearGradient id="Áåçûìÿííûé_ãðàäèåíò_38-4" x1="88.13" y1="84.88" x2="88.13" y2="80.47" xlink:href="#Áåçûìÿííûé_ãðàäèåíò_38"/><linearGradient id="Áåçûìÿííûé_ãðàäèåíò_31" x1="89.27" y1="106.67" x2="89.27" y2="102.46" gradientUnits="userSpaceOnUse"><stop offset="0.1"/><stop offset="1" stop-color="#ffc200"/></linearGradient><linearGradient id="Áåçûìÿííûé_ãðàäèåíò_36" x1="64.96" y1="43.56" x2="64.96" y2="37.52" gradientUnits="userSpaceOnUse"><stop offset="0.03" stop-color="#7a7097"/><stop offset="0.99" stop-color="#bb9089"/></linearGradient><linearGradient id="Áåçûìÿííûé_ãðàäèåíò_53-2" x1="67.6" y1="43.79" x2="67.6" y2="37.52" xlink:href="#Áåçûìÿííûé_ãðàäèåíò_53"/><linearGradient id="Áåçûìÿííûé_ãðàäèåíò_36-2" x1="85.63" y1="44.33" x2="85.63" y2="38.29" xlink:href="#Áåçûìÿííûé_ãðàäèåíò_36"/><linearGradient id="Áåçûìÿííûé_ãðàäèåíò_53-3" x1="88.27" y1="44.56" x2="88.27" y2="38.29" xlink:href="#Áåçûìÿííûé_ãðàäèåíò_53"/></defs><g class="cls-1"><g id="झूला"><path class="cls-2" d="M132.54,93.33h0l-4.61-31.71h0l-4.12-28.23L122.46,33l-8.6,3.28L113,40.66l-22.21-.87c0-.14-.06-.27-.1-.4l0-.2h0a5.54,5.54,0,0,0-.21-.57l-4.91-.33L84.9,39.5s0,0,0,0L70.14,39c0-.14-.07-.28-.12-.42a.58.58,0,0,0,0-.12h0a4.07,4.07,0,0,0-.22-.58l-4.9-.33-.64,1.21-23.78-.94-.64-4.4L38.45,33l-8.6,3.28L12.56,127h8.59l1.35-8.71,21-.74-.71-5.1-19.6,1.49L33.58,46.79,44.8,127h8.64L41.09,42.17l23.4.58.78.81.83,0,.35,36.87h-.72l-.23,4.08a1.08,1.08,0,0,0,.2.08l-4.89,17.85-1.76,0-.84,4.25h16l22,0v-4.2H94.1L89.49,84.67a2.12,2.12,0,0,0,.49-.24l-.31-4h-.91l0-36,1.86.09a8.88,8.88,0,0,0,.25-1.16l21.55.54L96.56,127h8.59l1.4-9,20.9-.73,1.36,9.73h8.63ZM64.93,37.63l0-.05Zm2,47.19h.29l4.54,17.55-9.66.11ZM83.17,102.4,88,84.86h.31l4.56,17.61Zm4.37-21.93h-.6l-.66,4a4.23,4.23,0,0,0,.5.17l-4.87,17.79-7.72-.06-1.19,0L68.42,84.67l.62-.12-.46-4.08h-.91l-.35-36.81,2.62.13s.1-.34.2-.9l15,.37-.09.2.84.87,1.58.08Zm19.68,33.18,10.37-66.86-.39-2.73h0l9.54,68.11Z"/><polygon class="cls-3" points="96.56 127 113.86 36.28 122.46 33 134.61 127 128.81 127 116.92 42.04 102.25 127 96.56 127"/><polygon class="cls-4" points="122.46 33 123.81 33.39 137.44 127 134.61 127 122.46 33"/><polygon class="cls-5" points="102.25 127 105.15 127 117.58 46.79 116.92 42.04 102.25 127"/><path class="cls-6" d="M33.58,37.52l83.79,3.32s1.6.75.61,3.24l-82.1-2Z"/><polygon class="cls-7" points="105.04 118.05 105.92 113.75 126.8 112.16 127.52 117.26 105.04 118.05"/><polygon class="cls-8" points="61.97 102.88 60.8 102.55 66.47 81.83 66.09 42.7 67.31 42.69 67.69 81.99 67.66 82.08 61.97 102.88"/><rect class="cls-9" x="69.16" y="81.57" width="1.22" height="21.49" transform="translate(-20.91 20.44) rotate(-14.52)"/><polygon class="cls-10" points="83.04 102.88 81.86 102.55 87.54 81.83 87.52 42.95 88.74 42.95 88.76 82 88.73 82.08 83.04 102.88"/><rect class="cls-11" x="90.23" y="81.57" width="1.22" height="21.49" transform="translate(-20.24 25.72) rotate(-14.52)"/><polygon class="cls-12" points="12.56 127 29.85 36.28 38.45 33 50.61 127 44.8 127 32.91 42.04 18.25 127 12.56 127"/><polygon class="cls-13" points="38.45 33 39.81 33.39 53.44 127 50.61 127 38.45 33"/><polygon class="cls-14" points="18.25 127 21.14 127 33.58 46.79 32.91 42.04 18.25 127"/><polygon class="cls-15" points="21.01 118.34 21.89 114.04 42.77 112.45 43.48 117.55 21.01 118.34"/><path class="cls-16" d="M44.9,38.77s62.56,1.68,71,2.77C115.88,41.54,72.48,41.08,44.9,38.77Z"/><polygon class="cls-17" points="42.53 64.58 44.35 64.58 49.79 101.95 47.25 102.82 42.53 64.58"/><polygon class="cls-17" points="126.16 61.63 127.92 61.63 132.54 93.33 130.46 94.9 126.16 61.63"/><polygon class="cls-18" points="59.05 102.5 74.19 102.33 74.19 106.75 58.21 106.75 59.05 102.5"/><polygon class="cls-19" points="74.19 102.33 96.2 102.5 96.2 106.69 74.19 106.75 74.19 102.33"/><path class="cls-20" d="M65.73,80.47l-.23,4.08s1.08.61,3.54,0l-.46-4.08Z"/><path class="cls-21" d="M86.94,80.47h2.73l.31,4s-1.31,1-3.7,0Z"/><polygon class="cls-22" points="86.23 106.67 86.23 102.46 92.31 102.52 91.74 106.67 86.23 106.67"/><path class="cls-23" d="M64.23,38.73l.64-1.21a7.69,7.69,0,0,1,.4,6l-.84-.87S65.32,41.21,64.23,38.73Z"/><path class="cls-24" d="M65.27,43.56l4.67.23s1-3.34-.17-5.94l-4.9-.33S66.19,39.64,65.27,43.56Z"/><path class="cls-25" d="M84.9,39.5l.63-1.21a7.58,7.58,0,0,1,.41,6l-.84-.87S86,42,84.9,39.5Z"/><path class="cls-26" d="M85.94,44.33l4.66.23s1-3.35-.16-5.94l-4.91-.33S86.86,40.41,85.94,44.33Z"/><path class="cls-16" d="M65.09,38l4.9.43a8.79,8.79,0,0,1,.33,2H65.58A5.81,5.81,0,0,0,65.09,38Z"/><path class="cls-16" d="M85.83,39l4.83.24A8.29,8.29,0,0,1,91,40.94l-4.75,0A5.11,5.11,0,0,0,85.83,39Z"/></g></g></svg>