<svg id="सिक्_का" data-name="सिक्‍का" xmlns="http://www.w3.org/2000/svg" viewBox="0 0 150 160"><defs><style>.cls-1,.cls-5{fill:#fff;}.cls-1{stroke:#fff;stroke-miterlimit:10;stroke-width:5px;}.cls-2{fill:#c7813b;}.cls-3{fill:#9d3803;}.cls-4{fill:#b23e03;}.cls-5{opacity:0.1;}</style></defs><path class="cls-1" d="M130.26,62.78c-.25-.79-.52-1.57-.79-2.34-.1-.26-.19-.52-.29-.77-.2-.53-.41-1.06-.62-1.58l-.35-.84c-.27-.64-.56-1.28-.86-1.9-.21-.45-.43-.9-.66-1.34-.1-.21-.21-.42-.32-.64a58.52,58.52,0,0,0-7.16-10.69h0c-.67-.79-1.37-1.56-2.08-2.32l-.07-.07c-.71-.75-1.44-1.48-2.18-2.2h0A57.86,57.86,0,0,0,20.08,98.22c.11.33.22.66.34,1s.32.89.49,1.34.25.63.37,1c.44,1.08.89,2.15,1.39,3.19v0c.21.45.44.89.66,1.33.14.28.28.56.43.84l.71,1.3c.14.26.29.51.44.77a58.47,58.47,0,0,0,5.24,7.59h0a56.85,56.85,0,0,0,4.25,4.66h0A59.15,59.15,0,0,0,40,126h0c.41.32.84.63,1.26.93l.59.42,1.33.92h0c1,.68,2.07,1.31,3.14,1.92l.27.16c.54.31,1.09.61,1.64.89h0c1.74.91,3.54,1.73,5.38,2.47h0a57.91,57.91,0,0,0,76.64-71Z"/><circle class="cls-2" cx="75" cy="80" r="57.86"/><circle class="cls-3" cx="75" cy="80" r="48.45"/><circle class="cls-4" cx="75" cy="80" r="44.32"/><path class="cls-3" d="M96.39,58.24V51.13H52.06v7.11H67.12a8.86,8.86,0,0,1,6.27,6H52.06v5.82H73.38a8.71,8.71,0,0,1-8.2,6.26H52.06v6.87l21.17,31.72h9.53L61.59,83.22H67c7.41,0,13.57-5.67,14.86-13.13H96.39V64.27H81.87a16.5,16.5,0,0,0-2.31-6Z"/><path class="cls-2" d="M97.94,56v-7.1H53.61V56H68.67a8.89,8.89,0,0,1,6.27,6H53.61v5.82H74.93a8.71,8.71,0,0,1-8.2,6.26H53.61V81l21.17,31.72h9.53L63.14,81h5.41C76,81,82.12,75.34,83.41,67.87H97.94V62.05H83.42a16.56,16.56,0,0,0-2.31-6Z"/><path class="cls-5" d="M114.87,38.09,30.16,116.56a56.85,56.85,0,0,0,4.25,4.66l84.8-78.54A57,57,0,0,0,114.87,38.09Z"/><path class="cls-5" d="M123.58,48.59,40,126a58,58,0,0,0,13.66,7.73l76.64-71A57.71,57.71,0,0,0,123.58,48.59Z"/><path class="cls-5" d="M96,26.1,19.64,96.87A58,58,0,0,0,26.78,112l83.79-77.61A57.77,57.77,0,0,0,96,26.1Z"/></svg>