<svg id="शतरंज" xmlns="http://www.w3.org/2000/svg" viewBox="0 0 150 160"><defs><style>.cls-1{fill:#fff;stroke:#fff;stroke-miterlimit:10;stroke-width:5px;}.cls-2{fill:#5e5c5a;}.cls-3{fill:#454442;}.cls-4{fill:#c6c3c3;}.cls-5{fill:#8c8887;}</style></defs><path class="cls-1" d="M99.58,135.16C87,129,85.15,103.14,82.12,88.34c5.3-1.12,8.6-2.73,8.31-5.62,0,0,0-5,0-4.93-11.5-6.7.32-18.9,2.35-25.5.8-7.39-23.47-7.69-7.46-16.23-2.57-4.86-5.36-3.86.69-5.8,0-4.05,1-8.37-4.85-6.84,6.58-9.37-1.63-7.16.35-13.11.15-6.46-13.49-6.52-13.35,0,.68,3.66,3.42,3.65-1.37,5.15-2.85.11,1.73,7.28,1.65,8.31-5.49-1.5-4.41,4-4.43,7.44h5.11c-13.22,14.84,15.54,2-11.84,20.1,1.36,9.42,13.86,20.2,2.34,26.52-.05,0,0,4.69,0,4.9,13,5.67,2.89,35.42-.91,46.06C20,154.2,110.56,169.41,99.58,135.16Z"/><path class="cls-2" d="M50.33,135.16v10.57c0,5,11.05,9,24.67,9s24.67-4,24.67-9V135.16Z"/><path class="cls-3" d="M75,153.67c-13.62,0-24.67-4-24.67-9v1c0,5,11.05,9,24.67,9s24.67-4,24.67-9v-1C99.67,149.65,88.62,153.67,75,153.67Z"/><path class="cls-4" d="M90.66,151.57a23.73,23.73,0,0,0,5.55-2.35V137l-5.55,3.49Z"/><path class="cls-5" d="M99.67,135.86c0,5-11,9-24.67,9s-24.67-4-24.67-9,11.05-9,24.67-9S99.67,130.91,99.67,135.86Z"/><path class="cls-4" d="M75,144.23c-13.34,0-24.21-3.85-24.65-8.67,0,.1,0,.2,0,.3,0,5,11.05,9,24.67,9s24.67-4,24.67-9c0-.1,0-.2,0-.3C99.21,140.38,88.35,144.23,75,144.23Z"/><path class="cls-3" d="M94.92,134.74c0,3.78-8.85,6.85-19.76,6.85s-19.76-3.07-19.76-6.85,8.85-6.84,19.76-6.84S94.92,131,94.92,134.74Z"/><path class="cls-2" d="M91.34,128.79c-4-5.86-7.93-38.23-9.82-42.37l-5.25-.11v-.06l-1.28,0-1.28,0v.06l-5.24.11c-1.89,4.14-5.85,36.51-9.82,42.37S54.53,140.14,75,140.15h0C95.47,140.14,95.29,134.64,91.34,128.79Z"/><path class="cls-3" d="M82.22,92.35c-.77-2.37-1.47-4.48-1.84-5.7l-4.62-.08v0l-.79,0-.8,0v0l-4.66.08c-.49,1.76-1.82,5.41-2.8,9.62C68.94,91.37,77.88,86.61,82.22,92.35Z"/><path class="cls-5" d="M79,100.43c-.58-3.3,1-6.19,2.64-.51,3.91,13.69,6.91,32.28,6,33.32S81.43,114.12,79,100.43Z"/><path class="cls-2" d="M59.57,78.05v5.32C59.57,86.47,66.48,89,75,89s15.43-2.51,15.43-5.61V77.79Z"/><path class="cls-5" d="M75,88.34c-8.52,0-15.43-2.52-15.43-5.62v.65C59.57,86.47,66.48,89,75,89s15.43-2.51,15.43-5.61v-.65C90.43,85.82,83.52,88.34,75,88.34Z"/><path class="cls-5" d="M84.79,87a15,15,0,0,0,3.48-1.47V78.69l-3.48,2.18Z"/><path class="cls-5" d="M90.43,78c0,3.1-6.91,5.62-15.43,5.62S59.57,81.07,59.57,78,66.48,72.36,75,72.36,90.43,74.87,90.43,78Z"/><path class="cls-4" d="M75,83.21c-8.35,0-15.14-2.41-15.42-5.42,0,.06,0,.12,0,.18,0,3.1,6.91,5.62,15.43,5.62S90.43,81.07,90.43,78c0-.06,0-.12,0-.18C90.14,80.8,83.35,83.21,75,83.21Z"/><path class="cls-3" d="M85.37,76.35c0,2.1-4.67,3.8-10.44,3.8s-10.43-1.7-10.43-3.8,4.67-3.79,10.43-3.79S85.37,74.26,85.37,76.35Z"/><path class="cls-2" d="M58.71,54.42c.86,5.94,6.72,13.25,7.17,20.74,3.6,5.43,16.6,3.4,18.73,0,.06-12.09,6.83-17.56,6.86-21.25C88.41,55.58,59.66,56.44,58.71,54.42Z"/><path class="cls-5" d="M81.83,62.9c1.14-3.8,5.85-4.48,3.78.35a34.81,34.81,0,0,0-2.41,10S79.76,69.79,81.83,62.9Z"/><path class="cls-2" d="M57.25,51.31V53c0,3.56,8,6.71,17.75,6.71S92.75,56.6,92.75,53V51Z"/><path class="cls-5" d="M75,59c-9.8,0-17.75-3.15-17.75-6.72V53c0,3.56,8,6.71,17.75,6.71S92.75,56.6,92.75,53v-.75C92.75,55.86,84.8,59,75,59Z"/><path class="cls-5" d="M92.75,51.22c0,3.57-8,6.46-17.75,6.46s-17.75-2.89-17.75-6.46,8-6.45,17.75-6.45S92.75,47.66,92.75,51.22Z"/><path class="cls-4" d="M75,57.25c-9.6,0-17.43-2.78-17.74-6.24a1.48,1.48,0,0,0,0,.21c0,3.57,8,6.46,17.75,6.46s17.75-2.89,17.75-6.46a1.48,1.48,0,0,0,0-.21C92.42,54.47,84.6,57.25,75,57.25Z"/><path class="cls-3" d="M80,49.46c0,.89-2.24,1.61-5,1.61s-5-.72-5-1.61,2.24-1.6,5-1.6S80,48.57,80,49.46Z"/><path class="cls-2" d="M81.65,44.81c0,2.77-3,5-6.67,5s-6.68-2.24-6.68-5,3-5,6.68-5S81.65,42,81.65,44.81Z"/><path class="cls-3" d="M70.53,41.25a8.41,8.41,0,0,0,8.89,0,8.41,8.41,0,0,0-8.89,0Z"/><path class="cls-4" d="M80.65,43.7c-.16.4-1.17.54-2.27.3s-1.85-.76-1.69-1.17,1.18-.55,2.27-.31S80.81,43.29,80.65,43.7Z"/><path class="cls-3" d="M66.76,15.46c6-3.21,15-1.65,18-.26-1.91,4.07-3.64,8.22-3.64,8.22H86v6.84l-1.22.86-3.45-.86,4,5.8a35.29,35.29,0,0,1-4.5,3.37,12.7,12.7,0,0,1-11.08,0,26.82,26.82,0,0,1-4-3.37l4.58-5.71h-5.1L64,24.63l1.23-.86H70l-4.43-7.45Z"/><path class="cls-2" d="M65.54,16.32c6-3.2,15-1.64,18-.26-1.91,4.07-3.64,8.23-3.64,8.23h4.85v6.83H80.08l4,5.81a35.51,35.51,0,0,1-4.5,3.37,12.68,12.68,0,0,1-11.07,0,27,27,0,0,1-4-3.37l4.59-5.72H64V24.63h4.76Z"/><path class="cls-3" d="M79.82,14.62c0,.7-2.25,1.26-5,1.26s-5-.56-5-1.26,2.24-1.26,5-1.26S79.82,13.92,79.82,14.62Z"/><path class="cls-2" d="M81.49,10.31c0,2.77-3,5-6.68,5s-6.68-2.24-6.68-5,3-5,6.68-5S81.49,7.54,81.49,10.31Z"/><path class="cls-4" d="M78.74,8.22c-.16.42-1.18.55-2.27.32s-1.85-.77-1.69-1.18,1.17-.55,2.27-.31S78.9,7.81,78.74,8.22Z"/></svg>