<svg id="टमाटर" xmlns="http://www.w3.org/2000/svg" viewBox="0 0 150 160"><defs><style>.cls-1,.cls-11{fill:#d01417;}.cls-1{stroke:#fff;stroke-miterlimit:10;stroke-width:5px;}.cls-2{fill:#e20613;}.cls-3{fill:#d41217;}.cls-4{fill:#e7442e;}.cls-5{fill:#ef8071;}.cls-6{fill:#f9d5d2;}.cls-7{fill:#e21f21;}.cls-8{fill:#81ae29;}.cls-9{fill:#93bc22;}.cls-10{fill:#58852f;}</style></defs><path class="cls-1" d="M103.1,50.55c3.59-.09,7,.34,9.54,1.78-1.54-1.87-4-3-10.31-3.41a37.29,37.29,0,0,0-5.19.16,47.11,47.11,0,0,0-8.21-.61h-.31c-.57,0-1.15,0-1.74.05l-.68,0-1.55.11-.68.06-1.74.18-.54.06-2.29.33-.11,0h0l-.33.06c3.65-4.74,11.87-8.69,23.85-8.89-1.54,0-11.08-1.85-18.7,1.15a45.14,45.14,0,0,0-9.58,5c.17-5.54,1.17-13.47,5.25-19.76a1.43,1.43,0,0,0,.82-.64,1,1,0,0,0,0-1.07c-.33-.54-1.25-.73-2.41-.53-.34.07-1.44.54-1.53,1.2a.66.66,0,0,0,.15.5,19.93,19.93,0,0,0-2.6,4c-.08.16-.16.32-.25.48s-.09.18-.13.28a43.29,43.29,0,0,0-4,17.93c-4.08-6.31-16.41-14-29.85-10.11,4.25,1,20,2.23,25.65,11.47-.54-.05-1.09-.1-1.63-.13-5.83-2.6-10.2-2.67-14.33-1.29-4.62,1.54-15.7,2.77-19.85,2.64,2.31.83,15,1.09,18.85-.2a12.27,12.27,0,0,1,3.74-.54C40.8,53,30.91,59.85,25.22,72.23c-7.46,16.24-2.07,63.88,49.17,63.25,46.86-.57,53-36.8,53.1-48.59C127.57,78.39,123.16,57.27,103.1,50.55Z"/><path class="cls-2" d="M70.93,51.11c-19.16-3.7-37.17,2.53-45.71,21.12-7.46,16.24-2.07,63.88,49.17,63.25,46.86-.57,53-36.8,53.1-48.59S119,38.41,70.93,51.11Z"/><path class="cls-3" d="M88.94,48.47a62.87,62.87,0,0,0-9.65.85c-4.3,1.87-8,4.14-8.36,6.4a14.3,14.3,0,0,0-4.58-5.3,50.49,50.49,0,0,0-6.69-.31,15.61,15.61,0,0,1,6.5,5.73c-6.93-3.14-11.85-3.36-16.47-2a66.85,66.85,0,0,1-9.85,1.67c-.65.39-1.28.8-1.91,1.23,4.16,0,8.71-.18,10.76-.77,3.85-1.12,10.23-.24,14.85,2.39-6.46.51-6,5-5.08,7.65s1.23,7.73.16,8.74c1.46-1,3.23-3,2.54-5.6s1.54-7.68,9.38-8.08c1.39,1.12,6.78.9,9.7.11s14.08-.22,16.16,8.19c.62-1.24.92-4.71-.31-6.45S90.71,58,83.55,58.25c7.16-1.35,21.47-5.16,29.09-1.46-1.54-1.63-4-2.58-10.31-3S79.54,56.34,77.7,56C79.32,53,83.17,50.25,88.94,48.47Z"/><path class="cls-4" d="M77,51.75c-15.47-3-30,2.06-36.91,17.07-6,13.11-1.68,51.59,39.71,51.08,37.85-.47,42.79-29.72,42.88-39.25S115.8,41.5,77,51.75Z"/><path class="cls-5" d="M105.63,60.88c-3.55,1.06-4.3,4-4.15,10.77.09,4.29,3.85,22.54,12,20.32,8.47-2.31,6.2-18.92,5.5-21.77S114.69,58.18,105.63,60.88Z"/><path class="cls-4" d="M30.85,78.82c1.33.15,2-.73,2.89-3,.57-1.44,1.88-8-1.15-8.45s-4.72,5.43-4.89,6.48S27.45,78.45,30.85,78.82Z"/><path class="cls-6" d="M114.12,67.44c-.83.25-1,.94-1,2.52,0,1,.9,5.29,2.81,4.77s1.45-4.44,1.29-5.11S116.24,66.81,114.12,67.44Z"/><path class="cls-7" d="M83.55,58.25c7.16-.28,11.31,2.91,12.54,4.65S94.4,68,93.78,69.23c1.39-7.85-10.34-11.29-13.27-10.51s-8.77,1-10.16-.11C62.5,59,62.5,66.24,63.2,68.82s-1.08,4.65-2.54,5.6c1.07-1,.77-6.06-.16-8.74s-3.42-6.83,3-7.34a23.26,23.26,0,0,0-12-2.84,29.26,29.26,0,0,1,4.86-2.4,28.36,28.36,0,0,1,9.73,2.74A13.82,13.82,0,0,0,62,51.54,34.58,34.58,0,0,1,67,51a13.38,13.38,0,0,1,3.9,4.75c.26-1.46,1.89-2.93,4.17-4.29.64.09,1.28.2,1.92.32a69.71,69.71,0,0,1,7.55-1.56c-3.37,1.64-5.7,3.65-6.87,5.76,1.84.39,18.31-2.52,24.63-2.13,4.48.28,7,.84,8.67,1.73.46.36.91.73,1.34,1.12C104.65,53.2,90.62,56.92,83.55,58.25Z"/><path class="cls-8" d="M70.93,51.11C68.62,44.62,55,34.48,40,38.87c4.38,1,21,2.31,26.16,12.37-6.93-3.6-11.85-3.86-16.47-2.32S34,51.69,29.84,51.56c2.31.83,15,1.09,18.85-.2s10.23-.27,14.85,2.75c-6.46.57-6,5.67-5.08,8.76s1.23,8.86.16,10a6.39,6.39,0,0,0,2.54-6.43c-.7-2.95,3.38-10.65,11.23-11.1,1.39,1.29,4.79,2.07,7.85,2,4-.11,14.08-.26,16.16,9.38.62-1.41.92-5.4-.31-7.39S90.71,53.68,83.55,54c7.16-1.54,21.47-5.91,29.09-1.67-1.54-1.87-4-3-10.31-3.41s-22.79,2.9-24.63,2.44c2.69-5.56,11.47-10.64,25.09-10.87-1.54,0-11.08-1.85-18.7,1.15C78.08,44,71.47,47.57,70.93,51.11Z"/><path class="cls-9" d="M70.93,51.11C68.62,44.62,55,34.48,40,38.87c4.38,1,21,2.31,26.16,12.37-6.93-3.6-11.85-3.86-16.47-2.32S34,51.69,29.84,51.56c2.31.83,15.41-.32,19.33-1.38,6.87-1.84,12.47,0,15.64,3.87-7.5-.17-7.27,5.73-6.35,8.82s1.23,8.86.16,10c1.46-1.1,2.41-6.15,1.63-9.09-1.33-5,5.08-10.11,12.93-10.56,1.38,1.29,4.67,2.4,7.73,2.31,4-.12,15.87.11,15.49,11.17.62-1.41.92-5.4-.31-7.39s-6-6.44-15.87-5.16c6.29-3.7,26.38-6.87,32.42-1.84-1.54-1.87-4-3-10.31-3.41s-22.79,2.9-24.63,2.44c2.69-5.56,11.47-10.64,25.09-10.87-1.54,0-11.08-1.85-18.7,1.15C78.08,44,71.47,47.57,70.93,51.11Z"/><path class="cls-8" d="M77.6,25.46c-2.77,2.41-8,11.62-7.77,25.86.46,2.38,4.39,1.92,4.69.07C74.37,46.78,74.22,35,80,26.46,80.34,25.08,78.66,24.56,77.6,25.46Z"/><path class="cls-9" d="M76.58,26.81c-2,1.9-7,10.27-6.75,24.51.46,2.38,4.39,1.92,4.69.07-1.46-3.17-3.19-11.65,2.47-23C78.55,26.52,77.68,25.19,76.58,26.81Z"/><path class="cls-9" d="M78.23,24.87c-.44.08-2.06.9-.9,1.48s2.63.44,3-.29C80.81,25.1,79.82,24.58,78.23,24.87Z"/><path class="cls-10" d="M78.84,27h0a3.73,3.73,0,0,1-1.64-.39c-.52-.26-.59-.58-.55-.81.09-.66,1.19-1.13,1.53-1.2,1.16-.2,2.08,0,2.41.53a1,1,0,0,1,0,1.07A1.86,1.86,0,0,1,78.84,27Zm.21-1.92a4.48,4.48,0,0,0-.77.08c-.3.05-1,.46-1.08.72,0,.07.12.17.25.23,1,.48,2.36.37,2.62-.16.11-.22.13-.4,0-.52S79.58,25.07,79.05,25.07Z"/><path class="cls-11" d="M27.3,96.81s9.46,32.79,55.4,33.48C50.85,140.44,27.53,113.2,27.3,96.81Z"/></svg>