<svg id="थानेदार" xmlns="http://www.w3.org/2000/svg" viewBox="0 0 150 160"><defs><style>.cls-1,.cls-22{fill:#ffff31;}.cls-1{stroke:#fff;stroke-miterlimit:10;stroke-width:5px;}.cls-1,.cls-10,.cls-11,.cls-12,.cls-13,.cls-14,.cls-15,.cls-16,.cls-17,.cls-19,.cls-2,.cls-20,.cls-21,.cls-22,.cls-3,.cls-4,.cls-5,.cls-6,.cls-7,.cls-8{fill-rule:evenodd;}.cls-2{fill:#ffad7a;}.cls-3{fill:#c69a5e;}.cls-4,.cls-9{fill:#d6a370;}.cls-5{fill:#a47238;}.cls-6{fill:#dcab68;}.cls-7{fill:#333;}.cls-8{fill:#4d2e27;}.cls-10{fill:#564429;}.cls-11{fill:#453721;}.cls-12{fill:#755c38;}.cls-13{fill:#211b10;}.cls-14{fill:#e3bb85;}.cls-15{fill:#fff;}.cls-16,.cls-18{fill:#a74400;}.cls-17{fill:#4d4d4d;}.cls-19{fill:#1a1a1a;}.cls-20{fill:#999;}.cls-21{fill:#e6e6e6;}</style></defs><path class="cls-1" d="M97.12,94.2c-.23-1.39-.79-4.18-1-5.52,0-.2,0-.36,0-.48-.33-6.6-.83-13.9-1.66-20.47-.12-.94-.25-1.83-.4-2.71l.92-.29c-.82-2.82-3.26-11.14-4.11-12.75-.43-.84-.79-1.51-1-1.92s-.34-.72-.34-.72h0a4.09,4.09,0,0,0-.29-.48l-.12-.15a3.49,3.49,0,0,0-.32-.35l-.16-.16c-.14-.12-.28-.24-.43-.35L88,47.74l-.1-.07.29-.71L82.13,44.5l-.08.51-.66-.21-.13,0-.51-.16-.2,0-.17-.05L79,42.84l-.28-2.09A10.36,10.36,0,0,0,82,36.34a.08.08,0,0,1,0,0c1.11-.3,3.81-1.28,3.62-3.88-.14-1.91-1.21-2.29-2.08-2.28h.26a28.22,28.22,0,0,0-.13-4.53,6.91,6.91,0,0,0-.15-.91,3.68,3.68,0,0,0,.24-.33L84,20.33h0a7.57,7.57,0,0,0,1.68-1.74,1,1,0,0,0,.16-.62.58.58,0,0,0-.2-.33l-2.26-1.78c-.43-.33-.86-.65-1.21-.9a4,4,0,0,0-.81-.48h0l-1-.34L80.05,14l-.57-.2-.33-.13-.45-.18-.31-.12L78,13.23l-.28-.13L77.43,13l-.25-.12-.24-.11-.22-.11-.2-.1-.19-.1-.16-.08L76,12.26l-.12-.07-.15-.09-.07,0-.4-.25h0l-.1-.05h0l-.09,0h0a.28.28,0,0,0-.18,0h0a26,26,0,0,1-6.34,2.77,40.08,40.08,0,0,0-4.28,3.16c-.94.74,1.64,2.69,1.64,2.69l.24,4.1a1.31,1.31,0,0,0,.2.55c0,.24-.09.47-.12.72a28,28,0,0,0-.12,4.53h.25c-.87,0-1.93.38-2.07,2.28-.18,2.6,2.51,3.58,3.62,3.88,0,0,0,0,0,0a10.33,10.33,0,0,0,3.23,4.38l-.28,2.12-1.36,1.68h0l-.13,0-.21.06-.44.13-.21.06-.59.19-.08-.5L61.72,47l.28.69-.13.09a1.27,1.27,0,0,0-.12.1,5.54,5.54,0,0,0-.45.37l-.16.15c-.11.11-.22.23-.32.35l-.12.15a3,3,0,0,0-.3.51,1.89,1.89,0,0,0-.06.18s0,0,0,.05h0l0,.08c-.05.1-.11.22-.18.38-.23.41-.59,1.08-1,1.92-.85,1.61-3.29,9.93-4.11,12.75L56,65c-.15.88-.28,1.77-.4,2.71-.83,6.57-1.33,13.87-1.66,20.47,0,.12,0,.28,0,.48-.18,1.34-.74,4.13-1,5.52-.25,1.59.37,1.77,1.08,3.22s1.84,4.94,2.35,4.64.25-.9.54-1.44a3.51,3.51,0,0,0,.45-1,3.1,3.1,0,0,0,.06-.84,5.51,5.51,0,0,0-.22-1.16,6.17,6.17,0,0,1-.21-1.42c0-.24,0-.48,0-.7a4.06,4.06,0,0,1,.53-2l.08-.07h0c.36,0,.94.22.81,1.76a2.21,2.21,0,0,0,.17,1.12h0c.16.66,1.16.93,1.17.52s.18-.83.28-2.42a5.27,5.27,0,0,0-.35-2.47h0a14.39,14.39,0,0,0-1.26-3.15c.32-3.48.78-8,1.38-12.08a1.16,1.16,0,0,0,.34.14l3.9.81c0,.08,0,.15,0,.23v.11c0,.13,0,.26,0,.4v.57a1.48,1.48,0,0,0,0,.21c0,.08,0,.17,0,.26v.17a.41.41,0,0,1,0,.11h0c0,.3,0,.61,0,.94v.08c0,.42,0,.87,0,1.36l-.05,7-.88,4.25a1,1,0,0,0,.8,1.24h0l-.31,48.24a1.26,1.26,0,0,0-.28,0l-.27.25a22.84,22.84,0,0,1-4.26,1.42,2.77,2.77,0,0,0-2.25,2.17h0a4.79,4.79,0,0,0-.08,1.68h6.32l2.49-1.05.07,1H68.5a3,3,0,0,0,.13-.57,6.68,6.68,0,0,0,.16-2.94,3.06,3.06,0,0,0-.23-.81,3.39,3.39,0,0,0-.25-.5h0c.42-4.15,3.56-35.43,5.19-49.82h2.91c1.62,14.4,4.77,45.74,5.18,49.83l-.23.49a3.06,3.06,0,0,0-.23.81,6.68,6.68,0,0,0,.16,2.94,2.26,2.26,0,0,0,.13.57h3.31l.07-1,2.49,1.05h6.32a4.79,4.79,0,0,0-.08-1.68h0a2.77,2.77,0,0,0-2.25-2.17A23.07,23.07,0,0,1,87,143l-.26-.25a1.33,1.33,0,0,0-.29,0L86.1,87a4.91,4.91,0,0,0,1.22-.28c.62-.27.59-5.1.59-5.1a.59.59,0,0,0,.51-.24,16.08,16.08,0,0,0-.75-4.78c-.23-.49-1.08-.58-2-.56,0-.16,0-.31-.07-.45a2,2,0,0,0,0-.24l0-.2c0-.13,0-.25-.07-.37l0-.08a2.87,2.87,0,0,0-.05-.31s0-.08,0-.12,0-.15,0-.23a.59.59,0,0,0,0-.14,1.79,1.79,0,0,1,0-.23s0-.1,0-.16,0-.16,0-.24a1,1,0,0,0,0-.17v-.85a.81.81,0,0,0,0-.16q0-.28,0-.63c.08-1.08.44-3.28.93-5.89.11-.58.22-1.17.34-1.78.37,1.33.72,2.54.95,3.35l.76-.26c.58,2.28,1.1,4.54,1.47,6.56.85,4.64,1.5,10.82,1.9,15.24a14.39,14.39,0,0,0-1.26,3.15h0A5.27,5.27,0,0,0,90,94.33c.1,1.59.26,2,.28,2.42s1,.14,1.17-.52h0a2.21,2.21,0,0,0,.17-1.12c-.13-1.54.45-1.81.81-1.76h0l.08.07a.86.86,0,0,1,.21.36,5.88,5.88,0,0,1,.32,1.68,6.11,6.11,0,0,1-.19,2.12,5.51,5.51,0,0,0-.22,1.16,2.77,2.77,0,0,0,.15,1.16,4.06,4.06,0,0,0,.24.51l.12.21c.29.54,0,1.13.54,1.44s1.63-3.18,2.35-4.64S97.37,95.79,97.12,94.2ZM82.48,35l.09-.3Zm.37-1.51,0-.18Zm.2-1.57c0-.11,0-.21,0-.31C83.06,31.75,83.06,31.85,83.05,32Zm0-1.7a.75.75,0,0,1,0,.15v-.15l.36,0Zm-.6-3.18c0,.11.06.21.1.32C82.53,27.29,82.51,27.19,82.47,27.08Zm.3,1c0,.12,0,.25.07.37C82.81,28.34,82.79,28.21,82.77,28.09Zm.19,1c0,.13,0,.27,0,.4C83,29.4,83,29.26,83,29.13ZM66.83,30.26v0l-.36,0Zm.6-3.18c0,.1-.06.21-.09.31C67.37,27.29,67.39,27.18,67.43,27.08Zm-.29,1c0,.12,0,.25-.07.37C67.09,28.34,67.11,28.21,67.14,28.09Zm-.2,1c0,.13,0,.27,0,.4C66.91,29.4,66.92,29.26,66.94,29.13Zm.4,5.61c0,.1,0,.2.08.3C67.39,34.94,67.37,34.84,67.34,34.74Zm-.5-3.09c0,.1,0,.2,0,.31C66.84,31.85,66.84,31.75,66.84,31.65Zm.18,1.7a1.16,1.16,0,0,0,0,.18A1.16,1.16,0,0,1,67,33.35Zm-7,41.4c.07-.44.14-.87.22-1.28.37-2,.89-4.28,1.47-6.56l.76.26.84-3c.62,3.21,1.12,6,1.2,7.3v0c0,.21,0,.4,0,.59v.19c0,.11,0,.23,0,.34v.2c0,.09,0,.18,0,.27a1.09,1.09,0,0,1,0,.18c0,.08,0,.16,0,.23s0,.11,0,.16l0,.22s0,.1,0,.15a1.7,1.7,0,0,0,0,.22s0,.09,0,.13l-.06.3v.07c0,.14,0,.3-.08.46s0,.17,0,.26l-3.73-.77A1,1,0,0,0,60.06,74.75Z"/><path class="cls-2" d="M63.11,50.58,60.5,49.34S57,56,55.55,67.73c-.83,6.57-1.33,13.87-1.66,20.47,0,.12,0,.29,0,.48a15,15,0,0,0,4.53,0c.4-4.42,1-10.6,1.9-15.24a202.92,202.92,0,0,1,5.47-20.4l-2.64-2.49Z"/><path class="cls-3" d="M64,49.2l-3.53.38s-.55,1-1.29,2.4c-.85,1.61-3.29,9.93-4.11,12.75,2.06.66,5.38,1.73,7.48,2.44.37-1.28,1-3.51,1.6-5.7.46-4.32.73-9.45-.15-12.27Z"/><path class="cls-2" d="M53.85,88.68c-.18,1.34-.74,4.13-1,5.52-.25,1.59.37,1.77,1.08,3.22s1.84,4.94,2.35,4.64.25-.9.54-1.44a3.27,3.27,0,0,0,.29-3c-.52-1.82.06-4.17.42-4.23s.94.22.81,1.76a2.21,2.21,0,0,0,.17,1.12h0c.16.66,1.16.93,1.17.52s.18-.83.28-2.42a5.27,5.27,0,0,0-.35-2.47h0a14.39,14.39,0,0,0-1.26-3.15,15,15,0,0,1-4.53,0Z"/><path class="cls-4" d="M57.56,93.35c-.36.06-.94,2.41-.42,4.23a3.27,3.27,0,0,1-.29,3s-.55-2.26-1-3.85.74-3.65,1.68-3.42Z"/><path class="cls-2" d="M86.89,50.58l2.61-1.24S93,56,94.45,67.73c.83,6.57,1.33,13.87,1.66,20.47,0,.12,0,.29,0,.48a15,15,0,0,1-4.53,0c-.4-4.42-1.05-10.6-1.9-15.24a202.92,202.92,0,0,0-5.47-20.4l2.64-2.49Z"/><path class="cls-3" d="M86,49.2l3.53.38s.55,1,1.29,2.4c.85,1.61,3.29,9.93,4.11,12.75-2.06.66-5.38,1.73-7.48,2.44-.37-1.28-1-3.51-1.6-5.7-.46-4.32-.73-9.45.15-12.27Z"/><path class="cls-2" d="M96.15,88.68c.18,1.34.74,4.13,1,5.52.25,1.59-.37,1.77-1.08,3.22s-1.84,4.94-2.35,4.64-.25-.9-.54-1.44a3.27,3.27,0,0,1-.29-3c.52-1.82-.06-4.17-.42-4.23s-.94.22-.81,1.76a2.21,2.21,0,0,1-.17,1.12h0c-.16.66-1.16.93-1.17.52s-.18-.83-.28-2.42a5.27,5.27,0,0,1,.35-2.47h0a14.39,14.39,0,0,1,1.26-3.15,15,15,0,0,0,4.53,0Z"/><path class="cls-4" d="M92.44,93.35c.36.06.94,2.41.42,4.23a3.27,3.27,0,0,0,.29,3s.55-2.26,1-3.85-.74-3.65-1.68-3.42Z"/><path class="cls-2" d="M73.5,93.65h2.91c1.74,15.43,5.23,50.29,5.23,50.29l4.82.07L86.07,82.7A2.53,2.53,0,0,1,86,82c0-8.12-1-6.7-.72-10.53S89.5,49.6,89.5,49.6l.07,0a1,1,0,0,0-.07-.21c-1.32-3-10.24-5.16-10.24-5.16h0L78.66,40l-3.73.28L71.21,40l-.57,4.19s-8.92,2.12-10.24,5.16a2,2,0,0,0-.08.23c0,.2,4,18.08,4.23,21.89S63.89,73.9,63.84,82l-.4,62,4.82-.07s3.49-34.86,5.24-50.29Z"/><path class="cls-4" d="M79,42.43,78.66,40l-3.73.28L71.21,40l-.32,2.38c.14.12.3.24.45.35,3,2.14,4.2,2.14,7.22,0l.42-.32Z"/><path class="cls-5" d="M73.5,93.65h2.91c1.74,15.43,5.23,50.29,5.23,50.29l4.82.07L86.07,82.7A2.53,2.53,0,0,1,86,82c0-2-.08-3.4-.17-4.46L64,77.38c-.1,1.08-.17,2.54-.18,4.64l-.4,62,4.82-.07s3.49-34.86,5.24-50.29Z"/><path class="cls-6" d="M86,79.94c-.18-5.81-.92-5-.68-8.45.27-3.83,4.23-21.89,4.23-21.89l.07,0a1,1,0,0,0-.07-.21c-1-2.37-6.68-4.18-9.12-4.86L79,42.84s-2.83,2.24-3,2.54a23.73,23.73,0,0,0-.9,2.44h-.32s-.7-2.14-.9-2.44-3-2.54-3-2.54l-1.36,1.68h0c-2.47.7-8,2.49-9.07,4.85a2,2,0,0,0-.08.23c0,.2,4,18.08,4.23,21.89.24,3.41-.47,2.66-.67,8.15,2.32,1,6.68,2,14.41,1.63A30.84,30.84,0,0,0,86,79.94Z"/><path class="cls-3" d="M73.84,45.35c-.36-.4-3-2.51-3-2.51l-1.36,1.68h0L71,49l2.88-3.62,0,0Z"/><path class="cls-3" d="M80.38,44.51h0L79,42.84s-2.83,2.24-3,2.54h0L78.85,49l1.53-4.48Z"/><path class="cls-7" d="M81.29,147.72a2.26,2.26,0,0,0,.13.57h3.31l.07-1,2.49,1.05h6.32a4.79,4.79,0,0,0-.08-1.68h0a2.77,2.77,0,0,0-2.25-2.17A23.07,23.07,0,0,1,87,143l-.26-.25a1.41,1.41,0,0,0-1.25.49c-1.64.1-3.9.23-3.89.2s-.07.11-.25.5a3.06,3.06,0,0,0-.23.81h0a6.68,6.68,0,0,0,.16,2.94Z"/><path class="cls-7" d="M68.63,147.72a3,3,0,0,1-.13.57H65.19l-.07-1-2.49,1.05H56.31a4.79,4.79,0,0,1,.08-1.68h0a2.77,2.77,0,0,1,2.25-2.17A22.84,22.84,0,0,0,62.9,143l.27-.25a1.41,1.41,0,0,1,1.25.49c1.64.1,3.9.23,3.89.2a3.39,3.39,0,0,1,.25.5,3.06,3.06,0,0,1,.23.81h0a6.68,6.68,0,0,1-.16,2.94Z"/><path class="cls-4" d="M66.83,30.26c-.9-.15-2.39,0-2.56,2.24-.18,2.6,2.51,3.58,3.62,3.88a14.31,14.31,0,0,1-1.06-6.12Z"/><path class="cls-2" d="M67.82,26.12c-2.3,4.93-.48,12,3.44,14.72,3.09,2.18,4.29,2.18,7.38,0,3.92-2.77,5.74-9.79,3.45-14.72A7.92,7.92,0,0,0,75,21.55h-.08a7.9,7.9,0,0,0-7.09,4.57Z"/><path class="cls-8" d="M66.09,30.23a2.56,2.56,0,0,1,.74,0,11.13,11.13,0,0,1,1-4.14,7.85,7.85,0,0,1,14.27,0,11.12,11.12,0,0,1,1,4.14,2.56,2.56,0,0,1,.74,0,28.22,28.22,0,0,0-.13-4.53C82.61,16,67.29,16,66.21,25.7a28,28,0,0,0-.12,4.53Z"/><path class="cls-8" d="M71.18,29.92c.53,0,1,.58,1,1.3s-.43,1.3-1,1.3-1-.58-1-1.3.43-1.3,1-1.3Z"/><path class="cls-8" d="M69.62,28.3a13.11,13.11,0,0,1,2.84-.11l-.1.81a14.54,14.54,0,0,0-1.7,0c-.7.05-1,.1-1,.1l0-.8Z"/><path class="cls-4" d="M83.07,30.26c.91-.15,2.4,0,2.56,2.24.19,2.6-2.51,3.58-3.62,3.88a14,14,0,0,0,1.06-6.12Z"/><path class="cls-8" d="M78.72,29.92c-.53,0-1,.58-1,1.3s.43,1.3,1,1.3,1-.58,1-1.3-.43-1.3-1-1.3Z"/><path class="cls-8" d="M80.29,28.3a13.23,13.23,0,0,0-2.85-.11l.1.81a14.54,14.54,0,0,1,1.7,0c.7.05,1,.1,1,.1l0-.8Z"/><path class="cls-8" d="M68.24,23.55a13.12,13.12,0,0,0,13.42,0l-4.42-3.27A8.92,8.92,0,0,0,75,20.15a9,9,0,0,0-2.29.13l-4.42,3.27Z"/><path class="cls-4" d="M74.2,32.24s-.66,1.95,0,2.33a2.34,2.34,0,0,0,1.63.09c-.67,1-3.75.74-1.67-2.42Z"/><path class="cls-9" d="M72.43,37.36a.19.19,0,0,1-.2-.19.2.2,0,0,1,.2-.2h5.19a.2.2,0,0,1,.19.2.19.19,0,0,1-.19.19Z"/><path class="cls-10" d="M65.89,20.33s-2.58-1.95-1.64-2.69a40.08,40.08,0,0,1,4.28-3.16c11.13-3.71,1.73-3.71,12.86,0a40.08,40.08,0,0,1,4.28,3.16c1,.74-1.64,2.69-1.64,2.69a47.31,47.31,0,0,0-18.14,0Z"/><path class="cls-11" d="M74.87,11.71c.49-.14.58.79,6.52,2.77a40.08,40.08,0,0,1,4.28,3.16c1,.74-1.64,2.69-1.64,2.69a56.17,56.17,0,0,0-9.16-.88V11.71Z"/><path class="cls-12" d="M65.89,20.33l.24,4.1s6.09-.15,9.7-.18,7.94.21,7.94.21L84,20.33a47.31,47.31,0,0,0-18.14,0Z"/><path class="cls-13" d="M66.13,24.43s.05,1.53,3.27,2.35A25.21,25.21,0,0,0,79.79,27a6.21,6.21,0,0,0,4-2.53s-4.32-.24-7.94-.21-9.7.18-9.7.18Z"/><path class="cls-3" d="M74.88,47.82h-.11V81.36h.32V47.82Z"/><path class="cls-14" d="M65.35,56.9h6.3a.22.22,0,0,1,.22.22v1.42a.22.22,0,0,1-.22.21h-6.3a.22.22,0,0,1-.21-.21V57.12a.22.22,0,0,1,.21-.22Z"/><path class="cls-14" d="M78.81,56.9H85.1a.22.22,0,0,1,.22.22v1.42a.22.22,0,0,1-.22.21H78.81a.22.22,0,0,1-.22-.21V57.12a.22.22,0,0,1,.22-.22Z"/><polygon class="cls-5" points="67.81 44.5 68.07 46.07 62.29 48.35 61.72 46.96 67.81 44.5 67.81 44.5"/><polygon class="cls-5" points="82.13 44.5 81.87 46.07 87.65 48.35 88.22 46.96 82.13 44.5 82.13 44.5"/><path class="cls-15" d="M66.38,54.89h4a.11.11,0,0,1,.11.11v.73a.11.11,0,0,1-.11.11h-4a.1.1,0,0,1-.11-.11V55a.1.1,0,0,1,.11-.11Z"/><path class="cls-16" d="M86,79.94c0-.89-.07-1.62-.11-2.24a41.2,41.2,0,0,1-9.51,1.19c-7.11.13-10.86-1-12.31-1.56,0,.62-.1,1.38-.14,2.31,2.32,1,6.68,2,14.41,1.63A30.84,30.84,0,0,0,86,79.94Z"/><path class="cls-17" d="M66.51,76l-6-1.24a1,1,0,0,0-1.23.81h0a1,1,0,0,0,.81,1.23l6,1.25L62.91,93.31a1,1,0,0,0,.8,1.24h0A1.06,1.06,0,0,0,65,93.74l4.77-22.93a1,1,0,0,0-.81-1.23h0a1,1,0,0,0-1.24.81L66.51,76Z"/><path class="cls-18" d="M68.58,80.23a.36.36,0,0,0,.15-.5.37.37,0,0,0-.5-.14,3.64,3.64,0,0,1-1.81.41c-.72,0-.7-.37-.7-.37a.37.37,0,1,0-.73,0s-.07,1,1.39,1.13a4.36,4.36,0,0,0,2.2-.51Z"/><path class="cls-19" d="M82.57,78.16s.11-1.88,1.48-2,3.25-.33,3.62.45a16.08,16.08,0,0,1,.75,4.78.59.59,0,0,1-.51.24s0,4.83-.59,5.1-2.76.62-3.35-.16-1.34-6.15-1.1-6.15-.3-2.28-.3-2.28Z"/><path class="cls-20" d="M81.36,83.73a3.44,3.44,0,1,1-4,.25,1.23,1.23,0,0,1,0-.19v-1a1.57,1.57,0,0,1,1.32-1.5s0,0,0-.08a.74.74,0,0,1,.63-.73h.81l.24.59-.13.27a1.52,1.52,0,0,1,1.15,1.45v.9Zm-1.82.72a2.2,2.2,0,1,1-2.19,2.19,2.19,2.19,0,0,1,2.19-2.19Z"/><path class="cls-21" d="M82,83.73A3.43,3.43,0,1,1,78,84a1.21,1.21,0,0,1,0-.19v-1a1.57,1.57,0,0,1,1.31-1.5v-.08a.73.73,0,0,1,1.46,0s0,.07,0,.1A1.56,1.56,0,0,1,82,82.83v.9Zm-1.83.72A2.2,2.2,0,1,1,78,86.64a2.19,2.19,0,0,1,2.19-2.19ZM80,82.33a.38.38,0,1,1-.38.38.38.38,0,0,1,.38-.38Z"/><path class="cls-16" d="M81.9,53.32a2,2,0,1,1-2,2,2,2,0,0,1,2-2Z"/><path class="cls-22" d="M81.9,54.05a1.26,1.26,0,1,1-1.26,1.26,1.26,1.26,0,0,1,1.26-1.26Z"/><path class="cls-16" d="M75,17.57a2,2,0,1,1-2,2,2,2,0,0,1,2-2Z"/><path class="cls-22" d="M75,18.3a1.26,1.26,0,1,1-1.27,1.26A1.27,1.27,0,0,1,75,18.3Z"/></svg>