<svg id="छिपकली" xmlns="http://www.w3.org/2000/svg" viewBox="0 0 150 160"><defs><style>.cls-1{fill:#fff;}.cls-2{fill:#c0baad;}.cls-3{fill:#f2ead8;}.cls-4{fill:#a48d6f;}.cls-5{opacity:0.1;}.cls-6{fill:#7a5d3b;}</style></defs><path class="cls-1" d="M127.18,126.58C111.71,97,96.73,85.7,89.54,80.27c-1.93-1.46-4.12-3.11-4.29-3.69a16,16,0,0,0-.46-3.75,13.45,13.45,0,0,1-.38-2.5c.12-.28.26-.53.39-.78a3.69,3.69,0,0,0,3,2.5,3.38,3.38,0,0,0,.6.06,3.43,3.43,0,0,0,.56,0,2.06,2.06,0,0,0,1.09.31l1.12,0,.59-.89.58-.91-.38-1a4.15,4.15,0,0,0-1.18-1.65A8.55,8.55,0,0,0,90,66a1.43,1.43,0,0,1-.23-.6,5.74,5.74,0,0,1,1.76-.33h.16a5.09,5.09,0,0,0,.77.06,3.9,3.9,0,0,0,3.1-1.35h.1a2,2,0,0,0,2-1.44l.4-1.43-1.15-.84a4.06,4.06,0,0,0-2-.77,4.73,4.73,0,0,0-2.09-.37h-.7a4.67,4.67,0,0,0,.57-.85A3.09,3.09,0,0,0,93,57a2.06,2.06,0,0,0,1.15-2l-.19-1.75-1.71-.13h-.3a4.2,4.2,0,0,0-2,.54h0a2.86,2.86,0,0,0-1.57.46A2,2,0,0,0,88.08,53l-.61-1.14H86.24l-.7,0-.53.39a4.16,4.16,0,0,0-1.5,2.19,4.51,4.51,0,0,0-.39.55h-.29l-1.36,0-.53,1.19a4.2,4.2,0,0,0,0,3.35,3.77,3.77,0,0,0,.23.89c-.71.07-1.63.19-2.82.38a7.69,7.69,0,0,0-4.17,1.89c-2-2.23-5-5.12-7.2-7.24A19.14,19.14,0,0,0,68.88,54c.25-.21.49-.42.71-.59A15.94,15.94,0,0,1,74,51.21,4.12,4.12,0,0,0,77,50l.09-.1h.13a2,2,0,0,0,2-1.44L79.54,47l-1.16-.85a4.23,4.23,0,0,0-2.28-.79l-.22-.1a3.71,3.71,0,0,0,.32-1.46,2.08,2.08,0,0,0,.87-1.86l-.19-1.75-1.71-.13h-.3a4.24,4.24,0,0,0-2.12.58,3.65,3.65,0,0,0-2.23,1.51c-.09-.16-.19-.33-.31-.51a2,2,0,0,0-.08-1.7l-.6-1.12H67.6l-.53.4a4.21,4.21,0,0,0-1.53,2.25,4,4,0,0,0-.62,1.73,2,2,0,0,0-1.47-.65L62,42.61,61.51,44a4.28,4.28,0,0,0-.17,1.78c-2.84-1.06-6.8-2.74-7.76-3.25a24,24,0,0,1-1.29-2.43c-.55-1.11-1.18-2.37-1.81-3.37-1.56-2.47-6-4.32-7.24-4.8a16.67,16.67,0,0,0-7.86-2.53,6,6,0,0,0-4.15,1.39c-2,1.8-1.77,6.53-.15,8.62a6.66,6.66,0,0,1,.73,1.81,17.52,17.52,0,0,0,2.63,5.5,16.87,16.87,0,0,0,5.77,4.92l.74.43a15.37,15.37,0,0,1-1.77,2.34,9.14,9.14,0,0,1-2-.46c0-.23,0-.49,0-.79a3.82,3.82,0,0,0-.39-1.92,3.44,3.44,0,0,0-1-2l-.61-.59h-.82l-1.19,0L33,49a3.54,3.54,0,0,0-.91-.46,4.12,4.12,0,0,0-2.54-1.26l-.12,0h-.12a2.06,2.06,0,0,0-2,1.65L27,50.63l.86.35-.36,0a3.2,3.2,0,0,0-1.5.37,4.16,4.16,0,0,0-2.64,1.08,2,2,0,0,0-.54,2.26L23.32,56H25a5.28,5.28,0,0,0,.63.62,3.38,3.38,0,0,0-1.14,1,4.17,4.17,0,0,0-1.82,1.85,2.06,2.06,0,0,0,.09,2l.64,1h1.11l.94,0,.24-.27a3.39,3.39,0,0,0,1.1.17A6.63,6.63,0,0,0,28.75,62l0,.1a2.92,2.92,0,0,0,1.68,2.24,4.12,4.12,0,0,0,1.82,1.64l.43.19h.44a2.06,2.06,0,0,0,1.92-1.34l.48-1.37-.78-.67a1.85,1.85,0,0,0,.07-.41.88.88,0,0,0,.05-.15c0-.08,0-.18.07-.29a24.31,24.31,0,0,0,3.31,2.4,3.51,3.51,0,0,0,1.71.44c2.25,0,4.26-2,6.13-4.07l.27.24.28.64A106.08,106.08,0,0,0,52.8,73.47c3.33,5.72,8.85,8.53,12.89,9.88L64.63,84l2.64.3c-1.69,2.42-3.16,4.74-3.5,6.25s.42,3.35,1.6,5.21a2.85,2.85,0,0,0-.31.12l-1.51.7.13.63a4.17,4.17,0,0,0-.69.43,4.09,4.09,0,0,0-2.33,1.45,2.08,2.08,0,0,0-.26,2.18l.6,1.17h1.09a3.66,3.66,0,0,0-.49,1.15,3.14,3.14,0,0,0-.05,1,4.18,4.18,0,0,0,.11,2.64,2.08,2.08,0,0,0,1.92,1.32l.93,0,.59-.64.61-.7,0-.24a4.56,4.56,0,0,0,.81-.28,3.71,3.71,0,0,0,1,3.37,4.53,4.53,0,0,0,.74.67,4.13,4.13,0,0,0,1.86,1.68l.43.2H71a2.08,2.08,0,0,0,1.93-1.34l.51-1.29-.7-.6a5.74,5.74,0,0,0,.44-2.7,3.62,3.62,0,0,1,.38-1.75,4.51,4.51,0,0,0,1,.62,5.67,5.67,0,0,0,2.38.67A2.94,2.94,0,0,0,78,106h.1a4.15,4.15,0,0,0,2.53-.85,2,2,0,0,0,.71-2.29l-.51-1.4H79.23a4.37,4.37,0,0,0-1.55-1.08,6.64,6.64,0,0,1-1.23-.71C76,99.31,76,98.33,76.14,96c0-.41,0-.84.08-1.3a9,9,0,0,1,2.14-4.91c.13-.16.24-.3.32-.42.35-.49.61-.82.81-1.05l.09.1a11.06,11.06,0,0,0,4.68,3.25c12.57,9.91,25.51,22.68,38.45,38l.06.07.06.06a2.74,2.74,0,0,0,1.92.8,2.79,2.79,0,0,0,2.36-1.34A2.72,2.72,0,0,0,127.18,126.58Z"/><path class="cls-2" d="M63.91,46.36c.62-.67,1.23-.13.61.56S63.28,47,63.91,46.36Z"/><path class="cls-3" d="M63.92,46.83a2.25,2.25,0,0,1-.51-2.22c.14-.41-.08,1,1,1.67C64.7,46.54,64.22,47.09,63.92,46.83Z"/><path class="cls-2" d="M67.08,43.07c0-.22.21-.47.59-.55s.71,0,.76.26-.21.47-.59.56S67.13,43.3,67.08,43.07Z"/><path class="cls-3" d="M67.4,42.91a2.25,2.25,0,0,1,.86-2.1.06.06,0,0,1,.08.08,1.85,1.85,0,0,0-.23,1.84C68.21,43.12,67.5,43.31,67.4,42.91Z"/><path class="cls-2" d="M72.65,43c.11-.2.47-.21.8,0s.52.49.41.7-.47.21-.81,0S72.54,43.19,72.65,43Z"/><path class="cls-3" d="M73,43.07a2.23,2.23,0,0,1,2-1,.06.06,0,0,1,0,.11,1.84,1.84,0,0,0-1.38,1.24C73.47,43.76,72.81,43.43,73,43.07Z"/><path class="cls-2" d="M74.69,47.29c.2-.11.51.07.7.4s.18.69,0,.81-.52-.07-.71-.4S74.49,47.41,74.69,47.29Z"/><path class="cls-3" d="M74.94,47.55a2.26,2.26,0,0,1,2.26.21.06.06,0,0,1,0,.1,1.83,1.83,0,0,0-1.83.32C75,48.39,74.59,47.76,74.94,47.55Z"/><path class="cls-3" d="M83.06,59.26A2.24,2.24,0,0,1,82.78,57a.05.05,0,0,1,.1,0,1.82,1.82,0,0,0,.71,1.71C83.87,59.05,83.34,59.55,83.06,59.26Z"/><path class="cls-3" d="M88.25,68.9a2.23,2.23,0,0,1,1.8,1.39c0,.06-.06.11-.1.06a1.82,1.82,0,0,0-1.71-.72C87.83,69.62,87.85,68.89,88.25,68.9Z"/><path class="cls-2" d="M85,56.1c0-.23.22-.47.59-.55s.71,0,.77.26-.22.47-.6.55S85.07,56.33,85,56.1Z"/><path class="cls-3" d="M85.34,55.94a2.24,2.24,0,0,1,.87-2.1c.05,0,.11,0,.08.08a1.83,1.83,0,0,0-.24,1.84C86.15,56.15,85.44,56.33,85.34,55.94Z"/><path class="cls-2" d="M89.69,56c.11-.2.47-.22.8,0s.52.49.41.69-.47.22-.81,0S89.58,56.23,89.69,56Z"/><path class="cls-3" d="M90,56.12a2.21,2.21,0,0,1,2-1,.06.06,0,0,1,0,.11,1.82,1.82,0,0,0-1.38,1.24C90.51,56.81,89.85,56.48,90,56.12Z"/><path class="cls-2" d="M93.13,61.21c.2-.11.51.07.7.41s.18.68,0,.8-.52-.07-.71-.4S92.93,61.33,93.13,61.21Z"/><path class="cls-3" d="M93.38,61.48a2.24,2.24,0,0,1,2.26.2.06.06,0,0,1,0,.1,1.83,1.83,0,0,0-1.83.32C93.41,62.31,93,61.69,93.38,61.48Z"/><path class="cls-2" d="M31.45,50.62c-.08-.22-.43-.29-.79-.17s-.59.4-.52.62.43.29.79.17S31.52,50.84,31.45,50.62Z"/><path class="cls-3" d="M31.09,50.65a2.25,2.25,0,0,0-1.82-1.36c-.07,0-.09.09,0,.11a1.83,1.83,0,0,1,1.15,1.46C30.51,51.25,31.21,51,31.09,50.65Z"/><path class="cls-2" d="M31.46,62.18c0,.23.31.41.7.41s.68-.19.68-.42-.31-.42-.69-.42S31.46,62,31.46,62.18Z"/><path class="cls-3" d="M31.81,62.26a2.23,2.23,0,0,0,1.3,1.86.05.05,0,0,0,.06-.09,1.85,1.85,0,0,1-.63-1.75C32.55,61.88,31.82,61.86,31.81,62.26Z"/><path class="cls-2" d="M26.49,58.73c-.23,0-.42.31-.42.69s.17.69.4.7.42-.3.43-.69S26.72,58.74,26.49,58.73Z"/><path class="cls-3" d="M26.4,59.08a2.26,2.26,0,0,0-1.9,1.26c0,.06.05.11.1.06a1.82,1.82,0,0,1,1.76-.59C26.76,59.84,26.8,59.1,26.4,59.08Z"/><path class="cls-2" d="M27.09,53.13c-.21-.08-.5.13-.65.48s-.09.71.12.8.5-.13.65-.48S27.3,53.22,27.09,53.13Z"/><path class="cls-3" d="M26.87,53.42a2.24,2.24,0,0,0-2.22.47s0,.12.07.1a1.82,1.82,0,0,1,1.85.1C26.94,54.26,27.24,53.59,26.87,53.42Z"/><path class="cls-2" d="M35,52.32c0-.15-.12-.34-.37-.42s-.49,0-.54.11.11.34.36.43S34.94,52.48,35,52.32Z"/><path class="cls-3" d="M34.79,52.19a1.56,1.56,0,0,0-.43-1.51,0,0,0,0,0-.06,0,1.27,1.27,0,0,1,0,1.29C34.21,52.27,34.69,52.45,34.79,52.19Z"/><path class="cls-2" d="M76.94,104.09c.2.11.51-.08.69-.42s.15-.7,0-.81-.51.09-.69.42S76.73,104,76.94,104.09Z"/><path class="cls-3" d="M77.18,103.82a2.24,2.24,0,0,0,2.25-.27.06.06,0,0,0-.05-.1,1.84,1.84,0,0,1-1.84-.26C77.19,103,76.82,103.62,77.18,103.82Z"/><path class="cls-2" d="M69.27,108.64c0,.23.32.41.7.4s.69-.18.69-.41-.32-.42-.7-.42S69.27,108.41,69.27,108.64Z"/><path class="cls-3" d="M69.62,108.72a2.23,2.23,0,0,0,1.31,1.86.05.05,0,0,0,.06-.09,1.86,1.86,0,0,1-.64-1.75C70.37,108.34,69.63,108.32,69.62,108.72Z"/><path class="cls-2" d="M63.71,104c-.15.17-.06.51.22.78s.62.34.78.18.07-.51-.21-.78S63.88,103.8,63.71,104Z"/><path class="cls-3" d="M63.91,104.27a2.27,2.27,0,0,0-.38,2.25.06.06,0,0,0,.11,0,1.83,1.83,0,0,1,.77-1.69C64.71,104.52,64.2,104,63.91,104.27Z"/><path class="cls-2" d="M64.51,99.21c-.22,0-.48.21-.57.58s0,.71.24.77.48-.2.57-.57S64.73,99.27,64.51,99.21Z"/><path class="cls-3" d="M64.34,99.53a2.25,2.25,0,0,0-2.12.81.05.05,0,0,0,.07.08,1.83,1.83,0,0,1,1.85-.18C64.53,100.35,64.73,99.64,64.34,99.53Z"/><path class="cls-2" d="M67.63,97.71c-.12-.1-.36,0-.53.18s-.21.45-.09.55.36,0,.53-.18S67.75,97.82,67.63,97.71Z"/><path class="cls-3" d="M67.43,97.86a1.54,1.54,0,0,0-1.56-.16c-.05,0,0,.08,0,.08a1.27,1.27,0,0,1,1.2.45C67.3,98.42,67.64,98,67.43,97.86Z"/><path class="cls-4" d="M125.41,127.51a.74.74,0,0,1-1.18.87c-12.69-15-25.66-28-39-38.47-5.45-1.71-4.52-6.83-8.18-1.66a11.39,11.39,0,0,0-2.83,6.38c-.18,3.34-.57,5.41,1,6.63s2.85,1,2.57,2.14-1.16.93-2.44.33-1.72-2-2.82-.92a5.61,5.61,0,0,0-1.4,4.07c.11,1.06-.55,3.62-2.17,1.82s1-3.12-.36-4-1.26-1.3-2.28-.29-3.07.9-2.78-.37,1.73-1.11,2.27-1.58.89-1.49.27-1.54-3.13-.32-2.53-1a2.41,2.41,0,0,1,3-.9c1.56.54.2-.57.16-1s1-.43,1.75.06,1.46.85,1.22.33-4.43-5.26-4-7.37,4.8-7.71,5.21-8.42c0,0-11.25-1.23-16.4-10.08A128.71,128.71,0,0,1,48,59.67c-.35-.36-1.75-1.67-2.4-1.3s-4.16,5.39-6.32,4.18-5.07-4.1-5.41-4.12S33.13,61,33,61.67s-2,1.55-2.21,0-.2-2.43-1.2-2.12-3.55,1.46-3.6,0,1.63-1.44,2.46-1.76a1.16,1.16,0,0,0-.13-2.09c-.92-.2-2.66-1.31-1.78-2.3s2-.1,2.62.2,2.05-.23,1.54-.82-.91-2-.2-2.3,1.74,0,2.23,1.4,1.18.6,1.29.22,1.25-.71,1.2,1-.36,2,.37,2.36,4.1,1.46,4.79.66c6.3-7.18.58-4-4.28-10.6-2.35-3.19-2.23-5.85-3.39-7.34s-1.1-5-.1-5.91,3.92-1.91,9.82,1.47c0,0,5,1.89,6.41,4s2.76,5.8,3.58,6.34,10.34,4.61,11.78,4.53.49-.73.07-.86S62.92,46,64.16,46s1.76.71,2,.63a1.35,1.35,0,0,0,.87-2c-.56-1.53.48-3.21,1.39-2.05s.34,1.8.53,1.91,1.4,1,2.24,0,1.7-2.83,2.73-1.41S72.57,46,72.56,46.77s2.36-.35,3,.66S75,49.2,73.94,49.21s-4.32,1.63-5.59,2.63-3.14,3-4.59,2.61.17.88.17.88,9.77,9.13,10.59,11c0,0,0-2.85,4.18-3.53s4.84-.35,5-.88a2.93,2.93,0,0,0-.51-2.05c-.42-.53-.21-2.19.32-1.44s.76,1.52.94,1.33-.18-1.44.15-3,1.56-1.85,1.83-1-.29,2.2.11,2.44,2.2-1.88,2.86-2.38,2.08.24,1.49,1.37-2.2,1.93-2,2.28a2.66,2.66,0,0,0,2.32,1.47c1.62.13,3.16-.3,3.08.82s-1.21,1.55-2.33,1.38-3.63.39-4,1.16A2.81,2.81,0,0,0,88.21,67c.63,1.09,1.29,3.36-.07,3.09S86.72,69,86.35,67.82s-.43-2.09-1.13-1.72a8,8,0,0,0-2.64,3.44c-.6,1.4.78,4.81.67,6.94C83,81.34,103.36,85.37,125.41,127.51Z"/><path class="cls-5" d="M39.61,33.58c-1.51-.41-3.76-1.12-5.42-.6a1.78,1.78,0,0,0-.72.38,5.91,5.91,0,0,0,.11,4.28C32,36.14,31.5,30.81,37,32.38A9.87,9.87,0,0,1,39.61,33.58Z"/><path class="cls-6" d="M38.43,43.07a4.86,4.86,0,0,1-.93-.66,9.68,9.68,0,0,1-.52-.88.85.85,0,0,0-.83-.47c-.4.08-.57.57-.58,1a2.52,2.52,0,0,0,1,2.14C37.49,44.82,39.94,44.12,38.43,43.07Z"/><path class="cls-6" d="M42.43,34.6a.75.75,0,0,0-.59.32.74.74,0,0,0,.06.77,2.25,2.25,0,0,0,.6.55l1.59,1.14a1,1,0,0,0,.74.27.61.61,0,0,0,.44-.41,1.15,1.15,0,0,0,0-.61A2.61,2.61,0,0,0,42.43,34.6Z"/><path class="cls-5" d="M63.29,54.24a7.43,7.43,0,0,1-5.72-4.8A23,23,0,0,0,63.29,54.24Z"/><path class="cls-5" d="M74.57,65.87c.39.91-.81-1.67,3.39,7.87A11.78,11.78,0,0,1,74.57,65.87Z"/><path class="cls-5" d="M70.72,82.66a3.24,3.24,0,0,1,4.48,1.91A7.54,7.54,0,0,0,70.72,82.66Z"/><path class="cls-5" d="M43.19,50.66a5.13,5.13,0,0,1,3,6.27A9.38,9.38,0,0,0,43.19,50.66Z"/></svg>