<svg id="चावल" xmlns="http://www.w3.org/2000/svg" viewBox="0 0 150 160"><defs><style>.cls-1{fill:#fff;}.cls-2{fill:#824235;}.cls-3{fill:#974b3d;}.cls-4{fill:#cf6853;}.cls-5{fill:#542b23;}.cls-6{fill:#f4f4f4;}.cls-7{fill:#ff8166;}.cls-8{fill:#f27a61;}.cls-9{fill:#b05647;}.cls-10{fill:#a65343;}.cls-11{fill:#6e362d;}.cls-12{fill:#ff9f8a;}.cls-13{fill:#69372b;}.cls-14{fill:#8c4639;}.cls-15{fill:#dbdbdb;}.cls-16{fill:#c7c7c7;}</style></defs><path class="cls-1" d="M138.09,72.2a5.16,5.16,0,0,0,0-.67V67.81c0-2.52-1.84-4.69-5.62-6.62a2.33,2.33,0,0,0-.32-.55,4.75,4.75,0,0,0-3.54-1.55c0-.12,0-.23,0-.34a3,3,0,0,0-1.12-2.11,2.86,2.86,0,0,0-.71-.38,3.14,3.14,0,0,0-.74-.15,3.31,3.31,0,0,0-.46-1.59,2.84,2.84,0,0,0-2.49-1.33h-.21a4.08,4.08,0,0,0-3.34,2.35,2.77,2.77,0,0,0-1.68-2,3.36,3.36,0,0,0-.49-1.95,2.57,2.57,0,0,0-2.16-1.14c-.95,0-1.9.44-3.07,2.15a2.8,2.8,0,0,0-.54-.63,5.06,5.06,0,0,0,.66-1,3.11,3.11,0,0,0,.28-1.76,2.82,2.82,0,0,0-.35-1,2.76,2.76,0,0,0-1.83-1.32,3.88,3.88,0,0,0-.87-.09A6.42,6.42,0,0,0,108,47a17.23,17.23,0,0,0-3.5,1.43l0-.17a4.63,4.63,0,0,0-1.23-3,2.43,2.43,0,0,0-1-.57,2.34,2.34,0,0,0-.74-.12c-1.09,0-2.26.47-3.1,3.36h0a2.27,2.27,0,0,0-.63.08,2.62,2.62,0,0,0-.46.17,3.73,3.73,0,0,0-.51-1.59,2.43,2.43,0,0,0-2.06-1.16A4.32,4.32,0,0,0,91.93,47a2.3,2.3,0,0,0-1.78-1.8l-.26-.06h-.22a2.09,2.09,0,0,0-1.67.71,2,2,0,0,0-.21-.32,2.41,2.41,0,0,0-2-1h-.23A3.9,3.9,0,0,0,84.83,43a2.83,2.83,0,0,0-2.18-1,2.7,2.7,0,0,0-2,.87A7.37,7.37,0,0,0,79.32,47a3.2,3.2,0,0,0-1.25.28l-.22.1A4.38,4.38,0,0,0,75,44.08a2.57,2.57,0,0,0-.67-.09,2.45,2.45,0,0,0-1.94,1c-.28.37-.89,1.16-.58,4a2.7,2.7,0,0,0-.6-.39,3.45,3.45,0,0,0,0-1.75,2.58,2.58,0,0,0-1.55-1.66,2.46,2.46,0,0,0-.89-.16c-.63,0-1.92,0-3.35,3a2.19,2.19,0,0,0-1-.22,2.22,2.22,0,0,0-1.08.27,4.26,4.26,0,0,0-.54-.15,4.07,4.07,0,0,0-.61-.05h-.3c.12-2.32-.65-3-1-3.3a2.36,2.36,0,0,0-1.52-.56c-.67,0-1.8,0-3.77,3.35a2.46,2.46,0,0,0-.86-.14h-.15l-.2,0A5.35,5.35,0,0,0,52,44.57a2.87,2.87,0,0,0-1.36-.37,2.38,2.38,0,0,0-1.91,1c-.28.37-.91,1.2-.46,4.22a3,3,0,0,0-.5.11,3.5,3.5,0,0,0-.7-1.19,2.63,2.63,0,0,0-1.93-.85h-.25a2.9,2.9,0,0,0-1.85.91,3,3,0,0,0-1.59-.44A2.67,2.67,0,0,0,41,48a3,3,0,0,0-1.71.87,2.51,2.51,0,0,0-2.23-1.33,2.2,2.2,0,0,0-1.27.4c-.8.57-1.44,1.38-.72,4.42a2.94,2.94,0,0,0-1.67.92,7.17,7.17,0,0,0-1.69,3.47l-.69.14A3.72,3.72,0,0,0,28.16,55a2.49,2.49,0,0,0-1.07.24A2.71,2.71,0,0,0,25.59,58a2.46,2.46,0,0,0-.6.32C16.16,60.89,11.86,64,11.86,67.81v3.72a5.16,5.16,0,0,0,.05.67C9.12,74.54,7.7,77.09,7.7,79.78a8.14,8.14,0,0,0,1.18,4.14L8,84l3.6,3.18c.16.14,16.47,14.55,23,20.18q.64.61,1.35,1.17l3.35,2.84v-.62c8.12,4.58,21.31,7.34,35.71,7.34,17.88,0,33.78-4.26,40.54-10.86,5.61-4.88,17.58-15.44,22.48-19.76l.26-.23c2.67-2.31,4-4.81,4-7.43S140.88,74.55,138.09,72.2Z"/><ellipse class="cls-2" cx="75" cy="99.78" rx="42.1" ry="16.28"/><path class="cls-2" d="M28.64,85.65a17.11,17.11,0,0,0-2-.25C22.13,85,13,85.65,13,85.65s19,16.74,24.33,21.37l-.51-15.35-8.33-6.08Z"/><path class="cls-2" d="M121.33,85.66a17.14,17.14,0,0,1,2-.25,119.25,119.25,0,0,1,13.69.25s-19,16.75-24.32,21.38l.51-15.36,8.33-6.08Z"/><ellipse class="cls-3" cx="75" cy="79.78" rx="65.3" ry="18.75"/><path class="cls-2" d="M102.55,84.38c-3.26.35-.09,10.84,2,10.4S104.93,84.13,102.55,84.38Z"/><path class="cls-2" d="M116.05,83.88c-2.71.85,1.32,8.79,2.82,8.09S117.63,83.38,116.05,83.88Z"/><path class="cls-2" d="M123.24,82.2c-1.42.7,1.06,8.13,2.55,7.33S125.18,81.22,123.24,82.2Z"/><path class="cls-3" d="M131.13,78.41c-1.68.87,2.12,7,3.44,6.3S133.07,77.41,131.13,78.41Z"/><ellipse class="cls-2" cx="75" cy="71.53" rx="61.14" ry="12.81"/><polygon class="cls-2" points="136.14 67.81 136.14 71.53 132.81 73.58 132.19 70.06 134.57 67.81 136.14 67.81"/><path class="cls-2" d="M15.74,67.06l-1.88.75v3.72s2.93,1.35,2.93,1.08a15.61,15.61,0,0,1,0-1.94A22.41,22.41,0,0,0,15.74,67.06Z"/><ellipse class="cls-4" cx="75" cy="67.81" rx="61.14" ry="12.81"/><ellipse class="cls-5" cx="75" cy="67.06" rx="54.13" ry="11.35"/><path class="cls-6" d="M128.37,69s2.32-3.55,1.79-4.47-1.79.31-1.79.31l-1.65-1.11s3.48.59,4-1.18S126.37,61,126.37,61s.79-2.53-.22-2.88S123,59.88,123,59.88s2.39-4.82,0-4.69S120,61,120,61s0-2.88-1.15-2.53-1.77,2.16-1.77,2.16.36-1-1.19-1.32a4.26,4.26,0,0,0-1.93-.15s3.87-1.71,3.65-3.12-2.25-.35-2.25-.35,1.24-3.22-.13-3.26-3.84,6-3.84,6-.3-5-1.27-5-2.43,3-2.43,3,.88-2.87-1-3.18c0,0,4.63-2.6,3.75-4.14s-6.8,1.67-7.94,3c0,0,.35-5.2-.88-5.6s-2,5.21-2,5.21-.61-2.08-1.45-1.86S98,52.63,98,52.63,97,51,96.11,51.22a6.21,6.21,0,0,0-2,1.5s1.86-3.75,1-5.16S91,51.88,91,52s-.84,0-.84,0,.36-4.68-.44-4.85-2.42,5.12-2.42,5.12l-1.86-.4s1.86-5.51.31-5.36S83.58,49,83.58,49s.88-5-.93-5-1.36,7.41-1.36,7.41-.8-3-2.43-2.25-.93,3.31-.93,3.31l-1.54-1.1s0-4.81-1.9-5.29.22,7.14.22,7.14-1.19-2.51-2.29-1.72a2.35,2.35,0,0,0-.75,2.3l-4.23-.58s3.44-1.59,3.22-2.47-2.43-.35-2.43-.35,1.9-2.87.66-3.35-2.82,4.85-2.82,4.85-1.19-2.12-1.68-2.12-1,2.34-1,2.34.44-2-1-2.25-3.36,1.94-3.36,1.94,1.46-4.9.49-5.73-3.79,5.29-3.79,5.29-.14-2.25-1.11-2.16S53,50.56,53,50.56s.13-3.09-1.94-4.24,0,6.22,0,6.22-1.5-1.63-2.78-1.1a4.75,4.75,0,0,0-2,2.16s.27-4.28-1.15-4.14-1.63,3.83-1.63,3.83-.48-3.61-2.16-3.35-1.54,4.37-1.54,4.37S37.7,49,37,49.54s1.11,5.65,1.11,5.65l-1.5,2.43s-.14-3.27-1.11-3.31S32.68,57.88,34,60.26L31,60.75s-1.89-4.19-3-3.66.57,4.15.57,4.15-2-2.08-2.49-1.11,1.87,4.77,1.87,4.77-2.44-2.34-2.78-1.33,1.24,2.08,1.24,2.08-3.4-1.77-4,.17,3.17,2,3.17,2-3.26-.45-4.05,1c0,0,5.24,9.59,53.48,9.59C122,78.41,128.37,69,128.37,69Z"/><path class="cls-7" d="M31,75.56a133.82,133.82,0,0,0,14.69,2c-4.41-.76-8.82-1.64-12.73-2.63Z"/><path class="cls-7" d="M27.14,73.16c-3.48-1.22-6.07-2.58-7.16-4.1-2.62-3.68,2.24-5.84,2.24-5.84S13.86,66,15.33,68.73c1.3,2.41,5.3,4.2,10,5.51Z"/><path class="cls-8" d="M123.91,73.34a43.52,43.52,0,0,1-7.45,2.52c2.4-.5,5.17-1.15,7.82-1.91Z"/><path class="cls-8" d="M130.75,64.94s1.78,1.85-.35,4.17a17.72,17.72,0,0,1-4.68,3.35l.94.78C133.6,71,138.44,68,130.75,64.94Z"/><path class="cls-9" d="M11.94,75.86c-.47.56-2.74,6.06,7.94,12.5s39.7,8.38,39.7,8.38L78.81,85.28S22.67,86.6,13.86,73.72C13.86,73.72,12.82,74.84,11.94,75.86Z"/><path class="cls-3" d="M49.94,85.28c-2,0-6.21,9.39-2.38,9.66S52.46,85.28,49.94,85.28Z"/><path class="cls-2" d="M49.71,86.41c-1.21-.08-4.27,7-2,7.4S51.21,86.53,49.71,86.41Z"/><path class="cls-3" d="M39.36,83.87c-2-.38-5.79,8.33-2.6,9S42.13,84.38,39.36,83.87Z"/><path class="cls-3" d="M27.38,81.37c-2-.45-6.92,6.69-4.5,7.7C25.68,90.23,30.73,82.13,27.38,81.37Z"/><path class="cls-10" d="M19.7,90.74,39.82,107C47.69,106,52.07,102.12,56,99,56,99,36.38,98.24,19.7,90.74Z"/><path class="cls-11" d="M31,95.51a157.66,157.66,0,0,0,45.45,7.54c26,.53,44.84-7.92,44.84-7.92S85.12,123.44,31,95.51Z"/><path class="cls-2" d="M39.14,84.67c-1.2-.09-4.26,7-2,7.4S40.65,84.79,39.14,84.67Z"/><path class="cls-2" d="M27.2,81.84c-1.15-.35-5.66,5.94-3.51,6.8S28.65,82.27,27.2,81.84Z"/><path class="cls-12" d="M22,88.25s-.48-1,1.24-3.76a9.07,9.07,0,0,1,3.35-3.43s-1.92.16-3.6,2.83S22,88.25,22,88.25Z"/><path class="cls-12" d="M35.44,91.74s-.71-.92.36-3.94a9.12,9.12,0,0,1,2.49-4.1s-1.83.58-2.86,3.56S35.44,91.74,35.44,91.74Z"/><path class="cls-12" d="M45.74,94.43s-.84-1.06.45-4.59,3-4.8,3-4.8-2.19.69-3.44,4.17S45.74,94.43,45.74,94.43Z"/><path class="cls-13" d="M102.19,85.28a5.82,5.82,0,0,1,2.56,3.61,13.79,13.79,0,0,1-.26,5.3A30.58,30.58,0,0,0,102.19,85.28Z"/><path class="cls-13" d="M116,85A3.77,3.77,0,0,1,118,87a8.9,8.9,0,0,1,.34,3.43A20,20,0,0,0,116,85Z"/><path class="cls-13" d="M123.37,83a3.77,3.77,0,0,1,2,2.08,8.85,8.85,0,0,1,.34,3.42A20,20,0,0,0,123.37,83Z"/><path class="cls-14" d="M136.14,73.72s4.21,4,3.5,7-4.57,6.86-13.6,9.79C126,90.46,136.34,80.69,136.14,73.72Z"/><path class="cls-15" d="M128.37,69s2.32-3.55,1.79-4.47-1.79.31-1.79.31l-1.65-1.11s3.48.59,4-1.18S126.37,61,126.37,61s.79-2.53-.22-2.88S123,59.88,123,59.88s2.39-4.82,0-4.69S120,61,120,61s0-2.88-1.15-2.53-1.74,2.06-1.77,2.16c0-.07.3-1-1.19-1.32a4.26,4.26,0,0,0-1.93-.15s3.87-1.71,3.65-3.12-2.25-.35-2.25-.35,1.24-3.22-.13-3.26-3.84,6-3.84,6-.3-5-1.27-5-2.43,3-2.43,3,.88-2.87-1-3.18c0,0,4.63-2.6,3.75-4.14s-6.8,1.67-7.94,3c0,0,.35-5.2-.88-5.6s-2,5.21-2,5.21-.61-2.08-1.45-1.86S98,52.63,98,52.63s-6.73.75-5.27,2.36,3.77.73,3.77.73S94.8,58.65,95.73,59a5.85,5.85,0,0,0,2.78-.26l-.66,1.65s-3.31-.59-4.17,0S96.06,62,96.06,62s3-.07,2.12.79-4.5.4-4.5.4-4.83-1.67-5.49.12,4.89,1.6,4.89,1.6L90.9,66.4s-.93-2.25-2.18-1.46-.59,2.45-.59,2.45S87.06,65.2,86.2,66s.6,3.09.6,3.09-4,.41-4.11,1.08,2.45.53,2.45.53-1.65,1.12-1.59,2,3.25,0,3.25,0l-.27,1.92S84,73.47,82.69,74s0,1.59,0,1.59-3.37-2.42-4.43-1.87.55,2.14.55,2.14l-2.27.33s1.5-2.3-.41-2.47-1.84,2.93-1.84,2.93-3-3-3.7-1.77c-.44.74,1,2.35,2.3,3.52H75C122,78.41,128.37,69,128.37,69Z"/><path class="cls-15" d="M81.55,63.15a3.45,3.45,0,0,0-3,.27s1.59-3.27.53-3.09-2,1.59-2,1.59l-1.59-.27s-2.38,1-1.79,1.33,3.91.4,3.25,1.33-3.34,0-3.34,0-3-1.13-2.75.06a5.65,5.65,0,0,0,1,2.18s-3.17.66-2.66,1.45,4.13-.61,4.13-.61-.44.8,0,1.28,1.86-2.12,1.86-2.12,4.85,1.37,5.64,0-2.29-1.72-2.29-1.72S83,63.86,81.55,63.15Z"/><path class="cls-15" d="M83.51,54.84s4.9-.79,4.7.4-3.77,1.65-3.77,1.65,2.71.8,2,1.46-4.56-.4-4.56-.4l-2.65-1.38s3.61,1.18,3.81.32-1.23-1.75-1.23-1.75Z"/><path class="cls-1" d="M54.52,71.22s-5.34,0-3.9-1.28,4.24-1.23,4.24-1.23-3.18.19-3-.73S59,66.44,59,66.44s-1.48-.13-1.05-.88S62.2,66,62.2,66s-2.71-.15-2.67.65,1.14,1,1.14,1-4.22-.51-4.44,0S57.88,69,57.88,69s-2.18.54-1.75,1.75,3.43.19,3.43.19-4.92,4.75-5.06,3.16a1.94,1.94,0,0,1,1-2.06s-1.65,1.15-1.31.18Z"/><path class="cls-15" d="M64.37,74.47s2.87.56,3.33,0-1.45-1-1.45-1,1.19-1.35.13-1.47a2.24,2.24,0,0,0-1.79.72S66.39,73.78,64.37,74.47Z"/><path class="cls-1" d="M62.82,58.45s-4.61-2.73-5.36-1.6,2,2.56,2,2.56-3.79-.24-3.42.83,4,.34,4,.34-1.34,1.68-.16,1.5,1.9-1.79,1.9-1.79-1.3.16-1.12-.81-1-1.2-1-1.2Z"/><path class="cls-16" d="M105.29,60.75c1.11-.79,6.06-2.33,5-.69a5.55,5.55,0,0,1-2.16,2.1s4.3-.74,4.35,0-2.14,1.67-2.14,1.67,1.26-.08,1,.73-2.77,1.29-2.77,1.29,4.26-1,4.42-.21-6.3,2.46-6.3,2.46,4.47-.67,4.64.54-2.83,2.22-2.83,2.22,4.14,0,3.47,1.14-4.39,0-4.39,0,0,3.06-1.53,2.79-.31-2.27-.31-2.27-3.72,3-4,1.71a3.56,3.56,0,0,1,1-2.56s2.87.63,2.76-.72S103,69.8,103,69.8s3.8-.17,3.43-1.06-3.24-.15-3.24-.15l.41-1.36s2.3.82,2.42,0-4.07-1.34-4.07-1.34,4.7-1,4.63-1.71-2.1-.62-2.1-.62,3.09-.17,2.83-1.14-2.3-.33-2.3-.33l-.81-.6S104.17,61.56,105.29,60.75Z"/><path class="cls-1" d="M50.37,56.07c0-1.23-1-2-1.73-1.08s0,3.73,0,3.73-3.08-2.5-3.53-1.82,1.79,2.86,1.79,2.86-4.17-1.31-5.23-1,2,2,2,2l-1.32,1.06s-.94-1.68-1.75-1.68,0,2.31,0,2.31H38.07s-.22-1.22-.78-1.41-.95,2.54-.95,2.54L35,64s-.09-2.69-1.06-1.81a3.7,3.7,0,0,0-1,2.38S31.15,63.22,31,64,32.9,66.4,32.9,66.4s-1.65.47-1.95,1.41c-.88,2.7,7.34,4.84,7.34,4.84s-3.85-3.73-3-4.84,4,.92,4,.92a11.17,11.17,0,0,1-1-2.29c.06-.35,2,.31,2,.31s-1.21-2.53-.5-2.77,2.66,2.72,2.66,2.72l1.85-.36S41,64.1,41.67,63.66,46,64.79,46,64.79V63.22s-1.53-1-.81-1.56,2.92,1.12,2.92,1.12l.55-1.12s-2.23-.65-1.48-1.18,2,.18,2,.18l1.19-1.33s0-.88,2.68-.61S56,58.28,56,58.28s-2.13-1.55-3.81-1.13c0,0,3.31-2.1,2-2.56S50.37,56.07,50.37,56.07Z"/></svg>