<svg xmlns="http://www.w3.org/2000/svg" viewBox="0 0 150 160"><defs><style>.cls-1{isolation:isolate;}.cls-2{fill:#fff;stroke:#fff;stroke-miterlimit:10;stroke-width:5px;}.cls-3{fill:#b18760;}.cls-4{fill:#d8d2ca;}.cls-5{fill:#7a7670;opacity:0.22;mix-blend-mode:multiply;}.cls-6{fill:#a3a09d;}</style></defs><g class="cls-1"><g id="फावड़ा"><path class="cls-2" d="M90,115.73a2.49,2.49,0,0,0-1.69-2.33l-9.1-3a2.45,2.45,0,0,1-1.68-2.27c-.33-4.49-.53-11.66-.78-18.75L76.62,84a2.78,2.78,0,0,0-.08-.66h0V29.93l2.06,0A2.29,2.29,0,0,0,80.75,28L83.5,13.37c.47-2.5-.78-4.18-2.28-4.16l-12.46.15c-1.51,0-2.72,1.73-2.19,4.22l3.11,14.58A2.29,2.29,0,0,0,71.89,30l1.59,0V83.3h0a2.78,2.78,0,0,0-.08.66l-.1,5.42c-.25,7.1-.45,14.29-.78,18.79a2.45,2.45,0,0,1-1.68,2.27l-9.1,3A2.49,2.49,0,0,0,60,115.73l-.21,32.58a2.47,2.47,0,0,0,2.46,2.48H87.72a2.47,2.47,0,0,0,2.46-2.48ZM72,25.91c-1.29-6.66-1.93-10-2.24-11.59a1.19,1.19,0,0,1,1.06-1.49l8.27-.1a1.27,1.27,0,0,1,1.16,1.55c-.28,1.64-.85,5-2,11.56a1.57,1.57,0,0,1-1.5,1.32l-3.27,0A1.56,1.56,0,0,1,72,25.91Z"/><rect class="cls-3" x="73.48" y="29.74" width="3.04" height="68.71"/><path class="cls-4" d="M90,115.73a2.49,2.49,0,0,0-1.69-2.33l-9.1-3a2.44,2.44,0,0,1-1.68-2.27c-.37-5.14-.59-13.82-.89-21.85a1.75,1.75,0,0,0-1.5-1.67v0h-.22v0a1.75,1.75,0,0,0-1.5,1.67c-.3,8-.52,16.71-.89,21.85a2.44,2.44,0,0,1-1.68,2.27l-9.1,3A2.49,2.49,0,0,0,60,115.73l-.21,32.58a2.47,2.47,0,0,0,2.46,2.48H87.72a2.47,2.47,0,0,0,2.46-2.48Z"/><path id="shadow" class="cls-5" d="M90,115.73a2.49,2.49,0,0,0-1.69-2.33l-9.1-3a2.44,2.44,0,0,1-1.68-2.27c-.37-5.14-.59-13.82-.89-21.85a1.75,1.75,0,0,0-1.5-1.67v0h-.22v0a1.75,1.75,0,0,0-1.5,1.67c-.3,8,1,16.81.59,22,0,.38.6,1,.44,1.33.29.57.15,1,.78,1.21l7.56,2.59a2.49,2.49,0,0,1,1.69,2.33l.21,32.58a2.47,2.47,0,0,1-2.47,2.48h5.53a2.47,2.47,0,0,0,2.46-2.48Z"/><path class="cls-6" d="M78.58,29.9,71.89,30a2.29,2.29,0,0,1-2.21-1.82L66.57,13.58c-.53-2.49.68-4.2,2.19-4.22l12.46-.15c1.5,0,2.75,1.66,2.28,4.16L80.75,28A2.29,2.29,0,0,1,78.58,29.9Zm-5-2.7,3.27,0a1.58,1.58,0,0,0,1.5-1.32c1.1-6.58,1.67-9.92,2-11.56a1.27,1.27,0,0,0-1.16-1.55l-8.27.1a1.19,1.19,0,0,0-1.06,1.49c.31,1.61,1,4.93,2.24,11.59A1.56,1.56,0,0,0,73.57,27.2Z"/><path class="cls-6" d="M75,124.29c-2-8.9-2-4.56-1.92-23.2h0L73.38,84a2.78,2.78,0,0,1,.08-.66h3.08a2.78,2.78,0,0,1,.08.66L76.94,101h0C77,119.71,77,115.39,75,124.29Z"/></g></g></svg>