<svg xmlns="http://www.w3.org/2000/svg" viewBox="0 0 150 160"><defs><style>.cls-1{isolation:isolate;}.cls-2{fill:#fff;}.cls-3,.cls-5{fill:#de6d34;}.cls-4{fill:#ba2407;}.cls-5{opacity:0.47;}.cls-5,.cls-9{mix-blend-mode:multiply;}.cls-6{fill:#730c01;}.cls-7{fill:#f7ac48;}.cls-8{fill:#fcfcfa;}.cls-9{opacity:0.4;}.cls-10{opacity:0.29;}.cls-10,.cls-11{mix-blend-mode:overlay;}.cls-11{opacity:0.11;}</style></defs><g class="cls-1"><g id="वीणा"><path class="cls-2" d="M100,15.22s-6.82-1.13-10.63,7.1L88.16,26l-3-1a1.84,1.84,0,0,0,0-.41,1.93,1.93,0,1,0-.44,1.21l3.11,1-.19.58h0l0,.14-.78,2.37-3.05-1v-.06a1.91,1.91,0,1,0-1.9,1.91,1.92,1.92,0,0,0,1.67-1l3,1-2,6-2.56-.84a1.93,1.93,0,0,0,.05-.42,1.93,1.93,0,1,0-.44,1.21l2.68.89-1,3.2-2.67-.88a.11.11,0,0,0,0,0,1.93,1.93,0,1,0-.24.9l2.63.86-1,3.07h0l-.22.66-2.68-.88s0,0,0-.06a1.95,1.95,0,1,0-.24.9l2.64.87L76.12,62.79l-.13.39h0L74.5,67.76h0L74.11,69h0l-1.5,4.58h0l-.2.62L70.63,79.6l-.29.88h0l-1.71,5.21-.18.55h0l-1.62,5s-1.61,4-4.46,5.51c-.21.11-.43.21-.65.3l-.22.08a5,5,0,0,1-.87.21l-.35.06h0l-.27.06-.22,0-.3.08-.26.07-.34.1-.3.09-.37.12-.33.11-.41.15-.34.13-.45.17-.36.15-.48.2-.38.17-.43.19h0l0,0-.05,0h0c-.35.17-.71.34-1.07.53l-.32.17-.41.21-.63.36-.23.14c-.39.23-.77.46-1.16.71l-.13.09-.21.14-.67.46-.42.3-.18.13h0l-.1.08h0l-.09.07a26.73,26.73,0,0,0-2.4,2l-.28.27q-.43.43-.87.9c-.1.1-.2.21-.29.32a2.73,2.73,0,0,0-.23.25c-.26.29-.5.6-.75.91l-.06.08h0a.18.18,0,0,0,0,.07l0,0h0l0,0c-.33.43-.65.89-1,1.36-.09.13-.17.27-.25.4-.24.39-.46.78-.68,1.19-.07.12-.14.25-.2.38-.27.53-.51,1.07-.73,1.63,0,.09-.07.19-.11.28l-.18.52c-.1.29-.2.59-.29.9v0l-.09.25h0c0,.11,0,.21-.07.32-.09.34-.17.7-.24,1l-.12.62c-.07.4-.12.81-.16,1.23,0,.17,0,.34-.06.51-.05.6-.08,1.21-.08,1.84,0,0,0,0,0,.06,0,.57,0,1.15.07,1.74h0a.77.77,0,0,1,0,.15v0s0,0,0,0h0c0,.47.09.94.16,1.42l.09.54c.06.42.14.83.23,1.26,0,.18.07.36.12.54.13.59.28,1.19.46,1.8h0c.18.62.38,1.21.59,1.78,0,.13.09.25.13.37h0c0,.09.07.16.1.25s.12.34.19.5h0c.11.27.22.56.34.82l.3.63c.16.31.31.62.47.92s.25.45.38.67l.45.75q.21.33.42.63l.48.67.45.57c.17.21.35.41.52.61s.3.35.46.51.44.43.66.64l.34.34c.13.12.28.22.41.34l.56.46h0l.19.16a16.87,16.87,0,0,0,2.46,1.55c.25.13.51.24.77.36h0l.29.13h0l0,0v0l.61.2c.25.1.49.2.74.28h0l.08,0,.15.05.07,0h0c.39.13.78.25,1.18.36l.24.06h0l.3.07h0a54.58,54.58,0,0,0,14.06,2.38h.17c.46,0,.92,0,1.37,0l.43,0c.4,0,.79,0,1.18-.06l.44,0c.42,0,.85-.08,1.26-.13l.28,0c.52-.07,1-.16,1.54-.26l.2,0,1.26-.3.43-.12c.34-.1.68-.2,1-.32a3.26,3.26,0,0,0,.44-.15c.36-.12.71-.26,1.06-.41l.33-.14c.46-.2.9-.41,1.34-.64l.16-.09c.38-.21.75-.42,1.11-.65l.39-.26c.29-.19.58-.39.86-.6l.4-.31c.28-.22.56-.46.84-.7l.32-.29c.38-.35.75-.71,1.1-1.1l.1-.1q.48-.53.93-1.11l.31-.41q.35-.45.66-.93l.33-.49c.21-.34.41-.68.61-1l.27-.48c.28-.51.55-1,.8-1.61,7.77-17.09-8.37-29.81-12.24-33.86a7,7,0,0,1-.6-.75c-.06-.09-.1-.18-.16-.27a4.68,4.68,0,0,1-.3-.54c0-.11-.1-.22-.14-.33a5.55,5.55,0,0,1-.2-.52c0-.12-.07-.24-.1-.36a5,5,0,0,1-.12-.53c0-.13,0-.25-.07-.37a5.32,5.32,0,0,1-.06-.56c0-.11,0-.23,0-.35a6.94,6.94,0,0,1,0-.79c0-.16,0-.32,0-.48a18.28,18.28,0,0,1,1.47-5.82l9.52-36.15.08.12.21.26q.15.21.33.42l.24.26c.12.12.24.25.37.37l.26.24a4.87,4.87,0,0,0,.42.35l.27.21c.16.12.33.23.5.34l.25.16a4.13,4.13,0,0,0,.42.22h0l.39.2.19.08h0a9.94,9.94,0,0,0,1.94.62h0l.2,0c.23,0,.45.08.68.1l.34,0c.21,0,.42,0,.64,0h.21a9.61,9.61,0,0,0,2.2-.28L99,54h0l.13-.05a7.77,7.77,0,0,0,.92-.33l.13,0v0A9.4,9.4,0,0,0,102.73,52a8.08,8.08,0,0,0,.66-.65,9.43,9.43,0,0,0,1.13-1.51,8.84,8.84,0,0,0,.46-.86,8.43,8.43,0,0,0,.46-1.2,1.71,1.71,0,0,0,.09-.3,8.76,8.76,0,0,0,.27-1.21h0a9.53,9.53,0,0,0-1-5.69v0l-.07-.11a9.28,9.28,0,0,0-.7-1.13h0a9.27,9.27,0,0,0-1.26-1.4h0a.1.1,0,0,0,0,0,8.69,8.69,0,0,0-.75-.61l-.25-.17a7.31,7.31,0,0,0-.66-.41l-.12-.08h0l-.51-.27c-.26-.12-.52-.23-.78-.32h0l-.31-.1L99,35.75h0a9.53,9.53,0,0,0-6.72.56l1.27-4.8,2,.72a1.4,1.4,0,0,0-.06.41,1.9,1.9,0,1,0,2-1.84,1.88,1.88,0,0,0-1.48.65l-2.17-.79,1-3.86c4.51.83,3.91,3.23,3.91,3.23-.86,1.35,9.15,4,10.89-2.65S105.68,15.73,100,15.22ZM40.83,114.47h0Z"/><path class="cls-2" d="M101.32,10.4A14.16,14.16,0,0,0,91,12.68,17.68,17.68,0,0,0,84.54,21c-.44,1.22-.8,2.46-1.21,3.69l6.15-3.49-3-1L90.16,25A6.85,6.85,0,0,0,85,17.92a7,7,0,0,0-7.78,3.5,6.89,6.89,0,0,0,11.11,7.93l-4.87,1.29,3.11,1-3.49-6.15c-.33,1-.67,2.06-1,3.09l6.15-3.49-3-1,3.67,4.82c.31-3.09-2.39-6.05-5.23-6.75A6.89,6.89,0,0,0,78.73,35c3.36,1.8,7.17.35,9.17-2.68l-5.64,2.3,3,1-3.49-6.15-2,6L86,32l-2.56-.84,3.67,4.82a6.87,6.87,0,0,0-5.19-7.11,7,7,0,0,0-7.77,3.51,6.89,6.89,0,0,0,11.1,7.93l-4.86,1.28,2.68.89-3.49-6.15-1.05,3.2L84.64,36,82,35.11l3.67,4.82c.32-3.08-2.38-6-5.22-6.75A6.89,6.89,0,0,0,75.56,46c3.36,1.8,7.17.35,9.17-2.68l-5.65,2.3,2.63.86-3.49-6.15C77.81,41.56,77.41,42.8,77,44l6.15-3.49-2.68-.88,3.67,4.82c.32-3.09-2.38-6.05-5.22-6.75a6.89,6.89,0,0,0-4.86,12.8c3.36,1.8,7.17.35,9.17-2.68l-5.65,2.3,2.64.87-3.49-6.16q-3.26,9.93-6.5,19.86L63.84,84.27c-.59,1.8-1.26,3.6-1.77,5.42-.23.82.81-1.71.25-.6a17.63,17.63,0,0,1-1,1.75l-.32.48c-.46.72.58-.55.13-.16s-.67.72-1,1-.32.06,0,0c.34-.25.33-.26,0,0l-.29.16c-.9.59.36-.18.33-.12s-1.06.24-1.22.26l6.33,4.83h0A5.07,5.07,0,0,0,59,92.52a32.54,32.54,0,0,0-6.45,2.34l7.35,3h0a5.1,5.1,0,0,0-7.35-3l-.12.06A4.7,4.7,0,0,0,50,98.58a5.14,5.14,0,0,0,1.37,4.2h0l1-7.85a39.75,39.75,0,0,0-5.44,3.23c-2,1.41-3.51,4.54-1.79,6.84h0L47,98.17l-.1.07,7.34,3h0a5.08,5.08,0,0,0-3.49-3.49A5.26,5.26,0,0,0,45.83,99l.58-.44-1,.78c-.3.23-.59.46-.87.7-.51.43-1,.87-1.46,1.33-.79.78-1.5,1.62-2.21,2.46-2.24,2.68-1.71,5.81,1,7.86h0l-1-7.86c-.28.36-.58.74-.85,1.11h8.64a5,5,0,0,0-4.32-2.48A5.19,5.19,0,0,0,40,105a30.06,30.06,0,0,0-4,8.18,5,5,0,0,0,4.82,6.33h0L36,113.14a30.38,30.38,0,0,0-.85,8.7L41.48,117h0c-2.86-.64-6.68,1.41-6.33,4.82l0,.25a5.07,5.07,0,0,0,6.33,4.82h0l-6.33-4.82a36.3,36.3,0,0,0,2,9L42,124.81h0a5.29,5.29,0,0,0-3.93,2,4.69,4.69,0,0,0-.89,4.36l.29.75a5.14,5.14,0,0,0,2.89,3.24,4.8,4.8,0,0,0,4.45-.26h0l-7.34-3A26,26,0,0,0,45,142.64a5.15,5.15,0,0,0,4.2,1.38,4.77,4.77,0,0,0,3.65-2.39h0l-7.86,1a20.29,20.29,0,0,0,4.43,2.85l-2.3-5.65h0c-.61,1.91.37,4.78,2.3,5.65l.28.13c3,1.35,6.27.33,7.35-3h0l-7.34,3,0,0L47.42,140v0c-1,2.62,1.11,5.36,3.49,6.15l1.35.48-3.49-6.15h0c-.86,2.68,1,5.3,3.49,6.15l.3.1c2.64.9,5.35-1.05,6.15-3.49h0l-6.15,3.49a14.4,14.4,0,0,0,1.42.42L50.48,141h0A5,5,0,0,0,54,147.19l.31.08a5.12,5.12,0,0,0,6.15-3.5h0l-6.15,3.5c2.38.54,4.69,1.25,7.11,1.67a56.32,56.32,0,0,0,8.3.89L68.36,140h0a5.07,5.07,0,0,0-3.58,5.49,5,5,0,0,0,4.91,4.33c7.09,0,13.78-1.62,19.36-6.16A27.37,27.37,0,0,0,98.33,127a28.17,28.17,0,0,0-2.87-17.1,45.67,45.67,0,0,0-8.14-11c-1.07-1.11-2.18-2.17-3.29-3.24-.2-.2-1.08-1.33-1.32-1.34.15,0,.61,1,.24.24-.5-1-.08.08,0,.06s-.23-.81-.26-.88c-.09-.5-.08-.36,0,.41,0-.21,0-.42,0-.63,0-.42,0-.84,0-1.27,0-1.39-.16.54,0-.24s.3-1.45.52-2.16c.15-.53.46-1.08.56-1.61-.19,1-.5,1.18-.31.73.12-.29.41-.91.51-1.21s.22-.83.33-1.24l4.84-18.4,4.35-16.51-9.14,1.2a15.45,15.45,0,0,0,5.14,4.74l-1-7.85h0c-2.37,2-1.71,6.48,1,7.86.18.1.38.19.57.28a5.3,5.3,0,0,0,6.06-.78h0L91.2,58.37a12.16,12.16,0,0,0,1.94.62l-2.21-8.36h0C88.27,53,89.47,58.44,93.13,59c2.43.37,5,.85,6.93-1.1l-3.53,1.47a15.21,15.21,0,0,0,3.79-.54l-4.87-8.36h0a5.1,5.1,0,0,0-.78,6.06c1.14,1.77,3.52,3.06,5.65,2.3.37-.13.75-.25,1.11-.4a6.77,6.77,0,0,0,1.77-.92c.6-.49.67-.52.2-.09s-.41.37-.11.19a5.36,5.36,0,0,0,1.64-1.06,13.93,13.93,0,0,0,2.13-1.85,15.55,15.55,0,0,0,3.57-7.16,5,5,0,0,0-8.35-4.87h0l8.53,3.54A14.66,14.66,0,0,0,109.14,38l.69,2.52c-.1-2.39-1.82-4.61-3.49-6.2l1.46,3.54c-.28-2.85-2.06-4.22-4.31-5.63a5,5,0,0,0-5.55.39,5.12,5.12,0,0,0-1.79,5.26h0l7.34-5.65A20.27,20.27,0,0,0,101,31.16l3.5,3.49h0c-.24-1.71-2-3-3.5-3.49l-.68-.22a5,5,0,0,0-4.86,1.29,5.24,5.24,0,0,0-1.29,4.86h0l6.16-6.15A15.44,15.44,0,0,0,89.77,32l7.35,5.65,1.26-4.8-6.15,3.49,2,.72-3.49-6.15a7.81,7.81,0,0,0,.67,5.23,6.89,6.89,0,1,0,1-8.22l4.86-1.28-2.16-.79L98.6,32l1-3.86-6.15,3.49c.15,0,1.49.25,1.5.39s-1-.54-.35-.14a2.62,2.62,0,0,0,.43.27c-.69-.23-.87-.73-.51-.36s-.47-.63-.45-.6c.33.57-.34-.89-.31-.79a1.36,1.36,0,0,1,.1.36s-.13-1.63-.15-.92a7.31,7.31,0,0,1,.4-1.7c.59-1.43-.15.21-.28.66a5,5,0,0,0-.19,1.39,6.1,6.1,0,0,0,.7,2.67c1.47,2.87,5.37,3.69,8.28,3.83a11.71,11.71,0,0,0,9.9-4.22c3.09-4,3-9.78.65-14.12-2.61-4.9-7.85-7.57-13.2-8.13-2.61-.27-5.11,2.5-5,5,.13,2.94,2.2,4.71,5,5,.89.09-1-.25.11.05.37.1.74.18,1.11.3a4.28,4.28,0,0,0,.46.17c.57.11-.49-.13-.43-.19a5.52,5.52,0,0,1,1.17.61c.19.11.37.24.55.35s.56.19,0,0-.2-.18,0,0l.48.44c.23.23.44.47.67.71.54.56-.26-.21-.18-.24s.32.5.35.54c.12.2.74,1.2.33.56s.11.38.18.65a2.4,2.4,0,0,0,.11.48c.19.45-.1-.39-.06-.49a5.91,5.91,0,0,0,0,1.39c0,.78-.15-.19,0-.24a3.91,3.91,0,0,0-.12.56,3.74,3.74,0,0,0-.12.45c-.1.56-.38,0,.22-.45a2.25,2.25,0,0,0-.35.65c-.29.63.24-.4.36-.44-.11,0-.22.25-.31.33-.78.63.37-.2.22-.15a2.91,2.91,0,0,0-.67.38c.23-.27,1.21-.41.38-.17l-.86.22c-.13,0-.3,0-.43.08s1.23-.08.78-.11c-.24,0-.51,0-.76,0s-.42,0-.64,0l-.41,0c-.66,0,.7.1.73.11-.41-.12-.85-.15-1.26-.27a4.11,4.11,0,0,0-.46-.15c-.52-.1,1.27.65.56.22s.75.63.62.5l-.09-.09a4.36,4.36,0,0,1,1.33,3.23c0,.06-1.2,3.7-.38,1.76.9-2.14.19-.37.25-.6a8.75,8.75,0,0,0,.2-1.44c.26-4.33-3.81-7.18-7.6-7.94A5.09,5.09,0,0,0,90,25.48l-1,3.86a5.13,5.13,0,0,0,3.49,6.15l2.17.79A5,5,0,0,0,99.48,35a3.3,3.3,0,0,1-3.62.42A3.07,3.07,0,0,1,94.47,32a2.92,2.92,0,0,1,2.84-2.37,3.17,3.17,0,0,1,3,3.95c.42-2.85-.69-5.13-3.49-6.15l-2-.72c-2.52-.92-5.51,1-6.15,3.49L87.47,35a5.06,5.06,0,0,0,1.79,5.26,5.18,5.18,0,0,0,5.56.39c-1,.45.15,0,.4-.09a7.68,7.68,0,0,1,.83-.19c-.56.07-.65.08-.27,0s.87,0,1.29,0,.29,0-.25,0c.29,0,.57.12.86.2a5,5,0,0,0,4.86-1.28,5.27,5.27,0,0,0,1.29-4.87h0l-6.15,6.15.67.23-3.49-3.5h0c.25,1.78,2,2.91,3.5,3.49-1-.37-.11,0,.09.09A5,5,0,0,0,104,40.5a5.13,5.13,0,0,0,1.79-5.26h0l-7.35,5.65c.3.18.6.39.91.57.52.3-1-.77-.08-.05L97.8,37.87a6.18,6.18,0,0,0,2,4.07c.72.68-.4-.86.19.22.16.29.34.59.52.87l-.68-2.52a8.65,8.65,0,0,0,.86,2.92c-.41-1.1.06.34.11.57s.1.41.13.61c-.08-.64-.09-.66,0-.08s0,1.12-.09,1.69c-.23,1.93,1.45,3.88,3.07,4.57a5,5,0,0,0,5.47-1h0L101,44.89c-.14.65-.33,1.28-.49,1.92.21-.84,0-.1-.12.18-.07.12-.46.9-.58.92l.31-.42a8.37,8.37,0,0,1-.57.62l-.34.32c.45-.32.45-.31,0,0a10.38,10.38,0,0,0-2.54,1.62l2.2-1.28-1.18.42,4.86,8.35h0a5,5,0,0,0-4.86-8.35c-.23.07-.46.11-.69.17.68-.18.26,0-.22,0A5.7,5.7,0,0,0,93,50.84l3.54-1.46-.84,0s1.26.19.11,0L98,57.71h0c2.81-2.45,1.32-7.55-2.2-8.36a11.88,11.88,0,0,1-1.94-.63C92.2,48,90.23,48.94,89,50h0l6.06-.78a4.41,4.41,0,0,1-.58-.28l1,7.86h0c2.43-2.07,1.65-6.4-1-7.85,0,0-.89-.58-.92-.56l.28.23c-.12-.09-.23-.19-.34-.29s-.41-.42-.61-.63c-.76-.74.27.42,0,.09a5.1,5.1,0,0,0-5-2.39A5,5,0,0,0,83.79,49L75.07,82.11l-.65,2.43a2.39,2.39,0,0,0-.13.51c0,.15-.57,1.39.23-.51.49-1.16.25-.65.18-.43-.21.58-.49,1.13-.71,1.7a18.69,18.69,0,0,0-1,10.35,12.58,12.58,0,0,0,3.79,6.38c2.47,2.41,4.75,4.9,7,7.48-1.11-1.25.13.19.38.54s.54.77.8,1.17a32.91,32.91,0,0,1,1.75,3c.26.52.45,1.12.75,1.61-.63-1-.25-.65-.1-.23.08.23.17.46.26.7a23.4,23.4,0,0,1,.94,3.52c.1.52-.08,1.12,0-.1a10.78,10.78,0,0,0,.12,1.25c0,.64,0,1.28,0,1.93,0,.33,0,.65,0,1l-.06.66c.11-.77.12-.87,0-.32s-.26,1.38-.44,2a21.59,21.59,0,0,1-.72,2.28c-.1.27-.38,1.12,0,.06a12.06,12.06,0,0,1-.76,1.58c-.34.64-.7,1.28-1.09,1.89q-.27.42-.54.81c-.19.27-.83,1.48-.28.4a7.78,7.78,0,0,1-1.54,1.66c-.29.27-.58.54-.89.79s-.37.31-.56.46c.71-.53.82-.62.33-.26-.68.45-1.35.91-2.07,1.3-.27.15-.55.28-.83.43-.5.23-.44.21.19-.06l-.7.28a22.62,22.62,0,0,1-2.25.72,7.7,7.7,0,0,1-2.61.54c.11,0,1.34-.14.24,0-.55,0-1.11.11-1.67.14-.93.06-1.84.06-2.77.06L71,149.64h0a5,5,0,0,0-1.33-9.82q-1.86,0-3.69-.24c-.09,0-1.59-.23-.54-.06l-1.89-.31c-2.24-.42-4.41-1.08-6.63-1.6a5.11,5.11,0,0,0-6.15,3.5h0l6.15-3.49-.3-.07,3.49,6.15h0a5,5,0,0,0-3.49-6.15c-.48-.11-1-.26-1.42-.41-2.66-.86-5.35,1-6.16,3.49h0l6.15-3.5-.29-.1,3.49,6.15h0c.87-2.73-1-5.24-3.49-6.15q-.67-.25-1.35-.48l3.49,6.15v0A5,5,0,0,0,54.77,137l-.05,0c-3-1.41-6.28-.28-7.34,3h0l7.34-3-.28-.13,2.29,5.65h0c.61-1.92-.38-4.77-2.3-5.65a17.38,17.38,0,0,1-1.66-.86l-.71-.44c-.25-.17-1-.81,0,0a5.14,5.14,0,0,0-4.2-1.38,4.77,4.77,0,0,0-3.65,2.39h0l7.85-1a20.48,20.48,0,0,1-1.64-1.45c-.27-.27-.53-.54-.78-.83l-.53-.61c.38.49.45.58.22.27-.5-.73-1-1.45-1.43-2.22-.17-.31-.34-.62-.5-.94s-.68-1.54-.29-.57A5.2,5.2,0,0,0,44.19,126a4.77,4.77,0,0,0-4.45.25h0l7.35,3-.29-.75L42,134.81h0a5.26,5.26,0,0,0,3.93-2,4.74,4.74,0,0,0,.89-4.36A32.55,32.55,0,0,1,45.7,125c-.13-.53-.24-1.07-.34-1.61a2.85,2.85,0,0,1-.16-.9l.08.58c0-.31-.07-.63-.1-.94-.32-3.31-2.93-5.59-6.33-4.82h0l6.33,4.82,0-.25-6.33,4.82h0c3,.66,6.55-1.41,6.32-4.82a23.73,23.73,0,0,1,0-3.77c0-.19,0-.39.07-.59.08-.69-.19.82,0,0,.14-.56.25-1.12.37-1.68a5.06,5.06,0,0,0-4.82-6.33h0l4.82,6.33.32-1c.08-.25.17-.49.26-.74.32-1-.49.91.13-.32a30.74,30.74,0,0,1,2.3-3.76H40a5,5,0,0,0,4.32,2.48A5.22,5.22,0,0,0,48.65,110l-.71.93c2.2-2.71,1.74-5.79-1-7.86h0l1,7.86a32.29,32.29,0,0,1,2.21-2.46c.41-.42.84-.81,1.29-1.19.08-.08,1-.85.53-.46s.94-.72.95-.73l-8.36-2.21h0c.85,2.8,4.64,5,7.34,3l.1-.07c2-1.46,3.55-4.5,1.8-6.84h0L52,106.8a38.16,38.16,0,0,1,5.43-3.24,4.73,4.73,0,0,0,2.39-3.65,5.17,5.17,0,0,0-1.37-4.2h0l-1,7.85.13-.06-7.35-3h0c1.1,3.31,4.32,4.35,7.35,3l.8-.36-.35.15c.51-.19,1-.39,1.53-.56a18.77,18.77,0,0,1,2.08-.56l-6.33-4.83h0a4.9,4.9,0,0,0,2,3.92,5.18,5.18,0,0,0,4.36.9c4.21-.7,7.48-4.19,9.28-7.89A45.62,45.62,0,0,0,73,88.34q1.49-4.56,3-9.11,3.1-9.49,6.22-19l4.15-12.71c.87-2.66-1-5.33-3.49-6.15l-2.64-.87a5.08,5.08,0,0,0-5.64,2.3,3.23,3.23,0,0,1,4.21-1.05c1.29.76,2,2.91,1.11,4.23s-2.78,2.15-4.24,1.12a3.4,3.4,0,0,1-1.54-2.62c-.22,2.23,1.73,4.18,3.67,4.82l2.68.88c2.66.88,5.35-1,6.15-3.49.41-1.24.82-2.49,1.22-3.73.87-2.66-1-5.33-3.49-6.15L81.74,36a5.08,5.08,0,0,0-5.64,2.29,3.1,3.1,0,0,1,5.32,3.19c-.91,1.27-2.78,2.14-4.24,1.11a3.38,3.38,0,0,1-1.54-2.62c-.22,2.24,1.73,4.18,3.68,4.82l2.66.88c2.66.88,5.35-1,6.15-3.49l1.05-3.2c.87-2.66-1-5.34-3.49-6.16L83,31.9a5,5,0,0,0-4.86,1.28,3.38,3.38,0,0,1,3.63-.34,3.2,3.2,0,0,1,1.11,4.24c-.9,1.27-2.77,2.14-4.23,1.11l-1.11-1.11c-.26-1.71-.41-2.1-.47-1.15-.26,2.22,1.75,4.18,3.67,4.82l2.57.84c2.65.88,5.34-1,6.15-3.49l2-6c.87-2.66-1-5.34-3.49-6.15l-3-1a5.11,5.11,0,0,0-5.65,2.3,3.1,3.1,0,0,1,5.32,3.19c-.9,1.27-2.77,2.14-4.23,1.11a3.34,3.34,0,0,1-1.54-2.62c-.23,2.24,1.72,4.18,3.67,4.82l3.05,1c2.66.87,5.35-1,6.16-3.49.33-1,.67-2.06,1-3.09.87-2.66-1-5.33-3.49-6.15L86.1,21a5,5,0,0,0-4.87,1.28,3.38,3.38,0,0,1,3.64-.34c1.29.76,2,2.91,1.11,4.23s-2.78,2.15-4.24,1.11l-1.11-1.11c-.25-1.71-.41-2.09-.47-1.15-.25,2.23,1.75,4.19,3.67,4.83l3,1c2.65.88,5.34-1,6.15-3.49.38-1.17.82-2.34,1.15-3.53a1.21,1.21,0,0,0,.05-.14c-.37.85-.45,1.06-.23.62l.28-.53c.17-.32.63-1.41,1-1.55-.3.12-.63.73-.06.1.18-.19.35-.39.53-.57s.44-.4.65-.61c.62-.58-.74.46-.25.19s.71-.48,1.09-.68a3.26,3.26,0,0,0,.53-.26c-.75.62-1,.37-.47.2.36-.12.71-.24,1.08-.33.62-.15,1.41,0-.28,0,.44,0,.88-.08,1.33-.07l.43,0c.62,0-1.37-.19-1.13-.16,2.57.41,5.51-.66,6.15-3.49C105.36,14.15,104.08,10.84,101.32,10.4Z"/><path class="cls-2" d="M40.83,119.47h0L36,113.15h0l6.16-3.49h0l1.2.51c-.2-.09-.4-.18-.6-.25l-.6-.26a3.78,3.78,0,0,0-2-.09,4.53,4.53,0,0,0-3.26,1.88,3.77,3.77,0,0,0-.89,1.7l-.18,1.33a5,5,0,0,0,.68,2.53l.78,1a5.05,5.05,0,0,0,2.21,1.29h0l-1.19-.51a5.42,5.42,0,0,0,.6.26l.6.25a3.75,3.75,0,0,0,2,.09,3.66,3.66,0,0,0,1.86-.6l1-.78a5,5,0,0,0,1.29-2.2h0a5,5,0,0,0,0-2.65,5.57,5.57,0,0,0-2.3-3,5,5,0,0,0-2.52-.69h0a3.88,3.88,0,0,0-1.93.43,3.8,3.8,0,0,0-1.61,1,3.69,3.69,0,0,0-1,1.61,3.74,3.74,0,0,0-.43,1.92L36,115.8A4.89,4.89,0,0,0,37.29,118l1,.78A5,5,0,0,0,40.83,119.47Z"/><circle class="cls-3" cx="96.4" cy="44.88" r="9.5"/><path class="cls-4" d="M94.88,26.49l-15.79,60s-3.57,7.61.3,11.67S99.4,114.9,91.63,132c-7.14,15.72-24.18,14.55-39.4,9.38"/><ellipse class="cls-5" cx="94.55" cy="43.71" rx="2.4" ry="1.8" transform="translate(19.53 115.98) rotate(-68.74)"/><rect class="cls-6" x="82.58" y="29.4" width="5.26" height="0.88" transform="translate(13.63 -25.19) rotate(18.25)"/><rect class="cls-6" x="84.18" y="25.59" width="5.26" height="0.88" transform="translate(12.52 -25.88) rotate(18.25)"/><rect class="cls-6" x="79.41" y="40.41" width="5.26" height="0.88" transform="translate(16.92 -23.64) rotate(18.25)"/><rect class="cls-6" x="77.91" y="44.97" width="5.26" height="0.88" transform="translate(18.28 -22.94) rotate(18.25)"/><rect class="cls-6" x="81.09" y="36.5" width="5.26" height="0.88" transform="translate(15.78 -24.37) rotate(18.25)"/><rect class="cls-6" x="91.28" y="30.74" width="5.26" height="0.88" transform="translate(171.37 92.75) rotate(-159.89)"/><path class="cls-6" d="M84.91,40.93h9.77A1.05,1.05,0,0,1,95.73,42v.23a1.05,1.05,0,0,1-1.05,1.05H84.91a0,0,0,0,1,0,0V40.93A0,0,0,0,1,84.91,40.93Z" transform="translate(18.69 -27.17) rotate(19.05)"/><path class="cls-4" d="M102.31,49.62A18.1,18.1,0,0,1,99,54a11.79,11.79,0,0,0,1.18-.42,19.58,19.58,0,0,0,2.93-4.12,16.74,16.74,0,0,0,1.74-9,9.87,9.87,0,0,0-.77-1.24A17.12,17.12,0,0,1,102.31,49.62Z"/><path class="cls-4" d="M99.57,48.18a20.39,20.39,0,0,1-5.11,6,9.53,9.53,0,0,0,2.06.2,21.85,21.85,0,0,0,4.63-5.86,17.55,17.55,0,0,0,1.65-10.65A9.65,9.65,0,0,0,101,36.56,16.86,16.86,0,0,1,99.57,48.18Z"/><path class="cls-4" d="M99.68,36,99,35.75A17.19,17.19,0,0,1,97.4,47,21.24,21.24,0,0,1,92,53.27l.39.2.19.08a22.85,22.85,0,0,0,5.64-6.72A17.18,17.18,0,0,0,99.68,36Z"/><path class="cls-4" d="M98.71,30s.78-3.09-6-3.47,5.22-7.08,5.22-7.08L103.26,24l.47,2.06-.47,2.07"/><path class="cls-3" d="M89.36,22.32,66.83,91.19s-2.27,5.6-6.2,6.1-25.75,8.52-19.39,30.37c6.45,22.12,29.9,14.89,33.67,11.49,3.3-3,12.35-11.17,7.14-27.22A31.78,31.78,0,0,0,77,102.34c-1.62-2.09-3.58-5.23-2.94-7.51,1.33-4.68,20.84-68.34,20.84-68.34s1.51-3.79,4.24-1.28c.71.65.55,3.35-.41,4.83s9.15,4,10.89-2.65S105.68,15.73,100,15.22C100,15.22,93.17,14.09,89.36,22.32Z"/><path class="cls-7" d="M77.26,106.73a3.56,3.56,0,0,0,2.89.63,32.87,32.87,0,0,0-3.17-5l-.36-.47a3.45,3.45,0,0,0,.64,4.86Z"/><path class="cls-7" d="M82.05,111.93a30.92,30.92,0,0,0-1.94-4.64,3.48,3.48,0,0,0-.73,1,3.77,3.77,0,0,0,3.21,5.44C82.43,113.15,82.25,112.54,82.05,111.93Z"/><path class="cls-7" d="M81.18,115.46a4.26,4.26,0,0,0,2.44,6.4,27.81,27.81,0,0,0-1-7.8A4.25,4.25,0,0,0,81.18,115.46Z"/><path class="cls-7" d="M80.68,123.28a5,5,0,0,0-.94,4.14,6.87,6.87,0,0,0,1.81,3.29,21.92,21.92,0,0,0,2.08-8.89A4.06,4.06,0,0,0,80.68,123.28Z"/><path class="cls-7" d="M81.58,130.65a7.27,7.27,0,0,0-2.52-.44,4.25,4.25,0,0,0-3.19,1.42,4.58,4.58,0,0,0-.79,3.53,11.43,11.43,0,0,0,1,2.94A25.28,25.28,0,0,0,81.58,130.65Z"/><path class="cls-7" d="M76.22,137.94a5,5,0,0,0-3-1.5A4.79,4.79,0,0,0,68,142.15a18.13,18.13,0,0,0,6.88-3C75.28,138.82,75.73,138.42,76.22,137.94Z"/><path class="cls-7" d="M57.81,142.84c.4.06.8.1,1.19.13h3.71a29.6,29.6,0,0,0,5.33-.83,5.85,5.85,0,0,0-10.23.69Z"/><path class="cls-7" d="M52,104a3.32,3.32,0,0,0,3-2,3.64,3.64,0,0,0,0-2.86,31.91,31.91,0,0,0-5.55,3.3A3,3,0,0,0,52,104Z"/><path class="cls-7" d="M56.81,100.49a3,3,0,0,0,3-1.3,2.93,2.93,0,0,0,.46-1.85,25,25,0,0,0-5.38,1.9A3,3,0,0,0,56.81,100.49Z"/><path class="cls-7" d="M47.11,108.11a3.6,3.6,0,0,0,2.47-2.58,4.92,4.92,0,0,0-.21-3,25.78,25.78,0,0,0-5,4.84A2.89,2.89,0,0,0,47.11,108.11Z"/><path class="cls-7" d="M43.77,113.71a4.32,4.32,0,0,0,1.53-3.6,5.12,5.12,0,0,0-1-2.63,20.43,20.43,0,0,0-3.51,7A3.74,3.74,0,0,0,43.77,113.71Z"/><path class="cls-7" d="M42.89,120.51a3.9,3.9,0,0,0-2.07-6,21.75,21.75,0,0,0-.64,7.62A4,4,0,0,0,42.89,120.51Z"/><path class="cls-7" d="M41.24,127.66a29.78,29.78,0,0,0,1,2.9,4.61,4.61,0,0,0,2.34-3.23,4.73,4.73,0,0,0-2-4.43,6.41,6.41,0,0,0-2.46-1.06A28.68,28.68,0,0,0,41.24,127.66Z"/><path class="cls-7" d="M48.5,139.11a6.41,6.41,0,0,0,.46-5.19,6.27,6.27,0,0,0-7-4.11A20.48,20.48,0,0,0,48.5,139.11Z"/><path class="cls-8" d="M92.5,29.45,57.07,142.74l.32,0,35.4-113.2Z"/><path class="cls-8" d="M91.17,28.83,91,28.77,55.3,142.37l.3.07L91.31,28.9Z"/><path class="cls-8" d="M89.68,28.25,53.58,141.86l.3.1L90,28.31l-.09,0Z"/><path class="cls-8" d="M88.32,28,51.91,141.18l.29.13L88.62,28.07Z"/><path class="cls-6" d="M68.45,86.24q3.72,1.22,7.45,2.39c.12-.38.24-.78.36-1.19q-3.72-1.17-7.42-2.39Z"/><path class="cls-6" d="M70.34,80.48c2.44.79,4.88,1.58,7.32,2.35.12-.39.24-.79.37-1.19-2.44-.77-4.88-1.56-7.3-2.35Z"/><path class="cls-6" d="M72.22,74.71q3.6,1.19,7.21,2.32l.36-1.2q-3.6-1.12-7.18-2.3Z"/><path class="cls-6" d="M74.11,69q3.54,1.15,7.09,2.28l.36-1.2Q78,68.92,74.5,67.76Z"/><path class="cls-6" d="M76,63.18c2.33.76,4.65,1.51,7,2.25l.36-1.2c-2.32-.73-4.63-1.47-7-2.23Z"/><path class="cls-6" d="M77.88,57.42c2.28.75,4.57,1.48,6.86,2.21.12-.4.25-.8.37-1.2q-3.44-1.08-6.84-2.19Z"/><path class="cls-6" d="M79.76,51.66c2.25.73,4.5,1.46,6.76,2.17l.36-1.2q-3.37-1.07-6.73-2.16Z"/><path class="cls-6" d="M81.65,45.89Q85,47,88.29,48l.36-1.2c-2.2-.69-4.41-1.4-6.61-2.12Z"/><path class="cls-6" d="M83.54,40.13q3.25,1.07,6.52,2.1l.37-1.2c-2.17-.68-4.34-1.38-6.51-2.08Z"/><path class="cls-6" d="M85.42,34.37l6.42,2.06.36-1.2q-3.2-1-6.39-2Z"/><path class="cls-6" d="M87.69,27.42l-.38,1.18c2.1.69,4.2,1.36,6.31,2L94,29.44Z"/><polygon class="cls-6" points="69.4 126.31 51.68 120.39 50.15 124.6 67.77 130.6 69.4 126.31"/><circle class="cls-4" cx="83.31" cy="24.61" r="1.91"/><circle class="cls-4" cx="81.92" cy="28.86" r="1.91"/><circle class="cls-4" cx="80.21" cy="35.51" r="1.91"/><circle class="cls-4" cx="78.75" cy="39.88" r="1.91"/><circle class="cls-4" cx="77.24" cy="44.43" r="1.91"/><circle class="cls-4" cx="97.37" cy="32.71" r="1.91"/><g class="cls-9"><path class="cls-3" d="M105,48.94a9.36,9.36,0,0,0,.82-2.72c-1.68,1.61-3.17,3.46-5.31,4.31a10.11,10.11,0,0,1-6.43-.05,10.78,10.78,0,0,1-5.62-3.37,6.17,6.17,0,0,1-1.31-4.3A9.49,9.49,0,0,0,105,48.94Z"/></g><g class="cls-10"><path class="cls-8" d="M101.07,37.78c-1.1-.9-3.1-2.14-4.26-.64a1.84,1.84,0,0,0-.31,1.62,2.49,2.49,0,0,0,1,1.28,7.78,7.78,0,0,0,1.45.78,13.76,13.76,0,0,1,2.83,1.69,10.09,10.09,0,0,1,1.1,1.07c.28.31.53,1.05,1,1.14.85.17.72-1.28.61-1.75a9.15,9.15,0,0,0-1.38-3.32A10.5,10.5,0,0,0,101.07,37.78Z"/></g><g class="cls-11"><path class="cls-8" d="M105,22.33a4.21,4.21,0,0,1,0,3.16,10.05,10.05,0,0,1-1.55,1.78,2.05,2.05,0,0,0-.52,2.17,1.81,1.81,0,0,0,1.68.8,3.87,3.87,0,0,0,3.1-2,7.27,7.27,0,0,0,.8-3.73,9.11,9.11,0,0,0-1-4.14c-.45-.82-1.41-2.17-2.38-2.41C103.21,17.49,104.78,21.61,105,22.33Z"/></g><g class="cls-9"><path class="cls-3" d="M74.91,139.15a25.19,25.19,0,0,0,7.59-10.8c-3.82,1.13-7.49,2.76-11.31,3.89s-8.13,1.81-12.1.8-7.63-3.95-8.57-7.93c-1-4.33,1.22-8.74,3.91-12.28s6-6.79,7.46-11a11.61,11.61,0,0,0,.58-5.21,5.17,5.17,0,0,1-1.84.64c-3.94.5-25.75,8.52-19.39,30.37C47.69,149.78,71.14,142.55,74.91,139.15Z"/></g><g class="cls-10"><path class="cls-8" d="M81.17,113.91A16,16,0,0,0,77.25,106c-1.76-1.88-4.56-.89-5.58,1.36a5.69,5.69,0,0,0,0,4.12,34,34,0,0,0,1.83,3.8,21.82,21.82,0,0,1,2.14,7.32,6.63,6.63,0,0,0,.41,2.08,1.9,1.9,0,0,0,1.61,1.21c.93,0,1.59-.89,2-1.72A16.39,16.39,0,0,0,81.17,113.91Z"/></g><g class="cls-10"><path class="cls-8" d="M79.39,98.13a7.77,7.77,0,0,1-1.74-6.26A6.43,6.43,0,0,0,77,96.14a11.85,11.85,0,0,0,3,5.43c1.39,1.56,3,3,4.32,4.56a21.92,21.92,0,0,1,4.54,17.4,26.36,26.36,0,0,1-9.15,15.69,31.44,31.44,0,0,1-10,5.6c9.26.18,17.52-3.06,21.95-12.83C99.4,114.9,83.26,102.18,79.39,98.13Z"/></g></g></g></svg>