<svg id="तलवार" xmlns="http://www.w3.org/2000/svg" viewBox="0 0 150 160"><defs><style>.cls-1,.cls-10{fill:#fff;}.cls-1{stroke:#fff;stroke-miterlimit:10;stroke-width:5px;}.cls-2{fill:#e6fafb;}.cls-3{fill:#b7d7d5;}.cls-4{fill:#f15a29;}.cls-5{fill:#ef4136;}.cls-6{fill:#be1e2d;}.cls-7{fill:#a6bebf;}.cls-8{fill:#f6fefe;}.cls-9{fill:#f7941e;}</style></defs><path class="cls-1" d="M115.76,56.7l7.39-17.15c5.76-.87,6.63-9.49,1.12-11.46-5.77-2.57-11.15,5.34-6.59,9.73-1.65,5-4.5,10-6.92,14.65-6.2-7-15.26-10-20,.42,7.13-2.34,12.61,0,17.52,3.4-8.71,17-47.81,52.2-76,58.06,3,8.74-9.23,25.62-14.37,27.93,41-11.85,76.33-44.63,95.48-81.95,5.8,6.08,15,10.12,19.15,0C125.61,62.66,120.41,60.26,115.76,56.7ZM120,31.81c2.35-2.65,6.51,1.1,4.06,3.69S117.54,34.41,120,31.81Z"/><path class="cls-2" d="M44.58,110l12.24,14q5.82-3.89,11.31-8.28L57.52,103.58A137.65,137.65,0,0,1,44.58,110Z"/><path class="cls-3" d="M32.35,114.35c-.08,0,1.44,3.92-1.87,12.49S18,142.34,18,142.28A139.25,139.25,0,0,0,56.82,124L44.58,110C36.1,113.6,32.19,113.93,32.35,114.35Z"/><path class="cls-3" d="M57.52,103.58,68.13,115.7q4.52-3.61,8.76-7.53L67.58,97.54C63.93,99.87,60.57,101.87,57.52,103.58Z"/><path class="cls-2" d="M73,93.86l-1.74,1.32c-1.25.83-2.45,1.6-3.63,2.36l9.31,10.63q2.39-2.19,4.68-4.46Z"/><path class="cls-3" d="M114.31,58.66c-1.33-4.52-1.47-2.6-4.8-3.9-.29-.71-11.1,19.59-36.56,39.1l8.62,9.85A170.87,170.87,0,0,0,114.31,58.66Z"/><path class="cls-4" d="M113.59,47.07c-.43.83-.85,1.65-1.25,2.41l3.23-.23Z"/><polygon class="cls-5" points="112.04 50.65 112.51 49.74 118.66 49.29 117.35 52.32 113.8 52.58 112.04 50.65"/><path class="cls-6" d="M118.23,49.6l-.85,2-.22.49-3.25.24-1.54-1.69c.1-.2.21-.4.31-.61l2.93-.21,2.62-.19Zm.85-.61-3.51.26-3.23.23-.63,1.21,2,2.17,3.84-.28.35-.8,1.2-2.79Z"/><polygon class="cls-5" points="115.5 43.81 115.65 43.48 121.34 43.07 120.44 45.16 116.96 45.41 115.5 43.81"/><path class="cls-6" d="M120.91,43.37l-.46,1.09-.2.44-3.18.23-1.25-1.37v0l3.58-.26,1.5-.11Zm.86-.6-2.4.17-3.9.29-.3.63,1.67,1.83,3.78-.27.32-.75.83-1.9Z"/><path class="cls-4" d="M115.17,43.86c-.32.67-.65,1.35-1,2l2.66-.2Z"/><path class="cls-4" d="M111.71,50.69c-.49.93-.94,1.75-1.29,2.41l3.27-.24Z"/><path class="cls-5" d="M109.89,54.64l.7-1.28,6.52-.48-1.81,4.18Z"/><path class="cls-6" d="M116.68,53.19l-1,2.23-.56,1.28-4.89-2.19.48-.89,3-.22,3-.21Zm.85-.61-3.84.28-3.27.24-.91,1.66,5.94,2.66.77-1.78,1.31-3.06Z"/><polygon class="cls-5" points="113.91 47.03 114.35 46.15 120.19 45.72 118.9 48.73 115.68 48.97 113.91 47.03"/><path class="cls-6" d="M119.77,46l-.94,2.18-.12.27-2.92.22L114.24,47l.29-.57,2.35-.18,2.89-.21Zm.85-.6-3.78.27-2.66.2c-.2.4-.4.79-.59,1.18l2,2.18,3.51-.26.25-.57,1.29-3Z"/><path class="cls-5" d="M117.94,37.89a4.57,4.57,0,0,0,.22-1.22l5.16,1.81-.46,1.07-3.15.35Z"/><path class="cls-6" d="M118.4,37.05,123,38.64l-.28.65-2.85.32-1.58-1.79a5.91,5.91,0,0,0,.16-.77Zm-.63-.8c.2.22.13.83-.13,1.7l2,2.23,3.46-.38.63-1.48-5.91-2.07Z"/><polygon class="cls-5" points="117.67 40.67 122.61 40.12 121.58 42.51 119.48 42.66 117.67 40.67"/><path class="cls-6" d="M122.18,40.44l-.78,1.81-1.81.13-1.36-1.5,1.43-.16,2.52-.28Zm.87-.64-3.46.38-2.48.28,2.26,2.48,2.4-.17,0-.07,1.25-2.9Z"/><path class="cls-4" d="M116.84,40.16l-.15.35.42,0Z"/><path class="cls-4" d="M117.11,40.46l-.42,0c-.35.84-.77,1.76-1.22,2.72l3.9-.29Z"/><path class="cls-4" d="M119.59,40.18l-2-2.23c-.18.62-.46,1.37-.8,2.21l.27.3Z"/><path class="cls-7" d="M111.49,55.07l-.28,0c-.77-.07-.93.18-2.43,2.49a157.19,157.19,0,0,1-35.63,39C61.05,105,50.22,111,41,114.35a1.1,1.1,0,0,0-.65,1.4.75.75,0,0,0,.09.15c6.38-2.46,18.53-8.11,33.38-18.47A164.77,164.77,0,0,0,111.49,55.07Z"/><path class="cls-8" d="M111.86,55.11l-.37,0A164.77,164.77,0,0,1,73.78,97.43c-14.85,10.36-27,16-33.38,18.47a1.06,1.06,0,0,0,.87.56,1.17,1.17,0,0,0,.45-.06c9.43-3.45,20.43-9.53,32.73-18.11a159.52,159.52,0,0,0,36.17-39.56c.44-.69.87-1.35,1.09-1.65a1.08,1.08,0,0,0,.43-1.35Z"/><path class="cls-5" d="M126.08,29.22a6,6,0,0,0-1.81-1.13l-1.24,3a2.91,2.91,0,0,1,.84.51A2.73,2.73,0,0,1,124,35.5a2.83,2.83,0,0,1-3.08.66l-1.25,3a6.14,6.14,0,0,0,1.89.45,6,6,0,0,0,4.87-1.94,6,6,0,0,0-.39-8.49Z"/><path class="cls-4" d="M120.16,35.68a2.73,2.73,0,0,1,2-4.75,2.58,2.58,0,0,1,.83.19l1.24-3a6.17,6.17,0,0,0-1.84-.43A6,6,0,0,0,118,38.09a5.82,5.82,0,0,0,1.76,1.11l1.25-3A2.62,2.62,0,0,1,120.16,35.68Z"/><path class="cls-4" d="M104.14,47.16c-4.94-3.58-11,.45-13.3,5.63l0,.1c8.79-2.88,15.07,1.27,20.87,6l1.69-4.11C110.26,52.09,107.32,49.19,104.14,47.16Z"/><path class="cls-5" d="M113.35,54.74l-1.69,4.11A96.13,96.13,0,0,0,120,65.31c4.93,3.58,10.24.34,12.58-4.85l0-.09C124.38,63.06,118.64,59.28,113.35,54.74Z"/><path class="cls-4" d="M126.5,64a1.9,1.9,0,1,1-1.77-2A1.89,1.89,0,0,1,126.5,64Z"/><path class="cls-9" d="M126.11,63.93a1.51,1.51,0,1,1-1.41-1.61A1.52,1.52,0,0,1,126.11,63.93Z"/><path class="cls-10" d="M124.27,63a.37.37,0,0,1-.4.35.38.38,0,1,1,0-.75A.37.37,0,0,1,124.27,63Z"/><path class="cls-4" d="M101.65,48.83a1.9,1.9,0,1,1-1.77-2A1.9,1.9,0,0,1,101.65,48.83Z"/><path class="cls-9" d="M101.26,48.81a1.51,1.51,0,1,1-1.41-1.61A1.5,1.5,0,0,1,101.26,48.81Z"/><path class="cls-10" d="M99.42,47.92a.37.37,0,0,1-.4.35.38.38,0,1,1,0-.75A.37.37,0,0,1,99.42,47.92Z"/></svg>