<svg id="खजाना" xmlns="http://www.w3.org/2000/svg" xmlns:xlink="http://www.w3.org/1999/xlink" viewBox="0 0 150 160"><defs><style>.cls-1,.cls-19,.cls-30,.cls-33,.cls-36,.cls-38{fill:none;}.cls-2{fill:#fffffa;}.cls-3{fill:#4c1f11;}.cls-4{fill:#33120a;}.cls-5{fill:#894919;}.cls-6{fill:#230202;}.cls-7{fill:#823919;}.cls-8{fill:#ce7728;}.cls-9{fill:#b76623;}.cls-10{fill:#ec902f;}.cls-11{fill:#602000;}.cls-12{fill:#bc691e;}.cls-13{fill:#ef9a4d;}.cls-14{fill:#2b0101;}.cls-15{fill:#fdbb00;}.cls-16{fill:#ffd85c;}.cls-17{clip-path:url(#clip-path);}.cls-18{fill:#fbcc1c;}.cls-19,.cls-30,.cls-33,.cls-36,.cls-38{stroke:#fffcff;stroke-linecap:round;stroke-linejoin:round;}.cls-19{stroke-width:1.07px;}.cls-20{clip-path:url(#clip-path-2);}.cls-21{clip-path:url(#clip-path-3);}.cls-22{clip-path:url(#clip-path-4);}.cls-23{clip-path:url(#clip-path-5);}.cls-24{clip-path:url(#clip-path-6);}.cls-25{clip-path:url(#clip-path-7);}.cls-26{clip-path:url(#clip-path-8);}.cls-27{clip-path:url(#clip-path-9);}.cls-28{fill:#eb8e1c;}.cls-29{clip-path:url(#clip-path-10);}.cls-30{stroke-width:0.93px;}.cls-31{clip-path:url(#clip-path-11);}.cls-32{clip-path:url(#clip-path-12);}.cls-33{stroke-width:1.04px;}.cls-34{clip-path:url(#clip-path-13);}.cls-35{clip-path:url(#clip-path-14);}.cls-36{stroke-width:0.76px;}.cls-37{clip-path:url(#clip-path-15);}.cls-38{stroke-width:1.03px;}</style><clipPath id="clip-path"><path class="cls-1" d="M93.68,77.44a5.15,5.15,0,1,0-5,5.26A5.16,5.16,0,0,0,93.68,77.44Z"/></clipPath><clipPath id="clip-path-2"><path class="cls-1" d="M111.51,82.79a5.15,5.15,0,1,0-5.34,5A5.16,5.16,0,0,0,111.51,82.79Z"/></clipPath><clipPath id="clip-path-3"><path class="cls-1" d="M49.13,75.86a5.15,5.15,0,1,0,7-2A5.16,5.16,0,0,0,49.13,75.86Z"/></clipPath><clipPath id="clip-path-4"><path class="cls-1" d="M50.56,79.67a5.16,5.16,0,1,0,1.92,7A5.17,5.17,0,0,0,50.56,79.67Z"/></clipPath><clipPath id="clip-path-5"><path class="cls-1" d="M63.93,80.51a5.15,5.15,0,1,0-4-6.12A5.15,5.15,0,0,0,63.93,80.51Z"/></clipPath><clipPath id="clip-path-6"><path class="cls-1" d="M66.28,86.15a5.15,5.15,0,1,0-6.47,3.35A5.15,5.15,0,0,0,66.28,86.15Z"/></clipPath><clipPath id="clip-path-7"><path class="cls-1" d="M73.39,73.74a5.15,5.15,0,1,0,7.27-.53A5.16,5.16,0,0,0,73.39,73.74Z"/></clipPath><clipPath id="clip-path-8"><path class="cls-1" d="M85.58,77.78a5.15,5.15,0,1,0,5.15,5.15A5.16,5.16,0,0,0,85.58,77.78Z"/></clipPath><clipPath id="clip-path-9"><path class="cls-1" d="M110.06,80.65a5.15,5.15,0,1,0,5.15,5.15A5.16,5.16,0,0,0,110.06,80.65Z"/></clipPath><clipPath id="clip-path-10"><path class="cls-1" d="M58.08,74.81a3.85,3.85,0,0,0-4.82,3.48,5.3,5.3,0,0,0,3.92,5.54A3.86,3.86,0,0,0,62,80.34,5.28,5.28,0,0,0,58.08,74.81Z"/></clipPath><clipPath id="clip-path-11"><path class="cls-1" d="M100.18,70.41a3.86,3.86,0,0,0-3.31,4.94,5.3,5.3,0,0,0,5.6,3.83,3.86,3.86,0,0,0,3.31-5A5.29,5.29,0,0,0,100.18,70.41Z"/></clipPath><clipPath id="clip-path-12"><path class="cls-1" d="M71.91,75.54a4.31,4.31,0,0,0-3.35,5.73,5.9,5.9,0,0,0,6.49,3.88,4.3,4.3,0,0,0,3.35-5.73A5.89,5.89,0,0,0,71.91,75.54Z"/></clipPath><clipPath id="clip-path-13"><path class="cls-1" d="M90,79.9a4.3,4.3,0,0,0,3.34,5.73,5.9,5.9,0,0,0,6.5-3.88A4.31,4.31,0,0,0,96.47,76,5.89,5.89,0,0,0,90,79.9Z"/></clipPath><clipPath id="clip-path-14"><path class="cls-1" d="M19.34,117.19c-1.76,1.19-1.75,3.09,0,4.24a6.27,6.27,0,0,0,6.4-.07,2.36,2.36,0,0,0,0-4.24A6.27,6.27,0,0,0,19.34,117.19Z"/></clipPath><clipPath id="clip-path-15"><path class="cls-1" d="M79.53,129.14c-3.15.42-5,2.51-4.24,4.65s4,3.54,7.17,3.11,5.05-2.52,4.24-4.66S82.67,128.71,79.53,129.14Z"/></clipPath></defs><path class="cls-2" d="M112.57,71.3l10.9-18.23a5.12,5.12,0,0,0,2.91-3.52c2.28-10-2.94-18.88-4.91-22.21a5.62,5.62,0,0,0-4.81-2.73h-4.89a2.62,2.62,0,0,0-1.76.66c-9.79-.44-20.34-.66-31.39-.66-15.23,0-27.39.42-32.09.62a2.66,2.66,0,0,0-1.72-.62H39.92a5.59,5.59,0,0,0-4.8,2.73c-2,3.33-7.2,12.18-4.91,22.21a5,5,0,0,0,2.63,3.39L45.05,71.33l-1.18,1.15-3,2.91-.41.41-3,2.94-6.47,8.63v4.31l5.56,30.45A4.6,4.6,0,0,0,41,125.91h37a9,9,0,0,0-6.49,4.72l-.5,0L71,135.25a5.54,5.54,0,0,0,0,1v1.19l.23.13a6.12,6.12,0,0,0,.35.93c1.43,3.09,5.31,5.17,9.64,5.17h0a13.4,13.4,0,0,0,2.76-.29c3.32-.72,5.86-2.72,6.75-5.24L91,138l0-1.14a5.88,5.88,0,0,0,0-1l.09-2.42V133a6.35,6.35,0,0,0-.58-2.23,9.56,9.56,0,0,0-6.8-4.85h32.39a4.61,4.61,0,0,0,4.54-3.78l5.55-30.45v-4.2Z"/><path class="cls-2" d="M28,114.67a10,10,0,0,0-5.34-1.46,10,10,0,0,0-5.56,1.58,5.35,5.35,0,0,0-2.6,5.11,5.65,5.65,0,0,0,2.61,5.36,9.47,9.47,0,0,0,5.4,1.59h0a9.61,9.61,0,0,0,5.61-1.71,5.72,5.72,0,0,0,2.55-5.31A5.33,5.33,0,0,0,28,114.67Z"/><polygon class="cls-3" points="34.35 49.42 48.41 70.38 109.16 70.38 121.58 48.79 34.35 49.42"/><rect class="cls-4" x="48.41" y="38.98" width="60.76" height="31.4"/><polygon class="cls-5" points="47.64 71.61 33.75 50.7 36.57 50.7 50.63 71.61 47.64 71.61"/><polygon class="cls-5" points="110.06 71.61 123.01 49.95 120.19 49.95 107.07 71.61 110.06 71.61"/><rect class="cls-5" x="47.64" y="69.15" width="61.52" height="2.45"/><rect class="cls-6" x="44.12" y="76" width="69.56" height="16.35"/><path class="cls-7" d="M44.36,27.32s32.56-1.6,66.82,0l4.53,1,2.6,21.31L35,49l3.85-19.71Z"/><polygon class="cls-8" points="33.52 85.3 47.64 71.61 47.64 80.39 42.41 85.06 33.52 85.3"/><polygon class="cls-8" points="123.7 85.39 110.06 71.61 110.06 80.39 114.74 85.06 123.7 85.39"/><rect class="cls-9" x="47.64" y="71.61" width="62.42" height="8.79"/><path class="cls-10" d="M119.75,28.36a3.59,3.59,0,0,0-3.09-1.75h-4.89a.69.69,0,0,0-.56,1.09c7.41,10.3,5,19.8,5,19.8H40.33S38,38,45.38,27.7a.69.69,0,0,0-.57-1.09H39.92a3.56,3.56,0,0,0-3.08,1.75c-2.21,3.73-6.74,11.7-4.68,20.74a3.12,3.12,0,0,0,3.05,2.42h86.17a3.13,3.13,0,0,0,3.05-2.42C126.49,40.06,122,32.09,119.75,28.36Z"/><polygon class="cls-11" points="115.81 37.42 40.76 37.46 41.15 36.06 115.43 36.06 115.81 37.42"/><rect class="cls-12" x="69.79" y="45.46" width="16.1" height="11.34" rx="2.79"/><rect class="cls-13" x="69.79" y="44.61" width="16.1" height="11.34" rx="2.79"/><circle class="cls-14" cx="77.84" cy="48.35" r="1.74"/><polygon class="cls-14" points="77.84 48.35 76.32 53.24 79.58 53.24 77.84 48.35"/><path class="cls-15" d="M81.54,77.7a7,7,0,1,1,7.14,6.84A7,7,0,0,1,81.54,77.7Z"/><path class="cls-16" d="M93.68,77.44a5.15,5.15,0,1,0-5,5.26A5.16,5.16,0,0,0,93.68,77.44Z"/><g class="cls-17"><path class="cls-18" d="M85,72.47l7,10.16s-5.58,2.8-8.28-1.45S85,72.47,85,72.47Z"/></g><line class="cls-19" x1="83.82" y1="73.8" x2="83.34" y2="74.49"/><path class="cls-19" d="M94.39,79.26A3.54,3.54,0,0,1,93,81.51"/><path class="cls-15" d="M99.37,82.34a7,7,0,1,1,6.73,7.25A7,7,0,0,1,99.37,82.34Z"/><path class="cls-16" d="M111.51,82.79a5.15,5.15,0,1,0-5.34,5A5.16,5.16,0,0,0,111.51,82.79Z"/><g class="cls-20"><path class="cls-18" d="M103.17,77.33l6.41,10.55s-5.73,2.47-8.17-1.94S103.17,77.33,103.17,77.33Z"/></g><line class="cls-19" x1="101.88" y1="78.58" x2="101.36" y2="79.24"/><path class="cls-19" d="M112.11,84.66a3.48,3.48,0,0,1-1.49,2.16"/><path class="cls-15" d="M59.71,81.83a7,7,0,1,1-2.65-9.53A7,7,0,0,1,59.71,81.83Z"/><path class="cls-16" d="M49.13,75.86a5.15,5.15,0,1,0,7-2A5.16,5.16,0,0,0,49.13,75.86Z"/><g class="cls-21"><path class="cls-18" d="M54,84.54l-.86-12.32s6.23.44,6.38,5.47S54,84.54,54,84.54Z"/></g><line class="cls-19" x1="55.76" y1="84.02" x2="56.52" y2="83.67"/><path class="cls-19" d="M49.46,73.92a3.47,3.47,0,0,1,2.31-1.23"/><path class="cls-15" d="M44.54,90.23a7,7,0,1,1,9.54-2.61A7,7,0,0,1,44.54,90.23Z"/><path class="cls-16" d="M50.56,79.67a5.16,5.16,0,1,0,1.92,7A5.17,5.17,0,0,0,50.56,79.67Z"/><g class="cls-22"><path class="cls-18" d="M41.85,84.54l12.32-.8s-.46,6.23-5.5,6.35S41.85,84.54,41.85,84.54Z"/></g><line class="cls-19" x1="42.36" y1="86.26" x2="42.71" y2="87.03"/><path class="cls-19" d="M52.49,80a3.48,3.48,0,0,1,1.22,2.32"/><path class="cls-15" d="M66.47,68.63A7,7,0,1,1,58.17,74,7,7,0,0,1,66.47,68.63Z"/><path class="cls-16" d="M63.93,80.51a5.15,5.15,0,1,0-4-6.12A5.15,5.15,0,0,0,63.93,80.51Z"/><g class="cls-23"><path class="cls-18" d="M70.75,73.23l-11.5,4.5S57.81,71.65,62.57,70,70.75,73.23,70.75,73.23Z"/></g><line class="cls-19" x1="69.74" y1="71.75" x2="69.18" y2="71.13"/><path class="cls-19" d="M62,80.78a3.52,3.52,0,0,1-1.86-1.84"/><path class="cls-15" d="M54.7,82.47a7,7,0,1,1,4.55,8.78A7,7,0,0,1,54.7,82.47Z"/><path class="cls-16" d="M66.28,86.15a5.15,5.15,0,1,0-6.47,3.35A5.15,5.15,0,0,0,66.28,86.15Z"/><g class="cls-24"><path class="cls-18" d="M59.7,78.65l3.37,11.88s-6.2.85-7.37-4S59.7,78.65,59.7,78.65Z"/></g><line class="cls-19" x1="58.13" y1="79.51" x2="57.45" y2="80.01"/><path class="cls-19" d="M66.36,88.11a3.51,3.51,0,0,1-2,1.68"/><path class="cls-15" d="M82.59,81.68a7,7,0,1,1-.73-9.87A7,7,0,0,1,82.59,81.68Z"/><path class="cls-16" d="M73.39,73.74a5.15,5.15,0,1,0,7.27-.53A5.16,5.16,0,0,0,73.39,73.74Z"/><g class="cls-25"><path class="cls-18" d="M76.49,83.22,78.07,71s6,1.66,5.18,6.63S76.49,83.22,76.49,83.22Z"/></g><line class="cls-19" x1="78.28" y1="83.05" x2="79.09" y2="82.85"/><path class="cls-19" d="M74.09,71.91a3.49,3.49,0,0,1,2.51-.76"/><path class="cls-15" d="M85.58,89.92a7,7,0,1,1,7-7A7,7,0,0,1,85.58,89.92Z"/><path class="cls-16" d="M85.58,77.78a5.15,5.15,0,1,0,5.15,5.15A5.16,5.16,0,0,0,85.58,77.78Z"/><g class="cls-26"><path class="cls-18" d="M80.43,86.32l10.3-6.81s2.69,5.65-1.63,8.25S80.43,86.32,80.43,86.32Z"/></g><line class="cls-19" x1="81.73" y1="87.56" x2="82.41" y2="88.05"/><path class="cls-19" d="M87.42,77.11a3.49,3.49,0,0,1,2.22,1.4"/><path class="cls-15" d="M110.06,92.79a7,7,0,1,1,7-7A7,7,0,0,1,110.06,92.79Z"/><path class="cls-16" d="M110.06,80.65a5.15,5.15,0,1,0,5.15,5.15A5.16,5.16,0,0,0,110.06,80.65Z"/><g class="cls-27"><path class="cls-18" d="M104.9,89.19l10.31-6.81s2.68,5.65-1.63,8.25S104.9,89.19,104.9,89.19Z"/></g><line class="cls-19" x1="106.2" y1="90.43" x2="106.89" y2="90.92"/><path class="cls-19" d="M111.9,80a3.46,3.46,0,0,1,2.21,1.4"/><path class="cls-28" d="M56.08,86.36a7.19,7.19,0,0,1-5.32-7.51,5.24,5.24,0,0,1,6.55-4.73,7.17,7.17,0,0,1,5.32,7.51A5.24,5.24,0,0,1,56.08,86.36Z"/><path class="cls-15" d="M57,85.44a7.18,7.18,0,0,1-5.32-7.51,5.24,5.24,0,0,1,6.54-4.74,7.18,7.18,0,0,1,5.32,7.52A5.23,5.23,0,0,1,57,85.44Z"/><path class="cls-16" d="M58.08,74.81a3.85,3.85,0,0,0-4.82,3.48,5.3,5.3,0,0,0,3.92,5.54A3.86,3.86,0,0,0,62,80.34,5.28,5.28,0,0,0,58.08,74.81Z"/><g class="cls-29"><path class="cls-18" d="M53,81.26l9.34-3.91s1.78,5.47-2.1,6.89S53,81.26,53,81.26Z"/></g><line class="cls-30" x1="53.96" y1="82.6" x2="54.49" y2="83.17"/><path class="cls-30" d="M59.7,74.59a3.61,3.61,0,0,1,1.76,1.67"/><path class="cls-28" d="M102.33,81.94a7.16,7.16,0,0,1-7.6-5.2A5.23,5.23,0,0,1,99.21,70a7.18,7.18,0,0,1,7.61,5.19A5.24,5.24,0,0,1,102.33,81.94Z"/><path class="cls-15" d="M102.88,80.75a7.18,7.18,0,0,1-7.6-5.2,5.23,5.23,0,0,1,4.49-6.71,7.18,7.18,0,0,1,7.6,5.19A5.24,5.24,0,0,1,102.88,80.75Z"/><path class="cls-16" d="M100.18,70.41a3.86,3.86,0,0,0-3.31,4.94,5.3,5.3,0,0,0,5.6,3.83,3.86,3.86,0,0,0,3.31-5A5.29,5.29,0,0,0,100.18,70.41Z"/><g class="cls-31"><path class="cls-18" d="M97.63,78.24,105,71.33s3.57,4.51.42,7.19S97.63,78.24,97.63,78.24Z"/></g><line class="cls-30" x1="99.03" y1="79.15" x2="99.72" y2="79.5"/><path class="cls-30" d="M101.62,69.64a3.59,3.59,0,0,1,2.23,1"/><path class="cls-28" d="M75.08,88.23A8,8,0,0,1,66.27,83a5.83,5.83,0,0,1,4.54-7.77,8,8,0,0,1,8.81,5.26A5.84,5.84,0,0,1,75.08,88.23Z"/><path class="cls-15" d="M75.62,86.87A8,8,0,0,1,66.8,81.6a5.85,5.85,0,0,1,4.55-7.78,8,8,0,0,1,8.81,5.27A5.84,5.84,0,0,1,75.62,86.87Z"/><path class="cls-16" d="M71.91,75.54a4.31,4.31,0,0,0-3.35,5.73,5.9,5.9,0,0,0,6.49,3.88,4.3,4.3,0,0,0,3.35-5.73A5.89,5.89,0,0,0,71.91,75.54Z"/><g class="cls-32"><path class="cls-18" d="M69.6,84.43l7.76-8.19s4.29,4.78,1,8S69.6,84.43,69.6,84.43Z"/></g><line class="cls-33" x1="71.22" y1="85.35" x2="72.02" y2="85.69"/><path class="cls-33" d="M73.47,74.59A4,4,0,0,1,76,75.5"/><path class="cls-28" d="M88.75,80.93a8,8,0,0,1,8.82-5.26,5.83,5.83,0,0,1,4.54,7.77,8,8,0,0,1-8.81,5.27A5.85,5.85,0,0,1,88.75,80.93Z"/><path class="cls-15" d="M88.22,79.57A8,8,0,0,1,97,74.3a5.85,5.85,0,0,1,4.55,7.78,8,8,0,0,1-8.82,5.27A5.84,5.84,0,0,1,88.22,79.57Z"/><path class="cls-16" d="M90,79.9a4.3,4.3,0,0,0,3.34,5.73,5.9,5.9,0,0,0,6.5-3.88A4.31,4.31,0,0,0,96.47,76,5.89,5.89,0,0,0,90,79.9Z"/><g class="cls-34"><path class="cls-18" d="M98.78,84.91,91,76.72s-4.29,4.78-1,8S98.78,84.91,98.78,84.91Z"/></g><line class="cls-33" x1="97.16" y1="85.83" x2="96.36" y2="86.17"/><path class="cls-33" d="M94.91,75.07a4,4,0,0,0-2.54.91"/><path class="cls-28" d="M18.19,117.43a8,8,0,0,1,8.69-.1c2.41,1.68,2.42,4.45,0,6.19a8,8,0,0,1-8.7.1C15.82,121.94,15.8,119.16,18.19,117.43Z"/><path class="cls-15" d="M18.19,116.45a8.51,8.51,0,0,1,8.69-.1c2.41,1.56,2.42,4.14,0,5.76a8.55,8.55,0,0,1-8.7.09C15.82,120.64,15.8,118.06,18.19,116.45Z"/><path class="cls-16" d="M19.34,117.19c-1.76,1.19-1.75,3.09,0,4.24a6.27,6.27,0,0,0,6.4-.07,2.36,2.36,0,0,0,0-4.24A6.27,6.27,0,0,0,19.34,117.19Z"/><g class="cls-35"><path class="cls-18" d="M23.67,122.78l-2.22-7s-5.16,1.28-4.08,4.11S23.67,122.78,23.67,122.78Z"/></g><line class="cls-36" x1="22.09" y1="122.77" x2="21.36" y2="122.7"/><path class="cls-36" d="M25,116.1a4.25,4.25,0,0,0-2.25-.31"/><path class="cls-28" d="M83.51,141.42c-4.21.91-8.77-.78-10.16-3.76s.91-6.16,5.13-7.07,8.78.78,10.17,3.77S87.73,140.51,83.51,141.42Z"/><polygon class="cls-28" points="72.97 136.28 73.03 132.73 89.12 133.28 89 136.75 80.97 140.85 72.97 136.28"/><path class="cls-15" d="M83.58,138.67c-4.21.91-8.77-.77-10.16-3.76s.91-6.16,5.13-7.07,8.78.78,10.17,3.77S87.8,137.76,83.58,138.67Z"/><path class="cls-16" d="M79.53,129.14c-3.15.42-5,2.51-4.24,4.65s4,3.54,7.17,3.11,5.05-2.52,4.24-4.66S82.67,128.71,79.53,129.14Z"/><g class="cls-37"><path class="cls-18" d="M76.25,136.35l9.48-6.68s4.58,3.84.54,6.45S76.25,136.35,76.25,136.35Z"/></g><line class="cls-38" x1="78.52" y1="137.75" x2="79.44" y2="137.97"/><path class="cls-38" d="M81,128.32a5.45,5.45,0,0,1,2.92.56"/><rect class="cls-7" x="38.87" y="87.85" width="76.84" height="32.41"/><path class="cls-10" d="M42.12,91.5l5.07,32.41H41a2.62,2.62,0,0,1-2.57-2.14L32.94,91.5Z"/><path class="cls-10" d="M115,91.5,110,123.91h6.16a2.62,2.62,0,0,0,2.57-2.14l5.52-30.27Z"/><rect class="cls-10" x="41.44" y="117.47" width="73.15" height="6.43"/><path class="cls-10" d="M34.76,85.06h87.51A1.94,1.94,0,0,1,124.21,87v4.5a0,0,0,0,1,0,0H32.94a0,0,0,0,1,0,0V86.88A1.82,1.82,0,0,1,34.76,85.06Z"/><circle class="cls-12" cx="114.13" cy="120.03" r="1.58"/><circle class="cls-12" cx="116.49" cy="109.28" r="1.58"/><circle class="cls-12" cx="118.1" cy="98.53" r="1.58"/><circle class="cls-12" cx="119.33" cy="88.5" r="1.58"/><circle class="cls-12" cx="42.54" cy="120.03" r="1.58"/><circle class="cls-12" cx="56.63" cy="120.03" r="1.58"/><circle class="cls-12" cx="70.73" cy="120.03" r="1.58"/><circle class="cls-12" cx="84.82" cy="120.03" r="1.58"/><circle class="cls-12" cx="98.92" cy="120.03" r="1.58"/><circle class="cls-12" cx="49.99" cy="88.28" r="1.58"/><path class="cls-12" d="M62.5,88.28a1.58,1.58,0,1,0,1.58-1.58A1.58,1.58,0,0,0,62.5,88.28Z"/><path class="cls-12" d="M76.26,88.28a1.58,1.58,0,1,0,1.58-1.58A1.58,1.58,0,0,0,76.26,88.28Z"/><circle class="cls-12" cx="92.27" cy="88.28" r="1.58"/><path class="cls-12" d="M105,88.28a1.58,1.58,0,1,0,1.58-1.58A1.58,1.58,0,0,0,105,88.28Z"/><circle class="cls-12" cx="40.18" cy="109.28" r="1.58"/><circle class="cls-12" cx="38.58" cy="98.53" r="1.58"/><circle class="cls-12" cx="37.34" cy="88.5" r="1.58"/><rect class="cls-11" x="44.71" y="104.69" width="68.13" height="1.36"/><polygon class="cls-2" points="62.78 65.06 63.6 67.22 65.76 68.04 63.6 68.85 62.78 71.02 61.96 68.85 59.8 68.04 61.96 67.22 62.78 65.06"/><polygon class="cls-2" points="90.69 68.33 91.3 69.94 92.91 70.56 91.3 71.17 90.69 72.78 90.08 71.17 88.47 70.56 90.08 69.94 90.69 68.33"/><polygon class="cls-2" points="42.92 75.62 43.53 77.23 45.14 77.84 43.53 78.45 42.92 80.06 42.31 78.45 40.69 77.84 42.31 77.23 42.92 75.62"/><polygon class="cls-2" points="101.97 76.89 102.58 78.5 104.2 79.11 102.58 79.72 101.97 81.34 101.36 79.72 99.75 79.11 101.36 78.5 101.97 76.89"/></svg>