<svg id="साबुन" xmlns="http://www.w3.org/2000/svg" viewBox="0 0 150 160"><defs><style>.cls-1{fill:#fff;stroke:#fff;stroke-miterlimit:10;stroke-width:5px;}.cls-2{fill:#e3a6af;}.cls-3{fill:#f4b0b0;}.cls-4{fill:#f6c5bb;}.cls-5{fill:#f8d0c1;}.cls-6{fill:#dca29d;}</style></defs><path class="cls-1" d="M136.77,56.21s-1.39-.67-3.79-1.69c-5.08-5.38-18.81-9.93-34.26-12.41C79.24,39,36.82,57.84,36.82,57.84c-9.33,3.22-15,6.64-17.58,10.21l0,0s-2.56,1.82-3.51,2.36-5,13.62-3.81,18.25a11.84,11.84,0,0,0,1.7,3.39h0s-.4,14.22,10.63,18.45S44,120.89,61.88,117s27.7-12.26,38.53-16.14,13.73,4.09,24.94-4.09C133,91.23,139,82.31,139.44,75.26a3.63,3.63,0,0,0,.73-1.15C142.62,67.16,136.77,56.21,136.77,56.21Z"/><path class="cls-2" d="M13.58,92.07s-.4,14.22,10.63,18.45S44,120.89,61.88,117s27.7-12.26,38.53-16.14,13.73,4.09,24.94-4.09,19-23.62,10.6-29.68S18.69,69.17,13.58,92.07Z"/><path class="cls-3" d="M19.21,68.07s-2.56,1.82-3.51,2.36-5,13.62-3.81,18.25,12.8,20.84,45.21,15.94,80.62-23.56,83.07-30.51-3.4-17.9-3.4-17.9S107.41,42,86,44.77,19.21,68.07,19.21,68.07Z"/><path class="cls-4" d="M36.82,57.84S79.24,39,98.72,42.11s36.22,9.53,36.36,16.75-81.7,40.85-102,29.55S11,66.76,36.82,57.84Z"/><path class="cls-5" d="M87.68,43.33s10.14-2.18,16.4,1.09-8,6.57-8.14,6.08S64.63,57.91,61.88,56,73.45,45.78,87.68,43.33Z"/><path class="cls-6" d="M61.39,63.31a.32.32,0,0,1-.35-.1c-.39-.34-.72-.47-1-.37s-.18.23-.07.39c.37.52,1.68.78,3.31,1a7.35,7.35,0,0,1,4.61,2.15c1.71,2.1,1.35,4.44-1.48,5.54-3.28,1.26-5.93,0-7.58-2.69-.05-.09,0-.2.14-.26l2.68-1.17a.34.34,0,0,1,.39.13c.53.62,1.36,1.19,1.85,1,.29-.11.37-.32.1-.69s-1.91-.68-3.83-1.07a6.23,6.23,0,0,1-4-2.57c-1.05-1.71-.89-4.06,1.43-4.9a6.22,6.22,0,0,1,6.62,2.14c.09.11.1.23,0,.28Z"/><path class="cls-6" d="M64.82,61.75c-2-2.42-1.29-4.2.63-4.9s4.75-.22,7.12,2l4.52,4.27c2.35,2.23,1.38,4.13-1,5a6.53,6.53,0,0,1-7.45-1.83Zm7.68,3.08a.67.67,0,0,0,.69.26c.23-.08.17-.29,0-.51L69,60.24c-.18-.19-.47-.37-.67-.29s-.12.3.08.51Z"/><path class="cls-6" d="M75,53.41a.64.64,0,0,1,.45.09L90.77,62c.24.12.33.31.1.4l-3.5,1.35a.55.55,0,0,1-.45,0l-3-1.88a.41.41,0,0,0-.34,0l-1.11.43c-.08,0-.1.11,0,.2l2,2.2c.09.11,0,.22-.1.26l-3.56,1.38a.45.45,0,0,1-.52-.15L71.64,54.88c-.07-.07-.09-.2,0-.24Zm4.78,5.74c-.28-.18-.47-.29-.52-.27s0,.14.24.37l1.32,1.41a.27.27,0,0,0,.29.09c.64-.24.7-.26.53-.38Z"/><path class="cls-6" d="M78.31,52.55c-.19-.13-.23-.25-.07-.31l4-1.47c.8-.29,4-.83,8,1.41,1.92,1.1,2.19,2.81.3,3.52-1,.36-1.06.4-.82.55l6.12,4c.16.1.15.22-.09.32L92,62a.83.83,0,0,1-.68-.11ZM87,54.49a.53.53,0,0,0,.4.07c.29-.11.15-.31-.24-.56l-.8-.51a1.14,1.14,0,0,0-.92-.19s-.09,0-.11.06,0,.08.1.12Z"/><path class="cls-5" d="M22.1,69.34S35.59,86.1,41.92,84.73,53,75.2,52.74,74,34.54,61.88,33.16,61.46,20.06,65.67,22.1,69.34Z"/><path class="cls-5" d="M119.17,61.43s1.55,4.3,5.07,2.23,9.65-7.93,3-11.07S116.38,58.68,119.17,61.43Z"/></svg>