<svg id="जहाज" xmlns="http://www.w3.org/2000/svg" viewBox="0 0 150 160"><defs><style>.cls-1,.cls-8{fill:#eae7e2;}.cls-1{stroke:#fff;stroke-miterlimit:10;stroke-width:5px;}.cls-2{fill:#254461;}.cls-3{fill:#192e41;}.cls-4{fill:#a8d2ee;}.cls-5{fill:#cdc5bb;}.cls-6{fill:#778fb1;}.cls-7{fill:#d8806f;}.cls-9{fill:#0b5989;}.cls-10{fill:#38495a;}</style></defs><path class="cls-1" d="M142.23,101.86c.31-2.42.36-5.71.5-8.3-2.73-.2-6.37,1.23-6.56-2.83,10.38-1.26-10.86-1.48-11.33-1.34-.24-.14.58-7.08-.42-6.37,2.59-4.78-14.25-1.69-15.8-2.52-1.6-4.64-6.05-6.41.48-9.45l-8.85.39,4.37-17.17c-.75-.71-2.79,5.4-3.07,5.6h-3.3c.19,1.14,1.74,1.26,2.62,1.51l-1.52,3.4c-1.13-.25-3.91.77-4-1.33.53,0,4.5.22,2.51-1H90.25c-2.18,1.4,2.8,1,3.26,1,.25,1.37-1.88,1.43-.31,2.17,2.52,1.1,6.78-.16,4,4-.22.23-7.25-.69-4.2.84,0,.13,4,.74,3.29,1.17l-2.5.11c1.62,1,2.86,2.58,0,2.69.75,2.14-2,1-3,1.24-.19-.88.67-3.36-1.14-2.7,5.86-6-7.82-6-2,0,0,0-.81,0-.8,0l-10.63-.35v2.58c.86.46.3-1.86.45-2.12,1.9-.31,1.42.85,1.45,2.18-.43-.16-2.35.37-1.92-.68-2.65-.31-4.87-.4-6.38,2.23,3.06.72,3.28,9.24,3.16,12-.07-.13-11.32.85-11.75.88.37,7.66-1.38-1.55-10,.56a16.6,16.6,0,0,0-2.59-2.4C50.13,87.1,72.91,66,63.25,80.34c0,7.2,5.6,6.41,5.07,0,.32-.12-2.22-3.52-2.21-3.65l6-7.94c.14-.07-.69-.68-.73-.53L53.8,58.05l.13.2C53.3,57,46.62,75.12,46.37,75c.38-1.41-.86-8.36,2.21-7.66.19-.7.58-1.2-.52-1.08V62.51c-2.31-.08-3.75.78-3.28-2.32-.67-1.34-.94,2.13-1.1,2.32H40.16v3.11c-1-.39-.52.78-.64,1.29,3.38-1-3.38,16.59-2.87,17.27L8.54,83.1c.14,1.38.18,4.32-1.27,5.14,2.94,2.33,16.21,12.65,10.74,17.45,6.09,0,120.3,0,123.55,0C141.21,104.57,142.14,103.09,142.23,101.86ZM120.56,83c0-1.46-.35-2.41,1.57-2.07C122.14,82.41,122.48,83.36,120.56,83Zm-.44,0c-1.92.34-1.59-.61-1.57-2.07C120.47,80.61,120.13,81.56,120.12,83Zm-2,0c-1.85.37-1.35-.79-1.4-2.07C118.56,80.58,118.06,81.74,118.1,83Zm-6.65,0c-1.63.48-1.08-1.1-1.18-2.07C111.91,80.47,111.35,82.05,111.45,83ZM124,83c-1.86.37-1.36-.79-1.4-2.07C124.43,80.58,123.93,81.74,124,83ZM109.83,81v2l-1-2ZM86.39,73.39c-.13.92.52,2.65-1.12,2.09C85.4,74.57,84.76,72.83,86.39,73.39Zm-1.56,0c.08,1.7.23,2.44-1.79,2.07C83,73.71,82.8,73,84.83,73.34Zm-2.24-.07c.08,1.7.23,2.44-1.79,2.07C80.72,73.63,80.56,72.9,82.59,73.27Zm-4-.13c2-.26,1.89.51,1.79,2.18C78.36,75.58,78.47,74.81,78.56,73.14ZM68.23,80.25H63.41L66,76.83ZM66,76.54c-3.52-2.19,4.86-6.13,5.78-7.61Zm5.25-8.2L64.34,74l-10-15.4ZM54,58.4,64.2,74.06C34.61,101.85,47.59,75.64,54,58.4ZM47.62,63v3.28l-.68,0C47.18,65.8,46.33,62.27,47.62,63ZM46.5,63c-.27.57.74,4-.9,3.12C45.85,65.48,44.9,62.22,46.5,63Zm-1.35,0c-.17.14.42,3.63-.37,3.05C45,65.85,44.38,62.46,45.15,63Zm-1.57,0-.44,2C43.29,64.69,42.75,62.53,43.58,63Zm-.89,0c-.25.6.7,3.63-.89,2.8C42,65.13,41.14,62.28,42.69,63Zm-2.08,2.7V63c1.35-.65.53,2.28.74,2.76Zm1.82,1.92,2.46.23c-1.09,1.7.27,17.51-4.61,15.11Zm-5.9,17s-.78,3.31-.85,3.26C36,87.34,35,83.8,36.53,84.62Zm-1.29-.05c-.22,1.59.9,4-1.79,3.21C33.66,86.19,32.55,83.84,35.24,84.57ZM33,84.49c-.16,1.82.84,3.91-2,3.19C31.14,85.85,30.15,83.78,33,84.49Zm-2.46-.1c-.21,1.59.89,3.93-1.79,3.2C29,86,27.86,83.67,30.54,84.39ZM28.3,84.3c-.21,1.6.89,3.93-1.79,3.2C26.72,85.9,25.62,83.58,28.3,84.3Zm-2.24-.08c-.2,1.59.9,3.91-1.79,3.18C24.48,85.81,23.39,83.5,26.06,84.22Zm-2.23-.09c-.21,1.6.89,3.91-1.79,3.18C22.24,85.71,21.15,83.41,23.83,84.13Zm-2.24-.08v3.24C19,87.81,20,85.57,19.8,84ZM19.35,84V87.2c-2.6.52-1.62-1.72-1.79-3.31Zm-2.23-.09v3.24c-2.6.51-1.63-1.71-1.79-3.31Zm-2.24-.08c-.2,1.59.88,3.87-1.79,3.15C13.29,85.34,12.21,83.08,14.88,83.79Zm-2.24-.09c-.2,1.6.88,3.86-1.79,3.14C11.05,85.25,10,83,12.64,83.7ZM9,83.56l1.71.07c-.64-.45-.15,3.11-.3,3.2C8.17,87.38,9.21,84.77,9,83.56Z"/><polygon class="cls-2" points="111.45 83.13 111.45 80.78 116.7 80.78 116.7 83.47 111.45 83.13"/><rect class="cls-3" x="109.83" y="80.84" width="0.45" height="2.52"/><rect class="cls-3" x="122.13" y="80.84" width="0.45" height="2.52"/><rect class="cls-3" x="120.12" y="80.84" width="0.45" height="2.52"/><rect class="cls-3" x="118.1" y="80.84" width="0.45" height="2.52"/><polygon class="cls-3" points="124.42 83.02 123.97 83.02 123.97 80.95 107.98 80.95 107.98 80.5 124.42 80.5 124.42 83.02"/><polygon class="cls-4" points="96.12 71.95 104.06 54.27 104.62 54.27 100.15 71.83 96.12 71.95"/><path class="cls-4" d="M92.54,64.79c.34-.11,7.72,0,7.72,0L99,67l-5.83-1.4a.86.86,0,0,1-.66-.83Z"/><path class="cls-4" d="M98.25,59.87h4l-.79,1.67L99.37,61a1.53,1.53,0,0,1-1.12-1.12Z"/><polygon class="cls-4" points="93.55 63.22 93.22 65.01 95.9 65.01 95.23 63.11 93.55 63.22"/><path class="cls-4" d="M92.21,69.6h5.48l-.78,1.9L93,70.44a1,1,0,0,1-.77-.84Z"/><path class="cls-5" d="M86.28,70.49a2.35,2.35,0,0,1,4.7,0,2.38,2.38,0,1,1-4.7,0Z"/><polygon class="cls-6" points="76.21 72.61 76.21 75.19 76.66 75.19 76.66 73.07 78.11 73.12 78.11 75.53 78.56 75.53 78.56 73.14 80.35 73.19 80.35 75.53 80.8 75.53 80.8 73.21 82.59 73.27 82.59 75.53 83.04 75.53 83.04 73.28 84.83 73.34 84.83 75.53 85.27 75.53 85.27 73.36 86.39 73.39 86.39 75.75 86.84 75.75 86.84 72.96 76.21 72.61"/><polygon class="cls-6" points="61.22 93.2 61.22 89.73 72 88.84 69.17 93.31 61.22 93.2"/><polygon class="cls-6" points="35.61 88.28 40.87 67.47 39.52 66.91 39.52 65.57 48.92 66.35 48.59 67.36 46.68 67.92 45.79 87.94 42.43 87.83 44.89 67.81 42.43 67.58 39.52 88.28 35.61 88.28"/><path class="cls-6" d="M44.21,60.13,43,65.82a.29.29,0,0,0,.25.35l1.26.15a.29.29,0,0,0,.32-.29V60.19a.29.29,0,0,0-.29-.29h0A.3.3,0,0,0,44.21,60.13Z"/><path class="cls-5" d="M47.8,87.38c.34-.33,23.71-19.24,23.71-19.24l.56.56L48.47,88.05Z"/><polygon class="cls-5" points="41.2 87.27 53.51 58.08 54.06 58.3 42.43 87.83 41.2 87.27"/><path class="cls-2" d="M38.41,88.39s.22-5.37,1.9-5.48,3.46-.56,4.25.11,1.34,5.59,1.34,5.59Z"/><path class="cls-4" d="M49.81,92.75s-.44-2.46,1.46-2.46h6.15c1.46,0,3,3.13,3,3.13Z"/><path class="cls-7" d="M38.39,88.24s5.6-2.09,8-1.53,4.92,3.58,4.92,3.58l-1.45,2.46-6.26-.56-4.37-2.13Z"/><polygon class="cls-6" points="40.16 62.51 40.16 65.87 40.6 65.87 40.6 62.96 41.35 62.96 41.35 65.94 41.8 65.94 41.8 62.96 42.69 62.96 42.69 65.94 43.14 65.94 43.14 62.96 45.15 62.96 45.15 66.39 45.6 66.39 45.6 62.96 46.5 62.96 46.5 66.39 46.94 66.39 46.94 62.96 47.62 62.96 47.62 66.47 48.06 66.47 48.06 62.51 40.16 62.51"/><polygon class="cls-5" points="8.54 83.09 8.54 86.98 8.99 86.98 8.99 83.56 10.7 83.63 10.4 83.63 10.4 87.36 10.85 87.36 10.85 83.63 12.64 83.7 12.64 87.36 13.09 87.36 13.09 83.72 14.88 83.79 14.88 87.36 15.33 87.36 15.33 83.8 17.12 83.87 17.12 87.36 17.56 87.36 17.56 83.89 19.35 83.96 19.35 87.36 19.8 87.36 19.8 83.98 21.59 84.05 21.59 87.36 22.04 87.36 22.04 84.06 23.83 84.13 23.83 87.58 24.27 87.58 24.27 84.15 26.06 84.22 26.06 87.8 26.51 87.8 26.51 84.24 28.3 84.31 28.3 87.8 28.75 87.8 28.75 84.32 30.54 84.39 30.54 88.03 30.99 88.03 30.99 84.41 33 84.49 33 88.03 33.45 88.03 33.45 84.5 35.24 84.57 35.24 88.03 35.68 88.03 35.68 84.59 37.55 84.66 37.55 88.25 38 88.25 38 84.23 8.54 83.09"/><polygon class="cls-6" points="110.11 83.47 105.18 73.62 102.83 73.29 108.09 83.92 110.11 83.47"/><polygon class="cls-5" points="94.89 74.41 95.68 73.29 102.83 73.29 107.98 83.47 94.56 83.58 94.89 74.41"/><path class="cls-5" d="M7.27,88.24a62.45,62.45,0,0,1,6.86,6c1.94,2.23,5.37,6.71,5.37,8.5a4.21,4.21,0,0,1-1.49,3H141.5a5.1,5.1,0,0,1,.45-2.54c.59-1.19.72-9.49.72-9.49l-5.72,0-.82-3h2.68l0-1.09L72,88.84l-2.83,4.47s-25-.65-27.3-2.09l-.62-.37a1.83,1.83,0,0,1-.71-.2c-1.47-1.22-1.95-2.35-2.56-2.47S8.54,86.75,8.54,86.75Z"/><polygon class="cls-8" points="72.97 88.95 72.97 83.47 71.74 79.22 95.04 79.59 95.12 83.02 124.87 83.02 124.84 89.39 72.97 88.95"/><polygon class="cls-6" points="86.84 75.74 86.84 72.95 90.75 72.95 90.75 75.86 86.84 75.74"/><polygon class="cls-2" points="93.77 71.72 95.68 73.29 105.18 73.62 109.1 71.05 93.77 71.72"/><path class="cls-7" d="M63.24,80.34h5.14s0,5.25-2.57,5.36C63.58,85.8,63.24,80.34,63.24,80.34Z"/><path class="cls-8" d="M7.27,88.24l1.27-1.49L39,88a4.24,4.24,0,0,0,.75,1.64,8.25,8.25,0,0,0,1.47,1.19Z"/><path class="cls-2" d="M79.83,93.61h0a.9.9,0,0,1-.9-.9V91.52a.9.9,0,0,1,.9-.89h0a.89.89,0,0,1,.89.89v1.19A.89.89,0,0,1,79.83,93.61Z"/><path class="cls-2" d="M84.3,93.61h0a.89.89,0,0,1-.89-.9V91.52a.89.89,0,0,1,.89-.89h0a.89.89,0,0,1,.9.89v1.19A.9.9,0,0,1,84.3,93.61Z"/><path class="cls-2" d="M88.78,93.61h0a.9.9,0,0,1-.9-.9V91.52a.9.9,0,0,1,.9-.89h0a.89.89,0,0,1,.89.89v1.19A.89.89,0,0,1,88.78,93.61Z"/><path class="cls-2" d="M98.85,93.61h0a.9.9,0,0,1-.9-.9V91.52a.89.89,0,0,1,.9-.89h0a.89.89,0,0,1,.89.89v1.19A.89.89,0,0,1,98.85,93.61Z"/><path class="cls-2" d="M103.32,93.61h0a.9.9,0,0,1-.9-.9V91.52a.9.9,0,0,1,.9-.89h0a.89.89,0,0,1,.89.89v1.19A.89.89,0,0,1,103.32,93.61Z"/><path class="cls-3" d="M120.81,93h0a.71.71,0,0,1-.71-.71v-1a.71.71,0,0,1,.71-.7h0a.7.7,0,0,1,.7.7v1A.7.7,0,0,1,120.81,93Z"/><path class="cls-2" d="M74,92a.67.67,0,0,1,.67-.67.67.67,0,1,1,0,1.34A.67.67,0,0,1,74,92Z"/><rect class="cls-6" x="97.64" y="77.25" width="2.18" height="5.54"/><rect class="cls-6" x="75.21" y="84.14" width="1.34" height="2.83"/><rect class="cls-6" x="77.44" y="84.14" width="1.34" height="2.83"/><rect class="cls-6" x="82.74" y="84.21" width="2.01" height="4.62"/><rect class="cls-6" x="86.32" y="84.21" width="1.12" height="1.86"/><rect class="cls-6" x="95.6" y="84.21" width="1.12" height="1.86"/><rect class="cls-6" x="106.64" y="84.21" width="1.12" height="1.86"/><path class="cls-4" d="M89.75,62.94h0a.5.5,0,0,0,.5.51h7.61a.5.5,0,0,0,.5-.51h0a.5.5,0,0,0-.5-.5H90.25A.5.5,0,0,0,89.75,62.94Z"/><polygon class="cls-3" points="95.05 79.78 95.12 77.09 70.62 76.64 71.74 79.22 95.05 79.78"/><polygon class="cls-6" points="71.41 77.17 72.05 78.83 73.59 78.81 72.94 77.16 71.41 77.17"/><polygon class="cls-6" points="73.49 77.19 74.13 78.84 75.48 78.84 75.03 77.2 73.49 77.19"/><polygon class="cls-6" points="75.58 77.2 76.01 78.85 77.39 78.86 77.11 77.18 75.58 77.2"/><polygon class="cls-6" points="77.67 77.18 77.91 78.86 79.32 78.87 79.2 77.19 77.67 77.18"/><polygon class="cls-6" points="79.74 77.22 79.78 78.87 81.13 78.88 81.17 77.26 79.74 77.22"/><rect class="cls-6" x="84.38" y="77.34" width="1.29" height="1.82"/><rect class="cls-6" x="86.22" y="77.34" width="1.29" height="1.82"/><rect class="cls-6" x="88.01" y="77.34" width="1.29" height="1.82"/><rect class="cls-6" x="89.8" y="77.34" width="1.29" height="1.82"/><rect class="cls-6" x="91.59" y="77.34" width="1.29" height="1.82"/><rect class="cls-6" x="93.38" y="77.34" width="1.29" height="1.82"/><rect class="cls-8" x="81.75" y="76.84" width="1.85" height="2.68"/><path class="cls-9" d="M142.61,96.23h-.07s-84.78-.9-92.61-1.12c-7.25-.21-33.65-2.33-37.55-2.64a20.55,20.55,0,0,1,1.75,1.75c1.94,2.23,5.37,6.71,5.37,8.5a4.21,4.21,0,0,1-1.49,3H141.5a4.76,4.76,0,0,1,.26-2.75C142.13,102.2,142.39,98.82,142.61,96.23Z"/><path class="cls-3" d="M70.23,98.38h4.94a.87.87,0,0,1,.86.87h0a.87.87,0,0,1-.86.86H70.23a.87.87,0,0,1-.86-.86h0A.87.87,0,0,1,70.23,98.38Z"/><path class="cls-2" d="M14.13,94.21c1.94,2.23,5.37,6.71,5.37,8.5a4.21,4.21,0,0,1-1.49,3H141.5a5.1,5.1,0,0,1,.45-2.54,3,3,0,0,0,.19-.7s-8.25-.1-58-.1-71.74-9.89-71.74-9.89A20.55,20.55,0,0,1,14.13,94.21Z"/><path class="cls-3" d="M59.05,98.38H64a.87.87,0,0,1,.87.87h0a.87.87,0,0,1-.87.86H59.05a.87.87,0,0,1-.87-.86h0A.87.87,0,0,1,59.05,98.38Z"/><path class="cls-3" d="M47.86,98.38H52.8a.87.87,0,0,1,.86.87h0a.87.87,0,0,1-.86.86H47.86a.87.87,0,0,1-.86-.86h0A.87.87,0,0,1,47.86,98.38Z"/><path class="cls-9" d="M141.49,105c0-.2,0-.44.08-.7A3.07,3.07,0,0,0,141.49,105Z"/><path class="cls-9" d="M142,103.14a3,3,0,0,0,.19-.69C142.08,102.71,142,102.94,142,103.14Z"/><path class="cls-6" d="M137.06,93.56l-.89-2.83h2.68V89.54l-7.12,0a50.94,50.94,0,0,1,1.05,6.69l9.82.09.13-2.72Z"/><path class="cls-6" d="M141.57,104.33c0-.09.05-.18.08-.28.09-.27.19-.56.3-.91h0A4.49,4.49,0,0,0,141.57,104.33Z"/><path class="cls-6" d="M141.5,105.69h-9.41l9.47,0a3.29,3.29,0,0,1-.07-.7A4.51,4.51,0,0,0,141.5,105.69Z"/><path class="cls-10" d="M142.61,96.23h-.35l-9.49-.12c0,.27,0,.53,0,.78a63.56,63.56,0,0,1-.72,8.8h9.41a4.51,4.51,0,0,1,0-.66,3.07,3.07,0,0,1,.08-.7,4.49,4.49,0,0,1,.38-1.18h0c.06-.2.13-.43.19-.69A54.76,54.76,0,0,0,142.61,96.23Z"/><path class="cls-6" d="M68.16,80.42H63.38a.15.15,0,0,1-.12-.25l2.65-3.49L53.8,58.05,72.2,68.68l-.06.07-6,7.94,2.22,3.41A.21.21,0,0,1,68.16,80.42Zm-4.75-.17h4.82L66,76.83Zm-9.08-21.7L66,76.54,72,68.73Z"/><path class="cls-3" d="M31.54,99a2.24,2.24,0,1,1,2.24,2.24A2.25,2.25,0,0,1,31.54,99Z"/><polygon class="cls-8" points="69.81 76.8 71.96 74.41 76.19 74.57 76.21 75.19 93.77 75.75 93.77 74.41 96.12 74.41 96.09 77.1 69.81 76.8"/></svg>