<svg id="चकला" xmlns="http://www.w3.org/2000/svg" viewBox="0 0 150 160"><defs><style>.cls-1{fill:#fff;}.cls-2{fill:#d05508;}.cls-3{fill:#f48e31;}.cls-4{fill:#e08324;}.cls-5{fill:#c66d1e;}</style></defs><path class="cls-1" d="M117.44,34.51a4.15,4.15,0,0,1,0-1.45,17.6,17.6,0,0,1,.46-1.79,23.16,23.16,0,0,0,.68-2.73c.85-4.87.58-8-.83-9.83a4,4,0,0,0-2.82-1.58l-.18,0-.26,0a4.12,4.12,0,0,0-3.29,2c-1.17,1.8-1.5,4.82-1,9.21a22.91,22.91,0,0,0,.53,2.78c.15.66.29,1.28.36,1.8a4.12,4.12,0,0,1-.13,1.45c-3.37.66-3.93,2.33-4,3.31L106,70.08a43.3,43.3,0,0,0-41-38.95c-.72,0-1.44-.06-2.17-.06s-1.44,0-2.16.06a43.36,43.36,0,1,0,45,50.1l-.84,29.15,0,1.94.76,0a5.88,5.88,0,0,0,3,1.59c-.09.33-.19.69-.3,1.06a24.31,24.31,0,0,0-.69,2.74c-.75,4.36-.6,7.39.47,9.25a4,4,0,0,0,3.26,2.15h.31a4,4,0,0,0,2.94-1.41c1.52-1.75,2-4.85,1.4-9.76a22.37,22.37,0,0,0-.53-2.77c-.08-.38-.17-.74-.24-1.08a5.91,5.91,0,0,0,3.06-1.41h.79l2.13-74.48V38C121.23,37.06,120.76,35.36,117.44,34.51Z"/><circle class="cls-2" cx="62.89" cy="74.44" r="41.36"/><circle class="cls-3" cx="62.89" cy="73.14" r="40.07"/><path class="cls-4" d="M112,110.36c1.83,0,3.33-.45,3.35-1.12s-1.45-1.27-3.28-1.32-3.34.45-3.36,1.12S110.17,110.31,112,110.36Z"/><path class="cls-5" d="M110.81,112.31c.07-2.2-1.25-3.6,1.22-3.7h0c2.46.24,1.06,1.56,1,3.77Z"/><path class="cls-4" d="M111.52,127.16h0c1.29,0,3.34-1.17,2.44-9-.19-1.64-.72-3.23-.88-4.56-.32-2.65,1.68-4.23-1-4.5H112l-.45,0c-2,.28-.4,1.93-.84,4.39-.24,1.33-.86,2.88-1.15,4.51-.77,4.46-.44,6.75.23,7.92a2.1,2.1,0,0,0,1.7,1.15h0Z"/><path class="cls-2" d="M111.52,127.16h0c1.29,0,3.34-1.17,2.44-9-.19-1.64-.72-3.23-.88-4.56-.32-2.65,1.68-4.23-1-4.5H112l-.45,0c.59.7.72,3.28.61,3.62-1,3,2.13,12.94-2.37,13.2a2.1,2.1,0,0,0,1.7,1.15h0Z"/><path class="cls-3" d="M110.55,117.1c0,2.29-.2,5.41-.45,7.81C108.69,122.43,110.55,117.1,110.55,117.1Z"/><rect class="cls-2" x="76.65" y="69.09" width="72.78" height="10.24" transform="translate(35.62 185.07) rotate(-88.36)"/><path class="cls-2" d="M112.05,108.88c2.82.08,5.09.93,5.06,1.91s-2.34,1.69-5.16,1.61-5.1-.94-5.07-1.91S109.22,108.8,112.05,108.88Z"/><path class="cls-3" d="M109,37.68l5.46.16a140,140,0,0,1,2,29.42c-.54,18.51-4,34.6-8.85,43.2l-.75,0Z"/><path class="cls-2" d="M114.14,36.07c2.82.08,5.09.93,5.07,1.91s-2.35,1.69-5.17,1.61-5.1-.94-5.07-1.91S111.31,36,114.14,36.07Z"/><path class="cls-4" d="M114.14,35.92c1.84,0,3.31.64,3.29,1.32s-1.52,1.17-3.36,1.12-3.3-.64-3.28-1.31S112.31,35.87,114.14,35.92Z"/><path class="cls-2" d="M113.06,33.9c0,2.21-1.46,3.53,1,3.77h.06c2.47-.1,1.14-1.5,1.22-3.7Z"/><path class="cls-4" d="M114.62,19.12h0c1.28.11,3.26,1.36,1.92,9.07-.28,1.64-.91,3.19-1.14,4.51-.47,2.63,1.43,4.32-1.3,4.43h0l-.45-.06c-2-.41-.29-2-.59-4.43-.16-1.34-.7-2.93-.88-4.57-.52-4.5-.06-6.77.68-7.9a2.06,2.06,0,0,1,1.76-1.05h0Z"/><path class="cls-2" d="M114.62,19.12h0c1.28.11,3.26,1.36,1.92,9.07-.28,1.64-.91,3.19-1.14,4.51-.47,2.63,1.43,4.32-1.3,4.43h0l-.45-.06c.63-.67.9-3.24.81-3.58-.82-3.05,2.87-12.8-1.6-13.32a2.06,2.06,0,0,1,1.76-1.05h0Z"/><path class="cls-3" d="M113.07,29.11c.08-2.29.11-5.41,0-7.82C111.52,23.68,113.07,29.11,113.07,29.11Z"/></svg>