<svg id="टोपी" xmlns="http://www.w3.org/2000/svg" viewBox="0 0 150 160"><defs><style>.cls-1,.cls-7{fill:#ae7240;}.cls-1{stroke:#fff;stroke-miterlimit:10;stroke-width:5px;}.cls-2{fill:#b97d41;}.cls-3{fill:#c0874d;}.cls-4{fill:#c75420;}.cls-5{fill:#c89562;}.cls-6{fill:#a26a3c;}</style></defs><path class="cls-1" d="M136.84,79.23A7.91,7.91,0,0,0,132.15,78a24.57,24.57,0,0,0-6.7.37c-4.48-2.33-9.2-4.7-14.19-7l-2.08-15.8c-.84-6.35-18.26-8.1-31.1-9.66-9.45-1.15-22.69,2-28.64,6.38-.71,2.1-1.43,4.17-2.14,6.24-22.91,4.31-30.73,12.13-33.38,20.6-10,32.17,41.57,39.45,51.46,33.4,20.58-7.84,48.17-19.78,68-28.65C137.51,82.06,138,80,136.84,79.23Z"/><g id="g13695"><g id="g7737"><path id="path13673" class="cls-2" d="M126.2,78.74A326.15,326.15,0,0,0,71.37,55.66c-42,2.61-54,12.46-57.45,23.4-10.13,32.46,42.53,39.58,51.72,33.23Z"/><path id="path13663" class="cls-3" d="M40.93,78.57c2.55-9.42,5.57-17.71,8.51-26.35,6-4.38,19.19-7.53,28.64-6.38,12.84,1.56,30.26,3.31,31.1,9.66L112,76.61C90.65,100,55.2,91.46,41.26,79.39Z"/><path id="path13671" class="cls-4" d="M41.42,77.92,39,86.1c19.1,18.61,55.93,10.58,62,8.35l11.45-7.37L112,77.26C81.75,103.77,52.42,86.37,41.42,77.92Z"/><path id="path13677" class="cls-5" d="M63.79,113c10.86-5.73,20.4-12.94,30-20.14,21-12.87,32.45-16.23,40.5-14.58Z"/><path id="path13675" class="cls-6" d="M64.74,112.7C81.45,104.15,93.41,92.13,111,85c9.63-3.94,20.48-9.53,25.86-5.73,1.11.78.67,2.83-3.44,4.58-20.05,9-48,21.06-68.66,28.89Z"/><path id="path13679" class="cls-7" d="M97.07,50.75c.18,0-7.71-3.26-26-1.8-3.4.27-12.86,2.5-12.61,5.89.07.91-.38,1,.49,1.31,3.25,1,6.79.41,10.15,0C78.06,55.05,97.07,50.75,97.07,50.75Z"/></g></g></svg>