<svg id="छड़ी" xmlns="http://www.w3.org/2000/svg" viewBox="0 0 150 160"><defs><style>.cls-1{fill:#fff;stroke:#fff;stroke-miterlimit:10;stroke-width:5px;}.cls-2{fill:#572f24;}.cls-3{fill:#ab5e46;}.cls-4{fill:#8f4e3b;}.cls-5{fill:#733f2f;}</style></defs><rect class="cls-1" x="71.6" y="12.26" width="6.81" height="135.49"/><rect class="cls-1" x="72.92" y="12.26" width="5.48" height="135.49"/><rect class="cls-1" x="74.24" y="12.26" width="4.16" height="135.49"/><rect class="cls-1" x="75.57" y="12.26" width="2.84" height="135.49"/><path class="cls-1" d="M75,147.28c-1.88,0-3.4.21-3.4.46s1.52.47,3.4.47,3.4-.21,3.4-.47S76.88,147.28,75,147.28Z"/><path class="cls-1" d="M75,12.72c1.88,0,3.4-.21,3.4-.46s-1.52-.47-3.4-.47-3.4.21-3.4.47S73.12,12.72,75,12.72Z"/><ellipse class="cls-2" cx="75" cy="147.74" rx="3.4" ry="0.47"/><rect class="cls-3" x="71.6" y="12.26" width="6.81" height="135.49"/><rect class="cls-4" x="72.92" y="12.26" width="5.48" height="135.49"/><rect class="cls-5" x="74.24" y="12.26" width="4.16" height="135.49"/><rect class="cls-2" x="75.57" y="12.26" width="2.84" height="135.49"/><ellipse class="cls-3" cx="75" cy="12.26" rx="3.4" ry="0.47"/></svg>