<svg xmlns="http://www.w3.org/2000/svg" viewBox="0 0 150 160"><defs><style>.cls-1{isolation:isolate;}.cls-2{fill:#fff;}.cls-3,.cls-4,.cls-6{fill:#2d3135;}.cls-4,.cls-9{opacity:0.5;}.cls-12,.cls-4,.cls-6,.cls-8{mix-blend-mode:multiply;}.cls-5,.cls-9{mix-blend-mode:screen;}.cls-6,.cls-8{opacity:0.3;}.cls-7{fill:#f7b90d;}.cls-10{fill:#dd8c0b;}.cls-11,.cls-12{fill:#ef1b2b;}.cls-12{opacity:0.8;}.cls-13{fill:#ed3233;}.cls-14{fill:#ff3951;}.cls-15{fill:#5d5f60;}</style></defs><g class="cls-1"><g id="घड़ी"><path class="cls-2" d="M121,111.24c0-.07.44-.79.44-.79l.35-.64c.15-.28.28-.57.42-.85l.3-.61c.1-.2.2-.39.29-.59s.28-.61.41-.93l.27-.61.24-.55c.16-.39.3-.78.45-1.17l.17-.46c.07-.17.13-.34.19-.51.15-.42.29-.84.42-1.27l.14-.43c.06-.16.11-.32.16-.48.15-.51.29-1,.44-1.6,0,0,.13-.48.17-.61.14-.57.26-1.14.38-1.72,0,0,.1-.41.12-.53.12-.6.22-1.21.31-1.81l.08-.47c.1-.64.17-1.28.24-1.94l.05-.36c.06-.66.11-1.32.15-2.07l0-.25c0-.7,0-1.4,0-2.16v-.17c0-.71,0-1.42-.06-2.17V85.3c0-.74-.09-1.48-.17-2.22v-.14c-.07-.75-.17-1.5-.28-2.23v-.13c-.11-.73-.24-1.46-.39-2.21l0-.16q-.23-1.09-.51-2.22l0-.15c-.18-.67-.37-1.34-.58-2v-.07l-.13-.36a47.59,47.59,0,0,0-13.87-21.42,22.45,22.45,0,0,0,5.16,1.18h.22l1.45.6.7-2a25,25,0,0,0-9.84-29.23,4.4,4.4,0,0,0,.19-1.3,4.78,4.78,0,0,0-.34-1.71,4.6,4.6,0,0,0-.41-.76,4.52,4.52,0,0,0-2-1.7,4.68,4.68,0,0,0-.8-.24l0,0-.16,0h0a4.71,4.71,0,0,0-.74-.06A4.53,4.53,0,0,0,100.58,19a25.65,25.65,0,0,0-5.09-.61,2.25,2.25,0,0,0,0-.65c0-.57-.37-1.92-2.53-1.92-.39,0-.86,0-1.38.08,0-.06,0-.11,0-.17A2.13,2.13,0,0,0,89.33,14a17.06,17.06,0,0,0-4.64,1c-1.67.56-4.56,1.71-5.12,3.07l-.34.86.38.8,0,0-.46.26-.19.11c-.48.3-1,.58-1.35.87l-.21.14c-.17.11-.33.22-.53.37l-.56.42c-2.82,2.17-2.88,2.85-2.93,3.39l-.08.86.55.64.62.72h.92l.26,0a25.43,25.43,0,0,0-3,4.51v0l-.3.6-.83,1.93,1.2.5c.88,1,2.76,2.06,5.7,3.53.84.43,1.77.88,2.76,1.35-.55,0-1.11,0-1.66,0A48,48,0,0,0,69,41.13l-1.24-4,.42-.13a4.39,4.39,0,0,0,2.59-2.15,4.46,4.46,0,0,0,.31-3.36,4.39,4.39,0,0,0-4.21-3.09,4.21,4.21,0,0,0-1.31.2L58.09,31a4.4,4.4,0,1,0,2.61,8.41l.42-.13,1.23,4A47.46,47.46,0,0,0,50.66,49.7c.7-1.2,1.34-2.31,1.9-3.33,1.58-2.88,2.54-4.79,2.68-6.14L56,39.07l-1.82-1a24.8,24.8,0,0,0-9.65-3.2s0,0,0,0l0-.88L44,33.26c-.35-.37-.82-.89-4-.92h-.64l-.53,0h-.18c-.46,0-.94.07-1.44.12l-.21,0-.64.1a2.06,2.06,0,0,0-1.92-1.12,14.54,14.54,0,0,0-3.7.86c-3.6,1.23-3.95,2-4.14,2.45l-.36.82.25.58c-2,1.28-2.14,1.88-2.24,2.32l-.18.84.45.71.54.8A24.55,24.55,0,0,0,23.2,42.7a4.52,4.52,0,0,0-2-.45,4.46,4.46,0,0,0-3.16,1.29l.3.31-.06,0L18,43.55a4.43,4.43,0,0,0-.63.77,4.52,4.52,0,0,0,.07,5,4.15,4.15,0,0,0,.89,1,26,26,0,0,0-1.19,3.76,1.73,1.73,0,0,0-1.1-.83l-.3-.09h-.32c-1,0-2,.43-2.64,3.39l-.09,0-.28-.08h-.27c-.61,0-1.74.27-2.38,2a7.26,7.26,0,0,0-.37,2.8A7.13,7.13,0,0,0,10.11,64a2.65,2.65,0,0,0,2.36,1.78h.45l.35-.15a23.36,23.36,0,0,0,1.06,3l.27.58.33.68.18.34.37.66.4.65a13.92,13.92,0,0,0,1.4,1.87,2.76,2.76,0,0,0,2,1.14H20l.53-.39a2.2,2.2,0,0,0,.35-.33A24.88,24.88,0,0,0,26.83,80l1.71,1.25.93-1.43a22.37,22.37,0,0,0,3.93-4.19A47.58,47.58,0,0,0,34,101.7l0,.13c.21.68.44,1.34.71,2.08l.07.21c.24.66.5,1.32.8,2l.09.22c.28.65.57,1.29.91,2l.09.19c.31.64.64,1.27,1,1.94l.09.17c.34.62.69,1.22,1.09,1.87l.1.18c.36.58.73,1.14,1.16,1.77l.13.2c.38.56.78,1.1,1.24,1.72l.13.17c.4.52.81,1,1.22,1.52l.24.3c.41.48.82.94,1.25,1.4l.29.33q.63.67,1.29,1.32l.33.33c.4.39.8.76,1.26,1.18l.43.4c.39.34.79.66,1.19,1l.08.07.49.41c.33.27.67.52,1,.78l.4.3.42.32.88.61.52.36.48.32c.28.19.57.36.86.54l.53.33.56.34.74.41.59.33.67.37.62.32.55.26L55.86,140a4.77,4.77,0,0,0,2.87,5.61,5.11,5.11,0,0,0,2,.41,4.65,4.65,0,0,0,4-2.24l5.46-9.33.49.09c.63.12,1.25.23,1.88.32l.33,0c.66.1,1.31.18,2,.25l.28,0c.68.06,1.36.11,2,.15h.2c.69,0,1.39.05,2.14.05h.15c.73,0,1.47,0,2.2-.06H82c.74,0,1.49-.09,2.26-.17h.11c.74-.08,1.48-.17,2.22-.28l.22,0c.72-.11,1.44-.24,2.14-.38l.23,0c.72-.15,1.44-.31,2.15-.5l.18-.05c.62-.16,1.23-.33,1.89-.53H94l.25-.25c.61-.2,1.23-.41,1.84-.63l-.63-1.91.8,1.84c.7-.26,1.39-.53,2.08-.83l.21-.09c.66-.29,1.32-.59,2-.9l.25-.13c.63-.32,1.25-.64,1.86-1l.28-.17c.6-.33,1.19-.67,1.78-1L105,128c.54-.35,1.09-.7,1.62-1.07l.41-.29c.5-.35,1-.71,1.48-1.08.1-.07.45-.36.45-.36.46-.36.92-.72,1.36-1.1l.53-.46c.4-.36.81-.71,1.2-1.07l.69-.68c.28-.26.55-.53.82-.8l9.63,4.52a4.34,4.34,0,0,0,1.88.42,5,5,0,0,0,4.13-2.33,4.8,4.8,0,0,0-.82-6.25Z"/><path class="cls-2" d="M34.79,107.55l-.38-1c-.07-.18-.13-.37-.2-.56l-.17-.47c-.19-.51-.36-1.06-.55-1.63l-.19-.58c-.55-1.81-1-3.58-1.34-5.26s-.6-3.51-.79-5.34l-.05-.65c-.05-.6-.1-1.17-.12-1.74l0-.47q0-.31,0-.6l0-1c0-.78,0-1.47,0-2,0-2.3,0-4-1.89-4.19l-.14,0h-.13C27,82,26.32,83.44,26,88.17l-.06,1.06c0,.28,0,.56,0,.86v.34c0,.77,0,1.55.05,2.37v.32A43.82,43.82,0,0,0,28.35,105l.09.24c.29.78.56,1.52.87,2.21l.14.33c.12.27.23.53.36.8l.47,1c2.4,4.75,3.32,4.75,4.13,4.75H35l.46-.25c1.66-.94,1-2.48.15-4.61C35.33,108.9,35.07,108.26,34.79,107.55Z"/><path class="cls-2" d="M114.87,26l.39.54c.07.09.4.58.4.58.19.27.38.56.57.86l.24.37c.64,1,1.22,2,1.72,3s1,2,1.41,3.12l.17.45c.13.33.26.66.37,1l.23.64.52,1.6c.55,1.76,1,3,2.54,3h.16l1-.17.48-.71c.28-.39.68-1,.13-3.91a1.6,1.6,0,0,0,.39,0h.25l.23,0c2.18-.53,1.59-3.14,1.4-4a14.12,14.12,0,0,0-.59-1.93,16.82,16.82,0,0,0-2.3-4.18,14,14,0,0,0-1.29-1.52c-1.35-1.35-2.09-1.54-2.68-1.54l-.87,0-.56.55-.2-.25-.47-.53c-2.29-2.51-3.07-2.51-3.58-2.51h-.85l-.58.57c-1.33,1.3-.33,2.66.74,4.09Z"/><path class="cls-2" d="M26.22,97.88c-.15-1.33-.18-2.55-.21-3.52-.05-1.76-.09-3.43-1.92-3.71l-.15,0H23.8c-2,0-2.34,2.3-2.49,3.27A13.55,13.55,0,0,0,21.12,96a20.23,20.23,0,0,0,.09,2.46,21.11,21.11,0,0,0,.42,2.44,16.35,16.35,0,0,0,.61,2c.52,1.31,1.19,2.72,2.7,2.72h.38l.35-.13c1.7-.65,1.4-2.28,1.08-4C26.58,100.42,26.36,99.23,26.22,97.88Z"/><path class="cls-2" d="M135.3,91.26c0-.4.06-.81.09-1.23l.06-1.23s0-.69,0-.85V85.44a62.91,62.91,0,0,0-.88-9.06,61.68,61.68,0,0,0-2.29-8.85l-.85-2.33-.15-.36-.64-1.52c-.17-.39-.33-.78-.52-1.16l-.69-1.41c-.38-.81-.78-1.5-1.14-2.12l-.43-.74c-.15-.26-.29-.51-.47-.79l-.54-.8c-.9-1.3-1.55-2.24-2.77-2.24h-.58l-.48.29c-1.66,1-.83,2.8-.15,4.25l.4.82.78,1.74c.23.5.48,1,.73,1.68l.6,1.45c.12.29.23.59.34.9l.68,1.81.73,2.24a71.51,71.51,0,0,1,2,8.1,74.5,74.5,0,0,1,.92,8.26l.07,2.37s0,1.75,0,2,0,.63,0,.94L130,92.51c0,.64-.06,1.23-.11,1.78,0,.29-.05.57-.06.81,0,0-.06.92-.08,1.07l-.09,1c-.14,1.58-.32,3.53,1.61,3.93l.19,0h.19c1.71,0,2.11-1.54,2.54-3.2l.24-1c.06-.27.11-.55.16-.85l.15-.82c.12-.7.26-1.5.34-2.37Z"/><path class="cls-2" d="M140.51,86.85a16.51,16.51,0,0,0-.32-2c-.23-1-.71-3.11-2.57-3.11h-.23l-.22,0c-1.77.39-1.71,2.06-1.65,3.81,0,1,.08,2.19,0,3.55s-.2,2.55-.31,3.52c-.21,1.75-.41,3.4,1.35,3.94l.29.09h.3c1.73,0,2.33-1.88,2.65-2.88a17.67,17.67,0,0,0,.49-2,20.15,20.15,0,0,0,.26-2.45A20.64,20.64,0,0,0,140.51,86.85Z"/><path class="cls-3" d="M108.88,108l-2.52,4a2.7,2.7,0,0,0,.91,4l16.78,7.87a2.92,2.92,0,0,0,3.06-4.81L112.86,107.1A2.72,2.72,0,0,0,108.88,108Z"/><path class="cls-4" d="M118.47,111.77l-5.61-4.67a2.72,2.72,0,0,0-4,.85l-2.52,4a2.7,2.7,0,0,0,.91,4l9.56,4.48A46,46,0,0,0,118.47,111.77Z"/><g class="cls-5"><path class="cls-3" d="M125.5,119.26a.32.32,0,0,1-.28,0l-6.5-4.63a.32.32,0,0,1-.08-.43.31.31,0,0,1,.43-.07l6.51,4.63a.31.31,0,0,1,.07.43A.33.33,0,0,1,125.5,119.26Z"/></g><path class="cls-3" d="M66.56,121.11,70.9,123a2.71,2.71,0,0,1,1.49,3.78l-9.36,16a2.91,2.91,0,0,1-5.24-2.23l5-17.84A2.71,2.71,0,0,1,66.56,121.11Z"/><path class="cls-4" d="M60.83,129.68l2-7a2.71,2.71,0,0,1,3.76-1.55L70.9,123a2.71,2.71,0,0,1,1.49,3.78l-5.33,9.11A45.32,45.32,0,0,1,60.83,129.68Z"/><g class="cls-5"><path class="cls-3" d="M59.28,139.85a.34.34,0,0,0,.21-.2l2.74-7.5a.31.31,0,0,0-.19-.39.3.3,0,0,0-.39.18l-2.74,7.5a.32.32,0,0,0,.19.4A.37.37,0,0,0,59.28,139.85Z"/></g><path class="cls-3" d="M104.84,27.68l2-5.5a2.53,2.53,0,0,0-1.36-3.31h0a2.53,2.53,0,0,0-3.31,1.36l-2,5.5Z"/><path class="cls-6" d="M105.49,18.87a2.16,2.16,0,0,0-.55-.16,2.5,2.5,0,0,1,.7,3l-1.24,3,1.21.5,1.24-2.95A2.53,2.53,0,0,0,105.49,18.87Z"/><path class="cls-2" d="M103.41,19.75c0,.24.39.38.77.3s.65-.34.6-.58-.39-.37-.77-.29S103.36,19.51,103.41,19.75Z"/><path class="cls-7" d="M74.21,33.53l33.65,13.84,9,3.68a23.05,23.05,0,0,0-10.44-27.73c-.38-.22-.77-.42-1.17-.62s-.82-.39-1.24-.56l-.32-.13-.27-.11-.26-.1-.29-.1-.46-.16-.32-.11-.32-.1A23.08,23.08,0,0,0,74.21,33.53Z"/><g class="cls-8"><path class="cls-7" d="M73.77,34.52l0,.15A.88.88,0,0,1,73.77,34.52Z"/><path class="cls-7" d="M101.4,21.24l.29.18a14.76,14.76,0,0,1,3,2.52c.33.36.65.74,1,1.14,4.21,5.51,5.25,14,2.22,22.29l9,3.68a23.05,23.05,0,0,0-10.44-27.73c-.38-.22-.77-.42-1.17-.62s-.82-.39-1.24-.56l-.32-.13-.27-.11-.26-.1-.29-.1-.46-.16-.32-.11-.32-.1Z"/></g><g class="cls-9"><path class="cls-7" d="M100.17,24a1.31,1.31,0,1,0,1-1.28A1.19,1.19,0,0,0,100.17,24Z"/></g><g class="cls-9"><path class="cls-7" d="M78.54,31.57a.92.92,0,0,0,.55-.34c6.51-8.53,18.39-7.5,18.51-7.49a.93.93,0,0,0,1-.83.91.91,0,0,0-.82-1c-.53-.06-13-1.16-20.15,8.2a.92.92,0,0,0,.17,1.29A.91.91,0,0,0,78.54,31.57Z"/></g><ellipse class="cls-10" cx="95.5" cy="42.28" rx="1.61" ry="22.97" transform="translate(20.16 114.62) rotate(-67.72)"/><path class="cls-3" d="M96.11,40.79l-2-.81-.9,1.92-.46,1L84.24,61.1l4.36,2,8.61-18.42.37-.8,1-2.11Z"/><path class="cls-4" d="M94.12,40l-.47,1a44.91,44.91,0,0,1,3.9,3l0-.06,1-2.11-2.46-1Z"/><path class="cls-3" d="M24.62,52.29,19.85,48.9a2.51,2.51,0,0,1-.76-3.49h0a2.51,2.51,0,0,1,3.49-.76L27.36,48Z"/><path class="cls-6" d="M19.09,45.41a2.34,2.34,0,0,1,.37-.45,2.48,2.48,0,0,0,1.1,2.83l2.69,1.74-.71,1.11L19.85,48.9A2.51,2.51,0,0,1,19.09,45.41Z"/><path class="cls-2" d="M21.31,45c.09.23-.12.53-.47.69s-.73.09-.82-.14.11-.53.47-.68S21.21,44.73,21.31,45Z"/><path class="cls-7" d="M53.17,39.75,33.3,70.22,28,78.34a23.08,23.08,0,0,1-7.13-28.77c.2-.39.4-.78.62-1.17s.46-.79.71-1.17a2.9,2.9,0,0,1,.19-.29l.16-.24.15-.23.18-.25.29-.39.21-.27c.07-.09.13-.18.2-.26A23.08,23.08,0,0,1,53.17,39.75Z"/><g class="cls-8"><path class="cls-7" d="M54.09,40.32l.13.09Z"/><path class="cls-7" d="M23.81,45c0,.11-.1.21-.14.32a15,15,0,0,0-1,3.78,14.08,14.08,0,0,0-.14,1.47c-.34,6.93,3.63,14.55,10.81,19.62L28,78.34a23.08,23.08,0,0,1-7.13-28.77c.2-.39.4-.78.62-1.17s.46-.79.71-1.17a2.9,2.9,0,0,1,.19-.29l.16-.24.15-.23.18-.25.29-.39.21-.27.2-.26Z"/></g><g class="cls-9"><path class="cls-7" d="M26.4,46.64a1.31,1.31,0,1,1-1.59-.46A1.18,1.18,0,0,1,26.4,46.64Z"/></g><g class="cls-9"><path class="cls-7" d="M48.49,40.59a.88.88,0,0,1-.64,0c-10.2-3.34-19.41,4.24-19.5,4.32a.91.91,0,0,1-1.29-.11.92.92,0,0,1,.11-1.3c.4-.34,10.06-8.32,21.25-4.66a.92.92,0,0,1,.07,1.72Z"/></g><ellipse class="cls-10" cx="40.6" cy="59.03" rx="22.97" ry="1.61" transform="translate(-31.03 60.7) rotate(-56.81)"/><path class="cls-3" d="M39.25,58.15c.39-.61.79-1.21,1.18-1.8l1.82,1.07,1,.56L60.53,68.15,58.1,72.29,40.57,62l-.76-.44-2-1.18C38.27,59.64,38.75,58.9,39.25,58.15Z"/><path class="cls-4" d="M40.43,56.35l1,.56a45.65,45.65,0,0,0-1.52,4.68l0,0-2-1.18c.47-.74,1-1.48,1.45-2.23S40,56.94,40.43,56.35Z"/><rect class="cls-3" x="64.16" y="34.54" width="3" height="15" rx="1.5" transform="translate(-9.52 21.38) rotate(-17.27)"/><path class="cls-4" d="M62.93,38.33l3.41.86-1-3.33a1.5,1.5,0,0,0-2.87.89Z"/><path class="cls-3" d="M69.21,32.11h0a2.4,2.4,0,0,0-3-1.58l-7.52,2.33a2.4,2.4,0,1,0,1.43,4.59l7.51-2.34A2.4,2.4,0,0,0,69.21,32.11Z"/><path class="cls-2" d="M66.19,31.54l-7.32,2.27a.2.2,0,0,1-.26-.13.22.22,0,0,1,.14-.26l7.32-2.27a.2.2,0,0,1,.26.13A.22.22,0,0,1,66.19,31.54Z"/><path class="cls-11" d="M123.17,74.08A45.68,45.68,0,1,1,66,44,45.68,45.68,0,0,1,123.17,74.08Z"/><path class="cls-11" d="M123.17,74.08A45.68,45.68,0,1,1,66,44,45.68,45.68,0,0,1,123.17,74.08Z"/><path class="cls-12" d="M35.93,101.24A45.69,45.69,0,0,0,123.16,74Z"/><circle class="cls-2" cx="79.54" cy="87.64" r="39.03"/><circle class="cls-3" cx="79.54" cy="87.64" r="3.72" transform="translate(-36.61 110.35) rotate(-58.84)"/><path class="cls-3" d="M80.08,89.38a1.83,1.83,0,0,1-2.28-1.2l-7-22.44a1.82,1.82,0,1,1,3.47-1.08l7,22.44A1.82,1.82,0,0,1,80.08,89.38Z"/><path class="cls-3" d="M70.48,99.61a1.82,1.82,0,0,1-1.87-3l9.6-10.24a1.82,1.82,0,0,1,2.66,2.49L71.26,99.12A1.84,1.84,0,0,1,70.48,99.61Z"/><circle class="cls-13" cx="79.54" cy="87.64" r="1.98"/><path class="cls-13" d="M103.4,102.61a.42.42,0,0,1-.33,0L79.34,88a.38.38,0,0,1-.13-.54.39.39,0,0,1,.54-.13l23.74,14.6a.4.4,0,0,1,.13.54A.44.44,0,0,1,103.4,102.61Z"/><path class="cls-3" d="M45.52,97.16a1,1,0,0,0-.65,1.26,1,1,0,0,0,1.25.65,1,1,0,0,0,.66-1.25A1,1,0,0,0,45.52,97.16Z"/><path class="cls-3" d="M89.07,121.66a1,1,0,0,0,1.91-.6,1,1,0,1,0-1.91.6Z"/><path class="cls-3" d="M113.56,78.11a1,1,0,1,0-1.25-.66A1,1,0,0,0,113.56,78.11Z"/><circle class="cls-3" cx="69.45" cy="55.16" r="2.48" transform="translate(-17.51 37.71) rotate(-27.11)"/><path class="cls-3" d="M55.21,63.85a1,1,0,1,0,.06,1.36A1,1,0,0,0,55.21,63.85Z"/><path class="cls-3" d="M46.58,79.2a1,1,0,1,0,.73,1.15A1,1,0,0,0,46.58,79.2Z"/><path class="cls-3" d="M55.76,112a1,1,0,1,0,1.36-.06A1,1,0,0,0,55.76,112Z"/><path class="cls-3" d="M71.11,120.6a1,1,0,1,0,1.15-.73A1,1,0,0,0,71.11,120.6Z"/><path class="cls-3" d="M103.87,111.42a1,1,0,1,0-.05-1.36A1,1,0,0,0,103.87,111.42Z"/><path class="cls-3" d="M112.5,96.07a1,1,0,1,0-.72-1.15A1,1,0,0,0,112.5,96.07Z"/><path class="cls-3" d="M103.33,63.31a1,1,0,1,0-1.36,0A1,1,0,0,0,103.33,63.31Z"/><path class="cls-3" d="M88,54.68a1,1,0,0,0-.73-1.16,1,1,0,0,0-1.15.73,1,1,0,0,0,.73,1.15A1,1,0,0,0,88,54.68Z"/><path class="cls-3" d="M46.33,95.37A2.48,2.48,0,1,0,49.43,97,2.47,2.47,0,0,0,46.33,95.37Z"/><circle class="cls-3" cx="89.64" cy="120.12" r="2.48"/><circle class="cls-3" cx="112.02" cy="77.54" r="2.48" transform="translate(21.44 179.31) rotate(-83.02)"/><g class="cls-5"><path class="cls-14" d="M101,49A46.61,46.61,0,0,0,84,44a44.92,44.92,0,0,0-8.83.07,43.91,43.91,0,0,0-8.64,1.78,45.11,45.11,0,0,0-15.44,8.38A46.49,46.49,0,0,0,40,67.91,42.78,42.78,0,0,1,58,48.53,43.55,43.55,0,0,1,75.1,43.22,42.84,42.84,0,0,1,101,49Z"/></g><path class="cls-15" d="M75.39,25.54a8.63,8.63,0,0,1,2.16-2c.18-.14.37-.29.57-.43l.64-.45c.44-.31.93-.6,1.45-.92A31.86,31.86,0,0,1,83.72,20a32.47,32.47,0,0,1,3.72-1.29c.58-.15,1.14-.3,1.67-.4l.76-.15.71-.11a8.31,8.31,0,0,1,3-.15,16.06,16.06,0,0,1-2.85.69l-.69.16-.73.19c-.52.12-1.05.29-1.62.46-1.13.35-2.36.79-3.61,1.32s-2.42,1.11-3.47,1.68c-.51.29-1,.56-1.45.84l-.65.39-.59.38A16.4,16.4,0,0,1,75.39,25.54Z"/><path class="cls-15" d="M89.63,16.09c.05.22-1.8.78-4,1.55s-4.07,1.44-4.16,1.24,1.61-1.2,3.91-2S89.59,15.89,89.63,16.09Z"/><path class="cls-15" d="M42.53,34.64a11.65,11.65,0,0,1-2.5.25l-.6.06c-.21,0-.43,0-.65.07-.45,0-.93.12-1.43.19-1,.17-2.09.39-3.23.69s-2.18.66-3.13,1c-.47.19-.93.36-1.34.55l-.6.26L28.5,38a10.57,10.57,0,0,1-2.3,1,6.71,6.71,0,0,1,2.05-1.51l.54-.3c.18-.11.38-.2.59-.31.41-.21.86-.41,1.34-.62a24,24,0,0,1,6.53-1.74c.52-.06,1-.11,1.47-.13l.67,0H40A6.43,6.43,0,0,1,42.53,34.64Z"/><path class="cls-15" d="M28.75,84c.2,0,.12,1.67.17,4.29,0,.33,0,.68,0,1s0,.73.06,1.11c0,.77.11,1.59.18,2.46.17,1.72.43,3.61.82,5.57s.89,3.79,1.39,5.45c.27.82.51,1.61.78,2.33.13.37.25.72.38,1s.26.66.37,1c1,2.44,1.68,3.93,1.5,4s-1.14-1.25-2.35-3.65c-.15-.3-.3-.62-.47-1s-.3-.68-.45-1c-.33-.72-.61-1.51-.92-2.35a46,46,0,0,1-1.54-5.57A45.31,45.31,0,0,1,28,93c0-.89-.08-1.73-.06-2.52,0-.4,0-.78,0-1.15s0-.71.06-1C28.17,85.6,28.58,84,28.75,84Z"/><path class="cls-15" d="M34.58,33.53a12.58,12.58,0,0,1-3,1.21,13.25,13.25,0,0,1-3.14.91,8.91,8.91,0,0,1,3-1.4A8.73,8.73,0,0,1,34.58,33.53Z"/><path class="cls-15" d="M19.34,72.54c-.06,0-.26-.13-.58-.48a12,12,0,0,1-1.19-1.61l-.36-.56-.35-.63-.18-.34-.17-.35-.35-.74A20.45,20.45,0,0,1,15,64.36a17,17,0,0,1-.37-6.61c.26-1.69.72-2.65.84-2.61s0,1-.11,2.68a22.63,22.63,0,0,0,.64,6.3,28.6,28.6,0,0,0,1.05,3.34c.09.25.2.5.29.73l.15.35.15.34c.09.22.19.43.28.63l.28.58c.37.74.68,1.33.89,1.74S19.4,72.5,19.34,72.54Z"/><path class="cls-15" d="M12.51,63.75c-.13,0-.37-.18-.6-.65a5.56,5.56,0,0,1-.23-4c.18-.5.39-.76.53-.72s.16,1.26.25,2.66S12.78,63.64,12.51,63.75Z"/><path class="cls-15" d="M123.44,39.18c-.16,0-.44-1-1-2.62l-.21-.63c-.07-.22-.16-.45-.24-.68-.16-.47-.36-1-.56-1.49-.42-1-.92-2.16-1.5-3.31s-1.21-2.21-1.8-3.16c-.31-.47-.59-.92-.88-1.33-.14-.2-.27-.41-.41-.59l-.39-.54c-1-1.38-1.67-2.21-1.56-2.31s.95.56,2.13,1.84l.45.52c.16.18.31.37.47.57.33.4.64.84,1,1.31A28.25,28.25,0,0,1,120.89,30a26.59,26.59,0,0,1,1.47,3.45c.19.54.36,1.06.49,1.56.06.25.13.48.19.72l.15.66A6.67,6.67,0,0,1,123.44,39.18Z"/><path class="cls-15" d="M125.63,34.43c-.29.07-1-2.17-2.38-4.67s-2.88-4.3-2.66-4.51.62.23,1.31.93A13.61,13.61,0,0,1,123,27.49a16.12,16.12,0,0,1,1.14,1.78,15.17,15.17,0,0,1,.88,1.91,13,13,0,0,1,.51,1.65C125.76,33.79,125.77,34.4,125.63,34.43Z"/><path class="cls-15" d="M25,103.53c-.13,0-.48-.48-.85-1.44a14.78,14.78,0,0,1-.54-1.72,17.77,17.77,0,0,1-.37-2.17,18.73,18.73,0,0,1-.09-2.2,14.35,14.35,0,0,1,.17-1.79c.16-1,.39-1.6.53-1.58.3,0,.1,2.49.42,5.47S25.24,103.43,25,103.53Z"/><path class="cls-15" d="M131.69,99.08c-.11,0-.1-.65,0-1.78q0-.42.09-.93c0-.34.05-.71.08-1.11.06-.8.16-1.7.18-2.7,0-.5.05-1,.07-1.57s0-1.12,0-1.7c0-.3,0-.6,0-.9s0-.3,0-.46v-.46c0-.63,0-1.27-.06-1.93a75.27,75.27,0,0,0-.95-8.54,73.89,73.89,0,0,0-2-8.34c-.2-.62-.4-1.24-.6-1.83l-.14-.44c0-.15-.11-.29-.16-.43l-.31-.84c-.21-.55-.39-1.09-.6-1.6s-.41-1-.61-1.45c-.36-.93-.77-1.75-1.09-2.48l-.45-1-.41-.85c-.47-1-.7-1.61-.61-1.67s.49.43,1.14,1.37l.53.79c.19.29.37.62.58,1,.39.71.88,1.5,1.31,2.42l.71,1.44c.24.5.46,1,.7,1.59l.35.84c.06.15.13.29.18.44l.17.44c.22.61.44,1.22.68,1.86a60.24,60.24,0,0,1,2.19,8.51,61.31,61.31,0,0,1,.85,8.76c0,.68,0,1.33,0,2v.48c0,.16,0,.32,0,.47,0,.31,0,.62-.05.92,0,.6,0,1.18-.11,1.73s-.12,1.09-.17,1.59c-.1,1-.28,1.93-.41,2.72-.08.4-.14.77-.21,1.11s-.16.65-.23.92C132,98.51,131.79,99.1,131.69,99.08Z"/><path class="cls-15" d="M137.16,94.68c-.29-.09.26-2.49.38-5.47s-.22-5.42.07-5.49c.13,0,.4.55.63,1.55a13.93,13.93,0,0,1,.28,1.78,17.45,17.45,0,0,1,0,2.2,17.75,17.75,0,0,1-.23,2.19,15,15,0,0,1-.43,1.75C137.6,94.16,137.29,94.72,137.16,94.68Z"/></g></g></svg>