<svg id="धनिया" xmlns="http://www.w3.org/2000/svg" viewBox="0 0 150 160"><defs><style>.cls-1{fill:#fff;stroke:#fff;stroke-miterlimit:10;stroke-width:5px;}.cls-2{fill:#88b640;}.cls-3{fill:#638b2c;}</style></defs><path class="cls-1" d="M131.57,101.25c-.33-2.28-5.2-2.34-4.87-3.63s4.77-.41,4.77-1.42-3.12-2.72-5.87-2.41-7.41,1.35-8.45,0,4-1.87,2.54-2.91-6.14-.58-8.83.84-7.64,2.06-8.3.61,9.4-3.63,8.31-6.17c-.39-.91-3.08,0-3.36-1.34S111,80.39,110,79.27s-4.06,3.53-4.52,2.94,1.12-6.34-.58-6.39-3.35,10.23-5.23,9.75.78-4.8-.76-4.7-1.83,4.36-3.61,6.24-3.22,3.18-4.72,2.64.15-5.24-1.53-4.73-2.76,4.38-5.78,7.6S80.73,100,76.9,102c0,0-1.06-9.82-.15-13.68s2.33-9.85,6-11.67,8.73-2.67,8.93-4.24-2.1-1.32-2.1-1.32S92.28,68.61,93,67s7.59-1.83,8.19-3.2-4.46-2-3.75-4,3.07-2.44,5.43-2.44,3.32-2,3-2.61-3.8,1.35-4.54,0a3.05,3.05,0,0,1,.46-3.49c.86-.66,5.23-2.54,4.24-4.62s-5,.78-5.23-.61,3.22-4.37,1.44-5.28-3.7,3.86-5.45,3.88S95.58,41,94.16,41.3s-1.52,5.44-3.3,5.36-.63-4.85-2.31-4.34-.46,8.48-2,10.68-3.23,4-4.19,2,0-7.87,1.17-10,4.11-7.26,5.66-8.68,2.23-2.89,1.34-3.6-2.66,2-3.12,1.11,1.18-8.14-1.85-8.22c-3.73-.1-1.66,5-3,6.9-1.85,2.71-3.5,2.08-4.21-1.09s-2.06-5.94-.56-7.89,2.51-3.81,1.4-4.49-2.46,3-3.78,2.23-.13-5.41-1.76-5.43-.76,2.62-1.67,2.66C71,18.57,70.17,15,68.7,15.44c-1.66.51,2,5.77,1.3,6.33-1.24.95-3.85-3.52-5.31-1.63s6.37,8.29,6.37,12.26c0,3.61-2.89,1.85-4.26.55S64.48,27,63.4,27.09c-.85.06.25,3.57-1.06,4.11-1.1.45-3.43-2.32-4.16-1.65s2.76,3.66,2.76,4.65-3.61.43-3.28,2.46,3.66-.1,6.3,3.65,5.4,6.17,5.5,10.64c.1,4.11,1,7.33-2.32,8.11-.06-.14-.1-.28-.16-.41s-.08-.08-.12,0a.16.16,0,0,0,0,.15l.1.37c-.23,0-.47.08-.73.1-4.39.38-5.81-5-5.76-7.92s1.85-5.66.61-6.57-1.47,1.4-2.61,1-1-4.84-3.23-4c-1.53.56-.85,3.31-.14,5.46s1.31,4,.4,4.36-4-7.13-6.05-6.7c-1.34.27-.52,2.19-1.29,2.34s-3.07-1.91-3.6-1,1.06,2.59.76,3.07-3.36-.74-3.36.53,6.11,2.06,5.54,3.93c-.73,2.4-4.9-1-5.43.21s2.89,2.36,2.74,3.07-3.58.68-2.59,2.41,3-.33,4.62,1.32c.48.48-.24,1.78.83,2.18,1.34.5,1.81-1.29,3.24-1.73s5.56,2.19,5.56,3.35-3.45-.63-3.33,1,6,2.32,8,4.72a132.13,132.13,0,0,0,9.56,9.48c4,3.73,2.24,6.62,3.08,12.36s-.13,14.26-.13,14.26a119.56,119.56,0,0,0-8-10.79c-2.66-2.9-9.11-8.6-9.77-8.24s.31,1.47-.23,2.31-1.57.78-3.78-1.07-5.89-6.47-6.95-6,.33,1.72-.76,2.43-1.93-.28-5.18-2.31-9.34-2-10.51.21,5.56,3.75,5.51,5.48-5.31,1.22-5.15,2.36,3.8,1.39,6.39,2,8.3,2.34,7.82,4.44-10.94-1.9-11.6-.73,2,1.24,1.68,2.44-4.67.07-5.23,1.62,3.81.71,2.64,3.71-12.72,1.11-12,4,7.36,3.25,7.21,4.85-3,2.53,1.17,4.21,10.92.68,12.9,2-4.77,5.48-3.94,6.24,2.57.17,3.33,0,1.15,1.26,2.06,1.56,1.49.14,2.82-.82,2.36,0,4.91-.3,2.66-5.63,4.07-5.86.08,3.27,1.11,3.77,1.48-.39,3.8-3.74,5.94-4.45,9.52-4.72,4.3-4.26,5.71-3.31.27,4.72.19,9.82-.85,16.3-.9,18.53.15,4.09,2.11,4.09c2.28,0,2.08-2.34,2-4s-.45-17.06-.25-21.12-.36-5.38,1.17-7.15,4,4.61,8.22,6,5.76-1.58,5.76-1.58a59.76,59.76,0,0,1,5.15,7.9c1.82,3.37,4.25,2.68,5,2.19-.65-1.18-1-2.29-.19-2.82s3.08,2.74,4.28,4.29,2.62,2.1,3.7,1.85c.6-.14-.35-2,.87-2.31.71-.18,3.51,3.38,4.51,2.17,1.41-1.7-4.82-5.19-3.27-7.57,1.16-1.8,3.52-.66,3.08-2.25-.39-1.41-2.9-.76-4.48-1.55a26.76,26.76,0,0,1-2.46-1.36s1.55-1.32,1-2.08-3.86,1.32-5.31.38-5.44-3.24-4.74-5.71c.38-1.35,5.28-.66,8.09,0a30.49,30.49,0,0,1,10,4.57c3.07,2.24,5.71,1.22,5.81.08.07-.78-4.09-4.29-2.82-5.41s5.38,2.36,6.32.43c.75-1.54-2.85-2.88-3.69-4.11l.49.23c.06,0,.11,0,.11,0a.13.13,0,0,0-.08-.13l-.68-.41a.65.65,0,0,1,.15-.53C123.5,103.1,131.9,103.53,131.57,101.25Z"/><path class="cls-2" d="M47.63,62.9c-1.07-.4-.35-1.7-.83-2.18-1.65-1.65-3.63.41-4.62-1.32s2.44-1.7,2.59-2.41S41.5,55.14,42,53.92s4.7,2.19,5.43-.21c.57-1.87-5.55-2.56-5.54-3.93s3-.05,3.36-.53S44,47,44.52,46.18s3,1.16,3.6,1,0-2.07,1.29-2.34c2.06-.43,5.13,7.11,6.05,6.7s.25-2.35-.4-4.36-1.39-4.9.14-5.46c2.27-.83,2.08,3.66,3.23,4s1.37-2,2.61-1-.56,3.68-.61,6.57,1.37,8.3,5.76,7.92,3.38-3.81,3.27-8.27S66.6,44.07,64,40.31s-6-1.62-6.3-3.65,3.28-1.47,3.28-2.46-3.6-3.88-2.76-4.65,3.06,2.1,4.16,1.65c1.31-.54.21-4.05,1.06-4.11,1.08-.07,2,4.57,3.4,5.86s4.26,3.06,4.26-.55c0-4-7.8-10.4-6.37-12.26s4.07,2.58,5.31,1.63c.73-.56-3-5.82-1.3-6.33,1.47-.45,2.25,3.13,3.38,3.07.91,0,0-2.69,1.67-2.66s.44,4.69,1.76,5.43,2.66-2.92,3.78-2.23.1,2.53-1.4,4.49-.15,4.72.56,7.89,2.36,3.8,4.21,1.09c1.29-1.88-.78-7,3-6.9,3,.08,1.39,7.36,1.85,8.22s2.23-1.82,3.12-1.11.2,2.18-1.34,3.6-4.5,6.55-5.66,8.68-2.14,8-1.17,10,2.69.2,4.19-2,.28-10.17,2-10.68.53,4.26,2.31,4.34,1.88-5.08,3.3-5.36.84,3.33,2.59,3.3,3.68-4.79,5.45-3.88-1.64,3.88-1.44,5.28,4.24-1.47,5.23.61-3.38,4-4.24,4.62a3.05,3.05,0,0,0-.46,3.49c.74,1.31,4.21-.65,4.54,0s-.63,2.61-3,2.61-4.72.38-5.43,2.44,4.36,2.66,3.75,4S93.65,65.31,93,67s-3.4,4.09-3.4,4.09,2.31-.26,2.1,1.32-5.28,2.41-8.93,4.24-5.08,7.81-6,11.67S76.9,102,76.9,102c3.83-1.95,3.35-6.12,6.37-9.34s4.11-7.09,5.78-7.6,0,4.2,1.53,4.73,3-.76,4.72-2.64,2.06-6.14,3.61-6.24-1.12,4.21.76,4.7,3.52-9.8,5.23-9.75.12,5.81.58,6.39S109,78.15,110,79.27s-2.77,4.14-2.49,5.51,3,.43,3.36,1.34c1.09,2.54-9,4.72-8.31,6.17s5.61.81,8.3-.61,7.36-1.88,8.83-.84-3.58,1.53-2.54,2.91,5.71.34,8.45,0,5.87,1.39,5.87,2.41-4.44.13-4.77,1.42,4.54,1.35,4.87,3.63-8.07,1.85-9.26,3.32,4.64,3.07,3.7,5-5.05-1.54-6.32-.43,2.89,4.63,2.82,5.41c-.1,1.14-2.74,2.16-5.81-.08a30.49,30.49,0,0,0-10-4.57c-2.81-.66-7.71-1.35-8.09,0-.7,2.47,3.3,4.77,4.74,5.71s4.72-1.14,5.31-.38-1,2.08-1,2.08a26.76,26.76,0,0,0,2.46,1.36c1.58.79,4.09.14,4.48,1.55.44,1.59-1.92.45-3.08,2.25-1.55,2.38,4.68,5.87,3.27,7.57-1,1.21-3.8-2.35-4.51-2.17-1.22.31-.27,2.17-.87,2.31-1.08.25-2.51-.3-3.7-1.85s-3.44-4.82-4.28-4.29-.46,1.64.19,2.82c-.8.49-3.23,1.18-5-2.19a59.76,59.76,0,0,0-5.15-7.9s-1.5,3-5.76,1.58-6.7-7.76-8.22-6-1,3.09-1.17,7.15.23,19.49.25,21.12.23,4-2,4c-2,0-2.16-1.86-2.11-4.09s.82-13.42.9-18.53,1.22-8.87-.19-9.82-2.13,3-5.71,3.31-7.2,1.37-9.52,4.72-2.78,4.23-3.8,3.74.3-4-1.11-3.77-1.52,5.55-4.07,5.86-3.58-.65-4.91.3-1.91,1.13-2.82.82-1.29-1.77-2.06-1.56-2.49.8-3.33,0,5.92-4.89,3.94-6.24-8.69-.37-12.9-2-1.32-2.61-1.17-4.21-6.5-2-7.21-4.85,10.84-1,12-4-3.2-2.16-2.64-3.71,4.9-.43,5.23-1.62-2.34-1.27-1.68-2.44,11.12,2.84,11.6.73-5.23-3.78-7.82-4.44-6.24-.91-6.39-2,5.1-.64,5.15-2.36-6.68-3.3-5.51-5.48,7.26-2.24,10.51-.21,4.09,3,5.18,2.31-.31-1.93.76-2.43,4.74,4.11,6.95,6,3.25,1.9,3.78,1.07-.43-2,.23-2.31,7.11,5.34,9.77,8.24a119.56,119.56,0,0,1,8,10.79s1-8.53.13-14.26.91-8.63-3.08-12.36a132.13,132.13,0,0,1-9.56-9.48c-2-2.4-7.88-3.09-8-4.72s3.33.15,3.33-1-4.13-3.79-5.56-3.35S49,63.4,47.63,62.9Z"/><path class="cls-3" d="M74.88,123.21c-.12-1.92-.12-3.84-.12-5.75,0-1,0-1.9-.06-2.86s0-1.93,0-2.89l.09-5.73c0-1.91.1-3.82.12-5.73s0-3.82-.1-5.72-.18-3.85-.13-5.78.17-3.83.2-5.74c0-1,0-1.9,0-2.86s0-1.9-.08-2.85a88.9,88.9,0,0,1-.17-11.55,78.57,78.57,0,0,0,.15-11.38L74.71,53c0-.5,0-1-.07-1.47,0-1,0-1.92,0-2.88,0-1.92.07-3.84.12-5.76S74.87,39,75,37.1l.22-5.74a.16.16,0,0,1,.32,0c.06,1.92.07,3.83.1,5.75l.06,5.74c0,1.92,0,3.83.09,5.74,0,.95.06,1.91.1,2.85,0,.48,0,1,.09,1.41l.12,1.44a81.23,81.23,0,0,1,.09,11.57c-.26,3.76-.24,7.57-.25,11.41,0,1.92,0,3.85-.11,5.77q-.06,1.44-.15,2.88c-.07,1-.12,1.9-.14,2.85,0,1.91,0,3.8.12,5.71s.2,3.84.27,5.76q0,1.44.06,2.88c0,1,0,1.92,0,2.88s0,1.91,0,2.87l-.11,2.87c0,1-.08,1.91-.11,2.86s0,1.92-.11,2.88c-.1,1.92-.26,3.82-.35,5.73a.17.17,0,0,1-.17.16A.19.19,0,0,1,74.88,123.21Z"/><path class="cls-3" d="M106.53,124c-.68-.32-1.36-.65-2-1-.34-.19-.66-.38-1-.6a4.44,4.44,0,0,1-.88-.79c-.53-.56-1-1.19-1.45-1.71a14.4,14.4,0,0,0-1.63-1.49c-.57-.46-1.17-.91-1.77-1.38S96.63,116,96,115.6a13.08,13.08,0,0,0-1.85-1.13,6.18,6.18,0,0,0-2-.5c-.71-.07-1.43,0-2.21-.06a18,18,0,0,1-2.31-.18c-.38-.06-.76-.13-1.15-.22s-.74-.18-1.11-.28c-.73-.2-1.46-.44-2.18-.68s-1.43-.52-2.11-.75-1.41-.42-2.12-.58a15.73,15.73,0,0,0-2.15-.33c-.36,0-.72-.07-1.08-.13a5.12,5.12,0,0,1-.54-.1h0s0,0,0,0c.32,0-.1-1.19,0-.67,0,0,0,0,0,0l.13,0,.07,0h0l-.06,0c-.07.82.15.28.07.44,0,0,0,0,0,0l-.13-.06a.18.18,0,0,1-.09-.24.2.2,0,0,1,.08-.08h0a.67.67,0,0,1,.15-.06h0c-.07.16.16-.38.09.45-.09,0-.08,0-.08,0h0l-.07,0-.15,0-.09,0c.07.51-.37-.72,0-.68h.06l0,0a3.75,3.75,0,0,1,.58-.13,4.58,4.58,0,0,1,1.17,0,16.18,16.18,0,0,1,2.3.36c.75.17,1.49.38,2.22.62s1.42.52,2.13.76,1.4.47,2.11.68l1.07.28c.35.09.71.16,1.06.22a15.77,15.77,0,0,0,2.18.2c.72,0,1.5,0,2.28.1a6.91,6.91,0,0,1,2.32.66,12.75,12.75,0,0,1,2,1.26c.61.46,1.19.95,1.76,1.43s1.17.94,1.75,1.43a13.13,13.13,0,0,1,1.63,1.62c.51.6.91,1.23,1.38,1.78a5,5,0,0,0,.77.75c.29.21.6.42.92.61.62.4,1.27.77,1.93,1.12a.17.17,0,0,1,.07.22A.16.16,0,0,1,106.53,124Z"/><path class="cls-3" d="M123.83,99.73c-.46.23-.87.52-1.33.8a5.25,5.25,0,0,1-.71.36c-.26.1-.51.18-.76.25a10.25,10.25,0,0,1-1.56.31,12,12,0,0,1-1.57.08q-3.12.06-6.24-.1c-2.13-.11-4.13-.78-6.14-.94a15.19,15.19,0,0,0-1.52,0h-1.56c-1,0-2.07,0-3.1,0a27.32,27.32,0,0,0-6.07.63,57.3,57.3,0,0,0-5.85,2c-1,.35-2,.68-3,1s-2.06.43-3.06.65q-.75.15-1.47.36c-.45.14-.93.33-1.42.51A12.09,12.09,0,0,1,77,106a4.25,4.25,0,0,1-1.63.11.18.18,0,0,1-.14-.19.18.18,0,0,1,.14-.14h0a11.76,11.76,0,0,0,2.81-1.07,12.35,12.35,0,0,1,1.48-.6c.52-.15,1-.27,1.54-.38,1-.22,2-.39,3-.63s2-.57,2.93-.91a59.13,59.13,0,0,1,5.95-1.94,27.65,27.65,0,0,1,6.26-.62c1,0,2.09,0,3.12,0l1.55,0c.51,0,1.06,0,1.59.07,2.12.21,4.09.91,6.11,1s4.13.23,6.19.24a11,11,0,0,0,1.53,0,11.21,11.21,0,0,0,1.5-.26,5.39,5.39,0,0,0,1.4-.53c.44-.24.88-.54,1.36-.76h0a.16.16,0,0,1,.21.08A.16.16,0,0,1,123.83,99.73Z"/><path class="cls-3" d="M101.94,88.76a2.09,2.09,0,0,1-.59.92,9,9,0,0,0-.68.71c-.2.25-.4.52-.63.79a4.21,4.21,0,0,1-.36.37l-.39.35c-.52.44-1.06.84-1.57,1.25-.24.21-.49.43-.7.65s-.41.49-.6.75c-.79,1.09-1.62,2.15-2.44,3.19a4.19,4.19,0,0,0-.5.77c-.06.13-.11.27-.16.41l-.14.47a5,5,0,0,1-.18.5,3.8,3.8,0,0,1-.26.49,2,2,0,0,1-.81.77.16.16,0,0,1-.21-.08.15.15,0,0,1,0-.17l0,0a2.85,2.85,0,0,0,.4-.8,2.45,2.45,0,0,0,.15-.43l.12-.45.12-.5c.06-.18.12-.35.2-.53a5.52,5.52,0,0,1,.6-.91c.83-1,1.67-2.08,2.48-3.14a8.36,8.36,0,0,1,.68-.79,8.25,8.25,0,0,1,.8-.68c.54-.42,1.1-.79,1.61-1.19l.37-.31.36-.33c.22-.22.43-.48.67-.73a9.6,9.6,0,0,1,.75-.7,1.79,1.79,0,0,0,.56-.71.15.15,0,0,1,.2-.1.15.15,0,0,1,.11.19Z"/><path class="cls-3" d="M56.33,93.12a1.57,1.57,0,0,0,.07.79,6.34,6.34,0,0,1,.19.68c0,.23.08.47.14.72a2,2,0,0,0,.1.35L57,96c.18.44.38.86.55,1.28a5.47,5.47,0,0,1,.23.64c.05.22.09.45.13.68.14,1,.31,1.93.49,2.87a3.2,3.2,0,0,1,.06.67,1.84,1.84,0,0,1,0,.33l-.06.37c0,.13,0,.26,0,.4a1.86,1.86,0,0,0,0,.41,1.48,1.48,0,0,0,.24.75.1.1,0,0,0,.16,0,.13.13,0,0,0,0-.12v0a2.5,2.5,0,0,1,0-.67c0-.12,0-.23,0-.34s.05-.23.07-.35l.08-.38c0-.15,0-.29,0-.43a4.8,4.8,0,0,0-.08-.79c-.18-1-.37-1.9-.53-2.86a5.11,5.11,0,0,0-.17-.73,6,6,0,0,0-.26-.68c-.2-.43-.42-.83-.6-1.25-.05-.1-.09-.21-.13-.31s-.08-.21-.11-.32-.11-.45-.18-.69a5.39,5.39,0,0,0-.24-.68,1.47,1.47,0,0,1-.11-.64.1.1,0,0,0-.09-.13c-.05,0-.11,0-.12.11Z"/><path class="cls-3" d="M75.1,112a2,2,0,0,0-.91-.73,9.3,9.3,0,0,0-1.17-.49c-.82-.3-1.63-.59-2.45-.85s-1.65-.48-2.48-.68-1.69-.34-2.54-.51-1.7-.35-2.55-.56l-.65-.16-.33-.11a2.52,2.52,0,0,1-.33-.14,5.5,5.5,0,0,1-1.18-.75,18.49,18.49,0,0,1-1.87-1.89c-.57-.61-1.2-1.26-1.76-1.93-1.14-1.33-2.18-2.73-3.24-4.09-.26-.34-.53-.69-.79-1a12,12,0,0,0-.87-.88,16.93,16.93,0,0,0-2-1.52c-1.42-.93-3-1.72-4.48-2.54l-4.6-2.42a.14.14,0,0,1-.06-.21.15.15,0,0,1,.2-.08c.81.32,1.6.67,2.4,1s1.59.7,2.38,1.07A45.49,45.49,0,0,1,50.44,95a15.7,15.7,0,0,1,2.15,1.59,9.56,9.56,0,0,1,1,1c.3.35.56.7.83,1,1.06,1.38,2.09,2.77,3.19,4.08.55.66,1.11,1.26,1.72,1.93a16.93,16.93,0,0,0,1.76,1.82,4.93,4.93,0,0,0,1,.67l.26.12.28.1.61.17c.83.22,1.67.42,2.51.61s1.69.36,2.55.58,1.68.49,2.5.78,1.63.63,2.43,1a9.32,9.32,0,0,1,1.2.56c.19.12.38.24.56.38a1.58,1.58,0,0,1,.46.56h0a.16.16,0,0,1-.3.13Z"/><path class="cls-3" d="M26.25,111.38a11,11,0,0,0,2.22-.38,13,13,0,0,1,2.32-.19c.77,0,1.54,0,2.29,0a17.18,17.18,0,0,0,2.25-.24c1.5-.26,3.05-.41,4.57-.53s3.05-.23,4.54-.47,3-.61,4.5-.87l1.13-.18c.36-.07.73-.16,1.1-.25a10.16,10.16,0,0,1,1.15-.25l.59-.06.59,0c3-.2,6.21-.11,9-.4h0a.17.17,0,0,1,.18.15.19.19,0,0,1,0,.13,2.07,2.07,0,0,1-1.17.45l-.56,0-.57.05c-.78,0-1.55.06-2.32.07s-1.52,0-2.28,0c-.37,0-.74.05-1.14.08s-.78,0-1.16,0H53l-.55.05c-.36.06-.72.14-1.09.23s-.74.19-1.15.26l-1.13.18c-1.49.25-3,.6-4.51.84s-3.06.33-4.59.44-3,.23-4.54.47a17.71,17.71,0,0,1-2.31.21c-.78,0-1.54,0-2.3-.06a12,12,0,0,0-2.25.14,11.29,11.29,0,0,1-2.29.34h0a.15.15,0,0,1-.15-.17A.15.15,0,0,1,26.25,111.38Z"/><path class="cls-3" d="M67.37,108.92c-.48.15-.89.46-1.44.65a7.38,7.38,0,0,1-1.58.42c-.53.09-1.06.15-1.58.23s-1,.18-1.54.28a23,23,0,0,0-6,1.88,5.9,5.9,0,0,0-2.06,2.14,12.91,12.91,0,0,1-1,1.29,4.12,4.12,0,0,1-.28.31l-.32.28c-.21.18-.43.33-.64.49a6.21,6.21,0,0,0-1.13,1c-.17.19-.34.4-.53.6a4,4,0,0,1-.29.29l-.28.26c-.34.36-.62.82-1,1.24a2.66,2.66,0,0,1-.64.56,1.4,1.4,0,0,1-.87.19h0a.17.17,0,0,1-.14-.18.16.16,0,0,1,.18-.14,1.42,1.42,0,0,0,1.17-.69c.32-.4.57-.86,1-1.29a3.94,3.94,0,0,1,.29-.29l.25-.28.5-.61A8.11,8.11,0,0,1,50,117a7.69,7.69,0,0,1,.63-.53l.61-.49.27-.26c.09-.09.16-.18.25-.28a13.49,13.49,0,0,0,.9-1.26,16.17,16.17,0,0,1,.95-1.32A4.3,4.3,0,0,1,55,111.74a23.57,23.57,0,0,1,6.12-2c.52-.11,1-.22,1.58-.3l1.57-.24c.52-.08,1-.16,1.52-.27l.74-.21a2.89,2.89,0,0,1,.84-.13h0a.17.17,0,0,1,.16.17A.16.16,0,0,1,67.37,108.92Z"/><path class="cls-3" d="M75.12,81.16a15.17,15.17,0,0,1,.44-5,12.22,12.22,0,0,1,2.28-4.59,12.6,12.6,0,0,1,1.8-1.85c.33-.28.66-.53,1-.79l1-.76,1-.76c.33-.26.67-.52,1-.76a15,15,0,0,0,1.89-1.46c.62-.59,1.26-1.11,1.84-1.65a7.87,7.87,0,0,0,.78-.86,4.84,4.84,0,0,0,.33-.46l.32-.52c.44-.7.86-1.39,1.23-2.11a10.64,10.64,0,0,0,.51-1.08L91,57.36c.63-1.51,1.27-3,2-4.54l.27-.57c.09-.19.2-.37.31-.56a7.52,7.52,0,0,1,.75-1C94.8,50,95.42,49.47,96,48.9a.16.16,0,0,1,.23.23c-.56.61-1.13,1.2-1.62,1.83A7.2,7.2,0,0,0,94,52c-.09.17-.18.35-.26.53l-.23.57c-.62,1.51-1.18,3.06-1.76,4.61l-.44,1.15c-.15.4-.32.79-.5,1.17-.37.76-.79,1.48-1.21,2.2l-.31.53c-.12.19-.24.38-.37.56a10.21,10.21,0,0,1-.86,1c-.61.61-1.25,1.13-1.81,1.69a16.9,16.9,0,0,1-2,1.59c-.33.25-.64.48-1,.74l-1,.77-1,.77c-.32.26-.65.51-.94.77a11.82,11.82,0,0,0-1.63,1.69,14.21,14.21,0,0,0-2.19,4.17,31.52,31.52,0,0,0-1.12,4.72.17.17,0,0,1-.33,0Z"/><path class="cls-3" d="M75.22,45.31a2.77,2.77,0,0,0,.57-.66c.17-.24.33-.5.49-.77s.33-.54.52-.81a5.62,5.62,0,0,1,.63-.82c1-1,2.13-1.58,2.92-2.48a12.53,12.53,0,0,0,2.08-3.11l.79-1.74a17.21,17.21,0,0,0,.87-1.7h0a.16.16,0,0,1,.2-.11.18.18,0,0,1,.11.19,13.74,13.74,0,0,1-.74,1.8c-.22.6-.44,1.21-.69,1.8a12.62,12.62,0,0,1-2,3.37C80,41.33,78.84,42,78,42.82A17.28,17.28,0,0,0,77,44.34a5.88,5.88,0,0,1-.67.76,1.93,1.93,0,0,1-.94.51.17.17,0,0,1-.19-.14A.17.17,0,0,1,75.22,45.31Z"/><path class="cls-3" d="M71.15,69.51a2.34,2.34,0,0,1-.69-.14l-.63-.24-.67-.25a5,5,0,0,0-.78-.22c-1.14-.19-2.42-.09-3.38-.3a8.75,8.75,0,0,1-2.63-.92l-1.12-.64a10.56,10.56,0,0,1-1.17-.59h0s-.14,0-.22,0-.11.1-.08.14c.26.31.77.46,1.07.69s.66.48,1,.71a8.33,8.33,0,0,0,2.67,1.06c1.08.25,2.39.17,3.37.35a12.13,12.13,0,0,1,1.34.43,4.26,4.26,0,0,0,.81.17,2.85,2.85,0,0,0,1-.06c.1,0,.17-.08.17-.13S71.2,69.52,71.15,69.51Z"/><path class="cls-3" d="M75.06,43.83c-.41-.46-.75-.91-1.1-1.38a11.6,11.6,0,0,0-1.09-1.34A10.77,10.77,0,0,0,70.16,39a6.4,6.4,0,0,1-1.5-1.14c-.43-.44-.81-.93-1.2-1.33s-.88-.73-1.36-1.11A4.26,4.26,0,0,1,64.88,34a.17.17,0,0,1,.08-.22.16.16,0,0,1,.21.06A4.17,4.17,0,0,0,66.39,35a12.69,12.69,0,0,1,1.48,1.06c.47.43.86.87,1.28,1.27a5.37,5.37,0,0,0,1.38,1,11.25,11.25,0,0,1,2.94,2.23A11.49,11.49,0,0,1,74.65,42a4.32,4.32,0,0,1,.7,1.72h0a.18.18,0,0,1-.14.19A.19.19,0,0,1,75.06,43.83Z"/><path class="cls-3" d="M75.24,74.8c-.28-.16-.53-.27-.82-.42a3,3,0,0,1-.85-.64c-.1-.11-.2-.24-.31-.38L73,73l-.53-.78c-.71-1-1.53-2-2.34-2.93-.41-.49-.82-1-1.21-1.48a14.49,14.49,0,0,0-1.24-1.36,16.33,16.33,0,0,0-2.91-2.26,32,32,0,0,0-3.38-1.61,17.85,17.85,0,0,1-3.35-2,15.91,15.91,0,0,1-1.47-1.25c-.46-.45-.91-.89-1.34-1.4a14.79,14.79,0,0,1-1.88-3.35.17.17,0,0,1,.08-.22.17.17,0,0,1,.21.08,15.86,15.86,0,0,0,2,3.15A19.29,19.29,0,0,0,58.43,60a17.11,17.11,0,0,0,3.26,1.77,33.91,33.91,0,0,1,3.52,1.57,17.15,17.15,0,0,1,4.46,3.76l1.21,1.46c.81,1,1.64,1.93,2.41,3l.54.79a3.47,3.47,0,0,0,.26.37l.27.37c.13.17.35.39.57.62a2.37,2.37,0,0,1,.56.87.17.17,0,0,1-.12.22A.15.15,0,0,1,75.24,74.8Z"/><path class="cls-3" d="M98.43,99.88a3.94,3.94,0,0,1,1.38.16,10.59,10.59,0,0,1,1.28.4c.82.28,1.69.56,2.52.92a13.27,13.27,0,0,1,2.36,1.41c.73.53,1.42,1.1,2.1,1.67l.51.43c.16.14.34.28.52.45a9.08,9.08,0,0,1,.87,1.07,4.29,4.29,0,0,0,.86.89,10,10,0,0,0,1.09.68c.39.2.78.39,1.18.57a7.14,7.14,0,0,0,1.21.46,12.39,12.39,0,0,0,2.58.41.16.16,0,0,1,.15.17.16.16,0,0,1-.16.16,11.71,11.71,0,0,1-2.69-.28,8.61,8.61,0,0,1-1.3-.43c-.41-.17-.83-.34-1.23-.54a9.43,9.43,0,0,1-1.19-.69,5,5,0,0,1-1-1,10.48,10.48,0,0,0-.84-1c-.14-.13-.32-.27-.5-.41l-.52-.42c-.68-.56-1.37-1.11-2.08-1.61a11.35,11.35,0,0,0-2.22-1.31c-.79-.34-1.63-.58-2.48-.89s-1.62-.71-2.42-1h0a.17.17,0,0,1-.1-.21A.16.16,0,0,1,98.43,99.88Z"/><path class="cls-3" d="M47.54,109.45a8.58,8.58,0,0,1-4.09-.58l-2-.57-1-.3c-.33-.11-.65-.2-1-.35a9.51,9.51,0,0,1-1.8-1.1,16.64,16.64,0,0,0-1.66-1.12c-.58-.34-1.16-.68-1.76-1a13.43,13.43,0,0,0-1.88-.66.17.17,0,0,1-.11-.21.18.18,0,0,1,.19-.11,12.32,12.32,0,0,1,2,.53,19.87,19.87,0,0,1,1.86.89c1.25.61,2.3,1.56,3.46,2a9.21,9.21,0,0,0,.93.31l1,.27,2,.57a33.23,33.23,0,0,0,3.85,1,.17.17,0,0,1,.13.2.17.17,0,0,1-.13.13Z"/><path class="cls-3" d="M39,110.56a3.5,3.5,0,0,0-1.19.46,5.31,5.31,0,0,1-.64.3,3.66,3.66,0,0,0-.56.28l-.12.08-.11.09-.19.22a2.83,2.83,0,0,1-.23.28l-.14.14-.13.12-1,.91-.5.46L34,114l-.13.12a3.19,3.19,0,0,1-.32.23,10.91,10.91,0,0,1-1.27.59,7.17,7.17,0,0,1-1.32.49c-.46.12-.93.14-1.33.25h0a.18.18,0,0,1-.2-.11.17.17,0,0,1,.1-.2c.46-.18.92-.21,1.33-.36a9.31,9.31,0,0,0,1.22-.52,13.16,13.16,0,0,0,1.19-.6,1.45,1.45,0,0,0,.23-.19l.24-.23.51-.47,1-.93.12-.11.1-.1a2.73,2.73,0,0,0,.2-.25,2.21,2.21,0,0,1,.26-.3l.15-.13.16-.11a3.18,3.18,0,0,1,.68-.31c.21-.07.4-.15.61-.24a2.93,2.93,0,0,1,1.42-.3h0a.16.16,0,0,1,.14.18A.17.17,0,0,1,39,110.56Z"/><path class="cls-3" d="M82.09,68.29a8.45,8.45,0,0,0,.44-1.14c.07-.19.14-.39.2-.59a3.41,3.41,0,0,0,.14-.55c.06-.4.08-.86.19-1.31s.22-.86.31-1.27A15,15,0,0,1,84,60.86a4.55,4.55,0,0,1,.3-.63l.31-.56c.21-.38.4-.77.63-1.15a.16.16,0,0,1,.22-.06.16.16,0,0,1,.07.2c-.15.4-.3.81-.47,1.22-.08.21-.17.41-.25.61a4.07,4.07,0,0,0-.22.58,22.45,22.45,0,0,0-.46,2.51c-.08.45-.17.87-.26,1.29s-.11.8-.18,1.27a2.79,2.79,0,0,1-.19.7,4.39,4.39,0,0,1-.29.62,3.53,3.53,0,0,1-.38.57,1.7,1.7,0,0,1-.53.5.18.18,0,0,1-.23-.06.22.22,0,0,1,0-.16Z"/><path class="cls-3" d="M85.22,103.06a1,1,0,0,1,.25-.13l.25-.06a4.28,4.28,0,0,1,.49-.05h.65l.23,0c.3,0,.6,0,.91,0h.92a3.13,3.13,0,0,1,1.51.35l.44.24a12.37,12.37,0,0,1,1.51,1.13,20.73,20.73,0,0,0,2.73,2.29,5.56,5.56,0,0,0,.78.34l.86.29a6.07,6.07,0,0,0,1.72.36h0a.16.16,0,0,1,.15.17.16.16,0,0,1-.14.16,6.13,6.13,0,0,1-1.87-.18l-.9-.22a4.26,4.26,0,0,1-.91-.31,7.11,7.11,0,0,1-1.59-1.06c-.47-.4-.92-.79-1.39-1.16a12.38,12.38,0,0,0-1.43-1c-.13-.07-.24-.14-.37-.2a3.05,3.05,0,0,0-.35-.15,2.63,2.63,0,0,0-.77-.09H88c-.3,0-.61,0-.91,0l-.23,0h-.11l-.14,0c-.17,0-.32-.06-.46-.09a3.25,3.25,0,0,0-.81-.15.17.17,0,0,1-.18-.16.19.19,0,0,1,0-.13Z"/><path class="cls-3" d="M55.89,101.23a.87.87,0,0,0-.16-.2,1.45,1.45,0,0,0-.18-.16,4.17,4.17,0,0,0-.37-.26l-.35-.23-.07,0-.09-.06-.17-.12-.72-.47-.73-.45a4.48,4.48,0,0,0-.88-.42l-.46-.12-.44-.06a11.13,11.13,0,0,0-1.61-.08,21.49,21.49,0,0,1-3,0,5.89,5.89,0,0,1-.75-.19l-.79-.24a8.31,8.31,0,0,1-1.51-.63h0c-.07,0-.16,0-.18,0a.13.13,0,0,0,.06.16,7.47,7.47,0,0,0,1.56.81l.79.31a4.58,4.58,0,0,0,.84.27,7.44,7.44,0,0,0,1.65.15q.78,0,1.53,0a12.63,12.63,0,0,1,1.51.11,2.08,2.08,0,0,1,.36.06l.34.08a3.24,3.24,0,0,1,.65.32l.72.45c.24.15.49.29.74.42l.19.1.1,0,.11.06L55,101a3.78,3.78,0,0,1,.7.31.15.15,0,0,0,.2,0,.09.09,0,0,0,0-.1Z"/><path class="cls-3" d="M90.47,58.94a.93.93,0,0,1,.14-.22.86.86,0,0,1,.14-.13l.27-.25q.28-.24.57-.45a6.19,6.19,0,0,1,1.27-.76,13.78,13.78,0,0,0,1.24-.66,5.15,5.15,0,0,1,.69-.3l.68-.25A11.84,11.84,0,0,0,98,54.78l.28-.19a1.14,1.14,0,0,0,.22-.22,2.34,2.34,0,0,0,.37-.54c.22-.4.39-.85.61-1.28a.17.17,0,0,1,.22-.07.15.15,0,0,1,.08.2h0c-.17.43-.3.89-.51,1.35a3.4,3.4,0,0,1-.38.66,2.6,2.6,0,0,1-.28.29l-.3.24a11,11,0,0,1-2.62,1.29,12.63,12.63,0,0,0-1.28.54c-.39.21-.81.5-1.28.7a10.74,10.74,0,0,0-1.21.63l-.62.36-.3.17-.14.09-.09.06a.16.16,0,0,1-.2.09A.16.16,0,0,1,90.47,58.94Z"/><path class="cls-3" d="M68.67,66.17a6.59,6.59,0,0,1-.24-.88c0-.15-.08-.3-.11-.45a3.21,3.21,0,0,1-.07-.43c0-.3,0-.66-.11-1s-.11-.65-.16-1a15.78,15.78,0,0,0-.34-2c0-.17-.1-.33-.16-.48l-.17-.44c-.11-.29-.21-.59-.33-.88,0-.06-.08-.08-.12,0a.16.16,0,0,0,0,.15c.08.32.16.63.25.94s.09.32.14.47.08.29.11.45c.13.6.16,1.26.25,1.94,0,.34.09.66.14,1s.06.62.1,1a2.35,2.35,0,0,0,.1.54,3.37,3.37,0,0,0,.15.48c.06.15.13.3.2.44a1.1,1.1,0,0,0,.29.38s.1,0,.12,0a.13.13,0,0,0,0-.12Z"/><path class="cls-3" d="M116.35,101.48a8.3,8.3,0,0,1,.78.46l.4.25.35.26c.23.19.49.44.78.65l.79.58a15.45,15.45,0,0,0,1.63,1.18,3.21,3.21,0,0,0,.45.24l.42.19.86.4c.06,0,.11,0,.11,0a.13.13,0,0,0-.08-.13L122,105l-.43-.23-.39-.24c-.51-.35-1-.79-1.53-1.22l-.79-.61c-.24-.18-.47-.4-.75-.63a2.31,2.31,0,0,0-.45-.32,4.64,4.64,0,0,0-.44-.23,3.66,3.66,0,0,0-.46-.18,1.25,1.25,0,0,0-.47-.07s-.08.06,0,.12a.14.14,0,0,0,.09.08Z"/><path class="cls-3" d="M56.84,59.19A.46.46,0,0,0,56.7,59l-.13-.1-.28-.18c-.18-.11-.37-.22-.57-.32a7.25,7.25,0,0,0-1.26-.55c-.42-.12-.79-.3-1.24-.47a6.69,6.69,0,0,0-.68-.22L51.86,57a15.61,15.61,0,0,1-2.53-.81l-.26-.14a1.52,1.52,0,0,1-.23-.16,2,2,0,0,1-.37-.39c-.22-.29-.38-.61-.61-.92a.19.19,0,0,0-.22-.05c-.07,0-.1.09-.07.14h0c.17.31.3.64.5,1a2.16,2.16,0,0,0,.39.48,1.78,1.78,0,0,0,.27.21l.3.17a13.29,13.29,0,0,0,2.61.93c.44.13.9.24,1.28.38a12,12,0,0,0,1.27.51,11.12,11.12,0,0,1,1.21.46L56,59l.3.12.14.07.09,0a.18.18,0,0,0,.2.07C56.83,59.31,56.87,59.25,56.84,59.19Z"/><path class="cls-3" d="M109.46,100.86a.37.37,0,0,0,.2,0l.16-.06.29-.14.57-.32a6.8,6.8,0,0,0,1.12-.8,13.15,13.15,0,0,1,1-.81c.18-.15.37-.33.53-.48l.51-.48a14.57,14.57,0,0,1,2-1.75l.26-.16.25-.11a1.93,1.93,0,0,1,.53-.11c.36,0,.72,0,1.1,0a.19.19,0,0,0,.16-.16.12.12,0,0,0-.09-.14h0c-.35,0-.7-.07-1.09-.07a2.81,2.81,0,0,0-.61.09,1.52,1.52,0,0,0-.32.12l-.3.17a12.85,12.85,0,0,0-2.14,1.76c-.34.3-.67.64-1,.89s-.73.5-1.09.82a11.7,11.7,0,0,1-1,.81l-.53.39-.26.19-.13.08-.08.06c-.07,0-.14.06-.16.14S109.39,100.86,109.46,100.86Z"/></svg>