<svg id="कमल" xmlns="http://www.w3.org/2000/svg" xmlns:xlink="http://www.w3.org/1999/xlink" viewBox="0 0 150 160"><defs><style>.cls-1{fill:#ffbbd9;}.cls-2{fill:#fff;}.cls-3{fill:#408a44;}.cls-4{fill:#489c4d;}.cls-5{fill:#f786a4;}.cls-6{clip-path:url(#clip-path);}</style><clipPath id="clip-path"><path class="cls-1" d="M78,94c-22.46-2.3-39.11-18.52-35.15-27.1,2.05-4.45,14.82,7.55,17,6.23,0,0-3.14-18.17,1.37-19.21,3.8-.88,9.33,4.39,12.9,8.78,0,0,5.44-15.82,7.14-16.19,4.53-1,9.88,10.43,10.43,15.37,0,0,9.25-9.9,12.63-8.24,4.31,2.13,1.1,14.28,0,19.22,0,0,14.9-3.73,18.39-.82C122.77,72.08,116.07,97.94,78,94Z"/></clipPath></defs><path class="cls-2" d="M129.7,103.71a2.93,2.93,0,0,0-.13-1.41c-1-2.87-4.51-5.18-11-7.21,6.92-1.76,7-3.48,7-4.57V87.85c0-2.1-2-3.26-7.44-4.06A31.84,31.84,0,0,0,124.24,74,5.05,5.05,0,0,0,122,66.23a24.37,24.37,0,0,0-11-2.64,22.77,22.77,0,0,0-2.74.16c.68-5,.58-10.1-3-11.86a3.42,3.42,0,0,0-1-.33c-1.71-6-5.07-7.32-7.69-7.32a9.16,9.16,0,0,0-2.26.31,17.1,17.1,0,0,0-6.4,3.7c-2-2.5-4-3.77-6-3.77a4.88,4.88,0,0,0-1,.11c-1,.22-1.85.75-3.77,5-4.69-4.44-7-5.07-8.4-5.12h-.18c-3,0-5,2.49-5.79,7.41a5.83,5.83,0,0,0-.59,0,5.74,5.74,0,0,0-1.32.15c-2.54.59-3.49,3.33-3.82,6.28-2.4-1.59-4.36-2.36-6-2.36a4.34,4.34,0,0,0-1.81.37c-2.49,1.13-3.66,3.74-3.48,7.77a6.5,6.5,0,0,0-1.2-.12,3.67,3.67,0,0,0-3.49,2.15c-2.45,5.3,1,12.46,8.64,18.64-2.89.51-5.74,1.1-8.53,1.76l-.16,0,0,.47-.11-.45c-3.53.85-6.79,1.76-10,2.79-7.12,2.29-10.61,5.1-10.7,8.58h.2l-.2,0v2.34a4.09,4.09,0,0,0,0,.78l0,2.91.88-.36c4.52,7,24.83,11.31,43.64,12,3.11.11,6.35.17,9.62.17h0c23,0,49.6-2.78,54.23-7.42a3.59,3.59,0,0,0,.57-.72l.53-.15Z"/><path class="cls-3" d="M127.74,106l-.06-3-.82,1.3c-5.42-6.32-30.51-8.37-25-8.69,7.76-.46,21.69-2.89,21.77-5.07V87.86l-1.72,1.41c-2.21-.72-6.73-1.35-14.49-1.79C79.76,85.9,55.24,86.27,31.57,93.9c-5.05,1.62-7.88,3.42-8.88,5.24L22.26,98v2.43a3.11,3.11,0,0,0,0,.61v.06h0c.71,6,19.51,11.75,42.62,12.56,29.7,1,62.85-3,62.84-7.63Z"/><path class="cls-4" d="M31.57,91.24c23.67-7.63,48.19-8,75.83-6.42,33.57,1.91,6.52,7.4-5.56,8.11-5.86.34,23.19,2.66,25.84,10,1.69,4.7-32.36,9-62.78,8C32.28,109.8,8.22,98.76,31.57,91.24Z"/><path class="cls-3" d="M29.12,104.4s31.59-9.09,43-10L36.8,107.06Z"/><polygon class="cls-3" points="41.37 88.5 73.43 90.68 58.33 85.48 41.37 88.5"/><polygon class="cls-3" points="73.43 110.94 88.4 96.31 83.09 111.1 73.43 110.94"/><polygon class="cls-3" points="78.42 84.13 87.11 90.68 84.38 84.07 78.42 84.13"/><path class="cls-5" d="M50.89,76.43s-6.53-15.73-.83-18.31c4-1.8,14.7,9.49,14.7,9.49s-2.57-21.37,3.88-21.13c4.21.16,13.28,11.24,13.28,11.24s6.92-9.67,12.89-11.24c10.9-2.86,8.27,20.59,8.27,20.59a22,22,0,0,1,18,1c4.22,2.12,2.36,6.44-7.18,11.94H80Z"/><path class="cls-1" d="M78,94c-22.46-2.3-39.11-18.52-35.15-27.1,2.05-4.45,14.82,7.55,17,6.23,0,0-3.14-18.17,1.37-19.21,3.8-.88,9.33,4.39,12.9,8.78,0,0,5.44-15.82,7.14-16.19,4.53-1,9.88,10.43,10.43,15.37,0,0,9.25-9.9,12.63-8.24,4.31,2.13,1.1,14.28,0,19.22,0,0,14.9-3.73,18.39-.82C122.77,72.08,116.07,97.94,78,94Z"/><g class="cls-6"><path class="cls-5" d="M79.8,96.07c-16.86-8.66-21.63-26-21.67-26.2l.62-.16c0,.17,4.74,17.26,21.34,25.78Z"/><path class="cls-5" d="M82.26,95.17,82,94.92C71,82.17,73.92,60.9,74,60.68l.64.1c0,.21-2.92,20.89,7.7,33.44a39.82,39.82,0,0,0,9.23-33.8l.64-.11A40.32,40.32,0,0,1,82.5,94.94Z"/><path class="cls-5" d="M82.31,95l-.07-.65c18.88-2,22.52-22.25,22.55-22.45l.64.11C105.39,72.25,101.67,92.93,82.31,95Z"/></g></svg>