<svg id="लड़का" xmlns="http://www.w3.org/2000/svg" viewBox="0 0 150 160"><defs><style>.cls-1,.cls-14{fill:#fff;}.cls-1{stroke:#fff;stroke-miterlimit:10;stroke-width:5px;}.cls-2{fill:#fe8572;}.cls-3{fill:#e6e6e6;}.cls-4{fill:#2c2c2c;}.cls-5{fill:#161616;}.cls-6{fill:#c53d79;}.cls-7{fill:#c25848;}.cls-8{fill:#942e5b;}.cls-9{fill:#363636;}.cls-10{fill:#feb6aa;}.cls-11{fill:#d6554f;}.cls-12{fill:#fde4e4;}.cls-13{fill:#ad1c25;}.cls-15{fill:#f36868;}</style></defs><path class="cls-1" d="M89.48,81.37c3.7-2.34,4.7-7.18,4.69-12l1.07-.07s-.9-15.36-1.94-18.16c-2.9-4.07-8.77-3-11.31-5a1.07,1.07,0,0,1-.06.3C77.56,41.59,88.75,37.65,87,32c3.48,1.81,6.82-3.52,3.62-5.75,1.08-1.57,1.61-4.59.2-6.2a3,3,0,0,0-.61-4.51c1.81-3.21-3.5-8.79-6.77-7.1C83.08,6,79.56,5.11,78.27,7.33a2.86,2.86,0,0,0-4.83-1.42c-1.77-.27-4.44-1-5.52,1a5.28,5.28,0,0,0-5,2.42C60.62,9.24,57.31,12.54,59,15A2.83,2.83,0,0,0,56.34,19c-.4,1.73-2.14,3.14-1.38,5.06,2.9,2,.68,6.55,4.65,7-2.14,3.16,2.64,7,5.31,4.21a8.33,8.33,0,0,0,2.19,3.94v0c2.51,2.35,6.56,3.54,3.15,7.31a1,1,0,0,1-.09-.36c-2.53,1.9-8.68,1.16-11.13,5-1,2.81-1.94,18.17-1.94,18.17l1.28.08C58.08,75.5,60,80.18,64.16,83.45c-3,6.58.42,45.18.13,48.39h2.12c.26,4.62.49,9.11.64,11.63h-.34c0,.27-.18,2.56-.45,2.68-1,.18-1.74,2.71-2.09,3.47a5.82,5.82,0,0,0-2.9,5.33H73.42c-.22-.51.64-9.26-.76-9.43,0-1.16,0-2.05,0-2.05h-.75c.25-2.11.75-6.49,1.23-11.63h2.44c.33-1-.12-36.42.82-39.5,1.15,6.9,1,38,1.34,39.5H79.4c.48,5.14,1,9.52,1.23,11.63h-.75s0,.89,0,2.05c-1.4.16-.54,8.93-.76,9.43H91.27a5.82,5.82,0,0,0-2.9-5.33c-.35-.77-1.07-3.28-2.09-3.47-.27-.11-.41-2.43-.45-2.68h-.34c.15-2.52.38-7,.64-11.63H89s.31-37.82.1-43h0a19.46,19.46,0,0,0-1.12-5.31A2.1,2.1,0,0,0,89.48,81.37Zm-.25-9.49a4.62,4.62,0,0,1-.18.82c-.06-1-.11-2-.17-3l.44,0A14.07,14.07,0,0,1,89.23,71.88ZM63.49,69.7c0,1-.08,2.07-.13,3.1a15,15,0,0,1-.08-3.12Z"/><path class="cls-2" d="M93.51,52.58s1.58,16.51,0,22.94-8.29,7.82-8.29,7.82l-1.74-5.12s5.23-2.33,5.75-6.34c.45-3.39-.91-9.65-.38-12.6C90.05,52.63,92.81,50,93.51,52.58Z"/><path class="cls-2" d="M59.06,53.34s-1.59,16.51,0,22.94,8.29,7.82,8.29,7.82L69.08,79s-5.22-2.33-5.75-6.34c-.44-3.39.92-9.65.39-12.59C62.52,53.39,59.76,50.79,59.06,53.34Z"/><path class="cls-2" d="M80.8,144.83s-4.15-32.54-1.75-40.57c1.35-4.5,9-5.89,9-5.89s-.33,13-1,19.81c-.62,6.3-1.51,25.4-1.7,27.23S80.8,144.83,80.8,144.83Z"/><path class="cls-3" d="M79.88,143.47h6l.26,2.4s2.19,3,1.59,4.39-6.85,1.32-7.37.35S79.88,143.47,79.88,143.47Z"/><path class="cls-4" d="M80.1,148.16s2.35-5.23,7.12-1.35l1.15,2.81a5.82,5.82,0,0,1,2.9,5.33H79.12v-7.21c0-1.17.58-2.76.75-2.25A12.36,12.36,0,0,1,80.1,148.16Z"/><path class="cls-2" d="M71.74,144.83s4.15-32.54,1.75-40.57c-1.35-4.5-9-5.89-9-5.89s.33,13,1,19.81c.62,6.3,1.51,25.4,1.7,27.23S71.74,144.83,71.74,144.83Z"/><path class="cls-3" d="M72.66,143.47h-6l-.26,2.4s-2.19,3-1.59,4.39,6.85,1.32,7.37.35S72.66,143.47,72.66,143.47Z"/><path class="cls-4" d="M72.44,148.16s-2.35-5.23-7.12-1.35l-1.15,2.81a5.82,5.82,0,0,0-2.9,5.33H73.42v-7.21c0-1.17-.58-2.76-.75-2.25A12.36,12.36,0,0,0,72.44,148.16Z"/><path class="cls-4" d="M66.4,77.42s-3.11,7.15-3.51,11.68,1.4,42.74,1.4,42.74H75.58s.47-34.71.47-37.8.63-1.55.74,0c.1,1.28.95,37.77.95,37.77H89s.31-38,.1-43-3.8-11.39-3.8-11.39Z"/><path class="cls-5" d="M77.39,91.63c-.66-.26-.92.41-1,.69a4.33,4.33,0,0,1,.4,1.75c.1,1.28.95,37.77.95,37.77h1.59C77.73,131.06,78.2,92,77.39,91.63Z"/><path class="cls-5" d="M65,88.31a4.94,4.94,0,0,1,4.4-3.56c5.35-.1,9.87-.38,13.78-.16a10.18,10.18,0,0,1,4,.69c1.27.63,1.51,2.12,2,3.57v0c-.21-5-3.8-11.39-3.8-11.39H66.4s-3.11,7.15-3.51,11.68,1.4,42.74,1.4,42.74h1.33c-.16-7.22-.25-14.43-.83-21.65S63.78,95.63,65,88.31Z"/><path class="cls-6" d="M86.56,47.94s5.7.37,6.74,3.18,1.94,18.16,1.94,18.16L84.92,70S84.52,47.62,86.56,47.94Z"/><path class="cls-6" d="M65.77,47.94s-5.7.37-6.74,3.18-1.94,18.16-1.94,18.16L67.41,70S67.81,47.62,65.77,47.94Z"/><path class="cls-2" d="M82.86,52.07a2.4,2.4,0,0,0,.51-4.26A6.32,6.32,0,0,1,81.62,46c-2-2.94-1.88-11-1.88-11l-7.36,0s.18,8.06-1.8,11a6.34,6.34,0,0,1-2,1.94,2.4,2.4,0,0,0,.44,4.33,19.1,19.1,0,0,0,6.42,1A22.47,22.47,0,0,0,82.86,52.07Z"/><path class="cls-7" d="M76.18,45.56c1.85-.55,3.68-1.69,4.11-3.38A42.7,42.7,0,0,1,79.74,35l-7.36,0s.15,6.67-1.32,10.09C71.27,45.29,74.58,46,76.18,45.56Z"/><path class="cls-6" d="M87.38,48.27,82,46.15c0,1.33-3.39,3.28-5.9,3.28s-5.89-2-5.93-3.28l-5.4,2.12c-.6,3.07-1.71,31.72-1.71,33.34s1.32,2.43,4.09,2.22c6.34-.48,14.38-.11,18.88,0,2.67.06,3.47-1.34,3.47-2.22S88,51.34,87.38,48.27Z"/><path class="cls-8" d="M63.79,75.77c.25-6.48.7-20.17.41-20.51-.56,9.51-1.15,25.16-1.15,26.35,0,1.61,1.32,2.43,4.09,2.22,1-.08,2-.13,3-.17-2.18-.31-3.88-.06-5.7-1.58C63.23,81,63.71,77.62,63.79,75.77Z"/><path class="cls-8" d="M88.53,80.06a3.47,3.47,0,0,1-.67,2.11c-1,1-9.12,1.19-11.24,1.43,3.61,0,7,.17,9.4.23,2.67.06,3.47-1.34,3.47-2.22,0-.65-.78-16.07-1.44-25.79,0,.81-.09,1.63-.1,2.44C87.86,65.5,89.21,72.74,88.53,80.06Z"/><path class="cls-2" d="M90.13,26.08a2.27,2.27,0,0,0-1.43.19,4.82,4.82,0,0,0-2.29,2.4,4.54,4.54,0,0,0-.4,1.61c0,.43,0,1.18.4,1.45a4.76,4.76,0,0,0,2.51.56,3.21,3.21,0,0,0,2.41-1.54,4.1,4.1,0,0,0,.24-3.48A2,2,0,0,0,90.13,26.08Z"/><path class="cls-7" d="M87.91,29.64c.52-.44,1.19-.13,1,.35s-1.15.75-.17,1.18a1.62,1.62,0,0,0,1.67-2.67C90,28,89,29,88.18,29A1.09,1.09,0,0,1,87,27.75a5.78,5.78,0,0,0-.48.74A4.09,4.09,0,0,0,86,30a4.66,4.66,0,0,0,.2.54C86.78,31.28,87.26,30.28,87.91,29.64Z"/><path class="cls-2" d="M60.06,30.69a2.31,2.31,0,0,1,1.42-.29,4.85,4.85,0,0,1,3,1.53,4.55,4.55,0,0,1,.9,1.39c.16.39.39,1.11.09,1.5a4.86,4.86,0,0,1-2.19,1.35,3.22,3.22,0,0,1-2.78-.68,4.06,4.06,0,0,1-1.36-3.2A2,2,0,0,1,60.06,30.69Z"/><path class="cls-7" d="M63.32,33.34c-.63-.25-1.16.26-.83.64s1.33.34.54,1.06a1.61,1.61,0,0,1-2.44-2c.26-.61,1.52,0,2.27-.25a1.1,1.1,0,0,0,.73-1.58,6.66,6.66,0,0,1,.69.55,4.09,4.09,0,0,1,1,1.28c0,.18,0,.37,0,.58C64.93,34.51,64.14,33.72,63.32,33.34Z"/><path class="cls-2" d="M86.4,16.76c-.9-5.55-9.28-8.68-13.67-8h0L71.13,9h0c-4.36.79-11.31,6.42-10.4,12,0,0,3.13,11.15,4.57,15.5S75,44.72,77.72,44.29,87,37.49,87,32.91,86.4,16.76,86.4,16.76Z"/><path class="cls-7" d="M66.06,27.18c.07-3.77.45-8,3.64-9.37,1.93-.85,8.37-1.39,11.08-.46.38-.08,4.39,3.42,5.81,3.43-.1-2.34-.19-4-.19-4-.9-5.55-9.28-8.68-13.67-8h0L71.13,9h0c-4.36.79-11.31,6.42-10.4,12,0,0,3.13,11.15,4.57,15.5a7.43,7.43,0,0,0,1.81,2.77C66.14,37.09,66,28.74,66.06,27.18Z"/><path class="cls-7" d="M76.2,33.21c.09-.05.29-.19.29-.32s-.5-.08-.75-.11a.65.65,0,0,1-.6-.39c-.09-.31.18-.66.17-1v-.07c-.18-.25-.46-.13-.6.08a1,1,0,0,0-.17.45,2,2,0,0,0,0,1,.94.94,0,0,0,.68.63A1.46,1.46,0,0,0,76.2,33.21Z"/><path class="cls-9" d="M79.78,25.14a2.26,2.26,0,0,1,3.06.59.27.27,0,0,0,.41.07.38.38,0,0,0,0-.49,3.12,3.12,0,0,0-1.76-1.17,2.6,2.6,0,0,0-2.12.44.39.39,0,0,0,0,.49.29.29,0,0,0,.42.07Z"/><path class="cls-9" d="M69.71,26.93a2.25,2.25,0,0,0-2.79,1.36.28.28,0,0,1-.39.18.39.39,0,0,1-.17-.46,3.23,3.23,0,0,1,1.4-1.59,2.61,2.61,0,0,1,2.17-.13.38.38,0,0,1,.16.46.28.28,0,0,1-.38.18Z"/><path class="cls-9" d="M82.69,28.77c.13,1.18-.49.45-1.45.56s-1.86,1-2-.17a1.78,1.78,0,1,1,3.45-.39Z"/><path class="cls-9" d="M67.78,31c.14,1.18,1.1.25,2,.15s1.53.65,1.4-.53a1.77,1.77,0,1,0-3.45.38Z"/><path class="cls-10" d="M76.77,31.82l0-.11a.41.41,0,0,0-.16-.16l-.11-.05a.45.45,0,0,0-.23,0,1.47,1.47,0,0,0-.28.14l-.17.13-.07.07a.24.24,0,0,0-.09.15.33.33,0,0,0,0,.17.35.35,0,0,0,0,.17.4.4,0,0,0,.09.15l.1.07a.4.4,0,0,0,.22.06l.11,0a.37.37,0,0,0,.2-.12l.09-.07.08,0a.33.33,0,0,0,.1-.06.25.25,0,0,0,.12-.13.35.35,0,0,0,.06-.17A.49.49,0,0,0,76.77,31.82Z"/><ellipse class="cls-11" cx="81.38" cy="31.56" rx="2.22" ry="1.06" transform="translate(-2.62 7.84) rotate(-5.43)"/><path class="cls-12" d="M82.68,30.45l-.08,0a.45.45,0,0,0-.2,0h-.27l-.15,0a.27.27,0,0,0-.14.07.28.28,0,0,0-.09.1.27.27,0,0,0,0,.12v.07a.22.22,0,0,0,.09.14l.09,0a.41.41,0,0,0,.19,0h.27a.57.57,0,0,0,.15,0,.46.46,0,0,0,.14-.07.44.44,0,0,0,.09-.11.17.17,0,0,0,0-.12v-.07A.28.28,0,0,0,82.68,30.45Z"/><path class="cls-11" d="M68.32,33.73c.11.57,1.17.85,2.37.62s2.09-.89,2-1.47-1.17-.86-2.37-.62S68.2,33.15,68.32,33.73Z"/><path class="cls-12" d="M68.93,32.61l.06-.07a.51.51,0,0,1,.18-.09l.27-.07a.38.38,0,0,1,.15,0l.15,0a.35.35,0,0,1,.12.07.61.61,0,0,1,.07.1v.08a.25.25,0,0,1-.06.16l-.06.07a.49.49,0,0,1-.18.08l-.27.07a.38.38,0,0,1-.15,0l-.15,0a.18.18,0,0,1-.11-.07.17.17,0,0,1-.07-.1l0-.08A.22.22,0,0,1,68.93,32.61Z"/><path class="cls-13" d="M72.76,34.4l6-.8c.66-.08,1.2.31,1.12.8-.29,1.71-1.28,4-3.49,4.28S72.61,37,71.89,35.46C71.68,35,72.1,34.49,72.76,34.4Z"/><path class="cls-14" d="M72.76,34.4s.59,1.51,3.2,1.16,2.53-1.92,2.53-1.92Z"/><path class="cls-15" d="M78.39,37.17c.09.67-.79,1.34-2,1.5s-2.2-.26-2.28-.94.78-1.34,2-1.49S78.3,36.5,78.39,37.17Z"/><path class="cls-9" d="M90.2,15.54a2.71,2.71,0,0,0,.29-.52,3,3,0,0,0-1.32-3.71,1.94,1.94,0,0,0-.13-.54,2,2,0,0,0-1.57-1.24,2.77,2.77,0,0,0-1.38-1.3A3.12,3.12,0,0,0,84,8.18a1.74,1.74,0,0,0-.53.26,2.05,2.05,0,0,0-.16-.55,2.93,2.93,0,0,0-1.54-1.63,3.24,3.24,0,0,0-2.13,0,2.65,2.65,0,0,0-1.33,1.12,3.22,3.22,0,0,0-.14-.44,2.93,2.93,0,0,0-1.54-1.63,3.18,3.18,0,0,0-2.13,0,2.26,2.26,0,0,0-1,.7,2.21,2.21,0,0,0-1.63-.13l-.15,0-.19-.09a3.24,3.24,0,0,0-2.13,0A2.71,2.71,0,0,0,67.92,7a2.31,2.31,0,0,0-1.52-.07,1.63,1.63,0,0,0-.92.76,3.66,3.66,0,0,0-1,.16A2.81,2.81,0,0,0,62.9,9.35v0a2.27,2.27,0,0,0-1.18,0,1.76,1.76,0,0,0-1.14,1.24l-.29.07a2.83,2.83,0,0,0-1.57,1.56,3,3,0,0,0,0,2.18A4.09,4.09,0,0,0,59,15a3.45,3.45,0,0,0-1.13.15,2.86,2.86,0,0,0-1.57,1.56,3,3,0,0,0,0,2.18,1.42,1.42,0,0,0,.08.18,2.17,2.17,0,0,0-.4,1.63,3.17,3.17,0,0,0-1,1.24,3,3,0,0,0,0,2.19,3,3,0,0,0,1.54,1.62l0,0a2,2,0,0,0,.14.69,2.52,2.52,0,0,0,.39.62v0a3,3,0,0,0,0,2.18,3,3,0,0,0,1.55,1.63,2.9,2.9,0,0,0,1.35.19s0,.08,0,.11a2,2,0,0,0,1.22,1.16,2.94,2.94,0,0,0,1.52,1.58,3.18,3.18,0,0,0,2.13,0,2.83,2.83,0,0,0,1.57-1.56,3,3,0,0,0,0-2.18,3.21,3.21,0,0,0-1-1.3h0a2.84,2.84,0,0,0,1.57-1.55,3.06,3.06,0,0,0,0-2.19,3.48,3.48,0,0,0-.73-1.09,3,3,0,0,0,0-1.69,2.94,2.94,0,0,0,1.31-3.07,2.86,2.86,0,0,0,1.56-1.55c0-.07,0-.15.08-.22l.09,0a3.24,3.24,0,0,0,2.13.05A2.8,2.8,0,0,0,73,16.31l.13.06a3.11,3.11,0,0,0,2,.09,2.5,2.5,0,0,0,1.06.82,3.12,3.12,0,0,0,2.13,0,1.52,1.52,0,0,0,.54-.27A2.69,2.69,0,0,0,80,18.15a3.12,3.12,0,0,0,2.13.05,1.2,1.2,0,0,0,.31-.13A3,3,0,0,0,82.53,20a3.57,3.57,0,0,0,.47.8,3.16,3.16,0,0,0-.51.82,3.06,3.06,0,0,0,0,2.19A3,3,0,0,0,84,25.42a3.19,3.19,0,0,0,.81.2A2.91,2.91,0,0,0,85,27.3a3.51,3.51,0,0,0,.71,1.07c0,.1.06.2.1.3a2,2,0,0,0,2.55,1.17,1.83,1.83,0,0,0,1.19-1.43,3.17,3.17,0,0,0,.69-1,3.43,3.43,0,0,0,.21-1,2.07,2.07,0,0,0,.84-2.5.47.47,0,0,1,0-.1,3.14,3.14,0,0,0,.27-.51,3,3,0,0,0,0-2.18,3.6,3.6,0,0,0-.68-1,3.07,3.07,0,0,0,.57-.88,3,3,0,0,0,0-2.18A3.09,3.09,0,0,0,90.2,15.54Z"/></svg>