<svg id="टाँग" xmlns="http://www.w3.org/2000/svg" viewBox="0 0 150 160"><defs><style>.cls-1{fill:#e6ac98;}.cls-2{fill:#fff;}.cls-3{fill:#efb39e;}.cls-4,.cls-6{opacity:0.4;}.cls-5,.cls-6{fill:#c47366;}</style></defs><path class="cls-1" d="M83,115c-.13.21-.28.42-.43.63h0a29.87,29.87,0,0,1-3.46,3.82h0c-.56.54-1.13,1.06-1.66,1.58a25.81,25.81,0,0,0-3,3.14,4.81,4.81,0,0,0-.34.49c-2.46,3.78-1.7,8.5-4.73,12.28A11.39,11.39,0,0,1,68,138.37h0a.45.45,0,0,1-.16.12v0c-.53.41-1.08.8-1.6,1.15h0c-.61.42-1.19.79-1.65,1.13-.72.54-1.35,1.2-2,1.62l-.16.09-.23.11a2,2,0,0,1-.71.17,2.12,2.12,0,0,1-1.24-.36L60,142.3l-.1.1,0,0a2.69,2.69,0,0,1-1,.57c-.38.1-.79.16-1.24.24h0l-.06,0v-.76a2.81,2.81,0,0,1-.89.95h0a2.32,2.32,0,0,1-1.76.37c-.46-.65-.08-1.68.28-2.44a4.83,4.83,0,0,1-.63.94h0a6.2,6.2,0,0,1-.54.61,3.92,3.92,0,0,1-.31.28,2.69,2.69,0,0,1-.32.27,5.08,5.08,0,0,1-.68.46,3.07,3.07,0,0,1-.48.24,1.22,1.22,0,0,1-.24.1,2.72,2.72,0,0,1-.49.13,2.32,2.32,0,0,1-1.2-.07h0a2.13,2.13,0,0,1-.45-.23,2.93,2.93,0,0,1-1-1.05c-1.32-2.27,2.65-5.3,3.78-7.19,2.46-5.1,4.35-10.4,6.62-15.5,1.23-2.93,2.49-5.87,3.55-8.87,2-5.23,2.41-23.1,2.5-29.07a18.7,18.7,0,0,1,0-2h0c0-.33,0-.66.1-1,0,0,0,0,0,0s0-.12,0-.17,0-.21,0-.33h16.5c-.31,1.76-.89,3.59-1.36,5.3-1.32,4.54-3,8.89-4,13.62-.89,4.19-.07,5.31,1.83,6.68.92.67,2.1,1.41,3.46,2.58C85,109.72,84.7,112.44,83,115Z"/><path class="cls-2" d="M51,146.46a4.15,4.15,0,0,1-1-.12h-.05l-.34-.12a3.59,3.59,0,0,1-.9-.44,5,5,0,0,1-1.59-1.72c-1.66-2.86.87-5.75,2.54-7.66a17.4,17.4,0,0,0,1.22-1.49c1.39-2.9,2.63-5.94,3.82-8.88.87-2.13,1.77-4.33,2.73-6.48l.41-1c1.06-2.52,2.16-5.14,3.07-7.73,1.29-3.37,2.17-14,2.39-28.37a20.09,20.09,0,0,1,0-2.06v-.07c0-.27,0-.54.08-.8l-.12-.74.25-.26L63.76,77l1.68,0H84.31l-.4,2.34a40.71,40.71,0,0,1-1.06,4.29c-.12.4-.23.8-.34,1.2-.46,1.57-1,3.1-1.44,4.58a80.38,80.38,0,0,0-2.5,8.9c-.72,3.4-.2,3.77,1,4.68l.74.52a30.65,30.65,0,0,1,2.86,2.16c2.44,2,4.71,5.48,1.51,10.5h0c-.13.2-.27.4-.41.59l-.08.13a30.1,30.1,0,0,1-3.45,3.85h0l-1,.93-.94.89a25.51,25.51,0,0,0-2.74,2.88,4,4,0,0,0-.25.37,15.1,15.1,0,0,0-1.79,5.05A17.42,17.42,0,0,1,71,138.25l-.06.08a13,13,0,0,1-1.56,1.47v0l-.36.28c-.49.38-1,.76-1.58,1.13l-.77.52-1,.67c-.23.17-.47.38-.71.59a10.8,10.8,0,0,1-1.43,1.1l-.16.09-.1.06a3.17,3.17,0,0,1-.42.2,4,4,0,0,1-1.42.32,3.8,3.8,0,0,1-1.28-.17,5.7,5.7,0,0,1-.72.29l-.1,0c-.23.06-.46.1-.71.15v.36H57.14a4.34,4.34,0,0,1-2.62.34l-.81-.14-.09.06A6.26,6.26,0,0,1,53,146a3.53,3.53,0,0,1-.41.16,5,5,0,0,1-.81.2A4.34,4.34,0,0,1,51,146.46Zm-.1-4,.08,0,.16,0,.14,0,.24-.09.17-.1a2.61,2.61,0,0,0,.46-.31l.07-.05.12-.1.26-.24.21-.22L53,141a3.17,3.17,0,0,0,.39-.59l2.33,1.16a.71.71,0,0,0,.1-.14l3.72-6.27V140l.22-.21,1.52,1,.08,0,.11-.07h0l-.05,0,.08,0a9.59,9.59,0,0,0,.86-.69c.31-.27.63-.55,1-.8l1.1-.76.65-.44.72-.49v-.25l.16-.08v-.8h1.29q.36-.33.66-.66a13.94,13.94,0,0,0,2.27-5.78,18.84,18.84,0,0,1,2.32-6.31,6.79,6.79,0,0,1,.42-.6,26.21,26.21,0,0,1,3.18-3.38l1-.91.7-.67a29.16,29.16,0,0,0,3.14-3.43l.11-.15c.12-.17.25-.35.36-.52,1.43-2.24,1.23-3.68-.72-5.28a30,30,0,0,0-2.55-1.94l-.82-.57c-2.5-1.82-3.66-3.75-2.61-8.72a83.21,83.21,0,0,1,2.62-9.32c.47-1.45,1-3,1.39-4.44.1-.38.22-.79.34-1.21s.29-1,.43-1.53H67.25c0,.44,0,.91,0,1.4v.11c-.13,8.88-.65,24.55-2.63,29.75-.94,2.66-2.06,5.32-3.14,7.9l-.43,1c-1,2.13-1.83,4.3-2.69,6.4-1.23,3-2.51,6.16-4,9.2l-.09.16A17.13,17.13,0,0,1,52.63,139c-.64.73-2.14,2.44-2.08,3a1.09,1.09,0,0,0,.29.34Zm.44,0h0Zm8.64-.06h0Z"/><path class="cls-1" d="M85.75,15c-4.48.73-9,1.51-13.29,2-1.64,7.2,0,14.73-1.31,22.25a49.31,49.31,0,0,0-1,19.64c.65,4.9,2.72,47.51,6.32,46.2l1.18,6c-.33-10,8.92-25.37,7.93-38-.7-8.87-4.54-13.53-.38-24.33,1.34-3.48,4.13-7,6.09-10.58s4.38-7.09,6-11A110.94,110.94,0,0,0,101.45,15Z"/><path class="cls-2" d="M75.71,111.4l-1-4.89c-2.46-2.06-3.88-11.64-5.92-39.66-.28-3.75-.5-6.72-.63-7.74a51.1,51.1,0,0,1,1-20.3,56.65,56.65,0,0,0,.5-10.24,51.2,51.2,0,0,1,.82-12l.32-1.4L72.25,15c3.55-.36,7.29-1,10.92-1.57l2.58-.4h18.38l-.76,2.57A112.87,112.87,0,0,1,99.2,27.82a60.36,60.36,0,0,1-4.11,7.75c-.71,1.21-1.39,2.35-2,3.51-.79,1.44-1.69,2.85-2.56,4.21a36.58,36.58,0,0,0-3.42,6.13c-2.69,7-1.82,10.95-.73,16a52.28,52.28,0,0,1,1.23,7.46c.57,7.26-1.94,15-4.37,22.49-1.9,5.85-3.69,11.37-3.55,15.58ZM74.14,18.79a54.49,54.49,0,0,0-.45,9.73,60,60,0,0,1-.57,11l0,.12a46.94,46.94,0,0,0-.95,18.91c.15,1.13.36,4,.65,8C73.44,75.19,75,97,76.88,102.48c.69-2.67,1.6-5.47,2.54-8.35,2.31-7.12,4.69-14.48,4.19-20.95a50.92,50.92,0,0,0-1.15-6.92C81.32,61,80.24,56.07,83.36,48a39.76,39.76,0,0,1,3.78-6.84c.83-1.31,1.7-2.66,2.42-4s1.39-2.45,2.09-3.63a57.57,57.57,0,0,0,3.83-7.19c2-5.17,2.33-6.11,3.29-9.34H85.91l-2.1.34C80.63,17.87,77.34,18.41,74.14,18.79Z"/><path class="cls-3" d="M96.09,113.56a11.11,11.11,0,0,0-2-2.67c-2.34-2.34-5.43-4.11-6.84-7.36a28.06,28.06,0,0,1-1.3-3.6L84.78,89.52l-1-13.35a33.21,33.21,0,0,0-.39-5v0h0a48.72,48.72,0,0,0-2-7.74c-1.31-3.6-4.91-7.2-5.89-10.47-1.31-4.26,2.29-8.84,3.6-12.76,3.37-8.6,7-16.91,10.44-25.2H61c-.75,5.19-1.45,8-1.87,14-1.25,7.42-3.18,20.16-2.9,26.36a21.77,21.77,0,0,0,.66,2.79v-.83h0c0,.3,0,.61,0,.91a36.25,36.25,0,0,0,3.4,7.82s7.93,20.6,11.51,29.51c1,2.23,1.89,4.45,2.75,6.65a42,42,0,0,1,3,18.25c0,.21,0,.42,0,.63,0,1-.15,1.91-.27,2.87,0,0,0,.07,0,.1a23.76,23.76,0,0,1-3.82,10.44h0c-.16.27-.33.53-.5.8a14.17,14.17,0,0,0-1.07,2c-1.33,3-2.12,7.27,1.56,7.61,0,0,0-.07.08,0,3,.38,3.21-2.08,4.53-3.79a6.23,6.23,0,0,1,.52-.51c1.66-1.47,3.8-2,5.16-4,2.83-4.16,2.46-9.08,6.61-12.67,1.91-1.8,4.35-3.06,5.66-4.83,1-1.34,1.35-3,.31-5.33Z"/><path class="cls-2" d="M76,147.19,73.71,147a5.54,5.54,0,0,1-.56,0l-.7-.11a4.5,4.5,0,0,1-3.09-2.13c-1.5-2.56-.29-6.22.57-8.17a17,17,0,0,1,1.22-2.3l.19-.29h0l.3-.48,0-.06.11-.19a21.59,21.59,0,0,0,3.39-9.38l0-.39c.11-.91.18-1.72.23-2.45,0-.21,0-.36,0-.51v-.11A40.12,40.12,0,0,0,72.68,103c-.89-2.27-1.84-4.52-2.74-6.61-3.07-7.66-9.38-24-11.09-28.45L55,59l0-.15-.08-.3a23.58,23.58,0,0,1-.67-2.92v-.13c-.28-6.09,1.42-17.85,2.91-26.69a95.32,95.32,0,0,1,1.23-9.91c.21-1.26.43-2.59.65-4.14L59.23,13h33.3l-1.14,2.76c-1.26,3.07-2.56,6.15-3.87,9.24C85.34,30.16,83.09,35.5,81,40.88a35.65,35.65,0,0,1-1.65,3.79c-1.28,2.67-2.62,5.44-1.92,7.7a20,20,0,0,0,2.65,4.7,27.57,27.57,0,0,1,3.21,5.67,51.36,51.36,0,0,1,2,8.12,34,34,0,0,1,.42,5.23l1,13.27,1.09,10.18A26.26,26.26,0,0,0,89,102.71c.83,1.9,2.43,3.26,4.13,4.7.77.65,1.56,1.33,2.31,2.06a13,13,0,0,1,2.4,3.16l0,0c.06.12.11.25.16.37a6.86,6.86,0,0,1-.55,7.29,16.6,16.6,0,0,1-3.57,3.21,25.59,25.59,0,0,0-2.32,1.87c-2.11,1.83-2.85,4-3.7,6.5a22.67,22.67,0,0,1-2.64,5.84A10.38,10.38,0,0,1,81.53,141a11.65,11.65,0,0,0-1.75,1.19c-.13.11-.23.21-.32.3a9.82,9.82,0,0,0-.64,1.09,6.19,6.19,0,0,1-3,3.12Zm-2.35-4.79.6.58c.34-.07.54-.39,1.06-1.34a11.56,11.56,0,0,1,1-1.7l.12-.14a7.67,7.67,0,0,1,.71-.69,14.76,14.76,0,0,1,2.3-1.58,7.05,7.05,0,0,0,2.46-2,19.94,19.94,0,0,0,2.18-4.89c.9-2.68,1.93-5.71,4.79-8.18a28.34,28.34,0,0,1,2.63-2.12,14,14,0,0,0,2.74-2.39c.47-.64.9-1.46.08-3.34l-.06-.14a8.91,8.91,0,0,0-1.67-2.15c-.63-.63-1.32-1.22-2.06-1.85-1.89-1.59-4-3.4-5.2-6.13A27.64,27.64,0,0,1,84,100.48l-.06-.34L82.79,89.73,81.74,76.16a30.12,30.12,0,0,0-.37-4.66l0-.12a46,46,0,0,0-1.86-7.32,24.45,24.45,0,0,0-2.75-4.75,22.85,22.85,0,0,1-3.16-5.78c-1.15-3.74.6-7.38,2.15-10.6a28.84,28.84,0,0,0,1.47-3.37l0-.1c2.13-5.44,4.4-10.81,6.6-16,.91-2.15,1.82-4.3,2.71-6.44H62.68c-.14.88-.27,1.71-.4,2.5a91.75,91.75,0,0,0-1.2,9.64l0,.19C59.89,36.31,58,48.82,58.18,55l.73-.16,0,3.13A34.61,34.61,0,0,0,62,65l.14.29c.08.2,8,20.69,11.5,29.49.89,2.08,1.85,4.36,2.75,6.67a43.91,43.91,0,0,1,3.1,19c0,.24,0,.49,0,.74,0,.84-.15,1.81-.28,2.93l-.06.37a25.42,25.42,0,0,1-3.77,10.49v.36l-.47.4-.37.59a13,13,0,0,0-.91,1.72c-1,2.2-1.12,4-.78,4.53a.43.43,0,0,0,.14.14Z"/><path class="cls-3" d="M73.32,144.94h.08C73.4,145,73.34,145,73.32,144.94Z"/><polygon class="cls-2" points="72.41 147.33 71.58 145.94 69.86 142.94 75.4 142.95 75.4 146.48 72.41 147.33"/><g class="cls-4"><path class="cls-5" d="M74.53,102.21c-.86-2.2-1.79-4.42-2.75-6.65l-.41-1-.3-.77c-.48-1.17-1-2.46-1.52-3.84-.11-.28-.22-.57-.34-.86h0l0,0a86.56,86.56,0,0,1,2.71,9,81.78,81.78,0,0,1,2,9v.08h0a66.33,66.33,0,0,1,.59,17.15,25.81,25.81,0,0,1,3-3.14c0-.21,0-.42,0-.62A41.92,41.92,0,0,0,74.53,102.21Z"/><path class="cls-2" d="M71.74,131.38,72.5,124a63.92,63.92,0,0,0-.58-16.63l-.06-.41A81.24,81.24,0,0,0,70,98.54a82.77,82.77,0,0,0-2.66-8.8l-4-10.57,7.73,9.16c.12.29.24.59.35.88.53,1.35,1,2.64,1.5,3.81.11.27.2.52.3.76l.42,1c.89,2.1,1.86,4.38,2.75,6.66a43.92,43.92,0,0,1,3.09,19.06c0,.21,0,.44,0,.67l0,.78-.57.56a25.38,25.38,0,0,0-2.73,2.87Z"/></g><g class="cls-4"><path class="cls-5" d="M78.22,53.9h0a8.87,8.87,0,0,1-.55-5.4c0-.18.11-.36.16-.55h0c1.7-5.74,5.38-17.84,8.08-24.29h0C83.62,29.1,81.3,34.58,79.1,40.2c-1.31,3.92-4.91,8.5-3.6,12.76,1,3.27,4.58,6.87,5.89,10.47.39,1.18.75,2.38,1.07,3.59h0A62.64,62.64,0,0,0,78.22,53.9Z"/><path class="cls-2" d="M81.41,70.9l-.89-3.37c-.29-1.13-.64-2.3-1-3.47a24.45,24.45,0,0,0-2.75-4.75,22.85,22.85,0,0,1-3.16-5.78c-1.15-3.74.6-7.38,2.15-10.6a28.84,28.84,0,0,0,1.47-3.37l0-.1c2.14-5.46,4.42-10.87,6.63-16.09L84,23l0-.09h0l3.69,1.55c-2.72,6.49-6.51,19-8,24.08l-.14.5a6.85,6.85,0,0,0,.45,4.11,64.27,64.27,0,0,1,4.36,13.55l.18,1Z"/></g><path class="cls-1" d="M83,115c-.13.21-.28.42-.43.63h0a29.87,29.87,0,0,1-3.46,3.82h0c-.56.54-1.13,1.06-1.66,1.58a25.81,25.81,0,0,0-3,3.14,4.81,4.81,0,0,0-.34.49c-2.46,3.78-1.7,8.5-4.73,12.28A11.39,11.39,0,0,1,68,138.37h0a.45.45,0,0,1-.16.12v0c-.53.41-1.08.8-1.6,1.15h0c-.61.42-1.19.79-1.65,1.13-.72.54-1.35,1.2-2,1.62l-.16.09-.23.11a2,2,0,0,1-.71.17,2.12,2.12,0,0,1-1.24-.36L60,142.3l-.1.1,0,0a2.69,2.69,0,0,1-1,.57c-.38.1-.79.16-1.24.24h0l-.06,0v-.76a2.81,2.81,0,0,1-.89.95h0a2.32,2.32,0,0,1-1.76.37c-.46-.65-.08-1.68.28-2.44a4.83,4.83,0,0,1-.63.94h0a6.2,6.2,0,0,1-.54.61,3.92,3.92,0,0,1-.31.28,2.69,2.69,0,0,1-.32.27,5.08,5.08,0,0,1-.68.46,3.07,3.07,0,0,1-.48.24,1.22,1.22,0,0,1-.24.1,2.72,2.72,0,0,1-.49.13,2.32,2.32,0,0,1-1.2-.07h0a2.13,2.13,0,0,1-.45-.23,2.93,2.93,0,0,1-1-1.05c-1.32-2.27,2.65-5.3,3.78-7.19,2.46-5.1,4.35-10.4,6.62-15.5,1.23-2.93,2.49-5.87,3.55-8.87,2-5.23,2.41-23.1,2.5-29.07a18.7,18.7,0,0,1,0-2h0c0-.33,0-.66.1-1,0,0,0,0,0,0s0-.12,0-.17,0-.21,0-.33h16.5c-.31,1.76-.89,3.59-1.36,5.3-1.32,4.54-3,8.89-4,13.62-.89,4.19-.07,5.31,1.83,6.68.92.67,2.1,1.41,3.46,2.58C85,109.72,84.7,112.44,83,115Z"/><path class="cls-1" d="M85.75,15c-4.48.73-9,1.51-13.29,2-1.64,7.2,0,14.73-1.31,22.25a49.31,49.31,0,0,0-1,19.64c.65,4.9,2.72,47.51,6.32,46.2l1.18,6c-.33-10,8.92-25.37,7.93-38-.7-8.87-4.54-13.53-.38-24.33,1.34-3.48,4.13-7,6.09-10.58s4.38-7.09,6-11A110.94,110.94,0,0,0,101.45,15Z"/><path class="cls-3" d="M96.09,113.56a11.11,11.11,0,0,0-2-2.67c-2.34-2.34-5.43-4.11-6.84-7.36a28.06,28.06,0,0,1-1.3-3.6L84.78,89.52l-1-13.35a33.21,33.21,0,0,0-.39-5v0h0a48.72,48.72,0,0,0-2-7.74c-1.31-3.6-4.91-7.2-5.89-10.47-1.31-4.26,2.29-8.84,3.6-12.76,3.37-8.6,7-16.91,10.44-25.2H61c-.75,5.19-1.45,8-1.87,14-1.25,7.42-3.18,20.16-2.9,26.36a21.77,21.77,0,0,0,.66,2.79v-.83h0c0,.3,0,.61,0,.91a36.25,36.25,0,0,0,3.4,7.82s7.93,20.6,11.51,29.51c1,2.23,1.89,4.45,2.75,6.65a42,42,0,0,1,3,18.25c0,.21,0,.42,0,.63,0,1-.15,1.91-.27,2.87,0,0,0,.07,0,.1a23.76,23.76,0,0,1-3.82,10.44h0c-.16.27-.33.53-.5.8a14.17,14.17,0,0,0-1.07,2c-1.33,3-2.12,7.27,1.56,7.61,0,0,0-.07.08,0,3,.38,3.21-2.08,4.53-3.79a6.23,6.23,0,0,1,.52-.51c1.66-1.47,3.8-2,5.16-4,2.83-4.16,2.46-9.08,6.61-12.67,1.91-1.8,4.35-3.06,5.66-4.83,1-1.34,1.35-3,.31-5.33Z"/><path class="cls-3" d="M73.32,144.94h.08C73.4,145,73.34,145,73.32,144.94Z"/><path class="cls-6" d="M74.53,102.21c-.86-2.2-1.79-4.42-2.75-6.65l-.41-1-.3-.77c-.48-1.17-1-2.46-1.52-3.84-.11-.28-.22-.57-.34-.86h0l0,0a86.56,86.56,0,0,1,2.71,9,81.78,81.78,0,0,1,2,9v.08h0a66.33,66.33,0,0,1,.59,17.15,25.81,25.81,0,0,1,3-3.14c0-.21,0-.42,0-.62A41.92,41.92,0,0,0,74.53,102.21Z"/><path class="cls-6" d="M78.22,53.9h0a8.87,8.87,0,0,1-.55-5.4c0-.18.11-.36.16-.55h0c1.7-5.74,5.38-17.84,8.08-24.29h0C83.62,29.1,81.3,34.58,79.1,40.2c-1.31,3.92-4.91,8.5-3.6,12.76,1,3.27,4.58,6.87,5.89,10.47.39,1.18.75,2.38,1.07,3.59h0A62.64,62.64,0,0,0,78.22,53.9Z"/></svg>