<svg id="ठंड" xmlns="http://www.w3.org/2000/svg" viewBox="0 0 150 160"><defs><style>.cls-1,.cls-25{fill:#fefefe;}.cls-1,.cls-10,.cls-11,.cls-12,.cls-13,.cls-14,.cls-15,.cls-16,.cls-17,.cls-18,.cls-19,.cls-2,.cls-20,.cls-21,.cls-3,.cls-4,.cls-5,.cls-6,.cls-7,.cls-8,.cls-9{stroke:#fff;stroke-miterlimit:10;stroke-width:5px;}.cls-2,.cls-23{fill:#193e49;}.cls-24,.cls-3{fill:#204a5a;}.cls-26,.cls-4{fill:#4d577a;}.cls-27,.cls-5{fill:#404a66;}.cls-28,.cls-6{fill:#419aaf;}.cls-29,.cls-7{fill:#348491;}.cls-30,.cls-8{fill:#cc9c23;}.cls-31,.cls-9{fill:#dfaf27;}.cls-10,.cls-32{fill:#c99727;}.cls-11,.cls-33{fill:#235666;}.cls-12,.cls-34{fill:#f8cf9b;}.cls-13,.cls-35{fill:#914e33;}.cls-14,.cls-36{fill:#1e5c71;}.cls-15,.cls-37{fill:#efa692;}.cls-16,.cls-38{fill:#e6a367;}.cls-17,.cls-39{fill:#cc8a54;}.cls-18,.cls-40{fill:#eaba86;}.cls-19,.cls-41{fill:#1d4751;}.cls-20,.cls-42{fill:#f2c72b;}.cls-21,.cls-43{fill:#d6ab22;}.cls-22{fill:#d3d3e2;}</style></defs><path class="cls-1" d="M56.09,34.18a4.72,4.72,0,0,0-2.78,2.65A5.17,5.17,0,0,0,53,39a4.41,4.41,0,0,1-1.54,3.57c-1.84,2-4.63,5.43-2,8a.41.41,0,0,0,.64-.5c-2-3.41,1.24-5.62,3-8.1A4.22,4.22,0,0,0,53.83,39a4.13,4.13,0,0,1,2.53-4.16c.36-.15.1-.78-.27-.63Z"/><path class="cls-1" d="M51.13,35a3.2,3.2,0,0,0-2.34,2.4,10.69,10.69,0,0,0-.21,2,2.37,2.37,0,0,1-.94,2c-.25.2-.53.36-.77.57C44.55,43.87,43,48,44.76,50.77a.27.27,0,0,0,.49-.2,9.82,9.82,0,0,1,0-5c.6-1.75,1.78-2.67,3.13-3.81,2-1.67-.06-5,2.87-6.14a.29.29,0,0,0-.15-.56Z"/><path class="cls-1" d="M95.51,36.65A2.09,2.09,0,0,1,98.28,39,6.62,6.62,0,0,0,98,40c0,.82.45,1.11,1,1.62,2.12,1.86,2.49,4.07,2.28,6.74,0,.38.51.4.62.09a6.5,6.5,0,0,0-.15-4.13,7.57,7.57,0,0,0-1.09-2c-.4-.54-1.07-.92-1.45-1.44-.85-1.19.27-2.72-.75-4.05a2.83,2.83,0,0,0-3.2-.88.38.38,0,0,0,.2.74Z"/><path class="cls-1" d="M97.54,33.28c1.35.5,3.08.87,3.78,2.3.61,1.25-.47,2.26.15,3.32.47.8,1.59,1.12,2.29,1.66,1.45,1.12,1.56,2.47,1.37,4.18,0,.27.37.36.49.14a3.62,3.62,0,0,0,0-3.18,4,4,0,0,0-1.16-1.52c-.87-.72-2.29-1-2.39-2.42,0-.51.28-1,.18-1.55a3.43,3.43,0,0,0-.67-1.43,6.17,6.17,0,0,0-3.91-2,.24.24,0,0,0-.12.46Z"/><path class="cls-2" d="M70.34,137.8c-.43,1.37-5,7.18-5.49,8.89-.13.51-.88,2.42,1.49,2.39a6.9,6.9,0,0,0,4.12-1.34A36.63,36.63,0,0,0,75.94,141c.37-1.12-.32-5.85-.49-7a1.67,1.67,0,0,0-.34-.93,1.64,1.64,0,0,0-1-.36,24.92,24.92,0,0,0-3.65-.28A15.38,15.38,0,0,1,70.34,137.8Z"/><path class="cls-3" d="M65.31,147.68c1.16,1.31,3.62-.26,4.68-1,2-1.52,3.46-3.8,4.9-5.83.07-.11-.09-.24-.18-.14-1.17,1.32-2,2.92-3.31,4.14-.94.91-4.31,3.44-5.71,2.38-.29-.23-.6.24-.38.49Z"/><path class="cls-3" d="M71.28,138.38l1.38.09a3.7,3.7,0,0,0,1.24,0,.24.24,0,0,0,0-.43,2.94,2.94,0,0,0-1.29-.15,9.6,9.6,0,0,0-1.42.11c-.21,0-.14.34,0,.35Z"/><path class="cls-3" d="M70.5,139.72a4.19,4.19,0,0,0,.46.16,1.55,1.55,0,0,0,.48,0,.18.18,0,0,0,.1-.34,1.49,1.49,0,0,0-.43-.23l-.48-.1a.25.25,0,0,0-.13.49Z"/><path class="cls-3" d="M69.49,141A4.35,4.35,0,0,0,70,141a.13.13,0,0,0,0-.26l-.47-.1c-.19,0-.28.27-.08.3Z"/><path class="cls-3" d="M68.81,142.52a2.3,2.3,0,0,1,.28.06,2.87,2.87,0,0,0,.31,0c.17,0,.36-.15.24-.32a.71.71,0,0,0-.38-.32.89.89,0,0,0-.51,0,.25.25,0,0,0,.06.5Z"/><path class="cls-3" d="M67.62,144.17a.23.23,0,0,0,0-.46.23.23,0,0,0,0,.46Z"/><path class="cls-1" d="M66.33,146.37a1.14,1.14,0,0,1,.15-.4,1,1,0,0,0,.15-.35c0-.06-.06-.13-.12-.12-.36,0-.48.52-.5.82a.16.16,0,0,0,.32.05Z"/><path class="cls-1" d="M67,145.16a.38.38,0,0,0,.21,0,.18.18,0,0,0,0-.35.3.3,0,0,0-.21,0,.19.19,0,0,0,0,.37Z"/><path class="cls-2" d="M84.05,137.8c.43,1.37,5,7.18,5.49,8.89.13.51.88,2.42-1.49,2.39a6.9,6.9,0,0,1-4.12-1.34A36.63,36.63,0,0,1,78.45,141c-.37-1.12.32-5.85.49-7a1.67,1.67,0,0,1,.34-.93,1.64,1.64,0,0,1,1-.36,25,25,0,0,1,3.65-.28A15.38,15.38,0,0,0,84.05,137.8Z"/><path class="cls-3" d="M88.7,147.19c-1.4,1.06-4.78-1.47-5.71-2.38-1.27-1.23-2.14-2.82-3.31-4.14-.08-.1-.25,0-.18.14,1.44,2,2.89,4.31,4.91,5.83,1,.79,3.51,2.35,4.67,1,.22-.25-.08-.72-.38-.49Z"/><path class="cls-3" d="M83.15,138a9.6,9.6,0,0,0-1.42-.11,2.94,2.94,0,0,0-1.29.15.24.24,0,0,0,0,.43,3.7,3.7,0,0,0,1.24,0l1.38-.09c.18,0,.26-.31,0-.35Z"/><path class="cls-3" d="M83.76,139.23l-.48.1a1.32,1.32,0,0,0-.42.23.18.18,0,0,0,.09.34,1.29,1.29,0,0,0,.48,0,3.57,3.57,0,0,0,.46-.16.25.25,0,0,0-.13-.49Z"/><path class="cls-3" d="M84.82,140.68l-.47.1a.13.13,0,0,0,0,.26,4.35,4.35,0,0,0,.52-.06c.2,0,.11-.33-.08-.3Z"/><path class="cls-3" d="M85.64,142a.86.86,0,0,0-.5,0,.73.73,0,0,0-.39.32c-.12.17.07.35.24.32a2.87,2.87,0,0,0,.31,0,2.3,2.3,0,0,1,.28-.06.26.26,0,0,0,.06-.5Z"/><path class="cls-3" d="M86.77,144.17a.23.23,0,0,0,0-.46.23.23,0,0,0,0,.46Z"/><path class="cls-1" d="M88.38,146.32c0-.3-.14-.78-.5-.82-.06,0-.12.06-.12.12a1,1,0,0,0,.15.35,1.14,1.14,0,0,1,.15.4.16.16,0,0,0,.32-.05Z"/><path class="cls-1" d="M87.38,144.79a.27.27,0,0,0-.2,0,.18.18,0,0,0,0,.35.34.34,0,0,0,.2,0,.19.19,0,0,0,0-.37Z"/><path class="cls-4" d="M70.27,135.88c.1.66,3.21,1.48,5.56.54a.76.76,0,0,0,.47-.74C76,128.84,75.41,98,75,90.31c.58,0,3.4.06,4,0,.59,10.76-.52,34.59-.74,45.5,0,1.95,5.84.73,6,.12,2-8.57,7.86-53,7.19-58.87-4.11,2.19-12,1.77-16.63,1.52-3.89-.21-9.27.12-13.15-.17C61.42,81,69.3,129.79,70.27,135.88Z"/><path class="cls-5" d="M69.27,87.37c.69.45,1.37.89,2.07,1.31a7.88,7.88,0,0,0,2,1,.13.13,0,0,0,.12-.21,9.3,9.3,0,0,0-1.89-1.16c-.7-.41-1.41-.82-2.1-1.24a.16.16,0,0,0-.17.27Z"/><path class="cls-5" d="M68.94,88.78a34.84,34.84,0,0,0,3.82,1.51c.17,0,.29-.21.12-.29A36.77,36.77,0,0,0,69,88.52c-.16-.06-.23.19-.07.26Z"/><path class="cls-5" d="M70.17,91c.8,0,1.59.11,2.38.09a.16.16,0,0,0,0-.31,5.65,5.65,0,0,0-2.42-.15c-.24,0-.24.38,0,.37Z"/><path class="cls-5" d="M81.16,90.46a11.26,11.26,0,0,0,3.74-.64.12.12,0,0,0-.06-.22c-1.23.08-2.45.45-3.68.57-.18,0-.19.3,0,.29Z"/><path class="cls-5" d="M81.76,91.35A6.11,6.11,0,0,1,83,91.26a9.86,9.86,0,0,0,1.07.09c.13,0,.2-.19.07-.25a3.81,3.81,0,0,0-2.43,0c-.19,0-.11.33.08.29Z"/><path class="cls-5" d="M82.2,92.24c.4,0,.8,0,1.2.08a3.51,3.51,0,0,0,1.07.07.15.15,0,0,0,0-.27,2.17,2.17,0,0,0-1-.19c-.43,0-.86,0-1.29,0a.18.18,0,0,0,0,.35Z"/><path class="cls-5" d="M76.1,86c0,.63,0,1.27,0,1.91a3.81,3.81,0,0,0,.1,1.22c.11.24.29.26.52.3a2.8,2.8,0,0,0,1.46-.13.14.14,0,0,0,0-.24,1.55,1.55,0,0,0-.77-.12,1.88,1.88,0,0,1-.58,0c-.22-.09-.21-.29-.24-.55-.09-.79-.1-1.6-.13-2.39a.2.2,0,1,0-.39,0Z"/><path class="cls-5" d="M70.85,134.65c1.13.44,2.82,1.13,4,.35a.12.12,0,0,0-.09-.22,5,5,0,0,1-2,.13,9.74,9.74,0,0,1-1.76-.56c-.19-.07-.27.23-.09.3Z"/><path class="cls-5" d="M79.61,134.66a4.79,4.79,0,0,0,3.17-.18c.21-.1.06-.42-.15-.37a6.86,6.86,0,0,1-2.92.21c-.22,0-.32.28-.1.34Z"/><path class="cls-5" d="M68.26,112.78a3.6,3.6,0,0,0,2,1.27c.37.08,1.25.1,1.05-.53a.16.16,0,0,0-.31,0c-.12.38-1.22-.1-1.41-.2a3.56,3.56,0,0,1-1-.81c-.17-.19-.42.08-.27.27Z"/><path class="cls-5" d="M82.58,112.25c.6,1.16,2.35,2,3.52,1.14A.2.2,0,0,0,86,113a2.53,2.53,0,0,1-3-1c-.14-.24-.5,0-.37.22Z"/><path class="cls-6" d="M60.56,78.9a34.93,34.93,0,0,0,1.08,4.62c.71,1.26,5.34,3,14.69,3.13s14-1.53,15.15-3c.72-.95.36-6.32.36-6.32S83.34,83.31,60.56,78.9Z"/><path class="cls-7" d="M63.48,83.79a8.72,8.72,0,0,0-.19-1.23A1.81,1.81,0,0,0,63,81.49a.21.21,0,0,0-.34.09,1.72,1.72,0,0,0,.14,1,12.22,12.22,0,0,0,.35,1.22c.07.18.39.18.37,0Z"/><path class="cls-7" d="M66.05,84.42a3.32,3.32,0,0,0-.25-2.09.18.18,0,0,0-.33.09,4.64,4.64,0,0,0,.13.91,6.67,6.67,0,0,1,.08,1.09c0,.25.35.24.37,0Z"/><path class="cls-7" d="M71.86,85.46a7.79,7.79,0,0,0,0-1.08,1.2,1.2,0,0,0-.22-.81.19.19,0,0,0-.3,0,1.47,1.47,0,0,0,0,.83c0,.34,0,.68,0,1s.5.33.52,0Z"/><path class="cls-7" d="M74.75,85.7A4.24,4.24,0,0,0,74.69,84a.23.23,0,0,0-.44,0,4.24,4.24,0,0,0-.06,1.74.28.28,0,0,0,.56,0Z"/><path class="cls-7" d="M77.26,85.78c0-.36,0-.72,0-1.08s.06-.57-.14-.82a.2.2,0,0,0-.3,0c-.2.25-.14.51-.14.82s0,.72,0,1.08a.24.24,0,0,0,.48,0Z"/><path class="cls-7" d="M80.3,85.78l.08-1.24a1.76,1.76,0,0,0-.07-1,.21.21,0,0,0-.35,0,1.83,1.83,0,0,0-.14,1l0,1.24c0,.33.5.33.52,0Z"/><path class="cls-7" d="M83,85.77c.08-.44.16-.87.23-1.31a1.69,1.69,0,0,0,0-1,.22.22,0,0,0-.35,0,1.66,1.66,0,0,0-.26,1c-.06.45-.09.89-.13,1.33,0,.28.44.35.5.07Z"/><path class="cls-7" d="M85.57,85.28c.09-.39.14-.79.19-1.18a2.19,2.19,0,0,0,0-1.08.17.17,0,0,0-.31,0,2.14,2.14,0,0,0-.21,1,10.37,10.37,0,0,0,0,1.25.19.19,0,0,0,.38,0Z"/><path class="cls-7" d="M88.21,84.34a5.81,5.81,0,0,1,.07-1.1,1.8,1.8,0,0,0,.06-.86A.19.19,0,0,0,88,82.3c-.45.47-.28,1.5-.19,2.09,0,.21.37.16.37,0Z"/><path class="cls-7" d="M90.44,83.82c.28-.21.26-.6.32-.92a3.79,3.79,0,0,0,.08-1.16.21.21,0,0,0-.38,0,3.36,3.36,0,0,0-.23,1.14c0,.33-.16.69.06,1a.12.12,0,0,0,.15,0Z"/><path class="cls-7" d="M69,85.3A8.44,8.44,0,0,0,69,84a1.29,1.29,0,0,0-.29-.92.14.14,0,0,0-.22,0,1.55,1.55,0,0,0,0,.93,9.28,9.28,0,0,1,0,1.29c0,.31.47.31.49,0Z"/><path class="cls-2" d="M59.92,62.92c.64,9.5-2.19,15.94,1.7,17.57.38.16,18,5.74,29.74-.53,3.15-1.27.39-8.39.16-17.49-.32-12.62-3.86-24-4.2-24.37C86.07,36.63,66.05,38,65,38.1,60.48,38.61,59.6,58.14,59.92,62.92Z"/><path class="cls-8" d="M82.14,53.18a8.45,8.45,0,0,1-6.89,2.41,27.54,27.54,0,0,0-2.42-13.21,9.32,9.32,0,0,0,4.36-.13c.25-.07,2.33,4.69,2.55,5.17Q81,50.26,82.14,53.18Z"/><path class="cls-9" d="M70.31,57.61C68.08,64,65,73.77,66.13,74.75c3.71,2.09,7.28.75,11.26,2.26,2.09.45-.32-8.09.14-18.16a35.15,35.15,0,0,0-3-17c-4.77-1.65-4.76-1.89-4.18.84C71.28,47.19,71.43,54.42,70.31,57.61Z"/><path class="cls-10" d="M72.68,47.2a21.55,21.55,0,0,1,.35,6,.09.09,0,0,0,.17,0,13.56,13.56,0,0,0-.42-6.1c0-.07-.12,0-.1,0Z"/><path class="cls-10" d="M74.28,48a12.33,12.33,0,0,1,.62,3.13c.07.94-.09,1.86-.07,2.8a.17.17,0,0,0,.33,0c.6-1.91,0-4.24-.69-6,0-.11-.22-.06-.19.05Z"/><path class="cls-10" d="M70.17,67.91a14.79,14.79,0,0,0-1.07,4.81.2.2,0,0,0,.4,0c.36-1.59.5-3.21.9-4.8a.12.12,0,0,0-.23-.06Z"/><path class="cls-10" d="M73.25,67.35a19.16,19.16,0,0,0-.65,5.93.13.13,0,0,0,.26,0c.22-2,.3-3.92.57-5.88,0-.11-.15-.17-.18-.05Z"/><path class="cls-10" d="M67,73.79c-.11.34-.19,1,.22,1.17a.24.24,0,0,0,.31-.09c.16-.3,0-.69,0-1a.26.26,0,0,0-.5-.06Z"/><path class="cls-10" d="M68.12,74.16a1.14,1.14,0,0,0,.16,1,.29.29,0,0,0,.47-.28c0-.12-.09-.22-.12-.34a1,1,0,0,1,0-.34c0-.3-.45-.35-.51-.07Z"/><path class="cls-10" d="M69.3,74.65c0,.3.09.67.42.75a.29.29,0,0,0,.32-.13,1.3,1.3,0,0,0,0-.62.4.4,0,0,0-.79,0Z"/><path class="cls-10" d="M71,74.65a.84.84,0,0,0,.26.83.22.22,0,0,0,.33-.13,4.11,4.11,0,0,0,0-.7.28.28,0,1,0-.55,0Z"/><path class="cls-10" d="M72.61,75a.61.61,0,0,0,.19.42.26.26,0,0,0,.41-.06.72.72,0,0,0,0-.54.34.34,0,0,0-.41-.23.34.34,0,0,0-.23.41Z"/><path class="cls-10" d="M74.05,75c.13.24.36.79.72.58s0-.7-.08-1c-.2-.42-.86,0-.64.37Z"/><path class="cls-10" d="M76,75.33a2.35,2.35,0,0,0,.11.35.55.55,0,0,0,.26.26.27.27,0,0,0,.37-.09.59.59,0,0,0,.08-.37,2,2,0,0,0-.12-.34.36.36,0,1,0-.7.19Z"/><path class="cls-3" d="M97,65.78c-.62.88-3.27,3.4-9.46,2.85-5.48-.47-14.29-5-19-7.47a27.83,27.83,0,0,1-3.11-1.78,2.91,2.91,0,0,1,.31-2.66c.57-1.2,1.14-2.31,2.46-2.52A22.2,22.2,0,0,1,71,55c4.67,1.42,13.17,4.14,18.28,3.84-2.06-4.8-2.07-6.31-3.71-12.05a53.93,53.93,0,0,1-1.33-7.33c-.08-3.89,6.12-3.29,7.68-1.76s2.8,5.12,3.48,7.07C99.28,55.81,99.22,62.7,97,65.78Z"/><path class="cls-6" d="M71,55a22.2,22.2,0,0,0-2.75-.77c-1.32.21-1.89,1.32-2.46,2.52a2.91,2.91,0,0,0-.31,2.66,27.83,27.83,0,0,0,3.11,1.78,7.41,7.41,0,0,0,2.25-2.71A4.12,4.12,0,0,0,71,55Z"/><path class="cls-7" d="M69,55.79a2.8,2.8,0,0,0,1.17.28c.13,0,.24-.18.12-.28a2.92,2.92,0,0,0-1.17-.44.23.23,0,0,0-.12.44Z"/><path class="cls-7" d="M68.7,57.13a4,4,0,0,0,1.3.56.18.18,0,0,0,.12-.3,3.64,3.64,0,0,0-1.26-.63c-.22-.09-.36.26-.16.37Z"/><path class="cls-7" d="M68.42,58.49c.13,0,.25.06.38,0A.28.28,0,0,0,69,58.3c0-.38-.44-.42-.69-.35s-.24.56.08.54Z"/><path class="cls-11" d="M85.48,61.79a8.88,8.88,0,0,1-1.51.68c-2.74,1.1-8.22,3-8.83,3.2-5.09,1.44-9.31,2.77-14.58,3.21-1.48.13-1.2.29-2.61-.17-5.83-1.9-3.33-15.46-1.76-22.37C57,43,58.09,40,59.52,38.9c1.64-1.32,5.93-2.61,7-1.23s.23,4.94,0,6.65c-.86,6.63-1.56,9.56-2.6,15.39C67.71,59,77.05,57.32,82,56.36l1.54-.3C86.31,55.51,86.79,60.73,85.48,61.79Z"/><path class="cls-6" d="M85.48,61.79a8.88,8.88,0,0,1-1.51.68c-.13-.15-2.17.33-2.54-3.22-.06-.53-.27-2.11.58-2.89l1.54-.3C86.31,55.51,86.79,60.73,85.48,61.79Z"/><path class="cls-7" d="M82.35,57.5a3.39,3.39,0,0,1,.55-.13,1.27,1.27,0,0,0,.51-.12.19.19,0,0,0,0-.32c-.33-.19-.86,0-1.19.1a.24.24,0,0,0,.13.47Z"/><path class="cls-7" d="M82.26,59l.65-.12a1,1,0,0,0,.58-.19.25.25,0,0,0-.11-.41,1.16,1.16,0,0,0-.61.07l-.64.16c-.32.07-.18.54.13.49Z"/><path class="cls-7" d="M82.83,60.85a2.93,2.93,0,0,0,1-.39c.17-.12.13-.43-.11-.42a1.59,1.59,0,0,0-.53.08l-.5.21a.27.27,0,0,0,.15.52Z"/><path class="cls-7" d="M83.77,62c.27-.05.58-.17.64-.47a.22.22,0,0,0-.15-.27c-.29-.1-.55.11-.74.31a.26.26,0,0,0,.25.43Z"/><path class="cls-12" d="M86,54.6a1.57,1.57,0,0,1,.33-.3,11.51,11.51,0,0,1,3.36-1.59c1.08,0,.54,1.27-.43,1.79-.44.29-.45.71-.77,1,.75.18,3.29-1.16,4-1.47.93-.41,2.65-.93,2.68,0s-3.51,2.09-3.48,2.46,2.29-.26,3.16-.37,2.2-.41,2.2.29c0,.94-2.54,1.3-4.46,2,.72,0,2.16-.12,2.88-.13a1.22,1.22,0,0,1,1.13.45c.6,1-2.77,1.24-3.64,1.24a6.08,6.08,0,0,0,2.43.36c.88,0,1.27.83-.54,1.22a59.65,59.65,0,0,1-9.19-.69c-.95-.44-1.6-2.69-1.34-3.92.09-.45.78-.45,1-.83C85.64,55.52,85.64,55.12,86,54.6Z"/><path class="cls-12" d="M65.76,34.34c.26.79,6.88,6.5,10.52,6.42,2.18,0,9.08-4.16,9.29-7.46A98.31,98.31,0,0,0,85,20.93a9.19,9.19,0,0,0-1.65-4.47c-1.35-1.57-3.55-2-5.59-2.39-2.49-.43-5.11-.82-7.5,0C63.5,16.41,65.49,33.5,65.76,34.34Z"/><path class="cls-13" d="M64.33,26c.58,2.62,2.33,3.12,2.33,2.5,0-3.21.87-8.38,3.28-9.44a11.84,11.84,0,0,1,4.75-.82,33.37,33.37,0,0,1,3.73.35c1.43.21,3,.59,3.86,1.75.57.76,1.38,6.43,1.49,7.73.07.95,1-.72,2.29-1.68.8-2.2-1.29-6.84-2.89-8.55C79.74,14.18,70,16.34,69,16.6,64.92,17.77,63.24,22.11,64.33,26Z"/><path class="cls-6" d="M68,12.67c.63-.48,2.89-1.8,3.34-2.47.23-.36.39-.77.63-1.12a2.44,2.44,0,0,1,3.71-.23,10.32,10.32,0,0,0,.73.88c.41.36,2.89,1.45,3.35,1.71,3,1.75,5.4,3.17,5,8-6-3.72-20.13,1.19-20.13,1.19C63.45,16.11,66.48,13.77,68,12.67Z"/><path class="cls-14" d="M71.39,21.54c5.42-1.11,10.21-.69,14.24,1.32.69-.21.48-4.06-1-5.41s-6-2-9.91-1.72C70.48,16.06,64.48,18.32,64,19c-.87,1.34-.58,4.94,0,5.2C65,24,68.26,22.17,71.39,21.54Z"/><path class="cls-12" d="M63.93,25c-.62-.1-1.16.53-1.4,1.11A3.33,3.33,0,0,0,62.42,28,3.83,3.83,0,0,0,64.78,31a1,1,0,0,0,1-.11,1.14,1.14,0,0,0,.27-.51C66.46,29.1,65.34,25.23,63.93,25Z"/><path class="cls-12" d="M86.66,24.1c.57-.25,1.16.53,1.4,1.11a3.32,3.32,0,0,1,.1,1.85,3.86,3.86,0,0,1-2.36,3.08,1,1,0,0,1-1-.12,1,1,0,0,1-.27-.5C84.13,28.2,84.48,25,86.66,24.1Z"/><path class="cls-13" d="M69.66,25.38c1.55.21,4,0,4.83-1.55.3-.53-.45-1.17-.88-.68a4.59,4.59,0,0,1-4,1.45c-.51,0-.48.71,0,.78Z"/><path class="cls-13" d="M81.22,24.24a7,7,0,0,1-2.36-.43,16.14,16.14,0,0,1-1.61-1.08.41.41,0,0,0-.59.46c.39,1.7,3.2,1.88,4.56,1.84a.4.4,0,0,0,0-.79Z"/><path class="cls-1" d="M78.52,34.58C78.14,33.23,76,33.05,75,33.34s-1.73,2.22-1,2.46c1,.35,2.1-1,3.06-.45C77.82,35.78,79.1,36.61,78.52,34.58Z"/><path class="cls-1" d="M68.37,24.78a3.71,3.71,0,0,0-.08-1.63.28.28,0,0,0-.49,0,3.71,3.71,0,0,0-.08,1.63.33.33,0,0,0,.65,0Z"/><path class="cls-1" d="M68.32,26.9l0-.32a.47.47,0,0,0-.14-.37l.09.15a.69.69,0,0,0-.15-.28.27.27,0,0,0-.37,0,.69.69,0,0,0-.15.28l.09-.15a.48.48,0,0,0-.14.37l0,.32a.36.36,0,0,0,.71,0Z"/><path class="cls-15" d="M68.26,32a8,8,0,0,0,2.59,0,.9.9,0,0,0,0-1.72,8,8,0,0,0-2.59,0,.89.89,0,0,0,0,1.78Z"/><path class="cls-15" d="M80.43,31.61a3.84,3.84,0,0,0,2.73-.1,1.06,1.06,0,0,0-.53-2c-.33,0-.64.11-1,.14s-.65,0-1,0a1,1,0,0,0-.26,1.88Z"/><path class="cls-16" d="M75.51,26.16a14.75,14.75,0,0,0,1.07,3.48c.19.44.54.9.4,1.37s-1,.62-1.55.91c-.16.09-.16.41.06.44.74.1,2.34-.33,2.44-1.24.07-.54-.8-1.8-1-2.24-.38-.94-.65-1.9-1-2.85a.23.23,0,0,0-.45.13Z"/><path class="cls-17" d="M69.79,27.49a2.64,2.64,0,0,0,3.62,0l-.3-.08c.1.72-1.18,1.14-1.63,1.51-.16.13,0,.34.19.31.87-.13,2-.94,1.79-1.91a.17.17,0,0,0-.22-.13,3.41,3.41,0,0,1-3.18-.06.22.22,0,0,0-.27.35Z"/><path class="cls-17" d="M81,26.35a2.58,2.58,0,0,1-1.43.82,3.4,3.4,0,0,1-1.29-.32c-.26-.1-.43.22-.33.43a2.9,2.9,0,0,0,2.22,1.44.12.12,0,0,0,.06-.22c-.31-.17-.65-.27-1-.45a2.14,2.14,0,0,1-.54-.41,1.26,1.26,0,0,1-.26-.59l-.43.33a3.25,3.25,0,0,0,1.7.34,3.35,3.35,0,0,0,1.61-1c.24-.23-.12-.58-.36-.36Z"/><path class="cls-18" d="M64.45,26.5c-.65-.3-1.19-.1-1.24.66a3.21,3.21,0,0,0,1,2.52c.12.1.37,0,.3-.18a11.51,11.51,0,0,1-.78-1.8,1.92,1.92,0,0,1-.05-.63c.05-.38.3-.32.6-.19s.37-.28.16-.38Z"/><path class="cls-18" d="M65.19,28.67c-.5.43-.33,1.72.47,1.65a.2.2,0,0,0,.17-.3c-.22-.35-.44-.61-.23-1a.26.26,0,0,0-.41-.32Z"/><path class="cls-18" d="M85.2,28.14c.27.05.35.31.31.56a1.31,1.31,0,0,0-.09.65.22.22,0,0,0,.31.13.73.73,0,0,0,.3-.55,1.23,1.23,0,0,0,0-.57.77.77,0,0,0-.76-.55c-.17,0-.24.3,0,.33Z"/><path class="cls-18" d="M86.19,26.21a.5.5,0,0,1,.53-.33,1.43,1.43,0,0,1,.11.39,2.5,2.5,0,0,1,0,.67,8.76,8.76,0,0,1-.29,1.35c0,.16.17.32.29.17a2.83,2.83,0,0,0,.3-2.62c-.31-.79-1.05-.43-1.34.16-.11.24.23.44.35.21Z"/><path class="cls-18" d="M75.82,36.68c.49-.37.92-.13,1.43,0a.16.16,0,0,0,.2-.2c-.27-.79-1.4-.65-1.92-.22-.21.17.07.55.29.38Z"/><path class="cls-14" d="M70.92,8.49c-.06,1.72,3.1,2,4.5,1.26a1.74,1.74,0,0,0,.13-3,3.26,3.26,0,0,0-3.22-.09A2.31,2.31,0,0,0,70.92,8.49Z"/><path class="cls-19" d="M73.22,7.93c.44-.21.91.15,1.28.37a.22.22,0,0,0,.33-.19c0-1-1.3-1.2-2-.84-.43.23,0,.86.39.66Z"/><path class="cls-19" d="M73.83,9.43a.69.69,0,0,0,.52-.26.24.24,0,0,0,0-.23.66.66,0,0,0-.52-.26c-.2,0-.37.19-.37.37s.17.41.37.38Z"/><path class="cls-7" d="M68.09,16.22A2.61,2.61,0,0,1,69,14.43c.38-.33.88-.45,1.28-.74a2.58,2.58,0,0,0,1.11-1.86.17.17,0,0,0-.3-.12c-.41.36-.5.93-.89,1.32a12.29,12.29,0,0,1-1.39.85,2.91,2.91,0,0,0-1.17,2.34c0,.32.46.31.48,0Z"/><path class="cls-7" d="M72,15.62c.31-.75,1-1.27,1.29-2a2.82,2.82,0,0,0,.23-1.87.14.14,0,0,0-.26,0,6,6,0,0,1-.6,2.27,7.82,7.82,0,0,0-.92,1.55c0,.16.2.22.26.07Z"/><path class="cls-7" d="M75.83,14.94a2.43,2.43,0,0,0,0-1.62c-.09-.29-.23-.56-.32-.85s-.12-.72-.25-1.07a.15.15,0,0,0-.28,0c-.57,1.08.94,2.32.65,3.5a.13.13,0,0,0,.24.07Z"/><path class="cls-7" d="M76.31,11.33a7.14,7.14,0,0,0,2,1.91,13,13,0,0,1,1.3,1,14.33,14.33,0,0,1,.92,1.14c.17.2.44,0,.4-.23a3.75,3.75,0,0,0-1.68-2,15.24,15.24,0,0,1-2.59-2.08.22.22,0,0,0-.35.26Z"/><path class="cls-19" d="M65.92,22.2c0-.47,0-1,0-1.44A11.57,11.57,0,0,0,66,19.32c0-.14-.23-.25-.31-.08a4.74,4.74,0,0,0,0,3,.15.15,0,0,0,.3,0Z"/><path class="cls-19" d="M68.42,21.08a15.72,15.72,0,0,0,0-2.91c0-.16-.27-.14-.31,0a8.36,8.36,0,0,0,0,2.91.16.16,0,0,0,.31,0Z"/><path class="cls-19" d="M70.87,20.45a7.57,7.57,0,0,0-.1-2.13.21.21,0,0,0-.4,0,7.27,7.27,0,0,0,.08,2.13c0,.26.42.27.42,0Z"/><path class="cls-19" d="M73.17,20A15,15,0,0,0,73,17.46c0-.15-.25-.11-.26,0A15.84,15.84,0,0,0,73,20c0,.13.23.14.22,0Z"/><path class="cls-19" d="M75.44,19.57V18.28a3.06,3.06,0,0,0-.07-1.13.1.1,0,0,0-.2,0,2.86,2.86,0,0,0-.07,1.13v1.29a.17.17,0,0,0,.34,0Z"/><path class="cls-19" d="M77.82,19.65a4.82,4.82,0,0,0-.08-2.33.19.19,0,0,0-.35.05,3.26,3.26,0,0,0,0,1.08c0,.4.06.8.08,1.2a.17.17,0,0,0,.33,0Z"/><path class="cls-19" d="M80.45,20.13c0-.49,0-1,0-1.47a2.38,2.38,0,0,0-.17-1.16.16.16,0,0,0-.29,0,2.75,2.75,0,0,0,0,1.21c.05.46.12.92.18,1.38,0,.17.28.18.28,0Z"/><path class="cls-19" d="M82.91,20.69a5.43,5.43,0,0,0-.41-2.94c0-.08-.21-.09-.22,0A4,4,0,0,0,82.4,19a12.53,12.53,0,0,1,.18,1.73.17.17,0,0,0,.33,0Z"/><path class="cls-19" d="M85.07,21.32a4.15,4.15,0,0,0-.74-2.78c-.07-.09-.23,0-.2.12a11,11,0,0,1,.65,2.66.15.15,0,0,0,.29,0Z"/><path class="cls-18" d="M75.57,24.91a3.52,3.52,0,0,0-.1-1.71.23.23,0,0,0-.4,0,3.4,3.4,0,0,0-.1,1.71.3.3,0,0,0,.6,0Z"/><path class="cls-18" d="M76.43,25a5.16,5.16,0,0,0-.28-1.66c-.06-.13-.23,0-.24.07A5.09,5.09,0,0,0,76.16,25c0,.15.29.12.27,0Z"/><path class="cls-20" d="M64.24,33.43c-.67.85.2,3,.1,3.68S63,38.64,64,40c2.47,3.14,6.35,4,10.33,4.29,4.5.35,9.71-.89,12.73-4.23a3,3,0,0,0,1-2.23c-.1-.86-.87-1.51-1-2.36s.43-1.9,0-2.6a1.1,1.1,0,0,0-1.5-.61c-.72.21-3.07,2.73-3.69,3.16-2.83,2-7.21,1.76-10.54.88C69.58,35.79,65.66,31.63,64.24,33.43Z"/><path class="cls-21" d="M66.43,35c-.68.21-.79,1-.74,1.65a12.54,12.54,0,0,0,.23,1.25,3.62,3.62,0,0,1-.44,2.07c-.08.21.2.32.35.2,1.57-1.33-.3-3.35.86-4.72a.27.27,0,0,0-.26-.45Z"/><path class="cls-21" d="M69,37.06c-.63,0-.69.76-.68,1.27s.2.88.24,1.34a9.47,9.47,0,0,1-.24,1.67c0,.13.19.17.25.06a3.34,3.34,0,0,0,.42-1.73c0-.27-.1-.51-.14-.77s-.1-1.29.22-1.34.21-.52-.07-.5Z"/><path class="cls-21" d="M72.34,37.78a2,2,0,0,0-.54,1.54,3.61,3.61,0,0,0,.28.8,2.86,2.86,0,0,1,.24,1.15c0,.28-.19.6-.24.89a.1.1,0,0,0,.18.08,2.63,2.63,0,0,0,.41-1.81c-.11-.88-.52-1.51,0-2.36.14-.22-.21-.5-.38-.29Z"/><path class="cls-21" d="M76,38.53a1.79,1.79,0,0,0-.63,1.61,4.4,4.4,0,0,0,.35,1.06,3.07,3.07,0,0,1,.22,1.47.16.16,0,0,0,.3.08c.82-1.35-1.39-2.66,0-4,.15-.14-.07-.36-.23-.22Z"/><path class="cls-21" d="M78.84,38.54a2.57,2.57,0,0,0-.13,1.73,4.74,4.74,0,0,0,.3.79,4,4,0,0,1,.38,1.61c0,.2.33.34.42.11a1.9,1.9,0,0,0-.07-1.58,9.67,9.67,0,0,1-.47-1.09,6.57,6.57,0,0,1-.09-1.47c0-.17-.26-.27-.34-.1Z"/><path class="cls-21" d="M81.64,37.77c.73.45-.11,1.43,0,2.13a2.54,2.54,0,0,0,.75,1.48c.1.11.32,0,.26-.15a5.21,5.21,0,0,1-.51-1.36c0-.53.27-.83.35-1.31a1.11,1.11,0,0,0-.6-1.16.21.21,0,0,0-.21.37Z"/><path class="cls-21" d="M84.13,35.54A1.61,1.61,0,0,1,85,37.19a6.85,6.85,0,0,0-.22,1.13,3.18,3.18,0,0,0,.73,1.84c.14.18.42,0,.36-.2a4.32,4.32,0,0,1-.49-2.07,4.34,4.34,0,0,0,.25-1.29,2.2,2.2,0,0,0-1.28-1.52c-.26-.11-.44.33-.19.46Z"/><path class="cls-12" d="M66.53,52.85a1.22,1.22,0,0,0-.34-.3A11.61,11.61,0,0,0,62.84,51c-1.08,0-.54,1.28.43,1.79.44.29.45.72.77,1-.75.18-3.29-1.16-4-1.47-.93-.41-2.65-.93-2.68,0s3.51,2.1,3.48,2.46-2.29-.26-3.16-.36-2.21-.41-2.21.29c0,.93,2.55,1.29,4.47,2-.72,0-2.17-.13-2.89-.14a1.24,1.24,0,0,0-1.12.46c-.6,1,2.76,1.24,3.64,1.24a5.91,5.91,0,0,1-2.43.35c-.88,0-1.27.84.54,1.23a54,54,0,0,0,8.75-.69,4.61,4.61,0,0,0,1.78-3.92c-.09-.45-.79-.45-1-.83C66.87,53.77,66.87,53.36,66.53,52.85Z"/><path class="cls-22" d="M56.09,34.18a4.72,4.72,0,0,0-2.78,2.65A5.17,5.17,0,0,0,53,39a4.41,4.41,0,0,1-1.54,3.57c-1.84,2-4.63,5.43-2,8a.41.41,0,0,0,.64-.5c-2-3.41,1.24-5.62,3-8.1A4.22,4.22,0,0,0,53.83,39a4.13,4.13,0,0,1,2.53-4.16c.36-.15.1-.78-.27-.63Z"/><path class="cls-22" d="M51.13,35a3.2,3.2,0,0,0-2.34,2.4,10.69,10.69,0,0,0-.21,2,2.37,2.37,0,0,1-.94,2c-.25.2-.53.36-.77.57C44.55,43.87,43,48,44.76,50.77a.27.27,0,0,0,.49-.2,9.82,9.82,0,0,1,0-5c.6-1.75,1.78-2.67,3.13-3.81,2-1.67-.06-5,2.87-6.14a.29.29,0,0,0-.15-.56Z"/><path class="cls-22" d="M95.51,36.65A2.09,2.09,0,0,1,98.28,39,6.62,6.62,0,0,0,98,40c0,.82.45,1.11,1,1.62,2.12,1.86,2.49,4.07,2.28,6.74,0,.38.51.4.62.09a6.5,6.5,0,0,0-.15-4.13,7.57,7.57,0,0,0-1.09-2c-.4-.54-1.07-.92-1.45-1.44-.85-1.19.27-2.72-.75-4.05a2.83,2.83,0,0,0-3.2-.88.38.38,0,0,0,.2.74Z"/><path class="cls-22" d="M97.54,33.28c1.35.5,3.08.87,3.78,2.3.61,1.25-.47,2.26.15,3.32.47.8,1.59,1.12,2.29,1.66,1.45,1.12,1.56,2.47,1.37,4.18,0,.27.37.36.49.14a3.62,3.62,0,0,0,0-3.18,4,4,0,0,0-1.16-1.52c-.87-.72-2.29-1-2.39-2.42,0-.51.28-1,.18-1.55a3.43,3.43,0,0,0-.67-1.43,6.17,6.17,0,0,0-3.91-2,.24.24,0,0,0-.12.46Z"/><path class="cls-23" d="M70.34,137.8c-.43,1.37-5,7.18-5.49,8.89-.13.51-.88,2.42,1.49,2.39a6.9,6.9,0,0,0,4.12-1.34A36.63,36.63,0,0,0,75.94,141c.37-1.12-.32-5.85-.49-7a1.67,1.67,0,0,0-.34-.93,1.64,1.64,0,0,0-1-.36,24.92,24.92,0,0,0-3.65-.28A15.38,15.38,0,0,1,70.34,137.8Z"/><path class="cls-24" d="M65.31,147.68c1.16,1.31,3.62-.26,4.68-1,2-1.52,3.46-3.8,4.9-5.83.07-.11-.09-.24-.18-.14-1.17,1.32-2,2.92-3.31,4.14-.94.91-4.31,3.44-5.71,2.38-.29-.23-.6.24-.38.49Z"/><path class="cls-24" d="M71.28,138.38l1.38.09a3.7,3.7,0,0,0,1.24,0,.24.24,0,0,0,0-.43,2.94,2.94,0,0,0-1.29-.15,9.6,9.6,0,0,0-1.42.11c-.21,0-.14.34,0,.35Z"/><path class="cls-24" d="M70.5,139.72a4.19,4.19,0,0,0,.46.16,1.55,1.55,0,0,0,.48,0,.18.18,0,0,0,.1-.34,1.49,1.49,0,0,0-.43-.23l-.48-.1a.25.25,0,0,0-.13.49Z"/><path class="cls-24" d="M69.49,141A4.35,4.35,0,0,0,70,141a.13.13,0,0,0,0-.26l-.47-.1c-.19,0-.28.27-.08.3Z"/><path class="cls-24" d="M68.81,142.52a2.3,2.3,0,0,1,.28.06,2.87,2.87,0,0,0,.31,0c.17,0,.36-.15.24-.32a.71.71,0,0,0-.38-.32.89.89,0,0,0-.51,0,.25.25,0,0,0,.06.5Z"/><path class="cls-24" d="M67.62,144.17a.23.23,0,0,0,0-.46.23.23,0,0,0,0,.46Z"/><path class="cls-25" d="M66.33,146.37a1.14,1.14,0,0,1,.15-.4,1,1,0,0,0,.15-.35c0-.06-.06-.13-.12-.12-.36,0-.48.52-.5.82a.16.16,0,0,0,.32.05Z"/><path class="cls-25" d="M67,145.16a.38.38,0,0,0,.21,0,.18.18,0,0,0,0-.35.3.3,0,0,0-.21,0,.19.19,0,0,0,0,.37Z"/><path class="cls-23" d="M84.05,137.8c.43,1.37,5,7.18,5.49,8.89.13.51.88,2.42-1.49,2.39a6.9,6.9,0,0,1-4.12-1.34A36.63,36.63,0,0,1,78.45,141c-.37-1.12.32-5.85.49-7a1.67,1.67,0,0,1,.34-.93,1.64,1.64,0,0,1,1-.36,25,25,0,0,1,3.65-.28A15.38,15.38,0,0,0,84.05,137.8Z"/><path class="cls-24" d="M88.7,147.19c-1.4,1.06-4.78-1.47-5.71-2.38-1.27-1.23-2.14-2.82-3.31-4.14-.08-.1-.25,0-.18.14,1.44,2,2.89,4.31,4.91,5.83,1,.79,3.51,2.35,4.67,1,.22-.25-.08-.72-.38-.49Z"/><path class="cls-24" d="M83.15,138a9.6,9.6,0,0,0-1.42-.11,2.94,2.94,0,0,0-1.29.15.24.24,0,0,0,0,.43,3.7,3.7,0,0,0,1.24,0l1.38-.09c.18,0,.26-.31,0-.35Z"/><path class="cls-24" d="M83.76,139.23l-.48.1a1.32,1.32,0,0,0-.42.23.18.18,0,0,0,.09.34,1.29,1.29,0,0,0,.48,0,3.57,3.57,0,0,0,.46-.16.25.25,0,0,0-.13-.49Z"/><path class="cls-24" d="M84.82,140.68l-.47.1a.13.13,0,0,0,0,.26,4.35,4.35,0,0,0,.52-.06c.2,0,.11-.33-.08-.3Z"/><path class="cls-24" d="M85.64,142a.86.86,0,0,0-.5,0,.73.73,0,0,0-.39.32c-.12.17.07.35.24.32a2.87,2.87,0,0,0,.31,0,2.3,2.3,0,0,1,.28-.06.26.26,0,0,0,.06-.5Z"/><path class="cls-24" d="M86.77,144.17a.23.23,0,0,0,0-.46.23.23,0,0,0,0,.46Z"/><path class="cls-25" d="M88.38,146.32c0-.3-.14-.78-.5-.82-.06,0-.12.06-.12.12a1,1,0,0,0,.15.35,1.14,1.14,0,0,1,.15.4.16.16,0,0,0,.32-.05Z"/><path class="cls-25" d="M87.38,144.79a.27.27,0,0,0-.2,0,.18.18,0,0,0,0,.35.34.34,0,0,0,.2,0,.19.19,0,0,0,0-.37Z"/><path class="cls-26" d="M70.27,135.88c.1.66,3.21,1.48,5.56.54a.76.76,0,0,0,.47-.74C76,128.84,75.41,98,75,90.31c.58,0,3.4.06,4,0,.59,10.76-.52,34.59-.74,45.5,0,1.95,5.84.73,6,.12,2-8.57,7.86-53,7.19-58.87-4.11,2.19-12,1.77-16.63,1.52-3.89-.21-9.27.12-13.15-.17C61.42,81,69.3,129.79,70.27,135.88Z"/><path class="cls-27" d="M69.27,87.37c.69.45,1.37.89,2.07,1.31a7.88,7.88,0,0,0,2,1,.13.13,0,0,0,.12-.21,9.3,9.3,0,0,0-1.89-1.16c-.7-.41-1.41-.82-2.1-1.24a.16.16,0,0,0-.17.27Z"/><path class="cls-27" d="M68.94,88.78a34.84,34.84,0,0,0,3.82,1.51c.17,0,.29-.21.12-.29A36.77,36.77,0,0,0,69,88.52c-.16-.06-.23.19-.07.26Z"/><path class="cls-27" d="M70.17,91c.8,0,1.59.11,2.38.09a.16.16,0,0,0,0-.31,5.65,5.65,0,0,0-2.42-.15c-.24,0-.24.38,0,.37Z"/><path class="cls-27" d="M81.16,90.46a11.26,11.26,0,0,0,3.74-.64.12.12,0,0,0-.06-.22c-1.23.08-2.45.45-3.68.57-.18,0-.19.3,0,.29Z"/><path class="cls-27" d="M81.76,91.35A6.11,6.11,0,0,1,83,91.26a9.86,9.86,0,0,0,1.07.09c.13,0,.2-.19.07-.25a3.81,3.81,0,0,0-2.43,0c-.19,0-.11.33.08.29Z"/><path class="cls-27" d="M82.2,92.24c.4,0,.8,0,1.2.08a3.51,3.51,0,0,0,1.07.07.15.15,0,0,0,0-.27,2.17,2.17,0,0,0-1-.19c-.43,0-.86,0-1.29,0a.18.18,0,0,0,0,.35Z"/><path class="cls-27" d="M76.1,86c0,.63,0,1.27,0,1.91a3.81,3.81,0,0,0,.1,1.22c.11.24.29.26.52.3a2.8,2.8,0,0,0,1.46-.13.14.14,0,0,0,0-.24,1.55,1.55,0,0,0-.77-.12,1.88,1.88,0,0,1-.58,0c-.22-.09-.21-.29-.24-.55-.09-.79-.1-1.6-.13-2.39a.2.2,0,1,0-.39,0Z"/><path class="cls-27" d="M70.85,134.65c1.13.44,2.82,1.13,4,.35a.12.12,0,0,0-.09-.22,5,5,0,0,1-2,.13,9.74,9.74,0,0,1-1.76-.56c-.19-.07-.27.23-.09.3Z"/><path class="cls-27" d="M79.61,134.66a4.79,4.79,0,0,0,3.17-.18c.21-.1.06-.42-.15-.37a6.86,6.86,0,0,1-2.92.21c-.22,0-.32.28-.1.34Z"/><path class="cls-27" d="M68.26,112.78a3.6,3.6,0,0,0,2,1.27c.37.08,1.25.1,1.05-.53a.16.16,0,0,0-.31,0c-.12.38-1.22-.1-1.41-.2a3.56,3.56,0,0,1-1-.81c-.17-.19-.42.08-.27.27Z"/><path class="cls-27" d="M82.58,112.25c.6,1.16,2.35,2,3.52,1.14A.2.2,0,0,0,86,113a2.53,2.53,0,0,1-3-1c-.14-.24-.5,0-.37.22Z"/><path class="cls-28" d="M60.56,78.9a34.93,34.93,0,0,0,1.08,4.62c.71,1.26,5.34,3,14.69,3.13s14-1.53,15.15-3c.72-.95.36-6.32.36-6.32S83.34,83.31,60.56,78.9Z"/><path class="cls-29" d="M63.48,83.79a8.72,8.72,0,0,0-.19-1.23A1.81,1.81,0,0,0,63,81.49a.21.21,0,0,0-.34.09,1.72,1.72,0,0,0,.14,1,12.22,12.22,0,0,0,.35,1.22c.07.18.39.18.37,0Z"/><path class="cls-29" d="M66.05,84.42a3.32,3.32,0,0,0-.25-2.09.18.18,0,0,0-.33.09,4.64,4.64,0,0,0,.13.91,6.67,6.67,0,0,1,.08,1.09c0,.25.35.24.37,0Z"/><path class="cls-29" d="M71.86,85.46a7.79,7.79,0,0,0,0-1.08,1.2,1.2,0,0,0-.22-.81.19.19,0,0,0-.3,0,1.47,1.47,0,0,0,0,.83c0,.34,0,.68,0,1s.5.33.52,0Z"/><path class="cls-29" d="M74.75,85.7A4.24,4.24,0,0,0,74.69,84a.23.23,0,0,0-.44,0,4.24,4.24,0,0,0-.06,1.74.28.28,0,0,0,.56,0Z"/><path class="cls-29" d="M77.26,85.78c0-.36,0-.72,0-1.08s.06-.57-.14-.82a.2.2,0,0,0-.3,0c-.2.25-.14.51-.14.82s0,.72,0,1.08a.24.24,0,0,0,.48,0Z"/><path class="cls-29" d="M80.3,85.78l.08-1.24a1.76,1.76,0,0,0-.07-1,.21.21,0,0,0-.35,0,1.83,1.83,0,0,0-.14,1l0,1.24c0,.33.5.33.52,0Z"/><path class="cls-29" d="M83,85.77c.08-.44.16-.87.23-1.31a1.69,1.69,0,0,0,0-1,.22.22,0,0,0-.35,0,1.66,1.66,0,0,0-.26,1c-.06.45-.09.89-.13,1.33,0,.28.44.35.5.07Z"/><path class="cls-29" d="M85.57,85.28c.09-.39.14-.79.19-1.18a2.19,2.19,0,0,0,0-1.08.17.17,0,0,0-.31,0,2.14,2.14,0,0,0-.21,1,10.37,10.37,0,0,0,0,1.25.19.19,0,0,0,.38,0Z"/><path class="cls-29" d="M88.21,84.34a5.81,5.81,0,0,1,.07-1.1,1.8,1.8,0,0,0,.06-.86A.19.19,0,0,0,88,82.3c-.45.47-.28,1.5-.19,2.09,0,.21.37.16.37,0Z"/><path class="cls-29" d="M90.44,83.82c.28-.21.26-.6.32-.92a3.79,3.79,0,0,0,.08-1.16.21.21,0,0,0-.38,0,3.36,3.36,0,0,0-.23,1.14c0,.33-.16.69.06,1a.12.12,0,0,0,.15,0Z"/><path class="cls-29" d="M69,85.3A8.44,8.44,0,0,0,69,84a1.29,1.29,0,0,0-.29-.92.14.14,0,0,0-.22,0,1.55,1.55,0,0,0,0,.93,9.28,9.28,0,0,1,0,1.29c0,.31.47.31.49,0Z"/><path class="cls-23" d="M59.92,62.92c.64,9.5-2.19,15.94,1.7,17.57.38.16,18,5.74,29.74-.53,3.15-1.27.39-8.39.16-17.49-.32-12.62-3.86-24-4.2-24.37C86.07,36.63,66.05,38,65,38.1,60.48,38.61,59.6,58.14,59.92,62.92Z"/><path class="cls-30" d="M82.14,53.18a8.45,8.45,0,0,1-6.89,2.41,27.54,27.54,0,0,0-2.42-13.21,9.32,9.32,0,0,0,4.36-.13c.25-.07,2.33,4.69,2.55,5.17Q81,50.26,82.14,53.18Z"/><path class="cls-31" d="M70.31,57.61C68.08,64,65,73.77,66.13,74.75c3.71,2.09,7.28.75,11.26,2.26,2.09.45-.32-8.09.14-18.16a35.15,35.15,0,0,0-3-17c-4.77-1.65-4.76-1.89-4.18.84C71.28,47.19,71.43,54.42,70.31,57.61Z"/><path class="cls-32" d="M72.68,47.2a21.55,21.55,0,0,1,.35,6,.09.09,0,0,0,.17,0,13.56,13.56,0,0,0-.42-6.1c0-.07-.12,0-.1,0Z"/><path class="cls-32" d="M74.28,48a12.33,12.33,0,0,1,.62,3.13c.07.94-.09,1.86-.07,2.8a.17.17,0,0,0,.33,0c.6-1.91,0-4.24-.69-6,0-.11-.22-.06-.19.05Z"/><path class="cls-32" d="M70.17,67.91a14.79,14.79,0,0,0-1.07,4.81.2.2,0,0,0,.4,0c.36-1.59.5-3.21.9-4.8a.12.12,0,0,0-.23-.06Z"/><path class="cls-32" d="M73.25,67.35a19.16,19.16,0,0,0-.65,5.93.13.13,0,0,0,.26,0c.22-2,.3-3.92.57-5.88,0-.11-.15-.17-.18-.05Z"/><path class="cls-32" d="M67,73.79c-.11.34-.19,1,.22,1.17a.24.24,0,0,0,.31-.09c.16-.3,0-.69,0-1a.26.26,0,0,0-.5-.06Z"/><path class="cls-32" d="M68.12,74.16a1.14,1.14,0,0,0,.16,1,.29.29,0,0,0,.47-.28c0-.12-.09-.22-.12-.34a1,1,0,0,1,0-.34c0-.3-.45-.35-.51-.07Z"/><path class="cls-32" d="M69.3,74.65c0,.3.09.67.42.75a.29.29,0,0,0,.32-.13,1.3,1.3,0,0,0,0-.62.4.4,0,0,0-.79,0Z"/><path class="cls-32" d="M71,74.65a.84.84,0,0,0,.26.83.22.22,0,0,0,.33-.13,4.11,4.11,0,0,0,0-.7.28.28,0,1,0-.55,0Z"/><path class="cls-32" d="M72.61,75a.61.61,0,0,0,.19.42.26.26,0,0,0,.41-.06.72.72,0,0,0,0-.54.34.34,0,0,0-.41-.23.34.34,0,0,0-.23.41Z"/><path class="cls-32" d="M74.05,75c.13.24.36.79.72.58s0-.7-.08-1c-.2-.42-.86,0-.64.37Z"/><path class="cls-32" d="M76,75.33a2.35,2.35,0,0,0,.11.35.55.55,0,0,0,.26.26.27.27,0,0,0,.37-.09.59.59,0,0,0,.08-.37,2,2,0,0,0-.12-.34.36.36,0,1,0-.7.19Z"/><path class="cls-24" d="M97,65.78c-.62.88-3.27,3.4-9.46,2.85-5.48-.47-14.29-5-19-7.47a27.83,27.83,0,0,1-3.11-1.78,2.91,2.91,0,0,1,.31-2.66c.57-1.2,1.14-2.31,2.46-2.52A22.2,22.2,0,0,1,71,55c4.67,1.42,13.17,4.14,18.28,3.84-2.06-4.8-2.07-6.31-3.71-12.05a53.93,53.93,0,0,1-1.33-7.33c-.08-3.89,6.12-3.29,7.68-1.76s2.8,5.12,3.48,7.07C99.28,55.81,99.22,62.7,97,65.78Z"/><path class="cls-28" d="M71,55a22.2,22.2,0,0,0-2.75-.77c-1.32.21-1.89,1.32-2.46,2.52a2.91,2.91,0,0,0-.31,2.66,27.83,27.83,0,0,0,3.11,1.78,7.41,7.41,0,0,0,2.25-2.71A4.12,4.12,0,0,0,71,55Z"/><path class="cls-29" d="M69,55.79a2.8,2.8,0,0,0,1.17.28c.13,0,.24-.18.12-.28a2.92,2.92,0,0,0-1.17-.44.23.23,0,0,0-.12.44Z"/><path class="cls-29" d="M68.7,57.13a4,4,0,0,0,1.3.56.18.18,0,0,0,.12-.3,3.64,3.64,0,0,0-1.26-.63c-.22-.09-.36.26-.16.37Z"/><path class="cls-29" d="M68.42,58.49c.13,0,.25.06.38,0A.28.28,0,0,0,69,58.3c0-.38-.44-.42-.69-.35s-.24.56.08.54Z"/><path class="cls-33" d="M85.48,61.79a8.88,8.88,0,0,1-1.51.68c-2.74,1.1-8.22,3-8.83,3.2-5.09,1.44-9.31,2.77-14.58,3.21-1.48.13-1.2.29-2.61-.17-5.83-1.9-3.33-15.46-1.76-22.37C57,43,58.09,40,59.52,38.9c1.64-1.32,5.93-2.61,7-1.23s.23,4.94,0,6.65c-.86,6.63-1.56,9.56-2.6,15.39C67.71,59,77.05,57.32,82,56.36l1.54-.3C86.31,55.51,86.79,60.73,85.48,61.79Z"/><path class="cls-28" d="M85.48,61.79a8.88,8.88,0,0,1-1.51.68c-.13-.15-2.17.33-2.54-3.22-.06-.53-.27-2.11.58-2.89l1.54-.3C86.31,55.51,86.79,60.73,85.48,61.79Z"/><path class="cls-29" d="M82.35,57.5a3.39,3.39,0,0,1,.55-.13,1.27,1.27,0,0,0,.51-.12.19.19,0,0,0,0-.32c-.33-.19-.86,0-1.19.1a.24.24,0,0,0,.13.47Z"/><path class="cls-29" d="M82.26,59l.65-.12a1,1,0,0,0,.58-.19.25.25,0,0,0-.11-.41,1.16,1.16,0,0,0-.61.07l-.64.16c-.32.07-.18.54.13.49Z"/><path class="cls-29" d="M82.83,60.85a2.93,2.93,0,0,0,1-.39c.17-.12.13-.43-.11-.42a1.59,1.59,0,0,0-.53.08l-.5.21a.27.27,0,0,0,.15.52Z"/><path class="cls-29" d="M83.77,62c.27-.05.58-.17.64-.47a.22.22,0,0,0-.15-.27c-.29-.1-.55.11-.74.31a.26.26,0,0,0,.25.43Z"/><path class="cls-34" d="M86,54.6a1.57,1.57,0,0,1,.33-.3,11.51,11.51,0,0,1,3.36-1.59c1.08,0,.54,1.27-.43,1.79-.44.29-.45.71-.77,1,.75.18,3.29-1.16,4-1.47.93-.41,2.65-.93,2.68,0s-3.51,2.09-3.48,2.46,2.29-.26,3.16-.37,2.2-.41,2.2.29c0,.94-2.54,1.3-4.46,2,.72,0,2.16-.12,2.88-.13a1.22,1.22,0,0,1,1.13.45c.6,1-2.77,1.24-3.64,1.24a6.08,6.08,0,0,0,2.43.36c.88,0,1.27.83-.54,1.22a59.65,59.65,0,0,1-9.19-.69c-.95-.44-1.6-2.69-1.34-3.92.09-.45.78-.45,1-.83C85.64,55.52,85.64,55.12,86,54.6Z"/><path class="cls-34" d="M65.76,34.34c.26.79,6.88,6.5,10.52,6.42,2.18,0,9.08-4.16,9.29-7.46A98.31,98.31,0,0,0,85,20.93a9.19,9.19,0,0,0-1.65-4.47c-1.35-1.57-3.55-2-5.59-2.39-2.49-.43-5.11-.82-7.5,0C63.5,16.41,65.49,33.5,65.76,34.34Z"/><path class="cls-35" d="M64.33,26c.58,2.62,2.33,3.12,2.33,2.5,0-3.21.87-8.38,3.28-9.44a11.84,11.84,0,0,1,4.75-.82,33.37,33.37,0,0,1,3.73.35c1.43.21,3,.59,3.86,1.75.57.76,1.38,6.43,1.49,7.73.07.95,1-.72,2.29-1.68.8-2.2-1.29-6.84-2.89-8.55C79.74,14.18,70,16.34,69,16.6,64.92,17.77,63.24,22.11,64.33,26Z"/><path class="cls-28" d="M68,12.67c.63-.48,2.89-1.8,3.34-2.47.23-.36.39-.77.63-1.12a2.44,2.44,0,0,1,3.71-.23,10.32,10.32,0,0,0,.73.88c.41.36,2.89,1.45,3.35,1.71,3,1.75,5.4,3.17,5,8-6-3.72-20.13,1.19-20.13,1.19C63.45,16.11,66.48,13.77,68,12.67Z"/><path class="cls-36" d="M71.39,21.54c5.42-1.11,10.21-.69,14.24,1.32.69-.21.48-4.06-1-5.41s-6-2-9.91-1.72C70.48,16.06,64.48,18.32,64,19c-.87,1.34-.58,4.94,0,5.2C65,24,68.26,22.17,71.39,21.54Z"/><path class="cls-34" d="M63.93,25c-.62-.1-1.16.53-1.4,1.11A3.33,3.33,0,0,0,62.42,28,3.83,3.83,0,0,0,64.78,31a1,1,0,0,0,1-.11,1.14,1.14,0,0,0,.27-.51C66.46,29.1,65.34,25.23,63.93,25Z"/><path class="cls-34" d="M86.66,24.1c.57-.25,1.16.53,1.4,1.11a3.32,3.32,0,0,1,.1,1.85,3.86,3.86,0,0,1-2.36,3.08,1,1,0,0,1-1-.12,1,1,0,0,1-.27-.5C84.13,28.2,84.48,25,86.66,24.1Z"/><path class="cls-35" d="M69.66,25.38c1.55.21,4,0,4.83-1.55.3-.53-.45-1.17-.88-.68a4.59,4.59,0,0,1-4,1.45c-.51,0-.48.71,0,.78Z"/><path class="cls-35" d="M81.22,24.24a7,7,0,0,1-2.36-.43,16.14,16.14,0,0,1-1.61-1.08.41.41,0,0,0-.59.46c.39,1.7,3.2,1.88,4.56,1.84a.4.4,0,0,0,0-.79Z"/><path class="cls-25" d="M78.52,34.58C78.14,33.23,76,33.05,75,33.34s-1.73,2.22-1,2.46c1,.35,2.1-1,3.06-.45C77.82,35.78,79.1,36.61,78.52,34.58Z"/><path class="cls-25" d="M68.37,24.78a3.71,3.71,0,0,0-.08-1.63.28.28,0,0,0-.49,0,3.71,3.71,0,0,0-.08,1.63.33.33,0,0,0,.65,0Z"/><path class="cls-25" d="M68.32,26.9l0-.32a.47.47,0,0,0-.14-.37l.09.15a.69.69,0,0,0-.15-.28.27.27,0,0,0-.37,0,.69.69,0,0,0-.15.28l.09-.15a.48.48,0,0,0-.14.37l0,.32a.36.36,0,0,0,.71,0Z"/><path class="cls-37" d="M68.26,32a8,8,0,0,0,2.59,0,.9.9,0,0,0,0-1.72,8,8,0,0,0-2.59,0,.89.89,0,0,0,0,1.78Z"/><path class="cls-37" d="M80.43,31.61a3.84,3.84,0,0,0,2.73-.1,1.06,1.06,0,0,0-.53-2c-.33,0-.64.11-1,.14s-.65,0-1,0a1,1,0,0,0-.26,1.88Z"/><path class="cls-38" d="M75.51,26.16a14.75,14.75,0,0,0,1.07,3.48c.19.44.54.9.4,1.37s-1,.62-1.55.91c-.16.09-.16.41.06.44.74.1,2.34-.33,2.44-1.24.07-.54-.8-1.8-1-2.24-.38-.94-.65-1.9-1-2.85a.23.23,0,0,0-.45.13Z"/><path class="cls-39" d="M69.79,27.49a2.64,2.64,0,0,0,3.62,0l-.3-.08c.1.72-1.18,1.14-1.63,1.51-.16.13,0,.34.19.31.87-.13,2-.94,1.79-1.91a.17.17,0,0,0-.22-.13,3.41,3.41,0,0,1-3.18-.06.22.22,0,0,0-.27.35Z"/><path class="cls-39" d="M81,26.35a2.58,2.58,0,0,1-1.43.82,3.4,3.4,0,0,1-1.29-.32c-.26-.1-.43.22-.33.43a2.9,2.9,0,0,0,2.22,1.44.12.12,0,0,0,.06-.22c-.31-.17-.65-.27-1-.45a2.14,2.14,0,0,1-.54-.41,1.26,1.26,0,0,1-.26-.59l-.43.33a3.25,3.25,0,0,0,1.7.34,3.35,3.35,0,0,0,1.61-1c.24-.23-.12-.58-.36-.36Z"/><path class="cls-40" d="M64.45,26.5c-.65-.3-1.19-.1-1.24.66a3.21,3.21,0,0,0,1,2.52c.12.1.37,0,.3-.18a11.51,11.51,0,0,1-.78-1.8,1.92,1.92,0,0,1-.05-.63c.05-.38.3-.32.6-.19s.37-.28.16-.38Z"/><path class="cls-40" d="M65.19,28.67c-.5.43-.33,1.72.47,1.65a.2.2,0,0,0,.17-.3c-.22-.35-.44-.61-.23-1a.26.26,0,0,0-.41-.32Z"/><path class="cls-40" d="M85.2,28.14c.27.05.35.31.31.56a1.31,1.31,0,0,0-.09.65.22.22,0,0,0,.31.13.73.73,0,0,0,.3-.55,1.23,1.23,0,0,0,0-.57.77.77,0,0,0-.76-.55c-.17,0-.24.3,0,.33Z"/><path class="cls-40" d="M86.19,26.21a.5.5,0,0,1,.53-.33,1.43,1.43,0,0,1,.11.39,2.5,2.5,0,0,1,0,.67,8.76,8.76,0,0,1-.29,1.35c0,.16.17.32.29.17a2.83,2.83,0,0,0,.3-2.62c-.31-.79-1.05-.43-1.34.16-.11.24.23.44.35.21Z"/><path class="cls-40" d="M75.82,36.68c.49-.37.92-.13,1.43,0a.16.16,0,0,0,.2-.2c-.27-.79-1.4-.65-1.92-.22-.21.17.07.55.29.38Z"/><path class="cls-36" d="M70.92,8.49c-.06,1.72,3.1,2,4.5,1.26a1.74,1.74,0,0,0,.13-3,3.26,3.26,0,0,0-3.22-.09A2.31,2.31,0,0,0,70.92,8.49Z"/><path class="cls-41" d="M73.22,7.93c.44-.21.91.15,1.28.37a.22.22,0,0,0,.33-.19c0-1-1.3-1.2-2-.84-.43.23,0,.86.39.66Z"/><path class="cls-41" d="M73.83,9.43a.69.69,0,0,0,.52-.26.24.24,0,0,0,0-.23.66.66,0,0,0-.52-.26c-.2,0-.37.19-.37.37s.17.41.37.38Z"/><path class="cls-29" d="M68.09,16.22A2.61,2.61,0,0,1,69,14.43c.38-.33.88-.45,1.28-.74a2.58,2.58,0,0,0,1.11-1.86.17.17,0,0,0-.3-.12c-.41.36-.5.93-.89,1.32a12.29,12.29,0,0,1-1.39.85,2.91,2.91,0,0,0-1.17,2.34c0,.32.46.31.48,0Z"/><path class="cls-29" d="M72,15.62c.31-.75,1-1.27,1.29-2a2.82,2.82,0,0,0,.23-1.87.14.14,0,0,0-.26,0,6,6,0,0,1-.6,2.27,7.82,7.82,0,0,0-.92,1.55c0,.16.2.22.26.07Z"/><path class="cls-29" d="M75.83,14.94a2.43,2.43,0,0,0,0-1.62c-.09-.29-.23-.56-.32-.85s-.12-.72-.25-1.07a.15.15,0,0,0-.28,0c-.57,1.08.94,2.32.65,3.5a.13.13,0,0,0,.24.07Z"/><path class="cls-29" d="M76.31,11.33a7.14,7.14,0,0,0,2,1.91,13,13,0,0,1,1.3,1,14.33,14.33,0,0,1,.92,1.14c.17.2.44,0,.4-.23a3.75,3.75,0,0,0-1.68-2,15.24,15.24,0,0,1-2.59-2.08.22.22,0,0,0-.35.26Z"/><path class="cls-41" d="M65.92,22.2c0-.47,0-1,0-1.44A11.57,11.57,0,0,0,66,19.32c0-.14-.23-.25-.31-.08a4.74,4.74,0,0,0,0,3,.15.15,0,0,0,.3,0Z"/><path class="cls-41" d="M68.42,21.08a15.72,15.72,0,0,0,0-2.91c0-.16-.27-.14-.31,0a8.36,8.36,0,0,0,0,2.91.16.16,0,0,0,.31,0Z"/><path class="cls-41" d="M70.87,20.45a7.57,7.57,0,0,0-.1-2.13.21.21,0,0,0-.4,0,7.27,7.27,0,0,0,.08,2.13c0,.26.42.27.42,0Z"/><path class="cls-41" d="M73.17,20A15,15,0,0,0,73,17.46c0-.15-.25-.11-.26,0A15.84,15.84,0,0,0,73,20c0,.13.23.14.22,0Z"/><path class="cls-41" d="M75.44,19.57V18.28a3.06,3.06,0,0,0-.07-1.13.1.1,0,0,0-.2,0,2.86,2.86,0,0,0-.07,1.13v1.29a.17.17,0,0,0,.34,0Z"/><path class="cls-41" d="M77.82,19.65a4.82,4.82,0,0,0-.08-2.33.19.19,0,0,0-.35.05,3.26,3.26,0,0,0,0,1.08c0,.4.06.8.08,1.2a.17.17,0,0,0,.33,0Z"/><path class="cls-41" d="M80.45,20.13c0-.49,0-1,0-1.47a2.38,2.38,0,0,0-.17-1.16.16.16,0,0,0-.29,0,2.75,2.75,0,0,0,0,1.21c.05.46.12.92.18,1.38,0,.17.28.18.28,0Z"/><path class="cls-41" d="M82.91,20.69a5.43,5.43,0,0,0-.41-2.94c0-.08-.21-.09-.22,0A4,4,0,0,0,82.4,19a12.53,12.53,0,0,1,.18,1.73.17.17,0,0,0,.33,0Z"/><path class="cls-41" d="M85.07,21.32a4.15,4.15,0,0,0-.74-2.78c-.07-.09-.23,0-.2.12a11,11,0,0,1,.65,2.66.15.15,0,0,0,.29,0Z"/><path class="cls-40" d="M75.57,24.91a3.52,3.52,0,0,0-.1-1.71.23.23,0,0,0-.4,0,3.4,3.4,0,0,0-.1,1.71.3.3,0,0,0,.6,0Z"/><path class="cls-40" d="M76.43,25a5.16,5.16,0,0,0-.28-1.66c-.06-.13-.23,0-.24.07A5.09,5.09,0,0,0,76.16,25c0,.15.29.12.27,0Z"/><path class="cls-42" d="M64.24,33.43c-.67.85.2,3,.1,3.68S63,38.64,64,40c2.47,3.14,6.35,4,10.33,4.29,4.5.35,9.71-.89,12.73-4.23a3,3,0,0,0,1-2.23c-.1-.86-.87-1.51-1-2.36s.43-1.9,0-2.6a1.1,1.1,0,0,0-1.5-.61c-.72.21-3.07,2.73-3.69,3.16-2.83,2-7.21,1.76-10.54.88C69.58,35.79,65.66,31.63,64.24,33.43Z"/><path class="cls-43" d="M66.43,35c-.68.21-.79,1-.74,1.65a12.54,12.54,0,0,0,.23,1.25,3.62,3.62,0,0,1-.44,2.07c-.08.21.2.32.35.2,1.57-1.33-.3-3.35.86-4.72a.27.27,0,0,0-.26-.45Z"/><path class="cls-43" d="M69,37.06c-.63,0-.69.76-.68,1.27s.2.88.24,1.34a9.47,9.47,0,0,1-.24,1.67c0,.13.19.17.25.06a3.34,3.34,0,0,0,.42-1.73c0-.27-.1-.51-.14-.77s-.1-1.29.22-1.34.21-.52-.07-.5Z"/><path class="cls-43" d="M72.34,37.78a2,2,0,0,0-.54,1.54,3.61,3.61,0,0,0,.28.8,2.86,2.86,0,0,1,.24,1.15c0,.28-.19.6-.24.89a.1.1,0,0,0,.18.08,2.63,2.63,0,0,0,.41-1.81c-.11-.88-.52-1.51,0-2.36.14-.22-.21-.5-.38-.29Z"/><path class="cls-43" d="M76,38.53a1.79,1.79,0,0,0-.63,1.61,4.4,4.4,0,0,0,.35,1.06,3.07,3.07,0,0,1,.22,1.47.16.16,0,0,0,.3.08c.82-1.35-1.39-2.66,0-4,.15-.14-.07-.36-.23-.22Z"/><path class="cls-43" d="M78.84,38.54a2.57,2.57,0,0,0-.13,1.73,4.74,4.74,0,0,0,.3.79,4,4,0,0,1,.38,1.61c0,.2.33.34.42.11a1.9,1.9,0,0,0-.07-1.58,9.67,9.67,0,0,1-.47-1.09,6.57,6.57,0,0,1-.09-1.47c0-.17-.26-.27-.34-.1Z"/><path class="cls-43" d="M81.64,37.77c.73.45-.11,1.43,0,2.13a2.54,2.54,0,0,0,.75,1.48c.1.11.32,0,.26-.15a5.21,5.21,0,0,1-.51-1.36c0-.53.27-.83.35-1.31a1.11,1.11,0,0,0-.6-1.16.21.21,0,0,0-.21.37Z"/><path class="cls-43" d="M84.13,35.54A1.61,1.61,0,0,1,85,37.19a6.85,6.85,0,0,0-.22,1.13,3.18,3.18,0,0,0,.73,1.84c.14.18.42,0,.36-.2a4.32,4.32,0,0,1-.49-2.07,4.34,4.34,0,0,0,.25-1.29,2.2,2.2,0,0,0-1.28-1.52c-.26-.11-.44.33-.19.46Z"/><path class="cls-34" d="M66.53,52.85a1.22,1.22,0,0,0-.34-.3A11.61,11.61,0,0,0,62.84,51c-1.08,0-.54,1.28.43,1.79.44.29.45.72.77,1-.75.18-3.29-1.16-4-1.47-.93-.41-2.65-.93-2.68,0s3.51,2.1,3.48,2.46-2.29-.26-3.16-.36-2.21-.41-2.21.29c0,.93,2.55,1.29,4.47,2-.72,0-2.17-.13-2.89-.14a1.24,1.24,0,0,0-1.12.46c-.6,1,2.76,1.24,3.64,1.24a5.91,5.91,0,0,1-2.43.35c-.88,0-1.27.84.54,1.23a54,54,0,0,0,8.75-.69,4.61,4.61,0,0,0,1.78-3.92c-.09-.45-.79-.45-1-.83C66.87,53.77,66.87,53.36,66.53,52.85Z"/></svg>