<svg id="रस्सी" xmlns="http://www.w3.org/2000/svg" viewBox="0 0 150 160"><defs><style>.cls-1,.cls-2{fill:#fff;}.cls-1{stroke:#fff;stroke-miterlimit:10;stroke-width:5px;}.cls-3{fill:none;}.cls-4{fill:#b79a79;}.cls-5{fill:#9d7a54;}</style></defs><path class="cls-1" d="M113,128.35a22.78,22.78,0,0,1-4.68,1.24,26.71,26.71,0,0,1-2.68.26,29.54,29.54,0,0,1-3.52-.06c-1.1-.09-2.2-.23-3.29-.43q-1.28-.23-2.52-.54c-.86-.22-1.72-.47-2.56-.74l-1.29-.44c-1.37-.5-2.73-1-4.06-1.65-.76-.34-1.52-.7-2.27-1.08-1.74-.87-3.44-1.83-5.08-2.86-.61-.38-1.22-.78-1.81-1.18a63.71,63.71,0,0,1-5.77-4.41l-.64-.55-.77-.69c-1.49-1.36-2.91-2.79-4.26-4.27l-1-1.18c-1-1.14-1.91-2.31-2.8-3.51l-.86-1.2c-.31-.44-.61-.89-.91-1.34-.77-1.16-1.52-2.36-2.23-3.6A7.43,7.43,0,0,0,60,99a.52.52,0,0,0,.31-.35,39.15,39.15,0,0,0,3.94,2.94c.67.44,1.36.87,2.06,1.27a39.68,39.68,0,0,0,6.08,2.85l.38.14,1,.35c1.28.43,2.6.82,4,1.15.52.13,1,.24,1.58.35a29,29,0,0,0,6.48.58c.69,0,1.38-.09,2.06-.18s1.08-.17,1.62-.29a20.29,20.29,0,0,0,3.35-1c.58-.24,1.15-.5,1.7-.79A15.09,15.09,0,0,0,97,104.28a22.44,22.44,0,0,0,3.91-4.25c.28-.39.54-.78.8-1.19s.35-.58.52-.87a33,33,0,0,0,2.3-5c.14-.38.27-.76.4-1.14a34,34,0,0,0,1.6-8.11c0-.4.06-.81.07-1.21a30.32,30.32,0,0,0-.45-6.46c-.07-.37-.14-.74-.22-1.11a25.67,25.67,0,0,0-3.18-7.92l-.12-.21c-.16-.26-.33-.52-.51-.77a23.92,23.92,0,0,0-5.21-5.52c-.31-.23-.62-.46-.93-.67a19.85,19.85,0,0,0-5.77-2.73c-.51-.15-1-.27-1.52-.38l-1.05-.21a27.8,27.8,0,0,0-9.28-.05l-1.17.2a32.67,32.67,0,0,0-3.37.87c-1.9.6-9.29,5.83-11.28,7.67-.27.25-2.37.51-2.64.77A32.58,32.58,0,0,0,55,72.15c-.18.3-.36.6-.53.91-.56-.07-1.11-.17-1.65-.29h0c-.35.69-.72,1.38-1.1,2-.1-.51-.19-1-.27-1.54-.15-1-.25-2.11-.3-3.17,0-.64,0-1.28,0-1.91,0-.32,0-.64,0-1a62.65,62.65,0,0,1,1.05-7.71c.14-.76.28-1.53.41-2.3a45.29,45.29,0,0,0,.78-6.88c0-.49,0-1,0-1.46,0-.77,0-1.53-.09-2.3A31.71,31.71,0,0,0,52,39.47q-.34-1.14-.78-2.25a26.93,26.93,0,0,0-1.47-3.07c-.35-.62-.74-1.22-1.14-1.81-.3-.42-.61-.84-.93-1.24a22.61,22.61,0,0,0-4.07-4q-.48-.36-1-.69a19.63,19.63,0,0,0-4.1-2.11c-.36-.13-.73-.26-1.11-.37h0a2.57,2.57,0,0,0-3.27,1.22,2.36,2.36,0,0,0,1.26,3.16,15.52,15.52,0,0,1,2.21.85c.31.14.61.29.91.46a17,17,0,0,1,3.17,2.21c.26.23.51.47.75.71a18.06,18.06,0,0,1,3.52,5l.15.31c.13.27.24.54.36.81a26.28,26.28,0,0,1,1.83,7.89c0,.52.06,1,.08,1.54a37.36,37.36,0,0,1-.16,4.49c-.08.77-.18,1.55-.29,2.32-.06.42-.13.84-.19,1.25-.42,2.61-.95,5.19-1.29,7.8,0,.37-.09.74-.13,1.11a34.88,34.88,0,0,0-.22,4.22,38.39,38.39,0,0,0,.27,4c0,.35.09.69.14,1a40.32,40.32,0,0,0,1,4.74c.1.35.2.69.31,1a36.74,36.74,0,0,0,1.34,3.68c.12.29.25.57.38.86s.28.6.43.9c.25.53.52,1,.8,1.56a23.07,23.07,0,0,0,.67,5.13h0c.08.35.18.7.28,1a37.11,37.11,0,0,0,1.56,4.44l.42,1a54.63,54.63,0,0,0,4.16,7.47l.61.9.22.32c.78,1.14,1.61,2.25,2.47,3.34l.64.8a67.07,67.07,0,0,0,4.89,5.37l.71.69A69.13,69.13,0,0,0,73,122.28l.85.65a67.17,67.17,0,0,0,7.55,4.89l.86.47c.61.33,1.22.65,1.84,1a61.37,61.37,0,0,0,5.79,2.53l.92.33A46.37,46.37,0,0,0,99,134.22c.36.06.71.11,1.07.15a33.47,33.47,0,0,0,7,.21l1.1-.11a28.36,28.36,0,0,0,5-1.05l.94-.31.77-.29C117.79,131.67,116,127.2,113,128.35ZM81.61,60.84a20.52,20.52,0,0,1,4.44.32,16.82,16.82,0,0,1,5.31,1.93,15.77,15.77,0,0,1,2.33,1.63,18.31,18.31,0,0,1,1.75,1.65c.41.44.8.89,1.17,1.36A21.23,21.23,0,0,1,100,74.1c.24.74.46,1.5.63,2.27a27,27,0,0,1,.65,5.47c0,1,0,1.91-.08,2.86a31.71,31.71,0,0,1-.56,4c-.17.79-.36,1.58-.58,2.35s-.5,1.64-.79,2.43-.61,1.55-1,2.32c-.21.47-.43.93-.67,1.38a18.39,18.39,0,0,1-4,5.25,14.75,14.75,0,0,1-1.33,1,11.66,11.66,0,0,1-2.16,1.13,14.53,14.53,0,0,1-2.33.7c-.39.08-.78.15-1.17.2a19.68,19.68,0,0,1-4.54.07c-.45,0-.9-.1-1.35-.17a29.27,29.27,0,0,1-4.49-1q-.52-.15-1-.33l-.4-.13a39,39,0,0,1-5.22-2.27L68.52,101A38.92,38.92,0,0,1,62.3,96.6l-1-.95a37,37,0,0,1-3.69-4c-.28-.36-.56-.72-.82-1.09-.46-.63-.9-1.28-1.32-1.94-.23-.36-.45-.72-.66-1.09l-.19-.32a23.36,23.36,0,0,1,.7-5,26,26,0,0,1,2.61-6.49c.5-.88,1-1.73,1.63-2.55.42-.57.85-1.14,1.3-1.68A30.18,30.18,0,0,1,65.4,67l.68-.51c.5-.37,1-.73,1.56-1.07a30.77,30.77,0,0,1,5.43-2.76c.8-.31,1.61-.58,2.44-.82A25.57,25.57,0,0,1,81.61,60.84Z"/><path class="cls-2" d="M55.23,110.41l.51,0-.3-.13Z"/><path class="cls-2" d="M64.59,58.17l-.3-.26c0,.19.09.39.14.59Z"/><path class="cls-2" d="M74,109.88a.46.46,0,0,0-.16.71l0,.07,0-.45.34-.25A.37.37,0,0,1,74,109.88Z"/><path class="cls-3" d="M53.08,73.47c.53.12,1.07.22,1.62.29a28.27,28.27,0,0,0-1.94,4.4l-.12.35c-.26-1-.49-2-.67-3,.38-.68.74-1.38,1.08-2.08Z"/><path class="cls-3" d="M59.08,98.67a.43.43,0,0,0-.22.09c-.15-.3-.28-.61-.42-.91l.54.53C59,98.48,59.05,98.57,59.08,98.67Z"/><path class="cls-4" d="M64.2,100.22a20.83,20.83,0,0,1-.76-4.37,36.58,36.58,0,0,0,6,4.25c.24,1.89,1.32,3.72,2.11,5.41.09.19.36.71.71,1.33a38.11,38.11,0,0,1-6-2.89A11.88,11.88,0,0,1,64.2,100.22Z"/><path class="cls-4" d="M76.88,103.33a29.33,29.33,0,0,0,4.31,1,29.91,29.91,0,0,0,2.39,3.46,8.56,8.56,0,0,0,1.79,1.67,27.32,27.32,0,0,1-6.35-.59,6.77,6.77,0,0,1-1.44-2.1A10.28,10.28,0,0,1,76.88,103.33Z"/><path class="cls-4" d="M91.1,106.52a11.51,11.51,0,0,1-2.42-1.68c-.09-.09-.38-.33-.7-.62a13.71,13.71,0,0,0,2.24-.67,11,11,0,0,0,2.07-1.09,18.87,18.87,0,0,0,4.2-.28c1.25-.26,2.47-.69,3.69-1.06a22.37,22.37,0,0,1-3.83,4.31,13.39,13.39,0,0,1-2.43,1.69A5.57,5.57,0,0,1,91.1,106.52Z"/><path class="cls-4" d="M68.22,114.84c-.11-.88-.31-1.76-.41-2.64,1.32,1.5,2.72,3,4.17,4.33a27.58,27.58,0,0,1,.75,2.84,14.93,14.93,0,0,1,.39,2.3,4.85,4.85,0,0,1-.07,1.47s-.11.28-.2.55a66.61,66.61,0,0,1-5.41-4.81A5.76,5.76,0,0,0,68.22,114.84Z"/><path class="cls-4" d="M93.56,101.47a17.64,17.64,0,0,0,3.81-5,24.66,24.66,0,0,1,2.68-1c1.25-.42,2.47-.92,3.68-1.41a34.11,34.11,0,0,1-2.26,5c-.16.3-.33.59-.51.88-1.53.43-3,1-4.58,1.3A17.5,17.5,0,0,1,93.56,101.47Z"/><path class="cls-4" d="M83.59,106.15c-.37-.55-.73-1.11-1.09-1.67a19.16,19.16,0,0,0,4.35-.06,16.42,16.42,0,0,0,3,2.49,8.66,8.66,0,0,0,2.46,1,21.85,21.85,0,0,1-3.3,1c-.52.12-1,.22-1.58.29A6.58,6.58,0,0,1,83.59,106.15Z"/><path class="cls-4" d="M58.77,93.71a11.7,11.7,0,0,1,.12-2.65,36.12,36.12,0,0,0,3.54,3.88,20.27,20.27,0,0,0,.86,5.63,9.16,9.16,0,0,0,1,2.1,40.13,40.13,0,0,1-3.86-3,.4.4,0,0,0,0-.26A22.81,22.81,0,0,1,58.77,93.71Z"/><path class="cls-4" d="M89.18,129.13A10.93,10.93,0,0,0,88,127.46c1.31.61,2.63,1.16,4,1.66q.63.24,1.26.45a22.5,22.5,0,0,1,2.35,1.88,9.93,9.93,0,0,1,2.73,4.35,44,44,0,0,1-8-2.14A6.91,6.91,0,0,0,89.18,129.13Z"/><path class="cls-4" d="M96.78,131.29a9.45,9.45,0,0,0-1-1c.82.22,1.64.4,2.47.56,1,.56,2.17.93,3.23,1.5a16.06,16.06,0,0,1,3.08,2.18,12.69,12.69,0,0,1,1.69,1.6,32.16,32.16,0,0,1-6.86-.2A10.2,10.2,0,0,0,96.78,131.29Z"/><path class="cls-4" d="M81.2,124.33c-.13-.3-.27-.59-.41-.87,1.61,1.05,3.27,2,5,2.9.61.67,1.23,1.33,1.78,2,.93,1.24,2.12,3.23,1.85,4.91a58.19,58.19,0,0,1-5.68-2.56c-.6-.31-1.2-.64-1.8-1C82.67,128.07,81.92,126,81.2,124.33Z"/><path class="cls-4" d="M74,120.91a30.83,30.83,0,0,0-.64-3.12A62.65,62.65,0,0,0,79,122.26a14.59,14.59,0,0,1,1.15,2.13c.6,1.38,1.54,3.41.91,4.92a65.41,65.41,0,0,1-7.4-5A7.27,7.27,0,0,0,74,120.91Z"/><path class="cls-4" d="M99,94.72l-1,.37c.33-.74.64-1.49.92-2.23s.53-1.55.76-2.34a26.25,26.25,0,0,1,6-5.91,35.24,35.24,0,0,1-1.57,8.22c-.59.26-1.17.53-1.77.75C101.25,94,100.14,94.33,99,94.72Z"/><path class="cls-4" d="M107.52,131.1a20.76,20.76,0,0,0,4.58-1.25c2.91-1.17,4.66,3.37,1.75,4.54l-.76.28a6.48,6.48,0,0,0-2-2.1A12.23,12.23,0,0,0,107.52,131.1Z"/><path class="cls-4" d="M103.47,132.48a15.24,15.24,0,0,0-2-1.17,26.49,26.49,0,0,0,3.45.06,33.7,33.7,0,0,1,4.57,1.44,6.41,6.41,0,0,1,2.72,2.18,26.57,26.57,0,0,1-4.88,1.06,5,5,0,0,0-.89-1.08A23.19,23.19,0,0,0,103.47,132.48Z"/><path class="cls-4" d="M71.62,103.42a17,17,0,0,1-1.11-2.72,37.19,37.19,0,0,0,5,2.18l.38.13a11,11,0,0,0,1,4.62,8,8,0,0,0,.54.88c-1.32-.33-2.62-.73-3.87-1.17a8.71,8.71,0,0,1-.58-1C72.53,105.39,72.08,104.4,71.62,103.42Z"/><path class="cls-4" d="M56,87.64c0-.29,0-.57,0-.86l.18.31C56.13,87.28,56.07,87.46,56,87.64Z"/><path class="cls-4" d="M100.79,84.4a19.29,19.29,0,0,1,4.52-7.57,31.85,31.85,0,0,1,.45,6.55,27.31,27.31,0,0,0-5.51,4.88A31.17,31.17,0,0,0,100.79,84.4Z"/><path class="cls-4" d="M54.22,83.14a11.76,11.76,0,0,1-1.56,1.17,14.11,14.11,0,0,1-1.42.8,30,30,0,0,1,1.4-6.6A36.45,36.45,0,0,0,53.77,82C53.91,82.39,54.07,82.77,54.22,83.14Z"/><path class="cls-4" d="M56.12,89.65c0,.24.05.48.08.72.06.42.13.85.22,1.27a.44.44,0,0,0,0,.45c.36.53-.28,2.08-.46,2.58l-.14.36c-.66-.79-1.29-1.61-1.88-2.44.45-.5.83-1,1-1.23A15.51,15.51,0,0,0,56.12,89.65Z"/><path class="cls-4" d="M57.12,94.39c.1-.33.19-.67.26-1a2.27,2.27,0,0,0-.12-1.86.48.48,0,0,0-.84.12c-.09-.42-.16-.85-.22-1.27,0-.24-.06-.48-.08-.72.26-.49.5-1,.71-1.5q.6.94,1.26,1.86a11.35,11.35,0,0,0-.28,3.81A19.35,19.35,0,0,0,59,98.38l-.54-.53A33.71,33.71,0,0,1,57.12,94.39Z"/><path class="cls-4" d="M58.44,97.85c-.64-.64-1.26-1.3-1.86-2a15.2,15.2,0,0,0,.54-1.47A33.71,33.71,0,0,0,58.44,97.85Z"/><path class="cls-4" d="M54.7,73.76a13.77,13.77,0,0,0,6.06-.49,27.38,27.38,0,0,0-1.56,2.45.51.51,0,0,0-.71.35,13.09,13.09,0,0,1-3.12,6,13.42,13.42,0,0,1-1.15,1.11c-.15-.37-.31-.75-.45-1.14a36.45,36.45,0,0,1-1.13-3.49l.12-.35A28.27,28.27,0,0,1,54.7,73.76Z"/><path class="cls-4" d="M56.68,82A22.85,22.85,0,0,0,56,86.78q-.75-1.32-1.38-2.7c.3-.25.58-.51.86-.78A16.62,16.62,0,0,0,56.68,82Z"/><path class="cls-4" d="M93.59,65.17a16.4,16.4,0,0,0-2.24-1.56,18.12,18.12,0,0,1-2.59-4.26,11.91,11.91,0,0,1-.55-2.11c.49.12,1,.24,1.48.38a19.2,19.2,0,0,1,5.65,2.78,34.67,34.67,0,0,0-.07,6.36A21.14,21.14,0,0,0,93.59,65.17Z"/><path class="cls-4" d="M100,71.82c-.13.79-.27,1.59-.41,2.38a20.4,20.4,0,0,0-3.24-6.13,29.71,29.71,0,0,1-.13-7,24.08,24.08,0,0,1,5.11,5.6A18.71,18.71,0,0,0,100,71.82Z"/><path class="cls-4" d="M100.24,76.39c.23-1.35.47-2.7.7-4a21.8,21.8,0,0,1,1-4.67,26.46,26.46,0,0,1,3.1,8,17.19,17.19,0,0,0-4.22,6A26.36,26.36,0,0,0,100.24,76.39Z"/><path class="cls-4" d="M68.31,61.42c1.29.48,2.59,1,3.9,1.41a11.49,11.49,0,0,0,1.57.37,29.08,29.08,0,0,0-5.22,2.65l-.35.1a12.08,12.08,0,0,1-3.32.6,15.09,15.09,0,0,1-4.11-.71A34.22,34.22,0,0,1,67.21,61C67.57,61.14,67.94,61.28,68.31,61.42Z"/><path class="cls-4" d="M88,60a16.55,16.55,0,0,0,1.58,2.73,16.55,16.55,0,0,0-3.29-1,.47.47,0,0,0-.35-.26c-2.34-.43-4.82-1-6.47-2.83-.13-.15-.69-.86-1.35-1.69a26.68,26.68,0,0,1,9.09.06A12,12,0,0,0,88,60Z"/><path class="cls-4" d="M66.42,67.37A28.34,28.34,0,0,0,62,71.65a11.4,11.4,0,0,1-6.79,1.19A32.63,32.63,0,0,1,60,66.62a14.37,14.37,0,0,0,5.64.86Z"/><path class="cls-4" d="M82,61.44a24.17,24.17,0,0,0-5.86,1,11.22,11.22,0,0,1-3.86-.59c-1.28-.45-2.71-.86-4-1.42a33.11,33.11,0,0,1,5.41-2.34,29.7,29.7,0,0,1,3.3-.87c.49.59,1,1.19,1.48,1.77A9,9,0,0,0,82,61.44Z"/><path class="cls-4" d="M52,75.54c.18,1,.41,2,.67,3a30,30,0,0,0-1.4,6.6,3.33,3.33,0,0,1-1.3.35c-.13-.29-.26-.58-.38-.87a37.45,37.45,0,0,1-1.31-3.73,11.76,11.76,0,0,0,1.47-1.74C50.53,78,51.28,76.77,52,75.54Z"/><path class="cls-4" d="M51.75,61c.24-.31.48-.62.7-.93a66.24,66.24,0,0,0-1,7.81l0,1A11.64,11.64,0,0,1,46.83,74a39.54,39.54,0,0,1-.27-4.07,35.88,35.88,0,0,1,.22-4.28,6.55,6.55,0,0,0,1.57-1.08A26.46,26.46,0,0,0,51.75,61Z"/><path class="cls-4" d="M51.14,88c-.27-.52-.54-1-.79-1.57a4.76,4.76,0,0,0,.82-.23Q51.13,87.05,51.14,88Z"/><path class="cls-4" d="M51.42,70.76A31.56,31.56,0,0,0,51.71,74a34.71,34.71,0,0,1-2.1,3.59A20.85,20.85,0,0,1,48,79.81,39.42,39.42,0,0,1,47,75a12.1,12.1,0,0,0,4.3-4Z"/><path class="cls-4" d="M53.26,91.9c-.1.1-.83.78-1.46,1.27h0A23.68,23.68,0,0,1,51.14,88a39.29,39.29,0,0,0,2.27,3.8Z"/><path class="cls-4" d="M55.87,95a11.52,11.52,0,0,1-.81,1.7,12.61,12.61,0,0,1-1.45,2,38.91,38.91,0,0,1-1.53-4.49A9.84,9.84,0,0,0,54,92.59C54.58,93.42,55.21,94.24,55.87,95Z"/><path class="cls-4" d="M52.32,85.62a13.27,13.27,0,0,0,2.31-1.54q.63,1.38,1.38,2.7c0,.29,0,.57,0,.86a11.19,11.19,0,0,1-.94,1.94,12.81,12.81,0,0,1-1.65,2.17A39.29,39.29,0,0,1,51.14,88q0-.9,0-1.8A8.51,8.51,0,0,0,52.32,85.62Z"/><path class="cls-4" d="M48.63,34.72A15.89,15.89,0,0,0,49,32.46c.4.6.77,1.21,1.12,1.84a27.38,27.38,0,0,1,1.44,3.12,19.26,19.26,0,0,1-2.16,8.11c-.12.23-.37.75-.69,1.3a26.54,26.54,0,0,0-1.79-8A15.75,15.75,0,0,0,48.63,34.72Z"/><path class="cls-4" d="M44,28.58a13.12,13.12,0,0,0,.12-1.43,22.17,22.17,0,0,1,4,4.05,12.76,12.76,0,0,1-.42,3.37,15.38,15.38,0,0,1-1.24,3.12,18.24,18.24,0,0,0-3.45-5c.05-.15.09-.3.14-.45A22.66,22.66,0,0,0,44,28.58Z"/><path class="cls-4" d="M53.63,49.25c0,.49,0,1,0,1.48a49.34,49.34,0,0,1-.76,7c-.39.63-.79,1.24-1.23,1.83a25.64,25.64,0,0,1-2.69,3.11,12.2,12.2,0,0,1-2,1.83c.33-2.65.85-5.27,1.26-7.91a12.75,12.75,0,0,0,4.34-5.07C52.91,50.76,53.28,50,53.63,49.25Z"/><path class="cls-4" d="M38.24,29.23a16.28,16.28,0,0,0-2.17-.85,2.44,2.44,0,0,1-1.23-3.21,2.47,2.47,0,0,1,3.21-1.23h0a13.93,13.93,0,0,1,.45,2.81A10.19,10.19,0,0,1,38.24,29.23Z"/><path class="cls-4" d="M51.7,42.44a21.59,21.59,0,0,0,.63-2.74,33,33,0,0,1,1.21,7.22,32.33,32.33,0,0,1-1.92,4.19,13.32,13.32,0,0,1-3.26,4.18c.1-.78.2-1.56.28-2.35a38.37,38.37,0,0,0,.16-4.55c.36-.49.66-1,.92-1.46A19.36,19.36,0,0,0,51.7,42.44Z"/><path class="cls-4" d="M39.14,24.32a18.9,18.9,0,0,1,4,2.14,12.87,12.87,0,0,1-.3,2.94c-.18.83-.38,1.7-.62,2.55a16.76,16.76,0,0,0-3.11-2.25,10.29,10.29,0,0,0,.14-4.84C39.24,24.7,39.19,24.51,39.14,24.32Z"/><path class="cls-4" d="M56.58,95.86c.6.69,1.22,1.35,1.86,2,.14.3.27.61.42.91a.39.39,0,0,0-.1.63c.59.62.41,1.78.4,2.58a18.22,18.22,0,0,1-.2,2.66,9,9,0,0,1-.86,2.67A55.85,55.85,0,0,1,54,99.72a12.7,12.7,0,0,0,2.38-3.46Z"/><path class="cls-4" d="M59.92,104.77a20.86,20.86,0,0,0,.2-3.25c0-.1,0-.2,0-.3.69,1.25,1.43,2.47,2.18,3.65.29.45.59.9.89,1.35a9.82,9.82,0,0,1-.42,2.59,10.91,10.91,0,0,1-1.45,3.11c-.84-1.1-1.65-2.23-2.42-3.38l-.21-.32A9.07,9.07,0,0,0,59.92,104.77Z"/><path class="cls-4" d="M63.82,108.63c.09-.38.17-.78.23-1.19.87,1.22,1.79,2.4,2.74,3.56,0,.34,0,.7,0,1,.09.76.23,1.52.34,2.28a5.82,5.82,0,0,1-.41,3.89A69,69,0,0,1,62,112.73,11.22,11.22,0,0,0,63.82,108.63Z"/><path class="cls-5" d="M104.89,131.37a23.2,23.2,0,0,0,2.63-.27,12.23,12.23,0,0,1,3.54,1.47,6.48,6.48,0,0,1,2,2.1l-.91.32a6.41,6.41,0,0,0-2.72-2.18A33.7,33.7,0,0,0,104.89,131.37Z"/><path class="cls-5" d="M101.45,132.38c-1.06-.57-2.21-.94-3.23-1.5a31.9,31.9,0,0,0,3.22.43,15.24,15.24,0,0,1,2,1.17,23.19,23.19,0,0,1,2.94,2.49,5,5,0,0,1,.89,1.08l-1.08.11a12.69,12.69,0,0,0-1.69-1.6A16.06,16.06,0,0,0,101.45,132.38Z"/><path class="cls-5" d="M95.59,131.45a22.5,22.5,0,0,0-2.35-1.88c.82.28,1.66.53,2.51.75a9.45,9.45,0,0,1,1,1A10.2,10.2,0,0,1,99.36,136l-1-.16A9.93,9.93,0,0,0,95.59,131.45Z"/><path class="cls-5" d="M87.55,128.41c-.55-.72-1.17-1.38-1.78-2,.74.38,1.48.75,2.23,1.1a10.93,10.93,0,0,1,1.18,1.67,6.91,6.91,0,0,1,1.12,4.53l-.9-.34C89.67,131.64,88.48,129.65,87.55,128.41Z"/><path class="cls-5" d="M80.17,124.39A14.59,14.59,0,0,0,79,122.26q.87.61,1.77,1.2c.14.28.28.57.41.87.72,1.64,1.47,3.74.72,5.46l-.84-.48C81.71,127.8,80.77,125.77,80.17,124.39Z"/><path class="cls-5" d="M73.05,123.14a4.85,4.85,0,0,0,.07-1.47,14.93,14.93,0,0,0-.39-2.3,27.58,27.58,0,0,0-.75-2.84l.76.7.63.56a30.83,30.83,0,0,1,.64,3.12,7.27,7.27,0,0,1-.33,3.44l-.83-.66C72.94,123.42,73.05,123.12,73.05,123.14Z"/><path class="cls-5" d="M67.16,114.3c-.11-.76-.25-1.52-.34-2.28,0-.32,0-.68,0-1l1,1.2c.1.88.3,1.76.41,2.64a5.76,5.76,0,0,1-.78,4l-.69-.69A5.82,5.82,0,0,0,67.16,114.3Z"/><path class="cls-5" d="M62.78,108.81a9.82,9.82,0,0,0,.42-2.59c.28.41.56.82.85,1.22-.06.41-.14.81-.23,1.19a11.22,11.22,0,0,1-1.86,4.1c-.21-.27-.42-.53-.63-.81A10.91,10.91,0,0,0,62.78,108.81Z"/><path class="cls-4" d="M56.65,109.14l.2-.17.28.12Z"/><path class="cls-4" d="M59.08,98.67c.13.36.27.73.4,1.1a.44.44,0,0,0,.61.27,9.18,9.18,0,0,1,0,1.18c-.45-.81-.87-1.63-1.27-2.46A.43.43,0,0,1,59.08,98.67Z"/><path class="cls-5" d="M59,104.63a18.22,18.22,0,0,0,.2-2.66c0-.8.19-2-.4-2.58a.39.39,0,0,1,.1-.63c.4.83.82,1.65,1.27,2.46,0,.1,0,.2,0,.3a20.86,20.86,0,0,1-.2,3.25,9.07,9.07,0,0,1-1.22,3.45l-.6-.92A9,9,0,0,0,59,104.63Z"/><path class="cls-5" d="M55.87,95c.23.28.47.56.71.83l-.18.4A12.7,12.7,0,0,1,54,99.72c-.14-.33-.28-.65-.41-1a12.61,12.61,0,0,0,1.45-2A11.52,11.52,0,0,0,55.87,95Z"/><path class="cls-5" d="M56.47,92.09a.44.44,0,0,1,0-.45,27,27,0,0,0,.7,2.75,15.2,15.2,0,0,1-.54,1.47c-.24-.27-.48-.55-.71-.83l.14-.36C56.19,94.17,56.83,92.62,56.47,92.09Z"/><path class="cls-5" d="M57.26,91.52a2.27,2.27,0,0,1,.12,1.86c-.07.34-.16.68-.26,1a27,27,0,0,1-.7-2.75A.48.48,0,0,1,57.26,91.52Z"/><path class="cls-5" d="M55,91.36c-.2.27-.58.73-1,1.23l-.58-.84a12.81,12.81,0,0,0,1.65-2.17A11.19,11.19,0,0,0,56,87.64q0,1,.12,2A15.51,15.51,0,0,1,55,91.36Z"/><path class="cls-5" d="M53.41,91.75l.58.84a9.84,9.84,0,0,1-1.91,1.65c-.1-.36-.19-.71-.28-1.07.63-.49,1.36-1.17,1.46-1.27Z"/><path class="cls-5" d="M56.83,88.15c-.21.51-.45,1-.71,1.5q-.1-1-.12-2c.07-.18.13-.36.19-.55C56.4,87.45,56.61,87.8,56.83,88.15Z"/><path class="cls-4" d="M51.24,85.11c0,.35-.05.7-.07,1a4.76,4.76,0,0,1-.82.23c-.14-.31-.28-.61-.41-.92A3.33,3.33,0,0,0,51.24,85.11Z"/><path class="cls-5" d="M55.37,82a13.09,13.09,0,0,0,3.12-6,.51.51,0,0,1,.71-.35A25,25,0,0,0,56.68,82a16.62,16.62,0,0,1-1.19,1.33c-.28.27-.56.53-.86.78-.14-.31-.27-.62-.41-.94A13.42,13.42,0,0,0,55.37,82Z"/><path class="cls-5" d="M54.22,83.14c.14.32.27.63.41.94a13.27,13.27,0,0,1-2.31,1.54,8.51,8.51,0,0,1-1.15.53c0-.34,0-.69.07-1a14.11,14.11,0,0,0,1.42-.8A11.76,11.76,0,0,0,54.22,83.14Z"/><path class="cls-5" d="M62,71.65c-.44.52-.85,1.07-1.25,1.62a13.77,13.77,0,0,1-6.06.49l.52-.92A11.4,11.4,0,0,0,62,71.65Z"/><path class="cls-5" d="M68.21,66l.35-.1c-.51.33-1,.67-1.49,1-.22.16-.44.32-.65.49l-.79.11A14.37,14.37,0,0,1,60,66.62l.79-.78a15.09,15.09,0,0,0,4.11.71A12.08,12.08,0,0,0,68.21,66Z"/><path class="cls-4" d="M65.35,58.62l.29.26-.16.31C65.44,59,65.39,58.81,65.35,58.62Z"/><path class="cls-5" d="M76.12,62.41c-.79.22-1.57.49-2.34.79a11.49,11.49,0,0,1-1.57-.37c-1.31-.42-2.61-.93-3.9-1.41-.37-.14-.74-.28-1.1-.45l1-.57c1.33.56,2.76,1,4,1.42A11.22,11.22,0,0,0,76.12,62.41Z"/><path class="cls-5" d="M85.9,61.49a.47.47,0,0,1,.35.26A19.64,19.64,0,0,0,82,61.44,9,9,0,0,1,78.41,59c-.51-.58-1-1.18-1.48-1.77L78.08,57c.66.83,1.22,1.54,1.35,1.69C81.08,60.54,83.56,61.06,85.9,61.49Z"/><path class="cls-5" d="M91.35,63.61a16,16,0,0,0-1.81-.89A16.55,16.55,0,0,1,88,60a12,12,0,0,1-.79-3l1,.21a11.91,11.91,0,0,0,.55,2.11A18.12,18.12,0,0,0,91.35,63.61Z"/><path class="cls-5" d="M95.27,66.76a34.67,34.67,0,0,1,.07-6.36c.31.21.62.44.92.68a29.71,29.71,0,0,0,.13,7C96,67.62,95.66,67.19,95.27,66.76Z"/><path class="cls-5" d="M100.24,76.39c-.17-.74-.37-1.47-.61-2.19.14-.79.28-1.59.41-2.38a18.71,18.71,0,0,1,1.33-5.14c.17.25.33.51.49.77,0,.07.08.15.13.22a21.8,21.8,0,0,0-1,4.67C100.71,73.69,100.47,75,100.24,76.39Z"/><path class="cls-5" d="M100.79,84.4c.07-.92.1-1.83.08-2.75a17.19,17.19,0,0,1,4.22-6c.08.38.16.75.22,1.13A19.29,19.29,0,0,0,100.79,84.4Z"/><path class="cls-5" d="M100.25,88.26a27.31,27.31,0,0,1,5.51-4.88c0,.41,0,.82-.07,1.23a26.25,26.25,0,0,0-6,5.91C99.91,89.78,100.09,89,100.25,88.26Z"/><path class="cls-5" d="M100.05,95.4a24.66,24.66,0,0,0-2.68,1c.23-.44.44-.88.65-1.33l1-.37c1.11-.39,2.22-.73,3.32-1.14.6-.22,1.18-.49,1.77-.75L103.73,94C102.52,94.48,101.3,95,100.05,95.4Z"/><path class="cls-5" d="M92.29,102.46a11.09,11.09,0,0,0,1.27-1,17.5,17.5,0,0,0,2.82-.26c1.57-.28,3.05-.87,4.58-1.3-.25.42-.51.82-.78,1.21-1.22.37-2.44.8-3.69,1.06A18.87,18.87,0,0,1,92.29,102.46Z"/><path class="cls-5" d="M89.81,106.91a16.42,16.42,0,0,1-3-2.49c.38,0,.76-.12,1.13-.2.32.29.61.53.7.62a11.51,11.51,0,0,0,2.42,1.68,5.57,5.57,0,0,0,2.82.6,16.8,16.8,0,0,1-1.65.81A8.66,8.66,0,0,1,89.81,106.91Z"/><path class="cls-5" d="M81.19,104.32c.44.07.87.12,1.31.16.36.56.72,1.12,1.09,1.67a6.58,6.58,0,0,0,3.8,3.12c-.66.09-1.34.15-2,.18a8.56,8.56,0,0,1-1.79-1.67A29.91,29.91,0,0,1,81.19,104.32Z"/><path class="cls-5" d="M75.9,103l1,.32a10.28,10.28,0,0,0,.7,3.43,6.77,6.77,0,0,0,1.44,2.1c-.52-.11-1-.22-1.55-.35a8,8,0,0,1-.54-.88A11,11,0,0,1,75.9,103Z"/><path class="cls-4" d="M74.54,108.9v0l-.06,0Z"/><path class="cls-4" d="M74.88,108.7l-.33.25v0l-.05.09.06,0,0,.43,0-.07a.45.45,0,0,1,.15-.69A.37.37,0,0,0,74.88,108.7Z"/><path class="cls-5" d="M69.42,100.1c.36.21.72.4,1.09.6a17,17,0,0,0,1.11,2.72c.46,1,.91,2,1.4,2.94a8.71,8.71,0,0,0,.58,1l-1-.35-.37-.15c-.35-.62-.62-1.14-.71-1.33C70.74,103.82,69.66,102,69.42,100.1Z"/><path class="cls-5" d="M63.29,100.57a20.27,20.27,0,0,1-.86-5.63c.33.31.67.61,1,.91a20.83,20.83,0,0,0,.76,4.37A11.88,11.88,0,0,0,66.28,104c-.69-.41-1.36-.83-2-1.28A9.16,9.16,0,0,1,63.29,100.57Z"/><path class="cls-4" d="M59.79,99.14l.61.54a.49.49,0,0,1-.31.36A2.23,2.23,0,0,0,59.79,99.14Z"/><path class="cls-4" d="M59.28,98.67a.45.45,0,0,0-.2,0c0-.1-.06-.19-.1-.29Z"/><path class="cls-5" d="M59.55,98.82a.52.52,0,0,0-.27-.15l-.3-.29a19.35,19.35,0,0,1-1.17-4.56A11.35,11.35,0,0,1,58.09,90l.8,1a11.7,11.7,0,0,0-.12,2.65,22.81,22.81,0,0,0,1.61,5.71.4.4,0,0,1,0,.26l-.61-.54A1.41,1.41,0,0,0,59.55,98.82Z"/><path class="cls-4" d="M59.48,99.77c-.13-.37-.27-.74-.4-1.1a.45.45,0,0,1,.2,0l.51.47a2.23,2.23,0,0,1,.3.9A.44.44,0,0,1,59.48,99.77Z"/><path class="cls-4" d="M59.55,98.82a1.41,1.41,0,0,1,.24.32l-.51-.47A.52.52,0,0,1,59.55,98.82Z"/><path class="cls-5" d="M39.27,24.86a10.29,10.29,0,0,1-.14,4.84c-.29-.17-.59-.32-.89-.47a10.19,10.19,0,0,0,.27-2.48,13.93,13.93,0,0,0-.45-2.81c.37.11.73.24,1.08.38C39.19,24.51,39.24,24.7,39.27,24.86Z"/><path class="cls-5" d="M43.16,26.46c.32.22.63.45.94.69A13.12,13.12,0,0,1,44,28.58a22.66,22.66,0,0,1-.86,3.64c0,.15-.09.3-.14.45-.24-.25-.49-.49-.74-.72.24-.85.44-1.72.62-2.55A12.87,12.87,0,0,0,43.16,26.46Z"/><path class="cls-5" d="M47.67,34.57a12.76,12.76,0,0,0,.42-3.37c.32.41.62.83.91,1.26a14.57,14.57,0,0,1-2.08,6.37c-.11-.28-.22-.55-.34-.82l-.15-.32A15.38,15.38,0,0,0,47.67,34.57Z"/><path class="cls-5" d="M50.86,41.84a17.47,17.47,0,0,0,.7-4.42c.29.75.54,1.51.77,2.28a21.59,21.59,0,0,1-.63,2.74,19.36,19.36,0,0,1-2,4.49c-.26.42-.56,1-.92,1.46q0-.78-.09-1.56c.32-.55.57-1.07.69-1.3A17.51,17.51,0,0,0,50.86,41.84Z"/><path class="cls-5" d="M53.54,46.92c.05.77.08,1.55.09,2.33-.35.76-.72,1.51-1.12,2.25a12.75,12.75,0,0,1-4.34,5.07c.06-.43.13-.85.19-1.28a13.32,13.32,0,0,0,3.26-4.18A32.33,32.33,0,0,0,53.54,46.92Z"/><path class="cls-5" d="M51.63,59.54c.44-.59.84-1.2,1.23-1.83-.13.78-.27,1.56-.41,2.34-.22.31-.46.62-.7.93a26.46,26.46,0,0,1-3.4,3.54,6.55,6.55,0,0,1-1.57,1.08c0-.37.08-.75.13-1.12a12.2,12.2,0,0,0,2-1.83A25.64,25.64,0,0,0,51.63,59.54Z"/><path class="cls-5" d="M51.39,68.82c0,.65,0,1.3,0,1.94l-.15.25A12.1,12.1,0,0,1,47,75c0-.35-.1-.7-.14-1a11.64,11.64,0,0,0,4.56-5.13Z"/><path class="cls-5" d="M51.71,74c.08.52.16,1,.26,1.56-.69,1.23-1.44,2.42-2.25,3.58a11.76,11.76,0,0,1-1.47,1.74q-.16-.52-.3-1a20.85,20.85,0,0,0,1.66-2.24A34.71,34.71,0,0,0,51.71,74Z"/></svg>