<svg id="बटन" xmlns="http://www.w3.org/2000/svg" viewBox="0 0 150 160"><defs><style>.cls-1{fill:#f2f2f2;stroke:#fff;stroke-miterlimit:10;stroke-width:5px;}.cls-2{fill:#b2449d;}.cls-3{fill:#ea54c5;}.cls-4{fill:#ea55c5;}.cls-5{fill:#ea56c6;}.cls-6{fill:#ea57c6;}.cls-7{fill:#ea58c6;}.cls-8{fill:#ea59c7;}.cls-9{fill:#ea5ac7;}.cls-10{fill:#ea5bc8;}.cls-11{fill:#ea5cc8;}.cls-12{fill:#ea5dc8;}.cls-13{fill:#ea5fc9;}.cls-14{fill:#ea60c9;}.cls-15{fill:#ea61c9;}.cls-16{fill:#ea62ca;}.cls-17{fill:#ea63ca;}.cls-18{fill:#ea64cb;}.cls-19{fill:#ea65cb;}.cls-20{fill:#ea66cb;}.cls-21{fill:#ea67cc;}.cls-22{fill:#ea68cc;}.cls-23{fill:#ea69cc;}.cls-24{fill:#ea6acd;}.cls-25{fill:#ea6bcd;}.cls-26{fill:#ea6ccd;}.cls-27{fill:#ea6dce;}.cls-28{fill:#ea6ece;}.cls-29{fill:#ea6fce;}.cls-30{fill:#ea70cf;}.cls-31{fill:#ea71cf;}.cls-32{fill:#ea72d0;}.cls-33{fill:#ea73d0;}.cls-34{fill:#ea74d0;}.cls-35{fill:#ea75d1;}.cls-36{fill:#ea76d1;}.cls-37{fill:#ea77d1;}.cls-38{fill:#ea78d2;}.cls-39{fill:#ea79d2;}.cls-40{fill:#ea7ad2;}.cls-41{fill:#ea7bd3;}.cls-42{fill:#ea7cd3;}.cls-43{fill:#ea7dd3;}.cls-44{fill:#ea7ed4;}.cls-45{fill:#ea7fd4;}.cls-46{fill:#f5b8e8;}.cls-47{fill:#531f49;}</style></defs><path class="cls-1" d="M125.85,38.2c0-.63,0-1.26-.09-1.87,0,0,0,0,0-.07l0-.19c-.06-.51-.14-1-.24-1.49,0-.16-.06-.33-.1-.49s0-.08,0-.12c-.11-.46-.24-.91-.38-1.36-.06-.18-.12-.35-.19-.53s-.1-.32-.16-.48-.17-.4-.26-.6-.14-.35-.22-.52c-.19-.42-.4-.84-.63-1.25l-.07-.12c-.11-.19-.23-.37-.35-.56s-.37-.58-.56-.86l-.43-.59c0-.07-.11-.16-.17-.23s-.29-.34-.43-.52l-.5-.58c-.38-.42-.78-.82-1.2-1.21l-.07-.06c-.21-.19-.45-.36-.67-.54s-.52-.45-.8-.65c-.52-.38-1.06-.73-1.62-1.06l-.21-.11c-.34-.19-.68-.38-1-.55l-.92-.41a18.33,18.33,0,0,0-7.08-1.41H42.59a18.43,18.43,0,0,0-4.61.59c-.5.13-1,.27-1.45.44-.25.08-.49.17-.73.27a17.72,17.72,0,0,0-2.24,1.07,18.49,18.49,0,0,0-3.3,2.36,19,19,0,0,0-2.2,2.37,18,18,0,0,0-1.58,2.36,19.7,19.7,0,0,0-1.11,2.37,18.63,18.63,0,0,0-1.13,4.73c-.06.62-.1,1.25-.1,1.89v75.09a18.44,18.44,0,0,0,18.45,18.44h64.82a18.44,18.44,0,0,0,18.45-18.44V44.12h0V38.2Z"/><path class="cls-2" d="M125.36,107.29a19.12,19.12,0,0,1-.73,2.37,18.41,18.41,0,0,1-2.69,4.73,18.47,18.47,0,0,1-5.5,4.73,18.38,18.38,0,0,1-9,2.36H42.59a18.38,18.38,0,0,1-9-2.36,18.47,18.47,0,0,1-5.5-4.73,18.41,18.41,0,0,1-2.69-4.73,19.12,19.12,0,0,1-.73-2.37,18.45,18.45,0,0,1-.4-2.36c-.06-.62-.1-1.25-.1-1.89v10.27a18.44,18.44,0,0,0,18.45,18.44h64.82a18.44,18.44,0,0,0,18.45-18.44V103c0,.64,0,1.27-.1,1.89A18.45,18.45,0,0,1,125.36,107.29Z"/><path class="cls-3" d="M42.59,121.48h64.82a18.38,18.38,0,0,0,9-2.36H33.56A18.38,18.38,0,0,0,42.59,121.48Z"/><path class="cls-4" d="M33.56,119.12h82.88a18.05,18.05,0,0,0,3.3-2.37H30.26A18.05,18.05,0,0,0,33.56,119.12Z"/><path class="cls-5" d="M30.26,116.75h89.48a18.2,18.2,0,0,0,2.2-2.36H28.06A18.2,18.2,0,0,0,30.26,116.75Z"/><path class="cls-6" d="M28.06,114.39h93.88a18.78,18.78,0,0,0,1.58-2.37h-97A18.78,18.78,0,0,0,28.06,114.39Z"/><path class="cls-7" d="M26.48,112h97a18.87,18.87,0,0,0,1.11-2.36H25.37A18.87,18.87,0,0,0,26.48,112Z"/><path class="cls-8" d="M25.37,109.66h99.26a19.12,19.12,0,0,0,.73-2.37H24.64A19.12,19.12,0,0,0,25.37,109.66Z"/><path class="cls-9" d="M125.36,107.29a18.45,18.45,0,0,0,.4-2.36H24.24a18.45,18.45,0,0,0,.4,2.36Z"/><path class="cls-10" d="M24.14,103c0,.64,0,1.27.1,1.89H125.76c.06-.62.1-1.25.1-1.89v-.48H24.14Z"/><path class="cls-11" d="M77.48,100.77h-5a2.06,2.06,0,0,1-1.42-.57h-47v2.36H125.86V100.2h-47A2.06,2.06,0,0,1,77.48,100.77Z"/><path class="cls-12" d="M70.47,98.72v-.89H24.14v2.37h47A2.09,2.09,0,0,1,70.47,98.72Z"/><path class="cls-12" d="M79.53,98.72a2.09,2.09,0,0,1-.63,1.48h47V97.83H79.53Z"/><polygon class="cls-13" points="70.47 96.02 70.47 95.47 24.14 95.47 24.14 97.83 70.47 97.83 70.47 96.02"/><polygon class="cls-13" points="79.53 96.02 79.53 97.83 125.86 97.83 125.86 95.47 79.53 95.47 79.53 96.02"/><path class="cls-14" d="M70.47,93.44c-.44-.1-.87-.21-1.3-.34H61.63l-1.38,1.38a2.05,2.05,0,0,1-2.9,0L56,93.1H24.14v2.37H70.47Z"/><path class="cls-14" d="M92.65,94.48a2,2,0,0,1-2.89,0L88.37,93.1H80.83c-.43.13-.86.24-1.3.34v2h46.33V93.1H94Z"/><path class="cls-15" d="M61.63,93.1h7.54A20.82,20.82,0,0,1,64,90.75Z"/><path class="cls-15" d="M96.16,91,94,93.1h31.82V90.73H96.36A2.43,2.43,0,0,1,96.16,91Z"/><path class="cls-15" d="M80.83,93.1h7.54L86,90.75A20.82,20.82,0,0,1,80.83,93.1Z"/><path class="cls-15" d="M53.84,91a2.43,2.43,0,0,1-.2-.25H24.14V93.1H56Z"/><path class="cls-16" d="M96.36,90.73h29.5V88.37H96.4A2,2,0,0,1,96.36,90.73Z"/><path class="cls-16" d="M53.6,88.37H24.14v2.36h29.5A2,2,0,0,1,53.6,88.37Z"/><path class="cls-17" d="M53.76,88.18A2,2,0,0,1,53.42,86H24.14v2.37H53.6A1.46,1.46,0,0,1,53.76,88.18Z"/><path class="cls-17" d="M96.24,88.18a1.46,1.46,0,0,1,.16.19h29.46V86H96.58A2,2,0,0,1,96.24,88.18Z"/><path class="cls-18" d="M96.16,85.38a2.27,2.27,0,0,1,.42.62h29.28V83.64H94.41Z"/><path class="cls-18" d="M53.84,85.38l1.75-1.74H24.14V86H53.42A2.27,2.27,0,0,1,53.84,85.38Z"/><path class="cls-19" d="M93.4,82.62l1,1h31.45V81.27H94Q93.73,82,93.4,82.62Z"/><path class="cls-19" d="M56.6,82.62Q56.27,82,56,81.27H24.14v2.37H55.59Z"/><path class="cls-19" d="M75,82.84a12.13,12.13,0,0,0,6-1.57H69A12.13,12.13,0,0,0,75,82.84Z"/><path class="cls-20" d="M94,81.27h31.83V78.91h-31A20.53,20.53,0,0,1,94,81.27Z"/><path class="cls-20" d="M69,81.27H81a12.66,12.66,0,0,0,3-2.36H66A12.66,12.66,0,0,0,69,81.27Z"/><path class="cls-20" d="M55.15,78.91h-31v2.36H56A20.53,20.53,0,0,1,55.15,78.91Z"/><path class="cls-21" d="M66,78.91H84a12.54,12.54,0,0,0,1.71-2.37H64.31A12.54,12.54,0,0,0,66,78.91Z"/><path class="cls-21" d="M54.88,77.85H49.61a2,2,0,0,1-1.91-1.31H24.14v2.37h31C55.05,78.56,55,78.21,54.88,77.85Z"/><path class="cls-21" d="M100.4,77.85H95.12c-.08.36-.17.71-.27,1.06h31V76.54H102.3A2,2,0,0,1,100.4,77.85Z"/><path class="cls-22" d="M47.56,75.8V74.18H24.14v2.36H47.7A2,2,0,0,1,47.56,75.8Z"/><path class="cls-22" d="M85.69,76.54a12,12,0,0,0,1-2.36H63.31a12,12,0,0,0,1,2.36Z"/><path class="cls-22" d="M102.45,75.8a2,2,0,0,1-.15.74h23.56V74.18H102.45Z"/><path class="cls-23" d="M62.88,71.81a1,1,0,0,1,0,.17,13.41,13.41,0,0,0,.45,2.2H86.69a13.41,13.41,0,0,0,.45-2.2,1,1,0,0,1,0-.17Z"/><polygon class="cls-23" points="102.44 73.11 102.44 74.18 125.86 74.18 125.86 71.81 102.44 71.81 102.44 73.11"/><polygon class="cls-23" points="47.55 73.11 47.55 71.81 24.14 71.81 24.14 74.18 47.55 74.18 47.55 73.11"/><polygon class="cls-24" points="47.55 70.85 47.55 69.45 24.14 69.45 24.14 71.81 47.55 71.81 47.55 70.85"/><path class="cls-24" d="M62.88,71.81H87.12a12.1,12.1,0,0,0-.54-2.36H63.42A12.1,12.1,0,0,0,62.88,71.81Z"/><polygon class="cls-24" points="102.44 70.85 102.44 71.81 125.86 71.81 125.86 69.45 102.44 69.45 102.44 70.85"/><path class="cls-25" d="M47.56,68.15a2.05,2.05,0,0,1,.3-1.07H24.14v2.37H47.56Z"/><path class="cls-25" d="M63.42,69.45H86.58a12.12,12.12,0,0,0-1.08-2.37h-21A12.12,12.12,0,0,0,63.42,69.45Z"/><path class="cls-25" d="M102.45,68.15v1.3h23.41V67.08H102.14A2.06,2.06,0,0,1,102.45,68.15Z"/><path class="cls-26" d="M95.12,66.1h5.28a2,2,0,0,1,1.74,1h23.72V64.72H94.75C94.89,65.17,95,65.63,95.12,66.1Z"/><path class="cls-26" d="M64.5,67.08h21a12.07,12.07,0,0,0-1.84-2.36H66.34A12.07,12.07,0,0,0,64.5,67.08Z"/><path class="cls-26" d="M49.61,66.1h5.27c.11-.47.23-.93.37-1.38H24.14v2.36H47.86A2,2,0,0,1,49.61,66.1Z"/><path class="cls-27" d="M94.75,64.72h31.11V62.35h-32A18.57,18.57,0,0,1,94.75,64.72Z"/><path class="cls-27" d="M66.34,64.72H83.66a12,12,0,0,0-3.3-2.37H69.64A12,12,0,0,0,66.34,64.72Z"/><path class="cls-27" d="M56.12,62.35h-32v2.37H55.25A18.57,18.57,0,0,1,56.12,62.35Z"/><path class="cls-28" d="M75,61.11a12.2,12.2,0,0,0-5.36,1.24H80.36A12.2,12.2,0,0,0,75,61.11Z"/><path class="cls-28" d="M56.6,61.33,55.26,60H24.14v2.37h32Q56.35,61.84,56.6,61.33Z"/><path class="cls-28" d="M93.4,61.33c.17.33.33.68.48,1h32V60H94.74Z"/><path class="cls-29" d="M53.84,58.57a2,2,0,0,1-.53-1H24.14V60H55.26Z"/><path class="cls-29" d="M96.16,58.57,94.74,60h31.12V57.62H96.69A2,2,0,0,1,96.16,58.57Z"/><path class="cls-30" d="M24.14,55.25V57a16.32,16.32,0,0,1,.09-1.71Z"/><path class="cls-30" d="M125.86,57V55.25h-.09A16.32,16.32,0,0,1,125.86,57Z"/><path class="cls-30" d="M96.58,55.25a1.94,1.94,0,0,1-.34.52,2,2,0,0,1,.45,1.85h29.17V57a16.32,16.32,0,0,0-.09-1.71Z"/><path class="cls-30" d="M53.76,55.77a1.94,1.94,0,0,1-.34-.52H24.23A16.32,16.32,0,0,0,24.14,57v.66H53.31A2,2,0,0,1,53.76,55.77Z"/><path class="cls-31" d="M125.77,55.25h.09V52.89h-.46A18.41,18.41,0,0,1,125.77,55.25Z"/><path class="cls-31" d="M24.6,52.89h-.46v2.36h.09A18.41,18.41,0,0,1,24.6,52.89Z"/><path class="cls-31" d="M86.34,52.89h-.85l.53.32Z"/><path class="cls-31" d="M96.16,53a2,2,0,0,1,.42,2.28h29.19a18.41,18.41,0,0,0-.37-2.36H96.07Z"/><path class="cls-31" d="M64,53.21l.53-.32h-.85Z"/><path class="cls-31" d="M53.84,53l.09-.08H24.6a18.41,18.41,0,0,0-.37,2.36H53.42A2,2,0,0,1,53.84,53Z"/><path class="cls-32" d="M25.3,50.52H24.14v2.37h.46A19,19,0,0,1,25.3,50.52Z"/><path class="cls-32" d="M125.4,52.89h.46V50.52H124.7A19,19,0,0,1,125.4,52.89Z"/><path class="cls-32" d="M56.29,50.52h-31a19,19,0,0,0-.7,2.37H53.93Z"/><path class="cls-32" d="M96.07,52.89H125.4a19,19,0,0,0-.7-2.37h-31Z"/><path class="cls-32" d="M86.34,52.89l2.36-2.37H79.58a20.34,20.34,0,0,1,5.91,2.37Z"/><path class="cls-32" d="M64.51,52.89a20.34,20.34,0,0,1,5.91-2.37H61.3l2.36,2.37Z"/><path class="cls-33" d="M125.86,48.49v-.33h0C125.85,48.27,125.86,48.38,125.86,48.49Z"/><path class="cls-33" d="M24.14,48.16v.33c0-.11,0-.22,0-.33Z"/><path class="cls-33" d="M123.62,48.16a20.12,20.12,0,0,1,1.08,2.36h1.16v-2c0-.11,0-.22,0-.33Z"/><path class="cls-33" d="M26.38,48.16H24.15c0,.11,0,.22,0,.33v2H25.3A20.12,20.12,0,0,1,26.38,48.16Z"/><path class="cls-33" d="M79.53,50.51H88.7l1.06-1.05a2,2,0,0,1,2.89,0l1.06,1.05h31a20.12,20.12,0,0,0-1.08-2.36H79.53Z"/><path class="cls-33" d="M57.35,49.47a2.05,2.05,0,0,1,2.9,0l1,1.05h9.17V48.16H26.38a20.12,20.12,0,0,0-1.08,2.36h31Z"/><path class="cls-34" d="M125.85,48.16h0V45.79h-.2A20.65,20.65,0,0,1,125.85,48.16Z"/><path class="cls-34" d="M24.34,45.79h-.2v2.37h0A20.65,20.65,0,0,1,24.34,45.79Z"/><path class="cls-34" d="M123.62,48.16h2.23a20.65,20.65,0,0,0-.19-2.37h-3.57A18.42,18.42,0,0,1,123.62,48.16Z"/><path class="cls-34" d="M24.34,45.79a20.65,20.65,0,0,0-.19,2.37h2.23a18.42,18.42,0,0,1,1.53-2.37Z"/><path class="cls-34" d="M79.53,45.79v2.37h44.09a18.42,18.42,0,0,0-1.53-2.37Z"/><path class="cls-34" d="M70.47,47.93V45.79H27.91a18.42,18.42,0,0,0-1.53,2.37H70.47Z"/><path class="cls-35" d="M24.85,43.43h-.69c0,.23,0,.46,0,.69v-.69h0v2.36h.2A18.32,18.32,0,0,1,24.85,43.43Z"/><path class="cls-35" d="M125.15,43.43a18.32,18.32,0,0,1,.51,2.36h.2V44.12c0-.23,0-.46,0-.69Z"/><path class="cls-35" d="M122.09,45.79h3.57a18.32,18.32,0,0,0-.51-2.36h-5.21A18.53,18.53,0,0,1,122.09,45.79Z"/><path class="cls-35" d="M30.06,43.43H24.85a18.32,18.32,0,0,0-.51,2.36h3.57A18.53,18.53,0,0,1,30.06,43.43Z"/><path class="cls-35" d="M71.57,43.43H30.06a18.53,18.53,0,0,0-2.15,2.36H70.47v-.56A2,2,0,0,1,71.57,43.43Z"/><path class="cls-35" d="M79.53,45.23v.56h42.56a18.53,18.53,0,0,0-2.15-2.36H78.43A2,2,0,0,1,79.53,45.23Z"/><rect class="cls-36" x="24.14" y="41.06" height="2.37"/><path class="cls-36" d="M124.29,41.06a18.53,18.53,0,0,1,.86,2.37h.69a18.29,18.29,0,0,0-.24-2.37Z"/><path class="cls-36" d="M24.4,41.06a18.29,18.29,0,0,0-.24,2.37h.69a18.53,18.53,0,0,1,.86-2.37Z"/><path class="cls-36" d="M116.76,41.06a18.91,18.91,0,0,1,3.18,2.37h5.21a18.53,18.53,0,0,0-.86-2.37Z"/><path class="cls-36" d="M33.24,41.06H25.71a18.53,18.53,0,0,0-.86,2.37h5.21A18.91,18.91,0,0,1,33.24,41.06Z"/><path class="cls-36" d="M30.06,43.43H71.57a2.07,2.07,0,0,1,1-.25h5a2.07,2.07,0,0,1,1,.25h41.51a18.91,18.91,0,0,0-3.18-2.37H33.24A18.91,18.91,0,0,0,30.06,43.43Z"/><path class="cls-37" d="M124.29,41.06h1.31A18,18,0,0,0,125,38.7h-2A18.32,18.32,0,0,1,124.29,41.06Z"/><path class="cls-37" d="M25,38.7a18,18,0,0,0-.56,2.36h1.31A18.32,18.32,0,0,1,27,38.7Z"/><rect class="cls-37" x="24.14" y="38.7" height="2.37"/><path class="cls-37" d="M27,38.7a18.32,18.32,0,0,0-1.25,2.36h7.53A18.41,18.41,0,0,1,40,38.7Z"/><path class="cls-37" d="M110,38.7a18.48,18.48,0,0,1,6.8,2.36h7.53A18.32,18.32,0,0,0,123,38.7Z"/><path class="cls-37" d="M40,38.7a18.41,18.41,0,0,0-6.8,2.36h83.52A18.48,18.48,0,0,0,110,38.7Z"/><path class="cls-38" d="M24.14,38.22c0-.64,0-1.27.1-1.89h0c-.06.62-.1,1.25-.1,1.89v.48h0Z"/><path class="cls-38" d="M28.72,36.33H25.87A18.72,18.72,0,0,0,25,38.7h2A19.66,19.66,0,0,1,28.72,36.33Z"/><path class="cls-38" d="M123,38.7h2a18.72,18.72,0,0,0-.91-2.37h-2.86A18.73,18.73,0,0,1,123,38.7Z"/><path class="cls-38" d="M27,38.7H40a17.8,17.8,0,0,1,2.55-.18h64.82a17.8,17.8,0,0,1,2.55.18H123a18.73,18.73,0,0,0-1.77-2.37H28.72A19.66,19.66,0,0,0,27,38.7Z"/><path class="cls-38" d="M42.59,38.52A17.8,17.8,0,0,0,40,38.7H110a17.8,17.8,0,0,0-2.55-.18Z"/><path class="cls-39" d="M121.27,36.33h2.86A18.81,18.81,0,0,0,122.8,34h-4A17.46,17.46,0,0,1,121.27,36.33Z"/><path class="cls-39" d="M31.23,34h-4a18.81,18.81,0,0,0-1.33,2.36h2.85A18.08,18.08,0,0,1,31.23,34Z"/><path class="cls-39" d="M24.64,34h0a18.45,18.45,0,0,0-.4,2.36h0A18.16,18.16,0,0,1,24.64,34Z"/><path class="cls-39" d="M28.72,36.33h92.55a17.46,17.46,0,0,0-2.5-2.36H31.23A18.08,18.08,0,0,0,28.72,36.33Z"/><path class="cls-40" d="M118.77,34h4A18.4,18.4,0,0,0,121,31.6h-6.12A18.09,18.09,0,0,1,118.77,34Z"/><path class="cls-40" d="M25.37,31.6h0A18.61,18.61,0,0,0,24.64,34h0A18.61,18.61,0,0,1,25.37,31.6Z"/><path class="cls-40" d="M35.17,31.6H29.05A18.4,18.4,0,0,0,27.2,34h4A17.86,17.86,0,0,1,35.17,31.6Z"/><path class="cls-40" d="M118.77,34a18.09,18.09,0,0,0-3.94-2.37H35.17A17.86,17.86,0,0,0,31.23,34Z"/><path class="cls-41" d="M26.48,29.23h0a19.7,19.7,0,0,0-1.11,2.37h0A19.7,19.7,0,0,1,26.48,29.23Z"/><path class="cls-41" d="M29.05,31.6h6.12A18.36,18.36,0,0,1,42.59,30h64.82a18.36,18.36,0,0,1,7.42,1.56H121a19.34,19.34,0,0,0-2.66-2.37H31.71A19.34,19.34,0,0,0,29.05,31.6Z"/><path class="cls-41" d="M107.41,30H42.59a18.36,18.36,0,0,0-7.42,1.56h79.66A18.36,18.36,0,0,0,107.41,30Z"/><path class="cls-42" d="M28.06,26.87h0a18,18,0,0,0-1.58,2.36h0A18,18,0,0,1,28.06,26.87Z"/><path class="cls-42" d="M118.29,29.23a18.35,18.35,0,0,0-4.36-2.36H36.07a18.35,18.35,0,0,0-4.36,2.36Z"/><path class="cls-43" d="M30.26,24.5h0a19,19,0,0,0-2.2,2.37h0A19,19,0,0,1,30.26,24.5Z"/><path class="cls-43" d="M107.41,25.68H42.59a18.31,18.31,0,0,0-6.52,1.19h77.86A18.31,18.31,0,0,0,107.41,25.68Z"/><path class="cls-44" d="M33.56,22.14h0a18.49,18.49,0,0,0-3.3,2.36h0A18.49,18.49,0,0,1,33.56,22.14Z"/><path class="cls-44" d="M116.65,22.25l-.21-.11h0Z"/><path class="cls-45" d="M35.8,21.07a17.72,17.72,0,0,0-2.24,1.07h0A17.72,17.72,0,0,1,35.8,21.07Z"/><path class="cls-45" d="M116.44,22.14c-.34-.19-.68-.38-1-.55.35.17.69.36,1,.55Z"/><path class="cls-45" d="M42.59,19.77a18.44,18.44,0,0,0-6.06,1,18.44,18.44,0,0,1,6.06-1Z"/><path class="cls-46" d="M35.8,21.07c.24-.1.48-.19.73-.27C36.28,20.88,36,21,35.8,21.07Z"/><path class="cls-46" d="M125.86,38.22a18.44,18.44,0,0,0-6-13.66,19.33,19.33,0,0,1,3.71,4.67,19.7,19.7,0,0,1,1.11,2.37,18.63,18.63,0,0,1,1.13,4.73c.06.62.1,1.25.1,1.89v5.9h0Z"/><path class="cls-46" d="M119.81,24.56a19,19,0,0,0-3.16-2.31,19.08,19.08,0,0,1,3.09,2.25Z"/><path class="cls-46" d="M107.41,19.77h0a18.49,18.49,0,0,1,8,1.82A18.49,18.49,0,0,0,107.41,19.77Z"/><path class="cls-46" d="M24.14,44.12c0-.23,0-.46,0-.69h0Z"/><path class="cls-46" d="M125.84,43.43c0,.23,0,.46,0,.69v-.69Z"/><path class="cls-46" d="M24.14,41.06v2.37h0a18.29,18.29,0,0,1,.24-2.37Z"/><path class="cls-46" d="M125.84,43.43h0V41.06h-.26A18.29,18.29,0,0,1,125.84,43.43Z"/><path class="cls-46" d="M25,38.7h-.82v2.36h.26A18,18,0,0,1,25,38.7Z"/><path class="cls-46" d="M125.6,41.06h.26V38.7H125A18,18,0,0,1,125.6,41.06Z"/><path class="cls-46" d="M25.87,36.33H24.24c-.06.62-.1,1.25-.1,1.89v.48H25A18.72,18.72,0,0,1,25.87,36.33Z"/><path class="cls-46" d="M125,38.7h.82v-.48c0-.64,0-1.27-.1-1.89h-1.63A18.72,18.72,0,0,1,125,38.7Z"/><path class="cls-46" d="M124.13,36.33h1.63a18.45,18.45,0,0,0-.4-2.36H122.8A18.81,18.81,0,0,1,124.13,36.33Z"/><path class="cls-46" d="M27.2,34H24.64a18.16,18.16,0,0,0-.4,2.36h1.63A18.81,18.81,0,0,1,27.2,34Z"/><path class="cls-46" d="M29.05,31.6H25.37A18.61,18.61,0,0,0,24.64,34H27.2A18.4,18.4,0,0,1,29.05,31.6Z"/><path class="cls-46" d="M122.8,34h2.56a18.61,18.61,0,0,0-.73-2.37H121A18.4,18.4,0,0,1,122.8,34Z"/><path class="cls-46" d="M31.71,29.23H26.48a19.7,19.7,0,0,0-1.11,2.37h3.68A19.34,19.34,0,0,1,31.71,29.23Z"/><path class="cls-46" d="M121,31.6h3.68a19.7,19.7,0,0,0-1.11-2.37h-5.23A19.34,19.34,0,0,1,121,31.6Z"/><path class="cls-46" d="M118.29,29.23h5.23a18,18,0,0,0-1.58-2.36h-8A18.35,18.35,0,0,1,118.29,29.23Z"/><path class="cls-46" d="M36.07,26.87h-8a18,18,0,0,0-1.58,2.36h5.23A18.35,18.35,0,0,1,36.07,26.87Z"/><path class="cls-46" d="M30.26,24.5a19,19,0,0,0-2.2,2.37h8a18.31,18.31,0,0,1,6.52-1.19h64.82a18.31,18.31,0,0,1,6.52,1.19h8a17.89,17.89,0,0,0-2.13-2.31l-.07-.06Z"/><path class="cls-46" d="M33.56,22.14a18.49,18.49,0,0,0-3.3,2.36h89.48a19.08,19.08,0,0,0-3.09-2.25l-.21-.11Z"/><path class="cls-46" d="M116.44,22.14c-.34-.19-.68-.38-1-.55a18.49,18.49,0,0,0-8-1.82H42.59a18.44,18.44,0,0,0-6.06,1c-.25.08-.49.17-.73.27a17.72,17.72,0,0,0-2.24,1.07Z"/><path class="cls-46" d="M72.52,100.77h5a2.06,2.06,0,0,0,1.42-.57H71.1A2.06,2.06,0,0,0,72.52,100.77Z"/><path class="cls-46" d="M77.48,98.07h-5a2.06,2.06,0,0,1-1-.24h-1.1v.89a2.09,2.09,0,0,0,.63,1.48h7.8a2.09,2.09,0,0,0,.63-1.48v-.89h-1.1A2.06,2.06,0,0,1,77.48,98.07Z"/><path class="cls-46" d="M70.47,96v1.81h1.1A2,2,0,0,1,70.47,96Z"/><path class="cls-46" d="M78.43,97.83h1.1V96A2,2,0,0,1,78.43,97.83Z"/><path class="cls-46" d="M79.53,93.44c.44-.1.87-.21,1.3-.34h-1.3Z"/><path class="cls-46" d="M69.17,93.1c.43.13.86.24,1.3.34V93.1Z"/><path class="cls-46" d="M89.76,94.48a2,2,0,0,0,2.89,0L94,93.1H88.37Z"/><path class="cls-46" d="M57.35,94.48a2.05,2.05,0,0,0,2.9,0l1.38-1.38H56Z"/><path class="cls-46" d="M70.47,90.75l0,0H61.3l-1,1.06a2.05,2.05,0,0,1-2.9,0l-1.06-1.06H53.64a2.43,2.43,0,0,0,.2.25L56,93.1h5.67L64,90.75a20.82,20.82,0,0,0,5.19,2.35h1.3Z"/><path class="cls-46" d="M92.65,91.79a2,2,0,0,1-2.89,0L88.7,90.73H79.58l0,0V93.1h1.3A20.82,20.82,0,0,0,86,90.75l2.35,2.35H94L96.16,91a2.43,2.43,0,0,0,.2-.25H93.71Z"/><path class="cls-46" d="M70.42,90.73a20.6,20.6,0,0,1-5.91-2.36h-.85L61.3,90.73Z"/><path class="cls-46" d="M88.7,90.73l-2.36-2.36h-.85a20.6,20.6,0,0,1-5.91,2.36Z"/><path class="cls-46" d="M53.93,88.37H53.6a2,2,0,0,0,0,2.36h2.65Z"/><path class="cls-46" d="M93.71,90.73h2.65a2,2,0,0,0,0-2.36h-.33Z"/><path class="cls-46" d="M64,88.05l-.32.32h.85Z"/><path class="cls-46" d="M53.84,88.28l-.08-.1a1.46,1.46,0,0,0-.16.19h.33Z"/><path class="cls-46" d="M86,88.05l-.53.32h.85Z"/><path class="cls-46" d="M96.07,88.37h.33a1.46,1.46,0,0,0-.16-.19l-.08.1Z"/><path class="cls-46" d="M92.42,81.65l1,1q.33-.66.63-1.35H92.65Z"/><path class="cls-46" d="M57.35,81.27H56q.3.69.63,1.35l1-1Z"/><path class="cls-46" d="M92.65,81.27H94a20.53,20.53,0,0,0,.82-2.36h-1A21.14,21.14,0,0,1,92.65,81.27Z"/><path class="cls-46" d="M56.12,78.91h-1A20.53,20.53,0,0,0,56,81.27h1.38A21.14,21.14,0,0,1,56.12,78.91Z"/><path class="cls-46" d="M55.25,76.54H47.7a2,2,0,0,0,1.91,1.31h5.27c.08.36.17.71.27,1.06h1A19.75,19.75,0,0,1,55.25,76.54Z"/><path class="cls-46" d="M93.88,78.91h1c.1-.35.19-.7.27-1.06h5.28a2,2,0,0,0,1.9-1.31H94.75A19.75,19.75,0,0,1,93.88,78.91Z"/><path class="cls-46" d="M100.4,75.16H95.12c-.11.47-.23.93-.37,1.38h7.55a2,2,0,0,0,.15-.74V74.18h-.31A2.06,2.06,0,0,1,100.4,75.16Z"/><path class="cls-46" d="M54.88,75.16H49.61a2.07,2.07,0,0,1-1.75-1h-.3V75.8a2,2,0,0,0,.14.74h7.55C55.11,76.09,55,75.63,54.88,75.16Z"/><path class="cls-46" d="M62.84,71.81a1,1,0,0,1,0,.17,1,1,0,0,0,0-.17Z"/><path class="cls-46" d="M47.56,73.11v1.07h.3A2.08,2.08,0,0,1,47.56,73.11Z"/><path class="cls-46" d="M87.14,72a1,1,0,0,1,0-.17h0A1,1,0,0,0,87.14,72Z"/><path class="cls-46" d="M102.45,74.18V73.11a2.09,2.09,0,0,1-.31,1.07Z"/><path class="cls-46" d="M63.42,69.45h-.58c0,.39-.05.78-.05,1.18s0,.79.05,1.18h0A12.1,12.1,0,0,1,63.42,69.45Z"/><path class="cls-46" d="M87.12,71.81h0c0-.39,0-.78,0-1.18s0-.79,0-1.18h-.58A12.1,12.1,0,0,1,87.12,71.81Z"/><path class="cls-46" d="M64.5,67.08H63.31a12.28,12.28,0,0,0-.47,2.37h.58A12.12,12.12,0,0,1,64.5,67.08Z"/><path class="cls-46" d="M85.5,67.08a12.12,12.12,0,0,1,1.08,2.37h.58a12.28,12.28,0,0,0-.47-2.37Z"/><path class="cls-46" d="M86.69,67.08a12,12,0,0,0-1-2.36h-2a12.07,12.07,0,0,1,1.84,2.36Z"/><path class="cls-46" d="M64.31,64.72a12,12,0,0,0-1,2.36H64.5a12.07,12.07,0,0,1,1.84-2.36Z"/><path class="cls-46" d="M66.34,64.72a12,12,0,0,1,3.3-2.37H66a12.22,12.22,0,0,0-1.71,2.37Z"/><path class="cls-46" d="M83.66,64.72h2A12.22,12.22,0,0,0,84,62.35H80.36A12,12,0,0,1,83.66,64.72Z"/><path class="cls-46" d="M66,62.35h3.62a12.2,12.2,0,0,1,10.72,0H84A12.45,12.45,0,0,0,81,60H69A12.45,12.45,0,0,0,66,62.35Z"/><path class="cls-46" d="M55.26,60l1.34,1.35q.36-.69.75-1.35Z"/><path class="cls-46" d="M93.4,61.33,94.74,60H92.65Q93,60.64,93.4,61.33Z"/><path class="cls-46" d="M69,60H81a12.21,12.21,0,0,0-12,0Z"/><path class="cls-46" d="M57.58,59.61l-2-2H53.31a2,2,0,0,0,.53,1L55.26,60h2.09Z"/><path class="cls-46" d="M92.42,59.61l.23.37h2.09l1.42-1.41a2,2,0,0,0,.53-1H94.41Z"/><path class="cls-46" d="M94.41,57.62h2.28a2,2,0,0,0-.45-1.85l-.08.1Z"/><path class="cls-46" d="M53.84,55.87l-.08-.1a2,2,0,0,0-.45,1.85h2.28Z"/><path class="cls-47" d="M55.92,86h-2.5a2,2,0,0,0,.34,2.18l.08-.1Z"/><path class="cls-47" d="M96.16,88.08l.08.1A2,2,0,0,0,96.58,86h-2.5Z"/><path class="cls-47" d="M75,85.54a12.16,12.16,0,0,0,6.54-1.9H68.46A12.16,12.16,0,0,0,75,85.54Z"/><path class="cls-47" d="M92.42,84.34,94.08,86h2.5a2.27,2.27,0,0,0-.42-.62l-1.75-1.74H92.85C92.71,83.88,92.57,84.11,92.42,84.34Z"/><path class="cls-47" d="M57.58,84.34c-.15-.23-.29-.46-.43-.7H55.59l-1.75,1.74a2.27,2.27,0,0,0-.42.62h2.5Z"/><path class="cls-47" d="M94.41,83.64l-1-1c-.18.35-.36.69-.55,1Z"/><path class="cls-47" d="M75,82.84a12.13,12.13,0,0,1-6-1.57H65.73a12.35,12.35,0,0,0,2.73,2.37H81.54a12.35,12.35,0,0,0,2.73-2.37H81A12.13,12.13,0,0,1,75,82.84Z"/><path class="cls-47" d="M56.6,82.62l-1,1h1.56C57,83.31,56.78,83,56.6,82.62Z"/><path class="cls-47" d="M66,78.91H64.14a12.2,12.2,0,0,0,1.59,2.36H69A12.66,12.66,0,0,1,66,78.91Z"/><path class="cls-47" d="M84,78.91a12.66,12.66,0,0,1-3,2.36h3.28a12.2,12.2,0,0,0,1.59-2.36Z"/><path class="cls-47" d="M63.22,76.54a11.53,11.53,0,0,0,.92,2.37H66a12.54,12.54,0,0,1-1.71-2.37Z"/><path class="cls-47" d="M85.86,78.91a11.53,11.53,0,0,0,.92-2.37H85.69A12.54,12.54,0,0,1,84,78.91Z"/><path class="cls-47" d="M85.69,76.54h1.09a12.25,12.25,0,0,0,.4-2.36h-.49A12,12,0,0,1,85.69,76.54Z"/><path class="cls-47" d="M64.31,76.54a12,12,0,0,1-1-2.36h-.49a12.25,12.25,0,0,0,.4,2.36Z"/><path class="cls-47" d="M62.86,72a11.9,11.9,0,0,0-.07,1.34c0,.29,0,.57,0,.86h.49A13.41,13.41,0,0,1,62.86,72Z"/><path class="cls-47" d="M87.18,74.18c0-.29,0-.57,0-.86A11.9,11.9,0,0,0,87.14,72a13.41,13.41,0,0,1-.45,2.2Z"/><path class="cls-47" d="M47.56,69.45v1.4a2,2,0,0,1,.55-1.4Z"/><path class="cls-47" d="M102.45,70.85v-1.4h-.56A2,2,0,0,1,102.45,70.85Z"/><path class="cls-47" d="M49.61,68.8h5.27c.13-.59.29-1.16.47-1.72H47.86a2.05,2.05,0,0,0-.3,1.07v1.3h.55A2.06,2.06,0,0,1,49.61,68.8Z"/><path class="cls-47" d="M95.12,68.8h5.28a2.06,2.06,0,0,1,1.49.65h.56v-1.3a2.06,2.06,0,0,0-.31-1.07H94.65C94.83,67.64,95,68.21,95.12,68.8Z"/><path class="cls-47" d="M94.65,67.08h7.49a2,2,0,0,0-1.74-1H95.12c-.11-.47-.23-.93-.37-1.38h-1A17.75,17.75,0,0,1,94.65,67.08Z"/><path class="cls-47" d="M56.27,64.72h-1c-.14.45-.26.91-.37,1.38H49.61a2,2,0,0,0-1.75,1h7.49A19.23,19.23,0,0,1,56.27,64.72Z"/><path class="cls-47" d="M93.73,64.72h1a18.57,18.57,0,0,0-.87-2.37H92.45A19.32,19.32,0,0,1,93.73,64.72Z"/><path class="cls-47" d="M57.55,62.35H56.12a18.57,18.57,0,0,0-.87,2.37h1A19.32,19.32,0,0,1,57.55,62.35Z"/><path class="cls-47" d="M57.58,62.31l-1-1q-.26.51-.48,1h1.43Z"/><path class="cls-47" d="M92.45,62.35h1.43c-.15-.34-.31-.69-.48-1l-1,1Z"/><path class="cls-47" d="M86,55.9l.65-.65H84.91C85.29,55.46,85.66,55.67,86,55.9Z"/><path class="cls-47" d="M54.26,55.25h-.84a1.94,1.94,0,0,0,.34.52l.08-.1Z"/><path class="cls-47" d="M64,55.9c.36-.23.73-.44,1.11-.65H63.33Z"/><path class="cls-47" d="M96.16,55.67l.08.1a1.94,1.94,0,0,0,.34-.52h-.84Z"/><path class="cls-47" d="M96.16,53l-.09-.08H93.38l2.36,2.36h.84A2,2,0,0,0,96.16,53Z"/><path class="cls-47" d="M86.34,52.89l-.32.32-.53-.32h-6v.32a20,20,0,0,1,5.38,2h1.76L89,52.89Z"/><path class="cls-47" d="M56.62,52.89H53.93l-.09.08a2,2,0,0,0-.42,2.28h.84Z"/><path class="cls-47" d="M70.47,52.89h-6l-.53.32-.32-.32H61l2.36,2.36h1.76a20.28,20.28,0,0,1,5.38-2Z"/><path class="cls-47" d="M70.47,52.89V50.52h0a20.34,20.34,0,0,0-5.91,2.37Z"/><path class="cls-47" d="M60.25,52.17l.72.72h2.69L61.3,50.52h-5l-2.36,2.37h2.69l.73-.72A2,2,0,0,1,60.25,52.17Z"/><path class="cls-47" d="M79.53,52.89h6a20.34,20.34,0,0,0-5.91-2.37h0Z"/><path class="cls-47" d="M89,52.89l.73-.72a2,2,0,0,1,2.89,0l.73.72h2.69l-2.36-2.37h-5l-2.36,2.37Z"/><path class="cls-47" d="M79.58,50.52h0Z"/><path class="cls-47" d="M70.47,50.51h0Z"/><path class="cls-47" d="M60.25,49.47a2.05,2.05,0,0,0-2.9,0l-1.06,1.05h5Z"/><path class="cls-47" d="M92.65,49.47a2,2,0,0,0-2.89,0L88.7,50.52h5Z"/><path class="cls-47" d="M70.47,47.93a2.05,2.05,0,0,1,2-2h5a2.05,2.05,0,0,1,2,2V45.79H70.47Z"/><path class="cls-47" d="M78.43,43.43H71.57a2,2,0,0,0-1.1,1.8v.56h9.06v-.56A2,2,0,0,0,78.43,43.43Z"/><path class="cls-47" d="M77.48,43.18h-5a2.07,2.07,0,0,0-1,.25h6.86A2.07,2.07,0,0,0,77.48,43.18Z"/><path class="cls-47" d="M77.48,98.07a2.06,2.06,0,0,0,1-.24H71.57a2.06,2.06,0,0,0,1,.24Z"/><path class="cls-47" d="M70.47,96a2,2,0,0,0,1.1,1.81h6.86A2,2,0,0,0,79.53,96v-.55H70.47Z"/><polygon class="cls-47" points="70.47 93.1 70.47 93.44 70.47 95.47 79.53 95.47 79.53 93.44 79.53 93.1 70.47 93.1"/><path class="cls-47" d="M70.47,90.75V93.1h9.06V90.75l0,0H70.42Z"/><path class="cls-47" d="M57.35,91.79a2.05,2.05,0,0,0,2.9,0l1-1.06h-5Z"/><path class="cls-47" d="M89.76,91.79a2,2,0,0,0,2.89,0l1.06-1.06h-5Z"/><path class="cls-47" d="M79.58,90.73a20.6,20.6,0,0,0,5.91-2.36h-21a20.6,20.6,0,0,0,5.91,2.36Z"/><polygon class="cls-47" points="61.3 90.73 63.66 88.37 53.93 88.37 56.29 90.73 61.3 90.73"/><polygon class="cls-47" points="93.71 90.73 96.07 88.37 86.34 88.37 88.7 90.73 93.71 90.73"/><path class="cls-47" d="M94.08,86H55.92l-2.08,2.08-.08.1.08.1.09.09h9.73l.32-.32.53.32h21l.53-.32.32.32h9.73l.09-.09.08-.1-.08-.1Z"/><path class="cls-47" d="M68.46,83.64H57.15c.14.24.28.47.43.7L55.92,86H94.08l-1.66-1.66c.15-.23.29-.46.43-.7H81.54a12.21,12.21,0,0,1-13.08,0Z"/><path class="cls-47" d="M68.46,83.64a12.35,12.35,0,0,1-2.73-2.37H57.35l.23.38-1,1c.18.35.36.69.55,1Z"/><path class="cls-47" d="M92.65,81.27H84.27a12.35,12.35,0,0,1-2.73,2.37H92.85c.19-.33.37-.67.55-1l-1-1Z"/><path class="cls-47" d="M84.27,81.27h8.38a21.14,21.14,0,0,0,1.23-2.36h-8A12.2,12.2,0,0,1,84.27,81.27Z"/><path class="cls-47" d="M56.12,78.91a21.14,21.14,0,0,0,1.23,2.36h8.38a12.2,12.2,0,0,1-1.59-2.36Z"/><path class="cls-47" d="M63.22,76.54h-8a19.75,19.75,0,0,0,.87,2.37h8A11.53,11.53,0,0,1,63.22,76.54Z"/><path class="cls-47" d="M85.86,78.91h8a19.75,19.75,0,0,0,.87-2.37h-8A11.53,11.53,0,0,1,85.86,78.91Z"/><path class="cls-47" d="M94.75,76.54c.14-.45.26-.91.37-1.38h5.28a2.06,2.06,0,0,0,1.74-1h-15a12.25,12.25,0,0,1-.4,2.36Z"/><path class="cls-47" d="M62.82,74.18h-15a2.07,2.07,0,0,0,1.75,1h5.27c.11.47.23.93.37,1.38h8A12.25,12.25,0,0,1,62.82,74.18Z"/><path class="cls-47" d="M87.14,72a11.9,11.9,0,0,1,.07,1.34c0,.29,0,.57,0,.86h15a2.09,2.09,0,0,0,.31-1.07v-1.3H87.16A1,1,0,0,0,87.14,72Z"/><path class="cls-47" d="M62.82,74.18c0-.29,0-.57,0-.86A11.9,11.9,0,0,1,62.86,72a1,1,0,0,0,0-.17H47.56v1.3a2.08,2.08,0,0,0,.3,1.07Z"/><path class="cls-47" d="M87.16,69.45c0,.39,0,.78,0,1.18s0,.79,0,1.18h15.29v-1a2,2,0,0,0-.56-1.4Z"/><path class="cls-47" d="M62.79,70.63c0-.4,0-.79.05-1.18H48.11a2,2,0,0,0-.55,1.4v1H62.84C62.81,71.42,62.79,71,62.79,70.63Z"/><path class="cls-47" d="M55.35,67.08c-.18.56-.34,1.13-.47,1.72H49.61a2.06,2.06,0,0,0-1.5.65H62.84a12.28,12.28,0,0,1,.47-2.37Z"/><path class="cls-47" d="M87.16,69.45h14.73a2.06,2.06,0,0,0-1.49-.65H95.12c-.13-.59-.29-1.16-.47-1.72h-8A12.28,12.28,0,0,1,87.16,69.45Z"/><path class="cls-47" d="M86.69,67.08h8a17.75,17.75,0,0,0-.92-2.36h-8A12,12,0,0,1,86.69,67.08Z"/><path class="cls-47" d="M64.31,64.72h-8a19.23,19.23,0,0,0-.92,2.36h8A12,12,0,0,1,64.31,64.72Z"/><path class="cls-47" d="M66,62.35H57.55a19.32,19.32,0,0,0-1.28,2.37h8A12.22,12.22,0,0,1,66,62.35Z"/><path class="cls-47" d="M93.73,64.72a19.32,19.32,0,0,0-1.28-2.37H84a12.22,12.22,0,0,1,1.71,2.37Z"/><path class="cls-47" d="M57.55,62.35H66A12.45,12.45,0,0,1,69,60H57.35q-.39.66-.75,1.35l1,1Z"/><path class="cls-47" d="M81,60a12.45,12.45,0,0,1,3,2.37h8.47l0,0,1-1Q93,60.64,92.65,60Z"/><path class="cls-47" d="M57.35,60H69a12.21,12.21,0,0,1,12,0H92.65l-.23-.37,2-2H55.59l2,2Z"/><path class="cls-47" d="M95.74,55.25H86.67L86,55.9c-.36-.23-.73-.44-1.11-.65H65.09c-.38.21-.75.42-1.11.65l-.65-.65H54.26l-.42.42-.08.1.08.1,1.75,1.75H94.41l1.75-1.75.08-.1-.08-.1Z"/><polygon class="cls-47" points="86.67 55.25 95.74 55.25 93.38 52.89 89.03 52.89 86.67 55.25"/><path class="cls-47" d="M79.53,52.89H70.47v.32a20.28,20.28,0,0,0-5.38,2H84.91a20,20,0,0,0-5.38-2Z"/><polygon class="cls-47" points="56.62 52.89 54.26 55.25 63.33 55.25 60.97 52.89 56.62 52.89"/><path class="cls-47" d="M89.76,52.17l-.73.72h4.35l-.73-.72A2,2,0,0,0,89.76,52.17Z"/><path class="cls-47" d="M60.25,52.17a2,2,0,0,0-2.9,0l-.73.72H61Z"/><rect class="cls-47" x="70.47" y="50.52" width="9.06" height="2.37"/><polygon class="cls-47" points="70.47 50.51 70.47 50.52 79.53 50.52 79.53 50.51 79.53 48.16 70.47 48.16 70.47 50.51"/><path class="cls-47" d="M77.48,45.88h-5a2.05,2.05,0,0,0-2,2v.23h9.06v-.23A2.05,2.05,0,0,0,77.48,45.88Z"/></svg>