<svg xmlns="http://www.w3.org/2000/svg" viewBox="0 0 150 160"><defs><style>.cls-1{isolation:isolate;}.cls-2{fill:#fff;}.cls-3{fill:#ff21ff;}.cls-4{fill:#fb0dff;}.cls-10,.cls-12,.cls-14,.cls-15,.cls-5,.cls-7,.cls-9{opacity:0.68;}.cls-5{mix-blend-mode:multiply;}.cls-6{fill:#ea20ff;}.cls-7{fill:#ffa8f4;}.cls-10,.cls-12,.cls-7,.cls-9{mix-blend-mode:saturation;}.cls-8{fill:#fffde1;opacity:0.24;}.cls-9{fill:#b00062;}.cls-10,.cls-13{fill:#f300dd;}.cls-11{fill:#6f003b;opacity:0.37;}.cls-14{fill:#ff54dd;}.cls-14,.cls-15{mix-blend-mode:lighten;}.cls-15{fill:#ff92ba;}.cls-16{fill:#ffc728;}.cls-17{fill:#e08b20;}.cls-18{fill:#ffa028;}.cls-19{fill:#ffe35e;}.cls-20{fill:#ffd323;}.cls-21{fill:#ffb123;}.cls-22{fill:#fff74b;}</style></defs><g class="cls-1"><g id="गहना"><path class="cls-2" d="M124.92,98v-.36c0-.23,0-.46,0-.69A49.18,49.18,0,0,0,95.73,52.38,4.61,4.61,0,0,0,97,49.16V45.8a4.67,4.67,0,0,0-2.86-4.3l5.53-6.56L91.11,20.69,75,13.88,58.89,20.69,50.3,34.94l5.8,6.88a5.86,5.86,0,0,0-3,4.11l-.1,0v3.25a4.58,4.58,0,0,0,.87,2.7A47.18,47.18,0,0,0,25.06,95a46.42,46.42,0,0,0,.74,8.18c3.14,24.4,24.35,42.8,49.36,42.8l.84,0h.62l.83,0c26.19,0,47.49-21.07,47.49-47,0-.24,0-.48,0-.71ZM76.07,63l1.38,0a36.5,36.5,0,0,1,20.67,6.37A35.46,35.46,0,0,1,109.05,95c0,19.86-16.37,36-36.5,36A36.5,36.5,0,0,1,51.7,124.5,35.55,35.55,0,0,1,41,99,36.29,36.29,0,0,1,74,63.11l1,1.14Z"/><polygon class="cls-3" points="75 61.15 52.75 34.74 60.26 22.28 75 16.05 75 61.15"/><polygon class="cls-4" points="75 61.15 97.25 34.74 89.74 22.28 75 16.05 75 61.15"/><g class="cls-5"><polygon class="cls-6" points="63.88 34.74 60.26 22.28 53.66 35.82 75 61.15 97.25 34.74 89.74 22.28 89.74 34.74 75 61.15 75 34.74 63.88 34.74"/><polygon class="cls-6" points="80.31 22.28 89.74 22.28 89.74 22.28 75 16.05 80.31 22.28"/></g><polygon class="cls-7" points="97.25 34.74 97.25 34.74 89.74 22.28 75 16.05 60.26 22.28 52.75 34.74 52.75 34.74 97.25 34.74 97.25 34.74"/><polygon class="cls-8" points="60.26 22.28 60.26 22.28 89.74 22.28 89.74 22.28 75 16.05 60.26 22.28"/><polygon class="cls-9" points="72.26 34.74 80.31 22.28 89.74 34.74 75 61.15 72.26 34.74"/><polygon class="cls-10" points="66.69 22.28 75 16.05 75 22.28 66.69 22.28"/><polygon class="cls-10" points="60.26 34.74 64.91 22.28 72.26 34.74 60.26 34.74"/><polygon class="cls-11" points="75 61.15 56.9 34.74 60.26 22.28 60.26 22.28 52.75 34.74 75 61.15 75 61.15"/><g class="cls-12"><polygon class="cls-13" points="84.49 22.28 89.74 22.28 89.74 22.28 75 16.05 84.49 22.28"/><polygon class="cls-13" points="89.74 22.28 94.28 34.74 97.25 34.74 97.25 34.74 89.74 22.28"/></g><polygon class="cls-10" points="94.28 34.74 75 61.15 75 61.15 97.25 34.74 94.28 34.74"/><polygon class="cls-14" points="80.64 34.74 84.49 22.28 94.28 34.74 80.64 34.74"/><polygon class="cls-15" points="70.85 22.28 63.88 34.74 75 61.15 80.64 34.74 70.85 22.28"/><path class="cls-16" d="M72.55,139.89c-25.08,0-45.49-20.15-45.49-44.92S47.47,50.05,72.55,50.05,118,70.2,118,95,97.63,139.89,72.55,139.89Zm0-82.93C51.32,57,34.05,74,34.05,95s17.27,38,38.5,38,38.5-17.06,38.5-38S93.78,57,72.55,57Z"/><path class="cls-17" d="M77.45,144C52.37,144,32,123.78,32,99S52.37,54,77.45,54s45.49,20.17,45.49,45S102.53,144,77.45,144Zm0-83C56.22,60.94,39,78,39,99S56.22,137,77.45,137,116,120,116,99,98.68,60.94,77.45,60.94Z"/><path class="cls-18" d="M75.16,144c-26.34,0-47.77-21.08-47.77-47S48.82,50,75.16,50s47.78,21.08,47.78,47S101.51,144,75.16,144Zm0-86.75C52.87,57.2,34.73,75,34.73,97s18.14,39.76,40.43,39.76S115.6,118.89,115.6,97,97.46,57.2,75.16,57.2Z"/><path class="cls-19" d="M35.16,90.39A44.49,44.49,0,0,1,69.67,56a46.59,46.59,0,0,1,12.46-.9,1.54,1.54,0,0,0,.38-3,45.14,45.14,0,0,0-43.57,72.83,1.1,1.1,0,0,0,1.79-1.26A45.31,45.31,0,0,1,35.16,90.39Z"/><rect class="cls-20" x="54.97" y="43.15" width="40.06" height="8.66" rx="3.85"/><path class="cls-21" d="M93,43.23v2.69a2.65,2.65,0,0,1-2.65,2.65H55.63a2.84,2.84,0,0,1-.66-.08v.67a2.65,2.65,0,0,0,2.65,2.65H92.38A2.65,2.65,0,0,0,95,49.16V45.8A2.65,2.65,0,0,0,93,43.23Z"/><path class="cls-22" d="M89.12,47H58.9c-1.47,0-2.65-.71-2.65-1.59h0c0-.88,1.18-1.59,2.65-1.59H89.12c1.46,0,2.64.71,2.64,1.59h0C91.76,46.32,90.58,47,89.12,47Z"/></g></g></svg>