<svg id="त्रिशूल" xmlns="http://www.w3.org/2000/svg" viewBox="0 0 150 160"><defs><style>.cls-1,.cls-2{fill:#402004;}.cls-1{stroke:#fff;stroke-miterlimit:10;stroke-width:5px;}</style></defs><path class="cls-1" d="M89.12,33.1c-1.12-.51-4.26-3.73-5.81-7.86C81,19,82.52,14.56,81.94,14.42c-3,8-1.79,15.61,2.11,21.34C82.61,39,79.68,40.28,76.35,40l2.18-5.28A147.62,147.62,0,0,1,75,9.38c-.71,10.06-1.68,18.2-3.53,25.34L73.65,40c-3.36.28-6.26-1-7.7-4.24,3.92-5.76,5.1-13.41,2.11-21.34-.59.15,1,4.63-1.37,10.82-1.63,4.34-4.88,7.44-5.81,7.86-.85,3.58-.79,3.27-.78,3.29,3.17,5.9,8.46,7.78,13.6,6.37a1.45,1.45,0,0,0-.1.51,1.39,1.39,0,0,0,.84,1.28,1.68,1.68,0,0,0-.5,2.9V150.62h2.12V47.45a1.68,1.68,0,0,0-.5-2.9,1.39,1.39,0,0,0,.84-1.28,1.45,1.45,0,0,0-.1-.51c2.82.69,9.23,1.45,13.45-6.1a.78.78,0,0,0,.08-.58C89.74,35.71,89.55,34.89,89.12,33.1Z"/><path class="cls-2" d="M89.12,33.1c-1.12-.51-4.26-3.73-5.81-7.86C81,19,82.52,14.56,81.94,14.42c-3,8-1.79,15.61,2.11,21.34C82.61,39,79.68,40.28,76.35,40l2.18-5.28A147.62,147.62,0,0,1,75,9.38c-.71,10.06-1.68,18.2-3.53,25.34L73.65,40c-3.36.28-6.26-1-7.7-4.24,3.92-5.76,5.1-13.41,2.11-21.34-.59.15,1,4.63-1.37,10.82-1.63,4.34-4.88,7.44-5.81,7.86-.85,3.58-.79,3.27-.78,3.29,3.17,5.9,8.46,7.78,13.6,6.37a1.45,1.45,0,0,0-.1.51,1.39,1.39,0,0,0,.84,1.28,1.68,1.68,0,0,0-.5,2.9V150.62h2.12V47.45a1.68,1.68,0,0,0-.5-2.9,1.39,1.39,0,0,0,.84-1.28,1.45,1.45,0,0,0-.1-.51c2.86.7,9.38,1.47,13.6-6.37C89.91,36.37,90,36.68,89.12,33.1Z"/></svg>