<svg xmlns="http://www.w3.org/2000/svg" viewBox="0 0 150 160"><defs><style>.cls-1{isolation:isolate;}.cls-2,.cls-7{fill:#ffae55;}.cls-2{stroke:#fff;stroke-miterlimit:10;stroke-width:5px;}.cls-3{fill:#c47212;}.cls-4{fill:#d77d14;}.cls-5{fill:#e69632;}.cls-6{opacity:0.15;mix-blend-mode:overlay;}</style></defs><g class="cls-1"><g id="डिब्बा"><polygon class="cls-2" points="80.58 51.35 98.22 34.86 90.3 23.87 38.43 54.67 12.89 79.6 20.8 90.59 39.68 79.63 39.68 83.79 39.68 131.13 90.68 136.13 129.91 131.13 129.91 55.67 80.58 51.35"/><polygon class="cls-3" points="72.91 50.67 129.91 55.67 129.91 131.13 72.91 126.13 72.91 50.67"/><polygon class="cls-4" points="72.91 50.67 39.68 55.67 39.68 131.13 72.91 126.13 72.91 50.67"/><polygon class="cls-5" points="90.68 136.13 39.68 131.13 39.68 55.67 90.68 60.67 90.68 136.13"/><polygon class="cls-4" points="90.68 136.13 129.91 131.13 129.91 55.67 90.68 60.67 90.68 136.13"/><polygon class="cls-6" points="39.68 83.79 69.81 66.29 77.22 59.36 43.2 56.02 40.43 57.67 39.68 58.4 39.68 83.79"/><polygon class="cls-4" points="38.43 54.67 12.89 79.6 20.8 90.59 46.34 65.66 38.43 54.67"/><polygon class="cls-3" points="38.43 54.67 90.3 23.87 98.22 34.86 46.34 65.66 38.43 54.67"/><polygon class="cls-5" points="67.81 63.29 20.8 90.59 12.89 79.6 59.89 52.3 67.81 63.29"/><polygon class="cls-4" points="67.81 63.29 98.22 34.86 90.3 23.87 59.89 52.3 67.81 63.29"/><polygon class="cls-7" points="12.89 79.6 38.43 54.67 90.3 23.87 59.89 52.3 12.89 79.6"/></g></g></svg>