<svg id="जामुन" xmlns="http://www.w3.org/2000/svg" viewBox="0 0 150 160"><defs><style>.cls-1,.cls-10,.cls-13{fill:#fff;}.cls-1{stroke:#fff;stroke-miterlimit:10;stroke-width:4px;}.cls-2{fill:#849a31;}.cls-3{fill:#819332;}.cls-4{fill:#2d3142;}.cls-5{fill:#303448;}.cls-11,.cls-6,.cls-8,.cls-9{fill:#292a3b;}.cls-7{fill:#333951;}.cls-8{opacity:0.74;}.cls-9{opacity:0.52;}.cls-10{opacity:0.09;}.cls-11{opacity:0.28;}.cls-12{fill:#242533;}.cls-13{opacity:0.07;}</style></defs><path class="cls-1" d="M132.93,67.36c-2.11-1.46-5-2.28-7.31-3.24-2.71-1.09-5.35-2.39-8-3.47.16-.31.35-.61.5-.92.27-.54.53-1.09.77-1.65.08-.16.14-.33.22-.5.16-.4.33-.8.48-1.2l.21-.57c.15-.39.29-.79.42-1.19l.18-.55q.21-.68.39-1.35c0-.13.08-.26.11-.4.16-.6.3-1.2.43-1.8,0,0,0,0,0-.06.12-.57.22-1.14.32-1.71,0-.19,0-.37.08-.55.06-.42.12-.83.16-1.25,0-.22,0-.43.07-.65,0-.4.07-.79.1-1.19,0-.14,0-.27,0-.41s0-.33,0-.5v0a26.94,26.94,0,0,0-.55-8.39c-.07-.41-.14-.81-.23-1.22a1.94,1.94,0,0,0-.79-1.42l-.07,0-.09-.18-.1.12a2.63,2.63,0,0,0-1.43.15A55.92,55.92,0,0,0,90.8,53.49C84.1,43.36,70.65,38.84,58.91,41.76A28.39,28.39,0,0,0,44.12,51c-3.94,4.7-4.41,10.34-4.2,16.33L40,68c-3.72-1.21-7.46-2.36-11.31-3.21-6-1.33-12.12-1-18.13-1.85l.13.21c.43,1.07,1.26,6.15,1.46,6.81a53.54,53.54,0,0,0,2.79,7.4,46.79,46.79,0,0,0,8.43,12.5A50.75,50.75,0,0,0,34,98.55a27.65,27.65,0,0,0,.75,7c1.64,6.66,6,10.32,10.56,15a20.38,20.38,0,0,0,14.51,6.45,27.28,27.28,0,0,0,25.9-17.41,29.13,29.13,0,0,0,1.49-4.9,11,11,0,0,0,.69,1,23.26,23.26,0,0,0,17.55,8.68,39.73,39.73,0,0,0,12.87-2.32c5-1.58,9.95-3.68,13.46-7.52a30.09,30.09,0,0,0,5.11-8.73,29.41,29.41,0,0,0,2.55-9C139.86,81.25,137.83,70.77,132.93,67.36Z"/><path class="cls-2" d="M49.47,103.57c5.26.46,11.29-.2,16.06-3.92,5.41-4.22,4.23-11.39,1.18-16.06-4.77-7.3-12.34-11-20.11-13.47-6-1.9-11.82-4-18-5.38-6-1.33-12.12-1-18.13-1.85.36,0,1.37,6.28,1.59,7a53.54,53.54,0,0,0,2.79,7.4,46.79,46.79,0,0,0,8.43,12.5C30.57,97.43,38.75,102.62,49.47,103.57Z"/><path class="cls-2" d="M86.85,59.91a55.16,55.16,0,0,1,32-26.7,2.26,2.26,0,0,1,1.69-.07,1.94,1.94,0,0,1,.79,1.42,38.75,38.75,0,0,1-3.23,25.17A40.34,40.34,0,0,1,101.22,77c-6.47,3.48-14.38,5.88-16.57-2.7C83.36,69.24,84.48,64.54,86.85,59.91Z"/><path class="cls-3" d="M87.55,78.73c2,4.16,11.3-.44,13.67-1.71a40.34,40.34,0,0,0,16.91-17.29,38.59,38.59,0,0,0,4-15c.21-3.83.32-8.38-1.71-11.76-1.84,2.1-3,4.69-4.73,6.92L109.26,48,96.72,63.94c-1.94,2.47-3.89,4.94-5.71,7.5-1.14,1.59-4.35,4.88-3.58,7A1.48,1.48,0,0,0,87.55,78.73Z"/><path class="cls-4" d="M91.67,76.11a23.12,23.12,0,0,0,2.25-10.83c-.21-4-.34-7.25-2.52-10.89C84.92,43.61,71,38.75,58.91,41.76A28.39,28.39,0,0,0,44.12,51c-3.94,4.7-4.41,10.34-4.2,16.33.17,4.68.52,9.57,3,13.56,4.81,7.8,14,12.69,23.28,11,4.91-.86,9.69-.52,14.27-3.1a26.8,26.8,0,0,0,9.33-9.21A29.94,29.94,0,0,0,91.67,76.11Z"/><path class="cls-5" d="M105.44,114.42a39.73,39.73,0,0,0,12.87-2.32c5-1.58,9.95-3.68,13.46-7.52a30.09,30.09,0,0,0,5.11-8.73,29.41,29.41,0,0,0,2.55-9c.43-5.55-1.6-16-6.5-19.44-2.11-1.46-5-2.28-7.31-3.24-8-3.21-15.37-8.29-23.89-4a54.33,54.33,0,0,0-8.66,6,36,36,0,0,0-5.34,4.66C84,75.05,82.6,82.45,82.33,88a21.75,21.75,0,0,0,2,10.09c1.18,2.63,1.81,5.36,3.61,7.66A23.23,23.23,0,0,0,105.44,114.42Z"/><path class="cls-3" d="M68.11,96.65a9.78,9.78,0,0,1-2.58,3c-4.77,3.72-10.8,4.38-16.06,3.92-10.72-.95-18.9-6.14-26.15-13.76a46.79,46.79,0,0,1-8.43-12.5,53.54,53.54,0,0,1-2.79-7.4c-.22-.74-1.23-7-1.59-7,4.13,7.19,11.19,11.3,17.85,15.4C40.86,86,53.66,93.44,68.11,96.65Z"/><path class="cls-6" d="M104.07,69.4c.39-1,.72-2.34,1.79-2.61a3.17,3.17,0,0,1,1.4.09,10,10,0,0,0,7.2-1.44,1.85,1.85,0,0,1,1.36-.47c.82.21.81,1.35.85,2.2a6.32,6.32,0,0,0,2.48,4.44,18.59,18.59,0,0,0,4.59,2.51c-2.69.41-4.22,3.4-4.45,6.11a10.05,10.05,0,0,1-.34,2.45,2.27,2.27,0,0,1-1.72,1.61,2.66,2.66,0,0,1-1.9-.74c-1.5-1.21-2.65-3-4.53-3.44-2.31-.51-4.38,1.37-6.58,2.23a1.3,1.3,0,0,1-.72.12c-.57-.12-.75-.84-.85-1.42a10.86,10.86,0,0,0-1.25-3.5c-.37-.66-2.5-2.63-2.39-3.26s2.15-1.29,2.77-1.78A7.35,7.35,0,0,0,104.07,69.4Z"/><path class="cls-7" d="M39.86,81.33a24.18,24.18,0,0,0-4,7.23,29.69,29.69,0,0,0-1.09,17c1.64,6.66,6,10.32,10.56,15a20.38,20.38,0,0,0,14.51,6.45,27.28,27.28,0,0,0,25.9-17.41A30.2,30.2,0,0,0,86.36,89a23,23,0,0,0-11-13c-4.53-2.58-8.17-5.08-13.66-5.22a23.81,23.81,0,0,0-12.85,3.39A32.76,32.76,0,0,0,39.86,81.33Z"/><path class="cls-8" d="M39.37,98.79a7.56,7.56,0,0,1,2.24-1.92,4.53,4.53,0,0,0,1.94-2.17c.27-.84.2-2,1-2.35s1.5.24,1.79.94a7.54,7.54,0,0,1,.27,2.23,1.38,1.38,0,0,0,.22.7,1.1,1.1,0,0,0,.73.37c1.82.29,3.21-1.58,5-2.2a1.09,1.09,0,0,1,.59-.06c.49.14.54.82.4,1.31C53.09,97,52,98,51.31,99.19s-1,2.94.09,3.84c.84.71,2.07.56,3.17.49s2.42.16,2.84,1.18a2.18,2.18,0,0,1,.05,1.29,4.64,4.64,0,0,1-5.68,3.35,16.26,16.26,0,0,0-2.39-.86c-.84-.12-1.86.32-2,1.16,0,.26,0,.52,0,.78-.17.85-1.52.88-2.09.22a4.47,4.47,0,0,1-.68-2.48A2.61,2.61,0,0,0,43.49,106c-.88-.39-2.24,0-2.6-.89-.18-.43,0-.9.1-1.36C41.28,101.48,37.75,101.3,39.37,98.79Z"/><path class="cls-9" d="M128.67,89.76c-2,6.7-10.51,9.58-13.19,16.06a2.84,2.84,0,0,0-.12,2.44c.78,1.38,2.87.88,4.27.14a32.92,32.92,0,0,0,11.9-10.12c2.87-4.15,5.75-11,2.71-15.72C129.73,75.52,129.47,87.14,128.67,89.76Z"/><path class="cls-10" d="M91.53,72.14a2,2,0,0,1,2.67.36,4.25,4.25,0,0,1,.37,1.85c.34,3.17,3.46,5.5,3.85,8.66a.71.71,0,0,1-.09.54.76.76,0,0,1-.42.23,6.76,6.76,0,0,1-6.22-1.64C89.35,79.91,88.31,74.22,91.53,72.14Z"/><path class="cls-10" d="M43.39,82.56A1.66,1.66,0,0,0,43,83.62a1.26,1.26,0,0,0,.26.59c.8,1.05,2.43,1,3.62.47s2.13-1.53,3.27-2.19C54,80.24,58.94,82,63.38,81.43a6.29,6.29,0,0,0,3.3-1.29,3.21,3.21,0,0,0,1.13-3.21c-.41-1.38-1.88-2.13-3.26-2.54C57,72.18,47.68,76.15,43.39,82.56Z"/><path class="cls-11" d="M54.73,122.19a2.06,2.06,0,0,1-1.1-1.61c0-.94,1-1.52,1.92-1.85,3-1.1,6.21-1.71,8.91-3.4,3.43-2.16,5.74-5.92,9.42-7.61a2.5,2.5,0,0,1,2-.21A2.57,2.57,0,0,1,77,109.76a12.61,12.61,0,0,1-4,9.89,12.81,12.81,0,0,1-9.18,3.24C61,122.85,57.35,123.88,54.73,122.19Z"/><path class="cls-12" d="M58.37,52.59a3.86,3.86,0,0,0,2.71-2.53c.09-.47,0-1,.16-1.45A2,2,0,0,1,64,47.4c.95.5,1.37,1.72,2.33,2.18,1.58.77,3.2-.85,4.84-1.45a4.45,4.45,0,0,1,5.45,2.38,7.11,7.11,0,0,0-3.09,1.05,2.81,2.81,0,0,0-1.23,2.85c.26,1,1.2,1.66,1.73,2.55a3.3,3.3,0,0,1,.41,2.3,2.47,2.47,0,0,1-1,1.62c-1.19.82-2.8.12-4-.62s-2.77-1.52-4-.82A4.77,4.77,0,0,0,63.74,62c-.4,1-1.08,2-2.13,2.09a2,2,0,0,1-1.87-1.26,3.85,3.85,0,0,1-.14-2.35c.93-4.6-3.05-3.39-4.77-6.55A13,13,0,0,1,58.37,52.59Z"/><path class="cls-13" d="M82.46,59.05c.55,1.55,1.62,2.49,3.81,1.71A4.25,4.25,0,0,0,89,56.83a7,7,0,0,0-1.41-3.73c-.8-1.21-5.16-7.09-7-4-.48.8.3,1.74.69,2.59C81.92,53.08,81.62,56.74,82.46,59.05Z"/></svg>