<svg id="पत्ती" xmlns="http://www.w3.org/2000/svg" viewBox="0 0 150 160"><defs><style>.cls-1{fill:#fff;stroke:#fff;stroke-miterlimit:10;stroke-width:5px;}.cls-2{fill:#64b900;}.cls-3{fill:#4b8b00;}</style></defs><path class="cls-1" d="M120.36,87l2-4.77-2.39.19L122.89,79l-2-.45,1.49-3.23h-1.69l1.39-5.47-1.79.35,1.54-5h-2.09l.75-3.78H119l1.15-2.74h-1.64V55.1l-1.89.39.24-2.93-1.79.49-.19-3.43-2,1.05-.3-4.73-1.94,1V43.65l-1.74.6-.7-5-3,1.49-1.44-3.28-2,.54-1.35-3.53-1.19.95-1.59-3.58-2,1.39L93.7,29.63l-1.39,1.89-1.69-2.44L88.83,31l-1.55-2.93-2,2.13L83.7,27.14l-1.89,1.1L81.17,25l-.89.9C78.72,25.23,75,16.27,75,16.27s-3.72,9-5.28,9.63l-.89-.9-.64,3.24-1.89-1.1-1.59,3.08-2-2.13L61.17,31l-1.79-1.94-1.69,2.44L56.3,29.63l-1.94,3.58-2-1.39L50.78,35.4l-1.19-.95L48.24,38l-2-.54-1.44,3.28-3-1.49-.7,5-1.74-.6v3.29l-1.94-1-.3,4.73-2-1.05-.19,3.43-1.79-.49.24,2.93-1.89-.39v3.62H29.84L31,61.46H29.54l.75,3.78H28.2l1.54,5L28,69.86l1.39,5.47H27.65l1.49,3.23-2,.45L30,82.39,27.6,82.2l2,4.77H27.4L30,91.14H27.7l2.49,3.54-1.2.79,2.74,2.24-1.89,1,3.93,2.49-2.49.6,4.08,3.93-2,1.39,3.83,1.59-1.69,1.24,5.67,2.44-1.44,1.1,9.35,3.23-1.54,1.64S70.77,121.13,75,113c4.23,8.11,27.45,5.33,27.45,5.33l-1.54-1.64,9.35-3.23-1.44-1.1,5.67-2.44-1.69-1.24,3.83-1.59-2-1.39,4.08-3.93-2.49-.6,3.93-2.49-1.89-1L121,95.47l-1.2-.79,2.49-3.54H120L122.6,87Z"/><path class="cls-1" d="M75,24.87s.62,29.77,1.23,59.55c.16,7.44.31,14.88.46,21.86,0,3.47.25,6.86,0,10.19a75.24,75.24,0,0,1-1.06,9.18,47,47,0,0,1-4.3,13.41,29,29,0,0,1-2.15,3.5c-.58.77-.9,1.17-.9,1.17l-3.5-3,.75-.92A23.57,23.57,0,0,0,67.46,137a43.14,43.14,0,0,0,4.26-12.08A72.73,72.73,0,0,0,73,116.21c.28-3.06.22-6.43.33-9.93.15-7,.3-14.42.46-21.86C74.38,54.64,75,24.87,75,24.87Z"/><path class="cls-1" d="M74.42,61.45s-1.35-1.3-3.16-3.36a76.31,76.31,0,0,1-6.16-8c-1-1.53-1.94-3.11-2.73-4.63a39.65,39.65,0,0,1-1.92-4.28,25.77,25.77,0,0,1-1-3.16c-.19-.78-.29-1.22-.29-1.22l.36,1.2a24.78,24.78,0,0,0,1.14,3.08,40.13,40.13,0,0,0,2.14,4.11c.88,1.46,1.89,3,3,4.41a73.44,73.44,0,0,0,6.51,7.5c1.91,1.92,3.26,3.08,3.26,3.08Z"/><path class="cls-1" d="M74.33,80.39A206.51,206.51,0,0,1,60.65,59.85a71.23,71.23,0,0,1-7-15.44A22.18,22.18,0,0,1,53,41.33a12.11,12.11,0,0,1-.16-2.43,10.35,10.35,0,0,1,.25-2.1,10.87,10.87,0,0,0-.18,2.1,13.29,13.29,0,0,0,.24,2.4,21.39,21.39,0,0,0,.76,3,71.18,71.18,0,0,0,7.45,15.07c3.23,5.22,6.8,10.21,9.57,13.88s4.71,6,4.71,6Z"/><path class="cls-1" d="M54.16,46A6.76,6.76,0,0,1,53,45.47a14.13,14.13,0,0,1-2.2-1.62,7.47,7.47,0,0,1-1-1L49,41.91l-.83-.9.89.84.91.85a8.81,8.81,0,0,0,1.07.93A14.58,14.58,0,0,0,53.23,45a6.15,6.15,0,0,0,.77.34l.32.09Z"/><path class="cls-1" d="M74.38,95.77A226.62,226.62,0,0,1,56,72.92c-2.1-3-4.08-6.09-5.78-9.07-.9-1.46-1.63-3-2.36-4.35s-1.3-2.77-1.87-4A31.53,31.53,0,0,1,44.71,52a16.2,16.2,0,0,1-.81-2.76c-.34-1.56-.54-2.46-.54-2.46s.22.89.61,2.44a16.11,16.11,0,0,0,.89,2.73,31.92,31.92,0,0,0,1.41,3.45c.61,1.23,1.18,2.59,2,3.94s1.54,2.83,2.47,4.26c1.79,2.91,3.84,5.93,6,8.85s4.43,5.79,6.59,8.43,4.27,5,6.09,7.07c3.65,4.08,6.2,6.66,6.2,6.66Z"/><path class="cls-1" d="M52,66.94a4.73,4.73,0,0,1-.7-.17,15.57,15.57,0,0,1-1.77-.64,19.25,19.25,0,0,1-2.27-1.27L46.08,64l-1.15-1a11.79,11.79,0,0,1-1.11-1l-1-1-.92-1-.72-1-1.48-2L41.34,59l.77.91,1,.9,1,1a10.06,10.06,0,0,0,1.15.89l1.18.86,1.22.69a16.25,16.25,0,0,0,2.24,1,14.75,14.75,0,0,0,1.63.47,4.61,4.61,0,0,0,.64.11Z"/><path class="cls-1" d="M74.57,111.22a85.48,85.48,0,0,1-8-5.49c-2.3-1.77-4.94-3.89-7.61-6.35-1.37-1.18-2.65-2.55-4-3.86S52.31,92.75,51,91.3s-2.54-2.91-3.63-4.47-2.28-3-3.2-4.57a48.55,48.55,0,0,1-2.66-4.47,43.66,43.66,0,0,1-2.08-4.17L37.94,70c-.39-1.11-.64-2.1-.9-2.9-.48-1.61-.76-2.53-.76-2.53l.83,2.51c.28.79.56,1.77,1,2.86L39.7,73.5a44.92,44.92,0,0,0,2.19,4.09A44.53,44.53,0,0,0,44.66,82c1,1.52,2.15,2.94,3.3,4.43s2.48,2.88,3.71,4.33,2.66,2.75,4,4.08,2.7,2.57,4.09,3.7c2.71,2.36,5.37,4.38,7.69,6.06a88.13,88.13,0,0,0,8,5.18Z"/><path class="cls-1" d="M73.53,109.76s-.71.65-1.87,1.5c-.57.44-1.27.89-2,1.39s-1.59.93-2.41,1.4l-1.3.59a9.66,9.66,0,0,1-1.26.53c-.86.26-1.64.55-2.33.71l-2.33.34,2.29-.52c.67-.2,1.42-.55,2.23-.86a11.42,11.42,0,0,0,1.2-.62l1.22-.67c.76-.53,1.56-1,2.25-1.55s1.34-1,1.85-1.5a22.76,22.76,0,0,0,1.69-1.57Z"/><path class="cls-1" d="M70.05,107.62a22.72,22.72,0,0,1-4.94,1.8,29.92,29.92,0,0,1-5.26.83,27,27,0,0,1-3,.07c-1,0-2.05-.15-3.08-.21s-2.05-.33-3.05-.5l-2.89-.75-2.63-.92c-.83-.3-1.57-.69-2.28-1a30.75,30.75,0,0,1-3.31-1.72l-1.23-.68,1.26.64A30.49,30.49,0,0,0,43,106.78c.72.28,1.47.65,2.31.91l2.63.82,2.88.64c1,.13,2,.29,3,.39s2,.16,3,.1a27.62,27.62,0,0,0,2.92-.17,27.9,27.9,0,0,0,5.08-1,21.11,21.11,0,0,0,4.63-1.86Z"/><path class="cls-1" d="M56.86,97A18.72,18.72,0,0,1,53,98a23.72,23.72,0,0,1-4,.37A26.6,26.6,0,0,1,44.45,98,28.7,28.7,0,0,1,40,96.93c-.69-.23-1.33-.52-2-.75s-1.17-.56-1.7-.8A22.52,22.52,0,0,1,33.93,94L33,93.45,34,94a21,21,0,0,0,2.49,1.25,17.26,17.26,0,0,0,1.71.72c.63.21,1.28.45,2,.66a29,29,0,0,0,4.4.88,25.93,25.93,0,0,0,4.47.12,23.67,23.67,0,0,0,3.84-.54,17.79,17.79,0,0,0,3.56-1.13Z"/><path class="cls-1" d="M49,88.49a14.07,14.07,0,0,1-2.29.64c-.69.17-1.53.24-2.4.37a21.42,21.42,0,0,1-2.78,0,13.41,13.41,0,0,1-2.74-.39,12.36,12.36,0,0,1-2.32-.67l-2.15-.94,2.18.85a12.28,12.28,0,0,0,2.32.58,13.34,13.34,0,0,0,2.72.28,22.14,22.14,0,0,0,2.73-.12c.85-.16,1.66-.26,2.33-.45A13.31,13.31,0,0,0,48.83,88Z"/><path class="cls-1" d="M44.9,83a8.71,8.71,0,0,1-1.8.22,6.38,6.38,0,0,1-.87,0c-.31,0-.64,0-1-.07a11,11,0,0,1-2-.47,8,8,0,0,1-1.92-.8l-.85-.46a3.68,3.68,0,0,1-.69-.49l-1.39-1.1,1.44,1a3.78,3.78,0,0,0,.71.46l.86.4a7.44,7.44,0,0,0,1.92.7,11.15,11.15,0,0,0,2,.35c.32,0,.64,0,.93,0a7.49,7.49,0,0,0,.84,0,8.71,8.71,0,0,0,1.68-.29Z"/><path class="cls-1" d="M74.42,60.18S75.77,59,77.68,57.1a73.44,73.44,0,0,0,6.51-7.5c1.08-1.45,2.09-3,3-4.41a40.13,40.13,0,0,0,2.14-4.11A24.78,24.78,0,0,0,90.44,38l.36-1.2s-.1.44-.29,1.22a25.77,25.77,0,0,1-1,3.16,39.65,39.65,0,0,1-1.92,4.28c-.79,1.52-1.73,3.1-2.73,4.63a76.31,76.31,0,0,1-6.16,8c-1.81,2.06-3.16,3.36-3.16,3.36Z"/><path class="cls-1" d="M74.33,79.32s1.94-2.35,4.71-6,6.34-8.66,9.57-13.88a71.18,71.18,0,0,0,7.45-15.07,21.39,21.39,0,0,0,.76-3,13.29,13.29,0,0,0,.24-2.4,10.87,10.87,0,0,0-.18-2.1,10.35,10.35,0,0,1,.25,2.1A12.11,12.11,0,0,1,97,41.33a22.18,22.18,0,0,1-.65,3.08,71.23,71.23,0,0,1-7,15.44A206.51,206.51,0,0,1,75.67,80.39Z"/><path class="cls-1" d="M95.68,45.46l.32-.09a6.15,6.15,0,0,0,.77-.34A14.58,14.58,0,0,0,99,43.63a8.81,8.81,0,0,0,1.07-.93l.91-.85.89-.84-.83.9-.85.92a7.47,7.47,0,0,1-1,1A14.13,14.13,0,0,1,97,45.47a6.76,6.76,0,0,1-1.13.55Z"/><path class="cls-1" d="M74.38,94.58s2.55-2.58,6.2-6.66c1.82-2,3.91-4.44,6.09-7.07s4.45-5.49,6.59-8.43,4.23-5.94,6-8.85c.94-1.43,1.7-2.89,2.47-4.26s1.37-2.71,2-3.94a31.92,31.92,0,0,0,1.41-3.45,16.11,16.11,0,0,0,.89-2.73c.39-1.55.61-2.44.61-2.44s-.2.9-.54,2.46a16.2,16.2,0,0,1-.81,2.76A31.53,31.53,0,0,1,104,55.48c-.57,1.25-1.1,2.64-1.87,4s-1.46,2.89-2.36,4.35c-1.7,3-3.68,6.07-5.78,9.07A226.62,226.62,0,0,1,75.62,95.77Z"/><path class="cls-1" d="M97.8,65.81a4.61,4.61,0,0,0,.64-.11,14.75,14.75,0,0,0,1.63-.47,16.25,16.25,0,0,0,2.24-1l1.22-.69,1.18-.86a10.06,10.06,0,0,0,1.15-.89l1-1,1-.9.77-.91,1.62-1.87-1.48,2-.72,1-.92,1-1,1a11.79,11.79,0,0,1-1.11,1l-1.15,1-1.21.82a19.25,19.25,0,0,1-2.27,1.27,15.57,15.57,0,0,1-1.77.64,4.73,4.73,0,0,1-.7.17Z"/><path class="cls-1" d="M74.57,109.74a88.13,88.13,0,0,0,8-5.18c2.32-1.68,5-3.7,7.69-6.06,1.39-1.13,2.69-2.44,4.09-3.7s2.69-2.68,4-4.08,2.59-2.81,3.71-4.33,2.35-2.91,3.3-4.43a44.53,44.53,0,0,0,2.77-4.37,44.92,44.92,0,0,0,2.19-4.09l1.61-3.58c.42-1.09.7-2.07,1-2.86l.83-2.51s-.28.92-.76,2.53c-.26.8-.51,1.79-.9,2.9l-1.52,3.64a43.66,43.66,0,0,1-2.08,4.17,48.55,48.55,0,0,1-2.66,4.47c-.92,1.57-2.09,3-3.2,4.57s-2.42,3-3.63,4.47-2.61,2.85-3.92,4.22-2.66,2.68-4,3.86c-2.67,2.46-5.31,4.58-7.61,6.35a85.48,85.48,0,0,1-8,5.49Z"/><path class="cls-1" d="M77.26,108.93A22.76,22.76,0,0,0,79,110.5c.51.48,1.17,1,1.85,1.5s1.49,1,2.25,1.55l1.22.67a11.42,11.42,0,0,0,1.2.62c.81.31,1.56.66,2.23.86l2.29.52-2.33-.34c-.69-.16-1.47-.45-2.33-.71a9.66,9.66,0,0,1-1.26-.53l-1.3-.59c-.82-.47-1.67-.91-2.41-1.4s-1.45-1-2-1.39c-1.16-.85-1.87-1.5-1.87-1.5Z"/><path class="cls-1" d="M80.51,106.62a21.11,21.11,0,0,0,4.63,1.86,27.9,27.9,0,0,0,5.08,1,27.62,27.62,0,0,0,2.92.17c1,.06,2-.08,3-.1s2-.26,3-.39l2.88-.64,2.63-.82c.84-.26,1.59-.63,2.31-.91a30.49,30.49,0,0,0,3.35-1.59l1.26-.64-1.23.68a30.75,30.75,0,0,1-3.31,1.72c-.71.3-1.45.69-2.28,1l-2.63.92-2.89.75c-1,.17-2,.37-3,.5s-2.06.24-3.08.21a27,27,0,0,1-3-.07,29.92,29.92,0,0,1-5.26-.83,22.72,22.72,0,0,1-4.94-1.8Z"/><path class="cls-1" d="M93.6,95.92a17.79,17.79,0,0,0,3.56,1.13,23.67,23.67,0,0,0,3.84.54,25.93,25.93,0,0,0,4.47-.12,29,29,0,0,0,4.4-.88c.69-.21,1.34-.45,2-.66a17.26,17.26,0,0,0,1.71-.72A21,21,0,0,0,116,94l.94-.51-.91.55a22.52,22.52,0,0,1-2.44,1.38c-.53.24-1.07.57-1.69.8s-1.27.52-2,.75A28.7,28.7,0,0,1,105.55,98a26.6,26.6,0,0,1-4.57.33A23.82,23.82,0,0,1,97,98a18.72,18.72,0,0,1-3.83-1Z"/><path class="cls-1" d="M101.17,88a13.31,13.31,0,0,0,2.19.71c.67.19,1.48.29,2.34.45a21.89,21.89,0,0,0,2.72.12,13.34,13.34,0,0,0,2.72-.28,12.28,12.28,0,0,0,2.32-.58l2.18-.85-2.15.94a12.36,12.36,0,0,1-2.32.67,13.41,13.41,0,0,1-2.74.39,21.42,21.42,0,0,1-2.78,0c-.87-.13-1.71-.2-2.4-.37a14.07,14.07,0,0,1-2.29-.64Z"/><path class="cls-1" d="M105.25,82.49a8.71,8.71,0,0,0,1.68.29,7.49,7.49,0,0,0,.84,0c.29,0,.61,0,.93,0a11.15,11.15,0,0,0,2-.35,7.44,7.44,0,0,0,1.92-.7l.86-.4a3.78,3.78,0,0,0,.71-.46l1.44-1L114.25,81a3.68,3.68,0,0,1-.69.49l-.85.46a8,8,0,0,1-1.92.8,11,11,0,0,1-2.05.47c-.33.06-.66,0-1,.07a6.38,6.38,0,0,1-.87,0,8.71,8.71,0,0,1-1.8-.22Z"/><path class="cls-2" d="M120.36,87l2-4.77-2.39.19L122.89,79l-2-.45,1.49-3.23h-1.69l1.39-5.47-1.79.35,1.54-5h-2.09l.75-3.78H119l1.15-2.74h-1.64V55.1l-1.89.39.24-2.93-1.79.49-.19-3.43-2,1.05-.3-4.73-1.94,1V43.65l-1.74.6-.7-5-3,1.49-1.44-3.28-2,.54-1.35-3.53-1.19.95-1.59-3.58-2,1.39L93.7,29.63l-1.39,1.89-1.69-2.44L88.83,31l-1.55-2.93-2,2.13L83.7,27.14l-1.89,1.1L81.17,25l-.89.9C78.72,25.23,75,16.27,75,16.27s-3.72,9-5.28,9.63l-.89-.9-.64,3.24-1.89-1.1-1.59,3.08-2-2.13L61.17,31l-1.79-1.94-1.69,2.44L56.3,29.63l-1.94,3.58-2-1.39L50.78,35.4l-1.19-.95L48.24,38l-2-.54-1.44,3.28-3-1.49-.7,5-1.74-.6v3.29l-1.94-1-.3,4.73-2-1.05-.19,3.43-1.79-.49.24,2.93-1.89-.39v3.62H29.84L31,61.46H29.54l.75,3.78H28.2l1.54,5L28,69.86l1.39,5.47H27.65l1.49,3.23-2,.45L30,82.39,27.6,82.2l2,4.77H27.4L30,91.14H27.7l2.49,3.54-1.2.79,2.74,2.24-1.89,1,3.93,2.49-2.49.6,4.08,3.93-2,1.39,3.83,1.59-1.69,1.24,5.67,2.44-1.44,1.1,9.35,3.23-1.54,1.64S70.77,121.13,75,113c4.23,8.11,27.45,5.33,27.45,5.33l-1.54-1.64,9.35-3.23-1.44-1.1,5.67-2.44-1.69-1.24,3.83-1.59-2-1.39,4.08-3.93-2.49-.6,3.93-2.49-1.89-1L121,95.47l-1.2-.79,2.49-3.54H120L122.6,87Z"/><path class="cls-3" d="M75,24.87s.62,29.77,1.23,59.55c.16,7.44.31,14.88.46,21.86,0,3.47.25,6.86,0,10.19a75.24,75.24,0,0,1-1.06,9.18,47,47,0,0,1-4.3,13.41,29,29,0,0,1-2.15,3.5c-.58.77-.9,1.17-.9,1.17l-3.5-3,.75-.92A23.57,23.57,0,0,0,67.46,137a43.14,43.14,0,0,0,4.26-12.08A72.73,72.73,0,0,0,73,116.21c.28-3.06.22-6.43.33-9.93.15-7,.3-14.42.46-21.86C74.38,54.64,75,24.87,75,24.87Z"/><path class="cls-3" d="M74.42,61.45s-1.35-1.3-3.16-3.36a76.31,76.31,0,0,1-6.16-8c-1-1.53-1.94-3.11-2.73-4.63a39.65,39.65,0,0,1-1.92-4.28,25.77,25.77,0,0,1-1-3.16c-.19-.78-.29-1.22-.29-1.22l.36,1.2a24.78,24.78,0,0,0,1.14,3.08,40.13,40.13,0,0,0,2.14,4.11c.88,1.46,1.89,3,3,4.41a73.44,73.44,0,0,0,6.51,7.5c1.91,1.92,3.26,3.08,3.26,3.08Z"/><path class="cls-3" d="M74.33,80.39A206.51,206.51,0,0,1,60.65,59.85a71.23,71.23,0,0,1-7-15.44A22.18,22.18,0,0,1,53,41.33a12.11,12.11,0,0,1-.16-2.43,10.35,10.35,0,0,1,.25-2.1,10.87,10.87,0,0,0-.18,2.1,13.29,13.29,0,0,0,.24,2.4,21.39,21.39,0,0,0,.76,3,71.18,71.18,0,0,0,7.45,15.07c3.23,5.22,6.8,10.21,9.57,13.88s4.71,6,4.71,6Z"/><path class="cls-3" d="M54.16,46A6.76,6.76,0,0,1,53,45.47a14.13,14.13,0,0,1-2.2-1.62,7.47,7.47,0,0,1-1-1L49,41.91l-.83-.9.89.84.91.85a8.81,8.81,0,0,0,1.07.93A14.58,14.58,0,0,0,53.23,45a6.15,6.15,0,0,0,.77.34l.32.09Z"/><path class="cls-3" d="M74.38,95.77A226.62,226.62,0,0,1,56,72.92c-2.1-3-4.08-6.09-5.78-9.07-.9-1.46-1.63-3-2.36-4.35s-1.3-2.77-1.87-4A31.53,31.53,0,0,1,44.71,52a16.2,16.2,0,0,1-.81-2.76c-.34-1.56-.54-2.46-.54-2.46s.22.89.61,2.44a16.11,16.11,0,0,0,.89,2.73,31.92,31.92,0,0,0,1.41,3.45c.61,1.23,1.18,2.59,2,3.94s1.54,2.83,2.47,4.26c1.79,2.91,3.84,5.93,6,8.85s4.43,5.79,6.59,8.43,4.27,5,6.09,7.07c3.65,4.08,6.2,6.66,6.2,6.66Z"/><path class="cls-3" d="M52,66.94a4.73,4.73,0,0,1-.7-.17,15.57,15.57,0,0,1-1.77-.64,19.25,19.25,0,0,1-2.27-1.27L46.08,64l-1.15-1a11.79,11.79,0,0,1-1.11-1l-1-1-.92-1-.72-1-1.48-2L41.34,59l.77.91,1,.9,1,1a10.06,10.06,0,0,0,1.15.89l1.18.86,1.22.69a16.25,16.25,0,0,0,2.24,1,14.75,14.75,0,0,0,1.63.47,4.61,4.61,0,0,0,.64.11Z"/><path class="cls-3" d="M74.57,111.22a85.48,85.48,0,0,1-8-5.49c-2.3-1.77-4.94-3.89-7.61-6.35-1.37-1.18-2.65-2.55-4-3.86S52.31,92.75,51,91.3s-2.54-2.91-3.63-4.47-2.28-3-3.2-4.57a48.55,48.55,0,0,1-2.66-4.47,43.66,43.66,0,0,1-2.08-4.17L37.94,70c-.39-1.11-.64-2.1-.9-2.9-.48-1.61-.76-2.53-.76-2.53l.83,2.51c.28.79.56,1.77,1,2.86L39.7,73.5a44.92,44.92,0,0,0,2.19,4.09A44.53,44.53,0,0,0,44.66,82c1,1.52,2.15,2.94,3.3,4.43s2.48,2.88,3.71,4.33,2.66,2.75,4,4.08,2.7,2.57,4.09,3.7c2.71,2.36,5.37,4.38,7.69,6.06a88.13,88.13,0,0,0,8,5.18Z"/><path class="cls-3" d="M73.53,109.76s-.71.65-1.87,1.5c-.57.44-1.27.89-2,1.39s-1.59.93-2.41,1.4l-1.3.59a9.66,9.66,0,0,1-1.26.53c-.86.26-1.64.55-2.33.71l-2.33.34,2.29-.52c.67-.2,1.42-.55,2.23-.86a11.42,11.42,0,0,0,1.2-.62l1.22-.67c.76-.53,1.56-1,2.25-1.55s1.34-1,1.85-1.5a22.76,22.76,0,0,0,1.69-1.57Z"/><path class="cls-3" d="M70.05,107.62a22.72,22.72,0,0,1-4.94,1.8,29.92,29.92,0,0,1-5.26.83,27,27,0,0,1-3,.07c-1,0-2.05-.15-3.08-.21s-2.05-.33-3.05-.5l-2.89-.75-2.63-.92c-.83-.3-1.57-.69-2.28-1a30.75,30.75,0,0,1-3.31-1.72l-1.23-.68,1.26.64A30.49,30.49,0,0,0,43,106.78c.72.28,1.47.65,2.31.91l2.63.82,2.88.64c1,.13,2,.29,3,.39s2,.16,3,.1a27.62,27.62,0,0,0,2.92-.17,27.9,27.9,0,0,0,5.08-1,21.11,21.11,0,0,0,4.63-1.86Z"/><path class="cls-3" d="M56.86,97A18.72,18.72,0,0,1,53,98a23.72,23.72,0,0,1-4,.37A26.6,26.6,0,0,1,44.45,98,28.7,28.7,0,0,1,40,96.93c-.69-.23-1.33-.52-2-.75s-1.17-.56-1.7-.8A22.52,22.52,0,0,1,33.93,94L33,93.45,34,94a21,21,0,0,0,2.49,1.25,17.26,17.26,0,0,0,1.71.72c.63.21,1.28.45,2,.66a29,29,0,0,0,4.4.88,25.93,25.93,0,0,0,4.47.12,23.67,23.67,0,0,0,3.84-.54,17.79,17.79,0,0,0,3.56-1.13Z"/><path class="cls-3" d="M49,88.49a14.07,14.07,0,0,1-2.29.64c-.69.17-1.53.24-2.4.37a21.42,21.42,0,0,1-2.78,0,13.41,13.41,0,0,1-2.74-.39,12.36,12.36,0,0,1-2.32-.67l-2.15-.94,2.18.85a12.28,12.28,0,0,0,2.32.58,13.34,13.34,0,0,0,2.72.28,22.14,22.14,0,0,0,2.73-.12c.85-.16,1.66-.26,2.33-.45A13.31,13.31,0,0,0,48.83,88Z"/><path class="cls-3" d="M44.9,83a8.71,8.71,0,0,1-1.8.22,6.38,6.38,0,0,1-.87,0c-.31,0-.64,0-1-.07a11,11,0,0,1-2-.47,8,8,0,0,1-1.92-.8l-.85-.46a3.68,3.68,0,0,1-.69-.49l-1.39-1.1,1.44,1a3.78,3.78,0,0,0,.71.46l.86.4a7.44,7.44,0,0,0,1.92.7,11.15,11.15,0,0,0,2,.35c.32,0,.64,0,.93,0a7.49,7.49,0,0,0,.84,0,8.71,8.71,0,0,0,1.68-.29Z"/><path class="cls-3" d="M74.42,60.18S75.77,59,77.68,57.1a73.44,73.44,0,0,0,6.51-7.5c1.08-1.45,2.09-3,3-4.41a40.13,40.13,0,0,0,2.14-4.11A24.78,24.78,0,0,0,90.44,38l.36-1.2s-.1.44-.29,1.22a25.77,25.77,0,0,1-1,3.16,39.65,39.65,0,0,1-1.92,4.28c-.79,1.52-1.73,3.1-2.73,4.63a76.31,76.31,0,0,1-6.16,8c-1.81,2.06-3.16,3.36-3.16,3.36Z"/><path class="cls-3" d="M74.33,79.32s1.94-2.35,4.71-6,6.34-8.66,9.57-13.88a71.18,71.18,0,0,0,7.45-15.07,21.39,21.39,0,0,0,.76-3,13.29,13.29,0,0,0,.24-2.4,10.87,10.87,0,0,0-.18-2.1,10.35,10.35,0,0,1,.25,2.1A12.11,12.11,0,0,1,97,41.33a22.18,22.18,0,0,1-.65,3.08,71.23,71.23,0,0,1-7,15.44A206.51,206.51,0,0,1,75.67,80.39Z"/><path class="cls-3" d="M95.68,45.46l.32-.09a6.15,6.15,0,0,0,.77-.34A14.58,14.58,0,0,0,99,43.63a8.81,8.81,0,0,0,1.07-.93l.91-.85.89-.84-.83.9-.85.92a7.47,7.47,0,0,1-1,1A14.13,14.13,0,0,1,97,45.47a6.76,6.76,0,0,1-1.13.55Z"/><path class="cls-3" d="M74.38,94.58s2.55-2.58,6.2-6.66c1.82-2,3.91-4.44,6.09-7.07s4.45-5.49,6.59-8.43,4.23-5.94,6-8.85c.94-1.43,1.7-2.89,2.47-4.26s1.37-2.71,2-3.94a31.92,31.92,0,0,0,1.41-3.45,16.11,16.11,0,0,0,.89-2.73c.39-1.55.61-2.44.61-2.44s-.2.9-.54,2.46a16.2,16.2,0,0,1-.81,2.76A31.53,31.53,0,0,1,104,55.48c-.57,1.25-1.1,2.64-1.87,4s-1.46,2.89-2.36,4.35c-1.7,3-3.68,6.07-5.78,9.07A226.62,226.62,0,0,1,75.62,95.77Z"/><path class="cls-3" d="M97.8,65.81a4.61,4.61,0,0,0,.64-.11,14.75,14.75,0,0,0,1.63-.47,16.25,16.25,0,0,0,2.24-1l1.22-.69,1.18-.86a10.06,10.06,0,0,0,1.15-.89l1-1,1-.9.77-.91,1.62-1.87-1.48,2-.72,1-.92,1-1,1a11.79,11.79,0,0,1-1.11,1l-1.15,1-1.21.82a19.25,19.25,0,0,1-2.27,1.27,15.57,15.57,0,0,1-1.77.64,4.73,4.73,0,0,1-.7.17Z"/><path class="cls-3" d="M74.57,109.74a88.13,88.13,0,0,0,8-5.18c2.32-1.68,5-3.7,7.69-6.06,1.39-1.13,2.69-2.44,4.09-3.7s2.69-2.68,4-4.08,2.59-2.81,3.71-4.33,2.35-2.91,3.3-4.43a44.53,44.53,0,0,0,2.77-4.37,44.92,44.92,0,0,0,2.19-4.09l1.61-3.58c.42-1.09.7-2.07,1-2.86l.83-2.51s-.28.92-.76,2.53c-.26.8-.51,1.79-.9,2.9l-1.52,3.64a43.66,43.66,0,0,1-2.08,4.17,48.55,48.55,0,0,1-2.66,4.47c-.92,1.57-2.09,3-3.2,4.57s-2.42,3-3.63,4.47-2.61,2.85-3.92,4.22-2.66,2.68-4,3.86c-2.67,2.46-5.31,4.58-7.61,6.35a85.48,85.48,0,0,1-8,5.49Z"/><path class="cls-3" d="M77.26,108.93A22.76,22.76,0,0,0,79,110.5c.51.48,1.17,1,1.85,1.5s1.49,1,2.25,1.55l1.22.67a11.42,11.42,0,0,0,1.2.62c.81.31,1.56.66,2.23.86l2.29.52-2.33-.34c-.69-.16-1.47-.45-2.33-.71a9.66,9.66,0,0,1-1.26-.53l-1.3-.59c-.82-.47-1.67-.91-2.41-1.4s-1.45-1-2-1.39c-1.16-.85-1.87-1.5-1.87-1.5Z"/><path class="cls-3" d="M80.51,106.62a21.11,21.11,0,0,0,4.63,1.86,27.9,27.9,0,0,0,5.08,1,27.62,27.62,0,0,0,2.92.17c1,.06,2-.08,3-.1s2-.26,3-.39l2.88-.64,2.63-.82c.84-.26,1.59-.63,2.31-.91a30.49,30.49,0,0,0,3.35-1.59l1.26-.64-1.23.68a30.75,30.75,0,0,1-3.31,1.72c-.71.3-1.45.69-2.28,1l-2.63.92-2.89.75c-1,.17-2,.37-3,.5s-2.06.24-3.08.21a27,27,0,0,1-3-.07,29.92,29.92,0,0,1-5.26-.83,22.72,22.72,0,0,1-4.94-1.8Z"/><path class="cls-3" d="M93.6,95.92a17.79,17.79,0,0,0,3.56,1.13,23.67,23.67,0,0,0,3.84.54,25.93,25.93,0,0,0,4.47-.12,29,29,0,0,0,4.4-.88c.69-.21,1.34-.45,2-.66a17.26,17.26,0,0,0,1.71-.72A21,21,0,0,0,116,94l.94-.51-.91.55a22.52,22.52,0,0,1-2.44,1.38c-.53.24-1.07.57-1.69.8s-1.27.52-2,.75A28.7,28.7,0,0,1,105.55,98a26.6,26.6,0,0,1-4.57.33A23.82,23.82,0,0,1,97,98a18.72,18.72,0,0,1-3.83-1Z"/><path class="cls-3" d="M101.17,88a13.31,13.31,0,0,0,2.19.71c.67.19,1.48.29,2.34.45a21.89,21.89,0,0,0,2.72.12,13.34,13.34,0,0,0,2.72-.28,12.28,12.28,0,0,0,2.32-.58l2.18-.85-2.15.94a12.36,12.36,0,0,1-2.32.67,13.41,13.41,0,0,1-2.74.39,21.42,21.42,0,0,1-2.78,0c-.87-.13-1.71-.2-2.4-.37a14.07,14.07,0,0,1-2.29-.64Z"/><path class="cls-3" d="M105.25,82.49a8.71,8.71,0,0,0,1.68.29,7.49,7.49,0,0,0,.84,0c.29,0,.61,0,.93,0a11.15,11.15,0,0,0,2-.35,7.44,7.44,0,0,0,1.92-.7l.86-.4a3.78,3.78,0,0,0,.71-.46l1.44-1L114.25,81a3.68,3.68,0,0,1-.69.49l-.85.46a8,8,0,0,1-1.92.8,11,11,0,0,1-2.05.47c-.33.06-.66,0-1,.07a6.38,6.38,0,0,1-.87,0,8.71,8.71,0,0,1-1.8-.22Z"/></svg>