<svg id="चींटी" xmlns="http://www.w3.org/2000/svg" viewBox="0 0 150 160"><defs><style>.cls-1{fill:#fff;}.cls-2{fill:#390c08;}.cls-3{fill:#4f2e22;}.cls-4{fill:#2a0804;}.cls-5{fill:#220c01;}</style></defs><path class="cls-1" d="M109.85,98.59c-1.06-.72-7.54-7.51-13.12-13.59L93.2,80.79l-.06-.06A9.6,9.6,0,0,0,86.92,78a8,8,0,0,0-4.4,1.85,10.94,10.94,0,0,0-1.65-1.61,7.42,7.42,0,0,0,2.87-3.62c2.89-1.29,4.82-4.5,5.91-6.32.17-.3.31-.53.41-.68,1-1.06,5.64-7.25,7.07-9.16.57-.76,5.6-7.45,6.9-10.2.6-1.29,1.13-2.41.43-3.5l-.63-.94h-1.1a2.14,2.14,0,0,0-1.16.34,19,19,0,0,0-4.66,5l-.43.59c-.6.75-11.55,15.26-12,15.88l-.06.08-.06.09a5.23,5.23,0,0,1-.39.57,10,10,0,0,0-3.25-4.14l0-.35c3.28-.27,5.5-3.51,6.59-9.65a18.08,18.08,0,0,0,.3-3.82l1.08,0c3.57,0,5.36-.89,6.16-3.08a2.83,2.83,0,0,0,1.07-1.73c.46-2.19-1.39-5.14-2.44-6.4A9.59,9.59,0,0,1,92,34.19c.38-2,.55-4.32-.76-5.94a4.07,4.07,0,0,0-3.33-1.46h-.27A3.12,3.12,0,0,0,85,28.35c-1.26,2.21.33,5.89,1.39,7.89l0,.1,4.19,6a2.11,2.11,0,0,1-.41,1.16,6,6,0,0,1-1.86.2c-.57,0-1.15,0-1.69-.07a14.17,14.17,0,0,0-6.32-7.12c.77-2,1-4.73-1.16-6.53l-1.59,1.3a2.17,2.17,0,0,1,.29.2L76.73,32.7l-.45-.32-.08.06,0-.09-.19-.14a1.11,1.11,0,0,1,.47-1,1.3,1.3,0,0,1,.18-.05L77.51,29l-3,2.12-2.88-2.05.76,2.07.1,0a1.13,1.13,0,0,1,.5,1l-.17.12.06.15-.12-.1-.45.32-1.14-1.18a2.17,2.17,0,0,1,.29-.2L69.88,30c-2.13,1.74-1.95,4.36-1.25,6.32a15.63,15.63,0,0,0-6.22,7.41h-.06a6,6,0,0,1-1.86-.2,2.25,2.25,0,0,1-.42-1.15l4.2-6,.06-.1c1.06-2,2.65-5.68,1.39-7.88A3.14,3.14,0,0,0,63,26.79h-.27a4.11,4.11,0,0,0-3.33,1.46c-1.31,1.62-1.13,4-.76,5.94a9.5,9.5,0,0,1-1.43,3.08c-1,1.25-2.9,4.2-2.44,6.4a2.85,2.85,0,0,0,1.08,1.73c.75,2.08,2.41,3,5.63,3.08a18.06,18.06,0,0,0,.61,4.85C63.83,59.8,67,61.68,69.55,62c-1.6.75-3.21,2-3.47,4v0c0-.06-.18-.29-.18-.29l-.07-.08c-.47-.62-11.42-15.13-12-15.88-.1-.12-.24-.33-.42-.58a19,19,0,0,0-4.66-5,2.1,2.1,0,0,0-1.17-.35l-1.14,0-.59.92c-.69,1.09-.17,2.21.44,3.51,1.3,2.74,6.32,9.43,6.89,10.18,1.84,2.46,6.12,8.15,7.07,9.17.1.14.24.38.41.67,1.12,1.87,3.33,5.56,6.62,6.6a8.73,8.73,0,0,0,2.4,2.87,6.26,6.26,0,0,0-3.24,2.87,6.64,6.64,0,0,0-3.33-1.14,9.66,9.66,0,0,0-6.22,2.71l-.06.07-3.47,4.14c-5.64,6.14-12.12,12.93-13.15,13.64A2.54,2.54,0,0,0,38.73,103c.34,1.26,1.63,2,3.44,2a4.6,4.6,0,0,0,1.59-.27c1.87-.7,13.77-12.87,17-17.67A19.83,19.83,0,0,0,63,86.17,44.53,44.53,0,0,0,66.55,89,9.43,9.43,0,0,0,68.91,93c-3.93,2.2-6.33,4-7.15,5.48-1.21,2.15-5.08,9.77-5.28,10.17-2.68,5.91-4.1,9.07-4.2,9.36-.37,1-4.07,9.92-5.08,11.6a2,2,0,0,0,1.41,3.58c.81,0,4-.48,4.9-2.87.42-1.17,4.93-12,6.6-16l1.82-3.82c1.56,8,6.7,17.18,13.6,17.18a7.56,7.56,0,0,0,1.06-.08c6.94-1,12-8.26,13.67-14.56l.6,1.25c1.7,4.07,6.21,14.9,6.64,16.06.86,2.39,4.08,2.88,4.9,2.88a2,2,0,0,0,1.41-3.58c-1-1.68-4.72-10.61-5.07-11.56,0-.12-.17-.49-4.26-9.48-.16-.33-4-7.94-5.24-10.09C88.93,98,88,96.35,82.12,93a9.39,9.39,0,0,0,2.34-6.25c1-.74,1.84-1.51,2.51-2.1a20.92,20.92,0,0,0,2.25.88c3.25,4.8,15.15,17,17,17.67a4.56,4.56,0,0,0,1.59.26c1.81,0,3.09-.75,3.44-2A2.53,2.53,0,0,0,109.85,98.59Zm-33.7-66h0a1.18,1.18,0,0,1,.56.13l-1,1.06Z"/><path class="cls-2" d="M75.49,97s-12.22,1.32-12,9.08,5.77,20.47,12.88,19.48,12.37-10.4,12.54-16.51S79.29,96.21,75.49,97Z"/><path class="cls-3" d="M65.86,109.92a14.54,14.54,0,0,0,4.61,9.22c3.11,2.54,6.34,2.4,9.63.08a11,11,0,0,0,4.35-8.82,9.89,9.89,0,0,0-6.66-9.53C75.94,100.22,65.61,99,65.86,109.92Z"/><path class="cls-4" d="M71.22,87.37s-5.47-5.87-8.14-5.87a7.71,7.71,0,0,0-4.8,2.13L54.8,87.77s-12,13.08-13.61,14,.8,1.46,1.87,1.06S56.94,89.77,59.48,85.36c0,0,3.47-1.06,3.73-1.73,0,0,6.55,6.28,8.55,5.47S71.22,87.37,71.22,87.37Z"/><path class="cls-4" d="M78.78,85.88S84.25,80,86.92,80a7.74,7.74,0,0,1,4.81,2.14l3.47,4.14s12,13.08,13.61,14-.8,1.47-1.87,1.07S93.06,88.29,90.52,83.88c0,0-3.47-1.07-3.73-1.73,0,0-6.55,6.27-8.55,5.47S78.78,85.88,78.78,85.88Z"/><path class="cls-2" d="M75.75,92S71,91.36,70.84,95.2a6.06,6.06,0,0,0,7.3,6.37c4.51-.66,2.25-7.3,2.25-7.3S78.54,91.49,75.75,92Z"/><path class="cls-4" d="M71.78,93.68s-7.07,3.61-8.27,5.74-5.21,10-5.21,10-4,8.81-4.14,9.21-4.94,12.14-5.61,12.41,2.55,0,3.08-1.47,6.67-16.15,6.67-16.15l4.14-8.68s2.53-4.93,2.93-5.07,7.08-3.6,7.35-4.27S71.78,93.68,71.78,93.68Z"/><path class="cls-4" d="M79.22,93.74s7.07,3.61,8.28,5.74,5.2,10,5.2,10,4,8.82,4.14,9.21,4.94,12.15,5.61,12.42-2.54,0-3.07-1.47S92.7,113.5,92.7,113.5l-4.14-8.68S86,99.89,85.63,99.75s-7.08-3.6-7.34-4.27S79.22,93.74,79.22,93.74Z"/><polygon class="cls-5" points="71.62 74.41 73.09 79.35 78.03 80.42 78.83 74.01 71.62 74.41"/><path class="cls-2" d="M68.06,82.12S66.2,92.73,74.82,93.4s7.83-7.43,7.43-9.82S78,77.61,75,78.27,68.32,79.86,68.06,82.12Z"/><polygon class="cls-5" points="73.02 57.6 72.88 64.04 78.76 63.9 78.48 57.46 73.02 57.6"/><path class="cls-4" d="M81.32,69.85s1.63-1.63,2.51-1.19,2.23-1.78,2.23-1.78,11.4-15.09,12-15.84,2.49-3.85,4.59-5.18c.44-.28-.21,1.1-.42,1.56-1.25,2.63-6.69,9.84-6.69,9.84s-6.22,8.3-7,9-4.3,9-9.33,6.37S81.32,69.85,81.32,69.85Z"/><path class="cls-4" d="M69,69.85s-1.63-1.63-2.52-1.19-2.21-1.78-2.21-1.78S52.82,51.79,52.23,51s-2.49-3.85-4.59-5.18c-.44-.28.21,1.1.43,1.56,1.24,2.63,6.68,9.84,6.68,9.84s6.22,8.3,7,9,4.29,9,9.33,6.37S69,69.85,69,69.85Z"/><path class="cls-2" d="M85.05,45.17c-2.32-7.7-11.59-9-11.59-9S65.91,38.51,64,45.41a14,14,0,0,0,.1,7.42C67.39,65.54,76,57.58,76,57.58s6.85,8.09,9.29-5.65A14.24,14.24,0,0,0,85.05,45.17Z"/><path class="cls-5" d="M71.05,36.82s-2.06-3.5.09-5.26a1,1,0,0,0,.29,1.3c.72.46,1,.18,1,.18s-.63.69-.17,1.24a.72.72,0,0,0,1,.17s-.58,1.5,0,2S71.05,36.82,71.05,36.82Z"/><path class="cls-5" d="M78,36.82s2.07-3.5-.08-5.26a1,1,0,0,1-.29,1.3c-.73.46-1.06.18-1.06.18s.64.69.18,1.24a.72.72,0,0,1-1,.17s.57,1.5,0,2S78,36.82,78,36.82Z"/><path class="cls-5" d="M68.8,40.46s-2.54,1.15-2.64,3.08.59,2.31,1.37,2.57a2.94,2.94,0,0,0,2.84-2.06C70.46,42.89,70.17,40.33,68.8,40.46Z"/><path class="cls-5" d="M79.77,40.46s2.54,1.15,2.64,3.08-.59,2.31-1.37,2.57a2.94,2.94,0,0,1-2.84-2.06C78.11,42.89,78.4,40.33,79.77,40.46Z"/><path class="cls-4" d="M83.83,45.32s6.52,1.17,7.82-.39a4,4,0,0,0,.91-3.25L88.13,35.3s-3.38-6.38-.39-6.51,2.74,3,2.21,5.47a12.66,12.66,0,0,0,2,4.29c1.3,1.56,2.86,4.69,1.56,5.34s1.17,3.64-9.64,2.21"/><path class="cls-4" d="M66.86,45.32s-6.51,1.17-7.81-.39a4,4,0,0,1-.92-3.25l4.43-6.38S66,28.92,63,28.79s-2.73,3-2.21,5.47a12.55,12.55,0,0,1-2,4.29c-1.31,1.56-2.87,4.69-1.57,5.34s-1.17,3.64,9.64,2.21"/><path class="cls-2" d="M68.06,66.29S66.2,76.91,74.82,77.57s7.83-7.43,7.43-9.81S78,61.79,75,62.45,68.32,64,68.06,66.29Z"/></svg>