<svg xmlns="http://www.w3.org/2000/svg" viewBox="0 0 150 160"><defs><style>.cls-1{isolation:isolate;}.cls-2{fill:#fff;stroke:#fff;stroke-miterlimit:10;stroke-width:5px;}.cls-3{fill:#ea1351;}.cls-4{fill:#c92036;}.cls-5{fill:#ee3361;}.cls-12,.cls-6{fill:#e32144;}.cls-7,.cls-8{fill:#b21827;}.cls-8{opacity:0.33;}.cls-10,.cls-8{mix-blend-mode:multiply;}.cls-9{fill:#f91561;}.cls-10{fill:#989898;opacity:0.84;}.cls-11{fill:#bf162a;}.cls-12{opacity:0.42;}.cls-13,.cls-14{fill:#b70f2b;}.cls-14{opacity:0.5;}.cls-15{fill:#c40c2b;}.cls-16{fill:#a00220;}.cls-17{fill:#ed2954;}.cls-18{fill:#ff4d80;}.cls-19{fill:#b20f17;}.cls-20{fill:#f71c65;}.cls-21{opacity:0.47;}.cls-22{opacity:0.71;}.cls-23{fill:#f93d85;}</style></defs><g class="cls-1"><g id="रजाई"><path class="cls-2" d="M131.34,92.24l-2.07-2.19h0l-.16-.15-1.48-1.56c4.14-4.84,3.54-13.34-.68-17.88l-1.23-1.3,0-.07c1.16-.26.81-.35,1.13-1.45.68-3.34,1.58-12.29-1.56-12.56-1.88-.5-7.91-.86-11.19-1,1.52-1.24.88-2.28.47-2.33.94.13-15.62-9.72-22.73-8.59a57.49,57.49,0,0,0-6.47,3h0l-.19.1-1,.49h0c-1.49.75-3.07,1.56-4.64,2.37h0c-4.39,2.27-7.64,4-10.35,5.41l-.23,0a1.3,1.3,0,0,0-.48.16l-.15.11c-13.21.64-13.45,1.07-13.45,1.07l.19,0c-1.36.06-1.54,1.1-1.54,2.15,0,.78,1.66,1.93,2.58,2.8l-.07,0s4.53-.46,4.75-.23-.25,4.22-.26,4.34L45.36,61.65a1.72,1.72,0,0,0-1.49.84,4.35,4.35,0,0,0-4.06,2.15l-3.37,5.82a17.5,17.5,0,0,0-2.22,10.69l-5.8,0a2.17,2.17,0,0,0-1.88,1.06,5.52,5.52,0,0,0-5.12,2.71l-4.25,7.35c-3.63,5.8-3.81,14.73-.93,21.32h0a5.83,5.83,0,0,0,5.5,2.65c35.91.94,71.79,1.05,107.69-.12a5.45,5.45,0,0,0,3.8-2.53h0C137.1,107.13,136.46,97.69,131.34,92.24ZM41.41,66.4a26.88,26.88,0,0,0-2,4A24.74,24.74,0,0,1,41.41,66.4Zm.19-.32a2.61,2.61,0,0,1-.17.28Zm-18.16,21a34.15,34.15,0,0,0-2.53,5A31.92,31.92,0,0,1,23.44,87.12Zm.24-.41-.21.35Z"/><path class="cls-3" d="M20.88,92.24H17.17c-3.53,5.51-3.57,13.59-1.5,20.12a5.44,5.44,0,0,0,5,3.82l1,0a31.55,31.55,0,0,1-2.19-8.34C19.22,104.4,19,97.54,20.88,92.24Z"/><path class="cls-4" d="M131.34,92.24H20.88c-1.86,5.3-1.66,12.16-1.33,15.63a31.55,31.55,0,0,0,2.19,8.34q53.52,1.47,107-.06a5.44,5.44,0,0,0,4.52-2.65C137.09,107.07,136.45,97.68,131.34,92.24Z"/><path class="cls-5" d="M26.63,82.18h-.49a5.42,5.42,0,0,0-4.72,2.71l-4.25,7.35,3.74-.1C22,89,25,84.55,26.63,82.18Z"/><path class="cls-6" d="M131.34,92.24l-7.67-8.11c-1-1.08-1.7-2.48-3.19-2.49l-92.06-.52a2.12,2.12,0,0,0-1.81,1c-1.8,2.68-4.71,7.32-5.7,10.06Q76.16,90.6,131.34,92.24Z"/><path class="cls-6" d="M20.91,92.14l0,.1H131.34Q76.1,90.59,20.91,92.14Z"/><path class="cls-6" d="M20.91,92.14l-3.74.1h3.71Z"/><path class="cls-3" d="M49,116.67S47,97,49,92.44A97.36,97.36,0,0,0,52.8,81.11l18.08.4s1.39,8.74,1.78,10.73.4,24.63.4,24.63Z"/><path class="cls-7" d="M70.88,81.51c.66,2.89,1.24,5.79,1.79,8.69.14.74.29,1.43.41,2.2s.13,1.51.17,2.26c.07,1.48.1,3,.13,4.45,0,3,.06,5.92,0,8.88l-.11,4.44c-.07,1.48-.11,3-.21,4.44-.1-1.48-.15-3-.23-4.44L72.69,108c-.1-3-.14-5.92-.2-8.88l-.09-4.43c0-.73,0-1.49-.1-2.17L72,90.33C71.58,87.4,71.18,84.46,70.88,81.51Z"/><path class="cls-7" d="M49,116.67c-.47-3-.78-6-1-9s-.34-6-.27-9.1A28.51,28.51,0,0,1,48.17,94l.12-.57.18-.58a9,9,0,0,1,.42-1.08l.87-2.08c.56-1.4,1.07-2.82,1.56-4.25s1-2.86,1.48-4.29a74.51,74.51,0,0,1-2.4,8.78A34.85,34.85,0,0,0,49,94.12a31.06,31.06,0,0,0-.38,4.45c-.09,3,0,6,.07,9,0,1.51.1,3,.16,4.53Z"/><path class="cls-8" d="M16.24,113.56a5.4,5.4,0,0,0,4.47,2.62l1,0q53.52,1.47,107-.06a5.43,5.43,0,0,0,4.48-2.59Z"/><path class="cls-9" d="M51.87,116.74c-.17-2.93-.26-5.87-.33-8.81s-.07-5.88-.08-8.82c0-1.47,0-2.93.12-4.41,0-.38,0-.73.08-1.13a11.23,11.23,0,0,1,.26-1.1l.52-2.13c.69-2.86,1.35-5.72,2.08-8.57-.46,2.91-1,5.8-1.57,8.68-.14.72-.29,1.44-.46,2.16a8.56,8.56,0,0,0-.24,1c0,.32,0,.71-.06,1.06,0,1.46,0,2.93-.06,4.4l-.08,8.81C52,110.86,52,113.8,51.87,116.74Z"/><path class="cls-9" d="M60.61,116.87c-.11-2-.21-4-.27-6.05s-.14-4-.16-6.06l-.1-6.06,0-6.06v0h0l.5-5.16c.18-1.71.37-3.43.58-5.15,0,1.73-.13,3.46-.21,5.18l-.3,5.18v0l.11,6.06,0,6.06c0,2,0,4,0,6.06S60.68,114.85,60.61,116.87Z"/><path class="cls-9" d="M56.51,116.74c-.29-2.87-.48-5.74-.66-8.62s-.28-5.75-.37-8.63c0-1.44,0-2.88,0-4.33l0-1.09c0-.38.07-.76.12-1.11.1-.71.2-1.42.31-2.13.43-2.84.87-5.69,1.38-8.53-.24,2.88-.55,5.74-.87,8.61-.07.71-.15,1.43-.25,2.14,0,.37-.07.71-.1,1l0,1.07c0,1.43,0,2.86.08,4.3l.23,8.63C56.43,111,56.5,113.86,56.51,116.74Z"/><path class="cls-9" d="M69.13,116.74C69,113.82,69,110.9,69,108l-.08-8.76c0-1.46,0-2.92-.05-4.37l0-1.08a3.42,3.42,0,0,0-.08-.48c0-.2-.08-.39-.11-.57-.12-.73-.21-1.46-.28-2.19-.3-2.91-.53-5.82-.67-8.75l1.18,8.69c.11.72.22,1.44.34,2.15,0,.18.07.35.11.5s.07.4.1.6l.07,1.11c.07,1.46.09,2.92.11,4.39,0,2.92,0,5.84-.08,8.77S69.31,113.82,69.13,116.74Z"/><path class="cls-9" d="M64.5,116.74c-.11-2.88-.16-5.76-.2-8.65l-.1-8.64c0-1.44,0-2.88-.06-4.31l-.06-1.07L64,93a20.09,20.09,0,0,1-.06-2.19c0-2.89.23-5.77.53-8.64l0,4.33c0,1.44,0,2.88,0,4.31,0,.72.06,1.43.12,2.13L64.68,94l.07,1.09c.06,1.45.09,2.89.12,4.33,0,2.89,0,5.77-.06,8.65S64.66,113.86,64.5,116.74Z"/><path class="cls-10" d="M34.52,84.29s.79,5.36,2.58,5.76,33.18,1,46.49,1,45.7-1,45.7-1l-5-4.77Z"/><path class="cls-3" d="M39.38,70.46H36.44c-2.8,4.37-2.83,10.78-1.19,16a4.33,4.33,0,0,0,4,3l.82,0a24.41,24.41,0,0,1-1.74-6.61C38.07,80.11,37.91,74.66,39.38,70.46Z"/><path class="cls-4" d="M127,70.46H39.38c-1.47,4.2-1.31,9.65-1.05,12.4a24.41,24.41,0,0,0,1.74,6.61q42.43,1.17,84.84,0a4.35,4.35,0,0,0,3.59-2.1C131.53,82.22,131,74.78,127,70.46Z"/><path class="cls-5" d="M43.94,62.49h-.39a4.28,4.28,0,0,0-3.74,2.15l-3.37,5.82,3-.07A41.8,41.8,0,0,1,43.94,62.49Z"/><path class="cls-6" d="M127,70.46,120.89,64c-.81-.85-1.35-2-2.53-2l-73-.41a1.7,1.7,0,0,0-1.44.76,48.23,48.23,0,0,0-4.51,8Q83.21,69.16,127,70.46Z"/><path class="cls-6" d="M39.41,70.39l0,.07H127Q83.17,69.16,39.41,70.39Z"/><path class="cls-6" d="M39.41,70.39l-3,.07h2.94Z"/><path class="cls-3" d="M61.7,89.84s-1.58-15.6,0-19.22a78,78,0,0,0,3-9L79,62s1.11,6.93,1.42,8.5S80.76,90,80.76,90Z"/><path class="cls-7" d="M79,62c.57,2.28,1,4.58,1.5,6.88.11.58.24,1.13.33,1.74s.11,1.2.14,1.8c.06,1.18.09,2.35.11,3.53,0,2.35,0,4.7,0,7L81,86.48c-.07,1.17-.11,2.34-.21,3.52-.1-1.18-.15-2.35-.23-3.52L80.39,83c-.1-2.35-.13-4.69-.18-7l-.06-3.51c0-.57,0-1.18-.07-1.71L79.85,69C79.53,66.63,79.23,64.3,79,62Z"/><path class="cls-7" d="M61.7,89.84c-.42-2.37-.68-4.76-.88-7.16a64.28,64.28,0,0,1-.24-7.22,22.79,22.79,0,0,1,.36-3.65,4.63,4.63,0,0,1,.24-.92,7,7,0,0,1,.34-.86l.69-1.64c.45-1.11.86-2.23,1.26-3.36s.81-2.26,1.22-3.39a54.27,54.27,0,0,1-1.83,7A27.07,27.07,0,0,0,61.77,72a24,24,0,0,0-.3,3.52c-.08,2.37,0,4.76,0,7.16Z"/><path class="cls-8" d="M35.7,87.37a4.29,4.29,0,0,0,3.55,2.08l.82,0q42.43,1.17,84.84,0a4.29,4.29,0,0,0,3.55-2.06Z"/><path class="cls-9" d="M64,89.89c-.13-2.33-.2-4.65-.26-7s-.06-4.66-.06-7c0-1.17,0-2.33.09-3.5,0-.3,0-.58.07-.9a8.06,8.06,0,0,1,.2-.87L64.41,69c.54-2.27,1.06-4.54,1.64-6.79-.36,2.3-.78,4.59-1.24,6.88-.11.57-.23,1.14-.37,1.71,0,.27-.18.61-.19.83s0,.57,0,.85c0,1.15,0,2.32,0,3.48l-.06,7C64.07,85.23,64,87.56,64,89.89Z"/><path class="cls-9" d="M70.88,90c-.08-1.6-.16-3.2-.21-4.81s-.11-3.2-.13-4.8l-.07-4.8,0-4.81h0l.39-4.09c.15-1.36.29-2.72.46-4.08,0,1.37-.1,2.74-.16,4.1L70.9,70.8v0l.09,4.8,0,4.81c0,1.6,0,3.2,0,4.8S70.94,88.4,70.88,90Z"/><path class="cls-9" d="M67.63,89.89c-.22-2.27-.38-4.55-.52-6.83s-.22-4.56-.3-6.85c0-1.14,0-2.28,0-3.43l0-.87c0-.29.06-.59.1-.87.08-.57.16-1.13.25-1.69.34-2.26.68-4.51,1.09-6.76-.19,2.27-.43,4.55-.69,6.82-.06.57-.12,1.13-.2,1.7,0,.29-.05.56-.07.83l0,.84c0,1.14,0,2.28.06,3.42L67.52,83C67.57,85.32,67.62,87.61,67.63,89.89Z"/><path class="cls-9" d="M77.64,89.89c-.08-2.32-.11-4.63-.14-7l-.06-7c0-1.15,0-2.31,0-3.46l-.05-.86a2,2,0,0,0-.06-.38c0-.16-.06-.31-.09-.45-.1-.58-.16-1.16-.22-1.74q-.36-3.46-.53-6.93l.94,6.88c.08.57.17,1.15.27,1.71a4,4,0,0,0,.08.4,4.56,4.56,0,0,1,.08.47l.06.88c.05,1.16.07,2.32.09,3.48,0,2.32,0,4.64-.07,7S77.78,87.58,77.64,89.89Z"/><path class="cls-9" d="M74,89.89c-.09-2.28-.13-4.57-.16-6.85l-.08-6.86c0-1.14,0-2.28,0-3.42l0-.84-.09-.85a16.78,16.78,0,0,1,0-1.73c0-2.3.18-4.58.42-6.86l0,3.43c0,1.14,0,2.28,0,3.42,0,.57,0,1.14.09,1.69l.1.86,0,.86c0,1.15.08,2.29.1,3.44,0,2.28,0,4.57-.05,6.86S74.1,87.61,74,89.89Z"/><path class="cls-10" d="M56,65.52S60.55,66.91,61,67.9s3.68,7,4.57,8.24,2,2.09,4.57,1.89S126,69.59,126,69.59l-.7-1.09Z"/><path class="cls-11" d="M69.49,75.15a8.32,8.32,0,0,1-6-5c-1.72-4.24-5.64-3.71-7.55-4.9-.68-.43-1.85-2.92.26-3.18s-2.64-2.65-2.64-4,.26-2.65,2.84-2,10.8,3.18,10.8,3.18,4,1.92,4.77,5.43C73.53,72.24,69.49,75.15,69.49,75.15Z"/><path class="cls-8" d="M55.64,62.24s1.4-.3,1.13-.67a7.57,7.57,0,0,0-.73-.72s7.42,2.12,9,2.91,3.57,3.71,3.31,4.64-3-2.79-4.37-3.05S55.64,62.24,55.64,62.24Z"/><path class="cls-8" d="M56.17,62s6.1,2.25,7.55,2.65a7.07,7.07,0,0,1,2.79,1.85,4.66,4.66,0,0,0-3.18-2.65L56.8,61.81Z"/><path class="cls-12" d="M54.12,56.31a1.78,1.78,0,0,0-.47,1.08c0,2.59,12.65,3.2,14.67,7.88.21.49.12,2.62.72,2.62h0c.38,0,.51-.38.51-.89,0-7.87-9.13-8.7-11.68-9.61a11.35,11.35,0,0,0-3.6-1.13Z"/><path class="cls-12" d="M55.31,62.77a2.35,2.35,0,0,0-.1.66c0,2.53,4,1.25,7.83,2.71-.1-.37-6.08-3.45-7.36-3.45a2.73,2.73,0,0,0-.41,0Z"/><path class="cls-12" d="M63.19,67.2c2.21,3.64,2.37,6.42,4.66,6.42a1.88,1.88,0,0,0,1.9-2c0-1.28-5-5.06-5.9-5.43a.31.31,0,0,0,0,.1c0,.44.59,1.27.71,1.7-.47-.16-1-.69-1.46-.72Z"/><path class="cls-13" d="M69.87,74c-.11.39-.23.77-.38,1.16-.3.74,56.42-5.16,57-6.36a6.78,6.78,0,0,0,.31-1.15Z"/><path class="cls-6" d="M122.26,55.11a43.31,43.31,0,0,0-4.45-.83c-7.15-.45-16.6-.63-18.06-.59-44.34,1.23-44.87,2.19-44.87,2.19,1,.2,12.35,3.48,12.35,3.48h.07C68,58.58,110.14,55.53,122.26,55.11Z"/><path class="cls-4" d="M124.37,55.74c-9,1.32-55.13,3.52-57.07,3.61,0,0,0,0,0,0,.75.75,4.72,7.47,2.57,14.6l55.46-6.18c.18-1.61.38-3.67.38-4.84C125.71,60.9,126.09,56.53,124.37,55.74Z"/><path class="cls-4" d="M124.25,55.68c-.62-.21-1.29-.4-2-.57-12.12.42-54.26,3.47-55,4.24,1.94-.09,48.05-2.29,57.07-3.61Z"/><path class="cls-5" d="M125.31,55.08h0a52,52,0,0,0-7.45-.8,43.31,43.31,0,0,1,4.45.83c.7.17,1.37.36,2,.57l.12.06c1.72.79,1.34,5.16,1.34,7.23,0,1.17-.2,3.23-.38,4.84l1.49-.17C127.51,64.32,128.37,55.42,125.31,55.08Z"/><path class="cls-3" d="M117.37,70.12s.57-12.89-.4-13.91c-2.25-2.38-24.24-2-24.24-2H85.05s17.61,1.73,18.54,3.32.73,14.37.73,14.37,9.34-1.13,10.66-1.26A10.4,10.4,0,0,0,117.37,70.12Z"/><path class="cls-7" d="M104.39,71.77c-.09-2.77-.18-5.54-.31-8.3-.06-1.38-.14-2.76-.31-4.13,0-.34-.09-.68-.15-1s-.14-.69-.33-.8a6.91,6.91,0,0,0-1.85-.71c-2.67-.66-5.42-1.07-8.15-1.49s-5.49-.78-8.24-1.11c2.76.23,5.52.48,8.27.83a71.93,71.93,0,0,1,8.22,1.38,6.69,6.69,0,0,1,2,.76.93.93,0,0,1,.23.25,2.14,2.14,0,0,1,.12.28,5.18,5.18,0,0,1,.14.53c.08.34.13.69.18,1,.15,1.39.21,2.78.26,4.16C104.56,66.23,104.51,69,104.39,71.77Z"/><path class="cls-7" d="M117.37,70.12c0-1.61,0-3.21,0-4.81s0-3.21-.06-4.8c0-.8-.08-1.6-.15-2.39A8.91,8.91,0,0,0,117,57a2,2,0,0,0-.16-.52l-.05-.08-.1-.08a1.21,1.21,0,0,0-.22-.15,8.34,8.34,0,0,0-2.22-.69c-.78-.15-1.57-.25-2.36-.35-3.17-.38-6.38-.51-9.58-.63s-6.4-.19-9.61-.23c3.21-.12,6.41-.17,9.62-.12s6.42.19,9.62.54c.8.1,1.6.21,2.39.38a8.47,8.47,0,0,1,2.35.75A1.2,1.2,0,0,1,117,56l.14.11.11.17a2.8,2.8,0,0,1,.19.63c.08.41.12.81.16,1.21.07.81.09,1.61.1,2.42C117.72,63.71,117.57,66.92,117.37,70.12Z"/><path class="cls-9" d="M112.6,70.58c.09-1.79.29-8.17.3-10,0-.9-.07-1.79-.16-2.69a6,6,0,0,0-.12-.7,3.48,3.48,0,0,0-.36-.66S95,54.29,91.64,53.89c5.56.9,19.61,2.31,19.85,2.75.09.21.31.47.32.64s.06.44.09.65c.07.89.07,1.79.08,2.69l.1,5.38C112.13,67.79,112.5,72.38,112.6,70.58Z"/><path class="cls-9" d="M109.72,71.08c0-2.62,0-5.24,0-7.85,0-1.31,0-2.62-.12-3.92a7.48,7.48,0,0,0-.28-1.85,3.46,3.46,0,0,0-.75-.24c-.31-.08-.64-.13-1-.2-2.56-.53-5.15-.94-7.73-1.38l-7.74-1.35c2.61.3,5.21.63,7.8,1s5.17.79,7.76,1.28c.32.07.64.13,1,.22l.49.13.27.11.13.06a.79.79,0,0,1,.14.17,7.33,7.33,0,0,1,.3,2c.07,1.31.09,2.62.06,3.94C110,65.85,109.89,68.46,109.72,71.08Z"/><path class="cls-9" d="M115,70.65l.11-6.12c0-2,0-4.07-.11-6.09a8.82,8.82,0,0,0-.21-1.47,1.17,1.17,0,0,0-.11-.3c-.06-.11,0-.09-.18-.15a4.77,4.77,0,0,0-.7-.2c-1-.23-2-.39-3-.57l-6-1c2,.15,4.07.35,6.09.62,1,.13,2,.29,3,.51a6,6,0,0,1,.77.22.59.59,0,0,1,.38.32,1.45,1.45,0,0,1,.16.4,9.26,9.26,0,0,1,.25,1.55,57,57,0,0,1,0,6.13Q115.3,67.6,115,70.65Z"/><path class="cls-9" d="M107,71.48c.09-2.62.14-5.25.1-7.86a36,36,0,0,0-.27-3.9,4.69,4.69,0,0,0-.51-1.77c-.11-.11-.13-.17-.29-.21s-.3-.1-.45-.13l-1-.23c-2.55-.58-5.13-1.05-7.7-1.56s-5.15-1-7.72-1.53q3.9.54,7.78,1.2c2.59.44,5.16.9,7.74,1.46l1,.24.49.15a.72.72,0,0,1,.27.13,1.12,1.12,0,0,1,.21.23,5,5,0,0,1,.57,2,29,29,0,0,1,.21,3.95C107.47,66.25,107.3,68.87,107,71.48Z"/><polygon class="cls-14" points="104.12 71.97 117.43 70.32 117.43 68.79 104.32 70.18 104.12 71.97"/><path class="cls-10" d="M111.21,54.29c.2.3,4.57.4,3.67,1.29S97.2,65.81,95,66s-8.65-2.08-9.14-2.08-16,0-17.09-1.59.4-5,.4-5Z"/><path class="cls-15" d="M112,51.54s2.07.16,2.54.21,1.27,1.43-1.32,2.91C109.91,56.54,97,63,94.47,64.9c-.69.51-6.89-5.4-6.89-5.4l-14.45.12Z"/><path class="cls-16" d="M111.37,51.06s2.06.16,2.53.22,1.27,1.42-1.32,2.9c-3.3,1.89-15.38,8-17.9,9.88C94,64.57,87,59,87,59l-14.46.13Z"/><path class="cls-4" d="M93.09,62.84s-18.43-.26-21.56-.38c-5.26-.21-5.8-7.17-2.54-7.75,5.79-1,30.28.42,30.28.42Z"/><path class="cls-17" d="M93.27,62.84s-17.9-.21-20.94-.31c-5.1-.17-5.62-5.88-2.46-6.36,5.62-.84,19.47,5.93,19.47,5.93Z"/><path class="cls-4" d="M93.27,62,73.6,61.58c-4.91-.13-6.21-3.77-3.16-4.12C75.85,56.83,87,61.89,87,61.89Z"/><path class="cls-5" d="M70.08,54.05l-1.51.8s1.21-.27,7.31.81c5.79,1,18.6,8.34,18.6,8.34a11.31,11.31,0,0,1,1.3-1.33c-5.51-3-15.28-7.38-19.38-8.12A31.83,31.83,0,0,0,70.08,54.05Z"/><path class="cls-17" d="M91.81,43.16c-1.42.22-16.81,8.3-21.73,10.89a31.83,31.83,0,0,1,6.32.5c4.1.74,13.87,5.16,19.38,8.12,4.72-4.25,17-11.11,18.85-10.92C115.2,51.81,99,42,91.81,43.16Z"/><path class="cls-18" d="M94.48,64q-3.11-1.68-6.27-3.26a68.66,68.66,0,0,0-6.42-2.92c-2.21-.77-4.47-1.45-6.75-2-1.14-.29-2.29-.55-3.44-.74a17.17,17.17,0,0,0-1.74-.2,4.68,4.68,0,0,0-.84,0,1.17,1.17,0,0,0-.36.11,2,2,0,0,0-.32.25,4.2,4.2,0,0,0-1.12,3.1A4.42,4.42,0,0,0,67.55,60a2.91,2.91,0,0,0,1.07,1.26,6.87,6.87,0,0,0,3.27,1c1.17,0,2.35.07,3.53.11l7.07.2,7.07.24-7.08-.07-7.07-.1c-1.18,0-2.35,0-3.54-.07a7.13,7.13,0,0,1-3.43-1,3.28,3.28,0,0,1-1.19-1.39,4.63,4.63,0,0,1-.37-1.79,5.81,5.81,0,0,1,.26-1.8,3.68,3.68,0,0,1,1-1.57,2.66,2.66,0,0,1,.38-.28,1.3,1.3,0,0,1,.48-.16,4.07,4.07,0,0,1,.92,0,13,13,0,0,1,1.77.21c1.17.2,2.32.46,3.47.76a70.45,70.45,0,0,1,6.77,2.08,66.85,66.85,0,0,1,6.4,3Q91.42,62.24,94.48,64Z"/><path class="cls-18" d="M70.08,54.05a45,45,0,0,1,6.75.67,15.8,15.8,0,0,1,1.65.39c.55.17,1.08.37,1.61.56q1.59.61,3.15,1.26c2.09.88,4.16,1.79,6.23,2.7s4.13,1.84,6.18,2.79l-.17,0q2.28-1.57,4.58-3.1c1.54-1,3.08-2,4.66-3s3.24-1.78,4.85-2.65c.82-.43,1.64-.85,2.47-1.25.42-.2.84-.39,1.27-.56a6.37,6.37,0,0,1,.66-.21l.34,0a.42.42,0,0,1,.32.11.41.41,0,0,0-.32-.1,1.86,1.86,0,0,0-.34.06,5,5,0,0,0-.65.23c-.42.17-.84.38-1.25.59-.81.42-1.62.87-2.42,1.32s-1.61.9-2.42,1.33-1.6.91-2.38,1.4c-1.55,1-3.08,2-4.62,3s-3,2.07-4.56,3.12l-.08.06-.09-.05c-4.11-1.86-8.22-3.75-12.37-5.52-1-.46-2.08-.89-3.12-1.31-.53-.21-1.06-.41-1.59-.58a15,15,0,0,0-1.63-.42A47.16,47.16,0,0,0,70.08,54.05Z"/><path class="cls-19" d="M85.22,61.58s-11.19-.43-12.46-1S69,58.09,71,57.88,85.22,61.58,85.22,61.58Z"/><path class="cls-20" d="M80,49s9.24,2.12,12.62,3.7S102.23,58,102.23,58l6.55-3.9s-8.22-4.83-12-5.92c-7.82-2.22-11.41-2-11.41-2Z"/><g class="cls-21"><path class="cls-7" d="M85.33,46.15a25.63,25.63,0,0,1,6.24.5,30.81,30.81,0,0,1,6,1.84c1.93.8,3.82,1.68,5.69,2.62s3.71,1.93,5.52,3q-2.77-1.45-5.6-2.8c-1.88-.91-3.77-1.8-5.7-2.57a31.89,31.89,0,0,0-6-1.88,28.64,28.64,0,0,0-3.08-.5A23.22,23.22,0,0,0,85.33,46.15Z"/></g><g class="cls-22"><path class="cls-7" d="M79.52,49.11c2,.3,4,.66,6,1.14a45.94,45.94,0,0,1,5.85,1.91c1.91.77,3.79,1.6,5.61,2.54a27,27,0,0,1,5.2,3.28,17.37,17.37,0,0,0-2.56-1.68c-.89-.51-1.8-1-2.72-1.44-1.83-.9-3.71-1.73-5.61-2.48a49.74,49.74,0,0,0-5.82-2C83.54,49.92,81.53,49.5,79.52,49.11Z"/></g><path class="cls-7" d="M67.74,57.51S67.53,56.4,69.11,56a14.1,14.1,0,0,1,6.92.69c2.91.89,7.24,2.27,7.24,2.27s-5.76-2.38-6.71-2.54-6.39-1.74-7.39-1.16A2.43,2.43,0,0,0,67.74,57.51Z"/><path class="cls-23" d="M80.89,48.42a56.9,56.9,0,0,1,6,1.11,40.17,40.17,0,0,1,5.86,1.83A60.1,60.1,0,0,1,98.36,54q2.7,1.47,5.24,3.19c-1.73-1.08-3.52-2.08-5.33-3s-3.66-1.82-5.56-2.58a44.88,44.88,0,0,0-5.82-1.88Q83.92,49,80.89,48.42Z"/><path class="cls-23" d="M82.64,47.58a58.18,58.18,0,0,1,6,1.1,40.7,40.7,0,0,1,5.8,1.84,56.38,56.38,0,0,1,5.48,2.64,57.1,57.1,0,0,1,5.18,3.19c-1.71-1.08-3.47-2.08-5.26-3s-3.62-1.82-5.49-2.58a43.05,43.05,0,0,0-5.76-1.88C86.61,48.36,84.63,47.92,82.64,47.58Z"/><path class="cls-23" d="M84.17,46.73a54.75,54.75,0,0,1,5.93,1.11,40.48,40.48,0,0,1,5.75,1.84,54.39,54.39,0,0,1,5.43,2.64,58.33,58.33,0,0,1,5.12,3.18c-1.69-1.08-3.44-2.07-5.21-3a59.91,59.91,0,0,0-5.43-2.58A41,41,0,0,0,90.05,48Q87.14,47.26,84.17,46.73Z"/><path class="cls-23" d="M85.22,46.31a55.22,55.22,0,0,1,6,1.12A45.38,45.38,0,0,1,97,49.26q2.82,1.13,5.57,2.44c1.82.89,3.61,1.83,5.37,2.85q-2.7-1.41-5.45-2.68c-1.84-.85-3.69-1.66-5.58-2.39a50.31,50.31,0,0,0-5.76-1.88C89.2,47.1,87.22,46.66,85.22,46.31Z"/></g></g></svg>