<svg id="रोटी" xmlns="http://www.w3.org/2000/svg" viewBox="0 0 150 160"><defs><style>.cls-1{fill:#fff;}.cls-2,.cls-5{fill:#faf2cb;}.cls-3{fill:#dbcc8f;}.cls-4{fill:#f2e5af;}.cls-5{opacity:0.47;}.cls-6{fill:#d89961;}.cls-7{fill:#a97c50;}.cls-8{fill:#754c29;}.cls-9{fill:#8cb748;}.cls-10{fill:#769933;}</style></defs><path class="cls-1" d="M114.49,32.56l0,0,0,0Z"/><path class="cls-1" d="M138.77,104.07a13,13,0,0,0,.35-1.26,12.17,12.17,0,0,0,.07-5c-.53-2.66-2.47-5.1-3.77-7.46q-1.3-2.39-2.55-4.78c-.19-.36-.37-.73-.56-1.1a4.6,4.6,0,0,0,2.57-2.17,12.79,12.79,0,0,0,.7-1.32l.09-.17.08-.21c.12-.28.23-.56.33-.85,0-.13.09-.25.13-.38a12.68,12.68,0,0,0,.41-6.25c-.52-2.66-2.38-5.1-3.63-7.47q-1.25-2.37-2.44-4.77c-.26-.52-.51-1-.76-1.57-.59-1.19-1.17-2.38-1.73-3.59s-1.18-2.55-1.76-3.84A37.51,37.51,0,0,0,120.6,43a30.43,30.43,0,0,0-4.28-4.43c-.43-.39-.86-.77-1.3-1.14h0a12.81,12.81,0,0,0-1-.78l-.29-.2c-.29-.19-.59-.37-.89-.54l-.22-.12c-.32-.18-.65-.34-1-.49h0l-.13,0-.4-.17-.69-.27-.21-.08-.4-.13-.66-.21-.18-.05-.1,0-.33-.09-.95-.23-.21-.06a43.06,43.06,0,0,0-4.47-1c-3.33-.57-6.7-.59-9.89-1.75-3.74-1.35-6.28-2.56-10.44-2.7a85.37,85.37,0,0,0-9.73.09,75.63,75.63,0,0,0-9.36,1.35,20,20,0,0,0-3.24,1c-3.07,1.2-6.16,2.12-9.19,3.2l-1,.26-.31.09-.73.22-.37.12-.67.24-.37.15c-.23.09-.45.19-.67.3l-.32.15c-.32.16-.63.34-.94.53h0L45,36.6h0c-2.93.32-5.33,3.06-7.35,5q-.72.6-1.41,1.23c-1.15.89-2.43,1.68-3.55,2.58C31.06,46.77,30,48.64,28.29,50a36.58,36.58,0,0,0-9.82,12.56c-2.4,5-4.89,11.15-4.11,16.83.36,2.62,1.28,5.14,1.77,7.75a.6.6,0,0,0-.06.11c-2.51,5.06-5.1,11.16-4.29,16.83.4,2.78,1.47,5.44,1.94,8.21.43,2.5.39,5.26,1.59,7.56,1.52,2.92,3.2,5.71,4.75,8.61a6,6,0,0,0,1.23,1.77c4.8,4.24,14.3-3.55,19.08-4.67,2.18-.51,4.71-.12,7-.25a71.66,71.66,0,0,0,14.32-2.49l.23-.06,1.85-.5c2.24-.62,4.46-1.28,6.65-2l1.3-.39c.62-.18,1.24-.38,1.86-.57l.56-.17c8.66-2.59,16.86-5.47,25.33-7.53a87.52,87.52,0,0,1,15.87-2.34c1.8-.09,5.4.11,8.08-.55,1.8,0,3.61,0,5.45.21,3.5.33,6.4,1.37,8.56-2a13,13,0,0,0,.73-1.32,1.4,1.4,0,0,1,.09-.17c0-.06,0-.14.08-.21a8.86,8.86,0,0,0,.34-.85C138.68,104.33,138.73,104.2,138.77,104.07Z"/><path class="cls-2" d="M35.42,47.64c-1.53,1.24-2.56,3-4.13,4.29A34.15,34.15,0,0,0,22.1,63.69c-2.25,4.73-4.58,10.44-3.86,15.75.36,2.61,1.32,5.1,1.75,7.69.39,2.34.35,4.92,1.43,7.08,1.37,2.74,2.87,5.35,4.27,8.07a5.81,5.81,0,0,0,1.1,1.65c4.32,4,12.85-3.32,17.14-4.37,2-.48,4.24-.12,6.26-.23,7.58-.45,14.67-2.8,21.88-5,13-4.06,25.42-9.26,39.19-9.94,2.5-.13,8.87.39,10.07-2.41.73-1.7-1.42-4.37,1.37-5,1.88-.4,1.42-.08,2.34-1.57a6.17,6.17,0,0,0,.6-5.37c-1.53-4.28-6.35-7.68-9.75-10.3-5.41-4.17-12.15-8.93-19-10.22-6.34-1.18-12.69-.2-19,.6-5.46.68-8.79-.33-13.69-2C57,45.57,53.89,38.6,47,39.36c-2.86.31-5.18,3.09-7.13,5C38.52,45.55,36.84,46.5,35.42,47.64Z"/><path class="cls-3" d="M37,47.32c-1.54,1.24-2.56,3-4.13,4.28a34.28,34.28,0,0,0-9.2,11.76c-2.25,4.74-4.58,10.45-3.85,15.76.36,2.6,1.32,5.1,1.75,7.69.38,2.34.35,4.92,1.43,7.08,1.36,2.73,2.87,5.35,4.27,8.06.3.6,3.43,2.23,4.09,2.09,5.44-1.11,7.76-4.16,12.06-5.21,2-.47,6.33.29,8.35.17,7.57-.44,15.26-3.16,22.47-5.41,13-4.06,24.83-8.89,38.6-9.58,2.5-.12,8.86.4,10.07-2.4.72-1.7-1.42-4.38,1.36-5,1.89-.39,1.43-.08,2.35-1.57a6.17,6.17,0,0,0,.59-5.37c-1.53-4.27-6.34-7.67-9.75-10.29-5.41-4.17-12.15-8.93-19-10.22-6.35-1.19-12.69-.2-19,.59-5.46.69-8.79-.33-13.68-2-7.18-2.5-10.25-9.47-17.18-8.71-2.87.31-5.19,3.09-7.13,5C40.1,45.23,38.42,46.18,37,47.32Z"/><path class="cls-2" d="M132.73,73.56a11.9,11.9,0,0,1-.06,4.68,13.12,13.12,0,0,1-.82,2.53,11.53,11.53,0,0,1-.74,1.39c-1.94,3.14-4.54,2.17-7.69,1.87-5.44-.53-10.62,0-16.1.59-4.39.46-8.82.24-13.17,1l-.72.14A74.17,74.17,0,0,0,80.58,90c-3,1.2-6,2-9,3.08h0c-5.39,2-10.55,3.69-16.3,3.92s-11.59.29-17.19,1.77a31.81,31.81,0,0,0-6,2.7,22.4,22.4,0,0,1-2.44,1.1,4.25,4.25,0,0,1-.71.2c-1.87.34-2.83-1.05-2.83-3.14,0-3.23-1.85-5.94-2.27-9.13a26.14,26.14,0,0,0-.69-3.46c-.68-2.56-1.62-4.85-2.49-7.58l-.09-.32c-1-3.58.71-7.42,2.34-10.53,1-2,.75-4.42,1.68-6.45.83-1.83,2.63-2.74,4-4.12A21.56,21.56,0,0,0,31,54.47c.59-.91,1.24-1.82,1.95-2.71a62.11,62.11,0,0,1,14-12.4l.56-.36a21.37,21.37,0,0,1,6.87-2.36l1.39-.34A21,21,0,0,0,58,35.55l.25-.1c1-.41,2.07-.86,3.1-1.26a18.8,18.8,0,0,1,3-.95A71.8,71.8,0,0,1,73.17,32a77.59,77.59,0,0,1,8.76-.09l.34,0c3.9.12,6.28,1.25,9.78,2.52,4.48,1.63,10,1.47,14.75,2.84a18.19,18.19,0,0,1,2.5.91,13.55,13.55,0,0,1,3.2,2,39.52,39.52,0,0,1,10.58,13.51c.53,1.21,1.08,2.41,1.64,3.6l.3.65c1.37,2.92,2.81,5.79,4.32,8.65C130.51,68.79,132.25,71.07,132.73,73.56Z"/><path class="cls-4" d="M109.3,38.17c.65.29-.92,3.17-1.18,3.48a6.94,6.94,0,0,1-4,2c-2.24.51-4.56.53-6.8,1.06S92,43.34,89.53,43.46c-5,.26-7.19-.89-11.79-1.71-3.34-.59-3,4.27-4.4,7.06-.88,1.69-4.25.87-5.37,2.41-.82,1.13-2.77-2.94-4.12-2.53s-2.28,4.7-3.33,5.37c-1.4.91-.76,3.76-1.44,5.12s-3.66,5.56-5.32,5.91c-1.19.24-2.26-.31-2.14-1.79s2.76-1.15,2-2a25,25,0,0,1-.85-8.85c.25-2.32,2.16-5.23,2.33-7.54A16.46,16.46,0,0,1,56,39.64a17.17,17.17,0,0,1,2.27-4.19c1-.41,2.07-.86,3.1-1.26a18.8,18.8,0,0,1,3-.95A71.8,71.8,0,0,1,73.17,32a78.94,78.94,0,0,1,9.1-.07c3.9.12,6.28,1.25,9.78,2.52C97.32,36.34,104,35.77,109.3,38.17Z"/><path class="cls-3" d="M92.05,34.42a5.71,5.71,0,0,1-6.59.92c-3.12-1.7.11,1-3,1.86s-9.73-1.22-12.37.28a61.61,61.61,0,0,0-6.79,4.66c-1.27,1-2.63,4.64-3.8,5.11-.59-2-4-.56-8.64-1.86-1.08-.3-8.07-1.78-6.87-2.25-1,.32,15.19-6.63,15-7.08l.25-.1c1-.41,2.06-.86,3.1-1.27a20.08,20.08,0,0,1,3-.95,72.06,72.06,0,0,1,8.77-1.26C77.08,32.24,89.13,34.33,92.05,34.42Z"/><path class="cls-4" d="M94.15,85.62l-.72.14A74.17,74.17,0,0,0,80.58,90c-3,1.2-6,2-9,3.08h0c-2.2-.51-4.27-.15-6.71.17a86.59,86.59,0,0,1-11.78,1.19,22.72,22.72,0,0,0-6.95.92c-1.24.38-2.59,1.31-3.92,1.25-5.92-.26,3.1-5.89,4.68-6.74,5.29-2.82,5-5.47,1.31-9.53-2-2.15-2.7-5.81,1-6.22,4.47-.49,8.5,1.75,12.24,3.75,2.2,1.19,4.69,2.08,6.64,3.68,1.23,1,2,2.41,3.19,3.45,1.88,1.68,4.71,3.27,7.12,2,3-1.52,7.06-8.25,10.92-4.11C92.81,83.42,93.59,84.21,94.15,85.62Z"/><path class="cls-4" d="M50.57,41.7c-10.59,7.5,1.36,6,.41,8.76-1.61,4.61-6.15,2.73-9.58,5.72S36,60.79,35.87,65.31c-.08,4.73-5.55,4.56-6.76,9-.9,3.31.37,19.93-4.61,14.64a14,14,0,0,1-1.41-1.86c-.68-2.56-1.62-4.85-2.49-7.58-1.16-3.67.58-7.64,2.25-10.85,1-2,.75-4.42,1.68-6.45.83-1.83,2.63-2.74,4-4.12A21.56,21.56,0,0,0,31,54.47C34.73,48.73,41.18,43.15,47,39.36l.56-.36a21.37,21.37,0,0,1,6.87-2.36C55.39,39.62,54.26,40.75,50.57,41.7Z"/><path class="cls-3" d="M43.85,41.53c1.77.87,2.65,3.14,2.32,5.7-.67,5.28-5.23,6.1-9,8.61-4.52,3-2.24,14.35-5.45,18.42-2-1.93-4.29,3-5,1.4-1-2.2,1.75-10.34,1.5-12.62-.12-1.17-.79-2.44-.76-3.61a3,3,0,0,1,0-.42Z"/><path class="cls-4" d="M132.73,73.56a11.9,11.9,0,0,1-.06,4.68,13.12,13.12,0,0,1-.82,2.53c-.42,0-.84,0-1.28.08-6.44.46-12.9.57-19.35,1.05-8.41.64-16.16.55-24.17,3.25-3.73,1.25-6.77,4.06-9.77,1.44,3.21-1.36,6-2.32,8.79-4.62,1.83-1.53,3.2-3.62,5-5.19,4.73-4.18,10.3-.72,15.67-2,3.77-.87,6.39-3.27,5.94-7.21-.14-1.23-.68-2-.14-3.16,1.1-2.26,4.45-1.89,6.54-2.49,2.45-.71,3.58-3.53,5.66-4.68,1.46,3.14,3,6.22,4.62,9.3C130.51,68.79,132.25,71.07,132.73,73.56Z"/><path class="cls-3" d="M132.67,78.24a12.52,12.52,0,0,1-1.56,3.92c-1.94,3.14-4.54,2.17-7.69,1.87-5.44-.53-10.62,0-16.1.59-4.63.49-9.31.21-13.89,1.14A74.17,74.17,0,0,0,80.58,90c-3,1.2-6,2-9,3.08C66.19,95.06,61,96.79,55.27,97s-11.59.29-17.19,1.77a31.81,31.81,0,0,0-6,2.7c2.44-5.13,7.86-8.31,13.42-9.45,2.92-.6,5.41-.13,8.31-.1,3.07,0,6.44-.64,9.54-.86,7.09-.5,11.62-4,17.71-7.27s12.12-3.7,18.86-3.21,13-1.24,19.6-2.38A36.64,36.64,0,0,1,132,78.08Z"/><path class="cls-3" d="M33,51.76c-.08,1.86-1,3.41-1.81,5.37-.35.91-.25,2.94-1.13,2.48.95,3.21-1.37,5.56-2.45,8.4-1.22,3.23-3.65,5.65-5.07,8.87-.41,1-.43,1.36-1.25,1.89a3.86,3.86,0,0,1-.75.39c-1-3.58.71-7.42,2.34-10.53,1-2,.75-4.42,1.68-6.45.83-1.83,2.63-2.74,4-4.12A21.56,21.56,0,0,0,31,54.47C31.61,53.56,32.26,52.65,33,51.76Z"/><path class="cls-4" d="M93.53,53.18c-1.46-.84-3.3-1-4.83-1.76s-5.21-4.92-6.87-5.18-.87,3.41-1.65,4.83c-1.86,3.42-.6,6.27.58,9.56,2.5,6.92-2.86,8.78-5.48,14.23-1.18,2.46-1.66,5.7,1.48,6.82,5.75,2.07,8.56-8,12.24-10.38,2.75-1.76,4.94-1,8-1A7.37,7.37,0,0,0,104,64.51c.78-3.08,0-7.15,2.32-9.77,1.57-1.82,6.52-1.08,6.89-3.76.54-4-7-3.52-9-2.14s-2.06,1.6-4.47.72c-1.44-.53-3.14-1-4.54-.06S94.88,53.63,93.53,53.18Z"/><path class="cls-4" d="M53,57.1A14.68,14.68,0,0,1,53,60c-.27,1.11-1,1.45-1.57,2.36-.66,1.15-3.78,2.85-3.7,4.09s3.71,2.12,3.76,3.26a.56.56,0,0,0,1,.25,6.39,6.39,0,0,1,2.1-2.3c1.27-.85,2.78-.9,4.06-1.61,1.43-.8,1.45-2.22,1.31-3.63a7.88,7.88,0,0,1,1-5.26c1-2.1,2.13-5.51-1.11-6.33-2.62-.66-3.33,1.6-4.32,3.39C55.09,55,54,56.9,53,56.77,53.07,56.93,53.08,57.17,53,57.1Z"/><path class="cls-4" d="M112,35.58h0a.05.05,0,0,1,0,0Z"/><path class="cls-4" d="M125,57.92a3.38,3.38,0,0,0-.41-.24c-2-.94-5.72,2.14-6.54-1.29-.29-1.2.58-2.22.4-3.42a6.74,6.74,0,0,0-2.08-3.43c-.78-.8-1.75-1.29-2.2-2.35-.19-.43-.22-.91-.41-1.34a7.56,7.56,0,0,0-4-3.47c-1.3-.62-4.23-1.43-4.68-3-.26-.88.54-1.57,1.69-2.12a18.19,18.19,0,0,1,2.5.91,13.55,13.55,0,0,1,3.2,2,39.52,39.52,0,0,1,10.58,13.51c.53,1.21,1.08,2.41,1.64,3.6Z"/><path class="cls-1" d="M115.22,42.66c-.57-.53-1.14-1-1.73-1.54-5.6-4.74-14-3.42-20.45-5.74-3.5-1.27-5.88-2.4-9.77-2.53a76.9,76.9,0,0,0-9.11.08,70.16,70.16,0,0,0-8.77,1.26c-3,.63-5.64,2.27-8.63,3.06C54,38,51,38.37,48.5,40,42.59,43.75,35.84,49.5,32,55.43A21.56,21.56,0,0,1,29.5,59c-1.35,1.38-3.15,2.29-4,4.11-.93,2-.63,4.44-1.68,6.45-1.67,3.21-3.4,7.18-2.24,10.85,1.23,3.89,2.63,6.9,3.17,11,.42,3.2,2.27,5.9,2.27,9.14a4.39,4.39,0,0,0,.44,2.06c-.95-.41-1.43-1.54-1.43-3,0-3.23-1.85-5.94-2.27-9.13-.55-4.15-2-7.15-3.18-11-1.16-3.67.57-7.64,2.25-10.85,1-2,.75-4.42,1.68-6.45.83-1.83,2.63-2.74,4-4.12A21.56,21.56,0,0,0,31,54.47C34.85,48.54,41.6,42.79,47.51,39,50,37.42,53,37,55.77,36.3c3-.8,5.64-2.43,8.63-3.06A72.09,72.09,0,0,1,73.17,32a78.94,78.94,0,0,1,9.1-.07c3.9.12,6.28,1.26,9.78,2.52,6.4,2.33,14.85,1,20.45,5.74C113.43,41,114.34,41.78,115.22,42.66Z"/><path class="cls-3" d="M126.22,63.86c-1.68-.47-2.35,2.81-3,3.85-1.9,2.86-5.28,4.46-7.21,7.07,3.77-1.16,5.86.19,9.48.85,1.13.2,2.2.13,3.16,1S129.2,79,131,78.52c4.52-1.2-.93-8.47-1.88-10.22C128.29,66.86,128.27,64.57,126.22,63.86Z"/><path class="cls-5" d="M132.49,73.45l0,.14a11,11,0,0,1-3.21,10.19,11.72,11.72,0,0,0,1.06-8.7c-.71-2.58-2.29-4.83-3.68-7.12-2.8-4.59-4.94-9.56-7.73-14.16-3.14-5.18-7.32-10-13-12.29-4-1.6-8.44-1.74-12.69-2.32s-8.27-2.8-12.68-2.8a79.85,79.85,0,0,0-11.3.76,63.64,63.64,0,0,0-10.94,3c-1.67.56-3.41.88-5,1.58A42.95,42.95,0,0,0,34.8,56.84a55.77,55.77,0,0,1-4.93,6.91A17.3,17.3,0,0,0,27,67c-.84,1.55-.91,3.39-1.31,5.11-.6,2.59-2,5-2.34,7.6C22.94,82.88,24,86,25,89l4.47,13.37a2,2,0,0,1-2.7-.37,5.93,5.93,0,0,1-1.05-2.83,125.48,125.48,0,0,0-4.31-16.83c-.71-2.15-1.49-4.37-1.31-6.63.25-3,2.18-5.65,3-8.57.56-2,.64-4.19,1.79-5.92a18.53,18.53,0,0,1,3.09-3A38.68,38.68,0,0,0,32.69,52a42.2,42.2,0,0,1,12.38-11.5c5.1-3.12,10.65-4.3,16.1-6.43a19.82,19.82,0,0,1,3-.94A71.8,71.8,0,0,1,73,31.85a81.26,81.26,0,0,1,9.1-.08c3.9.13,6.28,1.26,9.78,2.53,3,1.09,6.14,1.11,9.26,1.64a29.09,29.09,0,0,1,9.51,3.13c4.85,2.77,8.35,7.42,11.05,12.31s4.73,10.12,7.48,15C130.44,68.65,131.91,70.9,132.49,73.45Z"/><path class="cls-6" d="M102.2,64.07c-.08.05-.72.65-.79.7-1.39,1-1.55,3.18-1.31,4.86a3.53,3.53,0,0,0,2.49,3.3,3.57,3.57,0,0,0,2.67-.09,5.78,5.78,0,0,0,2.3-2.77c.55-1,1.93-3.71,1.33-4.83-.67-1.28-1.87-1.1-3.19-1.35S103.39,63.33,102.2,64.07Z"/><path class="cls-7" d="M101.87,65c-.05,0-.49.66-.54.72-1,1-.79,2.93-.31,4.31a3.2,3.2,0,0,0,4.88,1.86,5,5,0,0,0,1.49-2.72c.29-1,1-3.45.33-4.29s-1.77-.62-2.92-.61S102.75,64.18,101.87,65Z"/><path class="cls-8" d="M102.8,66s-.84.39-.88.43a2.82,2.82,0,0,0-.76,3,3.26,3.26,0,0,0,2.59,2.1c.62.08,1.21-.57,1.72-1a2.86,2.86,0,0,0,1.27-1.65c.22-.77,1.08-2.36.53-3a3.16,3.16,0,0,0-2.61-.88C103.69,65.07,103.51,65.34,102.8,66Z"/><path class="cls-6" d="M99.87,47.73c-.1,0-1,.28-1.12.29-1.85.22-3.09,2.46-3.68,4.37a4.61,4.61,0,0,0,.83,4.92,4,4,0,0,0,2.68,1.45,5.93,5.93,0,0,0,3.64-1.6c1-.78,3.71-2.8,3.67-4.33,0-1.74-1.31-2.24-2.49-3.27S101.4,47.64,99.87,47.73Z"/><path class="cls-7" d="M99.09,48.52c-.08,0-.81.42-.89.45-1.52.52-2.22,2.65-2.42,4.38a4,4,0,0,0,1.44,4,3.29,3.29,0,0,0,2.46.75,5.24,5.24,0,0,0,2.81-2c.75-.85,2.68-3,2.42-4.34-.29-1.48-1.43-1.67-2.58-2.33S100.36,48.17,99.09,48.52Z"/><path class="cls-8" d="M99.52,50.11c-.06,0-1-.08-1.08-.06a3.18,3.18,0,0,0-2.23,2.74,4.24,4.24,0,0,0,1.52,3.72c.58.44,1.48.09,2.16,0a2.86,2.86,0,0,0,2.06-1c.61-.69,2.23-1.87,2-2.91a3.93,3.93,0,0,0-2.15-2.44C100.84,49.65,100.54,49.83,99.52,50.11Z"/><path class="cls-6" d="M63.2,59.46s-.42.38-.46.41c-.82.57-.91,1.86-.77,2.85a2.17,2.17,0,0,0,3,1.89A3.37,3.37,0,0,0,66.36,63c.32-.61,1.13-2.18.78-2.84s-1.1-.64-1.88-.79S63.9,59,63.2,59.46Z"/><path class="cls-7" d="M63,60l-.32.42A2.61,2.61,0,0,0,62.51,63a1.8,1.8,0,0,0,1.56,1.4,1.77,1.77,0,0,0,1.31-.31,2.91,2.91,0,0,0,.88-1.6c.17-.57.59-2,.19-2.52s-1-.36-1.72-.36S63.53,59.52,63,60Z"/><path class="cls-8" d="M63.56,60.59s-.5.22-.52.25a1.68,1.68,0,0,0-.45,1.77,1.91,1.91,0,0,0,1.53,1.23c.36,0,.71-.33,1-.55a1.72,1.72,0,0,0,.75-1c.13-.46.63-1.39.31-1.79A1.85,1.85,0,0,0,64.65,60C64.08,60,64,60.2,63.56,60.59Z"/><path class="cls-6" d="M48.11,53.64c-.09,0-.87.8-1,.85-1.7,1.2-1.9,3.9-1.61,6s1.08,3.38,3.05,4a4.4,4.4,0,0,0,3.27-.1A7.07,7.07,0,0,0,54.69,61c.67-1.27,2.36-4.54,1.63-5.91-.83-1.57-2.3-1.35-3.92-1.65S49.57,52.73,48.11,53.64Z"/><path class="cls-7" d="M47.71,54.77c-.06.06-.6.82-.66.88-1.25,1.29-1,3.6-.38,5.29s1.47,2.68,3.24,2.91a3.75,3.75,0,0,0,2.75-.63,6.14,6.14,0,0,0,1.82-3.34c.35-1.18,1.24-4.22.4-5.26s-2.16-.75-3.58-.74S48.8,53.77,47.71,54.77Z"/><path class="cls-8" d="M48.85,56c-.05,0-1,.47-1.08.52a3.5,3.5,0,0,0-.93,3.69A4,4,0,0,0,50,62.78c.77.1,1.49-.7,2.11-1.16a3.51,3.51,0,0,0,1.56-2c.28-1,1.33-2.9.65-3.73a3.91,3.91,0,0,0-3.2-1.09C49.94,54.86,49.72,55.19,48.85,56Z"/><path class="cls-6" d="M82.6,54.53l-.61,0c-1-.19-2,.65-2.59,1.44a2.19,2.19,0,0,0,.76,3.49,3.45,3.45,0,0,0,2.12-.16c.66-.2,2.35-.71,2.58-1.42s-.31-1.24-.75-1.9S83.4,54.73,82.6,54.53Z"/><path class="cls-7" d="M82.08,54.78s-.48.06-.53.06c-.86,0-1.56.87-1.94,1.64a1.78,1.78,0,0,0,.08,2.09,1.82,1.82,0,0,0,1.13.73,2.93,2.93,0,0,0,1.76-.48c.53-.28,1.87-1,2-1.63s-.47-1-.94-1.48S82.79,54.81,82.08,54.78Z"/><path class="cls-8" d="M82,55.58s-.51-.2-.54-.2a1.68,1.68,0,0,0-1.58.91,1.92,1.92,0,0,0,.17,2c.22.29.74.28,1.11.33a1.64,1.64,0,0,0,1.21-.14c.42-.22,1.44-.51,1.51-1a1.87,1.87,0,0,0-.7-1.46C82.79,55.57,82.61,55.61,82,55.58Z"/><path class="cls-6" d="M89.76,71.46l-.62,0c-1-.19-2,.64-2.58,1.44a2.08,2.08,0,0,0-.38,2.4,2.15,2.15,0,0,0,1.13,1.09,3.45,3.45,0,0,0,2.12-.16c.66-.2,2.35-.71,2.58-1.42s-.3-1.25-.74-1.9S90.56,71.66,89.76,71.46Z"/><path class="cls-7" d="M89.23,71.7l-.52.07c-.86,0-1.56.87-1.95,1.64a1.79,1.79,0,0,0,.09,2.09,1.77,1.77,0,0,0,1.13.73,2.91,2.91,0,0,0,1.76-.49c.52-.27,1.87-1,1.94-1.62s-.46-1-.94-1.48S89.94,71.74,89.23,71.7Z"/><path class="cls-8" d="M89.2,72.51s-.51-.2-.55-.2a1.67,1.67,0,0,0-1.58.91,1.93,1.93,0,0,0,.18,2c.22.3.74.28,1.1.34a1.66,1.66,0,0,0,1.22-.14c.42-.22,1.44-.51,1.5-1a1.9,1.9,0,0,0-.7-1.47C90,72.5,89.76,72.53,89.2,72.51Z"/><path class="cls-6" d="M75.42,63.92l-.61,0c-1-.19-2,.64-2.59,1.44a2.06,2.06,0,0,0-.37,2.4A2.11,2.11,0,0,0,73,68.81a3.45,3.45,0,0,0,2.12-.16c.66-.2,2.35-.71,2.58-1.42s-.31-1.25-.75-1.9S76.22,64.12,75.42,63.92Z"/><path class="cls-7" d="M74.9,64.16l-.53.07c-.86,0-1.56.87-1.94,1.64A1.78,1.78,0,0,0,72.51,68a1.82,1.82,0,0,0,1.13.73,2.89,2.89,0,0,0,1.76-.49c.53-.27,1.87-1,1.95-1.62s-.47-1-.94-1.48S75.61,64.2,74.9,64.16Z"/><path class="cls-8" d="M74.86,65s-.51-.2-.54-.2a1.66,1.66,0,0,0-1.58.91,1.92,1.92,0,0,0,.17,2c.22.29.74.27,1.11.33a1.64,1.64,0,0,0,1.21-.14c.42-.22,1.44-.51,1.51-1a1.9,1.9,0,0,0-.7-1.47C75.61,65,75.43,65,74.86,65Z"/><path class="cls-6" d="M32.86,95.23l-.61,0c-1-.19-2,.65-2.59,1.44a2.19,2.19,0,0,0,.76,3.49,3.38,3.38,0,0,0,2.12-.16c.66-.2,2.35-.71,2.58-1.42s-.31-1.24-.75-1.9S33.66,95.43,32.86,95.23Z"/><path class="cls-7" d="M32.34,95.47l-.53.06c-.85,0-1.56.88-1.94,1.64A1.78,1.78,0,0,0,30,99.26a1.87,1.87,0,0,0,1.14.74,3,3,0,0,0,1.76-.49c.52-.28,1.86-1,1.94-1.62s-.47-1-.94-1.49S33.05,95.51,32.34,95.47Z"/><path class="cls-8" d="M32.3,96.27s-.51-.2-.54-.2a1.67,1.67,0,0,0-1.58.92,1.9,1.9,0,0,0,.17,2c.23.3.74.28,1.11.34a1.68,1.68,0,0,0,1.21-.14c.42-.22,1.45-.52,1.51-1a1.88,1.88,0,0,0-.7-1.46C33.05,96.27,32.87,96.3,32.3,96.27Z"/><path class="cls-6" d="M47.21,71.53c-.06,0-.73,0-.8-.06-1.26-.24-2.55.83-3.33,1.85a2.82,2.82,0,0,0,1,4.51,4.37,4.37,0,0,0,2.73-.21c.85-.25,3-.91,3.33-1.83s-.4-1.6-1-2.45S48.24,71.78,47.21,71.53Z"/><path class="cls-7" d="M46.53,71.84l-.68.08c-1.1,0-2,1.13-2.51,2.12a2.31,2.31,0,0,0,.11,2.69,2.34,2.34,0,0,0,1.47,1,3.77,3.77,0,0,0,2.27-.63c.67-.35,2.4-1.27,2.5-2.09s-.6-1.29-1.21-1.91S47.45,71.89,46.53,71.84Z"/><path class="cls-8" d="M46.48,72.87s-.65-.25-.7-.25a2.14,2.14,0,0,0-2,1.18A2.46,2.46,0,0,0,44,76.32c.29.38,1,.36,1.43.43A2.1,2.1,0,0,0,47,76.57c.55-.28,1.86-.66,1.94-1.32a2.4,2.4,0,0,0-.9-1.89C47.45,72.87,47.21,72.91,46.48,72.87Z"/><path class="cls-6" d="M69.57,68.42h-.18c-.28-.06-.57.18-.75.41a.61.61,0,0,0-.11.7.59.59,0,0,0,.33.31.92.92,0,0,0,.61,0c.19-.06.68-.21.75-.41s-.09-.36-.21-.55S69.8,68.48,69.57,68.42Z"/><path class="cls-7" d="M69.42,68.49l-.16,0c-.25,0-.45.25-.56.47a.52.52,0,0,0,0,.61.52.52,0,0,0,.33.21.86.86,0,0,0,.51-.14c.15-.08.54-.29.57-.47s-.14-.29-.28-.43S69.62,68.5,69.42,68.49Z"/><path class="cls-8" d="M69.4,68.72l-.15-.06a.49.49,0,0,0-.46.27.54.54,0,0,0,0,.56c.06.09.21.09.32.1a.47.47,0,0,0,.35,0c.12-.06.42-.15.44-.29a.55.55,0,0,0-.2-.43A.44.44,0,0,0,69.4,68.72Z"/><path class="cls-6" d="M45.24,68.3h-.18c-.28-.06-.57.18-.75.41a.61.61,0,0,0-.11.7.64.64,0,0,0,.33.32,1,1,0,0,0,.61,0c.19-.06.68-.21.75-.41s-.09-.36-.21-.55S45.47,68.36,45.24,68.3Z"/><path class="cls-7" d="M45.09,68.37l-.16,0c-.24,0-.45.25-.56.47a.54.54,0,0,0,0,.61.52.52,0,0,0,.33.21.86.86,0,0,0,.51-.14c.15-.08.54-.29.57-.47s-.14-.29-.28-.43S45.29,68.38,45.09,68.37Z"/><path class="cls-8" d="M45.08,68.6l-.16-.06a.49.49,0,0,0-.46.27.56.56,0,0,0,0,.57c.07.08.22.08.32.09a.47.47,0,0,0,.35,0c.13-.06.42-.15.44-.29a.55.55,0,0,0-.2-.43A.43.43,0,0,0,45.08,68.6Z"/><path class="cls-6" d="M100.05,43.6h-.18c-.28-.06-.57.18-.75.41a.61.61,0,0,0-.11.7.59.59,0,0,0,.33.31.92.92,0,0,0,.61,0c.2-.06.68-.21.75-.41s-.09-.36-.21-.56S100.28,43.66,100.05,43.6Z"/><path class="cls-7" d="M99.9,43.67l-.16,0c-.24,0-.45.25-.56.47a.54.54,0,0,0,0,.61.56.56,0,0,0,.33.21.86.86,0,0,0,.51-.14c.16-.08.54-.29.57-.47s-.14-.29-.28-.43S100.1,43.68,99.9,43.67Z"/><path class="cls-8" d="M99.89,43.9l-.16-.06a.49.49,0,0,0-.46.27.54.54,0,0,0,0,.56c.07.09.22.08.32.1a.47.47,0,0,0,.35,0c.13-.06.42-.15.44-.3a.55.55,0,0,0-.2-.42A.43.43,0,0,0,99.89,43.9Z"/><path class="cls-6" d="M106.88,44.12l-.32,0c-.5-.1-1,.33-1.33.74a1.07,1.07,0,0,0-.2,1.24,1.13,1.13,0,0,0,.59.57,1.79,1.79,0,0,0,1.09-.09c.34-.1,1.22-.36,1.33-.73s-.15-.64-.38-1S107.29,44.23,106.88,44.12Z"/><path class="cls-7" d="M106.61,44.25l-.27,0c-.45,0-.81.45-1,.85a.91.91,0,0,0,0,1.08,1,1,0,0,0,.58.38,1.51,1.51,0,0,0,.91-.26c.27-.14,1-.5,1-.83s-.24-.52-.48-.77S107,44.27,106.61,44.25Z"/><path class="cls-8" d="M106.59,44.66l-.28-.1a.86.86,0,0,0-.82.47,1,1,0,0,0,.09,1c.12.15.39.14.57.17a.86.86,0,0,0,.63-.07c.22-.11.75-.26.78-.53a1,1,0,0,0-.36-.75C107,44.66,106.88,44.68,106.59,44.66Z"/><path class="cls-6" d="M35.26,59.61l-.31,0c-.51-.1-1,.34-1.34.74a1.07,1.07,0,0,0-.19,1.25,1.09,1.09,0,0,0,.58.56A1.71,1.71,0,0,0,35.09,62c.35-.1,1.22-.36,1.34-.73s-.16-.64-.39-1S35.68,59.71,35.26,59.61Z"/><path class="cls-7" d="M35,59.73l-.27,0c-.44,0-.81.45-1,.85a.91.91,0,0,0,0,1.08.94.94,0,0,0,.59.38,1.49,1.49,0,0,0,.9-.25c.27-.15,1-.51,1-.84s-.24-.52-.49-.77S35.36,59.75,35,59.73Z"/><path class="cls-8" d="M35,60.14l-.28-.1a.87.87,0,0,0-.81.47,1,1,0,0,0,.09,1c.11.16.38.15.57.18a.86.86,0,0,0,.63-.08c.21-.11.74-.26.77-.52a.94.94,0,0,0-.36-.76C35.36,60.14,35.27,60.16,35,60.14Z"/><path class="cls-6" d="M32.42,87.35l-.32,0c-.51-.1-1,.33-1.34.74a1.09,1.09,0,0,0-.19,1.24,1.06,1.06,0,0,0,.58.56,1.74,1.74,0,0,0,1.1-.08c.34-.1,1.21-.37,1.33-.73s-.16-.64-.38-1S32.83,87.45,32.42,87.35Z"/><path class="cls-7" d="M32.15,87.47l-.28,0c-.44,0-.8.45-1,.85a.91.91,0,0,0,0,1.07.89.89,0,0,0,.59.38,1.52,1.52,0,0,0,.91-.25c.27-.14,1-.51,1-.84s-.24-.51-.48-.76S32.51,87.49,32.15,87.47Z"/><path class="cls-8" d="M32.13,87.89l-.28-.1a.86.86,0,0,0-.82.47,1,1,0,0,0,.09,1c.12.15.38.14.57.17a.86.86,0,0,0,.63-.07c.22-.11.74-.27.78-.53a1,1,0,0,0-.37-.76C32.52,87.89,32.42,87.9,32.13,87.89Z"/><path class="cls-6" d="M58.44,79.61l-.47,0c-.75-.15-1.51.49-2,1.09a1.59,1.59,0,0,0-.28,1.83,1.56,1.56,0,0,0,.86.83,2.64,2.64,0,0,0,1.61-.12c.5-.15,1.79-.54,2-1.08s-.24-.95-.57-1.45S59.05,79.76,58.44,79.61Z"/><path class="cls-7" d="M58,79.79l-.4,0c-.65,0-1.19.67-1.48,1.25a1.36,1.36,0,0,0,.06,1.59,1.34,1.34,0,0,0,.87.56,2.2,2.2,0,0,0,1.34-.37c.39-.21,1.42-.75,1.48-1.24s-.36-.76-.72-1.12S58.58,79.82,58,79.79Z"/><path class="cls-8" d="M58,80.4s-.39-.15-.41-.15a1.26,1.26,0,0,0-1.2.7,1.43,1.43,0,0,0,.13,1.49c.17.22.56.21.84.25a1.3,1.3,0,0,0,.93-.1c.32-.17,1.09-.39,1.14-.78a1.45,1.45,0,0,0-.53-1.12C58.58,80.4,58.44,80.43,58,80.4Z"/><path class="cls-6" d="M55.05,49.34h-.18a.88.88,0,0,0-.75.42.6.6,0,0,0-.11.69.61.61,0,0,0,.33.32,1,1,0,0,0,.61,0c.19-.06.68-.2.75-.41s-.09-.36-.22-.55S55.28,49.4,55.05,49.34Z"/><path class="cls-7" d="M54.89,49.41l-.15,0c-.25,0-.45.25-.56.48a.51.51,0,0,0,0,.6.52.52,0,0,0,.33.21.79.79,0,0,0,.51-.14c.15-.08.54-.28.56-.47s-.13-.29-.27-.43S55.1,49.42,54.89,49.41Z"/><path class="cls-8" d="M54.88,49.64l-.15,0a.48.48,0,0,0-.46.26.56.56,0,0,0,0,.57c.06.08.21.08.32.1a.53.53,0,0,0,.35,0c.12-.07.42-.15.44-.3a.54.54,0,0,0-.21-.43C55.1,49.64,55.05,49.65,54.88,49.64Z"/><path class="cls-6" d="M59.86,40.12l-.47,0c-.75-.15-1.51.49-2,1.09A1.58,1.58,0,0,0,57.13,43a1.61,1.61,0,0,0,.87.83,2.64,2.64,0,0,0,1.61-.12c.5-.15,1.79-.54,2-1.08s-.23-1-.56-1.45S60.47,40.27,59.86,40.12Z"/><path class="cls-7" d="M59.46,40.31s-.37,0-.4,0c-.66,0-1.19.67-1.48,1.25a1.43,1.43,0,0,0,.92,2.15,2.19,2.19,0,0,0,1.34-.37c.4-.21,1.42-.75,1.48-1.23S61,41.39,60.61,41,60,40.33,59.46,40.31Z"/><path class="cls-8" d="M59.43,40.92,59,40.76a1.28,1.28,0,0,0-1.21.7A1.46,1.46,0,0,0,58,43c.16.22.56.21.84.25a1.27,1.27,0,0,0,.92-.1c.32-.17,1.1-.39,1.15-.78a1.44,1.44,0,0,0-.54-1.12C60,40.91,59.86,40.94,59.43,40.92Z"/><path class="cls-6" d="M110.57,59l-.25,0c-.38-.08-.78.25-1,.57a.86.86,0,0,0,.3,1.38,1.35,1.35,0,0,0,.84-.06c.26-.08.93-.28,1-.57s-.12-.49-.29-.75S110.88,59,110.57,59Z"/><path class="cls-7" d="M110.36,59l-.21,0c-.34,0-.62.34-.77.65a.71.71,0,0,0,0,.82.68.68,0,0,0,.45.29,1.11,1.11,0,0,0,.7-.19c.21-.11.74-.39.77-.64s-.18-.4-.37-.59S110.64,59.06,110.36,59Z"/><path class="cls-8" d="M110.34,59.36l-.21-.08a.66.66,0,0,0-.62.36.75.75,0,0,0,.06.78c.09.11.3.11.44.13a.61.61,0,0,0,.48-.06c.17-.08.57-.2.6-.4a.74.74,0,0,0-.28-.58C110.64,59.36,110.57,59.37,110.34,59.36Z"/><path class="cls-6" d="M94.81,38.27l-.36,0c-.57-.11-1.14.38-1.5.84a1.19,1.19,0,0,0-.21,1.39,1.21,1.21,0,0,0,.65.63A2,2,0,0,0,94.62,41c.38-.12,1.36-.41,1.49-.82s-.17-.72-.43-1.11S95.27,38.39,94.81,38.27Z"/><path class="cls-7" d="M94.5,38.41l-.3,0c-.5,0-.91.5-1.13.95A1.08,1.08,0,0,0,93.78,41a1.67,1.67,0,0,0,1-.28c.3-.16,1.08-.57,1.12-.94s-.27-.58-.54-.86S94.91,38.43,94.5,38.41Z"/><path class="cls-8" d="M94.48,38.87l-.31-.11a1,1,0,0,0-.92.53,1.1,1.1,0,0,0,.1,1.13c.13.17.43.16.64.2a1,1,0,0,0,.71-.08c.24-.13.83-.3.87-.6a1.11,1.11,0,0,0-.41-.85C94.92,38.87,94.81,38.89,94.48,38.87Z"/><path class="cls-6" d="M88.1,49.86l-.36,0a1.74,1.74,0,0,0-1.5.83A1.21,1.21,0,0,0,86,52.06a1.18,1.18,0,0,0,.65.63,1.94,1.94,0,0,0,1.23-.09c.38-.11,1.36-.41,1.49-.82s-.17-.72-.43-1.1S88.56,50,88.1,49.86Z"/><path class="cls-7" d="M87.79,50l-.3,0c-.5,0-.91.51-1.13,1a1,1,0,0,0,0,1.21,1,1,0,0,0,.66.43,1.75,1.75,0,0,0,1-.29c.3-.16,1.08-.57,1.12-.94s-.27-.57-.54-.85S88.2,50,87.79,50Z"/><path class="cls-8" d="M87.77,50.47l-.31-.12a1,1,0,0,0-.92.53,1.12,1.12,0,0,0,.1,1.13c.13.18.43.17.64.2a1,1,0,0,0,.71-.08c.24-.13.83-.3.87-.59a1.06,1.06,0,0,0-.41-.85A.79.79,0,0,0,87.77,50.47Z"/><path class="cls-6" d="M65,49.05l-.53,0a2.63,2.63,0,0,0-2.26,1.25,1.82,1.82,0,0,0-.32,2.1,1.86,1.86,0,0,0,1,1,3,3,0,0,0,1.85-.15c.57-.17,2-.61,2.24-1.23s-.26-1.08-.64-1.66S65.69,49.22,65,49.05Z"/><path class="cls-7" d="M64.54,49.26l-.46.06c-.75,0-1.36.76-1.7,1.43a1.56,1.56,0,0,0,.07,1.81,1.59,1.59,0,0,0,1,.64A2.53,2.53,0,0,0,65,52.78c.45-.24,1.62-.86,1.69-1.41s-.41-.87-.82-1.29S65.15,49.29,64.54,49.26Z"/><path class="cls-8" d="M64.5,50s-.44-.17-.47-.17a1.47,1.47,0,0,0-1.38.79,1.68,1.68,0,0,0,.16,1.7c.19.26.64.25,1,.3a1.44,1.44,0,0,0,1.06-.13c.36-.19,1.25-.44,1.3-.89a1.61,1.61,0,0,0-.6-1.27A1.24,1.24,0,0,0,64.5,50Z"/><path class="cls-9" d="M35.26,69.9c.45.24,1.52.67,1.6,1.06s-.83.86-1.53,1.15-.92.28-1.35,0a2.37,2.37,0,0,1-1-1.57c-.06-.43-.08-.45.79-.66S34.75,69.62,35.26,69.9Z"/><path class="cls-10" d="M34.23,70.14c.45.24,1.52.68,1.6,1.06s-.65.78-1.3,1.06c.22.08.45,0,1-.19.69-.28,1.62-.72,1.52-1.15s-1.15-.82-1.6-1.06-.65-.27-1.51-.07c-.26.07-.44.11-.57.16A1.23,1.23,0,0,1,34.23,70.14Z"/><path class="cls-9" d="M96.3,62.13c.65-.09,2.75,0,3.24-.34.34-.22,1.55-2.49.72-2.63a11.74,11.74,0,0,0-4.76,0A7.52,7.52,0,0,0,96.3,62.13Z"/><path class="cls-10" d="M98.71,61a4.57,4.57,0,0,0,1-1.92l.57.09c.83.13-.38,2.4-.72,2.63s-2.59.24-3.24.34a3.33,3.33,0,0,1-.39-.83A9.51,9.51,0,0,0,98.71,61Z"/><path class="cls-9" d="M73.43,54.23c.69-.35,2.07-1.23,2.85-1.19s1.24,1.07,1.45,1.82.07,1-.8,1.28a8,8,0,0,1-3.51.46c-.86-.07-.92-.06-.88-1S72.65,54.63,73.43,54.23Z"/><path class="cls-10" d="M73.38,55.29c.69-.35,2.07-1.23,2.85-1.19s1.16.87,1.38,1.58c.26-.18.27-.43.12-1-.2-.75-.57-1.77-1.44-1.81s-2.17.83-2.85,1.18-.85.53-.89,1.42a2.16,2.16,0,0,0,0,.59C72.64,55.71,72.84,55.57,73.38,55.29Z"/><path class="cls-9" d="M77.36,46.63c-.5-.06-1.66-.09-1.87-.41s.47-1.11,1-1.63.77-.59,1.29-.43a2.36,2.36,0,0,1,1.5,1.1c.22.38.25.39-.49.9S77.94,46.71,77.36,46.63Z"/><path class="cls-10" d="M78.24,46c-.51-.07-1.66-.09-1.88-.42s.34-1,.84-1.46c-.23,0-.43.15-.83.52-.54.52-1.25,1.26-1,1.63s1.37.35,1.87.41.7,0,1.43-.47a4.06,4.06,0,0,0,.48-.35A1.2,1.2,0,0,1,78.24,46Z"/><path class="cls-9" d="M86.69,44.24c-.51-.06-1.66-.09-1.88-.41s.47-1.11,1-1.63.76-.59,1.29-.43a2.38,2.38,0,0,1,1.5,1.1c.21.38.24.39-.5.9S87.26,44.32,86.69,44.24Z"/><path class="cls-10" d="M87.56,43.65c-.5-.07-1.66-.09-1.87-.42s.33-1,.84-1.46c-.23,0-.43.15-.83.52-.55.52-1.26,1.26-1,1.62s1.37.36,1.88.42.7,0,1.43-.47a5.15,5.15,0,0,0,.48-.35A1.23,1.23,0,0,1,87.56,43.65Z"/><path class="cls-9" d="M71.55,41.78c-.64.17-2.55,1.07-3.13,1-.39-.07-2.4-1.69-1.68-2.14a11.73,11.73,0,0,1,4.38-1.86A7.66,7.66,0,0,1,71.55,41.78Z"/><path class="cls-10" d="M68.89,41.68a4.47,4.47,0,0,1-1.64-1.38l-.49.3c-.71.45,1.29,2.06,1.69,2.14.57.11,2.48-.79,3.12-1a3.93,3.93,0,0,0,0-.91A9.34,9.34,0,0,1,68.89,41.68Z"/><path class="cls-9" d="M43.11,84.19c-.43-1-1.18-2,.19-2.69a1.7,1.7,0,0,1,2.18.5c.53,1,1.49,3,1.05,4.12a1.67,1.67,0,0,1-2.67.43A13.86,13.86,0,0,1,43.11,84.19Z"/><path class="cls-10" d="M45.35,86.36c.45-1.15-.51-3.13-1.05-4.13a1.39,1.39,0,0,0-1.12-.67c-1.19.65-.49,1.61-.07,2.63a13.86,13.86,0,0,0,.75,2.36,1.28,1.28,0,0,0,.88.48A1.36,1.36,0,0,0,45.35,86.36Z"/><path class="cls-9" d="M59.74,73.51c.95-.62,1.78-1.55,2.67-.33a1.7,1.7,0,0,1-.06,2.23c-.87.72-2.63,2-3.84,1.83a1.66,1.66,0,0,1-.94-2.53A13.56,13.56,0,0,1,59.74,73.51Z"/><path class="cls-10" d="M58.05,76.14c1.21.21,3-1.12,3.84-1.83a1.41,1.41,0,0,0,.44-1.24c-.86-1-1.67-.16-2.6.44a12.42,12.42,0,0,0-2.16,1.2,1.24,1.24,0,0,0-.3,1A1.38,1.38,0,0,0,58.05,76.14Z"/><path class="cls-9" d="M119,70.25c1-.63,1.79-1.55,2.68-.33a1.7,1.7,0,0,1-.06,2.23c-.88.71-2.64,2-3.85,1.83a1.67,1.67,0,0,1-.94-2.53A12.9,12.9,0,0,1,119,70.25Z"/><path class="cls-10" d="M117.33,72.87c1.21.22,3-1.11,3.84-1.83a1.35,1.35,0,0,0,.44-1.23c-.86-1-1.67-.17-2.59.44a12.9,12.9,0,0,0-2.17,1.2,1.3,1.3,0,0,0-.3,1A1.36,1.36,0,0,0,117.33,72.87Z"/><path class="cls-9" d="M82.77,80.08c-.5-.58-1.69-1.71-1.84-2.48s.74-1.46,1.41-1.84.93-.31,1.43.46a8,8,0,0,1,1.31,3.3c.13.85.16.9-.72,1.08S83.35,80.74,82.77,80.08Z"/><path class="cls-10" d="M83.81,79.87c-.51-.58-1.69-1.71-1.84-2.48s.56-1.34,1.2-1.72c-.25-.2-.49-.16-1,.12-.68.38-1.58,1-1.41,1.84s1.33,1.9,1.84,2.48.72.7,1.59.52a2.49,2.49,0,0,0,.57-.15C84.4,80.49,84.21,80.33,83.81,79.87Z"/><path class="cls-9" d="M61.51,50.81c.33,1.53-2.69.35-3.2-.11-.94-.87.68-2.88,1.72-2.13A7,7,0,0,1,61.51,50.81Z"/><path class="cls-10" d="M58.66,49.91a.91.91,0,0,1-.27-.82,1.19,1.19,0,0,0-.08,1.61c.51.46,3.53,1.64,3.2.11a.14.14,0,0,0,0-.07A4.57,4.57,0,0,1,58.66,49.91Z"/><path class="cls-9" d="M43.37,57.62c.32,1.54-2.7.36-3.2-.1-1-.87.68-2.88,1.71-2.13A7,7,0,0,1,43.37,57.62Z"/><path class="cls-10" d="M40.51,56.73a.91.91,0,0,1-.27-.82,1.19,1.19,0,0,0-.07,1.61c.5.46,3.52,1.64,3.2.1a.14.14,0,0,1,0-.07A4.58,4.58,0,0,1,40.51,56.73Z"/><path class="cls-9" d="M91.92,47c.33,1.54-2.69.36-3.2-.1-.94-.87.68-2.88,1.72-2.13A6.9,6.9,0,0,1,91.92,47Z"/><path class="cls-10" d="M89.07,46.11a.93.93,0,0,1-.27-.83,1.2,1.2,0,0,0-.08,1.62c.51.46,3.53,1.64,3.2.1a.25.25,0,0,0,0-.07A4.63,4.63,0,0,1,89.07,46.11Z"/><path class="cls-9" d="M49.21,52.06c-1.15.29-.39-2.15-.06-2.57.61-.77,2.2.48,1.68,1.33A5.08,5.08,0,0,1,49.21,52.06Z"/><path class="cls-10" d="M49.76,49.75a.64.64,0,0,1,.61-.23c-.4-.3-.93-.4-1.22,0s-1.09,2.86.06,2.57l0,0A3.68,3.68,0,0,1,49.76,49.75Z"/><path class="cls-9" d="M83.33,65.38s1.26-3.09,2.42-3.4,2.78,3,2.78,3A1,1,0,0,1,88,66.29C87,66.63,84.47,66.07,83.33,65.38Z"/><path class="cls-10" d="M84.76,65a12.73,12.73,0,0,1,1.58-2.77.88.88,0,0,0-.71-.17c-1.16.31-2.42,3.4-2.42,3.4,1.14.69,3.66,1.25,4.65.9a.91.91,0,0,0,.5-.36A8.84,8.84,0,0,1,84.76,65Z"/><path class="cls-2" d="M33.73,70.76c-1.6,1.24-2.67,3-4.3,4.29a34.32,34.32,0,0,0-9.58,11.76c-2.35,4.73-4.78,10.44-4,15.75.37,2.61,1.37,5.1,1.82,7.7.4,2.33.36,4.91,1.49,7.08,1.42,2.73,3,5.34,4.45,8.06a5.75,5.75,0,0,0,1.15,1.66c4.49,4,13.39-3.33,17.86-4.38,2-.48,4.42-.11,6.52-.23,7.9-.45,15.29-2.8,22.8-5,13.54-4.06,26.5-9.26,40.85-9.94,2.61-.13,9.24.39,10.49-2.41.76-1.7-1.48-4.37,1.42-5,2-.39,1.49-.08,2.45-1.57a6,6,0,0,0,.62-5.37c-1.59-4.28-6.61-7.68-10.16-10.3-5.64-4.17-12.67-8.93-19.84-10.21-6.61-1.19-13.22-.21-19.84.59-5.69.68-9.16-.33-14.26-2-7.48-2.51-10.67-9.47-17.9-8.72-3,.31-5.41,3.09-7.43,5C37,68.67,35.21,69.62,33.73,70.76Z"/><path class="cls-3" d="M35.38,70.44c-1.6,1.24-2.67,3-4.3,4.29A34.38,34.38,0,0,0,21.5,86.48c-2.35,4.74-4.78,10.45-4,15.76.37,2.61,1.38,5.1,1.82,7.69.4,2.34.37,4.92,1.49,7.08,1.43,2.74,3,5.35,4.45,8.06.32.6,3.58,2.23,4.26,2.09,5.68-1.11,8.1-4.16,12.57-5.2,2-.48,6.6.28,8.7.16,7.9-.44,15.91-3.16,23.42-5.41,13.55-4.06,25.88-8.89,40.23-9.57,2.61-.13,9.24.39,10.49-2.41.76-1.7-1.47-4.37,1.43-5,2-.4,1.48-.08,2.44-1.57a6,6,0,0,0,.62-5.38c-1.59-4.27-6.61-7.67-10.16-10.29-5.64-4.17-12.66-8.93-19.84-10.22-6.61-1.19-13.22-.2-19.83.59-5.7.69-9.17-.33-14.27-2-7.48-2.51-10.67-9.48-17.9-8.72-3,.31-5.41,3.09-7.43,5C38.61,68.35,36.86,69.3,35.38,70.44Z"/><path class="cls-2" d="M135.15,96.69a11.31,11.31,0,0,1-.07,4.67,12.58,12.58,0,0,1-.86,2.53,10.46,10.46,0,0,1-.77,1.39c-2,3.15-4.73,2.17-8,1.87-5.67-.52-11.07,0-16.78.59-4.58.46-9.19.24-13.72,1l-.75.14a79,79,0,0,0-13.39,4.26c-3.08,1.2-6.26,2-9.38,3.08h0c-5.61,2-11,3.69-17,3.92s-12.07.29-17.9,1.78a32.15,32.15,0,0,0-6.31,2.7,24.88,24.88,0,0,1-2.54,1.09,4.66,4.66,0,0,1-.75.2c-1.95.34-2.94-1-2.94-3.14,0-3.23-1.93-5.94-2.37-9.13a26.39,26.39,0,0,0-.72-3.46c-.71-2.56-1.69-4.85-2.59-7.58,0-.11-.07-.21-.1-.32-1-3.58.74-7.41,2.44-10.53,1.09-2,.78-4.42,1.75-6.45.86-1.83,2.74-2.73,4.15-4.11a22,22,0,0,0,2.61-3.6c.61-.91,1.3-1.81,2-2.71a63.65,63.65,0,0,1,14.57-12.4l.58-.36a22.85,22.85,0,0,1,7.16-2.36l1.45-.34a22.61,22.61,0,0,0,2.33-.75l.26-.09c1.09-.42,2.15-.87,3.23-1.27a20.63,20.63,0,0,1,3.17-1,77.87,77.87,0,0,1,9.14-1.27A81.8,81.8,0,0,1,82.2,55h.36c4.06.12,6.54,1.26,10.19,2.52,4.66,1.63,10.37,1.47,15.37,2.85a19.47,19.47,0,0,1,2.6.9,14.19,14.19,0,0,1,3.34,2,39.82,39.82,0,0,1,11,13.51q.84,1.81,1.71,3.6c.11.22.21.44.32.65,1.43,2.92,2.93,5.79,4.5,8.65C132.83,91.91,134.64,94.2,135.15,96.69Z"/><path class="cls-4" d="M110.72,61.29c.69.29-1,3.17-1.23,3.49a7.39,7.39,0,0,1-4.14,2c-2.34.51-4.76.53-7.09,1.06s-4.62,1.69-7.17,1.82c-5.26.25-8.46-3.92-13.26-4.73-3.48-.59-5.89,1.63-7.4,4.42a37.34,37.34,0,0,1-2.78,5,7,7,0,0,1-3.45,2.54c-1.31.38-3.22-.37-4.31.31-1.46.9-.79,3.75-1.51,5.11s-3.81,5.57-5.53,5.91c-1.25.24-2.36-.3-2.24-1.79s2.88-1.15,2.07-2c-.81-2.72.57-6.63.88-9.43.26-2.32.48-4.65.66-7a16,16,0,0,1,.94-5.29,17.42,17.42,0,0,1,2.37-4.18c1.09-.42,2.15-.87,3.23-1.27a20.63,20.63,0,0,1,3.17-1,77.87,77.87,0,0,1,9.14-1.27A85.83,85.83,0,0,1,82.56,55c4.06.12,6.54,1.26,10.19,2.52C98.24,59.46,105.18,58.9,110.72,61.29Z"/><path class="cls-4" d="M94.94,108.74l-.75.14a79,79,0,0,0-13.39,4.26c-3.08,1.2-6.26,2-9.38,3.08h0c-2.29-.5-4.45-.14-7,.17a92.3,92.3,0,0,1-12.28,1.19,24.6,24.6,0,0,0-7.24.92c-1.29.38-2.7,1.31-4.08,1.25-6.17-.26,3.23-5.89,4.88-6.74,5.51-2.82,5.24-5.46,1.36-9.52-2.06-2.16-2.81-5.82,1-6.23,4.66-.49,8.86,1.75,12.75,3.76,2.3,1.18,4.9,2.07,6.93,3.67,1.28,1,2.11,2.42,3.32,3.45,2,1.68,4.91,3.27,7.42,2,3.08-1.52,7.36-8.24,11.38-4.11C93.54,106.54,94.35,107.33,94.94,108.74Z"/><path class="cls-4" d="M49.52,64.82c2.06,2.49,1.42,6,.43,8.76-1.68,4.61-6.05,5.23-9.63,8.22S35.13,86.38,35,90.9c-.08,4.73-3.42,7-4.68,11.39-.94,3.32-2.83,15-8,9.75a13,13,0,0,1-1.46-1.86c-.71-2.56-1.69-4.85-2.59-7.58-1.21-3.67.59-7.64,2.34-10.85,1.09-2,.78-4.42,1.75-6.45.86-1.83,2.74-2.73,4.15-4.11a22,22,0,0,0,2.61-3.6C33,71.85,39.73,66.27,45.75,62.48l.58-.36a22.85,22.85,0,0,1,7.16-2.36C54.54,62.74,53.36,63.87,49.52,64.82Z"/><path class="cls-4" d="M60.76,57.31a14.93,14.93,0,0,1-1,1.18c-1.53,2-1.11,5-1.2,7.41a16.9,16.9,0,0,1-1.92,7.46A45.35,45.35,0,0,0,52.46,87c-1.31-6.1-1.58-12.68-2.3-18.88-.39-3.38-2.12-2.34-3.77-4.48a4.12,4.12,0,0,1-.64-1.15l.58-.36c2.56-1.58,5.72-2,8.61-2.7A57.56,57.56,0,0,0,60.76,57.31Z"/><path class="cls-3" d="M42.51,64.65c1.85.87,19-7.42,18.64-4.87C60.45,65.07,39.48,76.45,35.57,79c-4.71,3-2.33,14.35-5.67,18.43-2.1-1.93-1.68-3.42-2.46-5-1.06-2.19-1-3.92-1.23-6.2-.13-1.17-.82-2.44-.8-3.61a3,3,0,0,1,0-.42Z"/><path class="cls-4" d="M135.15,96.69a11.31,11.31,0,0,1-.07,4.67,12.58,12.58,0,0,1-.86,2.53l-1.32.08c-6.72.46-13.45.57-20.17,1-8.77.64-16.85.55-25.2,3.25-3.88,1.25-7,4.06-10.17,1.44,3.34-1.36,6.27-2.32,9.15-4.62,1.92-1.53,3.34-3.62,5.2-5.19,4.93-4.18,10.73-.72,16.33-2,3.92-.87,6.65-3.27,6.18-7.21-.14-1.23-.7-2-.14-3.16,1.14-2.26,4.64-1.89,6.82-2.49,2.54-.71,3.72-3.52,5.89-4.68,1.53,3.14,3.13,6.23,4.82,9.3C132.83,91.91,134.64,94.2,135.15,96.69Z"/><path class="cls-3" d="M135.08,101.36a12,12,0,0,1-1.63,3.92c-2,3.15-4.73,2.17-8,1.87-5.67-.52-11.07,0-16.78.59-4.83.49-9.7.21-14.47,1.14a79,79,0,0,0-13.39,4.26c-3.08,1.2-6.26,2-9.38,3.08-5.62,2-11,3.69-17,3.92s-12.07.29-17.9,1.78a32.15,32.15,0,0,0-6.31,2.7c2.54-5.14,8.19-8.32,14-9.46,3-.6,5.64-.13,8.66-.1,3.2,0,6.71-.64,9.94-.86,7.4-.49,12.11-4,18.46-7.27s12.63-3.7,19.66-3.21,13.55-1.24,20.43-2.37a39.46,39.46,0,0,1,13-.15Z"/><path class="cls-3" d="M31.18,74.88c-.09,1.86-1.1,3.41-1.89,5.37-.37.92-.26,2.94-1.18,2.48,1,3.21-1.43,5.56-2.55,8.41-1.28,3.22-3.8,5.65-5.28,8.86-.44,1-.46,1.36-1.31,1.89a4.05,4.05,0,0,1-.78.39c-1-3.58.74-7.41,2.44-10.53,1.09-2,.78-4.42,1.75-6.45.86-1.83,2.74-2.73,4.15-4.11a22,22,0,0,0,2.61-3.6C29.75,76.68,30.44,75.78,31.18,74.88Z"/><path class="cls-4" d="M94.29,76.3c-1.53-.84-3.44-1-5-1.76s-3.23-2.18-5-2.45a3.74,3.74,0,0,0-3.91,2.11c-1.95,3.41-.63,6.26.61,9.55,2.59,6.92-3,8.78-5.72,14.24-1.23,2.45-1.73,5.69,1.54,6.81,6,2.07,8.93-8,12.76-10.37,2.87-1.77,5.15-1.05,8.3-1.05a7.6,7.6,0,0,0,7.36-5.75c.81-3.08.06-7.15,2.42-9.77,1.63-1.82,6.79-1.08,7.18-3.76.57-4-7.28-3.51-9.4-2.14s-2.15,1.6-4.66.72c-1.5-.53-3.27-1-4.73-.06S95.69,76.76,94.29,76.3Z"/><path class="cls-4" d="M52,80.22a14.68,14.68,0,0,1,0,2.89c-.28,1.11-1.08,1.45-1.63,2.37-.69,1.14-.28,2.7-.2,3.94s.2,2.26.26,3.4a.58.58,0,0,0,1.08.26,6.37,6.37,0,0,1,2.19-2.31c1.32-.85,2.89-.9,4.22-1.61,1.5-.8,1.52-2.22,1.37-3.63a7.68,7.68,0,0,1,1-5.26c1-2.1,2.22-5.51-1.15-6.33-2.74-.66-3.47,1.6-4.51,3.39-.43.76-1.53,2.69-2.58,2.56C52.12,80.05,52.13,80.29,52,80.22Z"/><path class="cls-4" d="M113.55,58.7h0l0,0Z"/><path class="cls-4" d="M127.11,81a2.55,2.55,0,0,0-.43-.23c-2.06-.94-6,2.13-6.82-1.3-.3-1.2.6-2.22.42-3.42a6.64,6.64,0,0,0-2.17-3.43c-.81-.8-1.82-1.29-2.29-2.35-.2-.43-.23-.91-.42-1.34-.77-1.69-2.5-2.71-4.16-3.47-1.36-.62-4.41-1.43-4.89-3-.26-.88.57-1.57,1.77-2.11a19.47,19.47,0,0,1,2.6.9,14.19,14.19,0,0,1,3.34,2,39.82,39.82,0,0,1,11,13.51q.84,1.81,1.71,3.6C126.9,80.61,127,80.83,127.11,81Z"/><path class="cls-1" d="M116.89,65.78c-.59-.53-1.19-1-1.8-1.54-5.83-4.74-14.63-3.42-21.31-5.74-3.65-1.27-6.13-2.4-10.19-2.53a85.85,85.85,0,0,0-9.49.08A78.14,78.14,0,0,0,65,57.31c-3.11.63-5.88,2.27-9,3.06-2.89.74-6,1.12-8.61,2.7-6.16,3.8-13.19,9.55-17.19,15.48a21,21,0,0,1-2.61,3.59c-1.41,1.38-3.29,2.29-4.15,4.11-1,2-.65,4.45-1.75,6.45-1.74,3.21-3.55,7.18-2.34,10.86,1.28,3.88,2.74,6.89,3.31,11,.44,3.2,2.36,5.9,2.37,9.14a4.27,4.27,0,0,0,.45,2.06c-1-.41-1.48-1.54-1.48-3,0-3.23-1.93-5.94-2.37-9.13-.57-4.15-2-7.15-3.31-11-1.21-3.67.59-7.64,2.34-10.85,1.09-2,.78-4.42,1.75-6.45.86-1.83,2.74-2.73,4.15-4.11a22,22,0,0,0,2.61-3.6c4-5.93,11-11.68,17.19-15.47,2.56-1.58,5.72-2,8.61-2.7,3.11-.79,5.88-2.43,9-3.06a77.87,77.87,0,0,1,9.14-1.27A85.83,85.83,0,0,1,82.56,55c4.06.12,6.54,1.26,10.19,2.53,6.67,2.32,15.47,1,21.31,5.73C115,64.07,116,64.9,116.89,65.78Z"/><path class="cls-3" d="M128.36,87c-1.75-.46-2.46,2.82-3.17,3.85-2,2.87-5.51,4.46-7.51,7.07,3.92-1.15,6.1.19,9.88.85,1.17.2,2.29.13,3.29,1s.61,2.36,2.44,1.89c4.71-1.2-1-8.46-2-10.22C130.52,90,130.49,87.69,128.36,87Z"/><path class="cls-5" d="M134.89,96.58l0,.13a10.74,10.74,0,0,1-3.34,10.19,11.28,11.28,0,0,0,1.1-8.7c-.74-2.58-2.38-4.83-3.84-7.12-2.91-4.59-5.14-9.56-8-14.16-3.28-5.18-7.64-10-13.51-12.29-4.21-1.6-8.8-1.74-13.23-2.32s-8.62-2.8-13.21-2.8a88.35,88.35,0,0,0-11.78.76,68.21,68.21,0,0,0-11.4,3c-1.75.56-3.56.88-5.26,1.58a45,45,0,0,0-7.33,3.8A43.84,43.84,0,0,0,33.08,80,56,56,0,0,1,28,86.88,16.92,16.92,0,0,0,25,90.16c-.88,1.55-.95,3.39-1.37,5.11-.62,2.59-2.05,5-2.44,7.6-.46,3.13.6,6.26,1.64,9.26l4.66,13.36a2.08,2.08,0,0,1-2.82-.37,5.68,5.68,0,0,1-1.09-2.83,121.26,121.26,0,0,0-4.49-16.82c-.74-2.16-1.56-4.37-1.37-6.64.26-3,2.28-5.65,3.14-8.57.6-2,.68-4.19,1.87-5.91a19.52,19.52,0,0,1,3.23-3,39.41,39.41,0,0,0,4.93-6.19,43.4,43.4,0,0,1,12.9-11.5c5.31-3.12,11.1-4.3,16.78-6.42a20.19,20.19,0,0,1,3.16-.95A77.87,77.87,0,0,1,72.87,55a85.83,85.83,0,0,1,9.49-.07c4.06.12,6.54,1.25,10.19,2.52,3.12,1.09,6.4,1.11,9.65,1.64a31.1,31.1,0,0,1,9.91,3.14c5.06,2.76,8.7,7.41,11.52,12.3s4.93,10.13,7.79,15C132.76,91.77,134.29,94,134.89,96.58Z"/><path class="cls-6" d="M103.32,87.19c-.07,0-.74.65-.82.7-1.45,1-1.62,3.18-1.36,4.86a3.55,3.55,0,0,0,2.59,3.3,3.86,3.86,0,0,0,2.78-.09,5.94,5.94,0,0,0,2.41-2.77c.56-1,2-3.71,1.38-4.83-.71-1.28-2-1.1-3.33-1.34S104.56,86.46,103.32,87.19Z"/><path class="cls-7" d="M103,88.12s-.51.67-.57.72c-1,1-.82,2.93-.31,4.31a3.12,3.12,0,0,0,2.75,2.38,3.32,3.32,0,0,0,2.33-.52,5,5,0,0,0,1.56-2.72c.29-1,1.05-3.45.33-4.29s-1.84-.62-3-.61S103.9,87.3,103,88.12Z"/><path class="cls-8" d="M104,89.12s-.88.38-.92.42a2.77,2.77,0,0,0-.79,3,3.36,3.36,0,0,0,2.7,2.1c.65.08,1.26-.57,1.79-1a2.81,2.81,0,0,0,1.32-1.64c.24-.78,1.13-2.37.56-3a3.4,3.4,0,0,0-2.73-.88C104.88,88.19,104.69,88.46,104,89.12Z"/><path class="cls-6" d="M65.06,83.46c-.1,0-1.07.28-1.16.29C62,84,60.67,86.2,60.06,88.12A4.48,4.48,0,0,0,60.93,93a4.23,4.23,0,0,0,2.79,1.45,6.3,6.3,0,0,0,3.79-1.6c1.09-.79,3.87-2.81,3.83-4.33,0-1.75-1.36-2.24-2.59-3.27S66.66,83.37,65.06,83.46Z"/><path class="cls-7" d="M64.25,84.25c-.08,0-.85.42-.93.45-1.58.52-2.31,2.64-2.52,4.38a3.87,3.87,0,0,0,1.5,4,3.54,3.54,0,0,0,2.57.75,5.44,5.44,0,0,0,2.92-2c.79-.86,2.8-3.06,2.53-4.35-.31-1.47-1.5-1.67-2.69-2.32S65.58,83.89,64.25,84.25Z"/><path class="cls-8" d="M64.7,85.84c-.07,0-1.07-.08-1.13-.06a3.21,3.21,0,0,0-2.32,2.74,4.15,4.15,0,0,0,1.59,3.71c.6.45,1.54.1,2.25,0a3.07,3.07,0,0,0,2.15-1c.63-.69,2.32-1.88,2.1-2.91a3.94,3.94,0,0,0-2.23-2.44A2.63,2.63,0,0,0,64.7,85.84Z"/><path class="cls-6" d="M54.55,63.56c-.06,0-.58.51-.64.54-1.13.76-1.26,2.47-1.06,3.78a2.76,2.76,0,0,0,2,2.57A3,3,0,0,0,57,70.38a4.55,4.55,0,0,0,1.87-2.16c.44-.8,1.56-2.88,1.08-3.75s-1.52-.86-2.59-1S55.51,63,54.55,63.56Z"/><path class="cls-7" d="M54.28,64.28s-.4.52-.44.56c-.82.82-.64,2.28-.25,3.36a2.45,2.45,0,0,0,2.15,1.85,2.6,2.6,0,0,0,1.81-.41,3.78,3.78,0,0,0,1.21-2.12c.23-.75.82-2.68.26-3.33s-1.43-.48-2.36-.48S55,63.64,54.28,64.28Z"/><path class="cls-8" d="M55,65.06s-.69.29-.72.33a2.13,2.13,0,0,0-.61,2.34,2.59,2.59,0,0,0,2.1,1.63c.5.07,1-.44,1.39-.73a2.22,2.22,0,0,0,1-1.29c.19-.6.88-1.84.43-2.36a2.62,2.62,0,0,0-2.12-.69C55.76,64.34,55.61,64.55,55,65.06Z"/><path class="cls-6" d="M55.05,108.63c-.07,0-.66.58-.72.62-1.28.86-1.43,2.8-1.21,4.28a3.13,3.13,0,0,0,2.29,2.91,3.39,3.39,0,0,0,2.45-.08A5.17,5.17,0,0,0,60,113.92c.5-.92,1.77-3.27,1.22-4.26s-1.72-1-2.94-1.19S56.14,108,55.05,108.63Z"/><path class="cls-7" d="M54.75,109.45s-.46.59-.5.63c-.93.93-.73,2.59-.28,3.81A2.76,2.76,0,0,0,56.4,116a2.93,2.93,0,0,0,2.05-.45,4.3,4.3,0,0,0,1.37-2.41c.26-.85.93-3,.3-3.78s-1.62-.54-2.68-.54S55.56,108.72,54.75,109.45Z"/><path class="cls-8" d="M55.6,110.33s-.77.33-.81.37a2.44,2.44,0,0,0-.7,2.65,3,3,0,0,0,2.38,1.86c.58.07,1.12-.5,1.58-.84a2.5,2.5,0,0,0,1.17-1.45c.21-.68,1-2.09.49-2.68a3,3,0,0,0-2.4-.78C56.42,109.51,56.25,109.75,55.6,110.33Z"/><path class="cls-6" d="M81.63,68.07,81,68a3.2,3.2,0,0,0-2.7,1.44,2,2,0,0,0-.39,2.4A2.16,2.16,0,0,0,79.08,73a3.74,3.74,0,0,0,2.21-.17c.68-.2,2.45-.71,2.69-1.42s-.32-1.24-.78-1.9S82.46,68.27,81.63,68.07Z"/><path class="cls-7" d="M81.08,68.31l-.55.07c-.89,0-1.62.87-2,1.64a1.72,1.72,0,0,0,.08,2.08,1.87,1.87,0,0,0,1.18.74,3.21,3.21,0,0,0,1.84-.49c.54-.28,1.94-1,2-1.62s-.48-1-1-1.48S81.82,68.35,81.08,68.31Z"/><path class="cls-8" d="M81,69.11s-.53-.2-.56-.2a1.75,1.75,0,0,0-1.65.92,1.84,1.84,0,0,0,.18,2c.23.3.77.28,1.15.34A1.85,1.85,0,0,0,81.43,72c.44-.22,1.5-.51,1.57-1a1.86,1.86,0,0,0-.73-1.47C81.83,69.11,81.63,69.14,81,69.11Z"/><path class="cls-6" d="M90.36,94.58l-.64,0c-1-.19-2.06.65-2.7,1.44a2,2,0,0,0-.39,2.4,2.17,2.17,0,0,0,1.18,1.09A3.74,3.74,0,0,0,90,99.31c.69-.2,2.45-.71,2.69-1.42s-.32-1.24-.78-1.9S91.19,94.78,90.36,94.58Z"/><path class="cls-7" d="M89.81,94.83s-.5.06-.55.06c-.89,0-1.62.87-2,1.64a1.74,1.74,0,0,0,.08,2.09,1.9,1.9,0,0,0,1.19.73,3.19,3.19,0,0,0,1.83-.48c.55-.28,1.94-1,2-1.63s-.48-1-1-1.48S90.55,94.86,89.81,94.83Z"/><path class="cls-8" d="M89.77,95.63s-.53-.2-.56-.2a1.76,1.76,0,0,0-1.65.91,1.86,1.86,0,0,0,.18,2c.23.29.77.27,1.15.33a1.79,1.79,0,0,0,1.27-.14c.44-.22,1.5-.51,1.57-1A1.87,1.87,0,0,0,91,96C90.56,95.62,90.36,95.66,89.77,95.63Z"/><path class="cls-6" d="M75.42,87l-.64,0c-1-.19-2.06.65-2.7,1.44a2,2,0,0,0-.39,2.4,2.17,2.17,0,0,0,1.18,1.09,3.74,3.74,0,0,0,2.21-.16c.68-.2,2.45-.71,2.69-1.42s-.32-1.24-.78-1.9S76.25,87.24,75.42,87Z"/><path class="cls-7" d="M74.87,87.29s-.5.06-.55.06c-.89,0-1.62.87-2,1.64a1.74,1.74,0,0,0,.08,2.09,1.9,1.9,0,0,0,1.19.73,3.19,3.19,0,0,0,1.83-.48c.54-.28,1.94-1,2-1.63s-.48-1-1-1.48S75.61,87.32,74.87,87.29Z"/><path class="cls-8" d="M74.83,88.09s-.53-.2-.56-.2a1.76,1.76,0,0,0-1.65.91,1.86,1.86,0,0,0,.18,2c.23.29.77.27,1.15.33A1.79,1.79,0,0,0,75.22,91c.44-.22,1.5-.51,1.57-1a1.84,1.84,0,0,0-.73-1.46C75.62,88.08,75.42,88.12,74.83,88.09Z"/><path class="cls-6" d="M31.07,118.35l-.65,0a3.18,3.18,0,0,0-2.69,1.44,2,2,0,0,0-.39,2.4,2.16,2.16,0,0,0,1.18,1.1,3.71,3.71,0,0,0,2.2-.17c.69-.2,2.45-.71,2.69-1.42s-.32-1.24-.77-1.9S31.9,118.55,31.07,118.35Z"/><path class="cls-7" d="M30.52,118.59l-.55.07c-.89,0-1.63.87-2,1.64a1.71,1.71,0,0,0,.09,2.08,1.91,1.91,0,0,0,1.18.74,3.23,3.23,0,0,0,1.84-.49c.54-.28,1.94-1,2-1.62s-.48-1-1-1.48S31.26,118.63,30.52,118.59Z"/><path class="cls-8" d="M30.48,119.39s-.53-.2-.57-.2a1.75,1.75,0,0,0-1.64.92,1.84,1.84,0,0,0,.18,2c.23.3.77.28,1.15.34a1.85,1.85,0,0,0,1.27-.14c.44-.22,1.5-.51,1.56-1a1.83,1.83,0,0,0-.73-1.47C31.26,119.39,31.07,119.42,30.48,119.39Z"/><path class="cls-6" d="M50.29,78.65c-.06,0-.76-.05-.83-.06-1.32-.24-2.66.84-3.48,1.86a2.6,2.6,0,0,0-.5,3.1A2.81,2.81,0,0,0,47,85a4.74,4.74,0,0,0,2.85-.21c.89-.25,3.16-.91,3.47-1.83s-.41-1.6-1-2.45S51.37,78.91,50.29,78.65Z"/><path class="cls-7" d="M49.59,79l-.71.08c-1.16,0-2.1,1.13-2.62,2.12a2.25,2.25,0,0,0,.11,2.7,2.5,2.5,0,0,0,1.53.94,4.07,4.07,0,0,0,2.37-.63c.7-.35,2.51-1.27,2.61-2.09s-.62-1.29-1.27-1.91S50.54,79,49.59,79Z"/><path class="cls-8" d="M49.53,80s-.68-.26-.72-.26a2.26,2.26,0,0,0-2.13,1.18,2.38,2.38,0,0,0,.24,2.52c.29.38,1,.36,1.48.43A2.32,2.32,0,0,0,50,83.69c.56-.28,1.93-.66,2-1.32a2.41,2.41,0,0,0-.94-1.89C50.55,80,50.3,80,49.53,80Z"/><path class="cls-6" d="M69.32,91.54h-.19a.89.89,0,0,0-.78.41.6.6,0,0,0-.11.7.66.66,0,0,0,.34.32,1.09,1.09,0,0,0,.64,0c.2-.06.71-.21.78-.41s-.1-.36-.23-.55S69.56,91.6,69.32,91.54Z"/><path class="cls-7" d="M69.16,91.61l-.16,0c-.26,0-.47.25-.59.47a.55.55,0,0,0,.37.82.92.92,0,0,0,.53-.14c.16-.08.56-.28.59-.47s-.14-.29-.29-.43S69.37,91.62,69.16,91.61Z"/><path class="cls-8" d="M69.15,91.84,69,91.78a.52.52,0,0,0-.47.27.52.52,0,0,0,0,.57c.07.08.22.08.33.09a.47.47,0,0,0,.37,0c.13-.06.43-.15.45-.29A.53.53,0,0,0,69.5,92,.44.44,0,0,0,69.15,91.84Z"/><path class="cls-6" d="M40.54,89.32l-.18,0a.92.92,0,0,0-.78.42.58.58,0,0,0-.12.7.6.6,0,0,0,.35.31,1,1,0,0,0,.63,0c.2-.06.71-.21.78-.42s-.09-.36-.22-.55S40.78,89.37,40.54,89.32Z"/><path class="cls-7" d="M40.38,89.39l-.15,0a.76.76,0,0,0-.59.47.51.51,0,0,0,0,.61.61.61,0,0,0,.35.21.94.94,0,0,0,.53-.14c.16-.08.56-.29.58-.47s-.14-.29-.28-.43S40.6,89.4,40.38,89.39Z"/><path class="cls-8" d="M40.37,89.62l-.16-.06a.51.51,0,0,0-.42.83c.06.09.22.08.33.1a.53.53,0,0,0,.37,0c.12-.06.43-.15.45-.3a.54.54,0,0,0-.21-.42A.46.46,0,0,0,40.37,89.62Z"/><path class="cls-6" d="M99.87,64.3h-.19a.89.89,0,0,0-.78.41.58.58,0,0,0-.11.7.66.66,0,0,0,.34.32,1.09,1.09,0,0,0,.64,0c.2-.06.71-.21.78-.41s-.1-.36-.23-.55S100.11,64.36,99.87,64.3Z"/><path class="cls-7" d="M99.71,64.37l-.16,0c-.26,0-.47.25-.59.47a.55.55,0,0,0,.37.82.94.94,0,0,0,.53-.14c.16-.08.56-.29.59-.47s-.14-.29-.29-.43S99.92,64.38,99.71,64.37Z"/><path class="cls-8" d="M99.7,64.6l-.17-.06a.52.52,0,0,0-.42.84c.07.08.22.08.33.09a.47.47,0,0,0,.37,0c.13-.06.43-.15.45-.29a.53.53,0,0,0-.21-.43A.44.44,0,0,0,99.7,64.6Z"/><path class="cls-6" d="M108.2,67.24l-.33,0a1.64,1.64,0,0,0-1.39.74,1,1,0,0,0-.2,1.25,1.12,1.12,0,0,0,.61.56,1.88,1.88,0,0,0,1.14-.09c.35-.1,1.26-.36,1.39-.73s-.17-.64-.4-1S108.63,67.35,108.2,67.24Z"/><path class="cls-7" d="M107.92,67.37l-.28,0c-.47,0-.84.45-1,.85a.9.9,0,0,0,0,1.08,1,1,0,0,0,.62.38,1.68,1.68,0,0,0,.94-.25c.28-.15,1-.51,1-.84s-.25-.52-.51-.77S108.3,67.39,107.92,67.37Z"/><path class="cls-8" d="M107.9,67.78l-.29-.1a.9.9,0,0,0-.85.47,1,1,0,0,0,.09,1c.12.16.4.15.6.18a.92.92,0,0,0,.65-.08c.23-.11.78-.26.81-.52a.93.93,0,0,0-.38-.76C108.3,67.78,108.2,67.8,107.9,67.78Z"/><path class="cls-6" d="M33.57,82.73l-.34,0a1.67,1.67,0,0,0-1.39.75,1,1,0,0,0-.2,1.24,1.12,1.12,0,0,0,.61.56,1.94,1.94,0,0,0,1.14-.08c.36-.11,1.27-.37,1.39-.74s-.17-.64-.4-1S34,82.83,33.57,82.73Z"/><path class="cls-7" d="M33.28,82.85l-.28,0c-.46,0-.84.45-1.05.84A.9.9,0,0,0,32,84.81a1,1,0,0,0,.61.38,1.64,1.64,0,0,0,1-.25c.28-.14,1-.51,1-.84s-.25-.52-.5-.77S33.67,82.87,33.28,82.85Z"/><path class="cls-8" d="M33.26,83.27,33,83.16a.92.92,0,0,0-.85.47,1,1,0,0,0,.1,1c.11.16.39.15.59.18a.91.91,0,0,0,.65-.07c.23-.12.78-.27.81-.53a1,1,0,0,0-.37-.76C33.67,83.26,33.57,83.28,33.26,83.27Z"/><path class="cls-6" d="M30.6,110.47l-.33,0a1.61,1.61,0,0,0-1.39.74,1,1,0,0,0-.21,1.24,1.17,1.17,0,0,0,.61.57,1.94,1.94,0,0,0,1.14-.09c.36-.1,1.27-.37,1.39-.73s-.16-.64-.4-1S31,110.57,30.6,110.47Z"/><path class="cls-7" d="M30.32,110.6l-.29,0c-.46,0-.84.45-1,.85a.89.89,0,0,0,0,1.08,1,1,0,0,0,.61.37,1.64,1.64,0,0,0,.95-.25c.28-.14,1-.51,1.05-.84s-.25-.51-.51-.76S30.7,110.62,30.32,110.6Z"/><path class="cls-8" d="M30.3,111l-.29-.1a.89.89,0,0,0-.85.47,1,1,0,0,0,.09,1c.12.15.4.14.59.17a.94.94,0,0,0,.66-.07c.22-.11.77-.26.81-.53a1,1,0,0,0-.38-.75C30.7,111,30.6,111,30.3,111Z"/><path class="cls-6" d="M57.72,102.73l-.49,0a2.39,2.39,0,0,0-2,1.09,1.53,1.53,0,0,0-.3,1.83,1.66,1.66,0,0,0,.9.83,2.86,2.86,0,0,0,1.68-.12c.52-.15,1.87-.54,2-1.08s-.25-1-.59-1.45S58.35,102.88,57.72,102.73Z"/><path class="cls-7" d="M57.3,102.91l-.41,0c-.69,0-1.24.67-1.55,1.25a1.32,1.32,0,0,0,.07,1.59,1.4,1.4,0,0,0,.9.56A2.33,2.33,0,0,0,57.7,106c.42-.21,1.49-.75,1.55-1.23s-.37-.76-.75-1.13S57.87,102.94,57.3,102.91Z"/><path class="cls-8" d="M57.27,103.53s-.4-.16-.43-.16a1.33,1.33,0,0,0-1.25.7,1.39,1.39,0,0,0,.14,1.49c.17.22.58.21.87.25a1.4,1.4,0,0,0,1-.1c.33-.17,1.14-.39,1.19-.78a1.41,1.41,0,0,0-.55-1.12C57.87,103.52,57.72,103.55,57.27,103.53Z"/><path class="cls-6" d="M66.3,63.93h-.18a.91.91,0,0,0-.78.41.58.58,0,0,0-.12.7.65.65,0,0,0,.35.32,1.09,1.09,0,0,0,.64,0c.19-.06.71-.21.77-.41s-.09-.36-.22-.55S66.55,64,66.3,63.93Z"/><path class="cls-7" d="M66.15,64,66,64c-.26,0-.47.25-.59.48a.49.49,0,0,0,0,.6.56.56,0,0,0,.35.21.87.87,0,0,0,.53-.14c.16-.08.56-.28.59-.47s-.14-.29-.29-.43S66.36,64,66.15,64Z"/><path class="cls-8" d="M66.13,64.23l-.16,0a.51.51,0,0,0-.48.26.54.54,0,0,0,.06.57c.06.08.22.08.33.09a.48.48,0,0,0,.37,0c.12-.06.43-.14.45-.29a.58.58,0,0,0-.21-.43C66.36,64.23,66.31,64.24,66.13,64.23Z"/><path class="cls-6" d="M56,87.36l-.49,0a2.45,2.45,0,0,0-2.06,1.1,1.53,1.53,0,0,0-.29,1.83,1.63,1.63,0,0,0,.9.83A2.79,2.79,0,0,0,55.72,91c.52-.15,1.86-.53,2-1.08s-.24-.94-.58-1.44S56.61,87.51,56,87.36Z"/><path class="cls-7" d="M55.56,87.54l-.42,0c-.68,0-1.24.67-1.54,1.25a1.32,1.32,0,0,0,.06,1.59,1.44,1.44,0,0,0,.9.56,2.42,2.42,0,0,0,1.4-.37c.42-.21,1.48-.75,1.54-1.24s-.36-.76-.74-1.13S56.12,87.57,55.56,87.54Z"/><path class="cls-8" d="M55.53,88.15s-.4-.15-.43-.15a1.32,1.32,0,0,0-1.25.7A1.41,1.41,0,0,0,54,90.19c.18.22.59.21.88.25a1.4,1.4,0,0,0,1-.1c.33-.17,1.14-.39,1.19-.78a1.42,1.42,0,0,0-.56-1.12C56.13,88.15,56,88.17,55.53,88.15Z"/><path class="cls-6" d="M112.05,82.07l-.26,0c-.4-.08-.81.26-1.07.57a.79.79,0,0,0-.15.95A.86.86,0,0,0,111,84a1.45,1.45,0,0,0,.87-.06c.27-.08,1-.28,1.07-.56s-.13-.5-.31-.76S112.38,82.15,112.05,82.07Z"/><path class="cls-7" d="M111.83,82.16l-.22,0c-.35,0-.64.34-.8.65a.69.69,0,0,0,0,.83.8.8,0,0,0,.47.29,1.3,1.3,0,0,0,.73-.2c.21-.11.77-.39.8-.64s-.19-.4-.39-.59S112.12,82.18,111.83,82.16Z"/><path class="cls-8" d="M111.81,82.48l-.22-.08a.7.7,0,0,0-.65.36.73.73,0,0,0,.07.78c.09.12.3.11.46.13a.72.72,0,0,0,.5,0c.17-.09.59-.21.62-.41a.72.72,0,0,0-.29-.58A.61.61,0,0,0,111.81,82.48Z"/><path class="cls-6" d="M86.43,61.42l-.37,0a1.83,1.83,0,0,0-1.57.83,1.19,1.19,0,0,0-.22,1.4,1.27,1.27,0,0,0,.68.63,2.17,2.17,0,0,0,1.28-.1c.4-.11,1.42-.41,1.56-.82s-.19-.72-.45-1.1S86.91,61.53,86.43,61.42Z"/><path class="cls-7" d="M86.11,61.56l-.32,0a1.58,1.58,0,0,0-1.17.95,1,1,0,0,0,0,1.22,1.12,1.12,0,0,0,.68.42,1.87,1.87,0,0,0,1.07-.28c.31-.16,1.12-.57,1.17-.94s-.28-.58-.57-.86S86.54,61.58,86.11,61.56Z"/><path class="cls-8" d="M86.09,62l-.33-.11a1,1,0,0,0-1,.53,1.06,1.06,0,0,0,.1,1.13c.14.17.45.16.67.19a1,1,0,0,0,.73-.08c.26-.13.87-.29.91-.59a1.07,1.07,0,0,0-.42-.85A.9.9,0,0,0,86.09,62Z"/><path class="cls-6" d="M67.45,108.21l-.38,0a1.83,1.83,0,0,0-1.56.83,1.16,1.16,0,0,0-.22,1.39,1.29,1.29,0,0,0,.68.64,2.17,2.17,0,0,0,1.28-.1c.4-.11,1.42-.41,1.56-.82s-.19-.72-.45-1.1S67.93,108.33,67.45,108.21Z"/><path class="cls-7" d="M67.13,108.35l-.32,0c-.52,0-.94.51-1.17,1a1,1,0,0,0,0,1.21,1.06,1.06,0,0,0,.68.43,1.85,1.85,0,0,0,1.06-.29c.32-.16,1.13-.57,1.18-.94s-.28-.57-.57-.85S67.56,108.37,67.13,108.35Z"/><path class="cls-8" d="M67.11,108.82l-.33-.12a1,1,0,0,0-1,.53,1.05,1.05,0,0,0,.1,1.13c.13.18.45.17.67.2a1.08,1.08,0,0,0,.73-.08c.26-.13.87-.3.91-.59a1.07,1.07,0,0,0-.42-.85A.86.86,0,0,0,67.11,108.82Z"/><path class="cls-6" d="M73.29,64.17l-.56,0a2.79,2.79,0,0,0-2.35,1.25,1.77,1.77,0,0,0-.34,2.1,1.88,1.88,0,0,0,1,1A3.26,3.26,0,0,0,73,68.28c.6-.17,2.13-.61,2.34-1.23s-.28-1.08-.67-1.66S74,64.35,73.29,64.17Z"/><path class="cls-7" d="M72.81,64.38l-.48.06c-.78,0-1.41.76-1.76,1.43a1.51,1.51,0,0,0,.07,1.82,1.65,1.65,0,0,0,1,.63,2.71,2.71,0,0,0,1.6-.42C73.75,67.66,75,67,75,66.49s-.42-.87-.85-1.29S73.45,64.41,72.81,64.38Z"/><path class="cls-8" d="M72.78,65.08s-.46-.17-.5-.17a1.53,1.53,0,0,0-1.43.79A1.61,1.61,0,0,0,71,67.4c.2.26.67.25,1,.3a1.59,1.59,0,0,0,1.1-.12c.39-.2,1.31-.45,1.37-.89a1.62,1.62,0,0,0-.64-1.28C73.46,65.08,73.29,65.11,72.78,65.08Z"/><path class="cls-9" d="M27,103.47c.46.24,1.58.68,1.67,1.06s-.87.86-1.59,1.15-1,.28-1.42-.05a2.35,2.35,0,0,1-1.05-1.56c-.07-.43-.09-.46.82-.67S26.44,103.2,27,103.47Z"/><path class="cls-10" d="M25.9,103.72c.46.24,1.58.67,1.67,1.06s-.69.77-1.37,1.06c.23.07.48,0,1-.19.72-.29,1.69-.73,1.59-1.16s-1.21-.82-1.67-1.06-.68-.27-1.57-.06l-.6.15A1.35,1.35,0,0,1,25.9,103.72Z"/><path class="cls-9" d="M97.17,85.26c.69-.1,2.88,0,3.39-.34.35-.23,1.61-2.5.74-2.63a12.55,12.55,0,0,0-5,0A7.43,7.43,0,0,0,97.17,85.26Z"/><path class="cls-10" d="M99.68,84.12a4.44,4.44,0,0,0,1-1.92l.59.09c.87.14-.39,2.4-.74,2.63-.51.33-2.71.25-3.39.34a3.35,3.35,0,0,1-.4-.83A9.85,9.85,0,0,0,99.68,84.12Z"/><path class="cls-9" d="M54.88,74.7c.72-.35,2.16-1.23,3-1.19s1.3,1.07,1.51,1.82.07,1-.83,1.28a8.73,8.73,0,0,1-3.66.47c-.9-.08-1-.07-.92-1S54.06,75.1,54.88,74.7Z"/><path class="cls-10" d="M54.83,75.76c.72-.35,2.16-1.23,3-1.19s1.21.87,1.44,1.58c.26-.18.28-.43.12-1-.21-.75-.6-1.78-1.5-1.82s-2.26.83-3,1.19S54,75.08,54,76a2.16,2.16,0,0,0,0,.59C54.06,76.19,54.26,76,54.83,75.76Z"/><path class="cls-9" d="M69.41,84.51c-.52-.07-1.73-.1-2-.42S68,83,68.52,82.47s.79-.59,1.34-.44a2.46,2.46,0,0,1,1.56,1.1c.22.38.26.4-.52.9S70,84.58,69.41,84.51Z"/><path class="cls-10" d="M70.32,83.91c-.52-.06-1.73-.09-1.95-.42s.35-1,.88-1.46c-.25,0-.46.15-.87.52-.57.52-1.31,1.26-1.06,1.63s1.43.35,2,.42.73,0,1.49-.48c.23-.15.39-.26.5-.35A1.33,1.33,0,0,1,70.32,83.91Z"/><path class="cls-9" d="M88.37,83.49c-.53-.07-1.73-.1-2-.42s.49-1.11,1.06-1.62.8-.59,1.35-.44a2.46,2.46,0,0,1,1.56,1.1c.22.38.25.4-.52.9S89,83.56,88.37,83.49Z"/><path class="cls-10" d="M89.28,82.89c-.53-.06-1.73-.09-2-.42s.35-1,.88-1.46c-.24,0-.45.15-.86.52-.57.52-1.31,1.26-1.06,1.63s1.43.35,2,.42.73,0,1.49-.48a3.86,3.86,0,0,0,.5-.35A1.3,1.3,0,0,1,89.28,82.89Z"/><path class="cls-9" d="M94.89,65c-.67.17-2.65,1.07-3.25,1-.42-.07-2.5-1.69-1.76-2.14A12.54,12.54,0,0,1,94.45,62,7.33,7.33,0,0,1,94.89,65Z"/><path class="cls-10" d="M92.12,64.91a4.66,4.66,0,0,1-1.71-1.38l-.51.3c-.74.45,1.34,2.06,1.76,2.14.6.11,2.59-.79,3.25-1a3.07,3.07,0,0,0,0-.91A10,10,0,0,1,92.12,64.91Z"/><path class="cls-9" d="M41.74,107.31c-.45-1-1.22-2,.2-2.69a1.82,1.82,0,0,1,2.27.5c.56,1,1.56,3,1.09,4.12a1.77,1.77,0,0,1-2.77.43A12.82,12.82,0,0,1,41.74,107.31Z"/><path class="cls-10" d="M44.08,109.48c.47-1.15-.54-3.13-1.09-4.12a1.44,1.44,0,0,0-1.18-.67c-1.24.64-.5,1.6-.07,2.62a12.82,12.82,0,0,0,.79,2.36,1.29,1.29,0,0,0,.91.48A1.34,1.34,0,0,0,44.08,109.48Z"/><path class="cls-9" d="M59.07,96.64c1-.63,1.86-1.56,2.79-.34a1.63,1.63,0,0,1-.07,2.23c-.91.72-2.74,2-4,1.83a1.64,1.64,0,0,1-1-2.53A13.75,13.75,0,0,1,59.07,96.64Z"/><path class="cls-10" d="M57.31,99.26c1.26.21,3.09-1.12,4-1.83a1.35,1.35,0,0,0,.46-1.24c-.9-1-1.74-.16-2.7.44a14.58,14.58,0,0,0-2.26,1.2,1.21,1.21,0,0,0-.31,1A1.46,1.46,0,0,0,57.31,99.26Z"/><path class="cls-9" d="M120.86,93.37c1-.62,1.86-1.55,2.79-.33a1.66,1.66,0,0,1-.07,2.23c-.91.71-2.74,2-4,1.83a1.64,1.64,0,0,1-1-2.53A13.05,13.05,0,0,1,120.86,93.37Z"/><path class="cls-10" d="M119.09,96c1.27.22,3.1-1.11,4-1.83a1.34,1.34,0,0,0,.46-1.23c-.9-1.05-1.74-.17-2.7.44a13.05,13.05,0,0,0-2.26,1.2,1.23,1.23,0,0,0-.32,1A1.43,1.43,0,0,0,119.09,96Z"/><path class="cls-9" d="M83.08,103.2c-.53-.58-1.77-1.71-1.92-2.48s.76-1.46,1.47-1.84,1-.3,1.49.46a7.86,7.86,0,0,1,1.36,3.3c.14.85.17.9-.75,1.08S83.68,103.86,83.08,103.2Z"/><path class="cls-10" d="M84.16,103c-.53-.58-1.77-1.71-1.92-2.48s.58-1.34,1.25-1.72c-.25-.2-.5-.16-1,.12-.71.38-1.65,1-1.47,1.84s1.39,1.9,1.92,2.48.75.7,1.65.52a2.69,2.69,0,0,0,.6-.15C84.78,103.61,84.58,103.45,84.16,103Z"/><path class="cls-9" d="M43.39,102.31c.34,1.54-2.81.36-3.33-.11-1-.86.7-2.87,1.78-2.12A6.79,6.79,0,0,1,43.39,102.31Z"/><path class="cls-10" d="M40.41,101.41a.88.88,0,0,1-.28-.82,1.15,1.15,0,0,0-.07,1.61c.52.47,3.67,1.65,3.33.11,0,0,0,0,0-.07A4.93,4.93,0,0,1,40.41,101.41Z"/><path class="cls-9" d="M41.81,82.93c.34,1.53-2.8.35-3.33-.11-1-.87.71-2.88,1.78-2.13A6.94,6.94,0,0,1,41.81,82.93Z"/><path class="cls-10" d="M38.84,82a.9.9,0,0,1-.29-.82,1.15,1.15,0,0,0-.07,1.61c.53.46,3.67,1.64,3.33.11a.14.14,0,0,0,0-.07A4.88,4.88,0,0,1,38.84,82Z"/><path class="cls-9" d="M119.43,77.1c.33,1.54-2.81.36-3.34-.1-1-.87.71-2.88,1.79-2.13A7.06,7.06,0,0,1,119.43,77.1Z"/><path class="cls-10" d="M116.45,76.21a.9.9,0,0,1-.28-.83,1.17,1.17,0,0,0-.08,1.62c.53.46,3.67,1.64,3.34.1a.14.14,0,0,1,0-.07A4.91,4.91,0,0,1,116.45,76.21Z"/><path class="cls-9" d="M88.68,102.68c-1.2.29-.41-2.15-.07-2.56.64-.78,2.3.47,1.76,1.32A5.35,5.35,0,0,1,88.68,102.68Z"/><path class="cls-10" d="M89.25,100.37a.71.71,0,0,1,.64-.23.93.93,0,0,0-1.28,0c-.34.41-1.13,2.85.07,2.56l0,0A3.65,3.65,0,0,1,89.25,100.37Z"/><path class="cls-9" d="M67.68,74.14s1.32-3.09,2.53-3.4,2.89,3,2.89,3A.94.94,0,0,1,72.53,75C71.5,75.39,68.87,74.83,67.68,74.14Z"/><path class="cls-10" d="M69.17,73.71a12.25,12.25,0,0,1,1.65-2.77,1,1,0,0,0-.74-.18c-1.2.31-2.53,3.4-2.53,3.4,1.19.69,3.83,1.25,4.85.91a1.05,1.05,0,0,0,.53-.36A9.74,9.74,0,0,1,69.17,73.71Z"/></svg>