<svg id="फसल" xmlns="http://www.w3.org/2000/svg" viewBox="0 0 150 160"><defs><style>.cls-1{fill:#fff;stroke:#fff;stroke-miterlimit:10;stroke-width:6px;}.cls-2{fill:#fbf056;}.cls-3{fill:#f1e004;}.cls-4{fill:#78b035;}.cls-5{fill:#6b9c30;}.cls-6{fill:#507820;}.cls-7{fill:#d9d02e;}.cls-8{fill:#d5cc20;}.cls-9{fill:#f1e005;}.cls-10{fill:#f7e82e;}.cls-11{fill:#f8e932;}.cls-12{fill:#f7e933;}.cls-13{fill:#f6ea37;}.cls-14{fill:#849f2f;}.cls-15{fill:#c2c515;}</style></defs><path class="cls-1" d="M39.77,84.12c1.15-3.13-3.89-3-2.58-6.6.49-2.51-3.75-3-2.42-6,.58-2.43-4-3.15-1.81-6.51a.88.88,0,0,0-.21-1.14c-1.27-1.33-2.32-3-1.49-4.87.41-1.91-2.59-3-1.45-5.32.81-2.21-2.35-4,0-6.18.88-2.09-2.63-4-.73-6.3a1.93,1.93,0,0,0,.29-2.41C27,36.1,30.6,34,29.79,31.51a4.13,4.13,0,0,1,.79-5.08c-.12-1.86-.48-3.75,1.42-5,1-8.54,3.4-3.65,3.91-7.42-1-4.08,3.9-5.48,6.78-3.61.47.11.47.12.28.87-.66,1.61,1.67,2.31,1.16,3.91,0,4.9,2.6,9.4,4.38,13.84a5.32,5.32,0,0,0,2,3.74c1.94,1.4,1.55,4.14,3.38,5.66,1.6,2.28.75,5.67,3.56,7.36a3.44,3.44,0,0,1,1.35,2.27c.15,2.82,2.93,3.73,4.1,5.86a7.82,7.82,0,0,0,2.67,4.21c1.26,1.39.81,3.69,2.5,4.92,1.23,1.39.69,3.62,2.48,4.7,4,6.67,8.32,13.56,11.94,20.78,2.89,2.42.91,6.51,1.34,9.84-1.06,11.95-19.88-7.17-36.87-.29-.74-1.46-3.14-2.17-2.6-4.12a1.31,1.31,0,0,0-.88-1.75c-2.34-1.27-.87-4-2.56-5.47C40.09,86.15,39.33,85.35,39.77,84.12Z"/><path class="cls-1" d="M42.68,11.13c.08-.23.41-.45,0-.69,3.46-2.94,5.35.69,8.68.22,2.59-.32,3.29,2.29,5.12,2.92,2.73-.76,3.24,2,5,2.82,3.08-.57,4.23,2.46,6.27,3.7,2.44,0,2.82,2.48,4.19,3.59,3.43.17,3.65,3.41,5.26,5.39,2.31.56,2.87,2.71,4,4.4,4.65,2,3.54,5.5,6.2,8.29,1.72.82,1.75,2.91,2.95,4a4.24,4.24,0,0,1,3.37,3.64c.72,1.08,2.22,1.65,2.75,3,1.56,1.59,3.3,3.19,3,5.67.1,1.31,2.17,1.91.7,3.2C85.31,74.62,86.67,97.46,86.45,113.42,77.36,102.58,61.63,98.89,48,100.68c-8.32-3.09,10.39-5.11,12.81-3.85,6.78-.75,18.58,9.4,22.27,3.5.39-3.16,1.11-7.53.17-10.39-2-1.65-2.55-4.55-4-6.68-1-3.34-3.89-5.9-5.13-9.28-.5-1.36-2.28-1.65-2.64-3.2-.44-.88,0-2-1-2.58-1.89-1-1.53-3.19-2.51-4.73a5.86,5.86,0,0,1-2-3.95c-.92-1.89-3.12-3.06-3.4-5.46-1.29-2.09-4-3.08-4.13-6a2.85,2.85,0,0,0-1.16-1.94c-2.73-1.66-2.3-4.73-3.4-7.17-2.17-1.87-1.81-5-4.33-6.59-1.35-1.24-1.05-3.09-1.77-4.55-1.66-1.32-1.28-3.51-2.19-5.11C44,21.45,45,19.44,44,17.94A3.49,3.49,0,0,1,43.8,15C44.72,13.6,42,12.88,42.68,11.13Z"/><path class="cls-1" d="M84.65,111c1,.6,1.27,1.83,2.29,2.43-3.13-18.9.75-39.45,13.38-53.7,20-13.34-1.86-.06,18.09,38.79,7.08,15.69.21,23.49-10.7,33.29,2,5.86-3.57,10.26-8.94,10.54C87.66,138.63,90.55,119.24,84.65,111Z"/><path class="cls-1" d="M84.65,111c6.24,8.85,4,22.43,11.81,30.82,4.5.89,11.16-2,11.24-7.11,0-1.65-1.2-3.76.64-4.83,24.26-13.12,4.86-37.41,1.17-56.06,4.69,21.1,30.38,43.69,1,59.26-.42.14-.61.37-.49.81a6.25,6.25,0,0,1-2.53,6.39c-3.73,3.7-9.77,5-12.7.49-6.72,5-17.44,3.94-23.48-1.8-8.69-8.23-12.24-20.9-23.15-27-8.54-7.2-21.08-5.92-2.68-11.7.54-.15.06-1,.71-1.1.11,1.84,1.86,1.16,3.06.89C61.65,99.08,75.63,102,84.65,111Z"/><path class="cls-1" d="M46.21,99.19c-.42.45.47,1.26-.22,1.43-1.64.23-3.1,1.28-4.78,1.23,6.88-.48-4.17-9-6.25-11-1.81-1.78-4.78-2.2-6.49-3.77,2.62-2.85,7.65-2.59,11.3-2.93a3.78,3.78,0,0,0,1.48,2.55c2.2,1.09-.81,4.58,3,5.61.8.35.86.42.54,1.2C43.46,96.26,48.69,96.59,46.21,99.19Z"/><path class="cls-1" d="M102.23,58.77c-.58.67-1.33,1.63-2.15.84-1.85-1-.23-4.24-2.45-5.55-1.34-1-1.9-2.63-3.29-3.56-.34-.28-.76-.54-.59-1.1,3.44-1.9,7-6,11.47-6.69,1.36,0,1.24,1.55.51,2.3C103.2,48.67,101,54.83,102.23,58.77Z"/><path class="cls-1" d="M90.39,45.76c-.57,0-.7-.43-.79-.84-.36-1.68-1.76-2.58-3-3.62-1.45-2.42-1.35-5.58-4.4-7.07,1.69.38,3.71,2.91,3.71,5C86.74,41.71,89.57,43.05,90.39,45.76Z"/><path class="cls-1" d="M61.54,16.4c-1.81-.15-2.29-3.55-4.87-2.69-1.61.13-2-2.24-3.59-2.56-.54-.31-1.21-.12-1.71-.49,2.84-.81,3.37,2.65,5.56,2.76C59.36,12.79,60,15.43,61.54,16.4Z"/><path class="cls-1" d="M67.84,89.69c-.15-2.39-2.81-3.23-2.48-5.8-.15-1.51-2.06-2.13-2.26-3.76-1-2,2.16-4.13,2.53-1.41-.49,2.14,2.43,2.51,2.05,4.5a2.19,2.19,0,0,0,.84,2.64c2.23.8,0,2.27,1.33,3.53C72.24,91.48,68.36,91.86,67.84,89.69Z"/><path class="cls-1" d="M45.36,54.36c-.28-2.34-2.45-3.61-2-6-.95-1.57-2.25-5.73,1-5.31,1.28.58-.18,2.43.94,3.22,1.44,1.06-.12,2.26.34,3.49,2.37,1.89.24,2.59,1.5,4.56C48.82,56.2,45.67,55.78,45.36,54.36Z"/><path class="cls-1" d="M50.59,78.57c-2.36.9-1.48-2.31-2.38-3.2-1.08-1.27-5.42-8.05-1.68-8.1,1.65.42.17,2.79,1.93,3.43,1.1.83-.22,2.67,1.19,3.47,1.09.72,1.17.89.83,2.13C50.15,77.1,50.9,77.82,50.59,78.57Z"/><path class="cls-1" d="M60.82,96.83c-2.51,0-5.06-.21-7.56-.13A16.93,16.93,0,0,1,60.82,96.83Z"/><path class="cls-1" d="M74,100.48a48.29,48.29,0,0,1-5-1.82A12.36,12.36,0,0,1,74,100.48Z"/><path class="cls-1" d="M50.59,78.57c-.71-1.55.65-3.33-.94-4.4,1.94.54.59,2.11,1,3.4C50.8,77.89,51,78.27,50.59,78.57Z"/><path class="cls-1" d="M42.68,11.13c-.51,1.69,2.54,2.76,1.12,3.91C44.28,13.52,41.78,12.84,42.68,11.13Z"/><path class="cls-1" d="M43.71,92.09A2.74,2.74,0,0,1,42,88.68,4.09,4.09,0,0,0,43.71,92.09Z"/><path class="cls-1" d="M62.36,97.08a2.23,2.23,0,0,1-1.54-.25A2.17,2.17,0,0,1,62.36,97.08Z"/><path class="cls-1" d="M63.14,32.06c2.83-.92,1.24,2.26,2.16,3.38.92,1,2.58,1.27,1.91,2.94a.79.79,0,0,0,.54,1.13c3.3.88-.62,2.91,2.63,4.86.21,2.09-3.79-.79-3.29-1.82a1.33,1.33,0,0,0-.7-1.33C65,40.64,65.27,39,64.42,38,62.73,36.76,61.11,33.68,63.14,32.06Z"/><path class="cls-1" d="M82.71,52.91c-.14-1.69-2.27-1.8-2.4-3.56-1.19-1.29-2.92-2.69-2-4.75.43-1.07,2.18-1.51,2.58-.21.43.93-1,2.06.56,2.26,2.39.36,0,3,2.55,2.88,2.26.77-1,3.13,1.67,3.74C89,55.49,83.24,55,82.71,52.91Z"/><path class="cls-1" d="M82.24,68.77c-.49-2.27.15-1.88-2-3.36-1.1-.7-.56-2.3-1.59-2.9A4.05,4.05,0,0,1,76.72,60c-.81-1.59,2-3.52,2.19-1.2-.07,1.53-.07,1.53,1.39,2.17,1.88.88.35,3.37,2.78,4.05,1.84.84-.4,2.77,1,3.81C87.76,71.41,83.13,71.46,82.24,68.77Z"/><path class="cls-1" d="M73.55,103.73a2.81,2.81,0,0,1-1.56-.64A2.22,2.22,0,0,1,73.55,103.73Z"/><path class="cls-2" d="M39.77,84.12A3.53,3.53,0,0,1,40,83a.86.86,0,0,0-.41-1.09,4.34,4.34,0,0,0-.46-.28,3.34,3.34,0,0,1-1.9-4.07,1.58,1.58,0,0,0-.9-2.1,3.17,3.17,0,0,1-1.57-3.63,2.56,2.56,0,0,1,.05-.27,1.48,1.48,0,0,0-.81-2,3.15,3.15,0,0,1-1.26-3.88A6,6,0,0,1,33,65a.88.88,0,0,0-.21-1.14,6.2,6.2,0,0,1-.54-.61c-1-1.26-1.66-2.61-.95-4.26a1.28,1.28,0,0,0-.4-1.61,3.41,3.41,0,0,1-1.05-3.71,2.27,2.27,0,0,0-.46-2.61,2.06,2.06,0,0,1-.29-2.31,4.75,4.75,0,0,1,.71-1.26,1.18,1.18,0,0,0,.09-1.36c-.28-.53-.57-1.07-.87-1.59A3.06,3.06,0,0,1,29,41.2c.08-.13.14-.27.23-.39a1.64,1.64,0,0,0,.06-2,7.05,7.05,0,0,1-.36-.73,3.67,3.67,0,0,1,.54-4.24,1.87,1.87,0,0,0,.28-2.31,4.19,4.19,0,0,1-.18-3.76c.18-.55.66-.87,1-1.32a1.08,1.08,0,0,0,0-.79A3.74,3.74,0,0,1,32,21.47a1,1,0,0,0,.42-1.1,5.4,5.4,0,0,1,.45-3.09,2.51,2.51,0,0,1,2-1.56,1.33,1.33,0,0,0,1.08-1.67A3.14,3.14,0,0,1,37,10.5a3.86,3.86,0,0,1,4.24-.62,3.32,3.32,0,0,0,1.41.56c.47.11.47.12.28.87a1.69,1.69,0,0,0,.49,1.89,2.15,2.15,0,0,1,.67,2,3.82,3.82,0,0,0,.45,3,2.59,2.59,0,0,1,.29,1.5,3.88,3.88,0,0,0,.94,2.76,2.41,2.41,0,0,1,.6,1.49,6.16,6.16,0,0,0,1.5,3.54,2.68,2.68,0,0,1,.6,1.58,5.32,5.32,0,0,0,2,3.74,4.85,4.85,0,0,1,1.72,2.79,5.89,5.89,0,0,0,1.66,2.87,3.06,3.06,0,0,1,.9,2.11,6.91,6.91,0,0,0,2.66,5.25,3.44,3.44,0,0,1,1.35,2.27,6.48,6.48,0,0,0,2.88,4.34A3,3,0,0,1,62.89,54a7.82,7.82,0,0,0,2.67,4.21,2.09,2.09,0,0,1,.77,1.5,5.81,5.81,0,0,0,1.73,3.42,2.52,2.52,0,0,1,.78,1.6,4.4,4.4,0,0,0,1.69,3.1,2.91,2.91,0,0,1,1.08,2,3.56,3.56,0,0,0,1.64,2.6,3.14,3.14,0,0,1,1.33,1.77,1.17,1.17,0,0,0,.1.26c1,1.64,1.84,3.38,2.85,5a40,40,0,0,1,2.33,4.09,36.08,36.08,0,0,0,2.62,5,4,4,0,0,0,.83,1,1.85,1.85,0,0,1,.76,1.82c-.25,2.35-.19,4.72-.25,7.07a4.49,4.49,0,0,1-4.59,4.51,2,2,0,0,1-1-.17c-1.42-.67-2.9-1.21-4.31-1.91A12.71,12.71,0,0,0,69,98.92c-2.2-.62-4.45-1.06-6.68-1.58a3.27,3.27,0,0,0-1.45-.28.7.7,0,0,1-.25,0,19.59,19.59,0,0,0-7.36,0,27,27,0,0,0-5.71,1.12.69.69,0,0,1-.61,0,6.18,6.18,0,0,0-1.64-1.74,2.26,2.26,0,0,1-1-2.38,1.31,1.31,0,0,0-.88-1.75,4.17,4.17,0,0,1-1.73-3.51,1.74,1.74,0,0,0-.83-2C40.09,86.15,39.33,85.35,39.77,84.12Z"/><path class="cls-3" d="M42.68,11.13c.08-.23.41-.45,0-.69a7.15,7.15,0,0,1,1.83-1A3.81,3.81,0,0,1,48.2,10c.86,1.18,2,.49,3.09.52a.19.19,0,0,1,.08.1,4.65,4.65,0,0,1,4.18,2.54.82.82,0,0,0,.94.38,3.63,3.63,0,0,1,4,2.1c.24.41.48.78,1,.72a4.83,4.83,0,0,1,4.27,1.77,5.82,5.82,0,0,1,1,1.27,1.08,1.08,0,0,0,1,.66,4,4,0,0,1,2.94,1.77,4.06,4.06,0,0,1,.55,1.24.73.73,0,0,0,.7.58,5.13,5.13,0,0,1,4.38,3.94,3.22,3.22,0,0,1,.16.61,1,1,0,0,0,.72.84,6.17,6.17,0,0,1,1.53.79,4.73,4.73,0,0,1,1.72,2.29c.16.47.21,1,.72,1.32a3.46,3.46,0,0,1,1.13.76A9.32,9.32,0,0,1,85.18,37a4.69,4.69,0,0,1,.59,1.87,3.61,3.61,0,0,0,1.66,2.92,5.29,5.29,0,0,1,2.3,3.3.89.89,0,0,0,.66.69,4.24,4.24,0,0,1,3.36,3.64c0,.26.18.35.35.47a7.33,7.33,0,0,1,2.4,2.55,3.73,3.73,0,0,0,.94,1,5.74,5.74,0,0,1,2.08,4.71c0,.79.53,1,.92,1.43a1.22,1.22,0,0,1-.22,1.77,53.92,53.92,0,0,0-7.72,10.3,22.06,22.06,0,0,0-2,4.45,93.55,93.55,0,0,0-4,17.79,53.3,53.3,0,0,0,.19,12.87c.24,1.83.37,3.67.65,5.5a3.21,3.21,0,0,1,0,.82c-.07.61-.43.77-.94.4a5.83,5.83,0,0,1-1.12-1.3,5.42,5.42,0,0,0-.87-.92,31.67,31.67,0,0,0-10-6.72,5.19,5.19,0,0,1-1-.49,2.26,2.26,0,0,0-1.58-.62c-1.58-.5-3.09-1.2-4.72-1.58a80.58,80.58,0,0,0-12.57-1.57,19.57,19.57,0,0,0-6.56.46c-1.09.29-2-.1-2-1.46.1-.59.25-1.14,1-1.25a19.42,19.42,0,0,1,6.3-1.27,29,29,0,0,1,7.56.13h0c.51.11,1,.14,1.54.25A47.41,47.41,0,0,1,69,98.66a36.22,36.22,0,0,1,5,1.82c1.49.66,3,1.25,4.48,2a2.32,2.32,0,0,0,1.86-.09,4.48,4.48,0,0,0,2.78-2,2.89,2.89,0,0,0,.32-1.12c.13-1.72,0-3.44.11-5.16.06-1,.14-2,.24-3.07a.92.92,0,0,0-.5-1,2.56,2.56,0,0,1-1.16-1.35c-.21-.55-.72-.93-.91-1.46a28,28,0,0,0-1.94-3.87,2.51,2.51,0,0,1-.27-1,1.85,1.85,0,0,0-.77-1.38,5,5,0,0,1-1.89-3.1,2,2,0,0,0-.6-1.08A5.33,5.33,0,0,1,74.12,74a1.51,1.51,0,0,0-.78-1,4.35,4.35,0,0,1-1.86-2.17,2.81,2.81,0,0,1-.28-1.13,1.67,1.67,0,0,0-.75-1.45,4.58,4.58,0,0,1-2-3.62,1.54,1.54,0,0,0-.54-1.11,5.86,5.86,0,0,1-2-3.95,1.28,1.28,0,0,0-.57-1.07,7.49,7.49,0,0,1-2.83-4.39,2,2,0,0,0-.87-1.19,6.74,6.74,0,0,1-3.26-4.79,2.85,2.85,0,0,0-1.16-1.94,7.13,7.13,0,0,1-2.85-5.81A1.73,1.73,0,0,0,53.85,39a7.21,7.21,0,0,1-2.18-4,2.06,2.06,0,0,0-.76-1.3,10.65,10.65,0,0,1-1.39-1.3,5.79,5.79,0,0,1-1.41-3.65,1.27,1.27,0,0,0-.36-.9,5.93,5.93,0,0,1-1.71-4,1.62,1.62,0,0,0-.48-1.12,3.78,3.78,0,0,1-1.05-3A2.85,2.85,0,0,0,44,17.94,3.49,3.49,0,0,1,43.8,15c.45-.55.3-1-.21-1.43A2.53,2.53,0,0,1,42.68,11.13Z"/><path class="cls-4" d="M84.65,111c.62.33.9,1,1.32,1.47a3.69,3.69,0,0,0,1,1c.29-.28.13-.59.09-.86-.51-3.63-.85-7.27-1.13-10.92a50.26,50.26,0,0,1,0-5.35,57.07,57.07,0,0,1,1.59-10.48c.38-1.74.68-3.5,1.18-5.21.83-2.81,1.47-5.71,3-8.27a49.92,49.92,0,0,1,7.38-10.3c.36-.37.68-.78,1.06-1.12a.83.83,0,0,0,.21-1.19c.62-.35,1.28-.65,1.91-1h0c.52-.54,1.21-.88,1.72-1.44a15.46,15.46,0,0,1,4.16-2.5,1.3,1.3,0,0,1,1.51.19,1.34,1.34,0,0,1,.19,1.59,2,2,0,0,0-.22.69c-.06,1.87-.39,3.72-.47,5.58-.08.35,0,.71-.09,1.06a37.39,37.39,0,0,0,.28,8.39,6,6,0,0,1,.19,1.52,36.58,36.58,0,0,0,4.31,12.9A36.47,36.47,0,0,1,116,92.08c.73,2.18,1.63,4.3,2.41,6.46a39.46,39.46,0,0,1,2.84,11.87,18.47,18.47,0,0,1-2.28,9.41,23.43,23.43,0,0,1-7.73,8.28c-1.07.75-2,1.65-3.06,2.42a1.36,1.36,0,0,0-.46,1.31,8.6,8.6,0,0,0,.19,1.44c.79,3.16-.88,5.19-3.16,6.95a10.93,10.93,0,0,1-6,2.15A3.5,3.5,0,0,1,95.44,141a21.76,21.76,0,0,1-3-5.29,50.18,50.18,0,0,1-3.09-9.37c-.87-3.74-1.76-7.48-2.32-11.28a2.32,2.32,0,0,0-.67-1.26,16.35,16.35,0,0,1-1.47-1.85A.87.87,0,0,1,84.65,111Z"/><path class="cls-5" d="M84.65,111a13,13,0,0,0,1.81,2.37,3.1,3.1,0,0,1,1,2c.13,1.69.62,3.32.9,5,.38,2.33,1,4.59,1.6,6.87a51.71,51.71,0,0,0,1.6,5.28,72.09,72.09,0,0,0,3.08,7c.4.82,1.19,1.37,1.54,2.22,0,.12.19.14.31.16a10.34,10.34,0,0,0,6.65-1,10.94,10.94,0,0,0,4.21-3.89,3.43,3.43,0,0,0,.37-2.2,25.33,25.33,0,0,0-.34-2.6,2,2,0,0,1,1-2.23c.83-.53,1.51-1.29,2.33-1.85,1.07-.73,2.08-1.55,3.07-2.38a20.27,20.27,0,0,0,5.73-7.82,18.64,18.64,0,0,0,1.06-10.57,60.46,60.46,0,0,0-2.29-8.18c-.45-1.47-1.13-2.86-1.66-4.3-.45-1.25-.93-2.49-1.43-3.71-.06-.14-.15-.33-.1-.43.3-.67-.09-1.17-.35-1.7-.59-1.2-1.17-2.4-1.77-3.59a40.86,40.86,0,0,1-3.49-10.82.92.92,0,0,1,.07-.71,2.18,2.18,0,0,1,.25,1A44.4,44.4,0,0,0,114.62,88c2,3.79,4,7.54,6.13,11.25a16.36,16.36,0,0,1,1.53,3.38,17.86,17.86,0,0,0,.82,1.92,20.52,20.52,0,0,1,1.52,8.6,20.26,20.26,0,0,1-3.74,11,21.91,21.91,0,0,1-7.11,6.9,12.31,12.31,0,0,0-1.34.93,7.07,7.07,0,0,1-1.9,1c-.42.14-.61.37-.49.81a1.1,1.1,0,0,1,0,.18c.48,2.62-.6,4.59-2.55,6.21a32.55,32.55,0,0,1-3.25,2.33,7.91,7.91,0,0,1-3.35,1,14.59,14.59,0,0,1-2.09,0,3.58,3.58,0,0,1-2.73-1.59c-.28-.39-.52-.82-.78-1.22-.13-.19-.3-.37-.5-.11a6.06,6.06,0,0,1-3.19,1.8A28.13,28.13,0,0,1,83.69,144,5.69,5.69,0,0,1,82.6,144a21.81,21.81,0,0,1-8.39-2.76,14.74,14.74,0,0,1-2.88-2.2,52.48,52.48,0,0,1-5.86-6.69c-.67-1-1.22-2-1.83-3a65.56,65.56,0,0,0-6.88-9.9A40.27,40.27,0,0,0,48.19,112c-1.67-1.06-3.29-2.16-5-3.21a31.9,31.9,0,0,0-5.77-2.85A8.55,8.55,0,0,1,35.6,105c-.31-.22-.3-.41,0-.62a16.1,16.1,0,0,1,5.6-2.52,5.43,5.43,0,0,1,1.28-.31c1.16-.08,1.93-1,3-1.25.24-.05.25-.29.3-.5s0-.56.41-.6c0,.18.09.36.14.53.19.62.42.8,1,.71a12.85,12.85,0,0,0,1.87-.35,11.26,11.26,0,0,1,3.42-.28c2.49,0,5,.28,7.43.53a43.64,43.64,0,0,1,8.56,1.52,18,18,0,0,1,2.29.87,4.61,4.61,0,0,0,1,.37c.5.26,1.07.35,1.56.64a41.09,41.09,0,0,1,7.53,4.12A17.38,17.38,0,0,1,84.65,111Z"/><path class="cls-6" d="M46.21,99.19a1,1,0,0,0,0,1c.09.25,0,.44-.24.47-1.34.15-2.48.95-3.81,1.11-.32,0-.63.22-1,.12a4.78,4.78,0,0,1,1.72-.53c1.09-.27,1.17-.41.53-1.36s-1.26-1.86-2-2.72A38.14,38.14,0,0,0,35,90.82a21.15,21.15,0,0,0-5.64-3.07L29,87.64a.72.72,0,0,1-.5-.59c0-.34.19-.49.44-.61a16.59,16.59,0,0,1,2.13-1,20.34,20.34,0,0,1,7.85-1.17,1.29,1.29,0,0,0,.88-.13,4,4,0,0,0,.94,2.08,2.17,2.17,0,0,0,.54.47c1.29.57,1,.94.77,2a3.13,3.13,0,0,0,1.69,3.41l.5.19c.8.35.86.42.54,1.2A2.14,2.14,0,0,0,45.3,96a2.37,2.37,0,0,0,.79.59A1.27,1.27,0,0,1,47,98,3.6,3.6,0,0,0,46.21,99.19Z"/><path class="cls-6" d="M102.23,58.77c-.29.5-.83.73-1.21,1.14s-.46-.14-.7-.16a1.16,1.16,0,0,0-.24-.14c-.78-.28-1-.76-.91-1.64a4.69,4.69,0,0,0-1.54-3.91,9.41,9.41,0,0,1-2-2.31,4.17,4.17,0,0,0-1.29-1.25c-.34-.28-.76-.54-.59-1.1.18.15.35.2.54,0a22.73,22.73,0,0,1,4.53-3.59,28.88,28.88,0,0,1,5-2.77,3.58,3.58,0,0,1,1.41-.31,1,1,0,0,1,1,1.34,2.7,2.7,0,0,1-.51,1,19.44,19.44,0,0,0-3.45,8.48,27.43,27.43,0,0,0-.45,4.78C101.83,58.54,101.78,58.86,102.23,58.77Z"/><path class="cls-7" d="M90.39,45.76c-.57,0-.7-.43-.79-.84A5.22,5.22,0,0,0,87.46,42c-.28-.22-.55-.47-.83-.7a2.22,2.22,0,0,1-.86-1.62,6.5,6.5,0,0,0-.58-2.36,5.49,5.49,0,0,0-1.69-2.07,6.93,6.93,0,0,1-1.27-1c0-.14,0-.18.15-.1a13.61,13.61,0,0,1,2,1.55,5.42,5.42,0,0,1,1.57,3.56A2.39,2.39,0,0,0,87,41.18a6.9,6.9,0,0,1,2.76,3.69A2,2,0,0,0,90.39,45.76Z"/><path class="cls-8" d="M61.54,16.4c-.56.25-.83-.13-1.1-.5s-.32-.59-.52-.84a3.23,3.23,0,0,0-3.25-1.35,1.19,1.19,0,0,1-1.3-.58,5.08,5.08,0,0,0-2.29-2,4.44,4.44,0,0,0-.86-.25c-.29-.06-.62,0-.85-.24a3.89,3.89,0,0,1,4,2,1.3,1.3,0,0,0,1.54.73,3.1,3.1,0,0,1,3.24,1.51,7,7,0,0,1,.55.83A1.22,1.22,0,0,0,61.54,16.4Z"/><path class="cls-6" d="M104,57.32a4.62,4.62,0,0,1-1.72,1.44A4.9,4.9,0,0,1,104,57.32Z"/><path class="cls-9" d="M67.84,89.69a1.94,1.94,0,0,1-.31-1.23,1,1,0,0,0-.47-1,3.79,3.79,0,0,1-1.7-3.58,1.32,1.32,0,0,0-.54-1.17,5.33,5.33,0,0,1-1.72-2.59,3.17,3.17,0,0,1,0-1.7,1.27,1.27,0,0,1,1.42-1,1.15,1.15,0,0,1,1.11,1.29A2.81,2.81,0,0,0,67,81.4a1.68,1.68,0,0,1,.72,1.82c0,.24-.07.48-.1.72a1.86,1.86,0,0,0,.94,1.92c1.26.79,1.3.8.92,2.15a1.25,1.25,0,0,0,.41,1.38,2.37,2.37,0,0,1,.6.66c.15.3.36.61.07.92a.89.89,0,0,1-1,.24A2.69,2.69,0,0,1,68,90.08C68,90,67.9,89.81,67.84,89.69Z"/><path class="cls-9" d="M45.36,54.36a4,4,0,0,1-.46-1.68,1.2,1.2,0,0,0-.35-.8,3.78,3.78,0,0,1-1.15-3.55,1,1,0,0,0-.34-.89,3.45,3.45,0,0,1-.71-3.07,1.9,1.9,0,0,1,.43-.89A1.4,1.4,0,0,1,44.4,43a1.26,1.26,0,0,1,.53,1.58,1.46,1.46,0,0,0,.41,1.64,1.73,1.73,0,0,1,.34,2.37,1,1,0,0,0,0,1.12,2.49,2.49,0,0,0,.68.83c.73.59.84.8.49,1.62a2,2,0,0,0,.33,2.11c.09.13.21.23.29.35s.32.54.08.83a.7.7,0,0,1-.84.13A2.62,2.62,0,0,1,45.36,54.36Z"/><path class="cls-3" d="M50.59,78.57a1.2,1.2,0,0,1-1.76-.8,2.09,2.09,0,0,1-.21-1.32.88.88,0,0,0-.41-1.08A3.18,3.18,0,0,1,46.86,73a2.46,2.46,0,0,0-.69-1.31,3.6,3.6,0,0,1-1.12-3.2,2.42,2.42,0,0,1,.2-.59,1.18,1.18,0,0,1,1.28-.64,1,1,0,0,1,.87,1.09,2.14,2.14,0,0,0,1.06,2.34,1.23,1.23,0,0,1,.47,1.38,1.94,1.94,0,0,0,.72,2.09c1.09.72,1.17.89.83,2.13a2.57,2.57,0,0,0,.06,1.32C50.62,77.93,50.82,78.24,50.59,78.57Z"/><path class="cls-10" d="M60.82,96.83a9.71,9.71,0,0,1-2.69-.13,32.09,32.09,0,0,0-4.16.06,1.23,1.23,0,0,1-.71-.06,2.48,2.48,0,0,1,1.31-.25,32.43,32.43,0,0,1,5.4.12A1.67,1.67,0,0,1,60.82,96.83Z"/><path class="cls-11" d="M74,100.48a2.64,2.64,0,0,1-1-.26l-4-1.56a.88.88,0,0,1,.62,0c1.36.43,2.69,1,4,1.52C73.77,100.24,73.86,100.38,74,100.48Z"/><path class="cls-12" d="M50.59,78.57a2.41,2.41,0,0,0-.15-.8,2.5,2.5,0,0,1,0-1.6,1.27,1.27,0,0,0-.51-1.73,1.22,1.22,0,0,1-.23-.27c1,.36,1.33,1,1,1.91a2.18,2.18,0,0,0,0,1.49C50.8,77.89,51,78.27,50.59,78.57Z"/><path class="cls-13" d="M42.68,11.13a3.38,3.38,0,0,0,1.38,2.78c.36.26.32.53.06.83-.1.11-.22.2-.32.3a1.29,1.29,0,0,0-.44-1.49A2.1,2.1,0,0,1,42.68,11.13Z"/><path class="cls-14" d="M43.71,92.09A2.74,2.74,0,0,1,42,88.68a4.22,4.22,0,0,0,.78,2.54C43.07,91.56,43.46,91.74,43.71,92.09Z"/><path class="cls-10" d="M62.36,97.08a2.23,2.23,0,0,1-1.54-.25A2.17,2.17,0,0,1,62.36,97.08Z"/><path class="cls-2" d="M63.14,32.06a1.31,1.31,0,0,1,1.94.91A1.56,1.56,0,0,1,65,34a1.27,1.27,0,0,0,.31,1.49,5.17,5.17,0,0,0,1.15.88,1.49,1.49,0,0,1,.76,2.06.79.79,0,0,0,.54,1.13c.2.07.41.1.61.19a1.17,1.17,0,0,1,.75,1.74c-.45,1.3-.45,1.3.57,2.22a5.21,5.21,0,0,1,.7.71c.28.39.09.74-.38.72-1.43-.06-2.94-1.46-2.91-2.54a1.33,1.33,0,0,0-.7-1.33,2.93,2.93,0,0,1-1.5-2.45.87.87,0,0,0-.47-.73,5.73,5.73,0,0,1-2.09-3.21,2.37,2.37,0,0,1,.47-2.47A2.6,2.6,0,0,1,63.14,32.06Z"/><path class="cls-2" d="M82.71,52.91a3.74,3.74,0,0,1-.16-.56,1.06,1.06,0,0,0-.59-.84,3,3,0,0,1-1.65-2.16c-.06-.41-.4-.57-.71-.77a3.36,3.36,0,0,1-1.27-4,1.77,1.77,0,0,1,1.5-1,1.09,1.09,0,0,1,1.08.81,1.89,1.89,0,0,1,0,1.15c-.29.82-.26.86.6,1.11,1.15.35,1.4.74,1.24,1.92-.09.63,0,.74.6.83a5.55,5.55,0,0,1,.71.13,1.12,1.12,0,0,1,.8,1.62c-.49,1.41-.49,1.41.87,2.12l.65.33a.58.58,0,0,1,.35.67.67.67,0,0,1-.61.58.82.82,0,0,1-.27,0A4.46,4.46,0,0,1,82.71,52.91Z"/><path class="cls-2" d="M82.24,68.77A1.73,1.73,0,0,1,82,67.35c.15-.5,0-.77-.5-1a4.53,4.53,0,0,1-1.32-1,2.86,2.86,0,0,1-.95-1.9,1.05,1.05,0,0,0-.64-1A4.05,4.05,0,0,1,76.72,60a2.25,2.25,0,0,1,.1-1.51,1.1,1.1,0,0,1,.62-.63,1,1,0,0,1,1.47.94c-.07,1.53-.07,1.53,1.39,2.17.78.35,1.19.85,1,1.6-.2,1,.44,1.55,1.1,2.07.19.15.42.25.62.38a1.4,1.4,0,0,1,.74,1.76c0,.17-.14.34-.17.51a1.34,1.34,0,0,0,.45,1.54c.42.3.79.65,1.18,1a.62.62,0,0,1,.26.72.66.66,0,0,1-.67.36,1.68,1.68,0,0,1-.87-.22A4.66,4.66,0,0,1,82.24,68.77Z"/><path class="cls-15" d="M73.55,103.73a2.81,2.81,0,0,1-1.56-.64A2.22,2.22,0,0,1,73.55,103.73Z"/></svg>