<svg id="घर" xmlns="http://www.w3.org/2000/svg" viewBox="0 0 150 160"><defs><style>.cls-1{fill:#fff;}.cls-2{fill:#90c142;}.cls-3{fill:#68412e;}.cls-4{fill:#c45f1c;opacity:0.51;}.cls-5{fill:#994313;}.cls-20,.cls-6{fill:#3d1c05;}.cls-6{opacity:0.6;}.cls-7{fill:#f2ac7c;}.cls-21,.cls-8{fill:#742;}.cls-9{fill:#44240e;opacity:0.15;}.cls-10{fill:#06634d;}.cls-11{fill:#05382b;}.cls-12{fill:#fff9f3;}.cls-13,.cls-15{fill:#4c250b;}.cls-13{opacity:0.23;}.cls-14{fill:#c1b7ae;}.cls-15,.cls-23{opacity:0.4;}.cls-16{fill:#1c7c63;}.cls-17{fill:#2a5146;}.cls-18{fill:#542a0e;}.cls-19{fill:#381904;}.cls-19,.cls-21{opacity:0.35;}.cls-22{fill:#4c1207;}.cls-23{fill:#4c2d18;}.cls-24{fill:#e5c8b5;}.cls-25{fill:#b2998b;}.cls-26{fill:#60493e;opacity:0.32;}.cls-27{fill:#211106;}</style></defs><path class="cls-1" d="M119.39,128.1l-.06-8c2.94-3.47,4-12.43,4-19.49,0-2.16-.19-21-7-21s-7,18.88-7,21c0,1.79.14,16.3,4.63,20.1l.06,7.43h-2.75v-7.72h-2V63.78l3.55-3.06-18-20.94H93.48L80.85,31.87h0L74.7,28l-8,5.09V26.93H55.6v9.59h.88v3.17l-.15.09H55.17L34.9,61.65l4.26,3.95,1-1V72c-1.34-5.35-3.5-9.39-6.82-9.39-6.94,0-8.79,17.59-8.79,28,0,8.76,1.38,23.44,6.33,27.12l.08,10.35H27.78v5h97.7v-5Zm-79.26-7.72H37.64v7.72h-.92L36.64,117c1.47-1.63,2.63-4.43,3.49-7.87Z"/><path class="cls-2" d="M121.33,100.57c0,10.51-2.22,19-5,19s-5-8.52-5-19,2.23-19,5-19S121.33,90.05,121.33,100.57Z"/><polygon class="cls-3" points="117.25 112.37 116.8 102.4 120.29 97.51 118.05 100.03 116.78 101.89 116.36 92.49 115.97 102.15 115.67 101.86 112.72 96.87 115.47 101.99 115.47 102 115.49 102.02 115.95 102.52 116.06 108.02 112.72 104.51 115.92 108.75 115.95 111.66 116.1 130.42 117.41 130.44 117.28 113.18 119.51 108.85 117.25 112.37"/><ellipse class="cls-2" cx="33.31" cy="90.63" rx="6.79" ry="25.98"/><polygon class="cls-3" points="34.52 106.75 33.91 93.14 38.67 86.46 35.62 89.91 33.88 92.43 33.31 79.61 32.77 92.8 32.37 92.4 28.34 85.59 32.09 92.58 32.1 92.6 32.11 92.61 32.75 93.3 32.9 100.81 28.34 96.02 32.71 101.81 32.75 105.78 32.95 130.94 34.74 130.96 34.57 107.85 37.6 101.94 34.52 106.75"/><rect class="cls-4" x="58.48" y="29.9" width="5.43" height="10.88"/><rect class="cls-5" x="57.6" y="28.93" width="7.15" height="0.97"/><rect class="cls-5" x="57.6" y="33.64" width="7.15" height="0.88"/><rect class="cls-6" x="58.48" y="29.9" width="5.43" height="0.64"/><rect class="cls-6" x="58.48" y="34.52" width="5.43" height="0.64"/><polygon class="cls-7" points="107.28 58.83 107.28 129.04 42.13 129.04 42.13 58.5 56.44 42.69 93.67 42.69 107.28 58.83"/><rect class="cls-8" x="39.64" y="122.38" width="69.69" height="7.72"/><polygon class="cls-9" points="97.36 48.67 52.47 48.67 56.44 42.69 93.67 42.69 97.36 48.67"/><rect class="cls-10" x="47.98" y="73.57" width="9.44" height="19.29"/><rect class="cls-11" x="55.71" y="73.57" width="1.71" height="19.29"/><rect class="cls-12" x="52.24" y="73.81" width="0.46" height="19.05"/><path class="cls-12" d="M47.69,73.22v20h10v-20Zm9.44,19.29H48.28V73.92h8.85Z"/><polygon class="cls-13" points="59.29 92.71 59.29 93.21 58.82 93.21 58.82 73.22 57.72 73.22 57.72 93.21 57.72 93.63 57.72 94.06 58.82 94.06 58.82 93.63 59.75 93.63 59.75 93.58 59.75 93.21 59.75 92.71 59.29 92.71"/><rect class="cls-14" x="46.95" y="92.71" width="11.63" height="1.35"/><rect class="cls-13" x="46.95" y="93.21" width="11.63" height="0.42"/><rect class="cls-12" x="46.15" y="92.71" width="13.14" height="0.5"/><rect class="cls-10" x="70.87" y="73.57" width="9.44" height="19.29"/><rect class="cls-11" x="78.6" y="73.57" width="1.71" height="19.29"/><rect class="cls-12" x="75.13" y="73.81" width="0.46" height="19.05"/><path class="cls-12" d="M70.58,73.22v20h10v-20ZM80,92.51H71.17V73.92H80Z"/><polygon class="cls-13" points="82.18 92.71 82.18 93.21 81.71 93.21 81.71 73.22 80.61 73.22 80.61 93.21 80.61 93.63 80.61 94.06 81.71 94.06 81.71 93.63 82.64 93.63 82.64 93.58 82.64 93.21 82.64 92.71 82.18 92.71"/><rect class="cls-14" x="69.84" y="92.71" width="11.63" height="1.35"/><rect class="cls-13" x="69.84" y="93.21" width="11.63" height="0.42"/><rect class="cls-12" x="69.04" y="92.71" width="13.14" height="0.5"/><rect class="cls-10" x="78.46" y="98.54" width="9.44" height="19.28"/><rect class="cls-11" x="86.18" y="98.54" width="1.71" height="19.28"/><rect class="cls-12" x="82.72" y="98.78" width="0.46" height="19.05"/><path class="cls-12" d="M78.16,98.19v20h10v-20Zm9.44,19.29H78.76V98.89H87.6Z"/><polygon class="cls-13" points="89.77 117.68 89.77 118.18 89.29 118.18 89.29 98.19 88.2 98.19 88.2 118.18 88.2 118.6 88.2 119.03 89.29 119.03 89.29 118.6 90.23 118.6 90.23 118.55 90.23 118.18 90.23 117.68 89.77 117.68"/><rect class="cls-14" x="77.42" y="117.68" width="11.63" height="1.35"/><rect class="cls-13" x="77.42" y="118.18" width="11.63" height="0.42"/><rect class="cls-12" x="76.63" y="117.68" width="13.14" height="0.5"/><rect class="cls-10" x="93.54" y="98.54" width="9.44" height="19.28"/><rect class="cls-11" x="101.27" y="98.54" width="1.71" height="19.28"/><rect class="cls-12" x="97.8" y="98.78" width="0.46" height="19.05"/><path class="cls-12" d="M93.25,98.19v20h10v-20Zm9.44,19.29H93.84V98.89h8.85Z"/><polygon class="cls-13" points="104.85 117.68 104.85 118.18 104.38 118.18 104.38 98.19 103.28 98.19 103.28 118.18 103.28 118.6 103.28 119.03 104.38 119.03 104.38 118.6 105.31 118.6 105.31 118.55 105.31 118.18 105.31 117.68 104.85 117.68"/><rect class="cls-14" x="92.51" y="117.68" width="11.63" height="1.35"/><rect class="cls-13" x="92.51" y="118.18" width="11.63" height="0.42"/><rect class="cls-12" x="91.71" y="117.68" width="13.14" height="0.5"/><rect class="cls-10" x="93.07" y="73.57" width="9.44" height="19.29"/><rect class="cls-11" x="100.79" y="73.57" width="1.71" height="19.29"/><rect class="cls-12" x="97.33" y="73.81" width="0.46" height="19.05"/><path class="cls-12" d="M92.77,73.22v20h10v-20Zm9.44,19.29H93.36V73.92h8.85Z"/><polygon class="cls-13" points="104.37 92.71 104.37 93.21 103.9 93.21 103.9 73.22 102.8 73.22 102.8 93.21 102.8 93.63 102.8 94.06 103.9 94.06 103.9 93.63 104.83 93.63 104.83 93.58 104.83 93.21 104.83 92.71 104.37 92.71"/><rect class="cls-14" x="92.03" y="92.71" width="11.63" height="1.35"/><rect class="cls-13" x="92.03" y="93.21" width="11.63" height="0.42"/><rect class="cls-12" x="91.23" y="92.71" width="13.14" height="0.5"/><path class="cls-15" d="M65.29,52.74a4.47,4.47,0,0,0-4.71,4.17V67.8H70V56.91A4.47,4.47,0,0,0,65.29,52.74Z"/><path class="cls-16" d="M60.81,67.57V56.91a3.95,3.95,0,1,1,7.9,0V67.57Z"/><path class="cls-16" d="M60.81,67.57V56.91a3.95,3.95,0,1,1,7.9,0V67.57Z"/><path class="cls-17" d="M65.27,53a4.38,4.38,0,0,0-.51,0,4,4,0,0,0-4,3.95V67.57h1V56.91A4,4,0,0,1,65.27,53Z"/><polygon class="cls-17" points="68.51 58.02 64.76 58.02 64.76 53.19 64.41 53.19 64.41 58.02 60.84 58.02 60.84 58.3 64.41 58.3 64.41 67.57 64.76 67.57 64.76 58.3 68.51 58.3 68.51 58.02"/><path class="cls-12" d="M64.76,52.74a4.18,4.18,0,0,0-4.18,4.17V67.8h8.35V56.91A4.17,4.17,0,0,0,64.76,52.74Zm3.72,14.6H61V56.91a3.73,3.73,0,0,1,7.45,0Z"/><path class="cls-15" d="M84,52.74a4.47,4.47,0,0,0-4.71,4.17V67.8h9.42V56.91A4.47,4.47,0,0,0,84,52.74Z"/><path class="cls-16" d="M79.56,67.57V56.91a3.95,3.95,0,1,1,7.9,0V67.57Z"/><path class="cls-16" d="M79.56,67.57V56.91a3.95,3.95,0,1,1,7.9,0V67.57Z"/><path class="cls-17" d="M84,53a4.38,4.38,0,0,0-.51,0,4,4,0,0,0-4,3.95V67.57h1V56.91A4,4,0,0,1,84,53Z"/><polygon class="cls-17" points="87.26 58.02 83.51 58.02 83.51 53.19 83.16 53.19 83.16 58.02 79.6 58.02 79.6 58.3 83.16 58.3 83.16 67.57 83.51 67.57 83.51 58.3 87.26 58.3 87.26 58.02"/><path class="cls-12" d="M83.51,52.74a4.18,4.18,0,0,0-4.18,4.17V67.8h8.35V56.91A4.17,4.17,0,0,0,83.51,52.74Zm3.72,14.6H79.79V56.91a3.72,3.72,0,0,1,7.44,0Z"/><polygon class="cls-18" points="93.27 42.01 56.57 42.01 58.25 40.93 59.5 40.13 59.66 40.03 60.91 39.22 61.08 39.12 62.33 38.31 62.49 38.21 63.74 37.41 63.91 37.3 65.16 36.5 65.32 36.4 66.57 35.6 66.73 35.49 67.98 34.69 68.15 34.58 69.4 33.78 69.56 33.68 70.81 32.88 70.98 32.77 72.23 31.97 72.39 31.87 73.64 31.06 73.81 30.96 74.71 30.38 75.05 30.59 75.22 30.7 76.47 31.48 76.63 31.58 77.88 32.37 78.05 32.47 79.3 33.25 79.46 33.36 80.71 34.14 80.88 34.24 82.12 35.03 82.29 35.13 83.54 35.91 83.7 36.01 84.95 36.8 85.12 36.9 86.36 37.68 86.53 37.79 87.78 38.57 87.94 38.67 89.19 39.46 89.36 39.56 90.61 40.34 90.77 40.44 92.02 41.23 93.27 42.01"/><polygon class="cls-19" points="59.5 40.13 59.5 42.01 58.25 42.01 58.25 40.93 59.5 40.13"/><polygon class="cls-19" points="60.91 39.22 60.91 42.01 59.66 42.01 59.66 40.03 60.91 39.22"/><polygon class="cls-19" points="62.33 38.31 62.33 42.01 61.08 42.01 61.08 39.12 62.33 38.31"/><polygon class="cls-19" points="63.74 37.41 63.74 42.01 62.49 42.01 62.49 38.21 63.74 37.41"/><polygon class="cls-19" points="65.16 36.5 65.16 42.01 63.91 42.01 63.91 37.3 65.16 36.5"/><polygon class="cls-19" points="66.57 35.6 66.57 42.01 65.32 42.01 65.32 36.4 66.57 35.6"/><polygon class="cls-19" points="67.98 34.69 67.98 42.01 66.73 42.01 66.73 35.49 67.98 34.69"/><polygon class="cls-19" points="69.4 33.78 69.4 42.01 68.15 42.01 68.15 34.58 69.4 33.78"/><polygon class="cls-19" points="70.81 32.88 70.81 42.01 69.56 42.01 69.56 33.68 70.81 32.88"/><polygon class="cls-19" points="72.23 31.97 72.23 42.01 70.98 42.01 70.98 32.77 72.23 31.97"/><polygon class="cls-19" points="73.64 31.06 73.64 42.01 72.39 42.01 72.39 31.87 73.64 31.06"/><polygon class="cls-19" points="75.05 30.59 75.05 42.01 73.81 42.01 73.81 30.96 74.71 30.38 75.05 30.59"/><polygon class="cls-19" points="76.47 31.48 76.47 42.01 75.22 42.01 75.22 30.7 76.47 31.48"/><polygon class="cls-19" points="77.88 32.37 77.88 42.01 76.63 42.01 76.63 31.58 77.88 32.37"/><polygon class="cls-19" points="79.3 33.25 79.3 42.01 78.05 42.01 78.05 32.47 79.3 33.25"/><polygon class="cls-19" points="80.71 34.14 80.71 42.01 79.46 42.01 79.46 33.36 80.71 34.14"/><polygon class="cls-19" points="82.12 35.03 82.12 42.01 80.88 42.01 80.88 34.24 82.12 35.03"/><polygon class="cls-19" points="83.54 35.91 83.54 42.01 82.29 42.01 82.29 35.13 83.54 35.91"/><polygon class="cls-19" points="84.95 36.8 84.95 42.01 83.7 42.01 83.7 36.01 84.95 36.8"/><polygon class="cls-19" points="86.36 37.68 86.36 42.01 85.12 42.01 85.12 36.9 86.36 37.68"/><polygon class="cls-19" points="87.78 38.57 87.78 42.01 86.53 42.01 86.53 37.79 87.78 38.57"/><polygon class="cls-19" points="89.19 39.46 89.19 42.01 87.94 42.01 87.94 38.67 89.19 39.46"/><polygon class="cls-19" points="90.61 40.34 90.61 42.01 89.36 42.01 89.36 39.56 90.61 40.34"/><polygon class="cls-19" points="92.02 41.23 92.02 42.01 90.77 42.01 90.77 40.44 92.02 41.23"/><polygon class="cls-20" points="74.71 30.38 56.57 42.01 60.68 42.01 76.79 31.68 74.71 30.38"/><rect class="cls-21" x="55.81" y="98.09" width="16.06" height="26.5"/><rect class="cls-22" x="57.12" y="99.45" width="13.45" height="25.14"/><polygon class="cls-23" points="70.57 99.45 57.12 99.45 57.12 101.89 57.12 124.59 58.93 124.59 58.93 101.89 70.57 101.89 70.57 99.45"/><rect class="cls-24" x="55.6" y="124.42" width="16.57" height="0.42"/><rect class="cls-25" x="56.17" y="124.84" width="15.36" height="1.4"/><rect class="cls-26" x="56.17" y="124.84" width="15.36" height="0.45"/><rect class="cls-24" x="54.58" y="126.24" width="18.62" height="0.42"/><rect class="cls-25" x="55.22" y="126.66" width="17.25" height="1.4"/><rect class="cls-26" x="55.22" y="126.66" width="17.25" height="0.45"/><rect class="cls-24" x="53.26" y="128.06" width="20.66" height="0.47"/><rect class="cls-25" x="53.96" y="128.52" width="19.15" height="1.58"/><rect class="cls-26" x="53.96" y="128.52" width="19.15" height="0.51"/><rect class="cls-10" x="58.44" y="100.59" width="10.29" height="14.72"/><path class="cls-12" d="M58.21,100.36v15.17H69V100.36Zm10.29,5.11H63.84v-4.65H68.5Zm-4.66.48H68.5v4H63.84Zm-.54-5.13v4.65H58.67v-4.65Zm0,9.08H58.67v-4H63.3Zm-4.63.48H63.3v4.7H58.67Zm5.17,4.7v-4.7H68.5v4.7Z"/><polygon class="cls-27" points="39.06 62.78 37.73 61.54 56.04 41.78 93.91 41.78 110.02 60.51 108.64 61.69 93.08 43.6 56.83 43.6 39.06 62.78"/><rect class="cls-27" x="29.78" y="130.1" width="93.7" height="0.97"/></svg>