<svg xmlns="http://www.w3.org/2000/svg" viewBox="0 0 150 160"><defs><style>.cls-1{isolation:isolate;}.cls-2,.cls-5{fill:#ecf0f1;}.cls-2{stroke:#fff;stroke-miterlimit:10;stroke-width:5px;}.cls-3{fill:#81b7db;}.cls-4{fill:#3498db;}.cls-6{mix-blend-mode:multiply;}.cls-7{fill:#f1c40f;}.cls-8{fill:#f39c12;}.cls-9{fill:#34495e;}.cls-10{fill:#bdc3c7;}.cls-11{opacity:0.3;mix-blend-mode:overlay;}</style></defs><g class="cls-1"><g id="рдирдордХ"><path class="cls-2" d="M110.36,121.09l-5.72-69h.15a2.74,2.74,0,0,0,2.74-2.74h0a2.74,2.74,0,0,0-2.61-2.73c0-.4,0-.79,0-1.18,0-.15,0-.3,0-.45a29,29,0,0,0-.62-4.09l0-.1A30,30,0,0,0,80,18a1.35,1.35,0,0,0-.5-.1h0a29.63,29.63,0,0,0-8.82,0h0a1.35,1.35,0,0,0-.5.1,30,30,0,0,0-23.36,19.8.88.88,0,0,1,0,.15c-.18.54-.35,1.09-.5,1.64l-.05.17c-.16.61-.31,1.22-.43,1.83v0c-.11.57-.2,1.14-.28,1.72,0,.16,0,.33-.07.49,0,.45-.1.9-.13,1.35,0,.17,0,.34,0,.52s0,.65,0,1a2.74,2.74,0,0,0-2.61,2.73h0a2.74,2.74,0,0,0,2.74,2.74h.15l-5.72,69A19.73,19.73,0,0,0,59.3,142.45H90.7A19.73,19.73,0,0,0,110.36,121.09Z"/><path class="cls-3" d="M104.64,52.12H45.36l-5.72,69A19.73,19.73,0,0,0,59.3,142.45H90.7a19.73,19.73,0,0,0,19.66-21.36Z"/><path class="cls-4" d="M59.3,138.06A15.34,15.34,0,0,1,44,121.45L49.4,52.12h51.2L106,121.45A15.34,15.34,0,0,1,90.7,138.06Z"/><path class="cls-5" d="M103.85,93.86,69.08,84.27,46.15,93.86,44,121.45A15.34,15.34,0,0,0,59.3,138.06H90.7A15.34,15.34,0,0,0,106,121.45Z"/><g class="cls-6"><path class="cls-5" d="M76.51,126.66a12.16,12.16,0,0,1-10.1-4.74A13.58,13.58,0,0,1,63,113.14V92.08a13,13,0,0,1,1.38-5.84L46.15,93.86,44,121.45A15.34,15.34,0,0,0,59.3,138.06H90.7a15.34,15.34,0,0,0,14.83-11.4Z"/></g><path class="cls-7" d="M45.06,47.5a29.94,29.94,0,1,1,59.88,0Z"/><path class="cls-8" d="M71.9,38.77c-10.11,0-14.25-9.22-12.47-16.82A29.9,29.9,0,0,0,45.06,47.5h59.88a29.94,29.94,0,0,0-1.3-8.73Z"/><rect class="cls-8" x="42.47" y="46.63" width="65.06" height="5.49" rx="2.74"/><rect class="cls-7" x="60.5" y="46.63" width="40.32" height="3.58" rx="1.79"/><path class="cls-9" d="M76.46,19.33A1.46,1.46,0,1,1,75,17.87,1.46,1.46,0,0,1,76.46,19.33Z"/><path class="cls-9" d="M72,19.33a1.46,1.46,0,1,1-1.46-1.46A1.46,1.46,0,0,1,72,19.33Z"/><path class="cls-9" d="M78.69,22.64a1.46,1.46,0,1,1-1.46-1.46A1.46,1.46,0,0,1,78.69,22.64Z"/><path class="cls-9" d="M74.23,22.64a1.46,1.46,0,1,1-1.46-1.46A1.46,1.46,0,0,1,74.23,22.64Z"/><path class="cls-9" d="M78,19.33a1.46,1.46,0,1,0,1.46-1.46A1.46,1.46,0,0,0,78,19.33Z"/><path class="cls-10" d="M62.47,99a1.76,1.76,0,1,1-1.75-1.76A1.75,1.75,0,0,1,62.47,99Z"/><circle class="cls-10" cx="72.22" cy="91.3" r="2.34"/><path class="cls-10" d="M75,100.43A1.4,1.4,0,1,1,73.62,99,1.4,1.4,0,0,1,75,100.43Z"/><circle class="cls-10" cx="65.3" cy="118.5" r="2.83"/><path class="cls-10" d="M75.93,113a1.86,1.86,0,1,1-1.86-1.85A1.85,1.85,0,0,1,75.93,113Z"/><path class="cls-10" d="M69.88,109.63a3.71,3.71,0,1,1-3.7-3.71A3.7,3.7,0,0,1,69.88,109.63Z"/><circle class="cls-10" cx="89.88" cy="114.2" r="3.03"/><circle class="cls-10" cx="84.41" cy="126.1" r="1.46"/><circle class="cls-10" cx="79.14" cy="120.45" r="0.88"/><circle class="cls-10" cx="69.9" cy="132.26" r="3.72"/><path class="cls-10" d="M95.62,124.64a1.76,1.76,0,1,1-1.75-1.75A1.76,1.76,0,0,1,95.62,124.64Z"/><circle class="cls-10" cx="87.33" cy="105.53" r="2.92"/><circle class="cls-10" cx="81.8" cy="96.23" r="1.14"/><circle class="cls-10" cx="97.67" cy="104.66" r="2.83"/><path class="cls-10" d="M61.11,127.47A1.08,1.08,0,1,1,60,126.4,1.07,1.07,0,0,1,61.11,127.47Z"/><g class="cls-11"><path class="cls-5" d="M86.41,117.23h0a15.34,15.34,0,0,1-16.32-14.3l-2-29.9a15.34,15.34,0,0,1,14.3-16.32h0A15.34,15.34,0,0,1,98.73,71l2,29.9A15.35,15.35,0,0,1,86.41,117.23Z"/></g></g></g></svg>