<svg id="मकान" xmlns="http://www.w3.org/2000/svg" viewBox="0 0 150 160"><defs><style>.cls-1,.cls-16{fill:#fff;}.cls-1{stroke:#fff;stroke-miterlimit:10;stroke-width:5px;}.cls-2{fill:#2aad94;}.cls-3{fill:#72c6dd;}.cls-4{fill:#2f3f60;}.cls-5{fill:#32ceb0;}.cls-6{fill:#381306;opacity:0.43;}.cls-7{fill:#43c4ab;}.cls-8{fill:#125b4d;}.cls-9{fill:#3f2112;opacity:0.45;}.cls-10{fill:#7cedd8;}.cls-11{fill:#5e0d07;opacity:0.26;}.cls-12{fill:#1ca086;}.cls-13{fill:#b2a9a6;}.cls-14{fill:#fff1f0;}.cls-15{fill:#5abce2;}.cls-17,.cls-18{fill:#3a1a08;}.cls-17{opacity:0.42;}.cls-19{fill:#dcfff8;}.cls-20{fill:#4c1f0d;}.cls-21{fill:#504168;}.cls-22{fill:#465989;}.cls-23{fill:#ffefee;}.cls-24{fill:#3d2d2d;}.cls-25{fill:#725c49;}.cls-26{fill:#2b1b1b;opacity:0.55;}.cls-27{fill:#0c6655;}.cls-28{fill:#93aa31;}.cls-29{fill:#351007;}</style></defs><path class="cls-1" d="M133.94,113.27v-6.21c3.13-.46,5.59-5.21,5.59-11,0-6.11-2.54-16.35-5.9-16.35s-6.28,10.24-6.28,16.35c0,5.8,2.47,10.56,5.6,11v6.21H118V92.17h1.75L118,90.48V73.22h3.16v-1H122V72a.52.52,0,0,0-.52-.52h-.32L102.08,53.74h-45l-9.23-8.41L19.22,71.46v2.45h0L22,73.55v.36h-.23v2.76H22V77h-.23v2.76H22V80h-.23v2.76H22v2.35l-2.8,5.42-.52,1h-.19v1H20.7v20.76h-.08a2.17,2.17,0,0,0,.08-.51,2.78,2.78,0,0,0-2.61-2.58,3.54,3.54,0,0,0-3.53-2.7A3.55,3.55,0,0,0,11,110.15H10.9a2.56,2.56,0,0,0-2.64,2.47,2.08,2.08,0,0,0,.11.66H6v1.4H144v-1.4Z"/><rect class="cls-2" x="68.77" y="70.54" width="49.22" height="42.54"/><polygon class="cls-3" points="121.99 72.21 52.87 72.21 52.87 53.74 102.08 53.74 121.99 72.21"/><path class="cls-4" d="M121.47,71.43H51.57v.78h4.55v1h65v-1H122V72A.52.52,0,0,0,121.47,71.43Z"/><polygon class="cls-5" points="118 91.88 118 113.27 74.07 113.27 74.07 91.88 74.08 91.88 96.28 71.16 118 91.88"/><polygon class="cls-6" points="118 91.51 118 92.17 116.87 92.17 99.3 76.81 83.4 91.55 74.72 90.46 96.32 70.48 118 91.51"/><polygon class="cls-4" points="119.75 92.17 117.41 92.17 117.41 91.76 96.3 71.28 73.41 92.51 72.24 91.07 96.33 69.68 119.75 92.17"/><polygon class="cls-7" points="74.07 113.08 22.04 113.08 22.04 73.19 47.77 49.53 74.06 73.23 74.07 113.08"/><polygon class="cls-8" points="73.75 71.11 73.82 113.09 21.88 113.18 74.07 113.27 74.07 71.4 73.75 71.11"/><polygon class="cls-9" points="27.1 76.9 22.04 76.9 22.04 74.13 26.71 73.91 27.1 74.13 27.1 76.9"/><rect class="cls-10" x="21.81" y="73.91" width="4.91" height="2.76"/><polygon class="cls-9" points="27.1 79.96 22.04 79.96 22.04 77.19 26.71 76.97 27.1 77.19 27.1 79.96"/><rect class="cls-10" x="21.81" y="76.97" width="4.91" height="2.76"/><polygon class="cls-9" points="27.1 83.25 22.04 83.25 22.04 80.48 26.72 80.03 27.1 80.48 27.1 83.25"/><rect class="cls-10" x="21.81" y="80.03" width="4.91" height="2.76"/><polygon class="cls-9" points="69.16 77.15 74.06 77.15 74.06 74.39 69.53 74.16 69.16 74.39 69.16 77.15"/><rect class="cls-10" x="69.53" y="74.16" width="4.91" height="2.76" transform="translate(143.97 151.08) rotate(180)"/><polygon class="cls-9" points="69.16 80.21 74.06 80.21 74.06 77.45 69.53 77.22 69.16 77.45 69.16 80.21"/><rect class="cls-10" x="69.53" y="77.22" width="4.91" height="2.76" transform="translate(143.97 157.21) rotate(180)"/><polygon class="cls-9" points="69.16 83.28 74.06 83.28 74.06 80.51 69.53 80.28 69.16 80.51 69.16 83.28"/><rect class="cls-10" x="69.53" y="80.28" width="4.91" height="2.76" transform="translate(143.97 163.33) rotate(180)"/><polygon class="cls-3" points="75.85 91.55 18.72 91.55 19.24 90.56 22.04 85.14 74.07 85.14 75.58 90.56 75.85 91.55"/><polygon class="cls-11" points="75.85 91.55 18.72 91.55 19.24 90.56 75.58 90.56 75.85 91.55"/><polygon class="cls-3" points="47.54 84.18 36.52 91.51 57.86 91.51 47.54 84.18"/><polygon class="cls-4" points="36.07 92.52 35.42 91.54 47.55 83.47 58.93 91.55 58.25 92.51 47.53 84.89 36.07 92.52"/><rect class="cls-4" x="18.53" y="91.55" width="57.32" height="0.95"/><polygon class="cls-4" points="19.22 71.45 19.22 73.91 22.04 73.45 47.77 49.53 74.01 73.14 76.81 73.91 76.81 71.69 47.88 45.33 19.22 71.45"/><polygon class="cls-12" points="47.88 47.41 19.22 73.91 22.04 73.55 47.77 49.53 74.06 73.23 76.81 73.91 47.88 47.41"/><rect class="cls-13" x="40.32" y="62.59" width="14.18" height="19.25"/><rect class="cls-14" x="25.54" y="93.95" width="7.54" height="14.41"/><rect class="cls-15" x="26.53" y="94.83" width="5.36" height="12.78"/><path class="cls-16" d="M29.45,94.76h-3v12.91h5.49V94.76Zm-.15,12.78H26.6V102.7h2.7Zm0-5H26.6V100.2h2.7Zm0-2.5H26.6V97.52h2.7Zm0-2.68H26.6v-2.5h2.7Zm2.51,10.15H29.45V102.7h2.36Zm0-5H29.45V100.2h2.36Zm0-2.5H29.45V97.52h2.36Zm0-2.68H29.45v-2.5h2.36Z"/><rect class="cls-14" x="64.54" y="93.95" width="7.54" height="14.41"/><rect class="cls-15" x="65.53" y="94.83" width="5.36" height="12.78"/><path class="cls-16" d="M68.44,94.76h-3v12.91h5.49V94.76Zm-.15,12.78H65.6V102.7h2.69Zm0-5H65.6V100.2h2.69Zm0-2.5H65.6V97.52h2.69Zm0-2.68H65.6v-2.5h2.69Zm2.52,10.15H68.44V102.7h2.37Zm0-5H68.44V100.2h2.37Zm0-2.5H68.44V97.52h2.37Zm0-2.68H68.44v-2.5h2.37Z"/><rect class="cls-15" x="40.32" y="62.59" width="14.18" height="19.25"/><polygon class="cls-4" points="42.27 64 54.5 64 54.5 62.59 40.32 62.59 40.32 81.84 42.27 81.84 42.27 64"/><path class="cls-14" d="M56.12,63.43v-1.3H38.82v1.3h1V81h-1V82.3h17.3V81H55V63.43ZM54,78.2H47.15v-4H54Zm-6.89-4.55V69H54v4.62ZM54,68.51H47.15V63H54ZM40.77,63h5.86v5.47H40.77V63Zm0,6h5.86v4.62H40.77Zm0,5.14h5.86v4H40.77Zm0,6.82V78.72h5.86v2.67H40.77Zm6.38.4V78.72H54v2.67Z"/><polygon class="cls-17" points="35.29 101.18 22.04 93.3 22.04 92.51 74.07 92.51 74.07 101.18 35.29 101.18"/><rect class="cls-18" x="21.81" y="104.67" width="18.83" height="8.41"/><rect class="cls-18" x="55.24" y="104.67" width="18.82" height="8.41"/><rect class="cls-19" x="22.19" y="105.26" width="1.5" height="6.35"/><rect class="cls-19" x="24.42" y="105.26" width="1.5" height="6.35"/><rect class="cls-19" x="26.66" y="105.26" width="1.5" height="6.35"/><rect class="cls-19" x="28.89" y="105.26" width="1.5" height="6.35"/><rect class="cls-19" x="31.13" y="105.26" width="1.5" height="6.35"/><rect class="cls-19" x="33.36" y="105.26" width="1.5" height="6.35"/><rect class="cls-19" x="35.6" y="105.26" width="1.5" height="6.35"/><rect class="cls-19" x="37.84" y="105.26" width="1.5" height="6.35"/><rect class="cls-19" x="58.34" y="105.26" width="1.34" height="6.99"/><rect class="cls-19" x="60.34" y="105.26" width="1.34" height="6.99"/><rect class="cls-19" x="62.33" y="105.26" width="1.34" height="6.99"/><rect class="cls-19" x="64.33" y="105.26" width="1.34" height="6.99"/><rect class="cls-19" x="66.32" y="105.26" width="1.34" height="6.99"/><rect class="cls-19" x="68.31" y="105.26" width="1.34" height="6.99"/><rect class="cls-19" x="70.31" y="105.26" width="1.34" height="6.99"/><rect class="cls-19" x="72.3" y="105.26" width="1.34" height="6.99"/><rect class="cls-14" x="43.63" y="96.44" width="7.54" height="14.41"/><rect class="cls-20" x="44.62" y="97.32" width="5.36" height="13.7"/><rect class="cls-21" x="43.26" y="110.85" width="8.22" height="0.87"/><rect class="cls-21" x="41.4" y="111.61" width="11.79" height="0.93"/><rect class="cls-21" x="40.64" y="112.42" width="14.6" height="1.05"/><rect class="cls-22" x="89.93" y="85.8" width="17.42" height="5.04"/><polygon class="cls-4" points="91.33 87.21 107.35 87.21 107.35 85.8 89.93 85.8 89.93 90.84 91.33 90.84 91.33 87.21"/><path class="cls-23" d="M89.74,85.61V91h17.81V85.61Zm5.78,5H90.13V86h5.39Zm6.3,0H95.93V86h5.89Zm5.34,0h-4.92V86h4.92Z"/><rect class="cls-23" x="83.37" y="93.65" width="25.5" height="19.62"/><rect class="cls-24" x="84.29" y="95.31" width="23.67" height="17.96"/><rect class="cls-25" x="84.29" y="95.73" width="23.67" height="0.95"/><rect class="cls-25" x="84.29" y="97.1" width="23.67" height="0.95"/><rect class="cls-25" x="84.29" y="98.48" width="23.67" height="0.96"/><rect class="cls-25" x="84.29" y="99.86" width="23.67" height="0.95"/><rect class="cls-25" x="84.29" y="101.23" width="23.67" height="0.95"/><rect class="cls-25" x="84.29" y="102.61" width="23.67" height="0.95"/><rect class="cls-25" x="84.29" y="103.99" width="23.67" height="0.95"/><rect class="cls-25" x="84.29" y="105.36" width="23.67" height="0.95"/><rect class="cls-25" x="84.29" y="106.74" width="23.67" height="0.95"/><rect class="cls-25" x="84.29" y="108.11" width="23.67" height="0.95"/><rect class="cls-25" x="84.29" y="109.49" width="23.67" height="0.95"/><rect class="cls-25" x="84.29" y="110.87" width="23.67" height="0.95"/><rect class="cls-25" x="84.29" y="112.24" width="23.67" height="0.95"/><polygon class="cls-26" points="86.41 97.1 107.96 97.1 107.96 95.31 84.28 95.31 84.28 113.27 86.41 113.27 86.41 97.1"/><rect class="cls-19" x="21.81" y="111.41" width="18.83" height="1.86"/><rect class="cls-19" x="21.05" y="104.67" width="19.27" height="1.05"/><rect class="cls-19" x="55.85" y="104.67" width="18.22" height="1.05"/><rect class="cls-19" x="55.24" y="112.01" width="18.83" height="1.26"/><rect class="cls-27" x="20.7" y="92.51" width="1.49" height="20.76"/><rect class="cls-19" x="38" y="92.52" width="2.64" height="20.49"/><rect class="cls-19" x="55.24" y="92.52" width="2.64" height="20.75"/><path class="cls-28" d="M139.53,96.05c0,6.1-2.72,11.06-6.09,11.06s-6.09-5-6.09-11.06,2.92-16.35,6.28-16.35S139.53,89.94,139.53,96.05Z"/><path class="cls-29" d="M137.5,96.42a.36.36,0,0,0-.46,0l-3.1,2.82V94.1L136.21,91a.19.19,0,0,0-.06-.28.23.23,0,0,0-.3.06l-1.91,2.59V90.55a.5.5,0,0,0-1,0v6.27l-2.74-2.4a.35.35,0,0,0-.46,0,.28.28,0,0,0,0,.42L133,97.64v15.85a.5.5,0,0,0,1,0v-13.4l3.57-3.25A.28.28,0,0,0,137.5,96.42Z"/><path class="cls-28" d="M20.6,113.41a2.32,2.32,0,0,0,.1-.65,2.78,2.78,0,0,0-2.61-2.58,3.54,3.54,0,0,0-3.53-2.7A3.55,3.55,0,0,0,11,110.15H10.9a2.56,2.56,0,0,0-2.64,2.47,2.15,2.15,0,0,0,.15.8Z"/><rect class="cls-18" x="6.04" y="113.27" width="137.91" height="1.4"/></svg>