<svg id="पँख" xmlns="http://www.w3.org/2000/svg" viewBox="0 0 150 160"><defs><style>.cls-1{fill:#fff;stroke:#fff;stroke-miterlimit:10;stroke-width:5px;}.cls-2{fill:#242422;}.cls-3{fill:#30312f;}.cls-4{fill:#3b3d3b;}.cls-5{fill:#474948;}.cls-6{fill:#5e5f5f;}</style></defs><path class="cls-1" d="M130.29,99.92c2.48-34.53-1.1-46.18-25.79-63.88,4.74.24-2.42-5.21-6.17-2.48C95.63,35.82,67.86,65.45,84,54.82c-3.33,4-4.16,24.59,1.31,9.58.18,2.82,5.57,30.19,9.54,22.78.45,5,11,24.69,9.4,11a98.44,98.44,0,0,0,7.23,13.2c8.12,11.9,5.24,1.86,4.06-1.55-1.34-1.79,8.13,16.15,8.77,12.31.27-1.24-1.16-6.38-1.16-6.38-.65,3,10.16,17.18,14.8,16.85C138.27,131.32,131.94,116.63,130.29,99.92Z"/><path class="cls-1" d="M59.6,37.67c-4.79-8.92-16-2.05-10.4-1.63C24.74,53.36,20.83,65.79,23.41,99.92c-1.65,16.71-8,31.4-7.65,32.72,4.66.29,15.47-13.88,14.79-16.85-4.77,16.84,8.2-5.38,7.61-5.93-7.31,20.94,12.6-11.73,11.29-11.65-1.59,13.66,8.95-6.08,9.4-11,4,7.37,9.35-19.93,9.54-22.79,5.78,15.24,4.51-5.67,1.31-9.58C84.75,64.64,62.67,41.62,59.6,37.67Z"/><path class="cls-2" d="M92.91,80.4c0,.2,1.51,9.66,5,16.18s4.83,6.69,5.53,6.28.22-4.65.22-4.65a98.79,98.79,0,0,0,7.11,13.2c4.25,6.52,5.5,6.09,5.55,4.82s-1.56-6.37-1.56-6.37A40.81,40.81,0,0,0,119,118c3.08,4.7,4.12,5.42,4.39,4.19s-1.14-6.38-1.14-6.38,2.32,7.49,6.95,12.26,6.27,3.36,5.19.47-5.25-19.2-7.87-27.55S89.91,64.43,92.91,80.4Z"/><path class="cls-3" d="M87.27,69.59a30.44,30.44,0,0,0,.8,9.58c1.29,5.64,4.23,9.94,5.67,9.83s.12-9.12.12-9.12,2.66,8.62,4,8,.48-5.9.48-5.9,2.87,8.58,6.41,13.13,4.54,4.29,4.74,3.07-1.24-6.15-1.24-6.15S111.26,98.94,113,99s.75-4.4.75-4.4,4.91,12.2,7.72,12.26,2.38-7,2.38-7l2-18.27L106.23,63.75S89.39,48.64,87.27,69.59Z"/><path class="cls-4" d="M84.9,52.45a35.08,35.08,0,0,0-3.72,10.46c-1,5.78.24,8,1.24,7S85,64.4,85,64.4s1.2,11,3.26,10,3.66-11.63,3.66-11.63.82,8.88,3.26,8.86,2.35-8.4,2.35-8.4,3.95,15.46,6.33,14.68,2.73-11.33,2.73-11.33,1.12,11.34,2.54,11.09,1.69-3.87,1.69-3.87,1.7,8,4.41,11.38,1.58-3.71,1.48-5c0,0,2.69,8.75,4.51,8.36s2.88-5.77,2.88-5.77,2.77-11.12,1.36-16.68S99.73,38.75,99.73,38.75,87.76,46.14,84.9,52.45Z"/><path class="cls-5" d="M103,33.41a5.28,5.28,0,0,0-5.15.15,33.48,33.48,0,0,0-4.16,4.11c-3,3.26-11.49,14-13.67,16.29s-2.74,3.43-1.3,3.66,6.88-3.75,8.12-6.21c0,0-.29,3.83,1.34,3.19s1.77-5.77,1.77-5.77,2.84,5.72,5,5,1.41-6.62,1-8.29c0,0,4,6.77,5.47,5.53s1-5.08,1-5.08S110,64.26,112,63.69s.76-7.9.76-7.9,4.91,11,6,9.9.07-5.47.07-5.47,4.39,4.26,4.69,7.49-2.77,11.48-1.71,11.92,2-.77,2-.77S121.14,86.12,122,87s2-.78,2-.78-2.35,8.39-1.44,14.67,2.42,4.53,2.94,2.34A45.58,45.58,0,0,0,128.1,118c2.81,8.31,8.38,16,8.71,14.67s-5.91-16-7.54-32.72,2.58-29-.18-35.64S108.72,37.8,103.9,36c0,0,1.54.22,1.77-.45S103,33.41,103,33.41Z"/><path class="cls-6" d="M78.8,57s-.74-.57.63-1.93,11.4-13.3,13.71-16,5.29-7.17,8.86-5.64a6.08,6.08,0,0,0-4.49,1.92C95.31,37.51,85.68,54.48,78.8,57Z"/><path class="cls-6" d="M118.32,50.81s9.88,10.27,11,17.42-3.37,22,.24,39.83c0,0,2.74,13.57,6.13,21.36,0,0-6.84-14.73-8.6-28.68s3.7-30.56-.08-36.82C122.79,57,118.32,50.81,118.32,50.81Z"/><path class="cls-6" d="M83,57.33S80.26,66,81.38,68.75c0,0,.28.79.88.61,0,0-.57-.69-.48-3.13A77.81,77.81,0,0,1,83,57.33Z"/><path class="cls-6" d="M85.31,63.33s.37,8,2.13,10.36c0,0,.46.7,1,.38a15.38,15.38,0,0,1-1.06-3.45A44.71,44.71,0,0,0,85.31,63.33Z"/><path class="cls-6" d="M92.07,62s.54,6.39,2.29,8.77a.94.94,0,0,0,1.57.13,10,10,0,0,1-2-3.5C92.8,64.16,92.07,62,92.07,62Z"/><path class="cls-6" d="M98,63.39s2.06,9.16,4.44,12.8c0,0,1.31,2,1.92.75,0,0-1.43-1.16-2.71-4.55C99.81,67.61,98,63.39,98,63.39Z"/><path class="cls-6" d="M87.94,75.73s.41,7.27,4.65,12.41c0,0,1,1.09,1.32-.47,0,0-.83.73-2.49-2.18A33.88,33.88,0,0,1,87.94,75.73Z"/><path class="cls-6" d="M94.47,80.86s2,6,3.06,6.53c0,0,.56.48.71-1C98.24,86.37,97.19,86.35,94.47,80.86Z"/><path class="cls-6" d="M99.15,83.22s4,11.61,9.22,15.19c0,0,.86.42.88-.63,0,0-.2.32-2.67-2.34S99.15,83.22,99.15,83.22Z"/><path class="cls-6" d="M90.29,48.39s2.31,5.26,4.29,5.17a1.29,1.29,0,0,0,1.18-1.27S93.18,53.35,90.29,48.39Z"/><path class="cls-6" d="M96.28,45.17S99.2,50.68,101,51c0,0,.77-.08.78-1.24,0,0-.64.64-2.15-.77A41.77,41.77,0,0,1,96.28,45.17Z"/><path class="cls-6" d="M104,48.34s6.08,14.45,7.77,14.91c0,0,.89.26,1-1.08,0,0-.94-.19-2.79-3.07S104,48.34,104,48.34Z"/><path class="cls-6" d="M108.3,91.86s2.8,6,4.39,6.67c0,0,.74.34.93-.69,0,0-.79.3-2.29-1.64S108.3,91.86,108.3,91.86Z"/><path class="cls-5" d="M95.15,88.45a53.48,53.48,0,0,0,4.59,10.72s2,3.37,3,3.24.52-2.09.52-2.09-.64,1-2.16-.75S97.24,93.69,95.15,88.45Z"/><path class="cls-5" d="M104.87,100c-.08-.14,4.82,10.21,8.61,14.67,0,0,1.47,2.1,2.17,1.87s-.17-2.7-.17-2.7-.35,1.39-1.41.43S107.93,105.36,104.87,100Z"/><path class="cls-5" d="M115.45,110.73a40.67,40.67,0,0,0,4.4,8.19c2.89,4.1,3.18,3.41,3.21,2.68l-.68-3.24s.33,2.74-.89,1.42C120.85,119.08,115.45,110.73,115.45,110.73Z"/><path class="cls-2" d="M60.45,80.4c0,.2-1.51,9.66-5,16.18s-4.83,6.69-5.53,6.28-.22-4.65-.22-4.65a98.79,98.79,0,0,1-7.11,13.2c-4.25,6.52-5.5,6.09-5.55,4.82s1.56-6.37,1.56-6.37A40.81,40.81,0,0,1,34.36,118c-3.08,4.7-4.12,5.42-4.39,4.19s1.14-6.38,1.14-6.38-2.32,7.49-6.95,12.26-6.27,3.36-5.19.47,5.25-19.2,7.87-27.55S63.45,64.43,60.45,80.4Z"/><path class="cls-3" d="M66.1,69.59a30.67,30.67,0,0,1-.81,9.58C64,84.81,61.07,89.11,59.62,89s-.12-9.12-.12-9.12-2.66,8.62-4,8-.48-5.9-.48-5.9-2.87,8.58-6.41,13.13-4.54,4.29-4.74,3.07,1.24-6.15,1.24-6.15-3,6.87-4.81,6.91-.75-4.4-.75-4.4-4.91,12.2-7.72,12.26-2.38-7-2.38-7l-2-18.27L47.13,63.75S64,48.64,66.1,69.59Z"/><path class="cls-4" d="M68.46,52.45a35.25,35.25,0,0,1,3.73,10.46c1,5.78-.25,8-1.25,7s-2.59-5.49-2.59-5.49-1.2,11-3.26,10-3.66-11.63-3.66-11.63-.82,8.88-3.26,8.86-2.35-8.4-2.35-8.4-4,15.46-6.33,14.68-2.73-11.33-2.73-11.33S45.64,78,44.22,77.71s-1.69-3.87-1.69-3.87-1.7,8-4.41,11.38-1.58-3.71-1.48-5c0,0-2.69,8.75-4.51,8.36s-2.88-5.77-2.88-5.77-2.77-11.12-1.36-16.68S53.63,38.75,53.63,38.75,65.6,46.14,68.46,52.45Z"/><path class="cls-5" d="M50.39,33.41a5.28,5.28,0,0,1,5.15.15,33.48,33.48,0,0,1,4.16,4.11c3,3.26,11.49,14,13.67,16.29s2.74,3.43,1.3,3.66-6.88-3.75-8.12-6.21c0,0,.29,3.83-1.34,3.19s-1.77-5.77-1.77-5.77-2.84,5.72-5,5-1.4-6.62-1-8.29c0,0-4,6.77-5.47,5.53S51,46,51,46s-7.68,18.29-9.67,17.72-.76-7.9-.76-7.9-4.91,11-6,9.9-.07-5.47-.07-5.47-4.39,4.26-4.69,7.49,2.77,11.48,1.71,11.92-2-.77-2-.77,2.69,7.26,1.84,8.09-2-.78-2-.78,2.35,8.39,1.44,14.67-2.42,4.53-2.94,2.34A45.58,45.58,0,0,1,25.26,118c-2.81,8.31-8.38,16-8.7,14.67s5.9-16,7.53-32.72-2.58-29,.18-35.64S44.64,37.8,49.46,36c0,0-1.54.22-1.77-.45S50.39,33.41,50.39,33.41Z"/><path class="cls-6" d="M74.56,57s.74-.57-.63-1.93-11.4-13.3-13.71-16-5.29-7.17-8.86-5.64a6.08,6.08,0,0,1,4.49,1.92C58.05,37.51,67.68,54.48,74.56,57Z"/><path class="cls-6" d="M35,50.81S25.16,61.08,24.09,68.23s3.37,22-.24,39.83c0,0-2.74,13.57-6.12,21.36,0,0,6.83-14.73,8.59-28.68s-3.7-30.56.08-36.82C30.57,57,35,50.81,35,50.81Z"/><path class="cls-6" d="M70.32,57.33S73.1,66,72,68.75c0,0-.28.79-.88.61,0,0,.57-.69.48-3.13A77.81,77.81,0,0,0,70.32,57.33Z"/><path class="cls-6" d="M68.06,63.33s-.38,8-2.13,10.36c0,0-.47.7-1,.38A15.38,15.38,0,0,0,66,70.62,43.78,43.78,0,0,1,68.06,63.33Z"/><path class="cls-6" d="M61.29,62S60.76,68.4,59,70.78a.94.94,0,0,1-1.57.13,10,10,0,0,0,2-3.5C60.56,64.16,61.29,62,61.29,62Z"/><path class="cls-6" d="M55.4,63.39S53.34,72.55,51,76.19c0,0-1.31,2-1.92.75,0,0,1.43-1.16,2.71-4.55C53.55,67.61,55.4,63.39,55.4,63.39Z"/><path class="cls-6" d="M65.42,75.73S65,83,60.77,88.14c0,0-1,1.09-1.32-.47,0,0,.83.73,2.49-2.18A33.88,33.88,0,0,0,65.42,75.73Z"/><path class="cls-6" d="M58.89,80.86s-2,6-3.06,6.53c0,0-.56.48-.71-1C55.12,86.37,56.17,86.35,58.89,80.86Z"/><path class="cls-6" d="M54.22,83.22S50.2,94.83,45,98.41c0,0-.86.42-.88-.63,0,0,.2.32,2.67-2.34S54.22,83.22,54.22,83.22Z"/><path class="cls-6" d="M63.07,48.39s-2.31,5.26-4.28,5.17a1.31,1.31,0,0,1-1.2-1.27S60.19,53.35,63.07,48.39Z"/><path class="cls-6" d="M57.08,45.17S54.16,50.68,52.32,51c0,0-.77-.08-.77-1.24,0,0,.63.64,2.14-.77A40.15,40.15,0,0,0,57.08,45.17Z"/><path class="cls-6" d="M49.4,48.34s-6.08,14.45-7.77,14.91c0,0-.89.26-1-1.08,0,0,.94-.19,2.79-3.07S49.4,48.34,49.4,48.34Z"/><path class="cls-6" d="M45.06,91.86s-2.8,6-4.39,6.67c0,0-.74.34-.93-.69,0,0,.79.3,2.29-1.64S45.06,91.86,45.06,91.86Z"/><path class="cls-5" d="M58.21,88.45a53.48,53.48,0,0,1-4.59,10.72s-2,3.37-3,3.24-.52-2.09-.52-2.09.64,1,2.16-.75S56.12,93.69,58.21,88.45Z"/><path class="cls-5" d="M48.49,100c.08-.14-4.82,10.21-8.61,14.67,0,0-1.47,2.1-2.17,1.87s.17-2.7.17-2.7.35,1.39,1.41.43S45.43,105.36,48.49,100Z"/><path class="cls-5" d="M37.91,110.73a40.67,40.67,0,0,1-4.4,8.19c-2.89,4.1-3.18,3.41-3.21,2.68l.68-3.24s-.33,2.74.89,1.42C32.51,119.08,37.91,110.73,37.91,110.73Z"/></svg>