<svg id="कबूतर" xmlns="http://www.w3.org/2000/svg" viewBox="0 0 150 160"><defs><style>.cls-1{fill:#fff;}.cls-2{fill:#334360;}.cls-3{fill:#e593a3;}.cls-4{fill:#ce6a86;}.cls-5{fill:#b74e6f;}.cls-6{fill:#25364f;}.cls-7{fill:#3a3a3a;}.cls-8{fill:#212121;}.cls-9{fill:#b6b6b7;}.cls-10{fill:#49597a;}.cls-11{fill:#6d89aa;}.cls-12{fill:#a3bad6;}.cls-13{fill:#889fbf;}.cls-14{fill:#5c7599;}.cls-15{fill:#dd7b31;}.cls-16{fill:#546789;}</style></defs><path class="cls-1" d="M135,107.28c-.4-1.79-2.13-3.93-10.87-6.52a2.89,2.89,0,0,0,.45-1.46c.07-1.76-1.11-4-7.08-9.26-1.29-1.13-2.79-2.4-4.48-3.76l-2.39-1.91c-1.59-1.26-3.24-2.53-4.86-3.77l-3.09-2.34-3.17-2.38c-2.38-1.79-4.43-3.33-6-4.55-9.11-7.1-23.81-13.09-28.21-13.09h-.14a28.93,28.93,0,0,0-3.18.21c-4.36-2.94-7.17-5.89-8.81-9.26s-3-5.88-4-7.91a76.5,76.5,0,0,1-3.56-7.4c-2.33-5.83-7.27-9.61-12.57-9.61a10.15,10.15,0,0,0-6.58,2.39,13.24,13.24,0,0,0-5,8.68,4.31,4.31,0,0,0-1.31.79A3.75,3.75,0,0,0,19,39.64c-.24.26-.48.52-.72.8-3.33,3.89-3.41,7.37-3.41,7.76v2.43L27,48.21l.1.16c.26.4.5.81.73,1.22l.15.28c.24.42.46.85.67,1.29l.05.1c.2.42.39.84.56,1.26l.1.25.27.71.1.27c.11.33.21.66.33,1.08l0,.16c.07.25.14.5.2.75l.08.38c.05.22.1.43.14.65s0,.28.07.42l.09.63.05.43.06.64,0,.44c0,.23,0,.47,0,.71v.38q0,.55,0,1.11c0,.75-.08,1.53-.14,2.34C30.21,71.06,29.65,80,34,86.5c.29.43.61.88,1,1.33l.78,1A29.48,29.48,0,0,0,52,105a69,69,0,0,0,11.11,3,43.9,43.9,0,0,0,2.35,4c2.12,3.21,4.3,5.33,6.49,6.33l.71,2.66c-4.39.14-10,.72-11.89,2.68a2.52,2.52,0,0,0-.63,2.75c-2.73,1-2.8,1.83-2.86,2.67a3.89,3.89,0,0,0,.62,2.53A4.66,4.66,0,0,0,62,133.51a7.92,7.92,0,0,0,1.58-.16,29,29,0,0,0,3-.85,3.21,3.21,0,0,0,0,.69,3.44,3.44,0,0,0,.11.83A2.31,2.31,0,0,0,69,135.73c2.21,0,6.74-2.6,9.33-5.35,1.83-1.94,2.7-3.89,2.58-5.8a6.08,6.08,0,0,0-.08-.65l-.7-3.84c.58-.16,1.27-.37,2-.61a3.35,3.35,0,0,0,0,.71,3,3,0,0,0,.11.81,2.31,2.31,0,0,0,2.36,1.71c2.21,0,6.75-2.6,9.33-5.34a8.59,8.59,0,0,0,2.57-4.93l1.28.09c13.86,13.09,17.68,13.09,18.94,13.09a4.21,4.21,0,0,0,1.3-.2c2.53-.86,4.06-2.19,4.56-4a4.42,4.42,0,0,0,.16-1.54,14.58,14.58,0,0,0,3.17.4,5.19,5.19,0,0,0,3.85-1.35,4.26,4.26,0,0,0,1.15-3.16,4.63,4.63,0,0,0-1.3-2.94c2.24-.17,3.79-.81,4.71-2A4.18,4.18,0,0,0,135,107.28Z"/><path class="cls-2" d="M93.69,105.77s18.8,19.39,23.64,17.75c13.64-4.61-18.49-20.27-18.49-20.27Z"/><path class="cls-2" d="M107,103s21.74,8.42,21.83,12.89c.16,8.65-28.29-8.16-28.29-8.16Z"/><path class="cls-2" d="M109.12,99.35s23,4,23.93,8.36c1.86,8.45-29.33-2.46-29.33-2.46Z"/><polygon class="cls-3" points="88.23 100.32 90.05 107.09 90.82 109.94 94.41 111.27 93.56 106.58 92.4 100.23 88.23 100.32"/><path class="cls-4" d="M88.23,100.32l1.82,6.77a3.78,3.78,0,0,0,1.78.2,4.39,4.39,0,0,0,1.73-.71l-1.16-6.35Z"/><path class="cls-2" d="M77.73,88a55.13,55.13,0,0,0,5,9.86c2.3,3.46,5.21,6.43,8.28,6.08a4.46,4.46,0,0,0,2.35-.93c4.14-3.26,2.35-13.58,2.35-13.58Z"/><path class="cls-4" d="M75.13,117.51c.59.89,2,1.18,3.59.87,2.16-.42,9.45-3.13,9.9-3.3-.15.09-4.6,2.83-4.54,5.07a1.49,1.49,0,0,0,0,.36c.34,1.31,10.63-4,10.33-8.81a2.1,2.1,0,0,0,0-.43c-.44-2.23-3.59-1.33-3.59-1.33s-11,0-13,2.11,9,1,9,1-11.86,1.88-12,3.2A1.93,1.93,0,0,0,75.13,117.51Z"/><path class="cls-5" d="M84.13,120.51c.34,1.31,10.63-4,10.33-8.81a25.2,25.2,0,0,1-3.84,4.41,24.36,24.36,0,0,1-6.54,4A1.49,1.49,0,0,0,84.13,120.51Z"/><path class="cls-5" d="M75.13,117.51c.59.89,2,1.18,3.59.87,2.16-.42,9.45-3.13,9.9-3.3,0,0,.27-1,.27-1A88.26,88.26,0,0,1,78,117.31,13.43,13.43,0,0,1,75.13,117.51Z"/><path class="cls-6" d="M77.73,88a55.13,55.13,0,0,0,5,9.86c2.76-.43,6.92-.64,8.56,1.55a18.16,18.16,0,0,1,2.07,3.6c4.14-3.26,2.35-13.58,2.35-13.58Z"/><polygon class="cls-3" points="72.67 113.33 74.5 120.1 75.27 122.96 78.86 124.28 78.01 119.59 76.85 113.24 72.67 113.33"/><path class="cls-4" d="M72.68,113.33l1.82,6.77a3.75,3.75,0,0,0,1.77.2,4.52,4.52,0,0,0,1.74-.7l-1.16-6.36Z"/><path class="cls-2" d="M62.18,101.06a55.22,55.22,0,0,0,4.95,9.85c2.3,3.46,5.21,6.44,8.28,6.09a4.56,4.56,0,0,0,2.35-.94c4.14-3.26,2.35-13.58,2.35-13.58Z"/><path class="cls-3" d="M59.58,130.52c.59.89,2,1.19,3.59.87,2.16-.42,9.45-3.13,9.9-3.3-.15.1-4.6,2.83-4.54,5.08a1.41,1.41,0,0,0,0,.35c.33,1.32,10.63-4,10.33-8.81a3.34,3.34,0,0,0,0-.43c-.44-2.23-3.59-1.32-3.59-1.32s-11,0-13,2.1,9,1,9,1-11.86,1.87-12,3.19A1.92,1.92,0,0,0,59.58,130.52Z"/><path class="cls-4" d="M68.58,133.52c.33,1.32,10.63-4,10.33-8.81a22.66,22.66,0,0,1-10.38,8.46A1.41,1.41,0,0,0,68.58,133.52Z"/><path class="cls-4" d="M59.58,130.52c.59.89,2,1.19,3.59.87,2.16-.42,9.45-3.13,9.9-3.3,0,0,.27-1,.27-1a88.26,88.26,0,0,1-10.86,3.18A12.81,12.81,0,0,1,59.58,130.52Z"/><path class="cls-6" d="M62.18,101.06a55.22,55.22,0,0,0,4.95,9.85c2.76-.43,6.92-.64,8.56,1.55a18.45,18.45,0,0,1,2.07,3.6c4.14-3.26,2.35-13.58,2.35-13.58Z"/><path class="cls-7" d="M29.83,45.59l-13,2.6s0-3,2.93-6.45a15.24,15.24,0,0,1,5.54-4.39l3.11,5.7Z"/><polygon class="cls-8" points="29.84 45.59 16.87 48.19 28.45 43.05 29.84 45.59"/><path class="cls-9" d="M21.49,40.49a2.11,2.11,0,0,1,0-2.87,5.14,5.14,0,0,1,2.43-.82l5.11,9S22.21,41.53,21.49,40.49Z"/><path class="cls-8" d="M21.68,42.78a.69.69,0,0,1-.59.78.68.68,0,0,1-.78-.58.69.69,0,0,1,.58-.79A.71.71,0,0,1,21.68,42.78Z"/><path class="cls-10" d="M27.71,45.7c3.3,4.69,5.41,9.86,5.09,15.94-.37,7-1.59,17.09,2.89,23.74S52,102.17,68.74,103.54c15.82,1.29,37.9,3.71,42.14-4.92a6.9,6.9,0,0,0,.56-1.66C114,84.19,81.37,71.73,70,65.39,64.33,62.24,55.24,58,51.38,50.06s-5.84-10.92-7.64-15.44c-3.11-7.78-11-10.58-16-6.43S21.89,38.3,26.1,43.56C26.66,44.26,27.2,45,27.71,45.7Z"/><path class="cls-2" d="M35.69,85.38A33.49,33.49,0,0,0,40,90.45a47,47,0,0,0,28.75,13.09c15.82,1.29,37.9,3.71,42.14-4.92-7.41.21-19.67.3-35.62-.54C48.08,96.65,48.13,82,43,78.9S40.6,63.82,37.54,56c-1.65-4.26-6.1-7.85-9.83-10.25a31,31,0,0,1,3.45,6.23,22.45,22.45,0,0,1,1.64,9.71C32.43,68.66,31.21,78.73,35.69,85.38Z"/><path class="cls-11" d="M61.36,65.62c5.18,6,27.65,20.2,43.81,28.42,1.06.54,2.1,1.06,3.1,1.54q2.37,1.15,4.46,2.06c4.29,1.87,7.52,2.87,8.89,2.54h0a1.53,1.53,0,0,0,.56-.25c1.42-1.06-1.46-4.35-6-8.38-1.35-1.19-2.85-2.43-4.42-3.71-.77-.62-1.56-1.26-2.36-1.89-1.59-1.25-3.23-2.52-4.85-3.75l-3.07-2.33c-3.62-2.73-6.93-5.18-9.2-7-9.21-7.18-23.61-12.76-27.06-12.67S56.87,60.42,61.36,65.62Z"/><path class="cls-12" d="M67,65.56c7.35,2.7,30.16,16.38,44,24.88-.64-.64-1.31-1.3-2-2-1.42-1.37-2.94-2.77-4.52-4.17-.75-.67-1.51-1.33-2.29-2-1.23-1-2.49-2.1-3.76-3.13-7.64-6.19-16-11.9-22.74-15.1C66.24,59.62,59.88,63,67,65.56Z"/><path class="cls-8" d="M105.17,94c1.06.54,2.1,1.06,3.1,1.54.67-.83,1.6-2,2.68-3.64,1.25-1.86,1.15-3.25.82-4.11-.77-.62-1.56-1.26-2.36-1.89a14.5,14.5,0,0,1-.71,2.87A26.16,26.16,0,0,1,105.17,94Z"/><path class="cls-8" d="M112.73,97.64c4.29,1.87,7.52,2.87,8.89,2.54h0a5.87,5.87,0,0,0,.56-.25c1.42-1.06-1.46-4.35-6-8.38a5.59,5.59,0,0,1-1.94,5A13.15,13.15,0,0,1,112.73,97.64Z"/><path class="cls-13" d="M52.76,103.18c3.28,1.33,9.53,2.75,17,4,2.51.43,5.15.83,7.87,1.21,2.48.35,5,.67,7.58,1,2.34.27,4.69.51,7,.72,3.6.33,7.1.58,10.37.73,9.93.46,17.68,0,19-2a1.19,1.19,0,0,0,.2-.56,2.5,2.5,0,0,0,0-.47c-.29-2.17-3.35-5.74-8-9.84q-1.53-1.33-3.27-2.75c-.71-.58-1.44-1.16-2.2-1.74-1.56-1.22-3.21-2.45-4.93-3.68L100.85,88q-2-1.38-4.07-2.72C88.53,80,79.65,75.17,72.57,72.7c-9.87-3.45-18-3.5-24-1.58A21.07,21.07,0,0,0,41,75.26a17,17,0,0,0-3.63,4.4l-.12.22C34.5,84.86,40.19,98.1,52.76,103.18Z"/><path class="cls-11" d="M52.76,103.18c3.28,1.33,9.53,2.75,17,4,2.51.43,5.15.83,7.87,1.21,2.48.35,5,.67,7.58,1,2.34.27,4.69.51,7,.72,3.6.33,7.1.58,10.37.73,9.93.46,17.68,0,19-2a1.19,1.19,0,0,0,.2-.56,2.5,2.5,0,0,0,0-.47C110.4,105.94,81.1,101,66.92,96.45,53.09,92.06,44.23,80.3,41,75.26a17,17,0,0,0-3.63,4.4l-.12.22C34.5,84.86,40.19,98.1,52.76,103.18Z"/><path class="cls-6" d="M35.69,85.38A33.49,33.49,0,0,0,40,90.45l1.81-1.92s-2.18-3.77-5.24-9.1.06-13.76-.86-19.23a15.14,15.14,0,0,0-4.55-8.51v.24a22.45,22.45,0,0,1,1.64,9.71C32.43,68.66,31.21,78.73,35.69,85.38Z"/><path class="cls-8" d="M96.91,89.18l3.2,1.11s2.51-.49,4.11-4.18a6.49,6.49,0,0,0,.34-3.92l-3.07-2.33A9.64,9.64,0,0,1,101.3,84C100.45,86.56,96.91,89.18,96.91,89.18Z"/><path class="cls-14" d="M52.76,103.18c3.28,1.33,9.53,2.75,17,4,2.51.43,5.15.83,7.87,1.21,2.48.35,5,.67,7.58,1,2.34.27,4.69.51,7,.72,3.6.33,7.1.58,10.37.73,9.93.46,17.68,0,19-2-14.6-.51-46.46-4.46-60.67-8.81-12.3-3.76-20-14.25-23.54-20.35l-.12.22C34.5,84.86,40.19,98.1,52.76,103.18Z"/><path class="cls-12" d="M64.06,75.09C71.65,77,95.77,88.2,110.47,95.2c-.71-.58-1.44-1.16-2.2-1.74-1.56-1.22-3.21-2.45-4.93-3.68L100.85,88q-2-1.38-4.07-2.72C88.53,80,79.65,75.17,72.57,72.7,62.7,69.25,56.73,73.24,64.06,75.09Z"/><path class="cls-8" d="M102.56,110.81c10.8.5,19-.09,19.19-2.55.15-2.1-3-5.9-8-10.31,1,2.41,1.7,5.89-1.09,8.25C110.36,108.15,106.19,109.72,102.56,110.81Z"/><path class="cls-8" d="M85.19,109.36c2.34.27,4.69.51,7,.72,4.88-2.27,12-6,14.43-9.21a9.26,9.26,0,0,0,1.65-7.41c-1.56-1.22-3.21-2.45-4.93-3.68.86,2.48,1.81,7-1.1,9.77C99.1,102.6,89.72,107.22,85.19,109.36Z"/><path class="cls-8" d="M69.74,107.19c2.51.43,5.15.83,7.87,1.21,4.74-1.56,14.85-5.31,19.54-10.46a13,13,0,0,0,3.7-9.9q-2-1.38-4.07-2.72c.4,3.13.2,7.6-3.25,10.72C87.5,101.49,74.94,105.64,69.74,107.19Z"/><path class="cls-2" d="M34.87,35.81a2.7,2.7,0,0,0-2.54-2c-2.2.09-3.66,1.48-3.36,3.65a3.07,3.07,0,0,0,5,1.8A3.62,3.62,0,0,0,34.87,35.81Z"/><path class="cls-15" d="M34.14,36.09a2,2,0,0,0-1.9-1.53,2.35,2.35,0,0,0-2.52,2.74,2.3,2.3,0,0,0,3.76,1.34A2.7,2.7,0,0,0,34.14,36.09Z"/><path class="cls-8" d="M33.1,36.48a1.06,1.06,0,0,0-1-.8,1.23,1.23,0,0,0-1.31,1.43,1.2,1.2,0,0,0,2,.7A1.42,1.42,0,0,0,33.1,36.48Z"/><path class="cls-1" d="M33.57,35.47a.74.74,0,0,0-.71-.56.86.86,0,1,0,.47,1.51A1,1,0,0,0,33.57,35.47Z"/><path class="cls-16" d="M26.47,31.62s3.19-5.93,9.69-3.24,7.25,10.46,7.25,10.46-4-7.43-8-8.29S26.47,31.62,26.47,31.62Z"/></svg>