<svg id="जानवर" xmlns="http://www.w3.org/2000/svg" viewBox="0 0 150 160"><defs><style>.cls-1{fill:#fff;}.cls-2{fill:#543f3c;}.cls-3{fill:#684f4c;}.cls-4{fill:#442e2c;}.cls-5{fill:#493533;}.cls-6{fill:#a88685;}.cls-7{fill:#8c6f6c;}.cls-8{fill:#876663;}</style></defs><path class="cls-1" d="M142.82,59.24c-2.49-5.52-5.49-12.21-11.3-14-4-5.26-7.4-5.1-8.41-5.27-2,.82-2.85,2.59-2.82,5.61-5.34,4.9-11.48,5-17.93,2.34l-.17.48C94.46,49,79.86,57.9,72,57.76c-11.32-3-31.27-2-38.29,6-8.47,7.93.7,31.88-7.37,38.17-4.64,6.1-17.46,4.8-16.62-4.19-1.49-7.93-11.25-.54-2.88,9.49,8.81,8.66,24,4.65,28.24-8.92l.53,1c2.94-11-5.15-29.83,6.72-34.26-2.41,8,.16,28.74-1.39,32.67-1.16,3.27,5.66,16.77,6.75,22.09,4.11,0,9.89,0,14,0l0,0h2.07v0l11.62,0h2.06c-.88-2-.76-3.51-2.88-5.44-.86-2.53-4.29-3.23-6.78-2.33-5.63-12.27-4.48-13.83,2.53-22.66a109.81,109.81,0,0,0,15.92,7.08c1.42,5.55,6.14,17,7.59,23.56,3.16-.12,8.94-.28,12-.2l.06.2c4.08-.18,10.27-.27,14.3-.19v0h2c-1.14-3.91-3.94-9.91-9.37-7.78-2.3-7.18-3.31-15.56-1.13-18.49s3.39-6.84,3.82-11.93c2.28-3.46,5.06-8.09,7.26-10.71a18.46,18.46,0,0,1,7.89-.11c3.44,7.88,13.94-2,15.77-6.53C146.43,63.41,146.28,62.87,142.82,59.24ZM99.38,102.52c1.22,3.09,2.54,6.3,3.76,9.53a6.9,6.9,0,0,0-2,.22A52.43,52.43,0,0,1,99.38,102.52Zm-42.31,8.32.33.83a7.12,7.12,0,0,0-2.26.26c-3.23-9.34-5.9-11-1.45-17C52.9,100.68,53.58,101.85,57.07,110.84Z"/><path class="cls-2" d="M5.62,97.59a1.14,1.14,0,0,1,1.34-1H7a.91.91,0,0,1,.74,1C6.25,112.1,35.31,113.71,32,85,30,67,33.74,58.67,58.39,58.67v2.14C35,60.81,32.15,68,34.07,84.74,37.67,116.24,4.13,115,5.62,97.59Z"/><path class="cls-3" d="M32,85a39.8,39.8,0,0,1,.26,5A15.49,15.49,0,0,1,34.2,92.7a38.34,38.34,0,0,0-.13-8C32.15,68,35,60.81,58.39,60.81V58.66C33.74,58.66,30,67,32,85Z"/><path class="cls-4" d="M110.09,92.34c7.46-10,1.54-36.14-2.26-34.59-8.31,3.41-8.34,35.67-8.82,37.1s5.5,14,8.3,23.12l5.66-.18C111,114.39,105.88,98,110.09,92.34Z"/><path class="cls-4" d="M69.26,87.24c7.59-11.88,10.11-18.59-1.54-26.63-5.61-3.87-12.52,4.83-12,9.47s.34,25-.35,28.06,5,14.47,6.35,19.65h6.34c-1-2.5-6.51-13.58-6.17-18.76C62.07,96.32,66.52,91.53,69.26,87.24Z"/><path class="cls-2" d="M52.46,78.12c5-.35,32.06,19.66,44.74,17.16s21.2-26.93,27.89-28.71l-1.26-17.63s-11.2,5.83-19.94,2.56c-5.61-2.11-25.72,11.25-34.63,8.57s-25.54-3.39-21.94,8.4S52.46,78.12,52.46,78.12Z"/><path class="cls-3" d="M104.05,50.62c-5.61-2.1-25.85,11.47-34.76,8.79C61.14,57,46.54,56.82,46.83,65.69,53.89,71,68.71,75,83.71,73.51,99.38,71.92,129.93,52.06,122.35,49,119.15,50.36,111,53.23,104.05,50.62Z"/><path class="cls-5" d="M87.22,81.59C72.07,83.11,60.05,74,51.82,69.48c2.43,6.32.64,8.64.64,8.64,5-.35,32.06,19.66,44.74,17.16s21.2-26.93,27.89-28.71L123.23,57C111.63,77.62,104.31,79.88,87.22,81.59Z"/><path class="cls-5" d="M62.35,65.78s4.07,7,0,16.92L59.21,81Z"/><path class="cls-5" d="M102.58,67.56s5,6.75,2.36,18l-3.34-1.32Z"/><path class="cls-2" d="M94.56,61.91s-7.17,8.65-7.81,18.22l3.71-.38Z"/><path class="cls-4" d="M97.75,92.14C87.5,94.14,67.94,81.7,58,76.85A50.48,50.48,0,0,1,52.6,75c-.11.1-.53.36-1.3-.56-.83-.38-1.61-.77-2.35-1.18,2.44,6.32,3.7,5.45,3.7,5.45,5-.36,32.15,19.7,44.83,17.19s20.92-27.57,27.61-29.35l-.5-2.56C118,68.16,109.75,89.79,97.75,92.14Z"/><path class="cls-2" d="M56.75,87.24C64.34,75.36,68.83,66,55.2,60.61c-6.34-2.49-12.51,4.83-12,9.47s.35,25-.34,28.06,5,14.47,6.34,19.65h6.35c-1-2.5-6.52-13.58-6.18-18.76C49.55,96.32,54,91.53,56.75,87.24Z"/><path class="cls-2" d="M49.45,117.79H59.53s1.52-3.79-2.09-4.11S49.45,117.79,49.45,117.79Z"/><path class="cls-2" d="M95.63,117.79h9.47s1.5-3.45-1.89-3.73S95.63,117.79,95.63,117.79Z"/><path class="cls-4" d="M62.4,117.79H72.48S74,114,70.39,113.68,62.4,117.79,62.4,117.79Z"/><path class="cls-4" d="M107.49,117.79h10.08s1.52-3.79-2.09-4.11S107.49,117.79,107.49,117.79Z"/><path class="cls-2" d="M99.24,92.42c7.92-10,3.2-36-.67-34.49-8.47,3.4-10,35.56-10.53,37s4.86,13.94,7.24,23l5.66-.18C99.13,114.4,94.77,98.06,99.24,92.42Z"/><path class="cls-2" d="M114.4,52.75c2.77-1.5,7.49-6.52,10.94-6.28s8.46,1.44,10.86,5,5.36,10.37,6.73,12.19-3.79,8.53-9,5.76c-9.85-5.22-13.42,1.52-18.4.67C111.9,69.46,114.4,52.75,114.4,52.75Z"/><path class="cls-3" d="M127.11,48.61a12.13,12.13,0,0,1,7.82,2.85c4.11,4-.17,8.6,8.13,13.61a1.62,1.62,0,0,0-.13-1.43c-1.37-1.82-4.05-8.72-6.45-12.25s-7.51-5.31-11-5.55-9.16,5.43-11.93,6.93c0,0-2,6-2.15,9.16C119.21,58.07,119.35,48.68,127.11,48.61Z"/><path class="cls-5" d="M124.48,53.88c-2.08,7.84-8.88,15-12.2,18.47a41.91,41.91,0,0,1,11.37-3.63c3.33-.49,6.79-.6,9.89,1,3.82,2,6.39-1,7.63-3.47-3.45,1-2-3.6-4.44-2.49C133.08,65.46,124.8,59.22,124.48,53.88Z"/><path class="cls-2" d="M131.51,68.24c1.37,1.6.92,3.9,4.09,3.45s4.63-4.2,4.63-4.2C134.06,65.64,129.25,65.76,131.51,68.24Z"/><path class="cls-3" d="M141.77,66.42s2.66-1.62,2.66-2.16-4-4.58-4-4.58S140.92,65.79,141.77,66.42Z"/><path class="cls-5" d="M142.09,65.74c-.69.55-1.52-2.18-1-2.74s2.32.83,2.36,1.35S142.78,65.18,142.09,65.74Z"/><path class="cls-2" d="M124.69,52.91C122.8,51.84,121,43.28,123.51,42c0,0,4.25.27,7.38,6C132.41,50.79,124.69,52.91,124.69,52.91Z"/><path class="cls-5" d="M125.38,52.24c-1.43-.81-1.73-6.28-.89-8.25,0,0,4.55,2.37,5.59,4.54S125.38,52.24,125.38,52.24Z"/><path class="cls-2" d="M126.1,52.55c-.5-.28.66-2.36,1.07-2.77,0,0,2.4-.31,2.76.44S126.1,52.55,126.1,52.55Z"/><path class="cls-3" d="M101.74,72.63c1.42-6.07.68-16.44-1.76-17s-7.26,6-8.69,12.11-4.1,21.8-1.66,22.37S100.31,78.69,101.74,72.63Z"/><path class="cls-2" d="M103.61,50.42s-.83,2.35-.62,3.19c0,0,2.15-2.15,3.53-2.29Z"/><path class="cls-3" d="M64.2,70c1.17-5.71-5.7-10.56-8.78-11.19s-11,3.51-12,9.24c-.64,3.79,1,22.21,4.07,22.84S63,75.65,64.2,70Z"/><path class="cls-4" d="M138.8,69.8c-1.39-.59-4.89-2.26-4.2-4.27s1.88-2,1.88-2l3.05,5.62Z"/><path class="cls-2" d="M135.62,63.7c-1.07,2,1.78,6.85,4.32,5.23s2.83-4.71,1.55-5.92C139.74,61.35,137.24,60.7,135.62,63.7Z"/><path class="cls-2" d="M134,63.58c-.88.54-1.25,2.09-.69,2.2.9.18,1.38-2.11,2.73-1.8C136,64,135.48,62.63,134,63.58Z"/><path class="cls-5" d="M135.83,57.53c-1.15-.13-4.2-2.41-3.23-4s2.76-.33,3.1-.09S137,57.67,135.83,57.53Z"/><path class="cls-6" d="M134.92,55.78c-.6,0-1.94-.9-1.21-1.56a1.27,1.27,0,0,1,1.66-.08C135.76,54.69,135.5,55.82,134.92,55.78Z"/><path class="cls-5" d="M134.68,55.35a1.52,1.52,0,0,1,0-1.06c.16-.39.23-.08.23,0C134.91,54.68,134.76,55.4,134.68,55.35Z"/><path class="cls-2" d="M132,54.32s3.37-.41,4.71.93a2.85,2.85,0,0,0-2.12-2.82C132.34,51.83,132,54.32,132,54.32Z"/><path class="cls-4" d="M135.46,66.26c-1,.39-3.14-.71,0-2.19Z"/><path class="cls-5" d="M105.2,78.29c5.69-6.45,8.91-15.84,11.5-16.64s-1.44,6.24,1.82,5C113.94,73.44,105.2,78.29,105.2,78.29Z"/><path class="cls-4" d="M132,54.32a11.06,11.06,0,0,1,4.54.74s-.28-.9-2.29-1.11S132,54.32,132,54.32Z"/><path class="cls-7" d="M58.05,117.79h2.78s-.69-1.94-1.94-2.21S58.05,117.79,58.05,117.79Z"/><path class="cls-7" d="M55.6,117.79l2.79,0a3.14,3.14,0,0,0-2-1.67C55.19,115.93,55.6,117.79,55.6,117.79Z"/><path class="cls-7" d="M53.39,117.79h2.77a2.94,2.94,0,0,0-1.94-1.2C53,116.45,53.39,117.79,53.39,117.79Z"/><path class="cls-7" d="M104.09,117.79h2.78s-.69-1.94-1.94-2.21S104.09,117.79,104.09,117.79Z"/><path class="cls-7" d="M101.64,117.79l2.79,0a3.14,3.14,0,0,0-2-1.67C101.23,115.93,101.64,117.79,101.64,117.79Z"/><path class="cls-7" d="M99.43,117.79h2.77a2.94,2.94,0,0,0-1.94-1.2C99,116.45,99.43,117.79,99.43,117.79Z"/><path class="cls-4" d="M116.57,117.79h2.78s-.69-1.94-1.94-2.21S116.57,117.79,116.57,117.79Z"/><path class="cls-4" d="M114.12,117.79l2.79,0a3.14,3.14,0,0,0-2-1.67C113.71,115.93,114.12,117.79,114.12,117.79Z"/><path class="cls-4" d="M111.91,117.79h2.77a2.94,2.94,0,0,0-1.94-1.2C111.49,116.45,111.91,117.79,111.91,117.79Z"/><path class="cls-4" d="M71.74,117.79h2.78s-.7-1.94-1.94-2.21S71.74,117.79,71.74,117.79Z"/><path class="cls-4" d="M69.29,117.79l2.78,0a3.14,3.14,0,0,0-1.94-1.67C68.87,115.93,69.29,117.79,69.29,117.79Z"/><path class="cls-4" d="M67.07,117.79h2.78a3,3,0,0,0-1.95-1.2C66.65,116.45,67.07,117.79,67.07,117.79Z"/><path class="cls-8" d="M64.76,59.59c2.89,1.75,9.72,5.64,32.45-6.84,0,0-15,6.18-19.64,7.39A20.75,20.75,0,0,1,64.76,59.59Z"/><path class="cls-8" d="M92.59,65.7C94,61,96,57.46,95.43,57.29s-2.13,3.53-3.54,8.24-2.14,8.66-1.6,8.82S91.17,70.41,92.59,65.7Z"/><path class="cls-4" d="M94.17,101.66s2-6.75,5.63-9.62l-1.39,3.61S96.66,96.85,94.17,101.66Z"/></svg>