<svg id="घंटी" xmlns="http://www.w3.org/2000/svg" viewBox="0 0 150 160"><defs><style>.cls-1{fill:#fff;}.cls-2{fill:#d3a22d;}.cls-3{fill:#a37d22;}.cls-4{fill:#ecb531;}</style></defs><path class="cls-1" d="M114.63,107.55a70.77,70.77,0,0,1-13.11-40.08A26.4,26.4,0,0,0,83,42.15a9.21,9.21,0,1,0-15.88.07,26.51,26.51,0,0,0-18.6,25.25,68.48,68.48,0,0,1-13.1,40.08,6.61,6.61,0,0,0,.94,13.16h26a12.8,12.8,0,0,0,25.34,0h26a6.61,6.61,0,0,0,6.62-6.49v-.12A6.63,6.63,0,0,0,114.63,107.55ZM75,35.08a2.45,2.45,0,1,1-2.45,2.45A2.45,2.45,0,0,1,75,35.08Z"/><path class="cls-2" d="M75,30.32a7.21,7.21,0,1,0,7.21,7.21A7.21,7.21,0,0,0,75,30.32ZM75,42a4.45,4.45,0,1,1,4.45-4.45A4.45,4.45,0,0,1,75,42Z"/><path class="cls-3" d="M82.64,111.23a10.81,10.81,0,1,1-15.28,0,10.82,10.82,0,0,1,15.28,0Z"/><path class="cls-4" d="M113.68,109.66H36.32A70.83,70.83,0,0,0,50.48,67.47h0A24.53,24.53,0,0,1,75,43h0A24.32,24.32,0,0,1,99.52,67.47h0a72.21,72.21,0,0,0,14.16,42.19Z"/><path class="cls-2" d="M113.68,118.72H36.32a4.62,4.62,0,0,1,0-9.24h77.36a4.62,4.62,0,0,1,0,9.24Z"/></svg>