<svg id="साड़ी" xmlns="http://www.w3.org/2000/svg" viewBox="0 0 150 160"><defs><style>.cls-1{fill:#fff;stroke:#fff;stroke-miterlimit:10;stroke-width:5px;}.cls-2{fill:#3b102b;}.cls-3{fill:#0c9294;}.cls-4{fill:#f48d0d;}.cls-5{fill:#c1786c;}.cls-6{fill:#104749;}.cls-7{fill:#9e4a46;}.cls-8{fill:#042828;}.cls-9{fill:#056d6d;}</style></defs><path class="cls-1" d="M110.36,7.67c-1.91-2.24-4.16.16-3.32-2.18-2.32.29-5.24,3-6,5.46-2.34,4.66-11.22,19.74-16.23,20.73-4.46-3.49-1.5-2.85-1.43-7.54-2.18-4-1.08-7.26-4.26-11.33C72.67,8,64.14,12,63,20.51c.31,5-4.53,4.44-7,7.42-.82,1.18-.94,3.13.29,5.43,1,1.77-2.51,2-3.61,4.38-1,3.34-.18,6.39-2.75,7.47-9.32,8.79-1.89-13.57-4-15.1-.86-2.09-2-4.49-2-2.14-.37-.94-6.66-2.42-3.83,1.63,5,4.23,3.68,5.58.92,13.31-3.88,9.67.3,16.33,8.54,11-.7,3.9,1.76,8.57,5.37,9-2,8.41-8.5,29.94.08,38h0c1.29,22.42,3.17,49.71,4.7,50.43,8.73,1.73,23.44,6.23,31.84-1.74,8.15-1.18,3.56-3.62,6.16-5.29,11-3.64,2-12.43-2-19.21C93.26,122,85.73,99.67,81.9,86.86c-3.39-16.69-15.49-25.55-1.36-23.75,1.19,10,2.86,23.6,4,29.26h0c-1.1,10.23,18.32,6.49,13.5-3h0C96,77.4,86.13,61.7,87.55,45.52c-1.07-3-3-3.1-3.84-3.54a96.32,96.32,0,0,0,11.8-12.12c5.62-5.64,4.08-20.75,13.39-19.79C109.94,9.5,111.15,9.12,110.36,7.67Z"/><path class="cls-2" d="M87.55,45.52C86.1,41.47,83,42.7,83.39,41.24c.14-.51.87-1.17,2-3.18a6.62,6.62,0,0,0-.26-5.9c-1.23-2.3-3.52-2.44-2.92-3.88.32-.79,1.62-2,1.2-4.14C82.93,21.56,82,21.7,81,18.32s-1-3.93-3.08-5.25S75,11.81,73,12.51s-6.44,2.61-6.44,2.61l-1.68.17a21.36,21.36,0,0,0-2,5.22c-.45,2.23,0,3-1.67,4.08s-4.11,1.6-5.32,3.34c-.82,1.18-.94,3.13.29,5.43,1,1.77-2.51,2-3.61,4.38a5.5,5.5,0,0,0,.19,5.71c.3.49,2.62,2.41,2.47,3.06-.37,1.66-5,5-5.56,6.59-1.22,3.28.71,7.24,2.83,8.86,2.68,2,4.63-.24,7.91,1.52,2,1,2.16,4,6.68,4.33,5.28.43,7-5.27,9.4-5.38s6.85,3,9-3.07c.66-1.89-.56-5.49.17-6.89C86.26,51.43,88.93,49.38,87.55,45.52Z"/><path class="cls-3" d="M82.82,38.89s9.35,32.68,12,39.68a73.91,73.91,0,0,1,3.62,12.59s-5.27,5-7.78,4.63-3.85-1-5.19-.8S80.8,64.93,79.54,54.86c-.38-3-1.65-12-1.65-12Z"/><path class="cls-4" d="M78.49,29.68h0v0a21.3,21.3,0,0,0-1.44-2.82,23,23,0,0,0-1.49,2.73h0a2.29,2.29,0,0,0,0,.25,1.49,1.49,0,1,0,3,0A1.09,1.09,0,0,0,78.49,29.68Z"/><path class="cls-5" d="M73.27,12.08c-3-.06-6.43,2.29-7.28,8a.87.87,0,0,0-1.3-.22c-1,.77-.65,2.87-.36,3.54A2.06,2.06,0,0,0,66,24.67,16.51,16.51,0,0,0,67.47,29a10.79,10.79,0,0,1-1.13,6.06c1.31,2.4,7.8,1.54,7.8,1.54A5.24,5.24,0,0,1,73.46,34,10.83,10.83,0,0,1,74,30.56c2.09-.49,5.18-4.47,5.56-9.11C80.07,14.94,76.59,12.14,73.27,12.08Z"/><path class="cls-4" d="M66.72,26.72h0v0a21.4,21.4,0,0,0-1.43-2.82,23.82,23.82,0,0,0-1.5,2.74h0a1.94,1.94,0,0,0,0,.24,1.54,1.54,0,0,0,1.47,1.63,1.57,1.57,0,0,0,1.5-1.61A.88.88,0,0,0,66.72,26.72Z"/><path class="cls-2" d="M65.06,16.49s.92,1.44,4.9.42,5.75-2.76,5.93-3.83S76,11,74.2,10.83a11.71,11.71,0,0,0-5,.84C66.82,12.54,64.08,14.75,65.06,16.49Z"/><path class="cls-2" d="M75.48,11.43c-.37.25.33.86.92,2.56s1.6,6.44,3.16,7.15c.8.37,2.06-.31,2-1.85a9.9,9.9,0,0,0-2.44-6.48C77.4,11.08,76.05,11.05,75.48,11.43Z"/><path class="cls-5" d="M110.36,7.67c-.79-1.45-3.91-1-3.63-1.21s.64-.82.31-1-1.51.56-3.17,1.52-1.81,1.8-1.81,1.8a8.87,8.87,0,0,1-1,2.14c-.41.57-4.65,8.29-6.52,11.23a31.32,31.32,0,0,1-6.44,7.31c-2,1.78-6.93,5.26-10.49,6.17a21.22,21.22,0,0,0-11.23-1.47c-5.38.7-7.76,3.35-7.76,3.35h0a33.43,33.43,0,0,0-3.3,2.92c-.82.69-7.74,7.1-8.9,7.17a1.1,1.1,0,0,1-1.07-.91c-.49-4,.54-11,.54-11.75a9,9,0,0,1,.42-2.33s.35-.77-.44-2.53S44.54,27.06,44.19,27s-.39.61-.31,1-2.17-1.89-3.64-1.19-.71,1.74-.19,2.82,3,3.13,3.62,3.69-1.49,6-2.7,9.62a22,22,0,0,0-1.37,9c.85,4.62,4.66,4.2,6.86,3.43a26.2,26.2,0,0,0,5.17-2.79c1-.8,4.07-2.72,5.78-4.28L56.87,53S54,71,55.74,73.69,76.35,71,76.31,70.94c-.88-2-2.72-4.69-3.38-6.68a7,7,0,0,1,.48-4.73c.07-.14,4.76-8,6.19-12.57a13,13,0,0,0,.76-3.49c.28,0,9.31-6.09,15.15-13.61a38.86,38.86,0,0,0,5-10.37c.93-3.66,2.55-8.48,3.34-8.58s4-.28,5.06-.84S111.15,9.12,110.36,7.67Z"/><path class="cls-6" d="M49.89,45.19s6.88-6.49,8-7.4a16.21,16.21,0,0,1,6-3.14c-.11.41-1.06,2.78,3.1,3.59s8-3.45,8-3.45,3,.79,3.61.53,5.31-3.11,6.85-4.09c1.22.28,3.72,3.9,3.56,5.82-.7,1.23-8.37,7.2-8.37,7.2S78.17,52,76.3,55c-.51.82-3.06,5.26-3.06,5.26s-4.83-2.53-8.13-2.44c-4.22.11-7,.26-8.66,1.17-.07,0,.55-7.58.52-9.57-.8.54-5.35,3.15-5.35,3.15A35.44,35.44,0,0,0,49.89,45.19Z"/><path class="cls-3" d="M74.8,34.71A76.54,76.54,0,0,0,61.46,46.37C57.53,50.94,55.66,54,55,56.64c-.58,2.44.38,6.72-.58,9.22S50.09,81.42,50.3,87.27a28.74,28.74,0,0,0,2.1,9.19l9.14-24.62L66.35,56l10-20.9Z"/><path class="cls-3" d="M73.41,65.59c1.07.41,4.65,8.46,8.49,21.27S93.26,122,95.61,125.09c2.67,3.55,6.47,10.11,7.53,13.09,1.17,3.27-2.87,4.45-5.48,6.12s2,4.11-6.16,5.29c-3.48.51-3.65,3.68-7.87,4.39-6.23,1-8.15.48-13.08-.63s-9-1.47-10.89-2c-2.6-1.22-6.23-79.56-6.23-79.56s1.14-3.71,1.56-3.59C58.43,69.12,73.41,65.59,73.41,65.59Z"/><path class="cls-4" d="M76.59,16.81h0v0a24.07,24.07,0,0,0-.65-2.94,26.28,26.28,0,0,0-1.48,2.55h0q0,.1-.06.24c-.12.88.26,1.67.86,1.76s1.19-.55,1.32-1.44C76.58,16.92,76.59,16.87,76.59,16.81Z"/><path class="cls-2" d="M76.44,18.31c-.53.37-.07.79.37.87A13.06,13.06,0,0,1,78.9,20c.35.18.09-.83-.35-1.24S77,17.91,76.44,18.31Z"/><path class="cls-2" d="M73.3,17.16c.25.54-.62.6-1.17.43a26,26,0,0,0-3.07-.47c-.54-.05.63-.65,1.48-.72C71.55,16.33,73,16.57,73.3,17.16Z"/><path class="cls-7" d="M71.71,31.31a6.75,6.75,0,0,1-.95-.07,3.87,3.87,0,0,1-2.83-1.43.21.21,0,0,1,.06-.28.22.22,0,0,1,.29.06,3.59,3.59,0,0,0,2.54,1.24A5.09,5.09,0,0,0,73,30.74a.21.21,0,1,1,.13.39A4.58,4.58,0,0,1,71.71,31.31Z"/><path class="cls-7" d="M73.62,27.5a1.81,1.81,0,0,1-1.93.85c-.54-.14-.75-1-.35-1.77s1.37-1.38,2.08-1.08C73.91,25.71,74.15,26.56,73.62,27.5Z"/><path class="cls-2" d="M70.75,20.92a1.89,1.89,0,0,1-.39-.05A1.8,1.8,0,0,1,69,19.55a.21.21,0,0,1,.35-.23.28.28,0,0,1,0,.11,1.44,1.44,0,0,0,1,1,1.06,1.06,0,0,0,1.25-.61.21.21,0,1,1,.38.16A1.51,1.51,0,0,1,70.75,20.92Z"/><path class="cls-2" d="M77.33,22.59a1.4,1.4,0,0,1-.34-.05,2.43,2.43,0,0,1-1.4-1.34.21.21,0,0,1,.09-.28.18.18,0,0,1,.26.07l0,0a2.14,2.14,0,0,0,1.15,1.13c.62.19,1-.48,1-.51a.21.21,0,0,1,.28-.09.21.21,0,0,1,.09.28A1.36,1.36,0,0,1,77.33,22.59Z"/><path class="cls-7" d="M66.23,22.83a.21.21,0,0,1-.2-.19c-.21-1.77-1.06-2-1.07-2a.22.22,0,0,1-.16-.25.21.21,0,0,1,.24-.16s1.14.27,1.4,2.36a.2.2,0,0,1-.18.22Z"/><path class="cls-7" d="M74,24.27a2.49,2.49,0,0,1-1.21-.36.21.21,0,0,1-.08-.28.22.22,0,0,1,.28-.08,1.47,1.47,0,0,0,1.54.14c.27-.22.31-.66.13-1.24a3.57,3.57,0,0,1,.07-1.88,3.34,3.34,0,0,1,.71-1.35.22.22,0,0,1,.3,0,.2.2,0,0,1,0,.28l0,0a3,3,0,0,0-.62,1.2A3.1,3.1,0,0,0,75,22.32c.32,1,0,1.5-.25,1.69A1.26,1.26,0,0,1,74,24.27Z"/><path class="cls-6" d="M65.91,26.85a.66.66,0,1,1-1.32,0,.66.66,0,1,1,1.32,0Z"/><path class="cls-6" d="M77.68,29.83a.66.66,0,1,1-.66-.67A.66.66,0,0,1,77.68,29.83Z"/><path class="cls-4" d="M76.2,35.06l3.25-.13S69.11,59.13,66.29,67.37c-2.17,6.33-6.13,17-8.55,24.19C57.11,93.44,55,100.9,55,100.9A16.38,16.38,0,0,1,52,95.51c-.27-.79,3.4-13.15,4.94-17.4C59.71,70.58,69.2,48.48,69.2,48.48S73.36,40,74.9,37.19C75.2,36.64,76.2,35.06,76.2,35.06Z"/><path class="cls-8" d="M56.89,49.09a.22.22,0,0,1-.21-.2c-.15-5.46,2.82-7.36,3-7.43a.21.21,0,0,1,.28.06.22.22,0,0,1-.06.29s-2.9,1.86-2.76,7.07a.2.2,0,0,1-.2.21Z"/><path class="cls-8" d="M77.89,44.91a.19.19,0,0,1-.15-.07.22.22,0,0,1,0-.29,9.94,9.94,0,0,1,3.37-1.89.22.22,0,0,1,.26.13.21.21,0,0,1-.14.26A9.66,9.66,0,0,0,78,44.85.2.2,0,0,1,77.89,44.91Z"/><path class="cls-9" d="M56.07,64.68a.23.23,0,0,1-.11,0,.2.2,0,0,1-.07-.28c.06-.11,6.41-10.91,8-13.27a.2.2,0,0,1,.34.22c-1.56,2.35-7.9,13.15-8,13.25A.18.18,0,0,1,56.07,64.68Z"/><path class="cls-9" d="M56.07,61.33a.27.27,0,0,1-.12,0A.21.21,0,0,1,55.9,61s1.87-2.77,2.93-4.28a.2.2,0,1,1,.33.24c-1,1.51-2.9,4.25-2.92,4.27A.21.21,0,0,1,56.07,61.33Z"/><path class="cls-9" d="M88.47,147.37a.21.21,0,0,1-.19-.13c-3-7.27-5.88-17.6-7.81-25-1.22-4.66-2.13-8.48-2.57-10.35-1-4.34-1-4.37-.86-4.47a.21.21,0,0,1,.29,0,.19.19,0,0,1,0,.14c.09.83,5.65,25.64,11.28,39.48a.21.21,0,0,1-.11.27Z"/><path class="cls-9" d="M96.38,143.19a.21.21,0,0,1-.16-.07c-2.06-2.42-10.41-21-11.44-24.08a.21.21,0,0,1,.13-.26.2.2,0,0,1,.26.13c1,3,9.32,21.55,11.37,23.94a.21.21,0,0,1,0,.29A.19.19,0,0,1,96.38,143.19Z"/><path class="cls-4" d="M84.59,92.37l1.16,5a8.52,8.52,0,0,0,4,.94c2.83,0,7.06-.76,9.09-3.68a33.82,33.82,0,0,0-.78-5.34,7.5,7.5,0,0,1-3.46,3,14,14,0,0,1-7.86,1.08A4.43,4.43,0,0,1,84.59,92.37Z"/><path class="cls-9" d="M89.1,92.34a.19.19,0,0,1-.2-.19,242.24,242.24,0,0,0-3.76-31.08,11.39,11.39,0,0,1-.36-2.36.2.2,0,0,1,.26-.13.19.19,0,0,1,.14.22c0,.15.17,1.05.37,2.19a243.52,243.52,0,0,1,3.76,31.14.2.2,0,0,1-.2.21Z"/></svg>