<svg id="चट्टान" xmlns="http://www.w3.org/2000/svg" viewBox="0 0 150 160"><defs><style>.cls-1{fill:#fff;}.cls-2{fill:#54534f;}.cls-2,.cls-3,.cls-4,.cls-5,.cls-6,.cls-7{fill-rule:evenodd;}.cls-3{fill:#62615a;}.cls-4{fill:#8d8c85;}.cls-5{fill:#9c9c95;}.cls-6{fill:#43423c;}.cls-7{fill:#81807b;}.cls-8{fill:#c2c3bc;}</style></defs><path class="cls-1" d="M125.51,116.14c-8-17.22-14.12-35-21.56-52.56-6.2-11.2-13.76-21.34-21.31-31.73-4-3.57-8.44-9.35-13.65-10.63C57.7,24.55,53.88,39.82,48.86,51.06,38.12,76.51,22.23,97.92,24,123.48,25.38,140,45.73,135,57.31,136.6c3.84,1.17,8,2.88,11.94,1a36.62,36.62,0,0,0,12.18.38c8.14,2.14,16.19-1.43,23.77-3.61,7.06.55,12.94-4.63,19.38-6.76l0-.82C125.82,124.62,126.53,120.44,125.51,116.14Z"/><polygon class="cls-2" points="105.91 100.78 122.4 116.97 122.53 126.29 110.52 130.88 95.22 131.04 94.53 124.51 105.91 100.78"/><path class="cls-3" d="M26,123.66c-.17,1.93,1,3.89,2.7,5.79a6.43,6.43,0,0,0,5.91,3.94c2.48.05,4.94.43,7.42.57,5.16.27,10.36,0,15.49.65,2.42.29,4.61,1.76,7,2,1.56.14,3-.92,4.6-.93,2.15,0,4.24.78,6.38.84,2,.06,3.94-.52,5.92-.47,1.8,0,3.55.85,5.35.75a49,49,0,0,0,8.82-1.5c3.09-.74,6-2.12,9.11-2.82,1.28-.28,2.7.34,3.94-.09,4.74-1.64,9.19-4,13.79-6a15.79,15.79,0,0,0-3.08.13c-4.21,1-8.2,3-12.49,3.47-2.77.31-6.32.82-8.29-1.15C84.91,115,73.68,98.93,61.2,84l-8.82,3Q39.2,105.34,26,123.66Z"/><path class="cls-4" d="M42.71,69.24C35.45,82,29.65,94.52,27.19,107.37c-1,5.35-.78,10.86-1.17,16.29,2.56,1.13,5.19,2.11,7.68,3.39,1.26.64,2.19,1.87,3.52,2.34.86.31,1.86-.4,2.74-.13s1.13,1.41,1.95,1.56a5.75,5.75,0,0,0,3.65-.52c4.2-2.17,7.94-5.11,12-7.55,1.43-.87,3.18-1.24,4.43-2.35a17.86,17.86,0,0,0,2.87-4.17c.46-.74,1.16-1.47,1.17-2.34,0-2.15-.75-4.24-1.12-6.35L59,99.42A106.62,106.62,0,0,1,55.5,89C53.42,78.17,48.67,72.53,42.71,69.24Z"/><path class="cls-5" d="M52.32,47.76c-3,7.56-5.88,15.58-9.61,21.48,3.62,3.07,7.16,8.14,10.65,14.58,1.08,2.71,2,6.13,3.55,6.46.73.15,1.43,0,1.9-1.9A8.89,8.89,0,0,1,60.33,86C59.92,68.53,57.09,52.5,52.32,47.76Z"/><path class="cls-6" d="M98,57.23a76.46,76.46,0,0,1,4.15,7.16c3.62,8.2,6.7,16.63,10,25,2.38,6,4.57,12.07,7.06,18,1.31,3.13,3.78,5.85,4.36,9.19,1,4.25.13,8.34-1.06,9.77-.2-2.12.26-3.72-.72-5.61-1.31-2.51-3.92-4.72-5.76-6.87a105.37,105.37,0,0,1-8.4-10.58c-5.91-9-14.47-17.14-16.67-27.69C89.59,69.17,95.62,63.35,98,57.23Z"/><path class="cls-7" d="M75.56,28.09c-2-1.58-3.53-3.86-5.89-4.75-1.17-.44-2.55.43-3.54,1.18C60.21,29,56.19,38,52.32,47.76c4.1,7,5.65,28.23,8.42,47.66.42,2.92,1.66,5.66,2.7,8.42A24.5,24.5,0,0,0,66,109.4a17.89,17.89,0,0,0,4,3.87c1.51,1.14,3.45,1.64,4.89,2.87a38.73,38.73,0,0,1,4,4.71c1.58,1.85,2.74,4.15,4.71,5.56,1.48,1,3.48,1,5.23,1.51a18.22,18.22,0,0,0,4.21,1c1,0,1.86-.82,2.86-.85s1.88,1.11,2.69.68c2.93-1.56,6.25-3.28,7.75-6.23,1.67-3.27.7-7.3,1-11,.26-3,0-5.3.22-8.33a176.73,176.73,0,0,0-9.84-27.71Q86.66,51.82,75.56,28.09Z"/><path class="cls-3" d="M98,57.23v4.23a8.68,8.68,0,0,1,0,2.22,25.33,25.33,0,0,0-.9,5.45,23.91,23.91,0,0,0,.7,6.42,42,42,0,0,0-3-4.83c-.89-1.06-2.23-1.65-3.23-2.61a13.68,13.68,0,0,1-3-3.43C83.18,53.85,77.58,43.48,73.75,32c-.5-1.5.32-4.13,1.07-4.59,2.08,1.88,4.52,3.42,6.24,5.64C87.09,40.84,92.33,49.18,98,57.23Z"/><path class="cls-8" d="M58.58,84.37a6.62,6.62,0,0,1,.13,3.06,2.2,2.2,0,0,1-2.27,1.69c-1.13-.21-1.66-1.5-2-2.61A126.79,126.79,0,0,0,59,99.21q-1.2-3.83-2.42-7.65A1.66,1.66,0,0,0,58.69,91a4.81,4.81,0,0,0,.7-2.33q.82,3.58,1.63,7.18c-.67-7.78-2-15.48-3.39-23.17-.48-2.72-.88-5.48-1.46-8.19A123,123,0,0,0,58.58,84.37Z"/><path class="cls-8" d="M97,72.34a12.34,12.34,0,0,0-1.88-2.25c-1.48-1.26-3.52-1.73-5-3A34.3,34.3,0,0,1,100.8,82.77a86.43,86.43,0,0,1-2.36-8.36,38.54,38.54,0,0,1-.7-4.41,24.81,24.81,0,0,1,0-4.64,14,14,0,0,0-.79,3.72C96.89,70.17,97,71.25,97,72.34Z"/><path class="cls-8" d="M68.24,111.55a15.48,15.48,0,0,0,2.44,1.63c2.48,1.45,5,3,6.65,5.4l-7-4.71a14.27,14.27,0,0,1-3-2.43,15.43,15.43,0,0,1-2-3.85A11.45,11.45,0,0,0,68.24,111.55Z"/><path class="cls-8" d="M98.89,128.52a1.54,1.54,0,0,1-.5.2,1.46,1.46,0,0,1-.62-.09l-1.33-.39a2.62,2.62,0,0,0,2.4.65,3.83,3.83,0,0,0,.78-.4c.59-.38,1.19-.75,1.79-1.12.39-.25,1.46-.74,1.58-1.19a15,15,0,0,0-2,1.17C100.29,127.75,99.59,128.14,98.89,128.52Z"/><path class="cls-8" d="M100.69,129.91a8.3,8.3,0,0,1-1.07-.55,2.93,2.93,0,0,1-.65-.51s0,0,0,0-.2.07-.25.1a1.89,1.89,0,0,0,.7.55,4.84,4.84,0,0,0,.66.28C100.23,129.82,100.49,129.83,100.69,129.91Z"/><path class="cls-8" d="M107.49,104.47c0,1.25-.12,2.51,0,3.76.1-1.35.22-2.7.36-4l4.19,4.68-1.67-2.21c-.34-.44-.68-.89-1-1.36A18.73,18.73,0,0,1,107.6,102q-.33-.84-.63-1.71c-.11-.34-.24-1.31-.6-1.43A30.36,30.36,0,0,1,107.49,104.47Z"/></svg>