<svg id="पतंग" xmlns="http://www.w3.org/2000/svg" viewBox="0 0 150 160"><defs><style>.cls-1,.cls-6{fill:#fff;}.cls-1{stroke:#fff;stroke-miterlimit:10;stroke-width:5px;}.cls-2{fill:#dbcaca;}.cls-3{fill:#f05da5;}.cls-4{fill:#ffae63;}.cls-5{fill:#ffdc74;}.cls-7{fill:#42a6c5;}</style></defs><path class="cls-1" d="M20.37,143.46,20,142.34c5.56-2,11.52-3.6,15.61-8a13.19,13.19,0,0,1-6.46-2.09c-4.56-2.82-6.14-11.47-1.06-14.52,4.52-2.94,11.3,1.3,12.11,6.25A12.31,12.31,0,0,1,38,133.11c18.69-2.78,31.34-17.59,38.41-38.25l1.13.36c-7.13,21.13-20.94,37.16-40.44,39.12C33,139.44,26.33,141.41,20.37,143.46Zm11.14-25.55c-7.15.18-6.62,10.3-1.72,13.31a12.43,12.43,0,0,0,6.75,1.93C41.15,127.6,39.74,118.62,31.51,117.91Z"/><path class="cls-1" d="M129.58,74.75c-4.22,2.48-50.74,30-56.3,33.24-1.12-5-14.46-64.65-15.22-68l56-23.17C115.53,22.36,128.49,70.68,129.58,74.75Z"/><polygon class="cls-1" points="106.06 35.68 76.98 48.77 85.78 78.45 114.43 66.6 106.06 35.68"/><path class="cls-1" d="M105.17,61a10,10,0,0,0-5.34-13.1C87.41,43.2,80.06,60.69,92.08,66.3A10,10,0,0,0,105.17,61Z"/><path class="cls-1" d="M65.7,42.22a10.92,10.92,0,0,1-5.94,5.32L58.06,40l8.25-3.41A8.4,8.4,0,0,1,65.7,42.22Z"/><path class="cls-1" d="M129.58,74.75l-8.3,4.89c-2.6-4.49,2-11.14,6.11-13.06Z"/><polygon class="cls-1" points="74.85 103 61.03 110.01 76.41 117.9 74.85 103"/><path class="cls-2" d="M20.37,143.46,20,142.34l1.54-.52c4.1-1.4,8.35-2.85,11.8-5.45a16,16,0,0,0,2.27-2.07,13.19,13.19,0,0,1-6.46-2.09,10.19,10.19,0,0,1-4.24-8.43,6.75,6.75,0,0,1,9.83-6.36,9.46,9.46,0,0,1,5.46,6.52A12.31,12.31,0,0,1,38,133.11a25.35,25.35,0,0,0,6.75-1.47c14.26-5.12,25.79-18.52,31.66-36.78l1.13.36c-6,18.61-17.78,32.29-32.39,37.53a25.46,25.46,0,0,1-8,1.59,17.93,17.93,0,0,1-3.1,3c-3.61,2.72-7.95,4.19-12.14,5.62Zm11.14-25.55a5.3,5.3,0,0,0-2.81.79,5.81,5.81,0,0,0-2.62,5.1,9,9,0,0,0,3.71,7.42,12.43,12.43,0,0,0,6.75,1.93,11.32,11.32,0,0,0,2.48-9,8.25,8.25,0,0,0-4.78-5.66A6.88,6.88,0,0,0,31.51,117.91Z"/><polygon class="cls-3" points="129.58 74.75 121.28 79.64 73.28 107.99 59.76 47.54 58.06 39.95 66.31 36.54 114.03 16.78 127.39 66.58 129.58 74.75"/><polygon class="cls-4" points="106.06 35.68 76.98 48.77 85.78 78.45 114.43 66.6 106.06 35.68"/><path class="cls-5" d="M105.17,61A10,10,0,1,0,92.08,66.3,10,10,0,0,0,105.17,61Z"/><path class="cls-4" d="M65.7,42.22a10.6,10.6,0,0,1-4.43,4.61,9.87,9.87,0,0,1-1.51.71L58.06,40l8.25-3.41A8.4,8.4,0,0,1,65.7,42.22Z"/><path class="cls-4" d="M129.58,74.75l-8.3,4.89a5.29,5.29,0,0,1-.74-2,7.87,7.87,0,0,1,.62-3.9,13,13,0,0,1,6.23-7.18Z"/><rect class="cls-6" x="42.2" y="62.44" width="101.61" height="1.19" transform="translate(-2.89 121.59) rotate(-65.54)"/><path class="cls-6" d="M129.15,75.15C95.74,39.51,58.46,40.54,58.09,40.54L58,39.35c.37,0,38.21-1,72,35Z"/><polygon class="cls-7" points="74.85 103 61.03 110.01 76.41 117.9 74.85 103"/></svg>