<svg id="कछुआ" xmlns="http://www.w3.org/2000/svg" viewBox="0 0 150 160"><defs><style>.cls-1{fill:#fff;}.cls-2{fill:#6cb023;}.cls-3{fill:#71bc2d;}.cls-4{fill:#6bc62a;}.cls-5{fill:#026838;}.cls-6{fill:#00873d;}.cls-7{fill:#0b9144;}.cls-8{fill:#0c7330;}.cls-9{fill:#087d37;}.cls-10{fill:#231f20;}</style></defs><path class="cls-1" d="M128.87,80.48a4.69,4.69,0,0,0-5.4-4.41,67.2,67.2,0,0,0-5.13-10.25l.15-.26c-5.54-9-12.5-15.44-20.82-18.91l-.06.12A31.62,31.62,0,0,0,68.67,49l.14.25c-7.15,4.5-12.59,11.09-17.07,18.18h0A84.66,84.66,0,0,0,47,76.14a4.79,4.79,0,0,0-3.31.44c-5.41-11.68-19.58-10.8-26.39-1.42-2.52,2.63-5.79,4.41-5.47,11.22,0,15.42,13.2,9.84,21.94,5.78,3.34,2.09,9.42,5.72,15.07,5.24l.1.4c-10,8-3,13.48,7.12,13,8.72-.35,20.16-1,18-8.37l.56-.06c-.43-1.14-1.18-3.55-1.51-4.67a132,132,0,0,0,30.91-1c.11.42.22.86.34,1.31C90.9,109.1,108.7,112.94,118,110.43c10.18-.67,11.07-3.17,10.74-7.71l.57,0c-1.3-3.67-3.67-11-3.69-13.55a10.42,10.42,0,0,0,11.2-6.72Z"/><path class="cls-2" d="M71.9,100.7H72s-.09-.24-.23-.66A12.44,12.44,0,0,0,71,97.65c-.88-2.84-2-6.94-2-9.05,0-2.92,2.51-11.42,2.51-11.42h-13s-2.93,8.81-3,11.87c0,1.9.94,5.83,1.78,8.88-2.95,2.27-5.2,5-5.2,6.42,0,2.77,4.5,3.88,10,3.88s10-1.11,10-3.88A21,21,0,0,0,71.9,100.7Z"/><path class="cls-2" d="M126.45,100.93h.09l-.22-.67a12.61,12.61,0,0,0-.77-2.37c-.87-2.84-2-6.94-2-9.06,0-2.92.15-7.53.15-7.53l-10.65-3.88s-2.94,8.81-3,11.87c0,1.89.94,5.83,1.77,8.88-2.94,2.27-5.19,5-5.19,6.42,0,2.77,4.49,3.88,10,3.88s10-1.11,10-3.88A21,21,0,0,0,126.45,100.93Z"/><path class="cls-3" d="M123.9,81.33a11.94,11.94,0,0,0-3.19-2.59c.13-.45.2-.72.2-.72h-1.53c-7.07-3.55-20.08-5.93-35-5.93-20.92,0-38.14,4.69-40.38,10.72a2.74,2.74,0,0,1-.71-.68c-1.14-1.83-.68-6.85-5-9.36s-5.93-3.42-9.36-3-8.15,4.29-10,6.62c-1.53,1.89-5.48,3.65-5,9.82s1.82,9.13,6.62,8.44S34,89.89,34,89.89s2,1.37,6.84,3.88c3.1,1.62,7.15,1.72,9.63,1.59.26,1.08.55,2.18.82,3.18-2.94,2.27-5.2,5-5.2,6.42,0,2.77,4.5,3.88,10.05,3.88s10-1.11,10-3.88a21,21,0,0,0-.32-3.65h.09l-.22-.66a12.25,12.25,0,0,0-.77-2.38c-.34-1.11-.72-2.41-1.06-3.71a121.41,121.41,0,0,0,20.54,1.66,121,121,0,0,0,21.23-1.78c.32,1.45.72,3,1.09,4.33-2.95,2.28-5.2,5-5.2,6.42,0,2.78,4.5,3.88,10,3.88s10-1.1,10-3.88a20.94,20.94,0,0,0-.32-3.64h.09s-.09-.25-.23-.67a12.35,12.35,0,0,0-.76-2.37,52.12,52.12,0,0,1-1.89-7.79,15.63,15.63,0,0,0,5.18-3.47c1.22-.09,2.6-.16,4-.16a7.07,7.07,0,0,0,6.08-3.34Z"/><path class="cls-4" d="M117.32,79.71c.12-.44.2-.71.2-.71H116c-6.84-3.43-19.45-5.74-33.88-5.74-16.84,0-31.19,3.14-36.8,7.56a5.87,5.87,0,0,0-1.34,2,3.57,3.57,0,0,1-.35-.28,4.83,4.83,0,0,0-.6,1.11,2.31,2.31,0,0,1-.69-.66c-1.11-1.76-.66-6.63-4.86-9.06s-5.75-3.31-9.07-2.87-7.89,4.15-9.72,6.41c-1.36,1.68-4.7,3.27-4.88,8.16,0,.2,0,.4,0,.62.45,6.16,1.82,9.13,6.62,8.44S34,89.89,34,89.89s2,1.37,6.84,3.88c3.1,1.62,7.15,1.72,9.63,1.59.26,1.08.55,2.18.82,3.18-2.94,2.27-5.2,5-5.2,6.42,0,2.7,4.3,3.82,9.66,3.87,4.92-.12,8.77-1.22,8.77-3.74a20.41,20.41,0,0,0-.31-3.53h.09L64,100.9a11.64,11.64,0,0,0-.74-2.3c-.33-1.07-.7-2.33-1-3.59l1.78.29c-.07-.25-.13-.5-.2-.75a121.41,121.41,0,0,0,20.54,1.66A124.84,124.84,0,0,0,102.17,95l.54-.09v0c1-.15,2-.31,2.91-.48.32,1.45.72,3,1.09,4.33-2.95,2.28-5.2,5-5.2,6.42,0,2.51,3.68,3.65,8.48,3.85,4.64-.19,8.19-1.3,8.19-3.72a20.41,20.41,0,0,0-.31-3.53H118s-.09-.24-.22-.65a12.34,12.34,0,0,0-.74-2.3,49.73,49.73,0,0,1-1.83-7.54,15.23,15.23,0,0,0,5-3.36c.9-.06,1.9-.12,2.94-.14a7,7,0,0,0,.54-.55c1.06-.08,2.24-.13,3.47-.15A6.87,6.87,0,0,0,130,84.53l-9.56-2.32A11.46,11.46,0,0,0,117.32,79.71Z"/><path class="cls-5" d="M47.67,79.67S58.08,83,80.34,84.4s42.15-5.2,42.15-5.2S112.1,46,84.13,46.52C60.45,47,47.67,79.67,47.67,79.67Z"/><path class="cls-6" d="M77.76,60.77H91.32L98,49.13a31.92,31.92,0,0,0-14-2.84,27.12,27.12,0,0,0-12.63,3.5Z"/><path class="cls-7" d="M81.51,49.2a21.48,21.48,0,0,0-9.1,2.29l5.35,9.28h9.56l5.37-9.3A25.65,25.65,0,0,0,81.51,49.2Z"/><polygon class="cls-6" points="77.76 84.59 70.98 72.85 77.76 61.1 91.32 61.1 98.1 72.85 91.32 84.59 77.76 84.59"/><polygon class="cls-7" points="89.45 63.27 77.14 63.27 71.3 73.39 77.76 84.59 89.45 84.59 95.6 73.93 89.45 63.27"/><path class="cls-6" d="M112.09,72.64l4.06-7c-3.88-6.06-9.64-12.68-17.66-16.39L91.76,60.9l6.78,11.74Z"/><path class="cls-7" d="M97.57,52.43,92.22,61.7l6.32,10.94h10.78l3.5-6.06C109.47,61.35,104.5,55.63,97.57,52.43Z"/><path class="cls-6" d="M54.09,67.49l3,5.15H70.63L77.41,60.9l-6.2-10.73C63.79,54.33,58.05,61.34,54.09,67.49Z"/><path class="cls-7" d="M69.68,52.18c-6.67,3.74-11.85,10-15.44,15.56l2.83,4.9H69.15L75.32,62Z"/><path class="cls-6" d="M52.55,80.88a185.22,185.22,0,0,0,24.5,3.29L70.63,73.05H57.07Z"/><path class="cls-7" d="M56.45,74.58l-3.67,6.35a178.36,178.36,0,0,0,20.74,2.95l-5.37-9.3Z"/><path class="cls-6" d="M91.88,84.48a130.3,130.3,0,0,0,24.7-3.64L112.06,73H98.5Z"/><path class="cls-7" d="M113,81.37l-3.86-6.69H97.54l-5.66,9.8c.55,0,1.09-.06,1.63-.09A111.76,111.76,0,0,0,113,81.37Z"/><path class="cls-6" d="M116.19,66.15l-3.89,6.73,4.56,7.89c3.55-.88,5.63-1.57,5.63-1.57A61.68,61.68,0,0,0,116.19,66.15Z"/><path class="cls-7" d="M112.71,73.6l4,7c2.47-.64,3.9-1.11,3.9-1.11a50.75,50.75,0,0,0-5.16-10.69Z"/><path class="cls-6" d="M52.21,80.81l4.61-8-2.9-5a76.19,76.19,0,0,0-6.25,11.9S49.16,80.14,52.21,80.81Z"/><path class="cls-7" d="M47.73,79.69c.28.08,1.56.46,3.87,1L55.44,74,53,69.75A65.52,65.52,0,0,0,47.73,79.69Z"/><path class="cls-8" d="M126.75,79.83a2.68,2.68,0,0,1-1.86,3.34,137.57,137.57,0,0,1-79.63,0,2.66,2.66,0,0,1-1.85-3.34h0a2.7,2.7,0,0,1,3.37-1.69,132.16,132.16,0,0,0,76.59,0,2.71,2.71,0,0,1,3.38,1.69Z"/><path class="cls-9" d="M46.59,80.47a2.78,2.78,0,0,0-3.09,1.14,2.83,2.83,0,0,0,1.76,1.56,137.8,137.8,0,0,0,38.79,5.88,154.65,154.65,0,0,0,36.18-4.57l.35-.09c1.33-.39,2.07-1.53,1.65-2.59A2.71,2.71,0,0,0,119,80.47,149.51,149.51,0,0,1,46.59,80.47Z"/><path class="cls-10" d="M26.79,82.74a1.64,1.64,0,1,1-1.64-1.64A1.63,1.63,0,0,1,26.79,82.74Z"/><path class="cls-10" d="M22.77,89.57l-.41-.37a11.28,11.28,0,0,1-7.28,3c.09.18.18.36.28.53A11.48,11.48,0,0,0,22.77,89.57Z"/></svg>