<svg id="Layer_2" data-name="Layer 2" xmlns="http://www.w3.org/2000/svg" viewBox="0 0 150 160"><defs><style>.cls-1,.cls-10{fill:#d0b6a1;}.cls-1,.cls-2,.cls-3,.cls-4,.cls-5,.cls-6,.cls-7,.cls-8,.cls-9{stroke:#fff;stroke-miterlimit:10;stroke-width:5px;}.cls-11,.cls-2{fill:#7d461a;}.cls-12,.cls-17,.cls-3,.cls-8{fill:#33190c;isolation:isolate;}.cls-12,.cls-3{opacity:0.26;}.cls-13,.cls-4{fill:#925b26;}.cls-14,.cls-5{fill:#e1c4b2;}.cls-15,.cls-6{fill:#fdecd9;}.cls-16,.cls-7{fill:#f3dbc7;}.cls-17,.cls-8{opacity:0.41;}.cls-18,.cls-9{fill:#e07f21;}</style></defs><g id="Layer_8" data-name="Layer 8"><path class="cls-1" d="M137.13,129.93c0,1.44-33.41,2.6-62,2.6s-41.5-1.16-41.5-2.6,31.93-2.6,60.51-2.6S137.13,128.5,137.13,129.93Z"/><path class="cls-2" d="M32.5,92.89Q29,89.53,25.47,86q-1.75-1.75-3.42-3.61c-1.1-1.24-2.21-2.49-3.3-3.81A47.13,47.13,0,0,1,9.47,60.73a30.56,30.56,0,0,1-.8-10.22,27.17,27.17,0,0,1,3-9.82,23.48,23.48,0,0,1,2.91-4.29A21.89,21.89,0,0,1,18.46,33a30.54,30.54,0,0,1,9.26-4.11,22,22,0,0,1,5.1-.81,13.28,13.28,0,0,1,5.26.81,11,11,0,0,1,2.4,1.33,20,20,0,0,1,2,1.72c1.19,1.18,2.24,2.39,3.38,3.31a7.79,7.79,0,0,0,1.77,1.12,2.07,2.07,0,0,0,.47.18,2.13,2.13,0,0,0,.49.15,9.46,9.46,0,0,0,1.06.21A12.71,12.71,0,0,0,54,36.63,20.31,20.31,0,0,0,58.28,35c1.4-.69,2.75-1.51,4.13-2.35s2.81-1.71,4.27-2.51a25.85,25.85,0,0,1,4.77-2A18.59,18.59,0,0,1,82,28.3,16.45,16.45,0,0,1,93.59,46v.11a3.05,3.05,0,0,1-6.06-.75,3.35,3.35,0,0,1,.11-.55,10,10,0,0,0-.84-7.5,11.52,11.52,0,0,0-2.48-3.2,12.85,12.85,0,0,0-3.57-2.19,13.15,13.15,0,0,0-4.19-.94,14.86,14.86,0,0,0-4.36.31A32.1,32.1,0,0,0,63.76,35c-1.42.81-2.86,1.62-4.38,2.34A22.58,22.58,0,0,1,54.52,39a15.43,15.43,0,0,1-5.25.27c-.45-.07-.89-.15-1.33-.26-.21-.05-.44-.14-.66-.21a5.4,5.4,0,0,1-.67-.25,10.21,10.21,0,0,1-2.33-1.45C42.9,36,41.82,34.75,40.7,33.67a10.66,10.66,0,0,0-3.54-2.43,11,11,0,0,0-4.29-.62,19.53,19.53,0,0,0-4.49.76A27.45,27.45,0,0,0,20,35.27a18.38,18.38,0,0,0-3.33,3,19.74,19.74,0,0,0-2.45,3.76,23.36,23.36,0,0,0-2.33,8.75,26.24,26.24,0,0,0,1,9,41.45,41.45,0,0,0,9.29,15.88A116.33,116.33,0,0,0,36.38,88.44,2.94,2.94,0,1,1,32.69,93l-.18-.16Z"/><path class="cls-3" d="M86.41,32.18s7.11,7.67,1.67,16.39C88.08,48.57,96.27,40.79,86.41,32.18Z"/><path class="cls-3" d="M37.18,90c-9-5-17.63-15.1-17.63-15.1A60.3,60.3,0,0,0,29.67,86.24a73.56,73.56,0,0,1-8-6.39A51.35,51.35,0,0,0,36.5,91.62l.69-1.12-.29-.13Z"/><path class="cls-4" d="M134.14,103a223.83,223.83,0,0,1-20.51,11.49c-1.87.94-3.63,1.75-5.39,2.55l-1.26.56c-1.73.77-3.43,1.48-5.09,2.15a134.44,134.44,0,0,1-29.35,8.44l-2.09.31-.44.06-2,.25c-3,.35-5.7.51-8.08.56a57.35,57.35,0,0,1-11.25-.78c-1-.19-1.5-.33-1.5-.33-.79-.69-1.54-1.4-2.25-2.11-.47-.47-.94-.94-1.36-1.4a53.51,53.51,0,0,1-8.49-11.92c-.36-.68-.69-1.35-1-2l-.33-.74h0c-.28-.63-.55-1.25-.79-1.88a42.78,42.78,0,0,1-3.25-12.78,52.65,52.65,0,0,1,9.19-17c.42-.52.83-1,1.26-1.56a4.82,4.82,0,0,1,.36-.43c.48-.58,1-1.15,1.5-1.72A111.08,111.08,0,0,1,60.42,58.7c.65-.46,1.3-.94,1.95-1.36s1.38-.94,2.06-1.41c.94-.61,1.88-1.21,2.82-1.79A199.62,199.62,0,0,1,99.84,37.42L122.64,81l.94,1.78,5.81,11.15.13.21Z"/><path class="cls-2" d="M68,74a1.19,1.19,0,1,0,.49-1.61A1.19,1.19,0,0,0,68,74Z"/><path class="cls-2" d="M68.67,66.52a1.19,1.19,0,1,0-.49,1.61A1.19,1.19,0,0,0,68.67,66.52Z"/><path class="cls-2" d="M60.85,125a3.74,3.74,0,0,1,4.56-1.17l.49.22c.74.71,1.5,1.41,2.27,2.08a2.73,2.73,0,0,1,.28,1.68,3.74,3.74,0,0,1-.42,1.11l1.27-.15a4.21,4.21,0,0,0,.27-1.48l1.54,1.23,2.33-.36A67.35,67.35,0,0,1,46.33,70.41q-.94.89-1.77,1.77a71.2,71.2,0,0,0,.25,8,5.1,5.1,0,0,0-5.32-2.08l-.23.08A63.22,63.22,0,0,0,35,84.12a75.13,75.13,0,0,0,4.69,19,73.63,73.63,0,0,0,15.85,24.48c.62.64,1.25,1.25,1.88,1.88h2.68A5.29,5.29,0,0,1,60.85,125ZM37.68,90.32A69.72,69.72,0,0,1,36.57,83a4.92,4.92,0,0,1,2-3.39,3.59,3.59,0,0,1,4.58.38c1.29,1.12,2.45,2.91,1.52,4.6a3,3,0,0,1-4.09,1.34,1.88,1.88,0,0,1-.24-.14,2.12,2.12,0,0,1-.85-2.32,1.67,1.67,0,0,1,.77-1,.8.8,0,0,1,1.1.21s0,.09.07.13c.27.63,1.21.13.93-.49a1.87,1.87,0,0,0-2.52-.82,1.75,1.75,0,0,0-.29.18,3,3,0,0,0-1.13,2.89c.37,2.46,3.29,3.36,5.32,2.33a4.46,4.46,0,0,0,1.73-1.58q.48,3,1.22,5.85a5,5,0,0,0-5-1.13,5.48,5.48,0,0,0-3.22,3.43C38.14,92.41,37.9,91.34,37.68,90.32Zm1.4,5.62a5.38,5.38,0,0,1,1.77-4.23,3.77,3.77,0,0,1,4.69,0,6,6,0,0,1,1.77,2c.13.44.27.88.41,1.32a2.75,2.75,0,0,1-.25,1.32A3.13,3.13,0,0,1,43.38,98l-.25-.11a2.22,2.22,0,0,1-1.05-2.32,1.68,1.68,0,0,1,.7-1.09.81.81,0,0,1,1.14.12.57.57,0,0,1,.08.13c.33.63,1.25,0,.94-.58a1.92,1.92,0,0,0-2.64-.65,1.83,1.83,0,0,0-.31.24,3,3,0,0,0-.94,3c.58,2.5,3.64,3.17,5.63,2a4.63,4.63,0,0,0,1.67-1.87h0q1.07,3,2.38,5.87a5.08,5.08,0,0,0-5.32-.56,5.47,5.47,0,0,0-2.67,3.65A72.54,72.54,0,0,1,39.08,95.94Zm9.68,20.63a73.12,73.12,0,0,1-5.08-8.74,5.07,5.07,0,0,1,1.23-3.75,3.76,3.76,0,0,1,4.69-.68c1.54.84,3.1,2.38,2.55,4.28a3.14,3.14,0,0,1-3.8,2.29l-.27-.08a2.21,2.21,0,0,1-1.37-2.14,1.7,1.7,0,0,1,.56-1.19.82.82,0,0,1,1.15,0,.48.48,0,0,1,.09.11c.41.57,1.23-.14.83-.71a1.94,1.94,0,0,0-2.72-.28,1.79,1.79,0,0,0-.27.28,3.06,3.06,0,0,0-.49,3.15c.94,2.38,4,2.63,5.85,1.15a4.55,4.55,0,0,0,1.55-2.53c.54.94,1.1,1.93,1.69,2.88s1,1.61,1.6,2.41a4.77,4.77,0,0,0-4.47.41,5.63,5.63,0,0,0-2.39,4.52C49.39,117.51,49.07,117,48.76,116.57ZM51,119.66a5.24,5.24,0,0,1,.7-4.45A3.75,3.75,0,0,1,56.26,114a6.66,6.66,0,0,1,1.74,1l1.08,1.43a2.61,2.61,0,0,1,.16,1.51,3.14,3.14,0,0,1-3.54,2.68l-.21,0a2.2,2.2,0,0,1-1.59-2,1.63,1.63,0,0,1,.42-1.24.81.81,0,0,1,1.14-.14.47.47,0,0,1,.1.1c.47.51,1.21-.29.75-.8a1.93,1.93,0,0,0-2.72,0,2.42,2.42,0,0,0-.25.31,3.06,3.06,0,0,0-.15,3.18c1.18,2.27,4.31,2.19,6,.51A4.58,4.58,0,0,0,60.38,118q1.88,2.27,3.93,4.37a4.43,4.43,0,0,0-3,.74,5.75,5.75,0,0,0-2.3,5.32,71.09,71.09,0,0,1-8-8.82Z"/><path class="cls-2" d="M72.28,79.44A1.18,1.18,0,0,0,70.65,79,1.13,1.13,0,1,0,71.82,81,1.18,1.18,0,0,0,72.28,79.44Z"/><path class="cls-2" d="M67.33,59.37a1.19,1.19,0,0,0-2.1,1.12,1.21,1.21,0,0,0,1.64.41A1.2,1.2,0,0,0,67.33,59.37Z"/><path class="cls-2" d="M73.38,67.41a80.43,80.43,0,0,1-1.77-16l-2,1.22A83.07,83.07,0,0,0,94.7,109.82a83.94,83.94,0,0,0,10.48,8.62c.74-.31,1.48-.63,2.22-.93A81,81,0,0,1,73.38,67.41Z"/><path class="cls-2" d="M94.87,113.69a1.19,1.19,0,1,0-.47,1.52A1.18,1.18,0,0,0,94.87,113.69Z"/><path class="cls-2" d="M64.7,127.14c.47.52,1.21-.28.75-.8a1.93,1.93,0,0,0-2.73,0,1.81,1.81,0,0,0-.25.3,3,3,0,0,0-.34,2.7l1.14-.07a2,2,0,0,1-.23-.86,1.68,1.68,0,0,1,.41-1.25.81.81,0,0,1,1.14-.14A.52.52,0,0,1,64.7,127.14Z"/><path class="cls-2" d="M99.39,117.65a1.19,1.19,0,0,0-2.1,1.12h0a1.19,1.19,0,1,0,2.1-1.12Z"/><path class="cls-2" d="M82.51,55.23a43,43,0,0,0,.35,5.2,6.29,6.29,0,0,1-6.92-4.37,8.82,8.82,0,0,1,2-8.26c-.68.38-1.36.75-2,1.15a10.11,10.11,0,0,0-.74,1.6,8.28,8.28,0,0,0,2.63,9.66A7.06,7.06,0,0,0,81,61.5a3.47,3.47,0,0,0-.85,2.89,3.35,3.35,0,0,0,2.33,2.48,6,6,0,0,0-2.22,4.36,5.61,5.61,0,0,0,5.64,5.51,9.17,9.17,0,0,0-2.48,7.17,8.45,8.45,0,0,0,6.24,7.15,9.06,9.06,0,0,0,3.11.31,4.18,4.18,0,0,0-.19,4.53,4.77,4.77,0,0,0,4.69,2,7.39,7.39,0,0,0-.72,6.78,6.67,6.67,0,0,0,7.26,3.75,7,7,0,0,0,2.34-.79,4.6,4.6,0,0,0,.5,2.82,4.4,4.4,0,0,0,5,2,4.93,4.93,0,0,0,1.45-.62,5.88,5.88,0,0,0,.37,2.75l.94-.45a4.61,4.61,0,0,1-.07-3.13,34.2,34.2,0,0,0,3.22,1.57l2-1.05a37.31,37.31,0,0,1-9.71-5.51A56.26,56.26,0,0,1,97.68,92.19a106.55,106.55,0,0,1-9.11-17.14A53.84,53.84,0,0,1,84.24,57.5,37,37,0,0,1,86,43.64l-2.08,1A37.56,37.56,0,0,0,82.51,55.23Zm30.94,55.17a3.93,3.93,0,0,1-5,.52,3.31,3.31,0,0,1-.58-4.48h0a42.08,42.08,0,0,0,5.52,4Zm-6.38-4.62-.11.13a6.25,6.25,0,0,1-6.45,1.18,5.63,5.63,0,0,1-3.28-6.28,5.92,5.92,0,0,1,2-3.56,55.31,55.31,0,0,0,7.72,8.53ZM94.7,91l.17-.06q1.71,2.82,3.65,5.48a4,4,0,0,1-5-.89,3.16,3.16,0,0,1,.91-4.38ZM94.34,90h-.06a8,8,0,0,1-7.75-1.87A7.45,7.45,0,0,1,85,80a7.56,7.56,0,0,1,2.44-3.25A108.77,108.77,0,0,0,94.36,90ZM84,67.08c.54,2.07,1.19,4.1,1.93,6.1.31.82.62,1.62.94,2.42a4.68,4.68,0,0,1-5.47-2.73,4.79,4.79,0,0,1,2.68-5.79Zm-1.15-5.63h0c.22,1.54.51,3.07.88,4.58a2.34,2.34,0,0,1-.94-4.58Z"/><path class="cls-2" d="M90.42,108.81a1.19,1.19,0,0,0-2.1,1.13h0a1.19,1.19,0,1,0,2.1-1.13Z"/><path class="cls-2" d="M74.79,85.79a1.19,1.19,0,1,0-.47,1.52A1.19,1.19,0,0,0,74.79,85.79Z"/><path class="cls-2" d="M81.63,98.13a1.19,1.19,0,1,0-.49,1.61A1.19,1.19,0,0,0,81.63,98.13Z"/><path class="cls-2" d="M77.71,92.27a1.19,1.19,0,1,0-.49,1.61A1.19,1.19,0,0,0,77.71,92.27Z"/><path class="cls-2" d="M85.94,104.22a1.19,1.19,0,1,0-2.1,1.13h0a1.19,1.19,0,0,0,2.1-1.13Z"/><path class="cls-3" d="M107.92,90.41c-7,3.61-14.06,7.06-21.27,10.15q-4.31,1.88-8.69,3.51h-.22l.13,0h-.06l-.15.06h-.12l-.45.16-2,.72c-1.37.48-2.74.94-4.12,1.38a147.27,147.27,0,0,1-17.06,4.41c-3.23.62-6.49,1.12-9.75,1.48l-1.24.13h-.06c-.81.06-1.63.13-2.45.18-1.74.1-3.48.17-5.24.19h-.07a53.57,53.57,0,0,0,8.49,11.93c.43.47.89.94,1.36,1.4,22-2.23,43.05-10.32,62.87-20.12,3.6-1.79,7.16-3.62,10.72-5.49A43.56,43.56,0,0,1,107.92,90.41Z"/><path class="cls-3" d="M118.72,103.93a193.87,193.87,0,0,1-56.67,22.29q-6.63,1.44-13.38,2.44a56.58,56.58,0,0,0,11.25.77A196.18,196.18,0,0,0,107,113.36q7.63-3.75,14.9-8.15A24,24,0,0,1,118.72,103.93Z"/><path class="cls-5" d="M133,104.83a11.18,11.18,0,0,1-5.52,1.33c-9.71-.13-18-8.08-23.2-15.21A77.85,77.85,0,0,1,91.4,62.19,42.79,42.79,0,0,1,90.17,51.5c.14-4.17,1.07-9.71,4.69-12.56,6.2-4.87,14.28-1.87,19.94,1.6a50.28,50.28,0,0,1,16.47,17,65.41,65.41,0,0,1,8.63,28.56,31.85,31.85,0,0,1-.35,9.09C138.77,99,136.72,102.85,133,104.83Z"/><path class="cls-6" d="M140.05,93.9a31.21,31.21,0,0,0,.15-8.74,66.23,66.23,0,0,0-8.62-27.66,50.78,50.78,0,0,0-15.74-16.6c-5.38-3.5-13-6.5-18.7-1.87C93.76,41.64,93,47,93,50.93a41.81,41.81,0,0,0,1.35,10.32A79.37,79.37,0,0,0,107,89.14c5,7,12.92,14.76,22,15.07a10.1,10.1,0,0,0,5.14-1.18C137.53,101.21,139.36,97.57,140.05,93.9Z"/><path class="cls-7" d="M123.86,83a4,4,0,0,1-2,.46c-3.58-.12-6.7-3.2-8.66-5.93a31.27,31.27,0,0,1-5-11,17.23,17.23,0,0,1-.52-4c0-1.57.32-3.66,1.63-4.69,2.24-1.79,5.23-.62,7.35.76a20,20,0,0,1,6.2,6.57,26,26,0,0,1,3.38,10.86,12.39,12.39,0,0,1,0,3.44A5,5,0,0,1,123.86,83Z"/><path class="cls-7" d="M130,62.71v-.05h-.2c-1.53,0-2.52-.93-3.55-2s-2-2-3.56-2.12a12.47,12.47,0,0,0-2.07-4.92,12.4,12.4,0,0,1-2.15-5.35h0v-.12H118v.07h0c-.51,1.56-1.18,1.49-2.13,1.38a2,2,0,0,0-2.46,1.11,9.06,9.06,0,0,0-3.21-3.24,9.57,9.57,0,0,1-3.6-3.94h-.33v0a.06.06,0,0,0,0,.06v.19h0c.73,2.68.38,3.51,0,4.38a5.17,5.17,0,0,0-.25,3.75,2.56,2.56,0,0,0-2.82-.18c-.71.34-1.32.62-3.15-.71h-.8a.11.11,0,0,0,0,.08h0a.37.37,0,0,0,0,.21h0a12.73,12.73,0,0,1,2.41,5.3,12.58,12.58,0,0,0,1.19,3.43,14.15,14.15,0,0,0,.94,1.52c-1.16.59-1.23,1.81-1.31,2.89s-.14,2.24-1.39,2.62H101l-.06.07h0v.3a.27.27,0,0,0,.07.08h.06a9,9,0,0,1,3.64,3.6,9.45,9.45,0,0,0,3.52,3.55,9.7,9.7,0,0,0,1,4.8,9.08,9.08,0,0,1,.94,5v.26h.35c1-.82,1.87-.31,2.95.3s2,1.18,3.19.5a15.44,15.44,0,0,0,.68,1.49,12.78,12.78,0,0,0,2.17,2.9,12.69,12.69,0,0,1,3.08,5h0a.06.06,0,0,0,0,.06h0a.27.27,0,0,0,.08.07H123a.24.24,0,0,0,.08-.09v0a.06.06,0,0,0,0-.06.09.09,0,0,0,0-.07h0c-.08-2.26.5-2.61,1.17-3a2.61,2.61,0,0,0,1.44-2.56,5,5,0,0,0,3.43,2c.94.17,1.83.34,3.64,2.44h.3l0,.13h.06v-.17a.06.06,0,0,0,0-.06v-.13h0a9.63,9.63,0,0,1-1.26-5.19,9,9,0,0,0-.94-4.63,2,2,0,0,0,2.21-1.44c.44-.84.76-1.45,2.34-1h.31v-.12h0v-.25h0a12.49,12.49,0,0,1-3.25-4.76,12.38,12.38,0,0,0-3-4.56,5.63,5.63,0,0,0,.17-4.06c-.27-1.36-.56-2.82.3-4.07h0a.06.06,0,0,0,0-.06.11.11,0,0,0,0-.08v-.41m-.76,27.77c-.93-.17-1.75-.33-3.43-2.29a.33.33,0,0,0-.47,0h0a.32.32,0,0,0-.07.41.08.08,0,0,0,0,.07h0c.06,2-.48,2.33-1.12,2.72a2.53,2.53,0,0,0-1.42,2.06,12.58,12.58,0,0,0-2.63-3.75,11.8,11.8,0,0,1-2.9-4.69.34.34,0,0,0-.44-.2h0a.36.36,0,0,0-.23.3c-.82.57-1.54.2-2.62-.43s-2-1.14-3.12-.62a10.32,10.32,0,0,0-1.06-4.69,8.65,8.65,0,0,1-.94-4.77.33.33,0,0,0-.28-.38h-.14A9,9,0,0,1,105.12,71a10.27,10.27,0,0,0-3.3-3.51c1.07-.66,1.14-1.87,1.22-2.92.08-1.34.18-2.16,1.29-2.49a.35.35,0,0,0,.24-.42.38.38,0,0,0-.21-.22,11.73,11.73,0,0,1-2.16-4.91,12.59,12.59,0,0,0-1.66-4.28,2.57,2.57,0,0,0,2.52,0c.67-.32,1.26-.6,3,.65a.37.37,0,0,0,.48-.07.35.35,0,0,0-.06-.46c-.66-2.42-.33-3.21,0-4a4.88,4.88,0,0,0,.46-3,8.87,8.87,0,0,0,2.81,2.61,9,9,0,0,1,3.41,3.75.34.34,0,0,0,.47.13.35.35,0,0,0,.13-.43c.45-1.33,1.09-1.26,2-1.17a2.16,2.16,0,0,0,2.38-.85,13.24,13.24,0,0,0,2,4.55,11.76,11.76,0,0,1,2,5.05.2.2,0,0,0,0,.11.34.34,0,0,0,.35.18.29.29,0,0,0,.18-.1,4.81,4.81,0,0,1,3.11,1.93,6.2,6.2,0,0,0,3.47,2.18,6.17,6.17,0,0,0-.12,4.09c.28,1.39.55,2.7-.26,3.86a.32.32,0,0,0,0,.35.27.27,0,0,0,.25.17,11.66,11.66,0,0,1,2.93,4.39,13.36,13.36,0,0,0,2.63,4.23,2.16,2.16,0,0,0-2,1.51c-.42.8-.72,1.38-2.19.94A.34.34,0,0,0,130,83a.36.36,0,0,0,0,.25.3.3,0,0,0,.12.13,9,9,0,0,1,1.15,4.81,9.1,9.1,0,0,0,.6,3.75A4.72,4.72,0,0,0,129.24,90.61Z"/><path class="cls-2" d="M134.72,104.13a11.35,11.35,0,0,1-6.07,1.37,19.07,19.07,0,0,1-5.88-1.2,25,25,0,0,1-5.31-2.62,36.79,36.79,0,0,1-4.69-3.55,51.2,51.2,0,0,1-7.63-8.67,76.87,76.87,0,0,1-5.89-9.82A81.39,81.39,0,0,1,92.09,58,33.82,33.82,0,0,1,92,46.29a16.74,16.74,0,0,1,2.1-5.67,9.68,9.68,0,0,1,2.09-2.42c.41-.35.85-.61,1.28-.94a11.3,11.3,0,0,1,1.37-.73,12.55,12.55,0,0,1,6-.94A19.53,19.53,0,0,1,110.64,37a38.83,38.83,0,0,1,9.73,6.09,54.35,54.35,0,0,1,13.92,17.82c.85,1.69,1.6,3.43,2.3,5.19s1.29,3.56,1.82,5.43a71.45,71.45,0,0,1,2.42,11.09c.26,1.88.49,3.76.58,5.63a26.35,26.35,0,0,1-.3,5.82,16.87,16.87,0,0,1-2,5.63A11.78,11.78,0,0,1,134.72,104.13Zm-1.17-2.19a9.18,9.18,0,0,0,3.56-3.38A14.55,14.55,0,0,0,139,93.73a36.34,36.34,0,0,0,0-10.87c-.19-1.87-.48-3.67-.83-5.48S137.44,73.76,137,72a55,55,0,0,0-1.76-5.26c-.68-1.72-1.39-3.43-2.21-5.08A50.84,50.84,0,0,0,119.27,44.5a36.15,36.15,0,0,0-9.38-5.56,17.34,17.34,0,0,0-5.13-1.13,10.13,10.13,0,0,0-4.91.88c-.36.2-.73.39-1.08.61a4.77,4.77,0,0,0-.94.75,7.18,7.18,0,0,0-1.51,1.87,14,14,0,0,0-1.62,4.82,28,28,0,0,0-.27,5.33,36.87,36.87,0,0,0,.65,5.35,77.26,77.26,0,0,0,7.19,20.71,80.66,80.66,0,0,0,5.62,9.37c1.06,1.49,2.13,3,3.3,4.34a54,54,0,0,0,3.76,4,28,28,0,0,0,8.81,5.87,16,16,0,0,0,5,1.16A8.65,8.65,0,0,0,133.55,101.94Z"/><path class="cls-5" d="M53.05,130.28a.93.93,0,0,0-.28-1.21,56.65,56.65,0,0,1-11.79-13,57.7,57.7,0,0,1-9.26-25.94.88.88,0,0,0-1-.67h0a1,1,0,0,0-.67,1,58.46,58.46,0,0,0,4.69,17.57,59.85,59.85,0,0,0,9.74,15.36,57.62,57.62,0,0,0,7.5,7.15A.87.87,0,0,0,53.05,130.28Z"/><path class="cls-8" d="M126.25,105.11a.52.52,0,0,0-.67-.17C113,112.09,98.16,117,84.8,120.28c17.5-11.77,28.75-21.06,28.93-21.2a.52.52,0,0,0,.12-.63h0a.52.52,0,0,0-.61-.24,320.62,320.62,0,0,1-36.57,8.93,232.85,232.85,0,0,0,24.48-25.08.52.52,0,0,0,.07-.55.53.53,0,0,0-.47-.28,192.57,192.57,0,0,0-34.18,4A337.08,337.08,0,0,1,93.9,63.12a.51.51,0,0,0-.3-.92,102,102,0,0,0-22.2,2.88c-3.59.84-7.71,2-12.19,3.49A183.54,183.54,0,0,1,93,47.63a.5.5,0,0,0,.25-.62.5.5,0,0,0-.59-.33A287,287,0,0,0,64.4,55.93c-.69.46-1.38.94-2.07,1.41s-1.3.94-1.95,1.36c10.19-4.21,22.39-8.12,27.41-9.64A183.56,183.56,0,0,0,56.26,69.69a169.32,169.32,0,0,0-15.73,6.92c-.12.14-.24.28-.35.43-.43.5-.85,1-1.26,1.55,4.77-2.51,10.79-5.26,14.87-6.87-3.12,2.63-5.83,5.11-8.13,7.33a122.48,122.48,0,0,0-13.4,15c.12.68.25,1.36.4,2.05A211.33,211.33,0,0,1,63,87c-7.72,7-16.29,15.35-24.67,24.63.18.31.34.63.52.93A356.91,356.91,0,0,1,65,86.56a193.93,193.93,0,0,1,34.61-4.3,239.36,239.36,0,0,1-24.93,25.22c-16.2,3-30.4,4.92-35.57,5.56.18.32.36.65.56.94,5.3-.66,18.39-2.42,33.47-5.19a156.56,156.56,0,0,1-24,17.16c.52.49,1.06,1,1.59,1.46a270.56,270.56,0,0,0,28.72-4.82c-3,2-6.18,4-9.49,6.06l.44-.06,2.09-.31q5.14-3.24,9.81-6.34c11.86-2.81,25.21-6.85,37.15-12.64-3.29,2.29-7.68,5.28-12.52,8.36l1.26-.57c1.76-.79,3.55-1.65,5.39-2.54,7.23-4.83,12.39-8.64,12.5-8.73A.51.51,0,0,0,126.25,105.11ZM64.55,85.63A217.68,217.68,0,0,0,32.9,94.89c2.56-3.52,10.25-13.3,23.88-24.38A125.47,125.47,0,0,1,71.6,66.09,107.76,107.76,0,0,1,92,63.27,352.11,352.11,0,0,0,64.55,85.63ZM81.93,121a269.24,269.24,0,0,1-31.52,5.42,160.46,160.46,0,0,0,24.77-18A342.67,342.67,0,0,0,111,100C106.72,103.37,96.23,111.48,81.93,121Z"/><path class="cls-9" d="M126.87,104.38a.51.51,0,0,0-.55-.85c-12.54,7.13-27.42,12-40.77,15.34,17.5-11.81,28.75-21.05,28.92-21.23a.52.52,0,0,0,.13-.64h0a.51.51,0,0,0-.6-.24,323.75,323.75,0,0,1-36.57,8.92,232.57,232.57,0,0,0,24.46-25.07.5.5,0,0,0-.07-.71.48.48,0,0,0-.34-.11,191.81,191.81,0,0,0-34.19,4A338.64,338.64,0,0,1,94.64,61.68a.51.51,0,0,0-.29-.94,101.52,101.52,0,0,0-22.15,2.9A125.53,125.53,0,0,0,60,67.13,183.8,183.8,0,0,1,93.76,46.19a.52.52,0,0,0,.14-.72.53.53,0,0,0-.48-.22,202.37,202.37,0,0,0-26.26,8.91q-2.4,1.53-4.82,3.2a210.64,210.64,0,0,1,26.2-9.72A184.32,184.32,0,0,0,57,68.19a127.79,127.79,0,0,0-15,6.64c-.64.72-1.26,1.43-1.88,2.16a124.66,124.66,0,0,1,14.37-6.77c-3.07,2.64-5.78,5.09-8.08,7.34C36.51,87.11,31.88,94.23,31.82,94.3a.52.52,0,0,0,0,.63.52.52,0,0,0,.61.1,202.36,202.36,0,0,1,31.33-9.4,346.61,346.61,0,0,0-26.25,26.45.5.5,0,0,0-.08.58h0a.52.52,0,0,0,.52.26c.27,0,16.46-1.87,36-5.49a153.92,153.92,0,0,1-25.4,17.88.5.5,0,0,0-.24.59V126a.5.5,0,0,0,.49.27,258.48,258.48,0,0,0,31.43-5.09c-3.84,2.53-7.94,5.13-12.24,7.76.8-.1,1.61-.19,2.45-.31,4.47-2.76,8.7-5.48,12.64-8.09,11.87-2.82,25.2-6.86,37.15-12.65-4.57,3.19-11.25,7.7-18.35,12,2.06-.84,4.17-1.74,6.34-2.72C118.52,110.55,126.73,104.46,126.87,104.38ZM33.64,93.47C36.21,90,43.9,80.17,57.52,69.1a125.67,125.67,0,0,1,14.83-4.43,108.57,108.57,0,0,1,20.37-2.81A334.39,334.39,0,0,0,65.3,84.2,219.11,219.11,0,0,0,33.64,93.47Zm5.52,18.23A354.82,354.82,0,0,1,65.78,85.14a193.14,193.14,0,0,1,34.62-4.31,239.46,239.46,0,0,1-24.93,25.23C58.41,109.26,43.58,111.17,39.16,111.7Zm12,13.31A162.1,162.1,0,0,0,76,107a349,349,0,0,0,35.8-8.44c-4.26,3.37-14.75,11.48-29.07,21A269.33,269.33,0,0,1,51.16,125Z"/><path class="cls-9" d="M100.43,28.87q7,9,14.47,17.6c1.24,1.44,2.53,2.81,3.75,4.38a15.5,15.5,0,0,1,2.89,5.38,8.67,8.67,0,0,1-.52,6.46,7.28,7.28,0,0,1-2.3,2.57,6,6,0,0,1-3.47,1.08h0a1.41,1.41,0,0,1,0-2.81h.08a4,4,0,0,0,3.45-2.12,6.26,6.26,0,0,0,.47-4.63,13,13,0,0,0-2.33-4.68c-1.07-1.48-2.32-2.93-3.51-4.42Q106.2,38.8,99.54,29.49a.57.57,0,0,1,.2-.76.57.57,0,0,1,.68.1Z"/><path class="cls-4" d="M107.51,36.56q-3.21-4.08-6.56-8c-1.22-1.44-3.64.29-2.39,1.74q3.36,4,6.56,8C106.28,39.79,108.69,38.07,107.51,36.56Z"/><path class="cls-9" d="M106.79,29.3q8.24,7.87,16.94,15.23c1.44,1.24,2.93,2.4,4.37,3.75a15.46,15.46,0,0,1,3.67,4.89,8.69,8.69,0,0,1,.46,6.47,7.21,7.21,0,0,1-1.88,2.88,6.12,6.12,0,0,1-3.26,1.59h0a1.39,1.39,0,0,1-.4-2.75h.09a4,4,0,0,0,3.08-2.62,6.21,6.21,0,0,0-.22-4.64,13.06,13.06,0,0,0-3-4.28c-1.28-1.3-2.75-2.53-4.15-3.83q-8.43-7.71-16.44-15.94a.54.54,0,0,1,0-.78A.55.55,0,0,1,106.79,29.3Z"/><path class="cls-4" d="M114.11,35.2q-3.69-3.66-7.5-7.18c-1.39-1.29-3.58.72-2.18,2q3.82,3.53,7.51,7.19C113.29,38.56,115.47,36.55,114.11,35.2Z"/></g><g id="Layer_8-2" data-name="Layer 8"><path class="cls-10" d="M137.13,129.93c0,1.44-33.41,2.6-62,2.6s-41.5-1.16-41.5-2.6,31.93-2.6,60.51-2.6S137.13,128.5,137.13,129.93Z"/><path class="cls-11" d="M32.5,92.89Q29,89.53,25.47,86q-1.75-1.75-3.42-3.61c-1.1-1.24-2.21-2.49-3.3-3.81A47.13,47.13,0,0,1,9.47,60.73a30.56,30.56,0,0,1-.8-10.22,27.17,27.17,0,0,1,3-9.82,23.48,23.48,0,0,1,2.91-4.29A21.89,21.89,0,0,1,18.46,33a30.54,30.54,0,0,1,9.26-4.11,22,22,0,0,1,5.1-.81,13.28,13.28,0,0,1,5.26.81,11,11,0,0,1,2.4,1.33,20,20,0,0,1,2,1.72c1.19,1.18,2.24,2.39,3.38,3.31a7.79,7.79,0,0,0,1.77,1.12,2.07,2.07,0,0,0,.47.18,2.13,2.13,0,0,0,.49.15,9.46,9.46,0,0,0,1.06.21A12.71,12.71,0,0,0,54,36.63,20.31,20.31,0,0,0,58.28,35c1.4-.69,2.75-1.51,4.13-2.35s2.81-1.71,4.27-2.51a25.85,25.85,0,0,1,4.77-2A18.59,18.59,0,0,1,82,28.3,16.45,16.45,0,0,1,93.59,46v.11a3.05,3.05,0,0,1-6.06-.75,3.35,3.35,0,0,1,.11-.55,10,10,0,0,0-.84-7.5,11.52,11.52,0,0,0-2.48-3.2,12.85,12.85,0,0,0-3.57-2.19,13.15,13.15,0,0,0-4.19-.94,14.86,14.86,0,0,0-4.36.31A32.1,32.1,0,0,0,63.76,35c-1.42.81-2.86,1.62-4.38,2.34A22.58,22.58,0,0,1,54.52,39a15.43,15.43,0,0,1-5.25.27c-.45-.07-.89-.15-1.33-.26-.21-.05-.44-.14-.66-.21a5.4,5.4,0,0,1-.67-.25,10.21,10.21,0,0,1-2.33-1.45C42.9,36,41.82,34.75,40.7,33.67a10.66,10.66,0,0,0-3.54-2.43,11,11,0,0,0-4.29-.62,19.53,19.53,0,0,0-4.49.76A27.45,27.45,0,0,0,20,35.27a18.38,18.38,0,0,0-3.33,3,19.74,19.74,0,0,0-2.45,3.76,23.36,23.36,0,0,0-2.33,8.75,26.24,26.24,0,0,0,1,9,41.45,41.45,0,0,0,9.29,15.88A116.33,116.33,0,0,0,36.38,88.44,2.94,2.94,0,1,1,32.69,93l-.18-.16Z"/><path class="cls-12" d="M86.41,32.18s7.11,7.67,1.67,16.39C88.08,48.57,96.27,40.79,86.41,32.18Z"/><path class="cls-12" d="M37.18,90c-9-5-17.63-15.1-17.63-15.1A60.3,60.3,0,0,0,29.67,86.24a73.56,73.56,0,0,1-8-6.39A51.35,51.35,0,0,0,36.5,91.62l.69-1.12-.29-.13Z"/><path class="cls-13" d="M134.14,103a223.83,223.83,0,0,1-20.51,11.49c-1.87.94-3.63,1.75-5.39,2.55l-1.26.56c-1.73.77-3.43,1.48-5.09,2.15a134.44,134.44,0,0,1-29.35,8.44l-2.09.31-.44.06-2,.25c-3,.35-5.7.51-8.08.56a57.35,57.35,0,0,1-11.25-.78c-1-.19-1.5-.33-1.5-.33-.79-.69-1.54-1.4-2.25-2.11-.47-.47-.94-.94-1.36-1.4a53.51,53.51,0,0,1-8.49-11.92c-.36-.68-.69-1.35-1-2l-.33-.74h0c-.28-.63-.55-1.25-.79-1.88a42.78,42.78,0,0,1-3.25-12.78,52.65,52.65,0,0,1,9.19-17c.42-.52.83-1,1.26-1.56a4.82,4.82,0,0,1,.36-.43c.48-.58,1-1.15,1.5-1.72A111.08,111.08,0,0,1,60.42,58.7c.65-.46,1.3-.94,1.95-1.36s1.38-.94,2.06-1.41c.94-.61,1.88-1.21,2.82-1.79A199.62,199.62,0,0,1,99.84,37.42L122.64,81l.94,1.78,5.81,11.15.13.21Z"/><path class="cls-11" d="M68,74a1.19,1.19,0,1,0,.49-1.61A1.19,1.19,0,0,0,68,74Z"/><path class="cls-11" d="M68.67,66.52a1.19,1.19,0,1,0-.49,1.61A1.19,1.19,0,0,0,68.67,66.52Z"/><path class="cls-11" d="M60.85,125a3.74,3.74,0,0,1,4.56-1.17l.49.22c.74.71,1.5,1.41,2.27,2.08a2.73,2.73,0,0,1,.28,1.68,3.74,3.74,0,0,1-.42,1.11l1.27-.15a4.21,4.21,0,0,0,.27-1.48l1.54,1.23,2.33-.36A67.35,67.35,0,0,1,46.33,70.41q-.94.89-1.77,1.77a71.2,71.2,0,0,0,.25,8,5.1,5.1,0,0,0-5.32-2.08l-.23.08A63.22,63.22,0,0,0,35,84.12a75.13,75.13,0,0,0,4.69,19,73.63,73.63,0,0,0,15.85,24.48c.62.64,1.25,1.25,1.88,1.88h2.68A5.29,5.29,0,0,1,60.85,125ZM37.68,90.32A69.72,69.72,0,0,1,36.57,83a4.92,4.92,0,0,1,2-3.39,3.59,3.59,0,0,1,4.58.38c1.29,1.12,2.45,2.91,1.52,4.6a3,3,0,0,1-4.09,1.34,1.88,1.88,0,0,1-.24-.14,2.12,2.12,0,0,1-.85-2.32,1.67,1.67,0,0,1,.77-1,.8.8,0,0,1,1.1.21s0,.09.07.13c.27.63,1.21.13.93-.49a1.87,1.87,0,0,0-2.52-.82,1.75,1.75,0,0,0-.29.18,3,3,0,0,0-1.13,2.89c.37,2.46,3.29,3.36,5.32,2.33a4.46,4.46,0,0,0,1.73-1.58q.48,3,1.22,5.85a5,5,0,0,0-5-1.13,5.48,5.48,0,0,0-3.22,3.43C38.14,92.41,37.9,91.34,37.68,90.32Zm1.4,5.62a5.38,5.38,0,0,1,1.77-4.23,3.77,3.77,0,0,1,4.69,0,6,6,0,0,1,1.77,2c.13.44.27.88.41,1.32a2.75,2.75,0,0,1-.25,1.32A3.13,3.13,0,0,1,43.38,98l-.25-.11a2.22,2.22,0,0,1-1.05-2.32,1.68,1.68,0,0,1,.7-1.09.81.81,0,0,1,1.14.12.57.57,0,0,1,.08.13c.33.63,1.25,0,.94-.58a1.92,1.92,0,0,0-2.64-.65,1.83,1.83,0,0,0-.31.24,3,3,0,0,0-.94,3c.58,2.5,3.64,3.17,5.63,2a4.63,4.63,0,0,0,1.67-1.87h0q1.07,3,2.38,5.87a5.08,5.08,0,0,0-5.32-.56,5.47,5.47,0,0,0-2.67,3.65A72.54,72.54,0,0,1,39.08,95.94Zm9.68,20.63a73.12,73.12,0,0,1-5.08-8.74,5.07,5.07,0,0,1,1.23-3.75,3.76,3.76,0,0,1,4.69-.68c1.54.84,3.1,2.38,2.55,4.28a3.14,3.14,0,0,1-3.8,2.29l-.27-.08a2.21,2.21,0,0,1-1.37-2.14,1.7,1.7,0,0,1,.56-1.19.82.82,0,0,1,1.15,0,.48.48,0,0,1,.09.11c.41.57,1.23-.14.83-.71a1.94,1.94,0,0,0-2.72-.28,1.79,1.79,0,0,0-.27.28,3.06,3.06,0,0,0-.49,3.15c.94,2.38,4,2.63,5.85,1.15a4.55,4.55,0,0,0,1.55-2.53c.54.94,1.1,1.93,1.69,2.88s1,1.61,1.6,2.41a4.77,4.77,0,0,0-4.47.41,5.63,5.63,0,0,0-2.39,4.52C49.39,117.51,49.07,117,48.76,116.57ZM51,119.66a5.24,5.24,0,0,1,.7-4.45A3.75,3.75,0,0,1,56.26,114a6.66,6.66,0,0,1,1.74,1l1.08,1.43a2.61,2.61,0,0,1,.16,1.51,3.14,3.14,0,0,1-3.54,2.68l-.21,0a2.2,2.2,0,0,1-1.59-2,1.63,1.63,0,0,1,.42-1.24.81.81,0,0,1,1.14-.14.47.47,0,0,1,.1.1c.47.51,1.21-.29.75-.8a1.93,1.93,0,0,0-2.72,0,2.42,2.42,0,0,0-.25.31,3.06,3.06,0,0,0-.15,3.18c1.18,2.27,4.31,2.19,6,.51A4.58,4.58,0,0,0,60.38,118q1.88,2.27,3.93,4.37a4.43,4.43,0,0,0-3,.74,5.75,5.75,0,0,0-2.3,5.32,71.09,71.09,0,0,1-8-8.82Z"/><path class="cls-11" d="M72.28,79.44A1.18,1.18,0,0,0,70.65,79,1.13,1.13,0,1,0,71.82,81,1.18,1.18,0,0,0,72.28,79.44Z"/><path class="cls-11" d="M67.33,59.37a1.19,1.19,0,0,0-2.1,1.12,1.21,1.21,0,0,0,1.64.41A1.2,1.2,0,0,0,67.33,59.37Z"/><path class="cls-11" d="M73.38,67.41a80.43,80.43,0,0,1-1.77-16l-2,1.22A83.07,83.07,0,0,0,94.7,109.82a83.94,83.94,0,0,0,10.48,8.62c.74-.31,1.48-.63,2.22-.93A81,81,0,0,1,73.38,67.41Z"/><path class="cls-11" d="M94.87,113.69a1.19,1.19,0,1,0-.47,1.52A1.18,1.18,0,0,0,94.87,113.69Z"/><path class="cls-11" d="M64.7,127.14c.47.52,1.21-.28.75-.8a1.93,1.93,0,0,0-2.73,0,1.81,1.81,0,0,0-.25.3,3,3,0,0,0-.34,2.7l1.14-.07a2,2,0,0,1-.23-.86,1.68,1.68,0,0,1,.41-1.25.81.81,0,0,1,1.14-.14A.52.52,0,0,1,64.7,127.14Z"/><path class="cls-11" d="M99.39,117.65a1.19,1.19,0,0,0-2.1,1.12h0a1.19,1.19,0,1,0,2.1-1.12Z"/><path class="cls-11" d="M82.51,55.23a43,43,0,0,0,.35,5.2,6.29,6.29,0,0,1-6.92-4.37,8.82,8.82,0,0,1,2-8.26c-.68.38-1.36.75-2,1.15a10.11,10.11,0,0,0-.74,1.6,8.28,8.28,0,0,0,2.63,9.66A7.06,7.06,0,0,0,81,61.5a3.47,3.47,0,0,0-.85,2.89,3.35,3.35,0,0,0,2.33,2.48,6,6,0,0,0-2.22,4.36,5.61,5.61,0,0,0,5.64,5.51,9.17,9.17,0,0,0-2.48,7.17,8.45,8.45,0,0,0,6.24,7.15,9.06,9.06,0,0,0,3.11.31,4.18,4.18,0,0,0-.19,4.53,4.77,4.77,0,0,0,4.69,2,7.39,7.39,0,0,0-.72,6.78,6.67,6.67,0,0,0,7.26,3.75,7,7,0,0,0,2.34-.79,4.6,4.6,0,0,0,.5,2.82,4.4,4.4,0,0,0,5,2,4.93,4.93,0,0,0,1.45-.62,5.88,5.88,0,0,0,.37,2.75l.94-.45a4.61,4.61,0,0,1-.07-3.13,34.2,34.2,0,0,0,3.22,1.57l2-1.05a37.31,37.31,0,0,1-9.71-5.51A56.26,56.26,0,0,1,97.68,92.19a106.55,106.55,0,0,1-9.11-17.14A53.84,53.84,0,0,1,84.24,57.5,37,37,0,0,1,86,43.64l-2.08,1A37.56,37.56,0,0,0,82.51,55.23Zm30.94,55.17a3.93,3.93,0,0,1-5,.52,3.31,3.31,0,0,1-.58-4.48h0a42.08,42.08,0,0,0,5.52,4Zm-6.38-4.62-.11.13a6.25,6.25,0,0,1-6.45,1.18,5.63,5.63,0,0,1-3.28-6.28,5.92,5.92,0,0,1,2-3.56,55.31,55.31,0,0,0,7.72,8.53ZM94.7,91l.17-.06q1.71,2.82,3.65,5.48a4,4,0,0,1-5-.89,3.16,3.16,0,0,1,.91-4.38ZM94.34,90h-.06a8,8,0,0,1-7.75-1.87A7.45,7.45,0,0,1,85,80a7.56,7.56,0,0,1,2.44-3.25A108.77,108.77,0,0,0,94.36,90ZM84,67.08c.54,2.07,1.19,4.1,1.93,6.1.31.82.62,1.62.94,2.42a4.68,4.68,0,0,1-5.47-2.73,4.79,4.79,0,0,1,2.68-5.79Zm-1.15-5.63h0c.22,1.54.51,3.07.88,4.58a2.34,2.34,0,0,1-.94-4.58Z"/><path class="cls-11" d="M90.42,108.81a1.19,1.19,0,0,0-2.1,1.13h0a1.19,1.19,0,1,0,2.1-1.13Z"/><path class="cls-11" d="M74.79,85.79a1.19,1.19,0,1,0-.47,1.52A1.19,1.19,0,0,0,74.79,85.79Z"/><path class="cls-11" d="M81.63,98.13a1.19,1.19,0,1,0-.49,1.61A1.19,1.19,0,0,0,81.63,98.13Z"/><path class="cls-11" d="M77.71,92.27a1.19,1.19,0,1,0-.49,1.61A1.19,1.19,0,0,0,77.71,92.27Z"/><path class="cls-11" d="M85.94,104.22a1.19,1.19,0,1,0-2.1,1.13h0a1.19,1.19,0,0,0,2.1-1.13Z"/><path class="cls-12" d="M107.92,90.41c-7,3.61-14.06,7.06-21.27,10.15q-4.31,1.88-8.69,3.51h-.22l.13,0h-.06l-.15.06h-.12l-.45.16-2,.72c-1.37.48-2.74.94-4.12,1.38a147.27,147.27,0,0,1-17.06,4.41c-3.23.62-6.49,1.12-9.75,1.48l-1.24.13h-.06c-.81.06-1.63.13-2.45.18-1.74.1-3.48.17-5.24.19h-.07a53.57,53.57,0,0,0,8.49,11.93c.43.47.89.94,1.36,1.4,22-2.23,43.05-10.32,62.87-20.12,3.6-1.79,7.16-3.62,10.72-5.49A43.56,43.56,0,0,1,107.92,90.41Z"/><path class="cls-12" d="M118.72,103.93a193.87,193.87,0,0,1-56.67,22.29q-6.63,1.44-13.38,2.44a56.58,56.58,0,0,0,11.25.77A196.18,196.18,0,0,0,107,113.36q7.63-3.75,14.9-8.15A24,24,0,0,1,118.72,103.93Z"/><path class="cls-14" d="M133,104.83a11.18,11.18,0,0,1-5.52,1.33c-9.71-.13-18-8.08-23.2-15.21A77.85,77.85,0,0,1,91.4,62.19,42.79,42.79,0,0,1,90.17,51.5c.14-4.17,1.07-9.71,4.69-12.56,6.2-4.87,14.28-1.87,19.94,1.6a50.28,50.28,0,0,1,16.47,17,65.41,65.41,0,0,1,8.63,28.56,31.85,31.85,0,0,1-.35,9.09C138.77,99,136.72,102.85,133,104.83Z"/><path class="cls-15" d="M140.05,93.9a31.21,31.21,0,0,0,.15-8.74,66.23,66.23,0,0,0-8.62-27.66,50.78,50.78,0,0,0-15.74-16.6c-5.38-3.5-13-6.5-18.7-1.87C93.76,41.64,93,47,93,50.93a41.81,41.81,0,0,0,1.35,10.32A79.37,79.37,0,0,0,107,89.14c5,7,12.92,14.76,22,15.07a10.1,10.1,0,0,0,5.14-1.18C137.53,101.21,139.36,97.57,140.05,93.9Z"/><path class="cls-16" d="M123.86,83a4,4,0,0,1-2,.46c-3.58-.12-6.7-3.2-8.66-5.93a31.27,31.27,0,0,1-5-11,17.23,17.23,0,0,1-.52-4c0-1.57.32-3.66,1.63-4.69,2.24-1.79,5.23-.62,7.35.76a20,20,0,0,1,6.2,6.57,26,26,0,0,1,3.38,10.86,12.39,12.39,0,0,1,0,3.44A5,5,0,0,1,123.86,83Z"/><path class="cls-16" d="M130,62.71v-.05h-.2c-1.53,0-2.52-.93-3.55-2s-2-2-3.56-2.12a12.47,12.47,0,0,0-2.07-4.92,12.4,12.4,0,0,1-2.15-5.35h0v-.12H118v.07h0c-.51,1.56-1.18,1.49-2.13,1.38a2,2,0,0,0-2.46,1.11,9.06,9.06,0,0,0-3.21-3.24,9.57,9.57,0,0,1-3.6-3.94h-.33v0a.06.06,0,0,0,0,.06v.19h0c.73,2.68.38,3.51,0,4.38a5.17,5.17,0,0,0-.25,3.75,2.56,2.56,0,0,0-2.82-.18c-.71.34-1.32.62-3.15-.71h-.8a.11.11,0,0,0,0,.08h0a.37.37,0,0,0,0,.21h0a12.73,12.73,0,0,1,2.41,5.3,12.58,12.58,0,0,0,1.19,3.43,14.15,14.15,0,0,0,.94,1.52c-1.16.59-1.23,1.81-1.31,2.89s-.14,2.24-1.39,2.62H101l-.06.07h0v.3a.27.27,0,0,0,.07.08h.06a9,9,0,0,1,3.64,3.6,9.45,9.45,0,0,0,3.52,3.55,9.7,9.7,0,0,0,1,4.8,9.08,9.08,0,0,1,.94,5v.26h.35c1-.82,1.87-.31,2.95.3s2,1.18,3.19.5a15.44,15.44,0,0,0,.68,1.49,12.78,12.78,0,0,0,2.17,2.9,12.69,12.69,0,0,1,3.08,5h0a.06.06,0,0,0,0,.06h0a.27.27,0,0,0,.08.07H123a.24.24,0,0,0,.08-.09v0a.06.06,0,0,0,0-.06.09.09,0,0,0,0-.07h0c-.08-2.26.5-2.61,1.17-3a2.61,2.61,0,0,0,1.44-2.56,5,5,0,0,0,3.43,2c.94.17,1.83.34,3.64,2.44h.3l0,.13h.06v-.17a.06.06,0,0,0,0-.06v-.13h0a9.63,9.63,0,0,1-1.26-5.19,9,9,0,0,0-.94-4.63,2,2,0,0,0,2.21-1.44c.44-.84.76-1.45,2.34-1h.31v-.12h0v-.25h0a12.49,12.49,0,0,1-3.25-4.76,12.38,12.38,0,0,0-3-4.56,5.63,5.63,0,0,0,.17-4.06c-.27-1.36-.56-2.82.3-4.07h0a.06.06,0,0,0,0-.06.11.11,0,0,0,0-.08v-.41m-.76,27.77c-.93-.17-1.75-.33-3.43-2.29a.33.33,0,0,0-.47,0h0a.32.32,0,0,0-.07.41.08.08,0,0,0,0,.07h0c.06,2-.48,2.33-1.12,2.72a2.53,2.53,0,0,0-1.42,2.06,12.58,12.58,0,0,0-2.63-3.75,11.8,11.8,0,0,1-2.9-4.69.34.34,0,0,0-.44-.2h0a.36.36,0,0,0-.23.3c-.82.57-1.54.2-2.62-.43s-2-1.14-3.12-.62a10.32,10.32,0,0,0-1.06-4.69,8.65,8.65,0,0,1-.94-4.77.33.33,0,0,0-.28-.38h-.14A9,9,0,0,1,105.12,71a10.27,10.27,0,0,0-3.3-3.51c1.07-.66,1.14-1.87,1.22-2.92.08-1.34.18-2.16,1.29-2.49a.35.35,0,0,0,.24-.42.38.38,0,0,0-.21-.22,11.73,11.73,0,0,1-2.16-4.91,12.59,12.59,0,0,0-1.66-4.28,2.57,2.57,0,0,0,2.52,0c.67-.32,1.26-.6,3,.65a.37.37,0,0,0,.48-.07.35.35,0,0,0-.06-.46c-.66-2.42-.33-3.21,0-4a4.88,4.88,0,0,0,.46-3,8.87,8.87,0,0,0,2.81,2.61,9,9,0,0,1,3.41,3.75.34.34,0,0,0,.47.13.35.35,0,0,0,.13-.43c.45-1.33,1.09-1.26,2-1.17a2.16,2.16,0,0,0,2.38-.85,13.24,13.24,0,0,0,2,4.55,11.76,11.76,0,0,1,2,5.05.2.2,0,0,0,0,.11.34.34,0,0,0,.35.18.29.29,0,0,0,.18-.1,4.81,4.81,0,0,1,3.11,1.93,6.2,6.2,0,0,0,3.47,2.18,6.17,6.17,0,0,0-.12,4.09c.28,1.39.55,2.7-.26,3.86a.32.32,0,0,0,0,.35.27.27,0,0,0,.25.17,11.66,11.66,0,0,1,2.93,4.39,13.36,13.36,0,0,0,2.63,4.23,2.16,2.16,0,0,0-2,1.51c-.42.8-.72,1.38-2.19.94A.34.34,0,0,0,130,83a.36.36,0,0,0,0,.25.3.3,0,0,0,.12.13,9,9,0,0,1,1.15,4.81,9.1,9.1,0,0,0,.6,3.75A4.72,4.72,0,0,0,129.24,90.61Z"/><path class="cls-11" d="M134.72,104.13a11.35,11.35,0,0,1-6.07,1.37,19.07,19.07,0,0,1-5.88-1.2,25,25,0,0,1-5.31-2.62,36.79,36.79,0,0,1-4.69-3.55,51.2,51.2,0,0,1-7.63-8.67,76.87,76.87,0,0,1-5.89-9.82A81.39,81.39,0,0,1,92.09,58,33.82,33.82,0,0,1,92,46.29a16.74,16.74,0,0,1,2.1-5.67,9.68,9.68,0,0,1,2.09-2.42c.41-.35.85-.61,1.28-.94a11.3,11.3,0,0,1,1.37-.73,12.55,12.55,0,0,1,6-.94A19.53,19.53,0,0,1,110.64,37a38.83,38.83,0,0,1,9.73,6.09,54.35,54.35,0,0,1,13.92,17.82c.85,1.69,1.6,3.43,2.3,5.19s1.29,3.56,1.82,5.43a71.45,71.45,0,0,1,2.42,11.09c.26,1.88.49,3.76.58,5.63a26.35,26.35,0,0,1-.3,5.82,16.87,16.87,0,0,1-2,5.63A11.78,11.78,0,0,1,134.72,104.13Zm-1.17-2.19a9.18,9.18,0,0,0,3.56-3.38A14.55,14.55,0,0,0,139,93.73a36.34,36.34,0,0,0,0-10.87c-.19-1.87-.48-3.67-.83-5.48S137.44,73.76,137,72a55,55,0,0,0-1.76-5.26c-.68-1.72-1.39-3.43-2.21-5.08A50.84,50.84,0,0,0,119.27,44.5a36.15,36.15,0,0,0-9.38-5.56,17.34,17.34,0,0,0-5.13-1.13,10.13,10.13,0,0,0-4.91.88c-.36.2-.73.39-1.08.61a4.77,4.77,0,0,0-.94.75,7.18,7.18,0,0,0-1.51,1.87,14,14,0,0,0-1.62,4.82,28,28,0,0,0-.27,5.33,36.87,36.87,0,0,0,.65,5.35,77.26,77.26,0,0,0,7.19,20.71,80.66,80.66,0,0,0,5.62,9.37c1.06,1.49,2.13,3,3.3,4.34a54,54,0,0,0,3.76,4,28,28,0,0,0,8.81,5.87,16,16,0,0,0,5,1.16A8.65,8.65,0,0,0,133.55,101.94Z"/><path class="cls-14" d="M53.05,130.28a.93.93,0,0,0-.28-1.21,56.65,56.65,0,0,1-11.79-13,57.7,57.7,0,0,1-9.26-25.94.88.88,0,0,0-1-.67h0a1,1,0,0,0-.67,1,58.46,58.46,0,0,0,4.69,17.57,59.85,59.85,0,0,0,9.74,15.36,57.62,57.62,0,0,0,7.5,7.15A.87.87,0,0,0,53.05,130.28Z"/><path class="cls-17" d="M126.25,105.11a.52.52,0,0,0-.67-.17C113,112.09,98.16,117,84.8,120.28c17.5-11.77,28.75-21.06,28.93-21.2a.52.52,0,0,0,.12-.63h0a.52.52,0,0,0-.61-.24,320.62,320.62,0,0,1-36.57,8.93,232.85,232.85,0,0,0,24.48-25.08.52.52,0,0,0,.07-.55.53.53,0,0,0-.47-.28,192.57,192.57,0,0,0-34.18,4A337.08,337.08,0,0,1,93.9,63.12a.51.51,0,0,0-.3-.92,102,102,0,0,0-22.2,2.88c-3.59.84-7.71,2-12.19,3.49A183.54,183.54,0,0,1,93,47.63a.5.5,0,0,0,.25-.62.5.5,0,0,0-.59-.33A287,287,0,0,0,64.4,55.93c-.69.46-1.38.94-2.07,1.41s-1.3.94-1.95,1.36c10.19-4.21,22.39-8.12,27.41-9.64A183.56,183.56,0,0,0,56.26,69.69a169.32,169.32,0,0,0-15.73,6.92c-.12.14-.24.28-.35.43-.43.5-.85,1-1.26,1.55,4.77-2.51,10.79-5.26,14.87-6.87-3.12,2.63-5.83,5.11-8.13,7.33a122.48,122.48,0,0,0-13.4,15c.12.68.25,1.36.4,2.05A211.33,211.33,0,0,1,63,87c-7.72,7-16.29,15.35-24.67,24.63.18.31.34.63.52.93A356.91,356.91,0,0,1,65,86.56a193.93,193.93,0,0,1,34.61-4.3,239.36,239.36,0,0,1-24.93,25.22c-16.2,3-30.4,4.92-35.57,5.56.18.32.36.65.56.94,5.3-.66,18.39-2.42,33.47-5.19a156.56,156.56,0,0,1-24,17.16c.52.49,1.06,1,1.59,1.46a270.56,270.56,0,0,0,28.72-4.82c-3,2-6.18,4-9.49,6.06l.44-.06,2.09-.31q5.14-3.24,9.81-6.34c11.86-2.81,25.21-6.85,37.15-12.64-3.29,2.29-7.68,5.28-12.52,8.36l1.26-.57c1.76-.79,3.55-1.65,5.39-2.54,7.23-4.83,12.39-8.64,12.5-8.73A.51.51,0,0,0,126.25,105.11ZM64.55,85.63A217.68,217.68,0,0,0,32.9,94.89c2.56-3.52,10.25-13.3,23.88-24.38A125.47,125.47,0,0,1,71.6,66.09,107.76,107.76,0,0,1,92,63.27,352.11,352.11,0,0,0,64.55,85.63ZM81.93,121a269.24,269.24,0,0,1-31.52,5.42,160.46,160.46,0,0,0,24.77-18A342.67,342.67,0,0,0,111,100C106.72,103.37,96.23,111.48,81.93,121Z"/><path class="cls-18" d="M126.87,104.38a.51.51,0,0,0-.55-.85c-12.54,7.13-27.42,12-40.77,15.34,17.5-11.81,28.75-21.05,28.92-21.23a.52.52,0,0,0,.13-.64h0a.51.51,0,0,0-.6-.24,323.75,323.75,0,0,1-36.57,8.92,232.57,232.57,0,0,0,24.46-25.07.5.5,0,0,0-.07-.71.48.48,0,0,0-.34-.11,191.81,191.81,0,0,0-34.19,4A338.64,338.64,0,0,1,94.64,61.68a.51.51,0,0,0-.29-.94,101.52,101.52,0,0,0-22.15,2.9A125.53,125.53,0,0,0,60,67.13,183.8,183.8,0,0,1,93.76,46.19a.52.52,0,0,0,.14-.72.53.53,0,0,0-.48-.22,202.37,202.37,0,0,0-26.26,8.91q-2.4,1.53-4.82,3.2a210.64,210.64,0,0,1,26.2-9.72A184.32,184.32,0,0,0,57,68.19a127.79,127.79,0,0,0-15,6.64c-.64.72-1.26,1.43-1.88,2.16a124.66,124.66,0,0,1,14.37-6.77c-3.07,2.64-5.78,5.09-8.08,7.34C36.51,87.11,31.88,94.23,31.82,94.3a.52.52,0,0,0,0,.63.52.52,0,0,0,.61.1,202.36,202.36,0,0,1,31.33-9.4,346.61,346.61,0,0,0-26.25,26.45.5.5,0,0,0-.08.58h0a.52.52,0,0,0,.52.26c.27,0,16.46-1.87,36-5.49a153.92,153.92,0,0,1-25.4,17.88.5.5,0,0,0-.24.59V126a.5.5,0,0,0,.49.27,258.48,258.48,0,0,0,31.43-5.09c-3.84,2.53-7.94,5.13-12.24,7.76.8-.1,1.61-.19,2.45-.31,4.47-2.76,8.7-5.48,12.64-8.09,11.87-2.82,25.2-6.86,37.15-12.65-4.57,3.19-11.25,7.7-18.35,12,2.06-.84,4.17-1.74,6.34-2.72C118.52,110.55,126.73,104.46,126.87,104.38ZM33.64,93.47C36.21,90,43.9,80.17,57.52,69.1a125.67,125.67,0,0,1,14.83-4.43,108.57,108.57,0,0,1,20.37-2.81A334.39,334.39,0,0,0,65.3,84.2,219.11,219.11,0,0,0,33.64,93.47Zm5.52,18.23A354.82,354.82,0,0,1,65.78,85.14a193.14,193.14,0,0,1,34.62-4.31,239.46,239.46,0,0,1-24.93,25.23C58.41,109.26,43.58,111.17,39.16,111.7Zm12,13.31A162.1,162.1,0,0,0,76,107a349,349,0,0,0,35.8-8.44c-4.26,3.37-14.75,11.48-29.07,21A269.33,269.33,0,0,1,51.16,125Z"/><path class="cls-18" d="M100.43,28.87q7,9,14.47,17.6c1.24,1.44,2.53,2.81,3.75,4.38a15.5,15.5,0,0,1,2.89,5.38,8.67,8.67,0,0,1-.52,6.46,7.28,7.28,0,0,1-2.3,2.57,6,6,0,0,1-3.47,1.08h0a1.41,1.41,0,0,1,0-2.81h.08a4,4,0,0,0,3.45-2.12,6.26,6.26,0,0,0,.47-4.63,13,13,0,0,0-2.33-4.68c-1.07-1.48-2.32-2.93-3.51-4.42Q106.2,38.8,99.54,29.49a.57.57,0,0,1,.2-.76.57.57,0,0,1,.68.1Z"/><path class="cls-13" d="M107.51,36.56q-3.21-4.08-6.56-8c-1.22-1.44-3.64.29-2.39,1.74q3.36,4,6.56,8C106.28,39.79,108.69,38.07,107.51,36.56Z"/><path class="cls-18" d="M106.79,29.3q8.24,7.87,16.94,15.23c1.44,1.24,2.93,2.4,4.37,3.75a15.46,15.46,0,0,1,3.67,4.89,8.69,8.69,0,0,1,.46,6.47,7.21,7.21,0,0,1-1.88,2.88,6.12,6.12,0,0,1-3.26,1.59h0a1.39,1.39,0,0,1-.4-2.75h.09a4,4,0,0,0,3.08-2.62,6.21,6.21,0,0,0-.22-4.64,13.06,13.06,0,0,0-3-4.28c-1.28-1.3-2.75-2.53-4.15-3.83q-8.43-7.71-16.44-15.94a.54.54,0,0,1,0-.78A.55.55,0,0,1,106.79,29.3Z"/><path class="cls-13" d="M114.11,35.2q-3.69-3.66-7.5-7.18c-1.39-1.29-3.58.72-2.18,2q3.82,3.53,7.51,7.19C113.29,38.56,115.47,36.55,114.11,35.2Z"/></g></svg>