<svg id="लड्डू" xmlns="http://www.w3.org/2000/svg" viewBox="0 0 150 160"><defs><style>.cls-1{fill:#fff;stroke:#fff;stroke-miterlimit:10;stroke-width:5px;}.cls-2{fill:#f59b18;}.cls-3{fill:#e77d0e;}.cls-4{fill:#e2870e;}.cls-5{fill:#fbe5ba;}.cls-6{fill:#f4d095;}.cls-7{fill:#5eb52c;}.cls-8{fill:#4f991f;}.cls-9{fill:#f5ba18;}.cls-10{fill:#f5cf18;}</style></defs><path class="cls-1" d="M135.12,76.05c-.26-1.48-1.21-2.73-1.72-4.11a24.78,24.78,0,0,0-1.51-4.13,25.12,25.12,0,0,0-2.41-3.74,25.23,25.23,0,0,0-3.34-2.92,25.27,25.27,0,0,0-3.63-2.48,25,25,0,0,0-3.93-2,25.36,25.36,0,0,0-4.25-1.25,25.84,25.84,0,0,0-4.42-.21,25,25,0,0,0-4.35.6c-1.48.26-3.14-.18-4.52.32s-2.42,1.85-3.7,2.59a24.24,24.24,0,0,0-2.87,1.91c0-.49,0-1,0-1.47a26,26,0,0,0-.31-4.44C93.91,53.25,93,52,92.46,50.62a26.2,26.2,0,0,0-1.52-4.14,26.34,26.34,0,0,0-2.4-3.73,25.22,25.22,0,0,0-3.35-2.92,25.27,25.27,0,0,0-3.63-2.48,25,25,0,0,0-3.93-2,24.45,24.45,0,0,0-4.25-1.25A25.84,25.84,0,0,0,69,33.9a25,25,0,0,0-4.35.6c-1.48.26-3.13-.19-4.51.32s-2.43,1.85-3.71,2.58a24.86,24.86,0,0,0-3.6,2.5c-1.14,1-2.65,1.54-3.6,2.68S48,45.36,47.26,46.64a25.54,25.54,0,0,0-1.88,4,24.72,24.72,0,0,0-1.07,4.23c-.16.92-.29,1.82-.37,2.74a26.19,26.19,0,0,0-4.27-.19,25,25,0,0,0-4.35.59c-1.48.26-3.13-.18-4.51.32s-2.43,1.85-3.7,2.59a24.36,24.36,0,0,0-3.61,2.49c-1.14,1-2.65,1.55-3.6,2.68S18.72,68.82,18,70.11a24.51,24.51,0,0,0-1.87,3.94A24,24,0,0,0,15,78.29a25,25,0,0,0-.45,4.35A23.93,23.93,0,0,0,15.05,87c.26,1.48.12,3,.62,4.39a25,25,0,0,0,2.11,3.91A24.66,24.66,0,0,0,20.21,99a26.25,26.25,0,0,0,3,3.34,26.13,26.13,0,0,0,3.64,2.6A52.29,52.29,0,0,0,35.21,108c.22,0,.46.06.69.09h0a31.35,31.35,0,0,0,3.77.15,26.11,26.11,0,0,0,4.45-.39,6.56,6.56,0,0,0,1.07-.31c.52-.2,1-.45,1.52-.7a15.65,15.65,0,0,1,1.51-.69l.28-.1a12.3,12.3,0,0,0,.48,3.23,24.86,24.86,0,0,0,2.11,3.9,22.63,22.63,0,0,0,9,9.62,50.9,50.9,0,0,0,8.38,3.08,26.41,26.41,0,0,0,4.47.24,26,26,0,0,0,4.44-.39c1.48-.26,2.73-1.19,4.11-1.7a24.84,24.84,0,0,0,4.06-1.65,26.24,26.24,0,0,0,3.86-2.21c1.13-1,1.75-2.4,2.7-3.54a24.12,24.12,0,0,0,2.89-3.35,25.74,25.74,0,0,0,2.32-3.87,26.61,26.61,0,0,0,.88-4.42c.09-.51.14-1,.18-1.57a54.54,54.54,0,0,0,7,2.44,26.41,26.41,0,0,0,4.47.24,26,26,0,0,0,4.44-.39c1.48-.26,2.73-1.2,4.11-1.7a25.76,25.76,0,0,0,4.06-1.65,25.29,25.29,0,0,0,3.86-2.22c1.14-1,1.75-2.4,2.71-3.54a25.89,25.89,0,0,0,5.2-7.21,26.61,26.61,0,0,0,.88-4.42,26.21,26.21,0,0,0,.26-4.46A26,26,0,0,0,135.12,76.05Z"/><path class="cls-2" d="M14.57,82.64A23.93,23.93,0,0,0,15.05,87c.26,1.48.12,3,.62,4.39a25,25,0,0,0,2.11,3.91A24.66,24.66,0,0,0,20.21,99a26.25,26.25,0,0,0,3,3.34,26.13,26.13,0,0,0,3.64,2.6A52.29,52.29,0,0,0,35.21,108a26.23,26.23,0,0,0,4.46.24,26.11,26.11,0,0,0,4.45-.39c1.48-.26,2.72-1.2,4.1-1.7a24.14,24.14,0,0,0,4.06-1.65,25.29,25.29,0,0,0,3.86-2.22c1.14-1,1.76-2.4,2.71-3.53a25.74,25.74,0,0,0,5.2-7.22,24.71,24.71,0,0,0,.88-4.42,25.17,25.17,0,0,0,.26-4.45,26.13,26.13,0,0,0-.31-4.45c-.26-1.48-1.21-2.73-1.71-4.1A24.59,24.59,0,0,0,61.65,70a25.06,25.06,0,0,0-2.4-3.74,26,26,0,0,0-3.35-2.92,24.42,24.42,0,0,0-3.63-2.47,24.61,24.61,0,0,0-3.93-2,25.33,25.33,0,0,0-4.25-1.24,24.21,24.21,0,0,0-8.77.38c-1.48.26-3.13-.18-4.51.32s-2.43,1.85-3.7,2.59a24.36,24.36,0,0,0-3.61,2.49c-1.14,1-2.65,1.55-3.6,2.68S18.72,68.82,18,70.11a24.51,24.51,0,0,0-1.87,3.94A24,24,0,0,0,15,78.29,25,25,0,0,0,14.57,82.64Z"/><path class="cls-3" d="M54.3,99.13c-1.3.47-2.47,1.35-3.86,1.6a24,24,0,0,1-4.18.36,24.27,24.27,0,0,1-4.2-.22A47.35,47.35,0,0,1,34.18,98a24.24,24.24,0,0,1-3.43-2.44A24.39,24.39,0,0,1,28,92.4a23.66,23.66,0,0,1-2.29-3.47,23.18,23.18,0,0,1-2-3.67,23.22,23.22,0,0,1-.59-4.13,22.85,22.85,0,0,1-.45-4.08A27.69,27.69,0,0,1,24.1,69a23.35,23.35,0,0,1,1.76-3.71,21.4,21.4,0,0,0,1.05-2.51,23.08,23.08,0,0,0-2.43,1.76c-1.07.9-2.49,1.46-3.38,2.53S20,69.66,19.29,70.87a22.56,22.56,0,0,0-1.77,3.71,28.13,28.13,0,0,0-1.43,8.07,23.81,23.81,0,0,0,.44,4.08,25.21,25.21,0,0,0,.59,4.13,24,24,0,0,0,2,3.67A24.49,24.49,0,0,0,21.39,98a25.16,25.16,0,0,0,2.79,3.13,23.9,23.9,0,0,0,3.43,2.44,47,47,0,0,0,7.88,2.9,24.27,24.27,0,0,0,4.2.22,24.87,24.87,0,0,0,4.17-.36c1.39-.25,2.57-1.13,3.86-1.6a23.68,23.68,0,0,0,3.82-1.55,24.93,24.93,0,0,0,3.63-2.08c1-.89,1.63-2.22,2.51-3.28A31.13,31.13,0,0,1,54.3,99.13Z"/><path class="cls-3" d="M60.46,78a25,25,0,0,0-4.35.6c-1.48.26-3.14-.19-4.51.31s-2.43,1.85-3.71,2.59A25,25,0,0,0,44.29,84c-1.14,1-2.65,1.55-3.61,2.69s-1.17,2.77-1.92,4.06a24.25,24.25,0,0,0-1.88,4,30.22,30.22,0,0,0-1.52,8.58,24.85,24.85,0,0,0,.47,4.34c0,.15.05.3.07.45a31.35,31.35,0,0,0,3.77.15,26.11,26.11,0,0,0,4.45-.39c1.48-.26,2.72-1.2,4.1-1.7a24.14,24.14,0,0,0,4.06-1.65,25.29,25.29,0,0,0,3.86-2.22c1.14-1,1.76-2.4,2.71-3.53a25.74,25.74,0,0,0,5.2-7.22,24.71,24.71,0,0,0,.88-4.42,25.17,25.17,0,0,0,.26-4.45,26.83,26.83,0,0,0-.3-4.42h0A25.84,25.84,0,0,0,60.46,78Z"/><path class="cls-4" d="M36.26,62.74l.26-.07.07,0,.16-.07.07,0,.15-.09,0,0,.16-.13,0,0,.07-.09a.18.18,0,0,0,.05-.07l0-.07a.59.59,0,0,0,0-.08v0a.86.86,0,0,0,.05-.23v0s0-.08,0-.11v0a.72.72,0,0,0-.34-.45h0L37,61h0a3.42,3.42,0,0,0-1.29-.23,3.32,3.32,0,0,0-2.28,1c-.42.54,0,.89.77,1h0l.19,0h.06l.17,0h.82l.17,0h.12l.19,0H36Z"/><path class="cls-4" d="M42.9,62.87a2,2,0,0,0,.35,0l.1,0,.23,0,.1,0,.22-.08.06,0,.24-.12.08-.06.12-.09a2547620669010.3,2547620669010.3,0,0,1,.16-.16l.08-.1v0a1.08,1.08,0,0,0,.13-.29v0a.88.88,0,0,0,0-.16v0a1,1,0,0,0-.34-.68h0a3.69,3.69,0,0,0-1.83-.79,4.33,4.33,0,0,0-3.23.7c-.68.59-.2,1.17.73,1.57h0l.24.09.09,0,.21.07.13,0,.21.05.17,0,.19,0,.19,0,.18,0,.22,0h.17l.25,0h.14a2.29,2.29,0,0,0,.37,0Z"/><path class="cls-4" d="M42.49,66a.84.84,0,0,0,.13-.29v0a.86.86,0,0,0,0-.16v0a1,1,0,0,0-.33-.68h0A3.6,3.6,0,0,0,40.48,64a4.33,4.33,0,0,0-3.23.7c-.69.59-.2,1.17.73,1.57h0l.24.09.08,0,.22.07.13,0,.2,0,.17,0,.19,0,.2,0,.18,0,.22,0H40l.26,0h.52a1.87,1.87,0,0,0,.34,0l.1,0,.23-.05.1,0,.22-.08.07,0,.23-.12.08-.06.12-.09.09-.08.07-.08a.39.39,0,0,0,.08-.1Z"/><path class="cls-4" d="M31.89,64.25l.06-.08.06-.1a.36.36,0,0,1,0-.09.66.66,0,0,0,.06-.2.24.24,0,0,0,0-.08.49.49,0,0,0,0-.12V63.5a1.38,1.38,0,0,0-.06-.26v0h0A1.53,1.53,0,0,0,31,62.47a3.89,3.89,0,0,0-2.79.41,8,8,0,0,1-1.88.83h0l-.09.07,0,0a.18.18,0,0,0,0,.07l0,0s0,.06,0,.09v0a.76.76,0,0,0,0,.15c.09.38.76.45,1.59.47a9.37,9.37,0,0,1,2.48.24l.23,0h.07a.54.54,0,0,0,.18,0h.06l.24,0h0l.2-.07.07,0,.14-.08.07,0,.18-.13.06-.07.09-.1A.31.31,0,0,0,31.89,64.25Z"/><path class="cls-4" d="M35.67,66.11h0a1,1,0,0,0-.24-.2h0a2.23,2.23,0,0,0-1.1-.23,2.51,2.51,0,0,0-1.9,1,.56.56,0,0,0,.23.89h0l.13.06h0l.14.05h0a3.3,3.3,0,0,0,.49.09h.64l.15,0h.09l.16,0h.08a1.55,1.55,0,0,0,.23-.06,1.66,1.66,0,0,0,.31-.12l.07,0a1.46,1.46,0,0,0,.24-.17h0a1.12,1.12,0,0,0,.18-.2l0,0a1.27,1.27,0,0,0,.12-.23h0a.79.79,0,0,0,.05-.25v0A.64.64,0,0,0,35.67,66.11Z"/><path class="cls-4" d="M28,67.12a1.57,1.57,0,0,0-1.83,1.15c-.35,1.42-2.39,2.22-2,3.11a2.72,2.72,0,0,0,3.42.85c1.06-.71,2.93-1,3.42-2a1.41,1.41,0,0,0-.76-2.09C29.47,67.69,29.31,66.81,28,67.12Z"/><path class="cls-4" d="M23.26,68.32l.14,0h.1l.16,0,.08,0,.23,0a1.69,1.69,0,0,0,.31-.13l.06,0a1.56,1.56,0,0,0,.25-.17h0a1.8,1.8,0,0,0,.19-.2l0,0a1,1,0,0,0,.12-.23h0a.74.74,0,0,0,0-.25v0a.7.7,0,0,0-.18-.48h0a1.74,1.74,0,0,0-1.34-.43,2.49,2.49,0,0,0-1.9,1,.69.69,0,0,0-.13.38h0a.58.58,0,0,0,.35.5h0l.13.06h0l.14,0h0l.15,0h0l.32,0h.65Z"/><path class="cls-4" d="M57.34,67.34a1.24,1.24,0,0,0,.1-.2s0,0,0,0,0-.07,0-.11v0a.85.85,0,0,0-.08-.37h0a.41.41,0,0,0-.07-.11l0,0-.1-.11h0a2.25,2.25,0,0,0-1-.49,2.52,2.52,0,0,0-2.08.52.56.56,0,0,0,0,.91h0l.11.09,0,0,.12.08h0l.14.08h0a1.88,1.88,0,0,0,.3.12l.07,0,.11,0,.12,0,.1,0,.13,0h.1l.15,0,.09,0h.48l.22,0h.07l.14,0,.07,0,.15-.06,0,0a.51.51,0,0,0,.16-.09l.05,0a.27.27,0,0,0,.08-.07l.06,0a.18.18,0,0,0,.05-.07l0-.06Z"/><path class="cls-4" d="M49.19,65.46l.21.13a4.83,4.83,0,0,0,.68.35l.24.1a3.77,3.77,0,0,0,.7.22l.22,0,.21,0h.2a1,1,0,0,0,.35-.09.86.86,0,0,0,.26-.2l.09-.15a.83.83,0,0,0,0-.15v-.15s0,0,0-.07,0,0,0-.07c-.25-.73-1.72-1.49-2-2.67a1.56,1.56,0,0,0-1.82-1.16c-1.31-.31-1.47.58-2.27,1a1.9,1.9,0,0,0-.74.58h0a1,1,0,0,0-.1.17.36.36,0,0,1,0,.09,1.05,1.05,0,0,0-.05.19.22.22,0,0,0,0,.08.74.74,0,0,0,0,.21V64a1.6,1.6,0,0,0,0,.29.25.25,0,0,0,0,.07,2.79,2.79,0,0,0,.12.34,1,1,0,0,0,.86.51,2.75,2.75,0,0,0,.5,0l.83,0h.54A2,2,0,0,1,49.19,65.46Z"/><path class="cls-4" d="M55.1,69.8a.24.24,0,0,0,0-.09v0a.35.35,0,0,0,0-.08l0,0-.1-.07h0A8.14,8.14,0,0,1,53,68.68a3.89,3.89,0,0,0-2.79-.41,1.51,1.51,0,0,0-1.07.75h0a0,0,0,0,1,0,0,1.22,1.22,0,0,0-.06.26v.08a.49.49,0,0,0,0,.12s0,0,0,.08a1.18,1.18,0,0,0,.07.2.2.2,0,0,0,0,.08l.06.11.06.08.07.09.09.1.06.07.18.13.07,0,.14.08.07,0,.2.07h0l.23,0h.07a.54.54,0,0,0,.18,0h.07l.23,0a3.73,3.73,0,0,1,.87-.17c1.36-.14,3.06.08,3.2-.54a.81.81,0,0,0,0-.15A0,0,0,0,0,55.1,69.8Z"/><path class="cls-5" d="M28,66.23a1.58,1.58,0,0,0-1.83,1.16c-.35,1.42-2.39,2.22-2,3.11a2.73,2.73,0,0,0,3.42.85c1.06-.71,2.93-1,3.42-2a1.41,1.41,0,0,0-.76-2.09C29.47,66.81,29.31,65.93,28,66.23Z"/><path class="cls-6" d="M31,67.8a2.15,2.15,0,0,1-.2.7c-.49,1.07-2.29,1.27-3.35,2s-2.64,0-3.26-.5a.59.59,0,0,0,0,.52,2.73,2.73,0,0,0,3.42.85c1.06-.71,2.93-1,3.42-2A1.42,1.42,0,0,0,31,67.8Z"/><path class="cls-7" d="M35.67,59.85a3.32,3.32,0,0,0-2.28,1c-.76,1,1.32,1.37,2.87,1S38.18,59.87,35.67,59.85Z"/><path class="cls-8" d="M37,60.08c0,.44-.47.92-1.23,1.1a4.76,4.76,0,0,1-2.48-.06c-.2.76,1.61,1.05,3,.72C37.46,61.56,38,60.54,37,60.08Z"/><path class="cls-7" d="M42.63,59.22a4.33,4.33,0,0,0-3.23.7c-1.24,1.07,1.37,2.13,3.5,2S45.92,59.88,42.63,59.22Z"/><path class="cls-8" d="M44.26,59.85c-.11.58-.85,1.08-1.88,1.11a6.33,6.33,0,0,1-3.23-.72C38.69,61.19,41,62,42.9,62,44.54,61.91,45.44,60.71,44.26,59.85Z"/><path class="cls-7" d="M40.48,63.08a4.33,4.33,0,0,0-3.23.7c-1.25,1.07,1.36,2.13,3.5,2S43.76,63.74,40.48,63.08Z"/><path class="cls-8" d="M42.11,63.71c-.11.58-.85,1.08-1.89,1.11A6.36,6.36,0,0,1,37,64.1c-.45,1,1.84,1.8,3.76,1.73C42.39,65.77,43.28,64.57,42.11,63.71Z"/><path class="cls-5" d="M31,61.57a3.89,3.89,0,0,0-2.79.41c-1,.8-2.23.53-2.07,1.3s2.7.25,4.07.71S33.35,62.22,31,61.57Z"/><path class="cls-6" d="M30.21,63.27c-1.18-.39-3.23-.06-3.88-.46a.4.4,0,0,0-.19.47c.17.77,2.7.25,4.07.71,1,.34,2.25-.8,1.86-1.67A1.61,1.61,0,0,1,30.21,63.27Z"/><path class="cls-5" d="M34.33,64.77a2.54,2.54,0,0,0-1.9,1c-.63,1,1.1,1.37,2.4,1S36.43,64.79,34.33,64.77Z"/><path class="cls-6" d="M35.43,65a1.2,1.2,0,0,1-1,1.21,3.27,3.27,0,0,1-2.12-.08c0,.69,1.42.94,2.53.62S36.23,65.48,35.43,65Z"/><path class="cls-5" d="M23.47,65.31a2.49,2.49,0,0,0-1.9,1c-.63,1,1.1,1.36,2.4,1S25.57,65.32,23.47,65.31Z"/><path class="cls-6" d="M24.56,65.55c.09.47-.31,1-1,1.21a3.31,3.31,0,0,1-2.11-.08c0,.68,1.42.93,2.53.62S25.37,66,24.56,65.55Z"/><path class="cls-5" d="M56.18,65a2.52,2.52,0,0,0-2.08.52c-.84.79.75,1.58,2.1,1.53S58.22,65.46,56.18,65Z"/><path class="cls-6" d="M57.19,65.44a1.2,1.2,0,0,1-1.26.94,3.27,3.27,0,0,1-2-.57c-.17.66,1.16,1.24,2.31,1.19S57.86,66.08,57.19,65.44Z"/><path class="cls-5" d="M48.53,60.69a1.56,1.56,0,0,1,1.82,1.15c.35,1.43,2.4,2.23,2,3.11s-2.09.32-3.16-.4-3.2.27-3.69-.8a1.41,1.41,0,0,1,.76-2.08C47.06,61.27,47.22,60.38,48.53,60.69Z"/><path class="cls-6" d="M45.52,62.25a2.27,2.27,0,0,0,.2.71c.49,1.06,2.62.08,3.69.79s2.3,1.13,2.92.69a.61.61,0,0,1,0,.51c-.4.89-2.09.32-3.16-.4s-3.2.27-3.69-.8A1.44,1.44,0,0,1,45.52,62.25Z"/><path class="cls-5" d="M50.24,67.37a3.89,3.89,0,0,1,2.79.41c1,.8,2.23.53,2.07,1.3s-2.7.25-4.07.71S47.89,68,50.24,67.37Z"/><path class="cls-6" d="M51,69.07c1.18-.39,3.23-.06,3.87-.46a.39.39,0,0,1,.2.47c-.17.76-2.7.25-4.07.71-1,.34-2.25-.8-1.86-1.67A1.61,1.61,0,0,0,51,69.07Z"/><path class="cls-2" d="M84.81,80.49a24.86,24.86,0,0,0,.47,4.35c.26,1.48.12,3,.62,4.39A25.82,25.82,0,0,0,88,93.14a26.09,26.09,0,0,0,2.44,3.68,25.43,25.43,0,0,0,3,3.34,25.35,25.35,0,0,0,3.65,2.59,50.94,50.94,0,0,0,8.38,3.09,26.41,26.41,0,0,0,4.47.24,26,26,0,0,0,4.44-.39c1.48-.26,2.73-1.2,4.11-1.7a25.76,25.76,0,0,0,4.06-1.65,25.29,25.29,0,0,0,3.86-2.22c1.14-1,1.75-2.4,2.71-3.54a25.89,25.89,0,0,0,5.2-7.21,26.61,26.61,0,0,0,.88-4.42,26.21,26.21,0,0,0,.26-4.46,26,26,0,0,0-.31-4.44c-.26-1.48-1.21-2.73-1.72-4.11a24.78,24.78,0,0,0-1.51-4.13,25.12,25.12,0,0,0-2.41-3.74,25.23,25.23,0,0,0-3.34-2.92,25.27,25.27,0,0,0-3.63-2.48,25,25,0,0,0-3.93-2,25.36,25.36,0,0,0-4.25-1.25,25.84,25.84,0,0,0-4.42-.21,25,25,0,0,0-4.35.6c-1.48.26-3.14-.18-4.52.32s-2.42,1.85-3.7,2.59a24.27,24.27,0,0,0-3.6,2.49c-1.14,1-2.65,1.54-3.61,2.68S89,66.68,88.21,68a24.15,24.15,0,0,0-1.88,3.94,29.47,29.47,0,0,0-1.52,8.58Z"/><path class="cls-3" d="M124.54,97c-1.3.47-2.48,1.35-3.87,1.6a24.87,24.87,0,0,1-4.17.36,24.27,24.27,0,0,1-4.2-.22,47.35,47.35,0,0,1-7.88-2.9A24.47,24.47,0,0,1,101,93.39a25.16,25.16,0,0,1-2.79-3.13,24.49,24.49,0,0,1-2.29-3.47,24,24,0,0,1-2-3.67A24.17,24.17,0,0,1,93.35,79a24.42,24.42,0,0,1,1-12.15,22.56,22.56,0,0,1,1.77-3.71,25.47,25.47,0,0,0,1.05-2.51,22.09,22.09,0,0,0-2.43,1.76c-1.07.9-2.49,1.46-3.39,2.52s-1.11,2.62-1.81,3.83a23.35,23.35,0,0,0-1.76,3.71,27.71,27.71,0,0,0-1.44,8.06,23.07,23.07,0,0,0,.45,4.09,23.22,23.22,0,0,0,.59,4.13,23.18,23.18,0,0,0,2,3.67,23,23,0,0,0,2.29,3.46A24.48,24.48,0,0,0,94.41,99a25.07,25.07,0,0,0,3.43,2.44,49.2,49.2,0,0,0,7.88,2.9,25.31,25.31,0,0,0,4.2.22,25,25,0,0,0,4.18-.36c1.39-.25,2.56-1.13,3.86-1.6a23.68,23.68,0,0,0,3.82-1.55A25.88,25.88,0,0,0,125.41,99c1-.89,1.63-2.22,2.51-3.29A29.25,29.25,0,0,1,124.54,97Z"/><path class="cls-4" d="M106.5,60.6l.25-.07.07,0,.16-.07.07,0a.38.38,0,0,0,.15-.09l0,0,.15-.13,0,0,.08-.09,0-.07a.16.16,0,0,0,0-.07.56.56,0,0,0,0-.08v0a.64.64,0,0,0,0-.23v0a.49.49,0,0,0,0-.12h0a.72.72,0,0,0-.35-.45h0l-.17-.09h0a3.34,3.34,0,0,0-1.29-.23,3.29,3.29,0,0,0-2.27,1c-.42.53,0,.89.76,1h0l.18,0h.07l.17,0h1.11l.19,0h.1Z"/><path class="cls-4" d="M113.14,60.73a1.87,1.87,0,0,0,.34,0l.11,0,.22,0,.1,0,.22-.07.07,0,.23-.12.08-.06.12-.09.09-.08.07-.08a.39.39,0,0,0,.08-.1v0a.69.69,0,0,0,.13-.29v0a.86.86,0,0,0,0-.16v0a1,1,0,0,0-.33-.68h0a3.6,3.6,0,0,0-1.82-.79,4.33,4.33,0,0,0-3.23.7c-.69.59-.2,1.17.73,1.57h0l.24.09.08,0,.22.07.13,0,.2.05.17,0,.19,0,.2,0,.18,0,.22,0h.16l.26,0h.13a2.41,2.41,0,0,0,.38,0Z"/><path class="cls-4" d="M112.73,63.81a1.08,1.08,0,0,0,.13-.29v0a.88.88,0,0,0,0-.16v0a1,1,0,0,0-.34-.68h0a3.69,3.69,0,0,0-1.83-.79,4.33,4.33,0,0,0-3.23.7c-.68.59-.2,1.17.73,1.57h0l.24.09.09,0,.21.07.14,0,.2,0,.17,0,.19,0,.2,0,.17,0,.23,0,.16,0,.26,0H111c.12,0,.24,0,.35,0l.1,0,.23-.05.1,0,.22-.07.06,0,.24-.13.08,0,.12-.09.09-.08.07-.08.08-.1Z"/><path class="cls-4" d="M102.13,62.11l.06-.09.06-.1,0-.08a1.18,1.18,0,0,0,.07-.2l0-.08a.49.49,0,0,1,0-.12s0,0,0-.08a.62.62,0,0,0-.06-.26s0,0,0,0h0a1.49,1.49,0,0,0-1.07-.75,3.89,3.89,0,0,0-2.79.41,8.4,8.4,0,0,1-1.87.83h0l-.1.07v0a.35.35,0,0,0,0,.08s0,0,0,0a.19.19,0,0,0,0,.08s0,0,0,0a.89.89,0,0,0,0,.15c.08.38.76.44,1.58.47a9.29,9.29,0,0,1,2.48.24l.24,0h.07a.48.48,0,0,0,.17,0H101l.23,0h0l.19-.07.08,0,.14-.08.07,0a1.09,1.09,0,0,0,.17-.13l.06-.07a.47.47,0,0,0,.1-.1Z"/><path class="cls-4" d="M105.91,64h0a1,1,0,0,0-.25-.2h0a2.28,2.28,0,0,0-1.09-.24,2.53,2.53,0,0,0-1.9,1,.56.56,0,0,0,.22.89h0l.13.06h0l.14.05h0a3.41,3.41,0,0,0,.48.09h.89l.16,0h.08l.23-.06a1.34,1.34,0,0,0,.3-.12l.07,0a2.71,2.71,0,0,0,.25-.17h0a1.12,1.12,0,0,0,.18-.2l0,0a.89.89,0,0,0,.13-.23h0a1.23,1.23,0,0,0,0-.25v0A.69.69,0,0,0,105.91,64Z"/><path class="cls-4" d="M98.24,65a1.56,1.56,0,0,0-1.82,1.15c-.35,1.42-2.4,2.22-2,3.11a2.73,2.73,0,0,0,3.42.85c1.07-.71,2.93-1,3.42-2a1.41,1.41,0,0,0-.75-2.09C99.71,65.55,99.54,64.67,98.24,65Z"/><path class="cls-4" d="M127.57,65.2a.67.67,0,0,0,.1-.21s0,0,0,0a.3.3,0,0,0,0-.1v0a.71.71,0,0,0-.08-.37h0l-.07-.12,0,0-.1-.11h0a2.21,2.21,0,0,0-1-.49,2.5,2.5,0,0,0-2.08.51.56.56,0,0,0,0,.92h0l.11.09h0l.13.09h0l.14.08h0a1.34,1.34,0,0,0,.3.12l.07,0,.11,0,.11,0,.11,0,.13,0h.1l.14,0h.1l.16,0h.32l.22,0h.06l.15,0,.06,0,.15-.06,0,0,.15-.09.06,0,.08-.07s0,0,0,0l.06-.07,0-.06Z"/><path class="cls-4" d="M119.43,63.31l.2.14c.22.12.45.25.68.35l.24.1a4.23,4.23,0,0,0,.7.21l.23,0,.21,0h.2a.9.9,0,0,0,.34-.09.67.67,0,0,0,.26-.21.38.38,0,0,0,.09-.15.42.42,0,0,0,0-.15.07.07,0,0,0,0-.05v-.09a.17.17,0,0,1,0-.07l0-.07c-.24-.74-1.71-1.49-2-2.68a1.56,1.56,0,0,0-1.82-1.15c-1.3-.31-1.47.58-2.26,1a1.83,1.83,0,0,0-.74.58h0a1,1,0,0,0-.1.17.36.36,0,0,0,0,.09l-.06.19s0,0,0,.08a1.48,1.48,0,0,0,0,.21v.07c0,.09,0,.19,0,.29a.14.14,0,0,1,0,.07c0,.1.08.22.13.33a1,1,0,0,0,.86.52,3.94,3.94,0,0,0,.5,0l.82,0h.55A2,2,0,0,1,119.43,63.31Z"/><path class="cls-4" d="M125.34,67.65a.19.19,0,0,0,0-.08l0,0a.35.35,0,0,0,0-.08v0l-.1-.07h0a8.9,8.9,0,0,1-1.87-.83,3.89,3.89,0,0,0-2.79-.41,1.51,1.51,0,0,0-1.07.74h0a0,0,0,0,0,0,0,.62.62,0,0,0-.06.26s0,0,0,.08a.49.49,0,0,1,0,.12s0,0,0,.08a1.18,1.18,0,0,0,.07.2l0,.08.06.1.06.09.07.09a.47.47,0,0,0,.1.1l.06.07.17.13.07,0,.14.08.08,0,.19.07h0l.23,0h.07a.48.48,0,0,0,.17,0H121l.24,0a3.64,3.64,0,0,1,.86-.17c1.37-.14,3.07.08,3.2-.54a.89.89,0,0,0,0-.15S125.34,67.67,125.34,67.65Z"/><path class="cls-4" d="M117.57,64.52a2.54,2.54,0,0,0-1.9-1,2.33,2.33,0,0,0-1.1.24h0a1,1,0,0,0-.24.2h0a.64.64,0,0,0-.18.48v0a.79.79,0,0,0,0,.25h0a1.27,1.27,0,0,0,.12.23l0,0a1.12,1.12,0,0,0,.18.2h0a2.49,2.49,0,0,0,.24.17l.07,0a1.66,1.66,0,0,0,.31.12h0l.23.06h.08l.16,0h.88l.33,0h0l.16,0h0l.14-.05h0l.13-.06h0a.58.58,0,0,0,.36-.51h0A.72.72,0,0,0,117.57,64.52Z"/><path class="cls-5" d="M98.24,64.09a1.57,1.57,0,0,0-1.82,1.16c-.35,1.42-2.4,2.22-2,3.11a2.73,2.73,0,0,0,3.42.85c1.07-.71,2.93-1,3.42-2a1.41,1.41,0,0,0-.75-2.09C99.71,64.67,99.54,63.79,98.24,64.09Z"/><path class="cls-6" d="M101.24,65.65a1.94,1.94,0,0,1-.19.71c-.49,1.06-2.29,1.27-3.36,2-.92.62-2.63-.06-3.25-.5a.59.59,0,0,0,0,.52,2.73,2.73,0,0,0,3.42.85c1.07-.71,2.93-1,3.42-2A1.41,1.41,0,0,0,101.24,65.65Z"/><path class="cls-7" d="M105.9,57.71a3.24,3.24,0,0,0-2.27,1c-.76,1,1.31,1.37,2.87,1S108.42,57.72,105.9,57.71Z"/><path class="cls-8" d="M107.19,57.94c0,.44-.46.92-1.22,1.09a4.77,4.77,0,0,1-2.48-.05c-.2.76,1.61,1.05,3,.72C107.7,59.42,108.18,58.4,107.19,57.94Z"/><path class="cls-7" d="M112.87,57.08a4.33,4.33,0,0,0-3.23.7c-1.25,1.07,1.36,2.13,3.5,2S116.15,57.74,112.87,57.08Z"/><path class="cls-8" d="M114.5,57.71c-.11.58-.85,1.07-1.89,1.11a6.36,6.36,0,0,1-3.23-.72c-.45.95,1.84,1.8,3.76,1.73C114.78,59.77,115.67,58.57,114.5,57.71Z"/><path class="cls-7" d="M110.71,60.93a4.36,4.36,0,0,0-3.23.71c-1.24,1.07,1.37,2.13,3.5,2S114,61.6,110.71,60.93Z"/><path class="cls-8" d="M112.34,61.57c-.11.58-.84,1.07-1.88,1.11a6.33,6.33,0,0,1-3.23-.72c-.46.95,1.84,1.8,3.75,1.73C112.62,63.63,113.52,62.42,112.34,61.57Z"/><path class="cls-5" d="M101.23,59.43a3.89,3.89,0,0,0-2.79.41c-1,.8-2.23.53-2.06,1.3s2.7.25,4.06.71S103.59,60.08,101.23,59.43Z"/><path class="cls-6" d="M100.44,61.13c-1.18-.39-3.23-.07-3.87-.46a.39.39,0,0,0-.19.47c.16.76,2.7.25,4.06.71,1,.34,2.25-.8,1.86-1.68A1.6,1.6,0,0,1,100.44,61.13Z"/><path class="cls-5" d="M104.57,62.63a2.53,2.53,0,0,0-1.9,1c-.64,1,1.1,1.37,2.4,1S106.67,62.64,104.57,62.63Z"/><path class="cls-6" d="M105.66,62.87a1.2,1.2,0,0,1-1,1.21,3.24,3.24,0,0,1-2.11-.08c0,.69,1.42.94,2.53.62S106.47,63.33,105.66,62.87Z"/><path class="cls-5" d="M126.42,62.81a2.5,2.5,0,0,0-2.08.51c-.84.79.75,1.59,2.1,1.54S128.46,63.32,126.42,62.81Z"/><path class="cls-6" d="M127.43,63.3a1.21,1.21,0,0,1-1.27.94,3.31,3.31,0,0,1-2-.58c-.16.67,1.16,1.24,2.32,1.2S128.1,63.94,127.43,63.3Z"/><path class="cls-5" d="M118.76,58.55a1.56,1.56,0,0,1,1.82,1.15c.36,1.42,2.4,2.22,2,3.11s-2.09.31-3.15-.4-3.2.27-3.69-.8a1.4,1.4,0,0,1,.76-2.08C117.29,59.13,117.46,58.24,118.76,58.55Z"/><path class="cls-6" d="M115.76,60.11a2.15,2.15,0,0,0,.2.7c.49,1.07,2.62.09,3.68.8s2.31,1.13,2.93.69a.61.61,0,0,1,0,.51c-.4.89-2.09.31-3.15-.4s-3.2.27-3.69-.8A1.39,1.39,0,0,1,115.76,60.11Z"/><path class="cls-5" d="M120.48,65.23a3.89,3.89,0,0,1,2.79.41c1,.8,2.23.53,2.06,1.3s-2.7.25-4.06.71S118.12,65.88,120.48,65.23Z"/><path class="cls-6" d="M121.27,66.93c1.18-.4,3.23-.07,3.87-.47a.41.41,0,0,1,.19.48c-.16.76-2.7.25-4.06.71-1,.33-2.25-.8-1.86-1.68A1.6,1.6,0,0,0,121.27,66.93Z"/><path class="cls-5" d="M115.67,62.63a2.54,2.54,0,0,1,1.9,1c.63,1-1.1,1.37-2.4,1S113.57,62.64,115.67,62.63Z"/><path class="cls-6" d="M114.57,62.87a1.2,1.2,0,0,0,1,1.21A3.27,3.27,0,0,0,117.7,64c0,.69-1.42.94-2.53.62S113.77,63.33,114.57,62.87Z"/><path class="cls-9" d="M43.86,59.17a25,25,0,0,0,.47,4.35c.26,1.48.12,3,.63,4.39a25.66,25.66,0,0,0,2.1,3.9A25.62,25.62,0,0,0,49.5,75.5a27,27,0,0,0,3,3.34,25.92,25.92,0,0,0,3.65,2.59,50.33,50.33,0,0,0,8.38,3.08,25.41,25.41,0,0,0,4.47.24,24.94,24.94,0,0,0,4.44-.39c1.48-.26,2.73-1.19,4.11-1.69A25.41,25.41,0,0,0,81.57,81a25.24,25.24,0,0,0,3.86-2.21c1.14-1,1.75-2.4,2.71-3.54a25.89,25.89,0,0,0,5.2-7.21,26.61,26.61,0,0,0,.88-4.42,26.27,26.27,0,0,0,.26-4.46,26,26,0,0,0-.31-4.44C93.91,53.25,93,52,92.46,50.62a26.2,26.2,0,0,0-1.52-4.14,26.34,26.34,0,0,0-2.4-3.73,25.22,25.22,0,0,0-3.35-2.92,25.27,25.27,0,0,0-3.63-2.48,25,25,0,0,0-3.93-2,24.45,24.45,0,0,0-4.25-1.25A25.84,25.84,0,0,0,69,33.9a25,25,0,0,0-4.35.6c-1.48.26-3.13-.19-4.51.32s-2.43,1.85-3.71,2.58a24.86,24.86,0,0,0-3.6,2.5c-1.14,1-2.65,1.54-3.6,2.68S48,45.36,47.26,46.64a25.54,25.54,0,0,0-1.88,4,24.72,24.72,0,0,0-1.07,4.23A24,24,0,0,0,43.86,59.17Z"/><path class="cls-2" d="M88.65,74.7c-.53-.35-1.08-.69-1.64-1a24.61,24.61,0,0,0-3.93-2,25.33,25.33,0,0,0-4.25-1.24,25.84,25.84,0,0,0-4.42-.21,25,25,0,0,0-4.35.59c-1.48.26-3.13-.18-4.51.32s-2.43,1.85-3.7,2.59a24.36,24.36,0,0,0-3.61,2.49c-1.14,1-2.65,1.55-3.6,2.68A5.18,5.18,0,0,0,54,80a24.94,24.94,0,0,0,2.15,1.42,50.33,50.33,0,0,0,8.38,3.08,25.41,25.41,0,0,0,4.47.24,24.94,24.94,0,0,0,4.44-.39c1.48-.26,2.73-1.19,4.11-1.69A25.41,25.41,0,0,0,81.57,81a25.24,25.24,0,0,0,3.86-2.21c1.14-1,1.75-2.4,2.71-3.54C88.3,75.07,88.47,74.88,88.65,74.7Z"/><path class="cls-2" d="M83.59,75.67c-1.3.47-2.47,1.35-3.86,1.59a24.07,24.07,0,0,1-4.18.37,25.31,25.31,0,0,1-4.2-.22,49.2,49.2,0,0,1-7.88-2.9A25.07,25.07,0,0,1,60,72.07a23.74,23.74,0,0,1-2.78-3.14A23,23,0,0,1,55,65.47a23.23,23.23,0,0,1-2-3.67,24.17,24.17,0,0,1-.58-4.13A23.07,23.07,0,0,1,52,53.58a23.81,23.81,0,0,1,.42-4.08,22.54,22.54,0,0,1,1-4,23.35,23.35,0,0,1,1.76-3.71A21.4,21.4,0,0,0,56.2,39.3a21.73,21.73,0,0,0-2.43,1.76c-1.07.9-2.49,1.45-3.39,2.52s-1.11,2.61-1.81,3.82a23.35,23.35,0,0,0-1.76,3.71,23,23,0,0,0-1,4,23.06,23.06,0,0,0-.42,4.09,23.81,23.81,0,0,0,.44,4.08c.25,1.4.11,2.84.59,4.14a23.18,23.18,0,0,0,2,3.67,23.83,23.83,0,0,0,2.29,3.46,25.26,25.26,0,0,0,2.78,3.14,25.07,25.07,0,0,0,3.43,2.44A48.22,48.22,0,0,0,64.77,83a24.32,24.32,0,0,0,4.2.23,24,24,0,0,0,4.18-.37c1.39-.24,2.57-1.12,3.86-1.59a22.84,22.84,0,0,0,3.82-1.56,24,24,0,0,0,3.63-2.08c1.05-.88,1.63-2.22,2.51-3.28A29.25,29.25,0,0,1,83.59,75.67Z"/><path class="cls-2" d="M65.55,39.28l.25-.08.07,0,.17-.07.06,0,.15-.09,0,0,.15-.12.06-.06.07-.08,0-.07a.25.25,0,0,0,0-.07.35.35,0,0,0,0-.08v0a.5.5,0,0,0,0-.23v0a.5.5,0,0,0,0-.12h0a.76.76,0,0,0-.35-.46h0l-.17-.09h0A3,3,0,0,0,65,37.29a3.25,3.25,0,0,0-2.27,1c-.42.53,0,.89.76,1h0l.18,0h.07l.17,0H65l.19,0h.1Z"/><path class="cls-2" d="M72.19,39.41c.12,0,.23,0,.35,0l.1,0,.22,0,.1,0,.22-.08.07,0a1.71,1.71,0,0,0,.23-.13l.09,0,.11-.09.09-.08.07-.08.08-.1,0,0a.89.89,0,0,0,.12-.29v0a.92.92,0,0,0,0-.16v0a1,1,0,0,0-.33-.69h0a3.69,3.69,0,0,0-1.82-.8,4.36,4.36,0,0,0-3.23.71c-.69.58-.2,1.17.73,1.57h0l.24.09.08,0,.22.07.13,0,.2.05.17,0,.19,0,.2,0,.18,0,.22,0,.16,0h.78Z"/><path class="cls-2" d="M71.78,42.49a1.14,1.14,0,0,0,.13-.3h0a1,1,0,0,0,0-.16v0a1,1,0,0,0-.34-.69h0a3.69,3.69,0,0,0-1.82-.8,4.39,4.39,0,0,0-3.24.71c-.68.58-.19,1.17.74,1.56h0a1.33,1.33,0,0,0,.24.1l.08,0,.21.07.14,0,.2,0,.17,0,.19,0,.2,0,.17,0,.23,0,.16,0H70l.35,0,.1,0,.23,0,.1,0,.22-.08.06,0a1.36,1.36,0,0,0,.24-.13l.08,0,.12-.09.09-.08.07-.08.08-.1Z"/><path class="cls-2" d="M61.18,40.79l.06-.09.06-.1,0-.08a.8.8,0,0,0,.07-.2s0,0,0-.08,0-.08,0-.12a.22.22,0,0,0,0-.08.58.58,0,0,0-.06-.26v0h0A1.53,1.53,0,0,0,60.28,39a3.87,3.87,0,0,0-2.78.41,8.51,8.51,0,0,1-1.88.82h0a.36.36,0,0,0-.09.08l0,0,0,.07s0,0,0,0,0,0,0,.08v0a.86.86,0,0,0,0,.15c.08.38.76.44,1.58.47a9.41,9.41,0,0,1,2.49.24l.23,0H60a.85.85,0,0,0,.23,0h0l.2-.08.07,0,.14-.08.07,0L61,41,61,41l.09-.1Z"/><path class="cls-2" d="M65,42.65h0a.8.8,0,0,0-.24-.2h0a2.24,2.24,0,0,0-1.1-.24,2.49,2.49,0,0,0-1.9,1,.56.56,0,0,0,.22.89h0l.13.07h0l.14,0h0a1.86,1.86,0,0,0,.48.09h.89l.16,0h.08l.23-.06a1.66,1.66,0,0,0,.31-.12l.06,0a1.53,1.53,0,0,0,.25-.16v0l.19-.19,0,0a1.34,1.34,0,0,0,.12-.24h0a.7.7,0,0,0,0-.25h0A.69.69,0,0,0,65,42.65Z"/><path class="cls-2" d="M57.29,43.65a1.57,1.57,0,0,0-1.82,1.16c-.35,1.42-2.4,2.22-2,3.11a2.74,2.74,0,0,0,3.43.85c1.06-.71,2.93-1,3.42-2.05a1.42,1.42,0,0,0-.76-2.09C58.76,44.23,58.6,43.35,57.29,43.65Z"/><path class="cls-2" d="M52.55,44.85h.24l.15,0H53l.24-.06a1.34,1.34,0,0,0,.3-.12l.07,0a2.2,2.2,0,0,0,.25-.17h0a1.12,1.12,0,0,0,.18-.2l0,0a.89.89,0,0,0,.13-.23h0a1.23,1.23,0,0,0,.05-.25v0a.74.74,0,0,0-.18-.48h0a1.78,1.78,0,0,0-1.34-.44,2.53,2.53,0,0,0-1.9,1,.72.72,0,0,0-.13.38h0a.56.56,0,0,0,.35.51h0l.13.06h0l.14,0h0l.15,0h0l.32.05h.65Z"/><path class="cls-2" d="M86.63,43.88a1,1,0,0,0,.09-.21s0,0,0,0,0-.07,0-.1v0a.62.62,0,0,0-.08-.37h0A.75.75,0,0,0,86.6,43l0,0-.1-.11h0a2.21,2.21,0,0,0-1-.49,2.5,2.5,0,0,0-2.08.51.57.57,0,0,0,0,.92h0l.11.09h0a.57.57,0,0,0,.13.08l0,0,.14.08h0l.3.12.07,0,.11,0,.12,0,.1,0,.13,0,.1,0,.14,0h.58l.22,0,.06,0,.15,0,.06,0,.15-.06,0,0,.15-.09.06,0,.08-.07.06,0,0-.07a.18.18,0,0,0,.05-.07Z"/><path class="cls-2" d="M78.48,42l.21.13a6.23,6.23,0,0,0,.68.36l.23.1a4.06,4.06,0,0,0,.71.21l.22,0h.41a1.79,1.79,0,0,0,.35-.09.64.64,0,0,0,.25-.21.38.38,0,0,0,.09-.15.44.44,0,0,0,.05-.15V42.1s0-.05,0-.07a.24.24,0,0,1,0-.08c-.25-.73-1.72-1.48-2-2.67a1.56,1.56,0,0,0-1.82-1.15c-1.3-.31-1.46.57-2.26,1a1.94,1.94,0,0,0-.74.59h0a1,1,0,0,0-.1.17l0,.09-.06.19a.25.25,0,0,1,0,.08,1.34,1.34,0,0,0,0,.21.2.2,0,0,0,0,.07,1,1,0,0,0,.05.28.14.14,0,0,0,0,.07,2.79,2.79,0,0,0,.12.34,1,1,0,0,0,.86.52,4,4,0,0,0,.5,0l.82,0h.55A1.89,1.89,0,0,1,78.48,42Z"/><path class="cls-2" d="M84.39,46.33a.19.19,0,0,0,0-.08s0,0,0,0l0-.07,0,0-.1-.08h0a8.28,8.28,0,0,1-1.87-.82,3.92,3.92,0,0,0-2.79-.42,1.52,1.52,0,0,0-1.07.75h0a0,0,0,0,0,0,0,.76.76,0,0,0-.06.26v.08a.49.49,0,0,0,0,.12s0,.05,0,.08a1.59,1.59,0,0,0,.07.2.3.3,0,0,0,0,.08.21.21,0,0,0,.06.1.24.24,0,0,0,.06.09l.06.09.1.1.06.06L79,47l.07.05.15.08.07,0,.19.08h0l.23,0h.31a1,1,0,0,0,.24-.05,4.22,4.22,0,0,1,.87-.16c1.36-.14,3.06.08,3.19-.55a.36.36,0,0,0,0-.14S84.39,46.34,84.39,46.33Z"/><path class="cls-2" d="M76.62,43.2a2.49,2.49,0,0,0-1.9-1,2.24,2.24,0,0,0-1.1.24h0a.8.8,0,0,0-.24.2h0a.69.69,0,0,0-.18.48h0a.7.7,0,0,0,0,.25h0a1.34,1.34,0,0,0,.12.24l0,0a1.7,1.7,0,0,0,.19.19v0a1.53,1.53,0,0,0,.25.16l.06,0a1.66,1.66,0,0,0,.31.12h0l.23.06h.08l.16,0h.89a1.64,1.64,0,0,0,.32-.05h0l.16,0h0l.14,0h0l.12-.07h0a.6.6,0,0,0,.35-.51h0A.72.72,0,0,0,76.62,43.2Z"/><path class="cls-5" d="M57.29,42.77a1.56,1.56,0,0,0-1.82,1.16c-.35,1.42-2.4,2.22-2,3.11a2.76,2.76,0,0,0,3.43.85c1.06-.71,2.93-1,3.42-2a1.42,1.42,0,0,0-.76-2.09C58.76,43.35,58.6,42.46,57.29,42.77Z"/><path class="cls-6" d="M60.3,44.33a2.2,2.2,0,0,1-.2.71c-.49,1.06-2.29,1.27-3.35,2s-2.64-.06-3.26-.5a.59.59,0,0,0,0,.52,2.76,2.76,0,0,0,3.43.85c1.06-.71,2.93-1,3.42-2A1.46,1.46,0,0,0,60.3,44.33Z"/><path class="cls-7" d="M65,36.39a3.25,3.25,0,0,0-2.27,1c-.76,1,1.32,1.37,2.87,1S67.47,36.4,65,36.39Z"/><path class="cls-8" d="M66.24,36.62c0,.44-.46.91-1.22,1.09a4.76,4.76,0,0,1-2.48-.06c-.2.77,1.61,1.06,3,.73C66.75,38.1,67.23,37.08,66.24,36.62Z"/><path class="cls-7" d="M71.92,35.75a4.36,4.36,0,0,0-3.23.71c-1.24,1.06,1.37,2.12,3.5,2S75.21,36.42,71.92,35.75Z"/><path class="cls-8" d="M73.55,36.39c-.11.57-.85,1.07-1.89,1.11a6.38,6.38,0,0,1-3.23-.72c-.45.95,1.84,1.8,3.76,1.73C73.83,38.45,74.73,37.24,73.55,36.39Z"/><path class="cls-7" d="M69.77,39.61a4.39,4.39,0,0,0-3.24.71c-1.24,1.06,1.37,2.12,3.5,2S73.05,40.28,69.77,39.61Z"/><path class="cls-8" d="M71.39,40.25c-.1.57-.84,1.07-1.88,1.11a6.36,6.36,0,0,1-3.23-.72c-.46,1,1.84,1.8,3.75,1.73C71.68,42.31,72.57,41.1,71.39,40.25Z"/><path class="cls-5" d="M60.28,38.1a3.89,3.89,0,0,0-2.78.42c-1,.8-2.24.53-2.07,1.3s2.7.25,4.07.7S62.64,38.76,60.28,38.1Z"/><path class="cls-6" d="M59.5,39.81c-1.19-.4-3.24-.07-3.88-.47a.4.4,0,0,0-.19.48c.17.76,2.7.25,4.07.7,1,.34,2.24-.79,1.86-1.67A1.61,1.61,0,0,1,59.5,39.81Z"/><path class="cls-5" d="M63.62,41.31a2.49,2.49,0,0,0-1.9,1c-.63,1,1.1,1.37,2.4,1S65.72,41.32,63.62,41.31Z"/><path class="cls-6" d="M64.72,41.55a1.21,1.21,0,0,1-1,1.21,3.27,3.27,0,0,1-2.12-.08c0,.68,1.42.93,2.53.62S65.52,42,64.72,41.55Z"/><path class="cls-5" d="M52.76,41.84a2.53,2.53,0,0,0-1.9,1c-.64,1,1.1,1.37,2.4,1S54.86,41.86,52.76,41.84Z"/><path class="cls-6" d="M53.85,42.08a1.2,1.2,0,0,1-1,1.21,3.24,3.24,0,0,1-2.11-.08c0,.69,1.41.94,2.53.62S54.65,42.55,53.85,42.08Z"/><path class="cls-5" d="M85.47,41.49a2.5,2.5,0,0,0-2.08.51c-.84.79.75,1.59,2.1,1.54S87.51,42,85.47,41.49Z"/><path class="cls-6" d="M86.48,42a1.21,1.21,0,0,1-1.27.94,3.26,3.26,0,0,1-2-.58c-.17.66,1.15,1.24,2.31,1.2S87.15,42.62,86.48,42Z"/><path class="cls-5" d="M77.81,37.23a1.56,1.56,0,0,1,1.82,1.15c.36,1.42,2.4,2.22,2,3.11s-2.08.31-3.15-.4-3.2.27-3.69-.8a1.41,1.41,0,0,1,.76-2.09C76.35,37.8,76.51,36.92,77.81,37.23Z"/><path class="cls-6" d="M74.81,38.79a2.15,2.15,0,0,0,.2.7c.49,1.07,2.62.09,3.69.8.92.61,2.3,1.13,2.92.68a.59.59,0,0,1,0,.52c-.4.89-2.08.31-3.15-.4s-3.2.27-3.69-.8A1.42,1.42,0,0,1,74.81,38.79Z"/><path class="cls-5" d="M79.53,43.9a3.89,3.89,0,0,1,2.79.41c1,.8,2.23.54,2.06,1.3s-2.7.26-4.06.71S77.17,44.56,79.53,43.9Z"/><path class="cls-6" d="M80.32,45.61c1.18-.4,3.23-.07,3.87-.47a.4.4,0,0,1,.19.47c-.16.77-2.7.26-4.06.71-1,.34-2.25-.79-1.86-1.67A1.6,1.6,0,0,0,80.32,45.61Z"/><path class="cls-5" d="M74.72,41.31a2.49,2.49,0,0,1,1.9,1c.63,1-1.1,1.37-2.4,1S72.62,41.32,74.72,41.31Z"/><path class="cls-6" d="M73.62,41.55a1.21,1.21,0,0,0,1,1.21,3.27,3.27,0,0,0,2.12-.08c0,.68-1.42.93-2.53.62S72.82,42,73.62,41.55Z"/><path class="cls-10" d="M91,62.81s2.41-9.67-3-13.93S88.68,54.41,91,62.81Z"/><path class="cls-9" d="M47.88,100.52a24.75,24.75,0,0,0,.48,4.34c.26,1.48.12,3,.62,4.4a24.86,24.86,0,0,0,2.11,3.9,22.63,22.63,0,0,0,9,9.62,50.9,50.9,0,0,0,8.38,3.08,26.41,26.41,0,0,0,4.47.24,26,26,0,0,0,4.44-.39c1.48-.26,2.73-1.19,4.11-1.7a24.84,24.84,0,0,0,4.06-1.65,26.24,26.24,0,0,0,3.86-2.21c1.13-1,1.75-2.4,2.7-3.54a24.12,24.12,0,0,0,2.89-3.35,25.74,25.74,0,0,0,2.32-3.87,26.69,26.69,0,0,0,.88-4.41,26.28,26.28,0,0,0,.25-4.46,25,25,0,0,0-.31-4.44C97.93,94.6,97,93.35,96.48,92A25.25,25.25,0,0,0,95,87.83a25,25,0,0,0-2.4-3.73,25.14,25.14,0,0,0-3.34-2.92,25.11,25.11,0,0,0-3.64-2.48,24.15,24.15,0,0,0-3.93-2,24.61,24.61,0,0,0-4.24-1.25A25.84,25.84,0,0,0,73,75.25a25.15,25.15,0,0,0-4.36.6c-1.47.26-3.13-.19-4.51.31S61.7,78,60.42,78.75a25.71,25.71,0,0,0-3.61,2.49c-1.13,1-2.64,1.55-3.6,2.69S52,86.7,51.29,88a22.53,22.53,0,0,0-3,8.18A25,25,0,0,0,47.88,100.52Z"/><path class="cls-2" d="M87.61,117c-1.29.47-2.47,1.35-3.86,1.59a24,24,0,0,1-4.18.37,24.32,24.32,0,0,1-4.2-.23,48.22,48.22,0,0,1-7.88-2.89,25.07,25.07,0,0,1-3.43-2.44,25.26,25.26,0,0,1-2.78-3.14A23.83,23.83,0,0,1,59,106.82a24,24,0,0,1-2-3.67A25.18,25.18,0,0,1,56.42,99,23.81,23.81,0,0,1,56,94.93a28.13,28.13,0,0,1,1.43-8.07,23.35,23.35,0,0,1,1.76-3.71,21.25,21.25,0,0,0,1-2.5,21.73,21.73,0,0,0-2.43,1.76c-1.06.9-2.48,1.45-3.38,2.52s-1.11,2.61-1.81,3.82a23.4,23.4,0,0,0-1.77,3.71,21.66,21.66,0,0,0-1,12.15,24,24,0,0,0,.58,4.13,24,24,0,0,0,2,3.67,29.65,29.65,0,0,0,5.08,6.6,23.74,23.74,0,0,0,3.43,2.45,48.22,48.22,0,0,0,7.88,2.89,24.27,24.27,0,0,0,4.2.23,23.86,23.86,0,0,0,4.17-.37c1.4-.24,2.57-1.12,3.87-1.6a22.69,22.69,0,0,0,3.81-1.55A23.56,23.56,0,0,0,88.48,119c1.06-.88,1.64-2.22,2.51-3.28A30.39,30.39,0,0,1,87.61,117Z"/><path class="cls-2" d="M69.58,80.63l.25-.08.07,0,.16-.07.07,0,.15-.09,0,0,.16-.12,0-.06A.27.27,0,0,0,70.6,80l.06-.07,0-.07a.59.59,0,0,1,0-.08v0a.69.69,0,0,0,0-.24h0a.49.49,0,0,0,0-.12v0a.77.77,0,0,0-.35-.45h0l-.17-.09h0A3.07,3.07,0,0,0,69,78.64a3.27,3.27,0,0,0-2.28,1c-.42.53,0,.89.77,1h0l.19,0h.07l.16,0H69l.2,0,.09,0Z"/><path class="cls-2" d="M76.21,80.76l.35,0,.1,0,.23,0,.1,0,.22-.08.06,0a1.36,1.36,0,0,0,.24-.13l.08-.06.12-.08.09-.08.07-.08L78,80v0a1.3,1.3,0,0,0,.13-.3v0a.77.77,0,0,0,0-.15v0a1,1,0,0,0-.34-.69h0a3.69,3.69,0,0,0-1.83-.8,4.37,4.37,0,0,0-3.23.71c-.68.58-.19,1.17.74,1.56h0a1.33,1.33,0,0,0,.24.1l.08,0,.21.07.14,0,.2.06.17,0,.19,0,.2,0,.17,0,.23,0,.16,0h.77Z"/><path class="cls-2" d="M75.81,83.84a.94.94,0,0,0,.12-.3v0a.76.76,0,0,0,0-.15v0a1,1,0,0,0-.33-.68h0a3.69,3.69,0,0,0-1.82-.8,4.39,4.39,0,0,0-3.23.7c-.69.59-.2,1.18.73,1.57h0l.24.1.08,0,.22.06.13,0,.2.06.17,0,.19,0,.2,0,.18,0,.22,0,.16,0h.78l.35,0h.1l.22,0,.1,0,.22-.08.07,0a1.71,1.71,0,0,0,.23-.13l.09-.06a.31.31,0,0,0,.11-.09.34.34,0,0,0,.09-.08.46.46,0,0,0,.07-.07l.08-.1Z"/><path class="cls-2" d="M65.2,82.14l.06-.09a.53.53,0,0,0,.06-.1.3.3,0,0,0,0-.08c0-.07,0-.14.07-.2s0-.06,0-.08a.49.49,0,0,0,0-.12v-.08a1.1,1.1,0,0,0-.06-.26s0,0,0,0h0a1.52,1.52,0,0,0-1.07-.75,3.89,3.89,0,0,0-2.79.41,8,8,0,0,1-1.87.83h0l-.1.08,0,0-.05.07s0,0,0,0a.29.29,0,0,0,0,.09s0,0,0,0a.71.71,0,0,0,0,.14c.09.39.76.45,1.59.47a10.24,10.24,0,0,1,2.48.24,1.06,1.06,0,0,0,.23,0h.32l.23,0h0l.2-.08.07,0,.14-.09.07,0,.18-.14.06-.06.09-.1Z"/><path class="cls-2" d="M69,84h0a1.26,1.26,0,0,0-.25-.19h0a2.21,2.21,0,0,0-1.1-.24,2.5,2.5,0,0,0-1.9,1,.56.56,0,0,0,.23.88h0l.13.06h0l.14,0h0a1.78,1.78,0,0,0,.48.09h.79l.1,0,.15,0,.08,0,.23,0a1.83,1.83,0,0,0,.31-.12l.07,0a1.38,1.38,0,0,0,.25-.17h0A1.12,1.12,0,0,0,69,85l0,0a1,1,0,0,0,.13-.23h0a.69.69,0,0,0,0-.25v0A.71.71,0,0,0,69,84Z"/><path class="cls-2" d="M61.32,85a1.56,1.56,0,0,0-1.82,1.16c-.36,1.42-2.4,2.22-2,3.11a2.73,2.73,0,0,0,3.42.85c1.07-.71,2.93-1,3.42-2.05A1.41,1.41,0,0,0,63.58,86C62.79,85.58,62.62,84.7,61.32,85Z"/><path class="cls-2" d="M56.57,86.2h.24l.16,0h.08l.23-.06a1.66,1.66,0,0,0,.31-.12l.06,0a1.53,1.53,0,0,0,.25-.16h0a1.75,1.75,0,0,0,.19-.2l0,0a1.71,1.71,0,0,0,.12-.23h0a.69.69,0,0,0,0-.24v0a.64.64,0,0,0-.18-.48h0a1.76,1.76,0,0,0-1.34-.44,2.53,2.53,0,0,0-1.9,1,.72.72,0,0,0-.13.38h0a.6.6,0,0,0,.35.51h0l.13.07h0l.14,0h0l.16,0h0l.32,0h.65Z"/><path class="cls-2" d="M90.65,85.23a1,1,0,0,0,.1-.21v0s0-.07,0-.1v0a.69.69,0,0,0-.08-.37h0a.83.83,0,0,0-.08-.12l0,0a.35.35,0,0,0-.1-.11h0a2.16,2.16,0,0,0-1-.49,2.5,2.5,0,0,0-2.08.51.56.56,0,0,0,0,.91h0l.12.09,0,0,.12.08,0,0,.14.07h0l.3.12.07,0,.11,0,.11,0,.11,0,.13,0,.1,0,.14,0h.57a1.46,1.46,0,0,0,.22,0h.07l.15,0H90l.15-.07h0l.16-.09.05,0,.09-.07.05-.06.06-.06.05-.07Z"/><path class="cls-2" d="M82.5,83.34l.21.13a6.23,6.23,0,0,0,.68.36l.24.1a5,5,0,0,0,.7.21l.22,0H85a1,1,0,0,0,.35-.09.63.63,0,0,0,.26-.2,1,1,0,0,0,.09-.15.83.83,0,0,0,0-.15.13.13,0,0,1,0-.06.19.19,0,0,0,0-.08.22.22,0,0,0,0-.08.25.25,0,0,0,0-.07c-.25-.73-1.71-1.48-2-2.67a1.57,1.57,0,0,0-1.82-1.16c-1.3-.3-1.47.58-2.27,1a1.9,1.9,0,0,0-.73.59h0a.7.7,0,0,0-.1.16.3.3,0,0,0,0,.1.64.64,0,0,0-.06.18.28.28,0,0,0,0,.09,1.27,1.27,0,0,0,0,.2v.08c0,.09,0,.18,0,.28a.64.64,0,0,0,0,.07,1.81,1.81,0,0,0,.13.34,1,1,0,0,0,.85.51,4.07,4.07,0,0,0,.5,0l.83,0h.55A2,2,0,0,1,82.5,83.34Z"/><path class="cls-2" d="M88.42,87.68s0-.06,0-.09l0,0,0-.07,0,0a.73.73,0,0,0-.09-.08h0a8,8,0,0,1-1.88-.83,3.89,3.89,0,0,0-2.79-.41,1.56,1.56,0,0,0-1.07.75h0a0,0,0,0,1,0,0,1.1,1.1,0,0,0-.06.26v.08a.49.49,0,0,0,0,.12.19.19,0,0,0,0,.07,1.66,1.66,0,0,0,.06.21l0,.08.06.1.06.09.07.09.09.1.07.06.17.14.07,0,.14.09.07,0,.2.08h0l.23,0h.31a.86.86,0,0,0,.23-.05,5.36,5.36,0,0,1,.87-.17c1.37-.14,3.06.09,3.2-.54a.71.71,0,0,0,0-.14Z"/><path class="cls-2" d="M80.64,84.55a2.49,2.49,0,0,0-1.9-1,2.17,2.17,0,0,0-1.09.24h0a1.26,1.26,0,0,0-.25.19h0a.71.71,0,0,0-.18.47v0a1,1,0,0,0,0,.25h0a1,1,0,0,0,.13.23l0,0a1.12,1.12,0,0,0,.18.2h0a1.38,1.38,0,0,0,.25.17l.07,0a2.08,2.08,0,0,0,.3.12h0l.23,0,.08,0,.15,0,.1,0h.79a1.88,1.88,0,0,0,.33,0h0l.15,0h0l.14,0h0l.13-.06h0a.56.56,0,0,0,.35-.5h0A.62.62,0,0,0,80.64,84.55Z"/><path class="cls-5" d="M61.32,84.12a1.56,1.56,0,0,0-1.82,1.15c-.36,1.43-2.4,2.23-2,3.11a2.73,2.73,0,0,0,3.42.86c1.07-.72,2.93-1,3.42-2.06a1.4,1.4,0,0,0-.76-2.08C62.79,84.7,62.62,83.81,61.32,84.12Z"/><path class="cls-6" d="M64.32,85.68a2.15,2.15,0,0,1-.2.7c-.49,1.07-2.28,1.28-3.35,2s-2.64-.06-3.26-.5a.61.61,0,0,0,0,.51,2.73,2.73,0,0,0,3.42.86c1.07-.72,2.93-1,3.42-2.06A1.39,1.39,0,0,0,64.32,85.68Z"/><path class="cls-7" d="M69,77.74a3.27,3.27,0,0,0-2.28,1c-.76,1,1.32,1.36,2.88,1S71.49,77.75,69,77.74Z"/><path class="cls-8" d="M70.27,78c0,.44-.47.91-1.23,1.09A4.77,4.77,0,0,1,66.56,79c-.19.76,1.62,1.06,3,.73C70.78,79.44,71.26,78.43,70.27,78Z"/><path class="cls-7" d="M75.94,77.1a4.39,4.39,0,0,0-3.23.7c-1.24,1.07,1.37,2.13,3.5,2.06S79.23,77.77,75.94,77.1Z"/><path class="cls-8" d="M77.57,77.73c-.1.58-.84,1.08-1.88,1.12a6.33,6.33,0,0,1-3.23-.72c-.46.94,1.84,1.8,3.75,1.73C77.85,79.8,78.75,78.59,77.57,77.73Z"/><path class="cls-7" d="M73.79,81a4.39,4.39,0,0,0-3.23.7c-1.25,1.07,1.37,2.13,3.5,2.06S77.08,81.63,73.79,81Z"/><path class="cls-8" d="M75.42,81.59c-.11.58-.85,1.08-1.89,1.12A6.46,6.46,0,0,1,70.3,82c-.45.94,1.84,1.79,3.76,1.73C75.7,83.66,76.59,82.45,75.42,81.59Z"/><path class="cls-5" d="M64.31,79.45a3.89,3.89,0,0,0-2.79.41c-1,.8-2.23.54-2.07,1.3s2.7.26,4.07.71S66.66,80.11,64.31,79.45Z"/><path class="cls-6" d="M63.52,81.16c-1.18-.4-3.23-.07-3.87-.47a.39.39,0,0,0-.2.47c.17.77,2.7.26,4.07.71,1,.34,2.25-.79,1.86-1.67A1.6,1.6,0,0,1,63.52,81.16Z"/><path class="cls-5" d="M67.64,82.66a2.5,2.5,0,0,0-1.9,1c-.63,1,1.1,1.36,2.4,1S69.74,82.67,67.64,82.66Z"/><path class="cls-6" d="M68.74,82.9a1.21,1.21,0,0,1-1,1.21A3.27,3.27,0,0,1,65.61,84c0,.68,1.42.93,2.53.62S69.54,83.36,68.74,82.9Z"/><path class="cls-5" d="M56.78,83.19a2.49,2.49,0,0,0-1.9,1c-.63,1,1.1,1.37,2.4,1S58.88,83.2,56.78,83.19Z"/><path class="cls-6" d="M57.88,83.43a1.2,1.2,0,0,1-1,1.21,3.27,3.27,0,0,1-2.12-.08c0,.69,1.42.93,2.53.62S58.68,83.89,57.88,83.43Z"/><path class="cls-5" d="M89.5,82.84a2.5,2.5,0,0,0-2.08.51c-.85.79.74,1.59,2.09,1.54S91.53,83.34,89.5,82.84Z"/><path class="cls-6" d="M90.5,83.33a1.18,1.18,0,0,1-1.26.93,3.27,3.27,0,0,1-2-.57c-.17.66,1.16,1.24,2.31,1.2S91.18,84,90.5,83.33Z"/><path class="cls-5" d="M81.84,78.57a1.57,1.57,0,0,1,1.82,1.16c.35,1.42,2.4,2.22,2,3.11s-2.09.31-3.16-.4-3.19.27-3.68-.8a1.41,1.41,0,0,1,.75-2.09C80.37,79.15,80.54,78.27,81.84,78.57Z"/><path class="cls-6" d="M78.84,80.14a1.89,1.89,0,0,0,.19.7c.49,1.07,2.62.09,3.69.8s2.3,1.13,2.92.68a.59.59,0,0,1,0,.52c-.4.89-2.09.31-3.16-.4s-3.19.27-3.68-.8A1.39,1.39,0,0,1,78.84,80.14Z"/><path class="cls-5" d="M83.55,85.25a3.89,3.89,0,0,1,2.79.41c1,.8,2.23.54,2.07,1.3s-2.7.26-4.07.71S81.2,85.91,83.55,85.25Z"/><path class="cls-6" d="M84.34,87c1.18-.4,3.23-.07,3.88-.47a.4.4,0,0,1,.19.47c-.17.77-2.7.26-4.07.71-1,.34-2.25-.79-1.86-1.67A1.62,1.62,0,0,0,84.34,87Z"/><path class="cls-5" d="M78.74,82.66a2.49,2.49,0,0,1,1.9,1c.64,1-1.1,1.36-2.4,1S76.65,82.67,78.74,82.66Z"/><path class="cls-6" d="M77.65,82.9c-.09.47.32,1,1,1.21A3.24,3.24,0,0,0,80.77,84c0,.68-1.41.93-2.53.62S76.85,83.36,77.65,82.9Z"/><path class="cls-10" d="M95,104.16s2.42-9.67-3-13.93S92.7,95.75,95,104.16Z"/></svg>