<svg id="सितार" xmlns="http://www.w3.org/2000/svg" xmlns:xlink="http://www.w3.org/1999/xlink" viewBox="0 0 150 160"><defs><style>.cls-1{fill:none;}.cls-2{fill:#fff;stroke:#fff;stroke-miterlimit:10;stroke-width:5px;}.cls-3{fill:#5e0c41;}.cls-4{fill:#330723;}.cls-5{fill:#fda905;}.cls-6{fill:#4d0a35;}.cls-7{fill:#fdd27f;}.cls-8{fill:#cf7404;}.cls-9{fill:#e3cb94;}.cls-10{fill:#ad9251;}.cls-11{fill:#d9bb7a;}.cls-12{fill:#ad965f;}.cls-13{fill:#a1591d;}.cls-14{fill:#452402;}.cls-15{fill:#ffc62b;}.cls-16{fill:#593115;}.cls-17{clip-path:url(#clip-path);}.cls-18{clip-path:url(#clip-path-2);}.cls-19{fill:#fdd484;}</style><clipPath id="clip-path"><path class="cls-1" d="M52.15,91.05l51-61.31s-.74-.63.51-2.12l9.44-11.17,4.41-5.21C119.43,9,123,5.73,128.65,8.37c4.75,2.22,12.71,9.72,5.74,18.89,0,0,2.12,3.83-.17,6.24s-4.81,2.06-6.3.8c0,0,3-.8,3.32-3.32s-.75-3.95-.86-5.32-1.84-2.06-2.92-.17-.23,3.89-2.06,5.15-5.67.06-5.9-2.68,1-4.24,4.63-5.79,4.92-4,3.49-6.25-4.81-1.25-7.56,2.3S81.79,65,69.27,82.28s-10.79,19-9.49,28.75c1.14,8.46,3.83,14.84-5.24,26.46-11.4,14.61-32.92,8.44-40.43-3.52,0,0,12.6,8.35,25.93-9.24,9.73-12.72,3.76-24.39,12.8-32.07C52.84,92.66,53.87,91.74,52.15,91.05Z"/></clipPath><clipPath id="clip-path-2"><path class="cls-1" d="M109,36.56c3.56-1.84,7.69-3.2,13.18.77,4.21,3.05,5.9,10.53,2.92,16S115,62.72,108.73,60.05c-9.15-3.93-7.15-14.11-6.92-14.62A14.09,14.09,0,0,1,109,36.56Z"/></clipPath></defs><path class="cls-2" d="M140,21.53c-1.84-14-23-20.31-30.56-7.15-11.63-.2.13,6.08-7.15,5.38a2.17,2.17,0,0,0-1.68,4A15.8,15.8,0,0,0,96.92,29C91,35,87.31,40.32,81,46.75,71.74,58.13,61.61,68.69,52.08,80c-6.41,10.73-34.32,27-36.75,36.41.22-.45.44-.87.65-1.25-16.93,20.12,23.41,44.14,38.56,22.36,9.07-11.62,6.38-18,5.24-26.46-5.35-21.16,24.64-45.2,39.84-67.51,3.56,2.8.25,7.71,4.12,12.63,5.48,7.42,16,6.2,21.37-2.82C131,39.81,119,30.7,108.89,36.62c-6.26-.37,15.44-26.2,18.46-21,3.4,5.17-14.13,7.85-7,14.18,5.25.84,8.54,8.62,13.92,3.75C135.74,28.8,141.22,27.86,140,21.53Z"/><path class="cls-2" d="M112.49,60.94a.22.22,0,1,0,.16.41C113,61.25,112.78,60.78,112.49,60.94Z"/><path class="cls-2" d="M126.2,42.08c.89-.09-.52-.47.07-.21C126,41.71,126,42,126.2,42.08Z"/><path class="cls-2" d="M117.56,33a1.31,1.31,0,0,0-.41,1.32A1.31,1.31,0,0,0,117.56,33Z"/><path class="cls-2" d="M116.13,33.18a1.29,1.29,0,0,0,.69,1.2A1.31,1.31,0,0,0,116.13,33.18Z"/><path class="cls-2" d="M115.28,34.31a1.28,1.28,0,0,0,1.34.33A1.3,1.3,0,0,0,115.28,34.31Z"/><path class="cls-2" d="M118.76,35.17a1.3,1.3,0,0,0-1.34-.33A1.3,1.3,0,0,0,118.76,35.17Z"/><path class="cls-2" d="M118.61,33.92a1.28,1.28,0,0,0-1.22.63A1.29,1.29,0,0,0,118.61,33.92Z"/><path class="cls-2" d="M121,35.76c-.22.27.17.62.35.29S121.14,35.43,121,35.76Z"/><path class="cls-3" d="M109,36.56c3.56-1.84,7.69-3.2,13.18.77,4.21,3.05,5.9,10.53,2.92,16S115,62.72,108.73,60.05c-9.15-3.93-7.15-14.11-6.92-14.62A14.09,14.09,0,0,1,109,36.56Z"/><path class="cls-3" d="M108.68,37.23l-6.39,8.09a1,1,0,0,1-1.41.16h0a1,1,0,0,1-.16-1.4L107.11,36a1,1,0,0,1,1.41-.16h0A1,1,0,0,1,108.68,37.23Z"/><path class="cls-3" d="M106.68,36.9l-5.39,6.8a1,1,0,0,1-1.4.17h0a1,1,0,0,1-.17-1.41l5.39-6.8a1,1,0,0,1,1.4-.17h0A1,1,0,0,1,106.68,36.9Z"/><path class="cls-4" d="M120.37,29.83s-3.51-3.59,0-6.51,9.19-3.48,7-7.75c0,0,2.27-.51,2.68,2.64s-9.4,11.87-9.4,11.87"/><path class="cls-5" d="M103.69,21a2.18,2.18,0,1,1-2.86-1.14A2.2,2.2,0,0,1,103.69,21Z"/><path class="cls-5" d="M108.09,15.77a2.18,2.18,0,1,1-2.86-1.14A2.17,2.17,0,0,1,108.09,15.77Z"/><circle class="cls-3" cx="102.66" cy="21.9" r="2.18"/><path class="cls-3" d="M109.07,15.82a2.18,2.18,0,1,1-2.87-1.14A2.19,2.19,0,0,1,109.07,15.82Z"/><path class="cls-6" d="M108.93,17.81h0a.8.8,0,0,1-1.07.32l-1.3-.71a.79.79,0,0,1-.32-1.06h0a.79.79,0,0,1,1.07-.32l1.3.71A.79.79,0,0,1,108.93,17.81Z"/><path class="cls-6" d="M104.35,22.62h0a.78.78,0,0,1-1.07.32l-1.3-.7a.79.79,0,0,1-.31-1.07h0a.79.79,0,0,1,1.06-.32l1.3.71A.78.78,0,0,1,104.35,22.62Z"/><path class="cls-4" d="M124.88,29.44a16.55,16.55,0,0,1,1.78,3c.69,1.61,1.08,2.75,3.83.2s2.18-9.42-.34-9.76S124.14,25.49,124.88,29.44Z"/><path class="cls-5" d="M122.56,31s3.3,1.8,4.84-1.24c.56-1.1.37-2.1.57-3.09.17-.81,1.16-1.74,1.43-1.09a16.43,16.43,0,0,0,.64,2.58c1,2.4.11,4.69-2.46,5.32-.43.11-.63.75.34.8,1.38.08,5.38-1.83,4.41-5.21s-.29-5.1-2.24-5.21-4.7.12-4.81,2.07S122.56,31,122.56,31Z"/><path class="cls-7" d="M14.79,117.39c3.22-6.06,5.59-11,20-20.31,4.46-2.87,10.3-9.17,10.3-9.17L98,27.69l.28-1.55L112.67,11s6.54-6.87,14-3.3c0,0-4.68.72-11.2,8.74S54,89.79,50.44,97,51,117.17,37,130.81s-22.1,3.79-23.65.19S12.29,122.12,14.79,117.39Z"/><circle class="cls-5" cx="135.64" cy="25.77" r="3.92" transform="translate(84.01 153.82) rotate(-78.8)"/><path class="cls-8" d="M135.65,28.82a3,3,0,0,1-1.14-.22,3.05,3.05,0,1,1,4-1.7,3.06,3.06,0,0,1-2.83,1.92Zm0-5.67a2.62,2.62,0,0,0-1,5.05,2.63,2.63,0,0,0,3.4-1.46,2.69,2.69,0,0,0,0-2h0a2.62,2.62,0,0,0-1.44-1.39A2.5,2.5,0,0,0,135.64,23.15Z"/><path class="cls-8" d="M135.65,28a2.18,2.18,0,1,1,2-3,2.15,2.15,0,0,1,0,1.67,2.18,2.18,0,0,1-1.16,1.19A2.21,2.21,0,0,1,135.65,28Zm0-3.93a1.8,1.8,0,0,0-.68.14,1.75,1.75,0,1,0,2.29.92h0a1.75,1.75,0,0,0-1-.93A1.64,1.64,0,0,0,135.64,24Z"/><path class="cls-8" d="M135.65,27.08a1.32,1.32,0,0,1-1.21-.8,1.28,1.28,0,0,1,0-1,1.3,1.3,0,1,1,1.22,1.8Zm0-2.19a.84.84,0,0,0-.34.08.87.87,0,0,0-.46,1.14.88.88,0,1,0,1.61-.69A.9.9,0,0,0,136,25,1,1,0,0,0,135.64,24.89Z"/><path class="cls-5" d="M140,21.53a3.05,3.05,0,1,1-4-1.6A3,3,0,0,1,140,21.53Z"/><path class="cls-8" d="M137.19,24a1.31,1.31,0,1,1,1.2-1.83h0a1.31,1.31,0,0,1,0,1,1.28,1.28,0,0,1-.7.71A1.3,1.3,0,0,1,137.19,24Zm0-2.18a.87.87,0,0,0-.8,1.22.87.87,0,0,0,1.14.45.85.85,0,0,0,.47-.48.89.89,0,0,0,0-.66A.87.87,0,0,0,137.19,21.86Z"/><path class="cls-8" d="M137.19,24.89a2,2,0,0,1-.8-.16,2.08,2.08,0,0,1-1.18-1.15,2.15,2.15,0,1,1,4,0A2.11,2.11,0,0,1,138,24.71,2.09,2.09,0,0,1,137.19,24.89Zm0-3.88a1.8,1.8,0,0,0-.68.14,1.72,1.72,0,0,0-.9,2.26,1.7,1.7,0,0,0,.94.92,1.72,1.72,0,0,0,1.32,0,1.7,1.7,0,0,0,.92-.94,1.73,1.73,0,0,0-1-2.24A1.81,1.81,0,0,0,137.19,21Z"/><path class="cls-5" d="M139.42,18A2.62,2.62,0,1,1,136,16.6,2.62,2.62,0,0,1,139.42,18Z"/><path class="cls-8" d="M137,19.88a.88.88,0,0,1-.81-.53.87.87,0,0,1,1.13-1.15.94.94,0,0,1,.48.46.89.89,0,0,1-.46,1.15A.83.83,0,0,1,137,19.88Zm0-1.31a.38.38,0,0,0-.17,0,.44.44,0,0,0-.23.57.45.45,0,0,0,.58.23.43.43,0,0,0,.22-.57.45.45,0,0,0-.23-.24A.51.51,0,0,0,137,18.57Z"/><path class="cls-8" d="M137,20.78a1.77,1.77,0,1,1,.65-3.41,1.76,1.76,0,0,1,0,3.26A1.68,1.68,0,0,1,137,20.78Zm0-3.1a1.37,1.37,0,0,0-.52.1,1.33,1.33,0,1,0,1,2.45,1.3,1.3,0,0,0,.71-.73,1.34,1.34,0,0,0,0-1h0a1.34,1.34,0,0,0-.73-.71A1.43,1.43,0,0,0,137,17.68Z"/><path class="cls-5" d="M137.64,14.94a2.18,2.18,0,1,1-2.86-1.14A2.19,2.19,0,0,1,137.64,14.94Z"/><path class="cls-8" d="M135.64,16.68a.87.87,0,0,1-.8-.53.87.87,0,1,1,1.14.45A.84.84,0,0,1,135.64,16.68Zm0-1.31a.47.47,0,0,0-.17,0,.43.43,0,0,0-.23.58.43.43,0,0,0,.57.22.43.43,0,0,0-.17-.83Z"/><path class="cls-8" d="M135.64,17.55a1.64,1.64,0,0,1-.65-.13,1.75,1.75,0,0,1-1-.93A1.76,1.76,0,0,1,135,14.2a1.74,1.74,0,0,1,2.29.92h0a1.75,1.75,0,0,1,0,1.33,1.82,1.82,0,0,1-.93,1A1.89,1.89,0,0,1,135.64,17.55Zm0-3.05a1.32,1.32,0,0,0-.51.1,1.3,1.3,0,0,0-.7.72A1.31,1.31,0,0,0,136.15,17a1.31,1.31,0,0,0,.69-1.72h0A1.3,1.3,0,0,0,135.63,14.5Z"/><path class="cls-5" d="M135.55,12.28a2,2,0,1,1-2.58-1A2,2,0,0,1,135.55,12.28Z"/><path class="cls-8" d="M133.75,13.85a.8.8,0,1,1,.31-.07A.7.7,0,0,1,133.75,13.85Zm0-1.15a.31.31,0,0,0-.13,0,.36.36,0,0,0-.19.47.35.35,0,0,0,.47.18.34.34,0,0,0,.18-.19.32.32,0,0,0,0-.27A.36.36,0,0,0,133.74,12.7Z"/><path class="cls-8" d="M133.75,14.61a1.56,1.56,0,0,1-1.45-2.13,1.56,1.56,0,0,1,2.87,0h0a1.55,1.55,0,0,1-.81,2A1.49,1.49,0,0,1,133.75,14.61Zm0-2.67a1.19,1.19,0,0,0-.44.09,1.14,1.14,0,0,0-.59.61,1.12,1.12,0,1,0,2.06,0h0A1.11,1.11,0,0,0,133.74,11.94Z"/><path class="cls-5" d="M103.07,28.37S52.42,89.22,51.41,90.42c-.63.75-.06,1-.69,1.72s-3.83,2.12-6.23,13.12-5.73,24.91-21.16,28.08c-14.83,3-10.61-12.54-7.35-18.21,0,0-8.4,13.58-1.87,18.84s19.65,1.85,27.36-10.33,6.17-22.1,12.4-31.9S103.75,30,103.75,30Z"/><path class="cls-3" d="M52.15,91.05l51-61.31s-.74-.63.51-2.12l9.44-11.17,4.41-5.21C119.43,9,123,5.73,128.65,8.37c4.75,2.22,12.54,9.32,5.74,18.89,0,0,2.12,3.83-.17,6.24s-4.81,2.06-6.3.8c0,0,3-.8,3.32-3.32s-.75-3.95-.86-5.32-1.84-2.06-2.92-.17-.23,3.89-2.06,5.15-5.67.06-5.9-2.68,1-4.24,4.63-5.79,4.92-4,3.49-6.25-4.81-1.25-7.56,2.3S81.79,65,69.27,82.28s-10.79,19-9.49,28.75c1.14,8.46,3.83,14.84-5.24,26.46-11.4,14.61-32.92,8.44-40.43-3.52,0,0,12.6,8.35,25.93-9.24,9.73-12.72,3.76-24.39,12.8-32.07C52.84,92.66,53.87,91.74,52.15,91.05Z"/><path class="cls-6" d="M117.14,18.05c-4.86,6.36-42.73,53-56.51,71.74s2,26.68-11.76,44.44c-7.73,10-19.32,8.88-28.09,6.13l.16.17c9.64,7,24.63,8.46,33.6-3s6.38-18,5.24-26.46c-1.3-9.71-3-11.51,9.49-28.75s48.05-60.51,50.79-64.06c2.2-2.84,4.79-4,6.48-3.25h0S122,11.69,117.14,18.05Z"/><polygon class="cls-9" points="17.54 122.06 15.82 121.37 17.78 118.62 19.25 119.42 17.54 122.06"/><polygon class="cls-10" points="16.68 120.06 17.54 122.06 20.68 118.33 19.42 116.5 16.68 120.06"/><polygon class="cls-11" points="16.68 120.06 19.42 116.5 26.29 119.25 23.55 122.8 16.68 120.06"/><polygon class="cls-12" points="23.55 122.8 24.98 125.03 27.73 121.48 26.29 119.25 23.55 122.8"/><polygon class="cls-9" points="24.98 125.03 27.27 125.95 30.02 122.39 27.73 121.48 24.98 125.03"/><polygon class="cls-13" points="44.43 96.27 53.24 85.84 101.32 29.33 98.2 28.09 40.35 94.02 44.43 96.27"/><path class="cls-5" d="M41.86,91.56a.42.42,0,0,1,.58-.2l3.89,1.88a.45.45,0,0,1,.21.59"/><path class="cls-14" d="M46.54,93.83a.5.5,0,0,1-.22.21A.48.48,0,0,1,46,94l-3.89-1.89a.42.42,0,0,1-.2-.58"/><path class="cls-5" d="M44.14,89.15a.45.45,0,0,1,.59-.2l3.89,1.89a.42.42,0,0,1,.2.58"/><path class="cls-14" d="M48.82,91.42a.38.38,0,0,1-.22.21.41.41,0,0,1-.36,0l-3.89-1.89a.44.44,0,0,1-.21-.58"/><path class="cls-5" d="M46,86.92a.44.44,0,0,1,.58-.21l3.9,1.89a.43.43,0,0,1,.2.58"/><path class="cls-14" d="M50.71,89.18a.45.45,0,0,1-.58.21l-3.9-1.89a.45.45,0,0,1-.2-.58"/><path class="cls-5" d="M47.92,84.68a.44.44,0,0,1,.58-.2l3.9,1.89a.44.44,0,0,1,.2.58"/><path class="cls-14" d="M52.6,87a.45.45,0,0,1-.22.21.41.41,0,0,1-.36,0l-3.9-1.88a.45.45,0,0,1-.2-.59"/><path class="cls-5" d="M49.81,82.45a.42.42,0,0,1,.58-.2l3.89,1.88a.44.44,0,0,1,.21.58"/><path class="cls-14" d="M54.49,84.71a.47.47,0,0,1-.22.22.53.53,0,0,1-.37,0L50,83a.42.42,0,0,1-.2-.58"/><path class="cls-5" d="M51.69,80.21a.45.45,0,0,1,.59-.2l3.89,1.89a.44.44,0,0,1,.21.58"/><path class="cls-14" d="M56.38,82.48a.43.43,0,0,1-.23.21.41.41,0,0,1-.36,0L51.9,80.8a.45.45,0,0,1-.21-.59"/><path class="cls-5" d="M53.58,78a.44.44,0,0,1,.59-.2l3.89,1.88a.44.44,0,0,1,.2.59"/><path class="cls-14" d="M58.26,80.25a.41.41,0,0,1-.22.21.45.45,0,0,1-.36,0l-3.89-1.89a.44.44,0,0,1-.21-.58"/><path class="cls-5" d="M55.47,75.74a.45.45,0,0,1,.58-.2L60,77.43a.42.42,0,0,1,.2.58"/><path class="cls-14" d="M60.15,78a.45.45,0,0,1-.22.21.41.41,0,0,1-.36,0l-3.9-1.88a.45.45,0,0,1-.2-.59"/><path class="cls-5" d="M57.76,73.34a.44.44,0,0,1,.58-.21L62.24,75a.45.45,0,0,1,.2.58"/><path class="cls-14" d="M62.44,75.6a.45.45,0,0,1-.58.21L58,73.92a.43.43,0,0,1-.2-.58"/><path class="cls-5" d="M59.65,71.1a.44.44,0,0,1,.58-.2l3.89,1.89a.44.44,0,0,1,.21.58"/><path class="cls-14" d="M64.33,73.37a.45.45,0,0,1-.22.21.44.44,0,0,1-.37,0l-3.89-1.88a.44.44,0,0,1-.2-.59"/><path class="cls-5" d="M61.53,68.87a.44.44,0,0,1,.59-.2L66,70.55a.44.44,0,0,1,.21.58"/><path class="cls-14" d="M66.22,71.13a.45.45,0,0,1-.23.22.5.5,0,0,1-.36,0l-3.89-1.89a.44.44,0,0,1-.21-.58"/><path class="cls-5" d="M63.42,66.63a.45.45,0,0,1,.59-.2l3.89,1.89a.42.42,0,0,1,.2.58"/><path class="cls-14" d="M68.1,68.9a.38.38,0,0,1-.22.21.41.41,0,0,1-.36,0l-3.89-1.88a.45.45,0,0,1-.21-.59"/><path class="cls-5" d="M65.31,64.4a.43.43,0,0,1,.58-.2l3.9,1.88a.44.44,0,0,1,.2.59"/><path class="cls-14" d="M70,66.67a.43.43,0,0,1-.58.2L65.51,65a.44.44,0,0,1-.2-.58"/><path class="cls-5" d="M69.26,60.33a.42.42,0,0,1,.58-.2l3.32,1.66a.44.44,0,0,1,.21.58"/><path class="cls-14" d="M73.37,62.37a.45.45,0,0,1-.22.21.44.44,0,0,1-.37,0l-3.32-1.66a.42.42,0,0,1-.2-.58"/><path class="cls-5" d="M71.15,58.1a.44.44,0,0,1,.58-.21l3.32,1.66a.43.43,0,0,1,.2.58"/><path class="cls-14" d="M75.25,60.13a.38.38,0,0,1-.22.21.45.45,0,0,1-.36,0l-3.32-1.66a.43.43,0,0,1-.2-.58"/><path class="cls-5" d="M73,55.86a.44.44,0,0,1,.59-.2l3.32,1.66a.42.42,0,0,1,.2.58"/><path class="cls-14" d="M77.14,57.9a.45.45,0,0,1-.22.21.41.41,0,0,1-.36,0l-3.32-1.66a.44.44,0,0,1-.21-.58"/><path class="cls-5" d="M74.92,53.63a.44.44,0,0,1,.58-.21l3.33,1.66a.45.45,0,0,1,.2.58"/><path class="cls-14" d="M79,55.66a.45.45,0,0,1-.58.21l-3.33-1.66a.45.45,0,0,1-.2-.58"/><path class="cls-5" d="M76.81,51.39a.42.42,0,0,1,.58-.2l3.32,1.66a.44.44,0,0,1,.21.58"/><path class="cls-14" d="M80.92,53.43a.45.45,0,0,1-.22.21.44.44,0,0,1-.37,0L77,52a.43.43,0,0,1-.2-.58"/><path class="cls-5" d="M79.1,49a.44.44,0,0,1,.58-.2L83,50.44a.44.44,0,0,1,.21.58"/><path class="cls-14" d="M83.21,51a.45.45,0,0,1-.22.21.44.44,0,0,1-.37,0L79.3,49.57a.44.44,0,0,1-.2-.59"/><path class="cls-5" d="M81,46.75a.42.42,0,0,1,.58-.2l3.32,1.65a.44.44,0,0,1,.2.59"/><path class="cls-14" d="M85.09,48.79a.38.38,0,0,1-.22.21.41.41,0,0,1-.36,0l-3.32-1.66a.42.42,0,0,1-.2-.58"/><path class="cls-5" d="M82.87,44.51a.45.45,0,0,1,.59-.2L86.78,46a.43.43,0,0,1,.2.58"/><path class="cls-14" d="M87,46.55a.45.45,0,0,1-.58.21L83.08,45.1a.45.45,0,0,1-.21-.59"/><path class="cls-5" d="M84.76,42.28a.43.43,0,0,1,.58-.2l3.33,1.66a.44.44,0,0,1,.2.58"/><path class="cls-14" d="M88.87,44.32a.45.45,0,0,1-.22.21.41.41,0,0,1-.36,0L85,42.86a.44.44,0,0,1-.2-.58"/><path class="cls-5" d="M86.65,40.05a.44.44,0,0,1,.58-.21l3.32,1.66a.44.44,0,0,1,.21.58"/><path class="cls-14" d="M90.76,42.08a.45.45,0,0,1-.22.21.48.48,0,0,1-.37,0l-3.32-1.66a.44.44,0,0,1-.2-.58"/><path class="cls-5" d="M88.54,37.81a.42.42,0,0,1,.58-.2l3.32,1.66a.42.42,0,0,1,.2.58"/><path class="cls-14" d="M92.64,39.85a.38.38,0,0,1-.22.21.41.41,0,0,1-.36,0l-3.32-1.66a.42.42,0,0,1-.2-.58"/><path class="cls-5" d="M90.42,35.58a.45.45,0,0,1,.59-.21L94.33,37a.43.43,0,0,1,.2.58"/><path class="cls-14" d="M94.53,37.61a.41.41,0,0,1-.22.21.45.45,0,0,1-.36,0l-3.32-1.66a.44.44,0,0,1-.21-.58"/><path class="cls-5" d="M92.31,33.34a.44.44,0,0,1,.59-.2l3.32,1.66a.43.43,0,0,1,.2.58"/><path class="cls-14" d="M96.42,35.38a.45.45,0,0,1-.22.21.41.41,0,0,1-.36,0l-3.32-1.66a.44.44,0,0,1-.21-.58"/><path class="cls-5" d="M94.6,30.93a.45.45,0,0,1,.58-.2l3.33,1.66a.45.45,0,0,1,.2.58"/><path class="cls-14" d="M98.71,33a.45.45,0,0,1-.58.21L94.8,31.52a.45.45,0,0,1-.2-.59"/><path class="cls-5" d="M96.89,28.53a.42.42,0,0,1,.58-.2L100.79,30a.45.45,0,0,1,.21.59"/><path class="cls-14" d="M101,30.57a.5.5,0,0,1-.22.21.48.48,0,0,1-.37,0l-3.32-1.66a.44.44,0,0,1-.2-.58"/><path class="cls-5" d="M67.37,62.56a.45.45,0,0,1,.58-.2L71.28,64a.45.45,0,0,1,.2.58"/><path class="cls-14" d="M71.48,64.6a.45.45,0,0,1-.58.21l-3.33-1.66a.45.45,0,0,1-.2-.59"/><path class="cls-14" d="M33.54,106.26c1.69,1.11,1.16,4.16-1.18,6.83s-5.61,3.93-7.29,2.83-1.17-4.16,1.17-6.83S31.85,105.16,33.54,106.26Z"/><path class="cls-15" d="M98.31,26.14l5.1,1.86a2.19,2.19,0,0,0-.23,1.74l-5.15-2S97.28,27.06,98.31,26.14Z"/><path class="cls-16" d="M15.83,133.22a.17.17,0,0,1-.1,0,.22.22,0,0,1-.1-.29l5.72-11,0,0L45.12,93.15,103,25.59a.22.22,0,0,1,.31,0,.23.23,0,0,1,0,.31L45.45,93.43,21.73,122.12,16,133.1A.24.24,0,0,1,15.83,133.22Z"/><path class="cls-16" d="M15.55,133.09h-.08a.22.22,0,0,1-.12-.29l4.85-11.33,0-.06L44.37,92.52l58-67.16a.22.22,0,0,1,.33.29l-58,67.16L20.59,121.66,15.75,133A.21.21,0,0,1,15.55,133.09Z"/><path class="cls-16" d="M15.25,133h-.07a.22.22,0,0,1-.13-.28l4-11.69s0,0,0-.07l24.54-29,58.18-66.75a.21.21,0,0,1,.31,0,.22.22,0,0,1,0,.31L44,92.18l-24.52,29-4,11.65A.23.23,0,0,1,15.25,133Z"/><path class="cls-16" d="M15.08,132.59H15a.22.22,0,0,1-.15-.27L18,120.61a.41.41,0,0,1,.05-.09L43.28,91.09,101.22,24.9a.22.22,0,1,1,.33.29L43.61,91.38,18.4,120.77l-3.11,11.66A.22.22,0,0,1,15.08,132.59Z"/><path class="cls-16" d="M101.34,24.36l2.3.92s5.43-6.13,6.06-6.88,1.26-1.49.51-2.12c-.47-.4-1.54-.28-2.8,1.21C105.52,19.72,101.34,24.36,101.34,24.36Z"/><path class="cls-6" d="M111.48,24.76a2.18,2.18,0,1,1-2.86-1.15A2.18,2.18,0,0,1,111.48,24.76Z"/><path class="cls-5" d="M112.45,24.81a2.18,2.18,0,1,1-2.86-1.14A2.18,2.18,0,0,1,112.45,24.81Z"/><path class="cls-6" d="M115.48,19.71a2.18,2.18,0,1,1-2.86-1.14A2.18,2.18,0,0,1,115.48,19.71Z"/><path class="cls-5" d="M116.46,19.77a2.18,2.18,0,1,1-2.87-1.14A2.18,2.18,0,0,1,116.46,19.77Z"/><path class="cls-16" d="M113.25,16.49l-.12,0L109.4,15a.32.32,0,0,1-.18-.42.33.33,0,0,1,.43-.18l3.72,1.48a.33.33,0,0,1-.12.63Z"/><path class="cls-16" d="M114.51,15l-.12,0-3.73-1.49a.31.31,0,0,1-.18-.42.32.32,0,0,1,.42-.18l3.73,1.48a.33.33,0,0,1-.12.63Z"/><path class="cls-16" d="M112.22,13.76a40.44,40.44,0,0,1,4.06-4.35A5.54,5.54,0,0,1,118.59,8c.58-.13.66.16.25.51a39.83,39.83,0,0,0-5.5,5.66"/><path class="cls-5" d="M134.39,27.26S132,25,133.87,22.73c1-.91,1.26-1.49.44-2.28a2.16,2.16,0,0,1-1.88-3.27c-1.14-.46-1.43-2.23-.23-2.75a1.9,1.9,0,0,1,.77-3.18,9.89,9.89,0,0,1,4,7.34C137.71,23,135,26.51,134.39,27.26Z"/><g class="cls-17"><path class="cls-5" d="M118.07,21a.31.31,0,0,1-.3-.2c-1.11-2.61-4.31-4.2-5-4.49a.33.33,0,0,1,.28-.6c.94.44,4.1,2.07,5.27,4.84a.33.33,0,0,1-.17.43Z"/><path class="cls-5" d="M119.32,19.58a.33.33,0,0,1-.31-.22h0s-.94-2.6-4.93-4.5a.33.33,0,0,1-.15-.44.32.32,0,0,1,.43-.15c4.26,2,5.23,4.76,5.27,4.88a.32.32,0,0,1-.2.41Z"/><path class="cls-5" d="M119.15,15.86a.32.32,0,0,1-.27-.14,8.57,8.57,0,0,0-3.14-2.52.33.33,0,1,1,.28-.6,9.54,9.54,0,0,1,3.4,2.74.34.34,0,0,1-.09.46A.32.32,0,0,1,119.15,15.86Z"/><path class="cls-5" d="M121,16.31a.34.34,0,0,1-.29-.16,8.87,8.87,0,0,0-3.88-3.86.33.33,0,0,1-.18-.43.31.31,0,0,1,.42-.18,9.45,9.45,0,0,1,4.21,4.14.34.34,0,0,1-.12.45A.32.32,0,0,1,121,16.31Z"/><path class="cls-5" d="M125.33,10.07a1.66,1.66,0,0,1-1.56-1.13,2.25,2.25,0,0,1,1.08-2.62.34.34,0,0,1,.46.09.32.32,0,0,1-.09.45,1.63,1.63,0,0,0-.83,1.86,1,1,0,0,0,1,.7.62.62,0,0,0,.59-.37.36.36,0,0,0-.07-.38c-.13-.12-.35-.05-.48,0A.33.33,0,0,1,125,8.5a.33.33,0,0,1,.17-.43,1.07,1.07,0,0,1,1.19.12,1,1,0,0,1,.24,1.07,1.27,1.27,0,0,1-1.15.81Z"/><path class="cls-5" d="M122.24,10.69a1.58,1.58,0,0,1-1.36-.78,2.14,2.14,0,0,1,.48-2.66.34.34,0,0,1,.47,0,.33.33,0,0,1,0,.46,1.52,1.52,0,0,0-.41,1.87.94.94,0,0,0,1.07.43.59.59,0,0,0,.46-.44.36.36,0,0,0-.13-.32c-.14-.08-.33,0-.43.09A.32.32,0,0,1,122,8.8a1,1,0,0,1,1.13-.12,1,1,0,0,1,.45,1,1.24,1.24,0,0,1-.93,1A1.72,1.72,0,0,1,122.24,10.69Z"/><path class="cls-5" d="M119.81,12.12a1.48,1.48,0,0,1-1.26-.72A2,2,0,0,1,119,8.94a.33.33,0,0,1,.48.45,1.36,1.36,0,0,0-.37,1.66.83.83,0,0,0,.94.39.5.5,0,0,0,.4-.38.26.26,0,0,0-.11-.26c-.08-.05-.21,0-.35.08a.33.33,0,1,1-.38-.54,1,1,0,0,1,1.07-.11.93.93,0,0,1,.42.91,1.14,1.14,0,0,1-.86.92A1.52,1.52,0,0,1,119.81,12.12Z"/></g><path class="cls-5" d="M60.34,95a.3.3,0,0,1-.17,0,56.22,56.22,0,0,0-7.72-4.07.33.33,0,0,1-.18-.43.32.32,0,0,1,.42-.18,56.2,56.2,0,0,1,7.83,4.13.33.33,0,0,1-.18.6Z"/><path class="cls-5" d="M60.92,93.55a.41.41,0,0,1-.18,0,59.24,59.24,0,0,0-7.27-3.88.33.33,0,0,1-.17-.43.32.32,0,0,1,.43-.17,61.15,61.15,0,0,1,7.36,3.92.34.34,0,0,1,.1.46A.31.31,0,0,1,60.92,93.55Z"/><path class="cls-5" d="M61.77,92.23a.28.28,0,0,1-.17,0,61.62,61.62,0,0,0-7.16-3.83.33.33,0,0,1,.27-.6A61.18,61.18,0,0,1,62,91.63a.33.33,0,0,1-.18.6Z"/><path class="cls-5" d="M34.42,116.67a1.9,1.9,0,0,1-.79-.17,1.81,1.81,0,0,1-1-1.73,3.07,3.07,0,0,1,2.74-3,1.29,1.29,0,0,1,.67-1.26,1.09,1.09,0,0,1,.94-.16,1.06,1.06,0,0,1,.5.34,1.18,1.18,0,0,1,1.46.56,1.69,1.69,0,0,1-.58,2,.32.32,0,0,1-.45-.11.32.32,0,0,1,.11-.45,1,1,0,0,0,.32-1.15c-.15-.33-.57-.26-.9-.15a.32.32,0,0,1-.4-.18h0a.49.49,0,0,0-.25-.23.53.53,0,0,0-.41.1.64.64,0,0,0-.32.83.35.35,0,0,1,0,.3.35.35,0,0,1-.25.16c-.11,0-2.57.31-2.52,2.35a1.22,1.22,0,0,0,.61,1.16,1.5,1.5,0,0,0,2-1.65c0-.22-.13-.49-.37-.53a.8.8,0,0,0-.74.41.67.67,0,0,0,.1.82.32.32,0,0,1,0,.46.33.33,0,0,1-.46,0,1.35,1.35,0,0,1-.17-1.58,1.42,1.42,0,0,1,1.42-.72,1.15,1.15,0,0,1,.9,1.07,2.07,2.07,0,0,1-.82,2.07A2.26,2.26,0,0,1,34.42,116.67Z"/><path class="cls-5" d="M22.35,111.33a1.41,1.41,0,0,1-1.2-.55,1.79,1.79,0,0,1-.06-1.84A2.11,2.11,0,0,1,23,107.71a1,1,0,0,1,1,.58,1.34,1.34,0,0,1-.49,1.43,1.22,1.22,0,0,1-1.46.13.32.32,0,0,1-.11-.45.32.32,0,0,1,.45-.11.56.56,0,0,0,.7-.07.74.74,0,0,0,.3-.7c-.05-.14-.25-.16-.41-.16a1.49,1.49,0,0,0-1.3.86,1.16,1.16,0,0,0,0,1.17,1,1,0,0,0,1,.26c1.81-.3,1.91-2.49,1.91-2.59a.36.36,0,0,1,.13-.25.34.34,0,0,1,.28,0,.63.63,0,0,0,.69-.42c.07-.16.1-.28.06-.35a.3.3,0,0,0-.16-.13.34.34,0,0,1-.24-.4c.06-.21.11-.59-.1-.67a1,1,0,0,0-1,.47.33.33,0,0,1-.59-.28,1.65,1.65,0,0,1,1.82-.81c.22.08.68.35.57,1.19a.83.83,0,0,1,.31.35,1,1,0,0,1-.07.91,1.32,1.32,0,0,1-1.06.79,3.14,3.14,0,0,1-2.44,2.88A1.84,1.84,0,0,1,22.35,111.33Z"/><path class="cls-8" d="M134.32,19.14a.87.87,0,0,1-.32-.06.88.88,0,0,1-.48-.47.91.91,0,0,1,0-.67.87.87,0,0,1,.47-.47.82.82,0,0,1,.67,0,.85.85,0,0,1,.47.46.88.88,0,0,1-.45,1.15A.84.84,0,0,1,134.32,19.14Zm0-1.31a.35.35,0,0,0-.17,0,.39.39,0,0,0-.23.24.42.42,0,0,0,.24.56.47.47,0,0,0,.33,0,.43.43,0,0,0,.23-.58.44.44,0,0,0-.4-.26Z"/><path class="cls-8" d="M134.32,20a1.77,1.77,0,0,1-.7-3.4,1.83,1.83,0,0,1,1.36,0,1.77,1.77,0,0,1,1,.95h0a1.75,1.75,0,0,1,0,1.35A1.78,1.78,0,0,1,134.32,20Zm0-3.11a1.35,1.35,0,0,0-.52.11,1.33,1.33,0,1,0,1,2.45,1.3,1.3,0,0,0,.71-.73,1.34,1.34,0,0,0,0-1h0a1.3,1.3,0,0,0-.73-.71A1.44,1.44,0,0,0,134.32,16.93Z"/><path class="cls-8" d="M133.75,13.85a.8.8,0,1,1,.31-.07A.7.7,0,0,1,133.75,13.85Zm0-1.15a.31.31,0,0,0-.13,0,.36.36,0,0,0-.19.47.35.35,0,0,0,.47.18.34.34,0,0,0,.18-.19.32.32,0,0,0,0-.27A.36.36,0,0,0,133.74,12.7Z"/><path class="cls-8" d="M133.75,14.61a1.56,1.56,0,0,1-1.45-2.13,1.56,1.56,0,0,1,2.87,0h0a1.55,1.55,0,0,1-.81,2A1.49,1.49,0,0,1,133.75,14.61Zm0-2.67a1.19,1.19,0,0,0-.44.09,1.14,1.14,0,0,0-.59.61,1.12,1.12,0,1,0,2.06,0h0A1.11,1.11,0,0,0,133.74,11.94Z"/><circle class="cls-5" cx="135.64" cy="25.77" r="3.92" transform="translate(84.01 153.82) rotate(-78.8)"/><path class="cls-5" d="M139.42,18A2.62,2.62,0,1,1,136,16.6,2.62,2.62,0,0,1,139.42,18Z"/><polygon class="cls-8" points="132.91 16.02 132.79 15.81 132.71 15.61 132.92 15.49 133.12 15.4 133.24 15.62 133.32 15.81 133.11 15.94 132.91 16.02"/><path class="cls-8" d="M133,16.87a1.18,1.18,0,0,1-1.07-.7,1.19,1.19,0,0,1,0-.89,1.16,1.16,0,1,1,1.53,1.49A1,1,0,0,1,133,16.87ZM133,15a.71.71,0,0,0-.28.06.72.72,0,1,0,1,.38A.74.74,0,0,0,133,15Z"/><path class="cls-8" d="M137,19.88a.88.88,0,0,1-.81-.53.87.87,0,0,1,1.13-1.15.94.94,0,0,1,.48.46.89.89,0,0,1-.46,1.15A.83.83,0,0,1,137,19.88Zm0-1.31a.38.38,0,0,0-.17,0,.44.44,0,0,0-.23.57.45.45,0,0,0,.58.23.43.43,0,0,0,.22-.57.45.45,0,0,0-.23-.24A.51.51,0,0,0,137,18.57Z"/><path class="cls-8" d="M137,20.78a1.77,1.77,0,1,1,.65-3.41,1.76,1.76,0,0,1,0,3.26A1.68,1.68,0,0,1,137,20.78Zm0-3.1a1.37,1.37,0,0,0-.52.1,1.33,1.33,0,1,0,1,2.45,1.3,1.3,0,0,0,.71-.73,1.34,1.34,0,0,0,0-1h0a1.34,1.34,0,0,0-.73-.71A1.43,1.43,0,0,0,137,17.68Z"/><path class="cls-5" d="M137.64,14.94a2.18,2.18,0,1,1-2.86-1.14A2.19,2.19,0,0,1,137.64,14.94Z"/><path class="cls-8" d="M135.64,16.68a.87.87,0,0,1-.8-.53.87.87,0,1,1,1.14.45A.84.84,0,0,1,135.64,16.68Zm0-1.31a.47.47,0,0,0-.17,0,.43.43,0,0,0-.23.58.43.43,0,0,0,.57.22.43.43,0,0,0-.17-.83Z"/><path class="cls-8" d="M135.64,17.55a1.64,1.64,0,0,1-.65-.13,1.75,1.75,0,0,1-1-.93A1.76,1.76,0,0,1,135,14.2a1.74,1.74,0,0,1,2.29.92h0a1.75,1.75,0,0,1,0,1.33,1.82,1.82,0,0,1-.93,1A1.89,1.89,0,0,1,135.64,17.55Zm0-3.05a1.32,1.32,0,0,0-.51.1,1.3,1.3,0,0,0-.7.72A1.31,1.31,0,0,0,136.15,17a1.31,1.31,0,0,0,.69-1.72h0A1.3,1.3,0,0,0,135.63,14.5Z"/><path class="cls-8" d="M135.65,28.82a3,3,0,0,1-1.14-.22A3,3,0,0,1,132.84,27a3.07,3.07,0,0,1,1.24-3.83l.22-.1.19.39-.2.1a2.62,2.62,0,0,0,.39,4.67,2.57,2.57,0,0,0,2,0,2.63,2.63,0,0,0,1.58-2.56l0-.44.43,0,0,.45a3,3,0,0,1-1.84,3A3,3,0,0,1,135.65,28.82Z"/><path class="cls-8" d="M135.65,28A2.18,2.18,0,0,1,134.36,24l.18-.13.26.36-.18.13a1.74,1.74,0,1,0,2.77,1.4h.44a2.19,2.19,0,0,1-2.18,2.2Z"/><path class="cls-8" d="M135.65,27.08a1.38,1.38,0,0,1-.49-.1,1.33,1.33,0,0,1-.72-.7,1.31,1.31,0,0,1,.45-1.58l.14-.09.23.37-.13.08a.87.87,0,1,0,1.39.69l0-.23.44,0v.24a1.32,1.32,0,0,1-1.3,1.35Z"/><path class="cls-5" d="M140,21.53a3.05,3.05,0,1,1-4-1.6A3,3,0,0,1,140,21.53Z"/><path class="cls-8" d="M137.19,24a1.31,1.31,0,1,1,1.2-1.83h0a1.31,1.31,0,0,1,0,1,1.28,1.28,0,0,1-.7.71A1.3,1.3,0,0,1,137.19,24Zm0-2.18a.87.87,0,0,0-.8,1.22.87.87,0,0,0,1.14.45.85.85,0,0,0,.47-.48.89.89,0,0,0,0-.66A.87.87,0,0,0,137.19,21.86Z"/><path class="cls-8" d="M137.19,24.89a2,2,0,0,1-.8-.16,2.08,2.08,0,0,1-1.18-1.15,2.15,2.15,0,1,1,4,0A2.11,2.11,0,0,1,138,24.71,2.09,2.09,0,0,1,137.19,24.89Zm0-3.88a1.8,1.8,0,0,0-.68.14,1.72,1.72,0,0,0-.9,2.26,1.7,1.7,0,0,0,.94.92,1.72,1.72,0,0,0,1.32,0,1.7,1.7,0,0,0,.92-.94,1.73,1.73,0,0,0-1-2.24A1.81,1.81,0,0,0,137.19,21Z"/><path class="cls-6" d="M26.77,138s17.17-3.11,22.42-26.25c0,0,.53,11.17-6.17,18.79C37.35,137,26.77,138,26.77,138Z"/><path class="cls-6" d="M31,140S49.1,137,52.63,113.16c0,0,1.27,11.79-5.43,19.41C41.53,139,31,140,31,140Z"/><path class="cls-6" d="M100.72,44.08a23.89,23.89,0,0,0,6.08-7.64A13.64,13.64,0,0,1,100.72,44.08Z"/><path class="cls-6" d="M101.77,45.66a15.1,15.1,0,0,0,7.12-9A10.41,10.41,0,0,1,101.77,45.66Z"/><g class="cls-18"><path class="cls-19" d="M115.26,61.52l-.41-.77c.08,0,7.32-4,11.57-16.33l.82.29C122.88,57.37,115.57,61.36,115.26,61.52Z"/><path class="cls-5" d="M112.54,61.37a.23.23,0,0,1-.19-.11.24.24,0,0,1,.09-.3l0,0a.21.21,0,0,1,.3.08.23.23,0,0,1-.08.3l-.06,0A.22.22,0,0,1,112.54,61.37Z"/><path class="cls-5" d="M113.34,60.88a.2.2,0,0,1-.18-.1.21.21,0,0,1,.06-.3l.1-.07a.22.22,0,1,1,.25.36l-.11.07A.19.19,0,0,1,113.34,60.88Zm.82-.59a.23.23,0,0,1-.18-.09.21.21,0,0,1,0-.3l.1-.08a.21.21,0,0,1,.3,0,.22.22,0,0,1,0,.31l-.11.08A.22.22,0,0,1,114.16,60.29Zm1-.7-.17-.14-.11-.2.07,0a.22.22,0,0,1,.31,0,.23.23,0,0,1,0,.31Zm-.17-.14Zm.76-.44a.22.22,0,0,1-.15-.38l.07-.07.18.14.14.16-.1.09A.2.2,0,0,1,115.71,59Zm.74-.71a.22.22,0,0,1-.15-.06.21.21,0,0,1,0-.29l0,0,.07-.07a.21.21,0,0,1,.3,0,.21.21,0,0,1,0,.31l-.06.06A.29.29,0,0,1,116.45,58.3Zm.71-.69a.2.2,0,0,1-.15-.06.22.22,0,0,1,0-.31l.09-.1a.22.22,0,0,1,.31,0,.21.21,0,0,1,0,.31l-.09.09A.23.23,0,0,1,117.16,57.61Zm.69-.74a.25.25,0,0,1-.15,0,.22.22,0,0,1,0-.31l.09-.1a.22.22,0,0,1,.33.29l-.09.1A.23.23,0,0,1,117.85,56.87Zm.66-.75a.2.2,0,0,1-.14-.06.22.22,0,0,1,0-.3l.09-.1a.22.22,0,1,1,.33.28l-.08.1A.25.25,0,0,1,118.51,56.12Zm.64-.78a.18.18,0,0,1-.13-.05.21.21,0,0,1,0-.3l.09-.11a.22.22,0,0,1,.3,0,.21.21,0,0,1,0,.31l-.08.1A.21.21,0,0,1,119.15,55.34Zm.62-.79a.24.24,0,0,1-.13,0,.21.21,0,0,1,0-.3l.08-.11a.22.22,0,0,1,.3,0,.22.22,0,0,1,0,.31l-.08.1A.23.23,0,0,1,119.77,54.55Zm.6-.81a.33.33,0,0,1-.13,0,.23.23,0,0,1,0-.31l.08-.1a.21.21,0,0,1,.3-.06.22.22,0,0,1,.05.31l-.07.11A.23.23,0,0,1,120.37,53.74Zm.58-.83a.2.2,0,0,1-.13,0,.21.21,0,0,1,0-.3l.07-.11a.22.22,0,0,1,.3-.06.21.21,0,0,1,.06.3l-.07.12A.23.23,0,0,1,121,52.91Zm.55-.84a.27.27,0,0,1-.12,0,.21.21,0,0,1-.06-.3l.07-.12a.22.22,0,0,1,.36.24l-.07.11A.22.22,0,0,1,121.5,52.07Zm.74-1L122,51l-.16-.15,0-.08a.22.22,0,0,1,.3-.07.22.22,0,0,1,.08.3ZM122,51h0Zm.52-.65a.2.2,0,0,1-.11,0,.21.21,0,0,1-.08-.3l.06-.11a.22.22,0,0,1,.38.21l-.07.12A.21.21,0,0,1,122.55,50.35Zm.49-.88a.23.23,0,0,1-.11,0,.22.22,0,0,1-.09-.29l.07-.12a.22.22,0,0,1,.29-.09.22.22,0,0,1,.09.3l-.06.12A.23.23,0,0,1,123,49.47Zm.47-.89-.1,0a.23.23,0,0,1-.1-.3l.06-.11a.23.23,0,0,1,.3-.1.22.22,0,0,1,.09.29l-.06.12A.21.21,0,0,1,123.51,48.58Zm.45-.9-.1,0a.22.22,0,0,1-.1-.29l.06-.12a.22.22,0,0,1,.39.19l-.06.12A.2.2,0,0,1,124,47.68Zm.43-.91-.09,0a.22.22,0,0,1-.11-.29l.06-.12a.22.22,0,0,1,.29-.1.2.2,0,0,1,.1.28l0,.12A.23.23,0,0,1,124.39,46.77Zm.41-.92a.15.15,0,0,1-.09,0,.21.21,0,0,1-.11-.28l.05-.12a.23.23,0,0,1,.29-.12.22.22,0,0,1,.11.29l0,.12A.21.21,0,0,1,124.8,45.85Zm.4-.93h-.09a.23.23,0,0,1-.12-.29l.05-.12a.22.22,0,1,1,.41.17l0,.12A.23.23,0,0,1,125.2,44.92Zm.58-1.09-.21-.06-.2-.1,0-.1a.21.21,0,0,1,.28-.12.22.22,0,0,1,.12.28Zm-.21-.06Zm.36-.72h-.08a.23.23,0,0,1-.13-.28l0-.13a.22.22,0,0,1,.41.15l-.05.12A.21.21,0,0,1,125.93,43.05Z"/><path class="cls-5" d="M126.27,42.09h-.07a.22.22,0,0,1-.14-.28l.21.07-.2-.1.22,0,.2.08,0,.06A.2.2,0,0,1,126.27,42.09Z"/><path class="cls-5" d="M110.7,61.35a.22.22,0,0,1-.13-.39,41.66,41.66,0,0,0,14.57-20.08.22.22,0,0,1,.26-.15.22.22,0,0,1,.16.27,42.15,42.15,0,0,1-14.73,20.31A.22.22,0,0,1,110.7,61.35Z"/><path class="cls-5" d="M117.58,50.92A1.3,1.3,0,0,1,118,49.6,1.3,1.3,0,0,1,117.58,50.92Z"/><path class="cls-5" d="M116.91,53a1.29,1.29,0,0,1,.42-1.31A1.29,1.29,0,0,1,116.91,53Z"/><path class="cls-5" d="M117.25,51a1.29,1.29,0,0,1-.68-1.2A1.29,1.29,0,0,1,117.25,51Z"/><path class="cls-5" d="M118.35,52.87a1.29,1.29,0,0,1-.69-1.2A1.31,1.31,0,0,1,118.35,52.87Z"/><path class="cls-5" d="M117.05,51.21a1.29,1.29,0,0,1-1.34-.32A1.29,1.29,0,0,1,117.05,51.21Z"/><path class="cls-5" d="M119.2,51.74a1.3,1.3,0,0,1-1.34-.33A1.3,1.3,0,0,1,119.2,51.74Z"/><path class="cls-5" d="M117.09,51.5a1.3,1.3,0,0,1-1.23.64A1.3,1.3,0,0,1,117.09,51.5Z"/><path class="cls-5" d="M119.05,50.49a1.3,1.3,0,0,1-1.23.63A1.32,1.32,0,0,1,119.05,50.49Z"/><path class="cls-5" d="M117.75,51.37a.31.31,0,0,1-.34.25.31.31,0,0,1-.25-.35.29.29,0,0,1,.34-.24A.29.29,0,0,1,117.75,51.37Z"/><path class="cls-5" d="M110.6,45.68a1.29,1.29,0,0,1,.42-1.31A1.29,1.29,0,0,1,110.6,45.68Z"/><path class="cls-5" d="M109.94,47.79a1.31,1.31,0,0,1,.41-1.32A1.31,1.31,0,0,1,109.94,47.79Z"/><path class="cls-5" d="M110.27,45.72a1.29,1.29,0,0,1-.68-1.2A1.29,1.29,0,0,1,110.27,45.72Z"/><path class="cls-5" d="M111.37,47.64a1.31,1.31,0,0,1-.69-1.2A1.29,1.29,0,0,1,111.37,47.64Z"/><path class="cls-5" d="M110.08,46a1.32,1.32,0,0,1-1.35-.33A1.32,1.32,0,0,1,110.08,46Z"/><path class="cls-5" d="M112.22,46.51a1.3,1.3,0,0,1-1.34-.33A1.3,1.3,0,0,1,112.22,46.51Z"/><path class="cls-5" d="M110.11,46.27a1.3,1.3,0,0,1-1.23.64A1.32,1.32,0,0,1,110.11,46.27Z"/><path class="cls-5" d="M112.07,45.25a1.29,1.29,0,0,1-1.22.64A1.29,1.29,0,0,1,112.07,45.25Z"/><path class="cls-5" d="M110.77,46.13a.29.29,0,0,1-.34.25.3.3,0,0,1-.25-.34.31.31,0,0,1,.34-.25A.29.29,0,0,1,110.77,46.13Z"/><path class="cls-5" d="M108,49.18a1.3,1.3,0,0,1,.51-1.28A1.3,1.3,0,0,1,108,49.18Z"/><path class="cls-5" d="M107.19,51.23a1.29,1.29,0,0,1,.52-1.28A1.29,1.29,0,0,1,107.19,51.23Z"/><path class="cls-5" d="M107.68,49.19a1.28,1.28,0,0,1-.59-1.24A1.28,1.28,0,0,1,107.68,49.19Z"/><path class="cls-5" d="M108.63,51.19a1.31,1.31,0,0,1-.59-1.25A1.31,1.31,0,0,1,108.63,51.19Z"/><path class="cls-5" d="M107.47,49.44a1.32,1.32,0,0,1-1.32-.43A1.32,1.32,0,0,1,107.47,49.44Z"/><path class="cls-5" d="M109.57,50.12a1.29,1.29,0,0,1-1.31-.42A1.29,1.29,0,0,1,109.57,50.12Z"/><path class="cls-5" d="M107.48,49.73a1.28,1.28,0,0,1-1.27.54A1.31,1.31,0,0,1,107.48,49.73Z"/><path class="cls-5" d="M109.51,48.86a1.3,1.3,0,0,1-1.27.55A1.31,1.31,0,0,1,109.51,48.86Z"/><path class="cls-5" d="M108.15,49.64a.31.31,0,0,1-.36.23.3.3,0,0,1,.14-.58A.28.28,0,0,1,108.15,49.64Z"/><path class="cls-5" d="M105,52.24a1.31,1.31,0,0,1,.52-1.29A1.31,1.31,0,0,1,105,52.24Z"/><path class="cls-5" d="M104.14,54.29a1.29,1.29,0,0,1,.52-1.28A1.29,1.29,0,0,1,104.14,54.29Z"/><path class="cls-5" d="M104.63,52.25A1.31,1.31,0,0,1,104,51,1.31,1.31,0,0,1,104.63,52.25Z"/><path class="cls-5" d="M105.58,54.24A1.28,1.28,0,0,1,105,53,1.28,1.28,0,0,1,105.58,54.24Z"/><path class="cls-5" d="M104.42,52.49a1.3,1.3,0,0,1-1.32-.42A1.3,1.3,0,0,1,104.42,52.49Z"/><path class="cls-5" d="M106.52,53.18a1.32,1.32,0,0,1-1.32-.43A1.32,1.32,0,0,1,106.52,53.18Z"/><path class="cls-5" d="M104.43,52.78a1.31,1.31,0,0,1-1.27.55A1.3,1.3,0,0,1,104.43,52.78Z"/><path class="cls-5" d="M106.46,51.92a1.3,1.3,0,0,1-1.27.54A1.29,1.29,0,0,1,106.46,51.92Z"/><path class="cls-5" d="M105.1,52.7a.3.3,0,1,1-.22-.36A.3.3,0,0,1,105.1,52.7Z"/><path class="cls-5" d="M113.22,42.2a1.3,1.3,0,0,1,.42-1.32A1.3,1.3,0,0,1,113.22,42.2Z"/><path class="cls-5" d="M112.55,44.3A1.29,1.29,0,0,1,113,43,1.29,1.29,0,0,1,112.55,44.3Z"/><path class="cls-5" d="M112.89,42.23a1.29,1.29,0,0,1-.68-1.2A1.29,1.29,0,0,1,112.89,42.23Z"/><path class="cls-5" d="M114,44.15a1.29,1.29,0,0,1-.69-1.2A1.31,1.31,0,0,1,114,44.15Z"/><path class="cls-5" d="M112.69,42.49a1.28,1.28,0,0,1-1.34-.33A1.3,1.3,0,0,1,112.69,42.49Z"/><path class="cls-5" d="M114.84,43a1.3,1.3,0,0,1-1.34-.33A1.3,1.3,0,0,1,114.84,43Z"/><path class="cls-5" d="M112.73,42.78a1.3,1.3,0,0,1-1.23.64A1.3,1.3,0,0,1,112.73,42.78Z"/><path class="cls-5" d="M114.69,41.76a1.3,1.3,0,0,1-1.23.64A1.3,1.3,0,0,1,114.69,41.76Z"/><path class="cls-5" d="M113.39,42.65a.29.29,0,0,1-.34.24.29.29,0,0,1-.25-.34.31.31,0,0,1,.34-.25A.31.31,0,0,1,113.39,42.65Z"/><path class="cls-5" d="M115.4,38.27a1.3,1.3,0,0,1,.42-1.32A1.3,1.3,0,0,1,115.4,38.27Z"/><path class="cls-5" d="M114.73,40.38a1.3,1.3,0,0,1,.42-1.32A1.3,1.3,0,0,1,114.73,40.38Z"/><path class="cls-5" d="M115.07,38.31a1.31,1.31,0,0,1-.68-1.2A1.29,1.29,0,0,1,115.07,38.31Z"/><path class="cls-5" d="M116.17,40.23a1.31,1.31,0,0,1-.69-1.2A1.31,1.31,0,0,1,116.17,40.23Z"/><path class="cls-5" d="M114.87,38.57a1.3,1.3,0,0,1-1.34-.33A1.3,1.3,0,0,1,114.87,38.57Z"/><path class="cls-5" d="M117,39.09a1.28,1.28,0,0,1-1.34-.33A1.3,1.3,0,0,1,117,39.09Z"/><path class="cls-5" d="M114.91,38.86a1.3,1.3,0,0,1-1.23.63A1.3,1.3,0,0,1,114.91,38.86Z"/><path class="cls-5" d="M116.87,37.84a1.3,1.3,0,0,1-1.23.64A1.32,1.32,0,0,1,116.87,37.84Z"/><path class="cls-5" d="M115.57,38.72a.31.31,0,0,1-.34.25.3.3,0,0,1-.25-.34.29.29,0,0,1,.34-.25A.3.3,0,0,1,115.57,38.72Z"/><path class="cls-5" d="M117.15,34.35a1.31,1.31,0,0,1,.41-1.32A1.31,1.31,0,0,1,117.15,34.35Z"/><path class="cls-5" d="M116.48,36.45a1.3,1.3,0,0,1,.41-1.31A1.3,1.3,0,0,1,116.48,36.45Z"/><path class="cls-5" d="M116.82,34.38a1.29,1.29,0,0,1-.69-1.2A1.31,1.31,0,0,1,116.82,34.38Z"/><path class="cls-5" d="M117.91,36.3a1.29,1.29,0,0,1-.68-1.2A1.29,1.29,0,0,1,117.91,36.3Z"/><path class="cls-5" d="M116.62,34.64a1.28,1.28,0,0,1-1.34-.33A1.3,1.3,0,0,1,116.62,34.64Z"/><path class="cls-5" d="M118.76,35.17a1.3,1.3,0,0,1-1.34-.33A1.3,1.3,0,0,1,118.76,35.17Z"/><path class="cls-5" d="M116.65,34.93a1.29,1.29,0,0,1-1.22.64A1.29,1.29,0,0,1,116.65,34.93Z"/><path class="cls-5" d="M118.61,33.92a1.29,1.29,0,0,1-1.22.63A1.28,1.28,0,0,1,118.61,33.92Z"/><path class="cls-5" d="M117.31,34.8A.28.28,0,0,1,117,35a.3.3,0,0,1-.25-.34.31.31,0,0,1,.35-.25A.3.3,0,0,1,117.31,34.8Z"/><path class="cls-5" d="M114.57,54.42a1.28,1.28,0,0,1,.54-1.27A1.31,1.31,0,0,1,114.57,54.42Z"/><path class="cls-5" d="M113.7,56.45a1.31,1.31,0,0,1,.54-1.27A1.28,1.28,0,0,1,113.7,56.45Z"/><path class="cls-5" d="M114.23,54.42a1.3,1.3,0,0,1-.57-1.25A1.27,1.27,0,0,1,114.23,54.42Z"/><path class="cls-5" d="M115.14,56.44a1.31,1.31,0,0,1-.57-1.26A1.29,1.29,0,0,1,115.14,56.44Z"/><path class="cls-5" d="M114,54.67a1.31,1.31,0,0,1-1.3-.46A1.28,1.28,0,0,1,114,54.67Z"/><path class="cls-5" d="M116.1,55.39a1.29,1.29,0,0,1-1.3-.45A1.29,1.29,0,0,1,116.1,55.39Z"/><path class="cls-5" d="M114,55a1.3,1.3,0,0,1-1.28.51A1.3,1.3,0,0,1,114,55Z"/><path class="cls-5" d="M116.07,54.13a1.32,1.32,0,0,1-1.28.52A1.3,1.3,0,0,1,116.07,54.13Z"/><path class="cls-5" d="M114.69,54.88a.3.3,0,0,1-.36.22.3.3,0,1,1,.15-.58A.29.29,0,0,1,114.69,54.88Z"/><path class="cls-5" d="M111.51,57.47a1.31,1.31,0,0,1,.54-1.27A1.28,1.28,0,0,1,111.51,57.47Z"/><path class="cls-5" d="M110.65,59.51a1.3,1.3,0,0,1,.54-1.27A1.31,1.31,0,0,1,110.65,59.51Z"/><path class="cls-5" d="M111.18,57.48a1.31,1.31,0,0,1-.57-1.26A1.29,1.29,0,0,1,111.18,57.48Z"/><path class="cls-5" d="M112.09,59.49a1.31,1.31,0,0,1-.57-1.26A1.29,1.29,0,0,1,112.09,59.49Z"/><path class="cls-5" d="M111,57.72a1.31,1.31,0,0,1-1.31-.45A1.31,1.31,0,0,1,111,57.72Z"/><path class="cls-5" d="M113.05,58.44a1.31,1.31,0,0,1-1.31-.45A1.31,1.31,0,0,1,113.05,58.44Z"/><path class="cls-5" d="M111,58a1.3,1.3,0,0,1-1.28.52A1.28,1.28,0,0,1,111,58Z"/><path class="cls-5" d="M113,57.18a1.3,1.3,0,0,1-1.28.52A1.28,1.28,0,0,1,113,57.18Z"/><path class="cls-5" d="M111.64,57.94a.3.3,0,1,1-.22-.37A.31.31,0,0,1,111.64,57.94Z"/><path class="cls-5" d="M119.76,47.43a1.3,1.3,0,0,1,.4-1.32A1.3,1.3,0,0,1,119.76,47.43Z"/><path class="cls-5" d="M119.11,49.54a1.29,1.29,0,0,1,.41-1.32A1.29,1.29,0,0,1,119.11,49.54Z"/><path class="cls-5" d="M119.43,47.47a1.31,1.31,0,0,1-.7-1.2A1.31,1.31,0,0,1,119.43,47.47Z"/><path class="cls-5" d="M120.54,49.37a1.29,1.29,0,0,1-.69-1.19A1.31,1.31,0,0,1,120.54,49.37Z"/><path class="cls-5" d="M119.23,47.73a1.3,1.3,0,0,1-1.34-.31A1.3,1.3,0,0,1,119.23,47.73Z"/><path class="cls-5" d="M121.39,48.23a1.32,1.32,0,0,1-1.35-.31A1.32,1.32,0,0,1,121.39,48.23Z"/><path class="cls-5" d="M119.27,48a1.3,1.3,0,0,1-1.22.65A1.31,1.31,0,0,1,119.27,48Z"/><path class="cls-5" d="M121.22,47a1.3,1.3,0,0,1-1.22.65A1.31,1.31,0,0,1,121.22,47Z"/><path class="cls-5" d="M119.93,47.88a.3.3,0,0,1-.34.25.31.31,0,0,1-.25-.34.3.3,0,0,1,.59.09Z"/><path class="cls-5" d="M121.89,43.49a1.3,1.3,0,0,1,.25-1.36A1.3,1.3,0,0,1,121.89,43.49Z"/><path class="cls-5" d="M121.49,45.67a1.32,1.32,0,0,1,.25-1.36A1.3,1.3,0,0,1,121.49,45.67Z"/><path class="cls-5" d="M121.57,43.57a1.31,1.31,0,0,1-.83-1.11A1.31,1.31,0,0,1,121.57,43.57Z"/><path class="cls-5" d="M122.9,45.33a1.28,1.28,0,0,1-.83-1.1A1.31,1.31,0,0,1,122.9,45.33Z"/><path class="cls-5" d="M121.41,43.85A1.32,1.32,0,0,1,120,43.7,1.32,1.32,0,0,1,121.41,43.85Z"/><path class="cls-5" d="M123.6,44.1a1.3,1.3,0,0,1-1.37-.15A1.3,1.3,0,0,1,123.6,44.1Z"/><path class="cls-5" d="M121.48,44.13a1.3,1.3,0,0,1-1.14.79A1.32,1.32,0,0,1,121.48,44.13Z"/><path class="cls-5" d="M123.3,42.88a1.3,1.3,0,0,1-1.14.78A1.3,1.3,0,0,1,123.3,42.88Z"/><path class="cls-5" d="M122.12,43.92a.32.32,0,0,1-.31.29.3.3,0,0,1-.29-.31.29.29,0,0,1,.31-.29A.3.3,0,0,1,122.12,43.92Z"/><path class="cls-5" d="M123.64,39.57a1.3,1.3,0,0,1,.25-1.36A1.32,1.32,0,0,1,123.64,39.57Z"/><path class="cls-5" d="M123.24,41.74a1.3,1.3,0,0,1,.25-1.36A1.3,1.3,0,0,1,123.24,41.74Z"/><path class="cls-5" d="M123.31,39.64a1.29,1.29,0,0,1-.83-1.1A1.28,1.28,0,0,1,123.31,39.64Z"/><path class="cls-5" d="M124.64,41.41a1.31,1.31,0,0,1-.83-1.1A1.29,1.29,0,0,1,124.64,41.41Z"/><path class="cls-5" d="M123.15,39.93a1.29,1.29,0,0,1-1.37-.16A1.29,1.29,0,0,1,123.15,39.93Z"/><path class="cls-5" d="M125.35,40.18A1.31,1.31,0,0,1,124,40,1.31,1.31,0,0,1,125.35,40.18Z"/><path class="cls-5" d="M123.22,40.21a1.3,1.3,0,0,1-1.14.78A1.3,1.3,0,0,1,123.22,40.21Z"/><path class="cls-5" d="M125,39a1.3,1.3,0,0,1-1.14.79A1.32,1.32,0,0,1,125,39Z"/><path class="cls-5" d="M123.86,40a.29.29,0,0,1-.31.29.3.3,0,0,1-.29-.31.32.32,0,0,1,.31-.29A.31.31,0,0,1,123.86,40Z"/><path class="cls-5" d="M106.35,58.94a.21.21,0,0,1-.17-.08.22.22,0,0,1,0-.31,50.51,50.51,0,0,0,15.62-21.47.22.22,0,0,1,.27-.14.22.22,0,0,1,.14.28,50.94,50.94,0,0,1-15.76,21.67A.21.21,0,0,1,106.35,58.94Z"/><path class="cls-5" d="M105.38,57.91a.23.23,0,0,1-.18-.09.23.23,0,0,1,0-.31l.11-.07a.21.21,0,0,1,.26.34l-.1.08A.24.24,0,0,1,105.38,57.91Zm.79-.62a.23.23,0,0,1-.17-.08.22.22,0,0,1,0-.31l.1-.08a.23.23,0,0,1,.31,0,.22.22,0,0,1,0,.31l-.1.08A.24.24,0,0,1,106.17,57.29Zm.77-.64a.22.22,0,0,1-.14-.38l.1-.09a.21.21,0,0,1,.31,0,.2.2,0,0,1,0,.3l-.09.09A.3.3,0,0,1,106.94,56.65Zm.76-.66a.24.24,0,0,1-.16-.07.21.21,0,0,1,0-.31l.1-.09a.22.22,0,0,1,.31,0,.21.21,0,0,1,0,.3l-.1.09A.2.2,0,0,1,107.7,56Zm.73-.69a.2.2,0,0,1-.15-.06.21.21,0,0,1,0-.31l.1-.09a.22.22,0,0,1,.3,0,.22.22,0,0,1,0,.31l-.1.09A.2.2,0,0,1,108.43,55.3Zm.72-.7a.25.25,0,0,1-.16-.06.23.23,0,0,1,0-.31l.09-.09a.21.21,0,0,1,.31,0,.21.21,0,0,1,0,.3l-.1.1A.22.22,0,0,1,109.15,54.6Zm.7-.72a.2.2,0,0,1-.15-.06.2.2,0,0,1,0-.3l.09-.1a.21.21,0,0,1,.3,0,.21.21,0,0,1,0,.31l-.09.1A.22.22,0,0,1,109.85,53.88Zm.68-.73a.2.2,0,0,1-.15-.06.22.22,0,0,1,0-.31l.09-.09a.22.22,0,1,1,.32.29l-.08.1A.28.28,0,0,1,110.53,53.15Zm.66-.75a.2.2,0,0,1-.14-.06.21.21,0,0,1,0-.3l.09-.1a.23.23,0,0,1,.31,0,.22.22,0,0,1,0,.31l-.08.1A.25.25,0,0,1,111.19,52.4Zm.65-.77a.24.24,0,0,1-.14-.05.22.22,0,0,1,0-.31l.08-.1a.23.23,0,0,1,.31,0,.22.22,0,0,1,0,.31l-.08.1A.25.25,0,0,1,111.84,51.63Zm.63-.78a.19.19,0,0,1-.14-.05.21.21,0,0,1,0-.3l.08-.1a.21.21,0,0,1,.31,0,.21.21,0,0,1,0,.3l-.08.11A.23.23,0,0,1,112.47,50.85Zm.62-.79A.24.24,0,0,1,113,50a.22.22,0,0,1,0-.3l.08-.1a.22.22,0,0,1,.31,0,.23.23,0,0,1,0,.31l-.08.1A.21.21,0,0,1,113.09,50.06Zm.6-.8a.23.23,0,0,1-.18-.35l.08-.11a.22.22,0,0,1,.3,0,.21.21,0,0,1,0,.3l-.08.11A.2.2,0,0,1,113.69,49.26Zm.59-.82a.2.2,0,0,1-.13,0,.21.21,0,0,1-.05-.3l.07-.11a.22.22,0,0,1,.31-.05.21.21,0,0,1,0,.3l-.08.11A.21.21,0,0,1,114.28,48.44Zm.57-.82a.17.17,0,0,1-.12,0,.21.21,0,0,1-.06-.3l.07-.11a.22.22,0,1,1,.36.25l-.07.1A.22.22,0,0,1,114.85,47.62Zm.56-.83a.25.25,0,0,1-.12,0,.22.22,0,0,1-.06-.31l.07-.1a.22.22,0,0,1,.36.24l-.07.11A.22.22,0,0,1,115.41,46.79Zm.55-.85a.24.24,0,0,1-.12,0,.22.22,0,0,1-.07-.3l.07-.11a.22.22,0,0,1,.37.23l-.07.11A.2.2,0,0,1,116,45.94Zm.53-.85-.12,0a.22.22,0,0,1-.07-.3l.07-.11a.22.22,0,0,1,.3-.07.21.21,0,0,1,.07.3l-.07.11A.2.2,0,0,1,116.49,45.09Zm.52-.86-.12,0a.22.22,0,0,1-.07-.3l.07-.11a.22.22,0,0,1,.3-.07.21.21,0,0,1,.07.3l-.07.11A.2.2,0,0,1,117,44.23Zm.51-.86a.2.2,0,0,1-.11,0,.22.22,0,0,1-.08-.3l0-.09.2.09.18.13-.06.09A.21.21,0,0,1,117.52,43.37Zm.49-.87a.19.19,0,0,1-.1,0,.22.22,0,0,1-.09-.3l.07-.11a.21.21,0,0,1,.29-.09.22.22,0,0,1,.09.3l-.07.11A.21.21,0,0,1,118,42.5Zm.48-.9-.09,0a.22.22,0,0,1-.1-.29l.06-.11a.22.22,0,0,1,.3-.09.21.21,0,0,1,.09.29l0,.1A.24.24,0,0,1,118.49,41.6Zm.48-.87a.23.23,0,0,1-.11,0,.22.22,0,0,1-.09-.29l0-.09.21.07.18.13,0,.09A.22.22,0,0,1,119,40.73Zm.45-.9a.15.15,0,0,1-.09,0,.21.21,0,0,1-.1-.29l.06-.12a.22.22,0,0,1,.29-.1.23.23,0,0,1,.1.3l-.06.11A.22.22,0,0,1,119.42,39.83Zm.45-.9a.15.15,0,0,1-.09,0,.22.22,0,0,1-.11-.29l0-.08a.24.24,0,0,1,.3-.12.2.2,0,0,1,.11.27l0,0,0,.08A.22.22,0,0,1,119.87,38.93Zm.43-.9a.16.16,0,0,1-.09,0,.21.21,0,0,1-.11-.28l.06-.12a.22.22,0,0,1,.29-.11.22.22,0,0,1,.1.29l0,.12A.23.23,0,0,1,120.3,38Zm.42-.92-.09,0a.22.22,0,0,1-.11-.29l0-.09.21.06.18.12,0,.09A.21.21,0,0,1,120.72,37.11Zm.39-.93H121a.23.23,0,0,1-.12-.29l0-.12a.22.22,0,0,1,.28-.12.21.21,0,0,1,.13.28l-.06.13A.21.21,0,0,1,121.11,36.18Z"/><path class="cls-19" d="M104.21,56.9l-.54-.68c10.68-8.55,15.51-21.06,15.56-21.19l.81.31C120,35.47,115.08,48.2,104.21,56.9Z"/><path class="cls-5" d="M102,51.82a.28.28,0,0,1-.17-.07.22.22,0,0,1,0-.31l.1-.09a.22.22,0,0,1,.29.33l-.1.08A.2.2,0,0,1,102,51.82Zm.74-.67a.24.24,0,0,1-.16-.07.23.23,0,0,1,0-.31l.1-.09a.22.22,0,0,1,.31,0,.23.23,0,0,1,0,.31l-.1.09A.22.22,0,0,1,102.71,51.15Zm.73-.69a.22.22,0,0,1-.15-.38l.1-.09a.21.21,0,0,1,.3,0,.21.21,0,0,1,0,.31l-.1.09A.2.2,0,0,1,103.44,50.46Zm.72-.7a.21.21,0,0,1-.16-.07.22.22,0,0,1,0-.31l.09-.09a.22.22,0,0,1,.31.31l-.1.1A.22.22,0,0,1,104.16,49.76Zm.7-.72a.22.22,0,0,1-.15-.37l.09-.09a.21.21,0,0,1,.31,0,.21.21,0,0,1,0,.3L105,49A.23.23,0,0,1,104.86,49Zm.69-.72a.2.2,0,0,1-.14-.06.21.21,0,0,1,0-.31l.08-.1a.23.23,0,0,1,.31,0,.21.21,0,0,1,0,.31l-.09.1A.24.24,0,0,1,105.55,48.32Zm.68-.75a.21.21,0,0,1-.15,0,.22.22,0,0,1,0-.31l.08-.1a.22.22,0,0,1,.31,0,.21.21,0,0,1,0,.3l-.09.1A.2.2,0,0,1,106.23,47.57Zm.66-.75a.24.24,0,0,1-.14,0,.22.22,0,0,1,0-.31l.08-.1a.22.22,0,0,1,.31,0,.21.21,0,0,1,0,.3l-.09.1A.21.21,0,0,1,106.89,46.82Zm.64-.77a.18.18,0,0,1-.13,0,.2.2,0,0,1,0-.3l.08-.11a.22.22,0,0,1,.34.28l-.09.1A.21.21,0,0,1,107.53,46.05Zm.63-.78a.24.24,0,0,1-.13-.05.21.21,0,0,1,0-.3l.08-.11a.22.22,0,0,1,.35.27l-.09.11A.21.21,0,0,1,108.16,45.27Zm.61-.79a.24.24,0,0,1-.13,0,.23.23,0,0,1,0-.31l.08-.1a.22.22,0,0,1,.3,0,.21.21,0,0,1,0,.3l-.08.11A.23.23,0,0,1,108.77,44.48Zm.6-.83a.19.19,0,0,1-.12,0,.21.21,0,0,1-.06-.29l.08-.1a.22.22,0,1,1,.35.25l-.05.08A.26.26,0,0,1,109.37,43.65Zm.58-.8a.28.28,0,0,1-.13,0,.21.21,0,0,1,0-.3l.07-.11a.22.22,0,0,1,.36.24l-.07.11A.24.24,0,0,1,110,42.85Zm.56-.84a.21.21,0,0,1-.12,0,.22.22,0,0,1-.07-.3l.07-.11a.23.23,0,0,1,.31-.07.21.21,0,0,1,.06.3l-.07.11A.2.2,0,0,1,110.51,42Zm.53-.84a.15.15,0,0,1-.11,0,.22.22,0,0,1-.07-.3l.07-.11a.22.22,0,1,1,.37.23l-.07.11A.21.21,0,0,1,111,41.17Zm.52-.86a.23.23,0,0,1-.11,0,.21.21,0,0,1-.07-.3l.06-.11a.21.21,0,0,1,.3-.08.22.22,0,0,1,.08.3l-.07.11A.21.21,0,0,1,111.56,40.31Zm.5-.87a.23.23,0,0,1-.11,0,.22.22,0,0,1-.08-.3l.06-.11a.23.23,0,0,1,.3-.09.22.22,0,0,1,.08.3l-.06.11A.21.21,0,0,1,112.06,39.44Zm.47-.89-.1,0a.23.23,0,0,1-.09-.3l0-.09.2.08.19.12,0,.1A.23.23,0,0,1,112.53,38.55Zm.45-.89-.09,0a.22.22,0,0,1-.1-.29l0-.12a.24.24,0,0,1,.3-.1.23.23,0,0,1,.1.29l-.06.12A.22.22,0,0,1,113,37.66Zm.64-1.07-.21-.06-.2-.09.05-.12a.22.22,0,1,1,.4.18Zm.18-.77a.11.11,0,0,1-.08,0,.21.21,0,0,1-.13-.28l0-.12a.22.22,0,0,1,.41.16l0,.12A.21.21,0,0,1,113.8,35.82Zm.35-.94h-.07a.22.22,0,0,1-.14-.28l0-.12a.22.22,0,1,1,.41.13l0,.13A.21.21,0,0,1,114.15,34.88Z"/><path class="cls-5" d="M101.1,49.58a.21.21,0,0,1-.17-.09.22.22,0,0,1,0-.3c6.51-4.78,8.67-8.7,10.39-14.28a.22.22,0,1,1,.42.12c-1.75,5.67-3.94,9.66-10.55,14.51A.2.2,0,0,1,101.1,49.58Z"/></g></svg>