<svg id="दराज़" xmlns="http://www.w3.org/2000/svg" viewBox="0 0 150 160"><defs><style>.cls-1,.cls-10,.cls-2,.cls-3{fill:#fff;}.cls-1,.cls-2,.cls-3{stroke:#fff;stroke-miterlimit:10;stroke-width:5px;}.cls-2,.cls-7{opacity:0.47;}.cls-10,.cls-3{opacity:0.85;}.cls-4,.cls-7{fill:#945f83;}.cls-5{fill:#723f64;}.cls-6{fill:#d0b7c3;}.cls-8{fill:#6a400f;}.cls-9{fill:#ebd33e;}.cls-11{fill:#eea600;}</style></defs><rect class="cls-1" x="29.84" y="123.21" width="90.31" height="6.69"/><polygon class="cls-1" points="51.73 128.42 40.33 139.82 34.92 139.82 34.92 129.39 36.47 128.42 51.73 128.42"/><polygon class="cls-1" points="115.08 129.39 115.08 139.82 109.67 139.82 98.28 128.42 113.53 128.42 115.08 129.39"/><polygon class="cls-1" points="36.47 128.42 51.73 128.42 45.74 134.41 34.92 134.41 34.92 129.39 36.47 128.42"/><polygon class="cls-1" points="115.08 129.39 115.08 134.41 104.26 134.41 98.28 128.42 113.53 128.42 115.08 129.39"/><rect class="cls-1" x="25.83" y="20.18" width="98.34" height="106.37"/><rect class="cls-2" x="29.17" y="23.53" width="90.98" height="99.68"/><rect class="cls-1" x="31.85" y="27.88" width="84.96" height="42.81"/><rect class="cls-1" x="31.85" y="75.04" width="84.96" height="42.81"/><path class="cls-1" d="M70.57,42.62A4.43,4.43,0,1,0,75,38.19,4.42,4.42,0,0,0,70.57,42.62Z"/><circle class="cls-1" cx="75" cy="40.24" r="4.43" transform="translate(-6.49 64.82) rotate(-45)"/><path class="cls-3" d="M75.6,38.29a1.09,1.09,0,1,0,1.09-1.09A1.09,1.09,0,0,0,75.6,38.29Z"/><path class="cls-1" d="M71.43,40.65a3.3,3.3,0,0,0,6.56.52,3.31,3.31,0,0,1-4.92-2.88,3,3,0,0,1,0-.52A3.32,3.32,0,0,0,71.43,40.65Z"/><circle class="cls-1" cx="75" cy="88.53" r="4.43" transform="translate(-18.33 19.6) rotate(-13.28)"/><path class="cls-1" d="M70.57,86.15A4.43,4.43,0,1,0,75,81.72,4.43,4.43,0,0,0,70.57,86.15Z"/><path class="cls-3" d="M75.6,84.2a1.09,1.09,0,1,0,1.09-1.09A1.09,1.09,0,0,0,75.6,84.2Z"/><path class="cls-1" d="M71.43,86.57a3.3,3.3,0,0,0,6.56.51,3.29,3.29,0,0,1-4.92-2.88,2.92,2.92,0,0,1,0-.51A3.3,3.3,0,0,0,71.43,86.57Z"/><rect class="cls-4" x="29.84" y="123.21" width="90.31" height="6.69"/><polygon class="cls-4" points="51.73 128.42 40.33 139.82 34.92 139.82 34.92 129.39 36.47 128.42 51.73 128.42"/><polygon class="cls-4" points="115.08 129.39 115.08 139.82 109.67 139.82 98.28 128.42 113.53 128.42 115.08 129.39"/><polygon class="cls-5" points="36.47 128.42 51.73 128.42 45.74 134.41 34.92 134.41 34.92 129.39 36.47 128.42"/><polygon class="cls-5" points="115.08 129.39 115.08 134.41 104.26 134.41 98.28 128.42 113.53 128.42 115.08 129.39"/><rect class="cls-6" x="25.83" y="20.18" width="98.34" height="106.37"/><rect class="cls-7" x="29.17" y="23.53" width="90.98" height="99.68"/><rect class="cls-5" x="31.85" y="27.88" width="84.96" height="42.81"/><rect class="cls-5" x="31.85" y="75.04" width="84.96" height="42.81"/><path class="cls-8" d="M70.57,42.62A4.43,4.43,0,1,0,75,38.19,4.42,4.42,0,0,0,70.57,42.62Z"/><circle class="cls-9" cx="75" cy="40.24" r="4.43" transform="translate(-6.49 64.82) rotate(-45)"/><path class="cls-10" d="M75.6,38.29a1.09,1.09,0,1,0,1.09-1.09A1.09,1.09,0,0,0,75.6,38.29Z"/><path class="cls-11" d="M71.43,40.65a3.3,3.3,0,0,0,6.56.52,3.31,3.31,0,0,1-4.92-2.88,3,3,0,0,1,0-.52A3.32,3.32,0,0,0,71.43,40.65Z"/><circle class="cls-8" cx="75" cy="88.53" r="4.43" transform="translate(-18.33 19.6) rotate(-13.28)"/><path class="cls-9" d="M70.57,86.15A4.43,4.43,0,1,0,75,81.72,4.43,4.43,0,0,0,70.57,86.15Z"/><path class="cls-10" d="M75.6,84.2a1.09,1.09,0,1,0,1.09-1.09A1.09,1.09,0,0,0,75.6,84.2Z"/><path class="cls-11" d="M71.43,86.57a3.3,3.3,0,0,0,6.56.51,3.29,3.29,0,0,1-4.92-2.88,2.92,2.92,0,0,1,0-.51A3.3,3.3,0,0,0,71.43,86.57Z"/></svg>