<svg id="Layer_14" data-name="Layer 14" xmlns="http://www.w3.org/2000/svg" viewBox="0 0 150 160"><defs><style>.cls-1,.cls-9{fill:#16202e;}.cls-1,.cls-2,.cls-3,.cls-4,.cls-5,.cls-6,.cls-7,.cls-8{stroke:#fff;stroke-miterlimit:10;stroke-width:5px;}.cls-10,.cls-2{fill:#faa146;}.cls-11,.cls-3{fill:#dbdff0;}.cls-12,.cls-4{fill:#b6bac7;}.cls-13,.cls-5{fill:#8e4f3a;}.cls-14,.cls-6{fill:#c6cad9;}.cls-15,.cls-7{fill:#633029;}.cls-16,.cls-8{fill:#e3933f;}</style></defs><path class="cls-1" d="M78.23,17.69s6.84-.71,9.29,5.88,4.82,8.74,5.07,12.21c1.16,14,7.72,10.84,5.86,18.9s-3.1,9.3-3.1,9.3L79.71,60.91,63.87,61s6.2-3.1,4.83-9.65-4.83-17.38-2.9-24.75S74.16,18.23,78.23,17.69Z"/><path class="cls-2" d="M98.54,111.45h0l-1.18.07c-6.41.4-37,2.17-41.27.61,0,0,.12-.42.32-1s.5-1.29.75-1.93c2-4.73,4.16-7.58,5-9.65A7.4,7.4,0,0,0,63,96.75c.6-4.76.5-12.34-.41-15.55-1.25-4.37-3.19-7.27-1.18-13a47,47,0,0,0,2.37-11l6.38-2.53s-.41,15.45,8.31,15.75,8.44-16.82,8.44-16.82l6.59,2.07S94.7,64.73,96,67s.62,8.38-.91,11.91S92.61,89.1,92.61,93.05a11.93,11.93,0,0,0,.61,3.19c1.27,4.24,4.14,10.08,4.83,12.55a3.78,3.78,0,0,1,.1.46c.14.74.23,1.23.27,1.56A3.6,3.6,0,0,1,98.54,111.45Z"/><path class="cls-3" d="M128.71,140.9c-7.2.15-23.75,1.67-30.88-1a227.38,227.38,0,0,0-26.11-7.23,49.38,49.38,0,0,0-7.93-1.15c-4.82-.1-9.73-4.41-13.25-7.32a17,17,0,0,0-3.47-2.48,5.33,5.33,0,0,1-1.86-1.17,1.38,1.38,0,0,1-.46-.88c0-.7.78-1.24,2.67-1.24a14.53,14.53,0,0,1,1.6.06c3.26.25,6.75,1.11,8.68,1,2.29-.08,8.52,5.4,9.77,5.68a24.92,24.92,0,0,0,4.11.73,12.18,12.18,0,0,0,9.25-2.81A60.45,60.45,0,0,1,87,118.61c5.38-3.64,11.44-7.13,11.58-7.2h0a8.44,8.44,0,0,0,2.21,3.29c1.42,1.22,2.3,1.21,7.86,1.47l3.43.19c5.19.32,11,.9,13.63,2.55,1.24.77,2.62,1.68,4,2.7h0c3.51,2.61,6.92,5.79,7.6,8.43a4.05,4.05,0,0,1,.12.84C137.44,134.68,135.92,140.8,128.71,140.9Z"/><path class="cls-3" d="M98.55,111.46a8.56,8.56,0,0,0,.86,1.71c1.76,2.74,3.58,2.72,5.62,2.9L85.72,126.46l-25.27-.62-9.9-1.57-1.88-.3s-4.91-3.42-6-4.14l2.11-.09c0-.7.78-1.24,2.67-1.24a14.53,14.53,0,0,1,1.6.06c1.78-1.83,7-6.45,7-6.45l42.47-.68Z"/><path class="cls-4" d="M112,116.41c-7.22,2-13.24,7.46-13.24,7.46l-9,1.63,14.78-9.5H105c1,.07,2.23.13,3.58.18Z"/><path class="cls-5" d="M74.33,125.28c4.83-.83,4.69-2.48,6.41-4.76,1.48-1.93,3-1.76,6.21-1.93h1.51a10.86,10.86,0,0,0,1.4-.11h0c3.29-.51,7.09-2.62,8.69-4.61a2.49,2.49,0,0,1,.89-.68,5.86,5.86,0,0,1,1.16-.39l.28-.06a17.41,17.41,0,0,1,5.85-.21c2,.13,5.39,2.84,2.83,3.46l-1,.25a23.61,23.61,0,0,0-8.43,4.53c-3,2.63-11.58,5.2-14.48,6.86-1.33.75-7.22,2.79-14,5.1Z"/><path class="cls-3" d="M80.41,129.71c-2.44.86-5.47,1.93-8.69,3-8.08,2.75-17.37,5.87-21.6,7.64a29.83,29.83,0,0,1-8.76,1.74h0c-1,.08-2.12.13-3.21.17H38a93.73,93.73,0,0,1-12.54-.49h0a22.78,22.78,0,0,1-4.77-.88c-2.12-.86-3.76-4.67-4.18-8a9.38,9.38,0,0,1,.1-3.3c.5-2.07,3-4.53,6.12-6.39h0A21.72,21.72,0,0,1,29,120.6c2.82-.6,7.88-.64,12.17-.76l1.55,0h0l2.1-.09c1.93-.13,3.29-.32,3.78-.71a.08.08,0,0,0,.07,0h.12l1.71.64,11.12,4.1c3.94,3.12,8.5,2.4,11.31,1.83.58-.11,1.08-.22,1.48-.28a13.5,13.5,0,0,0,2.19-.55Z"/><path class="cls-5" d="M126.15,118s-17.19-13-19-16.19S97.51,77.45,96.6,76a1,1,0,0,0-.44-.33C93.72,74.43,83,73.8,83,73.8L61.12,76l-.11.23c-.71,1.3-4.34,8-5.15,10-.9,2.22-5.54,14.34-6.65,16.14s-24.47,19.1-25,19.36-5-1.71-4.06-3,17.93-18.48,20-20.57S50,78.65,50.47,76.57,52.4,63.9,56.14,61.05a40.42,40.42,0,0,1,7.35-4l.25-.11c2.26-1,4.42-1.7,6.25-2.38l.18-.07c2-.75,3.56-1.15,3.56-1.15l9.5-.62s2.26.43,3.71.84h.11c2.18.63,5.13,1.5,6.48,2h.11l.44.17c2.51,1,7.26,2.78,7.91,4.7.69,2.08,2.77,7.55,3.32,11.59s6,17.73,6.86,19.88,3.45,5.06,5,7.55,11.65,14.55,12.72,15.18S126.15,118,126.15,118Z"/><path class="cls-6" d="M90.82,125.36s18.34-3.31,22.66-1.44,7.48,6.16,11.71,5.75,0-2.35-3-3.15-5.36-4.44-13.33-4.18A68.5,68.5,0,0,0,95.58,124S92,124.91,90.82,125.36Z"/><path class="cls-3" d="M52.71,124.4l-6.52-1.09s-2.76-3.13-5.1-3.48l1.55,0h0l2.11-.09c1.87-.13,3.28-.32,3.78-.71h.18l1.37-.07.34.71Z"/><path class="cls-5" d="M49.85,123.66a9.8,9.8,0,0,0-2.9-1.93c-1.35-.42-3.51-2.5-1.06-3.12,3.08-.79,8.69,1.18,10.2,1.14a12.2,12.2,0,0,1,6.44,2.17c2.14,1.51,4.83,3.7,6.48,3.66,0,0-.11.41-1.22.37s-17.31-1.81-17.31-1.81Z"/><path class="cls-6" d="M73.73,125.71A39.1,39.1,0,0,1,62.1,126c-12.06-1.18-18-3.15-24.32-.65s-5.46,3.21-8.68,3.21,2-3.95,8.79-5.13,23.62,2.08,25.55,2.08c1.58,0,6.88.49,11.12-.31Z"/><path class="cls-4" d="M137.25,130.09a5.67,5.67,0,0,1-2.46-.8c-2.23-1.28-5.1-7.53-5.14-7.63C133.16,124.27,136.57,127.46,137.25,130.09Z"/><path class="cls-5" d="M143.06,127.08c-.06-1.27-4.82-4.21-4-4.93s1-3.38,1-4-.8-1.38-1.6-2.21-4.94.06-5.74,0a11.63,11.63,0,0,1-2.83-1.16s-4.59,2.59-4.06,3a62.46,62.46,0,0,1,6.38,7c1.33,1.93,3,2.57,4.83,3.64s1.8-.36,1.8-.36a5.69,5.69,0,0,0,1.32.62,1,1,0,0,0,1.27-.49,1,1,0,0,0,.05-.63S143.11,128.35,143.06,127.08Zm-5.71-6.33a5.13,5.13,0,0,1-2.18-2.55c0-.52,2.46-1.06,2.89,0S137.35,120.75,137.35,120.75Z"/><path class="cls-4" d="M22.65,123.23c0,.11-2.55,7.19-6.09,9.65l-.13.08a9.56,9.56,0,0,1,.1-3.29C17,127.55,19.56,125.09,22.65,123.23Z"/><path class="cls-5" d="M8.5,131.58a1,1,0,0,0,.7,1.17,1,1,0,0,0,.62-.05,5.83,5.83,0,0,0,1.33-.58s-.13,1.43,1.79.36,3.54-1.69,4.83-3.63a61,61,0,0,1,6.39-7c.52-.37-4.07-3-4.07-3A11.63,11.63,0,0,1,17.26,120c-.8,0-4.93-.83-5.79,0S10,121.5,10,122.18s.09,3.3,1,4S7,129.87,7,131.14,8.5,131.58,8.5,131.58ZM12,122.25c.39-1.06,2.89-.51,2.89,0a5.09,5.09,0,0,1-2.18,2.55S11.59,123.33,12,122.25Z"/><path class="cls-3" d="M82.53,132.43s-19.63,8.15-41.17,9.65h0c-1.06.07-2.13.13-3.21.17H38a79.58,79.58,0,0,1-12.54-.48h0s35.2-12.65,47.47-16.22a29.42,29.42,0,0,1,3.62-.89l0,.06,3.86,5Z"/><path class="cls-5" d="M79.14,21.55s9,1.3,7.72,14.64S77.56,48.48,77,48.47s-8,.27-8.69-16C68.37,32.47,68.07,20.42,79.14,21.55Z"/><path class="cls-5" d="M83.16,46.09s-.56,6.94.77,9-1.14,4.9-6.26,3.94-4.82-3.86-4.82-3.86a21.3,21.3,0,0,0,1-7.73C73.46,44.05,83.16,46.09,83.16,46.09Z"/><path class="cls-1" d="M78.11,26.39s4.22,4.44,6.17,6.67,2.2,6.6,2.2,6.6,3.3-4,1.93-8.74-4.67-13.84-12.94-11-8.58,15.17-7.61,21.3C67.86,41.19,71.57,27.66,78.11,26.39Z"/><path class="cls-7" d="M74.55,47.86A7.87,7.87,0,0,0,82.14,47a4.87,4.87,0,0,1-3.8,2.45A3.72,3.72,0,0,1,74.55,47.86Z"/><path class="cls-2" d="M96,76.37l10.19-2.59c-.22-2.66-2.89-10.84-4-13.38s-7.66-4.62-15.18-6.76c-.06,3-.75,17.09-8.54,16.79s-8.34-13-8.34-15.91l-.18.07C60.76,58,55.89,59.19,53.77,63c-2.34,4.18-3.62,11.9-3.62,11.9l10.9,1.47c.43,1.55,1,3.08,1.54,4.83.92,3.21.91,11.58.31,16.31,0,0,15.14-6.11,30.35-1.28h0a11.93,11.93,0,0,1-.61-3.19c0-4,.87-10.62,2.5-14.12A14.57,14.57,0,0,0,96,76.37Z"/><path class="cls-8" d="M98.52,111.41l-1.18.06-41.27.61s.12-.41.32-1,.5-1.3.75-1.93l40.93-.43a3.78,3.78,0,0,1,.1.46c.14.74.23,1.23.27,1.56.1.54.1.6.1.6Z"/><path class="cls-1" d="M73.23,50.28s-12.44,11.06-9.2,18c2.75,5.89,12.54,2.28,10.9-3.86A70.39,70.39,0,0,1,73.23,50.28Z"/><path class="cls-9" d="M78.23,17.69s6.84-.71,9.29,5.88,4.82,8.74,5.07,12.21c1.16,14,7.72,10.84,5.86,18.9s-3.1,9.3-3.1,9.3L79.71,60.91,63.87,61s6.2-3.1,4.83-9.65-4.83-17.38-2.9-24.75S74.16,18.23,78.23,17.69Z"/><path class="cls-10" d="M98.54,111.45h0l-1.18.07c-6.41.4-37,2.17-41.27.61,0,0,.12-.42.32-1s.5-1.29.75-1.93c2-4.73,4.16-7.58,5-9.65A7.4,7.4,0,0,0,63,96.75c.6-4.76.5-12.34-.41-15.55-1.25-4.37-3.19-7.27-1.18-13a47,47,0,0,0,2.37-11l6.38-2.53s-.41,15.45,8.31,15.75,8.44-16.82,8.44-16.82l6.59,2.07S94.7,64.73,96,67s.62,8.38-.91,11.91S92.61,89.1,92.61,93.05a11.93,11.93,0,0,0,.61,3.19c1.27,4.24,4.14,10.08,4.83,12.55a3.78,3.78,0,0,1,.1.46c.14.74.23,1.23.27,1.56A3.6,3.6,0,0,1,98.54,111.45Z"/><path class="cls-11" d="M128.71,140.9c-7.2.15-23.75,1.67-30.88-1a227.38,227.38,0,0,0-26.11-7.23,49.38,49.38,0,0,0-7.93-1.15c-4.82-.1-9.73-4.41-13.25-7.32a17,17,0,0,0-3.47-2.48,5.33,5.33,0,0,1-1.86-1.17,1.38,1.38,0,0,1-.46-.88c0-.7.78-1.24,2.67-1.24a14.53,14.53,0,0,1,1.6.06c3.26.25,6.75,1.11,8.68,1,2.29-.08,8.52,5.4,9.77,5.68a24.92,24.92,0,0,0,4.11.73,12.18,12.18,0,0,0,9.25-2.81A60.45,60.45,0,0,1,87,118.61c5.38-3.64,11.44-7.13,11.58-7.2h0a8.44,8.44,0,0,0,2.21,3.29c1.42,1.22,2.3,1.21,7.86,1.47l3.43.19c5.19.32,11,.9,13.63,2.55,1.24.77,2.62,1.68,4,2.7h0c3.51,2.61,6.92,5.79,7.6,8.43a4.05,4.05,0,0,1,.12.84C137.44,134.68,135.92,140.8,128.71,140.9Z"/><path class="cls-11" d="M98.55,111.46a8.56,8.56,0,0,0,.86,1.71c1.76,2.74,3.58,2.72,5.62,2.9L85.72,126.46l-25.27-.62-9.9-1.57-1.88-.3s-4.91-3.42-6-4.14l2.11-.09c0-.7.78-1.24,2.67-1.24a14.53,14.53,0,0,1,1.6.06c1.78-1.83,7-6.45,7-6.45l42.47-.68Z"/><path class="cls-12" d="M112,116.41c-7.22,2-13.24,7.46-13.24,7.46l-9,1.63,14.78-9.5H105c1,.07,2.23.13,3.58.18Z"/><path class="cls-13" d="M74.33,125.28c4.83-.83,4.69-2.48,6.41-4.76,1.48-1.93,3-1.76,6.21-1.93h1.51a10.86,10.86,0,0,0,1.4-.11h0c3.29-.51,7.09-2.62,8.69-4.61a2.49,2.49,0,0,1,.89-.68,5.86,5.86,0,0,1,1.16-.39l.28-.06a17.41,17.41,0,0,1,5.85-.21c2,.13,5.39,2.84,2.83,3.46l-1,.25a23.61,23.61,0,0,0-8.43,4.53c-3,2.63-11.58,5.2-14.48,6.86-1.33.75-7.22,2.79-14,5.1Z"/><path class="cls-11" d="M80.41,129.71c-2.44.86-5.47,1.93-8.69,3-8.08,2.75-17.37,5.87-21.6,7.64a29.83,29.83,0,0,1-8.76,1.74h0c-1,.08-2.12.13-3.21.17H38a93.73,93.73,0,0,1-12.54-.49h0a22.78,22.78,0,0,1-4.77-.88c-2.12-.86-3.76-4.67-4.18-8a9.38,9.38,0,0,1,.1-3.3c.5-2.07,3-4.53,6.12-6.39h0A21.72,21.72,0,0,1,29,120.6c2.82-.6,7.88-.64,12.17-.76l1.55,0h0l2.1-.09c1.93-.13,3.29-.32,3.78-.71a.08.08,0,0,0,.07,0h.12l1.71.64,11.12,4.1c3.94,3.12,8.5,2.4,11.31,1.83.58-.11,1.08-.22,1.48-.28a13.5,13.5,0,0,0,2.19-.55Z"/><path class="cls-13" d="M126.15,118s-17.19-13-19-16.19S97.51,77.45,96.6,76a1,1,0,0,0-.44-.33C93.72,74.43,83,73.8,83,73.8L61.12,76l-.11.23c-.71,1.3-4.34,8-5.15,10-.9,2.22-5.54,14.34-6.65,16.14s-24.47,19.1-25,19.36-5-1.71-4.06-3,17.93-18.48,20-20.57S50,78.65,50.47,76.57,52.4,63.9,56.14,61.05a40.42,40.42,0,0,1,7.35-4l.25-.11c2.26-1,4.42-1.7,6.25-2.38l.18-.07c2-.75,3.56-1.15,3.56-1.15l9.5-.62s2.26.43,3.71.84h.11c2.18.63,5.13,1.5,6.48,2h.11l.44.17c2.51,1,7.26,2.78,7.91,4.7.69,2.08,2.77,7.55,3.32,11.59s6,17.73,6.86,19.88,3.45,5.06,5,7.55,11.65,14.55,12.72,15.18S126.15,118,126.15,118Z"/><path class="cls-14" d="M90.82,125.36s18.34-3.31,22.66-1.44,7.48,6.16,11.71,5.75,0-2.35-3-3.15-5.36-4.44-13.33-4.18A68.5,68.5,0,0,0,95.58,124S92,124.91,90.82,125.36Z"/><path class="cls-11" d="M52.71,124.4l-6.52-1.09s-2.76-3.13-5.1-3.48l1.55,0h0l2.11-.09c1.87-.13,3.28-.32,3.78-.71h.18l1.37-.07.34.71Z"/><path class="cls-13" d="M49.85,123.66a9.8,9.8,0,0,0-2.9-1.93c-1.35-.42-3.51-2.5-1.06-3.12,3.08-.79,8.69,1.18,10.2,1.14a12.2,12.2,0,0,1,6.44,2.17c2.14,1.51,4.83,3.7,6.48,3.66,0,0-.11.41-1.22.37s-17.31-1.81-17.31-1.81Z"/><path class="cls-14" d="M73.73,125.71A39.1,39.1,0,0,1,62.1,126c-12.06-1.18-18-3.15-24.32-.65s-5.46,3.21-8.68,3.21,2-3.95,8.79-5.13,23.62,2.08,25.55,2.08c1.58,0,6.88.49,11.12-.31Z"/><path class="cls-12" d="M137.25,130.09a5.67,5.67,0,0,1-2.46-.8c-2.23-1.28-5.1-7.53-5.14-7.63C133.16,124.27,136.57,127.46,137.25,130.09Z"/><path class="cls-13" d="M143.06,127.08c-.06-1.27-4.82-4.21-4-4.93s1-3.38,1-4-.8-1.38-1.6-2.21-4.94.06-5.74,0a11.63,11.63,0,0,1-2.83-1.16s-4.59,2.59-4.06,3a62.46,62.46,0,0,1,6.38,7c1.33,1.93,3,2.57,4.83,3.64s1.8-.36,1.8-.36a5.69,5.69,0,0,0,1.32.62,1,1,0,0,0,1.27-.49,1,1,0,0,0,.05-.63S143.11,128.35,143.06,127.08Zm-5.71-6.33a5.13,5.13,0,0,1-2.18-2.55c0-.52,2.46-1.06,2.89,0S137.35,120.75,137.35,120.75Z"/><path class="cls-12" d="M22.65,123.23c0,.11-2.55,7.19-6.09,9.65l-.13.08a9.56,9.56,0,0,1,.1-3.29C17,127.55,19.56,125.09,22.65,123.23Z"/><path class="cls-13" d="M8.5,131.58a1,1,0,0,0,.7,1.17,1,1,0,0,0,.62-.05,5.83,5.83,0,0,0,1.33-.58s-.13,1.43,1.79.36,3.54-1.69,4.83-3.63a61,61,0,0,1,6.39-7c.52-.37-4.07-3-4.07-3A11.63,11.63,0,0,1,17.26,120c-.8,0-4.93-.83-5.79,0S10,121.5,10,122.18s.09,3.3,1,4S7,129.87,7,131.14,8.5,131.58,8.5,131.58ZM12,122.25c.39-1.06,2.89-.51,2.89,0a5.09,5.09,0,0,1-2.18,2.55S11.59,123.33,12,122.25Z"/><path class="cls-11" d="M82.53,132.43s-19.63,8.15-41.17,9.65h0c-1.06.07-2.13.13-3.21.17H38a79.58,79.58,0,0,1-12.54-.48h0s35.2-12.65,47.47-16.22a29.42,29.42,0,0,1,3.62-.89l0,.06,3.86,5Z"/><path class="cls-13" d="M79.14,21.55s9,1.3,7.72,14.64S77.56,48.48,77,48.47s-8,.27-8.69-16C68.37,32.47,68.07,20.42,79.14,21.55Z"/><path class="cls-13" d="M83.16,46.09s-.56,6.94.77,9-1.14,4.9-6.26,3.94-4.82-3.86-4.82-3.86a21.3,21.3,0,0,0,1-7.73C73.46,44.05,83.16,46.09,83.16,46.09Z"/><path class="cls-9" d="M78.11,26.39s4.22,4.44,6.17,6.67,2.2,6.6,2.2,6.6,3.3-4,1.93-8.74-4.67-13.84-12.94-11-8.58,15.17-7.61,21.3C67.86,41.19,71.57,27.66,78.11,26.39Z"/><path class="cls-15" d="M74.55,47.86A7.87,7.87,0,0,0,82.14,47a4.87,4.87,0,0,1-3.8,2.45A3.72,3.72,0,0,1,74.55,47.86Z"/><path class="cls-10" d="M96,76.37l10.19-2.59c-.22-2.66-2.89-10.84-4-13.38s-7.66-4.62-15.18-6.76c-.06,3-.75,17.09-8.54,16.79s-8.34-13-8.34-15.91l-.18.07C60.76,58,55.89,59.19,53.77,63c-2.34,4.18-3.62,11.9-3.62,11.9l10.9,1.47c.43,1.55,1,3.08,1.54,4.83.92,3.21.91,11.58.31,16.31,0,0,15.14-6.11,30.35-1.28h0a11.93,11.93,0,0,1-.61-3.19c0-4,.87-10.62,2.5-14.12A14.57,14.57,0,0,0,96,76.37Z"/><path class="cls-16" d="M98.52,111.41l-1.18.06-41.27.61s.12-.41.32-1,.5-1.3.75-1.93l40.93-.43a3.78,3.78,0,0,1,.1.46c.14.74.23,1.23.27,1.56.1.54.1.6.1.6Z"/><path class="cls-9" d="M73.23,50.28s-12.44,11.06-9.2,18c2.75,5.89,12.54,2.28,10.9-3.86A70.39,70.39,0,0,1,73.23,50.28Z"/></svg>