<svg id="क्षमा" xmlns="http://www.w3.org/2000/svg" xmlns:xlink="http://www.w3.org/1999/xlink" viewBox="0 0 150 160"><defs><style>.cls-1{fill:none;}.cls-2{clip-path:url(#clip-path);}.cls-3{fill:#fff;stroke:#fff;stroke-miterlimit:10;stroke-width:5px;}.cls-4{fill:#99999a;}.cls-5{fill:#673935;}.cls-6{fill:#f3e3d8;}.cls-7{fill:#f49a86;}.cls-8{fill:#e78773;}.cls-9{fill:#f7a997;}.cls-10{fill:#242424;}.cls-11{fill:#964f44;}.cls-12{fill:#dd7b6b;}.cls-13{fill:#f16449;}.cls-14{fill:#f9f1ed;}</style><clipPath id="clip-path"><circle class="cls-1" cx="76.15" cy="83.2" r="72.37"/></clipPath></defs><g class="cls-2"><path class="cls-3" d="M102.29,137.72c7.11,15.24,5.55,42.72,4.59,66.69-.9,22.57-8.1,117.31-9.76,118.53s-11.66,2.28-13.6.15c-1.15-1.26-2.68-17.64-2.88-27.28s-1.51-46.07-2.51-65.72S76.85,200.64,76.2,203s-1.51,49.13-1.51,59.74.4,53.87.52,58.85S60.73,323,58.91,323,45.29,205.91,46.12,181s4.26-37.44,10.82-45.51S98.89,130.43,102.29,137.72Z"/><path class="cls-3" d="M76.63,202a.17.17,0,0,1-.17-.15c-2.13-17.58-2.82-56.91-2.82-57.31a.17.17,0,0,1,.16-.17.17.17,0,0,1,.17.17c0,.39.69,39.71,2.82,57.27a.16.16,0,0,1-.14.18Z"/><path class="cls-3" d="M73.74,173.91a4.88,4.88,0,0,1-3.23-1.26,4.94,4.94,0,0,1-1.34-3.73c0-4.91.47-13.8,1-23.26a.15.15,0,0,1,.17-.15.15.15,0,0,1,.16.17c-.51,9.45-1,18.34-1,23.25a4.17,4.17,0,0,0,4.3,4.65.17.17,0,1,1,0,.33Z"/><path class="cls-3" d="M56.56,67.75C49.43,69,45.84,70.34,41.35,76.46s-13.6,35.72-15.56,40.22,2.31,15.55,4.84,16.82S50.91,128,50.91,128s-2.15,22.31-2.61,29.11,24.85,10.53,25.89,10.41,2.88-13.25,2.88-13.25,2.9,11.41,4.45,13.26,26-5.7,26.21-6.11c1.45-2.46-4.62-38.14-4.62-37.22s10.26,6.45,12.33,6.91,10.6.35,11.64-.11,1.73-10.9,1.61-13.23-15-42.52-18.2-45.07-5.3-3.09-12.22-4.92S57.93,67.5,56.56,67.75Z"/><path class="cls-3" d="M68,58.88c.28,4.68.11,11,0,12.86s8.73,8.18,10.53,9.1S87.56,73.7,88,71.51,86.29,66.44,86.63,61,67.88,57.44,68,58.88Z"/><path class="cls-3" d="M65.39,55.25c4.94,14.61,10.33,18,13.35,18.39s7.57-6.5,9-13S64.33,52.1,65.39,55.25Z"/><path class="cls-3" d="M65.47,57.3c3.69,8.91,10.22,10.1,13.06,10.43s7.14-3.32,11.22-8.18,3.45-15,1.3-22.69S83,24.72,79,24.57,63,34.78,61.25,40.63C58.33,50.47,65.47,57.3,65.47,57.3Z"/><path class="cls-3" d="M68.52,49.73c.29.11.53.25.78.37s.49.24.74.31a4.24,4.24,0,0,0,1.46.28,5.87,5.87,0,0,0,3-1,3.25,3.25,0,0,1-3,1.88,3.24,3.24,0,0,1-1.78-.56,3.91,3.91,0,0,1-.69-.59A6,6,0,0,1,68.52,49.73Z"/><path class="cls-3" d="M81.28,49.9a10.65,10.65,0,0,0,1.45.6,3.63,3.63,0,0,0,1.38.16,8.32,8.32,0,0,0,2.87-.9A3.26,3.26,0,0,1,85.84,51a3.54,3.54,0,0,1-1.67.57,3,3,0,0,1-2.89-1.68Z"/><path class="cls-3" d="M81.77,43c1.36,2.5,6,2.48,7,2.35s-.88.93-3.35.72c-3.36-.29-4.68-1.1-4.79-2.43C80.51,42.51,81.5,42.46,81.77,43Z"/><path class="cls-3" d="M74.27,43c-1.35,2.5-6,2.48-7,2.35s.89.93,3.36.72c3.36-.29,4.68-1.1,4.79-2.43C75.54,42.51,74.55,42.46,74.27,43Z"/><path class="cls-3" d="M78.1,56.38a4.56,4.56,0,0,1-1.83-.25l-.07-.08.06-.1a.14.14,0,0,1,.19,0c.33.13,2.51.4,3.15-.08a.32.32,0,0,0,.14-.35,10.28,10.28,0,0,0-.5-1.63,16,16,0,0,1-1.08-5.15.14.14,0,1,1,.27,0,15.78,15.78,0,0,0,1.07,5.06A10.87,10.87,0,0,1,80,55.43a.64.64,0,0,1-.43.73A3.7,3.7,0,0,1,78.1,56.38Z"/><path class="cls-3" d="M74.87,60.21a3,3,0,0,1,1.44-1.36,4.23,4.23,0,0,1,2-.42,4.7,4.7,0,0,1,2,.46,3,3,0,0,1,1.47,1.32A6.49,6.49,0,0,0,80,59.57a8,8,0,0,0-1.74-.22A6.18,6.18,0,0,0,74.87,60.21Z"/><path class="cls-3" d="M83.7,30a6.06,6.06,0,0,1-1.85,3.17c-2.11,1.68-4.25.21-7.83,1.61a8.67,8.67,0,0,0-4.67,3.69c-1.12,2.1,0,3-1.32,5.53-.52,1-1.58,3.07-3.63,3.74-1.1.36-2,.15-2.37.81s.19,2,.41,2.36c.63,1.16,2.13,1.42,2.13,2a71.62,71.62,0,0,0,3.6,8.79c.69,1.21-.32,6.13-1.07,8s-15.78,1.9-18.89-.6,2.69-8.74,5.7-22.9c2.76-13,4.38-18,8.07-22.85s10.36-6.77,14.4-6.77a13.41,13.41,0,0,1,7.32,2.54s2.59-.92,6,1.84,7.26,8.24,6.91,18c-.1,2.82,1.66,12.66,5.3,20,2.61,5.25,2.69,7.25.73,9.21S90.4,69.26,89.25,69.15s-3.88-4.41-2.73-6.26a29.24,29.24,0,0,0,3.92-10.42c1.12-6.24.23-7.7-2.77-10.92s-2-6.23-2.65-8.3S83.93,29.18,83.7,30Z"/><path class="cls-3" d="M48.3,110.46a.12.12,0,0,1-.11-.09,62.16,62.16,0,0,1-1-15.71.13.13,0,0,1,.12-.11.12.12,0,0,1,.11.13,62.48,62.48,0,0,0,1,15.64.11.11,0,0,1-.08.14Z"/><path class="cls-3" d="M27,121.48c-.1,0-.13-.1-.1-.16a12.65,12.65,0,0,1,5.58-5.9A50.78,50.78,0,0,1,42,112.26c1.43-.37,2.9-.76,4.54-1.22,5.87-1.67,7.83-2.49,12.33-5.17a.13.13,0,0,1,.16,0,.12.12,0,0,1,0,.16c-4.52,2.69-6.49,3.51-12.39,5.19-1.64.46-3.11.85-4.54,1.23a49.78,49.78,0,0,0-9.49,3.14,12.46,12.46,0,0,0-5.48,5.78A.12.12,0,0,1,27,121.48Z"/><path class="cls-3" d="M50.91,128.09a.12.12,0,0,1-.09-.05.11.11,0,0,1,0-.16C56.42,123.65,66,113.67,66.13,113a29,29,0,0,0-3.35-3.44.11.11,0,0,1,0-.16.12.12,0,0,1,.17,0c.33.31,3.29,3.06,3.41,3.58.16.67-10.11,11.13-15.37,15.11A.09.09,0,0,1,50.91,128.09Z"/><path class="cls-3" d="M68.16,65.59a7.59,7.59,0,0,0-1.92,5.69c.23.84,6,11.29,6.53,11.37a52.31,52.31,0,0,0,5.73-1.81,33.8,33.8,0,0,0,4.63,2.42c1,.23,8.15-12.63,7.46-14.11s-4-4.39-4.11-3.78a8.45,8.45,0,0,1-1.57,6.29C82.6,75,79.13,79,78.52,78.81s-6.9-6.46-7.9-8.38S68.16,65.59,68.16,65.59Z"/><path class="cls-3" d="M77.07,154.36a.12.12,0,0,1-.12-.12c0-.56.76-56.41,2-72.93a.11.11,0,0,1,.12-.1.12.12,0,0,1,.11.12c-1.19,16.51-1.94,72.35-1.95,72.91A.11.11,0,0,1,77.07,154.36Z"/><path class="cls-3" d="M78.78,70.75c-.23-2.6-.55-2-.9-1.86s-.43,3-1.13,4.17S75,79.81,74.5,81.55s-.93,6.55-1.25,8.93-1.29,5.3-2.44,6.33-6.69,6.39-11.12,8.61,4.24,8.58,6,7.42,4.33-5.88,6-6.75S76,105,76.75,103.47s1-2.32,1.06-5.44.64-7.78.54-10.6S78.78,70.75,78.78,70.75Z"/><path class="cls-3" d="M76.17,104.09a.11.11,0,0,1-.11-.12.11.11,0,0,1,.11-.11c.16,0,1.57-1.18,1.53-5s.35-8.55.48-10.13c.07-.89,0-2.06,0-3.43s-.06-2.65,0-4c.07-2.26.12-3.75-.24-4.13a.33.33,0,0,0-.23-.09c-.3,0-.61,2-.86,3.62a46,46,0,0,1-.95,5,.11.11,0,0,1-.14.08.11.11,0,0,1-.08-.14,48,48,0,0,0,.94-4.94c.4-2.58.61-3.82,1.09-3.82a.5.5,0,0,1,.39.16c.44.45.39,1.82.31,4.3,0,1.37,0,2.77,0,4s.06,2.55,0,3.45c-.13,1.58-.53,6.37-.48,10.11,0,3.27-1,4.59-1.33,4.92A.78.78,0,0,1,76.17,104.09Z"/><path class="cls-3" d="M75.14,83.94a.11.11,0,0,1-.11-.13c.3-1.67.75-3.55,1.11-5.07.27-1.13.5-2.1.59-2.67.19-1.14.58-3.11,1.07-3.48a.28.28,0,0,1,.31-.06c.26.12.3.67.34,1.57v.21c.05.83-.15,3-.15,3.13a.12.12,0,0,1-.13.1.11.11,0,0,1-.1-.12s.19-2.28.15-3.1v-.21c0-.46-.06-1.3-.21-1.37a.09.09,0,0,0-.06,0c-.31.23-.68,1.51-1,3.33-.1.58-.33,1.56-.6,2.7-.36,1.51-.81,3.39-1.1,5A.12.12,0,0,1,75.14,83.94Z"/><path class="cls-3" d="M78.27,76.57c-.08,0-.13-.06-.12-.13s.32-2.67.45-4.32c.1-1.34.16-2.79-.37-3.14a.11.11,0,0,1,0-.16.12.12,0,0,1,.16,0c.58.38.61,1.51.47,3.35-.13,1.66-.45,4.3-.45,4.33A.12.12,0,0,1,78.27,76.57Z"/><path class="cls-3" d="M78.52,70.75c.23-2.6.56-2,.91-1.86s.42,3,1.13,4.17,1.79,6.75,2.24,8.49.93,6.55,1.26,8.93.84,6.1,2,7.13a74.16,74.16,0,0,0,11.57,7.81c4.43,2.22-4.25,8.58-6,7.42s-6.12-6.65-7.66-7.74-2.38-.4-3.66-1.55c-1.6-1.45-2.08-1.89-2.16-5s.7-8.29.79-11.11S78.52,70.75,78.52,70.75Z"/><path class="cls-3" d="M81.13,104.09a3.24,3.24,0,0,1-1.48-1,5.74,5.74,0,0,1-1.6-4.26,56.6,56.6,0,0,1,.52-6,26.71,26.71,0,0,0,.33-4.1c-.08-.9-.05-2.08,0-3.45s.06-2.65,0-4c-.09-2.48-.13-3.85.3-4.3a.53.53,0,0,1,.39-.16c.49,0,.7,1.24,1.09,3.82a45.42,45.42,0,0,0,.95,4.94.11.11,0,0,1-.08.14.11.11,0,0,1-.14-.08,41.59,41.59,0,0,1-1-5c-.25-1.61-.56-3.62-.87-3.62a.29.29,0,0,0-.22.09c-.37.38-.32,1.87-.24,4.13,0,1.38,0,2.79,0,4s-.06,2.54,0,3.43a27.26,27.26,0,0,1-.33,4.15,59,59,0,0,0-.52,5.94,5.09,5.09,0,0,0,2.85,5,.12.12,0,0,1,.12.12A.12.12,0,0,1,81.13,104.09Z"/><path class="cls-3" d="M82.16,83.94a.12.12,0,0,1-.11-.09c-.3-1.66-.75-3.54-1.11-5-.27-1.14-.5-2.12-.6-2.7a8.08,8.08,0,0,0-1-3.33.11.11,0,0,0-.07,0c-.15.07-.19.91-.21,1.36v.22c0,.82.16,3.07.16,3.1a.11.11,0,0,1-.11.12.11.11,0,0,1-.12-.1c0-.1-.2-2.3-.16-3.13v-.22c0-.89.09-1.44.35-1.56a.26.26,0,0,1,.3.06c.49.37.88,2.34,1.07,3.48.1.57.33,1.54.6,2.67.36,1.52.81,3.4,1.1,5.07a.11.11,0,0,1-.09.13Z"/><path class="cls-3" d="M79,76.57a.12.12,0,0,1-.12-.1s-.31-2.67-.44-4.33c-.14-1.84-.11-3,.47-3.35a.12.12,0,0,1,.16,0,.11.11,0,0,1,0,.16c-.53.35-.46,1.8-.36,3.14.13,1.65.44,4.3.44,4.32a.11.11,0,0,1-.1.13Z"/><path class="cls-3" d="M103.11,124.28l-.07,0c-.47-.38-11.59-9.34-11.61-11.2a.37.37,0,0,1,.14-.31.11.11,0,0,1,.14.18.16.16,0,0,0,0,.13c0,1.45,8.32,8.44,11.52,11a.11.11,0,0,1,0,.16A.1.1,0,0,1,103.11,124.28Z"/><path class="cls-3" d="M126.93,122.78a.13.13,0,0,1-.11-.06,16.85,16.85,0,0,0-2.89-3.92c-1.4-1.3-3.74-3-10.49-5.71-3.25-1.31-6.67-3.07-9.68-4.63a51.78,51.78,0,0,0-6.18-2.93.12.12,0,0,1-.07-.15.1.1,0,0,1,.14-.07,53,53,0,0,1,6.21,2.94c3,1.56,6.42,3.32,9.67,4.62,5.4,2.17,8.55,3.89,10.56,5.76a16.94,16.94,0,0,1,2.94,4,.11.11,0,0,1,0,.15Z"/><path class="cls-3" d="M106,109.57a.12.12,0,0,1-.12-.12c0-.12.92-12.12.39-17.5a.11.11,0,0,1,.11-.12.11.11,0,0,1,.12.1c.54,5.4-.38,17.41-.39,17.53A.1.1,0,0,1,106,109.57Z"/><path class="cls-4" d="M102.29,137.72c7.11,15.24,5.55,42.72,4.59,66.69-.9,22.57-8.1,117.31-9.76,118.53s-11.66,2.28-13.6.15c-1.15-1.26-2.68-17.64-2.88-27.28s-1.51-46.07-2.51-65.72S76.85,200.64,76.2,203s-1.51,49.13-1.51,59.74.4,53.87.52,58.85S60.73,323,58.91,323,45.29,205.91,46.12,181s4.26-37.44,10.82-45.51S98.89,130.43,102.29,137.72Z"/><path class="cls-5" d="M76.63,202a.17.17,0,0,1-.17-.15c-2.13-17.58-2.82-56.91-2.82-57.31a.17.17,0,0,1,.16-.17.17.17,0,0,1,.17.17c0,.39.69,39.71,2.82,57.27a.16.16,0,0,1-.14.18Z"/><path class="cls-5" d="M73.74,173.91a4.88,4.88,0,0,1-3.23-1.26,4.94,4.94,0,0,1-1.34-3.73c0-4.91.47-13.8,1-23.26a.15.15,0,0,1,.17-.15.15.15,0,0,1,.16.17c-.51,9.45-1,18.34-1,23.25a4.17,4.17,0,0,0,4.3,4.65.17.17,0,1,1,0,.33Z"/><path class="cls-6" d="M56.56,67.75C49.43,69,45.84,70.34,41.35,76.46s-13.6,35.72-15.56,40.22,2.31,15.55,4.84,16.82S50.91,128,50.91,128s-2.15,22.31-2.61,29.11,24.85,10.53,25.89,10.41,2.88-13.25,2.88-13.25,2.9,11.41,4.45,13.26,26-5.7,26.21-6.11c1.45-2.46-4.62-38.14-4.62-37.22s10.26,6.45,12.33,6.91,10.6.35,11.64-.11,1.73-10.9,1.61-13.23-15-42.52-18.2-45.07-5.3-3.09-12.22-4.92S57.93,67.5,56.56,67.75Z"/><path class="cls-7" d="M68,58.88c.28,4.68.11,11,0,12.86s8.73,8.18,10.53,9.1S87.56,73.7,88,71.51,86.29,66.44,86.63,61,67.88,57.44,68,58.88Z"/><path class="cls-8" d="M65.39,55.25c4.94,14.61,10.33,18,13.35,18.39s7.57-6.5,9-13S64.33,52.1,65.39,55.25Z"/><path class="cls-9" d="M65.47,57.3c3.69,8.91,10.22,10.1,13.06,10.43s7.14-3.32,11.22-8.18,3.45-15,1.3-22.69S83,24.72,79,24.57,63,34.78,61.25,40.63C58.33,50.47,65.47,57.3,65.47,57.3Z"/><path class="cls-10" d="M68.52,49.73c.29.11.53.25.78.37s.49.24.74.31a4.24,4.24,0,0,0,1.46.28,5.87,5.87,0,0,0,3-1,3.25,3.25,0,0,1-3,1.88,3.24,3.24,0,0,1-1.78-.56,3.91,3.91,0,0,1-.69-.59A6,6,0,0,1,68.52,49.73Z"/><path class="cls-10" d="M81.28,49.9a10.65,10.65,0,0,0,1.45.6,3.63,3.63,0,0,0,1.38.16,8.32,8.32,0,0,0,2.87-.9A3.26,3.26,0,0,1,85.84,51a3.54,3.54,0,0,1-1.67.57,3,3,0,0,1-2.89-1.68Z"/><path class="cls-11" d="M81.77,43c1.36,2.5,6,2.48,7,2.35s-.88.93-3.35.72c-3.36-.29-4.68-1.1-4.79-2.43C80.51,42.51,81.5,42.46,81.77,43Z"/><path class="cls-11" d="M74.27,43c-1.35,2.5-6,2.48-7,2.35s.89.93,3.36.72c3.36-.29,4.68-1.1,4.79-2.43C75.54,42.51,74.55,42.46,74.27,43Z"/><path class="cls-12" d="M78.1,56.38a4.56,4.56,0,0,1-1.83-.25l-.07-.08.06-.1a.14.14,0,0,1,.19,0c.33.13,2.51.4,3.15-.08a.32.32,0,0,0,.14-.35,10.28,10.28,0,0,0-.5-1.63,16,16,0,0,1-1.08-5.15.14.14,0,1,1,.27,0,15.78,15.78,0,0,0,1.07,5.06A10.87,10.87,0,0,1,80,55.43a.64.64,0,0,1-.43.73A3.7,3.7,0,0,1,78.1,56.38Z"/><path class="cls-13" d="M74.87,60.21a3,3,0,0,1,1.44-1.36,4.23,4.23,0,0,1,2-.42,4.7,4.7,0,0,1,2,.46,3,3,0,0,1,1.47,1.32A6.49,6.49,0,0,0,80,59.57a8,8,0,0,0-1.74-.22A6.18,6.18,0,0,0,74.87,60.21Z"/><path class="cls-11" d="M83.7,30a6.06,6.06,0,0,1-1.85,3.17c-2.11,1.68-4.25.21-7.83,1.61a8.67,8.67,0,0,0-4.67,3.69c-1.12,2.1,0,3-1.32,5.53-.52,1-1.58,3.07-3.63,3.74-1.1.36-2,.15-2.37.81s.19,2,.41,2.36c.63,1.16,2.13,1.42,2.13,2a71.62,71.62,0,0,0,3.6,8.79c.69,1.21-.32,6.13-1.07,8s-15.78,1.9-18.89-.6,2.69-8.74,5.7-22.9c2.76-13,4.38-18,8.07-22.85s10.36-6.77,14.4-6.77a13.41,13.41,0,0,1,7.32,2.54s2.59-.92,6,1.84,7.26,8.24,6.91,18c-.1,2.82,1.66,12.66,5.3,20,2.61,5.25,2.69,7.25.73,9.21S90.4,69.26,89.25,69.15s-3.88-4.41-2.73-6.26a29.24,29.24,0,0,0,3.92-10.42c1.12-6.24.23-7.7-2.77-10.92s-2-6.23-2.65-8.3S83.93,29.18,83.7,30Z"/><path class="cls-4" d="M48.3,110.46a.12.12,0,0,1-.11-.09,62.16,62.16,0,0,1-1-15.71.13.13,0,0,1,.12-.11.12.12,0,0,1,.11.13,62.48,62.48,0,0,0,1,15.64.11.11,0,0,1-.08.14Z"/><path class="cls-4" d="M27,121.48c-.1,0-.13-.1-.1-.16a12.65,12.65,0,0,1,5.58-5.9A50.78,50.78,0,0,1,42,112.26c1.43-.37,2.9-.76,4.54-1.22,5.87-1.67,7.83-2.49,12.33-5.17a.13.13,0,0,1,.16,0,.12.12,0,0,1,0,.16c-4.52,2.69-6.49,3.51-12.39,5.19-1.64.46-3.11.85-4.54,1.23a49.78,49.78,0,0,0-9.49,3.14,12.46,12.46,0,0,0-5.48,5.78A.12.12,0,0,1,27,121.48Z"/><path class="cls-4" d="M50.91,128.09a.12.12,0,0,1-.09-.05.11.11,0,0,1,0-.16C56.42,123.65,66,113.67,66.13,113a29,29,0,0,0-3.35-3.44.11.11,0,0,1,0-.16.12.12,0,0,1,.17,0c.33.31,3.29,3.06,3.41,3.58.16.67-10.11,11.13-15.37,15.11A.09.09,0,0,1,50.91,128.09Z"/><path class="cls-14" d="M68.16,65.59a7.59,7.59,0,0,0-1.92,5.69c.23.84,6,11.29,6.53,11.37a52.31,52.31,0,0,0,5.73-1.81,33.8,33.8,0,0,0,4.63,2.42c1,.23,8.15-12.63,7.46-14.11s-4-4.39-4.11-3.78a8.45,8.45,0,0,1-1.57,6.29C82.6,75,79.13,79,78.52,78.81s-6.9-6.46-7.9-8.38S68.16,65.59,68.16,65.59Z"/><path class="cls-4" d="M77.07,154.36a.12.12,0,0,1-.12-.12c0-.56.76-56.41,2-72.93a.11.11,0,0,1,.12-.1.12.12,0,0,1,.11.12c-1.19,16.51-1.94,72.35-1.95,72.91A.11.11,0,0,1,77.07,154.36Z"/><path class="cls-9" d="M78.78,70.75c-.23-2.6-.55-2-.9-1.86s-.43,3-1.13,4.17S75,79.81,74.5,81.55s-.93,6.55-1.25,8.93-1.29,5.3-2.44,6.33-6.69,6.39-11.12,8.61,4.24,8.58,6,7.42,4.33-5.88,6-6.75S76,105,76.75,103.47s1-2.32,1.06-5.44.64-7.78.54-10.6S78.78,70.75,78.78,70.75Z"/><path class="cls-12" d="M76.17,104.09a.11.11,0,0,1-.11-.12.11.11,0,0,1,.11-.11c.16,0,1.57-1.18,1.53-5s.35-8.55.48-10.13c.07-.89,0-2.06,0-3.43s-.06-2.65,0-4c.07-2.26.12-3.75-.24-4.13a.33.33,0,0,0-.23-.09c-.3,0-.61,2-.86,3.62a46,46,0,0,1-.95,5,.11.11,0,0,1-.14.08.11.11,0,0,1-.08-.14,48,48,0,0,0,.94-4.94c.4-2.58.61-3.82,1.09-3.82a.5.5,0,0,1,.39.16c.44.45.39,1.82.31,4.3,0,1.37,0,2.77,0,4s.06,2.55,0,3.45c-.13,1.58-.53,6.37-.48,10.11,0,3.27-1,4.59-1.33,4.92A.78.78,0,0,1,76.17,104.09Z"/><path class="cls-12" d="M75.14,83.94a.11.11,0,0,1-.11-.13c.3-1.67.75-3.55,1.11-5.07.27-1.13.5-2.1.59-2.67.19-1.14.58-3.11,1.07-3.48a.28.28,0,0,1,.31-.06c.26.12.3.67.34,1.57v.21c.05.83-.15,3-.15,3.13a.12.12,0,0,1-.13.1.11.11,0,0,1-.1-.12s.19-2.28.15-3.1v-.21c0-.46-.06-1.3-.21-1.37a.09.09,0,0,0-.06,0c-.31.23-.68,1.51-1,3.33-.1.58-.33,1.56-.6,2.7-.36,1.51-.81,3.39-1.1,5A.12.12,0,0,1,75.14,83.94Z"/><path class="cls-12" d="M78.27,76.57c-.08,0-.13-.06-.12-.13s.32-2.67.45-4.32c.1-1.34.16-2.79-.37-3.14a.11.11,0,0,1,0-.16.12.12,0,0,1,.16,0c.58.38.61,1.51.47,3.35-.13,1.66-.45,4.3-.45,4.33A.12.12,0,0,1,78.27,76.57Z"/><path class="cls-9" d="M78.52,70.75c.23-2.6.56-2,.91-1.86s.42,3,1.13,4.17,1.79,6.75,2.24,8.49.93,6.55,1.26,8.93.84,6.1,2,7.13a74.16,74.16,0,0,0,11.57,7.81c4.43,2.22-4.25,8.58-6,7.42s-6.12-6.65-7.66-7.74-2.38-.4-3.66-1.55c-1.6-1.45-2.08-1.89-2.16-5s.7-8.29.79-11.11S78.52,70.75,78.52,70.75Z"/><path class="cls-12" d="M81.13,104.09a3.24,3.24,0,0,1-1.48-1,5.74,5.74,0,0,1-1.6-4.26,56.6,56.6,0,0,1,.52-6,26.71,26.71,0,0,0,.33-4.1c-.08-.9-.05-2.08,0-3.45s.06-2.65,0-4c-.09-2.48-.13-3.85.3-4.3a.53.53,0,0,1,.39-.16c.49,0,.7,1.24,1.09,3.82a45.42,45.42,0,0,0,.95,4.94.11.11,0,0,1-.08.14.11.11,0,0,1-.14-.08,41.59,41.59,0,0,1-1-5c-.25-1.61-.56-3.62-.87-3.62a.29.29,0,0,0-.22.09c-.37.38-.32,1.87-.24,4.13,0,1.38,0,2.79,0,4s-.06,2.54,0,3.43a27.26,27.26,0,0,1-.33,4.15,59,59,0,0,0-.52,5.94,5.09,5.09,0,0,0,2.85,5,.12.12,0,0,1,.12.12A.12.12,0,0,1,81.13,104.09Z"/><path class="cls-12" d="M82.16,83.94a.12.12,0,0,1-.11-.09c-.3-1.66-.75-3.54-1.11-5-.27-1.14-.5-2.12-.6-2.7a8.08,8.08,0,0,0-1-3.33.11.11,0,0,0-.07,0c-.15.07-.19.91-.21,1.36v.22c0,.82.16,3.07.16,3.1a.11.11,0,0,1-.11.12.11.11,0,0,1-.12-.1c0-.1-.2-2.3-.16-3.13v-.22c0-.89.09-1.44.35-1.56a.26.26,0,0,1,.3.06c.49.37.88,2.34,1.07,3.48.1.57.33,1.54.6,2.67.36,1.52.81,3.4,1.1,5.07a.11.11,0,0,1-.09.13Z"/><path class="cls-12" d="M79,76.57a.12.12,0,0,1-.12-.1s-.31-2.67-.44-4.33c-.14-1.84-.11-3,.47-3.35a.12.12,0,0,1,.16,0,.11.11,0,0,1,0,.16c-.53.35-.46,1.8-.36,3.14.13,1.65.44,4.3.44,4.32a.11.11,0,0,1-.1.13Z"/><path class="cls-4" d="M103.11,124.28l-.07,0c-.47-.38-11.59-9.34-11.61-11.2a.37.37,0,0,1,.14-.31.11.11,0,0,1,.14.18.16.16,0,0,0,0,.13c0,1.45,8.32,8.44,11.52,11a.11.11,0,0,1,0,.16A.1.1,0,0,1,103.11,124.28Z"/><path class="cls-4" d="M126.93,122.78a.13.13,0,0,1-.11-.06,16.85,16.85,0,0,0-2.89-3.92c-1.4-1.3-3.74-3-10.49-5.71-3.25-1.31-6.67-3.07-9.68-4.63a51.78,51.78,0,0,0-6.18-2.93.12.12,0,0,1-.07-.15.1.1,0,0,1,.14-.07,53,53,0,0,1,6.21,2.94c3,1.56,6.42,3.32,9.67,4.62,5.4,2.17,8.55,3.89,10.56,5.76a16.94,16.94,0,0,1,2.94,4,.11.11,0,0,1,0,.15Z"/><path class="cls-4" d="M106,109.57a.12.12,0,0,1-.12-.12c0-.12.92-12.12.39-17.5a.11.11,0,0,1,.11-.12.11.11,0,0,1,.12.1c.54,5.4-.38,17.41-.39,17.53A.1.1,0,0,1,106,109.57Z"/></g></svg>