<svg xmlns="http://www.w3.org/2000/svg" viewBox="0 0 150 160"><defs><style>.cls-1{isolation:isolate;}.cls-2{fill:#fff;stroke:#fff;stroke-miterlimit:10;stroke-width:5px;}.cls-3{fill:#778942;}.cls-4{fill:#3d5e2a;}.cls-5{fill:#839749;}.cls-6{fill:#a43936;}.cls-7{fill:#c8c8c8;}.cls-8{fill:#a7c05d;}.cls-9{fill:#54602f;}.cls-10{fill:gray;}.cls-11{fill:#692423;}.cls-12,.cls-21{fill:#b3b3b3;}.cls-12,.cls-20{mix-blend-mode:multiply;}.cls-13{fill:#626f3e;}.cls-14{fill:#466b30;}.cls-15{fill:#aec46e;}.cls-16{fill:#bd413e;}.cls-17{fill:#e6e6e6;}.cls-18{fill:#8d9f59;}.cls-19{fill:#bbb;}</style></defs><g class="cls-1"><g id="рдзрди"><path class="cls-2" d="M130.62,83.87l-.63-.2,1.13-.68-.57-10.61-19.14-6L99.15,58.53,98.64,49l-27.3-8.59L71,40.6l-9.69-6.19-19.92,11L39.22,54l4.64,3-3.42,2,.09,0-20.7,12.5.57,10.62.73.23-2.32,1.4.57,10.61.63.2-1.13.68.57,10.62,27.3,8.58,5.33-3.21.3,5.76,27.3,8.59,21.78-13.15-.57-10.62h0l.57,10.62,2.1-1.27,8.75-5.28v0l2.1-1.3,16.78-10.13ZM68,91.9ZM97.85,65.54h0l.11.06h0ZM65.7,45.36Zm-2-.32a6.24,6.24,0,0,0-1.07.05A6.24,6.24,0,0,1,63.68,45Zm-5.49,4.85ZM46.34,66.11a9.46,9.46,0,0,0-5.41.94h0A9.46,9.46,0,0,1,46.34,66.11Zm24.76-24Zm-3.85,2.33Zm-1.51-.63a11.44,11.44,0,0,1-1.15-.61l-6-3.83,6,3.82a11.52,11.52,0,0,0,1.15.62ZM56,47.91a8.82,8.82,0,0,1,1.19.9,8.82,8.82,0,0,0-1.19-.9l-6-3.82ZM29.91,72.27l5.21,1.64h0l-5.21-1.64Zm48.62,41.52,0,0h0l0,0ZM127.8,72.5l-13.31-4.18h0ZM95.88,49.13h0L73.24,42h0ZM61.31,35.85l8.55,5.45h0l-8.55-5.45L43.83,45.49l9.29,5.92h0l-9.29-5.92ZM21.68,95.1l0,0h0l0,0Z"/><polygon class="cls-3" points="46.18 103.84 46.75 114.45 19.45 105.86 18.88 95.25 46.18 103.84"/><path class="cls-4" d="M67.83,74a9.67,9.67,0,0,1,6.94-.64c2.14.67,2.49,2,.79,3.07a9.7,9.7,0,0,1-7,.65C66.47,76.38,66.13,75,67.83,74Z"/><path class="cls-4" d="M71,65.33l24,7.54L79.23,82.34l-3.47-1.09,4.17-2.52c-.56-1.16,0-2.47,1.83-3.57l5.47-3.3-11.77-3.7L70,71.46a15.87,15.87,0,0,1-7,1.87l-4.24,2.56-3.47-1.1Z"/><path class="cls-5" d="M75.46,68.16l11.77,3.7-5.47,3.3c-1.81,1.1-2.39,2.41-1.83,3.57l-4.17,2.52-17-5.36L63,73.33a16,16,0,0,0,7-1.86Zm.09,8.25c1.71-1,1.36-2.41-.78-3.08a9.67,9.67,0,0,0-6.94.64c-1.7,1-1.36,2.41.78,3.08a9.72,9.72,0,0,0,6.94-.64Z"/><polygon class="cls-6" points="53.63 74.27 55.3 74.79 58.78 75.89 75.76 81.25 79.23 82.34 80.91 82.87 80.4 83.18 78.81 84.14 51.54 75.53 53.12 74.57 53.57 74.3 53.63 74.27"/><path class="cls-5" d="M35.55,92c1.66-1,2.27-2.19,1.93-3.28l8.35-5,.48.16c.2,1.55,2.06,3.1,5.34,4.13a26.75,26.75,0,0,0,10.65.91l.51.16-8.24,5a15.66,15.66,0,0,0-6.74,1.85l-6.6,4L29,96Zm11.37-1.88a9.66,9.66,0,0,0-6.94.64c-1.71,1-1.36,2.41.77,3.08a9.74,9.74,0,0,0,7-.64c1.7-1,1.36-2.41-.78-3.08Z"/><path class="cls-4" d="M46.31,83.87l16,5A26.75,26.75,0,0,1,51.65,88C48.37,87,46.51,85.42,46.31,83.87Z"/><polygon class="cls-6" points="42.78 80.82 70.05 89.43 67.95 90.69 40.68 82.09 42.78 80.82"/><polygon class="cls-7" points="51.54 75.53 78.81 84.14 80.4 83.18 70.05 89.43 42.78 80.82 40.68 82.09 51.54 75.53"/><path class="cls-4" d="M40,90.79a9.7,9.7,0,0,1,7-.64c2.14.67,2.48,2,.78,3.07a9.69,9.69,0,0,1-7,.65C38.62,93.2,38.27,91.82,40,90.79Z"/><path class="cls-4" d="M45.59,102.66l-24-7.53L42.35,82.62l3.48,1.09-8.35,5c.34,1.09-.27,2.27-1.93,3.28L29,96l12.28,3.86,6.6-4A15.66,15.66,0,0,1,54.57,94l8.24-5,3.47,1.09Z"/><polygon class="cls-8" points="70.38 64.15 97.68 72.74 80.91 82.87 79.23 82.34 94.92 72.87 70.97 65.33 55.3 74.79 53.63 74.27 53.12 74.57 51.54 75.53 40.68 82.09 42.35 82.61 21.64 95.13 45.59 102.66 66.28 90.17 67.95 90.69 46.18 103.84 18.88 95.25 70.38 64.15"/><polygon class="cls-9" points="97.68 72.74 98.25 83.35 81.47 93.48 80.91 82.87 97.68 72.74"/><polygon class="cls-10" points="80.4 83.18 80.97 93.79 70.62 100.04 70.05 89.43 80.4 83.18"/><polygon class="cls-11" points="80.91 82.87 81.47 93.48 79.37 94.75 78.81 84.14 80.91 82.87"/><polygon class="cls-11" points="70.05 89.43 70.62 100.04 68.52 101.31 67.95 90.69 70.05 89.43"/><polygon class="cls-9" points="67.95 90.69 68.52 101.31 46.75 114.45 46.18 103.84 67.95 90.69"/><path class="cls-4" d="M100.77,85.1a9.72,9.72,0,0,1,6.94-.64c2.14.67,2.49,2.05.78,3.07a9.66,9.66,0,0,1-6.94.65C99.41,87.51,99.06,86.13,100.77,85.1Z"/><path class="cls-5" d="M108.4,79.29,120.16,83l-5.46,3.3c-1.81,1.1-2.39,2.41-1.83,3.57l-4.17,2.52L91.72,87,96,84.46a16,16,0,0,0,7-1.86Zm.09,8.25c1.71-1,1.36-2.41-.78-3.08a9.72,9.72,0,0,0-6.94.64c-1.71,1-1.36,2.41.78,3.08a9.72,9.72,0,0,0,6.94-.64Z"/><path class="cls-4" d="M103.91,76.46l24,7.54-15.69,9.47-3.47-1.09,4.17-2.52c-.56-1.16,0-2.47,1.83-3.57l5.46-3.3-11.76-3.7-5.47,3.3a15.9,15.9,0,0,1-7,1.87L91.72,87l-3.48-1.1Z"/><polygon class="cls-5" points="103.32 75.28 130.62 83.87 113.84 94 112.17 93.47 127.86 84 103.91 76.46 88.24 85.92 86.57 85.4 103.32 75.28"/><polygon class="cls-6" points="86.57 85.4 88.24 85.92 91.72 87.02 108.7 92.38 112.17 93.47 113.84 94 113.33 94.31 111.75 95.27 84.47 86.66 86.51 85.43 86.57 85.4"/><path class="cls-4" d="M79.25,95l16,5a26.73,26.73,0,0,1-10.65-.91C81.31,98.1,79.45,96.55,79.25,95Z"/><polygon class="cls-7" points="86.51 85.43 84.47 86.66 111.75 95.27 113.33 94.31 102.99 100.56 75.71 91.95 75.87 91.86 86.51 85.43"/><polygon class="cls-6" points="75.71 91.95 102.99 100.56 100.89 101.82 73.62 93.22 74.01 92.98 75.71 91.95"/><path class="cls-5" d="M68.48,103.16c1.66-1,2.28-2.19,1.94-3.28l8.34-5,.49.16c.2,1.55,2.06,3.1,5.34,4.13a26.73,26.73,0,0,0,10.65.91l.51.16-8.24,5A15.76,15.76,0,0,0,80.77,107l-6.6,4-12.28-3.86Zm11.38-1.88a9.72,9.72,0,0,0-6.94.64c-1.71,1-1.36,2.41.77,3.08a9.72,9.72,0,0,0,6.94-.64c1.71-1,1.36-2.41-.77-3.08Z"/><path class="cls-4" d="M72.91,101.92a9.75,9.75,0,0,1,7-.64c2.13.67,2.48,2,.78,3.07a9.7,9.7,0,0,1-7,.65C71.56,104.33,71.21,103,72.91,101.92Z"/><polygon class="cls-8" points="79.12 114.97 51.81 106.38 74.01 92.98 73.62 93.22 75.29 93.75 54.57 106.26 78.53 113.79 99.22 101.3 100.89 101.82 79.12 114.97"/><path class="cls-4" d="M78.53,113.79l-24-7.53L75.29,93.75l3.47,1.09-8.34,5c.34,1.09-.28,2.27-1.94,3.28l-6.59,4L74.17,111l6.59-4a15.85,15.85,0,0,1,6.75-1.85l8.24-5,3.47,1.1Z"/><polygon class="cls-9" points="130.62 83.87 131.19 94.48 114.41 104.61 113.84 94 130.62 83.87"/><polygon class="cls-10" points="113.33 94.31 113.9 104.92 103.56 111.17 102.99 100.56 113.33 94.31"/><polygon class="cls-11" points="113.84 94 114.41 104.61 112.31 105.91 111.75 95.26 113.84 94"/><polygon class="cls-11" points="102.99 100.56 103.56 111.17 101.46 112.44 100.89 101.82 102.99 100.56"/><polygon class="cls-9" points="100.89 101.82 101.46 112.44 79.68 125.58 79.12 114.97 100.89 101.82"/><polygon class="cls-3" points="79.12 114.97 79.68 125.58 52.38 117 51.81 106.38 79.12 114.97"/><polygon class="cls-3" points="46.11 92.35 46.68 102.96 19.38 94.37 18.81 83.76 46.11 92.35"/><path class="cls-4" d="M67.76,62.48a9.7,9.7,0,0,1,6.95-.65c2.13.67,2.48,2.05.78,3.08a9.69,9.69,0,0,1-6.95.65C66.41,64.88,66.06,63.51,67.76,62.48Z"/><path class="cls-4" d="M70.91,53.84l24,7.53L79.17,70.85l-3.47-1.1,4.16-2.52c-.56-1.16,0-2.47,1.83-3.56l5.47-3.3-11.77-3.7L69.93,60a16,16,0,0,1-7,1.86l-4.25,2.56L55.24,63.3Z"/><path class="cls-8" d="M75.39,56.67l11.77,3.7-5.47,3.3c-1.81,1.09-2.39,2.4-1.82,3.56l-4.18,2.52-17-5.36L63,61.83a16,16,0,0,0,7-1.86Zm.09,8.24c1.71-1,1.36-2.41-.77-3.08a9.66,9.66,0,0,0-6.94.65c-1.71,1-1.36,2.4.77,3.08a9.66,9.66,0,0,0,6.94-.65Z"/><polygon class="cls-6" points="53.57 62.77 55.24 63.3 58.71 64.39 75.69 69.75 79.17 70.85 80.84 71.38 80.33 71.68 78.74 72.64 51.47 64.04 53.06 63.08 53.51 62.81 53.57 62.77"/><path class="cls-8" d="M35.48,80.53c1.66-1,2.28-2.19,1.93-3.27l8.35-5,.49.15c.19,1.55,2,3.1,5.34,4.14a26.68,26.68,0,0,0,10.64.9l.51.16-8.23,5a15.76,15.76,0,0,0-6.74,1.84l-6.61,4L28.88,84.51Zm11.38-1.88a9.69,9.69,0,0,0-7,.65c-1.7,1-1.36,2.4.78,3.08a9.66,9.66,0,0,0,6.94-.65c1.71-1,1.36-2.41-.77-3.08Z"/><path class="cls-4" d="M46.25,72.37l16,5a26.68,26.68,0,0,1-10.64-.9C48.3,75.47,46.44,73.92,46.25,72.37Z"/><polygon class="cls-6" points="42.71 69.33 69.98 77.93 67.89 79.2 40.61 70.59 42.71 69.33"/><polygon class="cls-7" points="51.47 64.04 78.74 72.64 80.33 71.68 69.98 77.93 42.71 69.33 40.61 70.59 51.47 64.04"/><path class="cls-4" d="M39.91,79.3a9.69,9.69,0,0,1,7-.65c2.13.67,2.48,2,.78,3.08a9.7,9.7,0,0,1-7,.65C38.55,81.7,38.21,80.33,39.91,79.3Z"/><path class="cls-4" d="M45.52,91.17l-24-7.54L42.29,71.12l3.47,1.1-8.35,5c.35,1.08-.27,2.27-1.93,3.27l-6.6,4,12.28,3.87,6.6-4a15.71,15.71,0,0,1,6.75-1.85l8.23-5,3.48,1.1Z"/><polygon class="cls-8" points="70.32 52.66 97.62 61.24 80.84 71.38 79.17 70.85 94.86 61.37 70.91 53.84 55.24 63.3 53.57 62.77 53.06 63.08 51.47 64.04 40.61 70.59 42.29 71.12 21.57 83.63 45.52 91.17 66.22 78.67 67.89 79.2 46.11 92.35 18.81 83.76 70.32 52.66"/><polygon class="cls-9" points="97.62 61.24 98.19 71.86 81.41 81.99 80.84 71.38 97.62 61.24"/><polygon class="cls-10" points="80.33 71.68 80.9 82.3 70.55 88.54 69.98 77.93 80.33 71.68"/><polygon class="cls-11" points="80.84 71.38 81.41 81.99 79.31 83.25 78.74 72.64 80.84 71.38"/><polygon class="cls-11" points="69.98 77.93 70.55 88.54 68.46 89.81 67.89 79.2 69.98 77.93"/><polygon class="cls-9" points="67.89 79.2 68.46 89.81 46.68 102.96 46.11 92.35 67.89 79.2"/><polygon class="cls-3" points="47.13 80.1 47.7 90.72 20.4 82.13 19.83 71.52 47.13 80.1"/><path class="cls-4" d="M68.78,50.23a9.75,9.75,0,0,1,7-.64c2.13.67,2.48,2,.78,3.08a9.74,9.74,0,0,1-7,.64C67.43,52.64,67.08,51.26,68.78,50.23Z"/><path class="cls-4" d="M71.93,41.59l23.95,7.54L80.19,58.6l-3.47-1.09L80.89,55c-.57-1.16,0-2.47,1.82-3.57l5.47-3.3-11.76-3.7L71,47.72a15.9,15.9,0,0,1-7,1.87l-4.25,2.56-3.47-1.1Z"/><path class="cls-8" d="M76.42,44.42l11.76,3.7-5.47,3.3c-1.81,1.1-2.39,2.41-1.82,3.57l-4.17,2.52-17-5.36L64,49.59a16,16,0,0,0,7-1.86Zm.09,8.25c1.7-1,1.35-2.41-.78-3.08a9.72,9.72,0,0,0-6.94.64c-1.71,1-1.36,2.41.77,3.08a9.74,9.74,0,0,0,7-.64Z"/><polygon class="cls-6" points="54.59 50.53 56.26 51.05 59.73 52.15 76.72 57.51 80.19 58.6 81.86 59.13 81.35 59.44 79.77 60.4 52.49 51.79 54.08 50.84 54.53 50.56 54.59 50.53"/><path class="cls-8" d="M36.5,68.29c1.66-1,2.28-2.19,1.94-3.28l8.34-5,.49.16c.2,1.55,2.06,3.1,5.34,4.13a26.73,26.73,0,0,0,10.65.91l.5.16-8.23,5a15.76,15.76,0,0,0-6.74,1.85l-6.6,4L29.91,72.27Zm11.38-1.88a9.74,9.74,0,0,0-7,.64c-1.7,1-1.35,2.41.78,3.08a9.72,9.72,0,0,0,6.94-.64c1.71-1,1.36-2.41-.77-3.08Z"/><path class="cls-4" d="M47.27,60.13l16,5a26.73,26.73,0,0,1-10.65-.91C49.33,63.23,47.47,61.68,47.27,60.13Z"/><polygon class="cls-6" points="43.73 57.08 71.01 65.69 68.91 66.95 41.63 58.35 43.73 57.08"/><polygon class="cls-7" points="52.49 51.79 79.77 60.4 81.35 59.44 71.01 65.69 43.73 57.08 41.63 58.35 52.49 51.79"/><path class="cls-4" d="M40.93,67.05a9.74,9.74,0,0,1,7-.64c2.13.67,2.48,2,.78,3.08a9.75,9.75,0,0,1-6.95.64C39.58,69.46,39.23,68.08,40.93,67.05Z"/><path class="cls-4" d="M46.54,78.92,22.59,71.39,43.31,58.88,46.78,60l-8.34,5c.34,1.09-.28,2.27-1.94,3.28l-6.59,4,12.28,3.86,6.59-4a15.85,15.85,0,0,1,6.75-1.85l8.23-5,3.48,1.1Z"/><polygon class="cls-8" points="71.34 40.41 98.64 49 81.86 59.13 80.19 58.6 95.88 49.13 71.93 41.59 56.26 51.05 54.59 50.53 54.08 50.84 52.49 51.79 41.63 58.35 43.31 58.88 22.59 71.39 46.54 78.92 67.24 66.43 68.91 66.95 47.13 80.1 19.83 71.52 71.34 40.41"/><polygon class="cls-9" points="98.64 49 99.2 59.61 82.43 69.74 81.86 59.13 98.64 49"/><polygon class="cls-10" points="81.35 59.44 81.92 70.05 71.57 76.3 71.01 65.69 81.35 59.44"/><polygon class="cls-11" points="81.86 59.13 82.43 69.74 80.33 71.01 79.76 60.4 81.86 59.13"/><polygon class="cls-11" points="71.01 65.69 71.57 76.3 69.48 77.57 68.91 66.95 71.01 65.69"/><polygon class="cls-9" points="68.91 66.95 69.48 77.57 47.7 90.72 47.13 80.1 68.91 66.95"/><path class="cls-4" d="M100.7,73.61a9.69,9.69,0,0,1,7-.65c2.13.67,2.48,2.05.78,3.08a9.7,9.7,0,0,1-7,.65C99.35,76,99,74.64,100.7,73.61Z"/><path class="cls-8" d="M108.33,67.8l11.77,3.7-5.47,3.3c-1.81,1.09-2.39,2.4-1.83,3.56l-4.17,2.52-17-5.35L95.9,73a16,16,0,0,0,7-1.86Zm.09,8.24c1.71-1,1.36-2.41-.77-3.08a9.69,9.69,0,0,0-7,.65c-1.7,1-1.35,2.4.78,3.08a9.66,9.66,0,0,0,6.94-.65Z"/><path class="cls-4" d="M103.84,65l24,7.53L112.11,82l-3.48-1.1,4.17-2.52c-.56-1.16,0-2.47,1.83-3.56l5.47-3.3-11.77-3.7-5.47,3.3a16,16,0,0,1-7,1.86l-4.25,2.57-3.47-1.1Z"/><polygon class="cls-8" points="103.25 63.79 130.55 72.38 113.78 82.51 112.11 81.98 127.8 72.5 103.84 64.97 88.18 74.43 86.5 73.9 103.25 63.79"/><polygon class="cls-6" points="86.5 73.9 88.18 74.43 91.65 75.53 108.63 80.88 112.11 81.98 113.78 82.51 113.27 82.81 111.68 83.77 84.41 75.17 86.44 73.94 86.5 73.9"/><path class="cls-4" d="M79.19,83.5l16,5a26.93,26.93,0,0,1-10.65-.91C81.24,86.6,79.38,85.05,79.19,83.5Z"/><polygon class="cls-7" points="86.44 73.94 84.41 75.17 111.68 83.77 113.27 82.81 102.92 89.06 75.65 80.46 75.81 80.36 86.44 73.94"/><polygon class="cls-6" points="75.65 80.46 102.92 89.06 100.83 90.33 73.55 81.72 73.95 81.48 75.65 80.46"/><path class="cls-8" d="M68.42,91.66c1.66-1,2.28-2.19,1.93-3.27l8.35-5,.49.15c.19,1.55,2,3.1,5.33,4.14a26.93,26.93,0,0,0,10.65.91l.51.16-8.23,5a15.76,15.76,0,0,0-6.74,1.84l-6.61,4L61.82,95.65Zm11.37-1.88a9.66,9.66,0,0,0-6.94.65c-1.71,1-1.36,2.41.78,3.08a9.67,9.67,0,0,0,6.94-.65c1.71-1,1.36-2.41-.78-3.08Z"/><path class="cls-4" d="M72.85,90.43a9.66,9.66,0,0,1,6.94-.65c2.14.67,2.49,2,.78,3.08a9.67,9.67,0,0,1-6.94.65C71.49,92.84,71.14,91.46,72.85,90.43Z"/><polygon class="cls-8" points="79.05 103.48 51.75 94.89 73.95 81.48 73.55 81.72 75.22 82.25 54.51 94.76 78.46 102.3 99.15 89.8 100.83 90.33 79.05 103.48"/><path class="cls-4" d="M78.46,102.3,54.51,94.76,75.22,82.25l3.48,1.1-8.35,5c.35,1.08-.27,2.27-1.93,3.27l-6.6,4L74.1,99.51l6.6-4a15.71,15.71,0,0,1,6.75-1.85l8.23-5,3.47,1.09Z"/><polygon class="cls-9" points="130.55 72.38 131.12 82.99 114.35 93.12 113.78 82.51 130.55 72.38"/><polygon class="cls-10" points="113.27 82.81 113.84 93.43 103.49 99.67 102.92 89.06 113.27 82.81"/><polygon class="cls-11" points="113.78 82.51 114.35 93.12 112.24 94.42 111.68 83.77 113.78 82.51"/><polygon class="cls-11" points="102.92 89.06 103.49 99.67 101.39 100.94 100.83 90.33 102.92 89.06"/><polygon class="cls-9" points="100.83 90.33 101.39 100.94 79.62 114.09 79.05 103.48 100.83 90.33"/><polygon class="cls-3" points="79.05 103.48 79.62 114.09 52.32 105.5 51.75 94.89 79.05 103.48"/><polygon class="cls-12" points="63.87 70.12 40.44 58.97 45.21 56.19 63.87 70.12"/><polygon class="cls-12" points="63.87 70.12 64.65 80.15 67.45 79.57 67.82 85.14 95.66 90.02 107.4 86.33 126.79 74.83 113.36 71.31 63.87 70.12"/><polygon class="cls-13" points="97.86 81.4 95.66 90.02 115.57 79.03 117.78 70.41 97.86 81.4"/><path class="cls-14" d="M67.44,46.13c-1.87-1.19-4.64-1.46-6.2-.6s-1.3,2.52.56,3.71,4.64,1.46,6.2.6S69.31,47.32,67.44,46.13Z"/><polygon class="cls-15" points="61.34 34.41 41.42 45.4 58.05 56.01 59.26 55.33 43.83 45.49 61.31 35.85 76.72 45.68 77.94 45.01 61.34 34.41"/><path class="cls-14" d="M61.31,35.85,43.83,45.49l15.43,9.84,2.54-1.4L59,52.14c0-1.41-1-3-3-4.23l-6-3.82,8.59-4.74,6,3.82a14.19,14.19,0,0,0,6.7,2.06l2.9,1.85,2.53-1.4Z"/><path class="cls-15" d="M64.59,43.18a14.29,14.29,0,0,0,6.7,2l2.9,1.85L61.8,53.93,59,52.14c0-1.41-1-3-3-4.23l-6-3.82,8.59-4.74Zm-2.78,6.06c1.86,1.19,4.63,1.46,6.19.6s1.31-2.52-.56-3.71-4.64-1.46-6.2-.6-1.3,2.52.57,3.71Z"/><polygon class="cls-16" points="78.04 44.95 77.94 45.01 76.72 45.68 74.19 47.08 61.8 53.93 59.26 55.33 58.05 56.01 57.89 56.09 60.89 58 81.04 46.87 78.04 44.95"/><path class="cls-14" d="M98,65.6c-1.87-1.19-4.64-1.46-6.2-.6s-1.3,2.52.56,3.71,4.64,1.46,6.2.6S99.83,66.79,98,65.6Z"/><path class="cls-15" d="M89.61,56.92l9.67,6.17c.14,1.31,1.14,2.71,3,3.88l7.23,4.61-9,4.94-7.24-4.61a14.05,14.05,0,0,0-6.5-2l-9.56-6.1a15.09,15.09,0,0,0,9.65-1.22C89.48,61.1,90.4,59,89.61,56.92Zm2.72,11.79c1.86,1.19,4.64,1.46,6.19.6s1.31-2.52-.56-3.71-4.64-1.46-6.2-.6-1.3,2.52.57,3.71Z"/><path class="cls-14" d="M89.2,56.11,75.89,63.46q.64.18,1.32.3a15.09,15.09,0,0,0,9.65-1.22c2.62-1.44,3.54-3.59,2.75-5.62A5.14,5.14,0,0,0,89.2,56.11Z"/><polygon class="cls-16" points="89.6 52.32 69.45 63.46 72.45 65.37 92.6 54.23 89.6 52.32"/><polygon class="cls-17" points="81.04 46.87 60.89 58 57.89 56.09 72.45 65.37 72.59 65.29 73.81 64.61 75.89 63.46 89.2 56.11 91.27 54.96 92.49 54.29 92.6 54.23 72.45 65.37 69.45 63.46 89.6 52.32 81.04 46.87"/><path class="cls-14" d="M97.89,80l17.48-9.64L91.27,55,89.2,56.11a5.14,5.14,0,0,1,.41.81l9.67,6.17c.14,1.31,1.14,2.71,3,3.88l7.23,4.61-9,4.94-7.23-4.61a14.13,14.13,0,0,0-6.51-2l-9.56-6.1q-.67-.12-1.32-.3l-2.08,1.15Z"/><polygon class="cls-15" points="97.86 81.4 117.78 70.41 92.49 54.29 91.27 54.96 115.37 70.33 97.89 79.97 73.81 64.61 72.59 65.29 97.86 81.4"/><polygon class="cls-18" points="41.42 45.4 39.22 54.02 55.84 64.63 58.05 56.01 41.42 45.4"/><polygon class="cls-19" points="57.89 56.09 55.69 64.71 70.25 73.99 72.45 65.37 57.89 56.09"/><polygon class="cls-18" points="72.59 65.29 70.39 73.91 95.66 90.02 97.86 81.4 72.59 65.29"/><polygon class="cls-11" points="72.45 65.37 69.45 63.46 67.44 72.22 70.25 73.99 72.45 65.37"/><polygon class="cls-11" points="60.89 58 57.89 56.09 55.69 64.71 58.54 66.52 60.89 58"/><g class="cls-20"><path class="cls-21" d="M30,79.74l17.4,5h-.12L50.21,83l1.46-.86,1.46-.84,1.46-.84,1.47-.83,1.48-.83L59,78v0l-1.42.9-1.44.89c-.48.3-1,.6-1.44.89l-1.44.87c-.48.29-1,.59-1.45.87l-1.45.86L47.47,85l-.06,0-.06,0L30,79.77Z"/></g><g class="cls-20"><path class="cls-21" d="M33.7,106l3.19.89,3.2.91,3.19.9,1.6.45.79.24.8.25h-.12c.59-.27,1.19-.53,1.79-.78l.9-.37c.3-.12.6-.25.91-.36v0c-.28.16-.57.31-.86.46l-.87.45-1.74.86-.05,0-.07,0-.8-.22-.79-.24L43.19,109l-3.17-1-3.17-1-3.16-1Z"/></g><g class="cls-20"><path class="cls-21" d="M68.19,108.12l11.27,3.54h-.08l9.87-6.3,2.48-1.56,2.49-1.53,2.51-1.52,2.51-1.49,0,0-2.44,1.63-2.45,1.6-2.46,1.58-2.47,1.57-10,6.18,0,0h0l-11.22-3.71Z"/></g><g class="cls-20"><polygon class="cls-21" points="52.34 113.87 63.45 117.36 52.24 114.2 52.34 113.87"/></g><g class="cls-20"><polygon class="cls-21" points="19.09 85.88 30.69 89.59 18.99 86.21 19.09 85.88"/></g><g class="cls-20"><path class="cls-21" d="M80.09,73.33a1.85,1.85,0,0,1,.29.13l.28.15.54.31,1.09.64,2.17,1.28q2.17,1.29,4.32,2.61l4.31,2.62,4.3,2.63h-.17l2.43-1.19,1.22-.58,1.22-.58,2.44-1.15,1.23-.57,1.23-.55,0,0-1.2.63-1.19.63c-.8.41-1.6.83-2.41,1.23l-1.2.61-1.21.61c-.81.4-1.61.8-2.43,1.19l-.08,0L97.21,84,92.94,81.3l-4.27-2.68L84.4,76l-2.15-1.33L81.18,74l-.55-.32a4.14,4.14,0,0,0-.55-.29Z"/></g></g></g></svg>