<svg id="थरमस" xmlns="http://www.w3.org/2000/svg" viewBox="0 0 150 160"><defs><style>.cls-1,.cls-9{fill:#ff9c31;}.cls-1{stroke:#fff;stroke-miterlimit:10;stroke-width:5px;}.cls-2{fill:#f07b20;}.cls-3{fill:#ef651f;}.cls-4{fill:#6b4e32;}.cls-5{fill:#493127;}.cls-6{fill:#b8b824;}.cls-7{fill:#93932f;}.cls-8{fill:#b9b941;}</style></defs><path class="cls-1" d="M100.55,40.18H98.42v-27a2.54,2.54,0,0,0-2.54-2.54H54.12a2.54,2.54,0,0,0-2.54,2.54v27H49.45a.63.63,0,0,0-.64.64v4a.63.63,0,0,0,.64.63h2.13v99A2.45,2.45,0,0,0,54,146.92h3.21v2.19a.27.27,0,0,0,.27.27h35a.27.27,0,0,0,.27-.27v-2.19H96a2.45,2.45,0,0,0,2.45-2.44v-99h2.13a.63.63,0,0,0,.64-.63v-4A.63.63,0,0,0,100.55,40.18Z"/><path class="cls-2" d="M51.58,41.54H75a0,0,0,0,1,0,0V146.92a0,0,0,0,1,0,0H54a2.44,2.44,0,0,1-2.44-2.44V41.54A0,0,0,0,1,51.58,41.54Z"/><path class="cls-3" d="M77.44,41.54h21a0,0,0,0,1,0,0V146.92a0,0,0,0,1,0,0H75a0,0,0,0,1,0,0V44A2.44,2.44,0,0,1,77.44,41.54Z" transform="translate(173.42 188.47) rotate(180)"/><path class="cls-4" d="M57.24,146.92H75a0,0,0,0,1,0,0v2.45a0,0,0,0,1,0,0H57.51a.27.27,0,0,1-.27-.27v-2.19A0,0,0,0,1,57.24,146.92Z"/><path class="cls-5" d="M75,146.92H92.76a0,0,0,0,1,0,0v2.19a.27.27,0,0,1-.27.27H75a0,0,0,0,1,0,0v-2.45A0,0,0,0,1,75,146.92Z"/><path class="cls-6" d="M54.12,10.62H75a0,0,0,0,1,0,0V41.54a0,0,0,0,1,0,0H51.58a0,0,0,0,1,0,0V13.16A2.54,2.54,0,0,1,54.12,10.62Z"/><path class="cls-7" d="M75,10.62H98.42a0,0,0,0,1,0,0V41.54a0,0,0,0,1,0,0H77.54A2.54,2.54,0,0,1,75,39V10.62A0,0,0,0,1,75,10.62Z" transform="translate(173.42 52.17) rotate(180)"/><path class="cls-4" d="M49.45,40.18H75a0,0,0,0,1,0,0v5.31a0,0,0,0,1,0,0H49.45a.64.64,0,0,1-.64-.64v-4A.64.64,0,0,1,49.45,40.18Z"/><path class="cls-5" d="M75.64,40.18h25.55a0,0,0,0,1,0,0v5.31a0,0,0,0,1,0,0H75.64a.64.64,0,0,1-.64-.64v-4A.64.64,0,0,1,75.64,40.18Z" transform="translate(176.19 85.66) rotate(180)"/><path class="cls-8" d="M94.63,30.94a1.2,1.2,0,0,1-1.2-1.2V19.87a3.55,3.55,0,0,0-3.55-3.54h-3a1.2,1.2,0,0,1,0-2.4h3a6,6,0,0,1,6,5.94v9.87A1.2,1.2,0,0,1,94.63,30.94Z"/><path class="cls-9" d="M94,92.37a1.2,1.2,0,0,1-1.2-1.2V51.55a1.2,1.2,0,0,1,2.4,0V91.17A1.2,1.2,0,0,1,94,92.37Z"/></svg>