<svg xmlns="http://www.w3.org/2000/svg" viewBox="0 0 150 160"><defs><style>.cls-1{isolation:isolate;}.cls-2,.cls-6{fill:#fdb604;}.cls-2,.cls-3,.cls-4,.cls-5{stroke:#fff;stroke-miterlimit:10;stroke-width:5px;}.cls-3,.cls-7{fill:#cce0d3;}.cls-4,.cls-5,.cls-8,.cls-9{fill:#a8b8ac;}.cls-5,.cls-9{mix-blend-mode:multiply;}</style></defs><g class="cls-1"><g id="थाली"><path class="cls-2" d="M75,66.23c43.95,0,65.89,4,65.87,8,0,.06,0,.12,0,.19-.42,2.37-8.55,4.72-24.38,6.21h-.08c-1.67.16-3.43.3-5.27.44l-4.3.29-.23,0q-4.33.25-9.22.45c-3.62.13-7.47.24-11.55.31H84.9c-1.9,0-3.85,0-5.84.06H75q-12.36,0-22.39-.39L51,81.78c-3.29-.13-6.38-.3-9.28-.49C21,79.93,10.14,77.3,9.2,74.62h0a1.16,1.16,0,0,1-.07-.37h0C9.15,70.24,31.12,66.23,75,66.23Zm0,15c83.81,0,83.94-13.94,0-13.94S-8.93,81.21,75,81.21Z"/><path class="cls-3" d="M75,67.27c83.94,0,83.81,13.94,0,13.94S-8.81,67.27,75,67.27Z"/><path class="cls-4" d="M116.49,80.64c15.86-1.49,24-3.84,24.38-6.21,0-.07,0-.13,0-.19H141c0,3-13.85,8.85-20.93,11.66-2.43,1-4.06,1.56-4.06,1.56l-.07,0c0,3-11.64,6-34.86,6.27l-2.91,0c-25.1,0-38.33-3.14-38.4-6.29-6.44-1.78-12.24-3.68-18.51-6C8,76.5,9,74.24,9,74.24h.1a1.16,1.16,0,0,0,.07.37h0c.92,2.68,11.75,5.31,32.5,6.67,2.9.19,6,.36,9.28.49l1.64.07q10,.38,22.39.39H80q2.52,0,5-.06h.94c4.08-.07,7.92-.17,11.55-.31q4.89-.19,9.22-.45l.23,0c1.48-.09,2.91-.18,4.3-.29,1.84-.13,3.6-.28,5.27-.44Z"/><path class="cls-5" d="M115.93,87.48c-27.77,7.78-76.17,0-76.17,0,.07,3.15,13.3,6.29,38.4,6.29l2.91,0C104.29,93.52,115.9,90.5,115.93,87.48Z"/><path class="cls-5" d="M116,87.46h0Z"/><path class="cls-6" d="M75,66.23c43.95,0,65.89,4,65.87,8,0,.06,0,.12,0,.19-.42,2.37-8.55,4.72-24.38,6.21h-.08c-1.67.16-3.43.3-5.27.44l-4.3.29-.23,0q-4.33.25-9.22.45c-3.62.13-7.47.24-11.55.31H84.9c-1.9,0-3.85,0-5.84.06H75q-12.36,0-22.39-.39L51,81.78c-3.29-.13-6.38-.3-9.28-.49C21,79.93,10.14,77.3,9.2,74.62h0a1.16,1.16,0,0,1-.07-.37h0C9.15,70.24,31.12,66.23,75,66.23Zm0,15c83.81,0,83.94-13.94,0-13.94S-8.93,81.21,75,81.21Z"/><path class="cls-7" d="M75,67.27c83.94,0,83.81,13.94,0,13.94S-8.81,67.27,75,67.27Z"/><path class="cls-8" d="M116.49,80.64c15.86-1.49,24-3.84,24.38-6.21,0-.07,0-.13,0-.19H141c0,3-13.85,8.85-20.93,11.66-2.43,1-4.06,1.56-4.06,1.56l-.07,0c0,3-11.64,6-34.86,6.27l-2.91,0c-25.1,0-38.33-3.14-38.4-6.29-6.44-1.78-12.24-3.68-18.51-6C8,76.5,9,74.24,9,74.24h.1a1.16,1.16,0,0,0,.07.37h0c.92,2.68,11.75,5.31,32.5,6.67,2.9.19,6,.36,9.28.49l1.64.07q10,.38,22.39.39H80q2.52,0,5-.06h.94c4.08-.07,7.92-.17,11.55-.31q4.89-.19,9.22-.45l.23,0c1.48-.09,2.91-.18,4.3-.29,1.84-.13,3.6-.28,5.27-.44Z"/><path class="cls-9" d="M115.93,87.48c-27.77,7.78-76.17,0-76.17,0,.07,3.15,13.3,6.29,38.4,6.29l2.91,0C104.29,93.52,115.9,90.5,115.93,87.48Z"/><path class="cls-9" d="M116,87.46h0Z"/></g></g></svg>