<svg xmlns="http://www.w3.org/2000/svg" viewBox="0 0 150 160"><defs><style>.cls-1{isolation:isolate;}.cls-2,.cls-8{fill:#edc471;}.cls-2{stroke:#fff;stroke-miterlimit:10;stroke-width:5px;}.cls-3{fill:#e9a553;}.cls-4{fill:#d4a571;}.cls-5{fill:#9f562b;}.cls-6{fill:#d28a25;}.cls-7{fill:#c89b3a;mix-blend-mode:multiply;}.cls-9{fill:#e8a244;}</style></defs><g class="cls-1"><g id="टोकरी"><path class="cls-2" d="M121.2,112.2c.19-.53.38-1,.58-1.57s.47-1.25.71-1.88.41-1.08.61-1.61c.37-1,.75-2,1.12-2.91l.48-1.25c.3-.76.6-1.51.89-2.26l.6-1.52.29-.71,1.08-2.69c.53-1.29,1.06-2.57,1.59-3.83.28-.65.55-1.3.83-1.94a2,2,0,0,0,.51-1.17c.1-1.32-.75-3.42-4.45-3.32s-6.81.4-6.91.41a18.79,18.79,0,0,0-6.73-.68,29.63,29.63,0,0,0-9-1.17s.48.16,1.22.47A23.37,23.37,0,0,0,96.15,84a28.16,28.16,0,0,0-9.05-.8s.4.12,1,.36A30.37,30.37,0,0,0,79,83.06h0a25.13,25.13,0,0,0-5.5-.15,3.86,3.86,0,0,1,.36.14,23.6,23.6,0,0,0-7.46.24,23.82,23.82,0,0,0-7.46.1,23,23,0,0,0-8,.44,24.2,24.2,0,0,0-7.47.43h0a24.47,24.47,0,0,0-7.44.76,21.5,21.5,0,0,0-6,.12c-3.3-1-8,.07-8,.07l.26.14c-2.91-1-3.91,2.45-1.12,4.13.19.45.38.9.56,1.36.26.61.51,1.21.77,1.84.51,1.23,1,2.48,1.52,3.75s1.06,2.66,1.59,4h0q.72,1.83,1.44,3.72.88.19,1.77.33v.11c-.59-.17-1.18-.31-1.77-.44q.74,1.92,1.47,3.87c.56,1.5,1.13,3,1.69,4.55l1.34,3.67c.55,1.53,1.11,3.08,1.66,4.64.5,1.39,1,2.8,1.49,4.22l1,2.75.47,1.34q.85,2.46,1.71,5l1,2.88.4.05q5.22.67,10.46,1.16c1.22.11,2.43.22,3.65.31q5.32.42,10.66.63l3.46.11h.22q5.37.14,10.73.07c1.23,0,2.46,0,3.69-.08l1.77-.05c3-.1,5.92-.24,8.88-.44,1.21-.08,2.43-.16,3.64-.26,3.48-.27,7-.61,10.44-1l3.54-.44,2.12-.29c.47-1.4,1-2.79,1.43-4.18l1.35-3.9c.57-1.64,1.15-3.27,1.72-4.88l.21-.59c.39-1.12.79-2.23,1.19-3.34s.8-2.22,1.21-3.33c.2-.57.41-1.13.62-1.7C120.52,114,120.86,113.1,121.2,112.2Zm-14.4,14.07a22.6,22.6,0,0,0,3.54-.61A23.83,23.83,0,0,1,106.8,126.27Zm-36,7.38a28.68,28.68,0,0,0-3.17-.52A28.33,28.33,0,0,0,64,133a29.32,29.32,0,0,0-3.51.29v-.13a20.78,20.78,0,0,0,3.51-.29V133a28.33,28.33,0,0,1,3.68.17V133a21.41,21.41,0,0,0,3.52.6v.11Zm-14-.79h0l-.46-.14c-.84-.25-1.68-.47-2.53-.64l-.47-.1a28.64,28.64,0,0,0-3.65-.45,26.47,26.47,0,0,0-3.45,0v-.13a20.91,20.91,0,0,0,3.45,0v.13a28.64,28.64,0,0,1,3.65.45v0l.47.15c.85.17,1.69.39,2.53.64l.48.09ZM39.2,126.1h0Zm-3.68-8.77.13,0h0Zm3.68.5h0Zm7,.35v0l.14,0a26.31,26.31,0,0,1,3.18.78l.13,0v0l-.13,0a26.31,26.31,0,0,0-3.18-.78l-.14,0a29.36,29.36,0,0,0-3.6-.4h0A29.36,29.36,0,0,1,46.21,118.18Zm-13.77-9.76-.14,0v0Zm6.76,1.09h.14l-.14,0Zm7.15.12a25.82,25.82,0,0,1,3.18.69h.13a23.47,23.47,0,0,0,3.65.23c.27,0,.55,0,.82,0l-.82.12v-.09a23.47,23.47,0,0,1-3.65-.23v0l-.13,0a25.82,25.82,0,0,0-3.18-.69l-.14,0v0ZM35.64,101l-.12,0h.13v0Zm69.93,25.33h0Zm-13.32,1.89-.81-.08c.43,0,.85,0,1.28,0v0ZM64,128.93a22.66,22.66,0,0,0,3.68.15,22,22,0,0,0,3.52-.46,22,22,0,0,1-3.52.46A22.66,22.66,0,0,1,64,128.93Zm-17.76-6,.57,0a22.48,22.48,0,0,0,2.32-.08l.23,0,.32,0H49.1a22.48,22.48,0,0,1-2.32.08l-.57,0Zm7.57-8.32-.47-.07v-.06ZM42.61,97.07v.13h0a24.8,24.8,0,0,0-3.39-.59v-.12a24.79,24.79,0,0,0,3.41.58,24.07,24.07,0,0,0,3.6.11,23.72,23.72,0,0,0,3.45-.42v.13a26.62,26.62,0,0,0-3.45.41v-.12A24.07,24.07,0,0,1,42.61,97.07ZM71.17,124.6v0H70.7l-.78-.15c.42.06.83.1,1.25.14a21.77,21.77,0,0,0,3.7,0c.41,0,.83-.08,1.24-.14-.41.08-.83.16-1.24.26v-.12A21.77,21.77,0,0,1,71.17,124.6Zm-14.38-5.46v0a26.58,26.58,0,0,1,3.67.22v0l.14,0a30.18,30.18,0,0,1,3.23.63H64a21.56,21.56,0,0,0,3.68.11,21,21,0,0,0,3.52-.47,21,21,0,0,1-3.52.47A21.56,21.56,0,0,1,64,120v0h0l-.12,0a30.18,30.18,0,0,0-3.23-.63h-.14a26.58,26.58,0,0,0-3.67-.22l-.83,0,.48-.06Zm3.81-8.66h-.14v0Zm30.84,8.88c.43,0,.85,0,1.28,0v.11C92.3,119.44,91.87,119.4,91.44,119.36Zm-20.27-3.78v.19a26.33,26.33,0,0,0-3.52-.57V115A22.42,22.42,0,0,0,71.17,115.58Zm7.21-4.48a26.2,26.2,0,0,0-3.51-.48A26.2,26.2,0,0,1,78.38,111.1Zm-14.41-9a22.61,22.61,0,0,0,3.68,0,23.33,23.33,0,0,0,3.52-.51,23.33,23.33,0,0,1-3.52.51A22.61,22.61,0,0,1,64,102.12Zm28.75,8.54c-.43-.07-.85-.13-1.28-.17.42,0,.85.05,1.28.05Zm-14.34,4.53a26.19,26.19,0,0,0-3.51.57v-.18a22.38,22.38,0,0,0,2.92-.44h.59v.06a26.77,26.77,0,0,1,3.69-.11v0l.25,0h-.25A26.77,26.77,0,0,0,78.38,115.19Zm12.15-4.79q-.65,0-1.29-.06v-.12Q89.89,110.33,90.53,110.4Zm-5,.11c-.43,0-.86.11-1.28.18.43-.09.86-.19,1.28-.3Zm0,4.92v0l-.24,0Zm3.67-.19.24,0-.24.07Zm7.12-4.94c.42-.06.84-.14,1.26-.22-.42.1-.84.21-1.26.34Zm0-4.82v0l.24,0Zm-18-8.33a24.68,24.68,0,0,0-3.51.57v-.19a22.86,22.86,0,0,1-3.7,0v.18h0a26.06,26.06,0,0,0-3.51-.52V97a23.54,23.54,0,0,0,3.52.52,22.86,22.86,0,0,0,3.7,0A24.51,24.51,0,0,0,78,97.05h.34v.11a25.26,25.26,0,0,1,3.69-.05v0l.24,0h-.24A25.26,25.26,0,0,0,78.38,97.15Zm18,4.38.12,0,.14.08-.26.06Zm-10.79-4v0h0l-.23,0Zm0,3.92v.12c-.42,0-.85.1-1.28.16C84.72,101.63,85.15,101.54,85.57,101.43Zm3.67-.12c.42.08.85.15,1.28.21-.43,0-.85-.07-1.28-.09Zm3.48.39v.11h0c-.42-.07-.84-.14-1.26-.19Zm7.08,4v0l-.24,0Zm3.6-.25.18,0h0l-.19,0ZM60.46,97.54A23.49,23.49,0,0,0,64,97.06v.13a24.5,24.5,0,0,0-3.51.49Zm12.56,4c-.62,0-1.23,0-1.85.07C71.79,101.57,72.4,101.54,73,101.54Zm5.36.54a26.2,26.2,0,0,0-3.51-.48A26.2,26.2,0,0,1,78.38,102.08Zm3.69,0c.43,0,.86-.1,1.29-.16-.44.08-.86.18-1.29.28Zm3.5,4.43a23.67,23.67,0,0,0,3.67-.14l.24,0a23.74,23.74,0,0,0,3-.59l.24-.06v0l-.24,0a23.74,23.74,0,0,1-3,.59l-.24.06v0a23.67,23.67,0,0,1-3.67.14v0l-.24-.05Zm-3.5,4.68V111c.43,0,.86-.1,1.29-.17Zm-3.69,0c.62,0,1.23,0,1.85,0C79.61,111.17,79,111.16,78.38,111.13Zm-7.21-.5c.62,0,1.23-.07,1.85-.07C72.4,110.56,71.79,110.58,71.17,110.63Zm7.21,9.48a27.9,27.9,0,0,0-3.51-.47A27.9,27.9,0,0,1,78.38,120.11Zm3.69-.08c.43,0,.86-.11,1.29-.19-.43.09-.86.2-1.29.31Zm3.5-.68v.12c-.43,0-.86.12-1.28.19C84.72,119.57,85.15,119.46,85.57,119.35Zm3.67-.22c.43.06.85.12,1.28.16-.43,0-.85,0-1.28,0Zm3.24-4.57.24-.07v0Zm3.88-.35a2,2,0,0,0,.24,0h-.24Zm3.44-4.68v.12c-.41.06-.83.14-1.25.22C99,109.77,99.39,109.66,99.8,109.53Zm3.6-.3c.42.06.83.1,1.25.13-.41,0-.83,0-1.25,0ZM53.31,96.91l.47.11-.47,0Zm3.48.58v.06l-.48-.11Zm-.11,3.91h.11v.07c-.28,0-.56,0-.84.06Zm3.78.14.14,0a27.52,27.52,0,0,1,3.23.53,27.52,27.52,0,0,0-3.23-.53h-.14Zm7.19,4.66V106a22.39,22.39,0,0,0,3.52.55,24.05,24.05,0,0,0,3.7,0,22.57,22.57,0,0,0,3-.47h.47v.08a26.75,26.75,0,0,1,3.69-.08v0l.24,0h-.24a26.75,26.75,0,0,0-3.69.08,26.19,26.19,0,0,0-3.51.57v-.18a24.05,24.05,0,0,1-3.7,0v.18a28,28,0,0,0-3.52-.55c-.61,0-1.22-.08-1.84-.09C66.43,106.12,67,106.15,67.65,106.2Zm0,5a21.55,21.55,0,0,1-3.68-.08A22.62,22.62,0,0,0,67.65,111.15Zm-3.8-.08h0Zm-3.39,13.2H61l-.58.08Zm3.51-.33V124a28.3,28.3,0,0,1,3.68.13V124c.42.11.83.2,1.25.28-.41-.06-.83-.12-1.25-.16A28.3,28.3,0,0,0,64,124l-.58,0Zm13.7.24H78l-.88.11Zm15-.84a22.45,22.45,0,0,1-3.48.8A22.45,22.45,0,0,0,92.72,123.34Zm3.64-4.28c.42-.07.85-.15,1.27-.25-.42.11-.85.24-1.27.37Zm3.44-.74q-.63.12-1.26.27c.42-.12.84-.24,1.26-.38Zm4.85-.43-1.25,0v-.12C103.82,117.85,104.23,117.88,104.65,117.89Zm-1.25-3.8v0a24.13,24.13,0,0,1-3.6.36v0l-.23,0h.23a24.13,24.13,0,0,0,3.6-.36l.24,0Zm2.15-4.68c.38,0,.77,0,1.15,0l-.47,0Zm-52.24-7.62.83-.05-.83.14Zm3.48,4.54a22.52,22.52,0,0,0,3.67.12A22.14,22.14,0,0,0,64,106v.13a25.9,25.9,0,0,0-3.51.44v-.14a22.52,22.52,0,0,1-3.67-.12v.06l-.48-.11Zm-.22,3.93h.22v0l-.83,0Zm.22,4.92a22.57,22.57,0,0,0,3.67.18A22,22,0,0,0,64,115v.13a25.82,25.82,0,0,0-3.51.39v-.14a22.57,22.57,0,0,1-3.67-.18v.06l-.48-.13Zm-2.66,4.14-.82.1v-.09Zm-4.57,8.28h0Zm3.75.43c.27,0,.55,0,.82,0-.27,0-.55.05-.82.09Zm3.48-.18v.09a30.22,30.22,0,0,1,3.67.28v0l.14,0-.14,0a30.22,30.22,0,0,0-3.67-.28H56Zm14.38.75c.62,0,1.23-.06,1.85-.06C72.4,128.54,71.79,128.56,71.17,128.6Zm7.21.46a27.87,27.87,0,0,0-3.51-.46A27.87,27.87,0,0,1,78.38,129.06Zm3.69-.08v0c.43-.06.87-.12,1.3-.2-.44.09-.87.2-1.3.32Zm3.5-.74v.12a28.45,28.45,0,0,1,3.67-.27V128c.43.06.85.11,1.28.14-.42,0-.85,0-1.28,0a28.45,28.45,0,0,0-3.67.27q-.64.09-1.29.21C84.71,128.47,85.14,128.37,85.57,128.24Zm10.79-.45v0c.43-.08.85-.18,1.28-.29-.43.13-.86.26-1.28.41Zm7-1.36v-.11c.42,0,.83,0,1.25,0l-1.25.07a28.35,28.35,0,0,0-3.6.51q-.63.14-1.26.3.63-.19,1.26-.42v.12A28.35,28.35,0,0,1,103.4,126.43Zm0-3.8a23,23,0,0,1-3.6.47,22,22,0,0,1-3.44-.12,22,22,0,0,0,3.44.12,23,23,0,0,0,3.6-.47,24.74,24.74,0,0,0,3.4-1A24.74,24.74,0,0,1,103.4,122.63Zm3.4-4.74-.46.06-.79,0c.42,0,.83,0,1.25,0Zm-.24-4.62.24-.07v0a25.44,25.44,0,0,1,3.54-.41v-.17a22.16,22.16,0,0,0,3.26.06l.09.08v.09a23.34,23.34,0,0,0-3.35-.06,25.44,25.44,0,0,0-3.54.41ZM32.3,100.36l.14,0-.14,0Zm6.9.83h.14l-.14,0Zm3.41-.33v0h-.14Zm3.6.16.14,0a27.3,27.3,0,0,1,3.18.59l.13,0v0l-.13,0a27.3,27.3,0,0,0-3.18-.59h-.14Zm7.1,4.66.47.12-.47-.06Zm-10.7,3.65h-.13l.13,0Zm6.83,4.81.22,0v.08a26.41,26.41,0,0,0-3.45.21v-.13A21.79,21.79,0,0,0,49.44,114.14Zm-6.83,12v0a26.24,26.24,0,0,1,3.6.52v0l.14,0-.14,0a26.24,26.24,0,0,0-3.6-.52h-.14q-.78,0-1.56,0,.78,0,1.56,0Zm32.26,7.58v-.18a21.27,21.27,0,0,0,3.51-.59v.18A29.89,29.89,0,0,0,74.87,133.74Zm7.2-.77.25,0c1,0,2,.13,3,.27-1-.14-2-.23-3-.27h-.25Zm7.17,0,.24,0-.24.07Zm3.48-.87v0a28.42,28.42,0,0,1,3.64-.43v0l.24,0-.24,0a28.42,28.42,0,0,0-3.64.43l-.24,0Zm6.85-.39c-.49,0-1,0-1.48,0C98.58,131.68,99.07,131.7,99.57,131.73Zm3.83-.59.24-.06-.24.09Zm3.4-1.09v0l-.24.06Zm3.54-9V121c.4,0,.79,0,1.19,0C111.13,121,110.74,121.05,110.34,121.08Zm0-3.69a23.65,23.65,0,0,0,3.35-1A23.65,23.65,0,0,1,110.34,117.39ZM25.41,86.79l-1.18-.56C24.57,86.37,25,86.55,25.41,86.79Zm3.27,13.4.13,0v0Zm7,4.37v.12a28.24,28.24,0,0,1,3.55.25v-.12a25.23,25.23,0,0,0,3.41.72,24.17,24.17,0,0,0,3.6.22,22.19,22.19,0,0,0,3.35-.3h.1v.11a24.85,24.85,0,0,0-3.45.31v-.13a24.17,24.17,0,0,1-3.6-.22v.12a27.23,27.23,0,0,0-3.41-.72,28.24,28.24,0,0,0-3.55-.25,26.79,26.79,0,0,0-3.35.22v-.12A22.09,22.09,0,0,0,35.65,104.56Zm0,4.62v0l-.13,0Zm-7-1.14h0Zm7,4.7v.12a25.21,25.21,0,0,1,3.55.4v-.12a25.7,25.7,0,0,0,3.41.84v.12a26.09,26.09,0,0,0-3.41-.84,25.21,25.21,0,0,0-3.55-.4,25,25,0,0,0-3.35.07v-.12A22,22,0,0,0,35.65,112.74Zm-3.35,3.68v0l.13,0Zm3.35,4.5V121a27.2,27.2,0,0,1,3.55.54v-.06l.56.19a23.72,23.72,0,0,0,2.29.65l.2,0h-.1l-.1,0a23.72,23.72,0,0,1-2.29-.65l-.56-.13a27.2,27.2,0,0,0-3.55-.54l-.55,0Zm3.55,8.81a25.46,25.46,0,0,0,3.41,1.09v.05l-.35-.05a30,30,0,0,0-3.06-1Zm7,5.54a30.2,30.2,0,0,0-3.6-.64l-.14,0a19.33,19.33,0,0,1-3.13-.17H39.2v0l.14,0a19.33,19.33,0,0,0,3.13.17h.14v0a30.2,30.2,0,0,1,3.6.64v0l.14.05Zm7.1,1.63v-.1a21.64,21.64,0,0,1-3.65-.5h0l-.12,0,.13,0a21.64,21.64,0,0,0,3.65.5c.27,0,.55,0,.82,0Zm2.65-.13.83-.07v.09Zm4.64.38-.14,0v0l.14,0a30.62,30.62,0,0,1,3.23.72A30.62,30.62,0,0,0,60.6,137.15Zm3.37.74a20.63,20.63,0,0,0,3.68.18A20.63,20.63,0,0,1,64,137.89Zm7.2-.28a30.45,30.45,0,0,1,3.7,0A30.45,30.45,0,0,0,71.17,137.61Zm10.9.46V138l1.29-.21Q82.72,137.89,82.07,138.07Zm2.22-.53c.43-.1.86-.21,1.28-.34v.12C85.14,137.38,84.72,137.46,84.29,137.54Zm4.95-.54v-.12c.42.05.85.09,1.28.12Zm3.48.06-.36,0-.92-.07c.43,0,.86,0,1.28,0Zm3.64-.41v-.12c.43-.09.85-.2,1.28-.31C97.21,136.35,96.78,136.5,96.36,136.65Zm7-1.65a28.86,28.86,0,0,0-3.6.62l-1.27.33c.43-.14.85-.29,1.27-.45v.12a28.86,28.86,0,0,1,3.6-.62v-.11q.63,0,1.26,0C104.24,134.92,103.82,135,103.4,135Zm2.14-.15.24,0-.07,0Zm8.15-5.73-.35.07q-1.49,0-3,.21v-.16a22.17,22.17,0,0,0,3.35-.21Zm3.48-8.74v-.1a24.92,24.92,0,0,1-3.48.62h0l-.46.08h-.72c.39,0,.78,0,1.18-.08a24.92,24.92,0,0,0,3.48-.62q.58-.15,1.17-.33Z"/><path class="cls-3" d="M117.17,120.38v2.38h0v.52c.39-1.12.79-2.23,1.19-3.34h0Z"/><path class="cls-4" d="M113.69,129.19v-.07l-.35.07Z"/><path class="cls-4" d="M113.23,121h.46v-.09Z"/><path class="cls-5" d="M113.69,129.12v3.59l.2-.06,1.35-3.9c-.52.11-1,.2-1.55.28Z"/><path class="cls-5" d="M113.69,123.42v1.11a27.06,27.06,0,0,1,3.27-.66l.21-.59v-.52Z"/><path class="cls-6" d="M113.69,132.74a26.54,26.54,0,0,1-3.35,1.24v3.14l2.12-.29c.47-1.4,1-2.79,1.43-4.18l-.2.06Z"/><path class="cls-6" d="M113.69,124.55a25.77,25.77,0,0,1-3.35,1.11v3.58a22.17,22.17,0,0,0,3.35-.21c.52-.08,1-.17,1.55-.28.57-1.64,1.15-3.27,1.72-4.88a27.06,27.06,0,0,0-3.27.66Z"/><path class="cls-6" d="M105.78,134.83l-.07,0h1.09v-.11C106.46,134.77,106.12,134.81,105.78,134.83Z"/><path class="cls-6" d="M106.8,126.39v-.12c-.4,0-.81.07-1.22.08h0C106,126.35,106.39,126.36,106.8,126.39Z"/><path class="cls-5" d="M106.8,121.62a27.58,27.58,0,0,1,3.54-.54V121q-1.75.28-3.54.54Z"/><path class="cls-5" d="M106.8,134.73v2.83l3.54-.44V134A23,23,0,0,1,106.8,134.73Z"/><path class="cls-5" d="M106.8,126.39v3.69a30.2,30.2,0,0,1,3.54-.68v-3.74a23.83,23.83,0,0,1-3.54.61Z"/><path class="cls-3" d="M110.34,129.4a30.2,30.2,0,0,0-3.54.68l-.24.06a24.18,24.18,0,0,1-2.92.94l-.24.09v3.72q.63,0,1.26,0l.88,0,.24,0c.34,0,.68-.06,1-.1a23,23,0,0,0,3.54-.75,26.54,26.54,0,0,0,3.35-1.24v-3.55h-.35Q111.85,129.22,110.34,129.4Z"/><path class="cls-3" d="M110.34,121.08a27.58,27.58,0,0,0-3.54.54v0a24.74,24.74,0,0,1-3.4,1v3.69c.42,0,.83,0,1.25,0h.93c.41,0,.82,0,1.22-.08a22.6,22.6,0,0,0,3.54-.61,25.77,25.77,0,0,0,3.35-1.11V121h-1.18l-1,0C111.13,121,110.74,121.05,110.34,121.08Z"/><path class="cls-4" d="M99.57,131.73h.23v0Z"/><path class="cls-5" d="M103.4,134.77v-3.63a22.11,22.11,0,0,1-3.6.57v3.91a28.86,28.86,0,0,1,3.6-.62v-.23Z"/><path class="cls-5" d="M99.8,126.82v.12a28.35,28.35,0,0,1,3.6-.51v-1.16c-1.19.18-2.39.35-3.6.5Z"/><path class="cls-6" d="M105.71,134.85h-.17l-.88,0c-.42,0-.84.06-1.26.11a28.86,28.86,0,0,0-3.6.62l-1.27.33-.89.27c-.43.13-.86.28-1.28.43v1.93c3.48-.27,7-.61,10.44-1v-2.72Z"/><path class="cls-6" d="M103.4,126.43a28.35,28.35,0,0,0-3.6.51q-.63.14-1.26.3l-.9.24c-.43.13-.86.26-1.28.41v3.79l.24,0a29.37,29.37,0,0,1,3,0l.23,0a22.11,22.11,0,0,0,3.6-.57l.24-.06a24.18,24.18,0,0,0,2.92-.94l.24-.09v-3.66c-.41,0-.82,0-1.23,0h-.92Z"/><path class="cls-6" d="M92.72,137.13v-.07l-.36,0Z"/><path class="cls-6" d="M92.72,128.29v-.1l-.47.05Z"/><path class="cls-5" d="M96.36,131.54v-3.77a22.4,22.4,0,0,1-3.64.4v4a28.42,28.42,0,0,1,3.64-.43v-.18Z"/><path class="cls-5" d="M96.36,136.58v-.05a20.52,20.52,0,0,1-3.64.48v1.83c1.21-.08,2.43-.16,3.64-.26v-2Z"/><path class="cls-3" d="M99.8,131.74h-.23a29.4,29.4,0,0,0-3,0l-.24,0a28.42,28.42,0,0,0-3.64.43l-.24,0a22.69,22.69,0,0,1-3,.75l-.24.07v3.86c.42.05.85.09,1.28.12s.62,0,.92,0,.86,0,1.28,0a20.52,20.52,0,0,0,3.64-.48c.43-.09.85-.2,1.28-.31l.89-.27c.43-.14.85-.29,1.27-.45Z"/><path class="cls-3" d="M92.72,123.34a22.45,22.45,0,0,1-3.48.8V128c.43.06.85.11,1.28.14l.92,0c.43,0,.85,0,1.28,0a22.4,22.4,0,0,0,3.64-.4c.43-.08.85-.18,1.28-.29l.9-.24q.63-.19,1.26-.42V123.1a22,22,0,0,1-3.44-.12c-1.21.13-2.42.24-3.64.35Z"/><path class="cls-4" d="M85.57,133.32v0h-.24Z"/><path class="cls-5" d="M89.24,127.83v-.94c-1.22.1-2.44.19-3.67.26v1.21a28.45,28.45,0,0,1,3.67-.27v-.26Z"/><path class="cls-5" d="M89.24,136.76V133a22.62,22.62,0,0,1-3.67.3v4a28.57,28.57,0,0,1,3.67-.32v-.24Z"/><path class="cls-6" d="M92.36,137.1l-.92-.07c-.3,0-.61,0-.92,0H89.24a28.57,28.57,0,0,0-3.67.32c-.43.06-.85.14-1.28.22s-.62.14-.93.2-.86.21-1.29.33v1.26l1.77-.05c3-.1,5.92-.24,8.88-.44v-1.71Z"/><path class="cls-6" d="M92.72,128.29l-.47,0-.81-.08-.92,0c-.42,0-.85,0-1.28,0a28.45,28.45,0,0,0-3.67.27q-.64.09-1.29.21l-.91.19c-.44.09-.87.2-1.3.32V133l.25,0c1,0,2,.13,3,.27h.24a22.62,22.62,0,0,0,3.67-.3l.24,0a22.69,22.69,0,0,0,3-.75l.24-.08Z"/><path class="cls-5" d="M82.07,132.83V129a21.69,21.69,0,0,1-3.69.13v4.06a28.46,28.46,0,0,1,3.69-.14v-.18Z"/><path class="cls-5" d="M82.07,138V138a21.71,21.71,0,0,1-3.69.16v1.3c1.23,0,2.46,0,3.69-.08V138Z"/><path class="cls-3" d="M85.57,133.32l-.24,0c-1-.14-2-.23-3-.27h-.25a26.79,26.79,0,0,0-3.69.14,29.89,29.89,0,0,0-3.51.59v3.88a29.84,29.84,0,0,1,3.51.46v0a21.71,21.71,0,0,0,3.69-.16l1.29-.21c.31-.06.62-.12.93-.2s.86-.21,1.28-.34Z"/><path class="cls-3" d="M85.57,127.15v-2.76a21.72,21.72,0,0,1-3.5-.34l-4,.13-.88.11c-.34.07-.68.12-1,.17s-.83.16-1.24.26v3.88a27.87,27.87,0,0,1,3.51.46v0a21.69,21.69,0,0,0,3.69-.13c.43-.06.87-.12,1.3-.2l.91-.19c.43-.1.86-.2,1.29-.33Z"/><path class="cls-4" d="M71.17,133.73v-.07h-.35Z"/><path class="cls-4" d="M70.7,124.61l.47.11v-.1Z"/><path class="cls-5" d="M74.87,133.74v-.18a20.78,20.78,0,0,1-3.7,0v4.06a30.45,30.45,0,0,1,3.7,0v-3.88Z"/><path class="cls-5" d="M74.87,127.39h-3.7v1.22a28.55,28.55,0,0,1,3.7,0v-1.21Z"/><path class="cls-6" d="M78.38,138.11v0a27.87,27.87,0,0,0-3.51-.46,30.45,30.45,0,0,0-3.7,0v0a20.9,20.9,0,0,1-3.52.43v1.27q5.37.14,10.73.07Z"/><path class="cls-6" d="M78.38,129.09v0a27.87,27.87,0,0,0-3.51-.46,28.55,28.55,0,0,0-3.7,0v0a22,22,0,0,1-3.52.46V133a21.41,21.41,0,0,0,3.52.6,20.78,20.78,0,0,0,3.7,0,21.27,21.27,0,0,0,3.51-.59Z"/><path class="cls-6" d="M64,137.91v0l-.14,0Z"/><path class="cls-6" d="M64,129v0l-.14,0Z"/><path class="cls-5" d="M64,123.88V124a28.3,28.3,0,0,1,3.68.13V124C66.42,124,65.2,123.94,64,123.88Z"/><path class="cls-5" d="M67.65,132.8v-3.72a22.66,22.66,0,0,1-3.68-.15v4a28.33,28.33,0,0,1,3.68.17v-.33Z"/><path class="cls-5" d="M64,137.89v1.33l3.46.11h.22v-1.27A20.63,20.63,0,0,1,64,137.89Z"/><path class="cls-3" d="M71.17,133.73l-.35-.08a28.68,28.68,0,0,0-3.17-.52A28.33,28.33,0,0,0,64,133a29.32,29.32,0,0,0-3.51.29v3.86l.14,0a30.62,30.62,0,0,1,3.23.72l.14,0a20.63,20.63,0,0,0,3.68.18,20.9,20.9,0,0,0,3.52-.43v-3.91Z"/><path class="cls-3" d="M71.17,127.38v-2.66l-.47-.11-.78-.15-1-.17c-.41-.06-.83-.12-1.25-.16A28.3,28.3,0,0,0,64,124l-.58,0a23.36,23.36,0,0,1-2.35.23l-.58.08v3.86l.14,0a30.37,30.37,0,0,1,3.23.67l.14,0a22.66,22.66,0,0,0,3.68.15,22,22,0,0,0,3.52-.46v-1.24Z"/><path class="cls-4" d="M56.79,132.86Z"/><path class="cls-5" d="M60.46,128.06v-1c-1.23-.08-2.45-.17-3.67-.27v1.19a30.22,30.22,0,0,1,3.67.28v-.16Z"/><path class="cls-5" d="M60.46,137v-3.87a21.65,21.65,0,0,1-3.67-.31v.05h0v3.93a30.34,30.34,0,0,1,3.67.34V137Z"/><path class="cls-6" d="M63.83,137.87a30.62,30.62,0,0,0-3.23-.72l-.14,0a30.34,30.34,0,0,0-3.67-.34l-.83,0q-.91.07-1.83.06l-.82.07c0,.56,0,1.13,0,1.69q5.32.42,10.66.63v-1.31Z"/><path class="cls-6" d="M64,129l-.14,0a30.37,30.37,0,0,0-3.23-.67l-.14,0a30.22,30.22,0,0,0-3.67-.28H56c-.61,0-1.22.09-1.83.09-.27,0-.55.05-.82.09,0,1.21,0,2.43,0,3.65v.15l.47.15c.85.17,1.69.39,2.53.64l.48.09a21.65,21.65,0,0,0,3.67.31,20.78,20.78,0,0,0,3.51-.29Z"/><path class="cls-6" d="M49.66,136.32h0Z"/><path class="cls-6" d="M49.56,127.6h0l.13,0v0Z"/><path class="cls-5" d="M53.31,131.78c0-1.22,0-2.44,0-3.65V128a21.47,21.47,0,0,1-3.65-.41v3.91a28.64,28.64,0,0,1,3.65.45v-.2Z"/><path class="cls-5" d="M53.31,136.82v0a21.64,21.64,0,0,1-3.65-.5h0v2c1.22.11,2.43.22,3.65.31v-1.77Z"/><path class="cls-3" d="M56.79,132.86h0l-.46-.14c-.84-.25-1.68-.47-2.53-.64l-.47-.1a28.64,28.64,0,0,0-3.65-.45,26.47,26.47,0,0,0-3.45,0v3.71l.14.05a32.12,32.12,0,0,1,3.18,1l.13,0a21.64,21.64,0,0,0,3.65.5c.27,0,.55,0,.82,0q.91,0,1.83-.06l.83-.07Z"/><path class="cls-3" d="M49.66,127.62a21.47,21.47,0,0,0,3.65.41c.27,0,.55,0,.82,0,.61,0,1.22,0,1.83-.09l.83-.1V124a22.45,22.45,0,0,1-3.48-.8c-1.22-.11-2.44-.24-3.66-.37H49.1a22.48,22.48,0,0,1-2.32.08l-.57,0v3.72l.14,0a28.22,28.22,0,0,1,3.17.88h0Z"/><path class="cls-4" d="M42.26,130.82l.35.13v-.08Z"/><path class="cls-4" d="M42.25,122.35h-.1l.46.16v-.07Z"/><path class="cls-5" d="M46.21,135.13v-3.72a22.51,22.51,0,0,1-3.6-.59v3.81a30.2,30.2,0,0,1,3.6.64v-.14Z"/><path class="cls-5" d="M46.21,126.7v-1.16l-3.6-.5v1.14A26.24,26.24,0,0,1,46.21,126.7Z"/><path class="cls-6" d="M49.65,136.31l-.12,0a32.12,32.12,0,0,0-3.18-1l-.14,0a30.2,30.2,0,0,0-3.6-.64l-.14,0a19.33,19.33,0,0,1-3.13-.17H39.2v2.68q5.22.67,10.46,1.16v-2Z"/><path class="cls-6" d="M46.21,131.41a20.91,20.91,0,0,0,3.45,0v-3.76l-.13,0h0a28.22,28.22,0,0,0-3.17-.88l-.14,0a26.24,26.24,0,0,0-3.6-.52h-.14a20.45,20.45,0,0,1-3.13-.06H39.2v3.61a25.46,25.46,0,0,0,3.41,1.09A22.51,22.51,0,0,0,46.21,131.41Z"/><path class="cls-6" d="M35.65,125.49v0l-.13,0Z"/><path class="cls-5" d="M35.65,120.91h0V121a27.2,27.2,0,0,1,3.55.54v-.06Z"/><path class="cls-5" d="M39.2,129.73V126.1a22,22,0,0,1-3.55-.63v2.41l.47,1.34a28.53,28.53,0,0,1,3.08.63Z"/><path class="cls-5" d="M39.2,134.42c-.46-.06-.92-.14-1.37-.23l1,2.88.4.05v-2.7Z"/><path class="cls-3" d="M39.34,134.44a19.33,19.33,0,0,0,3.13.17h.14V131l-.35-.13a30,30,0,0,0-3.06-1,28.53,28.53,0,0,0-3.08-.63q.85,2.46,1.71,5c.45.09.91.17,1.37.23Z"/><path class="cls-3" d="M35.52,125.44l.13,0a22,22,0,0,0,3.55.63h.14a20.45,20.45,0,0,0,3.13.06h.14V122.5l-.46-.16-.1,0a23.72,23.72,0,0,1-2.29-.65l-.56-.13a27.2,27.2,0,0,0-3.55-.54l-.55,0c-.63,0-1.26,0-1.9,0,.5,1.39,1,2.8,1.49,4.22Z"/><path class="cls-6" d="M35.52,125.44l-.83-.31,1,2.75v-2.39Z"/><path class="cls-3" d="M130.38,89.09c0-.09.07-.17.1-.25l-.1,0Z"/><path class="cls-4" d="M127.05,91.79v-.06l-.31.06Z"/><path class="cls-5" d="M127.05,97.06c.14-.34.28-.67.41-1h-.41Z"/><path class="cls-5" d="M129.44,88.65c-.79,0-1.59,0-2.39-.11v3.38c.72,0,1.43-.07,2.14,0,.4-.94.79-1.87,1.19-2.78v-.27Z"/><path class="cls-6" d="M123.85,103.33h.72c.49-1.27,1-2.52,1.47-3.76-.73.13-1.46.29-2.19.49Z"/><path class="cls-6" d="M123.85,92.37v3.27h0a24.26,24.26,0,0,1,3.2.33V96h.41l1.73-4.18c-.71,0-1.42,0-2.14,0A22.19,22.19,0,0,0,123.85,92.37Z"/><path class="cls-6" d="M123.85,88a23,23,0,0,1,3.2.52v.06c.8.07,1.6.11,2.39.11q-2.79-.48-5.59-.92V88Z"/><path class="cls-6" d="M120,111.6l.49-.1v-.16c-.36.12-.71.24-1.07.34Z"/><path class="cls-6" d="M119.51,103.73l.7-.06.24,0v-.16C120.13,103.57,119.82,103.65,119.51,103.73Z"/><path class="cls-6" d="M120.45,95.76v-.15l-.82.18Z"/><path class="cls-6" d="M120.45,87.74l-.69.12h.69Z"/><path class="cls-5" d="M120.45,111.34v.16q.54-.12,1.08-.21l1.35-3.57q-1.22.18-2.43.24Z"/><path class="cls-5" d="M123.85,92.18a24.1,24.1,0,0,1-3.4,0v3.54h0a22.78,22.78,0,0,1,3.4-.11h0V92.18Z"/><path class="cls-5" d="M120.45,103.47v.16a24.53,24.53,0,0,1,3.4-.3V99.87a24.17,24.17,0,0,1-3.4.22Z"/><path class="cls-5" d="M120.45,87.87v0a21.43,21.43,0,0,1,3.4.06v-.23c-1.13-.18-2.27-.35-3.4-.51v.65Z"/><path class="cls-3" d="M120,111.6q-1.39.33-2.79.81v3.46a24.44,24.44,0,0,1,2.7-.09c.55-1.51,1.11-3,1.66-4.49q-.54.09-1.08.21Z"/><path class="cls-3" d="M120.45,103.63l-.24,0a23.51,23.51,0,0,0-3,.72v3.45a25.57,25.57,0,0,1,3.28.09v0q1.22-.06,2.43-.24c.56-1.48,1.12-3,1.69-4.39h-.72A24.53,24.53,0,0,0,120.45,103.63Z"/><path class="cls-3" d="M127.05,96V96a24.26,24.26,0,0,0-3.2-.33,22.78,22.78,0,0,0-3.4.11,23.31,23.31,0,0,0-3.28.6v3.45a25.59,25.59,0,0,1,3.28.25v0a24.17,24.17,0,0,0,3.4-.22c.75-.1,1.5-.24,2.24-.4.32-.81.64-1.62,1-2.41Z"/><path class="cls-3" d="M123.85,88a22.68,22.68,0,0,0-6.68.37v3.45a24.12,24.12,0,0,1,3.28.42v0a24.1,24.1,0,0,0,3.4,0,25.4,25.4,0,0,0,2.89-.39l.31-.06V88.48A23,23,0,0,0,123.85,88Z"/><path class="cls-4" d="M113.69,96.51h0Z"/><path class="cls-4" d="M113.56,88.3l.13,0v0Z"/><path class="cls-5" d="M113.69,112.71v3.69a24.61,24.61,0,0,1,3.48-.53v-3.62A23,23,0,0,1,113.69,112.71Z"/><path class="cls-5" d="M113.69,104.53v3.68a25.69,25.69,0,0,1,3.48-.37v-3.62A24.06,24.06,0,0,1,113.69,104.53Z"/><path class="cls-5" d="M113.69,96.34v.16h0V100a23.92,23.92,0,0,1,3.48-.22V96.2A23.84,23.84,0,0,1,113.69,96.34Z"/><path class="cls-5" d="M113.69,121v2.42l3.48-.66h0v-2.48a24.92,24.92,0,0,1-3.48.62h0Z"/><path class="cls-5" d="M113.69,88.32v3.52a25.27,25.27,0,0,1,3.48-.06V88.17a26.94,26.94,0,0,1-3.48,0v.16Z"/><path class="cls-6" d="M117.17,115.87a24.61,24.61,0,0,0-3.48.53v0a23.65,23.65,0,0,1-3.35,1V121c.4,0,.79,0,1.19,0l1,0c.39,0,.78,0,1.18-.08a24.92,24.92,0,0,0,3.48-.62q.58-.15,1.17-.33h0c.5-1.4,1-2.79,1.51-4.16A24.44,24.44,0,0,0,117.17,115.87Z"/><path class="cls-6" d="M113.69,108.21v0a26,26,0,0,1-3.35.83v3.58a20.83,20.83,0,0,0,3.35.06,23,23,0,0,0,3.48-.46,21.73,21.73,0,0,0,2.21-.57c.36-.1.71-.22,1.07-.34v-3.41a25.44,25.44,0,0,0-6.76.28Z"/><path class="cls-6" d="M113.69,100v0a24,24,0,0,1-3.35.69v3.58a22.17,22.17,0,0,0,3.35.21,24.06,24.06,0,0,0,3.48-.31c.78-.12,1.56-.29,2.34-.49.31-.08.62-.16.94-.26v-3.41a25.59,25.59,0,0,0-3.28-.25A23.92,23.92,0,0,0,113.69,100Z"/><path class="cls-6" d="M113.69,91.84v0a25.16,25.16,0,0,1-3.35.55V96a22.38,22.38,0,0,0,3.35.34,23.84,23.84,0,0,0,3.48-.14c.82-.1,1.65-.23,2.46-.41l.82-.18V92.2a24.12,24.12,0,0,0-3.28-.42A25.27,25.27,0,0,0,113.69,91.84Z"/><path class="cls-6" d="M110.34,87.68a24.13,24.13,0,0,0,3.35.48,26.94,26.94,0,0,0,3.48,0,25.06,25.06,0,0,0,2.59-.31l.69-.12v-.52q-5-.73-10.11-1.3v1.76Z"/><path class="cls-6" d="M106.8,118v-.1l-.46.06Z"/><path class="cls-6" d="M106.8,121.51q1.78-.26,3.54-.54v-1l-3.54.52Z"/><path class="cls-6" d="M106.8,109.53v-.11h-.1l-.47,0Z"/><path class="cls-6" d="M106.8,101.08V101h-.35l-.34,0Z"/><path class="cls-6" d="M106.8,92.62v-.11l-.58,0H106Z"/><path class="cls-5" d="M106.8,87.83v0a23.26,23.26,0,0,1,3.54,0V85.92l-3.54-.38Z"/><path class="cls-5" d="M106.8,117.88h0v2.59c1.19-.16,2.37-.34,3.54-.52v-2.57A23.55,23.55,0,0,1,106.8,117.88Z"/><path class="cls-5" d="M106.8,109.53v3.7a25.44,25.44,0,0,1,3.54-.41v-3.75a24.68,24.68,0,0,1-3.54.35Z"/><path class="cls-5" d="M106.8,101.08v3.69a25.07,25.07,0,0,1,3.54-.28v-3.75a23.22,23.22,0,0,1-3.54.22Z"/><path class="cls-5" d="M106.8,96.28v0a24.78,24.78,0,0,1,3.54-.14V92.42a24.55,24.55,0,0,1-3.54.09v3.77Z"/><path class="cls-3" d="M113.69,112.88a23.34,23.34,0,0,0-3.35-.06,25.44,25.44,0,0,0-3.54.41l-.24,0a25,25,0,0,1-2.92.75l-.24.07v3.71c.42,0,.83.08,1.25.09l.9,0c.42,0,.83,0,1.25,0a24.49,24.49,0,0,0,6.89-1.46v-3.54Z"/><path class="cls-3" d="M110.34,104.49a25.07,25.07,0,0,0-3.54.28l-.24,0a24.54,24.54,0,0,1-2.92.64l-.24.07v3.71c.42.06.83.1,1.25.13l.9,0c.38,0,.77,0,1.15,0h.1a24.68,24.68,0,0,0,3.54-.35,26,26,0,0,0,3.35-.83v-3.55A24.8,24.8,0,0,0,110.34,104.49Z"/><path class="cls-3" d="M110.34,96.17a24.78,24.78,0,0,0-3.54.14l-.24,0a24.22,24.22,0,0,1-2.92.55l-.24.06v3.71c.42.07.83.13,1.25.17l.9.08.9,0h.35a23.22,23.22,0,0,0,3.54-.22,24,24,0,0,0,3.35-.69V96.51h0A24.71,24.71,0,0,0,110.34,96.17Z"/><path class="cls-3" d="M103.4,92v.07c.42.09.83.16,1.25.21l.9.11.67.06.58,0a24.55,24.55,0,0,0,3.54-.09,25.16,25.16,0,0,0,3.35-.55V88.32l-.13,0a23,23,0,0,0-6.76-.44l-.24,0a26.05,26.05,0,0,1-2.92.45l-.24,0Z"/><path class="cls-4" d="M99.8,97.09Z"/><path class="cls-4" d="M99.67,88.39l.13,0v0Z"/><path class="cls-5" d="M99.8,97.06v0h0V101a25.71,25.71,0,0,1,3.6-.19V96.92A22.73,22.73,0,0,1,99.8,97.06Z"/><path class="cls-5" d="M99.8,105.74v3.91a24.51,24.51,0,0,1,3.6-.3v-3.86A22.77,22.77,0,0,1,99.8,105.74Z"/><path class="cls-5" d="M99.8,114.42v3.9a27.92,27.92,0,0,1,3.6-.4v-3.86A24.13,24.13,0,0,1,99.8,114.42Z"/><path class="cls-5" d="M99.8,124v1.79c1.21-.15,2.41-.32,3.6-.5v-2.64a23,23,0,0,1-3.6.47Z"/><path class="cls-5" d="M99.8,88.42v3.87a24.11,24.11,0,0,1,3.6-.08V88.36h0a25.41,25.41,0,0,1-3.6,0h0Z"/><path class="cls-6" d="M103.4,117.92a27.92,27.92,0,0,0-3.6.4q-.63.12-1.26.27l-.91.22c-.42.11-.85.24-1.27.37V123a22,22,0,0,0,3.44.12,23,23,0,0,0,3.6-.47,24.74,24.74,0,0,0,3.4-1V118l-.46,0-.79,0-.9,0Z"/><path class="cls-6" d="M106.8,109.53l-.57-.06-.68-.06-.9,0c-.41,0-.83,0-1.25,0a24.51,24.51,0,0,0-3.6.3c-.41.06-.83.14-1.25.22s-.62.14-.93.21-.84.21-1.26.34v3.79a2,2,0,0,0,.24,0,29.23,29.23,0,0,1,3,.18h.23a24.13,24.13,0,0,0,3.6-.36l.24,0a25,25,0,0,0,2.92-.75l.24-.07Z"/><path class="cls-6" d="M103.4,100.78a25.71,25.71,0,0,0-3.6.19c-.42,0-.84.12-1.26.19s-.6.13-.9.18-.86.2-1.28.31v3.8l.24,0a26.25,26.25,0,0,1,3,.26h.24a22.77,22.77,0,0,0,3.6-.25l.24,0a24.54,24.54,0,0,0,2.92-.64l.24-.07v-3.66l-.69-.1-.56-.07-.9-.08Z"/><path class="cls-6" d="M96.36,96.61v.07l.24,0a26.8,26.8,0,0,1,3,.33h.24a22.73,22.73,0,0,0,3.6-.14l.24,0a24.22,24.22,0,0,0,2.92-.55l.24-.06V92.62l-.82-.14-.43-.07-.9-.11c-.41,0-.83-.07-1.25-.09a24.11,24.11,0,0,0-3.6.08l-1.26.16-.91.16c-.43.08-.85.17-1.27.27Z"/><path class="cls-6" d="M96.36,87.92l.24,0a26.85,26.85,0,0,1,3,.41l.23,0a25.41,25.41,0,0,0,3.6,0l.24,0a26.05,26.05,0,0,0,2.92-.45l.24,0V85.54c-3.47-.35-7-.64-10.44-.88v3.26Z"/><path class="cls-6" d="M92.72,123.33c1.22-.11,2.43-.22,3.64-.35v-1.21c-1.21.12-2.42.24-3.64.34Z"/><path class="cls-6" d="M92.72,101.81Z"/><path class="cls-6" d="M92.59,92.94l.13,0v0Z"/><path class="cls-5" d="M92.72,110.54v4a26.34,26.34,0,0,1,3.64-.27v-4A22.19,22.19,0,0,1,92.72,110.54Z"/><path class="cls-5" d="M92.72,119.39v2.72c1.22-.1,2.43-.22,3.64-.34v-2.71A22.29,22.29,0,0,1,92.72,119.39Z"/><path class="cls-5" d="M92.72,88v0a23.3,23.3,0,0,1,3.64,0V84.66l-3.64-.23Z"/><path class="cls-5" d="M92.72,101.7v.11h0v3.87a24.76,24.76,0,0,1,3.64-.2v-4A23.3,23.3,0,0,1,92.72,101.7Z"/><path class="cls-5" d="M92.72,93v3.86a24.65,24.65,0,0,1,3.64-.12V92.77a23.27,23.27,0,0,1-3.64.08V93Z"/><path class="cls-3" d="M96.36,114.25a26.34,26.34,0,0,0-3.64.27l-.24,0a22.26,22.26,0,0,1-3,.64l-.24.07v3.86c.43.06.85.12,1.28.16l.92.07c.43,0,.85,0,1.28,0a22.29,22.29,0,0,0,3.64-.33c.42-.07.85-.15,1.27-.25l.91-.22c.42-.12.84-.24,1.26-.38v-3.76l-.23,0a29.23,29.23,0,0,0-3-.18Z"/><path class="cls-3" d="M99.8,105.77l-.24,0a26.25,26.25,0,0,0-3-.26h-.24a24.76,24.76,0,0,0-3.64.2l-.24,0a23.74,23.74,0,0,1-3,.59l-.24.06v3.86q.65.11,1.29.18l.91.09c.42,0,.85.05,1.28.05a22.19,22.19,0,0,0,3.64-.24c.42-.06.84-.14,1.26-.22s.62-.13.93-.21.84-.21,1.25-.34Z"/><path class="cls-3" d="M89.24,101.26v0c.42.08.85.15,1.28.21s.61.06.92.1l1.28.08a23.3,23.3,0,0,0,3.64-.17c.43,0,.85-.11,1.28-.19s.6-.11.9-.18.84-.19,1.26-.31V97.09h0l-.23,0a26.8,26.8,0,0,0-3-.33h-.24a24.65,24.65,0,0,0-3.64.12l-.24,0a23.55,23.55,0,0,1-3,.53l-.24.06Z"/><path class="cls-3" d="M89.24,92.33v.07c.43.09.86.17,1.28.23s.61.07.92.12.85.08,1.28.1a23.27,23.27,0,0,0,3.64-.08l1.27-.16.91-.16c.42-.08.85-.17,1.26-.27V88.42l-.13,0-.1,0a26.85,26.85,0,0,0-3-.41h-.24a23.3,23.3,0,0,0-3.64,0l-.24,0a25.31,25.31,0,0,1-3,.48l-.24.06Z"/><polygon class="cls-4" points="85.56 97.55 85.57 97.55 85.57 97.55 85.56 97.55"/><path class="cls-4" d="M85.44,88.56l.13,0v0Z"/><path class="cls-5" d="M85.57,115.43v4a26.68,26.68,0,0,1,3.67-.22v-4A22.52,22.52,0,0,1,85.57,115.43Z"/><path class="cls-5" d="M85.57,106.47v4a25.12,25.12,0,0,1,3.67-.17v-4A23.67,23.67,0,0,1,85.57,106.47Z"/><path class="cls-5" d="M85.57,124.39v2.76c1.23-.07,2.45-.16,3.67-.26v-2.75A21.5,21.5,0,0,1,85.57,124.39Z"/><path class="cls-5" d="M85.57,97.55v4a25.06,25.06,0,0,1,3.67-.12v-4a22.48,22.48,0,0,1-3.67.09v0Z"/><path class="cls-5" d="M85.57,88.59v4a26.49,26.49,0,0,1,3.67-.07v-4h0a23.65,23.65,0,0,1-3.67,0h0Z"/><path class="cls-6" d="M85.57,119.47c-.43,0-.86.12-1.28.19s-.62.13-.93.18-.86.2-1.29.31v3.9a21.72,21.72,0,0,0,3.5.34,21.5,21.5,0,0,0,3.67-.25,22.45,22.45,0,0,0,3.48-.8h0V119.5c-.42-.06-.85-.1-1.28-.14l-.92-.07c-.43,0-.85,0-1.28,0A26.68,26.68,0,0,0,85.57,119.47Z"/><path class="cls-6" d="M85.57,110.51c-.43,0-.86.11-1.28.18l-.93.17-1.29.29v3.9l.25,0c1,.06,2,.17,3,.33h.24a22.52,22.52,0,0,0,3.67-.19l.24,0a22.26,22.26,0,0,0,3-.64l.24-.07v-3.83c-.43-.07-.85-.13-1.28-.17l-.91-.09q-.65,0-1.29-.06A25.12,25.12,0,0,0,85.57,110.51Z"/><path class="cls-6" d="M92.72,101.81h0c-.42-.07-.84-.14-1.26-.19s-.61-.08-.92-.1-.85-.07-1.28-.09a25.06,25.06,0,0,0-3.67.12c-.42,0-.85.1-1.28.16s-.62.12-.93.17-.86.18-1.29.28v3.9l.24,0a25.64,25.64,0,0,1,3,.36h.24a23.67,23.67,0,0,0,3.67-.14l.24,0a23.74,23.74,0,0,0,3-.59l.24-.06Z"/><path class="cls-6" d="M82.07,97v.07l.24,0a25.72,25.72,0,0,1,3,.39h.24a22.48,22.48,0,0,0,3.67-.09l.24,0a23.55,23.55,0,0,0,3-.53l.24-.06V93l-.13,0c-.38-.07-.77-.14-1.15-.19s-.61-.09-.92-.12-.85-.08-1.28-.11a25,25,0,0,0-3.67.07q-.64.06-1.29.15c-.3.06-.61.11-.91.15s-.87.17-1.3.28Z"/><path class="cls-6" d="M82.07,88v.1l.24.05a25.8,25.8,0,0,1,3,.42l.24,0a23.65,23.65,0,0,0,3.67,0l.24,0a25.31,25.31,0,0,0,3-.48l.24-.05V84.43c-3-.16-5.92-.29-8.88-.37l-1.1,0-.67.14Z"/><path class="cls-6" d="M82.07,122.8q-1.84.08-3.69.12V124l-.71.16H78l4-.13Z"/><path class="cls-6" d="M78.38,115.13V115l-.59.14Z"/><path class="cls-6" d="M78.38,106l-.47.1h.47Z"/><path class="cls-6" d="M78.38,97l-.34.08h.34Z"/><path class="cls-6" d="M78.38,88l-.23.05h.23Z"/><path class="cls-5" d="M78.38,111.13v4.06a26.77,26.77,0,0,1,3.69-.11v-4A22.76,22.76,0,0,1,78.38,111.13Z"/><path class="cls-5" d="M78.38,120.14v2.78q1.84,0,3.69-.12V120A21.68,21.68,0,0,1,78.38,120.14Z"/><path class="cls-5" d="M78.38,88.14a23.93,23.93,0,0,1,3.69,0v-4a23.93,23.93,0,0,1-3.69,0v4.06Z"/><path class="cls-5" d="M78.38,106v.18a26.75,26.75,0,0,1,3.69-.08v-4a23.94,23.94,0,0,1-3.69.07Z"/><path class="cls-5" d="M78.38,97v.18a25.26,25.26,0,0,1,3.69-.05v-4a23.93,23.93,0,0,1-3.69,0Z"/><path class="cls-3" d="M78.38,115.19a26.19,26.19,0,0,0-3.51.57v3.88a27.9,27.9,0,0,1,3.51.47v0a21.68,21.68,0,0,0,3.69-.11c.43,0,.86-.11,1.29-.19s.62-.11.93-.18.86-.2,1.28-.31v-3.89l-.24,0c-1-.16-2-.27-3-.33h-.25A26.77,26.77,0,0,0,78.38,115.19Z"/><path class="cls-3" d="M78.38,106.17a26.19,26.19,0,0,0-3.51.57v3.88a26.2,26.2,0,0,1,3.51.48v0a22.76,22.76,0,0,0,3.69-.1c.43,0,.86-.1,1.29-.17l.93-.17c.43-.09.86-.19,1.28-.3v-3.88l-.24-.05a25.64,25.64,0,0,0-3-.36h-.24A26.75,26.75,0,0,0,78.38,106.17Z"/><path class="cls-3" d="M74.87,101.58v0a26.2,26.2,0,0,1,3.51.48v0a22.74,22.74,0,0,0,3.69-.07c.43,0,.86-.1,1.29-.16s.62-.1.93-.17.86-.17,1.28-.28V97.55h0l-.23,0a25.72,25.72,0,0,0-3-.39h-.24a25.26,25.26,0,0,0-3.69.05,24.68,24.68,0,0,0-3.51.57Z"/><path class="cls-3" d="M78.38,88.14a24.63,24.63,0,0,0-3.51.55v3.88a24.72,24.72,0,0,1,3.51.5v0a23.93,23.93,0,0,0,3.69,0c.43,0,.87-.09,1.3-.16s.61-.09.91-.15.86-.17,1.29-.27V88.59l-.13,0-.11,0a25.51,25.51,0,0,0-3-.42l-.24,0A23.93,23.93,0,0,0,78.38,88.14Z"/><path class="cls-3" d="M78.38,84.08a23.93,23.93,0,0,0,3.69,0l.36,0c-1.52,0-3.05-.06-4.57-.08l.52.11Z"/><polygon class="cls-4" points="71.17 97.73 71.17 97.73 71.17 97.73 71.17 97.73"/><path class="cls-4" d="M71.17,88.69h-.12l.12,0Z"/><path class="cls-5" d="M74.87,115.76v-.18a22.85,22.85,0,0,1-3.7,0v4.06a28.55,28.55,0,0,1,3.7,0v-3.88Z"/><path class="cls-5" d="M74.87,124.6a21.77,21.77,0,0,1-3.7,0v2.78h3.7V124.6Z"/><path class="cls-5" d="M74.87,110.62v-4.06a24.05,24.05,0,0,1-3.7,0v4.06A26.88,26.88,0,0,1,74.87,110.62Z"/><path class="cls-5" d="M71.17,97.73v3.88a25.39,25.39,0,0,1,3.7,0V97.53a22.86,22.86,0,0,1-3.7,0v.18Z"/><path class="cls-5" d="M71.17,88.72V92.6a25.39,25.39,0,0,1,3.7,0V88.51a25.39,25.39,0,0,1-3.7,0v.18Z"/><path class="cls-6" d="M78.38,124v-3.91a27.9,27.9,0,0,0-3.51-.47,28.55,28.55,0,0,0-3.7,0v0a21,21,0,0,1-3.52.47V124c.42.11.83.2,1.25.28l1,.17c.42.06.83.1,1.25.14a21.77,21.77,0,0,0,3.7,0c.41,0,.83-.08,1.24-.14s.69-.1,1-.17l.53-.11Z"/><path class="cls-6" d="M74.87,115.58a22.38,22.38,0,0,0,2.92-.44l.59-.14v-3.9a26.2,26.2,0,0,0-3.51-.48,26.88,26.88,0,0,0-3.7,0v0a23.29,23.29,0,0,1-3.52.49V115a22.42,22.42,0,0,0,3.52.56A22.85,22.85,0,0,0,74.87,115.58Z"/><path class="cls-6" d="M67.65,102.15V106a22.39,22.39,0,0,0,3.52.55,24.05,24.05,0,0,0,3.7,0,22.57,22.57,0,0,0,3-.47l.47-.1v-3.91a26.2,26.2,0,0,0-3.51-.48,25.39,25.39,0,0,0-3.7,0v0A23.33,23.33,0,0,1,67.65,102.15Z"/><path class="cls-6" d="M67.65,93.16V97a23.54,23.54,0,0,0,3.52.52,22.86,22.86,0,0,0,3.7,0A24.51,24.51,0,0,0,78,97.05l.34-.08v-3.9a24.72,24.72,0,0,0-3.51-.5,25.39,25.39,0,0,0-3.7,0v0A24.72,24.72,0,0,1,67.65,93.16Z"/><path class="cls-6" d="M67.65,87.94V88a23.52,23.52,0,0,0,3.52.51,25.39,25.39,0,0,0,3.7,0,24.52,24.52,0,0,0,3.28-.5l.23-.05V84.05l-.52-.11q-4.31,0-8.61,0c-.53.08-1.06.14-1.6.18Z"/><path class="cls-6" d="M64,120.05h0Z"/><path class="cls-6" d="M67.65,122.92c-1.23,0-2.46-.07-3.68-.12v1.08c1.22.06,2.45.1,3.68.13Z"/><path class="cls-6" d="M63.89,111.07h0l.12,0v0Z"/><path class="cls-6" d="M63.83,102.1l.14,0v0Z"/><path class="cls-6" d="M63.83,93.15l.14,0v0Z"/><path class="cls-6" d="M63.83,84.19l.14,0v0Z"/><path class="cls-5" d="M67.65,88.21v-4a23.8,23.8,0,0,1-3.68,0v4A25.11,25.11,0,0,1,67.65,88.21Z"/><path class="cls-5" d="M67.65,97.21v-4a25.11,25.11,0,0,1-3.68,0v4A25.11,25.11,0,0,1,67.65,97.21Z"/><path class="cls-5" d="M67.65,115.2v-4a21.55,21.55,0,0,1-3.68-.08v4A25.13,25.13,0,0,1,67.65,115.2Z"/><path class="cls-5" d="M67.65,106v-3.82a22.61,22.61,0,0,1-3.68,0v4a26.59,26.59,0,0,1,3.68,0V106Z"/><path class="cls-5" d="M67.65,121.06v-.92A21.56,21.56,0,0,1,64,120v0h0v2.75c1.22,0,2.46.09,3.68.12Z"/><path class="cls-3" d="M67.65,120.14a21,21,0,0,0,3.52-.47v-3.9a26.33,26.33,0,0,0-3.52-.57,25.13,25.13,0,0,0-3.68-.09,25.82,25.82,0,0,0-3.51.39v3.86l.14,0a30.18,30.18,0,0,1,3.23.63H64A21.56,21.56,0,0,0,67.65,120.14Z"/><path class="cls-3" d="M64,111.07a22.62,22.62,0,0,0,3.68.08,23.29,23.29,0,0,0,3.52-.49v-3.91a28,28,0,0,0-3.52-.55,26.59,26.59,0,0,0-3.68,0,25.9,25.9,0,0,0-3.51.44v3.86l.14,0a27.7,27.7,0,0,1,3.23.58H64Z"/><path class="cls-3" d="M63.83,102.1l.14,0a22.61,22.61,0,0,0,3.68,0,23.33,23.33,0,0,0,3.52-.51V97.73h0a26.06,26.06,0,0,0-3.51-.52,25.11,25.11,0,0,0-3.68,0,24.5,24.5,0,0,0-3.51.49v3.86l.14,0A27.52,27.52,0,0,1,63.83,102.1Z"/><path class="cls-3" d="M63.83,93.15H64a25.11,25.11,0,0,0,3.68,0,24.72,24.72,0,0,0,3.52-.53V88.72l-.12,0a26.24,26.24,0,0,0-3.4-.48,26.59,26.59,0,0,0-3.68,0,26.11,26.11,0,0,0-3.51.54v3.86l.14,0A23.78,23.78,0,0,1,63.83,93.15Z"/><path class="cls-3" d="M64,84.2a23.8,23.8,0,0,0,3.68,0c.54,0,1.07-.1,1.6-.18l-1.82,0-3.92.12.32.06Z"/><path class="cls-4" d="M56.79,119.07l-.35.05.35,0Z"/><path class="cls-4" d="M56.79,110.22l-.22,0h.22Z"/><path class="cls-4" d="M56.79,101.38l-.11,0h.11Z"/><path class="cls-5" d="M56.79,92.53v.1a23.67,23.67,0,0,1,3.67,0v-4a23.67,23.67,0,0,1-3.67,0v3.89Z"/><path class="cls-5" d="M56.79,101.38v.09a25,25,0,0,1,3.67.09v-4a23.67,23.67,0,0,1-3.67-.05v3.89Z"/><path class="cls-5" d="M60.46,110.42v-4a22.52,22.52,0,0,1-3.67-.12v4a25,25,0,0,1,3.67.15v0Z"/><path class="cls-5" d="M56.79,119.16a26.58,26.58,0,0,1,3.67.22v-4a22.57,22.57,0,0,1-3.67-.18v4Z"/><path class="cls-5" d="M60.46,125.18v-.91a21.57,21.57,0,0,1-3.67-.25v2.73c1.22.1,2.44.19,3.67.27Z"/><path class="cls-6" d="M60.46,124.27H61a23.36,23.36,0,0,0,2.35-.23l.58-.09v-3.89h0l-.12,0a30.18,30.18,0,0,0-3.23-.63h-.14a26.58,26.58,0,0,0-3.67-.22l-.83,0c-.61.07-1.22.12-1.83.14l-.82.1v3.8a22.45,22.45,0,0,0,3.48.8A21.57,21.57,0,0,0,60.46,124.27Z"/><path class="cls-6" d="M60.46,115.36A22,22,0,0,0,64,115v-3.89l-.12,0h0a27.7,27.7,0,0,0-3.23-.58h-.14a25,25,0,0,0-3.67-.15l-.83,0q-.91.14-1.83.18l-.82.12v0c0,1.25,0,2.51,0,3.76v0l.47.13c.85.14,1.69.31,2.53.53l.48.07A22.57,22.57,0,0,0,60.46,115.36Z"/><path class="cls-6" d="M60.46,106.45A22.14,22.14,0,0,0,64,106v-3.88l-.14,0a27.52,27.52,0,0,0-3.23-.53h-.14a25,25,0,0,0-3.67-.09c-.28,0-.56,0-.84.06-.6.09-1.21.16-1.81.21l-.83.14q0,1.88,0,3.75v.05l.47.12a24.5,24.5,0,0,1,2.53.48l.48,0A22.52,22.52,0,0,0,60.46,106.45Z"/><path class="cls-6" d="M53.31,96.84v.07l.47.11c.85.1,1.69.24,2.53.42l.48,0A24.14,24.14,0,0,0,64,97.06V93.18l-.14,0a23.78,23.78,0,0,0-3.23-.49h-.14a23.67,23.67,0,0,0-3.67,0L56,92.7c-.61.11-1.22.19-1.83.25l-.82.16C53.3,94.35,53.3,95.6,53.31,96.84Z"/><path class="cls-6" d="M53.31,88.14l.47.1c.85.08,1.69.2,2.53.36l.48,0A24.56,24.56,0,0,0,64,88.1V84.22l-.14,0-.32-.06q-5.11.18-10.2.52c0,1.13,0,2.27,0,3.4Z"/><path class="cls-6" d="M53.31,123.22V122c-1.22-.1-2.44-.22-3.65-.34v1.1l-.33,0,.32,0C50.87,123,52.09,123.11,53.31,123.22Z"/><path class="cls-6" d="M49.66,114.11l-.22,0,.22,0Z"/><path class="cls-6" d="M49.66,105.44h0Z"/><path class="cls-5" d="M49.66,105.57a24.85,24.85,0,0,1,3.65.17v-.11q0-1.87,0-3.75v-.09a23.41,23.41,0,0,1-3.65-.13v3.91Z"/><path class="cls-5" d="M49.66,96.76v.13a24.75,24.75,0,0,1,3.65.08v-.13c0-1.24,0-2.49,0-3.73V93a23.4,23.4,0,0,1-3.65,0v3.78Z"/><path class="cls-5" d="M49.66,88.09v.12a24.7,24.7,0,0,1,3.65,0v-.15c0-1.13,0-2.27,0-3.4-1.22.08-2.43.17-3.65.27Z"/><path class="cls-5" d="M53.31,114.43c0-1.25,0-2.51,0-3.76v-.11a23.47,23.47,0,0,1-3.65-.23v3.91a26.48,26.48,0,0,1,3.65.27v-.08Z"/><path class="cls-5" d="M53.31,120.22v-.89a23.57,23.57,0,0,1-3.65-.32v2.68c1.21.12,2.43.24,3.65.34Z"/><path class="cls-3" d="M53.31,119.33h.82c.61,0,1.22-.07,1.83-.14l.48-.06.35-.05v-3.83l-.48-.13c-.84-.22-1.68-.39-2.53-.53l-.47-.07a26.45,26.45,0,0,0-7.1-.06v3.71l.14,0a26.31,26.31,0,0,1,3.18.78l.13,0A23.57,23.57,0,0,0,53.31,119.33Z"/><path class="cls-3" d="M53.31,110.56c.27,0,.55,0,.82,0q.91,0,1.83-.18l.61-.09.22,0v-3.83l-.48-.11a24.5,24.5,0,0,0-2.53-.48l-.47-.06a26.16,26.16,0,0,0-7.1.14v3.71l.14,0a25.82,25.82,0,0,1,3.18.69h.13A23.47,23.47,0,0,0,53.31,110.56Z"/><path class="cls-3" d="M53.31,101.79l.83-.05c.6,0,1.21-.12,1.81-.21l.73-.13.11,0V97.55l-.48-.11c-.84-.18-1.68-.32-2.53-.42l-.47,0a24.75,24.75,0,0,0-3.65-.08,26.62,26.62,0,0,0-3.45.41V101l.14,0a27.3,27.3,0,0,1,3.18.59l.13,0A23.41,23.41,0,0,0,53.31,101.79Z"/><path class="cls-3" d="M46.21,92.38v.07l.14,0a25,25,0,0,1,3.18.49h.13a23.4,23.4,0,0,0,3.65,0l.82-.07c.61-.06,1.22-.14,1.83-.25.27,0,.55-.1.83-.17V88.7l-.48-.1c-.84-.16-1.68-.28-2.53-.36l-.47,0a24.7,24.7,0,0,0-3.65,0,26.85,26.85,0,0,0-3.45.52Z"/><path class="cls-4" d="M42.59,97.2h0Z"/><path class="cls-4" d="M42.48,88.72l.13,0v0Z"/><path class="cls-5" d="M46.21,109.61v-3.86a24.17,24.17,0,0,1-3.6-.22v3.8A25.67,25.67,0,0,1,46.21,109.61Z"/><path class="cls-5" d="M46.21,101V97.18a24.07,24.07,0,0,1-3.6-.11v.13h0v3.68A25.52,25.52,0,0,1,46.21,101Z"/><path class="cls-5" d="M46.21,123.77v-.87a23.36,23.36,0,0,1-3.6-.47V125l3.6.5Z"/><path class="cls-5" d="M46.21,114.5v-.18a23.08,23.08,0,0,1-3.6-.34v3.79h0a29.36,29.36,0,0,1,3.6.4V114.5Z"/><path class="cls-5" d="M42.61,88.75v3.68a24,24,0,0,1,3.6,0h0V88.6a24,24,0,0,1-3.6,0v.13Z"/><path class="cls-6" d="M42.61,122.43a23.36,23.36,0,0,0,3.6.47l.57,0a22.48,22.48,0,0,0,2.32-.08l.23,0,.33,0V119l-.13,0a26.31,26.31,0,0,0-3.18-.78l-.14,0a29.36,29.36,0,0,0-3.6-.4h-.14a21.78,21.78,0,0,1-3.13.06H39.2v3.61l.56.19a23.72,23.72,0,0,0,2.29.65l.2,0Z"/><path class="cls-6" d="M46.21,114.32a21.79,21.79,0,0,0,3.23-.18l.22,0v-3.76l-.13,0a25.82,25.82,0,0,0-3.18-.69l-.14,0a25.67,25.67,0,0,0-3.6-.28h-.13a22,22,0,0,1-3.14.18l-.14,0v3.61a25.7,25.7,0,0,0,3.41.84A23.08,23.08,0,0,0,46.21,114.32Z"/><path class="cls-6" d="M46.21,105.75a22.19,22.19,0,0,0,3.35-.3h.1v-3.76l-.13,0a27.3,27.3,0,0,0-3.18-.59h-.14a25.52,25.52,0,0,0-3.6-.16h-.14a20.72,20.72,0,0,1-3.13.3l-.14,0v3.61a25.23,25.23,0,0,0,3.41.72A24.17,24.17,0,0,0,46.21,105.75Z"/><path class="cls-6" d="M39.2,96.42v.07a24.79,24.79,0,0,0,3.41.58,24.07,24.07,0,0,0,3.6.11,23.72,23.72,0,0,0,3.45-.42V93l-.13,0a25,25,0,0,0-3.18-.49l-.14,0a24,24,0,0,0-3.6,0h-.14a25.83,25.83,0,0,1-3.13.42l-.14,0Z"/><path class="cls-6" d="M39.2,88.16a24.51,24.51,0,0,0,3.41.46,24,24,0,0,0,3.6,0,25.41,25.41,0,0,0,3.45-.51V84.92c-3.49.27-7,.61-10.46,1v2.24Z"/><path class="cls-6" d="M39.2,120.4l-3.55-.52v1c1.18.19,2.36.38,3.55.55Z"/><path class="cls-6" d="M35.64,101h0Z"/><path class="cls-6" d="M35.54,92.82h0l.12,0h-.11Z"/><path class="cls-5" d="M39.2,96.42V92.86a24.75,24.75,0,0,1-3.55,0h0v3.67a24.77,24.77,0,0,1,3.55.1v-.19Z"/><path class="cls-5" d="M39.2,104.93V101.2h0a24.85,24.85,0,0,1-3.55-.19v0h0v3.66A28.24,28.24,0,0,1,39.2,104.93Z"/><path class="cls-5" d="M39.2,113.26v-3.75a23.67,23.67,0,0,1-3.55-.33v3.68A25.21,25.21,0,0,1,39.2,113.26Z"/><path class="cls-5" d="M35.65,88.21v.12a23.38,23.38,0,0,1,3.55,0V85.92l-3.55.42Z"/><path class="cls-5" d="M39.2,118.68v-.85a22.73,22.73,0,0,1-3.55-.47h0v2.51l3.55.52Z"/><path class="cls-3" d="M39.2,117.83h.14a21.78,21.78,0,0,0,3.13-.06h.14V114.1a26.09,26.09,0,0,0-3.41-.84,25.21,25.21,0,0,0-3.55-.4,25,25,0,0,0-3.35.07v3.47l.13,0a27.54,27.54,0,0,1,3.09.88l.13,0A22.73,22.73,0,0,0,39.2,117.83Z"/><path class="cls-3" d="M39.2,109.51h.14a22,22,0,0,0,3.14-.18l.13,0v-3.66a27.23,27.23,0,0,0-3.41-.72,28.24,28.24,0,0,0-3.55-.25,26.79,26.79,0,0,0-3.35.22v3.48l.14,0a27,27,0,0,1,3.08.74l.13,0A23.67,23.67,0,0,0,39.2,109.51Z"/><path class="cls-3" d="M39.2,101.19h.14a20.72,20.72,0,0,0,3.13-.3l.14,0V97.2h0a24.27,24.27,0,0,0-6.94-.69,25.24,25.24,0,0,0-3.35.37v3.48l.14,0a24.25,24.25,0,0,1,3.08.6h.13A24.85,24.85,0,0,0,39.2,101.19Z"/><path class="cls-3" d="M32.3,88.85v3.48l.13,0a22,22,0,0,1,3.09.46h.13a24.75,24.75,0,0,0,3.55,0h.14a24,24,0,0,0,3.13-.42l.14,0V88.75l-.13,0a24.34,24.34,0,0,0-3.28-.43,23.38,23.38,0,0,0-3.55,0A25.61,25.61,0,0,0,32.3,88.85Z"/><polygon class="cls-4" points="28.81 96.77 28.81 96.77 28.81 96.77 28.81 96.77"/><path class="cls-4" d="M28.7,88.9l.11,0v0Z"/><path class="cls-5" d="M32.3,100.31V96.76a25.39,25.39,0,0,1-3.49-.1v.11h0v3.42a25.59,25.59,0,0,1,3.49.18h0Z"/><path class="cls-5" d="M32.3,116.42v-3.61q-1-.06-2.1-.21l1.34,3.67Z"/><path class="cls-5" d="M32.3,108.36v-3.58a24,24,0,0,1-3.49-.27V108h0a26,26,0,0,1,3.49.36v0Z"/><path class="cls-5" d="M32.3,92.35V88.73a24,24,0,0,1-3.49.07v3.54A23.92,23.92,0,0,1,32.3,92.35Z"/><path class="cls-6" d="M35.65,120.92h0v-3.54l-.13,0a27.54,27.54,0,0,0-3.09-.88l-.13,0-.76-.15c.55,1.53,1.11,3.08,1.66,4.64.64,0,1.27,0,1.9,0Z"/><path class="cls-6" d="M35.65,112.74V109.2l-.13,0a27,27,0,0,0-3.08-.74l-.14,0a26,26,0,0,0-3.49-.36h-.3c.56,1.5,1.13,3,1.69,4.55q1.05.15,2.1.21A22,22,0,0,0,35.65,112.74Z"/><path class="cls-6" d="M32.3,104.78a22.09,22.09,0,0,0,3.35-.22V101h0l-.12,0a24.25,24.25,0,0,0-3.08-.6l-.14,0a25.59,25.59,0,0,0-3.49-.18h-.13a23.83,23.83,0,0,1-3,.26h0q.72,1.83,1.44,3.72.88.19,1.77.33A24,24,0,0,0,32.3,104.78Z"/><path class="cls-6" d="M32.3,96.76a25.24,25.24,0,0,0,3.35-.37V92.84l-.12,0h0a22,22,0,0,0-3.09-.46H32.3a23.92,23.92,0,0,0-3.49,0h-.13a26.09,26.09,0,0,1-3,.42l-.13,0v3.33a26.08,26.08,0,0,0,3.28.54A25.39,25.39,0,0,0,32.3,96.76Z"/><path class="cls-6" d="M25.53,88.44a25.7,25.7,0,0,0,3.28.36,25.71,25.71,0,0,0,6.84-.59V86.34c-3.38.41-6.76.89-10.12,1.41v.69Z"/><path class="cls-5" d="M25.53,96.12V92.77a24.89,24.89,0,0,1-3,0c.45,1.1.9,2.2,1.35,3.32.54,0,1.09.05,1.64.1Z"/><path class="cls-5" d="M22.11,88.56v.11a24.34,24.34,0,0,1,3.42-.12v-.8l-3.42.56Z"/><path class="cls-3" d="M28.81,108v-3.41c-.59-.17-1.18-.31-1.77-.44q.74,1.92,1.47,3.87h.3Z"/><path class="cls-3" d="M28.68,100.19l.13,0v-3.4h0a23.6,23.6,0,0,0-3.28-.54c-.55,0-1.1-.08-1.64-.1q.86,2.13,1.71,4.32h0A22.13,22.13,0,0,0,28.68,100.19Z"/><path class="cls-3" d="M25.66,92.77a25.8,25.8,0,0,0,3-.42l.13,0v-3.4l-.11,0a22.94,22.94,0,0,0-3.17-.35,24.34,24.34,0,0,0-3.42.12c-.41,0-.81.1-1.22.17.55,1.3,1.1,2.63,1.65,4a24.89,24.89,0,0,0,3,0Z"/><path class="cls-6" d="M22.11,88.31l-1.35.23.13.29,1.22-.27Z"/><path class="cls-7" d="M73,95.11a76.36,76.36,0,0,1,17.33,3.75A72.35,72.35,0,0,1,104.49,106a127,127,0,0,1,14.76,11.43c3.76-10.32,7.5-20,11.23-28.63a318.35,318.35,0,0,0-109.72-.3q1.68,4,3.36,8.16A142.29,142.29,0,0,1,73,95.11Z"/><path class="cls-8" d="M53.28,88.52S46.65,90,43,88.38c-4.58-2-6-2.49-7.57-3.19,0,0,6.7-1.93,10.26-.4C48.54,86,53.28,88.51,53.28,88.52Z"/><path class="cls-9" d="M45.72,89s-7.26,1.53-10.54-.57a39.73,39.73,0,0,0-5.87-3.13s5.66-1.15,9.12.42Z"/><path class="cls-8" d="M70.55,87.94s-8.74,1.53-12.4-.31c-4.59-2.32-6-2.88-7.6-3.69,0,0,6.73-1.71,10.3,0C63.7,85.33,70.55,87.92,70.55,87.94Z"/><path class="cls-9" d="M60.88,88.34s-7.3,1.37-10.59-1a19.41,19.41,0,0,0-6.81-3.08s6.6-1.49,10.08.34C56.79,86.29,60.87,88.34,60.88,88.34Z"/><path class="cls-8" d="M85.17,88.53s-8,.12-11.63-1.87c-4.6-2.51-5.89-2.38-7.51-3.28,0,0,6.74-1.45,10.32.46C79.21,85.34,85.17,88.53,85.17,88.53Z"/><path class="cls-8" d="M100,89s-8.94.37-12.52-1.88c-4.47-2.87-6.86-3-8.43-4,0,0,7.88-.74,11.36,1.46A90,90,0,0,0,100,89Z"/><path class="cls-9" d="M79.87,88s-10.79,1.46-14.1-1.06a20.81,20.81,0,0,0-6.83-3.48s6.62-1.24,10.11.78C72.28,86,79.87,87.93,79.87,88Z"/><path class="cls-9" d="M93.39,88.46s-10,1.37-13.2-1.44a22.29,22.29,0,0,0-6.66-4.1s6.66-.64,10,1.69C86.73,86.73,93.39,88.46,93.39,88.46Z"/><path class="cls-8" d="M115.89,89.21s-8.76.63-12.41-1.46c-4.58-2.7-5.88-2.69-7.5-3.69,0,0,6.73-.87,10.28,1.21A78.47,78.47,0,0,0,115.89,89.21Z"/><path class="cls-9" d="M108.91,89.07c0-.06-10.8.89-14.11-1.77a25.44,25.44,0,0,0-7.7-4.07s7.5-.56,11,1.66C101.3,86.91,108.92,89.07,108.91,89.07Z"/><path class="cls-9" d="M125.09,90.53c0-.08-10.73.39-14-2.24a27.73,27.73,0,0,0-7.67-4.19s7.47-.18,10.93,2.07C117.53,88.22,125.1,90.53,125.09,90.53Z"/><path class="cls-9" d="M29.91,89s-5.22,2.35-8.47.62-2.09-5.59,1.16-4.18S29.91,89,29.91,89Z"/><path class="cls-8" d="M38.12,89.36s-6.75,1-9.95-1c-4-2.48-4.75-2.3-6.15-3.14,0,0,6.21-1.41,9.36.51C33.89,87.24,38.11,89.35,38.12,89.36Z"/><path class="cls-9" d="M128.93,90.8s1.47-.62,1.56-1.94-.75-3.42-4.45-3.32-6.92.41-6.92.41Q124,88.42,128.93,90.8Z"/><path class="cls-8" d="M128.93,90.8s-5.61.38-9.24-1.73c-4.55-2.7-5.85-2.77-7.45-3.78,0,0,5.36-.56,8.89,1.53C124,88.48,128.93,90.8,128.93,90.8Z"/></g></g></svg>