<svg id="राखी" xmlns="http://www.w3.org/2000/svg" viewBox="0 0 150 160"><defs><style>.cls-1,.cls-3{fill:none;stroke-miterlimit:10;}.cls-1{stroke:#fff;stroke-width:5px;}.cls-2{fill:#355491;}.cls-3{stroke:#355491;stroke-width:2.83px;}.cls-4{fill:#6ab4cc;}.cls-5{fill:#83defb;}.cls-6{fill:#cf3a36;}.cls-7{fill:#fe4742;}.cls-8{fill:#3d63a6;}.cls-9{fill:#fff;}</style></defs><path class="cls-1" d="M127.44,119.46a17.36,17.36,0,0,0,4.88,1.2,5.25,5.25,0,0,1-.92-.84,5.34,5.34,0,0,0,1.44.07,1,1,0,0,0-.32-.34,4.87,4.87,0,0,0,3.08-.94l-1.18-1.16c.34-.2.68-.42,1-.65a.63.63,0,0,1-.34-.18,5.49,5.49,0,0,0,2.66-3,3.62,3.62,0,0,1-1.82.66,33.21,33.21,0,0,1-4.11.24,8.62,8.62,0,0,0,5.23-1.82c-3.33.89-6.84.52-10.29.44a3,3,0,0,0-1.82.37c-.91.67-.89,2.36-.43,3.29A6.22,6.22,0,0,0,127.44,119.46Z"/><path class="cls-1" d="M75,65.45s43.42-18.63,52.76,7.14c6.41,17.7-17.16,21.88-2.89,41"/><circle class="cls-1" cx="124.87" cy="113.61" r="3.16" transform="translate(-43.76 121.57) rotate(-45)"/><path class="cls-1" d="M123.81,112.54c-1.06.82-1.32,2.2-1.62,1.81s0-2,1-2.82a2.35,2.35,0,0,1,2.8-.17C126.34,111.75,124.87,111.71,123.81,112.54Z"/><path class="cls-1" d="M108.82,59.21a2,2,0,1,1-2-2A2,2,0,0,1,108.82,59.21Z"/><path class="cls-1" d="M106.15,58.53c-.68.53-.84,1.4-1,1.15s0-1.26.66-1.79a1.5,1.5,0,0,1,1.77-.1C107.75,58,106.82,58,106.15,58.53Z"/><path class="cls-1" d="M119.07,61.21a2,2,0,1,1-2-2A2,2,0,0,1,119.07,61.21Z"/><path class="cls-1" d="M116.4,60.54c-.67.52-.83,1.39-1,1.14A1.76,1.76,0,0,1,116,59.9a1.5,1.5,0,0,1,1.78-.11C118,60,117.07,60,116.4,60.54Z"/><path class="cls-1" d="M113.9,59.72a2,2,0,1,1-2-2A2,2,0,0,1,113.9,59.72Z"/><path class="cls-1" d="M111.22,59.05c-.67.52-.83,1.39-1,1.14s0-1.26.66-1.78a1.48,1.48,0,0,1,1.77-.11C112.83,58.55,111.9,58.52,111.22,59.05Z"/><path class="cls-1" d="M130.46,119.7a10,10,0,0,1-2-1.1,3.1,3.1,0,0,0,1.4.46,19.37,19.37,0,0,0,2.14.21,9.66,9.66,0,0,1-2-1.06,3.35,3.35,0,0,0,1.29.4,11.42,11.42,0,0,0,3.69,0,2.82,2.82,0,0,0-.86-.19,21.68,21.68,0,0,1-3.29-.62,9.25,9.25,0,0,1-3-1.46,3.91,3.91,0,0,0,1.54,1.39,10.71,10.71,0,0,1-2.54-1.25,3.17,3.17,0,0,0,1.46,1.57,2.43,2.43,0,0,1-.78-.24c-.64-.27-1.28-.56-1.91-.85-.12-.06-.33-.22-.37,0s.2.39.28.49a6.52,6.52,0,0,0,2.94,1.87A8.19,8.19,0,0,0,130.46,119.7Z"/><path class="cls-1" d="M136.4,115l-1,.56a5.39,5.39,0,0,1-1.07.48,6.71,6.71,0,0,1-1.61.21,6.83,6.83,0,0,0,1.8.22,9.78,9.78,0,0,1-3.19-.2,5.57,5.57,0,0,1-3.17-1.8,7.23,7.23,0,0,0,2.62.27,3.43,3.43,0,0,1-2.2-.91,10.41,10.41,0,0,0,1.58.12,20.32,20.32,0,0,0,4.73-.42,18.82,18.82,0,0,1-3.59,1.09,18.36,18.36,0,0,0,5.34.18C136.61,114.84,136.47,114.9,136.4,115Z"/><path class="cls-1" d="M22.56,119.46a17.36,17.36,0,0,1-4.88,1.2,5.25,5.25,0,0,0,.92-.84,5.34,5.34,0,0,1-1.44.07,1,1,0,0,1,.32-.34,4.87,4.87,0,0,1-3.08-.94l1.18-1.16c-.34-.2-.68-.42-1-.65a.63.63,0,0,0,.34-.18,5.49,5.49,0,0,1-2.66-3,3.62,3.62,0,0,0,1.82.66,33.21,33.21,0,0,0,4.11.24A8.62,8.62,0,0,1,13,112.66c3.33.89,6.84.52,10.29.44a3,3,0,0,1,1.82.37c.91.67.89,2.36.43,3.29A6.22,6.22,0,0,1,22.56,119.46Z"/><path class="cls-1" d="M75,65.45S31.58,46.82,22.24,72.59c-6.41,17.7,17.16,21.88,2.89,41"/><circle class="cls-1" cx="25.13" cy="113.61" r="3.16" transform="translate(-89.08 91.39) rotate(-66.52)"/><path class="cls-1" d="M26.19,112.54c1.06.82,1.32,2.2,1.62,1.81s0-2-1-2.82a2.35,2.35,0,0,0-2.8-.17C23.66,111.75,25.13,111.71,26.19,112.54Z"/><path class="cls-1" d="M41.18,59.21a2,2,0,1,0,2-2A2,2,0,0,0,41.18,59.21Z"/><path class="cls-1" d="M43.86,58.53c.67.53.83,1.4,1,1.15s0-1.26-.66-1.79a1.5,1.5,0,0,0-1.77-.1C42.25,58,43.18,58,43.86,58.53Z"/><path class="cls-1" d="M30.93,61.21a2,2,0,1,0,2-2A2,2,0,0,0,30.93,61.21Z"/><path class="cls-1" d="M33.6,60.54c.67.52.83,1.39,1,1.14A1.76,1.76,0,0,0,34,59.9a1.5,1.5,0,0,0-1.78-.11C32,60,32.93,60,33.6,60.54Z"/><path class="cls-1" d="M36.1,59.72a2,2,0,1,0,2-2A2,2,0,0,0,36.1,59.72Z"/><path class="cls-1" d="M38.78,59.05c.67.52.83,1.39,1,1.14s0-1.26-.66-1.78a1.48,1.48,0,0,0-1.77-.11C37.17,58.55,38.1,58.52,38.78,59.05Z"/><path class="cls-1" d="M19.54,119.7a10,10,0,0,0,2-1.1,3.1,3.1,0,0,1-1.4.46,19.37,19.37,0,0,1-2.14.21,9.66,9.66,0,0,0,2-1.06,3.35,3.35,0,0,1-1.29.4,11.42,11.42,0,0,1-3.69,0,2.82,2.82,0,0,1,.86-.19,21.68,21.68,0,0,0,3.29-.62,9.25,9.25,0,0,0,3-1.46,3.91,3.91,0,0,1-1.54,1.39,10.71,10.71,0,0,0,2.54-1.25A3.17,3.17,0,0,1,21.72,118a2.43,2.43,0,0,0,.78-.24c.64-.27,1.28-.56,1.91-.85.12-.06.33-.22.37,0s-.2.39-.28.49a6.52,6.52,0,0,1-2.94,1.87A8.19,8.19,0,0,1,19.54,119.7Z"/><path class="cls-1" d="M97.29,64.3A22.29,22.29,0,1,1,75,42,22.28,22.28,0,0,1,97.29,64.3Z"/><path class="cls-1" d="M75,39.34a25,25,0,1,0,25,25A25,25,0,0,0,75,39.34Zm0,47.24A22.29,22.29,0,1,1,97.29,64.3,22.28,22.28,0,0,1,75,86.58Z"/><path class="cls-1" d="M75,54.44a9.49,9.49,0,0,0-2.28.27c.27.53.58,1.09.9,1.66A7.87,7.87,0,0,1,75,56.25a8,8,0,0,1,1.39.12c.32-.57.62-1.13.9-1.66A9.57,9.57,0,0,0,75,54.44Zm0,0a9.49,9.49,0,0,0-2.28.27c.27.53.58,1.09.9,1.66A7.87,7.87,0,0,1,75,56.25a8,8,0,0,1,1.39.12c.32-.57.62-1.13.9-1.66A9.57,9.57,0,0,0,75,54.44Zm-7.92,8.47c-.57-.33-1.13-.63-1.66-.9a9.8,9.8,0,0,0,0,4.57c.53-.28,1.09-.58,1.66-.91A7.67,7.67,0,0,1,67,64.3,7.9,7.9,0,0,1,67.08,62.91ZM75,56.25a8,8,0,0,1,1.39.12c.32-.57.62-1.13.9-1.66a9.8,9.8,0,0,0-4.57,0c.27.53.58,1.09.9,1.66A7.87,7.87,0,0,1,75,56.25Zm0,16.09a7.79,7.79,0,0,1-1.38-.12c-.33.57-.63,1.13-.91,1.66a9.85,9.85,0,0,0,4.58,0c-.28-.53-.58-1.09-.91-1.66A7.87,7.87,0,0,1,75,72.34ZM65.42,62a9.8,9.8,0,0,0,0,4.57c.53-.28,1.09-.58,1.66-.91A7.67,7.67,0,0,1,67,64.3a7.9,7.9,0,0,1,.12-1.39C66.51,62.58,66,62.28,65.42,62Zm19.17,0A9.72,9.72,0,0,0,84,60.15a9.54,9.54,0,0,0-1-1.74,9.67,9.67,0,0,0-2-2,10.14,10.14,0,0,0-1.74-1,9.72,9.72,0,0,0-1.86-.64,9.8,9.8,0,0,0-4.57,0,9.72,9.72,0,0,0-1.86.64,9.54,9.54,0,0,0-1.74,1,9.67,9.67,0,0,0-2,2,10.14,10.14,0,0,0-1,1.74A9.72,9.72,0,0,0,65.42,62a9.8,9.8,0,0,0,0,4.57,9.72,9.72,0,0,0,.64,1.86,9.93,9.93,0,0,0,3.06,3.76,10.44,10.44,0,0,0,1.73,1,10,10,0,0,0,1.86.64,9.88,9.88,0,0,0,6.43-.64,9.54,9.54,0,0,0,1.74-1,10,10,0,0,0,2-2,9.75,9.75,0,0,0,1-1.73,9.11,9.11,0,0,0,.65-1.86,9.85,9.85,0,0,0,0-4.58Zm-2.28,5.64a8,8,0,0,1-1.32,2c-.2.21-.4.42-.62.62a8.28,8.28,0,0,1-2,1.32,8.06,8.06,0,0,1-2,.61,7.87,7.87,0,0,1-1.38.12,7.79,7.79,0,0,1-1.38-.12,7.67,7.67,0,0,1-2-.62,7.52,7.52,0,0,1-2-1.32,6,6,0,0,1-.62-.62,7.87,7.87,0,0,1-1.94-4A7.67,7.67,0,0,1,67,64.3a7.9,7.9,0,0,1,.12-1.39,8.2,8.2,0,0,1,.61-2,7.81,7.81,0,0,1,1.33-2,6,6,0,0,1,.62-.62,7.52,7.52,0,0,1,2-1.32A7.93,7.93,0,0,1,75,56.25a8,8,0,0,1,1.39.12,7.8,7.8,0,0,1,2,.62,7.68,7.68,0,0,1,2,1.32,7.36,7.36,0,0,1,.63.62,7.79,7.79,0,0,1,1.31,2,7.22,7.22,0,0,1,.61,2,7.44,7.44,0,0,1,0,2.77A7.39,7.39,0,0,1,82.31,67.65ZM67.08,62.91c-.57-.33-1.13-.63-1.66-.9a9.8,9.8,0,0,0,0,4.57c.53-.28,1.09-.58,1.66-.91A7.67,7.67,0,0,1,67,64.3,7.9,7.9,0,0,1,67.08,62.91Zm9.3,9.31a7.87,7.87,0,0,1-1.38.12,7.79,7.79,0,0,1-1.38-.12c-.33.57-.63,1.13-.91,1.66a9.85,9.85,0,0,0,4.58,0C77,73.35,76.71,72.79,76.38,72.22ZM75,54.44a9.49,9.49,0,0,0-2.28.27c.27.53.58,1.09.9,1.66A7.87,7.87,0,0,1,75,56.25a8,8,0,0,1,1.39.12c.32-.57.62-1.13.9-1.66A9.57,9.57,0,0,0,75,54.44Zm0,0a9.49,9.49,0,0,0-2.28.27c.27.53.58,1.09.9,1.66A7.87,7.87,0,0,1,75,56.25a8,8,0,0,1,1.39.12c.32-.57.62-1.13.9-1.66A9.57,9.57,0,0,0,75,54.44Z"/><path class="cls-1" d="M76.73,43.86a10,10,0,0,0-3.45,0c-5.15.9-5.58,4.68-2.42,11.49.24.53.5,1.07.79,1.64a7.8,7.8,0,0,1,2-.62c-.32-.57-.63-1.13-.9-1.66-3.12-6-3.16-9.29,1-10a7.17,7.17,0,0,1,2.53,0c4.18.73,4.14,4,1,10-.28.53-.58,1.09-.9,1.66a7.8,7.8,0,0,1,2,.62c.29-.57.55-1.11.79-1.64C82.31,48.54,81.88,44.76,76.73,43.86Z"/><circle class="cls-1" cx="75" cy="48.36" r="2.29"/><path class="cls-1" d="M89.75,51.14a6.45,6.45,0,0,0-1.59-1.58c-3.27-2.3-5.37.22-7.27,6.83-.17.6-.35,1.24-.52,1.92a7.36,7.36,0,0,1,.63.62c.67-.17,1.31-.34,1.91-.52C89.52,56.51,92.05,54.42,89.75,51.14ZM82.1,57.2c1.55-6.35,3.17-9,5.89-7.05a4.73,4.73,0,0,1,1.16,1.16C91.07,54,88.45,55.65,82.1,57.2Z"/><circle class="cls-1" cx="86.88" cy="52.42" r="1.49"/><path class="cls-1" d="M82.91,70.18c-.61-.17-1.25-.35-1.92-.51-.2.21-.4.42-.62.62.17.67.34,1.31.51,1.91,1.91,6.61,4,9.14,7.28,6.84a6.45,6.45,0,0,0,1.58-1.59C92,74.18,89.52,72.08,82.91,70.18Zm6.24,7.1A4.82,4.82,0,0,1,88,78.45c-2.72,1.91-4.34-.7-5.88-7C88.45,73,91.06,74.56,89.15,77.28Z"/><circle class="cls-1" cx="86.88" cy="76.17" r="1.49"/><path class="cls-1" d="M69,69.66c-.68.17-1.32.34-1.92.52-6.61,1.9-9.14,4-6.84,7.27A6.49,6.49,0,0,0,61.85,79c3.27,2.3,5.37-.23,7.27-6.84.17-.61.34-1.25.52-1.92A6,6,0,0,1,69,69.66Zm-7,8.78a4.61,4.61,0,0,1-1.17-1.16c-1.91-2.72.7-4.34,7.05-5.89C66.35,77.74,64.74,80.36,62,78.44Z"/><path class="cls-1" d="M62.07,75.12a1.48,1.48,0,0,1,2.11,0,1.49,1.49,0,1,1-2.11,2.11A1.48,1.48,0,0,1,62.07,75.12Z"/><path class="cls-1" d="M69.12,56.39c-1.9-6.61-4-9.14-7.27-6.84a6.32,6.32,0,0,0-1.59,1.59c-2.3,3.28.23,5.37,6.84,7.27.6.17,1.24.35,1.92.52a6,6,0,0,1,.62-.62C69.46,57.63,69.29,57,69.12,56.39Zm-8.27-5.08A5,5,0,0,1,62,50.14c2.72-1.91,4.34.71,5.89,7.06C61.56,55.65,58.94,54,60.85,51.31Z"/><path class="cls-1" d="M64.18,51.36a1.49,1.49,0,0,1-2.11,2.11,1.49,1.49,0,1,1,2.11-2.11Z"/><path class="cls-1" d="M95.44,62.58C94.54,57.42,90.76,57,84,60.15c-.53.25-1.08.51-1.64.8a7.22,7.22,0,0,1,.61,2l1.67-.9c6-3.12,9.29-3.16,10,1a7.22,7.22,0,0,1,0,2.54c-.73,4.17-4,4.13-10,1-.53-.28-1.09-.58-1.67-.91a7.39,7.39,0,0,1-.61,2c.56.29,1.11.55,1.63.8,6.82,3.15,10.6,2.73,11.5-2.43A9.94,9.94,0,0,0,95.44,62.58Z"/><path class="cls-1" d="M90.94,66.59a2.29,2.29,0,1,1,2.29-2.29A2.3,2.3,0,0,1,90.94,66.59Z"/><path class="cls-1" d="M79.14,73.24c-.24-.53-.5-1.07-.79-1.63a8.06,8.06,0,0,1-2,.61c.33.57.63,1.13.91,1.66,3.11,6,3.15,9.3-1,10a7.22,7.22,0,0,1-2.54,0c-4.17-.73-4.13-4-1-10,.28-.53.58-1.09.91-1.66a7.67,7.67,0,0,1-2-.62c-.29.57-.55,1.11-.8,1.64-3.15,6.81-2.73,10.59,2.43,11.49a9.47,9.47,0,0,0,3.44,0C81.88,83.83,82.3,80.05,79.14,73.24Z"/><path class="cls-1" d="M72.71,80.24A2.29,2.29,0,1,1,75,82.53,2.29,2.29,0,0,1,72.71,80.24Z"/><path class="cls-1" d="M65.42,66.58c-6,3.12-9.3,3.16-10-1a7.67,7.67,0,0,1,0-2.53c.73-4.18,4-4.14,10-1,.53.27,1.09.57,1.66.9a8.2,8.2,0,0,1,.61-2c-.56-.28-1.1-.55-1.63-.79-6.81-3.16-10.59-2.73-11.5,2.42a9.94,9.94,0,0,0,0,3.44c.91,5.16,4.69,5.59,11.5,2.43l1.63-.79a8.14,8.14,0,0,1-.61-2C66.51,66,66,66.3,65.42,66.58Z"/><circle class="cls-1" cx="59.06" cy="64.29" r="2.29"/><circle class="cls-1" cx="75" cy="64.3" r="5.62"/><path class="cls-1" d="M76.44,41.24c0,1-.64,1.9-1.44,1.9a2,2,0,0,1,0-3.8C75.8,39.34,76.44,40.19,76.44,41.24Z"/><path class="cls-1" d="M79.1,41.56c-.12,1-.86,1.81-1.65,1.72a1.7,1.7,0,0,1-1.2-2.05c.12-1,.85-1.82,1.64-1.72A1.72,1.72,0,0,1,79.1,41.56Z"/><path class="cls-1" d="M81.71,42.19c-.24,1-1.07,1.7-1.84,1.52a1.73,1.73,0,0,1-1-2.18c.24-1,1.06-1.7,1.84-1.52A1.72,1.72,0,0,1,81.71,42.19Z"/><path class="cls-1" d="M84.22,43.11a1.49,1.49,0,1,1-.7-2.27A1.71,1.71,0,0,1,84.22,43.11Z"/><path class="cls-1" d="M86.62,44.33A1.49,1.49,0,1,1,86.18,42,1.72,1.72,0,0,1,86.62,44.33Z"/><path class="cls-1" d="M88.85,45.81a1.49,1.49,0,1,1-2.4-1.58,1.49,1.49,0,1,1,2.4,1.58Z"/><path class="cls-1" d="M90.9,47.53a1.49,1.49,0,1,1-2.21-1.84,1.5,1.5,0,1,1,2.21,1.84Z"/><path class="cls-1" d="M92.74,49.49a1.5,1.5,0,1,1,.39-2.35A1.72,1.72,0,0,1,92.74,49.49Z"/><path class="cls-1" d="M94.33,51.64A1.49,1.49,0,1,1,95,49.35,1.71,1.71,0,0,1,94.33,51.64Z"/><ellipse class="cls-1" cx="94.95" cy="52.72" rx="1.9" ry="1.44" transform="translate(-13.64 54.78) rotate(-30.13)"/><path class="cls-1" d="M96.72,56.43a1.49,1.49,0,1,1,1.17-2.07A1.71,1.71,0,0,1,96.72,56.43Z"/><ellipse class="cls-1" cx="97.07" cy="57.63" rx="1.9" ry="1.44" transform="translate(-12.53 30.57) rotate(-16.83)"/><path class="cls-1" d="M98,61.64a1.71,1.71,0,0,1-2.12-1.08c-.14-.78.58-1.56,1.61-1.75a1.73,1.73,0,0,1,2.13,1.08C99.71,60.67,99,61.46,98,61.64Z"/><path class="cls-1" d="M98.11,64.32a1.73,1.73,0,0,1-2-1.32c-.05-.79.76-1.49,1.81-1.55a1.7,1.7,0,0,1,2,1.32C100,63.56,99.15,64.25,98.11,64.32Z"/><path class="cls-1" d="M98,67c-1-.06-1.86-.75-1.82-1.54a1.72,1.72,0,0,1,2-1.34c1.05.06,1.87.75,1.82,1.54A1.72,1.72,0,0,1,98,67Z"/><path class="cls-1" d="M97.48,69.64c-1-.18-1.76-1-1.63-1.74A1.72,1.72,0,0,1,98,66.8c1,.18,1.76,1,1.63,1.74A1.74,1.74,0,0,1,97.48,69.64Z"/><path class="cls-1" d="M96.71,72.2a1.49,1.49,0,1,1,2.23-.84A1.7,1.7,0,0,1,96.71,72.2Z"/><path class="cls-1" d="M95.65,74.67A1.5,1.5,0,1,1,98,74.09,1.71,1.71,0,0,1,95.65,74.67Z"/><path class="cls-1" d="M94.31,77a1.49,1.49,0,1,1,2.36-.31A1.72,1.72,0,0,1,94.31,77Z"/><path class="cls-1" d="M92.71,79.14a1.49,1.49,0,1,1,2.38,0A1.72,1.72,0,0,1,92.71,79.14Z"/><ellipse class="cls-1" cx="91.85" cy="80.04" rx="1.44" ry="1.9" transform="translate(-29.34 92.54) rotate(-46.96)"/><path class="cls-1" d="M88.82,82.82a1.49,1.49,0,1,1,2.32.51A1.71,1.71,0,0,1,88.82,82.82Z"/><path class="cls-1" d="M86.58,84.29a1.49,1.49,0,1,1,2.25.79A1.72,1.72,0,0,1,86.58,84.29Z"/><path class="cls-1" d="M84.19,85.5a1.49,1.49,0,1,1,2.14,1A1.72,1.72,0,0,1,84.19,85.5Z"/><path class="cls-1" d="M81.67,86.42a1.49,1.49,0,1,1,2,1.28A1.71,1.71,0,0,1,81.67,86.42Z"/><path class="cls-1" d="M79.06,87a1.71,1.71,0,0,1,1-2.18c.77-.19,1.6.48,1.84,1.5a1.72,1.72,0,0,1-.94,2.19C80.14,88.74,79.31,88.06,79.06,87Z"/><path class="cls-1" d="M76.4,87.36a1.71,1.71,0,0,1,1.19-2.06c.79-.1,1.53.67,1.66,1.71a1.71,1.71,0,0,1-1.19,2.06C77.27,89.17,76.53,88.4,76.4,87.36Z"/><path class="cls-1" d="M73.72,87.37c0-1.05.63-1.91,1.42-1.91s1.45.84,1.45,1.89a1.49,1.49,0,1,1-2.87,0Z"/><path class="cls-1" d="M71.05,87.06c.12-1,.85-1.81,1.64-1.73a1.72,1.72,0,0,1,1.22,2c-.11,1-.84,1.82-1.63,1.73A1.73,1.73,0,0,1,71.05,87.06Z"/><path class="cls-1" d="M68.44,86.45c.24-1,1.06-1.7,1.83-1.53a1.73,1.73,0,0,1,1,2.18c-.24,1-1.06,1.7-1.83,1.53A1.73,1.73,0,0,1,68.44,86.45Z"/><path class="cls-1" d="M65.92,85.55a1.49,1.49,0,1,1,.72,2.27A1.71,1.71,0,0,1,65.92,85.55Z"/><path class="cls-1" d="M63.52,84.35a1.49,1.49,0,1,1,2.58,1.27,1.49,1.49,0,1,1-2.58-1.27Z"/><path class="cls-1" d="M61.28,82.89a1.49,1.49,0,1,1,2.41,1.56,1.49,1.49,0,1,1-2.41-1.56Z"/><path class="cls-1" d="M59.21,81.17A1.49,1.49,0,1,1,61.43,83a1.49,1.49,0,1,1-2.22-1.83Z"/><path class="cls-1" d="M57.37,79.23a1.49,1.49,0,1,1,2,2.07,1.49,1.49,0,1,1-2-2.07Z"/><path class="cls-1" d="M55.76,77.09a1.49,1.49,0,1,1,1.73,2.29,1.49,1.49,0,1,1-1.73-2.29Z"/><path class="cls-1" d="M54.4,74.77a1.5,1.5,0,1,1,1.46,2.48,1.49,1.49,0,1,1-1.46-2.48Z"/><path class="cls-1" d="M53.33,72.31a1.49,1.49,0,1,1,1.16,2.63,1.49,1.49,0,1,1-1.16-2.63Z"/><path class="cls-1" d="M52.55,69.75a1.5,1.5,0,1,1,.85,2.75,1.72,1.72,0,0,1-2.24-.82C50.92,70.93,51.54,70.06,52.55,69.75Z"/><path class="cls-1" d="M52.07,67.11a1.72,1.72,0,0,1,2.13,1.07c.14.78-.57,1.57-1.61,1.76a1.72,1.72,0,0,1-2.13-1.07C50.32,68.09,51,67.3,52.07,67.11Z"/><path class="cls-1" d="M51.89,64.44a1.72,1.72,0,0,1,2,1.3c0,.79-.75,1.49-1.8,1.56a1.7,1.7,0,0,1-2-1.3C50,65.21,50.85,64.51,51.89,64.44Z"/><path class="cls-1" d="M52,61.76c1,.05,1.87.73,1.83,1.53s-.91,1.39-2,1.34S50,63.9,50.07,63.1A1.72,1.72,0,0,1,52,61.76Z"/><path class="cls-1" d="M52.48,59.12c1,.17,1.77.94,1.64,1.72A1.71,1.71,0,0,1,52,62c-1-.17-1.77-.94-1.64-1.73A1.71,1.71,0,0,1,52.48,59.12Z"/><path class="cls-1" d="M53.24,56.54a1.5,1.5,0,1,1-.8,2.77,1.5,1.5,0,1,1,.8-2.77Z"/><path class="cls-1" d="M54.28,54.07a1.5,1.5,0,1,1-1.11,2.66,1.5,1.5,0,1,1,1.11-2.66Z"/><path class="cls-1" d="M55.6,51.74a1.49,1.49,0,1,1-1.4,2.51,1.49,1.49,0,1,1,1.4-2.51Z"/><path class="cls-1" d="M57.19,49.58a1.49,1.49,0,1,1-1.69,2.33,1.49,1.49,0,1,1,1.69-2.33Z"/><path class="cls-1" d="M59,47.62a1.49,1.49,0,1,1-1.94,2.11A1.49,1.49,0,1,1,59,47.62Z"/><path class="cls-1" d="M61.05,45.88a1.7,1.7,0,0,1,.15,2.37,2,2,0,0,1-2.47-2.88A1.71,1.71,0,0,1,61.05,45.88Z"/><path class="cls-1" d="M63.28,44.38A1.49,1.49,0,1,1,60.9,46a1.49,1.49,0,1,1,2.38-1.61Z"/><path class="cls-1" d="M65.67,43.16a1.49,1.49,0,1,1-2.55,1.32,1.49,1.49,0,1,1,2.55-1.32Z"/><path class="cls-1" d="M68.18,42.22a1.5,1.5,0,1,1-2.69,1,1.5,1.5,0,1,1,2.69-1Z"/><path class="cls-1" d="M71.12,41.5a1.63,1.63,0,1,1-2-1.45A1.77,1.77,0,0,1,71.12,41.5Z"/><ellipse class="cls-1" cx="72.34" cy="41.39" rx="1.44" ry="1.9" transform="translate(-4.29 8.63) rotate(-6.63)"/><path class="cls-1" d="M76.17,61.22A3.57,3.57,0,0,1,75,63.51a3.57,3.57,0,0,1-1.16-2.29c0-1.27.52-2.29,1.16-2.29S76.17,60,76.17,61.22Z"/><path class="cls-1" d="M78,63a3.58,3.58,0,0,1-2.45.79,3.53,3.53,0,0,1,.8-2.44c.89-.9,2-1.25,2.44-.8S78.9,62.05,78,63Z"/><path class="cls-1" d="M78.08,65.47a3.53,3.53,0,0,1-2.29-1.17,3.54,3.54,0,0,1,2.29-1.16c1.27,0,2.29.52,2.29,1.16S79.35,65.47,78.08,65.47Z"/><path class="cls-1" d="M76.35,67.3a3.58,3.58,0,0,1-.8-2.44,3.56,3.56,0,0,1,2.45.8c.89.89,1.25,2,.8,2.44S77.25,68.2,76.35,67.3Z"/><path class="cls-1" d="M73.83,67.38A3.53,3.53,0,0,1,75,65.09a3.54,3.54,0,0,1,1.16,2.29c0,1.26-.52,2.29-1.16,2.29S73.83,68.64,73.83,67.38Z"/><path class="cls-1" d="M72,65.65a3.56,3.56,0,0,1,2.45-.8,3.56,3.56,0,0,1-.8,2.45c-.89.89-2,1.25-2.44.79S71.1,66.54,72,65.65Z"/><path class="cls-1" d="M71.92,63.13a3.54,3.54,0,0,1,2.29,1.16,3.53,3.53,0,0,1-2.29,1.17c-1.27,0-2.29-.52-2.29-1.17S70.65,63.13,71.92,63.13Z"/><path class="cls-1" d="M73.65,61.29a3.61,3.61,0,0,1,.8,2.45,3.56,3.56,0,0,1-2.45-.8c-.89-.89-1.25-2-.8-2.44S72.75,60.4,73.65,61.29Z"/><path class="cls-1" d="M72.13,41.28c0,.84.15,1.6-.11,1.6s-.81-.76-.81-1.6.56-1.45.81-1.45S72.13,40.43,72.13,41.28Z"/><path class="cls-1" d="M68.75,42.08c.19.82.81,1.36.56,1.41s-1-.55-1.16-1.37a1.5,1.5,0,0,1,.46-1.6C68.86,40.46,68.56,41.26,68.75,42.08Z"/><path class="cls-1" d="M66.05,42.73c.19.82,1,1.43.7,1.49s-1-.56-1.15-1.38a1.49,1.49,0,0,1,.47-1.6C66.31,41.19,65.86,41.91,66.05,42.73Z"/><path class="cls-1" d="M63.9,44.07c.37.75,1.09,1.13.86,1.24S63.7,45,63.32,44.24a1.51,1.51,0,0,1,.09-1.67C63.64,42.46,63.53,43.31,63.9,44.07Z"/><path class="cls-1" d="M61.81,45.21c.37.76.84,1.38.61,1.49s-1.07-.32-1.44-1.08a1.47,1.47,0,0,1,.1-1.66C61.3,43.85,61.44,44.46,61.81,45.21Z"/><path class="cls-1" d="M59.62,47.09c.54.65,1.32.86,1.12,1s-1.11-.07-1.64-.72a1.49,1.49,0,0,1-.29-1.64C59,45.59,59.09,46.44,59.62,47.09Z"/><path class="cls-1" d="M62.75,52.77c.44.54,1.15.65,1,.81a1.41,1.41,0,0,1-1.46-.5,1.2,1.2,0,0,1-.12-1.43C62.32,51.49,62.32,52.24,62.75,52.77Z"/><path class="cls-1" d="M86.73,52.12c-.63.29-.92,1-1,.71s.23-1,.86-1.28A1.22,1.22,0,0,1,88,51.8C88.08,52,87.36,51.84,86.73,52.12Z"/><path class="cls-1" d="M87,75.84c-.52-.44-1.24-.43-1.08-.62a1.43,1.43,0,0,1,1.53.23,1.2,1.2,0,0,1,.38,1.39C87.64,77,87.5,76.29,87,75.84Z"/><path class="cls-1" d="M63.68,76.48c.44-.53.41-1.25.6-1.09a1.42,1.42,0,0,1-.19,1.53,1.23,1.23,0,0,1-1.39.41C62.51,77.17,63.24,77,63.68,76.48Z"/><path class="cls-1" d="M90.82,63.33c-1,.11-1.71.89-1.75.52s.77-1.28,1.78-1.4a1.78,1.78,0,0,1,1.86,1C92.75,63.82,91.83,63.22,90.82,63.33Z"/><path class="cls-1" d="M74.23,48.36c-.1,1.09.58,2,.18,2a2.26,2.26,0,0,1-1.11-2.2,1.92,1.92,0,0,1,1.46-1.76C75.16,46.41,74.32,47.27,74.23,48.36Z"/><path class="cls-1" d="M59,63.56c-1.07,0-1.93.67-1.92.27s1-1.22,2.09-1.18A1.88,1.88,0,0,1,61,64C61,64.38,60.11,63.6,59,63.56Z"/><path class="cls-1" d="M57.85,48.83c.53.66,1.13,1.16.93,1.32s-1.11-.08-1.64-.73a1.47,1.47,0,0,1-.29-1.64C57.05,47.62,57.32,48.18,57.85,48.83Z"/><path class="cls-1" d="M56.12,51.07c.66.52,1.48.54,1.32.75s-1.1.18-1.77-.34S54.87,50.15,55,50,55.45,50.56,56.12,51.07Z"/><path class="cls-1" d="M54.41,53.6c.72.45,1.75.21,1.62.43a1.8,1.8,0,0,1-1.79-.15c-.72-.44-1-1.24-.81-1.45S53.69,53.16,54.41,53.6Z"/><path class="cls-1" d="M53.57,56.07c.77.35,1.56.19,1.46.43s-1,.42-1.8.07-1.09-1.12-1-1.35S52.8,55.72,53.57,56.07Z"/><path class="cls-1" d="M52.55,58.62c.76.36,1.64.14,1.53.37s-1,.42-1.8.06-1.08-1.11-1-1.34S51.78,58.27,52.55,58.62Z"/><path class="cls-1" d="M52.17,60.92c.82.17,1.56-.16,1.51.09s-.91.64-1.73.47-1.31-.84-1.26-1.09S51.34,60.75,52.17,60.92Z"/><path class="cls-1" d="M51.86,63.12c.83.09,1.6.07,1.58.24s-.81.49-1.65.4-1.41-.54-1.39-.71S51,63,51.86,63.12Z"/><path class="cls-1" d="M52,65.54c-.84-.09-1.54.32-1.51.07s.84-.73,1.67-.65,1.39.71,1.36,1S52.8,65.63,52,65.54Z"/><path class="cls-1" d="M52.28,68.54c-.84.13-1.56.4-1.6.14s.62-.92,1.45-1.05a1.47,1.47,0,0,1,1.56.57C53.73,68.45,53.11,68.4,52.28,68.54Z"/><path class="cls-1" d="M52.91,70.76c-.83.14-1.4.72-1.44.46s.61-.92,1.44-1.06a1.48,1.48,0,0,1,1.57.57C54.52,71,53.74,70.62,52.91,70.76Z"/><path class="cls-1" d="M54,73.52c-.77.35-1.4.8-1.51.56s.36-1,1.12-1.4a1.48,1.48,0,0,1,1.66.14C55.41,73.06,54.79,73.17,54,73.52Z"/><path class="cls-1" d="M54.8,75.58c-.68.5-.93,1.27-1.08,1.07s.13-1.11.81-1.6a1.48,1.48,0,0,1,1.66-.2C56.34,75.06,55.48,75.09,54.8,75.58Z"/><path class="cls-1" d="M56.75,78c-.72.44-1.29,1-1.43.74s.23-1.09,1-1.53a1.47,1.47,0,0,1,1.66-.06C58.07,77.35,57.47,77.54,56.75,78Z"/><path class="cls-1" d="M58,79.92c-.65.54-.85,1.33-1,1.13s.07-1.11.71-1.65a1.51,1.51,0,0,1,1.64-.3C59.49,79.3,58.63,79.39,58,79.92Z"/><path class="cls-1" d="M60.47,82c-.6.59-1,1.23-1.22,1s0-1.11.57-1.7a1.5,1.5,0,0,1,1.61-.44C61.61,81,61.07,81.35,60.47,82Z"/><path class="cls-1" d="M62.14,83.44c-.59.6-.72,1.4-.9,1.22s0-1.11.55-1.71a1.49,1.49,0,0,1,1.61-.45C63.58,82.68,62.74,82.84,62.14,83.44Z"/><path class="cls-1" d="M64.84,84.81c-.35.77-.53,1.52-.77,1.41s-.42-1-.06-1.79,1.11-1.09,1.34-1S65.2,84.05,64.84,84.81Z"/><path class="cls-1" d="M66.79,86c-.21.81.08,1.57-.17,1.5s-.59-.94-.37-1.76.92-1.25,1.16-1.19S67,85.13,66.79,86Z"/><path class="cls-1" d="M69.61,86.71c-.07.84,0,1.61-.24,1.59s-.75-.83-.68-1.67.69-1.4.94-1.38S69.69,85.87,69.61,86.71Z"/><path class="cls-1" d="M72,87.26c-.13.84.25,1.56,0,1.52s-.69-.87-.56-1.71.76-1.35,1-1.31S72.16,86.43,72,87.26Z"/><path class="cls-1" d="M74.77,87.45c0-.84,0-1.63.26-1.62s.29.8.25,1.64-.16,1.43-.41,1.41S74.72,88.29,74.77,87.45Z"/><path class="cls-1" d="M77.42,87.22c0-.84,0-1.51.22-1.52s.55.73.59,1.57-.2,1.46-.45,1.48S77.46,88.06,77.42,87.22Z"/><path class="cls-1" d="M74.21,80.21c0-1.07.34-1.86.74-1.87s.82.93.85,2-.36,1.85-.75,1.86S74.24,81.27,74.21,80.21Z"/><path class="cls-1" d="M80.85,86.61c-.18-.82-.79-1.4-.54-1.45s1,.56,1.15,1.38a1.49,1.49,0,0,1-.48,1.6C80.73,88.19,81,87.44,80.85,86.61Z"/><path class="cls-1" d="M83.36,85.84c-.23-.82-.86-1.32-.62-1.39s1,.51,1.22,1.32a1.49,1.49,0,0,1-.39,1.62C83.32,87.46,83.59,86.65,83.36,85.84Z"/><path class="cls-1" d="M85.66,84.83c-.23-.82-.57-1.51-.33-1.58s1,.52,1.22,1.33a1.49,1.49,0,0,1-.4,1.62C85.91,86.26,85.88,85.64,85.66,84.83Z"/><path class="cls-1" d="M88.3,83.07c-.61-.59-1.41-.7-1.24-.89s1.11-.05,1.72.53a1.48,1.48,0,0,1,.48,1.6C89.08,84.49,88.9,83.65,88.3,83.07Z"/><path class="cls-1" d="M90.44,81.79c-.5-.67-1-1.21-.88-1.34s1,.22,1.49.89.5,1.44.33,1.57S91,82.47,90.44,81.79Z"/><path class="cls-1" d="M92.3,79.52c-.56-.63-1.36-.8-1.17-1s1.12,0,1.68.65a1.49,1.49,0,0,1,.36,1.63C93,81,92.86,80.15,92.3,79.52Z"/><path class="cls-1" d="M93.93,77.67c-.63-.56-1.46-.78-1.29-1s1.1-.11,1.73.45.72,1.38.55,1.57S94.56,78.23,93.93,77.67Z"/><path class="cls-1" d="M95.35,75.18c-.69-.49-1.5-.48-1.35-.69s1.09-.22,1.77.26.87,1.3.72,1.51S96,75.66,95.35,75.18Z"/><path class="cls-1" d="M96.42,73.09c-.75-.4-1.49-.63-1.36-.85s1-.36,1.79,0,1,1.18.9,1.4S97.16,73.49,96.42,73.09Z"/><path class="cls-1" d="M97.32,70.24c-.78-.32-1.57-.12-1.47-.36s1-.47,1.79-.15,1.13,1.07,1,1.3S98.1,70.56,97.32,70.24Z"/><path class="cls-1" d="M97.91,67.67c-.83-.17-1.59-.22-1.56-.38s.85-.4,1.68-.23,1.35.65,1.32.81S98.74,67.83,97.91,67.67Z"/><path class="cls-1" d="M98.18,64.89c-.84-.13-1.56.23-1.52,0s.88-.68,1.71-.55,1.35.79,1.31,1S99,65,98.18,64.89Z"/><path class="cls-1" d="M98.23,62.65c-.84-.14-1.61-.11-1.57-.37s.88-.68,1.71-.54,1.35.78,1.31,1S99.06,62.78,98.23,62.65Z"/><path class="cls-1" d="M97.65,59.53c-.84.06-1.46.58-1.48.33s.7-.87,1.55-.93,1.48.46,1.5.72S98.5,59.47,97.65,59.53Z"/><path class="cls-1" d="M97,57c-.84.13-1.45.69-1.49.44s.62-.92,1.45-1.05a1.47,1.47,0,0,1,1.56.57C98.52,57.23,97.79,56.88,97,57Z"/><path class="cls-1" d="M96,54.41c-.81.25-1.3.89-1.37.65s.49-1,1.29-1.25a1.51,1.51,0,0,1,1.63.36C97.63,54.41,96.81,54.16,96,54.41Z"/><path class="cls-1" d="M95.05,52.42c-.81.24-1.49.6-1.57.36s.49-1,1.3-1.24a1.49,1.49,0,0,1,1.63.35C96.48,52.14,95.86,52.18,95.05,52.42Z"/><path class="cls-1" d="M93.28,49.84c-.73.42-1.06,1.17-1.19.94s.25-1.08,1-1.5a1.5,1.5,0,0,1,1.67,0C94.86,49.48,94,49.42,93.28,49.84Z"/><path class="cls-1" d="M91.87,48.21c-.73.42-1.32.93-1.44.7s.25-1.08,1-1.5a1.48,1.48,0,0,1,1.66,0C93.2,47.61,92.6,47.79,91.87,48.21Z"/><path class="cls-1" d="M89.29,46.09c-.61.58-.77,1.37-.94,1.19s0-1.12.61-1.69a1.5,1.5,0,0,1,1.62-.4C90.76,45.38,89.91,45.52,89.29,46.09Z"/><path class="cls-1" d="M87.54,44.67c-.62.58-1.07,1.2-1.25,1s0-1.11.62-1.68a1.5,1.5,0,0,1,1.62-.4C88.7,43.79,88.16,44.1,87.54,44.67Z"/><path class="cls-1" d="M84.76,43.38c-.47.7-.44,1.51-.65,1.37s-.25-1.09.22-1.79,1.27-.89,1.48-.75S85.23,42.68,84.76,43.38Z"/><path class="cls-1" d="M82.74,42.4c-.47.7-.78,1.41-1,1.26s-.25-1.08.22-1.78,1.28-.89,1.49-.75S83.21,41.7,82.74,42.4Z"/><path class="cls-1" d="M79.76,41.47c-.3.79-.09,1.57-.33,1.48s-.49-1-.18-1.78,1-1.16,1.27-1.07S80.06,40.68,79.76,41.47Z"/><path class="cls-1" d="M77.3,41.21c-.31.79,0,1.63-.29,1.54s-.49-1-.19-1.79,1-1.15,1.28-1.06S77.6,40.42,77.3,41.21Z"/><path class="cls-1" d="M74.55,41.32c-.11.83.27,1.55,0,1.52s-.7-.87-.59-1.7.75-1.37,1-1.33S74.67,40.48,74.55,41.32Z"/><path class="cls-2" d="M127.44,119.46a17.36,17.36,0,0,0,4.88,1.2,5.25,5.25,0,0,1-.92-.84,5.34,5.34,0,0,0,1.44.07,1,1,0,0,0-.32-.34,4.87,4.87,0,0,0,3.08-.94l-1.18-1.16c.34-.2.68-.42,1-.65a.63.63,0,0,1-.34-.18,5.49,5.49,0,0,0,2.66-3,3.62,3.62,0,0,1-1.82.66,33.21,33.21,0,0,1-4.11.24,8.62,8.62,0,0,0,5.23-1.82c-3.33.89-6.84.52-10.29.44a3,3,0,0,0-1.82.37c-.91.67-.89,2.36-.43,3.29A6.22,6.22,0,0,0,127.44,119.46Z"/><path class="cls-3" d="M75,65.45s43.42-18.63,52.76,7.14c6.41,17.7-17.16,21.88-2.89,41"/><circle class="cls-4" cx="124.87" cy="113.61" r="3.16" transform="translate(-43.76 121.57) rotate(-45)"/><path class="cls-5" d="M123.81,112.54c-1.06.82-1.32,2.2-1.62,1.81s0-2,1-2.82a2.35,2.35,0,0,1,2.8-.17C126.34,111.75,124.87,111.71,123.81,112.54Z"/><path class="cls-6" d="M108.82,59.21a2,2,0,1,1-2-2A2,2,0,0,1,108.82,59.21Z"/><path class="cls-7" d="M106.15,58.53c-.68.53-.84,1.4-1,1.15s0-1.26.66-1.79a1.5,1.5,0,0,1,1.77-.1C107.75,58,106.82,58,106.15,58.53Z"/><path class="cls-6" d="M119.07,61.21a2,2,0,1,1-2-2A2,2,0,0,1,119.07,61.21Z"/><path class="cls-7" d="M116.4,60.54c-.67.52-.83,1.39-1,1.14A1.76,1.76,0,0,1,116,59.9a1.5,1.5,0,0,1,1.78-.11C118,60,117.07,60,116.4,60.54Z"/><path class="cls-4" d="M113.9,59.72a2,2,0,1,1-2-2A2,2,0,0,1,113.9,59.72Z"/><path class="cls-5" d="M111.22,59.05c-.67.52-.83,1.39-1,1.14s0-1.26.66-1.78a1.48,1.48,0,0,1,1.77-.11C112.83,58.55,111.9,58.52,111.22,59.05Z"/><path class="cls-8" d="M130.46,119.7a10,10,0,0,1-2-1.1,3.1,3.1,0,0,0,1.4.46,19.37,19.37,0,0,0,2.14.21,9.66,9.66,0,0,1-2-1.06,3.35,3.35,0,0,0,1.29.4,11.42,11.42,0,0,0,3.69,0,2.82,2.82,0,0,0-.86-.19,21.68,21.68,0,0,1-3.29-.62,9.25,9.25,0,0,1-3-1.46,3.91,3.91,0,0,0,1.54,1.39,10.71,10.71,0,0,1-2.54-1.25,3.17,3.17,0,0,0,1.46,1.57,2.43,2.43,0,0,1-.78-.24c-.64-.27-1.28-.56-1.91-.85-.12-.06-.33-.22-.37,0s.2.39.28.49a6.52,6.52,0,0,0,2.94,1.87A8.19,8.19,0,0,0,130.46,119.7Z"/><path class="cls-8" d="M136.4,115l-1,.56a5.39,5.39,0,0,1-1.07.48,6.71,6.71,0,0,1-1.61.21,6.83,6.83,0,0,0,1.8.22,9.78,9.78,0,0,1-3.19-.2,5.57,5.57,0,0,1-3.17-1.8,7.23,7.23,0,0,0,2.62.27,3.43,3.43,0,0,1-2.2-.91,10.41,10.41,0,0,0,1.58.12,20.32,20.32,0,0,0,4.73-.42,18.82,18.82,0,0,1-3.59,1.09,18.36,18.36,0,0,0,5.34.18C136.61,114.84,136.47,114.9,136.4,115Z"/><path class="cls-2" d="M22.56,119.46a17.36,17.36,0,0,1-4.88,1.2,5.25,5.25,0,0,0,.92-.84,5.34,5.34,0,0,1-1.44.07,1,1,0,0,1,.32-.34,4.87,4.87,0,0,1-3.08-.94l1.18-1.16c-.34-.2-.68-.42-1-.65a.63.63,0,0,0,.34-.18,5.49,5.49,0,0,1-2.66-3,3.62,3.62,0,0,0,1.82.66,33.21,33.21,0,0,0,4.11.24A8.62,8.62,0,0,1,13,112.66c3.33.89,6.84.52,10.29.44a3,3,0,0,1,1.82.37c.91.67.89,2.36.43,3.29A6.22,6.22,0,0,1,22.56,119.46Z"/><path class="cls-3" d="M75,65.45S31.58,46.82,22.24,72.59c-6.41,17.7,17.16,21.88,2.89,41"/><circle class="cls-4" cx="25.13" cy="113.61" r="3.16" transform="translate(-89.08 91.39) rotate(-66.52)"/><path class="cls-5" d="M26.19,112.54c1.06.82,1.32,2.2,1.62,1.81s0-2-1-2.82a2.35,2.35,0,0,0-2.8-.17C23.66,111.75,25.13,111.71,26.19,112.54Z"/><path class="cls-6" d="M41.18,59.21a2,2,0,1,0,2-2A2,2,0,0,0,41.18,59.21Z"/><path class="cls-7" d="M43.86,58.53c.67.53.83,1.4,1,1.15s0-1.26-.66-1.79a1.5,1.5,0,0,0-1.77-.1C42.25,58,43.18,58,43.86,58.53Z"/><path class="cls-6" d="M30.93,61.21a2,2,0,1,0,2-2A2,2,0,0,0,30.93,61.21Z"/><path class="cls-7" d="M33.6,60.54c.67.52.83,1.39,1,1.14A1.76,1.76,0,0,0,34,59.9a1.5,1.5,0,0,0-1.78-.11C32,60,32.93,60,33.6,60.54Z"/><path class="cls-4" d="M36.1,59.72a2,2,0,1,0,2-2A2,2,0,0,0,36.1,59.72Z"/><path class="cls-5" d="M38.78,59.05c.67.52.83,1.39,1,1.14s0-1.26-.66-1.78a1.48,1.48,0,0,0-1.77-.11C37.17,58.55,38.1,58.52,38.78,59.05Z"/><path class="cls-8" d="M19.54,119.7a10,10,0,0,0,2-1.1,3.1,3.1,0,0,1-1.4.46,19.37,19.37,0,0,1-2.14.21,9.66,9.66,0,0,0,2-1.06,3.35,3.35,0,0,1-1.29.4,11.42,11.42,0,0,1-3.69,0,2.82,2.82,0,0,1,.86-.19,21.68,21.68,0,0,0,3.29-.62,9.25,9.25,0,0,0,3-1.46,3.91,3.91,0,0,1-1.54,1.39,10.71,10.71,0,0,0,2.54-1.25A3.17,3.17,0,0,1,21.72,118a2.43,2.43,0,0,0,.78-.24c.64-.27,1.28-.56,1.91-.85.12-.06.33-.22.37,0s-.2.39-.28.49a6.52,6.52,0,0,1-2.94,1.87A8.19,8.19,0,0,1,19.54,119.7Z"/><path class="cls-8" d="M13.6,115l1,.56a5.39,5.39,0,0,0,1.07.48,6.71,6.71,0,0,0,1.61.21,6.83,6.83,0,0,1-1.8.22,9.78,9.78,0,0,0,3.19-.2,5.57,5.57,0,0,0,3.17-1.8,7.23,7.23,0,0,1-2.62.27,3.43,3.43,0,0,0,2.2-.91,10.41,10.41,0,0,1-1.58.12,20.32,20.32,0,0,1-4.73-.42,18.82,18.82,0,0,0,3.59,1.09,18.36,18.36,0,0,1-5.34.18C13.39,114.84,13.53,114.9,13.6,115Z"/><path class="cls-2" d="M97.29,64.3A22.29,22.29,0,1,1,75,42,22.28,22.28,0,0,1,97.29,64.3Z"/><path class="cls-9" d="M75,39.34a25,25,0,1,0,25,25A25,25,0,0,0,75,39.34Zm0,47.24A22.29,22.29,0,1,1,97.29,64.3,22.28,22.28,0,0,1,75,86.58Z"/><path class="cls-4" d="M75,54.44a9.49,9.49,0,0,0-2.28.27c.27.53.58,1.09.9,1.66A7.87,7.87,0,0,1,75,56.25a8,8,0,0,1,1.39.12c.32-.57.62-1.13.9-1.66A9.57,9.57,0,0,0,75,54.44Zm0,0a9.49,9.49,0,0,0-2.28.27c.27.53.58,1.09.9,1.66A7.87,7.87,0,0,1,75,56.25a8,8,0,0,1,1.39.12c.32-.57.62-1.13.9-1.66A9.57,9.57,0,0,0,75,54.44Zm-7.92,8.47c-.57-.33-1.13-.63-1.66-.9a9.8,9.8,0,0,0,0,4.57c.53-.28,1.09-.58,1.66-.91A7.67,7.67,0,0,1,67,64.3,7.9,7.9,0,0,1,67.08,62.91ZM75,56.25a8,8,0,0,1,1.39.12c.32-.57.62-1.13.9-1.66a9.8,9.8,0,0,0-4.57,0c.27.53.58,1.09.9,1.66A7.87,7.87,0,0,1,75,56.25Zm0,16.09a7.79,7.79,0,0,1-1.38-.12c-.33.57-.63,1.13-.91,1.66a9.85,9.85,0,0,0,4.58,0c-.28-.53-.58-1.09-.91-1.66A7.87,7.87,0,0,1,75,72.34ZM65.42,62a9.8,9.8,0,0,0,0,4.57c.53-.28,1.09-.58,1.66-.91A7.67,7.67,0,0,1,67,64.3a7.9,7.9,0,0,1,.12-1.39C66.51,62.58,66,62.28,65.42,62Zm19.17,0A9.72,9.72,0,0,0,84,60.15a9.54,9.54,0,0,0-1-1.74,9.67,9.67,0,0,0-2-2,10.14,10.14,0,0,0-1.74-1,9.72,9.72,0,0,0-1.86-.64,9.8,9.8,0,0,0-4.57,0,9.72,9.72,0,0,0-1.86.64,9.54,9.54,0,0,0-1.74,1,9.67,9.67,0,0,0-2,2,10.14,10.14,0,0,0-1,1.74A9.72,9.72,0,0,0,65.42,62a9.8,9.8,0,0,0,0,4.57,9.72,9.72,0,0,0,.64,1.86,9.93,9.93,0,0,0,3.06,3.76,10.44,10.44,0,0,0,1.73,1,10,10,0,0,0,1.86.64,9.88,9.88,0,0,0,6.43-.64,9.54,9.54,0,0,0,1.74-1,10,10,0,0,0,2-2,9.75,9.75,0,0,0,1-1.73,9.11,9.11,0,0,0,.65-1.86,9.85,9.85,0,0,0,0-4.58Zm-2.28,5.64a8,8,0,0,1-1.32,2c-.2.21-.4.42-.62.62a8.28,8.28,0,0,1-2,1.32,8.06,8.06,0,0,1-2,.61,7.87,7.87,0,0,1-1.38.12,7.79,7.79,0,0,1-1.38-.12,7.67,7.67,0,0,1-2-.62,7.52,7.52,0,0,1-2-1.32,6,6,0,0,1-.62-.62,7.87,7.87,0,0,1-1.94-4A7.67,7.67,0,0,1,67,64.3a7.9,7.9,0,0,1,.12-1.39,8.2,8.2,0,0,1,.61-2,7.81,7.81,0,0,1,1.33-2,6,6,0,0,1,.62-.62,7.52,7.52,0,0,1,2-1.32A7.93,7.93,0,0,1,75,56.25a8,8,0,0,1,1.39.12,7.8,7.8,0,0,1,2,.62,7.68,7.68,0,0,1,2,1.32,7.36,7.36,0,0,1,.63.62,7.79,7.79,0,0,1,1.31,2,7.22,7.22,0,0,1,.61,2,7.44,7.44,0,0,1,0,2.77A7.39,7.39,0,0,1,82.31,67.65ZM67.08,62.91c-.57-.33-1.13-.63-1.66-.9a9.8,9.8,0,0,0,0,4.57c.53-.28,1.09-.58,1.66-.91A7.67,7.67,0,0,1,67,64.3,7.9,7.9,0,0,1,67.08,62.91Zm9.3,9.31a7.87,7.87,0,0,1-1.38.12,7.79,7.79,0,0,1-1.38-.12c-.33.57-.63,1.13-.91,1.66a9.85,9.85,0,0,0,4.58,0C77,73.35,76.71,72.79,76.38,72.22ZM75,54.44a9.49,9.49,0,0,0-2.28.27c.27.53.58,1.09.9,1.66A7.87,7.87,0,0,1,75,56.25a8,8,0,0,1,1.39.12c.32-.57.62-1.13.9-1.66A9.57,9.57,0,0,0,75,54.44Zm0,0a9.49,9.49,0,0,0-2.28.27c.27.53.58,1.09.9,1.66A7.87,7.87,0,0,1,75,56.25a8,8,0,0,1,1.39.12c.32-.57.62-1.13.9-1.66A9.57,9.57,0,0,0,75,54.44Z"/><path class="cls-9" d="M76.73,43.86a10,10,0,0,0-3.45,0c-5.15.9-5.58,4.68-2.42,11.49.24.53.5,1.07.79,1.64a7.8,7.8,0,0,1,2-.62c-.32-.57-.63-1.13-.9-1.66-3.12-6-3.16-9.29,1-10a7.17,7.17,0,0,1,2.53,0c4.18.73,4.14,4,1,10-.28.53-.58,1.09-.9,1.66a7.8,7.8,0,0,1,2,.62c.29-.57.55-1.11.79-1.64C82.31,48.54,81.88,44.76,76.73,43.86Z"/><circle class="cls-4" cx="75" cy="48.36" r="2.29"/><path class="cls-6" d="M89.75,51.14a6.45,6.45,0,0,0-1.59-1.58c-3.27-2.3-5.37.22-7.27,6.83-.17.6-.35,1.24-.52,1.92a7.36,7.36,0,0,1,.63.62c.67-.17,1.31-.34,1.91-.52C89.52,56.51,92.05,54.42,89.75,51.14ZM82.1,57.2c1.55-6.35,3.17-9,5.89-7.05a4.73,4.73,0,0,1,1.16,1.16C91.07,54,88.45,55.65,82.1,57.2Z"/><circle class="cls-4" cx="86.88" cy="52.42" r="1.49"/><path class="cls-6" d="M82.91,70.18c-.61-.17-1.25-.35-1.92-.51-.2.21-.4.42-.62.62.17.67.34,1.31.51,1.91,1.91,6.61,4,9.14,7.28,6.84a6.45,6.45,0,0,0,1.58-1.59C92,74.18,89.52,72.08,82.91,70.18Zm6.24,7.1A4.82,4.82,0,0,1,88,78.45c-2.72,1.91-4.34-.7-5.88-7C88.45,73,91.06,74.56,89.15,77.28Z"/><circle class="cls-4" cx="86.88" cy="76.17" r="1.49"/><path class="cls-6" d="M69,69.66c-.68.17-1.32.34-1.92.52-6.61,1.9-9.14,4-6.84,7.27A6.49,6.49,0,0,0,61.85,79c3.27,2.3,5.37-.23,7.27-6.84.17-.61.34-1.25.52-1.92A6,6,0,0,1,69,69.66Zm-7,8.78a4.61,4.61,0,0,1-1.17-1.16c-1.91-2.72.7-4.34,7.05-5.89C66.35,77.74,64.74,80.36,62,78.44Z"/><path class="cls-4" d="M62.07,75.12a1.48,1.48,0,0,1,2.11,0,1.49,1.49,0,1,1-2.11,2.11A1.48,1.48,0,0,1,62.07,75.12Z"/><path class="cls-6" d="M69.12,56.39c-1.9-6.61-4-9.14-7.27-6.84a6.32,6.32,0,0,0-1.59,1.59c-2.3,3.28.23,5.37,6.84,7.27.6.17,1.24.35,1.92.52a6,6,0,0,1,.62-.62C69.46,57.63,69.29,57,69.12,56.39Zm-8.27-5.08A5,5,0,0,1,62,50.14c2.72-1.91,4.34.71,5.89,7.06C61.56,55.65,58.94,54,60.85,51.31Z"/><path class="cls-4" d="M64.18,51.36a1.49,1.49,0,0,1-2.11,2.11,1.49,1.49,0,1,1,2.11-2.11Z"/><path class="cls-9" d="M95.44,62.58C94.54,57.42,90.76,57,84,60.15c-.53.25-1.08.51-1.64.8a7.22,7.22,0,0,1,.61,2l1.67-.9c6-3.12,9.29-3.16,10,1a7.22,7.22,0,0,1,0,2.54c-.73,4.17-4,4.13-10,1-.53-.28-1.09-.58-1.67-.91a7.39,7.39,0,0,1-.61,2c.56.29,1.11.55,1.63.8,6.82,3.15,10.6,2.73,11.5-2.43A9.94,9.94,0,0,0,95.44,62.58Z"/><path class="cls-4" d="M90.94,66.59a2.29,2.29,0,1,1,2.29-2.29A2.3,2.3,0,0,1,90.94,66.59Z"/><path class="cls-9" d="M79.14,73.24c-.24-.53-.5-1.07-.79-1.63a8.06,8.06,0,0,1-2,.61c.33.57.63,1.13.91,1.66,3.11,6,3.15,9.3-1,10a7.22,7.22,0,0,1-2.54,0c-4.17-.73-4.13-4-1-10,.28-.53.58-1.09.91-1.66a7.67,7.67,0,0,1-2-.62c-.29.57-.55,1.11-.8,1.64-3.15,6.81-2.73,10.59,2.43,11.49a9.47,9.47,0,0,0,3.44,0C81.88,83.83,82.3,80.05,79.14,73.24Z"/><path class="cls-4" d="M72.71,80.24A2.29,2.29,0,1,1,75,82.53,2.29,2.29,0,0,1,72.71,80.24Z"/><path class="cls-9" d="M65.42,66.58c-6,3.12-9.3,3.16-10-1a7.67,7.67,0,0,1,0-2.53c.73-4.18,4-4.14,10-1,.53.27,1.09.57,1.66.9a8.2,8.2,0,0,1,.61-2c-.56-.28-1.1-.55-1.63-.79-6.81-3.16-10.59-2.73-11.5,2.42a9.94,9.94,0,0,0,0,3.44c.91,5.16,4.69,5.59,11.5,2.43l1.63-.79a8.14,8.14,0,0,1-.61-2C66.51,66,66,66.3,65.42,66.58Z"/><circle class="cls-4" cx="59.06" cy="64.29" r="2.29"/><circle class="cls-4" cx="75" cy="64.3" r="5.62"/><path class="cls-4" d="M76.44,41.24c0,1-.64,1.9-1.44,1.9a2,2,0,0,1,0-3.8C75.8,39.34,76.44,40.19,76.44,41.24Z"/><path class="cls-6" d="M79.1,41.56c-.12,1-.86,1.81-1.65,1.72a1.7,1.7,0,0,1-1.2-2.05c.12-1,.85-1.82,1.64-1.72A1.72,1.72,0,0,1,79.1,41.56Z"/><path class="cls-4" d="M81.71,42.19c-.24,1-1.07,1.7-1.84,1.52a1.73,1.73,0,0,1-1-2.18c.24-1,1.06-1.7,1.84-1.52A1.72,1.72,0,0,1,81.71,42.19Z"/><path class="cls-6" d="M84.22,43.11a1.49,1.49,0,1,1-.7-2.27A1.71,1.71,0,0,1,84.22,43.11Z"/><path class="cls-4" d="M86.62,44.33A1.49,1.49,0,1,1,86.18,42,1.72,1.72,0,0,1,86.62,44.33Z"/><path class="cls-6" d="M88.85,45.81a1.49,1.49,0,1,1-2.4-1.58,1.49,1.49,0,1,1,2.4,1.58Z"/><path class="cls-4" d="M90.9,47.53a1.49,1.49,0,1,1-2.21-1.84,1.5,1.5,0,1,1,2.21,1.84Z"/><path class="cls-6" d="M92.74,49.49a1.5,1.5,0,1,1,.39-2.35A1.72,1.72,0,0,1,92.74,49.49Z"/><path class="cls-4" d="M94.33,51.64A1.49,1.49,0,1,1,95,49.35,1.71,1.71,0,0,1,94.33,51.64Z"/><ellipse class="cls-6" cx="94.95" cy="52.72" rx="1.9" ry="1.44" transform="translate(-13.64 54.78) rotate(-30.13)"/><path class="cls-4" d="M96.72,56.43a1.49,1.49,0,1,1,1.17-2.07A1.71,1.71,0,0,1,96.72,56.43Z"/><ellipse class="cls-6" cx="97.07" cy="57.63" rx="1.9" ry="1.44" transform="translate(-12.53 30.57) rotate(-16.83)"/><path class="cls-4" d="M98,61.64a1.71,1.71,0,0,1-2.12-1.08c-.14-.78.58-1.56,1.61-1.75a1.73,1.73,0,0,1,2.13,1.08C99.71,60.67,99,61.46,98,61.64Z"/><path class="cls-6" d="M98.11,64.32a1.73,1.73,0,0,1-2-1.32c-.05-.79.76-1.49,1.81-1.55a1.7,1.7,0,0,1,2,1.32C100,63.56,99.15,64.25,98.11,64.32Z"/><path class="cls-4" d="M98,67c-1-.06-1.86-.75-1.82-1.54a1.72,1.72,0,0,1,2-1.34c1.05.06,1.87.75,1.82,1.54A1.72,1.72,0,0,1,98,67Z"/><path class="cls-6" d="M97.48,69.64c-1-.18-1.76-1-1.63-1.74A1.72,1.72,0,0,1,98,66.8c1,.18,1.76,1,1.63,1.74A1.74,1.74,0,0,1,97.48,69.64Z"/><path class="cls-4" d="M96.71,72.2a1.49,1.49,0,1,1,2.23-.84A1.7,1.7,0,0,1,96.71,72.2Z"/><path class="cls-6" d="M95.65,74.67A1.5,1.5,0,1,1,98,74.09,1.71,1.71,0,0,1,95.65,74.67Z"/><path class="cls-4" d="M94.31,77a1.49,1.49,0,1,1,2.36-.31A1.72,1.72,0,0,1,94.31,77Z"/><path class="cls-6" d="M92.71,79.14a1.49,1.49,0,1,1,2.38,0A1.72,1.72,0,0,1,92.71,79.14Z"/><ellipse class="cls-4" cx="91.85" cy="80.04" rx="1.44" ry="1.9" transform="translate(-29.34 92.54) rotate(-46.96)"/><path class="cls-6" d="M88.82,82.82a1.49,1.49,0,1,1,2.32.51A1.71,1.71,0,0,1,88.82,82.82Z"/><path class="cls-4" d="M86.58,84.29a1.49,1.49,0,1,1,2.25.79A1.72,1.72,0,0,1,86.58,84.29Z"/><path class="cls-6" d="M84.19,85.5a1.49,1.49,0,1,1,2.14,1A1.72,1.72,0,0,1,84.19,85.5Z"/><path class="cls-4" d="M81.67,86.42a1.49,1.49,0,1,1,2,1.28A1.71,1.71,0,0,1,81.67,86.42Z"/><path class="cls-6" d="M79.06,87a1.71,1.71,0,0,1,1-2.18c.77-.19,1.6.48,1.84,1.5a1.72,1.72,0,0,1-.94,2.19C80.14,88.74,79.31,88.06,79.06,87Z"/><path class="cls-4" d="M76.4,87.36a1.71,1.71,0,0,1,1.19-2.06c.79-.1,1.53.67,1.66,1.71a1.71,1.71,0,0,1-1.19,2.06C77.27,89.17,76.53,88.4,76.4,87.36Z"/><path class="cls-6" d="M73.72,87.37c0-1.05.63-1.91,1.42-1.91s1.45.84,1.45,1.89a1.49,1.49,0,1,1-2.87,0Z"/><path class="cls-4" d="M71.05,87.06c.12-1,.85-1.81,1.64-1.73a1.72,1.72,0,0,1,1.22,2c-.11,1-.84,1.82-1.63,1.73A1.73,1.73,0,0,1,71.05,87.06Z"/><path class="cls-6" d="M68.44,86.45c.24-1,1.06-1.7,1.83-1.53a1.73,1.73,0,0,1,1,2.18c-.24,1-1.06,1.7-1.83,1.53A1.73,1.73,0,0,1,68.44,86.45Z"/><path class="cls-4" d="M65.92,85.55a1.49,1.49,0,1,1,.72,2.27A1.71,1.71,0,0,1,65.92,85.55Z"/><path class="cls-6" d="M63.52,84.35a1.49,1.49,0,1,1,2.58,1.27,1.49,1.49,0,1,1-2.58-1.27Z"/><path class="cls-4" d="M61.28,82.89a1.49,1.49,0,1,1,2.41,1.56,1.49,1.49,0,1,1-2.41-1.56Z"/><path class="cls-6" d="M59.21,81.17A1.49,1.49,0,1,1,61.43,83a1.49,1.49,0,1,1-2.22-1.83Z"/><path class="cls-4" d="M57.37,79.23a1.49,1.49,0,1,1,2,2.07,1.49,1.49,0,1,1-2-2.07Z"/><path class="cls-6" d="M55.76,77.09a1.49,1.49,0,1,1,1.73,2.29,1.49,1.49,0,1,1-1.73-2.29Z"/><path class="cls-4" d="M54.4,74.77a1.5,1.5,0,1,1,1.46,2.48,1.49,1.49,0,1,1-1.46-2.48Z"/><path class="cls-6" d="M53.33,72.31a1.49,1.49,0,1,1,1.16,2.63,1.49,1.49,0,1,1-1.16-2.63Z"/><path class="cls-4" d="M52.55,69.75a1.5,1.5,0,1,1,.85,2.75,1.72,1.72,0,0,1-2.24-.82C50.92,70.93,51.54,70.06,52.55,69.75Z"/><path class="cls-6" d="M52.07,67.11a1.72,1.72,0,0,1,2.13,1.07c.14.78-.57,1.57-1.61,1.76a1.72,1.72,0,0,1-2.13-1.07C50.32,68.09,51,67.3,52.07,67.11Z"/><path class="cls-4" d="M51.89,64.44a1.72,1.72,0,0,1,2,1.3c0,.79-.75,1.49-1.8,1.56a1.7,1.7,0,0,1-2-1.3C50,65.21,50.85,64.51,51.89,64.44Z"/><path class="cls-6" d="M52,61.76c1,.05,1.87.73,1.83,1.53s-.91,1.39-2,1.34S50,63.9,50.07,63.1A1.72,1.72,0,0,1,52,61.76Z"/><path class="cls-4" d="M52.48,59.12c1,.17,1.77.94,1.64,1.72A1.71,1.71,0,0,1,52,62c-1-.17-1.77-.94-1.64-1.73A1.71,1.71,0,0,1,52.48,59.12Z"/><path class="cls-6" d="M53.24,56.54a1.5,1.5,0,1,1-.8,2.77,1.5,1.5,0,1,1,.8-2.77Z"/><path class="cls-4" d="M54.28,54.07a1.5,1.5,0,1,1-1.11,2.66,1.5,1.5,0,1,1,1.11-2.66Z"/><path class="cls-6" d="M55.6,51.74a1.49,1.49,0,1,1-1.4,2.51,1.49,1.49,0,1,1,1.4-2.51Z"/><path class="cls-4" d="M57.19,49.58a1.49,1.49,0,1,1-1.69,2.33,1.49,1.49,0,1,1,1.69-2.33Z"/><path class="cls-6" d="M59,47.62a1.49,1.49,0,1,1-1.94,2.11A1.49,1.49,0,1,1,59,47.62Z"/><path class="cls-4" d="M61.05,45.88a1.7,1.7,0,0,1,.15,2.37,2,2,0,0,1-2.47-2.88A1.71,1.71,0,0,1,61.05,45.88Z"/><path class="cls-6" d="M63.28,44.38A1.49,1.49,0,1,1,60.9,46a1.49,1.49,0,1,1,2.38-1.61Z"/><path class="cls-4" d="M65.67,43.16a1.49,1.49,0,1,1-2.55,1.32,1.49,1.49,0,1,1,2.55-1.32Z"/><path class="cls-6" d="M68.18,42.22a1.5,1.5,0,1,1-2.69,1,1.5,1.5,0,1,1,2.69-1Z"/><path class="cls-4" d="M71.12,41.5a1.63,1.63,0,1,1-2-1.45A1.77,1.77,0,0,1,71.12,41.5Z"/><ellipse class="cls-6" cx="72.34" cy="41.39" rx="1.44" ry="1.9" transform="translate(-4.29 8.63) rotate(-6.63)"/><path class="cls-9" d="M76.17,61.22A3.57,3.57,0,0,1,75,63.51a3.57,3.57,0,0,1-1.16-2.29c0-1.27.52-2.29,1.16-2.29S76.17,60,76.17,61.22Z"/><path class="cls-9" d="M78,63a3.58,3.58,0,0,1-2.45.79,3.53,3.53,0,0,1,.8-2.44c.89-.9,2-1.25,2.44-.8S78.9,62.05,78,63Z"/><path class="cls-9" d="M78.08,65.47a3.53,3.53,0,0,1-2.29-1.17,3.54,3.54,0,0,1,2.29-1.16c1.27,0,2.29.52,2.29,1.16S79.35,65.47,78.08,65.47Z"/><path class="cls-9" d="M76.35,67.3a3.58,3.58,0,0,1-.8-2.44,3.56,3.56,0,0,1,2.45.8c.89.89,1.25,2,.8,2.44S77.25,68.2,76.35,67.3Z"/><path class="cls-9" d="M73.83,67.38A3.53,3.53,0,0,1,75,65.09a3.54,3.54,0,0,1,1.16,2.29c0,1.26-.52,2.29-1.16,2.29S73.83,68.64,73.83,67.38Z"/><path class="cls-9" d="M72,65.65a3.56,3.56,0,0,1,2.45-.8,3.56,3.56,0,0,1-.8,2.45c-.89.89-2,1.25-2.44.79S71.1,66.54,72,65.65Z"/><path class="cls-9" d="M71.92,63.13a3.54,3.54,0,0,1,2.29,1.16,3.53,3.53,0,0,1-2.29,1.17c-1.27,0-2.29-.52-2.29-1.17S70.65,63.13,71.92,63.13Z"/><path class="cls-9" d="M73.65,61.29a3.61,3.61,0,0,1,.8,2.45,3.56,3.56,0,0,1-2.45-.8c-.89-.89-1.25-2-.8-2.44S72.75,60.4,73.65,61.29Z"/><path class="cls-7" d="M72.13,41.28c0,.84.15,1.6-.11,1.6s-.81-.76-.81-1.6.56-1.45.81-1.45S72.13,40.43,72.13,41.28Z"/><path class="cls-5" d="M68.75,42.08c.19.82.81,1.36.56,1.41s-1-.55-1.16-1.37a1.5,1.5,0,0,1,.46-1.6C68.86,40.46,68.56,41.26,68.75,42.08Z"/><path class="cls-7" d="M66.05,42.73c.19.82,1,1.43.7,1.49s-1-.56-1.15-1.38a1.49,1.49,0,0,1,.47-1.6C66.31,41.19,65.86,41.91,66.05,42.73Z"/><path class="cls-5" d="M63.9,44.07c.37.75,1.09,1.13.86,1.24S63.7,45,63.32,44.24a1.51,1.51,0,0,1,.09-1.67C63.64,42.46,63.53,43.31,63.9,44.07Z"/><path class="cls-7" d="M61.81,45.21c.37.76.84,1.38.61,1.49s-1.07-.32-1.44-1.08a1.47,1.47,0,0,1,.1-1.66C61.3,43.85,61.44,44.46,61.81,45.21Z"/><path class="cls-5" d="M59.62,47.09c.54.65,1.32.86,1.12,1s-1.11-.07-1.64-.72a1.49,1.49,0,0,1-.29-1.64C59,45.59,59.09,46.44,59.62,47.09Z"/><path class="cls-5" d="M62.75,52.77c.44.54,1.15.65,1,.81a1.41,1.41,0,0,1-1.46-.5,1.2,1.2,0,0,1-.12-1.43C62.32,51.49,62.32,52.24,62.75,52.77Z"/><path class="cls-5" d="M86.73,52.12c-.63.29-.92,1-1,.71s.23-1,.86-1.28A1.22,1.22,0,0,1,88,51.8C88.08,52,87.36,51.84,86.73,52.12Z"/><path class="cls-5" d="M87,75.84c-.52-.44-1.24-.43-1.08-.62a1.43,1.43,0,0,1,1.53.23,1.2,1.2,0,0,1,.38,1.39C87.64,77,87.5,76.29,87,75.84Z"/><path class="cls-5" d="M63.68,76.48c.44-.53.41-1.25.6-1.09a1.42,1.42,0,0,1-.19,1.53,1.23,1.23,0,0,1-1.39.41C62.51,77.17,63.24,77,63.68,76.48Z"/><path class="cls-5" d="M90.82,63.33c-1,.11-1.71.89-1.75.52s.77-1.28,1.78-1.4a1.78,1.78,0,0,1,1.86,1C92.75,63.82,91.83,63.22,90.82,63.33Z"/><path class="cls-5" d="M74.23,48.36c-.1,1.09.58,2,.18,2a2.26,2.26,0,0,1-1.11-2.2,1.92,1.92,0,0,1,1.46-1.76C75.16,46.41,74.32,47.27,74.23,48.36Z"/><path class="cls-5" d="M59,63.56c-1.07,0-1.93.67-1.92.27s1-1.22,2.09-1.18A1.88,1.88,0,0,1,61,64C61,64.38,60.11,63.6,59,63.56Z"/><path class="cls-7" d="M57.85,48.83c.53.66,1.13,1.16.93,1.32s-1.11-.08-1.64-.73a1.47,1.47,0,0,1-.29-1.64C57.05,47.62,57.32,48.18,57.85,48.83Z"/><path class="cls-5" d="M56.12,51.07c.66.52,1.48.54,1.32.75s-1.1.18-1.77-.34S54.87,50.15,55,50,55.45,50.56,56.12,51.07Z"/><path class="cls-7" d="M54.41,53.6c.72.45,1.75.21,1.62.43a1.8,1.8,0,0,1-1.79-.15c-.72-.44-1-1.24-.81-1.45S53.69,53.16,54.41,53.6Z"/><path class="cls-5" d="M53.57,56.07c.77.35,1.56.19,1.46.43s-1,.42-1.8.07-1.09-1.12-1-1.35S52.8,55.72,53.57,56.07Z"/><path class="cls-7" d="M52.55,58.62c.76.36,1.64.14,1.53.37s-1,.42-1.8.06-1.08-1.11-1-1.34S51.78,58.27,52.55,58.62Z"/><path class="cls-5" d="M52.17,60.92c.82.17,1.56-.16,1.51.09s-.91.64-1.73.47-1.31-.84-1.26-1.09S51.34,60.75,52.17,60.92Z"/><path class="cls-7" d="M51.86,63.12c.83.09,1.6.07,1.58.24s-.81.49-1.65.4-1.41-.54-1.39-.71S51,63,51.86,63.12Z"/><path class="cls-5" d="M52,65.54c-.84-.09-1.54.32-1.51.07s.84-.73,1.67-.65,1.39.71,1.36,1S52.8,65.63,52,65.54Z"/><path class="cls-7" d="M52.28,68.54c-.84.13-1.56.4-1.6.14s.62-.92,1.45-1.05a1.47,1.47,0,0,1,1.56.57C53.73,68.45,53.11,68.4,52.28,68.54Z"/><path class="cls-5" d="M52.91,70.76c-.83.14-1.4.72-1.44.46s.61-.92,1.44-1.06a1.48,1.48,0,0,1,1.57.57C54.52,71,53.74,70.62,52.91,70.76Z"/><path class="cls-7" d="M54,73.52c-.77.35-1.4.8-1.51.56s.36-1,1.12-1.4a1.48,1.48,0,0,1,1.66.14C55.41,73.06,54.79,73.17,54,73.52Z"/><path class="cls-5" d="M54.8,75.58c-.68.5-.93,1.27-1.08,1.07s.13-1.11.81-1.6a1.48,1.48,0,0,1,1.66-.2C56.34,75.06,55.48,75.09,54.8,75.58Z"/><path class="cls-7" d="M56.75,78c-.72.44-1.29,1-1.43.74s.23-1.09,1-1.53a1.47,1.47,0,0,1,1.66-.06C58.07,77.35,57.47,77.54,56.75,78Z"/><path class="cls-5" d="M58,79.92c-.65.54-.85,1.33-1,1.13s.07-1.11.71-1.65a1.51,1.51,0,0,1,1.64-.3C59.49,79.3,58.63,79.39,58,79.92Z"/><path class="cls-7" d="M60.47,82c-.6.59-1,1.23-1.22,1s0-1.11.57-1.7a1.5,1.5,0,0,1,1.61-.44C61.61,81,61.07,81.35,60.47,82Z"/><path class="cls-5" d="M62.14,83.44c-.59.6-.72,1.4-.9,1.22s0-1.11.55-1.71a1.49,1.49,0,0,1,1.61-.45C63.58,82.68,62.74,82.84,62.14,83.44Z"/><path class="cls-7" d="M64.84,84.81c-.35.77-.53,1.52-.77,1.41s-.42-1-.06-1.79,1.11-1.09,1.34-1S65.2,84.05,64.84,84.81Z"/><path class="cls-5" d="M66.79,86c-.21.81.08,1.57-.17,1.5s-.59-.94-.37-1.76.92-1.25,1.16-1.19S67,85.13,66.79,86Z"/><path class="cls-7" d="M69.61,86.71c-.07.84,0,1.61-.24,1.59s-.75-.83-.68-1.67.69-1.4.94-1.38S69.69,85.87,69.61,86.71Z"/><path class="cls-5" d="M72,87.26c-.13.84.25,1.56,0,1.52s-.69-.87-.56-1.71.76-1.35,1-1.31S72.16,86.43,72,87.26Z"/><path class="cls-7" d="M74.77,87.45c0-.84,0-1.63.26-1.62s.29.8.25,1.64-.16,1.43-.41,1.41S74.72,88.29,74.77,87.45Z"/><path class="cls-5" d="M77.42,87.22c0-.84,0-1.51.22-1.52s.55.73.59,1.57-.2,1.46-.45,1.48S77.46,88.06,77.42,87.22Z"/><path class="cls-5" d="M74.21,80.21c0-1.07.34-1.86.74-1.87s.82.93.85,2-.36,1.85-.75,1.86S74.24,81.27,74.21,80.21Z"/><path class="cls-7" d="M80.85,86.61c-.18-.82-.79-1.4-.54-1.45s1,.56,1.15,1.38a1.49,1.49,0,0,1-.48,1.6C80.73,88.19,81,87.44,80.85,86.61Z"/><path class="cls-5" d="M83.36,85.84c-.23-.82-.86-1.32-.62-1.39s1,.51,1.22,1.32a1.49,1.49,0,0,1-.39,1.62C83.32,87.46,83.59,86.65,83.36,85.84Z"/><path class="cls-7" d="M85.66,84.83c-.23-.82-.57-1.51-.33-1.58s1,.52,1.22,1.33a1.49,1.49,0,0,1-.4,1.62C85.91,86.26,85.88,85.64,85.66,84.83Z"/><path class="cls-5" d="M88.3,83.07c-.61-.59-1.41-.7-1.24-.89s1.11-.05,1.72.53a1.48,1.48,0,0,1,.48,1.6C89.08,84.49,88.9,83.65,88.3,83.07Z"/><path class="cls-7" d="M90.44,81.79c-.5-.67-1-1.21-.88-1.34s1,.22,1.49.89.5,1.44.33,1.57S91,82.47,90.44,81.79Z"/><path class="cls-5" d="M92.3,79.52c-.56-.63-1.36-.8-1.17-1s1.12,0,1.68.65a1.49,1.49,0,0,1,.36,1.63C93,81,92.86,80.15,92.3,79.52Z"/><path class="cls-7" d="M93.93,77.67c-.63-.56-1.46-.78-1.29-1s1.1-.11,1.73.45.72,1.38.55,1.57S94.56,78.23,93.93,77.67Z"/><path class="cls-5" d="M95.35,75.18c-.69-.49-1.5-.48-1.35-.69s1.09-.22,1.77.26.87,1.3.72,1.51S96,75.66,95.35,75.18Z"/><path class="cls-7" d="M96.42,73.09c-.75-.4-1.49-.63-1.36-.85s1-.36,1.79,0,1,1.18.9,1.4S97.16,73.49,96.42,73.09Z"/><path class="cls-5" d="M97.32,70.24c-.78-.32-1.57-.12-1.47-.36s1-.47,1.79-.15,1.13,1.07,1,1.3S98.1,70.56,97.32,70.24Z"/><path class="cls-7" d="M97.91,67.67c-.83-.17-1.59-.22-1.56-.38s.85-.4,1.68-.23,1.35.65,1.32.81S98.74,67.83,97.91,67.67Z"/><path class="cls-5" d="M98.18,64.89c-.84-.13-1.56.23-1.52,0s.88-.68,1.71-.55,1.35.79,1.31,1S99,65,98.18,64.89Z"/><path class="cls-7" d="M98.23,62.65c-.84-.14-1.61-.11-1.57-.37s.88-.68,1.71-.54,1.35.78,1.31,1S99.06,62.78,98.23,62.65Z"/><path class="cls-5" d="M97.65,59.53c-.84.06-1.46.58-1.48.33s.7-.87,1.55-.93,1.48.46,1.5.72S98.5,59.47,97.65,59.53Z"/><path class="cls-7" d="M97,57c-.84.13-1.45.69-1.49.44s.62-.92,1.45-1.05a1.47,1.47,0,0,1,1.56.57C98.52,57.23,97.79,56.88,97,57Z"/><path class="cls-5" d="M96,54.41c-.81.25-1.3.89-1.37.65s.49-1,1.29-1.25a1.51,1.51,0,0,1,1.63.36C97.63,54.41,96.81,54.16,96,54.41Z"/><path class="cls-7" d="M95.05,52.42c-.81.24-1.49.6-1.57.36s.49-1,1.3-1.24a1.49,1.49,0,0,1,1.63.35C96.48,52.14,95.86,52.18,95.05,52.42Z"/><path class="cls-5" d="M93.28,49.84c-.73.42-1.06,1.17-1.19.94s.25-1.08,1-1.5a1.5,1.5,0,0,1,1.67,0C94.86,49.48,94,49.42,93.28,49.84Z"/><path class="cls-7" d="M91.87,48.21c-.73.42-1.32.93-1.44.7s.25-1.08,1-1.5a1.48,1.48,0,0,1,1.66,0C93.2,47.61,92.6,47.79,91.87,48.21Z"/><path class="cls-5" d="M89.29,46.09c-.61.58-.77,1.37-.94,1.19s0-1.12.61-1.69a1.5,1.5,0,0,1,1.62-.4C90.76,45.38,89.91,45.52,89.29,46.09Z"/><path class="cls-7" d="M87.54,44.67c-.62.58-1.07,1.2-1.25,1s0-1.11.62-1.68a1.5,1.5,0,0,1,1.62-.4C88.7,43.79,88.16,44.1,87.54,44.67Z"/><path class="cls-5" d="M84.76,43.38c-.47.7-.44,1.51-.65,1.37s-.25-1.09.22-1.79,1.27-.89,1.48-.75S85.23,42.68,84.76,43.38Z"/><path class="cls-7" d="M82.74,42.4c-.47.7-.78,1.41-1,1.26s-.25-1.08.22-1.78,1.28-.89,1.49-.75S83.21,41.7,82.74,42.4Z"/><path class="cls-5" d="M79.76,41.47c-.3.79-.09,1.57-.33,1.48s-.49-1-.18-1.78,1-1.16,1.27-1.07S80.06,40.68,79.76,41.47Z"/><path class="cls-7" d="M77.3,41.21c-.31.79,0,1.63-.29,1.54s-.49-1-.19-1.79,1-1.15,1.28-1.06S77.6,40.42,77.3,41.21Z"/><path class="cls-5" d="M74.55,41.32c-.11.83.27,1.55,0,1.52s-.7-.87-.59-1.7.75-1.37,1-1.33S74.67,40.48,74.55,41.32Z"/></svg>