<svg id="थैली" xmlns="http://www.w3.org/2000/svg" xmlns:xlink="http://www.w3.org/1999/xlink" viewBox="0 0 150 160"><defs><style>.cls-1,.cls-4{fill:none;}.cls-2,.cls-3{fill:#fff;}.cls-2,.cls-4{stroke:#fff;stroke-miterlimit:10;stroke-width:5px;}.cls-5{fill:#8e5942;}.cls-6{fill:#ba927b;}.cls-7{clip-path:url(#clip-path);}.cls-8{fill:#b86e55;}.cls-9{fill:#702c1e;}</style><clipPath id="clip-path"><path class="cls-1" d="M110,135.66a85.1,85.1,0,0,1-1.26-8.82c-.21-3.1-.08-6.2-.08-9.29,0-3.6.42-7.17.56-10.76s-.11-7.45-.19-11.18c-.13-5.9,0-11.81,0-17.71,0-3.14.06-6.28.12-9.42,0-.61-.17-.84-.83-.92-1.32-.17-2.64-.24-4-.42-2.53-.34-5.08-.44-7.62-.65-1.25-.11-2.51-.09-3.82-.14l-47.35,1a39,39,0,0,0-4,.39c-.5.11-.64.32-.63.83.08,2.62.1,5.24.1,7.86,0,8,.18,15.91-.2,23.87a78.51,78.51,0,0,0,.33,11.37c.25,2.53.16,5.06.23,7.59A65.35,65.35,0,0,1,40.48,133a78.43,78.43,0,0,0-1.31,9.15,27.53,27.53,0,0,0,0,6.22A2.74,2.74,0,0,0,41,150.82a6.07,6.07,0,0,0,1.53.21,64.81,64.81,0,0,0,7.23-.45c2.06-.16,4.12-.46,6.19-.6,3.1-.23,6.21-.47,9.32-.53,4.14-.08,8.26-.38,12.4-.22,3.34.14,6.69.27,10,.33.95,0,1.9.08,2.84.15,2.21.17,4.41.34,6.61.53,1.55.14,3.09.33,4.64.46a42.3,42.3,0,0,0,6,.32c1.17-.06,2.27-.28,2.83-1.56a6.26,6.26,0,0,0,.48-2.36A59.29,59.29,0,0,0,110,135.66Z"/></clipPath></defs><path class="cls-2" d="M73.71,10.74c-.52.28-.88.5-1.26.69A20.54,20.54,0,0,0,68.3,14.1a16.78,16.78,0,0,0-3.94,5,29,29,0,0,0-2.7,9.71c-.68,4.88-.46,9.79-.4,14.69.06,5.08.31,10.17.38,15.25a29.41,29.41,0,0,1-.41,4.5c-.33,2.23-.57,4.47-1.07,6.67-.28,1.22-.43,1.41-1.68,1.47a3,3,0,0,0-1.16.32c-1,.53-2.27.61-3.25,1.3a1.14,1.14,0,0,1-.38.13c-.21,0-.42,0-.53-.18a.38.38,0,0,1,.12-.54c.74-.29.66-1,.74-1.54.52-3.5,1.24-7,2-10.41a32.87,32.87,0,0,0,.37-6.28c.1-4.24.19-8.49.48-12.73.18-2.7.34-5.4.58-8.1a66.19,66.19,0,0,1,2.48-13.73,11.33,11.33,0,0,1,6.27-7,18.47,18.47,0,0,1,5.63-2A4.67,4.67,0,0,1,73.71,10.74Z"/><path class="cls-2" d="M78.34,10.18a10,10,0,0,1,4.24,1.66,10.55,10.55,0,0,1,4.48,7.55c.32,2.23.65,4.45.86,6.69.17,1.73.24,3.48.3,5.21.08,2,.15,4.07.15,6.11a56.31,56.31,0,0,0,1.16,11.28A27.82,27.82,0,0,1,89.78,56c-.18,3-.75,5.89-1,8.86-.13,1.47-.43,2.93-.67,4.4-.1.6-.4.75-1,.47a3.57,3.57,0,0,0-2.19-.11c-1,.14-1.33-.17-1.13-1.22s.29-2.05.39-3.09c.26-2.61.22-5.23.27-7.85a84.52,84.52,0,0,1,.62-8.85c.25-2,.36-4.08.59-6.12a35.73,35.73,0,0,0-.51-9.29,36.25,36.25,0,0,1-.31-4,45.91,45.91,0,0,0-.81-7.39A28.5,28.5,0,0,0,80.68,13,11.51,11.51,0,0,0,78.34,10.18Z"/><path class="cls-2" d="M92.91,66.35c1.31.05,2.57,0,3.82.14,2.54.21,5.09.31,7.62.65,1.31.18,2.63.25,4,.42.66.08.84.31.83.92-.06,3.14-.11,6.28-.12,9.42,0,5.9-.09,11.81,0,17.71.08,3.73.34,7.45.19,11.18s-.56,7.16-.56,10.76c0,3.09-.13,6.19.08,9.29a85.1,85.1,0,0,0,1.26,8.82,59.29,59.29,0,0,1,1,11.44,6.26,6.26,0,0,1-.48,2.36c-.56,1.28-1.66,1.5-2.83,1.56a42.3,42.3,0,0,1-6-.32c-1.55-.13-3.09-.32-4.64-.46-2.2-.19-4.4-.36-6.61-.53-.94-.07-1.89-.13-2.84-.15-3.34-.06-6.69-.19-10-.33-4.14-.16-8.26.14-12.4.22-3.11.06-6.22.3-9.32.53-2.07.14-4.13.44-6.19.6a64.81,64.81,0,0,1-7.23.45,6.07,6.07,0,0,1-1.53-.21,2.74,2.74,0,0,1-1.84-2.46,27.53,27.53,0,0,1,0-6.22A78.43,78.43,0,0,1,40.48,133a65.35,65.35,0,0,0,.88-13.76c-.07-2.53,0-5.06-.23-7.59a78.51,78.51,0,0,1-.33-11.37c.38-8,.2-15.91.2-23.87,0-2.62,0-5.24-.1-7.86,0-.51.13-.72.63-.83a39,39,0,0,1,4-.39c4.18-.42,8.38-.53,12.65-.64a29.28,29.28,0,0,1,.31-3.18c.21-1.86.38-3.72.57-5.58a29.77,29.77,0,0,0,.19-5.74,40.44,40.44,0,0,1,.13-5.28c.06-1.42.06-2.84.19-4.26.22-2.5.36-5,.48-7.5a53.18,53.18,0,0,1,.49-5.79c.56-3.51.71-7.1,1.92-10.48a13.86,13.86,0,0,1,4.21-6.59A15.88,15.88,0,0,1,74.44,9a6.41,6.41,0,0,1,3.11.48,10.32,10.32,0,0,1,6.94,7.17,54.42,54.42,0,0,1,1.72,9.27A109.24,109.24,0,0,0,89.1,42.86a87.16,87.16,0,0,1,2.28,11.69C91.87,58.46,92.39,62.36,92.91,66.35Zm-4.94,0c0-.48,0-1,0-1.52-.17-3.81-.24-7.63-.53-11.44-.11-1.39-.21-2.78-.37-4.17-.21-1.74-.53-3.48-.69-5.22-.27-3.12-.76-6.21-1.15-9.32-.37-2.86-.67-5.73-.87-8.6a28.39,28.39,0,0,0-1.1-6.9A14.21,14.21,0,0,0,79.83,13a6.49,6.49,0,0,0-6.19-1.79,12.79,12.79,0,0,0-5,2.55,11.13,11.13,0,0,0-3,3.7,20.89,20.89,0,0,0-2,6.89,101.6,101.6,0,0,0-1,12.93c-.09,4,.05,7.91.29,11.85.17,2.82.46,5.62.64,8.43s.38,5.55.3,8.33a1.59,1.59,0,0,0,0,.7C72,68,79.94,67.43,88,66.32Z"/><path class="cls-3" d="M110,135.66a85.1,85.1,0,0,1-1.26-8.82c-.21-3.1-.08-6.2-.08-9.29,0-3.6.42-7.17.56-10.76s-.11-7.45-.19-11.18c-.13-5.9,0-11.81,0-17.71,0-3.14.06-6.28.12-9.42,0-.61-.17-.84-.83-.92-1.32-.17-2.64-.24-4-.42-2.53-.34-5.08-.44-7.62-.65-1.25-.11-2.51-.09-3.82-.14l-47.35,1a39,39,0,0,0-4,.39c-.5.11-.64.32-.63.83.08,2.62.1,5.24.1,7.86,0,8,.18,15.91-.2,23.87a78.51,78.51,0,0,0,.33,11.37c.25,2.53.16,5.06.23,7.59A65.35,65.35,0,0,1,40.48,133a78.43,78.43,0,0,0-1.31,9.15,27.53,27.53,0,0,0,0,6.22A2.74,2.74,0,0,0,41,150.82a6.07,6.07,0,0,0,1.53.21,64.81,64.81,0,0,0,7.23-.45c2.06-.16,4.12-.46,6.19-.6,3.1-.23,6.21-.47,9.32-.53,4.14-.08,8.26-.38,12.4-.22,3.34.14,6.69.27,10,.33.95,0,1.9.08,2.84.15,2.21.17,4.41.34,6.61.53,1.55.14,3.09.33,4.64.46a42.3,42.3,0,0,0,6,.32c1.17-.06,2.27-.28,2.83-1.56a6.26,6.26,0,0,0,.48-2.36A59.29,59.29,0,0,0,110,135.66Z"/><path class="cls-4" d="M110,135.66a85.1,85.1,0,0,1-1.26-8.82c-.21-3.1-.08-6.2-.08-9.29,0-3.6.42-7.17.56-10.76s-.11-7.45-.19-11.18c-.13-5.9,0-11.81,0-17.71,0-3.14.06-6.28.12-9.42,0-.61-.17-.84-.83-.92-1.32-.17-2.64-.24-4-.42-2.53-.34-5.08-.44-7.62-.65-1.25-.11-2.51-.09-3.82-.14l-47.35,1a39,39,0,0,0-4,.39c-.5.11-.64.32-.63.83.08,2.62.1,5.24.1,7.86,0,8,.18,15.91-.2,23.87a78.51,78.51,0,0,0,.33,11.37c.25,2.53.16,5.06.23,7.59A65.35,65.35,0,0,1,40.48,133a78.43,78.43,0,0,0-1.31,9.15,27.53,27.53,0,0,0,0,6.22A2.74,2.74,0,0,0,41,150.82a6.07,6.07,0,0,0,1.53.21,64.81,64.81,0,0,0,7.23-.45c2.06-.16,4.12-.46,6.19-.6,3.1-.23,6.21-.47,9.32-.53,4.14-.08,8.26-.38,12.4-.22,3.34.14,6.69.27,10,.33.95,0,1.9.08,2.84.15,2.21.17,4.41.34,6.61.53,1.55.14,3.09.33,4.64.46a42.3,42.3,0,0,0,6,.32c1.17-.06,2.27-.28,2.83-1.56a6.26,6.26,0,0,0,.48-2.36A59.29,59.29,0,0,0,110,135.66Z"/><path class="cls-2" d="M67.15,131.52c-1.57.36-3.12.81-4.7,1.1-2.11.4-4.24.72-6.37,1-1.18.16-2.39.17-3.57.3-2.17.24-4.33.5-6.49.8-.92.13-1.82.39-2.72.59l.06.25c8.28-.7,16.59-1.24,24.52-4.06A1.64,1.64,0,0,0,67.15,131.52Z"/><path class="cls-2" d="M56.24,137.18c-2.59-.15-5.19-.29-7.78-.3-2.05,0-4.1.18-6.15.31-.19,0-.37.24-.56.37.21.12.41.26.62.36s.23,0,.34,0c1.75-.12,3.51-.31,5.27-.32,2.66,0,5.33,0,8,.12,1.17,0,2.34.19,3.51.23s2.37,0,3.56,0l0-.14a1.57,1.57,0,0,0-.31-.08C60.59,137.54,58.42,137.31,56.24,137.18Z"/><path class="cls-2" d="M58.17,71.43c0,.86.12.94.95.9,1.35-.08,2.69-.21,4-.26.59,0,.81-.28.81-.82,0-1.13,0-2.26,0-3.39a3.61,3.61,0,0,0-.16-.78l-.15,0c-.07,1.51-.13,3-.2,4.53L58.52,72V67.14H60l1.38,0v-.27H58.16v1.62C58.16,69.45,58.14,70.44,58.17,71.43Z"/><path class="cls-2" d="M93.7,76.27l13.89,1.52,0-.24A52.48,52.48,0,0,0,93.7,76.27Z"/><path class="cls-2" d="M93,70.72c0-1.31-.12-2.63-.2-3.94h-.19v4H88.49c-.08-1.26-.15-2.51-.24-3.86L91,66.65l0-.29c-.9.1-1.8.17-2.69.3a.69.69,0,0,0-.34.54c0,1.12.16,2.24.24,3.36,0,.5.25.71.77.69,1.17,0,2.34,0,3.51-.11C92.62,71.13,93,70.87,93,70.72Z"/><path class="cls-2" d="M92.77,142a11.52,11.52,0,0,0-3.36,1.19l.1.3,3.37-1.19Z"/><path class="cls-2" d="M91.18,143.46l.08.25,3.63-1.16-.08-.31Z"/><path class="cls-2" d="M85,143.8l.11.26,2.1-.76-.12-.31Z"/><path class="cls-5" d="M73.71,10.74c-.52.28-.88.5-1.26.69A20.54,20.54,0,0,0,68.3,14.1a16.78,16.78,0,0,0-3.94,5,29,29,0,0,0-2.7,9.71c-.68,4.88-.46,9.79-.4,14.69.06,5.08.31,10.17.38,15.25a29.41,29.41,0,0,1-.41,4.5c-.33,2.23-.57,4.47-1.07,6.67-.28,1.22-.43,1.41-1.68,1.47a3,3,0,0,0-1.16.32c-1,.53-2.27.61-3.25,1.3a1.14,1.14,0,0,1-.38.13c-.21,0-.42,0-.53-.18a.38.38,0,0,1,.12-.54c.74-.29.66-1,.74-1.54.52-3.5,1.24-7,2-10.41a32.87,32.87,0,0,0,.37-6.28c.1-4.24.19-8.49.48-12.73.18-2.7.34-5.4.58-8.1a66.19,66.19,0,0,1,2.48-13.73,11.33,11.33,0,0,1,6.27-7,18.47,18.47,0,0,1,5.63-2A4.67,4.67,0,0,1,73.71,10.74Z"/><path class="cls-5" d="M78.34,10.18a10,10,0,0,1,4.24,1.66,10.55,10.55,0,0,1,4.48,7.55c.32,2.23.65,4.45.86,6.69.17,1.73.24,3.48.3,5.21.08,2,.15,4.07.15,6.11a56.31,56.31,0,0,0,1.16,11.28A27.82,27.82,0,0,1,89.78,56c-.18,3-.75,5.89-1,8.86-.13,1.47-.43,2.93-.67,4.4-.1.6-.4.75-1,.47a3.57,3.57,0,0,0-2.19-.11c-1,.14-1.33-.17-1.13-1.22s.29-2.05.39-3.09c.26-2.61.22-5.23.27-7.85a84.52,84.52,0,0,1,.62-8.85c.25-2,.36-4.08.59-6.12a35.73,35.73,0,0,0-.51-9.29,36.25,36.25,0,0,1-.31-4,45.91,45.91,0,0,0-.81-7.39A28.5,28.5,0,0,0,80.68,13,11.51,11.51,0,0,0,78.34,10.18Z"/><path class="cls-6" d="M92.91,66.35c1.31.05,2.57,0,3.82.14,2.54.21,5.09.31,7.62.65,1.31.18,2.63.25,4,.42.66.08.84.31.83.92-.06,3.14-.11,6.28-.12,9.42,0,5.9-.09,11.81,0,17.71.08,3.73.34,7.45.19,11.18s-.56,7.16-.56,10.76c0,3.09-.13,6.19.08,9.29a85.1,85.1,0,0,0,1.26,8.82,59.29,59.29,0,0,1,1,11.44,6.26,6.26,0,0,1-.48,2.36c-.56,1.28-1.66,1.5-2.83,1.56a42.3,42.3,0,0,1-6-.32c-1.55-.13-3.09-.32-4.64-.46-2.2-.19-4.4-.36-6.61-.53-.94-.07-1.89-.13-2.84-.15-3.34-.06-6.69-.19-10-.33-4.14-.16-8.26.14-12.4.22-3.11.06-6.22.3-9.32.53-2.07.14-4.13.44-6.19.6a64.81,64.81,0,0,1-7.23.45,6.07,6.07,0,0,1-1.53-.21,2.74,2.74,0,0,1-1.84-2.46,27.53,27.53,0,0,1,0-6.22A78.43,78.43,0,0,1,40.48,133a65.35,65.35,0,0,0,.88-13.76c-.07-2.53,0-5.06-.23-7.59a78.51,78.51,0,0,1-.33-11.37c.38-8,.2-15.91.2-23.87,0-2.62,0-5.24-.1-7.86,0-.51.13-.72.63-.83a39,39,0,0,1,4-.39c4.18-.42,8.38-.53,12.65-.64a29.28,29.28,0,0,1,.31-3.18c.21-1.86.38-3.72.57-5.58a29.77,29.77,0,0,0,.19-5.74,40.44,40.44,0,0,1,.13-5.28c.06-1.42.06-2.84.19-4.26.22-2.5.36-5,.48-7.5a53.18,53.18,0,0,1,.49-5.79c.56-3.51.71-7.1,1.92-10.48a13.86,13.86,0,0,1,4.21-6.59A15.88,15.88,0,0,1,74.44,9a6.41,6.41,0,0,1,3.11.48,10.32,10.32,0,0,1,6.94,7.17,54.42,54.42,0,0,1,1.72,9.27A109.24,109.24,0,0,0,89.1,42.86a87.16,87.16,0,0,1,2.28,11.69C91.87,58.46,92.39,62.36,92.91,66.35Zm-4.94,0c0-.48,0-1,0-1.52-.17-3.81-.24-7.63-.53-11.44-.11-1.39-.21-2.78-.37-4.17-.21-1.74-.53-3.48-.69-5.22-.27-3.12-.76-6.21-1.15-9.32-.37-2.86-.67-5.73-.87-8.6a28.39,28.39,0,0,0-1.1-6.9A14.21,14.21,0,0,0,79.83,13a6.49,6.49,0,0,0-6.19-1.79,12.79,12.79,0,0,0-5,2.55,11.13,11.13,0,0,0-3,3.7,20.89,20.89,0,0,0-2,6.89,101.6,101.6,0,0,0-1,12.93c-.09,4,.05,7.91.29,11.85.17,2.82.46,5.62.64,8.43s.38,5.55.3,8.33a1.59,1.59,0,0,0,0,.7C72,68,79.94,67.43,88,66.32Z"/><g class="cls-7"><path class="cls-8" d="M51.13,121a1,1,0,0,0,1.37,0,1.77,1.77,0,0,0,.67-.92c.49-1.31,0-2.56-.26-3.82a.58.58,0,0,0-.23-.33,11.94,11.94,0,0,0-2.33-1.58,2.12,2.12,0,0,0-.86-.13,2.59,2.59,0,0,0-2.24,1.18,5.45,5.45,0,0,1-.69,1C44.62,118,45,121,45.65,122.83a16.22,16.22,0,0,0,1.5,2.37,1.82,1.82,0,0,0,1.11.74c1.54.44,2.71-.27,3.77-1.26a1.05,1.05,0,0,0,.13-1.57,1.14,1.14,0,0,0-1.53,0,5.74,5.74,0,0,1-1,.69c-.5.21-.87.2-1-.45a1.13,1.13,0,0,0-.45-.8,1.56,1.56,0,0,1-.72-1.69,1.79,1.79,0,0,0-.07-.73,1.76,1.76,0,0,1,.46-1.87,7.45,7.45,0,0,0,1.06-1.38c.14-.24.36-.53.64-.39.49.25,1.28.57,1.31.93.08.74.69,1.51.07,2.31A.91.91,0,0,0,51.13,121Z"/><path class="cls-8" d="M57.67,121.07a2.42,2.42,0,0,0,1.81.32,3.34,3.34,0,0,0,2.24-1.49c.83-1.16,2-2.12,2.34-3.58a2.47,2.47,0,0,0-.8-2.86,2.49,2.49,0,0,1-.77-1,2,2,0,0,0-2.32-1.2,1.29,1.29,0,0,1-.72-.07,1.61,1.61,0,0,0-2,.55,2.71,2.71,0,0,0-.53,2.42,6.2,6.2,0,0,1,.2,1.06,1,1,0,0,0,1,1,1,1,0,0,0,1.11-.88,5.06,5.06,0,0,0-.07-1.64,2.6,2.6,0,0,0,1.4-.29c.32.48.45,1,.95,1.38.68.45.77.81.28,1.5-.63.91-1.34,1.76-2,2.6a.73.73,0,0,1-1.18.06c-.28-.27-.58-.51-.87-.75a1.09,1.09,0,0,0-1.53,0,1.13,1.13,0,0,0,0,1.54A7.47,7.47,0,0,0,57.67,121.07Z"/><path class="cls-8" d="M42.78,108.33a1.25,1.25,0,0,0,.89-1c0-.37.28-.42.58-.52.74-.25,1.09.07,1.31.72a1,1,0,0,0,1,.76,1,1,0,0,0,1-.7,1.5,1.5,0,0,0-.11-1.24,2.87,2.87,0,0,0-3.63-1.7,2.81,2.81,0,0,0-2,1.34,1.91,1.91,0,0,1-.74.75,3.31,3.31,0,0,0-1.6,3.69,1,1,0,0,1,0,.58,2.88,2.88,0,0,0,1.8,3,2.39,2.39,0,0,1,.68.54,2.45,2.45,0,0,0,2.55.66,4.78,4.78,0,0,0,2.06-1.36c.73-.74.85-1.37.35-1.87s-1.11-.39-1.87.34c-1,1-1,.82-2.1.15a2.19,2.19,0,0,1-1.31-2.2C41.67,109.05,41.59,108.8,42.78,108.33Z"/><path class="cls-8" d="M45.39,95.79a1,1,0,0,0,1.2.38,1,1,0,0,0,.7-1,1,1,0,0,0-.15-.58c-.35-.49-.2-.82.27-1.09a4.82,4.82,0,0,0,.38-.31,1.35,1.35,0,0,0,1.29.67c.46-.06.56.13.56.52A2,2,0,0,0,50.28,96a.63.63,0,0,1,.16.36A2.43,2.43,0,0,1,48,99.14a1,1,0,0,0-1.08.65,1.06,1.06,0,0,0,.3,1.23,1.51,1.51,0,0,0,1.06.38,4.12,4.12,0,0,0,3.84-2.62,3.74,3.74,0,0,0-.13-4.2A1.23,1.23,0,0,1,51.8,94a2.32,2.32,0,0,0-1.65-2.17,2.18,2.18,0,0,1-1-.65,1.73,1.73,0,0,0-2.92.4,1.48,1.48,0,0,1-.46.56C44.24,93.17,44.42,94.43,45.39,95.79Z"/><path class="cls-8" d="M61,100.7a.35.35,0,0,1,.49-.31,1.35,1.35,0,0,0,1.46-.42c.36.94.81,1.26,1.41,1.07a1.3,1.3,0,0,0,.78-1.66A2.24,2.24,0,0,0,62,97.9a1.5,1.5,0,0,1-.69.24A2.39,2.39,0,0,0,59,99.72a5.92,5.92,0,0,1-.56,1,2.7,2.7,0,0,0,.09,3.43,1.92,1.92,0,0,1,.54,1,2.68,2.68,0,0,0,1.75,2,2.49,2.49,0,0,1,.79.49,1.52,1.52,0,0,0,2,.26A4.06,4.06,0,0,0,65.09,106a1.07,1.07,0,0,0-1.85-1c-.14.17-.25.36-.4.56a2.1,2.1,0,0,0-.92-.43c-.58,0-.77-.37-.75-.91a1.39,1.39,0,0,0-.78-1.45.42.42,0,0,1-.11-.76A2.22,2.22,0,0,0,61,100.7Z"/><path class="cls-8" d="M56.78,109.52a2.13,2.13,0,0,1,.19-.78,2.5,2.5,0,0,0,.17-1.84c-.27-1.1-1.12-1.92-1.41-3-.12-.43-.61-.65-1.06-.78s-.62-.1-.92-.18a2.17,2.17,0,0,0-2.88,1.47,1.21,1.21,0,0,0,.59,1.65c.62.24,1.1,0,1.46-.81,0,0,.08-.1.13-.17l.93.1a1.53,1.53,0,0,0,.74,1.72.77.77,0,0,1,.23,1,2.52,2.52,0,0,0-.31,1,1.69,1.69,0,0,1-1.37,1.77c-.84.2-1.22-.36-1.59-1a1,1,0,0,0-1.39-.47,1.09,1.09,0,0,0-.51,1.39,3.33,3.33,0,0,0,2,2A3.84,3.84,0,0,0,56.78,109.52Z"/><path class="cls-8" d="M50.09,87.56a5.21,5.21,0,0,1,.84.45,2.07,2.07,0,0,0,2.68,0A3.28,3.28,0,0,0,55,85.17c0-.79-.4-1.3-1-1.33s-1.08.47-1.12,1.26a1.24,1.24,0,0,1-.64,1.18c-.42-.54-1.35-.42-1.61-1.17A3.88,3.88,0,0,1,50.17,83a1.57,1.57,0,0,1,.73-1.22,2,2,0,0,0,.88-1.08.89.89,0,0,1,.42-.59l.18.1a1,1,0,0,0,1.46,0,1.16,1.16,0,0,0,0-1.55,1.94,1.94,0,0,0-2.79-.51,26.06,26.06,0,0,0-2.78,3.43c-.74,1.85-.18,3.53.71,5.15A2.06,2.06,0,0,0,50.09,87.56Z"/><path class="cls-8" d="M37.08,98.62A1.06,1.06,0,0,0,35.86,98a1.63,1.63,0,0,0-1.22.77,2.47,2.47,0,0,0-.11,2.63,3.64,3.64,0,0,1,.41.78,2.43,2.43,0,0,0,2.27,2c2.22.23,3.09.25,4.21-1.57.32-.52.59-1.06.87-1.6a3.37,3.37,0,0,0-1.62-4.92c-.93-.46-1.62-.35-1.93.31s0,1.14,1,1.62a1.29,1.29,0,0,1,.66,2c-.23.44-.49.86-.72,1.3a1.91,1.91,0,0,1-2.37.64c-.07,0-.17-.11-.18-.18a6.52,6.52,0,0,0-.71-1.6c.11-.09.19-.17.28-.23A1,1,0,0,0,37.08,98.62Z"/><path class="cls-8" d="M56.63,90.62a1.89,1.89,0,0,0,1,1.29c.61.38.8,1.27.33,1.65a1.36,1.36,0,0,0-.49,1.78.63.63,0,0,1-.25.88c-.36.17-.66-.09-.85-.39A2.55,2.55,0,0,1,56,94.74a1.06,1.06,0,0,0-1.06-1,1.12,1.12,0,0,0-1.07,1,4.23,4.23,0,0,0,.09,1,3.3,3.3,0,0,0,3.23,2.72c1.53-.13,2.45-1.25,2.47-3a1.14,1.14,0,0,1,.13-.64,3.43,3.43,0,0,0-.59-4.4,2.26,2.26,0,0,1-.7-1,1.71,1.71,0,0,0-2.36-1.05c-.75.28-1.13.8-1,1.39S55.7,90.64,56.63,90.62Z"/><path class="cls-8" d="M61.55,90.05a1.93,1.93,0,0,0,2,1.2,2.75,2.75,0,0,0,2.48-2.67c0-.79-.34-1.31-1-1.37s-1.06.4-1.18,1.15c0,.27,0,.54-.41.65a1.5,1.5,0,0,1-.19-.25,4.71,4.71,0,0,0-1.69-2.3c-.36-.24-.59-.72-1-1a.4.4,0,0,1-.12-.43,1.84,1.84,0,0,1,2.24-1.17,1,1,0,0,0,1.18-.24,1.06,1.06,0,0,0,.15-1.26,1.91,1.91,0,0,0-1.94-1,15.63,15.63,0,0,0-2.09.72c-.82.34-1.09,1.17-1.45,1.88a2.38,2.38,0,0,0,.5,3A10.35,10.35,0,0,1,61.55,90.05Z"/><path class="cls-8" d="M41.25,91a4.44,4.44,0,0,0,2.56-.89,1.08,1.08,0,1,0-1.17-1.79,3.53,3.53,0,0,1-1.31.52c-.65.08-1.22-.44-1-1a7.56,7.56,0,0,0,.38-2.39c.08-.89.94-.93,1.53-1.23.42-.21.54.27.76.5a1.06,1.06,0,0,0,1.83-1,2.66,2.66,0,0,0-3.44-1.51c-.25.11-.47.26-.73.36a3.24,3.24,0,0,0-2.15,3.06A6.54,6.54,0,0,1,38.29,87,3,3,0,0,0,41.25,91Z"/><path class="cls-8" d="M33.46,96.65c.31,0,.63,0,.94,0a3.18,3.18,0,0,0,2.7-2.14,1.17,1.17,0,0,0-.6-1.43,1,1,0,0,0-1.33.42c-.35,1.18-1.29,1-2.14,1-.49,0-.83-.22-.68-.81a1.27,1.27,0,0,0-.17-1c-.25-.45-.35-1,.09-1.28s.9-.68,1.51-.26A1,1,0,0,0,35,91.11a1,1,0,0,0,.23-1.3A2.11,2.11,0,0,0,33,88.68,6.26,6.26,0,0,0,30.6,90a2.9,2.9,0,0,0-.78,1.82,9,9,0,0,0,.44,3C30.61,96.13,31.67,96.7,33.46,96.65Z"/><path class="cls-8" d="M112.11,112a1,1,0,0,0,1.38,0,1.86,1.86,0,0,0,.66-.92c.49-1.31,0-2.56-.26-3.82a.61.61,0,0,0-.22-.33,12.32,12.32,0,0,0-2.34-1.58,2.32,2.32,0,0,0-.86-.14,2.6,2.6,0,0,0-2.24,1.19,5.45,5.45,0,0,1-.69,1c-1.94,1.62-1.57,4.55-.91,6.41a16.77,16.77,0,0,0,1.5,2.37,1.82,1.82,0,0,0,1.11.74A3.79,3.79,0,0,0,113,115.7a1.06,1.06,0,0,0,.12-1.57,1.14,1.14,0,0,0-1.53,0,5.38,5.38,0,0,1-1,.69c-.5.2-.87.2-1-.45a1.15,1.15,0,0,0-.45-.81,1.55,1.55,0,0,1-.72-1.68,1.85,1.85,0,0,0-.07-.74,1.74,1.74,0,0,1,.46-1.86,7.52,7.52,0,0,0,1.06-1.39c.14-.24.36-.53.64-.39.49.25,1.28.58,1.31.93.08.75.69,1.52.07,2.32A.91.91,0,0,0,112.11,112Z"/><path class="cls-8" d="M124.24,104.48a2.49,2.49,0,0,1-.77-1,2,2,0,0,0-2.32-1.21,1.17,1.17,0,0,1-.71-.06,1.61,1.61,0,0,0-2,.55,2.71,2.71,0,0,0-.53,2.42,6.2,6.2,0,0,1,.2,1.06,1,1,0,0,0,1,1,1.06,1.06,0,0,0,1.11-.89,5.08,5.08,0,0,0-.07-1.64,2.56,2.56,0,0,0,1.41-.28c.31.48.44,1,1,1.38.67.45.76.81.27,1.5-.63.9-1.33,1.75-2,2.6a.73.73,0,0,1-1.18,0c-.28-.26-.58-.5-.87-.74a1.09,1.09,0,0,0-1.53,0,1.13,1.13,0,0,0,0,1.54,7.42,7.42,0,0,0,1.54,1.31,2.42,2.42,0,0,0,1.81.33,3.37,3.37,0,0,0,2.24-1.49c.83-1.16,2-2.13,2.34-3.59A2.46,2.46,0,0,0,124.24,104.48Z"/><path class="cls-8" d="M103.76,99.35a1.26,1.26,0,0,0,.89-1c0-.38.28-.42.58-.52.74-.25,1.09.07,1.31.72a1,1,0,0,0,1,.75,1,1,0,0,0,1-.69,1.49,1.49,0,0,0-.11-1.25,2.87,2.87,0,0,0-3.63-1.69,2.78,2.78,0,0,0-2,1.34,1.91,1.91,0,0,1-.74.75,3.3,3.3,0,0,0-1.6,3.69,1,1,0,0,1,0,.58,2.88,2.88,0,0,0,1.8,3,2.23,2.23,0,0,1,.68.54,2.45,2.45,0,0,0,2.55.66,4.89,4.89,0,0,0,2.06-1.37c.73-.73.85-1.36.35-1.87s-1.1-.38-1.87.35c-1,1-1,.82-2.1.15a2.19,2.19,0,0,1-1.31-2.2C102.65,100.07,102.57,99.82,103.76,99.35Z"/><path class="cls-8" d="M106.37,86.8a1,1,0,0,0,1.2.39,1,1,0,0,0,.7-1,.94.94,0,0,0-.15-.57c-.35-.49-.2-.82.27-1.09a3.57,3.57,0,0,0,.38-.32,1.34,1.34,0,0,0,1.29.68c.46-.07.56.13.56.51a2.08,2.08,0,0,0,.64,1.59.63.63,0,0,1,.16.35A2.43,2.43,0,0,1,109,90.16a1,1,0,0,0-1.08.65,1,1,0,0,0,.3,1.22,1.51,1.51,0,0,0,1.06.39,4.12,4.12,0,0,0,3.84-2.62,3.74,3.74,0,0,0-.13-4.21,1.21,1.21,0,0,1-.18-.63,2.31,2.31,0,0,0-1.65-2.16,2.18,2.18,0,0,1-1-.65,1.73,1.73,0,0,0-2.92.4,1.48,1.48,0,0,1-.46.56C105.22,84.19,105.4,85.45,106.37,86.8Z"/><path class="cls-8" d="M125.6,95.67a1,1,0,0,0-1.38.31c-.14.17-.25.36-.4.56a2,2,0,0,0-.92-.43c-.58,0-.77-.37-.75-.91a1.38,1.38,0,0,0-.78-1.45.43.43,0,0,1-.11-.77,2.17,2.17,0,0,0,.71-1.26.35.35,0,0,1,.49-.31,1.35,1.35,0,0,0,1.46-.42c.36.94.81,1.25,1.42,1.07a1.31,1.31,0,0,0,.77-1.66,2.24,2.24,0,0,0-3.1-1.48,1.5,1.5,0,0,1-.69.24A2.38,2.38,0,0,0,120,90.73a6,6,0,0,1-.56,1,2.71,2.71,0,0,0,.09,3.43,1.81,1.81,0,0,1,.54,1,2.65,2.65,0,0,0,1.75,2,2.35,2.35,0,0,1,.79.5,1.52,1.52,0,0,0,2,.26A4.06,4.06,0,0,0,126.07,97,1,1,0,0,0,125.6,95.67Z"/><path class="cls-8" d="M118,99.75a2.47,2.47,0,0,0,.17-1.83c-.27-1.11-1.12-1.93-1.41-3-.12-.44-.61-.66-1.06-.78s-.62-.11-.92-.19a2.18,2.18,0,0,0-2.88,1.47,1.22,1.22,0,0,0,.59,1.66c.62.24,1.1,0,1.46-.81,0-.06.08-.1.13-.18l.93.11a1.52,1.52,0,0,0,.75,1.72.77.77,0,0,1,.22,1,2.52,2.52,0,0,0-.31,1,1.67,1.67,0,0,1-1.37,1.76c-.84.21-1.22-.36-1.59-1a1,1,0,0,0-1.39-.47,1.09,1.09,0,0,0-.51,1.39,3.29,3.29,0,0,0,2,2,3.84,3.84,0,0,0,5-3.11A2.18,2.18,0,0,1,118,99.75Z"/><path class="cls-8" d="M111.08,78.58a5.57,5.57,0,0,1,.83.45,2.09,2.09,0,0,0,2.68,0A3.33,3.33,0,0,0,116,76.19c0-.79-.41-1.3-1-1.33s-1.08.46-1.11,1.25a1.28,1.28,0,0,1-.65,1.19c-.42-.55-1.35-.42-1.61-1.17a3.88,3.88,0,0,1-.46-2.08,1.6,1.6,0,0,1,.73-1.23,2,2,0,0,0,.88-1.07.87.87,0,0,1,.42-.59,1.51,1.51,0,0,1,.18.09,1,1,0,0,0,1.47,0,1.17,1.17,0,0,0,0-1.55,1.93,1.93,0,0,0-2.79-.51,26,26,0,0,0-2.78,3.42c-.74,1.86-.18,3.54.72,5.16A2,2,0,0,0,111.08,78.58Z"/><path class="cls-8" d="M98.06,89.64A1,1,0,0,0,96.84,89a1.57,1.57,0,0,0-1.21.77,2.45,2.45,0,0,0-.12,2.63,3.83,3.83,0,0,1,.41.77,2.41,2.41,0,0,0,2.28,2c2.22.24,3.08.26,4.2-1.56.32-.52.59-1.06.87-1.6a3.37,3.37,0,0,0-1.61-4.92c-.94-.46-1.63-.35-1.94.31s0,1.13,1,1.62a1.29,1.29,0,0,1,.66,2c-.23.44-.49.86-.72,1.3a1.93,1.93,0,0,1-2.37.64c-.07,0-.17-.12-.18-.19a6.62,6.62,0,0,0-.71-1.59c.11-.09.19-.17.28-.23A1,1,0,0,0,98.06,89.64Z"/><path class="cls-8" d="M117.61,81.64a1.91,1.91,0,0,0,1,1.29c.61.38.8,1.27.33,1.65a1.37,1.37,0,0,0-.49,1.78.63.63,0,0,1-.25.88c-.36.16-.66-.1-.85-.39a2.55,2.55,0,0,1-.31-1.09,1.06,1.06,0,0,0-1.06-1,1.14,1.14,0,0,0-1.07,1,4.23,4.23,0,0,0,.09,1,3.31,3.31,0,0,0,3.23,2.72c1.53-.14,2.45-1.26,2.47-3a1.12,1.12,0,0,1,.13-.64,3.45,3.45,0,0,0-.58-4.41,2.15,2.15,0,0,1-.71-1,1.72,1.72,0,0,0-2.36-1c-.74.29-1.13.81-1,1.4S116.68,81.65,117.61,81.64Z"/><path class="cls-8" d="M126,78.23c-.58,0-1.06.4-1.18,1.15,0,.27,0,.54-.41.65a1.5,1.5,0,0,1-.19-.25,4.65,4.65,0,0,0-1.69-2.3c-.36-.25-.59-.73-1-1a.43.43,0,0,1-.12-.43,1.86,1.86,0,0,1,2.24-1.18,1,1,0,0,0,1.18-.23,1.06,1.06,0,0,0,.15-1.26,1.91,1.91,0,0,0-1.94-1,15.59,15.59,0,0,0-2.09.71c-.82.35-1.09,1.17-1.45,1.89a2.37,2.37,0,0,0,.5,3,10.52,10.52,0,0,1,2.45,3.08,1.93,1.93,0,0,0,2,1.19A2.73,2.73,0,0,0,127,79.6C127.06,78.8,126.69,78.28,126,78.23Z"/><path class="cls-8" d="M102.23,82a4.51,4.51,0,0,0,2.56-.89,1.08,1.08,0,1,0-1.17-1.79,3.35,3.35,0,0,1-1.31.51c-.65.09-1.22-.43-1-1a7.73,7.73,0,0,0,.37-2.38c.08-.89.94-.94,1.53-1.23.42-.21.54.26.76.5a1.06,1.06,0,0,0,1.83-1,2.67,2.67,0,0,0-3.44-1.52,7.05,7.05,0,0,1-.73.36A3.26,3.26,0,0,0,99.5,76.6a6.63,6.63,0,0,1-.23,1.45A3,3,0,0,0,102.23,82Z"/><path class="cls-8" d="M94.44,87.66c.31,0,.63,0,.94,0a3.17,3.17,0,0,0,2.7-2.15,1.18,1.18,0,0,0-.6-1.43,1,1,0,0,0-1.33.42c-.35,1.19-1.29,1-2.14,1-.49,0-.83-.22-.68-.81a1.27,1.27,0,0,0-.17-1c-.25-.45-.35-1,.09-1.29s.9-.67,1.51-.25A1,1,0,0,0,96,82.13a1,1,0,0,0,.23-1.3,2.11,2.11,0,0,0-2.31-1.13A6.26,6.26,0,0,0,91.58,81a2.9,2.9,0,0,0-.78,1.82,8.84,8.84,0,0,0,.45,3C91.59,87.15,92.65,87.71,94.44,87.66Z"/><path class="cls-8" d="M80,87.16a12.37,12.37,0,0,0,2.34,1.59,2.53,2.53,0,0,0,.86.13,2.59,2.59,0,0,0,2.24-1.18,5.2,5.2,0,0,1,.69-1c1.94-1.61,1.57-4.55.91-6.41a17.36,17.36,0,0,0-1.5-2.37,1.82,1.82,0,0,0-1.11-.74,3.79,3.79,0,0,0-3.78,1.26A1.07,1.07,0,0,0,80.49,80,1.15,1.15,0,0,0,82,80a5.34,5.34,0,0,1,1-.68c.5-.21.87-.21,1,.44a1.15,1.15,0,0,0,.45.81,1.57,1.57,0,0,1,.72,1.69,1.8,1.8,0,0,0,.07.73,1.74,1.74,0,0,1-.46,1.86,8.43,8.43,0,0,0-1.07,1.39c-.13.24-.35.53-.63.39-.49-.25-1.28-.57-1.32-.93-.07-.74-.68-1.51-.06-2.32a.91.91,0,0,0-.2-1.28,1.06,1.06,0,0,0-1.38,0,1.86,1.86,0,0,0-.66.92c-.49,1.31,0,2.56.25,3.82A.6.6,0,0,0,80,87.16Z"/><path class="cls-8" d="M69.4,89.67a2.53,2.53,0,0,1,.77,1,2,2,0,0,0,2.31,1.21,1.19,1.19,0,0,1,.72.06,1.6,1.6,0,0,0,2-.55A2.74,2.74,0,0,0,75.77,89a6.27,6.27,0,0,1-.2-1,1,1,0,0,0-1-1,1,1,0,0,0-1.11.88,5.08,5.08,0,0,0,.07,1.64,2.56,2.56,0,0,0-1.41.28c-.31-.47-.44-1-1-1.38-.67-.45-.76-.81-.27-1.5.63-.9,1.33-1.75,2-2.6a.73.73,0,0,1,1.18,0c.28.26.58.5.87.75a1.1,1.1,0,0,0,1.53,0,1.12,1.12,0,0,0,0-1.53A7.47,7.47,0,0,0,75,82.06a2.47,2.47,0,0,0-1.81-.33,3.39,3.39,0,0,0-2.24,1.5c-.84,1.16-2,2.12-2.34,3.58A2.47,2.47,0,0,0,69.4,89.67Z"/><path class="cls-8" d="M85.72,91.12c.49.5,1.1.38,1.87-.35,1-1,1-.81,2.1-.14A2.18,2.18,0,0,1,91,92.83c0,1.24.07,1.5-1.12,2a1.25,1.25,0,0,0-.89,1c0,.37-.28.41-.59.52-.74.24-1.08-.08-1.3-.72a1,1,0,0,0-1-.76,1,1,0,0,0-1,.7,1.47,1.47,0,0,0,.11,1.24,2.86,2.86,0,0,0,3.63,1.69,2.78,2.78,0,0,0,2-1.34,1.91,1.91,0,0,1,.74-.75,3.29,3.29,0,0,0,1.6-3.68,1,1,0,0,1,0-.58,2.88,2.88,0,0,0-1.8-3,2.42,2.42,0,0,1-.68-.55,2.42,2.42,0,0,0-2.55-.65,4.78,4.78,0,0,0-2.06,1.36C85.34,90,85.22,90.62,85.72,91.12Z"/><path class="cls-8" d="M84.66,104a1,1,0,0,0,1.08-.64,1,1,0,0,0-.29-1.23,1.46,1.46,0,0,0-1.06-.38,4.11,4.11,0,0,0-3.84,2.62,3.73,3.73,0,0,0,.13,4.2,1.11,1.11,0,0,1,.17.63,2.34,2.34,0,0,0,1.66,2.17,2.16,2.16,0,0,1,1,.64,1.72,1.72,0,0,0,2.92-.39,1.42,1.42,0,0,1,.46-.57c1.48-1.07,1.3-2.34.33-3.69a1,1,0,0,0-1.2-.38,1,1,0,0,0-.7,1,1,1,0,0,0,.15.58c.35.49.2.81-.27,1.09a3.26,3.26,0,0,0-.38.31,1.34,1.34,0,0,0-1.29-.68c-.46.07-.56-.13-.56-.51a2,2,0,0,0-.64-1.58.63.63,0,0,1-.16-.36A2.43,2.43,0,0,1,84.66,104Z"/><path class="cls-8" d="M68,98.48a1,1,0,0,0,1.37-.32,6.18,6.18,0,0,0,.4-.56,2.08,2.08,0,0,0,.93.43c.58,0,.77.38.75.92a1.39,1.39,0,0,0,.78,1.45c.4.19.37.51.11.76a2.19,2.19,0,0,0-.71,1.27.35.35,0,0,1-.5.3,1.36,1.36,0,0,0-1.45.43c-.36-1-.81-1.26-1.42-1.08a1.3,1.3,0,0,0-.77,1.66,2.24,2.24,0,0,0,3.1,1.48,1.49,1.49,0,0,1,.69-.23,2.39,2.39,0,0,0,2.3-1.58,7.47,7.47,0,0,1,.57-1A2.71,2.71,0,0,0,74.1,99a1.78,1.78,0,0,1-.54-1,2.66,2.66,0,0,0-1.75-2,2.35,2.35,0,0,1-.79-.5,1.53,1.53,0,0,0-2-.26,4.11,4.11,0,0,0-1.42,1.85A1,1,0,0,0,68,98.48Z"/><path class="cls-8" d="M75.69,94.39a2.49,2.49,0,0,0-.17,1.84c.27,1.1,1.12,1.92,1.41,3,.12.43.61.65,1.06.77s.62.11.92.19a2.18,2.18,0,0,0,2.88-1.47,1.2,1.2,0,0,0-.59-1.65c-.62-.25-1.1,0-1.46.8a1,1,0,0,1-.14.18l-.92-.1a1.54,1.54,0,0,0-.75-1.73.76.76,0,0,1-.22-1,2.41,2.41,0,0,0,.31-1,1.69,1.69,0,0,1,1.37-1.76c.84-.21,1.22.36,1.59,1a1,1,0,0,0,1.39.47,1.1,1.1,0,0,0,.51-1.39,3.28,3.28,0,0,0-2-2,3.84,3.84,0,0,0-5,3.11A2.13,2.13,0,0,1,75.69,94.39Z"/><path class="cls-8" d="M77.61,118c0,.79.41,1.3,1,1.33s1.08-.47,1.11-1.26a1.27,1.27,0,0,1,.65-1.18c.41.54,1.35.41,1.61,1.16a3.93,3.93,0,0,1,.46,2.08,1.64,1.64,0,0,1-.73,1.23,2,2,0,0,0-.88,1.07.87.87,0,0,1-.42.59,1,1,0,0,1-.18-.09,1,1,0,0,0-1.47,0,1.15,1.15,0,0,0,0,1.54,1.92,1.92,0,0,0,2.79.51,25.33,25.33,0,0,0,2.78-3.42c.74-1.85.18-3.54-.72-5.16a2.12,2.12,0,0,0-1.06-.81,5.5,5.5,0,0,1-.83-.44,2.1,2.1,0,0,0-2.69,0A3.36,3.36,0,0,0,77.61,118Z"/><path class="cls-8" d="M97.72,101a2.42,2.42,0,0,0-2.28-2c-2.22-.24-3.08-.26-4.2,1.57-.32.51-.59,1.06-.87,1.59A3.36,3.36,0,0,0,92,107.05c.94.46,1.63.35,1.94-.3s0-1.14-1-1.63a1.28,1.28,0,0,1-.66-2c.23-.45.49-.86.72-1.31a1.92,1.92,0,0,1,2.37-.64c.07,0,.17.12.18.19a6.29,6.29,0,0,0,.71,1.59l-.28.24a1,1,0,0,0-.42,1.29,1.06,1.06,0,0,0,1.23.63,1.58,1.58,0,0,0,1.21-.76,2.43,2.43,0,0,0,.11-2.63A4.11,4.11,0,0,1,97.72,101Z"/><path class="cls-8" d="M75.44,104.66c-1.52.13-2.44,1.25-2.46,3a1.17,1.17,0,0,1-.13.65,3.44,3.44,0,0,0,.58,4.4,2.2,2.2,0,0,1,.71,1,1.71,1.71,0,0,0,2.36,1c.74-.28,1.13-.8,1-1.4s-.57-.89-1.5-.88a1.89,1.89,0,0,0-1-1.28c-.61-.39-.8-1.28-.34-1.66a1.35,1.35,0,0,0,.5-1.77.64.64,0,0,1,.25-.89c.36-.16.66.1.85.39a2.59,2.59,0,0,1,.31,1.1,1.06,1.06,0,0,0,1,1,1.13,1.13,0,0,0,1.08-1,4.32,4.32,0,0,0-.09-1A3.3,3.3,0,0,0,75.44,104.66Z"/><path class="cls-8" d="M67.6,115.91c.58.06,1.05-.4,1.17-1.14,0-.27,0-.55.42-.66a1.24,1.24,0,0,1,.19.26,4.74,4.74,0,0,0,1.68,2.3c.37.24.6.72,1,1a.39.39,0,0,1,.13.42,1.84,1.84,0,0,1-2.24,1.18,1,1,0,0,0-1.18.23,1.06,1.06,0,0,0-.15,1.26,1.91,1.91,0,0,0,1.94,1,15.63,15.63,0,0,0,2.09-.72c.82-.35,1.08-1.17,1.45-1.88a2.38,2.38,0,0,0-.5-3,10.24,10.24,0,0,1-2.45-3.08,1.94,1.94,0,0,0-2-1.19,2.75,2.75,0,0,0-2.49,2.66C66.57,115.34,67,115.86,67.6,115.91Z"/><path class="cls-8" d="M91.94,117.68c-.08.9-.94.94-1.53,1.24-.42.2-.55-.27-.76-.51a1.06,1.06,0,0,0-1.83,1A2.66,2.66,0,0,0,91.26,121c.24-.11.47-.27.72-.36a3.23,3.23,0,0,0,2.16-3.06,6.63,6.63,0,0,1,.23-1.46,3,3,0,0,0-3-4,4.56,4.56,0,0,0-2.57.89,1.13,1.13,0,0,0-.39,1.59,1.12,1.12,0,0,0,1.57.2,3.51,3.51,0,0,1,1.31-.51c.64-.09,1.22.44,1,1A7.78,7.78,0,0,0,91.94,117.68Z"/><path class="cls-8" d="M99.2,106.48c-.31,0-.63,0-1,0a3.17,3.17,0,0,0-2.69,2.15,1.18,1.18,0,0,0,.6,1.43,1,1,0,0,0,1.33-.42c.35-1.19,1.29-1,2.13-1,.5,0,.84.22.69.81a1.26,1.26,0,0,0,.17,1c.25.46.35,1-.09,1.29s-.9.68-1.51.25a1,1,0,0,0-1.25.1,1,1,0,0,0-.23,1.29,2.1,2.1,0,0,0,2.31,1.13,6.15,6.15,0,0,0,2.34-1.3,2.83,2.83,0,0,0,.79-1.82,8.84,8.84,0,0,0-.45-3C102.05,107,101,106.43,99.2,106.48Z"/><path class="cls-8" d="M41.65,161.51a12.32,12.32,0,0,0-2.34-1.58,2.32,2.32,0,0,0-.86-.14A2.6,2.6,0,0,0,36.21,161a5.45,5.45,0,0,1-.69,1c-1.94,1.62-1.57,4.55-.91,6.41a16.22,16.22,0,0,0,1.5,2.37,1.82,1.82,0,0,0,1.11.74c1.54.44,2.71-.27,3.77-1.26a1.05,1.05,0,0,0,.13-1.57,1.14,1.14,0,0,0-1.53,0,5.74,5.74,0,0,1-1,.69c-.5.21-.87.2-1-.45a1.17,1.17,0,0,0-.45-.81,1.54,1.54,0,0,1-.72-1.68,1.79,1.79,0,0,0-.07-.73,1.76,1.76,0,0,1,.46-1.87,7.2,7.2,0,0,0,1.06-1.39c.14-.24.36-.53.64-.39.49.25,1.28.58,1.31.94.08.74.69,1.51.07,2.31a.91.91,0,0,0,.2,1.28,1,1,0,0,0,1.38.05,1.81,1.81,0,0,0,.66-.92c.49-1.31,0-2.56-.26-3.82A.61.61,0,0,0,41.65,161.51Z"/><path class="cls-8" d="M52.22,159a2.49,2.49,0,0,1-.77-1,2,2,0,0,0-2.32-1.2,1.29,1.29,0,0,1-.72-.07,1.61,1.61,0,0,0-2,.55,2.71,2.71,0,0,0-.53,2.42,6.2,6.2,0,0,1,.2,1.06,1,1,0,0,0,1,1,1.06,1.06,0,0,0,1.11-.88,5.13,5.13,0,0,0-.07-1.65,2.51,2.51,0,0,0,1.4-.28c.32.48.45,1.05,1,1.38.67.45.76.81.27,1.5-.63.9-1.34,1.76-2,2.6a.73.73,0,0,1-1.18.06c-.28-.27-.58-.51-.87-.75a1.09,1.09,0,0,0-1.53,0,1.13,1.13,0,0,0,0,1.54,7.42,7.42,0,0,0,1.54,1.31,2.38,2.38,0,0,0,1.81.33,3.37,3.37,0,0,0,2.24-1.49c.83-1.16,2-2.12,2.34-3.58A2.47,2.47,0,0,0,52.22,159Z"/><path class="cls-8" d="M35.9,157.56c-.49-.5-1.11-.39-1.87.34-1,1-1,.82-2.1.15a2.19,2.19,0,0,1-1.31-2.2c0-1.25-.07-1.5,1.12-2a1.26,1.26,0,0,0,.89-1c0-.37.28-.42.58-.52.74-.25,1.09.07,1.31.72a1,1,0,0,0,1,.76,1,1,0,0,0,1-.7,1.53,1.53,0,0,0-.11-1.25,2.87,2.87,0,0,0-3.63-1.69,2.78,2.78,0,0,0-2,1.34,1.84,1.84,0,0,1-.74.75,3.31,3.31,0,0,0-1.6,3.69,1,1,0,0,1,0,.58,2.88,2.88,0,0,0,1.8,3,2.39,2.39,0,0,1,.68.54,2.45,2.45,0,0,0,2.55.66,4.87,4.87,0,0,0,2.06-1.36C36.28,158.69,36.4,158.06,35.9,157.56Z"/><path class="cls-8" d="M37,144.69a1,1,0,0,0-1.08.65,1,1,0,0,0,.3,1.22,1.47,1.47,0,0,0,1.06.39,4.12,4.12,0,0,0,3.84-2.62,3.73,3.73,0,0,0-.13-4.2,1.23,1.23,0,0,1-.18-.63,2.32,2.32,0,0,0-1.65-2.17,2.18,2.18,0,0,1-1-.65,1.73,1.73,0,0,0-2.92.4,1.48,1.48,0,0,1-.46.56c-1.48,1.08-1.3,2.34-.33,3.7a1,1,0,0,0,1.2.38,1,1,0,0,0,.7-1,.94.94,0,0,0-.15-.57c-.35-.49-.2-.82.27-1.09a4.82,4.82,0,0,0,.38-.31,1.35,1.35,0,0,0,1.29.67c.46-.07.56.13.56.52a2,2,0,0,0,.64,1.58.63.63,0,0,1,.16.36A2.43,2.43,0,0,1,37,144.69Z"/><path class="cls-8" d="M53.58,150.2a1,1,0,0,0-1.38.31c-.14.17-.25.36-.4.56a2.1,2.1,0,0,0-.92-.43c-.58,0-.77-.37-.75-.91a1.39,1.39,0,0,0-.78-1.45.43.43,0,0,1-.11-.77,2.17,2.17,0,0,0,.71-1.26.35.35,0,0,1,.49-.31,1.35,1.35,0,0,0,1.46-.42c.36.94.81,1.26,1.42,1.07a1.31,1.31,0,0,0,.77-1.66,2.24,2.24,0,0,0-3.1-1.48,1.5,1.5,0,0,1-.69.24A2.39,2.39,0,0,0,48,145.27a5.92,5.92,0,0,1-.56,1,2.71,2.71,0,0,0,.09,3.43,1.92,1.92,0,0,1,.54,1,2.68,2.68,0,0,0,1.75,2,2.33,2.33,0,0,1,.79.49,1.52,1.52,0,0,0,2,.26,4.06,4.06,0,0,0,1.42-1.85A1,1,0,0,0,53.58,150.2Z"/><path class="cls-8" d="M45.93,154.28a2.47,2.47,0,0,0,.17-1.83c-.27-1.11-1.12-1.92-1.41-3-.12-.43-.61-.65-1.06-.78s-.62-.1-.92-.19a2.17,2.17,0,0,0-2.88,1.48,1.21,1.21,0,0,0,.59,1.65c.62.24,1.1,0,1.46-.81,0-.05.08-.1.13-.18l.93.11a1.53,1.53,0,0,0,.74,1.72.76.76,0,0,1,.23,1,2.52,2.52,0,0,0-.31,1,1.67,1.67,0,0,1-1.37,1.76c-.84.21-1.22-.35-1.59-1a1,1,0,0,0-1.39-.47,1.09,1.09,0,0,0-.51,1.39,3.29,3.29,0,0,0,2,2,3.84,3.84,0,0,0,5-3.11A2.18,2.18,0,0,1,45.93,154.28Z"/><path class="cls-8" d="M44,130.72c0-.79-.4-1.3-1-1.33s-1.08.47-1.11,1.25a1.27,1.27,0,0,1-.65,1.19c-.42-.54-1.35-.42-1.61-1.17a3.88,3.88,0,0,1-.46-2.08,1.57,1.57,0,0,1,.73-1.22,2,2,0,0,0,.88-1.08.89.89,0,0,1,.42-.59l.18.1a1,1,0,0,0,1.46,0,1.16,1.16,0,0,0,.05-1.55,1.94,1.94,0,0,0-2.79-.51,26.06,26.06,0,0,0-2.78,3.43c-.74,1.85-.18,3.53.71,5.15a2.09,2.09,0,0,0,1.07.81,5.57,5.57,0,0,1,.83.45,2.07,2.07,0,0,0,2.68,0A3.28,3.28,0,0,0,44,130.72Z"/><path class="cls-8" d="M30.38,148.14c.32-.52.59-1.06.87-1.6a3.37,3.37,0,0,0-1.62-4.92c-.93-.46-1.62-.35-1.93.31s0,1.14,1,1.62a1.29,1.29,0,0,1,.66,2c-.23.44-.49.86-.72,1.3a1.93,1.93,0,0,1-2.37.64c-.07,0-.17-.12-.18-.18a6.52,6.52,0,0,0-.71-1.6c.11-.09.19-.17.28-.23a1,1,0,0,0,.41-1.3,1,1,0,0,0-1.22-.63,1.6,1.6,0,0,0-1.22.77,2.47,2.47,0,0,0-.11,2.63,3.83,3.83,0,0,1,.41.77,2.41,2.41,0,0,0,2.28,2C28.4,149.94,29.26,150,30.38,148.14Z"/><path class="cls-8" d="M46.17,144c1.53-.13,2.45-1.25,2.47-3a1.14,1.14,0,0,1,.13-.64,3.45,3.45,0,0,0-.58-4.41,2.13,2.13,0,0,1-.71-1,1.71,1.71,0,0,0-2.36-1.06c-.75.29-1.13.81-1,1.4s.57.89,1.5.88a1.91,1.91,0,0,0,1,1.29c.61.38.8,1.27.33,1.65a1.36,1.36,0,0,0-.49,1.78.63.63,0,0,1-.25.88c-.36.16-.66-.09-.85-.39a2.55,2.55,0,0,1-.31-1.09,1.08,1.08,0,0,0-1.06-1,1.14,1.14,0,0,0-1.07,1,4.23,4.23,0,0,0,.09,1A3.3,3.3,0,0,0,46.17,144Z"/><path class="cls-8" d="M54,132.76c-.58,0-1.06.4-1.18,1.15,0,.27,0,.54-.41.65a1.5,1.5,0,0,1-.19-.25,4.71,4.71,0,0,0-1.69-2.3c-.36-.24-.59-.72-1-1a.41.41,0,0,1-.12-.43,1.84,1.84,0,0,1,2.24-1.17,1,1,0,0,0,1.18-.24,1.06,1.06,0,0,0,.15-1.26,1.91,1.91,0,0,0-1.94-1,14.34,14.34,0,0,0-2.09.72c-.82.34-1.09,1.17-1.45,1.88a2.37,2.37,0,0,0,.5,3,10.52,10.52,0,0,1,2.45,3.08,1.92,1.92,0,0,0,2,1.19A2.73,2.73,0,0,0,55,134.13C55,133.34,54.67,132.82,54,132.76Z"/><path class="cls-8" d="M30.21,136.54a4.51,4.51,0,0,0,2.56-.89,1.08,1.08,0,1,0-1.17-1.79,3.35,3.35,0,0,1-1.31.51c-.65.09-1.22-.43-1-1a7.45,7.45,0,0,0,.38-2.38c.08-.89.94-.93,1.53-1.23.42-.21.54.26.76.5a1.06,1.06,0,0,0,1.83-1,2.67,2.67,0,0,0-3.44-1.52,7.05,7.05,0,0,1-.73.36,3.26,3.26,0,0,0-2.15,3.07,6.54,6.54,0,0,1-.23,1.45A3,3,0,0,0,30.21,136.54Z"/><path class="cls-8" d="M26.06,140.05a1.17,1.17,0,0,0-.6-1.43,1,1,0,0,0-1.33.41c-.35,1.19-1.29,1-2.14,1-.49,0-.83-.22-.68-.81a1.27,1.27,0,0,0-.17-1c-.25-.45-.35-1,.09-1.29s.9-.67,1.51-.25a1,1,0,0,0,1.25-.09,1,1,0,0,0,.23-1.3,2.11,2.11,0,0,0-2.31-1.13,6.26,6.26,0,0,0-2.35,1.3,2.9,2.9,0,0,0-.78,1.82,9.09,9.09,0,0,0,.44,3c.35,1.35,1.41,1.91,3.2,1.86.31,0,.63,0,.94,0A3.18,3.18,0,0,0,26.06,140.05Z"/><path class="cls-8" d="M102.63,152.53a12.86,12.86,0,0,0-2.34-1.59,2.53,2.53,0,0,0-.86-.13A2.6,2.6,0,0,0,97.19,152a5.45,5.45,0,0,1-.69,1c-1.94,1.62-1.57,4.55-.91,6.41a16.77,16.77,0,0,0,1.5,2.37,1.82,1.82,0,0,0,1.11.74,3.79,3.79,0,0,0,3.78-1.26,1.07,1.07,0,0,0,.13-1.57,1.15,1.15,0,0,0-1.54,0,5.38,5.38,0,0,1-1,.69c-.5.2-.87.2-1-.45a1.15,1.15,0,0,0-.45-.81,1.55,1.55,0,0,1-.72-1.68,1.85,1.85,0,0,0-.07-.74,1.74,1.74,0,0,1,.46-1.86,7.86,7.86,0,0,0,1.06-1.39c.14-.24.36-.53.64-.39.49.25,1.28.58,1.32.93.07.75.68,1.51.06,2.32a.91.91,0,0,0,.2,1.28,1.06,1.06,0,0,0,1.38,0,1.86,1.86,0,0,0,.66-.92c.49-1.31,0-2.56-.25-3.82A.69.69,0,0,0,102.63,152.53Z"/><path class="cls-8" d="M113.2,150a2.46,2.46,0,0,1-.77-1,2,2,0,0,0-2.32-1.21,1.17,1.17,0,0,1-.71-.06,1.61,1.61,0,0,0-2,.55,2.71,2.71,0,0,0-.53,2.42,6.2,6.2,0,0,1,.2,1.06,1,1,0,0,0,1,1,1,1,0,0,0,1.11-.88,5.08,5.08,0,0,0-.07-1.64,2.56,2.56,0,0,0,1.41-.28c.31.47.44,1,1,1.38.67.45.76.81.27,1.5-.63.9-1.33,1.75-2,2.6a.73.73,0,0,1-1.18.05c-.28-.26-.58-.5-.87-.75a1.1,1.1,0,0,0-1.53,0,1.12,1.12,0,0,0,0,1.53,7.47,7.47,0,0,0,1.54,1.32,2.47,2.47,0,0,0,1.81.33,3.39,3.39,0,0,0,2.24-1.5c.84-1.15,2-2.12,2.34-3.58A2.47,2.47,0,0,0,113.2,150Z"/><path class="cls-8" d="M96.88,148.57c-.49-.49-1.1-.38-1.87.35-1,1-1,.82-2.1.14a2.18,2.18,0,0,1-1.31-2.2c0-1.24-.07-1.49,1.12-2a1.26,1.26,0,0,0,.89-1c0-.37.28-.41.58-.51.75-.25,1.09.07,1.31.72a1,1,0,0,0,1,.75,1,1,0,0,0,1-.69,1.49,1.49,0,0,0-.11-1.25,2.86,2.86,0,0,0-3.63-1.69,2.78,2.78,0,0,0-2,1.34,1.91,1.91,0,0,1-.74.75,3.3,3.3,0,0,0-1.6,3.69.93.93,0,0,1,0,.57,2.89,2.89,0,0,0,1.8,3.05,2.23,2.23,0,0,1,.68.54,2.42,2.42,0,0,0,2.55.65,4.78,4.78,0,0,0,2.06-1.36C97.26,149.71,97.38,149.08,96.88,148.57Z"/><path class="cls-8" d="M97.93,135.71a1,1,0,0,0-1.07.65,1,1,0,0,0,.29,1.22,1.46,1.46,0,0,0,1.06.38,4.1,4.1,0,0,0,3.84-2.61,3.74,3.74,0,0,0-.13-4.21,1.11,1.11,0,0,1-.17-.63,2.35,2.35,0,0,0-1.66-2.17,2.09,2.09,0,0,1-1-.64,1.73,1.73,0,0,0-2.92.39,1.36,1.36,0,0,1-.46.57c-1.48,1.07-1.3,2.34-.33,3.69a1,1,0,0,0,1.2.38,1.08,1.08,0,0,0,.55-1.56c-.35-.49-.2-.81.27-1.09a2.46,2.46,0,0,0,.38-.31,1.34,1.34,0,0,0,1.29.68c.46-.07.56.13.56.51a2,2,0,0,0,.64,1.58.69.69,0,0,1,.16.36A2.43,2.43,0,0,1,97.93,135.71Z"/><path class="cls-8" d="M114.56,141.22a1,1,0,0,0-1.38.31c-.14.17-.25.36-.39.56a2.08,2.08,0,0,0-.93-.43c-.58,0-.77-.38-.75-.91a1.38,1.38,0,0,0-.78-1.45.43.43,0,0,1-.11-.77,2.17,2.17,0,0,0,.71-1.26.35.35,0,0,1,.49-.31,1.35,1.35,0,0,0,1.46-.42c.36.94.81,1.25,1.42,1.07a1.31,1.31,0,0,0,.77-1.66,2.24,2.24,0,0,0-3.1-1.48,1.5,1.5,0,0,1-.69.24,2.37,2.37,0,0,0-2.3,1.57,7.47,7.47,0,0,1-.57,1,2.71,2.71,0,0,0,.09,3.43,1.78,1.78,0,0,1,.54,1,2.65,2.65,0,0,0,1.75,2,2.35,2.35,0,0,1,.79.5,1.52,1.52,0,0,0,2,.26,4.06,4.06,0,0,0,1.42-1.85A1,1,0,0,0,114.56,141.22Z"/><path class="cls-8" d="M106.91,145.3a2.47,2.47,0,0,0,.17-1.83c-.27-1.11-1.12-1.93-1.41-3-.12-.44-.61-.66-1.06-.78-.3-.08-.62-.11-.92-.19a2.18,2.18,0,0,0-2.88,1.47,1.22,1.22,0,0,0,.59,1.66c.62.24,1.1,0,1.46-.81a1.5,1.5,0,0,1,.14-.18l.92.11a1.53,1.53,0,0,0,.75,1.72.76.76,0,0,1,.22,1,2.52,2.52,0,0,0-.31,1,1.68,1.68,0,0,1-1.37,1.76c-.84.21-1.22-.36-1.59-.95a1,1,0,0,0-1.39-.48,1.11,1.11,0,0,0-.51,1.4,3.29,3.29,0,0,0,2,2,3.84,3.84,0,0,0,5-3.11A2.18,2.18,0,0,1,106.91,145.3Z"/><path class="cls-8" d="M105,121.74c0-.8-.41-1.31-1-1.33s-1.08.46-1.11,1.25a1.26,1.26,0,0,1-.65,1.18c-.42-.54-1.35-.41-1.61-1.16a3.91,3.91,0,0,1-.46-2.08,1.6,1.6,0,0,1,.73-1.23,2,2,0,0,0,.88-1.07.87.87,0,0,1,.42-.59,1,1,0,0,1,.18.09,1,1,0,0,0,1.47,0,1.16,1.16,0,0,0,0-1.55,1.92,1.92,0,0,0-2.79-.51,25.33,25.33,0,0,0-2.78,3.42c-.74,1.86-.18,3.54.72,5.16a2.07,2.07,0,0,0,1.06.81,5.5,5.5,0,0,1,.83.44,2.09,2.09,0,0,0,2.69,0A3.34,3.34,0,0,0,105,121.74Z"/><path class="cls-8" d="M84.88,138.73a2.41,2.41,0,0,0,2.28,2c2.22.24,3.08.26,4.2-1.56.32-.52.59-1.06.87-1.6a3.37,3.37,0,0,0-1.61-4.92c-.94-.46-1.63-.35-1.94.31s0,1.13,1,1.62a1.29,1.29,0,0,1,.66,2c-.23.44-.49.86-.72,1.3a1.93,1.93,0,0,1-2.37.64c-.07-.05-.17-.12-.18-.19a6.62,6.62,0,0,0-.71-1.59c.11-.09.19-.17.28-.23a1,1,0,0,0,.42-1.3,1.06,1.06,0,0,0-1.23-.63,1.57,1.57,0,0,0-1.21.77,2.44,2.44,0,0,0-.12,2.62A3.9,3.9,0,0,1,84.88,138.73Z"/><path class="cls-8" d="M107.15,135c1.53-.14,2.45-1.26,2.47-3a1.12,1.12,0,0,1,.13-.64,3.45,3.45,0,0,0-.58-4.41,2.15,2.15,0,0,1-.71-1,1.71,1.71,0,0,0-2.36-1c-.74.28-1.13.81-1,1.4s.57.89,1.5.88a1.89,1.89,0,0,0,1,1.28c.61.39.8,1.28.33,1.66a1.36,1.36,0,0,0-.49,1.77.64.64,0,0,1-.25.89c-.36.16-.66-.1-.85-.39a2.55,2.55,0,0,1-.31-1.09,1.06,1.06,0,0,0-1.06-1,1.13,1.13,0,0,0-1.07,1,4.23,4.23,0,0,0,.09,1A3.31,3.31,0,0,0,107.15,135Z"/><path class="cls-8" d="M115,123.78c-.58,0-1,.4-1.18,1.15,0,.27,0,.54-.41.65a1.5,1.5,0,0,1-.19-.25,4.65,4.65,0,0,0-1.69-2.3c-.36-.25-.59-.73-1-1a.41.41,0,0,1-.13-.43,1.86,1.86,0,0,1,2.24-1.18,1,1,0,0,0,1.18-.23,1.06,1.06,0,0,0,.15-1.26,1.91,1.91,0,0,0-1.94-1,15.59,15.59,0,0,0-2.09.71c-.82.35-1.08,1.17-1.45,1.89a2.37,2.37,0,0,0,.5,3,10.52,10.52,0,0,1,2.45,3.08,1.94,1.94,0,0,0,2,1.19,2.73,2.73,0,0,0,2.48-2.66C116,124.35,115.65,123.83,115,123.78Z"/><path class="cls-8" d="M91.58,127a7.46,7.46,0,0,0,1.72-1.69c.59-.67,1.31-.19,2-.08.46.08.28.53.31.85a1.06,1.06,0,0,0,2.09.25,2.65,2.65,0,0,0-1.86-3.26c-.27,0-.54-.07-.8-.14a3.24,3.24,0,0,0-3.55,1.18,6.46,6.46,0,0,1-1,1,3,3,0,0,0,0,4.94,4.57,4.57,0,0,0,2.59.81,1.08,1.08,0,1,0,.12-2.14,3.53,3.53,0,0,1-1.36-.37A.81.81,0,0,1,91.58,127Z"/><path class="cls-8" d="M83.4,133.21c.31,0,.63,0,.95,0A3.17,3.17,0,0,0,87,131.06a1.18,1.18,0,0,0-.6-1.43,1,1,0,0,0-1.33.42c-.35,1.19-1.29,1-2.14,1-.49,0-.83-.22-.68-.81a1.27,1.27,0,0,0-.17-1c-.25-.46-.35-1,.09-1.29s.9-.67,1.51-.25a1,1,0,0,0,1.25-.09,1,1,0,0,0,.23-1.3,2.11,2.11,0,0,0-2.31-1.13,6.26,6.26,0,0,0-2.35,1.3,2.9,2.9,0,0,0-.78,1.82,8.84,8.84,0,0,0,.45,3C80.55,132.7,81.61,133.26,83.4,133.21Z"/><path class="cls-8" d="M74.37,133.25a5.2,5.2,0,0,1,.69-1c1.94-1.62,1.57-4.55.91-6.41a17.36,17.36,0,0,0-1.5-2.37,1.82,1.82,0,0,0-1.11-.74A3.79,3.79,0,0,0,69.58,124a1.07,1.07,0,0,0-.13,1.57,1.15,1.15,0,0,0,1.54,0,4.9,4.9,0,0,1,1-.68c.5-.21.87-.21,1,.44a1.15,1.15,0,0,0,.45.81,1.57,1.57,0,0,1,.72,1.69,1.8,1.8,0,0,0,.07.73,1.74,1.74,0,0,1-.46,1.86,7.86,7.86,0,0,0-1.06,1.39c-.14.24-.36.53-.64.39-.49-.25-1.28-.57-1.32-.93-.07-.75-.68-1.51-.06-2.32a.91.91,0,0,0-.2-1.28,1.06,1.06,0,0,0-1.38,0,1.86,1.86,0,0,0-.66.92c-.49,1.31,0,2.56.25,3.82a.69.69,0,0,0,.23.33,12.37,12.37,0,0,0,2.34,1.59,2.53,2.53,0,0,0,.86.13A2.61,2.61,0,0,0,74.37,133.25Z"/><path class="cls-8" d="M64.27,123a2.47,2.47,0,0,0-1.81-.33,3.39,3.39,0,0,0-2.24,1.5c-.84,1.16-2,2.12-2.35,3.58a2.49,2.49,0,0,0,.81,2.86,2.53,2.53,0,0,1,.77,1,2,2,0,0,0,2.31,1.21,1.19,1.19,0,0,1,.72.06,1.6,1.6,0,0,0,2-.55,2.74,2.74,0,0,0,.53-2.42,6.27,6.27,0,0,1-.2-1,1,1,0,0,0-1-1,1,1,0,0,0-1.11.88,5.37,5.37,0,0,0,.06,1.64,2.53,2.53,0,0,0-1.4.28c-.31-.47-.44-1-.95-1.38-.67-.45-.76-.81-.28-1.5.64-.9,1.34-1.75,2-2.6a.73.73,0,0,1,1.18-.05c.28.26.58.5.87.75a1.1,1.1,0,0,0,1.53,0,1.12,1.12,0,0,0,0-1.53A7.47,7.47,0,0,0,64.27,123Z"/><path class="cls-8" d="M77.8,144a2.78,2.78,0,0,0,2-1.34,1.91,1.91,0,0,1,.74-.75,3.29,3.29,0,0,0,1.6-3.68,1,1,0,0,1,0-.58,2.87,2.87,0,0,0-1.8-3,2.42,2.42,0,0,1-.68-.55,2.42,2.42,0,0,0-2.55-.65A4.78,4.78,0,0,0,75,134.8c-.73.73-.85,1.37-.35,1.87s1.1.38,1.87-.35c1-1,1-.82,2.1-.14a2.18,2.18,0,0,1,1.31,2.2c0,1.24.07,1.5-1.12,2a1.23,1.23,0,0,0-.89,1c0,.37-.28.41-.58.52-.75.24-1.09-.08-1.31-.73a1.05,1.05,0,0,0-2-.05,1.47,1.47,0,0,0,.11,1.24A2.86,2.86,0,0,0,77.8,144Z"/><path class="cls-8" d="M76.23,152.89a1,1,0,0,0-1.2-.38,1.08,1.08,0,0,0-.55,1.56c.35.49.2.81-.27,1.09a2.46,2.46,0,0,0-.38.31,1.34,1.34,0,0,0-1.29-.68c-.46.07-.56-.13-.56-.51a2,2,0,0,0-.64-1.58.66.66,0,0,1-.16-.36,2.43,2.43,0,0,1,2.45-2.81,1,1,0,0,0,1.07-.64,1,1,0,0,0-.29-1.23,1.46,1.46,0,0,0-1.06-.38,4.09,4.09,0,0,0-3.84,2.62,3.73,3.73,0,0,0,.13,4.2,1.11,1.11,0,0,1,.17.63,2.35,2.35,0,0,0,1.66,2.17,2.09,2.09,0,0,1,1,.64,1.72,1.72,0,0,0,2.92-.39,1.42,1.42,0,0,1,.46-.57C77.38,155.51,77.2,154.24,76.23,152.89Z"/><path class="cls-8" d="M60.63,143.7a.35.35,0,0,1-.49.31,1.37,1.37,0,0,0-1.46.42c-.36-.94-.81-1.25-1.42-1.07a1.31,1.31,0,0,0-.77,1.66,2.24,2.24,0,0,0,3.1,1.48,1.38,1.38,0,0,1,.69-.23,2.39,2.39,0,0,0,2.3-1.58,7.47,7.47,0,0,1,.57-1,2.71,2.71,0,0,0-.09-3.43,1.78,1.78,0,0,1-.54-1,2.66,2.66,0,0,0-1.75-2,2.35,2.35,0,0,1-.79-.5,1.52,1.52,0,0,0-2-.26,4.06,4.06,0,0,0-1.42,1.85,1.06,1.06,0,0,0,1.85,1c.14-.17.25-.36.39-.56a2.08,2.08,0,0,0,.93.43c.58,0,.77.38.75.91a1.38,1.38,0,0,0,.78,1.45.43.43,0,0,1,.11.77A2.17,2.17,0,0,0,60.63,143.7Z"/><path class="cls-8" d="M67,139.8A1.69,1.69,0,0,1,68.35,138c.84-.21,1.22.36,1.59,1a1,1,0,0,0,1.39.48,1.1,1.1,0,0,0,.51-1.39,3.28,3.28,0,0,0-2-2,3.84,3.84,0,0,0-5,3.11,2.13,2.13,0,0,1-.19.78,2.49,2.49,0,0,0-.17,1.84c.27,1.1,1.12,1.92,1.41,3,.12.44.61.66,1.06.78.3.08.62.11.92.19a2.18,2.18,0,0,0,2.88-1.47,1.2,1.2,0,0,0-.59-1.65c-.62-.25-1.1,0-1.46.8a1,1,0,0,1-.14.18l-.92-.1a1.54,1.54,0,0,0-.75-1.73.76.76,0,0,1-.22-1A2.41,2.41,0,0,0,67,139.8Z"/><path class="cls-8" d="M84.53,150.05a1.06,1.06,0,0,0,1.23.63,1.58,1.58,0,0,0,1.21-.76,2.45,2.45,0,0,0,.12-2.63,3.9,3.9,0,0,1-.41-.78,2.41,2.41,0,0,0-2.28-2c-2.22-.24-3.08-.26-4.2,1.56-.32.52-.59,1.06-.87,1.6a3.36,3.36,0,0,0,1.61,4.92c.94.46,1.63.35,1.94-.31s0-1.13-1-1.62a1.29,1.29,0,0,1-.66-2c.23-.44.49-.86.72-1.3a1.93,1.93,0,0,1,2.37-.64c.07,0,.17.12.18.19a6.45,6.45,0,0,0,.71,1.59c-.11.09-.19.17-.28.23A1,1,0,0,0,84.53,150.05Z"/><path class="cls-8" d="M67.16,156.42c-.1-.61-.57-.89-1.5-.88a1.89,1.89,0,0,0-1-1.28c-.62-.39-.81-1.28-.34-1.66a1.34,1.34,0,0,0,.49-1.77.64.64,0,0,1,.26-.89c.36-.16.65.1.84.39a2.29,2.29,0,0,1,.31,1.09,1.06,1.06,0,0,0,1.06,1,1.12,1.12,0,0,0,1.07-1,4.23,4.23,0,0,0-.09-1,3.3,3.3,0,0,0-3.23-2.72c-1.52.14-2.44,1.26-2.47,3a1,1,0,0,1-.13.64,3.46,3.46,0,0,0,.59,4.41,2.3,2.3,0,0,1,.71,1,1.7,1.7,0,0,0,2.35,1C66.87,157.54,67.26,157,67.16,156.42Z"/><path class="cls-8" d="M60.07,158.62a1.94,1.94,0,0,0-2-1.19,2.73,2.73,0,0,0-2.48,2.66c0,.8.34,1.32,1,1.37s1-.4,1.17-1.15c.05-.26.05-.54.42-.65a1.24,1.24,0,0,1,.19.26,4.74,4.74,0,0,0,1.69,2.3c.36.24.59.72.95,1a.39.39,0,0,1,.13.42,1.85,1.85,0,0,1-2.24,1.18,1,1,0,0,0-1.18.23,1.06,1.06,0,0,0-.15,1.26,1.91,1.91,0,0,0,1.94,1,15.59,15.59,0,0,0,2.09-.71c.82-.35,1.08-1.17,1.45-1.89a2.37,2.37,0,0,0-.5-3A10.52,10.52,0,0,1,60.07,158.62Z"/><path class="cls-8" d="M80.37,157.68a4.56,4.56,0,0,0-2.57.89A1.08,1.08,0,1,0,79,160.36a3.51,3.51,0,0,1,1.31-.51c.65-.09,1.22.44,1,1a7.78,7.78,0,0,0-.37,2.38c-.08.89-.94.94-1.53,1.23-.42.21-.55-.26-.76-.5a1.06,1.06,0,0,0-1.83,1,2.66,2.66,0,0,0,3.44,1.52c.25-.11.47-.27.72-.36a3.25,3.25,0,0,0,2.16-3.06,6.63,6.63,0,0,1,.23-1.46A3,3,0,0,0,80.37,157.68Z"/><path class="cls-8" d="M88.16,152c-.31,0-.63,0-1,0a3.17,3.17,0,0,0-2.69,2.15,1.18,1.18,0,0,0,.6,1.43,1,1,0,0,0,1.33-.42c.35-1.19,1.29-1,2.14-1,.49,0,.83.22.68.81a1.27,1.27,0,0,0,.17,1c.25.46.35,1-.09,1.29s-.9.67-1.51.25a1,1,0,0,0-1.25.09,1,1,0,0,0-.23,1.3A2.1,2.1,0,0,0,88.67,160a6.15,6.15,0,0,0,2.34-1.3,2.83,2.83,0,0,0,.79-1.82,8.84,8.84,0,0,0-.45-3C91,152.54,90,152,88.16,152Z"/></g><path class="cls-9" d="M67.15,131.52c-1.57.36-3.12.81-4.7,1.1-2.11.4-4.24.72-6.37,1-1.18.16-2.39.17-3.57.3-2.17.24-4.33.5-6.49.8-.92.13-1.82.39-2.72.59l.06.25c8.28-.7,16.59-1.24,24.52-4.06A1.64,1.64,0,0,0,67.15,131.52Z"/><path class="cls-9" d="M56.24,137.18c-2.59-.15-5.19-.29-7.78-.3-2.05,0-4.1.18-6.15.31-.19,0-.37.24-.56.37.21.12.41.26.62.36s.23,0,.34,0c1.75-.12,3.51-.31,5.27-.32,2.66,0,5.33,0,8,.12,1.17,0,2.34.19,3.51.23s2.37,0,3.56,0l0-.14a1.57,1.57,0,0,0-.31-.08C60.59,137.54,58.42,137.31,56.24,137.18Z"/><path class="cls-9" d="M87.16,71.18a2.51,2.51,0,0,0-.61-.19c-1.8,0-3.61-.14-5.41-.11-2.14,0-4.28.21-6.42.22-2.32,0-4.64-.07-7-.12a9.75,9.75,0,0,0-1.08,0c-.64,0-1.27.12-1.91.19,7.47.26,14.92.61,22.36.26Z"/><path class="cls-9" d="M58.17,71.43c0,.86.12.94.95.9,1.35-.08,2.69-.21,4-.26.59,0,.81-.28.81-.82,0-1.13,0-2.26,0-3.39a3.61,3.61,0,0,0-.16-.78l-.15,0c-.07,1.51-.13,3-.2,4.53L58.52,72V67.14H60l1.38,0v-.27H58.16v1.62C58.16,69.45,58.14,70.44,58.17,71.43Z"/><path class="cls-9" d="M103.8,72.47a22.69,22.69,0,0,0,4.65.44,66.75,66.75,0,0,0-14.28-1.64l0,.25c1.59.13,3.19.26,4.78.41S102.17,72.29,103.8,72.47Z"/><path class="cls-9" d="M93.7,76.27l13.89,1.52,0-.24A52.48,52.48,0,0,0,93.7,76.27Z"/><path class="cls-9" d="M57.17,71.82c-4.74.28-9.51,0-14.23.78C43.32,72.9,56.59,72.16,57.17,71.82Z"/><path class="cls-9" d="M93,70.72c0-1.31-.12-2.63-.2-3.94h-.19v4H88.49c-.08-1.26-.15-2.51-.24-3.86L91,66.65l0-.29c-.9.1-1.8.17-2.69.3a.69.69,0,0,0-.34.54c0,1.12.16,2.24.24,3.36,0,.5.25.71.77.69,1.17,0,2.34,0,3.51-.11C92.62,71.13,93,70.87,93,70.72Z"/><path class="cls-9" d="M107.48,76.56c-.82-.22-1.65-.39-2.49-.55-.46-.09-.94-.12-1.41-.17l0,.19a5.77,5.77,0,0,0,.58.22c1.08.3,2.16.6,3.24.86a1.31,1.31,0,0,0,.57-.09C107.78,76.86,107.66,76.61,107.48,76.56Z"/><path class="cls-9" d="M92.77,142a11.52,11.52,0,0,0-3.36,1.19l.1.3,3.37-1.19Z"/><path class="cls-9" d="M91.18,143.46l.08.25,3.63-1.16-.08-.31Z"/><path class="cls-9" d="M85,143.8l.11.26,2.1-.76-.12-.31Z"/></svg>