<svg id="झरना" xmlns="http://www.w3.org/2000/svg" viewBox="0 0 150 160"><defs><style>.cls-1,.cls-16{fill:#c3f2ff;}.cls-1{stroke:#fff;stroke-miterlimit:10;stroke-width:5px;}.cls-2{fill:#676e71;}.cls-3{fill:#4b4b4b;}.cls-4{fill:#a5b4b6;}.cls-5{fill:#90a1a4;}.cls-6{fill:#828f91;}.cls-7{fill:#6d6d6d;}.cls-8{fill:gray;}.cls-9{fill:#b9c4c4;}.cls-10{fill:#bec9c9;}.cls-11{fill:#859293;}.cls-12{fill:#616768;}.cls-13{fill:#6c7273;}.cls-14{fill:#41ceeb;}.cls-15{fill:#7edef9;}</style></defs><path class="cls-1" d="M141.88,99.37c-.29-2.56-1.48-4.82-2.27-7.09-.27-.91-.21-2.49-.67-3.27,0-.06-.07-.13-.11-.18-.59-.79-1.78-.4-2.76-.59-2.8-.58-5-1.34-7.82-.16a3.37,3.37,0,0,0-.64-1,3.7,3.7,0,0,0-.57-.46c-1.34-4-3.66-7.67-4.86-11.75-.4-1.18-.2-3.73-.69-4.72h0c-.4-.69-3.06-1.58-3.85-2.07a15.26,15.26,0,0,1-1.34-1c-.54-2-.75-3.48-.14-4,1.68-1.28,5.41-1.87,5.33-2.36-.4-2.27-.15-6.61-1.09-7.49-1.77-1.68-8.18-.1-10.54-1.58a62.48,62.48,0,0,1-.69-7.39c.19-1.87,1.08-3.84-1.38-4.44-2-.49-4.14.6-6,1.09l-3.51.82-2.07.47-.22,0-.73.16-.76.17-.85.19-.74.16-.88.18-.73.15-.92.18-.69.14-1,.18-.64.12-1.19.2-.43.08-1.6.25-.47.06-1.15.16-.6.08-1,.12-.65.06-1,.1-.65,0-1,.07-.62,0-1.08.05-.53,0c-.54,0-1.07,0-1.61,0a62.56,62.56,0,0,1-20.1-3.75l-.61-.24-.08,0-.46-.21L53,41l-.12,0-.68-.35-.11,0-.75-.39c-4-2.11-9.08-4.94-9.92.13-.2,1.48-.3,6.21-.3,6.21-1.38.69-3.74,0-5.42.69-2.07.88-.49,1.77-1.57,3-.79.89-2.64.39-3.26.79-1,.69-2.85,2.86-2,3.75C30.13,55.9,32,54.13,32,57.48c3,.88,7,.1,9.66,1.77a43.77,43.77,0,0,1-6.14,6.84,14.57,14.57,0,0,0-1.94.45c-2.67,1-3.65,3.95-5.62,5.92-.74.73-1.62,1.28-2.26,2a3.22,3.22,0,0,0-.8,1.63c-.19,1.28.3,2.67.1,4-.35,2-4.13,5.91-2.14,8.1a12.62,12.62,0,0,0-3.13.37c-2.36.59-4.73,4.14-6.5,5.61a12.47,12.47,0,0,0-2.42,2.69,27.58,27.58,0,0,0-2.12,4.41c-.59,1.58-1.08,2.36-.69,3.94.2,1.09.69,2,.79,3.06.1,1.57-.59,2.36.89,3.35a7.85,7.85,0,0,0,2.64,1.16,19.48,19.48,0,0,0,3.81.29,33.85,33.85,0,0,0,8.23-.47c2.57-.59,4.64-.39,6.71-2.26a4.54,4.54,0,0,1,.6-.46,33.07,33.07,0,0,1,3.64-1.77c2.47,1.74,10.91,2.33,12.26,2.72-2.37.5-19.44,1.53-17.47,6.46,1.48,3.35,17.17,5.15,19.93,5,2.93-.08,13.44.19,20,.16,9.09.25,30.68-.37,36.14-.53,5-.2,19.14-3.35,18.26-5-.4-.78-2.48-1.89-3.33-2.14-6.8-2-13.82-1.92-19.34-2.81,1.19-.1,9.81-1,11.28-1.25,2.17-.4,4.22-.4,6.19-1.68a2.27,2.27,0,0,0,.89-.84,21.8,21.8,0,0,0,6.91-1.44c2.35-.93,4.68-2.41,4.31-4.93a37.18,37.18,0,0,1,4.93-.37,14,14,0,0,0,4.05-.29c.39-.2,1.18-.2,1.37-.5C142.57,99.77,141.88,100.16,141.88,99.37ZM41.7,104.93c-.52,0-2.25.2-3.86.49A17.72,17.72,0,0,0,39,102.86c1.07,0,2.14,0,3.22,0l.45.09c1.38.3,5.77.84,7.15,1.33C46.65,104.73,43.57,104.73,41.7,104.93Z"/><path class="cls-2" d="M121.49,60.83c-.4-2.27-.15-6.61-1.09-7.49-1.77-1.68-8.18-.1-10.54-1.58a62.48,62.48,0,0,1-.69-7.39c.19-1.87,1.08-3.84-1.38-4.44-2-.49-4.14.6-6,1.09l-3.51.82-2.07.47-.22,0-.73.16-.76.17-.85.19-.74.16-.88.18-.73.15-.92.18-.69.14-1,.18-.64.12-1.19.2-.43.08-1.6.25-.47.06-1.15.16-.6.08-1,.12-.65.06-1,.1-.65,0-1,.07-.62,0-1.08.05-.53,0c-.54,0-1.07,0-1.61,0a62.56,62.56,0,0,1-20.1-3.75l-.61-.24-.08,0-.46-.21L53,41l-.12,0-.68-.35-.11,0-.75-.39c-4-2.11-9.08-4.94-9.92.13-.2,1.48-.3,6.21-.3,6.21-1.38.69-3.74,0-5.42.69-2.07.88-.49,1.77-1.57,3-.79.89-2.64.39-3.26.79-1,.69-2.85,2.86-2,3.75C30.13,55.9,32,54.13,32,57.48c3,.88,7,.1,9.66,1.77-2.17,3.35-5.62,6.11-8.08,8.87L34.86,82.8c-.2,3.16-.3,6.31-.6,9.37-.21,2.89-1.79,5.42-1.54,8.44,3.68.85,7.18,0,10.81.66a30.19,30.19,0,0,1,7.3,2.52c1.22.64,2,1.7,3.34,2.22,4.36,1.77,9-.37,13.4.34,4.74.76,9.68-.3,14.49-.39,5.52-.09,10.84-.49,16.27-.88a43.16,43.16,0,0,0,9.25-1.67c5.84-1.81,10.92-5.35,9.77-12.13A8.32,8.32,0,0,0,115,86.94c-.79-1-1.77-1.47-1.58-2.85.2-1.68,4.64-3.35,5.82-4.34,2-1.58-5.09-15-3.06-16.56C117.84,61.91,121.57,61.32,121.49,60.83Z"/><path class="cls-3" d="M36.33,49.2l.46.08c.28,0,.69.1,1.18.15s1.07.1,1.68.14,1.27,0,1.92,0c.32,0,.65,0,1-.07a5,5,0,0,0,.89-.18,3.12,3.12,0,0,0,.39-.15,1.9,1.9,0,0,0,.35-.19,1.23,1.23,0,0,0,.43-.52.77.77,0,0,0,0-.56,1.25,1.25,0,0,0-.29-.4A3.26,3.26,0,0,0,44,47.3l-.1-.07a1.84,1.84,0,0,1,.42.21,1.48,1.48,0,0,1,.4.37,1,1,0,0,1,.17.75,1.46,1.46,0,0,1-.49.77,2.76,2.76,0,0,1-.39.27,3.1,3.1,0,0,1-.45.21,5.21,5.21,0,0,1-1,.25,8.42,8.42,0,0,1-1,.09,13.73,13.73,0,0,1-3.67-.4,8.48,8.48,0,0,1-1.16-.37,2.94,2.94,0,0,1-.32-.13Z"/><path class="cls-3" d="M49.94,50.87,50,51a1.15,1.15,0,0,1,.18.4,2.34,2.34,0,0,1,0,.3,1.29,1.29,0,0,1,0,.34,1.41,1.41,0,0,1,0,.35c0,.11-.06.23-.1.35l-.15.32a2.14,2.14,0,0,1-.17.3,3.22,3.22,0,0,1-.38.47,2.59,2.59,0,0,1-.45.38,3.35,3.35,0,0,1,.18-.55c.12-.32.29-.73.44-1.12,0-.1.07-.2.11-.29s.06-.2.08-.29.06-.19.07-.27a1.84,1.84,0,0,1,.05-.25,2.13,2.13,0,0,0,0-.41A.83.83,0,0,1,49.94,50.87Z"/><path class="cls-3" d="M49.15,68.12l.18.15a3,3,0,0,1,.44.44l.26.35a3.16,3.16,0,0,1,.24.41,2.35,2.35,0,0,1,.22.45l.18.49c0,.17.09.34.13.5a3.1,3.1,0,0,1,.09.5,5.73,5.73,0,0,1,.08.87,5.1,5.1,0,0,1,0,.87s-.13-.33-.27-.82c-.08-.24-.15-.52-.24-.82s-.18-.61-.27-.93-.2-.63-.32-.91a3.89,3.89,0,0,0-.16-.41,3.47,3.47,0,0,1-.15-.36c-.09-.24-.21-.42-.27-.56Z"/><path class="cls-3" d="M108.28,57.87s0,.09-.07.24a3.06,3.06,0,0,1-.23.62,6.35,6.35,0,0,1-.46.82,9.93,9.93,0,0,1-.63.86c-.46.55-1,1.07-1.32,1.45l-.46.47-.18.17.09-.23a3.93,3.93,0,0,1,.29-.6,11.93,11.93,0,0,1,1.14-1.62l1.25-1.48c.18-.19.31-.39.41-.51Z"/><path class="cls-3" d="M102,57.58a2.12,2.12,0,0,1,.28-.43,5.38,5.38,0,0,1,.76-.74,4.51,4.51,0,0,1,.86-.6,3.32,3.32,0,0,1,.47-.21,2.38,2.38,0,0,1-.25.44,4.81,4.81,0,0,1-.73.81,4.4,4.4,0,0,1-.91.56A3.06,3.06,0,0,1,102,57.58Z"/><path class="cls-4" d="M39.29,75.61c2,0,2.56-.2,3.25-2.27a25.4,25.4,0,0,0,.89-5.1v0c-.2-1.58-.69-2.07-2.27-2.27a19.6,19.6,0,0,0-7.58.59c-2.67,1-3.65,3.95-5.62,5.92-.74.73-1.62,1.28-2.26,2C27.62,76.31,37.71,75.61,39.29,75.61Z"/><path class="cls-5" d="M41.7,75c-.51.53-1.2.61-2.41.61-1.58,0-11.67.7-13.59-1.14a3.22,3.22,0,0,0-.8,1.63c-.19,1.28.3,2.67.1,4-.39,2.26-5,6.8-1.28,8.77l.2,2.16c-.89,1.68-.4,4.44-.69,6.31-.69,4.14.59,3.94,4.24,3.94,5.67,0,11.51.33,17.13-.09A133.67,133.67,0,0,0,43.53,82.8,60.53,60.53,0,0,0,41.7,75Z"/><path class="cls-6" d="M50.43,91.77c-.79-5.91-3.16-11.72-5.42-17.24a23.61,23.61,0,0,1-1.58-6.29,25.4,25.4,0,0,1-.89,5.1A4.21,4.21,0,0,1,41.7,75a60.53,60.53,0,0,1,1.83,7.8,133.67,133.67,0,0,1,1.07,18.34l1.29-.1c2.37-.2,3.26-.4,4-2.47A14.53,14.53,0,0,0,50.43,91.77Z"/><path class="cls-7" d="M43.73,73.34l.1.11a1.26,1.26,0,0,1,.21.32,1.8,1.8,0,0,1,.17.54,3,3,0,0,1,0,.61,2.57,2.57,0,0,1-.08.62,2.35,2.35,0,0,1-.17.51,1.76,1.76,0,0,1-.28.45s0-.06,0-.15,0-.22,0-.37v-.51c0-.18,0-.37,0-.56s0-.38,0-.56a1.11,1.11,0,0,1,0-.26v-.22a1.46,1.46,0,0,0,0-.21.91.91,0,0,0,0-.17A1,1,0,0,1,43.73,73.34Z"/><path class="cls-7" d="M45,76a2,2,0,0,1,.22.34,1.28,1.28,0,0,1,.12.39,3.85,3.85,0,0,1,0,.49,3.43,3.43,0,0,1-.11.46,1.41,1.41,0,0,1-.18.37,1.76,1.76,0,0,1-.27.31,2.06,2.06,0,0,1,0-.4c0-.12,0-.25,0-.38a3,3,0,0,1,0-.42,2.58,2.58,0,0,1,0-.39,1.06,1.06,0,0,0,0-.19,1.11,1.11,0,0,1,0-.19A1.58,1.58,0,0,1,45,76Z"/><path class="cls-7" d="M30.72,80.93a3.91,3.91,0,0,1,.65-.1l.31,0c.11,0,.22,0,.34,0s.47,0,.71,0l.73-.06h.34a1.56,1.56,0,0,1,.3,0,4.6,4.6,0,0,1,.66,0,3.43,3.43,0,0,1-.59.3,2.59,2.59,0,0,1-.63.21c-.24.06-.51.1-.77.14s-.53,0-.78,0a2.9,2.9,0,0,1-.65-.12A3.53,3.53,0,0,1,30.72,80.93Z"/><path class="cls-8" d="M32.2,70.39a3.11,3.11,0,0,1,.53-.18,5.61,5.61,0,0,1,1.18-.16,6.58,6.58,0,0,1,1.19,0,3,3,0,0,1,.55.12,3,3,0,0,1-.53.2,5.38,5.38,0,0,1-1.19.22,6.19,6.19,0,0,1-1.19-.08A3.35,3.35,0,0,1,32.2,70.39Z"/><path class="cls-8" d="M36,71.87a1,1,0,0,1,.23-.23l.23-.17a1.23,1.23,0,0,1,.25-.14,2.11,2.11,0,0,1,.55-.22,1.21,1.21,0,0,1,.32,0,.94.94,0,0,1-.13.29.88.88,0,0,1-.2.24,1.46,1.46,0,0,1-.28.21,1.82,1.82,0,0,1-.35.12.55.55,0,0,1-.31,0A1.11,1.11,0,0,1,36,71.87Z"/><path class="cls-8" d="M39.88,67.92a1.18,1.18,0,0,1,.19.31,2.05,2.05,0,0,1,.18.7,2.35,2.35,0,0,1-.11.74A1.57,1.57,0,0,1,40,70a1.14,1.14,0,0,1-.16-.32,1.84,1.84,0,0,1-.13-.69,2.06,2.06,0,0,1,.06-.72A1.48,1.48,0,0,1,39.88,67.92Z"/><path class="cls-7" d="M35,94.43a3,3,0,0,1,.17.54,1.71,1.71,0,0,1,.05.57,5.37,5.37,0,0,1-.06.67,5.17,5.17,0,0,1-.21.63,2,2,0,0,1-.27.51,3.25,3.25,0,0,1-.37.44,4.16,4.16,0,0,1,.07-.56,2.21,2.21,0,0,1,.05-.25c0-.09,0-.19,0-.29s.09-.39.13-.59a5,5,0,0,1,.12-.58c0-.1.06-.19.07-.28a1.72,1.72,0,0,1,0-.26A3,3,0,0,1,35,94.43Z"/><path class="cls-9" d="M43.43,90.79C46,91,47,89,49.25,88.32A11.51,11.51,0,0,0,53,86.85a.36.36,0,0,0,0-.1c-.49-2-4-1.87-6-2.17-2.86-.39-5-.39-6.9,2-.59.59-.89,1.28-1.68,1.68-.49.29-1.38.29-1.77.78a1.84,1.84,0,0,0-.18.56,4.68,4.68,0,0,0,1.46.63A54.72,54.72,0,0,0,43.43,90.79Z"/><path class="cls-4" d="M53.48,96.6c-.78-3.21.27-6.72-.47-9.75a11.51,11.51,0,0,1-3.76,1.47C47,89,46,91,43.43,90.79a54.72,54.72,0,0,1-5.52-.59,4.68,4.68,0,0,1-1.46-.63c-.2.92,0,2.2-.61,3.09a7,7,0,0,0-1.58,3.06c-.29,1.08-.59,2.16-.88,3.25-.59,3,1.08,3.25,3.45,3.74h.39a31.54,31.54,0,0,0,5.32.1,8.36,8.36,0,0,0,4.64-.69c1.47-.69,2.16-1.28,3.74-1.38C54.37,100.74,54.07,99.56,53.48,96.6Z"/><path class="cls-8" d="M51.12,89.9s0,.09,0,.25a2.47,2.47,0,0,1,0,.65,5.25,5.25,0,0,1-.43,1.4c-.08.15-.17.31-.25.48a9.29,9.29,0,0,1-.62.85,5.83,5.83,0,0,1-.65.66,4.77,4.77,0,0,1-.71.54l.12-.21.35-.54.49-.75c.18-.26.35-.56.54-.84s.35-.59.48-.88.15-.27.21-.41.1-.25.16-.37a4.67,4.67,0,0,0,.22-.6A1.94,1.94,0,0,1,51.12,89.9Z"/><path class="cls-8" d="M38.6,93.74a2.05,2.05,0,0,1,.4-.18l.41-.12a2.16,2.16,0,0,1,.44-.1,3.69,3.69,0,0,1,.46-.08l.42,0a2.42,2.42,0,0,1,.43,0,1.65,1.65,0,0,1-.34.28,2.62,2.62,0,0,1-.86.36,4.56,4.56,0,0,1-.51,0,1.41,1.41,0,0,1-.43-.05A1.7,1.7,0,0,1,38.6,93.74Z"/><path class="cls-8" d="M36.14,98.38a1.77,1.77,0,0,1,.44,0l.2,0c.07,0,.15,0,.22,0l.44.06a7.85,7.85,0,0,1,.86.2,2.05,2.05,0,0,1,.4.18,1.73,1.73,0,0,1-.42.15,2.62,2.62,0,0,1-.94,0c-.17,0-.35-.09-.5-.15a1.36,1.36,0,0,1-.38-.22A1.53,1.53,0,0,1,36.14,98.38Z"/><path class="cls-5" d="M27.92,99.08l-.58.19c-1.58.39-3.81,2.06-5.29,2.65-1.87.79-7.94,3.35-9.32,2.17-1.18-1-1-1.78-.78-3.16a5.19,5.19,0,0,0-1.14-4.11,27.58,27.58,0,0,0-2.12,4.41c-.59,1.58-1.08,2.36-.69,3.94.2,1.09.69,2,.79,3.06.1,1.57-.59,2.36.89,3.35a7.85,7.85,0,0,0,2.64,1.16,19.48,19.48,0,0,0,3.81.29,33.85,33.85,0,0,0,8.23-.47c2.57-.59,4.64-.39,6.71-2.26a4.54,4.54,0,0,1,.6-.46c-.92-2.75-2-5.45-2.87-8.22C28.48,100.79,28.24,99.92,27.92,99.08Z"/><path class="cls-6" d="M39,99.46C38.16,97,36.49,93,35.6,90.55a3.18,3.18,0,0,0-1.1-1.63A5.92,5.92,0,0,1,34,90.19c-.69,1.48-.79,2.86-1.38,4.34a8,8,0,0,1-4.72,4.55c.32.84.56,1.71.88,2.54.86,2.77,1.95,5.47,2.87,8.22,2-1.34,4.74-1.56,5.9-3.88C38.65,103.79,39.84,101.82,39,99.46Z"/><path class="cls-4" d="M12,100.93c-.2,1.38-.4,2.17.78,3.16,1.38,1.18,7.45-1.38,9.32-2.17,1.48-.59,3.71-2.26,5.29-2.65a8,8,0,0,0,5.3-4.74c.59-1.48.69-2.86,1.38-4.34a5.92,5.92,0,0,0,.48-1.27c-1.09-.8-2.69-.67-4.76-.59-2.84.11-7.15-.6-10,.19-2.36.59-4.73,4.14-6.5,5.61a12.47,12.47,0,0,0-2.42,2.69A5.19,5.19,0,0,1,12,100.93Z"/><path class="cls-7" d="M29.78,100.84a2.75,2.75,0,0,1,.15-.49,5.07,5.07,0,0,1,.5-.93,4.77,4.77,0,0,1,.64-.82,2.87,2.87,0,0,1,.39-.33,2.75,2.75,0,0,1-.11.5,4.84,4.84,0,0,1-.45,1,5.27,5.27,0,0,1-.71.8A3,3,0,0,1,29.78,100.84Z"/><path class="cls-7" d="M31.46,102.61a1.25,1.25,0,0,1,0-.34,1.92,1.92,0,0,1,.18-.66,2,2,0,0,1,.35-.55,1.28,1.28,0,0,1,.27-.22,1.33,1.33,0,0,1,0,.33,2.32,2.32,0,0,1-.15.69,2.17,2.17,0,0,1-.4.55A1.35,1.35,0,0,1,31.46,102.61Z"/><path class="cls-7" d="M13,105.57l.05.22a4,4,0,0,1,.06.6,5.3,5.3,0,0,1,0,.87,4.11,4.11,0,0,1-.07.47c0,.16-.07.32-.1.49a16.4,16.4,0,0,1-.56,1.71,6.75,6.75,0,0,1-.33.76,5,5,0,0,1,0-.84,11.54,11.54,0,0,1,.32-1.77l.44-1.71c.07-.23.1-.44.14-.58S13,105.57,13,105.57Z"/><path class="cls-7" d="M24.07,104.28a7,7,0,0,1,.25.82c0,.12.07.25.1.39s.09.28.12.43.16.61.24.92.19.63.26.93c.05.14.06.3.11.43a3.18,3.18,0,0,1,.11.38,6.65,6.65,0,0,1,.19.83,5.57,5.57,0,0,1-.48-.7q-.11-.17-.21-.36a2.68,2.68,0,0,1-.19-.42c-.12-.3-.22-.62-.33-.94s-.14-.68-.19-1a3.84,3.84,0,0,1-.05-.87A6.31,6.31,0,0,1,24.07,104.28Z"/><path class="cls-7" d="M26.63,105.37a2.25,2.25,0,0,1,.36.34,4.59,4.59,0,0,1,.58.86,5,5,0,0,1,.37,1A2.24,2.24,0,0,1,28,108a2.25,2.25,0,0,1-.36-.34,4.59,4.59,0,0,1-.58-.86,5,5,0,0,1-.37-1A2.24,2.24,0,0,1,26.63,105.37Z"/><path class="cls-8" d="M17.27,95.51a11.34,11.34,0,0,1,1.21-.26c.37-.06.8-.12,1.26-.17l1.42-.16c.47-.09,1-.14,1.39-.26a5.09,5.09,0,0,0,.62-.16l.56-.18a4,4,0,0,0,.46-.19l.35-.16.32-.13-.26.22-.31.26a2.37,2.37,0,0,1-.42.29c-.17.09-.35.19-.55.28a3,3,0,0,1-.64.25,5.6,5.6,0,0,1-.7.2l-.74.13-.75.07c-.24,0-.48,0-.72,0-.46,0-.89,0-1.26,0C17.77,95.56,17.27,95.51,17.27,95.51Z"/><path class="cls-8" d="M19.93,92.06a1.11,1.11,0,0,1,.31-.08,2.85,2.85,0,0,1,.29,0,1.51,1.51,0,0,1,.3,0,1.82,1.82,0,0,1,.6.14,1.28,1.28,0,0,1,.27.16.9.9,0,0,1-.28.16,1.42,1.42,0,0,1-.64.1,3.58,3.58,0,0,1-.35-.09.63.63,0,0,1-.27-.14A1,1,0,0,1,19.93,92.06Z"/><path class="cls-8" d="M23.67,90.88a1.56,1.56,0,0,1,.28-.16,1.61,1.61,0,0,1,1.22,0,1.21,1.21,0,0,1,.28.16.9.9,0,0,1-.28.16,1.48,1.48,0,0,1-.61.12A1.66,1.66,0,0,1,24,91,1.08,1.08,0,0,1,23.67,90.88Z"/><path class="cls-10" d="M106.31,72.16c2.46,2.07,3,4.44,6.4,3.35a51.49,51.49,0,0,0,5.92-2.07c1-.45,2-1.84,2.86-3.24h0c-.4-.69-3.06-1.58-3.85-2.07-2.46-1.58-4.53-4.34-7.39-3.65-1.48.3-3.06,1.15-4.63,1.35a28.08,28.08,0,0,0-3.65,1,3.31,3.31,0,0,0-2.11,1.65,7,7,0,0,1,1.32.12C103,69.2,104.93,71,106.31,72.16Z"/><path class="cls-5" d="M107.88,85.07a43.67,43.67,0,0,1,1.76-9.7c-1.1-.65-1.87-2-3.33-3.21s-3.35-3-5.13-3.55a7,7,0,0,0-1.32-.12,17.83,17.83,0,0,0-1.53,5.05c-.7,3.75-1.19,7.49-2,11.24-.39,1.67-.88,3.35-1.28,5-.39,1.38-1.38,3.06-1.18,4.34.29,2.42,2.65,2.45,4.64,2.58a9.76,9.76,0,0,1,1.42.16,14.87,14.87,0,0,0,3.76.64c.91,0,1.83-.17,2.75-.22.25-1.83.77-3.55,1.13-5.43A39.27,39.27,0,0,0,107.88,85.07Z"/><path class="cls-4" d="M128.38,92.56c-.49-1.58-.59-3.45-1.08-5.12-1.28-4.34-3.84-8.18-5.12-12.52-.4-1.18-.2-3.73-.69-4.72-.91,1.4-1.9,2.79-2.86,3.24a51.49,51.49,0,0,1-5.92,2.07,3.53,3.53,0,0,1-3.07-.14,43.67,43.67,0,0,0-1.76,9.7,39.27,39.27,0,0,1-.29,6.8c-.36,1.88-.88,3.6-1.13,5.43a10.65,10.65,0,0,1,1.13,0,75.82,75.82,0,0,0,15-.39c1.67-.2,5.12-.69,6.21-2.17C129.57,93.65,128.78,93.65,128.38,92.56Z"/><path class="cls-7" d="M104.24,75.32s0,.37,0,.92a3.7,3.7,0,0,1-.1,1c-.06.34-.15.71-.25,1.08a13,13,0,0,1-.79,1.87,7.06,7.06,0,0,1-.48.79,7,7,0,0,1,.18-.91c.14-.53.32-1.24.56-1.92.09-.34.19-.68.3-1,0-.16.11-.31.15-.47s.07-.29.11-.43A8.37,8.37,0,0,1,104.24,75.32Z"/><path class="cls-7" d="M100.69,81.33a2.81,2.81,0,0,1,0,.56,6.76,6.76,0,0,1-.23,1.18,6.31,6.31,0,0,1-.59,1.08,3.07,3.07,0,0,1-.36.43,3.37,3.37,0,0,1,.06-.56,4.81,4.81,0,0,1,.14-.54c.05-.19.14-.38.21-.58a5.69,5.69,0,0,1,.46-1.1A3.27,3.27,0,0,1,100.69,81.33Z"/><path class="cls-7" d="M114.29,77.68a2.59,2.59,0,0,1,.48.13,4.65,4.65,0,0,1,.94.48,4.89,4.89,0,0,1,.76.74,2.25,2.25,0,0,1,.28.42,2.88,2.88,0,0,1-.47-.15,4.87,4.87,0,0,1-.88-.54,4,4,0,0,1-.8-.68A3,3,0,0,1,114.29,77.68Z"/><path class="cls-7" d="M117.44,76.1a1.78,1.78,0,0,1,.37.17,4.13,4.13,0,0,1,.62.46l.3.27c.09.11.18.19.25.27a1.61,1.61,0,0,1,.24.31,1.34,1.34,0,0,1-.4,0,2,2,0,0,1-.76-.39,2.12,2.12,0,0,1-.5-.68A1.73,1.73,0,0,1,117.44,76.1Z"/><path class="cls-4" d="M139.61,92.28c-.27-.91-.21-2.49-.67-3.27a5.11,5.11,0,0,1-3,2c-1.48.19-3.25-.4-4.83-.4-1.37,0-3.6,0-4.79-.77a4.73,4.73,0,0,0-.06,1.7c0,.42.07.86.08,1.35,0,1.41-.19,2.82-.26,4.23a6.92,6.92,0,0,1-.26,1.69c-.15.48-.71,1.09-.7,1.58,0,.82.32.4.94.57,1.65.46,2.6,1.06,4.38.94a56.42,56.42,0,0,1,5.79-.45,14,14,0,0,0,4.05-.29c.39-.2,1.18-.2,1.37-.5.89-.88.2-.49.2-1.28C141.59,96.81,140.4,94.55,139.61,92.28Z"/><path class="cls-9" d="M136,91a5.11,5.11,0,0,0,3-2c0-.06-.07-.13-.11-.18-.59-.79-1.78-.4-2.76-.59-2.86-.59-5.13-1.38-8-.1a2.7,2.7,0,0,0-1.73,1.69c1.19.77,3.42.77,4.79.77C132.72,90.6,134.49,91.19,136,91Z"/><path class="cls-11" d="M104.35,88.41c1,.79,2.86,1.09,3.94,1.48a37.05,37.05,0,0,1,4.83,2.46c1.09.69,3.85,1.38,4.83,2.17,2.24,1.22,2.45,2.39,3,2.56a10.08,10.08,0,0,0,2.37-2.56,11.16,11.16,0,0,1,3.15-3.6A12.73,12.73,0,0,0,128.61,89a4.45,4.45,0,0,0-1-1.86c-.79-.79-2.07-1.28-2.86-2.17a26.75,26.75,0,0,1-5-6.5c-2,.69-3.75,1.28-5.62,2.07s-4.14.88-6.21,1.08c-1.28.1-3.55.1-4.73.79a2.66,2.66,0,0,0-.54.48C103.21,84.67,102.67,87.17,104.35,88.41Z"/><path class="cls-12" d="M118,94.52c-1-.79-3.74-1.48-4.83-2.17a37.05,37.05,0,0,0-4.83-2.46c-1.08-.39-3-.69-3.94-1.48-1.68-1.24-1.14-3.74-1.72-5.53-.57.64-1.1,1.58-1.63,2.18a12.59,12.59,0,0,0-1.87,4c-.69,1.58-1.77,2.86-2,4.63A6.86,6.86,0,0,1,95.58,98c-1.28,1.78-.89,2.07.69,3.25s6.31,3.65,8.18,3.06l1.87,1.18c4.24.59,8.28,2.07,12.52,2.66a8.19,8.19,0,0,0,1,.06,71.49,71.49,0,0,0,1-11.11C120.39,96.85,120.13,95.71,118,94.52Z"/><path class="cls-13" d="M131.26,101.42c-.79-3.45-1.18-7.1-2.17-10.54-.14-.6-.28-1.26-.48-1.89a12.73,12.73,0,0,1-2.18,1.93,11.16,11.16,0,0,0-3.15,3.6,10.08,10.08,0,0,1-2.37,2.56h0a71.49,71.49,0,0,1-1,11.11,21.39,21.39,0,0,0,7.17-1.44C129.48,105.76,132,104.18,131.26,101.42Z"/><path class="cls-3" d="M125.15,93l.23.38.26.44a4,4,0,0,1,.31.59c.1.22.21.46.32.72s.21.54.31.82.21.59.28.9.17.62.26.93c.14.63.28,1.26.39,1.86s.2,1.14.27,1.62l.17,1.16c0,.28.06.44.06.44a4.35,4.35,0,0,1-.16-.42c-.09-.26-.25-.64-.38-1.11-.29-.92-.6-2.17-.9-3.41-.16-.62-.3-1.25-.47-1.82-.08-.28-.14-.57-.22-.83l-.23-.73c-.12-.47-.28-.84-.37-1.11S125.15,93,125.15,93Z"/><path class="cls-3" d="M127,95a5.45,5.45,0,0,1,.37.65,10.28,10.28,0,0,1,.59,1.49,10.62,10.62,0,0,1,.36,1.56,6.06,6.06,0,0,1,.06.74,4.59,4.59,0,0,1-.37-.65,9.43,9.43,0,0,1-.59-1.49,10.34,10.34,0,0,1-.36-1.56A5.93,5.93,0,0,1,127,95Z"/><path class="cls-3" d="M128.4,96.39a1.47,1.47,0,0,1,.23.29,2.36,2.36,0,0,1,.28.68,2.33,2.33,0,0,1,0,.75,1.08,1.08,0,0,1-.11.35,1.43,1.43,0,0,1-.21-.29,2.26,2.26,0,0,1-.22-.68,2.11,2.11,0,0,1,0-.74A1.43,1.43,0,0,1,128.4,96.39Z"/><path class="cls-3" d="M112.83,93.14s0,.2,0,.54c0,.17,0,.37,0,.61s0,.25,0,.38-.05.27-.07.41c0,.29-.11.61-.17.94s-.17.67-.27,1a9.57,9.57,0,0,1-.34,1.08l-.4,1.09c-.31.72-.61,1.44-.94,2.09s-.63,1.26-.91,1.77-.53.93-.7,1.23-.27.46-.27.46.25-.74.67-1.82c.22-.55.48-1.17.76-1.84L111,99c.27-.72.57-1.43.79-2.11.11-.34.25-.67.34-1s.17-.62.25-.89a5.16,5.16,0,0,0,.2-.77c.05-.23.1-.43.13-.6Z"/><path class="cls-3" d="M112,88.12a10.14,10.14,0,0,1,1.17,0,24.24,24.24,0,0,1,2.55.23c.46,0,.92.08,1.35.14s.83.11,1.18.17a10.72,10.72,0,0,1,1.14.26s-.46,0-1.17.07-1.64,0-2.57-.09a23.61,23.61,0,0,1-2.52-.46C112.49,88.27,112,88.12,112,88.12Z"/><path class="cls-3" d="M118.84,90.88a2.61,2.61,0,0,1,.39-.4c.12-.11.27-.23.42-.35s.32-.24.48-.36.34-.25.51-.35l.46-.28a2.55,2.55,0,0,1,.5-.23,2.44,2.44,0,0,1-.29.47,3.79,3.79,0,0,1-.85.85,4.28,4.28,0,0,1-1.08.53A2.72,2.72,0,0,1,118.84,90.88Z"/><path class="cls-14" d="M55.45,48.31c-.19-1.08,0-3.35,1.38-3.64S59,46.93,59.5,47.92c.09-.79.78-2.47,1.87-2.37S63.24,48,63.63,48.9c0-1.18.79-2.66,2.17-2.17,1.18.4,1.18,2.67,2.27,3.16,1.77.79,1.48-2.17,3-2.17,1.08-.1,1.47,2.07,2.16,2.66.69-.49,1.38-2.36,2.47-2.46s.79,1.08,1.57,1.77c2.27,2.17,1.68-2.86,3.55-2.56.79.1.59,2.07,1.38,2.46,1.18.59,1.28-.69,1.88-1.57,1.57-2.66,2.85-1.78,3.44.78.4-.78,1.19-2.36,2.17-2.46,1.19,0,1.28,1.38,1.78,2.07.29-.69.29-2.37,1.18-2.56s1.08,1.48,1.58,2a35,35,0,0,1,2-5.51l-.22,0-.73.16-.76.17-.85.19-.74.16-.88.18-.73.15-.92.18-.69.14-1,.18-.64.12-1.19.2-.43.08-1.6.25-.47.06-1.15.16-.6.08-1,.12-.65.06-1,.1-.65,0-1,.07-.62,0-1.08.05-.53,0c-.54,0-1.07,0-1.61,0a62.56,62.56,0,0,1-20.1-3.75l-.61-.24-.08,0-.46-.21A28.92,28.92,0,0,1,55.45,48.31Z"/><path class="cls-15" d="M124.42,116.9c-.4-.78-2.48-1.89-3.33-2.14-6.8-2-13.82-1.92-19.34-2.81,1.19-.1,9.81-1,11.28-1.25,2.17-.4,4.22-.4,6.19-1.68,3-1.77-1.38-3.35-3-3.84a44.58,44.58,0,0,0-8.68-1.77h-.09a64.14,64.14,0,0,0-8-.52c1.18-.2,11.43.33,11.13-1.55-.39-2.17-8.77-1.28-10-1.57.79-.5,7.59-2,6.11-3.85-1.08-1.38-7.54,1.18-8.92,1.78,1.48-1.28,7.05-6.21,5.57-6.41a11.89,11.89,0,0,0-9.17,5.13c-.31-2.46-.6-4.93-.7-7.4-.17-4.35.09-8.74,0-13.09-.09-9.62.08-19.41,2.43-28.79.39-1.58.69-3.45,1.77-4.83a3.67,3.67,0,0,1,.43-.46l-2.07.47a35,35,0,0,0-2,5.51c-.5-.49-.59-2.27-1.58-2s-.89,1.87-1.18,2.56c-.5-.69-.59-2.07-1.78-2.07-1,.1-1.77,1.68-2.17,2.46-.59-2.56-1.87-3.44-3.44-.78-.6.88-.7,2.16-1.88,1.57-.79-.39-.59-2.36-1.38-2.46-1.87-.3-1.28,4.73-3.55,2.56-.78-.69-.39-1.77-1.57-1.77s-1.78,2-2.47,2.46c-.69-.59-1.08-2.76-2.16-2.66-1.48,0-1.19,3-3,2.17C67,49.4,67,47.13,65.8,46.73c-1.38-.49-2.17,1-2.17,2.17-.39-.88-1.08-3.25-2.26-3.35s-1.78,1.58-1.87,2.37c-.5-1-1.19-3.55-2.67-3.25s-1.57,2.56-1.38,3.64a28.92,28.92,0,0,0-2.23-7.18L53,41l-.12,0-.68-.35-.11,0-.75-.39a24.82,24.82,0,0,1,2.1,5.25c.9,3.44.24,7-.06,10.48A47.48,47.48,0,0,0,54,66.24a122.72,122.72,0,0,1,.61,12.43c.1,3.94-.24,4.53,0,9.75.15,3.36.19,8.18-.89,10.45-2.17-2.17-8.28-6.56-8.77-5.82-.69,1.88,1.87,3.55,3.05,4.64-1-.4-8.18-4-7.88-1.58.1,1.28,5.81,3.45,7,4.24-3.06-.1-10.63-.74-10.25.88,1,1.29,4.23,1.29,5.81,1.68,1.38.3,5.77.84,7.15,1.33-3.14.49-6.22.49-8.09.69-.9.09-5.46.47-6.68,1.37a.8.8,0,0,0-.26.26c-1.58,3,11.13,3.74,12.81,4.23-2.37.5-19.44,1.53-17.47,6.46,1.48,3.35,17.17,5.15,19.93,5,2.93-.07,13.44.19,20,.16,9.09.25,30.68-.37,36.14-.53C111.19,121.73,125.3,118.58,124.42,116.9Z"/><path class="cls-16" d="M58.71,65.56a45.22,45.22,0,0,1-.3,6.31c-.07.59.29,4.42-.29,4.54s-.68-1.23-.74-1.49c-.52-2.31-.46-4.82-.75-7.17a39.71,39.71,0,0,1-.09-8c.1-1.18.2-4.73,1.87-3.35,1.18.89.79,3.16,1,4.34,0-1.58,1.08-3.94,2.85-2.86,1.38.69,1.38,4.24,2.37,5.13.3-.89,1.08-4.54,2.27-4.73,1.48-.3,1.38,1.57,1.67,2.56,1.68,5,2-4.24,3.45-4.24,1.77.1,1,9.46,2.27,10.84,1.38,1.58,1.77-1.58,1.87-2.76.1-2.07-.49-5.52.89-7.09,1,1.08.88,3.94,1.08,5.42,0-1.48,0-4,1.38-4.73.89,1.08.4,2.76,1.09,3.94,1.18,1.87,1.57-.79,1.87-2.07s.88-3.85,2-1.68c.69,1.48.29,3.25,1.18,4.83.3-1.87.69-7.69,2.76-7.39.59-.3.1,4.44.79,6.41.1-2,.2-7.2,2.56-7.89a48.86,48.86,0,0,1,.2,11.4c-.29,3.45-.39,10.68-1.87,10.38-.59-1-.3-2.76-.4-3.94a41.72,41.72,0,0,0-.29-6c-.1,1.67-.89,7.09-1.88,6.5-1.08-2.07-.78-4.63-1.87-6.7-.1,1.38-.89,8.42-2.06,8-1.5-.53-1.58-6.82-2.67-8.29-1.77,5-.69,10.84-3,15.67-1.28,2.95-1.77-.4-1.87-2.07a75.52,75.52,0,0,0-.29-8.09c0,1.68-.79,9.27-3.26,6.61-2.66-2.86-1.18-8.87-3-12.32-.1,2.27.79,8-1.38,9.46-1.68,1.18-2.46-6.7-3-8,0,1-.59,7.59-1.87,7.09-1.67-.69-1.18-8-1.48-9.66-.1,2.27.1,4.54-.89,6.61C59.1,74.82,59.1,69,59.1,67.53Z"/><path class="cls-16" d="M57.23,107.15A4.64,4.64,0,0,0,59.79,110c1.68.88,2.37.19,3.84.19,2.07-.1,8,1.88,8.48-1.67-2.17,1.57-4.63.1-6.8.1-1.08,0-2.17.59-3.35.39a40.75,40.75,0,0,1-3.84-1.48Z"/><path class="cls-16" d="M70.43,113.16c.79,2.07,3.85,1.38,5.33.59Z"/><path class="cls-16" d="M76.05,110.3c2.17,1.19,4.34,1.68,6.51.69.49-.2.49-.69,1-.79a9.74,9.74,0,0,1,1.68.2,7.85,7.85,0,0,0,4.33-1.87c-2.16,1.48-4.43.1-6.5.79-.3.1-.79.78-1.18,1a5.78,5.78,0,0,1-2.57.4,11.63,11.63,0,0,1-3.25-.4Z"/><path class="cls-16" d="M53.09,100.94c1.28,3.35,5.52,4.43,8.67,3.84,2.07-.29,2.66-.59,4.54-.1,2.06.5,3.74-.29,5.61-.39,1.58,0,3.45,1.08,5,1.38A10.47,10.47,0,0,0,84,104.49c.69-.4.69-.79,1.38-.89s1.58.39,2.37.2,4.14-2.57,3.15-3.65V100c-1.38,2-3.94,2.66-6.11,3-2.56.39-4.23-.39-6.6-.79-1.58-.2-2.46.89-4,1.28a5.46,5.46,0,0,1-3.75-.59,5.19,5.19,0,0,0-3.25-.49,51.7,51.7,0,0,1-5.91,1.09,14.4,14.4,0,0,1-6.21-1.47,12.12,12.12,0,0,1-2-1Z"/><path class="cls-16" d="M57.62,89.8a11.76,11.76,0,0,0-.1-1.77c-1.38,2.17-2.07,8-.39,10.15.89-1.48.89-3.65,1.77-5,.6.69.89,3.55,1.58,3.85,1.28.49,1.18-3.06,2.86-2.66,1.38.29,1.48,2.46,3.35,2,2.07-.5,2.27-3.65,4.34-4.14,3.35-.79,2.06,5.22,6.2,2.07,1.58-1.19,1.88-1.58,3.16.1s1.48,1.87,2.66.39c.59-.79,0-1.77,1.18-.69.79.59.59,2.07,1.38,2.56,2.07,1.38,1.18-2.66,1.68-3.55,1.28.79,2.95,7,3,1.78.1-3.65,1.28-8.08.3-11.63-1.18,1-1.28,4.24-1.28,5.72,0-1.68,1-5.62-.3-6.71-1,2.17-.69,5.13-1.28,7.4,0-2,.2-4,0-6s-.89-2.16-1.28-.29c-.4,1.67.29,7.59-2.27,7.78-.39-1.18-.1-3.35-1.28-3.94-.89,1.38-.49,3.25-2,4.34-.59-1-.3-2.56-1.77-2.66-1.68-.1-1.48,1.77-2.37,2.66-2.36,2.26-4.34-2.66-6.7-1.68-.79.3-.89,2.27-2.07,2.17-1.38,0-.3-2.56-.89-3.55-1.87-3.15-2.86,3-3.45,4.14-.69-1.38,0-8.08-1.67-8.47-2-.5-2.07,5.61-2.07,6.8-.3-1.68.39-5.33-1.09-6.41-.49,1.18.2,7.59-1.08,7.29Z"/></svg>