<svg id="धनुष" xmlns="http://www.w3.org/2000/svg" viewBox="0 0 150 160"><defs><style>.cls-1,.cls-2{fill:#fff;stroke:#fff;stroke-miterlimit:10;stroke-width:5px;}.cls-2,.cls-6{fill-rule:evenodd;}.cls-3{fill:#39474b;}.cls-4{fill:#e77b00;}.cls-5{fill:#db6e00;}.cls-6{fill:#b24d05;}.cls-7{fill:#930;}.cls-8{fill:#a54000;}</style></defs><rect class="cls-1" x="60.33" y="17.92" width="1.26" height="124.15"/><path class="cls-1" d="M84.42,70.73H88.3C101.21,45.11,65.24,39.54,64.2,17.4c-.48-10.39-7.79-4-4.4,2.79C69.85,40.2,94.47,50.38,84.42,70.73Z"/><path class="cls-1" d="M84.42,89.27c10,20.35-14.57,30.53-24.62,50.54-3.39,6.75,3.92,13.18,4.4,2.79,1-22.14,37-27.71,24.1-53.33Z"/><path class="cls-1" d="M84.42,70.73h1.66c11.65-24.4-20.75-29.92-22.32-50.85-.3-7.39-4-6-4.74-2.09a7.49,7.49,0,0,0,.78,2.4C69.85,40.2,94.47,50.38,84.42,70.73Z"/><path class="cls-1" d="M84.42,89.27c10,20.35-14.57,30.53-24.62,50.54a7.49,7.49,0,0,0-.78,2.4c.7,3.87,4.44,5.3,4.74-2.09,1.44-20.4,33.93-26.19,22.32-50.85Z"/><path class="cls-2" d="M84.42,70.73H88.3c1.65,0,1.65,18.54,0,18.54H84.42a.9.9,0,0,1-.91-.92,61.42,61.42,0,0,0,0-16.7.9.9,0,0,1,.91-.92Z"/><path class="cls-1" d="M84,77.3l5.52,1.87c0-.74,0-1.48,0-2.17l-5.61-1.87A17,17,0,0,1,84,77.3Z"/><path class="cls-1" d="M89.08,72.69,83.81,71a.89.89,0,0,0-.3.7c0,.43.09.91.17,1.39L89.34,75A15.83,15.83,0,0,0,89.08,72.69Z"/><path class="cls-1" d="M83.81,85.57l5.27,1.78c.09-.56.17-1.3.26-2.09L84,83.48C84,84.18,83.86,84.87,83.81,85.57Z"/><path class="cls-1" d="M84,81.48l5.44,1.83c0-.7,0-1.4,0-2.14l-5.43-1.82C84.08,80,84.08,80.78,84,81.48Z"/><path class="cls-1" d="M84,84.05l5.56-1.92V80L84,81.83C84,82.57,84,83.31,84,84.05Z"/><path class="cls-1" d="M84.08,79.83,89.51,78c0-.74-.08-1.48-.08-2.13L84,77.69C84,78.39,84.08,79.09,84.08,79.83Z"/><path class="cls-1" d="M89.25,73.91c-.08-.83-.22-1.52-.3-2l-5.22,1.74c.08.69.13,1.39.17,2.08Z"/><path class="cls-1" d="M83.51,88.35l5.7-2c.09-.65.13-1.39.17-2.21l-5.61,1.91C83.68,86.83,83.6,87.57,83.51,88.35Z"/><rect class="cls-3" x="60.33" y="17.92" width="1.26" height="124.15"/><path class="cls-4" d="M84.42,70.73H88.3C101.21,45.11,65.24,39.54,64.2,17.4c-.48-10.39-7.79-4-4.4,2.79C69.85,40.2,94.47,50.38,84.42,70.73Z"/><path class="cls-4" d="M84.42,89.27c10,20.35-14.57,30.53-24.62,50.54-3.39,6.75,3.92,13.18,4.4,2.79,1-22.14,37-27.71,24.1-53.33Z"/><path class="cls-5" d="M84.42,70.73h1.66c11.65-24.4-20.75-29.92-22.32-50.85-.3-7.39-4-6-4.74-2.09a7.49,7.49,0,0,0,.78,2.4C69.85,40.2,94.47,50.38,84.42,70.73Z"/><path class="cls-5" d="M84.42,89.27c10,20.35-14.57,30.53-24.62,50.54a7.49,7.49,0,0,0-.78,2.4c.7,3.87,4.44,5.3,4.74-2.09,1.44-20.4,33.93-26.19,22.32-50.85Z"/><path class="cls-6" d="M84.42,70.73H88.3c1.65,0,1.65,18.54,0,18.54H84.42a.9.9,0,0,1-.91-.92,61.42,61.42,0,0,0,0-16.7.9.9,0,0,1,.91-.92Z"/><path class="cls-7" d="M84,77.3l5.52,1.87c0-.74,0-1.48,0-2.17l-5.61-1.87A17,17,0,0,1,84,77.3Z"/><path class="cls-7" d="M89.08,72.69,83.81,71a.89.89,0,0,0-.3.7c0,.43.09.91.17,1.39L89.34,75A15.83,15.83,0,0,0,89.08,72.69Z"/><path class="cls-7" d="M83.81,85.57l5.27,1.78c.09-.56.17-1.3.26-2.09L84,83.48C84,84.18,83.86,84.87,83.81,85.57Z"/><path class="cls-7" d="M84,81.48l5.44,1.83c0-.7,0-1.4,0-2.14l-5.43-1.82C84.08,80,84.08,80.78,84,81.48Z"/><path class="cls-8" d="M84,84.05l5.56-1.92V80L84,81.83C84,82.57,84,83.31,84,84.05Z"/><path class="cls-8" d="M84.08,79.83,89.51,78c0-.74-.08-1.48-.08-2.13L84,77.69C84,78.39,84.08,79.09,84.08,79.83Z"/><path class="cls-8" d="M89.25,73.91c-.08-.83-.22-1.52-.3-2l-5.22,1.74c.08.69.13,1.39.17,2.08Z"/><path class="cls-8" d="M83.51,88.35l5.7-2c.09-.65.13-1.39.17-2.21l-5.61,1.91C83.68,86.83,83.6,87.57,83.51,88.35Z"/></svg>