<?xml version="1.0" encoding="UTF-8" standalone="no"?>
<!-- Created with Inkscape (http://www.inkscape.org/) -->

<svg
   width="162.71658mm"
   height="100.13604mm"
   viewBox="0 0 162.71658 100.13604"
   version="1.1"
   id="svg7203"
   xmlns="http://www.w3.org/2000/svg"
   xmlns:svg="http://www.w3.org/2000/svg">
  <defs
     id="defs7200">
    <clipPath
       clipPathUnits="userSpaceOnUse"
       id="clipPath7015">
      <path
         d="M 0,900 H 1920 V 0 H 0 Z"
         id="path7013" />
    </clipPath>
    <clipPath
       clipPathUnits="userSpaceOnUse"
       id="clipPath6983">
      <path
         d="M 0,900 H 1920 V 0 H 0 Z"
         id="path6981" />
    </clipPath>
  </defs>
  <g
     id="layer1"
     transform="translate(-97.44783,-61.054431)">
    <g
       id="g6977"
       transform="matrix(0.35277777,0,0,-0.35277777,-160.19658,281.49477)">
      <g
         id="g6979"
         clip-path="url(#clipPath6983)">
        <g
           id="g6985"
           transform="translate(952.7085,465.5254)">
          <path
             d="m 0,0 c -8.381,31.206 -7.846,90.23 -1.426,123.041 0,0 -14.979,-0.178 -30.85,1.605 1.962,-16.94 2.675,-37.625 2.497,-58.132 -9.808,-1.07 -18.902,-1.784 -24.609,-1.961 0.179,19.971 1.249,39.23 3.21,52.426 -15.692,0.891 -30.849,0.356 -30.849,0.356 4.993,-26.034 5.349,-92.904 -1.427,-121.971 0,0 18.724,0.713 34.951,-0.891 -3.21,13.017 -4.993,32.275 -5.706,52.248 5.528,0.177 14.265,0.356 24.073,-0.535 -0.713,-18.724 -2.318,-35.843 -4.28,-48.326 0,0 17.297,1.606 34.416,2.14 z"
             style="fill:none;stroke:#ed1c24;stroke-width:30;stroke-linecap:butt;stroke-linejoin:miter;stroke-miterlimit:10;stroke-dasharray:none;stroke-opacity:1"
             id="path6987" />
        </g>
        <g
           id="g6989"
           transform="translate(985.1621,565.3848)">
          <path
             d="m 0,0 c -1.962,7.133 -11.413,9.808 -19.616,6.063 -7.133,-3.031 -10.342,-9.451 -8.559,-15.692 1.783,-6.776 10.521,-9.451 18.724,-6.776 C -0.535,-13.374 1.604,-6.241 0,0 Z m 1.783,-99.859 c -2.497,19.081 -4.101,57.954 -2.675,77.926 -12.839,-3.032 -25.321,-3.923 -25.321,-3.923 3.209,-21.933 4.636,-55.101 1.069,-77.57 13.731,2.141 26.927,3.567 26.927,3.567 z"
             style="fill:none;stroke:#ed1c24;stroke-width:30;stroke-linecap:butt;stroke-linejoin:miter;stroke-miterlimit:10;stroke-dasharray:none;stroke-opacity:1"
             id="path6991" />
        </g>
        <g
           id="g6993"
           transform="translate(1052.7432,462.4941)">
          <path
             d="m 0,0 c 10.343,46.007 4.993,76.678 -16.584,80.066 -7.489,1.07 -14.8,-0.713 -21.22,-6.241 v 7.846 c -9.272,-3.388 -21.933,-3.923 -21.933,-3.923 2.497,-24.43 2.674,-53.675 0.714,-78.996 12.125,0.356 24.964,-0.535 24.964,-0.535 -1.426,14.088 -2.853,35.843 -3.566,56.171 3.031,4.101 6.419,5.528 9.985,4.458 7.49,-2.14 9.808,-29.78 1.071,-54.744 0,0 13.909,-1.784 26.569,-4.102 z"
             style="fill:none;stroke:#ed1c24;stroke-width:30;stroke-linecap:butt;stroke-linejoin:miter;stroke-miterlimit:10;stroke-dasharray:none;stroke-opacity:1"
             id="path6995" />
        </g>
        <g
           id="g6997"
           transform="translate(1138.1572,604.9727)">
          <path
             d="m 0,0 c 0,0 -15.514,-3.924 -29.423,-4.637 2.675,-18.367 4.458,-42.975 4.993,-67.583 -5.349,6.063 -12.482,9.629 -21.042,9.273 -21.042,-1.248 -30.314,-25.857 -29.958,-43.154 0.357,-20.685 13.731,-32.989 31.028,-32.632 6.955,0.177 13.552,2.496 18.723,6.954 -0.177,-3.923 -0.534,-7.49 -1.069,-10.877 0,0 17.297,3.031 23.894,1.961 C -7.133,-104.675 -3.745,-31.206 0,0 Z m -27.64,-104.14 c -1.605,-9.093 -6.776,-13.551 -13.73,-13.909 -6.599,-0.534 -12.661,4.993 -11.948,13.196 1.07,10.343 9.451,17.654 17.297,16.227 7.133,-1.248 9.808,-7.667 8.381,-15.514 z"
             style="fill:none;stroke:#ed1c24;stroke-width:30;stroke-linecap:butt;stroke-linejoin:miter;stroke-miterlimit:10;stroke-dasharray:none;stroke-opacity:1"
             id="path6999" />
        </g>
        <g
           id="g7001"
           transform="translate(1172.9277,565.3848)">
          <path
             d="m 0,0 c -1.962,7.133 -11.413,9.808 -19.615,6.063 -7.133,-3.031 -10.343,-9.451 -8.56,-15.692 1.783,-6.776 10.521,-9.451 18.724,-6.776 C -0.535,-13.374 1.604,-6.241 0,0 Z m 1.783,-99.859 c -2.497,19.081 -4.101,57.954 -2.675,77.926 -12.839,-3.032 -25.322,-3.923 -25.322,-3.923 3.21,-21.933 4.637,-55.101 1.07,-77.57 13.731,2.141 26.927,3.567 26.927,3.567 z"
             style="fill:none;stroke:#ed1c24;stroke-width:30;stroke-linecap:butt;stroke-linejoin:miter;stroke-miterlimit:10;stroke-dasharray:none;stroke-opacity:1"
             id="path7003" />
        </g>
      </g>
    </g>
    <g
       id="g7009"
       transform="matrix(0.35277777,0,0,-0.35277777,-160.19658,281.49477)">
      <g
         id="g7011"
         clip-path="url(#clipPath7015)">
        <g
           id="g7017"
           transform="translate(825.1763,401.1045)">
          <path
             d="m 0,0 c -15.871,0.356 -29.958,-1.962 -29.958,-1.962 0,-9.808 -5.884,-16.049 -12.304,-14.622 -4.993,1.248 -12.482,8.916 -12.839,32.811 -0.357,22.468 9.273,33.345 14.801,33.524 5.706,0.356 8.916,-6.42 9.629,-19.259 13.552,3.389 28.531,3.567 28.531,3.567 0,19.615 -3.031,34.772 -17.475,41.905 -11.769,5.885 -24.965,5.172 -36.556,-1.427 -13.552,-7.489 -25.856,-26.926 -23.36,-59.915 2.318,-31.92 13.374,-45.294 26.391,-52.248 9.452,-4.993 26.036,-5.885 36.913,2.854 C -5.35,-26.214 0.535,-15.157 0,0 Z"
             style="fill:none;stroke:#ed1c24;stroke-width:30;stroke-linecap:butt;stroke-linejoin:miter;stroke-miterlimit:10;stroke-dasharray:none;stroke-opacity:1"
             id="path7019" />
        </g>
        <g
           id="g7021"
           transform="translate(890.2637,359.1992)">
          <path
             d="m 0,0 c 10.343,45.828 4.458,75.786 -17.119,79.174 -7.489,1.07 -14.979,-0.535 -21.576,-6.063 0.713,26.57 2.496,52.783 4.458,68.296 0,0 -15.336,-2.852 -29.601,-5.884 3.922,-35.307 5.527,-97.006 3.031,-135.523 0,0 13.017,1.961 24.251,1.961 -1.783,13.018 -2.496,31.028 -2.496,50.465 3.031,4.101 6.42,6.241 10.343,5.171 7.311,-2.14 10.877,-26.57 1.426,-53.318 0,0 14.088,-1.07 27.283,-4.279 z"
             style="fill:none;stroke:#ed1c24;stroke-width:30;stroke-linecap:butt;stroke-linejoin:miter;stroke-miterlimit:10;stroke-dasharray:none;stroke-opacity:1"
             id="path7023" />
        </g>
        <g
           id="g7025"
           transform="translate(961.9497,399.8555)">
          <path
             d="m 0,0 c -1.426,24.608 -15.335,40.301 -31.384,40.122 -22.29,-0.178 -34.416,-29.779 -29.245,-54.565 4.458,-21.578 21.22,-26.748 31.741,-26.036 C -8.737,-39.052 1.249,-21.398 0,0 Z m -20.685,-4.101 c 0.713,-9.451 -3.031,-18.723 -10.164,-19.437 -4.815,-0.535 -9.808,3.389 -11.234,12.839 -1.962,11.234 2.674,23.717 10.342,24.43 5.35,0.357 10.164,-6.598 11.056,-17.832 z"
             style="fill:none;stroke:#ed1c24;stroke-width:30;stroke-linecap:butt;stroke-linejoin:miter;stroke-miterlimit:10;stroke-dasharray:none;stroke-opacity:1"
             id="path7027" />
        </g>
        <g
           id="g7029"
           transform="translate(1028.2842,399.8555)">
          <path
             d="m 0,0 c -1.427,24.608 -15.336,40.301 -31.385,40.122 -22.29,-0.178 -34.415,-29.779 -29.244,-54.565 4.458,-21.578 21.22,-26.748 31.741,-26.036 C -8.738,-39.052 1.248,-21.398 0,0 Z m -20.686,-4.101 c 0.714,-9.451 -3.031,-18.723 -10.164,-19.437 -4.814,-0.535 -9.807,3.389 -11.234,12.839 -1.961,11.234 2.675,23.717 10.343,24.43 5.349,0.357 10.164,-6.598 11.055,-17.832 z"
             style="fill:none;stroke:#ed1c24;stroke-width:30;stroke-linecap:butt;stroke-linejoin:miter;stroke-miterlimit:10;stroke-dasharray:none;stroke-opacity:1"
             id="path7031" />
        </g>
        <g
           id="g7033"
           transform="translate(1093.0127,380.2402)">
          <path
             d="m 0,0 c 0.535,23.004 -34.416,19.973 -36.556,34.951 -0.713,5.528 8.025,6.063 13.374,-7.846 0,0 10.522,5.528 23.004,6.776 -4.28,13.731 -14.088,27.64 -34.238,26.748 -18.724,-0.892 -24.607,-13.374 -24.073,-22.824 0.535,-11.77 9.807,-18.368 20.329,-22.826 11.591,-4.993 13.017,-9.629 10.877,-12.304 -2.675,-3.209 -13.552,-0.178 -19.615,12.126 0,0 -9.273,-8.56 -16.049,-18.545 9.451,-12.661 20.685,-16.941 33.346,-17.119 C -13.552,-21.041 -0.356,-13.73 0,0 Z"
             style="fill:none;stroke:#ed1c24;stroke-width:30;stroke-linecap:butt;stroke-linejoin:miter;stroke-miterlimit:10;stroke-dasharray:none;stroke-opacity:1"
             id="path7035" />
        </g>
        <g
           id="g7037"
           transform="translate(1167.1943,396.4678)">
          <path
             d="m 0,0 c -15.335,-1.07 -31.562,-3.21 -31.562,-3.21 1.248,-6.776 0.178,-14.266 -5.35,-14.801 -5.885,-0.534 -9.986,8.382 -10.878,19.615 C -27.64,5.35 -4.102,5.706 -4.102,5.706 -5.171,28.71 -14.979,46.898 -38.695,46.542 -63.481,46.185 -74.359,18.724 -68.118,-6.062 -62.412,-28.71 -45.472,-37.091 -30.671,-36.021 -16.405,-35.129 -0.178,-25.856 0,0 Z m -28.888,15.692 c -5.884,-1.07 -13.73,-1.605 -18.723,-1.783 1.248,8.025 4.279,13.731 8.559,14.444 5.528,0.713 9.094,-4.993 10.164,-12.661 z"
             style="fill:none;stroke:#ed1c24;stroke-width:30;stroke-linecap:butt;stroke-linejoin:miter;stroke-miterlimit:10;stroke-dasharray:none;stroke-opacity:1"
             id="path7039" />
        </g>
      </g>
    </g>
    <text
       style="font-variant:normal;font-weight:500;font-stretch:normal;font-size:62.9073px;font-family:CoopHeavy;-inkscape-font-specification:CoopHeavy;writing-mode:lr-tb;fill:#ffffff;fill-opacity:1;fill-rule:nonzero;stroke:none;stroke-width:0.352778"
       id="text7045"
       x="145.01027"
       y="116.89018"><tspan
         x="145.01027 176.27528 189.0455 213.76814 242.51685"
         y="116.89018"
         id="tspan7041"
         style="stroke-width:0.352778">Hindi</tspan><tspan
         x="101.66702 130.16411 156.39653 179.7981 202.63351 225.97218"
         y="153.2507"
         id="tspan7043"
         style="stroke-width:0.352778">Choose</tspan></text>
  </g>
</svg>
