<svg id="खत" xmlns="http://www.w3.org/2000/svg" viewBox="0 0 150 160"><defs><style>.cls-1{fill:#fff;}.cls-2{fill:#fcd042;}.cls-3{fill:#edb836;}.cls-4{fill:#c48c2b;}.cls-5{fill:#ffe14a;}</style></defs><path class="cls-1" d="M134.58,39.2h-.34a5.8,5.8,0,0,0-5.6-4H21.36a5.8,5.8,0,0,0-5.6,4H15.4v81.6h.35a5.8,5.8,0,0,0,5.6,4H128.64a5.8,5.8,0,0,0,5.6-4h.36V41.2Z"/><g id="Mail_Icon" data-name="Mail Icon"><rect class="cls-2" x="17.4" y="41.2" width="115.19" height="77.6"/><path class="cls-3" d="M131.14,115.78,83.35,76.56a13.17,13.17,0,0,0-16.7,0L18.86,115.78a4,4,0,0,0,2.5,7H128.64A4,4,0,0,0,131.14,115.78Z"/><path class="cls-4" d="M18.73,44.11l47.43,43a13.18,13.18,0,0,0,17.68,0l47.47-43Z"/><path class="cls-5" d="M131.14,44.22,83.35,83.44a13.17,13.17,0,0,1-16.7,0L18.86,44.22a4,4,0,0,1,2.5-7H128.64A4,4,0,0,1,131.14,44.22Z"/></g></svg>