<svg id="क्षत्रिय" xmlns="http://www.w3.org/2000/svg" viewBox="0 0 150 160"><defs><style>.cls-1,.cls-2{fill:#fff;}.cls-2{stroke:#fff;stroke-miterlimit:10;stroke-width:5px;}.cls-3{fill:#7b2b57;}.cls-4{fill:#5e1a3c;}.cls-5{fill:#bc7d53;}.cls-6{fill:#ad6a41;}.cls-7{fill:#efd5bf;}.cls-8{fill:#eacbb2;}.cls-9{fill:#e5a489;}.cls-10{fill:#de9174;}.cls-11{fill:#88261b;}.cls-12{fill:#40140f;}.cls-13{fill:#191919;}.cls-14{fill:#8a221b;}.cls-15{fill:#9e3321;}.cls-16{fill:#b3b3b3;}.cls-17{fill:#8c281c;}.cls-18{fill:#751b14;}.cls-19{fill:#979797;}.cls-20{fill:#fafbfb;}.cls-21{fill:#441210;}.cls-22{fill:#781f15;}.cls-23{fill:#331110;}.cls-24{fill:#2a0f0e;}.cls-25{fill:#e0ceb8;}.cls-26{fill:#4f1811;}.cls-27{fill:#cd592a;}.cls-28{fill:#c04827;}.cls-29{fill:#de6e3a;}.cls-30{fill:#d65b2c;}.cls-31{fill:#b23925;}.cls-32{fill:#c74427;}.cls-33{fill:#86241a;}.cls-34{fill:#d35529;}.cls-35{fill:#711c12;}.cls-36{fill:#e9c8ad;}.cls-37{fill:#ffe8d5;}.cls-38{fill:#fee1c7;}.cls-39{fill:#b2938e;}.cls-40{fill:#fed9ba;}.cls-41{fill:#721c13;}.cls-42{fill:#a2817b;}.cls-43{fill:#919191;}.cls-44{fill:#525352;}.cls-45{fill:#503c2c;}.cls-46{fill:#c0b0b0;}.cls-47{fill:#a99898;}.cls-48{fill:#f1b21d;}.cls-49{fill:#2f2f2f;}.cls-50{fill:#37281c;}.cls-51{fill:#eb9c22;}.cls-52{fill:#3e2e21;}.cls-53{fill:#eda321;}.cls-54{fill:#f6c333;}.cls-55{fill:#f2af20;}.cls-56{fill:#ba4026;}.cls-57{fill:#6f1911;}.cls-58{fill:#a93224;}.cls-59{fill:#822119;}.cls-60{fill:#8c8c8c;}.cls-61{fill:#e1977a;}.cls-62{fill:#db8b6d;}.cls-63{fill:#a3837e;}.cls-64{fill:#8b6a65;}.cls-65{fill:#9c7b75;}.cls-66{fill:#999;}.cls-67{fill:#45112a;}.cls-68{fill:#faa930;}.cls-69{fill:#f78f21;}.cls-70{fill:#9a7872;}.cls-71{fill:#fee0c5;}.cls-72{fill:#cc2829;}.cls-73{fill:#f06a22;}.cls-74{fill:#b42025;}.cls-75{fill:#e24d4d;}.cls-76{fill:#a39481;}.cls-77{fill:#f9a71a;}.cls-78{fill:#8c7b67;}.cls-79{fill:#f7911e;}.cls-80{fill:#fed6b6;}.cls-81{fill:#84615b;}.cls-82{fill:#e1b596;}.cls-83{fill:#fcc8a1;}.cls-84{fill:#f37821;}.cls-85{fill:#f6881f;}.cls-86{fill:#f47521;}.cls-87{fill:#e2ba9b;}.cls-88{fill:#8a6862;}.cls-89{fill:#fee3ca;}.cls-90{fill:#92816e;}.cls-91{fill:#786855;}.cls-92{fill:#f7961e;}.cls-93{fill:#71504a;}.cls-94{fill:#f47d20;}.cls-95{fill:#6e2450;}.cls-96{fill:#511637;}.cls-97{fill:#351323;}.cls-98{fill:#bdab94;}.cls-99{fill:#efddca;}.cls-100{fill:#f9f1e8;}.cls-101{fill:#d9896a;}.cls-102{fill:#c47c62;}.cls-103{fill:#1a1723;}.cls-104{fill:#231b2d;}.cls-105{fill:#322a3f;}.cls-106{fill:#d33d3c;}.cls-107{fill:#f17322;}.cls-108{fill:#c64342;}.cls-109{fill:#b22b2c;}.cls-110{fill:#e25656;}.cls-111{fill:#f1b9a6;}</style></defs><path class="cls-1" d="M38,19a10.91,10.91,0,0,1,3.49-1.07c2-.09,3.73,0,4.23.48-.86.2-1.89,1.83-3.39,2.95a13.91,13.91,0,0,0-2.81,3.18C39.23,22.66,38.32,20.88,38,19Z"/><path class="cls-2" d="M141.31,154.27c-1.73-3.44-3-4-5.73-5.73-14.24-2.21-.64-16-5.71-26.13.13-1.64-15.24-1.75-13.16-7C121.89,101.71,98,86.7,113,82.21c-5,1.52-5.3-3.75-.78-.45.38-.24,3.63,8.11,7.39,7.89h-.07c.82,0,1.24-.77,1.23-1.5,0,0,0,.09,0,.13s0-.08,0-.13h0c.91-3,5.57,5,5.54-1.15,2.16-.42,2.87-2.84,4.49-4.69.28-.41.58-1,.17-1.45-3.84-1.35-5.72-7.14-8-11.17-2-4.08-3.8-9.46.54-13.69-2.92,0-10.21,3.89-5.6-3.36.12,0-.1.05-.18.05h.19c-3,.14-5.32,2.52-6.66,5,.08-.15.17-.29.25-.43-17-2.58-17,31.67-21.6,22.94-14.5-3.94-7.12-13.32-10.64-24.15,3.75-5,3.6-9.16-1.37-14.25-4.43.22-.42-13.45-3-5.68,0-.58.31-3,.28-2.91s-.61,3-1.07.31v.11s.58,3-.78.61c-.11-.18.62,3.85.6,3.86C69.64,35.94,56.42,35.5,54.85,45c0,0-1,12.49,5.81,8.62,2.89,14.26-11.53,15.72-21.6,7.94.14.22,0,0-.14-.21l.13.2a2.43,2.43,0,0,0-.14-.22h0l-.22-.3.15.2L38.67,61h0l-.26-.33.15.19-.2-.24,0,0c-.1-.11-.2-.23-.31-.34l.15.17L38,60.27l0,0-.33-.3.14.12-.23-.18.07.05a2.66,2.66,0,0,0-.64-.36c-3.95.25,2-1.72,2.22-3.61-10.45.55-5.67-30.76.25-35.2-16.87,12.67-3.86,35-12,36.51,2,1.79.95,9.21,3.78,8.08.73.58,1.21,1.8,2.78,1.76l0,0a2.87,2.87,0,0,0,1.19-.49c1.11-.6.3-1.54,1-1.19,6.16,4.44,14.86,10.09,23.3,9.2,5.87,8.45,9.38,16.43-3.26,20.55-13.51,2.27-27.73-5.44-34.84,9.65C16.28,112,8.69,106.5,8.69,106.5c2,16.41,18,8.15,18,8.15C22.27,119.44,13,117.07,13,117.07,34.8,126.9,31.77,102,36.87,100.29c11.55-3.2-.18,25.64-4.27,27.15.52,4.67-1.29,10.87-1.84,15.32,3.6,6.15-5,16.44,8.47,11.51-1.88-4-5.24-10.56-3.23-17.5v0c.84-4.36,2.22-9.11,2.23-9.13a34.92,34.92,0,0,0,13.47-5.05c-1.75,4.91-6.75,9-6.75,9,.46,10.28-1.93,14.49.31,22,4.07,1.74,8.89-1.1,3.46-4.17-8.72-14.78,8.93-23,19.28-28.16a77.13,77.13,0,0,0,27.09,5.22H95c10.15,1.41,19.92,11.27,28.27,17.71-3.68,2.19-7.52.57-6.46,6.86,19.44-6,10.64,5.86,21.21,4.94l-.23,0c1.14-.14,2.49-.19,3.32-1.07l0,0a1,1,0,0,0,.12-.19,1.09,1.09,0,0,1-.08.15,1.09,1.09,0,0,0,.18-.45,1.17,1.17,0,0,1-.07.25A1,1,0,0,0,141.31,154.27Zm-64-72v0Zm-12.72.29s-.06-.12-.07-.13ZM80.09,59.61a.4.4,0,0,1,0,.11L79.94,59A1.38,1.38,0,0,1,80.09,59.61ZM126,130.75c-.2,19.66-4.71,2.27-10.44.17-.12-1-8.36-7-4.59-7.64C116.12,125,126,123,126,130.75Zm-6.27-41.12.13,0Zm.27-.08.11,0Zm.23-.13.09-.08Zm.19-.2.07-.1A.86.86,0,0,1,120.43,89.22Zm.14-.25.06-.13Zm.13-.45a.7.7,0,0,1,0,.14A.7.7,0,0,0,120.7,88.52Zm-2.81-35.87v0Zm-.27.05-.22,0Zm-.33,0-.22,0Zm-.36.07-.24,0Zm-.4.1-.28.08Zm-.44.14-.38.15Zm-.47.19c-.17.07-.33.16-.5.25C115.29,53.4,115.45,53.31,115.62,53.24Zm-.66.35-.37.22Zm-.57.36-.34.26Zm-.56.43-.35.31Zm-.56.51c-.13.13-.25.27-.38.41C113,55.16,113.14,55,113.27,54.89Zm-.56.6c-.18.22-.37.45-.55.7C112.34,55.94,112.53,55.71,112.71,55.49ZM111.63,57c.15-.25.3-.48.46-.7C111.93,56.52,111.78,56.75,111.63,57ZM92.19,83.88c-4.82,13.11-3.93,4.06-8.37,3.91-3.35-2.47-6.59,1.14-6.47-5.57l0-.2,0,.2c-.09-7.3,3.46,2.46,8,.73C87.64,86.54,89.88,83.41,92.19,83.88Zm-6.48-5h0Zm.15-.2.1-.12ZM32.15,61.25c-.19,0-.15,0,0-.1Zm-2-2c.21.06.42.13.66.18-1.67,1.26.46,3.22,0,4.72C29.51,62.88,29.59,60.69,30.19,59.26Zm1.26,5.44a.66.66,0,0,0-.12.17A.66.66,0,0,1,31.45,64.7Zm6-4.88-.23-.13Zm-6.18,5.26a.6.6,0,0,1,.06-.19A.7.7,0,0,0,31.27,65.08ZM34.67,67l.12,0Zm1.42-1.55s0,0,0,0S36.1,65.47,36.09,65.46Zm.13.05h0ZM60.69,94.89l-.54,0A2.76,2.76,0,0,1,60.69,94.89ZM38.9,153.43l-.06-.12Zm.3.59c0-.09-.11-.21-.19-.37C39.09,153.81,39.16,153.93,39.2,154Zm56.94-27.58h0Zm42,29.51.48,0Zm.54-.06.41-.07Zm.55-.1.3-.07Zm.45-.1.3-.09Zm.4-.13a2.83,2.83,0,0,0,.35-.14A2.83,2.83,0,0,1,140.12,155.56Zm.42-.18.23-.14Zm.32-.2L141,155Z"/><path class="cls-2" d="M117.28,138.81Z"/><path class="cls-2" d="M86.67,90.77v0Z"/><path class="cls-2" d="M38,60.3l0,0Z"/><path class="cls-2" d="M37.69,60h0Z"/><path class="cls-2" d="M38.91,61.36h0Z"/><path class="cls-2" d="M38.38,60.67l0,0Z"/><path class="cls-2" d="M38.67,61l0,0Z"/><path class="cls-2" d="M77.39,82v0A.08.08,0,0,0,77.39,82Z"/><path class="cls-3" d="M79,55.25s3.52,10.41.2,14.38-18.39,1.8-20-.43,1-12.47,3.15-14.26S79,55.25,79,55.25"/><path class="cls-4" d="M78.67,61.13a5.25,5.25,0,0,1-3.59,2,18.22,18.22,0,0,1-2.38.28v.15l1.21.75h0l.36.23h0l.35.25.15.1.8.61h0l.34.28a12.66,12.66,0,0,1,1.59,1.6l.09.27.89,1.13c1.3-1.82,1.26-4.88.86-7.56l-.17,0a1.34,1.34,0,0,1-.51-.11m.51-1a3.67,3.67,0,0,1-.29.6l.24,0h.15c0-.21-.07-.42-.1-.62M62.54,58.12a1.28,1.28,0,0,0-1,1.35,1.12,1.12,0,1,0,2.18,0,1.5,1.5,0,0,0-.41-1.06,1.37,1.37,0,0,1-.8-.29m-.6-.83a25.8,25.8,0,0,0-2,6.87,13.14,13.14,0,0,1,4.19-1.51h0l.68-.08.42,0h.07l1.23-.37a5.33,5.33,0,0,1-2.38-3.45c0-.14-.06-.29-.08-.44a1.53,1.53,0,0,1-.26.08,2.06,2.06,0,0,1,.31,1.1,1.47,1.47,0,1,1-2.88,0,1.8,1.8,0,0,1,1-1.7,1.87,1.87,0,0,1-.27-.48"/><path class="cls-5" d="M85.39,83s1.93,2.26,3.42,2,1.34-2.08,1.34-2.08a18.7,18.7,0,0,0-1.62-1.56c-.12,0-4-.38-4-.38L84,82.1l1.42.85"/><path class="cls-6" d="M84.85,81.94a2.5,2.5,0,0,0,.54,1h0s1.72,2,3.18,2l.24,0a1.54,1.54,0,0,0,1.3-1.34A3.37,3.37,0,0,1,89,82.42a5,5,0,0,1-1.86.38,3.27,3.27,0,0,1-2.3-.86"/><path class="cls-7" d="M85.39,83a7.48,7.48,0,0,1-2.17-.1,5.78,5.78,0,0,1-2.73-1.29,40.22,40.22,0,0,1-4.29-4.77l.45-10.25s1.4,1.58,2.49,3.13a11.88,11.88,0,0,1,1,1.76c.51,1.21,1.09,2.93,1.6,4.1a5,5,0,0,0,.64,1.17,2.22,2.22,0,0,0,.7.45,22,22,0,0,0,3.16,1.07s-2.69,2.67-.9,4.73"/><path class="cls-8" d="M77.6,67.65c.3,1,1.24,4.48.21,7.14a37.66,37.66,0,0,1-.07,3.9,30,30,0,0,0,2.75,2.87,5.78,5.78,0,0,0,2.73,1.29,8.07,8.07,0,0,0,1.49.14,4.94,4.94,0,0,0,.68,0h0a2.5,2.5,0,0,1-.55-1h0a2.38,2.38,0,0,1,0-1,7.33,7.33,0,0,1-2.58-1.42A11.39,11.39,0,0,1,80,77.17a6.72,6.72,0,0,1-.88-1.78,10.9,10.9,0,0,1-.44-2,19.88,19.88,0,0,1,0-4.31c-.39-.53-.8-1-1.14-1.47"/><path class="cls-9" d="M90.9,83.73l0,0h0l0,0H90.7A2.51,2.51,0,0,1,89,82.42s-2.45,1.14-4.18-.5h0c-.34-1.36.65-2.76,1.17-3.38l.06,0,.21.08.17.06.18.07a24.52,24.52,0,0,1,3.12,1.38l.11.08a1.74,1.74,0,0,1,.32.34,4.7,4.7,0,0,1,.73,3.16"/><path class="cls-10" d="M86,78.54A5.18,5.18,0,0,0,84.79,81a2.38,2.38,0,0,0,0,1h0a3.26,3.26,0,0,0,2.32.88A5,5,0,0,0,89,82.42a2.59,2.59,0,0,0,1.67,1.4h.13l0,0h0a3.81,3.81,0,0,1-1.36-2.2c0-.3.33-.69.65-1a1.74,1.74,0,0,0-.32-.34h0a3,3,0,0,1-2.34,1.1c-.89,0-1.62-.38-1.7-.85a2.47,2.47,0,0,1,.81-1.71l-.18-.07-.17-.06-.21-.08-.06,0"/><path class="cls-7" d="M36.2,65.31l.3.25c.41.34,1.24,1,2.4,1.84,4.23,3,13.18,8.43,21.29,7.24,12.32-1.81-2.44-8.78-2.44-8.78l-1,.14a34.21,34.21,0,0,1-6.44.33h0c-1.57-.13-4.91-1.51-7.61-2.72-1.62-.73-3-1.41-3.69-1.74l-.45-.23s-2.32,1.58-2.37,3.67"/><path class="cls-8" d="M37.22,63.47a7.45,7.45,0,0,0-1,1.89l.25.2c.41.34,1.24,1,2.4,1.84,3.82,2.73,11.5,7.41,18.93,7.41a15.81,15.81,0,0,0,1.69-.09.42.42,0,0,1,0-.07h0s0-.2,0-.56a15.91,15.91,0,0,0-.66-4.35l-.41,0a12.16,12.16,0,0,1-4.68.77,20.82,20.82,0,0,1-6.16-1,28,28,0,0,1-7.51-3.75,30.4,30.4,0,0,1-2.76-2.16l-.13-.12"/><path class="cls-11" d="M123.45,56c0,.17-4.07,6.79-4.11,7s-.55-.12-1.23-.5h0c-1.36-.76-3.27-2.26-2.62-3.72,1-2.19,8-2.77,8-2.77"/><path class="cls-12" d="M123.45,56c0,.17-4.07,6.79-4.11,7s-.55-.12-1.23-.5h0a1.91,1.91,0,0,1,0-.43c.11-2.29,5.38-6.06,5.38-6.06Z"/><path class="cls-13" d="M111,58.07s-6-1-9.59,2.75S91,80.87,92.35,86.16,111,58.07,111,58.07"/><path class="cls-14" d="M131.24,129.28c-2.48,7.69-2,13.1-3.9,16.62a9.33,9.33,0,0,1-5.47,4.26l-.31.08-.11,0-4.62.76c-.06-5.57.85-5.56,2.59-5.55.27,0,.56,0,.87,0l.59-.06h.05a4.18,4.18,0,0,0,3.54-4.5,4.5,4.5,0,0,1,1.25-3.79c.72-.6,1.65-4.15.29-6.34a8.1,8.1,0,0,1-.91-4.94L107,122.56s1.25-12.61,5.3-7.79,15.7,6.14,17.56,7.64,1.37,6.87,1.37,6.87"/><path class="cls-14" d="M51.35,153.45s-5.69,1.18-6.09.12a14.32,14.32,0,0,1-.27-3.43,7.93,7.93,0,0,0-.12-1.88c-.25-.41-2-.5-1.27-2.41s2.16-9.09,1.35-14.25c0,0,6.37-5.15,7.25-10.88s1.88-15.93,7-13.26S69,119.92,69,119.92s-14.83,10.13-19.39,11.66c0,0-3.87,9.65-3,13.51.59,2.73,1.31,3.7,2.13,4.31.34.26.7.45,1.07.68,1.25.78,1.56,3.37,1.56,3.37"/><path class="cls-13" d="M44.69,103a6.75,6.75,0,0,0-7.82-2.69C31.77,102,34.8,126.9,13,117.07c0,0,9.32,2.37,13.76-2.42,0,0-16,8.26-18-8.15,0,0,7.59,5.54,12.73-1.59S36,87.83,47.24,99.2,44.69,103,44.69,103"/><path class="cls-15" d="M141.31,154.42c-.12,1.73-4.78,1.66-6.41,1.62s-2.36-.89-2.65-2.66a2.11,2.11,0,0,0-.09-.38,5.67,5.67,0,0,0-2.17-2.64c-6.49-.5-6-4.38-6.38-5.66s-6.23-5.91-6.23-5.91c-3.51.09-5.09-3.63-5.09-3.63l-14.13-8.84c-15.33,1.46-40.59-8.85-40.59-8.85-7.44,8.79-19.34,10.16-19.34,10.16S35.3,137.73,35.36,142s2.17,8.42,2.19,8.66a2,2,0,0,0,.15.38c.42.92,1.58,3.17,1.58,3.17-2.17,1.63-7.19,1-7.19,1a10.29,10.29,0,0,1-1.43-3.51,1.05,1.05,0,0,1,0-.31c.14-1.32,1.77-3.56,1.85-4.79s-2.74-2.82-1.51-6.1,1.77-10.34,1.59-12.77,2.46-2.06,5.34-6.19,1.47-10.08,3.5-18,8.89-7.84,14.82-8.28,26.37-2.43,29.32-3.38a15.2,15.2,0,0,0,5-2.73c1.57-8.61,13.17-26.29,15-28.46a5.58,5.58,0,0,1,1.24-1.09,8,8,0,0,1,1.48-.77,12,12,0,0,1,2.8-.76c2.89-5.72,7-5.38,7-5.38l-.09.13a8.92,8.92,0,0,0-1.67,6.3c0,.18,0,.27,0,.27l.54.38c.49.34.92.7,1.32,1,3.83,3.38,3.68,6.74,4.7,8.89.3.63.78,1.55,1.32,2.55.34.65.71,1.32,1.08,2,1.27,2.31,2.51,4.49,2.51,4.49.67,1.31,3.13,1.56,3.31,2.48s-1.26,2.1-1.26,2.1c-1.44,3.38-3.59,3.7-3.59,3.7s.28,1.61-.87,2.24-3.08-1.84-3.08-1.84l-1.61.28c.23,2.37-1.59,2.78-4.39.21A11.14,11.14,0,0,1,113,82.21l-.78-.44-2.81-1.6c-.12.28-.23.56-.34.86-1.57,4.46-.61,10.19,1.37,13.11,2.11,3.11,6.13,7.8,6.72,16.9s-7.61,13.14-7.61,13.14l6,6.74c3.45.23,4.09,4.44,4.73,5.45s11.73,11.79,14.19,11.94a5.35,5.35,0,0,1,3.83,2.45l0,.05s3.08,1.89,3,3.61"/><path class="cls-16" d="M126.28,87h0m1.31-.63a3.38,3.38,0,0,1-1.31.63,3.43,3.43,0,0,0,1.31-.62h0"/><path class="cls-17" d="M124.61,79.27a2.24,2.24,0,0,0-1.75.71c-.27.35-.15.7.55.7a2.06,2.06,0,0,0,.34,0,5.73,5.73,0,0,1,.81-.06c1.77,0,2.86.87,2,2.51a1.14,1.14,0,0,1-1.08.62,4.06,4.06,0,0,1-1.13-.23,3.48,3.48,0,0,0-.9-.23c-.3,0-.41.22-.16,1a5.37,5.37,0,0,0,3.06,3.1,2.47,2.47,0,0,0,0-.34h0a3.38,3.38,0,0,0,1.31-.63,4.28,4.28,0,0,1,.11-2.58c.67-2.5.36-3.5-2-4.35a3.13,3.13,0,0,0-1-.18"/><path class="cls-16" d="M131.13,81.19h0m0,0h0m0,0h0m0,0h0m0,0h0m0,0h0m0,0h0m0,0h0m0,0h0m0,0h0M128,78.94h0c.79,1.09,2.89,1.38,3.15,2.19-.26-.81-2.36-1.1-3.15-2.2"/><path class="cls-17" d="M128,79V79a5.77,5.77,0,0,1,1.91,4.27s1.27-1.06,1.28-1.94a.88.88,0,0,0,0-.16h0v0h0c-.26-.81-2.36-1.1-3.15-2.19"/><path class="cls-16" d="M111.05,58l0,0,0,0m0,0,0,0,0,0m0-.06,0,0,0,0m0-.05,0,0,0,0m0-.06,0,0,0,0m0-.06,0,0,0,0m6.67-5.06c-.84,0-4.16.39-6.66,5,2.5-4.65,5.82-5,6.66-5m0,0,0,.16h0m.07-.16h-.07"/><path class="cls-16" d="M111,123.28c-.58.4-1,.67-1.27.8h0a13.66,13.66,0,0,0,1.27-.8h0m5.4-6.84a11.2,11.2,0,0,1-.44,1.06h0a11.2,11.2,0,0,0,.44-1.06m3.08-26.82h0m5.46-.32h0m.49,0a.87.87,0,0,1-.42.1.87.87,0,0,0,.42-.1m-4.69-1.53c.11,1.24-.34,1.94-1.21,1.94.87,0,1.32-.7,1.21-1.94m0,0h0v0M109,81c-.05.14-.09.28-.14.43h0c0-.14.08-.28.13-.43"/><path class="cls-18" d="M115.94,117.5a15.25,15.25,0,0,1-5,5.78h0a15.25,15.25,0,0,0,5-5.78h0"/><path class="cls-16" d="M117.21,138.81h0m.15,0h0M38.23,127.63h0m56.8-1.2h0m3.13-.11c-1,.1-2.06.14-3.14.14,1.08,0,2.13,0,3.14-.14"/><path class="cls-19" d="M136,156h0m-1.11,0h0m-100.63-.68h0m107-.89c-.16,1.34-3.11,1.57-5.13,1.58,2,0,5-.24,5.13-1.58m0-.05v0M39.2,154.24c-1.25.88-3.35,1.07-5,1.07,1.6,0,3.7-.19,5-1.07m0,0,0,0,0,0m0,0,0,0,0,0m-.6-1.2c.33.66.61,1.2.61,1.2h0s-.28-.54-.61-1.2"/><path class="cls-17" d="M76.39,122.29c0,.47,0,.86,0,1.16v.18l2.19.54h0l0,0h0l-.08-.12c-.13-.25-.24-.45-.35-.62a1.78,1.78,0,0,0-1.09-.82l-.35-.13-.34-.14m7.26-8.3c-.35,1.18-.71,2.3-1,3.27,2.93,3.11,4.89,6,4.77,6.61,0,.18-.39.27-1,.27a14.56,14.56,0,0,1-1.75-.14,1.85,1.85,0,0,1-.92,1.23A62.13,62.13,0,0,0,95,126.43h0c1.09,0,2.15,0,3.16-.14h0l14.18,8.87s1.55,3.65,5,3.65h.13s5.79,4.62,6.21,5.89-.11,5.13,6.36,5.63a5.69,5.69,0,0,1,2.16,2.63c0,.12.07.25.09.38.29,1.77,1,2.61,2.64,2.65h0l1,0h.28c2,0,5-.25,5.13-1.59h0v0h0v-.11c0-1.69-3-3.51-3-3.51l0,0h0a5.79,5.79,0,0,0-2.81-2.24,28.27,28.27,0,0,1,2.9,3.53c-.36.25-3.79,1.7-3.79,1.7s-2.34-2.93-3.24-4-2.62-.9-4.25-1.54-1.78-3.46-2.56-4.44-4.88-6.45-7.44-6.47-3.58-2.73-4.43-3.93-4.71-3.35-9.5-6.37S92,118.83,86.49,116.08a8.07,8.07,0,0,1-2.84-2.1m-10.53-4.54-.12.16.09.05,0-.21m5.07-1-.16.08a4.12,4.12,0,0,1-1.31.37c0,.2-.07.41-.1.63l0,.12h0c-.08.61-.15,1.3-.19,2,.41.3.82.61,1.23.94l.55-4.19M60.74,94.94l-.62.06a1.85,1.85,0,0,0-.42.11.45.45,0,0,1,0-.08c-1.4.13-2.58.22-3.45.29-3.7.27-7.77.35-10.8,2.3a8.59,8.59,0,0,0-3,3.29,11.88,11.88,0,0,0-1,2.69c-2,7.91-.62,13.85-3.5,18s-5.35,3.77-5.35,6a1.77,1.77,0,0,0,0,.23c0,.31,0,.68,0,1.12,0,3-.55,8.79-1.62,11.66a4.62,4.62,0,0,0-.31,1.62c0,2.18,1.82,3.42,1.82,4.42v0c-.08,1.23-1.71,3.48-1.85,4.8a.78.78,0,0,0,0,.16c0,.05,0,.09,0,.14a10.29,10.29,0,0,0,1.43,3.51,20.33,20.33,0,0,0,2.15.11h0c1.6,0,3.7-.19,5-1.07h0l0,0h0l0,0h0s-.28-.53-.61-1.19l-.43-.84L36,153.66a11.47,11.47,0,0,1-2.62-9c.56-5.81,0-12.19,1.08-15s6.25-6.67,7.11-9.88c.75-2.86,4.79-20.3,11.59-20.3a5,5,0,0,1,2.78.94s4.07,8,1.66,13.82-9.78,9.1-15.41,11-5.72,3.58-6,6.76a44.58,44.58,0,0,0-.15,4.73c.84-4.36,2.22-9.11,2.23-9.13h0s11.9-1.36,19.34-10.16c0,0,6.64,2.71,15.18,5.16-.09-.53-.15-1.1-.2-1.68a30.59,30.59,0,0,1-7.3-3.47c-5.53-4.06-4.63-14-4.63-14,0-1.27.18-1.78.59-1.78,1,0,3.42,3.23,7.37,5.72l.8-1.59a16.49,16.49,0,0,1-4.52-6.91c-1.1-3.39-3-4-4.12-4m46-35.34h0a5.58,5.58,0,0,0-1.24,1.09c-1.8,2.17-13.4,19.85-15,28.46a15.25,15.25,0,0,1-3.87,2.34v.12a7,7,0,0,0-2.57,2.86,11.2,11.2,0,0,0-1.18,4,1.1,1.1,0,0,1,0,.18,25.1,25.1,0,0,1,1.81,3.09c1.47-6,3.58-8.65,7.08-8.65h.43c4,.25,10,6.57,14.18,10.62s-.21,12-.21,12c-2.86,3.37,2.58,7.59,2.58,7.59l1,.83c.24-.13.69-.4,1.27-.8a15.25,15.25,0,0,0,5-5.78,11.2,11.2,0,0,0,.44-1.06,13.93,13.93,0,0,0,.41-1.34c-2.12-.09-3.93-2.76-4.47-6.24-.79-5-4.19-8-7-13.78-2.71-5.56-2.18-14-2.15-14.59-2,8.54,1.57,16.84,1.77,17.23q0,.06-.09.06c-.71,0-5.16-1.82-6.92-8.77-1.66-6.55,4-18.6,6-18.6.36,0,.6.37.67,1.2.39,4.37,3.13,8.32,4.31,9.85,0-.15.09-.29.14-.43h0c.11-.3.22-.58.34-.86l2.81,1.6.78.44a11.14,11.14,0,0,0,3.36,5.69c1.3,1.2,2.4,1.75,3.17,1.72h0c.87,0,1.32-.66,1.21-1.9h0v0h0l1.61-.28s1.5,1.93,2.65,1.89h0v0a.87.87,0,0,0,.42-.1h0a2,2,0,0,0,.28-.2c-2.54-.21-3.92-4.23-4.45-6.14a10.59,10.59,0,0,0-3.77-5.7h0a11.27,11.27,0,0,0-3.62,3.22,6.87,6.87,0,0,0-.88,1.78l-.78-.44h0a12.08,12.08,0,0,1,2.31-5l-1.09-2c-3.3-1.55-4.25-3.89-4.15-6.36v0h0v0c-1.17,2.83-1.46,6.62.12,11.7h0v0h0c-.12.28-.23.56-.34.86a18.23,18.23,0,0,1-2.52-8.68,11.49,11.49,0,0,1,1.23-5.26,28.27,28.27,0,0,1-1-7.49m11.11-7h0l0,.16h0c-.84-.1-4.16.27-6.66,4.92v0l0,0h0l0,0h0l0,0v0l0,0v0l0,0h0l0,0v0h0a11.73,11.73,0,0,0-2.8.76h0c0,.23,0,.45,0,.68a32.52,32.52,0,0,0,.6,5.89h0l.22-.29a13.51,13.51,0,0,1,1.33-1.43c.06-.15.11-.31.17-.45a6.57,6.57,0,0,1,5.77-4.11,7.74,7.74,0,0,1-.06-1A8.88,8.88,0,0,1,118,52.82l.09-.13h0a.39.39,0,0,1-.14,0h-.07"/><path class="cls-20" d="M122.33,87.41l-1.53.27h-.08c-3.55-.84-3.92-5.56-4-6.35v-.11c3.12-2,5.57,6.18,5.57,6.18Z"/><path class="cls-21" d="M125.31,74.24c-2.26.49-10.63,2.64-12.34,8l-.78-.44c.54-2.53,2.83-8.94,12-9.52.34.65.71,1.32,1.08,2"/><path class="cls-21" d="M109.38,80.17c-.12.28-.23.56-.34.86-1.12-1.92-4.24-8.19-1.29-13.94a11.51,11.51,0,0,1,1.06-1.69h0a18,18,0,0,1,8.08-5.63c.49.34.92.7,1.32,1-3.46,1.07-13.17,5.39-8.83,19.36"/><path class="cls-21" d="M109,66.47l-.61,1.68a2.45,2.45,0,0,1-.67-1.06,28.27,28.27,0,0,1-1-7.49,8,8,0,0,1,1.48-.77,31.63,31.63,0,0,0,.59,6.57h0c.12.67.22,1.07.22,1.07"/><polyline class="cls-21" points="109.3 67.24 114.85 77.45 116.12 76.21 110.14 65.27 109.3 67.24"/><path class="cls-22" d="M114.5,76.82a12.08,12.08,0,0,0-2.31,5h0a12.08,12.08,0,0,1,2.31-5h0"/><path class="cls-22" d="M117.47,77.21a11.27,11.27,0,0,0-3.62,3.22,11.27,11.27,0,0,1,3.62-3.22h0"/><path class="cls-23" d="M116.1,76.23l-.82.79-.43.43-.35-.63a12.08,12.08,0,0,0-2.31,5l.78.44a6.87,6.87,0,0,1,.88-1.78,11.27,11.27,0,0,1,3.62-3.22h0a15.63,15.63,0,0,0-1.37-1h0"/><polyline class="cls-23" points="114.5 76.81 114.5 76.81 114.5 76.82 114.5 76.82 114.85 77.45 115.28 77.02 114.85 77.45 114.5 76.81"/><path class="cls-22" d="M109.38,80.14v0h0v0m-.12-11.72c-1.17,2.83-1.46,6.63.12,11.72-1.58-5.08-1.29-8.87-.12-11.7v0M109,65.11l-.22.29h0l.22-.29"/><path class="cls-23" d="M110.36,63.69A12.53,12.53,0,0,0,109,65.11l-.22.29h0c.12.67.22,1.07.22,1.07h0l-.61,1.68a2.45,2.45,0,0,1-.67-1.06h0a11.49,11.49,0,0,0-1.23,5.26A18.23,18.23,0,0,0,109,81c.11-.3.22-.58.34-.86v0h0c-1.58-5.09-1.29-8.89-.12-11.72a9.67,9.67,0,0,1,.1-1.07l-.06-.11h0l0-.06.09-.22a19.41,19.41,0,0,1,.94-3.27"/><path class="cls-23" d="M109.42,67l-.09.22.09-.22-.06.38-.06-.1h0l.06.11h0l.06-.38h0"/><path class="cls-23" d="M108.22,58.83a8,8,0,0,0-1.48.77,28.27,28.27,0,0,0,1,7.49h0a11.51,11.51,0,0,1,1.06-1.69h0a32.52,32.52,0,0,1-.6-5.89c0-.23,0-.45,0-.68"/><path class="cls-24" d="M108.81,65.4a11.51,11.51,0,0,0-1.06,1.69,2.45,2.45,0,0,0,.67,1.06l.61-1.68s-.1-.4-.22-1.07h0"/><polyline class="cls-24" points="109.33 67.18 109.3 67.24 109.31 67.24 109.33 67.18"/><path class="cls-24" d="M109.42,67l-.09.22,0,.06.06.1.06-.38"/><path class="cls-23" d="M113.41,74.8l1.09,2c.28-.33.58-.68.91-1l.69.42h0l-.69-.42c-.56-.32-1.17-.63-1.84-.94l-.16-.07"/><polyline class="cls-24" points="116.1 76.23 115.28 77.02 116.1 76.23 116.1 76.23"/><path class="cls-24" d="M115.41,75.81c-.33.32-.63.67-.91,1l.35.64.43-.43.82-.79-.69-.42"/><path class="cls-25" d="M117.11,77.15a1.71,1.71,0,1,1-1.83-1.58,1.71,1.71,0,0,1,1.83,1.58Z"/><path class="cls-25" d="M111.16,65.88a1.71,1.71,0,1,1-1.83-1.58,1.7,1.7,0,0,1,1.83,1.58Z"/><path d="M117.37,67.33c.06.85-.25,1.57-.7,1.6s-.86-.63-.93-1.48.25-1.57.7-1.61.87.63.93,1.49Z"/><path d="M120.8,87.68h-.08c-3.55-.84-3.92-5.56-4-6.35l.06,0s3.78,5,4,6.29Z"/><path class="cls-26" d="M124.49,80.55a3.09,3.09,0,0,0,.68-.09,1.73,1.73,0,0,1,.75,0,1.34,1.34,0,0,1,.68.46,2.42,2.42,0,0,1,.47,1.45,1.25,1.25,0,0,1-.31.77,1.34,1.34,0,0,1-.67.38,1.59,1.59,0,0,1-.72,0,1.87,1.87,0,0,0,1-.66,1.29,1.29,0,0,0,0-1.07,1.39,1.39,0,0,0-.63-.9,1.76,1.76,0,0,0-.6-.16,1.7,1.7,0,0,1-.68-.19Z"/><path class="cls-26" d="M126.28,87a3.17,3.17,0,0,1-.86-.44,4.58,4.58,0,0,1-.71-.61,3.87,3.87,0,0,1-.57-.76,2.73,2.73,0,0,1-.35-.9,6.17,6.17,0,0,1,.7.62c.23.21.43.42.64.64s.41.44.6.68a6.59,6.59,0,0,1,.55.77Z"/><path class="cls-26" d="M97.36,93.65a12.22,12.22,0,0,1,2,1,15.76,15.76,0,0,1,1.77,1.26,12.53,12.53,0,0,1,1.55,1.54,7.1,7.1,0,0,1,1.14,1.86c-.47-.55-1-1.06-1.47-1.55s-1-1-1.59-1.4-1.1-.89-1.66-1.34l-1.69-1.34Z"/><path class="cls-26" d="M107.82,102.58a6.15,6.15,0,0,1,1.8,2.46,9.44,9.44,0,0,1,.7,3,12.09,12.09,0,0,1-.19,3.07c-.1.5-.25,1-.38,1.49s-.34,1-.54,1.42c.07-.51.17-1,.27-1.49s.14-1,.2-1.48.11-1,.09-1.49l0-.74,0-.73a11.82,11.82,0,0,0-.55-2.89,8.46,8.46,0,0,0-1.38-2.62Z"/><path class="cls-26" d="M114.05,114.75a8.16,8.16,0,0,1-.2,2.69,12.43,12.43,0,0,1-1,2.54,18.36,18.36,0,0,1-1.42,2.31,18,18,0,0,1-1.74,2.09l-.21.22-.2-.23c-1-1.16-2-2.32-3-3.5l-1.46-1.78c-.47-.61-1-1.2-1.41-1.82.55.54,1.07,1.1,1.61,1.64s1.06,1.11,1.58,1.67c1,1.12,2.07,2.26,3.08,3.41h-.41a23.47,23.47,0,0,0,1.69-2,20.09,20.09,0,0,0,1.46-2.21,14,14,0,0,0,1.09-2.4,9.07,9.07,0,0,0,.49-2.6Z"/><path class="cls-26" d="M98.16,126.32a26.82,26.82,0,0,1-3.23-1.23,29.65,29.65,0,0,1-3.06-1.6,18.89,18.89,0,0,1-2.81-2,8.55,8.55,0,0,1-1.19-1.29,4.24,4.24,0,0,1-.76-1.57,5.06,5.06,0,0,0,1,1.39,10.39,10.39,0,0,0,1.26,1.12,30.07,30.07,0,0,0,2.81,1.9c1,.59,2,1.15,3,1.7l3,1.63Z"/><path class="cls-26" d="M57.57,117.46a4.25,4.25,0,0,0,.55-1,8.12,8.12,0,0,0,.38-1,10.61,10.61,0,0,0,.38-2.17,20.42,20.42,0,0,0,.07-2.22c0-.37,0-.75-.05-1.13s-.06-.75-.06-1.13c.13.36.23.72.34,1.09s.16.75.22,1.13.08.77.09,1.15a8.94,8.94,0,0,1,0,1.16,7.74,7.74,0,0,1-.53,2.27c-.08.18-.16.36-.25.53s-.19.34-.31.5a3.16,3.16,0,0,1-.8.83Z"/><path class="cls-27" d="M73.51,106.84s-1.85,10.49-.65,16.39l3.61.93s-.69-13.07.54-16.32-3.5-1-3.5-1"/><path class="cls-17" d="M73.09,109.65a70.1,70.1,0,0,0-.63,8.25,70.1,70.1,0,0,1,.63-8.25h0"/><path class="cls-22" d="M76.6,109.7h0m0-.13,0,.12,0-.12m-3.5-.13h0l0,.21h0l0-.21"/><path class="cls-16" d="M76.44,123.63c0,.34,0,.53,0,.53l-1.15-.3,1.15.3s0-.19,0-.53h0"/><polyline class="cls-17" points="76.44 123.63 76.44 123.63 76.44 123.63 76.44 123.63 76.44 123.63"/><path class="cls-22" d="M76.43,123.45v.18h0v-.18"/><path class="cls-28" d="M73.76,108.51c-.22.33-.43.64-.64.93l0,.21a70.1,70.1,0,0,0-.63,8.25,26.65,26.65,0,0,0,.4,5.32l2.46.64,1.15.3s0-.19,0-.53h0v-.18c0-.3,0-.69,0-1.16l-.12,0a.57.57,0,0,1-.13-.08.46.46,0,0,1-.12-.12.47.47,0,0,1-.09-.22C72.51,120.74,74.74,111,74.74,111l1.75-.36c0-.32.07-.63.11-.92h0l0-.12c0-.22.06-.43.1-.63a3,3,0,0,1-.52,0l-.36,0a8.16,8.16,0,0,1-2.08-.45"/><path d="M39.28,154.18c-2.17,1.63-7.19,1-7.19,1a10.29,10.29,0,0,1-1.43-3.51,18.33,18.33,0,0,0,7-.68c.42.92,1.58,3.17,1.58,3.17Z"/><path d="M141.31,154.42c-.12,1.73-4.78,1.66-6.41,1.62s-2.36-.89-2.65-2.66a2.11,2.11,0,0,0-.09-.38,11.73,11.73,0,0,0,6.16-2.24l0,.05s3.08,1.89,3,3.61Z"/><path class="cls-12" d="M116.3,59.12c-.81.23-1.89.41-2.1-.14-.31-.82,3.13-5.34,3.77-6.16a8.92,8.92,0,0,0-1.67,6.3Z"/><path class="cls-29" d="M86.65,91.61s-3.15,1.65-3.75,6.81S80.22,109.29,75.84,109s-9.29-4.87-11-10.08-5.16-3.83-5.16-3.83.15-3.54,4.76-4.64a26.05,26.05,0,0,1,6.85-.29c2.93.12,5.88.24,8.32-.71,4.44-1.75,7.24-3.69,7,2.2"/><path class="cls-16" d="M64.24,90.47a6.67,6.67,0,0,0-3,1.54h0a6.79,6.79,0,0,1,2.95-1.53h0m19.59-2.68h0"/><path class="cls-30" d="M76.23,103.3c-.33.92-.69,1.84-1.11,2.74l.32.07.29,0c1,0,1.92-.81,2.64-2-.76-.28-1.47-.56-2.14-.85m-12-12.83A6.79,6.79,0,0,0,61.29,92,5.31,5.31,0,0,1,62,92a4.17,4.17,0,0,1,2.22.62,7.82,7.82,0,0,1,0-1,9.16,9.16,0,0,1,.06-1.06m19.59-2.68h0a11.07,11.07,0,0,0-4.63,5.93l.29.36.56.68h0l.35.45c.41-2.65,1.66-6,3.44-7.42"/><path class="cls-16" d="M86.66,91.35a.71.71,0,0,1,0,.14h0v-.14m0-.58h0v0"/><path class="cls-22" d="M86.66,91.49h0v.12a7,7,0,0,0-2.57,2.86,7,7,0,0,1,2.57-2.86v-.12"/><path class="cls-30" d="M86.66,90.77a7.61,7.61,0,0,0-3.94,5.49c-.09.54-.18,1.11-.28,1.7l.44.64a1.1,1.1,0,0,0,0-.18,11.2,11.2,0,0,1,1.18-4,7,7,0,0,1,2.57-2.86v-.12h0a.71.71,0,0,0,0-.14v-.58"/><path class="cls-22" d="M78,108.57a4.12,4.12,0,0,1-1.31.37h0a4.12,4.12,0,0,0,1.31-.37"/><polyline class="cls-28" points="76.72 108.91 76.72 108.91 76.72 108.91 76.72 108.91 76.72 108.91"/><path class="cls-31" d="M73.76,108.51h0a8.16,8.16,0,0,0,2.08.45l.36,0a3,3,0,0,0,.52,0h0a4.41,4.41,0,0,1-.52,0h-.36a8.16,8.16,0,0,1-2.08-.45"/><path class="cls-30" d="M78.29,107.73a4.63,4.63,0,0,1-2.11.69l-.49,0a6,6,0,0,1-1.73-.26l-.2.33a8.16,8.16,0,0,0,2.08.45h.36a4.41,4.41,0,0,0,.52,0h0a4.12,4.12,0,0,0,1.31-.37l.16-.08.1-.76M63.53,96.23a8.34,8.34,0,0,1,1.33,2.65,16.62,16.62,0,0,0,4.52,6.91l.23-.45a14.93,14.93,0,0,1-3.53-5.41,8.51,8.51,0,0,0-2.55-3.7"/><path class="cls-7" d="M64.43,91.74s-.66,7.08,14.31,12.55l-1.5,11.41s-.9,2.73-.63,3.37,1.76,2.14,4.84,1.6c0,0,4.73-12.74,4-17s-8.53-12.67-8.53-12.67l-12.45.69"/><path class="cls-32" d="M79.48,94.08l.56.68h0l-.56-.68"/><path class="cls-33" d="M85.47,104.13c0,.07,0,.14,0,.22h0c0-.08,0-.15,0-.22m-.11-.64c0,.08,0,.16,0,.23l0,.19,0-.19a1.89,1.89,0,0,0,0-.23h0"/><polyline class="cls-34" points="78.74 104.29 78.29 107.73 78.29 107.73 78.75 104.29 78.74 104.29"/><polyline class="cls-33" points="77.64 112.68 77.25 115.7 77.25 115.7 77.64 112.68 77.64 112.68"/><polyline class="cls-35" points="78.19 108.49 78.19 108.49 77.64 112.68 77.64 112.68 78.19 108.49"/><polyline class="cls-34" points="78.19 108.49 78.19 108.49 78.19 108.49 78.19 108.49 78.19 108.49"/><polyline class="cls-32" points="78.29 107.73 78.29 107.73 78.19 108.49 78.19 108.49 78.29 107.73"/><path class="cls-33" d="M76.56,118.66a1,1,0,0,0,0,.41,2.24,2.24,0,0,0,.79.9,2.24,2.24,0,0,1-.79-.9,1,1,0,0,1,0-.41"/><path class="cls-36" d="M79.19,93.72c-1.14,2.87-1.8,6.26-3,9.58.78.33,1.62.67,2.51,1h0l-.45,3.44-.1.76h0l-.55,4.19-.4,3h0a15.1,15.1,0,0,0-.68,3,1,1,0,0,0,0,.41,2.24,2.24,0,0,0,.79.9,4.22,4.22,0,0,0,1.58.69c0-2.7,1.53-10.93,2.21-13.4.58-2.12,3-2.73,4.29-2.91,0-.08,0-.15,0-.22l0-.22,0-.19c0-.07,0-.15,0-.23-8.69-.91-6.13-7.13-5.32-8.73l-.56-.68-.29-.36"/><path class="cls-37" d="M83.83,87.79c-6.25,3.59-5.37,12.78-9.66,20S66.23,112,66.23,112l1.15-2.26,3.28-6.48s-6-7.32-6.41-10.55a13.57,13.57,0,0,1,1.13-6.52s8.46-.31,12.13,0a17.64,17.64,0,0,1,6.32,1.64"/><path class="cls-34" d="M64.23,92.57a.77.77,0,0,0,0,.15.77.77,0,0,1,0-.15h0"/><path class="cls-32" d="M64.18,91.53a7.82,7.82,0,0,0,0,1h0a9.16,9.16,0,0,1,0-1"/><path class="cls-38" d="M77.71,86.72c-.41,0-.87,0-1.36.06l-.59.33a5,5,0,0,1-1.91.8,9.43,9.43,0,0,1-2.77.42,9.26,9.26,0,0,1-2.26-.28c-.31,1.28-.76,3.12-1.19,4.74-.08.29-.15.56-.23.83s-.16.57-.24.83a5.23,5.23,0,0,1-.7,1.79.85.85,0,0,1-.24,0,.44.44,0,0,1-.43-.31h0s0-.64,0-1.66c0-.29,0-.6,0-1s0-.74,0-1.14V88.73l-.42.11s-1.11.47-1.16,2.69a9.16,9.16,0,0,0,0,1,.77.77,0,0,0,0,.15h0c.4,3.23,6.41,10.55,6.41,10.55h0l-1,2.07-.23.45-2,4a5.43,5.43,0,0,0,.93-.23h0a7.86,7.86,0,0,0,1.55-.71h0a12.14,12.14,0,0,0,3.35-3.07v0h0v0c.63-1.58,1.12-3-.15-4-2.76-2-5.18-9.33-5.18-9.33,7.75-.51,10.87-3.9,11.94-5.56-.46-.06-1-.11-1.51-.15-.2,0-.4,0-.62,0"/><path class="cls-39" d="M83.83,87.79c-6.25,3.59-5.37,12.78-9.66,20S66.23,112,66.23,112l1.15-2.26c1.29-.2,3.78-1.07,6.35-4.66,3.7-5.18,2.72-14.61,10.1-17.3"/><path class="cls-40" d="M68.32,109.52h0m1.55-.71h0m3.36-3.07a12.14,12.14,0,0,1-3.35,3.07,12.49,12.49,0,0,0,3.35-3v0"/><path class="cls-40" d="M68.31,109.52a5.43,5.43,0,0,1-.93.23h0a5.43,5.43,0,0,0,.93-.23"/><polyline class="cls-41" points="71.95 110.81 71.95 110.81 71.95 110.81"/><path class="cls-41" d="M71.94,110.82a5.22,5.22,0,0,1-3.69,1.84,3.31,3.31,0,0,1-2-.65,3.31,3.31,0,0,0,2,.65,5.22,5.22,0,0,0,3.69-1.84"/><path class="cls-42" d="M73.23,105.76a12.49,12.49,0,0,1-3.35,3h0a7.86,7.86,0,0,1-1.55.71h0a5.43,5.43,0,0,1-.93.23h0L66.23,112h0a3.31,3.31,0,0,0,2,.65,5.22,5.22,0,0,0,3.69-1.84h0c.17-.17.34-.35.5-.54-.57-1.36.17-3,.78-4.51"/><path d="M85.39,80.83c.88.42,1.75.86,2.63,1.29s1.74.88,2.6,1.32l-.11,0q2.8-.24,5.61-.43c1.87-.13,3.74-.25,5.61-.35s3.74-.19,5.61-.27,3.75-.12,5.63-.15c-1.87.21-3.73.39-5.6.56s-3.74.3-5.61.44l-5.61.35q-2.81.15-5.61.27h-.07l0,0c-.84-.48-1.69-1-2.52-1.47s-1.68-1-2.51-1.5Z"/><path class="cls-43" d="M29.24,58.85c-1.76,4.75.7,6.25,2.15,6.71a.51.51,0,0,1-.07-.15.71.71,0,0,1-.05-.33v0c-1.35-.65-2.95-2.23-1.69-6a2.68,2.68,0,0,1-.34-.16"/><path class="cls-44" d="M29.58,59c-1.26,3.81.34,5.39,1.69,6a.69.69,0,0,1,.17-.34.89.89,0,0,1-.54-.55.5.5,0,0,1,0-.13,3.2,3.2,0,0,1-1.09-2.56,6.57,6.57,0,0,1,.43-2.23,6.25,6.25,0,0,1-.62-.23"/><path class="cls-45" d="M35.45,58.94l-3.18.11L32,64.74l-.06,1.07s.81,1.53,2.11,1.38A2.71,2.71,0,0,0,36,66l-.05-.71-.45-6.3"/><path class="cls-46" d="M36.08,56.77S29,28.41,43.16,18.61c0,0-19,4-11.94,39.35l4.86-1.19"/><path class="cls-43" d="M35.85,55.76c0,.25.1.46.14.62h0c0-.16-.09-.37-.14-.62"/><path class="cls-47" d="M43.15,18.62c-.35.07-18.61,4.21-12.13,38.32l5-.56c0-.16-.09-.37-.14-.62s-.15-.72-.24-1.17L33,54.28s-6.21-27,10.16-35.66"/><path class="cls-48" d="M39.28,56,27.54,57.33s.51,1.62,4.07,2.26A7.26,7.26,0,0,0,39.28,56"/><path class="cls-43" d="M30.2,59.24h0c.2.06.42.13.65.18h0c-.23-.05-.45-.12-.65-.18m-2.66-1.91h0s.26.82,1.7,1.52h0a3.09,3.09,0,0,1-1.7-1.52M39.28,56h0a6.72,6.72,0,0,1-1.45,1.84A6.72,6.72,0,0,0,39.28,56"/><path class="cls-44" d="M29.26,58.85h0l.35.16h0l-.35-.16"/><path class="cls-49" d="M29.61,59.08V59a6.25,6.25,0,0,0,.62.23h0a6.25,6.25,0,0,1-.62-.23"/><path class="cls-50" d="M33.64,59.68c-.23,0-.45,0-.68,0s-.43,0-.65,0h0c.22,0,.43,0,.65,0s.45,0,.68,0"/><path class="cls-51" d="M39.28,56h0a7.36,7.36,0,0,1-5.34,2.31,8.81,8.81,0,0,1-4.36-1.22l-2,.22a3.13,3.13,0,0,0,1.7,1.52,2.68,2.68,0,0,0,.34.16,6.25,6.25,0,0,0,.62.23h0c.2.06.42.13.65.18l.22,0h0a2.72,2.72,0,0,1,1.22.3c.22,0,.43,0,.65,0a5.17,5.17,0,0,0,.68,0,7.35,7.35,0,0,0,4.19-1.82A6.72,6.72,0,0,0,39.28,56"/><path class="cls-48" d="M35.9,65.24,32,64.74l-.06,1.07s.81,1.53,2.11,1.38A2.71,2.71,0,0,0,36,66l-.05-.71"/><polyline class="cls-50" points="33.04 64.88 33.04 64.88 33.17 64.89 33.17 64.89 33.04 64.88"/><path class="cls-43" d="M34,67.19h0m0,0h0m1.22-.51h0a2.54,2.54,0,0,1-1.21.51,2.54,2.54,0,0,0,1.21-.51"/><path class="cls-51" d="M33,64.8a.64.64,0,0,1,.1.33.59.59,0,0,1,0,.22c-.11.25-.41.35-.92.46a.71.71,0,0,1-.2,0h0a2.5,2.5,0,0,0,1.88,1.29h.22a2.53,2.53,0,0,0,1.21-.5h-.19c-1.2,0-1.94-1.39-1.94-1.39l0-.41-.13,0"/><path class="cls-9" d="M39.12,61.68s-1.34-2.18-2.41-2.11-3.4.58-3.61,1.62,2.56.7,2.56.7l.24,3.35s.18.21.32.21a7.06,7.06,0,0,1,2.9-3.77"/><path class="cls-16" d="M36.94,59.58h0c1,.21,2.16,2.06,2.18,2.09h0S38,59.8,36.94,59.58"/><path class="cls-52" d="M33.68,61.84a4.34,4.34,0,0,0,1,.1c.51,0,.94,0,.95,0h0a9.45,9.45,0,0,1-.95,0,4.34,4.34,0,0,1-1-.1"/><path class="cls-16" d="M35.9,65.3h0s.18.21.32.21h0c-.14,0-.32-.21-.32-.21h0"/><polyline class="cls-52" points="35.86 64.7 35.9 65.24 35.9 65.24 35.9 65.24 35.86 64.7"/><polyline class="cls-53" points="35.9 65.24 35.9 65.24 35.9 65.24"/><path class="cls-10" d="M36.94,59.65a2.92,2.92,0,0,1-2.53,1.88,3.47,3.47,0,0,1-1.31-.29h0c-.07.35.19.54.58.65a4.34,4.34,0,0,0,1,.1,9.45,9.45,0,0,0,.95,0h0s.38-.69.79-.69a.46.46,0,0,1,.38.23c.51.72.06,2.57-.47,2.77H36.3c-.45,0-.62-2-.64-2.29l.2,2.78,0,.54s.18.22.32.21h0a7.1,7.1,0,0,1,2.9-3.77S38,59.86,36.94,59.65"/><path class="cls-9" d="M30.45,62.35a1,1,0,0,0,1.22.77c.72-.15,1.13-.29,1.28-.64a.84.84,0,0,0-.29-1l0,0a2.56,2.56,0,0,0-1.28-.32,1,1,0,0,0-.93.86.74.74,0,0,0,0,.35"/><path class="cls-9" d="M30.9,64.16a.85.85,0,0,0,1.05.56c.64-.14,1-.26,1.14-.57a.74.74,0,0,0-.12-.77.83.83,0,0,0-.17-.15A2.25,2.25,0,0,0,31.67,63a.9.9,0,0,0-.84.76,1.15,1.15,0,0,0,.07.45"/><path class="cls-9" d="M31.32,65.41a.68.68,0,0,0,.85.48c.51-.11.81-.21.92-.46a.6.6,0,0,0-.05-.55.66.66,0,0,0-.18-.19,1.9,1.9,0,0,0-.92-.23.74.74,0,0,0-.67.62.71.71,0,0,0,.05.33"/><path class="cls-9" d="M30.24,60.82a1,1,0,0,0,1.15.55c.72-.15,1.13-.29,1.28-.64a.83.83,0,0,0-.15-.88l-.17-.15a2.68,2.68,0,0,0-1.28-.32,1,1,0,0,0-.94.86,1.36,1.36,0,0,0,.11.58"/><path class="cls-10" d="M33,64.88a1.08,1.08,0,0,1-1.11.59,3.58,3.58,0,0,1-.61-.06.67.67,0,0,0,.65.5l.2,0c.51-.11.81-.21.92-.46a.59.59,0,0,0,0-.23.6.6,0,0,0-.1-.32h0"/><path class="cls-10" d="M33,63.38c-.06.3-.35.8-1.61.8a3.78,3.78,0,0,1-.46,0,.89.89,0,0,0,.54.55.78.78,0,0,1,.5-.25h0a2.16,2.16,0,0,1,.6.1.83.83,0,0,0,.53-.41.71.71,0,0,0,.06-.28.8.8,0,0,0-.18-.49h0"/><path class="cls-10" d="M32,64.39h-.08a.72.72,0,0,0-.5.24.75.75,0,0,0,.26,0l.25,0a4.39,4.39,0,0,0,.61-.16,2,2,0,0,0-.6-.09"/><path class="cls-10" d="M32.66,61.48c.05.23,0,.75-1,.88a5.48,5.48,0,0,1-.65,0,3,3,0,0,1-.59,0,1,1,0,0,0,.72.78.89.89,0,0,1,.5-.18h0a2.51,2.51,0,0,1,.5,0c.41-.12.66-.26.77-.52a.82.82,0,0,0,.07-.31.84.84,0,0,0-.36-.69"/><path class="cls-10" d="M31.7,62.94h0a.89.89,0,0,0-.5.18.78.78,0,0,0,.22,0l.28,0,.51-.13a2.51,2.51,0,0,0-.5-.05"/><path class="cls-10" d="M32.52,59.85c-.11.39-.52,1-2,1h-.31a.93.93,0,0,0,.87.58l.28,0c.72-.15,1.13-.29,1.28-.64a.87.87,0,0,0,.06-.32.85.85,0,0,0-.21-.56h0"/><path class="cls-54" d="M84.71,123.56c-.06,1.48-1.26,2.12-2.71,2.07a5.54,5.54,0,0,1-1.8-.4h0l-.2-.09a4.15,4.15,0,0,1-1.12-.71l-.13-.14-.11-.12s0,0,0,0l-.08-.12c-.44-.8-.57-1.13-1.44-1.44l-.81-.31a.63.63,0,0,1-.25-.2.6.6,0,0,1-.09-.49l0-.07v0l.33-.69.19-.39.17-.36.24-.5a3.65,3.65,0,0,0,1.7,1,5.42,5.42,0,0,0,2,.21c.08.09.16.2.24.31.21.3.41.58.63.84l.13.17.09.11.24.28c.71.79,1.35,1.25,1.83,1.21h.07l.06,0a.34.34,0,0,0,.12-.06h0a.31.31,0,0,0,.11-.09h0l0-.06,0-.06a.66.66,0,0,0-.36-1.13H84a.65.65,0,0,1,.25.06l.07,0,.08.06a.76.76,0,0,1,.09.09,1.57,1.57,0,0,1,.24,1"/><path class="cls-55" d="M76.49,120.38h0l-.15.32,0,.07a11.54,11.54,0,0,0,3.64,1.77,5.12,5.12,0,0,0,.72,0c.57,0,.86-.11,1.25-.11l-.24-.28h0a3,3,0,0,0-.7-.08,2.7,2.7,0,0,0-.77.11,13.45,13.45,0,0,1-3.71-1.85"/><path class="cls-56" d="M75.94,121.55v0h0m0-.06a.17.17,0,0,0,0,.05.17.17,0,0,1,0-.05h0"/><path class="cls-57" d="M76.39,122.29h0l.34.14-.34-.14"/><polyline class="cls-56" points="76.39 122.29 76.39 122.29 76.39 122.3 76.39 122.29 76.39 122.29"/><path class="cls-58" d="M76.14,122.17a.57.57,0,0,0,.13.08l.12,0h0l-.12,0a.57.57,0,0,1-.13-.08"/><path class="cls-59" d="M84.46,122.51h0m-.18-.16h0l.08.06,0,0-.13-.1m-.15-.07.1,0,0,0a.75.75,0,0,0-.13-.06m-.28,0h0a.66.66,0,0,1,.36,1.13h0c.59-.88-.32-1.12-.36-1.13m.09,0h0"/><path class="cls-57" d="M78.17,123.38c.11.17.22.37.35.62l.08.12-.08-.12c-.13-.25-.24-.45-.35-.62"/><path class="cls-59" d="M83.82,123.67l-.08,0h.08m.17-.07-.1.05.1-.05h0m.1-.08-.09.08.09-.08m0,0v0"/><path class="cls-57" d="M78.61,124.13l0,0s0,0,0,0"/><path class="cls-60" d="M80.2,125.23h0m-.47-.21.46.21h0l-.2-.09-.26-.12m-1-.74,0,.06,0,0h0m-.07-.08,0,0,0,0"/><path class="cls-55" d="M76,121.49a.17.17,0,0,0,0,.05h0v0a.56.56,0,0,0,.21.58.57.57,0,0,0,.13.08l.12,0h0l.34.14.35.13a1.78,1.78,0,0,1,1.09.82c.11.17.22.37.35.62l.08.12h0s0,0,0,0l0,0,0,0,0,0h0l0,0a3.63,3.63,0,0,0,1,.68l.26.12.2.09h0a5,5,0,0,0,1.34.18,3.44,3.44,0,0,0,2.65-1,2.2,2.2,0,0,0,.27-1.88h0l0-.06,0,0-.08-.06h0l0,0-.1,0h-.28s1,.25.36,1.13h0l-.08.09v0l0,0-.09.08h0l-.1.05-.07,0h-.08a2.73,2.73,0,0,1-1.92.71A4.89,4.89,0,0,1,80,124c-2.69-1.1-1.16-1.72-4-2.51"/><path class="cls-9" d="M81.67,122.2a2.93,2.93,0,0,0-1.47,0,13.45,13.45,0,0,1-3.71-1.85l.17-.36.24-.5a3.65,3.65,0,0,0,1.7,1,5.42,5.42,0,0,0,2,.21c.08.09.16.2.24.31.21.3.41.58.63.84l.13.17.09.11"/><path class="cls-61" d="M76.9,119.52l-.24.5-.17.36a13.45,13.45,0,0,0,3.71,1.85,2.7,2.7,0,0,1,.77-.11,3,3,0,0,1,.7.08l-.09-.11-.13-.17h-.22c-1.42,0-2.85-1-2.63-1.37l-.12,0a3.75,3.75,0,0,1-1.58-1"/><path class="cls-9" d="M73.92,64.31l-1.21-.75-.19-2.64-5-1.13-.64,2.27-1.64.49s5.15,8.61,8.64,1.76"/><path class="cls-62" d="M66.51,62.26l-1.23.36c.1.09,3.25,3.15,6,3.15a3.08,3.08,0,0,0,2.62-1.38h0l-1.21-.75v-.15l-1,0a9.8,9.8,0,0,1-5.23-1.26"/><path class="cls-7" d="M59.51,74.65s.29,1.93,3.46,5.47a11.63,11.63,0,0,1,1.28,1.7,6.73,6.73,0,0,1,1.11,4.24c.06.16.12.32.19.49l.15.11A22.16,22.16,0,0,0,69,87.73c5,1.15,7-.76,7-.76a16.54,16.54,0,0,0,1.34-4.37,40.29,40.29,0,0,0,.53-7.81c1.21-3.14-.3-7.41-.3-7.41a14.66,14.66,0,0,0-2.72-2.48l-.51-.36-.36-.23c-2.81,3.9-8.51-1.64-8.64-1.76h0c-.26,0-.52,0-.77.06l-.34,0h-.06A15.41,15.41,0,0,0,57.28,66a16.35,16.35,0,0,1,2.23,8.69"/><path class="cls-63" d="M64.11,62.65C64.8,66.59,70,70.11,70,70.11l2.14-1.46c-3.75-1.64-6.78-6-6.88-6.1h0a9.26,9.26,0,0,0-1.17.11"/><path class="cls-39" d="M69,87.73a14.24,14.24,0,0,0,1.64.29c3.78.44,5.31-1,5.31-1a16.54,16.54,0,0,0,1.34-4.37,40.29,40.29,0,0,0,.53-7.81c1.21-3.14-.3-7.41-.3-7.41a13.62,13.62,0,0,0-1.93-1.88,16.55,16.55,0,0,0-1.66-1.19s-.27,4.78-8,6.84a40.62,40.62,0,0,0,3,16.58"/><path class="cls-37" d="M70.63,88c3.78.44,5.31-1,5.31-1a16.54,16.54,0,0,0,1.34-4.37,40.29,40.29,0,0,0,.53-7.81c1.21-3.14-.3-7.41-.3-7.41a13.62,13.62,0,0,0-1.93-1.88c-.21,1.1-1.38,4.78-7.81,6.54a40.73,40.73,0,0,0,2.86,16"/><path class="cls-36" d="M65.29,65.43A25.62,25.62,0,0,0,67,69.24c.26,0,.52,0,.77,0s.74,0,1.09,0a18.05,18.05,0,0,1-3.56-3.79m8.63-1.12h0l.36.23h0l-.36-.23h0m-8.64-1.77h0a21.08,21.08,0,0,0,6.27,5.81,6.45,6.45,0,0,0,2.37-4A3.1,3.1,0,0,1,71.3,65.7c-2.77,0-5.92-3.06-6-3.15h0"/><path class="cls-64" d="M65.28,62.54c-.32,0-.64,0-1,.08l.19,0c.09.39.17.85.17.85s.21.81.61,2a18.05,18.05,0,0,0,3.56,3.79,12.13,12.13,0,0,0,2.06-.34,6.87,6.87,0,0,0,.64-.52,21.08,21.08,0,0,1-6.27-5.81h0"/><path class="cls-65" d="M73.92,64.31h0a6.45,6.45,0,0,1-2.37,4,6.87,6.87,0,0,1-.64.52A9.23,9.23,0,0,0,74.59,67c-.08-1-.21-2-.31-2.5l-.36-.23h0"/><path class="cls-64" d="M64.24,62.63h0m.08,0h0"/><path class="cls-66" d="M77.39,82h0l0,.11,0-.11"/><path class="cls-36" d="M75.76,87.11h0a5.37,5.37,0,0,1-1.91.79h0a5,5,0,0,0,1.91-.8M77.39,82h0c0,.08,0,.16,0,.24h0l0-.13,0-.11M66.9,81.87l-.19,1.43.85.23c-.15-.53-.29-1-.41-1.56l-.25-.1m.08-.61v.06h0l0-.07M64.11,62.65A15.41,15.41,0,0,0,57.28,66a17,17,0,0,1,2.25,8.13c0,.36,0,.56,0,.56s.29,1.93,3.46,5.47a10.89,10.89,0,0,1,1.23,1.63,1.23,1.23,0,0,1,0-.18h0l.31.72v0a2,2,0,0,1,.1.21q.8.34,1.56.6l.46-3.45c0-.22-.08-.43-.11-.65-3-4.17-3.38-10.38-3.38-10.38a21.69,21.69,0,0,0,2.39.46A32.15,32.15,0,0,1,64.2,63c0-.12-.06-.25-.09-.38"/><path class="cls-64" d="M64.23,62.63l-.12,0h0c0,.13,0,.26.09.38a3,3,0,0,1,0-.39h.06"/><path class="cls-65" d="M67.15,82c.12.51.26,1,.41,1.56l.26.06c.35.08.7.14,1,.19l.15-.86L69,82.68,67.15,82m0-2.13L67,81.26l0,.07,1.8.71-.18-.85a9.25,9.25,0,0,1-1.45-1.35M66.54,79c0,.22.07.43.11.65l.06-.41L66.54,79"/><path class="cls-67" d="M74.63,64.79h0l.14.1-.15-.1"/><path class="cls-65" d="M74.64,64.79l.15.11q.06.31.15.72h0c0,.29.11.61.16.95.09-.08.17-.17.25-.25a6.06,6.06,0,0,0,.23-.82l-.8-.61-.14-.1"/><path class="cls-38" d="M75.76,87.12a11.56,11.56,0,0,1-1.91.79,5.37,5.37,0,0,0,1.91-.79M69,82.68l.06.24,0-.23H69l0,0m.79-.79-.34,2a14.9,14.9,0,0,0,1.72.1,12.9,12.9,0,0,0,6.14-1.44h0l.07-.28h0c0-.08,0-.16,0-.24a12.24,12.24,0,0,1-4,.75,7.87,7.87,0,0,1-3.63-.84m-1.12-.7.18.85.28.11h0l0,0h0l.1-.57a6.9,6.9,0,0,1-.63-.42m7-15.69a6.06,6.06,0,0,1-.23.82,7.54,7.54,0,0,0,.5-.6l-.27-.22"/><path class="cls-68" d="M66.1,70.68c.13.36.28.71.43,1.06s.37.81.57,1.19c.11.22.22.43.34.63s.29.48.43.7l.2.28a7.77,7.77,0,0,0,1.14,1.31l.12.11a.27.27,0,0,1,.08.07l.11.08a5.16,5.16,0,0,0,.51.35l.12.06.11.06a2.83,2.83,0,0,0,.55.21l.12,0,.11,0,.14,0,.13,0,.22,0a3.14,3.14,0,0,0,.68,0l.2,0,.14,0,.08,0,.11,0,.08,0,.13-.06.17-.07.15-.08.07,0,.15-.1.18-.13A2.7,2.7,0,0,0,74,76l0,0,.12-.13h0l.1-.11a.86.86,0,0,0,.07-.1l.1-.14a1.74,1.74,0,0,0,.11-.18,4.16,4.16,0,0,0,.23-.42l.09-.2c1.1-2.62.53-6.8.11-9q-.09-.41-.15-.72l-.51-.36c.35,2,1.31,9.24-2.58,8.8-4.66-.53-7-9.89-7-9.89s-.08-.46-.17-.85l-.34,0a31.45,31.45,0,0,0,1.93,8"/><path class="cls-69" d="M66.58,70.09l0,1.65c.18.41.37.81.57,1.19L67,70.57l-.39-.48"/><path class="cls-70" d="M67.38,73.55h0l.21.35-.21-.35h0"/><path class="cls-71" d="M73.06,76.62l-.11,0h0l.11,0m1.28-1.1,0,.06a.86.86,0,0,1-.07.1l-.1.11h0l-.12.13,0,0a2.7,2.7,0,0,1-.31.28l-.18.13-.15.1-.07,0-.15.08,0,0a3.17,3.17,0,0,0,1.26-1.09m.34-.55c-.05.1-.11.19-.17.29l0,.06c.07-.11.13-.23.2-.35m.06-.13h0m.09-.2h0m-7-.51c1,1.54,2.2,2.65,3.61,2.78h-.09l-.13,0-.14,0-.11,0-.12,0a2.83,2.83,0,0,1-.55-.21l-.11-.06L70,76.46a5.16,5.16,0,0,1-.51-.35L69.41,76a.27.27,0,0,0-.08-.07l-.12-.11a7.77,7.77,0,0,1-1.14-1.31l-.2-.28-.08-.13"/><path class="cls-69" d="M67.54,71.3l0,2.26h0l.21.35c0,.07.09.14.13.22l.09.13.2.28a7.35,7.35,0,0,0,1.14,1.31l.12.11.08.07.11.08a5.16,5.16,0,0,0,.51.35l.12.06.11.06a3,3,0,0,0,.54.21l.13,0,.11,0,.14,0,.12,0h.09l.2-.08a1,1,0,0,1,.76-.38l.19,0a1.28,1.28,0,0,1,.41.19h0l.11,0h0l0,0,.16-.08.07,0,.15-.1a1.09,1.09,0,0,0,.17-.13,2.79,2.79,0,0,0,.32-.28l0,0,.12-.13h0l.1-.11.07-.1,0-.06a1.37,1.37,0,0,0,.13-.2l0-.06.16-.29.06-.12h0l.08-.2h0a3.89,3.89,0,0,1-3.06,1.77,4.79,4.79,0,0,1-3.13-1.52l-.83-3.22-.35-.39"/><path class="cls-69" d="M64.51,62.6l-.34,0a31.45,31.45,0,0,0,1.93,8l.06-2.51c.84,2.34,3.62,6,6.16,6a2.57,2.57,0,0,0,.94-.18c2.7-1.1,1.51-8,1.51-8l.17-.38q-.09-.41-.15-.72l-.51-.36a24.23,24.23,0,0,1,.36,3.95c0,2.4-.51,4.87-2.61,4.87l-.33,0a4.91,4.91,0,0,1-2.91-1.61,10.15,10.15,0,0,1-1-1.18,24.62,24.62,0,0,1-3.14-7.1s-.08-.46-.17-.85"/><path class="cls-68" d="M73.62,78.33c-.06.89-.65,1.5-1.31,1.36a1.72,1.72,0,0,1-1.09-1.88c.07-.88.66-1.48,1.32-1.34a1.73,1.73,0,0,1,1.08,1.86"/><path class="cls-69" d="M72.09,77.13a.49.49,0,0,1,.29-.08h.12a1.07,1.07,0,0,1,.68,1.17c0,.51-.34.87-.71.87h-.12a.82.82,0,0,1-.54-.46h0l-.06-.14h0a1.36,1.36,0,0,1-.06-.54v0h0a.94.94,0,0,1,.42-.76h0m.26-.68c-.58,0-1.07.57-1.13,1.36V78a1.68,1.68,0,0,0,1.09,1.71l.19,0c.58,0,1.07-.58,1.12-1.38a.86.86,0,0,0,0-.16,1.69,1.69,0,0,0-1.09-1.7l-.19,0"/><path class="cls-72" d="M73.18,78.23c0,.56-.41,1-.83.86a1.08,1.08,0,0,1-.68-1.18c0-.56.41-.94.83-.85a1.07,1.07,0,0,1,.68,1.17"/><path class="cls-73" d="M71.8,78.62h0m0,0h0m0,0h0m-.06-.14.06.14-.06-.14m0,0h0m0,0h0m0,0h0m-.06-.56h0m.42-.76a.94.94,0,0,0-.42.76.94.94,0,0,1,.42-.76h0"/><path class="cls-74" d="M72.09,77.13a.94.94,0,0,0-.42.76h0v0a1.36,1.36,0,0,0,.06.54h0l.06.14h0a.82.82,0,0,0,.54.46h.12a.66.66,0,0,0,.54-.32.61.61,0,0,1-.3.08h-.12a1.08,1.08,0,0,1-.68-1.18,1,1,0,0,1,.18-.54"/><path class="cls-75" d="M72.3,77.84c0,.34.24.62.45.62s.36-.27.32-.61-.24-.62-.45-.62-.36.27-.32.61Z"/><path class="cls-76" d="M65.79,96a.47.47,0,0,0,.67.27,5.23,5.23,0,0,0,.7-1.79c.08-.26.16-.54.24-.83s.15-.54.23-.83c.76-2.83,1.56-6.32,1.56-6.32l-3.38-.85c0,2-.06,4.55,0,6.6,0,.4,0,.78,0,1.14s0,.66,0,1c0,1,0,1.66,0,1.66"/><path class="cls-77" d="M65.78,94.31c0,1,0,1.66,0,1.66a.47.47,0,0,0,.67.27,5.23,5.23,0,0,0,.7-1.79,1.76,1.76,0,0,1-1.38-.14"/><path class="cls-77" d="M65.77,93.36a2.78,2.78,0,0,0,1.63.26c.08-.27.15-.54.23-.83a4,4,0,0,1-1.87-.57c0,.4,0,.78,0,1.14"/><path class="cls-78" d="M65.78,86.75c0,1.24,0,2.57,0,3.83v1.64h0c.18.1.34.18.5.25.28-3.69,1.26-4.38,2-4.38a1.3,1.3,0,0,1,.55.14l0-.18a10,10,0,0,1-3-1.3"/><path class="cls-78" d="M65.77,93.36c0,.35,0,.66,0,1h0a2.66,2.66,0,0,0,.41.16c0-.33,0-.64,0-.94a2.52,2.52,0,0,1-.44-.17"/><path class="cls-79" d="M65.78,94.25c0,1,0,1.65,0,1.65h0a.44.44,0,0,0,.42.3h0c0-.65,0-1.26,0-1.81l-.41-.15"/><path class="cls-79" d="M65.76,92.22c0,.4,0,.78,0,1.14h0a2.52,2.52,0,0,0,.44.17c0-.38,0-.73.05-1.06-.16-.07-.32-.15-.5-.25"/><path class="cls-77" d="M68.75,85.73l.08,0a.2.2,0,0,0,.26-.16l.83-4.76a.24.24,0,0,0-.17-.29l-.08,0a.2.2,0,0,0-.26.16l-.84,4.76a.28.28,0,0,0,.18.3"/><path class="cls-38" d="M69.47,80.56a.24.24,0,0,0-.06.11l-.16.94h0l.16-.94a.24.24,0,0,1,.06-.11"/><polyline class="cls-80" points="69.25 81.61 69.14 82.18 69.15 82.18 69.25 81.61 69.25 81.61"/><polyline class="cls-81" points="69.01 82.97 68.86 83.84 68.86 83.84 69.02 82.97 69.01 82.97"/><polyline class="cls-80" points="69.06 82.69 69.06 82.69 69.01 82.92 69.02 82.92 69.06 82.69"/><path class="cls-79" d="M69.57,80.51a.12.12,0,0,0-.1,0,.24.24,0,0,0-.06.11l-.16.94-.1.57a.15.15,0,0,1,0,.08.2.2,0,0,1,0,.11v0h0l0,.09h0l0,0a.19.19,0,0,1,0,.09l0,0,0,.23-.15.86.13,0,.58-3.29"/><path class="cls-77" d="M66.28,84.17l.08,0a.19.19,0,0,0,.25-.18l.65-4.8a.28.28,0,0,0-.19-.29l-.09,0a.19.19,0,0,0-.24.17l-.66,4.81a.27.27,0,0,0,.2.29"/><path class="cls-65" d="M66.78,79a.37.37,0,0,0,0,.11l0,.2h0l0-.2a.21.21,0,0,1,0-.11"/><polyline class="cls-82" points="66.65 79.68 66.19 83.13 66.19 83.13 66.65 79.68 66.65 79.68"/><polyline class="cls-81" points="66.71 79.27 66.65 79.68 66.65 79.68 66.71 79.27 66.71 79.27"/><path class="cls-79" d="M66.88,78.9a.27.27,0,0,0-.1.06.21.21,0,0,0,0,.11l0,.2-.06.41-.46,3.45.12,0,.57-4.27"/><path class="cls-77" d="M69.14,82.57l0-.2a.18.18,0,0,0-.11-.22l-2.21-.87a.15.15,0,0,0-.21.1l0,.2a.21.21,0,0,0,.12.23l2.21.87a.15.15,0,0,0,.2-.11"/><polyline class="cls-82" points="66.9 81.87 66.9 81.88 67.15 81.97 67.15 81.97 66.9 81.87"/><polyline class="cls-81" points="67.15 81.97 67.15 81.97 68.95 82.68 68.95 82.68 68.94 82.68 67.15 81.97"/><path class="cls-80" d="M69.06,82.68H69l0,0h.07"/><polyline class="cls-83" points="69.06 82.68 69.06 82.68 69.06 82.69 69.06 82.69 69.06 82.68"/><path class="cls-84" d="M69.09,82.66l0,0h0l0,0"/><path class="cls-79" d="M66.62,81.69s0,.09.06.1l.22.08h0l-.17-.06a.19.19,0,0,1-.11-.12"/><path class="cls-80" d="M69.09,82.15l0,0h0l0,0"/><polyline class="cls-83" points="69.14 82.18 69.14 82.19 69.14 82.19 69.15 82.18 69.14 82.18"/><path class="cls-84" d="M69.18,82.42l0,.11h0l0-.09h0m0-.24h0a.18.18,0,0,1,0,.07.15.15,0,0,0,0-.08"/><path class="cls-79" d="M66.61,81.62a.15.15,0,0,0,0,.07.19.19,0,0,0,.11.12l.17.06.25.1,1.79.71h.12l0,0a.4.4,0,0,0,.07-.13l0-.11a.3.3,0,0,0,0-.16.18.18,0,0,0,0-.07h0l0,0-.08,0a.34.34,0,0,1,0,.1l0,.09c0,.1-.09.18-.15.18h0l-2.2-.87"/><path class="cls-85" d="M77.28,82.51s-5.38,3.25-12.67,0l-.4-1S64,83,65.35,86.44c0,0,5.4,4.42,11.91-.26,0,0,.81-3.14.12-4.08l-.1.41"/><path class="cls-16" d="M77.66,83.31h0c0,.29,0,.59,0,.89h0c0-.3,0-.6,0-.89"/><path class="cls-86" d="M77.66,83.31A9.7,9.7,0,0,1,72,85.11a10.94,10.94,0,0,1-2.79-.37,6.6,6.6,0,0,0,3.39.82,10.64,10.64,0,0,0,5-1.36c0-.3,0-.6,0-.89"/><polyline class="cls-87" points="64.21 81.57 64.21 81.57 64.52 82.29 64.21 81.57"/><path class="cls-16" d="M77.38,82.1l0,.12h0l0-.12a1.71,1.71,0,0,1,.14.27,1.15,1.15,0,0,0-.14-.27"/><polyline class="cls-8" points="77.35 82.22 77.35 82.22 77.35 82.22 77.35 82.22 77.35 82.22"/><polyline class="cls-87" points="77.35 82.22 77.35 82.22 77.35 82.22 77.35 82.22 77.35 82.22"/><path class="cls-40" d="M77.26,82.52A12.9,12.9,0,0,1,71.12,84a14.9,14.9,0,0,1-1.72-.1h0a14.94,14.94,0,0,0,1.73.1,12.88,12.88,0,0,0,6.13-1.44m.09-.3h0"/><path class="cls-88" d="M67.82,83.59c.35.08.7.14,1,.19h0c-.34,0-.69-.11-1-.19"/><path class="cls-16" d="M77.35,85.76h0a2.84,2.84,0,0,1-.06.29,2.84,2.84,0,0,0,.06-.29"/><path class="cls-89" d="M77.26,86.11v0c-.31.22-.61.42-.91.6h0c.3-.18.6-.38.91-.6v0"/><path class="cls-40" d="M73.85,87.91h0a9.41,9.41,0,0,1-2.76.42,9.26,9.26,0,0,1-2.26-.28h0a9.26,9.26,0,0,0,2.26.28,9.43,9.43,0,0,0,2.77-.42m2.53-1.18h0l-.59.33h0l.59-.33"/><path class="cls-87" d="M73.85,87.91h0m1.91-.8h0"/><path class="cls-40" d="M75.76,87.11a10.83,10.83,0,0,1-1.91.8h0a11.56,11.56,0,0,0,1.91-.79h0"/><polyline class="cls-90" points="68.82 88.05 68.82 88.05 68.82 88.05 68.82 88.05 68.82 88.05"/><path class="cls-91" d="M67.3,87.55a9.68,9.68,0,0,0,1.52.5h0a9.68,9.68,0,0,1-1.52-.5"/><path class="cls-92" d="M69,83.8h0l.41.06h0L69,83.8"/><polyline class="cls-93" points="68.86 83.84 68.86 83.84 68.86 83.84 68.86 83.84 68.83 83.84"/><path class="cls-94" d="M68.86,83.78h0l.13,0h0l-.13,0"/><path class="cls-86" d="M64.21,81.57s-.16,1.44,1.14,4.87a8.66,8.66,0,0,0,2,1.11,9.68,9.68,0,0,0,1.52.5h0a9.26,9.26,0,0,0,2.26.28,9.41,9.41,0,0,0,2.76-.42h0a10.83,10.83,0,0,0,1.91-.8h0l.59-.33c.3-.18.6-.38.91-.6h0a.5.5,0,0,0,0-.12,2.84,2.84,0,0,0,.06-.29,9.77,9.77,0,0,1-4.62,1.3,7,7,0,0,1-5.92-3.38,17.94,17.94,0,0,0,4.55.6,10.14,10.14,0,0,0,6.19-1.79l0-.12a1.71,1.71,0,0,0-.14-.27l0,.12h0l-.07.28h0A12.88,12.88,0,0,1,71.13,84a14.94,14.94,0,0,1-1.73-.1L69,83.8l-.13,0h0c-.34,0-.69-.11-1-.19a17.76,17.76,0,0,1-3.21-1.07l-.09-.23-.31-.72"/><path class="cls-95" d="M77.33,42.49s-2.08-6.1-12.32-6S52,52.17,54.66,54s6.74-.72,6.74-.72S69.07,44,77.33,42.49"/><path class="cls-60" d="M54.39,53.72h0m0,0h0m0,0h0m6.3-.08a9.2,9.2,0,0,1-3.56,1,9.2,9.2,0,0,0,3.56-1h0m-6-8.26c-1.24,3.56-1.3,7.12-.34,8.33-1-1.21-.9-4.77.34-8.33m0,0h0m0,0h0m20.62-5.56h0A8.37,8.37,0,0,1,76.46,41h0a8.37,8.37,0,0,0-1.1-1.21"/><path class="cls-96" d="M75.36,39.77l-.06.76a8.25,8.25,0,0,1,1.16.45,8.37,8.37,0,0,0-1.1-1.21M66,38.32s-7.35,0-9.23,11a1.28,1.28,0,0,1-.37,0c-.67,0-2-.48-1.56-4.41a2.19,2.19,0,0,0-.12.33h0v0h0c-1.24,3.56-1.3,7.12-.34,8.33h0a1.25,1.25,0,0,0,.27.25,4,4,0,0,0,2.29.65h.17a9.2,9.2,0,0,0,3.56-1,7.17,7.17,0,0,1-.65-1.1,6.09,6.09,0,0,1-.63-2.66h0c0-.16,0-.31,0-.44a2.94,2.94,0,0,1,.1-.6h0s.17-7.86,9.87-8.74a19.26,19.26,0,0,1,1.94-.1h.84a15,15,0,0,1,2.07.25l-.17-1.07a19.52,19.52,0,0,0-3.4-.3c-4.19,0-9.59,1.46-12.28,8.18,0,0,.48-6.26,7.63-8.75"/><path class="cls-3" d="M60,52.53a8,8,0,0,0,1.11,1.69A12.75,12.75,0,0,0,64.73,57C71.31,60.63,79,55.25,79,55.25a8.43,8.43,0,0,0,2.79-3.34,5.25,5.25,0,0,0-.13-4.49,9.17,9.17,0,0,0-1.79-2.48s-.72-5.74-10.43-4.85-9.87,8.74-9.87,8.74a2.94,2.94,0,0,0-.1.6,6,6,0,0,0,.61,3.1"/><path class="cls-68" d="M60,52.53c1.35-1.62,9.71-10.79,21.58-5.11a9.17,9.17,0,0,0-1.79-2.48s-10.38-6.46-20.4,4.49a6,6,0,0,0,.61,3.1"/><path class="cls-68" d="M61.14,54.22A12.75,12.75,0,0,0,64.73,57C71.31,60.63,79,55.25,79,55.25a8.43,8.43,0,0,0,2.79-3.34,11.15,11.15,0,0,0-8.42-4.84c-5.63-.48-9.77,3.52-12.18,7.15"/><path class="cls-4" d="M77.29,46.08a6.32,6.32,0,0,1,.18.62A13.48,13.48,0,0,1,82,48.6a5.85,5.85,0,0,0-.41-1.17,17.17,17.17,0,0,0-4.33-1.35M72.21,46A15,15,0,0,0,68.06,47a24.06,24.06,0,0,1,4-.68,3.57,3.57,0,0,1,.12-.4"/><path class="cls-97" d="M72.17,40h0m0,0h0m0,0h0m0,0h0m0,0h0m0,0h0m0,0h0m0,0h0m0,0h0m0,0h0m0,0h0m0,0h0m-.07,0h0m-.52,0a19.26,19.26,0,0,0-1.94.1c-9.7.88-9.87,8.73-9.87,8.74s.17-7.86,9.87-8.74a19.26,19.26,0,0,1,1.94-.1h0"/><path class="cls-60" d="M79.66,44.33a2.9,2.9,0,0,1,.16.61,3.07,3.07,0,0,0-.16-.61h0M77.6,41.65l.27.2h0l-.27-.2m0,0h0m0,0h0"/><path class="cls-4" d="M64,48.94A21.24,21.24,0,0,0,60,52.53a8,8,0,0,0,1.11,1.69h0a19.52,19.52,0,0,1,4-4.48,3.8,3.8,0,0,1-1.19-.8M76,43.19l.18.33a13.77,13.77,0,0,1,3.61,1.42h0a2.9,2.9,0,0,0-.16-.61A17.79,17.79,0,0,0,76,43.19m-.73-2.66,0,.49a13,13,0,0,1,2.61.83l-.27-.2h0a7.69,7.69,0,0,0-2.28-1.11m-4-.58c-.6,0-1.25,0-1.94.09-9.7.88-9.87,8.73-9.87,8.75h0a2.73,2.73,0,0,0-.1.59c4.6-5,9.27-6.38,13-6.38.39,0,.77,0,1.14,0,0-.06.07-.13.11-.2l-.91,0a18,18,0,0,0-9.89,3,7.09,7.09,0,0,1,.28-1.89,16.14,16.14,0,0,1,9.37-3.24,13.44,13.44,0,0,1,1.84.12l-.1-.6A13.71,13.71,0,0,0,72.17,40h-.84"/><path class="cls-69" d="M76.21,43.52c.17.33.34.68.5,1a33,33,0,0,1,3.36.65l-.25-.27h0a13.77,13.77,0,0,0-3.61-1.42m-3.81-.45c-3.71,0-8.38,1.35-13,6.38h0c0,.13,0,.28,0,.44A6.09,6.09,0,0,0,60,52.55h0A21.24,21.24,0,0,1,64,49a3,3,0,0,1-.88-2.07,17.72,17.72,0,0,1,9.73-2.6h.09c.18-.38.39-.77.63-1.19-.37,0-.75,0-1.14,0"/><path class="cls-60" d="M81.36,52.66a9,9,0,0,1-2.3,2.52h0a9,9,0,0,0,2.3-2.52h0"/><path class="cls-69" d="M77.29,49.36a1.78,1.78,0,0,1-.52.54,15.07,15.07,0,0,1,1.91,1.51s0,.12,0,.32h0c.05.67.2,2.28.35,3.45a9,9,0,0,0,2.3-2.52,25.59,25.59,0,0,1-2.18-1.82,14,14,0,0,0-1.89-1.48m-5.45-1.59a10.12,10.12,0,0,0-6,2.28,5.16,5.16,0,0,1-.7-.25,19.48,19.48,0,0,0-4,4.47,8,8,0,0,0,.64.68,1,1,0,0,1,.49-.69h0a1.06,1.06,0,0,1,.34-.06,2,2,0,0,1,1.45,1,19.24,19.24,0,0,1,.45-2,7.66,7.66,0,0,1,2.82-3.35,8.05,8.05,0,0,1,4.49-1.31c0-.14,0-.3,0-.46v-.21"/><path class="cls-68" d="M79.18,57.79h0A.22.22,0,0,0,79,58a.33.33,0,0,0,.06.23,1.44,1.44,0,0,1,.92.93,1.25,1.25,0,0,1-.56,1.65A1.24,1.24,0,0,1,78,59.85a1.28,1.28,0,0,1,.45-1.6l-.23-.12L78,58a1.78,1.78,0,0,0-.39,2,1.47,1.47,0,1,0,2.7-1,1.94,1.94,0,0,0-1.14-1.2"/><path class="cls-69" d="M79.5,58.16a1.93,1.93,0,0,1,0,.24,1.57,1.57,0,0,1,.51.71,1.62,1.62,0,0,1,.1.56,1.11,1.11,0,0,1-.66,1.09l-.16,0h-.15l-.24,0a1.18,1.18,0,0,1-.11.19,1.27,1.27,0,0,0,.38.07.84.84,0,0,0,.35-.07,1.44,1.44,0,0,0,.66-1.92,1.82,1.82,0,0,0-.67-.89"/><path class="cls-98" d="M78.74,60.67a.36.36,0,0,1-.22.46.37.37,0,0,1-.47-.22.36.36,0,0,1,.22-.46.37.37,0,0,1,.47.22Z"/><path class="cls-99" d="M78.66,60.65a.31.31,0,0,1-.19.41.32.32,0,0,1-.41-.19.32.32,0,0,1,.19-.41.31.31,0,0,1,.41.19Z"/><path class="cls-100" d="M78.55,60.65a.25.25,0,0,1-.15.31.24.24,0,0,1-.3-.14.24.24,0,0,1,.14-.31.25.25,0,0,1,.31.14Z"/><path class="cls-98" d="M79.41,60.92a.37.37,0,1,1-.47-.22.37.37,0,0,1,.47.22Z"/><path class="cls-99" d="M79.34,60.9a.33.33,0,0,1-.2.42.32.32,0,1,1,.2-.42Z"/><path class="cls-100" d="M79.22,60.91a.24.24,0,0,1-.14.3.24.24,0,0,1-.31-.14.25.25,0,0,1,.14-.31.25.25,0,0,1,.31.15Z"/><path class="cls-98" d="M80.1,60.82a.36.36,0,1,1-.46-.22.35.35,0,0,1,.46.22Z"/><path class="cls-99" d="M80,60.8a.31.31,0,0,1-.19.41.31.31,0,0,1-.41-.19.32.32,0,0,1,.19-.41.32.32,0,0,1,.41.19Z"/><path class="cls-100" d="M79.91,60.81a.22.22,0,0,1-.14.3.23.23,0,0,1-.3-.14.24.24,0,0,1,.14-.31.23.23,0,0,1,.3.15Z"/><path class="cls-98" d="M80.51,60.29a.37.37,0,1,1-.47-.22.37.37,0,0,1,.47.22Z"/><path class="cls-99" d="M80.44,60.28a.32.32,0,1,1-.42-.19.33.33,0,0,1,.42.19Z"/><path class="cls-100" d="M80.32,60.28a.23.23,0,0,1-.15.3.23.23,0,0,1-.3-.14.24.24,0,0,1,.14-.3.24.24,0,0,1,.31.14Z"/><path class="cls-9" d="M64.32,58.24a1.57,1.57,0,0,1-2.09-.38c-.83-1.09-.72-3.27,0-3.6h0c1.2-.41,2.15,1.46,2.15,1.46s2.74,1.23-.14,2.53"/><path class="cls-101" d="M62.34,57.89l0,0h0a2.45,2.45,0,0,0,.17.19h0a1.37,1.37,0,0,0,.8.29.53.53,0,0,0-.14-.12.28.28,0,0,1,0-.09.37.37,0,0,1,0-.12.78.78,0,0,1-.22,0,1.12,1.12,0,0,1-.65-.22m-.06-2.46a.41.41,0,0,0-.2.14c-.39.52.8,2,1.43,2h.09c.16,0,.16.15,0,.29a1,1,0,0,1-.19.15,1.59,1.59,0,0,1,.34.39,1.53,1.53,0,0,0,.26-.08A3.86,3.86,0,0,1,64,57.8a7.88,7.88,0,0,1,0-.86V56.7a4.51,4.51,0,0,0-.48-.57,2.75,2.75,0,0,0-1.19-.7m.37-1.3a1.06,1.06,0,0,0-.34.06l0,0a2.19,2.19,0,0,1,1.5,1.6h0a2.62,2.62,0,0,1,.22.25c0-.31.06-.63.11-1a2,2,0,0,0-1.45-1"/><path class="cls-102" d="M64.46,57.41a9,9,0,0,0-1-1.28,3.37,3.37,0,0,0-.61-.46,4.81,4.81,0,0,0-.76-.3,1.5,1.5,0,0,1,.89,0,1.88,1.88,0,0,1,.78.46,2.19,2.19,0,0,1,.5.75,2,2,0,0,1,.19.85"/><path class="cls-9" d="M75.08,63.13c-4.24.75-9.86.42-11-4.4A8.28,8.28,0,0,1,64,57.8a13.2,13.2,0,0,1,.56-4.75,7.66,7.66,0,0,1,2.82-3.36A8.48,8.48,0,0,1,73,48.43s2.46,0,5.7,3c0,0,0,.12,0,.32.08.92.31,3.6.52,4.49.26,1.09,1.37,5.93-4.15,6.91"/><path class="cls-101" d="M71,53.13a1.63,1.63,0,1,0,1.39,1.61A1.52,1.52,0,0,0,71,53.13"/><path class="cls-103" d="M70.06,55.15A.93.93,0,1,0,71,54.08a1,1,0,0,0-.91,1.07Z"/><path class="cls-1" d="M71.09,54.77a.29.29,0,1,0,.58,0,.29.29,0,1,0-.58,0Z"/><path class="cls-1" d="M70.9,55.2a.16.16,0,0,0,.14.17A.17.17,0,0,0,71,55a.16.16,0,0,0-.14.17Z"/><path class="cls-101" d="M76.9,53.61a1.23,1.23,0,1,0,1,1.22,1.15,1.15,0,0,0-1-1.22"/><path class="cls-103" d="M76.2,55.14a.7.7,0,1,0,.7-.81.75.75,0,0,0-.7.81Z"/><path class="cls-1" d="M77,54.85a.22.22,0,1,0,.43,0,.22.22,0,1,0-.43,0Z"/><path class="cls-1" d="M76.84,55.18a.11.11,0,1,0,.22,0,.11.11,0,1,0-.22,0Z"/><path class="cls-104" d="M76.1,54.38l0-.06.06-.1a1.46,1.46,0,0,1,.17-.24l.1-.13.33-.33a7.09,7.09,0,0,1,1.59-1c-.35-.7-1.3-.08-1.3-.08a2,2,0,0,1,.75-.32,3.37,3.37,0,0,0-1.35.33,2.42,2.42,0,0,0-.53.38,2.35,2.35,0,0,0-.19.22l-.05.07.09.32-.18-.25a.82.82,0,0,0,0,.27h0a1.49,1.49,0,0,0,.28.6,1.36,1.36,0,0,1-.42-.71.45.45,0,0,0,0,.11c0,.49.63,1,.63,1Z"/><path class="cls-105" d="M76.46,53.85l.33-.33a1.52,1.52,0,0,1-.31-1.11,2.42,2.42,0,0,0-.53.38,1.48,1.48,0,0,0,.51,1.06Z"/><path class="cls-105" d="M76.19,54.22a1.46,1.46,0,0,1,.17-.24,1.69,1.69,0,0,1-.6-1l-.05.07.09.32-.18-.25a.82.82,0,0,0,0,.27h0a1.77,1.77,0,0,0,.57.8Z"/><path class="cls-105" d="M76.1,54.38l0-.06a2,2,0,0,1-.66-.9c0,.49.63,1,.63,1Z"/><path class="cls-104" d="M72.15,53.85l-.06-.07L72,53.67l-.26-.24-.15-.12a5.27,5.27,0,0,0-.46-.31,7.75,7.75,0,0,0-2.1-.81c.22-.94,1.47-.47,1.47-.47a2.36,2.36,0,0,0-.94-.17,3.47,3.47,0,0,1,1.63,0,2.19,2.19,0,0,1,.7.3,1.65,1.65,0,0,1,.28.21.45.45,0,0,1,.08.08l0,.4.13-.34a.89.89,0,0,1,.08.32h0a1.85,1.85,0,0,1-.16.8,1.76,1.76,0,0,0,.29-1,.69.69,0,0,1,.05.13,2,2,0,0,1-.47,1.34Z"/><path class="cls-105" d="M71.59,53.31a5.27,5.27,0,0,0-.46-.31,2,2,0,0,0,.06-1.42,2.19,2.19,0,0,1,.7.3,1.93,1.93,0,0,1-.3,1.43Z"/><path class="cls-105" d="M72,53.67l-.26-.24a2.12,2.12,0,0,0,.43-1.34.45.45,0,0,1,.08.08l0,.4.13-.34a.89.89,0,0,1,.08.32h0A2.19,2.19,0,0,1,72,53.67Z"/><path class="cls-105" d="M72.15,53.85l-.06-.07a2.69,2.69,0,0,0,.53-1.27,2,2,0,0,1-.47,1.34Z"/><path class="cls-101" d="M76.77,49.9a2.19,2.19,0,0,1-.48.26,11.72,11.72,0,0,1,2.42,1.57c0-.2,0-.32,0-.32a15.07,15.07,0,0,0-1.91-1.51m-4.91-1.51a8.13,8.13,0,0,0-4.49,1.3,7.66,7.66,0,0,0-2.82,3.36,15.8,15.8,0,0,0-.56,3c0,.22,0,.43,0,.64v.24a7.88,7.88,0,0,0,0,.86,8.28,8.28,0,0,0,.14.93,6.28,6.28,0,0,0,5.48,4.43c.79.07,1.51.1,2.16.1,5,0,6.14-1.76,6.17-1.81a9.85,9.85,0,0,1-5.15,1.34,17.67,17.67,0,0,1-3.4-.37c-3.09-.6-4.1-11.91.87-13.05a8.46,8.46,0,0,1,1.83-.22,2.61,2.61,0,0,1-.23-.76"/><path class="cls-104" d="M67.37,49.69c0,.23,0,.54-.06.89s-.07.63-.14,1c0,.12,0,.24-.08.37A8.39,8.39,0,0,1,66,54.7a6.38,6.38,0,0,1-1.33,1.48s-.14,2.61,1.3,2.65c0,0-1.15.45-1.93-1A10.59,10.59,0,0,1,64.11,55c0-.2.07-.41.11-.63l.15-.66c0-.2.1-.41.16-.61a.29.29,0,0,0,0-.09,7.66,7.66,0,0,1,2.82-3.36Z"/><path class="cls-105" d="M67.09,51.94A8.39,8.39,0,0,1,66,54.7a5.6,5.6,0,0,1-1.84.34c0-.2.07-.41.11-.63l.29-.19a9.17,9.17,0,0,0,2.58-2.28Z"/><path class="cls-105" d="M67.31,50.58c0,.3-.07.63-.14,1-.62.5-2,1.61-2.8,2.18,0-.2.1-.41.16-.61a19,19,0,0,1,2.78-2.56Z"/><path class="cls-102" d="M73.62,60.65a7.89,7.89,0,0,1,1.15-.1h.56a4.08,4.08,0,0,1,.59,0,1.78,1.78,0,0,1-1.14.4,2.09,2.09,0,0,1-.61-.08,1.35,1.35,0,0,1-.55-.27Z"/><path class="cls-68" d="M63.36,58h0a.22.22,0,0,0-.2.08.35.35,0,0,0,0,.24,1.44,1.44,0,0,1,.55,1.18,1.12,1.12,0,1,1-2.19,0,1.28,1.28,0,0,1,1-1.35,2.45,2.45,0,0,1-.17-.19,1.4,1.4,0,0,1-.12-.18,1.78,1.78,0,0,0-1,1.72,1.47,1.47,0,1,0,2.87,0A1.91,1.91,0,0,0,63.36,58"/><path class="cls-69" d="M62.37,57.93a1.55,1.55,0,0,0-1,1.54,1.3,1.3,0,1,0,2.54,0,1.65,1.65,0,0,0-.7-1.42h0a.3.3,0,0,0,0,.15.28.28,0,0,0,0,.09,1.44,1.44,0,0,1,.55,1.18h0a1.12,1.12,0,1,1-2.18,0h0a1.29,1.29,0,0,1,1-1.35,2.45,2.45,0,0,1-.17-.19h0"/><path class="cls-98" d="M62,60.5a.37.37,0,1,1-.36-.36.36.36,0,0,1,.36.36Z"/><path class="cls-99" d="M62,60.47a.32.32,0,0,1-.64,0,.32.32,0,0,1,.64,0Z"/><path class="cls-100" d="M61.86,60.43a.24.24,0,1,1-.24-.24.24.24,0,0,1,.24.24Z"/><path class="cls-98" d="M62.58,61a.38.38,0,0,1-.37.37.37.37,0,0,1-.36-.37.36.36,0,0,1,.36-.36.37.37,0,0,1,.37.36Z"/><path class="cls-99" d="M62.51,60.93a.32.32,0,0,1-.32.33.33.33,0,0,1,0-.65.32.32,0,0,1,.32.32Z"/><path class="cls-100" d="M62.4,60.9a.23.23,0,0,1-.23.23.23.23,0,0,1-.24-.23.24.24,0,1,1,.47,0Z"/><path class="cls-98" d="M63.27,61.12a.37.37,0,1,1-.37-.37.37.37,0,0,1,.37.37Z"/><path class="cls-99" d="M63.2,61.08a.32.32,0,0,1-.32.32.33.33,0,0,1-.32-.32.32.32,0,0,1,.32-.32.32.32,0,0,1,.32.32Z"/><path class="cls-100" d="M63.09,61a.24.24,0,1,1-.24-.24.24.24,0,0,1,.24.24Z"/><path class="cls-98" d="M63.82,60.76a.36.36,0,0,1-.36.36.37.37,0,0,1-.37-.36.38.38,0,0,1,.37-.37.37.37,0,0,1,.36.37Z"/><path class="cls-99" d="M63.76,60.72a.32.32,0,1,1-.32-.32.32.32,0,0,1,.32.32Z"/><path class="cls-100" d="M63.65,60.68a.24.24,0,1,1-.24-.24.24.24,0,0,1,.24.24Z"/><path class="cls-102" d="M69.27,58.77a1.66,1.66,0,0,0,.73.44l.26.06h-.05a17,17,0,0,1,1.87-.22c.63,0,1.26,0,1.89,0s1.26.07,1.88.16c.31,0,.62.09.93.15l.47.11.23.05.11,0,.08,0h-.06a.84.84,0,0,0,.23-.09,1.84,1.84,0,0,0,.22-.17,1.44,1.44,0,0,0,.3-.51,1.19,1.19,0,0,1-.13.63,1.1,1.1,0,0,1-.2.28.82.82,0,0,1-.29.22h-.07l-1.88-.08-1.85-.06-1.85-.06-1.86-.1h0a1.2,1.2,0,0,1-.3-.15l-.26-.2a1.26,1.26,0,0,1-.35-.51Z"/><path class="cls-104" d="M67,61.08c.75.77,5.33.89,7.66-2.3,2.4,2.48,4.75,1.59,5,1s-.43-2-.78-1.71a.53.53,0,0,0-.12.69.3.3,0,0,1,.15-.35c.17-.06.5.67.3,1h0a.29.29,0,0,1-.29.12c-.72-.05-1.83-1.81-1.83-1.81a3.76,3.76,0,0,1-1.19-.24h0c-.28-.1-.47-.19-.47-.19l-.85.25-1-.28-.41.15a5.58,5.58,0,0,1-1.72.3S70,60.13,68.6,60.39a1.21,1.21,0,0,1-.42,0c-1-.16-.37-1.69.09-1.61s.43.49.43.49.39-.66-.48-1-2,2-1.27,2.81Z"/><path class="cls-105" d="M75.19,58.22a3.34,3.34,0,0,0,2.94,1.85c-1.34-.17-2.06-2-2.08-2.07a4.43,4.43,0,0,0,2.24,1.74c.6.16.8-.06.84-.33a.29.29,0,0,1-.29.12c-.72-.05-1.83-1.81-1.83-1.81a3.76,3.76,0,0,1-1.19-.24h0a1.86,1.86,0,0,0,.7,1.76,4.33,4.33,0,0,1-1.33-1Z"/><path class="cls-105" d="M68.18,60.39c.23.32.75.48,1.78.1A5.76,5.76,0,0,0,73,58a4.11,4.11,0,0,1-2.63,2.87s2.81-.41,3.69-2.66a4.49,4.49,0,0,1-1.4,1.24,1.85,1.85,0,0,0,.5-2.08,5.57,5.57,0,0,1-1.72.31S70,60.11,68.6,60.38a1.21,1.21,0,0,1-.42,0Z"/><path class="cls-100" d="M77.16,51.16a14.71,14.71,0,0,1-5.54-.43,3.9,3.9,0,0,0,.51.25,3.2,3.2,0,0,1-.76-.28,1.82,1.82,0,0,0,.82.47H72s1.22,1.21,5.53.36c0,0-1,.1-1.77.11a8.87,8.87,0,0,0,2-.39,7.74,7.74,0,0,1-1.34.1,4.18,4.18,0,0,0,.8-.18Z"/><path class="cls-100" d="M76.5,50.63a10.8,10.8,0,0,1-4.07-.31,2.05,2.05,0,0,0,.37.18,2.56,2.56,0,0,1-.56-.2,1.35,1.35,0,0,0,.61.34.55.55,0,0,1-.17,0s.9.9,4.08.27c0,0-.74.08-1.31.08a5.93,5.93,0,0,0,1.45-.29,6.2,6.2,0,0,1-1,.08,2.59,2.59,0,0,0,.58-.14Z"/><path class="cls-100" d="M76.41,51.9a10.73,10.73,0,0,1-4.08-.32,2.66,2.66,0,0,0,.37.19,2.42,2.42,0,0,1-.56-.21,1.39,1.39,0,0,0,.61.35h-.16s.89.9,4.07.26c0,0-.73.08-1.31.09A6.48,6.48,0,0,0,76.8,52a5.39,5.39,0,0,1-1,.07,2.53,2.53,0,0,0,.59-.13Z"/><path class="cls-106" d="M73.84,51.41a.54.54,0,1,0,.58-.49.54.54,0,0,0-.58.49Z"/><path class="cls-98" d="M80,61.74a.59.59,0,1,1-.59-.59.58.58,0,0,1,.59.59Z"/><path class="cls-99" d="M79.9,61.68a.52.52,0,1,1-.52-.52.51.51,0,0,1,.52.52Z"/><path class="cls-100" d="M79.72,61.62a.38.38,0,1,1-.38-.38.38.38,0,0,1,.38.38Z"/><path class="cls-98" d="M63.14,61.66a.58.58,0,0,1-.58.58.59.59,0,1,1,0-1.17.58.58,0,0,1,.58.59Z"/><path class="cls-99" d="M63,61.6a.51.51,0,1,1-.51-.52.51.51,0,0,1,.51.52Z"/><path class="cls-100" d="M62.86,61.54a.38.38,0,1,1-.38-.38.38.38,0,0,1,.38.38Z"/><path class="cls-98" d="M73.27,34.28l.63,3.86h0l.66,4.08.59.08.76-8.89a7.64,7.64,0,0,0-1.09,2.93s.16-2.36.35-3.19a6.58,6.58,0,0,0-.67,2l-.45-1.55,0,2.22a5.77,5.77,0,0,0-.83-1.5"/><path class="cls-100" d="M73.3,34.28l.63,3.86h0c.28.93.53,1.8.55,1.92,0-.22,0-2.31,0-2.31l.29,2,.21-3.08V40a51.6,51.6,0,0,1,1-6.61,7.64,7.64,0,0,0-1.09,2.93S75,34,75.2,33.16a6.58,6.58,0,0,0-.67,2l-.45-1.55,0,2.22a5.77,5.77,0,0,0-.83-1.5Z"/><path class="cls-68" d="M74.77,41.1s6.6,9.52-.23,9.29c0,0-6.23.43.23-9.29"/><path class="cls-69" d="M74.49,49.56c-.66,0-4.59-.3.28-7.62,0,0,5.28,7.62,0,7.62h-.29m.28-8.46c-.48.72-.88,1.38-1.23,2-.24.42-.45.81-.63,1.19a8.62,8.62,0,0,0-1.07,3.64,2.38,2.38,0,0,0,2.59,2.47h.35c2.14,0,2.86-1,2.86-2.41,0-2.75-2.87-6.89-2.87-6.89"/><path class="cls-107" d="M74.61,48.1c-.41,0-2.84-.18.17-4.7,0,0,3.26,4.71,0,4.71h-.17m.16-6.16c-4.87,7.32-.94,7.62-.28,7.62h.29c5.27,0,0-7.62,0-7.62"/><path class="cls-68" d="M74.78,43.4s3.34,4.82-.12,4.7c0,0-3.15.22.12-4.7"/><path class="cls-108" d="M74,47.46a1.21,1.21,0,0,0,.74.21c2.71.09.09-3.68.09-3.68-1.49,2.25-1.27,3.12-.83,3.47"/><path class="cls-109" d="M74.72,46.75c-.13,0-.89-.06.06-1.49,0,0,1,1.49,0,1.49h-.06m.06-2.09c-1.62,2.43-.32,2.53-.1,2.53h.1c1.75,0,0-2.53,0-2.53"/><path class="cls-110" d="M74.75,46.6c.8,0,0-1.08,0-1.08-.75,1.13,0,1.08,0,1.08Zm0-.83s.45.65,0,.64c0,0-.42,0,0-.64Z"/><path class="cls-98" d="M75.25,41.54a.48.48,0,0,1-.48.47.47.47,0,0,1,0-.94.48.48,0,0,1,.48.47Z"/><path class="cls-99" d="M75.16,41.49a.41.41,0,1,1-.82,0,.41.41,0,0,1,.82,0Z"/><path class="cls-100" d="M75,41.44a.31.31,0,0,1-.31.31.3.3,0,0,1-.3-.31.29.29,0,0,1,.3-.3.3.3,0,0,1,.31.3Z"/><path class="cls-98" d="M74.78,42.33a.47.47,0,0,1-.47.47.47.47,0,1,1,0-.94.47.47,0,0,1,.47.47Z"/><path class="cls-99" d="M74.7,42.28a.41.41,0,0,1-.42.41.41.41,0,0,1,0-.82.41.41,0,0,1,.42.41Z"/><path class="cls-100" d="M74.55,42.23a.3.3,0,0,1-.3.31.31.31,0,0,1-.31-.31.3.3,0,0,1,.31-.3.29.29,0,0,1,.3.3Z"/><path class="cls-98" d="M74.28,43.12a.47.47,0,1,1-.47-.47.47.47,0,0,1,.47.47Z"/><path class="cls-99" d="M74.2,43.07a.41.41,0,0,1-.41.41.41.41,0,1,1,0-.82.41.41,0,0,1,.41.41Z"/><path class="cls-100" d="M74.06,43a.31.31,0,0,1-.62,0,.31.31,0,0,1,.62,0Z"/><path class="cls-98" d="M73.85,43.92a.47.47,0,1,1-.47-.47.47.47,0,0,1,.47.47Z"/><path class="cls-99" d="M73.77,43.87a.41.41,0,1,1-.82,0,.41.41,0,1,1,.82,0Z"/><path class="cls-100" d="M73.63,43.82a.31.31,0,0,1-.31.31.31.31,0,0,1,0-.61.31.31,0,0,1,.31.3Z"/><path class="cls-98" d="M73.47,44.67A.48.48,0,1,1,73,44.2a.47.47,0,0,1,.47.47Z"/><path class="cls-99" d="M73.39,44.62A.42.42,0,0,1,73,45a.41.41,0,0,1-.41-.42.41.41,0,0,1,.41-.41.41.41,0,0,1,.42.41Z"/><path class="cls-100" d="M73.24,44.57a.31.31,0,1,1-.61,0,.31.31,0,0,1,.61,0Z"/><path class="cls-98" d="M73.2,45.39a.47.47,0,1,1-.47-.47.47.47,0,0,1,.47.47Z"/><path class="cls-99" d="M73.12,45.34a.42.42,0,1,1-.42-.41.42.42,0,0,1,.42.41Z"/><path class="cls-100" d="M73,45.3a.29.29,0,0,1-.3.3.3.3,0,0,1-.31-.3.31.31,0,0,1,.31-.31.3.3,0,0,1,.3.31Z"/><path class="cls-98" d="M75.75,42.29a.47.47,0,1,1-.47-.47.47.47,0,0,1,.47.47Z"/><path class="cls-99" d="M75.67,42.24a.41.41,0,1,1-.41-.41.41.41,0,0,1,.41.41Z"/><path class="cls-100" d="M75.53,42.19a.31.31,0,0,1-.31.31.3.3,0,0,1-.3-.31.29.29,0,0,1,.3-.3.3.3,0,0,1,.31.3Z"/><path class="cls-98" d="M76.2,43.05a.48.48,0,0,1-.48.47.47.47,0,1,1,0-.94.48.48,0,0,1,.48.47Z"/><path class="cls-99" d="M76.11,43a.41.41,0,1,1-.41-.41.41.41,0,0,1,.41.41Z"/><path class="cls-100" d="M76,43a.31.31,0,0,1-.31.3.31.31,0,0,1,0-.61A.31.31,0,0,1,76,43Z"/><path class="cls-98" d="M76.61,43.87a.47.47,0,1,1-.47-.47.47.47,0,0,1,.47.47Z"/><path class="cls-99" d="M76.53,43.82a.42.42,0,1,1-.41-.41.41.41,0,0,1,.41.41Z"/><path class="cls-100" d="M76.39,43.77a.31.31,0,1,1-.31-.31.31.31,0,0,1,.31.31Z"/><path class="cls-98" d="M77,44.69a.47.47,0,1,1-.47-.47.47.47,0,0,1,.47.47Z"/><path class="cls-99" d="M77,44.64a.41.41,0,0,1-.41.42.42.42,0,1,1,0-.83.41.41,0,0,1,.41.41Z"/><path class="cls-100" d="M76.82,44.6a.31.31,0,1,1-.31-.31.31.31,0,0,1,.31.31Z"/><path class="cls-98" d="M77.32,45.52a.47.47,0,1,1-.47-.47.47.47,0,0,1,.47.47Z"/><path class="cls-99" d="M77.24,45.47a.41.41,0,0,1-.41.42.42.42,0,0,1-.42-.42.41.41,0,0,1,.42-.41.41.41,0,0,1,.41.41Z"/><path class="cls-100" d="M77.1,45.42a.31.31,0,1,1-.31-.3.31.31,0,0,1,.31.3Z"/><path class="cls-98" d="M77.6,46.36a.47.47,0,1,1-.94,0,.47.47,0,0,1,.94,0Z"/><path class="cls-99" d="M77.52,46.32a.41.41,0,1,1-.41-.42.41.41,0,0,1,.41.42Z"/><path class="cls-100" d="M77.38,46.27a.3.3,0,0,1-.31.3.29.29,0,0,1-.3-.3.3.3,0,0,1,.3-.31.31.31,0,0,1,.31.31Z"/><path class="cls-98" d="M77.83,47.23a.47.47,0,1,1-.47-.47.47.47,0,0,1,.47.47Z"/><path class="cls-99" d="M77.75,47.19a.42.42,0,1,1-.41-.42.42.42,0,0,1,.41.42Z"/><path class="cls-100" d="M77.61,47.14a.31.31,0,0,1-.62,0,.31.31,0,0,1,.62,0Z"/><path class="cls-98" d="M77.88,48.16a.47.47,0,1,1-.47-.47.47.47,0,0,1,.47.47Z"/><path class="cls-99" d="M77.8,48.11a.41.41,0,0,1-.82,0,.41.41,0,1,1,.82,0Z"/><path class="cls-100" d="M77.66,48.06a.31.31,0,0,1-.31.31.31.31,0,0,1,0-.62.31.31,0,0,1,.31.31Z"/><path class="cls-98" d="M77.59,49a.47.47,0,0,1-.94,0,.47.47,0,1,1,.94,0Z"/><path class="cls-99" d="M77.51,49a.42.42,0,0,1-.83,0,.42.42,0,1,1,.83,0Z"/><path class="cls-100" d="M77.36,48.93a.3.3,0,0,1-.3.31.31.31,0,0,1,0-.62.3.3,0,0,1,.3.31Z"/><path class="cls-98" d="M76.93,49.61a.47.47,0,1,1-.94,0,.47.47,0,0,1,.94,0Z"/><path class="cls-99" d="M76.85,49.57a.41.41,0,1,1-.41-.42.41.41,0,0,1,.41.42Z"/><path class="cls-100" d="M76.71,49.52a.3.3,0,0,1-.31.3.29.29,0,0,1-.3-.3.3.3,0,0,1,.3-.31.31.31,0,0,1,.31.31Z"/><path class="cls-98" d="M76.06,49.92a.47.47,0,1,1-.47-.47.47.47,0,0,1,.47.47Z"/><path class="cls-99" d="M76,49.87a.41.41,0,1,1-.41-.41.41.41,0,0,1,.41.41Z"/><path class="cls-100" d="M75.84,49.83a.31.31,0,0,1-.31.3.31.31,0,0,1,0-.61.31.31,0,0,1,.31.31Z"/><path class="cls-98" d="M75.14,50a.47.47,0,1,1-.47-.47.47.47,0,0,1,.47.47Z"/><path class="cls-99" d="M75.06,50a.41.41,0,0,1-.41.41.41.41,0,1,1,0-.82.41.41,0,0,1,.41.41Z"/><path class="cls-100" d="M74.92,49.93a.31.31,0,0,1-.62,0,.31.31,0,0,1,.62,0Z"/><path class="cls-98" d="M74.22,49.94a.47.47,0,0,1-.94,0,.47.47,0,1,1,.94,0Z"/><path class="cls-99" d="M74.14,49.89a.42.42,0,0,1-.83,0,.42.42,0,1,1,.83,0Z"/><path class="cls-100" d="M74,49.84a.3.3,0,0,1-.3.31.31.31,0,1,1,0-.62.3.3,0,0,1,.3.31Z"/><path class="cls-98" d="M73.35,49.61a.47.47,0,1,1-.94,0,.47.47,0,0,1,.94,0Z"/><path class="cls-99" d="M73.27,49.57a.42.42,0,1,1-.42-.42.42.42,0,0,1,.42.42Z"/><path class="cls-100" d="M73.12,49.52a.29.29,0,0,1-.3.3.3.3,0,0,1-.31-.3.31.31,0,0,1,.31-.31.3.3,0,0,1,.3.31Z"/><path class="cls-98" d="M72.79,48.91a.47.47,0,0,1-.47.47.48.48,0,0,1-.48-.47.49.49,0,0,1,.48-.48.48.48,0,0,1,.47.48Z"/><path class="cls-99" d="M72.71,48.86a.41.41,0,0,1-.42.41.41.41,0,0,1-.41-.41.41.41,0,0,1,.41-.42.42.42,0,0,1,.42.42Z"/><path class="cls-100" d="M72.56,48.81a.3.3,0,0,1-.3.31.31.31,0,1,1,0-.62.3.3,0,0,1,.3.31Z"/><path class="cls-98" d="M72.61,48a.47.47,0,0,1-.94,0,.47.47,0,1,1,.94,0Z"/><path class="cls-99" d="M72.53,47.91a.41.41,0,1,1-.82,0,.41.41,0,1,1,.82,0Z"/><path class="cls-100" d="M72.39,47.86a.31.31,0,0,1-.31.31.31.31,0,0,1,0-.62.31.31,0,0,1,.31.31Z"/><path class="cls-98" d="M72.71,47a.47.47,0,0,1-.47.47.47.47,0,1,1,0-.94.47.47,0,0,1,.47.47Z"/><path class="cls-99" d="M72.63,46.93a.41.41,0,0,1-.42.41.41.41,0,1,1,0-.82.41.41,0,0,1,.42.41Z"/><path class="cls-100" d="M72.48,46.88a.3.3,0,0,1-.3.31.31.31,0,0,1-.31-.31.3.3,0,0,1,.31-.3.29.29,0,0,1,.3.3Z"/><path class="cls-98" d="M73,46.11a.47.47,0,1,1-.47-.47.47.47,0,0,1,.47.47Z"/><path class="cls-99" d="M72.88,46.06a.41.41,0,0,1-.41.41.41.41,0,1,1,0-.82.41.41,0,0,1,.41.41Z"/><path class="cls-100" d="M72.74,46a.31.31,0,0,1-.62,0,.31.31,0,0,1,.62,0Z"/><path class="cls-110" d="M74,47.46a1.79,1.79,0,0,0,.35-.34c-.92-.58.47-2.46.47-2.46V44c-1.49,2.25-1.28,3.12-.83,3.47Z"/><path class="cls-111" d="M72.8,56.78c0,.48.74.86,1.65.86s1.64-.39,1.64-.87-.74-.87-1.65-.87-1.64.4-1.64.88Z"/><path class="cls-102" d="M72.8,56.75c.09.35.42.46.71.55a3.28,3.28,0,0,0,.94.12,3.65,3.65,0,0,0,.93-.12c.29-.1.62-.21.71-.56a.59.59,0,0,1-.13.53,1.4,1.4,0,0,1-.45.35,2.48,2.48,0,0,1-2.13,0,1.49,1.49,0,0,1-.45-.34.62.62,0,0,1-.13-.53Z"/><path d="M51.35,153.45s-5.69,1.18-6.09.12a14.32,14.32,0,0,1-.27-3.43,27.31,27.31,0,0,0,3.73-.74c.34.26.7.45,1.07.68,1.25.78,1.56,3.37,1.56,3.37Z"/><path d="M121.87,150.16l-.31.08-.11,0-4.62.76c-.07-6.42,1.15-5.43,3.46-5.57a23.06,23.06,0,0,0,1.58,4.71Z"/></svg>