<svg id="गठरी" xmlns="http://www.w3.org/2000/svg" viewBox="0 0 150 160"><defs><style>.cls-1{fill:#fff;}.cls-2{fill:#fecd50;}.cls-3{fill:#a45b32;}.cls-4{fill:#fbaf3f;}</style></defs><path class="cls-1" d="M135.84,64.44a2.8,2.8,0,0,0-.48,0l-.69.13V61.54l.28.13a2.51,2.51,0,0,0,1.08.24,2.52,2.52,0,0,0,1.07-4.81l-4.85-2.28a11.67,11.67,0,0,0-1.84-1.94,17.1,17.1,0,0,1,2.65-1,2.45,2.45,0,0,0,1.53-1.17,2.48,2.48,0,0,0,.26-1.92,2.52,2.52,0,0,0-1.17-1.54,2.6,2.6,0,0,0-1.27-.34,2.37,2.37,0,0,0-.65.09,22.67,22.67,0,0,0-7,3.24,12.61,12.61,0,0,0-2-.15h-8.49a2.54,2.54,0,0,0-2.52-2.31,2.56,2.56,0,0,0-1.17.29l-3.85,2h-2.65a2.53,2.53,0,0,0-2.3-3.59h-.21a2.53,2.53,0,0,0-1.72.89l-2.28,2.7H92.18l-.67-3.36a2.48,2.48,0,0,0-1.07-1.6,2.51,2.51,0,0,0-1.4-.43,2.83,2.83,0,0,0-.5,0,2.52,2.52,0,0,0-2,3L87,50.14H80.81a2.53,2.53,0,0,0-.42-2.5,2.52,2.52,0,0,0-1.94-.92,2.59,2.59,0,0,0-1.62.58l-3.41,2.84H70.8a37.67,37.67,0,0,0-3.35-2.73A2.49,2.49,0,0,0,66,46.93h-.25l-.15,0a2.5,2.5,0,0,0-2.1,2.89,1.5,1.5,0,0,0,.06.29H53.4a2.53,2.53,0,0,0-2.11-3.91,2.5,2.5,0,0,0-1.94.9l-2.53,3H37.23l-.75-2.09a2.54,2.54,0,0,0-2.38-1.67,2.51,2.51,0,0,0-.86.15,2.54,2.54,0,0,0-1.52,3.24l.13.37H28.61a11.83,11.83,0,0,0-6.09,1.68,4,4,0,0,1-.46-.86,2.53,2.53,0,0,0-2.36-1.63,2.46,2.46,0,0,0-.89.16,2.53,2.53,0,0,0-1.48,3.26,8.82,8.82,0,0,0,1.5,2.54,11.73,11.73,0,0,0-1.77,4,11.88,11.88,0,0,0-3.66,1.27A2.53,2.53,0,0,0,15.84,65a7.44,7.44,0,0,1,.91-.41v8c-.25-.31-.49-.63-.72-.95a2.55,2.55,0,0,0-1.65-1l-.24,0H14a2.5,2.5,0,0,0-1.47.47,2.53,2.53,0,0,0-.58,3.53,25.2,25.2,0,0,0,4.83,5.06v1.88a13.45,13.45,0,0,1-2-.51A2.5,2.5,0,0,0,14,80.9a2.53,2.53,0,0,0-.82,4.92,17.81,17.81,0,0,0,3.59.83v.68l-1.49-.74a2.47,2.47,0,0,0-1.13-.27,2.44,2.44,0,0,0-.8.13,2.49,2.49,0,0,0-1.46,1.26A2.53,2.53,0,0,0,13,91.11L16.75,93v4.14c0,.34,0,.68,0,1l-2.16.28a2.53,2.53,0,0,0,.32,5h.2l3.18-.41a11.57,11.57,0,0,0,.87,1.32,2.53,2.53,0,0,0-.38,1.2,14.73,14.73,0,0,0,1.76,7.72,2.52,2.52,0,0,0,3.43,1,2.51,2.51,0,0,0,1-3.43,9.48,9.48,0,0,1-1-2.78,11.82,11.82,0,0,0,4.56.91h3.52l-.27.26a2.5,2.5,0,0,0-.78,1.78,2.45,2.45,0,0,0,.7,1.8,2.53,2.53,0,0,0,3.57.08l3.85-3.69a1.51,1.51,0,0,0,.21-.23h4.5a2.48,2.48,0,0,0-.55,1.35,2.46,2.46,0,0,0,.56,1.85,2.5,2.5,0,0,0,1.95.92,2.53,2.53,0,0,0,1.61-.57l4.3-3.55h5.43a13.4,13.4,0,0,0,3.7,3.42,2.53,2.53,0,0,0,3.79-2.74,2.68,2.68,0,0,0-.27-.68h6.81a2.56,2.56,0,0,0-.54,1.21,2.54,2.54,0,0,0,4,2.44A22.67,22.67,0,0,0,78.62,109h6.14a2.57,2.57,0,0,0-.32.93,2.52,2.52,0,0,0,2.5,2.87,2.51,2.51,0,0,0,1.53-.51l4.1-3.11.2-.18h2.38l.23,3.88a2.54,2.54,0,0,0,2.53,2.38h.15a2.51,2.51,0,0,0,2.37-2.67l-.21-3.58h12.65l-.31.34a2.52,2.52,0,0,0,1.84,4.25,2.57,2.57,0,0,0,1.85-.79l3.56-3.79h3a11.73,11.73,0,0,0,6.49-2l.45,2.13a2.54,2.54,0,0,0,2.47,2,2.06,2.06,0,0,0,.52-.06,2.51,2.51,0,0,0,1.6-1.09,2.54,2.54,0,0,0,.36-1.9l-1-4.9a2.21,2.21,0,0,0-.29-.75,11.48,11.48,0,0,0,.92-2.39,11.46,11.46,0,0,0,1.17-.06,2.54,2.54,0,0,0,1.7-.92,2.57,2.57,0,0,0,.56-1.85A2.54,2.54,0,0,0,135.21,95h-.15l-.39,0V86a2.52,2.52,0,0,0,.59-4.64l-.59-.33V69.77l1.66-.32a2.52,2.52,0,0,0,1.61-1.07,2.49,2.49,0,0,0,.39-1.89A2.53,2.53,0,0,0,135.84,64.44Z"/><path class="cls-2" d="M49.13,52.14,48,53.54a.52.52,0,0,1-.41.18.54.54,0,0,1-.34-.12.52.52,0,0,1-.06-.74l.6-.72H40.89V107H49.4l.81-.66A.52.52,0,0,1,51,107h7.29a.53.53,0,0,1,0-.28.51.51,0,0,1,.24-.32.52.52,0,0,1,.72.16l.3.44H62V52.14Zm3,15.92a.53.53,0,0,1,.74-.1,16.13,16.13,0,0,1,3.88,4.23.46.46,0,0,1,.07.39.51.51,0,0,1-.51.42.53.53,0,0,1-.45-.25,15.34,15.34,0,0,0-3.63-4,.51.51,0,0,1-.1-.74Zm-6-3.42a.51.51,0,0,1-.15-.37.51.51,0,0,1,.16-.37l4.91-4.75a.54.54,0,0,1,.75,0,.55.55,0,0,1,.15.38.57.57,0,0,1-.16.37l-4.91,4.75a.55.55,0,0,1-.37.14A.49.49,0,0,1,46.14,64.64ZM47.36,85a.53.53,0,0,1-.39-.18.49.49,0,0,1-.13-.38A.53.53,0,0,1,47,84l4.42-3.92a.51.51,0,0,1,.74,0,.5.5,0,0,1,.14.38.55.55,0,0,1-.18.37l-4.42,3.92A.5.5,0,0,1,47.36,85Zm6.52,12a.52.52,0,0,1-.48.3.48.48,0,0,1-.23,0l-4.74-2.29a.54.54,0,0,1-.25-.71.51.51,0,0,1,.3-.26.53.53,0,0,1,.41,0l4.74,2.29a.5.5,0,0,1,.27.3A.51.51,0,0,1,53.88,96.91Zm3.29-6.47a13.88,13.88,0,0,0-.45,5.21.54.54,0,0,1-.48.58h-.05a.53.53,0,0,1-.53-.47,15.32,15.32,0,0,1,.49-5.6.53.53,0,1,1,1,.28Z"/><path class="cls-2" d="M75.79,52.14,74.4,53.29a.55.55,0,0,1-.34.13.54.54,0,0,1-.53-.58.56.56,0,0,1,.19-.36l.42-.34H70l.39.37a.57.57,0,0,1,.16.37.58.58,0,0,1-.15.38.57.57,0,0,1-.38.16.56.56,0,0,1-.37-.15c-.4-.39-.8-.77-1.22-1.13h-4V107H76.31c.14-.16.27-.32.4-.49a.57.57,0,0,1,.36-.2.55.55,0,0,1,.39.12.48.48,0,0,1,.19.35.53.53,0,0,1,0,.22h7.91V52.14ZM78.85,87.9a.51.51,0,0,1,.24.33l1,4.25a.53.53,0,0,1-.4.64h-.12a.53.53,0,0,1-.51-.41l-1-4.25a.53.53,0,0,1,.39-.64A.51.51,0,0,1,78.85,87.9Zm-4-24.54A.52.52,0,0,1,75,63a.56.56,0,0,1,.4-.08.55.55,0,0,1,.33.23L78.22,67a.49.49,0,0,1,.08.39.54.54,0,0,1-.23.34.57.57,0,0,1-.29.08.52.52,0,0,1-.44-.24l-2.45-3.76A.52.52,0,0,1,74.81,63.36ZM67.3,66.62a21.18,21.18,0,0,1,3.08-4.15.52.52,0,0,1,.74,0,.48.48,0,0,1,.17.37.51.51,0,0,1-.15.37,20.49,20.49,0,0,0-2.92,4,.53.53,0,0,1-.46.27.48.48,0,0,1-.26-.07.5.5,0,0,1-.25-.32A.51.51,0,0,1,67.3,66.62Zm4.2,30.51a11.62,11.62,0,0,0-3.9,3.77.51.51,0,0,1-.73.16.53.53,0,0,1-.16-.73A12.75,12.75,0,0,1,71,96.22a.52.52,0,0,1,.72.18A.53.53,0,0,1,71.5,97.13Zm.23-14.47a.49.49,0,0,1-.32-.12.53.53,0,0,1-.09-.74l3.77-4.74a.52.52,0,0,1,.35-.2.54.54,0,0,1,.39.11.52.52,0,0,1,.08.74l-3.76,4.75A.55.55,0,0,1,71.73,82.66Zm8.35,19.45a.53.53,0,0,1-.51.37.4.4,0,0,1-.15,0l-3.76-1.15a.51.51,0,0,1-.31-.26.51.51,0,0,1,0-.4.52.52,0,0,1,.66-.35l3.76,1.15A.54.54,0,0,1,80.08,102.11Z"/><path class="cls-2" d="M35.82,52.14l.25.68a.53.53,0,0,1-.32.68.57.57,0,0,1-.18,0,.54.54,0,0,1-.5-.35l-.37-1H28.61a9.77,9.77,0,0,0-6.28,2.26.52.52,0,0,1,.18.31.54.54,0,0,1-.52.62.47.47,0,0,1-.3-.1l-.15-.1a9.83,9.83,0,0,0-2.75,6c.26,0,.51,0,.77,0a.55.55,0,0,1,.37.18.52.52,0,0,1,.13.38.53.53,0,0,1-.55.5,6.43,6.43,0,0,0-.76,0V77.34c.41.32.82.62,1.25.91a.57.57,0,0,1,.22.34.53.53,0,0,1-.08.39.54.54,0,0,1-.44.24.62.62,0,0,1-.3-.09l-.65-.46v5H19a.52.52,0,0,1,.53.52.52.52,0,0,1-.52.53h-.3v5.79l.52.26a.53.53,0,0,1,.27.3.58.58,0,0,1,0,.41.52.52,0,0,1-.47.29.5.5,0,0,1-.24-.06l-.05,0v5.38a10.23,10.23,0,0,0,.38,2.73l.83-.11a.5.5,0,0,1,.39.11.52.52,0,0,1,.2.35.53.53,0,0,1-.46.59l-.6.08A9.85,9.85,0,0,0,28.61,107h8.5a.54.54,0,0,1,.68,0h.64V52.14Zm-12,13.17a.52.52,0,0,1-.29-.09.49.49,0,0,1-.23-.33.52.52,0,0,1,.08-.4,14.58,14.58,0,0,1,3.73-3.9.52.52,0,0,1,.4-.09.51.51,0,0,1,.34.21.54.54,0,0,1-.12.74,13.58,13.58,0,0,0-3.47,3.62A.51.51,0,0,1,23.79,65.31Zm1.5,15.61a.52.52,0,0,1-.17-.72l3.11-5.07a.53.53,0,0,1,.33-.24A.51.51,0,0,1,29,75a.52.52,0,0,1,.17.72L26,80.75a.53.53,0,0,1-.45.25A.46.46,0,0,1,25.29,80.92Zm1.1,14a.52.52,0,0,1-.32-.11.53.53,0,0,1-.1-.74l3.76-4.91a.54.54,0,0,1,.74-.1.52.52,0,0,1,.1.74L26.81,94.7A.53.53,0,0,1,26.39,94.91Zm5.24,7.23a.48.48,0,0,1-.29.27l-3.44,1.31a.39.39,0,0,1-.18,0,.54.54,0,0,1-.5-.34.53.53,0,0,1,.31-.68L31,101.43a.52.52,0,0,1,.67.71Zm4-6.43a.57.57,0,0,1-.18,0,.54.54,0,0,1-.5-.34,18.84,18.84,0,0,1-1.18-5.56.53.53,0,0,1,.5-.55.48.48,0,0,1,.38.13.5.5,0,0,1,.18.36A17.83,17.83,0,0,0,35.9,95,.54.54,0,0,1,35.59,95.71Zm.47-16.1a.5.5,0,0,1-.52.44.53.53,0,0,1-.43-.22L32.45,76.1a.57.57,0,0,1-.09-.4.53.53,0,0,1,.22-.34.53.53,0,0,1,.39-.09.56.56,0,0,1,.35.21L36,79.22A.49.49,0,0,1,36.06,79.61Zm0-11a.55.55,0,0,1-.37.14.51.51,0,0,1-.38-.16l-3.76-3.92a.53.53,0,1,1,.76-.74l3.76,3.93A.53.53,0,0,1,36.1,68.6Z"/><path class="cls-2" d="M107.25,53.34a.54.54,0,0,1-.25.06.53.53,0,0,1-.24-1l.51-.26H99.93l-1.29,1.53a.53.53,0,0,1-.41.19.55.55,0,0,1-.34-.13.52.52,0,0,1-.06-.74l.72-.85h-8l.16.76a.56.56,0,0,1-.08.4.54.54,0,0,1-.34.23h-.1a.53.53,0,0,1-.52-.43l-.19-1H88V107h2.38l.34-.25a.52.52,0,0,1,.74.1,1.09,1.09,0,0,1,.08.15h5.54a.52.52,0,0,1,.1-.18.55.55,0,0,1,.37-.18.53.53,0,0,1,.38.13.51.51,0,0,1,.15.23h11V52.37ZM90.93,65.13l2.62-3.76a.52.52,0,0,1,.86.6L91.8,65.74a.54.54,0,0,1-.44.22.52.52,0,0,1-.43-.83Zm3.66,30a24.82,24.82,0,0,0-2.89,6.25.52.52,0,0,1-.5.37.39.39,0,0,1-.15,0,.54.54,0,0,1-.32-.25.58.58,0,0,1,0-.41,26,26,0,0,1,3-6.51.52.52,0,0,1,.33-.23.51.51,0,0,1,.4.07.55.55,0,0,1,.23.33A.56.56,0,0,1,94.59,95.17Zm2.35-17.42L92.36,82a.54.54,0,0,1-.36.14.55.55,0,0,1-.39-.16.54.54,0,0,1,0-.75L96.22,77A.53.53,0,0,1,97,77,.53.53,0,0,1,96.94,77.75ZM101.66,96a.49.49,0,0,1-.27.31.46.46,0,0,1-.23.06.53.53,0,0,1-.47-.3l-2.13-4.25a.53.53,0,0,1,.24-.71.52.52,0,0,1,.71.24l2.12,4.25A.56.56,0,0,1,101.66,96Zm2.07-24.75a.5.5,0,0,1-.26.08.52.52,0,0,1-.46-.27l-2.78-4.74a.55.55,0,0,1-.06-.4.5.5,0,0,1,.25-.32.51.51,0,0,1,.4-.06.55.55,0,0,1,.32.24l2.78,4.75A.52.52,0,0,1,103.73,71.29Z"/><path class="cls-2" d="M130,56.54a.51.51,0,0,1,.29-.27.53.53,0,0,1,.41,0l.25.12a9.89,9.89,0,0,0-4.47-3.58l-.41.3a.51.51,0,0,1-.32.1.54.54,0,0,1-.42-.21.53.53,0,0,1-.1-.4.49.49,0,0,1,.06-.17,9.55,9.55,0,0,0-2.47-.31H111.55V107h6l.08-.09a.53.53,0,0,1,.75,0,.31.31,0,0,1,.09.11h4.39a9.86,9.86,0,0,0,9.83-9,10.49,10.49,0,0,1-2-.47.52.52,0,0,1-.34-.66.53.53,0,0,1,.67-.34,10.13,10.13,0,0,0,1.71.41V83.37l-3.12-1.77a.53.53,0,0,1,.12-1,.55.55,0,0,1,.4.05l2.6,1.48v-14l-1.61.31H131a.53.53,0,0,1-.52-.43.52.52,0,0,1,.42-.61l1.81-.36V62a9.92,9.92,0,0,0-.84-4l-1.59-.74A.53.53,0,0,1,130,56.54Zm-11.34,4.93a.5.5,0,0,1,.18-.36.53.53,0,0,1,.38-.13.57.57,0,0,1,.37.18l3.1,3.6a.52.52,0,0,1,.13.39.5.5,0,0,1-.18.36.55.55,0,0,1-.34.13.51.51,0,0,1-.4-.19l-3.11-3.6A.48.48,0,0,1,118.65,61.47ZM113,67.6a.53.53,0,0,1,.73.18l1.8,2.94a.54.54,0,0,1-.45.81.51.51,0,0,1-.45-.26l-1.8-2.94A.52.52,0,0,1,113,67.6Zm-.3,26.14a.54.54,0,0,1,.74-.1,14.24,14.24,0,0,0,4.72,2.4.52.52,0,0,1,.32.26.55.55,0,0,1,0,.4.54.54,0,0,1-.51.38l-.15,0a15.5,15.5,0,0,1-5.07-2.58A.53.53,0,0,1,112.71,93.74Zm5.94,8.51a.54.54,0,0,1-.34.23,18.2,18.2,0,0,0-4.83,1.77.53.53,0,0,1-.71-.21.54.54,0,0,1,.21-.72,19.5,19.5,0,0,1,5.11-1.88.52.52,0,0,1,.4.08.49.49,0,0,1,.23.33A.56.56,0,0,1,118.65,102.25Zm2.53-19.92a.56.56,0,0,1-.19.36l-4.09,3.44a.54.54,0,0,1-.34.12.53.53,0,0,1-.34-.93l4.09-3.44a.52.52,0,0,1,.74.07A.53.53,0,0,1,121.18,82.33Zm0-9.55a.49.49,0,0,1-.23.06.55.55,0,0,1-.48-.3.53.53,0,0,1,0-.41.51.51,0,0,1,.26-.3A16.81,16.81,0,0,0,124.87,69a.51.51,0,0,1,.37-.15.54.54,0,0,1,.35.92A17.41,17.41,0,0,1,121.21,72.78Zm1.86,18.62a.52.52,0,0,1,1,.06l1.52,4.4a.51.51,0,0,1,0,.4.53.53,0,0,1-.3.27.57.57,0,0,1-.18,0,.51.51,0,0,1-.49-.36L123,91.8A.51.51,0,0,1,123.07,91.4Zm5.16,13a.57.57,0,0,1-.38.16h-.07a6.09,6.09,0,0,1-3.16-.9.54.54,0,0,1-.17-.73.53.53,0,0,1,.73-.17,5,5,0,0,0,2.66.74h0a.53.53,0,0,1,.54.52A.58.58,0,0,1,128.23,104.42Z"/><rect class="cls-3" x="38.43" y="52.14" width="2.45" height="54.86"/><rect class="cls-3" x="61.99" y="52.14" width="2.45" height="54.86"/><rect class="cls-3" x="85.54" y="52.14" width="2.45" height="54.86"/><polygon class="cls-3" points="109.55 52.13 109.1 52.37 109.1 106.99 111.55 106.99 111.55 52.13 109.55 52.13"/><path class="cls-4" d="M51.43,59.43a.11.11,0,0,0-.08,0l-4.9,4.74a.1.1,0,0,0,.07.18.09.09,0,0,0,.07,0l4.91-4.74a.1.1,0,0,0,0-.08.09.09,0,0,0,0-.07A.09.09,0,0,0,51.43,59.43Z"/><path class="cls-4" d="M51.8,59.91a.57.57,0,0,0,.16-.37.55.55,0,0,0-.15-.38.54.54,0,0,0-.75,0L46.15,63.9a.51.51,0,0,0-.16.37.51.51,0,0,0,.15.37.49.49,0,0,0,.38.16.55.55,0,0,0,.37-.14Zm-5.28,4.68a.33.33,0,0,1-.23-.09.32.32,0,0,1,0-.45l4.91-4.75a.32.32,0,1,1,.44.46L46.74,64.5A.31.31,0,0,1,46.52,64.59Z"/><path class="cls-4" d="M51.66,59.31a.33.33,0,0,0-.45,0L46.3,64.05a.32.32,0,0,0,0,.45.33.33,0,0,0,.23.09.31.31,0,0,0,.22-.09l4.91-4.74A.33.33,0,0,0,51.66,59.31Zm-.16.3-4.91,4.74a.09.09,0,0,1-.07,0,.1.1,0,0,1-.07-.18l4.9-4.74a.11.11,0,0,1,.08,0,.09.09,0,0,1,.07,0,.09.09,0,0,1,0,.07A.1.1,0,0,1,51.5,59.61Z"/><path class="cls-4" d="M52.52,68.46a15.76,15.76,0,0,1,3.74,4.07.12.12,0,0,0,.15,0,.09.09,0,0,0,0-.07s0,0,0-.08a15.79,15.79,0,0,0-3.79-4.11.09.09,0,0,0-.06,0,.11.11,0,0,0-.09,0A.11.11,0,0,0,52.52,68.46Z"/><path class="cls-4" d="M52.27,68.8a15.34,15.34,0,0,1,3.63,4,.53.53,0,0,0,.45.25.51.51,0,0,0,.51-.42.46.46,0,0,0-.07-.39A16.13,16.13,0,0,0,52.91,68a.53.53,0,0,0-.74.1.51.51,0,0,0,.1.74Zm.06-.61a.32.32,0,0,1,.45-.06,16.06,16.06,0,0,1,3.84,4.17.32.32,0,0,1-.1.44.34.34,0,0,1-.17.05.31.31,0,0,1-.27-.15,15.32,15.32,0,0,0-3.69-4A.32.32,0,0,1,52.33,68.19Z"/><path class="cls-4" d="M52.39,68.63a15.32,15.32,0,0,1,3.69,4,.31.31,0,0,0,.27.15.34.34,0,0,0,.17-.05.32.32,0,0,0,.1-.44,16.06,16.06,0,0,0-3.84-4.17.32.32,0,0,0-.45.06A.32.32,0,0,0,52.39,68.63Zm.11-.31a.11.11,0,0,1,.09,0,.09.09,0,0,1,.06,0,15.79,15.79,0,0,1,3.79,4.11s0,.07,0,.08a.09.09,0,0,1,0,.07.12.12,0,0,1-.15,0,15.76,15.76,0,0,0-3.74-4.07A.11.11,0,0,1,52.5,68.32Z"/><path class="cls-4" d="M51.78,80.4a.08.08,0,0,0-.07,0l-4.42,3.93a.09.09,0,0,0,0,.07.13.13,0,0,0,0,.08.11.11,0,0,0,.08,0,.1.1,0,0,0,.07,0l4.42-3.93s0-.06,0-.07a.16.16,0,0,0,0-.08A.11.11,0,0,0,51.78,80.4Z"/><path class="cls-4" d="M52.31,80.53a.5.5,0,0,0-.14-.38.51.51,0,0,0-.74,0L47,84a.53.53,0,0,0-.17.37.49.49,0,0,0,.13.38.53.53,0,0,0,.39.18.5.5,0,0,0,.35-.14l4.42-3.92A.55.55,0,0,0,52.31,80.53Zm-.32.21-4.42,3.93a.32.32,0,0,1-.21.08.32.32,0,0,1-.21-.56l4.42-3.93a.32.32,0,0,1,.42.48Z"/><path class="cls-4" d="M51.57,80.26l-4.42,3.93a.32.32,0,0,0,.21.56.32.32,0,0,0,.21-.08L52,80.74a.32.32,0,0,0-.42-.48Zm.28.32-4.42,3.93a.1.1,0,0,1-.07,0,.11.11,0,0,1-.08,0,.13.13,0,0,1,0-.08.09.09,0,0,1,0-.07l4.42-3.93a.08.08,0,0,1,.07,0,.11.11,0,0,1,.08,0,.16.16,0,0,1,0,.08S51.88,80.55,51.85,80.58Z"/><path class="cls-4" d="M56.69,90.2h0a.12.12,0,0,0-.1.08,14.71,14.71,0,0,0-.48,5.44.11.11,0,1,0,.22,0,14.26,14.26,0,0,1,.46-5.36A.09.09,0,0,0,56.69,90.2Z"/><path class="cls-4" d="M56.8,89.79a.53.53,0,0,0-.65.37,15.32,15.32,0,0,0-.49,5.6.53.53,0,0,0,.53.47h.05a.54.54,0,0,0,.48-.58,13.88,13.88,0,0,1,.45-5.21A.53.53,0,0,0,56.8,89.79Zm.17.6a14,14,0,0,0-.46,5.28.32.32,0,0,1-.29.35h0a.32.32,0,0,1-.32-.29,14.93,14.93,0,0,1,.49-5.52.33.33,0,0,1,.39-.22A.33.33,0,0,1,57,90.39Z"/><path class="cls-4" d="M56.75,90a.33.33,0,0,0-.39.22,14.93,14.93,0,0,0-.49,5.52.32.32,0,0,0,.32.29h0a.32.32,0,0,0,.29-.35A14,14,0,0,1,57,90.39.33.33,0,0,0,56.75,90Zm0,.34a14.26,14.26,0,0,0-.46,5.36.11.11,0,1,1-.22,0,14.71,14.71,0,0,1,.48-5.44.12.12,0,0,1,.1-.08h0A.09.09,0,0,1,56.76,90.33Z"/><path class="cls-4" d="M53.45,96.59,48.7,94.3h-.08a.17.17,0,0,0-.06.06.11.11,0,0,0,0,.14l4.75,2.29h0a.1.1,0,0,0,.1-.06.08.08,0,0,0,0-.08S53.48,96.61,53.45,96.59Z"/><path class="cls-4" d="M53.63,96.21l-4.74-2.29a.53.53,0,0,0-.41,0,.51.51,0,0,0-.3.26.54.54,0,0,0,.25.71l4.74,2.29a.48.48,0,0,0,.23,0,.52.52,0,0,0,.48-.3.51.51,0,0,0,0-.4A.5.5,0,0,0,53.63,96.21Zm.06.61a.32.32,0,0,1-.29.18.31.31,0,0,1-.13,0l-4.75-2.29a.32.32,0,1,1,.28-.57l4.74,2.29A.31.31,0,0,1,53.69,96.82Z"/><path class="cls-4" d="M53.54,96.4,48.8,94.11a.32.32,0,1,0-.28.57L53.27,97a.31.31,0,0,0,.13,0,.32.32,0,0,0,.29-.18A.31.31,0,0,0,53.54,96.4Zm0,.33a.1.1,0,0,1-.1.06h0l-4.75-2.29a.11.11,0,0,1,0-.14.17.17,0,0,1,.06-.06h.08l4.75,2.29s0,0,0,.06A.08.08,0,0,1,53.5,96.73Z"/><path class="cls-4" d="M34.37,89.81a.29.29,0,0,0,0-.08.1.1,0,0,0-.07,0h0a.1.1,0,0,0-.09.11,18,18,0,0,0,1.15,5.43.1.1,0,0,0,.13.06.1.1,0,0,0,.07-.13A18,18,0,0,1,34.37,89.81Z"/><path class="cls-4" d="M34.79,89.78a.5.5,0,0,0-.18-.36.48.48,0,0,0-.38-.13.53.53,0,0,0-.5.55,18.84,18.84,0,0,0,1.18,5.56.54.54,0,0,0,.5.34.57.57,0,0,0,.18,0A.54.54,0,0,0,35.9,95,17.83,17.83,0,0,1,34.79,89.78Zm.73,5.73-.11,0a.32.32,0,0,1-.3-.21,18.76,18.76,0,0,1-1.17-5.49.32.32,0,0,1,.3-.33.32.32,0,0,1,.34.3,17.85,17.85,0,0,0,1.12,5.3A.32.32,0,0,1,35.52,95.51Z"/><path class="cls-4" d="M34.58,89.8a.32.32,0,0,0-.34-.3.32.32,0,0,0-.3.33,18.76,18.76,0,0,0,1.17,5.49.32.32,0,0,0,.3.21l.11,0a.32.32,0,0,0,.18-.41A17.85,17.85,0,0,1,34.58,89.8Zm.86,5.51a.1.1,0,0,1-.13-.06,18,18,0,0,1-1.15-5.43.1.1,0,0,1,.09-.11h0a.1.1,0,0,1,.07,0,.29.29,0,0,1,0,.08,18,18,0,0,0,1.14,5.37A.1.1,0,0,1,35.44,95.31Z"/><path class="cls-4" d="M30.22,89.39a.08.08,0,0,0-.07,0,.09.09,0,0,0-.08,0l-3.76,4.91a.09.09,0,0,0,0,.14.09.09,0,0,0,.06,0,.12.12,0,0,0,.08,0l3.77-4.91A.12.12,0,0,0,30.22,89.39Z"/><path class="cls-4" d="M30.47,89.05a.54.54,0,0,0-.74.1L26,94.06a.53.53,0,0,0,.1.74.52.52,0,0,0,.32.11.53.53,0,0,0,.42-.21l3.76-4.91A.52.52,0,0,0,30.47,89.05Zm-.07.62-3.76,4.9a.3.3,0,0,1-.25.13.26.26,0,0,1-.19-.07.31.31,0,0,1-.06-.44l3.76-4.91a.32.32,0,0,1,.45-.06A.33.33,0,0,1,30.4,89.67Z"/><path class="cls-4" d="M30.35,89.22a.32.32,0,0,0-.45.06l-3.76,4.91a.31.31,0,0,0,.06.44.26.26,0,0,0,.19.07.3.3,0,0,0,.25-.13l3.76-4.9A.33.33,0,0,0,30.35,89.22Zm-.11.32-3.77,4.91a.12.12,0,0,1-.08,0,.09.09,0,0,1-.06,0,.09.09,0,0,1,0-.14l3.76-4.91a.09.09,0,0,1,.08,0,.08.08,0,0,1,.07,0A.12.12,0,0,1,30.24,89.54Z"/><path class="cls-4" d="M28.74,75.32a.07.07,0,0,0-.06,0h0a.15.15,0,0,0-.07,0l-3.11,5.07a.08.08,0,0,0,0,.08.09.09,0,0,0,0,.06.11.11,0,0,0,.15,0l3.11-5.07a.13.13,0,0,0,0-.08A.22.22,0,0,0,28.74,75.32Z"/><path class="cls-4" d="M26,80.75l3.11-5.07A.52.52,0,0,0,29,75a.51.51,0,0,0-.4-.07.53.53,0,0,0-.33.24L25.12,80.2a.52.52,0,0,0,.17.72.46.46,0,0,0,.28.08A.53.53,0,0,0,26,80.75Zm-.45,0a.26.26,0,0,1-.17-.05.31.31,0,0,1-.1-.43l3.11-5.07a.31.31,0,0,1,.44-.1.31.31,0,0,1,.1.43l-3.11,5.07A.32.32,0,0,1,25.57,80.79Z"/><path class="cls-4" d="M28.85,75.14a.31.31,0,0,0-.44.1L25.3,80.31a.31.31,0,0,0,.1.43.26.26,0,0,0,.17.05.32.32,0,0,0,.27-.15L29,75.57A.31.31,0,0,0,28.85,75.14Zm-.08.32-3.11,5.07a.11.11,0,0,1-.15,0,.09.09,0,0,1,0-.06.08.08,0,0,1,0-.08l3.11-5.07a.15.15,0,0,1,.07,0h0a.07.07,0,0,1,.06,0,.22.22,0,0,1,.05.06A.13.13,0,0,1,28.77,75.46Z"/><path class="cls-4" d="M33,75.73a.09.09,0,0,0-.07,0h0l-.07,0a.13.13,0,0,0,0,.07.13.13,0,0,0,0,.08l2.66,3.74a.09.09,0,0,0,.08,0,.07.07,0,0,0,.06,0,.15.15,0,0,0,0-.07.17.17,0,0,0,0-.08Z"/><path class="cls-4" d="M33.32,75.48a.56.56,0,0,0-.35-.21.53.53,0,0,0-.39.09.53.53,0,0,0-.22.34.57.57,0,0,0,.09.4l2.66,3.73a.53.53,0,0,0,.43.22.5.5,0,0,0,.52-.44.49.49,0,0,0-.09-.39Zm2.41,4.3a.33.33,0,0,1-.19.06.3.3,0,0,1-.26-.13L32.63,76a.32.32,0,0,1,.07-.44.31.31,0,0,1,.44.08l2.66,3.73A.32.32,0,0,1,35.73,79.78Z"/><path class="cls-4" d="M33.14,75.61a.31.31,0,0,0-.44-.08.32.32,0,0,0-.07.44l2.65,3.74a.3.3,0,0,0,.26.13.33.33,0,0,0,.19-.06.32.32,0,0,0,.07-.44Zm2.51,3.93a.15.15,0,0,1,0,.07.07.07,0,0,1-.06,0,.09.09,0,0,1-.08,0L32.8,75.85a.13.13,0,0,1,0-.08.13.13,0,0,1,0-.07l.07,0h0a.09.09,0,0,1,.07,0l2.66,3.73A.17.17,0,0,1,35.65,79.54Z"/><path class="cls-4" d="M27.41,60.91h0l-.06,0a14.38,14.38,0,0,0-3.63,3.79s0,.07,0,.08a.09.09,0,0,0,0,.07.11.11,0,0,0,.15,0,13.82,13.82,0,0,1,3.57-3.74.1.1,0,0,0,0-.14Z"/><path class="cls-4" d="M27.7,61.45a.54.54,0,0,0,.12-.74.51.51,0,0,0-.34-.21.52.52,0,0,0-.4.09,14.58,14.58,0,0,0-3.73,3.9.52.52,0,0,0-.08.4.49.49,0,0,0,.23.33.52.52,0,0,0,.29.09.51.51,0,0,0,.44-.24A13.58,13.58,0,0,1,27.7,61.45ZM24.06,65a.33.33,0,0,1-.27.15.34.34,0,0,1-.17,0,.32.32,0,0,1-.1-.44,14.38,14.38,0,0,1,3.69-3.85.32.32,0,0,1,.44.07.32.32,0,0,1-.08.45A13.62,13.62,0,0,0,24.06,65Z"/><path class="cls-4" d="M27.65,60.83a.32.32,0,0,0-.44-.07,14.38,14.38,0,0,0-3.69,3.85.32.32,0,0,0,.1.44.34.34,0,0,0,.17,0,.33.33,0,0,0,.27-.15,13.62,13.62,0,0,1,3.51-3.67A.32.32,0,0,0,27.65,60.83Zm-.2.27a13.82,13.82,0,0,0-3.57,3.74.11.11,0,0,1-.15,0,.09.09,0,0,1,0-.07s0,0,0-.08a14.38,14.38,0,0,1,3.63-3.79l.06,0h0l.07.05A.1.1,0,0,1,27.45,61.1Z"/><path class="cls-4" d="M32.05,64.22a.12.12,0,0,0-.08,0,.09.09,0,0,0-.07,0,.11.11,0,0,0,0,.15l3.77,3.93a.08.08,0,0,0,.07,0,.11.11,0,0,0,.08,0,.11.11,0,0,0,0-.15Z"/><path class="cls-4" d="M32.35,63.92a.53.53,0,1,0-.76.74l3.76,3.92a.51.51,0,0,0,.38.16.55.55,0,0,0,.37-.14.53.53,0,0,0,0-.75ZM36,68.45a.34.34,0,0,1-.45,0l-3.76-3.93a.32.32,0,0,1,.46-.44L36,68A.32.32,0,0,1,36,68.45Z"/><path class="cls-4" d="M32.2,64.07a.32.32,0,0,0-.46.44l3.76,3.93a.34.34,0,0,0,.45,0A.32.32,0,0,0,36,68Zm3.61,4.22a.11.11,0,0,1-.08,0,.08.08,0,0,1-.07,0l-3.77-3.93a.11.11,0,0,1,0-.15.09.09,0,0,1,.07,0,.12.12,0,0,1,.08,0l3.76,3.92A.11.11,0,0,1,35.81,68.29Z"/><path class="cls-4" d="M31.2,101.82h-.09l-3.43,1.31a.09.09,0,0,0-.06.06.07.07,0,0,0,0,.08.1.1,0,0,0,.13.06L31.19,102a.09.09,0,0,0,.06-.06s0,0,0-.08A.16.16,0,0,0,31.2,101.82Z"/><path class="cls-4" d="M31.37,101.44a.53.53,0,0,0-.41,0l-3.43,1.31a.53.53,0,0,0-.31.68.54.54,0,0,0,.5.34.39.39,0,0,0,.18,0l3.44-1.31a.48.48,0,0,0,.29-.27.51.51,0,0,0-.26-.7Zm-.1.78-3.44,1.31-.11,0a.32.32,0,0,1-.3-.21.33.33,0,0,1,.18-.41L31,101.62a.32.32,0,0,1,.41.19A.33.33,0,0,1,31.27,102.22Z"/><path class="cls-4" d="M31,101.62l-3.44,1.31a.33.33,0,0,0-.18.41.32.32,0,0,0,.3.21l.11,0,3.44-1.31a.33.33,0,0,0,.18-.41A.32.32,0,0,0,31,101.62Zm.21.34a.09.09,0,0,1-.06.06l-3.44,1.31a.1.1,0,0,1-.13-.06.07.07,0,0,1,0-.08.09.09,0,0,1,.06-.06l3.43-1.31h.09a.16.16,0,0,1,.05.06S31.26,102,31.25,102Z"/><path class="cls-4" d="M67.71,67l.05,0a.11.11,0,0,0,.09-.06,21,21,0,0,1,3-4,.1.1,0,0,0,0-.15.09.09,0,0,0-.07,0,.12.12,0,0,0-.08,0,21,21,0,0,0-3,4.07.08.08,0,0,0,0,.08A.06.06,0,0,0,67.71,67Z"/><path class="cls-4" d="M67.5,67.34a.48.48,0,0,0,.26.07.53.53,0,0,0,.46-.27,20.49,20.49,0,0,1,2.92-4,.51.51,0,0,0,.15-.37.48.48,0,0,0-.17-.37.52.52,0,0,0-.74,0,21.18,21.18,0,0,0-3.08,4.15.51.51,0,0,0,0,.4A.5.5,0,0,0,67.5,67.34Zm0-.61a21.24,21.24,0,0,1,3-4.12.33.33,0,0,1,.45,0,.32.32,0,0,1,0,.45,20.64,20.64,0,0,0-3,4,.3.3,0,0,1-.27.16.29.29,0,0,1-.16,0A.32.32,0,0,1,67.48,66.73Z"/><path class="cls-4" d="M67.6,67.16a.29.29,0,0,0,.16,0A.3.3,0,0,0,68,67a20.64,20.64,0,0,1,3-4,.32.32,0,0,0,0-.45.33.33,0,0,0-.45,0,21.24,21.24,0,0,0-3,4.12A.32.32,0,0,0,67.6,67.16Zm.07-.33a21,21,0,0,1,3-4.07.12.12,0,0,1,.08,0,.09.09,0,0,1,.07,0,.1.1,0,0,1,0,.15,21,21,0,0,0-3,4,.11.11,0,0,1-.09.06l-.05,0a.06.06,0,0,1,0-.06A.08.08,0,0,1,67.67,66.83Z"/><path class="cls-4" d="M77.69,67.29a.11.11,0,0,0,.15,0,.22.22,0,0,0,0-.06.13.13,0,0,0,0-.08l-2.45-3.77a.09.09,0,0,0-.07,0h-.08a.15.15,0,0,0,0,.07.13.13,0,0,0,0,.08Z"/><path class="cls-4" d="M77.34,67.52a.52.52,0,0,0,.44.24.57.57,0,0,0,.29-.08.54.54,0,0,0,.23-.34.49.49,0,0,0-.08-.39l-2.45-3.77a.55.55,0,0,0-.33-.23A.56.56,0,0,0,75,63a.52.52,0,0,0-.15.73Zm-2.19-4.31a.31.31,0,0,1,.44.09l2.46,3.76a.33.33,0,0,1-.09.44.31.31,0,0,1-.18,0,.31.31,0,0,1-.26-.14l-2.46-3.77A.32.32,0,0,1,75.15,63.21Z"/><path class="cls-4" d="M77.52,67.41a.31.31,0,0,0,.26.14.31.31,0,0,0,.18,0,.33.33,0,0,0,.09-.44L75.59,63.3a.31.31,0,0,0-.44-.09.32.32,0,0,0-.09.43Zm-2.3-4a.15.15,0,0,1,0-.07h.08a.09.09,0,0,1,.07,0l2.45,3.77a.13.13,0,0,1,0,.08.22.22,0,0,1,0,.06.11.11,0,0,1-.15,0l-2.45-3.76A.13.13,0,0,1,75.22,63.45Z"/><path class="cls-4" d="M75.57,77.3a.11.11,0,0,0-.07,0h0a.09.09,0,0,0-.07,0l-3.77,4.74a.11.11,0,0,0,0,.15.08.08,0,0,0,.06,0,.1.1,0,0,0,.09,0l3.76-4.74A.11.11,0,0,0,75.57,77.3Z"/><path class="cls-4" d="M75.83,77a.54.54,0,0,0-.39-.11.52.52,0,0,0-.35.2L71.32,81.8a.53.53,0,0,0,.09.74.49.49,0,0,0,.32.12.55.55,0,0,0,.42-.2l3.76-4.75A.52.52,0,0,0,75.83,77Zm-.08.61L72,82.33a.33.33,0,0,1-.25.12.34.34,0,0,1-.19-.07.32.32,0,0,1-.05-.45l3.76-4.74a.32.32,0,0,1,.45,0A.31.31,0,0,1,75.75,77.58Z"/><path class="cls-4" d="M75.7,77.14a.32.32,0,0,0-.45,0l-3.76,4.74a.32.32,0,0,0,.05.45.34.34,0,0,0,.19.07.33.33,0,0,0,.25-.12l3.77-4.75A.31.31,0,0,0,75.7,77.14Zm-.12.31-3.76,4.74a.1.1,0,0,1-.09,0,.08.08,0,0,1-.06,0,.11.11,0,0,1,0-.15l3.77-4.74a.09.09,0,0,1,.07,0h0a.11.11,0,0,1,.07,0A.11.11,0,0,1,75.58,77.45Z"/><path class="cls-4" d="M79.45,92.62a.1.1,0,0,0,.13.08.1.1,0,0,0,.08-.12l-1-4.26a.15.15,0,0,0-.05-.06.08.08,0,0,0-.06,0h0a.11.11,0,0,0-.08.13Z"/><path class="cls-4" d="M78.06,88.47l1,4.25a.53.53,0,0,0,.51.41h.12a.53.53,0,0,0,.4-.64l-1-4.25a.54.54,0,0,0-.64-.4A.53.53,0,0,0,78.06,88.47ZM78.5,88a.32.32,0,0,1,.38.24l1,4.25a.31.31,0,0,1-.23.38h-.08a.31.31,0,0,1-.3-.25l-1-4.25A.32.32,0,0,1,78.5,88Z"/><path class="cls-4" d="M79.25,92.67a.31.31,0,0,0,.3.25h.08a.31.31,0,0,0,.23-.38l-1-4.25a.32.32,0,0,0-.62.14Zm-.7-4.43h0a.08.08,0,0,1,.06,0,.15.15,0,0,1,.05.06l1,4.26a.1.1,0,0,1-.08.12.1.1,0,0,1-.13-.08l-1-4.25A.11.11,0,0,1,78.55,88.24Z"/><path class="cls-4" d="M71.23,96.57h0a12.32,12.32,0,0,0-4.11,4,.11.11,0,0,0,0,.15.11.11,0,0,0,.15,0,12.15,12.15,0,0,1,4-3.91.1.1,0,0,0,0-.14A.09.09,0,0,0,71.23,96.57Z"/><path class="cls-4" d="M71,96.22a12.75,12.75,0,0,0-4.25,4.11.53.53,0,0,0,.16.73.51.51,0,0,0,.73-.16,11.62,11.62,0,0,1,3.9-3.77.53.53,0,0,0,.18-.73A.52.52,0,0,0,71,96.22Zm.43.72a12,12,0,0,0-4,3.85.31.31,0,0,1-.26.14.33.33,0,0,1-.17,0,.32.32,0,0,1-.1-.44,12.45,12.45,0,0,1,4.18-4,.31.31,0,1,1,.32.54Z"/><path class="cls-4" d="M71.07,96.4a12.45,12.45,0,0,0-4.18,4,.32.32,0,0,0,.1.44.33.33,0,0,0,.17,0,.31.31,0,0,0,.26-.14,12,12,0,0,1,4-3.85.31.31,0,1,0-.32-.54Zm.21.36a12.15,12.15,0,0,0-4,3.91.11.11,0,0,1-.15,0,.11.11,0,0,1,0-.15,12.32,12.32,0,0,1,4.11-4h0a.09.09,0,0,1,.09.05A.1.1,0,0,1,71.28,96.76Z"/><path class="cls-4" d="M79.6,101.85l-3.76-1.16h0a.12.12,0,0,0-.1.07.09.09,0,0,0,0,.08.1.1,0,0,0,.06,0l3.76,1.16a.1.1,0,1,0,.06-.2Z"/><path class="cls-4" d="M79.73,101.44,76,100.29a.52.52,0,0,0-.66.35.51.51,0,0,0,0,.4.51.51,0,0,0,.31.26l3.76,1.15a.4.4,0,0,0,.15,0,.53.53,0,0,0,.51-.37A.54.54,0,0,0,79.73,101.44Zm.15.6a.33.33,0,0,1-.31.23l-.09,0-3.76-1.15a.32.32,0,0,1-.21-.4.32.32,0,0,1,.4-.21l3.76,1.16A.32.32,0,0,1,79.88,102Z"/><path class="cls-4" d="M79.67,101.65l-3.76-1.16a.32.32,0,0,0-.4.21.32.32,0,0,0,.21.4l3.76,1.15.09,0a.33.33,0,0,0,.31-.23A.32.32,0,0,0,79.67,101.65Zm0,.33a.1.1,0,0,1-.13.07l-3.76-1.16a.1.1,0,0,1-.06,0,.09.09,0,0,1,0-.08.12.12,0,0,1,.1-.07h0l3.76,1.16A.1.1,0,0,1,79.67,102Z"/><path class="cls-4" d="M91.3,65.52a.08.08,0,0,0,.06,0,.13.13,0,0,0,.09,0l2.62-3.77a.1.1,0,0,0,0-.14.07.07,0,0,0-.06,0,.11.11,0,0,0-.09,0l-2.61,3.76A.1.1,0,0,0,91.3,65.52Z"/><path class="cls-4" d="M91.06,65.87a.53.53,0,0,0,.3.09.54.54,0,0,0,.44-.22L94.41,62a.52.52,0,0,0-.86-.6l-2.62,3.76A.53.53,0,0,0,91.06,65.87Zm0-.62,2.62-3.76a.32.32,0,0,1,.52.36l-2.62,3.77a.33.33,0,0,1-.26.13.41.41,0,0,1-.18,0A.33.33,0,0,1,91.1,65.25Z"/><path class="cls-4" d="M91.18,65.7a.41.41,0,0,0,.18,0,.33.33,0,0,0,.26-.13l2.62-3.77a.32.32,0,0,0-.52-.36L91.1,65.25A.33.33,0,0,0,91.18,65.7Zm.1-.33,2.61-3.76a.11.11,0,0,1,.09,0,.07.07,0,0,1,.06,0,.1.1,0,0,1,0,.14L91.45,65.5a.13.13,0,0,1-.09,0,.08.08,0,0,1-.06,0A.1.1,0,0,1,91.28,65.37Z"/><path class="cls-4" d="M100.77,66a.07.07,0,0,0-.06-.05h-.08a.15.15,0,0,0,0,.07.13.13,0,0,0,0,.08l2.78,4.74a.11.11,0,1,0,.19-.11Z"/><path class="cls-4" d="M101.14,65.82a.55.55,0,0,0-.32-.24.51.51,0,0,0-.4.06.5.5,0,0,0-.25.32.55.55,0,0,0,.06.4L103,71.1a.52.52,0,0,0,.46.27.5.5,0,0,0,.26-.08.52.52,0,0,0,.19-.72Zm2.49,5.29a.34.34,0,0,1-.16,0,.32.32,0,0,1-.28-.15l-2.78-4.75a.31.31,0,0,1,.11-.43.32.32,0,0,1,.44.11l2.78,4.75A.31.31,0,0,1,103.63,71.11Z"/><path class="cls-4" d="M101,65.93a.32.32,0,0,0-.44-.11.31.31,0,0,0-.11.43L103.19,71a.32.32,0,0,0,.28.15.34.34,0,0,0,.16,0,.31.31,0,0,0,.11-.43Zm2.56,5a.11.11,0,0,1-.15,0l-2.78-4.74a.13.13,0,0,1,0-.08.15.15,0,0,1,0-.07h.08a.07.07,0,0,1,.06.05l2.79,4.74A.11.11,0,0,1,103.52,70.93Z"/><path class="cls-4" d="M96.58,77.26l-.07,0-4.58,4.26a.11.11,0,0,0,0,.15.1.1,0,0,0,.08,0,.07.07,0,0,0,.07,0l4.58-4.25a.1.1,0,0,0,0-.15A.11.11,0,0,0,96.58,77.26Z"/><path class="cls-4" d="M96.22,77l-4.58,4.25a.54.54,0,0,0,0,.75.55.55,0,0,0,.39.16.54.54,0,0,0,.36-.14l4.58-4.25A.53.53,0,0,0,97,77,.53.53,0,0,0,96.22,77Zm.58.61-4.58,4.26a.3.3,0,0,1-.22.08.3.3,0,0,1-.23-.1.32.32,0,0,1,0-.45l4.58-4.25a.31.31,0,0,1,.43.46Z"/><path class="cls-4" d="M96.37,77.13l-4.58,4.25a.32.32,0,0,0,0,.45.3.3,0,0,0,.23.1.3.3,0,0,0,.22-.08l4.58-4.26a.31.31,0,0,0-.43-.46Zm.28.31-4.58,4.25a.07.07,0,0,1-.07,0,.1.1,0,0,1-.08,0,.11.11,0,0,1,0-.15l4.58-4.26.07,0a.11.11,0,0,1,.08,0A.1.1,0,0,1,96.65,77.44Z"/><path class="cls-4" d="M99.13,91.57a.12.12,0,0,0-.09,0H99a.06.06,0,0,0,0,.06.07.07,0,0,0,0,.08l2.12,4.25a.11.11,0,0,0,.1.06h0a.1.1,0,0,0,0-.14Z"/><path class="cls-4" d="M99.51,91.39a.52.52,0,0,0-.71-.24.53.53,0,0,0-.24.71l2.13,4.25a.53.53,0,0,0,.47.3.46.46,0,0,0,.23-.06.49.49,0,0,0,.27-.31.56.56,0,0,0,0-.4Zm1.79,4.77a.32.32,0,0,1-.14,0,.3.3,0,0,1-.28-.17l-2.13-4.26a.32.32,0,0,1,.57-.28l2.12,4.26A.31.31,0,0,1,101.3,96.16Z"/><path class="cls-4" d="M99.32,91.48a.32.32,0,0,0-.57.28L100.88,96a.3.3,0,0,0,.28.17.32.32,0,0,0,.14,0,.31.31,0,0,0,.14-.42ZM101.21,96h0a.11.11,0,0,1-.1-.06l-2.12-4.25a.07.07,0,0,1,0-.08.06.06,0,0,1,0-.06H99a.12.12,0,0,1,.09,0l2.12,4.26A.1.1,0,0,1,101.21,96Z"/><path class="cls-4" d="M94.2,94.8a.07.07,0,0,0-.06,0h0l-.07,0a25.19,25.19,0,0,0-3,6.41.1.1,0,0,0,.07.13.12.12,0,0,0,.13-.07,25.15,25.15,0,0,1,2.93-6.36.13.13,0,0,0,0-.08A.22.22,0,0,0,94.2,94.8Z"/><path class="cls-4" d="M94.43,94.44a.51.51,0,0,0-.4-.07.52.52,0,0,0-.33.23,26,26,0,0,0-3,6.51.58.58,0,0,0,0,.41.54.54,0,0,0,.32.25.39.39,0,0,0,.15,0,.52.52,0,0,0,.5-.37,24.82,24.82,0,0,1,2.89-6.25.56.56,0,0,0,.07-.4A.55.55,0,0,0,94.43,94.44Zm0,.62a24.7,24.7,0,0,0-2.91,6.3.32.32,0,0,1-.3.22h-.09a.32.32,0,0,1-.22-.4,25.8,25.8,0,0,1,3-6.46.32.32,0,0,1,.44-.09A.33.33,0,0,1,94.41,95.06Z"/><path class="cls-4" d="M94.32,94.62a.32.32,0,0,0-.44.09,25.8,25.8,0,0,0-3,6.46.32.32,0,0,0,.22.4h.09a.32.32,0,0,0,.3-.22,24.7,24.7,0,0,1,2.91-6.3A.33.33,0,0,0,94.32,94.62Zm-.09.32a25.15,25.15,0,0,0-2.93,6.36.12.12,0,0,1-.13.07.1.1,0,0,1-.07-.13,25.19,25.19,0,0,1,3-6.41l.07,0h0a.07.07,0,0,1,.06,0,.22.22,0,0,1,0,.06A.13.13,0,0,1,94.23,94.94Z"/><path class="cls-4" d="M115,71.05a.1.1,0,0,0,.14,0,.11.11,0,0,0,0-.15L113.38,68a.12.12,0,0,0-.09,0h-.06a.11.11,0,0,0,0,.15Z"/><path class="cls-4" d="M114.64,71.27a.51.51,0,0,0,.45.26.54.54,0,0,0,.45-.81l-1.8-2.94a.53.53,0,0,0-.73-.18.52.52,0,0,0-.17.73Zm-1.52-3.49a.32.32,0,0,1,.44.11l1.8,2.94a.32.32,0,0,1-.11.44.32.32,0,0,1-.16,0,.31.31,0,0,1-.27-.15L113,68.22A.31.31,0,0,1,113.12,67.78Z"/><path class="cls-4" d="M114.82,71.16a.31.31,0,0,0,.27.15.32.32,0,0,0,.16,0,.32.32,0,0,0,.11-.44l-1.8-2.94a.32.32,0,0,0-.44-.11.31.31,0,0,0-.1.44ZM113.23,68h.06a.12.12,0,0,1,.09,0l1.8,2.94a.11.11,0,0,1,0,.15.1.1,0,0,1-.14,0l-1.8-2.94A.11.11,0,0,1,113.23,68Z"/><path class="cls-4" d="M122.2,65.18a.12.12,0,0,0,.09,0,.08.08,0,0,0,.06,0,.13.13,0,0,0,0-.07.1.1,0,0,0,0-.08l-3.1-3.6a.12.12,0,0,0-.08,0h0a.11.11,0,0,0-.07,0,.09.09,0,0,0,0,.07.1.1,0,0,0,0,.08Z"/><path class="cls-4" d="M121.89,65.45a.51.51,0,0,0,.4.19.55.55,0,0,0,.34-.13.5.5,0,0,0,.18-.36.52.52,0,0,0-.13-.39l-3.1-3.6a.57.57,0,0,0-.37-.18.53.53,0,0,0-.38.13.5.5,0,0,0-.18.36.48.48,0,0,0,.13.38ZM119,61.27a.32.32,0,0,1,.45,0l3.1,3.6a.32.32,0,0,1,0,.45.31.31,0,0,1-.2.07.35.35,0,0,1-.25-.1l-3.1-3.6A.32.32,0,0,1,119,61.27Z"/><path class="cls-4" d="M122,65.32a.35.35,0,0,0,.25.1.31.31,0,0,0,.2-.07.32.32,0,0,0,0-.45l-3.1-3.6a.32.32,0,1,0-.48.42Zm-3-3.82a.09.09,0,0,1,0-.07.11.11,0,0,1,.07,0h0a.12.12,0,0,1,.08,0l3.1,3.6a.1.1,0,0,1,0,.08.13.13,0,0,1,0,.07.08.08,0,0,1-.06,0,.12.12,0,0,1-.09,0l-3.1-3.6A.1.1,0,0,1,119.07,61.5Z"/><path class="cls-4" d="M125.23,69.26h0a.07.07,0,0,0-.07,0,17.08,17.08,0,0,1-4.23,2.92.12.12,0,0,0-.05.06.08.08,0,0,0,0,.08.1.1,0,0,0,.1.06h0a17.05,17.05,0,0,0,4.28-3,.11.11,0,0,0,0-.15A.1.1,0,0,0,125.23,69.26Z"/><path class="cls-4" d="M125.61,69a.54.54,0,0,0-.37-.17.51.51,0,0,0-.37.15,16.81,16.81,0,0,1-4.13,2.85.51.51,0,0,0-.26.3.53.53,0,0,0,0,.41.55.55,0,0,0,.48.3.49.49,0,0,0,.23-.06,17.41,17.41,0,0,0,4.38-3A.53.53,0,0,0,125.61,69Zm-.16.59a17.08,17.08,0,0,1-4.34,3,.31.31,0,0,1-.13,0,.32.32,0,0,1-.29-.17.32.32,0,0,1,.15-.43A16.64,16.64,0,0,0,125,69.13a.33.33,0,0,1,.45,0A.32.32,0,0,1,125.45,69.59Z"/><path class="cls-4" d="M125,69.13A16.64,16.64,0,0,1,120.84,72a.32.32,0,0,0-.15.43.32.32,0,0,0,.29.17.31.31,0,0,0,.13,0,17.08,17.08,0,0,0,4.34-3,.32.32,0,0,0,0-.45A.33.33,0,0,0,125,69.13Zm.29.31a17.05,17.05,0,0,1-4.28,3h0a.1.1,0,0,1-.1-.06.08.08,0,0,1,0-.08.12.12,0,0,1,.05-.06,17.08,17.08,0,0,0,4.23-2.92.07.07,0,0,1,.07,0h0a.1.1,0,0,1,.08,0A.11.11,0,0,1,125.3,69.44Z"/><path class="cls-4" d="M120.65,82.18a.09.09,0,0,0-.07,0l-4.09,3.43a.11.11,0,0,0,0,.15.12.12,0,0,0,.08,0l.07,0,4.09-3.43a.09.09,0,0,0,0-.07.09.09,0,0,0,0-.08A.09.09,0,0,0,120.65,82.18Z"/><path class="cls-4" d="M120.31,81.88l-4.09,3.44a.53.53,0,0,0,.34.93.54.54,0,0,0,.34-.12L121,82.69a.56.56,0,0,0,.19-.36.53.53,0,0,0-.13-.38A.52.52,0,0,0,120.31,81.88Zm.54.65L116.76,86a.31.31,0,0,1-.2.07.32.32,0,0,1-.21-.56L120.44,82a.33.33,0,0,1,.45,0A.32.32,0,0,1,120.85,82.53Z"/><path class="cls-4" d="M120.44,82l-4.09,3.44a.32.32,0,0,0,.21.56.31.31,0,0,0,.2-.07l4.09-3.44a.32.32,0,0,0,0-.45A.33.33,0,0,0,120.44,82Zm.31.26a.09.09,0,0,1,0,.07l-4.09,3.43-.07,0a.12.12,0,0,1-.08,0,.11.11,0,0,1,0-.15l4.09-3.43a.1.1,0,0,1,.15,0A.09.09,0,0,1,120.75,82.3Z"/><path class="cls-4" d="M125.1,96.13a.1.1,0,0,0,.06,0,.08.08,0,0,0,0-.08l-1.52-4.4a.09.09,0,0,0-.1-.07h0a.07.07,0,0,0-.06.06.09.09,0,0,0,0,.08l1.52,4.4A.11.11,0,0,0,125.1,96.13Z"/><path class="cls-4" d="M125.06,96.56a.57.57,0,0,0,.18,0,.53.53,0,0,0,.3-.27.51.51,0,0,0,0-.4L124,91.46a.52.52,0,0,0-1-.06.51.51,0,0,0,0,.4l1.53,4.4A.51.51,0,0,0,125.06,96.56Zm-1.62-5.23a.31.31,0,0,1,.4.2l1.52,4.4a.32.32,0,0,1-.19.4l-.11,0a.32.32,0,0,1-.3-.21l-1.52-4.41A.31.31,0,0,1,123.44,91.33Z"/><path class="cls-4" d="M125.06,96.35l.11,0a.32.32,0,0,0,.19-.4l-1.52-4.4a.32.32,0,0,0-.6.2l1.52,4.41A.32.32,0,0,0,125.06,96.35Zm-1.61-4.76a.07.07,0,0,1,.06-.06h0a.09.09,0,0,1,.1.07l1.52,4.4a.08.08,0,0,1,0,.08.1.1,0,0,1-.06,0,.11.11,0,0,1-.14-.06l-1.52-4.4A.09.09,0,0,1,123.45,91.59Z"/><path class="cls-4" d="M113.06,94.15a15,15,0,0,0,4.93,2.5.1.1,0,0,0,.13-.07.2.2,0,0,0,0-.08.1.1,0,0,0-.07,0A14.89,14.89,0,0,1,113.19,94a.07.07,0,0,0-.06,0,.11.11,0,0,0-.09,0A.12.12,0,0,0,113.06,94.15Z"/><path class="cls-4" d="M112.8,94.48a15.5,15.5,0,0,0,5.07,2.58l.15,0a.54.54,0,0,0,.51-.38.55.55,0,0,0,0-.4.52.52,0,0,0-.32-.26,14.24,14.24,0,0,1-4.72-2.4.54.54,0,0,0-.74.1A.53.53,0,0,0,112.8,94.48Zm.08-.61a.31.31,0,0,1,.44-.06,14.49,14.49,0,0,0,4.79,2.44.31.31,0,0,1,.22.39.32.32,0,0,1-.31.23l-.09,0a15.06,15.06,0,0,1-5-2.54A.31.31,0,0,1,112.88,93.87Z"/><path class="cls-4" d="M112.93,94.31a15.06,15.06,0,0,0,5,2.54l.09,0a.32.32,0,0,0,.31-.23.31.31,0,0,0-.22-.39,14.49,14.49,0,0,1-4.79-2.44.31.31,0,0,0-.44.06A.31.31,0,0,0,112.93,94.31ZM113,94a.11.11,0,0,1,.09,0,.07.07,0,0,1,.06,0,14.89,14.89,0,0,0,4.86,2.47.1.1,0,0,1,.07,0,.2.2,0,0,1,0,.08.1.1,0,0,1-.13.07,15,15,0,0,1-4.93-2.5A.12.12,0,0,1,113,94Z"/><path class="cls-4" d="M118.26,101.87h-.08a19,19,0,0,0-5,1.83.11.11,0,0,0,0,.15.1.1,0,0,0,.09,0h0a18.64,18.64,0,0,1,5-1.82s0,0,.06,0a.15.15,0,0,0,0-.08A.14.14,0,0,0,118.26,101.87Z"/><path class="cls-4" d="M118.49,101.52a.52.52,0,0,0-.4-.08,19.5,19.5,0,0,0-5.11,1.88.54.54,0,0,0-.21.72.53.53,0,0,0,.71.21,18.2,18.2,0,0,1,4.83-1.77.54.54,0,0,0,.34-.23.56.56,0,0,0,.07-.4A.49.49,0,0,0,118.49,101.52Zm-.22.75a18.52,18.52,0,0,0-4.89,1.79.26.26,0,0,1-.15,0,.33.33,0,0,1-.28-.16.32.32,0,0,1,.13-.43,19,19,0,0,1,5.06-1.86.3.3,0,0,1,.37.25A.31.31,0,0,1,118.27,102.27Z"/><path class="cls-4" d="M118.14,101.65a19,19,0,0,0-5.06,1.86.32.32,0,0,0-.13.43.33.33,0,0,0,.28.16.26.26,0,0,0,.15,0,18.52,18.52,0,0,1,4.89-1.79.31.31,0,0,0,.24-.37A.3.3,0,0,0,118.14,101.65Zm.15.37s0,0-.06,0a18.64,18.64,0,0,0-5,1.82h0a.1.1,0,0,1-.09,0,.11.11,0,0,1,0-.15,19,19,0,0,1,5-1.83h.08a.14.14,0,0,1,0,.07A.15.15,0,0,1,118.29,102Z"/><path class="cls-4" d="M127.85,103.94a5.43,5.43,0,0,1-2.89-.8l-.06,0a.12.12,0,0,0-.09,0,.11.11,0,0,0,0,.15,5.62,5.62,0,0,0,2.93.83h.07a.09.09,0,0,0,.07,0,.11.11,0,0,0,0-.07A.1.1,0,0,0,127.85,103.94Z"/><path class="cls-4" d="M127.84,103.52h0a5,5,0,0,1-2.66-.74.53.53,0,0,0-.73.17.54.54,0,0,0,.17.73,6.09,6.09,0,0,0,3.16.9h.07a.57.57,0,0,0,.38-.16.58.58,0,0,0,.15-.38A.53.53,0,0,0,127.84,103.52Zm0,.84h-.07a5.83,5.83,0,0,1-3-.87.32.32,0,1,1,.33-.54,5.22,5.22,0,0,0,2.77.77h0a.31.31,0,0,1,.31.31A.3.3,0,0,1,127.85,104.36Z"/><path class="cls-4" d="M127.85,103.73h0a5.22,5.22,0,0,1-2.77-.77.32.32,0,1,0-.33.54,5.83,5.83,0,0,0,3,.87h.07a.3.3,0,0,0,.31-.32A.31.31,0,0,0,127.85,103.73Zm.07.39a.09.09,0,0,1-.07,0h-.07a5.62,5.62,0,0,1-2.93-.83.11.11,0,0,1,0-.15.12.12,0,0,1,.09,0l.06,0a5.43,5.43,0,0,0,2.89.8.1.1,0,0,1,.1.11A.11.11,0,0,1,127.92,104.12Z"/><path class="cls-4" d="M131.3,103.72a.11.11,0,0,0-.1-.09h0a.14.14,0,0,0-.07.05.09.09,0,0,0,0,.08l1,4.9a.1.1,0,0,0,.12.08.14.14,0,0,0,.07,0,.11.11,0,0,0,0-.08Z"/><path class="cls-4" d="M131.72,103.63a.54.54,0,0,0-.63-.41.54.54,0,0,0-.41.63l1,4.9a.54.54,0,0,0,.52.42h.11a.54.54,0,0,0,.41-.63Zm.57,5.32h-.07a.32.32,0,0,1-.31-.26l-1-4.9a.3.3,0,0,1,.25-.37.31.31,0,0,1,.37.24l1,4.9A.32.32,0,0,1,132.29,109Z"/><path class="cls-4" d="M131.51,103.67a.31.31,0,0,0-.37-.24.3.3,0,0,0-.25.37l1,4.9a.32.32,0,0,0,.31.26h.07a.32.32,0,0,0,.24-.38Zm.8,5a.14.14,0,0,1-.07,0,.1.1,0,0,1-.12-.08l-1-4.9a.09.09,0,0,1,0-.08.14.14,0,0,1,.07-.05h0a.11.11,0,0,1,.1.09l1,4.9A.11.11,0,0,1,132.31,108.7Z"/><path class="cls-4" d="M114.33,111.13a.11.11,0,0,0,.07,0,.1.1,0,0,0,.08,0l3.57-3.8a.11.11,0,0,0,0-.15l-.07,0a.11.11,0,0,0-.08,0L114.33,111A.11.11,0,0,0,114.33,111.13Z"/><path class="cls-4" d="M118.19,107a.33.33,0,0,1,0,.45l-3.57,3.79a.29.29,0,0,1-.23.1.29.29,0,0,1-.21-.08.32.32,0,0,1,0-.45l3.57-3.8.06-.05h-.3L114,110.7a.52.52,0,0,0,0,.74.55.55,0,0,0,.36.15.56.56,0,0,0,.39-.17l3.56-3.8a.51.51,0,0,0,.07-.63h-.28Z"/><path class="cls-4" d="M117.58,106.9l-.08.09h.3a.34.34,0,0,1,.34,0h.28a.31.31,0,0,0-.09-.11A.53.53,0,0,0,117.58,106.9Z"/><path class="cls-4" d="M114.17,110.84a.32.32,0,0,0,0,.45.29.29,0,0,0,.21.08.29.29,0,0,0,.23-.1l3.57-3.79a.33.33,0,0,0,0-.45l0,0h-.34l-.06.05Zm3.72-3.65a.11.11,0,0,1,.08,0l.07,0a.11.11,0,0,1,0,.15l-3.57,3.8a.1.1,0,0,1-.08,0,.11.11,0,0,1-.07-.18Z"/><path class="cls-4" d="M117.8,107h.34A.34.34,0,0,0,117.8,107Z"/><path class="cls-4" d="M97.91,112.82h0a.15.15,0,0,0,.08,0,.13.13,0,0,0,0-.08l-.33-5.56a.09.09,0,0,0,0-.07.11.11,0,0,0-.07,0h0a.09.09,0,0,0-.08,0,.09.09,0,0,0,0,.07l.33,5.57A.1.1,0,0,0,97.91,112.82Z"/><path class="cls-4" d="M97.9,107.14l.32,5.56a.32.32,0,0,1-.29.34h0a.32.32,0,0,1-.32-.3l-.33-5.56a.41.41,0,0,1,0-.19h-.23a.64.64,0,0,0,0,.2l.33,5.56a.53.53,0,0,0,.53.5h0a.5.5,0,0,0,.36-.18.49.49,0,0,0,.13-.38l-.32-5.56a.7.7,0,0,0,0-.14h-.23A.38.38,0,0,1,97.9,107.14Z"/><path class="cls-4" d="M97.55,106.63a.55.55,0,0,0-.37.18.52.52,0,0,0-.1.18h.23a.32.32,0,0,1,.54,0h.23a.51.51,0,0,0-.15-.23A.53.53,0,0,0,97.55,106.63Z"/><path class="cls-4" d="M97.59,112.74a.32.32,0,0,0,.32.3h0a.32.32,0,0,0,.29-.34l-.32-5.56a.38.38,0,0,0-.05-.15h-.54a.41.41,0,0,0,0,.19Zm-.09-5.65a.09.09,0,0,1,.08,0h0a.11.11,0,0,1,.07,0,.09.09,0,0,1,0,.07l.33,5.56a.13.13,0,0,1,0,.08.15.15,0,0,1-.08,0h0a.1.1,0,0,1-.11-.09l-.33-5.57A.09.09,0,0,1,97.5,107.09Z"/><path class="cls-4" d="M97.56,106.84a.33.33,0,0,0-.25.15h.54A.33.33,0,0,0,97.56,106.84Z"/><path class="cls-4" d="M86.94,110.37a.11.11,0,0,0,.07,0l4.09-3.11a.11.11,0,0,0,0-.15.13.13,0,0,0-.09,0l-.06,0-4.09,3.11a.11.11,0,0,0,0,.15A.09.09,0,0,0,86.94,110.37Z"/><path class="cls-4" d="M91.23,107.41l-4.09,3.11a.36.36,0,0,1-.2.06.32.32,0,0,1-.25-.12.33.33,0,0,1,.06-.45l4-3h-.35l-3.76,2.85a.54.54,0,0,0-.1.74.54.54,0,0,0,.74.11l4.09-3.11a.54.54,0,0,0,.19-.59H91.3A.31.31,0,0,1,91.23,107.41Z"/><path class="cls-4" d="M90.72,106.74l-.34.25h.35l.11-.09a.34.34,0,0,1,.45.06s0,0,0,0h.24a1.09,1.09,0,0,0-.08-.15A.52.52,0,0,0,90.72,106.74Z"/><path class="cls-4" d="M86.69,110.46a.32.32,0,0,0,.25.12.36.36,0,0,0,.2-.06l4.09-3.11a.31.31,0,0,0,.07-.42h-.57l-4,3A.33.33,0,0,0,86.69,110.46Zm.19-.28L91,107.07l.06,0a.13.13,0,0,1,.09,0,.11.11,0,0,1,0,.15L87,110.35a.11.11,0,0,1-.07,0,.09.09,0,0,1-.08,0A.11.11,0,0,1,86.88,110.18Z"/><path class="cls-4" d="M91.29,107a.34.34,0,0,0-.45-.06l-.11.09h.57S91.29,107,91.29,107Z"/><path class="cls-4" d="M73.14,110.51a.09.09,0,0,0,0,.14.1.1,0,0,0,.08,0l.06,0A19.9,19.9,0,0,0,77.13,107h-.27A20.33,20.33,0,0,1,73.14,110.51Z"/><path class="cls-4" d="M77.23,106.82a.09.09,0,0,0,0-.07.11.11,0,0,0-.06,0h0s-.05,0-.07,0l-.19.23h.27l.08-.1A.11.11,0,0,0,77.23,106.82Z"/><path class="cls-4" d="M77.38,107a20.94,20.94,0,0,1-4,3.82.33.33,0,0,1-.19.06.35.35,0,0,1-.26-.13.32.32,0,0,1,.07-.44A19.57,19.57,0,0,0,76.58,107h-.27a19.83,19.83,0,0,1-3.42,3.18.52.52,0,0,0-.12.73.53.53,0,0,0,.43.22.5.5,0,0,0,.31-.1,20.77,20.77,0,0,0,4-3.86.56.56,0,0,0,.09-.17H77.4A.08.08,0,0,0,77.38,107Z"/><path class="cls-4" d="M77.65,106.77a.48.48,0,0,0-.19-.35.55.55,0,0,0-.39-.12.57.57,0,0,0-.36.2c-.13.17-.26.33-.4.49h.27l.3-.36a.31.31,0,0,1,.44,0,.31.31,0,0,1,.08.41h.23A.53.53,0,0,0,77.65,106.77Z"/><path class="cls-4" d="M73,110.34a.32.32,0,0,0-.07.44.35.35,0,0,0,.26.13.33.33,0,0,0,.19-.06,20.94,20.94,0,0,0,4-3.82.08.08,0,0,1,0,0h-.27a19.9,19.9,0,0,1-3.87,3.69l-.06,0a.1.1,0,0,1-.08,0,.09.09,0,0,1,0-.14A20.33,20.33,0,0,0,76.86,107h-.28A19.57,19.57,0,0,1,73,110.34Z"/><path class="cls-4" d="M77.05,106.76s0,0,.07,0h0a.11.11,0,0,1,.06,0,.09.09,0,0,1,0,.07.11.11,0,0,1,0,.07l-.08.1h.27a.31.31,0,0,0-.08-.41.31.31,0,0,0-.44,0l-.3.36h.28Z"/><path class="cls-4" d="M62.19,110.35a.11.11,0,0,0,.14,0s0-.07,0-.08a.09.09,0,0,0,0-.07A10.56,10.56,0,0,1,59,107h-.26A10.76,10.76,0,0,0,62.19,110.35Z"/><path class="cls-4" d="M58.82,106.73h-.08a.15.15,0,0,0-.05.07.13.13,0,0,0,0,.08l.06.1H59l-.14-.21A.08.08,0,0,0,58.82,106.73Z"/><path class="cls-4" d="M62.41,110a.32.32,0,0,1,.1.44.33.33,0,0,1-.27.15.37.37,0,0,1-.17,0A11.05,11.05,0,0,1,58.53,107h-.24a.45.45,0,0,0,.06.12,11.28,11.28,0,0,0,3.61,3.6.57.57,0,0,0,.28.08.52.52,0,0,0,.45-.25.56.56,0,0,0,.07-.4.57.57,0,0,0-.24-.33,10.14,10.14,0,0,1-3-2.82h-.26A10.41,10.41,0,0,0,62.41,110Z"/><path class="cls-4" d="M58.91,106.32a.5.5,0,0,0-.39.07.51.51,0,0,0-.24.32.53.53,0,0,0,0,.28h.23a.32.32,0,0,1,.55-.32c.06.11.14.21.21.32h.26l-.3-.44A.49.49,0,0,0,58.91,106.32Z"/><path class="cls-4" d="M62.07,110.53a.37.37,0,0,0,.17,0,.33.33,0,0,0,.27-.15.32.32,0,0,0-.1-.44,10.41,10.41,0,0,1-3.13-3H59a10.56,10.56,0,0,0,3.27,3.18.09.09,0,0,1,0,.07s0,0,0,.08a.11.11,0,0,1-.14,0A10.76,10.76,0,0,1,58.77,107h-.24A11.05,11.05,0,0,0,62.07,110.53Z"/><path class="cls-4" d="M58.71,106.89a.13.13,0,0,1,0-.08.15.15,0,0,1,.05-.07h.08a.08.08,0,0,1,.07,0L59,107h.25c-.07-.11-.15-.21-.21-.32a.32.32,0,0,0-.55.32h.25Z"/><path class="cls-4" d="M45.81,110.5a.12.12,0,0,0,0,.08.12.12,0,0,0,0,.07.09.09,0,0,0,.08,0,.1.1,0,0,0,.07,0L50.4,107h-.34Z"/><path class="cls-4" d="M50.63,106.67a.12.12,0,0,0-.09,0l-.06,0-.42.34h.34l.21-.17A.11.11,0,0,0,50.63,106.67Z"/><path class="cls-4" d="M46.07,110.83a.31.31,0,0,1-.2.07.32.32,0,0,1-.24-.11.33.33,0,0,1,0-.45L49.73,107H49.4l-3.86,3.19a.52.52,0,0,0-.19.36.48.48,0,0,0,.11.38.54.54,0,0,0,.75.07l4.67-3.85A.44.44,0,0,0,51,107h-.27Z"/><path class="cls-4" d="M51,106.4a.52.52,0,0,0-.74-.07l-.81.66h.33l.61-.5a.32.32,0,0,1,.41.49H51A.51.51,0,0,0,51,106.4Z"/><path class="cls-4" d="M45.63,110.79a.32.32,0,0,0,.24.11.31.31,0,0,0,.2-.07L50.73,107H50.4l-4.46,3.68a.1.1,0,0,1-.07,0,.09.09,0,0,1-.08,0,.12.12,0,0,1,0-.07.12.12,0,0,1,0-.08L50.06,107h-.33l-4.06,3.35A.33.33,0,0,0,45.63,110.79Z"/><path class="cls-4" d="M50.48,106.65l.06,0a.12.12,0,0,1,.09,0,.11.11,0,0,1,0,.15l-.21.17h.35a.32.32,0,0,0-.41-.49l-.61.5h.33Z"/><path class="cls-4" d="M33.61,111.19a.11.11,0,0,0,.07,0l3.84-3.69a.09.09,0,0,0,0-.07.16.16,0,0,0,0-.08l-.08,0h0a.11.11,0,0,0-.07,0L33.53,111a.1.1,0,0,0,0,.14A.12.12,0,0,0,33.61,111.19Z"/><path class="cls-4" d="M37.08,107l-3.84,3.68a.54.54,0,0,0,0,.75.55.55,0,0,0,.39.16.51.51,0,0,0,.36-.15l3.85-3.68a.52.52,0,0,0,.16-.37.54.54,0,0,0-.15-.38s0,0,0,0h-.68Zm.6.16a.32.32,0,0,1,0,.45l-3.85,3.68a.3.3,0,0,1-.21.09.29.29,0,0,1-.23-.1.32.32,0,0,1,0-.45l3.84-3.68A.32.32,0,0,1,37.68,107.18Z"/><path class="cls-4" d="M37.11,107h.68a.54.54,0,0,0-.68,0Z"/><path class="cls-4" d="M33.38,111.3a.29.29,0,0,0,.23.1.3.3,0,0,0,.21-.09l3.85-3.68a.32.32,0,1,0-.44-.46l-3.84,3.68A.32.32,0,0,0,33.38,111.3Zm.15-.29,3.85-3.69a.11.11,0,0,1,.07,0h0l.08,0a.16.16,0,0,1,0,.08.09.09,0,0,1,0,.07l-3.84,3.69a.11.11,0,0,1-.07,0,.12.12,0,0,1-.08,0,.1.1,0,0,1,0-.14Z"/><path class="cls-4" d="M21.45,105.69a.15.15,0,0,0,0-.08.09.09,0,0,0-.07,0h0a.11.11,0,0,0-.07,0,.09.09,0,0,0,0,.07,12.24,12.24,0,0,0,1.47,6.44.1.1,0,0,0,.09,0h.05a.08.08,0,0,0,0-.06.11.11,0,0,0,0-.08A12,12,0,0,1,21.45,105.69Z"/><path class="cls-4" d="M21.87,105.71a.49.49,0,0,0-.14-.38.46.46,0,0,0-.36-.17.52.52,0,0,0-.38.13.55.55,0,0,0-.18.37,12.67,12.67,0,0,0,1.53,6.66.53.53,0,0,0,.46.28.59.59,0,0,0,.26-.07.53.53,0,0,0,.21-.71A11.63,11.63,0,0,1,21.87,105.71ZM23,112.35a.37.37,0,0,1-.15,0,.33.33,0,0,1-.28-.16A12.46,12.46,0,0,1,21,105.67a.3.3,0,0,1,.33-.3.31.31,0,0,1,.3.33,11.84,11.84,0,0,0,1.42,6.22A.31.31,0,0,1,23,112.35Z"/><path class="cls-4" d="M21.66,105.7a.31.31,0,0,0-.3-.33.3.3,0,0,0-.33.3,12.46,12.46,0,0,0,1.49,6.55.33.33,0,0,0,.28.16.37.37,0,0,0,.15,0,.31.31,0,0,0,.13-.43A11.84,11.84,0,0,1,21.66,105.7Zm1.24,6.4a.08.08,0,0,1,0,.06H22.8a.1.1,0,0,1-.09,0,12.24,12.24,0,0,1-1.47-6.44.09.09,0,0,1,0-.07.11.11,0,0,1,.07,0h0a.09.09,0,0,1,.07,0,.15.15,0,0,1,0,.08A12,12,0,0,0,22.9,112,.11.11,0,0,1,22.9,112.1Z"/><path class="cls-4" d="M14.94,100.82a.11.11,0,1,0,0,.21l4.36-.56c0-.07,0-.13-.07-.2Z"/><path class="cls-4" d="M20.13,100.26a.09.09,0,0,0,0-.07l-.06,0h0l-.75.1c0,.07,0,.13.07.2l.71-.09A.1.1,0,0,0,20.13,100.26Z"/><path class="cls-4" d="M15,101.24h0a.32.32,0,0,1-.31-.28.33.33,0,0,1,.27-.36l4.28-.55-.06-.2-4.24.54a.54.54,0,0,0-.46.6.53.53,0,0,0,.52.46H15l4.47-.57a1.8,1.8,0,0,1-.08-.21Z"/><path class="cls-4" d="M20.55,100.21a.52.52,0,0,0-.2-.35.5.5,0,0,0-.39-.11l-.83.11.06.2L20,100a.32.32,0,0,1,.09.63l-.66.08a1.8,1.8,0,0,0,.08.21l.6-.08A.53.53,0,0,0,20.55,100.21Z"/><path class="cls-4" d="M14.64,101a.32.32,0,0,0,.31.28h0l4.42-.57c0-.06-.05-.13-.08-.2L15,101a.11.11,0,1,1,0-.21l4.32-.55a1.72,1.72,0,0,0-.07-.21l-4.28.55A.33.33,0,0,0,14.64,101Z"/><path class="cls-4" d="M20,100.17h0l.06,0a.09.09,0,0,1,0,.07.1.1,0,0,1-.09.12l-.71.09c0,.07.05.14.08.2l.66-.08A.32.32,0,0,0,20,100l-.79.1a1.72,1.72,0,0,1,.07.21Z"/><path class="cls-4" d="M14.18,88.75h0s0,0,0,0a.08.08,0,0,0-.07,0,.11.11,0,0,0,.05.14l4.67,2.34V91Z"/><path class="cls-4" d="M19,91.41a.11.11,0,0,0,.09-.06.13.13,0,0,0,0-.08.09.09,0,0,0-.06-.06L18.75,91v.24l.24.12Z"/><path class="cls-4" d="M14,89.13a.32.32,0,0,1-.14-.43.31.31,0,0,1,.42-.14l4.48,2.24v-.23l-4.38-2.2a.58.58,0,0,0-.41,0,.54.54,0,0,0-.07,1l4.86,2.43v-.24Z"/><path class="cls-4" d="M19,91.83a.52.52,0,0,0,.47-.29.58.58,0,0,0,0-.41.53.53,0,0,0-.27-.3l-.52-.26v.23l.43.22a.31.31,0,0,1,.14.42.32.32,0,0,1-.28.18.23.23,0,0,1-.14,0l-.15-.07v.24l.05,0A.5.5,0,0,0,19,91.83Z"/><path class="cls-4" d="M13.85,88.7a.32.32,0,0,0,.14.43l4.76,2.38v-.23l-4.67-2.34A.11.11,0,0,1,14,88.8a.08.08,0,0,1,.07,0s0,0,0,0h0L18.75,91V90.8l-4.48-2.24A.31.31,0,0,0,13.85,88.7Z"/><path class="cls-4" d="M19.08,91.21a.09.09,0,0,1,.06.06.13.13,0,0,1,0,.08.11.11,0,0,1-.09.06H19l-.24-.12v.23l.15.07a.23.23,0,0,0,.14,0,.32.32,0,0,0,.28-.18.31.31,0,0,0-.14-.42l-.43-.22V91Z"/><path class="cls-4" d="M14,83.33h0a.1.1,0,0,0-.1.07.11.11,0,0,0,.06.14,15.43,15.43,0,0,0,4.81.83v-.21A15.38,15.38,0,0,1,14,83.33Z"/><path class="cls-4" d="M19.05,84.36a.11.11,0,0,0,.1-.11.11.11,0,0,0-.1-.1h-.3v.21h.3Z"/><path class="cls-4" d="M13.87,83.73a.32.32,0,0,1-.19-.41.31.31,0,0,1,.4-.19,15.18,15.18,0,0,0,4.67.81v-.22a14.77,14.77,0,0,1-4.6-.79.52.52,0,0,0-.67.32.53.53,0,0,0,.32.68,16.08,16.08,0,0,0,4.95.85v-.21A15.64,15.64,0,0,1,13.87,83.73Z"/><path class="cls-4" d="M19.05,84.78a.52.52,0,0,0,.52-.53.52.52,0,0,0-.53-.52h-.29v.22h.3a.32.32,0,0,1,0,.63h-.3v.21h.3Z"/><path class="cls-4" d="M13.68,83.32a.32.32,0,0,0,.19.41,15.64,15.64,0,0,0,4.88.84v-.21a15.43,15.43,0,0,1-4.81-.83.11.11,0,0,1-.06-.14.1.1,0,0,1,.1-.07h0a15.38,15.38,0,0,0,4.74.82v-.21a15.18,15.18,0,0,1-4.67-.81A.31.31,0,0,0,13.68,83.32Z"/><path class="cls-4" d="M19.05,84.15a.11.11,0,0,1,.1.1.11.11,0,0,1-.1.11h-.3v.21h.3a.32.32,0,0,0,0-.63h-.3v.21Z"/><path class="cls-4" d="M14.06,73.06A.09.09,0,0,0,14,73h0a.08.08,0,0,0-.06,0,.09.09,0,0,0,0,.07.09.09,0,0,0,0,.08,22.82,22.82,0,0,0,4.86,5v-.26A22.81,22.81,0,0,1,14.06,73.06Z"/><path class="cls-4" d="M19.7,78.79a.11.11,0,0,0,.09,0,.08.08,0,0,0,0-.08.09.09,0,0,0,0-.07c-.34-.23-.68-.47-1-.72v.26c.29.22.59.43.89.64Z"/><path class="cls-4" d="M13.72,73.31a.31.31,0,0,1,.07-.44.32.32,0,0,1,.44.07,22.5,22.5,0,0,0,4.52,4.67v-.27a22.47,22.47,0,0,1-4.35-4.52.51.51,0,0,0-.74-.12.51.51,0,0,0-.21.34.53.53,0,0,0,.09.39,23.55,23.55,0,0,0,5.21,5.24v-.26A23.18,23.18,0,0,1,13.72,73.31Z"/><path class="cls-4" d="M19.7,79.22a.54.54,0,0,0,.44-.24.53.53,0,0,0,.08-.39.57.57,0,0,0-.22-.34c-.43-.29-.84-.59-1.25-.91v.27c.37.28.74.56,1.13.82a.32.32,0,0,1,.08.44.3.3,0,0,1-.26.13.31.31,0,0,1-.18,0l-.77-.54v.26l.65.46A.62.62,0,0,0,19.7,79.22Z"/><path class="cls-4" d="M14.23,72.94a.32.32,0,0,0-.44-.07.31.31,0,0,0-.07.44,23.18,23.18,0,0,0,5,5.1v-.27a22.82,22.82,0,0,1-4.86-5,.09.09,0,0,1,0-.08.09.09,0,0,1,0-.07A.08.08,0,0,1,14,73h0a.09.09,0,0,1,.07,0,22.81,22.81,0,0,0,4.69,4.82v-.27A22.5,22.5,0,0,1,14.23,72.94Z"/><path class="cls-4" d="M19.76,78.6a.09.09,0,0,1,0,.07.08.08,0,0,1,0,.08.11.11,0,0,1-.09,0h-.06c-.3-.21-.6-.42-.89-.64v.27l.77.54a.31.31,0,0,0,.18,0,.3.3,0,0,0,.26-.13.32.32,0,0,0-.08-.44c-.39-.26-.76-.54-1.13-.82v.27C19.08,78.13,19.42,78.37,19.76,78.6Z"/><path class="cls-4" d="M14.57,62.71a.1.1,0,0,0-.05.07.13.13,0,0,0,0,.08.1.1,0,0,0,.09,0h.05a9.26,9.26,0,0,1,4.08-1.11,1.62,1.62,0,0,0,0-.22A9.48,9.48,0,0,0,14.57,62.71Z"/><path class="cls-4" d="M19.53,61.79a.1.1,0,0,0,.11-.1.11.11,0,0,0,0-.07.09.09,0,0,0-.07,0h-.78a1.62,1.62,0,0,1,0,.22Z"/><path class="cls-4" d="M14.77,63.08a.26.26,0,0,1-.15,0,.33.33,0,0,1-.28-.16.32.32,0,0,1,.13-.43,9.45,9.45,0,0,1,4.3-1.17c0-.07,0-.14,0-.21a9.77,9.77,0,0,0-4.42,1.19.52.52,0,0,0-.26.32.51.51,0,0,0,.05.4.53.53,0,0,0,.46.28.59.59,0,0,0,.26-.07,8.69,8.69,0,0,1,3.87-1.06V62A9.07,9.07,0,0,0,14.77,63.08Z"/><path class="cls-4" d="M19.51,62.22a.53.53,0,0,0,.55-.5.52.52,0,0,0-.13-.38.55.55,0,0,0-.37-.18c-.26,0-.51,0-.77,0,0,.07,0,.14,0,.21h.78a.32.32,0,0,1,.3.34.31.31,0,0,1-.33.29h-.77v.21A6.43,6.43,0,0,1,19.51,62.22Z"/><path class="cls-4" d="M14.34,63a.33.33,0,0,0,.28.16.26.26,0,0,0,.15,0,9.07,9.07,0,0,1,4-1.08h0v-.2a9.26,9.26,0,0,0-4.08,1.11h-.05a.1.1,0,0,1-.09,0,.13.13,0,0,1,0-.08.1.1,0,0,1,.05-.07,9.48,9.48,0,0,1,4.19-1.14c0-.07,0-.14,0-.21a9.45,9.45,0,0,0-4.3,1.17A.32.32,0,0,0,14.34,63Z"/><path class="cls-4" d="M19,61.57h.5a.09.09,0,0,1,.07,0,.11.11,0,0,1,0,.07.1.1,0,0,1-.11.1h-.78V62h.77a.31.31,0,0,0,.33-.29.32.32,0,0,0-.3-.34h-.78c0,.07,0,.14,0,.21Z"/><path class="cls-4" d="M19.8,51.82a.12.12,0,0,0-.1-.07h0a.1.1,0,0,0-.06.13,6.46,6.46,0,0,0,2.24,2.94l.16-.15A6.28,6.28,0,0,1,19.8,51.82Z"/><path class="cls-4" d="M22,54.91a.12.12,0,0,0,.09,0,.08.08,0,0,0,0-.08.13.13,0,0,0,0-.07l-.05,0-.16.15.09.06Z"/><path class="cls-4" d="M19.4,52a.31.31,0,0,1,.19-.41.33.33,0,0,1,.41.18,6.1,6.1,0,0,0,2.16,2.8l.17-.14,0,0a5.89,5.89,0,0,1-2.1-2.7.53.53,0,0,0-1,.37,6.94,6.94,0,0,0,2.34,3.09l.15-.16A6.66,6.66,0,0,1,19.4,52Z"/><path class="cls-4" d="M22,55.33a.54.54,0,0,0,.52-.62.52.52,0,0,0-.18-.31l-.17.14h0a.32.32,0,0,1,.08.44.31.31,0,0,1-.26.14.3.3,0,0,1-.18-.06L21.69,55l-.15.16.15.1A.47.47,0,0,0,22,55.33Z"/><path class="cls-4" d="M20,51.74a.33.33,0,0,0-.41-.18.31.31,0,0,0-.19.41,6.66,6.66,0,0,0,2.29,3l.15-.14a6.46,6.46,0,0,1-2.24-2.94.1.1,0,0,1,.06-.13h0a.12.12,0,0,1,.1.07A6.28,6.28,0,0,0,22,54.68l.16-.14A6.1,6.1,0,0,1,20,51.74Z"/><path class="cls-4" d="M22.05,54.71a.13.13,0,0,1,0,.07.08.08,0,0,1,0,.08.12.12,0,0,1-.09,0l-.06,0-.09-.06-.15.14.12.09a.3.3,0,0,0,.18.06.31.31,0,0,0,.26-.14.32.32,0,0,0-.08-.44h0l-.16.14Z"/><path class="cls-4" d="M34.2,48.87a.12.12,0,0,0-.1-.07h0A.11.11,0,0,0,34,49l1.15,3.19h.22Z"/><path class="cls-4" d="M35.61,53.1a.11.11,0,0,0,.06-.14l-.3-.82h-.22l.32.9A.11.11,0,0,0,35.61,53.1Z"/><path class="cls-4" d="M33.8,49a.32.32,0,0,1,.19-.41.33.33,0,0,1,.41.19l1.2,3.34h.22l-1.23-3.41a.53.53,0,1,0-1,.36l1.1,3h.22Z"/><path class="cls-4" d="M35.57,53.53a.57.57,0,0,0,.18,0,.53.53,0,0,0,.32-.68l-.25-.68H35.6l.27.75a.32.32,0,0,1-.19.41l-.11,0a.32.32,0,0,1-.3-.21l-.35-1H34.7l.37,1A.54.54,0,0,0,35.57,53.53Z"/><path class="cls-4" d="M34,48.61a.32.32,0,0,0-.19.41l1.12,3.12h.23L34,49a.11.11,0,0,1,.06-.14h0a.12.12,0,0,1,.1.07l1.17,3.27h.23L34.4,48.8A.33.33,0,0,0,34,48.61Z"/><path class="cls-4" d="M35.67,53a.11.11,0,0,1-.06.14.11.11,0,0,1-.14-.06l-.32-.9h-.23l.35,1a.32.32,0,0,0,.3.21l.11,0a.32.32,0,0,0,.19-.41l-.27-.75h-.23Z"/><path class="cls-4" d="M51.37,48.82a.11.11,0,0,0,0-.15l-.06,0a.09.09,0,0,0-.08,0l-2.9,3.45h.27Z"/><path class="cls-4" d="M47.48,53.28a.11.11,0,0,0,.07,0,.09.09,0,0,0,.08,0l.95-1.12h-.27l-.84,1A.11.11,0,0,0,47.48,53.28Z"/><path class="cls-4" d="M51,48.55a.32.32,0,0,1,.49.41l-2.67,3.18h.27l2.56-3a.52.52,0,0,0-.06-.74.54.54,0,0,0-.75.06l-3.13,3.73H48Z"/><path class="cls-4" d="M47.21,53.6a.54.54,0,0,0,.34.12.52.52,0,0,0,.41-.18l1.17-1.4h-.27L47.79,53.4a.32.32,0,0,1-.24.11.31.31,0,0,1-.2-.07.32.32,0,0,1,0-.45l.72-.85h-.28l-.6.72A.52.52,0,0,0,47.21,53.6Z"/><path class="cls-4" d="M51.49,48.51a.33.33,0,0,0-.45,0l-3,3.59h.28l2.9-3.45a.09.09,0,0,1,.08,0l.06,0a.11.11,0,0,1,0,.15l-2.79,3.32h.28L51.53,49A.33.33,0,0,0,51.49,48.51Z"/><path class="cls-4" d="M47.63,53.26a.09.09,0,0,1-.08,0,.11.11,0,0,1-.07,0,.11.11,0,0,1,0-.15l.84-1H48l-.72.85a.32.32,0,0,0,0,.45.31.31,0,0,0,.2.07.32.32,0,0,0,.24-.11l1.07-1.26h-.28Z"/><path class="cls-4" d="M66,49.37a.11.11,0,0,0-.07,0h0a.09.09,0,0,0-.07,0,.13.13,0,0,0,0,.08.09.09,0,0,0,0,.07,35.84,35.84,0,0,1,3.19,2.6h.31A37,37,0,0,0,66,49.37Z"/><path class="cls-4" d="M70,53a.1.1,0,0,0,.1-.1.1.1,0,0,0,0-.08c-.23-.23-.47-.45-.71-.67h-.31c.29.27.59.54.87.82A.11.11,0,0,0,70,53Z"/><path class="cls-4" d="M65.78,49.71a.32.32,0,1,1,.37-.51,35.6,35.6,0,0,1,3.56,2.94H70A35.75,35.75,0,0,0,66.27,49a.5.5,0,0,0-.39-.1.51.51,0,0,0-.34.21.53.53,0,0,0-.1.4.51.51,0,0,0,.21.34,33.73,33.73,0,0,1,2.8,2.26h.32A33,33,0,0,0,65.78,49.71Z"/><path class="cls-4" d="M70,53.42a.57.57,0,0,0,.38-.16.58.58,0,0,0,.15-.38.57.57,0,0,0-.16-.37L70,52.14h-.31l.55.52a.32.32,0,0,1,0,.45.32.32,0,0,1-.22.1.31.31,0,0,1-.22-.09c-.34-.34-.69-.66-1-1h-.32c.42.36.82.74,1.22,1.13A.56.56,0,0,0,70,53.42Z"/><path class="cls-4" d="M65.71,49.27a.31.31,0,0,0,.07.44,33,33,0,0,1,3,2.43h.32a35.84,35.84,0,0,0-3.19-2.6.09.09,0,0,1,0-.07.13.13,0,0,1,0-.08.09.09,0,0,1,.07,0h0a.11.11,0,0,1,.07,0,37,37,0,0,1,3.37,2.77h.31a35.6,35.6,0,0,0-3.56-2.94A.31.31,0,0,0,65.71,49.27Z"/><path class="cls-4" d="M70.11,52.81a.1.1,0,0,1,0,.08.1.1,0,0,1-.1.1A.11.11,0,0,1,70,53c-.28-.28-.58-.55-.87-.82h-.32c.36.32.71.64,1,1a.31.31,0,0,0,.22.09.32.32,0,0,0,.22-.1.32.32,0,0,0,0-.45l-.55-.52H69.4C69.64,52.36,69.88,52.58,70.11,52.81Z"/><path class="cls-4" d="M78.51,49.33a.09.09,0,0,0,0-.07.13.13,0,0,0,0-.08.12.12,0,0,0-.08,0,.09.09,0,0,0-.07,0l-3.58,3h.33Z"/><path class="cls-4" d="M74,52.88s0,0,0,.07a.09.09,0,0,0,.08,0,.11.11,0,0,0,.07,0l1-.83H74.8l-.81.67A.07.07,0,0,0,74,52.88Z"/><path class="cls-4" d="M78.24,49a.31.31,0,0,1,.45,0,.32.32,0,0,1,0,.44l-3.19,2.65h.33l3-2.48A.52.52,0,0,0,79,49.3a.51.51,0,0,0-.12-.39.53.53,0,0,0-.74-.07l-4,3.3h.33Z"/><path class="cls-4" d="M73.53,52.84a.54.54,0,0,0,.53.58.55.55,0,0,0,.34-.13l1.39-1.15h-.33l-1.2,1a.31.31,0,0,1-.2.07.32.32,0,0,1-.24-.11.31.31,0,0,1,0-.45l.61-.5h-.33l-.42.34A.56.56,0,0,0,73.53,52.84Z"/><path class="cls-4" d="M78.69,49.05a.31.31,0,0,0-.45,0l-3.77,3.13h.33l3.58-3a.09.09,0,0,1,.07,0,.12.12,0,0,1,.08,0,.13.13,0,0,1,0,.08.09.09,0,0,1,0,.07l-3.38,2.81h.33l3.19-2.65A.32.32,0,0,0,78.69,49.05Z"/><path class="cls-4" d="M74.13,53a.11.11,0,0,1-.07,0A.09.09,0,0,1,74,53s0-.06,0-.07a.07.07,0,0,1,0-.07l.81-.67h-.33l-.61.5a.31.31,0,0,0,0,.45.32.32,0,0,0,.24.11.31.31,0,0,0,.2-.07l1.2-1h-.33Z"/><path class="cls-4" d="M89.14,47.26a.1.1,0,0,0,0-.07H89a.09.09,0,0,0-.07,0,.15.15,0,0,0,0,.08l1,4.84h.21Z"/><path class="cls-4" d="M90.2,53.11a.14.14,0,0,0,.07,0,.11.11,0,0,0,0-.08l-.17-.85H89.9l.17.89A.12.12,0,0,0,90.2,53.11Z"/><path class="cls-4" d="M88.73,47.34A.3.3,0,0,1,89,47a.33.33,0,0,1,.38.25l1,4.92h.21l-1-5a.49.49,0,0,0-.22-.34.56.56,0,0,0-.4-.08.52.52,0,0,0-.33.23.5.5,0,0,0-.08.39l1,4.76h.21Z"/><path class="cls-4" d="M90.18,53.54h.1a.54.54,0,0,0,.34-.23.56.56,0,0,0,.08-.4l-.16-.76h-.21l.16.81a.32.32,0,0,1-.25.37h-.06a.32.32,0,0,1-.31-.26l-.19-.93h-.21l.19,1A.53.53,0,0,0,90.18,53.54Z"/><path class="cls-4" d="M89,47a.3.3,0,0,0-.24.37l1,4.8h.22l-1-4.84a.15.15,0,0,1,0-.08.09.09,0,0,1,.07,0h.07a.1.1,0,0,1,0,.07l1,4.88h.22l-1-4.92A.33.33,0,0,0,89,47Z"/><path class="cls-4" d="M90.28,53a.11.11,0,0,1,0,.08.14.14,0,0,1-.07,0,.12.12,0,0,1-.13-.08l-.17-.89h-.22l.19.93a.32.32,0,0,0,.31.26h.06a.32.32,0,0,0,.25-.37l-.16-.81h-.22Z"/><path class="cls-4" d="M101.91,49.14a.1.1,0,0,0,0-.15.1.1,0,0,0-.07,0h0a.13.13,0,0,0-.07,0L99.1,52.14h.28Z"/><path class="cls-4" d="M98.17,53.41a.08.08,0,0,0,.06,0,.11.11,0,0,0,.08,0l1.07-1.26H99.1l-.95,1.12A.11.11,0,0,0,98.17,53.41Z"/><path class="cls-4" d="M101.59,48.87a.32.32,0,1,1,.49.41l-2.42,2.86h.27l2.31-2.72a.54.54,0,0,0-.07-.75.51.51,0,0,0-.38-.12.5.5,0,0,0-.36.18l-2.88,3.41h.28Z"/><path class="cls-4" d="M97.89,53.73a.55.55,0,0,0,.34.13.53.53,0,0,0,.41-.19l1.29-1.53h-.27l-1.18,1.39a.32.32,0,0,1-.25.11.31.31,0,0,1-.2-.07.33.33,0,0,1,0-.45l.84-1h-.28l-.72.85A.52.52,0,0,0,97.89,53.73Z"/><path class="cls-4" d="M102,48.83a.33.33,0,0,0-.45,0l-2.76,3.27h.27L101.75,49a.13.13,0,0,1,.07,0h0a.1.1,0,0,1,.07,0,.1.1,0,0,1,0,.15l-2.53,3h.28l2.42-2.86A.33.33,0,0,0,102,48.83Z"/><path class="cls-4" d="M98.31,53.4a.11.11,0,0,1-.08,0,.08.08,0,0,1-.06,0,.11.11,0,0,1,0-.15l.95-1.12h-.27l-.84,1a.33.33,0,0,0,0,.45.31.31,0,0,0,.2.07.32.32,0,0,0,.25-.11l1.18-1.39h-.28Z"/><path class="cls-4" d="M111.85,50.45a.11.11,0,0,0,.05-.14.1.1,0,0,0-.07-.05h0l0,0-3.57,1.87h.45Z"/><path class="cls-4" d="M106.91,52.92A.11.11,0,0,0,107,53l0,0,1.58-.82h-.45l-1.23.64A.1.1,0,0,0,106.91,52.92Z"/><path class="cls-4" d="M111.65,50.08a.32.32,0,0,1,.3.56l-2.86,1.5h.46l2.5-1.31a.54.54,0,0,0,.22-.71.53.53,0,0,0-.31-.26.51.51,0,0,0-.4,0l-4.29,2.25h.45Z"/><path class="cls-4" d="M106.5,52.71a.52.52,0,0,0,.5.69.54.54,0,0,0,.25-.06l1.85-1v-.23h0l-1.94,1a.28.28,0,0,1-.15,0,.32.32,0,0,1-.15-.6l.87-.45h-.45l-.51.26A.53.53,0,0,0,106.5,52.71Z"/><polygon class="cls-4" points="109.1 52.37 109.55 52.13 109.1 52.13 109.1 52.37"/><path class="cls-4" d="M112.08,50.21a.32.32,0,0,0-.43-.13l-3.93,2.06h.46l3.57-1.87,0,0h0a.1.1,0,0,1,.07.05.11.11,0,0,1-.05.14l-3.22,1.69h.46l2.86-1.5A.32.32,0,0,0,112.08,50.21Z"/><path class="cls-4" d="M107.05,53l0,0a.11.11,0,0,1-.09-.06.1.1,0,0,1,0-.14l1.23-.64h-.46l-.87.45a.32.32,0,0,0,.15.6.28.28,0,0,0,.15,0l1.94-1h-.46Z"/><path class="cls-4" d="M132.44,49.59a.1.1,0,0,0,.06-.05.09.09,0,0,0,0-.08.1.1,0,0,0,0-.06h-.08a19.9,19.9,0,0,0-6.64,3.19l.25.08A19.57,19.57,0,0,1,132.44,49.59Z"/><path class="cls-4" d="M125.66,52.77a.12.12,0,0,0,.08,0l.07,0,.18-.13-.25-.08-.06,0A.1.1,0,0,0,125.66,52.77Z"/><path class="cls-4" d="M125.55,52.45a20.48,20.48,0,0,1,6.78-3.27.32.32,0,1,1,.16.62,19.73,19.73,0,0,0-6.26,2.94l.24.09A19.29,19.29,0,0,1,132.55,50a.51.51,0,0,0,.32-.24.54.54,0,0,0,0-.41.53.53,0,0,0-.25-.32.51.51,0,0,0-.4-.05,20.36,20.36,0,0,0-6.84,3.3.5.5,0,0,0-.15.17l.22,0Z"/><path class="cls-4" d="M125.32,53a.54.54,0,0,0,.42.21.51.51,0,0,0,.32-.1l.41-.3-.24-.09-.3.22a.33.33,0,0,1-.19.06.3.3,0,0,1-.25-.13.32.32,0,0,1,0-.39l-.22,0a.49.49,0,0,0-.06.17A.53.53,0,0,0,125.32,53Z"/><path class="cls-4" d="M132.72,49.41a.33.33,0,0,0-.39-.23,20.48,20.48,0,0,0-6.78,3.27l0,0,.24.08a19.9,19.9,0,0,1,6.64-3.19h.08a.1.1,0,0,1,0,.06.09.09,0,0,1,0,.08.1.1,0,0,1-.06.05A19.57,19.57,0,0,0,126,52.66l.24.08a19.73,19.73,0,0,1,6.26-2.94A.33.33,0,0,0,132.72,49.41Z"/><path class="cls-4" d="M125.81,52.79l-.07,0a.12.12,0,0,1-.08,0,.1.1,0,0,1,0-.15l.06,0-.24-.08a.32.32,0,0,0,0,.39.3.3,0,0,0,.25.13.33.33,0,0,0,.19-.06l.3-.22-.24-.08Z"/><path class="cls-4" d="M136.12,59.43a.1.1,0,0,0-.05-.14l-4.71-2.22c.06.11.12.21.17.32L136,59.48A.11.11,0,0,0,136.12,59.43Z"/><path class="cls-4" d="M130.51,56.67h-.08a.07.07,0,0,0-.06,0,.1.1,0,0,0,0,.14l1.11.53c-.05-.11-.11-.21-.17-.32Z"/><path class="cls-4" d="M136.25,58.91l-5.31-2.5.22.33,5,2.36a.32.32,0,0,1-.13.6.35.35,0,0,1-.14,0l-4.2-2,.14.3,4,1.87a.46.46,0,0,0,.23,0,.55.55,0,0,0,.48-.3A.52.52,0,0,0,136.25,58.91Z"/><path class="cls-4" d="M130.33,57.05a.31.31,0,0,1-.15-.42.31.31,0,0,1,.42-.15l.56.26-.22-.33-.25-.12a.53.53,0,0,0-.41,0,.51.51,0,0,0-.29.27.53.53,0,0,0,.25.71l1.59.74-.14-.3Z"/><path class="cls-4" d="M136.07,59.29a.1.1,0,0,1,.05.14.11.11,0,0,1-.14,0l-4.45-2.09c.06.1.11.2.16.3l4.2,2a.35.35,0,0,0,.14,0,.32.32,0,0,0,.13-.6l-5-2.36c.07.11.14.22.2.33Z"/><path class="cls-4" d="M130.18,56.63a.31.31,0,0,0,.15.42l1.36.64c-.05-.1-.1-.2-.16-.3l-1.11-.53a.1.1,0,0,1,0-.14.07.07,0,0,1,.06,0h.08l.85.4c-.06-.11-.13-.22-.2-.33l-.56-.26A.31.31,0,0,0,130.18,56.63Z"/><path class="cls-4" d="M135.87,67.07A.1.1,0,0,0,136,67a.12.12,0,0,0-.11-.09h0l-3.15.61v.22Z"/><path class="cls-4" d="M130.86,67.93A.1.1,0,0,0,131,68l1.69-.33v-.22l-1.73.34A.1.1,0,0,0,130.86,67.93Z"/><path class="cls-4" d="M135.78,66.66a.32.32,0,1,1,.13.62l-3.24.63v.21l3.28-.63a.53.53,0,0,0,.41-.62.52.52,0,0,0-.62-.42l-3.07.59v.22Z"/><path class="cls-4" d="M130.44,68a.53.53,0,0,0,.52.43h.1l1.61-.31v-.21l-1.65.32H131a.31.31,0,0,1-.31-.26.32.32,0,0,1,.25-.37l1.77-.34V67l-1.81.36A.52.52,0,0,0,130.44,68Z"/><path class="cls-4" d="M136.16,66.91a.32.32,0,0,0-.38-.25l-3.11.6v.21l3.15-.61h0A.12.12,0,0,1,136,67a.1.1,0,0,1-.08.12l-3.2.62v.22l3.24-.63A.32.32,0,0,0,136.16,66.91Z"/><path class="cls-4" d="M131,68a.1.1,0,0,1-.12-.09.1.1,0,0,1,.08-.12l1.73-.34v-.21l-1.77.34a.32.32,0,0,0-.25.37.31.31,0,0,0,.31.26H131l1.65-.32v-.22Z"/><path class="cls-4" d="M134,83.61l0,0a.14.14,0,0,0,.1-.06.1.1,0,0,0,0-.14l-1.4-.79v.24Z"/><path class="cls-4" d="M129.81,81h0a.22.22,0,0,0-.06,0,.11.11,0,0,0,0,.15l2.91,1.64v-.24l-2.81-1.59Z"/><path class="cls-4" d="M134.17,83.25a.31.31,0,0,1,.12.43.32.32,0,0,1-.28.16.42.42,0,0,1-.15,0l-1.19-.67v.24l1.08.61a.48.48,0,0,0,.26.07.52.52,0,0,0,.46-.27.52.52,0,0,0-.19-.72l-1.61-.9v.24Z"/><path class="cls-4" d="M129.67,80.63a.53.53,0,0,0-.12,1l3.12,1.77v-.24l-3-1.71a.32.32,0,0,1-.12-.43.32.32,0,0,1,.44-.12l2.7,1.53v-.24l-2.6-1.48A.55.55,0,0,0,129.67,80.63Z"/><path class="cls-4" d="M134,83.84a.32.32,0,0,0,.28-.16.31.31,0,0,0-.12-.43l-1.5-.85v.24l1.4.79a.1.1,0,0,1,0,.14.14.14,0,0,1-.1.06l0,0-1.29-.73v.25l1.19.67A.42.42,0,0,0,134,83.84Z"/><path class="cls-4" d="M129.76,81.24a.11.11,0,0,1,0-.15.22.22,0,0,1,.06,0h.08l2.81,1.59V82.4L130,80.87a.32.32,0,0,0-.44.12.32.32,0,0,0,.12.43l3,1.71v-.25Z"/><path class="cls-4" d="M134.16,97.66c.35,0,.71,0,1.06,0a.14.14,0,0,0,.07,0,.12.12,0,0,0,0-.08.1.1,0,0,0-.12-.09,11.27,11.27,0,0,1-2.53-.05,1.48,1.48,0,0,1,0,.21A10.7,10.7,0,0,0,134.16,97.66Z"/><path class="cls-4" d="M130.79,96.91a.1.1,0,0,0-.1.07.1.1,0,0,0,.07.13,10.49,10.49,0,0,0,1.9.45,1.48,1.48,0,0,0,0-.21,10.28,10.28,0,0,1-1.84-.44Z"/><path class="cls-4" d="M135.18,97.19a.32.32,0,1,1,.06.63,9.76,9.76,0,0,1-1.08.05,10.84,10.84,0,0,1-1.51-.1c0,.07,0,.14,0,.21a11,11,0,0,0,1.52.1,10,10,0,0,0,1.1,0,.53.53,0,0,0,.48-.58.53.53,0,0,0-.58-.47,10.38,10.38,0,0,1-2.49-.06v.21A10.55,10.55,0,0,0,135.18,97.19Z"/><path class="cls-4" d="M130.29,96.85a.52.52,0,0,0,.34.66,10.49,10.49,0,0,0,2,.47c0-.07,0-.14,0-.21a10.33,10.33,0,0,1-2-.46.32.32,0,0,1-.2-.4.33.33,0,0,1,.4-.2,11,11,0,0,0,1.78.42v-.21a10.13,10.13,0,0,1-1.71-.41A.53.53,0,0,0,130.29,96.85Z"/><path class="cls-4" d="M135.24,97.82a.32.32,0,1,0-.06-.63,10.55,10.55,0,0,1-2.51-.06h0v.22a11.27,11.27,0,0,0,2.53.05.1.1,0,0,1,.12.09.12.12,0,0,1,0,.08.14.14,0,0,1-.07,0c-.35,0-.71,0-1.06,0a10.7,10.7,0,0,1-1.5-.1,1.48,1.48,0,0,1,0,.21,10.84,10.84,0,0,0,1.51.1A9.76,9.76,0,0,0,135.24,97.82Z"/><path class="cls-4" d="M130.76,97.11a.1.1,0,0,1-.07-.13.1.1,0,0,1,.1-.07h0a10.28,10.28,0,0,0,1.84.44v-.22h0a11,11,0,0,1-1.78-.42.33.33,0,0,0-.4.2.32.32,0,0,0,.2.4,10.33,10.33,0,0,0,2,.46,1.48,1.48,0,0,0,0-.21A10.49,10.49,0,0,1,130.76,97.11Z"/></svg>