<svg xmlns="http://www.w3.org/2000/svg" viewBox="0 0 150 160"><defs><style>.cls-1{isolation:isolate;}.cls-2{fill:#fff;stroke:#fff;stroke-miterlimit:10;stroke-width:5px;}.cls-3{fill:#f2b361;}.cls-4,.cls-5{fill:#ffcc83;}.cls-14,.cls-15,.cls-17,.cls-21,.cls-5{opacity:0.3;}.cls-13,.cls-14,.cls-17,.cls-21,.cls-27,.cls-28,.cls-5{mix-blend-mode:multiply;}.cls-6{fill:#6d5b68;}.cls-7{fill:#5d4455;}.cls-8{fill:#ffa154;}.cls-9{fill:#513c4c;}.cls-10{fill:#6d5667;}.cls-11{fill:#f4863d;}.cls-12,.cls-13,.cls-14,.cls-15,.cls-16{fill:#9496a3;}.cls-13,.cls-16{opacity:0.4;}.cls-15,.cls-16{mix-blend-mode:screen;}.cls-18{fill:#21557c;}.cls-19{fill:#ead8c6;}.cls-20{fill:#d6b8a7;}.cls-21{fill:#c11313;}.cls-22{fill:#ea7f37;}.cls-23{fill:#562a12;}.cls-24{fill:#db6a2b;}.cls-25{fill:#2a6e93;}.cls-26,.cls-27{fill:#ffdfa7;}.cls-27{opacity:0.15;}.cls-28{fill:#f4ca86;opacity:0.6;}.cls-29{fill:#664039;}.cls-30{fill:#51414d;}.cls-31{fill:#b33700;}.cls-32{fill:#9c2000;}.cls-33{fill:#f28c40;}.cls-34{fill:#634e5f;}.cls-35{fill:#5d4a57;}</style></defs><g class="cls-1"><g id="भिखारी"><path class="cls-2" d="M133.19,133.23c-1.43-4.9-20-2.6-23.45-3.06,10.72-2.28,40.39-31.14,15-28.42-34.83,15.53,5.93-4.21-18-36.74-3.13-4.5-7.48-7.94-13.1-8.65-18-2.72,6,.61,3.42-26C92.8,1.89,63.19,29.79,69,38c5.84,34,9.6,2.7-17.41,44.62-5.07,8.59-4.49-6.41-12.12-5.16A94.3,94.3,0,0,0,23.21,62.54c-7.18,0-11.93-3.24-10.38,6.64C11.58,78.59,16,75.61,22.71,76c.86-.21-.36-3,.91-2.69,3.14-1.35,5.94-3.55,6.79,1.24,2.85,19.77,22.35,34.81,36.94,12,4.93,47.25-21.2,3.51-33,16.62-2.14,12.5,14.67,21.24,22.54,27-4.9-.21-19-1.35-20.21-.29-2.72,2.41-3.92,5.2-5.94,7.76-.25.31.93.15,1.61.19,4.73.32,16.09-.19,29.28.79,2.08.15-1,2.54,1.19,2.72,20,1.66,45.27,2.45,41.63-2.47.63,0,25-1.22,24.68-1.24C131.72,135.79,142.81,132.3,133.19,133.23ZM24.08,65.68a1.74,1.74,0,0,1,1.06.46C24.59,66.15,22.67,65.59,24.08,65.68Zm-1,4.46c.67.52,1.16,1.78,0,1.71Z"/><path class="cls-3" d="M135.28,133.73h0l-2.09.12-3.38-3.06H37.46L30.62,137h-.7v.64H46.49l3-.71,3.93.71h75.7l6.26-3.08h0l1.91-.94V133Z"/><polygon class="cls-4" points="137.28 133 129.11 137 53.41 137 49.48 136.3 46.49 137 29.92 137 37.46 130.17 129.81 130.17 133.19 133.23 137.28 133"/><polygon class="cls-5" points="133.19 133.23 129.11 137 137.28 133 133.19 133.23"/><polygon class="cls-5" points="131.37 131.59 119.47 131.59 120.06 132.17 132.02 132.17 131.37 131.59"/><path class="cls-6" d="M40.82,77s-6.67,2-8.3,7.07C32.52,84,38,88,40.82,77Z"/><path class="cls-7" d="M40.58,78s-5.85,1.79-7.29,6.21C33.29,84.23,38.07,87.68,40.58,78Z"/><path class="cls-7" d="M75.91,56.58c-4.59.74-7.61,1.4-17.59,16.7S43.5,89.5,44.14,94.66,55.83,102.9,68.3,85.3C79.17,70,75.91,56.58,75.91,56.58Z"/><path class="cls-8" d="M31.36,69.07c.14.41,8.49,9,12.38,12.51,6.25,5.58,12.58,9.78,9.93,14.15-2.32,3.8-7.44,4-13.74-3.27C34.49,86.2,29.19,71.38,29.19,71.38Z"/><path class="cls-7" d="M42.77,80.33l-6.85,6.29c5,10.19,14.33,15.86,18.3,9.33C57.22,91,49.3,86.47,42.77,80.33Z"/><path class="cls-9" d="M68.67,74.33c-1.06.35-1,3.31-3.64,8.64S53.48,96.47,49.35,96.11s-8.48-8.64-8.48-8.64l-3,2.32c3.22,5,7.31,8.34,10.85,8.8a7.75,7.75,0,0,0,1.55.09l.2,0C55,98.42,61.41,95,68.3,85.23c.59-.84,1-1.64,1.49-2.46C69.62,78.77,69.29,74.12,68.67,74.33Z"/><path class="cls-10" d="M40.82,77s-3.54,9.11-8.3,7.07c0,0,2.45,6,5.57,8.3,0,0,7.75-3.81,8.71-9.39C46.8,82.94,44,78.45,40.82,77Z"/><path class="cls-11" d="M23.12,66.69s-.9,3.14,1.08,4.6c1,.72,3.59.51,5.18,0,.45-.29,1.25-.71,1.25-1.23a8.47,8.47,0,0,0-2.37-3.79C25.94,66.33,24,65.7,23.12,66.69Z"/><path class="cls-12" d="M22.71,76H13.23a.29.29,0,0,1-.3-.29L12.72,62.6a.31.31,0,0,1,.31-.31h9.88a.31.31,0,0,1,.31.31L23,75.72A.29.29,0,0,1,22.71,76Z"/><path class="cls-12" d="M22.62,73.43c-1.25,0-1.51-.67-1.56-.91l1.52-.31a.51.51,0,0,0-.25-.35,3.56,3.56,0,0,0,2.41-.69A2.91,2.91,0,0,0,26,68.54c0-1.05-.33-2.38-1.47-2.77a2,2,0,0,0-1.75.21l-1.46-.44c.22-1,1.67-1.54,2.87-1.4.75.06,3.21.57,3.35,4.34a4.76,4.76,0,0,1-4.41,4.92A3.2,3.2,0,0,1,22.62,73.43Z"/><path class="cls-13" d="M24.27,64.14a2.83,2.83,0,0,0-1.08.07l0-1.62a.3.3,0,0,0-.29-.3H20L19.78,76h2.93a.3.3,0,0,0,.3-.3l0-2.29.13,0a4.77,4.77,0,0,0,4.38-4.92C27.47,64.71,25,64.2,24.27,64.14Zm.55,7a4.24,4.24,0,0,1-1.75.69l.09-6a1.92,1.92,0,0,1,1.43-.07c1.14.39,1.4,1.72,1.43,2.77A2.88,2.88,0,0,1,24.82,71.17Z"/><path class="cls-14" d="M22.72,75.77h-9.5a.3.3,0,0,1-.3-.28v.23a.29.29,0,0,0,.3.29h9.48a.29.29,0,0,0,.3-.29v-.23A.3.3,0,0,1,22.72,75.77Z"/><path class="cls-15" d="M22.92,62.29H13a.31.31,0,0,0-.31.31v.3a.3.3,0,0,1,.3-.31h9.88a.3.3,0,0,1,.3.31v-.3A.31.31,0,0,0,22.92,62.29Z"/><path class="cls-16" d="M13.43,63.08h4.2s-1,6.38-2.51,6.43S13.43,63.08,13.43,63.08Z"/><path class="cls-15" d="M15,70.5c1.53,0,1.21,3.76,0,3.76S13.87,70.5,15,70.5Z"/><g class="cls-17"><path class="cls-12" d="M24.54,65.77c1.11.38,1.41,1.65,1.47,2.68v-.28c0-1-.33-2.38-1.47-2.77a2.19,2.19,0,0,0-1.37,0v.37A2.18,2.18,0,0,1,24.54,65.77Z"/><path class="cls-12" d="M23.14,73h-.09v.37h.09a4.76,4.76,0,0,0,4.41-4.92v-.06A4.79,4.79,0,0,1,23.14,73Z"/></g><path class="cls-8" d="M29.47,66.42A4.08,4.08,0,0,0,27.06,65c-.77-.14-3.12-.79-3.25,0s2,1.17,2.89,1.49c1.19.43.69,4.81,3.69,4.27a10.56,10.56,0,0,0,1.53-.92A31.4,31.4,0,0,0,29.47,66.42Z"/><path class="cls-8" d="M22.71,66.06c.28-.76,1.64,0,2.59.27s2.18.37,2.3.87-.87.83-2.37.53S22.32,67.1,22.71,66.06Z"/><path class="cls-8" d="M22.52,67.67c.23-.79,1.72-.13,2.74.06s2.32.2,2.48.69-.84.9-2.43.72S22.2,68.74,22.52,67.67Z"/><path class="cls-8" d="M22.78,69.32c.16-.81,1.56-.29,2.51-.2s2.13,0,2.31.45-.7,1-2.17,1S22.57,70.42,22.78,69.32Z"/><path class="cls-8" d="M23.64,71c0-.67,1.22-.44,2-.49s1.7-.3,1.91.06-.45.89-1.63,1.06S23.6,71.89,23.64,71Z"/><path class="cls-18" d="M33.87,104.9c-.63,7.49,12.24,21.16,31.68,29.3,6.67,2.87,29.22,2.43,35.46,0s32.24-14.54,33.78-27.76L105.63,117l-.42-2.86-41.34-2.43L60.1,114.6Z"/><path class="cls-19" d="M70.68,29.29c-.71,5.2-2.75,5.21-2.59,8.87A4.23,4.23,0,0,1,69.6,36.4c-2.39,4.6,1,7.6,1,10,0,.09,13,7.28,13,7.28l1.44-1,1.14,1.62c3-3,6.63-1.37,8.05-7.65l.17,1.66c1.58-1.43.44-5.65,1.25-8.05C95.34,34,88.28,29,82.6,27.39S70.68,29.29,70.68,29.29Z"/><path class="cls-20" d="M86.24,54.3c3-3,6.63-1.37,8.05-7.65l.17,1.66c1.58-1.43.44-5.65,1.25-8.05a9.06,9.06,0,0,0-.54-2.57l-3-.91L84.89,52.71Z"/><path class="cls-7" d="M82.08,55.61c-8,.23-12.74,3.6-14.07,5.51-4.22,6.05,1,17.14.2,31.21s-3.87,13-4.48,21.82c0,0,25.08,13.47,43.85-1.22,0,0-.61-11.83-2-27.95s-3.13-25-6.19-26.82S89,55.41,82.08,55.61Z"/><path class="cls-9" d="M107.58,112.93s-.61-11.83-2-27.95c-.27-3-.55-5.66-.84-8.16l-2.61.26c-2.51,16-8.1,30.59-20.88,33.45-10.53,2.36-14.95-.63-16.48-2a24,24,0,0,0-1,5.63S88.81,127.62,107.58,112.93Z"/><path class="cls-7" d="M113.72,81.51a53.83,53.83,0,0,0-2.6-8.38l-.47.15L110.22,72c.15-.06.22-.11.34-.16-5.06-11.64-12-14.08-12-14.08-2.59,3.82-4.18,6.44-.12,23.41s1.42,21.09,5.52,23.9S118.2,101.66,113.72,81.51Z"/><path class="cls-9" d="M97.65,61.73a5.43,5.43,0,0,0,3.68-2.32,13.36,13.36,0,0,0-2.81-1.65l0,.05c-3.38-1.58-10-2.38-16.41-2.2a26.7,26.7,0,0,0-5.39.7A22.43,22.43,0,0,0,97.65,61.73Z"/><path class="cls-11" d="M73.85,57a14.92,14.92,0,0,0,15,5.77c6.74-1.23,4.85-6.39,4.85-6.39A41.15,41.15,0,0,0,73.85,57Z"/><path class="cls-11" d="M87.31,56.32H77.88c.88-1.49.64-8.86.64-8.86h8.26S86.07,54.71,87.31,56.32Z"/><path class="cls-21" d="M93.66,56.36A39.63,39.63,0,0,0,87,55.5c-.72-2.45-.17-8-.17-8H78.52S78.73,54.11,78,56c-.42.07-.86.21-1.28.3a22.9,22.9,0,0,0,13.76,6C95.14,60.55,93.66,56.36,93.66,56.36Z"/><path class="cls-8" d="M73.82,26.07C71.74,29.55,72.47,34,71.66,38,70.22,45,69,49.88,74.47,52.57a13.05,13.05,0,0,0,5.75,1.13c4.15.08,7.59-3.32,8.94-7.3C90.67,42,92.85,33.09,92.06,30,90.28,23.16,77.63,19.7,73.82,26.07Z"/><path class="cls-22" d="M77.84,53.5a22.2,22.2,0,0,0,2.39.2c4.14.08,7.58-3.32,8.93-7.3.45-1.32,1-3,1.43-4.88l-1.68.38S87.63,53.82,77.84,53.5Z"/><path class="cls-22" d="M82.56,31.82A20.59,20.59,0,0,1,91.45,38a16.65,16.65,0,0,0,.25-5.82C89.92,25.34,77,21.68,73.18,28.05a11.15,11.15,0,0,0-.92,3.63C74.22,30.87,77.49,30.25,82.56,31.82Z"/><path class="cls-22" d="M77.84,33.65a5.43,5.43,0,0,1,.89,2.19c.55,5-3.73,4.52-3.72,5.72,0,1.74,3.4,1.86,3.4,1.86-.6,1-4.12,0-4.09-1.77,0-2.07,4.21-1,4-5.71A14,14,0,0,0,77.84,33.65Z"/><path class="cls-23" d="M83.93,38.82a1,1,0,1,1-.68-1.4A1.12,1.12,0,0,1,83.93,38.82Z"/><path class="cls-23" d="M75.26,37.2c-.13.62-.61,1-1.08.95a1,1,0,0,1-.64-1.29c.13-.62.61-1,1.08-1A1,1,0,0,1,75.26,37.2Z"/><path class="cls-22" d="M93.69,42.72c-.48,1.8-2.94,3.24-4.46,2.4-1-.53-.3-1.74.18-3.53s1.72-3,2.77-2.74S94.17,40.93,93.69,42.72Z"/><path class="cls-19" d="M90,45.34s-.84-.62-.13-3.05l-.8-.7a5.8,5.8,0,0,1-5.16,3.9,3.4,3.4,0,0,1-.71,0l.37.51c-.37-.16-1.06-.51-1.65-.8A18.7,18.7,0,0,0,78,43.81a12.43,12.43,0,0,0-3.59.07l-2,.36.8-.52a5,5,0,0,1-.68-.27c-1.6-.8-1.4-3.08-1.4-3.08a20.38,20.38,0,0,0-.61,2.19,9.72,9.72,0,0,0-.27,7.09,15.49,15.49,0,0,1-.08-2.59,12.83,12.83,0,0,0,3.46,7.23,28.31,28.31,0,0,1,2.11,3.26,3.62,3.62,0,0,0,0-.68,9.4,9.4,0,0,1,.9,1.51c4.2-2.71,10-3.66,12.4-9.33a16.28,16.28,0,0,1-.92,2.28A7,7,0,0,0,90,45.34Z"/><path class="cls-20" d="M89,49.05a16.28,16.28,0,0,1-.92,2.28,7,7,0,0,0,1.87-6s-.84-.62-.13-3.05l-.8-.7a5,5,0,0,1-.57,1.19c0,1.78.59,4.63-.73,7a7.41,7.41,0,0,1-4.68,3.48,4.49,4.49,0,0,0,.54-1.65,12,12,0,0,1-4,3.73,11,11,0,0,0-3,3C80.81,55.67,86.62,54.72,89,49.05Z"/><path class="cls-24" d="M92.24,42.65a1.44,1.44,0,0,1-1.81,1c-.39-.21-.12-.71.07-1.44s.7-1.23,1.13-1.11A1.32,1.32,0,0,1,92.24,42.65Z"/><path class="cls-19" d="M93.86,29.07c-1.56-7-7.87-8.36-13.64-8.33-8,2.28-8,10.75-8,10.75.23-1.76,1.11-5.68,6.88-6.63a10.22,10.22,0,0,1,9.14,3.05l.06,0a7.12,7.12,0,0,1,1.77,7.71c-1.31,4.18-1.92,7,.38,8.49C89.5,38.4,95.77,37.63,93.86,29.07Z"/><path class="cls-19" d="M82.6,33c-.25,0-.91,1.63-.67,2a10.61,10.61,0,0,0,5.38,2.7c.37,0,.87-1.28.75-1.55a15.65,15.65,0,0,0-2.47-1.56A15.56,15.56,0,0,0,82.6,33Z"/><path class="cls-19" d="M76.56,31.89a3.06,3.06,0,0,1-.1,2,7.42,7.42,0,0,1-4.87.72c-.29-.08-.26-1.45-.09-1.66a11.72,11.72,0,0,1,2.33-.62A10.52,10.52,0,0,1,76.56,31.89Z"/><path class="cls-20" d="M81.93,34.37a.93.93,0,0,0,0,.58,10.61,10.61,0,0,0,5.38,2.7c.13,0,.26-.16.39-.37A11.91,11.91,0,0,1,81.93,34.37Z"/><path class="cls-8" d="M80.1,130.81a32.24,32.24,0,0,1-3.87,1.09c-9.83,2.1-16.4-2.24-17.41-1.22-1.34,1.35,1.86,5.84,4.44,5.88a47.74,47.74,0,0,0,13.15-2.27c1.9-.6,4.39-1.28,4.39-1.28Z"/><path class="cls-8" d="M56.75,130.4c.38-1.05,1.86-.25,2.69.09s-.51,1.11-.51,1.11S56.29,131.7,56.75,130.4Z"/><path class="cls-8" d="M57.31,132.5c.12-.84,1.5-.58,2.24-.5s-.22.9-.22.9S57.16,133.52,57.31,132.5Z"/><path class="cls-8" d="M57.82,134.09c-.07-.84,1.33-.9,2.07-1s0,.93,0,.93S57.91,135.12,57.82,134.09Z"/><path class="cls-8" d="M58.82,135.26c-.09-.73,1.2-.92,1.88-1.08s0,.82,0,.82S58.94,136.16,58.82,135.26Z"/><path class="cls-8" d="M59.78,136.17c-.09-.73,1.2-.92,1.88-1.07s0,.81,0,.81S59.9,137.08,59.78,136.17Z"/><path class="cls-11" d="M86,128.08a32.37,32.37,0,0,0,3.59,1.8c9.27,3.92,15.61-.22,16.62.8,1.34,1.35-1.86,5.84-4.44,5.88-2.93,0-8.27-1.91-12.8-4.37-1.75-.94-4.07-2.09-4.07-2.09Z"/><path class="cls-11" d="M108.29,130.4c-.37-1.05-1.86-.25-2.68.09s.51,1.11.51,1.11S108.76,131.7,108.29,130.4Z"/><path class="cls-11" d="M107.74,132.5c-.12-.84-1.5-.58-2.24-.5s.22.9.22.9S107.89,133.52,107.74,132.5Z"/><path class="cls-11" d="M107.23,134.09c.07-.84-1.33-.9-2.07-1s0,.93,0,.93S107.14,135.12,107.23,134.09Z"/><path class="cls-11" d="M106.23,135.26c.09-.73-1.2-.92-1.88-1.08s0,.82,0,.82S106.11,136.16,106.23,135.26Z"/><path class="cls-11" d="M105.26,136.17c.1-.73-1.19-.92-1.87-1.07s0,.81,0,.81S105.15,137.08,105.26,136.17Z"/><path class="cls-20" d="M71.57,34.26c-.11,0-.16-.25-.19-.51,0,.42.05.84.21.89a7.42,7.42,0,0,0,4.87-.72.8.8,0,0,0,.16-.39A7.89,7.89,0,0,1,71.57,34.26Z"/><path class="cls-25" d="M73.73,128.26A22.31,22.31,0,0,0,79,135.75s50.14-8.6,55.81-29.31c0,0-.42-4.62-2.94-5.72s-13.85,2.64-28.32,10.57S73.73,128.26,73.73,128.26Z"/><path class="cls-25" d="M85.69,124.29a25.26,25.26,0,0,1-4.47,7.84s-42.73-5.35-47.56-25.69c0,0,.36-4.65,2.5-5.91S48,102.27,60.3,109.26,85.69,124.29,85.69,124.29Z"/><polygon class="cls-26" points="103.08 142.07 64.42 142.07 65.62 119.66 101.88 119.66 103.08 142.07"/><polygon class="cls-27" points="103.08 142.07 64.42 142.07 101.88 119.66 103.08 142.07"/><polygon class="cls-28" points="101.93 119.66 102.51 141.37 65.08 141.37 65.67 119.66 64.47 142.07 103.13 142.07 101.93 119.66"/><path class="cls-29" d="M70,124.3a.31.31,0,0,1,.12-.07.39.39,0,0,1,.18,0,.29.29,0,0,1,.19.08.53.53,0,0,1,.13.25,8,8,0,0,1,2-.45,3.57,3.57,0,0,1,1.33.11,1.33,1.33,0,0,1,.73.53,1.17,1.17,0,0,1,.19.8,2.36,2.36,0,0,1-.33.94,3.85,3.85,0,0,1-.82.92,5.85,5.85,0,0,1-1.26.76,6.46,6.46,0,0,1-1.68.47c0,.08,0,.19,0,.35s0,.35,0,.55,0,.42,0,.64,0,.44,0,.64,0,.4,0,.56,0,.29,0,.37a.53.53,0,0,1-.14.52.66.66,0,0,1-.53.12Zm2.77.39a2.93,2.93,0,0,0-.69.08,2.15,2.15,0,0,0-.7.24,1.48,1.48,0,0,0-.53.46,1.16,1.16,0,0,0-.19.73v1.73a8.56,8.56,0,0,0,1.83-.59,3.73,3.73,0,0,0,1.09-.7,1.42,1.42,0,0,0,.47-.71.85.85,0,0,0,0-.63,1,1,0,0,0-.46-.44A1.71,1.71,0,0,0,72.75,124.69Z"/><path class="cls-29" d="M75.3,122c.06-.08.11-.16.17-.23a.3.3,0,0,1,.24-.11c.07,0,.13.09.19.25a4.58,4.58,0,0,1,.16.66c0,.28.08.59.11,1s.06.71.08,1.09,0,.76,0,1.13,0,.72,0,1,0,.58,0,.8v.46a.39.39,0,0,1-.06.23.34.34,0,0,1-.15.14.48.48,0,0,1-.21.07l-.22,0h-.08c0-.14,0-.35,0-.64s0-.61,0-1,0-.74,0-1.14,0-.77,0-1.13,0-.69,0-1,0-.5,0-.64,0-.1,0-.2a2.72,2.72,0,0,1,0-.3l-.06-.3C75.32,122.14,75.31,122.08,75.3,122Z"/><path class="cls-29" d="M76.9,127.21A3,3,0,0,1,77,126a3.5,3.5,0,0,1,.6-1.09,2.84,2.84,0,0,1,1-.75,2.62,2.62,0,0,1,1.22-.26l.3,0a3.34,3.34,0,0,1,.4.1l.42.17a2.31,2.31,0,0,1,.36.25,1.27,1.27,0,0,1,.24.33.75.75,0,0,1,0,.4,2.05,2.05,0,0,1-.76.32,8.7,8.7,0,0,1-.87.13l-.87.06a2.69,2.69,0,0,0-.75.15,1,1,0,0,0-.48.38,1,1,0,0,0-.11.75,1.2,1.2,0,0,0,.39.65,1.32,1.32,0,0,0,.65.25,2.26,2.26,0,0,0,.77,0,6.87,6.87,0,0,0,.81-.22c.26-.09.51-.19.74-.29l.57-.25a.25.25,0,0,1,.18.08.29.29,0,0,1,.07.18,2,2,0,0,1-.61.62,4.12,4.12,0,0,1-.92.44,4.72,4.72,0,0,1-1.07.21,3.3,3.3,0,0,1-1-.09,2.12,2.12,0,0,1-.85-.42A1.5,1.5,0,0,1,76.9,127.21Zm2.83-2.76a1.71,1.71,0,0,0-.36,0,1.34,1.34,0,0,0-.39.11,1.08,1.08,0,0,0-.33.2.43.43,0,0,0-.15.33l2-.33a.67.67,0,0,0-.33-.27A1.26,1.26,0,0,0,79.73,124.45Z"/><path class="cls-29" d="M86.43,126.87a3.35,3.35,0,0,1-.53.65,3.54,3.54,0,0,1-.67.5,2.75,2.75,0,0,1-.8.3,3.3,3.3,0,0,1-.9.06,2.47,2.47,0,0,1-.36,0,1.33,1.33,0,0,1-.35-.13.87.87,0,0,1-.27-.23.61.61,0,0,1-.11-.36,2.05,2.05,0,0,1,0-.92,3.12,3.12,0,0,1,.39-.88,3.74,3.74,0,0,1,.65-.8,4,4,0,0,1,.82-.61,3.58,3.58,0,0,1,.89-.37,2.24,2.24,0,0,1,.89,0,.62.62,0,0,1,.52.22,1.38,1.38,0,0,1,.27.57,3.45,3.45,0,0,1,.12.83c0,.31,0,.64,0,1s0,.66.05,1a4.56,4.56,0,0,0,.12.88h-.59c0-.18-.05-.34-.06-.47s0-.28,0-.39,0-.24,0-.35S86.46,127,86.43,126.87Zm-.61-2.14a1.46,1.46,0,0,0-.64.09,2.66,2.66,0,0,0-.64.3,3.66,3.66,0,0,0-.58.46,4.81,4.81,0,0,0-.47.56,4.08,4.08,0,0,0-.31.57,1.14,1.14,0,0,0-.08.53.66.66,0,0,0,.17.41.93.93,0,0,0,.5.22,1.89,1.89,0,0,0,.92-.24,3.13,3.13,0,0,0,.8-.59,3.43,3.43,0,0,0,.58-.75,2.5,2.5,0,0,0,.3-.75.8.8,0,0,0-.06-.58A.51.51,0,0,0,85.82,124.73Z"/><path class="cls-29" d="M88.83,128.37a8.41,8.41,0,0,0,1.06-.44,5.94,5.94,0,0,0,.82-.48,1.58,1.58,0,0,0,.45-.45c.08-.13.06-.24-.06-.3a1.24,1.24,0,0,0-.71-.07,8.94,8.94,0,0,0-1.5.27,1.27,1.27,0,0,1-.52-.11,1.33,1.33,0,0,1-.39-.26,1.27,1.27,0,0,1-.24-.33.89.89,0,0,1-.08-.35,1,1,0,0,1,.17-.52,2.52,2.52,0,0,1,.49-.49,4.05,4.05,0,0,1,.71-.43,5.19,5.19,0,0,1,.84-.3,5.28,5.28,0,0,1,.9-.15,3.2,3.2,0,0,1,.88,0c.16,0,.26.07.28.21a3.66,3.66,0,0,1,0,.69,3.44,3.44,0,0,0-.71-.22,5,5,0,0,0-.77-.05,4.25,4.25,0,0,0-.74.11,2.2,2.2,0,0,0-.64.26,1.28,1.28,0,0,0-.45.41.93.93,0,0,0-.19.54.21.21,0,0,0,.14.22.9.9,0,0,0,.3,0,2.45,2.45,0,0,0,.38,0,1.45,1.45,0,0,1,.32,0A6.55,6.55,0,0,1,91.3,126a1.25,1.25,0,0,1,.81.25.47.47,0,0,1,.06.56,2.09,2.09,0,0,1-.55.72,6.18,6.18,0,0,1-1.05.73,7.78,7.78,0,0,1-1.4.61s0,0-.09-.06l-.1-.14-.09-.16Z"/><path class="cls-29" d="M92.81,127.21a3,3,0,0,1,.12-1.26,3.29,3.29,0,0,1,.59-1.09,3,3,0,0,1,1-.75,2.65,2.65,0,0,1,1.22-.26l.31,0,.4.1.41.17a1.64,1.64,0,0,1,.36.25.93.93,0,0,1,.24.33.67.67,0,0,1,0,.4,1.94,1.94,0,0,1-.75.32,8.48,8.48,0,0,1-.88.13l-.87.06a2.62,2.62,0,0,0-.74.15,1,1,0,0,0-.49.38,1.08,1.08,0,0,0-.1.75,1.14,1.14,0,0,0,.39.65,1.29,1.29,0,0,0,.64.25,2.33,2.33,0,0,0,.78,0,8.12,8.12,0,0,0,.81-.22c.26-.09.51-.19.74-.29l.57-.25a.21.21,0,0,1,.17.08.24.24,0,0,1,.07.18,2,2,0,0,1-.6.62,4.35,4.35,0,0,1-.92.44,4.8,4.8,0,0,1-1.08.21,3.23,3.23,0,0,1-1-.09,2.16,2.16,0,0,1-.86-.42A1.49,1.49,0,0,1,92.81,127.21Zm2.82-2.76a1.7,1.7,0,0,0-.35,0,1.4,1.4,0,0,0-.4.11,1.08,1.08,0,0,0-.33.2.45.45,0,0,0-.14.33l2-.33a.75.75,0,0,0-.34-.27A1.22,1.22,0,0,0,95.63,124.45Z"/><path class="cls-29" d="M71.36,135.29a1.26,1.26,0,0,1-.25-.07.18.18,0,0,1-.11-.17.37.37,0,0,1,.08-.21l.17-.21a2,2,0,0,0,.17-.23.63.63,0,0,0,.1-.27c0-.07,0-.18,0-.32s0-.32,0-.5,0-.39,0-.59,0-.41,0-.59a4.9,4.9,0,0,0,0-.5c0-.15,0-.26,0-.33a1,1,0,0,1,.15-.15A.64.64,0,0,1,72,131a.29.29,0,0,1,.18,0c.06,0,.11,0,.14.14l-.06,3.16H73l.62,0,.67,0,.58-.09a1.13,1.13,0,0,0,.41-.16V130.8a.16.16,0,0,1,.11-.1l.22,0,.23,0H76c0,.12,0,.31,0,.57s0,.56,0,.89,0,.67,0,1,0,.71,0,1,0,.62,0,.88,0,.46,0,.58a6.9,6.9,0,0,0,.14,1,3.56,3.56,0,0,0,.36,1c-.14,0-.28.09-.43.12a2.9,2.9,0,0,1-.56,0,6,6,0,0,1-.39-1.48c-.06-.52-.1-1-.11-1.52h-.76l-.65,0a3.79,3.79,0,0,0-.66.11,6.1,6.1,0,0,0-.76.22,6.83,6.83,0,0,0,0,1.2,8.46,8.46,0,0,0,.17,1.29l-.79.39Z"/><path class="cls-29" d="M77.35,131.56a2.59,2.59,0,0,0,.57.07h.8l.91,0,.91,0c.29,0,.54,0,.78,0a2.09,2.09,0,0,1,.55.1v.5a6.52,6.52,0,0,1-.74,0h-1l-1.08,0a5.8,5.8,0,0,0-.93.11c0,.22-.08.41-.11.55s0,.28,0,.39,0,.21,0,.31,0,.2,0,.31,0,.23,0,.37,0,.33,0,.53a8.07,8.07,0,0,0,1,0c.32,0,.65-.07,1-.12l1-.12c.32,0,.65-.05,1-.05v.54l-3.82.48,0,1.64c.51,0,1,0,1.36,0l1.16-.09,1.09-.09c.35,0,.74,0,1.13,0a.69.69,0,0,1,0,.22,1.59,1.59,0,0,1-.13.22.43.43,0,0,1-.18.15.17.17,0,0,1-.2,0l-1.22.13-1.35.12-1.33.11-1.11.09Z"/><path class="cls-29" d="M83.62,137.74a5.49,5.49,0,0,0,.13-.9c0-.38.06-.78.08-1.22s0-.9,0-1.36v-2.44c0-.33,0-.57,0-.73l.8,0-.1,5.87,5.28.15c.12,0,.17.09.16.17a.41.41,0,0,1-.16.26,1,1,0,0,1-.36.2,1,1,0,0,1-.48,0Z"/><path class="cls-29" d="M93.93,131.8a2.71,2.71,0,0,1,.36,0,3.58,3.58,0,0,1,.53.06,4.49,4.49,0,0,1,.59.13,2.32,2.32,0,0,1,.56.21,1.3,1.3,0,0,1,.41.31.67.67,0,0,1,.16.43,1.61,1.61,0,0,1-.28.95,2.8,2.8,0,0,1-.75.7,4.38,4.38,0,0,1-1,.49,9.65,9.65,0,0,1-1.14.31c-.39.07-.75.12-1.09.15s-.64,0-.87,0l0,2.25c0,.05,0,.08-.1.09a1,1,0,0,1-.25,0h-.44v-1.14c0-.38,0-.78,0-1.19s.06-1,.08-1.33a5.56,5.56,0,0,1,.11-1,2,2,0,0,1,.26-.71,1.21,1.21,0,0,1,.54-.45,3,3,0,0,1,.93-.25A11.75,11.75,0,0,1,93.93,131.8Zm-2.38,1.62a1.88,1.88,0,0,1-.06.29c0,.12,0,.23-.07.35a2.27,2.27,0,0,0,0,.35.62.62,0,0,0,0,.31.34.34,0,0,0,.17.2.48.48,0,0,0,.35,0c.16,0,.36,0,.61,0s.52-.06.8-.1.56-.11.85-.19a4,4,0,0,0,.76-.31,1.93,1.93,0,0,0,.55-.45.92.92,0,0,0,.22-.62.84.84,0,0,0-.26-.44,1.59,1.59,0,0,0-.5-.28,3.2,3.2,0,0,0-.66-.14,4.56,4.56,0,0,0-.74,0,4.3,4.3,0,0,0-.72.1,3.69,3.69,0,0,0-.64.22,1.7,1.7,0,0,0-.45.31A.62.62,0,0,0,91.55,133.42Z"/><path class="cls-7" d="M111.1,91.52c-4.27-2.69-7,5.17-13.2,13.27C97,106,96,107.17,95.07,108.35l5.21,5.11a43,43,0,0,0,8.51-6.75C115.29,99.46,114.82,93.87,111.1,91.52Z"/><path class="cls-30" d="M110.22,72c.15-.06.22-.11.34-.16-4.4-10.11-10.23-13.27-11.69-13.93,4.23,2.8,7.6,8.5,10,14.66C109.4,72.36,109.87,72.16,110.22,72Z"/><path class="cls-9" d="M113.72,81.51a53.83,53.83,0,0,0-2.6-8.38l-.47.15h0a9.36,9.36,0,0,1-1.41.27c2.87,7.84,4.1,16.24,3,20.46-2,7.9-9.43,13.08-9.43,13.08l1.9,3.27a30.09,30.09,0,0,0,4.06-3.64,19.94,19.94,0,0,0,4.61-7.61C114.93,95.19,115.49,89.48,113.72,81.51Z"/><path class="cls-11" d="M110.22,72a25.44,25.44,0,0,1-3.85,1.39,7.27,7.27,0,0,0,4.28-.13Z"/><path class="cls-10" d="M91.16,108.23s-.07,8.39,7.87,8.53C99,116.76,99.62,107.92,91.16,108.23Z"/><path class="cls-7" d="M92.28,108.29s-.06,7.09,6.65,7.2C98.93,115.49,99.43,108,92.28,108.29Z"/><path class="cls-8" d="M88.7,115.91A103.28,103.28,0,0,0,96,107.67c.84-1,7,3.31,3.88,5.29a101.24,101.24,0,0,1-9.09,5Z"/><path class="cls-8" d="M85,118.69c.13,0-.33,1.22-.34,2.71s.19,3.37.77,3.46.2-1.79.38-3.29c.15-1.31.41-2.37.67-2.29s0,1.22.08,2.46.26,2.8.74,2.79.23-1.54.29-2.8c0-1,.3-1.84.51-1.82a11.58,11.58,0,0,1,.09,1.61c.1.83.39,1.68.66,1.73.55.1-.09-2.21.5-3,1-1.26,2.15-2.46,1.89-3.54-.49-2-5.39-.72-6.49-.13-.95.51-1.65,2-1.8,3.56s.22,3.28.56,3.37c.58.15.39-1.52.68-2.91C84.37,119.53,84.71,118.61,85,118.69Z"/><path class="cls-10" d="M91.16,108.23A9.17,9.17,0,0,1,99,116.76a15.74,15.74,0,0,0,7.07-6s-1.56-7.82-9.06-8.45A20.56,20.56,0,0,0,91.16,108.23Z"/><path class="cls-8" d="M77.37,45.14c3.12.6,4,1.87,3.82,2.52-.13.47-.5.88-1.51.71s-1-1.08-2.24-1.41c-1.78-.47-2,.53-2.93.49-1.1,0-1.18-.6-1.09-1.1S74.62,44.62,77.37,45.14Z"/><path class="cls-22" d="M74,46.24a4.24,4.24,0,0,1,1.09-.4,6,6,0,0,1,2.37-.05,8.29,8.29,0,0,1,3.09,1.29.35.35,0,0,1,.07.46.3.3,0,0,1-.4.16h0a8,8,0,0,0-2.87-1.44,5.06,5.06,0,0,0-3.27.22.09.09,0,0,1-.13-.06A.16.16,0,0,1,74,46.24Z"/><path class="cls-20" d="M69.77,32.82a12.52,12.52,0,0,1,2.49-1.14l.62-1.46-2.44.46A13.68,13.68,0,0,1,69.77,32.82Z"/><path class="cls-20" d="M90.29,34.81c-.06.26-.13.54-.22.83s-.15.46-.22.68a43.49,43.49,0,0,1,5.55,5.91,7.82,7.82,0,0,1,.31-2,8.42,8.42,0,0,0-.14-1.11Z"/><path class="cls-31" d="M70.48,30.65c-.61-1.27,2-7.87,8.28-10.54,3.43-1.46,6.66-2.81,10.19-1.87,11.64,3.23,7.8,22.12,6.58,22.07s-5.42-7.81-14.19-10C73.46,28.36,71.59,31.22,70.48,30.65Z"/><path class="cls-32" d="M90.43,18.81a22.43,22.43,0,0,1-1.29,12.35c-7.09-3.34-13.82-2.56-14-2.24s9.8,1.26,13,4.69c4.18,3,6.47,6.67,7.31,6.7C96.7,40.36,100.2,23.21,90.43,18.81Z"/><path class="cls-31" d="M69.62,31.11c-.15-1.82,6.26-3.44,12.19-1.81,10.33,2.85,15.7,10.9,14.55,12C95,42.57,92.29,34,81.48,31.11,73.78,29.06,69.74,32.55,69.62,31.11Z"/><path class="cls-32" d="M88.79,32.27A1.66,1.66,0,0,1,88,34c5.51,3.58,7.34,8.26,8.34,7.3S94.62,35.45,88.79,32.27Z"/><path class="cls-32" d="M85.79,30.28l.52.13c2.44-3.47,2.54-10,2.5-12.19-.16,0-.32,0-.48-.06C88.58,26.2,85.79,30.28,85.79,30.28Z"/><path class="cls-32" d="M87.25,31l.53.12c2.4-3.69,2.17-10.63,2-12.53l-.45-.18C90.05,26.73,87.25,31,87.25,31Z"/><path class="cls-32" d="M86.9,33.29l.51.3a1.87,1.87,0,0,0,.8-1.67l-.49-.28A2.16,2.16,0,0,1,86.9,33.29Z"/><path class="cls-32" d="M85.52,32.56l.55.27a1.83,1.83,0,0,0,.85-1.63l-.5-.25A2,2,0,0,1,85.52,32.56Z"/><path class="cls-33" d="M81.05,39.58a6,6,0,0,0,1.35,1.89c.66.42,2.6-.47,2.6-.47A6.07,6.07,0,0,1,81.05,39.58Z"/><path class="cls-33" d="M76.14,38.63S75,40.17,74,40a2.46,2.46,0,0,1-1.48-1.07A5.17,5.17,0,0,0,76.14,38.63Z"/><path class="cls-10" d="M61.18,69l3.37,1.78L70.44,64l-3-2.86A64.68,64.68,0,0,0,61.18,69Z"/><path class="cls-34" d="M37.54,82.37a6,6,0,0,1-2.81,1.86s-1,.21-1.4-.07a6.09,6.09,0,0,1,.72-1.3c-.14-.3-.33-.65-.47-1A8,8,0,0,0,32.52,84s2.45,6,5.57,8.3a24.34,24.34,0,0,0,4.64-3.14A33.3,33.3,0,0,1,37.54,82.37Z"/><path class="cls-34" d="M104,106.23A45.91,45.91,0,0,1,97.33,112a8.78,8.78,0,0,1,1,1.93,7,7,0,0,1,.39,1.56,6.75,6.75,0,0,1-2.3-.46l-1.58.88A7.81,7.81,0,0,0,99,117a17.35,17.35,0,0,0,7.14-6.27A13.3,13.3,0,0,0,104,106.23Z"/><path class="cls-10" d="M114.73,93.06s-3.65.24-4.59,3.54,1.88,5.89,1.88,5.89A25.19,25.19,0,0,0,114.73,93.06Z"/><path class="cls-35" d="M114.73,93.06a6.34,6.34,0,0,0-2.44.79l0,.15a19.21,19.21,0,0,1-2.18,5.13,7.26,7.26,0,0,0,1.88,3.29,14.71,14.71,0,0,0,1.44-3.32A21.27,21.27,0,0,0,114.73,93.06Z"/><path class="cls-11" d="M98.35,113.9a8.68,8.68,0,0,0-3.8-4.47l-.58.68a6.76,6.76,0,0,1,2.86,3.18l-5.73,4.54C92,117.38,95,115.89,98.35,113.9Z"/><path class="cls-11" d="M40.2,78.33a11.05,11.05,0,0,1-3.68,3.76A126.48,126.48,0,0,1,29.9,71l-.56.25-.15.16a125.93,125.93,0,0,0,5.54,12.85C37.27,83.61,39.25,80.26,40.2,78.33Z"/></g></g></svg>