<svg id="खच्चर" xmlns="http://www.w3.org/2000/svg" viewBox="0 0 150 160"><defs><style>.cls-1{fill:#fff;}.cls-2{fill:#6e6561;}.cls-3{fill:#504a45;}.cls-4{fill:#e59393;}.cls-5{fill:#605954;}.cls-6{fill:#4f4b46;}.cls-7{fill:#766c68;}.cls-8{fill:#68615b;}.cls-9{fill:#948782;}.cls-10,.cls-18{fill:#817671;}.cls-11{fill:#3a3532;}.cls-12{fill:#201b1a;}.cls-13{fill:#c0b1a9;}.cls-14{fill:#ab9d97;}.cls-15{fill:#3f3b36;}.cls-16{fill:#141110;}.cls-17{fill:#9e908b;}.cls-18{opacity:0.76;}</style></defs><path class="cls-1" d="M137.57,97.79c.05-1,0-2,0-3s0-2.16,0-3.18.24-1.93.42-3a24.57,24.57,0,0,0,.49-5.07,10.27,10.27,0,0,0-1.73-5.47c.45-5.21-2.54-17.68-7.38-22A12.69,12.69,0,0,0,126.21,53a20.58,20.58,0,0,0-12-3.94A30.57,30.57,0,0,0,105,50.82a26.59,26.59,0,0,1-3.16.85A133.8,133.8,0,0,1,82.64,53a91.72,91.72,0,0,1-18.11-1.49,2.44,2.44,0,0,0,0-.27,3.29,3.29,0,0,0-.12-.8L64.29,50,64,49.62c-.5-.56-1.07-1.14-1.68-1.73v0L61.38,47,60.22,46l0,0c-.66-.56-1.36-1.13-2.09-1.7v0l-1-.7-.8-.61h0c-1.67-1.2-3.42-2.33-5.2-3.37v0l-.88-.48-1-.57,0,0A50.94,50.94,0,0,0,41.06,35l-.37-.12v0l-1-.29L39,34.38,37.7,34v.13a24.09,24.09,0,0,0-4.66-.52,22,22,0,0,0-2.54-2.24L23.05,25.7a3.16,3.16,0,0,0-1.88-.64,2.9,2.9,0,0,0-1.74.57c-1.8,1.31-1.39,3.81-.48,5.56l.11.2-3.13-1.64a3.13,3.13,0,0,0-1.46-.37,3,3,0,0,0-2.13.88c-1.56,1.59-.74,4,.43,5.57l.08.09a24.42,24.42,0,0,0,5.91,5.17,13.83,13.83,0,0,0-1.13,2.08l-2.79,7,1.94-1.55L16,51.57,20,48l.29.27v0l-3.06,6.3h0l-3.53,7.28a7.87,7.87,0,0,0,.18,7.32,14.94,14.94,0,0,0,2.24,3.09,8.39,8.39,0,0,0,1.86,1.49l0,0,1.35.68,1.12-1c.24-.21.5-.43.7-.62h0a15.07,15.07,0,0,0,2.8-.27,2.09,2.09,0,0,0,.43-.11,7.62,7.62,0,0,0,1.42-.49l.09,0,1.69-1.06a6,6,0,0,0,.46-.42,7.18,7.18,0,0,0,1-1.28,8.46,8.46,0,0,0,.72-1.48l.93-1.33a9,9,0,0,1,2.71-2.53,15.76,15.76,0,0,1,3.37-.88H37c1.37,0,2.59,1.24,4.19,4.27h0c.54,1,1.09,2.18,1.67,3.4.89,1.86,1.89,4,3.08,6.05l.54.93a31.27,31.27,0,0,0,6.18,7.64c.42.36.86.73,1.38,1.14l5.9,19.93a13.43,13.43,0,0,0,1.5,3c.25.41.5.81.68,1.18a27.33,27.33,0,0,1,2.49,10.76,1.26,1.26,0,0,1-.3.87h0l-.59.58-.64.67-.26.28-.43.48-.31.38c-.13.15-.25.31-.39.48l-.29.4-.38.55-.27.41c-.12.21-.24.41-.35.62l0,.09-.18.34c-.11.24-.21.49-.34.81,0,.1-.09.21-.13.31a9.21,9.21,0,0,0-.32,1.22l-.41,2.42,13.48-.46L71.82,125a5,5,0,0,0,1.9-6,37.21,37.21,0,0,1-2.57-13.32c0-.29,0-1.37-.15-3.66l7.28,12.93a7.4,7.4,0,0,1-.47,6.79,7.77,7.77,0,0,0-.78.61,6,6,0,0,0-.72.71,6.43,6.43,0,0,0-.71.92c-.15.23-.3.5-.46.81l-.06.11a13.35,13.35,0,0,0-1,2.92l-.39,2.38,13.24-.31-.21-6.75-.05-.85a2.64,2.64,0,0,1,.23-.9,4.83,4.83,0,0,0,1.22-5.51l-3.55-8.29a33.87,33.87,0,0,1-1.69-5.07c-.15-.61-.27-1.22-.39-1.82l-.07-.36c-.22-1.24-.48-2.6-.77-4.06h.9a44.67,44.67,0,0,0,20.39-4.9l.58,3.54.25.34L105,102.7c.32,3.18-.29,8-1.86,14.63a17.34,17.34,0,0,1-2.18,4.3A7.94,7.94,0,0,0,98.55,124,13.21,13.21,0,0,0,97,127.8l-.38,2.38,12.1-.29-.27,1.81h13.47V126a4.75,4.75,0,0,0,3.38-4c.85-7.36,1.77-12.94,2.49-15.18,1.45-1.44,3.06-4.65,1.09-9a18.35,18.35,0,0,1-.75-2.89c.29.7.6,1.37.91,2,.41.9.81,1.75,1.12,2.62.07.2.14.41.2.62a6.78,6.78,0,0,1,.29,2.91,3.6,3.6,0,0,1-.27,1l-2.47,5.69,5.33-3.17a8,8,0,0,0,1.05-.77,3.43,3.43,0,0,0,.28-.27,7.18,7.18,0,0,0,.6-.63l.26-.34c.16-.22.31-.43.45-.65s.13-.22.22-.39l.32-.61.07-.14ZM130.34,77.3l-.27.28-.08.09-.32.39-.07.1c-.09.13-.18.26-.26.39.28-.7.61-1.59.94-2.63Q130.32,76.63,130.34,77.3Zm-19.84,48q-.18.26-.36.54c-.08.12-.14.23-.22.36s-.12.21-.18.34l-.11-3.39,0-.4a3.5,3.5,0,0,1,.6-1.33,4.84,4.84,0,0,0,1.49-4.77L116,102l2.17,4.16c-.62,6.14-1.85,13.18-2.85,15a15.33,15.33,0,0,0-1.93,1.23l-.08,0c-.45.34-.87.71-1.27,1.08l-.15.15c-.16.16-.33.33-.5.52l-.15.17,1.53,1.29-1.6-1.2a6.12,6.12,0,0,0-.4.49Z"/><path class="cls-2" d="M15,31.52l8.28,4.34a21,21,0,0,1,9.06,9.32l.57,1.17-5.86,1h0a10.13,10.13,0,0,0-5.52-7,22,22,0,0,1-7.16-5.71s-1.51-2-.6-3A1.05,1.05,0,0,1,15,31.52Z"/><path class="cls-3" d="M27.53,40.22a21,21,0,0,0-4.35-3L14.9,32.83s-.32,2.31,9.25,7.13c0,0,3.28,2.09,4.22,5,.74,2.27,2-.16.18-3.46Z"/><path class="cls-4" d="M28.1,40.76l-.57-.54,1,1.28C28.41,41.26,28.26,41,28.1,40.76Z"/><path class="cls-5" d="M62.51,51.05c-.67-.73-1.44-1.5-2.31-2.3-.14.13-.29.26-.42.4s-.42,0-.34-.21a5.49,5.49,0,0,1,.31-.59c-1-.89-2.11-1.81-3.31-2.72a3.45,3.45,0,0,1-.94.61.21.21,0,0,1-.3-.24,5.76,5.76,0,0,1,.39-1,61.33,61.33,0,0,0-5.78-3.77,7.93,7.93,0,0,1-1.17,1.29.21.21,0,0,1-.34-.21c.18-.55.34-1.1.49-1.66A49.62,49.62,0,0,0,40.43,37l-.52-.17A9.88,9.88,0,0,0,40,37.88a.21.21,0,0,1-.21.25h-.07a.2.2,0,0,1-.19-.16c-.1-.47-.31-.93-.45-1.4-15-4.18-19.61,7.34-19.61,7.34a5.79,5.79,0,0,1,5.33-1,4.32,4.32,0,0,0-5.07,2.61c1.92-1.71,5.46-1.54,4.36-1.28-2.36.57-3.93,3.28-3.93,3.28a28.24,28.24,0,0,1,4.44-2.05c3.69-5.94,9.57-4.45,11.65-4.23,10.66,2,13.53,8.74,21.32,11.68C63.26,53.3,62.51,51.05,62.51,51.05Z"/><path class="cls-6" d="M62.51,51c-.67-.72-1.44-1.49-2.31-2.29-.14.13-.29.26-.42.4s-.42,0-.34-.21a5.65,5.65,0,0,1,.31-.6c-1-.89-2.11-1.8-3.31-2.71a3.71,3.71,0,0,1-.94.61.21.21,0,0,1-.3-.24,6.2,6.2,0,0,1,.39-1,61.28,61.28,0,0,0-5.78-3.76,7.93,7.93,0,0,1-1.17,1.29.21.21,0,0,1-.34-.21c.18-.55.34-1.1.49-1.66a49.62,49.62,0,0,0-8.36-3.68l-.52-.17A9.88,9.88,0,0,0,40,37.8a.21.21,0,0,1-.21.25h-.07a.2.2,0,0,1-.19-.16c-.1-.47-.31-.93-.45-1.41C32.21,34.57,27.52,36,24.46,38c3-.24,7,.41,12,3.16C47,43.26,49.84,49.89,57.59,52.81,63.26,53.22,62.51,51,62.51,51Z"/><path class="cls-7" d="M129.57,65.24c2.55,4,2.8,10.76,2.78,13.14,0,.37,0,.73,0,1.07.79,0,1.57-.07,2.36-.09,0-.21,0-.42,0-.64,1.09-4.37-3.21-21.38-8.64-22.12l-.71,1.81C127.17,60.06,128.59,63.15,129.57,65.24Z"/><path class="cls-3" d="M129.64,93.25c.68,1.92,1.71,3.69,2.39,5.61a8.22,8.22,0,0,1,.18,6c2.06-1.24,3-3.74,3.29-6.13s-.08-4.82.11-7.21c.2-2.62,1-5.19.9-7.81-.06-1.75-.7-4.21-2.25-5.27-1.87-1.27-3.24,1-3.94,2.51A16.47,16.47,0,0,0,129.64,93.25Z"/><path class="cls-7" d="M80.07,114a9.41,9.41,0,0,1-.82,9.15,6,6,0,0,0-2,1.88,6.15,6.15,0,0,0-.89,2.29c2.94-.07,5.21-.16,8.15-.23l.1-3.9c-.12-.93.14-2.69.85-3.3a2.85,2.85,0,0,0,.76-3.27l-3.55-8.29a35,35,0,0,1-2.28-7.69c-.42-2.35-1.1-5.87-2.18-10.74C76,79.78,61.48,81,61.48,81Z"/><path class="cls-8" d="M73.55,98.91a35.86,35.86,0,0,1,5.4,2.88c.67.43,1.33.88,2,1.34-.22-.85-.41-1.72-.57-2.59C80,98.19,79.28,94.67,78.2,89.8c-2.26-10.15-16.75-8.92-16.75-8.92L71.09,98Q72.34,98.4,73.55,98.91Z"/><path class="cls-7" d="M104.16,85.52l2.77,16.92c.34,3.28-.2,8.2-1.91,15.44a17.93,17.93,0,0,1-3,5.54,4.23,4.23,0,0,0-2.26,3.93c2.94-.07,4.74,0,7.68-.08l.15-4a5,5,0,0,1,1.3-3.33,2.83,2.83,0,0,0,.73-3.24l6.55-22.41s4.19-9.64,1.94-19.79-16.7,4-16.7,4Z"/><path class="cls-8" d="M105.38,94.12q3.89,5.38,7.49,11L116,94.4s4.2-9.63,1.94-19.78-16.7,4-16.7,4L104,85.69Z"/><path class="cls-9" d="M32.41,39.36s-7.92-.14-10.25,9.57l-6.7,13.8a5.84,5.84,0,0,0,.14,5.45A9.9,9.9,0,0,0,19,72l1.37-1.23A22.36,22.36,0,0,0,24.9,70c3-1,3.8-8.75,11.82-9.15,6.9-.34,7.51,14.27,17.15,22.62,14.71,12.74,38.13,14.62,54.26,2l18.73-6.29s8.33-17.63-1.78-24.6-18.18-1.78-22.93-1C90.46,55.49,65.25,56,57.39,51,52.92,48.17,40.1,38.8,32.41,39.36Z"/><path class="cls-10" d="M36.33,41.43c6.51,2.21,10,5.51,16.14,8.48,4,1.91,8.25,3.53,12.58,3.75a22.62,22.62,0,0,1-7.49-2.56c-4.48-2.84-17.29-12.22-25-11.66a9.46,9.46,0,0,0-2.75.51C31.22,40.34,35.09,41,36.33,41.43Z"/><path class="cls-11" d="M24.19,52.23h0A1.26,1.26,0,0,0,25,52.1l.4-.23s2,.82,3-.48a1.92,1.92,0,0,0,.2-.65l1.06-.07a5.47,5.47,0,0,0-3.44-1,1.67,1.67,0,0,0-1,.67Z"/><path class="cls-12" d="M25.9,50.4a.37.37,0,0,0-.38.54,1.44,1.44,0,0,0,2.62.16.39.39,0,0,0-.31-.56C27.19,50.48,26.54,50.43,25.9,50.4Z"/><path class="cls-13" d="M27.9,64.4a7.06,7.06,0,0,0-3.3-3.61c-1.4-.9-4-1.72-5-3.06A3.42,3.42,0,0,1,19,55.41l-3.54,7.3a5.86,5.86,0,0,0,.14,5.46A9.79,9.79,0,0,0,19,72l1.36-1.23a11.08,11.08,0,0,0,4.6-.67,5.36,5.36,0,0,0,3-3.3A5.3,5.3,0,0,0,27.9,64.4Z"/><path class="cls-14" d="M16.65,67A2.6,2.6,0,0,1,15.93,65c.05-.75.6-1.87,1.6-1.87a1.26,1.26,0,0,1,.59.15,1.32,1.32,0,0,1,.53.47,2.19,2.19,0,0,1,.22.47l0,0a3.44,3.44,0,0,1,.24,1.17,3.62,3.62,0,0,1-.62,2l-.08.13-.42.77Z"/><path class="cls-10" d="M18.1,64.12a.7.7,0,0,0-.27-.24c-.71-.35-1.2.6-1.24,1.18a1.94,1.94,0,0,0,.52,1.43l.74.74a3.32,3.32,0,0,0,.62-1.79,2.78,2.78,0,0,0-.2-.94A2.59,2.59,0,0,0,18.1,64.12Z"/><path class="cls-10" d="M108.91,84.42c-1.64-3.54-2.72-6.66-2.63-8.7-.29,3-4.1,12.55-19.55,13.28-9.15.44-15.71-4-16.91-5.48s-1.77-4.19-2.06-6.21L67.45,86C59.12,83.14,50,79.78,45,70.24c3.63,8.5,7.44,12.13,8.95,13.44,13.92,12.06,37,15.74,56,.82C109.66,84.56,109.21,84.36,108.91,84.42Z"/><path class="cls-10" d="M106.28,75.72c0-.33.06-.66.08-1C106.36,74.71,106.31,75.1,106.28,75.72Z"/><path class="cls-9" d="M54.55,81.12l7.28,24.57a27.57,27.57,0,0,0,2.05,3.82,29.37,29.37,0,0,1,2.7,11.63,3.25,3.25,0,0,1-1,2.46c-1.4,1.31-3.81,3.88-4.24,6.41l8.91-.31-.4-4.57a2,2,0,0,1,.87-1.82h0a3,3,0,0,0,1.15-3.61,39.22,39.22,0,0,1-2.7-14.06c0-1.22-1.18-23.41-1.39-28.33,0,0-4.19-3.37-15.36-4.19Z"/><path class="cls-9" d="M108.71,83.78h0l11.48,22s-1.37,14.35-3.56,16.94c0,0-5.19,2.33-5.87,7h9.15v-5.46l.92-.08a2.74,2.74,0,0,0,2.47-2.41c.49-4.2,1.63-13.21,2.76-16.1,0,0,3.15-2.32,1-7.11,0,0-3.16-8.05,0-19.51a3.66,3.66,0,0,0-.28-2.68v0a11.74,11.74,0,0,0-15.67-5,9.76,9.76,0,0,0-1.46.92h0C105.87,75.05,105.37,76.35,108.71,83.78Z"/><path class="cls-10" d="M49.91,76.77l1.17,1a.89.89,0,0,0,1.35-.65l.19-4.83,2.06,10S53.2,82,49.91,76.77Z"/><path class="cls-15" d="M134.12,94.09c-.68-1.91-1.71-3.69-2.39-5.6-1.4-4-.91-6.55.86-10.35-1,.4-1.8,1.77-2.27,2.76a16.47,16.47,0,0,0-.68,12.35c.68,1.92,1.71,3.69,2.39,5.61a8.22,8.22,0,0,1,.18,6,6.4,6.4,0,0,0,2.48-3l-.18.11C135.32,100.09,134.8,96,134.12,94.09Z"/><circle class="cls-16" cx="26.79" cy="50.69" r="0.8"/><path class="cls-13" d="M26.41,50.6a.37.37,0,0,1-.36.37.38.38,0,0,1-.37-.37.37.37,0,0,1,.37-.36A.36.36,0,0,1,26.41,50.6Z"/><path class="cls-17" d="M121.06,98.71h0C121.1,98.8,121.06,98.71,121.06,98.71Z"/><path class="cls-17" d="M122.53,62.47a11,11,0,0,0-2.31-2.64,7.73,7.73,0,0,0-12.6,5.71c-.17,4,.81,9.46,4.63,16.77,1.87,3.58,3.35,6.38,4.51,8.58.07-3.46,1.37-8.41,5.16-15.46C124.1,71.38,125,66.38,122.53,62.47Z"/><path class="cls-17" d="M65.38,66.22a10.78,10.78,0,0,0-1.54-2.64c-3.27-4.08-8.23-.65-8.42,5.71-.12,3.95.54,9.46,3.09,16.77,1.25,3.58,2.24,6.38,3,8.58,0-3.46.91-8.41,3.45-15.46C66.44,75.13,67,70.12,65.38,66.22Z"/><path class="cls-9" d="M21.84,27.3l7.47,5.62a21,21,0,0,1,7.44,10.66l.37,1.25H31.18c-.17-3.12-1.34-4.67-3.75-6.92a36.85,36.85,0,0,1-6.71-7.64s-1.16-2.26-.11-3A1,1,0,0,1,21.84,27.3Z"/><path class="cls-7" d="M32.7,38.63a21.2,21.2,0,0,0-3.8-3.71l-7.47-5.63s-.35,1.44,7.64,8.52c0,0,2.87,2.82,3.33,5.84.36,2.36,2.34,0,1.1-3.59Z"/><path class="cls-7" d="M32.7,38.58a20.81,20.81,0,0,0-3.8-3.7l-7.47-5.63s-.35,1.44,7.64,8.51c0,0,2.87,2.82,3.33,5.84.36,2.36,2.34-.05,1.1-3.59Z"/><path class="cls-3" d="M33.46,44.27a1.46,1.46,0,0,1-.05-.27c-.49-3.18-3.38-6-3.5-6.17l0,0A64.45,64.45,0,0,1,24,32.08l5,3.74a20.62,20.62,0,0,1,3.67,3.56l.75,1.35A4.76,4.76,0,0,1,33.46,44.27Z"/><ellipse class="cls-17" cx="87.08" cy="76.16" rx="13.55" ry="8.06"/><path class="cls-3" d="M70.07,124H65.14c-1.41,1.39-3.43,3.72-3.82,6l8.91-.31-.4-4.57A1.92,1.92,0,0,1,70.07,124Z"/><path class="cls-3" d="M114.55,124a9,9,0,0,0-3.79,5.7h9.15l-.1-5.46Z"/><path class="cls-15" d="M79.25,123.18h0a6,6,0,0,0-2,1.88A11.64,11.64,0,0,0,76,128.12l8.82-.2-.15-4.74Z"/><path class="cls-15" d="M102.2,123.18h0a6,6,0,0,0-2,1.88A11.23,11.23,0,0,0,99,128.12l8.81-.2-.15-4.74Z"/><path class="cls-18" d="M19,72a36.25,36.25,0,0,0,4.08-5.92,8.37,8.37,0,0,1-.8,2.59,1.07,1.07,0,0,0,.13,1.23h0a1.52,1.52,0,0,0,1.28.6,17.82,17.82,0,0,1-3.33.24S19.63,71.52,19,72Z"/><path class="cls-10" d="M43.23,53.27a11.38,11.38,0,0,0-1-7A10,10,0,0,0,41.51,45a6.66,6.66,0,0,0-.53-.66A15,15,0,0,1,41,50.23a8.88,8.88,0,0,1-4.28,5.41,20.36,20.36,0,0,1-4.93,1.7c-1.54,2.28-3.27,4.25-4.51,5.85a6,6,0,0,1,.72,3.5l1.06-1.52A11,11,0,0,1,32.53,62a16.44,16.44,0,0,1,4.19-1.09c2.74-.14,4.49,2.08,6.2,5.32C41.37,60.86,43.2,55.19,43.23,53.27Z"/><path class="cls-14" d="M27.9,64.4a4.35,4.35,0,0,0-.62-1.26c-.58,1.19-1.2,1.79-1.78,2.87.79,3.47-1.28,4.23-1.39,4.42a5.86,5.86,0,0,0,.86-.32,5.36,5.36,0,0,0,3-3.3A5.3,5.3,0,0,0,27.9,64.4Z"/></svg>