<svg id="झोपड़ी" xmlns="http://www.w3.org/2000/svg" viewBox="0 0 150 160"><defs><style>.cls-1,.cls-7{fill:#dbbf8d;}.cls-1{stroke:#fff;stroke-miterlimit:10;stroke-width:5px;}.cls-2{fill:#9a6742;}.cls-3{fill:#633a1e;}.cls-4{fill:#c58b62;}.cls-5{fill:#e7f1e4;}.cls-6{fill:#d7a777;}</style></defs><path class="cls-1" d="M140.26,90.76l-23.14-22c1.27-.65,2.52-1.31,3.76-2l-18.51-14.2c.44-.24.89-.45,1.33-.7,0,0-27.52-21.08-27.49-21.23h-.07a.83.83,0,0,0,0,.15h0a.66.66,0,0,1-.05-.15H76v.11l-.06-.11h-.2v.09s0-.06,0-.09h-.22l-.06.14v-.14h-.32l0,.12s0-.08,0-.12h-.25c0,.05,0,.09-.07.14s0-.09,0-.14h-.17a3.15,3.15,0,0,0-.22.29,1.11,1.11,0,0,0,.13-.29h-.06L47,51.88c.41.23.84.44,1.26.66L29.77,66.78c1.1.63,2.21,1.22,3.33,1.8L9.74,90.76h7.9l4.84-3.49-1.95,3.49h5.62V141h32v1.13H91.84V141h32V90.76h5.62l-2-3.49,4.84,3.49Z"/><rect class="cls-2" x="26.15" y="81.09" width="97.71" height="59.94"/><rect class="cls-3" x="59.29" y="94.69" width="31.43" height="46.34"/><path class="cls-4" d="M91.84,142.16H58.16V93.56H91.84ZM60.41,139.9H89.59V95.81H60.41Z"/><rect class="cls-4" x="73.87" y="94.69" width="2.25" height="46.34"/><rect class="cls-5" x="34.84" y="94.69" width="18.58" height="36.64"/><path class="cls-4" d="M54.54,132.46H33.71V93.56H54.54ZM36,130.2H52.29V95.81H36Z"/><rect class="cls-5" x="96.59" y="94.69" width="18.58" height="36.64"/><path class="cls-4" d="M116.29,132.46H95.46V93.56h20.83ZM97.71,130.2H114V95.81H97.71Z"/><rect class="cls-4" x="43" y="94.69" width="2.25" height="36.64"/><rect class="cls-4" x="34.84" y="112.86" width="18.58" height="2.25"/><rect class="cls-4" x="104.75" y="94.69" width="2.25" height="36.64"/><rect class="cls-4" x="96.59" y="112.86" width="18.58" height="2.25"/><path class="cls-6" d="M140.26,90.76,91,44H89.75c.19.78.4,1.55.62,2.31A18.63,18.63,0,0,1,89.5,44H86.39l-.11,1.7L85.16,44H81.62l0,1.29L81.37,44H77.52L76.33,46,76.42,44H70.64l-.56,1.81L70.33,44H65.9L64.62,46,64.78,44H61.67c-1.32,1.41-2.58,2.89-3.91,4.37A15.67,15.67,0,0,0,60.11,44H59L9.74,90.76h7.9l4.84-3.49-1.95,3.49H34.32L38,85.69l-2.1,5.07h9.19L48,84.54l-1.19,6.22H53l2.94-3.62-1.22,3.62h5l1.5-2.37-.59,2.37h3.16l.83-1.16,0,1.16H69L71.92,86l-.16,4.74h6.48L78.08,86,81,90.76h4.39l0-1.16.83,1.16h3.17l-.6-2.37,1.5,2.37h5l-1.22-3.62L97,90.76h6.15L102,84.54l2.92,6.22h9.19L112,85.69l3.71,5.07h13.79l-2-3.49,4.84,3.49Z"/><path class="cls-7" d="M26.18,83.21,23.66,87.7,23,88.91c.91-.7,39.22-42.58,40-43.65H61.53l-5.47,5.46,3.33-5.46L13.09,89.71h4.06Z"/><path class="cls-7" d="M69.14,48.34s.48-2.05.58-3.08H67.91c-.85,1.51-30.18,44.45-30.18,44.45h6.5l4.38-6.8.49,2.93L50.65,84c2.14-2.53,19.93-37.43,20.55-38.73Z"/><path class="cls-7" d="M88.18,45.26h-1s21.45,38.08,23.48,40.64l-1-5.33,6.7,9.14h10.42C125.29,88.48,89.57,48,88.18,45.26Z"/><path class="cls-7" d="M66.74,45.26l-4.26,6,1.36-6.17s-39.73,44-40.56,44.59H33.59l5.32-5.46L39.28,86C39.52,85.7,66.5,45.68,66.74,45.26Z"/><path class="cls-7" d="M82.08,45.56l1,6.36-2-6.66H79.56c0,.35,7.08,36.12,7.72,38.44l3.79,6H93.6l-2.91-8.64,7,8.64h2.72C99.91,88.56,83.34,51,82.08,45.56Z"/><path class="cls-7" d="M84.9,45.26H83.2c1.44,5.36,17.89,42.89,18.32,43.77L101,81.25l4.81,8.46h6.5S86.19,48.16,84.9,45.26Z"/><path class="cls-7" d="M56.4,89.71h1.31c1.87-3.76,17-42.77,17.61-44.45H72.39c-.62,1.33-23.1,42-23.69,42.66l-.35,1.79h3.94l7-8.64Z"/><path class="cls-7" d="M91.37,45.26h-.86l.43,1.83-1.88-1.83c3,5.16,36.47,41.79,37.29,42.47v0l-2.52-4.49,9,6.5h4.06Z"/><path class="cls-7" d="M78.77,45.26h-.91c0,1.89-3.14,44.05-3.19,44.45h2.24L78,84l3.82,5.76h2.32l.1-3.86L87,89.71h.85S78.79,45.34,78.77,45.26Z"/><path class="cls-7" d="M73.09,89.71h.24c.1-.76,3.84-43.27,3.84-43.67l-1.85,3.11.1-3c-.32.9-15.15,41.29-15.62,42.16l3.51-3.07L62.2,89.71h.85l2.76-3.86.1,3.73v.13h2.32l5.13-8.43Z"/><path class="cls-6" d="M120.88,66.78S76.69,33,76.74,32.7h-.1a1.84,1.84,0,0,0,0,.25c0-.07,0-.16-.08-.25h-.27a1.15,1.15,0,0,0,0,.19l-.1-.19h-.32v.14c0-.05,0-.09,0-.14h-.34l-.11.23a1.77,1.77,0,0,0,0-.23h-.51a1.46,1.46,0,0,0,0,.2c0-.07,0-.13,0-.2h-.39l-.12.23c0-.08,0-.15,0-.23h-.28c-.12.15-.23.31-.35.47A1.68,1.68,0,0,0,74,32.7h-.09L29.77,66.78c1.71,1,3.44,1.89,5.19,2.74,1.08-.25,2.17-.56,3.28-.93-.45.63-.9,1.25-1.35,1.85a92.09,92.09,0,0,0,9.42,3.72c.88-1,1.76-2,2.65-3.09l-1.52,3.46q3.2,1,6.45,1.8Q55,74.1,56,71.79c-.31,1.61-.61,3.22-.91,4.82,1.45.33,2.91.62,4.37.87.71-.86,1.42-1.74,2.13-2.63l-.9,2.84q1.78.28,3.6.51l1.08-1.85c-.14.64-.29,1.28-.44,1.92.76.09,1.52.16,2.28.23.2-.3.4-.61.61-.91,0,.32,0,.64,0,1,1.05.09,2.11.16,3.17.21.69-1.3,1.39-2.6,2.08-3.92,0,1.33-.07,2.66-.11,4,.78,0,1.55,0,2.33,0s1.56,0,2.34,0l-.12-4,2.09,3.92c1.06-.05,2.12-.12,3.17-.21,0-.32,0-.64,0-1l.61.91c.76-.07,1.52-.14,2.28-.23-.15-.64-.3-1.28-.44-1.92l1.08,1.85q1.81-.23,3.6-.51L89,74.85c.71.89,1.42,1.77,2.13,2.63,1.46-.25,2.92-.54,4.37-.87-.3-1.6-.6-3.21-.91-4.82q1.07,2.31,2.13,4.54,3.26-.78,6.45-1.8l-1.52-3.46c.89,1.07,1.77,2.1,2.65,3.09a92.09,92.09,0,0,0,9.42-3.72c-.45-.6-.9-1.22-1.35-1.85,1.11.37,2.2.68,3.28.93C117.44,68.67,119.17,67.75,120.88,66.78Z"/><path class="cls-7" d="M40.79,66.66c-.59.88-1.18,1.74-1.76,2.56-.16.22-.31.45-.47.66.17.43,9.13-6.26,18-16,8.89-9.24,17.73-21.52,17.68-21h-.13l-.49.59.3-.59L32,67.31s1.78.92,2.68,1.35A43.51,43.51,0,0,0,40.79,66.66Z"/><path class="cls-7" d="M74.8,33.17a2.12,2.12,0,0,0,0-.33h-.16c0-.2-6.41,11.79-12.93,22.09A216,216,0,0,1,48.7,74.11c1.51.45,3,.86,4.57,1.23,1.06-1.55,2.11-3.15,3.17-4.79.1.81.21,1.62.31,2.43l1.13-1.3C59.51,70.63,75.05,33.29,75,32.84Z"/><path class="cls-7" d="M76.5,32.84h-.09C76.39,32.62,82,43.1,88,52.58c5.92,9.67,12.13,18.34,12.82,18.89l-.75-4c1.61,2,3.2,3.93,4.78,5.71q3.61-1.2,7.14-2.7c-.4.34-9.28-6.53-18.06-16.36C85.13,44.78,76.47,32.46,76.5,32.84Z"/><path class="cls-7" d="M74.59,32.84l-.38.65.12-.66c.09-.54-8.72,12-17.6,21.37C47.85,64.12,38.9,71,38.75,70.53c2.33,1,4.68,1.88,7.07,2.67q1.88-1.44,3.77-3.08l.24,1.39a215.92,215.92,0,0,0,12.52-18.2C68.54,43.66,74.61,32.62,74.59,32.84Z"/><path class="cls-7" d="M76,32.87l.09.69-.18-.72h-.13c-.06.13,7.88,38,8.42,39.69.92,1.6,1.84,3.18,2.75,4.72.61-.07,1.22-.15,1.82-.24q-1.08-3.41-2.14-6.89,2.53,3.33,5.08,6.42l1.94-.37c-.18-.3-4.68-10.37-9-21.14S76,33,76,32.87Z"/><path class="cls-7" d="M76.2,32.84h-.15c.06.16,4.45,11.44,9,21.95s9.19,20.49,9.32,20.68q-.23-3.09-.47-6.2c1.16,2.08,2.33,4.11,3.49,6.07,1.53-.37,3.05-.78,4.57-1.23A219.59,219.59,0,0,1,89,55C82.58,44.69,76.23,32.72,76.2,32.84Z"/><path class="cls-7" d="M61.93,77l.94.13c1.46-2.51,12.53-44,12.48-44.3h-.26c0-.07-4.46,11-9.08,21.41s-9.37,20.26-9.56,20.36c-.09.46-.18.93-.26,1.39.93.19,1.87.37,2.8.54q2.55-3.09,5.08-6.42Q63,73.6,61.93,77Z"/><path class="cls-7" d="M76.78,32.84H76.7a1.42,1.42,0,0,1,0,.2c0-.07-.11-.13-.17-.2S85.3,44.57,94,53.59c8.71,9.48,17.45,16,17.61,15.65v0c-.58-.82-1.17-1.68-1.76-2.56a43.51,43.51,0,0,0,6.15,2c.9-.43,2.68-1.35,2.68-1.35Z"/><path class="cls-7" d="M75.66,32.84h-.08c0,.2-.45,44.8-.49,45.13H76.7l.75-4.86c.91,1.6,1.84,3.18,2.76,4.75l1.67-.11.06-3.23,2,3.07.6-.06C84.48,77.78,75.58,33,75.66,32.84Z"/><path class="cls-7" d="M74,78h.17c.09-.62,1.41-45,1.4-45l-.17.33c0-.11,0-.21,0-.32.07.26-10.56,42.92-11,43.25.84-.76,1.69-1.53,2.53-2.31l-.81,3.64.6.06,2-3.07c0,1,0,2.08.05,3.13,0,0,0,.07,0,.1l1.67.11q1.86-3.45,3.71-7Q74,74.42,74,78Z"/><path class="cls-6" d="M103.7,51.88S76.18,30.8,76.21,30.65h-.07a.83.83,0,0,0,0,.15.66.66,0,0,1-.05-.15H76v.11l-.06-.11h-.2v.09s0-.06,0-.09h-.22l-.06.14v-.14h-.32l0,.12s0-.08,0-.12h-.25c0,.05,0,.09-.07.14s0-.09,0-.14h-.17a3.15,3.15,0,0,0-.22.29,1.11,1.11,0,0,0,.13-.29h-.06L47,51.88c1.06.6,2.14,1.17,3.23,1.71.68-.16,1.36-.36,2-.58l-.84,1.15a59.51,59.51,0,0,0,5.87,2.31c.55-.61,1.1-1.26,1.65-1.92-.32.73-.63,1.45-.95,2.15,1.33.43,2.67.8,4,1.12.44-.92.89-1.87,1.33-2.82l-.57,3c.91.2,1.81.38,2.72.54.45-.53.89-1.08,1.33-1.64-.19.59-.37,1.18-.56,1.77.74.12,1.49.23,2.24.32l.68-1.16L68.87,59q.7.09,1.41.15l.38-.57c0,.2,0,.4,0,.6.66,0,1.31.1,2,.13.44-.81.87-1.62,1.3-2.44,0,.83,0,1.65-.07,2.48l1.45,0,1.46,0c0-.83,0-1.65-.07-2.48.43.82.86,1.63,1.3,2.44.66,0,1.31-.08,2-.13,0-.2,0-.4,0-.6.13.19.25.38.37.57.48,0,1-.09,1.42-.15l-.27-1.2L82.19,59c.75-.09,1.49-.2,2.24-.32-.19-.59-.37-1.18-.56-1.77.44.56.88,1.11,1.32,1.64.92-.16,1.82-.34,2.73-.54l-.57-3c.44,1,.89,1.9,1.33,2.82,1.35-.32,2.69-.69,4-1.12-.32-.7-.63-1.42-1-2.15.55.66,1.1,1.31,1.65,1.92a58.39,58.39,0,0,0,5.86-2.31L98.43,53c.68.22,1.36.42,2,.58C101.56,53.05,102.64,52.48,103.7,51.88Z"/><path class="cls-7" d="M53.81,51.8l-1.09,1.6-.3.41c.11.27,5.69-3.9,11.23-10,5.54-5.76,11-13.41,11-13.11h-.08l-.3.36.18-.36L48.31,52.21s1.11.57,1.67.84A25.88,25.88,0,0,0,53.81,51.8Z"/><path class="cls-7" d="M75,30.94a1.46,1.46,0,0,0,0-.2h-.1c0-.13-4,7.34-8.06,13.76a135.89,135.89,0,0,1-8.13,11.94c.94.28,1.89.54,2.85.77.65-1,1.31-2,2-3,.07.5.13,1,.2,1.51l.7-.81c1-.65,10.69-23.91,10.65-24.19Z"/><path class="cls-7" d="M76.05,30.74h0c0-.14,3.5,6.39,7.2,12.29a124.24,124.24,0,0,0,8,11.77c-.15-.83-.31-1.65-.46-2.48,1,1.25,2,2.45,3,3.56,1.49-.5,3-1.06,4.44-1.69-.25.22-5.78-4.06-11.25-10.19C81.43,38.17,76,30.5,76.05,30.74Z"/><path class="cls-7" d="M74.87,30.74l-.24.4c0-.14.05-.28.08-.41.05-.34-5.44,7.44-11,13.31-5.53,6.18-11.1,10.45-11.2,10.17,1.45.62,2.92,1.17,4.4,1.67.78-.6,1.57-1.25,2.36-1.93,0,.29.09.58.14.87a130.11,130.11,0,0,0,7.8-11.34C71.1,37.47,74.88,30.6,74.87,30.74Z"/><path class="cls-7" d="M75.72,30.76c0,.14,0,.28,0,.42,0-.15-.07-.3-.11-.44h-.08c0,.07,4.91,23.66,5.24,24.72.57,1,1.14,2,1.72,2.94l1.13-.15c-.45-1.42-.89-2.85-1.34-4.29,1.06,1.38,2.11,2.72,3.17,4l1.2-.22c-.1-.19-2.91-6.47-5.61-13.17S75.75,30.86,75.72,30.76Z"/><path class="cls-7" d="M75.87,30.74h-.09c0,.09,2.77,7.12,5.6,13.67s5.72,12.76,5.8,12.88c-.09-1.29-.19-2.57-.29-3.86.72,1.29,1.45,2.55,2.17,3.78,1-.23,1.91-.49,2.85-.77a135.5,135.5,0,0,1-8-11.92C79.85,38.12,75.89,30.66,75.87,30.74Z"/><path class="cls-7" d="M67,58.25l.58.08c.92-1.57,7.81-27.38,7.78-27.59h-.16s-2.78,6.87-5.66,13.33-5.83,12.62-5.95,12.68c-.06.29-.11.58-.17.87l1.75.33c1.06-1.27,2.11-2.61,3.17-4C67.87,55.4,67.43,56.83,67,58.25Z"/><path class="cls-7" d="M76.23,30.74h0l0,.12-.11-.12c0-.14,5.44,7.3,10.87,12.92,5.43,5.9,10.87,10,11,9.75h0c-.36-.52-.73-1-1.09-1.6a25.88,25.88,0,0,0,3.83,1.25c.56-.27,1.67-.84,1.67-.84Z"/><path class="cls-7" d="M75.53,30.74h0c0,.12-.28,27.9-.3,28.11h1c.16-1,.31-2,.47-3,.57,1,1.14,2,1.72,3l1-.07,0-2,1.25,1.91.38,0C81,58.73,75.48,30.82,75.53,30.74Z"/><path class="cls-7" d="M74.47,58.84h.1c.06-.39.88-28,.87-28.05a2,2,0,0,1-.1.21v-.2c0,.16-6.58,26.73-6.85,26.94q.8-.7,1.59-1.44l-.51,2.26.38,0,1.24-1.91c0,.65,0,1.3,0,2v.06l1,.07q1.17-2.15,2.31-4.35Z"/></svg>