<svg id="टिकट" xmlns="http://www.w3.org/2000/svg" viewBox="0 0 150 160"><defs><style>.cls-1,.cls-4{fill:#15d14a;}.cls-1,.cls-2,.cls-3{stroke:#fff;stroke-width:5px;}.cls-1,.cls-2,.cls-3,.cls-5{stroke-miterlimit:10;}.cls-2,.cls-5{fill:none;}.cls-3,.cls-6{fill:#00662c;}.cls-5{stroke:#1aa124;stroke-width:4.03px;}</style></defs><path class="cls-1" d="M133.48,94.86a1.46,1.46,0,0,1,1.46-1.47V91.93a1.46,1.46,0,0,1,0-2.92V87.54a1.46,1.46,0,0,1,0-2.92V83.15a1.46,1.46,0,0,1,0-2.92V78.76a1.46,1.46,0,0,1,0-2.92V74.37a1.46,1.46,0,0,1,0-2.92V70a1.47,1.47,0,0,1,0-2.93V65.6a1.47,1.47,0,0,1,0-2.93V58.62a5.44,5.44,0,0,1-5.43-5.44h-110a5.45,5.45,0,0,1-5.44,5.44v4.05a1.47,1.47,0,0,1,0,2.93v1.46a1.47,1.47,0,0,1,0,2.93v1.46a1.46,1.46,0,1,1,0,2.92v1.47a1.46,1.46,0,0,1,0,2.92v1.47a1.46,1.46,0,0,1,0,2.92v1.47a1.46,1.46,0,0,1,0,2.92V89a1.46,1.46,0,0,1,0,2.92v1.46a1.47,1.47,0,0,1,0,2.93v4.05a5.45,5.45,0,0,1,5.44,5.44h110a5.44,5.44,0,0,1,5.43-5.44V96.32A1.46,1.46,0,0,1,133.48,94.86Z"/><path class="cls-2" d="M129.64,95.5a6.39,6.39,0,0,1-6.5,6.27H25.87a6.39,6.39,0,0,1-6.5-6.27v-32a6.39,6.39,0,0,1,6.5-6.27h97.27a6.39,6.39,0,0,1,6.5,6.27Z"/><rect class="cls-2" x="34.18" y="57.22" width="80.65" height="44.54"/><path class="cls-3" d="M28.12,93.41V94L25.6,95.39h2.52v.49H24.76v-.52l2.56-1.47H24.76v-.48Z"/><path class="cls-3" d="M25.6,91.63a1,1,0,0,1,.41-.87,1.35,1.35,0,0,1,.88-.28,1.39,1.39,0,0,1,.89.28,1,1,0,0,1,.4.87,1.06,1.06,0,0,1-.4.87,1.37,1.37,0,0,1-.89.28A1.33,1.33,0,0,1,26,92.5,1,1,0,0,1,25.6,91.63Zm.43,0a.57.57,0,0,0,.24.48,1.16,1.16,0,0,0,1.24,0,.61.61,0,0,0,0-1,1.06,1.06,0,0,0-.62-.17,1.08,1.08,0,0,0-.62.17A.58.58,0,0,0,26,91.63Z"/><path class="cls-3" d="M28.41,89.29v.56h-.54v-.56Z"/><path class="cls-3" d="M28.12,87.36v.49H25.38l.36.42-.31.29-.67-.79v-.41Z"/><path class="cls-3" d="M28.12,84.3v2h-.4l-.83-.74a2.36,2.36,0,0,0-1.26-.72.45.45,0,0,0-.34.13.49.49,0,0,0-.12.34,1.67,1.67,0,0,0,.25.8l-.46.09a1.94,1.94,0,0,1-.24-.87,1,1,0,0,1,.22-.7.82.82,0,0,1,.69-.28,2.82,2.82,0,0,1,1.5.83l.55.47V84.3Z"/><path class="cls-3" d="M27.53,83.55a2.22,2.22,0,0,0,.18-.83.78.78,0,0,0-.13-.48.5.5,0,0,0-.44-.22c-.36,0-.54.26-.54.76v.34h-.45V83a1.68,1.68,0,0,0-.09-.63.46.46,0,0,0-.47-.31.33.33,0,0,0-.17,0,.53.53,0,0,0-.13.13.61.61,0,0,0-.09.2.85.85,0,0,0,0,.23,1.83,1.83,0,0,0,.2.76l-.49,0a2.21,2.21,0,0,1-.16-.82,1.34,1.34,0,0,1,.18-.73.74.74,0,0,1,.67-.34.83.83,0,0,1,.79.52.78.78,0,0,1,.81-.53.89.89,0,0,1,.74.36,1.4,1.4,0,0,1,.25.84,2.31,2.31,0,0,1-.14.86Z"/><path class="cls-3" d="M27.37,78.55V79h.75v.49h-.75V81H27l-2.19-1.44V79h2.16v-.46Zm-.45,1h-1.5l1.5,1Z"/><path class="cls-3" d="M25.21,77.41l.85,0A1.31,1.31,0,0,1,26,77a1.07,1.07,0,0,1,.27-.76A1,1,0,0,1,27,76a1.06,1.06,0,0,1,.85.35,1.3,1.3,0,0,1,.29.88A1.91,1.91,0,0,1,28,78h-.47a1.85,1.85,0,0,0,.17-.78.83.83,0,0,0-.16-.52.58.58,0,0,0-.48-.22c-.43,0-.65.24-.65.73a2.78,2.78,0,0,0,.11.75l-1.78,0V76.14h.45Z"/><path class="cls-3" d="M25.28,73.32a1.57,1.57,0,0,0-.1.58q0,.85,1,1a.81.81,0,0,1-.28-.63,1.08,1.08,0,0,1,.22-.69,1,1,0,0,1,.86-.36,1.22,1.22,0,0,1,.85.29,1.07,1.07,0,0,1,.31.81c0,.72-.54,1.08-1.6,1.08a2.21,2.21,0,0,1-1.3-.33,1.35,1.35,0,0,1-.54-1.17,2.1,2.1,0,0,1,.09-.58Zm1.1.91a.6.6,0,0,0,.17.46.6.6,0,0,0,.44.17.77.77,0,0,0,.49-.15.53.53,0,0,0,.22-.44.54.54,0,0,0-.19-.45.69.69,0,0,0-.48-.17C26.59,73.65,26.38,73.85,26.38,74.23Z"/><path class="cls-3" d="M25.13,70.56l3,1.23v.52L25.2,71.07v1.54h-.44v-2Z"/><path class="cls-3" d="M26.35,68.33a.93.93,0,0,1,.88-.64.79.79,0,0,1,.72.37,1.28,1.28,0,0,1,.21.75,1.33,1.33,0,0,1-.22.75.8.8,0,0,1-.71.37.93.93,0,0,1-.87-.61.93.93,0,0,1-.81.51.71.71,0,0,1-.65-.37,1.31,1.31,0,0,1,0-1.34.73.73,0,0,1,.64-.33A1,1,0,0,1,26.35,68.33Zm-.19.48q-.26-.54-.57-.54a.4.4,0,0,0-.31.17.65.65,0,0,0-.11.37.61.61,0,0,0,.12.39.34.34,0,0,0,.3.15.44.44,0,0,0,.35-.17A.65.65,0,0,0,26,69,1.45,1.45,0,0,0,26.16,68.81Zm.42,0a1.59,1.59,0,0,0,.27.5.53.53,0,0,0,.37.14.4.4,0,0,0,.34-.19.72.72,0,0,0,.15-.45.69.69,0,0,0-.13-.45.45.45,0,0,0-.4-.19.42.42,0,0,0-.34.18A2.39,2.39,0,0,0,26.58,68.81Z"/><path class="cls-3" d="M27.59,67a1.53,1.53,0,0,0,.12-.6c0-.55-.34-.86-1-.94a.83.83,0,0,1,.26.63,1,1,0,0,1-.24.69,1,1,0,0,1-.87.36,1.13,1.13,0,0,1-.81-.29,1,1,0,0,1-.32-.81c0-.72.53-1.08,1.6-1.08a2.26,2.26,0,0,1,1.28.32,1.31,1.31,0,0,1,.56,1.16,2.76,2.76,0,0,1-.08.6Zm-2.41-1a.58.58,0,0,0,.18.45.7.7,0,0,0,.48.17c.45,0,.67-.2.67-.58a.6.6,0,0,0-.18-.46.61.61,0,0,0-.45-.17.82.82,0,0,0-.5.15A.51.51,0,0,0,25.18,66.09Z"/><path class="cls-3" d="M119.45,67.61v-.54L122,65.63h-2.52v-.49h3.37v.52l-2.57,1.47h2.57v.48Z"/><path class="cls-3" d="M122,69.39a1,1,0,0,1-.4.87,1.39,1.39,0,0,1-.89.28,1.35,1.35,0,0,1-.88-.28,1,1,0,0,1-.4-.87,1,1,0,0,1,.4-.87,1.33,1.33,0,0,1,.88-.28,1.36,1.36,0,0,1,.89.28A1.05,1.05,0,0,1,122,69.39Zm-.43,0a.59.59,0,0,0-.24-.49,1.22,1.22,0,0,0-1.24,0,.59.59,0,0,0-.24.49.58.58,0,0,0,.24.49,1.22,1.22,0,0,0,1.24,0A.58.58,0,0,0,121.54,69.39Z"/><path class="cls-3" d="M119.17,71.73v-.56h.53v.56Z"/><path class="cls-3" d="M119.45,73.66v-.49h2.74l-.36-.42.31-.29.68.79v.41Z"/><path class="cls-3" d="M119.45,76.71v-2h.4l.84.74a2.29,2.29,0,0,0,1.26.72.43.43,0,0,0,.33-.13.49.49,0,0,0,.13-.34,1.69,1.69,0,0,0-.26-.8l.46-.09a1.91,1.91,0,0,1,.24.87,1.05,1.05,0,0,1-.21.69.83.83,0,0,1-.7.29,2.9,2.9,0,0,1-1.5-.83l-.54-.47v1.37Z"/><path class="cls-3" d="M120.05,77.47a2.06,2.06,0,0,0-.19.82.79.79,0,0,0,.14.49.49.49,0,0,0,.43.21c.37,0,.55-.25.55-.75V77.9h.45V78a1.72,1.72,0,0,0,.08.63A.46.46,0,0,0,122,79a.24.24,0,0,0,.16,0,.3.3,0,0,0,.13-.12.61.61,0,0,0,.09-.2.85.85,0,0,0,0-.23,1.81,1.81,0,0,0-.19-.76l.49,0a2.42,2.42,0,0,1,.15.82,1.34,1.34,0,0,1-.18.73.75.75,0,0,1-.67.34.84.84,0,0,1-.79-.52.78.78,0,0,1-.8.53.88.88,0,0,1-.74-.36,1.33,1.33,0,0,1-.25-.84,2.2,2.2,0,0,1,.14-.87Z"/><path class="cls-3" d="M120.2,82.47V82h-.75v-.49h.75V80h.42l2.2,1.44V82h-2.17v.46Zm.45-1h1.5l-1.5-1Z"/><path class="cls-3" d="M122.37,83.61l-.85,0a1.27,1.27,0,0,1,.06.41,1.07,1.07,0,0,1-.27.76,1,1,0,0,1-.75.3,1.09,1.09,0,0,1-.86-.35,1.29,1.29,0,0,1-.28-.88,1.88,1.88,0,0,1,.13-.76H120a1.71,1.71,0,0,0-.17.78.82.82,0,0,0,.15.52.61.61,0,0,0,.49.21c.43,0,.64-.24.64-.72a2.43,2.43,0,0,0-.11-.75l1.79,0v1.75h-.45Z"/><path class="cls-3" d="M122.29,87.7a1.62,1.62,0,0,0,.11-.58c0-.57-.34-.89-1-1a.81.81,0,0,1,.28.63,1.08,1.08,0,0,1-.22.69,1,1,0,0,1-.86.35,1.17,1.17,0,0,1-.84-.28,1,1,0,0,1-.31-.81c0-.72.53-1.08,1.6-1.08a2.23,2.23,0,0,1,1.3.33,1.37,1.37,0,0,1,.53,1.17,2,2,0,0,1-.08.57Zm-1.09-.91a.62.62,0,0,0-.17-.46.63.63,0,0,0-.45-.17.79.79,0,0,0-.49.15.52.52,0,0,0-.22.44.55.55,0,0,0,.19.45.68.68,0,0,0,.48.16Q121.2,87.36,121.2,86.79Z"/><path class="cls-3" d="M122.44,90.46l-3-1.24v-.51L122.37,90V88.41h.45v2Z"/><path class="cls-3" d="M121.22,92.69a.94.94,0,0,1-.88.64.79.79,0,0,1-.72-.37,1.4,1.4,0,0,1-.2-.75,1.32,1.32,0,0,1,.21-.75.81.81,0,0,1,.71-.37.92.92,0,0,1,.87.61.94.94,0,0,1,.81-.52.73.73,0,0,1,.65.37,1.26,1.26,0,0,1,.18.66,1.19,1.19,0,0,1-.19.69.72.72,0,0,1-.64.32A1,1,0,0,1,121.22,92.69ZM121,92.2a1.64,1.64,0,0,0-.27-.49.51.51,0,0,0-.36-.14.41.41,0,0,0-.35.19.71.71,0,0,0-.14.45.75.75,0,0,0,.12.45.46.46,0,0,0,.4.19.44.44,0,0,0,.35-.18A2.32,2.32,0,0,0,121,92.2Zm.42,0q.27.54.57.54a.37.37,0,0,0,.31-.17.65.65,0,0,0,.11-.37.67.67,0,0,0-.11-.39.37.37,0,0,0-.31-.15.47.47,0,0,0-.35.16l-.1.16A1.45,1.45,0,0,0,121.41,92.21Z"/><path class="cls-3" d="M120,94a1.51,1.51,0,0,0-.11.59c0,.56.33.87,1,1a.83.83,0,0,1-.26-.63,1,1,0,0,1,.24-.69,1,1,0,0,1,.88-.36,1.13,1.13,0,0,1,.81.29,1.06,1.06,0,0,1,.31.81q0,1.08-1.59,1.08A2.28,2.28,0,0,1,120,95.7a1.31,1.31,0,0,1-.55-1.17,2.68,2.68,0,0,1,.07-.59Zm2.42,1a.55.55,0,0,0-.19-.45.69.69,0,0,0-.48-.17c-.44,0-.66.2-.66.58a.6.6,0,0,0,.17.46.61.61,0,0,0,.45.16.8.8,0,0,0,.5-.15A.49.49,0,0,0,122.4,94.93Z"/><path class="cls-3" d="M50.68,60.93a2.4,2.4,0,0,1,2,1,3.54,3.54,0,0,1,.64,2.18,3.63,3.63,0,0,1-.68,2.27,2.4,2.4,0,0,1-2,.9,2.46,2.46,0,0,1-2-.9,4.12,4.12,0,0,1,0-4.46A2.39,2.39,0,0,1,50.68,60.93Zm0,.83a1.56,1.56,0,0,0-1.35.72,3.12,3.12,0,0,0,0,3.23,1.63,1.63,0,0,0,2.7,0,2.84,2.84,0,0,0,.44-1.62A2.87,2.87,0,0,0,52,62.48,1.56,1.56,0,0,0,50.68,61.76Z"/><path class="cls-3" d="M61.45,67.16h-1l-2.62-4.59v4.59H57V61h.94l2.67,4.67V61h.89Z"/><path class="cls-3" d="M68.38,67.16H65.26V61h3v.84H66.16v1.71h2v.84h-2v1.9h2.22Z"/><path class="cls-3" d="M73.89,64.37H71.66v-.84h2.23Z"/><path class="cls-3" d="M84.93,61.05l-1.79,6.08h-1l-1.36-4.76-1.37,4.76h-1L76.7,61.05h1L79,65.83l1.37-4.78h1l1.36,4.76L84,61.05Z"/><path class="cls-3" d="M93.39,67.16h-1l-.62-1.57H89.15l-.63,1.57h-1L90.07,61H91Zm-1.91-2.41-1-2.53-1,2.53Z"/><path class="cls-3" d="M101.47,61,99.2,64.58v2.58h-.89V64.58L96,61h1.07l1.64,2.7,1.69-2.7Z"/><path class="cls-3" d="M50.51,73.39H47.83v8.44H46.4V73.39H43.74V72.08h6.77Z"/><path class="cls-3" d="M56.89,81.83H55.45V72.08h1.44Z"/><path class="cls-3" d="M69.67,81.59a5,5,0,0,1-2.31.41,4.8,4.8,0,0,1-3.59-1.37A5.09,5.09,0,0,1,62.44,77a5,5,0,0,1,1.35-3.65,4.78,4.78,0,0,1,3.57-1.4,5.42,5.42,0,0,1,2.31.36l-.11,1.34a5.94,5.94,0,0,0-2.2-.35,3.3,3.3,0,0,0-2.54,1A3.82,3.82,0,0,0,63.87,77a3.76,3.76,0,0,0,.92,2.68,3.32,3.32,0,0,0,2.57,1,4.69,4.69,0,0,0,2.2-.44Z"/><path class="cls-3" d="M83.68,81.83h-2l-4.07-4.19v4.19H76.25V72.08h1.41v3.74l3.74-3.74h1.91l-4.66,4.6Z"/><path class="cls-3" d="M93.79,81.88h-5V72.06h4.86V73.4H90.22v2.74h3.24v1.34H90.22v3h3.57Z"/><path class="cls-3" d="M105.42,73.39h-2.68v8.44h-1.43V73.39H98.65V72.08h6.77Z"/><rect class="cls-3" x="103.22" y="85.53" width="1.67" height="14.21"/><rect class="cls-3" x="100.14" y="85.53" width="2.09" height="14.21"/><rect class="cls-3" x="98.6" y="85.53" width="0.82" height="14.21"/><rect class="cls-3" x="96.95" y="85.53" width="0.82" height="14.21"/><rect class="cls-3" x="75.91" y="85.53" width="0.82" height="14.21"/><rect class="cls-3" x="94" y="85.53" width="2.09" height="14.21"/><rect class="cls-3" x="71.5" y="85.53" width="0.42" height="14.21"/><rect class="cls-3" x="69.76" y="85.53" width="0.66" height="14.21"/><rect class="cls-3" x="67.12" y="85.53" width="1.81" height="14.21"/><rect class="cls-3" x="65.47" y="85.53" width="1.07" height="14.21"/><rect class="cls-3" x="60.34" y="85.53" width="1.07" height="14.21"/><rect class="cls-3" x="62.41" y="85.53" width="2.21" height="14.21"/><rect class="cls-3" x="90.87" y="85.53" width="2.09" height="14.21"/><rect class="cls-3" x="72.82" y="85.53" width="2.09" height="14.21"/><rect class="cls-3" x="89.01" y="85.53" width="0.71" height="14.21"/><rect class="cls-3" x="85.93" y="85.53" width="2.15" height="14.21"/><rect class="cls-3" x="83.59" y="85.53" width="1.51" height="14.21"/><rect class="cls-3" x="81.09" y="85.53" width="1.51" height="14.21"/><rect class="cls-3" x="79.5" y="85.53" width="0.6" height="14.21"/><rect class="cls-3" x="77.44" y="85.53" width="1.21" height="14.21"/><rect class="cls-3" x="47.21" y="85.53" width="0.82" height="14.21"/><rect class="cls-3" x="44.12" y="85.53" width="2.09" height="14.21"/><rect class="cls-3" x="57.23" y="85.53" width="2.15" height="14.21"/><rect class="cls-3" x="54.89" y="85.53" width="1.51" height="14.21"/><rect class="cls-3" x="52.39" y="85.53" width="1.51" height="14.21"/><rect class="cls-3" x="50.8" y="85.53" width="0.61" height="14.21"/><rect class="cls-3" x="48.74" y="85.53" width="1.21" height="14.21"/><path class="cls-4" d="M133.48,94.86a1.46,1.46,0,0,1,1.46-1.47V91.93a1.46,1.46,0,0,1,0-2.92V87.54a1.46,1.46,0,0,1,0-2.92V83.15a1.46,1.46,0,0,1,0-2.92V78.76a1.46,1.46,0,0,1,0-2.92V74.37a1.46,1.46,0,0,1,0-2.92V70a1.47,1.47,0,0,1,0-2.93V65.6a1.47,1.47,0,0,1,0-2.93V58.62a5.44,5.44,0,0,1-5.43-5.44h-110a5.45,5.45,0,0,1-5.44,5.44v4.05a1.47,1.47,0,0,1,0,2.93v1.46a1.47,1.47,0,0,1,0,2.93v1.46a1.46,1.46,0,1,1,0,2.92v1.47a1.46,1.46,0,0,1,0,2.92v1.47a1.46,1.46,0,0,1,0,2.92v1.47a1.46,1.46,0,0,1,0,2.92V89a1.46,1.46,0,0,1,0,2.92v1.46a1.47,1.47,0,0,1,0,2.93v4.05a5.45,5.45,0,0,1,5.44,5.44h110a5.44,5.44,0,0,1,5.43-5.44V96.32A1.46,1.46,0,0,1,133.48,94.86Z"/><path class="cls-5" d="M129.64,95.5a6.39,6.39,0,0,1-6.5,6.27H25.87a6.39,6.39,0,0,1-6.5-6.27v-32a6.39,6.39,0,0,1,6.5-6.27h97.27a6.39,6.39,0,0,1,6.5,6.27Z"/><rect class="cls-5" x="34.18" y="57.22" width="80.65" height="44.54"/><path class="cls-6" d="M28.12,93.41V94L25.6,95.39h2.52v.49H24.76v-.52l2.56-1.47H24.76v-.48Z"/><path class="cls-6" d="M25.6,91.63a1,1,0,0,1,.41-.87,1.35,1.35,0,0,1,.88-.28,1.39,1.39,0,0,1,.89.28,1,1,0,0,1,.4.87,1.06,1.06,0,0,1-.4.87,1.37,1.37,0,0,1-.89.28A1.33,1.33,0,0,1,26,92.5,1,1,0,0,1,25.6,91.63Zm.43,0a.57.57,0,0,0,.24.48,1.16,1.16,0,0,0,1.24,0,.61.61,0,0,0,0-1,1.06,1.06,0,0,0-.62-.17,1.08,1.08,0,0,0-.62.17A.58.58,0,0,0,26,91.63Z"/><path class="cls-6" d="M28.41,89.29v.56h-.54v-.56Z"/><path class="cls-6" d="M28.12,87.36v.49H25.38l.36.42-.31.29-.67-.79v-.41Z"/><path class="cls-6" d="M28.12,84.3v2h-.4l-.83-.74a2.36,2.36,0,0,0-1.26-.72.45.45,0,0,0-.34.13.49.49,0,0,0-.12.34,1.67,1.67,0,0,0,.25.8l-.46.09a1.94,1.94,0,0,1-.24-.87,1,1,0,0,1,.22-.7.82.82,0,0,1,.69-.28,2.82,2.82,0,0,1,1.5.83l.55.47V84.3Z"/><path class="cls-6" d="M27.53,83.55a2.22,2.22,0,0,0,.18-.83.78.78,0,0,0-.13-.48.5.5,0,0,0-.44-.22c-.36,0-.54.26-.54.76v.34h-.45V83a1.68,1.68,0,0,0-.09-.63.46.46,0,0,0-.47-.31.33.33,0,0,0-.17,0,.53.53,0,0,0-.13.13.61.61,0,0,0-.09.2.85.85,0,0,0,0,.23,1.83,1.83,0,0,0,.2.76l-.49,0a2.21,2.21,0,0,1-.16-.82,1.34,1.34,0,0,1,.18-.73.74.74,0,0,1,.67-.34.83.83,0,0,1,.79.52.78.78,0,0,1,.81-.53.89.89,0,0,1,.74.36,1.4,1.4,0,0,1,.25.84,2.31,2.31,0,0,1-.14.86Z"/><path class="cls-6" d="M27.37,78.55V79h.75v.49h-.75V81H27l-2.19-1.44V79h2.16v-.46Zm-.45,1h-1.5l1.5,1Z"/><path class="cls-6" d="M25.21,77.41l.85,0A1.31,1.31,0,0,1,26,77a1.07,1.07,0,0,1,.27-.76A1,1,0,0,1,27,76a1.06,1.06,0,0,1,.85.35,1.3,1.3,0,0,1,.29.88A1.91,1.91,0,0,1,28,78h-.47a1.85,1.85,0,0,0,.17-.78.83.83,0,0,0-.16-.52.58.58,0,0,0-.48-.22c-.43,0-.65.24-.65.73a2.78,2.78,0,0,0,.11.75l-1.78,0V76.14h.45Z"/><path class="cls-6" d="M25.28,73.32a1.57,1.57,0,0,0-.1.58q0,.85,1,1a.81.81,0,0,1-.28-.63,1.08,1.08,0,0,1,.22-.69,1,1,0,0,1,.86-.36,1.22,1.22,0,0,1,.85.29,1.07,1.07,0,0,1,.31.81c0,.72-.54,1.08-1.6,1.08a2.21,2.21,0,0,1-1.3-.33,1.35,1.35,0,0,1-.54-1.17,2.1,2.1,0,0,1,.09-.58Zm1.1.91a.6.6,0,0,0,.17.46.6.6,0,0,0,.44.17.77.77,0,0,0,.49-.15.53.53,0,0,0,.22-.44.54.54,0,0,0-.19-.45.69.69,0,0,0-.48-.17C26.59,73.65,26.38,73.85,26.38,74.23Z"/><path class="cls-6" d="M25.13,70.56l3,1.23v.52L25.2,71.07v1.54h-.44v-2Z"/><path class="cls-6" d="M26.35,68.33a.93.93,0,0,1,.88-.64.79.79,0,0,1,.72.37,1.28,1.28,0,0,1,.21.75,1.33,1.33,0,0,1-.22.75.8.8,0,0,1-.71.37.93.93,0,0,1-.87-.61.93.93,0,0,1-.81.51.71.71,0,0,1-.65-.37,1.31,1.31,0,0,1,0-1.34.73.73,0,0,1,.64-.33A1,1,0,0,1,26.35,68.33Zm-.19.48q-.26-.54-.57-.54a.4.4,0,0,0-.31.17.65.65,0,0,0-.11.37.61.61,0,0,0,.12.39.34.34,0,0,0,.3.15.44.44,0,0,0,.35-.17A.65.65,0,0,0,26,69,1.45,1.45,0,0,0,26.16,68.81Zm.42,0a1.59,1.59,0,0,0,.27.5.53.53,0,0,0,.37.14.4.4,0,0,0,.34-.19.72.72,0,0,0,.15-.45.69.69,0,0,0-.13-.45.45.45,0,0,0-.4-.19.42.42,0,0,0-.34.18A2.39,2.39,0,0,0,26.58,68.81Z"/><path class="cls-6" d="M27.59,67a1.53,1.53,0,0,0,.12-.6c0-.55-.34-.86-1-.94a.83.83,0,0,1,.26.63,1,1,0,0,1-.24.69,1,1,0,0,1-.87.36,1.13,1.13,0,0,1-.81-.29,1,1,0,0,1-.32-.81c0-.72.53-1.08,1.6-1.08a2.26,2.26,0,0,1,1.28.32,1.31,1.31,0,0,1,.56,1.16,2.76,2.76,0,0,1-.08.6Zm-2.41-1a.58.58,0,0,0,.18.45.7.7,0,0,0,.48.17c.45,0,.67-.2.67-.58a.6.6,0,0,0-.18-.46.61.61,0,0,0-.45-.17.82.82,0,0,0-.5.15A.51.51,0,0,0,25.18,66.09Z"/><path class="cls-6" d="M119.45,67.61v-.54L122,65.63h-2.52v-.49h3.37v.52l-2.57,1.47h2.57v.48Z"/><path class="cls-6" d="M122,69.39a1,1,0,0,1-.4.87,1.39,1.39,0,0,1-.89.28,1.35,1.35,0,0,1-.88-.28,1,1,0,0,1-.4-.87,1,1,0,0,1,.4-.87,1.33,1.33,0,0,1,.88-.28,1.36,1.36,0,0,1,.89.28A1.05,1.05,0,0,1,122,69.39Zm-.43,0a.59.59,0,0,0-.24-.49,1.22,1.22,0,0,0-1.24,0,.59.59,0,0,0-.24.49.58.58,0,0,0,.24.49,1.22,1.22,0,0,0,1.24,0A.58.58,0,0,0,121.54,69.39Z"/><path class="cls-6" d="M119.17,71.73v-.56h.53v.56Z"/><path class="cls-6" d="M119.45,73.66v-.49h2.74l-.36-.42.31-.29.68.79v.41Z"/><path class="cls-6" d="M119.45,76.71v-2h.4l.84.74a2.29,2.29,0,0,0,1.26.72.43.43,0,0,0,.33-.13.49.49,0,0,0,.13-.34,1.69,1.69,0,0,0-.26-.8l.46-.09a1.91,1.91,0,0,1,.24.87,1.05,1.05,0,0,1-.21.69.83.83,0,0,1-.7.29,2.9,2.9,0,0,1-1.5-.83l-.54-.47v1.37Z"/><path class="cls-6" d="M120.05,77.47a2.06,2.06,0,0,0-.19.82.79.79,0,0,0,.14.49.49.49,0,0,0,.43.21c.37,0,.55-.25.55-.75V77.9h.45V78a1.72,1.72,0,0,0,.08.63A.46.46,0,0,0,122,79a.24.24,0,0,0,.16,0,.3.3,0,0,0,.13-.12.61.61,0,0,0,.09-.2.85.85,0,0,0,0-.23,1.81,1.81,0,0,0-.19-.76l.49,0a2.42,2.42,0,0,1,.15.82,1.34,1.34,0,0,1-.18.73.75.75,0,0,1-.67.34.84.84,0,0,1-.79-.52.78.78,0,0,1-.8.53.88.88,0,0,1-.74-.36,1.33,1.33,0,0,1-.25-.84,2.2,2.2,0,0,1,.14-.87Z"/><path class="cls-6" d="M120.2,82.47V82h-.75v-.49h.75V80h.42l2.2,1.44V82h-2.17v.46Zm.45-1h1.5l-1.5-1Z"/><path class="cls-6" d="M122.37,83.61l-.85,0a1.27,1.27,0,0,1,.06.41,1.07,1.07,0,0,1-.27.76,1,1,0,0,1-.75.3,1.09,1.09,0,0,1-.86-.35,1.29,1.29,0,0,1-.28-.88,1.88,1.88,0,0,1,.13-.76H120a1.71,1.71,0,0,0-.17.78.82.82,0,0,0,.15.52.61.61,0,0,0,.49.21c.43,0,.64-.24.64-.72a2.43,2.43,0,0,0-.11-.75l1.79,0v1.75h-.45Z"/><path class="cls-6" d="M122.29,87.7a1.62,1.62,0,0,0,.11-.58c0-.57-.34-.89-1-1a.81.81,0,0,1,.28.63,1.08,1.08,0,0,1-.22.69,1,1,0,0,1-.86.35,1.17,1.17,0,0,1-.84-.28,1,1,0,0,1-.31-.81c0-.72.53-1.08,1.6-1.08a2.23,2.23,0,0,1,1.3.33,1.37,1.37,0,0,1,.53,1.17,2,2,0,0,1-.08.57Zm-1.09-.91a.62.62,0,0,0-.17-.46.63.63,0,0,0-.45-.17.79.79,0,0,0-.49.15.52.52,0,0,0-.22.44.55.55,0,0,0,.19.45.68.68,0,0,0,.48.16Q121.2,87.36,121.2,86.79Z"/><path class="cls-6" d="M122.44,90.46l-3-1.24v-.51L122.37,90V88.41h.45v2Z"/><path class="cls-6" d="M121.22,92.69a.94.94,0,0,1-.88.64.79.79,0,0,1-.72-.37,1.4,1.4,0,0,1-.2-.75,1.32,1.32,0,0,1,.21-.75.81.81,0,0,1,.71-.37.92.92,0,0,1,.87.61.94.94,0,0,1,.81-.52.73.73,0,0,1,.65.37,1.26,1.26,0,0,1,.18.66,1.19,1.19,0,0,1-.19.69.72.72,0,0,1-.64.32A1,1,0,0,1,121.22,92.69ZM121,92.2a1.64,1.64,0,0,0-.27-.49.51.51,0,0,0-.36-.14.41.41,0,0,0-.35.19.71.71,0,0,0-.14.45.75.75,0,0,0,.12.45.46.46,0,0,0,.4.19.44.44,0,0,0,.35-.18A2.32,2.32,0,0,0,121,92.2Zm.42,0q.27.54.57.54a.37.37,0,0,0,.31-.17.65.65,0,0,0,.11-.37.67.67,0,0,0-.11-.39.37.37,0,0,0-.31-.15.47.47,0,0,0-.35.16l-.1.16A1.45,1.45,0,0,0,121.41,92.21Z"/><path class="cls-6" d="M120,94a1.51,1.51,0,0,0-.11.59c0,.56.33.87,1,1a.83.83,0,0,1-.26-.63,1,1,0,0,1,.24-.69,1,1,0,0,1,.88-.36,1.13,1.13,0,0,1,.81.29,1.06,1.06,0,0,1,.31.81q0,1.08-1.59,1.08A2.28,2.28,0,0,1,120,95.7a1.31,1.31,0,0,1-.55-1.17,2.68,2.68,0,0,1,.07-.59Zm2.42,1a.55.55,0,0,0-.19-.45.69.69,0,0,0-.48-.17c-.44,0-.66.2-.66.58a.6.6,0,0,0,.17.46.61.61,0,0,0,.45.16.8.8,0,0,0,.5-.15A.49.49,0,0,0,122.4,94.93Z"/><path class="cls-6" d="M50.68,60.93a2.4,2.4,0,0,1,2,1,3.54,3.54,0,0,1,.64,2.18,3.63,3.63,0,0,1-.68,2.27,2.4,2.4,0,0,1-2,.9,2.46,2.46,0,0,1-2-.9,4.12,4.12,0,0,1,0-4.46A2.39,2.39,0,0,1,50.68,60.93Zm0,.83a1.56,1.56,0,0,0-1.35.72,3.12,3.12,0,0,0,0,3.23,1.63,1.63,0,0,0,2.7,0,2.84,2.84,0,0,0,.44-1.62A2.87,2.87,0,0,0,52,62.48,1.56,1.56,0,0,0,50.68,61.76Z"/><path class="cls-6" d="M61.45,67.16h-1l-2.62-4.59v4.59H57V61h.94l2.67,4.67V61h.89Z"/><path class="cls-6" d="M68.38,67.16H65.26V61h3v.84H66.16v1.71h2v.84h-2v1.9h2.22Z"/><path class="cls-6" d="M73.89,64.37H71.66v-.84h2.23Z"/><path class="cls-6" d="M84.93,61.05l-1.79,6.08h-1l-1.36-4.76-1.37,4.76h-1L76.7,61.05h1L79,65.83l1.37-4.78h1l1.36,4.76L84,61.05Z"/><path class="cls-6" d="M93.39,67.16h-1l-.62-1.57H89.15l-.63,1.57h-1L90.07,61H91Zm-1.91-2.41-1-2.53-1,2.53Z"/><path class="cls-6" d="M101.47,61,99.2,64.58v2.58h-.89V64.58L96,61h1.07l1.64,2.7,1.69-2.7Z"/><path class="cls-6" d="M50.51,73.39H47.83v8.44H46.4V73.39H43.74V72.08h6.77Z"/><path class="cls-6" d="M56.89,81.83H55.45V72.08h1.44Z"/><path class="cls-6" d="M69.67,81.59a5,5,0,0,1-2.31.41,4.8,4.8,0,0,1-3.59-1.37A5.09,5.09,0,0,1,62.44,77a5,5,0,0,1,1.35-3.65,4.78,4.78,0,0,1,3.57-1.4,5.42,5.42,0,0,1,2.31.36l-.11,1.34a5.94,5.94,0,0,0-2.2-.35,3.3,3.3,0,0,0-2.54,1A3.82,3.82,0,0,0,63.87,77a3.76,3.76,0,0,0,.92,2.68,3.32,3.32,0,0,0,2.57,1,4.69,4.69,0,0,0,2.2-.44Z"/><path class="cls-6" d="M83.68,81.83h-2l-4.07-4.19v4.19H76.25V72.08h1.41v3.74l3.74-3.74h1.91l-4.66,4.6Z"/><path class="cls-6" d="M93.79,81.88h-5V72.06h4.86V73.4H90.22v2.74h3.24v1.34H90.22v3h3.57Z"/><path class="cls-6" d="M105.42,73.39h-2.68v8.44h-1.43V73.39H98.65V72.08h6.77Z"/><rect class="cls-6" x="103.22" y="85.53" width="1.67" height="14.21"/><rect class="cls-6" x="100.14" y="85.53" width="2.09" height="14.21"/><rect class="cls-6" x="98.6" y="85.53" width="0.82" height="14.21"/><rect class="cls-6" x="96.95" y="85.53" width="0.82" height="14.21"/><rect class="cls-6" x="75.91" y="85.53" width="0.82" height="14.21"/><rect class="cls-6" x="94" y="85.53" width="2.09" height="14.21"/><rect class="cls-6" x="71.5" y="85.53" width="0.42" height="14.21"/><rect class="cls-6" x="69.76" y="85.53" width="0.66" height="14.21"/><rect class="cls-6" x="67.12" y="85.53" width="1.81" height="14.21"/><rect class="cls-6" x="65.47" y="85.53" width="1.07" height="14.21"/><rect class="cls-6" x="60.34" y="85.53" width="1.07" height="14.21"/><rect class="cls-6" x="62.41" y="85.53" width="2.21" height="14.21"/><rect class="cls-6" x="90.87" y="85.53" width="2.09" height="14.21"/><rect class="cls-6" x="72.82" y="85.53" width="2.09" height="14.21"/><rect class="cls-6" x="89.01" y="85.53" width="0.71" height="14.21"/><rect class="cls-6" x="85.93" y="85.53" width="2.15" height="14.21"/><rect class="cls-6" x="83.59" y="85.53" width="1.51" height="14.21"/><rect class="cls-6" x="81.09" y="85.53" width="1.51" height="14.21"/><rect class="cls-6" x="79.5" y="85.53" width="0.6" height="14.21"/><rect class="cls-6" x="77.44" y="85.53" width="1.21" height="14.21"/><rect class="cls-6" x="47.21" y="85.53" width="0.82" height="14.21"/><rect class="cls-6" x="44.12" y="85.53" width="2.09" height="14.21"/><rect class="cls-6" x="57.23" y="85.53" width="2.15" height="14.21"/><rect class="cls-6" x="54.89" y="85.53" width="1.51" height="14.21"/><rect class="cls-6" x="52.39" y="85.53" width="1.51" height="14.21"/><rect class="cls-6" x="50.8" y="85.53" width="0.61" height="14.21"/><rect class="cls-6" x="48.74" y="85.53" width="1.21" height="14.21"/></svg>