<svg id="तौलिया" xmlns="http://www.w3.org/2000/svg" viewBox="0 0 150 160"><defs><style>.cls-1,.cls-7{fill:#ffd878;}.cls-1{stroke:#fff;stroke-miterlimit:10;stroke-width:5px;}.cls-2{fill:#adaaa5;}.cls-3{fill:#8e8a85;}.cls-4{fill:#fccb5b;}.cls-5{fill:#e0a42d;}.cls-6{fill:#fff;}.cls-8{fill:#e08828;}.cls-9{fill:#f9e0a7;}.cls-10{fill:#fcebc5;}</style></defs><path class="cls-1" d="M130.61,12a4.84,4.84,0,0,0-4.19,2.46H112.09a1.12,1.12,0,0,0-.91-.49H64.86l-.35-.6v0l-.11-.18H56.17L54,13.49l-.12-.1v1.07h0V13.39l-.64-.49,0,0h0l-.09-.06H47.76l-.13.16-.05.08h0l-.3.42H29.45a.91.91,0,0,0-.92.89v.08H23.58a4.83,4.83,0,1,0,.33,4.06h4.48c0,.7,0,1.42-.07,2.19v.41q-.07,2.72-.17,5.9c0,.68,0,1.35-.05,2l0,.41q-.09,3.63-.18,6.93c0,.14,0,.28,0,.41-.06,2.72-.12,5.27-.17,7.68,0,.14,0,.28,0,.42q-.07,3.38-.12,6.39h0c-.46,26.26,0,32.62-1.44,46.44-.05.54-.11,1.09-.17,1.66-.65,6.09-1.55,12.86-2.18,23.77-.27,4.73-.42,9-.5,12.73,0,1.07,0,2.1-.05,3.07q0,1.75,0,3.27c.84.39,1.81.8,2.9,1.18a35.92,35.92,0,0,0,8.22,1.74c4.23.45,5,0,9.18.19,3.2.16,2.15.4,10.14,1.45,14,1.84,11,1.16,13.44.87a3.81,3.81,0,0,0,1.83-.09,2.65,2.65,0,0,0,1.17-1.1c0-1.09,0-2.19,0-3.26v-.43h0a31.35,31.35,0,0,1,3.47-.81c6.76-1.15,14.7,0,17.4,1a7,7,0,0,0,2.9.49l.5,0a6.85,6.85,0,0,0,1.67-.44c3.3-1.27,10-2.11,11.26-2.27a37.3,37.3,0,0,1,7.9-.11c-.1-1.11-.19-2.22-.28-3.31s-.18-2.09-.26-3.11c-1.06-13.46-1.57-24.57-1.85-32.56-.27-7.74-.42-15.66-.47-54.43v-.41q0-3.72,0-7.84V18.52h13.77A4.83,4.83,0,1,0,130.61,12ZM47.54,18.52h0l0,.3c0,.48-.06.95-.1,1.42,0,.14,0,.28,0,.41h0v-.07c0-.14,0-.28,0-.42C47.48,19.63,47.51,19.08,47.54,18.52ZM68.92,64.36c.4,1.75.82,3.46,1.24,5.11C69.74,67.82,69.32,66.11,68.92,64.36Zm-.58-2.61c.17.76.33,1.51.5,2.25C68.67,63.26,68.51,62.51,68.34,61.75ZM68,60.11c0-.23-.09-.47-.14-.7.12.6.25,1.19.37,1.78C68.14,60.83,68.07,60.47,68,60.11ZM66,48c0,.23,0,.44.07.66a1.36,1.36,0,0,1,0-.2c0-.13,0-.27,0-.41,0-.47-.09-1-.14-1.48,0,.35.06.69.1,1C66,47.73,66,47.87,66,48ZM54.92,66.16c0-1.38-.08-2.86-.16-4.74.07,1.82.13,3.26.16,4.6ZM51.7,37.21l0,.28a2.29,2.29,0,0,1,0-.25l0-.26A1.64,1.64,0,0,0,51.7,37.21Zm-.3,3-.21,2.1Zm-.23,2.35c-.18,1.78-.35,3.52-.53,5.22,0,0,0-.09,0-.13C50.83,46,51,44.33,51.17,42.59Zm2.77-13c0,.43,0,.84,0,1.26,0-.3,0-.58,0-.88ZM54,33.91c0-.11,0-.21,0-.32C54,33.7,54,33.8,54,33.91ZM52.37,30c-.19,2.08-.38,4.1-.57,6.08.2-2.09.4-4.22.6-6.41Zm-9.15,7.47v0c-.13.45-.24.89-.35,1.33.08-.29.14-.59.22-.88Zm1-3.2c-.29.81-.54,1.62-.78,2.43C43.69,35.89,43.94,35.08,44.23,34.27Zm-1.58,5.47q-.15.61-.27,1.23Q42.5,40.36,42.65,39.74Zm-.45,2.09c-.08.41-.15.82-.22,1.24C42.05,42.65,42.12,42.24,42.2,41.83ZM41.82,44c0,.36-.1.72-.16,1.08C41.72,44.67,41.77,44.31,41.82,44Zm8.73,4.76c-.06.65-.13,1.29-.2,1.93.08-.73.16-1.48.23-2.24C50.57,48.5,50.57,48.6,50.55,48.71ZM54,37.58v-.43c0,1.38.05,2.73.08,4.05C54.09,40,54.07,38.82,54,37.58Zm10.35-.68c0,.06,0,.12,0,.18l0,.36c0-.18,0-.35,0-.52ZM52.69,26.54c0-.52.09-1.06.13-1.61C52.78,25.49,52.73,26,52.69,26.54Zm-8,6.52a1.31,1.31,0,0,1,.05-.15A1.31,1.31,0,0,0,44.66,33.06Zm.17-.49a2.76,2.76,0,0,1,.08-.27C44.88,32.39,44.86,32.48,44.83,32.57ZM45,32l.11-.33Zm.21-.65.1-.34C45.29,31.12,45.25,31.23,45.22,31.35Zm.23-.77c0-.09,0-.18.08-.27C45.5,30.4,45.48,30.49,45.45,30.58Zm-4,16.24.06-.47a.52.52,0,0,1,0-.11v0c-.86,6.74-.88,13.47-1.58,20.2C40.59,59.93,40.62,53.38,41.42,46.82ZM39.88,128a1.23,1.23,0,0,1,0-.19c0,.15,0,.29,0,.43a.25.25,0,0,0,0-.08C39.87,128.09,39.87,128,39.88,128Zm-.12-60.14q.09-.69.15-1.38Q39.85,67.16,39.76,67.85Zm2.69,43.33c-.58,3.63-1.08,6.73-1.5,9.34C41.37,117.91,41.87,114.82,42.45,111.18Zm-1.56,9.74c0,.31-.1.61-.14.91C40.79,121.53,40.84,121.23,40.89,120.92Zm-.22,1.43c-.05.28-.09.56-.13.83C40.58,122.91,40.62,122.63,40.67,122.35ZM40.42,124c-.05.31-.09.6-.13.89C40.33,124.59,40.37,124.3,40.42,124Zm-.21,1.42c0,.2-.06.4-.08.59C40.15,125.81,40.18,125.61,40.21,125.41Zm-.15,1.11c0,.26-.07.51-.1.75C40,127,40,126.78,40.06,126.52Zm3.64-23.23q-.15,1-.3,1.95Q43.55,104.28,43.7,103.29Zm-.42,2.7c-.13.8-.25,1.59-.38,2.35C43,107.58,43.15,106.79,43.28,106Zm-.38,2.38c-.13.83-.26,1.62-.38,2.39C42.64,110,42.77,109.19,42.9,108.37Zm2.35-15.25s2.29-15.51,5.08-42.31c-.19,1.88-.39,3.72-.57,5.48-2.53,23.42-4.51,36.83-4.51,36.83-.16,1-.31,2-.45,3C44.94,95.15,45.09,94.15,45.25,93.12Zm-.59,3.93c-.11.72-.22,1.42-.32,2.11C44.44,98.47,44.55,97.77,44.66,97.05ZM44.21,100c-.13.89-.27,1.76-.4,2.62C43.94,101.73,44.08,100.85,44.21,100ZM54.29,48.22c0,1,.06,1.94.09,2.86,0,.48,0,.94,0,1.39,0-.45,0-.91,0-1.39,0-.82-.06-1.67-.08-2.53Zm11.26-5,0,.16Zm.1,1.2c0,.17,0,.33,0,.49C65.68,44.77,65.67,44.61,65.65,44.44Zm.1,1.11c0,.28,0,.55.07.82C65.8,46.1,65.77,45.83,65.75,45.55ZM63.82,29.66a.41.41,0,0,0,0,.11c0,.07,0,.12,0,.18a1.8,1.8,0,0,0,0-.22v-.07l0-.34a2.83,2.83,0,0,0,0-.29l0,.29C63.8,29.44,63.81,29.55,63.82,29.66Zm-.14-2.31a1.93,1.93,0,0,1,0,.24A1.93,1.93,0,0,0,63.68,27.35Zm0-4.15c0-.1,0-.21,0-.32v.06h0C63.64,23,63.63,23.12,63.63,23.2Zm-9.73-4v0Zm0,8.3c0-1.07,0-2.13,0-3.22C53.91,25.37,53.92,26.43,53.92,27.5Zm-.78-7.69,0,.55c0-.38,0-.77,0-1.16v.2C53.15,19.54,53.15,19.67,53.14,19.81ZM52.89,24l.06-.82ZM53,22.21c0-.29,0-.57.05-.86C53.05,21.64,53,21.92,53,22.21Zm-7.27,7.35-.09.31a.93.93,0,0,0,0-.13c.07-.25.14-.5.2-.76a1,1,0,0,1,0,.17C45.81,29.29,45.78,29.43,45.74,29.56ZM47.1,23c0,.05,0,.09,0,.14S47.1,23,47.1,23Zm-.35,2.15c0,.1,0,.2,0,.3C46.72,25.32,46.73,25.22,46.75,25.12Zm-.41,2-.09.36ZM39.75,68c0,.42-.1.84-.16,1.26C39.65,68.81,39.7,68.39,39.75,68Zm-.19,1.47c-.06.39-.11.79-.17,1.18C39.45,70.23,39.5,69.83,39.56,69.44Zm-.22,1.47L39.16,72Zm-.24,1.45c-.07.35-.13.7-.2,1.06C39,73.06,39,72.71,39.1,72.36Zm.7,56.4c0,.05,0,.11,0,.16S39.8,128.81,39.8,128.76Zm0,.72v0Zm0,.56v0Zm.2,1.28a.1.1,0,0,1,0,0A.1.1,0,0,0,39.92,131.32Zm-.09-.15,0-.1Zm-.06-.22s0-.09,0-.14S39.76,130.9,39.77,131Zm0-.31c0-.06,0-.12,0-.18S39.73,130.58,39.74,130.64Zm10.25-27c-.28,1.11-.57,2.23-.88,3.38C49.42,105.82,49.71,104.7,50,103.59Zm-1,3.85c-.35,1.29-.73,2.61-1.13,4C48.25,110.05,48.63,108.73,49,107.44ZM50.9,99.8c-.24,1-.49,2.09-.75,3.17C50.41,101.89,50.66,100.83,50.9,99.8Zm.83-3.87c-.22,1.08-.46,2.19-.71,3.33C51.27,98.12,51.51,97,51.73,95.93Zm1.74-10c-.06.45-.13.91-.2,1.37C53.34,86.86,53.41,86.4,53.47,86Zm-.32,2.15L53,89Zm-.28,1.73c-.07.38-.13.77-.2,1.16C52.74,90.6,52.8,90.21,52.87,89.83Zm-.4,2.24q-.09.57-.21,1.14Q52.38,92.64,52.47,92.07Zm-.37,2c-.07.4-.15.79-.23,1.19C52,94.84,52,94.45,52.1,94.05ZM54.23,79.9c0,.15,0,.29,0,.44C54.2,80.19,54.21,80.05,54.23,79.9Zm-.14,1.22-.06.52ZM53.87,83c0,.23,0,.45-.08.68C53.82,83.4,53.85,83.18,53.87,83Zm-.19,1.48-.09.7Zm.71-6.21,0,.3Zm.42-6c0,.14,0,.3,0,.48C54.8,72.56,54.81,72.39,54.81,72.25Zm0,.83c0,.07,0,.14,0,.22C54.76,73.22,54.77,73.15,54.77,73.08Zm-.11,1.8a2.46,2.46,0,0,1,0,.26A2.46,2.46,0,0,0,54.66,74.88Zm-.18,2.31c0,.09,0,.19,0,.29C54.47,77.38,54.48,77.28,54.48,77.19Zm0-24.46c0,.33,0,.64,0,1C54.45,53.37,54.44,53.06,54.43,52.73Zm0,1.45,0,.74Zm0,1.11,0,.71Zm.38,14.45v0Zm0-2.31v0Zm0,.74v0Zm0,.81v0Zm0-2.14v0ZM65.05,47.76c0,.13,0,.25,0,.38.48,9,.82,18,1.33,27-.52-9.08-.86-18.17-1.34-27.26A.19.19,0,0,1,65.05,47.76Zm1.24,2.93c.1.78.2,1.49.31,2.13C66.49,52.18,66.39,51.47,66.29,50.69Zm.44,29.78c-.07-1-.13-2-.19-3.07C66.6,78.42,66.66,79.44,66.73,80.47Zm-.58-30.91c0,.27.06.52.09.77C66.21,50.08,66.18,49.83,66.15,49.56Zm1.3,7.83-.24-1.21ZM64.92,34.32c0,.41.06.81.08,1.2C65,35.13,65,34.73,64.92,34.32Zm-.32-4.94q-.16-2.76-.37-5.91.21,3.12.37,5.86l0,.37Zm-.74-10.72c0,.14,0,.28,0,.41,0,.54-.08,1.07-.11,1.59,0-.41.05-.83.08-1.25l0-.41c0-.1,0-.2,0-.3s0-.12,0-.18h0C63.87,18.57,63.86,18.62,63.86,18.66ZM33.62,36.79h0c.58-1.4,1.08-2.49,1.61-3.49C34.7,34.3,34.21,35.39,33.62,36.79Zm-2.29,5.6c.25-.63.49-1.2.71-1.75C31.82,41.19,31.58,41.76,31.33,42.39ZM35,85.3c-.13.25-.24.5-.37.75C34.73,85.8,34.84,85.55,35,85.3Zm-.74,1.43-.38.73Zm4.58-12.91q-.09.5-.21,1Q38.72,74.32,38.81,73.82Zm-.31,1.44c-.08.32-.15.64-.23,1C38.35,75.9,38.42,75.58,38.5,75.26Zm-.36,1.43c-.08.31-.16.62-.25.93C38,77.31,38.06,77,38.14,76.69Zm-.4,1.44c-.09.3-.17.59-.27.89C37.57,78.72,37.65,78.43,37.74,78.13Zm-.45,1.44c-.09.28-.19.57-.29.86C37.1,80.14,37.2,79.85,37.29,79.57ZM36.79,81l-.3.83Zm-.55,1.43c-.1.27-.21.54-.32.81C36,83,36.14,82.7,36.24,82.43Zm-.61,1.44c-.11.26-.22.51-.34.77C35.41,84.38,35.52,84.13,35.63,83.87Zm31.46,1.65c0,.12,0,.23,0,.35C67.1,85.75,67.1,85.64,67.09,85.52Zm3.13-15.79c.18.7.36,1.4.55,2.09C70.58,71.13,70.4,70.43,70.22,69.73Zm.7,2.67c.16.58.31,1.15.46,1.71C71.23,73.55,71.08,73,70.92,72.4Zm.64,2.35c.15.55.31,1.09.46,1.63C71.86,75.84,71.71,75.3,71.56,74.75ZM72.18,77l.51,1.73Zm.61,2.09c.2.68.4,1.36.6,2C73.19,80.41,73,79.73,72.79,79.05Zm.71,2.35c.16.53.31,1,.47,1.54C73.81,82.44,73.66,81.93,73.5,81.4Zm.68,2.23c.12.37.24.74.35,1.1C74.42,84.37,74.3,84,74.18,83.63Zm.59,1.86.3.94Zm.54,1.68.3.94Zm.5,1.55c.16.48.31,1,.46,1.41ZM91,136.52l-.53-.18Zm-.77-.25-.38-.1Zm-.71-.18L89.1,136Zm-.78-.18-.38-.07Zm-.86-.16-.35-.06Zm-.92-.15-.28,0Zm-3.87-.42h0ZM82,135.12h0Zm-1.14,0h0Zm-16.6-116V19a.34.34,0,0,0,0-.1v.24ZM30.55,44.27l-.23.53h0v0C30.41,44.61,30.47,44.44,30.55,44.27Zm-.39.92h0L30,45.5Zm3.28,43-.41.7Zm-.93,1.53c-.13.2-.24.39-.37.58C32.27,90.08,32.38,89.89,32.51,89.69Zm37.57,50v0Z"/><path class="cls-2" d="M132.35,14.46v4.06H25.83a4.68,4.68,0,0,0,.31-1.68,4.78,4.78,0,0,0-.63-2.38Z"/><path class="cls-3" d="M26.14,16.84a4.68,4.68,0,0,1-.31,1.68H21.3V14.46h4.21A4.78,4.78,0,0,1,26.14,16.84Z"/><circle class="cls-2" cx="19.39" cy="16.84" r="4.83"/><path class="cls-3" d="M123.86,16.84a4.68,4.68,0,0,0,.31,1.68h4.53V14.46h-4.21A4.78,4.78,0,0,0,123.86,16.84Z"/><circle class="cls-2" cx="130.61" cy="16.84" r="4.83"/><path class="cls-4" d="M54.81,72.25a154.14,154.14,0,0,1-3.05,23.57c-1,4.72-2.23,10-3.91,15.57-2,6.87-6.5,20.33-7.82,20s1.29-11.82,5.22-38.27c0,0,2-13.41,4.51-36.83q.39-3.63.79-7.58c0-.14,0-.28,0-.42.35-3.39.71-6.95,1.06-10.67,0-.14,0-.27.05-.41.22-2.34.45-4.75.67-7.21,0-.14,0-.27,0-.41.09-1,.18-2,.28-3.05.18-2,.34-4.23.45-6.73,0-.14,0-.27,0-.41.05-1.26.09-2.58.11-4,0-1,0-1.82,0-2.52l.64.49c0,2,0,4,0,6v.42c0,3.39,0,6.66,0,9.79V30c0,2.48.06,4.89.1,7.2v.41c.07,3.75.16,7.27.25,10.53,0,.15,0,.3,0,.44,0,.86.05,1.71.08,2.53C54.79,64.15,55.11,65.87,54.81,72.25Z"/><path class="cls-5" d="M54.81,72.25a154.14,154.14,0,0,1-3.05,23.57c1-8.51,1.94-18.1,1.7-23.75-.08-1.93-.37-5.19-.73-9.14-.73-8.29-1-9.23-1.45-9.27s-1,1.07-1.52,2.63q.39-3.63.79-7.58c0-.14,0-.28,0-.42.35-3.39.71-6.95,1.06-10.67,0-.14,0-.27.05-.41.22-2.34.45-4.75.67-7.21,0-.14,0-.27,0-.41.09-1,.18-2,.28-3.05.18-2,.34-4.23.45-6.73,0-.14,0-.27,0-.41.05-1.26.09-2.58.11-4,0-1,0-1.82,0-2.52l.64.49c0,2,0,4,0,6v.42c0,3.39,0,6.66,0,9.79V30c0,2.48.06,4.89.1,7.2v.41c.07,3.75.16,7.27.25,10.53,0,.15,0,.3,0,.44,0,.86.05,1.71.08,2.53C54.79,64.15,55.11,65.87,54.81,72.25Z"/><path class="cls-4" d="M92.09,136.85a7.08,7.08,0,0,1-1.13-.33c-2.34-.87-8.66-1.83-14.71-1.3-.9.07-1.81.18-2.69.33a29.63,29.63,0,0,0-3.48.82c0,1,0,2,0,3.09h0v.63c0,.87,0,1.76,0,2.65h0c0-.88,0-1.76,0-2.62-.23-20.32-1.37-36.81-2.48-48.84-1.32-14.35-1.74-28.76-2.5-43.15,0-.18,0-.35,0-.54h0q-.27-5.26-.64-10.52l0-.49h0q-.21-3-.47-6c0-.21,0-.49-.07-.83a.41.41,0,0,1,0-.11c0-.11,0-.22,0-.34l0-.29c0-.11,0-.23,0-.36s0-.57,0-.88,0-.43,0-.66,0-.71,0-1.09c0-.85,0-1.78,0-2.8v0c0-.08,0-.17,0-.25h0v-.06h0v-.1c0-.41,0-.82,0-1.25s0-.57,0-.86c0-.52.06-1.05.11-1.59,0-.13,0-.27,0-.41s0-.34,0-.51l.09-.92c0-.3.06-.62.1-.94.09-.78.19-1.51.29-2.18a.36.36,0,0,0,0-.11c0-.22.06-.44.1-.65v0l.35.6H65c-.16.68-.32,1.48-.46,2.39s-.24,1.81-.3,2.6c0,.17,0,.34,0,.5a.49.49,0,0,0,0,.12v0s0,.06,0,.09h0c0,.26,0,.5,0,.74,0,1.35,0,2.4.06,3q.21,3.15.37,5.91a2.83,2.83,0,0,1,0,.41c.17,2.57.32,4.9.46,7l0,.4c.31,4.56.58,8.07.86,10.85,0,.14,0,.28,0,.41.18,1.72.37,3.15.57,4.36.43,2.5.9,4.93,1.39,7.29a272.22,272.22,0,0,0,8.28,30c.3.9.59,1.81.89,2.73s.54,1.63.81,2.46c0,.11.07.22.11.32.26.78.51,1.56.77,2.35s.6,1.8.91,2.71l.45,1.38c.09.25.17.51.26.77.33,1,.65,2,1,3q1.52,4.5,3.11,9.24l.54,1.58c.36,1.06.73,2.13,1.1,3.2s.73,2.16,1.11,3.26c.11.33.23.66.34,1l1.37,4c.09.24.17.49.26.73l2.1,6.07C91.62,135.53,91.85,136.19,92.09,136.85Z"/><path class="cls-5" d="M73.56,135.55a29.63,29.63,0,0,0-3.48.82c0,1,0,2,0,3.09h0v.63c0,.87,0,1.76,0,2.65h0c0-.88,0-1.76,0-2.62-.23-20.32-1.37-36.81-2.48-48.84-1.32-14.35-1.74-28.76-2.5-43.15,0-.18,0-.35,0-.54h0q-.27-5.26-.64-10.52l0-.49h0q-.21-3-.47-6c0-.21,0-.49-.07-.83a.41.41,0,0,1,0-.11c0-.11,0-.22,0-.34l0-.29c0-.11,0-.23,0-.36s0-.57,0-.88,0-.43,0-.66,0-.71,0-1.09c0-.85,0-1.78,0-2.8v0c0-.08,0-.17,0-.25h0v-.06h0v-.1c0-.41,0-.82,0-1.25s0-.57,0-.86c0-.52.06-1.05.11-1.59,0-.13,0-.27,0-.41s0-.34,0-.51l.09-.92c0-.3.06-.62.1-.94.09-.78.19-1.51.29-2.18a.36.36,0,0,0,0-.11c0-.22.06-.44.1-.65v0l.35.6H65c-.16.68-.32,1.48-.46,2.39s-.24,1.81-.3,2.6c0,.17,0,.34,0,.5a.49.49,0,0,0,0,.12v0s0,.06,0,.09h0c0,.26,0,.5,0,.74,0,1.35,0,2.4.06,3q.21,3.15.37,5.91a2.83,2.83,0,0,1,0,.41c.17,2.57.32,4.9.46,7l0,.4c.31,4.56.58,8.07.86,10.85,0,.14,0,.28,0,.41.18,1.72.37,3.15.57,4.36.43,2.5.9,4.93,1.39,7.29q.2,4.42.5,8.91c0,.6.39,3.54.58,7.54.3,6.48,0,11.25,0,12-.21,4.6,1.36,17.12,7.18,46.67C75.35,135.29,74.44,135.4,73.56,135.55Z"/><path class="cls-5" d="M115.19,140.51a37.3,37.3,0,0,0-7.9.11c-1.21.16-8,1-11.26,2.27a6.85,6.85,0,0,1-1.67.44l-1.14-3.24a3.42,3.42,0,0,0,.64,0,4,4,0,0,0,.5,0,6.85,6.85,0,0,0,1.67-.44c3.3-1.28,10-2.12,11.26-2.27a36.4,36.4,0,0,1,7.62-.14C115,138.29,115.09,139.4,115.19,140.51Z"/><path class="cls-6" d="M114.91,137.2a36.4,36.4,0,0,0-7.62.14c-1.21.15-8,1-11.26,2.27a6.85,6.85,0,0,1-1.67.44,4,4,0,0,1-.5,0,3.42,3.42,0,0,1-.64,0l-1.13-3.24a6.07,6.07,0,0,0,1.13.15h.64l.5,0a8,8,0,0,0,1.67-.44c3.3-1.28,10-2.12,11.26-2.28a36.69,36.69,0,0,1,7.36-.15C114.73,135.11,114.82,136.15,114.91,137.2Z"/><path class="cls-7" d="M114.65,134.09a36.69,36.69,0,0,0-7.36.15c-1.21.16-8,1-11.26,2.28a8,8,0,0,1-1.67.44l-.5,0h-.64a6.07,6.07,0,0,1-1.13-.15c-.24-.66-.47-1.32-.7-2l-2.1-6.07c-.09-.24-.17-.49-.26-.73l-1.37-4c-.11-.34-.23-.67-.34-1-.38-1.1-.75-2.18-1.11-3.26s-.74-2.14-1.1-3.2l-.54-1.58q-1.6-4.74-3.11-9.24c-.34-1-.66-2-1-3-.09-.26-.17-.52-.26-.77l-.45-1.38c-.31-.91-.61-1.81-.91-2.71s-.51-1.57-.77-2.35c0-.1-.07-.21-.11-.32q-.41-1.25-.81-2.46c-.3-.92-.59-1.83-.89-2.73A257.89,257.89,0,0,1,66.6,52.82c-.22-1.32-.43-2.89-.62-4.82,0-.13,0-.27,0-.42-.28-2.76-.54-6.23-.84-10.66l0-.41c-.14-2-.28-4.3-.44-6.77l0-.41q-.16-2.74-.37-5.86c0-.63-.1-1.68-.06-3,0-.24,0-.48,0-.74h0s0-.05,0-.08v0a.66.66,0,0,1,0-.14c0-.13,0-.26,0-.4l0-.33c0-.13,0-.27,0-.41.06-.61.13-1.26.24-1.94.14-.91.3-1.71.46-2.39h46.19a1.14,1.14,0,0,1,1.14,1.14V38.85q0,4.13,0,7.84v.41c0,38.77.2,46.69.47,54.43C113.08,109.52,113.59,120.63,114.65,134.09Z"/><path class="cls-8" d="M94.36,143.33l-.5,0a7,7,0,0,1-2.9-.49c-2.7-1-10.64-2.11-17.4-1a31.35,31.35,0,0,0-3.47.81c0-1.1,0-2.19,0-3.28a29.63,29.63,0,0,1,3.48-.82c6.76-1.15,14.7,0,17.4,1a7,7,0,0,0,2.26.48Z"/><path class="cls-9" d="M93.22,140.09a7,7,0,0,1-2.26-.48c-2.7-1-10.64-2.12-17.4-1a29.54,29.54,0,0,0-3.47.82c0-1,0-2.07,0-3.09a29.63,29.63,0,0,1,3.48-.82c6.76-1.15,14.7,0,17.4,1a7.08,7.08,0,0,0,1.13.33Z"/><path class="cls-5" d="M70.09,146.44a2.65,2.65,0,0,1-1.17,1.1,3.81,3.81,0,0,1-1.83.09c-2.47.29.53,1-13.44-.87-8-1-6.94-1.29-10.14-1.45-4.22-.21-4.95.26-9.18-.19a35.92,35.92,0,0,1-8.22-1.74c-1.09-.38-2.06-.79-2.9-1.18q0-1.51,0-3.27a28.4,28.4,0,0,0,2.87,1.16,35.92,35.92,0,0,0,8.22,1.74c4.23.45,5,0,9.18.19,3.2.16,2.15.4,10.14,1.45,14,1.84,11,1.17,13.44.87a3.68,3.68,0,0,0,1.83-.09,2.73,2.73,0,0,0,1.16-1.07C70.09,144.25,70.09,145.35,70.09,146.44Z"/><path class="cls-6" d="M70.08,143.18a2.73,2.73,0,0,1-1.16,1.07,3.68,3.68,0,0,1-1.83.09c-2.47.3.53,1-13.44-.87-8-1.05-6.94-1.29-10.14-1.45-4.22-.21-4.95.26-9.18-.19a35.92,35.92,0,0,1-8.22-1.74,28.4,28.4,0,0,1-2.87-1.16c0-1,0-2,.05-3.07.82.38,1.76.77,2.82,1.14a35.92,35.92,0,0,0,8.22,1.74c4.23.45,5,0,9.18.19,3.2.16,2.15.4,10.14,1.45,14,1.84,11,1.16,13.44.87a3.81,3.81,0,0,0,1.83-.09,2.62,2.62,0,0,0,1.13-1c0,.86,0,1.74,0,2.62Z"/><path class="cls-7" d="M70.05,140.13a2.62,2.62,0,0,1-1.13,1,3.81,3.81,0,0,1-1.83.09c-2.47.29.53,1-13.44-.87-8-1-6.94-1.29-10.14-1.45-4.22-.21-4.95.26-9.18-.19A35.92,35.92,0,0,1,26.11,137c-1.06-.37-2-.76-2.82-1.14.08-3.71.23-8,.5-12.73.63-10.91,1.53-17.68,2.18-23.77.06-.57.12-1.12.17-1.66a49.09,49.09,0,0,0,5-6c10.71-15.11,8.37-30.24,10.31-45.41l.06-.46a60.78,60.78,0,0,1,1.68-8.39l.12-.41c.27-.91.56-1.83.88-2.74s.89-2.44,1.51-4.71c0-.13.07-.27.11-.41a54.39,54.39,0,0,0,1.54-8.5h0c0-.13,0-.27,0-.41,0-.47.08-.94.1-1.42l0-.44c0-.89.08-1.8.08-2.74,0-.57,0-1.12,0-1.61v-.11c0-.3,0-.58,0-.85h0l.05-.08.13-.16h5.41l.09.06h0l0,0c0,.7,0,1.55,0,2.52s0,2-.08,3v.42c-.1,2.91-.29,5.48-.49,7.74l-.24,2.6c0,.13,0,.27,0,.41-.23,2.49-.45,4.91-.68,7.28,0,.14,0,.27,0,.41q-.52,5.46-1,10.44c0,.14,0,.28,0,.41-2.91,28.47-5.36,45-5.36,45-2.75,18.51-4.8,29.71-5.37,34.87,0,0,0,.1,0,.16-.22,2.11-.19,3.16.17,3.24,1.32.33,5.78-13.13,7.82-20a165.8,165.8,0,0,0,7-39.14c.11-2.4.14-4.13.11-6.06V66c-.07-3.17-.29-6.92-.54-14.94,0-1.09-.07-2.21-.11-3.36,0-.14,0-.29,0-.44-.08-3.15-.16-6.53-.22-10.13,0-.14,0-.27,0-.41q-.06-3.47-.09-7.18c0-.13,0-.27,0-.41q0-5,0-10.38v-.48c0-1.61,0-3.24,0-4.9l.12.1,2.13-.34h8.21l.11.18v0c0,.21-.07.43-.1.65a.36.36,0,0,1,0,.11c-.1.67-.2,1.4-.29,2.18,0,.32-.07.64-.1.94l-.09.92c0,.05,0,.1,0,.14l0,.41c0,.1,0,.2,0,.3l0,.41c0,.42-.06.84-.08,1.25s0,.58,0,.86,0,.84,0,1.25v.1h0c0,.11,0,.22,0,.32v0c0,1,0,2,0,2.8,0,1,.07,1.9.11,2.63,0,.13,0,.25,0,.36a2.83,2.83,0,0,1,0,.29l0,.34v.07c0,.35.06.64.08.87q.25,2.94.46,5.91l0,.41c.25,3.5.46,7,.65,10.5,0,.14,0,.28,0,.42.76,14.49,1.18,29,2.51,43.45C68.68,103.32,69.82,119.81,70.05,140.13Z"/><path class="cls-4" d="M47.64,15.64c0,1.58-.08,3.09-.21,4.52,0,.14,0,.28,0,.42a53.34,53.34,0,0,1-1.7,9.16c0,.14-.08.28-.11.42-.56,1.95-1.08,3.36-1.35,4.11-.38,1.07-.71,2.13-1,3.2l-.12.43a61.64,61.64,0,0,0-1.62,8.45l-.06.47c-1.82,15,.34,29.93-10.24,44.86a49.09,49.09,0,0,1-5,6c1.39-13.82,1-20.18,1.44-46.44h0c1-2.22,1.82-4.25,2.58-6.07.06-.13.11-.26.16-.39l1-2.41c.88-2.15,1.55-3.82,2.12-5.19.06-.14.11-.28.17-.41a26.66,26.66,0,0,1,3.51-6.44l.62-.81.34-.42C40.63,26,43,24.05,44.75,20.75l.2-.4a17.5,17.5,0,0,0,.73-1.74,19.33,19.33,0,0,0,1.09-5.12h.51l.3-.42C47.61,13.8,47.64,14.67,47.64,15.64Z"/><path class="cls-7" d="M46.77,13.49a19.33,19.33,0,0,1-1.09,5.12A17.5,17.5,0,0,1,45,20.35h0l-.21.42C43,24.08,40.6,26,38,29.18l-.33.41c-.19.25-.39.5-.58.76a27.18,27.18,0,0,0-3.52,6.46c0,.13-.11.26-.17.4-.57,1.37-1.23,3-2.11,5.18-.31.75-.64,1.55-1,2.39,0,.13-.1.26-.16.39Q29,47.92,27.58,51.26q0-3,.12-6.39c0-.14,0-.28,0-.42.05-2.41.11-5,.17-7.68,0-.13,0-.27,0-.41q.09-3.3.18-6.93c0-.13,0-.27,0-.41,0-.65,0-1.32.05-2q.09-3.18.17-5.9c0-.14,0-.28,0-.41.08-2.46.15-4.6.21-6.33a.91.91,0,0,1,.92-.89Z"/><path class="cls-6" d="M45,20.35l-.21.42-1.08,0c-4.11.16-8.29.26-12.09.29l-3.26,0c0-.14,0-.28,0-.41l3.25,0c3.8,0,8-.13,12.07-.29Z"/><path class="cls-6" d="M53.19,18.38v.42a15.36,15.36,0,0,0-2.77-.31,10.85,10.85,0,0,0-2.08.14,7.73,7.73,0,0,0-.8.19l0-.44q.34-.09.69-.15a11.92,11.92,0,0,1,2.17-.15A16.41,16.41,0,0,1,53.19,18.38Z"/><path class="cls-6" d="M63.89,18.29l0,.41c-2.63-.1-5.28-.1-7.91,0l-2.05.09v-.41q1-.06,2-.09C58.58,18.19,61.25,18.19,63.89,18.29Z"/><path class="cls-6" d="M112.32,20.24v.41c-5.18.24-10.38.36-15.57.36Q91,21,85.2,20.81c-7-.24-14-.69-21-1.37,0-.13,0-.26,0-.4,7,.67,14,1.12,21,1.36C94.2,20.71,103.3,20.65,112.32,20.24Z"/><path class="cls-6" d="M38,29.18l-.33.41c-1.35,0-2.82,0-4.48,0s-3.44-.07-5.16-.12c0-.13,0-.27,0-.41,1.71.05,3.43.09,5.15.12S36.6,29.18,38,29.18Z"/><path class="cls-6" d="M52.45,29.14c0,.13,0,.27,0,.41-1.09,0-2.33,0-3.88,0H45.74c0-.13.07-.27.11-.41h2.68C50.09,29.13,51.35,29.13,52.45,29.14Z"/><path class="cls-6" d="M63.82,29.73c-2.74,0-4.62-.07-6.23-.11l-3.65-.06c0-.13,0-.27,0-.41l3.67.07,6.19.1,0,.34Z"/><path class="cls-6" d="M112.32,29v.41c-8.58.2-17.19.33-25.66.39-2.7,0-6,0-9.92,0l-9.15,0-3,0,0-.41,3,0c8.27.06,14.51,0,19.07,0C95.12,29.3,103.75,29.17,112.32,29Z"/><path class="cls-6" d="M33.61,36.81c0,.13-.11.26-.17.4-1.86-.1-3.72-.25-5.56-.44,0-.13,0-.27,0-.41Q30.73,36.64,33.61,36.81Z"/><path class="cls-6" d="M51.73,36.83c0,.14,0,.27,0,.41-1.53.06-3.29.11-5.62.15l-2.84,0,.12-.41,2.71,0C48.41,36.94,50.19,36.88,51.73,36.83Z"/><path class="cls-6" d="M64.39,36.92c-1.33,0-2.8,0-4.4,0-2.29,0-4,.11-5.73.19H54c0-.14,0-.27,0-.41h.22c1.77-.08,3.44-.15,5.73-.19q2.39,0,4.38,0Z"/><path class="cls-6" d="M112.32,35v.41c-18.47,1.38-31.92,2-40,1.71l-1,0c-1.45-.05-3.52-.12-6.15-.14l0-.41c2.65,0,4.73.09,6.2.14l1,0C80.41,36.93,93.85,36.35,112.32,35Z"/><path class="cls-6" d="M27.71,44.45a16.9,16.9,0,0,1,2.62.33c0,.13-.1.26-.16.39a15.16,15.16,0,0,0-2.47-.3C27.7,44.73,27.71,44.59,27.71,44.45Z"/><path class="cls-6" d="M50.66,47.68c0,.14,0,.28,0,.41a7.1,7.1,0,0,1-1.08-.26,13.26,13.26,0,0,1-1.9-.83,8.12,8.12,0,0,0-4.17-1.11,5.31,5.31,0,0,0-2,.38l.06-.46a5.65,5.65,0,0,1,1.9-.33,8.47,8.47,0,0,1,4.36,1.16A10.06,10.06,0,0,0,50.66,47.68Z"/><path class="cls-6" d="M65.06,47.84c-.69-.12-1.31-.25-1.86-.36a16.17,16.17,0,0,0-6.52-.43,9.33,9.33,0,0,0-2.41.67c0-.14,0-.29,0-.44a9.47,9.47,0,0,1,2.36-.64,16.75,16.75,0,0,1,6.66.44l1.76.34C65,47.56,65.05,47.7,65.06,47.84Z"/><path class="cls-6" d="M112.33,46.69v.41c-6.47.61-22.37,2-32.62,2-2,0-3.79,0-5.25-.18-5.2-.44-6.2-.57-6.24-.58-.82-.11-1.56-.23-2.24-.35,0-.13,0-.27,0-.42.7.12,1.48.25,2.34.37,0,0,1,.13,6.22.57C83.39,49.28,104.64,47.42,112.33,46.69Z"/><path class="cls-10" d="M47.43,20.16c0,.14,0,.28,0,.42a11.85,11.85,0,0,1-1.88.18h-.93l0-.41.34,0h.56A11.26,11.26,0,0,0,47.43,20.16Z"/><path class="cls-10" d="M45.69,29.74c0,.14-.08.28-.11.42l-.92,0a15.49,15.49,0,0,1-2.06-.14c-.4-.05-.76-.12-1.13-.18a19.15,19.15,0,0,0-2.77-.33H37.41v-.41h1.32a19.77,19.77,0,0,1,2.82.33c.36.07.72.13,1.11.18A15.31,15.31,0,0,0,45.69,29.74Z"/><path class="cls-10" d="M43.22,37.47l-.12.43a10.64,10.64,0,0,1-1.38.08c-.23,0-.46,0-.69,0a7.36,7.36,0,0,1-1.71-.28,9.51,9.51,0,0,0-1.94-.34c-.69-.07-1.47-.09-3-.12l-.9,0h-.34v-.41h.5l.73,0c1.58,0,2.37,0,3.06.12a11.13,11.13,0,0,1,2,.35,7.12,7.12,0,0,0,1.63.27A10.49,10.49,0,0,0,43.22,37.47Z"/><path class="cls-10" d="M41.48,46.35l-.06.47c-.21.08-.43.15-.65.21a7.07,7.07,0,0,1-1.76.22,18.21,18.21,0,0,1-5.27-1.15l-.1,0a26.72,26.72,0,0,0-2.8-.75l-.68-.13-.27,0,.06-.4.37.06.6.12a24.88,24.88,0,0,1,2.85.76l.09,0c2.63.83,4.7,1.48,6.81.92A7.75,7.75,0,0,0,41.48,46.35Z"/><path class="cls-7" d="M54.3,48.55a6.33,6.33,0,0,1-2.13.37l-.54,0a6.79,6.79,0,0,1-1.08-.19c0-.14,0-.28,0-.42a6.62,6.62,0,0,0,1.08.2,5.81,5.81,0,0,0,2.62-.38C54.29,48.26,54.3,48.41,54.3,48.55Z"/><path class="cls-7" d="M54,37.58c-.54,0-1.09.05-1.64.05h-.75c0-.14,0-.27.05-.41h.35c.66,0,1.33,0,2,0Z"/><path class="cls-7" d="M53.94,30l-1.15,0h-.42c0-.14,0-.27,0-.41h.38l1.15,0Z"/><path class="cls-7" d="M53.9,19.35v.42a3.42,3.42,0,0,1-.45,0h-.31c0-.14,0-.27,0-.41a1.31,1.31,0,0,0,.28,0A2.49,2.49,0,0,0,53.9,19.35Z"/><path class="cls-7" d="M64.23,19c0,.17,0,.34,0,.5a.48.48,0,0,1-.32-.22.41.41,0,0,1,0-.16h0c0-.13,0-.27,0-.41a.41.41,0,0,1,.29.15A.32.32,0,0,1,64.23,19Z"/><path class="cls-7" d="M64.63,29.79a1.5,1.5,0,0,1-.37,0h-.2l-.23-.05a.41.41,0,0,1,0-.11c0-.11,0-.22,0-.34a.85.85,0,0,0,.32.09,1.3,1.3,0,0,0,.48,0A2.83,2.83,0,0,1,64.63,29.79Z"/><path class="cls-7" d="M65.12,37.2H65a1.6,1.6,0,0,1-.53-.09l-.11,0,0-.49a1,1,0,0,0,.27.14,1.13,1.13,0,0,0,.45.07Z"/><path class="cls-7" d="M66,48.46a2,2,0,0,1-.83-.24.57.57,0,0,1-.13-.08c0-.18,0-.35,0-.54a1.83,1.83,0,0,0,.36.26,1.77,1.77,0,0,0,.58.19C66,48.19,66,48.33,66,48.46Z"/></svg>