<svg id="गधा" xmlns="http://www.w3.org/2000/svg" viewBox="0 0 150 160"><defs><style>.cls-1{fill:#fff;}.cls-2{fill:#6b4024;}.cls-3{fill:#bc722e;}.cls-4{fill:#322a28;}.cls-5{fill:#dd8c3a;}.cls-6{fill:#e0705f;}.cls-7{fill:#f3a243;}</style></defs><path class="cls-1" d="M123.37,89.51c0-.69,0-1.31-.08-1.9a27.94,27.94,0,0,0-2.07-9.09,21.52,21.52,0,0,0-5.91-8,22.57,22.57,0,0,0-4.71-3.1c-4.36-4.4-11.5-6.63-21.22-6.63H67.07a16.44,16.44,0,0,1-6-1.12,185.7,185.7,0,0,1-.92-20.32,33,33,0,0,0-1.42-10c2.5-4.94,4.64-12.88.54-15.43A4.43,4.43,0,0,0,57,13.31c-2.86,0-5.94,2.37-7.82,4.12a29.75,29.75,0,0,0-14.51-3.29,43.22,43.22,0,0,0-5.42.34,4.71,4.71,0,0,0-3.49,2.24,4.89,4.89,0,0,0-.67,1.88c-2.81-3-6.2-5.29-9-5.29a4.39,4.39,0,0,0-2.34.64c-1.42.89-2.93,3-2,8a28.33,28.33,0,0,0,3.68,9.4,15.45,15.45,0,0,0,4.25,4.71,18.34,18.34,0,0,0-1.27,6.67v6.07a44.23,44.23,0,0,0,.79,8.35L21.32,68.9a10.11,10.11,0,0,0,9.88,8.21l7.92,12.36c1.05,4.74,3.56,16.38,3.75,18.66L44.05,123v4.72a4.4,4.4,0,0,0,4.39,4.39H51.8a4.33,4.33,0,0,0,2.13-.55,4.27,4.27,0,0,0,2.12.55h3.36a4.4,4.4,0,0,0,4.4-4.39V123l0-2h0l-.31-16.66a161.61,161.61,0,0,0,18.76,1.81l1,16.9v4.65a4.4,4.4,0,0,0,4.39,4.39h4.69a4.41,4.41,0,0,0,4.08-2.75,4.4,4.4,0,0,0,4.07,2.75h4.69a4.4,4.4,0,0,0,4.39-4.39v-5l2.28-14.52a58.78,58.78,0,0,0,2.33-9.46,117.82,117.82,0,0,0,1.41-17.2h0a21.9,21.9,0,0,1,2.63,6.87c.11.46.2,1,.3,1.52a11,11,0,0,0,1.65,14.1l1.46,1.36,1.36-1.46A11,11,0,0,0,123.37,89.51Z"/><path class="cls-2" d="M58.19,39.37c0-24-20.46-23.92-28.74-22.91a2.79,2.79,0,0,0-2.27,3.73l2.55,7L40.35,72h22S58.19,69.46,58.19,39.37Z"/><path class="cls-3" d="M105.77,67.77A20.52,20.52,0,0,1,114,72.06a19.63,19.63,0,0,1,5.37,7.24,25.82,25.82,0,0,1,1.91,8.45,60.73,60.73,0,0,1-.1,8.43,59.32,59.32,0,0,0-1.12-8.25,24.12,24.12,0,0,0-2.89-7.5A16.5,16.5,0,0,0,111.8,75a16.21,16.21,0,0,0-6.93-2.41Z"/><path class="cls-4" d="M46,123H54.2a0,0,0,0,1,0,0v4.7a2.39,2.39,0,0,1-2.39,2.39H48.44A2.39,2.39,0,0,1,46,127.69V123A0,0,0,0,1,46,123Z"/><polygon class="cls-3" points="83.84 99.96 85.15 122.99 94.51 122.99 97.67 99.96 83.84 99.96"/><path class="cls-3" d="M44.87,108l1.18,15H54.2l-.32-23L41,88.56C41.54,91.16,44.63,105.25,44.87,108Z"/><path class="cls-5" d="M89.38,62.81H67.07c-11,0-17.51-9.77-17.51-9.77L31.24,73.47,47.82,99.33C50.3,103.21,53.63,123,53.63,123h8.14l-.35-19.27a1.44,1.44,0,0,1,1.66-1.47c5.39.85,22.17,3.19,31.23,1h0a1.91,1.91,0,0,1,2.35,1.61L98,123h9.36l2.41-15.33a56.05,56.05,0,0,0,2.3-9.29,115.3,115.3,0,0,0,1.4-17.9h0C113.48,67.16,102.69,62.81,89.38,62.81Z"/><path class="cls-4" d="M85.15,123h9.47a0,0,0,0,1,0,0v4.7a2.39,2.39,0,0,1-2.39,2.39H87.55a2.39,2.39,0,0,1-2.39-2.39V123A0,0,0,0,1,85.15,123Z"/><path class="cls-4" d="M53.66,123h8.15a0,0,0,0,1,0,0v4.7a2.39,2.39,0,0,1-2.39,2.39H56.05a2.39,2.39,0,0,1-2.39-2.39V123A0,0,0,0,1,53.66,123Z"/><path class="cls-4" d="M98,123h9.47a0,0,0,0,1,0,0v4.7a2.39,2.39,0,0,1-2.39,2.39h-4.68A2.39,2.39,0,0,1,98,127.69V123A0,0,0,0,1,98,123Z"/><path class="cls-2" d="M121,89.85h0a9,9,0,0,0,.45,12.67A9,9,0,0,0,121,89.85Z"/><path class="cls-5" d="M56,30.31c-3.31,5.32-6.84,6.09-9.56,4.4s-3.59-5.2-.28-10.52S55.53,14,58.25,15.65,59.27,25,56,30.31Z"/><path class="cls-6" d="M49.1,34.55A2.17,2.17,0,0,1,48,34.19c-.92-.57-2.05-2.17.65-6.51a21,21,0,0,1,6.83-6.94.85.85,0,0,1,1.28.79,21.73,21.73,0,0,1-3.21,9.19C52,33.16,50.39,34.55,49.1,34.55Z"/><path class="cls-5" d="M17,30.31c3.3,5.32,6.84,6.09,9.55,4.4s3.59-5.2.29-10.52S17.45,14,14.74,15.65,13.72,25,17,30.31Z"/><path class="cls-6" d="M23.88,34.55A2.21,2.21,0,0,0,25,34.19c.91-.57,2-2.17-.65-6.51a21.23,21.23,0,0,0-6.83-6.94.85.85,0,0,0-1.28.79,21.69,21.69,0,0,0,3.2,9.19C21,33.16,22.59,34.55,23.88,34.55Z"/><path class="cls-7" d="M36.49,26.56A16.19,16.19,0,0,0,20.31,42.74v6.08a42.79,42.79,0,0,0,.75,8l2.23,11.73a8.08,8.08,0,0,0,8,6.58H41.75a8.1,8.1,0,0,0,8-6.58L51.93,56.8a43.65,43.65,0,0,0,.75-8V42.74A16.19,16.19,0,0,0,36.49,26.56Z"/><path class="cls-6" d="M36.49,55.63c-6.38,0-11.84,2.7-14.4,6.59l1.2,6.31a8.08,8.08,0,0,0,8,6.58H41.75a8.1,8.1,0,0,0,8-6.58l1.2-6.31C48.34,58.33,42.87,55.63,36.49,55.63Z"/><circle class="cls-4" cx="27.67" cy="44.04" r="2.34"/><path class="cls-4" d="M47.66,44a2.34,2.34,0,1,1-2.34-2.34A2.34,2.34,0,0,1,47.66,44Z"/><circle class="cls-4" cx="31.75" cy="63.78" r="2.88"/><circle class="cls-4" cx="41.23" cy="63.78" r="2.88"/><path class="cls-6" d="M30.61,49.71C30.61,51,28.69,52,26.34,52s-4.27-1-4.27-2.25,1.91-2.25,4.27-2.25S30.61,48.47,30.61,49.71Z"/><path class="cls-6" d="M50.92,49.71C50.92,51,49,52,46.65,52s-4.27-1-4.27-2.25,1.91-2.25,4.27-2.25S50.92,48.47,50.92,49.71Z"/></svg>