<svg id="Layer_1" data-name="Layer 1" xmlns="http://www.w3.org/2000/svg" viewBox="0 0 150 160"><defs><style>.cls-1,.cls-5{fill:#fff;}.cls-1{stroke:#fff;stroke-miterlimit:10;stroke-width:5px;}.cls-2{fill:#683c13;}.cls-3{opacity:0.07;}.cls-4{fill:#e3313c;}.cls-5{opacity:0.22;}.cls-6{fill:#579832;}.cls-7{fill:#9dc430;}</style></defs><g id="फल"><path class="cls-1" d="M82.83,58.85s-5.82-26.19.4-37.42c0,0-7.58-3.34-16.46,3.61,0,0,6.44,28.12,5.68,33.88Z"/><path class="cls-1" d="M83.23,21.43a13.41,13.41,0,0,0-5.65-.77s-.74,11.77-.86,16C76.56,41.8,74,57.08,72.47,58.77v.15l10.38-.07S77,32.66,83.23,21.43Z"/><path class="cls-1" d="M126.72,88.41a51.72,51.72,0,0,1-103.44,0c0-19.22,5.4-30.33,21.32-37.67,19.11-8.81,23.31,2.6,32.66,2.6,11.39,0,21.45-10,33-2.06C122.28,59.54,126.72,73.58,126.72,88.41Z"/><path class="cls-1" d="M39.1,97.65a11.52,11.52,0,0,0,5.53-6.05,28.73,28.73,0,0,0,1.51-8c.36-4.48.45-9,1.43-13.42a16.44,16.44,0,0,1,4.65-8.91,19.44,19.44,0,0,1,7.94-4.06c-3.51-1.75-7.58-3.54-15.74.22-10.58,4.88-14.17,12.26-14.17,25A34.17,34.17,0,0,0,34.52,99,14.71,14.71,0,0,0,39.1,97.65Z"/><path class="cls-1" d="M110.24,51.28C103.92,47,98,48,92.15,49.81c.87.7,1.72,1.43,2.52,2.2,5.8,5.58,20,24.54,12.39,48.81C95,139.56,43.21,128.21,39.59,126l-.29-.19a51.7,51.7,0,0,0,87.42-37.4C126.72,73.58,122.28,59.54,110.24,51.28Z"/><path class="cls-1" d="M100.58,19.87s2.7,18.83-20,27.53C80.58,47.4,81.74,22.32,100.58,19.87Z"/><path class="cls-1" d="M80.63,47.38c22.65-8.71,20-27.51,20-27.51h-.16Z"/><path class="cls-2" d="M82.83,58.85s-5.82-26.19.4-37.42c0,0-7.58-3.34-16.46,3.61,0,0,6.44,28.12,5.68,33.88Z"/><path class="cls-3" d="M83.23,21.43a13.41,13.41,0,0,0-5.65-.77s-.74,11.77-.86,16C76.56,41.8,74,57.08,72.47,58.77v.15l10.38-.07S77,32.66,83.23,21.43Z"/><path class="cls-4" d="M126.72,88.41a51.72,51.72,0,0,1-103.44,0c0-19.22,5.4-30.33,21.32-37.67,19.11-8.81,23.31,2.6,32.66,2.6,11.39,0,21.45-10,33-2.06C122.28,59.54,126.72,73.58,126.72,88.41Z"/><path class="cls-5" d="M39.1,97.65a11.52,11.52,0,0,0,5.53-6.05,28.73,28.73,0,0,0,1.51-8c.36-4.48.45-9,1.43-13.42a16.44,16.44,0,0,1,4.65-8.91,19.44,19.44,0,0,1,7.94-4.06c-3.51-1.75-7.58-3.54-15.74.22-10.58,4.88-14.17,12.26-14.17,25A34.17,34.17,0,0,0,34.52,99,14.71,14.71,0,0,0,39.1,97.65Z"/><path class="cls-3" d="M110.24,51.28C103.92,47,98,48,92.15,49.81c.87.7,1.72,1.43,2.52,2.2,5.8,5.58,20,24.54,12.39,48.81C95,139.56,43.21,128.21,39.59,126l-.29-.19a51.7,51.7,0,0,0,87.42-37.4C126.72,73.58,122.28,59.54,110.24,51.28Z"/><path class="cls-6" d="M100.58,19.87s2.7,18.83-20,27.53C80.58,47.4,81.74,22.32,100.58,19.87Z"/><path class="cls-7" d="M80.63,47.38c22.65-8.71,20-27.51,20-27.51h-.16Z"/></g></svg>