<svg id="घड़ा" xmlns="http://www.w3.org/2000/svg" viewBox="0 0 150 160"><defs><style>.cls-1{fill:#fff;}.cls-2{fill:#ad5c1a;}.cls-2,.cls-3,.cls-4,.cls-5,.cls-6,.cls-7{fill-rule:evenodd;}.cls-3{fill:#874010;}.cls-4{fill:#db8f4c;}.cls-5{fill:#c2720f;}.cls-6{fill:#e09553;}.cls-7{fill:#e69e5f;}</style></defs><path class="cls-1" d="M122.88,60.77c-.08-.91-.19-1.87-.33-2.8a33.13,33.13,0,0,0-5.06-14.14,16.85,16.85,0,0,0-1.62-2A19.6,19.6,0,0,0,113,39.12l-.2-.17a17.46,17.46,0,0,0-7.95-3.7,27,27,0,0,0-5.45-.58l-1,0h-.37a29.76,29.76,0,0,0-4.88.47H93a18.65,18.65,0,0,0-2.08.36c.2-1.43.43-2.77.68-4s.42-2.3.51-3.05a1.34,1.34,0,0,1,.11-.38,3.8,3.8,0,0,0,.28-1.54c.09-2.09-1.89-3.6-5.89-4.5a168,168,0,0,0-32.18-3.26,60.59,60.59,0,0,0-9.76.62c-2.54.46-3.55,1.51-3.9,2.5l0,.05s-.08.36-.09.42c-.43,1.81.58,4,1.75,5.3,5.92,6.43,7.67,11.58,7.78,23.36C37.53,58.4,29.7,69.5,27.51,83.25h0l-.09.57s-.1.75-.13,1c-.05.44-.1.88-.13,1.29a52.06,52.06,0,0,0-.23,6.23v.92c0,.3,0,.6,0,.9l.34,4.92.17-.21a63.49,63.49,0,0,0,15.29,32.49,4.39,4.39,0,0,0-.55,2.57,5.21,5.21,0,0,0,4.12,4.56,100.18,100.18,0,0,0,23.24,2.72h0a111.14,111.14,0,0,0,24-2.71,5.18,5.18,0,0,0,4.11-4.39,4.45,4.45,0,0,0-.54-2.76A69.07,69.07,0,0,0,111.24,96C120.92,90,124.08,74.19,122.88,60.77ZM90,51.39c0-.9,0-2.3,0-4,.73-.21,1.53-.42,2.38-.63a32,32,0,0,1,5.69-.89,14.75,14.75,0,0,1,7.53,1.81c4,2.44,5.94,9.19,6.48,14.7q.09,1,.15,2l0,.67c0,.52,0,1,0,1.58,0,.3,0,.6,0,.91,0,.59,0,1.17,0,1.76l0,.59c0,.65-.09,1.29-.16,1.94l0,.32c-.1.83-.2,1.58-.32,2.28l0,.08a28.45,28.45,0,0,1-1.38,5.25l-.58-2.87-.11.15A44.06,44.06,0,0,0,90,51.39Z"/><path class="cls-2" d="M82.9,40.26a39.23,39.23,0,0,1,7.42-2.52,38.2,38.2,0,0,1,7.73-1.05,23.09,23.09,0,0,1,12.42,3.1c7,4.37,9.73,13.31,10.42,21.15,1.21,13.47-2.32,31.57-14.21,34.88a9,9,0,0,1-4.31.43l1-7.16a1.76,1.76,0,0,0,.89,0c8.68-2.48,10.79-16.42,9.79-26.89-.53-5.36-2.47-13.15-7.42-16.2a16.44,16.44,0,0,0-8.58-2.11,32.71,32.71,0,0,0-6.15.95,27.47,27.47,0,0,0-5.68,1.84Z"/><path class="cls-3" d="M111.68,81.78c2.47-5.58,3-13.26,2.42-19.63-.53-5.36-2.47-13.15-7.42-16.2a16.44,16.44,0,0,0-8.58-2.11,32.71,32.71,0,0,0-6.15.95A35.23,35.23,0,0,0,87.74,46V43.68c2.79-1.21,8.31-1.47,11.57-1.47,11.58.16,14,8.21,15.89,18.15a31.56,31.56,0,0,1-3.52,21.42Z"/><path class="cls-4" d="M109.1,40.16c-2.53-1.58-7.52-2-10.52-2a44.38,44.38,0,0,0-9.37,1.32c-1,.36-1.1-1.74,4.05-2.32,4.26-.47,6.84-.84,11.21.05a15.54,15.54,0,0,1,7,3.26A21.85,21.85,0,0,1,115.83,45a31.59,31.59,0,0,1,4.9,14.78c-1-3.84-1.79-13.68-11.63-19.57Z"/><path class="cls-2" d="M46.8,136.55a102.23,102.23,0,0,0,46.36,0c3.42-.79,3.52-5.37,0-5.37H46.8c-3.52,0-3.42,4.53,0,5.37Z"/><path class="cls-2" d="M42.65,22.8a4.55,4.55,0,0,0,1.26,3.52c6.68,7.26,8.31,13.1,8.31,25.89C19.92,70,24.5,109.29,45.7,131.6a115.14,115.14,0,0,0,48.72,0c17.89-21.67,24.47-60.71-6.42-79.08a110.89,110.89,0,0,1,1.69-21.41c.21-1,.36-2,.47-2.84.1-1.05.68-1.21.21-2.32-.32-.73-2.79-1.73-7.37-2.57-10.84-1.95-30.62-3.21-37.25-2-.73.15-2.89.73-3.1,1.42Z"/><path class="cls-5" d="M47.86,28.43c7.1,8,5.63,23.94,5.63,23.94,4.26.89,16.25,4.89,26.09-.64l2.16-20.31a99.43,99.43,0,0,1-14.94-.05c-8.53-.58-15.21-1.58-18.94-2.94Z"/><path class="cls-5" d="M39.7,66.73c-2.84,5.16-6.36,16.68-6.42,23a83.92,83.92,0,0,0,.95,11.16C37.18,120.45,54,133.18,74.9,128c25.15-6.15,27.89-77.5,3.1-70.71-3.36.95-15.73,2.89-24-1.42-3.68-2-12.36,7.26-14.31,10.84Z"/><path class="cls-6" d="M39.81,82.67C43,68.94,50.38,64.41,52.12,62.94a16.54,16.54,0,0,0,2.31-2.37c1.06-1.47-1.1-2.57-2.52-2.52-2.63.05-7.1,1.94-10.37,10.78-1.42,3.79-2.68,6.69-1.73,13.84Z"/><path class="cls-4" d="M53.33,31c2.73,5.21,2.89,14.84,2.84,21.79l1.42.31c-.21-7.57.26-17-1.31-21.31a13.8,13.8,0,0,0-3-.79Z"/><path class="cls-7" d="M45.07,21.38C53.28,20,73.69,21.22,86.21,24c5.63,1.26,5.74,3.52.63,4.57-3.63.74-9.2,1-16.52.42-5-.36-13.1-.78-18.89-1.94-4.94-.95-7.94-2.58-8.57-3.58s.47-1.79,2.21-2.1Z"/><path class="cls-3" d="M71.74,23.64c10.63,1.26,15.42,1.84,15.37,2.68s-6.84,1.63-15.42.9c-4.47-.37-12.94-.95-17.73-1.64-4.42-.57-9.52-2.2-8.1-2.89.31-.1,2.73,0,6.21-.05a176.88,176.88,0,0,1,19.67,1Z"/><path class="cls-5" d="M47.28,134.65a90.21,90.21,0,0,0,18.41,2.58,78.83,78.83,0,0,0,15.47-.52c2-.32,2-2-.68-1.64-10,1.32-23.31.74-33.2-2.1-2.05-.63-2.05,1.26,0,1.68Z"/><path class="cls-3" d="M28.92,91.46a20.35,20.35,0,0,1,7.94-5.63c3.63-1.21,8-.79,13.31,2.63,5,3.21,8.89,4.58,12.47,4.47s6.79-1.63,10.58-4.16c4-2.68,6.57-4.2,9.36-4.26s5.58,1.37,10,4.58A16.6,16.6,0,0,0,97,91.46a11.3,11.3,0,0,0,6.68.31,9.45,9.45,0,0,0,4.47-2.52,16.11,16.11,0,0,1,1.32-1.58c0,.89,0,1.79,0,2.68a2.55,2.55,0,0,1-.32.42,11.21,11.21,0,0,1-5.15,2.9,12.83,12.83,0,0,1-7.53-.32,17.54,17.54,0,0,1-4.73-2.58c-4.16-3-6.74-4.36-9.1-4.31s-4.85,1.47-8.63,4c-4,2.68-7.47,4.31-11.37,4.42s-7.94-1.32-13.26-4.69c-4.94-3.15-8.84-3.57-12.05-2.47S31.44,91.3,29,94c0-.85,0-1.69,0-2.58Zm.47-7.32c-.16,1-.26,2-.32,3,2.42-2.68,5-5.21,8.26-6.26s7.11-.68,12.05,2.48C54.7,86.78,58.8,88.14,62.64,88S70,86.3,74,83.62c3.78-2.47,6.2-4,8.63-4s4.94,1.31,9.1,4.31a17.54,17.54,0,0,0,4.73,2.58,13.3,13.3,0,0,0,7.53.37,11,11,0,0,0,5-2.84c-.11-.79-.21-1.58-.37-2.37a6.58,6.58,0,0,1-.58.74,9.45,9.45,0,0,1-4.47,2.52A11.3,11.3,0,0,1,97,84.62a15,15,0,0,1-4.37-2.37c-4.42-3.21-7.21-4.63-10-4.58s-5.36,1.58-9.36,4.26c-3.79,2.53-7,4.06-10.58,4.16s-7.42-1.21-12.47-4.47C44.81,78.2,40.49,77.83,36.86,79a19,19,0,0,0-7.47,5.15Z"/></svg>