<svg id="डाकिया" xmlns="http://www.w3.org/2000/svg" viewBox="0 0 150 160"><defs><style>.cls-1,.cls-30{fill:#f4beab;}.cls-1{stroke:#fff;stroke-miterlimit:10;stroke-width:5px;}.cls-2{fill:#e89c7c;}.cls-3{fill:#e38d6c;}.cls-4{fill:#efe9e4;}.cls-5{fill:#e2dede;}.cls-6{fill:#99764d;}.cls-7{fill:#89663f;}.cls-8{fill:#ad8b5e;}.cls-9{fill:#bfbfbf;}.cls-10{fill:#9f7b4f;}.cls-11{fill:#795633;}.cls-12{fill:#906b41;}.cls-13{fill:#dbd7d7;}.cls-14{fill:#4c4a48;}.cls-15{fill:#a3a3a3;}.cls-16{fill:#3e3d3b;}.cls-17{fill:#8f8f8f;}.cls-18{fill:#9b7a51;}.cls-19{fill:#c1a16f;}.cls-20{fill:#b5925f;}.cls-21{fill:#dd7d5c;}.cls-22{fill:#c4996a;}.cls-23{fill:#3e3d3f;}.cls-24{fill:#cc7a5e;}.cls-25{fill:#c26a4f;}.cls-26{fill:#515051;}.cls-27{fill:#df805f;}.cls-28{fill:#1b1723;}.cls-29{fill:#fff;}.cls-31{fill:#323133;}</style></defs><path class="cls-1" d="M117.59,95.08c.17-.18.35-.36.52-.55s.13-.15.2-.23.29-.33.44-.5l.19-.24.46-.59.12-.16c.19-.26.38-.52.55-.79a.86.86,0,0,0,.1-.16l.41-.64.15-.26c.11-.19.22-.38.32-.58s.09-.17.14-.26l.33-.66a1.3,1.3,0,0,1,.08-.17c.12-.28.24-.55.35-.83a1.34,1.34,0,0,0,.07-.18q.14-.33.24-.66a2.76,2.76,0,0,0,.08-.27c.07-.19.12-.38.17-.57s0-.18.08-.27.1-.43.14-.65l0-.16c0-.27.09-.54.12-.8,0-.06,0-.13,0-.19s0-.39,0-.59v-.25c0-.18,0-.35,0-.52s0-.16,0-.24-.05-.38-.08-.57,0-.08,0-.12v0a4.57,4.57,0,0,0-.16-.61h0a8.83,8.83,0,0,0-.48-1.2c-.06-.13-.14-.25-.2-.38s-.28-.5-.43-.74l-.28-.42-.47-.63c-.11-.13-.22-.27-.34-.4s-.34-.39-.52-.57-.13-.15-.2-.21-.1-.1-.15-.15-.38-.36-.58-.53l-.34-.31L118,75.7l-.28-.22c-.64-.48-1.28-.9-1.88-1.27l0,0-.94-3.27,0,0,.07,0,.17-.06,0,0,.06,0v0h0v0h0v-.19h0V70.4h0v0h0v0h0v0h0l0-.09h0l0-.09h0c0-.2-.12-.38-.17-.58-.1-.36-.2-.72-.31-1.08s-.19-.57-.29-.85-.25-.68-.38-1-.23-.53-.35-.8-.29-.63-.45-.94l-.39-.75c-.17-.29-.34-.59-.52-.87s-.16-.29-.25-.43h0l0-.07h0l0,0h0l0,0h0v0h0l0-.06h0v0h0l0,0h0l0,0h0l0,0v0h0v0h0v0h0v0l0,0h0l0,0h0v0h0v0h0l0,0h0l0,0h0l0,0h0l0,0h0v0h0l0,0h0l0,0h0l0-.06h0l0,0h0l0,0h0l0,0h0l0-.06h0c-.08-.12-.18-.22-.26-.34-.27-.35-.54-.69-.82-1l-.45-.52c-.3-.35-.62-.68-1-1l-.37-.38c-.46-.44-.92-.86-1.4-1.26l-.26-.21c-.4-.33-.81-.64-1.22-1l-.17-.12h0l0,0h0l0,0h0l0,0h0l0,0h0l-.05,0h0l0,0h0l0,0h-.19l0,0h0l-.06,0h0l-.14-.09c-.59-.4-1.18-.77-1.78-1.12l-.39-.22c-.51-.29-1-.57-1.54-.83l-.43-.22c-.6-.29-1.21-.57-1.82-.83L98.27,52l-1.53-.6-.45-.17c-.6-.21-1.19-.41-1.77-.59l-.36-.11c-.49-.15-1-.28-1.44-.41L92.28,50l-1.6-.39-.32-.07-1.26-.26-.23,0h0c-.91-.17-1.76-.31-2.49-.41h-.09l-.61-.08h0l-1.37-.14h0l-.46,0h0l-.32,0h0l-.2,0h-.09a4.12,4.12,0,0,0-.25-.47h0v0l.2-.2c.2-.25.38-.5.55-.76.06-.08.11-.18.16-.26s.22-.36.32-.54.1-.22.16-.33.16-.34.23-.51l.15-.38.18-.51.12-.4s0,0,0-.07h0l.06,0,.18.06a2,2,0,0,0,.33.09l.19,0,.16,0,.12,0a1.88,1.88,0,0,0,.33-.05l.23,0,.33-.13L87,44l.35-.23a1.67,1.67,0,0,0,.16-.12,4.87,4.87,0,0,0,.49-.43c1.72-1.8,2.63-5.2,1.15-6.14a2.89,2.89,0,0,0-1.35-.47h-.18a2.31,2.31,0,0,0-.46.05h-.06l-.48.14-.12,0a4.73,4.73,0,0,0-.45.23h0c.05-.31.14-1,.2-1.92,0-.42,0-.88,0-1.37,0-.32,0-.65,0-1s0-.74-.07-1.11-.08-.76-.14-1.13a9.69,9.69,0,0,0-.84-2.72l0,0a1.59,1.59,0,0,1,.13.16h0c.14-.45.24-.87.33-1.29a2.51,2.51,0,0,0,0-.27c.06-.32.11-.63.14-.92,0-.13,0-.25,0-.38s0-.5,0-.75,0-.26,0-.39,0-.45,0-.66a.81.81,0,0,1,0-.15h0c-.91-6.73-9.12-9-13-9.72h0l-.66-.11h-.13l-.36-.05-.42-.06h0l-.45-.05h0A7.44,7.44,0,0,0,67,16.84a35,35,0,0,0-2.1,8.05v0c-.06.34-.1.62-.13.84v0c0,.13,0,.22,0,.29v.1h0v0h0l0,0a6.8,6.8,0,0,0-1.29,1.58,7.85,7.85,0,0,0-.83,1.9,9.61,9.61,0,0,0-.33,1.68c0,.3,0,.62-.05,1a.43.43,0,0,1,0,.05,11.86,11.86,0,0,0,.19,2.14,16.76,16.76,0,0,0,.77,2.7h0a2.31,2.31,0,0,0-.46,0h-.18a2.89,2.89,0,0,0-1.35.47c-1.47.93-.57,4.34,1.16,6.13a3.29,3.29,0,0,0,.48.44,1.67,1.67,0,0,0,.16.12l.35.23.21.09a2.33,2.33,0,0,0,.33.14l.23,0a1.86,1.86,0,0,0,.34,0h.45c.78,3,2.15,5.35,4.48,6.27h0a.75.75,0,0,0-.07.12l0,.08-.07.13,0,0,0,.08v0l0,0s-.35.32-1.08.86l-.53.38c-.44.32-1,.69-1.63,1.1h0l-.59.37c-2.6,1.61-8.53,10.27-8.53,10.27-3.47,0-12.37-4.45-12.37-4.45l-.19-.93h0l-.55-2.72L43,56l3.33-6.71-11-4.94L26.74,62.42,37.36,67.3h0l2.27-4.56,0,0,0,.06a1.77,1.77,0,0,0,.19.23l0,0a1.59,1.59,0,0,0,.24.2l.07,0a2.69,2.69,0,0,0,.38.19l.1,0a3.45,3.45,0,0,0,.51.13h0a2.77,2.77,0,0,0,.3,0h0c-.13.27-.19.44-.19.44S50.3,72.62,56,72.5a10.17,10.17,0,0,0,2.22-.32l.11,0q.51-.14,1-.3l.33-.12.79-.31.41-.18.67-.31.16-.08.24-.13c.28-.14.54-.28.8-.43l.4-.23c.28-.16.56-.33.82-.5l.48-.31.66-.45.44-.31.43-.32.22-.15h0v0a.18.18,0,0,0,.07,0l.31-.24.14-.1.18-.15.17-.14.32-.26.13-.11.06,0,.08-.07.44-.38c2.25,3.23,4.42,16.64,5.23,22.06,0,.27.08.52.11.74l0,.13,0,.24c.11.75.17,1.19.17,1.19a4.2,4.2,0,0,0,.42.57,1.15,1.15,0,0,0,.14.17c.1.12.2.23.31.34l.18.17.3.26.07.06h0v.12h0v0c0,.38.06.77.1,1.16v.09h0a53.75,53.75,0,0,0,1.21,6.76h0l0,.09c.19.79.33,1.3.33,1.3L60.44,134.09a3.11,3.11,0,0,0,.45.77l-.39.17h0c-2.38.94-9.26,3.3-9.29,3.44A4.24,4.24,0,0,0,51.9,140h0l0,0,0,.05.14.18.16.19a1.06,1.06,0,0,0,.15.15,1.8,1.8,0,0,0,.19.2l.17.14a2.23,2.23,0,0,0,.24.19l.18.13.28.18.2.09.33.16.22.08.37.12.24,0,.42.08.27,0c.14,0,.28,0,.43,0h0l.56,0,.25,0,.79-.11h0l.68-.12.2,0,.43-.09.22,0,.34-.08.22-.06.29-.08.2-.06.25-.08.19-.06.23-.08.16-.06.22-.08.13,0,.33-.12.13-.05.18-.07.13,0,.15-.05.13,0,.15-.05.13,0,.14,0,.13,0,.14,0h.53l.53,0h1.54l0-2.94.24,0H66l.08,0h0l.72-.87L68,135.21l1-1.15,1-1.23.61-.75.26-.32.31-.38,2.19-2.74c.13-.18.28-.36.41-.53l.9-1.14.57-.74.82-1.07c.19-.25.39-.5.57-.75s.53-.68.78-1l.56-.75.74-1,.52-.71,1.26-1.72.54-.74.61-.86.52-.73.24-.34,2.08,1.07h0l14,7.18a2.55,2.55,0,0,0,.39-.13v.08c0,.11,0,.23,0,.35v.11c0,.16,0,.33-.05.52,0,0,0,.06,0,.09s0,.33-.07.5a.68.68,0,0,1,0,.14c0,.19-.06.39-.1.6h0c-.25,1.49-.63,3.22-.76,4.67a4.7,4.7,0,0,0,.23,2.17h0l0,0,0,.07a2.45,2.45,0,0,0,.18.33l0,.05a1.84,1.84,0,0,0,.21.25.08.08,0,0,0,0,0,1,1,0,0,0,.17.14h0l.14.08h0l.05,0h0c.28-.11.54-.22.79-.34l.23-.11.53-.27.13-.07.05,0a6.71,6.71,0,0,0,.79-.51l.12-.08a7.21,7.21,0,0,0,.64-.53l.08-.08a5.27,5.27,0,0,0,.51-.56l0-.06a4.38,4.38,0,0,0,.4-.59h0a4.14,4.14,0,0,0,.28-.61s0,0,0,0a4.92,4.92,0,0,0,.18-.59s0-.05,0-.08a3.7,3.7,0,0,0,.1-.58v-.07a5.78,5.78,0,0,0,0-.58v-.06a22.4,22.4,0,0,0-.23-2.46c0-.13,0-.26,0-.38a.92.92,0,0,0,0-.16c0-.13,0-.26,0-.39a.41.41,0,0,1,0-.11,2.56,2.56,0,0,1,0-.39.19.19,0,0,1,0-.07,2,2,0,0,1,.09-.35s0,0,0,0a.3.3,0,0,1,0-.1q.12-.33.21-.63l.06-.22c0-.18.09-.36.12-.52a.5.5,0,0,0,0-.12c0-.17,0-.33.07-.47s0,0,0-.06c0-.22,0-.43,0-.61h0s0-.06,0-.09a3,3,0,0,0,0-.36v0s0-.05,0-.08,0-.14,0-.19a0,0,0,0,1,0,0v0l0-.08h0l-1.13-.32-1.1-.31h0c.09-.37.13-.61.13-.61L88.83,106.59h0a2.12,2.12,0,0,1,.12-.2l1-1.71.16-.29c.31-.56.62-1.1.9-1.63l.12-.22c.29-.54.56-1.07.82-1.57l.06-.14c.25-.49.49-1,.71-1.43l.06-.14c.23-.47.43-.92.62-1.36l.09-.18c.18-.42.35-.83.51-1.22,0-.07.06-.14.08-.2.16-.38.3-.75.43-1.1,0-.07,0-.14.07-.21.13-.34.24-.67.35-1l.06-.19c.1-.32.2-.62.28-.91,0-.06,0-.12,0-.17.08-.29.15-.57.22-.83l0-.14c.07-.27.12-.52.17-.77a.36.36,0,0,0,0-.1c0-.25.09-.48.12-.7v-.07c0-.23.06-.44.08-.65v0c0-.2,0-.39,0-.57v0h0c0-.17,0-.33,0-.49v0c0-.15,0-.28,0-.41v0h0l0,0a6.7,6.7,0,0,0,.39.94,3.28,3.28,0,0,0,.72.88v0h0a.61.61,0,0,1,0,.12c0,.07.06.15.1.23l.17.36.12.25.34.61c0,.09.11.18.17.27s.12.21.19.31h0A17.25,17.25,0,0,0,104.94,98h0c.11.06.23.1.34.15a6,6,0,0,0,.58.25,6.45,6.45,0,0,0,.62.21c.18.06.36.13.55.18l.76.16c.15,0,.31.07.47.09a10.36,10.36,0,0,0,1.25.1h.22c.24,0,.47,0,.71,0l.26,0,.63-.11.22,0a8.36,8.36,0,0,0,.81-.25l.18-.06c.22-.08.43-.17.65-.27l.26-.12.62-.32.19-.11q.4-.22.78-.48l.18-.13c.21-.14.41-.28.6-.43l.24-.19c.2-.16.4-.32.59-.49l.12-.1,0,0c.23-.2.45-.42.68-.64ZM98.77,78.44c-.33.65-.65,1.25-1,1.81-.59-.27-1.37-.63-2.3-1.12,0-.06,0-.12,0-.18-.07-.43-.15-.85-.23-1.28,0-.18-.07-.36-.1-.54S95,76.5,95,76.18s-.08-.42-.13-.63l-.18-.86c0-.22-.09-.43-.14-.65l-.18-.83-.15-.65c-.06-.27-.12-.54-.19-.8l-.15-.65-.18-.77-.15-.63c-.06-.25-.12-.49-.19-.73s-.09-.4-.14-.59l0-.08.14.09.48.29.4.25.52.32.4.24.72.45.28.17,1,.63.26.16.74.47.34.22.63.39.35.23.54.36.33.22.47.31.18.13A40.38,40.38,0,0,1,98.77,78.44Zm9.73-8.79h0l-.1,0-.26-.1-.41-.16-.21-.07-.31-.11-.6-.19-.28-.09-.75-.2-.1,0-.83-.18-.17,0-.59-.09-.21,0a4.73,4.73,0,0,0-.52,0h-.3l-.46,0s-.1.49-.32,1.29l-.24-.15-.59-.36-.42-.25-.64-.37-.45-.26L99,67.82l-.48-.26-.74-.38-.46-.24-.87-.41-.36-.18-1.24-.53-.22-.09c-.34-.13-.68-.27-1-.38l-.43-.14c-.26-.09-.52-.18-.79-.25l-.15,0c-.07-.28-.14-.53-.21-.78L92,64c-.07-.26-.13-.51-.2-.73l0-.11-.16-.6,0-.05-.06-.22-.06-.22,0-.06,0-.17h0l0-.13h0v0h0v0h0c7,0,14.07,5.36,17.18,8ZM96.15,83.79h0l0-.27.11,0Z"/><path class="cls-2" d="M80.9,45.82s1.39,7-1.2,10.66-8.44-.55-8.44-.55S68.75,49.71,70,48,80.9,45.82,80.9,45.82"/><path class="cls-3" d="M80.09,50.18a16.19,16.19,0,0,1-4.56,6.37h0a10.2,10.2,0,0,1-4.48-5h0c.69.05,1.35.08,2,.08a15,15,0,0,0,7-1.48"/><polyline class="cls-4" points="26.74 62.42 37.36 67.3 37.37 67.3 46.34 49.25 35.39 44.3 26.74 62.42"/><path class="cls-5" d="M35.39,44.31s1.68,22.64,2,23h0l9-18-11-4.94"/><path class="cls-6" d="M91.29,67.18s9.28,5.57,10.82,6.93,3-2.54,3-2.54S97.29,66,91.48,64.71s-.19,2.47-.19,2.47"/><path class="cls-7" d="M92.27,64.91A42.07,42.07,0,0,1,102,69.58c-.21.81-.53,2-1,3.24h0c0,.13-.09.27-.14.41-2-1.36-5.58-3.59-7.78-4.93l-.06-.24h0l0-.06h0c-.29-1.15-.57-2.19-.81-3.09"/><path class="cls-8" d="M112.31,72.44s8.41,3.21,10.33,9.34-5.75,17.37-13.11,17.31-12.36-8.23-12.61-10.2,15.39-16.45,15.39-16.45"/><path class="cls-9" d="M116.74,95.89a11.19,11.19,0,0,1-7.15,3.2h0a11.19,11.19,0,0,0,7.15-3.2m3-18.67a11.22,11.22,0,0,1,2.92,4.56,4.28,4.28,0,0,1,.16.64,4.28,4.28,0,0,0-.16-.64,11.22,11.22,0,0,0-2.92-4.56"/><path class="cls-10" d="M115.77,74.19a20.24,20.24,0,0,1,4,3,11.22,11.22,0,0,1,2.92,4.56,4.28,4.28,0,0,1,.16.64c.8,4-2,9.88-6.06,13.47a11.19,11.19,0,0,1-7.15,3.2h-.11A10.75,10.75,0,0,1,104.91,98c.9.09,1.93.15,3,.15,2.89,0,5.79-.5,5.86-2.47.12-3.91-12.06-3-15.46-3.81a12.44,12.44,0,0,1-1.14-2.15,2.52,2.52,0,0,0,.25.21h0a9.26,9.26,0,0,0,5.47,1.54c3.19,0,6.64-1.23,8.22-4.27.37-.71.72-1.4,1-2.08h0a31.6,31.6,0,0,0,2.13-5.7,4.74,4.74,0,0,0,2-1.94h0a3.5,3.5,0,0,0,.28-.67l-.75-2.58"/><path class="cls-6" d="M102.36,68.3a47.71,47.71,0,0,1-3.59,10.14c-2.41,4.7-4.08,6.92-2.35,10.32s11.63,4.21,14.66-1.61,4.2-10.2,3.34-13.1S105.51,68,102.36,68.3"/><path class="cls-9" d="M102.82,68.27a17.16,17.16,0,0,1,5.64,1.36,17.16,17.16,0,0,0-5.64-1.36,3.33,3.33,0,0,0-.46,0s-.1.48-.31,1.28h0c.22-.8.32-1.29.32-1.29l.46,0"/><path class="cls-11" d="M102,69.58h0c-.22.81-.54,2-1,3.25h0c.43-1.29.75-2.43,1-3.24"/><path class="cls-9" d="M108.5,69.65h0m0,0h0m0,0h0"/><path class="cls-12" d="M112.11,85.07c-.31.68-.66,1.37-1,2.08-1.58,3-5,4.27-8.22,4.27a9.26,9.26,0,0,1-5.47-1.54h0a9.26,9.26,0,0,0,5.47,1.54c3.19,0,6.64-1.23,8.22-4.27.37-.71.72-1.4,1-2.08m0,0h0"/><path class="cls-7" d="M102.82,68.27a17.16,17.16,0,0,1,5.64,1.36h.07c1,.89,1.62,1.48,1.62,1.48h0a5.47,5.47,0,0,0-.8.4h0a2.74,2.74,0,0,0-1.06,1,16.39,16.39,0,0,0-.68,3.77l.86.43-.25.62a3.88,3.88,0,0,0,.35,1.12,2.88,2.88,0,0,0,2.76,1.69,3.62,3.62,0,0,0,.46,0l.45-.07a7,7,0,0,0,2-.67,31.6,31.6,0,0,1-2.13,5.7h0c-.31.68-.66,1.37-1,2.08-1.58,3-5,4.27-8.22,4.27a9.26,9.26,0,0,1-5.47-1.54,5.53,5.53,0,0,0,.69,0c5.14,0,6.53-6.36,6.63-11.11a5.9,5.9,0,0,0-3.63-6c.43-1.3.75-2.44,1-3.25h0c.21-.8.31-1.28.31-1.28a3.33,3.33,0,0,1,.46,0"/><path class="cls-2" d="M114.66,70.34l1.86,6.43s-.62,2.59-4.27,3.27a3.16,3.16,0,0,1-4-2.72l.25-.62-.86-.43a16.39,16.39,0,0,1,.68-3.77,4.27,4.27,0,0,1,1.85-1.36l4.51-.8"/><path class="cls-11" d="M108.48,76.7l-.25.62a3.88,3.88,0,0,0,.35,1.12,3.88,3.88,0,0,1-.35-1.12l.25-.62h0m1.67-5.56h0a5.47,5.47,0,0,0-.8.4h0a6.61,6.61,0,0,1,.79-.4h0"/><path class="cls-12" d="M116.24,77.43a4.74,4.74,0,0,1-2,1.94h0a4.89,4.89,0,0,0,2-1.93h0"/><polyline class="cls-7" points="114.25 79.36 114.25 79.37 114.25 79.37 114.25 79.36 114.25 79.36"/><path class="cls-11" d="M114.24,79.37h0a7,7,0,0,1-2,.67l-.45.07.45-.07a7,7,0,0,0,2-.67"/><path class="cls-3" d="M114.83,70.92l.28,1a12.63,12.63,0,0,1-1.87.62c-1.73.43-.49,6.18-.06,6.74a.35.35,0,0,0,.28.11,4.81,4.81,0,0,0,2.78-1.91,4.89,4.89,0,0,1-2,1.93h0a7,7,0,0,1-2,.67l-.45.07a3.62,3.62,0,0,1-.46,0,2.88,2.88,0,0,1-2.76-1.69,3.88,3.88,0,0,1-.35-1.12l.25-.62h0l-.86-.43s.11-1.35.32-2.48c1.4,0,3.65-.14,3.82-.61s-1.32-1.17-2.4-1.64a6.61,6.61,0,0,1,.79-.4,13.43,13.43,0,0,0,2,.15,9,9,0,0,0,2.7-.37"/><path class="cls-2" d="M44.36,60.26l-.74-3.65s-2-2.17-2.35-2.47a14,14,0,0,0-2.91-.81,1.43,1.43,0,0,0,.13,1.73c.74.81,2.59,3.47,2.34,4.39l-1.36,2.91s.31,1.48,2.54,1.42,2.35-3.52,2.35-3.52"/><path class="cls-13" d="M38.17,53.78a1.33,1.33,0,0,0,.31,1.28,14.55,14.55,0,0,1,1.79,2.58,15.14,15.14,0,0,0-1.78-2.58,1.31,1.31,0,0,1-.32-1.28m.19-.45h0l.92.19-.92-.19"/><polyline class="cls-9" points="44.17 59.33 44.36 60.26 44.36 60.26 44.36 60.26 44.17 59.33 44.17 59.33"/><path class="cls-13" d="M40.63,59.9l-1.16,2.46a2.5,2.5,0,0,0,.09.24,1.06,1.06,0,0,1-.09-.24l1.16-2.46"/><path class="cls-9" d="M41.24,63.73l.34,0h0a1.76,1.76,0,0,1-.34,0"/><path class="cls-3" d="M38.36,53.33l.92.19a7.18,7.18,0,0,1,2,.62s-.85.3-1,1,1.81,1.95,1.44,3.25-1.35,2.88-.84,3.9c.06.11.13.16.2.16.55,0,1.61-2.52,3.09-3.07l.19.93h0a4.61,4.61,0,0,0-.94.76h0a3.61,3.61,0,0,0-.33.35h0l-.12.14h0a10,10,0,0,0-1.37,2.24l-.34,0a2.09,2.09,0,0,1-1.68-1.13,2.5,2.5,0,0,1-.09-.24l1.16-2.46.21-.45a3.17,3.17,0,0,0-.57-1.81,15.14,15.14,0,0,0-1.78-2.58,1.31,1.31,0,0,1-.32-1.28,1.82,1.82,0,0,1,.19-.45"/><path class="cls-14" d="M65.75,136.44l-.06,3.86a5.36,5.36,0,0,1-2.07.09c-1.67-.09-2.38,1.09-6.83,1.64a4.94,4.94,0,0,1-5.63-3.55c0-.16,9.09-3.25,10-3.74s4.17-.59,4.57,1.7"/><path class="cls-14" d="M101.25,120.3l2.84.8a5.12,5.12,0,0,1-.37,3.65c-.93,2.35,2.84,7.17-4.82,10.2,0,0-1.36-.43-1.12-3.21s1.43-6.68.87-7.73,2.6-3.71,2.6-3.71"/><path class="cls-15" d="M51.92,140.06a4.77,4.77,0,0,0,4,2,6.15,6.15,0,0,0,.84-.06c4.28-.53,5.1-1.64,6.65-1.64h.18l.86,0a3.5,3.5,0,0,0,1.21-.12h0a3.5,3.5,0,0,1-1.21.12l-.86,0h-.18c-1.55,0-2.37,1.11-6.65,1.64a6.38,6.38,0,0,1-.84.06,4.77,4.77,0,0,1-4-2"/><path class="cls-16" d="M60.89,134.87c1.25,1.65,3.86,2.3,4.85,2.49l0,2.94a3.5,3.5,0,0,1-1.21.12l-.86,0h-.18c-1.55,0-2.37,1.11-6.65,1.64a6.15,6.15,0,0,1-.84.06,4.77,4.77,0,0,1-4-2l0,0a7.56,7.56,0,0,0,2.82.5A16.08,16.08,0,0,0,62,138.39c.27-.21-1.62-1.94-2.71-2.9.7-.26,1.27-.47,1.62-.62"/><path class="cls-9" d="M98.79,124.69h0a11.57,11.57,0,0,1-.25,2.38h0a12.19,12.19,0,0,0,.24-2.38m5.3-3.59a3.44,3.44,0,0,1,.15,1.59,3.54,3.54,0,0,0-.15-1.59h0m-2.23-.63h0l1.29.37-1.29-.37"/><path class="cls-15" d="M98,133.91a1.68,1.68,0,0,0,.9,1,12.91,12.91,0,0,0,1.7-.8,12.91,12.91,0,0,1-1.7.8,1.68,1.68,0,0,1-.9-1h0"/><path class="cls-16" d="M101.86,120.47l1.29.37.94.26a3.44,3.44,0,0,1,.15,1.59,7.62,7.62,0,0,1-.52,2.06c-.85,2.15,2.24,6.38-3.12,9.4a12.91,12.91,0,0,1-1.7.8,1.68,1.68,0,0,1-.9-1c2.07-.78,4.09-2.91,4.23-5,.11-1.53-1.77-1.86-3.41-1.86h-.27a12.19,12.19,0,0,0,.24-2.38c2-.75,2.79-3.1,3.07-4.22"/><path class="cls-6" d="M87.52,105.27,102,119.86s-.62,4.21-3.59,5l-18.3-9.4,7.42-10.14"/><polyline class="cls-9" points="82.33 116.56 84.41 117.63 84.41 117.63 82.33 116.56 82.33 116.56"/><path class="cls-7" d="M88.83,106.59,102,119.86a9,9,0,0,1-1,2.77l-12.79-10.5s-2.31,3.3-3.82,5.5l-2.08-1.07c2.63-3.75,4.77-7,6.5-10"/><path class="cls-8" d="M95.68,86.47s5.69,8.91-29.56,51c0,0-4.57-.62-5.68-3.34l16.32-32.16s-2.6-9.52-1.36-12.86,20.28-2.6,20.28-2.6"/><path class="cls-9" d="M82.33,116.56c-3.17,4.51-7,9.66-11.8,15.52h0c4.75-5.86,8.63-11,11.8-15.52h0M75.09,92.37v0h0M96,87.85h0c.17,2.25-.57,7.64-7.17,18.74h0c6.6-11.1,7.34-16.49,7.17-18.74"/><path class="cls-15" d="M70.53,132.08q-2.09,2.58-4.4,5.35h0q2.32-2.77,4.41-5.35h0"/><polyline class="cls-7" points="88.83 106.59 88.83 106.59 88.83 106.59 88.83 106.59 88.83 106.59"/><polyline class="cls-17" points="82.33 116.56 82.33 116.56 82.33 116.56 82.33 116.56 82.33 116.56"/><path class="cls-11" d="M88.83,106.59h0c-1.73,2.92-3.87,6.22-6.5,10h0c2.63-3.75,4.77-7.06,6.5-10"/><path class="cls-10" d="M96,87.85c.17,2.25-.57,7.64-7.17,18.74h0c-1.73,2.91-3.87,6.22-6.5,10h0c-3.17,4.51-7,9.66-11.8,15.52q-2.09,2.58-4.41,5.35a11.06,11.06,0,0,1-4-1.43c7.14-10.12,28.9-41.46,25.59-42.11a8,8,0,0,0-1.52-.14,10.36,10.36,0,0,0-5.75,1.94s-2.41,3.86-3,5a8,8,0,0,1-.76,1.2c0-.19-.17-.65-.33-1.3,3.14-3.61.85-5.71-1.22-6.76,0-.43-.08-.86-.1-1.28v-.13A8.29,8.29,0,0,0,80,94h.19l1.49-4.21L84.8,93A29.44,29.44,0,0,0,96,87.85"/><path class="cls-18" d="M76.76,101.93a11.25,11.25,0,0,0,1.2-1.4c.37-.49.7-1,1-1.51a20.11,20.11,0,0,0,1.6-3.26l.09-.25-.15-.09a9.65,9.65,0,0,0-1.1-.6,11,11,0,0,0,.75,1l-.06-.34a20.14,20.14,0,0,0-2,3.05c-.28.53-.54,1.08-.78,1.64A12.4,12.4,0,0,0,76.76,101.93Z"/><path class="cls-19" d="M41.39,64.21S50.3,72.62,56,72.5s12.12-6.06,12.12-6.06C71,70.52,73.67,90.8,73.67,90.8,75.89,94.26,80.22,94,80.22,94l1.49-4.21L84.8,93a29.63,29.63,0,0,0,11.38-5.32,20,20,0,0,0-.06-4.2c-.13-1.35-.34-2.83-.6-4.38-1.38-8-4.17-17.51-4.17-17.51,9.28,0,18.8,9.52,18.8,9.52a9.21,9.21,0,0,0,5.07-.37C110.64,49.5,83.07,48.51,83.07,48.51a3.91,3.91,0,0,0-1.81-2c-.57,2.51-2.05,7-5.73,10a10.32,10.32,0,0,1-5-6.69,5.87,5.87,0,0,0-1.13,1.36,3,3,0,0,0-.26.51s-.35.32-1.08.86-1.54,1.11-2.75,1.85c-2.6,1.61-8.53,10.27-8.53,10.27-3.47,0-12.37-4.45-12.37-4.45a8.8,8.8,0,0,0-3,3.95"/><path class="cls-9" d="M91.42,61.84c.13.44.44,1.55.85,3.07h0c-.41-1.52-.72-2.63-.85-3.07m19.9,0h0m0,0h0m0,0h0m0-.06h0m-19.85,0,0,.13,0-.13m0,0v0m0,0h0m0,0v0m0,0h0m0,0h0m0,0h0m0,0h0m0,0h0m14-5.73h0m-.06,0h0m0,0h0m0,0h0m0,0h0m-.06,0h0m0,0h0m0,0h0m0,0h0m0,0h0m0,0h0m0,0h0m0,0h0m0,0h0m0,0,0,0,0,0m0,0h0m-.06-.05.06,0-.06,0M88.87,49.25h0a42.28,42.28,0,0,1,15.89,6.23,42.28,42.28,0,0,0-15.89-6.23"/><path class="cls-11" d="M92.27,64.91h0c.24.9.52,1.94.81,3.09-.29-1.15-.57-2.19-.81-3.09"/><path class="cls-9" d="M112,62.78a23.83,23.83,0,0,1,3.11,7.31A23.83,23.83,0,0,0,112,62.78m0-.07,0,.07,0-.07m0,0,0,0,0,0m0,0,0,0,0,0m0,0v0m0-.06,0,.06,0-.06m0,0v0m0,0,0,0,0,0m0,0,0,0,0,0m0,0,0,0,0,0m0,0h0m0,0h0m0,0v0m0,0v0m0,0h0m0,0h0m0,0h0m0,0h0m0,0h0m0,0h0m0,0h0m0,0h0m0,0h0m0,0h0m0,0h0m0,0h0m0-.07h0"/><path class="cls-11" d="M93.1,68.06h0m0-.06,0,.06,0-.06"/><path class="cls-9" d="M96.12,83.51h0l0,.28h0l0-.27h0m19.09-12.79h0m0,0h0m0-.06v0m0,0v0m0,0v0m0,0v0m0,0v0m0,0v0m0,0v0m0,0v0m0,0v0m0-.09,0,.09,0-.09m0-.09,0,.09,0-.09"/><path class="cls-7" d="M96.15,83.78a19.22,19.22,0,0,1,0,3.93,19.12,19.12,0,0,0,0-3.92h0"/><path class="cls-9" d="M73.32,88.39h0c.05.34.1.65.14.92,0-.27-.09-.58-.14-.92"/><path class="cls-20" d="M88.74,79.42a11.55,11.55,0,0,1-7.36,7.73c.12.89.23,1.78.33,2.66-.22-.84-.44-1.69-.64-2.54a23.21,23.21,0,0,1-7.66,1.12h-.09c.05.34.1.65.14.92.14.94.21,1.49.21,1.49A7.66,7.66,0,0,0,80,94h.19l1.49-4.21L84.8,93a29.63,29.63,0,0,0,11.38-5.32h0a19.12,19.12,0,0,0,0-3.92l0-.28h0a81.78,81.78,0,0,1-7.38-4.09m.13-30.17a33.54,33.54,0,0,0-.83,11c.29,3.14,2,9.42,1.44,15.24a58.52,58.52,0,0,0,6,3.6c-.64-3.73-1.59-7.79-2.42-11.06h0l0-.06h0c-.29-1.15-.57-2.19-.81-3.09h0c-.41-1.52-.72-2.63-.85-3.07h0l0-.13h0v0h0v0h0L89.44,56s20.16,1,23.31,15.25a6.72,6.72,0,0,0,2.47-.5h0v0h0v0h0v-.19h0V70.4h0v0h0v0h0v0h0l0-.09h0l0-.09h0A23.83,23.83,0,0,0,112,62.78h0l0-.07h0l0,0h0l0,0h0v0h0l0-.06h0v0h0l0,0h0l0,0h0l0,0v0h0v0h0v0h0v0l0,0h0l0,0h0v0h0v0h0l0,0h0l0,0h0l0,0h0l0,0h0v0h0l0,0h0l0,0h0l0-.06h0l0,0h0l0,0h0l0,0h0l0-.06h0a25.83,25.83,0,0,0-5.9-5.82h0l0,0h0l0,0h0l0,0h0l0,0h0l-.05,0h0l0,0h0l0,0h-.19l0,0h0l-.06,0h0a42.28,42.28,0,0,0-15.89-6.23"/><path class="cls-9" d="M83.07,48.51s1.23,0,3.22.32c-2-.28-3.22-.32-3.22-.32h0"/><path class="cls-20" d="M83.07,48.51s1.23,0,3.22.32c.35,0,.71.1,1.1.16.23,3.3-.67,9-8.8,12.13a18.9,18.9,0,0,1-1.81.59q-.59-2.6-1.26-5.16h0l4.57,2.59c2.67-2.75,3-7.29,3-9.43,0-.74,0-1.2,0-1.2"/><path class="cls-9" d="M67.49,53c-.45.32-1,.69-1.64,1.1h0c.64-.41,1.19-.78,1.64-1.1"/><path class="cls-20" d="M75.52,56.55a6.61,6.61,0,0,0-2.14,2.51c.64,1,1.31,2,2,2.95.27,0,.55-.1.84-.16-.26-1.76-.5-3.53-.7-5.3m-7.51-4-.52.38c-.45.32-1,.69-1.64,1.1.25,1.6,1.29,6.2,5.27,7.64A27.06,27.06,0,0,1,68,52.59"/><path class="cls-9" d="M66.2,68a30,30,0,0,1-4.5,2.84A29.54,29.54,0,0,0,66.19,68h0m1.39-1.12-.86.71.86-.71"/><polyline class="cls-17" points="44.36 60.26 44.36 60.26 44.36 60.26 44.36 60.26 44.36 60.26"/><path class="cls-21" d="M43.07,61.39l-.12.14h0l.12-.14m0,0h0m.33-.35h0m1-.77a4.61,4.61,0,0,0-.94.76,4.61,4.61,0,0,1,.94-.76h0"/><path class="cls-20" d="M44.36,60.26s8.9,4.45,12.37,4.45h0a6.09,6.09,0,0,0,2.89.74c4,0,7-4.14,7-4.14l1.49,5.13,0,0-.49.43-.86.71-.52.39v0a30,30,0,0,1-4.5,2.84A15.19,15.19,0,0,1,57,72.41c-.29-1.28-1.51-3.43-6.08-5.35a20.42,20.42,0,0,1-8-5.53l.12-.14h0a3.61,3.61,0,0,1,.33-.35h0a4.61,4.61,0,0,1,.94-.76h0"/><path class="cls-18" d="M81.71,89.81c-.32-2.81-.73-5.6-1.17-8.38s-.93-5.57-1.44-8.34l-.8-4.15c-.28-1.38-.55-2.77-.85-4.15-.59-2.76-1.21-5.51-1.93-8.24.32,2.81.73,5.6,1.17,8.38.21,1.4.46,2.79.69,4.18l.75,4.16c.52,2.77,1.06,5.54,1.65,8.3s1.21,5.51,1.93,8.24"/><path class="cls-8" d="M89.31,63,79.85,65S86.28,72.75,89.31,63Z"/><path class="cls-8" d="M75.28,65.7l-5.69,1.42S74.16,72.31,75.28,65.7Z"/><path class="cls-6" d="M68,52.59c.53,4.15,4.1,19.16,28.11,30.92l1.41.68a6.29,6.29,0,0,0,1.55-3.4,37.2,37.2,0,0,1-3.56-1.66c-6.36-3.28-19.59-11.76-26.17-27.91a3,3,0,0,0-.26.51s-.35.32-1.08.86"/><path class="cls-22" d="M111.33,75.9a6.45,6.45,0,0,0-1.47.24,6.06,6.06,0,0,0-1.38.56,5.58,5.58,0,0,0,1.47-.24A6.06,6.06,0,0,0,111.33,75.9Z"/><path class="cls-22" d="M111.33,74.79A3.62,3.62,0,0,0,111.1,76a3.69,3.69,0,0,0,.1,1.19,4,4,0,0,0,.23-1.17A4.32,4.32,0,0,0,111.33,74.79Z"/><path class="cls-8" d="M75.53,56.55l4.57,2.59c3.59-3.71,3-10.63,3-10.63a3.91,3.91,0,0,0-1.81-2c-.57,2.51-2.05,7-5.73,10"/><path class="cls-8" d="M72.68,60.63a7.67,7.67,0,0,1,2.85-4.08,10.32,10.32,0,0,1-5-6.69,5.2,5.2,0,0,0-1.39,1.87c-.37,7.54,3.59,8.9,3.59,8.9"/><path class="cls-10" d="M82.82,48a4.12,4.12,0,0,1,.25.47s0,.46,0,1.2c0,2.14-.34,6.68-3,9.43l-4.57-2.59a16.19,16.19,0,0,0,4.56-6.37A9.37,9.37,0,0,0,82.82,48"/><path class="cls-10" d="M69.36,51.2a6,6,0,0,0,1.69.38,10.2,10.2,0,0,0,4.48,5,7.67,7.67,0,0,0-2.85,4.08s-3.61-1.24-3.61-7.93c0-.31,0-.64,0-1a3.84,3.84,0,0,1,.27-.53"/><path class="cls-23" d="M62.43,34.56a18,18,0,0,0,1.84,5.1c2.11,4.07,2.4-.16,2.26-4.4a54.83,54.83,0,0,0-.48-6,29.53,29.53,0,0,1-1.14-3.11,6.21,6.21,0,0,0-1.47,1.73,9.47,9.47,0,0,0-1,6.73"/><path class="cls-2" d="M83.91,43.37c1.43,1.49,3,1,4.12-.2,1.72-1.8,2.63-5.2,1.15-6.14a2.89,2.89,0,0,0-1.35-.47c-1.8-.13-3.09,1.7-3.09,1.7s-4.37,1.4-.83,5.11"/><path class="cls-24" d="M84.41,41.64l.94-1.09a9.92,9.92,0,0,1,1-1,4.75,4.75,0,0,1,1.14-.69,3.79,3.79,0,0,1,1.37-.22,2.3,2.3,0,0,0-1.49-.22,3.2,3.2,0,0,0-1.38.68,4.31,4.31,0,0,0-1,1.14,4,4,0,0,0-.58,1.36"/><path class="cls-3" d="M88.42,38.7a3.66,3.66,0,0,0-.94.2,4.75,4.75,0,0,0-1.14.69,8.74,8.74,0,0,0-.93.9c0,.14,0,.29,0,.43V41h0a14.43,14.43,0,0,1-.5,3.11,2.2,2.2,0,0,0,.92.21A3.21,3.21,0,0,0,88,43.17a3,3,0,0,1-1,.19,1.66,1.66,0,0,1-1.45-.73c2.85-.11,3.67-3.29,3.67-3.29a.82.82,0,0,0-.81-.64m-.77-2.15a3,3,0,0,0-1.57.48l0,.19c-.42.25-.59,1-.66,1.82,0,.22,0,.44,0,.65a4.25,4.25,0,0,1,.57-.55l.09-.07a4.11,4.11,0,0,1,1.76-2.51h-.18"/><path class="cls-25" d="M88.26,38.69h.16a3.66,3.66,0,0,0-.94.2,4.75,4.75,0,0,0-1.14.69,8.74,8.74,0,0,0-.93.9v-.8a4.25,4.25,0,0,1,.57-.55l.09-.07a3,3,0,0,0-.07.32,3.3,3.3,0,0,1,.33-.16h0a5.21,5.21,0,0,1,1.93-.54"/><path class="cls-2" d="M66.45,44c-1.43,1.49-3,1-4.11-.21-1.73-1.79-2.63-5.2-1.16-6.13a2.89,2.89,0,0,1,1.35-.47c1.81-.13,3.1,1.7,3.1,1.7s4.36,1.4.82,5.11"/><path class="cls-24" d="M66,42.3a4.71,4.71,0,0,0-1.57-2.5A3.24,3.24,0,0,0,63,39.12a2.31,2.31,0,0,0-1.49.21,4,4,0,0,1,1.37.23,4.75,4.75,0,0,1,1.14.69,9,9,0,0,1,1,1c.32.35.63.71.95,1.09"/><path class="cls-3" d="M64.58,43.56a1.74,1.74,0,0,1-1.23.46,2.77,2.77,0,0,1-1-.2A3.19,3.19,0,0,0,64.56,45a1.83,1.83,0,0,0,.33,0c-.12-.45-.22-.9-.31-1.37m-2.64-4.2a.82.82,0,0,0-.81.63s.77,3,3.39,3.27c0-.14,0-.29-.07-.44-.14-.8-.24-1.63-.31-2.47l-.12-.1a4.75,4.75,0,0,0-1.14-.69,3.49,3.49,0,0,0-.94-.2m.77-2.15h-.18A4.08,4.08,0,0,1,64.05,39c0-.49,0-1,0-1.48a3.09,3.09,0,0,0-.81-.27,2.44,2.44,0,0,0-.48,0"/><path class="cls-25" d="M62.1,39.35a5.21,5.21,0,0,1,1.93.54h0l.07,0,0,.43-.12-.1a4.75,4.75,0,0,0-1.14-.69,3.49,3.49,0,0,0-.94-.2h.16"/><path class="cls-2" d="M64.05,39.06a32.53,32.53,0,0,0,.4,3.76c.75,4.62,2.61,8.46,6.64,8.76,6,.45,9.78-1.14,11.91-3.75,3.26-4,2.79-10.36,1.1-15.46-2.2-6.7-5.29-10.59-8.6-11.79a6.43,6.43,0,0,0-3.63-.26c-2.42.52-4.85,2.41-7,5.63,0,0-.12.71-.27,1.91a65.67,65.67,0,0,0-.52,11.2"/><path class="cls-23" d="M73.22,33.24a18.26,18.26,0,0,0,3.3,1.42l.52.16a3.23,3.23,0,0,0,1,.12h.18a3.53,3.53,0,0,0,.7-.16l.22-.09a4.25,4.25,0,0,0-.09-.86,3.65,3.65,0,0,0-1.19-2.09l-.26-.2a3.78,3.78,0,0,0-.75-.39,2.46,2.46,0,0,0-.93-.16C74.12,31,73.22,33.24,73.22,33.24Z"/><path class="cls-26" d="M78.19,34.93a3.53,3.53,0,0,0,.7-.16,7,7,0,0,0,.13-1,3.65,3.65,0,0,0-1.19-2.09A6.57,6.57,0,0,1,78.19,34.93Z"/><path class="cls-26" d="M75.89,31a15.91,15.91,0,0,1,.63,3.68l.52.16a3.23,3.23,0,0,0,1,.12,7.92,7.92,0,0,0-.44-3.41,3.78,3.78,0,0,0-.75-.39A2.46,2.46,0,0,0,75.89,31Z"/><path class="cls-27" d="M76.51,35.63a2.31,2.31,0,0,1,0,4.52,2.08,2.08,0,0,1-1.84-2.26,2.08,2.08,0,0,1,1.84-2.26"/><path class="cls-28" d="M77.72,38.46A1.24,1.24,0,1,1,76.51,37,1.38,1.38,0,0,1,77.72,38.46Z"/><path class="cls-29" d="M76.35,37.93a.39.39,0,1,1-.38-.47A.43.43,0,0,1,76.35,37.93Z"/><path class="cls-29" d="M76.61,38.54a.2.2,0,1,1-.19-.24A.22.22,0,0,1,76.61,38.54Z"/><path class="cls-24" d="M68.57,46.89a1.66,1.66,0,0,0,.69.57,2,2,0,0,0,.87.22,1.88,1.88,0,0,0,1.6-.71c-.31,0-.57.07-.83.08a4.7,4.7,0,0,1-.75,0A14.45,14.45,0,0,1,68.57,46.89Z"/><path class="cls-23" d="M76.09,45c-5.14,1.9-10.7,0-10.7,0a4.67,4.67,0,0,1,2.38-3.39c3.63,1.74,5.7.28,5.7.28l.38.14A4.89,4.89,0,0,1,76,44.66C76.05,44.86,76.09,45,76.09,45Z"/><path class="cls-26" d="M75.87,44.7l-.65-.85.37,1a5.52,5.52,0,0,1-1.71.3l-.49-.75,0,.87-.49-.61.05.74a9.94,9.94,0,0,1-4.68-.19l.24-1,.19.92.25-.84.12,1,.11-1.08c3.35-.09,4.38-1.55,4.69-2.28A4.89,4.89,0,0,1,76,44.66Z"/><path class="cls-30" d="M73.81,41.05c0,1.06-1.46,1.88-3.2,1.83s-3.14-1-3.12-2S69,39,70.69,39,73.83,40,73.81,41.05Z"/><path class="cls-24" d="M73.81,41a1.38,1.38,0,0,1-.48.83,2.33,2.33,0,0,1-.82.48,4.9,4.9,0,0,1-1.9.28,5,5,0,0,1-1.88-.41,2.66,2.66,0,0,1-.8-.53,1.46,1.46,0,0,1-.44-.86,1.34,1.34,0,0,0,.22,1,2.52,2.52,0,0,0,.8.76,4.5,4.5,0,0,0,2.08.59,4.41,4.41,0,0,0,2.11-.45,2.42,2.42,0,0,0,.85-.71A1.32,1.32,0,0,0,73.81,41Z"/><path class="cls-23" d="M69.14,33.86A15.07,15.07,0,0,1,66.49,35l-.42.13a2.6,2.6,0,0,1-.78.09h-.14a2.35,2.35,0,0,1-.57-.13L64.41,35a3.31,3.31,0,0,1,.07-.69,2.91,2.91,0,0,1,1-1.68l.22-.16a2.42,2.42,0,0,1,.6-.31A2.14,2.14,0,0,1,67,32C68.42,32.08,69.14,33.86,69.14,33.86Z"/><path class="cls-26" d="M65.15,35.22a2.35,2.35,0,0,1-.57-.13c0-.24-.08-.49-.1-.76a2.91,2.91,0,0,1,1-1.68A5.27,5.27,0,0,0,65.15,35.22Z"/><path class="cls-26" d="M67,32a12.58,12.58,0,0,0-.51,3l-.42.13a2.6,2.6,0,0,1-.78.09,6.27,6.27,0,0,1,.36-2.74,2.42,2.42,0,0,1,.6-.31A2.14,2.14,0,0,1,67,32Z"/><path class="cls-27" d="M67,35.67a2.08,2.08,0,1,1-1.66,2,1.88,1.88,0,0,1,1.66-2"/><ellipse class="cls-28" cx="67.04" cy="38.22" rx="1.09" ry="1.35"/><path class="cls-29" d="M66.9,37.74a.39.39,0,0,1-.34.42.44.44,0,1,1,.34-.42Z"/><path class="cls-29" d="M67.13,38.28a.18.18,0,1,1-.35,0,.18.18,0,1,1,.35,0Z"/><path class="cls-3" d="M85.39,39a12.38,12.38,0,0,0,0,1.88c0-.32,0-.63,0-1v-.28c0-.21,0-.43,0-.65M79.45,25.89a25.23,25.23,0,0,0-9.06,2h0a16.17,16.17,0,0,1-4.55-1,5,5,0,0,1-1-.59c-.05.33-.13.86-.22,1.56A7.76,7.76,0,0,0,69.21,29c.58,0,1.22,0,1.93-.1a13.71,13.71,0,0,1,1.54-.08c5.65,0,8.2,3.56,9.28,9.48,1,5.53-3.85,12.31-10.39,12.31a10.28,10.28,0,0,1-3.28-.56,8.15,8.15,0,0,0,4.92,1.37A16.8,16.8,0,0,0,81.34,49,9.25,9.25,0,0,0,83,47.83,11.7,11.7,0,0,0,85.39,41l-1.18,0,.36-3.13a7.69,7.69,0,0,1-3-3.72,13.76,13.76,0,0,1-.6-1.74c-.16-.58-.28-1.16-.38-1.72a22.47,22.47,0,0,1-.28-2.45,21,21,0,0,1,0-2.34c-.26,0-.53,0-.81,0"/><path class="cls-23" d="M80.26,25.89a20.64,20.64,0,0,0,0,2.36,22.47,22.47,0,0,0,.28,2.45c.1.56.22,1.14.38,1.72a13.76,13.76,0,0,0,.6,1.74,7.69,7.69,0,0,0,3,3.72L84.21,41l1.18,0s-.27-3.21.66-3.76c0,0,.14-.85.22-2.1,0-.42,0-.88,0-1.37,0-.32,0-.65,0-1a19.24,19.24,0,0,0-.21-2.24c-.36-2.14-1.21-4.18-3-5.07-4.46-2.18-8.78-3-11.83-2.57,2.82-.24,5.74,1,9,3"/><path class="cls-23" d="M67.86,24.38a5.69,5.69,0,0,1,3.37-1.5,9.33,9.33,0,0,0-5.51,2.63s-.19,1.31,2.14-1.13"/><path class="cls-19" d="M85.42,28s-3.29-4.67-15-.06c0,0-3.9-.27-5.71-1.7,0,0,.88-6.53,2.3-9.38a7.47,7.47,0,0,1,3.85-3.68S89.48,14.7,85.42,28"/><path class="cls-9" d="M85.28,27.81h0a1.59,1.59,0,0,1,.13.16h0s0-.06-.14-.16M70.83,13.16h0s.5,0,1.31.17c-.81-.13-1.31-.17-1.31-.17"/><path class="cls-31" d="M80.45,25.92a7.18,7.18,0,0,1,4.83,1.89h0c-.41-.45-1.81-1.67-4.84-1.9"/><path class="cls-9" d="M64.68,26.19v0h0v0"/><path class="cls-21" d="M65.84,26.89a16,16,0,0,0,4.55,1h0a16.17,16.17,0,0,1-4.55-1"/><path class="cls-20" d="M70.83,13.16s.5,0,1.31.17l.74.12C73.32,16.38,75.11,24,81.79,24a12,12,0,0,0,4.13-.82,11.26,11.26,0,0,1-.5,4.8s0-.06-.14-.16a7.18,7.18,0,0,0-4.83-1.89c-.32,0-.65,0-1,0a25.23,25.23,0,0,0-9.06,2,16,16,0,0,1-4.55-1,5.42,5.42,0,0,1-1.16-.67v0c0-.15.14-1,.33-2.05a5.63,5.63,0,0,0,4.4,2,4,4,0,0,0,.68-.05,34.38,34.38,0,0,1,.29-12.69c.26-.13.43-.19.45-.2"/><path class="cls-18" d="M70.83,13.16a8.41,8.41,0,0,0-.78,1.73,16.05,16.05,0,0,0-.49,1.84,20.67,20.67,0,0,0-.36,3.77,23.62,23.62,0,0,0,.28,3.76c.09.63.24,1.24.37,1.85s.33,1.22.54,1.81c0-.63,0-1.25-.06-1.88s-.06-1.23-.08-1.85-.06-1.23,0-1.85l0-.92V20.5c0-1.22,0-2.45.14-3.67A27.4,27.4,0,0,1,70.83,13.16Z"/><path class="cls-26" d="M80.29,28.25a22.47,22.47,0,0,0,.28,2.45,8.71,8.71,0,0,0,5.74,2.06,19.24,19.24,0,0,0-.21-2.24A9.2,9.2,0,0,1,80.29,28.25Z"/><path class="cls-26" d="M81,32.42a13.76,13.76,0,0,0,.6,1.74,6.23,6.23,0,0,0,4.72,1c0-.42,0-.88,0-1.37A7.78,7.78,0,0,1,81,32.42Z"/><path class="cls-26" d="M62.43,34.56c1.73-1.16,1.35-4.81,1-6.73A9.47,9.47,0,0,0,62.43,34.56Z"/><path class="cls-30" d="M64.05,39.06a32.53,32.53,0,0,0,.4,3.76c1.1-.35,2-1,1.9-1.74S65,39.49,64.05,39.06Z"/></svg>