<svg id="भँवरा" xmlns="http://www.w3.org/2000/svg" viewBox="0 0 150 160"><defs><style>.cls-1{fill:#fff;stroke:#fff;stroke-miterlimit:10;stroke-width:5px;}.cls-2{fill:#187fb3;}.cls-3{fill:#b0e3e8;}</style></defs><circle class="cls-1" cx="75" cy="80" r="49.23" transform="translate(-28.86 44.8) rotate(-28.12)"/><path class="cls-1" d="M43.61,46.94a2.85,2.85,0,0,1,.34-.36A42.77,42.77,0,0,1,72.09,35.94a44.65,44.65,0,0,1,28,8.94,53.92,53.92,0,0,1,11.65,12.83,44.11,44.11,0,0,1,7.53,20.89c.85,11.32-3.5,22.06-12.92,31.92-9,9.39-18.83,14.1-29.26,14a39.7,39.7,0,0,1-20.1-6.15,52.47,52.47,0,0,1-11.11-9c-4-4.38-10.46-15.15-9.34-27.74.89-10,6.28-18.89,16-26.33a35.18,35.18,0,0,1,18.69-7.59,31.32,31.32,0,0,1,16.94,3.55A36.62,36.62,0,0,1,101.92,64a30.25,30.25,0,0,1,4.91,17.09c-.94,21.58-16.1,27.55-19.13,28.53a34.38,34.38,0,0,1-16.36,1.51,25.66,25.66,0,0,1-14.16-7.24,26.72,26.72,0,0,1-3.76-32.08A24.52,24.52,0,0,1,66.53,61.43,21.21,21.21,0,0,1,83,62.6,21.43,21.43,0,0,1,93.28,72.94a17.6,17.6,0,0,1,.49,12.55c-2.64,8.12-7.84,12.58-15.9,13.62A15,15,0,0,1,66,95.73a12.47,12.47,0,0,1-4.32-9.44A15.54,15.54,0,0,1,66,75.74a9.81,9.81,0,0,1,7.38-2.84A9.38,9.38,0,0,1,81,76.74a8,8,0,0,1,1.15,6.88C81,87,77.48,88.12,75.58,88.26a2.59,2.59,0,0,1-3-2.52c-.11-2.46,2.61-3,2.61-3h0c.38,0,1.54-.32,1.72-.87a2.53,2.53,0,0,0-.44-2,4,4,0,0,0-3.31-1.48,4.33,4.33,0,0,0-3.35,1.3,9.89,9.89,0,0,0-2.61,6.58,7,7,0,0,0,2.44,5.31,9.51,9.51,0,0,0,7.56,2.06c5.89-.76,9.39-3.8,11.36-9.86,2.12-6.52-.88-12.61-8-16.29C72.89,63.57,63,66.76,58.1,74.75a21.16,21.16,0,0,0,3,25.27c6.1,6.07,15,7.63,25,4.4,2.42-.78,14.54-5.59,15.32-23.53.41-9.37-6.22-19.78-15.76-24.75C80,53.23,68.71,49.82,55.84,59.67c-8.45,6.47-13.12,14-13.87,22.45C41,92.83,46.74,102.2,49.9,105.66,51.12,107,62.33,118.82,77.11,119c8.84.1,17.32-4,25.21-12.27,8.3-8.68,12.14-18,11.41-27.71-1-13.92-11.21-25.27-17-29.78a39.74,39.74,0,0,0-24.51-7.78,37.18,37.18,0,0,0-24.53,9.22,2.76,2.76,0,0,1-4-3.73Z"/><circle class="cls-2" cx="75" cy="80" r="49.23" transform="translate(-28.86 44.8) rotate(-28.12)"/><path class="cls-3" d="M43.61,46.94a2.85,2.85,0,0,1,.34-.36A42.77,42.77,0,0,1,72.09,35.94a44.65,44.65,0,0,1,28,8.94,53.92,53.92,0,0,1,11.65,12.83,44.11,44.11,0,0,1,7.53,20.89c.85,11.32-3.5,22.06-12.92,31.92-9,9.39-18.83,14.1-29.26,14a39.7,39.7,0,0,1-20.1-6.15,52.47,52.47,0,0,1-11.11-9c-4-4.38-10.46-15.15-9.34-27.74.89-10,6.28-18.89,16-26.33a35.18,35.18,0,0,1,18.69-7.59,31.32,31.32,0,0,1,16.94,3.55A36.62,36.62,0,0,1,101.92,64a30.25,30.25,0,0,1,4.91,17.09c-.94,21.58-16.1,27.55-19.13,28.53a34.38,34.38,0,0,1-16.36,1.51,25.66,25.66,0,0,1-14.16-7.24,26.72,26.72,0,0,1-3.76-32.08A24.52,24.52,0,0,1,66.53,61.43,21.21,21.21,0,0,1,83,62.6,21.43,21.43,0,0,1,93.28,72.94a17.6,17.6,0,0,1,.49,12.55c-2.64,8.12-7.84,12.58-15.9,13.62A15,15,0,0,1,66,95.73a12.47,12.47,0,0,1-4.32-9.44A15.54,15.54,0,0,1,66,75.74a9.81,9.81,0,0,1,7.38-2.84A9.38,9.38,0,0,1,81,76.74a8,8,0,0,1,1.15,6.88C81,87,77.48,88.12,75.58,88.26a2.59,2.59,0,0,1-3-2.52c-.11-2.46,2.61-3,2.61-3h0c.38,0,1.54-.32,1.72-.87a2.53,2.53,0,0,0-.44-2,4,4,0,0,0-3.31-1.48,4.33,4.33,0,0,0-3.35,1.3,9.89,9.89,0,0,0-2.61,6.58,7,7,0,0,0,2.44,5.31,9.51,9.51,0,0,0,7.56,2.06c5.89-.76,9.39-3.8,11.36-9.86,2.12-6.52-.88-12.61-8-16.29C72.89,63.57,63,66.76,58.1,74.75a21.16,21.16,0,0,0,3,25.27c6.1,6.07,15,7.63,25,4.4,2.42-.78,14.54-5.59,15.32-23.53.41-9.37-6.22-19.78-15.76-24.75C80,53.23,68.71,49.82,55.84,59.67c-8.45,6.47-13.12,14-13.87,22.45C41,92.83,46.74,102.2,49.9,105.66,51.12,107,62.33,118.82,77.11,119c8.84.1,17.32-4,25.21-12.27,8.3-8.68,12.14-18,11.41-27.71-1-13.92-11.21-25.27-17-29.78a39.74,39.74,0,0,0-24.51-7.78,37.18,37.18,0,0,0-24.53,9.22,2.76,2.76,0,0,1-4-3.73Z"/></svg>