<svg id="जीभ" xmlns="http://www.w3.org/2000/svg" viewBox="0 0 150 160"><defs><style>.cls-1,.cls-17{fill:#fffeee;}.cls-1{stroke:#fff;stroke-miterlimit:10;stroke-width:5px;}.cls-2{fill:#ffa466;}.cls-3{fill:#ff895a;}.cls-4{fill:#ef5c54;}.cls-5{fill:#ff7f57;}.cls-6{fill:#f45540;}.cls-7{fill:#3f322d;}.cls-8{fill:#3a2d29;}.cls-9{fill:#332723;}.cls-10{fill:#231a18;}.cls-11{fill:#ed4845;}.cls-12{fill:#ffefd9;}.cls-13{fill:#f2d5b1;}.cls-14{fill:#ff7e78;}.cls-15{fill:#ff8e85;}.cls-16{fill:#f66;}.cls-18{fill:#ffb3b3;}</style></defs><path class="cls-1" d="M72.2,15.54c-21.48.62-40.28,42-39.21,52.68h0c0,6.31,3.54,15.23,10.51,22.91-.47-.38-.92-.78-1.36-1.19,15.12,9.8,1,34.84,12.81,46.48,9,6.88,32.1,14,41.55-.64-.15.2-.32.37-.48.56,12.72-12.84-5.79-34.94,10.51-46.2a.3.3,0,0,1-.08.08C129.28,61.21,89,11.52,72.2,15.54Z"/><path class="cls-1" d="M116.76,69c-.83-.74-1.47.58-2.45,1.66C116.06,73.15,117.75,69.83,116.76,69Z"/><path class="cls-2" d="M113.21,70.89c0-12.54-19-13.18-38.59-13.18S33,55.89,33,68.43s15,36.92,42.19,36.92S113.21,83.43,113.21,70.89Z"/><path class="cls-3" d="M58,57.64c-6.47,8-11.13,20.69-12.56,35.55A42,42,0,0,0,75.2,105.35c12,0,20.77-4.25,26.87-10.09-1.16-15.48-5.81-28.86-12.4-37.21-4.75-.3-9.88-.34-15-.34C69.1,57.71,63.39,57.56,58,57.64Z"/><path class="cls-4" d="M42.14,89.94c6.68,8.72,18.73,14,33,14.6,11.13.45,25.42-5.27,31.36-14.4C92.06,104.54,57.73,104.54,42.14,89.94Z"/><path class="cls-5" d="M33.19,69.26C34,72,49.37,86.06,60.21,88s43.14,6.79,54-16.89c-4.52-35.24-27.2-56-42-55.55C49.94,16.18,30.55,60.62,33.19,69.26Z"/><path class="cls-6" d="M34.44,67.6c.79,2.6,16.14,15.63,26.44,17.46s42,7.15,52.33-15.52c-4.29-33.72-27-51.66-41-51.26C51.05,18.9,31.93,59.33,34.44,67.6Z"/><path class="cls-6" d="M75.27,80C58.89,80,44,75.47,33,68.22a4.92,4.92,0,0,0,.2,1C34,72,49.37,86.06,60.21,88s43.14,6.79,54-16.89c0-.18,0-.35-.07-.53C103.52,76.51,90,80.05,75.27,80Z"/><path class="cls-7" d="M34.44,69c.79,2.58,16.14,15.51,26.44,17.33s42,7.1,52.33-15.4c-4.29-33.48-27-51.29-41-50.89C51.05,20.61,31.93,60.75,34.44,69Z"/><path class="cls-8" d="M39.88,68.05c.67,2.43,13.91,14.57,22.78,16.28S98.87,91,107.75,69.86c-3.7-31.44-23.24-48.16-35.34-47.78C54.19,22.65,37.72,60.34,39.88,68.05Z"/><path class="cls-9" d="M44.94,70.84c.59,2,11.86,12.13,19.39,13.55s30.72,5.55,38.13-12c-3.3-26.18-19.93-40.11-30.18-39.8C56.83,33,43.07,64.41,44.94,70.84Z"/><path class="cls-10" d="M53.74,72.46C54.15,73.88,62,81,67.23,82s21.36,3.89,26.52-8.46c-2.3-18.38-13.87-28.16-21-27.94C62,45.91,52.44,68,53.74,72.46Z"/><path class="cls-9" d="M67.85,46.31C76.47,44.78,67,60,73.49,60.42c9.26.62-3.14-16.85,8.09-13.11a12.5,12.5,0,0,0-9-4.6C66.74,42.34,67.85,46.31,67.85,46.31Z"/><path class="cls-11" d="M44.6,78.39s2.78-11.86,17.81-13.23L55,83.4A25.63,25.63,0,0,1,44.6,78.39Z"/><path class="cls-11" d="M104.32,82s-4.19-6.19-10-9.38L94.37,87A23.82,23.82,0,0,0,104.32,82Z"/><path class="cls-12" d="M108.66,77.83a5.74,5.74,0,0,0-.73-.2c-1.38-.29-7.57,8.21-33.69,7.14C58.38,84.13,41,74,40.56,75l-.07.1c4.71,5.07,13.33,9.44,19.67,11C72.78,89.15,95,94,108.66,77.83Z"/><path class="cls-13" d="M74.24,84.77c-9.89-.4-20.37-4.5-27-7.27-.19.9-.36,1.8-.49,2.72a46.67,46.67,0,0,0,13.38,5.89c11.07,2.66,29.55,6.72,43.12-3.24-.08-.85-.18-1.7-.3-2.54C98.39,82.61,89.9,85.41,74.24,84.77Z"/><path class="cls-14" d="M75.82,68.37C67.18,60.82,51,64.83,50.68,81.23,50.49,91.56,46,129.68,54.94,136s36.33,18.16,45.84-9.12c1.49-4.26-2.23-19.26-1.67-27.17.23-3.23,3.16-20.88-.74-24.53S84.91,61.88,75.82,68.37Z"/><path class="cls-15" d="M96.48,99.11c0,9.15-3.33,21-8.51,24.7-5.9,4.17-14.74-3.79-8.58-6.57C87.36,113.64,96.51,90,96.48,99.11Z"/><path class="cls-16" d="M99.11,100.13c.23-3.23,3.16-20.88-.74-24.53L97.69,75a58.06,58.06,0,0,1,1,10c.5,22.68-1.18,49.22-23.66,47.9-12.51-.73-22.81-20.21-23.32-42.88a68.78,68.78,0,0,1,2.08-18.72,18.16,18.16,0,0,0-3.16,10.46C50.49,92,46,130.13,54.94,136.42s36.33,18.16,45.84-9.12C102.27,123,98.55,108,99.11,100.13Z"/><path class="cls-17" d="M49.05,39.61c-1.45.1,5.29-11.55,15.87-17s26,2,34.24,16.27c1.67,2.89-10.86-4.25-27.28-4.1C55.87,34.9,51.42,39.46,49.05,39.61Z"/><path class="cls-12" d="M98.65,38c-3.66-.75-14.2-4.79-27-4.67-13.8.12-19.32,3.3-22.19,4.46-.58,1.15-.73,1.85-.37,1.82,2.37-.15,6.82-4.71,22.83-4.86,16.42-.15,29,7,27.28,4.1Z"/><path class="cls-13" d="M63.38,27c10.73-5,25.89.71,35.51,12.5.43,0,.54-.22.27-.69C90.89,24.56,75.5,17.11,64.92,22.58a40.26,40.26,0,0,0-15.4,15A43.9,43.9,0,0,1,63.38,27Z"/><path class="cls-6" d="M113.21,71.54a4,4,0,0,0,1.1-.92,6.21,6.21,0,0,1-.68-1.28Z"/><path class="cls-6" d="M116.76,69c-.83-.74-1.47.58-2.45,1.66C116.06,73.15,117.75,69.83,116.76,69Z"/><path class="cls-8" d="M90.11,35.28c-.35,2.89-1.32,3.57-1.32,3.57l2.43-1A5.42,5.42,0,0,1,90.11,35.28Z"/><polygon class="cls-13" points="73.08 24.25 73.04 24.38 73.52 29.73 74.37 24.11 73.08 24.25"/><polygon class="cls-13" points="60.65 26.7 60.61 26.83 61.09 32.18 61.94 26.56 60.65 26.7"/><path class="cls-16" d="M85.42,123.15c-.42-.54-1.46-.35-2.3.44s-1.2,1.87-.77,2.42,1.45.34,2.3-.44S85.84,123.7,85.42,123.15Z"/><path class="cls-16" d="M87.52,120.08a1,1,0,0,0-1.45,0,1.21,1.21,0,0,0-.23,1.58,1,1,0,0,0,1.46,0A1.2,1.2,0,0,0,87.52,120.08Z"/><path class="cls-16" d="M79.52,127a1,1,0,0,0-1.45-.17,1.19,1.19,0,0,0-.37,1.54,1,1,0,0,0,1.45.17A1.19,1.19,0,0,0,79.52,127Z"/><path class="cls-16" d="M83.53,118.9a.83.83,0,0,0-1.22-.13,1,1,0,0,0-.32,1.3.81.81,0,0,0,1.22.13A1,1,0,0,0,83.53,118.9Z"/><path class="cls-15" d="M78.42,66.53c-4.73,3.65-2.65,18.55,2.78,26.91s17.52-3.8,16-18.23C96.94,72.1,83.37,62.71,78.42,66.53Z"/><path class="cls-15" d="M75.36,68.86c1.89,2.45,4.85,32-1.67,39.33S49.34,85.31,53.37,71.47c.66-2.29,5.17-6.15,10-6.57C67.71,64.53,71.84,64.29,75.36,68.86Z"/><path class="cls-16" d="M75.82,68.37a14.69,14.69,0,0,0-3.44-2.23,12.27,12.27,0,0,1,3.91,8.6,19.65,19.65,0,0,1,1.49-7.52A12.82,12.82,0,0,0,75.82,68.37Z"/><path class="cls-16" d="M66.14,106.85a.81.81,0,0,0-1.22-.13A1,1,0,0,0,64.6,108a.82.82,0,0,0,1.22.14A1,1,0,0,0,66.14,106.85Z"/><path class="cls-16" d="M84.48,108.52a.81.81,0,0,0-1.22-.13,1,1,0,0,0-.32,1.29.82.82,0,0,0,1.22.14A1,1,0,0,0,84.48,108.52Z"/><path class="cls-16" d="M70.56,124.48a.83.83,0,0,0-1.22-.13,1,1,0,0,0-.32,1.3.83.83,0,0,0,1.22.13A1,1,0,0,0,70.56,124.48Z"/><path class="cls-14" d="M88.23,89.82A.81.81,0,0,0,87,89.68,1,1,0,0,0,86.7,91a.8.8,0,0,0,1.21.13A1,1,0,0,0,88.23,89.82Z"/><path class="cls-14" d="M93.24,89.06A.81.81,0,0,0,92,88.92a1,1,0,0,0-.32,1.3.81.81,0,0,0,1.22.13A1,1,0,0,0,93.24,89.06Z"/><path class="cls-18" d="M94,75.42c.18-.28,0-.76-.41-1.08s-.88-.35-1.06-.08,0,.76.41,1.08S93.82,75.69,94,75.42Z"/><path class="cls-18" d="M66.26,69.74c.18-.28,0-.76-.41-1.08s-.88-.35-1.06-.07,0,.76.4,1.07S66.08,70,66.26,69.74Z"/><path class="cls-18" d="M92,71.77c.18-.28,0-.76-.41-1.08s-.88-.35-1.06-.08,0,.76.4,1.08S91.78,72,92,71.77Z"/><path class="cls-18" d="M96.7,76.68c.11-.18,0-.5-.28-.71s-.59-.23-.7-.06,0,.5.27.71S96.58,76.86,96.7,76.68Z"/><path class="cls-18" d="M86.05,69.85c.12-.18,0-.5-.27-.71s-.59-.23-.71-.06,0,.5.28.71S85.94,70,86.05,69.85Z"/><path class="cls-18" d="M70.62,68c.12-.17,0-.49-.27-.7s-.59-.24-.71-.06,0,.49.28.7S70.51,68.22,70.62,68Z"/><path class="cls-18" d="M73.69,73c.11-.18,0-.49-.28-.7s-.59-.24-.7-.06,0,.49.27.7S73.57,73.19,73.69,73Z"/><path class="cls-14" d="M87.21,94.37A.83.83,0,0,0,86,94.24a1,1,0,0,0-.32,1.3.83.83,0,0,0,1.22.13A1,1,0,0,0,87.21,94.37Z"/><path class="cls-14" d="M74.26,104.26a.81.81,0,0,0-1.21-.14,1,1,0,0,0-.32,1.3.8.8,0,0,0,1.21.13A1,1,0,0,0,74.26,104.26Z"/><path class="cls-14" d="M62.66,98.8c-.25-.4-.92-.37-1.49.07s-.83,1.1-.59,1.5.92.37,1.49-.07S62.91,99.19,62.66,98.8Z"/><path class="cls-16" d="M93.91,99.87c-.18-.28-.62-.28-1,0a.82.82,0,0,0-.35,1c.18.28.62.28,1,0A.82.82,0,0,0,93.91,99.87Z"/><path class="cls-16" d="M92.31,111.94c-.18-.28-.62-.28-1,0a.84.84,0,0,0-.36,1c.18.28.62.28,1,0A.83.83,0,0,0,92.31,111.94Z"/><path class="cls-11" d="M55.85,135.26c-9.07-6.4-4.64-45.08-4.48-55.61a19.15,19.15,0,0,1,2.24-9.09c0-.14.07-.29.11-.43a18.1,18.1,0,0,0-3.2,10.59c-.16,10.52-4.58,49.21,4.48,55.61,7.9,5.57,29.89,15.38,41.5-.55C84.71,150.19,63.55,140.7,55.85,135.26Z"/><path class="cls-15" d="M99.76,124.51c.17,2.9-2.41,11-8.81,15-4.93,3-3.8-3.67-.59-4.93C95,132.75,99.67,122.89,99.76,124.51Z"/><path class="cls-8" d="M55.3,38.12c2.37-.46,3.41-1.14,3.34-3.19,0,0,.21,1.52,3,1.59C61.64,36.52,57.81,39.79,55.3,38.12Z"/><polygon class="cls-17" points="84.09 30.05 84.57 25.8 85.83 30.58 84.09 30.05"/></svg>