<svg id="मक्खन" xmlns="http://www.w3.org/2000/svg" viewBox="0 0 150 160"><defs><style>.cls-1{fill:#fff;stroke:#fff;stroke-miterlimit:10;stroke-width:5px;}.cls-2{fill:#e54a4a;}.cls-3,.cls-7{fill:#b38700;}.cls-3{opacity:0.3;}.cls-4{fill:#ff5f5f;}.cls-5{fill:#ff7676;}.cls-6{fill:#f8e6a6;}.cls-7{opacity:0.2;}.cls-8{fill:#fff0c0;}.cls-9{fill:#ffeeb6;}.cls-10{fill:#fff2cc;}</style></defs><path class="cls-1" d="M141.36,89.37c.15-1.68,2.38-7.69-3.19-10.71-10.44-5.66-4.51-14-7.65-22.1-7-3.93-37.93-14-45.84-11.52-24.51,7.53-31.39,7-38.83,11h0c-5.44.45-8.24,2.71-7.61,8.46-3,3.92-18.63-3.28-14.14,9.7C26.66,80.69,9.32,77.67,11.9,85c.4,2.61-1.41,6.86,1.85,8.19C26,96.78,61.2,118.51,75.09,113.46,88.19,108.7,140.87,93.56,141.36,89.37Z"/><path class="cls-2" d="M138.29,89.37a4.34,4.34,0,0,0,0-.51l0-6.24-9.39.07L83.22,64a.5.5,0,0,0-.36,0L26,83.36l-14.09.09v6a3.4,3.4,0,0,0,0,2.27h0a3.29,3.29,0,0,0,1.81,2l42.92,19a23.93,23.93,0,0,0,17.32.79C89,108.4,119.82,98.1,135.65,92.81a3.83,3.83,0,0,0,2.64-3.44Z"/><path class="cls-3" d="M138.29,89.37h0a4.34,4.34,0,0,0,0-.51l0-6.24-9.39.07-13.34-5.45C101.28,83.77,86.65,89.38,71.3,92.45c-2.44.49-6.84,1-7.52,3.7-.35,1.36,1.37,5.35,1.61,7,.14,1,.72,6.41,1.1,11.58A23.87,23.87,0,0,0,74,113.49C89,108.4,119.82,98.1,135.65,92.81A3.83,3.83,0,0,0,138.29,89.37Z"/><path class="cls-4" d="M74,107.45c15.09-5.09,45.87-15.39,61.7-20.69a3.87,3.87,0,0,0,.24-7.26L83.22,58a.55.55,0,0,0-.36,0L14,81.39a3.38,3.38,0,0,0-.28,6.29l42.92,19A23.93,23.93,0,0,0,74,107.45Z"/><path class="cls-5" d="M73.78,104.09a32.11,32.11,0,0,1-20.16-.79L21.08,90.94l35.55,15.72a23.93,23.93,0,0,0,17.32.79c15.09-5.09,45.87-15.39,61.7-20.69a3.85,3.85,0,0,0,1.54-.94C117.75,91.41,89,99.7,73.78,104.09Z"/><path class="cls-3" d="M20.65,83.51c-.71,1.09-.25,2.57.49,3.63,1.83,2.58,5,3.77,8,4.82l23.53,8.26c5.15,1.8,10.81,3.62,15.94,1.74a14.68,14.68,0,0,1,3-1,12.31,12.31,0,0,1,2.64.09c3.62.3,7.23-.56,10.77-1.41l12.32-3c11.14-2.69,22.5-5.47,32.19-11.59,1.76-1.11,3.68-3,3-4.93-10.3-3.76-21.67-1.09-32.52.51-14.31,2.12-28.82,2.28-43.25,1.72-7.18-.28-14.34-.73-21.5-1.22C31.68,80.91,22.87,80.07,20.65,83.51Z"/><path class="cls-6" d="M37,78.57c2.79,1.25,5.42,2.83,8.1,4.31,9.69,5.35,19.33,14.78,30.16,12.5a435.82,435.82,0,0,0,53.94-15.29l0-15.2a20.58,20.58,0,0,0-.8-7C114.72,52.57,101.84,51,88.26,45.64a5.56,5.56,0,0,0-4.65.26C70,53.09,54.87,54.82,40,58.66A2.57,2.57,0,0,0,38.11,61c-.12,1.56-.15,2.84-.35,4.71C37.33,69.59,36.58,74.65,37,78.57Z"/><path class="cls-3" d="M129.21,80.08a435.87,435.87,0,0,1-53.94,15.3C64.44,97.66,54.8,88.23,45.11,82.87c-2.68-1.48-5.31-3.05-8.1-4.3-.43-3.93.32-9,.75-12.91.2-1.88.23-3.15.35-4.71a2.57,2.57,0,0,1,1.21-2c10,4.64,32.17,14.86,34.76,15.61,3.37,1,54.3-16.64,54.3-16.64a20.61,20.61,0,0,1,.8,7Z"/><path class="cls-7" d="M37,78.57c-.43-3.93.32-9,.75-12.91.18-1.73.23-2.95.32-4.35,1.45.67,3,1.23,4.44,1.77l14.74,5.35c2.86,1,5.8,2.12,8.06,4.16,3.1,2.81,4.49,7,5.26,11.16a50.92,50.92,0,0,1,1,12c-9.37-.17-17.91-8.1-26.5-12.85C42.43,81.39,39.8,79.82,37,78.57Z"/><path class="cls-3" d="M75.14,74.54c8.09-1,53.24-16.62,53.24-16.62a20.61,20.61,0,0,1,.8,7l0,15.2a435.87,435.87,0,0,1-53.94,15.3,16.86,16.86,0,0,1-3.13.35,38.93,38.93,0,0,1,.24-4C73,85.91,74.78,80.35,75.14,74.54Z"/><path class="cls-3" d="M38.11,61A2.55,2.55,0,0,1,40,58.66L42.57,58a19.78,19.78,0,0,0-2.44,5.87c-1.18,5.11.22,11,4.35,14.24,2.72,2.12,6.23,2.89,9.39,4.26,2.6,1.13,5,2.71,7.78,3.44s6,.41,7.89-1.75c2-2.36,1.64-6,3-8.75a1.81,1.81,0,0,1,.65-.79c1.22-.72,2.22,1.24,2.25,2.65.06,2.61-.07,5.42,1.38,7.59,2.34,3.5,7.4,3.52,11.57,3A133.37,133.37,0,0,0,118.69,80c2.7-1,5.58-2.35,6.89-4.93a11.78,11.78,0,0,0,.78-6,39.52,39.52,0,0,0-2.16-12.12L124,56.3q2.2.75,4.43,1.62a20.61,20.61,0,0,1,.8,7l0,15.2a435.87,435.87,0,0,1-53.94,15.3C64.44,97.66,54.8,88.23,45.11,82.87c-2.68-1.48-5.31-3.05-8.1-4.3-.43-3.93.32-9,.75-12.91C38,63.78,38,62.51,38.11,61Z"/><path class="cls-8" d="M41.85,59.57c.68-.36,1.45,0,2.07.36a3.94,3.94,0,0,1,1.77,1.37.22.22,0,0,1-.12.3,3.27,3.27,0,0,1-2.39-.24c-.67-.28-1.43-.67-1.51-1.46A.37.37,0,0,1,41.85,59.57Z"/><path class="cls-8" d="M97.4,67.2a16.11,16.11,0,0,1,5.39-2.87,50.78,50.78,0,0,1,5.89-1.83c2-.45,4-.89,6-1.41,1.06-.27,2.13-.56,3.2-.79a9.69,9.69,0,0,1,1.4-.22,12.69,12.69,0,0,0,1.95,0c.26-.06.37.33.11.39a9.82,9.82,0,0,0-1.72.85,10.45,10.45,0,0,1-1.33.46c-.92.26-1.86.49-2.78.74a60.67,60.67,0,0,0-6,2.06c-1.91.77-3.89,1.38-5.84,2a18.89,18.89,0,0,1-5.92,1.31A.43.43,0,0,1,97.4,67.2Z"/><path class="cls-8" d="M90.6,69.57a6.33,6.33,0,0,1,4.8-1,.26.26,0,0,1,.12.43,6.34,6.34,0,0,1-4.84,1.15C90.37,70.13,90.38,69.72,90.6,69.57Z"/><path class="cls-7" d="M82.12,46.66a25,25,0,0,0,4.53,2.69c4.95,2.11,10.17,3.5,15.1,5.65a5,5,0,0,1,1.89,1.23,3.31,3.31,0,0,1-.21,4,6.81,6.81,0,0,1-3.72,2.1c-3.89,1-8,.35-11.88-.84s-7.5-2.9-11.33-4.1c-1.71-.54-3.63-1-5.23-.15a3.15,3.15,0,0,0-1.51,1.93,2.69,2.69,0,0,1-3,1.89l-13-1.93a65.54,65.54,0,0,1-7.22-1.35,12.48,12.48,0,0,1-1.27-.41C57.84,54.47,70.49,52.42,82.12,46.66Z"/><path class="cls-8" d="M98.92,49.82c2,.13,4.14,1.23,6,2,1,.42,2,.83,3,1.33a13.62,13.62,0,0,1,2.5,1.9c.13.11,0,.32-.18.23A15.16,15.16,0,0,0,107,54c-1-.35-2.1-.61-3.17-.86-1.83-.43-4.17-1.05-5.23-2.74A.41.41,0,0,1,98.92,49.82Z"/><path class="cls-8" d="M91,47.92a2.36,2.36,0,0,1,1.86,0,6.71,6.71,0,0,1,1.89,1.17.23.23,0,0,1-.12.42,6.65,6.65,0,0,1-2.18-.09,2.45,2.45,0,0,1-1.58-1A.35.35,0,0,1,91,47.92Z"/><path class="cls-8" d="M72.18,59.12c2.17-2.4,5.8.05,7.65,1.56.14.12,0,.37-.2.26a5.85,5.85,0,0,0-6.38-.43A.89.89,0,0,1,72.18,59.12Z"/><path class="cls-8" d="M69.8,62.25A1.38,1.38,0,0,1,71,61.41a.41.41,0,0,1,.36.21,1.19,1.19,0,0,1,.16.84,1.65,1.65,0,0,1-.24.65.85.85,0,0,1-1.47-.86Z"/><path class="cls-9" d="M23.88,75.13c-.15-1.88-.35-3.14-.53-4.7a2.56,2.56,0,0,1,1.46-2.6l2.49-1.15c6.23-.45,12.61.81,18.56,2.42,6.71,1.81,13.15,5.07,20,6.33,1.25,7,1.49,14.12,2.24,21.18l-1.85.78c-10.23,4.24-21.44-3.24-32-6.7-2.9-1-5.78-2-8.76-2.74C24.39,84.17,24.19,79.07,23.88,75.13Z"/><path class="cls-3" d="M23.88,75.13c-.15-1.89-.35-3.15-.53-4.7a2.56,2.56,0,0,1,.83-2.18c10.69,2.7,34.36,8.64,37,8.9.56,0,2.23-.59,4.64-1.7,1.25,7,1.49,14.1,2.24,21.16l-1.85.78c-10.23,4.24-21.44-3.24-32-6.71-2.9-1-5.78-2-8.76-2.73C24.39,84.17,24.18,79.06,23.88,75.13Z"/><path class="cls-3" d="M62.26,76.94a37,37,0,0,0,3.6-1.49c1.25,7,1.49,14.1,2.24,21.16l-1.85.78a16.89,16.89,0,0,1-3,.92c-.23-1.33-.41-2.67-.51-4C62.29,88.5,63,82.71,62.26,76.94Z"/><path class="cls-10" d="M34.29,69.89a39.13,39.13,0,0,1,7,.83,47,47,0,0,1,6.84,1.44,66.58,66.58,0,0,1,6.44,2.44c1.06.46,2.09,1,3.18,1.33a12.68,12.68,0,0,0,1.37.4,8.54,8.54,0,0,0,1.89.46c.14,0,.19.24,0,.28a5,5,0,0,1-2.59.58,19.64,19.64,0,0,1-3-.71c-2.41-.68-4.87-1.2-7.29-1.87s-4.63-1.4-6.93-2.25-4.76-1.34-7.06-2.36A.3.3,0,0,1,34.29,69.89Z"/><path class="cls-8" d="M26.78,68.38c.6-.47,1.42-.21,2.1,0a4,4,0,0,1,2,1,.21.21,0,0,1-.07.32,3.23,3.23,0,0,1-2.39.21c-.71-.15-1.53-.39-1.76-1.16A.38.38,0,0,1,26.78,68.38Z"/><path class="cls-8" d="M61.29,86.81c0-1.17-.07-2.34-.13-3.51a7.91,7.91,0,0,1,0-1.46,12.47,12.47,0,0,0,.27-2c0-.23.32-.3.36-.07.19,1.1.83,2.1,1,3.22s.36,2.2.54,3.3c.31,1.95.78,4.35-.08,6.21-.14.28-.59.47-.81.15C61.37,91,61.37,88.76,61.29,86.81Z"/><path class="cls-3" d="M23.88,75.13c-.15-1.89-.35-3.15-.53-4.7a2.55,2.55,0,0,1,1.46-2.6c.79-.38,1.58-.74,2.38-1.1A20,20,0,0,0,25.88,73c-.22,5.24,2.26,10.78,6.92,13.19,3.06,1.58,6.65,1.68,10,2.44,2.77.63,5.45,1.73,8.29,1.94s6-.71,7.43-3.17c1.55-2.7.5-6.18,1.37-9.17a1.89,1.89,0,0,1,.49-.9c1.06-.93,2.42.81,2.71,2.19.54,2.56.93,5.34,2.75,7.21a6.41,6.41,0,0,0,1.47,1.1c.25,2.94.47,5.89.78,8.83l-1.85.78c-10.23,4.24-21.44-3.24-32-6.71-2.9-1-5.78-2-8.76-2.73C24.39,84.17,24.18,79.06,23.88,75.13Z"/></svg>