<svg id="घोड़ा" xmlns="http://www.w3.org/2000/svg" viewBox="0 0 150 160"><defs><style>.cls-1{fill:#fff;}.cls-2{fill:#3c3c3b;}.cls-3,.cls-7{opacity:0.2;}.cls-4,.cls-7{fill:#1d1d1b;}.cls-5{fill:#80411d;}.cls-6{fill:#d46c30;}</style></defs><path class="cls-1" d="M121,49.34c-2.2-2.33-5.21-6.12-8.67-9.06.49-.56,1.68-2.24,2.13-2.84l-2.42-1,1.57-5.08-3.26,1.06.32-2.25c-2.1,1.13-5,2.21-6.4,4.35C82.51,33,81.68,62.26,70.61,63.09c-10.27,3.1-22.5-5.36-30.71,3.16C21,66.83,27.09,93.19,29,104.48l1-.1c.22,1.2.36,1.87.37,1.92l.21,0c.09.93.14,1.45.15,1.49h.57c0,.49-.25,2-.32,2.51l3.44.79c.37,4-2.56,6.65,0,9.38v1.32l-2.31,3.53,2.28.77.48,2.11H45.85l-.85-2.4,1.22.41.58,2.08h11c-1-4.15-5.21-7.41-4.79-11.64h-.09c-2.33-12.07-1-19.09,8.84-26.23,6.14,2.64,16.16,3.23,24,2.45-.31,7,.61,17.87-.83,23.89a3,3,0,0,0,.64,3.63l.07,1.45-2.09,3.48,2.27.76.58,2.08h17.5c-.16-.31-1.54-3.08-1.68-3.32l.18,0c-3.59-4-4.44-6.26-4.45-11.82-.51-5.36-1.13-9.94,1.71-14.25H98.24c.49-9,3.44-17.82,4.79-26.48-.18-6.62.7-11.36,3.1-16.3,2.47.83,5.12-.27,7.52.89.12,2.3,3.82,3,5.42,3.87l.1-1.25C124.12,58.26,124.81,51.22,121,49.34ZM44.49,124.52c-2.68-3.77-3.1-6.51-2.68-11.19.11-4.6-.26-9,1.61-12.39,1.5,4.6,2.07,13,1.54,16.1a3.09,3.09,0,0,0,1,3.55l.08,1.35Z"/><path class="cls-2" d="M41.4,68.74h0V68c-.23.11-.47.23-.72.38h0l-.09,0,.15-.06.39-.16-.3.06-.11,0-.44.1a8.73,8.73,0,0,0-4.14.53,10.1,10.1,0,0,0-3,1.73,13.13,13.13,0,0,0-2.52,3,18.15,18.15,0,0,0-2.27,8.58A57.19,57.19,0,0,0,29,90.81c.29,2.4.59,4.57.87,6.43,0,.17.05.34.07.5.59,3.94,1.05,6.37,1.05,6.37s0-2.47-.1-6.45c0-.16,0-.33,0-.49l.42,2.62c.62,3.78,1.1,6.11,1.1,6.11s0-1.21-.06-3.3c.24,3.1.44,5,.44,5s.21-2.45.4-6.42l0-.74c.13,1.29.22,2.5.25,3.59,0,.51,0,1,0,1.45s0,.89,0,1.29-.06.78-.08,1.13a8.34,8.34,0,0,1-.09.94L33,110.56l.54-1.71a6.81,6.81,0,0,0,.23-.94c.08-.34.16-.72.25-1.12s.12-.84.19-1.31.15-1,.17-1.47a45.37,45.37,0,0,0,.09-5.31c0,.34.09.64.13.91.14.94.23,1.46.23,1.46s0-.18,0-.52c0,.3.11.6.16.89s.1.53.13.79l.09.76c.13,1,.24,1.89.34,2.68s.12,1.48.16,2c.1,1.13.15,1.75.15,1.75s.05-.62.15-1.75c0-.56.1-1.25.14-2.06,0-.39,0-.81,0-1.25s.13-1.54.23-2.81c.08-1.09.17-2.4.25-3.89.13-2.34.25-5.12.31-8.15,0-1.37,0-2.79,0-4.25s0-2.7-.05-4,0-2.49,0-3.63a15.11,15.11,0,0,1,.46-3.15,9.52,9.52,0,0,1,1-2.55c.15-.24.3-.47.45-.68h0a8.29,8.29,0,0,1,.58-.7,6.42,6.42,0,0,1,.71-.68l.43-.11.44-.09h-.65a6.7,6.7,0,0,1,.61-.42l.13,0,.23,0v-.44l-.2,0-.17.07-.07,0,.14-.12Z"/><g class="cls-3"><path class="cls-4" d="M39.53,70.61a8.29,8.29,0,0,0-.58.7h0c-.15.21-.3.44-.45.68a9.52,9.52,0,0,0-1,2.55A15.11,15.11,0,0,0,37,77.7c-.06,1.14,0,2.35,0,3.63s.05,2.61.05,4,0,2.88,0,4.25c-.06,3-.18,5.81-.31,8.15-.08,1.49-.17,2.8-.25,3.89-.1,1.27-.18,2.23-.23,2.81s0,.86,0,1.25c0,.81-.1,1.5-.14,2.06-.1,1.13-.15,1.75-.15,1.75s0-.62-.15-1.75c0-.56-.09-1.24-.16-2s-.21-1.69-.34-2.68l-.09-.76c0-.26-.09-.52-.13-.79s-.11-.59-.16-.89c0,.34,0,.52,0,.52s-.09-.52-.23-1.46c0-.27-.09-.57-.13-.91a45.37,45.37,0,0,1-.09,5.31c0,.51-.12,1-.17,1.47s-.1.9-.19,1.31-.17.78-.25,1.12a6.81,6.81,0,0,1-.23.94L33,110.56l.25-1.77a8.34,8.34,0,0,0,.09-.94c0-.35.05-.73.08-1.13s0-.84,0-1.29,0-.94,0-1.45c0-1.09-.12-2.3-.25-3.59l0,.74c-.19,4-.4,6.42-.4,6.42s-.2-1.85-.44-5c.06,2.09.06,3.3.06,3.3s-.48-2.33-1.1-6.11l-.42-2.62c0,.16,0,.33,0,.49.12,4,.1,6.45.1,6.45s-.46-2.43-1.05-6.37c0-.16-.05-.33-.07-.5l0-.31c.19-1.89.16-3.8.32-5.68.36,1.25.16,2.82.61,4,.68-1.89,0-4.26,0-6.22a32.29,32.29,0,0,1,.34-6.31,45.11,45.11,0,0,0,1,8.56c.37,2,.23,4.14.8,6.1.64-.54.55-2.93.55-3.77A30.3,30.3,0,0,0,33.23,88a33.53,33.53,0,0,1-.42-5c-.07-1.87.49-3.66.49-5.51,0,2.31.39,4.53.49,6.81.08,1.74.26,3.48.51,5.18.34-.43.27-1.62.33-2.24a12.24,12.24,0,0,1,.29-2.44c.71,2.21.68,4.82.86,7.14a5.25,5.25,0,0,0,.46-2.4c0-1.18-.13-2.45-.13-3.36,0-2.33-.56-4.54-.56-6.88a13.86,13.86,0,0,1,.86-5.69A6.15,6.15,0,0,1,39.53,70.61Z"/><path class="cls-4" d="M35.12,70.85A10.67,10.67,0,0,0,31.63,81,16.83,16.83,0,0,1,35.12,70.85Z"/><path class="cls-4" d="M34.76,81.3a26.23,26.23,0,0,1,.38-8.79A12,12,0,0,0,34.76,81.3Z"/><path class="cls-4" d="M29.89,84.77a34,34,0,0,1,.86-9.61,18.94,18.94,0,0,0-.83,13.92Z"/></g><path class="cls-5" d="M110.58,34.48c-2.58.84-4.51,3.61-5.74,6.63l3.75-.19Z"/><path class="cls-2" d="M111.35,38.33c-.16.22-.37.48-.62.77s-.8.91-1.25,1.38a23.29,23.29,0,0,1-2,1.87,4.85,4.85,0,0,1-.4.31,9.8,9.8,0,0,1-3.94,1.69l-1,.31C94.69,47,90.57,53.59,85.67,59.15a18,18,0,0,0-2,3.21c-1,1.8-2.07,3.55-3.93,4.09-1.56.45-5.06-1.1-6.35-1.76h0c8-1.25,11.91-30.79,31.9-28a19.17,19.17,0,0,1,1.9.36l.5.11c.62.16,1.26.35,1.91.56S110.75,38.09,111.35,38.33Z"/><path class="cls-5" d="M96.12,120.06c-.31,1-2.89-.35-3.88-1.44-.3-.34-.1-.75,0-1.19.94-3.4-.14-11.62-.61-16.74h4.67C94.16,104.81,97,117.24,96.12,120.06Z"/><path class="cls-5" d="M96.27,101c-.08,1.81-1.31,3.13-2.76,2.94s-2.54-1.81-2.46-3.62,1.32-3.13,2.76-2.94S96.36,99.21,96.27,101Z"/><path class="cls-5" d="M96.2,118.49H93l.57,3.82-1,1.87.94.31.13.33L99,123.55C97.7,121.9,96.4,120.36,96.2,118.49Z"/><path class="cls-2" d="M100.65,126.13H94.2l-.44-1.19-.05-.12h0L99,123.55A17.16,17.16,0,0,1,100.65,126.13Z"/><path class="cls-5" d="M91.54,99.57a26.76,26.76,0,0,0-2.39-12.12l9.19-5.71c-.68,6.39-1.77,13.51-2.44,19.74Z"/><path class="cls-5" d="M50.86,120.19c-.29,1-2.92-.36-3.94-1.46-.32-.33-.13-.75,0-1.2.86-3.41-.45-11.68-1.06-16.84h4.7C48.48,104.84,51.69,117.35,50.86,120.19Z"/><path class="cls-5" d="M45.33,84.26c1.25,4,3.34,9.27.39,13.69.46,2.34,2.32,3.15,4.81,2.56,4.35-9.88,12.23-10.13,15.82-20.7Z"/><path class="cls-5" d="M50.88,100a3.08,3.08,0,0,1-3.22,2.91,3.35,3.35,0,0,1,.88-6.56A3.09,3.09,0,0,1,50.88,100Z"/><path class="cls-2" d="M48.07,125.35l.25.91h6.46a13.66,13.66,0,0,0-1.2-2.19Z"/><path class="cls-5" d="M51.05,118.62H47.87l.21,3.82L47,124.31l.92.3.2.74,5.51-1.28C52.41,122.27,51.08,120.64,51.05,118.62Z"/><path class="cls-6" d="M41.22,100.65a6.16,6.16,0,0,0-.46,1.09c-1.38,4.22-.73,12.81-1.09,16.8v0a6.43,6.43,0,0,1-.27,1.55c-.12.36-.58.4-1.15.24a6.73,6.73,0,0,1-1.76-.88,5.65,5.65,0,0,1-1-.81c-.3-.34-.09-.76,0-1.2,1-3.16,1.25-10.49,1-15.64q0-.61-.06-1.17Z"/><path class="cls-6" d="M41.59,99.94l0,.18a4,4,0,0,1-.8,1.62A3,3,0,0,1,39,102.82a2.61,2.61,0,0,1-.79,0,2.41,2.41,0,0,1-1.65-1,3.47,3.47,0,0,1-.5-2.62,3.84,3.84,0,0,1,1-2,3.17,3.17,0,0,1,.34-.3,2.64,2.64,0,0,1,2-.62C41,96.5,41.93,98.13,41.59,99.94Z"/><path class="cls-6" d="M99.61,79.71a13.46,13.46,0,0,1-1.55,4.53,12.75,12.75,0,0,1-3.18,3.83,11.29,11.29,0,0,1-4.66,2.23,9.3,9.3,0,0,1-.92.16l-.13,0-1.78.2c-1.1.11-2.18.21-3.25.28-8.73.6-16.82-.15-22.85-2.94a20.64,20.64,0,0,1-3.72-2.18l-.1-.08a16.47,16.47,0,0,1-2.69-2.51c-.23-.28-.46-.56-.67-.85l0,0A17.41,17.41,0,0,1,50.85,73c.06-3.77,1.77-6.52,4.67-8l.31.08c5,1.27,9.07.63,15,0l2.54-.39h0c1.11-.18,2.11-.34,3.06-.54a25.41,25.41,0,0,0,6.4-2.23l.8.44c6.56,3.58,14,7.6,16.11,14.84v.19A12.06,12.06,0,0,1,99.61,79.71Z"/><path class="cls-6" d="M110,45.81c-1.37,2-2.58,3.76-3.63,5.49l-.19.32c-.35.57-.67,1.14-1,1.7-3,5.55-4.42,10.8-4.19,18.95a11.34,11.34,0,0,1-.94,4.41,7.7,7.7,0,0,1-.33.71h0a6.32,6.32,0,0,1-1.53,2l-3.08-2.17L81.24,67.52l-1.53-1.07-2.78-2-.49-.34a7.91,7.91,0,0,0,1.85-1.23h0c3.82-3.31,7.89-11.1,11.18-15,3.15-3.77,8.91-8.52,14.61-8.57a9.14,9.14,0,0,1,1.28.06l0,0,.14.19.73,1,.3.41,1,1.32.93,1.28.32.45Z"/><path class="cls-6" d="M114.71,49.19a4.8,4.8,0,0,1-1.77,3.64,6.18,6.18,0,0,1-2,1.13,6.82,6.82,0,0,1-2.15.34,6.61,6.61,0,0,1-3.52-1,4.9,4.9,0,0,1-2.45-4.13,4.41,4.41,0,0,1,0-.52,4.18,4.18,0,0,1,.37-1.32,6,6,0,0,1,5.57-3.27h0C112.05,44.09,114.71,46.37,114.71,49.19Z"/><path class="cls-6" d="M121.62,53.73a9.26,9.26,0,0,1-1.12,2.61,1.81,1.81,0,0,1-1,.87l-.8.27-1.19-2-.17,2.25-1.05-.45a1,1,0,0,1-.63-1l.07-1L110.89,54c-.68-.19-1.16-.32-1.2-.32l-2.53-1.79-.77-.55L103.17,49V40l.76-.24.61-.18a5,5,0,0,1,.84-.17,1.15,1.15,0,0,1,.26,0,5.38,5.38,0,0,1,1.7.12,5.5,5.5,0,0,1,1.51.56,6.81,6.81,0,0,1,.63.41l.2.15,1,.83a68.59,68.59,0,0,1,8.23,8.64C119.55,51,121.62,51.87,121.62,53.73Z"/><path class="cls-6" d="M41.91,124l-1.89.41-3.69.79-.14-.63-.9-.3,1.22-1.87,0-2.88v-.93h3.18v0C39.61,120.56,40.84,122.17,41.91,124Z"/><path class="cls-2" d="M43,126.17H36.56l-.23-1,3.69-.79,1.89-.41A12.4,12.4,0,0,1,43,126.17Z"/><path class="cls-6" d="M92.42,100.69h0a7,7,0,0,0-.64,1.45c0,.16-.1.33-.14.51s-.13.51-.18.78c-1,4.71-.29,12.26-.79,15.56a4.48,4.48,0,0,1-.27,1.07c-.18.44-.8.4-1.5.12h0a5.89,5.89,0,0,1-1.39-.79h0a5.34,5.34,0,0,1-.84-.77c-.27-.34,0-.75.13-1.19,1.1-3,1-9.53,1-14.56,0-.77,0-1.5,0-2.18h4.67Z"/><path class="cls-6" d="M92.77,100.69c0,.13,0,.26,0,.39A3.71,3.71,0,0,1,91.9,103l0,0a3,3,0,0,1-.41.39,2.55,2.55,0,0,1-1.93.56l-.11,0a2.59,2.59,0,0,1-1.66-1.1,3.7,3.7,0,0,1-.57-2.53,3.76,3.76,0,0,1,.69-1.73,2.85,2.85,0,0,1,1.72-1.15,2.19,2.19,0,0,1,.81,0,2.39,2.39,0,0,1,1.17.49l.29.26a3.22,3.22,0,0,1,.57.83,3.34,3.34,0,0,1,.31,1.09A2.33,2.33,0,0,1,92.77,100.69Z"/><path class="cls-6" d="M93.11,123.85l-.35.1-.47.13-4.6,1.25-.23-.84-.92-.31,1.12-1.87-.15-2.92h0l0-.9h3.18a4.07,4.07,0,0,0,0,.5c.2,1.67,1.26,3.09,2.27,4.61Z"/><path class="cls-2" d="M94.37,126.13H87.91l-.22-.8,4.6-1.25.47-.13.35-.1c.13.2.26.4.38.61l.22.35h0l.09.15A12.46,12.46,0,0,1,94.37,126.13Z"/><path class="cls-6" d="M40.1,68.73l-.17,0,.24,0Z"/><path class="cls-7" d="M99.61,79.71a13.46,13.46,0,0,1-1.55,4.53,12.75,12.75,0,0,1-3.18,3.83,11.29,11.29,0,0,1-4.66,2.23,9.3,9.3,0,0,1-.92.16l-.13,0-1.78.2c-1.1.11-2.18.21-3.25.28-8.73.6-16.82-.15-22.85-2.94a20.64,20.64,0,0,1-3.72-2.18l-.1-.08a16.47,16.47,0,0,1-2.69-2.51V79.44a28.78,28.78,0,0,0,2.4,2.31l.31.26c.56.46,1.13.9,1.71,1.29a.91.91,0,0,0,.16.11,22.45,22.45,0,0,0,4,2.19c7,3,14.76,1.93,21.2-1.89.47-.28.94-.58,1.39-.89l.09,0a29.13,29.13,0,0,0,4.41-3.7c1.4,2.9,3.25,4.87,5.48,4.12l.18-.06a4.63,4.63,0,0,0,1.32-.83A11.33,11.33,0,0,0,99.61,79.71Z"/><path class="cls-7" d="M110.73,39.1c-.36.43-.8.91-1.25,1.38a6.81,6.81,0,0,0-.63-.41,5.5,5.5,0,0,0-1.51-.56,5.38,5.38,0,0,0-1.7-.12,1.15,1.15,0,0,0-.26,0l0,0a9.14,9.14,0,0,0-1.28-.06h0c-5.7,0-11.46,4.8-14.61,8.57-3.29,3.93-7.36,11.72-11.18,15,5.68-7.54,11.14-26,26.38-25.09.57,0,1.17.1,1.78.19.35.06.71.12,1.08.2.57.11,1.16.26,1.76.43S110.24,38.93,110.73,39.1Z"/><path class="cls-6" d="M96.23,81.74l-.3,1.45a.07.07,0,0,1,0,0c-.33,1.58-.68,3.2-1,4.83-.71,3.16-1.45,6.38-2.12,9.47-.11.49-.21,1-.32,1.47l-.18.88c-.06.27-.11.53-.17.8h0c0,.27-.11.53-.16.79l-.22-.1-.62-.28-.9-.41-.21-.1-2.23-1c0-.32.1-.64.13-1a24.45,24.45,0,0,0-.49-7.93c-.24-1.06-.53-2.14-.89-3.23A9.51,9.51,0,0,1,86,82.82l0-.14c.88-5,6.4-7.08,9-5.17C96,78.26,96.58,79.65,96.23,81.74Z"/><path class="cls-6" d="M38.59,84c.62,4.06,1.87,9.55-1.73,13.63.09,2.37,1.81,3.36,4.36,3,5.83-9.36,13.66-8.8,18.85-18.91Z"/><path class="cls-6" d="M51.67,64.19c-10.31-.67-14.52,6.71-14,16,.41,7.39,3.6,8.9,7.15,9,11.12.34,15.62-3.43,16.17-12.56C61.46,68.63,58.46,64.63,51.67,64.19Z"/><path class="cls-6" d="M108.16,33.74c-2.41,1.24-3.88,4.28-4.61,7.46l3.66-.79Z"/><path class="cls-7" d="M42.44,126.17H36.56l-.23-1-.14-.63-.9-.3,1.22-1.87,0-2.88a5.65,5.65,0,0,1-1-.81c-.3-.34-.09-.76,0-1.2,1-3.16,1.25-10.49,1-15.64a3.47,3.47,0,0,1-.5-2.62,3.84,3.84,0,0,1,1-2v.14a6.52,6.52,0,0,0,0,.76,4.12,4.12,0,0,0,.36,1.4,6.22,6.22,0,0,0,.67,1.13c.16.23.34.46.53.69a1.9,1.9,0,0,1,.36,1.48c-.08.7-.35,1.44-.45,2.12-.21,1.35-.39,2.78-.49,4.14a49.83,49.83,0,0,0-.11,9.46c.07.61.16,1.21.28,1.81a16.86,16.86,0,0,0,.76,2.72,3.71,3.71,0,0,0,1,1.29A23.08,23.08,0,0,0,42.44,126.17Z"/><path class="cls-6" d="M44.12,90c-.61-.15-1.27-1.06-1.7-1.53a11.33,11.33,0,0,1-.74-.94c-.19-.26-.47-.66-.51-.62Z"/><path class="cls-7" d="M40.31,72.44c-1.12,1.67-1.43,4.4-1.56,6.5A10.62,10.62,0,0,0,40.51,85a9,9,0,0,0,1.72,2.07,15.75,15.75,0,0,0,2.59,1.31c-2.92-2.37-5-7.3-5-11.18A32.43,32.43,0,0,1,40.31,72.44Z"/><path class="cls-7" d="M85.17,81.23s0,0,0,0,0-.08-.07-.13S85.14,81.19,85.17,81.23Z"/><path class="cls-7" d="M95.07,126.13H87.91l-.22-.8-.23-.84-.92-.31,1.12-1.87-.15-2.92h0a5.34,5.34,0,0,1-.84-.77c-.27-.34,0-.75.13-1.19,1.1-3,1-9.53,1-14.56a3.7,3.7,0,0,1-.57-2.53,3.76,3.76,0,0,1,.69-1.73,24.45,24.45,0,0,0-.49-7.93c-.24-1.06-.53-2.14-.89-3.23A9.51,9.51,0,0,1,86,82.82l0-.14a.2.2,0,0,1,.06.09,4,4,0,0,0,4.47,1.93,11.79,11.79,0,0,0-.81,2.41c-.09.4-.16.8-.21,1.18-.11.79-.16,1.53-.19,2.17,0,.08,0,.16,0,.23-.08,1.66,0,3.33.09,5,0,.53.12,1.15.22,1.8a23.14,23.14,0,0,1,.38,3.13v.1c0,.12,0,.24,0,.36a17.66,17.66,0,0,1-.55,2.92,10.6,10.6,0,0,0-.22,1.53c-.23,3.51-.38,5.39-.61,9.46a21.9,21.9,0,0,0,0,3.53,8.55,8.55,0,0,0,.31,1.69h0a5.77,5.77,0,0,0,2.43,3.34c.31.2.64.38,1,.56a14.46,14.46,0,0,1,1.47.86l0,0,.17.13A10.72,10.72,0,0,1,95.07,126.13Z"/><path class="cls-7" d="M86.29,78c0,1.61-.06,3.39,1.06,4.67s3,1.32,4.54,1.33A7.78,7.78,0,0,1,86.29,78Z"/><path class="cls-7" d="M117.46,55.48l-.17,2.25-1.05-.45a1,1,0,0,1-.63-1l.07-1L110.89,54a6.82,6.82,0,0,1-2.15.34,6.61,6.61,0,0,1-3.52-1c-3,5.55-4.42,10.8-4.19,18.95a11.34,11.34,0,0,1-.94,4.41,31.75,31.75,0,0,0-.58-4.91c-.42-2.11-1.19-3.86-1.27-6A22,22,0,0,1,99.33,59c.6-2,1.47-3.85,2-5.9a25.21,25.21,0,0,0,.55-6.48,11.58,11.58,0,0,0,.91,2.08,6.12,6.12,0,0,0,3.4,2.95,5.58,5.58,0,0,0,1,.23,7.62,7.62,0,0,0,3.91-.51,6.21,6.21,0,0,0,1.87,1.49,14.17,14.17,0,0,0,3,1.26C117.23,54.48,117.26,54.79,117.46,55.48Z"/><path class="cls-2" d="M119.79,52.7c.39-.52.86-.52,1,.18a2.4,2.4,0,0,1-.39,1.68c-.43,0-.36-.65-.35-1S119.65,52.88,119.79,52.7Z"/><path class="cls-7" d="M105.62,39.74a11.85,11.85,0,0,1,2.22-5.46,51.06,51.06,0,0,1-.82,5.15A4.05,4.05,0,0,0,105.62,39.74Z"/><path class="cls-2" d="M111,44.62a3.36,3.36,0,0,1,.61.14l-.3-.62a2.83,2.83,0,0,0-2.83.94,6.16,6.16,0,0,1,1.24-.4.68.68,0,0,0-.28.59.85.85,0,0,0,1,.66.86.86,0,0,0,.87-.82A.68.68,0,0,0,111,44.62Z"/></svg>