<svg id="साइकिल" xmlns="http://www.w3.org/2000/svg" viewBox="0 0 150 160"><defs><style>.cls-1{fill:#fff;stroke:#fff;stroke-miterlimit:10;stroke-width:5px;}.cls-2{fill:#64926c;}.cls-3{fill:#8db193;}.cls-4{fill:#f3b81a;}.cls-5{fill:#ffe183;}.cls-6{fill:#9bced1;}.cls-7{fill:#e9532f;}.cls-8{fill:#8b9f90;}.cls-9{fill:#f6bfc3;}.cls-10{fill:#f29946;}.cls-11{fill:#d8d4ad;}.cls-12{fill:#663757;}.cls-13{fill:#d2cfad;}.cls-14{fill:#6b4761;}.cls-15{fill:#d2797f;}.cls-16{fill:#ef8586;}.cls-17{fill:#b17f49;}.cls-18{fill:#f2989a;}.cls-19{fill:#512b47;}.cls-20{fill:#f5f5f5;}.cls-21{fill:#e0afb3;}.cls-22{fill:#86597a;}.cls-23{fill:#925f36;}</style></defs><path class="cls-1" d="M119.3,84.16v-.68a26.86,26.86,0,0,1,22.12,14.3.58.58,0,0,0,.77.24.56.56,0,0,0,.23-.76A28,28,0,0,0,119.3,82.35v-1.1h7.08a.69.69,0,0,0,.68-.54L130,67.59h0l.1-.45.11-.51a.43.43,0,0,0,.25.19c0,.27,0,1,1.05,1.67a1.91,1.91,0,0,0-.59-1.66,1.72,1.72,0,0,1,.32,0,.54.54,0,0,0,.15,0,.64.64,0,0,0,.18-.06,3.06,3.06,0,0,0,.46.9h0s0,0,0,0a.08.08,0,0,0,0,0,.24.24,0,0,0,0,.07.11.11,0,0,0,0,.08,2.66,2.66,0,0,0,.83,2.2s.49-.87-.53-2.17c0,0,0,0,0,0s-.07-.1-.11-.14l-.05,0a.14.14,0,0,0,0,0h0c-.16-.33-.31-.66-.44-1l.1-.07a.69.69,0,0,0,.16-.22c.63.47,1.24,1,1.81,1.48a2.41,2.41,0,0,0,.34,1.3h0l-.05.09h0a2.1,2.1,0,0,0,.83,2.63s.66-1-.58-2.58v0h0s-.05-.07-.09-.11,0-.06-.06,0c-.11-.4-.23-.78-.3-1.18q1,.93,2,2a0,0,0,0,0,0,.07c0,.12,0,.29.11.35a2.77,2.77,0,0,0,1.79,1.72A4.47,4.47,0,0,0,136.14,70a0,0,0,0,0,0,0s0,0,0,0a.7.7,0,0,1-.1-.08l-.07,0s-.07,0-.1-.06h-.06a27.07,27.07,0,0,0-2-2.1,1.93,1.93,0,0,1,.79.07,2.72,2.72,0,0,1,.82.48.25.25,0,0,0,0,.17h0a2.64,2.64,0,0,0,1.69,1.39s-.07-1-1.53-1.64h0s0,0,0,0h-.06a.18.18,0,0,0-.12,0h0a1.78,1.78,0,0,0-1.68-.55q-.65-.57-1.32-1.11l.13,0a2.59,2.59,0,0,0,.59.32.76.76,0,0,0,.72,0,.58.58,0,0,0,.22-.22l.05,0a.27.27,0,0,0,0,.15,2.73,2.73,0,0,0,2.37,1,1.8,1.8,0,0,0-2.14-1.3.24.24,0,0,0-.12,0,.14.14,0,0,0-.09.06l-.06,0a1.92,1.92,0,0,1,.29-.57c.16-.18.31-.25.3-.53s-.58-.71-1-.86a.37.37,0,0,0-.07-.16.61.61,0,0,0-.63-.1l0,0h0a2.41,2.41,0,0,0-.15-.33l-.07-.08a2.19,2.19,0,0,0,.29-.17,2,2,0,0,0-.23-.21c.21,0,.43,0,.64.07a2.91,2.91,0,0,1,.24.28c.08.11.22.31.39.3a1.27,1.27,0,0,0,.8.43c.26,0,1-.4.95-.65s-.35-.28-.25-.73c0-.05.06-.09.06-.14a.61.61,0,0,0-.29-.58c-.35-.26-.86.06-1.22.37a.26.26,0,0,0-.16,0c-.24,0-.37.24-.49.43h0a.25.25,0,0,0,0,.12,7.32,7.32,0,0,0-.93-.09,1.31,1.31,0,0,0,.36-.83.6.6,0,0,0,.76,0,.25.25,0,0,0,.09-.19,1.33,1.33,0,0,0,.63-1.13,1.19,1.19,0,0,0-1.3-1.09c-.78.06-.89.71-.77,1.35a.86.86,0,0,0,.1.19c-.12,0-.22,0-.24.22a.38.38,0,0,0,.16.32c.18.15.41.14.37.47a4.93,4.93,0,0,1-.27.64,1.1,1.1,0,0,0-1.22.13l-.39.06a3,3,0,0,0,0-.42,3,3,0,0,0,1-.5,2.43,2.43,0,0,0-.91-.28c.18-.19.29-.42.14-.61a1,1,0,0,0,0-.79.65.65,0,0,0-.46-.3.82.82,0,0,0-.75-.52l.35-.33c.73.57,1.6.75,1.58-.28h0a.28.28,0,0,0,.22-.24.19.19,0,0,0,0-.15,4,4,0,0,0,1.28,0c.35,0,1.07-.18,1.05-.67,0-.34-.35-.45-.67-.48.37-.2.78-.51.58-.86a.56.56,0,0,0-.64-.2.88.88,0,0,0,.36-1.18C133,54,131.05,55.43,131,57.2c-.23.12-.44.26-.66.4.66-1.07.86-2.73-.52-2.06a1.62,1.62,0,0,0-.47.33,1.69,1.69,0,0,0-1.06-.09q.39-.64.75-1.32a3.4,3.4,0,0,0,.51-1.21.51.51,0,0,0-.48-.58.72.72,0,0,0-.41.11,4.69,4.69,0,0,0,.45-3.35.08.08,0,0,0-.13,0,8.14,8.14,0,0,0-1.48,1.87l-.27-.6a1.69,1.69,0,0,0-.25-.48c-.17-.15-.38,0-.5.12a3.75,3.75,0,0,0-.42,1.19,8.8,8.8,0,0,0-.26,1.26c-.2-.26-.27-.67-.64-.73s-.43.25-.49.5-.09.41-.12.61a.84.84,0,0,0-.15-.18c-.37-.29-.65.32-.81.74a2.15,2.15,0,0,0-.31-.65,3,3,0,0,0,.44-.7s-1-.14-1.79,1.18a.39.39,0,0,0-.24.1.49.49,0,0,0-.14.44,8.7,8.7,0,0,1-.69.67.3.3,0,0,0-.29-.18,22.27,22.27,0,0,1,.77-2.26,2.53,2.53,0,0,0,1.1-.77h.1a2.09,2.09,0,0,0,2.16-1.71s-1.14-.27-2.21,1.46h0a.33.33,0,0,0-.07.13s-.05,0,0,.07c-.34.25-.65.49-1,.7q.51-1.29,1.14-2.52s.06,0,.06,0,.27-.11.28-.22a2.79,2.79,0,0,0,1-2.28,4.52,4.52,0,0,0-1.4,2.13l0,0s0,0,0,.05l0,.12v.08s0,.07,0,.11a.11.11,0,0,0,0,.05,28,28,0,0,0-1.24,2.66,1.8,1.8,0,0,1-.21-.76,2.51,2.51,0,0,1,.15-.94.24.24,0,0,0,.15-.09h0a2.6,2.6,0,0,0,.7-2.07,2.18,2.18,0,0,0-1,2v0s0,0,0,0h0a.17.17,0,0,0,0,.1s0,0,0,.06h0a1.75,1.75,0,0,0,.09,1.76c-.22.54-.41,1.08-.58,1.63a2.78,2.78,0,0,1-.49-1.65.18.18,0,0,0,.13-.06,2.71,2.71,0,0,0,.15-2.58,1.81,1.81,0,0,0-.42,2.57.18.18,0,0,0,.09.07,2,2,0,0,0,.51,1.74c0,.14-.07.29-.11.43s-.23.35-.36.52a8.62,8.62,0,0,0-.21-1,2.79,2.79,0,0,0-.34-.94l0,0a2.1,2.1,0,0,0-.56-.74,1.87,1.87,0,0,0-.27,1.11s-.11.07-.15.11a6.35,6.35,0,0,0-1-1.17.06.06,0,0,0-.1,0,3.66,3.66,0,0,0,.22,2.33,2.44,2.44,0,0,0-.1.24h-.09a.35.35,0,0,0-.18,0c.39-3.24-1.65-3.82-1.65-3.82a2.71,2.71,0,0,0-.42,1.68,1,1,0,0,0-.7.2,1.32,1.32,0,0,0-.51,1.19.2.2,0,0,0-.09.18.59.59,0,0,0,.47.6,1.28,1.28,0,0,0-.44.79,5.77,5.77,0,0,0-.64-.67.2.2,0,0,0,.09-.09h0a.76.76,0,0,0,0-.64.25.25,0,0,0-.13-.12c0-.48,0-1.07-.45-1.19a.64.64,0,0,0-.64.13s0,.1-.07.13c-.29.36-.62.2-.73.26s-.11,1,.07,1.14a1.3,1.3,0,0,0,.83.38c.1.13.34.12.48.12a1.9,1.9,0,0,1,.36,0,6.29,6.29,0,0,1,.78.85,1.3,1.3,0,0,0-.7-.11,2.25,2.25,0,0,0-.35.09l0,0v0a.62.62,0,0,0-.47-.43.26.26,0,0,0-.17,0c-.4-.27-1-.55-1.32-.3s-.19.33-.23.56h-1.32a1.23,1.23,0,0,0-1.24,1.24v1.1H105.2c0-.16,0-.31,0-.46h.07a.74.74,0,0,0,0-1.47h-.17c-.49-5.27-3.45-9.62-7.48-11.47V42.59a.74.74,0,0,0-1.47,0v.6H86.35a2.45,2.45,0,1,0,0,4.9h9.78v.6a.66.66,0,0,0,.11.36,2,2,0,0,1-.37.84,2,2,0,0,1-1.53.77l-7.91.16a3.09,3.09,0,0,0-2.68,1.65l-.16.31a.56.56,0,0,0,.23.76.66.66,0,0,0,.27.06.56.56,0,0,0,.5-.3l.16-.31a2,2,0,0,1,1.7-1.05l7.92-.15a3.09,3.09,0,0,0,2.39-1.21,3.14,3.14,0,0,0,.59-1.35.73.73,0,0,0,.22-.39,10.88,10.88,0,0,1,4.12,7.58h-.54a.74.74,0,1,0,0,1.47h.64c.08,1.68.15,3.48.22,5.39q.06,1.48.12,3h0l0,0-1.27,1.47h0c-2.85,3.3-9.39,11-12.74,16.36-4.9,7.78-11.1,10.16-18.44,7.11l-.48-.2c-.41-.18-.82-.38-1.24-.59L62,73.88h0a.74.74,0,0,0,0-1.47h-.94l-2.27-6.34a10.27,10.27,0,0,0,1.11-.44,17.11,17.11,0,0,1,8.73-1.47l.91.08A5.59,5.59,0,0,0,64,60.09l-5.38.14-11.19-.66a1,1,0,0,0-1,1.52c.13.27-1.15.71-1.15.71-.21,0-.28.73-.08.75l.06.36c-.2,0-.26.73-.06.75l.79.07-.17,1.19s-.94.39-.95.59.9.47.9.47l-.6.31a.39.39,0,0,0-.16.49c0,.13.53,1,2.48,1a10.4,10.4,0,0,0,4.76-1.31,6.89,6.89,0,0,1,.72-.36,14.65,14.65,0,0,0,3.12.35l2.12,5.92h-.31a.74.74,0,1,0,0,1.47h.5l.46,1.28h0l4.18,11.71-1.41,1.26v0l-1.79,1.44-4.43-6h0L54.1,81.8h1.25a1.13,1.13,0,1,0,0-2.26H15.94a1.13,1.13,0,0,0,0,2.26h2.19l.9,1.81h0L20.22,86a28.05,28.05,0,0,0-14.07,24.3.57.57,0,0,0,.57.56.56.56,0,0,0,.56-.56A27,27,0,0,1,20.72,87l.3.6A26.25,26.25,0,1,0,59.74,116.4l12,1a6.48,6.48,0,0,0,.77.06,6.26,6.26,0,0,0,3.63-1.08h0l.11-.09.1-.07,3.69,3.48h0l.29.27h-.64a1,1,0,1,0,0,2H88a1,1,0,0,0,0-2H83.65l-.29-.27h0l-5.43-5.13a6.26,6.26,0,0,0,1-3.31.75.75,0,0,0,0-.15c.14-.15.29-.3.43-.46a.47.47,0,0,0,.1-.1,73.66,73.66,0,0,0,5.81-7.42c1-1.35,2-2.78,3-4.31.29-.4.58-.82.87-1.24.66-1,1.34-1.93,2-2.92a34.83,34.83,0,0,1,6.39-6.86,34,34,0,0,1,4.71-3.28l.19-.11.84-.46c.08.71.16,1.41.25,2.1a28.08,28.08,0,0,0-14,24.28.57.57,0,0,0,.57.57.56.56,0,0,0,.56-.57,26.94,26.94,0,0,1,13.07-23.07c0,.24.06.48.1.72a26.26,26.26,0,1,0,15.46-3.83ZM51.9,65.84a8.39,8.39,0,0,1-2.85,1c-1.81.36,0-.58,0-.58h0A.38.38,0,0,0,49.5,66a.37.37,0,0,0-.34-.41l-.07-.32h0a.38.38,0,0,0,.38-.34.37.37,0,0,0-.34-.41L48.69,64a9.84,9.84,0,0,0,3.23,1.83ZM136,120.77l-15.58-9s.06-.1.08-.15l16.9,6.15A21.55,21.55,0,0,1,136,120.77Zm-38.18-3,16.9-6.15s.06.1.08.15l-15.58,9A21.55,21.55,0,0,1,97.81,117.77ZM99.19,100l10.18,5.88a20.67,20.67,0,0,0,1.29,1.8L97.79,103A20.91,20.91,0,0,1,99.19,100Zm4.67-5.67,1.62,1.92a43.91,43.91,0,0,0,1.65,5.12l-5.61-4.7A20.68,20.68,0,0,1,103.86,94.29Zm4-2.72a18.78,18.78,0,0,1,2.29-1l6.17,16.93a.71.71,0,0,0-.15.08l-7.76-13.45C108.24,93.28,108.06,92.44,107.89,91.57Zm16.77-1.15-5.36,14.72v-3.32l2.16-12.26A21.23,21.23,0,0,1,124.66,90.42ZM137.41,103l-16.92,6.16s-.06-.09-.08-.14l15.6-9A20.91,20.91,0,0,1,137.41,103Zm-16.68,7.23c0-.06,0-.11,0-.17l17.73-3.13a21.19,21.19,0,0,1,.29,3.3Zm-.07-.55a.88.88,0,0,1,0-.15l16.93-6.17a21.2,21.2,0,0,1,.85,3.2Zm-.9-1.54,11.58-13.8a20.68,20.68,0,0,1,2.34,2.34l-13.8,11.57Zm-.29-.25-.13-.1,9-15.6a19.93,19.93,0,0,1,2.71,1.9Zm-.17-.8v-.79L125,90.55a20.91,20.91,0,0,1,3,1.4Zm-2.26-.93L114.11,89.5a20.33,20.33,0,0,1,2.93-.28Zm-3.3-16.55,3.13,17.75-.16,0-6.17-16.94A21.23,21.23,0,0,1,113.74,89.56Zm2.12,18.18,0,0-.3-.2-4-4.81a33.91,33.91,0,0,1-2.71-7.32Zm-2.24-1.82-.19-.22Zm-16-2.61,13.51,4.92a12.82,12.82,0,0,0,1,1l-15.33-2.7A22.46,22.46,0,0,1,97.66,103.31Zm-.91,3.57,15.92,2.81c.21.17.43.33.65.49H96.46A21.19,21.19,0,0,1,96.75,106.88Zm17.11,3.68.36.21-17.46,3.08a21,21,0,0,1-.29-3.29Zm.68.54a1,1,0,0,1,0,.16l-16.91,6.16a21.23,21.23,0,0,1-.86-3.2Zm.9,1.55-11.56,13.77a20.59,20.59,0,0,1-2.34-2.33l13.78-11.56Zm.29.24.13.1-9,15.57a20.5,20.5,0,0,1-2.71-1.89Zm.47.29.15.08-6.15,16.89a20.91,20.91,0,0,1-3-1.4Zm.51.2.16,0-3.12,17.71a20.77,20.77,0,0,1-3.19-.85Zm.53.1.17,0v18a21,21,0,0,1-3.29-.28Zm.55,0,.17,0,3.12,17.72a21,21,0,0,1-3.29.28Zm3.67,17.63-3.13-17.71.16,0,6.16,16.9A21.39,21.39,0,0,1,121.46,131.13Zm3.54-1-6.15-16.89.15-.08,9,15.57A21.55,21.55,0,0,1,125,130.15Zm3.33-1.59-9-15.57.13-.1L131,126.67A21.08,21.08,0,0,1,128.33,128.56Zm3-2.14-11.56-13.77.12-.12,13.78,11.56A20.59,20.59,0,0,1,131.32,126.42Zm6.2-9-16.91-6.16a1,1,0,0,1,0-.16l17.72,3.12A20.11,20.11,0,0,1,137.52,117.42Zm.93-3.57-17.73-3.13s0-.11,0-.16h18A23.67,23.67,0,0,1,138.45,113.85Zm-18.22-5.22a.69.69,0,0,0-.11-.13l13.81-11.58a20.5,20.5,0,0,1,1.89,2.71Zm-.93-9V89.28c.6,0,1.2.12,1.79.22Zm-14-4.27L104.15,94c.22-.19.45-.36.68-.54C105,94.13,105.1,94.75,105.25,95.35Zm-4,1.57,6.17,5.17a25.83,25.83,0,0,0,1.53,3.07l-9.59-5.53A20.5,20.5,0,0,1,101.27,96.92ZM115,112.1a1.34,1.34,0,0,0,.11.14L101.29,123.8a21.08,21.08,0,0,1-1.89-2.7Zm18.94,11.7-13.79-11.56a1.34,1.34,0,0,0,.11-.14l15.57,9A21.08,21.08,0,0,1,133.91,123.8ZM20.65,81.8H51.28l1.34,1.81h0L58.1,91,56,92.68A28,28,0,0,0,22.22,85L21,82.55h0ZM69.53,105l-9.52.49a26.22,26.22,0,0,0-4-9.9l.52-.42A26.38,26.38,0,0,1,58,97.76a.57.57,0,0,0,1-.53,28.2,28.2,0,0,0-1.67-2.74l5-4h0l.34-.28,1.15-.92ZM91,86a143.06,143.06,0,0,1,10.19-13.33h0l1.08-1.28.13-.14c.15,3,.34,6.08.61,9.13l-.17.08-.33.16-.28.14a37.84,37.84,0,0,0-13.75,12c-1,1.44-2,2.84-2.93,4.19-2.61,3.76-5,7.23-7.14,9.78-.22.27-.44.52-.65.76a6.29,6.29,0,0,0-4.63-2.55l-.4-1.12h0l-3.19-8.93.14,0,.57.18q.3.11.6.18l.47.13.36.1h0a17.29,17.29,0,0,0,3.92.48,15.26,15.26,0,0,0,8.6-2.67A23.78,23.78,0,0,0,91,86ZM52.6,120.74l-10-5.77,4.88.41L54,117.75A20.91,20.91,0,0,1,52.6,120.74Zm-38.18-3,16.3-5.93c0,.08.07.17.11.25l-15,8.67A20.91,20.91,0,0,1,14.42,117.75ZM15.8,99.93,31,108.71c0,.07-.09.14-.13.22l-16.47-6A21.55,21.55,0,0,1,15.8,99.93Zm4.67-5.67,9.35,11.15.85,1.72L18.13,96.6A21.54,21.54,0,0,1,20.47,94.26Zm32,5.34-5,2.91L52,98.84ZM50.63,97l-5.77,4.64,5.68-4.76Zm-12.28,9.61-.8,0L48,94.26a21.54,21.54,0,0,1,2.34,2.34Zm-1.32.07-.51,0L45,92.12A20.5,20.5,0,0,1,47.66,94Zm-1,0-.35,0,5.91-16.24a19.93,19.93,0,0,1,3,1.41Zm-.77,0H35l3-17.25a21.2,21.2,0,0,1,3.2.85Zm-.66,0-.24,0V89.19a21.19,21.19,0,0,1,3.3.28Zm-.62,0-.23,0-3.07-17.4a21.19,21.19,0,0,1,3.3-.28Zm8.53-.44,2.92-2.35,7.15-4.13a21.55,21.55,0,0,1,1.4,3l-9.24,3.37ZM30.35,89.54l3.06,17.39-.22.06-6-16.6A21.2,21.2,0,0,1,30.35,89.54Zm15.72,16.69,8.08-2.94a22.93,22.93,0,0,1,.71,2.49Zm8.54-12.42A26.22,26.22,0,0,0,23,86.58l-.3-.61a26.91,26.91,0,0,1,32.42,7.41ZM26.79,90.52l5.06,13.89-3.72-7.5-2.84-5.75C25.78,90.93,26.28,90.71,26.79,90.52ZM14.27,103.29l16.46,6a2.25,2.25,0,0,0-.08.24l-17.23-3A21.2,21.2,0,0,1,14.27,103.29Zm-.91,3.57,17.2,3,0,.26H13.07A21,21,0,0,1,13.36,106.86Zm17.13,3.67a2.23,2.23,0,0,0,0,.27l-17.16,3a22.49,22.49,0,0,1-.29-3.3Zm.06.65a2.68,2.68,0,0,0,.07.27l-16.33,5.94a20,20,0,0,1-.86-3.19Zm1,2L20.49,126.4a22.38,22.38,0,0,1-2.34-2.33L31.39,113C31.46,113,31.52,113.11,31.58,113.18Zm.29.24.23.19-8.62,14.93a21.08,21.08,0,0,1-2.7-1.89Zm.57.38a1.59,1.59,0,0,0,.26.14l-5.89,16.19a21.55,21.55,0,0,1-3-1.4Zm.62.27a2.29,2.29,0,0,0,.28.09l-3,17a21.2,21.2,0,0,1-3.2-.85Zm.66.15c.1,0,.2,0,.3,0v17.21a21,21,0,0,1-3.29-.29Zm.68.07.32,0,3,16.86a21,21,0,0,1-3.29.29Zm3.66,16.82-3-16.76.36,0,5.78,15.88A20.77,20.77,0,0,1,38.06,131.11Zm3.55-1-5.72-15.72.47,0,8.24,14.28A20.91,20.91,0,0,1,41.61,130.13Zm3.32-1.59-8.11-14,.67.05,10.15,12.11A20.5,20.5,0,0,1,44.93,128.54Zm3-2.14L38,114.59l1.06.09,11.19,9.39A22.38,22.38,0,0,1,47.93,126.4ZM29.11,104,20.76,94a19.57,19.57,0,0,1,2.53-1.79ZM17.88,96.89,31.09,108l.17.33-.07.07L16,99.6A21.18,21.18,0,0,1,17.88,96.89ZM31,112.41a1.28,1.28,0,0,0,.15.25L17.9,123.78A21.18,21.18,0,0,1,16,121.07Zm19.51,11.37-10.78-9,2,.17,10.69,6.17A21.18,21.18,0,0,1,50.52,123.78Zm3.61-6.39-5.2-1.89,5.65.47C54.45,116.45,54.3,116.93,54.13,117.39Zm52-40.11c-.22-3-.38-5.91-.51-8.73h3.44l1,8.73Zm8-19.2a.89.89,0,0,1,.73.08l-.16.07a1.6,1.6,0,0,0,.68,1,7.73,7.73,0,0,1,.19.8,1.79,1.79,0,0,0-.73.51A1.07,1.07,0,0,0,114,60a3,3,0,0,0,.06-.52,4.07,4.07,0,0,0,0-.49h0C114.33,58.79,114.28,58.38,114.16,58.08Zm8.13-2.87a3.67,3.67,0,0,0,.6.52.28.28,0,0,0-.13.07.34.34,0,0,0,.06.42,1.77,1.77,0,0,0,.55.37c0,.15.07.3.12.45s.11.31.17.47,0,.34,0,.51a1.57,1.57,0,0,1-.21.24,1,1,0,0,0-.29.77,2.21,2.21,0,0,0,.55,1.23c0,.19,0,.39,0,.59a2.15,2.15,0,0,0-.28-.49,1.22,1.22,0,0,0-1.31-.54.92.92,0,0,0-.19-.33.76.76,0,0,1-.19-.21.41.41,0,0,1,0-.34c0-.14.11-.27.15-.41a5,5,0,0,0,.21-1v0a1.45,1.45,0,0,0,.29-.88,1.53,1.53,0,0,0-.3,0h0c-.05-.21-.26-.42-.48-.32a1.14,1.14,0,0,0-.33.36l-.26.34c0-.24,0-.47,0-.71a1.68,1.68,0,0,0,.32-.54A1.3,1.3,0,0,0,122.29,55.21Zm6,5.93a1.27,1.27,0,0,0-.32-.51l.09-.14a2.6,2.6,0,0,0,.4.49ZM130,63.85a.61.61,0,0,1,.13,0l-.12,0Zm-6-3.26-.14.21v-.34Zm.13.07a2.18,2.18,0,0,0,1-.19,4,4,0,0,0-.36.48,1,1,0,0,0-.76-.15Zm-5.75-.51,0,0c-.08.13-.14.26-.19.36l0-.22A.74.74,0,0,0,118.44,60.15Zm-.65.29,0,.28a1.65,1.65,0,0,0-.33-.32A.92.92,0,0,0,117.79,60.44Zm.18,1.12c0,.25.08.48.12.7a.87.87,0,0,0-.85.17,1,1,0,0,0-.39-.47.92.92,0,0,0,.19-.33A4.14,4.14,0,0,0,118,61.56Zm-1.25-2a.93.93,0,0,0,.34.62,2.12,2.12,0,0,0-.81-.1.92.92,0,0,0-.48-.07c0-.22-.1-.43-.16-.65A2.45,2.45,0,0,0,116.72,59.55Zm-1.19,5.78v0h-.07Zm4,0v0h0Zm3.34-.25c0,.09.06.18.1.27h-.16A1.31,1.31,0,0,0,122.89,65.09Zm5.08.08a.65.65,0,0,0,.24,0h0s0,.07,0,.17h-.26A1.25,1.25,0,0,0,128,65.17Zm.48,0h0a1.32,1.32,0,0,0,.68-.5c.2.1.4.2.59.31a1.66,1.66,0,0,0,0,.44.58.58,0,0,0-.18,0h-.9A2.09,2.09,0,0,0,128.45,65.16Zm1.33-.17.12.08s0,.06,0,.1a.18.18,0,0,0,0,.09,1.11,1.11,0,0,0-.07.16h0C129.82,65.28,129.8,65.14,129.78,65Zm.16-.07c-.23-.14-.46-.27-.71-.4a1.51,1.51,0,0,0,.15-.28A4.41,4.41,0,0,1,130,64a1,1,0,0,1,.55.55A1,1,0,0,0,129.94,64.92Zm-.48-.85h0s0,0,0,0l.34-.12h0Zm-1.77-3.8a3.34,3.34,0,0,0-.24-.9l.31-.19c.09,0,.17-.12.26-.18a3.37,3.37,0,0,0,.45.33C128.2,59.64,127.94,60,127.69,60.27Zm-11.8-2.71A1.39,1.39,0,0,0,116,58a2.41,2.41,0,0,0-.83.07c-.07-.17-.12-.35-.2-.52a3.78,3.78,0,0,1,.33-.22A2.12,2.12,0,0,0,115.89,57.56Zm16.35,8.89-.28-.19a1.2,1.2,0,0,0,0-.7,1,1,0,0,0-.21-.37l.2,0,.27.07,0,0a1,1,0,0,0,0,.93.66.66,0,0,0,.12.17Zm.35-2a.91.91,0,0,0-.34.5.63.63,0,0,0,0,.24,2.82,2.82,0,0,0-.55-.11l-.16-.13a.24.24,0,0,0,0-.19,1,1,0,0,0-.71-.29l-.05,0a1.26,1.26,0,0,0-.56-.56,1.35,1.35,0,0,1,.44-.05h0l.08.06h0a1.54,1.54,0,0,0,1.76.1A.85.85,0,0,1,132.59,64.44Zm-1.82-.75-.05.05a.09.09,0,0,0-.07,0l-.05,0a0,0,0,0,0,0,0,1.12,1.12,0,0,0-.41,0C130.38,63.77,130.57,63.72,130.77,63.69Zm-.34-.13c-.31.07-.61.17-.92.27a1.18,1.18,0,0,0-.14-1l0,0h0a1.19,1.19,0,0,0,1,.27A3,3,0,0,1,130.43,63.56Zm-1.76-2.35s-.06.06-.08.11c-.11.45.22.76.62.93,0,.16.2.25.42.29l-.21.12a.2.2,0,0,0,0,.05l0,0v0h-.07a2.1,2.1,0,0,0-1.14-.56,1.67,1.67,0,0,0,.16-.82l.27-.24Zm.71-1.11a4.35,4.35,0,0,0-1.26.25l.3-.45a15.17,15.17,0,0,1,1.94-2,3.23,3.23,0,0,0,.38.45,1.83,1.83,0,0,0-.14.35,4.31,4.31,0,0,0-1.32.29,3.27,3.27,0,0,0,.57.68Zm1.92-2.6a3.47,3.47,0,0,0-.61.12l.35-.26h.31A.58.58,0,0,0,131.3,57.5Zm-2.22-1a2.52,2.52,0,0,0,.61,1.65c-.23.2-.46.41-.68.63a3,3,0,0,0-.23-1.94Zm-4.55-2q0,.31.06.63l-.21-.27Q124.46,54.72,124.53,54.52Zm-2-.83a.64.64,0,0,0,0,.07l-.07,0Zm-.89.5a1.78,1.78,0,0,0,.22.46,2,2,0,0,0-.55.9.14.14,0,0,0-.05.15h0a.06.06,0,0,0,0,.06l0,.09h0l-.21.29A5.3,5.3,0,0,0,121,55a.36.36,0,0,0,0-.1A3.27,3.27,0,0,0,121.62,54.19Zm-7.23,1.21c.24-.23.37,0,.6,0a.36.36,0,0,0,.35-.07c.13-.13.11-.23,0-.32a.72.72,0,0,0,.21,0,1.84,1.84,0,0,0,.4-.26,5.64,5.64,0,0,0,.93.89h-.11a.77.77,0,0,0-.41.21,2.26,2.26,0,0,0-2.12-.22A.78.78,0,0,1,114.39,55.4Zm-.26.47a3.27,3.27,0,0,0,1,1.35,1.45,1.45,0,0,0-.26.17A7.35,7.35,0,0,0,114,56S114.09,56,114.13,55.87Zm-1.17.52c.52-.32,1.15.11,1.17.09a8.53,8.53,0,0,1,.87,1.57,1.26,1.26,0,0,0-.91-.14s0,0,0,0a1,1,0,0,0-.67-.39h0a3.3,3.3,0,0,0-.57-.61A.8.8,0,0,0,113,56.39Zm-7,4.21h2.15v1.1a1.23,1.23,0,0,0,1.24,1.24h1.21a3.39,3.39,0,0,0,1.86-.55.89.89,0,0,0-.32.54l-.17.24a.71.71,0,0,0-1,.27.92.92,0,0,0,.12,1.16,1,1,0,0,0-.43.76h-1.15a.7.7,0,0,0-.7.77l.11.92h-3.34c0-1.34-.11-2.64-.15-3.9,0-.87-.07-1.72-.1-2.55H106Zm.25,18.19h4l.2,1.84a.69.69,0,0,0,.69.62h6v1a27.93,27.93,0,0,0-10.24,2.15C106.57,82.59,106.39,80.69,106.23,78.79Zm.71,6.83A26.8,26.8,0,0,1,117,83.43v.68a26.36,26.36,0,0,0-10,2.21Z"/><path class="cls-2" d="M127.76,59.18a5.16,5.16,0,0,0,.64-.49c.13-.11.39-.27.42-.45s-.08-.21-.18-.25a7.13,7.13,0,0,0-.78-.26A15.76,15.76,0,0,0,129.5,56a.08.08,0,0,0,0-.1,1.73,1.73,0,0,0-1.16-.12q.39-.64.75-1.32a3.4,3.4,0,0,0,.51-1.21.51.51,0,0,0-.48-.58.72.72,0,0,0-.41.11,4.69,4.69,0,0,0,.45-3.35.08.08,0,0,0-.13,0,8.14,8.14,0,0,0-1.48,1.87l-.27-.6a1.69,1.69,0,0,0-.25-.48c-.17-.15-.38,0-.5.12a3.75,3.75,0,0,0-.42,1.19,8.8,8.8,0,0,0-.26,1.26c-.2-.26-.27-.67-.64-.73s-.43.25-.49.5a6.85,6.85,0,0,0-.11,2.63l-.33-.43c-.11-.14-.23-.37-.41-.45s-.55.14-.61.4a3.32,3.32,0,0,0,0,1.09,6.19,6.19,0,0,0,.26,1.28c.06.18.12.35.19.52a.5.5,0,0,1,0,.43,1.5,1.5,0,0,1-.24.27,1,1,0,0,0-.29.77,2.37,2.37,0,0,0,.95,1.61S124.78,61,127.76,59.18Z"/><path class="cls-3" d="M124.81,59.34l.1-.2a3.57,3.57,0,0,1-.78-2.66s.05,0,.05,0a8.94,8.94,0,0,0,.21,1.36,5.28,5.28,0,0,0,.57,1.2c.35-.7.65-1.42.94-2.14a3.88,3.88,0,0,1-.59-1.31,3.23,3.23,0,0,1-.08-1.45,0,0,0,0,1,0,0,9.76,9.76,0,0,0,.14,1.42,5.22,5.22,0,0,0,.51,1.25c.29-.74.56-1.5.86-2.25l0,0a3.46,3.46,0,0,1-.11-2.2s0,0,0,0a4.12,4.12,0,0,0-.08,1.21,9.18,9.18,0,0,1,.19.91,14.94,14.94,0,0,1,1.2-2.44s0,0,0,0c-.18.37-.36.75-.53,1.12.14-.1.29-.19.43-.3a2.21,2.21,0,0,0,.39-.52s.05,0,.05,0c0,.43-.55.81-.93.94-.2.43-.38.86-.56,1.3s-.27.69-.4,1a3.81,3.81,0,0,0,.71-.62,5.71,5.71,0,0,0,.54-.84s.06,0,0,0a2.51,2.51,0,0,1-1.35,1.54c-.16.44-.33.88-.51,1.31s-.24.62-.37.93a5.15,5.15,0,0,0,1-.44,7.08,7.08,0,0,0,.9-.74s0,0,0,0a3.07,3.07,0,0,1-2,1.23,16.28,16.28,0,0,1-.91,1.88,9.31,9.31,0,0,0,1.2-.47,11.74,11.74,0,0,0,1.24-.89,0,0,0,0,1,0,0,3.64,3.64,0,0,1-1.18,1,3.84,3.84,0,0,1-1.36.5,8.31,8.31,0,0,1-1.08,1.47s-.08,0-.06,0A17.85,17.85,0,0,0,124.81,59.34Z"/><path class="cls-3" d="M125.52,63.8s2.63-5.67,6.38-7a12.36,12.36,0,0,0-3.48,3.11S125.57,64.27,125.52,63.8Z"/><path class="cls-3" d="M129.8,58.27s-1.69-1.89,0-2.73S130.83,57.54,129.8,58.27Z"/><path class="cls-3" d="M128.76,59.49s-2.29-1.08-1-2.53S129.42,58.42,128.76,59.49Z"/><path class="cls-3" d="M127.69,60.86s-2.52-.18-1.86-2S127.92,59.62,127.69,60.86Z"/><path class="cls-3" d="M131,57.36s3.37.14,2.68-1.61S130.92,55.52,131,57.36Z"/><path class="cls-3" d="M130.28,57.76s2.26-.92,2.29.53S130.89,58.8,130.28,57.76Z"/><path class="cls-3" d="M128,60.4s2.47-1,2.5.58S128.64,61.54,128,60.4Z"/><path class="cls-3" d="M129.28,59s2.26-.92,2.3.52S129.89,60,129.28,59Z"/><path class="cls-4" d="M114.93,65.18c.35-1-.66-1.19-.85-1.21.38-.89-.32-1.18-.7-1.37s-1-.14-1.43.57a.71.71,0,0,0-1,.27.92.92,0,0,0,.12,1.16,1,1,0,0,0-.41,1.16,1.09,1.09,0,0,0,.89.84,1,1,0,0,0,.69-.12.84.84,0,0,0,1,.33,1,1,0,0,0,.73-.91C114.41,66,114.78,65.59,114.93,65.18Z"/><path class="cls-5" d="M113,65.87a1.32,1.32,0,0,0-.28,0,1,1,0,0,1-.29,0,1.25,1.25,0,0,1-.49-.33l0,0a.3.3,0,0,0,0,.08,1,1,0,0,0,.48.4.56.56,0,0,0,.6,0S113,65.88,113,65.87Z"/><path d="M113,64.61a.55.55,0,0,0-.72-.21.43.43,0,0,0-.18.38.51.51,0,0,0,.6.53A.49.49,0,0,0,113,64.61Z"/><path class="cls-5" d="M112.61,65.51a3.18,3.18,0,0,0-.32-.16.75.75,0,0,1-.36-.7.89.89,0,0,0-.05.13.74.74,0,0,0,.2.61,1.07,1.07,0,0,0,.28.19c.06,0,.19.08.26,0S112.65,65.54,112.61,65.51Z"/><path class="cls-5" d="M111.89,64.17a.81.81,0,0,0-.35.43.67.67,0,0,0,0,.57s0,0,0,0a.23.23,0,0,0,0-.16c0-.1,0-.21,0-.31a1.45,1.45,0,0,1,.26-.51S111.9,64.16,111.89,64.17Z"/><path class="cls-5" d="M112.71,64.14a.38.38,0,0,0-.4,0,.58.58,0,0,0-.34.39,1.29,1.29,0,0,1,.27-.23.53.53,0,0,1,.35-.05s.14,0,.17,0S112.73,64.16,112.71,64.14Z"/><path class="cls-5" d="M113.29,64.5s-.06,0-.05,0a.79.79,0,0,1-.23,1s0,0,0,0c.2,0,.35-.22.4-.39A.74.74,0,0,0,113.29,64.5Z"/><path class="cls-5" d="M113.77,65.09a.17.17,0,0,0,0-.14.57.57,0,0,0-.16-.35s0,0,0,0a.47.47,0,0,1,.08.38s-.05.08-.06.12a.57.57,0,0,0,0,.13.51.51,0,0,1-.42.5s0,0,0,0a.28.28,0,0,0,.18,0,.49.49,0,0,0,.35-.44V65.2A.37.37,0,0,1,113.77,65.09Z"/><path class="cls-5" d="M113.37,64c-.11-.09-.4-.2-.52-.07l-.06,0a1.19,1.19,0,0,1,.46.12.42.42,0,0,1,.18.41s0,0,0,0A.4.4,0,0,0,113.37,64Z"/><path class="cls-5" d="M112.79,63.79a.34.34,0,0,0-.4-.11c-.1,0-.29.13-.3.26s0,0,0,0a.67.67,0,0,1,.25-.16.61.61,0,0,1,.4,0S112.8,63.8,112.79,63.79Z"/><path class="cls-5" d="M113.68,63.87a.34.34,0,0,0-.25-.17s0,0,0,0h0c.17,0,.23.28.29.42a0,0,0,1,0,0,0C113.82,64.06,113.75,64,113.68,63.87Z"/><path class="cls-6" d="M134,66.78a2.73,2.73,0,0,0,2.37,1,1.81,1.81,0,0,0-2.26-1.3S134,66.55,134,66.78Z"/><path class="cls-6" d="M135.75,70a2.87,2.87,0,0,0,1.9,2.07,4.58,4.58,0,0,0-1.66-2.2S135.73,69.75,135.75,70Z"/><path class="cls-6" d="M134,69.28a2.1,2.1,0,0,0,.83,2.63s.72-1-.68-2.72C134.15,69.19,134.1,69,134,69.28Z"/><path class="cls-6" d="M135.36,68.42a2.64,2.64,0,0,0,1.69,1.39s-.07-1.06-1.57-1.66C135.48,68.15,135.24,68.05,135.36,68.42Z"/><path class="cls-6" d="M132,67.75a2.65,2.65,0,0,0,.81,2.35s.57-.95-.69-2.37C132.13,67.73,132,67.6,132,67.75Z"/><path class="cls-6" d="M132.28,65.3a1.69,1.69,0,0,0,2.18.27,1.53,1.53,0,0,0-2-.48S132.23,65.1,132.28,65.3Z"/><path class="cls-6" d="M130.67,63.94a1.67,1.67,0,0,0,2.17-.15s-1.12-1.27-2.12,0C130.72,63.74,130.55,63.74,130.67,63.94Z"/><path class="cls-6" d="M130.43,66.7s-.32,1,1,1.79a1.93,1.93,0,0,0-.89-1.92S130.46,66.5,130.43,66.7Z"/><path class="cls-6" d="M128.21,65.19s-.18,1.67,1.09,2.16a1.94,1.94,0,0,0-.85-2.19A.17.17,0,0,0,128.21,65.19Z"/><path class="cls-6" d="M129.41,62.87s.71.81,2.21-.26a2.08,2.08,0,0,0-2.2,0A.12.12,0,0,0,129.41,62.87Z"/><path class="cls-2" d="M124.52,63.17a17.43,17.43,0,0,1,3.1.8l.13,0a1,1,0,0,0,.07.48,1.29,1.29,0,0,0,.39.69c0,.1,0,.19.15.18s0,0,0,0h0a.1.1,0,0,0,.08-.1.18.18,0,0,0-.19-.12.06.06,0,0,0-.09,0h0a4.53,4.53,0,0,1-.27-.48,1.81,1.81,0,0,1-.14-.6,15,15,0,0,1,1.9.91,2.22,2.22,0,0,0,.71,1.74.27.27,0,0,0,.09.12.06.06,0,0,0,.06,0v0a.1.1,0,0,0,.11-.1c0-.15-.2-.13-.3-.11h0a4.5,4.5,0,0,1-.39-.67,3.73,3.73,0,0,1-.23-.93l.71.43c.29.18.58.37.86.57a3.42,3.42,0,0,0,.63,1.68h0s0,0,0,0a.08.08,0,0,0,0,0,.21.21,0,0,0,0,.26.08.08,0,0,0,.1,0,.11.11,0,0,0,.07,0,.09.09,0,0,0,.07-.11c0-.06-.07-.1-.11-.14l-.05,0a.07.07,0,0,0,0,0,11,11,0,0,1-.55-1.28,1.23,1.23,0,0,0,0-.19V66.1a27.25,27.25,0,0,1,2.2,1.79,2.41,2.41,0,0,0,.34,1.3h0a.27.27,0,0,0,0,.37.1.1,0,0,0,.15,0,.11.11,0,0,0,0-.08h0a0,0,0,0,0,0-.06l0-.11h0s-.05-.07-.09-.11a0,0,0,0,0-.05,0h0c-.11-.42-.24-.8-.31-1.21q1,.93,2,2a0,0,0,0,0,0,.07c0,.15,0,.36.17.37a.12.12,0,0,0,.13-.09.21.21,0,0,0,0-.11h0a.31.31,0,0,0,.12,0,.06.06,0,0,0,0-.08l0,0s0,0,0,0a.77.77,0,0,0-.31-.19h-.06a27.07,27.07,0,0,0-2-2.1,1.93,1.93,0,0,1,.79.07,2.72,2.72,0,0,1,.82.48.22.22,0,0,0,.17.26.08.08,0,0,0,.09-.1.18.18,0,0,0,0-.1l0,0s0-.05,0-.07l-.08,0s0,0,0,0h0a.17.17,0,0,0-.17,0h0a1.75,1.75,0,0,0-1.68-.54c-.43-.39-.87-.76-1.32-1.12a2.77,2.77,0,0,1,1.73.13h.06a.06.06,0,0,0,0,0c0,.1.1.23.22.15a.1.1,0,0,0,0-.1.09.09,0,0,0,0,0s0,0,0,0a.06.06,0,0,0,0-.08.26.26,0,0,0-.21,0,.28.28,0,0,0-.09.07,2,2,0,0,0-1.81-.15c-.51-.39-1-.75-1.56-1.1.22,0,.43-.14.65-.17h.34l.31,0,.3.08a.28.28,0,0,0,.15.13.06.06,0,0,0,.07-.05.24.24,0,0,0,0-.08l.07,0a.09.09,0,0,0,0-.13.12.12,0,0,0-.14-.06h0a.12.12,0,0,0-.1,0,.19.19,0,0,0-.06.07l0,0a1.83,1.83,0,0,0-1.63.13l-.13-.09c-.45-.28-.93-.55-1.42-.8a3.19,3.19,0,0,1,1.52-.55h0c.09.07.24.18.36.07s0-.05,0-.08h0s0-.07,0-.09a.19.19,0,0,0-.11,0,.06.06,0,0,0-.07,0l0,0a.31.31,0,0,0-.12,0,0,0,0,0,0,0,0,2.32,2.32,0,0,0-1.62.55,15.27,15.27,0,0,0-1.82-.77,10.42,10.42,0,0,1,1-.54,4.69,4.69,0,0,1,1.18-.26h0c.06.09.17.07.26,0s0,0,0-.07l.11,0a.06.06,0,0,0,0-.1.29.29,0,0,0-.37.09v0a2.66,2.66,0,0,0-2.26.83,8.82,8.82,0,0,0-2.57-.47S124.49,63.16,124.52,63.17Z"/><path class="cls-7" d="M134.08,58.47c0-.34-.35-.45-.67-.48.37-.2.78-.51.58-.86s-.87-.19-1.3,0c.2-.41.43-1,0-1.1-.79-.09-1.25,1.1-1.44,1.65,0,0-.32.81,0,1.13s1.31.36,1.82.3C133.38,59.1,134.1,59,134.08,58.47Z"/><path class="cls-8" d="M131.79,59.25a.22.22,0,0,0-.17-.25c.13-.12.24-.28.06-.4a.63.63,0,0,0-.58,0c0-.16,0-.35-.2-.34s-.38.78-.38.81a61.87,61.87,0,0,0-5.34,5.28c-.09.09.06.22.14.13a63.31,63.31,0,0,1,5.28-5.21.33.33,0,0,0,.14.12,2,2,0,0,0,.72.16C131.61,59.5,131.78,59.42,131.79,59.25Z"/><path class="cls-4" d="M120.21,52.38a2.71,2.71,0,0,0,.15-2.58,1.81,1.81,0,0,0-.42,2.57S120,52.54,120.21,52.38Z"/><path class="cls-4" d="M122.61,49.64a2.84,2.84,0,0,0,1.27-2.5,4.54,4.54,0,0,0-1.47,2.32S122.39,49.74,122.61,49.64Z"/><path class="cls-4" d="M122.57,51.53a2.09,2.09,0,0,0,2.16-1.71s-1.21-.31-2.3,1.6C122.43,51.42,122.28,51.53,122.57,51.53Z"/><path class="cls-4" d="M121.28,50.56a2.6,2.6,0,0,0,.7-2.07,2.18,2.18,0,0,0-1,2S121,50.8,121.28,50.56Z"/><path class="cls-4" d="M121.84,53.93a2.64,2.64,0,0,0,1.91-1.59s-1.1-.19-2,1.49C121.77,53.83,121.69,54,121.84,53.93Z"/><path class="cls-4" d="M119.45,54.55a1.69,1.69,0,0,0-.52-2.14,1.53,1.53,0,0,0,.25,2S119.28,54.66,119.45,54.55Z"/><path class="cls-4" d="M118.74,56.53c.07-.08.37-1.14-.9-2,0,0-.8,1.49.7,2C118.54,56.55,118.59,56.72,118.74,56.53Z"/><path class="cls-4" d="M121.41,55.78s1,0,1.31-1.59a1.92,1.92,0,0,0-1.48,1.51S121.21,55.82,121.41,55.78Z"/><path class="cls-4" d="M120.78,58.39s1.63-.42,1.64-1.78a2,2,0,0,0-1.76,1.57A.17.17,0,0,0,120.78,58.39Z"/><path class="cls-4" d="M118.19,58.08s.5-.95-1-2a2.08,2.08,0,0,0,.82,2A.13.13,0,0,0,118.19,58.08Z"/><path class="cls-2" d="M120.19,62.56a18.87,18.87,0,0,1-.35-3.18c0-.05,0-.1,0-.15s.34-.17.43-.23a1.36,1.36,0,0,0,.5-.61c.1,0,.17-.1.11-.2s0,0,0,0v0a.1.1,0,0,0-.13,0,.17.17,0,0,0,0,.21s0,.08,0,.08h0a4.82,4.82,0,0,1-.36.43,1.75,1.75,0,0,1-.51.34,16.53,16.53,0,0,1,.18-2.1,2.22,2.22,0,0,0,1.38-1.28.29.29,0,0,0,.08-.13.05.05,0,0,0,0,0h0a.09.09,0,0,0-.13-.06c-.14.06-.06.22,0,.31h0a4.51,4.51,0,0,1-.48.6A3.35,3.35,0,0,1,120,57c0-.27.09-.54.15-.81s.15-.67.23-1A3.3,3.3,0,0,0,121.77,54h0a0,0,0,0,0,0,0l0-.06c.09,0,.21,0,.22-.12a.08.08,0,0,0-.06-.09.11.11,0,0,0,0-.08.09.09,0,0,0-.12,0s-.07.11-.09.16,0,0,0,.06,0,0,0,.06a10.06,10.06,0,0,1-1,1l-.17.09-.11.05a25.13,25.13,0,0,1,.9-2.7,2.53,2.53,0,0,0,1.1-.77h0a.27.27,0,0,0,.35-.13.1.1,0,0,0-.07-.13h-.08s0,0,0,0,0,0-.06,0a.24.24,0,0,0-.09.08h0a.33.33,0,0,0-.07.13.06.06,0,0,0,0,.06h0c-.35.25-.66.5-1,.71q.51-1.29,1.14-2.52s.06,0,.06,0,.33-.13.29-.28a.12.12,0,0,0-.14-.09.12.12,0,0,0-.09,0h0a.47.47,0,0,0-.1-.1s-.06,0-.07,0a0,0,0,0,0,0,0l0,0a.77.77,0,0,0-.07.36.11.11,0,0,0,0,.05,28,28,0,0,0-1.24,2.66,1.8,1.8,0,0,1-.21-.76,2.51,2.51,0,0,1,.15-.94.22.22,0,0,0,.18-.25c0-.06-.06-.08-.12,0l-.08.08,0,0s0,0-.06,0,0,0,0,.08,0,0,0,0h0a.25.25,0,0,0,.08.16h0a1.75,1.75,0,0,0,.09,1.76c-.22.54-.41,1.08-.58,1.63a2.77,2.77,0,0,1-.49-1.67h0l0,0h0c.09,0,.18-.17.07-.25a.11.11,0,0,0-.12,0l0,0-.05,0a.05.05,0,0,0-.06.05.21.21,0,0,0,0,.2.28.28,0,0,0,.09.06,2,2,0,0,0,.51,1.75c-.18.61-.34,1.22-.48,1.84-.11-.19-.28-.35-.39-.55a2.88,2.88,0,0,1-.13-.31c0-.1,0-.21-.06-.31a1.53,1.53,0,0,1,0-.3.33.33,0,0,0,.06-.19.06.06,0,0,0-.07,0l-.06,0,0-.05a.1.1,0,0,0-.15,0,.14.14,0,0,0,0,.15s0,0,0,0a.1.1,0,0,0,.09.07.18.18,0,0,0,.09,0s0,0,0,0a1.8,1.8,0,0,0,.7,1.47s0,.11,0,.16c-.1.52-.19,1.06-.25,1.61a3.11,3.11,0,0,1-1.05-1.23h0c0-.11.09-.3,0-.36a0,0,0,0,0-.07,0h0a.05.05,0,0,0-.08,0,.24.24,0,0,0,0,.12s0,0,0,.07l0,0a.28.28,0,0,0,.09.1h0A2.32,2.32,0,0,0,119.75,58a14.51,14.51,0,0,0-.08,2c-.28-.26-.6-.45-.86-.74a4.47,4.47,0,0,1-.65-1h0c.07-.09,0-.19,0-.27a0,0,0,0,0-.07,0l-.08-.09s-.1,0-.1,0a.28.28,0,0,0,.21.31h0A2.7,2.7,0,0,0,119.67,60a8.78,8.78,0,0,0,.47,2.56A0,0,0,1,0,120.19,62.56Z"/><path class="cls-3" d="M117.18,55.78s-3.1-1.88-1.54-4.48C115.64,51.3,118,52,117.18,55.78Z"/><path class="cls-3" d="M117.24,57.11s-.1-3.21,2-3.88C119.24,53.23,120.44,55,117.24,57.11Z"/><path class="cls-3" d="M117.47,57.43s-2.32,1.07-3.42-1.75C114.05,55.68,116.45,54.42,117.47,57.43Z"/><path class="cls-3" d="M117.55,58.8s1-2.69,2.84-3.06A2.9,2.9,0,0,1,117.55,58.8Z"/><path class="cls-3" d="M118.1,60.93s1-2.68,2.83-3.06A2.9,2.9,0,0,1,118.1,60.93Z"/><path class="cls-3" d="M117.65,59.4s-2.44.76-2.92-1.17A2,2,0,0,1,117.65,59.4Z"/><path class="cls-3" d="M118.28,61.49s-2.44.75-2.93-1.18A2,2,0,0,1,118.28,61.49Z"/><path class="cls-3" d="M117,54.74s1,2.07,1.71,9c0,0-.17,1-.44-.65s-1-6.38-1.6-9Z"/><path class="cls-7" d="M122,54.84c.31.41.93,1.09,1.49,1.09s.78-.77.8-.81c.25-.51.78-1.67.16-2.17-.37-.29-.65.32-.81.74-.14-.45-.44-1.06-.88-.94s-.33.61-.21,1c-.25-.2-.56-.36-.81-.14S121.76,54.57,122,54.84Z"/><path class="cls-3" d="M122.76,55.8a.23.23,0,0,1,.3,0c0-.18,0-.37.25-.33a.62.62,0,0,1,.43.39c.11-.12.25-.26.38-.1s-.28.82-.31.84a60.7,60.7,0,0,1,0,7.51.1.1,0,1,1-.19,0,61.07,61.07,0,0,0,0-7.41.55.55,0,0,1-.18,0,1.74,1.74,0,0,1-.62-.4A.34.34,0,0,1,122.76,55.8Z"/><path class="cls-9" d="M113.39,59.76a1.88,1.88,0,0,0,.67-1.75c0-.07-.23-.2-.27-.21a1.56,1.56,0,0,0-1.35-.25,1.09,1.09,0,0,0-.69.86.72.72,0,0,0,.09.43,1.2,1.2,0,0,0,.1.11,2.26,2.26,0,0,1,.26.37.56.56,0,0,0,.57.34C112.84,59.92,113.17,59.94,113.39,59.76Z"/><path class="cls-9" d="M115.58,55c.58-.3,1-.78.59-1.43a1.17,1.17,0,1,0-2,1.25C114.56,55.17,115.53,55,115.58,55Z"/><path class="cls-9" d="M113.21,55c.06,0,.38-1.63-.34-1.83a.64.64,0,0,0-.64.13s0,.1-.07.13c-.29.36-.62.2-.73.26s-.11,1,.07,1.14A1.42,1.42,0,0,0,113.21,55Z"/><path class="cls-9" d="M111.75,57.78c.7-.16,1-1,.93-1.65,0-.09-1.19-1.09-1.76-.68-.23.16-.19.33-.23.56s-.4.52-.33.93a.77.77,0,0,0,.46.56A1.44,1.44,0,0,0,111.75,57.78Z"/><path class="cls-9" d="M117.88,57.63a.41.41,0,0,0,.08-.3c0-.11-.14-.16-.16-.25s.17-.38,0-.63-.13-.13-.2-.21-.13-.26-.23-.39a.65.65,0,0,0-.61-.25,1.22,1.22,0,0,0-.79,1.45,1.37,1.37,0,0,0,.17.23C116.55,57.67,117.41,58.22,117.88,57.63Z"/><path class="cls-2" d="M115.81,60.17a10.37,10.37,0,0,0-.83-2.62,2.39,2.39,0,0,1,.88-.46s.69,1,1,.57a.24.24,0,0,0,0-.2c0-.08-.14-.15-.14-.21s.06-.08.08-.14a.26.26,0,0,0,0-.21.32.32,0,0,0-.14-.18s-.08,0-.1,0,0,0,0,0a.41.41,0,0,0,0-.11.43.43,0,0,0-.25-.4c-.48-.18-.6.45-.55.8a2.59,2.59,0,0,0-.88.47A7.35,7.35,0,0,0,114,56s.23-.51.36-.64.37,0,.6,0a.36.36,0,0,0,.35-.07c.23-.22,0-.39-.21-.47a.32.32,0,0,0-.15-.42.4.4,0,0,0-.52.1.34.34,0,0,0-.26-.23.24.24,0,0,0-.28.24.59.59,0,0,0,.47.6,1.28,1.28,0,0,0-.44.79,5.77,5.77,0,0,0-.64-.67.2.2,0,0,0,.09-.09h0a.76.76,0,0,0,0-.64.2.2,0,0,0-.36,0c0,.07-.08.23-.13.24s-.12,0-.16,0a.39.39,0,0,0-.15.06.2.2,0,0,0-.1.21.4.4,0,0,0-.23.12.1.1,0,0,0,0,.09c.07.18.36.16.51.16a1.9,1.9,0,0,1,.36,0,6.29,6.29,0,0,1,.78.85,1.3,1.3,0,0,0-.7-.11,2.25,2.25,0,0,0-.35.09l0,0v0a.62.62,0,0,0-.47-.43.22.22,0,0,0-.26.23.3.3,0,0,0,.06.14.16.16,0,0,0,0,.07c.06,0,.06,0,0,0s-.16.1-.21.19a.28.28,0,0,0,0,.25.23.23,0,0,0,.07.07c.07.05,0,0,.06,0s-.07.18,0,.3a.34.34,0,0,0,.11.17.39.39,0,0,0,.53-.18.92.92,0,0,0,.19-.58c.52-.32,1.15.11,1.17.09a8.53,8.53,0,0,1,.87,1.57,1.26,1.26,0,0,0-.91-.14s0,0,0,0a1,1,0,0,0-.67-.39c-.23,0-.28.24-.21.43a.42.42,0,0,0,.09.14s.08,0,.08.06-.07.13-.06.1a.59.59,0,0,0,0,.14.33.33,0,0,0,.31.31.35.35,0,0,0,.06.28.3.3,0,0,0,.39,0c.29-.18.24-.59.12-.89.45-.18.89.19.92.17a10.41,10.41,0,0,1,.55,1.94C115.65,60.3,115.84,60.28,115.81,60.17Z"/><path class="cls-9" d="M130.12,66.59a.58.58,0,0,0,.62.25,2.22,2.22,0,0,1,.45,0,.54.54,0,0,0,.15,0,.7.7,0,0,0,.4-.2,1.1,1.1,0,0,0,.25-1.07,1.57,1.57,0,0,0-1-.91s-.28-.12-.34-.09a1.92,1.92,0,0,0-1,1.61C129.66,66.45,129.88,66.7,130.12,66.59Z"/><path class="cls-9" d="M133.09,62.47c.62.06,1.09-.67,1.08-1.23a1.19,1.19,0,0,0-1.3-1.09c-.78.06-.89.71-.77,1.35C132.11,61.56,132.57,62.43,133.09,62.47Z"/><path class="cls-9" d="M134.68,64.66c.26,0,1-.4.95-.65s-.35-.28-.25-.73c0-.05.06-.09.06-.14a.61.61,0,0,0-.29-.58c-.6-.45-1.66.79-1.65.85A1.41,1.41,0,0,0,134.68,64.66Z"/><path class="cls-9" d="M133,66.81a.76.76,0,0,0,.72,0c.36-.2.27-.57.53-.83s.31-.25.3-.53c0-.7-1.54-1-1.61-1-.52.35-1,1.1-.73,1.75C132.38,66.55,132.74,66.68,133,66.81Z"/><path class="cls-9" d="M129.91,62.44a2.8,2.8,0,0,0,.29,0,1.23,1.23,0,0,0,.66-1.51.66.66,0,0,0-.58-.33,3.44,3.44,0,0,1-.45,0,.86.86,0,0,0-.28,0c-.28.05-.28.34-.48.42s-.2,0-.3,0a.39.39,0,0,0-.18.25C128.41,62.05,129.37,62.39,129.91,62.44Z"/><path class="cls-2" d="M128,64.66a10.48,10.48,0,0,1,1.86-.75s.57.15.71.62c-.31.09-.67.3-.63.64a.29.29,0,0,0,.27.28.37.37,0,0,0,.26-.12.31.31,0,0,0,.43,0,.32.32,0,0,0,.1-.1s.05-.12,0-.11.07,0,.1,0a.33.33,0,0,0,.17,0c.19-.06.35-.24.2-.43a1,1,0,0,0-.71-.29l-.05,0a1.25,1.25,0,0,0-.67-.63,8.26,8.26,0,0,1,1.77-.28s.73.26.79.87a.91.91,0,0,0-.34.5c-.07.19-.05.46.18.53a.34.34,0,0,0,.2,0c.11,0,.13-.17.22-.22s0,0,0,0a.18.18,0,0,0,.1,0,.26.26,0,0,0,.19-.16c0-.1,0-.21,0-.28s0,0,0,0h.08a.24.24,0,0,0,.14,0,.21.21,0,0,0,0-.34.61.61,0,0,0-.63-.1l0,0h0a2.41,2.41,0,0,0-.15-.33,1.31,1.31,0,0,0-.51-.48,7.2,7.2,0,0,1,1.14.09,2.91,2.91,0,0,1,.24.28c.09.12.25.36.43.3a.1.1,0,0,0,.07-.07.56.56,0,0,0-.05-.25.21.21,0,0,0,.1-.21.42.42,0,0,0,0-.15,1.5,1.5,0,0,0-.11-.13c0-.05.09-.17.12-.25s-.06-.29-.24-.27-.37.24-.49.43h0a.25.25,0,0,0,0,.12,7.32,7.32,0,0,0-.93-.09,1.31,1.31,0,0,0,.36-.83.6.6,0,0,0,.76,0,.24.24,0,0,0,0-.37.33.33,0,0,0-.34-.07.42.42,0,0,0-.24-.48.35.35,0,0,0-.43.15c-.19-.12-.46-.2-.5.12a.38.38,0,0,0,.16.32c.18.15.41.14.37.47s-.31.64-.29.68a7.14,7.14,0,0,0-1.59.15,2.47,2.47,0,0,0-.17-1c.31-.18.73-.66.3-.93a.43.43,0,0,0-.47.05l-.08.08s0,0-.06,0-.06,0-.09,0a.36.36,0,0,0-.23,0,.26.26,0,0,0-.16.13c0,.06,0,.13-.07.16s-.18,0-.25,0a.26.26,0,0,0-.13.16c-.13.47,1,.45,1.06.43a2.33,2.33,0,0,1,.17,1,10.9,10.9,0,0,0-2.58.94C127.75,64.56,127.85,64.71,128,64.66Z"/><path class="cls-2" d="M121.42,61.39a1.92,1.92,0,0,0,.75-1.29.74.74,0,0,0-.23-.61.76.76,0,0,1-.19-.21.41.41,0,0,1,0-.34c0-.14.11-.27.15-.41a5,5,0,0,0,.21-1,2.82,2.82,0,0,0,0-.87c-.05-.21-.26-.42-.48-.32a1.14,1.14,0,0,0-.33.36l-.26.34A5.4,5.4,0,0,0,121,55c0-.2-.13-.45-.39-.41s-.34.38-.5.59a8.62,8.62,0,0,0-.21-1,2.79,2.79,0,0,0-.34-.94.26.26,0,0,0-.39-.09,1.25,1.25,0,0,0-.2.38l-.21.47a6.46,6.46,0,0,0-1.18-1.48.06.06,0,0,0-.1,0,3.7,3.7,0,0,0,.36,2.65.54.54,0,0,0-.33-.08.4.4,0,0,0-.38.46,2.86,2.86,0,0,0,.41.95c.18.36.38.71.59,1.05a1.29,1.29,0,0,0-.92.1,0,0,0,0,0,0,.07,11.21,11.21,0,0,0,1.3,1.37,6.45,6.45,0,0,0-.62.21c-.08,0-.16.09-.14.2s.22.27.33.36.32.27.5.39C120.9,61.67,121.42,61.39,121.42,61.39Z"/><path class="cls-3" d="M120.87,60.35a1.09,1.09,0,0,0-.08-.15,2.8,2.8,0,0,0,.62-2.11s0,0,0,0a6.71,6.71,0,0,1-.16,1.08,4.6,4.6,0,0,1-.45.95c-.28-.55-.52-1.12-.75-1.7a3.21,3.21,0,0,0,.47-1,2.64,2.64,0,0,0,.06-1.15s0,0,0,0a7.21,7.21,0,0,1-.11,1.13,4.28,4.28,0,0,1-.4,1c-.23-.58-.45-1.19-.68-1.78v0a2.74,2.74,0,0,0,.09-1.74s0,0,0,0a3.38,3.38,0,0,1,.06,1c0,.24-.14.48-.15.73a12.45,12.45,0,0,0-1-1.94s0,0,0,0l.42.89a3.53,3.53,0,0,1-.34-.24,1.77,1.77,0,0,1-.31-.41,0,0,0,0,0,0,0c0,.34.43.64.74.75.15.34.3.68.44,1s.21.55.32.82A3,3,0,0,1,119,57a4.19,4.19,0,0,1-.42-.67s-.05,0,0,0a2,2,0,0,0,1.06,1.23l.41,1c.09.24.19.49.3.73a3.28,3.28,0,0,1-.79-.35,4.94,4.94,0,0,1-.72-.58s0,0,0,0a2.44,2.44,0,0,0,1.56,1,12,12,0,0,0,.72,1.49,6.49,6.49,0,0,1-1-.38,7.57,7.57,0,0,1-1-.7s0,0,0,0a2.8,2.8,0,0,0,.93.74,2.83,2.83,0,0,0,1.08.4,6.66,6.66,0,0,0,.86,1.17s.07,0,0,0A15,15,0,0,1,120.87,60.35Z"/><path class="cls-4" d="M129.46,64.07c.54-1.52-1-1.84-1.32-1.89.59-1.36-.49-1.81-1.08-2.1-.74-.37-1.51-.23-2.2.87a1.11,1.11,0,0,0-1.57.43,1.4,1.4,0,0,0,.18,1.78,1.74,1.74,0,0,0,.75,3.09,1.66,1.66,0,0,0,1.07-.17,1.27,1.27,0,0,0,1.55.5A1.55,1.55,0,0,0,128,65.17C128.66,65.32,129.23,64.7,129.46,64.07Z"/><path class="cls-5" d="M126.4,65.13a1.63,1.63,0,0,0-.44,0,1.31,1.31,0,0,1-.44-.07,1.94,1.94,0,0,1-.77-.5s-.08,0-.07,0a.47.47,0,0,0,.07.12,1.59,1.59,0,0,0,.74.62.85.85,0,0,0,.92,0A0,0,0,0,0,126.4,65.13Z"/><path d="M126.52,63.18a.84.84,0,0,0-1.11-.32.66.66,0,0,0-.29.59.8.8,0,0,0,.94.81A.75.75,0,0,0,126.52,63.18Z"/><path class="cls-5" d="M125.88,64.58a4.74,4.74,0,0,0-.5-.26,1.14,1.14,0,0,1-.56-1.07s-.08.19-.08.19a1.1,1.1,0,0,0,.32.94,1.19,1.19,0,0,0,.43.3c.09,0,.3.13.4.07S125.94,64.62,125.88,64.58Z"/><path class="cls-5" d="M124.75,62.5a1.31,1.31,0,0,0-.54.67,1,1,0,0,0,0,.88s0,0,.05,0a.31.31,0,0,0,.07-.25,4,4,0,0,1,0-.47,2.38,2.38,0,0,1,.39-.8S124.78,62.48,124.75,62.5Z"/><path class="cls-5" d="M126,62.45a.64.64,0,0,0-.63,0,.92.92,0,0,0-.52.6,2.75,2.75,0,0,1,.42-.35.78.78,0,0,1,.54-.08c.06,0,.21,0,.26,0S126.06,62.48,126,62.45Z"/><path class="cls-5" d="M126.93,63s-.1,0-.09,0a1.23,1.23,0,0,1-.34,1.56,0,0,0,0,0,0,.06c.31,0,.54-.34.62-.62A1.15,1.15,0,0,0,126.93,63Z"/><path class="cls-5" d="M127.67,63.93a.46.46,0,0,0,0-.23,1,1,0,0,0-.26-.53s-.08,0,0,0a.75.75,0,0,1,.12.58c0,.07-.07.13-.09.2a.55.55,0,0,0,0,.18.81.81,0,0,1-.65.78s0,0,0,0a.49.49,0,0,0,.27-.06.78.78,0,0,0,.55-.69.56.56,0,0,1,0-.13C127.6,64,127.64,64,127.67,63.93Z"/><path class="cls-5" d="M127.06,62.16c-.17-.14-.63-.31-.81-.11,0,0-.12.05-.09.05a1.91,1.91,0,0,1,.71.19.7.7,0,0,1,.28.63s0,.08.07,0A.66.66,0,0,0,127.06,62.16Z"/><path class="cls-5" d="M126.15,61.91a.52.52,0,0,0-.61-.17c-.16,0-.46.21-.48.41,0,0,0,0,0,0a1.13,1.13,0,0,1,.4-.23.92.92,0,0,1,.61,0S126.17,61.92,126.15,61.91Z"/><path class="cls-5" d="M127.53,62a.55.55,0,0,0-.4-.26s0,.06,0,.06h.07c.25.07.35.43.44.65,0,0,0,0,0,0S127.64,62.17,127.53,62Z"/><path class="cls-4" d="M128.39,58.32c.33-.92-.61-1.11-.79-1.14.36-.82-.29-1.09-.65-1.27s-.91-.13-1.33.53a.66.66,0,0,0-.94.25.84.84,0,0,0,.11,1.08,1,1,0,0,0-.38,1.08,1,1,0,0,0,.83.78,1,1,0,0,0,.64-.1.79.79,0,0,0,.94.3.94.94,0,0,0,.68-.85C127.91,59.07,128.26,58.7,128.39,58.32Z"/><path class="cls-5" d="M126.55,59a.76.76,0,0,0-.26,0,1.26,1.26,0,0,1-.27,0,1.19,1.19,0,0,1-.46-.3l0,0a.3.3,0,0,0,0,.08A.93.93,0,0,0,126,59a.52.52,0,0,0,.56,0A0,0,0,0,0,126.55,59Z"/><path d="M126.63,57.78a.52.52,0,0,0-.68-.19.41.41,0,0,0-.17.35.48.48,0,0,0,.56.49A.45.45,0,0,0,126.63,57.78Z"/><path class="cls-5" d="M126.24,58.62c-.09-.06-.21-.1-.3-.15a.71.71,0,0,1-.34-.65.73.73,0,0,0,0,.12.68.68,0,0,0,.19.56.76.76,0,0,0,.26.18c.06,0,.18.08.25,0S126.28,58.65,126.24,58.62Z"/><path class="cls-5" d="M125.56,57.37a.82.82,0,0,0-.33.41.62.62,0,0,0,0,.53h0a.19.19,0,0,0,0-.15,2.66,2.66,0,0,1,0-.28,1.44,1.44,0,0,1,.24-.48S125.57,57.36,125.56,57.37Z"/><path class="cls-5" d="M126.33,57.34a.37.37,0,0,0-.38,0,.59.59,0,0,0-.32.36,1.79,1.79,0,0,1,.26-.21.4.4,0,0,1,.32-.05s.13,0,.16,0S126.35,57.36,126.33,57.34Z"/><path class="cls-5" d="M126.87,57.68l-.05,0a.73.73,0,0,1-.21.94s0,0,0,0c.19,0,.32-.2.37-.37A.7.7,0,0,0,126.87,57.68Z"/><path class="cls-5" d="M127.32,58.23a.31.31,0,0,0,0-.13.68.68,0,0,0-.16-.33s0,0,0,0a.44.44,0,0,1,.07.35s0,.08,0,.12a.22.22,0,0,0,0,.11.49.49,0,0,1-.4.47s0,0,0,0a.47.47,0,0,0,.17,0,.49.49,0,0,0,.33-.42.21.21,0,0,1,0-.08S127.3,58.27,127.32,58.23Z"/><path class="cls-5" d="M127,57.16c-.11-.08-.38-.18-.49-.06l-.06,0a1.16,1.16,0,0,1,.43.11.42.42,0,0,1,.17.39,0,0,0,0,0,0,0A.41.41,0,0,0,127,57.16Z"/><path class="cls-5" d="M126.4,57a.34.34,0,0,0-.37-.1c-.09,0-.27.13-.28.25s0,0,0,0A.68.68,0,0,1,126,57a.52.52,0,0,1,.37,0S126.41,57,126.4,57Z"/><path class="cls-5" d="M127.23,57.09a.33.33,0,0,0-.24-.15s0,0,0,0h0c.15,0,.21.26.26.39a0,0,0,0,0,0,0A.27.27,0,0,0,127.23,57.09Z"/><path class="cls-7" d="M123.44,60.36c-1-1.26-2.09-.12-2.29.12-.84-1.23-1.8-.56-2.36-.22-.71.44-1,1.16-.44,2.33a1.11,1.11,0,0,0-.47,1.56,1.4,1.4,0,0,0,1.61.79,1.74,1.74,0,0,0,3,1,1.67,1.67,0,0,0,.42-1,1.28,1.28,0,0,0,1.26-1,1.55,1.55,0,0,0-.6-1.7A1.44,1.44,0,0,0,123.44,60.36Z"/><path class="cls-10" d="M122.29,64.13a1.48,1.48,0,0,0-.35.19,1.68,1.68,0,0,1-.39.16,1.88,1.88,0,0,1-.85,0s-.09,0-.08,0l.12.07a1.6,1.6,0,0,0,.89.13.8.8,0,0,0,.7-.49A0,0,0,0,0,122.29,64.13Z"/><path d="M121.53,62.26a.9.9,0,0,0-1.2.33.7.7,0,0,0,.07.71.86.86,0,0,0,1.32.23A.82.82,0,0,0,121.53,62.26Z"/><path class="cls-10" d="M121.61,63.94c-.17,0-.35,0-.52,0a1.08,1.08,0,0,1-1-.58s0,.19,0,.19a1,1,0,0,0,.71.59,1,1,0,0,0,.48,0c.1,0,.3,0,.36-.14S121.68,64,121.61,63.94Z"/><path class="cls-10" d="M119.71,62.84a1.19,1.19,0,0,0-.1.79.93.93,0,0,0,.45.69,0,0,0,0,0,0,0,.32.32,0,0,0-.06-.23,2.93,2.93,0,0,1-.19-.4,2.05,2.05,0,0,1-.08-.82A0,0,0,0,0,119.71,62.84Z"/><path class="cls-10" d="M120.54,61.91a.58.58,0,0,0-.5.29.91.91,0,0,0-.13.74,2.52,2.52,0,0,1,.16-.49.72.72,0,0,1,.39-.32c.06,0,.2-.06.21-.13S120.58,61.92,120.54,61.91Z"/><path class="cls-10" d="M121.69,62.19s-.1,0-.08,0a1.13,1.13,0,0,1,.48,1.41,0,0,0,0,0,0,0,.74.74,0,0,0,.19-.79A1,1,0,0,0,121.69,62.19Z"/><path class="cls-10" d="M122.72,62.56a.35.35,0,0,0-.07-.2.88.88,0,0,0-.46-.3s-.07,0,0,0a.68.68,0,0,1,.38.4c0,.06,0,.13,0,.2a.48.48,0,0,0,.08.16.73.73,0,0,1-.15.93s0,0,0,0a.52.52,0,0,0,.18-.18.73.73,0,0,0,.1-.82s0-.06-.06-.1S122.73,62.62,122.72,62.56Z"/><path class="cls-10" d="M121.37,61.45c-.2,0-.64.06-.69.31,0,0-.06.09-.05.08a1.77,1.77,0,0,1,.66-.2.65.65,0,0,1,.53.37s.08,0,.07,0A.6.6,0,0,0,121.37,61.45Z"/><path class="cls-10" d="M120.26,61.44a.48.48,0,0,0-.57.16c-.1.12-.26.39-.18.56s0,0,0,0a.86.86,0,0,1,.69-.65S120.28,61.44,120.26,61.44Z"/><path class="cls-10" d="M121.7,61.12a.56.56,0,0,0-.44,0s0,.07,0,.06l.06,0c.24-.07.49.17.66.3s.06,0,0,0S121.84,61.18,121.7,61.12Z"/><path class="cls-7" d="M119.06,56.79c-.59-.75-1.24-.07-1.36.07-.5-.73-1.06-.33-1.39-.13s-.59.69-.26,1.38a.66.66,0,0,0-.29.92.84.84,0,0,0,1,.47,1,1,0,0,0,.7.88,1,1,0,0,0,1.08-.28.93.93,0,0,0,.25-.59.74.74,0,0,0,.74-.62.92.92,0,0,0-.35-1A.84.84,0,0,0,119.06,56.79Z"/><path class="cls-10" d="M118.38,59a.84.84,0,0,0-.21.11.92.92,0,0,1-.23.09.94.94,0,0,1-.5,0s-.06,0,0,0l.07,0a.81.81,0,0,0,.53.08.44.44,0,0,0,.41-.29S118.39,59,118.38,59Z"/><path d="M117.93,57.91a.55.55,0,0,0-.72.2.46.46,0,0,0,.05.42.51.51,0,0,0,.78.14A.5.5,0,0,0,117.93,57.91Z"/><path class="cls-10" d="M118,58.91c-.1,0-.21,0-.31,0a.63.63,0,0,1-.57-.34s0,.11,0,.11a.58.58,0,0,0,.41.35.72.72,0,0,0,.29,0c.06,0,.18,0,.21-.09S118,58.91,118,58.91Z"/><path class="cls-10" d="M116.85,58.25a.76.76,0,0,0-.06.48.54.54,0,0,0,.27.4s0,0,0,0a.19.19,0,0,0,0-.14,1.63,1.63,0,0,1-.11-.23,1.34,1.34,0,0,1-.05-.49S116.86,58.24,116.85,58.25Z"/><path class="cls-10" d="M117.34,57.71a.34.34,0,0,0-.3.17.5.5,0,0,0-.07.43,1,1,0,0,1,.09-.28.48.48,0,0,1,.24-.2s.11,0,.12-.07S117.37,57.71,117.34,57.71Z"/><path class="cls-10" d="M118,57.87h0a.68.68,0,0,1,.29.84s0,0,0,0a.45.45,0,0,0,.12-.47A.65.65,0,0,0,118,57.87Z"/><path class="cls-10" d="M118.63,58.09a.21.21,0,0,0,0-.12.5.5,0,0,0-.27-.18s0,0,0,0a.42.42,0,0,1,.23.24s0,.08,0,.12l0,.09a.43.43,0,0,1-.08.55s0,0,0,0a.22.22,0,0,0,.11-.1.44.44,0,0,0,.06-.49l0-.06S118.64,58.12,118.63,58.09Z"/><path class="cls-10" d="M117.84,57.43c-.12,0-.38,0-.42.18s0,.06,0,.06a1,1,0,0,1,.38-.12.38.38,0,0,1,.32.22s0,0,0,0A.36.36,0,0,0,117.84,57.43Z"/><path class="cls-10" d="M117.18,57.42a.29.29,0,0,0-.34.1c-.06.07-.16.23-.11.33s0,0,0,0a.4.4,0,0,1,.12-.22.48.48,0,0,1,.29-.17A0,0,0,0,0,117.18,57.42Z"/><path class="cls-10" d="M118,57.24a.36.36,0,0,0-.27,0s0,.05,0,0l0,0c.13,0,.29.11.39.18s0,0,0,0S118.11,57.27,118,57.24Z"/><path class="cls-7" d="M116.73,60.46c-.8-1-1.7-.1-1.86.09-.68-1-1.46-.45-1.91-.17s-.81.94-.36,1.89a.91.91,0,0,0-.39,1.26,1.15,1.15,0,0,0,1.31.65,1.33,1.33,0,0,0,1,1.21A1.35,1.35,0,0,0,116,65a1.37,1.37,0,0,0,.34-.81,1.06,1.06,0,0,0,1-.86,1.27,1.27,0,0,0-.48-1.38A1.17,1.17,0,0,0,116.73,60.46Z"/><path class="cls-10" d="M115.8,63.52a1,1,0,0,0-.29.15,1.2,1.2,0,0,1-.31.13,1.51,1.51,0,0,1-.7,0s-.07,0-.06,0l.1.05a1.28,1.28,0,0,0,.72.11.65.65,0,0,0,.57-.4A0,0,0,0,0,115.8,63.52Z"/><path d="M115.18,62a.73.73,0,0,0-1,.27.58.58,0,0,0,.06.58.7.7,0,0,0,1.07.18A.66.66,0,0,0,115.18,62Z"/><path class="cls-10" d="M115.25,63.36c-.14,0-.29,0-.42,0a.88.88,0,0,1-.79-.47s0,.15,0,.15a.81.81,0,0,0,.57.48.86.86,0,0,0,.39,0c.08,0,.25,0,.29-.11S115.31,63.37,115.25,63.36Z"/><path class="cls-10" d="M113.7,62.47a1,1,0,0,0-.08.65.78.78,0,0,0,.36.55s0,0,0,0a.29.29,0,0,0,0-.18,2.39,2.39,0,0,1-.16-.32,2.18,2.18,0,0,1-.06-.67S113.71,62.45,113.7,62.47Z"/><path class="cls-10" d="M114.37,61.72a.45.45,0,0,0-.4.23.76.76,0,0,0-.11.6,2.4,2.4,0,0,1,.14-.39.54.54,0,0,1,.32-.27s.15,0,.16-.1S114.41,61.72,114.37,61.72Z"/><path class="cls-10" d="M115.31,61.94s-.08,0-.07,0a.91.91,0,0,1,.39,1.14s0,0,0,0a.58.58,0,0,0,.15-.63A.89.89,0,0,0,115.31,61.94Z"/><path class="cls-10" d="M116.15,62.24a.44.44,0,0,0-.06-.16.82.82,0,0,0-.38-.25s0,0,0,.05a.57.57,0,0,1,.31.32,1.11,1.11,0,0,0,0,.17.67.67,0,0,0,.06.12.61.61,0,0,1-.12.76s0,0,0,0a.29.29,0,0,0,.15-.14.59.59,0,0,0,.08-.66s0-.06,0-.09A.33.33,0,0,1,116.15,62.24Z"/><path class="cls-10" d="M115.05,61.34c-.16,0-.52,0-.56.25,0,0,0,.08,0,.07a1.38,1.38,0,0,1,.53-.16.5.5,0,0,1,.43.3s.07,0,.06,0A.5.5,0,0,0,115.05,61.34Z"/><path class="cls-10" d="M114.15,61.33a.41.41,0,0,0-.47.13c-.08.1-.21.32-.14.45s0,0,0,0a.66.66,0,0,1,.16-.31.69.69,0,0,1,.4-.22A0,0,0,0,0,114.15,61.33Z"/><path class="cls-10" d="M115.31,61.08a.39.39,0,0,0-.35,0s0,.06,0,0l.05,0c.19-.06.4.14.54.24s0,0,0,0S115.43,61.12,115.31,61.08Z"/><path class="cls-4" d="M119.82,64.91c.35-1-.66-1.19-.85-1.22.38-.88-.32-1.17-.7-1.36s-1-.14-1.43.56a.72.72,0,0,0-1,.28.9.9,0,0,0,.12,1.15,1.12,1.12,0,0,0,.48,2,1,1,0,0,0,.69-.11.85.85,0,0,0,1,.33,1,1,0,0,0,.73-.92C119.3,65.72,119.67,65.32,119.82,64.91Z"/><path class="cls-5" d="M117.84,65.6a.86.86,0,0,0-.28,0,1,1,0,0,1-.29,0,1.23,1.23,0,0,1-.49-.32l0,0a.3.3,0,0,0,0,.08,1,1,0,0,0,.48.4.56.56,0,0,0,.6,0S117.86,65.6,117.84,65.6Z"/><path d="M117.92,64.33a.55.55,0,0,0-.72-.2.42.42,0,0,0-.18.38.52.52,0,0,0,.6.53A.5.5,0,0,0,117.92,64.33Z"/><path class="cls-5" d="M117.5,65.24a1.59,1.59,0,0,0-.32-.16.75.75,0,0,1-.36-.7.59.59,0,0,0,0,.13.71.71,0,0,0,.2.6.73.73,0,0,0,.28.19c.06,0,.19.09.26,0S117.55,65.27,117.5,65.24Z"/><path class="cls-5" d="M116.78,63.9a.81.81,0,0,0-.35.43.67.67,0,0,0,0,.57s0,0,0,0a.23.23,0,0,0,0-.16,3,3,0,0,1,0-.31,1.59,1.59,0,0,1,.26-.52S116.79,63.89,116.78,63.9Z"/><path class="cls-5" d="M117.6,63.87a.38.38,0,0,0-.4,0,.58.58,0,0,0-.34.39,1.29,1.29,0,0,1,.27-.23.48.48,0,0,1,.35,0s.14,0,.17,0S117.63,63.89,117.6,63.87Z"/><path class="cls-5" d="M118.18,64.23s-.06,0-.05,0a.79.79,0,0,1-.23,1s0,0,0,0c.21,0,.35-.22.4-.4A.71.71,0,0,0,118.18,64.23Z"/><path class="cls-5" d="M118.66,64.82a.2.2,0,0,0,0-.15.57.57,0,0,0-.16-.34s0,0,0,0a.46.46,0,0,1,.08.37.52.52,0,0,1-.06.13.49.49,0,0,0,0,.12.51.51,0,0,1-.42.5s0,0,0,0a.37.37,0,0,0,.18,0,.51.51,0,0,0,.35-.45v-.08A.37.37,0,0,1,118.66,64.82Z"/><path class="cls-5" d="M118.27,63.67c-.11-.08-.41-.19-.53-.06l-.06,0a1.19,1.19,0,0,1,.46.12.42.42,0,0,1,.18.41s0,0,.05,0A.43.43,0,0,0,118.27,63.67Z"/><path class="cls-5" d="M117.68,63.51a.35.35,0,0,0-.4-.11c-.1,0-.29.14-.3.27s0,0,0,0a.79.79,0,0,1,.25-.15.61.61,0,0,1,.4,0S117.69,63.53,117.68,63.51Z"/><path class="cls-5" d="M118.57,63.6a.34.34,0,0,0-.25-.17s0,0,0,0h0c.17,0,.23.28.29.42h0A.31.31,0,0,0,118.57,63.6Z"/><rect class="cls-11" x="117.41" y="89.08" width="0.38" height="42.57"/><rect class="cls-11" x="96.32" y="110.18" width="42.57" height="0.38"/><rect class="cls-11" x="117.41" y="89.08" width="0.38" height="42.57" transform="translate(-17.38 22.1) rotate(-10)"/><rect class="cls-11" x="96.32" y="110.18" width="42.57" height="0.38" transform="translate(-17.4 22.13) rotate(-10.01)"/><rect class="cls-11" x="117.41" y="89.08" width="0.38" height="42.57" transform="matrix(0.94, -0.34, 0.34, 0.94, -30.66, 46.88)"/><rect class="cls-11" x="96.32" y="110.18" width="42.57" height="0.38" transform="translate(-30.65 46.86) rotate(-19.99)"/><rect class="cls-11" x="117.41" y="89.08" width="0.38" height="42.57" transform="matrix(0.87, -0.5, 0.5, 0.87, -39.43, 73.59)"/><rect class="cls-11" x="96.32" y="110.18" width="42.57" height="0.38" transform="translate(-39.43 73.57) rotate(-30)"/><rect class="cls-11" x="117.41" y="89.08" width="0.38" height="42.57" transform="translate(-43.43 101.41) rotate(-40)"/><rect class="cls-11" x="96.32" y="110.18" width="42.57" height="0.38" transform="translate(-43.43 101.43) rotate(-40.01)"/><rect class="cls-11" x="117.41" y="89.08" width="0.38" height="42.57" transform="translate(-42.54 129.51) rotate(-50)"/><rect class="cls-11" x="96.32" y="110.18" width="42.57" height="0.38" transform="translate(-42.54 129.49) rotate(-49.99)"/><rect class="cls-11" x="96.32" y="110.18" width="42.57" height="0.38" transform="translate(-42.54 129.49) rotate(-49.99)"/><rect class="cls-11" x="117.41" y="89.08" width="0.38" height="42.57" transform="translate(-42.54 129.51) rotate(-50)"/><rect class="cls-11" x="96.32" y="110.18" width="42.57" height="0.38" transform="translate(-36.8 156.98) rotate(-59.98)"/><rect class="cls-11" x="117.41" y="89.08" width="0.38" height="42.57" transform="translate(-36.78 157.03) rotate(-60)"/><rect class="cls-11" x="96.32" y="110.18" width="42.57" height="0.38" transform="translate(-26.32 183.16) rotate(-70.01)"/><rect class="cls-11" x="117.41" y="89.08" width="0.38" height="42.57" transform="translate(-26.33 183.13) rotate(-70)"/><rect class="cls-11" x="96.32" y="110.18" width="42.57" height="0.38" transform="translate(-11.54 206.98) rotate(-79.99)"/><rect class="cls-11" x="117.41" y="89.08" width="0.38" height="42.57" transform="translate(-11.51 207.02) rotate(-80)"/><path class="cls-12" d="M117.6,84.1a26.25,26.25,0,1,0,26.25,26.24A26.25,26.25,0,0,0,117.6,84.1Zm0,47.39a21.15,21.15,0,1,1,21.14-21.15A21.14,21.14,0,0,1,117.6,131.49Z"/><path class="cls-13" d="M117.6,86.87a23.48,23.48,0,1,0,23.47,23.47A23.47,23.47,0,0,0,117.6,86.87Zm0,44.62a21.15,21.15,0,1,1,21.14-21.15A21.14,21.14,0,0,1,117.6,131.49Z"/><circle class="cls-14" cx="117.6" cy="110.37" r="3.15"/><path class="cls-15" d="M90.11,110.91a.57.57,0,0,1-.57-.57,28.06,28.06,0,0,1,52.88-13.08.56.56,0,0,1-.23.76.58.58,0,0,1-.77-.24,26.93,26.93,0,0,0-50.75,12.56A.56.56,0,0,1,90.11,110.91Z"/><path class="cls-16" d="M74.59,114a1.69,1.69,0,0,1-.69-3.24c2.85-1.26,6.91-7.1,11.6-13.85.94-1.35,1.91-2.75,2.93-4.19a36.5,36.5,0,0,1,15.76-12.88A1.7,1.7,0,0,1,105.35,83,33.65,33.65,0,0,0,91.19,94.67q-1.51,2.14-2.91,4.16c-5.39,7.76-9.29,13.37-13,15A1.8,1.8,0,0,1,74.59,114Z"/><path class="cls-15" d="M105.35,83A33.84,33.84,0,0,0,91.19,94.66c-1,1.43-2,2.83-2.91,4.17-5.39,7.76-9.29,13.37-13,15a1.5,1.5,0,0,1-.68.15A1.7,1.7,0,0,1,73,113a2,2,0,0,1-.08-.22,1.7,1.7,0,0,0,1.37.69,1.8,1.8,0,0,0,.68-.14c3.72-1.65,7.62-7.26,13-15q1.4-2,2.91-4.16a33.65,33.65,0,0,1,14.16-11.65,1.7,1.7,0,0,0,1-2,1.67,1.67,0,0,1,.22.42A1.68,1.68,0,0,1,105.35,83Z"/><path class="cls-15" d="M80.22,109.72c-.52.6-1,1.16-1.55,1.65l-1.25-3.58c.32-.37.66-.76,1-1.18Z"/><path class="cls-15" d="M103.32,84h0c-.39.21-.81.44-1.28.72L101.75,81c.46-.24.87-.44,1.21-.6Z"/><path class="cls-16" d="M75.55,96a20.15,20.15,0,0,1-9.29-2.52,1.69,1.69,0,0,1,1.57-3c8.15,4.25,15,2.15,20.26-6.27,4.27-6.78,13.72-17.49,14.11-17.93.62-.7,2.75,2,2.13,2.69-.09.11-9.25,10.5-13.38,17S81.5,96,75.55,96Z"/><path class="cls-15" d="M104.33,68.92c-.09.11-9.25,10.5-13.38,17s-9.45,10-15.4,10a20.13,20.13,0,0,1-9.29-2.51,1.68,1.68,0,0,1-.87-1.18,1.6,1.6,0,0,0,.58.51,20.13,20.13,0,0,0,9.29,2.51c5.95,0,11.24-3.37,15.4-10s13.28-17,13.38-17a.7.7,0,0,0,.06-.66C104.41,68.13,104.56,68.66,104.33,68.92Z"/><path class="cls-15" d="M71.63,95.48a21,21,0,0,1-2.16-.64l-1.64-4.41a22.82,22.82,0,0,0,2.28,1Z"/><path class="cls-15" d="M102.35,71.21l-.13.15-1.08,1.28-.31-4.84,1.27-1.47,0,0h0Z"/><path class="cls-16" d="M118.17,112.15A1.14,1.14,0,0,1,117,111V81.25h2.26V111A1.13,1.13,0,0,1,118.17,112.15Z"/><path class="cls-15" d="M117.6,81.25V112a1.14,1.14,0,0,1-.56-1V81.25Z"/><path class="cls-9" d="M108.89,60.6h-4.56a1.13,1.13,0,1,1,0-2.25h4.56a1.13,1.13,0,1,1,0,2.25Z"/><rect class="cls-9" x="104.33" y="67.05" width="5.81" height="1.51"/><rect class="cls-9" x="105.38" y="77.28" width="5.7" height="1.51"/><rect class="cls-11" x="34.02" y="89.06" width="0.38" height="42.57"/><rect class="cls-11" x="12.92" y="110.15" width="42.57" height="0.38"/><rect class="cls-11" x="34.02" y="89.06" width="0.38" height="42.57" transform="translate(-18.64 7.62) rotate(-10)"/><rect class="cls-11" x="12.92" y="110.15" width="42.57" height="0.38" transform="translate(-18.67 7.63) rotate(-10.01)"/><rect class="cls-11" x="34.02" y="89.06" width="0.38" height="42.57" transform="translate(-35.68 18.35) rotate(-20)"/><rect class="cls-11" x="12.92" y="110.15" width="42.57" height="0.38" transform="translate(-35.66 18.35) rotate(-19.99)"/><rect class="cls-11" x="34.02" y="89.06" width="0.38" height="42.57" transform="translate(-50.59 31.89) rotate(-30)"/><rect class="cls-11" x="12.92" y="110.15" width="42.57" height="0.38" transform="translate(-50.58 31.88) rotate(-30)"/><rect class="cls-11" x="34.02" y="89.06" width="0.38" height="42.57" transform="translate(-62.92 47.81) rotate(-40)"/><rect class="cls-11" x="12.92" y="110.15" width="42.57" height="0.38" transform="translate(-62.94 47.82) rotate(-40.01)"/><rect class="cls-11" x="34.02" y="89.06" width="0.38" height="42.57" transform="translate(-72.31 65.62) rotate(-50)"/><rect class="cls-11" x="12.92" y="110.15" width="42.57" height="0.38" transform="matrix(0.64, -0.77, 0.77, 0.64, -72.3, 65.61)"/><rect class="cls-11" x="12.92" y="110.15" width="42.57" height="0.38" transform="matrix(0.64, -0.77, 0.77, 0.64, -72.3, 65.61)"/><rect class="cls-11" x="34.02" y="89.06" width="0.38" height="42.57" transform="translate(-72.31 65.62) rotate(-50)"/><rect class="cls-11" x="12.92" y="110.15" width="42.57" height="0.38" transform="translate(-78.45 84.75) rotate(-59.98)"/><rect class="cls-11" x="34.02" y="89.06" width="0.38" height="42.57" transform="translate(-78.46 84.8) rotate(-60)"/><rect class="cls-11" x="12.92" y="110.15" width="42.57" height="0.38" transform="translate(-81.18 104.76) rotate(-70.01)"/><rect class="cls-11" x="34.02" y="89.06" width="0.38" height="42.57" transform="translate(-81.18 104.75) rotate(-70)"/><rect class="cls-11" x="12.92" y="110.15" width="42.57" height="0.38" transform="translate(-80.4 124.84) rotate(-79.99)"/><rect class="cls-11" x="34.02" y="89.06" width="0.38" height="42.57" transform="translate(-80.4 124.87) rotate(-80)"/><path class="cls-12" d="M34.21,84.07a26.25,26.25,0,1,0,26.25,26.25A26.25,26.25,0,0,0,34.21,84.07Zm0,47.39a21.14,21.14,0,1,1,21.14-21.14A21.13,21.13,0,0,1,34.21,131.46Z"/><path class="cls-13" d="M34.21,86.85a23.47,23.47,0,1,0,23.47,23.47A23.47,23.47,0,0,0,34.21,86.85Zm0,44.61a21.14,21.14,0,1,1,21.14-21.14A21.13,21.13,0,0,1,34.21,131.46Z"/><circle class="cls-14" cx="34.21" cy="110.34" r="3.15"/><path class="cls-15" d="M6.72,110.88a.57.57,0,0,1-.57-.56A28.06,28.06,0,0,1,59,97.23a.57.57,0,0,1-1,.53A26.93,26.93,0,0,0,7.28,110.32.56.56,0,0,1,6.72,110.88Z"/><path class="cls-16" d="M118.17,112.15a8.17,8.17,0,0,1-1-.13c-13.47-3.39-14.47-29.6-15.2-48.74-.08-2.13-.16-4.15-.25-6-.27-5.55-4-9.9-8.46-9.9H87.19a1.7,1.7,0,0,1,0-3.39H93.3c6.28,0,11.48,5.76,11.85,13.12.09,1.86.16,3.89.25,6C106.05,80.2,107,106,118,108.74c.91.23,1.28,1.61,1.23,2.06C119.18,111.58,118.93,112.15,118.17,112.15Z"/><path class="cls-16" d="M74.5,113.89a1.63,1.63,0,0,1-.57.1,1.7,1.7,0,0,1-1.6-1.12L58.1,73h3.59l13.83,38.73A1.68,1.68,0,0,1,74.5,113.89Z"/><path class="cls-15" d="M69.63,105.29l3.63.09-.58-1.61-3.54.14Z"/><path class="cls-16" d="M34.19,112.82a1,1,0,0,1-.24,0,1.1,1.1,0,0,1-.77-.6l-15-30.27a1.13,1.13,0,1,1,2-1l14.36,29,28.83-23.2a1.13,1.13,0,1,1,1.42,1.76L34.9,112.57A1.16,1.16,0,0,1,34.19,112.82Z"/><polygon class="cls-15" points="30.6 106.97 31.48 108.76 33.21 107.16 32.48 105.69 30.6 106.97"/><polygon class="cls-15" points="20.47 82.55 32.9 107.44 33.21 107.16 21.03 82.55 20.47 82.55"/><path class="cls-17" d="M108.78,66.13l1.6,14.5a.69.69,0,0,0,.69.62h15.31a.69.69,0,0,0,.68-.54l3.19-14.51a.69.69,0,0,0-.68-.84H109.48A.7.7,0,0,0,108.78,66.13Z"/><path class="cls-16" d="M55.35,81.8H15.94a1.13,1.13,0,0,1,0-2.26H55.35a1.13,1.13,0,1,1,0,2.26Z"/><path class="cls-16" d="M59.65,92.34a1.12,1.12,0,0,1-.91-.46L51.29,81.8c-.38-.5,0-.91.45-1.28a1.13,1.13,0,0,1,1.58.23l7.24,9.79a1.14,1.14,0,0,1-.91,1.8Z"/><path class="cls-16" d="M109.37,62.94h0a1.23,1.23,0,0,1-1.24-1.24V57.25A1.23,1.23,0,0,1,109.37,56h0Z"/><path class="cls-6" d="M110.58,62.94h-1.21V56h1.21a3.47,3.47,0,0,1,3.47,3.46h0A3.47,3.47,0,0,1,110.58,62.94Z"/><path class="cls-9" d="M62,73.88H57.91a.74.74,0,0,1-.74-.73h0a.74.74,0,0,1,.74-.74H62a.74.74,0,0,1,.74.74h0A.74.74,0,0,1,62,73.88Z"/><path class="cls-9" d="M105.25,57.89h-4.1a.74.74,0,0,1-.74-.74h0a.74.74,0,0,1,.74-.73h4.1a.73.73,0,0,1,.73.73h0A.74.74,0,0,1,105.25,57.89Z"/><path class="cls-9" d="M97.6,42.59v6.1a.73.73,0,0,1-.73.73h0a.74.74,0,0,1-.74-.73v-6.1a.74.74,0,0,1,.74-.73h0A.73.73,0,0,1,97.6,42.59Z"/><path class="cls-12" d="M96.13,48.09H86.35a2.45,2.45,0,0,1-2.45-2.45h0a2.45,2.45,0,0,1,2.45-2.45h9.78Z"/><path class="cls-9" d="M84.09,53.6a.66.66,0,0,1-.27-.06.56.56,0,0,1-.23-.76l.16-.31a3.09,3.09,0,0,1,2.68-1.65l7.91-.16a2,2,0,0,0,1.53-.77,2,2,0,0,0,.35-1.67A.56.56,0,0,1,97.31,48a3.1,3.1,0,0,1-2.94,3.84l-7.92.15A2,2,0,0,0,84.75,53l-.16.31A.56.56,0,0,1,84.09,53.6Z"/><circle class="cls-18" cx="72.63" cy="111.17" r="6.3" transform="translate(-56.75 81.29) rotate(-43.84)"/><path class="cls-18" d="M37.92,110.61a3.72,3.72,0,1,1-3.65-3.78A3.72,3.72,0,0,1,37.92,110.61Z"/><polygon class="cls-18" points="34.27 106.83 72.73 104.87 72.53 117.47 34.15 114.27 34.27 106.83"/><circle class="cls-9" cx="72.63" cy="111.17" r="3.15" transform="translate(-54.81 73.85) rotate(-40.52)"/><path class="cls-15" d="M74.23,111.4a1.6,1.6,0,1,1-1.57-1.62A1.6,1.6,0,0,1,74.23,111.4Z"/><path class="cls-15" d="M77.3,115.4a6.63,6.63,0,0,1-1.13,1l-4.5-4.31,1.22-.79Z"/><path class="cls-16" d="M82.89,122a1.16,1.16,0,0,1-.77-.31L72,112.1a1.13,1.13,0,0,1,1.55-1.64L83.67,120a1.13,1.13,0,0,1,0,1.59A1.15,1.15,0,0,1,82.89,122Z"/><path class="cls-12" d="M88,122h-8.3a1,1,0,0,1-1-1h0a1,1,0,0,1,1-1H88a1,1,0,0,1,1,1h0A1,1,0,0,1,88,122Z"/><path class="cls-16" d="M74.23,111.19a1.6,1.6,0,1,1-1.57-1.62A1.6,1.6,0,0,1,74.23,111.19Z"/><polygon class="cls-15" points="80.36 119.98 80.07 119.71 83.36 119.71 83.65 119.98 80.36 119.98"/><path class="cls-16" d="M35.62,110.56A1.6,1.6,0,1,1,34,108.94,1.6,1.6,0,0,1,35.62,110.56Z"/><path class="cls-16" d="M58.94,111.21a2.47,2.47,0,0,1-4.93-.08,2.47,2.47,0,1,1,4.93.08Z"/><path class="cls-11" d="M34.81,108.39a.37.37,0,0,1-.37-.36.38.38,0,0,1,.36-.39L72,106.08a.39.39,0,0,1,.39.36.38.38,0,0,1-.36.4l-37.23,1.55Z"/><polygon class="cls-16" points="34.05 108.94 56.52 108.7 56.44 113.63 33.99 112.13 34.05 108.94"/><path class="cls-11" d="M55.35,110.27H35.64a.37.37,0,0,1-.37-.37.38.38,0,0,1,.37-.38H55.35a.38.38,0,0,1,.38.38A.37.37,0,0,1,55.35,110.27Z"/><polygon class="cls-19" points="55.17 63.88 58.22 72.41 61.06 72.41 58.01 63.88 55.17 63.88"/><path class="cls-19" d="M49.12,62.93h0l-3.88-.37a.38.38,0,0,1-.33-.41.37.37,0,0,1,.41-.34l3.87.38a.37.37,0,0,1,.34.41A.38.38,0,0,1,49.12,62.93Z"/><path class="cls-19" d="M49.12,64h0l-3.88-.37a.38.38,0,0,1-.33-.41.37.37,0,0,1,.41-.34l3.87.38a.37.37,0,0,1,.34.41A.38.38,0,0,1,49.12,64Z"/><path class="cls-19" d="M49.12,65.24h0l-3.88-.37a.38.38,0,0,1-.33-.41.37.37,0,0,1,.41-.34l3.87.38a.37.37,0,0,1,.34.41A.38.38,0,0,1,49.12,65.24Z"/><path class="cls-19" d="M49.12,66.3h0l-3.88-.38a.38.38,0,0,1,.08-.75l3.87.38a.37.37,0,0,1,.34.41A.38.38,0,0,1,49.12,66.3Z"/><path class="cls-19" d="M45.36,63.66a.38.38,0,0,1-.16-.72l1.95-.89a.37.37,0,0,1,.5.18.39.39,0,0,1-.19.5l-1.94.89A.32.32,0,0,1,45.36,63.66Z"/><path class="cls-19" d="M45.36,64.86a.36.36,0,0,1-.33-.21.37.37,0,0,1,.16-.5l2-1a.37.37,0,0,1,.5.17.38.38,0,0,1-.16.5l-1.95,1A.33.33,0,0,1,45.36,64.86Z"/><path class="cls-19" d="M45.36,65.92A.37.37,0,0,1,45,65.7a.38.38,0,0,1,.18-.5l1.87-.85a.37.37,0,0,1,.5.18.39.39,0,0,1-.19.5l-1.86.86A.45.45,0,0,1,45.36,65.92Z"/><path class="cls-19" d="M47.5,67.81c-2,0-2.43-.9-2.48-1a.37.37,0,0,1,.16-.48l1.67-.9a.36.36,0,0,1,.5.16.38.38,0,0,1-.15.51L46,66.72c.39.24,1.26.52,3.07.16a8.39,8.39,0,0,0,2.85-1,4.12,4.12,0,0,1,2.5-.67.39.39,0,0,1,.37.39.38.38,0,0,1-.39.36,3.42,3.42,0,0,0-2.12.58,10.4,10.4,0,0,1-4.76,1.31Z"/><path class="cls-12" d="M47.43,59.57a1,1,0,0,0-1,1.52c1,2.07,3.64,5.41,9.8,5.41a8.19,8.19,0,0,0,3.66-.87,17.11,17.11,0,0,1,8.73-1.47l.91.08h0A5.59,5.59,0,0,0,64,60.09l-5.38.14Z"/><polygon class="cls-15" points="18.13 81.8 20.65 81.8 21.55 83.61 19.03 83.61 18.13 81.8"/><polygon class="cls-15" points="51.28 81.8 54.1 81.8 55.45 83.61 52.62 83.61 51.28 81.8"/><polygon class="cls-15" points="63.05 86.87 63.9 89.24 62.41 90.44 61.65 88.14 63.05 86.87"/><polygon class="cls-15" points="38.71 106.61 42.55 106.41 44.04 105.22 40.44 105.22 38.71 106.61"/><polygon class="cls-15" points="63.69 88.65 41.55 106.46 42.55 106.41 63.9 89.24 63.69 88.65"/><polygon class="cls-15" points="53.92 82.55 59.35 90 59.86 89.59 54.65 82.55 53.92 82.55"/><path class="cls-20" d="M112.62,59.25a.18.18,0,0,1-.18-.19,1.58,1.58,0,0,0-1.57-1.57.18.18,0,0,1-.19-.18.18.18,0,0,1,.19-.19,1.94,1.94,0,0,1,1.94,1.94A.18.18,0,0,1,112.62,59.25Z"/><polygon class="cls-21" points="105.97 58.34 105.97 60.6 105.3 60.6 105.2 58.34 105.97 58.34"/><polygon class="cls-21" points="106.32 67.05 106.32 68.55 105.61 68.55 105.55 67.05 106.32 67.05"/><polygon class="cls-21" points="106.94 77.28 106.94 78.79 106.24 78.79 106.11 77.28 106.94 77.28"/><polygon class="cls-15" points="58.41 73.88 58.87 75.16 62.43 75.16 62.01 73.88 58.41 73.88"/><path class="cls-15" d="M105.22,58.61h-3.37l0,0c0-.23,0-.46,0-.69h3.39C105.19,58.13,105.21,58.37,105.22,58.61Z"/><rect class="cls-15" x="117.04" y="81.25" width="2.26" height="1.26"/><path class="cls-12" d="M118.78,110.68a.88.88,0,1,1-.87-.88A.87.87,0,0,1,118.78,110.68Z"/><circle class="cls-11" cx="117.91" cy="110.68" r="0.52"/><circle class="cls-11" cx="72.63" cy="111.17" r="0.52"/><circle class="cls-11" cx="33.99" cy="110.55" r="0.52"/><path class="cls-22" d="M57.17,61.56h0l-9-.6a.37.37,0,0,1-.35-.4.38.38,0,0,1,.4-.35l9,.6a.38.38,0,0,1,0,.75Z"/><polygon class="cls-23" points="129.94 67.59 108.94 67.59 108.89 67.05 130.06 67.05 129.94 67.59"/></svg>