<svg id="छात्र" xmlns="http://www.w3.org/2000/svg" viewBox="0 0 150 160"><defs><style>.cls-1,.cls-20{fill:#fff;}.cls-2{fill:#fc4d00;}.cls-3{fill:#700606;opacity:0.37;}.cls-4{fill:#5b1707;}.cls-5{fill:#ff5f27;}.cls-6{fill:#ff8a57;}.cls-7{fill:#ffc19f;}.cls-8{fill:#fff8b3;}.cls-9{fill:#ed3a3a;}.cls-10{fill:#992020;}.cls-11{fill:#d3dae5;}.cls-12{fill:#73dcf4;}.cls-13{fill:#133b75;}.cls-14{fill:#3ab7dd;}.cls-15{fill:#6bddf7;}.cls-16{fill:#024fa3;}.cls-17{fill:#c3f1fc;}.cls-18{opacity:0.55;}.cls-19{opacity:0.6;}.cls-20{opacity:0.61;}.cls-21{fill:#053b56;opacity:0.35;}.cls-22{fill:#601805;opacity:0.19;}.cls-23{fill:#e04b00;}.cls-24{fill:#e25b00;}.cls-25{fill:#ff9d00;}.cls-26{fill:#f4b18c;}.cls-27{fill:#84220f;}.cls-28{fill:#e0956c;}.cls-29{fill:#ff9797;}.cls-30{fill:#701608;}.cls-31{fill:#dd6b5b;}.cls-32{fill:#c4735b;}.cls-33{fill:#752912;}.cls-34{fill:#f9feff;}.cls-35{fill:#773220;}.cls-36{fill:#63190d;}.cls-37{fill:#fefffe;}</style></defs><path class="cls-1" d="M116.23,120.64l-1-.35c-.59-.21-1.22-.46-1.85-.69-1.11-.43-2.15-.83-3-1.09l-2.15-.68,0,.14-2.39-1.11-.06.18c-1.77-1-3.09-1.74-4.09-2.33l.17-.11-.23-1.33c0-.06-1.06-6.16-2-11.59a16.19,16.19,0,0,0,4.54-2.25l.7-.45c.91-.57,2.42-1.52.6-13.08a2,2,0,0,0-.1-.42l0-.14-.27-.4-.12-.19h0c-.13-2-.26-4-.39-5.94q.36-.32.63-.6L106.4,77,105,75.1a1.85,1.85,0,0,0,.61-1.53c-.18-6.62-.36-13.46-8.3-13.59a11.59,11.59,0,0,0,9.56-7.68,10.15,10.15,0,0,0,0-7.07A24.61,24.61,0,0,0,109.43,33C109,20.83,99.52,13.41,82.71,12.08,81.88,12,81,12,80.23,12a26.6,26.6,0,0,0-7.87,1.14,18.69,18.69,0,0,0-4.79,1.64A21.56,21.56,0,0,0,56.63,31.24c-.25,1.2-.42,2.23-.55,3.06-.43,2.69-.52,2.72-1.35,3.05l-5.1,2,5.21,1.74a10.3,10.3,0,0,0,2.17.53,2.61,2.61,0,0,1-1.34,2l-3.28,2A2.38,2.38,0,0,0,50,43.83a4.11,4.11,0,0,0-3.41,2.32,4.78,4.78,0,0,0-.46,1.43l-.29-.35c-1.14-1.42-1.89-2.36-2.58-3.06a2.93,2.93,0,0,0-2.08-.87,3.07,3.07,0,0,0-2.58,1.41,2.61,2.61,0,0,0-.35,2l-.15-.08a3.1,3.1,0,0,0-1.42-.35,3,3,0,0,0-2.82,2,2.87,2.87,0,0,0,.5,2.73,2.6,2.6,0,0,0-1.91,1.89,3,3,0,0,0,1.68,3.32l.11.06a2.63,2.63,0,0,0-.48,1.38,3,3,0,0,0,2.33,3c1.57.44,6.66,1.44,8.78,1.72h.44a7.31,7.31,0,0,0,.8,0c3.51,2.44,6.45,4.42,8.9,6a14.45,14.45,0,0,0-.56,1.58L54,71.31l1.18.82c1.23.86,6.52,3.8,10.23,5.65.06,1.78.14,3.77.23,6l.08,2,0,.06-.26.38-.07.46a3.74,3.74,0,0,0,.46,3.12l.06.06.06,1.7c-.12,2.18-.23,4.08-.32,5.44l-.1,1.49,1.11.41c-.19,5.63-.38,13.73-.45,17l0,1.74,1.39.22c-.18,4.53-.34,9-.46,12.83l-.84-.06,0,2.17c0,.13,0,.34,0,.59A2.12,2.12,0,0,0,65,134.62l-.15.39-.45.07a2.3,2.3,0,0,0-1.1.61h-.06a2.28,2.28,0,0,0-1.39.71l-.22,0A2.26,2.26,0,0,0,60,137.62a22.26,22.26,0,0,0-4,2.68l-.5-.24-1,2.21v.14a2.47,2.47,0,0,0-.06.29l-.05.25,0,.31a2.33,2.33,0,0,0,.73,1.46c1.16,1.07,3.22,1.54,6.67,1.54,6.56,0,16-1.77,16.44-1.84L80,144.1l-.06-1.72c0-.17,0-.36,0-.54v-.51c0-.62,0-1.3,0-2,0-1.19,0-2.32,0-3.19l-.1-2.24h-.07c0-.09.33-2.4.33-2.4l-.77-.05c.11-1.1.22-2.23.33-3.38.3-3.12.61-6.33.93-9.4.08,0,.66,0,.66,0l1.74,0,.21-1.72c.1-.82.33-3.35.57-5.94.88,3.22,1.53,5.52,1.82,6.28l.51,1.35.66,0a7.82,7.82,0,0,0,1,1.77c1.13,1.5,5,3.58,14,7.51l-.64,1.68,2.06.59a2.17,2.17,0,0,0,.74,1.79l.31.27c0,.15-.06.3-.09.45a2.28,2.28,0,0,0,.19,1.24.09.09,0,0,1,0,0,2.27,2.27,0,0,0,.18,1.56c0,.07,0,.14,0,.21a2.23,2.23,0,0,0,.37,1.7l.19.24a20,20,0,0,0,1.36,5.18l-.21.41,1.38,1.18.06,0,.29.17a2,2,0,0,0,.49.19l.34.08h.25a2.28,2.28,0,0,0,1-.25c4-2.06,6.68-15.94,7.65-21.81l.29-1.7ZM95.47,59.91,96,60h-.55ZM56.12,47.29a7.16,7.16,0,0,0,.86.21c0,.07,0,.14,0,.21a11,11,0,0,0,3.7,6.52,10.59,10.59,0,0,0,.75,2.22,12.37,12.37,0,0,0,3.75,4.22c-1.19-.55-2.33-1.07-3.42-1.51l-1.08-.39c-2.43-1.21-5.24-2.62-8-4.1,0-2.94-.09-4.77-.16-6.53,0-.65-.06-1.3-.09-2Z"/><path class="cls-2" d="M103.66,96.84a30.25,30.25,0,0,1-6,2.89c-4.13,1.13-29.21-.93-29.47-2.93C67.27,68.18,66,64.28,71.13,62c2.86-.27,17.15,0,26,0,5.46,0,6.25,3.42,6.47,11.65,0,.22-1.42.25-1.62.29C102,80.39,103.31,92.3,103.66,96.84Z"/><path class="cls-3" d="M97.42,67.68S69.6,68,67.53,68c-.5,4.76.12,12.44.63,28.79.26,2,25.34,4.06,29.47,2.93.4-.13.76-.28,1.13-.42Z"/><path class="cls-4" d="M101.59,67.88c-.06-.77-.47-4.32-2.85-4.33-2.56,0-2.58,3.5-2.61,4.71-.14,6,.71,19.19,1.71,31.06a30.3,30.3,0,0,0,5.67-2.93C102.73,85.44,102.09,73.47,101.59,67.88Z"/><path class="cls-5" d="M101.58,67.51c-1.21.11-5,.14-5.44.27-.14,5.81.62,20.52,1.61,31.94a33.73,33.73,0,0,0,6-2.74C103,86.45,102.35,73.18,101.58,67.51Z"/><path class="cls-3" d="M96.84,87.31c.28,4.84.51,7.85.91,12.41a33.73,33.73,0,0,0,6-2.74c-.24-3.4-.49-7.48-.72-11.11A59.21,59.21,0,0,1,96.84,87.31Z"/><path class="cls-5" d="M96.85,87.45c.26,4.15.56,8.4.9,12.27a4.68,4.68,0,0,0,1.18.07,17.18,17.18,0,0,0,4.84-2.5c1.13-.72.07-8.69-.31-11.08a.55.55,0,0,0-.44-.48C103.31,87.84,98.94,88.2,96.85,87.45Z"/><path class="cls-6" d="M97.3,87.76a2.83,2.83,0,0,1-.44-.13l0-.28c1.61.55,4.58.41,5.68-.51a1.32,1.32,0,0,0,.5-1.11.27.27,0,0,1,.25.11,1.46,1.46,0,0,1-.57,1.21C101.62,88,99,88.16,97.3,87.76Z"/><path class="cls-7" d="M109.09,121.15c-.5,1.52-1.33,5.72-2.67,6.63-5.69-2.45-15.76-6.73-17.15-8.58s-2.86-9.08-4.92-15.66c-.42-1.36-2.26-1.59-3.39.06-1.65,2.4-3.34,26.28-4.54,36-2.91.64-5.51-1.09-7.52-1.12.19-9.82,1.17-34.52,1.5-38.28,4.86-1.36,19-1.89,24.43-2.15,2,12.53,2.37,16.24,3.08,16.69C98.86,115.35,101.27,116.89,109.09,121.15Z"/><path class="cls-8" d="M77,140.17a68.37,68.37,0,0,1-8.92-.65c-.07-1.89.22-5.68.21-6.77l9.49.65C77.51,135.42,77.17,138.89,77,140.17Z"/><path class="cls-9" d="M66.24,137c.14-.49.42-1.12.63-1.69s4.3-.36,4.31.66a5.19,5.19,0,0,1,0,.7c.71,0,1.47,0,2.29,0a39.56,39.56,0,0,0,4.45-.39c.07,1.61-.07,4.39,0,6.18,0,0-18.47,3.47-21.39.8C55.69,142.49,60.33,139.13,66.24,137Z"/><path class="cls-10" d="M77.88,141.33c0,.4,0,.78,0,1.12,0,0-18.47,3.47-21.39.8a.39.39,0,0,1,0-.47C61.58,143.88,73.29,142.11,77.88,141.33Z"/><path class="cls-11" d="M67.47,138.56a.25.25,0,0,0,.21.1.27.27,0,0,0,.15,0,.26.26,0,0,0,0-.36,3.15,3.15,0,0,0-3-1.22.27.27,0,0,0-.2.31.26.26,0,0,0,.31.2A2.58,2.58,0,0,1,67.47,138.56Zm-1.31.63a.26.26,0,0,0,.2.08.23.23,0,0,0,.17-.07.26.26,0,0,0,0-.36,3.63,3.63,0,0,0-3.07-1.16.27.27,0,0,0-.23.29.25.25,0,0,0,.29.22A3.09,3.09,0,0,1,66.16,139.19Zm-4.4-.49a.25.25,0,0,0,.3.21,3.37,3.37,0,0,1,2.74,1A.3.3,0,0,0,65,140a.25.25,0,0,0,.18-.08.25.25,0,0,0,0-.36A3.92,3.92,0,0,0,62,138.4.26.26,0,0,0,61.76,138.7Z"/><path class="cls-8" d="M112.69,122.1a70.5,70.5,0,0,1-3.12,8.15c-1.68-.43-4.94-1.7-5.9-2l3.28-8.69C108.65,120.37,111.62,121.6,112.69,122.1Z"/><path class="cls-9" d="M106.51,131.62c-.42-.29-.91-.77-1.37-1.17s1.14-4.16,2.1-3.82a4.25,4.25,0,0,1,.64.27c.25-.67.51-1.39.76-2.17a39.11,39.11,0,0,0,1.16-4.31c1.54.48,4.11,1.57,5.81,2.12,0,0-3.08,18.54-6.6,20.36C108,143.41,106.46,137.9,106.51,131.62Z"/><path class="cls-10" d="M114.55,122.17l1.06.37s-3.08,18.54-6.6,20.36c-.14.07-.29,0-.44-.13C111.35,138.36,113.7,126.75,114.55,122.17Z"/><path class="cls-11" d="M108.37,131a.23.23,0,0,0,.17-.17.19.19,0,0,0,0-.15.25.25,0,0,0-.32-.17A3.13,3.13,0,0,0,106,133a.26.26,0,0,0,.51.07A2.59,2.59,0,0,1,108.37,131Zm.15,1.45a.25.25,0,0,0,.14-.16.23.23,0,0,0,0-.18.25.25,0,0,0-.34-.14,3.61,3.61,0,0,0-2.13,2.49.26.26,0,1,0,.5.12A3,3,0,0,1,108.52,132.45Zm-2,4a.25.25,0,0,0,.3-.21,3.35,3.35,0,0,1,1.87-2.23.27.27,0,0,0,.14-.16.26.26,0,0,0-.36-.31,3.94,3.94,0,0,0-2.16,2.61A.25.25,0,0,0,106.55,136.41Z"/><path class="cls-7" d="M45.37,52.85c-.6-.36-2.95,4.46-2.37,4.86,8.25,5.77,18.52,12.83,21.89,14.1L69,65.2C63.21,62,53.74,57.87,45.37,52.85Z"/><path class="cls-12" d="M56.37,70.5a121.87,121.87,0,0,0,13,6.87c2.16-5.08,4.83-10.43,4.54-10.91-5-1.65-9.31-4-12.86-5.45C59.5,64.22,57.28,67.47,56.37,70.5Z"/><path class="cls-7" d="M40.75,57.06c-.57.15-3.51,0-4.53.14-.65.12-.68,1.18.42,1.49,1.51.43,6.49,1.4,8.51,1.67A5.46,5.46,0,0,0,50.69,55c0-4.29-.16-6.23-.25-8.86,0-.65-1.36-.42-2.07.92-.53,1-.23,2.66-.54,3.39s-1,.73-1.75.21c-2.14-2.62-3.32-4.2-4.23-5.13-.71-.71-1.93.1-1.59.8.56,1.16,1.81,3.4,3,5.55-2.17-1.39-4.9-3-6.05-3.54a.94.94,0,0,0-1,1.56c1.24,1,3.31,2.71,5.4,4.28-2-.34-4.88-1.13-6.14-1.31s-1.26,1.05-.35,1.51C38.44,56.16,40.11,56.76,40.75,57.06Z"/><path class="cls-12" d="M94.89,66.11c2,1.27,3.86,4.34,8.86,10.72-2.45,2.56-9.93,6-10.21,6-2.87-4.24-1.26-17.36-1.48-17.46A9.39,9.39,0,0,1,94.89,66.11Z"/><path class="cls-12" d="M96.39,97.2c-18.2,5.66-20.29,1.48-26.88.75a160,160,0,0,0-.36-31.34c6.25-1.16,15.78-1.42,22.75-1.28C93.43,70.33,95.72,91.34,96.39,97.2Z"/><path class="cls-13" d="M68.22,115.91a112.83,112.83,0,0,0,13,.81c.21-1.73,1.08-11.77,1.21-12.51s1.17-.92,1.54.08,2.93,10.82,3.5,12.3c2.38-.1,10.26-1.75,12.24-3,0,0-3-17.54-3.62-19.78C89.51,95,76.86,95.1,68.9,94,68.64,97.45,68.33,110.9,68.22,115.91Z"/><rect class="cls-14" x="74.22" y="63.13" width="13.75" height="4.52" transform="matrix(1, -0.04, 0.04, 1, -2.35, 3.03)"/><path class="cls-7" d="M86.18,57.84l.11,8.78c0,1.89-2.36,3.44-5.32,3.48s-5.37-1.46-5.39-3.35L75.47,58Z"/><path class="cls-15" d="M83.79,70.51l-5.19-.12s.17-2.23,1.76-2.45a5.85,5.85,0,0,0,2.14-.16A19,19,0,0,1,83.79,70.51Z"/><path class="cls-16" d="M81.13,84.6c1.27,0,2.51-.17,3.74-.32l-2-11.3c-.09-.69-2.73-.59-2.76.12l-1.3,11.47C79.57,84.59,80.34,84.63,81.13,84.6Z"/><path class="cls-17" d="M83.44,76.33l-.12-.71c-1.19.85-2.51,1.77-3.82,2.66l-.09.85C80.77,78.21,82.17,77.24,83.44,76.33Z"/><path class="cls-17" d="M79,82.88l-.1.85c1.65-1.08,3.55-2.38,5.25-3.58L84,79.44C82.4,80.58,80.6,81.82,79,82.88Z"/><path class="cls-17" d="M82.89,84.45l1.3-.11c.2-.15.42-.29.61-.44l-.12-.71Z"/><path class="cls-18" d="M82.85,73c-.09-.69-2.73-.59-2.76.12l-.25,2.26L83,74.07Z"/><path class="cls-16" d="M82.87,73.6a9.38,9.38,0,0,1-2.87.1.43.43,0,0,1-.45-.31l-1.39-4.16a.46.46,0,0,1,.41-.59,11.79,11.79,0,0,1,2.77-.34,11.23,11.23,0,0,1,2.62.14.48.48,0,0,1,.46.57l-1.13,4.25A.53.53,0,0,1,82.87,73.6Z"/><path class="cls-17" d="M82.08,68.29c-.94.71-2.12,1.56-3.41,2.47l.21.64c1.66-1.16,3.18-2.27,4.21-3.07A9.49,9.49,0,0,0,82.08,68.29Z"/><path class="cls-17" d="M83.58,72.17l.26-1c-1,.77-2.29,1.66-3.58,2.56a8.86,8.86,0,0,0,1.08,0C82.13,73.21,82.88,72.67,83.58,72.17Z"/><g class="cls-19"><path d="M69.09,94.3c-.06.38-.17,1-.3,1.82-.05,1-.09,2.13-.14,3.41a61,61,0,0,0,28-2.93c-.26-1.33-.47-2.34-.58-2.77A104,104,0,0,1,69.09,94.3Z"/></g><path class="cls-13" d="M92.85,65.4s-3.66-.13-4.44-.17c0,0-4.22,13.38-7.73,13.64-3.51,0-6.89-13.1-6.89-13.1-.77.1-4.41.49-4.41.49-.12,1.29-1.26,23.63-1.72,30.89,4.33,1.6,16.14,2.59,29.47-1.77C95.83,87.72,93.06,66.65,92.85,65.4Z"/><path class="cls-20" d="M90.47,65.31l-.67,0c-1.65,5.52-5.93,14.63-9.06,14.86-3.15,0-6.27-8.83-8.33-14.22l-.66.07c1.73,4.58,5.13,14.81,9,14.8C84.62,80.52,89.08,70,90.47,65.31Z"/><path class="cls-21" d="M85.58,73c2.37-4.73,3.54-6.4,3-7.78,0,0-.71-.6-.86-.71-.6.89-3.6,3.16-5.79,3.33C82.63,67.81,84.67,71.84,85.58,73Z"/><path class="cls-12" d="M85.25,72c2.7-4.54,3.47-5.71,3.38-6.76,0,0-.72-2.1-.78-2.35-.08,1.79-2.35,4.18-5.87,5C82.82,67.94,83.15,68.53,85.25,72Z"/><path class="cls-21" d="M77.19,73.37c-2.75-4.51-4-6.08-3.67-7.5,0,0,.65-.65.8-.78.67.84,3.85,2.86,6,2.85C79.71,67.93,78,72.11,77.19,73.37Z"/><path class="cls-12" d="M77.44,72.33c-3.06-4.31-3.93-5.41-3.92-6.46,0,0,.54-2.15.58-2.4.23,1.77,2.69,4,6.26,4.47C79.53,68.08,79.25,68.69,77.44,72.33Z"/><path class="cls-22" d="M85.15,61.22a2.56,2.56,0,0,0-.28-.74,98.77,98.77,0,0,0-10.93,2.13,2,2,0,0,0,0,.35c.34,2,3.14,3.28,6.23,2.8S85.49,63.25,85.15,61.22Z"/><path class="cls-23" d="M67.38,87c-.09.59-.21,1.66.13,1.56C70.23,86.31,70,82.11,70,76.24l-1.3-.09c.09,5,0,7.93-.62,9.44A11.57,11.57,0,0,1,67.38,87Z"/><path class="cls-24" d="M71.06,76.74,68,76.79l-.36-.31s.68-9.92,1.75-10.44a7.44,7.44,0,0,1,3-.28c0,.06,0,.17,0,.33a1.91,1.91,0,0,0-.8,1.2C71,69.88,71.06,76.74,71.06,76.74Z"/><path class="cls-25" d="M70.72,76.48H67.61s.18-7.19.88-9.55a2.22,2.22,0,0,1,.82-1.1c.34-.21,3.23-.45,3.09-.07-.51.21-1,.68-1.18,1.81A61.66,61.66,0,0,0,70.72,76.48Z"/><path class="cls-23" d="M96.06,88.31c-5.21-1.34-7-6.49-6.72-12.53l1.29-.16c.22,8.3,2.62,10.25,6.19,11.4l.08,1.37A3,3,0,0,1,96.06,88.31Z"/><path class="cls-24" d="M91.93,76.22l-3.08.06-.37-.3s.63-9.93,1.7-10.45a7.39,7.39,0,0,1,3-.3c.05.06,0,.18,0,.33a1.9,1.9,0,0,0-.8,1.21C91.79,69.36,91.93,76.22,91.93,76.22Z"/><path class="cls-25" d="M91.59,76l-3.11,0s.14-7.54.83-9.9A2.31,2.31,0,0,1,90.12,65c.35-.21,3.23-.12,3.09.26A2.11,2.11,0,0,0,92.05,67,61,61,0,0,0,91.59,76Z"/><path class="cls-26" d="M59,47.37c.74,4.36,4.52,7.29,7.54,7s3.85-3.73,3.63-7.89-2.85-7.36-5.87-7.11C60.17,39.76,58.29,43.28,59,47.37Z"/><path class="cls-27" d="M107.43,33C108,49.44,93,58.4,79.9,57.45s-21.84-13-19.36-28.76c1.37-8.75,9.49-15.61,22-14.62C95.89,15.13,107,20.31,107.43,33Z"/><path class="cls-7" d="M99.55,29.29c1,2.73-2.51,26.1-5.44,29.15-3.11,3.24-11.6,6.15-17.84,5.07-3.88-.68-11.07-4-13-7.94C61,50.9,61.49,30.71,62.5,28.3c3.43-8.14,10.71-7.89,20.2-7.2C91.58,21.74,97,22.2,99.55,29.29Z"/><path class="cls-7" d="M104.93,51.65c-1.53,4.43-6.15,6.93-9.43,6.23s-1.83-14.11,4.23-14.82C104.77,42.47,106.37,47.48,104.93,51.65Z"/><path class="cls-28" d="M101.27,51.18c-.41,1.89-2.67,3.34-4.25,2.69-.62-.26,1-6.84,2-6.77C100.68,47.23,101.67,49.28,101.27,51.18Z"/><path class="cls-29" d="M93.7,52.91c0,1-1.39,1.68-3,1.63s-2.94-.88-2.91-1.83,1.39-1.68,3-1.63S93.73,52,93.7,52.91Z"/><path class="cls-30" d="M85.47,51.68c.55,3.08-4.38,7.1-8.72,6.72s-7.11-4.14-7-7.25c.35-1.69,3.16-1.11,7.43-1S85.14,49.8,85.47,51.68Z"/><path class="cls-31" d="M77.32,55.6a6.57,6.57,0,0,0-4.57,1.3A7.83,7.83,0,0,0,77,58.46a8.4,8.4,0,0,0,4.86-1.38C81.43,56.18,79.11,55.64,77.32,55.6Z"/><path class="cls-1" d="M83.36,50.28c-1.47-.47-3.77-.22-5.89-.25-2.4,0-4.15-.37-5.65-.07.54,1.3,2.53,2.16,5.29,2.23C80.29,52.27,82.9,51.64,83.36,50.28Z"/><path class="cls-29" d="M68.31,50.88c-.11.85-1.22,1.39-2.48,1.22s-2.2-1-2.09-1.83,1.23-1.39,2.49-1.22S68.43,50,68.31,50.88Z"/><path class="cls-32" d="M79.06,48.57a.22.22,0,0,1-.2-.2A1.48,1.48,0,0,0,77.42,47a1.46,1.46,0,0,0-1.61,1.13.22.22,0,0,1-.26.17.22.22,0,0,1-.17-.26,2,2,0,0,1,3.91.28.23.23,0,0,1-.2.24Z"/><path class="cls-33" d="M94.61,36.8a.66.66,0,0,1-.41-.23c-1.39-1.67-4.38-2.52-7-2A.66.66,0,1,1,87,33.3c3.07-.66,6.54.36,8.25,2.42a.67.67,0,0,1-.08.94A.67.67,0,0,1,94.61,36.8Z"/><path class="cls-33" d="M63.48,34.3a.63.63,0,0,1-.44-.22.6.6,0,0,1,.08-.84,7.88,7.88,0,0,1,7.66-.74.61.61,0,0,1,.32.79.59.59,0,0,1-.78.31,6.75,6.75,0,0,0-6.44.56A.61.61,0,0,1,63.48,34.3Z"/><path class="cls-34" d="M72.55,47.16S66.82,48.85,65,45.21c-2.24-4.42,2-7.47,4.49-6.62C71.79,39.37,73.75,42,72.55,47.16Z"/><path class="cls-35" d="M65,39.78a3.91,3.91,0,0,1,4.06-1.55,4.59,4.59,0,0,1,3.31,3.07,4.81,4.81,0,0,0-3-2.51,3.87,3.87,0,0,0-4.24,1.6A5.16,5.16,0,0,0,65,45.33,5,5,0,0,1,65,39.78Z"/><path class="cls-36" d="M71.54,42.43a3.18,3.18,0,0,1-1.7,3.74,2.38,2.38,0,0,1-3.11-1.9,3.18,3.18,0,0,1,1.7-3.74A2.38,2.38,0,0,1,71.54,42.43Z"/><path class="cls-37" d="M71.38,41.94a.88.88,0,0,1-.47,1,.67.67,0,0,1-.87-.53.9.9,0,0,1,.48-1A.66.66,0,0,1,71.38,41.94Z"/><path class="cls-34" d="M82.48,48s6.44,2.62,9.22-.66c3.39-4-1-7.7-4.13-7.28C84.71,40.4,82,42.64,82.48,48Z"/><path class="cls-35" d="M92.62,41.94a5,5,0,0,0-4.51-2.21,5.38,5.38,0,0,0-4.41,2.48,5.81,5.81,0,0,1,3.9-2,4.93,4.93,0,0,1,4.71,2.28,4.44,4.44,0,0,1-.7,4.9A4.38,4.38,0,0,0,92.62,41.94Z"/><path class="cls-36" d="M90.65,43.9a3,3,0,1,1-3.72-2A3,3,0,0,1,90.65,43.9Z"/><path class="cls-37" d="M90.44,43.41a.82.82,0,0,1-.54,1,.83.83,0,1,1,.54-1Z"/><path class="cls-27" d="M102.61,33.55c1.61-.29,1.21-.79,2.76-1.25-5.89-1.74-3.49-10.62-11.12-14.5-12.55-5.33-22.31-3.12-25.73-1.28A19.55,19.55,0,0,0,58.6,31.57c-1,4.92-.52,6.61-3.13,7.64,2.73.91,2.84.36,3.7-.94.11,4.06-.41,5.85-2.46,7.1,3.37,1,4.81-1.23,5.14-4.44.39-3.84,0-11.15.64-12.49.34-.78,4.64-5,5.83-5,2.6,0,5.1,9.22,14.28,9.41-3.63-2.15-5.54-5.07-7.42-9.21a14.8,14.8,0,0,1,2.09,1.68c7.28,7,14.16,9,20.65,8.63-1.3,6.85-2.58,15.54,4.71,16.13-.71-1-2.4-5.67-.3-9.18C103.18,41.48,102.6,38.09,102.61,33.55Z"/><path class="cls-7" d="M84.56,93.83c-.4.16-2.4-4.91-2-5.11,6.4-3.34,16.85-9,18.7-9.93,1.08,3.84,1.13,5.73-.65,8.15C99.28,88.72,90.92,91.29,84.56,93.83Z"/><path class="cls-7" d="M74,91.69c.89-.12,2.17-1.56,3.93-1.7a1.17,1.17,0,0,1,.6.07c-2.79,1-3.9,2.88-4.75,3.71-.49.49.63,1.14,1.37.58.94-.72,2.2-2.21,4.43-2.72a16.36,16.36,0,0,0-4.21,3.72c-.36.67.69.94,1.61.19a11.19,11.19,0,0,1,4-2.65c-.88.59-3.1,3-3.26,4.18.27.33,1,.29,1.84-.55a13.55,13.55,0,0,1,2.88-2.58c1.6-.45,2.59.44,3.6-.2a4,4,0,0,0,1.48-3.95C87,88.61,83.73,87.56,82,87.44a10.73,10.73,0,0,0-8.68,3.44C72.87,91.53,73.61,91.74,74,91.69Z"/></svg>