<svg id="Layer_1" data-name="Layer 1" xmlns="http://www.w3.org/2000/svg" viewBox="0 0 150 160"><defs><style>.cls-1{fill:#fff;stroke:#fff;stroke-miterlimit:10;stroke-width:5px;}.cls-2{fill:#f9b600;}.cls-3{fill:#ffce33;}.cls-4{fill:#f7f7f7;opacity:0.25;}.cls-5{fill:#fac725;}</style></defs><g id="नीबू"><path class="cls-1" d="M125.14,90.24C124.73,25.56,20.4,25.79,24.81,92.77,24.14,159.49,129.26,156.89,125.14,90.24Z"/><path class="cls-2" d="M64,43.18a33.42,33.42,0,0,1,23.36.28S83.46,48.61,75,48.61,64.31,44.65,64,43.18Z"/><path class="cls-3" d="M125.19,92.77a50.19,50.19,0,0,1-100.38,0c0-25.69,15.29-49.46,40.34-49.62,5.06,0,7.81,3.1,9.85,3.1,2.35,0,6.35-3.6,10.42-3.08C109.91,46.31,125.19,67.39,125.19,92.77Z"/><path class="cls-4" d="M37.19,100.26c3.31.33,6.49,0,8.83-2.62,5.48-6.21,7.46-14.06,7.64-22.19.13-5.51-.09-11.5,2.59-16.53a12.3,12.3,0,0,1,4.93-5,7.82,7.82,0,0,0-1.87-.2C42,53.78,31.49,70.17,31.49,87.87A34.61,34.61,0,0,0,33.6,99.79C34.79,100,36,100.14,37.19,100.26Z"/><path class="cls-5" d="M111.8,56.49c3.9,8.64,4.45,19,3.55,28.22-1,10.5-4.51,20.27-11.22,28.49C97.73,121,88.89,128,78.76,130a58.57,58.57,0,0,1-33.43-3.4,70.21,70.21,0,0,1-12.67-6.87,50.19,50.19,0,0,0,92.53-26.94C125.19,78.51,120.37,65.61,111.8,56.49Z"/></g></svg>