<svg xmlns="http://www.w3.org/2000/svg" viewBox="0 0 150 160"><defs><style>.cls-1{isolation:isolate;}.cls-2,.cls-6{fill:#fff;}.cls-3{fill:#691c08;}.cls-4{fill:#00a1ab;}.cls-5{fill:#ef4623;}.cls-6{opacity:0.51;mix-blend-mode:overlay;}.cls-7{fill:#b6634c;}.cls-8{fill:#e6aa70;}.cls-9{fill:#ce8c5d;}.cls-10{fill:#b97651;}.cls-11{fill:#b0401d;opacity:0.21;mix-blend-mode:multiply;}.cls-12{fill:#f6eed9;}</style></defs><g class="cls-1"><g id="कटोरा"><path class="cls-2" d="M131.46,59.46V59l-.09-2h-.26C127.92,45.83,100.6,39.8,75,39.8s-52.92,6-56.1,17.26h-.31l-.05,2.4c0,.27,0,.53,0,.8a62.37,62.37,0,0,0,6.14,27.17c9.7,20.21,29,32.78,50.34,32.78s40.64-12.56,50.37-32.83a62.39,62.39,0,0,0,6.11-27.12C131.48,60,131.47,59.72,131.46,59.46Z"/><path class="cls-3" d="M20.55,59.06c0,.4,0,.8,0,1.2,0,32,24.39,57.94,54.48,57.94s54.48-25.94,54.48-57.94c0-.4,0-.8,0-1.2Z"/><path class="cls-4" d="M39.5,102.07c9.72,3,22.06,4.75,35.5,4.75s25.78-1.78,35.5-4.75a56.22,56.22,0,0,0,15.11-26.5c-3.8-2.85-9.2-5.33-15.77-7.27H40.16c-6.57,1.94-12,4.42-15.77,7.27A56.22,56.22,0,0,0,39.5,102.07Z"/><path class="cls-5" d="M116.13,95.61a57.13,57.13,0,0,0,10.7-26.37c-3.82-3.63-9.69-6.78-17-9.19H40.16c-7.3,2.41-13.17,5.56-17,9.19a57.13,57.13,0,0,0,10.7,26.37c10.34,4.62,24.94,7.5,41.13,7.5S105.79,100.23,116.13,95.61Z"/><path class="cls-3" d="M122.11,89.35a60.3,60.3,0,0,0,7.21-24.78,34.31,34.31,0,0,0-7.7-5.51H28.38a34.31,34.31,0,0,0-7.7,5.51,60.3,60.3,0,0,0,7.21,24.78c10.77,6,27.86,9.92,47.11,9.92S111.34,95.37,122.11,89.35Z"/><path class="cls-4" d="M75,87.71c22.33,0,41.65-5.36,50.91-13.15a56.31,56.31,0,0,0,1.47-12.75c0-.37,0-.74,0-1.12H22.64c0,.38,0,.75,0,1.12A55.75,55.75,0,0,0,24.1,74.56C33.35,82.35,52.67,87.71,75,87.71Z"/><path class="cls-5" d="M75,82.2c23.27,0,43.25-5.78,52-14a55.39,55.39,0,0,0,.37-6.35c0-.37,0-.74,0-1.12H22.64c0,.38,0,.75,0,1.12A55.39,55.39,0,0,0,23,68.16C31.75,76.42,51.73,82.2,75,82.2Z"/><path class="cls-6" d="M20.52,60.26c0,32,24.39,57.94,54.48,57.94C50.89,92.58,56.15,70.39,56.85,68.32l-4.37-9.26H20.55C20.54,59.46,20.52,59.86,20.52,60.26Z"/><ellipse class="cls-7" cx="75" cy="59.25" rx="54.41" ry="17.45"/><path class="cls-8" d="M22.75,61.39v.08c.43,4.39,8.09,7.64,11.69,9C47.53,75.21,61.09,76.33,75,76.33c6.3,0,12.11,0,18.22-1.37q-13.55.18-27.08-.55c-7.58-.4-15.21-1-22.57-3-7.76-2-14.32-4.22-19.34-10.51-.3-.38-.91-.64-1.27-.31A.89.89,0,0,0,22.75,61.39Z"/><ellipse class="cls-9" cx="75" cy="59.25" rx="50.23" ry="16.11"/><path class="cls-10" d="M71.9,65.83a55.87,55.87,0,0,1,.94-22.65c-26.73.34-48.06,7.39-48.07,16S46.71,75.18,74,75.37C73.17,72.31,72.44,69.09,71.9,65.83Z"/><path class="cls-8" d="M24.21,57.64A2.48,2.48,0,0,0,24,56.22a1,1,0,0,0-.73-.44c-.56,0-.94.57-1.15,1.09-.3.79-.18,2.46,1,2.45C23.8,59.32,24.16,58.47,24.21,57.64Z"/><path class="cls-11" d="M75.33,68.67C56,68.67,38.46,66,25.78,61.79c4.52,7.79,25,13.67,49.55,13.67s45-5.88,49.55-13.67C112.2,66,94.68,68.67,75.33,68.67Z"/><path class="cls-12" d="M42.11,97.12a30.79,30.79,0,0,1-6-13.5c-.28-1.33-2.32-.77-2,.56,1.15,5.27,4,9.45,7.9,13.1a.12.12,0,0,0,.17-.16Z"/><path class="cls-12" d="M35.26,79.58c0-.17,0-.33.07-.49a1,1,0,1,0-1.85,0l.07.49c.11.84,1.59.84,1.71,0Z"/></g></g></svg>