<svg id="गमला" xmlns="http://www.w3.org/2000/svg" viewBox="0 0 150 160"><defs><style>.cls-1{fill:#fff;}.cls-2{fill:#39b54a;}.cls-3{fill:#8cc63f;}.cls-4{fill:#ed4f43;}.cls-5{fill:#a952a5;}.cls-6{fill:#ba75b7;}.cls-7{fill:#fbb03b;}.cls-8{fill:#fbd43b;}.cls-9{fill:#d4443b;}</style></defs><path class="cls-1" d="M94.46,102.89H86.54C97.3,92.8,98.35,78.79,99.08,69.15l.29-3.81-3.12,1.49c-8.92,4.27-14.51,11.36-18,18.47V66.62A11.07,11.07,0,0,0,84,60.91a12.84,12.84,0,0,0,5.42,1.28A9,9,0,0,0,96,59.52c2.63-2.77,3.07-7,1.28-11,3.92-1.87,6.34-5.3,6.2-9.06-.13-3.59-2.61-6.74-6.4-8.38,2-4.14,1.64-8.6-1.08-11.46a9,9,0,0,0-6.59-2.67,12.73,12.73,0,0,0-5.14,1.15c-1.64-4-4.9-6.56-8.65-6.64H75.4c-3.86,0-7.3,2.72-9,6.87a12.76,12.76,0,0,0-5.62-1.38,8.93,8.93,0,0,0-6.58,2.67c-2.75,2.89-3.08,7.38-1.05,11.53-4.12,1.82-6.73,5.36-6.59,9.23.13,3.52,2.56,6.66,6.27,8.32-1.68,4-1.22,8.14,1.37,10.86a8.93,8.93,0,0,0,6.58,2.67,12.83,12.83,0,0,0,5.67-1.4A10.87,10.87,0,0,0,71,66.12V82.75c-3.2-6.36-8.73-12.69-18.72-17L49.45,64.5l.07,3.13c0,1,.72,22.07,14.83,35.26H56.28a7.11,7.11,0,0,0-1.71,14l5,28.64a3.26,3.26,0,0,0,3.24,3H88.34a3.25,3.25,0,0,0,3.24-3.06L96,116.94a7.11,7.11,0,0,0-1.52-14Z"/><rect class="cls-2" x="73.04" y="61.93" width="3.18" height="48.97"/><path class="cls-3" d="M74.28,108.42S75,79.23,97.11,68.64C96.17,81.11,95,99.48,74.28,108.42Z"/><path class="cls-3" d="M51.52,67.58s.71,29.19,22.84,39.78C73.42,94.89,72.24,76.52,51.52,67.58Z"/><path class="cls-4" d="M95.32,108.07l-5.73,37.26a1.25,1.25,0,0,1-1.25,1.25H62.8a1.25,1.25,0,0,1-1.25-1.25l-6.48-37.26"/><path class="cls-5" d="M68.82,22.39c-4.22-4-10.11-4.65-13.17-1.43S53.53,30,57.74,34s10.11,4.65,13.17,1.43S73,26.4,68.82,22.39Z"/><path class="cls-5" d="M92.41,34c-4.21,4-10.1,4.65-13.16,1.43s-2.13-9.07,2.09-13.08S91.45,17.74,94.51,21,96.63,30,92.41,34Z"/><path class="cls-5" d="M68.82,56.71c-4.22,4-10.11,4.65-13.17,1.43s-2.12-9.07,2.09-13.07,10.11-4.65,13.17-1.44S73,52.7,68.82,56.71Z"/><path class="cls-5" d="M92.41,45.06c-4.21-4-10.1-4.64-13.16-1.43s-2.13,9.07,2.09,13.08,10.11,4.65,13.17,1.43S96.63,49.07,92.41,45.06Z"/><path class="cls-6" d="M67.28,23.78c-.13,5.81,3.37,10.61,7.81,10.7s8.13-4.55,8.26-10.36S80,13.52,75.53,13.42,67.4,18,67.28,23.78Z"/><path class="cls-6" d="M59.37,47.91c-5.81.21-10.65-3.21-10.81-7.65s4.42-8.2,10.23-8.41,10.65,3.21,10.81,7.64S65.18,47.7,59.37,47.91Z"/><path class="cls-6" d="M91.21,47.91c-5.81.21-10.65-3.21-10.81-7.65s4.42-8.2,10.23-8.41,10.65,3.21,10.81,7.64S97,47.7,91.21,47.91Z"/><path class="cls-6" d="M67.28,54.4c-.21,5.81,3.21,10.66,7.65,10.82S83.13,60.8,83.34,55s-3.21-10.65-7.65-10.82S67.49,48.59,67.28,54.4Z"/><path class="cls-7" d="M84.55,40.52a9.28,9.28,0,1,1-8.36-10.11A9.26,9.26,0,0,1,84.55,40.52Z"/><path class="cls-7" d="M77.36,26.16a2,2,0,1,1-2-2.13A2,2,0,0,1,77.36,26.16Z"/><rect class="cls-7" x="71.55" y="29.19" width="7.25" height="1.02" transform="translate(42.55 103.66) rotate(-87.76)"/><path class="cls-7" d="M61.49,32.81a2,2,0,1,0,1.85-2.23A2,2,0,0,0,61.49,32.81Z"/><rect class="cls-7" x="65.76" y="31.05" width="1.03" height="7.25" transform="translate(-1.3 66.74) rotate(-53)"/><path class="cls-7" d="M77.42,53.41a2,2,0,1,0-2,2.07A2,2,0,0,0,77.42,53.41Z"/><rect class="cls-7" x="74.83" y="46.18" width="1.03" height="7.25" transform="translate(-0.41 0.63) rotate(-0.48)"/><path class="cls-7" d="M61.35,45.51A2,2,0,1,1,63,47.86,2.06,2.06,0,0,1,61.35,45.51Z"/><rect class="cls-7" x="62.63" y="43.47" width="7.25" height="1.03" transform="translate(-13.27 43.13) rotate(-32.97)"/><path class="cls-7" d="M87.1,31a2,2,0,1,0,1.35,2.56A2,2,0,0,0,87.1,31Z"/><rect class="cls-7" x="79.91" y="34.21" width="7.25" height="1.03" transform="translate(-6.12 46.83) rotate(-30.26)"/><path class="cls-7" d="M88.91,46.48a2,2,0,1,0-1.74,2.32A2.06,2.06,0,0,0,88.91,46.48Z"/><rect class="cls-7" x="83.53" y="41.22" width="1.03" height="7.25" transform="translate(-0.31 89.12) rotate(-55.78)"/><path class="cls-8" d="M81.25,39.75a6,6,0,1,1-6-6A6.05,6.05,0,0,1,81.25,39.75Z"/><path class="cls-9" d="M99.57,110a5.11,5.11,0,0,1-5.11,5.11H56.28A5.11,5.11,0,0,1,51.17,110h0a5.11,5.11,0,0,1,5.11-5.11H94.46A5.11,5.11,0,0,1,99.57,110Z"/></svg>