<svg xmlns="http://www.w3.org/2000/svg" xmlns:xlink="http://www.w3.org/1999/xlink" viewBox="0 0 150 160"><defs><style>.cls-1,.cls-2{fill:none;}.cls-1,.cls-10,.cls-11,.cls-12,.cls-13,.cls-14,.cls-16,.cls-17,.cls-18,.cls-19,.cls-20,.cls-21,.cls-22,.cls-23,.cls-24,.cls-27,.cls-4,.cls-5,.cls-6,.cls-7,.cls-8,.cls-9{stroke:#fff;stroke-miterlimit:10;stroke-width:5px;}.cls-3{isolation:isolate;}.cls-29,.cls-4{fill:#e1211f;}.cls-30,.cls-31,.cls-5,.cls-6{fill:#d1c6c0;}.cls-11,.cls-20,.cls-22,.cls-23,.cls-30,.cls-34,.cls-36,.cls-45,.cls-47,.cls-48,.cls-5,.cls-9{mix-blend-mode:multiply;}.cls-10,.cls-27,.cls-32,.cls-35,.cls-52,.cls-7{fill:#fff;}.cls-20,.cls-22,.cls-32,.cls-34,.cls-45,.cls-47,.cls-7,.cls-9{opacity:0.4;}.cls-27,.cls-32,.cls-52,.cls-7{mix-blend-mode:overlay;}.cls-33,.cls-8{fill:#ffeee6;}.cls-34,.cls-9{fill:#eadcd5;}.cls-11,.cls-12,.cls-13,.cls-36,.cls-37,.cls-38{fill:#989897;}.cls-13,.cls-38{mix-blend-mode:screen;}.cls-14,.cls-39{fill:#320300;}.cls-15{clip-path:url(#clip-path);}.cls-16,.cls-22,.cls-23,.cls-41,.cls-47,.cls-48{fill:#7e7e7d;}.cls-17,.cls-42{fill:#969595;}.cls-18,.cls-43{fill:#575858;}.cls-19,.cls-44{fill:#d3d3d3;}.cls-20,.cls-45{fill:#5f6160;}.cls-21,.cls-46{fill:#ababab;}.cls-24,.cls-49{fill:#1d1e1d;}.cls-25{clip-path:url(#clip-path-2);}.cls-26{clip-path:url(#clip-path-3);}.cls-27,.cls-52{opacity:0.7;}.cls-28{clip-path:url(#clip-path-4);}.cls-40{clip-path:url(#clip-path-5);}.cls-50{clip-path:url(#clip-path-6);}.cls-51{clip-path:url(#clip-path-7);}.cls-53{clip-path:url(#clip-path-8);}</style><clipPath id="clip-path"><path class="cls-1" d="M22.73,112.52a17.52,17.52,0,0,0,3.73,3.07h0c3.83,2.37,8.8,3.77,14.53,4.25l.4,1.6s-6.71,8.78-14,6.4S18.1,120.52,22.73,112.52Z"/></clipPath><clipPath id="clip-path-2"><path class="cls-1" d="M60.49,118.46A110.41,110.41,0,0,0,84,110.84s2.3,6.85-3.23,11.73S61.42,127.63,60.49,118.46Z"/></clipPath><clipPath id="clip-path-3"><path class="cls-1" d="M98.68,102.93a91.7,91.7,0,0,0,17.45-14.12s4,3.22,2.84,8.06-7.72,12.19-13.37,11.36S98.91,105.27,98.68,102.93Z"/></clipPath><clipPath id="clip-path-4"><path class="cls-1" d="M128,63.19l-.24.49a22.35,22.35,0,0,1-2.39,12.12l1,2s7.65-.72,10-4.67S138.07,61.53,128,63.19Z"/></clipPath><clipPath id="clip-path-5"><path class="cls-2" d="M22.73,112.52a17.52,17.52,0,0,0,3.73,3.07h0c3.83,2.37,8.8,3.77,14.53,4.25l.4,1.6s-6.71,8.78-14,6.4S18.1,120.52,22.73,112.52Z"/></clipPath><clipPath id="clip-path-6"><path class="cls-2" d="M60.49,118.46A110.41,110.41,0,0,0,84,110.84s2.3,6.85-3.23,11.73S61.42,127.63,60.49,118.46Z"/></clipPath><clipPath id="clip-path-7"><path class="cls-2" d="M98.68,102.93a91.7,91.7,0,0,0,17.45-14.12s4,3.22,2.84,8.06-7.72,12.19-13.37,11.36S98.91,105.27,98.68,102.93Z"/></clipPath><clipPath id="clip-path-8"><path class="cls-2" d="M128,63.19l-.24.49a22.35,22.35,0,0,1-2.39,12.12l1,2s7.65-.72,10-4.67S138.07,61.53,128,63.19Z"/></clipPath></defs><g class="cls-3"><g id="ढफली"><path class="cls-4" d="M128.93,63.53c-.07-.14-.14-.29-.22-.43h0l-3-8.51c1.84,14.77-16,35-42.91,47.66-29.39,13.76-58.74,13.29-66.28-.88l3.89,10.94h0a16.07,16.07,0,0,0,.63,1.57c6.91,14.82,36.66,15.57,66.44,1.67S135.85,78.36,128.93,63.53Z"/><path class="cls-5" d="M128.93,63.53c-.07-.14-.14-.29-.22-.43h0l-.69-2c-8.63,26.93-33.42,47.64-59.65,56.52a142.34,142.34,0,0,1-30.84,7c13,2.53,31.48-.45,50-9.08C117.31,101.63,135.85,78.36,128.93,63.53Z"/><path class="cls-6" d="M82.85,102.24c27-12.62,44.75-32.89,42.91-47.66l-3.51-10-2,2L105.37,52c-12.2-.54-27.54,2.73-42.88,9.89a111.19,111.19,0,0,0-22,13.46L30.41,78.94,12.93,91.15l3.64,10.21C24.11,115.53,53.46,116,82.85,102.24Z"/><path class="cls-5" d="M109.4,58.24c2.42,6.7,4.8,13.42,7.07,20.18,1.45,4.33,2.81,8.68,4.24,13,8.43-9.91,11.87-20.09,8.22-27.91-.07-.14-.14-.29-.22-.43h0l-3-8.51-3.51-10-2,2L106.8,51.45C107.69,53.72,108.58,56,109.4,58.24Z"/><path class="cls-7" d="M92.54,92.45c-3.61-12.53-7.45-25-11.11-37.51a110.56,110.56,0,0,0-11,3.56C73.84,70.83,78,83,81.93,95.12c2.16,6.68,4.17,13.4,6.21,20.12,3.27-1.55,6.4-3.22,9.38-5C95.87,104.33,94.25,98.38,92.54,92.45Z"/><path class="cls-5" d="M45.33,113.49,35.64,77.05l-5.23,1.89L12.93,91.15l3.64,10.21,3.89,10.94h0a16.07,16.07,0,0,0,.63,1.57c3.72,8,14,11.87,27.43,11.6Q46.92,119.48,45.33,113.49Z"/><path class="cls-5" d="M125,85.71c5.2-8,6.88-15.86,3.93-22.18-.07-.14-.14-.29-.22-.43h0l-3-8.51-3.51-10-2,2L116,48.16C119.27,60.59,121.69,73.29,125,85.71Z"/><path class="cls-5" d="M27.84,107.28c1.3,5.28,2.65,10.54,4.12,15.77a44.84,44.84,0,0,0,16.56,2.41q-1.6-6-3.19-12L35.64,77.05l-5.23,1.89-7.93,5.54C24.14,92.11,26,99.7,27.84,107.28Z"/><path class="cls-8" d="M80.37,95.37c-29.78,13.9-59.53,13.15-66.44-1.67s11.62-38.1,41.4-52,59.53-13.14,66.44,1.68S110.15,81.48,80.37,95.37Z"/><path class="cls-9" d="M121.77,43.38a17.46,17.46,0,0,0-8.46-8.16,15.19,15.19,0,0,1,1.55,2c6.1,9.73,1.29,22.58-5.35,30.64A64.06,64.06,0,0,1,92.27,82.26,60.4,60.4,0,0,1,75.05,89.4a72.57,72.57,0,0,1-16.49,1.65c-5.49-.09-11.24-.69-16.32-2.92-4.26-1.86-8.05-5-9.17-9.74-1.57-6.58,1.3-13.9,5-19.26C45.93,47.84,58.58,42,70.65,35.81A116.34,116.34,0,0,0,55.33,41.7C25.55,55.6,7,78.88,13.93,93.7s36.66,15.57,66.44,1.67S128.69,58.2,121.77,43.38Z"/><path class="cls-10" d="M121.77,43.38l-.18-.36C126.91,58.29,108.78,80.86,80,94.31c-29.53,13.78-59.18,12.81-66.62-2.07a13.93,13.93,0,0,0,.59,1.46c6.91,14.82,36.66,15.57,66.44,1.67S128.69,58.2,121.77,43.38Z"/><path class="cls-11" d="M27.52,105.89a1.28,1.28,0,0,0-1.92-.13,1.6,1.6,0,0,0,0,2.11,1.28,1.28,0,0,0,1.92.13A1.61,1.61,0,0,0,27.52,105.89Z"/><path class="cls-12" d="M27.37,105.9a1.51,1.51,0,0,1,0,2,1.19,1.19,0,0,1-1.8-.13,1.5,1.5,0,0,1-.05-2A1.2,1.2,0,0,1,27.37,105.9Z"/><path class="cls-13" d="M27.08,106.15a1.17,1.17,0,0,1,0,1.55.94.94,0,0,1-1.41-.1,1.19,1.19,0,0,1,0-1.56A1,1,0,0,1,27.08,106.15Z"/><path class="cls-10" d="M26.28,106.35a.49.49,0,0,1,0,.64.4.4,0,0,1-.58,0,.49.49,0,0,1,0-.64A.38.38,0,0,1,26.28,106.35Z"/><path class="cls-10" d="M26.35,107.41a.29.29,0,0,1,0,.38.22.22,0,0,1-.34,0,.29.29,0,0,1,0-.39A.24.24,0,0,1,26.35,107.41Z"/><path class="cls-11" d="M43.66,107.81a1.28,1.28,0,0,0-1.92-.13,1.61,1.61,0,0,0,0,2.11,1.28,1.28,0,0,0,1.92.13A1.61,1.61,0,0,0,43.66,107.81Z"/><path class="cls-12" d="M43.51,107.82a1.51,1.51,0,0,1,.05,2,1.21,1.21,0,0,1-1.82-.13,1.51,1.51,0,0,1,0-2A1.2,1.2,0,0,1,43.51,107.82Z"/><path class="cls-13" d="M43.22,108.07a1.19,1.19,0,0,1,0,1.55.94.94,0,0,1-1.41-.1,1.16,1.16,0,0,1,0-1.55A.93.93,0,0,1,43.22,108.07Z"/><path class="cls-10" d="M42.42,108.27a.49.49,0,0,1,0,.64.39.39,0,0,1-.58,0,.49.49,0,0,1,0-.64A.38.38,0,0,1,42.42,108.27Z"/><path class="cls-10" d="M42.49,109.33a.29.29,0,0,1,0,.38.22.22,0,0,1-.34,0,.29.29,0,0,1,0-.39A.24.24,0,0,1,42.49,109.33Z"/><path class="cls-11" d="M60.68,105.86a1.28,1.28,0,0,0-1.92-.14,1.61,1.61,0,0,0,.05,2.11,1.28,1.28,0,0,0,1.92.14A1.61,1.61,0,0,0,60.68,105.86Z"/><path class="cls-12" d="M60.53,105.86a1.51,1.51,0,0,1,0,2,1.21,1.21,0,0,1-1.81-.12,1.51,1.51,0,0,1-.05-2A1.2,1.2,0,0,1,60.53,105.86Z"/><path class="cls-13" d="M60.24,106.11a1.16,1.16,0,0,1,0,1.55.93.93,0,0,1-1.41-.1,1.19,1.19,0,0,1,0-1.55A.94.94,0,0,1,60.24,106.11Z"/><path class="cls-10" d="M59.44,106.31a.49.49,0,0,1,0,.64.38.38,0,0,1-.58,0,.48.48,0,0,1,0-.64A.39.39,0,0,1,59.44,106.31Z"/><path class="cls-10" d="M59.51,107.37a.29.29,0,0,1,0,.38.23.23,0,0,1-.35,0,.29.29,0,0,1,0-.38A.23.23,0,0,1,59.51,107.37Z"/><path class="cls-11" d="M77.76,100.63a1.27,1.27,0,0,0-1.91-.14,1.6,1.6,0,0,0,0,2.11,1.28,1.28,0,0,0,1.92.14A1.61,1.61,0,0,0,77.76,100.63Z"/><path class="cls-12" d="M77.61,100.63a1.51,1.51,0,0,1,0,2,1.21,1.21,0,0,1-1.81-.13,1.51,1.51,0,0,1,0-2A1.21,1.21,0,0,1,77.61,100.63Z"/><path class="cls-13" d="M77.32,100.88a1.19,1.19,0,0,1,0,1.56,1,1,0,0,1-1.42-.1,1.19,1.19,0,0,1,0-1.56A.94.94,0,0,1,77.32,100.88Z"/><path class="cls-10" d="M76.52,101.08a.48.48,0,0,1,0,.64.38.38,0,0,1-.58,0,.49.49,0,0,1,0-.64A.4.4,0,0,1,76.52,101.08Z"/><path class="cls-10" d="M76.59,102.14a.3.3,0,0,1,0,.39.23.23,0,0,1-.35,0,.29.29,0,0,1,0-.38A.23.23,0,0,1,76.59,102.14Z"/><path class="cls-11" d="M111.23,77.51a1.28,1.28,0,0,1,1.33-1.39,1.59,1.59,0,0,1,1.38,1.59,1.27,1.27,0,0,1-1.32,1.39A1.61,1.61,0,0,1,111.23,77.51Z"/><path class="cls-12" d="M111.34,77.41a1.53,1.53,0,0,0,1.31,1.51,1.22,1.22,0,0,0,1.26-1.32,1.53,1.53,0,0,0-1.31-1.51A1.22,1.22,0,0,0,111.34,77.41Z"/><path class="cls-13" d="M111.73,77.4a1.18,1.18,0,0,0,1,1.17,1,1,0,0,0,1-1,1.19,1.19,0,0,0-1-1.18A.94.94,0,0,0,111.73,77.4Z"/><path class="cls-10" d="M112.45,77a.49.49,0,0,0,.43.48.39.39,0,0,0,.4-.42.5.5,0,0,0-.42-.48A.39.39,0,0,0,112.45,77Z"/><path class="cls-10" d="M113.12,77.84a.28.28,0,0,0,.25.29.23.23,0,0,0,.24-.25.29.29,0,0,0-.25-.29C113.22,77.57,113.12,77.69,113.12,77.84Z"/><path class="cls-11" d="M122.9,58.8a1.24,1.24,0,0,1,1.28-1.34A1.56,1.56,0,0,1,125.51,59a1.24,1.24,0,0,1-1.28,1.34A1.55,1.55,0,0,1,122.9,58.8Z"/><path class="cls-12" d="M123,58.7a1.46,1.46,0,0,0,1.26,1.45,1.16,1.16,0,0,0,1.2-1.26,1.45,1.45,0,0,0-1.26-1.45A1.16,1.16,0,0,0,123,58.7Z"/><path class="cls-13" d="M123.38,58.69a1.13,1.13,0,0,0,1,1.13.91.91,0,0,0,.94-1,1.14,1.14,0,0,0-1-1.12A.9.9,0,0,0,123.38,58.69Z"/><path class="cls-10" d="M124.08,58.32a.45.45,0,0,0,.4.46.36.36,0,0,0,.38-.4.45.45,0,0,0-.4-.46A.36.36,0,0,0,124.08,58.32Z"/><path class="cls-10" d="M124.71,59.12a.28.28,0,0,0,.25.27.22.22,0,0,0,.23-.24.3.3,0,0,0-.24-.28A.23.23,0,0,0,124.71,59.12Z"/><path class="cls-11" d="M93.91,91.52a1.28,1.28,0,0,1,1.33-1.39,1.6,1.6,0,0,1,1.39,1.59,1.28,1.28,0,0,1-1.33,1.39A1.6,1.6,0,0,1,93.91,91.52Z"/><path class="cls-12" d="M94,91.42a1.52,1.52,0,0,0,1.31,1.51,1.22,1.22,0,0,0,1.25-1.32,1.52,1.52,0,0,0-1.31-1.51A1.21,1.21,0,0,0,94,91.42Z"/><path class="cls-13" d="M94.41,91.41a1.18,1.18,0,0,0,1,1.17,1,1,0,0,0,1-1,1.18,1.18,0,0,0-1-1.18A1,1,0,0,0,94.41,91.41Z"/><path class="cls-10" d="M95.14,91a.47.47,0,0,0,.42.48.39.39,0,0,0,.4-.42.49.49,0,0,0-.42-.48A.38.38,0,0,0,95.14,91Z"/><path class="cls-10" d="M95.8,91.85a.3.3,0,0,0,.25.29.22.22,0,0,0,.24-.25A.28.28,0,0,0,96,91.6.23.23,0,0,0,95.8,91.85Z"/><path class="cls-14" d="M26.46,115.59h0a17.36,17.36,0,0,1-3.91-3.28c.58,1.37,1.2,2.72,1.82,4.07.36.26.74.51,1.13.75h0c4.19,2.6,9.68,4.09,16,4.54-.18-.62-.36-1.23-.53-1.84C35.26,119.36,30.29,118,26.46,115.59Z"/><path class="cls-14" d="M84,110.84a110.41,110.41,0,0,1-23.47,7.62c.2.57.39,1.15.59,1.72a111.15,111.15,0,0,0,23.56-7.66C84.42,112,84.19,111.4,84,110.84Z"/><path class="cls-14" d="M129.6,67.33c-.37-.85-.74-1.69-1.06-2.51-.2-.54-.39-1.08-.58-1.63l-.24.49a22.29,22.29,0,0,1-2.35,12.09c.35.68.7,1.35,1,2,0,0,0,0,0,0A28,28,0,0,0,129.6,67.33Z"/><path class="cls-14" d="M116.13,88.81a91.7,91.7,0,0,1-17.45,14.12l.86,1.62A93.79,93.79,0,0,0,117,90.5C116.72,89.93,116.42,89.37,116.13,88.81Z"/><g class="cls-15"><path class="cls-16" d="M41.44,116.19c1.33,3.56-1.92,8.06-7.26,10S23.42,127,22.1,123.4s1.92-8.06,7.26-10.06S40.11,112.62,41.44,116.19Z"/><path class="cls-17" d="M40.76,116.22c1.25,3.35-1.81,7.58-6.82,9.45s-10.1.68-11.35-2.67,1.81-7.58,6.83-9.45S39.52,112.88,40.76,116.22Z"/><path class="cls-18" d="M39.34,116.79c1.06,2.85-1.54,6.45-5.81,8s-8.6.57-9.66-2.28,1.54-6.45,5.81-8S38.28,113.94,39.34,116.79Z"/><path class="cls-19" d="M23.5,118.06s-2.86,3.9.37,6.89A6.22,6.22,0,0,1,23.5,118.06Z"/><path class="cls-20" d="M41.44,116.19c-1.33-3.57-6.73-4.84-12.08-2.85a12.64,12.64,0,0,0-6.66,5.29l.08,0c1.1-.24,1.92.76,2.3,1.62.64,1.42.7,2.52,2.75,2.5,1.14,0,2.25-.22,3.38-.33a4.83,4.83,0,0,1,3,.58c2.57,1.74-1.95,3.61-3.27,3.93a9.6,9.6,0,0,1-5.91-.55,12.25,12.25,0,0,0,9.17-.11C39.52,124.25,42.77,119.75,41.44,116.19Z"/><path class="cls-7" d="M24.25,120.89a2.49,2.49,0,0,0,2.51,2.28c2.41.15,4.34-.8,5.33-.1s1.64,1.55-1.38,2.81S23,125,24.25,120.89Z"/><path class="cls-16" d="M41.3,114.4c1.33,3.56-1.92,8.07-7.27,10.06s-10.75.72-12.08-2.84,1.93-8.07,7.27-10.06S40,110.84,41.3,114.4Z"/><path class="cls-17" d="M40.62,114.44c1.25,3.34-1.81,7.57-6.83,9.44s-10.09.68-11.34-2.67,1.81-7.57,6.82-9.44S39.37,111.09,40.62,114.44Z"/><path class="cls-21" d="M39.19,115c1.07,2.85-1.53,6.46-5.81,8s-8.59.58-9.66-2.27,1.54-6.46,5.81-8S38.13,112.16,39.19,115Z"/><path class="cls-19" d="M23.35,116.28s-2.86,3.89.38,6.89A6.21,6.21,0,0,1,23.35,116.28Z"/><path class="cls-22" d="M41.3,114.4c-1.33-3.56-6.74-4.84-12.08-2.84a12.7,12.7,0,0,0-6.67,5.28l.09,0c1.09-.24,1.91.75,2.3,1.62.64,1.41.7,2.51,2.75,2.5,1.14,0,2.24-.22,3.37-.33a4.81,4.81,0,0,1,3,.57c2.58,1.74-1.94,3.61-3.27,3.94a9.53,9.53,0,0,1-5.91-.56,12.25,12.25,0,0,0,9.17-.1C39.38,122.47,42.63,118,41.3,114.4Z"/><path class="cls-23" d="M39.52,120.8c1.79-2,2.54-4.36,1.78-6.4-1.33-3.56-6.74-4.84-12.08-2.84a13.76,13.76,0,0,0-5.08,3.22C28.12,118.53,33.93,120.3,39.52,120.8Z"/><path class="cls-7" d="M24.1,119.11a2.5,2.5,0,0,0,2.52,2.27c2.41.15,4.34-.8,5.33-.09s1.63,1.55-1.38,2.81S22.81,123.22,24.1,119.11Z"/><path class="cls-24" d="M26.24,118c.13.34-.18.77-.69,1s-1,.06-1.15-.27.18-.77.69-1S26.11,117.69,26.24,118Z"/><path class="cls-24" d="M35.3,120.31c.13.34-.18.76-.69,1s-1,.07-1.15-.27.18-.76.69-1S35.17,120,35.3,120.31Z"/></g><path class="cls-1" d="M22.73,112.52a17.52,17.52,0,0,0,3.73,3.07h0c3.83,2.37,8.8,3.77,14.53,4.25l.4,1.6s-6.71,8.78-14,6.4S18.1,120.52,22.73,112.52Z"/><g class="cls-25"><path class="cls-16" d="M83.06,113.46c1.41,3.76-2,8.51-7.66,10.61s-11.34.76-12.74-3,2-8.51,7.66-10.61S81.66,109.7,83.06,113.46Z"/><path class="cls-17" d="M82.34,113.5c1.32,3.52-1.9,8-7.19,10s-10.65.71-12-2.82,1.91-8,7.2-10S81,110,82.34,113.5Z"/><path class="cls-18" d="M80.84,114.1c1.12,3-1.62,6.8-6.12,8.48s-9.07.61-10.19-2.4,1.62-6.8,6.13-8.48S79.72,111.09,80.84,114.1Z"/><path class="cls-19" d="M64.14,115.44s-3,4.11.4,7.26A6.53,6.53,0,0,1,64.14,115.44Z"/><path class="cls-20" d="M83.06,113.46c-1.4-3.76-7.1-5.1-12.74-3a13.41,13.41,0,0,0-7,5.57l.09,0c1.16-.26,2,.79,2.43,1.7.67,1.5.74,2.66,2.9,2.65,1.2,0,2.37-.24,3.56-.36a5.11,5.11,0,0,1,3.14.61c2.72,1.83-2,3.81-3.45,4.15a10,10,0,0,1-6.23-.59,12.91,12.91,0,0,0,9.67-.1C81,122,84.47,117.22,83.06,113.46Z"/><path class="cls-7" d="M64.93,118.42a2.63,2.63,0,0,0,2.65,2.4c2.55.16,4.58-.84,5.62-.1s1.72,1.63-1.45,3S63.56,122.76,64.93,118.42Z"/><path class="cls-16" d="M82.91,111.57c1.4,3.76-2,8.51-7.66,10.61s-11.34.76-12.74-3,2-8.5,7.66-10.6S81.51,107.82,82.91,111.57Z"/><path class="cls-17" d="M82.19,111.61c1.32,3.53-1.9,8-7.19,10s-10.65.71-12-2.82,1.91-8,7.2-10S80.88,108.08,82.19,111.61Z"/><path class="cls-21" d="M80.69,112.21c1.12,3-1.62,6.81-6.13,8.49s-9.06.6-10.19-2.4,1.63-6.8,6.13-8.48S79.57,109.21,80.69,112.21Z"/><path class="cls-19" d="M64,113.55s-3,4.12.39,7.27A6.55,6.55,0,0,1,64,113.55Z"/><path class="cls-22" d="M68.35,123a11.22,11.22,0,0,1-2.78-.75,9.22,9.22,0,0,0,2.61.75Z"/><path class="cls-22" d="M82.91,111.57c-1.4-3.75-7.1-5.1-12.74-3a13.37,13.37,0,0,0-7,5.57l.09,0c1.15-.26,2,.79,2.43,1.7A6.31,6.31,0,0,0,66.78,118c1.88,1.15,4.77,0,6.3-1.17a7.8,7.8,0,0,1,2.3-1.52c1.18-.34,3,.17,2.71,1.74a6.18,6.18,0,0,1-2.56,4,9.67,9.67,0,0,1-3.71,1.91c-.28.06-.56.12-.84.16l-.54.12a15.33,15.33,0,0,0,4.81-1C80.88,120.08,84.31,115.33,82.91,111.57Z"/><path class="cls-7" d="M64.78,116.54a2.63,2.63,0,0,0,2.65,2.4c2.54.16,4.57-.84,5.62-.1s1.72,1.63-1.46,3S63.41,120.87,64.78,116.54Z"/><path class="cls-23" d="M62.48,119.1c1.21-.28,17.18-5.06,20.59-7,0-.18-.1-.36-.16-.54-1.4-3.75-7.1-5.1-12.74-3S61.17,115.35,62.48,119.1Z"/><path class="cls-24" d="M68.75,118.68c.13.36-.19.81-.73,1s-1.08.07-1.22-.29.2-.81.74-1S68.62,118.32,68.75,118.68Z"/><path class="cls-24" d="M79.84,115.09c.13.36-.2.81-.74,1s-1.08.07-1.21-.29.2-.81.73-1S79.7,114.73,79.84,115.09Z"/><path class="cls-7" d="M76.94,117.11c.14-1.08-1.43-.76-2-.5-.91.43-1.58,1.91,0,2.13A1.83,1.83,0,0,0,76.94,117.11Z"/><path class="cls-10" d="M63.84,120.88a11.89,11.89,0,0,0,11.07,1.49S69,124.09,63.84,120.88Z"/><path class="cls-10" d="M63.69,122.53A11.89,11.89,0,0,0,74.76,124S68.87,125.74,63.69,122.53Z"/></g><path class="cls-1" d="M60.49,118.46A110.41,110.41,0,0,0,84,110.84s2.3,6.85-3.23,11.73S61.42,127.63,60.49,118.46Z"/><g class="cls-26"><path class="cls-16" d="M116.78,91.13c2.71,3,1.31,8.65-3.13,12.7s-10.23,5-12.93,2-1.31-8.64,3.13-12.7S114.07,88.17,116.78,91.13Z"/><path class="cls-17" d="M116.13,91.43c2.54,2.78,1.23,8.12-2.94,11.93s-9.6,4.65-12.15,1.87S99.82,97.11,104,93.3,113.59,88.65,116.13,91.43Z"/><path class="cls-18" d="M115,92.55c2.16,2.37,1,6.92-2.51,10.16s-8.18,4-10.35,1.59-1-6.91,2.51-10.16S112.8,90.18,115,92.55Z"/><path class="cls-19" d="M100,100.05s-1.26,4.94,3.09,6.58A6.52,6.52,0,0,1,100,100.05Z"/><path class="cls-20" d="M116.78,91.13c-2.71-3-8.49-2.07-12.93,2a13.3,13.3,0,0,0-4.43,7.8l.07-.06c1-.67,2.17,0,2.9.67,1.18,1.14,1.67,2.19,3.67,1.37,1.11-.46,2.11-1.11,3.17-1.66a5.07,5.07,0,0,1,3.14-.61c3.2.68-.48,4.29-1.64,5.13a10.09,10.09,0,0,1-6,1.79c2.76.15,6.11-1.15,8.92-3.72C118.09,99.78,119.49,94.09,116.78,91.13Z"/><path class="cls-7" d="M101.83,102.52a2.64,2.64,0,0,0,3.36,1.23c2.42-.8,3.93-2.49,5.17-2.2s2.21.87-.24,3.29S102.18,107.05,101.83,102.52Z"/><path class="cls-16" d="M115.94,89.44c2.7,3,1.3,8.65-3.13,12.7s-10.23,5-12.94,2-1.3-8.64,3.14-12.7S113.23,86.48,115.94,89.44Z"/><path class="cls-17" d="M115.29,89.74c2.54,2.78,1.22,8.12-3,11.94s-9.6,4.64-12.14,1.86S99,95.42,103.14,91.61,112.75,87,115.29,89.74Z"/><path class="cls-21" d="M114.12,90.86c2.17,2.37,1,6.92-2.5,10.16s-8.19,4-10.35,1.59-1-6.91,2.5-10.16S112,88.49,114.12,90.86Z"/><path class="cls-19" d="M99.13,98.36s-1.25,4.94,3.09,6.58A6.54,6.54,0,0,1,99.13,98.36Z"/><path class="cls-22" d="M106.73,105.52a10.54,10.54,0,0,1-2.85.34,9.39,9.39,0,0,0,2.69-.27Z"/><path class="cls-22" d="M115.94,89.44c-2.71-3-8.5-2.07-12.93,2a13.4,13.4,0,0,0-4.44,7.8l.07-.06c1-.67,2.18,0,2.9.67s1.16,1.32,1.83,1.56c2.18.36,4.42-1.8,5.41-3.44a7.64,7.64,0,0,1,1.56-2.28c1-.75,2.81-.94,3.16.6a6.14,6.14,0,0,1-.89,4.64,9.41,9.41,0,0,1-2.73,3.15,7.8,7.8,0,0,1-.71.46l-.46.32a15.18,15.18,0,0,0,4.1-2.71C117.24,98.09,118.64,92.4,115.94,89.44Z"/><path class="cls-27" d="M101,100.83a2.64,2.64,0,0,0,3.36,1.23c2.42-.8,3.93-2.49,5.18-2.19s2.21.86-.24,3.29S101.34,105.36,101,100.83Z"/><path class="cls-23" d="M99,102.9A30.41,30.41,0,0,0,107,98.2c3.14-2.33,6.85-5.25,9.28-8.35a4.23,4.23,0,0,0-.33-.41c-2.71-3-8.5-2.07-12.93,2C99.12,95,97.56,99.77,99,102.9Z"/><path class="cls-24" d="M105.47,101.33c.26.28.12.82-.3,1.21s-1,.47-1.23.19-.13-.83.3-1.21S105.21,101,105.47,101.33Z"/><path class="cls-24" d="M114.4,93.85c.26.28.13.82-.3,1.21s-1,.47-1.23.19-.12-.83.3-1.21S114.14,93.57,114.4,93.85Z"/><path class="cls-27" d="M112.48,96.81c-.28-1.06-1.62-.18-2,.27-.68.75-.75,2.37.77,2A1.84,1.84,0,0,0,112.48,96.81Z"/><path class="cls-10" d="M101.74,105.21a11.88,11.88,0,0,0,10.82-2.77S107.75,106.24,101.74,105.21Z"/><path class="cls-10" d="M102.22,106.79A11.89,11.89,0,0,0,113,104S108.23,107.83,102.22,106.79Z"/></g><path class="cls-1" d="M98.68,102.93a91.7,91.7,0,0,0,17.45-14.12s4,3.22,2.84,8.06-7.72,12.19-13.37,11.36S98.91,105.27,98.68,102.93Z"/><g class="cls-28"><path class="cls-16" d="M136.14,68.15c1.09,2.93-1.58,6.63-6,8.26s-8.83.6-9.93-2.33,1.58-6.63,6-8.27S135.05,65.22,136.14,68.15Z"/><path class="cls-17" d="M135.58,68.18c1,2.75-1.48,6.22-5.61,7.76s-8.29.56-9.32-2.19,1.49-6.23,5.61-7.77S134.56,65.43,135.58,68.18Z"/><path class="cls-18" d="M134.41,68.64c.88,2.35-1.26,5.31-4.77,6.62s-7.07.47-7.94-1.87,1.26-5.3,4.77-6.61S133.54,66.3,134.41,68.64Z"/><path class="cls-19" d="M121.4,69.69s-2.36,3.2.3,5.66A5.09,5.09,0,0,1,121.4,69.69Z"/><path class="cls-20" d="M136.14,68.15c-1.09-2.93-5.53-4-9.93-2.34a10.46,10.46,0,0,0-5.48,4.34h.07c.91-.2,1.58.61,1.9,1.33.52,1.16.57,2.06,2.26,2,.93,0,1.84-.18,2.77-.27a3.93,3.93,0,0,1,2.45.47c2.12,1.43-1.6,3-2.69,3.24a8,8,0,0,1-4.86-.46,10.07,10.07,0,0,0,7.54-.09C134.56,74.78,137.23,71.08,136.14,68.15Z"/><path class="cls-7" d="M122,72a2.05,2.05,0,0,0,2.07,1.87c2,.12,3.56-.66,4.38-.08s1.34,1.27-1.13,2.3S121,75.39,122,72Z"/><path class="cls-16" d="M136,66.68c1.1,2.93-1.58,6.63-6,8.27s-8.83.59-9.92-2.34,1.58-6.63,6-8.27S134.93,63.75,136,66.68Z"/><path class="cls-17" d="M135.46,66.71c1,2.75-1.48,6.23-5.6,7.76s-8.3.56-9.33-2.19,1.49-6.23,5.61-7.76S134.44,64,135.46,66.71Z"/><path class="cls-21" d="M134.3,67.18c.87,2.34-1.27,5.3-4.78,6.61s-7.07.47-7.94-1.87,1.26-5.3,4.77-6.61S133.42,64.84,134.3,67.18Z"/><path class="cls-19" d="M121.28,68.22s-2.35,3.21.31,5.66A5.1,5.1,0,0,1,121.28,68.22Z"/><path class="cls-23" d="M128.53,69.28a16.68,16.68,0,0,0,.45-5.63,12.42,12.42,0,0,0-2.88.69c-4.39,1.64-7.07,5.34-6,8.27.76,2.06,3.18,3.18,6.07,3.1A24.26,24.26,0,0,0,128.53,69.28Z"/><path class="cls-24" d="M130.83,67.29c.1.28-.15.63-.57.79s-.84,0-.95-.22.15-.63.57-.79S130.73,67,130.83,67.29Z"/><path class="cls-24" d="M130.26,71.67c.1.28-.15.63-.57.79s-.84.06-.95-.22.15-.64.57-.79S130.15,71.39,130.26,71.67Z"/><path class="cls-7" d="M133.31,67.87c-.32-1.79-2.94-3.68-4-1.65v0a1.52,1.52,0,0,0-.31.8,4,4,0,0,0,.27,1.45,2.86,2.86,0,0,1-1.18,3.06c-.34.31-1.35,1.17-.84,1.78a1.78,1.78,0,0,0,2,.24,6.08,6.08,0,0,0,3-2.15A5,5,0,0,0,133.31,67.87Z"/></g><path class="cls-1" d="M128,63.19l-.24.49a22.35,22.35,0,0,1-2.39,12.12l1,2s7.65-.72,10-4.67S138.07,61.53,128,63.19Z"/><path class="cls-29" d="M128.93,63.53c-.07-.14-.14-.29-.22-.43h0l-3-8.51c1.84,14.77-16,35-42.91,47.66-29.39,13.76-58.74,13.29-66.28-.88l3.89,10.94h0a16.07,16.07,0,0,0,.63,1.57c6.91,14.82,36.66,15.57,66.44,1.67S135.85,78.36,128.93,63.53Z"/><path class="cls-30" d="M128.93,63.53c-.07-.14-.14-.29-.22-.43h0l-.69-2c-8.63,26.93-33.42,47.64-59.65,56.52a142.34,142.34,0,0,1-30.84,7c13,2.53,31.48-.45,50-9.08C117.31,101.63,135.85,78.36,128.93,63.53Z"/><path class="cls-31" d="M82.85,102.24c27-12.62,44.75-32.89,42.91-47.66l-3.51-10-2,2L105.37,52c-12.2-.54-27.54,2.73-42.88,9.89a111.19,111.19,0,0,0-22,13.46L30.41,78.94,12.93,91.15l3.64,10.21C24.11,115.53,53.46,116,82.85,102.24Z"/><path class="cls-30" d="M109.4,58.24c2.42,6.7,4.8,13.42,7.07,20.18,1.45,4.33,2.81,8.68,4.24,13,8.43-9.91,11.87-20.09,8.22-27.91-.07-.14-.14-.29-.22-.43h0l-3-8.51-3.51-10-2,2L106.8,51.45C107.69,53.72,108.58,56,109.4,58.24Z"/><path class="cls-32" d="M92.54,92.45c-3.61-12.53-7.45-25-11.11-37.51a110.56,110.56,0,0,0-11,3.56C73.84,70.83,78,83,81.93,95.12c2.16,6.68,4.17,13.4,6.21,20.12,3.27-1.55,6.4-3.22,9.38-5C95.87,104.33,94.25,98.38,92.54,92.45Z"/><path class="cls-30" d="M45.33,113.49,35.64,77.05l-5.23,1.89L12.93,91.15l3.64,10.21,3.89,10.94h0a16.07,16.07,0,0,0,.63,1.57c3.72,8,14,11.87,27.43,11.6Q46.92,119.48,45.33,113.49Z"/><path class="cls-30" d="M125,85.71c5.2-8,6.88-15.86,3.93-22.18-.07-.14-.14-.29-.22-.43h0l-3-8.51-3.51-10-2,2L116,48.16C119.27,60.59,121.69,73.29,125,85.71Z"/><path class="cls-30" d="M27.84,107.28c1.3,5.28,2.65,10.54,4.12,15.77a44.84,44.84,0,0,0,16.56,2.41q-1.6-6-3.19-12L35.64,77.05l-5.23,1.89-7.93,5.54C24.14,92.11,26,99.7,27.84,107.28Z"/><path class="cls-33" d="M80.37,95.37c-29.78,13.9-59.53,13.15-66.44-1.67s11.62-38.1,41.4-52,59.53-13.14,66.44,1.68S110.15,81.48,80.37,95.37Z"/><path class="cls-34" d="M121.77,43.38a17.46,17.46,0,0,0-8.46-8.16,15.19,15.19,0,0,1,1.55,2c6.1,9.73,1.29,22.58-5.35,30.64A64.06,64.06,0,0,1,92.27,82.26,60.4,60.4,0,0,1,75.05,89.4a72.57,72.57,0,0,1-16.49,1.65c-5.49-.09-11.24-.69-16.32-2.92-4.26-1.86-8.05-5-9.17-9.74-1.57-6.58,1.3-13.9,5-19.26C45.93,47.84,58.58,42,70.65,35.81A116.34,116.34,0,0,0,55.33,41.7C25.55,55.6,7,78.88,13.93,93.7s36.66,15.57,66.44,1.67S128.69,58.2,121.77,43.38Z"/><path class="cls-35" d="M121.77,43.38l-.18-.36C126.91,58.29,108.78,80.86,80,94.31c-29.53,13.78-59.18,12.81-66.62-2.07a13.93,13.93,0,0,0,.59,1.46c6.91,14.82,36.66,15.57,66.44,1.67S128.69,58.2,121.77,43.38Z"/><path class="cls-36" d="M27.52,105.89a1.28,1.28,0,0,0-1.92-.13,1.6,1.6,0,0,0,0,2.11,1.28,1.28,0,0,0,1.92.13A1.61,1.61,0,0,0,27.52,105.89Z"/><path class="cls-37" d="M27.37,105.9a1.51,1.51,0,0,1,0,2,1.19,1.19,0,0,1-1.8-.13,1.5,1.5,0,0,1-.05-2A1.2,1.2,0,0,1,27.37,105.9Z"/><path class="cls-38" d="M27.08,106.15a1.17,1.17,0,0,1,0,1.55.94.94,0,0,1-1.41-.1,1.19,1.19,0,0,1,0-1.56A1,1,0,0,1,27.08,106.15Z"/><path class="cls-35" d="M26.28,106.35a.49.49,0,0,1,0,.64.4.4,0,0,1-.58,0,.49.49,0,0,1,0-.64A.38.38,0,0,1,26.28,106.35Z"/><path class="cls-35" d="M26.35,107.41a.29.29,0,0,1,0,.38.22.22,0,0,1-.34,0,.29.29,0,0,1,0-.39A.24.24,0,0,1,26.35,107.41Z"/><path class="cls-36" d="M43.66,107.81a1.28,1.28,0,0,0-1.92-.13,1.61,1.61,0,0,0,0,2.11,1.28,1.28,0,0,0,1.92.13A1.61,1.61,0,0,0,43.66,107.81Z"/><path class="cls-37" d="M43.51,107.82a1.51,1.51,0,0,1,.05,2,1.21,1.21,0,0,1-1.82-.13,1.51,1.51,0,0,1,0-2A1.2,1.2,0,0,1,43.51,107.82Z"/><path class="cls-38" d="M43.22,108.07a1.19,1.19,0,0,1,0,1.55.94.94,0,0,1-1.41-.1,1.16,1.16,0,0,1,0-1.55A.93.93,0,0,1,43.22,108.07Z"/><path class="cls-35" d="M42.42,108.27a.49.49,0,0,1,0,.64.39.39,0,0,1-.58,0,.49.49,0,0,1,0-.64A.38.38,0,0,1,42.42,108.27Z"/><path class="cls-35" d="M42.49,109.33a.29.29,0,0,1,0,.38.22.22,0,0,1-.34,0,.29.29,0,0,1,0-.39A.24.24,0,0,1,42.49,109.33Z"/><path class="cls-36" d="M60.68,105.86a1.28,1.28,0,0,0-1.92-.14,1.61,1.61,0,0,0,.05,2.11,1.28,1.28,0,0,0,1.92.14A1.61,1.61,0,0,0,60.68,105.86Z"/><path class="cls-37" d="M60.53,105.86a1.51,1.51,0,0,1,0,2,1.21,1.21,0,0,1-1.81-.12,1.51,1.51,0,0,1-.05-2A1.2,1.2,0,0,1,60.53,105.86Z"/><path class="cls-38" d="M60.24,106.11a1.16,1.16,0,0,1,0,1.55.93.93,0,0,1-1.41-.1,1.19,1.19,0,0,1,0-1.55A.94.94,0,0,1,60.24,106.11Z"/><path class="cls-35" d="M59.44,106.31a.49.49,0,0,1,0,.64.38.38,0,0,1-.58,0,.48.48,0,0,1,0-.64A.39.39,0,0,1,59.44,106.31Z"/><path class="cls-35" d="M59.51,107.37a.29.29,0,0,1,0,.38.23.23,0,0,1-.35,0,.29.29,0,0,1,0-.38A.23.23,0,0,1,59.51,107.37Z"/><path class="cls-36" d="M77.76,100.63a1.27,1.27,0,0,0-1.91-.14,1.6,1.6,0,0,0,0,2.11,1.28,1.28,0,0,0,1.92.14A1.61,1.61,0,0,0,77.76,100.63Z"/><path class="cls-37" d="M77.61,100.63a1.51,1.51,0,0,1,0,2,1.21,1.21,0,0,1-1.81-.13,1.51,1.51,0,0,1,0-2A1.21,1.21,0,0,1,77.61,100.63Z"/><path class="cls-38" d="M77.32,100.88a1.19,1.19,0,0,1,0,1.56,1,1,0,0,1-1.42-.1,1.19,1.19,0,0,1,0-1.56A.94.94,0,0,1,77.32,100.88Z"/><path class="cls-35" d="M76.52,101.08a.48.48,0,0,1,0,.64.38.38,0,0,1-.58,0,.49.49,0,0,1,0-.64A.4.4,0,0,1,76.52,101.08Z"/><path class="cls-35" d="M76.59,102.14a.3.3,0,0,1,0,.39.23.23,0,0,1-.35,0,.29.29,0,0,1,0-.38A.23.23,0,0,1,76.59,102.14Z"/><path class="cls-36" d="M111.23,77.51a1.28,1.28,0,0,1,1.33-1.39,1.59,1.59,0,0,1,1.38,1.59,1.27,1.27,0,0,1-1.32,1.39A1.61,1.61,0,0,1,111.23,77.51Z"/><path class="cls-37" d="M111.34,77.41a1.53,1.53,0,0,0,1.31,1.51,1.22,1.22,0,0,0,1.26-1.32,1.53,1.53,0,0,0-1.31-1.51A1.22,1.22,0,0,0,111.34,77.41Z"/><path class="cls-38" d="M111.73,77.4a1.18,1.18,0,0,0,1,1.17,1,1,0,0,0,1-1,1.19,1.19,0,0,0-1-1.18A.94.94,0,0,0,111.73,77.4Z"/><path class="cls-35" d="M112.45,77a.49.49,0,0,0,.43.48.39.39,0,0,0,.4-.42.5.5,0,0,0-.42-.48A.39.39,0,0,0,112.45,77Z"/><path class="cls-35" d="M113.12,77.84a.28.28,0,0,0,.25.29.23.23,0,0,0,.24-.25.29.29,0,0,0-.25-.29C113.22,77.57,113.12,77.69,113.12,77.84Z"/><path class="cls-36" d="M122.9,58.8a1.24,1.24,0,0,1,1.28-1.34A1.56,1.56,0,0,1,125.51,59a1.24,1.24,0,0,1-1.28,1.34A1.55,1.55,0,0,1,122.9,58.8Z"/><path class="cls-37" d="M123,58.7a1.46,1.46,0,0,0,1.26,1.45,1.16,1.16,0,0,0,1.2-1.26,1.45,1.45,0,0,0-1.26-1.45A1.16,1.16,0,0,0,123,58.7Z"/><path class="cls-38" d="M123.38,58.69a1.13,1.13,0,0,0,1,1.13.91.91,0,0,0,.94-1,1.14,1.14,0,0,0-1-1.12A.9.9,0,0,0,123.38,58.69Z"/><path class="cls-35" d="M124.08,58.32a.45.45,0,0,0,.4.46.36.36,0,0,0,.38-.4.45.45,0,0,0-.4-.46A.36.36,0,0,0,124.08,58.32Z"/><path class="cls-35" d="M124.71,59.12a.28.28,0,0,0,.25.27.22.22,0,0,0,.23-.24.3.3,0,0,0-.24-.28A.23.23,0,0,0,124.71,59.12Z"/><path class="cls-36" d="M93.91,91.52a1.28,1.28,0,0,1,1.33-1.39,1.6,1.6,0,0,1,1.39,1.59,1.28,1.28,0,0,1-1.33,1.39A1.6,1.6,0,0,1,93.91,91.52Z"/><path class="cls-37" d="M94,91.42a1.52,1.52,0,0,0,1.31,1.51,1.22,1.22,0,0,0,1.25-1.32,1.52,1.52,0,0,0-1.31-1.51A1.21,1.21,0,0,0,94,91.42Z"/><path class="cls-38" d="M94.41,91.41a1.18,1.18,0,0,0,1,1.17,1,1,0,0,0,1-1,1.18,1.18,0,0,0-1-1.18A1,1,0,0,0,94.41,91.41Z"/><path class="cls-35" d="M95.14,91a.47.47,0,0,0,.42.48.39.39,0,0,0,.4-.42.49.49,0,0,0-.42-.48A.38.38,0,0,0,95.14,91Z"/><path class="cls-35" d="M95.8,91.85a.3.3,0,0,0,.25.29.22.22,0,0,0,.24-.25A.28.28,0,0,0,96,91.6.23.23,0,0,0,95.8,91.85Z"/><path class="cls-39" d="M26.46,115.59h0a17.36,17.36,0,0,1-3.91-3.28c.58,1.37,1.2,2.72,1.82,4.07.36.26.74.51,1.13.75h0c4.19,2.6,9.68,4.09,16,4.54-.18-.62-.36-1.23-.53-1.84C35.26,119.36,30.29,118,26.46,115.59Z"/><path class="cls-39" d="M84,110.84a110.41,110.41,0,0,1-23.47,7.62c.2.57.39,1.15.59,1.72a111.15,111.15,0,0,0,23.56-7.66C84.42,112,84.19,111.4,84,110.84Z"/><path class="cls-39" d="M129.6,67.33c-.37-.85-.74-1.69-1.06-2.51-.2-.54-.39-1.08-.58-1.63l-.24.49a22.29,22.29,0,0,1-2.35,12.09c.35.68.7,1.35,1,2,0,0,0,0,0,0A28,28,0,0,0,129.6,67.33Z"/><path class="cls-39" d="M116.13,88.81a91.7,91.7,0,0,1-17.45,14.12l.86,1.62A93.79,93.79,0,0,0,117,90.5C116.72,89.93,116.42,89.37,116.13,88.81Z"/><g class="cls-40"><path class="cls-41" d="M41.44,116.19c1.33,3.56-1.92,8.06-7.26,10S23.42,127,22.1,123.4s1.92-8.06,7.26-10.06S40.11,112.62,41.44,116.19Z"/><path class="cls-42" d="M40.76,116.22c1.25,3.35-1.81,7.58-6.82,9.45s-10.1.68-11.35-2.67,1.81-7.58,6.83-9.45S39.52,112.88,40.76,116.22Z"/><path class="cls-43" d="M39.34,116.79c1.06,2.85-1.54,6.45-5.81,8s-8.6.57-9.66-2.28,1.54-6.45,5.81-8S38.28,113.94,39.34,116.79Z"/><path class="cls-44" d="M23.5,118.06s-2.86,3.9.37,6.89A6.22,6.22,0,0,1,23.5,118.06Z"/><path class="cls-45" d="M41.44,116.19c-1.33-3.57-6.73-4.84-12.08-2.85a12.64,12.64,0,0,0-6.66,5.29l.08,0c1.1-.24,1.92.76,2.3,1.62.64,1.42.7,2.52,2.75,2.5,1.14,0,2.25-.22,3.38-.33a4.83,4.83,0,0,1,3,.58c2.57,1.74-1.95,3.61-3.27,3.93a9.6,9.6,0,0,1-5.91-.55,12.25,12.25,0,0,0,9.17-.11C39.52,124.25,42.77,119.75,41.44,116.19Z"/><path class="cls-32" d="M24.25,120.89a2.49,2.49,0,0,0,2.51,2.28c2.41.15,4.34-.8,5.33-.1s1.64,1.55-1.38,2.81S23,125,24.25,120.89Z"/><path class="cls-41" d="M41.3,114.4c1.33,3.56-1.92,8.07-7.27,10.06s-10.75.72-12.08-2.84,1.93-8.07,7.27-10.06S40,110.84,41.3,114.4Z"/><path class="cls-42" d="M40.62,114.44c1.25,3.34-1.81,7.57-6.83,9.44s-10.09.68-11.34-2.67,1.81-7.57,6.82-9.44S39.37,111.09,40.62,114.44Z"/><path class="cls-46" d="M39.19,115c1.07,2.85-1.53,6.46-5.81,8s-8.59.58-9.66-2.27,1.54-6.46,5.81-8S38.13,112.16,39.19,115Z"/><path class="cls-44" d="M23.35,116.28s-2.86,3.89.38,6.89A6.21,6.21,0,0,1,23.35,116.28Z"/><path class="cls-47" d="M41.3,114.4c-1.33-3.56-6.74-4.84-12.08-2.84a12.7,12.7,0,0,0-6.67,5.28l.09,0c1.09-.24,1.91.75,2.3,1.62.64,1.41.7,2.51,2.75,2.5,1.14,0,2.24-.22,3.37-.33a4.81,4.81,0,0,1,3,.57c2.58,1.74-1.94,3.61-3.27,3.94a9.53,9.53,0,0,1-5.91-.56,12.25,12.25,0,0,0,9.17-.1C39.38,122.47,42.63,118,41.3,114.4Z"/><path class="cls-48" d="M39.52,120.8c1.79-2,2.54-4.36,1.78-6.4-1.33-3.56-6.74-4.84-12.08-2.84a13.76,13.76,0,0,0-5.08,3.22C28.12,118.53,33.93,120.3,39.52,120.8Z"/><path class="cls-32" d="M24.1,119.11a2.5,2.5,0,0,0,2.52,2.27c2.41.15,4.34-.8,5.33-.09s1.63,1.55-1.38,2.81S22.81,123.22,24.1,119.11Z"/><path class="cls-49" d="M26.24,118c.13.34-.18.77-.69,1s-1,.06-1.15-.27.18-.77.69-1S26.11,117.69,26.24,118Z"/><path class="cls-49" d="M35.3,120.31c.13.34-.18.76-.69,1s-1,.07-1.15-.27.18-.76.69-1S35.17,120,35.3,120.31Z"/></g><g class="cls-50"><path class="cls-41" d="M83.06,113.46c1.41,3.76-2,8.51-7.66,10.61s-11.34.76-12.74-3,2-8.51,7.66-10.61S81.66,109.7,83.06,113.46Z"/><path class="cls-42" d="M82.34,113.5c1.32,3.52-1.9,8-7.19,10s-10.65.71-12-2.82,1.91-8,7.2-10S81,110,82.34,113.5Z"/><path class="cls-43" d="M80.84,114.1c1.12,3-1.62,6.8-6.12,8.48s-9.07.61-10.19-2.4,1.62-6.8,6.13-8.48S79.72,111.09,80.84,114.1Z"/><path class="cls-44" d="M64.14,115.44s-3,4.11.4,7.26A6.53,6.53,0,0,1,64.14,115.44Z"/><path class="cls-45" d="M83.06,113.46c-1.4-3.76-7.1-5.1-12.74-3a13.41,13.41,0,0,0-7,5.57l.09,0c1.16-.26,2,.79,2.43,1.7.67,1.5.74,2.66,2.9,2.65,1.2,0,2.37-.24,3.56-.36a5.11,5.11,0,0,1,3.14.61c2.72,1.83-2,3.81-3.45,4.15a10,10,0,0,1-6.23-.59,12.91,12.91,0,0,0,9.67-.1C81,122,84.47,117.22,83.06,113.46Z"/><path class="cls-32" d="M64.93,118.42a2.63,2.63,0,0,0,2.65,2.4c2.55.16,4.58-.84,5.62-.1s1.72,1.63-1.45,3S63.56,122.76,64.93,118.42Z"/><path class="cls-41" d="M82.91,111.57c1.4,3.76-2,8.51-7.66,10.61s-11.34.76-12.74-3,2-8.5,7.66-10.6S81.51,107.82,82.91,111.57Z"/><path class="cls-42" d="M82.19,111.61c1.32,3.53-1.9,8-7.19,10s-10.65.71-12-2.82,1.91-8,7.2-10S80.88,108.08,82.19,111.61Z"/><path class="cls-46" d="M80.69,112.21c1.12,3-1.62,6.81-6.13,8.49s-9.06.6-10.19-2.4,1.63-6.8,6.13-8.48S79.57,109.21,80.69,112.21Z"/><path class="cls-44" d="M64,113.55s-3,4.12.39,7.27A6.55,6.55,0,0,1,64,113.55Z"/><path class="cls-47" d="M68.35,123a11.22,11.22,0,0,1-2.78-.75,9.22,9.22,0,0,0,2.61.75Z"/><path class="cls-47" d="M82.91,111.57c-1.4-3.75-7.1-5.1-12.74-3a13.37,13.37,0,0,0-7,5.57l.09,0c1.15-.26,2,.79,2.43,1.7A6.31,6.31,0,0,0,66.78,118c1.88,1.15,4.77,0,6.3-1.17a7.8,7.8,0,0,1,2.3-1.52c1.18-.34,3,.17,2.71,1.74a6.18,6.18,0,0,1-2.56,4,9.67,9.67,0,0,1-3.71,1.91c-.28.06-.56.12-.84.16l-.54.12a15.33,15.33,0,0,0,4.81-1C80.88,120.08,84.31,115.33,82.91,111.57Z"/><path class="cls-32" d="M64.78,116.54a2.63,2.63,0,0,0,2.65,2.4c2.54.16,4.57-.84,5.62-.1s1.72,1.63-1.46,3S63.41,120.87,64.78,116.54Z"/><path class="cls-48" d="M62.48,119.1c1.21-.28,17.18-5.06,20.59-7,0-.18-.1-.36-.16-.54-1.4-3.75-7.1-5.1-12.74-3S61.17,115.35,62.48,119.1Z"/><path class="cls-49" d="M68.75,118.68c.13.36-.19.81-.73,1s-1.08.07-1.22-.29.2-.81.74-1S68.62,118.32,68.75,118.68Z"/><path class="cls-49" d="M79.84,115.09c.13.36-.2.81-.74,1s-1.08.07-1.21-.29.2-.81.73-1S79.7,114.73,79.84,115.09Z"/><path class="cls-32" d="M76.94,117.11c.14-1.08-1.43-.76-2-.5-.91.43-1.58,1.91,0,2.13A1.83,1.83,0,0,0,76.94,117.11Z"/><path class="cls-35" d="M63.84,120.88a11.89,11.89,0,0,0,11.07,1.49S69,124.09,63.84,120.88Z"/><path class="cls-35" d="M63.69,122.53A11.89,11.89,0,0,0,74.76,124S68.87,125.74,63.69,122.53Z"/></g><g class="cls-51"><path class="cls-41" d="M116.78,91.13c2.71,3,1.31,8.65-3.13,12.7s-10.23,5-12.93,2-1.31-8.64,3.13-12.7S114.07,88.17,116.78,91.13Z"/><path class="cls-42" d="M116.13,91.43c2.54,2.78,1.23,8.12-2.94,11.93s-9.6,4.65-12.15,1.87S99.82,97.11,104,93.3,113.59,88.65,116.13,91.43Z"/><path class="cls-43" d="M115,92.55c2.16,2.37,1,6.92-2.51,10.16s-8.18,4-10.35,1.59-1-6.91,2.51-10.16S112.8,90.18,115,92.55Z"/><path class="cls-44" d="M100,100.05s-1.26,4.94,3.09,6.58A6.52,6.52,0,0,1,100,100.05Z"/><path class="cls-45" d="M116.78,91.13c-2.71-3-8.49-2.07-12.93,2a13.3,13.3,0,0,0-4.43,7.8l.07-.06c1-.67,2.17,0,2.9.67,1.18,1.14,1.67,2.19,3.67,1.37,1.11-.46,2.11-1.11,3.17-1.66a5.07,5.07,0,0,1,3.14-.61c3.2.68-.48,4.29-1.64,5.13a10.09,10.09,0,0,1-6,1.79c2.76.15,6.11-1.15,8.92-3.72C118.09,99.78,119.49,94.09,116.78,91.13Z"/><path class="cls-32" d="M101.83,102.52a2.64,2.64,0,0,0,3.36,1.23c2.42-.8,3.93-2.49,5.17-2.2s2.21.87-.24,3.29S102.18,107.05,101.83,102.52Z"/><path class="cls-41" d="M115.94,89.44c2.7,3,1.3,8.65-3.13,12.7s-10.23,5-12.94,2-1.3-8.64,3.14-12.7S113.23,86.48,115.94,89.44Z"/><path class="cls-42" d="M115.29,89.74c2.54,2.78,1.22,8.12-3,11.94s-9.6,4.64-12.14,1.86S99,95.42,103.14,91.61,112.75,87,115.29,89.74Z"/><path class="cls-46" d="M114.12,90.86c2.17,2.37,1,6.92-2.5,10.16s-8.19,4-10.35,1.59-1-6.91,2.5-10.16S112,88.49,114.12,90.86Z"/><path class="cls-44" d="M99.13,98.36s-1.25,4.94,3.09,6.58A6.54,6.54,0,0,1,99.13,98.36Z"/><path class="cls-47" d="M106.73,105.52a10.54,10.54,0,0,1-2.85.34,9.39,9.39,0,0,0,2.69-.27Z"/><path class="cls-47" d="M115.94,89.44c-2.71-3-8.5-2.07-12.93,2a13.4,13.4,0,0,0-4.44,7.8l.07-.06c1-.67,2.18,0,2.9.67s1.16,1.32,1.83,1.56c2.18.36,4.42-1.8,5.41-3.44a7.64,7.64,0,0,1,1.56-2.28c1-.75,2.81-.94,3.16.6a6.14,6.14,0,0,1-.89,4.64,9.41,9.41,0,0,1-2.73,3.15,7.8,7.8,0,0,1-.71.46l-.46.32a15.18,15.18,0,0,0,4.1-2.71C117.24,98.09,118.64,92.4,115.94,89.44Z"/><path class="cls-52" d="M101,100.83a2.64,2.64,0,0,0,3.36,1.23c2.42-.8,3.93-2.49,5.18-2.19s2.21.86-.24,3.29S101.34,105.36,101,100.83Z"/><path class="cls-48" d="M99,102.9A30.41,30.41,0,0,0,107,98.2c3.14-2.33,6.85-5.25,9.28-8.35a4.23,4.23,0,0,0-.33-.41c-2.71-3-8.5-2.07-12.93,2C99.12,95,97.56,99.77,99,102.9Z"/><path class="cls-49" d="M105.47,101.33c.26.28.12.82-.3,1.21s-1,.47-1.23.19-.13-.83.3-1.21S105.21,101,105.47,101.33Z"/><path class="cls-49" d="M114.4,93.85c.26.28.13.82-.3,1.21s-1,.47-1.23.19-.12-.83.3-1.21S114.14,93.57,114.4,93.85Z"/><path class="cls-52" d="M112.48,96.81c-.28-1.06-1.62-.18-2,.27-.68.75-.75,2.37.77,2A1.84,1.84,0,0,0,112.48,96.81Z"/><path class="cls-35" d="M101.74,105.21a11.88,11.88,0,0,0,10.82-2.77S107.75,106.24,101.74,105.21Z"/><path class="cls-35" d="M102.22,106.79A11.89,11.89,0,0,0,113,104S108.23,107.83,102.22,106.79Z"/></g><g class="cls-53"><path class="cls-41" d="M136.14,68.15c1.09,2.93-1.58,6.63-6,8.26s-8.83.6-9.93-2.33,1.58-6.63,6-8.27S135.05,65.22,136.14,68.15Z"/><path class="cls-42" d="M135.58,68.18c1,2.75-1.48,6.22-5.61,7.76s-8.29.56-9.32-2.19,1.49-6.23,5.61-7.77S134.56,65.43,135.58,68.18Z"/><path class="cls-43" d="M134.41,68.64c.88,2.35-1.26,5.31-4.77,6.62s-7.07.47-7.94-1.87,1.26-5.3,4.77-6.61S133.54,66.3,134.41,68.64Z"/><path class="cls-44" d="M121.4,69.69s-2.36,3.2.3,5.66A5.09,5.09,0,0,1,121.4,69.69Z"/><path class="cls-45" d="M136.14,68.15c-1.09-2.93-5.53-4-9.93-2.34a10.46,10.46,0,0,0-5.48,4.34h.07c.91-.2,1.58.61,1.9,1.33.52,1.16.57,2.06,2.26,2,.93,0,1.84-.18,2.77-.27a3.93,3.93,0,0,1,2.45.47c2.12,1.43-1.6,3-2.69,3.24a8,8,0,0,1-4.86-.46,10.07,10.07,0,0,0,7.54-.09C134.56,74.78,137.23,71.08,136.14,68.15Z"/><path class="cls-32" d="M122,72a2.05,2.05,0,0,0,2.07,1.87c2,.12,3.56-.66,4.38-.08s1.34,1.27-1.13,2.3S121,75.39,122,72Z"/><path class="cls-41" d="M136,66.68c1.1,2.93-1.58,6.63-6,8.27s-8.83.59-9.92-2.34,1.58-6.63,6-8.27S134.93,63.75,136,66.68Z"/><path class="cls-42" d="M135.46,66.71c1,2.75-1.48,6.23-5.6,7.76s-8.3.56-9.33-2.19,1.49-6.23,5.61-7.76S134.44,64,135.46,66.71Z"/><path class="cls-46" d="M134.3,67.18c.87,2.34-1.27,5.3-4.78,6.61s-7.07.47-7.94-1.87,1.26-5.3,4.77-6.61S133.42,64.84,134.3,67.18Z"/><path class="cls-44" d="M121.28,68.22s-2.35,3.21.31,5.66A5.1,5.1,0,0,1,121.28,68.22Z"/><path class="cls-48" d="M128.53,69.28a16.68,16.68,0,0,0,.45-5.63,12.42,12.42,0,0,0-2.88.69c-4.39,1.64-7.07,5.34-6,8.27.76,2.06,3.18,3.18,6.07,3.1A24.26,24.26,0,0,0,128.53,69.28Z"/><path class="cls-49" d="M130.83,67.29c.1.28-.15.63-.57.79s-.84,0-.95-.22.15-.63.57-.79S130.73,67,130.83,67.29Z"/><path class="cls-49" d="M130.26,71.67c.1.28-.15.63-.57.79s-.84.06-.95-.22.15-.64.57-.79S130.15,71.39,130.26,71.67Z"/><path class="cls-32" d="M133.31,67.87c-.32-1.79-2.94-3.68-4-1.65v0a1.52,1.52,0,0,0-.31.8,4,4,0,0,0,.27,1.45,2.86,2.86,0,0,1-1.18,3.06c-.34.31-1.35,1.17-.84,1.78a1.78,1.78,0,0,0,2,.24,6.08,6.08,0,0,0,3-2.15A5,5,0,0,0,133.31,67.87Z"/></g></g></g></svg>