<svg id="ढाल" xmlns="http://www.w3.org/2000/svg" viewBox="0 0 150 160"><defs><style>.cls-1,.cls-6{fill:#a1bab6;}.cls-1,.cls-2,.cls-3,.cls-4,.cls-5{stroke:#fff;stroke-miterlimit:10;stroke-width:5px;}.cls-2,.cls-7{fill:#bed1ce;}.cls-3,.cls-8{fill:#819e99;}.cls-4,.cls-9{fill:#995433;}.cls-10,.cls-5{fill:#753c24;}</style></defs><circle class="cls-1" cx="75" cy="80" r="50.7"/><path class="cls-2" d="M26.69,80A50.69,50.69,0,0,1,76.2,29.33l-1.2,0a50.7,50.7,0,0,0,0,101.4l1.2,0A50.69,50.69,0,0,1,26.69,80Z"/><path class="cls-3" d="M123.31,80A50.69,50.69,0,0,1,73.8,130.67l1.2,0A50.7,50.7,0,0,0,75,29.3l-1.2,0A50.69,50.69,0,0,1,123.31,80Z"/><circle class="cls-4" cx="75" cy="80" r="45.36" transform="translate(-13.86 144.26) rotate(-82.72)"/><path class="cls-5" d="M29.64,80c0,.23,0,.47,0,.7L74.3,125.34l.7,0c.65,0,1.3,0,2,0L29.69,78.05C29.67,78.7,29.64,79.35,29.64,80Z"/><path class="cls-5" d="M75,34.64c-.42,0-.84,0-1.27,0l46.59,46.59c0-.43,0-.85,0-1.27s0-1,0-1.42l-43.9-43.9C76,34.67,75.48,34.64,75,34.64Z"/><path class="cls-5" d="M37,55.29c-.35.55-.7,1.1-1,1.66l62.11,62.11c.56-.33,1.11-.68,1.66-1Z"/><path class="cls-5" d="M52.39,40.69c-.56.32-1.12.66-1.67,1l62.58,62.58c.35-.55.69-1.11,1-1.67Z"/><circle class="cls-1" cx="75" cy="80" r="13.81"/><ellipse class="cls-2" cx="75" cy="74.42" rx="8.63" ry="4.67"/><path class="cls-3" d="M75,90.1a13.8,13.8,0,0,1-13.67-12A14.28,14.28,0,0,0,61.19,80a13.81,13.81,0,0,0,27.62,0,14.28,14.28,0,0,0-.14-1.86A13.8,13.8,0,0,1,75,90.1Z"/><circle class="cls-6" cx="75" cy="80" r="50.7"/><path class="cls-7" d="M26.69,80A50.69,50.69,0,0,1,76.2,29.33l-1.2,0a50.7,50.7,0,0,0,0,101.4l1.2,0A50.69,50.69,0,0,1,26.69,80Z"/><path class="cls-8" d="M123.31,80A50.69,50.69,0,0,1,73.8,130.67l1.2,0A50.7,50.7,0,0,0,75,29.3l-1.2,0A50.69,50.69,0,0,1,123.31,80Z"/><circle class="cls-9" cx="75" cy="80" r="45.36" transform="translate(-13.86 144.26) rotate(-82.72)"/><path class="cls-10" d="M29.64,80c0,.23,0,.47,0,.7L74.3,125.34l.7,0c.65,0,1.3,0,2,0L29.69,78.05C29.67,78.7,29.64,79.35,29.64,80Z"/><path class="cls-10" d="M75,34.64c-.42,0-.84,0-1.27,0l46.59,46.59c0-.43,0-.85,0-1.27s0-1,0-1.42l-43.9-43.9C76,34.67,75.48,34.64,75,34.64Z"/><path class="cls-10" d="M37,55.29c-.35.55-.7,1.1-1,1.66l62.11,62.11c.56-.33,1.11-.68,1.66-1Z"/><path class="cls-10" d="M52.39,40.69c-.56.32-1.12.66-1.67,1l62.58,62.58c.35-.55.69-1.11,1-1.67Z"/><circle class="cls-6" cx="75" cy="80" r="13.81"/><ellipse class="cls-7" cx="75" cy="74.42" rx="8.63" ry="4.67"/><path class="cls-8" d="M75,90.1a13.8,13.8,0,0,1-13.67-12A14.28,14.28,0,0,0,61.19,80a13.81,13.81,0,0,0,27.62,0,14.28,14.28,0,0,0-.14-1.86A13.8,13.8,0,0,1,75,90.1Z"/></svg>