<svg id="हवेली" xmlns="http://www.w3.org/2000/svg" viewBox="0 0 150 160"><defs><style>.cls-1{fill:#fff;stroke:#fff;stroke-miterlimit:10;stroke-width:5px;}.cls-2{fill:#625f73;}.cls-3{fill:#5a838e;}.cls-4{fill:#4e717d;}.cls-5{fill:#bababa;}.cls-6{fill:#959595;}.cls-7{fill:#3c4146;}.cls-8{fill:#292929;opacity:0.5;}.cls-9{fill:#c9c9c9;}.cls-10{fill:#b4b3b3;}.cls-11{fill:#a94c4c;}.cls-12{fill:#8d4747;}.cls-13{fill:#d5d5d5;}.cls-14{fill:#737371;}.cls-15{fill:#6d523b;}.cls-16{fill:#e3e3e3;}.cls-17{opacity:0.64;}</style></defs><path class="cls-1" d="M145.14,51.65H140L123.48,36.51H97.07L93.57,33l-3.5,3.54H68.33L51.79,51.65h-4V53.4a2.18,2.18,0,0,0,.13.72l0,.13.12.24s0,.1.08.14.09.14.14.21l.12.13a1.29,1.29,0,0,0,.16.17l.16.13.17.12.21.11.17.08.27.09.09,0V62.9H28.71l0,0v0l-.08.08h-.15v.15L4.86,86.93l1,.95a2.39,2.39,0,0,0,.63.44l.08,0a1.31,1.31,0,0,0,.28.09l.13,0,.11,0v28.57H5.6v2a1.88,1.88,0,0,0,.06.49h0a2.38,2.38,0,0,0,1.42,1.74V127H142.78v0h.08v-5.62a2.36,2.36,0,0,0,1.54-1.79h0a1.88,1.88,0,0,0,0-.43v-2h0a2.23,2.23,0,0,0,0-.27v-2.41a1.9,1.9,0,0,0-1.11-1.72V95.17a1.91,1.91,0,0,0,1.11-1.73V91.16h.69V89.47a2.63,2.63,0,0,0,0-.49h0a2.33,2.33,0,0,0-1.8-1.86l0,0a2.42,2.42,0,0,0-.47,0V55.75a2.42,2.42,0,0,0,.47,0h0a2.33,2.33,0,0,0,1.8-1.86h0a2.63,2.63,0,0,0,0-.49Z"/><polygon class="cls-2" points="123.48 36.51 68.33 36.51 49.35 53.88 142.46 53.88 123.48 36.51"/><rect class="cls-2" x="28.45" y="62.9" width="48.44" height="22.87"/><polygon class="cls-3" points="142.78 127.03 7.06 127.03 7.06 85.07 28.7 66.1 50.83 85.07 142.78 85.07 142.78 127.03"/><rect class="cls-4" x="49.6" y="53.56" width="93.18" height="64.42"/><rect class="cls-5" x="112.09" y="95.75" width="10.41" height="14.66"/><rect class="cls-6" x="113" y="96.74" width="8.59" height="12.68"/><rect class="cls-7" x="113.74" y="97.48" width="7.1" height="11.19"/><rect class="cls-6" x="116.92" y="96.74" width="0.74" height="12.68"/><rect class="cls-6" x="113.02" y="100.76" width="8.55" height="0.74"/><rect class="cls-6" x="113.02" y="104.76" width="8.55" height="0.74"/><rect class="cls-5" x="88.37" y="54.05" width="10.41" height="30.75"/><rect class="cls-6" x="89.28" y="55.04" width="8.59" height="28.76"/><rect class="cls-7" x="90.02" y="55.78" width="7.1" height="27.28"/><rect class="cls-6" x="93.2" y="55.04" width="0.74" height="28.76"/><rect class="cls-6" x="89.3" y="75.15" width="8.55" height="0.74"/><rect class="cls-6" x="89.3" y="79.15" width="8.55" height="0.74"/><rect class="cls-6" x="89.3" y="67.1" width="8.55" height="0.74"/><rect class="cls-6" x="89.3" y="71.1" width="8.55" height="0.74"/><rect class="cls-6" x="89.3" y="59.05" width="8.55" height="0.74"/><rect class="cls-6" x="89.3" y="63.04" width="8.55" height="0.74"/><rect class="cls-5" x="128.24" y="95.75" width="10.41" height="14.66"/><rect class="cls-6" x="129.15" y="96.74" width="8.59" height="12.68"/><rect class="cls-7" x="129.9" y="97.48" width="7.1" height="11.19"/><rect class="cls-6" x="133.08" y="96.74" width="0.74" height="12.68"/><rect class="cls-6" x="129.17" y="100.76" width="8.55" height="0.74"/><rect class="cls-6" x="129.17" y="104.76" width="8.55" height="0.74"/><rect class="cls-8" x="108.12" y="89.37" width="34.58" height="16.15"/><polygon class="cls-4" points="93.57 35.53 77.22 54.38 111.14 53.3 93.57 35.53"/><rect class="cls-5" x="78.69" y="54.79" width="1.97" height="62.86"/><rect class="cls-5" x="106.48" y="54.79" width="1.97" height="34.18"/><rect class="cls-6" x="7.18" y="117.67" width="135.68" height="9.34"/><rect class="cls-9" x="87.29" y="91.65" width="12.57" height="27.54"/><rect class="cls-10" x="88.38" y="92.87" width="10.37" height="25.1"/><rect class="cls-11" x="89.28" y="93.78" width="8.58" height="23.28"/><rect class="cls-7" x="90.18" y="94.7" width="1.79" height="7.15"/><rect class="cls-7" x="92.65" y="94.7" width="1.79" height="7.15"/><rect class="cls-7" x="95.12" y="94.7" width="1.79" height="7.15"/><rect class="cls-12" x="90.1" y="102.61" width="6.81" height="13.39"/><path class="cls-13" d="M111.07,113a1.85,1.85,0,0,1-1.85,1.84h0a1.84,1.84,0,0,1-1.84-1.84V95a1.84,1.84,0,0,1,1.84-1.85h0A1.85,1.85,0,0,1,111.07,95Z"/><path class="cls-13" d="M127.2,113a1.84,1.84,0,0,1-1.84,1.84h0a1.85,1.85,0,0,1-1.85-1.84V95a1.85,1.85,0,0,1,1.85-1.85h0A1.84,1.84,0,0,1,127.2,95Z"/><path class="cls-13" d="M143.34,113a1.85,1.85,0,0,1-1.85,1.84h0a1.85,1.85,0,0,1-1.84-1.84V95a1.85,1.85,0,0,1,1.84-1.85h0A1.85,1.85,0,0,1,143.34,95Z"/><rect class="cls-5" x="106.39" y="89.12" width="5.78" height="6.23" rx="1.91"/><rect class="cls-5" x="106.39" y="112.56" width="5.78" height="6.23" rx="1.91"/><rect class="cls-5" x="122.53" y="89.12" width="5.78" height="6.23" rx="1.91"/><rect class="cls-5" x="122.53" y="112.56" width="5.78" height="6.23" rx="1.91"/><rect class="cls-5" x="138.67" y="89.12" width="5.78" height="6.23" rx="1.91"/><rect class="cls-5" x="138.67" y="112.56" width="5.78" height="6.23" rx="1.91"/><path class="cls-6" d="M144.45,117.48,5.6,117.42v1.69c0,1.3,1.06,1.67,2.36,1.67H142.09c1.3,0,2.36-.31,2.36-1.61Z"/><path class="cls-14" d="M142.09,121.52H8a2.34,2.34,0,0,1-2.32-1.92H144.4A2.35,2.35,0,0,1,142.09,121.52Z"/><polygon class="cls-6" points="144.45 118.39 5.6 118.39 5.6 117.09 144.45 117.15 144.45 118.39"/><rect class="cls-5" x="18" y="95.69" width="10.41" height="14.66"/><rect class="cls-6" x="18.91" y="96.68" width="8.59" height="12.68"/><rect class="cls-7" x="19.65" y="97.42" width="7.1" height="11.19"/><rect class="cls-6" x="22.83" y="96.68" width="0.74" height="12.68"/><rect class="cls-6" x="18.92" y="100.7" width="8.55" height="0.74"/><rect class="cls-6" x="18.92" y="104.7" width="8.55" height="0.74"/><rect class="cls-5" x="28.9" y="95.69" width="10.41" height="14.66"/><rect class="cls-6" x="29.81" y="96.68" width="8.59" height="12.68"/><rect class="cls-7" x="30.55" y="97.42" width="7.1" height="11.19"/><rect class="cls-6" x="33.73" y="96.68" width="0.74" height="12.68"/><rect class="cls-6" x="29.83" y="100.7" width="8.55" height="0.74"/><rect class="cls-6" x="29.83" y="104.7" width="8.55" height="0.74"/><rect class="cls-13" x="39.78" y="95.6" width="5.26" height="14.74"/><polygon class="cls-5" points="39.78 99.33 45.05 97.07 45.05 95.63 39.78 97.89 39.78 99.33"/><polygon class="cls-5" points="39.78 103.01 45.05 100.74 45.05 99.31 39.78 101.57 39.78 103.01"/><polygon class="cls-5" points="39.78 106.68 45.05 104.42 45.05 102.98 39.78 105.25 39.78 106.68"/><polygon class="cls-5" points="39.78 110.36 45.05 108.09 45.05 106.66 39.78 108.92 39.78 110.36"/><rect class="cls-15" x="39.17" y="98.91" width="0.95" height="2.56"/><rect class="cls-15" x="39.17" y="104.75" width="0.95" height="2.56"/><rect class="cls-13" x="12.4" y="95.6" width="5.26" height="14.74"/><polygon class="cls-5" points="17.66 99.33 12.4 97.07 12.4 95.63 17.66 97.89 17.66 99.33"/><polygon class="cls-5" points="17.66 103.01 12.4 100.74 12.4 99.31 17.66 101.57 17.66 103.01"/><polygon class="cls-5" points="17.66 106.68 12.4 104.42 12.4 102.98 17.66 105.25 17.66 106.68"/><polygon class="cls-5" points="17.66 110.36 12.4 108.09 12.4 106.66 17.66 108.92 17.66 110.36"/><rect class="cls-15" x="17.33" y="98.91" width="0.95" height="2.56"/><rect class="cls-15" x="17.33" y="104.75" width="0.95" height="2.56"/><rect class="cls-5" x="59.36" y="95.69" width="10.41" height="14.66"/><rect class="cls-6" x="60.27" y="96.68" width="8.59" height="12.68"/><rect class="cls-7" x="61.01" y="97.42" width="7.1" height="11.19"/><rect class="cls-6" x="64.19" y="96.68" width="0.74" height="12.68"/><rect class="cls-6" x="60.29" y="100.7" width="8.55" height="0.74"/><rect class="cls-6" x="60.29" y="104.7" width="8.55" height="0.74"/><rect class="cls-13" x="70.24" y="95.6" width="5.27" height="14.74"/><polygon class="cls-5" points="70.24 99.33 75.51 97.07 75.51 95.63 70.24 97.89 70.24 99.33"/><polygon class="cls-5" points="70.24 103.01 75.51 100.74 75.51 99.31 70.24 101.57 70.24 103.01"/><polygon class="cls-5" points="70.24 106.68 75.51 104.42 75.51 102.98 70.24 105.25 70.24 106.68"/><polygon class="cls-5" points="70.24 110.36 75.51 108.09 75.51 106.66 70.24 108.92 70.24 110.36"/><rect class="cls-15" x="69.62" y="98.91" width="0.95" height="2.56"/><rect class="cls-15" x="69.62" y="104.75" width="0.95" height="2.56"/><rect class="cls-13" x="53.6" y="95.6" width="5.27" height="14.74"/><polygon class="cls-5" points="58.87 99.33 53.6 97.07 53.6 95.63 58.87 97.89 58.87 99.33"/><polygon class="cls-5" points="58.87 103.01 53.6 100.74 53.6 99.31 58.87 101.57 58.87 103.01"/><polygon class="cls-5" points="58.87 106.68 53.6 104.42 53.6 102.98 58.87 105.25 58.87 106.68"/><polygon class="cls-5" points="58.87 110.36 53.6 108.09 53.6 106.66 58.87 108.92 58.87 110.36"/><rect class="cls-15" x="58.54" y="98.91" width="0.95" height="2.56"/><rect class="cls-15" x="58.54" y="104.75" width="0.95" height="2.56"/><rect class="cls-5" x="59.36" y="65.14" width="10.41" height="14.66"/><rect class="cls-6" x="60.27" y="66.13" width="8.59" height="12.68"/><rect class="cls-7" x="61.01" y="66.87" width="7.1" height="11.19"/><rect class="cls-6" x="64.19" y="66.13" width="0.74" height="12.68"/><rect class="cls-6" x="60.29" y="70.15" width="8.55" height="0.74"/><rect class="cls-6" x="60.29" y="74.15" width="8.55" height="0.74"/><rect class="cls-13" x="70.24" y="65.06" width="5.27" height="14.74"/><polygon class="cls-5" points="70.24 68.78 75.51 66.52 75.51 65.08 70.24 67.35 70.24 68.78"/><polygon class="cls-5" points="70.24 72.46 75.51 70.19 75.51 68.76 70.24 71.03 70.24 72.46"/><polygon class="cls-5" points="70.24 76.14 75.51 73.87 75.51 72.44 70.24 74.7 70.24 76.14"/><polygon class="cls-5" points="70.24 79.81 75.51 77.55 75.51 76.11 70.24 78.38 70.24 79.81"/><rect class="cls-15" x="69.62" y="68.36" width="0.95" height="2.56"/><rect class="cls-15" x="69.62" y="74.2" width="0.95" height="2.56"/><rect class="cls-13" x="53.6" y="65.06" width="5.27" height="14.74"/><polygon class="cls-5" points="58.87 68.78 53.6 66.52 53.6 65.08 58.87 67.35 58.87 68.78"/><polygon class="cls-5" points="58.87 72.46 53.6 70.19 53.6 68.76 58.87 71.03 58.87 72.46"/><polygon class="cls-5" points="58.87 76.14 53.6 73.87 53.6 72.44 58.87 74.7 58.87 76.14"/><polygon class="cls-5" points="58.87 79.81 53.6 77.55 53.6 76.11 58.87 78.38 58.87 79.81"/><rect class="cls-15" x="58.54" y="68.36" width="0.95" height="2.56"/><rect class="cls-15" x="58.54" y="74.2" width="0.95" height="2.56"/><rect class="cls-5" x="120.37" y="65.14" width="10.41" height="14.66"/><rect class="cls-6" x="121.28" y="66.13" width="8.59" height="12.68"/><rect class="cls-7" x="122.02" y="66.87" width="7.1" height="11.19"/><rect class="cls-6" x="125.2" y="66.13" width="0.74" height="12.68"/><rect class="cls-6" x="121.3" y="70.15" width="8.55" height="0.74"/><rect class="cls-6" x="121.3" y="74.15" width="8.55" height="0.74"/><rect class="cls-13" x="131.25" y="65.06" width="5.26" height="14.74"/><polygon class="cls-5" points="131.25 68.78 136.52 66.52 136.52 65.08 131.25 67.35 131.25 68.78"/><polygon class="cls-5" points="131.25 72.46 136.52 70.19 136.52 68.76 131.25 71.03 131.25 72.46"/><polygon class="cls-5" points="131.25 76.14 136.52 73.87 136.52 72.44 131.25 74.7 131.25 76.14"/><polygon class="cls-5" points="131.25 79.81 136.52 77.55 136.52 76.11 131.25 78.38 131.25 79.81"/><rect class="cls-15" x="130.63" y="68.36" width="0.95" height="2.56"/><rect class="cls-15" x="130.63" y="74.2" width="0.95" height="2.56"/><rect class="cls-13" x="114.61" y="65.06" width="5.27" height="14.74"/><polygon class="cls-5" points="119.88 68.78 114.61 66.52 114.61 65.08 119.88 67.35 119.88 68.78"/><polygon class="cls-5" points="119.88 72.46 114.61 70.19 114.61 68.76 119.88 71.03 119.88 72.46"/><polygon class="cls-5" points="119.88 76.14 114.61 73.87 114.61 72.44 119.88 74.7 119.88 76.14"/><polygon class="cls-5" points="119.88 79.81 114.61 77.55 114.61 76.11 119.88 78.38 119.88 79.81"/><rect class="cls-15" x="119.55" y="68.36" width="0.95" height="2.56"/><rect class="cls-15" x="119.55" y="74.2" width="0.95" height="2.56"/><path class="cls-16" d="M93.57,33l18.87,19.11-1,1a2.36,2.36,0,0,1-3.33,0L93.57,38.26Z"/><path class="cls-13" d="M93.57,35.53,111.14,53.3a2.35,2.35,0,0,1-3-.29L93.57,38.26Z"/><path class="cls-16" d="M93.57,33v5.29L79,53a2.36,2.36,0,0,1-3.33,0l-1-1Z"/><path class="cls-13" d="M93.57,35.53v2.73L79,53a2.34,2.34,0,0,1-3,.29Z"/><path class="cls-16" d="M104.2,51.65h40.94v1.69a2.41,2.41,0,0,1-2.36,2.41H106.56a2.35,2.35,0,0,1-2.36-2.35Z"/><path class="cls-13" d="M106.56,55.75h36.22a2.34,2.34,0,0,0,2.31-1.92H104.24A2.36,2.36,0,0,0,106.56,55.75Z"/><path class="cls-16" d="M47.75,51.65H83v1.69a2.4,2.4,0,0,1-2.35,2.41H50.11a2.35,2.35,0,0,1-2.36-2.35Z"/><path class="cls-13" d="M50.11,55.75H80.66A2.34,2.34,0,0,0,83,53.83H47.79A2.36,2.36,0,0,0,50.11,55.75Z"/><path class="cls-16" d="M28.68,62.82,4.86,86.93l1,.95a2.34,2.34,0,0,0,3.33,0L28.68,68.12Z"/><path class="cls-13" d="M28.68,65.39,6.17,88.15a2.34,2.34,0,0,0,3-.29L28.68,68.12Z"/><path class="cls-16" d="M28.68,62.87v5.3L48.15,87.86a2.34,2.34,0,0,0,3.33,0l1-.95Z"/><path class="cls-13" d="M28.68,65.44v2.73L48.15,87.86a2.34,2.34,0,0,0,3,.29Z"/><rect class="cls-2" x="49.31" y="79.31" width="1.39" height="8.32" transform="translate(-44.24 59.25) rotate(-44.66)"/><polygon class="cls-9" points="80.75 117.12 80.75 119.6 80.75 122.08 80.75 124.55 80.75 127.03 106.39 127.03 106.39 124.55 106.39 122.08 106.39 119.6 106.39 117.12 80.75 117.12"/><g class="cls-17"><rect class="cls-16" x="80.74" y="117.12" width="25.65" height="2.48"/><rect class="cls-16" x="80.74" y="122.08" width="25.65" height="2.48"/><rect class="cls-9" x="80.74" y="124.55" width="25.65" height="2.48"/><rect class="cls-9" x="80.74" y="119.6" width="25.65" height="2.48"/></g><path class="cls-5" d="M106.39,91.16h38.75V89.47a2.4,2.4,0,0,0-2.36-2.41h-34a2.36,2.36,0,0,0-2.36,2.35Z"/><path class="cls-2" d="M108.75,87.06h34A2.34,2.34,0,0,1,145.09,89H106.44A2.35,2.35,0,0,1,108.75,87.06Z"/></svg>