<svg id="Layer_1" data-name="Layer 1" xmlns="http://www.w3.org/2000/svg" xmlns:xlink="http://www.w3.org/1999/xlink" viewBox="0 0 150 160"><defs><style>.cls-1,.cls-5{fill:none;}.cls-2,.cls-6{fill:#a6afff;}.cls-2,.cls-4,.cls-5{stroke:#fff;stroke-miterlimit:10;stroke-width:5px;}.cls-3{clip-path:url(#clip-path);}.cls-4{fill:#ccc;}.cls-7{fill:#95a4fc;}</style><clipPath id="clip-path"><path class="cls-1" d="M123.56,64.05c-5-8.67-18-20.74-31.88-22.24-2.65-.29-4.17-4.58-5.62-5.31-2.53-1.27-4.86,2-7.61,2.09-19.37-.54-37.91,10.52-47.12,17.55-4.22,3.22-15.69-.23-17,2.8-.39.92,2.35,8.91,10.6,12.43,4.21,1.78,6.84,27.91,23,36.54,6.25,4,4,10.39,8.31,11.67,3.29,1,6.42-7.18,11.79-8.33,28.8-6.19,53.52-26.84,55.43-32.19,2.69-4.11,9.89-4.46,10.39-7.46S126.52,69.19,123.56,64.05Z"/></clipPath></defs><g id="तकिया"><path class="cls-2" d="M123.56,64.05c-5-8.67-18-20.74-31.88-22.24-2.65-.29-4.17-4.58-5.62-5.31-2.53-1.27-4.86,2-7.61,2.09-19.37-.54-37.91,10.52-47.12,17.55-4.22,3.22-15.69-.23-17,2.8-.39.92,2.35,8.91,10.6,12.43,4.21,1.78,6.84,27.91,23,36.54,6.25,4,4,10.39,8.31,11.67,3.29,1,6.42-7.18,11.79-8.33,28.8-6.19,53.52-26.84,55.43-32.19,2.69-4.11,9.89-4.46,10.39-7.46S126.52,69.19,123.56,64.05Z"/><g class="cls-3"><path class="cls-4" d="M43.06,55.13c-4.4-1.33-8.62-1.46-15.24.44L29.76,57A43.43,43.43,0,0,1,43.06,55.13Z"/><path class="cls-4" d="M144.83,66.15H132.38c1.67,2.49,2.34,4.46,1.47,5.45-4.22,4.8-14.67-2.2-16.22,3.87-.25.94-14.47,24.24-23.08,12.29-1.56,3.62-4.63,14.76-21.76,16.92-1.41.17-3.29-2.51-3.86-5-2.9,8.82-9.93,18.92-14.19,19,0,0,5.84,6.63-.36,7.45s-1.27-10.51-1.27-10.51c-1.4-4.58-.75-9.5-2.83-13,0,0-6-5.68-7.48-9.54S37.48,86,35.55,84.16c-.36-.34-8.92-10.83-4.6-16.66-7.35,1.11-15.26-4.07-16.58-8.56-3.64,6.26,5.39,14.53,11,18.73L24,82.6l28.34,49.56S145.27,78.63,148,72.07C148.48,70.81,147.21,68.71,144.83,66.15Z"/><path class="cls-4" d="M90.32,41.56c-7.79-4.64-24.95-3.78-30.92-.14C67,39.62,80.28,38.66,90.32,41.56Z"/><path class="cls-4" d="M98.5,62.5c-12-9.73-27.81-13.28-45.56-5.5C68.17,52.83,83.27,54.84,98.5,62.5Z"/></g><path class="cls-5" d="M123.56,64.05c-5-8.67-18-20.74-31.88-22.24-2.65-.29-4.17-4.58-5.62-5.31-2.53-1.27-4.86,2-7.61,2.09-19.37-.54-37.91,10.52-47.12,17.55-4.22,3.22-15.69-.23-17,2.8-.39.92,2.35,8.91,10.6,12.43,4.21,1.78,6.84,27.91,23,36.54,6.25,4,4,10.39,8.31,11.67,3.29,1,6.42-7.18,11.79-8.33,28.8-6.19,53.52-26.84,55.43-32.19,2.69-4.11,9.89-4.46,10.39-7.46S126.52,69.19,123.56,64.05Z"/><path class="cls-6" d="M123.56,64.05c-5-8.67-18-20.74-31.88-22.24-2.65-.29-4.17-4.58-5.62-5.31-2.53-1.27-4.86,2-7.61,2.09-19.37-.54-37.91,10.52-47.12,17.55-4.22,3.22-15.69-.23-17,2.8-.39.92,2.35,8.91,10.6,12.43,4.21,1.78,6.84,27.91,23,36.54,6.25,4,4,10.39,8.31,11.67,3.29,1,6.42-7.18,11.79-8.33,28.8-6.19,53.52-26.84,55.43-32.19,2.69-4.11,9.89-4.46,10.39-7.46S126.52,69.19,123.56,64.05Z"/><g class="cls-3"><path class="cls-7" d="M43.06,55.13c-4.4-1.33-8.62-1.46-15.24.44L29.76,57A43.43,43.43,0,0,1,43.06,55.13Z"/><path class="cls-7" d="M144.83,66.15H132.38c1.67,2.49,2.34,4.46,1.47,5.45-4.22,4.8-14.67-2.2-16.22,3.87-.25.94-14.47,24.24-23.08,12.29-1.56,3.62-4.63,14.76-21.76,16.92-1.41.17-3.29-2.51-3.86-5-2.9,8.82-9.93,18.92-14.19,19,0,0,5.84,6.63-.36,7.45s-1.27-10.51-1.27-10.51c-1.4-4.58-.75-9.5-2.83-13,0,0-6-5.68-7.48-9.54S37.48,86,35.55,84.16c-.36-.34-8.92-10.83-4.6-16.66-7.35,1.11-15.26-4.07-16.58-8.56-3.64,6.26,5.39,14.53,11,18.73L24,82.6l28.34,49.56S145.27,78.63,148,72.07C148.48,70.81,147.21,68.71,144.83,66.15Z"/><path class="cls-7" d="M90.32,41.56c-7.79-4.64-24.95-3.78-30.92-.14C67,39.62,80.28,38.66,90.32,41.56Z"/><path class="cls-7" d="M98.5,62.5c-12-9.73-27.81-13.28-45.56-5.5C68.17,52.83,83.27,54.84,98.5,62.5Z"/></g></g></svg>