<svg id="बंदगोभी" xmlns="http://www.w3.org/2000/svg" viewBox="0 0 150 160"><defs><style>.cls-1{fill:#fff;stroke:#fff;stroke-miterlimit:10;stroke-width:5px;}.cls-2{fill:#75c441;}.cls-3{fill:#61b52a;}.cls-4{fill:#98e56a;}.cls-5{fill:#baf991;}.cls-6{fill:#89db53;}</style></defs><path class="cls-1" d="M66.6,119.39c-6.12,0-14.82-5.23-20.37-10.39a71.16,71.16,0,0,1-8.41-10l-6.16-8.33a25.63,25.63,0,0,1-3.41-5.56A8.61,8.61,0,0,1,28,78.7c1-2.34,3.44-4.15,3.24-6.73-.17-2.14-2.12-3.64-3.11-5.55a6.53,6.53,0,0,1,0-5.92c.94-1.78,2.85-4,4.82-4.11-1-3.07,1.2-6.74,4.27-7.07-1.65-3.65.18-8.47,3.74-9.86,1.71-.66,3.72-.63,5.2-1.74,1.3-1,1.94-2.6,3-3.88a9.86,9.86,0,0,1,7.35-3.35,29.5,29.5,0,0,1,8.25,1.19c2.07-2,5.81-2.44,8.52-1.46,1.44.52,2.74,1.46,4.21,1.83,2.36.59,4.74-.35,7.11-.74s5.29.07,6.4,2.33c.92,1.86.19,4.19,1,6.11s3.13,2.93,4.9,4.2a15.33,15.33,0,0,1,5.53,9,22,22,0,0,1-2.2,15.91C102.5,70.06,101.42,119.39,66.6,119.39Z"/><path class="cls-1" d="M45.93,83.61c3.3,7.81,11.09,15.48,18,20s19.47,6.91,28.61,6.81a80.38,80.38,0,0,0,15-2,14.36,14.36,0,0,0,3.74-8.82c.16-3-.59-6.25.68-8.8,1.78-3.58,6.92-4.52,8.89-8,2.72-4.79-1.75-11.53-1.48-17.28.12-2.49,1.14-4.73,1.36-7.2.36-4.13-1.16-11.73-4.37-15.24s-8-3-12.51-4.54c-3.6-1.22-5.85-5.45-9.52-6.06-2.4-.4-6.24,2.81-8.65,2.41-3.31-.56-6.71-1.11-9.79-.5-5.24,1-8.6,5.17-11.06,9.43s-4.45,9-8.34,12.07c-2.53,2-5.73,3.24-8.4,5.1C45.73,62.71,43.65,78.21,45.93,83.61Z"/><circle class="cls-1" cx="80.11" cy="86.06" r="41.71"/><path class="cls-1" d="M88.64,96.8a26.78,26.78,0,0,0-6.78,2.06A36.07,36.07,0,0,0,73,104.59a36.94,36.94,0,0,0-8.09,10.24l-.21.39-.09.17c-.34-.48-.7-1-1.06-1.45l-.54-.76-.5-.79c-.34-.54-.69-1.08-1-1.63s-.63-1.16-1-1.74a45.89,45.89,0,0,1-3.23-7.85l.35-.56.49-.8.28-.38,1-1.46c.75-.92,1.45-1.85,2.24-2.68s1.58-1.63,2.36-2.42,1.63-1.47,2.48-2.1A41.73,41.73,0,0,1,76.18,85c6-2.52,10.18-2.88,10.13-3.53,0-.26-1.07-.49-3-.48a29.13,29.13,0,0,0-8.08,1.34,37.26,37.26,0,0,0-11,5.45c-1,.65-1.87,1.43-2.81,2.2s-1.84,1.65-2.69,2.6-1.7,1.92-2.53,2.93l-.26.36c-.2-1.12-.39-2.26-.52-3.42a44.39,44.39,0,0,1,0-8.93A31.46,31.46,0,0,1,56,80l1-.69,1.22-.82c.88-.61,1.83-1.15,2.75-1.74a87.09,87.09,0,0,1,11.1-5.56,95.93,95.93,0,0,1,9.64-3.33c5.6-1.61,9.23-2.25,9.18-2.84s-3.79-.88-9.8.07a60.76,60.76,0,0,0-10.33,2.65,67.16,67.16,0,0,0-11.85,5.57l-1,.63a33.87,33.87,0,0,1,2.77-5.07,27.23,27.23,0,0,1,2.08-2.66c.37-.41.71-.81,1.07-1.2L65,64a35.68,35.68,0,0,1,8-5.37c2.09-1,3.28-1.59,3.2-1.87s-1.4-.16-3.76.41a27.79,27.79,0,0,0-9.22,4.65L61.8,62.85c-.43.39-.85.81-1.29,1.24A25.86,25.86,0,0,0,58,66.92c-.64.87-1.27,1.79-1.87,2.76.23-2.09.53-4,.84-5.74,1.08-5.71,2.23-9.21,1.68-9.44s-2.57,3-4.43,8.76a52.63,52.63,0,0,0-2.12,10.49c0,.25-.06.5-.07.76s-.05.64-.07,1c-.07,1-.07,1.94-.09,2.93s0,1.91,0,2.88c-.1.6-.2,1.2-.27,1.81a44.16,44.16,0,0,0-.09,9.83c0,.33.09.66.13,1a34.12,34.12,0,0,1-2.81-4.68,33.39,33.39,0,0,1-3-10.71,38,38,0,0,1-.2-4.34q0-1,.06-1.8c0-.55.1-1.06.13-1.52l0-.66.07-.57c0-.35,0-.66.06-.91,0-.51,0-.8-.18-.85s-.33.17-.59.61c-.14.22-.28.51-.45.84l-.25.56-.23.64c-.15.46-.31,1-.49,1.55s-.26,1.21-.4,1.89a28.36,28.36,0,0,0-.4,4.71,31.24,31.24,0,0,0,2.5,12.09,33.93,33.93,0,0,0,3.69,6.4l1.22,1.52c.42.5.9,1,1.35,1.46l.41.43c.2.2.45.41.68.62l.53.47a44.54,44.54,0,0,0,4,9.14l1.1,1.85.36.52c-.32-.18-.64-.37-1-.57a38.37,38.37,0,0,1-7.47-6.15,50.26,50.26,0,0,1-4.22-5.15c-.5-.63-.85-1.15-1.15-1.47s-.52-.48-.65-.42-.15.31-.09.75a9.8,9.8,0,0,0,.51,1.87,24.47,24.47,0,0,0,3.42,6.23,33.22,33.22,0,0,0,7.6,7.42,35.43,35.43,0,0,0,5.5,3.15l1.54.64.21.09.35.12.76.27.45.15.1.1a32.58,32.58,0,0,0,2.64,2.23,25.9,25.9,0,0,0,2.57,1.78,22.49,22.49,0,0,0,2.42,1.37c.79.36,1.5.74,2.19,1l1.92.66a9.82,9.82,0,0,0,1.56.41c.46.09.85.15,1.17.19.63.08,1,.05,1-.08s-.24-.37-.78-.69c-.27-.16-.61-.34-1-.55a13.26,13.26,0,0,1-1.36-.72l-1.67-.94c-.61-.35-1.22-.8-1.91-1.23a25,25,0,0,1-2.09-1.53,25.76,25.76,0,0,1-2.22-1.86,20.13,20.13,0,0,1-1.62-1.59l.52-1.11.15-.33.1-.17.19-.34a38.66,38.66,0,0,1,7-9.41,43.43,43.43,0,0,1,7.71-5.92c4.8-2.87,8.27-3.86,8.13-4.47C91.24,96.65,90.31,96.58,88.64,96.8Z"/><path class="cls-1" d="M80.11,44.35a42,42,0,0,0-7.83.75c5.46.64,6,3.76,7.83,4.36,3.18,1,9.41.72,12,2.81,2.26,1.8,2.54,5.2,4.39,7.43a13.87,13.87,0,0,1,3.15,7c.6,3.73-1.19,7.16-1.8,10.9-2,12.33-.51,18.63-11.76,32.37a76.32,76.32,0,0,0,29-1.2,41.7,41.7,0,0,0-35-64.4Z"/><path class="cls-1" d="M71.37,127.25c-1.12-7.41-1.53-15,0-22.35s5.16-14.4,11-19.07c4.63-3.68,10.43-5.45,16-7.58,8.59-3.32,18.57-11.83,26-8-5.42,8.18,3.7,16.93-5.91,32.24-4,15.84-9.19,23.38-26,25.32Q78.32,132.75,71.37,127.25Z"/><path class="cls-1" d="M116.17,110.1a34.93,34.93,0,0,1-4.7,4.8,33,33,0,0,1-3.29,2.43c-.6.38-1.22.78-1.85,1.14.31-.73.62-1.5.94-2.28.58-1.58,1.12-3.27,1.58-5a34.64,34.64,0,0,0,3.88-5,31.49,31.49,0,0,0,3.64-7.88,30.11,30.11,0,0,0,1.27-6.94c.24-4-.45-6.45-.77-6.41s-.4,2.45-1.11,6.18a38.07,38.07,0,0,1-5.29,13.61c-.15.25-.33.53-.51.8a52.59,52.59,0,0,0,.28-10.25c-.18-1.62-.31-3.16-.62-4.59-.14-.71-.25-1.4-.41-2s-.34-1.27-.5-1.87a29.62,29.62,0,0,0-1.06-3.15c-.17-.45-.32-.88-.49-1.26s-.36-.72-.51-1c-.63-1.23-1.05-1.86-1.22-1.79s-.08.84.24,2.14c.09.33.18.69.28,1.08s.17.83.28,1.29c.18.93.47,2,.63,3.14.11.58.21,1.19.32,1.83s.16,1.3.25,2c.2,1.38.25,2.86.35,4.41a63.43,63.43,0,0,1-.51,10.09c-.06.36-.13.71-.19,1.06a23.28,23.28,0,0,0-1.89-2.2,21.79,21.79,0,0,0-4-3.21c-2.43-1.51-4.1-1.9-4.21-1.65s1.24,1.18,3.25,3a29.91,29.91,0,0,1,3.29,3.39,24.76,24.76,0,0,1,1.68,2.27c.14.2.27.41.4.63s.22.33.5.86l.26.45c-.43,1.85-.92,3.63-1.45,5.28-.52,1.45-1,2.85-1.55,4.1a2.73,2.73,0,0,1-.5-.06,5.18,5.18,0,0,1-1.61-.73c-.54-.35-1.11-.8-1.66-1.21s-1.07-.85-1.58-1.28a57.52,57.52,0,0,1-5.12-4.84c-2.75-3-4.27-5-4.61-4.79s.67,2.61,3.16,6A39.89,39.89,0,0,0,96.42,118c.51.48,1,1,1.61,1.42s1.13.93,1.81,1.4a7.65,7.65,0,0,0,2.44,1.14l-.5,1c-.48,1.08-1,2-1.48,2.83a4.64,4.64,0,0,0-.23.44c.82-.25,1.61-.52,2.36-.81.33-.47.68-1,1-1.54l1-1.65c0-.08.09-.17.14-.26a5.65,5.65,0,0,0,.71-.17,11.64,11.64,0,0,0,2.38-1.09c.69-.41,1.35-.82,2-1.26a31.26,31.26,0,0,0,3.28-2.6A35,35,0,0,0,116.17,110.1Z"/><path class="cls-1" d="M71.37,127.25c-6.31-20.77,1.42-41.64,19.93-48.14s19.36-9.51,26.22-11.49c16.12-2.32,13,8.36,4.3,11.94-4.4,1.8-9.39,1-14.08.25,1.56,6.12-1.54,12.68-6.23,16.91s-10.76,6.55-16.72,8.65c-2.45.87-5.26,2.08-5.88,4.6-.39,1.6.25,3.24.61,4.84C80.61,119.61,74.86,123.79,71.37,127.25Z"/><path class="cls-1" d="M32.26,84.66c-2.43,37.49,19.62,52,59,43.51C82.14,113.05,47.18,120.76,32.26,84.66Z"/><path class="cls-1" d="M68.25,110.83c-3.43-.93-7-1.45-10.34-2.55s-6.66-2.89-8.72-5.79-2.71-6.74-4.59-9.85c-2-3.31-5.28-5.6-8.1-8.26s-5.48-8.17-5.23-12c-4.51,0-8.7,5.31-9.9,9.66A10.7,10.7,0,0,0,26,93.69c2.82,1.7,6.31,2,9.09,3.73,5.15,3.22,6.34,10.2,10.29,14.81,3.7,4.31,9.52,6.18,15.15,6.89s11.38.47,17,1.51C81.32,121.34,92,123,92,123s-1.66.87-6.06-2.67A49.33,49.33,0,0,0,68.25,110.83Z"/><path class="cls-2" d="M66.6,119.39c-6.12,0-14.82-5.23-20.37-10.39a71.16,71.16,0,0,1-8.41-10l-6.16-8.33a25.63,25.63,0,0,1-3.41-5.56A8.61,8.61,0,0,1,28,78.7c1-2.34,3.44-4.15,3.24-6.73-.17-2.14-2.12-3.64-3.11-5.55a6.53,6.53,0,0,1,0-5.92c.94-1.78,2.85-4,4.82-4.11-1-3.07,1.2-6.74,4.27-7.07-1.65-3.65.18-8.47,3.74-9.86,1.71-.66,3.72-.63,5.2-1.74,1.3-1,1.94-2.6,3-3.88a9.86,9.86,0,0,1,7.35-3.35,29.5,29.5,0,0,1,8.25,1.19c2.07-2,5.81-2.44,8.52-1.46,1.44.52,2.74,1.46,4.21,1.83,2.36.59,4.74-.35,7.11-.74s5.29.07,6.4,2.33c.92,1.86.19,4.19,1,6.11s3.13,2.93,4.9,4.2a15.33,15.33,0,0,1,5.53,9,22,22,0,0,1-2.2,15.91C102.5,70.06,101.42,119.39,66.6,119.39Z"/><path class="cls-3" d="M45.93,83.61c3.3,7.81,11.09,15.48,18,20s19.47,6.91,28.61,6.81a80.38,80.38,0,0,0,15-2,14.36,14.36,0,0,0,3.74-8.82c.16-3-.59-6.25.68-8.8,1.78-3.58,6.92-4.52,8.89-8,2.72-4.79-1.75-11.53-1.48-17.28.12-2.49,1.14-4.73,1.36-7.2.36-4.13-1.16-11.73-4.37-15.24s-8-3-12.51-4.54c-3.6-1.22-5.85-5.45-9.52-6.06-2.4-.4-6.24,2.81-8.65,2.41-3.31-.56-6.71-1.11-9.79-.5-5.24,1-8.6,5.17-11.06,9.43s-4.45,9-8.34,12.07c-2.53,2-5.73,3.24-8.4,5.1C45.73,62.71,43.65,78.21,45.93,83.61Z"/><circle class="cls-4" cx="80.11" cy="86.06" r="41.71"/><path class="cls-5" d="M88.64,96.8a26.78,26.78,0,0,0-6.78,2.06A36.07,36.07,0,0,0,73,104.59a36.94,36.94,0,0,0-8.09,10.24l-.21.39-.09.17c-.34-.48-.7-1-1.06-1.45l-.54-.76-.5-.79c-.34-.54-.69-1.08-1-1.63s-.63-1.16-1-1.74a45.89,45.89,0,0,1-3.23-7.85l.35-.56.49-.8.28-.38,1-1.46c.75-.92,1.45-1.85,2.24-2.68s1.58-1.63,2.36-2.42,1.63-1.47,2.48-2.1A41.73,41.73,0,0,1,76.18,85c6-2.52,10.18-2.88,10.13-3.53,0-.26-1.07-.49-3-.48a29.13,29.13,0,0,0-8.08,1.34,37.26,37.26,0,0,0-11,5.45c-1,.65-1.87,1.43-2.81,2.2s-1.84,1.65-2.69,2.6-1.7,1.92-2.53,2.93l-.26.36c-.2-1.12-.39-2.26-.52-3.42a44.39,44.39,0,0,1,0-8.93A31.46,31.46,0,0,1,56,80l1-.69,1.22-.82c.88-.61,1.83-1.15,2.75-1.74a87.09,87.09,0,0,1,11.1-5.56,95.93,95.93,0,0,1,9.64-3.33c5.6-1.61,9.23-2.25,9.18-2.84s-3.79-.88-9.8.07a60.76,60.76,0,0,0-10.33,2.65,67.16,67.16,0,0,0-11.85,5.57l-1,.63a33.87,33.87,0,0,1,2.77-5.07,27.23,27.23,0,0,1,2.08-2.66c.37-.41.71-.81,1.07-1.2L65,64a35.68,35.68,0,0,1,8-5.37c2.09-1,3.28-1.59,3.2-1.87s-1.4-.16-3.76.41a27.79,27.79,0,0,0-9.22,4.65L61.8,62.85c-.43.39-.85.81-1.29,1.24A25.86,25.86,0,0,0,58,66.92c-.64.87-1.27,1.79-1.87,2.76.23-2.09.53-4,.84-5.74,1.08-5.71,2.23-9.21,1.68-9.44s-2.57,3-4.43,8.76a52.63,52.63,0,0,0-2.12,10.49c0,.25-.06.5-.07.76s-.05.64-.07,1c-.07,1-.07,1.94-.09,2.93s0,1.91,0,2.88c-.1.6-.2,1.2-.27,1.81a44.16,44.16,0,0,0-.09,9.83c0,.33.09.66.13,1a34.12,34.12,0,0,1-2.81-4.68,33.39,33.39,0,0,1-3-10.71,38,38,0,0,1-.2-4.34q0-1,.06-1.8c0-.55.1-1.06.13-1.52l0-.66.07-.57c0-.35,0-.66.06-.91,0-.51,0-.8-.18-.85s-.33.17-.59.61c-.14.22-.28.51-.45.84l-.25.56-.23.64c-.15.46-.31,1-.49,1.55s-.26,1.21-.4,1.89a28.36,28.36,0,0,0-.4,4.71,31.24,31.24,0,0,0,2.5,12.09,33.93,33.93,0,0,0,3.69,6.4l1.22,1.52c.42.5.9,1,1.35,1.46l.41.43c.2.2.45.41.68.62l.53.47a44.54,44.54,0,0,0,4,9.14l1.1,1.85.36.52c-.32-.18-.64-.37-1-.57a38.37,38.37,0,0,1-7.47-6.15,50.26,50.26,0,0,1-4.22-5.15c-.5-.63-.85-1.15-1.15-1.47s-.52-.48-.65-.42-.15.31-.09.75a9.8,9.8,0,0,0,.51,1.87,24.47,24.47,0,0,0,3.42,6.23,33.22,33.22,0,0,0,7.6,7.42,35.43,35.43,0,0,0,5.5,3.15l1.54.64.21.09.35.12.76.27.45.15.1.1a32.58,32.58,0,0,0,2.64,2.23,25.9,25.9,0,0,0,2.57,1.78,22.49,22.49,0,0,0,2.42,1.37c.79.36,1.5.74,2.19,1l1.92.66a9.82,9.82,0,0,0,1.56.41c.46.09.85.15,1.17.19.63.08,1,.05,1-.08s-.24-.37-.78-.69c-.27-.16-.61-.34-1-.55a13.26,13.26,0,0,1-1.36-.72l-1.67-.94c-.61-.35-1.22-.8-1.91-1.23a25,25,0,0,1-2.09-1.53,25.76,25.76,0,0,1-2.22-1.86,20.13,20.13,0,0,1-1.62-1.59l.52-1.11.15-.33.1-.17.19-.34a38.66,38.66,0,0,1,7-9.41,43.43,43.43,0,0,1,7.71-5.92c4.8-2.87,8.27-3.86,8.13-4.47C91.24,96.65,90.31,96.58,88.64,96.8Z"/><path class="cls-6" d="M80.11,44.35a42,42,0,0,0-7.83.75c5.46.64,6,3.76,7.83,4.36,3.18,1,9.41.72,12,2.81,2.26,1.8,2.54,5.2,4.39,7.43a13.87,13.87,0,0,1,3.15,7c.6,3.73-1.19,7.16-1.8,10.9-2,12.33-.51,18.63-11.76,32.37a76.32,76.32,0,0,0,29-1.2,41.7,41.7,0,0,0-35-64.4Z"/><path class="cls-6" d="M71.37,127.25c-1.12-7.41-1.53-15,0-22.35s5.16-14.4,11-19.07c4.63-3.68,10.43-5.45,16-7.58,8.59-3.32,18.57-11.83,26-8-5.42,8.18,3.7,16.93-5.91,32.24-4,15.84-9.19,23.38-26,25.32Q78.32,132.75,71.37,127.25Z"/><path class="cls-5" d="M116.17,110.1a34.93,34.93,0,0,1-4.7,4.8,33,33,0,0,1-3.29,2.43c-.6.38-1.22.78-1.85,1.14.31-.73.62-1.5.94-2.28.58-1.58,1.12-3.27,1.58-5a34.64,34.64,0,0,0,3.88-5,31.49,31.49,0,0,0,3.64-7.88,30.11,30.11,0,0,0,1.27-6.94c.24-4-.45-6.45-.77-6.41s-.4,2.45-1.11,6.18a38.07,38.07,0,0,1-5.29,13.61c-.15.25-.33.53-.51.8a52.59,52.59,0,0,0,.28-10.25c-.18-1.62-.31-3.16-.62-4.59-.14-.71-.25-1.4-.41-2s-.34-1.27-.5-1.87a29.62,29.62,0,0,0-1.06-3.15c-.17-.45-.32-.88-.49-1.26s-.36-.72-.51-1c-.63-1.23-1.05-1.86-1.22-1.79s-.08.84.24,2.14c.09.33.18.69.28,1.08s.17.83.28,1.29c.18.93.47,2,.63,3.14.11.58.21,1.19.32,1.83s.16,1.3.25,2c.2,1.38.25,2.86.35,4.41a63.43,63.43,0,0,1-.51,10.09c-.06.36-.13.71-.19,1.06a23.28,23.28,0,0,0-1.89-2.2,21.79,21.79,0,0,0-4-3.21c-2.43-1.51-4.1-1.9-4.21-1.65s1.24,1.18,3.25,3a29.91,29.91,0,0,1,3.29,3.39,24.76,24.76,0,0,1,1.68,2.27c.14.2.27.41.4.63s.22.33.5.86l.26.45c-.43,1.85-.92,3.63-1.45,5.28-.52,1.45-1,2.85-1.55,4.1a2.73,2.73,0,0,1-.5-.06,5.18,5.18,0,0,1-1.61-.73c-.54-.35-1.11-.8-1.66-1.21s-1.07-.85-1.58-1.28a57.52,57.52,0,0,1-5.12-4.84c-2.75-3-4.27-5-4.61-4.79s.67,2.61,3.16,6A39.89,39.89,0,0,0,96.42,118c.51.48,1,1,1.61,1.42s1.13.93,1.81,1.4a7.65,7.65,0,0,0,2.44,1.14l-.5,1c-.48,1.08-1,2-1.48,2.83a4.64,4.64,0,0,0-.23.44c.82-.25,1.61-.52,2.36-.81.33-.47.68-1,1-1.54l1-1.65c0-.08.09-.17.14-.26a5.65,5.65,0,0,0,.71-.17,11.64,11.64,0,0,0,2.38-1.09c.69-.41,1.35-.82,2-1.26a31.26,31.26,0,0,0,3.28-2.6A35,35,0,0,0,116.17,110.1Z"/><path class="cls-2" d="M71.37,127.25c-6.31-20.77,1.42-41.64,19.93-48.14s19.36-9.51,26.22-11.49c16.12-2.32,13,8.36,4.3,11.94-4.4,1.8-9.39,1-14.08.25,1.56,6.12-1.54,12.68-6.23,16.91s-10.76,6.55-16.72,8.65c-2.45.87-5.26,2.08-5.88,4.6-.39,1.6.25,3.24.61,4.84C80.61,119.61,74.86,123.79,71.37,127.25Z"/><path class="cls-2" d="M28,81.76c4.21,37.53,23.89,54.87,63.31,46.41C82.14,113.05,42.91,117.86,28,81.76Z"/><path class="cls-3" d="M68.25,110.83c-3.43-.93-7-1.45-10.34-2.55s-6.66-2.89-8.72-5.79-2.71-6.74-4.59-9.85c-2-3.31-5.28-5.6-8.1-8.26s-5.48-8.17-5.23-12c-4.51,0-8.7,5.31-9.9,9.66A10.7,10.7,0,0,0,26,93.69c2.82,1.7,6.31,2,9.09,3.73,5.15,3.22,6.34,10.2,10.29,14.81,3.7,4.31,9.52,6.18,15.15,6.89s11.38.47,17,1.51c3.8.71,13.78,7.54,13.78,7.54a15.6,15.6,0,0,0-5.38-7.83A49.33,49.33,0,0,0,68.25,110.83Z"/></svg>