<svg id="खरगोश" xmlns="http://www.w3.org/2000/svg" viewBox="0 0 150 160"><defs><style>.cls-1{fill:#fff;}.cls-2{fill:#693d29;}.cls-3{fill:#ddbbad;}.cls-4{fill:#9b5c41;}.cls-5{fill:#ce9f89;}.cls-6{fill:#0a0502;}.cls-7{fill:#23160c;}</style></defs><path class="cls-1" d="M129.43,94.06l-.17-3.33-.58.33c-1.56-3.47-2.16-6.72-4.92-9.6-.85-2.12-2.31-4.57-4.17-5.31-1.87-1.12-3.93-3.35-6.2-3.31-1.29-.12-2.25-2-3.3-2.6-.21-8.18-1.14-17.66-6.22-24.47C101.4,42.16,91,34,92.25,44.24c-2.38-1.15-2.77-3.23-5.15-4.48-2.6-.71-4.39,2.36-4.53,4.27,1.33,7.29,1.57,15.43,4.92,22.37C56.7,50.89,28.2,55.12,24.41,94.4h-.54l0,0c-1.24.06-2.67.06-3.69.9-.23.21-2.35-.9-2.58-1-.36,1.67-.67,4.49.83,5.51a10.47,10.47,0,0,0,3.25,5l-2.17,1c1.86.39,6.18,1.62,8,1.89,2.56,5.79,17.65,5.6,23.56,7.5,3.22.44,8.13,3.52,10.91,1.44,2.37-.18,4.68-2.19,4.32-4.72,7.93-.45,15.8,1.32,23.6,2.63,4.15.28,8,4.67,12,2,1.83.11,3.79.06,5.36-1.32,4.55.49,6.5-2.56,4.28-6.91l-.42.2-.37-.37c2.66,0,5.67-1.4,6.52-4.14l.56.12,0-1C121.78,103.89,130.14,98.53,129.43,94.06Z"/><path class="cls-2" d="M108.18,72.69c-.31-3.34.32-6.91-.59-10.32-.45-1.64-.72-3.34-1.14-5a48.16,48.16,0,0,0-1.23-5c-.62-1.7-1-3.23-2.26-4.61-1-1.13-2-2.25-3.14-3.3a16,16,0,0,0-3.58-2.72c-.56-.29-1.53-.87-2-.37s-.17,1.82-.08,2.36c.27,1.62,1.33,2.77,1.51,4.45a17.54,17.54,0,0,1-.18,2.59,27.63,27.63,0,0,0,.17,3.85,18.09,18.09,0,0,0,.65,3.55c.32,1,.7,2.06,1,3.11s.54,2,.73,3,.1,1.92.27,2.86a14.09,14.09,0,0,0,6.81,9.27"/><path class="cls-2" d="M32.89,101.7a12.37,12.37,0,0,0-5.09-4.56,7.85,7.85,0,0,0-3.28-.74c-.52,0-1,0-1.57,0a3.32,3.32,0,0,0-1.51.39c.11,0,.22.13.33.16a5.7,5.7,0,0,1-2.57.26c-.08.57.79,1.3,1.1,1.73s.45.64.7,1a7.27,7.27,0,0,1,.82,1,2.83,2.83,0,0,0-.92-.1,5.46,5.46,0,0,0,1,1.32,8.66,8.66,0,0,0,1.35,1.42,7,7,0,0,0,3.31,1.26,5.76,5.76,0,0,0-1.14.45c.66.15,1.27.37,2,.48a9.36,9.36,0,0,0,2.42,0c1.54-.18,3.08-.66,4.6-1C34,103.37,32.77,102.19,32,101"/><path class="cls-3" d="M27.37,105.76a9.36,9.36,0,0,0,2.42,0,24.39,24.39,0,0,0,2.78-.55,1.15,1.15,0,0,0,.2-.59,15.11,15.11,0,0,0-1.78,0,9.71,9.71,0,0,1-1.61-.13,4.33,4.33,0,0,1-2.66-1,1.43,1.43,0,0,1,.5-.18,10.75,10.75,0,0,1-2.37-1.52,2.25,2.25,0,0,1,.62-.17,1.57,1.57,0,0,0,.53-.27c-.37-.3-.77-.56-1.15-.84s-.68-.61-1.06-.89c.22,0,.62,0,.78-.11a3.48,3.48,0,0,1-1.09-.75,13,13,0,0,1-1-1,4.26,4.26,0,0,0,1.27-.44c-.24-.29-.44-.63-.66-.95H23a3.32,3.32,0,0,0-1.51.39c.11,0,.22.13.33.16a5.7,5.7,0,0,1-2.57.26c-.08.57.79,1.3,1.1,1.73s.45.64.7,1a7.27,7.27,0,0,1,.82,1,2.83,2.83,0,0,0-.92-.1,5.46,5.46,0,0,0,1,1.32,8.66,8.66,0,0,0,1.35,1.42,7,7,0,0,0,3.31,1.26,5.76,5.76,0,0,0-1.14.45C26.06,105.43,26.67,105.65,27.37,105.76Z"/><path class="cls-4" d="M127.28,93c-.41-1.59-1.52-2.85-1.82-4.53a7.49,7.49,0,0,0-1.91-4c-.51-.6-1-1.28-1.42-1.91a7.6,7.6,0,0,1-1-2c-.55-1.56-1.63-2.11-3-3-1.19-.76-2.37-1.85-3.6-2.48a7.42,7.42,0,0,0-2.11-.4,3.84,3.84,0,0,1-1.74-1.19,27.9,27.9,0,0,0-3-2.7c-1.28-1-3.17-.25-4.57,0a29.48,29.48,0,0,1-5.07.71,17.89,17.89,0,0,1-4.57-.85,37.53,37.53,0,0,1-4.22-1.35c-1.5-.58-2.85-1.3-4.34-1.92a4.42,4.42,0,0,0-2.09-.5c-1.65-.71-3.25-1.48-4.93-2.15-2-.82-4.06-1.79-6.12-2.64A28.59,28.59,0,0,0,65,60.35a42.44,42.44,0,0,0-6.88-.28,41.76,41.76,0,0,0-7,.26,29.63,29.63,0,0,0-12.81,5.94,23.71,23.71,0,0,0-2.74,2.45,21.21,21.21,0,0,0-2.5,3.65,38.12,38.12,0,0,0-3.33,7,47.64,47.64,0,0,0-1.87,7c-.24,1.2-.45,2.4-.65,3.6s-.55,2.3-.7,3.45c-.05.45-.13.92-.2,1.37-.15.94-.17,1.86-.23,2.8a8.74,8.74,0,0,0,.29,3,8.37,8.37,0,0,0,.43,1.31A6.37,6.37,0,0,0,29,104.1l.06.35c.14.78.16,1.74.34,2.56.34,1.61,2.66,2.57,4.12,2.8,1.66.27,3.25.39,4.89.8,1.8.45,3.6,1,5.38,1.39,3.55.75,7.2.88,10.59,2.16a35.18,35.18,0,0,0,4.73,1.11,4,4,0,0,0,1,.26c.59,0,.21-.27.63-.59.21-.17,1-.16,1.23-.23a6.1,6.1,0,0,0,1.14-.38A2,2,0,0,0,64.27,112a9,9,0,0,1-.34-1.47c0-.08,0-.16,0-.24a9.88,9.88,0,0,1,1.11-.19,68.87,68.87,0,0,1,11,.17l.76.06a25.21,25.21,0,0,0,2.73.65c1.13.19,2.24.23,3.4.47s2.42.38,3.61.53a31.91,31.91,0,0,1,3.78.72,25.12,25.12,0,0,1,4,1.15c1.15.48,2.3.86,3.41,1.4a2.73,2.73,0,0,0,3.1-.34,2,2,0,0,1,1.49-.2,7.11,7.11,0,0,0,1.71-.1,4.13,4.13,0,0,0,1.52-.5c.26-.16.37-.44.59-.63s.46-.16.82-.14c.94,0,2.55.17,3.2-.63s-.14-2.27-.78-2.89a10.07,10.07,0,0,0-3.49-2.25c-.8-.28-1.67-.38-2.5-.64l-.55-.17a15.54,15.54,0,0,1,2.83-.36c.9,0,1.75.1,2.66.08a17.27,17.27,0,0,0,2.56-.28,7.48,7.48,0,0,0,2.62-.55,4.8,4.8,0,0,0,1.83-2.33,3.68,3.68,0,0,0,.15-2.5,2.07,2.07,0,0,0-.1-.33,10.18,10.18,0,0,0,2.27.7,6.77,6.77,0,0,0,5-1.31A24.55,24.55,0,0,1,126,97.35C127.43,96.65,127.64,94.45,127.28,93Z"/><path class="cls-2" d="M93.44,70.7l-.15,0c-1.14,4.15.15,6,.15,6-.37,5.2,4.77,7.92,4.77,7.92-4.65-5.15-3.81-8-3.81-8A6.89,6.89,0,0,1,94.49,71C94.15,70.88,93.8,70.78,93.44,70.7Z"/><path class="cls-3" d="M113.77,100.4a6.41,6.41,0,0,0-1.25-.38c0,.45.1.91.08,1.36a3.44,3.44,0,0,1-.35,1.29c-.11-.17-.2-.51-.3-.7.07.4-.33,1-.49,1.29a4.3,4.3,0,0,1-.83,1.27,2.45,2.45,0,0,0-.11-.5,6.35,6.35,0,0,1-4,2.37c.64,0,1.27.09,1.92.08a17.27,17.27,0,0,0,2.56-.28,7.48,7.48,0,0,0,2.62-.55,4.8,4.8,0,0,0,1.83-2.33,3.73,3.73,0,0,0,.2-2.32,3.49,3.49,0,0,1-.42-.13C114.71,100.7,114.25,100.55,113.77,100.4Z"/><path class="cls-2" d="M70.19,110c1.12,0,2.23.08,3.34.15A28.55,28.55,0,0,1,70.06,107c-4.44-4.21,2.64-12.72,2.64-12.72C64.79,102.17,67.33,107.29,70.19,110Z"/><path class="cls-2" d="M58.87,103.48c-4.21-8.64-11-8.4-11-8.4,6.47,1.22,10.24,9.11,10.24,9.11,5.44,1.79,5.8,5.17,5.8,6.1a9.71,9.71,0,0,1,1.1-.19C64.41,104.78,58.87,103.48,58.87,103.48Z"/><path class="cls-3" d="M59.06,115.27a4,4,0,0,0,1,.26c.59,0,.21-.27.63-.59.21-.17,1-.16,1.23-.23a6.1,6.1,0,0,0,1.14-.38,2,2,0,0,0,1.18-2.19,2.17,2.17,0,0,1-1.6,1.16c-.81-.8-3.1-1.12-3.1-1.12a2.22,2.22,0,0,1,.13,1.41c-7.68-1.31-9.06-4.45-9.06-4.45a6.54,6.54,0,0,0,.74,4.17,21.75,21.75,0,0,1,2.93.85A35.18,35.18,0,0,0,59.06,115.27Z"/><path class="cls-3" d="M110.23,112.71a1.48,1.48,0,0,0,.14-1.47c-1.06,1.16-5.08.56-5.08.56a4.71,4.71,0,0,1,.5.69c.15,2.17-5.35,1-5.35,1-.14,1.45-2.21,1.46-4,1.19.44.18.89.37,1.33.58a2.73,2.73,0,0,0,3.1-.34,2,2,0,0,1,1.49-.2,7.11,7.11,0,0,0,1.71-.1,4.13,4.13,0,0,0,1.52-.5c.26-.16.37-.44.59-.63s.46-.16.82-.14C108,113.39,109.58,113.51,110.23,112.71Z"/><path class="cls-2" d="M107.32,95.33s1.6,5.1,8.39,6.45a4,4,0,0,0-.15-1,2.07,2.07,0,0,0-.1-.33S110.28,99.32,107.32,95.33Z"/><path class="cls-4" d="M103.27,75.46a6,6,0,0,0,2-1.1,3.66,3.66,0,0,0,.88-2.16c.14-.88-.26-1.35-.67-2.09a9.16,9.16,0,0,1-.56-2.73c-.21-1.18-.17-2.38-.48-3.52s-.77-2.3-1.2-3.46a29.54,29.54,0,0,0-1.73-3.24,16.57,16.57,0,0,0-1.83-3c-.77-.92-1.61-1.85-2.41-2.77-.45-.52-.94-1-1.4-1.51a20,20,0,0,0-1.33-1.57,28.26,28.26,0,0,0-3.37-2.36A22.22,22.22,0,0,1,88.7,44a9.14,9.14,0,0,1-1.19-1.22c-.26-.35-.45-1-.92-1.1-1.1-.3-1.89,1.62-2,2.39A7,7,0,0,0,85,47.53a10.58,10.58,0,0,1,1,3.18c.05,1.17-.13,2.31,0,3.5a44.82,44.82,0,0,0,1.54,7,22.69,22.69,0,0,0,3,6.57,8.67,8.67,0,0,0,2,2.15c.49.38.27.8.37,1.37a9.35,9.35,0,0,0,.4,1.68c.37,1,1.74,1.86,2.7,2.31a9.51,9.51,0,0,0,3.51.85A9.06,9.06,0,0,0,103.27,75.46Z"/><path class="cls-5" d="M100.13,66.78a7.71,7.71,0,0,0-.63-3.64c-.58-1.25-1.39-2.38-2-3.65-1.21-2.7-1.49-5.62-2.88-8.21-1.08-2-3.08-3.1-4.57-4.76a15,15,0,0,1-2.46-3.58l-.12-.14c-.26-.35-.45-1-.92-1.1-1.1-.3-1.89,1.62-2,2.39v0a13.13,13.13,0,0,0,1.06,3,12.06,12.06,0,0,1,.9,3.12c.11,1.17.15,2.38.36,3.53s.26,2.49.5,3.73c.44,2.28.77,4.71,2,6.71.63,1,1.23,2,1.91,2.88a16,16,0,0,1,1.84,2.59c.37.77.73,2,1.5,2.51a5,5,0,0,0,1.48.36,4.25,4.25,0,0,0,1.7-.05c1.29-.3,1.51-1.53,1.67-2.59S100.06,67.84,100.13,66.78Z"/><path class="cls-3" d="M99.85,68.4a7.85,7.85,0,0,0-.75-2.17,7.3,7.3,0,0,0-.75-1.12c-.28-.32-.88-.83-.92-1.25.12,0,.26-.06.39,0a10.83,10.83,0,0,1-1.26-2,6.93,6.93,0,0,1-1.07-2.52.89.89,0,0,1,.39.09,29.54,29.54,0,0,1-1.48-3,11.15,11.15,0,0,1-.44-1.6,5.63,5.63,0,0,1-.37-1.6.7.7,0,0,1,.51.29c-.24-.35-.38-.87-.62-1.29a8.79,8.79,0,0,0-1-1.37c-.75-.88-1.76-1.5-2.55-2.33s-1.46-1.57-2.12-2.41A11,11,0,0,1,86,43.9a3.91,3.91,0,0,0,.5,1.19,12.15,12.15,0,0,1,.66,1.09c.15.42,0,1,0,1.43A6.46,6.46,0,0,0,87.52,49a11.45,11.45,0,0,1,.93,2.67,5.91,5.91,0,0,0,.62,2.78,1,1,0,0,0-.47-.07,7.13,7.13,0,0,1,1.23,3.35c.11.63.27,1.26.33,1.9a15,15,0,0,0,.43,1.58.88.88,0,0,1-.45-.27c0,.06.1.1.1.18a6.61,6.61,0,0,0,1.61,3.18,14.38,14.38,0,0,1,1.9,2.82,13.42,13.42,0,0,1,.69,3.49A5.19,5.19,0,0,0,95,72.22l.12.21c.34.09.75.12,1.08.19a4.25,4.25,0,0,0,1.7-.05c1.29-.3,1.51-1.53,1.67-2.59C99.59,69.47,99.73,68.93,99.85,68.4Z"/><path class="cls-6" d="M125.81,94.68a.76.76,0,0,0-.68.71c-.09.43-.39.59-.38,1a3,3,0,0,0,.38,1.47,7.65,7.65,0,0,1,.91-.56c1.08-.54,1.45-2,1.39-3.26A4.45,4.45,0,0,1,125.81,94.68Z"/><path class="cls-2" d="M96.16,106.38a31.71,31.71,0,0,1,6.75.38,16.36,16.36,0,0,1,1.86-.29,32.68,32.68,0,0,0-8.14-.79,14.11,14.11,0,0,0-10.46-6.15C93.55,101.53,96.16,106.38,96.16,106.38Z"/><path class="cls-2" d="M88.55,97.81s3.61,1.48,4.4,5l1.07-.1A7.42,7.42,0,0,0,88.55,97.81Z"/><path class="cls-2" d="M68.41,94.73s-3.24,5.49-.27,8.76L67.93,105S63.73,101.5,68.41,94.73Z"/><path class="cls-2" d="M35.14,100.2s-4.38-2-6.8,3.42c.2.17.41.33.61.48C29,104.1,30.35,99.36,35.14,100.2Z"/><path class="cls-3" d="M108.91,81a8,8,0,0,0,.22,2.23s-.71-.37-.76-.64c0,0-.37,3.19,1.85,4.53l-.55,0s1.41,1.07,5,1.14l-.63.3a7.87,7.87,0,0,0,2.46-.24l-.43.51s2.45.39,2-2.54l.38.3s-1-3.38-2.9-4.64l.27.72a13,13,0,0,0-3.23-1.58l.17.58A7.5,7.5,0,0,0,108.91,81Z"/><path class="cls-6" d="M110.49,83.12s-.4,4.34,4.3,3.56C114.79,86.68,116,81.36,110.49,83.12Z"/><path class="cls-7" d="M114.36,84.49a1.55,1.55,0,1,1-3.09.3,1.55,1.55,0,0,1,3.09-.3Z"/><path class="cls-6" d="M113.64,84.56a.83.83,0,1,1-.91-.75A.84.84,0,0,1,113.64,84.56Z"/><path class="cls-3" d="M113.58,84a.33.33,0,1,1-.66.07.34.34,0,0,1,.29-.37A.35.35,0,0,1,113.58,84Z"/></svg>