<svg id="झंडा" xmlns="http://www.w3.org/2000/svg" viewBox="0 0 150 160"><defs><style>.cls-1,.cls-8{fill:#a37d73;}.cls-1,.cls-2,.cls-3,.cls-4,.cls-5,.cls-6,.cls-7{stroke:#fff;stroke-miterlimit:10;stroke-width:5px;}.cls-1,.cls-10,.cls-11,.cls-12,.cls-13,.cls-14,.cls-2,.cls-3,.cls-4,.cls-5,.cls-6,.cls-7,.cls-8,.cls-9{fill-rule:evenodd;}.cls-2,.cls-9{fill:#170603;}.cls-10,.cls-3{fill:#bd9585;}.cls-11,.cls-4{fill:#53362b;}.cls-12,.cls-5{fill:#6f3e31;}.cls-13,.cls-6{fill:#009844;}.cls-14,.cls-7{fill:#007a3c;}</style></defs><polygon class="cls-1" points="45.63 25.4 54.67 25.4 54.67 139.32 54.67 140.76 54.63 140.8 54.62 140.81 54.57 140.85 54.56 140.86 54.52 140.89 54.49 140.92 54.47 140.93 54.42 140.97 54.31 141.05 54.26 141.08 54.25 141.09 54.2 141.12 54.17 141.14 54.14 141.16 54.08 141.19 54.08 141.2 54.02 141.23 53.99 141.25 53.95 141.27 53.9 141.3 53.89 141.3 53.82 141.34 53.81 141.34 53.76 141.37 53.71 141.4 53.69 141.41 53.62 141.44 53.62 141.44 53.55 141.47 53.51 141.49 53.48 141.5 53.41 141.53 53.41 141.54 53.33 141.57 53.3 141.58 53.26 141.6 53.2 141.62 53.18 141.63 53.11 141.66 53.09 141.66 53.03 141.69 52.98 141.71 52.95 141.71 52.87 141.74 52.86 141.74 52.79 141.77 52.74 141.78 52.71 141.79 52.63 141.82 52.63 141.82 52.54 141.84 52.51 141.85 52.46 141.87 52.38 141.89 52.37 141.89 52.28 141.91 52.26 141.92 52.2 141.94 52.13 141.95 52.11 141.96 52.02 141.98 52.01 141.98 51.93 142 51.88 142.01 51.84 142.02 51.75 142.04 51.74 142.04 51.66 142.06 51.61 142.06 51.56 142.07 51.48 142.09 51.47 142.09 51.37 142.1 51.34 142.11 51.28 142.12 51.2 142.13 51.18 142.13 51.09 142.15 51.06 142.15 50.99 142.16 50.92 142.17 50.89 142.17 50.79 142.19 50.78 142.19 50.69 142.2 50.64 142.2 50.59 142.21 50.5 142.21 50.49 142.21 50.39 142.22 50.35 142.22 50.29 142.23 50.2 142.23 50.19 142.24 50.08 142.24 50.05 142.24 49.91 142.25 49.88 142.25 49.77 142.25 49.76 142.25 49.66 142.25 49.61 142.26 49.56 142.26 49.45 142.26 49.38 142.26 49.32 142.26 49.3 142.26 49.25 142.26 49.18 142.25 49.15 142.25 49.11 142.25 49.05 142.25 49 142.25 48.98 142.25 48.91 142.25 48.85 142.24 48.85 142.24 48.78 142.24 48.71 142.24 48.7 142.23 48.65 142.23 48.58 142.23 48.56 142.22 48.52 142.22 48.45 142.22 48.41 142.21 48.38 142.21 48.32 142.21 48.27 142.2 48.26 142.2 48.19 142.19 48.13 142.19 48.12 142.19 48.06 142.18 48 142.17 47.94 142.16 47.87 142.16 47.84 142.15 47.81 142.15 47.75 142.14 47.7 142.13 47.69 142.13 47.62 142.12 47.57 142.11 47.56 142.11 47.5 142.1 47.44 142.09 47.43 142.09 47.38 142.08 47.32 142.07 47.3 142.06 47.26 142.06 47.2 142.04 47.16 142.04 47.14 142.03 47.08 142.02 47.02 142.01 46.96 142 46.91 141.98 46.85 141.97 46.79 141.96 46.77 141.95 46.73 141.94 46.68 141.93 46.65 141.92 46.62 141.91 46.56 141.9 46.51 141.88 46.45 141.87 46.4 141.85 46.4 141.85 46.35 141.84 46.29 141.82 46.24 141.81 46.19 141.79 45.98 141.72 45.93 141.71 45.93 141.7 45.88 141.68 45.83 141.66 45.77 141.65 45.73 141.63 45.68 141.61 45.63 141.59 45.63 139.25 45.63 25.4"/><path class="cls-2" d="M45.63,25.4h9v.8a7.4,7.4,0,0,1-9,0Z"/><polygon class="cls-3" points="50.15 25.4 45.63 25.4 45.63 139.32 45.63 140.76 45.67 140.8 45.67 140.8 45.72 140.84 45.74 140.86 45.76 140.88 45.8 140.91 45.81 140.92 45.85 140.95 45.9 140.98 45.95 141.02 46 141.05 46.05 141.09 46.05 141.09 46.1 141.12 46.13 141.14 46.15 141.15 46.2 141.19 46.21 141.19 46.26 141.22 46.3 141.25 46.32 141.25 46.37 141.28 46.39 141.3 46.43 141.31 46.49 141.34 46.49 141.35 46.55 141.38 46.58 141.4 46.61 141.41 46.67 141.44 46.68 141.44 46.73 141.47 46.78 141.49 46.8 141.5 46.86 141.52 46.89 141.53 46.93 141.55 46.99 141.58 46.99 141.58 47.06 141.61 47.1 141.62 47.13 141.63 47.2 141.66 47.21 141.66 47.27 141.69 47.32 141.71 47.34 141.71 47.41 141.73 47.44 141.74 47.48 141.76 47.55 141.78 47.55 141.78 47.63 141.81 47.67 141.82 47.7 141.83 47.78 141.85 47.79 141.85 47.85 141.87 47.91 141.89 47.93 141.89 48.01 141.91 48.04 141.92 48.09 141.93 48.16 141.95 48.17 141.95 48.24 141.97 48.29 141.98 48.33 141.99 48.41 142.01 48.42 142.01 48.49 142.03 48.55 142.04 48.57 142.04 48.65 142.06 48.69 142.06 48.74 142.07 48.82 142.09 48.91 142.1 48.96 142.11 48.99 142.12 49.08 142.13 49.09 142.13 49.16 142.14 49.23 142.15 49.25 142.15 49.34 142.16 49.43 142.18 49.52 142.19 49.52 142.19 49.6 142.19 49.69 142.2 49.78 142.21 49.8 142.21 49.87 142.22 49.95 142.22 49.97 142.23 50.06 142.23 50.09 142.23 50.15 142.24 50.15 139.28 50.15 25.4"/><path class="cls-4" d="M50.15,25.4H45.63v.8a7.41,7.41,0,0,0,4.52,1.54Z"/><path class="cls-1" d="M50.15,12.25a7.4,7.4,0,1,1-7.4,7.4A7.39,7.39,0,0,1,50.15,12.25Z"/><path class="cls-3" d="M46.44,26a7.39,7.39,0,1,1,7.42-12.79Z"/><path class="cls-4" d="M57.54,19.65a7.4,7.4,0,0,1-14.79,0c0,5.27,6.74,5.75,7.37,5.75C52.59,25.4,57.54,24.43,57.54,19.65Z"/><path class="cls-5" d="M42.75,19.65A7.39,7.39,0,0,0,50.15,27V25.4C47.66,25.39,42.75,23.88,42.75,19.65Z"/><path class="cls-6" d="M45.63,27a10.71,10.71,0,0,0,4.52,1.14A8.32,8.32,0,0,0,54.67,27h51.44l-6.8,21.58,6.8,21.57H54.67a10.72,10.72,0,0,1-4.52,1.14,12.06,12.06,0,0,1-4.52-1.14Z"/><path class="cls-7" d="M50.15,28.18h0A8.32,8.32,0,0,0,54.67,27V70.19h0a10.68,10.68,0,0,1-4.52,1.14Z"/><polygon class="cls-7" points="90.33 27.04 106.11 27.04 99.31 48.62 106.11 70.19 70.06 70.19 90.33 27.04"/><polygon class="cls-8" points="45.63 25.4 54.67 25.4 54.67 139.32 54.67 140.76 54.63 140.8 54.62 140.81 54.57 140.85 54.56 140.86 54.52 140.89 54.49 140.92 54.47 140.93 54.42 140.97 54.31 141.05 54.26 141.08 54.25 141.09 54.2 141.12 54.17 141.14 54.14 141.16 54.08 141.19 54.08 141.2 54.02 141.23 53.99 141.25 53.95 141.27 53.9 141.3 53.89 141.3 53.82 141.34 53.81 141.34 53.76 141.37 53.71 141.4 53.69 141.41 53.62 141.44 53.62 141.44 53.55 141.47 53.51 141.49 53.48 141.5 53.41 141.53 53.41 141.54 53.33 141.57 53.3 141.58 53.26 141.6 53.2 141.62 53.18 141.63 53.11 141.66 53.09 141.66 53.03 141.69 52.98 141.71 52.95 141.71 52.87 141.74 52.86 141.74 52.79 141.77 52.74 141.78 52.71 141.79 52.63 141.82 52.63 141.82 52.54 141.84 52.51 141.85 52.46 141.87 52.38 141.89 52.37 141.89 52.28 141.91 52.26 141.92 52.2 141.94 52.13 141.95 52.11 141.96 52.02 141.98 52.01 141.98 51.93 142 51.88 142.01 51.84 142.02 51.75 142.04 51.74 142.04 51.66 142.06 51.61 142.06 51.56 142.07 51.48 142.09 51.47 142.09 51.37 142.1 51.34 142.11 51.28 142.12 51.2 142.13 51.18 142.13 51.09 142.15 51.06 142.15 50.99 142.16 50.92 142.17 50.89 142.17 50.79 142.19 50.78 142.19 50.69 142.2 50.64 142.2 50.59 142.21 50.5 142.21 50.49 142.21 50.39 142.22 50.35 142.22 50.29 142.23 50.2 142.23 50.19 142.24 50.08 142.24 50.05 142.24 49.91 142.25 49.88 142.25 49.77 142.25 49.76 142.25 49.66 142.25 49.61 142.26 49.56 142.26 49.45 142.26 49.38 142.26 49.32 142.26 49.3 142.26 49.25 142.26 49.18 142.25 49.15 142.25 49.11 142.25 49.05 142.25 49 142.25 48.98 142.25 48.91 142.25 48.85 142.24 48.85 142.24 48.78 142.24 48.71 142.24 48.7 142.23 48.65 142.23 48.58 142.23 48.56 142.22 48.52 142.22 48.45 142.22 48.41 142.21 48.38 142.21 48.32 142.21 48.27 142.2 48.26 142.2 48.19 142.19 48.13 142.19 48.12 142.19 48.06 142.18 48 142.17 47.94 142.16 47.87 142.16 47.84 142.15 47.81 142.15 47.75 142.14 47.7 142.13 47.69 142.13 47.62 142.12 47.57 142.11 47.56 142.11 47.5 142.1 47.44 142.09 47.43 142.09 47.38 142.08 47.32 142.07 47.3 142.06 47.26 142.06 47.2 142.04 47.16 142.04 47.14 142.03 47.08 142.02 47.02 142.01 46.96 142 46.91 141.98 46.85 141.97 46.79 141.96 46.77 141.95 46.73 141.94 46.68 141.93 46.65 141.92 46.62 141.91 46.56 141.9 46.51 141.88 46.45 141.87 46.4 141.85 46.4 141.85 46.35 141.84 46.29 141.82 46.24 141.81 46.19 141.79 45.98 141.72 45.93 141.71 45.93 141.7 45.88 141.68 45.83 141.66 45.77 141.65 45.73 141.63 45.68 141.61 45.63 141.59 45.63 139.25 45.63 25.4"/><path class="cls-9" d="M45.63,25.4h9v.8a7.4,7.4,0,0,1-9,0Z"/><polygon class="cls-10" points="50.15 25.4 45.63 25.4 45.63 139.32 45.63 140.76 45.67 140.8 45.67 140.8 45.72 140.84 45.74 140.86 45.76 140.88 45.8 140.91 45.81 140.92 45.85 140.95 45.9 140.98 45.95 141.02 46 141.05 46.05 141.09 46.05 141.09 46.1 141.12 46.13 141.14 46.15 141.15 46.2 141.19 46.21 141.19 46.26 141.22 46.3 141.25 46.32 141.25 46.37 141.28 46.39 141.3 46.43 141.31 46.49 141.34 46.49 141.35 46.55 141.38 46.58 141.4 46.61 141.41 46.67 141.44 46.68 141.44 46.73 141.47 46.78 141.49 46.8 141.5 46.86 141.52 46.89 141.53 46.93 141.55 46.99 141.58 46.99 141.58 47.06 141.61 47.1 141.62 47.13 141.63 47.2 141.66 47.21 141.66 47.27 141.69 47.32 141.71 47.34 141.71 47.41 141.73 47.44 141.74 47.48 141.76 47.55 141.78 47.55 141.78 47.63 141.81 47.67 141.82 47.7 141.83 47.78 141.85 47.79 141.85 47.85 141.87 47.91 141.89 47.93 141.89 48.01 141.91 48.04 141.92 48.09 141.93 48.16 141.95 48.17 141.95 48.24 141.97 48.29 141.98 48.33 141.99 48.41 142.01 48.42 142.01 48.49 142.03 48.55 142.04 48.57 142.04 48.65 142.06 48.69 142.06 48.74 142.07 48.82 142.09 48.91 142.1 48.96 142.11 48.99 142.12 49.08 142.13 49.09 142.13 49.16 142.14 49.23 142.15 49.25 142.15 49.34 142.16 49.43 142.18 49.52 142.19 49.52 142.19 49.6 142.19 49.69 142.2 49.78 142.21 49.8 142.21 49.87 142.22 49.95 142.22 49.97 142.23 50.06 142.23 50.09 142.23 50.15 142.24 50.15 139.28 50.15 25.4"/><path class="cls-11" d="M50.15,25.4H45.63v.8a7.41,7.41,0,0,0,4.52,1.54Z"/><path class="cls-8" d="M50.15,12.25a7.4,7.4,0,1,1-7.4,7.4A7.39,7.39,0,0,1,50.15,12.25Z"/><path class="cls-10" d="M46.44,26a7.39,7.39,0,1,1,7.42-12.79Z"/><path class="cls-11" d="M57.54,19.65a7.4,7.4,0,0,1-14.79,0c0,5.27,6.74,5.75,7.37,5.75C52.59,25.4,57.54,24.43,57.54,19.65Z"/><path class="cls-12" d="M42.75,19.65A7.39,7.39,0,0,0,50.15,27V25.4C47.66,25.39,42.75,23.88,42.75,19.65Z"/><path class="cls-13" d="M45.63,27a10.71,10.71,0,0,0,4.52,1.14A8.32,8.32,0,0,0,54.67,27h51.44l-6.8,21.58,6.8,21.57H54.67a10.72,10.72,0,0,1-4.52,1.14,12.06,12.06,0,0,1-4.52-1.14Z"/><path class="cls-14" d="M50.15,28.18h0A8.32,8.32,0,0,0,54.67,27V70.19h0a10.68,10.68,0,0,1-4.52,1.14Z"/><polygon class="cls-14" points="90.33 27.04 106.11 27.04 99.31 48.62 106.11 70.19 70.06 70.19 90.33 27.04"/></svg>