<svg xmlns="http://www.w3.org/2000/svg" viewBox="0 0 150 160"><defs><style>.cls-1{isolation:isolate;}.cls-2{fill:#fff;}.cls-3{fill:#3f3111;}.cls-4,.cls-8{fill:#c19c33;}.cls-5{fill:#8c846d;}.cls-6{fill:#77746a;}.cls-7{fill:#7c6323;}.cls-8{mix-blend-mode:overlay;}</style></defs><g class="cls-1"><g id="चाभी"><path class="cls-2" d="M90.46,68.77a23.91,23.91,0,0,0,9.46-22.2A24.3,24.3,0,0,0,85,27.05c-.51-.21-1-.4-1.52-.58L83,26.31c-.35-.12-.71-.23-1.07-.33l-.53-.15-1.07-.25-.48-.1c-.51-.1-1-.19-1.5-.25l-.1,0c-.48-.06-1-.11-1.44-.14l-.49,0c-.35,0-.69,0-1,0h-.53l-1,0-.47,0c-.49,0-1,.08-1.46.14l-.17,0c-.43.06-.86.13-1.28.21l-.5.1-.94.22-.53.14c-.32.08-.63.18-.94.28l-.47.14c-.45.15-.89.31-1.33.49l-.24.1c-.31.13-.61.25-.91.39h0a24.2,24.2,0,0,0,1.09,44.83,3.88,3.88,0,0,0-.12.93,4.21,4.21,0,0,0,2.13,3.52,2.27,2.27,0,0,0,.09.47,2.31,2.31,0,0,0-.09,1,2.74,2.74,0,0,0,1.64,2.19v53.62h1c.84.66,2.35,1.17,5,1.17,2.35,0,4-.39,5-1.17h1v-2.3H86.4A4.62,4.62,0,0,0,91,126.91v-9a4.62,4.62,0,0,0-4.61-4.62H81.24V80.22A2.72,2.72,0,0,0,82.88,78a2.3,2.3,0,0,0-.09-1,2.44,2.44,0,0,0,.09-.49A4.19,4.19,0,0,0,85,73.07,3.49,3.49,0,0,0,84.85,72,24.84,24.84,0,0,0,89.9,69.2C90.09,69.07,90.28,68.92,90.46,68.77ZM65.52,50.51a9,9,0,0,1,3.78-8.42A9.65,9.65,0,0,1,75,40.26a9.49,9.49,0,0,1,9.54,8.2,8.88,8.88,0,0,1-2.21,7A9.7,9.7,0,0,1,71.19,58,9.17,9.17,0,0,1,65.52,50.51Z"/><path class="cls-3" d="M78.45,116.57H86.4A2.62,2.62,0,0,1,89,119.19v7.72a2.62,2.62,0,0,1-2.62,2.62H78.45a0,0,0,0,1,0,0v-13A0,0,0,0,1,78.45,116.57Z"/><path class="cls-4" d="M78.45,115.3H86.4A2.62,2.62,0,0,1,89,117.92v7.72a2.62,2.62,0,0,1-2.62,2.62H78.45a0,0,0,0,1,0,0v-13A0,0,0,0,1,78.45,115.3Z"/><path class="cls-4" d="M84.21,28.89C67.84,22,50.05,35,52.05,52.06c1.43,12.11,12.5,20.79,24.78,19.84h0a23.62,23.62,0,0,0,11.9-4.35c.15-.1.3-.22.45-.34A22.18,22.18,0,0,0,84.21,28.89ZM70.41,59.8a11.1,11.1,0,0,1-2.28-19.33c7.13-5.13,17.34-.85,18.36,7.76S78.58,63.26,70.41,59.8Z"/><path class="cls-5" d="M83,73.07c0,1.89-3.49,3.43-7.79,3.43s-7.8-1.54-7.8-3.43,3.49-3.44,7.8-3.44S83,71.17,83,73.07Z"/><path class="cls-6" d="M75.22,77.79c-7.56,0-7.64-2.87,0-2.87S82.85,77.79,75.22,77.79Z"/><path class="cls-6" d="M75.22,79.22c-7.56,0-7.64-2.86,0-2.86S82.85,79.22,75.22,79.22Z"/><path class="cls-4" d="M71.19,77.79v54h8v-54C79.24,76.24,71.19,76.24,71.19,77.79Z"/><path class="cls-7" d="M75.22,133c-5.33,0-5.39-2.35,0-2.35S80.6,133,75.22,133Z"/><path class="cls-3" d="M75.05,132.69c-2.56,0-2.58-1.29,0-1.29S77.63,132.69,75.05,132.69Z"/><path class="cls-8" d="M77,103.22c0,31.84-2,32.17-2,0C75,71.38,77,71.06,77,103.22Z"/><path class="cls-8" d="M84.21,28.89a23.35,23.35,0,0,0-18.93.23c8.5-.23,25.22,1.41,28.91,17.26,2.6,11.19-1,17.44-5,20.83h0A22.18,22.18,0,0,0,84.21,28.89Z"/></g></g></svg>