<svg id="Layer_5" data-name="Layer 5" xmlns="http://www.w3.org/2000/svg" viewBox="0 0 150 160"><defs><style>.cls-1,.cls-22{fill:#faccac;}.cls-1,.cls-10,.cls-11,.cls-12,.cls-13,.cls-14,.cls-15,.cls-16,.cls-17,.cls-18,.cls-19,.cls-2,.cls-20,.cls-21,.cls-3,.cls-4,.cls-5,.cls-6,.cls-7,.cls-8,.cls-9{stroke:#fff;stroke-miterlimit:10;stroke-width:5px;}.cls-2,.cls-23{fill:#334b56;}.cls-24,.cls-3{fill:#edb389;}.cls-25,.cls-4{fill:#2e2927;}.cls-26,.cls-5{fill:#413b3a;}.cls-27,.cls-6{fill:#272321;}.cls-28,.cls-7{fill:#4e4746;}.cls-29,.cls-8{fill:#3b3634;}.cls-31,.cls-9{fill:#667e89;}.cls-10,.cls-32{fill:#536e7b;}.cls-11,.cls-33{fill:#693535;}.cls-12,.cls-34{fill:#5a2d2c;}.cls-13,.cls-35{fill:#26221f;}.cls-14,.cls-36{fill:#e5e5e5;}.cls-15,.cls-37{fill:#fff;}.cls-16,.cls-39{fill:#f4d0bc;}.cls-17,.cls-40{fill:#492d22;}.cls-18,.cls-41{fill:#333332;}.cls-19,.cls-42{fill:#e19473;}.cls-20,.cls-43{fill:#2a2826;}.cls-21,.cls-45{fill:#60342a;}.cls-30{fill:#e6e6e6;}.cls-38{fill:#1d1d1b;}.cls-44{fill:#1e1d1b;}.cls-46{fill:#554d4c;}</style></defs><path class="cls-1" d="M128.25,67.94a12.55,12.55,0,0,0,3.9-.5c1.2-2.16,2.79-3.65,3.27-2.84.71,1.2-.74,2-.74,2s6-2.09,6.52-1.16-2.94,1.72-2.94,1.72,4-.31,3.9.8c-.09.83-3.53,1-3.53,1s3.59-.37,3.59.93-4.08,1-4.08,1,2.47.43,2.47,1.18-5.44.37-8.22-.93a25.76,25.76,0,0,1-4.88.37Z"/><path class="cls-2" d="M95.3,57.06s9.77,14.17,34.32,9.18c2.58,2.24-.46,7.7-.46,7.7s-26.13,4.33-38.68-12A7.27,7.27,0,0,1,95.3,57.06Z"/><path class="cls-3" d="M93.45,54a85.56,85.56,0,0,0,8.84-3.58c1.11.18,2.78,4.26,2.78,4.26a15.31,15.31,0,0,1-11.43,3C93.64,55.9,93.45,54,93.45,54Z"/><path class="cls-1" d="M25.89,119.63a23.48,23.48,0,0,1-7.61,1.29,20.22,20.22,0,0,0-.55,4.45s6.67.19,9.83-1.66A5,5,0,0,0,25.89,119.63Z"/><path class="cls-1" d="M75.22,130.38s-1.86,4.64-2,7.42c1.11,1.48,3.52,1.3,3.52,1.3l2.41-7.61Z"/><path class="cls-4" d="M62.05,91.62s-5.75,37.09-35.42,38.95c-3-8.9-2-13.17-2-13.17s17.62,4.27,25.22-31.9C52.59,85.69,62.05,91.62,62.05,91.62Z"/><path class="cls-5" d="M52.66,105.68c1.07-3.54,4.83-3.4,3,1.29s-3.21,7.79-8.68,12.75c-5.71,5.2-2.15.33.8-3.77A37,37,0,0,0,52.66,105.68Z"/><path class="cls-6" d="M49.81,89a25.3,25.3,0,0,1-1.48,6.25c4.46-1.79,10.12,4.17,9.43,8.44,1.39-4.17,2-6.85,2-6.85Z"/><path class="cls-5" d="M70.47,84.7a7.81,7.81,0,0,0,0,3.9c3.89,2.41,16.24,7.85,17.91,18.79,1.41,9.25-3.52,26.52-3.52,26.52s-11.37,1.14-15.76-4.83c2.59-7.41,7.14-16.48,5.37-21.32-2.78-7.61-40-11.87-23-38C61.49,77,70.47,84.7,70.47,84.7Z"/><path class="cls-7" d="M77.82,94c-4.67-3-6.75-1.39-3.08,1.59s7.55,5.16,10.13,10.82c3.43,7.52,2.58,1.1,1.89-1.29S84,98,77.82,94Z"/><path class="cls-4" d="M52.1,70a31.63,31.63,0,0,0-3.28,6.65c5-1.09,16.88,8,20.76,12.22a35.6,35.6,0,0,0-.2-4Z"/><path class="cls-8" d="M73.35,136.45c.2.7,1.39,1.49,3.82,1.39a8.53,8.53,0,0,0,4.6,7c3.52-3.16,9.76-.19,9.39,4.45s-12.92,3.52-21.26-2.23C69.9,141.88,72.14,136.27,73.35,136.45Z"/><path class="cls-8" d="M20.34,120.68c-.52,1.13-1,1.85.19,5-3,1.55-4.9,3.81-5.07,6.46,4.2,2.15,3.68,9-.78,10.36s-7.93-10.79-5.56-20.64C14,120,20.42,119.52,20.34,120.68Z"/><path class="cls-9" d="M50.24,68.2c7.92-9.4,30-21.82,46.3-15.15,1.73,3,.19,7.61-3.52,10.7-2.56,2.13-20.34,16.69-19.84,23.61A42.28,42.28,0,0,1,50.24,68.2Z"/><path class="cls-10" d="M95.8,53.29c-15.56-6.37-35.55,5-43.9,14.1,3.05.46,12.35,1.21,20.29-5,10.89-8.57,19-8,23.3-3.11C96.62,57,96.84,55.08,95.8,53.29Z"/><path class="cls-11" d="M100.86,67.18a8.92,8.92,0,0,1,.25,7.16c.77,1.79,3.07.51,3.84-.89s1.53-.39,3.07-.77-2.56-2.56-2.81-6.14C103.93,63.35,102,64.5,100.86,67.18Z"/><path class="cls-11" d="M102.35,61.11c-5-16.51-20.58-43.86-41.72-44.22-25.8-.44-39,22.07-27.88,38.94s32.82,9.28,38.39,4.27S93.6,44.87,99,61.78C102.15,61.59,102.35,61.11,102.35,61.11Z"/><path class="cls-12" d="M88.05,34.28v.11c-.55,4,1.75,15.75,11.63,20.32A90.18,90.18,0,0,0,88.05,34.28Z"/><path class="cls-12" d="M33,50.58c-1.14-9.3,17,13,37.22,6.88C65.27,66.32,35,67.54,33,50.58Z"/><path class="cls-12" d="M36.5,37.12s2.83,4.34,9.81,2.64C38.2,46.36,36.12,39.19,36.5,37.12Z"/><path class="cls-12" d="M52.84,46.41s4.71,7.73,18.66-1.32C64.46,57,54.53,53.38,52.84,46.41Z"/><path class="cls-1" d="M96.39,68.59a20.92,20.92,0,0,0,1.73-4.08,6.87,6.87,0,0,1,1.58-4.34,3.19,3.19,0,0,1,3-.81c.77.15,1.88,1,1.55,1.9A1.49,1.49,0,0,1,105.51,63a1.42,1.42,0,0,1-.26.65c1.16,1-.56,2-.56,2a1.2,1.2,0,0,0-1.46-.71c-1,.34-3.44,5.1-5,5.67A1.92,1.92,0,0,1,96.39,68.59Z"/><path class="cls-2" d="M86.16,59.91c.74,5-3.34,17.81.37,18.18,3.89-4.64,8.67-10.7,8.67-10.7s4.27,2.08,5.56,4.17c-4.27,7.79-10.89,16.73-17.57,15.8s-8.82-18.37-5-26.23C80.6,56.27,85.6,56.2,86.16,59.91Z"/><path class="cls-13" d="M91.93,23.85c-.92-3.08-3.08-8.11-5.83-8.45-.22,2-2.39,4.11-2.39,4.11s6.73,4.57,7.76,5.6C92.61,25.45,91.93,23.85,91.93,23.85Z"/><path class="cls-13" d="M91.14,24.71c-2.63-1-10.62.91-12.68,7.76.46,1.6,3,3,3,3S83.52,27.14,92,25.65C91.94,25.17,91.14,24.71,91.14,24.71Z"/><path class="cls-1" d="M91.11,34.29c-.61,4.39,2.26,18.32,15,21.51,13.33,3.34,21.7-9.65,23.42-20.66s-19.12-21.08-29.48-15.38A20.37,20.37,0,0,0,91.11,34.29Z"/><path class="cls-3" d="M107.43,53.78c-12-3-14.65-16.07-14.07-20.19a19.52,19.52,0,0,1,5.57-11.38,19.43,19.43,0,0,0-6.62,12.33c-.57,4.12,2.12,17.19,14.08,20.19a14.75,14.75,0,0,0,14.54-4.12A14.56,14.56,0,0,1,107.43,53.78Z"/><path class="cls-3" d="M113.25,39.64c2.48-1.1,4.59,1.64,1.2,2.75C115.66,41.33,115.18,39.57,113.25,39.64Z"/><path class="cls-3" d="M106.28,33.64s-.82-.58-1,.52a3.7,3.7,0,0,0,3.34,3.31c2.33.35,3-.88,2.16-1.58A32.58,32.58,0,0,0,106.28,33.64Z"/><path class="cls-14" d="M112.84,33.54a3.56,3.56,0,1,1-2.37-4.6,3.65,3.65,0,0,1,2.38,4.58Z"/><path class="cls-15" d="M106.59,31.41a3.26,3.26,0,1,0,6.12,2.24,2.23,2.23,0,0,0,.13-.44A2.93,2.93,0,0,0,113,32v-.1c-.17-1-1-1.68-2.29-2C108.94,29.37,107.12,29.58,106.59,31.41Z"/><path class="cls-15" d="M110.06,32.06a.58.58,0,0,1-.7.42h0a.57.57,0,0,1-.39-.71v0a.58.58,0,0,1,.66-.47.57.57,0,0,1,.46.66A.27.27,0,0,1,110.06,32.06Z"/><path class="cls-15" d="M107.46,33.41a.3.3,0,0,1-.36.22h0a.31.31,0,1,1,.18-.6h0A.31.31,0,0,1,107.46,33.41Z"/><path class="cls-16" d="M106.55,29.94s1-2.13,2.89-2.11,3.44,2.84,3.44,2.84A6.5,6.5,0,0,0,106.55,29.94Z"/><path class="cls-17" d="M112.88,30.67l-.25-.13c-.16-.09-.4-.2-.68-.32l-.47-.18-.53-.17a4.59,4.59,0,0,1-.57-.13l-.29-.07h-.31a1.5,1.5,0,0,0-.3,0h-.3a5.61,5.61,0,0,0-.58,0h-.55a3.76,3.76,0,0,0-.5.07,2.09,2.09,0,0,0-.41.09l-.31.08-.28.07.25-.13.3-.15a2.83,2.83,0,0,1,.41-.14l.23-.09a1.22,1.22,0,0,1,.26-.06,2.82,2.82,0,0,1,.57-.09,3.21,3.21,0,0,1,.62,0h.64l.32.05.31.07h.3l.29.09a5,5,0,0,1,.53.23l.24.11L112,30l.36.24.27.2.16.14Z"/><path class="cls-18" d="M109.16,28.32a3.12,3.12,0,0,0-.41-1.74c-2.5-.07-3.24,3.47-3.24,3.47S107.41,28.09,109.16,28.32Z"/><path class="cls-3" d="M119,39s-.58-.63-.91.26a3.14,3.14,0,0,0,2.21,3.36c1.9.7,2.67-.22,2.1-.94A28.42,28.42,0,0,0,119,39Z"/><path class="cls-15" d="M122.32,37.89a.51.51,0,0,1-.68.23.49.49,0,0,1-.18-.68.49.49,0,0,1,.65-.24h0A.51.51,0,0,1,122.32,37.89Z"/><path class="cls-15" d="M119.9,38.57a.25.25,0,0,1-.33.12h0a.27.27,0,0,1-.1-.35.25.25,0,0,1,.32-.17.26.26,0,0,1,.18.32A.41.41,0,0,1,119.9,38.57Z"/><path class="cls-3" d="M94.26,28.41c-.78-2.6-4-3.86-5.56-.44-1.74,3.8,1.81,7.09,3.77,6.12Z"/><path class="cls-1" d="M94.26,28.41c-.78-2.6-2.93-3.36-4.5.06-1.74,3.8,1.77,5.8,2.71,5.62Z"/><path class="cls-19" d="M90.75,32.06A4.31,4.31,0,0,0,92,28.82a2.35,2.35,0,0,0-.87-1.53m0-.07A2.4,2.4,0,0,1,92,28.81a4.37,4.37,0,0,1-1.31,3.31s0,0,0,0Z"/><path class="cls-19" d="M90,29.68h0v-.06c0-.06,1-1.08,1.62-1a.7.7,0,0,1,.52.49m0,.06h-.06a.67.67,0,0,0-.45-.43c-.63-.1-1.53.93-1.54.94Z"/><path class="cls-20" d="M91.48,25.85c.31-3.14,3.87-12.58,10-14.26-2.25-3.66.55-3.73,1.68-.85.57-5.49,4.43-3.54,2.22.25,8.63-1.64,21-.09,26.16,11.13,2.13,4.68.22,10.51-2.14,14.67,0-2.9-2.09-8.86-11-9.39-7.35-.44-14.5-5.22-14.5-5.22s.41,4.7-4,6.14-4.4,2.27-4.25,4.34c-1.21-1.49-2.83-3-2.21-4.91A8,8,0,0,0,91.48,25.85Z"/><path class="cls-21" d="M109.4,46.07c1.49-1.08,3.46-.37,2.6.49-1.86,1.86-.62,1.49-2.1,2.1C108.84,49.1,106.68,48.05,109.4,46.07Z"/><path class="cls-22" d="M128.25,67.94a12.55,12.55,0,0,0,3.9-.5c1.2-2.16,2.79-3.65,3.27-2.84.71,1.2-.74,2-.74,2s6-2.09,6.52-1.16-2.94,1.72-2.94,1.72,4-.31,3.9.8c-.09.83-3.53,1-3.53,1s3.59-.37,3.59.93-4.08,1-4.08,1,2.47.43,2.47,1.18-5.44.37-8.22-.93a25.76,25.76,0,0,1-4.88.37Z"/><path class="cls-23" d="M95.3,57.06s9.77,14.17,34.32,9.18c2.58,2.24-.46,7.7-.46,7.7s-26.13,4.33-38.68-12A7.27,7.27,0,0,1,95.3,57.06Z"/><path class="cls-24" d="M93.45,54a85.56,85.56,0,0,0,8.84-3.58c1.11.18,2.78,4.26,2.78,4.26a15.31,15.31,0,0,1-11.43,3C93.64,55.9,93.45,54,93.45,54Z"/><path class="cls-22" d="M25.89,119.63a23.48,23.48,0,0,1-7.61,1.29,20.22,20.22,0,0,0-.55,4.45s6.67.19,9.83-1.66A5,5,0,0,0,25.89,119.63Z"/><path class="cls-22" d="M75.22,130.38s-1.86,4.64-2,7.42c1.11,1.48,3.52,1.3,3.52,1.3l2.41-7.61Z"/><path class="cls-25" d="M62.05,91.62s-5.75,37.09-35.42,38.95c-3-8.9-2-13.17-2-13.17s17.62,4.27,25.22-31.9C52.59,85.69,62.05,91.62,62.05,91.62Z"/><path class="cls-26" d="M52.66,105.68c1.07-3.54,4.83-3.4,3,1.29s-3.21,7.79-8.68,12.75c-5.71,5.2-2.15.33.8-3.77A37,37,0,0,0,52.66,105.68Z"/><path class="cls-27" d="M49.81,89a25.3,25.3,0,0,1-1.48,6.25c4.46-1.79,10.12,4.17,9.43,8.44,1.39-4.17,2-6.85,2-6.85Z"/><path class="cls-26" d="M70.47,84.7a7.81,7.81,0,0,0,0,3.9c3.89,2.41,16.24,7.85,17.91,18.79,1.41,9.25-3.52,26.52-3.52,26.52s-11.37,1.14-15.76-4.83c2.59-7.41,7.14-16.48,5.37-21.32-2.78-7.61-40-11.87-23-38C61.49,77,70.47,84.7,70.47,84.7Z"/><path class="cls-28" d="M77.82,94c-4.67-3-6.75-1.39-3.08,1.59s7.55,5.16,10.13,10.82c3.43,7.52,2.58,1.1,1.89-1.29S84,98,77.82,94Z"/><path class="cls-25" d="M52.1,70a31.63,31.63,0,0,0-3.28,6.65c5-1.09,16.88,8,20.76,12.22a35.6,35.6,0,0,0-.2-4Z"/><path class="cls-29" d="M73.35,136.45c.2.7,1.39,1.49,3.82,1.39a8.53,8.53,0,0,0,4.6,7c3.52-3.16,9.76-.19,9.39,4.45s-12.92,3.52-21.26-2.23C69.9,141.88,72.14,136.27,73.35,136.45Z"/><path class="cls-30" d="M70.13,145.35c-.55,0-.8,1-.38,1.74,8.42,7.09,21.09,6.93,21.46,2.25,0-.22,0-.43,0-.65C89,152,77.81,150.64,70.13,145.35Z"/><path class="cls-29" d="M20.34,120.68c-.52,1.13-1,1.85.19,5-3,1.55-4.9,3.81-5.07,6.46,4.2,2.15,3.68,9-.78,10.36s-7.93-10.79-5.56-20.64C14,120,20.42,119.52,20.34,120.68Z"/><path class="cls-30" d="M10.8,121.38c.19-.42-1-.57-1.76.27-3.56,10.24,1.1,22.15,5.6,20.82a3.92,3.92,0,0,0,.6-.23C11.34,141.39,8.62,130.44,10.8,121.38Z"/><path class="cls-31" d="M50.24,68.2c7.92-9.4,30-21.82,46.3-15.15,1.73,3,.19,7.61-3.52,10.7-2.56,2.13-20.34,16.69-19.84,23.61A42.28,42.28,0,0,1,50.24,68.2Z"/><path class="cls-32" d="M95.8,53.29c-15.56-6.37-35.55,5-43.9,14.1,3.05.46,12.35,1.21,20.29-5,10.89-8.57,19-8,23.3-3.11C96.62,57,96.84,55.08,95.8,53.29Z"/><path class="cls-33" d="M100.86,67.18a8.92,8.92,0,0,1,.25,7.16c.77,1.79,3.07.51,3.84-.89s1.53-.39,3.07-.77-2.56-2.56-2.81-6.14C103.93,63.35,102,64.5,100.86,67.18Z"/><path class="cls-33" d="M102.35,61.11c-5-16.51-20.58-43.86-41.72-44.22-25.8-.44-39,22.07-27.88,38.94s32.82,9.28,38.39,4.27S93.6,44.87,99,61.78C102.15,61.59,102.35,61.11,102.35,61.11Z"/><path class="cls-34" d="M88.05,34.28v.11c-.55,4,1.75,15.75,11.63,20.32A90.18,90.18,0,0,0,88.05,34.28Z"/><path class="cls-34" d="M33,50.58c-1.14-9.3,17,13,37.22,6.88C65.27,66.32,35,67.54,33,50.58Z"/><path class="cls-34" d="M36.5,37.12s2.83,4.34,9.81,2.64C38.2,46.36,36.12,39.19,36.5,37.12Z"/><path class="cls-34" d="M52.84,46.41s4.71,7.73,18.66-1.32C64.46,57,54.53,53.38,52.84,46.41Z"/><path class="cls-22" d="M96.39,68.59a20.92,20.92,0,0,0,1.73-4.08,6.87,6.87,0,0,1,1.58-4.34,3.19,3.19,0,0,1,3-.81c.77.15,1.88,1,1.55,1.9A1.49,1.49,0,0,1,105.51,63a1.42,1.42,0,0,1-.26.65c1.16,1-.56,2-.56,2a1.2,1.2,0,0,0-1.46-.71c-1,.34-3.44,5.1-5,5.67A1.92,1.92,0,0,1,96.39,68.59Z"/><path class="cls-23" d="M86.16,59.91c.74,5-3.34,17.81.37,18.18,3.89-4.64,8.67-10.7,8.67-10.7s4.27,2.08,5.56,4.17c-4.27,7.79-10.89,16.73-17.57,15.8s-8.82-18.37-5-26.23C80.6,56.27,85.6,56.2,86.16,59.91Z"/><path class="cls-35" d="M91.93,23.85c-.92-3.08-3.08-8.11-5.83-8.45-.22,2-2.39,4.11-2.39,4.11s6.73,4.57,7.76,5.6C92.61,25.45,91.93,23.85,91.93,23.85Z"/><path class="cls-35" d="M91.14,24.71c-2.63-1-10.62.91-12.68,7.76.46,1.6,3,3,3,3S83.52,27.14,92,25.65C91.94,25.17,91.14,24.71,91.14,24.71Z"/><path class="cls-22" d="M91.11,34.29c-.61,4.39,2.26,18.32,15,21.51,13.33,3.34,21.7-9.65,23.42-20.66s-19.12-21.08-29.48-15.38A20.37,20.37,0,0,0,91.11,34.29Z"/><path class="cls-24" d="M129.83,36.22c-6.14-9-14.9-2.82-24.78-11.43-1.44,2.67-2.68,4.54-6.11,5.36-1,.25-3.09.28-3.36,2.51-3.55-1.82,0-3.46-2.21-5.81C93.8,24.88,118,10.66,129.83,36.22Z"/><path class="cls-24" d="M107.43,53.78c-12-3-14.65-16.07-14.07-20.19a19.52,19.52,0,0,1,5.57-11.38,19.43,19.43,0,0,0-6.62,12.33c-.57,4.12,2.12,17.19,14.08,20.19a14.75,14.75,0,0,0,14.54-4.12A14.56,14.56,0,0,1,107.43,53.78Z"/><path class="cls-24" d="M113.25,39.64c2.48-1.1,4.59,1.64,1.2,2.75C115.66,41.33,115.18,39.57,113.25,39.64Z"/><path class="cls-24" d="M106.28,33.64s-.82-.58-1,.52a3.7,3.7,0,0,0,3.34,3.31c2.33.35,3-.88,2.16-1.58A32.58,32.58,0,0,0,106.28,33.64Z"/><path class="cls-36" d="M112.84,33.54a3.56,3.56,0,1,1-2.37-4.6,3.65,3.65,0,0,1,2.38,4.58Z"/><path class="cls-37" d="M106.59,31.41a3.26,3.26,0,1,0,6.12,2.24,2.23,2.23,0,0,0,.13-.44A2.93,2.93,0,0,0,113,32v-.1c-.17-1-1-1.68-2.29-2C108.94,29.37,107.12,29.58,106.59,31.41Z"/><path class="cls-38" d="M110.3,33.11a1.93,1.93,0,1,1-1.29-2.5A2,2,0,0,1,110.3,33.11Z"/><path class="cls-37" d="M110.06,32.06a.58.58,0,0,1-.7.42h0a.57.57,0,0,1-.39-.71v0a.58.58,0,0,1,.66-.47.57.57,0,0,1,.46.66A.27.27,0,0,1,110.06,32.06Z"/><path class="cls-37" d="M107.46,33.41a.3.3,0,0,1-.36.22h0a.31.31,0,1,1,.18-.6h0A.31.31,0,0,1,107.46,33.41Z"/><path class="cls-39" d="M106.55,29.94s1-2.13,2.89-2.11,3.44,2.84,3.44,2.84A6.5,6.5,0,0,0,106.55,29.94Z"/><path class="cls-40" d="M112.88,30.67l-.25-.13c-.16-.09-.4-.2-.68-.32l-.47-.18-.53-.17a4.59,4.59,0,0,1-.57-.13l-.29-.07h-.31a1.5,1.5,0,0,0-.3,0h-.3a5.61,5.61,0,0,0-.58,0h-.55a3.76,3.76,0,0,0-.5.07,2.09,2.09,0,0,0-.41.09l-.31.08-.28.07.25-.13.3-.15a2.83,2.83,0,0,1,.41-.14l.23-.09a1.22,1.22,0,0,1,.26-.06,2.82,2.82,0,0,1,.57-.09,3.21,3.21,0,0,1,.62,0h.64l.32.05.31.07h.3l.29.09a5,5,0,0,1,.53.23l.24.11L112,30l.36.24.27.2.16.14Z"/><path class="cls-41" d="M109.16,28.32a3.12,3.12,0,0,0-.41-1.74c-2.5-.07-3.24,3.47-3.24,3.47S107.41,28.09,109.16,28.32Z"/><path class="cls-24" d="M119,39s-.58-.63-.91.26a3.14,3.14,0,0,0,2.21,3.36c1.9.7,2.67-.22,2.1-.94A28.42,28.42,0,0,0,119,39Z"/><path class="cls-36" d="M124.57,40a3.05,3.05,0,1,1-1.19-4.27A3.12,3.12,0,0,1,124.57,40Z"/><path class="cls-37" d="M119.7,37.13a2.79,2.79,0,1,0,4.86,2.73.75.75,0,0,0,.07-.12,2.71,2.71,0,0,0,.31-1v-.09a2.45,2.45,0,0,0-1.56-2.12C122,35.83,120.46,35.69,119.7,37.13Z"/><path class="cls-38" d="M122.33,38.81a1.65,1.65,0,1,1-.64-2.32,1.7,1.7,0,0,1,.64,2.32Z"/><path class="cls-37" d="M122.32,37.89a.51.51,0,0,1-.68.23.49.49,0,0,1-.18-.68.49.49,0,0,1,.65-.24h0A.51.51,0,0,1,122.32,37.89Z"/><path class="cls-37" d="M119.9,38.57a.25.25,0,0,1-.33.12h0a.27.27,0,0,1-.1-.35.25.25,0,0,1,.32-.17.26.26,0,0,1,.18.32A.41.41,0,0,1,119.9,38.57Z"/><path class="cls-39" d="M119.92,35.89a3.07,3.07,0,0,1,2.8-1.26c1.62.36,2.39,3,2.39,3A5.56,5.56,0,0,0,119.92,35.89Z"/><path class="cls-40" d="M125.11,37.61l-.19-.15c-.12-.1-.3-.24-.52-.39l-.36-.23-.41-.24c-.15-.06-.3-.15-.46-.21l-.24-.1-.24-.09-.25-.08-.25-.07a3.86,3.86,0,0,0-.49-.1h-.47a3.09,3.09,0,0,0-.43,0h-.88l.23-.07.28-.06a2.38,2.38,0,0,1,.37-.06h.94a4.5,4.5,0,0,1,.51.08l.27.07.26.08H123l.25.12h.12l.12.07.23.13c.14.09.28.18.41.28l.18.14.15.14.27.26.19.21.11.15Z"/><path class="cls-24" d="M94.26,28.41c-.78-2.6-4-3.86-5.56-.44-1.74,3.8,1.81,7.09,3.77,6.12Z"/><path class="cls-22" d="M94.26,28.41c-.78-2.6-2.93-3.36-4.5.06-1.74,3.8,1.77,5.8,2.71,5.62Z"/><path class="cls-42" d="M90.75,32.06A4.31,4.31,0,0,0,92,28.82a2.35,2.35,0,0,0-.87-1.53m0-.07A2.4,2.4,0,0,1,92,28.81a4.37,4.37,0,0,1-1.31,3.31s0,0,0,0Z"/><path class="cls-42" d="M90,29.68h0v-.06c0-.06,1-1.08,1.62-1a.7.7,0,0,1,.52.49m0,.06h-.06a.67.67,0,0,0-.45-.43c-.63-.1-1.53.93-1.54.94Z"/><path class="cls-43" d="M91.48,25.85c.31-3.14,3.87-12.58,10-14.26-2.25-3.66.55-3.73,1.68-.85.57-5.49,4.43-3.54,2.22.25,8.63-1.64,21-.09,26.16,11.13,2.13,4.68.22,10.51-2.14,14.67,0-2.9-2.09-8.86-11-9.39-7.35-.44-14.5-5.22-14.5-5.22s.41,4.7-4,6.14-4.4,2.27-4.25,4.34c-1.21-1.49-2.83-3-2.21-4.91A8,8,0,0,0,91.48,25.85Z"/><path class="cls-44" d="M95,19.13c-1.89,3.17,6.65,6.05,7.74-2.69C108.3,22,116.25,23.5,122,22.8s8.94,6.46,8.24,11.52c-3.28-7.25-4.17-7.94-10.82-8.34s-14-2.78-16.39-5.46c-1,6.05-4.57,7.84-7.15,7.34s-3.57-3.27-3.57-3.27Z"/><path class="cls-45" d="M109.4,46.07c1.49-1.08,3.46-.37,2.6.49-1.86,1.86-.62,1.49-2.1,2.1C108.84,49.1,106.68,48.05,109.4,46.07Z"/><path class="cls-46" d="M92.07,23.2a2.34,2.34,0,0,0-.59,2.65c4.26,1.43,6.25,8.39,9.67,10.85,4.21,3,10.91,1.7,12.52.59s3.46-.86,3.46,1.61c.37,6.18,6.06,7.93,8.65,6.94s3.68-5.26,3.78-8.34C122,27.48,100.35,23.82,92.07,23.2Zm15.41,12.85c-2.59-.49-4.45-1.36-3.09-4.57s5.94-2.89,8-1.2C116.08,33.28,112.37,37,107.48,36.05ZM126,40.5c-1.36,2.35-5.19,4.21-6.43-.61s1.31-5.46,2.59-5C125.9,36.42,127.39,38.16,126,40.5Z"/></svg>