<svg xmlns="http://www.w3.org/2000/svg" viewBox="0 0 150 160"><defs><style>.cls-1{isolation:isolate;}.cls-10,.cls-2{fill:#77746a;}.cls-2,.cls-3,.cls-4,.cls-5,.cls-6,.cls-7,.cls-8,.cls-9{stroke:#fff;stroke-miterlimit:10;stroke-width:5px;}.cls-11,.cls-3{fill:#51504c;}.cls-12,.cls-4{fill:#eae8e5;opacity:0.47;}.cls-13,.cls-15,.cls-5,.cls-7{fill:#423232;}.cls-14,.cls-6{fill:#3da594;}.cls-15,.cls-7{opacity:0.29;mix-blend-mode:multiply;}.cls-16,.cls-8{fill:#281414;}.cls-17,.cls-9{fill:#1b7060;}</style></defs><g class="cls-1"><g id="ताला"><path class="cls-2" d="M130.86,66.8c-.76-25.45-14.05-45-30.44-44.66S71.45,43,72,68.67L82,68.45c-.64-28.63,18-49.3,32-27.11,4.32,6.87,6.83,16.19,7,26.23l5.14-.11v8.7A4.78,4.78,0,0,0,130.88,81V66.8Z"/><path class="cls-2" d="M130.86,66.8c-.76-25.45-14.05-45-30.44-44.66S71.45,43,72,68.67L82,68.45c-.64-28.63,18-49.3,32-27.11,4.32,6.87,6.83,16.19,7,26.23l5.14-.11v8.7A4.78,4.78,0,0,0,130.88,81V66.8Z"/><path class="cls-3" d="M99.83,32.07C89,30.76,79.13,47.47,79.6,68.45L72,68.62v0L82,68.45C81.51,49,90,33.23,99.83,32.07Z"/><path class="cls-4" d="M130.86,66.8c-.76-25.45-14.05-45-30.44-44.66-.22,0-.43,0-.65,0,15.59,1,28,20.06,28.73,44.62h0V80.33a4.76,4.76,0,0,0,2.35.62V66.8Z"/><path class="cls-2" d="M123.73,67.46l-2.78.06v0l2.78-.06Z"/><path class="cls-5" d="M46.7,69.89c0,6.37-7.86,11.54-14.23,11.54a11.54,11.54,0,1,1,0-23.08C38.84,58.35,46.7,63.52,46.7,69.89Z"/><path class="cls-6" d="M91.39,115.72c.29,7.67-4.2,14.51-11.17,18.48l-.11.07a28.58,28.58,0,0,1-14,3.59H44.46c-14.32,0-25.79-10-25.32-22.14l1.79-46.36h0a10.43,10.43,0,0,1,.19-1.61A12.52,12.52,0,0,1,22,65.11c.05-.06.09-.27.49-1h0a11.63,11.63,0,0,1,10-5.78c5,0,10.93,3.19,13.24,7.64a6.18,6.18,0,0,0,5.48,3.37h8.23A6.17,6.17,0,0,0,64.9,66c2.4-4.61,9-8.34,15-7.5s9.75,6.45,9.75,12.31Z"/><path class="cls-7" d="M91.39,115.72c.29,7.67-4.2,14.51-11.17,18.48,1.29-4.48,2.41-8.61,2.72-10.21,8.6-45.11-61.81-56.23-61.81-56.23h0A12.52,12.52,0,0,1,22,65.11c.05-.06.09-.27.49-1h0a11.63,11.63,0,0,1,10-5.78c5,0,10.93,3.19,13.24,7.64a6.18,6.18,0,0,0,5.48,3.37h8.23A6.17,6.17,0,0,0,64.9,66c2.4-4.61,9-8.34,15-7.5s9.75,6.45,9.75,12.31Z"/><path class="cls-8" d="M91.27,112.74c-1.25,10.81-12,19.33-25.21,19.33H44.46c-13.19,0-24-8.52-25.21-19.33l-.12,3c-.46,12.11,11,22.15,25.33,22.15h21.6c14.32,0,25.79-10,25.32-22.15Z"/><path class="cls-9" d="M35.82,73.86a6.65,6.65,0,1,1-1.73-11.38A6.65,6.65,0,0,1,35.82,73.86ZM35,68.17a3.33,3.33,0,1,0-4.49,3.6A3.33,3.33,0,0,0,35,68.17Z"/><path class="cls-9" d="M76.24,76.09a6.65,6.65,0,1,1,9-7.2A6.66,6.66,0,0,1,76.24,76.09Zm3.63-9.3a3.33,3.33,0,1,0,.87,5.7A3.33,3.33,0,0,0,79.87,66.79Z"/><path class="cls-2" d="M59.44,111.2a5.46,5.46,0,1,0-8.27,4.67v5.31A2.81,2.81,0,0,0,54,124h0a2.81,2.81,0,0,0,2.81-2.81v-5.31A5.45,5.45,0,0,0,59.44,111.2Z"/><path class="cls-8" d="M56.26,115.73A2.62,2.62,0,0,1,54,118.59a2.93,2.93,0,0,1,0-5.72A2.62,2.62,0,0,1,56.26,115.73Z"/><path class="cls-10" d="M130.86,66.8c-.76-25.45-14.05-45-30.44-44.66S71.45,43,72,68.67L82,68.45c-.64-28.63,18-49.3,32-27.11,4.32,6.87,6.83,16.19,7,26.23l5.14-.11v8.7A4.78,4.78,0,0,0,130.88,81V66.8Z"/><path class="cls-10" d="M130.86,66.8c-.76-25.45-14.05-45-30.44-44.66S71.45,43,72,68.67L82,68.45c-.64-28.63,18-49.3,32-27.11,4.32,6.87,6.83,16.19,7,26.23l5.14-.11v8.7A4.78,4.78,0,0,0,130.88,81V66.8Z"/><path class="cls-11" d="M99.83,32.07C89,30.76,79.13,47.47,79.6,68.45L72,68.62v0L82,68.45C81.51,49,90,33.23,99.83,32.07Z"/><path class="cls-12" d="M130.86,66.8c-.76-25.45-14.05-45-30.44-44.66-.22,0-.43,0-.65,0,15.59,1,28,20.06,28.73,44.62h0V80.33a4.76,4.76,0,0,0,2.35.62V66.8Z"/><path class="cls-10" d="M123.73,67.46l-2.78.06v0l2.78-.06Z"/><path class="cls-13" d="M46.7,69.89c0,6.37-7.86,11.54-14.23,11.54a11.54,11.54,0,1,1,0-23.08C38.84,58.35,46.7,63.52,46.7,69.89Z"/><path class="cls-14" d="M91.39,115.72c.29,7.67-4.2,14.51-11.17,18.48l-.11.07a28.58,28.58,0,0,1-14,3.59H44.46c-14.32,0-25.79-10-25.32-22.14l1.79-46.36h0a10.43,10.43,0,0,1,.19-1.61A12.52,12.52,0,0,1,22,65.11c.05-.06.09-.27.49-1h0a11.63,11.63,0,0,1,10-5.78c5,0,10.93,3.19,13.24,7.64a6.18,6.18,0,0,0,5.48,3.37h8.23A6.17,6.17,0,0,0,64.9,66c2.4-4.61,9-8.34,15-7.5s9.75,6.45,9.75,12.31Z"/><path class="cls-15" d="M91.39,115.72c.29,7.67-4.2,14.51-11.17,18.48,1.29-4.48,2.41-8.61,2.72-10.21,8.6-45.11-61.81-56.23-61.81-56.23h0A12.52,12.52,0,0,1,22,65.11c.05-.06.09-.27.49-1h0a11.63,11.63,0,0,1,10-5.78c5,0,10.93,3.19,13.24,7.64a6.18,6.18,0,0,0,5.48,3.37h8.23A6.17,6.17,0,0,0,64.9,66c2.4-4.61,9-8.34,15-7.5s9.75,6.45,9.75,12.31Z"/><path class="cls-16" d="M91.27,112.74c-1.25,10.81-12,19.33-25.21,19.33H44.46c-13.19,0-24-8.52-25.21-19.33l-.12,3c-.46,12.11,11,22.15,25.33,22.15h21.6c14.32,0,25.79-10,25.32-22.15Z"/><path class="cls-17" d="M35.82,73.86a6.65,6.65,0,1,1-1.73-11.38A6.65,6.65,0,0,1,35.82,73.86ZM35,68.17a3.33,3.33,0,1,0-4.49,3.6A3.33,3.33,0,0,0,35,68.17Z"/><path class="cls-17" d="M76.24,76.09a6.65,6.65,0,1,1,9-7.2A6.66,6.66,0,0,1,76.24,76.09Zm3.63-9.3a3.33,3.33,0,1,0,.87,5.7A3.33,3.33,0,0,0,79.87,66.79Z"/><path class="cls-10" d="M59.44,111.2a5.46,5.46,0,1,0-8.27,4.67v5.31A2.81,2.81,0,0,0,54,124h0a2.81,2.81,0,0,0,2.81-2.81v-5.31A5.45,5.45,0,0,0,59.44,111.2Z"/><path class="cls-16" d="M56.26,115.73A2.62,2.62,0,0,1,54,118.59a2.93,2.93,0,0,1,0-5.72A2.62,2.62,0,0,1,56.26,115.73Z"/></g></g></svg>