<svg id="घड़ियाल" xmlns="http://www.w3.org/2000/svg" viewBox="0 0 150 160"><defs><style>.cls-1{fill:#fff;}.cls-2{fill:#b7c660;}.cls-3{fill:#a3b554;}.cls-4{fill:#93a04a;}.cls-5{fill:#656b2d;}.cls-6{fill:#dde0a4;}.cls-7{fill:#8b933e;}.cls-8{fill:#d3dd6f;}</style></defs><path class="cls-1" d="M147.46,80.83a3.05,3.05,0,0,0-.92-1.72,4,4,0,0,0-1.41-1.33,3,3,0,0,0-1.53-.45,2.84,2.84,0,0,0-.51,0,3.38,3.38,0,0,0-.72-.08,6,6,0,0,0-.78.06,3,3,0,0,0-1.65.81,4.81,4.81,0,0,0-1.05.38,3.28,3.28,0,0,0-1.14.91,4.48,4.48,0,0,0-.9.35,3,3,0,0,0-1.11.88,4.76,4.76,0,0,0-.87.33,3.41,3.41,0,0,0-.9.65,4.32,4.32,0,0,0-1.21.41,3.45,3.45,0,0,0-.78.53,4.43,4.43,0,0,0-1.23.41,3.76,3.76,0,0,0-.72.48,4.77,4.77,0,0,0-1,.24,3.66,3.66,0,0,0-.92.49h0a4.66,4.66,0,0,0-.86.09,3,3,0,0,0-1,.35,3.19,3.19,0,0,0-.45,0l-.43,0a3.37,3.37,0,0,0-.73.14,3.51,3.51,0,0,0-.94-.12l-.44,0a2.64,2.64,0,0,0-.49.08,3.83,3.83,0,0,0-1.31-.21h-.36a4.59,4.59,0,0,0-1.13-.52,4.54,4.54,0,0,0-.53-.12,3.86,3.86,0,0,0-1.57-.85,4.59,4.59,0,0,0-.57-.13,4.94,4.94,0,0,0-1-.72,3.28,3.28,0,0,0-.58-.25,3.7,3.7,0,0,0-.86-.79,4,4,0,0,0-1.21-1.41l-.26-.18a3.52,3.52,0,0,0-.68-1.43,2.77,2.77,0,0,0-.6-.59,3.57,3.57,0,0,0-.59-.69,2.76,2.76,0,0,0-.72-.5,3.57,3.57,0,0,0-.93-.72,2.33,2.33,0,0,0-.39-.19,2.93,2.93,0,0,0-2.09-.74h0a2.66,2.66,0,0,0-1.23.3,3.34,3.34,0,0,0-1.34.59,2.84,2.84,0,0,0-.54.49,3.61,3.61,0,0,0-.56.36h-.34a4.46,4.46,0,0,0-.65.07,6.39,6.39,0,0,0-.89-.23l-.33,0-.29-.28a4,4,0,0,0-.8-.56,6.08,6.08,0,0,0-.86-.94,4.33,4.33,0,0,0-.51-.39A4.68,4.68,0,0,0,98,73a3.74,3.74,0,0,0-.8-.56,5.12,5.12,0,0,0-1-1.11,3.38,3.38,0,0,0-1.43-.8,5.78,5.78,0,0,0-.77-.63,3.65,3.65,0,0,0-1-.5,5.33,5.33,0,0,0-1-.92,3.38,3.38,0,0,0-1.29-.56,4.88,4.88,0,0,0-1.16-.78,3.28,3.28,0,0,0-1.47-.38H88a4,4,0,0,0-1.76-.5h-.67a3.91,3.91,0,0,0-1.83-.44h-.16a3.47,3.47,0,0,0-1,.14,3,3,0,0,0-.89-.12,4.83,4.83,0,0,0-.79.06,3.27,3.27,0,0,0-1.13.35,2.06,2.06,0,0,0-.35,0,4.74,4.74,0,0,0-1,.11,3.32,3.32,0,0,0-1.38.58,5.05,5.05,0,0,0-1.2.21,3.53,3.53,0,0,0-1.15.57,4.6,4.6,0,0,0-1.17.27,3.31,3.31,0,0,0-1,.54,4.26,4.26,0,0,0-1.45.39,3.87,3.87,0,0,0-1,.63,4.66,4.66,0,0,0-1.21.37,3.41,3.41,0,0,0-1.16.79,5,5,0,0,0-1.06.34,3.49,3.49,0,0,0-1.25.88,4.71,4.71,0,0,0-1.17.48,3.49,3.49,0,0,0-1,.81,4.8,4.8,0,0,0-1.12.52,3.41,3.41,0,0,0-.91.76,4.43,4.43,0,0,0-1.37.7A3.58,3.58,0,0,0,59,76a4.77,4.77,0,0,0-1.14.62,3.75,3.75,0,0,0-.84.79,5.76,5.76,0,0,0-1.09.51,3.83,3.83,0,0,0-.91.76,4.66,4.66,0,0,0-1.37.7,3.77,3.77,0,0,0-.88.85,4.47,4.47,0,0,0-1.14.63,3.87,3.87,0,0,0-.53.44,6,6,0,0,0-.89.19,3.19,3.19,0,0,0-1,.5,4,4,0,0,0-1.46.32,3.56,3.56,0,0,0-1,.59,4.66,4.66,0,0,0-1.24.31l-.5.23a4.45,4.45,0,0,0-.53,0l-.48,0a3.29,3.29,0,0,0-1.12.27,3.36,3.36,0,0,0-.63-.06,5.89,5.89,0,0,0-.85.07,3.54,3.54,0,0,0-1.11.37,2.55,2.55,0,0,0-.39,0,5.91,5.91,0,0,0-.86.07,4.12,4.12,0,0,0-.53.12,4.88,4.88,0,0,0-1.29-.15,3.53,3.53,0,0,0-1.09.16,3.54,3.54,0,0,0-1-.13l-.45,0a3.41,3.41,0,0,0-1.14.27,3.84,3.84,0,0,0-.79-.08l-.45,0a3.19,3.19,0,0,0-.63.1,4.3,4.3,0,0,0-1.21-.15H30.2a3.37,3.37,0,0,0-1.12.19,4,4,0,0,0-.89-.1l-.6,0a3.42,3.42,0,0,0-1.13.3,4.16,4.16,0,0,0-.64,0l-.6,0a3.8,3.8,0,0,0-.62.11,2.93,2.93,0,0,0-1-.17,5.25,5.25,0,0,0-.9.09,3.36,3.36,0,0,0-1.08.37l-.28,0a5.22,5.22,0,0,0-1.19.17,3.59,3.59,0,0,0-1.07.47H19a4.65,4.65,0,0,0-1.18.17,3.67,3.67,0,0,0-1.23.57,5.37,5.37,0,0,0-1.12.28,3.42,3.42,0,0,0-1.07.61,5.12,5.12,0,0,0-.71.22,3.21,3.21,0,0,0-1.31.85,5.68,5.68,0,0,0-.87.25A3.06,3.06,0,0,0,9.86,90L9,90.48,2.42,94.22H144.15l.59-.89a7.84,7.84,0,0,0,1.41-4V89a3.23,3.23,0,0,0-.36-1.47,15.6,15.6,0,0,0,.67-2.07,4.65,4.65,0,0,0,.64-1.41,3.51,3.51,0,0,0,.13-.61A3.75,3.75,0,0,0,147.46,80.83Z"/><path class="cls-2" d="M106.17,78.66c-.46-.79-.61-1.12-1.36-.53s.14,1.33.14,1.33Z"/><path class="cls-2" d="M107.24,77.9c-.41-.81-.55-1.16-1.32-.62s.07,1.34.07,1.34Z"/><path class="cls-2" d="M108.24,78.08c0-1,0-1.34-.87-1.33s-.52,1.2-.52,1.2Z"/><path class="cls-2" d="M109.12,79.07c.35-.86.53-1.19-.28-1.65s-.92.81-.92.81Z"/><path class="cls-2" d="M110,80c.52-.75.76-1,.06-1.69s-1.06.55-1.06.55Z"/><path class="cls-2" d="M110.77,81c.61-.63.88-.86.29-1.65s-1.12.34-1.12.34Z"/><path class="cls-2" d="M111.05,82.12c.7-.52,1-.69.5-1.58s-1.15.13-1.15.13Z"/><path class="cls-2" d="M112.58,83.5c.55-1,.82-1.35-.19-2.12s-1.28.78-1.28.78Z"/><path class="cls-2" d="M13.44,91.31c-.09-.84-.08-1.19-1.22-.78s-.55,1.3-.55,1.3Z"/><path class="cls-2" d="M15.62,90.22c-.09-.85-.08-1.2-1.22-.78s-.55,1.29-.55,1.29Z"/><path class="cls-2" d="M17.39,89.39c-.09-.84-.08-1.19-1.22-.78s-.55,1.3-.55,1.3Z"/><path class="cls-2" d="M19.63,89c0-1,0-1.49-1.3-1.15a1,1,0,0,0-.73,1.51Z"/><path class="cls-2" d="M21.94,88.33c0-1,0-1.48-1.3-1.15a1,1,0,0,0-.74,1.51Z"/><path class="cls-2" d="M24.26,88c0-1.06.1-1.49-1.23-1.26a1,1,0,0,0-.82,1.45Z"/><path class="cls-2" d="M26.62,88c.06-1,.14-1.48-1.21-1.35a1,1,0,0,0-.87,1.39Z"/><path class="cls-2" d="M29,87.75c.06-1,.14-1.47-1.21-1.34a1,1,0,0,0-.87,1.39Z"/><path class="cls-2" d="M31.36,87.73c.12-1,.23-1.46-1.13-1.44s-.95,1.31-.95,1.31Z"/><path class="cls-2" d="M33.46,87.72c.09-1,.18-1.47-1.18-1.38a1,1,0,0,0-.89,1.36Z"/><path class="cls-2" d="M35.84,87.51c.09-1.05.18-1.47-1.18-1.38a1,1,0,0,0-.9,1.36Z"/><path class="cls-2" d="M38.21,87.55c.15-1,.26-1.45-1.1-1.47s-1,1.29-1,1.29Z"/><path class="cls-2" d="M40.48,87.36c0-1,.08-1.48-1.26-1.27a1,1,0,0,0-.81,1.44Z"/><path class="cls-2" d="M42.84,87c0-1.06.08-1.49-1.27-1.28a1,1,0,0,0-.8,1.44Z"/><path class="cls-2" d="M45.21,86.78c.08-1,.16-1.47-1.19-1.37a1,1,0,0,0-.89,1.37Z"/><path class="cls-2" d="M47.53,86.05c-.14-1-.15-1.47-1.44-1a1,1,0,0,0-.58,1.59Z"/><path class="cls-2" d="M49.79,85.15c-.15-1-.15-1.47-1.44-1a1,1,0,0,0-.58,1.59Z"/><path class="cls-2" d="M52.09,84.5c-.08-1-.06-1.49-1.38-1.11a1,1,0,0,0-.66,1.54Z"/><path class="cls-2" d="M54.32,83.06c-.34-1-.43-1.4-1.59-.58a1,1,0,0,0-.26,1.69Z"/><path class="cls-2" d="M56.34,81.58c-.34-1-.42-1.4-1.59-.58a1,1,0,0,0-.25,1.7Z"/><path class="cls-2" d="M58.46,80.33c-.28-1-.34-1.43-1.55-.71a1,1,0,0,0-.36,1.67Z"/><path class="cls-2" d="M60.55,78.82c-.34-1-.43-1.4-1.59-.58a1,1,0,0,0-.26,1.7Z"/><path class="cls-2" d="M62.57,77.35c-.34-1-.43-1.4-1.59-.59a1,1,0,0,0-.25,1.7Z"/><path class="cls-2" d="M64.69,76.1c-.28-1-.35-1.43-1.56-.71a1,1,0,0,0-.35,1.67Z"/><path class="cls-2" d="M66.74,74.88c-.25-1-.3-1.45-1.53-.78a1,1,0,0,0-.41,1.65Z"/><path class="cls-2" d="M68.94,73.75c-.18-1-.2-1.47-1.48-.93A1,1,0,0,0,67,74.43Z"/><path class="cls-2" d="M71.16,72.59c-.18-1-.2-1.45-1.47-.9a1,1,0,0,0-.51,1.59Z"/><path class="cls-2" d="M73.37,71.59c-.18-1-.2-1.45-1.47-.9a1,1,0,0,0-.51,1.59Z"/><path class="cls-2" d="M75.64,70.83c-.12-1-.12-1.46-1.42-1a1,1,0,0,0-.6,1.55Z"/><path class="cls-2" d="M77.83,70.09c-.08-1-.06-1.46-1.37-1.08a1,1,0,0,0-.66,1.51Z"/><path class="cls-2" d="M80.16,69.46c0-1,0-1.47-1.3-1.21a1,1,0,0,0-.75,1.45Z"/><path class="cls-2" d="M82.47,69.11c0-1,.09-1.47-1.25-1.28a1,1,0,0,0-.81,1.41Z"/><path class="cls-2" d="M84.75,69.26c.15-1,.27-1.43-1.08-1.48s-1,1.25-1,1.25Z"/><path class="cls-2" d="M87.1,69.75c.19-1,.33-1.42-1-1.54s-1,1.21-1,1.21Z"/><path class="cls-2" d="M89.21,70.72c.46-.9.69-1.23-.55-1.84s-1.3.75-1.3.75Z"/><path class="cls-2" d="M91.21,72c.55-.82.83-1.11-.34-1.91a.8.8,0,0,0-1.37.55Z"/><path class="cls-2" d="M93.24,73.4c.56-.81.83-1.1-.33-1.91a.8.8,0,0,0-1.38.55Z"/><path class="cls-2" d="M95,74.7c.64-.73.94-1-.13-1.94s-1.42.35-1.42.35Z"/><path class="cls-2" d="M96.8,76.38c.64-.73.94-1-.13-1.94s-1.42.35-1.42.35Z"/><path class="cls-2" d="M98.31,77.94c.63-.73.93-1-.14-1.94s-1.42.35-1.42.35Z"/><path class="cls-2" d="M100,79.44c.64-.73.94-1-.13-1.94s-1.42.35-1.42.35Z"/><path class="cls-2" d="M102.36,79.92c.26-1,.42-1.38-.91-1.62s-1.1,1.11-1.1,1.11Z"/><path class="cls-2" d="M104.52,79.91c.11-1,.2-1.45-1.14-1.42s-.92,1.31-.92,1.31Z"/><path class="cls-2" d="M143.5,84.31c.92.37,1.27.58,1.69-.81s-.92-1.28-.92-1.28Z"/><path class="cls-2" d="M144.46,83c.95-.26,1.34-.31,1-1.74s-1.36-.51-1.36-.51Z"/><path class="cls-2" d="M144.54,81.56c.45-1,.68-1.39-.44-2.06s-1.21.87-1.21.87Z"/><path class="cls-2" d="M143.27,80.74c-.12-1.13-.12-1.59-1.37-1.4s-.57,1.53-.57,1.53Z"/><path class="cls-2" d="M141.4,81.29c-.37-1.06-.47-1.51-1.63-.94s-.21,1.65-.21,1.65Z"/><path class="cls-2" d="M139.36,82.54c-.38-1.05-.48-1.5-1.64-.93s-.2,1.65-.2,1.65Z"/><path class="cls-2" d="M137.38,83.76c-.37-1.06-.47-1.5-1.63-.94s-.21,1.65-.21,1.65Z"/><path class="cls-2" d="M135.27,84.82c-.37-1.06-.47-1.51-1.63-.94s-.21,1.65-.21,1.65Z"/><path class="cls-2" d="M133.27,85.76c-.38-1.06-.48-1.5-1.64-.94s-.21,1.66-.21,1.66Z"/><path class="cls-2" d="M131.19,86.77c-.28-1.1-.34-1.55-1.54-1.14s-.36,1.62-.36,1.62Z"/><path class="cls-2" d="M129,87.66c-.15-1.14-.15-1.6-1.4-1.37s-.53,1.54-.53,1.54Z"/><path class="cls-2" d="M126.76,88.16c-.06-1.14,0-1.6-1.29-1.5s-.65,1.48-.65,1.48Z"/><path class="cls-2" d="M124.65,88.2c-.06-1.14,0-1.6-1.29-1.5s-.65,1.48-.65,1.48Z"/><path class="cls-2" d="M122.52,88.13c0-1.14,0-1.6-1.24-1.56s-.7,1.45-.7,1.45Z"/><path class="cls-2" d="M120.16,87.94c.26-1.14.42-1.58-.83-2s-1,1.2-1,1.2Z"/><path class="cls-2" d="M118.05,87c.26-1.14.42-1.58-.83-2s-1,1.19-1,1.19Z"/><path class="cls-2" d="M115.79,86.1c.43-1.06.65-1.46-.51-2.11s-1.22,1-1.22,1Z"/><path class="cls-2" d="M113.88,84.77c.44-1.06.66-1.46-.43-2.07s-1.18,1-1.18,1Z"/><path class="cls-3" d="M110.19,92.22s-15-25.7-29.45-22.93C71,71.17,61.22,77.52,55.63,81.68,51.16,84.23,45,87.79,30,86.87c-9.59-.59-20,5.35-20,5.35Z"/><path class="cls-2" d="M29.49,88.4c14.92,1.64,21.22-1.62,25.77-4C61,80.55,71,74.68,80.78,73.27c10.29-1.47,21,9.7,25.37,19h4s-15-26.15-29.42-23.37C71,70.72,61.22,77.52,55.63,81.68,51.16,84.23,45,87.79,30,86.87c-9.59-.59-20,5.35-20,5.35h.52C13.55,90.86,21.86,87.57,29.49,88.4Z"/><path class="cls-2" d="M58.47,81.91c17.12-1.12,31,6.76,44.24-.1C97,75,88.78,67.75,80.74,69.29c-7.32,1.41-14.65,5.34-20.22,9C61.07,78.26,57.91,82,58.47,81.91Z"/><path class="cls-4" d="M38.71,90.66c-8,0-20.95.94-26.47,1.56h98s-1.41-2.41-3.77-5.67C94.76,96.38,96,84.15,94,84.46c-2.64.41-9.16,6.27-11.86,6.27-11.89,0-10.51-9.49-14-8.62C64.84,85.09,52.57,90.66,38.71,90.66Z"/><path class="cls-3" d="M96.11,76.94c7.8,5.45,10.2.63,11.24.76,1.24.15,7.49,10.76,17.47,10s15.53-8.33,18.52-7.88c3.43.52.52,10.91-3.74,12s-35.38-.15-35.38-.15S94.06,75.51,96.11,76.94Z"/><path class="cls-2" d="M96.23,76.3c-1-.68-2.1,3.08,2.18,7.26,3.78-.59,8-3.44,9.29-5.67a.81.81,0,0,0-.35-.19C106.31,77.57,104,81.76,96.23,76.3Z"/><path class="cls-2" d="M142,83.63c.5,1,.66,1.46,1.71.75s0-1.68,0-1.68Z"/><path class="cls-2" d="M139.93,85.12c.5,1,.65,1.46,1.7.75s0-1.68,0-1.68Z"/><path class="cls-2" d="M137.51,86.34c.51,1,.66,1.45,1.71.75s0-1.69,0-1.69Z"/><path class="cls-2" d="M135.2,87.44c.51,1,.66,1.45,1.71.75s0-1.69,0-1.69Z"/><path class="cls-2" d="M143.34,79.82c-3-.45-8.51,6.89-18.5,7.65-7.12.54-12.18-4.84-15-7.94C108,81.79,116.7,89.87,125.2,89.87c8,0,16.66-4,19.64-7.72C144.76,80.88,144.3,80,143.34,79.82Z"/><path class="cls-3" d="M102.45,92.22h40.62s1.93-4.09-.64-3.63-21.91,3.83-33-2.43C95.17,78.13,102.45,92.22,102.45,92.22Z"/><path class="cls-2" d="M102.81,84.14c.62-1.26,2.86-.94,3.87.24,3.95,4.63,13.95,7.19,12.93,7.14C106.21,90.89,101,87.85,102.81,84.14Z"/><path class="cls-5" d="M129,91.05c-19.88-.24-26.44-2.51-26.44-6.44a2.18,2.18,0,0,1,.43-1.23c-4.33.29-1,8.53-1,8.53h41a6.38,6.38,0,0,0,1.07-2.84C144.14,85.53,134.85,91.12,129,91.05Z"/><path class="cls-5" d="M102,84.09a.76.76,0,0,1,1.08-.3c.37.28-1.61,1.21,1,3.8,1.48,1.46,8.11,2.47,7.69,2.83-2.53,2.2-7.8-.63-9-2.51S101.43,85.22,102,84.09Z"/><path class="cls-2" d="M92.5,81.31C88,78.84,84.17,89,84.59,92.13h5.06S97.49,84,92.5,81.31Z"/><path class="cls-3" d="M92,86.39c-2.55,3-5.47,4.65-7.41,4.28a6.08,6.08,0,0,0,0,1.46h5.06s5.13-5.31,4.45-8.77A19.38,19.38,0,0,1,92,86.39Z"/><path class="cls-2" d="M67.71,81.42c-6.8-1.22-9,7.88-9.09,10.71h5.44S74.59,82.64,67.71,81.42Z"/><path class="cls-3" d="M67.27,87.4c-3,2.49-6.24,3.6-8.47,3.07a12.16,12.16,0,0,0-.18,1.66h5.44s4.73-4.26,5.78-7.44A17.11,17.11,0,0,1,67.27,87.4Z"/><path class="cls-2" d="M71.61,89.12c-3.41-1.59-12.08,2.12-13.13,3.1H73.19S75,90.71,71.61,89.12Z"/><path class="cls-2" d="M95.37,89.12c-2.78-1.59-9.85,2.12-10.71,3.1h12S98.15,90.71,95.37,89.12Z"/><path class="cls-6" d="M110,90.81a4.48,4.48,0,0,1,.86-2.12c.29-.24.25,2,.25,2Z"/><path class="cls-6" d="M112.25,91.07a5.75,5.75,0,0,1,.94-2.52c.31-.29.24,2.35.24,2.35Z"/><path class="cls-6" d="M115.17,91.25a2.85,2.85,0,0,1,.8-1.62c.28-.18.32,1.56.32,1.56Z"/><path class="cls-6" d="M118.13,91.55a2.65,2.65,0,0,1,.71-1.55c.26-.18.32,1.49.32,1.49Z"/><path class="cls-6" d="M120,91.67a1.83,1.83,0,0,1,.68-1.22c.25-.13.35,1.21.35,1.21Z"/><path class="cls-6" d="M123.35,91.85a1.94,1.94,0,0,1,.68-1.23c.26-.12.36,1.22.36,1.22Z"/><path class="cls-6" d="M126.57,91.61a1.83,1.83,0,0,1,.68-1.22c.25-.13.35,1.21.35,1.21Z"/><path class="cls-6" d="M130.43,91.86a2.38,2.38,0,0,1,.48-1.46c.21-.17.42,1.38.42,1.38Z"/><path class="cls-6" d="M132,91.67a2.54,2.54,0,0,1,.62-1.71c.29-.21.6,1.63.6,1.63Z"/><path class="cls-6" d="M133.91,91.34a3,3,0,0,1,.73-2c.33-.23.65,1.9.65,1.9Z"/><path class="cls-6" d="M135.61,90.77a4.42,4.42,0,0,1,.53-2.71c.34-.37,1.06,2.28,1.06,2.28Z"/><path class="cls-6" d="M137.58,90.72a4.28,4.28,0,0,1,.63-2.58c.34-.33.88,2.27.88,2.27Z"/><path class="cls-6" d="M139.49,90.89a4.26,4.26,0,0,1,.63-2.57c.34-.34.88,2.27.88,2.27Z"/><path class="cls-4" d="M128.85,91.36c-20.09-.23-26.72-2.51-26.72-6.43a2.18,2.18,0,0,1,.43-1.23c-4.37.28-1,8.52-1,8.52h41.48a6.36,6.36,0,0,0,1.08-2.84C144.14,85.84,134.75,91.43,128.85,91.36Z"/><path class="cls-7" d="M144.28,82.11c.53-.53-.44-1.75-1.33-1.68s-3.43,1.33-3,2c.13.21,2-.7,2.54-.62C143.16,81.9,143.8,82.59,144.28,82.11Z"/><path class="cls-2" d="M104.85,79.88c1.27.1,2-.73,2.48-.82,1.13-.21,3.74,5,4.44,4.38.47-3.49-3.26-5.88-4.11-6.24S103.32,79.76,104.85,79.88Z"/><path class="cls-3" d="M102,91.19a7.09,7.09,0,0,1-1.22-6.77,4.9,4.9,0,0,0-.75,4.23A5.23,5.23,0,0,0,102,91.19Z"/><path class="cls-5" d="M102.75,85.05c-.15.07-2,0-1.55-.89s2.08-.68,2.08-.68Z"/><path class="cls-8" d="M84.84,72.27c7,1,10.29,5.82,13.15,7.44h1.56c-3.32-.29-6.42-6.79-14.67-8-11.42-1.62-19.17,5.31-23.65,8H62C66.61,76.78,74.1,70.74,84.84,72.27Z"/><path class="cls-2" d="M14,90.17c.27,1,.33,1.45,1.5,1.06s.36-1.5.36-1.5Z"/><path class="cls-2" d="M16.25,89.58c.27,1,.33,1.45,1.51,1.06s.35-1.5.35-1.5Z"/><path class="cls-2" d="M18.26,89c.27,1,.33,1.44,1.5,1s.36-1.5.36-1.5Z"/><path class="cls-2" d="M20.45,88.34c.12,1.06.12,1.49,1.33,1.29s.55-1.44.55-1.44Z"/><path class="cls-2" d="M22.59,88.13c.21,1,.24,1.46,1.44,1.15s.43-1.48.43-1.48Z"/><path class="cls-2" d="M24.84,87.82c.11,1.06.1,1.49,1.31,1.36s.59-1.4.59-1.4Z"/><path class="cls-2" d="M27.09,87.65c0,1.07-.11,1.49,1.11,1.55s.77-1.29.77-1.29Z"/><path class="cls-2" d="M29.23,87.91c0,1.06,0,1.49,1.23,1.43s.66-1.36.66-1.36Z"/><path class="cls-2" d="M31.36,88.12c.13,1.06.13,1.49,1.34,1.31s.54-1.42.54-1.42Z"/><path class="cls-2" d="M33.6,87.87c0,1.06-.07,1.49,1.15,1.5s.73-1.33.73-1.33Z"/><path class="cls-2" d="M35.74,88c.08,1.07.06,1.49,1.27,1.39s.62-1.38.62-1.38Z"/><path class="cls-2" d="M37.88,88.08c.07,1.06,0,1.49,1.27,1.39s.62-1.38.62-1.38Z"/><path class="cls-2" d="M40.07,88.09c.07,1.06,0,1.49,1.27,1.39s.62-1.39.62-1.39Z"/><path class="cls-2" d="M42.29,88c.07,1.07.05,1.49,1.27,1.39s.62-1.38.62-1.38Z"/><path class="cls-2" d="M44.49,88c.07,1.06,0,1.49,1.27,1.39s.62-1.39.62-1.39Z"/><path class="cls-2" d="M69.41,82c0,1.16,0,1.63,1.29,1.58s.75-1.48.75-1.48Z"/><path class="cls-2" d="M71.85,82c-.14,1.16-.26,1.62,1.06,1.78s.94-1.36.94-1.36Z"/><path class="cls-2" d="M74.14,82.39c0,1.17-.13,1.64,1.19,1.67s.84-1.43.84-1.43Z"/><path class="cls-2" d="M76.42,82.7c0,1.17-.12,1.63,1.2,1.67s.83-1.44.83-1.44Z"/><path class="cls-2" d="M78.78,83c0,1.17-.12,1.63,1.2,1.67s.83-1.44.83-1.44Z"/><path class="cls-2" d="M81.17,83.16c0,1.16-.12,1.63,1.2,1.66s.84-1.43.84-1.43Z"/><path class="cls-2" d="M83.53,83.42c0,1.17-.12,1.63,1.2,1.67s.84-1.43.84-1.43Z"/><path class="cls-2" d="M46.35,87.59c.45,1,.58,1.49,1.65.83s.06-1.69.06-1.69Z"/><path class="cls-2" d="M48.35,86.44c.31,1.12.39,1.58,1.52,1.11s.27-1.66.27-1.66Z"/><path class="cls-2" d="M50.38,85.77c.4,1.08.51,1.53,1.61.94s.14-1.68.14-1.68Z"/><path class="cls-2" d="M52.37,85c.4,1.08.51,1.53,1.61.94s.14-1.68.14-1.68Z"/><path class="cls-2" d="M54.58,83.39c.45,1.45.57,2,1.84,1.48s.18-2.15.18-2.15Z"/><path class="cls-2" d="M56.93,82.5c.44,1.45.57,2,1.84,1.48s.18-2.15.18-2.15Z"/><path class="cls-2" d="M61.73,81c.09,1.54.07,2.16,1.42,2s.68-2,.68-2Z"/><path class="cls-2" d="M59.27,81.72c.45,1.45.58,2.06,1.84,1.48s.18-2.15.18-2.15Z"/><path class="cls-2" d="M85.86,83.59c0,1.17-.13,1.64,1.07,1.72s.78-1.42.78-1.42Z"/><path class="cls-2" d="M94.14,83.94c.31,1.12.39,1.58,1.54,1.14s.27-1.66.27-1.66Z"/><path class="cls-2" d="M96.25,83.47c.31,1.12.39,1.58,1.54,1.14s.27-1.66.27-1.66Z"/><path class="cls-2" d="M98.46,82.82c.31,1.12.39,1.59,1.53,1.14s.28-1.66.28-1.66Z"/><path class="cls-2" d="M100.67,82.23c.31,1.12.39,1.59,1.54,1.14s.27-1.66.27-1.66Z"/><path class="cls-2" d="M102.43,81.33c.46,1,.6,1.49,1.67.84s.05-1.69.05-1.69Z"/><path class="cls-2" d="M110.85,81.7c-.64.9-.93,1.23,0,2.12s1.35-.61,1.35-.61Z"/><path class="cls-2" d="M112,83.54c-.39,1.08-.6,1.49.51,2s1.14-1,1.14-1Z"/><path class="cls-2" d="M113.92,84.91c-.4,1.09-.6,1.5.5,2s1.15-1,1.15-1Z"/><path class="cls-2" d="M133.13,87.8c.19,1.16.22,1.63,1.4,1.37s.46-1.6.46-1.6Z"/><path class="cls-2" d="M130.8,88.2c.06,1.17,0,1.65,1.24,1.56s.62-1.52.62-1.52Z"/><path class="cls-2" d="M128.52,88.55c.06,1.18,0,1.65,1.24,1.56s.62-1.52.62-1.52Z"/><path class="cls-2" d="M126.21,88.67c.06,1.17,0,1.65,1.24,1.56s.62-1.52.62-1.52Z"/><path class="cls-2" d="M123.9,88.83c.06,1.17,0,1.65,1.24,1.56s.62-1.53.62-1.53Z"/><path class="cls-2" d="M121.92,88.53c0,1.18,0,1.65,1.18,1.63s.69-1.48.69-1.48Z"/><path class="cls-2" d="M119.93,88c-.18,1.16-.3,1.61.89,1.85s.91-1.31.91-1.31Z"/><path class="cls-2" d="M118,87.07c-.35,1.11-.53,1.53.6,2s1.09-1.1,1.09-1.1Z"/><path class="cls-2" d="M115.89,86c-.39,1.08-.6,1.49.51,2s1.14-1,1.14-1Z"/><polygon class="cls-4" points="105.04 79.46 105.24 80.09 105.59 79.73 105.04 79.46"/><polygon class="cls-4" points="106.03 78.65 106.23 79.28 106.58 78.93 106.03 78.65"/><polygon class="cls-4" points="107.22 78.03 107.08 78.69 107.54 78.63 107.22 78.03"/><polygon class="cls-4" points="108.51 78.56 107.99 78.86 108.32 79.24 108.51 78.56"/><polygon class="cls-4" points="109.44 79.43 108.89 79.63 109.17 80.07 109.44 79.43"/><polygon class="cls-4" points="110.27 80.58 109.69 80.66 109.9 81.14 110.27 80.58"/><polygon class="cls-4" points="110.72 81.79 110.15 81.87 110.35 82.36 110.72 81.79"/><path class="cls-4" d="M104.27,81.24c.15.61,1.64.63,3.08.91s3,.81,3.08.27c.1-1.45-2.38-4-3.08-3.92S104.12,80.6,104.27,81.24Z"/><path class="cls-5" d="M108.44,80.34a1,1,0,1,0-1,1.22A1.13,1.13,0,0,0,108.44,80.34Z"/><path class="cls-6" d="M108.23,80.35a.81.81,0,1,0-.8,1A.88.88,0,0,0,108.23,80.35Z"/><path class="cls-5" d="M107.56,80.34c0-.29-.06-.52-.13-.52s-.12.23-.12.52.06.51.12.51S107.56,80.62,107.56,80.34Z"/><path class="cls-4" d="M105.44,80.34c.11.33.83-.25,1.89-.2s1.48.73,1.76.33-.8-1.81-1.83-1.56S105.24,79.77,105.44,80.34Z"/><path class="cls-5" d="M107.36,80a8.55,8.55,0,0,0-2.35.42s0,0,0,0c.14.4,1-.31,2.3-.25s1.8.86,2.13.42A7.06,7.06,0,0,0,107.36,80Z"/><path class="cls-2" d="M103.54,80.36c.42.67.56,1,1.34.27a.71.71,0,0,0-.07-1.23Z"/><path class="cls-2" d="M105.05,79.35c.29.46.38.66.93.19a.49.49,0,0,0,0-.84Z"/><path class="cls-2" d="M106.08,78.47c.21.46.27.66.86.28A.45.45,0,0,0,107,78Z"/><path class="cls-2" d="M107.43,77.89c-.15.49-.23.68.4,1s.54-.45.54-.45Z"/><path class="cls-2" d="M108.59,78.58c-.27.41-.39.56.11,1s.62-.26.62-.26Z"/><path class="cls-2" d="M109.49,79.44c-.32.36-.47.48,0,1.1s.71-.08.71-.08Z"/><path class="cls-2" d="M110.34,80.6c-.41.21-.6.38-.31,1.08s.68.15.68.15Z"/><path class="cls-3" d="M93,80.45h1.56c-17.85-6-23.78-1.18-28.73-.16h1.63C72,78.87,78.21,75.84,93,80.45Z"/><path class="cls-8" d="M95.68,92.22h3.57a5.62,5.62,0,0,0-2.46-1.29C95.73,90.87,95.68,92.22,95.68,92.22Z"/><path class="cls-8" d="M92.72,92.22h3.56a5.55,5.55,0,0,0-2.46-1.29C92.77,90.87,92.72,92.22,92.72,92.22Z"/><path class="cls-8" d="M90.51,92.22h3.57a5.61,5.61,0,0,0-2.47-1.29C90.56,90.87,90.51,92.22,90.51,92.22Z"/><path class="cls-8" d="M71.88,92.22h3.56A5.55,5.55,0,0,0,73,90.93C71.93,90.87,71.88,92.22,71.88,92.22Z"/><path class="cls-8" d="M68.91,92.22h3.57A5.62,5.62,0,0,0,70,90.93C69,90.87,68.91,92.22,68.91,92.22Z"/><path class="cls-8" d="M66.7,92.22h3.57a5.62,5.62,0,0,0-2.46-1.29C66.75,90.87,66.7,92.22,66.7,92.22Z"/></svg>