<svg id="भोजन" xmlns="http://www.w3.org/2000/svg" viewBox="0 0 150 160"><defs><style>.cls-1,.cls-13,.cls-14{fill:#fff;}.cls-1{stroke:#fff;stroke-miterlimit:10;stroke-width:5px;}.cls-2{fill:#a9534f;}.cls-3{fill:#853f38;}.cls-4{fill:#ffa755;}.cls-5{fill:#ec894b;}.cls-6{fill:#5f454f;}.cls-7{fill:#7f5e6a;}.cls-8{fill:#352836;}.cls-9{fill:#c6b6b6;}.cls-10{fill:#a5eeff;}.cls-11{fill:#93d5e0;}.cls-12{opacity:0.4;}.cls-13{opacity:0.6;}.cls-15{fill:#eddadb;}.cls-16{fill:#ffedee;}.cls-17{fill:#58a4a0;}.cls-18{fill:#438584;}.cls-19{fill:#ff6a59;}</style></defs><path class="cls-1" d="M127.09,133.18c0-3-7.41-5.65-19-7.41,2.79-2,2.54-9,.26-16.76l.06-1.48,1.6-.13c.17-7.69-1.07-19.33-2.4-22.93C104.81,77,94.48,72.82,89.05,70.13c-.27.21-.56.39-.83.57a14.94,14.94,0,0,1-1.87-1.08c-.5-2.15-1-4.21-1.41-6.05,2.88-.66,2.78-3.73,2.16-6.25,2.21-2.62,3.53-6.35,4.13-10.89,1.76-.27,3.31-2.37,3.54-5.65.28-3.87-2.66-4.13-2.93-4.15h-.07c-.07-2-.2-4.17-.43-5.89a18.76,18.76,0,0,0,5.76-1.25l-5.4-.9s11.9-5.31,10.85-14c0,0-6,5.47-10.55,3.82,0,0,2.39.71,4.34-2,0,0-1.19.64-11.68-2.21s-17.24-3-19.48,5.4a7,7,0,0,0-8.25,4c-2.47,5.21.71,13.17,1.26,14.48-1.71,2.86,1.07,8.69,3.66,8.34,1,5.21,3.26,9.33,6.83,11.95,0,.65,0,1.37,0,2.13h0c-.16,3.66-.89,7.9-4,9.55-.25-.2-.5-.39-.73-.6,0,0-19.47,6.51-22.19,18.54-1.66,7.3-3.07,17.59-3.07,17.59l3,.5c0,.74,0,1.84,0,2.69h0c0,.82,0,1.75,0,2.76-2.56-.36-9.92,0-8.89,1.78h-.17l.48,14.14c-6.41,1.59-10.2,3.56-10.2,5.7h0V138c0,5.3,23.32,9.6,52.09,9.6s52.09-4.3,52.09-9.6v-4.79ZM84.56,60.38c.45,2-.11,1.45-.72-.37l.58-.34C84.46,59.91,84.51,60.14,84.56,60.38Zm-1.2,3.39s0-.08,0-.12h0c0,.32.1.67.16,1.05C83.48,64.39,83.41,64.08,83.36,63.77Zm2.55-2.39a6.3,6.3,0,0,1-.62-2.32c.27-.21.53-.43.79-.67,0,.55.11,1.13.19,1.75C86.27,60.14,86.58,61.8,85.91,61.38Z"/><path class="cls-2" d="M44.84,85.14c3.28-8.8,17.06-13,20.57-15.56,4.5-3.27,3.07-14.12,3.07-14.12l7.37.19,7.37-.19s-1.43,10.85,3.07,14.12c3.51,2.55,17.52,6.76,20.79,15.56s0,41.46,0,41.46H46S41.57,93.94,44.84,85.14Z"/><path class="cls-3" d="M84.58,67.56a25.48,25.48,0,0,1-9.92-2.73,34,34,0,0,1-6-4.3,33.3,33.3,0,0,0-.19-5.07l7.37.19,7.37-.19S82.2,63.18,84.58,67.56Z"/><path class="cls-3" d="M107.08,85.14c3.28,8.8,0,41.46,0,41.46L92.47,98.13Z"/><path class="cls-4" d="M99.59,108.2l10.39-.8c.17-7.69-1.07-19.33-2.4-22.93C104.81,77,94.48,72.82,89.05,70.13c-3.47,2.72-8.17,3.66-13,3.52-3.39-.09-7.12-.64-10-2.54a18.27,18.27,0,0,1-2.14-1.63c-4.88,2.66-16.56,6.93-19.57,15-3.32,9,1.12,42.13,1.12,42.13h60.91Z"/><path class="cls-5" d="M44.16,114.88c.63,6.68,1.3,11.72,1.3,11.72h60.91l-5.27-16.23C82.08,111.47,63.06,112.54,44.16,114.88Z"/><path class="cls-2" d="M57.9,107.23l0-1-16.16-.73s-1.21,21.11,5.9,21.57c1.54.1,4.17.16,7.44.19C55.93,120.57,56.89,113.9,57.9,107.23Z"/><path class="cls-3" d="M57.3,111.28l.6-4,0-1-16.16-.73s-.08,1.32-.08,3.31c4.51.93,9.12,1.51,13.65,2.19Z"/><path class="cls-4" d="M63.91,69.48S44.44,76,41.72,88c-1.66,7.3-3.07,17.59-3.07,17.59L58.85,109l.83-14.83Z"/><path class="cls-6" d="M120.12,133.18c-9-2.87-25.84-4.8-45.12-4.8s-36.11,1.93-45.12,4.8h-7V138c0,5.3,23.32,9.6,52.09,9.6s52.09-4.3,52.09-9.6v-4.79Z"/><ellipse class="cls-7" cx="75" cy="133.18" rx="52.09" ry="9.59"/><path class="cls-3" d="M64.69,39.44c-1.19-3.7-4-2.84-4.27-2.75s-3.19.46-2.69,4.31,2.75,6,4.86,5.35C64.75,46,65.89,43.15,64.69,39.44Z"/><path class="cls-3" d="M94.77,40.78c.28-3.87-2.66-4.13-2.93-4.15s-3.14-.76-4.11,3,.33,6.56,2.51,6.78C92.38,46.9,94.5,44.67,94.77,40.78Z"/><path class="cls-2" d="M61.39,32.74c1.47-16.19,13.78-15.28,14.94-15.16,1.16-.12,13.47-1,14.94,15.16S89.75,61,78.06,61.55C64.43,60.65,59.91,49,61.39,32.74Z"/><path class="cls-3" d="M79.62,36.2A29,29,0,0,1,81.09,41,45.72,45.72,0,0,1,81.93,46l0,.46-.38.09a19.94,19.94,0,0,1-3,.47,17.64,17.64,0,0,1,2.74-1.39l-.33.55a48.53,48.53,0,0,1-1-4.91A29.83,29.83,0,0,1,79.62,36.2Z"/><path class="cls-8" d="M89,35a20.15,20.15,0,0,0-4.19-1.18A4.89,4.89,0,0,0,83,34a8.5,8.5,0,0,0-1.06.29,11.66,11.66,0,0,1-1.22.4,4.21,4.21,0,0,1,.5-1.27,4,4,0,0,1,1-1A3.87,3.87,0,0,1,85,31.54a4.57,4.57,0,0,1,2.62,1.15A4.2,4.2,0,0,1,89,35Z"/><path class="cls-8" d="M74.28,34.14A20,20,0,0,0,70.09,33a5.17,5.17,0,0,0-1.81.13c-.34,0-.66.21-1,.3s-.75.29-1.23.4a4.51,4.51,0,0,1,.51-1.27,3.84,3.84,0,0,1,.94-1,3.91,3.91,0,0,1,2.84-.82,4.57,4.57,0,0,1,2.62,1.15A4.17,4.17,0,0,1,74.28,34.14Z"/><path class="cls-8" d="M87.5,41.11A15.43,15.43,0,0,0,86.33,39a2.32,2.32,0,0,0-1.59-1.12c-.5-.1-1,.44-1.45,1.08a23.35,23.35,0,0,0-1.14,2.18,5.82,5.82,0,0,1,.39-2.56,3.79,3.79,0,0,1,.76-1.2,2,2,0,0,1,1.52-.58,2.54,2.54,0,0,1,1.42.63,3.45,3.45,0,0,1,.81,1.15A5.11,5.11,0,0,1,87.5,41.11Z"/><path class="cls-8" d="M73.34,41.11A13.59,13.59,0,0,0,72.17,39a2.3,2.3,0,0,0-1.59-1.12c-.5-.1-1,.44-1.45,1.08s-.76,1.41-1.14,2.18a6,6,0,0,1,.39-2.56,3.79,3.79,0,0,1,.76-1.2,2,2,0,0,1,1.52-.58,2.54,2.54,0,0,1,1.42.63,3.63,3.63,0,0,1,.82,1.15A5.21,5.21,0,0,1,73.34,41.11Z"/><path class="cls-3" d="M72.27,46.05a6.52,6.52,0,0,1,2.32,1.43,6.21,6.21,0,0,1,1.59,2.3,4.57,4.57,0,0,1,.15,2.85A4.89,4.89,0,0,1,74.89,55a9.46,9.46,0,0,0,.67-2.48,5,5,0,0,0-.31-2.36A12.44,12.44,0,0,0,72.27,46.05Z"/><path class="cls-3" d="M83,50.51a12.37,12.37,0,0,0-1.72,0,15.42,15.42,0,0,0-1.68.16,21.29,21.29,0,0,0-3.22.77L76,49.88a12.18,12.18,0,0,1,1.8-.25,13.52,13.52,0,0,1,1.8,0A10.24,10.24,0,0,1,83,50.51Z"/><path class="cls-8" d="M59.93,37.12s1.35,1.65,1.5,7.49l1.8-.3L62.93,28S74,32.62,80.16,30.68l-3.9-2.1s12.44,4.34,20.84.9l-5.4-.9s9-3.45,7.94-12.14A7.22,7.22,0,0,1,92,18.39a7.94,7.94,0,0,0,5.25-3s-2.1,1.65-12.59-1.2-17.24-3-19.48,5.4a7,7,0,0,0-8.25,4c-2.69,5.7,1.35,14.69,1.35,14.69Z"/><path class="cls-8" d="M65.33,27.68s-.3,7.19-3.15,8.69S59,28.58,59,28.58Z"/><path class="cls-8" d="M88.7,30.23A10.5,10.5,0,0,0,91,37v6.74l.9.3s.15-9.14-.6-13.93S88.7,30.23,88.7,30.23Z"/><path class="cls-9" d="M83.15,62.06c.52,3.81,5.39,34.73,7.65,27.51,0,0-3.94-18-6.22-27.52A13.64,13.64,0,0,1,83.15,62.06Z"/><path class="cls-9" d="M80.4,54.66s-1.75,9.69,4,9,1.42-9.84,1.42-9.84a43.37,43.37,0,0,0,.4,6.33s.31,1.66-.36,1.24-.9-5.93-2-7.47a32.08,32.08,0,0,0,.66,6.47c.55,2.4-.39,1.13-1.09-1.67-.57-2.25-1-4.44-1.34-4.41s.25,5,.3,7.06c0,1.22-.26.34-.73-1.37A39.67,39.67,0,0,0,80.4,54.66Z"/><path class="cls-2" d="M109,111.7C106.46,100,95.6,83.27,95.6,83.27h0c-1.77-3.48-3.55-6.87-4.18-7.69C90,73.77,84,72.23,83.47,72.74s.87,2.32.87,2.32-2.54.14-.2,2.47c0,0-2,1.37,1.06,3.65,0,0-1.83.53.16,1.93,1.7,1.2,4,2.71,4.68,3.12,1.22,9,4.92,34.52,8.24,38.82.54.69,4.84,4.19,6.63,2.47a2.14,2.14,0,0,0,.93-.25C109.31,125.35,111.59,123.4,109,111.7Z"/><path class="cls-6" d="M47.93,135.12c0,1.11-4,2-9,2s-9-.9-9-2,4-2,9-2S47.93,134,47.93,135.12Z"/><path class="cls-10" d="M45.66,113.34h-13l.72,21.35h0c0,.9,2.61,1.62,5.8,1.62s5.77-.72,5.79-1.62h0Z"/><path class="cls-11" d="M32.68,113c0,.89,2.9,1.6,6.49,1.6s6.49-.71,6.49-1.6-2.9-1.6-6.49-1.6S32.68,112.15,32.68,113Z"/><g class="cls-12"><path class="cls-13" d="M44.19,117H34.11l.55,16.52h0c0,.69,2,1.25,4.48,1.25s4.47-.56,4.48-1.25h0Z"/><ellipse class="cls-14" cx="39.17" cy="117.21" rx="5.11" ry="1.26"/></g><ellipse class="cls-6" cx="79.12" cy="131.07" rx="29.01" ry="4.93"/><path class="cls-15" d="M49.27,125.69s5.82,10.45,27.33,9.19,23.71-9.19,23.71-9.19Z"/><ellipse class="cls-16" cx="74.79" cy="125.1" rx="25.52" ry="6.11"/><ellipse class="cls-15" cx="74.79" cy="124.76" rx="21.61" ry="4.97"/><path class="cls-17" d="M64.45,129.62s-8.78-.55-8.22-5-.56-6.78,5.79-5.5-.75,5.14,8,5.14,5.6,5.5,5.6,5.5S68,130.35,64.45,129.62Z"/><path class="cls-18" d="M60.43,126.39s5.79-5.2,12.59-5,.2,8.59.2,8.59S62,129,60.43,126.39Z"/><path class="cls-18" d="M71.22,126.39s8.39-5.4,12.79-4c0,0-2.2,4.8,2.2,6.39,0,0-8.8,1.4-13,1.2S71.22,126.39,71.22,126.39Z"/><path class="cls-17" d="M82.41,129.38s4.59-5.19,8-5.79,5.2,2.8,5.2,2.8S90.8,129.38,82.41,129.38Z"/><path class="cls-18" d="M78,123.59l5.6-4.2,7.59,5.2-3.6,3S80.21,129.58,78,123.59Z"/><path class="cls-19" d="M61.63,125s-.2-7.4,5.59-2.6Z"/><path class="cls-19" d="M85.47,125.81s-1.81,7.17-6.09,1Z"/><path class="cls-19" d="M86.81,125.76s2.64-6.91,6.16-.27Z"/><path class="cls-19" d="M75.45,125.05s2.45-7,6.15-.43Z"/><path class="cls-19" d="M74.09,122.59s-.86,7.35-5.91,1.77Z"/><path class="cls-19" d="M69.06,128.2s-5.53,4.19-5-2.85Z"/><polygon class="cls-17" points="70.82 123.59 74.42 120.19 80.81 126.59 70.82 128.98 70.82 123.59"/></svg>