<svg id="बगुला" xmlns="http://www.w3.org/2000/svg" viewBox="0 0 150 160"><defs><style>.cls-1,.cls-13,.cls-2,.cls-3{fill:#fff;}.cls-1,.cls-2,.cls-3{stroke:#fff;stroke-miterlimit:10;stroke-width:5px;}.cls-2,.cls-6{opacity:0.3;}.cls-11,.cls-16,.cls-3{opacity:0.2;}.cls-4{fill:#704b37;}.cls-5{fill:#a7abaf;}.cls-10,.cls-6{fill:#2a323a;}.cls-7{fill:#967057;}.cls-8{fill:#9cb7d5;}.cls-9{fill:#dbdddd;}.cls-11{fill:#4b586b;}.cls-12{fill:#998675;}.cls-14{fill:#6a737c;}.cls-15{fill:#ff931e;}.cls-16{fill:#c1272d;}</style></defs><path class="cls-1" d="M57.1,96.71l1,40.13a.86.86,0,0,1-.61.85,37.54,37.54,0,0,0-5.69,2.21.18.18,0,0,0,.12.34,59.08,59.08,0,0,1,7.38-1c1.67,0,4.32,1.34,5.71,2.11a.23.23,0,0,0,.3-.34c-.66-.88,2.64-.88,1.83-1l1.25,1.37c.19.08.35-.17.19-.29a19,19,0,0,0-8.07-4,.78.78,0,0,1-.61-.75L58.87,94Z"/><path class="cls-1" d="M53.68,87.7c.59.88,2.22,10.53,4.12,10.61s8.85-14.74,8.85-14.74Z"/><path class="cls-2" d="M53.68,87.7c.59.88,2.22,10.53,4.12,10.61s8.85-14.74,8.85-14.74Z"/><path class="cls-1" d="M62.08,95.71s-6.34,18.46-5.16,21.12,14.14,4.58,20.33,9.82a1.92,1.92,0,0,1,.66,1.34,19.27,19.27,0,0,1-1.24,8.34s3-.29,3.54-6.19c0,0,3.53,4.72,2.94,7.66-.09.47,2.95-2.94-.88-8.25,0,0,6.54,1.15,5.39,4.85,0,0-.61-.92-2.44-4s-2.07-4.13-6-5.93S60,117.15,59.28,115.17s5.6-19.46,5.6-19.46Z"/><path class="cls-1" d="M25.23,99.85h0c.21-.08,17.74-6.42,27.7-8.76a40.34,40.34,0,0,0,4.37-1.32c.9-.32,1.8-.68,2.7-1.06,0,0,0,0,0,0-.14,1-.3,2.27-.4,3.64-.3,4.17,0,8.94,3.34,7.07,2.3-1.29,6.53-8,9.87-13.73,1.44-2.47,2.71-4.76,3.59-6.38h0l4.81-3.26a48.87,48.87,0,0,0,4.19-3.2,44.84,44.84,0,0,0,3.79-3.64s0,0,0,0c-1.1,1.64-.14,2.63.57,2.76-.33-.66.3-.69.3-1.49A6.74,6.74,0,0,1,91.9,66a0,0,0,0,1,0,0c-.09,2.73.68,2.85.68,2.85-.85-1.4,1.64-6.31,1.88-6.77,0,0,0,0,0,0-.35,3.51.74,5.37,1.17,6-1-1.69-.13-7.37,0-8.1h0c0,2.94,2.39,5.77,3.79,7.21a.28.28,0,0,0,.46-.29,41.43,41.43,0,0,1-1.83-14.21h0c.1-.45.19-.9.26-1.36s.11-.74.14-1.1v0c.55-7.1-5.19-11.22-8.39-12.94a3.83,3.83,0,0,1-1.9-4.62,2.72,2.72,0,0,1,.36-.7c.74-1.09,2.15-1.65,4.19-2.42,3.32-1.25,6.37-2.54,8.6-3.52S105,24.33,105,24.32h0c-.55-2.77-6.65-4.23-9-5.05a14.54,14.54,0,0,0-4.69-.7,10.75,10.75,0,0,0-9.12,5.48h0l0,.07a16.67,16.67,0,0,0-1.44,3,12.73,12.73,0,0,0,.19,8.38s0,0,0,0c.06.19.13.39.21.59,0,0,0,0,0,.06A27.57,27.57,0,0,0,88,46.28c4.32,4.12.22,9.39-2.65,12.19a3,3,0,0,1-4.16.06c-2-1.83-5.09-4.75-7.93-5.17-6.93-1-11.94-.74-27.86,10.75-2.52,1.83-6,5.75-7.75,7.84h0a15.91,15.91,0,0,0-4,3.11C31.17,77.7,31,79.74,31,79.74a21.47,21.47,0,0,1,3.85-4C28.23,85.78,25.28,99.65,25.23,99.85Z"/><path class="cls-1" d="M95.65,68a2.58,2.58,0,0,0,.18.21A.94.94,0,0,1,95.65,68Z"/><path class="cls-1" d="M80.84,35.5a4.57,4.57,0,0,1,.87-3.6,3.17,3.17,0,0,0,.85,3c-.86-2.58,3-4.47,3.25-4.58-1.16.73-1.48,3.4-1.48,3.4.59-2.65,3.77-.93,3.77-.93a3.4,3.4,0,0,1,.44-.92c.74-1.09,2.15-1.65,4.19-2.42,3.32-1.25,6.37-2.54,8.6-3.52S105,24.32,105,24.32c-.56-2.77-6.65-4.23-9-5.05a14.54,14.54,0,0,0-4.69-.7,10.75,10.75,0,0,0-9.12,5.48h0l0,.07a16.67,16.67,0,0,0-1.44,3A12.73,12.73,0,0,0,80.84,35.5Z"/><path class="cls-1" d="M81.37,24.34c-2.14.47-7.12,0-7.12,0C78.64,23.21,84.7,21,84.7,21h0a10.07,10.07,0,0,1,6.56-2.48,14.54,14.54,0,0,1,4.69.7s-4,0-5.72,2.69c-.45.67-5,1.46-5.88,1.75l0,0c-1.71,2.37-5.53,2.69-5.53,2.69C80.89,25.43,79.8,25.74,81.37,24.34Z"/><path class="cls-1" d="M67.12,56.28s5.08-1.37,7.13,2.95A14.63,14.63,0,0,0,67.12,56.28Z"/><path class="cls-3" d="M88.54,31.9c.74-1.09,2.15-1.65,4.19-2.42,3.32-1.25,6.37-2.54,8.6-3.52l-3.27-1.59S85.67,30.05,88.54,31.9Z"/><ellipse class="cls-1" cx="93.2" cy="22.04" rx="1.39" ry="1.8" transform="translate(68.74 114.64) rotate(-88.5)"/><path class="cls-1" d="M92.09,22c-.07.54.44,1,1.14,1.13a1.17,1.17,0,0,0,1.39-.83c.06-.54-.45-1-1.15-1.13A1.16,1.16,0,0,0,92.09,22Z"/><path class="cls-1" d="M93.08,21.17a.48.48,0,0,0,.23.65.49.49,0,0,0,.42-.89A.49.49,0,0,0,93.08,21.17Z"/><path class="cls-2" d="M57.31,89.77c.9-.32,1.81-.68,2.72-1.07A16.12,16.12,0,0,0,57.31,89.77Z"/><path class="cls-1" d="M66.73,62.12s-3.65-.41-4,4.55C62.77,66.67,61.67,59.37,66.73,62.12Z"/><path class="cls-1" d="M67.12,62.06s-2.62,1.21-2.58,7.19C64.54,69.25,63.37,61.18,67.12,62.06Z"/><path class="cls-1" d="M44.49,90.39a6.22,6.22,0,0,1-4.62,6.7A15.61,15.61,0,0,0,44.49,90.39Z"/><path class="cls-1" d="M56.33,87.11s-2.84,4.43-7.25,2.61A14.65,14.65,0,0,0,56.33,87.11Z"/><path class="cls-1" d="M39.82,83.85s-1.9-4.91,2.19-7.39A14.57,14.57,0,0,0,39.82,83.85Z"/><path class="cls-2" d="M58.35,88.53,58.06,91a6.89,6.89,0,0,1,2.28-3.67l1.29-.8v2.49c0-1.65,1.89-3.59,3.3-4.8.47-.35.92-.71,1.37-1.08l.14-.1a34.94,34.94,0,0,0-1.22,4c.41-1.42,5.09-7.48,6.76-9.62l.56-.71,0,0h0c4-5.29,3.74-9.1,2-12.22a8.66,8.66,0,0,0-2.7-3s9.77,11.43-15.58,28.1C57,89.25,57.68,88.9,58.35,88.53Z"/><path class="cls-1" d="M98.06,24.37l2.14,1.94a.36.36,0,0,0,.3.11l21-1.05a.39.39,0,0,0,0-.77l-20.29-3.49a.39.39,0,0,0-.33.09l-2.84,2.38-.09.1A.54.54,0,0,0,98.06,24.37Z"/><path class="cls-3" d="M98.06,24.37l2.14,1.94a.36.36,0,0,0,.3.11l21-1.05a.36.36,0,0,0,.33-.39l-23.75-1.4-.09.1A.54.54,0,0,0,98.06,24.37Z"/><path class="cls-4" d="M57.1,96.71l1,40.13a.86.86,0,0,1-.61.85,37.54,37.54,0,0,0-5.69,2.21.18.18,0,0,0,.12.34,59.08,59.08,0,0,1,7.38-1c1.67,0,4.32,1.34,5.71,2.11a.23.23,0,0,0,.3-.34c-.66-.88-1.73-2.11-2.53-2.24l5.61,2.6c.19.08.35-.17.19-.29a19,19,0,0,0-8.07-4,.78.78,0,0,1-.61-.75L58.87,94Z"/><path class="cls-5" d="M53.68,87.7c.59.88,2.22,10.53,4.12,10.61s8.85-14.74,8.85-14.74Z"/><path class="cls-6" d="M53.68,87.7c.59.88,2.22,10.53,4.12,10.61s8.85-14.74,8.85-14.74Z"/><path class="cls-7" d="M62.08,95.71s-6.34,18.46-5.16,21.12,14.14,4.58,20.33,9.82a1.92,1.92,0,0,1,.66,1.34,19.27,19.27,0,0,1-1.24,8.34s3-.29,3.54-6.19c0,0,3.53,4.72,2.94,7.66-.09.47,2.95-2.94-.88-8.25,0,0,4.42,5.31,4.86,8.39,0,0-.08-4.46-1.91-7.5s-2.07-4.13-6-5.93S60,117.15,59.28,115.17s5.6-19.46,5.6-19.46Z"/><path class="cls-5" d="M28.18,96.39s14.74-3,24.76-5.3a40.34,40.34,0,0,0,4.37-1.32c.9-.32,1.81-.68,2.72-1.07-.15,1-.31,2.29-.41,3.66-.3,4.17,0,8.94,3.34,7.07,2.3-1.29,6.53-8,9.87-13.73,1.44-2.47,2.71-4.76,3.59-6.38l4.82-3.27a48.87,48.87,0,0,0,4.19-3.2,43.44,43.44,0,0,0,3.85-3.71c.06,3.41,1.45,4.9,1.53,5a5,5,0,0,1-.45-2.22A16.06,16.06,0,0,1,91.91,66c-.09,2.74.68,2.86.68,2.86-.89-1.47,1.9-6.81,1.9-6.81-.37,3.54.72,5.42,1.16,6-1.09-1.81,1-10.55,1-10.55a16.57,16.57,0,0,0,1.83,7.66c-1.44-3-.87-9.06-.4-12.49.1-.45.19-.9.26-1.36s.11-.74.14-1.1v0C99,43,93.12,38.84,90,37.16a3.74,3.74,0,0,1-1.85-4.34,3.4,3.4,0,0,1,.44-.92c.74-1.09,2.15-1.65,4.19-2.42,3.32-1.25,6.37-2.54,8.6-3.52S105,24.32,105,24.32c-.56-2.77-6.65-4.23-9-5.05a14.54,14.54,0,0,0-4.69-.7,10.75,10.75,0,0,0-9.12,5.48h0l0,.07a16.67,16.67,0,0,0-1.44,3,12.73,12.73,0,0,0,.19,8.38s0,0,0,0c.06.19.13.39.21.59,0,0,0,0,0,.06A27.57,27.57,0,0,0,88,46.28c4.32,4.12.22,9.39-2.65,12.19a3,3,0,0,1-4.16.06c-2-1.83-5.09-4.75-7.93-5.17-6.93-1-11.94-.74-27.86,10.75-2.52,1.83-6,5.75-7.75,7.84a15.92,15.92,0,0,0-4,3.11C31.17,77.7,31,79.74,31,79.74a21.47,21.47,0,0,1,3.85-4A41.6,41.6,0,0,0,28.18,96.39Z"/><path class="cls-8" d="M95.65,68a2.58,2.58,0,0,0,.18.21A.94.94,0,0,1,95.65,68Z"/><path class="cls-9" d="M80.84,35.5a4.57,4.57,0,0,1,.87-3.6,3.17,3.17,0,0,0,.85,3c-.86-2.58,3-4.47,3.25-4.58-1.16.73-1.48,3.4-1.48,3.4.59-2.65,3.77-.93,3.77-.93a3.4,3.4,0,0,1,.44-.92c.74-1.09,2.15-1.65,4.19-2.42,3.32-1.25,6.37-2.54,8.6-3.52S105,24.32,105,24.32c-.56-2.77-6.65-4.23-9-5.05a14.54,14.54,0,0,0-4.69-.7,10.75,10.75,0,0,0-9.12,5.48h0l0,.07a16.67,16.67,0,0,0-1.44,3A12.73,12.73,0,0,0,80.84,35.5Z"/><path class="cls-10" d="M81.37,24.34A38.69,38.69,0,0,1,76.6,25,26.45,26.45,0,0,0,84.7,21h0a10.07,10.07,0,0,1,6.56-2.48,14.54,14.54,0,0,1,4.69.7s-4,0-5.72,2.69c-.45.67-5,1.46-5.88,1.75l0,0c-1.71,2.37-8.63,4.58-8.63,4.58A25.52,25.52,0,0,0,81.37,24.34Z"/><path class="cls-9" d="M90.71,67.61s-1.76-5,2.4-7.33A14.56,14.56,0,0,0,90.71,67.61Z"/><path class="cls-9" d="M67.12,56.28s5.08-1.37,7.13,2.95A14.63,14.63,0,0,0,67.12,56.28Z"/><path class="cls-11" d="M88.54,31.9c.74-1.09,2.15-1.65,4.19-2.42,3.32-1.25,6.37-2.54,8.6-3.52l-3.27-1.59S85.67,30.05,88.54,31.9Z"/><ellipse class="cls-12" cx="93.2" cy="22.04" rx="1.39" ry="1.8" transform="translate(68.74 114.64) rotate(-88.5)"/><path d="M92.09,22c-.07.54.44,1,1.14,1.13a1.17,1.17,0,0,0,1.39-.83c.06-.54-.45-1-1.15-1.13A1.16,1.16,0,0,0,92.09,22Z"/><path class="cls-13" d="M93.08,21.17a.48.48,0,0,0,.23.65.49.49,0,0,0,.42-.89A.49.49,0,0,0,93.08,21.17Z"/><path class="cls-6" d="M57.31,89.77c.9-.32,1.81-.68,2.72-1.07A16.12,16.12,0,0,0,57.31,89.77Z"/><path class="cls-14" d="M29.51,98.31A101.27,101.27,0,0,0,56.33,89.6h0c.68-.35,1.35-.7,2-1.07L58.06,91a6.89,6.89,0,0,1,2.28-3.67l1.29-.8v2.49c0-1.65,1.89-3.59,3.3-4.8.47-.35.92-.71,1.37-1.08l.14-.1a34.94,34.94,0,0,0-1.22,4c.41-1.42,5.09-7.48,6.76-9.62l.56-.71,0,0h0c4-5.29,3.74-9.1,2-12.22a8.66,8.66,0,0,0-2.7-3,7.82,7.82,0,0,0-3.56-1.34,30,30,0,0,0-11.14.92c-1.42,1-3.77,3.2-5.55,8a21.58,21.58,0,0,1,2.07-5.62c.27-.55.52-1,.76-1.49-.38.14-.77.28-1.16.44A17.42,17.42,0,0,0,51,63.48c-.57.47-3.13,2.87-3.58,8.31a14.82,14.82,0,0,1,.36-4.72c.12-.64.25-1.2.36-1.68-7.68,6-12.29,16.68-12.37,20.7C35.66,91,29.51,98.31,29.51,98.31Z"/><path class="cls-10" d="M66.73,62.12s-3.65-.41-4,4.55C62.77,66.67,61.67,59.37,66.73,62.12Z"/><path class="cls-10" d="M67.12,62.06s-2.62,1.21-2.58,7.19C64.54,69.25,63.37,61.18,67.12,62.06Z"/><path class="cls-10" d="M44.49,90.39a6.22,6.22,0,0,1-4.62,6.7A15.61,15.61,0,0,0,44.49,90.39Z"/><path class="cls-10" d="M44.11,90.45a7.34,7.34,0,0,1-8.35,4.76A18.37,18.37,0,0,0,44.11,90.45Z"/><path class="cls-10" d="M56.33,87.11s-2.84,4.43-7.25,2.61A14.65,14.65,0,0,0,56.33,87.11Z"/><path class="cls-5" d="M39.82,83.85s-1.9-4.91,2.19-7.39A14.57,14.57,0,0,0,39.82,83.85Z"/><path class="cls-6" d="M58.35,88.53,58.06,91a6.89,6.89,0,0,1,2.28-3.67l1.29-.8v2.49c0-1.65,1.89-3.59,3.3-4.8.47-.35.92-.71,1.37-1.08l.14-.1a34.94,34.94,0,0,0-1.22,4c.41-1.42,5.09-7.48,6.76-9.62l.56-.71,0,0h0c4-5.29,3.74-9.1,2-12.22a8.66,8.66,0,0,0-2.7-3s9.77,11.43-15.58,28.1C57,89.25,57.68,88.9,58.35,88.53Z"/><path class="cls-15" d="M98.06,24.37l2.14,1.94a.36.36,0,0,0,.3.11l21-1.05a.39.39,0,0,0,0-.77l-20.29-3.49a.39.39,0,0,0-.33.09l-2.84,2.38-.09.1A.54.54,0,0,0,98.06,24.37Z"/><path class="cls-16" d="M98.06,24.37l2.14,1.94a.36.36,0,0,0,.3.11l21-1.05a.36.36,0,0,0,.33-.39l-23.75-1.4-.09.1A.54.54,0,0,0,98.06,24.37Z"/></svg>