<svg id="मिठाई" xmlns="http://www.w3.org/2000/svg" viewBox="0 0 150 160"><defs><style>.cls-1{fill:#fff;stroke:#fff;stroke-miterlimit:10;stroke-width:5px;}.cls-2{fill:#efd155;}.cls-3{fill:#ffe67b;}.cls-4{fill:#e8c328;}.cls-5{fill:#e0a907;}.cls-6{fill:#ffeea6;}.cls-7{fill:#5eb52c;}.cls-8{fill:#4f991f;}.cls-9{fill:#f68819;}.cls-10{fill:#ce670b;}</style></defs><path class="cls-1" d="M127.26,89c.32-2.49-.52-8.45-.16-12.67a52.53,52.53,0,0,0,0-8c0-.28-.25-.62-.89-1.14-1.68-1.39-5.71-2.73-7.73-4.56s-6.19-1.77-9-3.84A30.27,30.27,0,0,0,102.56,55a5.62,5.62,0,0,0-2.78-.35,67.63,67.63,0,0,0-7,3.28,29.18,29.18,0,0,1-3.66,1.7,70.47,70.47,0,0,1-.16-8.7,49.73,49.73,0,0,0,0-8,.56.56,0,0,0-.06-.38c-1-1.8-9.1-4.55-11.76-6.28s-5.06-2.13-8-3.79a67.63,67.63,0,0,0-7-3.28,5.62,5.62,0,0,0-2.78.35,30.68,30.68,0,0,0-6.94,3.79c-2.79,2.07-7,2-9,3.85s-6.05,3.17-7.73,4.55c-.58.48-.85.81-.88,1.07h0s0,0,0,.07a52.35,52.35,0,0,0,0,8c.36,4.23-.48,10.18-.16,12.68s-.49,7.49-.44,8.59a.9.9,0,0,0,.13.42l-.79.47c-2.67,1.72-10.8,4.47-11.76,6.27a.65.65,0,0,0-.07.38,51.74,51.74,0,0,0,0,8c.35,4.22-.48,10.18-.16,12.67s-.5,7.49-.45,8.6,2.26,1.82,3.84,2.88,2.79,1,5.86,3,3.27,1.68,7,3.93a50.71,50.71,0,0,0,9.36,4.28,10.65,10.65,0,0,0,1.49.49.23.23,0,0,0,.12,0,.2.2,0,0,0,.11,0,10.65,10.65,0,0,0,1.49-.49,50.73,50.73,0,0,0,9.37-4.28c3.69-2.25,3.89-1.87,7-3.93s4.27-2,5.86-3,3.79-1.78,3.84-2.88-.77-6.1-.45-8.6h0l.2.12c1.58,1.06,2.78,1,5.85,3s3.27,1.68,7,3.94a51.5,51.5,0,0,0,9.36,4.27,11.1,11.1,0,0,0,1.49.49l.12,0,.11,0a10.65,10.65,0,0,0,1.49-.49,51.22,51.22,0,0,0,9.37-4.27c3.69-2.26,3.89-1.88,7-3.94s4.27-2,5.86-3,3.79-1.77,3.84-2.88S126.93,91.5,127.26,89Z"/><path class="cls-2" d="M35,42.78a50.94,50.94,0,0,0,0,8.11c.36,4.23-.48,10.18-.16,12.68s-.49,7.49-.44,8.59S36.6,74,38.18,75.05s2.79,1,5.86,3,3.27,1.68,7,3.94a51.42,51.42,0,0,0,9.37,4.28c1.82.67,1.89.68,1.89,0s.36-13.31.22-15a29.09,29.09,0,0,1-.22-5.71c.17-2.89.51-7.47.25-9.26S35,42.78,35,42.78Z"/><path class="cls-3" d="M35.37,71.17c0-1,.71-5.64.41-8s.47-7.81.14-11.71a46.93,46.93,0,0,1-.1-5.79c0-.83.53-1,1.22-.53,3.79,2.51,15.08,7.15,20.35,10.08l3.17,1.26s.09,1.19-5.86-1-6.34-3-8.87-3.9S42,49.49,40.51,50s-4.09.81,1.37,2.67,5.94,3.51,7.65,3.93-.24,1.13-5.61-1-5.14-.3-5,1,8.79,3.88,12.14,4.94,5.65,1.82,5.23,2.35S43.79,60,41.13,60.74s-2.8,2.13-2.31,2.57,5,1.07,7.9,2.09,3.1,1.64-.67.88-6.48-1.19-7.23-.75-.62,1.29,0,1.46,5.37,1.74,7.06,2.31,3.64,2.09,6,3,5.37,2,3.38,2S46.1,71.39,44.85,71s-2.79-1.55-4.17-1.51-2.08.14-1.55,1,6.74,5.33,8.52,6.08S52.89,80.93,56,81.9a8.15,8.15,0,0,1,4.27,2.63l-.9-.31a47.92,47.92,0,0,1-8.65-4c-3.41-2.08-3.59-1.73-6.43-3.64s-3.95-1.82-5.41-2.79S35.41,72.19,35.37,71.17Z"/><path class="cls-4" d="M89,42.78a51.67,51.67,0,0,1,0,8.11c-.35,4.23.48,10.18.16,12.68s.49,7.49.45,8.59S87.35,74,85.76,75.05s-2.78,1-5.85,3-3.27,1.68-7,3.94a51.71,51.71,0,0,1-9.36,4.28c-1.83.67-1.89.68-1.89,0s-.37-13.31-.23-15a28.17,28.17,0,0,0,.23-5.71c-.18-2.89-.52-7.47-.26-9.26S89,42.78,89,42.78Z"/><polygon class="cls-3" points="62.26 29.17 35.57 42.52 62.26 55.86 88.94 42.52 62.26 29.17"/><path class="cls-3" d="M62.26,29.17a67.63,67.63,0,0,1,7,3.28c2.9,1.66,5.29,2.07,8,3.79S88,40.72,88.94,42.52,81.88,46.09,78.62,48,71,53.29,66.92,54.73s-3.57,2.16-5.69,1.13-5.14-2.57-7.06-3.38-5.62-2.77-9.36-4.2-5.57-3.3-7.69-4.16-3-1-1.29-2.41,5.71-2.73,7.73-4.55,6.19-1.78,9-3.85a30.68,30.68,0,0,1,6.94-3.79A5.62,5.62,0,0,1,62.26,29.17Z"/><path class="cls-5" d="M88.17,63.22c.3-2.3-.48-7.81-.15-11.71a46.93,46.93,0,0,0,.06-6.66c-2.32,1.22-6.68,2.45-8.88,3.74-3.27,1.92-7.59,5.29-11.69,6.73-2,.7-2.9,1.22-3.54,1.46.3.17,1.41.16,5.27-1.28,6-2.22,6.35-3,8.87-3.9S82,49.49,83.44,50s4.08.81-1.38,2.67-5.94,3.51-7.65,3.93.24,1.13,5.61-1,5.15-.3,5,1-8.78,3.88-12.13,4.94-5.66,1.82-5.24,2.35,12.54-3.86,15.2-3.1,2.79,2.13,2.31,2.57-5,1.07-7.9,2.09-3.11,1.64.66.88,6.48-1.19,7.24-.75.62,1.29,0,1.46-5.37,1.74-7,2.31-3.64,2.09-6,3-5.37,2-3.37,2S77.85,71.39,79.09,71s2.8-1.55,4.17-1.51,2.09.14,1.55,1-6.74,5.33-8.51,6.08-5.24,4.31-8.39,5.28a8.22,8.22,0,0,0-4.28,2.63c.24-.07.53-.18.9-.31a47.3,47.3,0,0,0,8.65-4c3.42-2.08,3.6-1.73,6.44-3.64S83.57,74.8,85,73.83s3.5-1.64,3.55-2.66S87.87,65.53,88.17,63.22Z"/><path class="cls-2" d="M62.26,54.53l24-12-24-12S74.34,38,75.34,41.43,62.26,54.53,62.26,54.53Z"/><path class="cls-6" d="M60.45,31.89S42.26,40,41.32,42.13s10.89,7.13,11.83,7.07-2.82-3.77-3.06-6.68S65.4,30.18,60.45,31.89Z"/><path class="cls-2" d="M54,44.55c-1.07-.61-3.67-.35-5.27-2.62s4.59-2.42,8-2.07S64.05,36,68,38.25s-.77,4.65,3.26,5,6,3-2.84,3.72-7.51,2.93-11.65,1.9C51.34,47.55,55.06,45.17,54,44.55Z"/><path class="cls-7" d="M54.83,42.94c-1-.61-3.43-.35-4.92-2.62s4.29-2.42,7.43-2.06,6.89-3.85,10.6-1.62-.72,4.65,3,5,5.64,3-2.66,3.72-7,2.94-10.89,1.9C52.35,45.94,55.83,43.56,54.83,42.94Z"/><path class="cls-8" d="M56.59,41.37C62.84,43,68,41.82,69.39,40.1a3.39,3.39,0,0,0,0-1.9A4.48,4.48,0,0,0,67.62,37C61.69,34.63,56.59,41.37,56.59,41.37Z"/><path class="cls-8" d="M54.13,41.49c-.89-.55-2.94-.4-4.43-2a1.08,1.08,0,0,0,.21.83c1.2,1.82,3,2,4.18,2.34C54.28,42.13,54.48,41.7,54.13,41.49Z"/><path class="cls-8" d="M67.7,40.05a3.24,3.24,0,0,0-.45-2.71C67.32,38.56,66.68,39.61,67.7,40.05Z"/><path class="cls-8" d="M73.32,42.33c-.48.68-2.16,1.33-5.7,1.62-8.29.68-7,2.93-10.89,1.9a6.14,6.14,0,0,1-2.14-.93c-.07.82.38,1.72,2.84,2.38,3.87,1,2.6-1.22,10.89-1.9C74.54,44.89,75,43.28,73.32,42.33Z"/><path class="cls-9" d="M57.18,41s4.58-7.1,10.67-5.13S67.23,42.85,57.18,41Z"/><path class="cls-10" d="M69.29,37.15c-2.05,3.57-11.37,3.49-11.37,3.49C65.37,42,70.77,39.17,69.29,37.15Z"/><path class="cls-10" d="M58.63,40.23s3.49-3.56,6.65-3.82-3.67,1-3.87,2.47,3.51-1.37,5.7-1.73-1,1.51-3.59,2.17A38.18,38.18,0,0,1,58.63,40.23Z"/><path class="cls-2" d="M127.09,68.22a50.94,50.94,0,0,1,0,8.11c-.36,4.22.48,10.18.16,12.67s.49,7.5.44,8.6-2.26,1.83-3.84,2.88-2.79,1-5.86,3-3.27,1.68-7,3.94a51.22,51.22,0,0,1-9.37,4.27c-1.82.67-1.89.68-1.89,0s-.36-13.3-.22-15A29.2,29.2,0,0,0,99.78,91c-.17-2.88-.51-7.46-.25-9.26S127.09,68.22,127.09,68.22Z"/><path class="cls-3" d="M126.67,96.6c0-1-.71-5.63-.41-7.94s-.47-7.81-.14-11.71a46.93,46.93,0,0,0,.1-5.79c0-.83-.53-1-1.22-.54-3.79,2.52-15.08,7.16-20.35,10.09L101.48,82s-.09,1.19,5.86-1,6.34-3,8.87-3.91,3.86-2.1,5.32-1.65,4.09.81-1.37,2.67-5.94,3.52-7.65,3.93.24,1.13,5.61-1,5.14-.31,5,1-8.79,3.88-12.14,5-5.65,1.82-5.23,2.35,12.53-3.86,15.19-3.11,2.8,2.13,2.31,2.58-5,1.06-7.9,2.08-3.1,1.64.67.89,6.48-1.2,7.23-.75.62,1.28,0,1.46-5.37,1.73-7.06,2.31-3.64,2.08-6,3-5.37,2-3.38,2,9.23-2.89,10.48-3.24S120,94.92,121.36,95s2.08.13,1.55,1-6.74,5.32-8.52,6.08-5.24,4.3-8.39,5.28a8.15,8.15,0,0,0-4.27,2.63l.9-.32a47.71,47.71,0,0,0,8.65-4c3.41-2.09,3.59-1.73,6.43-3.64s4-1.82,5.41-2.8S126.63,97.62,126.67,96.6Z"/><path class="cls-4" d="M73,68.22a51.67,51.67,0,0,0,0,8.11c.35,4.22-.48,10.18-.16,12.67s-.49,7.5-.45,8.6,2.26,1.83,3.85,2.88,2.78,1,5.85,3,3.27,1.68,7,3.94a51.5,51.5,0,0,0,9.36,4.27c1.83.67,1.89.68,1.89,0s.37-13.3.23-15a28.28,28.28,0,0,1-.23-5.72c.18-2.88.52-7.46.26-9.26S73,68.22,73,68.22Z"/><polygon class="cls-3" points="99.78 54.61 126.47 67.95 99.78 81.29 73.1 67.95 99.78 54.61"/><path class="cls-3" d="M99.78,54.61a67.63,67.63,0,0,0-7,3.28c-2.9,1.65-5.29,2.07-8,3.79S74.06,66.15,73.1,68s7.06,3.57,10.32,5.5,7.59,5.28,11.7,6.72,3.57,2.15,5.69,1.12,5.14-2.56,7.06-3.38,5.62-2.77,9.36-4.19,5.57-3.3,7.69-4.16,3-1,1.29-2.41-5.71-2.73-7.73-4.56-6.19-1.77-9-3.84A30.27,30.27,0,0,0,102.56,55,5.62,5.62,0,0,0,99.78,54.61Z"/><path class="cls-5" d="M73.87,88.66c-.3-2.31.48-7.81.15-11.71A46.93,46.93,0,0,1,74,70.29c2.32,1.21,6.68,2.44,8.88,3.74,3.27,1.92,7.59,5.28,11.69,6.72,2,.7,2.9,1.23,3.54,1.47-.3.17-1.41.16-5.27-1.28-6-2.22-6.35-3-8.87-3.91s-3.87-2.1-5.33-1.65-4.08.81,1.38,2.67,5.94,3.52,7.65,3.93-.24,1.13-5.61-1-5.15-.31-5,1,8.78,3.88,12.13,5,5.66,1.82,5.24,2.35-12.54-3.86-15.2-3.11-2.79,2.13-2.31,2.58,5,1.06,7.9,2.08,3.11,1.64-.66.89-6.48-1.2-7.24-.75-.62,1.28,0,1.46,5.37,1.73,7.05,2.31,3.64,2.08,6,3,5.37,2,3.37,2S84.19,96.82,83,96.47s-2.8-1.55-4.17-1.51-2.09.13-1.55,1,6.74,5.32,8.51,6.08,5.24,4.3,8.39,5.28A8.15,8.15,0,0,1,98.41,110l-.9-.32a47.1,47.1,0,0,1-8.65-4c-3.42-2.09-3.6-1.73-6.44-3.64s-4-1.82-5.41-2.8-3.5-1.64-3.55-2.66S74.17,91,73.87,88.66Z"/><path class="cls-2" d="M99.78,80l-24-12,24-12S87.7,63.39,86.7,66.86,99.78,80,99.78,80Z"/><path class="cls-6" d="M101.59,57.33s18.19,8.12,19.13,10.24-10.89,7.12-11.83,7.06S111.71,70.86,112,68,96.64,55.62,101.59,57.33Z"/><path class="cls-2" d="M108,70c1.07-.62,3.67-.36,5.27-2.62s-4.59-2.43-8-2.07S98,61.45,94,63.68s.77,4.66-3.26,5.05-6,3,2.84,3.71,7.51,2.94,11.65,1.91C110.7,73,107,70.6,108,70Z"/><path class="cls-7" d="M107.21,68.38c1-.62,3.43-.36,4.92-2.62s-4.29-2.42-7.43-2.07-6.89-3.85-10.6-1.61.72,4.65-3,5-5.64,3,2.66,3.72,7,2.93,10.89,1.9C109.69,71.38,106.21,69,107.21,68.38Z"/><path class="cls-8" d="M105.45,66.8c-6.25,1.66-11.37.46-12.8-1.26a3.43,3.43,0,0,1,0-1.91,4.47,4.47,0,0,1,1.78-1.15C100.35,60.07,105.45,66.8,105.45,66.8Z"/><path class="cls-8" d="M107.91,66.93c.89-.55,2.94-.41,4.43-2a1.09,1.09,0,0,1-.21.84c-1.2,1.82-3,2-4.18,2.33C107.76,67.57,107.56,67.14,107.91,66.93Z"/><path class="cls-8" d="M94.34,65.49a3.27,3.27,0,0,1,.45-2.72C94.72,64,95.36,65,94.34,65.49Z"/><path class="cls-8" d="M88.72,67.77c.48.68,2.16,1.32,5.7,1.61,8.29.68,7,2.94,10.89,1.9a6.16,6.16,0,0,0,2.14-.92c.07.82-.38,1.72-2.84,2.38-3.87,1-2.6-1.23-10.89-1.9C87.5,70.33,87,68.71,88.72,67.77Z"/><path class="cls-9" d="M104.86,66.4s-4.58-7.09-10.67-5.13S94.81,68.29,104.86,66.4Z"/><path class="cls-10" d="M92.75,62.59c2,3.57,11.37,3.49,11.37,3.49C96.67,67.47,91.28,64.61,92.75,62.59Z"/><path class="cls-10" d="M103.41,65.67s-3.49-3.57-6.65-3.82,3.67,1,3.87,2.47-3.51-1.37-5.7-1.73,1,1.5,3.59,2.16A39.32,39.32,0,0,0,103.41,65.67Z"/><path class="cls-2" d="M75.91,79.59a52.37,52.37,0,0,1,0,8.11c-.36,4.22.48,10.18.15,12.67s.5,7.49.45,8.6-2.26,1.82-3.84,2.88-2.79,1-5.86,3-3.27,1.68-7,3.93a50.73,50.73,0,0,1-9.37,4.28c-1.82.67-1.89.68-1.89,0s-.37-13.3-.22-15a29.09,29.09,0,0,0,.22-5.71,72.94,72.94,0,0,1-.26-9.26C48.6,91.34,75.91,79.59,75.91,79.59Z"/><path class="cls-3" d="M75.49,108c.05-1-.71-5.63-.41-7.94s-.47-7.81-.14-11.72A44.61,44.61,0,0,0,75,82.53c0-.83-.52-1-1.21-.54C70,84.51,58.73,89.15,53.47,92.08L50.3,93.34s-.09,1.19,5.86-1,6.34-3,8.87-3.91,3.86-2.1,5.32-1.65,4.08.81-1.37,2.67S63,92.93,61.33,93.35s.24,1.13,5.61-1,5.14-.31,5,1-8.79,3.88-12.14,5-5.65,1.82-5.23,2.35,12.53-3.86,15.19-3.11,2.8,2.13,2.31,2.58-5,1.06-7.9,2.08-3.11,1.64.67.89,6.47-1.2,7.23-.75.62,1.28-.05,1.46-5.36,1.73-7,2.31-3.64,2.08-6,3-5.37,2-3.38,2,9.23-2.89,10.47-3.24,2.8-1.56,4.18-1.51,2.08.13,1.55,1-6.75,5.32-8.52,6.08-5.24,4.3-8.39,5.28a8.08,8.08,0,0,0-4.27,2.63l.89-.32a48.14,48.14,0,0,0,8.66-4c3.41-2.09,3.59-1.73,6.43-3.64s4-1.82,5.41-2.8S75.45,109,75.49,108Z"/><path class="cls-4" d="M21.86,79.59a51.67,51.67,0,0,0,0,8.11c.35,4.22-.48,10.18-.16,12.67s-.5,7.49-.45,8.6,2.26,1.82,3.84,2.88,2.79,1,5.86,3,3.27,1.68,7,3.93a50.71,50.71,0,0,0,9.36,4.28c1.83.67,1.89.68,1.89,0s.37-13.3.22-15a29.09,29.09,0,0,1-.22-5.71c.18-2.88.52-7.46.26-9.26S21.86,79.59,21.86,79.59Z"/><polygon class="cls-3" points="48.6 65.98 75.29 79.32 48.6 92.66 21.92 79.32 48.6 65.98"/><path class="cls-3" d="M48.6,66a68.92,68.92,0,0,0-7,3.27c-2.9,1.66-5.29,2.08-8,3.8s-10.8,4.47-11.76,6.27S29,82.89,32.24,84.81s7.59,5.29,11.69,6.73,3.58,2.15,5.7,1.12,5.13-2.56,7.06-3.38,5.61-2.77,9.36-4.19,5.57-3.3,7.68-4.17,3-1,1.3-2.41S69.32,75.79,67.3,74s-6.2-1.78-9-3.84a30.07,30.07,0,0,0-6.94-3.79A5.52,5.52,0,0,0,48.6,66Z"/><path class="cls-5" d="M22.69,100c-.3-2.31.48-7.81.15-11.72a46.79,46.79,0,0,1-.06-6.65c2.32,1.21,6.68,2.44,8.88,3.74,3.26,1.92,7.58,5.28,11.69,6.72,2,.7,2.9,1.23,3.54,1.47-.3.17-1.41.16-5.27-1.28-5.95-2.22-6.35-3-8.88-3.91s-3.86-2.1-5.32-1.65-4.08.81,1.37,2.67,5.94,3.51,7.66,3.93-.25,1.13-5.61-1-5.15-.31-5,1,8.78,3.88,12.13,5,5.66,1.82,5.24,2.35S30.7,96.79,28,97.54s-2.79,2.13-2.31,2.58,5,1.06,7.9,2.08,3.11,1.64-.66.89-6.48-1.2-7.24-.75-.62,1.28.05,1.46,5.37,1.73,7,2.31,3.64,2.08,6,3,5.37,2,3.37,2-9.23-2.89-10.47-3.24-2.8-1.56-4.17-1.51-2.09.13-1.56,1,6.75,5.32,8.52,6.08,5.24,4.3,8.39,5.28a8.08,8.08,0,0,1,4.27,2.63l-.89-.32a47.8,47.8,0,0,1-8.65-4c-3.42-2.09-3.6-1.73-6.44-3.64s-3.95-1.82-5.41-2.8S22.32,109,22.28,108,23,102.34,22.69,100Z"/><path class="cls-2" d="M48.6,91.34l-24-12,24-12S36.52,74.76,35.51,78.23,48.6,91.34,48.6,91.34Z"/><path class="cls-6" d="M50.41,68.7S68.6,76.82,69.54,78.94,58.65,86.06,57.71,86s2.82-3.77,3.06-6.68S45.46,67,50.41,68.7Z"/><path class="cls-2" d="M56.86,81.36c1.07-.62,3.67-.36,5.27-2.62s-4.6-2.43-8-2.07-7.37-3.85-11.33-1.62.76,4.66-3.26,5-6,3,2.84,3.71,7.51,2.94,11.65,1.9C59.52,84.36,55.8,82,56.86,81.36Z"/><path class="cls-7" d="M56,79.75c1-.62,3.43-.36,4.92-2.62s-4.3-2.43-7.43-2.07-6.89-3.85-10.6-1.62.72,4.66-3,5-5.64,3,2.66,3.71,7,2.94,10.89,1.91C58.51,82.75,55,80.36,56,79.75Z"/><path class="cls-8" d="M54.26,78.17c-6.24,1.66-11.36.46-12.79-1.26a3.43,3.43,0,0,1,0-1.91,4.47,4.47,0,0,1,1.78-1.15C49.17,71.44,54.26,78.17,54.26,78.17Z"/><path class="cls-8" d="M56.73,78.3c.89-.56,2.94-.41,4.43-2a1.1,1.1,0,0,1-.21.84c-1.2,1.82-3,2-4.19,2.33C56.58,78.94,56.38,78.51,56.73,78.3Z"/><path class="cls-8" d="M43.16,76.86a3.3,3.3,0,0,1,.44-2.72C43.54,75.37,44.18,76.41,43.16,76.86Z"/><path class="cls-8" d="M37.54,79.14c.48.68,2.16,1.32,5.7,1.61,8.29.68,7,2.94,10.89,1.9a6,6,0,0,0,2.14-.93c.07.83-.38,1.73-2.84,2.39-3.87,1-2.6-1.23-10.89-1.91C36.32,81.7,35.82,80.08,37.54,79.14Z"/><path class="cls-9" d="M53.68,77.77S49.1,70.68,43,72.64,43.63,79.66,53.68,77.77Z"/><path class="cls-10" d="M41.57,74c2,3.57,11.37,3.48,11.37,3.48C45.49,78.84,40.09,76,41.57,74Z"/><path class="cls-10" d="M52.23,77s-3.49-3.57-6.65-3.82,3.67,1,3.87,2.47-3.51-1.37-5.7-1.73,1,1.5,3.59,2.16A39.32,39.32,0,0,0,52.23,77Z"/></svg>