<svg xmlns="http://www.w3.org/2000/svg" viewBox="0 0 150 160"><defs><style>.cls-1{isolation:isolate;}.cls-13,.cls-2,.cls-7{fill:#91c73d;}.cls-2{stroke:#fff;stroke-miterlimit:10;stroke-width:5px;}.cls-3,.cls-4,.cls-5{fill:#c6d92f;}.cls-10,.cls-13,.cls-17,.cls-19,.cls-21,.cls-23,.cls-26,.cls-4{mix-blend-mode:multiply;}.cls-16,.cls-22,.cls-25,.cls-5{mix-blend-mode:screen;}.cls-6{fill:#6fae3b;}.cls-8{fill:#7dc242;}.cls-9{fill:#fff;}.cls-10{fill:#dadbdc;}.cls-11{fill:#ffedaf;}.cls-12{fill:#fcb317;}.cls-13{opacity:0.4;}.cls-14{fill:#96c93d;}.cls-15,.cls-16,.cls-17{fill:#9ea8aa;}.cls-18{fill:#b6e2eb;}.cls-19,.cls-22,.cls-23{fill:#7fd2e9;}.cls-19{opacity:0.5;}.cls-20,.cls-21{fill:#cf8758;}.cls-23{opacity:0.6;}.cls-24,.cls-25,.cls-26{fill:#b0d23f;}.cls-27{fill:#f1bbd6;}.cls-28{fill:#cbeaec;}</style></defs><g class="cls-1"><g id="तालाब"><path class="cls-2" d="M141.18,87.17a3,3,0,0,0-.73,0A10.71,10.71,0,0,1,139,87a17.71,17.71,0,0,1-1.89-.31l.43-.13c.64-.15,1.31,0,1.94-.22.07,0,.22-.23.12-.31a4.11,4.11,0,0,0-1.61-.79,12,12,0,0,0-1.84-.52c-.83-.07-1.63-.14-2.43-.17a13.49,13.49,0,0,0,2.2-1.45c.06,0,.21-.37,0-.33a9.39,9.39,0,0,1-2.18.16l.55-.26h0c.59-.29,1.18-.59,1.76-.93l.12-.07c.57-.33,1.13-.68,1.69-1.07,1.25-.87,2.8-2.42,2.2-4.64-.37-1.41-4.24-2.91-8.25-4.16.19-.4-.09-.9-.53-1.28.16.13.9-1,.94-1.13a.54.54,0,0,0,0-.47c-.26-.53-1.31-.72-1.74-.77.14,0,.47-.41.55-.51a2.35,2.35,0,0,0,.36-.66c.72-2.21-2.56-1.63-3.64-1.41.12,0,.4-.56.47-.67a2.49,2.49,0,0,0,.41-.87.65.65,0,0,0-.41-.79h0c.12,0,.48-.27.23-.35a13.73,13.73,0,0,0-2.36-.52.13.13,0,0,1,0-.06s0-.08,0-.12c.42.11.85.22,1.28.3a17.15,17.15,0,0,0,3.72.22c.12,0,.44-.2.27-.35h0a12.88,12.88,0,0,0,3.21.94c.12,0,.42-.22.26-.33a13.22,13.22,0,0,0-3.94-1.83l-1.11-.27c.65,0,1.29.06,1.94.12a11.81,11.81,0,0,0,2.7,1.19c1,.39,2,.86,3,1.24.1,0,.36-.15.23-.25A10.76,10.76,0,0,0,136,62.15a15.08,15.08,0,0,0,4.27.67c.13,0,.46-.27.22-.35A21.3,21.3,0,0,0,134.85,61a2,2,0,0,0,.34-.13,2.43,2.43,0,0,0,1.17-.82h0c.09-.12.11-.24-.07-.23a5.47,5.47,0,0,0-2.22.55,1,1,0,0,0-.39.24,12,12,0,0,0-1.71-.32l.43-.21a5,5,0,0,0,1.92-1.52.14.14,0,0,0-.07-.22c-.64-.2-1.6.33-2.16.61a4.85,4.85,0,0,0-1.7,1.24,18.16,18.16,0,0,0-2,.07,11,11,0,0,0,1.53-1c.48-.36,1-.74,1.5-1.16a.41.41,0,0,0,.09-.1c.12-.11.23-.23.33-.34s.1-.25,0-.29c-.67-.2-1.48.34-2.05.64a12,12,0,0,0-2.45,2.17c-.08.07,0,.14,0,.15v0c-.65.09-1.3.2-1.93.34a3.8,3.8,0,0,0,.45-.22,10.47,10.47,0,0,0,1.07-.82A6.66,6.66,0,0,0,129,57.26c.07-.17,0-.28-.21-.24a8,8,0,0,0-3,1.8c-.43.36-1.53,1.46-1.53,2.2-.48.13-1,.26-1.41.41-.15,0-.3.11-.45.16a7,7,0,0,0,1.57-1.45c.56-.77,1.11-1.62,1.63-2.44l.12-.06c.1,0,.28-.32.16-.39l.08-.12a.12.12,0,0,0,0-.19,21.34,21.34,0,0,0,2.33-.82c.12,0,.35-.34.15-.43h0a11.82,11.82,0,0,0,3.33-.26c.11,0,.32-.34.13-.39a12.45,12.45,0,0,0-4.3-.32c-.38,0-.75.08-1.13.14.61-.22,1.24-.41,1.86-.58a11.52,11.52,0,0,0,2.93.16c1.08,0,2.15.11,3.22.1.11,0,.3-.27.14-.31a9.64,9.64,0,0,0-1.92-.4,15.61,15.61,0,0,0,4.23-.88c.13-.05.35-.42.1-.42a21.53,21.53,0,0,0-5.77.66,2.26,2.26,0,0,0,.28-.25,2.56,2.56,0,0,0,.83-1.19v0c0-.14,0-.27-.14-.19a5.62,5.62,0,0,0-1.91,1.31,1.12,1.12,0,0,0-.29.36,12.76,12.76,0,0,0-1.71.3l.33-.35a5.21,5.21,0,0,0,1.32-2.1.15.15,0,0,0-.14-.19c-.67,0-1.4.88-1.84,1.35A4.94,4.94,0,0,0,126.7,54a17.78,17.78,0,0,0-1.81.76A10.85,10.85,0,0,0,126,53.32a18.82,18.82,0,0,0,1-1.63.38.38,0,0,0,.06-.13c.07-.14.14-.29.2-.44s0-.26-.13-.25c-.69.05-1.28.84-1.72,1.32a12.64,12.64,0,0,0-1.59,2.91c-.06.1,0,.15.06.14v0c-.59.31-1.16.65-1.71,1,.13-.13.27-.25.36-.36a10.75,10.75,0,0,0,.73-1.16,6.91,6.91,0,0,0,1.14-3c0-.18-.13-.25-.28-.15a8.57,8.57,0,0,0-2.26,2.76c-.28.49-1,1.92-.72,2.62l-.83.61c0-.11,0-.22.05-.32s-.06-.16-.14-.16a4.72,4.72,0,0,0,.36-.86c.34-1.13.64-2.37.89-3.53,0-.2-.15-.21-.27-.14-.89.46-1.32,2-1.72,2.86-.3.63-1.08,2.52-.76,3.31l-.21.37c-.27.25-.54.51-.79.77.81-1.91.85-4.09,1.13-6.13,0-.27-.22-.2-.35-.1a4.6,4.6,0,0,0-1.12,2.54c-.13.67-.28,1.36-.38,2a.6.6,0,0,0-.3.16,3.13,3.13,0,0,0-.28.4v-.07a16.86,16.86,0,0,0-.11-4c-.09-.31-.4,0-.47.17a13.42,13.42,0,0,0-.64,2.08c-.06-.09-.16-.14-.22,0-.29.64-.62,1.27-.92,1.92-.08-.4-.16-.79-.23-1.19.12-.79.43-2,0-2.66,0-.1-.19-.19-.25,0s-.21.62-.32.93c-.11-.11-.25-.18-.29,0-.26.93-.53,1.84-.8,2.75-.07-.19-.13-.37-.21-.57.47-.36.62-1.67.64-2.14a7.25,7.25,0,0,0-.35-3c-.06-.13-.18-.16-.26,0a5.87,5.87,0,0,0-.53,2.63,1.62,1.62,0,0,1,0,.22,5.08,5.08,0,0,0-.16-.59.73.73,0,0,0-.29-.29,7.18,7.18,0,0,0,.09-2.12c-.09-.55-.15-1.37-.6-1.73-.1-.07-.18,0-.2.12s0,.26-.06.39a.24.24,0,0,0,0,.12c0,.53,0,1.1,0,1.6a9.7,9.7,0,0,0,.13,1.54,16.45,16.45,0,0,0-.91-1.38,4.46,4.46,0,0,0,0-1.78c-.11-.52-.24-1.45-.68-1.79a.11.11,0,0,0-.18.06,4.52,4.52,0,0,0,0,2.07c0,.13.05.26.08.4a10.09,10.09,0,0,0-1.05-1,.87.87,0,0,0,0-.39,4.81,4.81,0,0,0-.74-1.8c-.09-.14-.15-.06-.18.06v0a2.17,2.17,0,0,0,0,1.21,1.81,1.81,0,0,0,.09.31,18.63,18.63,0,0,0-3.68-3.19c-.18-.12-.18.24-.12.33a13.92,13.92,0,0,0,2.53,2.62,8.06,8.06,0,0,0-1.49-.64c-.13,0-.12.23,0,.28.74.51,1.52.95,2.26,1.46a11.47,11.47,0,0,0,2,1.26c0,.1,0,.23-.05.34a11.5,11.5,0,0,0-1.76-1.1,1.64,1.64,0,0,0-.37-.41c-.13-.1-.39-.17-.35.1h0l-.2-.09c-.15-.05-.14.27-.08.34s.24.21.35.32c.09.74.16,1.49.26,2.24h-.5c-.17-.47-.35-.88-.46-1.12-.4-.86-.84-2.4-1.72-2.87-.12-.06-.32-.05-.28.15.26,1.16.56,2.39.9,3.53a5.29,5.29,0,0,0,.29.73c-.15.09-.31.18-.46.29l-.39-.29c.23-.7-.44-2.13-.73-2.62a8.31,8.31,0,0,0-2.25-2.76c-.15-.1-.29,0-.28.15a7,7,0,0,0,1.14,3,10.75,10.75,0,0,0,.73,1.16,4.08,4.08,0,0,0,.36.35q-.82-.53-1.71-1v0c.06,0,.11,0,.06-.14a13,13,0,0,0-1.59-2.91c-.45-.48-1-1.28-1.72-1.33-.14,0-.17.15-.13.26s.13.29.2.44a.49.49,0,0,0,.06.13c.3.56.69,1.11,1,1.62a10.25,10.25,0,0,0,1.12,1.46c-.6-.28-1.2-.53-1.81-.75a5.07,5.07,0,0,0-1.19-1.77c-.44-.46-1.17-1.3-1.84-1.34a.14.14,0,0,0-.14.18,5.18,5.18,0,0,0,1.32,2.11l.33.35a12.8,12.8,0,0,0-1.71-.31,1.12,1.12,0,0,0-.29-.36,5.59,5.59,0,0,0-1.91-1.3c-.17-.08-.18,0-.14.19v0a2.66,2.66,0,0,0,.82,1.19l.29.25a21.13,21.13,0,0,0-5.77-.66c-.25,0,0,.37.1.41A15.54,15.54,0,0,0,92,52a10.05,10.05,0,0,0-1.92.39c-.16,0,0,.32.14.32,1.07,0,2.14-.1,3.22-.1a12,12,0,0,0,2.93-.16c.62.17,1.24.36,1.86.58-.38-.06-.75-.11-1.13-.15a12.94,12.94,0,0,0-4.3.32c-.19.05,0,.37.13.4a12.2,12.2,0,0,0,3.33.26h0c-.2.08,0,.38.15.42.44.19.9.36,1.36.52a1.22,1.22,0,0,0-.37.12c-1.32.66-1.59,2.1-1.47,3.54-.73-.71-1.56-1.26-2.37-1a1,1,0,0,0-.67.71,2,2,0,0,0,0,.25h-.08s0,0,0,0,.3-.44,0-.39a1.48,1.48,0,0,0-.59.26l.28-.25a3.52,3.52,0,0,0-.5.31,2.64,2.64,0,0,0-.56.55h0a3.56,3.56,0,0,0,0-1.08.5.5,0,0,0,0-.16,2.42,2.42,0,0,1-.1.36c0-.41-.15-.81-.47-.58,0,0-.12.09-.16,0s0-.13-.07-.17-.15.13-.17.17-.1.08-.13,0-.17-.28-.26-.06a1.8,1.8,0,0,0-.08.21l0,.15a1.36,1.36,0,0,1,0-.4.7.7,0,0,0-.11.21,2.17,2.17,0,0,0-.13.8v0a.81.81,0,0,0,0,.16,2.3,2.3,0,0,0-.23-.39,1.2,1.2,0,0,0-.42-.42,1.51,1.51,0,0,1,.31.5,1.74,1.74,0,0,0-.25-.29s-.22-.17-.21-.1a1.42,1.42,0,0,0,0,.2s-.09.09-.12.06a.66.66,0,0,0-.35-.22s0,.16,0,.17-.07.08-.1.07c-.26-.1-.69,0-.62.39a.84.84,0,0,0,.14.37,1.61,1.61,0,0,0,.24.28,1.32,1.32,0,0,1-.2-.12,1.37,1.37,0,0,1-.22-.2,1.4,1.4,0,0,0,.48.54,2,2,0,0,0,.94.32q0,.12,0,.27a3.15,3.15,0,0,0-.52.57,2.84,2.84,0,0,0-.3.49,2.12,2.12,0,0,1,.33-.41.46.46,0,0,0,.07-.07,2.51,2.51,0,0,0-.26.45c0,.08-.12.23-.06.31s.14-.05.17-.07l.14-.11s.1,0,.08,0a1,1,0,0,0-.09.21c0,.14.08,0,.08,0a.39.39,0,0,1,.14-.08h0c0,.12,0,.23,0,.35a.58.58,0,0,0,.32.46.19.19,0,0,0,.13,0,8,8,0,0,0-.8,3.89l-3-.06a12.54,12.54,0,0,1,2.21-8.67A8.65,8.65,0,0,0,85,62.56c-.17-1.05-.36-2.07-.55-3,.17-.28.35-.55.55-.82a5.71,5.71,0,0,0-.6.56c-.27-1.27-.52-2.32-.64-2.84a17.38,17.38,0,0,0-.23,4,9.35,9.35,0,0,0-.47,1,12.64,12.64,0,0,0-1.4-1.83c-.12-.13-.23-.25-.35-.36-.25-1.19-.48-2.15-.6-2.64a11.17,11.17,0,0,0-.22,1.88,13.55,13.55,0,0,0-1.22-.91A10.25,10.25,0,0,1,80.43,59a35,35,0,0,0,.12,3.66,13.69,13.69,0,0,0-2-2.84,12.39,12.39,0,0,0-2.4-2c2.47,2.34,3.5,5.76,3.94,8.17L78,66a5.7,5.7,0,0,0-.84-2.65.15.15,0,0,0,.09,0,.44.44,0,0,0,.21-.36c0-.09,0-.16,0-.26h0a.19.19,0,0,1,.1.05s.1.1.07,0-.06-.1-.08-.15,0,0,.05,0l.11.07s.1.09.13,0,0-.16-.06-.22a2.42,2.42,0,0,0-.36-.42l.19.16a1.38,1.38,0,0,1,.27.27,2.14,2.14,0,0,0-.25-.34,2.32,2.32,0,0,0-.44-.39,1.13,1.13,0,0,0,0-.18,1.58,1.58,0,0,0,.67-.3,1.09,1.09,0,0,0,.32-.44A.8.8,0,0,1,78,61a1.7,1.7,0,0,1-.14.1.94.94,0,0,0,.16-.23.65.65,0,0,0,.08-.28c0-.28-.3-.33-.48-.24s-.09,0-.08,0,0-.13,0-.13a.5.5,0,0,0-.24.19s-.09,0-.09,0,0-.11,0-.16-.14.09-.14.1a.9.9,0,0,0-.17.26,1.07,1.07,0,0,1,.19-.42,1,1,0,0,0-.28.33s-.08.16-.14.31c0,0,0-.08,0-.12v0a1.47,1.47,0,0,0-.15-.58.67.67,0,0,0-.09-.14,1.22,1.22,0,0,1,.07.38l0-.2-.07-.15c-.08-.15-.16,0-.19.06s-.08,0-.1,0-.09-.17-.13-.11,0,.09,0,.13-.09,0-.12,0c-.26-.14-.31.16-.31.46a1.17,1.17,0,0,1-.1-.26c0,.05,0,.09,0,.12a2.62,2.62,0,0,0,.08.79h0a1.7,1.7,0,0,0-.45-.36,1.93,1.93,0,0,0-.38-.19c.06,0,.1.09.15.13a1.27,1.27,0,0,0-.38-.11c-.24,0,0,.2,0,.29s0,0,0,0h-.08c-.12,0-.1.1-.06.17s0,.08,0,.11-.08,0-.13.1,0,.21,0,.28a.57.57,0,0,0,.16.22l-.22-.15a1.38,1.38,0,0,0,1.1.6h.19a1,1,0,0,0-.27.84l.1-.2h0a.56.56,0,0,0,0,.34c.08.22.31.22.49.21,0,0,.07,0,.08,0v0s0,0,.09-.06.08,0,.09,0,.15,0,.21-.14a1.07,1.07,0,0,1-.07.27.44.44,0,0,0,.14-.16,1,1,0,0,0,.09-.21h.05a1.61,1.61,0,0,0,.39,0,5.25,5.25,0,0,1,1,2.87c-1.54,0-3.08,0-4.62.07a1.14,1.14,0,0,0-.71-.79c.16.08.54-1,.55-1.13a.51.51,0,0,0-.11-.39c-.32-.37-1.23-.3-1.59-.24.12,0,.3-.44.35-.54a1.72,1.72,0,0,0,.16-.63c.15-2-2.43-.77-3.27-.36.09,0,.21-.54.25-.65a2,2,0,0,0,.16-.8c0-.75-.84-.62-1.31-.41a5.28,5.28,0,0,0-.67.34,3.18,3.18,0,0,0-.35.26,2.48,2.48,0,0,0-.26.19h0l0,0h0a.33.33,0,0,1,0-.06.67.67,0,0,0,.1-.19.08.08,0,0,1,0,0,3,3,0,0,0,.06-.32.09.09,0,0,1,0-.05c0-.11,0-.22,0-.32a2.07,2.07,0,0,0,0-.29.65.65,0,0,0-.07-.21l0,0a.32.32,0,0,0-.1-.1s0,0-.06,0l-.11-.05-.09,0-.11,0h-.22l-.18,0h0a1.27,1.27,0,0,0-.39.14A4,4,0,0,0,63.77,61c.13-.23-.15-.87-.41-.88a1.44,1.44,0,0,0-1.07.66,2.4,2.4,0,0,0-.33.58c-.05.12-.28.56-.22.68-.37-.9-.94-1.82-1.6-1.24a2.31,2.31,0,0,0-.4,2.58A1.71,1.71,0,0,0,58,63.12a.69.69,0,0,0-.32.57,2.86,2.86,0,0,0,1.17,1.76c-1,.14-1.93.54-2.1,1.42a120.6,120.6,0,0,0-13.37,1.81,6.23,6.23,0,0,1,.6-3.47,1.15,1.15,0,0,0,.45,0l0,0a1.59,1.59,0,0,0,.15.21.6.6,0,0,0,.19.17,2.71,2.71,0,0,1-.13-.3c.08.09.27.29.27.11s.06-.08.1-.07l.11,0a.08.08,0,0,1,0,0s0-.06.08-.06c.21,0,.46-.08.52-.35a.86.86,0,0,0,0-.39h0l.16.2a1.21,1.21,0,0,0-.48-.9l.21,0a1.66,1.66,0,0,0,1.14-.94,1.7,1.7,0,0,1-.2.19.76.76,0,0,0,.11-.26.62.62,0,0,0,0-.33c-.08-.09-.08,0-.17-.07s-.06-.06,0-.13,0-.24-.1-.18l-.09,0h0c0-.1.22-.4,0-.33a1.19,1.19,0,0,0-.42.21,1.3,1.3,0,0,1,.15-.18,3.21,3.21,0,0,0-.4.3,2.41,2.41,0,0,0-.44.51h0a2.9,2.9,0,0,0-.07-.93s0-.08,0-.13a1.2,1.2,0,0,1-.06.32c-.06-.35-.18-.68-.44-.46,0,0-.1.09-.14,0s0-.1-.07-.13-.11.12-.13.15-.07.08-.1,0-.17-.22-.23,0a1.05,1.05,0,0,0,0,.19s0,.08,0,.13a1.29,1.29,0,0,1,0-.34.75.75,0,0,0-.07.18,2,2,0,0,0-.06.69v.16a3.08,3.08,0,0,0-.22-.31,1.14,1.14,0,0,0-.39-.32,1.2,1.2,0,0,1,.32.45,1.33,1.33,0,0,0-.26-.27s-.2-.14-.18-.08,0,.12,0,.17-.06.08-.09.06a.55.55,0,0,0-.32-.16s0,.14,0,.15,0,.07-.08.06c-.22-.07-.58.06-.5.38a.89.89,0,0,0,.15.31,1.21,1.21,0,0,0,.23.22,1.63,1.63,0,0,1-.19-.09A.9.9,0,0,1,42,62.9a1.13,1.13,0,0,0,.45.42,1.6,1.6,0,0,0,.82.19,1.93,1.93,0,0,0,0,.24,2.63,2.63,0,0,0-.4.53,2.23,2.23,0,0,0-.22.44,1.85,1.85,0,0,1,.25-.37l0-.07a2.54,2.54,0,0,0-.18.41c0,.06-.08.19,0,.26s.12,0,.14-.07a.57.57,0,0,1,.11-.11s.08,0,.07,0A.64.64,0,0,0,43,65c0,.13.07,0,.07,0a.41.41,0,0,1,.11-.07h0c0,.1,0,.2,0,.3a.52.52,0,0,0,.3.37.2.2,0,0,0,.11,0,6.79,6.79,0,0,0-.41,3.18c-.27,0-.55.09-.82.15l-1.67.37A10.77,10.77,0,0,1,42,61.55a7.46,7.46,0,0,0-2.06,4.72c-.22-.88-.46-1.74-.69-2.51.13-.25.26-.5.41-.74a4.55,4.55,0,0,0-.47.53c-.32-1.07-.61-1.94-.76-2.37a15.38,15.38,0,0,0,.11,3.46,6.3,6.3,0,0,0-.33.85A10.7,10.7,0,0,0,36.85,64a4.09,4.09,0,0,0-.33-.28c-.3-1-.56-1.79-.7-2.2a10.41,10.41,0,0,0,0,1.62,11.64,11.64,0,0,0-1.1-.68,9.48,9.48,0,0,1,1.12,1.07,27.07,27.07,0,0,0,.37,3.11,11.07,11.07,0,0,0-1.89-2.26,10.27,10.27,0,0,0-2.19-1.54c2.61,2.06,3.72,5.5,4.17,7.5l-.57.16a4.6,4.6,0,0,0,.2-.79.5.5,0,0,0-.15-.37c-.35-.33-1.21-.18-1.58-.08h0a1.53,1.53,0,0,0,.27-.56,1.72,1.72,0,0,0,.11-.64c0-.81-.45-1-1-1a.33.33,0,0,1,0-.14h0a.29.29,0,0,1,.1,0s.09.08,0,0l-.08-.12s0,0,0,0l.1,0s.09.06.11,0,0-.14-.07-.18a2.06,2.06,0,0,0-.33-.33l.17.11a1.79,1.79,0,0,1,.25.22,1.73,1.73,0,0,0-.24-.27,2.2,2.2,0,0,0-.4-.3s0-.11,0-.15a1.38,1.38,0,0,0,.55-.32A.9.9,0,0,0,34,65.3l-.11.15a.52.52,0,0,1-.11.1.82.82,0,0,0,.12-.2.73.73,0,0,0,0-.25c0-.25-.28-.26-.43-.17s-.07,0-.07,0,0-.11,0-.1a.42.42,0,0,0-.2.17s-.08,0-.08,0a.57.57,0,0,0,0-.13s-.12.09-.12.09a1.12,1.12,0,0,0-.13.24.88.88,0,0,1,.14-.38.89.89,0,0,0-.22.31s-.06.15-.09.27l0-.09v0a1.52,1.52,0,0,0-.17-.48.62.62,0,0,0-.09-.12,1.17,1.17,0,0,1,.09.32l-.06-.16s-.05-.09-.07-.13-.14,0-.16.07-.07,0-.08,0-.1-.13-.12-.08,0,.07,0,.11-.08,0-.1,0c-.22-.09-.25.14-.23.39a.81.81,0,0,1-.1-.18.38.38,0,0,0,0,.1,2.49,2.49,0,0,0,.13.67h0a1.61,1.61,0,0,0-.41-.27,2,2,0,0,0-.34-.13.64.64,0,0,1,.13.1.93.93,0,0,0-.33-.07c-.2,0,0,.18,0,.25s0,0,0,0h-.06c-.11,0-.08.1,0,.15s0,.07,0,.1-.07,0-.1.09a.25.25,0,0,0,0,.17,2.77,2.77,0,0,0-.43.18,4.93,4.93,0,0,0-.63.42c-.12.09-.21.19-.32.28l-.24.22h0l0,0h0a.33.33,0,0,0,0-.06,2,2,0,0,0,.07-.19.37.37,0,0,0,0-.11,1.86,1.86,0,0,0,0-.26,2,2,0,0,0,0-.25v-.12A1.42,1.42,0,0,0,29,66a.51.51,0,0,0-.1-.21.08.08,0,0,0,0,0,.36.36,0,0,0-.11-.1l-.05,0-.13,0h-.42l-.16,0h0a1.49,1.49,0,0,0-.38.18,4.05,4.05,0,0,0-1.29,1.82c.1-.23-.24-.84-.49-.83a1.5,1.5,0,0,0-1,.77,2.65,2.65,0,0,0-.27.62c0,.12-.22.58-.15.69-.46-.86-1.11-1.71-1.71-1.06a2.28,2.28,0,0,0-.15,2.6,1.69,1.69,0,0,0-1.72-.06.69.69,0,0,0-.27.61,2.8,2.8,0,0,0,1.33,1.62c-1,.26-2,.81-2,1.83a1.59,1.59,0,0,0,0,.36.23.23,0,0,0,.1.12c.52.12.47.06,1.14-.07l.65-.25c-.38.53-.54,1-.18,1.34A13,13,0,0,0,20,77.18c-.66.6-1.79,1.38-1.92,2.46-.26,2.16,2.05,3.15,3.9,3.64a5.31,5.31,0,0,1-.6.33,3.6,3.6,0,0,1-2.55.25c-.12,0-.26.19-.22.32.25.8,1.39,1.13,2,1.36l.07,0h0a3.8,3.8,0,0,0,.51.13,5,5,0,0,0-.41.38l-.06,0A4.71,4.71,0,0,0,19,87.52s-.05.15,0,.18c.29.2.78-.21,1.06-.33a5.73,5.73,0,0,1,2.2-.45c-1.38.72-2.72,1.82-2.58,3.5.07,1,1.12,1.49,1.78,1.8a21,21,0,0,0,4.68,1.34C32.72,95,39.4,95.25,46,96.17l-.93.24a21.62,21.62,0,0,0-2.78.66c-.07,0-.27.27-.14.35.59.38,1.55.16,2.2.14.4,0,.81,0,1.22-.06a2.32,2.32,0,0,0-.68.77c0,.07,0,.17,0,.21.41.24,1.08-.15,1.49-.22a9.72,9.72,0,0,1,2-.15,3,3,0,0,0-.59.69c-.06.09-.05.22.06.23,5.44.53,10.91.74,16.36,1.09,2.76.17,5.52.33,8.27.53s38.54-.79,42.89-1.45c2.52-.38,5-.61,7.56-1s4.87-1,7.32-1.42a26.69,26.69,0,0,0,6.72-2c1-.45,3.68-1.49,3.55-3.19a3.13,3.13,0,0,0-1.93-2.47l0,0a5.05,5.05,0,0,0,2.48-1.72C141.22,87.36,141.28,87.2,141.18,87.17ZM83,64.78c.09.41.17.8.23,1.17H83C83,65.58,83,65.19,83,64.78ZM93.1,59.51h0Zm-2.43,2.41s0,0,0,0l0,0ZM92,61.16v0h0l0,0ZM117,60.67c-.06.06-.11.13-.16.19,0-.24.06-.47.1-.71A4.6,4.6,0,0,0,117,60.67Zm8.55,3,0,0h0a.79.79,0,0,0,.22-.25l.52,0-.33.13c-.13,0-.27.09-.39.15ZM99.28,66.3a.28.28,0,0,0,0,.09h-.13ZM121.38,62c-.3.12-.59.26-.89.4l-.3,0c.14-.17.29-.34.42-.52l.8-.35A.88.88,0,0,0,121.38,62Zm-2-1.36,0,0a1.43,1.43,0,0,0,.08-.22l.88-.36-.15.27Zm-9.22-1.45c0,.14,0,.29-.06.44a2.19,2.19,0,0,0-.54-.32l.18-.31a2.63,2.63,0,0,0,.2-.33l.25.38Zm-.51-2.3v0l.06.06Zm-3.24.57h0l-.05,0h0a.89.89,0,0,0,.21-.22l0,.12Zm-6.6-1c-.12.15-.59.68-.56.88a7.18,7.18,0,0,0-.38-1.55l.06,0c.33.17.67.32,1,.47A1.58,1.58,0,0,0,99.83,56.38Zm-4.41,9.85-.52,0c.2-.06.4-.12.61-.2A1,1,0,0,0,95.42,66.23ZM38.54,69.77c-.07-.44-.13-.93-.16-1.45.16.5.29,1,.39,1.39Zm-7-3.08a.4.4,0,0,0,.15,0,.91.91,0,0,0-.17.74l.08-.18h0a.69.69,0,0,0,.05.28.28.28,0,0,0,.29.15c-.29.16-.55.32-.73.43.1-.06.17-.57.19-.68a2.13,2.13,0,0,0,.08-.71Zm92.05-5a2.36,2.36,0,0,0,.38.1,4.27,4.27,0,0,0-.76.52l-.69.06a1,1,0,0,0-.11-.3C122.82,61.93,123.22,61.8,123.61,61.69ZM123.16,59c-.16.17-.42.45-.69.77a3.31,3.31,0,0,0-.62,0c.09-.17.17-.35.26-.53l1.32-.57A3.63,3.63,0,0,1,123.16,59Zm1.49-1.75.44-.09-.27.17a15.14,15.14,0,0,0-2,.4l.12-.25C123.54,57.39,124.09,57.33,124.65,57.23Zm-3.83.56a4.4,4.4,0,0,0,1.07-.16,5.08,5.08,0,0,0-.46.56c-.47.19-.94.39-1.4.63.06-.18.12-.36.16-.53Zm-3.26,3.37c0,.13-.09.25-.13.37l-.15.09s-.08,0-.13,0l-.05.06-.19.11-.22.12c0-.1,0-.21,0-.31l.18-.21ZM115,60.73c-.08.14-.16.26-.23.39,0-.5,0-1,.07-1.49a2,2,0,0,0,.08-.22A9.55,9.55,0,0,0,115,60.73Zm-3-1.41,0,.07-.15-.52,0,0C112,59,112,59.18,112.07,59.32Zm-1.61-1.8a1.06,1.06,0,0,0,0,.19l-.14-.15a.71.71,0,0,0-.06-.26ZM109.11,54l0-.15c.1.13.21.25.31.39Zm-1.45-.12h0c-.18,0-.15.27-.09.36.18.27.38.55.58.82,0,.63,0,1.26,0,1.79l-.51.12c-.09-.89-.28-1.78-.45-2.65,0-.26-.12-.57-.21-.89C107.23,53.57,107.44,53.73,107.66,53.87Zm-4.4,2c-.12.11-.24.22-.35.34l-.23-.09a2.58,2.58,0,0,0,0-.38Zm-3.26-.5c.26,0,.53.07.79.11l-.16.1a13.8,13.8,0,0,0-1.77-.22c-.07,0-.1,0-.11.06a1.77,1.77,0,0,0-.34-.45A11.56,11.56,0,0,0,100,55.36Zm-6,5.72a6,6,0,0,0-1.85,0,1.68,1.68,0,0,0-.46-.82h.25a2,2,0,0,0,1.22-.68A6.78,6.78,0,0,0,94,61.08Zm-4.14.71a1.88,1.88,0,0,0,.53,0l.07,0a1.17,1.17,0,0,0,.15.27v0a2.07,2.07,0,0,0-.24.52,2.65,2.65,0,0,0-.11.52.38.38,0,0,0,.08.23c.66.44.62.33,1.62.51h1c-.84.57-1.33,1.25-.82,1.91a1.74,1.74,0,0,0,.44.38c-1.26,0-2.52-.06-3.79-.09A7.4,7.4,0,0,1,89.83,61.79Zm-6.3-.31c0,.33,0,.66.07,1L83.36,62C83.41,61.84,83.47,61.66,83.53,61.48Zm-1,1.61a13.85,13.85,0,0,0-.3,1.77c-.14-1.32-.37-2.72-.61-4A16.6,16.6,0,0,1,82.5,63.09ZM38.62,65.46c0,.28.08.56.13.84-.08-.12-.16-.25-.24-.36S38.58,65.62,38.62,65.46Zm-.77,1.46a11.6,11.6,0,0,0-.12,1.53c-.22-1.11-.52-2.29-.82-3.36A13.79,13.79,0,0,1,37.85,66.92Z"/><path class="cls-3" d="M73,65.33c-.32-.36-1.23-.29-1.59-.24.12,0,.3-.42.35-.51a1.57,1.57,0,0,0,.16-.6c.15-1.89-2.43-.74-3.27-.35.09,0,.21-.52.25-.62a1.87,1.87,0,0,0,.16-.77c0-.72-.84-.59-1.31-.39a5.07,5.07,0,0,0-1.31.77c.22-.18.27-.95.22-1.21-.11-.67-1-.5-1.4-.31a3.92,3.92,0,0,0-1.46,1.61c.13-.21-.15-.83-.41-.84a1.47,1.47,0,0,0-1.07.63,2.12,2.12,0,0,0-.33.56c-.05.11-.27.53-.22.65-.37-.87-.94-1.74-1.6-1.18a2.12,2.12,0,0,0-.4,2.46A1.75,1.75,0,0,0,58,64.76a.66.66,0,0,0-.32.55A2.71,2.71,0,0,0,58.88,67c-1.16.16-2.31.67-2.12,1.89a.18.18,0,0,0,.09.13c.51.17.46.1,1.14,0l.67-.17c-.46.51-.67,1-.23,1.34.62.45,1.47.15,2.25-.4-.07.27,0,.48.24.55a2.47,2.47,0,0,0,2.27-1c0,.07,0,.14,0,.21a1.06,1.06,0,0,0,1,.79,1.39,1.39,0,0,0,1-.91c0-.06.06-.14.09-.21,0,.08.12.16.18.25.2.26.64.72,1,.56s.45-.54.44-1c0,.07.51.3.58.33a2.8,2.8,0,0,0,.65.24,3.27,3.27,0,0,0,2-.32.92.92,0,0,0,.57-1l.48.11a2.13,2.13,0,0,0,1.63-.31c.7-.53.27-1.07-.36-1.37.16.07.54-1,.55-1.09A.44.44,0,0,0,73,65.33Z"/><path class="cls-4" d="M66.05,61.32a1.3,1.3,0,0,1,.13,1.45l.24-.16a1.92,1.92,0,0,0,.21-1.2c-.11-.65-1-.51-1.38-.31A.88.88,0,0,1,66.05,61.32Z"/><path class="cls-4" d="M73.08,65.69a.44.44,0,0,0-.11-.36c-.32-.36-1.23-.29-1.59-.24.12,0,.3-.42.35-.51a1.57,1.57,0,0,0,.16-.6c.15-1.89-2.43-.74-3.27-.35.09,0,.21-.52.25-.62a1.87,1.87,0,0,0,.16-.77c0-.72-.84-.59-1.31-.39a5.31,5.31,0,0,0-1.28.75,2.13,2.13,0,0,1,1.78-.22c.64.26.39,1.08,0,1.76a5.41,5.41,0,0,1,1.66-.07c.48.07,1.28.29,1,.93a2.4,2.4,0,0,1-1,.68c.8.34,1.41.82,1,1.42-.62,1-2.12.72-3.25.29a.82.82,0,0,1-.22,1c-.55.36-1.12,0-1.5-.58a5.39,5.39,0,0,1-.65.75c-.3.3-1,.85-1.39.39a.66.66,0,0,1-.12-.56,3.27,3.27,0,0,1-.48.35c-.46.28-1.21.7-1.77.43a.48.48,0,0,1-.21-.18,6.31,6.31,0,0,1-.73.38c-.49.21-1.23.63-1.66.11-.22-.27-.13-.62.1-1a3,3,0,0,1-1.3.12c-.29,0-.73-.1-.92-.38a1.41,1.41,0,0,0,0,.62.18.18,0,0,0,.09.13c.51.17.46.1,1.14,0l.67-.17c-.46.51-.67,1-.23,1.34.62.45,1.47.15,2.25-.4-.07.27,0,.48.24.55a2.47,2.47,0,0,0,2.27-1c0,.07,0,.14,0,.21a1.06,1.06,0,0,0,1,.79,1.39,1.39,0,0,0,1-.91c0-.06.06-.14.09-.21,0,.08.12.16.18.25.2.26.64.72,1,.56s.45-.54.44-1c0,.07.51.3.58.33a2.8,2.8,0,0,0,.65.24,3.27,3.27,0,0,0,2-.32.92.92,0,0,0,.57-1l.48.11a2.13,2.13,0,0,0,1.63-.31c.7-.53.27-1.07-.36-1.37C72.69,66.85,73.07,65.8,73.08,65.69Z"/><path class="cls-5" d="M60.55,63.69c-.25,0-.46.2-.55.47A.82.82,0,0,0,60,65c.11.2.37.13.51,0a1,1,0,0,0,.34-.55C60.92,64.15,60.88,63.75,60.55,63.69Z"/><path class="cls-5" d="M59.85,65.53c-.27,0-.49.7-.13.64S60.22,65.47,59.85,65.53Z"/><path class="cls-5" d="M62.34,65.39a.57.57,0,0,0-.92-.2.93.93,0,0,0-.31.39h0a.82.82,0,0,0,0,1.06.69.69,0,0,0,1,.07A1.11,1.11,0,0,0,62.34,65.39Z"/><path class="cls-5" d="M63.11,63.54c-.28,0-.51.72-.13.66S63.49,63.48,63.11,63.54Z"/><path class="cls-3" d="M114.79,65.6c-.33-.63-1.65-.86-2.2-.91.18,0,.6-.5.69-.62a2.46,2.46,0,0,0,.46-.8c.91-2.65-3.22-2-4.57-1.69.16,0,.5-.67.59-.81a2.92,2.92,0,0,0,.51-1c.21-1.05-1-1.16-1.74-1.05a7.6,7.6,0,0,0-2.15.63c.38-.18.73-1.27.76-1.66.09-1-1.26-1.09-1.9-.95a5.78,5.78,0,0,0-2.68,1.76c.26-.26.08-1.24-.28-1.35a2.16,2.16,0,0,0-1.77.5,4,4,0,0,0-.68.69c-.12.14-.59.66-.56.85-.21-1.38-.7-2.84-1.85-2.29-1.32.64-1.59,2-1.47,3.39a2.65,2.65,0,0,0-2.37-1,1,1,0,0,0-.67.67A4,4,0,0,0,94,62.8c-1.72-.19-3.56.1-3.73,1.93a.33.33,0,0,0,.08.22c.66.42.62.32,1.62.48h1c-.84.56-1.33,1.2-.82,1.83.72.88,2.06.76,3.37.26-.19.36-.19.68.15.88,1,.62,2.42.14,3.62-.6,0,.1,0,.2,0,.3a1.58,1.58,0,0,0,1.16,1.51,2.06,2.06,0,0,0,1.77-.93l.2-.28.17.42c.19.45.66,1.27,1.25,1.18s.84-.6,1-1.2c0,.11.62.62.71.69a4.55,4.55,0,0,0,.85.58,4.9,4.9,0,0,0,3,.29,1.35,1.35,0,0,0,1.18-1.22l.64.34a3.16,3.16,0,0,0,2.45.15c1.2-.51.79-1.44,0-2.1.19.15,1.13-1.21,1.18-1.35A.72.72,0,0,0,114.79,65.6Z"/><path class="cls-4" d="M106.34,57.32a1.91,1.91,0,0,1-.35,2.12c.13,0,.27-.1.41-.13a2.94,2.94,0,0,0,.74-1.65c.08-1-1.22-1.09-1.86-1A1.32,1.32,0,0,1,106.34,57.32Z"/><path class="cls-4" d="M114.81,66.18a.72.72,0,0,0,0-.58c-.33-.63-1.65-.86-2.2-.91.18,0,.6-.5.69-.62a2.46,2.46,0,0,0,.46-.8c.91-2.65-3.22-2-4.57-1.69.16,0,.5-.67.59-.81a2.92,2.92,0,0,0,.51-1c.21-1.05-1-1.16-1.74-1.05a7.5,7.5,0,0,0-2.11.61,3.11,3.11,0,0,1,2.64.34c.82.6.17,1.69-.65,2.52a7.53,7.53,0,0,1,2.41.51c.66.27,1.74.88,1,1.68a3.44,3.44,0,0,1-1.6.64c1,.78,1.71,1.68.92,2.4-1.25,1.14-3.31.26-4.77-.79,0,.62-.13,1.17-.68,1.36-.92.32-1.6-.47-1.94-1.38a8.24,8.24,0,0,1-1.21.84c-.53.31-1.74.85-2.14,0a.93.93,0,0,1,0-.84,5,5,0,0,1-.81.32c-.77.24-2,.56-2.7,0a.63.63,0,0,1-.23-.33c-.4.11-.79.2-1.19.27-.78.12-2,.45-2.43-.46-.22-.46,0-.92.5-1.34a4.58,4.58,0,0,1-1.9-.3c-.41-.18-1-.43-1.19-.89a2.08,2.08,0,0,0-.28.87.33.33,0,0,0,.08.22c.66.42.62.32,1.62.48h1c-.84.56-1.33,1.2-.82,1.83.72.88,2.06.76,3.37.26-.19.36-.19.68.15.88,1,.62,2.42.14,3.62-.6,0,.1,0,.2,0,.3a1.58,1.58,0,0,0,1.16,1.51,2.06,2.06,0,0,0,1.77-.93l.2-.28.17.42c.19.45.66,1.27,1.25,1.18s.84-.6,1-1.2c0,.11.62.62.71.69a4.55,4.55,0,0,0,.85.58,4.9,4.9,0,0,0,3,.29,1.35,1.35,0,0,0,1.18-1.22l.64.34a3.16,3.16,0,0,0,2.45.15c1.2-.51.79-1.44,0-2.1C113.82,67.68,114.76,66.32,114.81,66.18Z"/><path class="cls-5" d="M97.58,58.7c-.35-.16-.73.12-1,.47a1.23,1.23,0,0,0-.3,1.13c.09.32.49.32.73.21a1.41,1.41,0,0,0,.68-.66C97.93,59.49,98,58.9,97.58,58.7Z"/><path class="cls-5" d="M95.89,61.07c-.4,0-1,.82-.41.88C95.88,62,96.44,61.12,95.89,61.07Z"/><path class="cls-5" d="M99.52,61.79a.85.85,0,0,0-1.24-.63,1.36,1.36,0,0,0-.59.45l0,0a1.18,1.18,0,0,0-.44,1.49,1,1,0,0,0,1.4.48A1.66,1.66,0,0,0,99.52,61.79Z"/><path class="cls-5" d="M101.31,59.42c-.42,0-1,.85-.43.9C101.29,60.36,101.88,59.47,101.31,59.42Z"/><path class="cls-3" d="M132.21,70.34c-.26-.5-1.31-.69-1.74-.73.14,0,.47-.39.55-.49a2.19,2.19,0,0,0,.36-.63c.72-2.11-2.56-1.56-3.64-1.35.12,0,.4-.54.47-.64a2.39,2.39,0,0,0,.41-.83c.16-.83-.79-.92-1.39-.84a6,6,0,0,0-1.71.51c.3-.15.58-1,.61-1.33.06-.79-1-.86-1.52-.75a4.48,4.48,0,0,0-2.13,1.4c.2-.2.06-1-.23-1.08a1.75,1.75,0,0,0-1.41.41,3.07,3.07,0,0,0-.54.54c-.09.12-.46.53-.44.68-.17-1.1-.56-2.26-1.48-1.82a2.51,2.51,0,0,0-1.17,2.7,2.09,2.09,0,0,0-1.89-.77.8.8,0,0,0-.53.54,3.25,3.25,0,0,0,.84,2.25c-1.36-.15-2.83.08-3,1.54a.27.27,0,0,0,.06.17c.53.34.5.25,1.29.39h.81c-.66.44-1.06,1-.65,1.45.57.7,1.64.6,2.68.21-.15.28-.15.54.12.7.82.49,1.93.11,2.88-.48l0,.24a1.24,1.24,0,0,0,.92,1.2,1.66,1.66,0,0,0,1.41-.74c0-.07.1-.15.16-.22,0,.11.09.22.14.33.15.36.52,1,1,.95s.67-.49.77-1c0,.08.49.49.56.55a4.51,4.51,0,0,0,.68.46,3.89,3.89,0,0,0,2.43.23,1.08,1.08,0,0,0,.94-1c.17.09.33.18.51.26a2.46,2.46,0,0,0,1.95.12c1-.4.63-1.14,0-1.67.16.13.9-1,.94-1.07A.52.52,0,0,0,132.21,70.34Z"/><path class="cls-4" d="M125.49,63.75a1.53,1.53,0,0,1-.28,1.68l.32-.1a2.36,2.36,0,0,0,.6-1.32c.06-.77-1-.86-1.49-.76A1.08,1.08,0,0,1,125.49,63.75Z"/><path class="cls-4" d="M132.23,70.8a.52.52,0,0,0,0-.46c-.26-.5-1.31-.69-1.74-.73.14,0,.47-.39.55-.49a2.19,2.19,0,0,0,.36-.63c.72-2.11-2.56-1.56-3.64-1.35.12,0,.4-.54.47-.64a2.39,2.39,0,0,0,.41-.83c.16-.83-.79-.92-1.39-.84a6.23,6.23,0,0,0-1.68.49,2.47,2.47,0,0,1,2.1.27c.65.48.14,1.35-.51,2a5.84,5.84,0,0,1,1.91.41c.53.21,1.39.7.82,1.33a2.69,2.69,0,0,1-1.27.51c.81.62,1.36,1.34.73,1.92-1,.9-2.63.2-3.8-.63,0,.49-.1.92-.54,1.08-.73.25-1.27-.38-1.54-1.1a6.49,6.49,0,0,1-1,.67c-.42.25-1.38.67-1.7,0a.76.76,0,0,1,0-.67,5,5,0,0,1-.64.26c-.62.19-1.6.44-2.16,0a.54.54,0,0,1-.18-.26,7.93,7.93,0,0,1-.94.21c-.62.1-1.6.36-1.94-.36-.17-.37,0-.74.4-1.07a3.71,3.71,0,0,1-1.52-.24c-.32-.14-.8-.34-.94-.71a1.65,1.65,0,0,0-.22.7.27.27,0,0,0,.06.17c.53.34.5.25,1.29.39h.81c-.66.44-1.06,1-.65,1.45.57.7,1.64.6,2.68.21-.15.28-.15.54.12.7.82.49,1.93.11,2.88-.48l0,.24a1.24,1.24,0,0,0,.92,1.2,1.66,1.66,0,0,0,1.41-.74c0-.07.1-.15.16-.22,0,.11.09.22.14.33.15.36.52,1,1,.95s.67-.49.77-1c0,.08.49.49.56.55a4.51,4.51,0,0,0,.68.46,3.89,3.89,0,0,0,2.43.23,1.08,1.08,0,0,0,.94-1c.17.09.33.18.51.26a2.46,2.46,0,0,0,1.95.12c1-.4.63-1.14,0-1.67C131.45,72,132.19,70.91,132.23,70.8Z"/><path class="cls-5" d="M118.51,64.84c-.28-.12-.58.1-.77.38a1,1,0,0,0-.24.9c.07.26.39.26.58.17a1.18,1.18,0,0,0,.55-.53C118.79,65.48,118.87,65,118.51,64.84Z"/><path class="cls-5" d="M117.17,66.73c-.32,0-.77.66-.33.7S117.61,66.77,117.17,66.73Z"/><path class="cls-5" d="M120.06,67.3a.69.69,0,0,0-1-.5,1.17,1.17,0,0,0-.47.36l0,0a.94.94,0,0,0-.35,1.19.81.81,0,0,0,1.12.37A1.32,1.32,0,0,0,120.06,67.3Z"/><path class="cls-5" d="M121.48,65.41c-.33,0-.79.68-.34.73S121.93,65.46,121.48,65.41Z"/><path class="cls-3" d="M140.48,64.13a22.38,22.38,0,0,0-5.63-1.37,2,2,0,0,0,.34-.12,2.52,2.52,0,0,0,1.17-.79h0c.09-.11.11-.23-.07-.22a5.61,5.61,0,0,0-2.22.53,1.07,1.07,0,0,0-.39.22,15.64,15.64,0,0,0-1.71-.3l.43-.2a5.12,5.12,0,0,0,1.92-1.45.13.13,0,0,0-.07-.21,3.67,3.67,0,0,0-2.16.58,4.82,4.82,0,0,0-1.7,1.18c-.65,0-1.3,0-2,.07a11.57,11.57,0,0,0,1.53-.93c.48-.35,1-.71,1.5-1.12a.38.38,0,0,0,.09-.09q.18-.16.33-.33c.08-.09.1-.24,0-.27-.67-.19-1.48.32-2.05.61A12.12,12.12,0,0,0,127.34,62c-.08.07,0,.14,0,.15v0c-.65.08-1.3.19-1.93.32l.45-.2a11.91,11.91,0,0,0,1.07-.8A6.37,6.37,0,0,0,129,59.16c.07-.17,0-.27-.21-.23a8.18,8.18,0,0,0-3,1.71c-.43.35-1.53,1.41-1.53,2.11-.48.12-1,.25-1.41.39a4,4,0,0,0-.45.16,6.91,6.91,0,0,0,1.57-1.39c.69-.91,1.37-1.92,2-2.88.1-.16-.08-.23-.21-.22-1,.12-1.89,1.36-2.56,2-.5.49-2,2-1.78,2.84q-.67.27-1.32.57c1.38-1.44,2.13-3.4,3.06-5.13.12-.23-.14-.26-.29-.21-.8.24-1.49,1.26-1.89,1.9a11.83,11.83,0,0,0-1.84,3.92c-.45.23-.9.48-1.34.74a9.92,9.92,0,0,0,1.46-2.7,15.81,15.81,0,0,0,1.18-3.6c0-.31-.39-.11-.49,0-1.53,1.58-3.08,4.39-2.79,6.67h0l-.43.28c-.23.08-.4.17-.43.26s-.1,0-.11,0l0,0s0,.06.05,0h0l-.33.24a8.33,8.33,0,0,0,.72-2.57c.31-1.28.35-2.61.66-3.9.07-.31-.42-.1-.51,0-1.36,1.52-2,5-1.51,7l-.51.43a6.09,6.09,0,0,0-.44.44l-.06,0s0,0,0-.06v0h0v0a.22.22,0,0,0,.11-.13c.39-2.53.4-5,.56-7.56,0-.27-.48,0-.53.11-1.06,2.27-1.76,5.63-.65,8v0a.08.08,0,0,0,.06.08l0,.06,0,.06a2.88,2.88,0,0,0-.3.39c-.21.16-.24.32-.11.49-.07,0-.19,0-.21.1v0c-.08.17.19.09.25,0a6.24,6.24,0,0,1,.89-1.17,24.41,24.41,0,0,0,4,.37,10.29,10.29,0,0,0,4.56-.74c.12-.06.4-.31.15-.41a10.24,10.24,0,0,0-3.42-.59l1.2-.08c1.21-.09,3.25.06,4.28-.66.09-.06.22-.19.11-.29-.79-.78-2.8-.66-3.81-.67a17.9,17.9,0,0,0-2.74.26c-.09,0-.38,0-.72.12l.37-.21h0a.14.14,0,0,0,.16-.1h0l.31-.16c3.17-.09,6.31-.13,9.48-.42.12,0,.48-.27.23-.34a14.42,14.42,0,0,0-7.8-.17,23.58,23.58,0,0,1,2.93-1,5.53,5.53,0,0,0,1.2.23c.87.15,1.72.41,2.59.56a17.8,17.8,0,0,0,3.72.22c.12,0,.44-.19.27-.34h0a12.76,12.76,0,0,0,3.21.9c.12,0,.42-.21.26-.31a13,13,0,0,0-3.94-1.75c-.37-.1-.74-.19-1.11-.26.65,0,1.29,0,1.94.11a12.09,12.09,0,0,0,2.7,1.14c1,.37,2,.82,3,1.19.1,0,.36-.15.23-.24a10.54,10.54,0,0,0-1.68-1,15.78,15.78,0,0,0,4.27.64C140.39,64.47,140.72,64.22,140.48,64.13Z"/><path class="cls-6" d="M38.07,72.47c0-2.79-1.8-7.93-2.25-9.21-.36,2.69.92,7.82,1.32,9.34Z"/><path class="cls-7" d="M37.92,72.49A11.26,11.26,0,0,0,34.27,66a10.64,10.64,0,0,0-2.19-1.47c3.16,2.38,4.12,6.69,4.37,8.17Z"/><path class="cls-7" d="M40.66,72.11c0-2.8-1.8-7.93-2.26-9.21-.35,2.68.92,7.82,1.33,9.34Z"/><path class="cls-6" d="M40.51,72.13a11.27,11.27,0,0,0-3.66-6.5,10.93,10.93,0,0,0-2.18-1.46c3.16,2.38,4.12,6.69,4.37,8.16Z"/><path class="cls-6" d="M41.09,72.05c-.47-1.55-1.32-5.52.88-8.8-.89.8-2.83,3.25-1.91,8.94Z"/><path class="cls-6" d="M38.83,72.36c-.42-1.42-1.1-4.85.8-7.69-.78.7-2.49,2.85-1.71,7.82Z"/><path class="cls-8" d="M43.49,70.8a5.64,5.64,0,0,1,.64-4.23.09.09,0,0,0,0-.12.09.09,0,0,0-.07,0,.05.05,0,0,0,0,0c-.06.06-1.17,1.5-.67,4.37Z"/><path class="cls-8" d="M44.46,66.72a1,1,0,0,1-.81-.07.84.84,0,0,1-.36-.72,3.3,3.3,0,0,1,0-.83.56.56,0,0,1,0-.12c.06-.12.22-.14.32-.15a3.53,3.53,0,0,1,.46,0,2,2,0,0,1,.47.11,1.85,1.85,0,0,1,.39.15c.31.17.19.62.13.89A.9.9,0,0,1,44.46,66.72Z"/><path class="cls-9" d="M45.24,64.19a1.86,1.86,0,0,1,.48-.49,1.41,1.41,0,0,1,.51-.28c.26-.06,0,.23,0,.32s0,0,0,0l.09,0c.13,0,.13.09.1.17s0,.1,0,.13.09,0,.17.07a.58.58,0,0,1,0,.32,1,1,0,0,1-.45.59,1.49,1.49,0,0,1-.5.26.67.67,0,0,1-.63-.08.68.68,0,0,1-.11-.63C45.1,64.43,45.21,64.23,45.24,64.19Z"/><path class="cls-9" d="M43.78,63.36a1.21,1.21,0,0,1,0-.18c.06-.18.19,0,.23,0s.09,0,.1-.05.08-.2.13-.15,0,.1.07.14.11,0,.14,0c.43-.35.49.74.5,1,0,.4-.22,1-.72.89-.28-.07-.44-.4-.51-.71,0-.13,0-.25,0-.37A2.15,2.15,0,0,1,43.78,63.36Z"/><path class="cls-9" d="M43.82,64.73h0A.76.76,0,0,0,44,65L44,65a.41.41,0,0,0-.22,0A.39.39,0,0,0,43.82,64.73Z"/><path class="cls-9" d="M43.39,65.06a2.16,2.16,0,0,1-.71-.12,1.34,1.34,0,0,1-.53-.37.85.85,0,0,1-.15-.3c-.08-.3.28-.43.5-.36,0,0,.1,0,.08-.06s-.06-.14,0-.14a.53.53,0,0,1,.32.15s.1,0,.09,0,0-.11,0-.17.18.07.18.07a1.49,1.49,0,0,1,.41.42c.06.08.1.15.15.23v0c0,.1,0,.2.07.3a.48.48,0,0,1,0,.17.21.21,0,0,1,0,.12l-.06,0A.43.43,0,0,1,43.39,65.06Z"/><path class="cls-9" d="M43.54,67.08a.5.5,0,0,1-.3-.35c0-.1,0-.19,0-.29h0a.41.41,0,0,0-.11.07s-.09.13-.07,0a.64.64,0,0,1,.06-.18s-.06,0-.07,0a.52.52,0,0,0-.11.1s-.1.11-.14.07,0-.19,0-.25a2.81,2.81,0,0,1,.47-.8,3.06,3.06,0,0,1,.37-.35l.1,0a.32.32,0,0,1,.41.11.69.69,0,0,1,.09.47,2.16,2.16,0,0,1-.08.56C44.06,66.42,43.9,67.17,43.54,67.08Z"/><path class="cls-9" d="M45.29,66.77s-.08,0-.08.06a.08.08,0,0,0,0,0l-.11,0a.12.12,0,0,0-.1.08c0,.19-.27-.11-.31-.15a1.58,1.58,0,0,1-.2-.36,4,4,0,0,1-.15-.45c0-.06,0-.17,0-.23a2.28,2.28,0,0,0,0-.37.5.5,0,0,0-.18-.32.47.47,0,0,0,.24,0,.78.78,0,0,0,.54-.31,1,1,0,0,0,.05.38.37.37,0,0,0,.32.27,2.33,2.33,0,0,1,.47.56.8.8,0,0,1,.07.48C45.75,66.69,45.5,66.74,45.29,66.77Z"/><path class="cls-10" d="M46.81,64.48a2.59,2.59,0,0,1-.3.27c-.27.21-.73.49-1.06.28a0,0,0,0,1,0-.07c.2-.18.46-.29.65-.47a2,2,0,0,1-.57.34s-.06,0-.05,0A1.89,1.89,0,0,1,46,64a1.48,1.48,0,0,0-.63.56s-.09,0-.08,0A2,2,0,0,1,46,63.46a2.41,2.41,0,0,0-.4.29,2.08,2.08,0,0,0-.44.49h0a2.6,2.6,0,0,0-.07-.88.93.93,0,0,0,0-.13,1.23,1.23,0,0,1-.4.85,0,0,0,0,1-.07,0,.84.84,0,0,1-.05-.31h0c0,.09-.09.26-.21.3s-.25-.2-.25-.44a2.42,2.42,0,0,0,0,.47,0,0,0,0,1-.08,0,1.59,1.59,0,0,1-.14-.94.87.87,0,0,0-.07.17,1.87,1.87,0,0,0-.06.66v.16c-.09-.14-.19-.26-.22-.3a1.24,1.24,0,0,0-.39-.31,1.13,1.13,0,0,1,.41.82,0,0,0,0,1-.06,0l-.32-.2a.61.61,0,0,1,.21.39c0,.14-.2.13-.29.1a2.48,2.48,0,0,1-.37-.17,2.05,2.05,0,0,0,.58.37s0,.08,0,.08a2.71,2.71,0,0,1-.57-.09,1.65,1.65,0,0,1-.41-.18,1.33,1.33,0,0,1-.19-.14,1.16,1.16,0,0,0,.45.4,1.66,1.66,0,0,0,.94.19s0,0,0,0h.07a2.81,2.81,0,0,0-.61.72,2,2,0,0,0-.22.42,1.78,1.78,0,0,1,.25-.36c.11-.12.23-.32.42-.33,0,0,0,0,0,.06a1.74,1.74,0,0,0-.1.19c.07-.09.16-.23.29-.2s.09.37,0,.64c.07-.2.14-.41.32-.49a0,0,0,0,1,0,0,1.59,1.59,0,0,1,.05,1l0-.08a2.59,2.59,0,0,0,.23-.66c0,.08.06.18.08.25a1.54,1.54,0,0,0,.33.6.66.66,0,0,0,.19.15,1.65,1.65,0,0,1-.16-.36,1,1,0,0,1-.11-.67s.07,0,.08,0a1.62,1.62,0,0,0,.29.53c-.11-.23-.24-.53-.09-.64s.26,0,.38.14c-.08-.19-.11-.35.06-.33a.89.89,0,0,1,.48.33l.16.2a1.15,1.15,0,0,0-.48-.86l.21,0A1.65,1.65,0,0,0,46.81,64.48Z"/><path class="cls-11" d="M44.78,65.73a1.1,1.1,0,0,1-1.19-.43.81.81,0,0,1-.1-.59c.07-.3.5-.48.78-.5a1.77,1.77,0,0,1,.6.15.43.43,0,0,1,.2.15h0a1.49,1.49,0,0,1,.18.55A.66.66,0,0,1,44.78,65.73Z"/><path class="cls-12" d="M44,64.6a.15.15,0,0,1-.15.15.16.16,0,0,1-.16-.15.16.16,0,0,1,.16-.16A.16.16,0,0,1,44,64.6Z"/><path class="cls-12" d="M44.27,64.41a.15.15,0,0,1-.15.15.16.16,0,0,1-.16-.15.16.16,0,0,1,.16-.16A.16.16,0,0,1,44.27,64.41Z"/><path class="cls-12" d="M44.36,64.78a.19.19,0,0,1-.19.19.2.2,0,0,1-.19-.19.19.19,0,0,1,.19-.19A.18.18,0,0,1,44.36,64.78Z"/><path class="cls-12" d="M44.64,64.47a.16.16,0,0,1-.15.16.16.16,0,0,1-.16-.16.16.16,0,0,1,.16-.15A.15.15,0,0,1,44.64,64.47Z"/><circle class="cls-12" cx="44.81" cy="64.59" r="0.16"/><path class="cls-12" d="M44.71,64.85a.15.15,0,0,1-.15.15.16.16,0,0,1-.16-.15.16.16,0,0,1,.16-.16A.16.16,0,0,1,44.71,64.85Z"/><path class="cls-12" d="M45.16,64.9a.16.16,0,0,1-.15.16.16.16,0,0,1,0-.32A.16.16,0,0,1,45.16,64.9Z"/><path class="cls-12" d="M45.13,65.35a.19.19,0,0,1-.19.2.2.2,0,1,1,0-.4A.19.19,0,0,1,45.13,65.35Z"/><path class="cls-12" d="M44.73,65.56a.16.16,0,0,1-.16.16.17.17,0,0,1-.17-.16.18.18,0,0,1,.17-.17A.17.17,0,0,1,44.73,65.56Z"/><path class="cls-12" d="M44.62,65.23a.14.14,0,1,1-.14-.14A.14.14,0,0,1,44.62,65.23Z"/><path class="cls-12" d="M44.83,65.1a.1.1,0,0,1-.1.09.09.09,0,0,1-.1-.09.09.09,0,0,1,.1-.1A.1.1,0,0,1,44.83,65.1Z"/><path class="cls-12" d="M44.33,65.15a.14.14,0,0,1-.28,0,.14.14,0,1,1,.28,0Z"/><path class="cls-12" d="M44,65a.17.17,0,0,1-.17.16A.16.16,0,0,1,43.7,65a.17.17,0,0,1,.16-.17A.18.18,0,0,1,44,65Z"/><path class="cls-12" d="M44.07,65.31a.14.14,0,0,1-.14.15.15.15,0,0,1-.15-.15.15.15,0,0,1,.15-.14A.14.14,0,0,1,44.07,65.31Z"/><path class="cls-12" d="M44.31,65.53a.15.15,0,0,1-.14.15.15.15,0,1,1,0-.3A.15.15,0,0,1,44.31,65.53Z"/><path class="cls-12" d="M43.68,64.82a.1.1,0,0,1-.1.1.09.09,0,0,1-.1-.1.1.1,0,0,1,.1-.1A.11.11,0,0,1,43.68,64.82Z"/><path class="cls-12" d="M43.76,65.22a.09.09,0,0,1-.1.1.1.1,0,0,1-.1-.1.11.11,0,0,1,.1-.1A.1.1,0,0,1,43.76,65.22Z"/><path class="cls-8" d="M34.2,71.58a4.18,4.18,0,0,0-1.31-2.87.06.06,0,0,1,0-.09.05.05,0,0,1,0,0h0a4.11,4.11,0,0,1,1.36,3Z"/><path class="cls-8" d="M32.68,68.88a.79.79,0,0,0,.57-.21.65.65,0,0,0,.11-.59,2.46,2.46,0,0,0-.16-.59.35.35,0,0,0-.05-.08c-.06-.07-.18,0-.26,0s-.22.07-.33.1a1.33,1.33,0,0,0-.3.18,1.5,1.5,0,0,0-.25.19c-.18.17,0,.47.09.65A.66.66,0,0,0,32.68,68.88Z"/><path class="cls-9" d="M31.62,67.24a1.73,1.73,0,0,0-.44-.25,1.16,1.16,0,0,0-.41-.09c-.2,0,0,.17,0,.24s0,0,0,0h-.06c-.11,0-.08.09,0,.15s0,.06,0,.09-.07,0-.1.09,0,.17.05.23a.78.78,0,0,0,.44.33,1.1,1.1,0,0,0,.4.08.49.49,0,0,0,.43-.19.48.48,0,0,0,0-.46Z"/><path class="cls-9" d="M32.49,66.36l-.07-.12c-.08-.11-.14,0-.16.07s-.07,0-.08,0-.1-.13-.12-.08,0,.07,0,.11-.08,0-.1,0c-.38-.16-.2.62-.17.78s.36.67.69.49a.67.67,0,0,0,.23-.61l-.06-.27A1.48,1.48,0,0,0,32.49,66.36Z"/><path class="cls-9" d="M32.74,67.34h0a.51.51,0,0,1-.1.21l0,0a.34.34,0,0,1,.17,0A.26.26,0,0,1,32.74,67.34Z"/><path class="cls-9" d="M33.11,67.49a1.77,1.77,0,0,0,.48-.23,1.07,1.07,0,0,0,.3-.37.67.67,0,0,0,0-.24c0-.23-.28-.25-.43-.16s-.07,0-.07,0,0-.11,0-.1a.42.42,0,0,0-.2.17s-.08,0-.08,0a.53.53,0,0,0,0-.13s-.12.09-.12.09a1.3,1.3,0,0,0-.21.38,1.8,1.8,0,0,0-.05.19v0a2,2,0,0,0,0,.23.27.27,0,0,0,0,.12s0,.06,0,.07l.06,0A.52.52,0,0,0,33.11,67.49Z"/><path class="cls-9" d="M33.41,69a.37.37,0,0,0,.14-.31c0-.07,0-.13,0-.21s0,0,0,0a.29.29,0,0,1,.1,0s.09.07,0,0a.76.76,0,0,0-.08-.11s0,0,0,0l.1,0s.09.06.11,0,0-.13-.07-.17a2,2,0,0,0-.49-.47,2.7,2.7,0,0,0-.34-.17l-.08,0a.23.23,0,0,0-.27.16.53.53,0,0,0,0,.35,1.3,1.3,0,0,0,.17.38C32.91,68.59,33.18,69.09,33.41,69Z"/><path class="cls-9" d="M32.11,69.08s.06,0,.07,0v0l.07-.06a.07.07,0,0,1,.08,0c0,.13.17-.13.19-.17a.78.78,0,0,0,.07-.3c0-.11,0-.23,0-.35s0-.12,0-.16-.05-.18-.07-.26a.36.36,0,0,1,.06-.27.27.27,0,0,1-.16.08.58.58,0,0,1-.45-.12.87.87,0,0,1,.05.28.29.29,0,0,1-.18.26,2,2,0,0,0-.22.49.64.64,0,0,0,.05.36C31.76,69.12,32,69.1,32.11,69.08Z"/><path class="cls-10" d="M30.57,67.77a2,2,0,0,0,.27.13c.22.09.61.2.8,0a0,0,0,0,0,0,0c-.18-.08-.38-.11-.55-.2a1.31,1.31,0,0,0,.47.12s0,0,0,0a1.35,1.35,0,0,0-.55-.45,1,1,0,0,1,.55.26s.07,0,.05,0a1.52,1.52,0,0,0-.66-.62,2,2,0,0,1,.34.13,1.81,1.81,0,0,1,.41.25h0a2.28,2.28,0,0,1-.13-.64.31.31,0,0,1,0-.09.88.88,0,0,0,.46.52s0,0,0,0a.6.6,0,0,0,0-.23h0c0,.06.12.17.21.17s.14-.19.09-.36a1.75,1.75,0,0,1,.12.32s.06,0,.06,0a1.13,1.13,0,0,0-.09-.7l.09.11a1.5,1.5,0,0,1,.17.46v0l0,.09c0-.12.08-.22.09-.26a.93.93,0,0,1,.22-.29.84.84,0,0,0-.13.66s0,0,0,0,.12-.14.19-.2a.42.42,0,0,0-.07.31c0,.1.17,0,.22,0a1.37,1.37,0,0,0,.23-.19,1.52,1.52,0,0,1-.34.38s0,.06,0,.05a2.3,2.3,0,0,0,.39-.17,1.73,1.73,0,0,0,.25-.21.83.83,0,0,0,.11-.15.87.87,0,0,1-.23.38,1.31,1.31,0,0,1-.64.33s0,0,0,0h0a2.08,2.08,0,0,1,.58.38,1.59,1.59,0,0,1,.24.26,1,1,0,0,0-.25-.2c-.11-.07-.23-.19-.37-.16a0,0,0,0,0,0,.05l.11.12c-.07,0-.16-.13-.25-.08s0,.28.11.45c-.09-.12-.18-.26-.32-.28l0,0a1.12,1.12,0,0,0,.17.71l0,0a2.08,2.08,0,0,1-.3-.43.59.59,0,0,1,0,.19,1,1,0,0,1-.11.49.35.35,0,0,1-.11.15,1.35,1.35,0,0,0,.05-.29.69.69,0,0,0-.06-.49,0,0,0,0,0-.06,0,1,1,0,0,1-.09.42c0-.18.06-.42-.07-.46s-.18,0-.24.17c0-.15,0-.27-.11-.22a.59.59,0,0,0-.27.33l-.08.17a.82.82,0,0,1,.17-.7l-.15,0A1.21,1.21,0,0,1,30.57,67.77Z"/><path class="cls-11" d="M32.25,68.24A.8.8,0,0,0,33,67.7a.61.61,0,0,0-.05-.44c-.11-.2-.46-.24-.66-.19a1,1,0,0,0-.39.22.33.33,0,0,0-.11.15h0a1.25,1.25,0,0,0,0,.43A.48.48,0,0,0,32.25,68.24Z"/><path class="cls-12" d="M32.61,67.28a.11.11,0,0,0,.14.07.11.11,0,0,0,.08-.14.12.12,0,0,0-.14-.08A.12.12,0,0,0,32.61,67.28Z"/><path class="cls-12" d="M32.35,67.2a.11.11,0,1,0,.08-.14A.11.11,0,0,0,32.35,67.2Z"/><path class="cls-12" d="M32.36,67.49a.14.14,0,0,0,.17.09.14.14,0,0,0,.1-.17.15.15,0,0,0-.17-.1A.14.14,0,0,0,32.36,67.49Z"/><path class="cls-12" d="M32.1,67.33a.12.12,0,0,0,.14.08.13.13,0,0,0,.09-.15.12.12,0,0,0-.15-.08A.12.12,0,0,0,32.1,67.33Z"/><path class="cls-12" d="M31.9,67.48a.12.12,0,0,0,.14.08.12.12,0,0,0,.08-.15.12.12,0,1,0-.22.07Z"/><path class="cls-12" d="M32.13,67.6a.1.1,0,0,0,.14.08.11.11,0,0,0,.08-.14.11.11,0,0,0-.14-.08A.11.11,0,0,0,32.13,67.6Z"/><path class="cls-12" d="M31.82,67.73a.12.12,0,0,0,.14.09.12.12,0,0,0,.08-.15.11.11,0,0,0-.14-.08A.11.11,0,0,0,31.82,67.73Z"/><path class="cls-12" d="M31.93,68a.15.15,0,0,0,.18.11.15.15,0,0,0,.1-.18.14.14,0,0,0-.28.07Z"/><path class="cls-12" d="M32.26,68.11a.13.13,0,0,0,.15.09.13.13,0,0,0,.08-.16.12.12,0,0,0-.15-.08A.12.12,0,0,0,32.26,68.11Z"/><path class="cls-12" d="M32.27,67.86a.11.11,0,0,0,.13.07.11.11,0,0,0,.07-.13.1.1,0,0,0-.13-.07A.11.11,0,0,0,32.27,67.86Z"/><path class="cls-12" d="M32.1,67.8a.07.07,0,1,0,.14,0,.07.07,0,1,0-.14,0Z"/><path class="cls-12" d="M32.46,67.74a.1.1,0,0,0,.13.07.11.11,0,0,0,.07-.13.12.12,0,0,0-.13-.07A.1.1,0,0,0,32.46,67.74Z"/><path class="cls-12" d="M32.64,67.55a.12.12,0,0,0,.15.08.12.12,0,0,0,.08-.15.13.13,0,0,0-.15-.09A.13.13,0,0,0,32.64,67.55Z"/><path class="cls-12" d="M32.67,67.81a.12.12,0,0,0,.14.07.1.1,0,0,0,.07-.13.11.11,0,0,0-.13-.08A.12.12,0,0,0,32.67,67.81Z"/><path class="cls-12" d="M32.55,68a.1.1,0,0,0,.13.07.11.11,0,0,0,.08-.13.11.11,0,0,0-.14-.07A.1.1,0,0,0,32.55,68Z"/><path class="cls-12" d="M32.86,67.38a.07.07,0,1,0,0-.09A.07.07,0,0,0,32.86,67.38Z"/><path class="cls-12" d="M32.88,67.68a.07.07,0,1,0,0-.09A.07.07,0,0,0,32.88,67.68Z"/><path class="cls-6" d="M82.32,69.5c.25-3.25-1.26-9.42-1.65-11-.7,3.08.24,9.19.55,11Z"/><path class="cls-7" d="M82.14,69.51a13.15,13.15,0,0,0-3.56-7.94,12.59,12.59,0,0,0-2.4-1.94c3.43,3.11,4.1,8.22,4.23,10Z"/><path class="cls-7" d="M85.37,69.35c.25-3.25-1.26-9.42-1.65-10.95-.7,3.08.24,9.19.55,11Z"/><path class="cls-6" d="M85.19,69.36a13.09,13.09,0,0,0-3.57-7.94,12.2,12.2,0,0,0-2.39-1.94c3.43,3.11,4.1,8.22,4.23,10Z"/><path class="cls-6" d="M85.88,69.33c-.38-1.86-.95-6.56,2-10.14-1.12.83-3.64,3.48-3.17,10.2Z"/><path class="cls-6" d="M83.22,69.46c-.34-1.71-.78-5.77,1.74-8.88-1,.74-3.2,3.06-2.81,8.93Z"/><path class="cls-8" d="M88.81,68.13C88.55,64.85,90,63.29,90,63.28a.1.1,0,0,0,0-.14.08.08,0,0,0-.08,0l-.06,0c-.07.07-1.52,1.63-1.24,5Z"/><path class="cls-8" d="M90.36,63.48a1.29,1.29,0,0,1-.94-.16,1,1,0,0,1-.34-.88,4.48,4.48,0,0,1,.07-1,.42.42,0,0,1,.06-.14c.07-.13.26-.13.39-.14s.36.05.53.06a2,2,0,0,1,.53.19,2.23,2.23,0,0,1,.44.21c.34.23.16.74.06,1.05A1.06,1.06,0,0,1,90.36,63.48Z"/><path class="cls-9" d="M91.53,60.62a2.8,2.8,0,0,1,.61-.53,2,2,0,0,1,.62-.26c.32,0,0,.27,0,.38s0,0,0,0l.1,0c.16-.05.14.12.1.21s0,.11,0,.15.11,0,.19.1a.52.52,0,0,1,0,.37,1.19,1.19,0,0,1-.58.65,1.69,1.69,0,0,1-.61.24.77.77,0,0,1-.73-.16.82.82,0,0,1-.06-.74Z"/><path class="cls-9" d="M89.92,59.5a1.8,1.8,0,0,1,.08-.21c.09-.2.22,0,.26.07s.11,0,.13,0,.11-.23.17-.16,0,.12.07.16.12,0,.16,0c.53-.36.49.91.48,1.17,0,.47-.36,1.15-.93,1-.32-.11-.47-.51-.53-.88v-.44A3,3,0,0,1,89.92,59.5Z"/><path class="cls-9" d="M89.82,61.1h0a.9.9,0,0,0,.23.31l-.06,0a.38.38,0,0,0-.26,0A.54.54,0,0,0,89.82,61.1Z"/><path class="cls-9" d="M89.29,61.43a2.26,2.26,0,0,1-.81-.21,1.45,1.45,0,0,1-.58-.49.76.76,0,0,1-.14-.35c-.07-.37.36-.47.62-.37,0,0,.11,0,.1-.07s-.06-.17,0-.16a.59.59,0,0,1,.35.21s.12,0,.12-.06a1.29,1.29,0,0,1,0-.19c0-.07.2.09.21.1a2,2,0,0,1,.43.53c0,.09.1.19.14.28v0a2.23,2.23,0,0,1,0,.36.66.66,0,0,1,0,.2.32.32,0,0,1,0,.13l-.08.06A.6.6,0,0,1,89.29,61.43Z"/><path class="cls-9" d="M89.26,63.8a.57.57,0,0,1-.32-.44c0-.11,0-.22,0-.33s0,0,0,0a.37.37,0,0,0-.14.07s-.12.14-.08,0a.72.72,0,0,1,.09-.2s-.07,0-.08,0l-.14.11s-.12.12-.17.06,0-.21.06-.29a3.17,3.17,0,0,1,.63-.87,3.32,3.32,0,0,1,.47-.37l.13-.05c.2-.09.34,0,.46.17a.7.7,0,0,1,0,.55,2.37,2.37,0,0,1-.15.65C89.93,63.09,89.66,64,89.26,63.8Z"/><path class="cls-9" d="M91.32,63.62a.12.12,0,0,0-.1.07v0a.52.52,0,0,0-.13-.06s-.11,0-.11.07c0,.23-.31-.15-.35-.21a1.34,1.34,0,0,1-.19-.44,3.18,3.18,0,0,1-.14-.53,2.44,2.44,0,0,0,0-.27,3.13,3.13,0,0,0,0-.43.51.51,0,0,0-.18-.39.61.61,0,0,0,.28.07.9.9,0,0,0,.66-.31,1.39,1.39,0,0,0,0,.45.45.45,0,0,0,.34.35,2.93,2.93,0,0,1,.49.7.92.92,0,0,1,0,.57C91.87,63.58,91.57,63.61,91.32,63.62Z"/><path class="cls-10" d="M93.33,61.13a3.74,3.74,0,0,1-.38.28c-.33.21-.89.49-1.26.21a.06.06,0,0,1,0-.08c.25-.19.56-.29.81-.48a2.19,2.19,0,0,1-.71.33s-.06,0-.05-.06a2.1,2.1,0,0,1,.73-.87,1.84,1.84,0,0,0-.8.58s-.1,0-.08,0a2.33,2.33,0,0,1,.86-1.15,3.45,3.45,0,0,0-.5.29,3,3,0,0,0-.56.52h0a3.24,3.24,0,0,0,0-1,.44.44,0,0,0,0-.15,1.4,1.4,0,0,1-.56.94s-.06,0-.07,0a1,1,0,0,1,0-.38h0c0,.11-.13.31-.26.33s-.28-.25-.25-.53a3,3,0,0,0-.1.54s-.08.06-.1,0a1.82,1.82,0,0,1,0-1.11.64.64,0,0,0-.11.2,2,2,0,0,0-.13.76v0a.66.66,0,0,0,0,.14,2.89,2.89,0,0,0-.23-.37,1.14,1.14,0,0,0-.42-.39,1.33,1.33,0,0,1,.4,1,.06.06,0,0,1-.08,0c-.12-.08-.23-.18-.35-.27a.79.79,0,0,1,.2.48c0,.16-.25.12-.34.08a2.3,2.3,0,0,1-.41-.23,2.34,2.34,0,0,0,.63.48.05.05,0,0,1,0,.09,3.81,3.81,0,0,1-.65-.15,2.46,2.46,0,0,1-.45-.25l-.22-.19a1.39,1.39,0,0,0,.48.51,2,2,0,0,0,1.08.32s0,0,0,0h.07a3.35,3.35,0,0,0-.78.77,2.26,2.26,0,0,0-.3.47,2,2,0,0,1,.33-.39c.14-.14.31-.35.52-.35,0,0,0,.05,0,.08l-.14.21c.09-.1.22-.24.36-.2s.07.44,0,.74c.11-.21.21-.45.42-.53,0,0,.06,0,.06,0a1.69,1.69,0,0,1,0,1.15l0-.08a3,3,0,0,0,.34-.75,2.65,2.65,0,0,0,.06.3,1.87,1.87,0,0,0,.33.73.76.76,0,0,0,.2.2,2.28,2.28,0,0,1-.15-.44,1.06,1.06,0,0,1,0-.78,0,0,0,0,1,.09,0,1.7,1.7,0,0,0,.28.63c-.11-.27-.22-.63,0-.74s.3,0,.43.2c-.07-.23-.09-.43.1-.38a.93.93,0,0,1,.52.44l.17.24a1.35,1.35,0,0,0-.47-1.05,2.09,2.09,0,0,0,.25,0A2,2,0,0,0,93.33,61.13Z"/><path class="cls-11" d="M90.84,62.36a1.26,1.26,0,0,1-1.34-.62.94.94,0,0,1,0-.7c.11-.34.63-.51,1-.49a1.62,1.62,0,0,1,.67.23.46.46,0,0,1,.22.19h0a1.67,1.67,0,0,1,.15.66A.75.75,0,0,1,90.84,62.36Z"/><path class="cls-12" d="M90,61a.18.18,0,0,1-.2.16.17.17,0,0,1-.16-.19.17.17,0,0,1,.19-.17A.19.19,0,0,1,90,61Z"/><path class="cls-12" d="M90.39,60.77a.18.18,0,0,1-.2.16.17.17,0,0,1-.16-.19.19.19,0,0,1,.19-.17A.2.2,0,0,1,90.39,60.77Z"/><path class="cls-12" d="M90.45,61.21a.21.21,0,0,1-.24.2.22.22,0,0,1-.2-.24.22.22,0,1,1,.44,0Z"/><path class="cls-12" d="M90.81,60.89a.2.2,0,0,1-.2.17.2.2,0,0,1-.17-.21.18.18,0,0,1,.21-.16A.18.18,0,0,1,90.81,60.89Z"/><path class="cls-12" d="M91.18,61.06a.19.19,0,0,1-.2.17.18.18,0,0,1-.17-.2.19.19,0,0,1,.37,0Z"/><path class="cls-12" d="M90.86,61.33a.2.2,0,0,1-.21.17.19.19,0,0,1,0-.37A.2.2,0,0,1,90.86,61.33Z"/><path class="cls-12" d="M91.37,61.44a.19.19,0,0,1-.2.17.2.2,0,0,1-.17-.2.19.19,0,0,1,.21-.17A.18.18,0,0,1,91.37,61.44Z"/><path class="cls-12" d="M91.29,62a.23.23,0,0,1-.25.21.24.24,0,0,1-.21-.25.23.23,0,1,1,.46,0Z"/><path class="cls-12" d="M90.8,62.16a.19.19,0,0,1-.21.17.19.19,0,0,1-.17-.21.19.19,0,1,1,.38,0Z"/><path class="cls-12" d="M90.7,61.76a.15.15,0,0,1-.17.15.16.16,0,0,1-.15-.17.16.16,0,0,1,.18-.15A.15.15,0,0,1,90.7,61.76Z"/><path class="cls-12" d="M91,61.63a.11.11,0,0,1-.13.1.11.11,0,0,1-.1-.12.11.11,0,0,1,.13-.1A.11.11,0,0,1,91,61.63Z"/><path class="cls-12" d="M90.38,61.64a.16.16,0,0,1-.18.14.15.15,0,0,1-.15-.17.17.17,0,0,1,.33,0Z"/><path class="cls-12" d="M90,61.39a.19.19,0,1,1-.17-.21A.19.19,0,0,1,90,61.39Z"/><path class="cls-12" d="M90.06,61.8a.17.17,0,1,1-.15-.18A.17.17,0,0,1,90.06,61.8Z"/><path class="cls-12" d="M90.32,62.08a.18.18,0,0,1-.19.16.17.17,0,0,1-.16-.19.18.18,0,0,1,.35,0Z"/><path class="cls-12" d="M89.65,61.19a.11.11,0,0,1-.13.1.11.11,0,0,1-.1-.12.12.12,0,0,1,.12-.11A.13.13,0,0,1,89.65,61.19Z"/><path class="cls-12" d="M89.7,61.66a.11.11,0,0,1-.12.11.13.13,0,0,1-.11-.13.12.12,0,0,1,.13-.1A.11.11,0,0,1,89.7,61.66Z"/><path class="cls-8" d="M77.91,68.06a4.87,4.87,0,0,0-1.22-3.48.07.07,0,0,1,0-.1.07.07,0,0,1,.06,0l0,0a4.83,4.83,0,0,1,1.27,3.59Z"/><path class="cls-8" d="M76.43,64.76a1,1,0,0,0,.68-.19.77.77,0,0,0,.19-.67,2.85,2.85,0,0,0-.12-.71.47.47,0,0,0-.06-.09c-.06-.09-.2-.08-.29-.08a2.74,2.74,0,0,0-.39.09,1.24,1.24,0,0,0-.37.17,1.23,1.23,0,0,0-.31.19c-.24.19-.07.55,0,.77A.78.78,0,0,0,76.43,64.76Z"/><path class="cls-9" d="M75.37,62.74a1.66,1.66,0,0,0-.49-.34,1.29,1.29,0,0,0-.47-.15c-.24,0,0,.2,0,.28s0,0,0,0h-.08c-.12,0-.1.09-.06.16s0,.08,0,.11-.08,0-.13.09,0,.2,0,.27a.9.9,0,0,0,.47.43,1.28,1.28,0,0,0,.47.14.58.58,0,0,0,.52-.17.62.62,0,0,0,0-.55Z"/><path class="cls-9" d="M76.47,61.81l-.07-.15c-.08-.15-.16,0-.19.06s-.08,0-.1,0-.09-.16-.13-.11,0,.09,0,.13-.09,0-.12,0c-.42-.23-.3.7-.27.89s.34.82.75.64c.23-.1.31-.41.32-.69l0-.32A1.93,1.93,0,0,0,76.47,61.81Z"/><path class="cls-9" d="M76.66,63h0a.57.57,0,0,1-.14.24l0,0a.31.31,0,0,1,.19,0A.33.33,0,0,1,76.66,63Z"/><path class="cls-9" d="M77.07,63.18a1.7,1.7,0,0,0,.58-.22,1,1,0,0,0,.39-.4.61.61,0,0,0,.08-.27c0-.27-.3-.32-.48-.22s-.09,0-.08,0,0-.12,0-.12a.48.48,0,0,0-.24.18s-.09,0-.09,0,0-.1,0-.15-.14.09-.14.09a1.29,1.29,0,0,0-.28.42,2,2,0,0,0-.09.22v0a2.17,2.17,0,0,0,0,.26.77.77,0,0,0,0,.15.19.19,0,0,0,0,.09l.06,0A.69.69,0,0,0,77.07,63.18Z"/><path class="cls-9" d="M77.26,64.92a.44.44,0,0,0,.21-.35c0-.09,0-.16,0-.25h0a.19.19,0,0,1,.1,0s.1.09.07,0-.06-.09-.08-.14,0,0,.05,0l.11.06s.1.08.13,0,0-.16-.06-.21a2.33,2.33,0,0,0-.53-.6,2.3,2.3,0,0,0-.37-.23l-.09,0a.27.27,0,0,0-.33.16.53.53,0,0,0,0,.41,1.9,1.9,0,0,0,.15.46C76.72,64.44,77,65.05,77.26,64.92Z"/><path class="cls-9" d="M75.74,64.93s.07,0,.08,0v0s0,0,.09-.06A.09.09,0,0,1,76,65c0,.17.21-.13.24-.17a1.35,1.35,0,0,0,.11-.34c0-.13,0-.27.06-.4a1.34,1.34,0,0,1,0-.2c0-.1,0-.21-.07-.31a.39.39,0,0,1,.11-.3.43.43,0,0,1-.2.07.7.7,0,0,1-.51-.18.89.89,0,0,1,0,.33.32.32,0,0,1-.22.28,1.86,1.86,0,0,0-.31.55.61.61,0,0,0,0,.42C75.33,64.94,75.56,64.94,75.74,64.93Z"/><path class="cls-10" d="M74.09,63.24a2,2,0,0,0,.29.18c.26.13.69.3.94.06a0,0,0,0,0,0,0c-.2-.12-.43-.18-.63-.3a1.61,1.61,0,0,0,.54.2,0,0,0,0,0,0-.06c-.1-.25-.38-.41-.6-.58a1.28,1.28,0,0,1,.62.37,0,0,0,0,0,.06,0,1.73,1.73,0,0,0-.71-.78,1.48,1.48,0,0,1,.38.18,1.62,1.62,0,0,1,.45.34h0A2.43,2.43,0,0,1,75.4,62s0-.07,0-.11a1,1,0,0,0,.48.65,0,0,0,0,0,0,0,.88.88,0,0,0,0-.28h0c0,.08.12.22.22.23s.19-.21.15-.42c0,.13.08.26.11.39s.06,0,.07,0a1.44,1.44,0,0,0,0-.82.48.48,0,0,1,.09.14,1.33,1.33,0,0,1,.15.55v0s0,.07,0,.11c.06-.14.12-.25.14-.29a.92.92,0,0,1,.28-.32,1,1,0,0,0-.22.75,0,0,0,0,0,.06,0,2.61,2.61,0,0,0,.24-.23.55.55,0,0,0-.11.37c0,.11.19.07.25,0a1.49,1.49,0,0,0,.29-.2,1.64,1.64,0,0,1-.43.4s0,.08,0,.07a3.24,3.24,0,0,0,.47-.16,1.73,1.73,0,0,0,.31-.22.75.75,0,0,0,.15-.16,1,1,0,0,1-.32.42,1.47,1.47,0,0,1-.77.31s0,0,0,0H77a2.39,2.39,0,0,1,.63.51,1.55,1.55,0,0,1,.25.32,1.34,1.34,0,0,0-.27-.26c-.11-.09-.25-.24-.4-.22s0,0,0,.06l.12.15c-.07-.07-.18-.17-.28-.12s0,.33.08.54c-.1-.16-.19-.32-.35-.37a.05.05,0,0,0,0,0,1.31,1.31,0,0,0,.13.84l0-.06a2.5,2.5,0,0,1-.3-.53c0,.08,0,.16,0,.23a1.38,1.38,0,0,1-.19.56.54.54,0,0,1-.14.16,1.35,1.35,0,0,0,.09-.33.88.88,0,0,0,0-.58s-.07,0-.07,0a1.23,1.23,0,0,1-.16.49c.06-.21.12-.48,0-.55s-.23,0-.3.17c0-.17,0-.31-.1-.27a.78.78,0,0,0-.36.36c0,.07-.07.13-.1.19a.92.92,0,0,1,.27-.8l-.19,0A1.45,1.45,0,0,1,74.09,63.24Z"/><path class="cls-11" d="M76,64a.94.94,0,0,0,.94-.55.72.72,0,0,0,0-.52.74.74,0,0,0-.74-.29,1.22,1.22,0,0,0-.48.21.46.46,0,0,0-.15.16h0a1.38,1.38,0,0,0-.06.49A.55.55,0,0,0,76,64Z"/><path class="cls-12" d="M76.51,62.88a.15.15,0,0,0,.16.11.14.14,0,0,0,0-.27A.15.15,0,0,0,76.51,62.88Z"/><path class="cls-12" d="M76.22,62.77a.14.14,0,0,0,.16.11.14.14,0,0,0,0-.27A.14.14,0,0,0,76.22,62.77Z"/><path class="cls-12" d="M76.2,63.1a.16.16,0,0,0,.19.13.16.16,0,0,0,.13-.19.16.16,0,0,0-.19-.13A.16.16,0,0,0,76.2,63.1Z"/><path class="cls-12" d="M75.91,62.89a.13.13,0,0,0,.16.1.13.13,0,1,0,0-.26A.14.14,0,0,0,75.91,62.89Z"/><path class="cls-12" d="M75.66,63a.14.14,0,0,0,.16.11.15.15,0,0,0,.11-.16.14.14,0,0,0-.16-.11A.13.13,0,0,0,75.66,63Z"/><path class="cls-12" d="M75.92,63.21a.13.13,0,1,0,.26-.05.14.14,0,0,0-.16-.11A.13.13,0,0,0,75.92,63.21Z"/><path class="cls-12" d="M75.54,63.33a.14.14,0,0,0,.16.11.13.13,0,0,0,.11-.16.14.14,0,0,0-.16-.11A.15.15,0,0,0,75.54,63.33Z"/><path class="cls-12" d="M75.64,63.7a.17.17,0,0,0,.2.14.19.19,0,0,0,.14-.2.17.17,0,0,0-.2-.13A.16.16,0,0,0,75.64,63.7Z"/><path class="cls-12" d="M76,63.82a.16.16,0,0,0,.17.11.14.14,0,0,0-.05-.28A.15.15,0,0,0,76,63.82Z"/><path class="cls-12" d="M76.06,63.52a.12.12,0,0,0,.14.1.13.13,0,0,0,.1-.14.13.13,0,0,0-.15-.1A.12.12,0,0,0,76.06,63.52Z"/><path class="cls-12" d="M75.86,63.44a.09.09,0,1,0,.17,0,.09.09,0,0,0-.17,0Z"/><path class="cls-12" d="M76.29,63.4a.12.12,0,0,0,.14.1.13.13,0,0,0,.1-.14.13.13,0,0,0-.15-.1A.12.12,0,0,0,76.29,63.4Z"/><path class="cls-12" d="M76.52,63.2a.14.14,0,0,0,.16.11.15.15,0,0,0,.12-.17.16.16,0,0,0-.17-.11A.14.14,0,0,0,76.52,63.2Z"/><path class="cls-12" d="M76.53,63.51a.14.14,0,0,0,.15.1.13.13,0,0,0,.1-.15.12.12,0,0,0-.15-.1A.13.13,0,0,0,76.53,63.51Z"/><path class="cls-12" d="M76.36,63.73a.13.13,0,0,0,.15.1.12.12,0,0,0,.1-.15.12.12,0,0,0-.14-.1A.13.13,0,0,0,76.36,63.73Z"/><path class="cls-12" d="M76.79,63A.09.09,0,1,0,77,63a.1.1,0,0,0-.1-.07A.09.09,0,0,0,76.79,63Z"/><path class="cls-12" d="M76.78,63.38a.11.11,0,0,0,.1.07.09.09,0,0,0,.07-.1.08.08,0,0,0-.1-.07A.1.1,0,0,0,76.78,63.38Z"/><path class="cls-7" d="M141.18,87.76a3,3,0,0,0-.73,0c-.5,0-1-.07-1.49-.12s-1.26-.18-1.89-.3a3.45,3.45,0,0,1,.43-.12c.64-.15,1.31,0,1.94-.22.07,0,.22-.22.12-.3A4.31,4.31,0,0,0,138,86a13.18,13.18,0,0,0-1.84-.5c-.83-.06-1.63-.13-2.43-.16a13.17,13.17,0,0,0,2.2-1.39c.06,0,.21-.35,0-.31a9.38,9.38,0,0,1-2.18.15,25.87,25.87,0,0,0,4.13-2.23c1.25-.83,2.8-2.31,2.2-4.44s-10.72-4.69-15.29-5.89C116.5,69,108,68.3,99.46,67.9c-8.79-.42-17.59-.57-26.39-.37-5,.12-10,.34-14.95.7a127.43,127.43,0,0,0-15.7,2A93.39,93.39,0,0,0,31.78,73C28,74.24,23,75.58,20,78.2c-.66.58-1.79,1.32-1.92,2.35-.26,2.08,2.05,3,3.9,3.49-.21.12-.42.24-.6.32a3.82,3.82,0,0,1-2.55.24c-.12,0-.26.18-.22.3.25.76,1.39,1.08,2,1.3a3.19,3.19,0,0,0,.59.14,4.89,4.89,0,0,0-.41.37l-.06,0A4.67,4.67,0,0,0,19,88.1s-.05.14,0,.17c.29.19.78-.21,1.06-.32a5.9,5.9,0,0,1,2.2-.43c-1.38.68-2.72,1.74-2.58,3.35.07.92,1.12,1.42,1.78,1.72a22.55,22.55,0,0,0,4.68,1.28C32.72,95.2,39.4,95.49,46,96.37l-.93.23a21.51,21.51,0,0,0-2.78.62c-.07,0-.27.26-.14.34a4.3,4.3,0,0,0,2.2.14c.4,0,.81,0,1.22-.07a2.42,2.42,0,0,0-.68.74c0,.07,0,.17,0,.21.41.22,1.08-.15,1.49-.21a9.72,9.72,0,0,1,2-.15,2.85,2.85,0,0,0-.59.66c-.06.08-.05.21.06.22,5.44.51,10.91.71,16.36,1,2.76.17,5.52.32,8.27.51s38.54-.76,42.89-1.38c2.52-.37,5-.59,7.56-1s4.87-1,7.32-1.35A27.35,27.35,0,0,0,137,95.07c1-.42,3.68-1.42,3.55-3a3,3,0,0,0-1.93-2.36h0A5.19,5.19,0,0,0,141.18,88C141.22,87.94,141.28,87.79,141.18,87.76Z"/><path class="cls-13" d="M22,84c-.21.12-.42.24-.6.32a3.82,3.82,0,0,1-2.55.24c-.12,0-.26.18-.22.3.25.76,1.39,1.08,2,1.3l.07,0a47.49,47.49,0,0,1,5.89-2.29c2.67-.9,5.37-1.67,8.1-2.34a136.26,136.26,0,0,1,17-3c5.85-.66,11.72-1.06,17.6-1.41S81,76.6,86.88,76.6a157,157,0,0,1,34.72,3.53c4.28,1,8.5,2.11,12.69,3.36a25.78,25.78,0,0,0,3.58-2c1.25-.83,2.8-2.31,2.2-4.44s-10.72-4.69-15.29-5.89C116.5,69,108,68.3,99.46,67.9c-8.79-.42-17.59-.57-26.39-.37-5,.12-10,.34-14.95.7a127.43,127.43,0,0,0-15.7,2A93.39,93.39,0,0,0,31.78,73C28,74.24,23,75.58,20,78.2c-.66.58-1.79,1.32-1.92,2.35C17.79,82.63,20.1,83.58,22,84Z"/><path class="cls-3" d="M35.73,70.75c-.35-.32-1.24-.17-1.6-.07.12,0,.26-.45.29-.55a1.66,1.66,0,0,0,.11-.62c0-1.89-2.5-.49-3.3,0,.1-.06.17-.54.19-.65a1.88,1.88,0,0,0,.09-.78c-.12-.71-.9-.5-1.35-.26a5.18,5.18,0,0,0-1.22.91,1.94,1.94,0,0,0,.1-1.24c-.18-.65-1.06-.4-1.43-.16a3.87,3.87,0,0,0-1.29,1.74c.1-.22-.24-.8-.49-.79a1.5,1.5,0,0,0-1,.73,2.69,2.69,0,0,0-.27.6c0,.11-.22.55-.15.66-.46-.82-1.11-1.64-1.71-1a2.11,2.11,0,0,0-.15,2.49,1.74,1.74,0,0,0-1.72,0,.64.64,0,0,0-.27.58,2.73,2.73,0,0,0,1.33,1.55c-1.14.27-2.23.88-1.92,2.09a.18.18,0,0,0,.1.11c.52.12.47.06,1.14-.07l.65-.23c-.4.54-.57,1.07-.1,1.35.66.39,1.48,0,2.2-.62,0,.27,0,.47.3.52.79.16,1.57-.47,2.16-1.22a1.18,1.18,0,0,0,0,.2,1,1,0,0,0,1.08.69,1.39,1.39,0,0,0,.91-1l.06-.23.21.23c.22.25.71.66,1.06.46s.4-.57.34-1c0,.07.53.24.61.27a3,3,0,0,0,.67.17,3.29,3.29,0,0,0,2-.52.92.92,0,0,0,.47-1l.48.06a2.1,2.1,0,0,0,1.59-.47c.65-.6.17-1.1-.48-1.33.15.05.43-1,.43-1.14A.46.46,0,0,0,35.73,70.75Z"/><path class="cls-4" d="M28.45,67.46a1.28,1.28,0,0,1,.27,1.42L29,68.7A2,2,0,0,0,29,67.48c-.18-.64-1-.4-1.41-.17A.89.89,0,0,1,28.45,67.46Z"/><path class="cls-4" d="M35.88,71.1a.46.46,0,0,0-.15-.35c-.35-.32-1.24-.17-1.6-.07.12,0,.26-.45.29-.55a1.66,1.66,0,0,0,.11-.62c0-1.89-2.5-.49-3.3,0,.1-.06.17-.54.19-.65a1.88,1.88,0,0,0,.09-.78c-.12-.71-.9-.5-1.35-.26a5.17,5.17,0,0,0-1.19.88,2.1,2.1,0,0,1,1.74-.4c.66.19.5,1,.18,1.75a5.29,5.29,0,0,1,1.64-.23c.49,0,1.31.15,1,.83a2.35,2.35,0,0,1-.87.77c.83.26,1.48.67,1.14,1.31-.52,1-2,.93-3.21.61a.83.83,0,0,1-.11,1c-.51.41-1.12.07-1.55-.43a6.57,6.57,0,0,1-.57.82c-.27.32-.91.94-1.35.52a.63.63,0,0,1-.17-.54,5.34,5.34,0,0,1-.44.39c-.44.33-1.14.82-1.72.61a.45.45,0,0,1-.23-.16,8.18,8.18,0,0,1-.69.45c-.46.26-1.16.75-1.65.27-.24-.24-.18-.6,0-1a3,3,0,0,1-1.28.25c-.29,0-.74,0-.95-.28a1.46,1.46,0,0,0,0,.62.18.18,0,0,0,.1.11c.52.12.47.06,1.14-.07l.65-.23c-.4.54-.57,1.07-.1,1.35.66.39,1.48,0,2.2-.62,0,.27,0,.47.3.52.79.16,1.57-.47,2.16-1.22a1.18,1.18,0,0,0,0,.2,1,1,0,0,0,1.08.69,1.39,1.39,0,0,0,.91-1l.06-.23.21.23c.22.25.71.66,1.06.46s.4-.57.34-1c0,.07.53.24.61.27a3,3,0,0,0,.67.17,3.29,3.29,0,0,0,2-.52.92.92,0,0,0,.47-1l.48.06a2.1,2.1,0,0,0,1.59-.47c.65-.6.17-1.1-.48-1.33C35.6,72.29,35.88,71.21,35.88,71.1Z"/><path class="cls-5" d="M23.21,70.36c-.25,0-.43.25-.5.53a.83.83,0,0,0,.07.78c.13.19.39.1.51,0a1,1,0,0,0,.28-.58C23.62,70.79,23.55,70.39,23.21,70.36Z"/><path class="cls-5" d="M22.7,72.26c-.27.07-.42.74-.06.65S23.06,72.17,22.7,72.26Z"/><path class="cls-5" d="M25.17,71.87a.59.59,0,0,0-.94-.11,1.05,1.05,0,0,0-.27.43h0a.8.8,0,0,0,.07,1,.69.69,0,0,0,1,0A1.15,1.15,0,0,0,25.17,71.87Z"/><path class="cls-5" d="M25.75,70c-.28.07-.44.77-.06.68S26.12,69.86,25.75,70Z"/><path class="cls-14" d="M87.81,53.24a15.88,15.88,0,0,0,4.23.84,10.88,10.88,0,0,0-1.92.38c-.16,0,0,.31.14.31,1.07,0,2.14-.1,3.22-.1a12.53,12.53,0,0,0,2.93-.15c.62.16,1.24.34,1.86.55-.38-.06-.75-.11-1.13-.14a13.2,13.2,0,0,0-4.3.31c-.19,0,0,.35.13.38a12.62,12.62,0,0,0,3.33.24h0c-.2.07,0,.35.15.4A17.69,17.69,0,0,0,100,57.34c.87.14,1.76.19,2.63.35a4.84,4.84,0,0,0,1.2.18,23.71,23.71,0,0,1,2.41,2,14.4,14.4,0,0,0-7.38-2.5c-.27,0,0,.35.09.39,2.89,1.36,5.82,2.47,8.78,3.63l.23.25h0a.14.14,0,0,0,.12.15h0l.28.32-.64-.36a17.65,17.65,0,0,0-2.49-1.17c-1-.34-2.8-1.14-3.81-.67-.14.06-.06.22,0,.31.72,1,2.7,1.58,3.81,2.07l1.09.49a10.13,10.13,0,0,0-3.41-.6c-.27,0-.1.34,0,.44a10.48,10.48,0,0,0,4,2.23,23.08,23.08,0,0,0,3.9,1,6.57,6.57,0,0,1,.44,1.41c0,.1.24.27.23.08v0c0-.05-.09-.14-.16-.16.18-.11.2-.28.06-.5a2.84,2.84,0,0,0-.15-.47.25.25,0,0,0,0-.07l0,0a.08.08,0,0,0,.08-.06v0c1.86-1.88,2.34-5.28,2.12-7.77,0-.13-.39-.55-.47-.29-.71,2.45-1.55,4.79-2,7.31a.24.24,0,0,0,0,.15s0,0,0,0h0s0,0,0,0a.19.19,0,0,0,0,.07l0,0q-.12-.28-.27-.57l-.33-.57c1.15-1.7,1.72-5.21,1-7.1-.05-.12-.44-.49-.48-.17-.14,1.31-.56,2.58-.71,3.89a8.54,8.54,0,0,0-.19,2.66c-.07-.12-.15-.23-.22-.34h0s.06,0,.06,0v0s-.1-.12-.11-.05c0-.09-.12-.23-.31-.39l-.3-.41h0c1.06-2,.55-5.21-.35-7.22-.06-.14-.38-.46-.46-.17a15.46,15.46,0,0,0-.11,3.79,9.63,9.63,0,0,0,.45,3c-.32-.39-.66-.78-1-1.15a11.66,11.66,0,0,0-.4-4.31,4.34,4.34,0,0,0-1.12-2.43c-.13-.09-.39-.16-.35.1.28,1.95.32,4,1.13,5.86l-1-1c.44-.69-.41-2.64-.72-3.27-.4-.83-.84-2.3-1.72-2.74-.12-.06-.32-.06-.28.13.26,1.11.56,2.29.9,3.38a6.68,6.68,0,0,0,1,1.84c-.12-.1-.24-.21-.37-.3-.38-.28-.78-.57-1.19-.84.23-.67-.44-2-.73-2.51a8.18,8.18,0,0,0-2.25-2.64c-.15-.09-.29,0-.28.15A6.42,6.42,0,0,0,101.35,55a9.24,9.24,0,0,0,.73,1.11,4.11,4.11,0,0,0,.36.34c-.55-.33-1.12-.65-1.71-.95v0c.06,0,.11,0,.06-.13a12.14,12.14,0,0,0-1.59-2.78c-.45-.46-1-1.22-1.72-1.27-.14,0-.17.14-.13.25s.13.28.2.42l.06.12c.3.54.69,1.06,1,1.55A10.26,10.26,0,0,0,99.76,55c-.6-.27-1.2-.51-1.81-.72a4.77,4.77,0,0,0-1.19-1.69c-.44-.44-1.17-1.25-1.84-1.28a.13.13,0,0,0-.14.17,5,5,0,0,0,1.32,2l.33.34a12.76,12.76,0,0,0-1.71-.3,1.17,1.17,0,0,0-.29-.34,5.6,5.6,0,0,0-1.91-1.25c-.17-.07-.18,0-.14.18h0a2.49,2.49,0,0,0,.82,1.13,3.36,3.36,0,0,0,.29.24,22.35,22.35,0,0,0-5.77-.63C87.46,52.84,87.68,53.19,87.81,53.24Z"/><path class="cls-14" d="M103,50.25a13.32,13.32,0,0,0,2.53,2.5,8.65,8.65,0,0,0-1.49-.61c-.13,0-.12.22,0,.27.74.49,1.52.91,2.26,1.4A10.59,10.59,0,0,0,108.34,55c.36.4.71.8,1,1.23-.23-.21-.46-.42-.71-.61a10.89,10.89,0,0,0-3.1-1.74c-.15-.06-.14.25-.08.32a11.08,11.08,0,0,0,2.18,1.68h0c-.18,0-.15.27-.09.35a14.85,14.85,0,0,0,2,2.35c.53.5,1.11.93,1.64,1.44a4.72,4.72,0,0,0,.74.67,20.38,20.38,0,0,1,.78,2.44,11.92,11.92,0,0,0-4-5.07c-.17-.13-.16.23-.11.31,1.37,2.25,2.88,4.34,4.39,6.48,0,.09,0,.18,0,.28h0a.12.12,0,0,0,0,.16h0c0,.11,0,.23,0,.35l-.27-.54a15.52,15.52,0,0,0-1.19-1.94c-.5-.66-1.4-2-2.31-2.19-.12,0-.14.13-.14.22,0,1,1.14,2.31,1.68,3.15.17.28.35.55.53.83a8.54,8.54,0,0,0-2.07-2c-.19-.12-.22.19-.2.3a8.52,8.52,0,0,0,1.76,3.37,18.63,18.63,0,0,0,2.22,2.47,5.64,5.64,0,0,1-.34,1.17c0,.08,0,.3.12.16l0,0a.22.22,0,0,0,0-.19c.18,0,.27-.1.27-.31a1.9,1.9,0,0,0,.11-.39s0,0,0-.06h0a.08.08,0,0,0,.08,0l0,0c2.13-.45,4-2.57,5-4.38,0-.09,0-.55-.19-.41-1.6,1.36-3.24,2.59-4.72,4.1a.25.25,0,0,0,0,.13l0,0h0l0,0a.08.08,0,0,0,0,0l0,0c0-.17.06-.34.08-.51l0-.55a7.62,7.62,0,0,0,3.88-4.44c0-.11-.08-.54-.25-.33-.7.83-1.56,1.51-2.25,2.35a6.64,6.64,0,0,0-1.34,1.74v-.32s0,0,.06,0v0s0-.13,0-.08,0-.22,0-.41,0-.29,0-.43h0c1.66-.93,2.75-3.34,3-5.13,0-.12,0-.49-.24-.32a12.87,12.87,0,0,0-1.8,2.55,7.94,7.94,0,0,0-1.06,2.29c0-.42-.11-.83-.17-1.25A9.72,9.72,0,0,0,115,61.19,3.58,3.58,0,0,0,115.3,59c0-.13-.2-.29-.28-.1a17.88,17.88,0,0,0-1.89,4.55c-.08-.39-.17-.77-.27-1.15.62-.27.92-2,1-2.57.1-.76.47-2,.06-2.67,0-.1-.19-.18-.25,0-.33.88-.66,1.82-.92,2.73a5.54,5.54,0,0,0-.14,1.72c0-.13-.07-.26-.12-.38-.13-.37-.28-.74-.44-1.12.47-.35.62-1.6.64-2.05a6.67,6.67,0,0,0-.35-2.84c-.06-.13-.18-.15-.26,0a5.4,5.4,0,0,0-.53,2.51,8.08,8.08,0,0,0,0,1.1c0,.11,0,.25.09.39-.23-.48-.47-1-.74-1.43v0s.1,0,.1-.06a9.73,9.73,0,0,0,.17-2.64c-.09-.51-.15-1.3-.6-1.65-.1-.07-.18,0-.2.11s0,.26-.06.38a.2.2,0,0,0,0,.11c0,.51,0,1.05,0,1.54a8.83,8.83,0,0,0,.13,1.47,15.41,15.41,0,0,0-.91-1.32,4.06,4.06,0,0,0,0-1.7c-.11-.51-.24-1.39-.68-1.72a.12.12,0,0,0-.18.06,4.14,4.14,0,0,0,0,2c0,.13.05.25.08.38a10.78,10.78,0,0,0-1.05-1,.74.74,0,0,0,0-.36,4.56,4.56,0,0,0-.74-1.73c-.09-.13-.15-.05-.18.06v0a2,2,0,0,0,0,1.16,1.4,1.4,0,0,0,.09.29,18.56,18.56,0,0,0-3.68-3C103,49.82,103,50.16,103,50.25Z"/><path class="cls-3" d="M136.94,54.63a22.35,22.35,0,0,0-5.77.63,2.15,2.15,0,0,0,.28-.23,2.52,2.52,0,0,0,.83-1.14h0c0-.13,0-.25-.14-.18A5.6,5.6,0,0,0,130.22,55a1.09,1.09,0,0,0-.29.35,11.32,11.32,0,0,0-1.71.29l.33-.34a4.9,4.9,0,0,0,1.32-2,.13.13,0,0,0-.14-.17c-.67,0-1.4.84-1.84,1.28a4.77,4.77,0,0,0-1.19,1.69c-.61.21-1.22.45-1.81.72a10.26,10.26,0,0,0,1.12-1.4,17.36,17.36,0,0,0,1-1.55.34.34,0,0,0,.06-.12c.07-.14.14-.28.2-.42s0-.26-.13-.25c-.69.05-1.28.81-1.72,1.27a11.78,11.78,0,0,0-1.59,2.78c-.06.1,0,.15.06.13v0c-.59.3-1.16.62-1.71,1a4,4,0,0,0,.36-.34,10,10,0,0,0,.73-1.1,6.5,6.5,0,0,0,1.14-2.9c0-.18-.13-.24-.28-.15a8.27,8.27,0,0,0-2.26,2.65c-.28.46-1,1.83-.72,2.5-.41.28-.81.56-1.19.84-.13.09-.25.2-.38.3a6.45,6.45,0,0,0,1-1.84c.34-1.09.64-2.27.89-3.37,0-.2-.15-.2-.27-.14-.89.44-1.32,1.91-1.72,2.74-.31.63-1.17,2.58-.72,3.27-.36.32-.7.65-1,1,.81-1.83.85-3.92,1.13-5.87,0-.26-.22-.19-.35-.1a4.34,4.34,0,0,0-1.12,2.43,11.45,11.45,0,0,0-.4,4.31c-.35.38-.69.76-1,1.16a9.69,9.69,0,0,0,.45-3,15.37,15.37,0,0,0-.11-3.78c-.09-.3-.4,0-.47.16-.89,2-1.4,5.18-.35,7.22h0l-.3.41c-.2.16-.32.3-.32.39,0-.06-.1,0-.1,0v0s0,0,.06,0h0l-.22.34a8.26,8.26,0,0,0-.2-2.66c-.15-1.31-.56-2.58-.71-3.89,0-.32-.42,0-.47.17-.76,1.9-.19,5.4,1,7.1-.11.19-.22.38-.32.58a4.11,4.11,0,0,0-.27.56l0,0a.19.19,0,0,0,0-.07s0,0,0,0h0a0,0,0,0,0,0,0,.25.25,0,0,0,.06-.16c-.49-2.52-1.33-4.86-2-7.31-.08-.26-.46.16-.47.29-.22,2.49.26,5.89,2.12,7.77v0a.08.08,0,0,0,.08.06l0,0,0,.07a2.54,2.54,0,0,0-.14.47c-.15.21-.12.38.06.5-.07,0-.16.1-.16.15v0c0,.19.21,0,.23-.08a6.57,6.57,0,0,1,.44-1.41,23.08,23.08,0,0,0,3.9-1,10.31,10.31,0,0,0,4-2.23c.1-.1.28-.44,0-.44a10.49,10.49,0,0,0-3.42.6l1.1-.48c1.11-.5,3.08-1.05,3.81-2.07.06-.1.14-.26,0-.32-1-.46-2.86.33-3.81.67a18.84,18.84,0,0,0-2.49,1.17c-.08,0-.34.18-.64.36l.28-.32h0a.15.15,0,0,0,.12-.15h0c.08-.09.15-.18.23-.26,3-1.16,5.89-2.27,8.77-3.62.11-.05.37-.41.1-.4a14.53,14.53,0,0,0-7.39,2.5,25.27,25.27,0,0,1,2.42-2,4.84,4.84,0,0,0,1.2-.18c.87-.16,1.75-.21,2.63-.35a17.69,17.69,0,0,0,3.57-1.07c.12,0,.35-.32.15-.4h0a12.62,12.62,0,0,0,3.33-.24c.11,0,.32-.33.13-.38a13.22,13.22,0,0,0-4.3-.31c-.38,0-.75.08-1.13.14.61-.21,1.24-.39,1.86-.55a12.51,12.51,0,0,0,2.93.15c1.08,0,2.15.1,3.22.1.11,0,.3-.26.14-.31a11.25,11.25,0,0,0-1.92-.38,16,16,0,0,0,4.23-.84C137,55,137.19,54.63,136.94,54.63Z"/><path class="cls-15" d="M111.66,70.91l-.22.09c-.23.09-.47.16-.7.23-.53.15-1.06.29-1.6.39l-.32.06a10.71,10.71,0,0,1-2.08.1,10.22,10.22,0,0,1-4.55-1.56,2.61,2.61,0,0,1-1.19-1,1.76,1.76,0,0,1,.22-1.8,8.54,8.54,0,0,1,1.07-1.33,10.39,10.39,0,0,1,1.3-1.27,7.35,7.35,0,0,1,1-.69h0l.37-.18a7,7,0,0,1,1.57-.72,7.61,7.61,0,0,1,2.26-.44,2,2,0,0,1,.94.18,2.31,2.31,0,0,1,.36.25,2,2,0,0,1,.32.27,3.91,3.91,0,0,1,.7,1c.24.43,1,2,1.2,2.37a3.51,3.51,0,0,1,.32,1.49,1.66,1.66,0,0,1,0,.7.93.93,0,0,1-.15.47,4,4,0,0,1-.38.46,4.94,4.94,0,0,0-.3.49A1.06,1.06,0,0,0,111.66,70.91Z"/><path class="cls-16" d="M102.13,66.63A13.09,13.09,0,0,1,107.88,63l.83-.23a8,8,0,0,0-2.16.44,7,7,0,0,0-1.57.72l-.37.18h0a7.35,7.35,0,0,0-1,.69,10.39,10.39,0,0,0-1.3,1.27,8.54,8.54,0,0,0-1.07,1.33,2.43,2.43,0,0,0-.39,1.16A7.41,7.41,0,0,1,102.13,66.63Z"/><path class="cls-17" d="M112.65,68.33a3.51,3.51,0,0,0-.32-1.49c-.16-.37-1-1.94-1.2-2.37a3.91,3.91,0,0,0-.7-1,2,2,0,0,0-.32-.27,2.31,2.31,0,0,0-.36-.25,1.7,1.7,0,0,0-.73-.17c.43.5,0,1.27-.26,1.77-.44,1-.83,2-1.31,3q-.18.36-.36.75a8.73,8.73,0,0,1-.53,1.06,2.32,2.32,0,0,1-.73.83,1.57,1.57,0,0,1-1.13.12c-.42-.07-.82-.2-1.24-.29a8.21,8.21,0,0,1-1-.27,3.17,3.17,0,0,1-1.16-.61,1.35,1.35,0,0,1-.46-.86v0a1.34,1.34,0,0,0,.13,1,2.61,2.61,0,0,0,1.19,1,10.22,10.22,0,0,0,4.55,1.56,10.71,10.71,0,0,0,2.08-.1l.32-.06c.54-.1,1.07-.24,1.6-.39.23-.07.47-.14.7-.23l.22-.09a1.06,1.06,0,0,1,.13-.46,4.94,4.94,0,0,1,.3-.49,4,4,0,0,0,.38-.46.93.93,0,0,0,.15-.47A1.66,1.66,0,0,0,112.65,68.33Z"/><path class="cls-17" d="M112.65,68.33a3.51,3.51,0,0,0-.32-1.49c-.16-.37-1-1.94-1.2-2.37a3.91,3.91,0,0,0-.7-1,2,2,0,0,0-.32-.27,2.31,2.31,0,0,0-.36-.25l-.18-.07.1.07a2.59,2.59,0,0,1,.87,1.32A16.81,16.81,0,0,1,111,66a14.35,14.35,0,0,1,.36,1.73,3.42,3.42,0,0,1,0,1.39,1.77,1.77,0,0,1-.61.86,6.43,6.43,0,0,1-2.14,1,8.17,8.17,0,0,1-3.47.37,6.89,6.89,0,0,1-.89-.15,6.69,6.69,0,0,0,2.57.59,10.71,10.71,0,0,0,2.08-.1l.32-.06c.54-.1,1.07-.24,1.6-.39.23-.07.47-.14.7-.23l.22-.09a1.06,1.06,0,0,1,.13-.46,4.94,4.94,0,0,1,.3-.49,4,4,0,0,0,.38-.46.93.93,0,0,0,.15-.47A1.66,1.66,0,0,0,112.65,68.33Z"/><path class="cls-15" d="M116.65,70.87a8.07,8.07,0,0,1-3.55.29l-.17,0h-.12a3.73,3.73,0,0,1-.46-.09.67.67,0,0,1-.3-.16.22.22,0,0,1,0-.08h0a.28.28,0,0,1,0-.24.77.77,0,0,1,.15-.3l0,0c.15-.2.26-.43.42-.63l.36-.49c.23-.12.46-.3.69-.4a2.53,2.53,0,0,1,1.48-.21,2.13,2.13,0,0,1,1.22.88,2.5,2.5,0,0,1,.25.41.09.09,0,0,0,0,.07,1.48,1.48,0,0,1,.12.29,3,3,0,0,1,.1.32C116.9,70.68,116.91,70.8,116.65,70.87Z"/><path class="cls-17" d="M116.83,70.44a3,3,0,0,0-.1-.32,1.48,1.48,0,0,0-.12-.29.09.09,0,0,1,0-.07,2.5,2.5,0,0,0-.25-.41,2.13,2.13,0,0,0-1.22-.88h0a1.42,1.42,0,0,1,.32.74,1.5,1.5,0,0,1-.07.84,1.06,1.06,0,0,1-.72.53,4.11,4.11,0,0,1-1.1.15,1.94,1.94,0,0,1-1-.13.53.53,0,0,1-.25-.59,1.43,1.43,0,0,1-.14.2l0,0a.77.77,0,0,0-.15.3.28.28,0,0,0,0,.24h0a.22.22,0,0,0,0,.08.67.67,0,0,0,.3.16,3.73,3.73,0,0,0,.46.09h.12l.17,0a8.07,8.07,0,0,0,3.55-.29C116.91,70.8,116.9,70.68,116.83,70.44Z"/><path class="cls-15" d="M118.4,68.75c-.05.34-.36.41-.64.51a1.79,1.79,0,0,1-.87.22,3,3,0,0,0-1.09-1.19,2.06,2.06,0,0,0-1.67-.07,3.11,3.11,0,0,0-.76.36,5.71,5.71,0,0,0-.48.38,1.63,1.63,0,0,0,.07-.3,3.68,3.68,0,0,0,0-1.15,7.17,7.17,0,0,0-.75-2.06l-.63-1.1a.9.9,0,0,0,.2-.14,6.7,6.7,0,0,1,.68-.51A5.14,5.14,0,0,1,114,63a2.78,2.78,0,0,1,2.82,1.16,6.8,6.8,0,0,1,1.4,2.77A4.55,4.55,0,0,1,118.4,68.75Z"/><path class="cls-16" d="M112.27,64.35a8.65,8.65,0,0,1,1.19-.9,3,3,0,0,1,1.8-.48A2.09,2.09,0,0,0,114,63a5.14,5.14,0,0,0-1.61.75,6.7,6.7,0,0,0-.68.51.9.9,0,0,1-.2.14l.26.46C111.94,64.65,112.11,64.49,112.27,64.35Z"/><path class="cls-17" d="M118.24,66.88a6.8,6.8,0,0,0-1.4-2.77,5.21,5.21,0,0,0-.73-.68,1.57,1.57,0,0,1,.15.32,2.84,2.84,0,0,1,.21,1.35,3,3,0,0,1-1.63,2,3.36,3.36,0,0,1-.68.28,1.08,1.08,0,0,1-.59,0c-.33-.11-.45-.53-.61-.81a10.6,10.6,0,0,0-.74-1,7.55,7.55,0,0,1,.69,2,3.68,3.68,0,0,1,0,1.15,1.63,1.63,0,0,1-.07.3,5.71,5.71,0,0,1,.48-.38,3.11,3.11,0,0,1,.76-.36,2.06,2.06,0,0,1,1.67.07,3,3,0,0,1,1.09,1.19,1.79,1.79,0,0,0,.87-.22c.28-.1.59-.17.64-.51A4.55,4.55,0,0,0,118.24,66.88Z"/><path class="cls-17" d="M118.24,66.88a7.05,7.05,0,0,0-1-2.3,6.22,6.22,0,0,1,.41,1.52,4.76,4.76,0,0,1-.2,2.25,4.91,4.91,0,0,1-.55,1.07l0,.06a1.79,1.79,0,0,0,.87-.22c.28-.1.59-.17.64-.51A4.55,4.55,0,0,0,118.24,66.88Z"/><path class="cls-18" d="M119.09,83.58c6.48-1.19,10.33-2.68,10.33-4.29,0-3.9-22.56-7.07-50.4-7.07s-50.39,3.17-50.39,7.07c0,1.77,4.62,3.38,12.27,4.62-6.38,1-10.16,2.25-10.16,3.6,0,3.3,22.57,6,50.4,6s50.4-2.68,50.4-6C131.54,86,126.84,84.63,119.09,83.58Z"/><path class="cls-19" d="M119.09,83.58c6.48-1.19,10.33-2.68,10.33-4.29,0-3.22-15.36-5.94-36.37-6.79,3.43.36,6.84.77,10.23,1.39,2.89.53,5.75,1.21,8.58,2,1.77.5,3.73.65,5.34,1.6.62.37,1.51,1.07,1.28,1.92A2.68,2.68,0,0,1,117,80.85a31.27,31.27,0,0,1-7.73,2.1c-1.32.26-2.65.5-4,.79a9.08,9.08,0,0,0-2.07.56,13.12,13.12,0,0,0,2.55.66,19.26,19.26,0,0,1,3.5,1.11c.52.24,1.53.76,1.28,1.5-.36,1.1-2.13,1.62-3.06,2-4.53,1.74-26.07,2.11-31.95,2-6.07-.08-12.14-.28-18.18-.84a45.69,45.69,0,0,1-4.94-.63c-1.36-.28-3.06-.64-4-1.76s.17-1.83.89-2.52c1.37-1.32-.66-2.25-1.74-2.58-1.38-.43-2.81-.68-4.2-1.08a6.4,6.4,0,0,1-3.15-1.57c-2.16-2.49,2-4.35,3.74-5.13,1.35-.59,2.7-1.18,4.07-1.75C36.21,75,28.63,77,28.63,79.29c0,1.77,4.62,3.38,12.27,4.62-6.38,1-10.16,2.25-10.16,3.6,0,3.3,22.57,6,50.4,6s50.4-2.68,50.4-6C131.54,86,126.84,84.63,119.09,83.58Z"/><path class="cls-20" d="M125.94,84.77a52.56,52.56,0,0,0-6.85-1.19s-3.62,2.63-2.86,2.79,2.74.29,2.78.29c7.37.79,11.51,1.18,11,2.3,1-.46,1.49-.95,1.49-1.45C131.54,86.52,129.52,85.59,125.94,84.77Z"/><path class="cls-20" d="M129.42,79.29c0-3.9-22.56-7.07-50.4-7.07s-50.39,3.17-50.39,7.07c0,.5.36,1,1.06,1.45,4.76-3.21,25-5.62,49.33-5.62s44.58,2.41,49.34,5.62C129.06,80.27,129.42,79.79,129.42,79.29Z"/><path class="cls-20" d="M40.69,83.94c-.87-.21-5.84,1.11-6.87,1.48a.67.67,0,0,0-.17.08c-1.88.63-2.91,1.31-2.91,2,0,.5.52,1,1.49,1.45a35.6,35.6,0,0,1,8.67-2.15,19,19,0,0,0,3.24-.32A13.55,13.55,0,0,0,40.69,83.94Z"/><path class="cls-21" d="M121.8,87c.4-.67.8-1.34,1.22-2,.14-.23.29-.48.46-.72-.39-.07-.81-.15-1.28-.22-.35,1-.64,1.91-.9,2.88Z"/><path class="cls-21" d="M124.9,85a12.94,12.94,0,0,0-.83,2.26l.9.11.1-.12c.34-.42.66-.86,1-1.29a9.73,9.73,0,0,1,.78-.92l-.91-.22-.88-.21C125,84.7,125,84.83,124.9,85Z"/><path class="cls-21" d="M128.83,88a11.61,11.61,0,0,1,.54-1.12c.15-.3.31-.6.47-.89l-.28-.12c-.51.63-1,1.29-1.47,2C128.36,87.86,128.61,87.92,128.83,88Z"/><path class="cls-21" d="M119,86.05c.42-.78.86-1.56,1.32-2.32l-1.22-.15s-3.62,2.63-2.86,2.79a22.81,22.81,0,0,0,2.35.26C118.71,86.43,118.85,86.24,119,86.05Z"/><path class="cls-21" d="M30.69,77.28c.57.7,1,1.54,1.49,2.29l.46-.15c-.36-.84-.82-1.64-1.13-2.49C31.21,77.05,30.94,77.16,30.69,77.28Z"/><path class="cls-21" d="M34.5,76c-.61.16-1.17.32-1.68.49.24.4.47.83.71,1.21s.51.83.78,1.24l1-.24c-.06-.23-.13-.46-.2-.69C34.88,77.32,34.7,76.65,34.5,76Z"/><path class="cls-21" d="M41.17,74.63h-.09c0,.45,0,.9,0,1.34S41,77,41,77.55l1.2-.19C41.81,76.47,41.48,75.55,41.17,74.63Z"/><path class="cls-21" d="M49.12,75c-.13-.41-.25-.9-.39-1.39l-.72.08a18.14,18.14,0,0,0,.65,2.83l.91-.1C49.41,76,49.27,75.5,49.12,75Z"/><path class="cls-21" d="M64.93,72.51c-.48,0-1,0-1.42.06q.16,1,.3,2c0,.3.07.6.1.89l.74,0c.07-.59.09-1.18.16-1.75Z"/><path class="cls-21" d="M73.12,74l-.06,1.13h.61c0-1,0-1.93,0-2.89h-.42Q73.17,73.17,73.12,74Z"/><path class="cls-21" d="M71.83,75.19c-.09-1-.08-1.92-.11-2.89h-.41c0,.31-.08.61-.13.91a19.72,19.72,0,0,0-.26,2Z"/><path class="cls-21" d="M82.49,73.9c.11-.55.23-1.1.35-1.66H80.57c0,.52-.08,1-.14,1.57s-.12.88-.17,1.32h2Z"/><path class="cls-21" d="M87.17,75.21l1.37,0c0-.53.1-1.06.14-1.59s.08-.86.12-1.3l-.57,0c-.18.55-.36,1.1-.57,1.65C87.52,74.37,87.33,74.79,87.17,75.21Z"/><path class="cls-21" d="M106,75.6c.11-.75.26-1.5.38-2.25l-.56,0c-.21.94-.31,1.91-.52,2.85l.62.06C105.91,76,105.94,75.78,106,75.6Z"/><path class="cls-21" d="M104,76.05c0-.51.1-1,.17-1.49s.14-.92.22-1.38l-.94-.07c-.08.14-.15.29-.22.44-.4.77-.77,1.57-1.16,2.35Z"/><path class="cls-21" d="M118.75,77.84l1.66.31c.55-.83,1.06-1.68,1.54-2.56-.72-.17-1.48-.32-2.29-.48l0,.08C119.34,76.06,119,77,118.75,77.84Z"/><path class="cls-21" d="M116.51,77.46c.28-.49.56-1,.87-1.45s.5-.78.75-1.18l-1.73-.28c-.29.92-.58,1.84-.86,2.77Z"/><path class="cls-21" d="M123.41,75.94c-.19.46-.38.91-.53,1.35s-.3.86-.41,1.31l1.44.37c.57-.77,1.06-1.6,1.56-2.43C124.85,76.34,124.16,76.14,123.41,75.94Z"/><path class="cls-21" d="M93.11,73.44c0-.3,0-.62,0-.93l-.76,0c-.25.9-.43,1.84-.61,2.72l0,.15c.5,0,1,0,1.49.06C93.16,74.75,93.12,74.1,93.11,73.44Z"/><path class="cls-21" d="M51.79,74.82c-.07-.48-.11-1-.16-1.46l-.94.09c0,.23,0,.44,0,.62A21,21,0,0,0,51,76.31l1.06-.09A13.08,13.08,0,0,1,51.79,74.82Z"/><path class="cls-21" d="M34.77,86.5c-.2-.27-.46-.74-.76-1.15l-.19.07a.67.67,0,0,0-.17.08h0A20.86,20.86,0,0,0,34.83,88l.91-.23C35.42,87.37,35.1,86.93,34.77,86.5Z"/><path class="cls-21" d="M40.69,83.94a5.27,5.27,0,0,0-1.59.15,10.46,10.46,0,0,1,2,1.34c.46.41.89.87,1.34,1.3a5.46,5.46,0,0,0,1.74-.24A13.55,13.55,0,0,0,40.69,83.94Z"/><path class="cls-21" d="M37.92,86.36c0-.11-.08-.21-.11-.32-.18-.52-.41-1-.61-1.55l-.6.15A20.09,20.09,0,0,1,37.92,86.36Z"/><path class="cls-21" d="M31.72,86.33c-.64.38-1,.78-1,1.18s.52,1,1.49,1.45c.25-.12.52-.23.82-.35C32.6,87.86,32.16,87.1,31.72,86.33Z"/><path class="cls-22" d="M67.42,79.68C67.42,81,61.56,82,54.32,82s-13.1-1-13.1-2.33,5.86-2.32,13.1-2.32S67.42,78.4,67.42,79.68Z"/><path class="cls-22" d="M105.89,87.71c0,1.16-5.28,2.1-11.79,2.1s-11.79-.94-11.79-2.1,5.28-2.09,11.79-2.09S105.89,86.56,105.89,87.71Z"/><path class="cls-22" d="M77.88,81.93c0,.47-2.15.85-4.82.85s-4.82-.38-4.82-.85,2.16-.86,4.82-.86S77.88,81.45,77.88,81.93Z"/><path class="cls-23" d="M63.73,80.37c0,1.22-3.45,2.2-7.7,2.2s-7.69-1-7.69-2.2,3.44-2.2,7.69-2.2S63.73,79.16,63.73,80.37Z"/><path class="cls-24" d="M55.72,78.64s-5.2,0-6.34,1,1.71,1.69,4.89,2l.93-.35-.19.42s6.15.14,7.71-1.27C64.66,78.7,55.72,78.64,55.72,78.64Z"/><path class="cls-25" d="M52.3,81.31c-.44-.09-.89-.14-1.33-.27s-.84-.27-1-.64a.53.53,0,0,1,.17-.72,3.33,3.33,0,0,1,1.17-.48A17.78,17.78,0,0,1,53,78.75c-1.45.12-3.08.38-3.66.93-1,1,1.19,1.57,4,1.89C53,81.47,52.65,81.39,52.3,81.31Z"/><path class="cls-26" d="M56.79,78.67l.85.12a22.5,22.5,0,0,1,2.29.43c.33.09,1.1.26,1.14.69s-.69.61-.93.71a10.2,10.2,0,0,1-2.18.6c-.7.11-1.41.16-2.11.24-.14,0-.38.07-.48-.07s-.06-.28,0-.43a4.68,4.68,0,0,0-1.31.68l.26,0,.93-.35-.19.42s6.15.14,7.71-1.27S59.11,78.75,56.79,78.67Z"/><ellipse class="cls-23" cx="61.11" cy="83.62" rx="5.85" ry="1.67"/><path class="cls-24" d="M61.05,82.5s-3.3,0-4,.67,1.09,1.07,3.12,1.26l.59-.23-.13.27s3.92.08,4.91-.81C66.75,82.54,61.05,82.5,61.05,82.5Z"/><path class="cls-25" d="M58.88,84.2A8.52,8.52,0,0,1,58,84a1,1,0,0,1-.64-.41.34.34,0,0,1,.11-.46,2.18,2.18,0,0,1,.74-.3,11.34,11.34,0,0,1,1.11-.29,4.68,4.68,0,0,0-2.33.6c-.65.62.76,1,2.53,1.2C59.33,84.3,59.1,84.25,58.88,84.2Z"/><path class="cls-26" d="M61.74,82.52l.53.08a13.93,13.93,0,0,1,1.46.27c.22.06.7.16.73.44s-.44.39-.59.45a6.65,6.65,0,0,1-1.39.38c-.44.07-.89.11-1.34.16-.09,0-.24,0-.31,0s0-.17,0-.27a2.74,2.74,0,0,0-.83.43l.17,0,.59-.23-.13.27s3.92.08,4.91-.81S63.21,82.57,61.74,82.52Z"/><path class="cls-23" d="M66.94,80.78c0,.21-.58.37-1.29.37s-1.29-.16-1.29-.37.58-.37,1.29-.37S66.94,80.58,66.94,80.78Z"/><path class="cls-27" d="M66.55,78.34l.19-.24s.18-.25.17-.09a1.16,1.16,0,0,1-.32.75l0,0-.17.11A2.74,2.74,0,0,0,66.55,78.34Z"/><path class="cls-27" d="M65,76.71a2.93,2.93,0,0,1,.21-.39c.09-.12.35.36.38.42a2.67,2.67,0,0,1,.25.43,4.38,4.38,0,0,0-.37.81,2.76,2.76,0,0,0-.73-.78A3.8,3.8,0,0,1,65,76.71Z"/><path class="cls-27" d="M64.05,78.42a2.07,2.07,0,0,0,.25.15,1.49,1.49,0,0,0,0,.21l-.12-.1A.49.49,0,0,1,64.05,78.42Z"/><path class="cls-27" d="M64.49,79.48a2.26,2.26,0,0,1-1.16-.43,3.31,3.31,0,0,1,1,0h0a.75.75,0,0,0,.38.42,1,1,0,0,0,.23.08A2.12,2.12,0,0,1,64.49,79.48Z"/><path class="cls-27" d="M65.65,79.38h-.11a1.41,1.41,0,0,1-.79-.2c-.41-.29-.32-1-.29-1.45,0-.19.05-.48.28-.25a4.49,4.49,0,0,1,.36.39C65.34,78.16,66.09,79,65.65,79.38Z"/><path class="cls-27" d="M65.84,79.31c.25-.31,0-.73-.24-1.08l-.09-.13c.11-.21.2-.41.29-.62a1.74,1.74,0,0,1,.11-.18.33.33,0,0,0,.09-.11c.08-.07.17-.07.24.14a2.42,2.42,0,0,1,.19,1A1.16,1.16,0,0,1,65.84,79.31Z"/><path class="cls-27" d="M67.22,79.06a1.8,1.8,0,0,1-.46.23,1.93,1.93,0,0,1-.67.08.85.85,0,0,0,.23-.29,2.1,2.1,0,0,1,1.29-.41A2.38,2.38,0,0,1,67.22,79.06Z"/><path class="cls-28" d="M50,82.09a4.49,4.49,0,0,1-1.71-.77c-1.07-.85.05-1.87.84-2.34,0,0,0,0,0,0-.72.35-1.47.86-1.51,1.74-.06,1,1.58,1.43,2.32,1.51C50,82.2,50.05,82.11,50,82.09Z"/><path class="cls-28" d="M48.17,82.12c-.7-.46-1.56-1.17-.84-2.05,0,0,0,0,0,0l0,0s0,0,0,0-.29.38-.32.44a.8.8,0,0,0,0,.55,1.83,1.83,0,0,0,1.18,1.15S48.2,82.14,48.17,82.12Z"/><path class="cls-28" d="M55.74,85c-.27-.18-.57-.31-.83-.5a1.09,1.09,0,0,1-.37-.43c-.21-.46.22-.82.49-1.07,0,0,0-.05,0,0-.33.26-.81.63-.66,1.12a1.68,1.68,0,0,0,1.33,1S55.78,85,55.74,85Z"/><path class="cls-28" d="M54.29,84.55a1.48,1.48,0,0,1-.24-.26.64.64,0,0,1-.1-.43s0,0,0,0a.58.58,0,0,0,0,.45.66.66,0,0,0,.31.33S54.32,84.58,54.29,84.55Z"/><path class="cls-28" d="M65.58,82.12s0,0,0,0a4.66,4.66,0,0,1,1.51.63.82.82,0,0,1,.23,1.32,3.75,3.75,0,0,1-.67.41s0,.08,0,.06c.58-.19,1.15-.53,1.09-1.21C67.66,82.5,66.24,82.18,65.58,82.12Z"/><path class="cls-28" d="M68,82.94s-.05,0,0,0a.93.93,0,0,1,0,.78s0,.1.07,0A.67.67,0,0,0,68,82.94Z"/><path class="cls-28" d="M66.64,81.08a4,4,0,0,1-1.41.08,2.05,2.05,0,0,1-.43-.09.85.85,0,0,1-.26-.11c-.37-.22.17-.41.27-.45s0,0,0,0c-.32.06-.68.26-.37.6s.73.24,1,.26a2.23,2.23,0,0,0,1.17-.18S66.69,81.07,66.64,81.08Z"/><path class="cls-28" d="M64.71,81.44a1.72,1.72,0,0,1-.64-.11s0,0,0,0,.09.11.15.13a.91.91,0,0,0,.46.07S64.76,81.44,64.71,81.44Z"/><ellipse class="cls-23" cx="103.43" cy="79.21" rx="8.32" ry="2.38"/><path class="cls-24" d="M103.09,77.34s-5.61-.06-6.84,1.12,1.84,1.83,5.28,2.15l1-.39-.2.45s6.65.15,8.34-1.37C112.77,77.4,103.09,77.34,103.09,77.34Z"/><path class="cls-25" d="M99.4,80.23c-.48-.1-1-.16-1.44-.3a1.69,1.69,0,0,1-1.1-.69.59.59,0,0,1,.19-.78,3.58,3.58,0,0,1,1.26-.52c.63-.18,1.25-.36,1.89-.49-1.58.13-3.33.41-4,1-1.11,1.07,1.28,1.7,4.28,2A10.92,10.92,0,0,0,99.4,80.23Z"/><path class="cls-26" d="M104.26,77.36l.91.14a23.54,23.54,0,0,1,2.48.47c.36.1,1.19.27,1.23.74s-.74.66-1,.76a10.2,10.2,0,0,1-2.36.65c-.76.13-1.52.18-2.28.27-.15,0-.41.07-.52-.08s-.06-.3-.06-.46a5,5,0,0,0-1.41.73l.28,0,1-.39-.2.45s6.65.15,8.34-1.37S106.76,77.45,104.26,77.36Z"/><path class="cls-23" d="M115.24,82.72c0,1-2.83,1.8-6.32,1.8s-6.32-.8-6.32-1.8,2.83-1.81,6.32-1.81S115.24,81.72,115.24,82.72Z"/><path class="cls-24" d="M108.86,81.51s-3.57,0-4.35.72,1.17,1.16,3.36,1.36l.64-.24-.13.29s4.23.09,5.3-.88C115,81.56,108.86,81.51,108.86,81.51Z"/><path class="cls-25" d="M106.51,83.35c-.3-.06-.61-.1-.91-.19a1.06,1.06,0,0,1-.7-.43.38.38,0,0,1,.12-.5,2.16,2.16,0,0,1,.8-.33,10.59,10.59,0,0,1,1.2-.31,5,5,0,0,0-2.51.64c-.71.68.82,1.08,2.73,1.3C107,83.46,106.76,83.4,106.51,83.35Z"/><path class="cls-26" d="M109.6,81.53l.58.09a13.75,13.75,0,0,1,1.58.29c.23.07.76.18.79.48s-.47.42-.64.48a6.54,6.54,0,0,1-1.5.41c-.48.08-1,.12-1.46.17-.09,0-.25,0-.32,0s0-.2,0-.3a3.37,3.37,0,0,0-.9.47h.18l.64-.24-.13.29s4.23.09,5.3-.88S111.2,81.59,109.6,81.53Z"/><path class="cls-28" d="M96.91,81.07a5,5,0,0,1-1.85-.83c-1.15-.92.06-2,.91-2.54,0,0,0-.06,0,0a2.4,2.4,0,0,0-1.64,1.88c-.06,1.14,1.71,1.55,2.51,1.64C96.89,81.18,97,81.08,96.91,81.07Z"/><path class="cls-28" d="M94.93,81.1c-.76-.5-1.68-1.27-.91-2.22,0,0,0,0,0,0h0s-.05,0,0,0-.31.41-.34.48a.86.86,0,0,0,0,.59,1.94,1.94,0,0,0,1.27,1.24S95,81.12,94.93,81.1Z"/><path class="cls-28" d="M103.12,84.22c-.29-.19-.62-.33-.9-.54a1.11,1.11,0,0,1-.39-.47c-.24-.48.22-.87.52-1.15,0,0,0-.06,0,0-.36.28-.88.68-.72,1.21a1.83,1.83,0,0,0,1.44,1.08S103.16,84.25,103.12,84.22Z"/><path class="cls-28" d="M101.55,83.73a1.45,1.45,0,0,1-.26-.29.73.73,0,0,1-.11-.46s0,0,0,0a.62.62,0,0,0,0,.48c.08.14.17.31.33.36S101.59,83.76,101.55,83.73Z"/><path class="cls-28" d="M113.76,81.1s-.05,0,0,.05a5.06,5.06,0,0,1,1.63.67.89.89,0,0,1,.25,1.43,3.09,3.09,0,0,1-.72.44s-.05.09,0,.07c.63-.21,1.23-.57,1.18-1.31C116,81.51,114.48,81.16,113.76,81.1Z"/><path class="cls-28" d="M116.39,82s-.06,0,0,0a1,1,0,0,1,0,.84c0,.06,0,.11.07.06A.73.73,0,0,0,116.39,82Z"/><path class="cls-28" d="M114.9,80a4.32,4.32,0,0,1-1.52.09,2.34,2.34,0,0,1-.46-.09,1,1,0,0,1-.28-.13c-.4-.23.18-.44.28-.48s0,0,0,0c-.35.06-.74.28-.4.65a1.84,1.84,0,0,0,1.08.28,2.61,2.61,0,0,0,1.27-.19S115,80,114.9,80Z"/><path class="cls-28" d="M112.82,80.36a1.62,1.62,0,0,1-.69-.12h0c0,.08.11.12.16.15a1.11,1.11,0,0,0,.51.07S112.88,80.37,112.82,80.36Z"/><path class="cls-13" d="M117.45,95.51a11.21,11.21,0,0,0,1-.55.68.68,0,0,0,.25-.31,7.47,7.47,0,0,0-2.06-.27,7.86,7.86,0,0,0-1.74.87c.16-.34.48-1.3.64-1.29a1.63,1.63,0,0,1,.11-.23s0,0,0-.06a3.67,3.67,0,0,0-.87.2c-.3.12-.59.27-.88.41a7.06,7.06,0,0,0-.75,1.12,2.9,2.9,0,0,0-.74-.9,4.8,4.8,0,0,0-2.82-.4c-.07.12-.1.25,0,.29a3.65,3.65,0,0,1,2,1.38c-1.29-.42-3.53-.76-3.93.21a6.6,6.6,0,0,1,4.49,1.7,23,23,0,0,1,2.76-.16c.37,0,1,.17,1.5.24a12,12,0,0,1,2.93-2.28A5,5,0,0,0,117.45,95.51Z"/><path class="cls-13" d="M58.8,96.27a7.3,7.3,0,0,0,.67-.36.53.53,0,0,0,.16-.21,5.57,5.57,0,0,0-1.36-.18,5.16,5.16,0,0,0-1.15.58c.11-.23.31-.86.42-.85s.05-.11.08-.16a0,0,0,0,1,0,0,1.82,1.82,0,0,0-.57.13,5.3,5.3,0,0,0-.59.27,5,5,0,0,0-.49.74,2,2,0,0,0-.49-.6,3.22,3.22,0,0,0-1.87-.26c0,.08-.06.17,0,.19a2.48,2.48,0,0,1,1.32.91c-.86-.27-2.34-.5-2.6.14a4.37,4.37,0,0,1,3,1.12,16,16,0,0,1,1.83-.1c.24,0,.63.11,1,.16a8,8,0,0,1,1.94-1.51A3.49,3.49,0,0,0,58.8,96.27Z"/></g></g></svg>