<svg id="Layer_11" data-name="Layer 11" xmlns="http://www.w3.org/2000/svg" viewBox="0 0 150 160"><defs><style>.cls-1,.cls-13{fill:#c4001d;}.cls-1,.cls-10,.cls-11,.cls-12,.cls-2,.cls-3,.cls-4,.cls-5,.cls-6,.cls-7,.cls-8,.cls-9{stroke:#fff;stroke-miterlimit:10;stroke-width:5px;}.cls-14,.cls-2{fill:#c3c5c8;}.cls-15,.cls-3{fill:#1b1c20;}.cls-16,.cls-4{fill:#98989c;}.cls-17,.cls-5{fill:#edeeef;}.cls-18,.cls-6{fill:#fff;}.cls-19,.cls-8{fill:#e60004;}.cls-20,.cls-9{fill:#fc0820;}.cls-10,.cls-21{fill:#8cc8dd;}.cls-11,.cls-22{fill:#e73324;}.cls-12,.cls-23{fill:#f7af2c;}</style></defs><rect class="cls-1" x="135.48" y="93.61" width="2.36" height="2.63"/><rect class="cls-2" x="127.22" y="107.33" width="4.61" height="1.39" transform="translate(15.67 232.46) rotate(-87.37)"/><rect class="cls-2" x="123.98" y="108.92" width="1.39" height="4.61" transform="translate(-23.35 188.72) rotate(-69.37)"/><rect class="cls-2" x="123.92" y="116.13" width="4.61" height="1.39" transform="matrix(0.62, -0.78, 0.78, 0.62, -43.84, 142.5)"/><rect class="cls-2" x="131.33" y="114.78" width="1.39" height="4.61" transform="translate(-42.64 91.92) rotate(-33.37)"/><rect class="cls-2" x="131.77" y="110.97" width="4.61" height="1.39" transform="translate(-24.8 39.53) rotate(-15.37)"/><path class="cls-3" d="M103,115.68H87.53a24.48,24.48,0,0,1-6.69-1l-5.52-1.57v-5.24h34.47v1a6.76,6.76,0,0,1-6.71,6.81Z"/><path class="cls-3" d="M110.06,73.72l-7.72,1.41a1,1,0,0,1-1.18-.8v-.11A1,1,0,0,1,102,73h0l7.73-1.41Z"/><path class="cls-3" d="M129.43,100.06A12.92,12.92,0,1,0,142.33,113h0A12.92,12.92,0,0,0,129.43,100.06Zm0,19.46A6.55,6.55,0,1,1,136,113h0a6.56,6.56,0,0,1-6.53,6.58h0Z"/><path class="cls-4" d="M129.43,105.2a7.82,7.82,0,1,0,7.82,7.82,7.82,7.82,0,0,0-7.82-7.82Zm0,14.32A6.55,6.55,0,1,1,136,113h0a6.56,6.56,0,0,1-6.53,6.58h0Z"/><path class="cls-2" d="M133.31,113.24a4,4,0,1,1-3.82-4.19h0A4,4,0,0,1,133.31,113.24Z"/><path class="cls-5" d="M130,113.35l-.22.13a.82.82,0,0,1-1.12-.29l-5.1-8.69,1.62-1,5.11,8.69a.8.8,0,0,1-.28,1.1Z"/><rect class="cls-1" x="116.14" y="74.92" width="2.8" height="35.19" transform="translate(-30.67 72.35) rotate(-30.46)"/><path class="cls-1" d="M123.78,92c-9.55,0-11.6,11.76-11.6,19l.11.11h3.6a2.42,2.42,0,0,0,2.39-2c.9-4.91,5-7.86,10.18-7.86h13.15V99.85C140.08,97.2,134.67,92,123.78,92Z"/><path class="cls-6" d="M117.17,108.09c-.22,1.21-1.29,1.65-2.52,1.65h-2.41V111l.1.11h3.6a2.43,2.43,0,0,0,2.4-2c.9-4.91,5-7.86,10.18-7.86h13.15V99.85H127.83C122.46,99.85,118.11,102.93,117.17,108.09Z"/><rect class="cls-1" x="119.71" y="76.32" width="5.65" height="7.57"/><path class="cls-3" d="M125.76,84.31h.45a1.11,1.11,0,0,0,1.11-1.11h0V77a1.11,1.11,0,0,0-1.11-1.11h-.45a.4.4,0,0,0-.4.4v7.64A.4.4,0,0,0,125.76,84.31Z"/><path class="cls-5" d="M75.3,51.47H74.09a1.89,1.89,0,0,1-1.82-1.24l-4-10,1.1-.43,3.94,10a.78.78,0,0,0,.72.5h1.21Z"/><path class="cls-3" d="M49.1,88.34H9.77V82.46H49.1a2.31,2.31,0,0,1,2.31,2.31V86A2.32,2.32,0,0,1,49.1,88.34Z"/><path class="cls-3" d="M40.34,113.06h65.31a1.24,1.24,0,0,0,1.25-1.24v-.5H40.34Z"/><path class="cls-7" d="M33.13,115.57a.48.48,0,0,1-.48-.49h0a.47.47,0,0,1,.47-.47h8.32c.09,0,12.41-.62,18.92-2.56a.5.5,0,1,1,.28,1h0C54,115,42,115.57,41.46,115.6Z"/><path class="cls-7" d="M33.13,116.68a.48.48,0,0,1-.48-.47h0a.48.48,0,0,1,.48-.49h8.31a134.76,134.76,0,0,0,14.46-1.54.49.49,0,0,1,.57.37v0a.49.49,0,0,1-.39.56,138.32,138.32,0,0,1-14.65,1.56Z"/><rect class="cls-7" x="53.59" y="113.19" width="0.82" height="2.49" transform="translate(-13.66 7.5) rotate(-7.06)"/><path class="cls-7" d="M43.58,115.12H35.27c-.53,0-12.6-.62-19.21-2.6a.48.48,0,0,1-.33-.59h0a.48.48,0,0,1,.6-.32c6.49,1.91,18.83,2.55,19,2.56h8.29a.49.49,0,0,1,.38.57.49.49,0,0,1-.38.38Z"/><rect class="cls-7" x="16.39" y="111.35" width="1.6" height="1.92"/><path class="cls-1" d="M109.78,97.54h-2.94a9,9,0,0,0-5.2,1.57l-9.34,6.78V110h17.48Z"/><rect class="cls-1" x="76.29" y="90.54" width="16.13" height="17.86"/><rect class="cls-3" x="76.29" y="94.59" width="16.13" height="1.3"/><rect class="cls-1" x="52.31" y="104.13" width="23.99" height="4.27"/><path class="cls-3" d="M79.45,86.91l-2.06-15a1.86,1.86,0,0,0-1.84-1.61H74.46a2,2,0,0,0-2,2c0,.09,0,.18,0,.28l2.79,20.32H94.47a1,1,0,0,0,1-1h0V89.27a.84.84,0,0,0-.84-.84H81.2A1.78,1.78,0,0,1,79.45,86.91Z"/><rect class="cls-5" x="75.3" y="40.27" width="1.99" height="65.5"/><path class="cls-5" d="M51.75,73.81a3.43,3.43,0,0,0-2.4-.87H28.22v1.29H45.76v2.2H36.37v1h9.39v1.86h-3.9v1.28h3.9v3.82H47V80.53h4.38a1.51,1.51,0,0,0,1.5-1.47V77A4.06,4.06,0,0,0,51.75,73.81ZM47,74.23h2.38a2.19,2.19,0,0,1,1.47.52,2.53,2.53,0,0,1,.71,1.68H47Zm4.38,5H47V77.41h4.59v1.65A.23.23,0,0,1,51.41,79.25Z"/><path class="cls-3" d="M76.29,41.59H45.92a4,4,0,0,0-4,4v29.6H9.77V45.33A11.45,11.45,0,0,1,21.22,33.87h.42l55.27,2a4.06,4.06,0,0,1,.7.09l31.51,6.28a.76.76,0,0,1,.61.74v.31H102.2Z"/><path class="cls-8" d="M123.37,73h-7.64a2.62,2.62,0,0,1-2.52-1.91L105.9,46a1,1,0,0,1,.71-1.29l.24,0H107l-.79-1.37h-4l5.09,32.34a13.61,13.61,0,0,1,0,4.32l-3.08,18.94a8.08,8.08,0,0,1-8,6.79H83.8a4.33,4.33,0,0,1-4.33-4.33V87.56a1,1,0,0,0-1-1H74.05a1,1,0,0,0-1,1v13.85a4.33,4.33,0,0,1-4.32,4.33H60a8.09,8.09,0,0,1-7.87-6.26L49.22,87a10.18,10.18,0,0,0-.83-2.19l-4.07-8.22a2.5,2.5,0,0,0-2.26-1.41H9.77v27A10,10,0,0,0,12,108.49L13.24,110a3.83,3.83,0,0,0,2.87,1.37H107.6a8.63,8.63,0,0,0,8.11-5.63l8.35-22.34A12.37,12.37,0,0,0,123.37,73Z"/><circle class="cls-3" cx="33.77" cy="113.84" r="12.87"/><circle class="cls-4" cx="34.09" cy="113.23" r="7.82"/><circle class="cls-2" cx="34.09" cy="113.23" r="6.25"/><path class="cls-5" d="M38.4,113.23a4.32,4.32,0,1,1-4.32-4.3s0,0,0,0a4.3,4.3,0,0,1,4.3,4.3Z"/><path class="cls-9" d="M34.1,94.44c-9.47,0-17.14,6.86-17.19,16.77l.11.11h4.39a2.41,2.41,0,0,0,2.39-2c.9-4.9,5.17-7.85,10.31-7.85s9.38,3,10.34,7.85a2.42,2.42,0,0,0,2.39,2h4.5C51.29,101.34,43.6,94.44,34.1,94.44Z"/><path class="cls-5" d="M94,111.32H54.84V111a1.84,1.84,0,0,1,1.84-1.84H94c6,0,8.87-3.18,10-9.07.49-2.51,3.46-22.91,3.49-23.1h.19a1,1,0,0,1,1,1,.57.57,0,0,1,0,.13c-.33,4.22-2.17,20.34-2.6,22.57C104.68,107.94,101.35,111.32,94,111.32Z"/><path class="cls-5" d="M10.67,105.41H9.35a1.63,1.63,0,0,1-1.63-1.63V100a1.63,1.63,0,0,1,1.63-1.63h1.32Z"/><path class="cls-10" d="M115.18,73h8.2L107.06,44.68h-.71a1.05,1.05,0,0,0-1,1.09,2,2,0,0,0,0,.24l7.32,25.09A2.59,2.59,0,0,0,115.18,73Z"/><path class="cls-3" d="M124,74.4H107.14l.21,1.29v.21h17.13A15.3,15.3,0,0,0,124,74.4Z"/><path class="cls-3" d="M36.05,79.75H36a1.14,1.14,0,0,1-1.13-1.13h0v-5h2.36v5a1.12,1.12,0,0,1-1.11,1.13Z"/><rect class="cls-11" x="34.1" y="76.92" width="3.82" height="0.97"/><path class="cls-3" d="M16,79.75H15.9a1.12,1.12,0,0,1-1.12-1.12h0v-5h2.36v5A1.14,1.14,0,0,1,16,79.75Z"/><rect class="cls-11" x="14.05" y="76.92" width="3.82" height="0.97"/><path class="cls-5" d="M110.63,88.75l13,.4A1.23,1.23,0,0,0,124.9,88v-.19a1.24,1.24,0,0,0-1.24-1.23h0l-13,.41a.88.88,0,0,0-.85.89h0A.89.89,0,0,0,110.63,88.75Z"/><rect class="cls-3" x="110.06" y="81.89" width="7.13" height="3.41" rx="0.61"/><rect class="cls-12" x="110.54" y="82.44" width="6.19" height="2.33" rx="0.29"/><path class="cls-8" d="M138.66,94.64l-2.87-.32a2.12,2.12,0,0,1-1.91-2.1v-.5a2.11,2.11,0,0,1,1.91-2.1l2.87-.33Z"/><path class="cls-3" d="M138.89,94.89h.32a.77.77,0,0,0,.77-.76h0v-4.3a.77.77,0,0,0-.76-.77h-.33a.28.28,0,0,0-.28.27h0V94.6A.29.29,0,0,0,138.89,94.89Z"/><rect class="cls-13" x="135.48" y="93.61" width="2.36" height="2.63"/><rect class="cls-14" x="127.22" y="107.33" width="4.61" height="1.39" transform="translate(15.67 232.46) rotate(-87.37)"/><rect class="cls-14" x="123.98" y="108.92" width="1.39" height="4.61" transform="translate(-23.35 188.72) rotate(-69.37)"/><rect class="cls-14" x="123.92" y="116.13" width="4.61" height="1.39" transform="matrix(0.62, -0.78, 0.78, 0.62, -43.84, 142.5)"/><rect class="cls-14" x="131.33" y="114.78" width="1.39" height="4.61" transform="translate(-42.64 91.92) rotate(-33.37)"/><rect class="cls-14" x="131.77" y="110.97" width="4.61" height="1.39" transform="translate(-24.8 39.53) rotate(-15.37)"/><path class="cls-15" d="M103,115.68H87.53a24.48,24.48,0,0,1-6.69-1l-5.52-1.57v-5.24h34.47v1a6.76,6.76,0,0,1-6.71,6.81Z"/><path class="cls-15" d="M110.06,73.72l-7.72,1.41a1,1,0,0,1-1.18-.8v-.11A1,1,0,0,1,102,73h0l7.73-1.41Z"/><path class="cls-15" d="M129.43,100.06A12.92,12.92,0,1,0,142.33,113h0A12.92,12.92,0,0,0,129.43,100.06Zm0,19.46A6.55,6.55,0,1,1,136,113h0a6.56,6.56,0,0,1-6.53,6.58h0Z"/><path class="cls-16" d="M129.43,105.2a7.82,7.82,0,1,0,7.82,7.82,7.82,7.82,0,0,0-7.82-7.82Zm0,14.32A6.55,6.55,0,1,1,136,113h0a6.56,6.56,0,0,1-6.53,6.58h0Z"/><path class="cls-14" d="M133.31,113.24a4,4,0,1,1-3.82-4.19h0A4,4,0,0,1,133.31,113.24Z"/><path class="cls-17" d="M130,113.35l-.22.13a.82.82,0,0,1-1.12-.29l-5.1-8.69,1.62-1,5.11,8.69a.8.8,0,0,1-.28,1.1Z"/><rect class="cls-13" x="116.14" y="74.92" width="2.8" height="35.19" transform="translate(-30.67 72.35) rotate(-30.46)"/><path class="cls-13" d="M123.78,92c-9.55,0-11.6,11.76-11.6,19l.11.11h3.6a2.42,2.42,0,0,0,2.39-2c.9-4.91,5-7.86,10.18-7.86h13.15V99.85C140.08,97.2,134.67,92,123.78,92Z"/><path class="cls-18" d="M117.17,108.09c-.22,1.21-1.29,1.65-2.52,1.65h-2.41V111l.1.11h3.6a2.43,2.43,0,0,0,2.4-2c.9-4.91,5-7.86,10.18-7.86h13.15V99.85H127.83C122.46,99.85,118.11,102.93,117.17,108.09Z"/><rect class="cls-13" x="119.71" y="76.32" width="5.65" height="7.57"/><path class="cls-15" d="M125.76,84.31h.45a1.11,1.11,0,0,0,1.11-1.11h0V77a1.11,1.11,0,0,0-1.11-1.11h-.45a.4.4,0,0,0-.4.4v7.64A.4.4,0,0,0,125.76,84.31Z"/><path class="cls-17" d="M75.3,51.47H74.09a1.89,1.89,0,0,1-1.82-1.24l-4-10,1.1-.43,3.94,10a.78.78,0,0,0,.72.5h1.21Z"/><path class="cls-15" d="M49.1,88.34H9.77V82.46H49.1a2.31,2.31,0,0,1,2.31,2.31V86A2.32,2.32,0,0,1,49.1,88.34Z"/><path class="cls-15" d="M40.34,113.06h65.31a1.24,1.24,0,0,0,1.25-1.24v-.5H40.34Z"/><path d="M33.13,115.57a.48.48,0,0,1-.48-.49h0a.47.47,0,0,1,.47-.47h8.32c.09,0,12.41-.62,18.92-2.56a.5.5,0,1,1,.28,1h0C54,115,42,115.57,41.46,115.6Z"/><path d="M33.13,116.68a.48.48,0,0,1-.48-.47h0a.48.48,0,0,1,.48-.49h8.31a134.76,134.76,0,0,0,14.46-1.54.49.49,0,0,1,.57.37v0a.49.49,0,0,1-.39.56,138.32,138.32,0,0,1-14.65,1.56Z"/><rect x="53.59" y="113.19" width="0.82" height="2.49" transform="translate(-13.66 7.5) rotate(-7.06)"/><path d="M43.58,115.12H35.27c-.53,0-12.6-.62-19.21-2.6a.48.48,0,0,1-.33-.59h0a.48.48,0,0,1,.6-.32c6.49,1.91,18.83,2.55,19,2.56h8.29a.49.49,0,0,1,.38.57.49.49,0,0,1-.38.38Z"/><rect x="16.39" y="111.35" width="1.6" height="1.92"/><path class="cls-13" d="M109.78,97.54h-2.94a9,9,0,0,0-5.2,1.57l-9.34,6.78V110h17.48Z"/><rect class="cls-13" x="76.29" y="90.54" width="16.13" height="17.86"/><rect class="cls-15" x="76.29" y="94.59" width="16.13" height="1.3"/><rect class="cls-13" x="52.31" y="104.13" width="23.99" height="4.27"/><path class="cls-15" d="M79.45,86.91l-2.06-15a1.86,1.86,0,0,0-1.84-1.61H74.46a2,2,0,0,0-2,2c0,.09,0,.18,0,.28l2.79,20.32H94.47a1,1,0,0,0,1-1h0V89.27a.84.84,0,0,0-.84-.84H81.2A1.78,1.78,0,0,1,79.45,86.91Z"/><rect class="cls-17" x="75.3" y="40.27" width="1.99" height="65.5"/><path class="cls-17" d="M51.75,73.81a3.43,3.43,0,0,0-2.4-.87H28.22v1.29H45.76v2.2H36.37v1h9.39v1.86h-3.9v1.28h3.9v3.82H47V80.53h4.38a1.51,1.51,0,0,0,1.5-1.47V77A4.06,4.06,0,0,0,51.75,73.81ZM47,74.23h2.38a2.19,2.19,0,0,1,1.47.52,2.53,2.53,0,0,1,.71,1.68H47Zm4.38,5H47V77.41h4.59v1.65A.23.23,0,0,1,51.41,79.25Z"/><path class="cls-15" d="M76.29,41.59H45.92a4,4,0,0,0-4,4v29.6H9.77V45.33A11.45,11.45,0,0,1,21.22,33.87h.42l55.27,2a4.06,4.06,0,0,1,.7.09l31.51,6.28a.76.76,0,0,1,.61.74v.31H102.2Z"/><path class="cls-19" d="M123.37,73h-7.64a2.62,2.62,0,0,1-2.52-1.91L105.9,46a1,1,0,0,1,.71-1.29l.24,0H107l-.79-1.37h-4l5.09,32.34a13.61,13.61,0,0,1,0,4.32l-3.08,18.94a8.08,8.08,0,0,1-8,6.79H83.8a4.33,4.33,0,0,1-4.33-4.33V87.56a1,1,0,0,0-1-1H74.05a1,1,0,0,0-1,1v13.85a4.33,4.33,0,0,1-4.32,4.33H60a8.09,8.09,0,0,1-7.87-6.26L49.22,87a10.18,10.18,0,0,0-.83-2.19l-4.07-8.22a2.5,2.5,0,0,0-2.26-1.41H9.77v27A10,10,0,0,0,12,108.49L13.24,110a3.83,3.83,0,0,0,2.87,1.37H107.6a8.63,8.63,0,0,0,8.11-5.63l8.35-22.34A12.37,12.37,0,0,0,123.37,73Z"/><circle class="cls-15" cx="33.77" cy="113.84" r="12.87"/><circle class="cls-16" cx="34.09" cy="113.23" r="7.82"/><circle class="cls-14" cx="34.09" cy="113.23" r="6.25"/><path class="cls-17" d="M38.4,113.23a4.32,4.32,0,1,1-4.32-4.3s0,0,0,0a4.3,4.3,0,0,1,4.3,4.3Z"/><path class="cls-20" d="M34.1,94.44c-9.47,0-17.14,6.86-17.19,16.77l.11.11h4.39a2.41,2.41,0,0,0,2.39-2c.9-4.9,5.17-7.85,10.31-7.85s9.38,3,10.34,7.85a2.42,2.42,0,0,0,2.39,2h4.5C51.29,101.34,43.6,94.44,34.1,94.44Z"/><path class="cls-17" d="M94,111.32H54.84V111a1.84,1.84,0,0,1,1.84-1.84H94c6,0,8.87-3.18,10-9.07.49-2.51,3.46-22.91,3.49-23.1h.19a1,1,0,0,1,1,1,.57.57,0,0,1,0,.13c-.33,4.22-2.17,20.34-2.6,22.57C104.68,107.94,101.35,111.32,94,111.32Z"/><path class="cls-17" d="M10.67,105.41H9.35a1.63,1.63,0,0,1-1.63-1.63V100a1.63,1.63,0,0,1,1.63-1.63h1.32Z"/><path class="cls-21" d="M115.18,73h8.2L107.06,44.68h-.71a1.05,1.05,0,0,0-1,1.09,2,2,0,0,0,0,.24l7.32,25.09A2.59,2.59,0,0,0,115.18,73Z"/><path class="cls-15" d="M124,74.4H107.14l.21,1.29v.21h17.13A15.3,15.3,0,0,0,124,74.4Z"/><path class="cls-15" d="M36.05,79.75H36a1.14,1.14,0,0,1-1.13-1.13h0v-5h2.36v5a1.12,1.12,0,0,1-1.11,1.13Z"/><rect class="cls-22" x="34.1" y="76.92" width="3.82" height="0.97"/><path class="cls-15" d="M16,79.75H15.9a1.12,1.12,0,0,1-1.12-1.12h0v-5h2.36v5A1.14,1.14,0,0,1,16,79.75Z"/><rect class="cls-22" x="14.05" y="76.92" width="3.82" height="0.97"/><path class="cls-17" d="M110.63,88.75l13,.4A1.23,1.23,0,0,0,124.9,88v-.19a1.24,1.24,0,0,0-1.24-1.23h0l-13,.41a.88.88,0,0,0-.85.89h0A.89.89,0,0,0,110.63,88.75Z"/><rect class="cls-15" x="110.06" y="81.89" width="7.13" height="3.41" rx="0.61"/><rect class="cls-23" x="110.54" y="82.44" width="6.19" height="2.33" rx="0.29"/><path class="cls-19" d="M138.66,94.64l-2.87-.32a2.12,2.12,0,0,1-1.91-2.1v-.5a2.11,2.11,0,0,1,1.91-2.1l2.87-.33Z"/><path class="cls-15" d="M138.89,94.89h.32a.77.77,0,0,0,.77-.76h0v-4.3a.77.77,0,0,0-.76-.77h-.33a.28.28,0,0,0-.28.27h0V94.6A.29.29,0,0,0,138.89,94.89Z"/></svg>