<svg id="धागा" xmlns="http://www.w3.org/2000/svg" xmlns:xlink="http://www.w3.org/1999/xlink" viewBox="0 0 150 160"><defs><style>.cls-1,.cls-3{fill:#fff;}.cls-1,.cls-5{stroke:#fff;stroke-miterlimit:10;stroke-width:5px;}.cls-2,.cls-5{fill:none;}.cls-4{clip-path:url(#clip-path);}.cls-6{fill:#a87c4f;}.cls-7{fill:#8e6138;}.cls-8{fill:#ef8b8f;}.cls-9{fill:#404041;}.cls-10{fill:#d86878;}.cls-11{clip-path:url(#clip-path-2);}</style><clipPath id="clip-path"><path class="cls-1" d="M105.87,115.35s-11.28,5.72-33.93,5.83-29.74-5.5-29.74-5.5l-.39-75,63.68-.33Z"/></clipPath><clipPath id="clip-path-2"><path class="cls-2" d="M105.87,115.35s-11.28,5.72-33.93,5.83-29.74-5.5-29.74-5.5l-.39-75,63.68-.33Z"/></clipPath></defs><path class="cls-1" d="M113.3,113.05l-.33,1.26-2,0c-5.6-4.49-20.51-7.64-38-7.55-16.1.09-30,2.89-36.42,6.88l-3.7,0-.09,2.87c-.06.26,0,1.91,0,2.18,0,6.44,18.11,11.57,40.38,11.46s40.3-5.44,40.27-11.88A42.31,42.31,0,0,0,113.3,113.05Z"/><path class="cls-1" d="M113.33,113.16c0,6.45-18,11.77-40.26,11.88s-40.35-5-40.39-11.46,18-11.77,40.27-11.88S113.3,106.72,113.33,113.16Z"/><path class="cls-1" d="M105.87,115.35s-11.28,5.72-33.93,5.83-29.74-5.5-29.74-5.5l-.39-75,63.68-.33Z"/><path class="cls-1" d="M113.94,41.26l-.32,1.26-2.06,0C106,38,91.06,34.87,73.55,35c-16.11.08-30,2.89-36.43,6.87l-3.7,0-.08,2.86c-.06.27-.05,1.91-.05,2.18,0,6.44,18.11,11.58,40.38,11.46s40.3-5.43,40.26-11.88A40.39,40.39,0,0,0,113.94,41.26Z"/><path class="cls-1" d="M114,41.38c0,6.44-18,11.76-40.26,11.88s-40.36-5-40.39-11.47S51.33,30,73.6,29.91,114,34.93,114,41.38Z"/><path class="cls-1" d="M84.27,41.53c0,1.7-4.74,3.1-10.6,3.13s-10.62-1.32-10.63-3,4.74-3.1,10.6-3.13S84.26,39.83,84.27,41.53Z"/><path class="cls-1" d="M123.3,99.46c-6.43-.06-12.9-1.82-19.21-3.55C98.93,94.5,93.6,93.05,88.5,92.62l.1-1.16c5.2.44,10.59,1.91,15.8,3.33,8.37,2.29,17,4.65,25.34,2.9C133,97,140.85,94.6,142.49,87.36c.73-3.21-.69-5-2.12-5.53s-3.75,0-5.19,2.63l-1-.56c1.78-3.24,4.61-3.93,6.62-3.16s3.68,3.19,2.85,6.88c-1.79,7.9-10.14,10.47-13.65,11.21A30.79,30.79,0,0,1,123.3,99.46Z"/><path class="cls-3" d="M105.87,115.35s-11.28,5.72-33.93,5.83-29.74-5.5-29.74-5.5l-.39-75,63.68-.33Z"/><g class="cls-4"><path class="cls-1" d="M70,62.72a221.87,221.87,0,0,1-28.32-2.19l.16-1.15c45.56,6.27,65-2.89,65.15-3l.51,1C107.31,57.52,95.79,63,70,62.72Z"/><path class="cls-1" d="M69.93,66.6a221.87,221.87,0,0,1-28.32-2.19l.16-1.15c45.55,6.27,64.95-2.89,65.14-3l.52,1C107.28,61.4,95.76,66.83,69.93,66.6Z"/><path class="cls-1" d="M69.65,97.64a221.87,221.87,0,0,1-28.32-2.19l.16-1.15c45.55,6.27,64.95-2.89,65.14-3l.52,1.05C107,92.44,95.48,97.88,69.65,97.64Z"/><path class="cls-1" d="M69.5,114.33a221.87,221.87,0,0,1-28.32-2.19l.16-1.15c45.49,6.26,65-2.89,65.14-3l.52,1C106.85,109.12,95.33,114.56,69.5,114.33Z"/><path class="cls-1" d="M69.53,110.45a221.73,221.73,0,0,1-28.31-2.19l.15-1.15c45.49,6.26,65-2.89,65.15-3l.51,1C106.88,105.24,95.36,110.68,69.53,110.45Z"/><path class="cls-1" d="M69.69,93.37a221.87,221.87,0,0,1-28.32-2.19L41.53,90c45.48,6.26,65-2.88,65.14-3l.51,1C107,88.17,95.52,93.61,69.69,93.37Z"/><path class="cls-1" d="M69.89,70.48a221.73,221.73,0,0,1-28.31-2.19l.15-1.15c45.56,6.27,65-2.89,65.15-3l.51,1C107.24,65.28,95.73,70.71,69.89,70.48Z"/><path class="cls-1" d="M69.84,75.91a221.73,221.73,0,0,1-28.31-2.19l.15-1.15c45.49,6.26,65-2.89,65.15-3l.51,1C107.19,70.71,95.67,76.15,69.84,75.91Z"/><path class="cls-1" d="M69.73,80.07A226,226,0,0,1,41,77.86l.16-1.16C86.63,83,107.38,74,107.58,73.86l.48,1.06C107.91,75,95.73,80.3,69.73,80.07Z"/><path class="cls-1" d="M70.54,84.07a221.86,221.86,0,0,1-28.31-2.19l.16-1.15c45.48,6.26,65-2.89,65.14-3l.51,1C107.9,78.86,96.38,84.3,70.54,84.07Z"/><path class="cls-1" d="M84,84.53c-10.52-.09-24.86-1.48-43.3-5.92L41,77.48C85.7,88.23,105.92,81,106.12,81l.41,1.09C106.41,82.11,99.19,84.67,84,84.53Z"/><path class="cls-1" d="M84.6,107.05c-10.51-.1-24.85-1.49-43.3-5.93l.27-1.13c44.65,10.74,64.93,3.57,65.12,3.49l.41,1.09C107,104.62,99.76,107.18,84.6,107.05Z"/><path class="cls-1" d="M83.6,88.8c-10.51-.1-24.85-1.49-43.3-5.93l.27-1.13c44.71,10.75,64.93,3.57,65.12,3.49l.41,1.09C106,86.37,98.76,88.94,83.6,88.8Z"/><path class="cls-1" d="M83.56,93.07c-10.51-.1-24.85-1.49-43.3-5.93L40.54,86c44.7,10.75,64.92,3.57,65.12,3.49l.4,1.09C105.94,90.64,98.73,93.2,83.56,93.07Z"/><path class="cls-1" d="M46.48,75.86c-1.51,0-3,0-4.62-.09l0-1.16c45.91,1.22,64.25-10,64.43-10.13l.62,1C106.76,65.58,89.41,76.24,46.48,75.86Z"/><path class="cls-1" d="M46.23,103c-1.5,0-3,0-4.61-.08l0-1.17c45.9,1.21,64.24-10,64.42-10.12l.62,1C106.52,92.74,89.17,103.41,46.23,103Z"/></g><path class="cls-5" d="M105.87,115.35s-11.28,5.72-33.93,5.83-29.74-5.5-29.74-5.5l-.39-75,63.68-.33Z"/><path class="cls-6" d="M113.3,113.05l-.33,1.26-2,0c-5.6-4.49-20.51-7.64-38-7.55-16.1.09-30,2.89-36.42,6.88l-3.7,0-.09,2.87c-.06.26,0,1.91,0,2.18,0,6.44,18.11,11.57,40.38,11.46s40.3-5.44,40.27-11.88A42.31,42.31,0,0,0,113.3,113.05Z"/><path class="cls-7" d="M113.33,113.16c0,6.45-18,11.77-40.26,11.88s-40.35-5-40.39-11.46,18-11.77,40.27-11.88S113.3,106.72,113.33,113.16Z"/><path class="cls-8" d="M105.87,115.35s-11.28,5.72-33.93,5.83-29.74-5.5-29.74-5.5l-.39-75,63.68-.33Z"/><path class="cls-6" d="M113.94,41.26l-.32,1.26-2.06,0C106,38,91.06,34.87,73.55,35c-16.11.08-30,2.89-36.43,6.87l-3.7,0-.08,2.86c-.06.27-.05,1.91-.05,2.18,0,6.44,18.11,11.58,40.38,11.46s40.3-5.43,40.26-11.88A40.39,40.39,0,0,0,113.94,41.26Z"/><path class="cls-7" d="M114,41.38c0,6.44-18,11.76-40.26,11.88s-40.36-5-40.39-11.47S51.33,30,73.6,29.91,114,34.93,114,41.38Z"/><path class="cls-9" d="M84.27,41.53c0,1.7-4.74,3.1-10.6,3.13s-10.62-1.32-10.63-3,4.74-3.1,10.6-3.13S84.26,39.83,84.27,41.53Z"/><path class="cls-10" d="M123.3,99.46c-6.43-.06-12.9-1.82-19.21-3.55C98.93,94.5,93.6,93.05,88.5,92.62l.1-1.16c5.2.44,10.59,1.91,15.8,3.33,8.37,2.29,17,4.65,25.34,2.9C133,97,140.85,94.6,142.49,87.36c.73-3.21-.69-5-2.12-5.53s-3.75,0-5.19,2.63l-1-.56c1.78-3.24,4.61-3.93,6.62-3.16s3.68,3.19,2.85,6.88c-1.79,7.9-10.14,10.47-13.65,11.21A30.79,30.79,0,0,1,123.3,99.46Z"/><g class="cls-11"><path class="cls-10" d="M70,62.72a221.87,221.87,0,0,1-28.32-2.19l.16-1.15c45.56,6.27,65-2.89,65.15-3l.51,1C107.31,57.52,95.79,63,70,62.72Z"/><path class="cls-10" d="M69.93,66.6a221.87,221.87,0,0,1-28.32-2.19l.16-1.15c45.55,6.27,64.95-2.89,65.14-3l.52,1C107.28,61.4,95.76,66.83,69.93,66.6Z"/><path class="cls-10" d="M69.65,97.64a221.87,221.87,0,0,1-28.32-2.19l.16-1.15c45.55,6.27,64.95-2.89,65.14-3l.52,1.05C107,92.44,95.48,97.88,69.65,97.64Z"/><path class="cls-10" d="M69.5,114.33a221.87,221.87,0,0,1-28.32-2.19l.16-1.15c45.49,6.26,65-2.89,65.14-3l.52,1C106.85,109.12,95.33,114.56,69.5,114.33Z"/><path class="cls-10" d="M69.53,110.45a221.73,221.73,0,0,1-28.31-2.19l.15-1.15c45.49,6.26,65-2.89,65.15-3l.51,1C106.88,105.24,95.36,110.68,69.53,110.45Z"/><path class="cls-10" d="M69.69,93.37a221.87,221.87,0,0,1-28.32-2.19L41.53,90c45.48,6.26,65-2.88,65.14-3l.51,1C107,88.17,95.52,93.61,69.69,93.37Z"/><path class="cls-10" d="M69.89,70.48a221.73,221.73,0,0,1-28.31-2.19l.15-1.15c45.56,6.27,65-2.89,65.15-3l.51,1C107.24,65.28,95.73,70.71,69.89,70.48Z"/><path class="cls-10" d="M69.84,75.91a221.73,221.73,0,0,1-28.31-2.19l.15-1.15c45.49,6.26,65-2.89,65.15-3l.51,1C107.19,70.71,95.67,76.15,69.84,75.91Z"/><path class="cls-10" d="M69.73,80.07A226,226,0,0,1,41,77.86l.16-1.16C86.63,83,107.38,74,107.58,73.86l.48,1.06C107.91,75,95.73,80.3,69.73,80.07Z"/><path class="cls-10" d="M70.54,84.07a221.86,221.86,0,0,1-28.31-2.19l.16-1.15c45.48,6.26,65-2.89,65.14-3l.51,1C107.9,78.86,96.38,84.3,70.54,84.07Z"/><path class="cls-10" d="M84,84.53c-10.52-.09-24.86-1.48-43.3-5.92L41,77.48C85.7,88.23,105.92,81,106.12,81l.41,1.09C106.41,82.11,99.19,84.67,84,84.53Z"/><path class="cls-10" d="M84.6,107.05c-10.51-.1-24.85-1.49-43.3-5.93l.27-1.13c44.65,10.74,64.93,3.57,65.12,3.49l.41,1.09C107,104.62,99.76,107.18,84.6,107.05Z"/><path class="cls-10" d="M83.6,88.8c-10.51-.1-24.85-1.49-43.3-5.93l.27-1.13c44.71,10.75,64.93,3.57,65.12,3.49l.41,1.09C106,86.37,98.76,88.94,83.6,88.8Z"/><path class="cls-10" d="M83.56,93.07c-10.51-.1-24.85-1.49-43.3-5.93L40.54,86c44.7,10.75,64.92,3.57,65.12,3.49l.4,1.09C105.94,90.64,98.73,93.2,83.56,93.07Z"/><path class="cls-10" d="M46.48,75.86c-1.51,0-3,0-4.62-.09l0-1.16c45.91,1.22,64.25-10,64.43-10.13l.62,1C106.76,65.58,89.41,76.24,46.48,75.86Z"/><path class="cls-10" d="M46.23,103c-1.5,0-3,0-4.61-.08l0-1.17c45.9,1.21,64.24-10,64.42-10.12l.62,1C106.52,92.74,89.17,103.41,46.23,103Z"/></g></svg>