<svg xmlns="http://www.w3.org/2000/svg" viewBox="0 0 150 160"><defs><style>.cls-1{isolation:isolate;}.cls-2,.cls-4{fill:#fff;}.cls-2{stroke:#fff;stroke-miterlimit:10;stroke-width:5px;}.cls-3{fill:#e4ddd7;}.cls-5{fill:#8bc34a;}.cls-6{fill:#ffc107;}.cls-7{fill:#03a9f4;}.cls-8{fill:#263238;opacity:0.2;mix-blend-mode:multiply;}</style></defs><g class="cls-1"><g id="नक्शा"><polygon class="cls-2" points="54.25 100.39 55.3 92.77 55.48 91.44 56.26 85.75 56.42 84.55 56.86 81.32 56.96 80.61 57.33 77.83 57.42 77.16 57.73 74.87 57.87 73.84 58.23 71.21 58.36 70.25 58.9 66.24 58.99 65.59 59.57 61.28 59.67 60.52 32.91 51.88 31.37 51.38 31.05 52.08 10.89 93.39 10.19 94.76 12.6 95.55 49.83 110.28 53.32 107.17 54.25 100.39"/><polygon class="cls-2" points="139.81 108.81 139.11 107.05 118.89 57.18 118.57 56.4 116.97 56.11 89.7 51.19 89.39 51.19 59.77 60.37 59.67 61.12 59.08 65.4 58.99 66.04 58.44 70.03 58.31 71 57.95 73.61 57.8 74.64 57.49 76.92 57.4 77.6 57.02 80.38 56.92 81.09 56.48 84.32 56.31 85.53 55.52 91.25 55.34 92.59 54.29 100.28 53.35 107.14 53.13 109.6 95.84 95.53 95.84 95.51 137.33 108.05 139.81 108.81"/><polygon class="cls-3" points="38.89 98.8 38.37 102.31 52.24 106.82 52.31 105.79 38.89 98.8"/><path class="cls-3" d="M32.6,52.58,26.53,66.07l1.87-.17c1.05-.08,2.11-.14,3.15-.17l3.39-12.4Z"/><polygon class="cls-3" points="33.3 85 38.4 87.55 39.58 80.32 35.67 79.05 33.3 85"/><path class="cls-3" d="M43.66,66.36c1.21.17,2.41.38,3.62.62L34.92,60.33l-1.37,5.36A65.3,65.3,0,0,1,43.66,66.36Z"/><path class="cls-3" d="M42.14,76.72l1.09.12,4.79.53,1.48.16.17-1.86.23-3.36A48.7,48.7,0,0,0,43,71.15Z"/><path class="cls-3" d="M56.28,65.61l2.71,0,.58-4.31-3-1Z"/><path class="cls-3" d="M56.27,66.26h0l-.14,3.15q1.13.39,2.25.84l.54-4H56.27Z"/><polygon class="cls-3" points="36.1 101.58 36.74 97.69 26.56 92.51 25.09 98 36.1 101.58"/><polygon class="cls-3" points="54.9 62.09 55.03 59.82 36.57 53.86 35.49 58.1 54.9 62.09"/><polygon class="cls-3" points="14.08 94.43 13.47 93.76 13.27 94.17 14.08 94.43"/><polygon class="cls-3" points="14.8 91.01 22.65 90.54 16.51 87.47 14.8 91.01"/><path class="cls-3" d="M35.35,58.64l-.27,1.09,14.35,7.72c1.7.4,3.38.87,5.06,1.41h0l.36-6.22Z"/><path class="cls-3" d="M49.45,90.87l-5-3-3.1-5.58-.92,6.28,6.92,3.5A4.74,4.74,0,0,1,49.45,90.87Z"/><path class="cls-3" d="M55.78,76.56l1.64.6.31-2.29c-.61-.26-1.22-.5-1.84-.73Z"/><path class="cls-3" d="M46.42,93.77a3.19,3.19,0,0,1,.16-.55L40.2,90,39.13,97.2l13.28,6.89.16-2.66C48.59,99.93,45.85,96.53,46.42,93.77Z"/><path class="cls-3" d="M53.55,84.87,41.81,81.05l3.6,6.42,5.3,3.17a9.28,9.28,0,0,1,2.49.13Z"/><polygon class="cls-3" points="29.09 82.91 32.06 84.38 34.42 78.65 30.53 77.38 29.09 82.91"/><polygon class="cls-3" points="55.43 84.22 56.42 84.55 56.86 81.32 55.58 80.97 55.43 84.22"/><path class="cls-3" d="M55.11,91.3l.37.14.78-5.69-.88-.29Z"/><path class="cls-3" d="M23.37,72.93l-2.72,5.83,6.4,3.14,2.89-10.35A56.58,56.58,0,0,0,23.37,72.93Z"/><path class="cls-3" d="M49.43,78.27c-3.08-.34-6-.67-7.4-.8l-.33,2.29,7.37,2.4Z"/><polygon class="cls-3" points="14.28 92.08 14.05 92.56 16.5 95.21 22.69 97.22 24.34 91.44 14.28 92.08"/><path class="cls-3" d="M53.91,78.75l-3.33-.36-.34,4.15,3.38,1.1Z"/><path class="cls-3" d="M53.66,73.36c-.89-.28-1.78-.55-2.68-.78l-.2,3.4-.13,1.67L54,78l.26-4.46Z"/><path class="cls-3" d="M39.77,79.13,41.09,71a53.17,53.17,0,0,0-8.53.21l-.44,0-1.29,5Z"/><path class="cls-4" d="M10.89,93.39l-.7,1.37,2.41.79L53.11,108.7l.21-1.53-1.07-.35h0l-13.88-4.51.52-3.51,13.42,7,.1-1.7L39.13,97.2,40.2,90l6.38,3.24a3.31,3.31,0,0,1,.75-1.16l-6.92-3.5.92-6.28,3.1,5.58,5,3a7.2,7.2,0,0,1,1.26-.23l-5.3-3.17-3.6-6.42-2.23-.73L38.4,87.55,33.3,85l2.37-6-1.25-.4-2.36,5.73-3-1.47-.35,1.33L38.17,89,37,96.11,27,91l-.4,1.5,10.18,5.18-.64,3.88L25.1,98h0l-2.41-.78h0l-6.19-2-2.45-2.65.23-.48,10.06-.64.44-1.53-7.62-3.8L20.08,80l6.59,3.25.38-1.32-6.4-3.14,2.72-5.83a56.58,56.58,0,0,1,6.57-1.38c.7-.1,1.43-.2,2.18-.28l.44,0A53.17,53.17,0,0,1,41.09,71l-1.32,8.12,1.93.63L42,77.47c1.35.13,4.32.46,7.4.8l-.36,3.89,1.17.38.34-4.15,3.33.36L54,78l-3.31-.36L50.78,76l.2-3.4c.9.23,1.79.5,2.68.78l.56.19c.56.19,1.11.38,1.67.59s1.23.47,1.84.73l.14-1c-1.34-.55-2.69-1-4-1.48a53.13,53.13,0,0,0-22.18-2.31,57.64,57.64,0,0,0-7.5,1.2l1.78-3.86c1.06-.14,2.18-.27,3.35-.36a63.85,63.85,0,0,1,14.65.38,61.38,61.38,0,0,1,10.4,2.4h0c1.3.42,2.6.89,3.9,1.4l.13-1q-1.12-.45-2.25-.84l-1.61-.55h0c-1.68-.54-3.36-1-5.06-1.41L35.08,59.73l-.16.6L47.28,67c-1.21-.24-2.41-.45-3.62-.62a65.3,65.3,0,0,0-10.11-.67c-.66,0-1.33,0-2,0-1,0-2.1.09-3.15.17l-1.87.17L32.6,52.58l2.34.75,1.63.53,18.46,6,1.49.48,3,1,.1-.76L32.91,51.88l-1.54-.49-.32.69Zm3.19,1-.81-.26.2-.41ZM14.8,91l1.71-3.54,6.14,3.07ZM49.67,75.67l-.17,1.86L48,77.37l-4.79-.53-1.09-.12L43,71.15a48.7,48.7,0,0,1,6.95,1.16Z"/><polygon class="cls-5" points="55.62 80.24 56.96 80.61 57.33 77.83 55.75 77.26 55.62 80.24"/><polygon class="cls-5" points="37 96.11 38.17 88.96 28.74 84.24 26.95 91.01 37 96.11"/><polygon class="cls-5" points="20.08 79.97 17.16 86.11 24.78 89.91 26.68 83.22 20.08 79.97"/><polygon class="cls-4" points="55.58 80.97 56.86 81.32 56.96 80.61 55.62 80.24 55.58 80.97"/><polygon class="cls-4" points="55.75 77.26 57.33 77.83 57.42 77.16 55.78 76.56 55.75 77.26"/><path class="cls-4" d="M56.25,66.26H58.9l.09-.65-2.71,0Z"/><polygon class="cls-4" points="35.35 58.64 54.86 62.64 54.9 62.09 35.49 58.1 35.35 58.64"/><path class="cls-6" d="M35.49,58.1l1.08-4.24-1.63-.53-3.39,12.4c.67,0,1.34,0,2,0l1.37-5.36.16-.6.27-1.09Z"/><path class="cls-6" d="M55.58,81l0-.73.14-3,0-.7.11-2.42c-.56-.21-1.11-.4-1.67-.59L54,78l-.05.74-.29,4.89-3.38-1.1-1.17-.38-7.37-2.4-1.93-.63-8.94-2.9,1.29-5c-.75.08-1.48.18-2.18.28L27.05,81.9l-.38,1.32-1.89,6.69-.44,1.53-1.65,5.78h0L25.1,98h0l1.46-5.49L27,91l1.78-6.77.35-1.33,1.44-5.53,3.89,1.27,1.25.4,3.91,1.27,2.23.73,11.74,3.82-.35,5.9a9.28,9.28,0,0,0-2.49-.13,7.2,7.2,0,0,0-1.26.23,4.74,4.74,0,0,0-2.12,1.19,3.31,3.31,0,0,0-.75,1.16,3.19,3.19,0,0,0-.16.55c-.57,2.76,2.17,6.16,6.15,7.66l-.16,2.66-.1,1.7-.06,1h0l1.07.35.93-6.78a8.49,8.49,0,0,1-.93-.24c-3.1-1-5.3-3.6-4.9-5.73s3.09-2.93,6-2a8.26,8.26,0,0,1,.87.34l.18-1.33-.37-.14.27-5.84.88.29.16-1.2-1-.32Z"/><path class="cls-6" d="M56.28,65.61l.24-5.31L55,59.82l-.13,2.27,0,.55-.36,6.22,1.61.55.14-3.15Z"/><path class="cls-7" d="M54.33,69.81h0a61.38,61.38,0,0,0-10.4-2.4A63.85,63.85,0,0,0,29.28,67c-1.17.09-2.29.22-3.35.36l-1.78,3.86a57.64,57.64,0,0,1,7.5-1.2,53.13,53.13,0,0,1,22.18,2.31c1.35.43,2.7.93,4,1.48l.36-2.63C56.93,70.7,55.63,70.23,54.33,69.81Z"/><path class="cls-5" d="M54.43,92.43c-2.92-.94-5.62-.08-6,2s1.8,4.72,4.9,5.73a8.49,8.49,0,0,0,.93.24l1-7.62A8.26,8.26,0,0,0,54.43,92.43Z"/><polygon class="cls-3" points="96.44 91.86 95.16 91.28 95.55 94.06 96.28 94.27 96.44 91.86"/><path class="cls-3" d="M98.94,86l-.28,5.49,11.77,5.23-2.35-7.25q-3.27-1.07-6.56-2.37C100.63,86.71,99.77,86.34,98.94,86Z"/><polygon class="cls-3" points="102.17 71.32 101.6 69.57 96.72 69.34 102.17 71.32"/><polygon class="cls-3" points="102.95 73.72 102.41 72.05 94.73 69.24 91.97 69.11 92.23 70.92 92.29 71.17 102.95 73.72"/><polygon class="cls-3" points="110.98 98.4 98.59 92.82 98.49 94.92 111.07 98.65 110.98 98.4"/><polygon class="cls-3" points="113.21 70.11 117.91 79.28 120.53 79.91 117.69 70.31 113.21 70.11"/><polygon class="cls-3" points="90.85 56.74 90.19 56.73 91.82 68.05 97.52 68.32 90.85 56.74"/><path class="cls-3" d="M109.54,57.26l8.9,7.16,1.86.1.25.64-1.37-.07L121.66,68l1,2.58-1.45-.07,3.78,6,1.94,5-6.82-11-1.29,0,3,9.86L127,81.47l.51,1.29-8.9-2.17,2.81,5.51c.6,0,1.19.06,1.76.06a21.59,21.59,0,0,0,5.44-.57l.66,1.69L131,91.69l.66,1.69c-.62,0-1.29.05-2,.05-1.48,0-3-.09-4.64-.25l3.55,7,5-1.85.53,1.37-4.89,1.82,1.51,3,5.94,1.78L117.28,56.9h0l.22.55Z"/><polygon class="cls-3" points="92.47 71.86 92.82 73.26 103.65 75.85 103.19 74.45 92.47 71.86"/><polygon class="cls-3" points="97.17 56.07 96.2 53.13 89.5 51.93 89.56 52.35 94.61 56 97.17 56.07"/><polygon class="cls-3" points="89.73 53.55 90.06 55.88 93.03 55.96 89.73 53.55"/><polygon class="cls-3" points="97.76 53.41 98.68 56.11 115.21 56.53 97.76 53.41"/><polygon class="cls-3" points="110.62 68.91 100.51 61.44 102.95 68.57 110.62 68.91"/><path class="cls-3" d="M93.63,76.48a25.56,25.56,0,0,0,8.63,5.13c1.24.47,2.47.9,3.69,1.3L104,77.05,93.11,74.39Z"/><path class="cls-3" d="M117.74,92.05c-1.65-.34-3.36-.76-5.07-1.23l-2.38-.69,2.58,7.64,8.7,3.9,5.14-.92-3.85-7.82C121.2,92.71,119.49,92.42,117.74,92.05Z"/><polygon class="cls-3" points="95.83 56.89 97.93 58.41 97.45 56.93 95.83 56.89"/><path class="cls-3" d="M108.56,57.23h-.22c-.48.46-1.48,1.4-2.51,2.34-1.63,1.5-2.42,2.2-2.83,2.53l2.3,1.67,12.06.61Z"/><polygon class="cls-3" points="103.32 69.65 105.59 76.32 112.2 77.91 107.77 69.86 103.32 69.65"/><polygon class="cls-3" points="113.49 78.22 115.85 78.78 111.48 70.03 108.84 69.91 113.49 78.22"/><polygon class="cls-3" points="101.24 68.49 98.43 59.91 94.24 56.84 91.78 56.77 98.56 68.36 101.24 68.49"/><polygon class="cls-3" points="124.17 102.56 128.19 103.77 127.32 102 124.17 102.56"/><path class="cls-3" d="M99,57l1,2.92,2.18,1.59c.93-.77,3.07-2.72,4.77-4.29Z"/><path class="cls-4" d="M118.89,57.18l-.32-.78-1.6-.29L89.4,51.24l.1.69,6.7,1.2,1,2.94,1.52,0-.92-2.7,17.45,3.12,2.07.37h0l19.38,49.41-5.94-1.78h0l-2.53-.76h0l-4-1.21,3.14-.56-.61-1.25-5.14.92-8.7-3.9-2.58-7.64,2.38.69c1.71.47,3.42.89,5.07,1.23s3.46.66,5.12.88c.72.1,1.43.18,2.13.25,1.61.16,3.16.24,4.64.25.71,0,1.38,0,2-.05L131,91.69c-.82.06-1.73.1-2.75.1a56.56,56.56,0,0,1-11.15-1.27c-1.56-.32-3.16-.7-4.79-1.14a103.46,103.46,0,0,1-10.59-3.53,44.15,44.15,0,0,1-7.89-4l.26,1.74.24-.07c.84.49,1.7,1,2.59,1.43l-.36,5.54-1.59-.7.22,1.47,1.28.58-.16,2.41-.73-.21.21,1.42,41.57,12.57,2.48.76-.7-1.76Zm-8.46,39.5L98.66,91.45,98.94,86c.83.38,1.69.75,2.58,1.1q3.28,1.31,6.56,2.37ZM98.59,92.82,111,98.4l.08.25L98.49,94.92Z"/><path class="cls-5" d="M96.89,85c-.89-.46-1.75-.94-2.59-1.43l-.24.07.88,6.2,1.59.7Z"/><path class="cls-5" d="M106,77.52l2,6.06c1,.29,2,.57,2.92.81A56.65,56.65,0,0,0,119.4,86l-2.91-5.87Z"/><polygon class="cls-5" points="118.13 65.03 106.2 64.42 112.44 69 121.87 69.41 118.13 65.03"/><polygon class="cls-4" points="120.14 70.42 126.95 81.41 125.01 76.46 121.23 70.47 122.67 70.54 121.66 67.95 119.18 65.09 120.55 65.16 120.3 64.52 118.44 64.42 109.54 57.26 108.56 57.23 117.36 64.37 105.3 63.76 106.2 64.42 118.13 65.03 121.87 69.41 112.44 69 112.75 69.23 112.84 69.38 113.21 70.11 117.69 70.31 120.53 79.91 121.84 80.23 118.84 70.37 120.14 70.42"/><polygon class="cls-4" points="97.45 56.93 97.93 58.41 99.98 59.89 98.98 56.98 97.45 56.93"/><polygon class="cls-4" points="134.1 99.72 133.57 98.35 128.54 100.2 129.21 101.54 134.1 99.72"/><path class="cls-4" d="M102.41,72.05l.55,1.67L92.29,71.17l.18.69,10.72,2.59.46,1.4,1.94.47-2.27-6.67,4.45.21,4.43,8,1.29.31-4.65-8.3,2.64.12-.38-.76-.48-.36L103,68.57l-2.44-7.13-2.08-1.53,2.81,8.58-2.68-.12-6.78-11.6-.93,0,6.67,11.58-5.7-.27L92,69.11l2.76.13Zm-.24-.73-5.45-2,4.88.23Z"/><path class="cls-4" d="M108.34,57.22l-1.41,0c-1.7,1.57-3.84,3.52-4.77,4.29l.84.61c.41-.33,1.2-1,2.83-2.53C106.86,58.62,107.86,57.68,108.34,57.22Z"/><path class="cls-6" d="M128.54,100.2l-3.55-7c-.7-.07-1.41-.15-2.13-.25l3.85,7.82.61,1.25.87,1.77h0l2.53.76h0l-1.51-3Z"/><path class="cls-6" d="M93.11,74.39,104,77.05l2,.47,10.48,2.56L119.4,86c.68.07,1.34.12,2,.15l-2.81-5.51,8.9,2.17L127,81.47l-5.13-1.24-1.31-.32-2.62-.63-4.7-9.17-.37-.73-.09-.15-.31-.24-6.24-4.56-.9-.67L103,62.09l-.84-.61L100,59.89l-2-1.48-2.09-1.52,1.61,0L99,57l8,.22,1.41,0h.22l1,0,8,.19-.22-.55-2.07-.37-16.53-.42-1.52,0L94.61,56l-5-3.64.17,1.19L93,56l-3-.08.13.85h.66l.93,0,2.46.07,4.19,3.07,2.08,1.53,10.11,7.47.48.36.38.76,4.37,8.75-2.36-.57-1.29-.31-6.61-1.58-1.94-.47L92.82,73.26l-.35-1.4-.18-.69-.06-.25.71,4.9.69.66Z"/><path class="cls-7" d="M112.28,89.38c1.63.44,3.23.82,4.79,1.14a56.56,56.56,0,0,0,11.15,1.27c1,0,1.93,0,2.75-.1l-1.72-4.41a25.85,25.85,0,0,1-4.82.38,53.77,53.77,0,0,1-13.09-1.93,87.78,87.78,0,0,1-9.23-3,29.65,29.65,0,0,1-8.91-5.08l.6,4.2a44.15,44.15,0,0,0,7.89,4A103.46,103.46,0,0,0,112.28,89.38Z"/><path class="cls-4" d="M102.11,82.75a87.78,87.78,0,0,0,9.23,3,53.77,53.77,0,0,0,13.09,1.93,25.85,25.85,0,0,0,4.82-.38l-.66-1.69a21.59,21.59,0,0,1-5.44.57c-.57,0-1.16,0-1.76-.06s-1.31-.08-2-.15A56.65,56.65,0,0,1,111,84.39c-1-.24-1.93-.52-2.92-.81l-2-6.06-2-.47L106,82.91c-1.22-.4-2.45-.83-3.69-1.3a25.56,25.56,0,0,1-8.63-5.13l-.69-.66.26,1.85A29.65,29.65,0,0,0,102.11,82.75Z"/><polygon class="cls-3" points="83.62 97.8 95.64 94.1 95.23 91.32 82.96 93.11 83.62 97.8"/><path class="cls-3" d="M67.31,68.33l.14-.91-2.73,1.29C65.61,68.56,66.47,68.43,67.31,68.33Z"/><polygon class="cls-3" points="79.06 80.56 78.81 78.6 66.99 82.24 66.5 85.59 79.06 80.56"/><polygon class="cls-3" points="92.27 70.92 92.01 69.11 91.79 69.21 92.27 70.92"/><polygon class="cls-3" points="89.55 52.31 89.49 51.89 88.73 52.12 89.55 52.31"/><path class="cls-3" d="M79.91,87.32c-.69-.11-1.36-.24-2-.36-2.51-.46-4.84-.89-6.82-.4a15.57,15.57,0,0,0-5,2l-.82,5.62L80.49,92Z"/><path class="cls-3" d="M68.91,58.26l-9.24,2.86-.59,4.28,9.59-5.63Z"/><polygon class="cls-3" points="91.51 68.21 91.85 68.05 90.19 56.69 88.51 57.49 91.51 68.21"/><polygon class="cls-3" points="88.28 56.69 90.07 55.84 89.73 53.51 87.22 52.91 88.28 56.69"/><path class="cls-3" d="M87.86,82.3a23.47,23.47,0,0,1-7-4.06L82,86.59a14.12,14.12,0,0,0,4.36-.07,15,15,0,0,0,6.71-3.19A21.17,21.17,0,0,1,87.86,82.3Z"/><path class="cls-3" d="M71.21,85.72c2.35-.58,4.82-.14,7.49.34l1.07.19-.62-5L66.38,86.42l-.17,1.23a18,18,0,0,1,3.68-1.56C70.3,86,70.74,85.84,71.21,85.72Z"/><path class="cls-3" d="M66.52,73.28a48.25,48.25,0,0,0-6.77.93c-.65.13-1.3.28-1.94.43l-.32,2.28,8.83-2.42Z"/><path class="cls-3" d="M67.61,66.4l1-6-5.83,3.43L59,66l-.55,4c1-.24,1.93-.47,2.9-.67Z"/><polygon class="cls-3" points="65.77 78 56.92 81.09 56.48 84.32 65.19 81.64 65.77 78"/><path class="cls-3" d="M61.86,94.16a4.28,4.28,0,0,1-.1.59l1.38-.2L65,82.86l-8.69,2.67-.79,5.72C59.31,90.37,62.09,91.55,61.86,94.16Z"/><polygon class="cls-3" points="57.86 105.75 54.52 106.2 54.49 106.79 57.86 105.75"/><path class="cls-3" d="M54.71,101.53l-.13,3,7.13-1L62.9,96l-1.8.27A14.09,14.09,0,0,1,54.71,101.53Z"/><path class="cls-3" d="M68.29,73.23,67.16,81l12.37-3.8A16.64,16.64,0,0,0,68.29,73.23Z"/><path class="cls-3" d="M90,70.11,86.49,71.8c.64.41,1.26.83,1.88,1.26l1.46,1,1.08-.33Z"/><polygon class="cls-3" points="81.31 98.52 80.67 93.44 65.04 95.72 63.95 103.28 67.42 102.8 81.31 98.52"/><polygon class="cls-3" points="82.02 63.26 88.22 63.47 86.96 58.67 82.02 63.26"/><polygon class="cls-3" points="81.07 63.22 86 58.67 76.67 63.07 81.07 63.22"/><path class="cls-3" d="M69,68.14a36.21,36.21,0,0,1,6.8-.07l4.53-4.19-5-.18-6.08,2.87Z"/><path class="cls-3" d="M91.06,74.84l.16.09,0-.13Z"/><path class="cls-4" d="M95.84,95.53l-.2-1.43-12,3.7L83,93.11l12.27-1.79L95,89.84,82.75,91.65l-.58-4.05a14.57,14.57,0,0,0,4.06-.18,17.32,17.32,0,0,0,7.89-3.78l-.25-1.75c-5.67-.46-8.79-2.83-11.7-5-4.37-3.31-8.56-6.48-22-3.75-.76.15-1.52.32-2.27.5l-.14,1c.64-.15,1.29-.3,1.94-.43a48.25,48.25,0,0,1,6.77-.93l-.2,1.22-8.83,2.42-.09.68,8.82-2.42-.34,2.1L57,80.38l-.1.71L65.77,78l-.58,3.64L65,82.86,63.14,94.55l-1.38.2a5.87,5.87,0,0,1-.66,1.55L62.9,96l-1.19,7.56-7.13,1-.06,1.64,3.34-.45-3.37,1h0l-1.14.35-.22,1.56ZM66.38,86.42,79.15,81.3l.62,5-1.07-.19c-2.67-.48-5.14-.92-7.49-.34-.47.12-.91.24-1.32.37a18,18,0,0,0-3.68,1.56Zm20,.1a14.12,14.12,0,0,1-4.36.07l-1.19-8.35a23.47,23.47,0,0,0,7,4.06,21.17,21.17,0,0,0,5.24,1A15,15,0,0,1,86.39,86.52ZM67.16,81l1.13-7.8a16.64,16.64,0,0,1,11.24,4l.9.69.17.13-1.79.55.25,2-12.56,5L67,82.24Zm-1.09,7.58a15.57,15.57,0,0,1,5-2c2-.49,4.31-.06,6.82.4.67.12,1.34.25,2,.36L80.49,92,65.25,94.23Zm-1,7.11,15.63-2.28.64,5.08L67.42,102.8l-3.48.48Z"/><path class="cls-5" d="M81.31,63.92l-4.58,4.25a23.16,23.16,0,0,1,2.45.42,21.31,21.31,0,0,1,6.28,2.56l4.23-2.06-1.28-4.91Z"/><polygon class="cls-5" points="66.22 75.18 57.4 77.6 57.02 80.38 65.88 77.28 66.22 75.18"/><path class="cls-5" d="M86.23,87.42a14.57,14.57,0,0,1-4.06.18l.58,4.05L95,89.84l-.9-6.2A17.32,17.32,0,0,1,86.23,87.42Z"/><polygon class="cls-5" points="85.5 53.12 70.54 57.76 69.41 65.56 86.64 57.45 85.5 53.12"/><polygon class="cls-4" points="91.79 69.21 92.01 69.11 91.85 68.05 91.51 68.21 91.79 69.21"/><polygon class="cls-6" points="65.19 81.64 56.48 84.32 56.31 85.53 65 82.86 65.19 81.64"/><path class="cls-6" d="M80.6,78.05l-.17-.13-.9-.69L67.16,81,67,82.24,78.81,78.6Z"/><path class="cls-4" d="M68.57,60.41l-1,6,1.8-.84,1.13-7.81,15-4.63.54-.17,2.68-.83.76-.23-.1-.7L59.77,60.37l-.1.75,9.24-2.86-.24,1.51L59.08,65.4,59,66l3.75-2.2Z"/><path class="cls-6" d="M86.05,53l-.54.17,1.13,4.33L69.41,65.56l-1.8.84-6.27,3,.53-.12c1-.2,1.93-.38,2.85-.53l2.73-1.29,1.81-.85,6.08-2.87,1.33-.63L86,58.67l.86-.4.1.4,1.26,4.8.19.71,1.28,4.91.27,1,1,3.62-1.08.33q.61.41,1.23.78l.13,0,0,.13a18.44,18.44,0,0,0,1.77.91l-.72-4.92-.48-1.71-.28-1-3-10.72,1.68-.8-.12-.85-1.79.84-1.06-3.77,2.51.6-.18-1.2-.82-.19Z"/><path class="cls-6" d="M54.49,106.79l0-.59.06-1.64.13-3A14.09,14.09,0,0,0,61.1,96.3a5.87,5.87,0,0,0,.66-1.55,4.28,4.28,0,0,0,.1-.59c.23-2.61-2.55-3.79-6.34-2.91l-.18,1.34c2.68-.55,4.59.34,4.39,2.23s-2.55,4.25-5.44,5.46l-.94,6.86,1.14-.35Z"/><path class="cls-7" d="M82.17,76.86c2.91,2.2,6,4.57,11.7,5l-.61-4.2a21.48,21.48,0,0,1-6.58-3.6,23.88,23.88,0,0,0-8.8-4.4c-4.29-1-9.65-.81-16.45.59q-1.57.33-3.12.72L58,73.61c.75-.18,1.51-.35,2.27-.5C73.61,70.38,77.8,73.55,82.17,76.86Z"/><path class="cls-4" d="M61.43,70.28c6.8-1.4,12.16-1.6,16.45-.59a23.88,23.88,0,0,1,8.8,4.4,21.48,21.48,0,0,0,6.58,3.6L93,75.84a18.44,18.44,0,0,1-1.77-.91l-.16-.09q-.61-.37-1.23-.78l-1.46-1c-.62-.43-1.24-.85-1.88-1.26L90,70.11l-.27-1-4.23,2.06a21.31,21.31,0,0,0-6.28-2.56,23.16,23.16,0,0,0-2.45-.42l4.58-4.25,7.1.26-.19-.71L82,63.26,87,58.67l-.1-.4-.86.4-4.93,4.55-4.4-.15-1.33.63,5,.18-4.53,4.19a36.21,36.21,0,0,0-6.8.07l.23-1.57-1.81.85-.14.91c-.84.1-1.7.23-2.59.38s-1.87.33-2.85.53l-.53.12c-1,.2-1.93.43-2.9.67l-.13,1Q59.86,70.61,61.43,70.28Z"/><path class="cls-5" d="M59.73,94.82c.2-1.89-1.71-2.78-4.39-2.23l-1.05,7.69C57.18,99.07,59.53,96.75,59.73,94.82Z"/><polygon class="cls-8" points="89.39 51.19 59.77 60.37 53.13 108.7 95.84 95.53 89.39 51.19"/></g></g></svg>