<svg id="दाँत" xmlns="http://www.w3.org/2000/svg" viewBox="0 0 150 160"><defs><style>.cls-1,.cls-2{fill:#fff;}.cls-1{stroke:#fff;stroke-miterlimit:10;stroke-width:5px;}.cls-3{fill:#231f20;}.cls-4{fill:#deeced;}.cls-5{fill:#b9e1ea;}</style></defs><path class="cls-1" d="M130.19,55.58c2.63-4.88-5.85-8.36-2.71-2.06-3.1-.78,5.67,5.73-1.09,12.72-2.91,1.27-4.89-16.32-14.18-14.43h.1C87.88,63.84,68.87,53,77.6,88.92c-5.53-6.83-.35-22.1-11.43-24.64l.1,0c-15.9,4-48.14-6.56-40.86,21.76-1.81,3-7.1,12.13-2,13.58,1.79-.33,1.43-2.15.87-3.37,2.84,1.63-2.67-5.23,1.53-8.52,5.85,10.27.11,28.33,13.55,29.31,7.72-3.13,10.83-26.45,20.53-6.46l-.08-.1C76.74,132.58,68.38,83.2,76.05,88.8c2.69,2.9-.41,10.61,4.17,10.88,1.73-.57,1.12-2.33.4-3.46,2.94.86-3-5.63-1.72-8.42,5.39-5.53,8.26,27.77,20.65,21.83,6.67-4.83,3.81-28.28,18.14-11.51,0,0,0,0,0,0,18.64,13.4,6.83-18,7.68-28.79A14.58,14.58,0,0,0,130.19,55.58Z"/><path class="cls-1" d="M23.19,57.24C21.58,58.1,27.82,65,27.82,65,27.34,64.13,25.17,56.19,23.19,57.24Z"/><path class="cls-1" d="M33.8,55.87c-1,.23,1.42,5,1.42,5C35.09,60.29,35.05,55.58,33.8,55.87Z"/><path class="cls-1" d="M48.78,55.16c-.93-.47-2.08,4.73-2.08,4.73C46.94,59.38,49.93,55.73,48.78,55.16Z"/><path class="cls-1" d="M18,65.11c-.82.64,3.37,3.92,3.37,3.92C21,68.59,19,64.32,18,65.11Z"/><path class="cls-1" d="M42.41,51.48c-1.79-.32-1.17,9-1.17,9C41.4,59.46,44.62,51.88,42.41,51.48Z"/><path class="cls-1" d="M10.74,69.48C9.9,71.1,19,73.24,19,73.24,18.07,72.8,11.77,67.49,10.74,69.48Z"/><path class="cls-1" d="M104.32,39.82c-1.79.35,2.13,8.78,2.13,8.78C106.25,47.64,106.52,39.4,104.32,39.82Z"/><path class="cls-1" d="M111.41,42.64c-1,.11.81,5.11.81,5.11C112.15,47.18,112.69,42.5,111.41,42.64Z"/><path class="cls-1" d="M125.32,44.72c-.77-.7-3.27,4-3.27,4C122.42,48.29,126.28,45.59,125.32,44.72Z"/><path class="cls-1" d="M97.52,45.37c-1,.37,2.06,4.74,2.06,4.74C99.37,49.58,98.72,44.92,97.52,45.37Z"/><path class="cls-1" d="M119.53,40.12c-1.8-.28-1,9-1,9C118.7,48.13,121.75,40.47,119.53,40.12Z"/><path class="cls-1" d="M96.08,52c-.67-.73-4.63-7.95-6.31-6.46C88.4,46.75,96.08,52,96.08,52Z"/><path class="cls-2" d="M67.9,62.15A6.76,6.76,0,0,0,65.45,62a1.15,1.15,0,0,0-.58.13,1,1,0,0,0-.48.31,1.14,1.14,0,0,0-.31.48,1.06,1.06,0,0,0-.13.58,1.5,1.5,0,0,0,.44,1.06l.3.24a1.57,1.57,0,0,0,.76.2,5.78,5.78,0,0,1,1.44,0l-.4,0a4.34,4.34,0,0,1,.61.11,1.56,1.56,0,0,0,1.16-.15,1.18,1.18,0,0,0,.42-.38A1.26,1.26,0,0,0,69,64a1.61,1.61,0,0,0-.15-1.16,1.55,1.55,0,0,0-.9-.69Z"/><path class="cls-2" d="M70.51,66.24l2.54,2.34a1.53,1.53,0,0,0,1.81.24,1.58,1.58,0,0,0,.69-1.7c-.24-1.57-1.74-2.45-3.08-3a27.09,27.09,0,0,0-4.41-1.27,1.54,1.54,0,0,0-1.85,1,1.52,1.52,0,0,0,1.05,1.84,33.14,33.14,0,0,1,4,1.13l.37.14c.19.07-.06,0-.11-.05l.16.07a4,4,0,0,1,.67.38c.12.08.14.19-.06,0l.13.11.12.12c.15.14-.07-.05-.08-.11s.24.45.13.18,0,0,0,0,0,.14,0,.21l2.51-1.46-2.54-2.34a1.5,1.5,0,0,0-2.12,2.12Z"/><path class="cls-3" d="M124,70.12a8,8,0,0,0,3.38-2.86,16.56,16.56,0,0,0,2.11-3.76,15.08,15.08,0,0,0,1-4.29,10.25,10.25,0,0,0-.46-4.47c-.3-.82-1.54-.25-1.24.57a9.18,9.18,0,0,1,.35,3.76,14.43,14.43,0,0,1-.85,3.84,15.13,15.13,0,0,1-1.81,3.33,6.93,6.93,0,0,1-3,2.64c-.82.32-.25,1.55.57,1.24Z"/><path class="cls-3" d="M127.59,50c-1.67.71-.93,2.41-.11,3.48-.4-.21-1-.47-1.29,0s.34.92.71,1.11a4,4,0,0,1,2.19,2.09l.71,1.94c-.07-2,.76-3.75.62-5.68C130.31,51.62,129.45,49.24,127.59,50Z"/><path class="cls-3" d="M23.37,94.5a24.6,24.6,0,0,1,2-6,8.56,8.56,0,0,1,4.73-4c.82-.3.47-1.62-.36-1.32a10,10,0,0,0-5.42,4.4,23.92,23.92,0,0,0-2.29,6.58.68.68,0,0,0,1.32.35Z"/><path class="cls-3" d="M23.43,99.66c1.79-.33,1.43-2.15.87-3.37.34.29.86.67,1.27.24s-.14-1-.46-1.24a4,4,0,0,1-1.68-2.51l-.27-2c-.35,1.91-1.56,3.49-1.84,5.41C21.12,97.53,21.44,100,23.43,99.66Z"/><path class="cls-3" d="M80.18,94a24.25,24.25,0,0,1-1.29-6.23A8.55,8.55,0,0,1,81,82c.56-.67-.4-1.64-1-1a10,10,0,0,0-2.47,6.53,23.51,23.51,0,0,0,1.33,6.83c.25.84,1.57.49,1.32-.35Z"/><path class="cls-3" d="M80.22,99.68c1.73-.57,1.12-2.33.4-3.46.37.24.94.55,1.28.06s-.26-.94-.62-1.16a4,4,0,0,1-2-2.26l-.55-2c-.08,1.95-1.06,3.67-1.07,5.61C77.64,97.88,78.3,100.32,80.22,99.68Z"/><path class="cls-3" d="M77.78,94.92a24.46,24.46,0,0,0-1.73-6.12,8.52,8.52,0,0,0-4.53-4.21c-.8-.33-.39-1.63.43-1.3A10.08,10.08,0,0,1,77.15,88a23.79,23.79,0,0,1,2,6.68c.17.86-1.17,1.15-1.33.29Z"/><path class="cls-4" d="M39.38,117.08c-3.35,0-6.3-.53-8.3-6-1.37-3.8-1.11-8.34-1.63-11.26s-4.29-11.76-4.94-19S28.07,66,35.31,65.33s10.24,1.72,14,1.75c4.9,0,8.54-3.08,15.12-3s9.87,7,10.39,14.51c.47,6.6-3.18,16.48-3,19.79.3,4.84.43,17.18-5,17.36-6.29.2-8-8.71-9.84-10.41-3.43-3.12-6.25-3.32-9.08-.29C44.63,108.56,44.68,117.05,39.38,117.08Z"/><path class="cls-2" d="M39.49,68.75a6.83,6.83,0,0,0-6.31,1.73A10.27,10.27,0,0,0,29.88,74c-1.34,2.56-2.2,6-.66,8.74,1.29,2.26,4.18,2.16,5-.37.74-2.23-.07-4.56,1.28-6.67s3.24-2.09,5.09-3.4C42.67,70.86,41.46,69.19,39.49,68.75Z"/><path class="cls-5" d="M74.85,78.64c-.48-6.8-3.33-13.2-8.68-14.36C76,67.93,73.41,83.58,69,90.15c-1.21,1.82-3.15,2.24-5.55,4-2.22,1.67,3.42,1.62,5.36,6.7,1.16,3,2.71,10.57-1.56,12a7.39,7.39,0,0,1-4.69.06,6.5,6.5,0,0,1-2.75-2.47c1.47,2.71,3.54,5.39,7,5.28,5.43-.18,5.31-12.52,5-17.36C71.67,95.13,75.31,85.25,74.85,78.64Z"/><path class="cls-3" d="M51.82,90.44h-.21a8.72,8.72,0,0,1-6.5-2.26,6.2,6.2,0,0,1-1.55-2.35.42.42,0,0,1,.35-.5.49.49,0,0,1,.59.29c0,.17,1.33,4.08,7.1,4A6.86,6.86,0,0,0,56.2,88a4.41,4.41,0,0,0,1.64-3.28.49.49,0,0,1,1,0,5.25,5.25,0,0,1-1.92,3.88A7.85,7.85,0,0,1,51.82,90.44Z"/><path class="cls-3" d="M66.67,71.24c-.84-.37-2.51-.54-3.32.18-.34.29-.34.78.24,1s1-.25,2.68.22c.57.16,1.27.54,1.44-.27S67.19,71.47,66.67,71.24Z"/><path class="cls-3" d="M34.3,72.91c.72-.56,2.3-1.14,3.26-.65a.57.57,0,0,1,0,1c-.61.43-1,0-2.54.88-.52.3-1.11.84-1.47.1S33.85,73.26,34.3,72.91Z"/><path class="cls-3" d="M41.59,81.38A3.47,3.47,0,0,0,37.82,79a4.51,4.51,0,0,0-1.74.56l-1.51-1.41a.46.46,0,0,0-.64,0,.45.45,0,0,0,0,.64l1.39,1.31a3.36,3.36,0,0,0-.69,1L33,80.42a.46.46,0,0,0-.34.85l1.79.71a.43.43,0,0,0,.4.43.16.16,0,0,0,.07,0,.43.43,0,0,0,.43-.4,2.67,2.67,0,0,1,2.62-2.12,2.57,2.57,0,0,1,2.79,1.76.46.46,0,0,0,.57.3A.45.45,0,0,0,41.59,81.38Z"/><path class="cls-3" d="M60.06,80.36a3.46,3.46,0,0,1,3.47-2.81,4.5,4.5,0,0,1,1.8.36l1.33-1.58a.46.46,0,0,1,.64,0,.45.45,0,0,1,.06.64l-1.24,1.46a3.38,3.38,0,0,1,.81.91l1.6-.86a.45.45,0,0,1,.61.18.46.46,0,0,1-.18.62l-1.7.91a.45.45,0,0,1-.35.48h-.06a.46.46,0,0,1-.48-.35,2.66,2.66,0,0,0-2.84-1.82A2.6,2.6,0,0,0,61,80.53a.45.45,0,0,1-.53.36A.44.44,0,0,1,60.06,80.36Z"/><path class="cls-3" d="M58.6,83.63a2,2,0,0,1,.85.71c.15.25.53,0,.38-.25a2.54,2.54,0,0,0-1-.87c-.26-.12-.48.28-.21.41Z"/><path class="cls-3" d="M43,84.66a2.87,2.87,0,0,0-.78,1.1c-.12.27.28.49.4.22a2.61,2.61,0,0,1,.62-.94c.23-.18,0-.56-.24-.38Z"/><path class="cls-4" d="M99.55,109.63c-3.24.86-6.23,1.07-9.55-3.77-2.28-3.34-3.16-7.8-4.39-10.5s-7.11-10.31-9.54-17.1S75.81,63,82.65,60.56s10.35-.91,14-1.83c4.75-1.19,7.5-5.12,13.89-6.68,6.24-1.53,11.31,4.32,13.69,11.43,2.11,6.28,1,16.76,2.07,19.91,1.51,4.61,4.72,16.53-.5,18.06-6,1.78-9.89-6.43-12.13-7.61-4.1-2.16-6.88-1.65-8.87,2C102.51,100.06,104.68,108.28,99.55,109.63Z"/><path class="cls-2" d="M87.55,62.82a6.79,6.79,0,0,0-5.67,3.26,10.11,10.11,0,0,0-2.31,4.24c-.66,2.81-.62,6.38,1.55,8.62,1.81,1.87,4.59,1,4.77-1.61.17-2.35-1.21-4.41-.42-6.79s2.6-2.83,4.07-4.57C91.16,64.06,89.57,62.75,87.55,62.82Z"/><path class="cls-5" d="M124.23,63.48c-2.16-6.46-6.55-11.89-12-11.67,10.41,1.07,11.85,16.81,9.25,24.26-.72,2.07-2.5,3-4.36,5.32-1.73,2.17,3.71.71,6.87,5.14,1.88,2.65,5.27,9.56,1.5,12a7.36,7.36,0,0,1-4.53,1.23,6.47,6.47,0,0,1-3.27-1.7c2.1,2.25,4.78,4.34,8.13,3.35,5.22-1.53,2-13.46.49-18.07C125.27,80.23,126.34,69.76,124.23,63.48Z"/><path class="cls-3" d="M104.92,80.72l-.2.06a8.76,8.76,0,0,1-6.86-.56,6,6,0,0,1-2.08-1.88.41.41,0,0,1,.21-.58.5.5,0,0,1,.64.13c.09.15,2.31,3.62,7.88,2.1a6.87,6.87,0,0,0,4-2.71,4.39,4.39,0,0,0,.77-3.59.46.46,0,0,1,.35-.53.45.45,0,0,1,.58.25,5.28,5.28,0,0,1-.88,4.24A7.86,7.86,0,0,1,104.92,80.72Z"/><path class="cls-3" d="M114.49,58.41c-.9-.14-2.57.11-3.17,1-.25.37-.13.84.48.92s.93-.49,2.65-.46c.6,0,1.37.2,1.33-.62S115.05,58.5,114.49,58.41Z"/><path class="cls-3" d="M83.57,68.15c.56-.73,1.94-1.69,3-1.45a.56.56,0,0,1,.28,1c-.48.57-1,.28-2.24,1.49-.42.41-.86,1.09-1.39.46S83.22,68.6,83.57,68.15Z"/><path class="cls-3" d="M92.75,74.51a3.47,3.47,0,0,0-4.25-1.37,4.53,4.53,0,0,0-1.55,1l-1.81-1a.46.46,0,0,0-.44.8l1.68.91A3.32,3.32,0,0,0,86,76l-1.81-.23a.46.46,0,1,0-.11.91l1.91.23a.43.43,0,0,0,.49.32h.07a.45.45,0,0,0,.32-.5,2.67,2.67,0,0,1,2-2.71A2.6,2.6,0,0,1,92,75a.45.45,0,0,0,.63.15A.46.46,0,0,0,92.75,74.51Z"/><path class="cls-3" d="M110.37,68.9A3.48,3.48,0,0,1,113,65.31a4.49,4.49,0,0,1,1.83-.1l.9-1.86a.45.45,0,0,1,.61-.21.46.46,0,0,1,.21.61l-.83,1.71a3.51,3.51,0,0,1,1,.68l1.34-1.23a.45.45,0,0,1,.64,0,.46.46,0,0,1,0,.64l-1.42,1.3a.44.44,0,0,1-.21.55l-.06,0a.47.47,0,0,1-.56-.22,2.64,2.64,0,0,0-3.2-1,2.58,2.58,0,0,0-2,2.64.45.45,0,0,1-.42.49A.47.47,0,0,1,110.37,68.9Z"/><path class="cls-3" d="M109.78,72.43a2.2,2.2,0,0,1,1,.47c.21.21.52-.12.31-.33a2.5,2.5,0,0,0-1.2-.58c-.29-.06-.4.38-.11.44Z"/><path class="cls-3" d="M94.91,77.34a2.89,2.89,0,0,0-.48,1.27c-.05.29.39.4.45.11a2.39,2.39,0,0,1,.36-1.07c.18-.22-.15-.54-.33-.31Z"/><path class="cls-4" d="M23.19,57.24C21.58,58.1,27.82,65,27.82,65,27.34,64.13,25.17,56.19,23.19,57.24Z"/><path class="cls-4" d="M33.8,55.87c-1,.23,1.42,5,1.42,5C35.09,60.29,35.05,55.58,33.8,55.87Z"/><path class="cls-4" d="M48.78,55.16c-.93-.47-2.08,4.73-2.08,4.73C46.94,59.38,49.93,55.73,48.78,55.16Z"/><path class="cls-4" d="M18,65.11c-.82.64,3.37,3.92,3.37,3.92C21,68.59,19,64.32,18,65.11Z"/><path class="cls-4" d="M42.41,51.48c-1.79-.32-1.17,9-1.17,9C41.4,59.46,44.62,51.88,42.41,51.48Z"/><path class="cls-4" d="M10.74,69.48C9.9,71.1,19,73.24,19,73.24,18.07,72.8,11.77,67.49,10.74,69.48Z"/><path class="cls-4" d="M104.32,39.82c-1.79.35,2.13,8.78,2.13,8.78C106.25,47.64,106.52,39.4,104.32,39.82Z"/><path class="cls-4" d="M111.41,42.64c-1,.11.81,5.11.81,5.11C112.15,47.18,112.69,42.5,111.41,42.64Z"/><path class="cls-4" d="M125.32,44.72c-.77-.7-3.27,4-3.27,4C122.42,48.29,126.28,45.59,125.32,44.72Z"/><path class="cls-4" d="M97.52,45.37c-1,.37,2.06,4.74,2.06,4.74C99.37,49.58,98.72,44.92,97.52,45.37Z"/><path class="cls-4" d="M119.53,40.12c-1.8-.28-1,9-1,9C118.7,48.13,121.75,40.47,119.53,40.12Z"/><path class="cls-4" d="M89.77,45.55C88.4,46.75,96.08,52,96.08,52,95.41,51.28,91.45,44.06,89.77,45.55Z"/></svg>