<svg id="कढ़ाई" xmlns="http://www.w3.org/2000/svg" viewBox="0 0 150 160"><defs><style>.cls-1{fill:#fff;}.cls-2{fill:#e2def0;}.cls-3{fill:#d0df92;}.cls-4{fill:#f094b0;}.cls-5{fill:#bee3ed;}.cls-6{fill:#74b957;}.cls-7{fill:#fad0cc;}</style></defs><path class="cls-1" d="M93.84,29.94h.47V20.6H81.78v1.28h-.57V19H68.77v2.86H60.55v6.71C-2.86,44.58,8.92,141.47,75,141,138.48,141.66,153.3,49.87,93.84,29.94Z"/><rect class="cls-2" x="62.55" y="23.88" width="23.9" height="2.77"/><rect class="cls-3" x="83.78" y="22.6" width="8.54" height="5.33"/><circle class="cls-1" cx="75" cy="83.86" r="50.34"/><path class="cls-4" d="M79.21,28.89V21H76.73V32.77h0v.78a50.34,50.34,0,1,1-3.5,0V21H70.77v7.87a55.14,55.14,0,1,0,8.44,0Z"/><path class="cls-5" d="M75,120.12a36.27,36.27,0,1,1,36.26-36.26A36.3,36.3,0,0,1,75,120.12Zm0-72a35.74,35.74,0,1,0,35.73,35.74A35.77,35.77,0,0,0,75,48.12Z"/><path class="cls-4" d="M82,46c-.7-.53-1.9-.32-2.68-.19l-.66.14a8.35,8.35,0,0,0,1.29-1.86c.52-1.08.21-2.21-1.15-2-.87.12-1.57,1.12-2,1.76-.13.18-.25.38-.37.57a8.31,8.31,0,0,0-.4-2.23c-.4-1.13-1.42-1.71-2.25-.62a3.67,3.67,0,0,0-.19,2.67c0,.23.08.45.13.67a8.27,8.27,0,0,0-1.85-1.3c-1.08-.51-2.21-.2-2,1.16.11.86,1.11,1.57,1.75,2l.57.37a8.4,8.4,0,0,0-2.23.39c-1.12.41-1.71,1.42-.61,2.26.69.53,1.89.32,2.67.19.22,0,.44-.08.66-.14a8.58,8.58,0,0,0-1.29,1.86c-.52,1.08-.21,2.21,1.16,2,.86-.12,1.56-1.11,2-1.76.13-.18.25-.37.37-.57a8.8,8.8,0,0,0,.4,2.24c.4,1.12,1.42,1.7,2.25.61.53-.69.33-1.89.2-2.67,0-.22-.09-.44-.14-.66a8.54,8.54,0,0,0,1.85,1.29c1.08.51,2.21.2,2-1.16-.11-.86-1.11-1.57-1.75-2-.19-.14-.38-.25-.57-.37a8.8,8.8,0,0,0,2.23-.4C82.46,47.82,83,46.8,82,46Z"/><circle class="cls-1" cx="75.59" cy="47.86" r="1.54"/><path class="cls-6" d="M67.46,48.73s-8.11.92-8.37-2.66C59.09,46.07,60.67,43,67.46,48.73Z"/><path class="cls-6" d="M67.88,48.84S66.62,56.9,63.1,56.2C63.1,56.2,60.52,53.85,67.88,48.84Z"/><path class="cls-6" d="M60.44,50.88s-6.92,2.07-7.71-1C52.73,49.87,53.62,46.91,60.44,50.88Z"/><path class="cls-6" d="M60.83,50.91s.16,7.22-3,7.16C57.81,58.07,55.19,56.43,60.83,50.91Z"/><path class="cls-7" d="M53.12,52.15c-.87.11-1.57,1.11-2,1.75-.13.19-.25.38-.37.57a8.31,8.31,0,0,0-.4-2.23c-.4-1.12-1.42-1.7-2.25-.61-.53.69-.32,1.89-.19,2.67,0,.22.09.44.14.67a8.31,8.31,0,0,0-1.86-1.3c-1.08-.51-2.21-.21-2,1.16.11.86,1.11,1.57,1.75,2,.19.13.38.26.57.37a8.72,8.72,0,0,0-2.23.4c-1.12.4-1.7,1.42-.61,2.26.69.53,1.89.32,2.67.19l.67-.14a8.27,8.27,0,0,0-1.3,1.85c-.51,1.08-.2,2.22,1.16,2,.86-.12,1.57-1.12,2-1.76.13-.18.26-.37.37-.56a8.72,8.72,0,0,0,.4,2.22c.4,1.13,1.42,1.71,2.26.62.53-.69.32-1.9.19-2.68,0-.22-.09-.44-.14-.66a9,9,0,0,0,1.85,1.3c1.09.51,2.22.2,2-1.16-.12-.87-1.12-1.57-1.76-2-.18-.13-.37-.25-.56-.37a8.3,8.3,0,0,0,2.22-.4c1.13-.4,1.71-1.42.62-2.25-.69-.53-1.9-.32-2.68-.19L53,56a9,9,0,0,0,1.3-1.86C54.79,53.1,54.48,52,53.12,52.15Z"/><circle class="cls-1" cx="49.96" cy="57.98" r="1.54"/><path class="cls-6" d="M44.83,64.35s-5.08,6.38-7.8,4C37,68.38,36,65.07,44.83,64.35Z"/><path class="cls-6" d="M45.21,64.13S50,70.72,47,72.72C47,72.72,43.55,72.88,45.21,64.13Z"/><path class="cls-6" d="M41.39,70.83S38,77.19,35.22,75.57C35.22,75.57,33.76,72.85,41.39,70.83Z"/><path class="cls-6" d="M41.68,70.58s5.22,5,2.93,7.2C44.61,77.78,41.6,78.47,41.68,70.58Z"/><path class="cls-4" d="M37.11,76.91a3.67,3.67,0,0,0-.19,2.67c0,.22.08.44.13.66A8.54,8.54,0,0,0,35.2,79c-1.08-.51-2.21-.2-2,1.16.11.86,1.11,1.57,1.75,2l.58.37a8.4,8.4,0,0,0-2.24.39c-1.12.4-1.71,1.42-.61,2.26.69.53,1.89.32,2.67.19l.66-.14a8.35,8.35,0,0,0-1.29,1.86c-.51,1.08-.21,2.21,1.16,2,.86-.12,1.57-1.11,2-1.76.13-.18.25-.38.37-.57a8.72,8.72,0,0,0,.4,2.23c.4,1.13,1.42,1.71,2.26.62A3.77,3.77,0,0,0,41.09,87c0-.22-.09-.44-.14-.66a8.54,8.54,0,0,0,1.85,1.29c1.08.51,2.22.2,2-1.16-.11-.86-1.11-1.57-1.75-2-.18-.13-.38-.25-.57-.37a8.33,8.33,0,0,0,2.23-.39c1.13-.41,1.71-1.42.62-2.26-.7-.53-1.9-.32-2.68-.19-.22,0-.44.08-.66.14a9,9,0,0,0,1.3-1.86c.51-1.08.2-2.21-1.16-2-.87.12-1.57,1.11-2,1.76-.13.18-.25.37-.37.57a8.31,8.31,0,0,0-.4-2.23C39,76.4,37.94,75.82,37.11,76.91Z"/><circle class="cls-1" cx="39" cy="83.26" r="1.54"/><path class="cls-6" d="M39.88,91.4s.91,8.1-2.67,8.36C37.21,99.76,34.11,98.18,39.88,91.4Z"/><path class="cls-6" d="M40,91s8.06,1.27,7.36,4.79C47.34,95.76,45,98.33,40,91Z"/><path class="cls-6" d="M42,98.41s2.06,6.93-1,7.71C41,106.12,38.06,105.23,42,98.41Z"/><path class="cls-6" d="M42.05,98s7.23-.16,7.17,3C49.22,101.05,47.58,103.66,42.05,98Z"/><path class="cls-7" d="M43.29,105.74c.12.86,1.12,1.57,1.76,2,.18.13.37.26.56.37a8.72,8.72,0,0,0-2.22.4c-1.13.4-1.71,1.42-.62,2.26a3.8,3.8,0,0,0,2.68.19q.33-.06.66-.15a9.3,9.3,0,0,0-1.3,1.86c-.51,1.08-.2,2.22,1.16,2,.87-.11,1.57-1.11,2-1.75.13-.18.25-.37.37-.56a8.3,8.3,0,0,0,.4,2.22c.4,1.13,1.42,1.71,2.25.62.53-.69.32-1.9.19-2.68,0-.22-.09-.44-.14-.66a9,9,0,0,0,1.86,1.3c1.08.51,2.21.2,2-1.16-.11-.87-1.11-1.57-1.75-2l-.57-.37a8.31,8.31,0,0,0,2.23-.4c1.12-.4,1.7-1.42.61-2.25-.69-.53-1.89-.32-2.67-.19-.22,0-.44.09-.67.14a8.31,8.31,0,0,0,1.3-1.86c.51-1.08.2-2.21-1.16-2-.86.11-1.57,1.11-2,1.75-.13.19-.26.38-.37.57a8.72,8.72,0,0,0-.4-2.23c-.4-1.12-1.42-1.7-2.26-.61-.53.69-.32,1.89-.19,2.67,0,.22.09.44.14.67a8.27,8.27,0,0,0-1.85-1.3C44.25,104.07,43.11,104.37,43.29,105.74Z"/><circle class="cls-1" cx="49.13" cy="108.89" r="1.54"/><path class="cls-6" d="M55.5,114s6.37,5.09,4,7.81C59.53,121.83,56.21,122.9,55.5,114Z"/><path class="cls-6" d="M55.27,113.65s6.59-4.8,8.59-1.82C63.86,111.83,64,115.31,55.27,113.65Z"/><path class="cls-6" d="M62,117.46s6.35,3.44,4.73,6.18C66.71,123.64,64,125.09,62,117.46Z"/><path class="cls-6" d="M61.72,117.17s5-5.22,7.21-2.93C68.93,114.24,69.61,117.25,61.72,117.17Z"/><path class="cls-4" d="M68.05,121.75c.7.53,1.9.32,2.68.19l.66-.14a8.35,8.35,0,0,0-1.29,1.86c-.52,1.08-.21,2.21,1.15,2,.87-.12,1.57-1.12,2-1.76.13-.18.25-.38.37-.57a8.31,8.31,0,0,0,.4,2.23c.4,1.13,1.42,1.71,2.25.62a3.67,3.67,0,0,0,.19-2.67c0-.22-.08-.45-.13-.67a8.27,8.27,0,0,0,1.85,1.3c1.08.51,2.21.2,2-1.16-.11-.86-1.11-1.57-1.75-2l-.57-.37a8.4,8.4,0,0,0,2.23-.39c1.12-.41,1.71-1.42.61-2.26-.69-.53-1.89-.32-2.67-.19-.22,0-.44.08-.66.14a8.58,8.58,0,0,0,1.29-1.86c.52-1.08.21-2.21-1.16-2-.86.12-1.56,1.11-2,1.76-.13.18-.25.37-.37.57a8.64,8.64,0,0,0-.4-2.23c-.4-1.13-1.42-1.71-2.25-.62-.53.69-.33,1.89-.2,2.67,0,.22.09.44.14.66a8.54,8.54,0,0,0-1.85-1.29c-1.08-.51-2.21-.2-2,1.16.11.86,1.11,1.57,1.75,2a6.12,6.12,0,0,0,.57.37,8.8,8.8,0,0,0-2.23.4C67.54,119.89,67,120.91,68.05,121.75Z"/><circle class="cls-1" cx="74.41" cy="119.85" r="1.54"/><path class="cls-6" d="M82.54,119s8.11-.92,8.37,2.66C90.91,121.64,89.33,124.75,82.54,119Z"/><path class="cls-6" d="M82.12,118.87s1.26-8.06,4.78-7.36C86.9,111.51,89.48,113.86,82.12,118.87Z"/><path class="cls-6" d="M89.56,116.83s6.92-2.07,7.71,1C97.27,117.85,96.38,120.8,89.56,116.83Z"/><path class="cls-6" d="M89.17,116.8s-.16-7.22,3-7.16C92.19,109.64,94.81,111.28,89.17,116.8Z"/><path class="cls-7" d="M96.88,115.56c.87-.11,1.57-1.11,2-1.75.13-.19.25-.38.37-.57a8.31,8.31,0,0,0,.4,2.23c.4,1.12,1.42,1.7,2.25.61.53-.69.32-1.89.19-2.67,0-.22-.09-.44-.14-.67a8.31,8.31,0,0,0,1.86,1.3c1.08.51,2.21.21,2-1.16-.11-.86-1.11-1.57-1.75-2-.19-.13-.38-.26-.57-.37a8.72,8.72,0,0,0,2.23-.4c1.12-.4,1.7-1.42.61-2.26-.69-.53-1.89-.32-2.67-.19l-.67.14a8.27,8.27,0,0,0,1.3-1.85c.51-1.08.2-2.22-1.16-2-.86.11-1.57,1.11-2,1.75-.13.18-.26.37-.37.56a8.72,8.72,0,0,0-.4-2.22c-.4-1.13-1.42-1.71-2.26-.62-.53.69-.32,1.9-.19,2.68,0,.22.09.44.14.66a9,9,0,0,0-1.85-1.3c-1.09-.51-2.22-.2-2,1.16.12.87,1.12,1.57,1.76,2,.18.13.37.25.56.37a8.3,8.3,0,0,0-2.22.4c-1.13.4-1.71,1.42-.62,2.25.69.53,1.9.32,2.68.19.22,0,.44-.09.66-.14a9,9,0,0,0-1.3,1.86C95.21,114.61,95.52,115.74,96.88,115.56Z"/><circle class="cls-1" cx="100.04" cy="109.73" r="1.54"/><path class="cls-6" d="M105.17,103.36s5.08-6.38,7.8-4C113,99.33,114.05,102.64,105.17,103.36Z"/><path class="cls-6" d="M104.79,103.59S100,97,103,95C103,95,106.45,94.83,104.79,103.59Z"/><path class="cls-6" d="M108.61,96.88s3.44-6.36,6.17-4.74C114.78,92.14,116.24,94.86,108.61,96.88Z"/><path class="cls-6" d="M108.32,97.13s-5.22-5-2.93-7.2C105.39,89.93,108.4,89.24,108.32,97.13Z"/><path class="cls-4" d="M112.89,90.8a3.67,3.67,0,0,0,.19-2.67c0-.22-.08-.44-.13-.66a8.54,8.54,0,0,0,1.85,1.29c1.08.51,2.21.2,2-1.16-.11-.86-1.11-1.57-1.75-2-.19-.14-.38-.26-.58-.38a8.4,8.4,0,0,0,2.24-.39c1.12-.4,1.71-1.42.61-2.26-.69-.53-1.89-.32-2.67-.19l-.66.14a8.35,8.35,0,0,0,1.29-1.86c.51-1.08.21-2.21-1.16-2-.86.12-1.57,1.11-2,1.76-.13.18-.25.38-.37.57a8.72,8.72,0,0,0-.4-2.23c-.4-1.13-1.42-1.71-2.26-.62a3.77,3.77,0,0,0-.19,2.67c0,.22.09.45.14.66a8.54,8.54,0,0,0-1.85-1.29c-1.08-.51-2.22-.2-2,1.16.11.86,1.11,1.57,1.75,2,.18.13.38.25.57.37a8.33,8.33,0,0,0-2.23.39c-1.13.41-1.71,1.42-.62,2.26.7.53,1.9.32,2.68.19.22,0,.44-.08.66-.14a9,9,0,0,0-1.3,1.86c-.51,1.08-.2,2.21,1.16,2,.87-.12,1.57-1.11,2-1.76.13-.18.25-.37.37-.57a8.23,8.23,0,0,0,.4,2.23C111,91.31,112.06,91.89,112.89,90.8Z"/><circle class="cls-1" cx="111" cy="84.45" r="1.54"/><path class="cls-6" d="M110.12,76.32s-.91-8.11,2.67-8.37C112.79,68,115.89,69.53,110.12,76.32Z"/><path class="cls-6" d="M110,76.74S102,75.47,102.66,72C102.66,72,105,69.38,110,76.74Z"/><path class="cls-6" d="M108,69.3s-2.06-6.93,1-7.71C109,61.59,111.94,62.48,108,69.3Z"/><path class="cls-6" d="M108,69.68s-7.23.16-7.17-3C100.78,66.66,102.42,64.05,108,69.68Z"/><path class="cls-7" d="M106.71,62c-.12-.86-1.12-1.57-1.76-2-.18-.13-.37-.25-.56-.37a8.72,8.72,0,0,0,2.22-.4c1.13-.4,1.71-1.42.62-2.26a3.8,3.8,0,0,0-2.68-.19l-.66.15a9.3,9.3,0,0,0,1.3-1.86c.51-1.08.2-2.22-1.16-2-.87.11-1.57,1.11-2,1.75-.13.18-.25.37-.37.56a8.3,8.3,0,0,0-.4-2.22c-.4-1.13-1.42-1.71-2.25-.62-.53.69-.32,1.9-.19,2.68,0,.22.09.44.14.66a9,9,0,0,0-1.86-1.3c-1.08-.51-2.21-.2-2,1.16.11.87,1.11,1.57,1.75,2l.57.37a8.31,8.31,0,0,0-2.23.4c-1.12.4-1.7,1.42-.61,2.25.69.53,1.89.32,2.67.19.22,0,.44-.09.67-.14a8.31,8.31,0,0,0-1.3,1.86c-.51,1.08-.2,2.21,1.16,2,.86-.11,1.57-1.11,2-1.75.13-.19.26-.38.37-.57a8.72,8.72,0,0,0,.4,2.23c.4,1.12,1.42,1.7,2.26.61.53-.69.32-1.89.19-2.67,0-.22-.09-.44-.14-.67a8.27,8.27,0,0,0,1.85,1.3C105.75,63.64,106.89,63.34,106.71,62Z"/><circle class="cls-1" cx="100.87" cy="58.82" r="1.54"/><path class="cls-6" d="M94.5,53.69s-6.37-5.09-4-7.8C90.47,45.89,93.79,44.81,94.5,53.69Z"/><path class="cls-6" d="M94.73,54.06s-6.59,4.8-8.59,1.82C86.14,55.88,86,52.4,94.73,54.06Z"/><path class="cls-6" d="M88,50.25s-6.35-3.44-4.73-6.18C83.29,44.07,86,42.62,88,50.25Z"/><path class="cls-6" d="M88.28,50.54s-5,5.22-7.21,2.93C81.07,53.47,80.39,50.46,88.28,50.54Z"/></svg>