<svg id="शंख" xmlns="http://www.w3.org/2000/svg" viewBox="0 0 150 160"><defs><style>.cls-1{fill:#fff;stroke:#fff;stroke-miterlimit:10;stroke-width:5px;}.cls-2{fill:#fedcd1;}.cls-3{fill:#efb7a8;}.cls-4{opacity:0.35;}</style></defs><path class="cls-1" d="M133.14,70.1c0-3-.3-6.33-2.38-8.54-3.73-4-10.93-2.32-14.87-6.07-2-1.9-2.69-4.76-3.92-7.23-4.52-9-18.08-11.8-25.79-5.28a11.33,11.33,0,0,0-4.85-7.63h0l-.79-.55c-2.74-4.29-11.9-5.36-15.31-7.15-2.25-1.18-4.41-2.52-6.63-3.76h0c-.19-.16-.37-.32-.57-.47a4.37,4.37,0,0,0-.59-.45l-.64-.39-.32-.19-.35-.15L55.45,22l-.74-.21a3.82,3.82,0,0,0-.75-.14,23.09,23.09,0,0,0-2.33-.85,23.47,23.47,0,0,1-4.72-1.61c-3.3-1.84-4.93-5.85-8.21-7.73a3.29,3.29,0,0,0-1.91-.55,2.56,2.56,0,0,0-2,1.44,3.4,3.4,0,0,0-.54,1.47c-.21,1.8.78,3.57,1,5.35l.15.17a4,4,0,0,1-.32,1.79c-1,2.3-4.28,3-5.73,4.75-2.2,2.66-3,6.44-4.53,9.48-2,3.91-5.21,7.07-6.75,11.21s.9,9,1.32,13.41c-.14.35-.3.7-.43,1.06a26.48,26.48,0,0,0-1,3.54,23.56,23.56,0,0,0-.54,3.63.3.3,0,0,1,0-.1c-.14.93-.27,1.87-.35,2.81C14.72,96.94,34.49,123.12,60.19,128c9.75,1.86,20.8,1.32,28.25,7.88,4.56,4,7,11.89,10.72,12.91L99,149c1.34.38,2.86-.11,4.72-2a24.78,24.78,0,0,0,3.5-4.65c4.56-7.4,7.78-18.48,11.06-25.21C125.54,102.26,133,86.7,133.14,70.1Z"/><path class="cls-2" d="M19.43,61.89c.37-5-3.18-10.49-1.36-15.36,1.54-4.14,4.78-7.3,6.75-11.21,1.53-3,2.33-6.82,4.53-9.48,1.45-1.76,4.72-2.45,5.73-4.75,1.11-2.53-1-5-.67-7.53a2.92,2.92,0,0,1,2.38-2.69,3.29,3.29,0,0,1,1.91.55c3.28,1.88,4.91,5.89,8.21,7.73a23.47,23.47,0,0,0,4.72,1.61c4.93,1.49,9.12,4.53,13.63,6.9C69.61,30,83.31,31,81.12,39.17"/><path class="cls-2" d="M88.44,135.9c-7.45-6.56-18.5-6-28.25-7.88-25.7-4.9-45.47-31.08-43.14-57.14.47-5.32,1.86-10.78,5.35-14.81S31.89,49.83,36.78,52C40,45.62,45,38.26,52.12,39c1.59.16,3.15.74,4.73.58,2.22-.22,4-1.8,5.84-3.07,4-2.78,9.08-4.29,13.85-3.27s9,4.93,9.64,9.77c7.71-6.52,21.27-3.74,25.79,5.28,1.23,2.47,1.92,5.33,3.92,7.23,3.94,3.75,11.14,2.11,14.87,6.07,2.08,2.21,2.41,5.51,2.38,8.54-.16,16.6-7.6,32.16-14.87,47.08-4,8.28-8,23.14-14.43,29.64C96.82,153.9,94.62,141.33,88.44,135.9Z"/><path class="cls-3" d="M82.12,65.65C83,61,85,56.32,89,53.78c5.06-3.28,12.14-1.94,16.79,1.89s7.24,9.65,8.76,15.48a59.32,59.32,0,0,1,.18,29.27c-2.5,10.07-7.65,19.45-9.09,29.72-.72,5.12-.49,14.06-5.57,16.84-1.41-6.6-1-13.55-3-20.3-2-6.94-4.78-13.6-7.41-20.29C84.59,93.51,79.32,79.7,82.12,65.65Z"/><g class="cls-4"><path class="cls-3" d="M39.36,22.81a22.72,22.72,0,0,0,4.75,1.53c5,1.4,9.19,4.37,13.75,6.65,3.46,1.74,12.69,2.63,15.47,6.92a11.52,11.52,0,0,1,5.73,8,15.19,15.19,0,0,1,6.88-3.38,11.67,11.67,0,0,0-5.47-7.46c-2.7-4.34-11.91-5.4-15.33-7.2-4.52-2.37-8.7-5.41-13.64-6.9a24.13,24.13,0,0,1-4.72-1.62c-3.3-1.83-4.93-5.84-8.21-7.73a3.36,3.36,0,0,0-1.91-.54,2.92,2.92,0,0,0-2.38,2.69c-.21,1.8.78,3.57,1,5.35A15.14,15.14,0,0,0,39.36,22.81Z"/><path class="cls-3" d="M130.63,61.78c-3.72-4-10.93-2.32-14.87-6.07-2-1.9-2.69-4.76-3.92-7.23-4.3-8.59-16.79-11.51-24.62-6.16,6.86-.93,14.45,2.18,17.71,8.41,1.29,2.44,2,5.29,4.06,7.15,4,3.68,11.18,1.9,15,5.8,2.12,2.17,2.51,5.46,2.53,8.49.15,16.61-7,32.3-14,47.35-3.8,8.19-7.4,22.69-13.51,29.5,1.34.38,2.86-.11,4.72-2,6.45-6.5,10.4-21.36,14.43-29.64,7.28-14.92,14.71-30.48,14.87-47.08C133,67.29,132.71,64,130.63,61.78Z"/></g><path class="cls-3" d="M26.08,68.17a4.91,4.91,0,0,1,.72-3.9A5.29,5.29,0,0,1,30.49,62a7.41,7.41,0,0,1,4,.63,8.22,8.22,0,0,1,3,2.3c-1.31,0-2.48-.21-3.6-.31a13.26,13.26,0,0,0-3.08,0,5.19,5.19,0,0,0-2.52,1A10.56,10.56,0,0,0,26.08,68.17Z"/><path class="cls-3" d="M49.37,55.69a6.58,6.58,0,0,1,.13-4.11,6,6,0,0,1,1.11-1.93,5.27,5.27,0,0,1,1.89-1.43,5.85,5.85,0,0,1,2.3-.5A7,7,0,0,1,57,48.1a7.57,7.57,0,0,1,3.35,2.33c-1.38-.09-2.61-.29-3.76-.3a9.34,9.34,0,0,0-1.61.08,5,5,0,0,0-1.37.4,5.9,5.9,0,0,0-2.25,1.92A25.82,25.82,0,0,0,49.37,55.69Z"/><path class="cls-3" d="M72.27,46.43a4.73,4.73,0,0,1,1.94-4.38,4.31,4.31,0,0,1,1.71-.74,4.65,4.65,0,0,1,1.86,0,5.19,5.19,0,0,1,3.58,3.16c-1.09-.18-2-.44-2.81-.57a8.61,8.61,0,0,0-1.15-.13,4.37,4.37,0,0,0-1,.08,5.12,5.12,0,0,0-1.91.83C73.82,45.17,73.11,45.75,72.27,46.43Z"/><path class="cls-3" d="M17.38,68.17a23.56,23.56,0,0,1,.54-3.63A26.48,26.48,0,0,1,19,61a23,23,0,0,1,1.56-3.39,18.45,18.45,0,0,1,2.21-3.08,13,13,0,0,1,6.63-4,13.22,13.22,0,0,1,3.91-.33,13.72,13.72,0,0,1,1.93.2c.64.09,1.26.25,1.89.38L35.59,52a8.41,8.41,0,0,1,0-1c0-.33.06-.66.1-1a17.64,17.64,0,0,1,.39-1.92,14.5,14.5,0,0,1,1.57-3.62,12.7,12.7,0,0,1,2.58-3,13,13,0,0,1,3.4-2.08,16.17,16.17,0,0,1,3.75-1.07,17.73,17.73,0,0,1,1.91-.22c.63,0,1.27,0,1.9-.07a36.4,36.4,0,0,1,7.4,1l-1.27.6c.18-.32.33-.55.49-.8s.34-.5.52-.73a14.85,14.85,0,0,1,1.12-1.37,17.93,17.93,0,0,1,2.61-2.39,15.58,15.58,0,0,1,3-1.8,13.79,13.79,0,0,1,3.41-1,14.23,14.23,0,0,1,6.87.68,21.55,21.55,0,0,1,5.94,3.2A25.37,25.37,0,0,0,75.18,33a14.43,14.43,0,0,0-3.2-.38,12.69,12.69,0,0,0-6.07,1.43,14.14,14.14,0,0,0-2.59,1.74,17.24,17.24,0,0,0-2.19,2.25c-.33.41-.65.83-.94,1.26-.15.22-.29.44-.42.65s-.28.46-.37.64l-.39.76-.87-.16a36.15,36.15,0,0,0-6.92-.68c-.57,0-1.14,0-1.7.09s-1.12.11-1.67.22a13.38,13.38,0,0,0-3.16.92,11.23,11.23,0,0,0-2.75,1.65,10.05,10.05,0,0,0-2.09,2.41,11.59,11.59,0,0,0-1.32,3,13,13,0,0,0-.39,1.61c0,.27-.08.54-.11.81S38,51.75,38,52l0,1.52-1.47-.34c-.55-.13-1.1-.31-1.66-.41a16.13,16.13,0,0,0-1.68-.23,12.78,12.78,0,0,0-3.33.12,11.53,11.53,0,0,0-5.91,3,17.41,17.41,0,0,0-2.25,2.65,22.8,22.8,0,0,0-1.81,3.06A32.59,32.59,0,0,0,17.38,68.17Z"/><path class="cls-3" d="M24.82,35.32a13.62,13.62,0,0,1,1-1.87,18.87,18.87,0,0,1,4.37-4.82,11.78,11.78,0,0,1,4.09-2,10.32,10.32,0,0,1,2.37-.29,9.75,9.75,0,0,1,2.4.36l-1.48.57a6.48,6.48,0,0,1,.45-.67c.16-.2.31-.4.48-.59a9.91,9.91,0,0,1,1.06-1.09,9.57,9.57,0,0,1,2.62-1.66,7.32,7.32,0,0,1,3.14-.56c.26,0,.53,0,.79.06l.78.16a3.74,3.74,0,0,1,.74.23l.72.27-1.22.25a5.74,5.74,0,0,1,.69-.54c.23-.16.46-.29.7-.43s.47-.25.71-.37.5-.21.75-.29a8.26,8.26,0,0,1,3.14-.49,5.16,5.16,0,0,1,.79.07,5,5,0,0,1,.77.15l.74.21.71.29.35.15.32.19.64.39a4.37,4.37,0,0,1,.59.45c.2.15.38.31.57.47-.47-.17-.91-.36-1.36-.51l-.68-.19-.34-.09-.35-.06A7.81,7.81,0,0,0,53.22,23a7.71,7.71,0,0,0-2.46.79l-.56.32c-.18.12-.36.23-.53.36a6.12,6.12,0,0,0-.5.39,5.41,5.41,0,0,0-.41.39l-.43.47-.79-.22a6.67,6.67,0,0,0-2.22-.34h-.27a1.26,1.26,0,0,0-.27,0c-.18,0-.36,0-.53.08l-.52.15a4.55,4.55,0,0,0-.51.21,7.3,7.3,0,0,0-1.89,1.23,10.83,10.83,0,0,0-.83.83c-.13.15-.26.3-.38.46s-.24.32-.31.43l-.57.85-.92-.28a7.8,7.8,0,0,0-1.73-.34,8.3,8.3,0,0,0-1.79.09,11.88,11.88,0,0,0-3.57,1.31,22.61,22.61,0,0,0-3.33,2.28A37,37,0,0,0,24.82,35.32Z"/><path class="cls-3" d="M43.16,72.43a4.91,4.91,0,0,1,.72-3.9,5.27,5.27,0,0,1,3.69-2.24,7.31,7.31,0,0,1,4,.62,8.25,8.25,0,0,1,3,2.31c-1.31,0-2.48-.22-3.6-.32a13.84,13.84,0,0,0-3.08,0,5.19,5.19,0,0,0-2.52,1A10.76,10.76,0,0,0,43.16,72.43Z"/><path class="cls-3" d="M65.57,61.7a6.55,6.55,0,0,1,.14-4.1,6.18,6.18,0,0,1,1.1-1.94,5.47,5.47,0,0,1,1.89-1.43,5.88,5.88,0,0,1,2.3-.5,7,7,0,0,1,2.17.38,7.51,7.51,0,0,1,3.35,2.33c-1.37-.08-2.6-.29-3.75-.3a9.29,9.29,0,0,0-1.61.08,5.21,5.21,0,0,0-1.37.4,5.85,5.85,0,0,0-2.26,1.92A28.53,28.53,0,0,0,65.57,61.7Z"/><path class="cls-3" d="M52.73,117.43a4.9,4.9,0,0,1,.72-3.89,5.27,5.27,0,0,1,3.68-2.25,7.43,7.43,0,0,1,4,.63,8.19,8.19,0,0,1,3,2.3c-1.31,0-2.48-.21-3.6-.31a13.26,13.26,0,0,0-3.08,0,5.19,5.19,0,0,0-2.52,1A10.48,10.48,0,0,0,52.73,117.43Z"/><path class="cls-3" d="M69.18,122.25a4.91,4.91,0,0,1,.72-3.9,5.32,5.32,0,0,1,3.68-2.25,7.43,7.43,0,0,1,4,.63,8.33,8.33,0,0,1,3,2.3c-1.31,0-2.48-.21-3.6-.31a13.26,13.26,0,0,0-3.08,0,5.19,5.19,0,0,0-2.52,1A10.35,10.35,0,0,0,69.18,122.25Z"/></svg>