<svg id="Layer_1" data-name="Layer 1" xmlns="http://www.w3.org/2000/svg" viewBox="0 0 150 160"><defs><style>.cls-1,.cls-6{fill:#fff;}.cls-1{stroke:#fff;stroke-miterlimit:10;stroke-width:5px;}.cls-2{fill:#faaf40;}.cls-3{fill:#c82e3e;}.cls-4{opacity:0.1;}.cls-5{fill:#006684;}.cls-7{opacity:0.15;}.cls-8,.cls-9{fill:#bbbdbf;}.cls-9{opacity:0.5;isolation:isolate;}.cls-10{fill:#9544a3;}</style></defs><g id="नाव"><path class="cls-1" d="M141.47,62.18h0a4.46,4.46,0,0,0-.05-.82h0c-.06-1-.15-2.08-.29-3.12h-.21l-.22.09-.12.06-.27.11-.15.07-.26.11-.23.1-.34.14-.33.14-.46.19-.24.1-.47.2-.3.12-.66.28-.32.13-.65.27-.4.16-.54.22-.47.19-.74.3-.24.1h0c-4.65,1.87-11.21,4.41-19.08,7.18V65.09h5l-3.37-6-3.38-6H69l-6.75,12h5V82.37a255.75,255.75,0,0,1-30,5V82.55H29.74V57.06a.79.79,0,0,0-1.58,0V59c-6.22-3.6-12.44,5.2-18.66.51v9.77c6.22,4.69,12.44-4.11,18.66-.51V82.55H20.37v3.69h0v2.07a115.35,115.35,0,0,1-11.9-.59s1,2.08,2.37,4.86h0c.39.77.8,1.58,1.24,2.43h0l.41.79a20.57,20.57,0,0,0,18.22,11h83.9A20.63,20.63,0,0,0,133,95.52c.8-1.6,1.61-3.33,2.41-5.16h0l.15-.34.22-.52.09-.22h0A85.18,85.18,0,0,0,139.15,80h0l.27-1h0a61.63,61.63,0,0,0,1.67-8.41h0a9.24,9.24,0,0,1,.11-.92h0A49.33,49.33,0,0,0,141.47,62.18Z"/><rect class="cls-2" x="67.25" y="65.08" width="47.16" height="20.59"/><polygon class="cls-3" points="62.23 65.08 119.44 65.08 112.69 53.13 68.98 53.13 62.23 65.08"/><path class="cls-4" d="M112.69,53.13h-5.13l1.25,2.21a3.76,3.76,0,0,1-3.27,5.6h-41L62.2,65.09h57.21Z"/><rect class="cls-5" x="75" y="69.45" width="23.7" height="8.9" rx="1.1"/><polygon class="cls-6" points="87.92 78.35 90.27 78.35 96.94 69.45 94.59 69.45 87.92 78.35"/><polygon class="cls-6" points="77.67 78.35 82.38 78.35 89.06 69.45 84.34 69.45 77.67 78.35"/><rect class="cls-7" x="67.26" y="65.09" width="47.16" height="1.84"/><rect class="cls-8" x="20.37" y="82.55" width="16.92" height="5.77"/><path class="cls-9" d="M35.55,82.55v.36a3.33,3.33,0,0,1-3.33,3.33H20.37v2.08H37.3V82.55Z"/><path class="cls-2" d="M9.5,69.24c6.48,4.89,13-4.88,19.45,0V59.47c-6.48-4.88-13,4.89-19.45,0Z"/><path class="cls-8" d="M29,56.27h0a.81.81,0,0,0-.79.79V82.62h1.58V57.06A.81.81,0,0,0,29,56.27Z"/><path class="cls-10" d="M141.14,58.23c1.89,13.7-3.37,27.82-8.14,37.29a20.59,20.59,0,0,1-18.38,11.35H30.72a20.57,20.57,0,0,1-18.22-11c-2.23-4.26-4-8.11-4-8.11C61.74,93.26,141.14,58.23,141.14,58.23Z"/><path class="cls-7" d="M141.14,58.23s-2.78,1.23-7.65,3.19c-1.13,9.61-4.77,18.7-8.17,25.44a20.59,20.59,0,0,1-18.38,11.35H23A20.47,20.47,0,0,1,12.09,95l.41.79a20.57,20.57,0,0,0,18.22,11h83.9A20.61,20.61,0,0,0,133,95.52C137.77,86.05,143,71.93,141.14,58.23Z"/><path class="cls-2" d="M109,78.23c18.61-6.89,29.56-14,32.47-16.06a4.46,4.46,0,0,0-.05-.82c-2.2,1.56-13.24,9-32.7,16.24-20,7.39-53.16,16-97.9,15l.35.71c2.23,0,4.44.07,6.61.07C59.15,93.36,90,85.26,109,78.23Z"/><path class="cls-2" d="M141.11,70.55a9.24,9.24,0,0,1,.11-.92c-2.65,1.85-13.6,9.1-32.48,16.08C89.55,92.81,58.2,101,16.13,100.77c.24.24.48.48.73.71h.94c41.35,0,72.22-8.1,91.22-15.13C126.9,79.74,137.71,72.87,141.11,70.55Z"/><path class="cls-2" d="M139.43,79c-4.38,2.86-14.67,9-30.66,14.87a243.91,243.91,0,0,1-55.77,13h5.44A242.38,242.38,0,0,0,109,94.48,159.93,159.93,0,0,0,139.16,80Z"/><path class="cls-2" d="M135.87,89.28A166.89,166.89,0,0,1,108.77,102c-4.38,1.62-9.39,3.29-15,4.92h2.47c4.73-1.42,9-2.87,12.8-4.27a169.8,169.8,0,0,0,26.39-12.24C135.57,90,135.72,89.65,135.87,89.28Z"/></g></svg>