<svg id="हाथ" xmlns="http://www.w3.org/2000/svg" viewBox="0 0 150 160"><defs><style>.cls-1{fill:#fff;stroke:#fff;stroke-miterlimit:10;stroke-width:5px;}.cls-2{fill:#d68c55;}.cls-3{fill:#c36633;}.cls-4{fill:#d6a686;}</style></defs><path class="cls-1" d="M92.28,60.67l.08,0V57.43l-.07,0c0-.47.07-1,.07-1.47a2.82,2.82,0,0,0-2.62-2.95,6.43,6.43,0,0,0-1.49-4.26c-1.11-1.35-9.3,1.05-15.17,3.86a32.76,32.76,0,0,1,.56-6.52,54.07,54.07,0,0,0,2.54-14.21c.34-5.56.12-10.73.34-14.71.41-7.28-6.39-7.2-6.39-7.2v0l0,0s-.65,2.67-1,4.09a39.06,39.06,0,0,0-.62,5.3h0c-.17,1.4-.32,2.85-.4,4.31-.41,6.78-4.47,14.74-4.88,22.05s-4.36,22.87-4.36,22.87h0A71.86,71.86,0,0,0,56.54,85c-.06,6.95-6.11,28-6.11,33.65s3.86,33.82,3.86,33.82l16.19-2.82,6.06-1.06s-3-16.87-1.74-29.14c.52-5,4.9-10.21,5.68-12.51a65.74,65.74,0,0,0,3.56-24,6.52,6.52,0,0,0,1-.64c3.2-1.72,5.87-.14,7.69-1.26,2.88-1.78,4.9-12,4.88-16C97.6,62.16,93.67,61,92.28,60.67Z"/><path class="cls-2" d="M68.1,23.73c-.41,6.78-4.47,14.74-4.88,22.05s-4.36,22.87-4.36,22.87l14.26-3.52S73,59.29,73.05,54l-5.89,3a11.54,11.54,0,0,1,1.34-5.73,95.61,95.61,0,0,0,4.9-9.59,92.51,92.51,0,0,0,2.78-9.74c.34-5.56.12-10.73.34-14.71.41-7.28-6.39-7.2-6.39-7.2A93,93,0,0,0,68.1,23.73Z"/><path class="cls-3" d="M68.5,51.26A11.54,11.54,0,0,0,67.16,57l5.89-3c.06-3.53.22-6.8.59-7.89a54.07,54.07,0,0,0,2.54-14.21,92.51,92.51,0,0,1-2.78,9.74A95.61,95.61,0,0,1,68.5,51.26Z"/><path class="cls-2" d="M64.34,63.22s1.08-6.21,6-9.14C76,50.76,87,47.23,88.25,48.8a6.71,6.71,0,0,1,1.07,6.59Z"/><path class="cls-2" d="M82.72,54.08c-3,1.15-21.2,7.28-21.88,8.85-3,7-4.25,16.95-4.3,22.08-.06,6.95-6.11,28-6.11,33.65s3.86,33.82,3.86,33.82l16.19-2.82c-.15-6.65-.16-17.42.26-20.6.61-4.62,4.06-9.6,4.06-9.6.52-5,4.9-10.21,5.68-12.51a65.74,65.74,0,0,0,3.56-24c3.65-2.73,6.69-.66,8.7-1.9,2.88-1.78,4.9-12,4.88-16,0-3.51-5.82-4.48-5.82-4.48A20.6,20.6,0,0,0,92.36,56C92.36,51.54,85.69,52.93,82.72,54.08Z"/><path class="cls-3" d="M70.48,149.66l6.06-1.06s-3-16.87-1.74-29.14c0,0-3.45,5-4.06,9.6C70.32,132.24,70.33,143,70.48,149.66Z"/><path class="cls-3" d="M84,82.94l-.74-7.15a15.25,15.25,0,0,0,3.81-3.13c2.61-3.58,4.72-4,4.72-4s-1.29,3.71-1.6,4.92a9.94,9.94,0,0,0,.26,3.5s-4.37.77-5.09,4.93A6.09,6.09,0,0,1,84,82.94Z"/><path class="cls-3" d="M92.36,60.64s-11.15,4-13.6,5S68.5,70.93,68.5,70.93s.26-2.65,3.86-4.36A141.41,141.41,0,0,1,86,60.93a36.15,36.15,0,0,0,6.39-3.5Z"/><path class="cls-3" d="M89.71,52.93a27.52,27.52,0,0,0-7,1.15c-2.81,1-16,7.31-16.55,7.92,0-.9.3-2.18,2.33-3.4S77,54.79,79,53.67s10.38-2.88,10.38-2.88Z"/><path class="cls-4" d="M70.1,10s1.77,1.53,1.07,5.46l-.71,3.93h-2a39.06,39.06,0,0,1,.62-5.3C69.45,12.7,70.1,10,70.1,10Z"/></svg>