<svg id="हंस" xmlns="http://www.w3.org/2000/svg" viewBox="0 0 150 160"><defs><style>.cls-1,.cls-13,.cls-15{fill:#fff;}.cls-1{stroke:#fff;stroke-miterlimit:10;stroke-width:5px;}.cls-2{opacity:0.09;}.cls-3{fill:#cf570f;}.cls-4{fill:#e66010;}.cls-5{fill:#8e8576;}.cls-6{fill:#d2570d;}.cls-7{fill:#fc690f;}.cls-8{fill:#a7a08b;}.cls-9{fill:#039690;}.cls-10{fill:#f1dcd1;}.cls-11{fill:#01726e;}.cls-12{fill:#292622;}.cls-14{fill:#cc550d;}.cls-15{opacity:0.2;}.cls-16{fill:#c7530c;}.cls-17{fill:#99410a;}.cls-18{fill:#492c26;}.cls-19{fill:#7d5f55;}</style></defs><path class="cls-1" d="M137.09,87.12c2.32-2.33,0-2.18,0-2.18a36.26,36.26,0,0,1-5.09.61A46.87,46.87,0,0,1,112.52,82,56.08,56.08,0,0,1,97.6,72.82a60,60,0,0,0-8.23-5.65,46.74,46.74,0,0,0-14.54-5.4,37.43,37.43,0,0,0-11.18-.4c-.25,0-4.13.85-4.17.86-.76.26-2,.57-2.38-.31a1.73,1.73,0,0,1-.08-.27A4.93,4.93,0,0,1,57.8,59c.5-1,1-2,1.59-3a37.07,37.07,0,0,0,3.16-6.72,28.29,28.29,0,0,0,1.16-5.76,33.59,33.59,0,0,0-.06-5.76A19.65,19.65,0,0,0,62.84,34a38.67,38.67,0,0,0-3.11-7.43,26.49,26.49,0,0,0-9.4-10.22c-2.56-1.54-5.35-3-8.43-2.69a13.18,13.18,0,0,0-7.34,3.54c-1,.84-1.87,1.71-2.77,2.6-.54.53-2.4,1.89-2.52,2.61h0l-.86.49-.52.28-.12.07-.52.28-.11.06-.7.38-.12.07-.68.36-.16.09-.83.44L24.5,25l-.76.39-.21.11L22.6,26l-.1.05-.88.44-.19.09-1,.48-.06,0-.93.43-.2.09c-.65.3-1.3.59-1.92.85l-.19.08c-.62.25-1.22.48-1.77.68l-.17.06-.77.25h0c-.25.08-.49.14-.72.2a4.88,4.88,0,0,1-1.55.16s-1.79,2.42,4.21,3.82a20,20,0,0,0,8.7-.22h0a48.2,48.2,0,0,1,8.59-.1,18,18,0,0,0,3.26,2.43,19.15,19.15,0,0,0,3.76,1.67,18.89,18.89,0,0,0,4,.81,14.18,14.18,0,0,0,2.06.06h.16a9.59,9.59,0,0,1-1.48,9.7,34.56,34.56,0,0,1-3.91,3.5c-.5.42-1,.84-1.48,1.28-1.78,1.64-3.51,3.34-5.13,5.14-.57.64-1.13,1.28-1.67,1.94a44.38,44.38,0,0,0-4.91,7,25.87,25.87,0,0,0,.77,26.5c4.33,7,11.27,12.11,18.32,16,1.38.76,2.79,1.45,4.21,2.12a4,4,0,0,1,.48.86,11.79,11.79,0,0,0,.61,1.85,1.48,1.48,0,0,0,1.31.91.7.7,0,0,1,.29,0,30.43,30.43,0,0,0,0,6.61c.12,1.09.26,2.31-.44,3.14-.88,1-2.51.83-3.82.47-2.13-.58-4.23-1.31-6.39-1.77a14.73,14.73,0,0,0-6.57-.11,8,8,0,0,0-5.2,3.8,3.73,3.73,0,0,1,3.18-.06,3.46,3.46,0,0,1,.62.36,3.71,3.71,0,0,1,1.42,3.54,3.19,3.19,0,0,1,2.7-.71,24.74,24.74,0,0,0,2.61.24c.57,0,1.11.09,1.59.17A6,6,0,0,1,47,132a1.39,1.39,0,0,1,.43.86,3.33,3.33,0,0,1,0,1c-17.68,1-30.14,3.29-30.14,6,0,3.59,21.68,6.49,48.43,6.49s48.44-2.9,48.44-6.49c0-2.94-14.6-5.42-34.6-6.22a10.31,10.31,0,0,1-.52-1.57c0-.14-.06-.28-.08-.41-.2-1.16-.25-2.34-.4-3.5a36.59,36.59,0,0,1-.43-4.79,9.45,9.45,0,0,1,.16-1.76,2,2,0,0,0,1.37-.51,1.68,1.68,0,0,0,.3-.39,2.61,2.61,0,0,1,.2-.44,14,14,0,0,0,3.44-1.52,65.65,65.65,0,0,0,19.38-2.88c10.41-3.25,11.76-7.8,12.64-7.75s5.93-3.94,6.41-5.63-4.41.3-4.41.3,0-.94,3.78-1.88,3.85-3.27,3.85-3.27c3.92-1.09,3.2-1.6,5.37-2.54s.8-2,.8-2c1.24-.29,4.58-2.62,4.58-2.62C139.41,86.9,137.09,87.12,137.09,87.12ZM53.44,133a6.65,6.65,0,0,1,1.08-.21,4.36,4.36,0,0,0,1.74-.38,2.74,2.74,0,0,0,1.25-1.22c.52-1.15,0-2.4.07-3.59l0-.42c.09-1.17.33-2.33.47-3.49a36.43,36.43,0,0,1,.77-4.75,9.16,9.16,0,0,1,.6-1.66,2,2,0,0,0,1.44-.16,2.18,2.18,0,0,0,.38-.3,4.84,4.84,0,0,1,.31-.39,9.47,9.47,0,0,0,2.33-.28c1.6.44,3.21.8,4.84,1.14a8.27,8.27,0,0,1,1.15,1.48,11.25,11.25,0,0,0,1,1.65,1.49,1.49,0,0,0,1.5.56.9.9,0,0,1,.27-.07,31.49,31.49,0,0,0,1.67,6.41c.39,1,.83,2.17.35,3.15-.6,1.21-2.23,1.41-3.59,1.39-2.21,0-4.42-.23-6.63-.14a14.68,14.68,0,0,0-6.39,1.51c-.16.08-.31.18-.46.27-2.53.05-5,.14-7.39.24C51.33,133.48,52.38,133.22,53.44,133Z"/><ellipse class="cls-2" cx="65.65" cy="139.87" rx="48.44" ry="6.49"/><path class="cls-3" d="M35.71,127.62a3.46,3.46,0,0,0-.62-.36c.43-.2.87-.4,1.32-.57a12.86,12.86,0,0,1,8.93-.45,11.72,11.72,0,0,0-8.25,2.29l-.36.28A3.64,3.64,0,0,0,35.71,127.62Z"/><path class="cls-3" d="M51.81,130.22a17.78,17.78,0,0,0-4.41,2.6A1.39,1.39,0,0,0,47,132a6,6,0,0,0-2.94-1.1c-.48-.08-1-.13-1.59-.17a11.37,11.37,0,0,1,4.38-1.5A12.39,12.39,0,0,1,51.81,130.22Z"/><path class="cls-4" d="M45.34,126.24a12.86,12.86,0,0,0-8.93.45c-.45.17-.89.37-1.32.57a3.73,3.73,0,0,0-3.18.06,8,8,0,0,1,5.2-3.8,14.73,14.73,0,0,1,6.57.11c2.16.46,4.26,1.19,6.39,1.77,1.31.36,2.94.57,3.82-.47.7-.83.56-2.05.44-3.14a31.55,31.55,0,0,1,.4-9.79,10.58,10.58,0,0,1,4.74.93c.68.31,1.69.94,1.56,1.83-.08.65-.86,1.14-1.18,1.68a8.67,8.67,0,0,0-1,2.47,36.43,36.43,0,0,0-.77,4.75c-.14,1.16-.38,2.32-.47,3.49l0,.42c0,1.19.45,2.44-.07,3.59a2.74,2.74,0,0,1-1.25,1.22,4.36,4.36,0,0,1-1.74.38,6.65,6.65,0,0,0-1.08.21c-1.17.28-2.33.56-3.5.82a6.64,6.64,0,0,0-3.22,1.55,3.4,3.4,0,0,0,.68-2.52,17.78,17.78,0,0,1,4.41-2.6,12.39,12.39,0,0,0-5-1,11.37,11.37,0,0,0-4.38,1.5,24.74,24.74,0,0,1-2.61-.24,3.19,3.19,0,0,0-2.7.71,3.63,3.63,0,0,0-.4-2.35l.36-.28A11.72,11.72,0,0,1,45.34,126.24Z"/><path class="cls-5" d="M67,115.29s-3.77,1.23-5.37,1.11a4.84,4.84,0,0,0-.31.39,2.18,2.18,0,0,1-.38.3,2.12,2.12,0,0,1-1.6.13,1.18,1.18,0,0,1-.4-.21c-.09-.07-.15-.2-.27-.23a1.29,1.29,0,0,0-.48,0,1.65,1.65,0,0,1-1.11-.36c-.05,0-.49-.43-.5-.42a1.57,1.57,0,0,1-2-.57c-.07-.1-.12-.22-.23-.27a.65.65,0,0,0-.31,0,1.48,1.48,0,0,1-1.31-.91,11.79,11.79,0,0,1-.61-1.85,3.68,3.68,0,0,0-1.81-2,11.78,11.78,0,0,1,4.82,1.49c3.53.56,7,1.23,10.5,2.12a2.18,2.18,0,0,1,.93.41C66.78,114.65,67.14,115,67,115.29Z"/><path class="cls-6" d="M57.78,137.52a3.4,3.4,0,0,0-.69-.2c.37-.31.75-.6,1.14-.88a12.85,12.85,0,0,1,8.55-2.63,11.72,11.72,0,0,0-7.44,4.24c-.1.12-.19.24-.28.37A3.5,3.5,0,0,0,57.78,137.52Z"/><path class="cls-6" d="M74,136.08a17.69,17.69,0,0,0-3.63,3.6,1.39,1.39,0,0,0-.63-.73,6.1,6.1,0,0,0-3.12-.34,14.54,14.54,0,0,0-1.58.22,11.28,11.28,0,0,1,3.87-2.53A12.45,12.45,0,0,1,74,136.08Z"/><path class="cls-7" d="M66.78,133.81a12.85,12.85,0,0,0-8.55,2.63c-.39.28-.77.57-1.14.88a3.72,3.72,0,0,0-3.07.84,8,8,0,0,1,4.11-5,14.64,14.64,0,0,1,6.39-1.51c2.21-.09,4.42.1,6.63.14,1.36,0,3-.18,3.59-1.39.48-1,0-2.14-.35-3.15a31.28,31.28,0,0,1-2-9.59,10.34,10.34,0,0,1,4.82-.27c.73.13,1.86.49,2,1.39.08.65-.56,1.32-.74,1.92a9,9,0,0,0-.36,2.64,36.59,36.59,0,0,0,.43,4.79c.15,1.16.2,2.34.4,3.5,0,.13,0,.27.08.41.23,1.17,1,2.26.81,3.5a2.86,2.86,0,0,1-1.72,1.93c-1.63.87-3.31,1.65-5,2.49a6.47,6.47,0,0,0-2.73,2.29,3.46,3.46,0,0,0,0-2.61,17.69,17.69,0,0,1,3.63-3.6,12.45,12.45,0,0,0-5.09.22,11.28,11.28,0,0,0-3.87,2.53,25.65,25.65,0,0,1-2.59.42A3.14,3.14,0,0,0,60,140.6a3.66,3.66,0,0,0-1-2.18c.09-.13.18-.25.28-.37A11.72,11.72,0,0,1,66.78,133.81Z"/><path class="cls-8" d="M85,117.87s-3.36,2.12-4.94,2.41a2.61,2.61,0,0,0-.2.44,1.68,1.68,0,0,1-.3.39,2.09,2.09,0,0,1-1.51.52,1.14,1.14,0,0,1-.45-.1c-.1,0-.18-.16-.31-.16a1.57,1.57,0,0,0-.47.13,1.61,1.61,0,0,1-1.16-.07s-.58-.29-.59-.28a1.57,1.57,0,0,1-2.07-.07.59.59,0,0,0-.29-.2.5.5,0,0,0-.29.07,1.49,1.49,0,0,1-1.5-.56,11.25,11.25,0,0,1-1-1.65c-.52-.76-1.08-1.74-2-1.94a10.56,10.56,0,0,1,4.77.17c3.55-.33,7.14,0,10.7,0a2.16,2.16,0,0,1,1,.17C84.7,117.3,85.14,117.55,85,117.87Z"/><path class="cls-9" d="M41.49,51.55a34.56,34.56,0,0,0,3.91-3.5,9.62,9.62,0,0,0,1.42-9.88,19.09,19.09,0,0,1-12.76-4.75c-4.94-4.4-5.09-9.22-5-10.58a.73.73,0,0,1,.19-.41c.12-.72,2-2.08,2.52-2.61.9-.89,1.82-1.76,2.77-2.6a13.21,13.21,0,0,1,7.34-3.54c3.08-.29,5.87,1.15,8.43,2.69a26.49,26.49,0,0,1,9.4,10.22A38.67,38.67,0,0,1,62.84,34a19.65,19.65,0,0,1,.81,3.77,33.59,33.59,0,0,1,.06,5.76,28.29,28.29,0,0,1-1.16,5.76A37.07,37.07,0,0,1,59.39,56a37.41,37.41,0,0,1-9.57-1.52C47,53.68,44.27,52.51,41.49,51.55Z"/><path class="cls-10" d="M44.5,62.81a38.41,38.41,0,0,1-11.29-2.9c.54-.66,1.1-1.3,1.67-1.94,1.62-1.8,3.35-3.5,5.13-5.14.47-.44,1-.86,1.48-1.28,2.78,1,5.52,2.13,8.33,3A37.41,37.41,0,0,0,59.39,56c-.55,1-1.09,2-1.59,3A4.93,4.93,0,0,0,57,61.65a1.73,1.73,0,0,0,.08.27A38.16,38.16,0,0,1,44.5,62.81Z"/><path class="cls-8" d="M28.3,67a44.38,44.38,0,0,1,4.91-7,37.88,37.88,0,0,0,23.89,2c.35.88,1.62.57,2.38.31,0,0,3.92-.83,4.17-.86a37.43,37.43,0,0,1,11.18.4,46.74,46.74,0,0,1,14.54,5.4,60,60,0,0,1,8.23,5.65A56.08,56.08,0,0,0,112.52,82,46.87,46.87,0,0,0,132,85.55a36.26,36.26,0,0,0,5.09-.61s2.32-.15,0,2.18c0,0,2.32-.22-1.16,3.41,0,0-3.34,2.33-4.58,2.62,0,0,1.38,1-.8,2s-1.45,1.45-5.37,2.54c0,0-.07,2.32-3.85,3.27s-3.78,1.88-3.78,1.88,4.9-2,4.41-.3-5.54,5.68-6.41,5.63-2.23,4.5-12.64,7.75c-18.32,5.7-38.84,2.71-55.52-6.45-7-3.87-14-9-18.32-16A25.87,25.87,0,0,1,28.3,67Z"/><path class="cls-11" d="M29.27,22.43a.73.73,0,0,0-.21.46c0,.17,0,.34,0,.51,0,.34,0,.68,0,1a13.92,13.92,0,0,0,.32,2A13.63,13.63,0,0,0,31,30.2a15.57,15.57,0,0,0,2.62,3.16,18.32,18.32,0,0,0,3.29,2.46,19.15,19.15,0,0,0,3.76,1.67,18.89,18.89,0,0,0,4,.81,14.18,14.18,0,0,0,2.06.06c.67,0,1.36-.09,2-.17a16.8,16.8,0,0,0,2-.38l.5-.14.48-.16,1-.35-1,.26-.49.14-.49.1a16.81,16.81,0,0,1-2,.25c-.67.05-1.34.07-2,.07a16.65,16.65,0,0,1-2-.13,19.88,19.88,0,0,1-7.53-2.53A18,18,0,0,1,34,33a16.21,16.21,0,0,1-2.61-3,14,14,0,0,1-1.72-3.6,11.85,11.85,0,0,1-.45-2c0-.33-.07-.66-.08-1,0-.17,0-.34,0-.5A.75.75,0,0,1,29.27,22.43Z"/><path class="cls-12" d="M43.08,22.29A1.32,1.32,0,1,0,44.39,21,1.32,1.32,0,0,0,43.08,22.29Z"/><circle class="cls-13" cx="45.06" cy="21.86" r="0.43"/><path class="cls-11" d="M42.39,23.3l-1.63-1.12,1.83-1.12a3.12,3.12,0,0,1,2.15-.51A2.85,2.85,0,0,1,46,21h0a4.41,4.41,0,0,1,1.36,1.53.56.56,0,0,1-.15.84,2.85,2.85,0,0,1-.63.25l-.23.08a4.85,4.85,0,0,1-1.61.29A4,4,0,0,1,42.39,23.3Zm4.41-.46a3.9,3.9,0,0,0-1.17-1.33h0a2.42,2.42,0,0,0-1-.39,2.62,2.62,0,0,0-1.77.44l-1.07.65.9.61a3.62,3.62,0,0,0,3.38.36l.26-.09a2.67,2.67,0,0,0,.48-.18Z"/><path class="cls-14" d="M34.06,33.42a51.94,51.94,0,0,0-9,.07c-3.25.52,4.09-2.91,4.09-2.91L35.37,32S33.67,32.21,34.06,33.42Z"/><path class="cls-7" d="M29.27,22.43s-13.8,7.9-17.14,7.46c0,0-1.79,2.42,4.21,3.82s12.93-1.5,12.93-1.5a20.3,20.3,0,0,1,6.1-.19s-3.19-.35-2.53-4.67a3.76,3.76,0,0,1,1.52-3.09S28.42,24.53,29.27,22.43Z"/><path class="cls-15" d="M28.43,23.71A2.82,2.82,0,0,0,29.09,25a2.75,2.75,0,0,0,2.71.72,10.66,10.66,0,0,0-.54,2.73A3.54,3.54,0,0,0,32.17,31c-2.78-.19-5.42,1.2-8.17,1.66a14.31,14.31,0,0,1-8.32-1.24,4.38,4.38,0,0,1-2.07-1.64c4-.9,12.14-5.34,14.8-6.82A6.47,6.47,0,0,0,28.43,23.71Z"/><path class="cls-16" d="M26.37,27.24a1.16,1.16,0,0,0,2.25,0,1.16,1.16,0,0,0-2.25,0Z"/><path class="cls-17" d="M26.45,26.91a.78.78,0,0,0,0,.16,1,1,0,0,0,1.13.87,1.16,1.16,0,0,0,1-.55,1.09,1.09,0,0,1-1.11.72,1,1,0,0,1-1.12-.87A.73.73,0,0,1,26.45,26.91Z"/><path class="cls-18" d="M71,67.18c-4.45-1.19-9.2-1.5-13.49.42C49,71.44,44.68,83.42,47.48,92.16c6.13,19.11,33.42,24,50.21,17.7a26.56,26.56,0,0,0,10-6.57,1.75,1.75,0,0,0-.76-2.86,17.25,17.25,0,0,0,5.52-2.37,1.24,1.24,0,0,0-1.2-2.16l0,0c2.7-1.31,5-3.9,6.86-6.18.27-.33.53-.68.8-1a.15.15,0,0,0,.06-.15.11.11,0,0,0-.11-.08c-1.82-.16-3.64.12-5.46,0-6.89-.48-12.34-4-18-7.57C87.27,76.32,80.22,69.64,71,67.18Z"/><path class="cls-19" d="M57.55,67.6c4.29-1.92,9-1.61,13.49-.42a33,33,0,0,1,4,1.36c7.34,3,13.49,8.46,20.44,12.39,1.93,1.23,3.84,2.45,5.79,3.54l.2,0a.13.13,0,0,1,.1.11v0a.29.29,0,0,1-.09.15L100.3,86c-2.24,2.4-5,5.11-7.88,6.28l0,0c1.47-.57,2.22,1.87.82,2.67a16.08,16.08,0,0,1-5.88,2,2.22,2.22,0,0,1,.25,3.43,27.33,27.33,0,0,1-11.12,6.31,38.46,38.46,0,0,1-15,1.07C55,104.44,49.77,99.29,47.48,92.16,44.68,83.42,49,71.44,57.55,67.6Z"/><path class="cls-18" d="M57.55,67.6c4.29-1.92,9-1.61,13.49-.42a33,33,0,0,1,4,1.36l1.16.51a77.58,77.58,0,0,1,11.28,6.76l.35.23s0,0,0,0a.19.19,0,0,1-.12.14L86.48,77c-2.75,1.8-6,3.8-9.14,4.25h0c1.57-.21,1.72,2.33.17,2.78a16.24,16.24,0,0,1-6.2.59A2.2,2.2,0,0,1,70.79,88,27.26,27.26,0,0,1,58.5,91.55,37.27,37.27,0,0,1,47,90.14C45.35,81.67,49.63,71.15,57.55,67.6Z"/></svg>