<svg id="यात्री" xmlns="http://www.w3.org/2000/svg" xmlns:xlink="http://www.w3.org/1999/xlink" viewBox="0 0 150 160"><defs><style>.cls-1{fill:none;}.cls-12,.cls-2,.cls-3,.cls-8{fill:#fff;}.cls-2{stroke:#fff;stroke-miterlimit:10;stroke-width:5px;}.cls-4{fill:#ffcf3d;}.cls-5{clip-path:url(#clip-path);}.cls-6{fill:#ffa929;}.cls-7{fill:#3c3c3b;}.cls-8{opacity:0.2;}.cls-9{fill:#2d2d2c;}.cls-10{fill:#575756;}.cls-11{fill:#c1edf0;}.cls-12{opacity:0.3;}.cls-13{fill:#fe5061;}.cls-14{fill:#6b3c2d;}.cls-15{fill:#f1af9a;}.cls-16{fill:#f5d1b6;}.cls-17{fill:#8f503c;}.cls-18{fill:#64d2d9;}.cls-19{fill:#72c075;}.cls-20{fill:#7d583d;}.cls-21{fill:#a77551;}</style><clipPath id="clip-path"><path class="cls-1" d="M11.12,100.22H113V55.45a7,7,0,0,0-7-7H18.11a7,7,0,0,0-7,7Z"/></clipPath></defs><path class="cls-2" d="M140.3,94.39h-1.42V92.58a2.89,2.89,0,0,0-.08-5.76,7,7,0,0,0-2.51-4.45v-1a7,7,0,0,0-7-7H113v-5.5h3.63A1.86,1.86,0,0,0,118.5,67V61.65a1.87,1.87,0,0,0-1.86-1.87h-1.37v7.77H113V55.45a6.84,6.84,0,0,0-.34-2.13H113V51.7h-1.1A7,7,0,0,0,106,48.46H18.11a7,7,0,0,0-5.89,3.24h-1.1v1.62h.33a7.14,7.14,0,0,0-.33,2.13V94.39H9.7a1.17,1.17,0,0,0-1.17,1.17v3.49a1.17,1.17,0,0,0,1.17,1.17H28.26a10.52,10.52,0,0,0,21,0H109a10.52,10.52,0,0,0,21,0H140.3a1.17,1.17,0,0,0,1.17-1.17V95.56A1.17,1.17,0,0,0,140.3,94.39Z"/><path class="cls-3" d="M135,92.61h3.56a2.91,2.91,0,0,0,2.91-2.91h0a2.91,2.91,0,0,0-2.91-2.91H135Z"/><path class="cls-4" d="M129.31,74.34H111.39v25.88h24.9V81.33A7,7,0,0,0,129.31,74.34Z"/><path class="cls-4" d="M11.12,100.22H113V55.45a7,7,0,0,0-7-7H18.11a7,7,0,0,0-7,7Z"/><g class="cls-5"><rect class="cls-6" x="11.12" y="51.7" width="101.89" height="1.62"/></g><rect class="cls-7" x="11.12" y="80.81" width="101.89" height="3.23"/><rect class="cls-7" x="38.77" y="87.28" width="74.23" height="3.23"/><path class="cls-6" d="M100.07,100.22h38.81V87.8a7,7,0,0,0-7-7H107.05a7,7,0,0,0-7,7Z"/><path class="cls-8" d="M138.88,87.8a7,7,0,0,0-7-7H107.05a7,7,0,0,0-7,7Z"/><path class="cls-9" d="M52.52,100.22a13.75,13.75,0,1,0-27.49,0Z"/><circle class="cls-7" cx="38.77" cy="100.22" r="10.51"/><circle class="cls-10" cx="38.77" cy="100.22" r="6.31"/><path class="cls-8" d="M38.77,93.91a6.31,6.31,0,0,0,0,12.61Z"/><path class="cls-9" d="M133.22,100.22a13.75,13.75,0,1,0-27.49,0Z"/><circle class="cls-7" cx="119.47" cy="100.22" r="10.51"/><path class="cls-10" d="M119.47,93.91a6.31,6.31,0,1,0,6.31,6.31A6.31,6.31,0,0,0,119.47,93.91Z"/><path class="cls-8" d="M119.47,93.91a6.31,6.31,0,0,0,0,12.61Z"/><path class="cls-7" d="M9.7,100.22h8.54V94.39H9.7a1.17,1.17,0,0,0-1.17,1.17v3.49A1.17,1.17,0,0,0,9.7,100.22Z"/><path class="cls-7" d="M135,100.22h5.3a1.17,1.17,0,0,0,1.17-1.17V95.56a1.17,1.17,0,0,0-1.17-1.17H135Z"/><rect class="cls-11" x="93.76" y="59.78" width="12.94" height="14.56"/><rect class="cls-12" x="93.76" y="59.78" width="6.47" height="14.56"/><rect class="cls-11" x="64" y="59.78" width="19.41" height="14.56"/><rect class="cls-12" x="64" y="59.78" width="19.41" height="7.28"/><rect class="cls-11" x="40.71" y="59.78" width="19.41" height="14.56"/><rect class="cls-12" x="40.71" y="59.78" width="19.41" height="7.28"/><rect class="cls-11" x="17.43" y="59.78" width="19.41" height="14.56"/><rect class="cls-12" x="17.43" y="59.78" width="19.41" height="7.28"/><rect class="cls-7" x="110.74" y="67.55" width="5.9" height="1.29"/><path class="cls-7" d="M115.27,68.84h1.37A1.86,1.86,0,0,0,118.5,67V61.65a1.87,1.87,0,0,0-1.86-1.87h-1.37Z"/><path class="cls-8" d="M116.64,68.84A1.86,1.86,0,0,0,118.5,67V61.65a1.87,1.87,0,0,0-1.86-1.87Z"/><path class="cls-13" d="M31.05,74.34a4.53,4.53,0,0,0-7.84,0Z"/><path class="cls-14" d="M19,73.05h2.43A2.43,2.43,0,1,0,19,70.62Z"/><path class="cls-14" d="M35.22,73.05H32.79a2.43,2.43,0,1,1,2.43-2.43Z"/><circle class="cls-14" cx="27.13" cy="64.96" r="7.12"/><circle class="cls-15" cx="33.6" cy="68.19" r="1.62"/><circle class="cls-15" cx="20.66" cy="68.19" r="1.62"/><circle class="cls-16" cx="27.13" cy="66.58" r="6.47"/><path class="cls-17" d="M20.54,65H33.72a6.78,6.78,0,0,0-13.18,0Z"/><path class="cls-7" d="M27.13,69.45a1.88,1.88,0,0,1-1.8-1.4l.47-.12a1.38,1.38,0,0,0,1.33,1,1.36,1.36,0,0,0,1.32-1l.47.12A1.86,1.86,0,0,1,27.13,69.45Z"/><circle class="cls-15" cx="30.36" cy="68.96" r="0.97"/><circle class="cls-15" cx="23.9" cy="68.96" r="0.97"/><path class="cls-7" d="M24.87,67.14a.57.57,0,1,1-.57-.56A.57.57,0,0,1,24.87,67.14Z"/><path class="cls-7" d="M30.53,67.14a.57.57,0,1,1-.57-.56A.57.57,0,0,1,30.53,67.14Z"/><path class="cls-15" d="M27.7,67.43a.57.57,0,0,1-1.14,0Z"/><path class="cls-18" d="M54.34,74.34a4.53,4.53,0,0,0-7.84,0Z"/><circle class="cls-6" cx="50.42" cy="64.96" r="7.12"/><circle class="cls-15" cx="56.89" cy="68.19" r="1.62"/><circle class="cls-15" cx="43.95" cy="68.19" r="1.62"/><circle class="cls-16" cx="50.42" cy="66.58" r="6.47"/><path class="cls-4" d="M43.83,65H57a6.78,6.78,0,0,0-13.18,0Z"/><path class="cls-3" d="M48.86,68.32a1.61,1.61,0,0,0,3.12,0Z"/><circle class="cls-15" cx="53.65" cy="68.96" r="0.97"/><circle class="cls-15" cx="47.18" cy="68.96" r="0.97"/><path class="cls-7" d="M48.15,67.14a.56.56,0,0,1-.56.57.57.57,0,1,1,0-1.13A.56.56,0,0,1,48.15,67.14Z"/><path class="cls-7" d="M53.81,67.14a.56.56,0,0,1-.56.57.57.57,0,1,1,0-1.13A.56.56,0,0,1,53.81,67.14Z"/><path class="cls-15" d="M51,67.43a.56.56,0,0,1-.56.56.57.57,0,0,1-.57-.56Z"/><path class="cls-14" d="M80.45,74.34a7,7,0,0,0,.37-2.26,7.12,7.12,0,1,0-14.23,0A7,7,0,0,0,67,74.34Z"/><circle class="cls-14" cx="73.71" cy="64.96" r="7.12"/><path class="cls-19" d="M77.62,74.34a4.52,4.52,0,0,0-7.83,0Z"/><circle class="cls-20" cx="80.18" cy="68.19" r="1.62"/><circle class="cls-20" cx="67.24" cy="68.19" r="1.62"/><circle class="cls-21" cx="73.71" cy="66.58" r="6.47"/><path class="cls-17" d="M67.12,65H80.3a6.78,6.78,0,0,0-13.18,0Z"/><path class="cls-7" d="M73.71,69.45a1.86,1.86,0,0,1-1.8-1.4l.47-.12a1.37,1.37,0,0,0,2.65,0l.47.12A1.86,1.86,0,0,1,73.71,69.45Z"/><circle class="cls-15" cx="76.94" cy="68.96" r="0.97"/><circle class="cls-15" cx="70.47" cy="68.96" r="0.97"/><circle class="cls-7" cx="70.88" cy="67.14" r="0.57"/><circle class="cls-7" cx="76.54" cy="67.14" r="0.57"/><path class="cls-20" d="M74.27,67.43a.57.57,0,0,1-1.13,0Z"/></svg>