<svg id="षटकोण" xmlns="http://www.w3.org/2000/svg" viewBox="0 0 150 160"><defs><style>.cls-1{fill:#fff;}.cls-2{fill:#bd370a;}.cls-3{fill:#d33d0b;}.cls-4{fill:#e9440c;}.cls-5{fill:#ff4a0d;}</style></defs><polygon class="cls-1" points="108.35 22.23 41.65 22.23 8.3 80 41.65 137.77 108.35 137.77 141.7 80 108.35 22.23"/><polygon class="cls-1" points="107.14 24.32 42.85 24.32 10.71 80 42.85 135.68 107.14 135.68 139.29 80 107.14 24.32"/><polygon class="cls-1" points="105.94 26.41 44.06 26.41 13.12 80 44.06 133.59 105.94 133.59 136.88 80 105.94 26.41"/><polygon class="cls-1" points="104.73 28.5 45.27 28.5 15.54 80 45.27 131.5 104.73 131.5 134.46 80 104.73 28.5"/><polygon class="cls-2" points="105.58 27.02 44.41 27.02 13.83 80 44.41 132.97 105.58 132.97 136.17 80 105.58 27.02"/><polygon class="cls-3" points="104.48 28.94 45.52 28.94 16.04 80 45.52 131.06 104.48 131.06 133.96 80 104.48 28.94"/><polygon class="cls-4" points="103.37 30.86 46.63 30.86 18.25 80 46.63 129.14 103.37 129.14 131.75 80 103.37 30.86"/><polygon class="cls-5" points="102.27 32.77 47.73 32.77 20.47 80 47.73 127.23 102.27 127.23 129.53 80 102.27 32.77"/></svg>