<svg id="गन्ने" xmlns="http://www.w3.org/2000/svg" viewBox="0 0 150 160"><defs><style>.cls-1{fill:#fff;}.cls-2{fill:#4e7546;}.cls-3{fill:#598951;}.cls-4{fill:#91af5b;}.cls-5{fill:#809b51;}.cls-6{fill:#bfd667;}.cls-7{fill:#6a9e5f;}.cls-8{fill:#95ba60;}.cls-9{fill:#aace6b;}.cls-10{fill:#a36f43;}.cls-11{fill:#eadba0;}.cls-12{fill:#cfe29a;}.cls-13{fill:#f2e69e;}.cls-14{fill:#78af6b;}</style></defs><path class="cls-1" d="M108.31,44.33a15.11,15.11,0,0,0-1.25-4.93,8.13,8.13,0,0,0-2.37-2.93l-3.28-1.4h-.51a28.2,28.2,0,0,1-9.68-1.72,6.5,6.5,0,0,0-2.26-.5,4.55,4.55,0,0,0-.52,0,5.61,5.61,0,0,0-2.62,1.21,64.39,64.39,0,0,0-9.53,8.68c.32-4.4.46-9.25.44-15v-.39c0-7.17-.06-14.58,3.67-20.19L77.28,4.72a33.9,33.9,0,0,0-2.36,2.83l-.07,0A61.58,61.58,0,0,0,67,22.28a100.09,100.09,0,0,0-7,29.47c-.16,2.44-.21,4.94-.13,7.48l-.52-.2c-.43-.19-.85-.39-1.26-.59a20.16,20.16,0,0,0-4.82-1.77,6.16,6.16,0,0,0-1.3-.16,3.68,3.68,0,0,0-1.11.16,4.77,4.77,0,0,0-2.73,2.49c-1.64,3-2.22,6.35-2.74,9.32-2.73,15.65-5.56,31.83-3.38,48.06l3.94.14a61.45,61.45,0,0,1,2.74-8.74L53.31,95.6a44.34,44.34,0,0,1-.63,8.29l0,.1a9.5,9.5,0,0,0-.18,1.79,10,10,0,0,0,.2,1.58,56,56,0,0,1,.9,8.07,4.23,4.23,0,0,1-.11,1.58c0,.13-.12.25-.18.37a6.4,6.4,0,0,0-.39.84,7.44,7.44,0,0,0,.17,4.72l.06.21a28,28,0,0,1,1,7.68l0,1.23c-.08,2.63-.17,5.61,1.5,8.14s4.62,3.91,8.18,3.91a13.59,13.59,0,0,0,1.79-.13c0,.27-.06.54-.09.81a11.3,11.3,0,0,0,.89,6.34c1.49,2.86,4.84,4.69,8.74,4.78l2,.05v.52l2.95-1.58a6.49,6.49,0,0,0,.6-.37A6.89,6.89,0,0,0,82,153.36,9.77,9.77,0,0,0,84.44,149a22.14,22.14,0,0,0,.51-6.08l0-1.6a47,47,0,0,1,.34-5.75l0-.23a9.75,9.75,0,0,0,.13-2.15,8.62,8.62,0,0,0-.34-1.71c0-.19-.1-.38-.14-.57a14.52,14.52,0,0,1-.1-3.75q.26-4,.52-8.09l.75-11.67a16,16,0,0,1,.49-3.58l.1-.31a7,7,0,0,0,.36-1.42A7.49,7.49,0,0,0,87,100l0-.27a28.87,28.87,0,0,1,.42-7.6c.25-1.75.35-3.92.44-6,.07-1.44.13-2.92.25-4.21a8.58,8.58,0,0,0,.19-2.72,3.83,3.83,0,0,0-.94-2.43,5.1,5.1,0,0,0-3.91-1.49,7.05,7.05,0,0,0-2.23.34,14.12,14.12,0,0,0-3,1.63c-.27.19-.53.38-.78.59A11.82,11.82,0,0,0,76,79.07l-.56.63a26,26,0,0,0-4.71,7.68,16.31,16.31,0,0,0-.64,2v0a7,7,0,0,0-.39-2.18l-.09-.27a14.06,14.06,0,0,1-.47-2.53c0-.38,0-.75,0-1.12V83.2a7.48,7.48,0,0,0,.15-2.4c.08-1.11.18-2.19.27-3.25.11-1.22.22-2.4.3-3.56.06-.32.12-.64.19-1,.36-1.66.81-3.31,1.25-4.86a132.77,132.77,0,0,1,22.09-21.9c2.57,3.32,6.28,10.34,7.62,12.88l.35.67a14.89,14.89,0,0,1,1.86,8.34l-.09.74,4,.56c0-.28.08-.57.11-.85C108.43,59.63,109.22,52.14,108.31,44.33Z"/><path class="cls-2" d="M102.08,37.35a5.44,5.44,0,0,1,3.18,2.92,13.44,13.44,0,0,1,1.06,4.29c1,8.17-.08,16.43-1.11,24.59a16.71,16.71,0,0,0-2-10.27c-1.67-3.13-7.86-15.14-10.45-16-2-.66-7.37,2.72-9.52,3a1,1,0,0,1-.77-.12c-.36-.31-.1-.89.2-1.26A15.36,15.36,0,0,1,94.06,38.8c1.35,0,3,.22,4.25-.38S100.39,36.86,102.08,37.35Z"/><path class="cls-3" d="M87,35.71a3.71,3.71,0,0,1,1.68-.84,4.34,4.34,0,0,1,1.93.39,30.06,30.06,0,0,0,10.83,1.81,53,53,0,0,1-7.24,6.1,132.15,132.15,0,0,0-30,31.38,28.79,28.79,0,0,0-4.45,9.17c1.88-6.1,2.8-12.38,5.11-18.37A69.35,69.35,0,0,1,77.14,44.84,61.45,61.45,0,0,1,87,35.71Z"/><path class="cls-4" d="M55.31,84.4a5.42,5.42,0,0,1-.48,2.8c-.28.48-.72.9-.74,1.45a2.79,2.79,0,0,0,.48,1.3,7,7,0,0,1,.58,2.57,46.3,46.3,0,0,1-.5,11.7,8.73,8.73,0,0,0-.17,1.52,7.78,7.78,0,0,0,.17,1.26,58.45,58.45,0,0,1,.93,8.35,5.77,5.77,0,0,1-.26,2.41c-.16.4-.4.76-.55,1.16a6.14,6.14,0,0,0,.29,3.7,30.13,30.13,0,0,1,1,8.23c0,2.83-.41,5.89,1.14,8.25,1.71,2.59,5.26,3.38,8.32,2.85a7.51,7.51,0,0,0,3.14-1.19,7.07,7.07,0,0,0,2.67-4.71,20.18,20.18,0,0,0-.13-5.54,52.66,52.66,0,0,1-.61-7.62,8,8,0,0,0-.1-2,14.46,14.46,0,0,0-.79-2,13.75,13.75,0,0,1-.75-4.28c-.2-2.92-.38-5.84-.56-8.76l-.69-11.08a15,15,0,0,1,.12-4.07,8,8,0,0,0,.26-1.45,6.64,6.64,0,0,0-.39-1.85,25.94,25.94,0,0,1-.62-8.16c.1-3.34.19-6.68.29-10l-7.66,4.35a9.19,9.19,0,0,1-3.23.93c-1.28.23-1.27.4-1.28,1.79C55.21,79,55.29,81.72,55.31,84.4Z"/><path class="cls-5" d="M62.51,108.84c0-1.15,0-2.31,0-3.47a12.38,12.38,0,0,1-.56-3.36A21.22,21.22,0,0,0,62.51,108.84Z"/><path class="cls-5" d="M64.37,129.1a12.69,12.69,0,0,0,1.07,4.73C65.09,132.25,64.73,130.67,64.37,129.1Z"/><path class="cls-5" d="M70.64,122.89a8,8,0,0,0-.1-2,14.46,14.46,0,0,0-.79-2,13.75,13.75,0,0,1-.75-4.28c-.2-2.92-.38-5.84-.56-8.76l-.69-11.08a15,15,0,0,1,.12-4.07,8,8,0,0,0,.26-1.45,6.64,6.64,0,0,0-.39-1.85,25.94,25.94,0,0,1-.62-8.16c.1-3.34.19-6.68.29-10q-2.56,1.47-5.15,2.92c.12.82.25,1.6.29,2.27a123.37,123.37,0,0,1,.06,14.39c.58-2.51,1.17-5,1.75-7.54v2l.43-1q-.15,7.81-.31,15.62a27.73,27.73,0,0,1-.94-6.66L63.29,94c-.33-1.29-.65-2.58-1-3.87q.09,7.63.16,15.25c.08.23.16.46.25.69.34-1.58.69-3.16,1-4.74.2,1.4.4,2.8.61,4.2l.93-4.68,1,21.22a44.46,44.46,0,0,1-2.34-10.3c.12,2.56.23,5.13.35,7.69q-1.52-4.29-2.73-8.67c0,1.94.07,3.89.1,5.83a68.08,68.08,0,0,1-1.32-17c-1.33,5.46-.09,11.18,1.15,16.66q1.45,6.44,2.9,12.86a12.42,12.42,0,0,1,.37-3.33c.49.9,1,1.8,1.46,2.69L66,124.37c.79,2.79,1.5,5.6,2.15,8.43l-.66-11.67,1.23,10.54a21.58,21.58,0,0,1,.17,5.73l-2.16-3.6c.14.48.28,1,.41,1.46l-.6-.91a32.47,32.47,0,0,1,1.74,6.71,4.53,4.53,0,0,0,.46-.3,7.07,7.07,0,0,0,2.67-4.71,20.18,20.18,0,0,0-.13-5.54A52.66,52.66,0,0,1,70.64,122.89Z"/><path class="cls-6" d="M56.86,88.81c.52-1.73,1-3.48,1.37-5.24a103.59,103.59,0,0,1-2.12,18.32,18.22,18.22,0,0,1,1.62-5.57c-.09,1-.18,2-.26,2.94a6.47,6.47,0,0,1,.63-2.4c-.81,6.5-1.62,13-1.09,19.58a17.8,17.8,0,0,1,.38-4.55l.69,7.38c-.07-3.42-.13-6.84-.2-10.26C59,117.26,60,125.52,60.5,133.83c-2.31-4-3.3-8.66-4.26-13.21a87.27,87.27,0,0,0,3.94,18l.18-1.85A26,26,0,0,0,62,139.86a33.92,33.92,0,0,1-.12-8.89,14.89,14.89,0,0,0,1.34,4.31c-2.05-8.19-4.05-16.49-4-24.92a12.93,12.93,0,0,0-.53-4.89l-.93,2.58c.62-2.66,1.12-5.35,1.49-8a10.28,10.28,0,0,0-.61,2.73,25.85,25.85,0,0,0,.4-9.52c-.3,1-.6,2.05-.89,3.07A87.35,87.35,0,0,0,58.93,77a27.06,27.06,0,0,0-2.14,6.69c.5-2.74,2.68-6,1.37-8.86-.8,1.15-.78,3.29-.94,4.65A56.42,56.42,0,0,0,56.86,88.81Z"/><path class="cls-5" d="M63.57,90.09c-2.86.29-5.72-.51-8.49-1.3a2.78,2.78,0,0,0,1.39,1,32.34,32.34,0,0,0,7.7,2.17A3.26,3.26,0,0,0,67,91.42c.65-.67,1-2-.06-2.18C66.18,89.08,64.47,90,63.57,90.09Z"/><path class="cls-5" d="M56,106.87l10.76,1.22a1.22,1.22,0,0,0,1-.16,1,1,0,0,0,.26-.43c.55-1.41.54-1.85-.84-1.58-1.22.23-2.42.54-3.67.69A32.93,32.93,0,0,1,56,106.87Z"/><path class="cls-5" d="M64.53,121.92a34.49,34.49,0,0,1-9.38-1.08,10.15,10.15,0,0,0,2.42,1.43,22.14,22.14,0,0,0,10.86,1.85,2.06,2.06,0,0,0,.78-.17c1.17-.58,1.14-3.12-.33-3.24-.56,0-1.38.72-1.95.9A8.78,8.78,0,0,1,64.53,121.92Z"/><path class="cls-7" d="M62.09,52A98,98,0,0,1,68.9,23.07c2.4-6.13,5.35-12.17,9.84-17-4.14,6.22-4,14.22-4,21.69,0,10.75-.4,21.6-3,32-1.1,4.29-2.55,8.49-3.49,12.82a39,39,0,0,0-.9,6.55c0,1.15.37,2.8-.08,3.84-1-.89-1.32-2.65-1.74-3.87a66.87,66.87,0,0,1-2-7.36A71.61,71.61,0,0,1,62.09,52Z"/><path class="cls-2" d="M60.78,71.84c2.69,4,2.68,9.2,6.4,12.6.19-6.53,1.3-11.72.79-17.06a4.79,4.79,0,0,0-1.75-3.73,7.86,7.86,0,0,0-3.29-1c-3.37-.54-8.55-1.74-11.85-1.12.25.83,1.72,1.5,2.48,2.1a27.06,27.06,0,0,1,2.76,2.57A44.16,44.16,0,0,1,60.78,71.84Z"/><path class="cls-7" d="M93.15,37.89a5.1,5.1,0,0,1-3.36-1.07,1.34,1.34,0,0,0-.77-.4,1.12,1.12,0,0,0-.6.21c-3.06,1.83-5.32,4.72-7.4,7.61-2.27,3.17-5.44,7.11-6.24,11,2.31-2.44,4-5.47,6.38-7.91A62.86,62.86,0,0,1,93.15,37.89Z"/><path class="cls-8" d="M71.82,95.45a5.35,5.35,0,0,1-.77,2.73c-.32.45-.81.83-.88,1.37a2.74,2.74,0,0,0,.35,1.34,7.18,7.18,0,0,1,.31,2.62,45.93,45.93,0,0,1-1.7,11.59,8.5,8.5,0,0,0-.32,1.48,7.67,7.67,0,0,0,0,1.27,59,59,0,0,1,.07,8.41,5.8,5.8,0,0,1-.51,2.37c-.2.38-.48.71-.67,1.1a6.16,6.16,0,0,0-.09,3.71,29.91,29.91,0,0,1,.2,8.29c-.33,2.81-1,5.82.29,8.33,1.44,2.75,4.89,3.89,8,3.69a7.69,7.69,0,0,0,3.26-.87,7.12,7.12,0,0,0,3.13-4.41A20,20,0,0,0,83,143a52.63,52.63,0,0,1,.17-7.64,8.15,8.15,0,0,0,.11-2,13.42,13.42,0,0,0-.59-2,13.71,13.71,0,0,1-.31-4.34c.11-2.92.23-5.85.35-8.77l.45-11.09a14.79,14.79,0,0,1,.53-4,8.07,8.07,0,0,0,.41-1.41,6.65,6.65,0,0,0-.2-1.88,26.13,26.13,0,0,1,.22-8.18l1.32-9.94-8.07,3.53a8.88,8.88,0,0,1-3.31.6c-1.3.1.42,2.07.27,3.45C74,91.9,72.07,92.78,71.82,95.45Z"/><path class="cls-9" d="M75.13,153.92q-.28-11.25-1.47-22.45a46.91,46.91,0,0,1-.38-11c.46-3.59,1.81-7.19,1-10.71a2.9,2.9,0,0,1-.12-1.2,3.37,3.37,0,0,1,.74-1.22,9.35,9.35,0,0,0,1.34-4.81c.52-5.54,1.44-11.45,1-17a.78.78,0,0,1,0-.14,9.42,9.42,0,0,1-3.19.54c-1.29.1.21,1.72,0,3.1-.3,2.66-2.29,3.35-2.54,6-.09,1,.09,2.5-.48,3.27-.33.45-.81.83-.89,1.37A3,3,0,0,0,70.5,101a6.77,6.77,0,0,1,.31,2.62,46.38,46.38,0,0,1-1.69,11.59,5.9,5.9,0,0,0-.29,2.75,57.59,57.59,0,0,1,.07,8.41,5.79,5.79,0,0,1-.5,2.37c-.2.38-.48.71-.67,1.1a6.16,6.16,0,0,0-.09,3.71,29.91,29.91,0,0,1,.19,8.29c-.32,2.81-1,5.82.3,8.33S72.32,153.85,75.13,153.92Z"/><path class="cls-5" d="M77.06,120.57c.11-1.15.23-2.3.34-3.45a13.24,13.24,0,0,1-.16-3.39A22.43,22.43,0,0,0,77.06,120.57Z"/><path class="cls-5" d="M76.59,140.86a12.93,12.93,0,0,0,.48,4.8Z"/><path class="cls-5" d="M83.27,135.29a9.86,9.86,0,0,0,.15-1.95,15.36,15.36,0,0,0-.45-2,15.8,15.8,0,0,1-.13-4.3q.27-4.36.55-8.73.36-5.52.71-11a17.66,17.66,0,0,1,.58-4,10.19,10.19,0,0,0,.39-1.41A7.33,7.33,0,0,0,85,100a30.55,30.55,0,0,1,.43-8.13c.48-3.31.37-8.33.85-11.64-1.57.84-2.56,3.4-4.13,4.24,0,.82,0,1.61,0,2.27-.31,4.78-.85,9.55-1.63,14.28.79-2.45,1.57-4.9,2.36-7.35l-.24,2,.48-1q-1,7.74-2.09,15.47a32.41,32.41,0,0,1,0-6.68l-.52,2.66c-.12-1.3-.25-2.61-.37-3.91L78.4,117.32c0,.24.08.47.13.71L80,113.4l0,4.2c.44-1.52.89-3,1.33-4.56q-.82,10.54-1.66,21.11a49.82,49.82,0,0,1-.78-10.38l-.6,7.65c-.52-2.91-1-5.85-1.3-8.8l-.6,5.79a79.44,79.44,0,0,1,.87-17c-1.76,5.32-1.38,11.09-1,16.62l1,13a14,14,0,0,1,.7-3.27c.3.92.61,1.85.92,2.78.09-1.36.19-2.72.28-4.08q.51,4.25.84,8.52l.8-11.63q-.09,5.28-.19,10.55a25.87,25.87,0,0,1-.52,5.69l-1.41-3.73.18,1.49-.41-.95a36.34,36.34,0,0,1,.69,6.78c.15-.08.29-.17.43-.26a7.75,7.75,0,0,0,2.8-4.48,22.7,22.7,0,0,0,.54-5.51A62.4,62.4,0,0,1,83.27,135.29Z"/><path class="cls-6" d="M72.91,100c.69-1.67,1.33-3.36,1.9-5.07a104.64,104.64,0,0,1-4,18A17.85,17.85,0,0,1,73,107.55l-.57,2.9a6.48,6.48,0,0,1,.88-2.32c-1.47,6.38-2.95,12.81-3.09,19.36a18.07,18.07,0,0,1,.84-4.49q0,3.7-.07,7.41.44-5.11.85-10.23c.23,8.32.46,16.65.06,25C70,140.9,69.52,136.19,69,131.57a88.14,88.14,0,0,0,2.07,18.31c.13-.61.25-1.22.38-1.83a25.2,25.2,0,0,0,1.28,3.25,34.26,34.26,0,0,1,.8-8.86,14.79,14.79,0,0,0,.89,4.42c-1.2-8.35-2.34-16.81-1.43-25.2a12.72,12.72,0,0,0,0-4.92c-.39.83-.79,1.65-1.19,2.47q1.33-3.87,2.31-7.85a10.45,10.45,0,0,0-.88,2.65,25.76,25.76,0,0,0,1.36-9.42l-1.2,3a87.25,87.25,0,0,0,2.8-19.15,27.57,27.57,0,0,0-2.82,6.44c.78-2.67,3.27-5.64,2.27-8.67-.91,1.06-1.11,3.19-1.41,4.53A55.77,55.77,0,0,0,72.91,100Z"/><path class="cls-5" d="M79.46,102c-2.88,0-5.64-1.09-8.32-2.16a2.9,2.9,0,0,0,1.28,1.11,33.35,33.35,0,0,0,7.44,2.95,3.28,3.28,0,0,0,2.91-.22c.72-.6,1.23-1.85.16-2.18C82.16,101.21,80.36,102,79.46,102Z"/><path class="cls-5" d="M70.17,117.86l10.57,2.32a1.21,1.21,0,0,0,1-.06,1.11,1.11,0,0,0,.31-.4c.69-1.35.73-1.79-.67-1.66s-2.47.29-3.73.31A31.67,31.67,0,0,1,70.17,117.86Z"/><path class="cls-5" d="M77.14,133.71a34.12,34.12,0,0,1-9.21-2,10.1,10.1,0,0,0,2.26,1.67,22.1,22.1,0,0,0,10.61,3,1.91,1.91,0,0,0,.79-.09c1.23-.46,1.45-3,0-3.25-.55-.1-1.45.57-2,.69A9,9,0,0,1,77.14,133.71Z"/><path class="cls-10" d="M78.2,101.78a32.85,32.85,0,0,1-5.67-1.48,31.62,31.62,0,0,0,8.23,2.5,3.35,3.35,0,0,0,2.82-.25,1.09,1.09,0,0,0,.38-1.29c-.89.08-1.82.52-2.76.61A13.09,13.09,0,0,1,78.2,101.78Z"/><path class="cls-10" d="M69.18,117.73,77.29,119a13.19,13.19,0,0,0,3.91.23,2.06,2.06,0,0,0,.91-.31c1-.68.53-1.73-.55-1.56-1.37.22-2.7.58-4.09.72A28.1,28.1,0,0,1,69.18,117.73Z"/><path class="cls-10" d="M74.59,133.59l-5.53-1.47c2.36.49,4.41,1.92,6.7,2.66,1.65.54,3.48.74,4.83,1.82.42.33.9.76,1.4.57a1.1,1.1,0,0,0,.42-.35c.43-.53,1.09-1.87.72-2.57s-1.63.13-2.32.2A17.57,17.57,0,0,1,74.59,133.59Z"/><path class="cls-11" d="M77.76,93.9a44.82,44.82,0,0,0,4.13-4.58c2-2.56,3.8-5.62,3.48-8.86-.06-.63.17-1.59-.23-2.08-.71-.87-2.38-.69-3.48-.49a6.66,6.66,0,0,0-2.42,1A11,11,0,0,0,77,81a24.22,24.22,0,0,0-4.36,7.08,16.06,16.06,0,0,0-1,4.09c-.11,1.06-.39,3.12.18,4.09C73,98.14,76.88,94.76,77.76,93.9Z"/><path class="cls-12" d="M86.25,79.36A2,2,0,0,0,85.76,78c-.71-.87-2.83-.91-4-.53a12.31,12.31,0,0,0-2.56,1.41A11,11,0,0,0,77,81a24.22,24.22,0,0,0-4.36,7.08,16.06,16.06,0,0,0-1,4.09c-.11,1.06-.39,3.12.18,4.09,1.11,1.88,5-1.5,5.92-2.36a44.82,44.82,0,0,0,4.13-4.58C83.89,86.76,86.57,82.6,86.25,79.36Zm-2.41,4.53a56.92,56.92,0,0,1-4.55,7,14.89,14.89,0,0,1-4.76,4.46,1.92,1.92,0,0,1-1.55.26c-.83-.33-.94-1.44-.84-2.33A20.3,20.3,0,0,1,79.8,79.54C81.29,78.38,83.92,77,85,79,85.56,80.16,84.48,82.73,83.84,83.89Z"/><path class="cls-13" d="M78.77,85c-.29-1.59,1.57-2.93,1.41-4.54a5.33,5.33,0,0,0-1.68,2.8,9.34,9.34,0,0,1-.73,3,1.16,1.16,0,0,1-.25-1.23A11.52,11.52,0,0,0,78,83.86a1,1,0,0,0-.45-1.14,8.14,8.14,0,0,0-.6,4.38c-.46-.14-.46-.78-.37-1.25s.12-1.09-.32-1.28a1.77,1.77,0,0,0-.38,1.51,5.19,5.19,0,0,0,.58,1.5c-.17.19-.5,0-.6-.2a4.46,4.46,0,0,1-.13-.73c-.07-.24-.3-.49-.53-.4a.5.5,0,0,0-.28.32,2.73,2.73,0,0,0-.23,1.23.69.69,0,0,1,1.07.09c.19.37-.25.9-.63.72-.19-.1-.3-.33-.51-.38s-.52.23-.67.49c-.28.53-.56,1.06-.85,1.59.44-.28.88-.55,1.33-.81a.66.66,0,0,1,.4-.13c.14,0,.28.15.23.29s-.12.12-.2.16a4.91,4.91,0,0,0-2.28,2.61,10.31,10.31,0,0,0,3.15-3.19c.33-.52.66-1.12,1.24-1.32a4.5,4.5,0,0,1-1.18,2c-1,1.14-2,2.28-2.92,3.43a1.43,1.43,0,0,0-.4.73c0,.28.22.6.5.54s.29-.21.39-.37l2.91-4.85L73.68,94.5c-.12.23-.2.58,0,.69s.36,0,.49-.19c1-1,1-2.71,1.81-3.88l-.49,2.11a2.21,2.21,0,0,0,1.4-1.7c.18-.75.14-1.53.26-2.29a7.58,7.58,0,0,1,1.22-2.9,14.66,14.66,0,0,0-.55,4.17A1.66,1.66,0,0,0,78.76,89c0-.62-.1-1.24-.08-1.86a1.77,1.77,0,0,1,.18.92c0,.31.22.68.54.67a.78.78,0,0,0,.48-.31,2.3,2.3,0,0,0,.53-.78.74.74,0,0,0-.26-.85,1.76,1.76,0,0,0-.61-.15c-.2,0-.43-.18-.43-.39a1.8,1.8,0,0,1,1.17.31.78.78,0,0,0,.42.2.6.6,0,0,0,.37-.15,2.71,2.71,0,0,0,1-2.26A8,8,0,0,1,79.4,85a9,9,0,0,0,3.12-1.9c.23-.25.38-.76,0-.87a.57.57,0,0,0-.44.12A16.42,16.42,0,0,0,80,83.9a4.68,4.68,0,0,1,1.48-1.42,3,3,0,0,0,1.5-2c.06-.66-.46-1.41-1.17-1s-1.12,1.89-1.49,2.56C79.83,83.08,79.3,84.05,78.77,85Z"/><path class="cls-14" d="M68.87,23a98,98,0,0,0-6.81,28.88,72.42,72.42,0,0,0,.53,15.29,6.87,6.87,0,0,0,1.06,1.53c1.68-3.61,1.68-7.47,2.09-11.34.49-4.61,1-9.22,1.67-13.82a150.69,150.69,0,0,1,6-27c.83-2.45,1.75-4.88,2.78-7.27.08-.18.16-.39.25-.6A58.56,58.56,0,0,0,68.87,23Z"/><path class="cls-3" d="M52.93,58.63a3.1,3.1,0,0,0-1.45-.05,3,3,0,0,0-1.54,1.54,27.68,27.68,0,0,0-2.52,8.7c-2.74,15.69-5.48,31.67-3.37,47.45a62.43,62.43,0,0,1,2.83-9l4.65-12.61c2-5.56,4.1-11.12,6.57-16.5,2-4.27,4.33-8.59,8.21-11.25.82-.57,1.79-1.18,1.91-2.17a2.16,2.16,0,0,0-1.15-2A6.26,6.26,0,0,0,64.74,62c-2-.31-4.29-.36-6.14-1.18A25.73,25.73,0,0,0,52.93,58.63Z"/><path class="cls-7" d="M50.93,63.4c-1,2.95-1.13,6.1-1.51,9.18C48.11,83.4,44.1,94,44.83,104.87a91.54,91.54,0,0,1,12.53-39.4A3.31,3.31,0,0,0,58,63.74c-.07-1.45-2.34-2.55-3.57-2.85C52.58,60.45,51.47,61.76,50.93,63.4Z"/></svg>