<svg id="हांथी" xmlns="http://www.w3.org/2000/svg" viewBox="0 0 150 160"><defs><style>.cls-1{fill:#fff;stroke:#fff;stroke-width:5px;}.cls-1,.cls-6{stroke-miterlimit:10;}.cls-2{fill:#797c7c;}.cls-3{fill:#ffecd6;}.cls-4{fill:#8c9091;}.cls-5{fill:#f19a94;}.cls-6{fill:none;stroke:#000;stroke-width:0.88px;}.cls-7{fill:#9d9fa0;}</style></defs><path class="cls-1" d="M142.53,109.91c8.59-10.4-8.76,1.79-18.24-21.48-3.19-36-32.14-74.32-69.64-49.11-18.31,9.25-27.9,3.87-38.08,20-5.49.91-10.6-13.68-7-17.71,6.28-.3,5.14-11.92.51-3.84,2.59-7.24-2.21-5.57-2.28-.26C5.91,29,3,36.82,6.82,40.14c-.46,1.18-1.13,4-1,10.12.13,12.7,9.88,11.55,9,12.62v0c-4.9,11.56.73,34.06-.9,40.36-1,9.29-13.61,43.95,7.63,34.69,12.84-20.79,14.94-13.8,24.92.16,14.52.62,8.09-12.11,5.94-22.28,48-11.17,3.37,24.27,31.11,23.19,11.73-19.13,11.26-13,23.19-1.36,26.76,5.06-17.78-40.54.81-52.3,9.6,2.27,17.35,27.33,32.14,27.48C140.69,121.13,143.37,115,142.53,109.91ZM50.11,137.45ZM53,136.34h0Zm23.4,1.51Zm2.84,1.32s0,0,0,0Zm35.44-3.32h0Z"/><path class="cls-2" d="M81,109.14s-10.38,24.66-7.2,26.93,8.45,5.91,11.65,1.06,13-20.65,13-20.65Z"/><path class="cls-3" d="M73.45,135.69s1.27-2.19,2.37-2.33.62,4.49.62,4.49,1.33-3.23,2.42-3.13.42,4.46.42,4.46S81,135.71,82.4,136s1.12,3,1.12,3-1.94,1.77-5.93-.13S73.45,135.69,73.45,135.69Z"/><path class="cls-2" d="M32.77,114.12s10.34,24.68,14.19,24,10.13-1.9,8.92-7.57-5.68-23.72-5.68-23.72Z"/><path class="cls-2" d="M95.71,36.64c-4.34-4.39-14.89-9.18-26.45-.67S54.47,85.24,73.32,90.6s27.57-16.72,27.57-16.72S114.34,55.5,95.71,36.64Z"/><path class="cls-4" d="M23.8,51.07A28.76,28.76,0,0,0,12.7,75.76c.91,16.51,1.82,19.71,1.22,27.46s-8.21,30.1-3.35,33.6,9.59,5.2,14.76-3.77,14.13-15.39,29.48-17.67,32.22-.3,40.67,10,10.41,13.23,14.37,12.69,9-3.57,4.56-11.17-11.1-18.45-11-28.23,2.58-17.06,7.9-11.58,10,14.73,19.79,22.78a24.22,24.22,0,0,0,8.5,2.89s-.16,4.83,2.12,3.93-.32-4.84.76-6.82,3.62-4.1,2.11-5.32-3.79.76-3.79.76-10.78-3.74-16.56-16.92-3.65-26.11-9.88-35.84S89.63,30.85,69,36.63,31.7,45.6,23.8,51.07Z"/><path class="cls-2" d="M79.3,37.6s-13.09-6.79-24.64,1.72S39.86,88.59,58.71,94,86.08,79.81,86.08,79.81,91.24,61.27,79.3,37.6Z"/><path class="cls-4" d="M81.73,35.17s-13.08-6.8-24.64,1.71-14.8,49.27,4.06,54.64S88.72,74.79,88.72,74.79,93.67,58.84,81.73,35.17Z"/><path class="cls-4" d="M15,62.48S6,62.25,5.81,50.26C5.63,41,7.23,39.36,7.23,39.36s2.81-.3,2.35,2S6.76,50.62,10.3,55s6.29,4.33,6.29,4.33l-1.79,3.6"/><path class="cls-4" d="M7.76,41C6.2,40,4,36.4,5.25,34.05s2.51,3.46,2.51,3.46S8.29,32.75,10,32.6s0,5.17,0,5.17,2.81-4.31,3.72-2.65S12.26,43.78,7.76,41Z"/><path class="cls-3" d="M9.25,134.39s1.32-2.59,3-2.13.54,5.87.54,5.87,2.05-4.73,3.57-4.12,1,5.14,1,5.14,1.63-4.61,3.07-3.7,1.42,1.87,1.09,2.45c-.84,1.49-4.14,2.49-7.12,1.3C9.1,137.07,9.25,134.39,9.25,134.39Z"/><path class="cls-3" d="M46.47,138.07s-.67-2.44,0-3.33,3.64,2.71,3.64,2.71-1.38-3.21-.54-3.92S53,136.35,53,136.35s-1.29-3.63-.1-4.47,2.92,1.3,2.92,1.3-.09,2.63-4.24,4.15S46.47,138.07,46.47,138.07Z"/><path class="cls-3" d="M106.7,137.61s-1.31-2.56.26-3.63,3.7,3.25,3.7,3.25-1.37-4.06.45-5.07,3.61,3.7,3.61,3.7-1-5.05,0-5.53,1.72,1.42,1.72,1.42,1,3.56-3.65,5.86S106.7,137.61,106.7,137.61Z"/><path class="cls-5" d="M101.15,79.81c0,1.24-1.82,2.25-4.07,2.25S93,81.05,93,79.81s1.82-2.24,4.07-2.24S101.15,78.58,101.15,79.81Z"/><path class="cls-6" d="M105,81.71a3.56,3.56,0,0,0,2.61,3.72"/><path d="M105.59,75.14c0,.93-.52,1.68-1.16,1.68s-1.15-.75-1.15-1.68.52-1.68,1.15-1.68S105.59,74.22,105.59,75.14Z"/><path class="cls-7" d="M26.36,55.22c.15.63.44,1.73,1.25,1.87s2-1.07,2.27-1.46-1-1.69-1-2-.71-.45-1.07-.19C27.79,53.49,26.21,54.58,26.36,55.22Z"/><path class="cls-7" d="M32.11,55.23c-.26-.06-.67.64-.68.87s0,.94.28.82c0,0,1.23-.54,1-1S32.38,55.29,32.11,55.23Z"/><path class="cls-7" d="M27.77,59.31c-.22,0-.56.43-.43.66,0,0,.27.87.68.61s.63-.39.66-.66S28,59.31,27.77,59.31Z"/><path class="cls-7" d="M30.66,57.07c-.74-.32-1.12.4-1.36.73s-.51,1.09.18,1.27c0,0,1.42-.08,1.7-.42A1.12,1.12,0,0,0,30.66,57.07Z"/><path class="cls-7" d="M25.57,59.33c.69.42,1.16-.25,1.44-.54s.65-1,0-1.29c0,0-1.41-.1-1.73.2A1.11,1.11,0,0,0,25.57,59.33Z"/><path class="cls-7" d="M22.69,61.47c.15.64.45,1.73,1.25,1.87s2-1.07,2.28-1.46-1-1.69-1-2-.71-.45-1.06-.19C24.13,59.74,22.54,60.83,22.69,61.47Z"/><path class="cls-7" d="M27.66,61.74c-.27-.06-.67.64-.69.87s0,1,.28.83c0,0,1.24-.55,1-1S27.92,61.8,27.66,61.74Z"/><path class="cls-7" d="M22.85,65.86c-.22,0-.56.43-.42.66,0,0,.26.87.67.61s.63-.39.67-.66S23.07,65.86,22.85,65.86Z"/><path class="cls-7" d="M31,52.69c-.22,0-.57.43-.43.66,0,0,.27.87.68.61s.62-.39.66-.66S31.18,52.69,31,52.69Z"/><path class="cls-7" d="M20.61,69.44c-.22,0-.56.43-.42.67,0,0,.26.86.67.6s.63-.39.67-.66S20.83,69.44,20.61,69.44Z"/><path class="cls-7" d="M24.91,55c-.22,0-.56.43-.43.66,0,0,.27.87.68.6s.63-.38.67-.65S25.13,55,24.91,55Z"/><path class="cls-7" d="M26.28,64c-.53-.61-1.18-.11-1.54.08s-.92.78-.36,1.23c0,0,1.32.53,1.72.33A1.1,1.1,0,0,0,26.28,64Z"/><path class="cls-7" d="M24,57.18c-.53-.6-1.18-.1-1.54.09s-.92.78-.36,1.23c0,0,1.32.53,1.72.33A1.11,1.11,0,0,0,24,57.18Z"/><path class="cls-7" d="M20,64.13c-.53-.6-1.19-.1-1.54.09s-.92.78-.36,1.23c0,0,1.32.53,1.71.33A1.11,1.11,0,0,0,20,64.13Z"/><path class="cls-7" d="M21.42,60.35c-.54-.6-1.19-.1-1.55.09s-.92.78-.36,1.23c0,0,1.32.53,1.72.33A1.12,1.12,0,0,0,21.42,60.35Z"/><path class="cls-7" d="M21.64,67c-.54-.61-1.19-.11-1.55.09s-.92.77-.36,1.23c0,0,1.32.52,1.72.33A1.12,1.12,0,0,0,21.64,67Z"/><path class="cls-7" d="M21.12,64.94c.31.75,1.09.48,1.49.41s1.12-.44.74-1c0,0-1.09-.92-1.53-.86A1.11,1.11,0,0,0,21.12,64.94Z"/><path class="cls-7" d="M107.25,122.28c-.64-.12-1.76-.3-2.22.38s.17,2.24.4,2.67,2-.26,2.2-.14.71-.46.61-.89C108.24,124.3,107.89,122.41,107.25,122.28Z"/><path class="cls-7" d="M104.88,127.53c.16-.22-.31-.88-.51-1s-.88-.36-.87-.09c0,0,0,1.35.48,1.32S104.72,127.74,104.88,127.53Z"/><path class="cls-7" d="M102.94,121.89c.08-.2-.17-.69-.43-.66,0,0-.9-.11-.83.37s.1.73.32.88S102.85,122.1,102.94,121.89Z"/><path class="cls-7" d="M103.8,125.45c.6-.54.09-1.19-.11-1.54s-.79-.91-1.23-.35c0,0-.51,1.32-.31,1.72A1.11,1.11,0,0,0,103.8,125.45Z"/><path class="cls-7" d="M103.82,119.88c-.66.46-.24,1.17-.09,1.54s.66,1,1.18.51c0,0,.67-1.25.53-1.67A1.12,1.12,0,0,0,103.82,119.88Z"/><path class="cls-7" d="M103.05,116.38c-.64-.12-1.76-.3-2.22.37s.17,2.24.4,2.68,2-.26,2.2-.14.7-.46.61-.89C104,118.4,103.69,116.5,103.05,116.38Z"/><path class="cls-7" d="M100.77,120.8c.16-.22-.31-.88-.51-1s-.88-.36-.87-.09c0,0,0,1.35.48,1.32S100.6,121,100.77,120.8Z"/><path class="cls-7" d="M99,114.73c.08-.21-.17-.69-.43-.66,0,0-.9-.12-.83.36s.1.74.32.88S98.89,114.93,99,114.73Z"/><path class="cls-7" d="M107.67,127.51c.09-.2-.16-.69-.43-.65,0,0-.9-.12-.83.36s.1.73.33.88S107.58,127.72,107.67,127.51Z"/><path class="cls-7" d="M108.06,121.06c.09-.2-.16-.69-.43-.66,0,0-.9-.11-.82.37s.09.73.32.88S108,121.26,108.06,121.06Z"/><path class="cls-7" d="M99.28,118.62c.78-.24.59-1,.56-1.44s-.34-1.16-1-.83c0,0-1,1-1,1.43A1.1,1.1,0,0,0,99.28,118.62Z"/><path class="cls-7" d="M106.43,119.31c.77-.24.58-1,.55-1.44s-.33-1.16-1-.84c0,0-1,1-1,1.44A1.12,1.12,0,0,0,106.43,119.31Z"/><path class="cls-7" d="M101.74,112.8c.77-.24.58-1,.55-1.45s-.33-1.16-1-.83c0,0-1,1-1,1.43A1.12,1.12,0,0,0,101.74,112.8Z"/><path class="cls-7" d="M104.59,115.67c.77-.24.58-1,.55-1.44s-.33-1.16-1-.84c0,0-1,1-1,1.44A1.12,1.12,0,0,0,104.59,115.67Z"/><path class="cls-7" d="M100.53,113.52c-.81,0-.89.8-1,1.19s-.05,1.21.66,1.11c0,0,1.28-.62,1.41-1A1.11,1.11,0,0,0,100.53,113.52Z"/><path class="cls-2" d="M12.52,120.21a45,45,0,0,1,10.91,3.44c.14.06.26-.14.12-.21a38.72,38.72,0,0,0-11-3.45c-.15,0-.21.2-.06.22Z"/><path class="cls-2" d="M18.9,119.31c3,1,5.74,2.44,8.62,3.65.13.05.22-.17.09-.23A68.22,68.22,0,0,0,19,119.07c-.15,0-.22.18-.07.24Z"/><path class="cls-2" d="M17.08,115.65a59.38,59.38,0,0,1,8.56,4.08c.18.1.34-.17.16-.27a50.45,50.45,0,0,0-8.66-4c-.14-.05-.2.17-.06.22Z"/><path class="cls-2" d="M22.83,115.84a67.85,67.85,0,0,1,6.67,3.58c.17.11.32-.16.15-.27a47.14,47.14,0,0,0-4.6-2.59,6.06,6.06,0,0,0-2.16-.93c-.11,0-.17.16-.06.21Z"/><path class="cls-2" d="M96.53,123.35c3.21-1.94,6.15-4.26,9.44-6.06.17-.09,0-.34-.15-.26-3.33,1.71-6.27,4.09-9.41,6.1-.14.09,0,.31.12.22Z"/><path class="cls-2" d="M98.76,124.26a17.15,17.15,0,0,0,3.24-2.39,19.48,19.48,0,0,1,5.75-3.09.1.1,0,0,0-.06-.2,13.63,13.63,0,0,0-4.51,2c-1.58,1.07-2.85,2.53-4.54,3.47-.14.07,0,.28.12.21Z"/><path class="cls-2" d="M101.77,125c1.63-.58,2.8-2.26,4.18-3.25a.11.11,0,0,0-.11-.2c-1.59.81-2.51,2.51-4.15,3.25-.12,0,0,.24.08.2Z"/><path class="cls-2" d="M102.42,128a21.08,21.08,0,0,0,4-3.38.13.13,0,0,0-.19-.19,34.61,34.61,0,0,1-3.94,3.32c-.16.1,0,.36.15.25Z"/><path class="cls-2" d="M117.08,85.36a27.07,27.07,0,0,1,5.34-1.09c.19,0,.19-.32,0-.3A24.35,24.35,0,0,0,117,85.11a.13.13,0,0,0,.07.25Z"/><path class="cls-2" d="M119.61,88.8c1.13-.32,2.15-1,3.25-1.4.17-.06.1-.35-.08-.28-1.1.42-2.15,1-3.24,1.44-.14.06-.09.29.07.24Z"/><path class="cls-2" d="M119.75,94.07c1.18-.76,2.51-1.19,3.74-1.84.15-.07,0-.28-.12-.21a28.88,28.88,0,0,0-3.76,1.81c-.14.1,0,.33.14.24Z"/><path class="cls-2" d="M119.33,92.11a25.16,25.16,0,0,0,3.35-1.81c.11-.09,0-.28-.12-.2-1.08.69-2.23,1.21-3.34,1.84-.11.06,0,.23.11.17Z"/><path class="cls-2" d="M124.37,95.17a5,5,0,0,0,1.23-.79,8.35,8.35,0,0,1,1.54-.94c.12-.06,0-.24-.09-.21-1,.22-1.85,1.23-2.76,1.74-.11.06,0,.25.08.2Z"/><path class="cls-2" d="M107.9,66.46c.65-.73,2.12-.87,3-1.08a14.82,14.82,0,0,1,5.67-.11c.13,0,.19-.17.06-.2a11.9,11.9,0,0,0-5.81.05c-.93.22-2.51.37-3.13,1.21-.07.1.09.21.17.13Z"/><path class="cls-2" d="M110.79,70.34a19.22,19.22,0,0,1,4.46-.92c.11,0,.08-.21,0-.2a16.37,16.37,0,0,0-4.51.92c-.11,0,0,.24.08.2Z"/><path class="cls-2" d="M68.5,89.49c-10.26.68-15.33-10-17.23-18.3-.06-.28-.48-.16-.42.12,1.78,8.43,7.3,19.35,17.65,18.38.13,0,.13-.21,0-.2Z"/><path class="cls-2" d="M56.83,45.2c0-3.71,4.25-7.29,7.21-8.94,4.08-2.28,7.89-.87,11.91.37.17.06.29-.21.13-.28-4.2-1.81-8-2.43-12.25-.45-3.13,1.44-7.39,5.59-7.19,9.3,0,.12.2.12.19,0Z"/><path class="cls-2" d="M51,67.87a48.47,48.47,0,0,1-.42-5.24.12.12,0,0,0-.23,0,16.65,16.65,0,0,0,.4,5.31c0,.16.28.09.25-.07Z"/></svg>