<svg id="दही" xmlns="http://www.w3.org/2000/svg" viewBox="0 0 150 160"><defs><style>.cls-1,.cls-8{fill:#f9ecbd;}.cls-1{stroke:#fff;stroke-miterlimit:10;stroke-width:5px;}.cls-2{fill:#912b00;}.cls-3{fill:#741700;}.cls-4{fill:#872604;}.cls-5{fill:#a8360e;}.cls-6{fill:#efddb1;}.cls-7{fill:#ead3a3;}</style></defs><path class="cls-1" d="M119.86,64.36a9.68,9.68,0,0,0,2.86-6.5V51.15c0-10.11-19.79-18.37-44.77-19a16.66,16.66,0,0,0-9.2-.33,6,6,0,0,1,.55.43c-23.66,1.12-42,9.14-42,18.88v6.71a9.68,9.68,0,0,0,2.86,6.5A34.45,34.45,0,0,0,24,83.75c0,16.47,12.18,30.66,29.71,37.12,3.26,4.53,11.89,7.77,22.06,7.77,10.79,0,19.86-3.65,22.59-8.61C114.77,113.23,126,99.54,126,83.75A34.45,34.45,0,0,0,119.86,64.36Z"/><path class="cls-2" d="M126,83.75a34.45,34.45,0,0,0-6.1-19.39,9.68,9.68,0,0,0,2.86-6.5V51.15c0-10.51-21.36-19-47.72-19s-47.72,8.51-47.72,19v6.71a9.68,9.68,0,0,0,2.86,6.5A34.45,34.45,0,0,0,24,83.75c0,16.47,12.18,30.66,29.71,37.12,3.26,4.53,11.89,7.77,22.06,7.77,10.79,0,19.86-3.65,22.59-8.61C114.77,113.23,126,99.54,126,83.75Z"/><ellipse class="cls-3" cx="75" cy="51.8" rx="40.04" ry="15.37"/><path class="cls-4" d="M32.36,66s4.44,8.49,32,11.73,42.06-4.85,46.5-7.28,11.4,15.67,1.62,30.33c-12.13,18.2-32.76,23.86-58.24,14.16C30.53,105.87,21,85.77,32.36,66Z"/><path class="cls-3" d="M32.36,66s10.11,10.92,38,11.73,38.83-6.07,38.83-6.07-19.42,17-45.3,16.58S32.36,66,32.36,66Z"/><path class="cls-3" d="M37.61,104.78a53,53,0,0,0,40,15.77c25.08-1.21,33.57-17.8,33.57-17.8A53.9,53.9,0,0,1,72.39,116.1C51.36,114.89,37.61,104.78,37.61,104.78Z"/><path class="cls-5" d="M49.75,38.65s-10.52,2.43-14.56,8.29-1.6,10.13,6.67,14.76,27.3,6.68,27.3,6.68-18.4,2-30.33-3.64c-9.43-4.48-10.52-9.3-10.52-9.3a56.07,56.07,0,0,1,0-5.87c.2-1.21,3.84-6.47,9.3-9.1S51.77,37.64,49.75,38.65Z"/><path class="cls-5" d="M107.58,41.89s7.08,2.42,8.09,8.49-4.17,9.43-10.11,12.13c-4.45,2-12.14,3.64-12.14,3.64s9.51.61,17.6-2c6.32-2,9.9-5.46,10.11-8.29a34.22,34.22,0,0,0-.41-7.28C120.52,47.55,116.07,41.69,107.58,41.89Z"/><path class="cls-6" d="M38.56,52.87c-3.71,6.37,11.32,14.83,39.9,14,25.6-.72,35.26-8.84,34.78-12.67-.81-6.47-16.72-14.39-42.33-12.94C47.18,42.63,40.44,49.64,38.56,52.87Z"/><path class="cls-6" d="M68.75,31.84s4.86-1.61,11.33,1.08c6,2.51,10,8.36,1.35,10.52s-24.27-.27-24.27-.27,8.09-1.89,12.13-5.12S68.75,31.84,68.75,31.84Z"/><path class="cls-6" d="M45.3,48s2.15-4.85,11.86-7.28,29.93-2.16,39.9,1.35,3,10.78-16.71,12.4A70.13,70.13,0,0,1,45.3,48Z"/><path class="cls-7" d="M73.88,31.84s5.93.81,8.89,3.51,3.24,5.12,0,7-12.4.4-12.4.4a17.3,17.3,0,0,0,7.28-3.1C80.62,37.24,73.88,31.84,73.88,31.84Z"/><path class="cls-7" d="M87.76,40.74s6.34.68,9.57,2.16S103.13,47.62,96,51s-24.67,5-36,2.42S47.18,47.48,48.8,45.59s5-2.83,5-2.83-2.7,1.19-2.7,2.7c0,2.16,5.94,4.58,18.47,4.45,15-.16,21.87-2.85,21.57-5.8C90.86,41.42,87.76,40.74,87.76,40.74Z"/><path class="cls-7" d="M42.06,49.77S39.64,52.2,39.23,54c-.75,3.25,4.45,9.3,22.51,11.46s34.38,0,42.6-4.31S113,53.68,110.54,51a17.28,17.28,0,0,0-6.33-4.05s4.24,2,1.35,7c-2.56,4.45-10.25,9-27.77,9.3S49.21,60,46.11,55.84s.27-8.36.27-8.36A19,19,0,0,0,42.06,49.77Z"/><path class="cls-7" d="M59.32,54s9.16,2.7,23.72.95,17.39-5.4,17.39-5.4.68,4.59-14.83,6.88S59.32,54,59.32,54Z"/><path class="cls-7" d="M46.24,49.77s-2.56,4.59,3.37,8.09S69,62.72,77.52,62.45s11.32-1.08,11.32-1.08-16,1.21-29.52-2.16S46.24,49.77,46.24,49.77Z"/><path class="cls-7" d="M63.5,40.47s-5.94.41-9,2.29S53,47.35,60.13,48.7s18.06,0,18.06,0-10.38.4-16.45-1.08S54.19,42.63,63.5,40.47Z"/><path class="cls-8" d="M70.37,32.28a6.33,6.33,0,0,1,5.26,2.33c2.27,2.56,1.43,4.91-1.92,6.06a20.4,20.4,0,0,1-10.52.71s4.65-.81,7.28-3.54S70.37,32.28,70.37,32.28Z"/><path class="cls-8" d="M67.84,40.07a41.5,41.5,0,0,0-7.28,1.82c-2.73,1.11-3.43,3.74,3.75,5.36s17.08.1,17.08.1a26.58,26.58,0,0,1-9.2-1.22c-4.24-1.61-5.55-3.28-2.43-4a17.53,17.53,0,0,0,5.16-2Z"/><path class="cls-8" d="M102.83,46.74s4.24,1.72,2,6.57-11.22,7.18-18.6,7.38-12.74-2.93-12-2.83a65,65,0,0,0,18.51-2.32C101.51,53,102.52,48.86,102.83,46.74Z"/><path class="cls-8" d="M78.46,46.13s4.18,1.22,7.41.41,3.11-2.43,0-3S75.63,45.19,78.46,46.13Z"/><path class="cls-8" d="M68.89,60.15c3,.22,4.72.27,3.64-1.07s-5.93-2.57-8-2.7-5.52.94-5,1.75S67,60,68.89,60.15Z"/><path class="cls-8" d="M60,55.57c-1.58-1.23-4.18-.94-6.06-.67s-.14,1.48,1.75,2.15S61.2,56.51,60,55.57Z"/></svg>