<svg id="रूमाल" xmlns="http://www.w3.org/2000/svg" viewBox="0 0 150 160"><defs><style>.cls-1,.cls-7{fill:#fff;}.cls-1{stroke:#fff;stroke-miterlimit:10;stroke-width:5px;}.cls-2{fill:#0e9995;}.cls-3{fill:#00c3cc;}.cls-4{fill:#00a6af;}.cls-5{fill:#006bb8;}.cls-6{fill:#aad1de;}.cls-7{opacity:0.18;}</style></defs><path class="cls-1" d="M88.5,127.43h0l-.72-8.16h0l-.14-1.61h0l-.25-2.78,14.51-9.6-2.84-13-.1-.43h0l-1.47-6.76h0l-.08-.33L95.12,74.2c2.19-.61,3.5-.92,3.5-.92a139.71,139.71,0,0,0-1.49-17.54l0-.09h0c-.28-2-.59-4.13-.92-6.23v0h0c-2.89-18.2-7.54-37.41-9.3-37.71-2.62-.43-2.8.51-6.85-1s-6.34-1.09-9.19.88-3.17,1.93-5.24,1-4.82,2.18-4.82,2.18L53.35,64.92h0l-.28,1.87h0l-5,33.61,4.27,3.66L49.7,119.28l11.92,6.58c.22,2.52.53,5,1,7.52h0c.1.59.21,1.17.32,1.76h0c.39,2.06.85,4.1,1.41,6.1h0c.15.55.31,1.09.47,1.62h0a58.65,58.65,0,0,0,2.81,7.42s7-2.85,10.28-5.91,8.1-9.62,11.38-8.75l-.61-6.87Z"/><polygon class="cls-2" points="78.18 21.68 89.22 135.61 48.1 100.4 64.5 14.66 78.18 21.68"/><path class="cls-3" d="M69.75,42.66S61,96.46,61,110s.88,28,6.56,40.25c0,0,7-2.85,10.28-5.91s8.1-9.62,11.38-8.75L81.56,48.56Z"/><polygon class="cls-4" points="68.07 14.3 49.7 119.28 66.62 128.61 101.9 105.28 81.93 13.72 68.07 14.3"/><path class="cls-5" d="M99,91.81,65.84,116.29c-2.09-1.14-9.18-5-14.26-7.71l-.28,1.58c4.19,2.24,9.89,5.33,14.24,7.7l.43.23L99.32,93.44Z"/><polygon class="cls-5" points="64.23 108.79 97.49 85.06 97.14 83.43 64.19 106.95 53.1 99.88 52.81 101.51 64.23 108.79"/><path class="cls-5" d="M64.75,142.85c4.6-3.95,12.88-10.57,18.67-12.39,1.77-.55,3.53-1.05,5.21-1.49l-.13-1.54c-1.79.46-3.66,1-5.54,1.58-5.89,1.84-13.92,8.16-18.68,12.22C64.43,141.78,64.59,142.32,64.75,142.85Z"/><path class="cls-5" d="M62.88,135.14c5.61-4.67,15.14-11.87,24.9-15.87l-.14-1.61c-9.79,3.9-19.25,10.91-25.08,15.72C62.66,134,62.77,134.55,62.88,135.14Z"/><path class="cls-6" d="M98.62,73.28S58.16,82.9,48.1,100.4L60.78,14.66s2.74-3.17,4.82-2.18,2.4,1,5.24-1S76,9.12,80,10.65s4.23.59,6.85,1S98.62,54.91,98.62,73.28Z"/><path class="cls-5" d="M53.07,66.79c10.21-5.42,26.08-12.62,43.35-15.9l-.24-1.51C79.27,52.59,63.69,59.52,53.35,64.92Z"/><path class="cls-5" d="M52,73.78c10.32-5.56,27.07-13.31,45.28-16.62l-.21-1.51c-17.84,3.23-34.29,10.68-44.8,16.26Z"/><path class="cls-7" d="M75,11.85s-4.19.76-6.23,3.94.13,56.82,4.2,56.57S79.17,11.85,75,11.85Z"/><path class="cls-7" d="M64.29,15.16a4.12,4.12,0,0,0-2.66,3.17c-.51,2.55-4,60.77-1.91,60S66.58,15.67,64.29,15.16Z"/><path class="cls-7" d="M59.46,95.62s-6,16.53-5.21,19.2,7.88,10.29,12.84,10S95.69,103.5,97.47,101s-2.92-24-2.92-24S60.35,89.39,59.46,95.62Z"/><path class="cls-7" d="M66.07,132.49s2.17,13.22,3.56,13.22,8.78-9.92,12.84-10.43,3.69-8.77,3.56-11S67.6,128,66.07,132.49Z"/></svg>