<svg id="ढक्कन" xmlns="http://www.w3.org/2000/svg" viewBox="0 0 150 160"><defs><style>.cls-1,.cls-6{fill:#c0392b;}.cls-1,.cls-2,.cls-3,.cls-4,.cls-5{stroke:#fff;stroke-miterlimit:10;stroke-width:5px;}.cls-2,.cls-7{fill:#8f2a20;}.cls-3,.cls-8{fill:#e67e22;}.cls-4,.cls-9{fill:#f1c40f;}.cls-10,.cls-5{fill:#ffdc52;}</style></defs><path class="cls-1" d="M132.51,106a68.51,68.51,0,0,0-115,0Z"/><path class="cls-2" d="M83,98.87c-14,0-19.21-13.49-15.8-23.67A68.49,68.49,0,0,0,17.49,106h115a69.08,69.08,0,0,0-5.34-7.14Z"/><path class="cls-3" d="M79.49,70A1.93,1.93,0,0,1,80,68.71H70a1.91,1.91,0,0,1-1.45,3.17V72H81.42v-.14A1.94,1.94,0,0,1,79.49,70Z"/><rect class="cls-4" x="63.21" y="71.82" width="23.58" height="5.82" rx="2.9"/><path class="cls-4" d="M83.17,62.16A8.17,8.17,0,1,1,75,54,8.17,8.17,0,0,1,83.17,62.16Z"/><circle class="cls-5" cx="75" cy="58.58" r="4.59"/><path class="cls-5" d="M82.31,75.37H72.73A1.35,1.35,0,0,1,71.37,74h0a1.36,1.36,0,0,1,1.36-1.36h9.58A1.36,1.36,0,0,1,83.67,74h0A1.35,1.35,0,0,1,82.31,75.37Z"/><rect class="cls-4" x="14.15" y="106.01" width="121.7" height="4.09" rx="2.05"/><path class="cls-6" d="M132.51,106a68.51,68.51,0,0,0-115,0Z"/><path class="cls-7" d="M83,98.87c-14,0-19.21-13.49-15.8-23.67A68.49,68.49,0,0,0,17.49,106h115a69.08,69.08,0,0,0-5.34-7.14Z"/><path class="cls-8" d="M79.49,70A1.93,1.93,0,0,1,80,68.71H70a1.91,1.91,0,0,1-1.45,3.17V72H81.42v-.14A1.94,1.94,0,0,1,79.49,70Z"/><rect class="cls-9" x="63.21" y="71.82" width="23.58" height="5.82" rx="2.9"/><path class="cls-9" d="M83.17,62.16A8.17,8.17,0,1,1,75,54,8.17,8.17,0,0,1,83.17,62.16Z"/><circle class="cls-10" cx="75" cy="58.58" r="4.59"/><path class="cls-10" d="M82.31,75.37H72.73A1.35,1.35,0,0,1,71.37,74h0a1.36,1.36,0,0,1,1.36-1.36h9.58A1.36,1.36,0,0,1,83.67,74h0A1.35,1.35,0,0,1,82.31,75.37Z"/><rect class="cls-9" x="14.15" y="106.01" width="121.7" height="4.09" rx="2.05"/></svg>