<svg id="दर्पण" xmlns="http://www.w3.org/2000/svg" viewBox="0 0 150 160"><defs><style>.cls-1{opacity:0.09;}.cls-10,.cls-2,.cls-3,.cls-4,.cls-5,.cls-6,.cls-8{stroke:#fff;stroke-miterlimit:10;}.cls-2,.cls-3,.cls-4,.cls-5,.cls-6,.cls-8{stroke-width:5px;}.cls-11,.cls-3,.cls-6,.cls-9{opacity:0.38;}.cls-4{fill:none;}.cls-10,.cls-5{fill:#e5e5e5;}.cls-11,.cls-6{fill:#fff;}.cls-7,.cls-8{fill:#e5a3a3;}.cls-10{stroke-width:7px;}</style></defs><g class="cls-1"><path class="cls-2" d="M113.05,80.37c0,25.77-16.29,46.65-36.38,46.65S40.29,106.14,40.29,80.37,56.58,33.72,76.67,33.72,113.05,54.6,113.05,80.37Z"/><polygon class="cls-3" points="107 59.04 61.21 121.35 66.01 123.89 110.02 62.48 107 59.04"/><polygon class="cls-3" points="92.69 40.21 46.27 103.37 57.36 118.64 104.92 50.97 92.69 40.21"/><path d="M76.67,129.89c-21.43,0-38.87-22.22-38.87-49.52S55.24,30.85,76.67,30.85s38.87,22.22,38.87,49.52S98.11,129.89,76.67,129.89Zm0-93.31C58,36.58,42.79,56.22,42.79,80.37S58,124.16,76.67,124.16s33.88-19.65,33.88-43.79S95.35,36.58,76.67,36.58Z"/><path class="cls-4" d="M76.67,129.89c-21.43,0-38.87-22.22-38.87-49.52S55.24,30.85,76.67,30.85s38.87,22.22,38.87,49.52S98.11,129.89,76.67,129.89Zm0-93.31C58,36.58,42.79,56.22,42.79,80.37S58,124.16,76.67,124.16s33.88-19.65,33.88-43.79S95.35,36.58,76.67,36.58Z"/><path class="cls-2" d="M81.87,31.08C80,30.44,79.43,27.87,80,25.86a2.06,2.06,0,0,1,1.62-1.63c.55-.13,1.39-.11,1.65.58.07.2.32.8-.18.65-2.59-.77-3.69,3.83-1.1,4.6,2.94.87,5.82-1.74,5.58-5.29a5.58,5.58,0,0,0-7.06-5.14c-6.85,2-6.15,13.92.24,16.05,2.57.86,3.67-3.74,1.1-4.6Z"/><path class="cls-2" d="M90.93,32.1c3.23.3,3.27-4.88.32-5.62S84.62,30,86,33.31c1.83,4.33,7.82,2.26,11,2.49,2.34.17,6,.61,7.4,3s1.75,7.84-1.42,8.49c-1.32.26-.76,2.56.55,2.3,5.19-1.06,4.91-10.42,1.46-13.55-2.26-2-5.57-2.53-8.36-2.69a46.09,46.09,0,0,0-5.12.16c-1.06.06-2.71.28-3.45-.88a2.71,2.71,0,0,1,.68-3c.79-1.16,1.49-1.16,2.11,0-1.33-.12-1.33,2.26,0,2.39Z"/><path class="cls-2" d="M100.05,42.78c3.23.34,7,.78,9,4.2a16.08,16.08,0,0,1,1.57,4.41c.47,2.23-.46,3.54-1,5.53a1.06,1.06,0,1,0,2,.63c.6-2.3,1.64-3.9,1.09-6.39a18.66,18.66,0,0,0-2.24-6c-2.44-3.77-6.63-4.4-10.42-4.8-1.33-.14-1.33,2.25,0,2.39Z"/><path class="cls-2" d="M108,54.85a13.59,13.59,0,0,1,6,5.45,9.93,9.93,0,0,1,1.56,4.23c.15,2.18-.92,3.3-2,4.89-2.31,3.5-1.17,7.63,2.62,8.9a3.13,3.13,0,0,0,3.65-1.38c.82-1.14,1.86-3.43,1.42-5-.91-3.18-5.72-3.07-5.77.6a1,1,0,1,0,2.08,0c.9-.65,1.43-.43,1.59.67-.06.18-.11.37-.17.55a4.06,4.06,0,0,1-1.2,2.11c-.82.5-2.49-.6-3-1.39-1-1.5-.13-2.85.63-4,1.36-2,2.51-3.77,2.17-6.49-.67-5.37-4.9-9.58-9.06-11.5-1.24-.57-1.78,1.74-.55,2.3Z"/><path class="cls-2" d="M70.67,36.16c6.39-2.14,7.09-14.09.23-16.06a5.55,5.55,0,0,0-7,4.83c-.48,3.66,2.5,6.51,5.54,5.61,2.59-.77,1.49-5.38-1.11-4.61-.23.07-.33-.1-.33-.36,0-.74,1-.9,1.38-.89a2,2,0,0,1,2,1.65c.59,2,.08,4.58-1.85,5.23-2.56.85-1.47,5.46,1.11,4.6Z"/><path class="cls-2" d="M60.51,30.19c.61-1.16,1.32-1.15,2.1,0a2.7,2.7,0,0,1,.69,2.94c-.67,1.06-2.13,1-3.11.91a52.53,52.53,0,0,0-5.47-.19c-2.78.17-6.1.65-8.36,2.7-3.45,3.12-3.73,12.49,1.47,13.54,1.3.27,1.87-2,.55-2.3-3.07-.62-2.77-5.56-1.66-8.06,1.2-2.7,4.94-3.22,7.27-3.44s4.82.29,7.23.15a4.6,4.6,0,0,0,4.18-2.66c1.41-3.33-2.14-7.43-5.07-6.86s-3.13,6,.18,5.64c1.32-.12,1.33-2.51,0-2.38Z"/><path class="cls-2" d="M51.39,40.86c-3.8.41-8,1-10.42,4.8a18.53,18.53,0,0,0-2.25,6c-.53,2.52.49,4.07,1.1,6.4a1.05,1.05,0,1,0,2-.64c-.46-1.75-1.4-3.2-1.09-5.12a15.42,15.42,0,0,1,1.68-4.82c2-3.41,5.75-3.86,9-4.2,1.32-.14,1.33-2.53,0-2.39Z"/><path class="cls-2" d="M42.89,53c-4.16,1.91-8.38,6.12-9.06,11.5C33.49,67.25,34.65,69,36,71c.77,1.16,1.62,2.43.63,4a2.91,2.91,0,0,1-2.16,1.26c-1.17.17-1.44-.44-1.89-1.58a7.76,7.76,0,0,1-.33-1c.17-1.09.7-1.32,1.6-.66a1,1,0,1,0,2.08,0c-.06-3.67-4.86-3.79-5.78-.61-.43,1.48.57,3.7,1.34,4.83a3.2,3.2,0,0,0,3.73,1.51c3.84-1.21,4.89-5.45,2.63-8.91-.86-1.31-2-2.48-2-4.24a9.23,9.23,0,0,1,1.44-4.58,13.8,13.8,0,0,1,6.17-5.74c1.23-.56.69-2.87-.55-2.3Z"/><path class="cls-2" d="M81.84,126.09c-5.92,2.36-6,13.61.6,14.8a5.12,5.12,0,0,0,6-4.58c.43-3.34-2.36-6.12-5.18-5.1-2.3.83-1.32,5,1,4.16.88-.31.23,1-.24,1.2a2,2,0,0,1-2.27-.67c-1.17-1.64-.64-4.93,1.14-5.64,2.27-.91,1.29-5.08-1-4.17Z"/><path class="cls-2" d="M92.25,130.85q-.18,1.92-1.71.42A4.21,4.21,0,0,1,89,129.33c-.37-2.46,2.57-2.43,3.72-2.44a48,48,0,0,0,5.23-.14c2.82-.33,6.17-1,8.39-3.19,3.63-3.56,3.19-13-2.27-13.81-1.36-.19-1.34,2.24,0,2.44,3.14.45,2.83,6.34,1.58,8.62-1.4,2.57-5.31,3.22-7.7,3.5-3.23.38-9.08-1.28-10.79,3.09-1.36,3.46,2.43,7.46,5.4,6.76s3-6.26-.34-5.75c-1.33.2-1.35,2.64,0,2.44Z"/><path class="cls-2" d="M101.34,119.37c3.85-.64,8.12-1.63,10.33-5.73a20.07,20.07,0,0,0,1.85-5.91c.46-2.59-.65-4.12-1.38-6.45a1.07,1.07,0,1,0-2,.65c.61,2,1.64,3.33,1.28,5.57a15.87,15.87,0,0,1-1.54,4.92c-1.93,3.46-5.82,4.06-9.06,4.6-1.35.22-.77,2.57.56,2.35Z"/><path class="cls-2" d="M109.42,106.4c4-2.12,7.92-6.61,8.48-11.85.29-2.71-.73-4.53-2.23-6.49-1.63-2.14-2-5,1-5.76,1.16-.28,1.41.16,2,1.31a8,8,0,0,1,.44,1.09c0,1.14-.57,1.44-1.58.89-.09-1.55-2.21-1.57-2.12,0,.23,3.81,5.24,3.66,5.93.23.31-1.57-.83-3.83-1.74-4.93a3.18,3.18,0,0,0-4.24-.88,6.24,6.24,0,0,0-3.3,4.66c-.15,2.21,1.19,3.83,2.35,5.39,4,5.34-1.77,12-6,14.23-1.24.66-.16,2.76,1.07,2.11Z"/><path class="cls-2" d="M71.61,130.48c1.86.83,2.24,4.61.86,6.17a2.16,2.16,0,0,1-2.17.54c-.57-.22-1.38-1.66-.36-1.24,2.53,1,3.62-3.58,1.11-4.6-2.93-1.2-6,1.61-5.79,5.13A5.68,5.68,0,0,0,71.7,142c3.33-.5,5.23-3.4,5.62-7.1.42-4-1.33-7.52-4.6-9-2.5-1.11-3.58,3.5-1.11,4.61Z"/><path class="cls-2" d="M61.47,129c-3.17-.62-4,4.16-1.1,5.44,2.71,1.2,6.77-2.28,6-5.7-1-4.63-6.58-3.53-9.59-3.89-2.48-.29-5.65-.88-7.62-2.78s-2.64-9.13,1-9.49c1.33-.13,1.34-2.52,0-2.39-5.5.55-6,10.2-2.38,13.68,2.14,2,5.23,2.82,7.9,3.22,1.71.26,3.4.26,5.12.36,1.1.07,4.39.24,3.38,2.92a4.41,4.41,0,0,1-1.43,1.48c-1.46.95-2.09.76-1.87-.55,1.31.26,1.87-2,.56-2.3Z"/><path class="cls-2" d="M50.5,116.71c-3.1-.65-6.72-1.37-8.56-4.66a14.44,14.44,0,0,1-1.51-5.39c-.16-2,.86-3.38,1.48-5.15a1.05,1.05,0,1,0-2-.64c-.76,2.18-1.85,3.49-1.57,5.95a18.08,18.08,0,0,0,1.81,6.44c2.11,3.89,6.13,5,9.8,5.75,1.31.27,1.87-2,.55-2.3Z"/><path class="cls-2" d="M43.5,103.92a14.23,14.23,0,0,1-5.43-5.58,11.77,11.77,0,0,1-1.45-4.21c-.24-2.25.68-3.4,1.92-4.92s2.28-3.15,2-5.21a6.42,6.42,0,0,0-3.18-4.21,3.09,3.09,0,0,0-4,.78c-.93,1.06-2.22,3.33-1.83,4.94.81,3.31,5.45,3.4,5.79-.22.14-1.53-1.94-1.51-2.08,0-1.22.4-1.69.14-1.43-.78a2,2,0,0,1,.33-1.16c.72-1.56,1.58-2.1,3.2-.74,2,1.71.9,3.61-.41,5.17-1.59,1.9-2.61,3.76-2.32,6.51.52,5.07,4.11,9.47,7.92,11.69,1.19.69,2.24-1.36,1-2.06Z"/></g><path class="cls-5" d="M111.61,78.93c0,25.77-16.28,46.66-36.38,46.66S38.86,104.7,38.86,78.93,55.14,32.28,75.23,32.28,111.61,53.17,111.61,78.93Z"/><polygon class="cls-6" points="105.56 57.6 59.77 119.91 64.57 122.46 108.59 61.05 105.56 57.6"/><polygon class="cls-6" points="91.26 38.77 44.83 101.93 55.92 117.21 103.48 49.54 91.26 38.77"/><path class="cls-7" d="M75.23,128.45c-21.43,0-38.87-22.21-38.87-49.52S53.8,29.42,75.23,29.42s38.88,22.21,38.88,49.51S96.67,128.45,75.23,128.45Zm0-93.31c-18.68,0-33.88,19.65-33.88,43.79s15.2,43.79,33.88,43.79,33.89-19.64,33.89-43.79S93.92,35.14,75.23,35.14Z"/><path class="cls-4" d="M75.23,128.45c-21.43,0-38.87-22.21-38.87-49.52S53.8,29.42,75.23,29.42s38.88,22.21,38.88,49.51S96.67,128.45,75.23,128.45Zm0-93.31c-18.68,0-33.88,19.65-33.88,43.79s15.2,43.79,33.88,43.79,33.89-19.64,33.89-43.79S93.92,35.14,75.23,35.14Z"/><path class="cls-8" d="M80.44,29.64C78.51,29,78,26.43,78.59,24.42a2.06,2.06,0,0,1,1.61-1.63c.55-.13,1.39-.11,1.65.58.07.2.33.8-.17.65-2.6-.77-3.7,3.83-1.11,4.6,3,.88,5.82-1.74,5.58-5.29a5.57,5.57,0,0,0-7.05-5.14c-6.86,2-6.16,13.92.23,16.06,2.57.86,3.67-3.75,1.11-4.61Z"/><path class="cls-8" d="M89.49,30.66c3.23.3,3.28-4.88.32-5.62s-6.63,3.48-5.21,6.84c1.83,4.32,7.82,2.25,11,2.48,2.34.17,6,.61,7.4,3s1.75,7.83-1.42,8.48c-1.32.27-.76,2.57.55,2.3,5.19-1,4.92-10.42,1.46-13.55-2.25-2-5.57-2.53-8.36-2.69a43.63,43.63,0,0,0-5.11.17c-1.07.05-2.72.27-3.46-.89a2.68,2.68,0,0,1,.69-2.94c.78-1.16,1.48-1.17,2.1,0-1.33-.12-1.32,2.27,0,2.39Z"/><path class="cls-8" d="M98.61,41.34c3.24.34,7,.78,9,4.2A15.82,15.82,0,0,1,109.16,50c.48,2.22-.46,3.53-1,5.52a1.05,1.05,0,1,0,2,.64c.61-2.31,1.64-3.9,1.09-6.4a18.75,18.75,0,0,0-2.24-6C106.59,40,102.4,39.36,98.61,39c-1.33-.14-1.32,2.25,0,2.39Z"/><path class="cls-8" d="M106.55,53.42a13.64,13.64,0,0,1,6,5.44,10,10,0,0,1,1.55,4.23c.16,2.18-.92,3.3-2,4.89-2.3,3.5-1.17,7.63,2.63,8.9a3.12,3.12,0,0,0,3.64-1.38c.82-1.14,1.86-3.43,1.43-5-.92-3.18-5.72-3.07-5.78.61a1,1,0,1,0,2.08,0q1.35-1,1.59.66c0,.18-.11.37-.17.55a4,4,0,0,1-1.2,2.11c-.81.5-2.49-.6-3-1.38-1-1.51-.13-2.86.63-4,1.36-2,2.51-3.77,2.17-6.49-.66-5.37-4.9-9.58-9-11.49-1.24-.57-1.78,1.73-.56,2.3Z"/><path class="cls-8" d="M69.23,34.72c6.39-2.13,7.09-14.08.23-16.06a5.55,5.55,0,0,0-7,4.83C62,27.15,65,30,68,29.1c2.59-.77,1.49-5.37-1.1-4.6-.23.06-.34-.11-.34-.36,0-.75,1-.9,1.39-.9a2,2,0,0,1,2,1.65c.58,2,.07,4.59-1.86,5.23-2.56.85-1.47,5.46,1.11,4.6Z"/><path class="cls-8" d="M59.07,28.75c.62-1.15,1.32-1.15,2.11,0a2.71,2.71,0,0,1,.68,2.95c-.67,1-2.13.95-3.11.9a52.42,52.42,0,0,0-5.46-.18c-2.79.16-6.11.64-8.36,2.69-3.45,3.13-3.73,12.49,1.46,13.55,1.31.26,1.87-2,.55-2.31-3.07-.62-2.77-5.56-1.66-8.06,1.2-2.7,4.94-3.22,7.27-3.43s4.82.28,7.23.14A4.58,4.58,0,0,0,64,32.35c1.41-3.32-2.13-7.43-5.07-6.86s-3.12,6,.18,5.65c1.32-.13,1.34-2.52,0-2.39Z"/><path class="cls-8" d="M50,39.43c-3.8.4-8,1-10.42,4.8a18.2,18.2,0,0,0-2.24,6c-.54,2.51.48,4.06,1.09,6.39a1.05,1.05,0,1,0,2-.63c-.46-1.76-1.4-3.21-1.09-5.13A15.88,15.88,0,0,1,41,46c2-3.42,5.75-3.86,9-4.21,1.32-.14,1.33-2.52,0-2.38Z"/><path class="cls-8" d="M41.45,51.59c-4.16,1.92-8.37,6.12-9.05,11.5-.35,2.72.81,4.45,2.17,6.49.77,1.16,1.62,2.43.63,4a2.94,2.94,0,0,1-2.15,1.27c-1.18.16-1.44-.45-1.89-1.58a7.76,7.76,0,0,1-.33-1c.16-1.1.69-1.32,1.59-.67a1,1,0,1,0,2.08,0c0-3.66-4.86-3.78-5.78-.6-.42,1.47.58,3.69,1.35,4.82a3.17,3.17,0,0,0,3.72,1.51c3.84-1.21,4.89-5.45,2.63-8.91-.85-1.31-2-2.47-2-4.24a9.1,9.1,0,0,1,1.44-4.58A13.75,13.75,0,0,1,42,53.89c1.22-.56.69-2.87-.56-2.3Z"/><path class="cls-8" d="M80.4,124.66c-5.91,2.36-6,13.61.6,14.79a5.12,5.12,0,0,0,6-4.57c.43-3.35-2.36-6.12-5.17-5.11-2.31.83-1.32,5,1,4.16.88-.31.23,1-.23,1.21a2.07,2.07,0,0,1-2.28-.68c-1.17-1.63-.64-4.93,1.14-5.64,2.27-.91,1.29-5.08-1-4.16Z"/><path class="cls-8" d="M90.82,129.41c-.13,1.28-.7,1.42-1.72.42a4.27,4.27,0,0,1-1.51-1.94c-.37-2.46,2.58-2.43,3.73-2.44a47.82,47.82,0,0,0,5.22-.14c2.83-.32,6.17-1,8.39-3.19,3.63-3.56,3.19-13-2.27-13.81-1.35-.19-1.34,2.25,0,2.44,3.15.45,2.83,6.34,1.59,8.63-1.4,2.56-5.32,3.21-7.71,3.5-3.23.38-9.08-1.28-10.79,3.08-1.36,3.47,2.43,7.47,5.4,6.76s3-6.26-.33-5.75c-1.34.21-1.35,2.64,0,2.44Z"/><path class="cls-8" d="M99.91,117.93c3.84-.64,8.11-1.63,10.32-5.72a20,20,0,0,0,1.85-5.91c.46-2.6-.65-4.12-1.38-6.46a1.07,1.07,0,1,0-2,.65c.61,2,1.65,3.33,1.29,5.57A16.16,16.16,0,0,1,108.4,111c-1.93,3.46-5.81,4.06-9.06,4.6-1.34.22-.77,2.57.57,2.35Z"/><path class="cls-8" d="M108,105c4-2.12,7.92-6.61,8.48-11.85.29-2.71-.73-4.53-2.22-6.48-1.64-2.14-2-5,1-5.77,1.16-.28,1.4.16,2,1.31a8,8,0,0,1,.44,1.09c-.05,1.15-.57,1.45-1.57.89-.1-1.55-2.22-1.56-2.12,0,.22,3.81,5.24,3.67,5.92.24.31-1.58-.83-3.83-1.74-4.94a3.2,3.2,0,0,0-4.24-.88,6.25,6.25,0,0,0-3.3,4.66c-.14,2.22,1.2,3.83,2.35,5.39,4,5.34-1.77,12-6,14.23-1.23.66-.16,2.76,1.07,2.11Z"/><path class="cls-8" d="M70.17,129c1.86.83,2.24,4.62.86,6.17a2.14,2.14,0,0,1-2.17.54c-.57-.22-1.38-1.66-.35-1.24,2.52,1,3.61-3.58,1.1-4.6-2.93-1.2-6,1.62-5.79,5.13a5.67,5.67,0,0,0,6.44,5.48c3.33-.5,5.23-3.4,5.62-7.1.43-4-1.33-7.52-4.6-9-2.49-1.12-3.57,3.49-1.11,4.6Z"/><path class="cls-8" d="M60,127.56c-3.17-.63-4,4.15-1.1,5.44,2.71,1.19,6.77-2.29,6-5.71-1-4.63-6.58-3.53-9.59-3.88-2.48-.29-5.65-.89-7.62-2.79s-2.64-9.13,1-9.49c1.32-.13,1.33-2.52,0-2.38-5.51.54-6,10.19-2.38,13.68,2.13,2,5.22,2.81,7.9,3.22,1.7.26,3.4.25,5.11.35,1.1.07,4.39.24,3.38,2.92a4.44,4.44,0,0,1-1.43,1.49c-1.46.94-2.08.76-1.86-.55,1.31.25,1.87-2.05.55-2.3Z"/><path class="cls-8" d="M49.06,115.27c-3.09-.65-6.72-1.36-8.56-4.65a14.73,14.73,0,0,1-1.51-5.4c-.16-2,.86-3.37,1.48-5.15a1.05,1.05,0,1,0-2-.63c-.76,2.17-1.85,3.49-1.57,5.94a18.29,18.29,0,0,0,1.81,6.44c2.12,3.89,6.13,5,9.8,5.75,1.31.28,1.87-2,.55-2.3Z"/><path class="cls-8" d="M42.06,102.48a14.23,14.23,0,0,1-5.43-5.58,11.79,11.79,0,0,1-1.45-4.2c-.24-2.26.68-3.41,1.93-4.93s2.27-3.15,1.94-5.21a6.35,6.35,0,0,0-3.18-4.21,3.08,3.08,0,0,0-4,.79c-.94,1-2.23,3.32-1.84,4.94.82,3.3,5.45,3.39,5.79-.23.14-1.52-1.94-1.51-2.08,0-1.22.41-1.69.15-1.43-.78a1.89,1.89,0,0,1,.34-1.16c.72-1.56,1.58-2.1,3.19-.73,2,1.7.9,3.6-.4,5.16-1.6,1.91-2.62,3.76-2.33,6.52.52,5.07,4.11,9.46,7.92,11.68,1.19.7,2.25-1.36,1.05-2.06Z"/><g class="cls-1"><path d="M113.05,80.37c0,25.77-16.29,46.65-36.38,46.65S40.29,106.14,40.29,80.37,56.58,33.72,76.67,33.72,113.05,54.6,113.05,80.37Z"/><polygon class="cls-9" points="107 59.04 61.21 121.35 66.01 123.89 110.02 62.48 107 59.04"/><polygon class="cls-9" points="92.69 40.21 46.27 103.37 57.36 118.64 104.92 50.97 92.69 40.21"/><path d="M76.67,129.89c-21.43,0-38.87-22.22-38.87-49.52S55.24,30.85,76.67,30.85s38.87,22.22,38.87,49.52S98.11,129.89,76.67,129.89Zm0-93.31C58,36.58,42.79,56.22,42.79,80.37S58,124.16,76.67,124.16s33.88-19.65,33.88-43.79S95.35,36.58,76.67,36.58Z"/><path d="M81.87,31.08C80,30.44,79.43,27.87,80,25.86a2.06,2.06,0,0,1,1.62-1.63c.55-.13,1.39-.11,1.65.58.07.2.32.8-.18.65-2.59-.77-3.69,3.83-1.1,4.6,2.94.87,5.82-1.74,5.58-5.29a5.58,5.58,0,0,0-7.06-5.14c-6.85,2-6.15,13.92.24,16.05,2.57.86,3.67-3.74,1.1-4.6Z"/><path d="M90.93,32.1c3.23.3,3.27-4.88.32-5.62S84.62,30,86,33.31c1.83,4.33,7.82,2.26,11,2.49,2.34.17,6,.61,7.4,3s1.75,7.84-1.42,8.49c-1.32.26-.76,2.56.55,2.3,5.19-1.06,4.91-10.42,1.46-13.55-2.26-2-5.57-2.53-8.36-2.69a46.09,46.09,0,0,0-5.12.16c-1.06.06-2.71.28-3.45-.88a2.71,2.71,0,0,1,.68-3c.79-1.16,1.49-1.16,2.11,0-1.33-.12-1.33,2.26,0,2.39Z"/><path d="M100.05,42.78c3.23.34,7,.78,9,4.2a16.08,16.08,0,0,1,1.57,4.41c.47,2.23-.46,3.54-1,5.53a1.06,1.06,0,1,0,2,.63c.6-2.3,1.64-3.9,1.09-6.39a18.66,18.66,0,0,0-2.24-6c-2.44-3.77-6.63-4.4-10.42-4.8-1.33-.14-1.33,2.25,0,2.39Z"/><path d="M108,54.85a13.59,13.59,0,0,1,6,5.45,9.93,9.93,0,0,1,1.56,4.23c.15,2.18-.92,3.3-2,4.89-2.31,3.5-1.17,7.63,2.62,8.9a3.13,3.13,0,0,0,3.65-1.38c.82-1.14,1.86-3.43,1.42-5-.91-3.18-5.72-3.07-5.77.6a1,1,0,1,0,2.08,0c.9-.65,1.43-.43,1.59.67-.06.18-.11.37-.17.55a4.06,4.06,0,0,1-1.2,2.11c-.82.5-2.49-.6-3-1.39-1-1.5-.13-2.85.63-4,1.36-2,2.51-3.77,2.17-6.49-.67-5.37-4.9-9.58-9.06-11.5-1.24-.57-1.78,1.74-.55,2.3Z"/><path d="M70.67,36.16c6.39-2.14,7.09-14.09.23-16.06a5.55,5.55,0,0,0-7,4.83c-.48,3.66,2.5,6.51,5.54,5.61,2.59-.77,1.49-5.38-1.11-4.61-.23.07-.33-.1-.33-.36,0-.74,1-.9,1.38-.89a2,2,0,0,1,2,1.65c.59,2,.08,4.58-1.85,5.23-2.56.85-1.47,5.46,1.11,4.6Z"/><path d="M60.51,30.19c.61-1.16,1.32-1.15,2.1,0a2.7,2.7,0,0,1,.69,2.94c-.67,1.06-2.13,1-3.11.91a52.53,52.53,0,0,0-5.47-.19c-2.78.17-6.1.65-8.36,2.7-3.45,3.12-3.73,12.49,1.47,13.54,1.3.27,1.87-2,.55-2.3-3.07-.62-2.77-5.56-1.66-8.06,1.2-2.7,4.94-3.22,7.27-3.44s4.82.29,7.23.15a4.6,4.6,0,0,0,4.18-2.66c1.41-3.33-2.14-7.43-5.07-6.86s-3.13,6,.18,5.64c1.32-.12,1.33-2.51,0-2.38Z"/><path d="M51.39,40.86c-3.8.41-8,1-10.42,4.8a18.53,18.53,0,0,0-2.25,6c-.53,2.52.49,4.07,1.1,6.4a1.05,1.05,0,1,0,2-.64c-.46-1.75-1.4-3.2-1.09-5.12a15.42,15.42,0,0,1,1.68-4.82c2-3.41,5.75-3.86,9-4.2,1.32-.14,1.33-2.53,0-2.39Z"/><path d="M42.89,53c-4.16,1.91-8.38,6.12-9.06,11.5C33.49,67.25,34.65,69,36,71c.77,1.16,1.62,2.43.63,4a2.91,2.91,0,0,1-2.16,1.26c-1.17.17-1.44-.44-1.89-1.58a7.76,7.76,0,0,1-.33-1c.17-1.09.7-1.32,1.6-.66a1,1,0,1,0,2.08,0c-.06-3.67-4.86-3.79-5.78-.61-.43,1.48.57,3.7,1.34,4.83a3.2,3.2,0,0,0,3.73,1.51c3.84-1.21,4.89-5.45,2.63-8.91-.86-1.31-2-2.48-2-4.24a9.23,9.23,0,0,1,1.44-4.58,13.8,13.8,0,0,1,6.17-5.74c1.23-.56.69-2.87-.55-2.3Z"/><path d="M81.84,126.09c-5.92,2.36-6,13.61.6,14.8a5.12,5.12,0,0,0,6-4.58c.43-3.34-2.36-6.12-5.18-5.1-2.3.83-1.32,5,1,4.16.88-.31.23,1-.24,1.2a2,2,0,0,1-2.27-.67c-1.17-1.64-.64-4.93,1.14-5.64,2.27-.91,1.29-5.08-1-4.17Z"/><path d="M92.25,130.85q-.18,1.92-1.71.42A4.21,4.21,0,0,1,89,129.33c-.37-2.46,2.57-2.43,3.72-2.44a48,48,0,0,0,5.23-.14c2.82-.33,6.17-1,8.39-3.19,3.63-3.56,3.19-13-2.27-13.81-1.36-.19-1.34,2.24,0,2.44,3.14.45,2.83,6.34,1.58,8.62-1.4,2.57-5.31,3.22-7.7,3.5-3.23.38-9.08-1.28-10.79,3.09-1.36,3.46,2.43,7.46,5.4,6.76s3-6.26-.34-5.75c-1.33.2-1.35,2.64,0,2.44Z"/><path d="M101.34,119.37c3.85-.64,8.12-1.63,10.33-5.73a20.07,20.07,0,0,0,1.85-5.91c.46-2.59-.65-4.12-1.38-6.45a1.07,1.07,0,1,0-2,.65c.61,2,1.64,3.33,1.28,5.57a15.87,15.87,0,0,1-1.54,4.92c-1.93,3.46-5.82,4.06-9.06,4.6-1.35.22-.77,2.57.56,2.35Z"/><path d="M109.42,106.4c4-2.12,7.92-6.61,8.48-11.85.29-2.71-.73-4.53-2.23-6.49-1.63-2.14-2-5,1-5.76,1.16-.28,1.41.16,2,1.31a8,8,0,0,1,.44,1.09c0,1.14-.57,1.44-1.58.89-.09-1.55-2.21-1.57-2.12,0,.23,3.81,5.24,3.66,5.93.23.31-1.57-.83-3.83-1.74-4.93a3.18,3.18,0,0,0-4.24-.88,6.24,6.24,0,0,0-3.3,4.66c-.15,2.21,1.19,3.83,2.35,5.39,4,5.34-1.77,12-6,14.23-1.24.66-.16,2.76,1.07,2.11Z"/><path d="M71.61,130.48c1.86.83,2.24,4.61.86,6.17a2.16,2.16,0,0,1-2.17.54c-.57-.22-1.38-1.66-.36-1.24,2.53,1,3.62-3.58,1.11-4.6-2.93-1.2-6,1.61-5.79,5.13A5.68,5.68,0,0,0,71.7,142c3.33-.5,5.23-3.4,5.62-7.1.42-4-1.33-7.52-4.6-9-2.5-1.11-3.58,3.5-1.11,4.61Z"/><path d="M61.47,129c-3.17-.62-4,4.16-1.1,5.44,2.71,1.2,6.77-2.28,6-5.7-1-4.63-6.58-3.53-9.59-3.89-2.48-.29-5.65-.88-7.62-2.78s-2.64-9.13,1-9.49c1.33-.13,1.34-2.52,0-2.39-5.5.55-6,10.2-2.38,13.68,2.14,2,5.23,2.82,7.9,3.22,1.71.26,3.4.26,5.12.36,1.1.07,4.39.24,3.38,2.92a4.41,4.41,0,0,1-1.43,1.48c-1.46.95-2.09.76-1.87-.55,1.31.26,1.87-2,.56-2.3Z"/><path d="M50.5,116.71c-3.1-.65-6.72-1.37-8.56-4.66a14.44,14.44,0,0,1-1.51-5.39c-.16-2,.86-3.38,1.48-5.15a1.05,1.05,0,1,0-2-.64c-.76,2.18-1.85,3.49-1.57,5.95a18.08,18.08,0,0,0,1.81,6.44c2.11,3.89,6.13,5,9.8,5.75,1.31.27,1.87-2,.55-2.3Z"/><path d="M43.5,103.92a14.23,14.23,0,0,1-5.43-5.58,11.77,11.77,0,0,1-1.45-4.21c-.24-2.25.68-3.4,1.92-4.92s2.28-3.15,2-5.21a6.42,6.42,0,0,0-3.18-4.21,3.09,3.09,0,0,0-4,.78c-.93,1.06-2.22,3.33-1.83,4.94.81,3.31,5.45,3.4,5.79-.22.14-1.53-1.94-1.51-2.08,0-1.22.4-1.69.14-1.43-.78a2,2,0,0,1,.33-1.16c.72-1.56,1.58-2.1,3.2-.74,2,1.71.9,3.61-.41,5.17-1.59,1.9-2.61,3.76-2.32,6.51.52,5.07,4.11,9.47,7.92,11.69,1.19.69,2.24-1.36,1-2.06Z"/></g><path class="cls-10" d="M111.61,78.93c0,25.77-16.28,46.66-36.38,46.66S38.86,104.7,38.86,78.93,55.14,32.28,75.23,32.28,111.61,53.17,111.61,78.93Z"/><polygon class="cls-11" points="105.56 57.6 59.77 119.91 64.57 122.46 108.59 61.05 105.56 57.6"/><polygon class="cls-11" points="91.26 38.77 44.83 101.93 55.92 117.21 103.48 49.54 91.26 38.77"/><path class="cls-7" d="M75.23,128.45c-21.43,0-38.87-22.21-38.87-49.52S53.8,29.42,75.23,29.42s38.88,22.21,38.88,49.51S96.67,128.45,75.23,128.45Zm0-93.31c-18.68,0-33.88,19.65-33.88,43.79s15.2,43.79,33.88,43.79,33.89-19.64,33.89-43.79S93.92,35.14,75.23,35.14Z"/><path class="cls-7" d="M80.44,29.64C78.51,29,78,26.43,78.59,24.42a2.06,2.06,0,0,1,1.61-1.63c.55-.13,1.39-.11,1.65.58.07.2.33.8-.17.65-2.6-.77-3.7,3.83-1.11,4.6,3,.88,5.82-1.74,5.58-5.29a5.57,5.57,0,0,0-7.05-5.14c-6.86,2-6.16,13.92.23,16.06,2.57.86,3.67-3.75,1.11-4.61Z"/><path class="cls-7" d="M89.49,30.66c3.23.3,3.28-4.88.32-5.62s-6.63,3.48-5.21,6.84c1.83,4.32,7.82,2.25,11,2.48,2.34.17,6,.61,7.4,3s1.75,7.83-1.42,8.48c-1.32.27-.76,2.57.55,2.3,5.19-1,4.92-10.42,1.46-13.55-2.25-2-5.57-2.53-8.36-2.69a43.63,43.63,0,0,0-5.11.17c-1.07.05-2.72.27-3.46-.89a2.68,2.68,0,0,1,.69-2.94c.78-1.16,1.48-1.17,2.1,0-1.33-.12-1.32,2.27,0,2.39Z"/><path class="cls-7" d="M98.61,41.34c3.24.34,7,.78,9,4.2A15.82,15.82,0,0,1,109.16,50c.48,2.22-.46,3.53-1,5.52a1.05,1.05,0,1,0,2,.64c.61-2.31,1.64-3.9,1.09-6.4a18.75,18.75,0,0,0-2.24-6C106.59,40,102.4,39.36,98.61,39c-1.33-.14-1.32,2.25,0,2.39Z"/><path class="cls-7" d="M106.55,53.42a13.64,13.64,0,0,1,6,5.44,10,10,0,0,1,1.55,4.23c.16,2.18-.92,3.3-2,4.89-2.3,3.5-1.17,7.63,2.63,8.9a3.12,3.12,0,0,0,3.64-1.38c.82-1.14,1.86-3.43,1.43-5-.92-3.18-5.72-3.07-5.78.61a1,1,0,1,0,2.08,0q1.35-1,1.59.66c0,.18-.11.37-.17.55a4,4,0,0,1-1.2,2.11c-.81.5-2.49-.6-3-1.38-1-1.51-.13-2.86.63-4,1.36-2,2.51-3.77,2.17-6.49-.66-5.37-4.9-9.58-9-11.49-1.24-.57-1.78,1.73-.56,2.3Z"/><path class="cls-7" d="M69.23,34.72c6.39-2.13,7.09-14.08.23-16.06a5.55,5.55,0,0,0-7,4.83C62,27.15,65,30,68,29.1c2.59-.77,1.49-5.37-1.1-4.6-.23.06-.34-.11-.34-.36,0-.75,1-.9,1.39-.9a2,2,0,0,1,2,1.65c.58,2,.07,4.59-1.86,5.23-2.56.85-1.47,5.46,1.11,4.6Z"/><path class="cls-7" d="M59.07,28.75c.62-1.15,1.32-1.15,2.11,0a2.71,2.71,0,0,1,.68,2.95c-.67,1-2.13.95-3.11.9a52.42,52.42,0,0,0-5.46-.18c-2.79.16-6.11.64-8.36,2.69-3.45,3.13-3.73,12.49,1.46,13.55,1.31.26,1.87-2,.55-2.31-3.07-.62-2.77-5.56-1.66-8.06,1.2-2.7,4.94-3.22,7.27-3.43s4.82.28,7.23.14A4.58,4.58,0,0,0,64,32.35c1.41-3.32-2.13-7.43-5.07-6.86s-3.12,6,.18,5.65c1.32-.13,1.34-2.52,0-2.39Z"/><path class="cls-7" d="M50,39.43c-3.8.4-8,1-10.42,4.8a18.2,18.2,0,0,0-2.24,6c-.54,2.51.48,4.06,1.09,6.39a1.05,1.05,0,1,0,2-.63c-.46-1.76-1.4-3.21-1.09-5.13A15.88,15.88,0,0,1,41,46c2-3.42,5.75-3.86,9-4.21,1.32-.14,1.33-2.52,0-2.38Z"/><path class="cls-7" d="M41.45,51.59c-4.16,1.92-8.37,6.12-9.05,11.5-.35,2.72.81,4.45,2.17,6.49.77,1.16,1.62,2.43.63,4a2.94,2.94,0,0,1-2.15,1.27c-1.18.16-1.44-.45-1.89-1.58a7.76,7.76,0,0,1-.33-1c.16-1.1.69-1.32,1.59-.67a1,1,0,1,0,2.08,0c0-3.66-4.86-3.78-5.78-.6-.42,1.47.58,3.69,1.35,4.82a3.17,3.17,0,0,0,3.72,1.51c3.84-1.21,4.89-5.45,2.63-8.91-.85-1.31-2-2.47-2-4.24a9.1,9.1,0,0,1,1.44-4.58A13.75,13.75,0,0,1,42,53.89c1.22-.56.69-2.87-.56-2.3Z"/><path class="cls-7" d="M80.4,124.66c-5.91,2.36-6,13.61.6,14.79a5.12,5.12,0,0,0,6-4.57c.43-3.35-2.36-6.12-5.17-5.11-2.31.83-1.32,5,1,4.16.88-.31.23,1-.23,1.21a2.07,2.07,0,0,1-2.28-.68c-1.17-1.63-.64-4.93,1.14-5.64,2.27-.91,1.29-5.08-1-4.16Z"/><path class="cls-7" d="M90.82,129.41c-.13,1.28-.7,1.42-1.72.42a4.27,4.27,0,0,1-1.51-1.94c-.37-2.46,2.58-2.43,3.73-2.44a47.82,47.82,0,0,0,5.22-.14c2.83-.32,6.17-1,8.39-3.19,3.63-3.56,3.19-13-2.27-13.81-1.35-.19-1.34,2.25,0,2.44,3.15.45,2.83,6.34,1.59,8.63-1.4,2.56-5.32,3.21-7.71,3.5-3.23.38-9.08-1.28-10.79,3.08-1.36,3.47,2.43,7.47,5.4,6.76s3-6.26-.33-5.75c-1.34.21-1.35,2.64,0,2.44Z"/><path class="cls-7" d="M99.91,117.93c3.84-.64,8.11-1.63,10.32-5.72a20,20,0,0,0,1.85-5.91c.46-2.6-.65-4.12-1.38-6.46a1.07,1.07,0,1,0-2,.65c.61,2,1.65,3.33,1.29,5.57A16.16,16.16,0,0,1,108.4,111c-1.93,3.46-5.81,4.06-9.06,4.6-1.34.22-.77,2.57.57,2.35Z"/><path class="cls-7" d="M108,105c4-2.12,7.92-6.61,8.48-11.85.29-2.71-.73-4.53-2.22-6.48-1.64-2.14-2-5,1-5.77,1.16-.28,1.4.16,2,1.31a8,8,0,0,1,.44,1.09c-.05,1.15-.57,1.45-1.57.89-.1-1.55-2.22-1.56-2.12,0,.22,3.81,5.24,3.67,5.92.24.31-1.58-.83-3.83-1.74-4.94a3.2,3.2,0,0,0-4.24-.88,6.25,6.25,0,0,0-3.3,4.66c-.14,2.22,1.2,3.83,2.35,5.39,4,5.34-1.77,12-6,14.23-1.23.66-.16,2.76,1.07,2.11Z"/><path class="cls-7" d="M70.17,129c1.86.83,2.24,4.62.86,6.17a2.14,2.14,0,0,1-2.17.54c-.57-.22-1.38-1.66-.35-1.24,2.52,1,3.61-3.58,1.1-4.6-2.93-1.2-6,1.62-5.79,5.13a5.67,5.67,0,0,0,6.44,5.48c3.33-.5,5.23-3.4,5.62-7.1.43-4-1.33-7.52-4.6-9-2.49-1.12-3.57,3.49-1.11,4.6Z"/><path class="cls-7" d="M60,127.56c-3.17-.63-4,4.15-1.1,5.44,2.71,1.19,6.77-2.29,6-5.71-1-4.63-6.58-3.53-9.59-3.88-2.48-.29-5.65-.89-7.62-2.79s-2.64-9.13,1-9.49c1.32-.13,1.33-2.52,0-2.38-5.51.54-6,10.19-2.38,13.68,2.13,2,5.22,2.81,7.9,3.22,1.7.26,3.4.25,5.11.35,1.1.07,4.39.24,3.38,2.92a4.44,4.44,0,0,1-1.43,1.49c-1.46.94-2.08.76-1.86-.55,1.31.25,1.87-2.05.55-2.3Z"/><path class="cls-7" d="M49.06,115.27c-3.09-.65-6.72-1.36-8.56-4.65a14.73,14.73,0,0,1-1.51-5.4c-.16-2,.86-3.37,1.48-5.15a1.05,1.05,0,1,0-2-.63c-.76,2.17-1.85,3.49-1.57,5.94a18.29,18.29,0,0,0,1.81,6.44c2.12,3.89,6.13,5,9.8,5.75,1.31.28,1.87-2,.55-2.3Z"/><path class="cls-7" d="M42.06,102.48a14.23,14.23,0,0,1-5.43-5.58,11.79,11.79,0,0,1-1.45-4.2c-.24-2.26.68-3.41,1.93-4.93s2.27-3.15,1.94-5.21a6.35,6.35,0,0,0-3.18-4.21,3.08,3.08,0,0,0-4,.79c-.94,1-2.23,3.32-1.84,4.94.82,3.3,5.45,3.39,5.79-.23.14-1.52-1.94-1.51-2.08,0-1.22.41-1.69.15-1.43-.78a1.89,1.89,0,0,1,.34-1.16c.72-1.56,1.58-2.1,3.19-.73,2,1.7.9,3.6-.4,5.16-1.6,1.91-2.62,3.76-2.33,6.52.52,5.07,4.11,9.46,7.92,11.68,1.19.7,2.25-1.36,1.05-2.06Z"/></svg>