<svg id="दवात" xmlns="http://www.w3.org/2000/svg" viewBox="0 0 150 160"><defs><style>.cls-1,.cls-10{fill:#bcb9b8;}.cls-1,.cls-2,.cls-3,.cls-4,.cls-5,.cls-6,.cls-7,.cls-8,.cls-9{stroke:#fff;stroke-miterlimit:10;stroke-width:5px;}.cls-11,.cls-2{fill:#a19e9c;}.cls-12,.cls-3{fill:#3a91cd;}.cls-13,.cls-4{fill:#a72f2c;}.cls-14,.cls-5{fill:#bd3532;}.cls-15,.cls-6{fill:#dbd9da;}.cls-16,.cls-7{fill:#efefee;}.cls-17,.cls-8{fill:#d45152;}.cls-18,.cls-9{fill:#fff;}</style></defs><rect class="cls-1" x="23.43" y="46.37" width="103.15" height="67.26" rx="9.67"/><path class="cls-2" d="M120.08,80A2.08,2.08,0,0,1,118,82.12H31.94A2.08,2.08,0,0,1,29.85,80h0A2.08,2.08,0,0,1,31.94,78H118A2.08,2.08,0,0,1,120.08,80Z"/><path class="cls-3" d="M66.4,66.63h0a6.77,6.77,0,0,0,.86-3.36h0a6.67,6.67,0,0,0-6.68-6.71H41.41a6.74,6.74,0,0,0-6.77,6.71h0a6.66,6.66,0,0,0,.9,3.35v0A6.77,6.77,0,0,0,41.41,70H60.56A6.73,6.73,0,0,0,66.4,66.63Z"/><path class="cls-4" d="M66.4,66.65a8.18,8.18,0,0,1-3.72.91H50.9V70h9.66A6.7,6.7,0,0,0,66.4,66.65Z"/><path class="cls-5" d="M67.24,63.26a6.67,6.67,0,0,0-6.68-6.71H50.9v11H62.68a8,8,0,0,0,3.69-.92,6.75,6.75,0,0,0,.87-3.38Z"/><path class="cls-6" d="M39.29,67.56a8.11,8.11,0,0,1-3.74-.92A6.74,6.74,0,0,0,41.41,70H50.9V67.56Z"/><path class="cls-7" d="M50.9,67.56v-11H41.41a6.74,6.74,0,0,0-6.77,6.71h0a6.73,6.73,0,0,0,.9,3.37,8.16,8.16,0,0,0,3.75.93Z"/><path class="cls-8" d="M58.76,59.08H59.9a6.3,6.3,0,0,1,1.8.28,4.52,4.52,0,0,1,2.76,2.12.5.5,0,0,0,.15.17.55.55,0,0,0,.59,0,.54.54,0,0,0,.28-.44h0v0a.54.54,0,0,0-.07-.27A5.58,5.58,0,0,0,62,58.34a7,7,0,0,0-2.11-.28h-9v1Z"/><path class="cls-9" d="M37.3,61.49a4.51,4.51,0,0,1,2.76-2.11,6.56,6.56,0,0,1,1.8-.29h9v-1h-9a7,7,0,0,0-2.11.28A5.61,5.61,0,0,0,36.35,61a.48.48,0,0,0-.07.26v0h0a.5.5,0,0,0,.28.44.57.57,0,0,0,.59,0A.52.52,0,0,0,37.3,61.49Z"/><path class="cls-3" d="M66.4,100.12h0a6.83,6.83,0,0,0,.86-3.36h0a6.66,6.66,0,0,0-6.68-6.7H41.41a6.73,6.73,0,0,0-6.77,6.7h0a6.71,6.71,0,0,0,.9,3.35h0a6.75,6.75,0,0,0,5.86,3.39H60.56A6.71,6.71,0,0,0,66.4,100.12Z"/><path class="cls-4" d="M66.4,100.15a8.3,8.3,0,0,1-3.72.9H50.9v2.46h9.66A6.71,6.71,0,0,0,66.4,100.15Z"/><path class="cls-5" d="M67.24,96.75a6.66,6.66,0,0,0-6.68-6.7H50.9v11H62.68a8.15,8.15,0,0,0,3.69-.91,6.78,6.78,0,0,0,.87-3.38Z"/><path class="cls-6" d="M39.29,101.05a8.23,8.23,0,0,1-3.74-.91,6.73,6.73,0,0,0,5.86,3.37H50.9v-2.46Z"/><path class="cls-7" d="M50.9,101.05v-11H41.41a6.73,6.73,0,0,0-6.77,6.7h0a6.79,6.79,0,0,0,.9,3.37,8.28,8.28,0,0,0,3.75.92Z"/><path class="cls-8" d="M58.76,92.58H59.9a6.3,6.3,0,0,1,1.8.28A4.51,4.51,0,0,1,64.46,95a.5.5,0,0,0,.15.17.55.55,0,0,0,.87-.4h0v0a.48.48,0,0,0-.07-.26A5.55,5.55,0,0,0,62,91.84a6.83,6.83,0,0,0-2.11-.29h-9v1Z"/><path class="cls-9" d="M37.3,95a4.51,4.51,0,0,1,2.76-2.11,6.3,6.3,0,0,1,1.8-.28h9v-1h-9a6.83,6.83,0,0,0-2.11.29,5.56,5.56,0,0,0-3.43,2.62.51.51,0,0,0-.07.26v0h0a.49.49,0,0,0,.28.44.55.55,0,0,0,.59,0A.52.52,0,0,0,37.3,95Z"/><path class="cls-3" d="M114.45,66.63h0a6.67,6.67,0,0,0,.87-3.36h0a6.67,6.67,0,0,0-6.69-6.71H89.46a6.74,6.74,0,0,0-6.77,6.71h0a6.76,6.76,0,0,0,.9,3.35v0A6.78,6.78,0,0,0,89.46,70h19.15A6.73,6.73,0,0,0,114.45,66.63Z"/><path class="cls-4" d="M114.45,66.65a8.18,8.18,0,0,1-3.72.91H99V70h9.65A6.7,6.7,0,0,0,114.45,66.65Z"/><path class="cls-5" d="M115.3,63.26a6.67,6.67,0,0,0-6.69-6.71H99v11h11.77a8.1,8.1,0,0,0,3.7-.92,6.85,6.85,0,0,0,.87-3.38Z"/><path class="cls-6" d="M87.34,67.56a8.18,8.18,0,0,1-3.74-.92A6.75,6.75,0,0,0,89.46,70H99V67.56Z"/><path class="cls-7" d="M99,67.56v-11h-9.5a6.74,6.74,0,0,0-6.77,6.71h0a6.84,6.84,0,0,0,.9,3.37,8.19,8.19,0,0,0,3.75.93Z"/><path class="cls-8" d="M106.81,59.08H108a6.22,6.22,0,0,1,1.8.28,4.52,4.52,0,0,1,2.76,2.12.5.5,0,0,0,.15.17.56.56,0,0,0,.6,0,.54.54,0,0,0,.28-.44h0v0a.54.54,0,0,0-.07-.27A5.63,5.63,0,0,0,110,58.34a7,7,0,0,0-2.11-.28H99v1Z"/><path class="cls-9" d="M85.36,61.49a4.51,4.51,0,0,1,2.76-2.11,6.47,6.47,0,0,1,1.8-.29h9v-1H90a7,7,0,0,0-2.11.28A5.66,5.66,0,0,0,84.4,61a.48.48,0,0,0-.07.26v0h0a.5.5,0,0,0,.28.44.59.59,0,0,0,.6,0A.65.65,0,0,0,85.36,61.49Z"/><path class="cls-3" d="M114.45,100.12h0a6.73,6.73,0,0,0,.87-3.36h0a6.67,6.67,0,0,0-6.69-6.7H89.46a6.73,6.73,0,0,0-6.77,6.7h0a6.82,6.82,0,0,0,.9,3.35h0a6.76,6.76,0,0,0,5.86,3.39h19.15A6.71,6.71,0,0,0,114.45,100.12Z"/><path class="cls-4" d="M114.45,100.15a8.3,8.3,0,0,1-3.72.9H99v2.46h9.65A6.71,6.71,0,0,0,114.45,100.15Z"/><path class="cls-5" d="M115.3,96.75a6.67,6.67,0,0,0-6.69-6.7H99v11h11.77a8.23,8.23,0,0,0,3.7-.91,6.88,6.88,0,0,0,.87-3.38Z"/><path class="cls-6" d="M87.34,101.05a8.3,8.3,0,0,1-3.74-.91,6.74,6.74,0,0,0,5.86,3.37H99v-2.46Z"/><path class="cls-7" d="M99,101.05v-11h-9.5a6.73,6.73,0,0,0-6.77,6.7h0a6.89,6.89,0,0,0,.9,3.37,8.31,8.31,0,0,0,3.75.92Z"/><path class="cls-8" d="M106.81,92.58H108a6.22,6.22,0,0,1,1.8.28A4.51,4.51,0,0,1,112.51,95a.5.5,0,0,0,.15.17.54.54,0,0,0,.6,0,.53.53,0,0,0,.28-.44h0v0a.48.48,0,0,0-.07-.26A5.59,5.59,0,0,0,110,91.84a6.83,6.83,0,0,0-2.11-.29H99v1Z"/><path class="cls-9" d="M85.36,95a4.51,4.51,0,0,1,2.76-2.11,6.22,6.22,0,0,1,1.8-.28h9v-1H90a6.81,6.81,0,0,0-2.11.29,5.61,5.61,0,0,0-3.44,2.62.51.51,0,0,0-.07.26v0h0a.49.49,0,0,0,.28.44.56.56,0,0,0,.6,0A.65.65,0,0,0,85.36,95Z"/><rect class="cls-10" x="23.43" y="46.37" width="103.15" height="67.26" rx="9.67"/><path class="cls-11" d="M120.08,80A2.08,2.08,0,0,1,118,82.12H31.94A2.08,2.08,0,0,1,29.85,80h0A2.08,2.08,0,0,1,31.94,78H118A2.08,2.08,0,0,1,120.08,80Z"/><path class="cls-12" d="M66.4,66.63h0a6.77,6.77,0,0,0,.86-3.36h0a6.67,6.67,0,0,0-6.68-6.71H41.41a6.74,6.74,0,0,0-6.77,6.71h0a6.66,6.66,0,0,0,.9,3.35v0A6.77,6.77,0,0,0,41.41,70H60.56A6.73,6.73,0,0,0,66.4,66.63Z"/><path class="cls-13" d="M66.4,66.65a8.18,8.18,0,0,1-3.72.91H50.9V70h9.66A6.7,6.7,0,0,0,66.4,66.65Z"/><path class="cls-14" d="M67.24,63.26a6.67,6.67,0,0,0-6.68-6.71H50.9v11H62.68a8,8,0,0,0,3.69-.92,6.75,6.75,0,0,0,.87-3.38Z"/><path class="cls-15" d="M39.29,67.56a8.11,8.11,0,0,1-3.74-.92A6.74,6.74,0,0,0,41.41,70H50.9V67.56Z"/><path class="cls-16" d="M50.9,67.56v-11H41.41a6.74,6.74,0,0,0-6.77,6.71h0a6.73,6.73,0,0,0,.9,3.37,8.16,8.16,0,0,0,3.75.93Z"/><path class="cls-17" d="M58.76,59.08H59.9a6.3,6.3,0,0,1,1.8.28,4.52,4.52,0,0,1,2.76,2.12.5.5,0,0,0,.15.17.55.55,0,0,0,.59,0,.54.54,0,0,0,.28-.44h0v0a.54.54,0,0,0-.07-.27A5.58,5.58,0,0,0,62,58.34a7,7,0,0,0-2.11-.28h-9v1Z"/><path class="cls-18" d="M37.3,61.49a4.51,4.51,0,0,1,2.76-2.11,6.56,6.56,0,0,1,1.8-.29h9v-1h-9a7,7,0,0,0-2.11.28A5.61,5.61,0,0,0,36.35,61a.48.48,0,0,0-.07.26v0h0a.5.5,0,0,0,.28.44.57.57,0,0,0,.59,0A.52.52,0,0,0,37.3,61.49Z"/><path class="cls-12" d="M66.4,100.12h0a6.83,6.83,0,0,0,.86-3.36h0a6.66,6.66,0,0,0-6.68-6.7H41.41a6.73,6.73,0,0,0-6.77,6.7h0a6.71,6.71,0,0,0,.9,3.35h0a6.75,6.75,0,0,0,5.86,3.39H60.56A6.71,6.71,0,0,0,66.4,100.12Z"/><path class="cls-13" d="M66.4,100.15a8.3,8.3,0,0,1-3.72.9H50.9v2.46h9.66A6.71,6.71,0,0,0,66.4,100.15Z"/><path class="cls-14" d="M67.24,96.75a6.66,6.66,0,0,0-6.68-6.7H50.9v11H62.68a8.15,8.15,0,0,0,3.69-.91,6.78,6.78,0,0,0,.87-3.38Z"/><path class="cls-15" d="M39.29,101.05a8.23,8.23,0,0,1-3.74-.91,6.73,6.73,0,0,0,5.86,3.37H50.9v-2.46Z"/><path class="cls-16" d="M50.9,101.05v-11H41.41a6.73,6.73,0,0,0-6.77,6.7h0a6.79,6.79,0,0,0,.9,3.37,8.28,8.28,0,0,0,3.75.92Z"/><path class="cls-17" d="M58.76,92.58H59.9a6.3,6.3,0,0,1,1.8.28A4.51,4.51,0,0,1,64.46,95a.5.5,0,0,0,.15.17.55.55,0,0,0,.87-.4h0v0a.48.48,0,0,0-.07-.26A5.55,5.55,0,0,0,62,91.84a6.83,6.83,0,0,0-2.11-.29h-9v1Z"/><path class="cls-18" d="M37.3,95a4.51,4.51,0,0,1,2.76-2.11,6.3,6.3,0,0,1,1.8-.28h9v-1h-9a6.83,6.83,0,0,0-2.11.29,5.56,5.56,0,0,0-3.43,2.62.51.51,0,0,0-.07.26v0h0a.49.49,0,0,0,.28.44.55.55,0,0,0,.59,0A.52.52,0,0,0,37.3,95Z"/><path class="cls-12" d="M114.45,66.63h0a6.67,6.67,0,0,0,.87-3.36h0a6.67,6.67,0,0,0-6.69-6.71H89.46a6.74,6.74,0,0,0-6.77,6.71h0a6.76,6.76,0,0,0,.9,3.35v0A6.78,6.78,0,0,0,89.46,70h19.15A6.73,6.73,0,0,0,114.45,66.63Z"/><path class="cls-13" d="M114.45,66.65a8.18,8.18,0,0,1-3.72.91H99V70h9.65A6.7,6.7,0,0,0,114.45,66.65Z"/><path class="cls-14" d="M115.3,63.26a6.67,6.67,0,0,0-6.69-6.71H99v11h11.77a8.1,8.1,0,0,0,3.7-.92,6.85,6.85,0,0,0,.87-3.38Z"/><path class="cls-15" d="M87.34,67.56a8.18,8.18,0,0,1-3.74-.92A6.75,6.75,0,0,0,89.46,70H99V67.56Z"/><path class="cls-16" d="M99,67.56v-11h-9.5a6.74,6.74,0,0,0-6.77,6.71h0a6.84,6.84,0,0,0,.9,3.37,8.19,8.19,0,0,0,3.75.93Z"/><path class="cls-17" d="M106.81,59.08H108a6.22,6.22,0,0,1,1.8.28,4.52,4.52,0,0,1,2.76,2.12.5.5,0,0,0,.15.17.56.56,0,0,0,.6,0,.54.54,0,0,0,.28-.44h0v0a.54.54,0,0,0-.07-.27A5.63,5.63,0,0,0,110,58.34a7,7,0,0,0-2.11-.28H99v1Z"/><path class="cls-18" d="M85.36,61.49a4.51,4.51,0,0,1,2.76-2.11,6.47,6.47,0,0,1,1.8-.29h9v-1H90a7,7,0,0,0-2.11.28A5.66,5.66,0,0,0,84.4,61a.48.48,0,0,0-.07.26v0h0a.5.5,0,0,0,.28.44.59.59,0,0,0,.6,0A.65.65,0,0,0,85.36,61.49Z"/><path class="cls-12" d="M114.45,100.12h0a6.73,6.73,0,0,0,.87-3.36h0a6.67,6.67,0,0,0-6.69-6.7H89.46a6.73,6.73,0,0,0-6.77,6.7h0a6.82,6.82,0,0,0,.9,3.35h0a6.76,6.76,0,0,0,5.86,3.39h19.15A6.71,6.71,0,0,0,114.45,100.12Z"/><path class="cls-13" d="M114.45,100.15a8.3,8.3,0,0,1-3.72.9H99v2.46h9.65A6.71,6.71,0,0,0,114.45,100.15Z"/><path class="cls-14" d="M115.3,96.75a6.67,6.67,0,0,0-6.69-6.7H99v11h11.77a8.23,8.23,0,0,0,3.7-.91,6.88,6.88,0,0,0,.87-3.38Z"/><path class="cls-15" d="M87.34,101.05a8.3,8.3,0,0,1-3.74-.91,6.74,6.74,0,0,0,5.86,3.37H99v-2.46Z"/><path class="cls-16" d="M99,101.05v-11h-9.5a6.73,6.73,0,0,0-6.77,6.7h0a6.89,6.89,0,0,0,.9,3.37,8.31,8.31,0,0,0,3.75.92Z"/><path class="cls-17" d="M106.81,92.58H108a6.22,6.22,0,0,1,1.8.28A4.51,4.51,0,0,1,112.51,95a.5.5,0,0,0,.15.17.54.54,0,0,0,.6,0,.53.53,0,0,0,.28-.44h0v0a.48.48,0,0,0-.07-.26A5.59,5.59,0,0,0,110,91.84a6.83,6.83,0,0,0-2.11-.29H99v1Z"/><path class="cls-18" d="M85.36,95a4.51,4.51,0,0,1,2.76-2.11,6.22,6.22,0,0,1,1.8-.28h9v-1H90a6.81,6.81,0,0,0-2.11.29,5.61,5.61,0,0,0-3.44,2.62.51.51,0,0,0-.07.26v0h0a.49.49,0,0,0,.28.44.56.56,0,0,0,.6,0A.65.65,0,0,0,85.36,95Z"/></svg>