<svg id="ढोल" xmlns="http://www.w3.org/2000/svg" viewBox="0 0 150 160"><defs><style>.cls-1,.cls-11{fill:#cf3000;}.cls-1,.cls-10,.cls-2,.cls-3,.cls-4,.cls-5,.cls-6,.cls-7,.cls-8,.cls-9{stroke:#fff;stroke-miterlimit:10;stroke-width:5px;}.cls-12,.cls-2{fill:#f95e05;}.cls-13,.cls-3{fill:#ffb134;}.cls-14,.cls-4{fill:#ffe1b8;}.cls-15,.cls-5{fill:#942405;}.cls-16,.cls-6{fill:#ffcb9b;}.cls-17,.cls-7{fill:#c5693f;}.cls-18,.cls-8{fill:#ff007e;}.cls-19,.cls-9{fill:#9526ba;}.cls-10,.cls-20{fill:#fcfc6d;}</style></defs><path class="cls-1" d="M113,40.63C81.47,43.37,50.62,56.91,21.58,72.86c-5.22,3-6.8,16.44-3.9,30s9.83,25.08,15.84,25.72c33,2.65,66.72,2.35,96.63-8.1Q121.59,80.54,113,40.63Z"/><path class="cls-2" d="M109.38,47.68c-23.28,2-46,12-67.46,23.78-3.85,2.24-5,12.12-2.88,22.09s7.25,18.51,11.69,19c24.36,2,49.21,1.73,71.27-6Q115.7,77.12,109.38,47.68Z"/><path class="cls-3" d="M92.53,86.77c4.21,19.64,12.61,34.73,20.69,38.47,1.08-.24,2.14-.5,3.21-.76-8-.74-17.86-17.24-22.32-38s-2.23-39.9,4.76-43.86c-1.08.2-2.16.41-3.23.63C89.8,49.92,88.32,67.13,92.53,86.77Z"/><path class="cls-3" d="M89,87.53C84.59,67,86.54,48.67,93.17,43.73l-1.6.37c-2.39,2.5-4.14,6.85-5,12.74-1.33,8.63-.73,19.59,1.69,30.86s6.36,21.51,11.11,28.83c3.25,5,6.62,8.25,9.83,9.56l1.61-.33C102.68,124,93.4,108.07,89,87.53Z"/><path class="cls-3" d="M85.2,88.34c-4.37-20.4-2.48-38.6,4-43.69l-1.6.41c-2.33,2.52-4,6.82-4.91,12.59C81.4,66.28,82,77.24,84.41,88.51S90.78,110,95.53,117.35c3.18,4.9,6.48,8.12,9.64,9.47l1.63-.28C98.76,124.57,89.58,108.74,85.2,88.34Z"/><path class="cls-3" d="M32.78,99.58c-2-9.41-2.26-18.59-.71-25.86a24.63,24.63,0,0,1,3-8L32.57,67a29.49,29.49,0,0,0-2.08,6.38c-1.6,7.49-1.35,16.91.71,26.54s5.7,18.32,10.23,24.49a30,30,0,0,0,4.51,5l2.87.15a24.48,24.48,0,0,1-6.07-6.07C38.34,117.47,34.8,109,32.78,99.58Z"/><path class="cls-3" d="M28.7,69l-1,.55c-2.93,7.42-3.43,18.94-.79,31.27s7.82,22.64,13.54,28.21l1.17.07c-5.81-5.24-11.2-15.75-13.92-28.44S25.55,76.18,28.7,69Z"/><path class="cls-3" d="M24.3,71.38l-1,.53c-2.43,7.42-2.7,18.23-.23,29.75s7.15,21.26,12.41,27l1.1.09c-5.34-5.54-10.19-15.47-12.72-27.29S21.69,78.63,24.3,71.38Z"/><path class="cls-4" d="M124.63,117.13a.55.55,0,0,0-.66-.41c-39.88,9.16-64.59,9.82-78.29,8.76-12-.94-17.91-3.31-19.74-4.2C52.68,96.8,108.88,73,109.45,72.73a.55.55,0,0,0,.31-.66.54.54,0,0,0-.62-.39C77.51,76.74,27.72,83.21,18,84.45,53.68,50.81,110.65,43,111.23,42.92a.55.55,0,1,0-.14-1.09,207.81,207.81,0,0,0-33.92,8.26C59.63,55.87,34.78,66.58,16.06,84.82a.55.55,0,0,0,.46.94c.55-.07,53.35-6.83,88.55-12.32C91.61,79.41,47.18,100,24.62,121a.55.55,0,0,0,.08.86c.22.15,5.67,3.51,20.71,4.7,3,.24,6.6.4,10.75.4,14.72,0,36.74-2,68.06-9.17A.54.54,0,0,0,124.63,117.13Z"/><ellipse class="cls-5" cx="121.59" cy="80.54" rx="15.56" ry="40.81" transform="translate(-14.18 27.28) rotate(-12.1)"/><ellipse class="cls-6" cx="121.59" cy="80.54" rx="12.73" ry="37.98" transform="translate(-14.18 27.28) rotate(-12.1)"/><path class="cls-7" d="M125.84,100.36c-2.73.59-6.84-7.81-9.19-18.76s-2-20.3.69-20.88,6.84,7.81,9.19,18.76S128.57,99.78,125.84,100.36Z"/><path class="cls-8" d="M107.86,71.83a4.21,4.21,0,1,1-4.21-4.21A4.21,4.21,0,0,1,107.86,71.83Z"/><circle class="cls-9" cx="103.65" cy="77.58" r="4.21"/><circle class="cls-10" cx="98.84" cy="74.93" r="4.21"/><circle class="cls-8" cx="19.97" cy="81.03" r="4.21"/><circle class="cls-9" cx="19.97" cy="86.78" r="4.21"/><circle class="cls-10" cx="15.16" cy="84.13" r="4.21"/><circle class="cls-8" cx="28.39" cy="117.77" r="4.21" transform="translate(-42.71 19.69) rotate(-22.39)"/><circle class="cls-9" cx="28.39" cy="123.52" r="4.21" transform="translate(-44.9 20.12) rotate(-22.39)"/><circle class="cls-10" cx="23.58" cy="120.87" r="4.21" transform="translate(-78.56 52.08) rotate(-45)"/><path class="cls-10" d="M104.33,45.24a4.21,4.21,0,1,1-.22-6A4.22,4.22,0,0,1,104.33,45.24Z"/><path class="cls-8" d="M111.13,44.08a4.21,4.21,0,1,1-.22-5.95A4.21,4.21,0,0,1,111.13,44.08Z"/><path class="cls-9" d="M107.21,48.29a4.21,4.21,0,1,1-.21-5.95A4.21,4.21,0,0,1,107.21,48.29Z"/><path class="cls-10" d="M119.6,116.69a4.21,4.21,0,1,0-.21,6A4.21,4.21,0,0,0,119.6,116.69Z"/><path class="cls-8" d="M126.41,117.86a4.21,4.21,0,1,0-.22,6A4.21,4.21,0,0,0,126.41,117.86Z"/><path class="cls-9" d="M122.49,113.65a4.21,4.21,0,1,0-.21,5.95A4.22,4.22,0,0,0,122.49,113.65Z"/><path class="cls-11" d="M113,40.63C81.47,43.37,50.62,56.91,21.58,72.86c-5.22,3-6.8,16.44-3.9,30s9.83,25.08,15.84,25.72c33,2.65,66.72,2.35,96.63-8.1Q121.59,80.54,113,40.63Z"/><path class="cls-12" d="M109.38,47.68c-23.28,2-46,12-67.46,23.78-3.85,2.24-5,12.12-2.88,22.09s7.25,18.51,11.69,19c24.36,2,49.21,1.73,71.27-6Q115.7,77.12,109.38,47.68Z"/><path class="cls-13" d="M92.53,86.77c4.21,19.64,12.61,34.73,20.69,38.47,1.08-.24,2.14-.5,3.21-.76-8-.74-17.86-17.24-22.32-38s-2.23-39.9,4.76-43.86c-1.08.2-2.16.41-3.23.63C89.8,49.92,88.32,67.13,92.53,86.77Z"/><path class="cls-13" d="M89,87.53C84.59,67,86.54,48.67,93.17,43.73l-1.6.37c-2.39,2.5-4.14,6.85-5,12.74-1.33,8.63-.73,19.59,1.69,30.86s6.36,21.51,11.11,28.83c3.25,5,6.62,8.25,9.83,9.56l1.61-.33C102.68,124,93.4,108.07,89,87.53Z"/><path class="cls-13" d="M85.2,88.34c-4.37-20.4-2.48-38.6,4-43.69l-1.6.41c-2.33,2.52-4,6.82-4.91,12.59C81.4,66.28,82,77.24,84.41,88.51S90.78,110,95.53,117.35c3.18,4.9,6.48,8.12,9.64,9.47l1.63-.28C98.76,124.57,89.58,108.74,85.2,88.34Z"/><path class="cls-13" d="M32.78,99.58c-2-9.41-2.26-18.59-.71-25.86a24.63,24.63,0,0,1,3-8L32.57,67a29.49,29.49,0,0,0-2.08,6.38c-1.6,7.49-1.35,16.91.71,26.54s5.7,18.32,10.23,24.49a30,30,0,0,0,4.51,5l2.87.15a24.48,24.48,0,0,1-6.07-6.07C38.34,117.47,34.8,109,32.78,99.58Z"/><path class="cls-13" d="M28.7,69l-1,.55c-2.93,7.42-3.43,18.94-.79,31.27s7.82,22.64,13.54,28.21l1.17.07c-5.81-5.24-11.2-15.75-13.92-28.44S25.55,76.18,28.7,69Z"/><path class="cls-13" d="M24.3,71.38l-1,.53c-2.43,7.42-2.7,18.23-.23,29.75s7.15,21.26,12.41,27l1.1.09c-5.34-5.54-10.19-15.47-12.72-27.29S21.69,78.63,24.3,71.38Z"/><path class="cls-14" d="M124.63,117.13a.55.55,0,0,0-.66-.41c-39.88,9.16-64.59,9.82-78.29,8.76-12-.94-17.91-3.31-19.74-4.2C52.68,96.8,108.88,73,109.45,72.73a.55.55,0,0,0,.31-.66.54.54,0,0,0-.62-.39C77.51,76.74,27.72,83.21,18,84.45,53.68,50.81,110.65,43,111.23,42.92a.55.55,0,1,0-.14-1.09,207.81,207.81,0,0,0-33.92,8.26C59.63,55.87,34.78,66.58,16.06,84.82a.55.55,0,0,0,.46.94c.55-.07,53.35-6.83,88.55-12.32C91.61,79.41,47.18,100,24.62,121a.55.55,0,0,0,.08.86c.22.15,5.67,3.51,20.71,4.7,3,.24,6.6.4,10.75.4,14.72,0,36.74-2,68.06-9.17A.54.54,0,0,0,124.63,117.13Z"/><ellipse class="cls-15" cx="121.59" cy="80.54" rx="15.56" ry="40.81" transform="translate(-14.18 27.28) rotate(-12.1)"/><ellipse class="cls-16" cx="121.59" cy="80.54" rx="12.73" ry="37.98" transform="translate(-14.18 27.28) rotate(-12.1)"/><path class="cls-17" d="M125.84,100.36c-2.73.59-6.84-7.81-9.19-18.76s-2-20.3.69-20.88,6.84,7.81,9.19,18.76S128.57,99.78,125.84,100.36Z"/><path class="cls-18" d="M107.86,71.83a4.21,4.21,0,1,1-4.21-4.21A4.21,4.21,0,0,1,107.86,71.83Z"/><circle class="cls-19" cx="103.65" cy="77.58" r="4.21"/><circle class="cls-20" cx="98.84" cy="74.93" r="4.21"/><circle class="cls-18" cx="19.97" cy="81.03" r="4.21"/><circle class="cls-19" cx="19.97" cy="86.78" r="4.21"/><circle class="cls-20" cx="15.16" cy="84.13" r="4.21"/><circle class="cls-18" cx="28.39" cy="117.77" r="4.21" transform="translate(-42.71 19.69) rotate(-22.39)"/><circle class="cls-19" cx="28.39" cy="123.52" r="4.21" transform="translate(-44.9 20.12) rotate(-22.39)"/><circle class="cls-20" cx="23.58" cy="120.87" r="4.21" transform="translate(-78.56 52.08) rotate(-45)"/><path class="cls-20" d="M104.33,45.24a4.21,4.21,0,1,1-.22-6A4.22,4.22,0,0,1,104.33,45.24Z"/><path class="cls-18" d="M111.13,44.08a4.21,4.21,0,1,1-.22-5.95A4.21,4.21,0,0,1,111.13,44.08Z"/><path class="cls-19" d="M107.21,48.29a4.21,4.21,0,1,1-.21-5.95A4.21,4.21,0,0,1,107.21,48.29Z"/><path class="cls-20" d="M119.6,116.69a4.21,4.21,0,1,0-.21,6A4.21,4.21,0,0,0,119.6,116.69Z"/><path class="cls-18" d="M126.41,117.86a4.21,4.21,0,1,0-.22,6A4.21,4.21,0,0,0,126.41,117.86Z"/><path class="cls-19" d="M122.49,113.65a4.21,4.21,0,1,0-.21,5.95A4.22,4.22,0,0,0,122.49,113.65Z"/></svg>