<svg id="बरतन" xmlns="http://www.w3.org/2000/svg" viewBox="0 0 150 160"><defs><style>.cls-1,.cls-11,.cls-4,.cls-9{fill:#fff;}.cls-1,.cls-4{stroke:#fff;stroke-miterlimit:10;stroke-width:5px;}.cls-2{opacity:0.38;}.cls-3{opacity:0.93;}.cls-11,.cls-4{opacity:0.76;}.cls-5{fill:#5f6268;}.cls-6{fill:#4f5259;}.cls-7{fill:#4f5f70;}.cls-8{fill:#607186;}.cls-10{fill:#d8dbe6;}</style></defs><path class="cls-1" d="M14.12,84.85c-1.64,1.31-1.66,4.55,0,6.17a4,4,0,0,0,2.17,1L33,93.75c-.07-.16-.15-.32-.22-.47a1.58,1.58,0,0,0-1.22-.93l-14.75-2.3a1.61,1.61,0,0,1-1.3-1.12l-.22-.72A1.62,1.62,0,0,1,17,86.14l9.16,1.2A1.61,1.61,0,0,0,28,85.73L16,84.2A3.25,3.25,0,0,0,14.12,84.85Z"/><path class="cls-1" d="M33,93.75,16.26,92.06a4,4,0,0,1-2.17-1c-1.63-1.62-1.61-4.86,0-6.17A3.25,3.25,0,0,1,16,84.2l12,1.53a1.59,1.59,0,0,0-.07-.48v0a1.63,1.63,0,0,0-1.36-1.13L10,82.16a1.61,1.61,0,0,0-1.71,2.15c1,2.9,2.07,5.8,3.11,8.69a1.62,1.62,0,0,0,1.23,1L32,97.64a1.62,1.62,0,0,0,1.77-2.26C33.47,94.84,33.23,94.29,33,93.75Z"/><path class="cls-1" d="M135.88,86.38c1.64,1.31,1.66,4.55,0,6.17a4,4,0,0,1-2.17,1L117,95.28c.07-.16.15-.32.22-.47a1.58,1.58,0,0,1,1.22-.93l14.75-2.3a1.61,1.61,0,0,0,1.3-1.12l.22-.72A1.62,1.62,0,0,0,133,87.67l-9.16,1.2A1.61,1.61,0,0,1,122,87.26l12-1.53A3.25,3.25,0,0,1,135.88,86.38Z"/><path class="cls-1" d="M117,95.28l16.72-1.69a4,4,0,0,0,2.17-1c1.63-1.62,1.61-4.86,0-6.17a3.25,3.25,0,0,0-1.92-.65l-12,1.53a1.59,1.59,0,0,1,.07-.48v0a1.6,1.6,0,0,1,1.36-1.12L140,83.69a1.61,1.61,0,0,1,1.71,2.15c-1,2.9-2.07,5.8-3.11,8.69a1.62,1.62,0,0,1-1.23,1l-19.3,3.59a1.62,1.62,0,0,1-1.77-2.26C116.53,96.37,116.77,95.82,117,95.28Z"/><path class="cls-1" d="M35.83,92.16C34,89.84,29.47,84,31.28,78.77a8.39,8.39,0,0,1,.8-1.62,8.58,8.58,0,0,1,2.09-2.27c-1.29-.55-7-.09-11.82-.15a1.24,1.24,0,0,0-1.22,1.53,60.21,60.21,0,0,0,12.3,24.26,58.75,58.75,0,0,0,7.71,7.59A14,14,0,0,0,50,111.28h50a14.05,14.05,0,0,0,8.89-3.17L110.2,107C82.59,107.73,46.47,105.87,35.83,92.16Z"/><path class="cls-1" d="M31.28,78.77C29.47,84,34,89.84,35.83,92.16,46.47,105.87,82.59,107.73,110.2,107a59.25,59.25,0,0,0,6.42-6.51,60.08,60.08,0,0,0,12.3-24.26,1.24,1.24,0,0,0-1.22-1.53L75,75.41l-40.86-.53A8.81,8.81,0,0,0,31.28,78.77Z"/><g class="cls-2"><path class="cls-1" d="M107.58,100.27,106,98.5a2.37,2.37,0,0,1,.12-3.25,38.79,38.79,0,0,0,3.44-3.91,41.55,41.55,0,0,0,2.48-3.68,2.36,2.36,0,0,1,3.12-.9l2.1,1.08a2.37,2.37,0,0,1,1,3.29,45.57,45.57,0,0,1-7.22,9.26A2.38,2.38,0,0,1,107.58,100.27Z"/></g><g class="cls-2"><rect class="cls-1" x="116.15" y="77.63" width="5.42" height="7.08" rx="2.37" transform="translate(-4.46 155.4) rotate(-65.38)"/></g><path class="cls-1" d="M85.2,59.31h0a1.6,1.6,0,0,1-1.6-1.61V53.54A1.61,1.61,0,0,0,82,51.93H70.46a1.61,1.61,0,0,0-1.6,1.61v3.65a1.6,1.6,0,0,1-1.61,1.6h0a1.6,1.6,0,0,1-1.6-1.6V50.33a1.61,1.61,0,0,1,1.6-1.61h18a1.61,1.61,0,0,1,1.61,1.61V57.7A1.61,1.61,0,0,1,85.2,59.31Z"/><g class="cls-3"><path class="cls-1" d="M75.63,57.37a24.18,24.18,0,0,0-6.76.84c-10.55,3-41.9,12-44.62,13.93-.35.25-1.25.93-1.2,1.71A1.78,1.78,0,0,0,25,75.44l50.28-.16,15.69,0q-6.48-8.91-13-17.81C77.23,57.44,76.45,57.38,75.63,57.37Z"/><path class="cls-1" d="M81.59,58.21A24.64,24.64,0,0,0,78,57.52q6.47,8.91,13,17.81l22.53.07L91.7,61.1C87.62,59.92,84,58.9,81.59,58.21Z"/><path class="cls-1" d="M126.22,72.14c-2.09-1.51-21-7.15-34.52-11l21.75,14.3,12.06,0a1.79,1.79,0,0,0,1.91-1.59C127.46,73.07,126.56,72.39,126.22,72.14Z"/></g><path class="cls-4" d="M81.86,58.25a24.64,24.64,0,0,0-3.62-.69l13,17.81,22.53.07L92,61.14C87.89,60,84.32,58.94,81.86,58.25Z"/><path class="cls-1" d="M121.92,70.41c-.44.2,1.54,1.21,1,2.12-.79,1.3-6.42,1.57-12.47,1.49l-34.52-.1H74.25L39.72,74c-6,.08-11.67-.19-12.47-1.49-.55-.91,1.43-1.92,1-2.12s-8,2.36-7.82,4.14c.3,3.37,27.8,3.43,54.65,3.43s54.36-.06,54.65-3.43C129.89,72.77,122.49,70.15,121.92,70.41Z"/><path class="cls-5" d="M14.12,84.85c-1.64,1.31-1.66,4.55,0,6.17a4,4,0,0,0,2.17,1L33,93.75c-.07-.16-.15-.32-.22-.47a1.58,1.58,0,0,0-1.22-.93l-14.75-2.3a1.61,1.61,0,0,1-1.3-1.12l-.22-.72A1.62,1.62,0,0,1,17,86.14l9.16,1.2A1.61,1.61,0,0,0,28,85.73L16,84.2A3.25,3.25,0,0,0,14.12,84.85Z"/><path class="cls-6" d="M33,93.75,16.26,92.06a4,4,0,0,1-2.17-1c-1.63-1.62-1.61-4.86,0-6.17A3.25,3.25,0,0,1,16,84.2l12,1.53a1.59,1.59,0,0,0-.07-.48v0a1.63,1.63,0,0,0-1.36-1.13L10,82.16a1.61,1.61,0,0,0-1.71,2.15c1,2.9,2.07,5.8,3.11,8.69a1.62,1.62,0,0,0,1.23,1L32,97.64a1.62,1.62,0,0,0,1.77-2.26C33.47,94.84,33.23,94.29,33,93.75Z"/><path class="cls-5" d="M135.88,86.38c1.64,1.31,1.66,4.55,0,6.17a4,4,0,0,1-2.17,1L117,95.28c.07-.16.15-.32.22-.47a1.58,1.58,0,0,1,1.22-.93l14.75-2.3a1.61,1.61,0,0,0,1.3-1.12l.22-.72A1.62,1.62,0,0,0,133,87.67l-9.16,1.2A1.61,1.61,0,0,1,122,87.26l12-1.53A3.25,3.25,0,0,1,135.88,86.38Z"/><path class="cls-6" d="M117,95.28l16.72-1.69a4,4,0,0,0,2.17-1c1.63-1.62,1.61-4.86,0-6.17a3.25,3.25,0,0,0-1.92-.65l-12,1.53a1.59,1.59,0,0,1,.07-.48v0a1.6,1.6,0,0,1,1.36-1.12L140,83.69a1.61,1.61,0,0,1,1.71,2.15c-1,2.9-2.07,5.8-3.11,8.69a1.62,1.62,0,0,1-1.23,1l-19.3,3.59a1.62,1.62,0,0,1-1.77-2.26C116.53,96.37,116.77,95.82,117,95.28Z"/><path class="cls-7" d="M35.83,92.16C34,89.84,29.47,84,31.28,78.77a8.39,8.39,0,0,1,.8-1.62,8.58,8.58,0,0,1,2.09-2.27c-1.29-.55-7-.09-11.82-.15a1.24,1.24,0,0,0-1.22,1.53,60.21,60.21,0,0,0,12.3,24.26,58.75,58.75,0,0,0,7.71,7.59A14,14,0,0,0,50,111.28h50a14.05,14.05,0,0,0,8.89-3.17L110.2,107C82.59,107.73,46.47,105.87,35.83,92.16Z"/><path class="cls-8" d="M31.28,78.77C29.47,84,34,89.84,35.83,92.16,46.47,105.87,82.59,107.73,110.2,107a59.25,59.25,0,0,0,6.42-6.51,60.08,60.08,0,0,0,12.3-24.26,1.24,1.24,0,0,0-1.22-1.53L75,75.41l-40.86-.53A8.81,8.81,0,0,0,31.28,78.77Z"/><g class="cls-2"><path class="cls-9" d="M107.58,100.27,106,98.5a2.37,2.37,0,0,1,.12-3.25,38.79,38.79,0,0,0,3.44-3.91,41.55,41.55,0,0,0,2.48-3.68,2.36,2.36,0,0,1,3.12-.9l2.1,1.08a2.37,2.37,0,0,1,1,3.29,45.57,45.57,0,0,1-7.22,9.26A2.38,2.38,0,0,1,107.58,100.27Z"/></g><g class="cls-2"><rect class="cls-9" x="116.15" y="77.63" width="5.42" height="7.08" rx="2.37" transform="translate(-4.46 155.4) rotate(-65.38)"/></g><path class="cls-6" d="M85.2,59.31h0a1.6,1.6,0,0,1-1.6-1.61V53.54A1.61,1.61,0,0,0,82,51.93H70.46a1.61,1.61,0,0,0-1.6,1.61v3.65a1.6,1.6,0,0,1-1.61,1.6h0a1.6,1.6,0,0,1-1.6-1.6V50.33a1.61,1.61,0,0,1,1.6-1.61h18a1.61,1.61,0,0,1,1.61,1.61V57.7A1.61,1.61,0,0,1,85.2,59.31Z"/><g class="cls-3"><path class="cls-10" d="M75.63,57.37a24.18,24.18,0,0,0-6.76.84c-10.55,3-41.9,12-44.62,13.93-.35.25-1.25.93-1.2,1.71A1.78,1.78,0,0,0,25,75.44l50.28-.16,15.69,0q-6.48-8.91-13-17.81C77.23,57.44,76.45,57.38,75.63,57.37Z"/><path class="cls-10" d="M81.59,58.21A24.64,24.64,0,0,0,78,57.52q6.47,8.91,13,17.81l22.53.07L91.7,61.1C87.62,59.92,84,58.9,81.59,58.21Z"/><path class="cls-10" d="M126.22,72.14c-2.09-1.51-21-7.15-34.52-11l21.75,14.3,12.06,0a1.79,1.79,0,0,0,1.91-1.59C127.46,73.07,126.56,72.39,126.22,72.14Z"/></g><path class="cls-11" d="M81.86,58.25a24.64,24.64,0,0,0-3.62-.69l13,17.81,22.53.07L92,61.14C87.89,60,84.32,58.94,81.86,58.25Z"/><path class="cls-6" d="M121.92,70.41c-.44.2,1.54,1.21,1,2.12-.79,1.3-6.42,1.57-12.47,1.49l-34.52-.1H74.25L39.72,74c-6,.08-11.67-.19-12.47-1.49-.55-.91,1.43-1.92,1-2.12s-8,2.36-7.82,4.14c.3,3.37,27.8,3.43,54.65,3.43s54.36-.06,54.65-3.43C129.89,72.77,122.49,70.15,121.92,70.41Z"/></svg>