<svg id="श्रवण" xmlns="http://www.w3.org/2000/svg" viewBox="0 0 150 160"><defs><style>.cls-1{fill:#ececec;}.cls-2{fill:#e1e1e1;}.cls-3{fill:#f5f5f5;}.cls-4{fill:#1a2e35;}.cls-5{fill:#ff4f5b;}.cls-6{opacity:0.4;}.cls-7{fill:#ffbf9d;}.cls-8{fill:#375a64;}.cls-12,.cls-9{fill:#fff;}.cls-11,.cls-9{opacity:0.6;}.cls-10{fill:#fafafa;}.cls-13{fill:#ff9a6c;}.cls-14{opacity:0.3;}</style></defs><path class="cls-1" d="M28.51,146.56c5.2-1.92,7.66-7.31,8.79-12.44a5.75,5.75,0,0,0,.3-2.58,1.82,1.82,0,0,0-1.91-1.44c-.71.13-1.18.79-1.69,1.31a5.15,5.15,0,0,1-2.51,1.38,2,2,0,0,1-1.8-.29c-.64-.6-.47-1.63-.25-2.47.42-1.57.83-3.14,1.25-4.71a8.15,8.15,0,0,0,.38-2.58,2.66,2.66,0,0,0-1.21-2.19,1.65,1.65,0,0,0-2.26.55,8.89,8.89,0,0,0-.3,1,.9.9,0,0,1-.74.7c-.36,0-.64-.31-.84-.62a11.68,11.68,0,0,1-1.26-3.57A15.83,15.83,0,0,0,23.37,115a4.77,4.77,0,0,0-2.69-2.53,2.85,2.85,0,0,0-3.32,1.13,4.21,4.21,0,0,0,.3,3.66,19.25,19.25,0,0,0,3,4.76,1.55,1.55,0,0,1,.48.87c0,.61-.64,1-1.25,1.07a9.56,9.56,0,0,1-2-.29,2,2,0,0,0-1.9.57c-.57.77-.07,1.86.49,2.64a16.87,16.87,0,0,0,4.13,4,6,6,0,0,1,1.58,1.32,1.62,1.62,0,0,1,.05,1.92,1.68,1.68,0,0,1-1.93.22,12.27,12.27,0,0,1-1.69-1.19,3.12,3.12,0,0,0-3.61-.24,2.71,2.71,0,0,0-.9,2.29,6.29,6.29,0,0,0,.76,2.41,17,17,0,0,0,5.77,6.68,11.81,11.81,0,0,0,7.91,2.25"/><path class="cls-2" d="M28.13,146.57c-.1-2.76-.61-9.32-1.1-12.46-.12-.79-.24-1.56-.37-2.33s-.24-1.52-.41-2.25a36.35,36.35,0,0,0-1.19-4.16c-.44-1.31-.91-2.53-1.36-3.67s-.89-2.2-1.33-3.14A31.39,31.39,0,0,0,20,114.25l-.77-1.1-.21-.28-.07-.09.06.1c.05.07.11.17.2.29s.43.62.75,1.11a33,33,0,0,1,2.37,4.32c.44.94.87,2,1.32,3.14s.9,2.36,1.35,3.67a39,39,0,0,1,1.18,4.15c.16.73.28,1.48.41,2.24s.24,1.54.36,2.33c.49,3.14,1,9.69,1.11,12.45"/><path class="cls-2" d="M26.23,129.51l.17-.34c.1-.22.24-.55.41-1,.33-.81.76-1.94,1.22-3.19s.91-2.38,1.26-3.18c.18-.4.32-.72.43-.94a1.77,1.77,0,0,0,.14-.35l-.19.32c-.12.22-.28.54-.46.93-.38.8-.84,1.92-1.3,3.17l-1.19,3.21c-.15.39-.27.72-.37,1A1.65,1.65,0,0,0,26.23,129.51Z"/><path class="cls-2" d="M15.75,124.66l.11,0,.32.11c.28.09.68.23,1.17.42,1,.36,2.31.91,3.76,1.58s2.73,1.35,3.64,1.86l1.08.61.29.17.11,0-.1-.07a2.67,2.67,0,0,0-.28-.19c-.24-.16-.6-.39-1.05-.65-.91-.54-2.19-1.22-3.63-1.9s-2.8-1.21-3.79-1.55c-.5-.18-.9-.3-1.18-.38l-.33-.09Z"/><path class="cls-2" d="M27.91,142.79s0,0,.11-.11l.29-.35c.24-.3.59-.74,1-1.3.84-1.1,2-2.67,3.19-4.42s2.33-3.31,3.15-4.43l1-1.33.27-.36c.06-.08.09-.13.08-.13l-.1.11-.29.35c-.25.3-.6.75-1,1.3-.85,1.11-2,2.67-3.19,4.42s-2.33,3.32-3.16,4.44l-1,1.32-.27.36Z"/><path class="cls-2" d="M14.5,134.4l.13.09.39.25,1.44.9c1.21.76,2.87,1.83,4.71,3s3.51,2.25,4.73,3l1.46.86.41.22c.09.05.14.08.14.07l-.13-.09-.39-.25L26,141.56c-1.21-.76-2.87-1.83-4.71-3s-3.51-2.24-4.73-3l-1.46-.87-.41-.22C14.55,134.42,14.5,134.39,14.5,134.4Z"/><path class="cls-3" d="M105.75,46.94a5.65,5.65,0,0,0,0,1.09,5.22,5.22,0,0,0-1.42-1.35,11.22,11.22,0,0,0-3-1.17l-.09,0a7.18,7.18,0,0,0,1.43,3.44,4.26,4.26,0,0,0,.52.52l-.69.1a24,24,0,0,0-4.91,1.81,13.16,13.16,0,0,0,5.52,1.52h.35a4.4,4.4,0,0,0-.58.75,11,11,0,0,0-1.17,3l0,.09a7.22,7.22,0,0,0,3.44-1.43,4.93,4.93,0,0,0,1-1.23,5.63,5.63,0,0,0,.11.81,6.72,6.72,0,0,0,1.48,2.78l0-.08a10.93,10.93,0,0,0,.59-2.67,5.66,5.66,0,0,0-.51-2.55,14.57,14.57,0,0,0-.83-1.5h0a16.84,16.84,0,0,0,.6-1.62,5.72,5.72,0,0,0,.11-2.6,10.9,10.9,0,0,0-1-2.55l0-.07A6.8,6.8,0,0,0,105.75,46.94Z"/><path class="cls-2" d="M110.61,50.23c0,.05-2,.35-4.36.67s-4.38.56-4.39.52,2-.35,4.37-.68S110.6,50.19,110.61,50.23Z"/><path class="cls-2" d="M106,50.87a2.65,2.65,0,0,1-.42.83c-.27.43-.52.77-.56.74a2.66,2.66,0,0,1,.42-.82A2.71,2.71,0,0,1,106,50.87Z"/><path class="cls-2" d="M105.06,51.08s-.24-.21-.5-.48-.48-.47-.45-.5.3.11.57.39S105.1,51.05,105.06,51.08Z"/><path class="cls-3" d="M17.27,76.55a3.58,3.58,0,0,0,.32.82,4.22,4.22,0,0,0-1.44-.67,8.82,8.82,0,0,0-2.58-.16h-.08a5.83,5.83,0,0,0,2,2.28,5.28,5.28,0,0,0,.53.27l-.51.25A20.17,20.17,0,0,0,12.16,82a10.8,10.8,0,0,0,4.64-.23l.27-.08a3.82,3.82,0,0,0-.26.72A9.18,9.18,0,0,0,16.66,85v.07a5.84,5.84,0,0,0,2.29-2,4.16,4.16,0,0,0,.49-1.22,2.94,2.94,0,0,0,.29.59,5.3,5.3,0,0,0,1.84,1.77v-.06A9,9,0,0,0,21.34,82a4.63,4.63,0,0,0-1-1.83,13.61,13.61,0,0,0-1-.95h0c0-.74.08-.94.05-1.39a4.58,4.58,0,0,0-.57-2A9.1,9.1,0,0,0,17.37,74l-.05,0A5.38,5.38,0,0,0,17.27,76.55Z"/><path class="cls-2" d="M21.84,77.85s-1.4.77-3.18,1.64S15.43,81,15.41,81s1.4-.78,3.18-1.64S21.82,77.81,21.84,77.85Z"/><path class="cls-2" d="M18.44,79.51a1.86,1.86,0,0,1-.1.75c-.1.41-.21.72-.26.71a2,2,0,0,1,.11-.75A1.8,1.8,0,0,1,18.44,79.51Z"/><path class="cls-2" d="M17.79,79.91s-.25-.09-.51-.23-.49-.24-.48-.29.27,0,.55.15S17.81,79.87,17.79,79.91Z"/><path class="cls-3" d="M39.81,90.42A4.33,4.33,0,0,0,44.62,86S39.83,86,39.81,90.42Z"/><path class="cls-2" d="M45.64,85a26.65,26.65,0,0,1-2.11,2A27,27,0,0,1,41.32,89a27.5,27.5,0,0,1,2.1-2A25.76,25.76,0,0,1,45.64,85Z"/><path class="cls-2" d="M41.35,88s.25-.1.58-.13.58,0,.59,0a1.27,1.27,0,0,1-.58.13A1.16,1.16,0,0,1,41.35,88Z"/><path class="cls-2" d="M43.65,86.8a1.43,1.43,0,0,1,0,.63c-.06.35-.14.62-.18.61s0-.29,0-.63S43.61,86.79,43.65,86.8Z"/><path class="cls-3" d="M36.43,125.1s7.65.77,8.08-7.4C44.51,117.7,36.47,117.69,36.43,125.1Z"/><path class="cls-2" d="M46.22,116s-1.57,1.55-3.57,3.4S39,122.71,39,122.67s1.57-1.55,3.57-3.4S46.19,115.94,46.22,116Z"/><path class="cls-2" d="M39,120.94a3,3,0,0,1,1-.17,3.45,3.45,0,0,1,1,0,3.19,3.19,0,0,1-1,.16A3.26,3.26,0,0,1,39,120.94Z"/><path class="cls-2" d="M42.88,119a3.13,3.13,0,0,1-.09,1.06,3.22,3.22,0,0,1-.25,1,6.93,6.93,0,0,1,.34-2.09Z"/><path class="cls-2" d="M11.42,133.13s1.33-1.72,3-3.77,3.14-3.71,3.17-3.68-1.33,1.72-3,3.78S11.45,133.16,11.42,133.13Z"/><path class="cls-2" d="M135.18,82.93s1.33-1.72,3-3.78,3.13-3.71,3.16-3.68-1.33,1.72-3,3.78S135.22,83,135.18,82.93Z"/><path class="cls-2" d="M81.22,141.64s1.32-1.72,3-3.78,3.13-3.7,3.17-3.67-1.33,1.72-3.05,3.77S81.25,141.67,81.22,141.64Z"/><path class="cls-2" d="M117.7,69.41s1.33-1.72,3-3.78,3.14-3.7,3.17-3.67-1.33,1.72-3,3.78S117.74,69.44,117.7,69.41Z"/><path class="cls-2" d="M125,115.93s1.33-1.72,3-3.78,3.14-3.7,3.17-3.67-1.33,1.72-3,3.78S125,116,125,115.93Z"/><path class="cls-2" d="M20.41,40.35s1.33-1.72,3-3.78,3.13-3.7,3.17-3.67-1.33,1.72-3.05,3.78S20.44,40.38,20.41,40.35Z"/><path class="cls-2" d="M49.92,40.35s1.33-1.72,3-3.78,3.13-3.7,3.16-3.67-1.32,1.72-3,3.78S50,40.38,49.92,40.35Z"/><path class="cls-2" d="M19.35,67.75S20.68,66,22.4,64s3.13-3.7,3.17-3.67S24.24,62,22.52,64.07,19.39,67.78,19.35,67.75Z"/><path class="cls-2" d="M19.51,101.6s1.33-1.72,3-3.78,3.14-3.71,3.17-3.68-1.33,1.72-3,3.78S19.54,101.62,19.51,101.6Z"/><path class="cls-2" d="M49.12,143.49s1.33-1.72,3-3.78S55.3,136,55.33,136s-1.33,1.72-3,3.78S49.16,143.52,49.12,143.49Z"/><path class="cls-2" d="M45,20.05s1.33-1.72,3-3.78,3.13-3.71,3.16-3.68-1.32,1.72-3,3.78S45.07,20.07,45,20.05Z"/><path class="cls-2" d="M136.29,29.79s1.33-1.72,3-3.78,3.13-3.7,3.17-3.68-1.33,1.72-3.05,3.78S136.32,29.81,136.29,29.79Z"/><path class="cls-2" d="M109.08,34.21s1.32-1.72,3-3.78,3.13-3.7,3.17-3.67-1.33,1.72-3.05,3.78S109.11,34.24,109.08,34.21Z"/><path class="cls-2" d="M84.64,20.05s1.33-1.72,3-3.78,3.14-3.71,3.17-3.68-1.33,1.72-3,3.78S84.68,20.07,84.64,20.05Z"/><path class="cls-4" d="M144.4,147S113.33,147,75,147,5.6,147,5.6,147s31.07-.08,69.4-.08S144.4,146.92,144.4,147Z"/><path class="cls-5" d="M95.8,40.65S80.46,28.4,62.73,36.42,46.17,66.33,46.17,66.33a8.47,8.47,0,0,1,7.7-.77s.86-6.59,7.89-4.94c0,0,4.78-7.77,12.16-4.38,0,0,2.52-7.2,11.71-4.9C85.63,51.34,88.92,43.19,95.8,40.65Z"/><g class="cls-6"><path d="M95.8,40.65S80.46,28.4,62.73,36.42,46.17,66.33,46.17,66.33a8.47,8.47,0,0,1,7.7-.77s.86-6.59,7.89-4.94c0,0,4.78-7.77,12.16-4.38,0,0,2.52-7.2,11.71-4.9C85.63,51.34,88.92,43.19,95.8,40.65Z"/></g><path class="cls-7" d="M104,89.9l.1.09.52.06a2.67,2.67,0,0,0,.85-.08,3.87,3.87,0,0,0,1-.38c.27-.19.63,0,.53.33a2.72,2.72,0,0,1-1.87,1c-1.05.18.41,1,.93,1.3a9.54,9.54,0,0,1,2.13,1.56c.05.34-.31.46-.83.14s-2.13-1.16-2.27-.87,2.54,1.8,2.54,1.8.62.23.46.56c-.29.61-3-1.22-3.28-1.4s-.35.18-.15.3,2.71,1.45,2.42,2.07-2.26-1.48-2.94-1.47,1.71,1.33,1.48,1.77c-.09.17-.18.28-1.43-.67a36.12,36.12,0,0,1-2.91-2.71Z"/><polygon class="cls-5" points="89.12 63.12 94.86 82.98 104.42 89.62 101.31 94.13 88.27 85.46 84.03 65.49 89.12 63.12"/><path class="cls-5" d="M91.57,78.46c-1.5,6.89.63,14,2.88,20.69s4.67,13.64,3.74,20.63l-8,2-6.5-31,5.53-13.28Z"/><path class="cls-4" d="M92,77.27s0,0,0,.15l-.11.43c0,.19-.11.42-.17.68s-.13.57-.18.91a22.38,22.38,0,0,0-.3,2.4,28.78,28.78,0,0,0,0,3,37.43,37.43,0,0,0,.69,5.33c.14.67.26,1.22.34,1.6l.1.43a.82.82,0,0,1,0,.16s0,0-.06-.15l-.12-.43c-.1-.37-.24-.91-.39-1.59a32.84,32.84,0,0,1-.74-5.34,26.42,26.42,0,0,1,0-3,19.4,19.4,0,0,1,.34-2.41c.06-.34.14-.64.21-.91s.13-.49.19-.67l.14-.43Z"/><path class="cls-4" d="M93,84.31A2,2,0,0,1,94.84,83a5.45,5.45,0,0,0-1,.48A8,8,0,0,0,93,84.31Z"/><path class="cls-8" d="M63.43,133.9c0-.32,13.69-19.77,13.69-19.77l7.55,2.9L67.43,136.88Z"/><path class="cls-5" d="M63.43,133.9l-.12.16L61,137.13l-2.91,2,3.9,7.5h4.29s-.31-1-2.38-1.56l-.13-4.12,3.7-4.06"/><polygon class="cls-9" points="58.05 139.12 61.95 146.62 66.23 146.62 65.75 145.98 62.27 145.78 58.67 138.7 58.05 139.12"/><path class="cls-4" d="M63.84,143.17c0,.05-.28-.09-.62-.08s-.57.14-.6.1.2-.29.6-.29S63.88,143.14,63.84,143.17Z"/><path class="cls-4" d="M63.77,142.15c-.05,0-.24-.22-.58-.29s-.61.09-.64,0,0-.09.15-.16a.87.87,0,0,1,.53-.07.74.74,0,0,1,.45.27C63.77,142.06,63.79,142.14,63.77,142.15Z"/><path class="cls-4" d="M63.8,140.84s-.2-.22-.5-.33-.56,0-.58,0,0-.08.16-.13a.75.75,0,0,1,.49,0,.7.7,0,0,1,.38.3C63.81,140.75,63.82,140.83,63.8,140.84Z"/><path class="cls-4" d="M64.94,139.83s-.17-.23-.43-.4-.54-.2-.54-.25.32-.13.64.09S65,139.82,64.94,139.83Z"/><path class="cls-4" d="M65.5,139a2.07,2.07,0,0,1-.37-.45l-.36-.52a1.53,1.53,0,0,1-.2-.34.34.34,0,0,1,0-.26.25.25,0,0,1,.25-.14.8.8,0,0,1,.41.21,1.48,1.48,0,0,1,.26.3,1.51,1.51,0,0,1,.22.61c0,.38-.08.6-.1.59a3.75,3.75,0,0,0,0-.56,1.62,1.62,0,0,0-.24-.55,1.34,1.34,0,0,0-.23-.25.74.74,0,0,0-.3-.16.08.08,0,0,0-.08,0,.16.16,0,0,0,0,.12,1.26,1.26,0,0,0,.16.3l.33.53C65.42,138.73,65.53,138.93,65.5,139Z"/><path class="cls-4" d="M65.66,139.07s0-.22.23-.48a1.08,1.08,0,0,1,1.27-.23.18.18,0,0,1,.06.15.2.2,0,0,1,0,.14.64.64,0,0,1-.15.14l-.3.17a2.06,2.06,0,0,1-.57.16,1,1,0,0,1-.53-.05,4.92,4.92,0,0,1,.51-.09,2.09,2.09,0,0,0,.51-.18,1.91,1.91,0,0,0,.27-.16.57.57,0,0,0,.11-.1s0,0,0,0-.07,0-.12-.05l-.16,0a1.06,1.06,0,0,0-.31,0,1,1,0,0,0-.46.24C65.75,138.89,65.69,139.09,65.66,139.07Z"/><path class="cls-9" d="M61.47,139a.51.51,0,1,1-.51-.51A.51.51,0,0,1,61.47,139Z"/><path class="cls-10" d="M65.8,133.86a2.68,2.68,0,0,1-.18-.87,2.19,2.19,0,0,1,0-.88,2.66,2.66,0,0,1,.18.86A2.24,2.24,0,0,1,65.8,133.86Z"/><path class="cls-10" d="M69.92,131.65a7.24,7.24,0,0,1-2.06.82,3.68,3.68,0,0,1,1-.48A3.89,3.89,0,0,1,69.92,131.65Z"/><path class="cls-10" d="M68.08,135.26a1.69,1.69,0,0,1-.24-.66,1.71,1.71,0,0,1-.09-.7,1.61,1.61,0,0,1,.24.66A1.71,1.71,0,0,1,68.08,135.26Z"/><path class="cls-10" d="M68.39,130.18a1.82,1.82,0,0,1-.17-1.42s0,.32.1.71A3.36,3.36,0,0,1,68.39,130.18Z"/><path class="cls-10" d="M71.6,127.6a7.34,7.34,0,0,1-.92.68,7.74,7.74,0,0,1-.93.68,2.94,2.94,0,0,1,.84-.81A2.76,2.76,0,0,1,71.6,127.6Z"/><path class="cls-10" d="M71.5,130.88a1.69,1.69,0,0,1-.19-.82,1.76,1.76,0,0,1,.06-.84,3.09,3.09,0,0,1,.1.83A3,3,0,0,1,71.5,130.88Z"/><path class="cls-10" d="M71.4,125.27a2.46,2.46,0,0,1-.78.44,2.48,2.48,0,0,1-.84.29,2.7,2.7,0,0,1,.78-.44A2.56,2.56,0,0,1,71.4,125.27Z"/><path class="cls-10" d="M73.69,127.1a3.36,3.36,0,0,1-.3-1,3.44,3.44,0,0,1-.14-1,3.36,3.36,0,0,1,.3,1A3.44,3.44,0,0,1,73.69,127.1Z"/><path class="cls-10" d="M75.18,126.34c-.05,0,0-.29.06-.62s.18-.58.22-.57a1.36,1.36,0,0,1-.06.61C75.32,126.09,75.22,126.35,75.18,126.34Z"/><polygon class="cls-8" points="88.02 115.53 98.7 138.8 104.23 138.8 96.79 114.79 88.02 115.53"/><path class="cls-5" d="M98.59,138.51l3.23,8.31,10.36-4c-.44-1-6.56-.9-6.56-.9l-1.85-5.41Z"/><g class="cls-11"><path class="cls-12" d="M102.24,142.73a.45.45,0,0,0-.11.59.43.43,0,0,0,.59.11.47.47,0,0,0,.11-.63.45.45,0,0,0-.62-.05"/></g><path class="cls-9" d="M101.82,146.82l-.3-.85,10-3.48s.54,0,.61.36Z"/><path class="cls-4" d="M105.77,141.83c0,.06-.23.18-.42.43s-.23.52-.29.52-.09-.32.14-.63S105.76,141.78,105.77,141.83Z"/><path class="cls-4" d="M107,141.87s-.16.21-.25.49,0,.53-.1.54-.2-.25-.08-.6S107,141.82,107,141.87Z"/><path class="cls-4" d="M108.14,142.93s-.21-.19-.18-.52.21-.53.25-.49,0,.23-.07.5S108.19,142.91,108.14,142.93Z"/><path class="cls-4" d="M105.21,140.65s-.26.07-.54.2-.47.3-.51.27.1-.29.43-.44S105.22,140.6,105.21,140.65Z"/><path class="cls-4" d="M104.49,139.51s-.18.13-.52.2a2.84,2.84,0,0,1-.61,0l-.35,0a1.28,1.28,0,0,1-.21-.07.23.23,0,0,1-.12-.26.29.29,0,0,1,.17-.2.59.59,0,0,1,.21,0,1.82,1.82,0,0,1,1,.11c.33.14.48.29.47.31s-.2-.09-.51-.18a2.29,2.29,0,0,0-.56-.08,2,2,0,0,0-.34,0c-.12,0-.21.05-.22.11s0,0,0,0l.15.05.34.05a3.6,3.6,0,0,0,.57,0C104.28,139.55,104.48,139.49,104.49,139.51Z"/><path class="cls-4" d="M104.45,139.61s-.18-.13-.33-.45a1.65,1.65,0,0,1-.14-.59,1.54,1.54,0,0,1,0-.37.46.46,0,0,1,.23-.39.26.26,0,0,1,.27.07.7.7,0,0,1,.13.17,1.14,1.14,0,0,1,.13.35,1.42,1.42,0,0,1,0,.62.76.76,0,0,1-.3.47s.11-.19.17-.5a1.31,1.31,0,0,0,0-.55.94.94,0,0,0-.12-.3c-.06-.1-.13-.18-.17-.15a.34.34,0,0,0-.12.24,1.83,1.83,0,0,0,0,.33,2.24,2.24,0,0,0,.1.56C104.35,139.43,104.48,139.59,104.45,139.61Z"/><path class="cls-10" d="M96.86,130.85a1.58,1.58,0,0,1-.72-.31c-.37-.22-.63-.45-.6-.49a2.34,2.34,0,0,1,.68.36C96.59,130.62,96.88,130.81,96.86,130.85Z"/><path class="cls-10" d="M98.09,130.08a1.21,1.21,0,0,1,.08-.7c.12-.38.31-.65.35-.62a2.46,2.46,0,0,1-.2.67C98.21,129.79,98.14,130.09,98.09,130.08Z"/><path class="cls-10" d="M100.47,130.08s-.25-.27-.48-.67a2,2,0,0,1-.34-.75,2.49,2.49,0,0,1,.48.67A2,2,0,0,1,100.47,130.08Z"/><path class="cls-10" d="M99.51,132.34a1.53,1.53,0,0,1-.05-.72,1.49,1.49,0,0,1,.11-.71,1.88,1.88,0,0,1,.05.72A1.84,1.84,0,0,1,99.51,132.34Z"/><path class="cls-10" d="M98.22,132.44a1.47,1.47,0,0,1-.71-.15c-.38-.15-.66-.32-.64-.36a2.29,2.29,0,0,1,.69.2A2.12,2.12,0,0,1,98.22,132.44Z"/><path class="cls-10" d="M99.33,133.35s-.2.31-.52.62-.6.54-.64.51.21-.31.53-.62S99.3,133.32,99.33,133.35Z"/><path class="cls-10" d="M100.94,133.37a1.4,1.4,0,0,1,.1-.72c.11-.38.27-.67.31-.65s0,.32-.16.7A2,2,0,0,1,100.94,133.37Z"/><path class="cls-10" d="M100.37,136s-.28-.18-.57-.47-.49-.56-.45-.59.28.18.57.48S100.41,135.92,100.37,136Z"/><path class="cls-10" d="M101.7,136.35a1.94,1.94,0,0,1,.09-.91,2.06,2.06,0,0,1,.35-.85,4.24,4.24,0,0,1-.2.89A4.52,4.52,0,0,1,101.7,136.35Z"/><path class="cls-10" d="M99.37,137.32s-.27-.18-.53-.47-.45-.54-.41-.57.27.17.53.46S99.41,137.29,99.37,137.32Z"/><path class="cls-4" d="M89.89,85.77h0c.17-2.11.48-4.49,1.51-6a4.21,4.21,0,0,0,.87-2.89c.22-2.29-1.61-3.72-1.87-6-.29-3.35-.28-5.2-1.74-5.58l-7.87-.33s-6.52-.23-4.65,9.74l3,9.47,1.18.77C78.7,86.09,75,89.54,73.9,96.7c-1.46,9.32-6.17,29.78-6.17,29.78s6.89-3.21,13,0S93.62,131,97.68,129.1s4.07-2.62,4.07-2.62Z"/><path class="cls-4" d="M78.34,87.46s0,0,0,.08l-.18.23a9.74,9.74,0,0,0-.63.89,13.24,13.24,0,0,0-1.61,3.68,23.2,23.2,0,0,0-.73,5.93c0,2.25.17,4.73.17,7.35a27.92,27.92,0,0,1-.25,3.81,24.31,24.31,0,0,1-.73,3.48,42,42,0,0,1-2.08,5.64c-.7,1.56-1.32,2.8-1.75,3.65l-.5,1-.13.25-.05.08s0,0,0-.09l.12-.26.47-1c.41-.86,1-2.11,1.69-3.68a44.49,44.49,0,0,0,2-5.63,26.59,26.59,0,0,0,1-7.24c0-2.61-.19-5.09-.15-7.35a22.47,22.47,0,0,1,.77-6,13,13,0,0,1,1.67-3.69A8.69,8.69,0,0,1,78.34,87.46Z"/><path class="cls-8" d="M87.3,104.13s0,.06,0,.19l.06.54q0,.36.06.87c0,.34,0,.73,0,1.16s0,.89,0,1.4-.07,1-.12,1.6a29.92,29.92,0,0,1-.65,3.62,31.3,31.3,0,0,1-1.14,3.5c-.22.52-.42,1-.65,1.47s-.43.88-.63,1.25-.4.71-.58,1-.33.54-.46.74l-.31.46a.63.63,0,0,1-.12.15l.09-.17.28-.47q.2-.3.45-.75c.16-.3.36-.63.55-1s.41-.79.61-1.25.42-1,.63-1.47a29.87,29.87,0,0,0,1.12-3.49,31.44,31.44,0,0,0,.66-3.6c.06-.56.12-1.09.14-1.59s.05-1,.05-1.39,0-.82,0-1.15,0-.63,0-.87l0-.55Z"/><path class="cls-8" d="M90.91,108.17a5.2,5.2,0,0,1-.43.73c-.28.44-.65,1-1,1.75s-.68,1.35-.9,1.83a5.52,5.52,0,0,1-.36.76,3.59,3.59,0,0,1,.26-.81,18,18,0,0,1,.85-1.85,17.85,17.85,0,0,1,1.07-1.75A3.74,3.74,0,0,1,90.91,108.17Z"/><path class="cls-8" d="M87.33,86.6a10.88,10.88,0,0,0-2,1.53,12.22,12.22,0,0,0-1.5,2,2.92,2.92,0,0,1,.3-.69,6.85,6.85,0,0,1,2.5-2.55A2.25,2.25,0,0,1,87.33,86.6Z"/><path class="cls-8" d="M79.33,61.77a4.49,4.49,0,0,0-4,1A12.25,12.25,0,0,1,71.79,65c-1.67.47-3.45-.12-5.06-.75a10.1,10.1,0,0,0-5-1.08c-1.9.29-3.63,1.71-5.52,1.42v7c1.54-.45,3.09-1.85,4.69-2a9.77,9.77,0,0,1,4.74.48c1,.4,1.93,1,3,1.41A7,7,0,0,0,74.4,71c.74-.43,1.67-1.75,2.44-2.13a4,4,0,0,1,3-.3"/><path class="cls-8" d="M56.58,67.62a2.49,2.49,0,0,0-.61-.05,3.06,3.06,0,0,0-.65.14,4,4,0,0,1-.84.17,2.53,2.53,0,0,1-1.48-.4,1.22,1.22,0,0,1-.47-.43s.19.15.53.34a2.63,2.63,0,0,0,1.41.32,4,4,0,0,0,.81-.14,2.59,2.59,0,0,1,.68-.11A.89.89,0,0,1,56.58,67.62Z"/><path class="cls-8" d="M56.58,70.48a2.49,2.49,0,0,0-.61,0,3.06,3.06,0,0,0-.65.14,4,4,0,0,1-.84.17A2.6,2.6,0,0,1,53,70.35a1.29,1.29,0,0,1-.47-.44s.19.15.53.34a2.72,2.72,0,0,0,1.41.33,4.86,4.86,0,0,0,.81-.15,2.59,2.59,0,0,1,.68-.11A.89.89,0,0,1,56.58,70.48Z"/><path class="cls-8" d="M56.16,71.54a2.31,2.31,0,0,0-.55.09L55,71.8a2.3,2.3,0,0,1-.76.09,2.48,2.48,0,0,1-1.32-.42,1.31,1.31,0,0,1-.41-.4s.17.13.47.3a2.73,2.73,0,0,0,1.27.36,6.4,6.4,0,0,0,1.32-.21,1.67,1.67,0,0,1,.42,0C56.11,71.5,56.16,71.53,56.16,71.54Z"/><path class="cls-8" d="M56.58,64.85a2.49,2.49,0,0,0-.61,0,3.06,3.06,0,0,0-.65.14,4,4,0,0,1-.84.17,2.53,2.53,0,0,1-1.48-.4,1.22,1.22,0,0,1-.47-.43s.19.15.53.34a2.63,2.63,0,0,0,1.41.32,3.42,3.42,0,0,0,.81-.15,3,3,0,0,1,.68-.1A.89.89,0,0,1,56.58,64.85Z"/><path class="cls-8" d="M56.58,66.2a2.18,2.18,0,0,0-.61-.06,3.83,3.83,0,0,0-.65.14,3.47,3.47,0,0,1-.84.17A2.6,2.6,0,0,1,53,66.06a1.32,1.32,0,0,1-.47-.43s.19.15.53.33a2.72,2.72,0,0,0,1.41.33,4,4,0,0,0,.81-.15A3.08,3.08,0,0,1,56,66,.86.86,0,0,1,56.58,66.2Z"/><path class="cls-8" d="M56.58,69.07A2.18,2.18,0,0,0,56,69a3.83,3.83,0,0,0-.65.14,3.47,3.47,0,0,1-.84.17A2.6,2.6,0,0,1,53,68.93a1.32,1.32,0,0,1-.47-.43s.19.15.53.33a2.72,2.72,0,0,0,1.41.33,4,4,0,0,0,.81-.15A3.08,3.08,0,0,1,56,68.9.86.86,0,0,1,56.58,69.07Z"/><path class="cls-10" d="M59.16,70.23a6.79,6.79,0,0,0,0-.87,11,11,0,0,0-.59-2,5.43,5.43,0,0,1-.39-2.11,2.51,2.51,0,0,1,.12-.64.6.6,0,0,1,.1-.22,5.53,5.53,0,0,0-.11.86,6.21,6.21,0,0,0,.43,2,8.92,8.92,0,0,1,.55,2.07,2.86,2.86,0,0,1,0,.66A.53.53,0,0,1,59.16,70.23Z"/><path class="cls-10" d="M63.34,63.23a1.15,1.15,0,0,1,.09.24c0,.16.1.39.16.67a10.49,10.49,0,0,1,.17,2.27,10.33,10.33,0,0,1-.32,2.24,5.53,5.53,0,0,1-.2.66c-.06.15-.09.24-.1.23a6.61,6.61,0,0,1,.19-.91,12.92,12.92,0,0,0,.15-4.47A9.21,9.21,0,0,1,63.34,63.23Z"/><path class="cls-10" d="M69.75,71.86s-.06-.08-.15-.23a5.13,5.13,0,0,1-.35-.68,8.63,8.63,0,0,1-.6-4.92,4.6,4.6,0,0,1,.17-.74,1.1,1.1,0,0,1,.09-.26s-.07.39-.15,1a10.56,10.56,0,0,0,0,2.47,10.17,10.17,0,0,0,.61,2.39C69.59,71.5,69.78,71.85,69.75,71.86Z"/><path class="cls-10" d="M74.65,63.23a2.83,2.83,0,0,0-.16,1.06,5.83,5.83,0,0,0,.23,1.15,12.19,12.19,0,0,1,.37,1.42,10.26,10.26,0,0,1,.17,2.65c0,.34-.07.62-.1.8a1.48,1.48,0,0,1-.07.29s0-.42,0-1.09a11.86,11.86,0,0,0-.21-2.62c-.09-.51-.23-1-.35-1.41a4.62,4.62,0,0,1-.2-1.19,2.29,2.29,0,0,1,.13-.8C74.58,63.31,74.64,63.22,74.65,63.23Z"/><path class="cls-4" d="M78.49,64.17a2.49,2.49,0,0,1-1.64,2,19.31,19.31,0,0,1-2.62.66A8.07,8.07,0,0,0,69.68,70a5.51,5.51,0,0,1-.86,1.1,1.26,1.26,0,0,1-1.29.26,7.34,7.34,0,0,0,2.68,3.13,2.36,2.36,0,0,1,1.36-.84,2,2,0,0,0,0,1.59,1.89,1.89,0,0,0,.71.57c.45.26.9.52,1.35.76a1.44,1.44,0,0,0,.73.24c.58,0,.87-.68,1.24-1.12a3.8,3.8,0,0,1,2-1.13,11.79,11.79,0,0,0,2.18-.7,2.45,2.45,0,0,0,1.4-1.71"/><path class="cls-4" d="M78.55,65.22s0,0-.08.1a1.68,1.68,0,0,1-.27.27,3,3,0,0,1-1.26.57,8,8,0,0,1-2,.16,7,7,0,0,0-2.45.27,5.6,5.6,0,0,0-1.94,1.48A7.86,7.86,0,0,1,69,69.44a2.79,2.79,0,0,1-1.3.45,2.09,2.09,0,0,1-.38,0l-.13,0s.18,0,.5,0a2.82,2.82,0,0,0,1.25-.49A8,8,0,0,0,70.4,68a5.61,5.61,0,0,1,2-1.53,6.9,6.9,0,0,1,2.5-.27,8.4,8.4,0,0,0,2-.12,3.1,3.1,0,0,0,1.24-.51C78.42,65.35,78.54,65.21,78.55,65.22Z"/><path class="cls-2" d="M88.87,85.66a3.92,3.92,0,0,1-3.05-2.36L70.32,47.08a.36.36,0,1,1,.66-.29L86.48,83a3.22,3.22,0,1,0,5.9-2.6l-.48-1a.36.36,0,0,1,.66-.3l.48,1a4,4,0,0,1-2.14,5.31A4.08,4.08,0,0,1,88.87,85.66Z"/><path class="cls-5" d="M95.8,40.65a13.66,13.66,0,0,0-11.71,6S76.31,44.82,73,50.9c0,0-9-2.36-12.13,5.76,0,0-7.26-1.33-8.65,5.25,0,0-4.94-.53-6,4.43,0,0-1.17-21,15.62-29.47C79.53,27.9,95.8,40.65,95.8,40.65Z"/><path class="cls-4" d="M61.57,37a2,2,0,0,1-.24.17c-.15.1-.39.24-.67.46a16.38,16.38,0,0,0-2.26,2,22.35,22.35,0,0,0-2.74,3.49,20.83,20.83,0,0,0-1.27,2.3,17.45,17.45,0,0,0-1,2.63A42.87,42.87,0,0,0,52,57.79c0,1.27-.06,2.3-.07,3v.82a1.45,1.45,0,0,1,0,.28,1.45,1.45,0,0,1,0-.28c0-.21,0-.48,0-.82,0-.71,0-1.74,0-3A40.84,40.84,0,0,1,53.22,48a17.85,17.85,0,0,1,1-2.66A22.85,22.85,0,0,1,55.51,43a21.49,21.49,0,0,1,2.8-3.49,14.53,14.53,0,0,1,2.31-1.94c.29-.21.53-.34.69-.44Z"/><path class="cls-4" d="M61.57,37s-.21.2-.52.61a6.25,6.25,0,0,0-.91,1.95,14.29,14.29,0,0,0-.51,3.17c-.1,1.22-.17,2.55-.18,3.95A42,42,0,0,0,60,53.82c.16.91.31,1.64.41,2.14.05.23.1.43.13.58a1,1,0,0,1,0,.21.8.8,0,0,1-.07-.2L60.34,56c-.13-.5-.3-1.23-.47-2.14a37.8,37.8,0,0,1-.61-7.18c0-1.41.09-2.75.19-4A15,15,0,0,1,60,39.5a5.73,5.73,0,0,1,1-2,3.89,3.89,0,0,1,.4-.44Z"/><path class="cls-4" d="M62.28,36.63s.06,0,.16.08a4.76,4.76,0,0,1,.45.27,15.88,15.88,0,0,1,1.57,1.11,15.4,15.4,0,0,1,2.07,2,25,25,0,0,1,2.12,2.78,50.56,50.56,0,0,1,3.14,5.51c.36.72.65,1.31.84,1.72l.22.48c0,.11.07.17.06.17a1.21,1.21,0,0,1-.1-.16l-.25-.45-.89-1.7a62.72,62.72,0,0,0-3.18-5.47,27,27,0,0,0-2.09-2.77,18.47,18.47,0,0,0-2-2c-.62-.51-1.16-.89-1.53-1.15A6.64,6.64,0,0,1,62.28,36.63Z"/><path class="cls-4" d="M62.28,36.63a.86.86,0,0,1,.24-.11l.72-.25A17.24,17.24,0,0,1,66,35.65a12.28,12.28,0,0,1,4.15.12,18.15,18.15,0,0,1,4.77,1.76A24,24,0,0,1,82,43.34a23.42,23.42,0,0,1,1.68,2.23c.19.28.32.5.41.64a1.58,1.58,0,0,1,.13.24,1.23,1.23,0,0,1-.16-.22c-.11-.14-.24-.35-.44-.62-.38-.53-1-1.3-1.72-2.19A24.81,24.81,0,0,0,74.8,37.7a18.28,18.28,0,0,0-4.71-1.76,12.62,12.62,0,0,0-4.1-.16,20.16,20.16,0,0,0-2.73.56l-.72.22Z"/><path class="cls-4" d="M93.44,40.7l-.08,0-.21-.13L92.36,40l-.58-.38-.7-.41c-.51-.3-1.08-.64-1.75-1l-1-.52-1.15-.5c-.79-.37-1.67-.66-2.58-1a39.68,39.68,0,0,0-6.16-1.5,35.75,35.75,0,0,0-6.33-.33c-1,.08-1.89.11-2.75.26l-1.24.19L67,35.11a17.79,17.79,0,0,0-1.92.53l-.78.24-.64.25-.89.34-.23.08-.08,0,.07,0,.23-.11.87-.37.64-.27.78-.25A17.41,17.41,0,0,1,66.93,35l1.13-.26c.4-.08.82-.13,1.25-.2.86-.16,1.79-.2,2.77-.29a35.14,35.14,0,0,1,6.36.32,38.53,38.53,0,0,1,6.18,1.52c.92.35,1.8.65,2.59,1,.4.18.78.34,1.15.52l1,.53a20,20,0,0,1,1.74,1l.7.42.57.39.78.56.2.14S93.44,40.69,93.44,40.7Z"/><path class="cls-2" d="M51,48.66a2.13,2.13,0,0,1-.2.41c-.14.25-.33.62-.56,1.08a24.62,24.62,0,0,0-1.45,3.76,23.22,23.22,0,0,0-.75,4c-.06.52-.09.94-.1,1.22a2.39,2.39,0,0,1,0,.45,2.71,2.71,0,0,1,0-.45c0-.29,0-.71,0-1.23a20.31,20.31,0,0,1,.71-4,20,20,0,0,1,1.51-3.77c.25-.46.46-.82.62-1.06A1.93,1.93,0,0,1,51,48.66Z"/><path class="cls-2" d="M52.58,45.82s-.13.32-.38.63-.48.54-.52.51.13-.32.38-.63S52.54,45.79,52.58,45.82Z"/><path class="cls-5" d="M79.77,64.89c-2.06.62-3.42,2.62-4,4.68a49.64,49.64,0,0,0-1,6.35c-.94,5.74-4.22,10.83-8,15.28s-8,8.45-11.51,13.09S49.05,114.43,49,120.24l27,2s1.27-25.32,3.65-30,5-11.67,5-14-1.2-12.23-1.2-12.23Z"/><path class="cls-5" d="M79,65.63s-4.34.21-6.73,6c-.82,2-2.4,6.71-3.42,10.24-.67,2.31-.14,3.84,1.15,4.69a3.87,3.87,0,0,0,2.3.58l12.42-1.61-1.11-6.07-7.26,1,1.34-4.21Z"/><path class="cls-4" d="M76.65,80.47a3.63,3.63,0,0,0-2.33,2.13,1,1,0,0,1,.12-.48,2.88,2.88,0,0,1,.69-1,3,3,0,0,1,1-.61A1,1,0,0,1,76.65,80.47Z"/><path class="cls-4" d="M83.52,79.76l-.15,0-.42,0L81.4,80l-5.21.55h-.13l0-.11.21-.62c.69-2.1,1.33-4,1.8-5.37.23-.67.43-1.22.57-1.63l.16-.43c0-.1.06-.16.07-.15s0,0,0,.16l-.13.44-.52,1.64c-.44,1.39-1.06,3.29-1.76,5.39l-.21.62-.08-.11,5.21-.5L83,79.78l.42,0C83.46,79.75,83.52,79.75,83.52,79.76Z"/><path class="cls-4" d="M83.52,79.76l0,.1.08.32.26,1.22c.22,1.06.52,2.54.88,4.28l0,.08h-.08c-1.37.18-2.93.35-4.57.51L76,86.7l-1.8.2c-.56.06-1.09.13-1.57.16a5.16,5.16,0,0,1-2.27-.28,2.81,2.81,0,0,1-.55-.31c-.11-.08-.17-.13-.16-.14a3.25,3.25,0,0,0,.73.39,5.17,5.17,0,0,0,2.24.22c.48,0,1-.1,1.56-.17l1.8-.22,4.13-.43c1.65-.16,3.21-.33,4.57-.49l-.06.08c-.34-1.75-.62-3.23-.83-4.3l-.22-1.22,0-.32C83.52,79.8,83.51,79.76,83.52,79.76Z"/><path class="cls-4" d="M72.25,93.76a3.43,3.43,0,0,1-.73.47,7.18,7.18,0,0,1-2,.81A3.74,3.74,0,0,1,67.45,95a2.38,2.38,0,0,1-.58-.29c-.12-.09-.18-.15-.17-.15a8.35,8.35,0,0,0,.79.34,4.07,4.07,0,0,0,2,0,8.45,8.45,0,0,0,1.93-.75A5.54,5.54,0,0,1,72.25,93.76Z"/><path class="cls-4" d="M77.58,93.32a.76.76,0,0,0-.49.07.64.64,0,0,0-.29.4.51.51,0,0,0,.29.5.49.49,0,0,0,.56,0,.57.57,0,0,0,.18-.46.78.78,0,0,0-.2-.44s.06,0,.13.07a.54.54,0,0,1,.18.36.66.66,0,0,1-.19.58.63.63,0,0,1-.74.07.64.64,0,0,1-.35-.66.71.71,0,0,1,.38-.48.61.61,0,0,1,.41,0C77.54,93.27,77.58,93.31,77.58,93.32Z"/><path class="cls-4" d="M75.45,103.23a.78.78,0,0,0-.48.08.56.56,0,0,0-.29.4.54.54,0,0,0,.85.46.59.59,0,0,0,.18-.46.79.79,0,0,0-.2-.45s.06,0,.13.07a.58.58,0,0,1,.18.37.69.69,0,0,1-.19.58.68.68,0,0,1-1.09-.6.64.64,0,0,1,.38-.47.55.55,0,0,1,.4,0C75.42,103.18,75.46,103.22,75.45,103.23Z"/><path class="cls-4" d="M74.3,113.69a.78.78,0,0,0-.48.08.56.56,0,0,0-.29.4.54.54,0,0,0,.85.46.56.56,0,0,0,.17-.46.79.79,0,0,0-.19-.45.37.37,0,0,1,.13.07.67.67,0,0,1,.18.37.69.69,0,0,1-.19.58.64.64,0,0,1-.75.06.63.63,0,0,1-.35-.65.69.69,0,0,1,.38-.48.57.57,0,0,1,.41,0A.35.35,0,0,1,74.3,113.69Z"/><path class="cls-10" d="M76.14,118.64l-.06,0-.18.11a3.83,3.83,0,0,1-.76.3,4.68,4.68,0,0,1-1.28.15,6.61,6.61,0,0,1-1.7-.28,10.26,10.26,0,0,1-1.92-.77c-.67-.34-1.35-.73-2.09-1.12a11.45,11.45,0,0,0-2.41-1,6.11,6.11,0,0,0-2.76,0,15,15,0,0,0-2.66.85c-.85.33-1.67.66-2.47.9a8.74,8.74,0,0,1-2.35.41,8.26,8.26,0,0,1-2.06-.21,8.06,8.06,0,0,1-2.75-1.19c-.29-.2-.51-.37-.65-.49l-.16-.15-.05,0,.07,0,.16.13c.15.12.37.28.66.47a8.37,8.37,0,0,0,2.74,1.13,8.2,8.2,0,0,0,2,.18,8.53,8.53,0,0,0,2.31-.41c.79-.25,1.6-.58,2.45-.91a16,16,0,0,1,2.69-.86,6.23,6.23,0,0,1,2.82,0,10.65,10.65,0,0,1,2.44,1c.75.39,1.43.79,2.09,1.13a10.91,10.91,0,0,0,1.9.78,6.8,6.8,0,0,0,1.66.3,4.76,4.76,0,0,0,1.27-.12A5.49,5.49,0,0,0,76.14,118.64Z"/><path class="cls-10" d="M76.35,117.23l-.06,0-.2.09a3.79,3.79,0,0,1-.79.22,6,6,0,0,1-3-.37,12.6,12.6,0,0,1-1.9-.87c-.66-.36-1.34-.77-2.08-1.16a9.7,9.7,0,0,0-2.45-.92,7.44,7.44,0,0,0-2.78,0,44.79,44.79,0,0,0-5.2,1.67,12.47,12.47,0,0,1-2.34.54,6.54,6.54,0,0,1-2.09-.07,4.94,4.94,0,0,1-2.66-1.36,3.78,3.78,0,0,1-.5-.66l-.1-.19,0-.06a5.15,5.15,0,0,0,.67.86,5,5,0,0,0,2.64,1.3,6.4,6.4,0,0,0,2.06,0,12.27,12.27,0,0,0,2.3-.54,42.72,42.72,0,0,1,5.22-1.69,7.34,7.34,0,0,1,2.84,0,9.18,9.18,0,0,1,2.48.94c.75.39,1.43.81,2.09,1.17a12.55,12.55,0,0,0,1.87.89,6.2,6.2,0,0,0,2.93.41A7.55,7.55,0,0,0,76.35,117.23Z"/><path class="cls-7" d="M84.58,84.67l-.8-3.86,1-.34A10.08,10.08,0,0,0,86,79.38a2.52,2.52,0,0,0,.51-.7,4.25,4.25,0,0,0,.38-1,.34.34,0,0,1,.61-.18,2.75,2.75,0,0,1-.5,2.09c-.38.62.22.57.83.41a.91.91,0,0,1,1.09.56l.5,1.29a1.53,1.53,0,0,1-1,2L88,84h0l-3.55.7"/><path class="cls-7" d="M80.94,50.54v1L80.65,66.1a3.36,3.36,0,0,0,3.41,3.14h0c1.83,0,2.57-1.36,2.62-3.07s.15-3.67.15-3.67a3.75,3.75,0,0,0,2.88-3.32,32.33,32.33,0,0,0,.2-6c-.06-1.81-1.59-4.15-3.4-4Z"/><path class="cls-4" d="M89.28,55a.38.38,0,0,1-.39.38.36.36,0,0,1-.38-.36.39.39,0,0,1,.38-.38A.38.38,0,0,1,89.28,55Z"/><path class="cls-4" d="M89.34,54.48c0,.05-.33-.18-.75-.19s-.72.19-.77.14,0-.11.17-.21a1.06,1.06,0,0,1,.62-.17,1,1,0,0,1,.59.21C89.33,54.36,89.37,54.46,89.34,54.48Z"/><path class="cls-4" d="M85.15,54.89a.38.38,0,0,1-.38.38.36.36,0,0,1-.39-.36.39.39,0,0,1,.38-.38A.38.38,0,0,1,85.15,54.89Z"/><path class="cls-4" d="M85.25,54.44c0,.05-.33-.17-.75-.18s-.72.19-.77.13,0-.11.17-.2a1.06,1.06,0,0,1,.62-.17.94.94,0,0,1,.59.21C85.24,54.33,85.28,54.42,85.25,54.44Z"/><path class="cls-4" d="M86.68,57.57a2.66,2.66,0,0,1,.68-.11c.1,0,.2,0,.22-.09a.5.5,0,0,0-.06-.32l-.29-.82a16.11,16.11,0,0,1-.65-2.13,12.48,12.48,0,0,1,.82,2.08c.1.28.19.56.28.82a.59.59,0,0,1,0,.42.3.3,0,0,1-.18.15l-.18,0A2.88,2.88,0,0,1,86.68,57.57Z"/><path class="cls-13" d="M86.83,62.5a7.69,7.69,0,0,1-4-1.19,3.83,3.83,0,0,0,3.94,1.9Z"/><path class="cls-13" d="M86.48,58.56a.77.77,0,0,0-.67-.29.66.66,0,0,0-.48.24.42.42,0,0,0,0,.49.5.5,0,0,0,.54.16,1.72,1.72,0,0,0,.54-.31.46.46,0,0,0,.12-.12.12.12,0,0,0,0-.15"/><path class="cls-4" d="M85.45,57.82c.06,0,0,.45.43.78s.86.3.86.36-.11.08-.31.08a1.08,1.08,0,0,1-.72-.27,1,1,0,0,1-.33-.65C85.36,57.93,85.42,57.82,85.45,57.82Z"/><path class="cls-4" d="M85.39,53.23c0,.12-.46.05-1,.1s-.89.16-1,.06,0-.15.21-.26a1.69,1.69,0,0,1,.71-.23,1.56,1.56,0,0,1,.73.11C85.32,53.09,85.41,53.18,85.39,53.23Z"/><path class="cls-4" d="M89.36,53.64c-.09.09-.44,0-.86,0s-.77,0-.85-.06,0-.14.18-.23a1.47,1.47,0,0,1,.7-.14,1.44,1.44,0,0,1,.68.21C89.35,53.49,89.4,53.59,89.36,53.64Z"/><path class="cls-4" d="M87.19,49.22c-.61,2.21-3.57,3-4.33,5.19A5.31,5.31,0,0,0,83.21,58a11.07,11.07,0,0,1,1,3.52,1.61,1.61,0,0,1-2.55,1.59c-1.15-.53-1.24-1.33-1.86-2.43A23.55,23.55,0,0,1,77.65,57a5.63,5.63,0,0,1-.38-2.49,4.83,4.83,0,0,1,.9-1.95,17,17,0,0,1,2.93-3.29,6.2,6.2,0,0,1,3.26-1.69,2.78,2.78,0,0,1,3,1.71"/><path class="cls-4" d="M86.76,49.56A9.2,9.2,0,0,0,88.69,51a3.29,3.29,0,0,1,1.22,2.22,5.29,5.29,0,0,0-.18-2.59,3.55,3.55,0,0,0-1.67-2,2.62,2.62,0,0,0-2.52.05"/><path class="cls-4" d="M79.64,60.12a1.55,1.55,0,0,0-.09-.56,1.73,1.73,0,0,0-.38-.54,3,3,0,0,0-.73-.49A8.26,8.26,0,0,1,77.5,58a3.54,3.54,0,0,1-.84-.95,2.82,2.82,0,0,1-.42-1.33,3.06,3.06,0,0,1,.35-1.47A7.89,7.89,0,0,1,77.4,53a13.67,13.67,0,0,1,.9-1A20.63,20.63,0,0,1,80,50.34c.51-.43.94-.75,1.24-1l.34-.25a.65.65,0,0,1,.13-.08l-.11.11-.32.27c-.29.24-.71.58-1.21,1s-1.09,1-1.69,1.6a11.62,11.62,0,0,0-.88,1,6.71,6.71,0,0,0-.79,1.22,2.94,2.94,0,0,0-.34,1.39A2.73,2.73,0,0,0,76.78,57a3.25,3.25,0,0,0,.81.91,6.49,6.49,0,0,0,.91.57,2.81,2.81,0,0,1,.73.53,1.6,1.6,0,0,1,.37.58,1.11,1.11,0,0,1,.07.43.75.75,0,0,1,0,.11Z"/><path class="cls-8" d="M81.34,60a1.26,1.26,0,0,0-.17-.57,2,2,0,0,0-.48-.51c-.21-.17-.49-.34-.76-.57a3,3,0,0,1,.41-4.83,7.3,7.3,0,0,1,1.44-.64,14.29,14.29,0,0,0,1.36-.52,12.65,12.65,0,0,0,2.14-1.2,15.55,15.55,0,0,0,1.3-1c.29-.26.44-.42.45-.41s0,.05-.1.12l-.31.33a10.48,10.48,0,0,1-1.28,1.08,12.22,12.22,0,0,1-2.14,1.25c-.42.19-.89.36-1.36.53a6.83,6.83,0,0,0-1.41.63,2.9,2.9,0,0,0-1.38,2.46,3,3,0,0,0,1,2.14c.25.24.52.41.74.59a1.77,1.77,0,0,1,.47.55.94.94,0,0,1,.13.44A.38.38,0,0,1,81.34,60Z"/><path class="cls-8" d="M77.84,55l0-.11a2.63,2.63,0,0,1,0-.33,2.29,2.29,0,0,1,.39-1.16,3.2,3.2,0,0,1,1.4-1.14,7.45,7.45,0,0,1,2.15-.51,18.29,18.29,0,0,0,2.16-.32,8.68,8.68,0,0,0,1.67-.6,9.69,9.69,0,0,0,1.38-.89s0,0-.08.09a1.88,1.88,0,0,1-.24.22,5.6,5.6,0,0,1-1,.68,7.47,7.47,0,0,1-1.69.64,15.18,15.18,0,0,1-2.17.34,7.42,7.42,0,0,0-2.11.49,3.16,3.16,0,0,0-1.37,1.06,2.5,2.5,0,0,0-.42,1.1C77.83,54.8,77.86,55,77.84,55Z"/><path class="cls-8" d="M82.1,68.91c-.29,2.22-.69,4.64-2.38,6.12a27.35,27.35,0,0,1-3,1.85,7.06,7.06,0,0,0-3,5.1A22.77,22.77,0,0,0,80,84.6c.33-2,1.85-3.57,3.38-4.9s3.21-2.63,4.06-4.47c1.13-2.45.56-5.33-.12-8"/><path class="cls-8" d="M74,81.06a5.1,5.1,0,0,0,0,.76c0,.23,0,.51,0,.83a1.76,1.76,0,0,1-.28,1,2,2,0,0,1-.86.61,3.85,3.85,0,0,0-.71.38,1.35,1.35,0,0,0-.45.59s0-.08,0-.21a1.17,1.17,0,0,1,.34-.47,3.8,3.8,0,0,1,.73-.43,1.88,1.88,0,0,0,.79-.56,1.74,1.74,0,0,0,.26-.92c0-.31,0-.59,0-.83A1.32,1.32,0,0,1,74,81.06Z"/><path class="cls-8" d="M75.7,82.06a3.84,3.84,0,0,0,0,.76c0,.23,0,.51,0,.83a1.79,1.79,0,0,1-.28,1,2,2,0,0,1-.85.6,3.19,3.19,0,0,0-.72.39,1.23,1.23,0,0,0-.44.58s0-.08,0-.21a1.06,1.06,0,0,1,.34-.46,2.81,2.81,0,0,1,.73-.43,2,2,0,0,0,.78-.57,1.63,1.63,0,0,0,.26-.92c0-.31,0-.59,0-.83A1.4,1.4,0,0,1,75.7,82.06Z"/><path class="cls-8" d="M77.47,83.15a7.61,7.61,0,0,0,0,.76c0,.23,0,.51,0,.83a1.78,1.78,0,0,1-.28,1,2,2,0,0,1-.85.61,3.19,3.19,0,0,0-.72.38,1.55,1.55,0,0,0-.45.58.51.51,0,0,1,0-.2,1.14,1.14,0,0,1,.35-.47,3,3,0,0,1,.72-.43,2,2,0,0,0,.79-.56,1.65,1.65,0,0,0,.26-.92c0-.31,0-.59,0-.83A1.55,1.55,0,0,1,77.47,83.15Z"/><path class="cls-8" d="M79.35,84.15a5.1,5.1,0,0,0,0,.76c0,.23,0,.51,0,.83a1.75,1.75,0,0,1-.27,1,2,2,0,0,1-.86.61,4,4,0,0,0-.72.38,1.27,1.27,0,0,0-.44.59s0-.08,0-.21a1.17,1.17,0,0,1,.34-.47,3.8,3.8,0,0,1,.73-.43,1.88,1.88,0,0,0,.79-.56,1.83,1.83,0,0,0,.26-.92c0-.31,0-.59,0-.83A1.32,1.32,0,0,1,79.35,84.15Z"/><path class="cls-10" d="M85.24,78s-.25-.24-.65-.62A14.72,14.72,0,0,0,81.1,74.9c-.49-.25-.81-.39-.8-.41a3.4,3.4,0,0,1,.85.31A10.9,10.9,0,0,1,83,75.89a11.54,11.54,0,0,1,1.64,1.42A3.25,3.25,0,0,1,85.24,78Z"/><path class="cls-10" d="M82.23,80.68s-.15-.33-.48-.81a7.25,7.25,0,0,0-1.6-1.58c-.71-.53-1.41-.93-1.91-1.25a5.16,5.16,0,0,1-.78-.54,5.74,5.74,0,0,1,.84.45,18,18,0,0,1,2,1.21,6.37,6.37,0,0,1,1.59,1.65,3.7,3.7,0,0,1,.32.62A.7.7,0,0,1,82.23,80.68Z"/><path class="cls-10" d="M80.65,82.77a1.26,1.26,0,0,1-.29,0c-.18,0-.44-.08-.76-.16a10.77,10.77,0,0,1-2.37-1,9.88,9.88,0,0,1-2-1.54,5.83,5.83,0,0,1-.53-.57c-.12-.14-.18-.22-.17-.23s.29.28.78.72a12.17,12.17,0,0,0,2,1.48,12.33,12.33,0,0,0,2.32,1C80.26,82.67,80.65,82.75,80.65,82.77Z"/><path class="cls-10" d="M87.93,73.26l-.26.09a4.65,4.65,0,0,1-.71.14,7.53,7.53,0,0,1-2.39-.06,7.66,7.66,0,0,1-2.27-.78,5.33,5.33,0,0,1-.61-.38c-.14-.11-.22-.16-.21-.17s.33.18.88.45a9.18,9.18,0,0,0,2.24.73,9.31,9.31,0,0,0,2.35.1C87.55,73.32,87.92,73.23,87.93,73.26Z"/><path class="cls-8" d="M79.13,61.3c.17-.73.66-1,1.33-1.39a5.2,5.2,0,0,1,3.68.09,5.2,5.2,0,0,0,3.68.08c.47-.24.86-.62,1.32-.9A1.54,1.54,0,0,1,90.66,59a1.58,1.58,0,0,1,.51,1.76,12.81,12.81,0,0,0-.54,1.9,10.27,10.27,0,0,0,.26,2,4.62,4.62,0,0,1-2,4.11,6.75,6.75,0,0,1-4.59,1,7.25,7.25,0,0,1-3.55-1.37,5.26,5.26,0,0,1-2-3.18,9.33,9.33,0,0,1,.47-4.11"/><path class="cls-4" d="M88.68,68.87l-.21.16a3.4,3.4,0,0,1-.64.37,6.55,6.55,0,0,1-2.34.65,6.66,6.66,0,0,1-2.42-.24,4.64,4.64,0,0,1-.7-.26c-.15-.07-.24-.12-.23-.13s.36.13,1,.28a7.25,7.25,0,0,0,4.68-.4C88.35,69.05,88.67,68.84,88.68,68.87Z"/><path class="cls-4" d="M90.68,64.14l-.1.08a1.74,1.74,0,0,1-.31.19,4.31,4.31,0,0,1-1.27.43,9.87,9.87,0,0,1-4.4-.32,11.05,11.05,0,0,1-3.9-2.08,10.6,10.6,0,0,1-1-.92,4.86,4.86,0,0,1-.31-.39,4.1,4.1,0,0,1,.36.34c.23.22.56.53,1,.88a11.51,11.51,0,0,0,3.87,2,10.17,10.17,0,0,0,4.34.37,4.89,4.89,0,0,0,1.26-.38C90.53,64.22,90.68,64.13,90.68,64.14Z"/><path class="cls-10" d="M81.2,62.79s-.09.32-.22.84a10.22,10.22,0,0,0-.27,2.05,9.81,9.81,0,0,0,.17,2c.1.52.19.84.17.85a3.12,3.12,0,0,1-.28-.82,8.1,8.1,0,0,1-.22-2.09,8.26,8.26,0,0,1,.32-2.07A3,3,0,0,1,81.2,62.79Z"/><path class="cls-10" d="M83.58,59.87a3.78,3.78,0,0,0-.43.42,2.5,2.5,0,0,0-.48,1.34,5.52,5.52,0,0,0,.13,1.45,2.52,2.52,0,0,1,.1.61,2.22,2.22,0,0,1-.21-.58,4.53,4.53,0,0,1-.18-1.49,2.41,2.41,0,0,1,.55-1.4A1,1,0,0,1,83.58,59.87Z"/><path class="cls-10" d="M85.11,69.87s-.09,0-.24-.05a1.08,1.08,0,0,1-.45-.47,2.43,2.43,0,0,1-.24-.92c0-.36-.08-.74-.11-1.15-.06-.82-.08-1.56-.08-2.1a4.38,4.38,0,0,1,0-.86,3.72,3.72,0,0,1,.07.86c0,.54.07,1.27.13,2.09l.1,1.14a2.67,2.67,0,0,0,.19.89,1,1,0,0,0,.38.46C85,69.84,85.11,69.86,85.11,69.87Z"/><path class="cls-10" d="M88.36,64.72a2.4,2.4,0,0,1,.14.71,6,6,0,0,1,0,1.73A6.38,6.38,0,0,1,88,68.83a2.69,2.69,0,0,1-.36.62,12.18,12.18,0,0,0,.71-2.31A12.82,12.82,0,0,0,88.36,64.72Z"/><path class="cls-10" d="M86.66,60.49a.36.36,0,0,1,.12.12.89.89,0,0,1,.14.46,2.87,2.87,0,0,1,0,.69c0,.25-.06.52-.08.82-.08,1.17.09,2.11,0,2.12a1.78,1.78,0,0,1-.14-.61,7.11,7.11,0,0,1-.06-1.52,6.91,6.91,0,0,1,.1-.84,4.52,4.52,0,0,0,.08-.66A1.38,1.38,0,0,0,86.66,60.49Z"/><path class="cls-10" d="M89.49,59s.09,0,.23.08a.92.92,0,0,1,.41.51,1.62,1.62,0,0,1,0,1c-.09.35-.26.71-.38,1.1-.27.78.12,1.51.1,2.07a1.46,1.46,0,0,1-.13.64c-.08.14-.15.2-.15.19a1.49,1.49,0,0,0,.16-.83,5.53,5.53,0,0,0-.17-.92,3.44,3.44,0,0,1-.06-.58,2.16,2.16,0,0,1,.1-.61c.12-.41.29-.76.38-1.1a1.46,1.46,0,0,0,0-.9,1,1,0,0,0-.33-.5C89.57,59.07,89.49,59.05,89.49,59Z"/><path class="cls-10" d="M79.9,61.8a.75.75,0,0,1,0-.42,2.45,2.45,0,0,1,.4-.92,2.62,2.62,0,0,1,.73-.7,1,1,0,0,1,.39-.16,5,5,0,0,0-1,.95A4.43,4.43,0,0,0,79.9,61.8Z"/><path class="cls-5" d="M130.16,141.49a2.3,2.3,0,0,1,.88-2.09,5.86,5.86,0,0,0,1.55-1.79c.48-1.19-.15-2.74.67-3.74.48-.58,1.34-.77,1.77-1.4a3,3,0,0,0,.38-1.12,11.42,11.42,0,0,1,2.87-5.28,10,10,0,0,1-1.14,5.1,6.33,6.33,0,0,0-.86,1.94c-.18,1.13.45,2.31.16,3.42-.33,1.28-1.77,2.12-1.84,3.44-.06,1.11.9,2.09.82,3.2a3,3,0,0,1-.5,1.31,4.42,4.42,0,0,1-4,2.36l-2.34.07Z"/><g class="cls-14"><path d="M130.16,141.49a2.3,2.3,0,0,1,.88-2.09,5.86,5.86,0,0,0,1.55-1.79c.48-1.19-.15-2.74.67-3.74.48-.58,1.34-.77,1.77-1.4a3,3,0,0,0,.38-1.12,11.42,11.42,0,0,1,2.87-5.28,10,10,0,0,1-1.14,5.1,6.33,6.33,0,0,0-.86,1.94c-.18,1.13.45,2.31.16,3.42-.33,1.28-1.77,2.12-1.84,3.44-.06,1.11.9,2.09.82,3.2a3,3,0,0,1-.5,1.31,4.42,4.42,0,0,1-4,2.36l-2.34.07Z"/></g><path class="cls-4" d="M128.05,147a1.83,1.83,0,0,1-.64,0,3.59,3.59,0,0,1-.76-.2,3.3,3.3,0,0,1-.94-.52,1.28,1.28,0,0,1-.38-.52,2.23,2.23,0,0,1-.11-.7,6.44,6.44,0,0,0,0-.75,2.19,2.19,0,0,0-.28-.76,5.77,5.77,0,0,1-.88-1.61,5.49,5.49,0,0,1,.08-2,4.44,4.44,0,0,0,0-2.2c-.25-.74-.76-1.4-1-2.23a11.28,11.28,0,0,1-.18-2.61,3.34,3.34,0,0,0-.3-1.31c-.18-.41-.44-.81-.65-1.24a9.22,9.22,0,0,1-.58-2.87c-.06-.49-.11-1-.16-1.5a8.54,8.54,0,0,0-.25-1.5,13.53,13.53,0,0,0-.56-1.45,4.53,4.53,0,0,1-.26-.76,5.54,5.54,0,0,1-.07-.81,8.83,8.83,0,0,1,.07-1.62c.06-.54.16-1.07.23-1.61v-.21l.09,0A3.73,3.73,0,0,1,121.7,119a6.25,6.25,0,0,1,.77,1.44,17.91,17.91,0,0,1,.71,3.07,8.22,8.22,0,0,0,.95,2.84c.25.42.56.8.83,1.21a3.26,3.26,0,0,1,.57,1.34c.13,1-.42,1.86-.31,2.73a3.06,3.06,0,0,0,.42,1.22c.21.38.46.73.7,1.08a7.73,7.73,0,0,1,.62,1.08,3.28,3.28,0,0,1,.28,1.18c.05.79-.06,1.54,0,2.24a5.05,5.05,0,0,0,.57,1.93c.28.58.59,1.1.85,1.61.13.25.25.5.35.75a3,3,0,0,1,.2.74,4.31,4.31,0,0,1,0,1.34,3.31,3.31,0,0,1-.68,1.7.92.92,0,0,1-.19.2.81.81,0,0,1-.15.13l-.14.1a3.26,3.26,0,0,0,.46-.45,3.33,3.33,0,0,0,.64-1.69,4.53,4.53,0,0,0,0-1.32,4.1,4.1,0,0,0-.2-.72c-.1-.24-.22-.49-.35-.74-.27-.5-.58-1-.87-1.61a5.29,5.29,0,0,1-.59-2c-.05-.72.06-1.47,0-2.24a3.22,3.22,0,0,0-.27-1.14,6,6,0,0,0-.62-1.06c-.23-.35-.48-.7-.7-1.09a3.06,3.06,0,0,1-.44-1.26c-.11-.94.44-1.81.3-2.73a3.1,3.1,0,0,0-.55-1.28c-.27-.41-.58-.79-.84-1.22a8.39,8.39,0,0,1-1-2.88,17,17,0,0,0-.7-3,5.66,5.66,0,0,0-.75-1.39,3.49,3.49,0,0,0-1.2-1l.11-.06,0,.09c-.06.55-.16,1.09-.22,1.62a9.59,9.59,0,0,0-.08,1.6c0,.26,0,.53.07.78a4.89,4.89,0,0,0,.26.73c.2.49.41,1,.56,1.47a7.4,7.4,0,0,1,.25,1.53l.16,1.49a9,9,0,0,0,.57,2.83c.2.42.46.82.65,1.25a3.57,3.57,0,0,1,.3,1.35,11.48,11.48,0,0,0,.17,2.59c.24.8.74,1.46,1,2.22a4.45,4.45,0,0,1,0,2.26,5.3,5.3,0,0,0-.08,2,5.63,5.63,0,0,0,.85,1.59,2.18,2.18,0,0,1,.29.78,7,7,0,0,1,0,.77,2.43,2.43,0,0,0,.1.68,1.15,1.15,0,0,0,.36.5,3.29,3.29,0,0,0,.91.52,4.65,4.65,0,0,0,.75.21,3.89,3.89,0,0,0,.48.05Z"/><path class="cls-4" d="M120.81,119.33s0,0,0,.07l0,.21c.05.18.1.46.19.81s.3.74.47,1.23a15.37,15.37,0,0,1,.55,1.66c.18.63.33,1.32.49,2.07a9,9,0,0,0,.74,2.29c.19.38.4.77.57,1.19a5.06,5.06,0,0,1,.33,1.34c.11.93.28,1.88.49,2.84l1.3,5.42c.4,1.66.77,3.16,1.08,4.42s.55,2.27.72,3l.19.81,0,.21c0,.05,0,.08,0,.08l0-.07-.06-.21-.22-.81-.76-3-1.12-4.41c-.4-1.67-.84-3.5-1.31-5.43a26.92,26.92,0,0,1-.48-2.85,5.7,5.7,0,0,0-.32-1.31c-.16-.41-.37-.79-.56-1.18a8.73,8.73,0,0,1-.74-2.33c-.16-.74-.3-1.44-.47-2.06s-.35-1.18-.52-1.66-.38-.89-.46-1.25-.12-.63-.16-.82l0-.21Z"/><path class="cls-5" d="M127.64,147c-1.53-.92-2-3.68-1.3-5.34s1.77-3.17,1.95-4.94c.15-1.36-.29-2.76,0-4.09.44-1.79,2.2-3.18,2.19-5,0-1-.59-2-.53-3,.06-1.27,1-2.27,1.65-3.39.93-1.7,1-3.73,1.33-5.65s1.07-4,2.78-4.9a18.87,18.87,0,0,1,.52,5c-.06.79-1,2.3-1.12,4-.08,1-.14,2.08-.21,3.12a10,10,0,0,1-.51,3c-.28.72-.73,1.38-.94,2.13-.39,1.4.11,2.93-.21,4.36-.28,1.21-1.12,2.24-1.3,3.47-.25,1.72.86,3.51.28,5.15a24.93,24.93,0,0,0-1.16,2.31c-.15.65,0,1.34-.13,2-.22,1-2.24,1.93-3.32,1.86"/><path class="cls-4" d="M135.31,112.21a.62.62,0,0,1,0,.09l0,.27c0,.23-.08.58-.16,1s-.33,1-.52,1.56-.39,1.31-.57,2.1-.33,1.65-.49,2.58a10.7,10.7,0,0,1-.8,2.93c-.22.49-.46,1-.64,1.49a6.43,6.43,0,0,0-.33,1.66,35.53,35.53,0,0,1-.47,3.56c-.49,2.41-.95,4.71-1.36,6.8s-.84,4-1.17,5.54-.61,2.84-.81,3.73l-.22,1-.06.26,0,.09a.62.62,0,0,1,0-.09l0-.26.2-1c.18-.9.43-2.17.75-3.74s.71-3.46,1.14-5.55.87-4.39,1.35-6.8a35,35,0,0,0,.47-3.55,7.16,7.16,0,0,1,.34-1.68c.19-.54.44-1,.66-1.51a11.08,11.08,0,0,0,.8-2.89c.16-.93.32-1.8.51-2.59s.39-1.48.59-2.09.44-1.11.54-1.55.14-.79.19-1l0-.26A.66.66,0,0,1,135.31,112.21Z"/><path class="cls-5" d="M29.57,138.93a1,1,0,0,0,1.51,0,2.71,2.71,0,0,0,.63-1.32,7,7,0,0,0,.37-3.32,1.86,1.86,0,0,0-.44-.9.94.94,0,0,0-.91-.3,1.43,1.43,0,0,0-.8.85,8.15,8.15,0,0,0-.75,3.41,2.85,2.85,0,0,0,.39,1.57"/><path class="cls-5" d="M31.07,141.76a3.42,3.42,0,0,1,2.12-.28,1.77,1.77,0,0,1,1.05.46.75.75,0,0,1,0,1,1,1,0,0,1-.66.18,2.52,2.52,0,0,0-1.62.24c-.26.2-.42.52-.73.62a.72.72,0,0,1-.79-.35,1.2,1.2,0,0,1-.1-.91A1.38,1.38,0,0,1,31.07,141.76Z"/><path class="cls-5" d="M28.5,139.74a2.06,2.06,0,0,0,.3-1.88,3.65,3.65,0,0,0-1.13-1.61,6,6,0,0,0-2-1.16,2.15,2.15,0,0,0-.9-.14,1,1,0,0,0-.75.46,1.4,1.4,0,0,0,.22,1.28,15.67,15.67,0,0,0,1.33,2A3.58,3.58,0,0,0,27,139.9a1.3,1.3,0,0,0,1.53-.23"/><path class="cls-4" d="M29.63,147.41l0-.26.06-.7a9.7,9.7,0,0,1,.15-1,8.14,8.14,0,0,1,.36-1.21,4.42,4.42,0,0,1,.6-1.1,2.29,2.29,0,0,1,.78-.65,1.84,1.84,0,0,1,.65-.21l.25,0h-.25a2.19,2.19,0,0,0-.69.19,2.29,2.29,0,0,0-.81.66,4.47,4.47,0,0,0-.63,1.12,8.36,8.36,0,0,0-.36,1.23,9.25,9.25,0,0,0-.12,1c0,.29,0,.53,0,.7A1,1,0,0,0,29.63,147.41Z"/><path class="cls-4" d="M29.67,146.87v-.46c0-.29,0-.72,0-1.24,0-1,.1-2.51.26-4.1s.38-3,.58-4.07l.14-.7c0-.2.08-.38.12-.52l.07-.33c0-.07,0-.12,0-.12l0,.12-.09.32c0,.14-.09.32-.14.52s-.1.44-.15.69a36.69,36.69,0,0,0-.62,4.08c-.16,1.6-.22,3.05-.22,4.11,0,.52,0,1,0,1.24l0,.34A1.13,1.13,0,0,0,29.67,146.87Z"/><path class="cls-4" d="M29.65,144.06a2.31,2.31,0,0,0,0-.35c0-.23-.05-.56-.11-1s-.18-.88-.33-1.39a13.36,13.36,0,0,0-.6-1.65,8.87,8.87,0,0,0-1.74-2.66c-.14-.15-.29-.26-.41-.37l-.17-.14-.16-.11-.3-.19a11.62,11.62,0,0,1,1,.86,9.26,9.26,0,0,1,1.7,2.65,13.26,13.26,0,0,1,.61,1.63c.16.52.26,1,.34,1.38s.12.73.15,1A2.49,2.49,0,0,0,29.65,144.06Z"/><path class="cls-5" d="M28.75,106a3.73,3.73,0,0,0,.12.88,4.24,4.24,0,0,0-1.25-1,9.25,9.25,0,0,0-2.48-.73h-.08a5.73,5.73,0,0,0,1.41,2.66,4.31,4.31,0,0,0,.46.39l-.55.13a20.27,20.27,0,0,0-3.82,1.83,10.69,10.69,0,0,0,4.57.81l.28,0a4.65,4.65,0,0,0-.41.64,8.88,8.88,0,0,0-.72,2.48l0,.08a5.81,5.81,0,0,0,2.67-1.41,4.34,4.34,0,0,0,.75-1.08,4.69,4.69,0,0,0,.14.65,5.51,5.51,0,0,0,1.41,2.13v-.07a8.64,8.64,0,0,0,.27-2.19,4.55,4.55,0,0,0-.6-2,11.69,11.69,0,0,0-.79-1.15h0a11.33,11.33,0,0,0,.36-1.35,4.51,4.51,0,0,0-.1-2.1,8.76,8.76,0,0,0-1-2l0,0A5.3,5.3,0,0,0,28.75,106Z"/><path class="cls-4" d="M32.91,108.24s-1.54.44-3.46.89-3.49.77-3.5.73,1.54-.44,3.46-.89S32.9,108.19,32.91,108.24Z"/><path class="cls-4" d="M29.23,109.1a1.8,1.8,0,0,1-.27.71c-.18.37-.36.66-.4.64a1.69,1.69,0,0,1,.26-.71C29,109.37,29.19,109.08,29.23,109.1Z"/><path class="cls-4" d="M28.5,109.34s-.22-.14-.44-.33-.43-.35-.4-.39.26.06.5.27S28.54,109.31,28.5,109.34Z"/><path class="cls-5" d="M116.91,74.74a3.29,3.29,0,0,0,.15.6,2.75,2.75,0,0,0-.94-.58,6.43,6.43,0,0,0-1.77-.3h-.06a4,4,0,0,0,1.2,1.72,2.54,2.54,0,0,0,.34.23l-.37.14A13.91,13.91,0,0,0,113,78.12a7.49,7.49,0,0,0,3.22.19l.19,0a2.65,2.65,0,0,0-.23.48,6.43,6.43,0,0,0-.3,1.77v0a3.94,3.94,0,0,0,1.72-1.19,2.69,2.69,0,0,0,.43-.8,2.23,2.23,0,0,0,.16.43,3.86,3.86,0,0,0,1.14,1.36v-.05a6.11,6.11,0,0,0,0-1.54,3.08,3.08,0,0,0-.58-1.34,7.27,7.27,0,0,0-.64-.73h0a7.33,7.33,0,0,0,.14-1,3.17,3.17,0,0,0-.24-1.44,5.72,5.72,0,0,0-.84-1.29l0,0A3.61,3.61,0,0,0,116.91,74.74Z"/><path class="cls-4" d="M120,76a21,21,0,0,1-2.31.92,17.56,17.56,0,0,1-2.37.76,21,21,0,0,1,2.31-.92A20.1,20.1,0,0,1,120,76Z"/><path class="cls-4" d="M117.5,76.88s0,.24-.1.51-.21.48-.26.47,0-.25.1-.52S117.46,76.86,117.5,76.88Z"/><path class="cls-4" d="M117,77.1s-.18-.06-.35-.17-.31-.22-.3-.26.2,0,.39.12S117.05,77.07,117,77.1Z"/><path class="cls-5" d="M57,83.32a3,3,0,0,0,.43.24,2.38,2.38,0,0,0-.86.22,4.89,4.89,0,0,0-1.15.85l0,0a3.16,3.16,0,0,0,1.65.27,1.65,1.65,0,0,0,.32-.07l-.12.29a10.57,10.57,0,0,0-.47,2.3,6,6,0,0,0,1.88-1.75l.09-.13a3.25,3.25,0,0,0,.15.4,5.1,5.1,0,0,0,.85,1.15l0,0a3.16,3.16,0,0,0,.27-1.65,2.14,2.14,0,0,0-.22-.69,3.31,3.31,0,0,0,.33.15,3,3,0,0,0,1.41.09l0,0a5,5,0,0,0-.88-.85,2.53,2.53,0,0,0-1.1-.41,6.85,6.85,0,0,0-.77,0h0a6.83,6.83,0,0,0-.47-.61,2.47,2.47,0,0,0-1-.66,4.81,4.81,0,0,0-1.2-.23h0A3,3,0,0,0,57,83.32Z"/><path class="cls-4" d="M59.44,82.24a10.49,10.49,0,0,1-.73,1.84,12.91,12.91,0,0,1-.88,1.78A10.49,10.49,0,0,1,58.56,84,12.91,12.91,0,0,1,59.44,82.24Z"/><path class="cls-4" d="M58.59,84.16s.16.13.26.34.15.39.11.41-.15-.13-.26-.34S58.55,84.18,58.59,84.16Z"/><path class="cls-4" d="M58.45,84.56s-.13.09-.28.12-.3,0-.32,0,.11-.13.28-.17S58.45,84.52,58.45,84.56Z"/><path class="cls-5" d="M40.86,72.07c-.08.24.09.39.32.48-.11,0-.21,0-.32,0a1.22,1.22,0,0,0-.63.26c-.29.29,0,.62.33.77a1.07,1.07,0,0,0-.68.76.5.5,0,0,0,.27.52.84.84,0,0,0,.66,0,1.12,1.12,0,0,0,.39-.23c0,.35.16.77.56.63a1.08,1.08,0,0,0,.48-.42l.19-.29a1.09,1.09,0,0,0,0,.18.34.34,0,0,0,.16.27.35.35,0,0,0,.41-.08,2.22,2.22,0,0,0,.65-1,2.71,2.71,0,0,0,.16-1.29c-.08-.46-.6-.66-1-.76a3.63,3.63,0,0,0-1.14-.13C41.44,71.73,41,71.8,40.86,72.07Z"/><path class="cls-4" d="M44.57,71.67A15.13,15.13,0,0,1,42.73,73a15.9,15.9,0,0,1-1.93,1.15,15.8,15.8,0,0,1,1.84-1.28A16,16,0,0,1,44.57,71.67Z"/><path class="cls-4" d="M43.13,72.57s0,.31-.11.67-.22.65-.26.63a1.6,1.6,0,0,1,.11-.67A1.54,1.54,0,0,1,43.13,72.57Z"/><path class="cls-4" d="M41,73.07a1.13,1.13,0,0,1,.56,0c.3,0,.53.12.53.17a1.13,1.13,0,0,1-.56,0C41.2,73.19,41,73.12,41,73.07Z"/><path class="cls-4" d="M41.67,73.53s.06.14,0,.3-.08.28-.12.27-.06-.14,0-.29S41.63,73.53,41.67,73.53Z"/><path class="cls-4" d="M42.14,72.52s.18,0,.38,0,.34.14.32.19-.17,0-.36,0S42.14,72.57,42.14,72.52Z"/><path class="cls-5" d="M120.68,47.2c-.13.39.14.62.5.76a4,4,0,0,0-.5.06,1.85,1.85,0,0,0-1,.4c-.46.47,0,1,.51,1.22a1.71,1.71,0,0,0-1.07,1.2.81.81,0,0,0,.43.82,1.34,1.34,0,0,0,1,0,1.89,1.89,0,0,0,.62-.37c0,.55.25,1.21.87,1a1.72,1.72,0,0,0,.77-.67c.11-.15.2-.3.29-.45a2.72,2.72,0,0,0,0,.28.59.59,0,0,0,.26.42.57.57,0,0,0,.65-.11,3.47,3.47,0,0,0,1-1.65,4.2,4.2,0,0,0,.26-2c-.13-.72-.95-1-1.57-1.2a5.82,5.82,0,0,0-1.81-.2C121.59,46.68,120.83,46.78,120.68,47.2Z"/><path class="cls-4" d="M126.52,46.58a35.33,35.33,0,0,1-2.92,2,34.52,34.52,0,0,1-3,1.86s1.29-.93,2.93-2S126.5,46.55,126.52,46.58Z"/><path class="cls-4" d="M124.26,48a3.53,3.53,0,0,1-.22,1,3.11,3.11,0,0,1-.37,1,4,4,0,0,1,.22-1A3.57,3.57,0,0,1,124.26,48Z"/><path class="cls-4" d="M120.86,48.79a2.54,2.54,0,0,1,.86.07,2.08,2.08,0,0,1,.84.22,2.54,2.54,0,0,1-.86-.07A2.08,2.08,0,0,1,120.86,48.79Z"/><path class="cls-4" d="M122,49.52s0,.21,0,.46-.1.44-.15.44,0-.22,0-.47S121.91,49.51,122,49.52Z"/><path class="cls-4" d="M122.7,47.93s.27,0,.58,0,.54.21.52.25-.26,0-.56-.09A1.52,1.52,0,0,1,122.7,47.93Z"/><path class="cls-5" d="M32.72,90.72a2.75,2.75,0,0,0,4-1.22S33.93,88.2,32.72,90.72Z"/><path class="cls-4" d="M37.52,89.18a9.69,9.69,0,0,1-1.75.64A10.93,10.93,0,0,1,34,90.3a10.17,10.17,0,0,1,1.75-.63A11.68,11.68,0,0,1,37.52,89.18Z"/><path class="cls-4" d="M34.27,89.71s.18,0,.38.06.33.16.32.2-.19,0-.38,0S34.25,89.76,34.27,89.71Z"/><path class="cls-4" d="M35.9,89.68s0,.19-.16.38-.26.3-.29.28,0-.19.16-.38S35.86,89.66,35.9,89.68Z"/><path class="cls-4" d="M121.33,22.7s1.32-1.72,3-3.77,3.13-3.71,3.17-3.68S126.21,17,124.49,19,121.36,22.73,121.33,22.7Z"/><path class="cls-4" d="M7.19,99.11s1.33-1.72,3-3.77,3.13-3.71,3.17-3.68-1.33,1.72-3,3.78S7.22,99.14,7.19,99.11Z"/><path class="cls-4" d="M133.18,65.34s1.33-1.72,3-3.78,3.13-3.7,3.16-3.67-1.33,1.72-3,3.77S133.22,65.37,133.18,65.34Z"/><path class="cls-4" d="M110.88,134.08s1.32-1.72,3-3.77,3.13-3.71,3.17-3.68-1.33,1.72-3,3.78S110.91,134.11,110.88,134.08Z"/><path class="cls-4" d="M103.2,112.48s1.33-1.72,3-3.78,3.14-3.7,3.17-3.68-1.33,1.72-3,3.78S103.23,112.51,103.2,112.48Z"/><path class="cls-4" d="M128.39,99.08s1.33-1.72,3.05-3.77,3.13-3.71,3.16-3.68-1.32,1.72-3,3.78S128.43,99.11,128.39,99.08Z"/><path class="cls-4" d="M135.18,41.18s1.33-1.72,3-3.78,3.13-3.7,3.16-3.68-1.33,1.72-3,3.78S135.22,41.21,135.18,41.18Z"/><path class="cls-4" d="M39.12,105.3s1.32-1.72,3-3.77,3.13-3.71,3.17-3.68-1.33,1.72-3,3.78S39.15,105.33,39.12,105.3Z"/><path class="cls-4" d="M97.84,70.11s1.32-1.72,3-3.77,3.13-3.71,3.17-3.68-1.33,1.72-3,3.78S97.87,70.14,97.84,70.11Z"/><path class="cls-4" d="M28.81,70.64s1.32-1.72,3-3.78S35,63.16,35,63.19,33.69,64.91,32,67,28.84,70.67,28.81,70.64Z"/><path class="cls-4" d="M46.82,132.51s1.33-1.72,3-3.77S53,125,53,125.06s-1.33,1.72-3,3.78S46.85,132.54,46.82,132.51Z"/><path class="cls-4" d="M91.74,30.48s1.32-1.72,3-3.77S97.91,23,98,23s-1.33,1.72-3,3.78S91.77,30.51,91.74,30.48Z"/><path class="cls-4" d="M33,42.44s1.33-1.72,3-3.78S39.2,35,39.24,35s-1.33,1.72-3,3.78S33.06,42.47,33,42.44Z"/><path class="cls-4" d="M60.58,22.7s1.33-1.72,3-3.77,3.14-3.71,3.17-3.68S65.46,17,63.75,19,60.61,22.73,60.58,22.7Z"/><path class="cls-4" d="M13.7,59.57s1.33-1.72,3-3.78,3.13-3.7,3.17-3.67-1.33,1.72-3.05,3.78S13.73,59.6,13.7,59.57Z"/><path class="cls-4" d="M14.86,30.48s1.33-1.72,3-3.77S21,23,21.07,23,19.74,24.75,18,26.81,14.89,30.51,14.86,30.48Z"/></svg>