<svg id="त्रिभुज" xmlns="http://www.w3.org/2000/svg" viewBox="0 0 150 160"><defs><style>.cls-1{fill:#fff;}.cls-2{fill:#ab7aff;}.cls-3{fill:#a571ff;}.cls-4{fill:#a067ff;}.cls-5{fill:#9a5eff;}</style></defs><polygon class="cls-1" points="17.66 121.34 75 37.36 132.34 121.34 17.66 121.34"/><polygon class="cls-1" points="21.76 118.34 75 40.36 128.24 118.34 21.76 118.34"/><polygon class="cls-1" points="25.85 115.34 75 43.36 124.15 115.34 25.85 115.34"/><polygon class="cls-1" points="29.95 112.34 75 46.36 120.05 112.34 29.95 112.34"/><polygon class="cls-2" points="22.82 118.81 75 41.19 127.18 118.81 22.82 118.81"/><polygon class="cls-3" points="26.55 116.03 75 43.97 123.45 116.03 26.55 116.03"/><polygon class="cls-4" points="30.27 113.26 75 46.74 119.73 113.26 30.27 113.26"/><polygon class="cls-5" points="34 110.49 75 49.51 116 110.49 34 110.49"/></svg>