<svg id="Layer_12" data-name="Layer 12" xmlns="http://www.w3.org/2000/svg" viewBox="0 0 150 160"><defs><style>.cls-1,.cls-8{fill:#fff;}.cls-1{stroke:#fff;stroke-miterlimit:10;stroke-width:5px;}.cls-2{fill:#a6afb4;}.cls-3{fill:#ddcabc;}.cls-4{fill:#2f3044;}.cls-5{fill:#3e6665;}.cls-6{fill:#92a1ad;}.cls-7{fill:#5f7889;}.cls-9{fill:#f4e7b0;}.cls-10{fill:#46baeb;}.cls-11{fill:#ff998b;}.cls-12{fill:#f27e72;}.cls-13{fill:#c15833;}.cls-14{fill:#fffdf5;}.cls-15{fill:#45667c;}.cls-16{fill:#de7a51;}</style></defs><path class="cls-1" d="M144.34,119.57c0,5.68-29.81,10.29-66.58,10.29s-66.45-4.6-66.57-10.29C11,109.18,41,109.27,77.77,109.27S144.34,113.89,144.34,119.57Z"/><path class="cls-1" d="M122.06,63.1a17.07,17.07,0,0,0-4.82-2.38C111,58.79,104.06,60.6,97.7,59c-8.13-2.06-13.87-9.24-21.31-13.13-8.41-4.42-18.51-4.35-27.86-2.6-11.31,2.11-22.74,7-29.31,16.47C14.94,66,13.23,73.43,12.46,81v34.74H129.87V78.52A18.74,18.74,0,0,0,122.06,63.1Z"/><path class="cls-1" d="M33.23,92.48H10.44V81a4.38,4.38,0,0,1,4.39-4.39h18.4Z"/><path class="cls-1" d="M33.23,86.62v-10H14.83A4.39,4.39,0,0,0,10.44,81v5.62Z"/><rect class="cls-1" x="5.66" y="91.09" width="22.79" height="2.31"/><rect class="cls-1" x="29.69" y="40.12" width="9.73" height="80.2"/><path class="cls-1" d="M30,120.33H20.29V42.71a2.59,2.59,0,0,1,2.58-2.59H30Z"/><rect class="cls-1" x="39.79" y="53.93" width="4.62" height="32.34"/><rect class="cls-1" x="30.15" y="67.85" width="40.1" height="0.77"/><path class="cls-1" d="M55.75,43.69h-12a8.14,8.14,0,1,0,0,16.27h12a8.14,8.14,0,0,0,0-16.27Z"/><polygon class="cls-1" points="47.91 56.07 38.84 67.3 33.43 67.3 42.5 56.07 47.91 56.07"/><path class="cls-1" d="M35.64,52.55A8.13,8.13,0,0,0,43.74,60h12a8.13,8.13,0,0,0,8.1-7.41Z"/><circle class="cls-1" cx="43.73" cy="51.83" r="8.13"/><path class="cls-1" d="M46.54,52a2.9,2.9,0,1,1-2.89-2.89A2.89,2.89,0,0,1,46.54,52Z"/><path class="cls-1" d="M55.75,80.81h-12a8.13,8.13,0,1,0-.56,16.25H55.75a8.13,8.13,0,0,0,0-16.25Z"/><circle class="cls-1" cx="43.73" cy="88.93" r="8.13"/><path class="cls-1" d="M46.54,89.09a2.9,2.9,0,1,1-2.89-2.89A2.89,2.89,0,0,1,46.54,89.09Z"/><path class="cls-1" d="M43.62,64.94H34.05a3.33,3.33,0,0,0,0,6.65h9.57a3.33,3.33,0,0,0,0-6.65Z"/><path class="cls-1" d="M37.37,68.27a3.32,3.32,0,1,1-3.32-3.33,3.32,3.32,0,0,1,3.32,3.33Z"/><path class="cls-1" d="M35.2,68.33a1.2,1.2,0,1,1-1.2-1.2h0A1.22,1.22,0,0,1,35.2,68.33Z"/><path class="cls-1" d="M51.62,69.72H42.06a3.32,3.32,0,0,0,0,6.64h9.56a3.32,3.32,0,0,0,0-6.64Z"/><polygon class="cls-1" points="45.77 72.03 54.84 83.26 60.26 83.26 51.19 72.03 45.77 72.03"/><path class="cls-1" d="M45.38,73a3.32,3.32,0,1,1-3.32-3.32A3.32,3.32,0,0,1,45.38,73Z"/><path class="cls-1" d="M43.16,73.11a1.2,1.2,0,1,1-1.2-1.2h0a1.19,1.19,0,0,1,1.19,1.19Z"/><path class="cls-1" d="M66.56,56.37a10.49,10.49,0,0,0-1.65,1,10.42,10.42,0,1,0,0,17,10.49,10.49,0,0,0,1.65,1Z"/><polygon class="cls-1" points="55.77 46.19 64.84 57.42 70.25 57.42 61.18 46.19 55.77 46.19"/><path class="cls-1" d="M66.71,58.93a10.42,10.42,0,1,0-.95,14.71,9.47,9.47,0,0,0,.95-1Z"/><circle class="cls-1" cx="58.91" cy="65.81" r="2.25"/><rect class="cls-1" x="30.75" y="77.47" width="36.82" height="1.04"/><path class="cls-1" d="M63.15,46.92H56.32A1.93,1.93,0,0,1,54.39,45V40.44H65.08V45A1.93,1.93,0,0,1,63.15,46.92Z"/><rect class="cls-1" x="55.76" y="44.43" width="1.77" height="1.28"/><rect class="cls-1" x="58.65" y="44.43" width="1.77" height="1.28"/><rect class="cls-1" x="62.11" y="88.59" width="1.07" height="15"/><rect class="cls-1" x="30.39" y="88.12" width="36.26" height="1.69"/><rect class="cls-1" x="30.15" y="51.98" width="40.1" height="0.77"/><rect class="cls-1" x="18.14" y="116.42" width="91.46" height="3.8"/><rect class="cls-1" x="36.33" y="107.04" width="51.03" height="2.69"/><rect class="cls-1" x="32.49" y="102.85" width="51.03" height="10.25"/><rect class="cls-1" x="36.33" y="102.85" width="51.03" height="2.69"/><rect class="cls-1" x="32.49" y="107.04" width="51.03" height="2.69"/><rect class="cls-1" x="95.15" y="97.25" width="21.4" height="2.06"/><path class="cls-1" d="M84.81,43.75H36.33V33a2.83,2.83,0,0,1,2.83-2.82H82A2.81,2.81,0,0,1,84.81,33h0Z"/><path class="cls-1" d="M72.81,43.75H24.33V33a2.82,2.82,0,0,1,2.82-2.82H70A2.82,2.82,0,0,1,72.81,33Z"/><rect class="cls-1" x="26.44" y="32.68" width="0.71" height="4.31"/><rect class="cls-1" x="28.07" y="32.68" width="0.71" height="4.31"/><rect class="cls-1" x="29.69" y="32.68" width="0.71" height="4.31"/><rect class="cls-1" x="31.3" y="32.68" width="0.71" height="4.31"/><rect class="cls-1" x="32.92" y="32.68" width="0.71" height="4.31"/><rect class="cls-1" x="34.53" y="32.68" width="0.71" height="4.31"/><path class="cls-1" d="M91,40.12H78.55v79.54h28V76.29a2.66,2.66,0,0,0-.23-1.11Z"/><rect class="cls-1" x="95.79" y="78.84" width="9.24" height="14.07"/><rect class="cls-1" x="95.39" y="82.68" width="14.27" height="2.06"/><path class="cls-1" d="M79,40.12H66.55v79.54h28V76.29a2.83,2.83,0,0,0-.23-1.11Z"/><rect class="cls-1" x="18.14" y="119.11" width="91.46" height="1.64"/><path class="cls-1" d="M77.55,88.38a9.23,9.23,0,1,1,9.21-9.23h0A9.23,9.23,0,0,1,77.55,88.38Zm0-17.79a8.58,8.58,0,1,0,8.58,8.58h0A8.58,8.58,0,0,0,77.55,70.59Z"/><path class="cls-1" d="M81.35,66.73A2.74,2.74,0,1,1,84.09,64h0A2.74,2.74,0,0,1,81.35,66.73Zm0-4.83A2.1,2.1,0,1,0,83.44,64h0a2.09,2.09,0,0,0-2.08-2.09Z"/><path class="cls-1" d="M70.63,45.92a1.9,1.9,0,1,1,.06,0Zm0-3.1a1.24,1.24,0,1,0,1.23,1.23h0A1.23,1.23,0,0,0,70.63,42.82Z"/><path class="cls-1" d="M77.38,45.39A1.67,1.67,0,1,1,79,43.71h0A1.66,1.66,0,0,1,77.38,45.39Zm0-2.68a1,1,0,0,0-.92,1.12,1,1,0,0,0,.92.92,1,1,0,1,0,.2-2Z"/><path class="cls-1" d="M71.55,106.06a1.51,1.51,0,1,1,1.52-1.49,1.51,1.51,0,0,1-1.52,1.49Zm0-2.36a.86.86,0,1,0,.85.86h0a.85.85,0,0,0-.85-.85Z"/><path class="cls-1" d="M71.55,109.92a1.51,1.51,0,1,1,1.52-1.49,1.51,1.51,0,0,1-1.52,1.49Zm0-2.36a.86.86,0,1,0,.85.86h0a.85.85,0,0,0-.85-.85Z"/><polygon class="cls-1" points="106.7 63.18 98 43.23 89.48 43.23 98.54 64.11 105.99 64.06 106.7 63.18"/><polygon class="cls-1" points="105.97 62.34 98.01 44.06 90.2 44.06 98.16 62.34 105.97 62.34"/><path class="cls-1" d="M98.16,45.4a.92.92,0,0,0-.52,0,.3.3,0,0,0-.12.45.37.37,0,0,0-.34.41h0a1.29,1.29,0,0,0,.25.56c.58,1,.83,2.1,1.34,3.13,1,1.93,2.83,3.3,4.16,5a59.62,59.62,0,0,0-3.67-9.13A1.13,1.13,0,0,0,99,45.5a.4.4,0,0,0-.4-.11Z"/><path class="cls-1" d="M129.58,61.56a32,32,0,0,0-4.68,2.17l.43.86A4.88,4.88,0,0,1,126,67a4.85,4.85,0,0,1-.47,1.53c-1,2.23-2,4.42-3.09,6.56l1.24,1.25a31.78,31.78,0,0,0,5.07-7.1,10,10,0,0,0,1.41-4.82,10.45,10.45,0,0,0-.52-2.59Z"/><path class="cls-1" d="M127.66,61.81a11.28,11.28,0,0,1,.42,2.89,10.48,10.48,0,0,1-.3,1.93c-.29,1.39-.6,2.77-.91,4.15l-1-8.89,1.31-.42Z"/><path class="cls-1" d="M126.32,55A2.79,2.79,0,0,0,125,53.87a1.93,1.93,0,0,0-2.06,1.33,5.18,5.18,0,0,0-.17,2.89,20.66,20.66,0,0,0,2.17,5.79,34.54,34.54,0,0,1,4.82-2.24A22.22,22.22,0,0,0,126.32,55Z"/><path class="cls-1" d="M126.29,55.88c.16,3.43.4,10.62.57,14C127.15,66.37,128.27,55.76,126.29,55.88Z"/><path class="cls-1" d="M130.42,115.63l0-.1a10.73,10.73,0,0,1-.92-3.08c-.1-.53-.15-1.19-.24-1.77h-2.47c.2.71.45,1.42.6,2.13a4.19,4.19,0,0,1,0,1.93C128.41,115.24,129.41,116,130.42,115.63Z"/><path class="cls-1" d="M127.11,114.68a2.63,2.63,0,0,1-.41.73,2.17,2.17,0,0,1-1.29.79,4.47,4.47,0,0,0-1.62.56c-.48.33-.87.68-.71,1.34a9.43,9.43,0,0,0,3.39.1,2.92,2.92,0,0,0,1.13-.22,2.51,2.51,0,0,1,.57-.28,2.45,2.45,0,0,1,1.06.24,3.44,3.44,0,0,0,1.8-.18,5.22,5.22,0,0,0-.59-2.32C129.46,115.84,128.24,115.13,127.11,114.68Z"/><path class="cls-1" d="M126.64,74.44h-9.32A140.35,140.35,0,0,0,119.12,92,88.87,88.87,0,0,0,123,106.82c.88,2.34,1.78,4.68,2.67,7h4.5C123.3,83.62,127.39,82.33,126.64,74.44Z"/><path class="cls-1" d="M119.66,118V118a8.6,8.6,0,0,1-.54-3.09v-1.77h-2.77c.11.72.29,1.42.34,2.14a3.85,3.85,0,0,1-.35,1.92C117.46,117.64,118.47,118.45,119.66,118Z"/><path class="cls-1" d="M116.13,117.09a2.88,2.88,0,0,1-.57.73,3.09,3.09,0,0,1-1.58.79,6.2,6.2,0,0,0-1.93.56c-.57.33-1.07.69-1,1.35a11.92,11.92,0,0,0,3.77.09,4.07,4.07,0,0,0,1.3-.21,2.94,2.94,0,0,1,.69-.28,2.73,2.73,0,0,1,1.16.23,4.28,4.28,0,0,0,2-.17,4.23,4.23,0,0,0-.31-2.33C118.55,118.25,117.29,117.55,116.13,117.09Z"/><path class="cls-1" d="M113.67,74.44c-1.5,13.6-.37,28.74,1.08,41.81h4.71c-.29-8.28-.48-15.57,1-23.67,1.27-7.16,2.13-10,3.26-14.55.32-1.29.65-2.43.84-3.59Z"/><path class="cls-1" d="M120.2,94.94H120a38.36,38.36,0,0,1,2.3-10.41c.16-.44.35-.89.52-1.33a23.19,23.19,0,0,0,1.45-4.6h.16A22.91,22.91,0,0,1,123,83.24c-.18.44-.35.88-.52,1.33A38.36,38.36,0,0,0,120.2,94.94Z"/><path class="cls-1" d="M124.26,44.77c-.75-1-2.09-1.12-3.56-.9l-1.23.32a9,9,0,0,0-.62,1.51c0,.17.15.72.06.89a13.86,13.86,0,0,0-1.08,4.22,1,1,0,0,0,0,.42c.07.3.4.45.69.54a5.09,5.09,0,0,0,6.31-3.45.75.75,0,0,1,0-.16A3.91,3.91,0,0,0,124.26,44.77Z"/><path class="cls-1" d="M118,51.5a1.3,1.3,0,0,0,.52.27,5.05,5.05,0,0,0,5.6-1.93A8.75,8.75,0,0,0,118,51.5Z"/><path class="cls-1" d="M119.75,51.21a16.18,16.18,0,0,1-1.52,3.71l6,.71a23.28,23.28,0,0,1-.34-5.53c-1-2.35-1.86-1.17-3.31,0A2.24,2.24,0,0,0,119.75,51.21Z"/><path class="cls-1" d="M120,46.05a2.7,2.7,0,0,1,.47,1.63,4.1,4.1,0,0,0,.27,1.7,3.5,3.5,0,0,0,.84,1l1.63,1.53a8.33,8.33,0,0,0,1-3.55A4.31,4.31,0,0,0,124,46.5a4.15,4.15,0,0,0-1.37-1.68,4,4,0,0,0-2-.83,1.62,1.62,0,0,0-1,.21.82.82,0,0,0-.42.82C119.31,45.45,119.76,45.7,120,46.05Z"/><path class="cls-1" d="M120.66,48a1.9,1.9,0,0,1,.24-.61.57.57,0,0,1,.57-.26.67.67,0,0,1,.46.56,1.68,1.68,0,0,1-.76,1.8.68.68,0,0,1-.44.12.32.32,0,0,1-.27-.33Z"/><path class="cls-1" d="M121.69,44.52c.2-.05.37-.22.57-.19s.28.18.45.21a1.09,1.09,0,0,0,.36,0,.71.71,0,0,1,.48.23,1.77,1.77,0,0,1,.3.45.3.3,0,0,1,.43,0,.88.88,0,0,1,.26.43.81.81,0,0,0,.26.42,3.34,3.34,0,0,0-.32-1,1.19,1.19,0,0,0-.82-.64h-.43a1.07,1.07,0,0,1-.5-.14c-.58-.41-1.13-.45-2.84-.54a1.82,1.82,0,0,0,.9,1V44.3A1.11,1.11,0,0,0,121.69,44.52Z"/><path class="cls-1" d="M119,53.69a19.14,19.14,0,0,1,5.9.09,3.68,3.68,0,0,1-.26-1.64,11.23,11.23,0,0,0-3,.14A4.86,4.86,0,0,0,119,53.69Z"/><path class="cls-1" d="M127.25,75.69A136.17,136.17,0,0,1,127,56.85a3.55,3.55,0,0,0-2.18-3.45,11,11,0,0,0-6.58.18h0A6.59,6.59,0,0,0,114.13,59c-.18,2.43-.76,12.24-1.18,17.42a.68.68,0,0,0,.62.76h.12l12.85-.72A.79.79,0,0,0,127.25,75.69Z"/><path class="cls-1" d="M118.69,53.51l-.42.1h0a6.62,6.62,0,0,0-4.14,5.46c-.18,2.44-.77,12.27-1.18,17.45a.67.67,0,0,0,.61.73.2.2,0,0,0,.11,0L118.6,77C118.27,59.22,124.35,57.25,118.69,53.51Z"/><path class="cls-1" d="M117.72,77.21a40.51,40.51,0,0,1,.41-8.38l1-8h.16l-1,8a41.55,41.55,0,0,0-.42,8.34Z"/><path class="cls-1" d="M121.11,58.27a4.2,4.2,0,0,1-1.64,2.62,3.86,3.86,0,0,1-2.59.27,14.56,14.56,0,0,0-2.63-.42c.06-.29.12-.6.17-.9a11.37,11.37,0,0,0,3.86,0,4.51,4.51,0,0,0,3-2.18Z"/><path class="cls-1" d="M112.9,53.54a37.55,37.55,0,0,1-11-3.66.7.7,0,0,1-.49-.71,11.74,11.74,0,0,1,0-2.65.25.25,0,0,0,0-.17c-.1-.18-.36,0-.45.16a3.94,3.94,0,0,0-.38,1,12.2,12.2,0,0,0-1.5-2.08.51.51,0,0,0-.28-.19c-.1,0-.24.08-.2.2a.58.58,0,0,0-.39-.19c-.14,0-.25.22-.13.31-.17-.1-.5-.12-.49.08a.33.33,0,0,0,.07.16,9.36,9.36,0,0,0,.83,1,5,5,0,0,0-1-.75.37.37,0,0,0-.08.46,1.8,1.8,0,0,0,.36.37c.87.83.75,2.27,1.39,3.28a6,6,0,0,0,1.35,1.31,27.27,27.27,0,0,1,2.23,2.33c2.56,2.61,6,4,9.2,5.14A9.85,9.85,0,0,0,112.9,53.54Z"/><path class="cls-1" d="M100.51,51.48a27.27,27.27,0,0,1,2.23,2.33c2.56,2.61,6,4,9.2,5.14a12.07,12.07,0,0,0,.71-1.93,30.48,30.48,0,0,1-13.26-6.55A8.24,8.24,0,0,0,100.51,51.48Z"/><path class="cls-1" d="M121.53,54.65c-.63-1-1.93-1-3.11-1a39.28,39.28,0,0,1-6-.53,13,13,0,0,1-1.29,6.23,34.58,34.58,0,0,0,5.22,1.28,4.63,4.63,0,0,0,2.94-.16,5,5,0,0,0,2-2.69C121.7,56.85,122.14,55.57,121.53,54.65Z"/><path class="cls-1" d="M111.74,57.81a17,17,0,0,1-.64,1.59,34.58,34.58,0,0,0,5.22,1.28,4.63,4.63,0,0,0,2.94-.16A4.88,4.88,0,0,0,121.19,58,12.61,12.61,0,0,1,111.74,57.81Z"/><path class="cls-1" d="M111.5,59.47l-.13-.09a9.43,9.43,0,0,0,1.48-6.14H113A9.65,9.65,0,0,1,111.5,59.47Z"/><path class="cls-2" d="M144.34,119.57c0,5.68-29.81,10.29-66.58,10.29s-66.45-4.6-66.57-10.29C11,109.18,41,109.27,77.77,109.27S144.34,113.89,144.34,119.57Z"/><path class="cls-3" d="M122.06,63.1a17.07,17.07,0,0,0-4.82-2.38C111,58.79,104.06,60.6,97.7,59c-8.13-2.06-13.87-9.24-21.31-13.13-8.41-4.42-18.51-4.35-27.86-2.6-11.31,2.11-22.74,7-29.31,16.47C14.94,66,13.23,73.43,12.46,81v34.74H129.87V78.52A18.74,18.74,0,0,0,122.06,63.1Z"/><path class="cls-4" d="M33.23,92.48H10.44V81a4.38,4.38,0,0,1,4.39-4.39h18.4Z"/><path class="cls-5" d="M33.23,86.62v-10H14.83A4.39,4.39,0,0,0,10.44,81v5.62Z"/><rect class="cls-4" x="5.66" y="91.09" width="22.79" height="2.31"/><rect class="cls-4" x="29.69" y="40.12" width="9.73" height="80.2"/><path class="cls-5" d="M30,120.33H20.29V42.71a2.59,2.59,0,0,1,2.58-2.59H30Z"/><rect class="cls-4" x="39.79" y="53.93" width="4.62" height="32.34"/><rect class="cls-4" x="30.15" y="67.85" width="40.1" height="0.77"/><path class="cls-6" d="M55.75,43.69h-12a8.14,8.14,0,1,0,0,16.27h12a8.14,8.14,0,0,0,0-16.27Z"/><polygon class="cls-7" points="47.91 56.07 38.84 67.3 33.43 67.3 42.5 56.07 47.91 56.07"/><path class="cls-7" d="M35.64,52.55A8.13,8.13,0,0,0,43.74,60h12a8.13,8.13,0,0,0,8.1-7.41Z"/><circle class="cls-8" cx="43.73" cy="51.83" r="8.13"/><path class="cls-4" d="M46.54,52a2.9,2.9,0,1,1-2.89-2.89A2.89,2.89,0,0,1,46.54,52Z"/><path class="cls-6" d="M55.75,80.81h-12a8.13,8.13,0,1,0-.56,16.25H55.75a8.13,8.13,0,0,0,0-16.25Z"/><circle class="cls-8" cx="43.73" cy="88.93" r="8.13"/><path class="cls-4" d="M46.54,89.09a2.9,2.9,0,1,1-2.89-2.89A2.89,2.89,0,0,1,46.54,89.09Z"/><path class="cls-6" d="M43.62,64.94H34.05a3.33,3.33,0,0,0,0,6.65h9.57a3.33,3.33,0,0,0,0-6.65Z"/><path class="cls-8" d="M37.37,68.27a3.32,3.32,0,1,1-3.32-3.33,3.32,3.32,0,0,1,3.32,3.33Z"/><path class="cls-4" d="M35.2,68.33a1.2,1.2,0,1,1-1.2-1.2h0A1.22,1.22,0,0,1,35.2,68.33Z"/><path class="cls-6" d="M51.62,69.72H42.06a3.32,3.32,0,0,0,0,6.64h9.56a3.32,3.32,0,0,0,0-6.64Z"/><polygon class="cls-6" points="45.77 72.03 54.84 83.26 60.26 83.26 51.19 72.03 45.77 72.03"/><path class="cls-8" d="M45.38,73a3.32,3.32,0,1,1-3.32-3.32A3.32,3.32,0,0,1,45.38,73Z"/><path class="cls-4" d="M43.16,73.11a1.2,1.2,0,1,1-1.2-1.2h0a1.19,1.19,0,0,1,1.19,1.19Z"/><path class="cls-9" d="M66.56,56.37a10.49,10.49,0,0,0-1.65,1,10.42,10.42,0,1,0,0,17,10.49,10.49,0,0,0,1.65,1Z"/><polygon class="cls-6" points="55.77 46.19 64.84 57.42 70.25 57.42 61.18 46.19 55.77 46.19"/><path class="cls-8" d="M66.71,58.93a10.42,10.42,0,1,0-.95,14.71,9.47,9.47,0,0,0,.95-1Z"/><circle class="cls-4" cx="58.91" cy="65.81" r="2.25"/><rect class="cls-4" x="30.75" y="77.47" width="36.82" height="1.04"/><path class="cls-4" d="M63.15,46.92H56.32A1.93,1.93,0,0,1,54.39,45V40.44H65.08V45A1.93,1.93,0,0,1,63.15,46.92Z"/><rect class="cls-5" x="55.76" y="44.43" width="1.77" height="1.28"/><rect class="cls-5" x="58.65" y="44.43" width="1.77" height="1.28"/><rect class="cls-4" x="62.11" y="88.59" width="1.07" height="15"/><rect class="cls-4" x="30.39" y="88.12" width="36.26" height="1.69"/><rect class="cls-4" x="30.15" y="51.98" width="40.1" height="0.77"/><rect class="cls-4" x="18.14" y="116.42" width="91.46" height="3.8"/><rect class="cls-6" x="36.33" y="107.04" width="51.03" height="2.69"/><rect class="cls-4" x="32.49" y="102.85" width="51.03" height="10.25"/><rect class="cls-6" x="36.33" y="102.85" width="51.03" height="2.69"/><rect class="cls-6" x="32.49" y="107.04" width="51.03" height="2.69"/><rect class="cls-4" x="95.15" y="97.25" width="21.4" height="2.06"/><path class="cls-4" d="M84.81,43.75H36.33V33a2.83,2.83,0,0,1,2.83-2.82H82A2.81,2.81,0,0,1,84.81,33h0Z"/><path class="cls-5" d="M72.81,43.75H24.33V33a2.82,2.82,0,0,1,2.82-2.82H70A2.82,2.82,0,0,1,72.81,33Z"/><rect class="cls-4" x="26.44" y="32.68" width="0.71" height="4.31"/><rect class="cls-4" x="28.07" y="32.68" width="0.71" height="4.31"/><rect class="cls-4" x="29.69" y="32.68" width="0.71" height="4.31"/><rect class="cls-4" x="31.3" y="32.68" width="0.71" height="4.31"/><rect class="cls-4" x="32.92" y="32.68" width="0.71" height="4.31"/><rect class="cls-4" x="34.53" y="32.68" width="0.71" height="4.31"/><path class="cls-4" d="M91,40.12H78.55v79.54h28V76.29a2.66,2.66,0,0,0-.23-1.11Z"/><rect class="cls-6" x="95.79" y="78.84" width="9.24" height="14.07"/><rect class="cls-4" x="95.39" y="82.68" width="14.27" height="2.06"/><path class="cls-5" d="M79,40.12H66.55v79.54h28V76.29a2.83,2.83,0,0,0-.23-1.11Z"/><rect class="cls-5" x="18.14" y="119.11" width="91.46" height="1.64"/><path class="cls-4" d="M77.55,88.38a9.23,9.23,0,1,1,9.21-9.23h0A9.23,9.23,0,0,1,77.55,88.38Zm0-17.79a8.58,8.58,0,1,0,8.58,8.58h0A8.58,8.58,0,0,0,77.55,70.59Z"/><path class="cls-4" d="M81.35,66.73A2.74,2.74,0,1,1,84.09,64h0A2.74,2.74,0,0,1,81.35,66.73Zm0-4.83A2.1,2.1,0,1,0,83.44,64h0a2.09,2.09,0,0,0-2.08-2.09Z"/><path class="cls-4" d="M70.63,45.92a1.9,1.9,0,1,1,.06,0Zm0-3.1a1.24,1.24,0,1,0,1.23,1.23h0A1.23,1.23,0,0,0,70.63,42.82Z"/><path class="cls-4" d="M77.38,45.39A1.67,1.67,0,1,1,79,43.71h0A1.66,1.66,0,0,1,77.38,45.39Zm0-2.68a1,1,0,0,0-.92,1.12,1,1,0,0,0,.92.92,1,1,0,1,0,.2-2Z"/><path class="cls-4" d="M71.55,106.06a1.51,1.51,0,1,1,1.52-1.49,1.51,1.51,0,0,1-1.52,1.49Zm0-2.36a.86.86,0,1,0,.85.86h0a.85.85,0,0,0-.85-.85Z"/><path class="cls-4" d="M71.55,109.92a1.51,1.51,0,1,1,1.52-1.49,1.51,1.51,0,0,1-1.52,1.49Zm0-2.36a.86.86,0,1,0,.85.86h0a.85.85,0,0,0-.85-.85Z"/><polygon class="cls-4" points="106.7 63.18 98 43.23 89.48 43.23 98.54 64.11 105.99 64.06 106.7 63.18"/><polygon class="cls-10" points="105.97 62.34 98.01 44.06 90.2 44.06 98.16 62.34 105.97 62.34"/><path class="cls-4" d="M98.16,45.4a.92.92,0,0,0-.52,0,.3.3,0,0,0-.12.45.37.37,0,0,0-.34.41h0a1.29,1.29,0,0,0,.25.56c.58,1,.83,2.1,1.34,3.13,1,1.93,2.83,3.3,4.16,5a59.62,59.62,0,0,0-3.67-9.13A1.13,1.13,0,0,0,99,45.5a.4.4,0,0,0-.4-.11Z"/><path class="cls-11" d="M129.58,61.56a32,32,0,0,0-4.68,2.17l.43.86A4.88,4.88,0,0,1,126,67a4.85,4.85,0,0,1-.47,1.53c-1,2.23-2,4.42-3.09,6.56l1.24,1.25a31.78,31.78,0,0,0,5.07-7.1,10,10,0,0,0,1.41-4.82,10.45,10.45,0,0,0-.52-2.59Z"/><path class="cls-12" d="M127.66,61.81a11.28,11.28,0,0,1,.42,2.89,10.48,10.48,0,0,1-.3,1.93c-.29,1.39-.6,2.77-.91,4.15l-1-8.89,1.31-.42Z"/><path class="cls-13" d="M126.32,55A2.79,2.79,0,0,0,125,53.87a1.93,1.93,0,0,0-2.06,1.33,5.18,5.18,0,0,0-.17,2.89,20.66,20.66,0,0,0,2.17,5.79,34.54,34.54,0,0,1,4.82-2.24A22.22,22.22,0,0,0,126.32,55Z"/><path class="cls-4" d="M126.29,55.88c.16,3.43.4,10.62.57,14C127.15,66.37,128.27,55.76,126.29,55.88Z"/><path class="cls-14" d="M130.42,115.63l0-.1a10.73,10.73,0,0,1-.92-3.08c-.1-.53-.15-1.19-.24-1.77h-2.47c.2.71.45,1.42.6,2.13a4.19,4.19,0,0,1,0,1.93C128.41,115.24,129.41,116,130.42,115.63Z"/><path class="cls-4" d="M127.11,114.68a2.63,2.63,0,0,1-.41.73,2.17,2.17,0,0,1-1.29.79,4.47,4.47,0,0,0-1.62.56c-.48.33-.87.68-.71,1.34a9.43,9.43,0,0,0,3.39.1,2.92,2.92,0,0,0,1.13-.22,2.51,2.51,0,0,1,.57-.28,2.45,2.45,0,0,1,1.06.24,3.44,3.44,0,0,0,1.8-.18,5.22,5.22,0,0,0-.59-2.32C129.46,115.84,128.24,115.13,127.11,114.68Z"/><path class="cls-4" d="M126.64,74.44h-9.32A140.35,140.35,0,0,0,119.12,92,88.87,88.87,0,0,0,123,106.82c.88,2.34,1.78,4.68,2.67,7h4.5C123.3,83.62,127.39,82.33,126.64,74.44Z"/><path class="cls-14" d="M119.66,118V118a8.6,8.6,0,0,1-.54-3.09v-1.77h-2.77c.11.72.29,1.42.34,2.14a3.85,3.85,0,0,1-.35,1.92C117.46,117.64,118.47,118.45,119.66,118Z"/><path class="cls-4" d="M116.13,117.09a2.88,2.88,0,0,1-.57.73,3.09,3.09,0,0,1-1.58.79,6.2,6.2,0,0,0-1.93.56c-.57.33-1.07.69-1,1.35a11.92,11.92,0,0,0,3.77.09,4.07,4.07,0,0,0,1.3-.21,2.94,2.94,0,0,1,.69-.28,2.73,2.73,0,0,1,1.16.23,4.28,4.28,0,0,0,2-.17,4.23,4.23,0,0,0-.31-2.33C118.55,118.25,117.29,117.55,116.13,117.09Z"/><path class="cls-4" d="M113.67,74.44c-1.5,13.6-.37,28.74,1.08,41.81h4.71c-.29-8.28-.48-15.57,1-23.67,1.27-7.16,2.13-10,3.26-14.55.32-1.29.65-2.43.84-3.59Z"/><path class="cls-8" d="M120.2,94.94H120a38.36,38.36,0,0,1,2.3-10.41c.16-.44.35-.89.52-1.33a23.19,23.19,0,0,0,1.45-4.6h.16A22.91,22.91,0,0,1,123,83.24c-.18.44-.35.88-.52,1.33A38.36,38.36,0,0,0,120.2,94.94Z"/><path class="cls-11" d="M124.26,44.77c-.75-1-2.09-1.12-3.56-.9l-1.23.32a9,9,0,0,0-.62,1.51c0,.17.15.72.06.89a13.86,13.86,0,0,0-1.08,4.22,1,1,0,0,0,0,.42c.07.3.4.45.69.54a5.09,5.09,0,0,0,6.31-3.45.75.75,0,0,1,0-.16A3.91,3.91,0,0,0,124.26,44.77Z"/><path class="cls-12" d="M118,51.5a1.3,1.3,0,0,0,.52.27,5.05,5.05,0,0,0,5.6-1.93A8.75,8.75,0,0,0,118,51.5Z"/><path class="cls-11" d="M119.75,51.21a16.18,16.18,0,0,1-1.52,3.71l6,.71a23.28,23.28,0,0,1-.34-5.53c-1-2.35-1.86-1.17-3.31,0A2.24,2.24,0,0,0,119.75,51.21Z"/><path class="cls-12" d="M120,46.05a2.7,2.7,0,0,1,.47,1.63,4.1,4.1,0,0,0,.27,1.7,3.5,3.5,0,0,0,.84,1l1.63,1.53a8.33,8.33,0,0,0,1-3.55A4.31,4.31,0,0,0,124,46.5a4.15,4.15,0,0,0-1.37-1.68,4,4,0,0,0-2-.83,1.62,1.62,0,0,0-1,.21.82.82,0,0,0-.42.82C119.31,45.45,119.76,45.7,120,46.05Z"/><path class="cls-4" d="M125.18,46.89a2.81,2.81,0,0,0-1.33-3.28c-1.3-.71-2.95-.33-4.28-1V43a.77.77,0,0,1-.57-.66,2.81,2.81,0,0,0-.26,1.17l-.09-.47a1.73,1.73,0,0,0,.38,1.59,3.38,3.38,0,0,0,1.41,1l.49.16a5.44,5.44,0,0,0-.32,1,2.8,2.8,0,0,1-.32.73.51.51,0,0,0-.07.17.43.43,0,0,0,0,.16c.07.24.14.48.19.73a4.61,4.61,0,0,1,.25-.71,2.78,2.78,0,0,1,.33-.51,3,3,0,0,0,.17.41,8.37,8.37,0,0,0,1.29,1.67,5.78,5.78,0,0,1,1.16,1.73,7.07,7.07,0,0,1,1-1.57,3.44,3.44,0,0,0,.73-1.68A2.26,2.26,0,0,0,125.18,46.89Z"/><path class="cls-11" d="M120.66,48a1.9,1.9,0,0,1,.24-.61.57.57,0,0,1,.57-.26.67.67,0,0,1,.46.56,1.68,1.68,0,0,1-.76,1.8.68.68,0,0,1-.44.12.32.32,0,0,1-.27-.33Z"/><path class="cls-15" d="M120,44.46H120a.11.11,0,0,0,0-.08l-.06-.06a1.56,1.56,0,0,1-.85-1,1.32,1.32,0,0,0,.2.7A1,1,0,0,0,120,44.46Z"/><path class="cls-15" d="M121.69,44.52c.2-.05.37-.22.57-.19s.28.18.45.21a1.09,1.09,0,0,0,.36,0,.71.71,0,0,1,.48.23,1.77,1.77,0,0,1,.3.45.3.3,0,0,1,.43,0,.88.88,0,0,1,.26.43.81.81,0,0,0,.26.42,3.34,3.34,0,0,0-.32-1,1.19,1.19,0,0,0-.82-.64h-.43a1.07,1.07,0,0,1-.5-.14c-.58-.41-1.13-.45-2.84-.54a1.82,1.82,0,0,0,.9,1V44.3A1.11,1.11,0,0,0,121.69,44.52Z"/><path class="cls-15" d="M119,53.69a19.14,19.14,0,0,1,5.9.09,3.68,3.68,0,0,1-.26-1.64,11.23,11.23,0,0,0-3,.14A4.86,4.86,0,0,0,119,53.69Z"/><path class="cls-16" d="M127.25,75.69A136.17,136.17,0,0,1,127,56.85a3.55,3.55,0,0,0-2.18-3.45,11,11,0,0,0-6.58.18h0A6.59,6.59,0,0,0,114.13,59c-.18,2.43-.76,12.24-1.18,17.42a.68.68,0,0,0,.62.76h.12l12.85-.72A.79.79,0,0,0,127.25,75.69Z"/><path class="cls-13" d="M118.69,53.51l-.42.1h0a6.62,6.62,0,0,0-4.14,5.46c-.18,2.44-.77,12.27-1.18,17.45a.67.67,0,0,0,.61.73.2.2,0,0,0,.11,0L118.6,77C118.27,59.22,124.35,57.25,118.69,53.51Z"/><path class="cls-4" d="M117.72,77.21a40.51,40.51,0,0,1,.41-8.38l1-8h.16l-1,8a41.55,41.55,0,0,0-.42,8.34Z"/><path class="cls-4" d="M121.11,58.27a4.2,4.2,0,0,1-1.64,2.62,3.86,3.86,0,0,1-2.59.27,14.56,14.56,0,0,0-2.63-.42c.06-.29.12-.6.17-.9a11.37,11.37,0,0,0,3.86,0,4.51,4.51,0,0,0,3-2.18Z"/><path class="cls-11" d="M112.9,53.54a37.55,37.55,0,0,1-11-3.66.7.7,0,0,1-.49-.71,11.74,11.74,0,0,1,0-2.65.25.25,0,0,0,0-.17c-.1-.18-.36,0-.45.16a3.94,3.94,0,0,0-.38,1,12.2,12.2,0,0,0-1.5-2.08.51.51,0,0,0-.28-.19c-.1,0-.24.08-.2.2a.58.58,0,0,0-.39-.19c-.14,0-.25.22-.13.31-.17-.1-.5-.12-.49.08a.33.33,0,0,0,.07.16,9.36,9.36,0,0,0,.83,1,5,5,0,0,0-1-.75.37.37,0,0,0-.08.46,1.8,1.8,0,0,0,.36.37c.87.83.75,2.27,1.39,3.28a6,6,0,0,0,1.35,1.31,27.27,27.27,0,0,1,2.23,2.33c2.56,2.61,6,4,9.2,5.14A9.85,9.85,0,0,0,112.9,53.54Z"/><path class="cls-12" d="M100.51,51.48a27.27,27.27,0,0,1,2.23,2.33c2.56,2.61,6,4,9.2,5.14a12.07,12.07,0,0,0,.71-1.93,30.48,30.48,0,0,1-13.26-6.55A8.24,8.24,0,0,0,100.51,51.48Z"/><path class="cls-16" d="M121.53,54.65c-.63-1-1.93-1-3.11-1a39.28,39.28,0,0,1-6-.53,13,13,0,0,1-1.29,6.23,34.58,34.58,0,0,0,5.22,1.28,4.63,4.63,0,0,0,2.94-.16,5,5,0,0,0,2-2.69C121.7,56.85,122.14,55.57,121.53,54.65Z"/><path class="cls-13" d="M111.74,57.81a17,17,0,0,1-.64,1.59,34.58,34.58,0,0,0,5.22,1.28,4.63,4.63,0,0,0,2.94-.16A4.88,4.88,0,0,0,121.19,58,12.61,12.61,0,0,1,111.74,57.81Z"/><path class="cls-4" d="M111.5,59.47l-.13-.09a9.43,9.43,0,0,0,1.48-6.14H113A9.65,9.65,0,0,1,111.5,59.47Z"/></svg>