<svg id="खाट" xmlns="http://www.w3.org/2000/svg" viewBox="0 0 150 160"><defs><style>.cls-1{fill:#fff;}.cls-2{fill:#bf734c;}.cls-3{fill:#874125;}.cls-4{fill:#dd916f;}.cls-5{fill:#ad5134;}.cls-6{fill:#8e341c;}.cls-7{fill:#9e452d;}.cls-8{fill:#631e12;}.cls-9{fill:#82311e;}.cls-10{fill:#3f1007;}.cls-11{fill:#56849b;}.cls-12{fill:#285668;}.cls-13{fill:#9fdaff;}.cls-14{fill:#bbe4f9;}.cls-15{fill:#86c9ea;}.cls-16{fill:#2b5768;}.cls-17{fill:#b75d46;}.cls-18{fill:#d37563;}.cls-19{fill:#8ccced;}.cls-20{fill:#eaf1f4;}.cls-21{fill:#f9e49d;}</style></defs><path class="cls-1" d="M128.4,69.18a5,5,0,0,0-5,4.66c-8.84-5.92-17.94-5.92-25.71-13.93-1.77-1.34-3.77-2.8-5.61-4-2.57-1.66-5.24-3.5-8.26-4.27l-.15.59a3,3,0,0,1,0-.61c-.1-2.77-.51-26.65,1.4-28.3-.06-7.47-11.92-5.61-9.68,1.53-15.81-8.76-34.26-8.82-48.91.91-.14-6.29-10-6.16-9.91.18a4.86,4.86,0,0,0,1.42,3.46V92.7c-.09,4.16,6.32,4.8,7,.66.21-.77,0-18.37.07-19.13,5.68,4.52,4.73,8.38,4.48,14.77-1.7,8.89,26.81,26.85,31.28,32.34.5,3.55-2.81,28.39,6.84,18.14a3.4,3.4,0,0,0,.23-1.2v-20.4l56.89-2.17v21.15a3.44,3.44,0,0,0,.24,1.22c1.23,3.52,6.9,2.54,6.83-1.22V77.61C135,74.69,132.68,69,128.4,69.18Z"/><path class="cls-2" d="M22,31.81S45.26,7.72,79,29.18V50.43l-56.73,3.5Z"/><path class="cls-3" d="M76.4,27.61c3.74,13-29.68,16.18-44.36,12.6A9.39,9.39,0,0,1,24.8,29.42,29,29,0,0,0,22,31.81l.22,22.12L79,50.43V29.18C78.12,28.63,77.26,28.11,76.4,27.61Z"/><path class="cls-4" d="M56.49,31a14.35,14.35,0,0,0,10.95-7.64c-13.86-5.19-25.32-3-33.26.52C39,30.64,48.79,32,56.49,31Z"/><path class="cls-5" d="M22.26,34S45.48,9.91,79.21,31.37V52.62l-56.73,3.5Z"/><path class="cls-6" d="M58.52,23.07l1.59.29C59.57,23.25,59,23.15,58.52,23.07Z"/><path class="cls-6" d="M70.07,26.51a24.74,24.74,0,0,1,7,6.75c1.87,2.54-5.34,9.22-5.74,5.35-1.81-17.42-26.86-9.36-38.89-9-8.42.41.67,9.89-1.74,15.91-1.3,3.12-6.4,1.88-8.33-.6l.11,11.16,56.73-3.5V31.37A63.33,63.33,0,0,0,70.07,26.51Z"/><path class="cls-7" d="M81.72,90.09a1.54,1.54,0,0,1-1.53,1.54h0a1.54,1.54,0,0,1-1.54-1.54V25.47a1.54,1.54,0,0,1,1.54-1.53h0a1.54,1.54,0,0,1,1.53,1.53Z"/><path class="cls-8" d="M80.19,23.94a1.54,1.54,0,0,0-1.54,1.53V90.09a1.53,1.53,0,0,0,1.49,1.53c-.07-21.41.21-42.39,0-64.24a4.25,4.25,0,0,0,1.58,0V25.47A1.54,1.54,0,0,0,80.19,23.94Z"/><path class="cls-5" d="M77.23,23.28a3,3,0,1,0,3-3A3,3,0,0,0,77.23,23.28Z"/><polygon class="cls-9" points="22.82 68.67 65.51 115.98 128.45 113.57 129.02 103.25 77.68 51.96 23.14 58.31 22.82 68.67"/><path class="cls-10" d="M77.68,52,23.14,58.31l-.32,10.36.48.53c.45-3.6.72-4.94.85-7.34,7.22,5.61,7.22,10.67,7.41,16.5l34,37.62.2-.14c.94-3.07,1.36-7.88,2.41-7.88,19.24-1.07,38.48-2.41,57.33-2.41.4,0,1.22,5.35,1.33,8.16l1.67-.14.57-10.32Z"/><path class="cls-11" d="M23.14,58.31,66,106.36l62-2.68s2.41-4.38,1.32-7-49-44.05-49-44.05S75.4,47,71.46,47.43C66.19,48,30.58,50,30.58,50S21.38,49.33,23.14,58.31Z"/><path class="cls-12" d="M73.46,103.15c17.24-1.61,34-1.47,52.19-3.21,1.4,2,.95,3.32,1.8,4.61l1.6,1.2s1.34-6.45.25-9.08C128.33,94.34,90.55,61.5,82,54.1c-13.57,2.53-27.42,1.73-41.55,3.75a19.4,19.4,0,0,0-4.41,1.6C31.64,60.65,30.43,55,27.63,53a13.41,13.41,0,0,1-2.41-1.21,2,2,0,0,1-.18-.36c-1.53,1.16-2.61,3.22-1.9,6.84L66,106.36h.07C66.29,101.41,69.44,103.51,73.46,103.15Z"/><path class="cls-13" d="M64.92,122.14l-30.46-26s-3.07-2.41-2.85-8.54.44-15.78.44-18.4,1.09-8.77,7.44-10.74,37.36-5,43.06-5,25.52,17.53,28.86,20a17.72,17.72,0,0,1,6.74,11.65L65.36,102Z"/><path class="cls-14" d="M50.88,64.26c2.4,5.61,10.42,4.81,16,3.61,10-2.36,20.45-5.79,30.7-5.54-6-4.63-12.26-8.89-15.07-8.89-3.93,0-19.9,1.43-31.52,3C49.28,58.46,50.21,62.6,50.88,64.26Z"/><path class="cls-15" d="M70.12,87.11c-15-5.81-27.66-9.62-32.87-22.85a6.11,6.11,0,0,1,2-5.76c-6.13,2-7.2,8.06-7.2,10.66s-.22,12.26-.44,18.4,2.85,8.54,2.85,8.54l30.46,26L65.36,102l15.18-4.85C78.72,92.27,75.49,89.19,70.12,87.11Z"/><path class="cls-15" d="M70.12,87.11c-15-5.81-27.66-9.62-32.87-22.85a6.11,6.11,0,0,1,2-5.76c-6.13,2-7.2,8.06-7.2,10.66s-.22,12.26-.44,18.4,2.85,8.54,2.85,8.54l30.46,26L65.36,102l15.18-4.85C78.72,92.27,75.49,89.19,70.12,87.11Z"/><path class="cls-11" d="M31.77,82.53c-.05,1.78-.11,3.51-.16,5-.22,6.14,2.85,8.55,2.85,8.55l30.46,26,.39-11.24C53.2,103,34.31,89.12,31.77,82.53Z"/><path class="cls-16" d="M31.77,82.53c-.05,1.78-.11,3.51-.16,5a14.69,14.69,0,0,0,.14,2.73l2.82-3.59A15.23,15.23,0,0,1,31.77,82.53Z"/><path class="cls-16" d="M36.84,89.08c-1.38,1.55-2.7,3.14-4,4.74a7.05,7.05,0,0,0,1.66,2.28l1.18,1c1.43-1.64,2.66-3.55,4-5.39C38.64,90.81,37.7,89.93,36.84,89.08Z"/><path class="cls-16" d="M42.56,94.25C41.15,96,40.32,98.14,39,100l3.52,3c1.35-1.91,2.46-3.88,3.69-5.79C45,96.23,43.73,95.23,42.56,94.25Z"/><path class="cls-16" d="M57.8,105.8c-2,1.48-3.09,4.22-4.67,6.26l4.54,3.88c1.42-2.41,2.95-4.82,4.35-7.23C60.66,107.79,59.24,106.81,57.8,105.8Z"/><path class="cls-16" d="M65.24,112.86a50.72,50.72,0,0,1-4.08,6.07l3.76,3.21Z"/><path class="cls-16" d="M50.22,100.3a23,23,0,0,0-3.7,6.11l3.26,2.79c.93-2.27,2.6-4.12,4.11-6.19C52.66,102.12,51.43,101.21,50.22,100.3Z"/><path class="cls-7" d="M23.14,92.7a1.54,1.54,0,0,1-1.54,1.54h0a1.54,1.54,0,0,1-1.53-1.54V28.09a1.54,1.54,0,0,1,1.53-1.54h0a1.54,1.54,0,0,1,1.54,1.54Z"/><path class="cls-8" d="M23.14,28.09a1.54,1.54,0,1,0-3.07,0v1.54a2.9,2.9,0,0,0,1.94.15c.77,20.94.45,42.24,1.1,63.21a2.58,2.58,0,0,0,0-.29Z"/><path class="cls-5" d="M18.65,25.9a3,3,0,1,0,3-3A2.95,2.95,0,0,0,18.65,25.9Z"/><path class="cls-6" d="M24.06,24.25a3.66,3.66,0,0,1-.77,3.2,4.14,4.14,0,0,1-2.95,1.12,3,3,0,0,0,4.22-2.67A2.92,2.92,0,0,0,24.06,24.25Z"/><path class="cls-2" d="M65.69,100V80s29.51-26.72,61.69-.88l-.22,17.53Z"/><path class="cls-3" d="M124.64,77.06c-2.82,4.29-7.71,7.14-12.42,8.45-14,3.61-30.07,4.41-42.1-4.81a6.11,6.11,0,0,1-1.77-2.78c-1.72,1.25-2.66,2.1-2.66,2.1V100l61.47-3.28.22-17.53C126.47,78.41,125.55,77.72,124.64,77.06Z"/><path class="cls-4" d="M92.17,78.69c8,1.61,18,1.21,21.65-6.81.1-.24.2-.48.28-.71-14.53-6-27.64-2.77-36.54,1.36C81.06,76.32,87.24,77.82,92.17,78.69Z"/><path class="cls-5" d="M65.69,102.14V82.21s29.51-26.72,61.69-.88l-.22,17.53Z"/><path class="cls-17" d="M68.52,83.1c4,12,21.65,12.83,33.67,11.63,6-.8,12.83-2.81,16-8.42a14.39,14.39,0,0,0,1.64-10.13c-22.82-13.06-43.14-2-50.87,3.47A9.43,9.43,0,0,0,68.52,83.1Z"/><path class="cls-6" d="M127.31,87.15l.07-5.82-.35-.27C126.94,82.91,127.2,85.07,127.31,87.15Z"/><path class="cls-6" d="M123.44,95.53c-18,5.21-37.28,3.61-55.72,2-1,.6-1.52-15.37-1.68-15.63l-.35.3v19.93l61.47-3.28.29-17.56C127.18,83.65,126.05,94.84,123.44,95.53Z"/><path class="cls-7" d="M66,138.28a1.49,1.49,0,0,1-1.53,1.44h0a1.49,1.49,0,0,1-1.54-1.44V77.66a1.49,1.49,0,0,1,1.54-1.44h0A1.49,1.49,0,0,1,66,77.66Z"/><path class="cls-8" d="M66,77.66a1.54,1.54,0,0,0-3.07,0V80.3a1.75,1.75,0,0,0,2.14.13c-.4,11.23.14,22.65.14,33.88,0,9.42.42,16.53.5,24.81a1.4,1.4,0,0,0,.29-.84Z"/><path class="cls-5" d="M61.48,75.66a3,3,0,1,0,3-3A3,3,0,0,0,61.48,75.66Z"/><path class="cls-7" d="M129.93,136.86a1.49,1.49,0,0,1-1.53,1.44h0a1.5,1.5,0,0,1-1.54-1.44V76.24a1.49,1.49,0,0,1,1.54-1.44h0a1.49,1.49,0,0,1,1.53,1.44Z"/><path class="cls-8" d="M128.4,74.8a1.49,1.49,0,0,0-1.54,1.44v60.62a1.45,1.45,0,0,0,1.09,1.37c-.1-20.78-.07-40.09.3-60.34,0-.3,1.11.29,1.68-.21V76.24A1.49,1.49,0,0,0,128.4,74.8Z"/><path class="cls-5" d="M125.44,74.14a3,3,0,1,0,3-3A3,3,0,0,0,125.44,74.14Z"/><path class="cls-1" d="M67.18,29.62c.07-.32.15-.64.22-1A4.75,4.75,0,0,0,67.18,29.62Z"/><path class="cls-18" d="M19.94,24.47a.57.57,0,0,0,.57.57.57.57,0,0,0,0-1.13A.57.57,0,0,0,19.94,24.47Z"/><path class="cls-18" d="M78.58,22a.56.56,0,0,0,.56.56.57.57,0,0,0,.57-.56.58.58,0,0,0-.57-.57A.57.57,0,0,0,78.58,22Z"/><path class="cls-18" d="M62.54,74.48a.57.57,0,1,0,.57-.56A.56.56,0,0,0,62.54,74.48Z"/><path class="cls-18" d="M127.09,72.84a.56.56,0,0,0,.56.57.57.57,0,1,0,0-1.13A.56.56,0,0,0,127.09,72.84Z"/><path class="cls-12" d="M34.14,51s-1.39,3,.69,3.24,2.09-1.39,2.09-1.39,18.4,3.24,32.63-2.77c0,0,3.2,1.3,2.93-.74s-5.82-2.39-5.82-2.39Z"/><path class="cls-13" d="M31.88,34.06s-2.32-2.12-1.61-3.13,2.62-.61,3.94,1c0,0,12.62-5.86,32.92-1.42,0,0-.1-3.83,2.22-2.62s-1.11,3.94-1.11,3.94,3,5.35,2,14.84c0,0,2.52.81,2.22,2.63s-2.62-.2-2.62-.2-13.33,6-33.53,2.72c0,0-.1,1.72-1.72,1.52s-.61-2.22.2-3.23C34.81,50.12,31.18,42.24,31.88,34.06Z"/><path class="cls-19" d="M70.26,46.68A47.3,47.3,0,0,0,70.34,39c-6.68,6.34-11.57,8.23-18.26,8.81-8,.7-16.19-.67-19.34-4a37.54,37.54,0,0,0,2.07,6.29c-.81,1-1.82,3-.2,3.23s1.72-1.52,1.72-1.52c20.2,3.24,33.53-2.72,33.53-2.72s2.32,2,2.62.2S70.26,46.68,70.26,46.68Z"/><path class="cls-1" d="M40.59,30c-2.39,6-4.49,12.32-6.39,18.6.36,1,.61,1.5.61,1.5-.81,1-1.82,3-.2,3.23s1.72-1.52,1.72-1.52l.46.07c2.09-7.61,4.64-15.17,7.46-22.51C42.91,29.57,41.68,29.79,40.59,30Z"/><path class="cls-1" d="M48.71,29A219.07,219.07,0,0,0,41.6,52.48c1.21.11,2.38.19,3.52.23,2.39-8,4.47-15.9,7.24-23.85C51.08,28.86,49.86,28.9,48.71,29Z"/><path class="cls-1" d="M56.2,29c-2.81,7.86-5.37,15.72-7.69,23.79,1.55,0,3-.06,4.42-.16,2.32-7.65,4.29-15.5,6.47-23.36C58.31,29.14,57.24,29.05,56.2,29Z"/><path class="cls-1" d="M63.74,29.87c-1.66,7.59-3.79,15-6,22.27,2.23-.31,4.19-.69,5.84-1.09,1.55-6.67,2-13.68,3.41-20.55C65.88,30.26,64.8,30.05,63.74,29.87Z"/><path class="cls-1" d="M70.26,46.68a32.27,32.27,0,0,0-.42-10.08,118.45,118.45,0,0,1-2,13.24c1.29-.43,2-.73,2-.73s2.32,2,2.62.2S70.26,46.68,70.26,46.68Z"/><path class="cls-20" d="M35.06,45.85c-.29.92-.58,1.85-.86,2.77.36,1,.61,1.5.61,1.5-.81,1-1.82,3-.2,3.23s1.72-1.52,1.72-1.52l.46.07c.47-1.71,1-3.42,1.48-5.12l-.62-.16A12.16,12.16,0,0,1,35.06,45.85Z"/><path class="cls-20" d="M41.6,52.48c1.21.11,2.38.19,3.52.23q.72-2.35,1.39-4.73c-1.23,0-2.47-.16-3.7-.33C42.39,49.26,42,50.86,41.6,52.48Z"/><path class="cls-20" d="M48.51,52.78c1.55,0,3-.06,4.42-.16q.78-2.55,1.51-5.15a33.82,33.82,0,0,1-4.51.5C49.45,49.57,49,51.17,48.51,52.78Z"/><path class="cls-20" d="M57.74,52.14c2.23-.31,4.19-.69,5.84-1.09.58-2.5,1-5.06,1.39-7.64a26.9,26.9,0,0,1-5.45,2.71C58.94,48.13,58.34,50.14,57.74,52.14Z"/><path class="cls-20" d="M70.26,46.68a33.4,33.4,0,0,0-.05-7.87c-.24.27-.47.54-.71.8a92.9,92.9,0,0,1-1.62,10.23c1.29-.43,2-.73,2-.73s2.32,2,2.62.2S70.26,46.68,70.26,46.68Z"/><path class="cls-21" d="M33.9,33.45s2.73,9.5,2.63,16.06C36.45,54.62,31.68,28.91,33.9,33.45Z"/></svg>