<svg id="ककड़ी" xmlns="http://www.w3.org/2000/svg" viewBox="0 0 150 160"><defs><style>.cls-1{fill:#fff;}.cls-2{fill:#6aa643;}.cls-3{fill:#609440;}.cls-4{fill:#79b64c;}.cls-5{fill:#5d9340;}.cls-6{fill:#9ecd68;}.cls-7{fill:#d0e7c2;}.cls-8{fill:#b6d99b;}</style></defs><path class="cls-1" d="M139.41,45.68a14.42,14.42,0,0,0-1.18-4.48c-.14-.31-.29-.62-.45-.91a13.65,13.65,0,0,0-2.2-3A12.56,12.56,0,0,0,134.2,36l-.27-.21-.45-.33a14.55,14.55,0,0,0-3.59-1.8,16.35,16.35,0,0,0-2.08-.56,19.07,19.07,0,0,0-3.68-.35,31.63,31.63,0,0,0-11.63,2.55c-7.45,3-13,5.46-18,8-9,4.63-18,9.64-26.74,14.89-2.9,1.73-5.62,3.45-8.29,5.23A31.5,31.5,0,0,0,54.19,66c-4.14,2.46-11.61,7.53-15.13,13.88a14.19,14.19,0,0,0-1.45,4.3,20.72,20.72,0,0,0-3.16-.24,23.2,23.2,0,0,0-2.63.16h-.44c-11,0-19,10.5-20.4,20.67-.17.85-.3,1.62-.38,2.33-.38,3.42.9,9.93,4.2,12.74l0,0c.21.27.44.53.68.79,2.54,2.76,8.38,3.49,11.43,3.49a15.86,15.86,0,0,0,3.37-.31,16.39,16.39,0,0,0,4-1.5,24.25,24.25,0,0,0,2.33-1.37c.81-.53,1.62-1.13,2.44-1.78A25.28,25.28,0,0,0,42.67,124a11.72,11.72,0,0,0,8.62,3.26h0a16.66,16.66,0,0,0,9.62-3,26,26,0,0,0,8.47-11.59l0-.09a50.64,50.64,0,0,0,5.7-1.08q1.13-.27,2.25-.6c.36-.1.73-.22,1.11-.35a22.28,22.28,0,0,0,6.92-3.75,12.2,12.2,0,0,0,.9-.84,14.9,14.9,0,0,0,1.18-1.38A13.36,13.36,0,0,0,90,97.22c0-.38.06-.78.08-1.19a12.33,12.33,0,0,0-.1-2.36A11.24,11.24,0,0,0,88.77,90c2.57-1.26,5-2.56,7.42-3.9,15.65-8.84,28.62-18.66,39.66-30a12.92,12.92,0,0,0,3.61-9.32C139.46,46.38,139.44,46,139.41,45.68Z"/><path class="cls-2" d="M137.46,46.76a10.93,10.93,0,0,1-3.05,7.9c-11.66,12-24.62,21.45-39.2,29.67a144.92,144.92,0,0,1-19.8,9.27c-3.63,1.38-7.3,2.61-11,3.66C60,98.54,51.87,98.92,49.31,94l-4.53-16.8a159.49,159.49,0,0,1,24-17.28c8.69-5.19,17.64-10.18,26.64-14.83,5.75-3,11.84-5.56,17.82-8,4.29-1.71,9.5-3,14.18-2.09a14.53,14.53,0,0,1,1.83.49,12.47,12.47,0,0,1,3.09,1.56l.38.27a2.11,2.11,0,0,1,.23.19,10.76,10.76,0,0,1,1.17,1.06,11.75,11.75,0,0,1,1.9,2.62c.14.26.27.52.39.79a12.25,12.25,0,0,1,1,3.83C137.44,46.16,137.46,46.46,137.46,46.76Z"/><path class="cls-3" d="M137.46,46.76a10.93,10.93,0,0,1-3.05,7.9c-11.66,12-24.62,21.45-39.2,29.67a144.92,144.92,0,0,1-19.8,9.27,11,11,0,0,1-1-3.58,8.24,8.24,0,0,1,0-1.91,5,5,0,0,1,.26-1.22c1.09-3.15,4.93-3.44,8.52-4.83q4.35-1.68,8.55-3.71c1.83-.89,3.65-1.81,5.43-2.78a120.42,120.42,0,0,0,15.12-9.68,99.12,99.12,0,0,0,10.24-8.84,51.15,51.15,0,0,0,7.72-9.24,23.1,23.1,0,0,0,1.52-3A15.5,15.5,0,0,0,133,39.37c0-.31,0-.63,0-.95s0-.57-.06-.86a10.76,10.76,0,0,1,1.17,1.06,11.75,11.75,0,0,1,1.9,2.62c.14.26.27.52.39.79a12.25,12.25,0,0,1,1,3.83C137.44,46.16,137.46,46.46,137.46,46.76Z"/><path class="cls-4" d="M129.25,35.54c-2.28,1.07-4.71,1.92-7,3q-4.42,2-8.77,4.21c-5.92,3-11.72,6.19-17.49,9.46S84.51,58.78,78.72,62c-5.54,3.11-11.14,6.59-17.15,8.7a.47.47,0,0,1-.39-.85C64.05,68,67.11,66.54,70.12,65s5.74-3.07,8.58-4.64c5.81-3.21,11.58-6.51,17.38-9.73s11.63-6.38,17.59-9.29c2.83-1.39,5.67-2.73,8.56-4,1.68-.74,3.41-1.57,5.19-2.26A14.53,14.53,0,0,1,129.25,35.54Z"/><path class="cls-4" d="M134.12,38.62c-.36.26-.74.51-1.12.75-1.45.92-3,1.74-4.47,2.53-2.77,1.48-5.55,2.94-8.3,4.46q-9.09,5-18.06,10.3T84.47,67.44c-5.84,3.66-11.56,7.61-17.63,10.87a.64.64,0,0,1-.67-1.1A199.27,199.27,0,0,1,83.42,65.74q8.79-5.5,17.71-10.78c6-3.52,12-7,18.08-10.25,2.77-1.49,5.57-2.91,8.36-4.37,1.77-.93,3.46-1.94,5.15-3a2.11,2.11,0,0,1,.23.19A10.76,10.76,0,0,1,134.12,38.62Z"/><path class="cls-4" d="M136.41,42a38.09,38.09,0,0,1-3.79,3.65c-.79.73-1.6,1.44-2.42,2.13-1.76,1.49-3.57,2.92-5.4,4.32-5.52,4.22-11.39,8-17.26,11.71s-11.81,7.34-18,10.5c-6,3.09-12.42,6.33-19,8-.81.2-1.45-1-.62-1.4,3.09-1.43,6.28-2.6,9.41-3.94s6.2-2.78,9.23-4.33c6.06-3.08,11.9-6.56,17.68-10.15s11.45-7.35,17-11.28c2.7-1.91,5.33-3.92,8-6l.57-.45c1.05-.81,2.1-1.64,3.09-2.53.39-.35.81-.7,1.21-1.07C136.16,41.5,136.29,41.76,136.41,42Z"/><path class="cls-4" d="M137.46,46.76c-6.68,8.6-16.05,14.73-25.07,20.7-12,8-24.58,15.3-38,20.65l-.62.25c-.5.2-.88-.65-.39-.88l1.27-.59c5.76-2.69,11.49-5.48,17.07-8.54l1.24-.69c6.27-3.5,12.39-7.26,18.41-11.18l.9-.59c8.93-5.8,18.32-11.77,25.17-20C137.44,46.16,137.46,46.46,137.46,46.76Z"/><path class="cls-5" d="M42.36,96.78c-2.75-2-4.54-5.07-3.51-8.81.68-2.46.71-4.9,2-7.16,3-5.37,9.2-10,14.4-13.13s12.47-5.19,18.36-2.81a9.25,9.25,0,0,1,5.62,5.68c.8,2.35.57,4.85.7,7.29.27,5-3.73,10.56-7,14C66,99,56.36,102.31,46.72,99.05A15.76,15.76,0,0,1,42.36,96.78Z"/><path class="cls-6" d="M77.18,68.89a8.28,8.28,0,0,0-1.67-1.73,14.75,14.75,0,0,0-10.86-2.43,24.18,24.18,0,0,0-5.66,2,53.31,53.31,0,0,0-7.2,3.79A26.22,26.22,0,0,0,41.34,82.09c-1.08,2.42-2.08,4.25-1.64,7a12,12,0,0,0,3.14,6.2c3.12,3.59,9.2,4.05,13.85,3.6,7.41-.71,13.43-5.12,17.87-10.85C78.52,83,81.34,74.75,77.18,68.89Z"/><path class="cls-7" d="M76,83.76c1.94-3.53,2.86-8.83,1-12.57C73.31,63.66,64.75,65.7,58.65,68a28.07,28.07,0,0,0-7.56,4.09c-4,3.12-8.66,7.61-9.91,12.61a13,13,0,0,0,.65,7.84C43,95.32,45.33,96.42,48.2,97a26.4,26.4,0,0,0,8.17-.32,32.56,32.56,0,0,0,8.17-1.76C69.69,92.69,73.36,88.6,76,83.76Z"/><path class="cls-8" d="M53.19,79c-.13-.84.07.38,0,.22a2.27,2.27,0,0,0,.25.55,3.49,3.49,0,0,0,1,1,2.11,2.11,0,0,0,3.08-.4,1.74,1.74,0,0,0-.06-1.8,2.47,2.47,0,0,0-.72-.72c.57.43-.15-.13-.34-.23a3,3,0,0,0-2.2-.41,1.46,1.46,0,0,0-1,1.76Z"/><path class="cls-8" d="M61,72.08c.61,2.18,4,4.65,6.18,3.27a2.17,2.17,0,0,0,1-2.41,3.83,3.83,0,0,0-2.56-2.38,5.68,5.68,0,0,0-3.34-.7A1.81,1.81,0,0,0,61,72.08Z"/><path class="cls-8" d="M68.4,74.62c-2.32.64-2.27,4.35-.41,5.44a2,2,0,0,0,2.73-.71c.1-.2.18-.41.26-.62l.08-.56c-.09-.63-.11-.75,0-.36A5.38,5.38,0,0,0,70.55,76c-.35-.77-1.23-1.63-2.15-1.38Z"/><path class="cls-8" d="M57,76.38c.79.63,1.67,1.11,2.52,1.67a6.14,6.14,0,0,0,3.09,1.47,1.88,1.88,0,0,0,1.61-2.8c-.64-1.23-2-1.73-3.23-2.17a4.83,4.83,0,0,0-3.75,0A1.17,1.17,0,0,0,57,76.38Z"/><path class="cls-2" d="M88.06,95.93c0,.38,0,.75-.07,1.12a11.45,11.45,0,0,1-2.13,6.35,10.82,10.82,0,0,1-1,1.19,8.61,8.61,0,0,1-.76.71,20.12,20.12,0,0,1-6.27,3.38c-.35.12-.69.23-1,.32-.71.21-1.44.4-2.16.58-9.42,2.31-20,2.26-28.33-3.16-4-2.57-7.12-6.62-7.14-11.58,0-3.47.35-6.08,3-8.5a20.85,20.85,0,0,1,10.38-5,44,44,0,0,1,4.87-.65,43,43,0,0,1,9.21.27,55,55,0,0,1,5.54,1h0l1.21.28a29.15,29.15,0,0,1,9.48,4.08,14.32,14.32,0,0,1,3,2.73,9.73,9.73,0,0,1,2.23,6.82Z"/><path class="cls-4" d="M88.06,95.93c0,.38,0,.75-.07,1.12l-.57-.1c-.89-.14-1.8-.25-2.68-.43s-3.18-.4-3.14-1.82,2.72-.93,3.5-.87S87,93.87,88,94A9.91,9.91,0,0,1,88.06,95.93Z"/><path class="cls-4" d="M85.86,103.4a10.82,10.82,0,0,1-1,1.19,8.61,8.61,0,0,1-.76.71l-.51-.13a12.36,12.36,0,0,1-4.25-1.39c-.36-.24-.38-.91.13-1a13.53,13.53,0,0,1,4.69.35Z"/><path class="cls-4" d="M77.82,108.68c-.35.12-.69.23-1,.32-.71.21-1.44.4-2.16.58-.78-.31-1.63-.74-1.81-1.53a.5.5,0,0,1,.23-.55c1-.55,2.51.27,3.49.66Z"/><path class="cls-4" d="M85.83,89.11c-1.12-.11-2.24-.35-3.33-.52-1.82-.3-3.71-.17-5.5-.58a.56.56,0,0,1-.14-1c1.68-1.22,4-.86,5.94-.62h.07A14.32,14.32,0,0,1,85.83,89.11Z"/><path class="cls-4" d="M72.18,82a10,10,0,0,1-3.05.28,12.88,12.88,0,0,0-3.65.57c-.69.23-1.16-.87-.5-1.19A15.47,15.47,0,0,1,66.64,81,55,55,0,0,1,72.18,82Z"/><path class="cls-5" d="M53.62,81.36c5.66-1.21,10.9-.26,16.29,1.35a30.41,30.41,0,0,1,6.84,2.72c2.31,1.38,5,5.1,6.12,7.57,1.55,3.48.07,9.1-2.51,11.83s-6.32,3.74-9.68,4.78c-6.72,2.07-12.62,2.51-19.31-.07-3.48-1.35-7.08-2.45-9.71-5.28C37.72,100,36.62,94,40.21,89,43.38,84.69,48.5,82.44,53.62,81.36Z"/><path class="cls-6" d="M57.62,81.86c5-.69,11.21,1.28,15.87,3,2.58,1,4.29,2.92,6.23,4.76,3.89,3.68,4,8.79,1,13-3.4,4.8-8.89,6.25-14.45,7.29s-12.49-.28-17.68-2.5S37.21,100,39.13,93.59c1-3.35,2.55-6.16,5.69-7.93A36,36,0,0,1,57.62,81.86Z"/><path class="cls-7" d="M51.11,84.16a28.08,28.08,0,0,1,16.29.11,29.61,29.61,0,0,1,7,2.57c3,1.75,6.7,5.91,7.1,9.47.32,2.82-1.31,5.83-3.32,7.7a16.59,16.59,0,0,1-9.73,4c-3.63.25-7.26,1.34-10.91.72a40.31,40.31,0,0,1-9.92-3.24,24.23,24.23,0,0,1-4.42-3.24,11.8,11.8,0,0,1-3.23-4.34c-.72-2.58.35-5.7,1.71-7.9s3.68-3.21,6-4.4A23.61,23.61,0,0,1,51.11,84.16Z"/><path class="cls-8" d="M66.84,91.42a8.87,8.87,0,0,0,2.5,4,1.41,1.41,0,0,0,2.34-1.36c-.42-1.73-2.09-2.43-3.23-3.6a1,1,0,0,0-1.61.94Z"/><path class="cls-8" d="M69.88,97.68c-1.82,1.24-4.34,2.64-3.95,5.21a1.7,1.7,0,0,0,2.48,1,6.18,6.18,0,0,0,1.87-2.54,11.24,11.24,0,0,0,1.06-2.56c.19-.79-.7-1.64-1.46-1.12Z"/><path class="cls-8" d="M61.48,90.24a6.78,6.78,0,0,0-.09,1.8c.06.6.15,1.2.26,1.8.18,1,.92,2.6,2.22,2.25,2.34-.65-.38-5.12-1-6.23-.4-.73-1.33-.31-1.41.38Z"/><path class="cls-8" d="M56.91,88.65c-1,1.46-2.06,3.91-1.08,5.55a1.53,1.53,0,0,0,2.61,0A5.8,5.8,0,0,0,59,91.56a6.68,6.68,0,0,0-.22-2.67,1,1,0,0,0-1.83-.24Z"/><path class="cls-8" d="M50.08,91.47a4.43,4.43,0,0,1,.58.65c.1.12.22.22.33.33s.33.38.17.17c.48.63.76,1.42,1.51,1.81a1.47,1.47,0,0,0,2.15-.88c.33-1.31-.55-2.34-1.52-3.07a4.33,4.33,0,0,0-2.44-.87,1.1,1.1,0,0,0-.78,1.86Z"/><path class="cls-5" d="M53.18,89.1a13.64,13.64,0,0,1,15.87,12A23.44,23.44,0,0,1,67.51,112a23.78,23.78,0,0,1-7.8,10.71c-4,3-11.8,3.91-15.59,0-2.23-2.33-4.94-6.37-5.2-9.68a29.77,29.77,0,0,1,3.3-16.51A15.89,15.89,0,0,1,53.18,89.1Z"/><path class="cls-6" d="M60.39,90.32c9.3,3.79,9.69,14,6.42,22.14-1.56,3.88-4,7.69-7.68,9.81-6.12,3.53-13.39,3.78-17.39-3.07-3.29-5.62-2.91-13.43-.58-19.32C44.12,92.35,52.4,87.06,60.39,90.32Z"/><path class="cls-7" d="M56.87,90.45a11.68,11.68,0,0,1,4.65,1.68,15.17,15.17,0,0,1,5.7,9.32c1.23,6.21-2.72,15.63-7.62,19.59A12.61,12.61,0,0,1,53,123.55a13.37,13.37,0,0,1-9.08-2.85c-4.72-3.84-3.15-12.85-1.49-17.76C44.69,96.33,48.8,89.25,56.87,90.45Z"/><path class="cls-2" d="M48.34,102.71c-.19.64-.41,1.27-.65,1.9A30.21,30.21,0,0,1,42.57,113l-.12.14c-.35.41-.74.83-1.16,1.26a35.16,35.16,0,0,1-5.78,4.85,22.81,22.81,0,0,1-2.15,1.27,15.18,15.18,0,0,1-3.47,1.32c-3.39.75-10.58-.07-12.9-2.59-7.26-7.88-3.5-19.71,2.75-26.94,5.4-6.24,15.66-8.32,23-4.49a15.57,15.57,0,0,1,1.42.84c.27.18.52.37.76.56a10.73,10.73,0,0,1,3.47,4.54,11.18,11.18,0,0,1,.53,1.88A15.19,15.19,0,0,1,48.34,102.71Z"/><path class="cls-4" d="M44.87,89.22l-2.08.23a11.9,11.9,0,0,1-4.29.06.2.2,0,0,1,0-.37,9.89,9.89,0,0,1,4.24-1.32,15.57,15.57,0,0,1,1.42.84C44.38,88.84,44.63,89,44.87,89.22Z"/><path class="cls-4" d="M48.87,95.64c-.28,0-.55,0-.8,0a14.88,14.88,0,0,1-4.8-.28.21.21,0,0,1-.05-.38,13.14,13.14,0,0,1,4.85-1.18l.27,0A11.18,11.18,0,0,1,48.87,95.64Z"/><path class="cls-4" d="M48.34,102.71c-.19.64-.41,1.27-.65,1.9-.56,0-1.11,0-1.66,0a18.73,18.73,0,0,1-5.24-.38.27.27,0,0,1-.06-.49,13.44,13.44,0,0,1,5.73-1C47,102.74,47.67,102.71,48.34,102.71Z"/><path class="cls-4" d="M42.45,113.14c-.35.41-.74.83-1.16,1.26l-1.84-.4a10.31,10.31,0,0,1-3.32-1.1.25.25,0,0,1,.06-.46A10,10,0,0,1,42.45,113.14Z"/><path class="cls-4" d="M35.51,119.25a22.81,22.81,0,0,1-2.15,1.27l-.6-.17c-.94-.26-1.9-.5-2.83-.83-.61-.22-1.26-.42-1.54-1a.23.23,0,0,1,.07-.29c1.13-.86,3.55.18,4.77.48C34,118.86,34.75,119,35.51,119.25Z"/><path class="cls-5" d="M36.11,86.8a15.45,15.45,0,0,1,8.3,6c4.16,6.4-1.82,15.45-5.95,20.36a34.42,34.42,0,0,1-5.16,5.15c-5.35,4.18-15.68,4.24-18.9-2.57C8.19,102.58,20.44,81.85,36.11,86.8Z"/><path class="cls-6" d="M38.71,111.94c-3.14,4.28-7.22,8.23-12.08,8.69-3.57.34-7.76,0-10.53-2.36-2.53-2.16-3.87-7.78-3.51-11,.84-7.58,5.53-15.59,12.67-19a15.19,15.19,0,0,1,13.81.47c7.08,4,7.3,10.5,3.54,17.06A64.39,64.39,0,0,1,38.71,111.94Z"/><path class="cls-7" d="M28.12,88.34c-2.45.53-4.49,2.2-6.61,3.57a13.86,13.86,0,0,0-4.92,5.81c-1.07,2.15-2.49,4.22-2.93,6.6-1.1,6-.32,11.08,4.93,14.57,3.58,2.38,7.93,1.55,11.38-.69a34.41,34.41,0,0,0,10.91-11.72,20.3,20.3,0,0,0,2.61-7.69,8.18,8.18,0,0,0-2-6.65C38.05,87.83,33.24,87.25,28.12,88.34Z"/><path class="cls-8" d="M26.73,93.53a4.81,4.81,0,0,0,1.47,1.14,8.33,8.33,0,0,0,2.06.94c1.29.32,2.74-1.18,1.85-2.42a3.73,3.73,0,0,0-5.26-.63.8.8,0,0,0-.12,1Z"/><path class="cls-8" d="M33.57,95.83c-.13,1.09.73,2,1.38,2.76s1.81,1.91,2.86,1.31c1.26-.72-.05-2.3-.64-3a7.06,7.06,0,0,0-2.44-2c-.61-.24-1.09.36-1.16.88Z"/><path class="cls-8" d="M30.79,98.13c-.36,1,.2,2.31.43,3.26a4.19,4.19,0,0,0,2.31,3.12,1.41,1.41,0,0,0,1.78-1.36A10.26,10.26,0,0,0,34,99.59c-.5-1-1.38-2.18-2.64-2a.74.74,0,0,0-.52.51Z"/><path class="cls-8" d="M24.12,97.68c1.45.48,3,0,4.41.5,1.88.68,2.77-2.43.83-3s-3.83.41-5.39,1.41a.61.61,0,0,0,.15,1.1Z"/><path class="cls-8" d="M28.29,99.61a3.76,3.76,0,0,0-4.28.13,1,1,0,0,0,.42,1.61,4.31,4.31,0,0,0,2,0,3.77,3.77,0,0,0,1.84-.61.66.66,0,0,0,0-1.12Z"/><path class="cls-8" d="M29.3,102.58a2.31,2.31,0,0,0-.61,1.6,4.41,4.41,0,0,0,.31,2.19.91.91,0,0,0,1.65-.21,6.57,6.57,0,0,0,0-2,2.4,2.4,0,0,0-.62-1.6.53.53,0,0,0-.72,0Z"/><path class="cls-8" d="M24.43,103a7.51,7.51,0,0,1-1.61-.43c-.66-.28-1.3-.64-2-.21a1.07,1.07,0,0,0-.37,1.41c.32.75,1.28.82,2,.79a5.27,5.27,0,0,0,2.1-.51.58.58,0,0,0-.14-1Z"/><path class="cls-8" d="M24.3,105.73a2.92,2.92,0,0,0,.08,2.28,3.41,3.41,0,0,0,1.5,2.08.88.88,0,0,0,1.29-.74,3.67,3.67,0,0,0-.63-2,7.2,7.2,0,0,0-.88-1.78.87.87,0,0,0-1.36.17Z"/><path class="cls-8" d="M21.67,107.4c-.91.76-1.42,2.44-.32,3.25a.91.91,0,0,0,.93,0c1-.71.5-1.79.49-2.79a.65.65,0,0,0-1.1-.46Z"/><path class="cls-8" d="M53.22,96.2a12.18,12.18,0,0,0-2.89.17,1.23,1.23,0,0,0,.32,2.41A6.43,6.43,0,0,0,53.71,98c.95-.46.38-1.75-.49-1.81Z"/><path class="cls-8" d="M55.85,97.88a3.63,3.63,0,0,0,1.76,1.94,15.54,15.54,0,0,0,2.64,1.33,1.49,1.49,0,0,0,1.44-2.47,8.1,8.1,0,0,0-2.28-1.18,14.5,14.5,0,0,0-2.23-1,1.09,1.09,0,0,0-1.33,1.33Z"/><path class="cls-8" d="M53.64,100.27c-.34-.15-.64-.32-1-.44A3.24,3.24,0,0,0,51,100a2.73,2.73,0,0,0-2.1,2.25,1.29,1.29,0,0,0,1.94,1.11c.5-.37.82-.76,1.31-1.06a7.68,7.68,0,0,1,.74-.41c.27-.13.47-.42.73-.55a.6.6,0,0,0,0-1Z"/><path class="cls-8" d="M55.11,102c-.37,1.12.64,2.24,1.45,2.87s2.12,1.28,3,.64a.79.79,0,0,0,.35-.88c-.2-.75-1.07-1.2-1.7-1.55a4.18,4.18,0,0,1-.86-.64c-.27-.26-.41-.62-.7-.85a1,1,0,0,0-1.55.41Z"/><path class="cls-8" d="M53.16,104c-.81-.32-2.08.26-2.8.61s-1.83,1-1.6,1.88c.44,1.59,4.18.08,4.9-.62a1.13,1.13,0,0,0-.5-1.87Z"/><path class="cls-8" d="M55.06,106.36a2.32,2.32,0,0,0-.16,2.39,1,1,0,0,0,1.78,0,2.32,2.32,0,0,0-.16-2.39.85.85,0,0,0-1.46,0Z"/><path class="cls-8" d="M51.74,108.22a3,3,0,0,0-2.89-.1c-1.09.36-2.21.86-2.35,2.13a1.4,1.4,0,0,0,1,1.35c.91.26,1.7-.41,2.45-.84s1.52-.65,1.93-1.31a1,1,0,0,0-.16-1.23Z"/><path class="cls-8" d="M53.45,110.74c-1.26,1.16-.65,4,1,4.42a1.24,1.24,0,0,0,1.49-.85,2.33,2.33,0,0,0-.42-2.09,5,5,0,0,0-1.23-1.59.71.71,0,0,0-.85.11Z"/><path class="cls-8" d="M50.34,113.64a3,3,0,0,0-.63,1.17,2.09,2.09,0,0,0,0,1.73,1,1,0,0,0,1.57.2,1.71,1.71,0,0,0,.49-1.51,5,5,0,0,0-.2-1.27.75.75,0,0,0-1.25-.32Z"/></svg>