<svg id="पत्_थर" data-name="पत्‍थर" xmlns="http://www.w3.org/2000/svg" viewBox="0 0 150 160"><defs><style>.cls-1{fill:#fff;stroke:#fff;stroke-miterlimit:10;stroke-width:5px;}.cls-2{fill:#a5a9a5;}.cls-2,.cls-3,.cls-4,.cls-5,.cls-6,.cls-7,.cls-8{fill-rule:evenodd;}.cls-3{fill:#8d8c85;}.cls-4{fill:#9c9c95;}.cls-5{fill:#81807b;}.cls-6{fill:#62615a;}.cls-7{fill:#43423c;}.cls-8{fill:#54534f;}.cls-9{fill:#c2c3bc;}</style></defs><path class="cls-1" d="M134.8,89.72a2.55,2.55,0,0,0-.34-.73l-3.72-8.15L118.33,65.72c-2.71-4-5.19-8.14-8.12-12a40.68,40.68,0,0,0-4.09-4h0A6.3,6.3,0,0,0,103.29,48C94.61,45.36,86,42.17,77,41.15A138.31,138.31,0,0,0,46.85,41c-2.61.23-8.93,2.47-10.43,4.62C29.29,55.88,25.17,66.56,19,77.41c-.89,1.56-2.17,2.88-3,4.47-.58,1.09-.78,2.35-1.26,3.5-.26.61-.89,1.08-1,1.75-.25,1.86-.46,2.37.08,4.17a25.67,25.67,0,0,0,2.63,4.81c4.4,3.21,8.65,6.63,13.18,9.64A53.17,53.17,0,0,0,37.32,110a57.81,57.81,0,0,0,6.07,1.92c4.16,1.65,6.55,3.33,7.33,3.55a11.45,11.45,0,0,0,1.79.66c1.42,0,2.85-.14,4.26,0,.94.09,1.81.78,2.75.69s1.93-1.21,3-1.24c3.31-.11,6.6.55,9.89.82a12.75,12.75,0,0,0,6.15-2.1h0a4.56,4.56,0,0,0-.15,2.86c.29.71,1.42.57,2.12.87a7.62,7.62,0,0,0,2,.93c1.42.17,2.86-.25,4.28-.17.82,0,1.58.61,2.39.55,1.83-.16,3.55-1,5.37-1.2a10.94,10.94,0,0,1,2.77.38c1.11.18,2.2.47,3.31.6,1.79.2,3.58.26,5.38.38,1.59.1,3.18.28,4.77.27s3.15-.23,4.72-.34l0,0a16.1,16.1,0,0,0,4.8-.12c6.67-1.11,9.06-3.4,10.49-5.59.68-.47,1.43-1.35.17-3.34a25.3,25.3,0,0,0-1.9-2.53,2.67,2.67,0,0,0,3.59-.29,14.57,14.57,0,0,0,3.08-3.7,5.63,5.63,0,0,0,.71-3.08A67,67,0,0,0,134.8,89.72Z"/><path class="cls-2" d="M86.63,69.7c.09.5,3.62,7.64,3.62,7.64s17.22,12.85,18.14,13.11,5.54,1.84,5.54,1.84l-.08-10.6-7.14-10.23L95.37,65.75Z"/><path class="cls-3" d="M94.76,65.14c-1.39.12-1.26,3.23.2,5.43a15.67,15.67,0,0,0,3.53,3.31,73.91,73.91,0,0,1,5.74,4.7c1.55,1.54,3.82,2.13,6.37,2.61l24.2,8.53-4.06-8.88L118.33,65.72c-2.71-4-5.19-8.14-8.12-12a40.68,40.68,0,0,0-4.09-4c-2.86-2.08-7.14-.57-10.92.39C94.94,55.6,95,59.68,94.76,65.14Z"/><path class="cls-4" d="M16.49,96.11a25.67,25.67,0,0,1-2.63-4.81c-.54-1.8-.33-2.31-.08-4.17.08-.67.71-1.14,1-1.75.48-1.15.68-2.41,1.26-3.5.85-1.59,2.13-2.91,3-4.47,6.14-10.85,10.26-21.53,17.39-31.76,1.5-2.15,7.82-4.39,10.43-4.62a138.31,138.31,0,0,1,30.1.12c9,1,17.66,4.21,26.34,6.81a5.79,5.79,0,0,1,2.92,1.94c-.57-.43-1.45-.85-2.12.14-1,2.62-1.69,5.2-3,7.34-1.1,2.54-2,5.27-3.79,7.39-2.25,2.68-5.72,4.37-8.52,6.47-4.2,3.15-7.88,6.72-12.48,9.28-7.41,4.11-14.91,8.32-23,10.92-9.61,3.11-19.67,4.81-29.7,6.09A13,13,0,0,1,16.49,96.11Z"/><path class="cls-5" d="M43.58,86.84c-4.51.55-9.34,2.61-14.35,5.5a39.35,39.35,0,0,1-12.74,3.77c4.4,3.21,8.65,6.63,13.18,9.64A53.17,53.17,0,0,0,37.32,110a57.81,57.81,0,0,0,6.07,1.92l7-1.5q3.41-10.86,6.82-21.71l-2.37-3.08Z"/><path class="cls-3" d="M43.58,86.84c4.62-2.49,9.18-5.09,13.87-7.45,7-3.5,10.8-3.25,13.79-2.28L57.73,89.81a11.65,11.65,0,0,0-2.68-1.25c-1.17-.22-2.41.33-3.58.08s-1.86-1.22-2.93-1.47A31.56,31.56,0,0,0,43.58,86.84Z"/><path class="cls-6" d="M58.47,87.06c-1.14.5-2.47.69-3.42,1.5a6.89,6.89,0,0,0-1.76,2.88c-.41,3.75-2,7.81-3.76,11.79a20.2,20.2,0,0,1-6.14,8.65c4.5,1.79,7,3.62,7.51,3.59C53.45,106,55.93,96.52,58.47,87.06Z"/><path class="cls-5" d="M52.51,116.09c-1.81-.53-3-1.13-2.73-1.76,1.66-11.89,3.78-21.75,8.69-27.27,2.77-3.12,6.74-5.15,9.81-8a20.13,20.13,0,0,1,8.35-4c5.31-1,8.24-1.68,12.12-3.87.3-.17.69.68,1.45,1.5a11.88,11.88,0,0,0,5.68,3.15c3.51,1.19,6.61,2.82,8.58,5.68a43,43,0,0,0,7.65,8.89c.65,2.17,1.31,4.34,2,6.51l-33.18,14Z"/><path class="cls-6" d="M113.59,95.36c-1.88-3.76-3.87-7.46-5.64-11.27-.26-.57-.68-1.26-.44-1.85s1-.84,1.68-1a2.92,2.92,0,0,1,1.41,0c2.17.29,4.34.7,6.51,1,7.54,1.25,13.34,2.87,16.19,5.46a4.43,4.43,0,0,1,1.5,2,67,67,0,0,1,1.67,11,5.63,5.63,0,0,1-.71,3.08,14.57,14.57,0,0,1-3.08,3.7,2.7,2.7,0,0,1-4,0Z"/><path class="cls-7" d="M93.45,92.46A57.07,57.07,0,0,0,78,96.72c-2.93.66-6.55,3.39-10,5.63-2.2,2.57-5,4.93-7.23,7.5-3.5,3.41-5.72,5.31-8.3,6.24,1.42,0,2.85-.14,4.26,0,.94.09,1.81.78,2.75.69s1.93-1.21,3-1.24c3.31-.11,6.6.55,9.89.82a12.75,12.75,0,0,0,6.15-2.1l14.19-13.15C93,98.23,93.22,95.34,93.45,92.46Z"/><path class="cls-4" d="M80.6,108.55A19.08,19.08,0,0,1,86,99.69,41.83,41.83,0,0,1,96,88.93a20.89,20.89,0,0,1,4.12-2.64,5.49,5.49,0,0,1,3.48-.45c.76.27,2.11,1.86,4.49,3.22a13.21,13.21,0,0,1,4.4,3.82l-7.92,13.32-6.77,6.38-9.53,1.35Z"/><path class="cls-7" d="M93.42,110.54a9,9,0,0,1-2.23.87,13.92,13.92,0,0,1-4.51-.18c-.83-.18-1.37-1-2.17-1.32a32.31,32.31,0,0,0-3.91-1.36c1.47,1.74,3.29,4.13,4.75,5.87l7.34.78,3.38-1.55Z"/><path class="cls-5" d="M102,101.3a17.39,17.39,0,0,1-7.24,8.3l-1.32.94q.57.6.66,3.87l12.82,2.42,1.89-4.31Z"/><path class="cls-3" d="M112.48,92.88A9.48,9.48,0,0,0,106.61,96L102,101.3c.29,1.81.54,3.43.75,4.93,2.2,4.45,3.53,8.18,2.94,10.31l7.74,1.79,10-3.48q1.5-5.14,3-10.28a22.54,22.54,0,0,0-7.24-7.24C116.54,96.32,114.1,95.05,112.48,92.88Z"/><path class="cls-8" d="M126.44,104.57a14.05,14.05,0,0,0-5.16,9.13l4.3,2.29c1.41-.07,2.58.4,5.24-2.33.68-.47,1.43-1.35.17-3.34C129.85,108.51,128.1,106.72,126.44,104.57Z"/><path class="cls-8" d="M80.6,108.55a53.45,53.45,0,0,0-1.84,5c-.29,1.14-.77,2.43-.33,3.52.29.71,1.42.57,2.12.87a7.62,7.62,0,0,0,2,.93c1.42.17,2.86-.25,4.28-.17.82,0,1.58.61,2.39.55,1.83-.16,3.55-1,5.37-1.2a10.94,10.94,0,0,1,2.77.38c1.11.18,2.2.47,3.31.6,1.79.2,3.58.26,5.38.38,1.59.1,3.18.28,4.77.27s3.15-.23,4.72-.34c-.82-.55-1.61-1.17-2.47-1.66a22.63,22.63,0,0,0-4.2-2.18c-1-.31-2,.07-3-.16s-1.53-.94-2.39-1.09c-2.72-.46-5.5-.51-8.25-.7-1.88-.14-3.86.34-5.64-.27C86.36,112.22,83.59,110.14,80.6,108.55Z"/><path class="cls-7" d="M130.82,113.66a8.78,8.78,0,0,1-2.16,1,9.12,9.12,0,0,1-3.12-.19c-1-.19-1.76-.93-2.73-1a6.54,6.54,0,0,0-3,.93c-2.38,1.06-4.51,2.12-6.78,3.39a2.42,2.42,0,0,0,2,1.59,16.14,16.14,0,0,0,5.28-.07C127,118.14,129.39,115.85,130.82,113.66Z"/><path class="cls-9" d="M103,53.13l-2.4,6.72a13.87,13.87,0,0,1-3.19,5.6c-.53.56-2,1.54-2.27,2.24-.47,1.37,1.85,4.24,2.77,5.1a27.63,27.63,0,0,0,4.1,3.55,24.73,24.73,0,0,1-4-2.52,38.51,38.51,0,0,1-4.52-4.69,10.13,10.13,0,0,1-3.35,2c1.68,2.87,5,4.31,8.06,5.57-3.39-.83-7-1.78-9.32-4.38a29.59,29.59,0,0,1-8.36,2.3c3.41-1,6.47-2,9.42-4a31.56,31.56,0,0,0,2.59-2A30.36,30.36,0,0,0,99,61.51a36,36,0,0,0,2.28-4.87C101.78,55.52,102.58,54.25,103,53.13Z"/><path class="cls-9" d="M67.25,78.73a67.16,67.16,0,0,0-6.93,5.91A29.65,29.65,0,0,0,57,88.12c-2.82,3.63-3.83,8.3-4.76,12.79a65.33,65.33,0,0,1,3.43-8.77,24,24,0,0,1,5.61-7.49c.53-.46,1.09-.88,1.64-1.31,2.31-1.76,4.82-3.26,7.12-5a13.45,13.45,0,0,1,3.2-1.76A16.5,16.5,0,0,1,77,75.07,21.63,21.63,0,0,0,67.25,78.73Z"/><path class="cls-9" d="M61.11,77.7A44,44,0,0,0,52,81.55L47.3,83.94c-.6.31-1.2.62-1.79,1a21.88,21.88,0,0,1-2.69,1.46c-.68.27-1.39.44-2.09.64a26.65,26.65,0,0,0-5.61,2.22,45.46,45.46,0,0,0,11.54-3.56c.91-.47,1.78-1,2.66-1.51C53.24,81.84,57,79.71,61.11,77.7Z"/><path class="cls-9" d="M51.41,99.27c-.3.56-.61,1.1-.86,1.63.8-2.71,1.56-5.41,2.29-8.12.48-1.76,1-3.8,2.5-4.9a7.61,7.61,0,0,1,3.29-1.27c-.49.25-.67.84-1,1.29a.52.52,0,0,1-.18.18.83.83,0,0,1-.32.07c-2.37.24-3.27,2.88-3.81,4.82-.32,1.27-.57,2.54-.86,3.81A9.87,9.87,0,0,1,51.41,99.27Z"/><path class="cls-9" d="M69.83,77.32c-1.28-.09-2.51-.17-3.8-.15l-2,.07a6.08,6.08,0,0,0-1.87.12,11.7,11.7,0,0,1,4.66-1,22.5,22.5,0,0,1,3,0c.34,0,1.92.42,2.14.25l-1.38,1.07C70.53,77.47,70.13,77.35,69.83,77.32Z"/><path class="cls-9" d="M49,87a3.09,3.09,0,0,0-2.1,0,8.51,8.51,0,0,1,2.95,1.24,3.48,3.48,0,0,0,1.92.73c.91,0,1.83-.05,2.75,0a1.12,1.12,0,0,0,.41,0,1.3,1.3,0,0,0,.26-.14l.87-.57a14.18,14.18,0,0,1-4.55,0A12.9,12.9,0,0,1,49,87Z"/><path class="cls-9" d="M90.12,93.9c-3.64,4-7.38,8.13-9,13.27,4.43-7.77,11-14.08,17.58-20.11a57,57,0,0,0-7.46,5.27A61.64,61.64,0,0,0,75.9,97.07,20,20,0,0,0,68.75,102a85.29,85.29,0,0,1,10.16-5.31A29.29,29.29,0,0,1,90.12,93.9Z"/><path class="cls-9" d="M111.61,91.41q-1.94-3.94-3.6-8a1.14,1.14,0,0,1-.13-.74,1.13,1.13,0,0,1,.7-.65,14.58,14.58,0,0,1,2-.81c-1.06-.21-2.44-.26-3,.66s-.08,2.07.41,3C109.17,87.21,110.28,89.13,111.61,91.41Z"/><path class="cls-9" d="M112.87,93.06a.63.63,0,0,0-.54-.56,1.69,1.69,0,0,0-.83.11,12.14,12.14,0,0,0-5.88,3.94,15.66,15.66,0,0,0-1.29,2,22.93,22.93,0,0,1,3.88-3.48,8.22,8.22,0,0,1,2-1.1A24,24,0,0,0,112.87,93.06Z"/><path class="cls-9" d="M110.18,91.15l-4.34-2.51a14.36,14.36,0,0,1-1.24-.78c-.33-.24-.63-.51-1-.72a7.09,7.09,0,0,0-4.31-.58,7,7,0,0,1,3.06-1.16c2.31-.05,4.24,1.66,5.9,3.26L111,91.28A.78.78,0,0,1,110.18,91.15Z"/></svg>