<svg id="भेड़िया" xmlns="http://www.w3.org/2000/svg" viewBox="0 0 150 160"><defs><style>.cls-1,.cls-2{fill:#fff;stroke:#fff;stroke-miterlimit:10;}.cls-1{stroke-width:0.25px;}.cls-2{stroke-width:5px;}.cls-3{fill:#a6a6a6;}.cls-4{fill:#b2b2b2;}.cls-5{fill:#9d9d9d;}.cls-6{fill:#e2e1e1;}.cls-7{fill:#616160;}</style></defs><path class="cls-1" d="M135.73,91.67s8.83,7.5,10.3,4.44c.13-.28-4.63,6-9.12,3.75-1-.51-6.14-1.56-6.31-2.08C130.05,96.13,135.73,91.67,135.73,91.67Z"/><path class="cls-2" d="M139.28,96.91c-5-.83-10.45-8.85-10-22.09.56-16.06-10.58-16.76-14.86-14.84-5.37-6.36-15.68-5.27-22.62-4-9.08,1.6-20.21,1.24-31.91-1.73-1.87-.48-5.39-1.44-8.82-2.52,1-5.08-.91-16-1.85-19.12-1-3.46-3.68-1.84-4.38-.36a30.31,30.31,0,0,1-5.63,8,17.81,17.81,0,0,0-4.76-.67A23.24,23.24,0,0,0,29,40a30.26,30.26,0,0,1-5.42-7.84c-.7-1.48-3.35-3.1-4.38.36s-3.09,15.26-1.66,19.9c-1.21,1.77-2.3,3.3-3,4.24-3.67,4.63-3.2,6.15-3.11,7a8,8,0,0,1,1.8-2.3,4.3,4.3,0,0,0,.08,2.05,7.13,7.13,0,0,1,1.23-1.23s6.15,6.88,12.93,9.62c.27,2.6,3.2,4.64,6.77,4.64A8.69,8.69,0,0,0,36,76.27,31.53,31.53,0,0,0,39,81c.33.44.7.85,1.07,1.27,3,11.19,11.71,20.16,8.06,39.21-.22,1.16-3.57,1.34-4.32,3.87h8.94c1.46-4.07,2.26-19.12,2.09-29.85,4.4,11.78,4.79,27.76,4.79,27.76s-3.57,1.34-4.32,3.87h8.94c1.69-4.69,1.13-24.21.07-34.72a64,64,0,0,0,7,.3A113.1,113.1,0,0,0,86,91.47,76.61,76.61,0,0,0,95.4,101c5.43,4.91,4.47,6,4.72,9.78S100,120.39,100,121a4,4,0,0,0-3.47,3.38h7c.83,0,1.41-1.89,1.57-4.7s-.08-13-.16-15.27-.58-2.56-1.74-4.12-4.78-5.53-4.29-9.58c.06-.45.13-.92.21-1.4,2.77,5.56,8.46,10.53,12.2,13.92,5.43,4.91,4.48,6,4.73,9.78s-.17,9.57-.17,10.15a4,4,0,0,0-3.46,3.38h7c.83,0,1.4-1.9,1.57-4.7s-.08-13-.17-15.27-.57-2.56-1.73-4.12-4.79-5.53-4.29-9.58,2.06-8.81.58-13.51a11.58,11.58,0,0,0,2.6-7.11,23.84,23.84,0,0,0-.95-7.38c3.46-1.53,4.09,2.93,3.83,10.44C120.15,95.13,121.4,93.94,139.28,96.91Z"/><path class="cls-3" d="M81.69,79.31C80.39,87.85,90,96.12,95.4,101s4.47,6,4.72,9.78S100,120.39,100,121a4,4,0,0,0-3.47,3.38h7c.83,0,1.41-1.89,1.57-4.7s-.08-13-.16-15.27-.58-2.56-1.74-4.12-4.78-5.53-4.29-9.58,2.07-8.83.58-13.53"/><path class="cls-3" d="M54,85.29c1.48,6.11.75,34.22-1.33,40H43.77c.75-2.53,4.1-2.71,4.32-3.87,4-20.8-6.73-29.58-8.74-42.37C44,78.11,54,85.29,54,85.29Z"/><path class="cls-4" d="M59.89,54.2c11.7,3,22.83,3.33,31.91,1.73,9.81-1.73,26.38-3.2,26.16,16.29C117.78,88.08,86.11,92.5,71.3,92.67,59.18,92.81,45.47,89.53,39,81a33.92,33.92,0,0,1-6.37-15.48C30.76,53.87,39.47,47.84,49,51,53,52.35,57.64,53.62,59.89,54.2Z"/><path class="cls-4" d="M113.08,60.9c2.28-2.74,16.83-4.38,16.2,13.92-.45,13.24,4.34,22.82,9.36,23.51-13.92-2.29-18.49-3.2-17.8-23,.27-8-.46-12.55-4.57-10"/><path class="cls-4" d="M97.58,81.47c-1.29,8.54,8.28,16.81,13.71,21.73s4.48,6,4.73,9.78-.17,9.57-.17,10.15a4,4,0,0,0-3.46,3.38h7c.83,0,1.4-1.9,1.57-4.7s-.08-13-.17-15.27-.57-2.56-1.73-4.12-4.79-5.53-4.29-9.58,2.06-8.83.58-13.53"/><path class="cls-4" d="M63.47,86.73c1.49,6.11,2.83,34.56.74,40.36H55.27c.75-2.53,4.32-3.87,4.32-3.87S59,98.8,51,88.07C55,85.1,63.47,86.73,63.47,86.73Z"/><path class="cls-4" d="M39.06,40.41a30.31,30.31,0,0,0,5.78-8.21c.7-1.48,3.35-3.1,4.38.36s3.28,16.36,1.46,20.49c-2.19-1-4.74-7.9-7.12-9.42S39.06,40.41,39.06,40.41Z"/><path class="cls-5" d="M47.81,34.08a8.1,8.1,0,0,1-1,2.43,8.68,8.68,0,0,0-.06-2.79,6.94,6.94,0,0,1-2,3.1,5.77,5.77,0,0,0,.67-2.07,31.54,31.54,0,0,1-5.17,6.45c.84.63,2.11,1.56,3.47,2.43,1.86,1.19,3.84,5.69,5.67,8.06C51.53,46.32,48.84,36.13,47.81,34.08Z"/><path class="cls-4" d="M29.39,40.41a30.52,30.52,0,0,1-5.77-8.21c-.7-1.48-3.35-3.1-4.38.36S16,48.92,17.78,53.05c2.19-1,4.74-7.9,7.11-9.42S29.39,40.41,29.39,40.41Z"/><path class="cls-5" d="M20.64,34.08a8,8,0,0,0,1,2.43,8.38,8.38,0,0,1,.06-2.79,7,7,0,0,0,2,3.1,5.77,5.77,0,0,1-.67-2.07,31.6,31.6,0,0,0,5.18,6.45c-.84.63-2.11,1.56-3.47,2.43-1.87,1.19-3.84,5.69-5.67,8.06C16.93,46.32,19.62,36.13,20.64,34.08Z"/><path class="cls-4" d="M14.54,56.7c-3.67,4.63-3.2,6.15-3.11,7a8,8,0,0,1,1.8-2.3,4.3,4.3,0,0,0,.08,2.05,7.13,7.13,0,0,1,1.23-1.23s7.46,8.36,15,10.33,20.82-6.8,24.67-10.08a1.82,1.82,0,0,1,.24,1.88s1.48-1.88,1-3.11a4.81,4.81,0,0,1,1.72,3.52,16.21,16.21,0,0,0-3.36-8.6c-3.2-4-6.31-10.49-9-13a15.75,15.75,0,0,0-10.32-3.6c-3.61,0-8.28.08-11.14,4.34S16.42,54.33,14.54,56.7Z"/><path class="cls-6" d="M26.13,52.78c5.22,0,7.7,5.06,5.36,9.51a46.54,46.54,0,0,0-2.41,4.83s5.21-3.47,10.26,0c-3-4.23-3-6.79-3.09-8.68s1.66-5.13,6.79-5.13S52.25,58.06,53,60c.76,1.21-1,4.46-13.36,10C29.3,74.67,20.7,66.74,15.72,61.31c-.6-1,0-1.49.6-2.26C17.91,56.93,21.76,52.78,26.13,52.78Z"/><path class="cls-7" d="M45.3,57.08c-1.81-.83-3.62.38-4,2.49C44.1,59.8,44.85,58.44,45.3,57.08Z"/><path class="cls-7" d="M23.42,57.08c1.81-.83,3.62.38,4,2.49C24.63,59.8,23.87,58.44,23.42,57.08Z"/><ellipse class="cls-6" cx="34.24" cy="71.42" rx="6.79" ry="5.03"/><path class="cls-7" d="M38,70.78c0,.71-2.57,2.57-3.77,2.57s-3.77-1.86-3.77-2.57,1.69-1.29,3.77-1.29S38,70.06,38,70.78Z"/></svg>