<svg id="दस" xmlns="http://www.w3.org/2000/svg" viewBox="0 0 150 160"><defs><style>.cls-1,.cls-3{fill:#dd7155;}.cls-1{stroke:#fff;stroke-miterlimit:10;stroke-width:5px;}.cls-2{fill:#732c19;}</style></defs><path class="cls-1" d="M134.07,62a36.32,36.32,0,0,0-10-13,33,33,0,0,0-8-7.17,34.71,34.71,0,0,0-18.92-5.24,34.67,34.67,0,0,0-18.91,5.24,35.19,35.19,0,0,0-13,15.2q-4.69,9.95-4.7,23.74t4.7,23.73a36.3,36.3,0,0,0,10,13,33,33,0,0,0,8,7.17,34.6,34.6,0,0,0,18.91,5.25,34.63,34.63,0,0,0,18.92-5.25,35.26,35.26,0,0,0,13-15.2q4.69-9.95,4.7-23.73T134.07,62Zm-24.65,39.48a14,14,0,0,1-12.27,6.72,13.8,13.8,0,0,1-7.28-1.94Q85.55,99.5,85.55,85.7q0-14,4.46-20.75a13.86,13.86,0,0,1,12.14-6.71,14.21,14.21,0,0,1,7.43,2q4.29,6.72,4.29,20.5Q113.87,94.73,109.42,101.44Z"/><polygon class="cls-1" points="48.09 37.98 11.23 37.98 11.23 53.85 16.23 53.85 16.23 58.85 28.32 58.85 28.32 123.41 33.32 123.41 33.32 128.41 53.09 128.41 53.09 42.98 48.09 42.98 48.09 37.98"/><path class="cls-2" d="M53.09,43v85.43H33.32V58.85H16.23V43Z"/><path class="cls-2" d="M83.24,124.63a35.13,35.13,0,0,1-13-15.2q-4.69-9.95-4.7-23.73T70.24,62a35.19,35.19,0,0,1,13-15.2,34.67,34.67,0,0,1,18.91-5.24,34.71,34.71,0,0,1,18.92,5.24,35.32,35.32,0,0,1,13,15.2q4.69,9.95,4.7,23.74t-4.7,23.73a35.26,35.26,0,0,1-13,15.2,34.63,34.63,0,0,1-18.92,5.25A34.6,34.6,0,0,1,83.24,124.63Zm31.18-18.19q4.45-6.7,4.45-20.74T114.42,65A14.45,14.45,0,0,0,90,65q-4.45,6.7-4.46,20.75T90,106.44a14.44,14.44,0,0,0,24.41,0Z"/><path class="cls-3" d="M48.09,38v85.43H28.32V53.85H11.23V38Z"/><path class="cls-3" d="M78.24,119.63a35.13,35.13,0,0,1-13-15.2q-4.69-9.95-4.7-23.73T65.24,57a35.19,35.19,0,0,1,13-15.2,34.67,34.67,0,0,1,18.91-5.24,34.71,34.71,0,0,1,18.92,5.24,35.32,35.32,0,0,1,13,15.2q4.69,9.95,4.7,23.74t-4.7,23.73a35.26,35.26,0,0,1-13,15.2,34.63,34.63,0,0,1-18.92,5.25A34.6,34.6,0,0,1,78.24,119.63Zm31.18-18.19q4.45-6.7,4.45-20.74T109.42,60A14.45,14.45,0,0,0,85,60q-4.45,6.7-4.46,20.75T85,101.44a14.44,14.44,0,0,0,24.41,0Z"/></svg>