<svg id="धोबी" xmlns="http://www.w3.org/2000/svg" xmlns:xlink="http://www.w3.org/1999/xlink" viewBox="0 0 150 160"><defs><style>.cls-1{fill:none;}.cls-2{fill:#fff;stroke:#fff;stroke-miterlimit:10;stroke-width:5px;}.cls-3{fill:#6e992b;}.cls-4{fill:#7ca836;}.cls-5{fill:#ab753a;}.cls-6{fill:#8c6030;}.cls-7{fill:#80c4e2;}.cls-8{fill:#9ccde2;}.cls-9{fill:#f5bc7b;}.cls-10{fill:#849c57;}.cls-11{fill:#e0a25c;}.cls-12{fill:#9e5e26;}.cls-13{fill:#fbab21;}.cls-14{fill:#d39129;}.cls-15{fill:#c72f2b;}.cls-16{fill:#e6e7e8;}.cls-17{fill:#cddae8;}.cls-18{fill:#b2bdc9;}.cls-19{fill:#ed8440;}.cls-20{fill:#f7dfaf;}.cls-21{fill:#b35a27;}.cls-22{fill:#f48842;}.cls-23{fill:#cbcbcc;}.cls-24{fill:#cf6015;}.cls-25{fill:#4b5b73;}.cls-26{fill:#f9f7d9;}.cls-27{clip-path:url(#clip-path);}.cls-28{fill:#a68766;}.cls-29{fill:#d58e29;}.cls-30{fill:#ae2826;}.cls-31{fill:#fbc05a;}.cls-32{fill:#471f0f;}.cls-33{fill:#ccdae8;}.cls-34{fill:#fa8256;}.cls-35{fill:#f9f4ae;}.cls-36{clip-path:url(#clip-path-2);}</style><clipPath id="clip-path"><path class="cls-1" d="M47,60.51c4.88-6.6,12.54-8.79,27.18-5C78.61,56.62,85,64.63,84.25,70.6c-1.2,9.36-.22,23.61-8.36,22C68,91,56,77.51,52.94,79.26c.25-5.35,3.63-6.31,3.39-6.31C51.52,73,40.66,69.07,47,60.51Z"/></clipPath><clipPath id="clip-path-2"><path class="cls-1" d="M68.43,62.81a3.74,3.74,0,0,0-4.54-.8c-2.73,1.71-3.82,6.41-4.23,10.86,3.49.17,7.73-1,10.41-1.85C70.28,67.59,69.9,64.5,68.43,62.81Z"/></clipPath></defs><path class="cls-2" d="M140,51.56c-9.93-12.12-30.24-.37-41.74,4.43,1.67-3.58,4-3.62,7.41-4.26,3.33-2.51,9.22-7.11,8.23-11.45,2,.48,5.57-2.62,4.68-4.63-2.35-1.57-3.53-2.82-6.51-.75a59.1,59.1,0,0,1-5.23,5.88c-.46,1.53-2.28,2.12-2.85,3.65a1.37,1.37,0,0,1-1.16,1.1c1-2.33-.1-2.77,2.77-3.7,1.74-2.25,6.17-6.24,3.26-8.61,4.42.56,5.19-5.54,7.71-8.35.13-.9-1.54-1-2-1.72-.61-.34-.16-1.06-.64-1.34,0-.33.11-1-.42-.85-1.29.47-2.6-.33-3.92-.16-6.43,2.85-8.71,11.16-13.46,16-1.51-1.73-2.25-5.72-5-5.48,3.57-1.8-3.17-5.57-4.31-7.79-1.36-2.44-4.24-1.89-6-.11-2.09,3.61,0,8.06,2.35,11,.71,3.68,1.24,10.22,6.34,9.24-2.17,1.07-3.45,1.79-1.82,4.17,1.2,4.29,5.11,4.52,8.42,2.4,2.77,9.34-2.35,1-8.37,2.93-4.48-1.73-10.08,1.58-14.53,2.09a.51.51,0,0,0-.65-.78c-4.16.46-9.57-1.57-13.6-.7-.21-2.68-2.2-5.11-4.76-4.5-3.28-.71-8.87,3.34-6.73,7.23,1.1,3.37-2.34,6-3.13,9.19h0C40.79,76,39.49,79.2,35.37,89.13c-.25-.1-.35.24-.1.32-21.62,7.7-45.64,31,3,37.39,24.83-.23,106.27,33.1,89.65-9.22,7.62-5.6.65-13.47-1.51-21.43,0,0,0,.07-.07.11.68-1.82-1.27-2.82-4.18-3.79,1.72-2.26-3.76-2.67-5.17-2.26-.72-.3-2-1.17-3-.64-4.61,1.29-9.83-2.79-15.4-3.21-.26-2.72-1.32-6.42.15-8.78.41-.47-.31-1-.75-.93a77.52,77.52,0,0,1,.72-10.21c1.54.41,1.34,1.82,1,3.07-.38,1.61,1.24,3,.59,4.54.23,2.54,4.91,4.06,6.61,1.93,3.19-4.5,1.38-10.34-1.82-14.18-.17-2.58-2.7-6.18-5.76-5.73H99.1c1.6-.83,3.2-1.63,4.83-2.39.35,1.44,1.24,5,3.26,3.93,1.69.08,3.09.38,4.52-.84,3.35-.61,10.76,0,10.09-4.89.07,3.91,3.25,2,5.83,2.1a5.59,5.59,0,0,1,3.5-.23c1.35-.38,2.24-1.5,3.8-1.19.75,0,1.24-1.55,1.94-.74C137.4,52.22,139.71,52.05,140,51.56ZM50.46,74c.12-.23.23-.45.34-.68h0L51,73h0l.24-.58a15.62,15.62,0,0,0,5,.54c-.42.58-1.78,1.12-2.3,1.7-1.72-.68-1.79,1.13-.09,1a6.51,6.51,0,0,0-.3.75c-2,.08-3,1.13-.13.36a10.45,10.45,0,0,0-.4,2.48l.17-.07c-.84,2.18-2.63,3.86-3,6.53C47,86.4,44.25,87,41.86,87.66c2.53-4.21,5-9.52,7.72-14A3.93,3.93,0,0,0,50.46,74ZM98.87,54.14c-.34.44-.66.89-1,1.34,0-2.39-.13-5.63,2-7.15a2.59,2.59,0,0,0,1,3.51A21.92,21.92,0,0,0,98.87,54.14Zm-1.62-4.35c-.11.41-.36,1.17.34,1-.08.4-.16.79-.23,1.19-.13-.69-.28-1.37-.46-2ZM88.84,54a.35.35,0,0,0-.08-.16c2.69-.16,5.82,0,7.66,2.28-1.58,2.76-1.54,6.4-1.67,9.84-.4-.13-1.21-.18-1.11.47,2.06.59.65,3.53.79,5.45-1.4-.33-1,1.6-.21,1.9-.08,3.86-2.11,7.68-1.5,11.48-3.15-.67-6.56-.78-9.71-1.48.12-.83.22-1.69.31-2.56l.1.06c.83-2.47,3.22-10.67.47-14.55h0a18.68,18.68,0,0,0-3.31-6.29C83.8,59.34,89.28,58.5,88.84,54Z"/><path class="cls-3" d="M80.16,26.55a4.34,4.34,0,0,1,.76-3.14,5.75,5.75,0,0,1,2.91-1.53,2.22,2.22,0,0,1,1-.09,1.8,1.8,0,0,1,.78.39,4.62,4.62,0,0,1,.58.59l.69.75,2.79,3.07L91,28.09a7.43,7.43,0,0,1,1.18,1.5,2.09,2.09,0,0,1,.23.88.36.36,0,0,1-.34.39,1.34,1.34,0,0,0-.93.45,1.91,1.91,0,0,1,1.11.05,2.08,2.08,0,0,1,1,.8c.29.39.53.82.79,1.22.54.85,1.09,1.7,1.62,2.55a18.22,18.22,0,0,1,1.39,2.57,14.1,14.1,0,0,1,.77,2.7,12.86,12.86,0,0,0,.73,2.67,13.41,13.41,0,0,1,1.23,2.34,2.64,2.64,0,0,1-.71,2.37A5.94,5.94,0,0,1,96.9,50,29.92,29.92,0,0,1,97.67,54c.09.8.15,1.6.17,2.4,0,.48-.72.53-.73,0a29,29,0,0,0-.9-6.23l-3,1.27a.34.34,0,0,1-.31,0,3,3,0,0,1-3-.41,8.06,8.06,0,0,1-2.17-3.23c-.34-.75-.65-1.51-.93-2.29a.39.39,0,0,1,.23-.47,20.76,20.76,0,0,0,2.52-1.41l-3-.07a.36.36,0,0,1-.33-.16l-1.86-3.69A9.26,9.26,0,0,1,83.71,38a7.23,7.23,0,0,1-.1-2,3.55,3.55,0,0,0-.34-1.57,8.22,8.22,0,0,0-.86-1.31c-.34-.44-.68-.87-1-1.33a6.33,6.33,0,0,1-.74-1.63A15.75,15.75,0,0,1,80.16,26.55Z"/><path class="cls-4" d="M96.41,48.07a49.12,49.12,0,0,0-3.32-9.43q-1.08-2.25-2.37-4.4a21.11,21.11,0,0,0-2.91-4.05,36.63,36.63,0,0,1-3.71-3.66c-.17-.24-.54,0-.37.27A24.27,24.27,0,0,0,87,30a18.55,18.55,0,0,1,3,3.88,49.57,49.57,0,0,1,4.34,8.87A52.19,52.19,0,0,1,96,48.12a.23.23,0,0,0,.25.2A.23.23,0,0,0,96.41,48.07Z"/><path class="cls-3" d="M118.57,35.65a7.35,7.35,0,0,0-1.07-.49c-.21-.11-.53-.34-.48-.62a.31.31,0,0,0-.2-.37,5,5,0,0,0-4.76.73c-1.3,1-1.82,2.66-3,3.81a4.54,4.54,0,0,1-.93.7,3.72,3.72,0,0,0-1,.74,2.16,2.16,0,0,0-.35.63,3.32,3.32,0,0,1-.24.62,3.46,3.46,0,0,1-.88.91A6.81,6.81,0,0,0,104,44.43c-.17.35-.28.81-.67,1-.19.07-.4.1-.59.17a2.31,2.31,0,0,0-.61.3,6.12,6.12,0,0,0-1,.9,8.16,8.16,0,0,0-.94,1.1,2.84,2.84,0,0,0-.51,2.51A2.19,2.19,0,0,0,100,51l0,0a2.47,2.47,0,0,0,.87.86,21.92,21.92,0,0,0-2,2.3q-.62.81-1.2,1.65a.29.29,0,0,0,.5.31,26.8,26.8,0,0,1,3.27-4,5.2,5.2,0,0,0,2,.19,5.7,5.7,0,0,0,2.26-.56,10.57,10.57,0,0,0,1.87-1.46c.62-.52,1.31-1,1.92-1.49A12.73,12.73,0,0,0,111,47.13a24.15,24.15,0,0,0,2.39-3.76l.58-1.14.29-.56a1,1,0,0,0,.14-.69,1.29,1.29,0,0,0-.49-.68l0,0a2.77,2.77,0,0,0,1.43,0,2.64,2.64,0,0,0,.88-.56L117,39a7.43,7.43,0,0,0,1.34-1.46,2.71,2.71,0,0,0,.38-.87A.86.86,0,0,0,118.57,35.65Z"/><path class="cls-4" d="M116,36.08a30.08,30.08,0,0,0-6.08,5.05,30.94,30.94,0,0,0-2.51,3.08,33.78,33.78,0,0,1-2.55,3.48,14.17,14.17,0,0,1-1.7,1.59,4.28,4.28,0,0,0-1.46,1.53.18.18,0,0,0,.12.22.18.18,0,0,0,.23-.12,3.79,3.79,0,0,1,1.28-1.3,13.24,13.24,0,0,0,1.52-1.38,15.32,15.32,0,0,0,1.33-1.57c.43-.6.83-1.23,1.25-1.84A30.3,30.3,0,0,1,112.62,39a31.23,31.23,0,0,1,3.53-2.61C116.35,36.28,116.17,36,116,36.08Z"/><path class="cls-3" d="M116.56,24.87,115,27.39l-2.7,4.36a11.53,11.53,0,0,1-.66,1,1,1,0,0,1-1,.44,6.86,6.86,0,0,0-1.11-.13,3,3,0,0,0-.66.11,5.08,5.08,0,0,0,1.19,1.3.38.38,0,0,1,.12.51c-.49.88-1,1.75-1.48,2.62a27.6,27.6,0,0,1-1.53,2.43,7.49,7.49,0,0,1-1.57,1.75,3,3,0,0,1-1,.52c-.3.08-.7.07-1,.29a1,1,0,0,0-.26.71c0,.34,0,.69-.1,1a3.55,3.55,0,0,1-.63,1.45,12.44,12.44,0,0,1-2.45,2.24A11,11,0,0,0,99,49.18a3.19,3.19,0,0,0-.33.4c-.24,1-.48,2.08-.64,3.14A9.14,9.14,0,0,0,98,56.33a.37.37,0,0,1-.72.18,8.91,8.91,0,0,1-.16-.9,12.72,12.72,0,0,1,.23-3.79c.06-.33.13-.67.2-1a.36.36,0,0,1-.48-.44,3.65,3.65,0,0,0,.19-.94,8.77,8.77,0,0,0-1-3.87A6.16,6.16,0,0,1,95.51,42a2,2,0,0,1,.93-1.34c.19-.11.45-.19.43-.44a1.18,1.18,0,0,0-.37-.68,3.84,3.84,0,0,1-.59-.74,1.51,1.51,0,0,1-.14-1.08,4.08,4.08,0,0,1,1-1.73,14.55,14.55,0,0,0,2.36-2.84c.31-.65.49-1.35.84-2a8.55,8.55,0,0,1,1.24-1.69c.24-.25.48-.5.73-.74a4.54,4.54,0,0,0,.38-.38l.33-.46,1.4-1.95L105.46,24a16,16,0,0,1,1.14-1.44,4.82,4.82,0,0,1,3-1.78,7.48,7.48,0,0,1,2.05.2,3.4,3.4,0,0,0,1.87,0c.29-.12.49.22.44.46a1.28,1.28,0,0,0,0,.39.34.34,0,0,1,.16.1.37.37,0,0,1,0,.52,2.78,2.78,0,0,0,.49.72,6.62,6.62,0,0,0,1.83,1.21A.37.37,0,0,1,116.56,24.87Z"/><path class="cls-4" d="M112.66,21.75c-.57,1.59-2.06,2.6-3.26,3.71a21.56,21.56,0,0,0-3.51,4.6c-.54.87-1.08,1.74-1.55,2.65s-.83,1.94-1.29,2.88c-.85,1.75-2.16,3.22-2.93,5a22.69,22.69,0,0,0-1,3.36l-.9,3.54c-.07.28.37.41.44.13l.81-3.2c.25-1,.48-2,.81-3,.62-1.86,1.93-3.34,2.86-5,.49-.91.84-1.87,1.27-2.81A26.22,26.22,0,0,1,106,30.81a24.18,24.18,0,0,1,3.47-4.76c1.32-1.29,3-2.35,3.65-4.17C113.19,21.6,112.75,21.47,112.66,21.75Z"/><path class="cls-5" d="M99,87.87c-.19-.68-.43-1.33-.57-2a12.38,12.38,0,0,1-.23-2.1c-.06-1.49-.11-3-.16-4.45,0-.23,0-.46,0-.69a3.29,3.29,0,0,1,.7-1,.47.47,0,0,0,0-.59,1.09,1.09,0,0,0-.77-.34c0-.64,0-1.28,0-1.93.06-2.93.47-5.83.75-8.74,0-.12,0-.24,0-.36l.09-.11a1.1,1.1,0,0,1,.58-.38.54.54,0,0,1,.59.35.2.2,0,0,1,0,.17c-.12.52.58.76.71.24a1.29,1.29,0,0,0-1.42-1.58,1.5,1.5,0,0,0-.46.17c.08-.95.13-1.9.14-2.85a23,23,0,0,0-.25-4.31,2.44,2.44,0,0,0-.66-1.43,1.06,1.06,0,0,0-1.35-.06,2.46,2.46,0,0,0-.83,1.34c-.15.59-.1,1.2-.21,1.79l0,.13a5.48,5.48,0,0,0-.23.56.21.21,0,0,0,0,.06.32.32,0,0,0-.06.23,14.15,14.15,0,0,0-.52,4c0,.67,0,1.33,0,2a1.55,1.55,0,0,0-.83,0,.44.44,0,0,0-.28.51.37.37,0,0,0,.45.3,1,1,0,0,1,.64.11c0,.16,0,.31,0,.46q-.06,1.8-.21,3.6c0,.33-.05.65-.08,1a4.05,4.05,0,0,0-.7.07c-.26.05-.33.39-.24.61l.38,1a.32.32,0,0,0,.35.21c-.17,1.41-.37,2.82-.62,4.23-.21,1.18-.45,2.35-.71,3.52a18.18,18.18,0,0,0-.38,1.78A4,4,0,0,0,92.66,85a15.14,15.14,0,0,1,.53,3.68,14.62,14.62,0,0,1-.44,3.72.4.4,0,0,0,.34.53A15.74,15.74,0,0,0,99,92.47a.43.43,0,0,0,.29-.4A11,11,0,0,0,99,87.87Z"/><path class="cls-3" d="M139.77,51.79a.13.13,0,0,1-.1,0l-1.59.18c-.41.05-.88.16-1.21-.16-.16-.15-.25-.3-.49-.24a1.16,1.16,0,0,0-.49.36,1.77,1.77,0,0,1-1,.62c-.69.13-1.41-.15-2,.24-.28.18-.52.41-.79.6a1.87,1.87,0,0,1-1,.35,5.31,5.31,0,0,1-1.19-.15,2.52,2.52,0,0,0-1.19,0c-.38.1-.75.26-1.12.37a3.62,3.62,0,0,1-1.18.12c-.42,0-.83-.09-1.24-.08a3.71,3.71,0,0,0-1.18.29,1.71,1.71,0,0,1-1.09.1,1.14,1.14,0,0,1-.56-.43,3.45,3.45,0,0,1-.4-1.37,3.12,3.12,0,0,0-.18-.73,6.42,6.42,0,0,1-.2,2.18,3.12,3.12,0,0,1-.23.67c-.06.11-.16.12-.27.15l-.37.11-1.48.42-2.67.75a11,11,0,0,1-2.54.51,10.09,10.09,0,0,0-2.33.1c-.69.21-1.16.86-1.88,1a9,9,0,0,1-2.12-.24,1.31,1.31,0,0,0-.52.07c-.16,0-.31.15-.47.21a.81.81,0,0,1-.93-.17,5.53,5.53,0,0,1-.69-.92,7.46,7.46,0,0,1-.55-1,7.71,7.71,0,0,1-.62-2c-1,.44-1.89.9-2.83,1.37L99,56.14l-.81.42c0-.05,0-.12-.11-.11a2.18,2.18,0,0,1-.51,0l.2-.12c.32-.19.66-.37,1-.54q1.09-.57,2.19-1.11c1.46-.73,2.93-1.44,4.42-2.11a80.88,80.88,0,0,1,9.07-3.5A54.21,54.21,0,0,1,124,47a43,43,0,0,1,4.81-.34,25.18,25.18,0,0,1,4.83.29c2.68.46,5.45,1.9,6.37,4.63C140,51.72,139.9,51.81,139.77,51.79Z"/><path class="cls-3" d="M106.91,64.46a12,12,0,0,0-.77-1.1c-.28-.35-.63-.65-.89-1a.89.89,0,0,1-.18-.5c0-.25.09-.49.09-.74a1.63,1.63,0,0,0-.64-1.21,3.55,3.55,0,0,1-.47-.48,3.7,3.7,0,0,1-.31-.55,10.6,10.6,0,0,0-.62-1.21,4.06,4.06,0,0,0-3.81-1.54h0a3.3,3.3,0,0,1-.83,0h0l0,0a3.84,3.84,0,0,0-1-.56.38.38,0,0,0-.46.25.38.38,0,0,0,.25.46l.2.09-.26,0a.33.33,0,0,0-.25.46l-.31.13c-.44.18-1.11.38-1.26.89a.93.93,0,0,0,.17.77c.15.23.32.47.49.7l1,1.44a4.73,4.73,0,0,1,.79,1.33,2.78,2.78,0,0,1,0,1.15,4.27,4.27,0,0,0,0,2.43,1.94,1.94,0,0,0,1,.87,2,2,0,0,1,1,.69,1.75,1.75,0,0,1,.1,1c0,.43-.14.84-.19,1.26a3.61,3.61,0,0,0,0,1.35,11.91,11.91,0,0,0,.46,1.26,2.6,2.6,0,0,1,.25,1.25c0,.23-.13.45-.17.68a1.22,1.22,0,0,0,.1.82,2.1,2.1,0,0,0,.52.55c.21.17.42.34.64.49a6.71,6.71,0,0,0,1.38.78,3.79,3.79,0,0,0,2.77.12,2.8,2.8,0,0,0,1.2-.83,5.4,5.4,0,0,0,.78-1.33,10.72,10.72,0,0,0,.74-2.54,11.44,11.44,0,0,0-.4-5.26A11.32,11.32,0,0,0,106.91,64.46Z"/><path class="cls-4" d="M105.47,73.76c-.25-1.21-.51-2.41-.76-3.61s-.47-2.37-.78-3.54a24.45,24.45,0,0,0-3-6.24c-.67-1.13-1.39-2.24-2.14-3.33-.16-.24-.57,0-.4.22A62.77,62.77,0,0,1,102,63.18a17.34,17.34,0,0,1,1.34,3.14c.34,1.16.55,2.35.79,3.52.29,1.34.57,2.69.86,4C105.09,74.15,105.53,74,105.47,73.76Z"/><path class="cls-3" d="M98,56.9a10.88,10.88,0,0,0-2.12-2.32,7.22,7.22,0,0,0-2.55-1.17,12.49,12.49,0,0,0-2.86-.33,19.17,19.17,0,0,0-2.51.11,17.15,17.15,0,0,0-7.74.15,31,31,0,0,0-7.65,3A38.45,38.45,0,0,0,66,60.9c-.51.44-1,.89-1.49,1.35a4.45,4.45,0,0,0-.7.74,1,1,0,0,0-.06,1,3.42,3.42,0,0,0,.56.79c.21.26.43.52.65.76a7.41,7.41,0,0,0,1.52,1.33,3.69,3.69,0,0,0,3.73.32A2.49,2.49,0,0,0,71.45,65a4.85,4.85,0,0,0,2.61.27,7.45,7.45,0,0,0,2.32-.85,17.57,17.57,0,0,0,2.09-1.33,1.88,1.88,0,0,0,.72-.95,8.81,8.81,0,0,1,.27-1,1.23,1.23,0,0,1,.77-.54l1.3-.41c.87-.27,1.74-.54,2.6-.83a12.36,12.36,0,0,0,2.28-1A4.4,4.4,0,0,0,88.84,54a.35.35,0,0,0-.08-.16c.48,0,.95,0,1.43,0a8.83,8.83,0,0,1,5,1.23,9.54,9.54,0,0,1,2.21,2.36A.37.37,0,0,0,98,56.9Z"/><path class="cls-4" d="M87.86,53.05a.24.24,0,0,0-.27-.17,31.16,31.16,0,0,0-9.36,2.66c-1.56.72-3.09,1.53-4.63,2.32s-3,1.59-4.53,2.43c-.81.46-1.62.92-2.4,1.41A4.33,4.33,0,0,0,65,63.38c-.12.26.26.51.39.24a3.79,3.79,0,0,1,1.45-1.47c.68-.44,1.38-.84,2.08-1.24,1.47-.84,3-1.64,4.47-2.41a53.65,53.65,0,0,1,9-4.06,30,30,0,0,1,5.31-1.11A.23.23,0,0,0,87.86,53.05Z"/><path class="cls-6" d="M94.65,77.51a.28.28,0,0,0-.43.23c0,.13,0,.26,0,.39a.31.31,0,0,0,.45.24A2.05,2.05,0,0,1,95.05,80c-.08.35.46.51.54.16A2.61,2.61,0,0,0,94.65,77.51Z"/><path class="cls-6" d="M97.08,74.64c-.19-.53-.69-.15-.9.15a2.15,2.15,0,0,0-.38,1.48c0,.35.59.37.56,0a1.61,1.61,0,0,1,.06-.72,1.2,1.2,0,0,1,.13-.31,1.4,1.4,0,0,0,.18-.3C96.92,75,97.17,74.88,97.08,74.64Z"/><path class="cls-6" d="M96.42,65.69c0-.36-.52-.37-.56,0s-.08.79-.11,1.18h-.29c-.36,0-.37.54,0,.56l.55,0a.3.3,0,0,0,.29-.28C96.32,66.66,96.37,66.17,96.42,65.69Z"/><path class="cls-6" d="M94.62,84.54a4.88,4.88,0,0,0-.46-1.08c-.13-.25-.3-.73-.6-.81a.28.28,0,0,0-.32.12.27.27,0,0,0,0,.26.28.28,0,0,0,.22.21c0,.1.14.29.16.33s.19.36.28.54a2.92,2.92,0,0,1,.21.56c0,.18.06.65-.25.59s-.52.47-.17.54C94.41,85.94,94.77,85.19,94.62,84.54Z"/><path class="cls-6" d="M96.68,85.5a2,2,0,0,1-.56-1.68c0-.36-.52-.37-.56,0a2.55,2.55,0,0,0,.72,2.08C96.53,86.14,96.94,85.76,96.68,85.5Z"/><path class="cls-6" d="M98.21,89.35a1.13,1.13,0,0,1-.37.29c-.21.07-.27,0-.34-.2a6.24,6.24,0,0,1-.19-.88c-.08-.39-.17-.83-.64-.88s-.37.52,0,.56a4.52,4.52,0,0,1,.21.94,1.71,1.71,0,0,0,.31.82c.44.47,1,.12,1.42-.24A.28.28,0,0,0,98.21,89.35Z"/><path class="cls-6" d="M94.88,89.38c-.15-.33-.64-.06-.49.27a2,2,0,0,1,.18.86.28.28,0,0,0,.56,0A2.54,2.54,0,0,0,94.88,89.38Z"/><path class="cls-6" d="M97.61,68.21a1.92,1.92,0,0,0-.7,1.72.28.28,0,0,0,.56,0c0-.41,0-1,.41-1.24S97.91,68,97.61,68.21Z"/><path class="cls-7" d="M28.09,94.16c-9.62,0-12.46,7.83-16.28,11.75S7.53,124.3,38.24,126.83,62.11,131.21,89.55,137s43.6-.49,41.15-11.9-5.71-11.56-28.57-16.64S28.09,94.16,28.09,94.16Z"/><path class="cls-8" d="M42.55,118.88a21,21,0,0,0-6.35-2.77,20.73,20.73,0,0,0-3.41-.56,8.45,8.45,0,0,1-3.34-.64,2.24,2.24,0,0,1-1.26-2.59c.2-.49-.51-.88-.72-.39a2.8,2.8,0,0,0,.57,2.88,4.6,4.6,0,0,0,3,1.42c1.22.16,2.45.19,3.66.41a20.22,20.22,0,0,1,3.65,1,20.58,20.58,0,0,1,3.79,2C42.61,119.91,43,119.17,42.55,118.88Z"/><path class="cls-8" d="M57.3,119.93a5.81,5.81,0,0,0-4.18-1.45.42.42,0,0,0,0,.83,5,5,0,0,1,3.59,1.23C57.15,120.89,57.69,120.27,57.3,119.93Z"/><path class="cls-8" d="M76.49,118.81a22.06,22.06,0,0,1-4.86-.46,4.21,4.21,0,0,1-3.29-2.47c-.26-.46-.94,0-.68.46a5.87,5.87,0,0,0,1.46,1.82,5.45,5.45,0,0,0,2.11,1,22,22,0,0,0,5.3.53C77.05,119.64,77,118.81,76.49,118.81Z"/><path class="cls-8" d="M84.62,117.13a16.27,16.27,0,0,0-11.28-3c-.52.06-.48.89,0,.84a15.5,15.5,0,0,1,10.7,2.78C84.5,118.05,85.05,117.44,84.62,117.13Z"/><path class="cls-8" d="M25.86,106.28a4.91,4.91,0,0,1-1.38-.88,1.77,1.77,0,0,1-.43-.62,4,4,0,0,1-.13-.84c-.12-.63-.78-.94-1.31-1.19a6.23,6.23,0,0,0-1.95-.55c-.51-.06-.69.75-.17.81a5.46,5.46,0,0,1,1.85.53c.23.11.65.27.76.5a1.27,1.27,0,0,1,0,.43,2.14,2.14,0,0,0,.08.44A3.8,3.8,0,0,0,25.49,107C26,107.23,26.34,106.5,25.86,106.28Z"/><path class="cls-8" d="M30.57,120.65a11.66,11.66,0,0,1-3-1,4.17,4.17,0,0,1-1.2-1,2.73,2.73,0,0,0-1.18-1c-.5-.17-.67.65-.18.81s.73.76,1.06,1.08a5.42,5.42,0,0,0,1.3.93,13.21,13.21,0,0,0,3.06,1C30.91,121.58,31.08,120.77,30.57,120.65Z"/><path class="cls-8" d="M86.09,128.74c-2.15-.28-4.41-.56-6.26-1.82-.47-.32-.9-.71-1.38-1a4.7,4.7,0,0,0-1.47-.6,10.69,10.69,0,0,0-3.34-.09c-.52,0-.48.87,0,.83a9.72,9.72,0,0,1,3.23.1,10.54,10.54,0,0,1,2.83,1.71,15.41,15.41,0,0,0,6.17,1.7C86.42,129.61,86.61,128.8,86.09,128.74Z"/><path class="cls-8" d="M96.19,125.05a17.55,17.55,0,0,1-6.57-1c-2-.72-3.89-2.07-6.09-1.84-.51,0-.48.88,0,.83a6.32,6.32,0,0,1,3.16.66c1,.42,1.94.89,3,1.25a18.48,18.48,0,0,0,6.55,1C96.75,125.87,96.71,125,96.19,125.05Z"/><path class="cls-8" d="M107.74,126.76c-2.43,0-4.68-1.07-7-1.72-.5-.14-.67.67-.17.81,2.37.68,4.66,1.78,7.17,1.74A.42.42,0,0,0,107.74,126.76Z"/><path class="cls-8" d="M108.94,132.36a27.43,27.43,0,0,1-13-1.55.42.42,0,0,0-.55.17.43.43,0,0,0,.17.56A28.18,28.18,0,0,0,109,133.19C109.5,133.13,109.46,132.3,108.94,132.36Z"/><path class="cls-9" d="M38.44,109.34c11.8,2,28.59-.07,43.46,5.63s23.94,9.92,38.34,6.2,13.06-13.62,6-22.82-46-18.86-71.93-13.52-29.42,8.52-26.19,13S30.42,107.94,38.44,109.34Z"/><path class="cls-10" d="M98.5,91.36s2.35-4,2.19-3.2a24.41,24.41,0,0,1-1.77,3.47s1.86-1.5,1.49-1a14.85,14.85,0,0,1-1.54,1.53c-.88,0-1.64-.11-1.8-.38,0,0-1.85-6.18-1.45-5.31s1.79,5.19,1.79,5.19.15-7.53.27-6.65c0,.29.27,6,.22,6.21Z"/><path class="cls-10" d="M95.39,90.07a9.58,9.58,0,0,0,1.91,1.79C97.58,91.92,95.39,90.07,95.39,90.07Z"/><path class="cls-10" d="M98.71,91.74l1.36-.31s.66.75.9,1-.64-.3-.79-.59-1.06.07-1.39,0S98.71,91.74,98.71,91.74Z"/><path class="cls-10" d="M36.67,97.4s2.35-4,2.19-3.2a23.39,23.39,0,0,1-1.77,3.47s1.87-1.5,1.5-1a14.85,14.85,0,0,1-1.54,1.53c-.88,0-1.64-.11-1.81-.38,0,0-1.85-6.18-1.44-5.31s1.79,5.19,1.79,5.19.13-6,.26-5.17c0,.29.27,4.52.23,4.73l.24-2.09c0-.05.07-.05.08,0Z"/><path class="cls-10" d="M33.56,96.11a9.33,9.33,0,0,0,1.92,1.79C35.75,98,33.56,96.11,33.56,96.11Z"/><path class="cls-10" d="M36.89,97.78l1.36-.31.89,1c.24.29-.64-.3-.78-.59s-1.07.07-1.4,0S36.89,97.78,36.89,97.78Z"/><path class="cls-11" d="M71,95.55C70.76,95,70,95,69.47,95a13.84,13.84,0,0,0-2.49.1.2.2,0,0,0-.18.13c-.31.08-.57.28-.35.66s1.28.45,1.77.48a7.93,7.93,0,0,0,2.22.21C70.88,96.42,71.3,96,71,95.55Z"/><path class="cls-11" d="M73.27,96.88c-.29-.21-1-.49-1.26-.09l-.2,0c-.35.07-.21.6.14.54l.16,0,.11.08a1.18,1.18,0,0,0,1-.06A.28.28,0,0,0,73.27,96.88Z"/><path class="cls-11" d="M70,98.7a4.89,4.89,0,0,0-2,0c-.35,0-.35.51,0,.56s1,.1,1.44.13c.29,0,.62,0,.77-.26A.28.28,0,0,0,70,98.7Z"/><path class="cls-11" d="M91.91,105c-.12-.51-1.2-.39-1.58-.38-.53,0-1.8,0-1.84.7a.28.28,0,0,0,.27.28,17.05,17.05,0,0,0,2,.18c.34,0,1.1.11,1.28-.29A.34.34,0,0,0,91.91,105Z"/><path class="cls-11" d="M93.55,105.86a.64.64,0,0,0-.4-.13.49.49,0,0,0-.58.44.4.4,0,0,0,.59.37l.06,0a.4.4,0,0,0,.39-.21A.38.38,0,0,0,93.55,105.86Z"/><path class="cls-11" d="M76.3,105.61a.56.56,0,0,0-.51-.29,1.1,1.1,0,0,0-.62.1.28.28,0,0,0-.11.38.3.3,0,0,0,.08.08.2.2,0,0,0,.17.13,2.86,2.86,0,0,0,.65.06A.34.34,0,0,0,76.3,105.61Z"/><path class="cls-11" d="M82.47,96.48a1.49,1.49,0,0,0-.83-.16.32.32,0,0,0-.19.07h-.09c-.36,0-.37.53,0,.55l1,0C82.58,97,82.72,96.6,82.47,96.48Z"/><path class="cls-11" d="M124.6,104c-.33-.19-.84.14-1-.14a.63.63,0,0,0-.71-.32,2.77,2.77,0,0,0-1.15.54.27.27,0,0,0-.11.15.28.28,0,0,0,.19.48c.93.09,1.86.14,2.8.17a.3.3,0,0,0,.27-.2A.55.55,0,0,0,124.6,104Z"/><path class="cls-11" d="M115.26,99.57c-.33-.15-.83.09-1-.12a.73.73,0,0,0-.71-.26,3.28,3.28,0,0,0-1.14.39.21.21,0,0,0-.11.12c-.16.11-.06.35.2.37.93.07,1.86.13,2.79.16a.27.27,0,0,0,.27-.14C115.62,99.89,115.51,99.68,115.26,99.57Z"/><path class="cls-11" d="M110.09,106.09a.84.84,0,0,0-.93.13.76.76,0,0,0-.16.92.25.25,0,0,0,.4.08.16.16,0,0,0,.09,0h.08l.73,0a.25.25,0,0,0,.27-.26l0-.07C110.77,106.61,110.38,106.22,110.09,106.09Z"/><path class="cls-11" d="M49.1,102.56a.14.14,0,0,0,0-.07h0l0,0a.7.7,0,0,0-.29-.3.76.76,0,0,0-.58-.12h0a.87.87,0,0,0-.63.36,1,1,0,0,0-.83.07.51.51,0,0,0-.23.64.26.26,0,0,0,.24.14h0a.32.32,0,0,0,.26-.17.28.28,0,0,0,.22,0l.19,0a.29.29,0,0,0,.19-.07.3.3,0,0,0,.33-.15c.21-.15.4-.51.64-.12S49.22,102.87,49.1,102.56Z"/><path class="cls-11" d="M56.53,103.84a.56.56,0,0,0-.44,0c-.25.07-.4,0-.65-.09a1.78,1.78,0,0,0-1.29.25c-.3.19,0,.68.27.49a1.27,1.27,0,0,1,1.18-.11.85.85,0,0,0,.38.09,1.7,1.7,0,0,0,.32-.1C56.6,104.4,56.84,104,56.53,103.84Z"/><path class="cls-11" d="M60.66,96.45l-.33,0a.28.28,0,0,0-.28.28.28.28,0,0,0,.27.28l.33,0a.27.27,0,0,0,.28-.27A.28.28,0,0,0,60.66,96.45Z"/><path class="cls-11" d="M71.12,102.63c-.2-.34-.51-.34-.86-.27a1.94,1.94,0,0,1-.72-.06,2.9,2.9,0,0,0-.78,0,.27.27,0,0,0-.18.12.69.69,0,0,0-.58.19c-.62.77,1.37.72,1.62.74a.24.24,0,0,0,.26-.18,2.58,2.58,0,0,0,1.06-.16A.28.28,0,0,0,71.12,102.63Z"/><path class="cls-11" d="M65.26,103.82a1.08,1.08,0,0,0-.57-.25.25.25,0,0,0-.31-.14,1.64,1.64,0,0,1-.32,0,.44.44,0,0,0-.31.09.41.41,0,0,0,0,.54.62.62,0,0,0,.53.19h.8C65.27,104.3,65.45,104,65.26,103.82Z"/><path class="cls-11" d="M78.07,98.85l-1.62-.23c-.35-.05-.36.5,0,.55l1.62.24C78.41,99.46,78.41,98.9,78.07,98.85Z"/><path class="cls-11" d="M93.33,101.92a1.2,1.2,0,0,0-1-.12c-.33.12-.2.65.14.54a.66.66,0,0,1,.58.06A.28.28,0,0,0,93.33,101.92Z"/><ellipse class="cls-12" cx="111.96" cy="95.67" rx="14.51" ry="4.43"/><path class="cls-13" d="M113.1,98.82a3.18,3.18,0,0,0-1.63-2.32,11.59,11.59,0,0,0-3.25-1.12,6.52,6.52,0,0,1-1.7-.66,15.53,15.53,0,0,0-1.59-1.1,4.62,4.62,0,0,0-3.52,0l-.16-.15a2.87,2.87,0,0,0-.62-.34,1.08,1.08,0,0,0-1.1,0,1.75,1.75,0,0,0-.48,1.25c0,.24.09.47.12.71a2.1,2.1,0,0,1,0,.79.27.27,0,0,0-.22.23c-.45,2.48,2.74,3.74,4.61,4.31a13.72,13.72,0,0,0,7.33.16C111.8,100.33,113.22,100.07,113.1,98.82Z"/><path class="cls-14" d="M103.31,96.51c-.33,0-.56-.25-.86-.35a1.47,1.47,0,0,0-.29,0c-.25,0-.25,0-.4-.22a.6.6,0,0,0-.44-.26H101l-.34.08a.17.17,0,0,0-.22,0v0a.17.17,0,0,0,0,.27c.19.1.46-.06.66-.06.36,0,.32.29.59.42a.93.93,0,0,0,.29,0,1.46,1.46,0,0,1,.58.18,1.35,1.35,0,0,0,.72.24C103.55,96.85,103.53,96.51,103.31,96.51Z"/><path class="cls-14" d="M103.3,93.83a1.19,1.19,0,0,0-.81,0,1.66,1.66,0,0,0-.37.14l-.23.13-.08.06h0a.18.18,0,0,0-.24.17c0,.21.2.26.36.18.39-.2.78-.55,1.25-.35C103.34,94.22,103.5,93.92,103.3,93.83Z"/><path class="cls-14" d="M104.35,94.21a1.48,1.48,0,0,0-.61.37c-.16.16.1.39.25.23a1.18,1.18,0,0,1,.47-.28C104.67,94.47,104.56,94.14,104.35,94.21Z"/><path class="cls-14" d="M100.19,93.64a.48.48,0,0,0-.52.21c-.12.21,0,.43,0,.66a.18.18,0,0,0,.35,0,1.9,1.9,0,0,1,0-.41c0-.12.11-.11.21-.1S100.38,93.66,100.19,93.64Z"/><path class="cls-15" d="M108.19,100.39a3.34,3.34,0,0,1-1.83,0c-.78-.09-1.55-.21-2.32-.35s-1.54-.3-2.31-.46a8.27,8.27,0,0,1-2-.57.3.3,0,0,1,.07-.56v0a3,3,0,0,1,1.56-1.1,2.46,2.46,0,0,1,1.75.6c1.17.69,2.19-.41,3.46-.12a5.3,5.3,0,0,1,1.8,1.42A.71.71,0,0,1,108.19,100.39Z"/><path class="cls-15" d="M118.26,98.28c-.34.88-1.57,1.24-2.35,1.57a11.22,11.22,0,0,1-6.73.83,7.23,7.23,0,0,1-2.79-1.31,2,2,0,0,1-.89-1.7c-.48-.62.9-1.39,1.33-1.59a6.55,6.55,0,0,1,3.49-.58,33.71,33.71,0,0,1,3.39.87,5.46,5.46,0,0,0,1.89,0,3.63,3.63,0,0,1,1.54,0A1.48,1.48,0,0,1,118.26,98.28Z"/><path class="cls-16" d="M123.71,98.33a2.15,2.15,0,0,1-1,.85,7.36,7.36,0,0,1-1.5.57c-1.06.28-2.23.09-3.13.79a7.76,7.76,0,0,1-1.35,1,5.24,5.24,0,0,1-1.25.41,7.24,7.24,0,0,1-1.61.12,2.74,2.74,0,0,1-1.2-.2c-1-.5-.59-1.7-.2-2.44l0,0A2.27,2.27,0,0,1,114,97.54a4,4,0,0,1,1.66,0,3,3,0,0,0,.94,0,2.13,2.13,0,0,0,.77-.48,4.81,4.81,0,0,1,5-.56C123,96.81,124.1,97.48,123.71,98.33Z"/><path class="cls-17" d="M122.61,91.77c0,.46-.58.81-.89,1s-1,.55-1.17,1.09c-.31.91.06,2.28-.79,2.94a5,5,0,0,1-3.1.61,14.4,14.4,0,0,1-3.55-.75,3.14,3.14,0,0,1-1.37-.67,2,2,0,0,1-.41-.73l0-.07h0a3.71,3.71,0,0,1-.12-.41.26.26,0,0,1,0-.23,4.61,4.61,0,0,1,2.71-5,2.24,2.24,0,0,1,1.55-.07c.46.18.78.58,1.28.68,1.14.24,2.26-.47,3.41-.1a8.24,8.24,0,0,1,1.56.81C122.05,91.11,122.6,91.32,122.61,91.77Z"/><path class="cls-18" d="M116.7,90.08a2.67,2.67,0,0,0-1,1.39c-.07.21.27.29.34.08a2.35,2.35,0,0,1,.89-1.19C117.07,90.24,116.88,90,116.7,90.08Z"/><path class="cls-18" d="M117,90.36a1.62,1.62,0,0,0-.69,1.37c0,.22.31.3.33.08.06-.44.12-.93.54-1.16C117.41,90.55,117.22,90.26,117,90.36Z"/><path class="cls-18" d="M120.93,92.26a.63.63,0,0,0-.57.15c-.12.1-.18.24-.3.34s-.46.1-.74.12a.85.85,0,0,0-.8.93.18.18,0,0,0,.35,0c-.05-.7.65-.47,1.07-.58s.6-.67.91-.6A.17.17,0,0,0,120.93,92.26Z"/><path class="cls-18" d="M119.83,95.11a.43.43,0,0,0-.35.25,1.38,1.38,0,0,1-.58.64c-.37.17-.92-.07-1.2.27-.14.17.11.4.26.23s.54,0,.7-.07a1.33,1.33,0,0,0,.46-.16,1.37,1.37,0,0,0,.42-.34c.07-.08.22-.47.31-.48S120.05,95.08,119.83,95.11Z"/><path class="cls-19" d="M123.68,95.44a1.69,1.69,0,0,0-.55-.36c-.16-.3-.68-.48-1-.57a1.54,1.54,0,0,0-1.75.43,1.46,1.46,0,0,0-.16.36c-.08.21-.24.3-.36.46a.61.61,0,0,0-.15.38,4.83,4.83,0,0,1-1.4.56,3.82,3.82,0,0,0-1.64.37,4.78,4.78,0,0,1-.86.54,2.29,2.29,0,0,1-.28.09,4.53,4.53,0,0,0-1,.17,5.57,5.57,0,0,0-1.55.42,2.34,2.34,0,0,0-1.45,2.49.29.29,0,0,0,.1.44,2.81,2.81,0,0,0,2.1-.26,3.82,3.82,0,0,0,.88-.55,2.38,2.38,0,0,1,.55-.32l.72-.2c.43-.12.87-.24,1.3-.38h0a5.24,5.24,0,0,1,2.33,0s0,.09.07.14c.2.52.13,1.1.31,1.62s.43.77.87.65.61-.52.77-.88a1.41,1.41,0,0,0,.76-.05,3,3,0,0,0,1.12-.41,1.82,1.82,0,0,0,.38-1.19c0-.57,0-1.13,0-1.7s.21-1.1.2-1.63A.72.72,0,0,0,123.68,95.44Z"/><path class="cls-20" d="M97.84,94.44l-.1.09,0,.1A2.14,2.14,0,0,1,97.84,94.44Z"/><path class="cls-21" d="M126.38,96.19C125.29,98.34,119.27,100,112,100c-7.85,0-14.24-1.91-14.55-4.31-.07.36-.13.73-.17,1.1a13.25,13.25,0,0,0-.1,1.67,14.69,14.69,0,0,0,29.37,0c0-.46,0-.92-.06-1.37C126.47,96.78,126.43,96.48,126.38,96.19Z"/><path class="cls-22" d="M120.08,100.41c0-.54-.15-1.07-.14-1.6s-.34-.55-.77-.6a7.14,7.14,0,0,0-2.87.32.2.2,0,0,0-.22,0c-.67.39-.63,1.45-.59,2.12.06,1,.33,1.9.45,2.87s0,2,0,3a2.13,2.13,0,0,0,.31,1.16,1,1,0,0,0,.53.28,1.3,1.3,0,0,1,.25.35.78.78,0,0,0,.18.3c.23.2.69.09,1,.08a2.86,2.86,0,0,0,1-.07c.25-.12.24-.46.26-.7a1.36,1.36,0,0,0,.52-.23C120.67,107.15,120,101.25,120.08,100.41Z"/><path class="cls-23" d="M112.39,96.4a5.41,5.41,0,0,1-2.77.83,11.16,11.16,0,0,1-3.26-.33,29,29,0,0,1-3.16-1,2.2,2.2,0,0,1-1.16-.74.81.81,0,0,1-.14-.5c0-.15.19-.39.15-.53a.25.25,0,0,1,0-.17c-.25-.78-.45-1.81.66-1.83.31,0,.62,0,.93.06.12,0,.42.08.52,0s.06-.2.08-.25a1.5,1.5,0,0,1,.8-1.09,1.08,1.08,0,0,1,1.09.14,4.17,4.17,0,0,1,.43.41.76.76,0,0,0,.72.27,1.08,1.08,0,0,1,.58.13,3.58,3.58,0,0,0,.73.11,4.74,4.74,0,0,1,1.3.72,7.51,7.51,0,0,1,1.28.89c.34.32.56.73.89,1.06s.66.54.73,1A.89.89,0,0,1,112.39,96.4Z"/><path class="cls-15" d="M108.5,100.34c0,.78-.83,1-1.46,1a3.1,3.1,0,0,1-1.16-.29c-.43-.2-.78-.61-1.28-.48a1.55,1.55,0,0,0-.93.77c-.17.33-.12.7-.28,1-.3.59-1.13.51-1.66.34a1.06,1.06,0,0,1-.67-.5c-.09-.15-.06-.31-.11-.47a1,1,0,0,0-.4-.42,2.3,2.3,0,0,1-.54-3,.32.32,0,0,1,.23-.3l0,0a.31.31,0,0,1,.5.09l3.1.5c1.1.17,2.24.3,3.33.54C107.84,99.2,108.5,99.61,108.5,100.34Z"/><path class="cls-16" d="M117.07,97.1c0-.27-.26-.39-.4-.59a2.81,2.81,0,0,1-.3-.9,3.61,3.61,0,0,0-.42-.86,11.57,11.57,0,0,1-.83-1.87,1.8,1.8,0,0,0-1.12-1,6,6,0,0,1-1.68-.89,11,11,0,0,1-.93-.88.2.2,0,0,1-.22-.08,1.37,1.37,0,0,0-.67-.47,1.57,1.57,0,0,0-.42,0,12.36,12.36,0,0,1-2.9.53l-.26,0c-.24.24-.46.48-.68.74s-1,.89-.72,1.33c0,0,.12.1.16.15a.73.73,0,0,1,.12.35,1.2,1.2,0,0,1-.33.75,8.74,8.74,0,0,1-1,.91,10.07,10.07,0,0,0-.33,1,2.91,2.91,0,0,0,0,1.82,1.88,1.88,0,0,0,1.37.86,9.2,9.2,0,0,0,2,.15l2.26.06a5.73,5.73,0,0,1,2.25.33,4.86,4.86,0,0,0,1.68.64,4.41,4.41,0,0,0,3.26-1.43A.81.81,0,0,0,117.07,97.1Z"/><path class="cls-18" d="M116,96.86l0,0c-.19-.17-.52-.06-.74,0a1.49,1.49,0,0,0-.47.13c-.47.2-1,.82-.89,1.29.22.76,1.4-.21,1.68-.4s.79-.35.77-.68C116.32,97,116.17,96.88,116,96.86Z"/><path class="cls-23" d="M111.52,92.81a1.1,1.1,0,0,1-1,.75,2.38,2.38,0,0,1-1.24-.48c-.35-.2-.69-.42-1-.65l-.62-.44s-.23-.14-.33-.23a.11.11,0,0,0,0-.05v0a.17.17,0,0,0-.21-.11h0a.17.17,0,0,0-.12.17c0,.19.15.24.29.35l.76.55a13.07,13.07,0,0,0,1.71,1,1.5,1.5,0,0,0,2.16-.81C111.93,92.68,111.6,92.6,111.52,92.81Z"/><path class="cls-23" d="M107.37,96.14a1.72,1.72,0,0,0-.41-.44c-.2-.14-.64-.1-.73-.35s0-.21-.12-.32a1.33,1.33,0,0,0-.65-.16c-.21,0-.29.31-.07.33s.39,0,.48.19,0,.23.14.34a.79.79,0,0,0,.44.16.87.87,0,0,1,.63.44A.17.17,0,0,0,107.37,96.14Z"/><path class="cls-23" d="M114.42,95.59a1.64,1.64,0,0,0-.78.29.5.5,0,0,1,0-.12,1.29,1.29,0,0,1,.69-.85c.2-.1,0-.39-.19-.29a1.63,1.63,0,0,0-.69.66,1.57,1.57,0,0,0-.16.46,2.47,2.47,0,0,1-.06.56c-.26.51-1,.25-1.44.11a1.9,1.9,0,0,1-1.3-.92c-.08-.21-.4-.1-.33.1.34.92,1.64,1.3,2.52,1.35a.76.76,0,0,0,.85-.45.32.32,0,0,0,0-.09,1.3,1.3,0,0,1,.86-.47C114.66,95.9,114.64,95.56,114.42,95.59Z"/><path class="cls-15" d="M111.56,98.77a.17.17,0,0,1-.16.13,38.32,38.32,0,0,1-4.79-.23c-.44,0-1.22,0-1.34-.61a.43.43,0,0,1,.3-.52.14.14,0,0,1,.11-.13,20.31,20.31,0,0,1,1.93-.7,3.93,3.93,0,0,1,2,.21,4.15,4.15,0,0,1,.91.34c.21.13.18.29.31.48C111.05,98.15,111.62,98.16,111.56,98.77Z"/><path class="cls-24" d="M34.93,90.84c-.38,1.62-2.41,3.4-2.67,3.94s0,3.43,1.33,3.72A2.33,2.33,0,0,0,36.2,97c0-.61-.49-.79-.35-1.76a2.48,2.48,0,0,1,.73-1.47Z"/><path class="cls-24" d="M57.21,97.88a11.19,11.19,0,0,0-.35,3.3c.06.93.35,2,.35,2.38,0,.92-7.51,3-8.78,2s.75-2,1.85-2.38,2-.25,2.72-1.63a3,3,0,0,0,.28-2.37Z"/><path class="cls-24" d="M75.39,97.63l-1.13,4.87a32.72,32.72,0,0,0,.35,5.24c.39,1.77-2.38,3.35-3.49,2.5s.27-4.58-.33-5.93.47-2.7.57-4.84S75.39,97.63,75.39,97.63Z"/><path class="cls-25" d="M81.59,67.57c3.27,9.11-3.81,16.19-3.81,17.71s2.17,15-4,17.75c-2.38,1.07-2.89,3-5.38-3.09S68,84.6,68.25,83.75c2-6.39.32-12.39,5.37-14.26C80.62,66.89,81.59,67.57,81.59,67.57Z"/><path class="cls-25" d="M67.55,74c3,9.21-7.41,11.77-7.45,13.28s.93,4.08-1.65,10.35c-1.24,3-1.38,2.89-3.31,3.56-1.48.52-2.53-.07-3.54-3.33-2-6.52-1.85-12.7-1-14.08,3.53-5.68,4-10.68,11.3-12.39S67.55,74,67.55,74Z"/><path class="cls-24" d="M46.47,62.18c-2.89,4.16-5.64,13.55-6.25,15.73-.9,2-5.39,10.72-5.39,13.87,0,2.42.64,3.5,1.75,2,.36-.5,1.24-1.08,2-1.83,3.22-3.22,5.24-7.73,7.87-12.77S54.08,68,50.22,65.05,46.47,62.18,46.47,62.18Z"/><path class="cls-13" d="M50.22,65.05c-3.68-2.9-3.78-2.95-3.78-2.95a29.33,29.33,0,0,0-2.74,5.31c1.19,1.83,4.42,6,6.76,6.59C52.25,70.68,52.6,66.93,50.22,65.05Z"/><path class="cls-26" d="M44.43,65.7l-.18.39a18.5,18.5,0,0,0,3,4.3,28.84,28.84,0,0,0,3.51,2.93L51,73a28.25,28.25,0,0,1-3.32-2.76A18.46,18.46,0,0,1,44.43,65.7Z"/><path class="cls-13" d="M47.44,60.56c4.88-6.6,12.09-8.84,26.73-5.08C78.61,56.62,85,64.63,84.25,70.6c-1.2,9.36-.22,23.61-8.36,22C68,91,56,77.51,52.94,79.26c.25-5.35,3.63-6.31,3.39-6.31C51.52,73,41.11,69.12,47.44,60.56Z"/><g class="cls-27"><path class="cls-26" d="M77.32,89a21,21,0,0,1-3.59-1.11,16.76,16.76,0,0,1-3.12-1.94c-2-1.49-4.26-2.67-6.29-4.17a39.11,39.11,0,0,0-6-4,12.94,12.94,0,0,0-3.59-1.18c-1-.15-2.34-.34-3.15.4-.16.15.1.38.26.24a2.07,2.07,0,0,1,1.53-.41,10.07,10.07,0,0,1,1.73.19,12.92,12.92,0,0,1,3.19,1.14A38.52,38.52,0,0,1,64,81.91c.91.68,1.83,1.34,2.8,1.93s2.07,1.22,3,1.93a30.65,30.65,0,0,0,2.66,1.84,13.55,13.55,0,0,0,3,1.25,23.84,23.84,0,0,1,3.53,1,3.05,3.05,0,0,1,2,2.82c0,.22.33.21.35,0C81.5,90.45,79.12,89.42,77.32,89Z"/><path class="cls-28" d="M73.43,82.83a.84.84,0,0,0-.63.3l-.09.13a2.7,2.7,0,0,1-.25-.34.52.52,0,0,0-.95.31A1.6,1.6,0,0,0,72,84.44a.45.45,0,0,0,.6,0,.46.46,0,0,0,.26,0,1.33,1.33,0,0,0,.33-.21.52.52,0,0,0,1-.11C74.32,83.59,74.14,82.83,73.43,82.83Z"/><path class="cls-28" d="M77.39,79.78a.49.49,0,0,0-.34-.71,1.53,1.53,0,0,0-1.63.71c-.24.36.13.73.48.75l.45,0a.54.54,0,0,0,.91.36A.81.81,0,0,0,77.39,79.78Z"/><path class="cls-28" d="M70.77,77.71c-.06-.13-.13-.26-.2-.39a.51.51,0,0,0-.59-.21l-.13.07a.46.46,0,0,0-.12-.32.5.5,0,0,0-.55-.16l-.2.09a.54.54,0,0,0-.33.65.8.8,0,0,0,.08.16.81.81,0,0,0,.43.79.8.8,0,0,0,.78,0l0,0a.54.54,0,0,0,.65.07A.54.54,0,0,0,70.77,77.71Z"/><path class="cls-28" d="M73.11,79.3a2,2,0,0,0-1.31.52.52.52,0,0,0,0,.68.52.52,0,0,0,.68.1,1,1,0,0,1,.68-.26.52.52,0,1,0,0-1Z"/><path class="cls-28" d="M59.43,76.19c-.26-.35-.76-.64-1.13-.25a1.27,1.27,0,0,0-.13,1.14.9.9,0,0,0,.89.63.3.3,0,0,0,.13,0h.06a.54.54,0,0,0,.49-.55A1.69,1.69,0,0,0,59.43,76.19Z"/><path class="cls-28" d="M80.11,85.81a1,1,0,0,0-.48-.27.91.91,0,0,0-.33,0l-.19,0v0a.7.7,0,0,0-.13-.17,1,1,0,0,0-.41-.33.86.86,0,0,0-1,.36,1.1,1.1,0,0,0,.15,1.28.55.55,0,0,0,.72.15.52.52,0,0,0,.22-.33,1,1,0,0,0,.37.13c.14,0,.38-.09.45,0C79.91,87,80.59,86.27,80.11,85.81Z"/><path class="cls-28" d="M83.28,84.69a.52.52,0,0,0,.12-.62.51.51,0,0,0-.62-.27l-.57.11a.5.5,0,0,0-.34.45.71.71,0,0,0-.31.6c0,.7,1,.74,1.5.57a.54.54,0,0,0,.33-.66A.78.78,0,0,0,83.28,84.69Z"/><path class="cls-28" d="M76.33,76.47a.54.54,0,0,0-.72-.15,2.15,2.15,0,0,1-.38.15s-.06,0,0,0a.54.54,0,0,0-.66-.33.52.52,0,0,0-.33.65,1.05,1.05,0,0,0,.81.66,1.84,1.84,0,0,0,1.16-.29A.54.54,0,0,0,76.33,76.47Z"/><path class="cls-28" d="M55.19,74.71a1,1,0,0,0-.86-.48.43.43,0,0,0-.47.42,1.9,1.9,0,0,1-.65-.14c-.6-.26-1.09.65-.47.92a2.8,2.8,0,0,0,2.18,0A.52.52,0,0,0,55.19,74.71Z"/><path class="cls-28" d="M59.2,74.56a.53.53,0,0,0-.54-.5c.11,0-.08,0-.1,0l-.08,0h0a.41.41,0,0,0-.08-.24.53.53,0,0,0-.72-.15.68.68,0,0,0,0,1.1,1.7,1.7,0,0,0,1.06.38A.51.51,0,0,0,59.2,74.56Z"/><path class="cls-28" d="M73.41,73.49a.52.52,0,0,0-1,.32,1.54,1.54,0,0,1-.15,1,.52.52,0,0,0,.92.48A2.7,2.7,0,0,0,73.41,73.49Z"/><path class="cls-28" d="M75,63.38a1.38,1.38,0,0,1-.12-.34.49.49,0,0,0-.37-.34c0-.12,0-.25,0-.38,0-.41-.39-.84-.79-.55a4.92,4.92,0,0,0-.67.62.53.53,0,0,0,.32.86.5.5,0,0,0,.39.5l.24,0a.56.56,0,0,0,.09.17C74.46,64.52,75.32,64,75,63.38Z"/><path class="cls-28" d="M77.38,60.89h0a.18.18,0,0,0,.07,0,.5.5,0,0,0,.1-.67.91.91,0,0,0-1-.31,1,1,0,0,0-.63.87,1.3,1.3,0,0,0,1.57,1.19.53.53,0,0,0,.49-.54A.51.51,0,0,0,77.38,60.89Z"/><path class="cls-28" d="M82.24,63.42a.53.53,0,0,0-.73,0l-.35.42a.88.88,0,0,0-.29.62.64.64,0,0,0,.49.58A.76.76,0,0,0,82,64.9a.55.55,0,0,0,.18-.67l.07-.08A.53.53,0,0,0,82.24,63.42Z"/><path class="cls-28" d="M75.47,66.85a.52.52,0,0,0-.62.39s0,.08,0,.11h0l0,0s0,0,0-.05a.51.51,0,0,0-.86.56,1.09,1.09,0,0,0,1.13.49,1.07,1.07,0,0,0,.84-.9A.54.54,0,0,0,75.47,66.85Z"/><path class="cls-28" d="M68,63.43a.51.51,0,0,0-.54-.49c-.58.1-1.23.3-1.39,1A.89.89,0,0,0,67.23,65a.52.52,0,0,0,.09-.94l.23-.06A.53.53,0,0,0,68,63.43Z"/><path class="cls-28" d="M69.19,65.45a.53.53,0,0,0-.45.34.54.54,0,0,0-.6.27.51.51,0,0,0,.22.69.92.92,0,0,0,.92,0,.93.93,0,0,0,.45-.79A.52.52,0,0,0,69.19,65.45Z"/><path class="cls-28" d="M66.4,60.54a.52.52,0,0,0-.71-.15.52.52,0,0,0-.15.72l0,0h-.09a.52.52,0,0,0-.49.54.53.53,0,0,0,.54.49A1.05,1.05,0,0,0,66.4,60.54Z"/><path class="cls-28" d="M65.63,56.36a1.2,1.2,0,0,0-1.15-1,.69.69,0,0,0-.48.17,1.24,1.24,0,0,0-1,0,.51.51,0,0,0-.24.46c.07.54.71.9,1.1,1.23a.53.53,0,0,0,.85-.53A.53.53,0,0,0,65.63,56.36Z"/><polygon class="cls-28" points="69.69 58.7 69.69 58.7 69.69 58.69 69.69 58.7"/><path class="cls-28" d="M70.55,58.13a1.14,1.14,0,0,0-.84-.46.85.85,0,0,0-.8.42A.77.77,0,0,0,69,59a.72.72,0,0,0,.91.06.47.47,0,0,0,.13-.15.38.38,0,0,0,.32-.08A.51.51,0,0,0,70.55,58.13Z"/><path class="cls-28" d="M75.42,56.67H75a.58.58,0,0,0-.17-.38.54.54,0,0,0-.73,0,1.86,1.86,0,0,0-.49.52.58.58,0,0,0,.23.74,1.29,1.29,0,0,0,.75.13h.84C76.13,57.7,76.08,56.68,75.42,56.67Z"/><path class="cls-28" d="M73.38,54.64a.53.53,0,0,0-.72-.15.76.76,0,0,1-.8.17.54.54,0,0,0-.7.22.53.53,0,0,0,.22.7,1.79,1.79,0,0,0,1.85-.22A.54.54,0,0,0,73.38,54.64Z"/><path class="cls-28" d="M62.9,62.48a1,1,0,0,0-1,.05,1.06,1.06,0,0,0-.5.86.53.53,0,0,0,.54.5.51.51,0,0,0,.48-.46h0a.52.52,0,0,0,.67-.23A.51.51,0,0,0,62.9,62.48Z"/><path class="cls-28" d="M73.26,67.55a1.37,1.37,0,0,0-1.37-1,.51.51,0,0,0-.49.54.52.52,0,0,0,.54.49H72l.07,0h0l.08,0s.06.07.06,0l0,0,0,.08a.52.52,0,1,0,1-.32Z"/></g><path class="cls-29" d="M79.84,65.24a6.4,6.4,0,0,1-2.51,4A5,5,0,0,0,78,68.4a5.59,5.59,0,0,0,.17-5.5c-.1-.19-.39,0-.29.19a5.1,5.1,0,0,1-4.37,7.52.18.18,0,0,0,0,.35,5.67,5.67,0,0,0,3.34-1.28.18.18,0,0,0,.26.12,6.8,6.8,0,0,0,3.08-4.49C80.22,65.1,79.88,65,79.84,65.24Z"/><path class="cls-13" d="M49.63,63c0,2.16,2.8,5.53,6.24,4.84S61.4,64.06,61.08,63s-2.31-4.3-6.07-3.71S49.63,61.8,49.63,63Z"/><path class="cls-24" d="M54.76,62.56a2.31,2.31,0,0,0,2.65,1.23c.58-.28,2.25-4,2.25-4L57.91,58Z"/><path class="cls-15" d="M71.45,70.6c-11.84-.46-13.83,1.53-18.69-6-1.36-2.13-3-4.26-3.37-5.89-.46.51-.9.32-1.07,1C45.06,73.05,51.52,73,56.33,73A6.57,6.57,0,0,0,54,75c8.08-1.81,22.89-2.48,27.59,4.58a4.6,4.6,0,0,0,1.8,1.75,30.82,30.82,0,0,0,1.76-9.86c.06-1.24-.47-3.94-1.29-4.69C81.83,68.72,78.51,70.88,71.45,70.6Z"/><path class="cls-30" d="M81.11,72.24c-3.33,1.71-7.14-.58-10.59.59a.17.17,0,0,0,.11.33c3.48-1.17,7.28,1.13,10.67-.63C81.49,72.43,81.3,72.14,81.11,72.24Z"/><path class="cls-30" d="M80.85,75.57A5.66,5.66,0,0,0,77.9,74c-.68-.21-1.36-.41-2.05-.58a5,5,0,0,0-2.1-.23c-.21,0-.2.38,0,.35a4.49,4.49,0,0,1,1.92.19c.61.16,1.22.33,1.82.51a5.92,5.92,0,0,1,3,1.54C80.7,75.93,81,75.75,80.85,75.57Z"/><path class="cls-30" d="M58.91,72.21A3.71,3.71,0,0,0,56,73a.17.17,0,0,0,.19.29,3.45,3.45,0,0,1,2.62-.78A.17.17,0,0,0,58.91,72.21Z"/><path class="cls-24" d="M66.93,63.66c3.14,4.12.92,15.2-.79,20S54.66,95.09,53.37,95.09s-3.18.47-2.19-1.66S60,83.1,60,81.81,59,65.64,63.66,62.35C65.2,61.25,66.36,62.92,66.93,63.66Z"/><path class="cls-31" d="M47.73,95.38c-.78-1.11-1.25-1.44-1-1.73a8.25,8.25,0,0,1,2.4-1.22c.35,0,3.34,3.43,2.89,4.21a2.32,2.32,0,0,1-1.65,1.3C49.87,97.94,47.73,95.38,47.73,95.38Z"/><path class="cls-24" d="M53.69,95c-2.57,1.37-3,3.37-4.52,2.75a3.15,3.15,0,0,1-2-2.92c2.31-1,4.76-2.29,4.76-2.29Z"/><path class="cls-24" d="M47.18,94.81s-.34.71,0,.94l.31.22s-.14.68.14,1,.85.11.85.11-.07.4.19.56a.6.6,0,0,0,.57,0Z"/><path class="cls-32" d="M58.88,55.48c.86,1.53,3,3.12,2.54,5.34s-4.23,3-4.58,1.07S58.88,55.48,58.88,55.48Z"/><path class="cls-26" d="M58.26,61.08a5.81,5.81,0,0,0-.86,3.36c0,1.3.21,2.71-.84,3.7s-3,1-3.58-.49a17.49,17.49,0,0,1-.7-4.2c0-.22-.37-.21-.34,0,.09.89.18,1.77.33,2.65a7.06,7.06,0,0,0,.5,1.92,2.49,2.49,0,0,0,3.29.86,3.24,3.24,0,0,0,1.71-3.13c0-1.57-.14-3.15.8-4.52C58.69,61.05,58.38,60.89,58.26,61.08Z"/><path class="cls-26" d="M59,60.9a5.84,5.84,0,0,0-.86,3.37c0,1.29.21,2.71-.84,3.69s-3,1-3.58-.48a17.57,17.57,0,0,1-.7-4.21c0-.22-.37-.2-.34,0,.09.88.18,1.77.33,2.65a7.06,7.06,0,0,0,.5,1.92,2.49,2.49,0,0,0,3.29.85,3.22,3.22,0,0,0,1.71-3.12c0-1.58-.14-3.15.79-4.53C59.38,60.88,59.07,60.72,59,60.9Z"/><path class="cls-24" d="M47.58,54.61c-.12,1-.3,7,3.84,9.14,3.81,2,6.34-3.62,6.93-4.49s1-6.53-1.17-9S48.1,50.3,47.58,54.61Z"/><path class="cls-32" d="M49.2,54.23c1.26,2.83,5.17,4.92,6.51,4,.67-.46.08-1.28.21-1.55.66-1.44,1.72,3.31,2.61,2.74S59.66,53,58,50.78s-4.07-1.87-6.07-.31S49,53.85,49.2,54.23Z"/><path class="cls-32" d="M47.55,56.41c-.24.66,1.32-1.42,1.52-2.6s3.4-4.18,5-4.44-4-.23-5.74,2.14A4.91,4.91,0,0,0,47.55,56.41Z"/><path class="cls-32" d="M61.45,67.78a1.17,1.17,0,0,1-.46.45,2,2,0,0,1-.32,1.51,1.8,1.8,0,0,1-1.83.55,7.21,7.21,0,0,1-1,0,2.21,2.21,0,0,1-.72-.36,2,2,0,0,1-1-1.46,1.43,1.43,0,0,1,.33-1,1.34,1.34,0,0,1-.17-.2,1.39,1.39,0,0,1,.24-1.68c.08-.1.23-.25.2-.33s-.22-.22-.28-.31a1.17,1.17,0,0,1-.27-.86c.05-.36.27-.48.5-.71a.59.59,0,0,0,.13-.47,2.12,2.12,0,0,1,.56-1.56l.12-.11a.49.49,0,0,1,.28-.36,2.94,2.94,0,0,1,3.3.22,1.4,1.4,0,0,1,.47,1.5c-.09.25-.32.44-.36.71a1.27,1.27,0,0,0,.2.72,1.85,1.85,0,0,1,.13,1.54,1.34,1.34,0,0,1-.32.43l.09.12A1.42,1.42,0,0,1,61.45,67.78Z"/><path class="cls-16" d="M33.53,96.17c-.15,1.27-11.38,9-9.83,13.4s10.34,5.31,15.93,7c2.34.71,1.72-.83,3.55-1.22,2.53-.53,7-.28,5.78-1.51-2.11-2.1-3-4.57-8.83-4.57-7.5,0-10.33,0-8.25-3.88S36.72,95,35.13,95.58,33.68,94.89,33.53,96.17Z"/><path class="cls-33" d="M33.59,98.27a8.13,8.13,0,0,1-1.94,2.23c-.22.17,0,.54.23.36A8.85,8.85,0,0,0,34,98.47C34.12,98.23,33.73,98,33.59,98.27Z"/><path class="cls-33" d="M32.87,100.37c-.34.54-.67,1.09-1,1.64-.14.24.24.44.38.2.32-.55.64-1.1,1-1.64C33.4,100.34,33,100.14,32.87,100.37Z"/><path class="cls-33" d="M28,110.32a4.36,4.36,0,0,1-1.6-1,1.22,1.22,0,0,1-.51-.77c0-.17,0-.95.33-1s.25-.45,0-.43c-.79,0-.89,1.39-.59,1.93a3.31,3.31,0,0,0,1,.93,4,4,0,0,0,1.33.71C28.12,110.82,28.22,110.4,28,110.32Z"/><path class="cls-33" d="M28.18,109.09c-.28-.14-1.34-.69-1-1.12.16-.22-.15-.51-.32-.29-.59.78.54,1.5,1.13,1.79A.21.21,0,0,0,28.18,109.09Z"/><path class="cls-33" d="M46.07,112.64a7.89,7.89,0,0,0-6.63-1c-.26.08-.13.49.14.41a7.49,7.49,0,0,1,6.29,1C46.1,113.17,46.3,112.79,46.07,112.64Z"/><path class="cls-13" d="M68.43,62.81a3.74,3.74,0,0,0-4.54-.8c-2.73,1.71-3.82,6.41-4.23,10.86,3.49.17,7.73-1,10.41-1.85C70.28,67.59,69.9,64.5,68.43,62.81Z"/><path class="cls-29" d="M72.53,65.19a2.51,2.51,0,0,0-1.75,1.52c-.34,1-.21,2.13-.64,3.13-.09.2.22.36.3.16A9.9,9.9,0,0,0,71,67.47a2.49,2.49,0,0,1,.47-1.26,2.82,2.82,0,0,1,1.21-.69C72.85,65.44,72.74,65.11,72.53,65.19Z"/><path class="cls-24" d="M35.42,93.61c0,.84-.06,1.9-.06,2.57s.3,1.45-.29,1.26c-.75-.25-.65-1.41-.93-2.49S35.42,93.61,35.42,93.61Z"/><path class="cls-32" d="M53,58.8a.92.92,0,0,0-.71-.06,2.89,2.89,0,0,1-1.34,0,.17.17,0,0,0-.08.33,3.19,3.19,0,0,0,.92.08c.32,0,.77-.26,1.06-.09S53.22,58.91,53,58.8Z"/><path class="cls-32" d="M49.1,58.81a.91.91,0,0,1-.94-.08c-.18-.13-.41.12-.23.25a1.29,1.29,0,0,0,1.36.12C49.49,59,49.3,58.71,49.1,58.81Z"/><path class="cls-32" d="M52.44,60.36a.37.37,0,0,1-.54,0c-.16-.15-.39.1-.23.26a.7.7,0,0,0,1-.08C52.83,60.41,52.57,60.18,52.44,60.36Z"/><path class="cls-32" d="M49.14,60.4a.17.17,0,0,0-.24,0s0,0,0,0h0s0,0,0,0h0a.18.18,0,0,0-.21.13.19.19,0,0,0,.13.21.45.45,0,0,0,.4-.12A.16.16,0,0,0,49.14,60.4Z"/><path class="cls-34" d="M50.05,58.59a.22.22,0,0,0-.13-.08h-.06a.32.32,0,0,0-.16,0,.19.19,0,0,0-.06.22l0,0a.64.64,0,0,1,0,.07.4.4,0,0,0,.22.18.17.17,0,0,0,.2-.13A.39.39,0,0,0,50.05,58.59Z"/><path class="cls-34" d="M52.12,63.49a3.85,3.85,0,0,1-.76,0c-.22,0-.3.31-.08.34a4,4,0,0,0,.85,0C52.35,63.81,52.34,63.47,52.12,63.49Z"/><path class="cls-16" d="M37.82,92.57a2.44,2.44,0,0,0-1-1.35,3.75,3.75,0,0,0-1.74-.71c-.22,0-.2.33,0,.34a3.27,3.27,0,0,1,1.45.61,2.16,2.16,0,0,1,1,1.21C37.56,92.88,37.89,92.78,37.82,92.57Z"/><path class="cls-16" d="M38.87,91.62a4.18,4.18,0,0,0-.71-1.09l.21,0a.18.18,0,0,0,.21-.13.17.17,0,0,0-.13-.2l-.4-.06a.18.18,0,0,0-.18.07,4.31,4.31,0,0,0-2.59-1.13c-.22,0-.2.33,0,.35a3.87,3.87,0,0,1,1.07.24.36.36,0,0,0-.16.2.18.18,0,0,0,.13.21h0a.09.09,0,0,1,0,0,.17.17,0,0,0,.32,0l.1-.26v0h0a4,4,0,0,1,1.39,1.21.15.15,0,0,0,0,.09c0,.17-.05.34-.07.52a.17.17,0,0,0,.13.2.19.19,0,0,0,.21-.13l0-.26a1.51,1.51,0,0,1,.11.22C38.63,91.93,39,91.82,38.87,91.62Z"/><path class="cls-32" d="M57.72,59.2c-.31.78-1.15,2.08-.88,2.69s2.82-1,2.82-1l-1.14-2.22Z"/><path class="cls-35" d="M61.34,57.55c-.05.33-.46.43-.73.5a3.89,3.89,0,0,0-1.49.44,4.14,4.14,0,0,0-.64.55,1.61,1.61,0,0,1-.39.39.38.38,0,0,1-.56-.23.59.59,0,0,1,0-.45,1.45,1.45,0,0,0,0-.85,1.11,1.11,0,0,1,.18-.87,1.13,1.13,0,0,1,.54-1,2.26,2.26,0,0,1,1.19-.4.47.47,0,0,1,.47.48c0,.24-.31.4-.41.58a3,3,0,0,1,1.19.14C61,57,61.39,57.21,61.34,57.55Z"/><path class="cls-24" d="M55.92,56.7c.53-1.09,1.49-1.74,2-.8s-.42,3.72-1,3.47S55.8,56.93,55.92,56.7Z"/><g class="cls-36"><path class="cls-26" d="M71.63,68.8a50.32,50.32,0,0,1-12.55,1.92c-.22,0-.2.35,0,.34a49.62,49.62,0,0,0,12.64-1.94C72,69.06,71.84,68.73,71.63,68.8Z"/><path class="cls-28" d="M61.1,66.72a1.49,1.49,0,0,0-1.05-.2.52.52,0,0,0-.32.9l.07.08a.51.51,0,0,0,.65,0h0a.52.52,0,0,0,.4.58.53.53,0,0,0,.62-.39A1,1,0,0,0,61.1,66.72Z"/><path class="cls-28" d="M65.49,65.48a.54.54,0,0,0-.72-.15.1.1,0,0,1,0,0h0a.37.37,0,0,0-.07-.14.52.52,0,0,0-.71-.15c-.5.34-.25,1,.23,1.21a1.18,1.18,0,0,0,1.2-.1A.54.54,0,0,0,65.49,65.48Z"/><path class="cls-28" d="M67.83,67.46a1,1,0,0,0-1.68.32.52.52,0,0,0,.92.48.15.15,0,0,1,0-.07h0l0,0a.52.52,0,0,0,.69-.77Z"/><path class="cls-28" d="M70.67,65A.59.59,0,0,1,70,65a.53.53,0,0,0-.7.22.53.53,0,0,0,.22.7,1.62,1.62,0,0,0,1.71,0A.52.52,0,0,0,70.67,65Z"/><path class="cls-28" d="M70.6,62.7a.52.52,0,0,0-.54-.49,1.23,1.23,0,0,0-.78.29,3.61,3.61,0,0,0-1.16.73.52.52,0,0,0,0,.73.53.53,0,0,0,.73,0,2.32,2.32,0,0,1,.46-.31.53.53,0,0,0,.54-.22.58.58,0,0,0,.19-.15h0A.53.53,0,0,0,70.6,62.7Z"/><path class="cls-28" d="M70.09,63.24Z"/></g><path class="cls-16" d="M60.14,122.5c3.33-1.75,7.57-2.24,9.82,0a21.28,21.28,0,0,0,6,3.77,12.78,12.78,0,0,1-7.9,1C64,126.27,60.14,122.5,60.14,122.5Z"/><path class="cls-33" d="M73,125.6a7,7,0,0,1-4.63.24c-1.45-.44-2.59-1.68-4.11-1.87-.27,0-.37.38-.09.42a5.72,5.72,0,0,1,2.25,1,7.62,7.62,0,0,0,2.13.93,7.33,7.33,0,0,0,4.58-.32C73.34,125.9,73.21,125.49,73,125.6Z"/></svg>