<svg id="मकड़ी" xmlns="http://www.w3.org/2000/svg" viewBox="0 0 150 160"><defs><style>.cls-1{fill:#fff;stroke:#fff;stroke-miterlimit:10;stroke-width:5px;}.cls-1,.cls-2,.cls-3,.cls-4,.cls-5,.cls-6,.cls-7{fill-rule:evenodd;}.cls-2{fill:#601f10;}.cls-3{fill:#6d2c1e;}.cls-4{fill:#7a392c;}.cls-5{fill:#2d2d2c;}.cls-6{fill:#ebebeb;}.cls-7{fill:#a34f3d;}</style></defs><path class="cls-1" d="M132.44,105.44a107,107,0,0,1-20.52-18.37,87.18,87.18,0,0,1-24,.7A21.77,21.77,0,0,0,86.44,86a100.79,100.79,0,0,0,29.47-10.84c.46-9.37,2-18.75,7.08-28.12,1.24-2.3-1.27-2.08-2-.78-4.9,8.64-6.41,17.48-7,26.37A92.4,92.4,0,0,1,83,83l-.14-.08a9.6,9.6,0,0,0,1.54-5.28,102.88,102.88,0,0,1,18.9-20.52c-2.53-11-4.79-22-3.35-34,.29-2.29-1.86-1.44-2.11,0-1.76,11.24.28,22.13,2.54,33a58.67,58.67,0,0,0-17,16.15,11.67,11.67,0,0,0-2.51-3.86,2.51,2.51,0,0,0,.09-.62A2.33,2.33,0,0,0,77,66.1a7.73,7.73,0,0,0-2-.28,7.5,7.5,0,0,0-2,.28,2.32,2.32,0,0,0-3.91,1.66,2.58,2.58,0,0,0,.09.62,11.67,11.67,0,0,0-2.51,3.86,58.54,58.54,0,0,0-17-16.15c2.29-10.86,4.34-21.75,2.54-33C52,21.65,49.82,21,50.06,23c1.52,12-.77,23.12-3.31,34.15a102.58,102.58,0,0,1,18.9,20.52,9.53,9.53,0,0,0,1.54,5.26L67,83a92.57,92.57,0,0,1-31-10.39c-.67-9-2.19-18-7.23-26.65-.49-.85-3.06-1.2-1.94.91,5.15,9.42,6.74,18.86,7.2,28.27A100.15,100.15,0,0,0,63.58,86a18.24,18.24,0,0,0-1.45,1.81A87.71,87.71,0,0,1,38,87.07a106,106,0,0,1-20.9,18.68c-1,.67-1.09,2.61,1.09,1.34a68.41,68.41,0,0,0,20.59-17.8A58.09,58.09,0,0,0,60,91.57,25.06,25.06,0,0,0,58,98.4a76,76,0,0,1-11.61,6.12,108.7,108.7,0,0,1-11.24,31.09c-1.62,3,.28,3.63,2,.88C43.86,126.23,47.7,116,49.11,105.72a71.66,71.66,0,0,0,8.69-3.34c.17,11.66,7.77,21,17.18,21a14.75,14.75,0,0,0,9-3.14l.1,0A19.82,19.82,0,0,0,89.28,114h0c.29-.55.57-1.12.83-1.7a1.54,1.54,0,0,1,.08-.19c.23-.54.45-1.1.64-1.67l0-.11c.19-.59.36-1.18.52-1.78l.09-.37q.21-.86.36-1.74a.59.59,0,0,0,0-.14c.1-.61.18-1.24.23-1.88,0-.15,0-.3,0-.45,0-.51.06-1,.07-1.55a72.52,72.52,0,0,0,8.68,3.33c1.38,10.29,5.25,20.55,11.88,30.81,1.8,2.78,3.67,2.22,1.83-1.34a109.39,109.39,0,0,1-11.06-30.67A76.33,76.33,0,0,1,92,98.42c0-.23-.07-.47-.1-.7a.17.17,0,0,1,0-.07c-.11-.66-.25-1.3-.4-1.93a2.5,2.5,0,0,0-.07-.26,23.49,23.49,0,0,0-1.35-3.89,58.06,58.06,0,0,0,21.13-2.28A69.15,69.15,0,0,0,131.56,107C133.92,108.36,134.1,106.6,132.44,105.44Z"/><path class="cls-2" d="M66.74,91.3c-5.54,5.75-12.52,9.87-20.31,13.22a108.7,108.7,0,0,1-11.24,31.09c-1.62,3,.28,3.63,2,.88C43.86,126.23,47.7,116,49.11,105.72c7.72-2.43,14.35-5.71,19.53-10.12-.64-1.41-1.27-2.85-1.9-4.3Zm16.53,0c5.5,5.75,12.51,9.87,20.27,13.22a109.39,109.39,0,0,0,11.06,30.67c1.84,3.56,0,4.12-1.83,1.34-6.63-10.26-10.5-20.52-11.88-30.81C93.14,103.29,86.55,100,81.36,95.6c.64-1.41,1.27-2.85,1.91-4.3ZM82.56,87a83.72,83.72,0,0,0,29.36.1,107,107,0,0,0,20.52,18.37c1.66,1.16,1.48,2.92-.88,1.55a69.15,69.15,0,0,1-20.38-17.7A60.18,60.18,0,0,1,82.46,90.6c0-1.2.07-2.43.1-3.63Zm-1.37,0a103.15,103.15,0,0,0,34.72-11.81c.46-9.37,2-18.75,7.08-28.12,1.24-2.3-1.27-2.08-2-.78-4.9,8.64-6.41,17.48-7,26.37A93,93,0,0,1,80.66,83.34l.53,3.59ZM82,81.05c5.78-8.5,12.34-16.68,21.29-23.94-2.53-11-4.79-22-3.35-34,.29-2.29-1.86-1.44-2.11,0-1.76,11.24.28,22.13,2.54,33-9.87,6.06-16.18,14.28-21.54,23L82,81.05ZM67.44,87a84,84,0,0,1-29.4.1,106,106,0,0,1-20.9,18.68c-1,.67-1.09,2.61,1.09,1.34a68.41,68.41,0,0,0,20.59-17.8A60.22,60.22,0,0,0,67.55,90.6c0-1.2-.07-2.43-.11-3.63Zm1.34,0A102.85,102.85,0,0,1,34.1,75.12c-.46-9.41-2.05-18.85-7.2-28.27-1.12-2.11,1.45-1.76,1.94-.91,5,8.7,6.56,17.66,7.23,26.65A93.08,93.08,0,0,0,69.34,83.34c-.17,1.2-.38,2.39-.56,3.59ZM68,81.05c-5.78-8.5-12.34-16.68-21.29-23.94C49.29,46.08,51.58,35,50.06,23c-.24-2,1.91-1.31,2.12.14,1.8,11.24-.25,22.13-2.54,33,9.91,6.06,16.21,14.28,21.57,23L68,81.05Z"/><path class="cls-3" d="M75,80.55c9.52,0,17.24,9.59,17.24,21.43S84.5,123.41,75,123.41s-17.2-9.58-17.2-21.43S65.47,80.55,75,80.55Z"/><path class="cls-4" d="M83.3,83.2c5.33,3.63,8.92,10.68,8.92,18.78,0,7.72-3.28,14.49-8.18,18.26-13.29,3.74-17.23-4.93-18.11-13.6-.5-4.8-1.84-19.18,5.92-18.4,8.46.84,10.64-3.42,11.45-5Z"/><path class="cls-4" d="M75,65.82c5.19,0,9.38,5.21,9.38,11.63,0,12.55-18.72,12.51-18.72,0,0-6.42,4.2-11.63,9.34-11.63Z"/><path class="cls-5" d="M71.39,65.47a2.31,2.31,0,1,1-2.33,2.29,2.28,2.28,0,0,1,2.33-2.29Z"/><path class="cls-6" d="M71.71,66.24a.75.75,0,0,1,.74.74.77.77,0,0,1-.74.74A.74.74,0,0,1,71,67a.72.72,0,0,1,.74-.74Z"/><path class="cls-5" d="M78.61,65.47a2.31,2.31,0,1,1-2.32,2.29,2.32,2.32,0,0,1,2.32-2.29Z"/><path class="cls-6" d="M78.93,66.24a.73.73,0,0,1,.74.74.74.74,0,0,1-1.48,0,.73.73,0,0,1,.74-.74Z"/><path class="cls-7" d="M86.55,92c.56-.35,7.47,8.74-1.7,23.13,2.65-7.72,4-15.41,1.7-23.13Z"/></svg>