<svg id="Layer_1" data-name="Layer 1" xmlns="http://www.w3.org/2000/svg" viewBox="0 0 150 160"><defs><style>.cls-1{fill:#fff;stroke:#fff;stroke-miterlimit:10;stroke-width:5px;}.cls-2{fill:#d53d33;}.cls-3{fill:gray;}.cls-4{fill:#505050;}.cls-5{fill:#606060;}.cls-6{fill:#303030;}.cls-7{fill:#d5e5e6;}.cls-8{fill:#e0e0e0;}.cls-9{fill:#d0d0d0;}.cls-10{opacity:0.2;}</style></defs><g id="मच्छर"><path class="cls-1" d="M77.06,40.75A2.08,2.08,0,1,1,74.68,39,1.66,1.66,0,0,1,75,39,1.93,1.93,0,0,1,77.06,40.75Z"/><path class="cls-1" d="M55.54,121a1.13,1.13,0,0,1-.44-.1,1,1,0,0,1-.48-1.33v0L66.84,94.21,64.38,80.73a1,1,0,0,1,.29-.91l8.07-7.69a1,1,0,1,1,1.39,1.46L66.46,80.9l2.42,13.27a1,1,0,0,1-.08.61L56.45,120.44A1,1,0,0,1,55.54,121Z"/><path class="cls-1" d="M45.21,102.46a1,1,0,0,1-.78-1.65h0L57.12,86l4.73-10.94a1,1,0,0,1,.58-.55L72.9,70.73a1,1,0,0,1,.69,1.9L63.52,76.29,58.91,87a.82.82,0,0,1-.16.25L46,102.11A1,1,0,0,1,45.21,102.46Z"/><path class="cls-1" d="M72.39,67.25a.78.78,0,0,1-.47-.16L65.05,62a.79.79,0,0,1-.33-.65V53.91L59,46.15A.79.79,0,0,1,59.14,45l.06,0a.79.79,0,0,1,1.12.16h0l5.85,8a.81.81,0,0,1,.16.47V61l6.53,4.8A.8.8,0,0,1,73,66.92.79.79,0,0,1,72.39,67.25Z"/><path class="cls-1" d="M72.27,61.69v7.18A2.77,2.77,0,0,0,75,71.63V58.92A2.77,2.77,0,0,0,72.27,61.69Z"/><path class="cls-1" d="M75,55.21H73.17a2.29,2.29,0,0,0,0,4.58H75Z"/><path class="cls-1" d="M94.46,121a1.13,1.13,0,0,0,.44-.1,1,1,0,0,0,.48-1.33v0L83.16,94.21l2.46-13.48a1,1,0,0,0-.29-.91l-8.07-7.69a1,1,0,1,0-1.39,1.46l7.67,7.31L81.12,94.17a1,1,0,0,0,.08.61l12.35,25.66A1,1,0,0,0,94.46,121Z"/><path class="cls-1" d="M104.79,102.46a1,1,0,0,0,.78-1.65h0L92.88,86,88.15,75.09a1,1,0,0,0-.58-.55L77.1,70.73a1,1,0,0,0-.69,1.9l10.07,3.66L91.09,87a.82.82,0,0,0,.16.25L104,102.11A1,1,0,0,0,104.79,102.46Z"/><path class="cls-1" d="M77.61,67.25a.78.78,0,0,0,.47-.16L85,62a.79.79,0,0,0,.33-.65V53.91L91,46.15A.79.79,0,0,0,90.86,45l-.06,0a.79.79,0,0,0-1.12.16h0l-5.85,8a.81.81,0,0,0-.16.47V61l-6.53,4.8A.8.8,0,0,0,77,66.92.79.79,0,0,0,77.61,67.25Z"/><path class="cls-1" d="M75,58.92a2.77,2.77,0,0,1,2.73,2.77v7.18A2.77,2.77,0,0,1,75,71.63Z"/><path class="cls-1" d="M75,58.92a2.77,2.77,0,0,0-2.73,2.77v7.18a2.73,2.73,0,1,0,5.46,0h0V61.69A2.77,2.77,0,0,0,75,58.92Z"/><path class="cls-1" d="M75,40.58a1,1,0,0,0-1,1s.43,13.16,1,13.76c.54-.6,1-13.76,1-13.76A1,1,0,0,0,75,40.58Z"/><path class="cls-1" d="M75,70.73a1.81,1.81,0,0,0-1.76,1.79V87a1.76,1.76,0,0,0,3.52,0h0V72.52A1.81,1.81,0,0,0,75,70.73Z"/><path class="cls-1" d="M75,68.48c.77-3.72,14.34-6.68,31-6.68,17.12,0,33.52-1.73,33.52,2.14S123.09,75.83,106,75.83c-16.63,0-30.2-3-31-6.68Z"/><path class="cls-1" d="M75,55.21h1.83a2.29,2.29,0,1,1,0,4.58H75Z"/><path class="cls-1" d="M76.83,55.21H73.17a2.29,2.29,0,0,0,0,4.58h3.66a2.29,2.29,0,1,0,0-4.58Z"/><path class="cls-1" d="M75.82,56.48a1.92,1.92,0,1,0,1.92-1.92h0a1.92,1.92,0,0,0-1.91,1.91Z"/><path class="cls-1" d="M74.18,56.48a1.92,1.92,0,1,1-1.92-1.92h0a1.92,1.92,0,0,1,1.91,1.91Z"/><path class="cls-1" d="M75,68.48c-.77-3.72-14.34-6.68-31-6.68-17.12,0-33.52-1.73-33.52,2.14S26.91,75.83,44,75.83c16.63,0,30.2-3,31-6.68Z"/><path class="cls-1" d="M74,41.58s.4,12.16.91,13.63H73.69a1.9,1.9,0,0,0-1.42-.65,1.92,1.92,0,0,0-1.92,1.92,1.9,1.9,0,0,0,.56,1.35A2.28,2.28,0,0,0,73,59.77a2.75,2.75,0,0,0-.77,1.92v3.66L66.34,61V53.64a.81.81,0,0,0-.16-.47l-5.85-8A.8.8,0,0,0,59.21,45h0A.78.78,0,0,0,59,46.09l0,.06,5.69,7.76v7.48A.79.79,0,0,0,65,62l3.28,2.42C62.65,62.84,53.88,61.8,44,61.8c-17.12,0-33.52-1.73-33.52,2.14S26.91,75.83,44,75.83a113.1,113.1,0,0,0,18.83-1.45l-.43.16a1,1,0,0,0-.58.55L57.12,86,44.44,100.8a1,1,0,0,0,.1,1.41h0a1,1,0,0,0,.66.24,1,1,0,0,0,.76-.35L58.75,87.22a.82.82,0,0,0,.16-.25l4.61-10.68,7.85-2.86-6.7,6.39a1,1,0,0,0-.29.91l2.46,13.48L54.63,119.57a1,1,0,0,0,.45,1.34h0a1.13,1.13,0,0,0,.44.1,1,1,0,0,0,.91-.58L68.8,94.78a1,1,0,0,0,.08-.61L66.46,80.9l6.78-6.47V87A1.8,1.8,0,0,0,75,88.77V40.58A1,1,0,0,0,74,41.58Z"/><path class="cls-1" d="M77.06,40.75A2.08,2.08,0,1,1,74.68,39,1.66,1.66,0,0,1,75,39,1.93,1.93,0,0,1,77.06,40.75Z"/><path class="cls-1" d="M55.54,121a1.13,1.13,0,0,1-.44-.1,1,1,0,0,1-.48-1.33v0L66.84,94.21,64.38,80.73a1,1,0,0,1,.29-.91l8.07-7.69a1,1,0,1,1,1.39,1.46L66.46,80.9l2.42,13.27a1,1,0,0,1-.08.61L56.45,120.44A1,1,0,0,1,55.54,121Z"/><path class="cls-1" d="M45.21,102.46a1,1,0,0,1-.78-1.65h0L57.12,86l4.73-10.94a1,1,0,0,1,.58-.55L72.9,70.73a1,1,0,0,1,.69,1.9L63.52,76.29,58.91,87a.82.82,0,0,1-.16.25L46,102.11A1,1,0,0,1,45.21,102.46Z"/><path class="cls-1" d="M72.39,67.25a.78.78,0,0,1-.47-.16L65.05,62a.79.79,0,0,1-.33-.65V53.91L59,46.15A.79.79,0,0,1,59.14,45l.06,0a.79.79,0,0,1,1.12.16h0l5.85,8a.81.81,0,0,1,.16.47V61l6.53,4.8A.8.8,0,0,1,73,66.92.79.79,0,0,1,72.39,67.25Z"/><path class="cls-1" d="M72.27,61.69v7.18A2.77,2.77,0,0,0,75,71.63V58.92A2.77,2.77,0,0,0,72.27,61.69Z"/><path class="cls-1" d="M75,55.21H73.17a2.29,2.29,0,0,0,0,4.58H75Z"/><path class="cls-1" d="M94.46,121a1.13,1.13,0,0,0,.44-.1,1,1,0,0,0,.48-1.33v0L83.16,94.21l2.46-13.48a1,1,0,0,0-.29-.91l-8.07-7.69a1,1,0,1,0-1.39,1.46l7.67,7.31L81.12,94.17a1,1,0,0,0,.08.61l12.35,25.66A1,1,0,0,0,94.46,121Z"/><path class="cls-1" d="M104.79,102.46a1,1,0,0,0,.78-1.65h0L92.88,86,88.15,75.09a1,1,0,0,0-.58-.55L77.1,70.73a1,1,0,0,0-.69,1.9l10.07,3.66L91.09,87a.82.82,0,0,0,.16.25L104,102.11A1,1,0,0,0,104.79,102.46Z"/><path class="cls-1" d="M77.61,67.25a.78.78,0,0,0,.47-.16L85,62a.79.79,0,0,0,.33-.65V53.91L91,46.15A.79.79,0,0,0,90.86,45l-.06,0a.79.79,0,0,0-1.12.16h0l-5.85,8a.81.81,0,0,0-.16.47V61l-6.53,4.8A.8.8,0,0,0,77,66.92.79.79,0,0,0,77.61,67.25Z"/><path class="cls-1" d="M75,58.92a2.77,2.77,0,0,1,2.73,2.77v7.18A2.77,2.77,0,0,1,75,71.63Z"/><path class="cls-1" d="M75,58.92a2.77,2.77,0,0,0-2.73,2.77v7.18a2.73,2.73,0,1,0,5.46,0h0V61.69A2.77,2.77,0,0,0,75,58.92Z"/><path class="cls-1" d="M75,40.58a1,1,0,0,0-1,1s.43,13.16,1,13.76c.54-.6,1-13.76,1-13.76A1,1,0,0,0,75,40.58Z"/><path class="cls-1" d="M75,70.73a1.81,1.81,0,0,0-1.76,1.79V87a1.76,1.76,0,0,0,3.52,0h0V72.52A1.81,1.81,0,0,0,75,70.73Z"/><path class="cls-1" d="M75,68.48c.77-3.72,14.34-6.68,31-6.68,17.12,0,33.52-1.73,33.52,2.14S123.09,75.83,106,75.83c-16.63,0-30.2-3-31-6.68Z"/><path class="cls-1" d="M75,55.21h1.83a2.29,2.29,0,1,1,0,4.58H75Z"/><path class="cls-1" d="M76.83,55.21H73.17a2.29,2.29,0,0,0,0,4.58h3.66a2.29,2.29,0,1,0,0-4.58Z"/><path class="cls-1" d="M75.82,56.48a1.92,1.92,0,1,0,1.92-1.92h0a1.92,1.92,0,0,0-1.91,1.91Z"/><path class="cls-1" d="M74.18,56.48a1.92,1.92,0,1,1-1.92-1.92h0a1.92,1.92,0,0,1,1.91,1.91Z"/><path class="cls-1" d="M75,68.48c-.77-3.72-14.34-6.68-31-6.68-17.12,0-33.52-1.73-33.52,2.14S26.91,75.83,44,75.83c16.63,0,30.2-3,31-6.68Z"/><path class="cls-1" d="M74,41.58s.4,12.16.91,13.63H73.69a1.9,1.9,0,0,0-1.42-.65,1.92,1.92,0,0,0-1.92,1.92,1.9,1.9,0,0,0,.56,1.35A2.28,2.28,0,0,0,73,59.77a2.75,2.75,0,0,0-.77,1.92v3.66L66.34,61V53.64a.81.81,0,0,0-.16-.47l-5.85-8A.8.8,0,0,0,59.21,45h0A.78.78,0,0,0,59,46.09l0,.06,5.69,7.76v7.48A.79.79,0,0,0,65,62l3.28,2.42C62.65,62.84,53.88,61.8,44,61.8c-17.12,0-33.52-1.73-33.52,2.14S26.91,75.83,44,75.83a113.1,113.1,0,0,0,18.83-1.45l-.43.16a1,1,0,0,0-.58.55L57.12,86,44.44,100.8a1,1,0,0,0,.1,1.41h0a1,1,0,0,0,.66.24,1,1,0,0,0,.76-.35L58.75,87.22a.82.82,0,0,0,.16-.25l4.61-10.68,7.85-2.86-6.7,6.39a1,1,0,0,0-.29.91l2.46,13.48L54.63,119.57a1,1,0,0,0,.45,1.34h0a1.13,1.13,0,0,0,.44.1,1,1,0,0,0,.91-.58L68.8,94.78a1,1,0,0,0,.08-.61L66.46,80.9l6.78-6.47V87A1.8,1.8,0,0,0,75,88.77V40.58A1,1,0,0,0,74,41.58Z"/><path class="cls-2" d="M77.06,40.75A2.08,2.08,0,1,1,74.68,39,1.66,1.66,0,0,1,75,39,1.93,1.93,0,0,1,77.06,40.75Z"/><path class="cls-3" d="M55.54,121a1.13,1.13,0,0,1-.44-.1,1,1,0,0,1-.48-1.33v0L66.84,94.21,64.38,80.73a1,1,0,0,1,.29-.91l8.07-7.69a1,1,0,1,1,1.39,1.46L66.46,80.9l2.42,13.27a1,1,0,0,1-.08.61L56.45,120.44A1,1,0,0,1,55.54,121Z"/><path class="cls-3" d="M45.21,102.46a1,1,0,0,1-.78-1.65h0L57.12,86l4.73-10.94a1,1,0,0,1,.58-.55L72.9,70.73a1,1,0,0,1,.69,1.9L63.52,76.29,58.91,87a.82.82,0,0,1-.16.25L46,102.11A1,1,0,0,1,45.21,102.46Z"/><path class="cls-3" d="M72.39,67.25a.78.78,0,0,1-.47-.16L65.05,62a.79.79,0,0,1-.33-.65V53.91L59,46.15A.79.79,0,0,1,59.14,45l.06,0a.79.79,0,0,1,1.12.16h0l5.85,8a.81.81,0,0,1,.16.47V61l6.53,4.8A.8.8,0,0,1,73,66.92.79.79,0,0,1,72.39,67.25Z"/><path class="cls-4" d="M72.27,61.69v7.18A2.77,2.77,0,0,0,75,71.63V58.92A2.77,2.77,0,0,0,72.27,61.69Z"/><path class="cls-5" d="M75,55.21H73.17a2.29,2.29,0,0,0,0,4.58H75Z"/><path class="cls-3" d="M94.46,121a1.13,1.13,0,0,0,.44-.1,1,1,0,0,0,.48-1.33v0L83.16,94.21l2.46-13.48a1,1,0,0,0-.29-.91l-8.07-7.69a1,1,0,1,0-1.39,1.46l7.67,7.31L81.12,94.17a1,1,0,0,0,.08.61l12.35,25.66A1,1,0,0,0,94.46,121Z"/><path class="cls-3" d="M104.79,102.46a1,1,0,0,0,.78-1.65h0L92.88,86,88.15,75.09a1,1,0,0,0-.58-.55L77.1,70.73a1,1,0,0,0-.69,1.9l10.07,3.66L91.09,87a.82.82,0,0,0,.16.25L104,102.11A1,1,0,0,0,104.79,102.46Z"/><path class="cls-3" d="M77.61,67.25a.78.78,0,0,0,.47-.16L85,62a.79.79,0,0,0,.33-.65V53.91L91,46.15A.79.79,0,0,0,90.86,45l-.06,0a.79.79,0,0,0-1.12.16h0l-5.85,8a.81.81,0,0,0-.16.47V61l-6.53,4.8A.8.8,0,0,0,77,66.92.79.79,0,0,0,77.61,67.25Z"/><path class="cls-4" d="M75,58.92a2.77,2.77,0,0,1,2.73,2.77v7.18A2.77,2.77,0,0,1,75,71.63Z"/><path class="cls-4" d="M75,58.92a2.77,2.77,0,0,0-2.73,2.77v7.18a2.73,2.73,0,1,0,5.46,0h0V61.69A2.77,2.77,0,0,0,75,58.92Z"/><path class="cls-6" d="M75,40.58a1,1,0,0,0-1,1s.43,13.16,1,13.76c.54-.6,1-13.76,1-13.76A1,1,0,0,0,75,40.58Z"/><path class="cls-5" d="M75,70.73a1.81,1.81,0,0,0-1.76,1.79V87a1.76,1.76,0,0,0,3.52,0h0V72.52A1.81,1.81,0,0,0,75,70.73Z"/><path class="cls-7" d="M75,68.48c.77-3.72,14.34-6.68,31-6.68,17.12,0,33.52-1.73,33.52,2.14S123.09,75.83,106,75.83c-16.63,0-30.2-3-31-6.68Z"/><path class="cls-5" d="M75,55.21h1.83a2.29,2.29,0,1,1,0,4.58H75Z"/><path class="cls-5" d="M76.83,55.21H73.17a2.29,2.29,0,0,0,0,4.58h3.66a2.29,2.29,0,1,0,0-4.58Z"/><path class="cls-8" d="M75.82,56.48a1.92,1.92,0,1,0,1.92-1.92h0a1.92,1.92,0,0,0-1.91,1.91Z"/><path class="cls-8" d="M74.18,56.48a1.92,1.92,0,1,1-1.92-1.92h0a1.92,1.92,0,0,1,1.91,1.91Z"/><path class="cls-7" d="M75,68.48c-.77-3.72-14.34-6.68-31-6.68-17.12,0-33.52-1.73-33.52,2.14S26.91,75.83,44,75.83c16.63,0,30.2-3,31-6.68Z"/><path class="cls-9" d="M74,41.58s.4,12.16.91,13.63H73.69a1.9,1.9,0,0,0-1.42-.65,1.92,1.92,0,0,0-1.92,1.92,1.9,1.9,0,0,0,.56,1.35A2.28,2.28,0,0,0,73,59.77a2.75,2.75,0,0,0-.77,1.92v3.66L66.34,61V53.64a.81.81,0,0,0-.16-.47l-5.85-8A.8.8,0,0,0,59.21,45h0A.78.78,0,0,0,59,46.09l0,.06,5.69,7.76v7.48A.79.79,0,0,0,65,62l3.28,2.42C62.65,62.84,53.88,61.8,44,61.8c-17.12,0-33.52-1.73-33.52,2.14S26.91,75.83,44,75.83a113.1,113.1,0,0,0,18.83-1.45l-.43.16a1,1,0,0,0-.58.55L57.12,86,44.44,100.8a1,1,0,0,0,.1,1.41h0a1,1,0,0,0,.66.24,1,1,0,0,0,.76-.35L58.75,87.22a.82.82,0,0,0,.16-.25l4.61-10.68,7.85-2.86-6.7,6.39a1,1,0,0,0-.29.91l2.46,13.48L54.63,119.57a1,1,0,0,0,.45,1.34h0a1.13,1.13,0,0,0,.44.1,1,1,0,0,0,.91-.58L68.8,94.78a1,1,0,0,0,.08-.61L66.46,80.9l6.78-6.47V87A1.8,1.8,0,0,0,75,88.77V40.58A1,1,0,0,0,74,41.58Z"/><path class="cls-2" d="M77.06,40.75A2.08,2.08,0,1,1,74.68,39,1.66,1.66,0,0,1,75,39,1.93,1.93,0,0,1,77.06,40.75Z"/><path class="cls-3" d="M55.54,121a1.13,1.13,0,0,1-.44-.1,1,1,0,0,1-.48-1.33v0L66.84,94.21,64.38,80.73a1,1,0,0,1,.29-.91l8.07-7.69a1,1,0,1,1,1.39,1.46L66.46,80.9l2.42,13.27a1,1,0,0,1-.08.61L56.45,120.44A1,1,0,0,1,55.54,121Z"/><path class="cls-3" d="M45.21,102.46a1,1,0,0,1-.78-1.65h0L57.12,86l4.73-10.94a1,1,0,0,1,.58-.55L72.9,70.73a1,1,0,0,1,.69,1.9L63.52,76.29,58.91,87a.82.82,0,0,1-.16.25L46,102.11A1,1,0,0,1,45.21,102.46Z"/><path class="cls-3" d="M72.39,67.25a.78.78,0,0,1-.47-.16L65.05,62a.79.79,0,0,1-.33-.65V53.91L59,46.15A.79.79,0,0,1,59.14,45l.06,0a.79.79,0,0,1,1.12.16h0l5.85,8a.81.81,0,0,1,.16.47V61l6.53,4.8A.8.8,0,0,1,73,66.92.79.79,0,0,1,72.39,67.25Z"/><path class="cls-4" d="M72.27,61.69v7.18A2.77,2.77,0,0,0,75,71.63V58.92A2.77,2.77,0,0,0,72.27,61.69Z"/><path class="cls-5" d="M75,55.21H73.17a2.29,2.29,0,0,0,0,4.58H75Z"/><path class="cls-3" d="M94.46,121a1.13,1.13,0,0,0,.44-.1,1,1,0,0,0,.48-1.33v0L83.16,94.21l2.46-13.48a1,1,0,0,0-.29-.91l-8.07-7.69a1,1,0,1,0-1.39,1.46l7.67,7.31L81.12,94.17a1,1,0,0,0,.08.61l12.35,25.66A1,1,0,0,0,94.46,121Z"/><path class="cls-3" d="M104.79,102.46a1,1,0,0,0,.78-1.65h0L92.88,86,88.15,75.09a1,1,0,0,0-.58-.55L77.1,70.73a1,1,0,0,0-.69,1.9l10.07,3.66L91.09,87a.82.82,0,0,0,.16.25L104,102.11A1,1,0,0,0,104.79,102.46Z"/><path class="cls-3" d="M77.61,67.25a.78.78,0,0,0,.47-.16L85,62a.79.79,0,0,0,.33-.65V53.91L91,46.15A.79.79,0,0,0,90.86,45l-.06,0a.79.79,0,0,0-1.12.16h0l-5.85,8a.81.81,0,0,0-.16.47V61l-6.53,4.8A.8.8,0,0,0,77,66.92.79.79,0,0,0,77.61,67.25Z"/><path class="cls-4" d="M75,58.92a2.77,2.77,0,0,1,2.73,2.77v7.18A2.77,2.77,0,0,1,75,71.63Z"/><path class="cls-4" d="M75,58.92a2.77,2.77,0,0,0-2.73,2.77v7.18a2.73,2.73,0,1,0,5.46,0h0V61.69A2.77,2.77,0,0,0,75,58.92Z"/><path class="cls-6" d="M75,40.58a1,1,0,0,0-1,1s.43,13.16,1,13.76c.54-.6,1-13.76,1-13.76A1,1,0,0,0,75,40.58Z"/><path class="cls-5" d="M75,70.73a1.81,1.81,0,0,0-1.76,1.79V87a1.76,1.76,0,0,0,3.52,0h0V72.52A1.81,1.81,0,0,0,75,70.73Z"/><path class="cls-7" d="M75,68.48c.77-3.72,14.34-6.68,31-6.68,17.12,0,33.52-1.73,33.52,2.14S123.09,75.83,106,75.83c-16.63,0-30.2-3-31-6.68Z"/><path class="cls-5" d="M75,55.21h1.83a2.29,2.29,0,1,1,0,4.58H75Z"/><path class="cls-5" d="M76.83,55.21H73.17a2.29,2.29,0,0,0,0,4.58h3.66a2.29,2.29,0,1,0,0-4.58Z"/><path class="cls-8" d="M75.82,56.48a1.92,1.92,0,1,0,1.92-1.92h0a1.92,1.92,0,0,0-1.91,1.91Z"/><path class="cls-8" d="M74.18,56.48a1.92,1.92,0,1,1-1.92-1.92h0a1.92,1.92,0,0,1,1.91,1.91Z"/><path class="cls-7" d="M75,68.48c-.77-3.72-14.34-6.68-31-6.68-17.12,0-33.52-1.73-33.52,2.14S26.91,75.83,44,75.83c16.63,0,30.2-3,31-6.68Z"/><path class="cls-10" d="M74,41.58s.4,12.16.91,13.63H73.69a1.9,1.9,0,0,0-1.42-.65,1.92,1.92,0,0,0-1.92,1.92,1.9,1.9,0,0,0,.56,1.35A2.28,2.28,0,0,0,73,59.77a2.75,2.75,0,0,0-.77,1.92v3.66L66.34,61V53.64a.81.81,0,0,0-.16-.47l-5.85-8A.8.8,0,0,0,59.21,45h0A.78.78,0,0,0,59,46.09l0,.06,5.69,7.76v7.48A.79.79,0,0,0,65,62l3.28,2.42C62.65,62.84,53.88,61.8,44,61.8c-17.12,0-33.52-1.73-33.52,2.14S26.91,75.83,44,75.83a113.1,113.1,0,0,0,18.83-1.45l-.43.16a1,1,0,0,0-.58.55L57.12,86,44.44,100.8a1,1,0,0,0,.1,1.41h0a1,1,0,0,0,.66.24,1,1,0,0,0,.76-.35L58.75,87.22a.82.82,0,0,0,.16-.25l4.61-10.68,7.85-2.86-6.7,6.39a1,1,0,0,0-.29.91l2.46,13.48L54.63,119.57a1,1,0,0,0,.45,1.34h0a1.13,1.13,0,0,0,.44.1,1,1,0,0,0,.91-.58L68.8,94.78a1,1,0,0,0,.08-.61L66.46,80.9l6.78-6.47V87A1.8,1.8,0,0,0,75,88.77V40.58A1,1,0,0,0,74,41.58Z"/></g></svg>