<svg id="Layer_6" data-name="Layer 6" xmlns="http://www.w3.org/2000/svg" xmlns:xlink="http://www.w3.org/1999/xlink" viewBox="0 0 150 160"><defs><style>.cls-1,.cls-32{fill:#d9eded;}.cls-1,.cls-10,.cls-11,.cls-12,.cls-13,.cls-14,.cls-15,.cls-16,.cls-17,.cls-18,.cls-19,.cls-2,.cls-20,.cls-21,.cls-22,.cls-23,.cls-25,.cls-26,.cls-27,.cls-28,.cls-29,.cls-3,.cls-30,.cls-31,.cls-4,.cls-5,.cls-51,.cls-6,.cls-7,.cls-8,.cls-9{stroke:#fff;}.cls-1,.cls-10,.cls-11,.cls-12,.cls-13,.cls-14,.cls-15,.cls-16,.cls-17,.cls-18,.cls-19,.cls-2,.cls-20,.cls-21,.cls-22,.cls-23,.cls-25,.cls-26,.cls-27,.cls-28,.cls-29,.cls-3,.cls-30,.cls-31,.cls-4,.cls-44,.cls-45,.cls-46,.cls-5,.cls-51,.cls-53,.cls-55,.cls-6,.cls-62,.cls-7,.cls-8,.cls-9{stroke-miterlimit:10;}.cls-1,.cls-10,.cls-11,.cls-12,.cls-13,.cls-14,.cls-15,.cls-16,.cls-17,.cls-18,.cls-19,.cls-2,.cls-20,.cls-21,.cls-22,.cls-23,.cls-25,.cls-26,.cls-27,.cls-28,.cls-29,.cls-3,.cls-30,.cls-31,.cls-4,.cls-5,.cls-6,.cls-7,.cls-8,.cls-9{stroke-width:5px;}.cls-2,.cls-33{fill:#f0b89f;}.cls-3,.cls-34{fill:#aececc;}.cls-35,.cls-4{fill:#ccedec;}.cls-36,.cls-5{fill:#0f5482;}.cls-37,.cls-6{fill:#08496d;}.cls-38,.cls-40,.cls-7,.cls-9{fill:#db825e;}.cls-39,.cls-8{fill:#0a1925;}.cls-18,.cls-19,.cls-28,.cls-40,.cls-51,.cls-52,.cls-61,.cls-9{opacity:0.5;}.cls-13,.cls-18,.cls-19,.cls-23,.cls-24,.cls-25,.cls-26,.cls-27,.cls-28,.cls-31,.cls-40,.cls-45,.cls-51,.cls-52,.cls-57,.cls-58,.cls-59,.cls-60,.cls-61,.cls-65,.cls-9{isolation:isolate;}.cls-10,.cls-41{fill:url(#linear-gradient);}.cls-11,.cls-43{fill:#0f3858;}.cls-12,.cls-18,.cls-20,.cls-44,.cls-46,.cls-51,.cls-53,.cls-55,.cls-62{fill:none;}.cls-13,.cls-45{fill:#c0e9ff;}.cls-13,.cls-31,.cls-45,.cls-65{opacity:0.3;}.cls-14,.cls-19,.cls-47,.cls-52{fill:#fff;}.cls-15,.cls-48{fill:#185b9e;}.cls-16,.cls-49{fill:#a6183d;}.cls-17,.cls-50{fill:#ea537a;}.cls-18,.cls-20,.cls-51,.cls-53,.cls-55{stroke-linecap:round;}.cls-21,.cls-54{fill:#1e5a7c;}.cls-22,.cls-56{fill:#dfeaea;}.cls-23,.cls-57{font-size:4.8px;font-family:MicrosoftNewTaiLue-Bold, Microsoft New Tai Lue;font-weight:700;}.cls-23,.cls-25,.cls-26,.cls-27,.cls-57,.cls-58,.cls-59,.cls-60{fill:#0e213d;}.cls-25,.cls-26,.cls-27,.cls-58,.cls-59,.cls-60{font-size:2.8px;font-family:ArialMT, Arial;}.cls-25,.cls-58{letter-spacing:-0.06em;}.cls-27,.cls-60{letter-spacing:-0.14em;}.cls-28,.cls-61{fill:#243959;}.cls-29,.cls-63{fill:#33a5dd;}.cls-30,.cls-31,.cls-64,.cls-65{fill:#1b67b2;}.cls-42{fill:url(#linear-gradient-3);}.cls-44,.cls-55,.cls-62{stroke:#0f3858;}.cls-45,.cls-46{stroke:#56a2cc;}.cls-53{stroke:#1e5a7c;}.cls-53,.cls-55{stroke-width:2px;}.cls-62{stroke-width:0.88px;}</style><linearGradient id="linear-gradient" x1="70.08" y1="-62.77" x2="70.08" y2="-44.36" gradientTransform="matrix(1, -0.08, -0.08, -1, 17.56, -11.98)" gradientUnits="userSpaceOnUse"><stop offset="0" stop-color="#db825e" stop-opacity="0"/><stop offset="1" stop-color="#db825e"/></linearGradient><linearGradient id="linear-gradient-3" x1="51.27" y1="-63.14" x2="51.27" y2="-44.73" xlink:href="#linear-gradient"/></defs><path class="cls-1" d="M127.66,95.83c-.4,8.23-1.19,13.73-1.06,21.3s.08,14.85.08,14.85h-.05c-1.94,1.29-3.95,2.5-6,3.61a74.39,74.39,0,0,1-29.42,8.69l-2,.13c-1.36.07-2.73.11-4.11.11A74.77,74.77,0,0,1,34.69,125c1.45-10.19,4.11-28.46,5.13-33.61,1.77-9,7.7-12,13-12.61A138.15,138.15,0,0,0,68.1,76.32c3.64-.93,4.74-2.16,4.74-2.16s23.63-1.56,28.09.57,10,2.83,17.51,5.36C125,82.28,128.06,87.6,127.66,95.83Z"/><path class="cls-2" d="M75.64,66.29v11.9S77.36,88.8,84.93,88.8,95,77.12,95,77.12V62.31Z"/><path class="cls-3" d="M93.24,97.43l-3.78-4.27-2.38,4.46,4.12,46.7-2,.13L81.61,132l3.77-46.64,15.71-7.27A25.46,25.46,0,0,1,93.24,97.43Z"/><path class="cls-4" d="M95,66.63s.49-1.32,2.63,2.26,3.29,5.84,3.29,5.84a25.4,25.4,0,0,1-7.62,21.1L85.38,85.38S92,82.3,95,71.41Z"/><path class="cls-4" d="M75.64,70.36s-.78-1-2.8,3.8l-2.48,5.35a28.12,28.12,0,0,0,5.76,16.82l6.84-11a22,22,0,0,1-7.32-11.91Z"/><polygon class="cls-5" points="85.38 85.38 82.96 85.28 78.88 92.06 81.61 97.62 85.69 97.62 89.47 90.76 85.38 85.38"/><path class="cls-5" d="M89.22,144.45c-.8,0-1.6.07-2.41.09h-1.7a75,75,0,0,1-11.78-.92l8.28-46h4.08Z"/><path class="cls-6" d="M83,85.28a4.28,4.28,0,0,1,2.42,1.49c.74,1.13,2.6,4.25.67,6.9s-7.17-1.61-7.17-1.61l2.73,5.56h4.08l3.78-6.86-4.09-5.38Z"/><path class="cls-6" d="M89.22,144.45c-.8,0-1.6.07-2.41.09-.34-9.4-1.41-38.53-1.7-41.94a5.39,5.39,0,0,0-3.5-5h4.08Z"/><path class="cls-7" d="M75.64,68.4a15.09,15.09,0,0,0,6.83,4.07c4.18,1.1,9.91-.1,12.54-2.62V62.31l-19.37,4Z"/><path class="cls-8" d="M64.72,19.3a8.87,8.87,0,0,0-5.11,5.53c-1.36,4.26,2.08,17.93,3,21.66s3.16,3.17,3.16,3.17L69.15,20Z"/><path class="cls-8" d="M98.38,17.44a8.87,8.87,0,0,1,5.69,4.94c1.82,4.09-.11,18.05-.59,21.86s-2.8,3.5-2.8,3.5L94.06,18.61Z"/><path class="cls-2" d="M69.42,46.12c.15,2.74-1,8.23-3.72,8.38s-5.86-1.37-6.22-7.83a5,5,0,1,1,9.89-1.49A5.86,5.86,0,0,1,69.42,46.12Z"/><path class="cls-7" d="M62,49.45a2.46,2.46,0,1,1,2.47,2.45h0A2.47,2.47,0,0,1,62,49.45Z"/><path class="cls-2" d="M96.65,44.62c.15,2.74,1.88,8.07,4.62,7.92s5.68-2,5.32-8.47a5,5,0,0,0-9.94.55Z"/><path class="cls-7" d="M104.21,47.31a2.46,2.46,0,1,0-2.47,2.45,2.46,2.46,0,0,0,2.47-2.45Z"/><path class="cls-2" d="M84.3,68.38h0c-10.3.56-19.15-9.29-19.71-19.55l-.81-14.71A18.6,18.6,0,0,1,81.31,14.51h0A18.62,18.62,0,0,1,101,32v0l.81,14.71C102.32,57,94.57,67.81,84.3,68.38Z"/><path class="cls-9" d="M86.83,49.75s-3-15.89-4.42-15.81-2.67,16.2-2.67,16.2Z"/><path class="cls-7" d="M83.15,47.46c-2.05.11-4.8,2.75-3.41,2.68l7.09-.39C88.09,49.68,84.79,47.37,83.15,47.46Z"/><path class="cls-10" d="M92.69,45.93h0a4.86,4.86,0,0,1-5.21-4.47l-.71-9.31a4.86,4.86,0,0,1,4.47-5.21h0a4.86,4.86,0,0,1,5.21,4.47l.71,9.31A4.86,4.86,0,0,1,92.69,45.93Z"/><path class="cls-11" d="M94.07,26.12c-1.6-.78-3.95-1-5.14,0s-.81,2.39.71,2.85a24.3,24.3,0,0,1,5.54,2c1.12.71,2.77.4,2.27-1.37A5.68,5.68,0,0,0,94.07,26.12Z"/><path class="cls-11" d="M70,27.45c1.5-1,3.81-1.47,5.1-.59s1.07,2.29-.39,2.91a25,25,0,0,0-5.29,2.59c-1,.83-2.7.7-2.41-1.11A5.69,5.69,0,0,1,70,27.45Z"/><path class="cls-12" d="M85.34,34.08a4.28,4.28,0,0,0-5.83.32"/><path class="cls-8" d="M92.24,39.88h0A2,2,0,0,1,90.14,38V37A2,2,0,0,1,92,34.91h0a2,2,0,0,1,2.1,1.88l.06,1a2,2,0,0,1-1.91,2.09Z"/><path class="cls-13" d="M85.29,33.28l.26,4.57a6.56,6.56,0,0,0,6.9,6.2h0a6.58,6.58,0,0,0,6.2-6.92l-.23-4.07A14.1,14.1,0,0,0,85.29,33.28Z"/><path class="cls-12" d="M85.29,33.28l.26,4.57a6.56,6.56,0,0,0,6.9,6.2h0a6.58,6.58,0,0,0,6.2-6.92l-.23-4.07A14.1,14.1,0,0,0,85.29,33.28Z"/><path class="cls-14" d="M92.4,42.84a.4.4,0,0,1,.34-.41,5,5,0,0,0,4.34-5.21.39.39,0,0,1,.36-.42h0a.41.41,0,0,1,.42.38,5.78,5.78,0,0,1-5,6,.41.41,0,0,1-.46-.36v0Z"/><path class="cls-14" d="M97.06,35.91a.42.42,0,1,1,.43.41h0a.41.41,0,0,1-.41-.41Z"/><path class="cls-14" d="M91,42.81a.42.42,0,1,1,.43.41h0a.41.41,0,0,1-.42-.4Z"/><path class="cls-15" d="M85.3,34.48a1.2,1.2,0,0,1-.53-2.27c.3-.14,7.3-3.47,14.18-.23a1.19,1.19,0,1,1-1,2.16c-5.86-2.76-12,.19-12.11.22A1.25,1.25,0,0,1,85.3,34.48Z"/><path class="cls-8" d="M73.29,40.92h0a2,2,0,0,0,1.88-2.1l-.06-1A2,2,0,0,0,73,36h0a2,2,0,0,0-1.87,2.1v1A2,2,0,0,0,73.29,40.92Z"/><path class="cls-13" d="M66.37,34.82l.23,4.08a6.58,6.58,0,0,0,6.92,6.2h0a6.58,6.58,0,0,0,6.2-6.93l-.26-4.57S70.86,30.33,66.37,34.82Z"/><path class="cls-12" d="M66.37,34.82l.23,4.08a6.58,6.58,0,0,0,6.92,6.2h0a6.58,6.58,0,0,0,6.2-6.93l-.26-4.57S70.86,30.33,66.37,34.82Z"/><path class="cls-15" d="M66.37,36a1.21,1.21,0,0,1-1.19-1.21,1.22,1.22,0,0,1,.57-1c6.49-4,13.81-1.43,14.12-1.32a1.19,1.19,0,1,1-.8,2.25h0c-.07,0-6.58-2.26-12.07,1.11A1.18,1.18,0,0,1,66.37,36Z"/><path class="cls-14" d="M73.3,43.78a.38.38,0,0,1,.33-.41A5,5,0,0,0,78,38.16a.4.4,0,0,1,.38-.42h0a.41.41,0,0,1,.42.38,5.79,5.79,0,0,1-5,6,.41.41,0,0,1-.46-.34v0Z"/><path class="cls-14" d="M78,36.85a.41.41,0,1,1,.41.41.41.41,0,0,1-.41-.41Z"/><path class="cls-14" d="M71.91,43.75a.41.41,0,1,1,.41.41.41.41,0,0,1-.41-.41Z"/><path class="cls-11" d="M69.15,20s1.14-1.84,2.18.4c.94,2.05,1.91,4,4.41,5.14,1.28.57,3.7.9,2.22-2.36a17.23,17.23,0,0,1-1.35-5.56s5.67,6.83,16.64,4.5,11.44-11.93,11.4-13.39-3.48,1.43-7.52.58S80.3,2.82,72.54,8.07A19.12,19.12,0,0,0,64.72,19.3Z"/><path class="cls-16" d="M93.55,54.85a8.46,8.46,0,0,1-3.08,5.28,11.12,11.12,0,0,1-4.19,2c-4.12,1.09-6.81-.14-8.51-1.76a10.16,10.16,0,0,1-2.43-3.76c-.1-.28-.15-.45-.15-.45s10.16-1,18.38-4.8A10.22,10.22,0,0,1,93.55,54.85Z"/><path class="cls-14" d="M93.55,54.85h0c-1.73,1.29-5.74,2.15-9.85,2.38a28.57,28.57,0,0,1-8.35-.61c-.1-.28-.15-.45-.15-.45s10.16-1,18.38-4.8A10.17,10.17,0,0,1,93.55,54.85Z"/><path class="cls-17" d="M90.47,60.13h0a11.12,11.12,0,0,1-4.19,2c-4.12,1.09-6.81-.14-8.51-1.76a11.5,11.5,0,0,1,6-1.79C86.48,58.44,89,59,90.47,60.13Z"/><path class="cls-18" d="M88.34,59.68a14.3,14.3,0,0,0-5.21-.45"/><path class="cls-19" d="M82.28,59.32a.2.2,0,0,1,.19-.2.19.19,0,0,1,.19.19h0a.2.2,0,0,1-.19.19h0A.21.21,0,0,1,82.28,59.32Z"/><path class="cls-19" d="M88.85,59.87a.19.19,0,1,1,.19.19.18.18,0,0,1-.19-.17Z"/><path class="cls-20" d="M76,8.19s3.69-1.55,9.86-.25c5.54,1.16,8.54,2.61,11.65,3a10.58,10.58,0,0,0,5.87-.89"/><circle class="cls-21" cx="74.69" cy="8.84" r="0.41"/><path class="cls-21" d="M76.66,25a.41.41,0,1,1,.47.47.42.42,0,0,1-.47-.34A.29.29,0,0,1,76.66,25Z"/><path class="cls-21" d="M72.91,9.65a.41.41,0,1,1,.41.41h0A.42.42,0,0,1,72.91,9.65Z"/><path class="cls-20" d="M75.89,24.49a9.71,9.71,0,0,1-3.8-5"/><path class="cls-20" d="M63.1,22a7.61,7.61,0,0,0-2.41,4.46c-.43,3.81,1.82,14.12,1.82,14.12"/><path class="cls-11" d="M63.91,20.88a.41.41,0,0,1,.34-.47.42.42,0,0,1,.47.34.29.29,0,0,1,0,.13.41.41,0,0,1-.81,0Z"/><path class="cls-1" d="M126.63,132c0,4.82-3.42,10.87-3.42,10.87l-2.59-7.26A65.48,65.48,0,0,0,126.63,132Z"/><g id="CONTRACT"><rect class="cls-22" x="31.63" y="86.69" width="45.52" height="61.11" transform="translate(-10.38 5.4) rotate(-5.19)"/><text class="cls-23" transform="translate(39.57 94.31) rotate(-5.14)">CONTRACT</text><g class="cls-24"><text class="cls-25" transform="translate(46.68 144.97) rotate(-5.14)">Y</text><text class="cls-26" transform="translate(48.09 144.84) rotate(-5.14)">OUR SIGN</text><text class="cls-27" transform="translate(59.58 143.81) rotate(-5.14)">A</text><text class="cls-26" transform="translate(61.07 143.67) rotate(-5.14)">TURE</text></g><rect class="cls-28" x="33.63" y="94.94" width="37.56" height="0.8" transform="translate(-8.41 5.13) rotate(-5.19)"/><rect class="cls-28" x="33.83" y="97.12" width="37.56" height="0.8" transform="translate(-8.61 5.16) rotate(-5.19)"/><rect class="cls-28" x="34.02" y="99.3" width="37.56" height="0.8" transform="translate(-8.8 5.19) rotate(-5.19)"/><rect class="cls-28" x="34.23" y="101.49" width="37.56" height="0.8" transform="translate(-9 5.21) rotate(-5.19)"/><rect class="cls-28" x="34.42" y="103.66" width="37.56" height="0.8" transform="translate(-9.2 5.24) rotate(-5.19)"/><rect class="cls-28" x="34.61" y="105.84" width="37.56" height="0.8" transform="translate(-9.39 5.27) rotate(-5.19)"/><rect class="cls-28" x="34.82" y="108.03" width="37.56" height="0.8" transform="translate(-9.59 5.29) rotate(-5.19)"/><rect class="cls-28" x="35.02" y="110.21" width="37.56" height="0.8" transform="translate(-9.79 5.32) rotate(-5.19)"/><rect class="cls-28" x="35.21" y="112.39" width="37.56" height="0.8" transform="translate(-9.98 5.35) rotate(-5.19)"/><rect class="cls-28" x="35.42" y="114.58" width="37.56" height="0.8" transform="translate(-10.18 5.37) rotate(-5.19)"/><rect class="cls-28" x="35.6" y="116.75" width="37.56" height="0.8" transform="translate(-10.37 5.4) rotate(-5.19)"/><rect class="cls-28" x="35.8" y="118.93" width="37.56" height="0.8" transform="translate(-10.57 5.43) rotate(-5.19)"/><rect class="cls-28" x="36.01" y="121.12" width="37.56" height="0.8" transform="translate(-10.77 5.45) rotate(-5.19)"/><rect class="cls-28" x="36.2" y="123.29" width="37.56" height="0.8" transform="translate(-10.96 5.48) rotate(-5.19)"/><rect class="cls-28" x="36.4" y="125.47" width="37.56" height="0.8" transform="translate(-11.16 5.51) rotate(-5.19)"/><rect class="cls-28" x="36.6" y="127.66" width="37.56" height="0.8" transform="translate(-11.36 5.53) rotate(-5.19)"/><rect class="cls-28" x="36.79" y="129.84" width="37.56" height="0.8" transform="translate(-11.55 5.56) rotate(-5.19)"/><rect class="cls-28" x="36.99" y="132.01" width="37.56" height="0.8" transform="translate(-11.75 5.59) rotate(-5.19)"/><line class="cls-12" x1="40.18" y1="141.89" x2="72.83" y2="138.92"/></g><path class="cls-2" d="M45.78,117.31s-6,2.34-7.5,2.81-5.55,2.4-6,5l.68,7.42s-4.88-3.06-6.47-5.45,0-2.19-2.59-5,.4-4.18-1-6.37,0-4.14,1.4-6.65,6.17-4.3,8-4.9a65.89,65.89,0,0,1,8.36-1.59,1.26,1.26,0,0,1,1.13,1.13,2.07,2.07,0,0,1-1.43,2.37,2.46,2.46,0,0,1-.53.15c.32,0,2.89-.28,4-.4s2,.26,2,1.28h0a1.5,1.5,0,0,1,0,.3,2.79,2.79,0,0,1-2.46,2.5h.17a7.33,7.33,0,0,1,1.55-.14h0a1.24,1.24,0,0,1,.73.18C46.3,110.43,45.78,117.31,45.78,117.31Z"/><path class="cls-2" d="M112,139.6s-4.32,4.74-7.67,5.88a2.5,2.5,0,0,1-2.94-.51l-.1-.12-.18-.29c-.4-.72-.78-1.46-1.12-2.21h0c-1.72-3.72-2.66-7.53-1.77-9.79a20.26,20.26,0,0,0,1.72-6.84,8.27,8.27,0,0,1,2-5.44c1.33-1.6,1.21-4.32,3.32-4.73.91-.18,1.49,1.21,1.83,2.44a13.4,13.4,0,0,1,.36,1.76l3.38,9.15Z"/><polygon class="cls-29" points="112.72 126.31 112.13 132.38 111.34 140.47 104.92 139.85 106.31 125.68 107.92 125.84 112.72 126.31"/><path class="cls-30" d="M106.21,126.48l1.36-14c.42-4.38,2.21-7.79,4-7.62s2.86,3.87,2.44,8.24l-1.37,14A7.79,7.79,0,0,1,106.21,126.48Z"/><path class="cls-29" d="M114.08,112.33l-1.36,14a7.82,7.82,0,0,1-4.83.06,9.32,9.32,0,0,1-1.59-.69l1.36-14c.43-4.38,2.21-7.78,4-7.61S114.51,108,114.08,112.33Z"/><path class="cls-31" d="M112.13,132.38l-.79,8.09-6.42-.62,1.38-14.17,1.36-14c.43-4.38,2.21-7.78,4-7.61,0,0-2,.7-2.82,10.7-.43,5.1-.77,8.58-.9,11v.53a12.36,12.36,0,0,0,.29,4.24,2.79,2.79,0,0,0,3.39,2A2.38,2.38,0,0,0,112.13,132.38Z"/><path class="cls-2" d="M122.91,141.52c.6,1.52.2,2.29-.29,3.48s-3.09,4.08-4.88,6.27a9.51,9.51,0,0,1-9.66,2.39c-3.28-1.29-5.37-2.89-6.47-4.48a3.66,3.66,0,0,1-.55-1.34h0a4.51,4.51,0,0,1,.55-3.27,6.19,6.19,0,0,1-1-4.54c.13-.88.49-1.59,1.46-1.73,0,0-2-2.65-.1-4.24s3.49.3,5.38.9a9.19,9.19,0,0,0,4.51-.2l1.19-12.24s5,.4,6.64,1.09,3.38,2.78,2.79,4.58-1,2.59.12,4.48a6.85,6.85,0,0,1,.47,5.63C122.52,139.63,122.32,140,122.91,141.52Z"/><path class="cls-9" d="M111.9,134.75a8.35,8.35,0,0,0,1.61-1.36,10.92,10.92,0,0,0,1.61-3.78,1.67,1.67,0,0,1,1.32-1.43s-1.29-.37-2.27,1.82-2,2.38-2,2.38l-.23,2.37"/><path class="cls-9" d="M119.23,135.59a33.72,33.72,0,0,1-1.79,5.36c-.86,1.66-4.38,2.49-7.5,2.46a7.44,7.44,0,0,1-5.7-2c-.64-.49-2.13-2.69-3.18-2.57a1.53,1.53,0,0,1,1-.59c1.92,1.85,5.58,3.92,7.53,3.61s6.34-1.15,7.14-2.34S119.11,135.78,119.23,135.59Z"/><path class="cls-30" d="M113.84,128.77h-.06a.6.6,0,0,1-.54-.65l1.55-15.88a.47.47,0,0,0-.41-.5l-.93-.09a.6.6,0,0,1,.11-1.19l.93.09a1.66,1.66,0,0,1,1.49,1.81l-1.55,15.87A.6.6,0,0,1,113.84,128.77Z"/><path class="cls-32" d="M127.66,95.83c-.4,8.23-1.19,13.73-1.06,21.3s.08,14.85.08,14.85h-.05c-1.94,1.29-3.95,2.5-6,3.61a74.39,74.39,0,0,1-29.42,8.69l-2,.13c-1.36.07-2.73.11-4.11.11A74.77,74.77,0,0,1,34.69,125c1.45-10.19,4.11-28.46,5.13-33.61,1.77-9,7.7-12,13-12.61A138.15,138.15,0,0,0,68.1,76.32c3.64-.93,4.74-2.16,4.74-2.16s23.63-1.56,28.09.57,10,2.83,17.51,5.36C125,82.28,128.06,87.6,127.66,95.83Z"/><path class="cls-33" d="M75.64,66.29v11.9S77.36,88.8,84.93,88.8,95,77.12,95,77.12V62.31Z"/><path class="cls-34" d="M93.24,97.43l-3.78-4.27-2.38,4.46,4.12,46.7-2,.13L81.61,132l3.77-46.64,15.71-7.27A25.46,25.46,0,0,1,93.24,97.43Z"/><path class="cls-34" d="M70.36,79.51s-.7,8.79,2.57,14.36c2.19,3.73,3.73,4.18,3.73,4.18l2.8-4.81-.58-1.18Z"/><path class="cls-35" d="M95,66.63s.49-1.32,2.63,2.26,3.29,5.84,3.29,5.84a25.4,25.4,0,0,1-7.62,21.1L85.38,85.38S92,82.3,95,71.41Z"/><path class="cls-35" d="M75.64,70.36s-.78-1-2.8,3.8l-2.48,5.35a28.12,28.12,0,0,0,5.76,16.82l6.84-11a22,22,0,0,1-7.32-11.91Z"/><polygon class="cls-36" points="85.38 85.38 82.96 85.28 78.88 92.06 81.61 97.62 85.69 97.62 89.47 90.76 85.38 85.38"/><path class="cls-36" d="M89.22,144.45c-.8,0-1.6.07-2.41.09h-1.7a75,75,0,0,1-11.78-.92l8.28-46h4.08Z"/><path class="cls-37" d="M83,85.28a4.28,4.28,0,0,1,2.42,1.49c.74,1.13,2.6,4.25.67,6.9s-7.17-1.61-7.17-1.61l2.73,5.56h4.08l3.78-6.86-4.09-5.38Z"/><path class="cls-37" d="M89.22,144.45c-.8,0-1.6.07-2.41.09-.34-9.4-1.41-38.53-1.7-41.94a5.39,5.39,0,0,0-3.5-5h4.08Z"/><path class="cls-38" d="M75.64,68.4a15.09,15.09,0,0,0,6.83,4.07c4.18,1.1,9.91-.1,12.54-2.62V62.31l-19.37,4Z"/><path class="cls-39" d="M64.72,19.3a8.87,8.87,0,0,0-5.11,5.53c-1.36,4.26,2.08,17.93,3,21.66s3.16,3.17,3.16,3.17L69.15,20Z"/><path class="cls-39" d="M98.38,17.44a8.87,8.87,0,0,1,5.69,4.94c1.82,4.09-.11,18.05-.59,21.86s-2.8,3.5-2.8,3.5L94.06,18.61Z"/><path class="cls-33" d="M69.42,46.12c.15,2.74-1,8.23-3.72,8.38s-5.86-1.37-6.22-7.83a5,5,0,1,1,9.89-1.49A5.86,5.86,0,0,1,69.42,46.12Z"/><path class="cls-38" d="M62,49.45a2.46,2.46,0,1,1,2.47,2.45h0A2.47,2.47,0,0,1,62,49.45Z"/><path class="cls-38" d="M66.91,49.45c0-.42.5-5.08-2.46-5.78s-3.35,2.89-3.35,2.89,1.15-2.41,2.91-1.45.58,3.72.58,3.72Z"/><path class="cls-33" d="M96.65,44.62c.15,2.74,1.88,8.07,4.62,7.92s5.68-2,5.32-8.47a5,5,0,0,0-9.94.55Z"/><path class="cls-38" d="M104.21,47.31a2.46,2.46,0,1,0-2.47,2.45,2.46,2.46,0,0,0,2.47-2.45Z"/><path class="cls-38" d="M99.3,47.29c0-.41-.48-5.08,2.47-5.76s3.34,2.9,3.34,2.9S104,42,102.21,43s-.59,3.72-.59,3.72Z"/><path class="cls-40" d="M69.42,46.12c.15,2.74-1,8.23-3.72,8.38s-5.86-1.37-6.22-7.83a5,5,0,1,1,9.89-1.49A5.86,5.86,0,0,1,69.42,46.12Z"/><path class="cls-40" d="M96.65,44.62c.15,2.74,1.88,8.07,4.62,7.92s5.68-2,5.32-8.47a5,5,0,0,0-9.94.55Z"/><path class="cls-33" d="M84.3,68.38h0c-10.3.56-19.15-9.29-19.71-19.55l-.81-14.71A18.6,18.6,0,0,1,81.31,14.51h0A18.62,18.62,0,0,1,101,32v0l.81,14.71C102.32,57,94.57,67.81,84.3,68.38Z"/><path class="cls-40" d="M86.83,49.75s-3-15.89-4.42-15.81-2.67,16.2-2.67,16.2Z"/><path class="cls-38" d="M83.15,47.46c-2.05.11-4.8,2.75-3.41,2.68l7.09-.39C88.09,49.68,84.79,47.37,83.15,47.46Z"/><path class="cls-41" d="M92.69,45.93h0a4.86,4.86,0,0,1-5.21-4.47l-.71-9.31a4.86,4.86,0,0,1,4.47-5.21h0a4.86,4.86,0,0,1,5.21,4.47l.71,9.31A4.86,4.86,0,0,1,92.69,45.93Z"/><path class="cls-42" d="M73.87,47.73h0a4.85,4.85,0,0,1-5.2-4.47L68,34a4.85,4.85,0,0,1,4.47-5.2h0a4.85,4.85,0,0,1,5.21,4.46h0l.7,9.3a4.84,4.84,0,0,1-4.5,5.16Z"/><path class="cls-43" d="M94.07,26.12c-1.6-.78-3.95-1-5.14,0s-.81,2.39.71,2.85a24.3,24.3,0,0,1,5.54,2c1.12.71,2.77.4,2.27-1.37A5.68,5.68,0,0,0,94.07,26.12Z"/><path class="cls-43" d="M70,27.45c1.5-1,3.81-1.47,5.1-.59s1.07,2.29-.39,2.91a25,25,0,0,0-5.29,2.59c-1,.83-2.7.7-2.41-1.11A5.69,5.69,0,0,1,70,27.45Z"/><path class="cls-44" d="M85.34,34.08a4.28,4.28,0,0,0-5.83.32"/><path class="cls-39" d="M92.24,39.88h0A2,2,0,0,1,90.14,38V37A2,2,0,0,1,92,34.91h0a2,2,0,0,1,2.1,1.88l.06,1a2,2,0,0,1-1.91,2.09Z"/><path class="cls-45" d="M85.29,33.28l.26,4.57a6.56,6.56,0,0,0,6.9,6.2h0a6.58,6.58,0,0,0,6.2-6.92l-.23-4.07A14.1,14.1,0,0,0,85.29,33.28Z"/><path class="cls-46" d="M85.29,33.28l.26,4.57a6.56,6.56,0,0,0,6.9,6.2h0a6.58,6.58,0,0,0,6.2-6.92l-.23-4.07A14.1,14.1,0,0,0,85.29,33.28Z"/><path class="cls-47" d="M92.4,42.84a.4.4,0,0,1,.34-.41,5,5,0,0,0,4.34-5.21.39.39,0,0,1,.36-.42h0a.41.41,0,0,1,.42.38,5.78,5.78,0,0,1-5,6,.41.41,0,0,1-.46-.36v0Z"/><path class="cls-47" d="M97.06,35.91a.42.42,0,1,1,.43.41h0a.41.41,0,0,1-.41-.41Z"/><path class="cls-47" d="M91,42.81a.42.42,0,1,1,.43.41h0a.41.41,0,0,1-.42-.4Z"/><path class="cls-48" d="M85.3,34.48a1.2,1.2,0,0,1-.53-2.27c.3-.14,7.3-3.47,14.18-.23a1.19,1.19,0,1,1-1,2.16c-5.86-2.76-12,.19-12.11.22A1.25,1.25,0,0,1,85.3,34.48Z"/><path class="cls-39" d="M73.29,40.92h0a2,2,0,0,0,1.88-2.1l-.06-1A2,2,0,0,0,73,36h0a2,2,0,0,0-1.87,2.1v1A2,2,0,0,0,73.29,40.92Z"/><path class="cls-45" d="M66.37,34.82l.23,4.08a6.58,6.58,0,0,0,6.92,6.2h0a6.58,6.58,0,0,0,6.2-6.93l-.26-4.57S70.86,30.33,66.37,34.82Z"/><path class="cls-46" d="M66.37,34.82l.23,4.08a6.58,6.58,0,0,0,6.92,6.2h0a6.58,6.58,0,0,0,6.2-6.93l-.26-4.57S70.86,30.33,66.37,34.82Z"/><path class="cls-48" d="M66.37,36a1.21,1.21,0,0,1-1.19-1.21,1.22,1.22,0,0,1,.57-1c6.49-4,13.81-1.43,14.12-1.32a1.19,1.19,0,1,1-.8,2.25h0c-.07,0-6.58-2.26-12.07,1.11A1.18,1.18,0,0,1,66.37,36Z"/><path class="cls-47" d="M73.3,43.78a.38.38,0,0,1,.33-.41A5,5,0,0,0,78,38.16a.4.4,0,0,1,.38-.42h0a.41.41,0,0,1,.42.38,5.79,5.79,0,0,1-5,6,.41.41,0,0,1-.46-.34v0Z"/><path class="cls-47" d="M78,36.85a.41.41,0,1,1,.41.41.41.41,0,0,1-.41-.41Z"/><path class="cls-47" d="M71.91,43.75a.41.41,0,1,1,.41.41.41.41,0,0,1-.41-.41Z"/><path class="cls-43" d="M69.15,20s1.14-1.84,2.18.4c.94,2.05,1.91,4,4.41,5.14,1.28.57,3.7.9,2.22-2.36a17.23,17.23,0,0,1-1.35-5.56s5.67,6.83,16.64,4.5,11.44-11.93,11.4-13.39-3.48,1.43-7.52.58S80.3,2.82,72.54,8.07A19.12,19.12,0,0,0,64.72,19.3Z"/><path class="cls-49" d="M93.55,54.85a8.46,8.46,0,0,1-3.08,5.28,11.12,11.12,0,0,1-4.19,2c-4.12,1.09-6.81-.14-8.51-1.76a10.16,10.16,0,0,1-2.43-3.76c-.1-.28-.15-.45-.15-.45s10.16-1,18.38-4.8A10.22,10.22,0,0,1,93.55,54.85Z"/><path class="cls-47" d="M93.55,54.85h0c-1.73,1.29-5.74,2.15-9.85,2.38a28.57,28.57,0,0,1-8.35-.61c-.1-.28-.15-.45-.15-.45s10.16-1,18.38-4.8A10.17,10.17,0,0,1,93.55,54.85Z"/><path class="cls-50" d="M90.47,60.13h0a11.12,11.12,0,0,1-4.19,2c-4.12,1.09-6.81-.14-8.51-1.76a11.5,11.5,0,0,1,6-1.79C86.48,58.44,89,59,90.47,60.13Z"/><path class="cls-51" d="M88.34,59.68a14.3,14.3,0,0,0-5.21-.45"/><path class="cls-52" d="M82.28,59.32a.2.2,0,0,1,.19-.2.19.19,0,0,1,.19.19h0a.2.2,0,0,1-.19.19h0A.21.21,0,0,1,82.28,59.32Z"/><path class="cls-52" d="M88.85,59.87a.19.19,0,1,1,.19.19.18.18,0,0,1-.19-.17Z"/><path class="cls-53" d="M76,8.19s3.69-1.55,9.86-.25c5.54,1.16,8.54,2.61,11.65,3a10.58,10.58,0,0,0,5.87-.89"/><circle class="cls-54" cx="74.69" cy="8.84" r="0.41"/><path class="cls-54" d="M76.66,25a.41.41,0,1,1,.47.47.42.42,0,0,1-.47-.34A.29.29,0,0,1,76.66,25Z"/><path class="cls-54" d="M72.91,9.65a.41.41,0,1,1,.41.41h0A.42.42,0,0,1,72.91,9.65Z"/><path class="cls-53" d="M75.89,24.49a9.71,9.71,0,0,1-3.8-5"/><path class="cls-55" d="M63.1,22a7.61,7.61,0,0,0-2.41,4.46c-.43,3.81,1.82,14.12,1.82,14.12"/><path class="cls-43" d="M63.91,20.88a.41.41,0,0,1,.34-.47.42.42,0,0,1,.47.34.29.29,0,0,1,0,.13.41.41,0,0,1-.81,0Z"/><path class="cls-32" d="M126.63,132c0,4.82-3.81,12.54-3.81,12.54l-2.2-8.93A65.48,65.48,0,0,0,126.63,132Z"/><path class="cls-34" d="M113.09,122.51s3.49-4.45,10.43-.92a8.16,8.16,0,0,0-10.43-1.72Z"/><g id="CONTRACT-2" data-name="CONTRACT"><rect class="cls-56" x="31.63" y="86.69" width="45.52" height="61.11" transform="translate(-10.38 5.4) rotate(-5.19)"/><text class="cls-57" transform="translate(39.57 94.31) rotate(-5.14)">CONTRACT</text><g class="cls-24"><text class="cls-58" transform="translate(46.68 144.97) rotate(-5.14)">Y</text><text class="cls-59" transform="translate(48.09 144.84) rotate(-5.14)">OUR SIGN</text><text class="cls-60" transform="translate(59.58 143.81) rotate(-5.14)">A</text><text class="cls-59" transform="translate(61.07 143.67) rotate(-5.14)">TURE</text></g><rect class="cls-61" x="33.63" y="94.94" width="37.56" height="0.8" transform="translate(-8.41 5.13) rotate(-5.19)"/><rect class="cls-61" x="33.83" y="97.12" width="37.56" height="0.8" transform="translate(-8.61 5.16) rotate(-5.19)"/><rect class="cls-61" x="34.02" y="99.3" width="37.56" height="0.8" transform="translate(-8.8 5.19) rotate(-5.19)"/><rect class="cls-61" x="34.23" y="101.49" width="37.56" height="0.8" transform="translate(-9 5.21) rotate(-5.19)"/><rect class="cls-61" x="34.42" y="103.66" width="37.56" height="0.8" transform="translate(-9.2 5.24) rotate(-5.19)"/><rect class="cls-61" x="34.61" y="105.84" width="37.56" height="0.8" transform="translate(-9.39 5.27) rotate(-5.19)"/><rect class="cls-61" x="34.82" y="108.03" width="37.56" height="0.8" transform="translate(-9.59 5.29) rotate(-5.19)"/><rect class="cls-61" x="35.02" y="110.21" width="37.56" height="0.8" transform="translate(-9.79 5.32) rotate(-5.19)"/><rect class="cls-61" x="35.21" y="112.39" width="37.56" height="0.8" transform="translate(-9.98 5.35) rotate(-5.19)"/><rect class="cls-61" x="35.42" y="114.58" width="37.56" height="0.8" transform="translate(-10.18 5.37) rotate(-5.19)"/><rect class="cls-61" x="35.6" y="116.75" width="37.56" height="0.8" transform="translate(-10.37 5.4) rotate(-5.19)"/><rect class="cls-61" x="35.8" y="118.93" width="37.56" height="0.8" transform="translate(-10.57 5.43) rotate(-5.19)"/><rect class="cls-61" x="36.01" y="121.12" width="37.56" height="0.8" transform="translate(-10.77 5.45) rotate(-5.19)"/><rect class="cls-61" x="36.2" y="123.29" width="37.56" height="0.8" transform="translate(-10.96 5.48) rotate(-5.19)"/><rect class="cls-61" x="36.4" y="125.47" width="37.56" height="0.8" transform="translate(-11.16 5.51) rotate(-5.19)"/><rect class="cls-61" x="36.6" y="127.66" width="37.56" height="0.8" transform="translate(-11.36 5.53) rotate(-5.19)"/><rect class="cls-61" x="36.79" y="129.84" width="37.56" height="0.8" transform="translate(-11.55 5.56) rotate(-5.19)"/><rect class="cls-61" x="36.99" y="132.01" width="37.56" height="0.8" transform="translate(-11.75 5.59) rotate(-5.19)"/><line class="cls-62" x1="40.18" y1="141.89" x2="72.83" y2="138.92"/></g><path class="cls-33" d="M45.78,117.31s-6,2.34-7.5,2.81-5.55,2.4-6,5l.68,7.42s-4.88-3.06-6.47-5.45,0-2.19-2.59-5,.4-4.18-1-6.37,0-4.14,1.4-6.65,6.17-4.3,8-4.9a65.89,65.89,0,0,1,8.36-1.59,1.26,1.26,0,0,1,1.13,1.13,2.07,2.07,0,0,1-1.43,2.37,2.46,2.46,0,0,1-.53.15c.32,0,2.89-.28,4-.4s2,.26,2,1.28h0a1.5,1.5,0,0,1,0,.3,2.79,2.79,0,0,1-2.46,2.5h.17a7.33,7.33,0,0,1,1.55-.14h0a1.24,1.24,0,0,1,.73.18C46.3,110.43,45.78,117.31,45.78,117.31Z"/><path class="cls-40" d="M40.3,106.1l-.56.15a29.26,29.26,0,0,0-3.72.66,42.6,42.6,0,0,0-6.24,3c-.92.6-2.91,2.16-3.44,2.48a23.25,23.25,0,0,1,3-3.35,23,23,0,0,1,6.7-3.51c1.26-.39,5.28-.39,5.71-1.85A2.07,2.07,0,0,1,40.3,106.1Z"/><path class="cls-40" d="M45.78,107.44a2.79,2.79,0,0,1-2.46,2.5c-.83.12-4.58.68-6.59,1.13a8,8,0,0,0-4.64,2.27,13.43,13.43,0,0,1-3.23,2.19c.95-.9,3.33-4.3,4.42-4.67A31.46,31.46,0,0,1,39,109.37c2.54-.38,2.68-.45,4.58-.8s2.18-1.44,2.18-1.44h0C45.77,107.23,45.78,107.34,45.78,107.44Z"/><path class="cls-40" d="M46,113.9s-5.67,1-7.41,1.19a8.32,8.32,0,0,0-4.78,2.48,24.3,24.3,0,0,1-2.49,2.15s2.78-3.49,3.41-4.19,1.77-1.18,4.41-1.63,6.9-1.33,6.9-1.33Z"/><path class="cls-33" d="M112,139.6s-4.32,4.74-7.67,5.88a2.5,2.5,0,0,1-2.94-.51l-.1-.12-.18-.29c-.4-.72-.78-1.46-1.12-2.21h0c-1.72-3.72-2.66-7.53-1.77-9.79a20.26,20.26,0,0,0,1.72-6.84,8.27,8.27,0,0,1,2-5.44c1.33-1.6,1.21-4.32,3.32-4.73.91-.18,1.49,1.21,1.83,2.44a13.4,13.4,0,0,1,.36,1.76l3.38,9.15Z"/><path class="cls-40" d="M107.06,118l-1.57,16.09-1.17,11.43a2.5,2.5,0,0,1-2.94-.51l-.1-.12-1.3-2.5h0a5.12,5.12,0,0,1,1.12-5.11,3.13,3.13,0,0,1-.46-3.09c1-2.33,3.07-2.13,3.87-3.51s-.07-3.73-.33-5.59.94-3.46,1.79-5.7c1.1-2.87-.73-3.8-.73-3.8C106.14,115.34,106.72,116.73,107.06,118Z"/><polygon class="cls-63" points="112.72 126.31 112.13 132.38 111.34 140.47 104.92 139.85 106.31 125.68 107.92 125.84 112.72 126.31"/><path class="cls-64" d="M106.21,126.48l1.36-14c.42-4.38,2.21-7.79,4-7.62s2.86,3.87,2.44,8.24l-1.37,14A7.79,7.79,0,0,1,106.21,126.48Z"/><path class="cls-63" d="M114.08,112.33l-1.36,14a7.82,7.82,0,0,1-4.83.06,9.32,9.32,0,0,1-1.59-.69l1.36-14c.43-4.38,2.21-7.78,4-7.61S114.51,108,114.08,112.33Z"/><path class="cls-65" d="M112.13,132.38l-.79,8.09-6.42-.62,1.38-14.17,1.36-14c.43-4.38,2.21-7.78,4-7.61,0,0-2,.7-2.82,10.7-.43,5.1-.77,8.58-.9,11v.53a12.36,12.36,0,0,0,.29,4.24,2.79,2.79,0,0,0,3.39,2A2.38,2.38,0,0,0,112.13,132.38Z"/><path class="cls-33" d="M122.91,141.52c.6,1.52.2,2.29-.29,3.48s-3.09,4.08-4.88,6.27a9.51,9.51,0,0,1-9.66,2.39c-3.28-1.29-5.37-2.89-6.47-4.48a3.66,3.66,0,0,1-.55-1.34h0a4.51,4.51,0,0,1,.55-3.27,6.19,6.19,0,0,1-1-4.54c.13-.88.49-1.59,1.46-1.73,0,0-2-2.65-.1-4.24s3.49.3,5.38.9a9.19,9.19,0,0,0,4.51-.2l1.19-12.24s5,.4,6.64,1.09,3.38,2.78,2.79,4.58-1,2.59.12,4.48a6.85,6.85,0,0,1,.47,5.63C122.52,139.63,122.32,140,122.91,141.52Z"/><path class="cls-40" d="M111.9,134.75a8.35,8.35,0,0,0,1.61-1.36,10.92,10.92,0,0,0,1.61-3.78,1.67,1.67,0,0,1,1.32-1.43s-1.29-.37-2.27,1.82-2,2.38-2,2.38l-.23,2.37"/><path class="cls-40" d="M119.23,135.59a33.72,33.72,0,0,1-1.79,5.36c-.86,1.66-4.38,2.49-7.5,2.46a7.44,7.44,0,0,1-5.7-2c-.64-.49-2.13-2.69-3.18-2.57a1.53,1.53,0,0,1,1-.59c1.92,1.85,5.58,3.92,7.53,3.61s6.34-1.15,7.14-2.34S119.11,135.78,119.23,135.59Z"/><path class="cls-40" d="M118.63,144.88c0,.18-.75,3.07-2.52,4.1a7.89,7.89,0,0,1-6.6,1.1,19.2,19.2,0,0,1-6.7-3c-1.16-.66-1.71.06-1.75.74a4.51,4.51,0,0,1,.55-3.27,4.74,4.74,0,0,0,2.62,2.2c2.16,1,4.78,2.62,7.21,2.62a9,9,0,0,0,5-1.29C117.34,147.48,118.56,145,118.63,144.88Z"/><path class="cls-64" d="M113.84,128.77h-.06a.6.6,0,0,1-.54-.65l1.55-15.88a.47.47,0,0,0-.41-.5l-.93-.09a.6.6,0,0,1,.11-1.19l.93.09a1.66,1.66,0,0,1,1.49,1.81l-1.55,15.87A.6.6,0,0,1,113.84,128.77Z"/></svg>