<svg id="लंगूर" xmlns="http://www.w3.org/2000/svg" viewBox="0 0 150 160"><defs><style>.cls-1{fill:#f2e4c6;}.cls-2{opacity:0.36;}.cls-3{fill:#cb9f8f;}.cls-4{fill:#d38864;}.cls-5{fill:#dec6ab;}.cls-6{fill:#b97758;}.cls-7{fill:#fff0cf;}.cls-8{opacity:0.44;}.cls-9{fill:#87563d;}.cls-10{fill:#febfa6;}.cls-11{fill:#622f2f;}.cls-12,.cls-15{fill:#fff;}.cls-13{opacity:0.31;}.cls-14{opacity:0.54;}.cls-15{stroke:#fff;stroke-miterlimit:10;stroke-width:5px;}</style></defs><path class="cls-1" d="M73.86,78a51.27,51.27,0,0,1-22.12.67c-1.22,9.59-3.15,19.43-1.7,29s5.62,17,13.58,22.47C74.47,114.31,77.91,96.8,73.86,78Z"/><g class="cls-2"><path class="cls-3" d="M63.62,130.16a69.25,69.25,0,0,0,8.67-17.3,11.6,11.6,0,0,1-9.06,3.37,13.4,13.4,0,0,1-10.57-7.51c.1,5,1.77,9.85,3.64,14.55A32,32,0,0,0,63.62,130.16Z"/></g><path class="cls-4" d="M83,124.23a39.78,39.78,0,0,1,22.72.52c3.61,1.17,7,2.85,10.6,4.11s7.46,2.08,11.19,1.44,7.26-3,8.25-6.44c1-3.6-1.25-7.82-5-9.21s-8.44.26-10.23,3.59a2.4,2.4,0,0,1-1.3,1.08,3.15,3.15,0,0,1-4.19-2.75,5.74,5.74,0,0,1,.89-3.31,9.61,9.61,0,0,1,5.14-3.67,15.75,15.75,0,0,1,15.05,3.07A13.37,13.37,0,0,1,140,126.58a14.27,14.27,0,0,1-11.64,9.17c-7.73,1-14.86-3.81-22.24-6.33a39.35,39.35,0,0,0-27.27.78C78.3,128.17,80.86,124.82,83,124.23Z"/><path class="cls-5" d="M44.86,127.15a35,35,0,0,0-13.59,6.45.84.84,0,0,0,.75,1.48A19.4,19.4,0,0,0,36.38,133a24.41,24.41,0,0,0-5.85,4,1,1,0,0,0,.9,1.65,18.71,18.71,0,0,0,7.3-3.53,5.22,5.22,0,0,0-3,2.59.78.78,0,0,0,.86,1.08,27.67,27.67,0,0,0,14.73-8A27.72,27.72,0,0,1,44.86,127.15Z"/><path class="cls-5" d="M81.79,127.15a35,35,0,0,1,13.59,6.45.84.84,0,0,1-.74,1.48A19.27,19.27,0,0,1,90.27,133a24.66,24.66,0,0,1,5.86,4,1,1,0,0,1-.9,1.65,18.69,18.69,0,0,1-7.31-3.53,5.22,5.22,0,0,1,3,2.59.77.77,0,0,1-.85,1.08,27.66,27.66,0,0,1-14.74-8A27.52,27.52,0,0,0,81.79,127.15Z"/><path class="cls-6" d="M45.54,101.65A22.8,22.8,0,0,0,37.29,91c-2.87-2-7-3.21-9.67-.9-1.87,1.65-2.16,4.45-2,6.94.88,11,8.49,20.12,15.75,28.43,1.88,2.15,3.82,4.36,6.37,5.65s5.88,1.48,8.1-.32C47.78,122.58,49.61,112.48,45.54,101.65Z"/><path class="cls-6" d="M81.12,101.65A22.78,22.78,0,0,1,89.36,91c2.87-2,7-3.21,9.67-.9,1.88,1.65,2.17,4.45,2,6.94-.89,11-8.5,20.12-15.76,28.43-1.88,2.15-3.82,4.36-6.37,5.65s-5.88,1.48-8.1-.32C78.87,122.58,77.05,112.48,81.12,101.65Z"/><path class="cls-4" d="M54.13,80.69A63.78,63.78,0,0,0,63,130.16c-1.8,2.49-5.62,2.79-8.35,1.38s-4.58-4.08-6.06-6.78A53.13,53.13,0,0,1,46,79.82c-.12.27,1.34-2.15,1.23-1.88C49.81,76.06,52,78.27,54.13,80.69Z"/><path class="cls-7" d="M61.76,131a37.66,37.66,0,0,1-3.95,10.5.64.64,0,0,1-1.18-.41,14.19,14.19,0,0,1,1.59-5.18,27.79,27.79,0,0,1-7.57,8,.64.64,0,0,1-1-.67,6.89,6.89,0,0,1,3-4l-5.27,4.64c-.54.48-1.38.95-1.88.44s-.06-1.3.39-1.81a26,26,0,0,1,4.44-4.08l-5.87,3.84a1.1,1.1,0,0,1-1,.26.75.75,0,0,1-.34-.92,2.07,2.07,0,0,1,.64-.86,26.36,26.36,0,0,1,5.33-3.8,16,16,0,0,1-2.5,1.55,2.94,2.94,0,0,1-.51.23A1,1,0,0,1,45,137.07a45.81,45.81,0,0,1,8.6-6.43c.94,1.1,3,.77,4.44,1.13A4.37,4.37,0,0,0,61.76,131Z"/><path class="cls-4" d="M72.57,79.25c4.05,16.5.54,36.8-8.95,50.91,1.8,2.49,5.62,2.79,8.35,1.38s4.58-4.08,6.06-6.78c7.48-13.59,7.44-33.82,1.6-48.19h0S74.66,76.83,72.57,79.25Z"/><path class="cls-7" d="M64.89,131a37.62,37.62,0,0,0,3.85,10.31.67.67,0,0,0,1.25-.4,13.69,13.69,0,0,0-1.56-5,27.69,27.69,0,0,0,7.58,8,.63.63,0,0,0,1-.67,6.85,6.85,0,0,0-3-4l5.27,4.64c.54.48,1.39.95,1.89.44s0-1.3-.4-1.81a25.65,25.65,0,0,0-4.44-4.08l5.87,3.84a1.1,1.1,0,0,0,1,.26.76.76,0,0,0,.35-.92,2.1,2.1,0,0,0-.65-.86,26.36,26.36,0,0,0-5.33-3.8,16.52,16.52,0,0,0,2.5,1.55,3.82,3.82,0,0,0,.51.23,1,1,0,0,0,1-1.68,46.06,46.06,0,0,0-8.59-6.43c-1,1.1-3,.77-4.45,1.13A4.38,4.38,0,0,1,64.89,131Z"/><g class="cls-8"><path class="cls-9" d="M64,83.32c7.82,0,12.13-2.1,16.86-6.47-10.63,5-23.1,4.8-34.46,1.86C50.83,82.37,58.23,83.3,64,83.32Z"/></g><path class="cls-4" d="M62.25,24.38c-7.78.25-15.65,2.06-22.19,6.27s-11.63,11-12.69,18.74C26.09,58.59,30.76,68,38.08,73.75s16.9,8,26.18,7.71c10.09-.32,20.66-4,26.55-12.19a28.9,28.9,0,0,0,5-13.33c.88-7.11-.54-14.67-4.85-20.39C84.51,27,72.91,24,62.25,24.38Z"/><path class="cls-4" d="M108,36.74a9.32,9.32,0,0,1,6.26,8.07,12.27,12.27,0,0,1-4,9.72,18.2,18.2,0,0,1-9.67,4.54,6.51,6.51,0,0,1-3.69-.19c-1.7-.75-2.61-2.63-3-4.43a15.88,15.88,0,0,1,3-13.46C99.52,37.72,104,35.54,108,36.74Z"/><path class="cls-10" d="M106.24,48.19a6.84,6.84,0,0,1-2.48,4.43,6.75,6.75,0,0,1-4.87,1.44,3.66,3.66,0,0,1-1.65-.5,3.15,3.15,0,0,1-1.35-2.42,5.47,5.47,0,0,1,.6-2.77,8.68,8.68,0,0,1,4.27-4.14,4.35,4.35,0,0,1,3.88-.09A4.09,4.09,0,0,1,106.24,48.19Z"/><path class="cls-4" d="M15.68,36.74a9.31,9.31,0,0,0-6.25,8.07,12.29,12.29,0,0,0,3.94,9.72,18.27,18.27,0,0,0,9.68,4.54,6.51,6.51,0,0,0,3.69-.19c1.7-.75,2.61-2.63,3-4.43a15.88,15.88,0,0,0-3-13.46C24.14,37.72,19.71,35.54,15.68,36.74Z"/><path class="cls-10" d="M17.42,48.19a6.84,6.84,0,0,0,2.48,4.43,6.75,6.75,0,0,0,4.87,1.44,3.69,3.69,0,0,0,1.65-.5,3.18,3.18,0,0,0,1.35-2.42,5.47,5.47,0,0,0-.6-2.77,8.68,8.68,0,0,0-4.27-4.14A4.35,4.35,0,0,0,19,44.14,4.09,4.09,0,0,0,17.42,48.19Z"/><path class="cls-1" d="M61.28,40.54a14.52,14.52,0,0,0-23.55,1.82,22.44,22.44,0,0,0-2.57,8.87c-1.06,9,4.54,16.84,12.37,21.08,9.2,5,20.56,4.63,29.9.22,11.15-5.26,13.44-20.35,7.64-30.17a14.51,14.51,0,0,0-23.54-1.82Z"/><path class="cls-11" d="M61.91,63.38a.4.4,0,0,1-.4-.37c-.07-.95-.09-1.83-.11-2.68s0-1.7-.1-2.64a.4.4,0,0,1,.37-.43.43.43,0,0,1,.43.38c.07,1,.09,1.82.1,2.67s0,1.71.11,2.64a.4.4,0,0,1-.37.43Z"/><path class="cls-11" d="M58.57,61.64l.29.14a4.15,4.15,0,0,0,.76.37l.45.16c.15.06.37.06.55.12a5.34,5.34,0,0,0,1.21.11l.64-.07a2.13,2.13,0,0,0,.59-.14,4.91,4.91,0,0,0,.51-.15L64,62a5.23,5.23,0,0,0,.68-.39l.35-.19a.39.39,0,0,1,.49.6l-.24.27a3.69,3.69,0,0,1-.69.66l-.55.35a2.93,2.93,0,0,1-.69.3,4.21,4.21,0,0,1-.74.21l-.77.12a6.14,6.14,0,0,1-1.57-.23,2.85,2.85,0,0,1-.69-.25L59,63.09a2.84,2.84,0,0,1-.7-.57l-.23-.23a.41.41,0,0,1,.47-.65Z"/><path class="cls-10" d="M81.38,60.9c0,1.28-1.58,2.32-3.54,2.32s-3.54-1-3.54-2.32,1.59-2.33,3.54-2.33S81.38,59.61,81.38,60.9Z"/><path class="cls-10" d="M49.53,60.9c0,1.28-1.58,2.32-3.54,2.32s-3.54-1-3.54-2.32S44,58.57,46,58.57,49.53,59.61,49.53,60.9Z"/><circle class="cls-12" cx="46.84" cy="51.22" r="5.41"/><path class="cls-11" d="M50.24,51.22a3.4,3.4,0,1,1-3.4-3.4A3.4,3.4,0,0,1,50.24,51.22Z"/><path class="cls-12" d="M46,49.77a1.46,1.46,0,1,1-1.45-1.46A1.45,1.45,0,0,1,46,49.77Z"/><circle class="cls-12" cx="75.37" cy="51.22" r="5.41"/><path class="cls-11" d="M78.77,51.22a3.4,3.4,0,1,1-3.4-3.4A3.4,3.4,0,0,1,78.77,51.22Z"/><path class="cls-12" d="M74.52,49.77a1.46,1.46,0,1,1-1.46-1.46A1.45,1.45,0,0,1,74.52,49.77Z"/><path class="cls-11" d="M46.77,41.42a2.8,2.8,0,0,0-1.54,2.35A5.19,5.19,0,0,0,47,43.72a1.73,1.73,0,0,0,1.28-1.11,1.07,1.07,0,0,0-.79-1.35A1.37,1.37,0,0,0,46.77,41.42Z"/><path class="cls-11" d="M75.38,41.42a2.81,2.81,0,0,1,1.53,2.35,5.19,5.19,0,0,1-1.76-.05,1.73,1.73,0,0,1-1.27-1.11,1.06,1.06,0,0,1,.78-1.35A1.41,1.41,0,0,1,75.38,41.42Z"/><g class="cls-13"><path class="cls-12" d="M93.07,39a22.59,22.59,0,0,0-2.14-3.43C84.51,27,72.91,24,62.25,24.38c-7.78.25-15.65,2.06-22.19,6.27A30.23,30.23,0,0,0,31,39.75c1-1.13,2.27-2.27,3-2.94a37.29,37.29,0,0,1,5.14-4.23A40.64,40.64,0,0,1,51.13,27a43.22,43.22,0,0,1,28.94,2.1C85,31.32,90.07,34.4,93.07,39Z"/></g><g class="cls-13"><path class="cls-12" d="M95.37,43.67a7,7,0,0,0-.32.75C95.15,44.17,95.26,43.92,95.37,43.67Z"/></g><g class="cls-13"><path class="cls-12" d="M108,36.74c-4-1.2-8.45,1-11.08,4.25l-.22.3a18.31,18.31,0,0,0-1.3,2.38A10.47,10.47,0,0,1,113.89,43,9.11,9.11,0,0,0,108,36.74Z"/></g><g class="cls-13"><path class="cls-12" d="M27.7,42.3A14.81,14.81,0,0,0,26.77,41c-2.63-3.27-7.06-5.45-11.09-4.25A9,9,0,0,0,10.11,42a11.65,11.65,0,0,1,7.23-4A11.78,11.78,0,0,1,27.7,42.3Z"/></g><path class="cls-6" d="M62.81,37.91a.48.48,0,0,1-.29-.11.44.44,0,0,1,0-.62l1.16-1.31a.44.44,0,1,1,.65.58l-1.16,1.31A.44.44,0,0,1,62.81,37.91Z"/><path class="cls-6" d="M66.89,34.7a.43.43,0,0,1-.39-.24.44.44,0,0,1,.19-.59l2-1a.44.44,0,0,1,.39.79l-2,1A.45.45,0,0,1,66.89,34.7Z"/><path class="cls-6" d="M63.48,33.92a.42.42,0,0,1-.28-.1.43.43,0,0,1-.06-.61l1.2-1.43a.44.44,0,0,1,.62-.05.43.43,0,0,1,.05.61l-1.2,1.43A.43.43,0,0,1,63.48,33.92Z"/><path class="cls-6" d="M68.78,30.18a.44.44,0,0,1-.42-.32.43.43,0,0,1,.29-.54l1.9-.55a.43.43,0,0,1,.55.29.44.44,0,0,1-.3.54l-1.9.56Z"/><path class="cls-6" d="M73.29,32.25a.44.44,0,0,1-.43-.41.44.44,0,0,1,.4-.47l2.33-.17a.44.44,0,1,1,.06.87Z"/><path class="cls-6" d="M64.71,29.32a.42.42,0,0,1-.28-.1.44.44,0,0,1-.06-.62l1.46-1.75a.44.44,0,0,1,.67.56L65,29.16A.42.42,0,0,1,64.71,29.32Z"/><path class="cls-6" d="M60.47,33.69a.45.45,0,0,1-.44-.38l-.3-2.18A.44.44,0,0,1,60.6,31l.3,2.18a.43.43,0,0,1-.37.49Z"/><path class="cls-6" d="M62.38,29.32a.42.42,0,0,1-.43-.38,3.55,3.55,0,0,1,.49-2.32.43.43,0,0,1,.6-.15.43.43,0,0,1,.14.6,2.75,2.75,0,0,0-.37,1.75.44.44,0,0,1-.37.49Z"/><path class="cls-6" d="M56.84,31.8a.43.43,0,0,1-.31-.13A6.49,6.49,0,0,0,53.41,30a.45.45,0,0,1-.33-.53.44.44,0,0,1,.52-.33,7.33,7.33,0,0,1,3.54,1.92.43.43,0,0,1,0,.62A.42.42,0,0,1,56.84,31.8Z"/><path class="cls-6" d="M58.46,28.87a.44.44,0,0,1-.33-.15,5.27,5.27,0,0,0-2-1.45.43.43,0,0,1-.24-.56.44.44,0,0,1,.57-.25,6.12,6.12,0,0,1,2.37,1.68.44.44,0,0,1,0,.62A.44.44,0,0,1,58.46,28.87Z"/><path class="cls-6" d="M54,33.76h-.11a8,8,0,0,0-3.19-.19.44.44,0,0,1-.12-.87,9.13,9.13,0,0,1,3.53.21.44.44,0,0,1,.32.54A.45.45,0,0,1,54,33.76Z"/><path class="cls-6" d="M59.49,36.87a.44.44,0,0,1-.35-.18,2.91,2.91,0,0,0-2.44-1.21.44.44,0,1,1,0-.88,3.9,3.9,0,0,1,3.14,1.57.42.42,0,0,1-.09.61A.43.43,0,0,1,59.49,36.87Z"/><path class="cls-6" d="M44.61,34.53a.43.43,0,0,1-.18-.83A8,8,0,0,1,47.51,33a.43.43,0,0,1,.46.42.44.44,0,0,1-.42.45,7.57,7.57,0,0,0-2.77.64A.35.35,0,0,1,44.61,34.53Z"/><path class="cls-6" d="M81.35,36.42a.45.45,0,0,1-.36-.19,4.22,4.22,0,0,0-2.55-1.66.43.43,0,0,1-.34-.51.44.44,0,0,1,.52-.34,5,5,0,0,1,3.08,2,.44.44,0,0,1-.1.61A.46.46,0,0,1,81.35,36.42Z"/><g class="cls-14"><path class="cls-12" d="M66.69,53.33a5,5,0,0,1-9.8.25,7.52,7.52,0,0,0,9.8-.25Z"/></g><path class="cls-11" d="M61.46,58h-.05a6.6,6.6,0,0,1-5.18-4.1.39.39,0,0,1,.22-.52.4.4,0,0,1,.52.23,5.9,5.9,0,0,0,4.55,3.59.41.41,0,0,1,.34.46A.4.4,0,0,1,61.46,58Z"/><path class="cls-11" d="M61.46,58a.4.4,0,0,1,0-.8,5.8,5.8,0,0,0,5.18-3.53.4.4,0,0,1,.75.29,6.58,6.58,0,0,1-5.87,4Z"/><path class="cls-1" d="M73.86,78a51.27,51.27,0,0,1-22.12.67c-1.22,9.59-3.15,19.43-1.7,29s5.62,17,13.58,22.47C74.47,114.31,77.91,96.8,73.86,78Z"/><g class="cls-2"><path class="cls-3" d="M63.62,130.16a69.25,69.25,0,0,0,8.67-17.3,11.6,11.6,0,0,1-9.06,3.37,13.4,13.4,0,0,1-10.57-7.51c.1,5,1.77,9.85,3.64,14.55A32,32,0,0,0,63.62,130.16Z"/></g><path class="cls-15" d="M83,124.23a39.78,39.78,0,0,1,22.72.52c3.61,1.17,7,2.85,10.6,4.11s7.46,2.08,11.19,1.44,7.26-3,8.25-6.44c1-3.6-1.25-7.82-5-9.21s-8.44.26-10.23,3.59a2.4,2.4,0,0,1-1.3,1.08,3.15,3.15,0,0,1-4.19-2.75,5.74,5.74,0,0,1,.89-3.31,9.61,9.61,0,0,1,5.14-3.67,15.75,15.75,0,0,1,15.05,3.07A13.37,13.37,0,0,1,140,126.58a14.27,14.27,0,0,1-11.64,9.17c-7.73,1-14.86-3.81-22.24-6.33a39.35,39.35,0,0,0-27.27.78C78.3,128.17,80.86,124.82,83,124.23Z"/><path class="cls-4" d="M83,124.23a39.78,39.78,0,0,1,22.72.52c3.61,1.17,7,2.85,10.6,4.11s7.46,2.08,11.19,1.44,7.26-3,8.25-6.44c1-3.6-1.25-7.82-5-9.21s-8.44.26-10.23,3.59a2.4,2.4,0,0,1-1.3,1.08,3.15,3.15,0,0,1-4.19-2.75,5.74,5.74,0,0,1,.89-3.31,9.61,9.61,0,0,1,5.14-3.67,15.75,15.75,0,0,1,15.05,3.07A13.37,13.37,0,0,1,140,126.58a14.27,14.27,0,0,1-11.64,9.17c-7.73,1-14.86-3.81-22.24-6.33a39.35,39.35,0,0,0-27.27.78C78.3,128.17,80.86,124.82,83,124.23Z"/><path class="cls-15" d="M44.86,127.15a35,35,0,0,0-13.59,6.45.84.84,0,0,0,.75,1.48A19.4,19.4,0,0,0,36.38,133a24.41,24.41,0,0,0-5.85,4,1,1,0,0,0,.9,1.65,18.71,18.71,0,0,0,7.3-3.53,5.22,5.22,0,0,0-3,2.59.78.78,0,0,0,.86,1.08,27.67,27.67,0,0,0,14.73-8A27.72,27.72,0,0,1,44.86,127.15Z"/><path class="cls-15" d="M81.79,127.15a35,35,0,0,1,13.59,6.45.84.84,0,0,1-.74,1.48A19.27,19.27,0,0,1,90.27,133a24.66,24.66,0,0,1,5.86,4,1,1,0,0,1-.9,1.65,18.69,18.69,0,0,1-7.31-3.53,5.22,5.22,0,0,1,3,2.59.77.77,0,0,1-.85,1.08,27.66,27.66,0,0,1-14.74-8A27.52,27.52,0,0,0,81.79,127.15Z"/><path class="cls-15" d="M45.54,101.65A22.8,22.8,0,0,0,37.29,91c-2.87-2-7-3.21-9.67-.9-1.87,1.65-2.16,4.45-2,6.94.88,11,8.49,20.12,15.75,28.43,1.88,2.15,3.82,4.36,6.37,5.65s5.88,1.48,8.1-.32C47.78,122.58,49.61,112.48,45.54,101.65Z"/><path class="cls-15" d="M81.12,101.65A22.78,22.78,0,0,1,89.36,91c2.87-2,7-3.21,9.67-.9,1.88,1.65,2.17,4.45,2,6.94-.89,11-8.5,20.12-15.76,28.43-1.88,2.15-3.82,4.36-6.37,5.65s-5.88,1.48-8.1-.32C78.87,122.58,77.05,112.48,81.12,101.65Z"/><path class="cls-15" d="M54.13,80.69A63.78,63.78,0,0,0,63,130.16c-1.8,2.49-5.62,2.79-8.35,1.38s-4.58-4.08-6.06-6.78A53.13,53.13,0,0,1,46,79.82c-.12.27,1.34-2.15,1.23-1.88C49.81,76.06,52,78.27,54.13,80.69Z"/><path class="cls-15" d="M61.76,131a37.66,37.66,0,0,1-3.95,10.5.64.64,0,0,1-1.18-.41,14.19,14.19,0,0,1,1.59-5.18,27.79,27.79,0,0,1-7.57,8,.64.64,0,0,1-1-.67,6.89,6.89,0,0,1,3-4l-5.27,4.64c-.54.48-1.38.95-1.88.44s-.06-1.3.39-1.81a26,26,0,0,1,4.44-4.08l-5.87,3.84a1.1,1.1,0,0,1-1,.26.75.75,0,0,1-.34-.92,2.07,2.07,0,0,1,.64-.86,26.36,26.36,0,0,1,5.33-3.8,16,16,0,0,1-2.5,1.55,2.94,2.94,0,0,1-.51.23A1,1,0,0,1,45,137.07a45.81,45.81,0,0,1,8.6-6.43c.94,1.1,3,.77,4.44,1.13A4.37,4.37,0,0,0,61.76,131Z"/><path class="cls-15" d="M72.57,79.25c4.05,16.5.54,36.8-8.95,50.91,1.8,2.49,5.62,2.79,8.35,1.38s4.58-4.08,6.06-6.78c7.48-13.59,7.44-33.82,1.6-48.19h0S74.66,76.83,72.57,79.25Z"/><path class="cls-15" d="M64.89,131a37.62,37.62,0,0,0,3.85,10.31.67.67,0,0,0,1.25-.4,13.69,13.69,0,0,0-1.56-5,27.69,27.69,0,0,0,7.58,8,.63.63,0,0,0,1-.67,6.85,6.85,0,0,0-3-4l5.27,4.64c.54.48,1.39.95,1.89.44s0-1.3-.4-1.81a25.65,25.65,0,0,0-4.44-4.08l5.87,3.84a1.1,1.1,0,0,0,1,.26.76.76,0,0,0,.35-.92,2.1,2.1,0,0,0-.65-.86,26.36,26.36,0,0,0-5.33-3.8,16.52,16.52,0,0,0,2.5,1.55,3.82,3.82,0,0,0,.51.23,1,1,0,0,0,1-1.68,46.06,46.06,0,0,0-8.59-6.43c-1,1.1-3,.77-4.45,1.13A4.38,4.38,0,0,1,64.89,131Z"/><path class="cls-15" d="M62.25,24.38c-7.78.25-15.65,2.06-22.19,6.27s-11.63,11-12.69,18.74C26.09,58.59,30.76,68,38.08,73.75s16.9,8,26.18,7.71c10.09-.32,20.66-4,26.55-12.19a28.9,28.9,0,0,0,5-13.33c.88-7.11-.54-14.67-4.85-20.39C84.51,27,72.91,24,62.25,24.38Z"/><path class="cls-15" d="M108,36.74a9.32,9.32,0,0,1,6.26,8.07,12.27,12.27,0,0,1-4,9.72,18.2,18.2,0,0,1-9.67,4.54,6.51,6.51,0,0,1-3.69-.19c-1.7-.75-2.61-2.63-3-4.43a15.88,15.88,0,0,1,3-13.46C99.52,37.72,104,35.54,108,36.74Z"/><path class="cls-15" d="M15.68,36.74a9.31,9.31,0,0,0-6.25,8.07,12.29,12.29,0,0,0,3.94,9.72,18.27,18.27,0,0,0,9.68,4.54,6.51,6.51,0,0,0,3.69-.19c1.7-.75,2.61-2.63,3-4.43a15.88,15.88,0,0,0-3-13.46C24.14,37.72,19.71,35.54,15.68,36.74Z"/><path class="cls-5" d="M44.86,127.15a35,35,0,0,0-13.59,6.45.84.84,0,0,0,.75,1.48A19.4,19.4,0,0,0,36.38,133a24.41,24.41,0,0,0-5.85,4,1,1,0,0,0,.9,1.65,18.71,18.71,0,0,0,7.3-3.53,5.22,5.22,0,0,0-3,2.59.78.78,0,0,0,.86,1.08,27.67,27.67,0,0,0,14.73-8A27.72,27.72,0,0,1,44.86,127.15Z"/><path class="cls-5" d="M81.79,127.15a35,35,0,0,1,13.59,6.45.84.84,0,0,1-.74,1.48A19.27,19.27,0,0,1,90.27,133a24.66,24.66,0,0,1,5.86,4,1,1,0,0,1-.9,1.65,18.69,18.69,0,0,1-7.31-3.53,5.22,5.22,0,0,1,3,2.59.77.77,0,0,1-.85,1.08,27.66,27.66,0,0,1-14.74-8A27.52,27.52,0,0,0,81.79,127.15Z"/><path class="cls-6" d="M45.54,101.65A22.8,22.8,0,0,0,37.29,91c-2.87-2-7-3.21-9.67-.9-1.87,1.65-2.16,4.45-2,6.94.88,11,8.49,20.12,15.75,28.43,1.88,2.15,3.82,4.36,6.37,5.65s5.88,1.48,8.1-.32C47.78,122.58,49.61,112.48,45.54,101.65Z"/><path class="cls-6" d="M81.12,101.65A22.78,22.78,0,0,1,89.36,91c2.87-2,7-3.21,9.67-.9,1.88,1.65,2.17,4.45,2,6.94-.89,11-8.5,20.12-15.76,28.43-1.88,2.15-3.82,4.36-6.37,5.65s-5.88,1.48-8.1-.32C78.87,122.58,77.05,112.48,81.12,101.65Z"/><path class="cls-4" d="M54.13,80.69A63.78,63.78,0,0,0,63,130.16c-1.8,2.49-5.62,2.79-8.35,1.38s-4.58-4.08-6.06-6.78A53.13,53.13,0,0,1,46,79.82c-.12.27,1.34-2.15,1.23-1.88C49.81,76.06,52,78.27,54.13,80.69Z"/><path class="cls-7" d="M61.76,131a37.66,37.66,0,0,1-3.95,10.5.64.64,0,0,1-1.18-.41,14.19,14.19,0,0,1,1.59-5.18,27.79,27.79,0,0,1-7.57,8,.64.64,0,0,1-1-.67,6.89,6.89,0,0,1,3-4l-5.27,4.64c-.54.48-1.38.95-1.88.44s-.06-1.3.39-1.81a26,26,0,0,1,4.44-4.08l-5.87,3.84a1.1,1.1,0,0,1-1,.26.75.75,0,0,1-.34-.92,2.07,2.07,0,0,1,.64-.86,26.36,26.36,0,0,1,5.33-3.8,16,16,0,0,1-2.5,1.55,2.94,2.94,0,0,1-.51.23A1,1,0,0,1,45,137.07a45.81,45.81,0,0,1,8.6-6.43c.94,1.1,3,.77,4.44,1.13A4.37,4.37,0,0,0,61.76,131Z"/><path class="cls-4" d="M72.57,79.25c4.05,16.5.54,36.8-8.95,50.91,1.8,2.49,5.62,2.79,8.35,1.38s4.58-4.08,6.06-6.78c7.48-13.59,7.44-33.82,1.6-48.19h0S74.66,76.83,72.57,79.25Z"/><path class="cls-7" d="M64.89,131a37.62,37.62,0,0,0,3.85,10.31.67.67,0,0,0,1.25-.4,13.69,13.69,0,0,0-1.56-5,27.69,27.69,0,0,0,7.58,8,.63.63,0,0,0,1-.67,6.85,6.85,0,0,0-3-4l5.27,4.64c.54.48,1.39.95,1.89.44s0-1.3-.4-1.81a25.65,25.65,0,0,0-4.44-4.08l5.87,3.84a1.1,1.1,0,0,0,1,.26.76.76,0,0,0,.35-.92,2.1,2.1,0,0,0-.65-.86,26.36,26.36,0,0,0-5.33-3.8,16.52,16.52,0,0,0,2.5,1.55,3.82,3.82,0,0,0,.51.23,1,1,0,0,0,1-1.68,46.06,46.06,0,0,0-8.59-6.43c-1,1.1-3,.77-4.45,1.13A4.38,4.38,0,0,1,64.89,131Z"/><g class="cls-8"><path class="cls-9" d="M64,83.32c7.82,0,12.13-2.1,16.86-6.47-10.63,5-23.1,4.8-34.46,1.86C50.83,82.37,58.23,83.3,64,83.32Z"/></g><path class="cls-4" d="M62.25,24.38c-7.78.25-15.65,2.06-22.19,6.27s-11.63,11-12.69,18.74C26.09,58.59,30.76,68,38.08,73.75s16.9,8,26.18,7.71c10.09-.32,20.66-4,26.55-12.19a28.9,28.9,0,0,0,5-13.33c.88-7.11-.54-14.67-4.85-20.39C84.51,27,72.91,24,62.25,24.38Z"/><path class="cls-4" d="M108,36.74a9.32,9.32,0,0,1,6.26,8.07,12.27,12.27,0,0,1-4,9.72,18.2,18.2,0,0,1-9.67,4.54,6.51,6.51,0,0,1-3.69-.19c-1.7-.75-2.61-2.63-3-4.43a15.88,15.88,0,0,1,3-13.46C99.52,37.72,104,35.54,108,36.74Z"/><path class="cls-10" d="M106.24,48.19a6.84,6.84,0,0,1-2.48,4.43,6.75,6.75,0,0,1-4.87,1.44,3.66,3.66,0,0,1-1.65-.5,3.15,3.15,0,0,1-1.35-2.42,5.47,5.47,0,0,1,.6-2.77,8.68,8.68,0,0,1,4.27-4.14,4.35,4.35,0,0,1,3.88-.09A4.09,4.09,0,0,1,106.24,48.19Z"/><path class="cls-4" d="M15.68,36.74a9.31,9.31,0,0,0-6.25,8.07,12.29,12.29,0,0,0,3.94,9.72,18.27,18.27,0,0,0,9.68,4.54,6.51,6.51,0,0,0,3.69-.19c1.7-.75,2.61-2.63,3-4.43a15.88,15.88,0,0,0-3-13.46C24.14,37.72,19.71,35.54,15.68,36.74Z"/><path class="cls-10" d="M17.42,48.19a6.84,6.84,0,0,0,2.48,4.43,6.75,6.75,0,0,0,4.87,1.44,3.69,3.69,0,0,0,1.65-.5,3.18,3.18,0,0,0,1.35-2.42,5.47,5.47,0,0,0-.6-2.77,8.68,8.68,0,0,0-4.27-4.14A4.35,4.35,0,0,0,19,44.14,4.09,4.09,0,0,0,17.42,48.19Z"/><path class="cls-1" d="M61.28,40.54a14.52,14.52,0,0,0-23.55,1.82,22.44,22.44,0,0,0-2.57,8.87c-1.06,9,4.54,16.84,12.37,21.08,9.2,5,20.56,4.63,29.9.22,11.15-5.26,13.44-20.35,7.64-30.17a14.51,14.51,0,0,0-23.54-1.82Z"/><path class="cls-11" d="M61.91,63.38a.4.4,0,0,1-.4-.37c-.07-.95-.09-1.83-.11-2.68s0-1.7-.1-2.64a.4.4,0,0,1,.37-.43.43.43,0,0,1,.43.38c.07,1,.09,1.82.1,2.67s0,1.71.11,2.64a.4.4,0,0,1-.37.43Z"/><path class="cls-11" d="M58.57,61.64l.29.14a4.15,4.15,0,0,0,.76.37l.45.16c.15.06.37.06.55.12a5.34,5.34,0,0,0,1.21.11l.64-.07a2.13,2.13,0,0,0,.59-.14,4.91,4.91,0,0,0,.51-.15L64,62a5.23,5.23,0,0,0,.68-.39l.35-.19a.39.39,0,0,1,.49.6l-.24.27a3.69,3.69,0,0,1-.69.66l-.55.35a2.93,2.93,0,0,1-.69.3,4.21,4.21,0,0,1-.74.21l-.77.12a6.14,6.14,0,0,1-1.57-.23,2.85,2.85,0,0,1-.69-.25L59,63.09a2.84,2.84,0,0,1-.7-.57l-.23-.23a.41.41,0,0,1,.47-.65Z"/><path class="cls-10" d="M81.38,60.9c0,1.28-1.58,2.32-3.54,2.32s-3.54-1-3.54-2.32,1.59-2.33,3.54-2.33S81.38,59.61,81.38,60.9Z"/><path class="cls-10" d="M49.53,60.9c0,1.28-1.58,2.32-3.54,2.32s-3.54-1-3.54-2.32S44,58.57,46,58.57,49.53,59.61,49.53,60.9Z"/><circle class="cls-12" cx="46.84" cy="51.22" r="5.41"/><path class="cls-11" d="M50.24,51.22a3.4,3.4,0,1,1-3.4-3.4A3.4,3.4,0,0,1,50.24,51.22Z"/><path class="cls-12" d="M46,49.77a1.46,1.46,0,1,1-1.45-1.46A1.45,1.45,0,0,1,46,49.77Z"/><circle class="cls-12" cx="75.37" cy="51.22" r="5.41"/><path class="cls-11" d="M78.77,51.22a3.4,3.4,0,1,1-3.4-3.4A3.4,3.4,0,0,1,78.77,51.22Z"/><path class="cls-12" d="M74.52,49.77a1.46,1.46,0,1,1-1.46-1.46A1.45,1.45,0,0,1,74.52,49.77Z"/><path class="cls-11" d="M46.77,41.42a2.8,2.8,0,0,0-1.54,2.35A5.19,5.19,0,0,0,47,43.72a1.73,1.73,0,0,0,1.28-1.11,1.07,1.07,0,0,0-.79-1.35A1.37,1.37,0,0,0,46.77,41.42Z"/><path class="cls-11" d="M75.38,41.42a2.81,2.81,0,0,1,1.53,2.35,5.19,5.19,0,0,1-1.76-.05,1.73,1.73,0,0,1-1.27-1.11,1.06,1.06,0,0,1,.78-1.35A1.41,1.41,0,0,1,75.38,41.42Z"/><g class="cls-13"><path class="cls-12" d="M93.07,39a22.59,22.59,0,0,0-2.14-3.43C84.51,27,72.91,24,62.25,24.38c-7.78.25-15.65,2.06-22.19,6.27A30.23,30.23,0,0,0,31,39.75c1-1.13,2.27-2.27,3-2.94a37.29,37.29,0,0,1,5.14-4.23A40.64,40.64,0,0,1,51.13,27a43.22,43.22,0,0,1,28.94,2.1C85,31.32,90.07,34.4,93.07,39Z"/></g><g class="cls-13"><path class="cls-12" d="M95.37,43.67a7,7,0,0,0-.32.75C95.15,44.17,95.26,43.92,95.37,43.67Z"/></g><g class="cls-13"><path class="cls-12" d="M108,36.74c-4-1.2-8.45,1-11.08,4.25l-.22.3a18.31,18.31,0,0,0-1.3,2.38A10.47,10.47,0,0,1,113.89,43,9.11,9.11,0,0,0,108,36.74Z"/></g><g class="cls-13"><path class="cls-12" d="M27.7,42.3A14.81,14.81,0,0,0,26.77,41c-2.63-3.27-7.06-5.45-11.09-4.25A9,9,0,0,0,10.11,42a11.65,11.65,0,0,1,7.23-4A11.78,11.78,0,0,1,27.7,42.3Z"/></g><path class="cls-6" d="M62.81,37.91a.48.48,0,0,1-.29-.11.44.44,0,0,1,0-.62l1.16-1.31a.44.44,0,1,1,.65.58l-1.16,1.31A.44.44,0,0,1,62.81,37.91Z"/><path class="cls-6" d="M66.89,34.7a.43.43,0,0,1-.39-.24.44.44,0,0,1,.19-.59l2-1a.44.44,0,0,1,.39.79l-2,1A.45.45,0,0,1,66.89,34.7Z"/><path class="cls-6" d="M63.48,33.92a.42.42,0,0,1-.28-.1.43.43,0,0,1-.06-.61l1.2-1.43a.44.44,0,0,1,.62-.05.43.43,0,0,1,.05.61l-1.2,1.43A.43.43,0,0,1,63.48,33.92Z"/><path class="cls-6" d="M68.78,30.18a.44.44,0,0,1-.42-.32.43.43,0,0,1,.29-.54l1.9-.55a.43.43,0,0,1,.55.29.44.44,0,0,1-.3.54l-1.9.56Z"/><path class="cls-6" d="M73.29,32.25a.44.44,0,0,1-.43-.41.44.44,0,0,1,.4-.47l2.33-.17a.44.44,0,1,1,.06.87Z"/><path class="cls-6" d="M64.71,29.32a.42.42,0,0,1-.28-.1.44.44,0,0,1-.06-.62l1.46-1.75a.44.44,0,0,1,.67.56L65,29.16A.42.42,0,0,1,64.71,29.32Z"/><path class="cls-6" d="M60.47,33.69a.45.45,0,0,1-.44-.38l-.3-2.18A.44.44,0,0,1,60.6,31l.3,2.18a.43.43,0,0,1-.37.49Z"/><path class="cls-6" d="M62.38,29.32a.42.42,0,0,1-.43-.38,3.55,3.55,0,0,1,.49-2.32.43.43,0,0,1,.6-.15.43.43,0,0,1,.14.6,2.75,2.75,0,0,0-.37,1.75.44.44,0,0,1-.37.49Z"/><path class="cls-6" d="M56.84,31.8a.43.43,0,0,1-.31-.13A6.49,6.49,0,0,0,53.41,30a.45.45,0,0,1-.33-.53.44.44,0,0,1,.52-.33,7.33,7.33,0,0,1,3.54,1.92.43.43,0,0,1,0,.62A.42.42,0,0,1,56.84,31.8Z"/><path class="cls-6" d="M58.46,28.87a.44.44,0,0,1-.33-.15,5.27,5.27,0,0,0-2-1.45.43.43,0,0,1-.24-.56.44.44,0,0,1,.57-.25,6.12,6.12,0,0,1,2.37,1.68.44.44,0,0,1,0,.62A.44.44,0,0,1,58.46,28.87Z"/><path class="cls-6" d="M54,33.76h-.11a8,8,0,0,0-3.19-.19.44.44,0,0,1-.12-.87,9.13,9.13,0,0,1,3.53.21.44.44,0,0,1,.32.54A.45.45,0,0,1,54,33.76Z"/><path class="cls-6" d="M59.49,36.87a.44.44,0,0,1-.35-.18,2.91,2.91,0,0,0-2.44-1.21.44.44,0,1,1,0-.88,3.9,3.9,0,0,1,3.14,1.57.42.42,0,0,1-.09.61A.43.43,0,0,1,59.49,36.87Z"/><path class="cls-6" d="M44.61,34.53a.43.43,0,0,1-.18-.83A8,8,0,0,1,47.51,33a.43.43,0,0,1,.46.42.44.44,0,0,1-.42.45,7.57,7.57,0,0,0-2.77.64A.35.35,0,0,1,44.61,34.53Z"/><path class="cls-6" d="M81.35,36.42a.45.45,0,0,1-.36-.19,4.22,4.22,0,0,0-2.55-1.66.43.43,0,0,1-.34-.51.44.44,0,0,1,.52-.34,5,5,0,0,1,3.08,2,.44.44,0,0,1-.1.61A.46.46,0,0,1,81.35,36.42Z"/><g class="cls-14"><path class="cls-12" d="M66.69,53.33a5,5,0,0,1-9.8.25,7.52,7.52,0,0,0,9.8-.25Z"/></g><path class="cls-11" d="M61.46,58h-.05a6.6,6.6,0,0,1-5.18-4.1.39.39,0,0,1,.22-.52.4.4,0,0,1,.52.23,5.9,5.9,0,0,0,4.55,3.59.41.41,0,0,1,.34.46A.4.4,0,0,1,61.46,58Z"/><path class="cls-11" d="M61.46,58a.4.4,0,0,1,0-.8,5.8,5.8,0,0,0,5.18-3.53.4.4,0,0,1,.75.29,6.58,6.58,0,0,1-5.87,4Z"/></svg>