<svg id="रिक्_शा" data-name="रिक्‍शा" xmlns="http://www.w3.org/2000/svg" viewBox="0 0 150 160"><defs><style>.cls-1{fill:#fff;stroke:#fff;stroke-miterlimit:10;stroke-width:5px;}.cls-2{fill:#1b1c20;}.cls-3{fill:#d8dadc;}.cls-4{fill:#7d471b;}.cls-5{fill:#945a2f;}.cls-6{fill:#663205;}.cls-7{fill:#604538;}.cls-8{fill:#47ae64;}.cls-9{fill:#1395ce;}.cls-10{fill:#45aae1;}.cls-11{fill:#aeafb2;}.cls-12{fill:#c3c5c8;}.cls-13{fill:#504f53;}.cls-14{fill:#39373a;}.cls-15{fill:#2573c1;}.cls-16{fill:#edeeef;}.cls-17{fill:#68676c;}</style></defs><rect class="cls-1" x="69.13" y="98.87" width="4.87" height="1.71" transform="translate(-0.36 0.26) rotate(-0.21)"/><path class="cls-1" d="M71.8,100.24l7,3.11a.59.59,0,0,1,.31.35.86.86,0,0,0,1.54.13.85.85,0,0,0-1.11-1.21.59.59,0,0,1-.45,0l-7-3.1a.39.39,0,0,0-.51.2h0A.38.38,0,0,0,71.8,100.24Z"/><path class="cls-1" d="M34.49,102.23H29.34a4.23,4.23,0,0,1-4.13-3.37L22.8,87.11l1.32-.27,2.41,11.75a2.87,2.87,0,0,0,2.81,2.29h5.15a2.87,2.87,0,0,0,2.81-2.29l2.41-11.75,1.33.27L38.62,98.86A4.23,4.23,0,0,1,34.49,102.23Z"/><rect class="cls-1" x="52.36" y="98.72" width="9.49" height="2.59"/><rect class="cls-1" x="52.51" y="89.94" width="28.59" height="1.88" transform="translate(-45.15 104.6) rotate(-60.67)"/><rect class="cls-1" x="31.93" y="102.31" width="52.69" height="1.99"/><rect class="cls-1" x="16.16" y="93.59" width="29.33" height="2.59"/><path class="cls-1" d="M43.54,82.65H20.68v5.1H43.54A1.49,1.49,0,0,0,45,86.26V84.13A1.49,1.49,0,0,0,43.54,82.65Z"/><path class="cls-1" d="M47.63,75.25a2,2,0,0,0-1.53-.69H33.41v1H46.1a1,1,0,0,1,.77.34,1,1,0,0,1,.24.8l-.19,1.5H34.28v1H46.79l-.48,3.7a1.4,1.4,0,0,1-1.38,1.22H33.41v1H44.93a2.42,2.42,0,0,0,2.39-2.1l.8-6.22A2.07,2.07,0,0,0,47.63,75.25Z"/><path class="cls-1" d="M40.36,84H16.16v9.59H43.5V87.13A3.13,3.13,0,0,0,40.36,84Z"/><path class="cls-1" d="M37.19,84H16.42L25,42.67s23.52.25,26.85.06a1.06,1.06,0,0,1,1.07,1.45Z"/><path class="cls-1" d="M26.7,84H16.16L14.48,43.45A1.29,1.29,0,0,1,15.78,42c3.31.2,7.86.65,10.92.65Z"/><path class="cls-1" d="M26.89,84H25.53l-.33-41.4a.68.68,0,0,1,.66-.71h.7a.69.69,0,0,1,.67.71Z"/><path class="cls-1" d="M29.85,84.07H28.49l9.15-41.3c.09-.39.3-.71.67-.71H39c.37,0,.76.32.66.71Z"/><polygon class="cls-1" points="45.49 96.18 52.36 101.31 52.36 98.72 45.49 93.59 45.49 96.18"/><rect class="cls-1" x="72.98" y="77.31" width="37.17" height="1.53"/><rect class="cls-1" x="74.45" y="80.73" width="32.12" height="1.53"/><polygon class="cls-1" points="110 77.57 78.92 102.94 80 104.18 111.08 78.8 110 77.57"/><polygon class="cls-1" points="110.5 81.07 83.56 103.07 84.64 104.3 111.58 82.31 110.5 81.07"/><rect class="cls-1" x="73.82" y="72.02" width="1.39" height="20.77" transform="translate(-17.94 20.8) rotate(-14.2)"/><rect class="cls-1" x="109.89" y="70.51" width="1.58" height="13.69" transform="translate(-15.82 30.12) rotate(-14.47)"/><rect class="cls-1" x="110.03" y="75.87" width="2.53" height="7.79" transform="translate(-16.4 30.35) rotate(-14.47)"/><rect class="cls-1" x="75.45" y="74.9" width="1.97" height="29.44" transform="translate(-19.65 21.49) rotate(-14.2)"/><path class="cls-1" d="M84.86,103.43c0-.19-.54-.35-.56-.53s.46-.47.41-.65-.6-.21-.66-.38.33-.56.24-.73-.63-.06-.74-.21.19-.63.07-.77-.63.1-.77,0,0-.65-.12-.75-.59.24-.75.15-.13-.64-.3-.71-.51.38-.69.33-.28-.59-.47-.61-.4.49-.59.49-.41-.51-.59-.49-.28.57-.46.61-.52-.39-.7-.33-.13.62-.3.71-.59-.26-.75-.15,0,.63-.12.75-.64-.11-.77,0,.17.61.07.77-.65,0-.74.21.31.55.24.73-.62.2-.66.38.43.46.41.65-.55.34-.55.53.53.35.55.53-.46.47-.41.65.6.21.66.38-.33.56-.24.73.63.06.74.21-.19.62-.07.76.63-.09.77,0,0,.66.12.76.59-.24.75-.15.13.64.3.71.51-.38.7-.34.27.6.46.62.4-.49.59-.49.41.51.59.49.28-.57.47-.61.51.39.69.33.13-.62.3-.71.59.26.75.15,0-.63.12-.75.64.11.77,0-.17-.61-.07-.77.65,0,.74-.21-.31-.55-.24-.73.62-.2.66-.38-.43-.46-.41-.65S84.86,103.62,84.86,103.43Zm-4.93,4a4,4,0,1,1,4-4A4,4,0,0,1,79.93,107.43Z"/><path class="cls-1" d="M79.93,99.22a4.21,4.21,0,1,0,4.21,4.21A4.22,4.22,0,0,0,79.93,99.22Zm-3.45,3.07a1.22,1.22,0,0,1,1.53-.78,1.21,1.21,0,1,1-.75,2.31A1.23,1.23,0,0,1,76.48,102.29Zm3,3.79a1.22,1.22,0,1,1-.27-1.7A1.22,1.22,0,0,1,79.5,106.08ZM78.72,101a1.21,1.21,0,1,1,1.21,1.22A1.21,1.21,0,0,1,78.72,101Zm3.34,5.34a1.21,1.21,0,0,1-1.43-2,1.21,1.21,0,1,1,1.43,2Zm.54-2.52a1.21,1.21,0,1,1,.78-1.53A1.21,1.21,0,0,1,82.6,103.82Z"/><path class="cls-1" d="M79.93,108.4c-2.82,0-39.37-1.4-48.36-3.51a1.5,1.5,0,0,1-1.36-1.46A1.43,1.43,0,0,1,31.64,102c9-1.12,46.21-3.49,48.29-3.49a5,5,0,0,1,0,9.94Zm0-9.41c-2.07,0-39.24,2.36-48.23,3.48-1,.12-1,.75-1,1s0,.73,1,.95c9,2.1,45.43,3.49,48.24,3.49a4.44,4.44,0,0,0,0-8.88Z"/><path class="cls-1" d="M88.44,106.75l-7.39-3.31a.6.6,0,0,1-.31-.35.82.82,0,0,0-.59-.52.85.85,0,0,0-.91.34.85.85,0,0,0,1.1,1.25.51.51,0,0,1,.45,0l7.34,3.28Z"/><rect class="cls-1" x="87.79" y="104.9" width="1.71" height="4.87" transform="translate(-18.97 195.63) rotate(-89.81)"/><rect class="cls-1" x="27.91" y="100.44" width="8.01" height="2.38" rx="0.54"/><path class="cls-1" d="M31.94,89.63a13.8,13.8,0,1,0,13.8,13.8A13.79,13.79,0,0,0,31.94,89.63Zm0,26.54a12.74,12.74,0,1,1,12.74-12.74A12.74,12.74,0,0,1,31.94,116.17Z"/><path class="cls-1" d="M34.24,103.43a2.3,2.3,0,1,1-2.3-2.29A2.29,2.29,0,0,1,34.24,103.43Z"/><path class="cls-1" d="M16.41,99.34l-1.28-.41a17.64,17.64,0,0,1,33.4-.68l-1.27.46a16.3,16.3,0,0,0-30.85.63Z"/><path class="cls-1" d="M33.41,103.43A1.47,1.47,0,1,1,31.94,102,1.47,1.47,0,0,1,33.41,103.43Z"/><path class="cls-1" d="M31.94,88.74a14.69,14.69,0,1,0,14.69,14.69A14.69,14.69,0,0,0,31.94,88.74Zm0,27.93a13.24,13.24,0,1,1,13.25-13.24A13.24,13.24,0,0,1,31.94,116.67Z"/><path class="cls-1" d="M120.84,89.63a13.8,13.8,0,1,0,13.8,13.8A13.8,13.8,0,0,0,120.84,89.63Zm0,26.54a12.74,12.74,0,1,1,12.74-12.74A12.75,12.75,0,0,1,120.84,116.17Z"/><path class="cls-1" d="M122.66,103.43a1.82,1.82,0,1,1-1.82-1.82A1.82,1.82,0,0,1,122.66,103.43Z"/><path class="cls-1" d="M105.22,103.62h-.93A16.59,16.59,0,0,1,128.78,89l-.44.81a15.66,15.66,0,0,0-23.12,13.77Z"/><path class="cls-1" d="M120.84,88.74a14.69,14.69,0,1,0,14.69,14.69A14.69,14.69,0,0,0,120.84,88.74Zm0,27.93a13.24,13.24,0,1,1,13.24-13.24A13.24,13.24,0,0,1,120.84,116.67Z"/><path class="cls-1" d="M121.38,87.05v15.87h-1.12V87.05a.55.55,0,0,1,.55-.55h0A.55.55,0,0,1,121.38,87.05Z"/><path class="cls-1" d="M121.18,104.52h-.06c-4.39-.29-5.34-4-5.8-5.81L112,85.7a.92.92,0,0,1,1.78-.46l3.37,13c.56,2.22,1.31,4.23,4.13,4.42a.92.92,0,0,1-.06,1.84Z"/><path class="cls-1" d="M110.86,84.32l.51,2,3-.78-.51-2a.42.42,0,0,0-.5-.29l-2.25.58A.41.41,0,0,0,110.86,84.32Z"/><path class="cls-1" d="M120.83,95.1h-5.11a.42.42,0,0,1-.42-.42V92.75a.42.42,0,0,1,.42-.42h5.11Z"/><path class="cls-1" d="M120.83,95.47h0a1.29,1.29,0,0,0,1.29-1.29v-.92a1.3,1.3,0,0,0-1.29-1.3h0Z"/><path class="cls-1" d="M120.83,98.77h-5.11a.42.42,0,0,1-.42-.42V96.43a.42.42,0,0,1,.42-.42h5.11Z"/><path class="cls-1" d="M120.83,99.14h0a1.29,1.29,0,0,0,1.29-1.29v-.92a1.29,1.29,0,0,0-1.29-1.29h0Z"/><path class="cls-1" d="M110.31,70.92h-1.85a5.27,5.27,0,0,1-2.76-1,4.19,4.19,0,0,0-2.1-.83H98.89a.77.77,0,0,1,0-1.53h4.71a5.5,5.5,0,0,1,2.9,1,4,4,0,0,0,2,.79h1.85a.77.77,0,0,1,0,1.54Z"/><path class="cls-1" d="M101.81,69.23H97.1a.93.93,0,0,1,0-1.85h4.71c.51,0,.71.42.71.93S102.32,69.23,101.81,69.23Z"/><path class="cls-1" d="M110,72.09h-2.56a6.48,6.48,0,0,1-1.92-.38,9.59,9.59,0,0,0-3-.54,18.66,18.66,0,0,0-3.64.35.47.47,0,0,1-.55-.35.47.47,0,0,1,.35-.55,19.53,19.53,0,0,1,3.84-.37,10.43,10.43,0,0,1,3.31.58,5.85,5.85,0,0,0,1.65.34H110a.47.47,0,0,1,.46.46A.46.46,0,0,1,110,72.09Z"/><rect class="cls-1" x="108.21" y="69.18" width="0.77" height="3.12" rx="0.15"/><path class="cls-1" d="M120.82,100.27c-1.15,0-2.28-.74-2.28-1.49h.31c0,.52.93,1.18,2,1.18a2.91,2.91,0,0,0,2.84-3.12c0-1.58-.28-5.34-2.85-6.2a10.56,10.56,0,0,1-5.82-6.4c-.35-1.2-1.09-3.84-1.74-6.17s-1.51-5.38-1.59-5.59a.94.94,0,0,0-.74-.67h-.27V71.5h.27a1.25,1.25,0,0,1,1,.87c.08.22.91,3.15,1.6,5.61s1.38,5,1.73,6.17a10.24,10.24,0,0,0,5.63,6.2c2.76.93,3.06,4.85,3.06,6.49A3.21,3.21,0,0,1,120.82,100.27Z"/><path class="cls-1" d="M110.9,72.07h-.75V71.3h.75a.3.3,0,0,1,.3.29v.18A.31.31,0,0,1,110.9,72.07Z"/><path class="cls-1" d="M79.4,70.21H68.05a.9.9,0,0,0-.84.94v.36a1.56,1.56,0,0,0,1.48,1.64h4.46c.54,0,3.33-.79,4.63-.79H79.4a.92.92,0,0,0,.86-1v-.24A.91.91,0,0,0,79.4,70.21Z"/><rect class="cls-2" x="69.13" y="98.87" width="4.87" height="1.71" transform="translate(-0.36 0.26) rotate(-0.21)"/><path class="cls-3" d="M71.8,100.24l7,3.11a.59.59,0,0,1,.31.35.86.86,0,0,0,1.54.13.85.85,0,0,0-1.11-1.21.59.59,0,0,1-.45,0l-7-3.1a.39.39,0,0,0-.51.2h0A.38.38,0,0,0,71.8,100.24Z"/><path class="cls-4" d="M34.49,102.23H29.34a4.23,4.23,0,0,1-4.13-3.37L22.8,87.11l1.32-.27,2.41,11.75a2.87,2.87,0,0,0,2.81,2.29h5.15a2.87,2.87,0,0,0,2.81-2.29l2.41-11.75,1.33.27L38.62,98.86A4.23,4.23,0,0,1,34.49,102.23Z"/><rect class="cls-4" x="52.36" y="98.72" width="9.49" height="2.59"/><rect class="cls-5" x="52.51" y="89.94" width="28.59" height="1.88" transform="translate(-45.15 104.6) rotate(-60.67)"/><rect class="cls-6" x="31.93" y="102.31" width="52.69" height="1.99"/><rect class="cls-6" x="16.16" y="93.59" width="29.33" height="2.59"/><path class="cls-7" d="M43.54,82.65H20.68v5.1H43.54A1.49,1.49,0,0,0,45,86.26V84.13A1.49,1.49,0,0,0,43.54,82.65Z"/><path class="cls-4" d="M47.63,75.25a2,2,0,0,0-1.53-.69H33.41v1H46.1a1,1,0,0,1,.77.34,1,1,0,0,1,.24.8l-.19,1.5H34.28v1H46.79l-.48,3.7a1.4,1.4,0,0,1-1.38,1.22H33.41v1H44.93a2.42,2.42,0,0,0,2.39-2.1l.8-6.22A2.07,2.07,0,0,0,47.63,75.25Z"/><path class="cls-8" d="M40.36,84H16.16v9.59H43.5V87.13A3.13,3.13,0,0,0,40.36,84Z"/><path class="cls-9" d="M37.19,84H16.42L25,42.67s23.52.25,26.85.06a1.06,1.06,0,0,1,1.07,1.45Z"/><path class="cls-9" d="M26.7,84H16.16L14.48,43.45A1.29,1.29,0,0,1,15.78,42c3.31.2,7.86.65,10.92.65Z"/><path class="cls-10" d="M26.89,84H25.53l-.33-41.4a.68.68,0,0,1,.66-.71h.7a.69.69,0,0,1,.67.71Z"/><path class="cls-10" d="M29.85,84.07H28.49l9.15-41.3c.09-.39.3-.71.67-.71H39c.37,0,.76.32.66.71Z"/><polygon class="cls-4" points="45.49 96.18 52.36 101.31 52.36 98.72 45.49 93.59 45.49 96.18"/><rect class="cls-5" x="72.98" y="77.31" width="37.17" height="1.53"/><rect class="cls-5" x="74.45" y="80.73" width="32.12" height="1.53"/><polygon class="cls-5" points="110 77.57 78.92 102.94 80 104.18 111.08 78.8 110 77.57"/><polygon class="cls-5" points="110.5 81.07 83.56 103.07 84.64 104.3 111.58 82.31 110.5 81.07"/><rect class="cls-3" x="73.82" y="72.02" width="1.39" height="20.77" transform="translate(-17.94 20.8) rotate(-14.2)"/><rect class="cls-3" x="109.89" y="70.51" width="1.58" height="13.69" transform="translate(-15.82 30.12) rotate(-14.47)"/><rect class="cls-5" x="110.03" y="75.87" width="2.53" height="7.79" transform="translate(-16.4 30.35) rotate(-14.47)"/><rect class="cls-4" x="75.45" y="74.9" width="1.97" height="29.44" transform="translate(-19.65 21.49) rotate(-14.2)"/><path class="cls-11" d="M84.86,103.43c0-.19-.54-.35-.56-.53s.46-.47.41-.65-.6-.21-.66-.38.33-.56.24-.73-.63-.06-.74-.21.19-.63.07-.77-.63.1-.77,0,0-.65-.12-.75-.59.24-.75.15-.13-.64-.3-.71-.51.38-.69.33-.28-.59-.47-.61-.4.49-.59.49-.41-.51-.59-.49-.28.57-.46.61-.52-.39-.7-.33-.13.62-.3.71-.59-.26-.75-.15,0,.63-.12.75-.64-.11-.77,0,.17.61.07.77-.65,0-.74.21.31.55.24.73-.62.2-.66.38.43.46.41.65-.55.34-.55.53.53.35.55.53-.46.47-.41.65.6.21.66.38-.33.56-.24.73.63.06.74.21-.19.62-.07.76.63-.09.77,0,0,.66.12.76.59-.24.75-.15.13.64.3.71.51-.38.7-.34.27.6.46.62.4-.49.59-.49.41.51.59.49.28-.57.47-.61.51.39.69.33.13-.62.3-.71.59.26.75.15,0-.63.12-.75.64.11.77,0-.17-.61-.07-.77.65,0,.74-.21-.31-.55-.24-.73.62-.2.66-.38-.43-.46-.41-.65S84.86,103.62,84.86,103.43Zm-4.93,4a4,4,0,1,1,4-4A4,4,0,0,1,79.93,107.43Z"/><path class="cls-12" d="M79.93,99.22a4.21,4.21,0,1,0,4.21,4.21A4.22,4.22,0,0,0,79.93,99.22Zm-3.45,3.07a1.22,1.22,0,0,1,1.53-.78,1.21,1.21,0,1,1-.75,2.31A1.23,1.23,0,0,1,76.48,102.29Zm3,3.79a1.22,1.22,0,1,1-.27-1.7A1.22,1.22,0,0,1,79.5,106.08ZM78.72,101a1.21,1.21,0,1,1,1.21,1.22A1.21,1.21,0,0,1,78.72,101Zm3.34,5.34a1.21,1.21,0,0,1-1.43-2,1.21,1.21,0,1,1,1.43,2Zm.54-2.52a1.21,1.21,0,1,1,.78-1.53A1.21,1.21,0,0,1,82.6,103.82Z"/><path class="cls-13" d="M79.93,108.4c-2.82,0-39.37-1.4-48.36-3.51a1.5,1.5,0,0,1-1.36-1.46A1.43,1.43,0,0,1,31.64,102c9-1.12,46.21-3.49,48.29-3.49a5,5,0,0,1,0,9.94Zm0-9.41c-2.07,0-39.24,2.36-48.23,3.48-1,.12-1,.75-1,1s0,.73,1,.95c9,2.1,45.43,3.49,48.24,3.49a4.44,4.44,0,0,0,0-8.88Z"/><path class="cls-3" d="M88.44,106.75l-7.39-3.31a.6.6,0,0,1-.31-.35.82.82,0,0,0-.59-.52.85.85,0,0,0-.91.34.85.85,0,0,0,1.1,1.25.51.51,0,0,1,.45,0l7.34,3.28Z"/><rect class="cls-2" x="87.79" y="104.9" width="1.71" height="4.87" transform="translate(-18.97 195.63) rotate(-89.81)"/><rect class="cls-14" x="27.91" y="100.44" width="8.01" height="2.38" rx="0.54"/><path class="cls-12" d="M31.94,89.63a13.8,13.8,0,1,0,13.8,13.8A13.79,13.79,0,0,0,31.94,89.63Zm0,26.54a12.74,12.74,0,1,1,12.74-12.74A12.74,12.74,0,0,1,31.94,116.17Z"/><path class="cls-11" d="M34.24,103.43a2.3,2.3,0,1,1-2.3-2.29A2.29,2.29,0,0,1,34.24,103.43Z"/><path class="cls-3" d="M16.41,99.34l-1.28-.41a17.64,17.64,0,0,1,33.4-.68l-1.27.46a16.3,16.3,0,0,0-30.85.63Z"/><path class="cls-12" d="M33.41,103.43A1.47,1.47,0,1,1,31.94,102,1.47,1.47,0,0,1,33.41,103.43Z"/><path class="cls-2" d="M31.94,88.74a14.69,14.69,0,1,0,14.69,14.69A14.69,14.69,0,0,0,31.94,88.74Zm0,27.93a13.24,13.24,0,1,1,13.25-13.24A13.24,13.24,0,0,1,31.94,116.67Z"/><path class="cls-12" d="M120.84,89.63a13.8,13.8,0,1,0,13.8,13.8A13.8,13.8,0,0,0,120.84,89.63Zm0,26.54a12.74,12.74,0,1,1,12.74-12.74A12.75,12.75,0,0,1,120.84,116.17Z"/><path class="cls-12" d="M122.66,103.43a1.82,1.82,0,1,1-1.82-1.82A1.82,1.82,0,0,1,122.66,103.43Z"/><path class="cls-3" d="M105.22,103.62h-.93A16.59,16.59,0,0,1,128.78,89l-.44.81a15.66,15.66,0,0,0-23.12,13.77Z"/><path class="cls-2" d="M120.84,88.74a14.69,14.69,0,1,0,14.69,14.69A14.69,14.69,0,0,0,120.84,88.74Zm0,27.93a13.24,13.24,0,1,1,13.24-13.24A13.24,13.24,0,0,1,120.84,116.67Z"/><path class="cls-15" d="M121.38,87.05v15.87h-1.12V87.05a.55.55,0,0,1,.55-.55h0A.55.55,0,0,1,121.38,87.05Z"/><path class="cls-5" d="M121.18,104.52h-.06c-4.39-.29-5.34-4-5.8-5.81L112,85.7a.92.92,0,0,1,1.78-.46l3.37,13c.56,2.22,1.31,4.23,4.13,4.42a.92.92,0,0,1-.06,1.84Z"/><path class="cls-12" d="M110.86,84.32l.51,2,3-.78-.51-2a.42.42,0,0,0-.5-.29l-2.25.58A.41.41,0,0,0,110.86,84.32Z"/><path class="cls-12" d="M120.83,95.1h-5.11a.42.42,0,0,1-.42-.42V92.75a.42.42,0,0,1,.42-.42h5.11Z"/><path class="cls-3" d="M120.83,95.47h0a1.29,1.29,0,0,0,1.29-1.29v-.92a1.3,1.3,0,0,0-1.29-1.3h0Z"/><path class="cls-12" d="M120.83,98.77h-5.11a.42.42,0,0,1-.42-.42V96.43a.42.42,0,0,1,.42-.42h5.11Z"/><path class="cls-3" d="M120.83,99.14h0a1.29,1.29,0,0,0,1.29-1.29v-.92a1.29,1.29,0,0,0-1.29-1.29h0Z"/><path class="cls-3" d="M110.31,70.92h-1.85a5.27,5.27,0,0,1-2.76-1,4.19,4.19,0,0,0-2.1-.83H98.89a.77.77,0,0,1,0-1.53h4.71a5.5,5.5,0,0,1,2.9,1,4,4,0,0,0,2,.79h1.85a.77.77,0,0,1,0,1.54Z"/><path class="cls-14" d="M101.81,69.23H97.1a.93.93,0,0,1,0-1.85h4.71c.51,0,.71.42.71.93S102.32,69.23,101.81,69.23Z"/><path class="cls-16" d="M110,72.09h-2.56a6.48,6.48,0,0,1-1.92-.38,9.59,9.59,0,0,0-3-.54,18.66,18.66,0,0,0-3.64.35.47.47,0,0,1-.55-.35.47.47,0,0,1,.35-.55,19.53,19.53,0,0,1,3.84-.37,10.43,10.43,0,0,1,3.31.58,5.85,5.85,0,0,0,1.65.34H110a.47.47,0,0,1,.46.46A.46.46,0,0,1,110,72.09Z"/><rect class="cls-12" x="108.21" y="69.18" width="0.77" height="3.12" rx="0.15"/><path class="cls-11" d="M120.82,100.27c-1.15,0-2.28-.74-2.28-1.49h.31c0,.52.93,1.18,2,1.18a2.91,2.91,0,0,0,2.84-3.12c0-1.58-.28-5.34-2.85-6.2a10.56,10.56,0,0,1-5.82-6.4c-.35-1.2-1.09-3.84-1.74-6.17s-1.51-5.38-1.59-5.59a.94.94,0,0,0-.74-.67h-.27V71.5h.27a1.25,1.25,0,0,1,1,.87c.08.22.91,3.15,1.6,5.61s1.38,5,1.73,6.17a10.24,10.24,0,0,0,5.63,6.2c2.76.93,3.06,4.85,3.06,6.49A3.21,3.21,0,0,1,120.82,100.27Z"/><path class="cls-17" d="M110.9,72.07h-.75V71.3h.75a.3.3,0,0,1,.3.29v.18A.31.31,0,0,1,110.9,72.07Z"/><path class="cls-7" d="M79.4,70.21H68.05a.9.9,0,0,0-.84.94v.36a1.56,1.56,0,0,0,1.48,1.64h4.46c.54,0,3.33-.79,4.63-.79H79.4a.92.92,0,0,0,.86-1v-.24A.91.91,0,0,0,79.4,70.21Z"/></svg>