<svg id="कलम" xmlns="http://www.w3.org/2000/svg" viewBox="0 0 150 160"><defs><style>.cls-1{fill:#fff;}.cls-2{fill:#455a64;}.cls-3{fill:#78909c;}.cls-4{fill:#90a4ae;}.cls-5{fill:#607d8b;}.cls-6{fill:#b0bec5;}.cls-7{fill:#546e7a;}.cls-8{fill:#37474f;}</style></defs><path class="cls-1" d="M80.18,30c0-6.39-.65-9-3.15-12.47l0,0V10.92a3.37,3.37,0,0,0-3.36-3.37h-2A3.68,3.68,0,0,0,68,11.23v6.21l0,0C65.46,21,64.82,23.58,64.82,30V82.29c0,15.38.77,35.75,1.14,45.58.7,11.92,2.14,16,3.44,18.89l.11.25.57,3.39a2.45,2.45,0,0,0,4.84,0l.57-3.39.11-.25c1.3-2.89,2.74-7,3.44-18.93.37-9.8,1.14-30.2,1.14-45.54V69.75h0a3.11,3.11,0,0,0,2.93-2c1.39-3.43,2.06-8.87,2.06-16.64V37.51A8.34,8.34,0,0,0,80.18,30Z"/><rect class="cls-2" x="66.82" y="30.01" width="11.37" height="45.46"/><path class="cls-3" d="M75.4,18.65H69.6c-2.1,3-2.78,5-2.78,11.36H78.18C78.18,23.65,77.5,21.6,75.4,18.65Z"/><path class="cls-4" d="M69.6,18.65c-2.1,3-2.78,5-2.78,11.36h2.72c0-6.36-.05-8.41,2-11.36Z"/><path class="cls-5" d="M75.4,18.65h-2c2.1,3,2,5,2,11.36h2.73C78.18,23.65,77.5,21.6,75.4,18.65Z"/><path class="cls-6" d="M71.68,9.55h1.64A1.68,1.68,0,0,1,75,11.23v7.41a0,0,0,0,1,0,0H70a0,0,0,0,1,0,0V11.23A1.68,1.68,0,0,1,71.68,9.55Z"/><rect class="cls-3" x="66.82" y="75.47" width="11.37" height="6.82"/><path class="cls-2" d="M66.82,82.29c0,14.55.68,33.42,1.13,45.46h9.1c.45-12,1.13-30.91,1.13-45.46Z"/><path class="cls-7" d="M66.82,82.29c0,14.55.68,33.42,1.13,45.46h2.73c-.45-12-1.14-30.91-1.14-45.46Z"/><path class="cls-8" d="M75.45,82.29c0,14.55-.68,33.42-1.13,45.46h2.73c.45-12,1.13-30.91,1.13-45.46Z"/><path class="cls-3" d="M68,127.75c.69,11.6,2,15.46,3.28,18.19h2.54c1.23-2.73,2.59-6.59,3.28-18.19Z"/><path class="cls-4" d="M68,127.75c.69,11.6,2,15.46,3.28,18.19h.56c-.2-2.73-.5-7.76-1.11-18.19Z"/><path class="cls-5" d="M77,127.75c-.68,11.6-2,15.46-3.27,18.19h-.57c.2-2.73.5-7.76,1.11-18.19Z"/><path class="cls-2" d="M71.36,145.94l.69,4.13a.46.46,0,0,0,.9,0l.69-4.13Z"/><path class="cls-8" d="M78.18,31.37v5c.23-1.82,2.73-.75,2.73,1.13V51.15a69.46,69.46,0,0,1-.75,11.21c-1.07.38-1.23.9-1.5,2.2s0,3,1.34,3.18a1.13,1.13,0,0,0,1.27-.7c1.27-3.15,1.91-8.46,1.91-15.89V37.51A6.4,6.4,0,0,0,78.18,31.37Z"/><rect class="cls-8" x="75.45" y="30.01" width="2.73" height="45.46"/><rect class="cls-7" x="66.82" y="30.01" width="2.73" height="45.46"/><rect class="cls-5" x="75.45" y="75.47" width="2.73" height="6.82"/><rect class="cls-4" x="66.82" y="75.47" width="2.73" height="6.82"/><path class="cls-4" d="M73.64,9.55H72.5v9.1H75V10.92A1.36,1.36,0,0,0,73.64,9.55Z"/></svg>