<svg id="पंजे" xmlns="http://www.w3.org/2000/svg" viewBox="0 0 150 160"><defs><style>.cls-1,.cls-7{fill:#fff;}.cls-1{stroke:#fff;stroke-miterlimit:10;stroke-width:5px;}.cls-2{fill:#7a796e;}.cls-3{fill:#a4ddf2;}.cls-4{fill:#1a1a1a;}.cls-5{fill:#2d2b2c;}.cls-6{opacity:0.2;}</style></defs><path class="cls-1" d="M117,43.64c2.06-2.08,5.53-5.87,4.77-7-.89-1.38-5.2.79-7.88,2.33-5.92-5.77-14.65-1.79-14.65-1.79s2.3-9.76-2.81-14.59c1-2.81,2.29-7,1.21-7.72-1.38-.88-4.37,2.81-6.19,5.32a16.89,16.89,0,0,0-16.4,6.57c-1-1.75-8.32-7.92-16.76-5.6-1.83-2.4-5.39-6.66-6.84-5.64-1.15.8.65,5.59,1.78,8.3-5.57,5.09-2.13,13.95-2.13,13.95S42,34,36.28,40.26c-2.73-1.43-7.22-3.49-8.07-2.06-.73,1.24,3.1,5,5.22,7a21,21,0,0,0-.66,2.11c-3.2,12.46,15.14,13.94,15.94,19.52a79.1,79.1,0,0,1-.26,9.34h0c-.4,6.72-1.13,16.29-1.94,26.19h0c-1.71,20.81-3.77,43-3.77,43l68.46-.94S102,71.73,102.6,66.13s18.88-7.69,15.27-20A21.6,21.6,0,0,0,117,43.64Z"/><path class="cls-2" d="M115.56,45s7.28-6.8,6.21-8.44c-1.32-2-10.07,3.66-10.07,3.66Z"/><path class="cls-2" d="M95.46,25.09s3.83-9.2,2.18-10.26c-2-1.31-7.67,7.49-7.67,7.49Z"/><path class="cls-2" d="M34.76,46.39s-7.55-6.5-6.55-8.19c1.24-2.09,10.22,3.25,10.22,3.25Z"/><path class="cls-2" d="M54,25.63s-4.2-9-2.59-10.15c2-1.4,8,7.17,8,7.17Z"/><path class="cls-3" d="M117.87,46.08c-4.5-15.39-18.63-8.94-18.63-8.94s3.49-14.81-7.67-17a16.9,16.9,0,0,0-16.52,6.55c-1.09-1.82-9-8.46-17.85-5.27-10.9,3.92-6.1,16.28-6.1,16.28s-14.35-6-18.33,9.57c-3.2,12.46,15.14,13.94,15.94,19.52s-6,78.48-6,78.48l68.46-.94S102,71.73,102.6,66.13,121.48,58.44,117.87,46.08Z"/><path class="cls-4" d="M75.64,44.54c-10.09,0-19.39,7.7-14.07,13S70,56,75.91,56c5.57,0,8.49,5.58,13.27,2.39S87.06,44.54,75.64,44.54Z"/><path class="cls-4" d="M45,44.6c-2.72-1.68-5.16-1.31-6.27.63-1.37,2.38.65,4.63,3.3,6.06s5.25,1.17,6.17-.49S47.66,46.28,45,44.6Z"/><path class="cls-4" d="M65.51,36.18c1.51-1.14,1.39-4.32-.4-7s-4.18-3.3-6-2c-2.22,1.62-1.29,4.49.54,6.88S64,37.32,65.51,36.18Z"/><path class="cls-4" d="M110.57,44.58c-1.3-1.82-3.77-1.95-6.3,0s-3.64,4.93-2.57,6.49,3.7,1.56,6.19-.13S112.16,46.82,110.57,44.58Z"/><path class="cls-4" d="M89.25,26.78c-1.93-1.13-4.24-.24-5.75,2.57s-1.32,6,.3,7,4-.08,5.6-2.64S91.62,28.17,89.25,26.78Z"/><path class="cls-5" d="M63.82,98.57c7.25-2.28,5-13.83,1.58-18.11-3.19-4-11.28-6.06-17-4.3-.4,6.72-1.13,16.29-1.94,26.19,2.25-1.67,4.54-3.44,7.12-4.21C57.09,97.11,60.67,99.56,63.82,98.57Z"/><path class="cls-5" d="M105,92.49c-7.23.38-13.06,2.06-18.92,7.5-6.08,5.64-11.89,11.07-18.75,15.75-5.08,3.47-7.3,6.55-7.3,12.66,0,4.9.4,11.2,2.23,16.63l49-.67S107.51,115.27,105,92.49Z"/><g class="cls-6"><path class="cls-7" d="M68.81,47.68c-4.76,2.08-6.73,5.54-5.14,7.13s4-3.26,7.12-4c2.9-.66,7.6-1,7.91-2.38C79.23,46.1,74,45.44,68.81,47.68Z"/><path class="cls-7" d="M39.45,46.34c-.81.94.44,2.23,1.34,3s1.91,1.5,2.58.85-.43-1.7-1-2.47S40.11,45.57,39.45,46.34Z"/><path class="cls-7" d="M59.85,28c-1.17.43-.7,2.16-.31,3.29.34.94,1,2.24,1.85,2s.44-1.69.32-2.64S60.8,27.68,59.85,28Z"/><path class="cls-7" d="M88,27.39c-1-.75-2.2.58-2.92,1.53-.61.79-1.37,2-.68,2.63s1.66-.54,2.39-1.17S88.82,28,88,27.39Z"/><path class="cls-7" d="M109.18,44.52c-.73-1-2.28-.1-3.26.59-.81.57-1.9,1.5-1.42,2.3s1.74,0,2.63-.39S109.77,45.34,109.18,44.52Z"/></g></svg>