<svg id="विमान" xmlns="http://www.w3.org/2000/svg" viewBox="0 0 150 160"><defs><style>.cls-1{fill:#fff;stroke:#fff;stroke-miterlimit:10;stroke-width:5px;}.cls-2{fill:#8dd9ff;}.cls-3{fill:#b3eaff;}.cls-4{fill:#218ed8;}.cls-5{fill:#033771;}.cls-6{fill:#76c1ff;}.cls-7{fill:#4eabea;}</style></defs><path class="cls-1" d="M140.73,96.84l-18.42-5.76a12.7,12.7,0,0,0-4.49-.81H105.49l-2.94-4.56h0l-.28-.44a5.94,5.94,0,0,0-4.85-2.53H56.78a41.23,41.23,0,0,1-13.19-6.11h3.89V73.68h2.14V67.53H47.48V64.59H30.24a81.08,81.08,0,0,1-7-9.06H12.63L15.16,67.7l-.27.11V73.4l1.59.65,1.81,8.68h0v6.08H9.82a1.86,1.86,0,1,0,0,3.72h10.7l23.17,7.06h4.05l2.15,4.88H102.6c27.76,0,36-2.56,38.43-4a2.06,2.06,0,0,0,.83-.9,2,2,0,0,0-1.13-2.75ZM72.2,99.59h0Z"/><path class="cls-2" d="M141.86,99.59a2.06,2.06,0,0,1-.83.9c-2.43,1.42-10.67,4-38.43,4H74.25l-2.06-4.88Z"/><path class="cls-3" d="M142,98.74a2,2,0,0,1-.18.85H43.69L18.28,91.85V82.73H97.42a5.94,5.94,0,0,1,4.85,2.53l3.22,5h12.33a12.7,12.7,0,0,1,4.49.81l18.42,5.76A2,2,0,0,1,142,98.74Z"/><path class="cls-4" d="M56.78,82.73H18.29l-5.66-27.2H23.26S37.48,78,56.78,82.73Z"/><polygon class="cls-4" points="75.17 104.47 72.19 99.58 56.75 99.58 46.42 86.7 42.07 86.7 49.88 104.47 75.17 104.47"/><polygon class="cls-3" points="47.48 64.59 47.48 70.6 14.89 70.6 14.89 67.81 22.73 64.59 47.48 64.59"/><rect class="cls-5" x="47.48" y="67.53" width="2.14" height="6.14"/><path class="cls-4" d="M32.72,90.67a1.86,1.86,0,0,1-1.86,1.86h-21A1.86,1.86,0,0,1,8,90.67H8a1.86,1.86,0,0,1,1.86-1.86h21a1.86,1.86,0,0,1,1.86,1.86Z"/><path class="cls-5" d="M58.62,88.81a1.21,1.21,0,0,1-1.12,1.28H54.91a1.21,1.21,0,0,1-1.12-1.28V87.64a1.21,1.21,0,0,1,1.12-1.28H57.5a1.21,1.21,0,0,1,1.12,1.28Z"/><path class="cls-5" d="M65.39,88.81a1.21,1.21,0,0,1-1.12,1.28H61.68a1.21,1.21,0,0,1-1.12-1.28V87.64a1.21,1.21,0,0,1,1.12-1.28h2.59a1.21,1.21,0,0,1,1.12,1.28Z"/><path class="cls-5" d="M85.56,88.74A1.21,1.21,0,0,1,84.44,90H81.85a1.21,1.21,0,0,1-1.12-1.28V87.57a1.21,1.21,0,0,1,1.12-1.28h2.59a1.21,1.21,0,0,1,1.12,1.28Z"/><path class="cls-5" d="M73.23,88.74A1.21,1.21,0,0,1,72.11,90H69.52a1.21,1.21,0,0,1-1.13-1.28V87.57a1.22,1.22,0,0,1,1.13-1.28h2.59a1.21,1.21,0,0,1,1.12,1.28Z"/><polygon class="cls-5" points="94.07 85.7 102.55 85.7 105.49 90.27 94.07 90.27 94.07 85.7"/><polygon class="cls-2" points="47.48 70.6 47.48 76.62 22.73 76.62 14.89 73.4 14.89 70.6 47.48 70.6"/><rect class="cls-6" x="41.22" y="64.59" width="6.26" height="12.02"/><rect class="cls-7" x="41.22" y="70.6" width="6.26" height="6.01"/></svg>