<svg id="Layer_3" data-name="Layer 3" xmlns="http://www.w3.org/2000/svg" viewBox="0 0 150 160"><defs><style>.cls-1,.cls-8{fill:#050507;}.cls-1,.cls-2,.cls-3,.cls-4,.cls-5,.cls-6,.cls-7{stroke:#fff;stroke-miterlimit:10;stroke-width:5px;}.cls-10,.cls-2{fill:#bebec2;}.cls-11,.cls-3{fill:#6f6f90;}.cls-12,.cls-4{fill:#171720;}.cls-13,.cls-5{fill:#42425a;}.cls-14,.cls-6{fill:#4d4d6a;}.cls-15,.cls-7{fill:#f6f6f7;}.cls-9{fill:#ccccd1;}</style></defs><polygon class="cls-1" points="75.91 27 76.04 27.24 76.21 27.44 76.41 27.58 76.64 27.68 76.84 27.72 76.85 27.71 76.89 27.57 76.91 27.47 75.85 26.86 75.91 27"/><polygon class="cls-2" points="75.75 25.72 75.73 26.08 75.75 26.42 75.81 26.73 75.85 26.86 76.91 27.47 77.32 25.96 75.87 25.12 75.81 25.34 75.75 25.72"/><polygon class="cls-3" points="67.9 24.66 59.62 28.14 57.57 35.74 64.23 39.59 73.25 35.8 67.9 32.71 67.9 24.66"/><polygon class="cls-2" points="67.9 24.66 67.9 23.56 67.93 22.93 68.03 22.27 68.18 21.67 58.56 25.72 56.09 34.89 57.57 35.74 59.62 28.14 67.9 24.66"/><polygon class="cls-4" points="80.08 19.52 79.6 19.52 79.1 19.61 78.58 19.8 78.05 20.06 77.52 20.41 77 20.83 76.5 21.31 76.03 21.86 75.58 22.45 75.19 23.09 74.84 23.75 74.54 24.43 74.31 25.11 74.14 25.79 74.03 26.45 74 27.08 67.9 23.56 67.9 24.66 67.9 32.71 73.25 35.8 74 35.48 74.85 35.12 76.84 27.72 76.64 27.68 76.41 27.58 76.21 27.44 76.04 27.24 75.91 27 75.85 26.86 75.81 26.73 75.75 26.42 75.73 26.08 75.75 25.72 75.81 25.34 75.87 25.12 75.91 24.95 76.04 24.56 76.21 24.17 76.41 23.79 76.64 23.43 76.89 23.09 77.16 22.78 77.45 22.5 77.75 22.26 77.76 22.25 78.05 22.06 78.35 21.91 78.65 21.8 78.94 21.75 79.21 21.75 79.47 21.8 79.69 21.9 79.89 22.05 80.06 22.24 80.2 22.48 80.29 22.75 80.35 23.06 80.37 23.4 80.35 23.75 81.29 24.29 82.1 26.16 82.1 22.4 82.07 21.81 81.97 21.27 81.8 20.79 81.56 20.38 81.27 20.04 80.92 19.78 80.52 19.6 80.08 19.52"/><polygon class="cls-3" points="55.52 23.96 70.1 17.83 70.27 17.93 70.4 17.79 70.9 17.3 71.42 16.88 71.95 16.54 72.48 16.27 73 16.09 73.5 16 73.97 15.99 74.42 16.08 74.81 16.25 80.92 19.78 81.27 20.04 81.56 20.38 81.8 20.79 81.97 21.27 82.07 21.81 82.1 22.4 82.1 26.16 82.34 26.71 82.1 27.6 82.1 31.55 80.84 32.28 78.95 39.3 67.05 44.31 77.76 50.49 105.53 32.57 72.24 13.77 43.19 29.34 52.32 35.81 55.52 23.96"/><polygon class="cls-5" points="69.48 18.93 69.08 19.56 68.73 20.23 68.44 20.9 68.2 21.59 68.18 21.67 68.03 22.27 67.93 22.93 67.9 23.56 74 27.08 74.03 26.45 74.14 25.79 74.31 25.11 74.54 24.43 74.84 23.75 75.19 23.09 75.58 22.45 76.03 21.86 76.5 21.31 77 20.83 77.52 20.41 78.05 20.06 78.58 19.8 79.1 19.61 79.6 19.52 80.08 19.52 80.52 19.6 80.92 19.78 74.81 16.25 74.42 16.08 73.97 15.99 73.5 16 73 16.09 72.48 16.27 71.95 16.54 71.42 16.88 70.9 17.3 70.4 17.79 70.27 17.93 69.92 18.34 69.48 18.93"/><polygon class="cls-1" points="80.35 23.06 80.29 22.75 80.2 22.48 80.06 22.24 79.89 22.05 79.69 21.9 79.47 21.8 79.21 21.75 78.94 21.75 78.65 21.8 78.35 21.91 78.05 22.06 77.76 22.25 80.35 23.75 80.37 23.4 80.35 23.06"/><path class="cls-5" d="M82.3,146.23l56.31-33.54L109,35.8,77.81,50.45C78.68,82.61,81.38,114.28,82.3,146.23Z"/><path class="cls-6" d="M77.32,146.09c-.82-28.29,1.26-67.25.44-95.6L67.05,44.31l-2.68,1.13L53.18,39l-1.06-2.42.2-.75-12.21-3.7L11.39,106.34ZM36.08,72.54l.45-2.63,3,1-3,17.87L35,87.9l2.49-14.65Zm34.16,22v.07l-1.43-.82a7,7,0,0,0,.09-2.23,1.48,1.48,0,0,0-.63-1.14c-.28-.16-.53-.07-.76.27A3.88,3.88,0,0,0,67,92.13a4.07,4.07,0,0,0,0,1.63,8.28,8.28,0,0,0,.69,1.79,9.21,9.21,0,0,1,1.3,3.1,10.17,10.17,0,0,1,0,3.81,6.16,6.16,0,0,1-1.26,3.18,1.47,1.47,0,0,1-2,.29,3.93,3.93,0,0,1-1.6-2.46,10.56,10.56,0,0,1,0-4.68v-.07l1.42.83a8.09,8.09,0,0,0-.11,2.55,1.65,1.65,0,0,0,.72,1.21.56.56,0,0,0,.78-.14l0,0a3.53,3.53,0,0,0,.51-1.48,5.12,5.12,0,0,0,0-1.79,5.26,5.26,0,0,0-.62-1.67A11.22,11.22,0,0,1,65.54,95a9.37,9.37,0,0,1,0-3.73,6.16,6.16,0,0,1,1.27-3.14,1.44,1.44,0,0,1,1.94-.37,3.6,3.6,0,0,1,1.52,2.47,10.59,10.59,0,0,1,0,4.27Zm-8.18,2h0L64,85.3l1.46.85-3,17.62L61,102.92,60.52,90.3h0l-1.91,11.23-1.46-.84,3-17.62,1.46.84ZM51.17,80.83l-2.54,15L47.17,95,49.7,80,48,79l.45-2.68,5,2.87L53,81.87ZM41.78,79.6a1,1,0,0,1,.89.11,3,3,0,0,1,1.08,2.39,16.64,16.64,0,0,1-.23,4.51,9.36,9.36,0,0,1-1.37,3.89c-.62.85-1.27,1.08-2,.68S39,89.8,38.75,88.29a17.34,17.34,0,0,1,.19-5.52L39.58,79a12,12,0,0,1,1.68-4.88q1.11-1.53,2.31-.84a2.57,2.57,0,0,1,.7.61,5,5,0,0,1,.57,1l-.68,2.38a5.11,5.11,0,0,0-.48-.73,2.13,2.13,0,0,0-.56-.48c-.39-.22-.77,0-1.14.64a9.81,9.81,0,0,0-.92,3.13l-.09.53A1.76,1.76,0,0,1,41.78,79.6Zm10,16.4a14.47,14.47,0,0,1,.08-5.29l.83-4.91a10,10,0,0,1,1.57-4.43,1.63,1.63,0,0,1,2.21-.66l.08.05a4.16,4.16,0,0,1,1.71,2.92A14.47,14.47,0,0,1,58.2,89l-.84,4.92a10,10,0,0,1-1.57,4.42,1.64,1.64,0,0,1-2.24.62l-.06,0A4.07,4.07,0,0,1,51.79,96Z"/><path class="cls-6" d="M54,96.19c.42.24.8.1,1.13-.42A8.13,8.13,0,0,0,55.91,93l.84-5a10.42,10.42,0,0,0,.15-3,2,2,0,0,0-.8-1.54c-.42-.25-.8-.11-1.12.42a8.09,8.09,0,0,0-.82,2.72l-.84,5a10.6,10.6,0,0,0-.17,3.13A2,2,0,0,0,54,96.19Z"/><path class="cls-6" d="M40.58,82.57l-.19,1.09A15.59,15.59,0,0,0,40.12,87c.05.86.23,1.37.52,1.54s.52,0,.78-.57a8.33,8.33,0,0,0,.63-2.19,9.91,9.91,0,0,0,.16-2.49c-.06-.66-.22-1.07-.48-1.22a.66.66,0,0,0-.64,0A1.23,1.23,0,0,0,40.58,82.57Z"/><polygon class="cls-7" points="34.99 87.9 36.46 88.75 39.49 70.88 36.53 69.91 36.08 72.54 37.48 73.25 34.99 87.9"/><path class="cls-7" d="M42,76.6c.37-.65.75-.86,1.14-.64a2.13,2.13,0,0,1,.56.48,5.11,5.11,0,0,1,.48.73l.68-2.38a5,5,0,0,0-.57-1,2.57,2.57,0,0,0-.7-.61q-1.2-.69-2.31.84a12,12,0,0,0-1.7,5l-.64,3.82a17.34,17.34,0,0,0-.19,5.52c.24,1.51.72,2.48,1.44,2.89s1.34.17,2-.68a9.36,9.36,0,0,0,1.37-3.89,16.64,16.64,0,0,0,.23-4.51,3,3,0,0,0-1.08-2.39,1,1,0,0,0-.89-.11,1.74,1.74,0,0,0-.81.66l.09-.53A10.07,10.07,0,0,1,42,76.6ZM41.09,82a.66.66,0,0,1,.64,0c.26.15.42.56.48,1.22a9.91,9.91,0,0,1-.16,2.49A8.29,8.29,0,0,1,41.42,88q-.39.8-.78.57c-.29-.17-.47-.68-.52-1.54a15.4,15.4,0,0,1,.27-3.32l.19-1.09A1.15,1.15,0,0,1,41.09,82Z"/><polygon class="cls-7" points="48.42 76.31 47.97 78.99 49.7 79.98 47.17 94.93 48.63 95.78 51.17 80.83 52.94 81.86 53.39 79.18 48.42 76.31"/><path class="cls-7" d="M55.79,98.28a10,10,0,0,0,1.57-4.42l.84-4.92a14.47,14.47,0,0,0,.07-5.29,4.16,4.16,0,0,0-1.71-2.92,1.62,1.62,0,0,0-2.24.53.35.35,0,0,0,0,.08,10,10,0,0,0-1.57,4.43l-.83,4.91A14.64,14.64,0,0,0,51.79,96a4.07,4.07,0,0,0,1.7,2.89,1.63,1.63,0,0,0,2.26-.54A.43.43,0,0,0,55.79,98.28Zm-2.47-6.76.84-5A8.08,8.08,0,0,1,55,83.85c.32-.53.7-.67,1.12-.42A2,2,0,0,1,56.9,85a10.4,10.4,0,0,1-.15,3.1l-.84,5a8,8,0,0,1-.83,2.75c-.33.52-.71.66-1.13.42a2,2,0,0,1-.8-1.54A10.82,10.82,0,0,1,53.32,91.52Z"/><polygon class="cls-7" points="60.11 83.06 57.12 100.68 58.58 101.52 60.49 90.29 60.52 90.3 61.01 102.92 62.48 103.77 65.46 86.15 64 85.3 62.09 96.55 62.06 96.54 61.57 83.9 60.11 83.06"/><path class="cls-7" d="M68.73,87.76a1.44,1.44,0,0,0-1.94.37,6.16,6.16,0,0,0-1.27,3.14,9.37,9.37,0,0,0,0,3.73,11.12,11.12,0,0,0,1.38,3.18,5.26,5.26,0,0,1,.62,1.67,5.12,5.12,0,0,1,0,1.79,3.53,3.53,0,0,1-.51,1.48.56.56,0,0,1-.76.22l0,0a1.65,1.65,0,0,1-.72-1.21,8.09,8.09,0,0,1,.11-2.55l-1.42-.83v.07a10.56,10.56,0,0,0,0,4.68,3.93,3.93,0,0,0,1.6,2.46,1.47,1.47,0,0,0,2-.29A6.18,6.18,0,0,0,69,102.46a10.17,10.17,0,0,0,0-3.81,9.21,9.21,0,0,0-1.3-3.1,8.31,8.31,0,0,1-.7-1.79,4.07,4.07,0,0,1,0-1.63,3.89,3.89,0,0,1,.51-1.48c.23-.34.48-.43.76-.27a1.48,1.48,0,0,1,.63,1.14,7,7,0,0,1-.09,2.23l1.43.82V94.5a10.59,10.59,0,0,0,0-4.27A3.55,3.55,0,0,0,68.73,87.76Z"/><polygon class="cls-8" points="75.91 27 76.04 27.24 76.21 27.44 76.41 27.58 76.64 27.68 76.84 27.72 76.85 27.71 76.89 27.57 76.91 27.47 75.85 26.86 75.91 27"/><polygon class="cls-9" points="77.89 36.88 81.29 24.29 80.35 23.75 77.76 22.25 77.75 22.26 77.45 22.5 77.16 22.78 76.89 23.09 76.64 23.43 76.41 23.79 76.21 24.17 76.04 24.56 75.91 24.95 75.87 25.12 77.32 25.96 76.91 27.47 76.89 27.57 76.85 27.71 76.84 27.72 74.85 35.12 74 35.48 73.25 35.8 64.23 39.59 57.57 35.74 56.09 34.89 58.56 25.72 68.18 21.67 68.2 21.59 68.44 20.9 68.73 20.23 69.08 19.56 69.48 18.93 69.92 18.34 70.27 17.93 70.1 17.83 55.52 23.96 52.32 35.81 52.12 36.55 63.31 43.01 77.89 36.88"/><polygon class="cls-10" points="75.75 25.72 75.73 26.08 75.75 26.42 75.81 26.73 75.85 26.86 76.91 27.47 77.32 25.96 75.87 25.12 75.81 25.34 75.75 25.72"/><polygon class="cls-11" points="67.9 24.66 59.62 28.14 57.57 35.74 64.23 39.59 73.25 35.8 67.9 32.71 67.9 24.66"/><polygon class="cls-10" points="67.9 24.66 67.9 23.56 67.93 22.93 68.03 22.27 68.18 21.67 58.56 25.72 56.09 34.89 57.57 35.74 59.62 28.14 67.9 24.66"/><polygon class="cls-12" points="80.08 19.52 79.6 19.52 79.1 19.61 78.58 19.8 78.05 20.06 77.52 20.41 77 20.83 76.5 21.31 76.03 21.86 75.58 22.45 75.19 23.09 74.84 23.75 74.54 24.43 74.31 25.11 74.14 25.79 74.03 26.45 74 27.08 67.9 23.56 67.9 24.66 67.9 32.71 73.25 35.8 74 35.48 74.85 35.12 76.84 27.72 76.64 27.68 76.41 27.58 76.21 27.44 76.04 27.24 75.91 27 75.85 26.86 75.81 26.73 75.75 26.42 75.73 26.08 75.75 25.72 75.81 25.34 75.87 25.12 75.91 24.95 76.04 24.56 76.21 24.17 76.41 23.79 76.64 23.43 76.89 23.09 77.16 22.78 77.45 22.5 77.75 22.26 77.76 22.25 78.05 22.06 78.35 21.91 78.65 21.8 78.94 21.75 79.21 21.75 79.47 21.8 79.69 21.9 79.89 22.05 80.06 22.24 80.2 22.48 80.29 22.75 80.35 23.06 80.37 23.4 80.35 23.75 81.29 24.29 82.1 26.16 82.1 22.4 82.07 21.81 81.97 21.27 81.8 20.79 81.56 20.38 81.27 20.04 80.92 19.78 80.52 19.6 80.08 19.52"/><polygon class="cls-11" points="55.52 23.96 70.1 17.83 70.27 17.93 70.4 17.79 70.9 17.3 71.42 16.88 71.95 16.54 72.48 16.27 73 16.09 73.5 16 73.97 15.99 74.42 16.08 74.81 16.25 80.92 19.78 81.27 20.04 81.56 20.38 81.8 20.79 81.97 21.27 82.07 21.81 82.1 22.4 82.1 26.16 82.34 26.71 82.1 27.6 82.1 31.55 80.84 32.28 78.95 39.3 67.05 44.31 77.76 50.49 106.81 33.73 72.24 13.77 43.19 30.54 52.32 35.81 55.52 23.96"/><polygon class="cls-10" points="80.84 32.28 82.1 27.6 82.34 26.71 82.1 26.16 81.29 24.29 77.89 36.88 63.31 43.01 52.12 36.55 53.18 38.98 64.36 45.44 67.05 44.31 78.95 39.3 80.84 32.28"/><polygon class="cls-12" points="82.1 31.55 82.1 27.6 80.84 32.28 82.1 31.55"/><polygon class="cls-13" points="69.48 18.93 69.08 19.56 68.73 20.23 68.44 20.9 68.2 21.59 68.18 21.67 68.03 22.27 67.93 22.93 67.9 23.56 74 27.08 74.03 26.45 74.14 25.79 74.31 25.11 74.54 24.43 74.84 23.75 75.19 23.09 75.58 22.45 76.03 21.86 76.5 21.31 77 20.83 77.52 20.41 78.05 20.06 78.58 19.8 79.1 19.61 79.6 19.52 80.08 19.52 80.52 19.6 80.92 19.78 74.81 16.25 74.42 16.08 73.97 15.99 73.5 16 73 16.09 72.48 16.27 71.95 16.54 71.42 16.88 70.9 17.3 70.4 17.79 70.27 17.93 69.92 18.34 69.48 18.93"/><polygon class="cls-8" points="80.35 23.06 80.29 22.75 80.2 22.48 80.06 22.24 79.89 22.05 79.69 21.9 79.47 21.8 79.21 21.75 78.94 21.75 78.65 21.8 78.35 21.91 78.05 22.06 77.76 22.25 80.35 23.75 80.37 23.4 80.35 23.06"/><path class="cls-13" d="M80.52,146.23l58.09-33.54-31.8-79-29,16.76C78.68,82.61,79.6,114.28,80.52,146.23Z"/><path class="cls-14" d="M80.52,146.23c-.82-28.29-1.94-67.39-2.76-95.74L67.05,44.31l-2.68,1.13L53.18,39l-1.06-2.42.2-.75-9.13-5.27-31.8,75.78ZM36.08,72.54l.45-2.63,3,1-3,17.87L35,87.9l2.49-14.65Zm34.16,22v.07l-1.43-.82a7,7,0,0,0,.09-2.23,1.48,1.48,0,0,0-.63-1.14c-.28-.16-.53-.07-.76.27A3.88,3.88,0,0,0,67,92.13a4.07,4.07,0,0,0,0,1.63,8.28,8.28,0,0,0,.69,1.79,9.21,9.21,0,0,1,1.3,3.1,10.17,10.17,0,0,1,0,3.81,6.16,6.16,0,0,1-1.26,3.18,1.47,1.47,0,0,1-2,.29,3.93,3.93,0,0,1-1.6-2.46,10.56,10.56,0,0,1,0-4.68v-.07l1.42.83a8.09,8.09,0,0,0-.11,2.55,1.65,1.65,0,0,0,.72,1.21.56.56,0,0,0,.78-.14l0,0a3.53,3.53,0,0,0,.51-1.48,5.12,5.12,0,0,0,0-1.79,5.26,5.26,0,0,0-.62-1.67A11.22,11.22,0,0,1,65.54,95a9.37,9.37,0,0,1,0-3.73,6.16,6.16,0,0,1,1.27-3.14,1.44,1.44,0,0,1,1.94-.37,3.6,3.6,0,0,1,1.52,2.47,10.59,10.59,0,0,1,0,4.27Zm-8.18,2h0L64,85.3l1.46.85-3,17.62L61,102.92,60.52,90.3h0l-1.91,11.23-1.46-.84,3-17.62,1.46.84ZM51.17,80.83l-2.54,15L47.17,95,49.7,80,48,79l.45-2.68,5,2.87L53,81.87ZM41.78,79.6a1,1,0,0,1,.89.11,3,3,0,0,1,1.08,2.39,16.64,16.64,0,0,1-.23,4.51,9.36,9.36,0,0,1-1.37,3.89c-.62.85-1.27,1.08-2,.68S39,89.8,38.75,88.29a17.34,17.34,0,0,1,.19-5.52L39.58,79a12,12,0,0,1,1.68-4.88q1.11-1.53,2.31-.84a2.57,2.57,0,0,1,.7.61,5,5,0,0,1,.57,1l-.68,2.38a5.11,5.11,0,0,0-.48-.73,2.13,2.13,0,0,0-.56-.48c-.39-.22-.77,0-1.14.64a9.81,9.81,0,0,0-.92,3.13l-.09.53A1.76,1.76,0,0,1,41.78,79.6Zm10,16.4a14.47,14.47,0,0,1,.08-5.29l.83-4.91a10,10,0,0,1,1.57-4.43,1.63,1.63,0,0,1,2.21-.66l.08.05a4.16,4.16,0,0,1,1.71,2.92A14.47,14.47,0,0,1,58.2,89l-.84,4.92a10,10,0,0,1-1.57,4.42,1.64,1.64,0,0,1-2.24.62l-.06,0A4.07,4.07,0,0,1,51.79,96Z"/><path class="cls-14" d="M54,96.19c.42.24.8.1,1.13-.42A8.13,8.13,0,0,0,55.91,93l.84-5a10.42,10.42,0,0,0,.15-3,2,2,0,0,0-.8-1.54c-.42-.25-.8-.11-1.12.42a8.09,8.09,0,0,0-.82,2.72l-.84,5a10.6,10.6,0,0,0-.17,3.13A2,2,0,0,0,54,96.19Z"/><path class="cls-14" d="M40.58,82.57l-.19,1.09A15.59,15.59,0,0,0,40.12,87c.05.86.23,1.37.52,1.54s.52,0,.78-.57a8.33,8.33,0,0,0,.63-2.19,9.91,9.91,0,0,0,.16-2.49c-.06-.66-.22-1.07-.48-1.22a.66.66,0,0,0-.64,0A1.23,1.23,0,0,0,40.58,82.57Z"/><polygon class="cls-15" points="34.99 87.9 36.46 88.75 39.49 70.88 36.53 69.91 36.08 72.54 37.48 73.25 34.99 87.9"/><path class="cls-15" d="M42,76.6c.37-.65.75-.86,1.14-.64a2.13,2.13,0,0,1,.56.48,5.11,5.11,0,0,1,.48.73l.68-2.38a5,5,0,0,0-.57-1,2.57,2.57,0,0,0-.7-.61q-1.2-.69-2.31.84a12,12,0,0,0-1.7,5l-.64,3.82a17.34,17.34,0,0,0-.19,5.52c.24,1.51.72,2.48,1.44,2.89s1.34.17,2-.68a9.36,9.36,0,0,0,1.37-3.89,16.64,16.64,0,0,0,.23-4.51,3,3,0,0,0-1.08-2.39,1,1,0,0,0-.89-.11,1.74,1.74,0,0,0-.81.66l.09-.53A10.07,10.07,0,0,1,42,76.6ZM41.09,82a.66.66,0,0,1,.64,0c.26.15.42.56.48,1.22a9.91,9.91,0,0,1-.16,2.49A8.29,8.29,0,0,1,41.42,88q-.39.8-.78.57c-.29-.17-.47-.68-.52-1.54a15.4,15.4,0,0,1,.27-3.32l.19-1.09A1.15,1.15,0,0,1,41.09,82Z"/><polygon class="cls-15" points="48.42 76.31 47.97 78.99 49.7 79.98 47.17 94.93 48.63 95.78 51.17 80.83 52.94 81.86 53.39 79.18 48.42 76.31"/><path class="cls-15" d="M55.79,98.28a10,10,0,0,0,1.57-4.42l.84-4.92a14.47,14.47,0,0,0,.07-5.29,4.16,4.16,0,0,0-1.71-2.92,1.62,1.62,0,0,0-2.24.53.35.35,0,0,0,0,.08,10,10,0,0,0-1.57,4.43l-.83,4.91A14.64,14.64,0,0,0,51.79,96a4.07,4.07,0,0,0,1.7,2.89,1.63,1.63,0,0,0,2.26-.54A.43.43,0,0,0,55.79,98.28Zm-2.47-6.76.84-5A8.08,8.08,0,0,1,55,83.85c.32-.53.7-.67,1.12-.42A2,2,0,0,1,56.9,85a10.4,10.4,0,0,1-.15,3.1l-.84,5a8,8,0,0,1-.83,2.75c-.33.52-.71.66-1.13.42a2,2,0,0,1-.8-1.54A10.82,10.82,0,0,1,53.32,91.52Z"/><polygon class="cls-15" points="60.11 83.06 57.12 100.68 58.58 101.52 60.49 90.29 60.52 90.3 61.01 102.92 62.48 103.77 65.46 86.15 64 85.3 62.09 96.55 62.06 96.54 61.57 83.9 60.11 83.06"/><path class="cls-15" d="M68.73,87.76a1.44,1.44,0,0,0-1.94.37,6.16,6.16,0,0,0-1.27,3.14,9.37,9.37,0,0,0,0,3.73,11.12,11.12,0,0,0,1.38,3.18,5.26,5.26,0,0,1,.62,1.67,5.12,5.12,0,0,1,0,1.79,3.53,3.53,0,0,1-.51,1.48.56.56,0,0,1-.76.22l0,0a1.65,1.65,0,0,1-.72-1.21,8.09,8.09,0,0,1,.11-2.55l-1.42-.83v.07a10.56,10.56,0,0,0,0,4.68,3.93,3.93,0,0,0,1.6,2.46,1.47,1.47,0,0,0,2-.29A6.18,6.18,0,0,0,69,102.46a10.17,10.17,0,0,0,0-3.81,9.21,9.21,0,0,0-1.3-3.1,8.31,8.31,0,0,1-.7-1.79,4.07,4.07,0,0,1,0-1.63,3.89,3.89,0,0,1,.51-1.48c.23-.34.48-.43.76-.27a1.48,1.48,0,0,1,.63,1.14,7,7,0,0,1-.09,2.23l1.43.82V94.5a10.59,10.59,0,0,0,0-4.27A3.55,3.55,0,0,0,68.73,87.76Z"/></svg>