<svg xmlns="http://www.w3.org/2000/svg" viewBox="0 0 150 160"><defs><style>.cls-1{isolation:isolate;}.cls-2,.cls-3,.cls-4{fill:#fff;stroke:#fff;stroke-miterlimit:10;stroke-width:5px;}.cls-10,.cls-3,.cls-4,.cls-5,.cls-8{opacity:0.35;}.cls-3,.cls-5,.cls-8{mix-blend-mode:multiply;}.cls-10,.cls-4{mix-blend-mode:screen;}.cls-6{fill:#87e0da;}.cls-7{fill:#fbc388;}.cls-8{fill:#e0ca97;}.cls-10,.cls-9{fill:#f7eace;}.cls-11{fill:#fcf8ef;}.cls-12{fill:#d7bb7a;}</style></defs><g class="cls-1"><g id="नाखून"><path class="cls-2" d="M127.49,80A52.49,52.49,0,1,1,75,27.51,52.49,52.49,0,0,1,127.49,80Z"/><path class="cls-2" d="M75,132.49A52.24,52.24,0,0,0,98.44,127c-.15-48.34.11-81.33-23.42-81.37h0c-23.53,0-23.27,33-23.42,81.37A52.24,52.24,0,0,0,75,132.49Z"/><path class="cls-3" d="M88.29,60a16,16,0,0,0-12.36-6.62A16,16,0,0,0,63.57,60c-5.52,7.69-6.54,25.45-5,31.54,1.82,7.34,9.38,9.9,17.39,10,8-.12,15.57-2.68,17.4-10C94.84,85.46,93.81,67.7,88.29,60Z"/><path class="cls-2" d="M87.48,59.58a14.88,14.88,0,0,0-11.55-6.19,14.88,14.88,0,0,0-11.55,6.19c-5.15,7.18-6.12,23.78-4.7,29.47,1.7,6.86,8.76,9.26,16.25,9.36,7.49-.1,14.55-2.5,16.26-9.36C93.6,83.36,92.64,66.76,87.48,59.58Z"/><path class="cls-4" d="M75.93,53.39a13.63,13.63,0,0,0-3.55.57V98.15a29.81,29.81,0,0,0,3.55.26,27.28,27.28,0,0,0,7.75-1.13V55.9A14.69,14.69,0,0,0,75.93,53.39Z"/><path class="cls-2" d="M60.93,67.75c3.6-3.86,9.41-6.08,15-6.19,5.6.11,11.4,2.33,15,6.19l0,0a25.4,25.4,0,0,0-3.49-8.22,14.88,14.88,0,0,0-11.55-6.19,14.88,14.88,0,0,0-11.55,6.19A25.18,25.18,0,0,0,60.9,67.8Z"/><g class="cls-5"><path class="cls-2" d="M75.77,118.8a19.77,19.77,0,0,1-12.25-4.4.9.9,0,0,1,1.21-1.33c.41.36,10,8.8,22.49-.07a.89.89,0,0,1,1.25.21.9.9,0,0,1-.21,1.26A21.36,21.36,0,0,1,75.77,118.8Z"/></g><g class="cls-5"><path class="cls-2" d="M75.75,126.09a22.61,22.61,0,0,1-14.06-5,1,1,0,1,1,1.39-1.53c.46.42,11.45,10.11,25.8-.08a1,1,0,0,1,1.45.25,1,1,0,0,1-.25,1.44A24.46,24.46,0,0,1,75.75,126.09Z"/></g><path class="cls-6" d="M127.49,80A52.49,52.49,0,1,1,75,27.51,52.49,52.49,0,0,1,127.49,80Z"/><path class="cls-7" d="M75,132.49A52.24,52.24,0,0,0,98.44,127c-.15-48.34.11-81.33-23.42-81.37h0c-23.53,0-23.27,33-23.42,81.37A52.24,52.24,0,0,0,75,132.49Z"/><path class="cls-8" d="M88.29,60a16,16,0,0,0-12.36-6.62A16,16,0,0,0,63.57,60c-5.52,7.69-6.54,25.45-5,31.54,1.82,7.34,9.38,9.9,17.39,10,8-.12,15.57-2.68,17.4-10C94.84,85.46,93.81,67.7,88.29,60Z"/><path class="cls-9" d="M87.48,59.58a14.88,14.88,0,0,0-11.55-6.19,14.88,14.88,0,0,0-11.55,6.19c-5.15,7.18-6.12,23.78-4.7,29.47,1.7,6.86,8.76,9.26,16.25,9.36,7.49-.1,14.55-2.5,16.26-9.36C93.6,83.36,92.64,66.76,87.48,59.58Z"/><path class="cls-10" d="M75.93,53.39a13.63,13.63,0,0,0-3.55.57V98.15a29.81,29.81,0,0,0,3.55.26,27.28,27.28,0,0,0,7.75-1.13V55.9A14.69,14.69,0,0,0,75.93,53.39Z"/><path class="cls-11" d="M60.93,67.75c3.6-3.86,9.41-6.08,15-6.19,5.6.11,11.4,2.33,15,6.19l0,0a25.4,25.4,0,0,0-3.49-8.22,14.88,14.88,0,0,0-11.55-6.19,14.88,14.88,0,0,0-11.55,6.19A25.18,25.18,0,0,0,60.9,67.8Z"/><g class="cls-5"><path class="cls-12" d="M75.77,118.8a19.77,19.77,0,0,1-12.25-4.4.9.9,0,0,1,1.21-1.33c.41.36,10,8.8,22.49-.07a.89.89,0,0,1,1.25.21.9.9,0,0,1-.21,1.26A21.36,21.36,0,0,1,75.77,118.8Z"/></g><g class="cls-5"><path class="cls-12" d="M75.75,126.09a22.61,22.61,0,0,1-14.06-5,1,1,0,1,1,1.39-1.53c.46.42,11.45,10.11,25.8-.08a1,1,0,0,1,1.45.25,1,1,0,0,1-.25,1.44A24.46,24.46,0,0,1,75.75,126.09Z"/></g></g></g></svg>