<svg id="क्षति" xmlns="http://www.w3.org/2000/svg" viewBox="0 0 150 160"><defs><style>.cls-1,.cls-15{fill:#2b2a25;}.cls-1{stroke:#fff;stroke-miterlimit:10;stroke-width:3px;}.cls-2{fill:#fff35a;}.cls-3{fill:#f9cc3d;}.cls-4{fill:#fff89f;}.cls-5{fill:#e1e4e5;}.cls-6{fill:#c6cacc;}.cls-7{fill:#c96741;}.cls-8{fill:#eace42;}.cls-9{fill:#72726f;}.cls-10{fill:#777464;}.cls-11{fill:#424038;}.cls-12{fill:#969283;opacity:0.4;}.cls-12,.cls-18,.cls-19,.cls-23{isolation:isolate;}.cls-13{fill:#50aa57;}.cls-14,.cls-18{fill:#97c1bf;}.cls-16{fill:#6ce071;}.cls-17{fill:#418744;}.cls-18{opacity:0.5;}.cls-19{fill:#cecdb6;opacity:0.2;}.cls-20{fill:#e8e7d6;}.cls-21{fill:#494740;}.cls-22{fill:#83a5a2;}.cls-23{fill:#fff;opacity:0.55;}.cls-24{fill:#8c8c89;}</style></defs><path class="cls-1" d="M90.1,136a4.9,4.9,0,0,0-2.4-1.78L107.94,133c-.65-.39-1.31-.76-2-1.12a210.29,210.29,0,0,1,22.55,3.72,69.54,69.54,0,0,0-7.08-9.41h.33l-.63-.34c-1.91-2.18-3.91-4.3-5.9-6.41a126.31,126.31,0,0,1,17.82-.84c-1.18-.61-2.39-1.18-3.61-1.72,1.61-.14,3.21-.29,4.81-.46a185.12,185.12,0,0,0-24.54-6.18q10.08-5.64,19.86-11.76a91.64,91.64,0,0,0-12.27,1.17l3.53-1.93a121.22,121.22,0,0,0-13.2,2.87l-.72-3c.51-1,1-2,1.44-3-.62.45-1.22.93-1.82,1.41l-2.36-10c0-.11.09-.22.13-.33l1.4-.13a2.59,2.59,0,0,0,.29.47l.32.42a2.57,2.57,0,0,0,3.6.49l3.8-2.9a2.57,2.57,0,0,0,.49-3.6l-.32-.42a2.58,2.58,0,0,0-3.61-.49l-3.8,2.9a2.6,2.6,0,0,0-.82,1.1l-1.45-.35A14.55,14.55,0,0,0,103,69.24c-1.57-2.37-2.92-4.22-4.1-5.68a1.86,1.86,0,0,0-.12-2.09l-1.54-2a4.58,4.58,0,0,0,.3-2.15,13.57,13.57,0,0,0-2.64-6.82,30.23,30.23,0,0,1-3.68-6.22c0,2.46-.16,5-.41,7.46A2.93,2.93,0,0,1,90,50.13l-.39,2.28a37.83,37.83,0,0,1-2-5.58c-.2.55-.41,1.1-.62,1.65A11.61,11.61,0,0,0,86.2,43c-.68-1.34-1.87-2.24-2.56-3.58a5,5,0,0,1-.11,1.68,8.73,8.73,0,0,1,1-6.5,11.44,11.44,0,0,0,.91-1.86A4,4,0,0,0,85,29.28c-.42-.66-1-1.23-1.47-1.87a5.12,5.12,0,0,1-.7-4.71A5.5,5.5,0,0,0,82.59,28c.27.55.63,1.07.88,1.63,1.14,2.54-.18,5.31-1,7.92a4.48,4.48,0,0,0-.21,3.08c.19.45.72.71,1.14,1-.25.84-.6,1.65-.87,2.48a12.19,12.19,0,0,0-.23,6.48A6,6,0,0,0,80.5,48a13,13,0,0,1-.5,4.92c-.28.85-.63,1.85-.91,2.9l-.45.35-2.57,2s-.06.06-.09.09a1.07,1.07,0,0,0-.14.16l-.06.13c0,.07,0,.14-.07.21v.13a1.85,1.85,0,0,0,0,.23.61.61,0,0,0,0,.12.67.67,0,0,0,.07.18h0l5.47,7.18h0L51,89.7c-1.55-1.92-3.28-3.77-4.25-6a71.66,71.66,0,0,1-.48,7.46,2.78,2.78,0,0,1-1-1.59c-.16.76-.33,1.52-.5,2.29a33.39,33.39,0,0,1-2.37-5.58c-.25.54-.49,1.09-.74,1.64.06-1.9.06-3.91-.94-5.53-.83-1.34-2.24-2.24-3.07-3.58.25,1.63-.74,3.15-1.33,4.69a10.17,10.17,0,0,0-.26,6.47,6.26,6.26,0,0,0-2.15-2.5,11.09,11.09,0,0,1-.61,4.91,23.4,23.4,0,0,0-1.5,4.89l-2-2.63a.93.93,0,0,0-1.06-.31.9.9,0,0,0-.22.11l0,0h0a.2.2,0,0,0-.08,0L21.7,99.56a1,1,0,0,0-.3,1.3l5.47,7.19h0l-2.24,1.71a1.88,1.88,0,0,0-.36,2.63l2.82,3.69h0a1.86,1.86,0,0,0,2.09.63c1.08,1.5,2.5,3.29,4.35,5.41a14.59,14.59,0,0,0,5.65,4q-7.38,2.36-14.94,4.07a48.35,48.35,0,0,1,11,1.06,123.26,123.26,0,0,1-11.49,5c-6.48.1-10.26.23-10.26.36,0,.36,27.53.65,61.48.65s61.48-.29,61.48-.65S116.75,136.09,90.1,136Zm-2.49-39.6.24-.22L89.48,95v0Zm4.74-3.62v0l1.17-.89,0,0ZM60.73,116.88l.47-.31-5.68,4.34,0,0Zm40.16-30.6v0l1.47-1.12v0ZM64.16,135.81l.36.2c-6.33,0-12.32,0-17.83.06Q55.44,135.86,64.16,135.81Zm40-50.12,0-.11h.13Z"/><path class="cls-1" d="M43.67,85.72a3.24,3.24,0,0,1,.78-2.84c.64-.8,1.44-1.46,2-2.32,1.37-2.11.91-4.92.26-7.3s-1.56-4.93-1-7.38c.37-1.66,1.39-3.13,1.67-4.8a9.63,9.63,0,0,0-1.65-6.23c1,2,.57,4.38-.18,6.47s-1.82,4.09-2.16,6.29A9.69,9.69,0,0,0,44.11,73c.65,1.41,1.68,2.82,1.78,4.41.11,1.85-1,3.35-2.17,4.72C42.37,83.78,43.1,83.93,43.67,85.72Z"/><path class="cls-1" d="M36.06,76.84c.38,1,1.67,1.37,2,2.16-1.42-3.53-.75-7.55.75-11A18.83,18.83,0,0,0,40,65.3a7,7,0,0,0-.54-5c-.49-1-1.21-1.8-1.75-2.74a8.91,8.91,0,0,1-.84-6.87,9.59,9.59,0,0,0-.3,7.66c.27.81.7,1.57,1,2.38,1.34,3.71-.22,7.74-1.22,11.56A8,8,0,0,0,36.06,76.84Z"/><path class="cls-1" d="M33.88,78.75A26,26,0,0,1,34,75.22c.14-1.08.42-2.14.57-3.22a13.24,13.24,0,0,0-2.73-9.89A15.88,15.88,0,0,1,32.76,72c-.44,1.89-1.23,3.7-1.52,5.63-.45,3.07,1.2,6.69,2.64,9.41C34,84.3,33.88,81.5,33.88,78.75Z"/><path class="cls-1" d="M88.67,44.22c-1.08,1.16-.47,1.27,0,2.49a1.92,1.92,0,0,1,.66-1.94c.52-.6,1.2-1,1.67-1.6,1.14-1.44.8-3.34.22-5s-1.34-3.38-.88-5.06c.31-1.11,1.16-2.11,1.4-3.28.31-1.48-.45-3-1.38-4.27A4.81,4.81,0,0,1,90.21,30a20.63,20.63,0,0,0-1.81,4.34A5.62,5.62,0,0,0,89,38c.54,1,1.4,1.91,1.48,3C90.59,42.25,89.63,43.28,88.67,44.22Z"/><path class="cls-1" d="M80.44,41.91a15,15,0,0,1,.13-2.42c.12-.74.36-1.46.48-2.2a8,8,0,0,0-2.28-6.76,9.11,9.11,0,0,1,.74,6.77,39.65,39.65,0,0,0-1.28,3.86c-.38,2.11,1,4.58,2.21,6.43C80.57,45.72,80.44,43.8,80.44,41.91Z"/><path class="cls-2" d="M43.27,124.8a178.83,178.83,0,0,1-19,5.41,48.35,48.35,0,0,1,11,1.06,120.13,120.13,0,0,1-12.88,5.55c16.49-.56,33-1.13,49.46-1l-15.68-14.3a6.7,6.7,0,0,0-3.44-2A6.36,6.36,0,0,0,49,120.65a74.71,74.71,0,0,0-7.59,5Z"/><path class="cls-2" d="M90.39,136.43a4.86,4.86,0,0,0-2.69-2.19L107.94,133a46.62,46.62,0,0,0-9.62-4.44,22.4,22.4,0,0,0-5.54-1.21,51.38,51.38,0,0,0-5.82.21c-3.15.17-6.31,0-9.47,0a14.47,14.47,0,0,0-7.53,1.6c-1.76,1.05-3.47,3.3-3.22,5.47.29,2.41,3.86,1.74,5.67,1.83A168.5,168.5,0,0,0,90.39,136.43Z"/><path class="cls-3" d="M90.73,88.51l2,5.28a135.42,135.42,0,0,1,8.87-18.55q-.87,13.7-1.75,27.38a42.72,42.72,0,0,1,8.51-8.1,55.57,55.57,0,0,1-4.54,8.38,92.42,92.42,0,0,1,25.76-4.41q-10.77,6.75-21.92,12.92a65.45,65.45,0,0,1,25.4,7.2,126.31,126.31,0,0,0-17.82.84c4.82,5.1,9.68,10.25,13.28,16.15a211.54,211.54,0,0,0-49.92-5L87.35,107c1.12-3,2.18-5.56,2.13-8.83a29.53,29.53,0,0,1,.07-4.51C89.69,92.67,91.11,89.35,90.73,88.51Z"/><path class="cls-2" d="M104.38,85.38q-3.59,8.94-6.32,18.26a123.65,123.65,0,0,1,22.78-5.91q-10.07,5.43-20,11.13a186.49,186.49,0,0,1,33.42,7.57,246.59,246.59,0,0,1-25.63,1.45,92.14,92.14,0,0,0,13.14,8.32c-16.36-.55-32.28,2.46-48,5.46L80.19,118c1.86-3.93,3.72-7.86,5.38-11.89.91-2.18,2.17-9.59,4.41-10.29,1.9-.6,3.35,1.68,5.47.49C98.86,94.41,101.92,88.41,104.38,85.38Z"/><path class="cls-4" d="M85.41,110.65,96.18,99.34A47,47,0,0,0,91,111c4.68-3.31,10.85-4,16.11-6.42L92.17,113a38.6,38.6,0,0,1,18.11,2,95.89,95.89,0,0,0-15.39,1.8,41.2,41.2,0,0,1,13.87,5.78Q93,124,77.51,126.87c1.77-6.63,6-12.1,10.12-17.41l-.66.17Z"/><path class="cls-5" d="M136.48,136.65c0,.36-27.53.65-61.48.65s-61.48-.29-61.48-.65S41.05,136,75,136,136.48,136.29,136.48,136.65Z"/><path class="cls-6" d="M45.89,77.36c-.1-1.59-1.13-3-1.78-4.41a9.69,9.69,0,0,1-.72-5.34c.34-2.2,1.41-4.2,2.16-6.29s1.16-4.48.18-6.47a9.63,9.63,0,0,1,1.65,6.23c-.28,1.67-1.3,3.14-1.67,4.8-.56,2.45.35,5,1,7.38s1.11,5.19-.26,7.3c-.56.86-1.36,1.52-2,2.32a3.24,3.24,0,0,0-.78,2.84c-.57-1.79-1.3-1.94,0-3.64C44.86,80.71,46,79.21,45.89,77.36Z"/><path class="cls-6" d="M36.3,72.29c1-3.82,2.56-7.85,1.22-11.56-.3-.81-.73-1.57-1-2.38a9.59,9.59,0,0,1,.3-7.66,8.91,8.91,0,0,0,.84,6.87c.54.94,1.26,1.77,1.75,2.74a7,7,0,0,1,.54,5A18.83,18.83,0,0,1,38.81,68c-1.5,3.45-2.17,7.47-.75,11-.33-.79-1.62-1.16-2-2.16A8,8,0,0,1,36.3,72.29Z"/><path class="cls-6" d="M31.24,77.62c.29-1.93,1.08-3.74,1.52-5.63a15.88,15.88,0,0,0-.88-9.88A13.24,13.24,0,0,1,34.61,72c-.15,1.08-.43,2.14-.57,3.22a26,26,0,0,0-.16,3.53c0,2.75.15,5.55,0,8.28C32.44,84.31,30.79,80.69,31.24,77.62Z"/><path class="cls-7" d="M33.29,92.35a11.09,11.09,0,0,0,.61-4.91,6.26,6.26,0,0,1,2.15,2.5,10.17,10.17,0,0,1,.26-6.47c.59-1.54,1.58-3.06,1.33-4.69.83,1.34,2.24,2.24,3.07,3.58,1,1.62,1,3.63.94,5.53.25-.55.49-1.1.74-1.64a33.39,33.39,0,0,0,2.37,5.58c.17-.77.34-1.53.5-2.29a2.78,2.78,0,0,0,1,1.59,71.66,71.66,0,0,0,.48-7.46c1,2.34,2.82,4.23,4.41,6.22s3,4.28,3.15,6.82a4.7,4.7,0,0,1-.5,2.47,6.33,6.33,0,0,1-3.37,2.42,24.65,24.65,0,0,1-9,1.88c-2.62,0-7.33-.5-9-2.89S32.45,94.68,33.29,92.35Z"/><path class="cls-8" d="M33.87,94.53a7.69,7.69,0,0,0,.8-2.68L35,93.59a2.7,2.7,0,0,0,.3-1.11,5.54,5.54,0,0,1,1.29,2.38c.63-1.13,0-2.55.16-3.84a10.8,10.8,0,0,1,1-2.64,7.39,7.39,0,0,0,.46-4A14.44,14.44,0,0,0,39,87.06a8.85,8.85,0,0,1,0,2.3,9.78,9.78,0,0,0,.73,4.41c.09-.53.19-1.06.28-1.59.27.45.53.9.79,1.36a8.26,8.26,0,0,1,.48-4c-.11,1.24,1.33,2.12,1.48,3.35l.17-1.11c.13,1,1.07,1.56,1.73,2.27a4.65,4.65,0,0,1,1.24,3,9.12,9.12,0,0,0,.33-2.89,1.21,1.21,0,0,1,.12-.75c.14-.22.52-.28.64-.06-.1-.28.27-.48.49-.68a1.55,1.55,0,0,0,.37-.81,9.69,9.69,0,0,0,.12-3.56,20.1,20.1,0,0,0,1.78,3.82,5.42,5.42,0,0,1,.62,4.07,4.23,4.23,0,0,1-1.88,2.16,9,9,0,0,1-2.75.94A21,21,0,0,1,37.23,99c-1-.22-3-.46-3.64-1.4C33.12,96.84,33.57,95.29,33.87,94.53Z"/><path class="cls-6" d="M90.49,41c-.08-1.09-.94-2-1.48-3a5.62,5.62,0,0,1-.61-3.66A20.63,20.63,0,0,1,90.21,30a4.81,4.81,0,0,0,.15-4.44c.93,1.3,1.69,2.79,1.38,4.27C91.5,31,90.65,32,90.34,33.11c-.46,1.68.3,3.4.88,5.06s.92,3.56-.22,5c-.47.59-1.15,1-1.67,1.6a1.92,1.92,0,0,0-.66,1.94c-.47-1.22-1.08-1.33,0-2.49C89.63,43.28,90.59,42.25,90.49,41Z"/><path class="cls-6" d="M82.47,37.5c.82-2.61,2.14-5.38,1-7.92-.25-.56-.61-1.08-.88-1.63a5.5,5.5,0,0,1,.26-5.25,5.12,5.12,0,0,0,.7,4.71c.45.64,1,1.21,1.47,1.87a4,4,0,0,1,.44,3.41,11.44,11.44,0,0,1-.91,1.86c-1.26,2.36-1.82,5.12-.63,7.51-.27-.54-1.36-.79-1.66-1.48A4.48,4.48,0,0,1,82.47,37.5Z"/><path class="cls-6" d="M78.23,41.16a39.65,39.65,0,0,1,1.28-3.86,9.11,9.11,0,0,0-.74-6.77,8,8,0,0,1,2.28,6.76c-.12.74-.36,1.46-.48,2.2a15,15,0,0,0-.13,2.42c0,1.89.13,3.81,0,5.68C79.24,45.74,77.85,43.27,78.23,41.16Z"/><path class="cls-7" d="M80,52.94A13,13,0,0,0,80.5,48a6,6,0,0,1,1.8,2.51,12.19,12.19,0,0,1,.23-6.48c.49-1.53,1.31-3,1.11-4.68.69,1.34,1.88,2.24,2.56,3.58A11.61,11.61,0,0,1,87,48.48c.21-.55.42-1.1.62-1.65a37.83,37.83,0,0,0,2,5.58L90,50.13a2.93,2.93,0,0,0,.81,1.59c.25-2.48.38-5,.41-7.46a30.23,30.23,0,0,0,3.68,6.22,13.57,13.57,0,0,1,2.64,6.82,4.61,4.61,0,0,1-3.24,4.89,17.81,17.81,0,0,1-7.51,1.88c-2.19,0-6.13-.51-7.53-2.89S79.24,55.27,80,52.94Z"/><path class="cls-8" d="M80.43,55.12a9.17,9.17,0,0,0,.67-2.68l.3,1.73a3.2,3.2,0,0,0,.25-1.1,6,6,0,0,1,1.08,2.37c.53-1.13,0-2.54.14-3.83A12.64,12.64,0,0,1,83.72,49a8.75,8.75,0,0,0,.39-4,13,13,0,0,0,.62,2.68,11,11,0,0,1,0,2.29,11.79,11.79,0,0,0,.61,4.41l.24-1.59.66,1.36a9.67,9.67,0,0,1,.4-4c-.09,1.24,1.11,2.12,1.24,3.35L88,52.37c.1,1,.89,1.56,1.44,2.27a5.14,5.14,0,0,1,1,3,11.25,11.25,0,0,0,.28-2.89,1.49,1.49,0,0,1,.1-.75c.11-.22.43-.29.53-.06-.08-.28.23-.48.41-.68a1.71,1.71,0,0,0,.31-.81,11.49,11.49,0,0,0,.1-3.56,22.74,22.74,0,0,0,1.49,3.82,6.33,6.33,0,0,1,.52,4.06,4,4,0,0,1-1.57,2.16,6.45,6.45,0,0,1-2.3,1,14.83,14.83,0,0,1-7.1-.23c-.82-.22-2.55-.46-3-1.4S80.18,55.88,80.43,55.12Z"/><rect class="cls-9" x="105.14" y="80.27" width="9.92" height="5.67" rx="2.57" transform="translate(-27.84 83.74) rotate(-37.31)"/><polygon class="cls-9" points="107.44 83.83 102.47 82.63 102.34 85.74 107.23 85.29 107.44 83.83"/><rect class="cls-9" x="40.2" y="130.15" width="9.92" height="5.67" rx="2.57" transform="translate(-70.44 53.23) rotate(-36.64)"/><polygon class="cls-9" points="46.58 130.63 46.81 125.53 49.83 126.25 48.05 130.83 46.58 130.63"/><rect class="cls-10" x="23.1" y="95.92" width="10.43" height="10.74" rx="0.94" transform="translate(-55.6 37.89) rotate(-37.31)"/><path class="cls-11" d="M28.24,108.11l.29-.22a16.21,16.21,0,0,1-2.07-2.8A7.37,7.37,0,0,1,26,99.38a8.52,8.52,0,0,1,3.86-4.63l-.16-.21a1,1,0,0,0-1.33-.06L21.7,99.56a1,1,0,0,0-.3,1.3l5.47,7.19A1,1,0,0,0,28.24,108.11Z"/><path class="cls-12" d="M33.36,101.29c-.8-1.08-1.62-2.15-2.5-3.17a1.36,1.36,0,0,0-.57-.46.73.73,0,0,0-.77.17.62.62,0,0,0-.13.58,1.41,1.41,0,0,0,.26.5l2.28,3.15a1.29,1.29,0,0,0,.55.51,1,1,0,0,0,.92-.27A.73.73,0,0,0,33.36,101.29Z"/><rect class="cls-10" x="77.51" y="54.45" width="10.43" height="10.74" rx="0.94" transform="translate(-19.33 62.38) rotate(-37.31)"/><path class="cls-11" d="M82.64,66.65l.29-.22a17.11,17.11,0,0,1-2.06-2.8,7.33,7.33,0,0,1-.43-5.71,8.46,8.46,0,0,1,3.85-4.63l-.15-.21A1,1,0,0,0,82.81,53l-6.68,5.1a.94.94,0,0,0-.29,1.3h0l5.47,7.18A1,1,0,0,0,82.64,66.65Z"/><path class="cls-13" d="M65.27,136.42s2.4,1.45,10.42-3.2c6.91-4,21.11-14.82,26.81-20.42,6.6-6.5,5.84-9.2,5.84-9.2l-4.58-19.51-28,21.37-28,21.37Z"/><path class="cls-13" d="M33.56,122.14a14.57,14.57,0,0,0,14.11,4.69l28.05-21.37,28-21.37A14.57,14.57,0,0,0,103,69.24c-7.58-11.45-10.3-11-10.3-11L59.21,83.79,25.73,109.3S24.53,111.79,33.56,122.14Z"/><path class="cls-14" d="M66,135s1.06.92,4.06-.27c2.17-.86,10.85-6.71,18.19-12.3,6.93-5.28,15.28-12.42,16.68-14.28,1.94-2.57,1.34-3.84,1.34-3.84l-5.71-16.12s-14.28,12-23.37,19.25C65.91,116.39,52,125.17,52,125.17Z"/><path class="cls-15" d="M104.79,103.21s.61,1.26-1.28,3.8c-1.37,1.83-9.53,8.82-16.31,14-7.18,5.47-15.69,11.18-17.81,12-3,1.15-4,.23-4,.23L53,124.5c-.67.44-1,.67-1,.67L66,135s1.06.92,4.06-.27c2.17-.86,10.85-6.71,18.19-12.3,6.93-5.28,15.28-12.42,16.68-14.28,1.94-2.57,1.34-3.84,1.34-3.84l-5.71-16.12-.94.79Z"/><path class="cls-16" d="M103.65,77.94l-.91,4.81S83,100.88,76.2,106.18c-8.07,6.26-28.64,19.16-28.64,19.16L42,124.93a268.07,268.07,0,0,0,31.8-20.58A313,313,0,0,0,103.65,77.94Z"/><path class="cls-17" d="M97.64,62.09c-3.57-4.06-5-3.8-5-3.8L59.2,83.8,25.72,109.31s-.61,1.27,2.35,5.79Z"/><path class="cls-9" d="M24.65,109.77,93.34,57.43a1.88,1.88,0,0,1,2.63.35l2.81,3.69a1.88,1.88,0,0,1-.35,2.63L29.74,116.45a1.87,1.87,0,0,1-2.62-.35h0l-2.82-3.69A1.88,1.88,0,0,1,24.65,109.77Z"/><path class="cls-18" d="M32.52,112l64.8-49.4a.67.67,0,0,1,1,.07l0,0h0a.69.69,0,0,1-.09,1l0,0L33.35,113.05a.68.68,0,0,1-1-.08l0,0h0A.69.69,0,0,1,32.52,112Z"/><path class="cls-12" d="M87.77,59.83c-.81-1.08-1.62-2.16-2.5-3.17a1.36,1.36,0,0,0-.57-.46.73.73,0,0,0-.77.17.68.68,0,0,0-.14.58,1.62,1.62,0,0,0,.27.5l2.28,3.15a1.18,1.18,0,0,0,.55.51,1,1,0,0,0,.92-.27A.74.74,0,0,0,87.77,59.83Z"/><path class="cls-19" d="M98.83,89.6s.77,7.35.29,11.1c-.77,6-4.64,16.76-4.64,16.76l-3,2.41s3-9,3.2-16.25c.11-4.14-.06-10.51-.06-10.51Z"/><path class="cls-19" d="M85,101.06a115.18,115.18,0,0,1-1.56,13.48,143.27,143.27,0,0,1-4.53,14.6l-2.44,1.71s1.81-8.85,2.06-13.14a68.89,68.89,0,0,0-.7-10.83Z"/><path class="cls-19" d="M62.17,118.42c-.11.08-2.18,12.34-2.18,12.34l-2-1.39-.91-7.53Z"/><rect class="cls-20" x="48.56" y="84.37" width="25.77" height="5.49" rx="1.39" transform="translate(-40.23 55.07) rotate(-37.31)"/><path class="cls-21" d="M93.36,76.87a4.61,4.61,0,1,1,6.46.88A4.61,4.61,0,0,1,93.36,76.87Z"/><path class="cls-14" d="M93.87,76.43a3.94,3.94,0,1,1,5.52.73h0A3.94,3.94,0,0,1,93.87,76.43Z"/><path class="cls-22" d="M97.13,78a3.94,3.94,0,0,1,.79-7.76A3.94,3.94,0,1,0,96,77.89,3.78,3.78,0,0,0,97.13,78Z"/><path class="cls-23" d="M99.81,72.65a2.2,2.2,0,0,0-1.37-1.16,1.29,1.29,0,0,0-1.52.76,1.45,1.45,0,0,0,.51,1.47c.32.29.76.54.79,1s-.32.73-.61,1-.55.75-.31,1.09c.63.86,2-.43,2.36-1A3.21,3.21,0,0,0,99.81,72.65Z"/><path class="cls-21" d="M35,121.33a4.61,4.61,0,1,1,6.46.88,4.61,4.61,0,0,1-6.46-.88Z"/><path class="cls-14" d="M35.52,120.89a3.94,3.94,0,1,1,5.52.74h0A4,4,0,0,1,35.52,120.89Z"/><path class="cls-22" d="M38.79,122.43a3.94,3.94,0,0,1,.78-7.76,3.94,3.94,0,0,0-1.9,7.65A3.84,3.84,0,0,0,38.79,122.43Z"/><path class="cls-23" d="M41.47,117.11A2.17,2.17,0,0,0,40.09,116a1.31,1.31,0,0,0-1.51.76,1.45,1.45,0,0,0,.51,1.47c.32.29.75.54.79,1s-.33.73-.62,1-.54.75-.3,1.09c.63.86,2-.43,2.36-1A3.21,3.21,0,0,0,41.47,117.11Z"/><path class="cls-24" d="M48.71,118c6.52-4.44,23-15.68,23.2-15.92S87.4,89.09,93.41,84a2.68,2.68,0,0,0,.32-3.78,2.42,2.42,0,0,0-.32-.32l-4-3.4A2.67,2.67,0,0,0,86,76.39L64.69,92.65,43.35,108.92a2.68,2.68,0,0,0-.81,3.27L44.76,117a2.67,2.67,0,0,0,3.59,1.21A2.12,2.12,0,0,0,48.71,118Z"/><path class="cls-14" d="M47.2,119.12h0a3.29,3.29,0,0,1-3-1.91L42,112.45a3.32,3.32,0,0,1,1-4L85.67,75.9a3.32,3.32,0,0,1,4.14.11l4,3.4a3.31,3.31,0,0,1,.33,4.67,2.57,2.57,0,0,1-.33.33c-18.45,15.67-21.07,17.83-21.53,18.17s-3.23,2.31-23.23,15.94A3.31,3.31,0,0,1,47.2,119.12ZM87.67,76.44a2,2,0,0,0-1.26.43L43.72,109.4a2.12,2.12,0,0,0-.63,2.54l2.22,4.76a2.09,2.09,0,0,0,1.89,1.2h0a2,2,0,0,0,1.17-.36c13.85-9.44,22.45-15.34,23.11-15.85v-.06h.08c.67-.5,8.64-7.23,21.41-18.08A2,2,0,0,0,93.7,82a2.1,2.1,0,0,0-.7-1.63l-4-3.4A2.09,2.09,0,0,0,87.67,76.44Z"/><path class="cls-14" d="M45,116.57l-.66-1c.17-.11,17.81-11.69,24.87-17S92.23,79,92.39,78.9l.81.91C93,80,77,94.13,69.9,99.49S45.14,116.45,45,116.57Z"/><path class="cls-14" d="M43.05,113.09l-.66-1c.17-.11,17.21-11.3,24.26-16.63s22.49-19,22.64-19.18l.81.91c-.15.14-15.62,13.88-22.71,19.24S43.23,113,43.05,113.09Z"/><path class="cls-15" d="M69.43,128.6c.81-.9,1.61-1.81,2.41-2.71a2.14,2.14,0,0,0,.5-.76,2.41,2.41,0,0,0,0-1,21.42,21.42,0,0,1,1.29-11.39l-.57,4.7a1.43,1.43,0,0,0,0,.65,2,2,0,0,0,.28.56l1.46,2.14a1.6,1.6,0,0,1,.33.71,1.58,1.58,0,0,1-.21.85c-.59,1.33-1.19,2.65-1.78,4a1.66,1.66,0,0,0-.21,1.07,1.6,1.6,0,0,0,.44.65c.75.81,1.51,1.62,2.27,2.42,0,0-3.13,1.83-3.82,1.7C70.49,131.88,69.94,129.64,69.43,128.6Z"/><path class="cls-15" d="M75.91,118.49a1.68,1.68,0,0,1,.59-.47,1.7,1.7,0,0,1,1,0,13.8,13.8,0,0,0,2.4.29,1.65,1.65,0,0,0,.82-.12,1.62,1.62,0,0,0,.61-.71,63.61,63.61,0,0,0,3-5.8,9.85,9.85,0,0,0,4.51-.42c-1.14.69-2.86.2-3.72,1.2a2.52,2.52,0,0,0-.44.76l-3,6.79-3.18-.89a1,1,0,0,0-1.38.33.89.89,0,0,0-.08.17l-5,7.66c.52-1.75,1-3.51,1.49-5.27A8.74,8.74,0,0,1,75.91,118.49Z"/><path class="cls-15" d="M96.74,93.23A16.88,16.88,0,0,1,95,98.1a6.94,6.94,0,0,1-1,1.62,6.25,6.25,0,0,1-1,.85c-2.94,2.31-6,4.48-9.15,6.5l12.4-6.17c.49-1.84,1-3.68,1.48-5.51l5.78,2.49a19.7,19.7,0,0,1-1.22-2.43,10.42,10.42,0,0,0-.86-2.36c-.45-.5-1.41-.25-2.13-.19A15.73,15.73,0,0,0,96.74,93.23Z"/><path class="cls-15" d="M89.4,114.3A117.73,117.73,0,0,1,96.89,105a27.3,27.3,0,0,1-2.48-4.53c-.58.45-1.71,1.22-1.72,2.05,0,1,1.16,1.34,1.79,1.83-.81,1.68-2,3.24-2.84,4.92C90.86,110.78,90.39,112.94,89.4,114.3Z"/></svg>