<svg id="फूल" xmlns="http://www.w3.org/2000/svg" viewBox="0 0 150 160"><defs><style>.cls-1{fill:#fff;stroke:#fff;stroke-miterlimit:10;stroke-width:5px;}.cls-2{fill:#495924;}.cls-3{fill:#f26539;}.cls-4{fill:#dc4b00;}.cls-5{fill:#f69193;}.cls-6{fill:#f9b8b9;}.cls-7{fill:#3b2214;}.cls-8{fill:#fff0d3;}.cls-9{fill:#9cd7d4;}.cls-10{fill:#456576;}.cls-11{fill:#0d384f;}.cls-12{fill:#fbb578;}.cls-13{fill:#b18760;}.cls-14{fill:#fbc18d;}</style></defs><path class="cls-1" d="M33.26,67.93a5.2,5.2,0,0,0,3.88.06,3.38,3.38,0,0,0,2.19-3.31,3.52,3.52,0,0,0-2.61-2.79,5.66,5.66,0,0,0-2.5-.1c1.23-2,1.29-4.68-.86-6.07a3.27,3.27,0,0,0-4.47.71,5.26,5.26,0,0,0-.91,3,5.28,5.28,0,0,0-2.15-1.92,3.78,3.78,0,0,0-4.78,1.21c-2,2.84.13,6.11,3,7a6.23,6.23,0,0,0-1.92,1,3.47,3.47,0,0,0-1.25,3.94,2.85,2.85,0,0,0,3.3,1.61,5.52,5.52,0,0,0,3.18-2.23,4.08,4.08,0,0,0,.7,3.25,3.48,3.48,0,0,0,3.73,1.31C34.66,73.74,34.73,70.11,33.26,67.93Z"/><path class="cls-1" d="M44.75,67.87a4.55,4.55,0,0,0-1.37.71,2.46,2.46,0,0,0-.88,2.8,2,2,0,0,0,2.34,1.14,3.88,3.88,0,0,0,2.26-1.58,2.91,2.91,0,0,0,.5,2.31,2.47,2.47,0,0,0,2.65.93c2-.65,2.11-3.23,1.06-4.79a3.71,3.71,0,0,0,2.76,0,2.42,2.42,0,0,0,1.56-2.36,2.51,2.51,0,0,0-1.86-2A4,4,0,0,0,52,65c.87-1.41.91-3.33-.61-4.31a2.32,2.32,0,0,0-3.18.5,3.7,3.7,0,0,0-.65,2.15A3.79,3.79,0,0,0,46,62a2.69,2.69,0,0,0-3.4.87C41.21,64.88,42.73,67.21,44.75,67.87Z"/><path class="cls-1" d="M38,89.58a2.47,2.47,0,0,0,2.65.93c2-.65,2.11-3.23,1.06-4.78a3.71,3.71,0,0,0,2.76,0,2.39,2.39,0,0,0,1.56-2.35,2.51,2.51,0,0,0-1.86-2,4,4,0,0,0-1.77-.07c.87-1.42.91-3.33-.61-4.32a2.33,2.33,0,0,0-3.18.51A3.63,3.63,0,0,0,38,79.7a3.72,3.72,0,0,0-1.53-1.37,2.7,2.7,0,0,0-3.41.86c-1.41,2,.1,4.35,2.13,5a4.43,4.43,0,0,0-1.37.71,2.47,2.47,0,0,0-.89,2.8,2,2,0,0,0,2.35,1.15,4,4,0,0,0,2.26-1.59A2.86,2.86,0,0,0,38,89.58Z"/><path class="cls-1" d="M122.51,107.78a34.62,34.62,0,0,0-12-9.64c.11-1.54.24-3.07.39-4.61.79-.75,1.47-1.65,2.17-2.46,1.07-1.22,2.13-2.46,3.16-3.72a83.46,83.46,0,0,0,5.89-8,37,37,0,0,0,6.08-18.31,1,1,0,0,0-1.88-.64,73.42,73.42,0,0,0-10,14.87,75.65,75.65,0,0,0-3.51,8c-.33.91-.66,1.83-1,2.77.65-4.38,1.46-8.73,2.36-13,1.1-5.24,2.33-10.46,3.4-15.71a5.28,5.28,0,0,0,3.56-1.32c2.3-2,3.88-5,5.18-7.66A24.71,24.71,0,0,0,129,36.17a.71.71,0,0,0-1-.69,17.62,17.62,0,0,0-4.95,3.35,23,23,0,0,0-.86-5.66.66.66,0,0,0-1.06-.38,20.12,20.12,0,0,0-5.56,8.38c0-.44-.1-.87-.16-1.31a22.88,22.88,0,0,0-1-4.86c-.18-.46-1-.34-1,.18a1,1,0,0,1,0,.17c-.45,1.62-1,3.21-1.28,4.88a32.67,32.67,0,0,0-.48,5.41c0,3.12.12,7,2,9.58a5.1,5.1,0,0,0,2.61,2C115,61.75,113.94,66.38,113,71c-1.23,5.77-2.32,11.57-3.1,17.41-.42,3.1-.72,6.08-.93,9A55.52,55.52,0,0,0,95.4,93.14h0c.56-1.84,1.06-3.71,1.49-5.58.86-1.43,1.88-2.8,2.78-4.15,1.25-1.88,2.57-3.71,3.8-5.6,2.46-3.76,4.58-7.79,5.22-12.29a.46.46,0,0,0-.78-.42c-.55.51-1.09,1-1.61,1.58a16.23,16.23,0,0,0-2.52-5.43,9.52,9.52,0,0,0-.73-.86l.12,0a12.19,12.19,0,0,0,8.12-1,.42.42,0,0,0,.09-.65,12.42,12.42,0,0,0-5.45-2.5,10.37,10.37,0,0,0,5-4.73.38.38,0,0,0-.33-.56,17.43,17.43,0,0,0-6.57,1.6l-.43.22c.1-.15.21-.3.31-.46a13.58,13.58,0,0,0,2.21-7.26.38.38,0,0,0-.47-.36,8.14,8.14,0,0,0-5.07,3.58,10.2,10.2,0,0,0-.81,1.44c0-.28,0-.55,0-.83a16,16,0,0,0-.49-3.83,22.42,22.42,0,0,0-1.39-3.68.36.36,0,0,0-.57-.07,11.54,11.54,0,0,0-2.83,7.41v0a13.71,13.71,0,0,0-4.87-4c-.2-.1-.55,0-.51.29a21.49,21.49,0,0,0,2,7.78l-.52-.16c-2.75-.72-5.47.12-8.09.95a.29.29,0,0,0-.12.48,15.5,15.5,0,0,0,6,3.29,11.41,11.41,0,0,0,1.41.3,10.82,10.82,0,0,0-1.77.73,11.2,11.2,0,0,0-4.88,5.12.28.28,0,0,0,.25.42,14.79,14.79,0,0,0,8.19-2.3A13.11,13.11,0,0,0,91,63a20.69,20.69,0,0,0-1.35,8.22.33.33,0,0,0,.49.28A14.37,14.37,0,0,0,95,66a12.21,12.21,0,0,0,2.56,5.76c0,.78,0,1.56-.07,2.34a75.7,75.7,0,0,1-1,9.39q-.48,2.88-1.15,5.72c-.44-6-2.88-11.69-5-17.28a.35.35,0,0,0-.67,0,18.63,18.63,0,0,0,2,17,15.21,15.21,0,0,1,2.15,3.94,65.63,65.63,0,0,0-10.15-.79,67,67,0,0,0-7.3.4c.28-1.92.57-3.83.83-5.72,1.59-11.32,2.59-23-.38-34.13a38.46,38.46,0,0,0-3.5-8.7,20.76,20.76,0,0,0,3.22,1.46,19.83,19.83,0,0,0,4.23,1h0a.13.13,0,0,0,.11,0,.13.13,0,0,0,.16,0,.1.1,0,0,0,.06-.14A21.75,21.75,0,0,0,71.7,35.44c-.53-.31-1.07-.58-1.62-.84h0l.52-.08A15.57,15.57,0,0,0,80,29.05a15.93,15.93,0,0,0,2.14-3.51,0,0,0,0,0,0,0,.06.06,0,0,0,0-.06.15.15,0,0,0-.12-.22,18.56,18.56,0,0,0-12.59,3.64l-.08.06a17.25,17.25,0,0,0,.81-1.75,25.71,25.71,0,0,0,1.44-13.44c0-.05,0-.08-.07-.09a.18.18,0,0,0-.08-.07h-.08a1,1,0,0,0-.23.12l0,0,0,0,0,0A19.67,19.67,0,0,0,63.5,26.1s0,.07,0,.11A22.3,22.3,0,0,0,57,14.15a14.53,14.53,0,0,0-4.76-3.09h0a.11.11,0,0,0-.14.07.08.08,0,0,0-.05.08,19.93,19.93,0,0,0,3.35,15.11l.45.65.06.05c.2.24.39.48.6.72a16.09,16.09,0,0,0,1.4,1.46l.12.13.44.4h0l.46.39c-4.4-2-9.63-1.37-14.29-.37a.1.1,0,0,0-.07,0l0,0a.16.16,0,0,0-.06.24A11.79,11.79,0,0,0,52,34.27a18.17,18.17,0,0,0,7-.43c.75-.19,1.49-.41,2.23-.65l.1,0,.1,0a.25.25,0,0,1,0,.07h0a23,23,0,0,0-13.1,9.41,21.48,21.48,0,0,0-2.12,4l0,.09a.14.14,0,0,0,.09.24c5.6.52,10.47-3.09,13.49-7.51.47-.69.91-1.41,1.32-2.14h0c.3-.55.59-1.1.86-1.66,0,0,0,0,0-.05h0a2.11,2.11,0,0,0,.19.23,21.37,21.37,0,0,0,2,20.37l.12.26.08.15a.12.12,0,0,0,.19.05.12.12,0,0,0,.07-.07A23.16,23.16,0,0,0,67,40q-.26-1.07-.6-2.1l0-.1A20.82,20.82,0,0,0,70,41.68a32.34,32.34,0,0,1,1.63,2.94,41.62,41.62,0,0,1,2.6,7.45,62.33,62.33,0,0,1,1.9,16.15,113.1,113.1,0,0,1-.78,12.62A45.32,45.32,0,0,0,63.48,58.52,48.42,48.42,0,0,0,56,52.34a.61.61,0,0,0-.89.36c-2,11.85,8.06,20,14.24,28.62a31.42,31.42,0,0,1,4.32,8.1.6.6,0,0,0,.52.42l-.36,3a60,60,0,0,0-8.6,1.9c-1.12.34-2.2.72-3.26,1.11a39.91,39.91,0,0,0-6-10.1,47,47,0,0,0-10.8-10A28.94,28.94,0,0,0,37.8,72a.54.54,0,0,0-.41,1c2,1.25,4.1,2.3,6.07,3.59a51.72,51.72,0,0,1,5.68,4.31,52.32,52.32,0,0,1,9.37,10.82c.94,1.45,1.8,3,2.65,4.48-.42.16-.86.32-1.27.49-6.51,2.76-11.79,6.61-15.2,11.15H37.47l3,11.93,2.2,8.85L47.72,149h71.76l5.08-20.39,2.2-8.85,3-11.93ZM104.6,68.63a37.87,37.87,0,0,0-6.37,11.12c.22-1.83.37-3.67.46-5.51,0-1.06.07-2.13.07-3.19a15.23,15.23,0,0,0,1-6.18A10.53,10.53,0,0,0,104.6,68.63Z"/><g id="flower_pot" data-name="flower pot"><path class="cls-2" d="M113.05,91.07c1.07-1.22,2.13-2.46,3.16-3.72a83.46,83.46,0,0,0,5.89-8,37,37,0,0,0,6.08-18.31,1,1,0,0,0-1.88-.64,73.42,73.42,0,0,0-10,14.87,75.65,75.65,0,0,0-3.51,8c-.33.91-.66,1.83-1,2.77.65-4.38,1.46-8.73,2.36-13,1.33-6.33,2.87-12.63,4-19,.11-.58-.84-.75-1-.2-1.68,5.62-3.06,11.37-4.28,17.1s-2.32,11.57-3.1,17.41c-1.73,12.88-1.59,23.74-.18,32.85a74.77,74.77,0,0,0,4.95,17.47c.19.45.83.1.67-.34-3.72-10.1-5.13-21.09-5.12-31.8a129.54,129.54,0,0,1,.7-13.06C111.67,92.78,112.35,91.88,113.05,91.07Z"/><path class="cls-3" d="M122.2,33.17a.66.66,0,0,0-1.06-.38,20.41,20.41,0,0,0-6.66,13.66,20.69,20.69,0,0,0,0,2.49,8.61,8.61,0,0,0,.13,1.05.63.63,0,0,0-.3.8c.36,1.26.73,2.52,1.1,3.78.15.53.85,1,1.33.48A22.39,22.39,0,0,0,122.2,33.17Z"/><path class="cls-4" d="M128,35.48c-6.23,2.81-9.52,8.63-12,14.69,0-1.84,0-3.68-.14-5.52-.11-1.6-.26-3.2-.49-4.79a22.88,22.88,0,0,0-1-4.86c-.18-.46-1-.34-1,.18a1,1,0,0,1,0,.17c-.45,1.62-1,3.21-1.28,4.88a32.67,32.67,0,0,0-.48,5.41c0,3.12.12,7,2,9.58a4.9,4.9,0,0,0,7.46.83c2.3-2,3.88-5,5.18-7.66A24.71,24.71,0,0,0,129,36.17.71.71,0,0,0,128,35.48Z"/><path class="cls-2" d="M76.75,52.63a35.56,35.56,0,0,0-8.69-15.71c-.54-.55-1.27.25-.82.82a38.25,38.25,0,0,1,4.36,6.88,41.62,41.62,0,0,1,2.6,7.45,62.33,62.33,0,0,1,1.9,16.15,113.1,113.1,0,0,1-.78,12.62A45.32,45.32,0,0,0,63.48,58.52,48.42,48.42,0,0,0,56,52.34a.61.61,0,0,0-.89.36c-2,11.85,8.06,20,14.24,28.62a31.42,31.42,0,0,1,4.32,8.1.6.6,0,0,0,.52.42C73.57,95,73,100.17,72.76,105.38a65.42,65.42,0,0,0,2.48,21.83A.38.38,0,0,0,76,127c-3.45-13.19-.7-27,1.15-40.25C78.72,75.44,79.72,63.81,76.75,52.63Z"/><g id="flower"><path class="cls-5" d="M65.45,35.54l0-.08a.1.1,0,0,0-.13-.06v0a.14.14,0,0,0-.25,0,1.67,1.67,0,0,1-.85.66A2.59,2.59,0,0,1,63,35.82a.14.14,0,0,0-.24-.12l-.22-.13,0-.08a.13.13,0,0,0-.12-.06A2.22,2.22,0,0,1,62,35a2,2,0,0,1,0-2l.37-.13c.17-.06.1-.33-.07-.27h0A2.21,2.21,0,0,1,63,32s-.05.05-.06.08.13.28.23.14a1.94,1.94,0,0,1,.41-.4c0,.06,0,.12,0,.19s.26.17.27,0l0-.35a1.9,1.9,0,0,1,2.21.54l0,0a.17.17,0,0,0,0,.11l-.27.16a.14.14,0,0,0,.14.24l.39-.23A2.34,2.34,0,0,1,65.45,35.54ZM82.07,25.23a18.56,18.56,0,0,0-12.59,3.64l-.08.06a17.25,17.25,0,0,0,.81-1.75,25.71,25.71,0,0,0,1.44-13.44c0-.05,0-.08-.07-.09a.18.18,0,0,0-.08-.07h-.08a1,1,0,0,0-.23.12l0,0,0,0,0,0A19.67,19.67,0,0,0,63.5,26.1s0,.07,0,.11A22.3,22.3,0,0,0,57,14.15a14.53,14.53,0,0,0-4.76-3.09h0a.11.11,0,0,0-.14.07.08.08,0,0,0-.05.08,19.93,19.93,0,0,0,3.35,15.11l.51.7c.2.24.39.48.6.72A19,19,0,0,0,58,29.33l.44.4h0l.46.39c-4.4-2-9.63-1.37-14.29-.37a.1.1,0,0,0-.07,0l0,0a.16.16,0,0,0-.06.24A11.79,11.79,0,0,0,52,34.27a18.17,18.17,0,0,0,7-.43c.75-.19,1.49-.41,2.23-.65l.1,0,.22-.08s0,.09-.05.13a.12.12,0,0,0-.12,0,23,23,0,0,0-13.1,9.41,21.48,21.48,0,0,0-2.12,4l0,.09a.14.14,0,0,0,.09.24c5.6.52,10.47-3.09,13.49-7.51.47-.69.91-1.41,1.32-2.14h0c.3-.55.59-1.1.86-1.66,0,0,0,0,0-.05l.06-.11a1.8,1.8,0,0,0,.19.2,21.61,21.61,0,0,0-.14,16.6,21.85,21.85,0,0,0,2.1,3.9l.12.26.08.15a.12.12,0,0,0,.19.05.12.12,0,0,0,.07-.07A23.16,23.16,0,0,0,67,40q-.26-1.07-.6-2.1l0-.1a21,21,0,0,0,10.11,7.6,19.83,19.83,0,0,0,4.23,1h0a.13.13,0,0,0,.11,0,.13.13,0,0,0,.16,0,.1.1,0,0,0,.06-.14A21.75,21.75,0,0,0,71.7,35.44c-.53-.31-1.07-.58-1.62-.84h0l.52-.08A15.57,15.57,0,0,0,80,29.05a15.93,15.93,0,0,0,2.14-3.51,0,0,0,0,0,0,0,.06.06,0,0,0,0-.06A.15.15,0,0,0,82.07,25.23Z"/><path class="cls-6" d="M82.07,25.23a18.56,18.56,0,0,0-12.59,3.64,11.79,11.79,0,0,0-2.74,3.95.21.21,0,0,0,0,.11.11.11,0,0,0,0,.06c0,.12.05.24.07.37a.14.14,0,0,0,.2.08,106.3,106.3,0,0,1,15.18-7.93.06.06,0,0,0,0-.06A.15.15,0,0,0,82.07,25.23Z"/><path class="cls-6" d="M81,46.19A21.75,21.75,0,0,0,71.7,35.44c-.53-.31-1.07-.58-1.62-.84a11.42,11.42,0,0,0-3.34-.47.1.1,0,0,0-.09,0,.13.13,0,0,0-.11.16,1,1,0,0,1-.05.64.16.16,0,0,0,0,.13L80.71,46.37a.13.13,0,0,0,.11,0,.13.13,0,0,0,.16,0A.1.1,0,0,0,81,46.19Z"/><path class="cls-6" d="M67,40q-.26-1.07-.6-2.1a7,7,0,0,0-1.08-1.79.13.13,0,0,0-.19-.05,1.75,1.75,0,0,1-1,.28.14.14,0,0,0-.1.05.1.1,0,0,0-.05.11,130.89,130.89,0,0,1,.29,19.9l.08.15a.12.12,0,0,0,.19.05.12.12,0,0,0,.07-.07A23.16,23.16,0,0,0,67,40Z"/><path class="cls-6" d="M62,35.44c-.12-.25-.23-.51-.35-.76a.14.14,0,0,0-.22,0A56.19,56.19,0,0,1,48.79,45.11c-.85.51-1.71,1-2.59,1.47l0,.09a.14.14,0,0,0,.09.24c5.6.52,10.47-3.09,13.49-7.51.47-.69.91-1.41,1.32-2.14h0c.27-.52.52-1.06.76-1.59h0a.17.17,0,0,0,.1-.06.08.08,0,0,0,0-.05A.17.17,0,0,0,62,35.44Z"/><path class="cls-6" d="M61.44,32.62c-5.61-1-11.57-.5-16.89-2.82l0,0a.16.16,0,0,0-.06.24A11.79,11.79,0,0,0,52,34.27a18.17,18.17,0,0,0,7-.43c.73-.21,1.45-.44,2.16-.66h.07a.19.19,0,0,0,.1,0l0-.06a2.88,2.88,0,0,1,.13-.31A.14.14,0,0,0,61.44,32.62Z"/><path class="cls-6" d="M62.92,31.22a74.24,74.24,0,0,1-9.14-16c-.57-1.37-1.09-2.75-1.58-4.15a.11.11,0,0,0-.14.07.08.08,0,0,0-.05.08,19.93,19.93,0,0,0-.15,6.21,22.3,22.3,0,0,0,3.5,8.9l.45.65.06.05h0q.27.38.57.72a16.75,16.75,0,0,0,2,2h0A16.78,16.78,0,0,0,61.84,32l-.05,0c-.13.12.07.32.2.2l.91-.84A.15.15,0,0,0,62.92,31.22Z"/><path class="cls-6" d="M71.42,13.58a1,1,0,0,0-.23.12l0,0,0,0,0,0A19.67,19.67,0,0,0,63.5,26.1c0,.12,0,.24,0,.36a16.08,16.08,0,0,0,.62,4.93.14.14,0,0,0,.26-.08.06.06,0,0,0,0,0l.57.23a.14.14,0,0,0,.17-.1,39.52,39.52,0,0,1,2.74-8.84q1.83-4.48,3.67-9Z"/><circle class="cls-7" cx="64.15" cy="33.83" r="2.78"/><path class="cls-8" d="M62.73,34a.57.57,0,0,0-1,.49.58.58,0,0,0,.78.3A.59.59,0,0,0,62.73,34Z"/><path class="cls-8" d="M63.31,32.23a.57.57,0,0,0-1,.5.58.58,0,0,0,.78.3A.61.61,0,0,0,63.31,32.23Z"/><path class="cls-8" d="M64.23,33.45a.46.46,0,0,0-.71.06.47.47,0,0,0,.08.59.44.44,0,0,0,.62,0A.45.45,0,0,0,64.23,33.45Z"/><path class="cls-8" d="M65,31.78a.49.49,0,0,0-.71.27.51.51,0,0,0,.34.59.46.46,0,0,0,.55-.29A.45.45,0,0,0,65,31.78Z"/><path class="cls-8" d="M66.21,33a.49.49,0,0,0-.65.73.5.5,0,0,0,.75,0A.52.52,0,0,0,66.21,33Z"/><path class="cls-8" d="M65.44,34.26a.47.47,0,0,0-.63.68.49.49,0,0,0,.73,0A.49.49,0,0,0,65.44,34.26Z"/><path class="cls-8" d="M64.23,35.28a.59.59,0,0,0-.52-.28l-.17,0a.54.54,0,0,0-.17.86.51.51,0,0,0,.69.07A.53.53,0,0,0,64.23,35.28Z"/></g><path class="cls-2" d="M62.89,98.41A36.93,36.93,0,0,0,56,85.71a47,47,0,0,0-10.8-10A28.94,28.94,0,0,0,37.8,72a.54.54,0,0,0-.41,1c2,1.25,4.1,2.3,6.07,3.59a51.72,51.72,0,0,1,5.68,4.31,52.32,52.32,0,0,1,9.37,10.82c1.44,2.23,2.73,4.59,4,6.92A.21.21,0,0,0,62.89,98.41Z"/><path class="cls-9" d="M39.33,64.68a3.52,3.52,0,0,0-2.61-2.79,5.66,5.66,0,0,0-2.5-.1c1.23-2,1.29-4.68-.86-6.07a3.27,3.27,0,0,0-4.47.71,5.26,5.26,0,0,0-.91,3,5.28,5.28,0,0,0-2.15-1.92,3.78,3.78,0,0,0-4.78,1.21c-2,2.84.13,6.11,3,7a6.23,6.23,0,0,0-1.92,1,3.47,3.47,0,0,0-1.25,3.94,2.85,2.85,0,0,0,3.3,1.61,5.52,5.52,0,0,0,3.18-2.23,4.08,4.08,0,0,0,.7,3.25,3.48,3.48,0,0,0,3.73,1.31c2.89-.92,3-4.55,1.49-6.73a5.2,5.2,0,0,0,3.88.06A3.38,3.38,0,0,0,39.33,64.68Z"/><path class="cls-10" d="M31.45,64.2a2.8,2.8,0,0,0-3.22-2A2.6,2.6,0,0,0,26.42,64a2.71,2.71,0,0,0,.72,2.54,2.59,2.59,0,0,0,3,.44A2.55,2.55,0,0,0,31.45,64.2Z"/><path class="cls-9" d="M55.63,67.08a2.51,2.51,0,0,0-1.86-2A4,4,0,0,0,52,65c.87-1.41.91-3.33-.61-4.31a2.32,2.32,0,0,0-3.18.5,3.7,3.7,0,0,0-.65,2.15A3.79,3.79,0,0,0,46,62a2.69,2.69,0,0,0-3.4.87c-1.42,2,.1,4.34,2.12,5a4.55,4.55,0,0,0-1.37.71,2.46,2.46,0,0,0-.88,2.8,2,2,0,0,0,2.34,1.14,3.88,3.88,0,0,0,2.26-1.58,2.91,2.91,0,0,0,.5,2.31,2.47,2.47,0,0,0,2.65.93c2-.65,2.11-3.23,1.06-4.79a3.71,3.71,0,0,0,2.76,0A2.42,2.42,0,0,0,55.63,67.08Z"/><path class="cls-11" d="M50,66.74a2,2,0,0,0-2.3-1.42,1.82,1.82,0,0,0-1.28,1.31,1.93,1.93,0,0,0,.51,1.8A1.83,1.83,0,0,0,50,66.74Z"/><path class="cls-9" d="M46.05,83.42a2.51,2.51,0,0,0-1.86-2,4,4,0,0,0-1.77-.07c.87-1.42.91-3.33-.61-4.32a2.33,2.33,0,0,0-3.18.51A3.63,3.63,0,0,0,38,79.7a3.72,3.72,0,0,0-1.53-1.37,2.7,2.7,0,0,0-3.41.86c-1.41,2,.1,4.35,2.13,5a4.43,4.43,0,0,0-1.37.71,2.47,2.47,0,0,0-.89,2.8,2,2,0,0,0,2.35,1.15,4,4,0,0,0,2.26-1.59,2.86,2.86,0,0,0,.5,2.31,2.47,2.47,0,0,0,2.65.93c2-.65,2.11-3.23,1.06-4.78a3.71,3.71,0,0,0,2.76,0A2.39,2.39,0,0,0,46.05,83.42Z"/><path class="cls-11" d="M40.45,83.07a2,2,0,0,0-2.3-1.43A1.85,1.85,0,0,0,36.86,83a1.91,1.91,0,0,0,.52,1.8,1.83,1.83,0,0,0,3.07-1.69Z"/><path class="cls-2" d="M108.7,65.52a.46.46,0,0,0-.78-.42,37.49,37.49,0,0,0-9.69,14.65c.22-1.83.37-3.67.46-5.51q.12-2.4.06-4.8a21.37,21.37,0,0,0-.44-4.73c-.09-.34-.68-.35-.72,0a38.86,38.86,0,0,0,0,4.58q0,2.4-.09,4.8a75.7,75.7,0,0,1-1,9.39q-.48,2.88-1.15,5.72c-.44-6-2.88-11.69-5-17.28a.35.35,0,0,0-.67,0,18.63,18.63,0,0,0,2,17A12.51,12.51,0,0,1,94,94c-.82,2.58-1.78,5.1-2.56,7.69-.08.26.31.39.44.17a41.81,41.81,0,0,0,3.51-8.7c.56-1.84,1.06-3.71,1.49-5.58.86-1.43,1.88-2.8,2.78-4.15,1.25-1.88,2.57-3.71,3.8-5.6C105.94,74.05,108.06,70,108.7,65.52Z"/><path class="cls-12" d="M111.39,58.8a12.42,12.42,0,0,0-5.45-2.5,10.37,10.37,0,0,0,5-4.73.38.38,0,0,0-.33-.56,17.43,17.43,0,0,0-6.57,1.6l-.43.22c.1-.15.21-.3.31-.46a13.58,13.58,0,0,0,2.21-7.26.38.38,0,0,0-.47-.36,8.14,8.14,0,0,0-5.07,3.58,10.2,10.2,0,0,0-.81,1.44c0-.28,0-.55,0-.83a16,16,0,0,0-.49-3.83,22.42,22.42,0,0,0-1.39-3.68.36.36,0,0,0-.57-.07,11.54,11.54,0,0,0-2.83,7.41v0a13.71,13.71,0,0,0-4.87-4c-.2-.1-.55,0-.51.29a21.49,21.49,0,0,0,2,7.78l-.52-.16c-2.75-.72-5.47.12-8.09.95a.29.29,0,0,0-.12.48,15.5,15.5,0,0,0,6,3.29,11.41,11.41,0,0,0,1.41.3,10.82,10.82,0,0,0-1.77.73,11.2,11.2,0,0,0-4.88,5.12.28.28,0,0,0,.25.42,14.79,14.79,0,0,0,8.19-2.3A13.11,13.11,0,0,0,91,63a20.69,20.69,0,0,0-1.35,8.22.33.33,0,0,0,.49.28A14.37,14.37,0,0,0,95,66a12.12,12.12,0,0,0,2.81,6.06.37.37,0,0,0,.58-.08,15.28,15.28,0,0,0,1.43-7.13,10.45,10.45,0,0,0,6.55,4.27.39.39,0,0,0,.48-.48,19.64,19.64,0,0,0-3-7.41,9.52,9.52,0,0,0-.73-.86l.12,0a12.19,12.19,0,0,0,8.12-1A.42.42,0,0,0,111.39,58.8Z"/><circle class="cls-7" cx="97.52" cy="57.91" r="4.21"/><path class="cls-8" d="M96.31,54.49a.63.63,0,1,0,.2.86A.63.63,0,0,0,96.31,54.49Z"/><path class="cls-8" d="M98.91,55a.85.85,0,0,0-1-.68.77.77,0,0,0-.38.85.72.72,0,0,0,.75.53A.69.69,0,0,0,98.91,55Z"/><path class="cls-8" d="M97.69,56.26a.74.74,0,1,0-.45,1A.73.73,0,0,0,97.69,56.26Z"/><path class="cls-8" d="M95,55.85a.74.74,0,0,0-.7.18.76.76,0,0,0-.24.58.75.75,0,0,0,.21.51A.76.76,0,1,0,95,55.85Z"/><path class="cls-8" d="M96.46,57.83a.65.65,0,0,0-.64-.14.67.67,0,1,0,.65,1.14A.68.68,0,0,0,96.46,57.83Z"/><path class="cls-8" d="M94.39,58.33a.55.55,0,0,0-.51.35.53.53,0,0,0,0,.35c.09.38.91.68,1.09,0A.57.57,0,0,0,94.39,58.33Z"/><path class="cls-8" d="M96.05,59.58a.81.81,0,0,0-.73.19.66.66,0,0,0-.2.74s0,0,0,0a.72.72,0,0,0,1.16.18.93.93,0,0,0,.27-.56C96.61,59.86,96.32,59.65,96.05,59.58Z"/><path class="cls-8" d="M100.17,55.63a.74.74,0,0,0-.72.19.82.82,0,0,0-.08.87.72.72,0,0,0,1.17.09A.75.75,0,0,0,100.17,55.63Z"/><path class="cls-8" d="M99.13,57.33a.72.72,0,0,0-.9-.14.62.62,0,0,0-.2.44.58.58,0,0,0,.13.4.61.61,0,0,0,.8.16.58.58,0,0,0,.28-.35A.55.55,0,0,0,99.13,57.33Z"/><path class="cls-8" d="M101.05,58.34a.72.72,0,0,0-1.37.26.84.84,0,0,0,.46.7.74.74,0,0,0,.77-.13A.7.7,0,0,0,101.05,58.34Z"/><path class="cls-8" d="M98.33,58.9c-.5-.82-1.48.33-.77.8a.55.55,0,0,0,.4.06.63.63,0,0,0,.43-.44A.55.55,0,0,0,98.33,58.9Z"/><path class="cls-8" d="M100,60.12a.66.66,0,0,0-.8-.49.73.73,0,0,0-.42.33.6.6,0,0,0,0,.63C99,61,100.21,61,100,60.12Z"/><path class="cls-8" d="M97.93,60.31a.8.8,0,0,0-.46,0c-.74.22-.49,1.24.07,1.39a.72.72,0,0,0,.85-.51A.71.71,0,0,0,97.93,60.31Z"/><path class="cls-7" d="M126.76,119.71l-2.2,8.85c-5.71,11-21.89,18.94-41,18.94s-35.25-7.93-41-18.94l-2.2-8.85a19.91,19.91,0,0,1,4.25-11.93c3.41-4.54,8.69-8.39,15.2-11.15a55.61,55.61,0,0,1,5.37-1.93A63.68,63.68,0,0,1,83.6,92.08c17.13,0,31.93,6.41,38.91,15.7A19.91,19.91,0,0,1,126.76,119.71Z"/><polygon class="cls-13" points="129.73 107.78 126.76 119.71 124.56 128.56 119.48 148.95 47.72 148.95 42.64 128.56 40.44 119.71 37.47 107.78 129.73 107.78"/><path class="cls-14" d="M57.33,104.42s.8-4.65,5.13-4.65A6.93,6.93,0,0,1,57.33,104.42Z"/><path class="cls-14" d="M80.06,102.68s-4.38-1.74-3.49-6A6.91,6.91,0,0,1,80.06,102.68Z"/><path class="cls-14" d="M97.05,104.34s-2.83-2.27-1.22-5.18A5.34,5.34,0,0,1,97.05,104.34Z"/><path class="cls-14" d="M113,102.56s-3.22,1.67-5.23-1A5.35,5.35,0,0,1,113,102.56Z"/></g></svg>