<svg id="शहद" xmlns="http://www.w3.org/2000/svg" viewBox="0 0 150 160"><defs><style>.cls-1,.cls-14{fill:#fff;}.cls-1{stroke:#fff;stroke-miterlimit:10;stroke-width:5px;}.cls-2{fill:#a6b5bc;}.cls-3{fill:#d49924;}.cls-4{fill:#bab067;}.cls-5{fill:#fcd930;}.cls-6{fill:#f9c732;}.cls-7{fill:#dbb854;}.cls-8{fill:#b6cfc8;}.cls-9{fill:#889ca6;}.cls-10{fill:#ad8a36;}.cls-11{fill:#e8d68a;}.cls-12{fill:#d4ba57;}.cls-13{fill:#fff04f;}</style></defs><path class="cls-1" d="M134.81,35.86a10,10,0,0,0-5.13-2.56v0h0v0a11,11,0,0,0-4.6.26c-1.49.34-3,.78-4.43,1.24-2.92.93-5.8,2-8.66,3.09q-8.58,3.34-16.83,7.41a160.46,160.46,0,0,0-16,9.07A67.38,67.38,0,0,0,65.24,65.91l-.12-.1c-.42-.62-.89-1.2-1.32-1.78a40.42,40.42,0,0,0-2.75-3.09A32.54,32.54,0,0,0,47,52.49a29,29,0,0,0-16.42,0,24.37,24.37,0,0,0-12.95,10,29.38,29.38,0,0,0-5,15.65,26,26,0,0,0,1.15,8.22A56.29,56.29,0,0,0,17.06,94a69.07,69.07,0,0,1,3.21,7.54c1,2.57.59,5.33.64,8.08s.13,5.48.07,8.23a33.81,33.81,0,0,0,.13,4.14,4.72,4.72,0,0,0,.66,2,2.42,2.42,0,0,0,1.9,1l0-.19V125a2.65,2.65,0,0,0,2.09-.75,4.77,4.77,0,0,0,1.08-1.92,18.53,18.53,0,0,0,.71-4.23c.1-1.43.14-2.85.15-4.27a15.44,15.44,0,0,1,.38-4.15,6.08,6.08,0,0,1,2.1-3.37,2.25,2.25,0,0,1,1.75-.45,1.67,1.67,0,0,1,1.14,1.28,5.54,5.54,0,0,0,3.15,3.08,5.74,5.74,0,0,0,4.42.19,4.14,4.14,0,0,0,1.8-1.43,7.69,7.69,0,0,0,1-2c.5-1.39.65-2.83,1-4.16A3.54,3.54,0,0,1,46.9,100,8.43,8.43,0,0,0,50.71,98a21.3,21.3,0,0,0,4.48-5.86,33,33,0,0,0,5.91-5.27A29.94,29.94,0,0,0,65.73,80a17.64,17.64,0,0,0,1.9-8A36.71,36.71,0,0,1,74.31,66a90.87,90.87,0,0,1,9.79-6,169.29,169.29,0,0,1,21-9.38,137.67,137.67,0,0,1,22.06-6.46,51.85,51.85,0,0,1,5.69-.77c1-.11,1.9,0,2.89-.19a2.21,2.21,0,0,0,1.7-2.23A7.52,7.52,0,0,0,134.81,35.86Z"/><path class="cls-1" d="M40,120.89c-.46-.65-1-1.44-1.89-1.55v0h0v0c-.49.09-.71.49-1,.81a7.73,7.73,0,0,0-.62,1.08,8.49,8.49,0,0,0-.74,2.37,3.23,3.23,0,0,0,.42,2.45,2.6,2.6,0,0,0,2.35.78,2.73,2.73,0,0,0,2.19-1.18,3.39,3.39,0,0,0,.23-2.48A7.07,7.07,0,0,0,40,120.89Z"/><path class="cls-2" d="M126.35,33.35c9.1-1.56,14.45,9.74,8.48,9.74-15.58,0-56.48,15.67-67.31,28.78a16.92,16.92,0,0,0-1.37,1.86c1.67-3.71-1-7.61-1-7.61C78.65,50.25,117.26,34.94,126.35,33.35Z"/><path class="cls-2" d="M67.52,71.87c.28,6.42-4.95,14.87-12.47,20a20.31,20.31,0,0,0,2.64-9.14,31.93,31.93,0,0,0,7.46-7.44,6.17,6.17,0,0,0,.94-1.45l.06-.11A16.92,16.92,0,0,1,67.52,71.87Z"/><path class="cls-3" d="M65.15,66.12s2.67,3.9,1,7.61l-.06.11c-.3.49-.6,1-.94,1.45a31.93,31.93,0,0,1-7.46,7.44c-12.26,9-31.15,12.37-38.87,6.56,0,0-.06,0-.09-.06-.55-.49-1.08-1-1.6-1.56,0,0-3.47-9.08,13.5-18.54C49.76,58.48,65.15,66.12,65.15,66.12Z"/><path class="cls-4" d="M57.69,82.73a20.31,20.31,0,0,1-2.64,9.14,27.19,27.19,0,0,1-5.59,3c-9.77,3.86-21,3.24-30.64-5.59C26.54,95.1,45.43,91.75,57.69,82.73Z"/><path class="cls-5" d="M55.05,91.87c-2.14,4-5.29,7.15-7.79,7.72-4.24.94-2.6,5.42-4.94,8.94s-8,1.41-9-1.64-5.88-1.18-5.88,5.65-.22,12.47-3.76,12.24-2.21-5.1-2.51-13.57,1.57-6.29-5.65-21.08c-.26-.52-.5-1.07-.71-1.6l2.28-.86a8.45,8.45,0,0,0,1.6,1.56s.05.06.09.06c9.68,8.83,20.87,9.45,30.64,5.59A27.19,27.19,0,0,0,55.05,91.87Z"/><path class="cls-5" d="M65.15,66.12s-15.39-7.64-34.52,3c-17,9.46-13.5,18.54-13.5,18.54l-2.28.86C9,74.2,17.5,58.91,27.48,54.07,37.84,49.06,54.47,50.94,65.15,66.12Z"/><path class="cls-5" d="M38.07,119.36c1.88,0,5.42,7.31,0,7.31C33.6,126.67,36.9,119.36,38.07,119.36Z"/><path class="cls-6" d="M65,66.43a30,30,0,0,0-7.17-2A38.61,38.61,0,0,0,50.39,64a41.21,41.21,0,0,0-14.47,3.24A45.92,45.92,0,0,0,23.2,74.91a20.33,20.33,0,0,0-4.64,5.7,9.79,9.79,0,0,0-1.19,7l-.53.2c-1.81-2.37-1.76-5.72-1-8.59a20.58,20.58,0,0,1,4.35-7.64A37.1,37.1,0,0,1,33.77,62a33.9,33.9,0,0,1,16.5-2.52c5.53.56,11,2.5,15,6.42Z"/><path class="cls-7" d="M65.08,66.26a35,35,0,0,0-7.33-1.33,37.43,37.43,0,0,0-7.33-.07,43.14,43.14,0,0,0-14.07,3.43,49.06,49.06,0,0,0-12.58,7.25A20.42,20.42,0,0,0,19,80.81a10.27,10.27,0,0,0-1.77,6.86l-.18.07a10.28,10.28,0,0,1,1.07-7.38,20.86,20.86,0,0,1,4.71-5.9,46.45,46.45,0,0,1,12.84-7.91,41.57,41.57,0,0,1,14.75-3.16,35,35,0,0,1,14.79,2.7Z"/><path class="cls-8" d="M129.65,33.49c-3.06-.16-5.85,1.18-8.7,2.26s-5.65,2.26-8.43,3.51C107,41.72,101.38,44.17,96,47c-5.5,2.59-10.81,5.54-16,8.62-2.62,1.53-5.18,3.16-7.64,4.93a59.65,59.65,0,0,0-7.13,5.71l-.14-.12A66.86,66.86,0,0,1,79.16,54.37a160.46,160.46,0,0,1,16-9.07q8.25-4.06,16.83-7.41c2.86-1.11,5.74-2.16,8.66-3.09,1.46-.46,2.94-.9,4.43-1.24a11,11,0,0,1,4.6-.26Z"/><path class="cls-9" d="M66,73.85a18.89,18.89,0,0,1,3.43-4.72,47.59,47.59,0,0,1,4.31-4,89.83,89.83,0,0,1,9.67-6.51,151.39,151.39,0,0,1,21-9.85c3.65-1.31,7.34-2.51,11.07-3.57a86,86,0,0,1,11.38-2.57,54.49,54.49,0,0,1,5.87-.56c1-.06,2.15,0,2.7,0s.89-.44,1-1.17a6.59,6.59,0,0,0-2.06-4.58,10.16,10.16,0,0,0-4.74-2.84l0-.18a10,10,0,0,1,5.13,2.56,7.52,7.52,0,0,1,2.63,5.06,2.21,2.21,0,0,1-1.7,2.23c-1,.19-1.94.08-2.89.19a51.85,51.85,0,0,0-5.69.77,137.67,137.67,0,0,0-22.06,6.46A169.29,169.29,0,0,0,84.1,60a90.87,90.87,0,0,0-9.79,6c-3.08,2.25-6.12,4.71-8.17,8Z"/><path class="cls-10" d="M17.53,87.34a13.67,13.67,0,0,0,6.92-1c1.9-.71,3.65-1.44,5.42-2.17,3.53-1.43,7-2.79,10.64-3.94S47.8,78,51.74,77.07L58,75.62l3.54-.86c.64-.15,1.26-.34,1.91-.54s1.35-.41,2.12-.61l1,.58A28.31,28.31,0,0,1,62.29,80a38.33,38.33,0,0,1-5.5,4.6A52.26,52.26,0,0,1,44,90.92,46.48,46.48,0,0,1,29.9,93.17a25.52,25.52,0,0,1-7.18-1,12,12,0,0,1-6-4.09Z"/><path class="cls-11" d="M17.17,87.65a11.63,11.63,0,0,0,6,2.86,24.1,24.1,0,0,0,6.68.4,49.06,49.06,0,0,0,13.25-2.67,55.28,55.28,0,0,0,12.38-5.56,37.88,37.88,0,0,0,5.57-3.94A31.85,31.85,0,0,0,66,73.85l.17.09a32.7,32.7,0,0,1-9.81,10A51.36,51.36,0,0,1,43.72,90,46.38,46.38,0,0,1,29.9,92.38a25.22,25.22,0,0,1-7-.91,11.5,11.5,0,0,1-5.9-3.7Z"/><path class="cls-12" d="M53,93.51A28.1,28.1,0,0,1,47.4,96a28.82,28.82,0,0,1-16.43.5,31.14,31.14,0,0,1-14.36-8.12l.2-.2A37.42,37.42,0,0,0,31.55,94.3a29.7,29.7,0,0,0,15-1,27.71,27.71,0,0,0,6.86-3.14c.76-.46,1.5-1,2.21-1.49Z"/><path class="cls-8" d="M55.61,88.63a43.94,43.94,0,0,0,3.84-3.27,34.72,34.72,0,0,0,4.94-6,18.83,18.83,0,0,0,3-7.39h.28a17.55,17.55,0,0,1-1.9,8,29.94,29.94,0,0,1-4.63,6.89A32.33,32.33,0,0,1,53,93.51Z"/><path class="cls-13" d="M23.67,125a2.42,2.42,0,0,1-1.9-1,4.72,4.72,0,0,1-.66-2,33.81,33.81,0,0,1-.13-4.14c.06-2.75,0-5.47-.07-8.23s.32-5.51-.64-8.08A69.07,69.07,0,0,0,17.06,94a56.29,56.29,0,0,1-3.34-7.56,26,26,0,0,1-1.15-8.22,29.38,29.38,0,0,1,5-15.65,24.37,24.37,0,0,1,13-10,29,29,0,0,1,16.42,0,32.54,32.54,0,0,1,14.08,8.45A40.42,40.42,0,0,1,63.8,64a15.92,15.92,0,0,1,2.27,3.48,8.93,8.93,0,0,1,.78,4.11,6.54,6.54,0,0,1-1.58,3.85L65,75.22a6.81,6.81,0,0,0,0-7.21,7.37,7.37,0,0,0-1.05-1.49c-.44-.51-.89-1-1.35-1.48a35,35,0,0,0-2.89-2.7,31.82,31.82,0,0,0-13.48-7,26.64,26.64,0,0,0-14.54.58,18.71,18.71,0,0,0-6.11,3.37,24.21,24.21,0,0,0-4.79,5.38,26.11,26.11,0,0,0-4.6,13.63,22.56,22.56,0,0,0,.76,7.17c.16.59.34,1.17.55,1.74s.41,1.06.7,1.74l1.61,3.78a66,66,0,0,1,3,8,15.28,15.28,0,0,1,.51,4.71l-.31,4.13c-.16,2.64-.36,5.57-.67,8.26a34.66,34.66,0,0,0-.25,4c0,1.28.29,2.55,1.73,2.75Z"/><path class="cls-6" d="M57.85,82.79a20.43,20.43,0,0,1-2.1,8.26,22.17,22.17,0,0,1-5,6.92A8.43,8.43,0,0,1,46.9,100a3.54,3.54,0,0,0-2.43,2.82c-.35,1.33-.5,2.77-1,4.16a7.69,7.69,0,0,1-1,2,4.14,4.14,0,0,1-1.8,1.43,5.74,5.74,0,0,1-4.42-.19,5.54,5.54,0,0,1-3.15-3.08,1.67,1.67,0,0,0-1.14-1.28,2.25,2.25,0,0,0-1.75.45,6.08,6.08,0,0,0-2.1,3.37,15.44,15.44,0,0,0-.38,4.15c0,1.42-.05,2.84-.15,4.27a18.53,18.53,0,0,1-.71,4.23,4.77,4.77,0,0,1-1.08,1.92,2.65,2.65,0,0,1-2.09.75l0-.38c1.45-.25,1.78-1.46,1.93-2.69a21.17,21.17,0,0,0-.05-4c-.1-1.36-.24-2.75-.4-4.14a15,15,0,0,1,.05-4.9,8.52,8.52,0,0,1,3.05-5.29,5.46,5.46,0,0,1,4.45-1.09A4.83,4.83,0,0,1,35.29,104a5.5,5.5,0,0,1,.8,1.19l.21.46.05.13c-.05-.15.07.21.06.17h0a3.23,3.23,0,0,0,1.24.87,2,2,0,0,0,1.54.09.64.64,0,0,0,.25-.15,4.1,4.1,0,0,0,.57-1c.37-.87.5-2.09,1-3.85a8.37,8.37,0,0,1,1.62-3,6.29,6.29,0,0,1,1.57-1.3,7.55,7.55,0,0,1,1.8-.73l.59-.13a.54.54,0,0,0,.2,0,3.87,3.87,0,0,0,.56-.2,6.85,6.85,0,0,0,1.38-.76A22.45,22.45,0,0,0,54,90.19a24.44,24.44,0,0,0,3.52-7.42Z"/><path class="cls-13" d="M38.06,119.34c.89.11,1.43.9,1.89,1.55a7.07,7.07,0,0,1,1,2.28,3.39,3.39,0,0,1-.23,2.48,2.73,2.73,0,0,1-2.19,1.18,2.6,2.6,0,0,1-2.35-.78,3.23,3.23,0,0,1-.42-2.45,8.49,8.49,0,0,1,.74-2.37,7.73,7.73,0,0,1,.62-1.08c.25-.32.47-.72,1-.81v.14a4.14,4.14,0,0,0-.91,2.06,10.4,10.4,0,0,0-.31,2.21,2.1,2.1,0,0,0,.36,1.48c.12.15.54.26,1.19.19a1.46,1.46,0,0,0,1.17-.46,2.23,2.23,0,0,0,.28-1.55,7.61,7.61,0,0,0-.51-2.12A3.05,3.05,0,0,0,38,119.48Z"/><path class="cls-14" d="M34.37,57.31C31,58.48,28.46,61.15,26.42,64A30.86,30.86,0,0,0,22,73.5,28.63,28.63,0,0,0,20.81,84a24.79,24.79,0,0,0,3.05,10l-.33.19a17.68,17.68,0,0,1-5.66-10,23.47,23.47,0,0,1-.5-5.91,30.3,30.3,0,0,1,1-5.84A31.22,31.22,0,0,1,20.57,67,25.33,25.33,0,0,1,24,62.24a19.92,19.92,0,0,1,4.59-3.72A10.88,10.88,0,0,1,34.25,57Z"/><path class="cls-14" d="M23.79,104.34a22.62,22.62,0,0,1,.7,4.87,43.86,43.86,0,0,1,0,4.73c-.13,1.56-.26,3.11-.5,4.64l-.32,2.29c-.07.74-.3,1.56.08,2.09l0,.19c-.5-.13-.65-.61-.78-1a6.92,6.92,0,0,1-.26-1.18c-.1-.8-.15-1.6-.17-2.4,0-1.59,0-3.19.1-4.78.24-3.18.6-6.35,1-9.5Z"/><path class="cls-14" d="M79.93,55.72A214.44,214.44,0,0,1,103.21,43a117.18,117.18,0,0,1,25.07-8.67l0,.18c-2.09.8-4.18,1.49-6.21,2.36S118,38.41,116,39.29c-4,1.73-8.07,3.41-12,5.38-4,1.73-7.94,3.73-11.93,5.6-2,.92-4,1.88-6,2.85S82.09,55,80,55.88Z"/></svg>