<svg id="लकड़ी" xmlns="http://www.w3.org/2000/svg" viewBox="0 0 150 160"><defs><style>.cls-1{fill:#fff;stroke:#fff;stroke-miterlimit:10;stroke-width:5px;}.cls-2{fill:#774c42;}.cls-3{fill:#543d35;}.cls-4{fill:#f0c982;}.cls-5{fill:#84534a;}.cls-6{fill:#936958;}.cls-7{fill:#ddb77a;}</style></defs><path class="cls-1" d="M137.54,121.54c0-3.48-1.42-5.81-2.77-5.91h0a144.1,144.1,0,0,1-30-11.78,75.77,75.77,0,0,0-16.36-6.06c1-5.11,2.15-10.21,3.29-15.31,0,0,.05.09.07.14,1.08,1.92,2.15,3.85,3.23,5.78.12.21.26.44.49.5s.68-.24.89-.55c.48-.69.93-1.4,1.35-2.12a1.46,1.46,0,0,0,.27-.77,1.48,1.48,0,0,0-.31-.73,24.45,24.45,0,0,1-3.81-12c1.41-6.26,2.79-12.53,4.1-18.79,1.81-1.5,3.51-3.2,5.27-4.94h0l4.54-4c1.88-1.67,5.54-3.57,6.44-5.92s.33-6.14-3.5-6.56c-3.5,2-7.12,7.3-10.69,11.38,0,0,0-.07,0-.09h0c.07-.41.16-.82.23-1.22.44-2.33,1.79-7.14-1.23-7.13-1.11-.11-1.82,1.11-2.24,2.14L90,54A60,60,0,0,1,83.92,59C79,62.35,73.54,64.82,68.53,68c-6.48,4.16-12.08,9.52-17.91,14.55-1.74,1.5-3.58,3-5.47,4.47L34.62,84.78c-4.63-1-14.57-3.43-19-1.61-4.19,1.73-4,9.19-.66,12a11.72,11.72,0,0,0,4.85,2c2.88.7,5.77,1.37,8.66,2l-5.14,3.58a9.13,9.13,0,0,0-1.25,1.11,5.4,5.4,0,0,0-1.84,3,4.6,4.6,0,0,0,3,5.54,6.78,6.78,0,0,0,1.38.2h.12a7.2,7.2,0,0,0,4.08-.92c2.07-1,4.53-3.5,5.81-4.56.74-.6,1.48-1.22,2.21-1.83a.09.09,0,0,1,0,0c.06-.08.14-.15.2-.22l1.5-1.24.36-.24,2.48-1.65c8.46,1.84,16.94,3.65,25.36,5.63a8.61,8.61,0,0,0-1.67,4h0a7.68,7.68,0,0,0-.22,1.24c-.35,4,.53,8.41,6.94,9.45s9-.48,10.47-3.89h0a17.47,17.47,0,0,0,3-6c2.39.64,4.73,1.36,7.2,2,4.48,1.41,8.93,2.92,13.33,4.59,9.36,3.57,18.72,7.88,28.73,8.29h0C136.26,127.57,137.54,125.16,137.54,121.54ZM56,89.47h0S75.3,73.73,78.19,71.27s7.67-7.17,7.67-7.17h0L86,64,74.78,91.7c-.31.76-.65,1.49-1,2.23-6-1.62-11.86-3.08-17.82-4.45Z"/><path class="cls-2" d="M50.62,82.59c5.83-5,11.43-10.39,17.91-14.55,5-3.22,10.49-5.69,15.39-9.09C89.55,55,94.29,50,99,45c3.89-4.16,7.85-10.34,11.67-12.47,3.83.42,4.41,4.21,3.5,6.56s-4.56,4.25-6.44,5.92c-23.92,21.24-48.38,41.85-73,62.2-1.47,1.22-4.51,4.32-6.72,4.91-1.66.44-3.39,1.13-5.4-.19-4.3-2.84-1.86-7.26.8-9.13C32.15,96.6,42.41,89.67,50.62,82.59Z"/><path class="cls-3" d="M20.25,106.92a4.6,4.6,0,0,0,3,5.54c1.63.43,5.7.46,6.92-2.26s.43-6.25-4-7C22.64,102.57,21,104.27,20.25,106.92Z"/><path class="cls-4" d="M20.72,107a4.34,4.34,0,0,0,2.75,5.22c1.48.4,5.19.43,6.3-2.13s.4-5.88-3.62-6.6C22.89,102.86,21.37,104.46,20.72,107Z"/><path class="cls-3" d="M48.59,95.87a1.94,1.94,0,0,0-.86-.84,7.19,7.19,0,0,0-3-1,14,14,0,0,0-3.53.27,36.58,36.58,0,0,0-9.33,2.33l-3.25,2.55a7.7,7.7,0,0,0,1.85.66,10.79,10.79,0,0,1,3.91,1.81,5.1,5.1,0,0,1,2.5,3.71,8.65,8.65,0,0,1,2.06-1.7l8.26-5.49a4.54,4.54,0,0,0,1.13-1A1.44,1.44,0,0,0,48.59,95.87Z"/><path class="cls-2" d="M134.42,120.71c0-.59,1.4-1.93,1.11-2.45-.49-.89.2-2.38-.79-2.64a144.1,144.1,0,0,1-30-11.78C96,99.16,86.13,97.36,76.64,94.7c-13.93-3.91-27.49-6.8-42-9.92-4.63-1-14.57-3.43-19-1.61-4.19,1.73-4,9.19-.66,12a11.72,11.72,0,0,0,4.85,2c28.77,7,58.29,11.49,86,22,9.36,3.57,18.72,7.88,28.73,8.29Z"/><path class="cls-3" d="M93.55,114.91c-3.56-.92-6.79-2-10.24-2.83-.43-.1-.6-1-.92-1.32a2.65,2.65,0,0,1-.62-1.76c-.32-3.64-.55-7.64,1.59-10.6.92-1.25,2.85-2.47,4.17-1.07,1.13,1.2.57,4,.7,5.42A20.69,20.69,0,0,0,93.55,114.91Z"/><path class="cls-3" d="M95.86,53.19a2.1,2.1,0,0,0,0,1,.83.83,0,0,0,.75.58,1.23,1.23,0,0,0,.63-.32A70.8,70.8,0,0,0,103.18,49a3.28,3.28,0,0,1-2-1c-1.55-1.58-1-3.66-1.25-4.2-.42-.9-1.46,2.05-1.83,2.69A17.33,17.33,0,0,0,95.86,53.19Z"/><path class="cls-2" d="M98.93,35.44c-1.11-.11-1.82,1.11-2.24,2.14L74.78,91.7c-1.8,4.46-4.12,8.36-6.06,12.75-1.17,2.66-3.34,4.35-3.61,7.29-.72,7.61,9.62,12.72,15.06,8.82,4.2-3,5.45-8.62,6.39-13.71,4-21.45,9.64-42.83,13.6-64.28C100.6,40.24,102,35.43,98.93,35.44Z"/><path class="cls-2" d="M90.93,79.47a4.18,4.18,0,0,0,.77,3.14c1.08,1.92,2.15,3.85,3.23,5.78.12.21.26.44.49.5s.68-.24.89-.55c.48-.69.93-1.4,1.35-2.12a1.46,1.46,0,0,0,.27-.77,1.48,1.48,0,0,0-.31-.73,24.44,24.44,0,0,1-3.53-17.18c0-.12,0-.29-.1-.34s-.16.23,0,.16Z"/><path class="cls-5" d="M69.71,104.9c1.31-2,3.3-3.48,4.48-5.54a20.79,20.79,0,0,0,1.46-3.67c.68-2,1.49-3.94,2.3-5.88l3.42-8.19c.79-1.88,1.57-3.76,2.44-5.6a2.52,2.52,0,0,1,.73-1,.87.87,0,0,1,1.15.08,1,1,0,0,1,.17.64c0,1.49-.78,2.85-1.43,4.19a22.26,22.26,0,0,0-2.22,8.46c-.11,2,.06,4.08,0,6.12s-.36,3.87-.56,5.8a53.05,53.05,0,0,1-.91,6.66,12,12,0,0,1-3.09,5.86,6.81,6.81,0,0,1-6.16,1.88C66.67,113.47,67.6,108.08,69.71,104.9Z"/><path class="cls-5" d="M98.48,36.23a82.17,82.17,0,0,0-3.32,9.09c-2.52,7.27-6.24,14.11-8.38,21.51a5.78,5.78,0,0,0-.28,3.07c.15.54.44,1,.6,1.56a6,6,0,0,1,.06,2.76,19.45,19.45,0,0,1-1.83,5.71,8.35,8.35,0,0,0-1.1,2.91l-.07.09a2,2,0,0,0-.36,1.78,1,1,0,0,0,1.52.5c.41-.38.29-1,.4-1.6.25-1.15,1.52-1.71,2.34-2.55a7.46,7.46,0,0,0,1.61-3.63,107.11,107.11,0,0,0,2.07-12.09c.26-2.35.45-4.71.84-7,1.19-7.06,4.23-13.66,6.14-20.56C98.87,37.21,99,36.51,98.48,36.23Z"/><path class="cls-5" d="M90.23,104.38c1,.88,2.51.81,3.81,1.14,2.57.65,4.37,2.86,6.48,4.46,4.37,3.3,10.11,4,15.26,5.83,4.67,1.68,8.91,4.39,13.57,6.1a3.1,3.1,0,0,0,2.36.18,2.61,2.61,0,0,0,1-.91c.85-1.19,1.31-2.93.36-4a4.51,4.51,0,0,0-2.79-1.15c-5-.9-9.79-2.93-14.49-4.94l-6.23-2.65a22.9,22.9,0,0,1-6-3.32,18.89,18.89,0,0,0-1.76-1.48,9.86,9.86,0,0,0-2.09-.95L90.2,99.22C88.68,98.67,89.3,103.58,90.23,104.38Z"/><path class="cls-5" d="M65.05,94.41a26.7,26.7,0,0,1-4.78-2A32,32,0,0,0,56,91.08c-4.63-1.23-9.26-2.46-14-3.23-2.37-.39-4.77-.66-7.1-1.24s-4.47-1.43-6.74-2a25.9,25.9,0,0,0-11.48-.48,2.67,2.67,0,0,0-2.36,1.77c-.45,1.23-.41,3,.87,3.78a3,3,0,0,0,1.65.32c2.34-.08,4.49-1.22,6.72-1.94s4.91-.92,6.68.62c-.51.31-1.1.88-.79,1.4a1.11,1.11,0,0,0,.84.4c1.51.19,3,0,4.53.28a15,15,0,0,1,2.54.82,68.43,68.43,0,0,0,10.71,3.12,1.43,1.43,0,0,0,.82,0,2.37,2.37,0,0,0,.48-.37,2.89,2.89,0,0,1,3.2.08c1,.58,1.77,1.44,2.74,2A11.39,11.39,0,0,0,59,97.63l9.59,2a2.62,2.62,0,0,0,2.1-.17,2.5,2.5,0,0,0,.62-.81l1.9-3.35C70.76,94,67.75,95,65.05,94.41Z"/><path class="cls-5" d="M55.9,83.6,71.29,71.17A122.56,122.56,0,0,1,85,61.15a12.4,12.4,0,0,0,2.45-1.72,3.72,3.72,0,0,0,1.23-2.65c-2,1.27-4.06,2.54-6,4-1.21.89-2.37,1.84-3.6,2.7C74.08,67,68.14,69,63.54,73c-1.31,1.14-2.5,2.42-3.8,3.56-3.22,2.8-7.16,4.7-10.2,7.71-1.83,1.83-.13,3,2,3.15,1.33.09,1.23-.69,2-1.67A15.59,15.59,0,0,1,55.9,83.6Z"/><path class="cls-5" d="M108.49,35.27a15.59,15.59,0,0,0-.89,1.39,12.32,12.32,0,0,1-1.73,2.09,2.48,2.48,0,0,0-.69,1,.82.82,0,0,0,.38,1,1,1,0,0,0,.87-.18c.64-.38,1.15-.94,1.81-1.28a11.72,11.72,0,0,1,2-.63,4.23,4.23,0,0,0,2-1.16,2.55,2.55,0,0,0,.64-2.13C112.31,32.92,109.53,34,108.49,35.27Z"/><path class="cls-6" d="M80.34,92.64A5.19,5.19,0,0,1,80,91.37a12.62,12.62,0,0,1,.33-1.6c.07-.54-.26-1.22-.8-1.18a7.83,7.83,0,0,1,0,3,19.86,19.86,0,0,1-1.46,3,40.67,40.67,0,0,0-1.17,4.4,11,11,0,0,1-2.07,3.7,12.89,12.89,0,0,1-2.3,2.19,6.06,6.06,0,0,0-1.8,1.65,1.6,1.6,0,0,0,.37,2.17l1,1.73-.43.87c1.84.53,4.11.81,5.39-.61a5.26,5.26,0,0,0,1.06-2.65c.23-1.2.43-2.41.63-3.62.49-2.92,1-5.83,1.45-8.75A7,7,0,0,0,80.34,92.64Z"/><path class="cls-4" d="M76.24,107.13c-8.62-1-11.06,2.53-11.35,5.85-.35,4,.53,8.41,6.94,9.45s9-.48,10.47-3.89C84,114.52,81.81,107.78,76.24,107.13Z"/><path class="cls-6" d="M87.66,68a16.76,16.76,0,0,1-1.9,3.9,17.05,17.05,0,0,0-2,6.06c.32.15.64-.21.78-.54.47-1,.61-2.25,1.35-3.11.56-.65,1.38-1,2-1.64,1.24-1.32,1.1-3.36,1.41-5.14.41-2.36,1.72-4.57,1.59-7C88.11,62,88.28,65.38,87.66,68Z"/><path class="cls-6" d="M96,84.56c-.2-.31-.48-.57-.7-.87a6.29,6.29,0,0,1-.91-2.26l-.67-2.54a.62.62,0,0,0-.24-.42.43.43,0,0,0-.54.21,1.07,1.07,0,0,0-.08.64,7.2,7.2,0,0,0,.66,2.44A9.78,9.78,0,0,0,95,85.69a1,1,0,0,0,.38.4.69.69,0,0,0,.88-.46A1.33,1.33,0,0,0,96,84.56Z"/><path class="cls-6" d="M101,106.51c.57.42.38,1.31.66,1.95a2.52,2.52,0,0,0,1.21,1.09c4.43,2.37,9.73,2.45,14.42,4.23,5.08,1.92,9.19,5.69,13.77,8.59a6.17,6.17,0,0,0,2.38,1,2.32,2.32,0,0,0,2.31-.9c.73-1.17-.2-2.76-1.43-3.38a20.56,20.56,0,0,0-4-1c-2.06-.56-3.79-1.94-5.69-2.94a33.34,33.34,0,0,0-6.91-2.43c-3.55-1-7.1-1.92-10.72-2.53a9.45,9.45,0,0,1-2.63-.69,2.89,2.89,0,0,1-1.68-2c-.14-.81.2-1.64.12-2.45-.11-1.1-2.93-1.45-3.57-.8C97.69,105.82,100.35,106,101,106.51Z"/><path class="cls-4" d="M134,115.83c-2.33,1.5-2.17,5.39-2.17,5.39.28,4,.93,6.12,2.62,6.26s3.09-2.28,3.09-5.94C137.54,117.39,135.52,114.85,134,115.83Z"/><path class="cls-6" d="M24.17,85.68a10.92,10.92,0,0,1,6.67,1.73,32.57,32.57,0,0,0,2.84,2.15,3.08,3.08,0,0,0,3.36,0c-.39-.85-1.85-.42-2.46-1.13-.17-.21-.25-.48-.4-.7A2.29,2.29,0,0,0,33.07,87a34.47,34.47,0,0,0-8.78-1.88l-5.89-.74a2.61,2.61,0,0,0-2.76,1c-.53.77-.64,1.6.38,1.93s2.89-.65,3.92-.91A21.64,21.64,0,0,1,24.17,85.68Z"/><path class="cls-6" d="M67.39,95.39A34.51,34.51,0,0,1,63,95.6c-2-.22-3.85-1.38-5.73-2.21a18.85,18.85,0,0,0-8-1.61,4.59,4.59,0,0,0-1.94.36,1.9,1.9,0,0,0-1.12,1.52l4.71.12a12.8,12.8,0,0,1,4.27.6,37,37,0,0,1,3.32,1.82,24.58,24.58,0,0,0,4.63,1.51,40,40,0,0,1,7.33,2.85l2-4.06A10.81,10.81,0,0,0,67.39,95.39Z"/><path class="cls-6" d="M28.17,102.37a2.73,2.73,0,0,1,2.09,1,5.21,5.21,0,0,1,1,2.18,6.84,6.84,0,0,0,.47,1.6.53.53,0,0,0,1,.11,4.23,4.23,0,0,0,.95-2.78A2,2,0,0,0,32,102.25c-1.21-.49-3.54-1.5-4.86-1-.34.12-1.22.74-1.1,1.18C26.16,103.06,27.7,102.38,28.17,102.37Z"/><path class="cls-6" d="M62.92,75.72C60.59,77,58.68,79,56.44,80.41c-1.46.94-3,1.67-4.49,2.61a34.88,34.88,0,0,0-5.11,4.38l5.57.62c2.08-4.57,6.34-7.68,10-11.08C62.79,76.62,63.16,76.13,62.92,75.72Z"/><path class="cls-3" d="M56,89.48S75.3,73.73,78.19,71.27s7.67-7.17,7.67-7.17L88,59.57a33.72,33.72,0,0,1-6.38,6.57C78.41,68.31,58.31,85,56.72,86.67S56,89.48,56,89.48Z"/><path class="cls-7" d="M69.33,110.7a4.65,4.65,0,0,0,.41,8A9.66,9.66,0,0,0,74.61,120a5.72,5.72,0,0,0,3.68-.9,4.92,4.92,0,0,0,1.59-4,6.93,6.93,0,0,0-1.65-4.52C75.91,108,71.85,108.81,69.33,110.7Z"/><path class="cls-4" d="M71.73,117.78a3.5,3.5,0,0,0,4.47-1.16c1.65-2.64-.14-5.81-3.24-5-1.48.39-2.78,1.13-2.95,2.79A3.51,3.51,0,0,0,71.73,117.78Z"/><path class="cls-7" d="M73.16,113.82a1.18,1.18,0,0,0-1.08,1.31,1.26,1.26,0,0,0,1.41,1,1.35,1.35,0,0,0,1.07-1.4.93.93,0,0,0-.86-.91Z"/><path class="cls-7" d="M133.53,124.68a3.27,3.27,0,0,0,.44,1.26.92.92,0,0,0,.59.43c.59.12,1-.56,1.18-1.14.49-1.59,1.4-6.74-.87-7.45C132.22,117,133.3,123.43,133.53,124.68Z"/><path class="cls-4" d="M134.79,119.89a6.34,6.34,0,0,0-.46,2.79,1,1,0,0,0,.13.53.4.4,0,0,0,.48.17.54.54,0,0,0,.24-.34,3.94,3.94,0,0,0-.13-2.94c-.05-.11-.26-.19-.26-.07Z"/><path class="cls-7" d="M22.24,106.73a4.23,4.23,0,0,0,.29,4,3.15,3.15,0,0,0,3.33,1,3.55,3.55,0,0,0,2.37-2.63,4,4,0,0,0-1-3.45C25.52,103.74,23.14,104.43,22.24,106.73Z"/><path class="cls-4" d="M25.24,106.79a1.94,1.94,0,0,0-1.77.42,2,2,0,0,0-.34,1.87,2.06,2.06,0,0,0,1.21,1.1c.47.22,2.05.26,2.28-.7A2.18,2.18,0,0,0,25.24,106.79Z"/></svg>