<svg xmlns="http://www.w3.org/2000/svg" viewBox="0 0 150 160"><defs><style>.cls-1{isolation:isolate;}.cls-11,.cls-2,.cls-5,.cls-6{fill:#bcbbba;}.cls-2{stroke:#fff;stroke-miterlimit:10;stroke-width:5px;}.cls-3{fill:#8a8f91;}.cls-4{fill:#595e5e;}.cls-10,.cls-11,.cls-12,.cls-5{mix-blend-mode:multiply;}.cls-14,.cls-7{opacity:0.4;mix-blend-mode:screen;}.cls-14,.cls-8{fill:#fff;}.cls-9{fill:#a49fa2;}.cls-10,.cls-11,.cls-12{opacity:0.6;}.cls-12{fill:#aaa9a8;}.cls-13{fill:#c0bebe;}</style></defs><g class="cls-1"><g id="рдирд▓"><path class="cls-2" d="M126.48,76.25a2.37,2.37,0,0,0-2.21,1.49H98.17a16.25,16.25,0,0,0-6-6.25,10.14,10.14,0,0,0-9.27-5.61H82V45.33a5.24,5.24,0,0,0,.59-.81h0l.1,0c.93.2,2.09.35,3.51.55l14.64,1.34a8.5,8.5,0,0,0,5.61,2.08,8,8,0,1,0,0-16,8.41,8.41,0,0,0-7,3.69l-13,1.55c-1.07.15-2,.25-2.88.36h0l-.8.12-.11,0a6.63,6.63,0,0,0-11.19,0l-.73-.11h0c-.84-.11-1.81-.21-2.87-.36l-13-1.55a8.44,8.44,0,0,0-7-3.69,8,8,0,1,0,0,16,8.49,8.49,0,0,0,5.6-2.08L68,45.09c1.4-.19,2.54-.35,3.46-.54a6.81,6.81,0,0,0,.81,1v20.3h-.48a10.17,10.17,0,0,0-9.08,5.24,16.31,16.31,0,0,0-6.6,6.62h-.48l-.57,0H54l-.68,0c-4.62.16-13.58,1.42-20.9,8.18-4.58,4.23-10,12.13-10,25.78V123a2.36,2.36,0,0,0-1.28,2.1,2.39,2.39,0,0,0,2.39,2.39h22a2.39,2.39,0,0,0,.42-4.74v-11c0-2.83.43-6.59,2.47-8.47a8.83,8.83,0,0,1,4.71-1.89l.5,0h0c.29,0,.52,0,.64,0h.1l.71,0a16.12,16.12,0,0,0,15.26,10.93H83.94a16.11,16.11,0,0,0,15.25-10.92h25a2.38,2.38,0,0,0,4.68-.64v-22A2.39,2.39,0,0,0,126.48,76.25Z"/><rect class="cls-3" x="72.3" y="42.32" width="9.73" height="32.77"/><rect class="cls-4" x="72.3" y="42.32" width="4.47" height="32.77"/><path class="cls-5" d="M72.3,46.72v-4.4H82v4.31C79.61,49.08,74.77,49.32,72.3,46.72Z"/><rect class="cls-5" x="72.3" y="64.85" width="9.73" height="10.24"/><path class="cls-6" d="M79.5,41.19c0,3,1.81,3.21,6.75,3.9l17.58,1.61c3.78,0,6.84-2.47,6.84-5.51h0c0-3-3.06-5.51-6.84-5.51L86.44,37.75c-4.28.61-6.94.4-6.94,3.44Z"/><path class="cls-5" d="M98.36,36.33l5.47-.65c3.78,0,6.84,2.47,6.84,5.51s-3.06,5.51-6.84,5.51l-4.59-.42A8.4,8.4,0,0,1,98.36,36.33Z"/><path class="cls-5" d="M83.56,38.11a7.88,7.88,0,0,1,.16,6.61c-3-.49-4.22-1.08-4.22-3.53C79.5,38.9,81,38.46,83.56,38.11Z"/><path class="cls-6" d="M98.14,40.51a8.36,8.36,0,1,0,8.36-8A8.18,8.18,0,0,0,98.14,40.51Z"/><g class="cls-7"><path class="cls-8" d="M105.91,34a7.55,7.55,0,0,0-5.08,1.93,7.53,7.53,0,0,1,5.65-2.5,7.27,7.27,0,0,1,7.42,7.11,6.94,6.94,0,0,1-2.34,5.17,6.92,6.92,0,0,0,1.77-4.6A7.27,7.27,0,0,0,105.91,34Z"/></g><path class="cls-6" d="M74.78,41.19c0,3-1.8,3.21-6.75,3.9L50.46,46.7c-3.78,0-6.85-2.47-6.85-5.51h0c0-3,3.07-5.51,6.85-5.51l17.39,2.07c4.27.61,6.93.4,6.93,3.44Z"/><path class="cls-5" d="M55.93,36.33l-5.47-.65c-3.78,0-6.85,2.47-6.85,5.51s3.07,5.51,6.85,5.51L55,46.28A8.41,8.41,0,0,0,55.93,36.33Z"/><path class="cls-5" d="M70.72,38.11a7.88,7.88,0,0,0-.16,6.61c3-.49,4.22-1.08,4.22-3.53C74.78,38.9,73.28,38.46,70.72,38.11Z"/><path class="cls-6" d="M56.14,40.51a8.36,8.36,0,1,1-8.35-8A8.18,8.18,0,0,1,56.14,40.51Z"/><path class="cls-6" d="M70.57,41.36a6.49,6.49,0,1,0,6.48-6.2A6.35,6.35,0,0,0,70.57,41.36Z"/><g class="cls-7"><path class="cls-8" d="M76.65,36.33a5.92,5.92,0,0,0-4,1.52,5.9,5.9,0,0,1,4.43-2,5.71,5.71,0,0,1,5.83,5.58,5.46,5.46,0,0,1-1.84,4.06,5.43,5.43,0,0,0,1.39-3.61A5.71,5.71,0,0,0,76.65,36.33Z"/></g><g class="cls-7"><path class="cls-8" d="M47.37,34a7.55,7.55,0,0,0-5.08,1.93,7.53,7.53,0,0,1,5.65-2.5,7.27,7.27,0,0,1,7.42,7.11A6.94,6.94,0,0,1,53,45.69a6.92,6.92,0,0,0,1.77-4.6A7.27,7.27,0,0,0,47.37,34Z"/></g><path class="cls-9" d="M61.75,75.09c0,5.09,4.51,9.22,10.07,9.22h11.1c5.56,0,10.06-4.13,10.06-9.22h0c0-5.09-4.5-9.21-10.06-9.21H71.82c-5.56,0-10.07,4.12-10.07,9.21Z"/><path class="cls-6" d="M46,111.7v12H22.41v-12c0-13.65,5.47-21.55,10.05-25.78,8.88-8.19,20.18-8.31,23.2-8.18h71v23.55H55.35l-1,0s-3.82,0-6,2S46,108.87,46,111.7Z"/><path class="cls-6" d="M46,111.7v12H22.41v-12c0-13.65,5.47-21.55,10.05-25.78,8.88-8.19,20.18-8.31,23.2-8.18h71v23.55H55.35l-1,0s-3.82,0-6,2S46,108.87,46,111.7Z"/><g class="cls-10"><path class="cls-6" d="M77.71,95.66l49-.72v6.35H55.35l-1,0s-3.82,0-6,2S46,108.87,46,111.7v12H40.24l.26-16.39C40.67,89.86,77.71,95.66,77.71,95.66Z"/></g><rect class="cls-11" x="22.41" y="121.26" width="23.55" height="2.39"/><rect class="cls-11" x="122.94" y="77.74" width="3.75" height="23.55"/><path class="cls-12" d="M55.66,77.74h45.39v23.55H55.35l-1,0a11.81,11.81,0,0,0-1.27.09V77.75C54.22,77.7,55.09,77.71,55.66,77.74Z"/><rect class="cls-13" x="54.24" y="69.2" width="45.83" height="43.01" rx="16.13"/><path class="cls-14" d="M97.69,87C97.69,79,91,72.9,83.09,72c-2.31-.26-14.46-.94-10.39-.94H84.51a14.07,14.07,0,0,1,14,14.08v9.39a14.15,14.15,0,0,1-1.63,6.58,14.4,14.4,0,0,0,.77-4.62Z"/><path class="cls-11" d="M56.38,95.3c0,8,6.9,14.4,15.42,14.4h13a16,16,0,0,0,9.38-3,15.38,15.38,0,0,1-11,4.54H70.5c-8.31,0-15-6.33-15-14.14V87.67C55.46,85.29,56.38,95.3,56.38,95.3Z"/><path class="cls-3" d="M126.48,103a2.39,2.39,0,0,0,2.39-2.39v-22a2.39,2.39,0,0,0-2.39-2.38h0a2.39,2.39,0,0,0-2.39,2.38v22a2.39,2.39,0,0,0,2.39,2.39Z"/><path class="cls-6" d="M21.13,125.1a2.39,2.39,0,0,0,2.39,2.39h22a2.39,2.39,0,0,0,2.39-2.39h0a2.39,2.39,0,0,0-2.39-2.39h-22a2.39,2.39,0,0,0-2.39,2.39Z"/></g></g></svg>