<svg xmlns="http://www.w3.org/2000/svg" xmlns:xlink="http://www.w3.org/1999/xlink" viewBox="0 0 150 160"><defs><style>.cls-1{isolation:isolate;}.cls-11,.cls-2{fill:#fff;}.cls-2{stroke:#fff;stroke-miterlimit:10;stroke-width:5px;}.cls-3{opacity:0.15;}.cls-4{fill:#a86e47;}.cls-5{fill:#f4ba14;}.cls-6{fill:#8a2b2b;}.cls-6,.cls-7,.cls-9{opacity:0.1;}.cls-7{fill:url(#linear-gradient);}.cls-8{mask:url(#mask);}.cls-9{mix-blend-mode:multiply;fill:url(#linear-gradient-2);}.cls-10{opacity:0.22;}.cls-12{fill:#c68458;}.cls-13{fill:#e89c7c;}.cls-14{fill:#939b5a;}.cls-15{fill:#b8bc8b;}.cls-16{fill:#6f7249;}.cls-17{fill:#dd8f6c;}.cls-18{fill:#283535;}.cls-19{fill:#111919;}.cls-20{fill:#6f7e7f;}.cls-21{fill:#595959;}.cls-22{fill:#acdadd;}.cls-23{fill:#cc7a5e;}.cls-24{fill:#231c2d;}.cls-25{fill:#322a3f;}.cls-26{fill:#1b1723;}.cls-27{fill:#e5e5e5;}.cls-28{fill:#f4beab;}.cls-29{fill:#dd4a22;}.cls-30{filter:url(#luminosity-noclip);}</style><linearGradient id="linear-gradient" x1="38.06" y1="130.56" x2="160.59" y2="130.56" gradientTransform="translate(-2.57 -10.59) rotate(0.77)" gradientUnits="userSpaceOnUse"><stop offset="0" stop-color="#fff"/><stop offset="0.04" stop-color="#fff"/><stop offset="1" stop-color="#fff"/></linearGradient><filter id="luminosity-noclip" x="33.9" y="-8272" width="86.72" height="32766" filterUnits="userSpaceOnUse" color-interpolation-filters="sRGB"><feFlood flood-color="#fff" result="bg"/><feBlend in="SourceGraphic" in2="bg"/></filter><mask id="mask" x="33.9" y="-8272" width="86.72" height="32766" maskUnits="userSpaceOnUse"><g class="cls-30"/></mask><linearGradient id="linear-gradient-2" x1="38.06" y1="130.56" x2="160.59" y2="130.56" gradientTransform="translate(-2.57 -10.59) rotate(0.77)" gradientUnits="userSpaceOnUse"><stop offset="0" stop-color="#fff"/><stop offset="0.04" stop-color="#bfbfbf"/><stop offset="1"/></linearGradient></defs><g class="cls-1"><g id="हलवाई"><path class="cls-2" d="M122.72,140.75l.2-1.59,3.82-29.72.29-2.26,3.77,0,.06-4.19v-1.27l-8.78-10.32-2.61-3.07-9.13-.11a6.17,6.17,0,0,0,.54-2.5c0-2.4-1.91-4.38-6.8-9.67h0l-2.9-3a3,3,0,0,0-1.06-.71l-4.57-1.87A11.19,11.19,0,0,0,95.93,69a8.88,8.88,0,0,0-1-.32A11.84,11.84,0,0,0,100.36,63c1.23,1,1.83.94,2.11.59a2,2,0,0,0,.22-1.22c2.13,0,9.37-3.84,5.77-6.11A4.63,4.63,0,0,0,108,56l-.1,0c.25-.3.48-.6.69-.88l.35-.52a12.34,12.34,0,0,0,.85-1.51,11.11,11.11,0,0,0,.56-1.49,7.11,7.11,0,0,0-.44-5.51L111.23,45h-1.34l.9-2.24-1.57,2.46a19.74,19.74,0,0,0,1-7.32c-.67-8.22-8.48-9.94-11.45-10.3-6.44-2.95-14.21-3.39-18-.4-2.36,1.85-4.44,3.56-6.15,5-3.23,2.77-5.14,4.61-5.14,4.61a14.06,14.06,0,0,0,3.27,1.56,8,8,0,0,0-1.25,1.19A6.61,6.61,0,0,0,70,45c-.9.14-1.83.33-2.68.53-2.43.59-8.89,2-10,2.53S54.62,54.55,53.36,58,47.46,78,46.81,82.62a8.92,8.92,0,0,0-.09,1.4h0v0c0,.13,0,.24,0,.36s0,.16,0,.24,0,.2,0,.3a1.7,1.7,0,0,0,0,.22l.06.25a1.18,1.18,0,0,0,.07.2c0,.07.05.14.07.21l.09.18s0,.11.09.17l.09.15.1.14.11.12a1.52,1.52,0,0,0,.22.22.27.27,0,0,0,.08.07L48,87,48,87l.13.08.07,0,.13.06.06,0,.12,0h0l.11,0h0l.2,0,10.85.28h0l2.18,0L36,87.36,24.31,100.47l-.07,5.45,3.33,0L31,139.72c-11.4,1.35-18.42,3.32-18.46,5.62-.09,4.76,29.64,9.14,66.38,9.78s66.61-2.69,66.69-7.45C145.65,145.07,136.77,142.58,122.72,140.75Zm-13.8-102c-.81-4.61-4.49-8.26-9-10.63C110.15,31.57,108.92,38.77,108.92,38.77ZM74.85,65.93l-1.08.23L68.43,67.3a2.94,2.94,0,0,0-1.51.86l-8.05,8.57s.05.1.12.27h0l-1.15.28-.16-13.75a9.38,9.38,0,0,0,3.12,1.26l.47.09a5.25,5.25,0,0,0,.88.09,5.86,5.86,0,0,0,.78-.08c1.41-.26,2.13-1.18,3.47-2.22l1.34-1c1-.72,2.06-1.46,2.77-2A8,8,0,0,0,73,64.27a13.67,13.67,0,0,0,1.86,1.52A.78.78,0,0,1,74.85,65.93Z"/><ellipse class="cls-3" cx="79.06" cy="146.51" rx="8.62" ry="66.55" transform="matrix(0.02, -1, 1, 0.02, -68.8, 223)"/><polygon class="cls-4" points="127.17 106.1 126.74 109.44 122.92 139.16 121.92 146.96 31.6 145.75 27.45 104.77 127.17 106.1"/><path class="cls-5" d="M109.09,116.47a.4.4,0,0,1,0,.15v0h0a2.33,2.33,0,0,1-.43.52,1.3,1.3,0,0,0-.15.2,1.55,1.55,0,0,1-.71.58c-.29.17-.5.67-.85.67a2.14,2.14,0,0,1-1-.34,2.26,2.26,0,0,1-.85-.74,2.73,2.73,0,0,1-.4-1.15,2.8,2.8,0,0,1,.35-1.18c.18-.31.78-.25,1.08-.43l.12-.07a2.14,2.14,0,0,1,.4-.2,1.16,1.16,0,0,1,.38-.06,1.7,1.7,0,0,1,1,.27,1.74,1.74,0,0,1,.62.77C108.69,115.82,109.09,116.1,109.09,116.47Z"/><path class="cls-6" d="M108.37,115.71a.68.68,0,0,1-.12.91c-.25.15-.61,0-.8-.38a.69.69,0,0,1,.11-.91A.64.64,0,0,1,108.37,115.71Z"/><path class="cls-6" d="M107.82,117.57a4,4,0,0,0,.79-.38,1.3,1.3,0,0,0-.15.2,1.55,1.55,0,0,1-.71.58c-.29.17-.5.67-.85.67a2.14,2.14,0,0,1-1-.34,2.26,2.26,0,0,1-.85-.74,2.73,2.73,0,0,1-.4-1.15,2.8,2.8,0,0,1,.35-1.18c.18-.31.78-.25,1.08-.43l.12-.07a1.12,1.12,0,0,0-.53,1c0,.94.11,1.24.53,1.59s.4.75.75.72S107.46,117.71,107.82,117.57Z"/><path class="cls-5" d="M106.82,119.07a.4.4,0,0,1,0,.15s0,0,0,0h0a2.58,2.58,0,0,1-.43.52,1.3,1.3,0,0,0-.15.2,1.62,1.62,0,0,1-.71.58c-.29.17-.49.67-.85.67a2.14,2.14,0,0,1-1-.34,2.26,2.26,0,0,1-.85-.74,2.73,2.73,0,0,1-.4-1.15,2.8,2.8,0,0,1,.35-1.18c.18-.31.78-.25,1.08-.43l.12-.07a2.14,2.14,0,0,1,.4-.2,1.16,1.16,0,0,1,.38-.06,1.7,1.7,0,0,1,.95.27,1.74,1.74,0,0,1,.62.77C106.42,118.41,106.82,118.7,106.82,119.07Z"/><path class="cls-6" d="M106.1,118.31a.68.68,0,0,1-.12.91c-.25.15-.61,0-.8-.38a.69.69,0,0,1,.11-.91A.64.64,0,0,1,106.1,118.31Z"/><path class="cls-6" d="M105.55,120.17a4.63,4.63,0,0,0,.79-.38,1.3,1.3,0,0,0-.15.2,1.62,1.62,0,0,1-.71.58c-.29.17-.49.67-.85.67a2.14,2.14,0,0,1-1-.34,2.26,2.26,0,0,1-.85-.74,2.73,2.73,0,0,1-.4-1.15,2.8,2.8,0,0,1,.35-1.18c.18-.31.78-.25,1.08-.43l.12-.07a1.12,1.12,0,0,0-.53,1c0,.93.11,1.24.53,1.59s.4.75.75.72S105.19,120.31,105.55,120.17Z"/><path class="cls-5" d="M111.17,119.13a.32.32,0,0,1,0,.14s0,0,0,0h0a2.29,2.29,0,0,1-.43.52,1,1,0,0,0-.15.2,1.69,1.69,0,0,1-.71.58c-.29.17-.49.67-.85.67a2.21,2.21,0,0,1-1-.34,2.44,2.44,0,0,1-.85-.74,2.92,2.92,0,0,1-.4-1.15,2.81,2.81,0,0,1,.36-1.18c.17-.31.77-.26,1.07-.43l.12-.08a3.75,3.75,0,0,1,.41-.19,1.12,1.12,0,0,1,.38-.06,1.75,1.75,0,0,1,.95.27,1.89,1.89,0,0,1,.62.77C110.77,118.47,111.17,118.76,111.17,119.13Z"/><path class="cls-6" d="M110.45,118.37a.69.69,0,0,1-.11.91.64.64,0,0,1-.81-.38.68.68,0,0,1,.12-.91C109.9,117.84,110.26,118,110.45,118.37Z"/><path class="cls-6" d="M109.91,120.23a5.47,5.47,0,0,0,.78-.38,1,1,0,0,0-.15.2,1.69,1.69,0,0,1-.71.58c-.29.17-.49.67-.85.67a2.21,2.21,0,0,1-1-.34,2.44,2.44,0,0,1-.85-.74,2.92,2.92,0,0,1-.4-1.15,2.81,2.81,0,0,1,.36-1.18c.17-.31.77-.26,1.07-.43l.12-.08a1.15,1.15,0,0,0-.53,1c0,.93.12,1.24.53,1.59s.4.75.75.72S109.54,120.37,109.91,120.23Z"/><path class="cls-5" d="M104.83,122.07a.77.77,0,0,1,0,.15s0,0,0,0h0a2.58,2.58,0,0,1-.43.52,1.4,1.4,0,0,0-.16.2c-.17.31-.41.4-.71.58s-.49.67-.84.67a2.21,2.21,0,0,1-1-.34,2.43,2.43,0,0,1-.85-.74,2.71,2.71,0,0,1-.39-1.15,2.8,2.8,0,0,1,.35-1.18c.18-.31.77-.26,1.07-.43l.13-.07a2.14,2.14,0,0,1,.4-.2,1.16,1.16,0,0,1,.38-.06,1.73,1.73,0,0,1,1,.27,1.82,1.82,0,0,1,.62.77C104.43,121.41,104.84,121.7,104.83,122.07Z"/><path class="cls-6" d="M104.11,121.31a.69.69,0,0,1-.11.91c-.25.15-.61,0-.8-.38a.69.69,0,0,1,.11-.91C103.56,120.79,103.92,121,104.11,121.31Z"/><path class="cls-6" d="M103.57,123.17a5,5,0,0,0,.79-.38,1.4,1.4,0,0,0-.16.2c-.17.31-.41.4-.71.58s-.49.67-.84.67a2.21,2.21,0,0,1-1-.34,2.43,2.43,0,0,1-.85-.74,2.71,2.71,0,0,1-.39-1.15,2.8,2.8,0,0,1,.35-1.18c.18-.31.77-.26,1.07-.43l.13-.07a1.12,1.12,0,0,0-.53,1c0,.93.11,1.24.53,1.59s.39.75.74.72S103.2,123.31,103.57,123.17Z"/><path class="cls-5" d="M109.19,122.13a.32.32,0,0,1,0,.14s0,0,0,0h0a2.58,2.58,0,0,1-.43.52,1,1,0,0,0-.15.2,1.69,1.69,0,0,1-.71.58c-.29.17-.49.67-.85.67a2.14,2.14,0,0,1-1-.34,2.35,2.35,0,0,1-.85-.74,2,2,0,0,1-.05-2.33c.18-.31.78-.26,1.08-.43l.12-.08a2.93,2.93,0,0,1,.4-.19,1.16,1.16,0,0,1,.38-.06,1.7,1.7,0,0,1,1,.27,1.74,1.74,0,0,1,.62.77C108.79,121.47,109.19,121.76,109.19,122.13Z"/><path class="cls-6" d="M108.47,121.37a.68.68,0,0,1-.12.91c-.25.14-.61,0-.8-.38a.69.69,0,0,1,.11-.91C107.92,120.84,108.28,121,108.47,121.37Z"/><path class="cls-6" d="M107.92,123.22a4.51,4.51,0,0,0,.79-.37,1,1,0,0,0-.15.2,1.69,1.69,0,0,1-.71.58c-.29.17-.49.67-.85.67a2.14,2.14,0,0,1-1-.34,2.35,2.35,0,0,1-.85-.74,2,2,0,0,1-.05-2.33c.18-.31.78-.26,1.08-.43l.12-.08a1.15,1.15,0,0,0-.53,1c0,.93.11,1.24.53,1.59s.4.75.75.72S107.56,123.37,107.92,123.22Z"/><path class="cls-5" d="M113.54,122.19a.32.32,0,0,1,0,.14s0,0,0,0h0a2.29,2.29,0,0,1-.43.52,1,1,0,0,0-.15.2,1.69,1.69,0,0,1-.71.58c-.29.17-.49.67-.85.66a2.2,2.2,0,0,1-1-.33,2.37,2.37,0,0,1-.85-.75,2,2,0,0,1,0-2.32c.17-.31.77-.26,1.07-.43l.12-.08a3.75,3.75,0,0,1,.41-.19.92.92,0,0,1,.38-.06,1.75,1.75,0,0,1,1,.27,1.89,1.89,0,0,1,.62.77C113.14,121.53,113.54,121.82,113.54,122.19Z"/><path class="cls-6" d="M112.82,121.43a.69.69,0,0,1-.11.91.65.65,0,0,1-.81-.38.68.68,0,0,1,.12-.91C112.27,120.9,112.63,121.07,112.82,121.43Z"/><path class="cls-6" d="M112.28,123.28a4.45,4.45,0,0,0,.78-.37,1,1,0,0,0-.15.2,1.69,1.69,0,0,1-.71.58c-.29.17-.49.67-.85.66a2.2,2.2,0,0,1-1-.33,2.37,2.37,0,0,1-.85-.75,2,2,0,0,1,0-2.32c.17-.31.77-.26,1.07-.43l.12-.08a1.13,1.13,0,0,0-.53,1c0,.94.12,1.24.53,1.6s.4.75.75.72S111.91,123.43,112.28,123.28Z"/><path class="cls-5" d="M102.86,124.69a.89.89,0,0,1,0,.14s0,0,0,0h0a2.38,2.38,0,0,1-.43.53.66.66,0,0,0-.15.19,1.55,1.55,0,0,1-.71.58c-.29.17-.5.68-.85.67a2,2,0,0,1-1-.34,2.26,2.26,0,0,1-.85-.74,2.68,2.68,0,0,1-.4-1.14,2.75,2.75,0,0,1,.35-1.18c.18-.31.78-.26,1.07-.44l.13-.07a1.62,1.62,0,0,1,.4-.19,1.17,1.17,0,0,1,.38-.07,1.88,1.88,0,0,1,1,.27,1.77,1.77,0,0,1,.62.78C102.46,124,102.86,124.31,102.86,124.69Z"/><path class="cls-6" d="M102.14,123.92a.68.68,0,0,1-.12.91c-.25.15-.61,0-.8-.37a.69.69,0,0,1,.11-.91C101.59,123.4,102,123.57,102.14,123.92Z"/><path class="cls-6" d="M101.59,125.78a4.87,4.87,0,0,0,.79-.37.66.66,0,0,0-.15.19,1.55,1.55,0,0,1-.71.58c-.29.17-.5.68-.85.67a2,2,0,0,1-1-.34,2.26,2.26,0,0,1-.85-.74,2.68,2.68,0,0,1-.4-1.14,2.75,2.75,0,0,1,.35-1.18c.18-.31.78-.26,1.07-.44l.13-.07a1.13,1.13,0,0,0-.53,1c0,.94.11,1.24.53,1.59s.4.75.74.73S101.23,125.93,101.59,125.78Z"/><path class="cls-5" d="M107.21,124.74a.4.4,0,0,1,0,.15s0,0,0,0h0a2.09,2.09,0,0,1-.43.52,1.3,1.3,0,0,0-.15.2,1.55,1.55,0,0,1-.71.58c-.29.17-.49.67-.85.67a2,2,0,0,1-1-.34,2.34,2.34,0,0,1-.85-.74,2.82,2.82,0,0,1-.4-1.15,3,3,0,0,1,.35-1.18c.18-.3.78-.25,1.08-.43l.12-.07a3,3,0,0,1,.4-.2,1.23,1.23,0,0,1,.39-.06,1.84,1.84,0,0,1,1,.27,1.86,1.86,0,0,1,.62.78C106.81,124.09,107.21,124.37,107.21,124.74Z"/><path class="cls-6" d="M106.49,124a.69.69,0,0,1-.11.91c-.26.15-.62,0-.81-.37a.67.67,0,0,1,.12-.91C105.94,123.46,106.3,123.63,106.49,124Z"/><path class="cls-6" d="M105.94,125.84a3.73,3.73,0,0,0,.79-.38,1.3,1.3,0,0,0-.15.2,1.55,1.55,0,0,1-.71.58c-.29.17-.49.67-.85.67a2,2,0,0,1-1-.34,2.34,2.34,0,0,1-.85-.74,2.82,2.82,0,0,1-.4-1.15,3,3,0,0,1,.35-1.18c.18-.3.78-.25,1.08-.43l.12-.07a1.13,1.13,0,0,0-.53,1c0,.94.12,1.24.53,1.59s.4.75.75.73S105.58,126,105.94,125.84Z"/><path class="cls-5" d="M111.56,124.8a.77.77,0,0,1,0,.15s0,0,0,0h0a2.14,2.14,0,0,1-.44.52,1.3,1.3,0,0,0-.15.2,1.51,1.51,0,0,1-.71.58c-.29.17-.49.67-.85.67a2.21,2.21,0,0,1-1-.34,2.43,2.43,0,0,1-.85-.74,2.87,2.87,0,0,1-.4-1.15,3,3,0,0,1,.36-1.18c.17-.31.77-.25,1.07-.43l.13-.07a2.14,2.14,0,0,1,.4-.2,1.16,1.16,0,0,1,.38-.06,1.73,1.73,0,0,1,.95.27,1.89,1.89,0,0,1,.62.77C111.16,124.15,111.57,124.43,111.56,124.8Z"/><path class="cls-6" d="M110.84,124a.69.69,0,0,1-.11.91c-.25.15-.61,0-.8-.38a.68.68,0,0,1,.11-.91C110.29,123.52,110.65,123.68,110.84,124Z"/><path class="cls-6" d="M110.3,125.9a3.93,3.93,0,0,0,.78-.38,1.3,1.3,0,0,0-.15.2,1.51,1.51,0,0,1-.71.58c-.29.17-.49.67-.85.67a2.21,2.21,0,0,1-1-.34,2.43,2.43,0,0,1-.85-.74,2.87,2.87,0,0,1-.4-1.15,3,3,0,0,1,.36-1.18c.17-.31.77-.25,1.07-.43l.13-.07a1.15,1.15,0,0,0-.54,1c0,.94.12,1.24.53,1.59s.4.75.75.72S109.93,126,110.3,125.9Z"/><path class="cls-5" d="M115.91,124.86a.59.59,0,0,1,0,.14s0,0,0,0h0a2.58,2.58,0,0,1-.43.52.87.87,0,0,0-.15.2,1.75,1.75,0,0,1-.71.58c-.29.17-.5.67-.85.67a2.14,2.14,0,0,1-1-.34,2.26,2.26,0,0,1-.85-.74,2.64,2.64,0,0,1-.4-1.15,2.8,2.8,0,0,1,.35-1.18c.18-.31.78-.26,1.07-.43l.13-.08a2.93,2.93,0,0,1,.4-.19,1.16,1.16,0,0,1,.38-.06,1.7,1.7,0,0,1,1,.27,1.74,1.74,0,0,1,.62.77C115.52,124.2,115.92,124.49,115.91,124.86Z"/><path class="cls-6" d="M115.2,124.1a.68.68,0,0,1-.12.91c-.25.15-.61,0-.8-.38a.69.69,0,0,1,.11-.91C114.65,123.57,115,123.74,115.2,124.1Z"/><path class="cls-6" d="M114.65,126a6.1,6.1,0,0,0,.79-.38.87.87,0,0,0-.15.2,1.75,1.75,0,0,1-.71.58c-.29.17-.5.67-.85.67a2.14,2.14,0,0,1-1-.34,2.26,2.26,0,0,1-.85-.74,2.64,2.64,0,0,1-.4-1.15,2.8,2.8,0,0,1,.35-1.18c.18-.31.78-.26,1.07-.43l.13-.08a1.15,1.15,0,0,0-.53,1c0,.93.11,1.24.53,1.59s.4.75.74.72S114.29,126.1,114.65,126Z"/><path class="cls-5" d="M100.64,127.7a.32.32,0,0,1,0,.14s0,0,0,0h0a2.29,2.29,0,0,1-.43.52,1,1,0,0,0-.15.2,1.69,1.69,0,0,1-.71.58c-.29.17-.49.67-.85.66a2.13,2.13,0,0,1-1-.33,2.37,2.37,0,0,1-.85-.75,2.68,2.68,0,0,1-.4-1.14,2.75,2.75,0,0,1,.35-1.18c.18-.31.78-.26,1.08-.43l.12-.08c.14-.07.27-.14.4-.19a1,1,0,0,1,.39-.06,1.75,1.75,0,0,1,.95.27,1.89,1.89,0,0,1,.62.77C100.24,127,100.64,127.33,100.64,127.7Z"/><path class="cls-6" d="M99.92,126.93a.68.68,0,0,1-.11.91c-.26.15-.62,0-.81-.37a.68.68,0,0,1,.12-.91C99.37,126.41,99.73,126.58,99.92,126.93Z"/><path class="cls-6" d="M99.37,128.79a4.2,4.2,0,0,0,.79-.37,1,1,0,0,0-.15.2,1.69,1.69,0,0,1-.71.58c-.29.17-.49.67-.85.66a2.13,2.13,0,0,1-1-.33,2.37,2.37,0,0,1-.85-.75,2.68,2.68,0,0,1-.4-1.14,2.75,2.75,0,0,1,.35-1.18c.18-.31.78-.26,1.08-.43l.12-.08a1.13,1.13,0,0,0-.53,1c0,.94.12,1.24.53,1.6s.4.75.75.72S99,128.94,99.37,128.79Z"/><path class="cls-5" d="M105,127.76a.35.35,0,0,1,0,.14.06.06,0,0,1,0,0h0a2.18,2.18,0,0,1-.44.53,1.25,1.25,0,0,0-.15.19,1.51,1.51,0,0,1-.71.58c-.29.17-.49.68-.85.67a2.1,2.1,0,0,1-1-.34,2.43,2.43,0,0,1-.85-.74,2.83,2.83,0,0,1-.4-1.14,2.91,2.91,0,0,1,.36-1.18c.17-.31.77-.26,1.07-.43l.13-.08a2.93,2.93,0,0,1,.4-.19,1.17,1.17,0,0,1,.38-.07,1.91,1.91,0,0,1,1,.27,2,2,0,0,1,.62.78C104.59,127.1,105,127.39,105,127.76Z"/><path class="cls-6" d="M104.27,127a.68.68,0,0,1-.11.91c-.25.15-.61,0-.8-.37a.67.67,0,0,1,.11-.91C103.72,126.47,104.08,126.64,104.27,127Z"/><path class="cls-6" d="M103.73,128.85a4.45,4.45,0,0,0,.78-.37,1.25,1.25,0,0,0-.15.19,1.51,1.51,0,0,1-.71.58c-.29.17-.49.68-.85.67a2.1,2.1,0,0,1-1-.34,2.43,2.43,0,0,1-.85-.74,2.83,2.83,0,0,1-.4-1.14,2.91,2.91,0,0,1,.36-1.18c.17-.31.77-.26,1.07-.43l.13-.08a1.16,1.16,0,0,0-.54,1c0,.94.12,1.24.53,1.6s.4.74.75.72S103.36,129,103.73,128.85Z"/><path class="cls-5" d="M109.34,127.82a.78.78,0,0,1,0,.14.08.08,0,0,1,0,0h0a2.38,2.38,0,0,1-.43.53,1,1,0,0,0-.16.19,1.53,1.53,0,0,1-.7.58c-.29.17-.5.68-.85.67a2.11,2.11,0,0,1-1-.34,2.43,2.43,0,0,1-.85-.74,2.67,2.67,0,0,1-.39-1.14,2.8,2.8,0,0,1,.35-1.19c.18-.3.77-.25,1.07-.43l.13-.07a2.14,2.14,0,0,1,.4-.2,1.16,1.16,0,0,1,.38-.06,1.62,1.62,0,0,1,1.57,1C109,127.16,109.35,127.44,109.34,127.82Z"/><path class="cls-6" d="M108.63,127.05a.69.69,0,0,1-.12.91c-.25.15-.61,0-.8-.37a.68.68,0,0,1,.11-.91C108.07,126.53,108.43,126.7,108.63,127.05Z"/><path class="cls-6" d="M108.08,128.91a4.87,4.87,0,0,0,.79-.37,1,1,0,0,0-.16.19,1.53,1.53,0,0,1-.7.58c-.29.17-.5.68-.85.67a2.11,2.11,0,0,1-1-.34,2.43,2.43,0,0,1-.85-.74,2.67,2.67,0,0,1-.39-1.14,2.8,2.8,0,0,1,.35-1.19c.18-.3.77-.25,1.07-.43l.13-.07a1.13,1.13,0,0,0-.53,1c0,.94.11,1.24.53,1.59s.4.75.74.73S107.71,129.06,108.08,128.91Z"/><path class="cls-5" d="M113.7,127.87a.4.4,0,0,1,0,.15v0h0a2.09,2.09,0,0,1-.43.52,1.3,1.3,0,0,0-.15.2,1.55,1.55,0,0,1-.71.58c-.29.17-.49.67-.85.67a2.14,2.14,0,0,1-1-.34,2.34,2.34,0,0,1-.85-.74,2.73,2.73,0,0,1-.4-1.15,2.8,2.8,0,0,1,.35-1.18c.18-.31.78-.25,1.08-.43l.12-.07a2.14,2.14,0,0,1,.4-.2,1.23,1.23,0,0,1,.39-.06,1.84,1.84,0,0,1,1,.27,1.89,1.89,0,0,1,.62.77C113.3,127.22,113.7,127.5,113.7,127.87Z"/><path class="cls-6" d="M113,127.11a.68.68,0,0,1-.12.91c-.25.15-.61,0-.8-.38a.69.69,0,0,1,.11-.91A.65.65,0,0,1,113,127.11Z"/><path class="cls-6" d="M112.43,129a4,4,0,0,0,.79-.38,1.3,1.3,0,0,0-.15.2,1.55,1.55,0,0,1-.71.58c-.29.17-.49.67-.85.67a2.14,2.14,0,0,1-1-.34,2.34,2.34,0,0,1-.85-.74,2.73,2.73,0,0,1-.4-1.15,2.8,2.8,0,0,1,.35-1.18c.18-.31.78-.25,1.08-.43l.12-.07a1.12,1.12,0,0,0-.53,1c0,.94.11,1.24.53,1.59s.4.75.75.72S112.07,129.11,112.43,129Z"/><path class="cls-5" d="M118.05,127.93a.4.4,0,0,1,0,.15v0h0a2.64,2.64,0,0,1-.44.52,1.3,1.3,0,0,0-.15.2c-.17.31-.41.4-.71.58s-.49.67-.85.67a2.21,2.21,0,0,1-1-.34A2.43,2.43,0,0,1,114,129a2.87,2.87,0,0,1-.4-1.15,3,3,0,0,1,.36-1.18c.17-.31.77-.26,1.07-.43l.13-.07a2.14,2.14,0,0,1,.4-.2,1.16,1.16,0,0,1,.38-.06,1.75,1.75,0,0,1,1,.27,1.89,1.89,0,0,1,.62.77C117.65,127.27,118.06,127.56,118.05,127.93Z"/><path class="cls-6" d="M117.33,127.17a.69.69,0,0,1-.11.91c-.26.15-.62,0-.81-.38a.68.68,0,0,1,.12-.91C116.78,126.65,117.14,126.81,117.33,127.17Z"/><path class="cls-6" d="M116.79,129a4.57,4.57,0,0,0,.78-.38,1.3,1.3,0,0,0-.15.2c-.17.31-.41.4-.71.58s-.49.67-.85.67a2.21,2.21,0,0,1-1-.34A2.43,2.43,0,0,1,114,129a2.87,2.87,0,0,1-.4-1.15,3,3,0,0,1,.36-1.18c.17-.31.77-.26,1.07-.43l.13-.07a1.13,1.13,0,0,0-.54,1c0,.93.12,1.24.53,1.59s.4.75.75.72S116.42,129.17,116.79,129Z"/><path class="cls-5" d="M97.51,130.41a.51.51,0,0,1,0,.17l0,0h0a3.11,3.11,0,0,1-.5.61.76.76,0,0,0-.18.23,1.89,1.89,0,0,1-.83.67c-.33.2-.57.79-1,.78a2.54,2.54,0,0,1-1.2-.39,2.86,2.86,0,0,1-1-.87,3.25,3.25,0,0,1-.46-1.33,3.32,3.32,0,0,1,.41-1.37c.21-.36.9-.3,1.25-.51l.15-.08a2.56,2.56,0,0,1,.47-.23,1.23,1.23,0,0,1,.44-.07,2.13,2.13,0,0,1,1.11.31,2.29,2.29,0,0,1,.72.9C97.05,129.65,97.52,130,97.51,130.41Z"/><path class="cls-6" d="M96.67,129.52a.78.78,0,0,1-.13,1.06c-.29.17-.71,0-.93-.44a.77.77,0,0,1,.13-1C96,128.91,96.45,129.11,96.67,129.52Z"/><path class="cls-6" d="M96,131.68a5.2,5.2,0,0,0,.92-.43.76.76,0,0,0-.18.23,1.89,1.89,0,0,1-.83.67c-.33.2-.57.79-1,.78a2.54,2.54,0,0,1-1.2-.39,2.86,2.86,0,0,1-1-.87,3.25,3.25,0,0,1-.46-1.33,3.32,3.32,0,0,1,.41-1.37c.21-.36.9-.3,1.25-.51l.15-.08a1.3,1.3,0,0,0-.62,1.17c0,1.1.13,1.45.62,1.86s.46.87.86.84S95.61,131.85,96,131.68Z"/><path class="cls-5" d="M102.71,130.48a.51.51,0,0,1,0,.17l0,0h0a3.11,3.11,0,0,1-.5.61.76.76,0,0,0-.18.23,1.89,1.89,0,0,1-.83.67c-.33.2-.57.79-1,.78a2.55,2.55,0,0,1-1.21-.39,2.74,2.74,0,0,1-1-.87,3.26,3.26,0,0,1-.47-1.33,3.32,3.32,0,0,1,.41-1.37c.21-.36.9-.3,1.25-.51l.15-.08a2.56,2.56,0,0,1,.47-.23,1.23,1.23,0,0,1,.44-.07,2.11,2.11,0,0,1,1.11.31,2.29,2.29,0,0,1,.72.9C102.25,129.72,102.72,130.05,102.71,130.48Z"/><path class="cls-6" d="M101.87,129.59a.78.78,0,0,1-.13,1.06c-.29.17-.71,0-.93-.44a.79.79,0,0,1,.13-1.06C101.23,129,101.65,129.18,101.87,129.59Z"/><path class="cls-6" d="M101.24,131.75a5.2,5.2,0,0,0,.92-.43.76.76,0,0,0-.18.23,1.89,1.89,0,0,1-.83.67c-.33.2-.57.79-1,.78a2.55,2.55,0,0,1-1.21-.39,2.74,2.74,0,0,1-1-.87,3.26,3.26,0,0,1-.47-1.33,3.32,3.32,0,0,1,.41-1.37c.21-.36.9-.3,1.25-.51l.15-.08a1.32,1.32,0,0,0-.62,1.17c0,1.1.13,1.45.62,1.86s.46.87.86.84S100.82,131.92,101.24,131.75Z"/><path class="cls-5" d="M107.78,130.55a.51.51,0,0,1,0,.17s0,0,0,.05h0a3.18,3.18,0,0,1-.51.61.91.91,0,0,0-.17.23,1.89,1.89,0,0,1-.83.67c-.34.2-.57.78-1,.78a2.52,2.52,0,0,1-1.2-.4,2.74,2.74,0,0,1-1-.86,3.11,3.11,0,0,1-.46-1.33,3.26,3.26,0,0,1,.41-1.38c.2-.35.9-.29,1.25-.5l.15-.08a2.82,2.82,0,0,1,.46-.23,1.09,1.09,0,0,1,.45-.07,2,2,0,0,1,1.1.31,2.14,2.14,0,0,1,.72.9C107.31,129.78,107.78,130.12,107.78,130.55Z"/><path class="cls-6" d="M106.94,129.66a.8.8,0,0,1-.13,1.06c-.3.17-.71,0-.94-.44a.79.79,0,0,1,.14-1.06C106.3,129.05,106.72,129.25,106.94,129.66Z"/><path class="cls-6" d="M106.31,131.82a4.84,4.84,0,0,0,.91-.43.91.91,0,0,0-.17.23,1.89,1.89,0,0,1-.83.67c-.34.2-.57.78-1,.78a2.52,2.52,0,0,1-1.2-.4,2.74,2.74,0,0,1-1-.86,3.11,3.11,0,0,1-.46-1.33,3.26,3.26,0,0,1,.41-1.38c.2-.35.9-.29,1.25-.5l.15-.08a1.28,1.28,0,0,0-.62,1.17c0,1.09.13,1.45.61,1.86s.47.87.87.84S105.88,132,106.31,131.82Z"/><path class="cls-5" d="M112.84,130.62a.45.45,0,0,1,0,.16.43.43,0,0,1,0,.05h0a2.53,2.53,0,0,1-.5.6,1.81,1.81,0,0,0-.18.23,1.82,1.82,0,0,1-.82.68c-.34.2-.58.78-1,.78a2.48,2.48,0,0,1-1.2-.4,2.67,2.67,0,0,1-1-.86,3.26,3.26,0,0,1-.47-1.33,3.37,3.37,0,0,1,.42-1.38c.2-.36.9-.3,1.25-.5l.14-.09a3.31,3.31,0,0,1,.47-.22,1.07,1.07,0,0,1,.44-.07,2,2,0,0,1,1.11.31,2.14,2.14,0,0,1,.72.9C112.38,129.85,112.85,130.18,112.84,130.62Z"/><path class="cls-6" d="M112,129.73a.8.8,0,0,1-.13,1.06c-.3.17-.72,0-.94-.44a.8.8,0,0,1,.13-1.06C111.37,129.12,111.79,129.31,112,129.73Z"/><path class="cls-6" d="M111.37,131.89a4.42,4.42,0,0,0,.92-.44,1.81,1.81,0,0,0-.18.23,1.82,1.82,0,0,1-.82.68c-.34.2-.58.78-1,.78a2.48,2.48,0,0,1-1.2-.4,2.67,2.67,0,0,1-1-.86,3.26,3.26,0,0,1-.47-1.33,3.37,3.37,0,0,1,.42-1.38c.2-.36.9-.3,1.25-.5l.14-.09a1.35,1.35,0,0,0-.62,1.18c0,1.09.14,1.44.62,1.86s.46.87.87.84S111,132.06,111.37,131.89Z"/><path class="cls-5" d="M117.91,130.68a.47.47,0,0,1,0,.17.08.08,0,0,1,0,.05h0l0,.08a4.5,4.5,0,0,1-.46.52,1.21,1.21,0,0,0-.18.23,1.91,1.91,0,0,1-.83.68c-.34.19-.57.78-1,.78a2.56,2.56,0,0,1-1.2-.4,2.83,2.83,0,0,1-1-.86,4.53,4.53,0,0,1-.42-1,1.22,1.22,0,0,1,0-.32,2.23,2.23,0,0,1,0-.34,3.56,3.56,0,0,1,.37-1c.13-.23.47-.29.79-.35a1.77,1.77,0,0,0,.46-.15l.15-.09.34-.17.12-.06a1.63,1.63,0,0,1,.45-.07,2.12,2.12,0,0,1,1.11.32,1.2,1.2,0,0,1,.35.32,2,2,0,0,1,.17.23c.07.11.13.23.2.35s.41.49.56.77a.57.57,0,0,1,.08.23A.37.37,0,0,1,117.91,130.68Z"/><path class="cls-6" d="M117.07,129.8a.77.77,0,0,1-.13,1c-.29.18-.71,0-.93-.43a.79.79,0,0,1,.13-1.06C116.43,129.19,116.85,129.38,117.07,129.8Z"/><path class="cls-6" d="M116.44,132a6.19,6.19,0,0,0,.92-.44.9.9,0,0,0-.18.23,1.91,1.91,0,0,1-.83.68c-.33.19-.57.78-1,.77a2.44,2.44,0,0,1-1.2-.39,2.72,2.72,0,0,1-1-.86,3.12,3.12,0,0,1-.47-1.34,3.36,3.36,0,0,1,.41-1.37c.21-.36.9-.3,1.25-.5l.15-.09a1.31,1.31,0,0,0-.62,1.18c0,1.09.13,1.44.62,1.85s.46.87.86.84S116,132.13,116.44,132Z"/><path class="cls-5" d="M117.9,130.57a.37.37,0,0,1,0,.11.47.47,0,0,1,0,.17.08.08,0,0,1,0,.05h0l0,.16a.31.31,0,0,1,0-.08,1.22,1.22,0,0,1,0-.32,1.42,1.42,0,0,1,0-.34,3.13,3.13,0,0,1,.2-.68Z"/><path class="cls-6" d="M117.9,130.57a.37.37,0,0,1,0,.11.47.47,0,0,1,0,.17.08.08,0,0,1,0,.05h0l0,.16a.31.31,0,0,1,0-.08,1.22,1.22,0,0,1,0-.32,1.42,1.42,0,0,1,0-.34,3.13,3.13,0,0,1,.2-.68Z"/><path class="cls-5" d="M75.59,116a.77.77,0,0,1,0,.15s0,0,0,0h0a2.14,2.14,0,0,1-.44.52,1.3,1.3,0,0,0-.15.2,1.51,1.51,0,0,1-.71.58c-.29.17-.49.67-.85.67a2.21,2.21,0,0,1-1-.34,2.43,2.43,0,0,1-.85-.74,2.87,2.87,0,0,1-.4-1.15,3,3,0,0,1,.36-1.18c.17-.31.77-.25,1.07-.43l.13-.07a2.14,2.14,0,0,1,.4-.2,1.16,1.16,0,0,1,.38-.06,1.81,1.81,0,0,1,1,.27,1.89,1.89,0,0,1,.62.77C75.19,115.37,75.6,115.65,75.59,116Z"/><path class="cls-6" d="M74.87,115.26a.69.69,0,0,1-.11.91c-.25.15-.61,0-.8-.38a.69.69,0,0,1,.11-.91C74.32,114.74,74.68,114.91,74.87,115.26Z"/><path class="cls-6" d="M74.33,117.12a3.93,3.93,0,0,0,.78-.38,1.3,1.3,0,0,0-.15.2,1.51,1.51,0,0,1-.71.58c-.29.17-.49.67-.85.67a2.21,2.21,0,0,1-1-.34,2.43,2.43,0,0,1-.85-.74,2.87,2.87,0,0,1-.4-1.15,3,3,0,0,1,.36-1.18c.17-.31.77-.25,1.07-.43l.13-.07a1.15,1.15,0,0,0-.54,1c0,.94.12,1.24.54,1.59s.39.75.74.72S74,117.26,74.33,117.12Z"/><path class="cls-5" d="M73.32,118.62a.77.77,0,0,1,0,.15s0,0,0,0h0a2.14,2.14,0,0,1-.44.52,1.3,1.3,0,0,0-.15.2,1.51,1.51,0,0,1-.71.58c-.29.17-.49.67-.85.67a2.21,2.21,0,0,1-1-.34,2.43,2.43,0,0,1-.85-.74,2.87,2.87,0,0,1-.4-1.15,3,3,0,0,1,.36-1.18c.17-.31.77-.25,1.07-.43l.13-.07a2.14,2.14,0,0,1,.4-.2,1.16,1.16,0,0,1,.38-.06,1.73,1.73,0,0,1,1,.27,1.89,1.89,0,0,1,.62.77C72.92,118,73.33,118.25,73.32,118.62Z"/><path class="cls-6" d="M72.6,117.86a.69.69,0,0,1-.11.91c-.25.15-.61,0-.8-.38a.69.69,0,0,1,.11-.91C72.05,117.34,72.41,117.5,72.6,117.86Z"/><path class="cls-6" d="M72.06,119.72a3.93,3.93,0,0,0,.78-.38,1.3,1.3,0,0,0-.15.2,1.51,1.51,0,0,1-.71.58c-.29.17-.49.67-.85.67a2.21,2.21,0,0,1-1-.34,2.43,2.43,0,0,1-.85-.74,2.87,2.87,0,0,1-.4-1.15,3,3,0,0,1,.36-1.18c.17-.31.77-.25,1.07-.43l.13-.07a1.15,1.15,0,0,0-.54,1c0,.94.12,1.24.54,1.59s.39.75.74.72S71.69,119.86,72.06,119.72Z"/><path class="cls-5" d="M77.68,118.68a.58.58,0,0,1,0,.14s0,0,0,.05h0a2.58,2.58,0,0,1-.43.52.87.87,0,0,0-.15.2,1.69,1.69,0,0,1-.71.58c-.29.17-.5.67-.85.67a2.14,2.14,0,0,1-1-.34,2.26,2.26,0,0,1-.85-.74,2,2,0,0,1,0-2.33c.18-.31.78-.26,1.07-.43l.13-.08a2.93,2.93,0,0,1,.4-.19,1.16,1.16,0,0,1,.38-.06,1.7,1.7,0,0,1,.95.27,1.74,1.74,0,0,1,.62.77C77.28,118,77.68,118.31,77.68,118.68Z"/><path class="cls-6" d="M77,117.92a.68.68,0,0,1-.12.91c-.25.15-.61,0-.8-.38a.69.69,0,0,1,.11-.91C76.41,117.39,76.77,117.56,77,117.92Z"/><path class="cls-6" d="M76.41,119.78a5.54,5.54,0,0,0,.79-.38.87.87,0,0,0-.15.2,1.69,1.69,0,0,1-.71.58c-.29.17-.5.67-.85.67a2.14,2.14,0,0,1-1-.34,2.26,2.26,0,0,1-.85-.74,2,2,0,0,1,0-2.33c.18-.31.78-.26,1.07-.43l.13-.08a1.15,1.15,0,0,0-.53,1c0,.93.11,1.24.53,1.59s.4.75.74.72S76.05,119.92,76.41,119.78Z"/><path class="cls-5" d="M71.34,121.62a.4.4,0,0,1,0,.15s0,0,0,0h0a2.09,2.09,0,0,1-.43.52,1.3,1.3,0,0,0-.15.2,1.55,1.55,0,0,1-.71.58c-.29.17-.49.67-.85.67a2.14,2.14,0,0,1-1-.34,2.34,2.34,0,0,1-.85-.74,2.87,2.87,0,0,1-.4-1.15,2.81,2.81,0,0,1,.36-1.18c.17-.31.77-.25,1.07-.43l.12-.07a2.58,2.58,0,0,1,.41-.2,1.12,1.12,0,0,1,.38-.06,1.75,1.75,0,0,1,1,.27,1.89,1.89,0,0,1,.62.77C70.94,121,71.34,121.25,71.34,121.62Z"/><path class="cls-6" d="M70.62,120.86a.69.69,0,0,1-.11.91c-.26.15-.62,0-.81-.38a.68.68,0,0,1,.12-.91C70.07,120.34,70.43,120.5,70.62,120.86Z"/><path class="cls-6" d="M70.07,122.72a3.73,3.73,0,0,0,.79-.38,1.3,1.3,0,0,0-.15.2,1.55,1.55,0,0,1-.71.58c-.29.17-.49.67-.85.67a2.14,2.14,0,0,1-1-.34,2.34,2.34,0,0,1-.85-.74,2.87,2.87,0,0,1-.4-1.15,2.81,2.81,0,0,1,.36-1.18c.17-.31.77-.25,1.07-.43l.12-.07a1.12,1.12,0,0,0-.53,1c0,.94.12,1.24.53,1.59s.4.75.75.72S69.71,122.86,70.07,122.72Z"/><path class="cls-5" d="M75.69,121.68a.59.59,0,0,1,0,.14l0,.05h0a2.34,2.34,0,0,1-.44.52,1,1,0,0,0-.15.2,1.63,1.63,0,0,1-.71.58c-.29.17-.49.67-.85.67a2.21,2.21,0,0,1-1-.34,2.43,2.43,0,0,1-.85-.74,2.92,2.92,0,0,1-.4-1.15,3,3,0,0,1,.36-1.18c.17-.31.77-.26,1.07-.43l.13-.08a2.93,2.93,0,0,1,.4-.19,1.16,1.16,0,0,1,.38-.06,1.73,1.73,0,0,1,1,.27,1.89,1.89,0,0,1,.62.77C75.29,121,75.7,121.31,75.69,121.68Z"/><path class="cls-6" d="M75,120.92a.69.69,0,0,1-.11.91c-.25.14-.61,0-.8-.38a.69.69,0,0,1,.11-.91C74.42,120.39,74.78,120.56,75,120.92Z"/><path class="cls-6" d="M74.43,122.78a5.47,5.47,0,0,0,.78-.38,1,1,0,0,0-.15.2,1.63,1.63,0,0,1-.71.58c-.29.17-.49.67-.85.67a2.21,2.21,0,0,1-1-.34,2.43,2.43,0,0,1-.85-.74,2.92,2.92,0,0,1-.4-1.15,3,3,0,0,1,.36-1.18c.17-.31.77-.26,1.07-.43l.13-.08a1.18,1.18,0,0,0-.54,1c0,.93.12,1.24.54,1.59s.39.75.74.72S74.06,122.92,74.43,122.78Z"/><path class="cls-5" d="M80.05,121.74a.58.58,0,0,1,0,.14s0,0,0,.05h0a2.58,2.58,0,0,1-.43.52.7.7,0,0,0-.15.2,1.69,1.69,0,0,1-.71.58c-.29.17-.5.67-.85.66a2.13,2.13,0,0,1-1-.33,2.29,2.29,0,0,1-.85-.75,2.68,2.68,0,0,1-.4-1.14,2.8,2.8,0,0,1,.35-1.18c.18-.31.78-.26,1.07-.43l.13-.08a2.93,2.93,0,0,1,.4-.19,1,1,0,0,1,.38-.06,1.7,1.7,0,0,1,1,.27,1.74,1.74,0,0,1,.62.77C79.65,121.08,80.05,121.37,80.05,121.74Z"/><path class="cls-6" d="M79.33,121a.68.68,0,0,1-.12.91c-.25.14-.61,0-.8-.38a.69.69,0,0,1,.11-.91C78.78,120.45,79.14,120.62,79.33,121Z"/><path class="cls-6" d="M78.78,122.83a4.87,4.87,0,0,0,.79-.37.7.7,0,0,0-.15.2,1.69,1.69,0,0,1-.71.58c-.29.17-.5.67-.85.66a2.13,2.13,0,0,1-1-.33,2.29,2.29,0,0,1-.85-.75,2.68,2.68,0,0,1-.4-1.14,2.8,2.8,0,0,1,.35-1.18c.18-.31.78-.26,1.07-.43l.13-.08a1.13,1.13,0,0,0-.53,1c0,.94.11,1.24.53,1.6s.4.75.74.72S78.42,123,78.78,122.83Z"/><path class="cls-5" d="M69.36,124.24a.35.35,0,0,1,0,.14.06.06,0,0,1,0,0h0a2.18,2.18,0,0,1-.44.53.9.9,0,0,0-.15.19,1.51,1.51,0,0,1-.71.58c-.29.17-.49.68-.85.67a2.1,2.1,0,0,1-1-.34,2.43,2.43,0,0,1-.85-.74,2.83,2.83,0,0,1-.4-1.14,2.91,2.91,0,0,1,.36-1.18c.17-.31.77-.26,1.07-.44l.13-.07a2.09,2.09,0,0,1,.4-.19,1.17,1.17,0,0,1,.38-.07,1.62,1.62,0,0,1,1.57,1C69,123.58,69.37,123.87,69.36,124.24Z"/><path class="cls-6" d="M68.64,123.47a.68.68,0,0,1-.11.91c-.25.15-.61,0-.81-.37a.69.69,0,0,1,.12-.91C68.09,123,68.45,123.12,68.64,123.47Z"/><path class="cls-6" d="M68.1,125.33a4.45,4.45,0,0,0,.78-.37.9.9,0,0,0-.15.19,1.51,1.51,0,0,1-.71.58c-.29.17-.49.68-.85.67a2.1,2.1,0,0,1-1-.34,2.43,2.43,0,0,1-.85-.74,2.83,2.83,0,0,1-.4-1.14,2.91,2.91,0,0,1,.36-1.18c.17-.31.77-.26,1.07-.44l.13-.07a1.16,1.16,0,0,0-.54,1c0,.94.12,1.24.53,1.6s.4.74.75.72S67.73,125.48,68.1,125.33Z"/><path class="cls-5" d="M73.71,124.3a.78.78,0,0,1,0,.14.08.08,0,0,1,0,0h0a2.13,2.13,0,0,1-.43.52,1.4,1.4,0,0,0-.16.2,1.53,1.53,0,0,1-.7.58c-.29.17-.5.68-.85.67a2.11,2.11,0,0,1-1-.34,2.43,2.43,0,0,1-.85-.74,2.67,2.67,0,0,1-.39-1.14,2.8,2.8,0,0,1,.35-1.19c.18-.3.77-.25,1.07-.43l.13-.07a2.14,2.14,0,0,1,.4-.2,1.16,1.16,0,0,1,.38-.06,1.81,1.81,0,0,1,1,.27,1.79,1.79,0,0,1,.62.78C73.32,123.64,73.72,123.92,73.71,124.3Z"/><path class="cls-6" d="M73,123.53a.67.67,0,0,1-.11.91c-.25.15-.61,0-.8-.37a.68.68,0,0,1,.11-.91C72.44,123,72.8,123.18,73,123.53Z"/><path class="cls-6" d="M72.45,125.39a4.26,4.26,0,0,0,.79-.38,1.4,1.4,0,0,0-.16.2,1.53,1.53,0,0,1-.7.58c-.29.17-.5.68-.85.67a2.11,2.11,0,0,1-1-.34,2.43,2.43,0,0,1-.85-.74,2.67,2.67,0,0,1-.39-1.14,2.8,2.8,0,0,1,.35-1.19c.18-.3.77-.25,1.07-.43l.13-.07a1.13,1.13,0,0,0-.53,1c0,.94.11,1.24.53,1.59s.4.75.74.73S72.08,125.54,72.45,125.39Z"/><path class="cls-5" d="M78.07,124.35a.4.4,0,0,1,0,.15s0,0,0,0h0a2.09,2.09,0,0,1-.43.52,1.3,1.3,0,0,0-.15.2,1.55,1.55,0,0,1-.71.58c-.29.17-.49.67-.85.67a2.14,2.14,0,0,1-1-.34,2.34,2.34,0,0,1-.85-.74,2.73,2.73,0,0,1-.4-1.15,2.8,2.8,0,0,1,.35-1.18c.18-.31.78-.25,1.08-.43l.12-.07a2.14,2.14,0,0,1,.4-.2,1.18,1.18,0,0,1,.39-.06,1.84,1.84,0,0,1,1,.27,1.89,1.89,0,0,1,.62.77C77.67,123.7,78.07,124,78.07,124.35Z"/><path class="cls-6" d="M77.35,123.59a.68.68,0,0,1-.12.91c-.25.15-.61,0-.8-.38a.69.69,0,0,1,.11-.91A.65.65,0,0,1,77.35,123.59Z"/><path class="cls-6" d="M76.8,125.45a4,4,0,0,0,.79-.38,1.3,1.3,0,0,0-.15.2,1.55,1.55,0,0,1-.71.58c-.29.17-.49.67-.85.67a2.14,2.14,0,0,1-1-.34,2.34,2.34,0,0,1-.85-.74,2.73,2.73,0,0,1-.4-1.15,2.8,2.8,0,0,1,.35-1.18c.18-.31.78-.25,1.08-.43l.12-.07a1.12,1.12,0,0,0-.53,1c0,.94.11,1.24.53,1.59s.4.75.75.72S76.44,125.59,76.8,125.45Z"/><path class="cls-5" d="M82.42,124.41a.4.4,0,0,1,0,.15v0h0a2.64,2.64,0,0,1-.44.52,1.3,1.3,0,0,0-.15.2c-.17.31-.41.4-.71.58s-.49.67-.85.67a2.21,2.21,0,0,1-1-.34,2.34,2.34,0,0,1-.85-.74,2.87,2.87,0,0,1-.4-1.15,3,3,0,0,1,.36-1.18c.17-.31.77-.26,1.07-.43l.13-.07a2.14,2.14,0,0,1,.4-.2,1.16,1.16,0,0,1,.38-.06,1.75,1.75,0,0,1,.95.27,1.89,1.89,0,0,1,.62.77C82,123.75,82.43,124,82.42,124.41Z"/><path class="cls-6" d="M81.7,123.65a.69.69,0,0,1-.11.91c-.26.15-.62,0-.81-.38a.68.68,0,0,1,.12-.91C81.15,123.13,81.51,123.29,81.7,123.65Z"/><path class="cls-6" d="M81.16,125.51a4.57,4.57,0,0,0,.78-.38,1.3,1.3,0,0,0-.15.2c-.17.31-.41.4-.71.58s-.49.67-.85.67a2.21,2.21,0,0,1-1-.34,2.34,2.34,0,0,1-.85-.74,2.87,2.87,0,0,1-.4-1.15,3,3,0,0,1,.36-1.18c.17-.31.77-.26,1.07-.43l.13-.07a1.11,1.11,0,0,0-.54,1c0,.93.12,1.24.53,1.59s.4.75.75.72S80.79,125.65,81.16,125.51Z"/><path class="cls-5" d="M67.14,127.25a.59.59,0,0,1,0,.14l0,0h0a2.58,2.58,0,0,1-.43.52,1,1,0,0,0-.16.2,1.63,1.63,0,0,1-.71.58c-.28.17-.49.67-.84.66a2.2,2.2,0,0,1-1-.33,2.45,2.45,0,0,1-.85-.75,2.67,2.67,0,0,1-.39-1.14A2.8,2.8,0,0,1,63,126c.18-.31.77-.26,1.07-.43l.13-.08a2.93,2.93,0,0,1,.4-.19,1,1,0,0,1,.38-.06,1.73,1.73,0,0,1,.95.27,1.82,1.82,0,0,1,.62.77C66.74,126.59,67.15,126.88,67.14,127.25Z"/><path class="cls-6" d="M66.42,126.49a.68.68,0,0,1-.11.91c-.25.14-.61,0-.8-.38a.69.69,0,0,1,.11-.91C65.87,126,66.23,126.13,66.42,126.49Z"/><path class="cls-6" d="M65.88,128.34a4.87,4.87,0,0,0,.79-.37,1,1,0,0,0-.16.2,1.63,1.63,0,0,1-.71.58c-.28.17-.49.67-.84.66a2.2,2.2,0,0,1-1-.33,2.45,2.45,0,0,1-.85-.75,2.67,2.67,0,0,1-.39-1.14A2.8,2.8,0,0,1,63,126c.18-.31.77-.26,1.07-.43l.13-.08a1.13,1.13,0,0,0-.53,1c0,.94.11,1.24.53,1.6s.39.75.74.72S65.51,128.49,65.88,128.34Z"/><path class="cls-5" d="M71.5,127.31a.35.35,0,0,1,0,.14v0h0A2.38,2.38,0,0,1,71,128a1.25,1.25,0,0,0-.15.19,1.55,1.55,0,0,1-.71.58c-.29.17-.49.68-.85.67a2,2,0,0,1-1-.34,2.18,2.18,0,0,1-.85-.74,2.68,2.68,0,0,1-.4-1.14,2.75,2.75,0,0,1,.35-1.18c.18-.31.78-.26,1.08-.43l.12-.08a2.93,2.93,0,0,1,.4-.19,1.17,1.17,0,0,1,.38-.07,1.88,1.88,0,0,1,1,.27,1.83,1.83,0,0,1,.62.78C71.1,126.65,71.5,126.94,71.5,127.31Z"/><path class="cls-6" d="M70.78,126.54a.67.67,0,0,1-.12.91c-.25.15-.61,0-.8-.37a.69.69,0,0,1,.11-.91C70.23,126,70.59,126.19,70.78,126.54Z"/><path class="cls-6" d="M70.23,128.4A4.51,4.51,0,0,0,71,128a1.25,1.25,0,0,0-.15.19,1.55,1.55,0,0,1-.71.58c-.29.17-.49.68-.85.67a2,2,0,0,1-1-.34,2.18,2.18,0,0,1-.85-.74,2.68,2.68,0,0,1-.4-1.14,2.75,2.75,0,0,1,.35-1.18c.18-.31.78-.26,1.08-.43l.12-.08a1.13,1.13,0,0,0-.53,1c0,.94.11,1.24.53,1.6s.4.74.75.72S69.87,128.55,70.23,128.4Z"/><path class="cls-5" d="M75.85,127.37a.39.39,0,0,1,0,.14v0h0a2.13,2.13,0,0,1-.43.53.9.9,0,0,0-.15.19,1.55,1.55,0,0,1-.71.58c-.29.17-.49.68-.85.67a2.1,2.1,0,0,1-1-.34,2.34,2.34,0,0,1-.85-.74,2.83,2.83,0,0,1-.4-1.14,2.72,2.72,0,0,1,.36-1.18c.17-.31.77-.26,1.07-.44l.12-.07a1.88,1.88,0,0,1,.41-.19.92.92,0,0,1,.38-.07,1.62,1.62,0,0,1,1.57,1C75.45,126.71,75.85,127,75.85,127.37Z"/><path class="cls-6" d="M75.13,126.6a.69.69,0,0,1-.11.91c-.26.15-.62,0-.81-.37a.67.67,0,0,1,.12-.91C74.58,126.08,74.94,126.25,75.13,126.6Z"/><path class="cls-6" d="M74.59,128.46a4.45,4.45,0,0,0,.78-.37.9.9,0,0,0-.15.19,1.55,1.55,0,0,1-.71.58c-.29.17-.49.68-.85.67a2.1,2.1,0,0,1-1-.34,2.34,2.34,0,0,1-.85-.74,2.83,2.83,0,0,1-.4-1.14,2.72,2.72,0,0,1,.36-1.18c.17-.31.77-.26,1.07-.44l.12-.07a1.13,1.13,0,0,0-.53,1c0,.94.12,1.24.53,1.59s.4.75.75.73S74.22,128.61,74.59,128.46Z"/><path class="cls-5" d="M80.2,127.42a.77.77,0,0,1,0,.15s0,0,0,0h0a2.33,2.33,0,0,1-.43.52.94.94,0,0,0-.16.2,1.51,1.51,0,0,1-.71.58c-.29.17-.49.67-.84.67a2.21,2.21,0,0,1-1-.34,2.43,2.43,0,0,1-.85-.74,2.82,2.82,0,0,1-.4-1.15,3,3,0,0,1,.36-1.18c.17-.3.77-.25,1.07-.43l.13-.07a2.14,2.14,0,0,1,.4-.2,1.16,1.16,0,0,1,.38-.06,1.81,1.81,0,0,1,1,.27,1.86,1.86,0,0,1,.62.78C79.8,126.77,80.21,127.05,80.2,127.42Z"/><path class="cls-6" d="M79.48,126.66a.69.69,0,0,1-.11.91c-.25.15-.61,0-.8-.37a.68.68,0,0,1,.11-.91C78.93,126.14,79.29,126.31,79.48,126.66Z"/><path class="cls-6" d="M78.94,128.52a4.26,4.26,0,0,0,.79-.38.94.94,0,0,0-.16.2,1.51,1.51,0,0,1-.71.58c-.29.17-.49.67-.84.67a2.21,2.21,0,0,1-1-.34,2.43,2.43,0,0,1-.85-.74,2.82,2.82,0,0,1-.4-1.15,3,3,0,0,1,.36-1.18c.17-.3.77-.25,1.07-.43l.13-.07a1.13,1.13,0,0,0-.53,1c0,.94.11,1.24.53,1.59s.39.75.74.73S78.57,128.66,78.94,128.52Z"/><path class="cls-5" d="M84.56,127.48a.4.4,0,0,1,0,.15s0,0,0,0h0a2.33,2.33,0,0,1-.43.52,1.3,1.3,0,0,0-.15.2,1.55,1.55,0,0,1-.71.58c-.29.17-.5.67-.85.67a2.14,2.14,0,0,1-1-.34,2.26,2.26,0,0,1-.85-.74,2.73,2.73,0,0,1-.4-1.15,2.8,2.8,0,0,1,.35-1.18c.18-.31.78-.25,1.08-.43l.12-.07a2.14,2.14,0,0,1,.4-.2,1.16,1.16,0,0,1,.38-.06,1.7,1.7,0,0,1,1,.27,1.74,1.74,0,0,1,.62.77C84.16,126.83,84.56,127.11,84.56,127.48Z"/><path class="cls-6" d="M83.84,126.72a.68.68,0,0,1-.12.91c-.25.15-.61,0-.8-.38a.69.69,0,0,1,.11-.91A.64.64,0,0,1,83.84,126.72Z"/><path class="cls-6" d="M83.29,128.58a4,4,0,0,0,.79-.38,1.3,1.3,0,0,0-.15.2,1.55,1.55,0,0,1-.71.58c-.29.17-.5.67-.85.67a2.14,2.14,0,0,1-1-.34,2.26,2.26,0,0,1-.85-.74,2.73,2.73,0,0,1-.4-1.15,2.8,2.8,0,0,1,.35-1.18c.18-.31.78-.25,1.08-.43l.12-.07a1.12,1.12,0,0,0-.53,1c0,.94.11,1.24.53,1.59s.4.75.74.72S82.93,128.72,83.29,128.58Z"/><path class="cls-5" d="M64,130a1,1,0,0,1,0,.17s0,0,0,.05h0a2.58,2.58,0,0,1-.5.61,1.3,1.3,0,0,0-.18.23,1.75,1.75,0,0,1-.82.67c-.34.2-.58.79-1,.78a2.51,2.51,0,0,1-1.2-.39,2.86,2.86,0,0,1-1-.87,3.11,3.11,0,0,1-.46-1.33,3.18,3.18,0,0,1,.41-1.37c.2-.36.9-.3,1.25-.5l.14-.09a3.39,3.39,0,0,1,.47-.23,1.57,1.57,0,0,1,.45-.07,1.87,1.87,0,0,1,1.82,1.22C63.55,129.2,64,129.53,64,130Z"/><path class="cls-6" d="M63.18,129.07a.8.8,0,0,1-.13,1.06c-.3.17-.72,0-.94-.44a.79.79,0,0,1,.13-1.05C62.54,128.46,63,128.66,63.18,129.07Z"/><path class="cls-6" d="M62.54,131.23a4.89,4.89,0,0,0,.92-.43,1.3,1.3,0,0,0-.18.23,1.75,1.75,0,0,1-.82.67c-.34.2-.58.79-1,.78a2.51,2.51,0,0,1-1.2-.39,2.86,2.86,0,0,1-1-.87,3.11,3.11,0,0,1-.46-1.33,3.18,3.18,0,0,1,.41-1.37c.2-.36.9-.3,1.25-.5l.14-.09a1.32,1.32,0,0,0-.62,1.18c0,1.09.14,1.44.62,1.85s.46.87.87.84S62.12,131.4,62.54,131.23Z"/><path class="cls-5" d="M69.22,130a.51.51,0,0,1,0,.17s0,0,0,.05h0a2.9,2.9,0,0,1-.51.61,1.3,1.3,0,0,0-.18.23,1.81,1.81,0,0,1-.82.67c-.34.2-.57.79-1,.78a2.51,2.51,0,0,1-1.2-.39,2.86,2.86,0,0,1-1-.87A3.11,3.11,0,0,1,64,130a3.18,3.18,0,0,1,.41-1.37c.2-.36.9-.3,1.25-.5l.14-.09a3.39,3.39,0,0,1,.47-.23,1.57,1.57,0,0,1,.45-.07,1.87,1.87,0,0,1,1.82,1.22C68.75,129.27,69.22,129.6,69.22,130Z"/><path class="cls-6" d="M68.38,129.14a.8.8,0,0,1-.13,1.06c-.3.17-.72,0-.94-.44a.78.78,0,0,1,.14-1C67.74,128.53,68.16,128.73,68.38,129.14Z"/><path class="cls-6" d="M67.75,131.3a4.84,4.84,0,0,0,.91-.43,1.3,1.3,0,0,0-.18.23,1.81,1.81,0,0,1-.82.67c-.34.2-.57.79-1,.78a2.51,2.51,0,0,1-1.2-.39,2.86,2.86,0,0,1-1-.87A3.11,3.11,0,0,1,64,130a3.18,3.18,0,0,1,.41-1.37c.2-.36.9-.3,1.25-.5l.14-.09a1.32,1.32,0,0,0-.62,1.18c0,1.09.14,1.44.62,1.85s.47.87.87.84S67.32,131.47,67.75,131.3Z"/><path class="cls-5" d="M74.28,130.1a.51.51,0,0,1,0,.17.43.43,0,0,0,0,0h0a3.11,3.11,0,0,1-.5.61,1.3,1.3,0,0,0-.18.23,1.86,1.86,0,0,1-.82.67c-.34.2-.58.78-1,.78a2.58,2.58,0,0,1-1.2-.39,2.69,2.69,0,0,1-1-.87,3.26,3.26,0,0,1-.47-1.33,3.42,3.42,0,0,1,.42-1.38c.2-.35.9-.29,1.24-.5l.15-.08a3.39,3.39,0,0,1,.47-.23,1.27,1.27,0,0,1,.44-.07,2.11,2.11,0,0,1,1.11.31,2.14,2.14,0,0,1,.72.9C73.82,129.33,74.29,129.67,74.28,130.1Z"/><path class="cls-6" d="M73.45,129.21a.79.79,0,0,1-.14,1.06c-.29.17-.71,0-.93-.44a.8.8,0,0,1,.13-1.06C72.81,128.6,73.22,128.8,73.45,129.21Z"/><path class="cls-6" d="M72.81,131.37a4.89,4.89,0,0,0,.92-.43,1.3,1.3,0,0,0-.18.23,1.86,1.86,0,0,1-.82.67c-.34.2-.58.78-1,.78a2.58,2.58,0,0,1-1.2-.39,2.69,2.69,0,0,1-1-.87,3.26,3.26,0,0,1-.47-1.33,3.42,3.42,0,0,1,.42-1.38c.2-.35.9-.29,1.24-.5l.15-.08a1.32,1.32,0,0,0-.62,1.17c0,1.09.13,1.45.62,1.86s.46.87.87.84S72.39,131.54,72.81,131.37Z"/><path class="cls-5" d="M79.35,130.17a.45.45,0,0,1,0,.16.14.14,0,0,1,0,.06h0a2.58,2.58,0,0,1-.51.6,1.13,1.13,0,0,0-.17.23,1.85,1.85,0,0,1-.83.68c-.34.2-.57.78-1,.78a2.56,2.56,0,0,1-1.2-.4,2.83,2.83,0,0,1-1-.86,3.25,3.25,0,0,1-.46-1.33,3.41,3.41,0,0,1,.41-1.38c.21-.36.9-.3,1.25-.5l.15-.09a3.88,3.88,0,0,1,.46-.22,1.12,1.12,0,0,1,.45-.07,2,2,0,0,1,1.1.31,2.16,2.16,0,0,1,.73.9C78.89,129.4,79.36,129.73,79.35,130.17Z"/><path class="cls-6" d="M78.51,129.28a.78.78,0,0,1-.13,1.06c-.29.17-.71,0-.93-.44a.78.78,0,0,1,.13-1.06C77.87,128.67,78.29,128.87,78.51,129.28Z"/><path class="cls-6" d="M77.88,131.44a4.37,4.37,0,0,0,.91-.44,1.13,1.13,0,0,0-.17.23,1.85,1.85,0,0,1-.83.68c-.34.2-.57.78-1,.78a2.56,2.56,0,0,1-1.2-.4,2.83,2.83,0,0,1-1-.86,3.25,3.25,0,0,1-.46-1.33,3.41,3.41,0,0,1,.41-1.38c.21-.36.9-.3,1.25-.5l.15-.09a1.33,1.33,0,0,0-.62,1.18c0,1.09.13,1.44.62,1.86s.46.87.86.84S77.45,131.61,77.88,131.44Z"/><path class="cls-5" d="M84.42,130.23a.47.47,0,0,1,0,.17s0,0,0,0h0a2.39,2.39,0,0,1-.5.61,1.81,1.81,0,0,0-.18.23,1.83,1.83,0,0,1-.82.68c-.34.2-.57.78-1,.78a2.52,2.52,0,0,1-1.2-.4,2.83,2.83,0,0,1-1-.86,3.11,3.11,0,0,1-.46-1.33,3.22,3.22,0,0,1,.41-1.38c.2-.36.9-.3,1.25-.5l.14-.09a2.48,2.48,0,0,1,.47-.22,1.29,1.29,0,0,1,.45-.08,1.9,1.9,0,0,1,1.82,1.22C84,129.47,84.42,129.8,84.42,130.23Z"/><path class="cls-6" d="M83.58,129.35a.8.8,0,0,1-.13,1.06c-.3.17-.72,0-.94-.44a.8.8,0,0,1,.13-1.06C82.94,128.74,83.36,128.93,83.58,129.35Z"/><path class="cls-6" d="M83,131.51a5.69,5.69,0,0,0,.91-.44,1.81,1.81,0,0,0-.18.23,1.83,1.83,0,0,1-.82.68c-.34.2-.57.78-1,.78a2.52,2.52,0,0,1-1.2-.4,2.83,2.83,0,0,1-1-.86,3.11,3.11,0,0,1-.46-1.33,3.22,3.22,0,0,1,.41-1.38c.2-.36.9-.3,1.25-.5l.14-.09a1.34,1.34,0,0,0-.62,1.18c0,1.09.14,1.44.62,1.85s.47.87.87.85S82.52,131.68,83,131.51Z"/><path class="cls-5" d="M89.48,130.3a.47.47,0,0,1,0,.17s0,0,0,.05h0a2.62,2.62,0,0,1-.5.61,1.81,1.81,0,0,0-.18.23,1.86,1.86,0,0,1-.83.68c-.33.19-.57.78-1,.77a2.37,2.37,0,0,1-1.2-.39,2.67,2.67,0,0,1-1-.86,2.29,2.29,0,0,1,0-2.71c.2-.36.9-.3,1.24-.5l.15-.09a2.92,2.92,0,0,1,.47-.23A1.56,1.56,0,0,1,87,128a2.12,2.12,0,0,1,1.11.32,2.15,2.15,0,0,1,.72.9C89,129.54,89.49,129.87,89.48,130.3Z"/><path class="cls-6" d="M88.65,129.41a.79.79,0,0,1-.14,1.06c-.29.17-.71,0-.93-.43a.8.8,0,0,1,.13-1.06C88,128.81,88.42,129,88.65,129.41Z"/><path class="cls-6" d="M88,131.58a5.75,5.75,0,0,0,.92-.44,1.81,1.81,0,0,0-.18.23,1.86,1.86,0,0,1-.83.68c-.33.19-.57.78-1,.77a2.37,2.37,0,0,1-1.2-.39,2.67,2.67,0,0,1-1-.86,2.29,2.29,0,0,1,0-2.71c.2-.36.9-.3,1.24-.5l.15-.09a1.34,1.34,0,0,0-.62,1.18c0,1.09.13,1.44.62,1.85s.46.87.87.84S87.59,131.75,88,131.58Z"/><path class="cls-5" d="M41.54,115.57a.68.68,0,0,1,0,.14s0,0,0,0h0a2.38,2.38,0,0,1-.43.53.7.7,0,0,0-.16.19,1.51,1.51,0,0,1-.71.58c-.29.17-.49.68-.84.67a2.11,2.11,0,0,1-1-.34,2.43,2.43,0,0,1-.85-.74,2.83,2.83,0,0,1-.4-1.14,2.91,2.91,0,0,1,.36-1.18c.17-.31.77-.26,1.07-.44l.13-.07a2.09,2.09,0,0,1,.4-.19,1.17,1.17,0,0,1,.38-.07,1.91,1.91,0,0,1,1,.27,1.85,1.85,0,0,1,.62.78C41.14,114.91,41.55,115.2,41.54,115.57Z"/><path class="cls-6" d="M40.82,114.8a.68.68,0,0,1-.11.91c-.25.15-.61,0-.8-.37a.69.69,0,0,1,.11-.91C40.27,114.28,40.63,114.45,40.82,114.8Z"/><path class="cls-6" d="M40.28,116.66a4.87,4.87,0,0,0,.79-.37.7.7,0,0,0-.16.19,1.51,1.51,0,0,1-.71.58c-.29.17-.49.68-.84.67a2.11,2.11,0,0,1-1-.34,2.43,2.43,0,0,1-.85-.74,2.83,2.83,0,0,1-.4-1.14,2.91,2.91,0,0,1,.36-1.18c.17-.31.77-.26,1.07-.44l.13-.07a1.13,1.13,0,0,0-.53,1c0,.94.11,1.24.53,1.6s.39.74.74.72S39.91,116.81,40.28,116.66Z"/><path class="cls-5" d="M39.27,118.16a.61.61,0,0,1,0,.15v0h0a.43.43,0,0,1,0,.07,3.39,3.39,0,0,1-.39.46.7.7,0,0,0-.16.19,1.53,1.53,0,0,1-.7.58.65.65,0,0,0-.16.13c-.11.12-.22.26-.34.37h0a.52.52,0,0,1-.36.16,1,1,0,0,1-.29,0,1.61,1.61,0,0,1-.39-.12,1.92,1.92,0,0,1-.35-.18h0a2.5,2.5,0,0,1-.84-.74.79.79,0,0,1,0-.09c-.06-.11-.13-.24-.19-.38a1.79,1.79,0,0,1-.17-.68,3.24,3.24,0,0,1,.06-.4,3.09,3.09,0,0,1,.3-.77c.18-.31.77-.26,1.08-.44l.12-.07a2.14,2.14,0,0,1,.4-.2,1,1,0,0,1,.38,0h.1a1.88,1.88,0,0,1,.85.26,1.85,1.85,0,0,1,.62.78,5,5,0,0,0,.38.49,1,1,0,0,1,.1.17A.51.51,0,0,1,39.27,118.16Z"/><path class="cls-6" d="M38.55,117.4a.67.67,0,0,1-.11.91c-.25.15-.61,0-.8-.37a.68.68,0,0,1,.11-.91C38,116.88,38.36,117.05,38.55,117.4Z"/><path class="cls-6" d="M38.8,118.89a.7.7,0,0,0-.16.19,1.53,1.53,0,0,1-.7.58.65.65,0,0,0-.16.13c-.11.12-.22.26-.34.37h0a.52.52,0,0,1-.36.16,1,1,0,0,1-.29,0,1.61,1.61,0,0,1-.39-.12,1.92,1.92,0,0,1-.35-.18h0a2.5,2.5,0,0,1-.84-.74.79.79,0,0,1,0-.09c-.06-.11-.13-.24-.19-.38a1.79,1.79,0,0,1-.17-.68,3.24,3.24,0,0,1,.06-.4,3.09,3.09,0,0,1,.3-.77c.18-.31.77-.26,1.08-.44l.12-.07a1.13,1.13,0,0,0-.53,1c0,.94.11,1.24.53,1.59s.4.75.74.73.54-.34.91-.49A4.87,4.87,0,0,0,38.8,118.89Z"/><path class="cls-5" d="M43.63,118.22a.4.4,0,0,1,0,.15v0h0a2.33,2.33,0,0,1-.43.52,1.3,1.3,0,0,0-.15.2,1.55,1.55,0,0,1-.71.58c-.29.17-.49.67-.85.67a2,2,0,0,1-1-.34,2.26,2.26,0,0,1-.85-.74,2.68,2.68,0,0,1-.4-1.15,2.8,2.8,0,0,1,.35-1.18c.18-.3.78-.25,1.08-.43l.12-.07a2.14,2.14,0,0,1,.4-.2,1.16,1.16,0,0,1,.38-.06,1.79,1.79,0,0,1,.95.27,1.72,1.72,0,0,1,.62.78C43.23,117.57,43.63,117.85,43.63,118.22Z"/><path class="cls-6" d="M42.91,117.46a.68.68,0,0,1-.12.91c-.25.15-.61,0-.8-.37a.68.68,0,0,1,.11-.91C42.36,116.94,42.72,117.11,42.91,117.46Z"/><path class="cls-6" d="M42.36,119.32a4,4,0,0,0,.79-.38,1.3,1.3,0,0,0-.15.2,1.55,1.55,0,0,1-.71.58c-.29.17-.49.67-.85.67a2,2,0,0,1-1-.34,2.26,2.26,0,0,1-.85-.74,2.68,2.68,0,0,1-.4-1.15,2.8,2.8,0,0,1,.35-1.18c.18-.3.78-.25,1.08-.43l.12-.07a1.13,1.13,0,0,0-.53,1c0,.94.11,1.24.53,1.59s.4.75.75.73S42,119.46,42.36,119.32Z"/><path class="cls-5" d="M37.29,121.17a.78.78,0,0,1,0,.14s0,0,0,0h0l0,.07a3.47,3.47,0,0,1-.4.46.9.9,0,0,0-.15.19l-.06.1a1.78,1.78,0,0,1-.65.48c-.19.11-.34.37-.53.54l0-.26,0-.26-.35-3.5.15,0a1.84,1.84,0,0,1,1,.27,1.92,1.92,0,0,1,.62.78l.06.08c.12.19.31.37.42.58h0A.64.64,0,0,1,37.29,121.17Z"/><path class="cls-6" d="M36.57,120.4a.69.69,0,0,1-.11.91c-.26.15-.62,0-.81-.37a.67.67,0,0,1,.12-.91C36,119.88,36.38,120.05,36.57,120.4Z"/><path class="cls-6" d="M36.81,121.89a.9.9,0,0,0-.15.19l-.06.1a1.78,1.78,0,0,1-.65.48c-.19.11-.34.37-.53.54l0-.26,0-.26a1.81,1.81,0,0,0,.27-.18,1.7,1.7,0,0,1,.39-.24A4.2,4.2,0,0,0,36.81,121.89Z"/><path class="cls-5" d="M41.64,121.22a.77.77,0,0,1,0,.15s0,0,0,0h0a2.33,2.33,0,0,1-.43.52,1.4,1.4,0,0,0-.16.2,1.51,1.51,0,0,1-.71.58c-.29.17-.49.67-.84.67a2.21,2.21,0,0,1-1-.34,2.43,2.43,0,0,1-.85-.74,2.67,2.67,0,0,1-.39-1.15,2.8,2.8,0,0,1,.35-1.18c.18-.31.77-.25,1.07-.43l.13-.07a2.14,2.14,0,0,1,.4-.2,1.16,1.16,0,0,1,.38-.06,1.81,1.81,0,0,1,1,.27,1.79,1.79,0,0,1,.62.78C41.24,120.57,41.65,120.85,41.64,121.22Z"/><path class="cls-6" d="M40.92,120.46a.69.69,0,0,1-.11.91c-.25.15-.61,0-.8-.37a.68.68,0,0,1,.11-.91C40.37,119.94,40.73,120.11,40.92,120.46Z"/><path class="cls-6" d="M40.38,122.32a4.26,4.26,0,0,0,.79-.38,1.4,1.4,0,0,0-.16.2,1.51,1.51,0,0,1-.71.58c-.29.17-.49.67-.84.67a2.21,2.21,0,0,1-1-.34,2.43,2.43,0,0,1-.85-.74,2.67,2.67,0,0,1-.39-1.15,2.8,2.8,0,0,1,.35-1.18c.18-.31.77-.25,1.07-.43l.13-.07a1.12,1.12,0,0,0-.53,1c0,.94.11,1.24.53,1.59s.39.75.74.73S40,122.46,40.38,122.32Z"/><path class="cls-5" d="M46,121.28a.4.4,0,0,1,0,.15s0,0,0,0h0a2.33,2.33,0,0,1-.43.52,1.3,1.3,0,0,0-.15.2,1.55,1.55,0,0,1-.71.58c-.29.17-.49.67-.85.67a2.14,2.14,0,0,1-1-.34,2.26,2.26,0,0,1-.85-.74,2.73,2.73,0,0,1-.4-1.15,2.8,2.8,0,0,1,.35-1.18c.18-.31.78-.25,1.08-.43l.12-.07a2.14,2.14,0,0,1,.4-.2,1.16,1.16,0,0,1,.38-.06,1.7,1.7,0,0,1,1,.27,1.74,1.74,0,0,1,.62.77C45.6,120.63,46,120.91,46,121.28Z"/><path class="cls-6" d="M45.28,120.52a.68.68,0,0,1-.12.91c-.25.15-.61,0-.8-.38a.69.69,0,0,1,.11-.91A.64.64,0,0,1,45.28,120.52Z"/><path class="cls-6" d="M44.73,122.38a4,4,0,0,0,.79-.38,1.3,1.3,0,0,0-.15.2,1.55,1.55,0,0,1-.71.58c-.29.17-.49.67-.85.67a2.14,2.14,0,0,1-1-.34,2.26,2.26,0,0,1-.85-.74,2.73,2.73,0,0,1-.4-1.15,2.8,2.8,0,0,1,.35-1.18c.18-.31.78-.25,1.08-.43l.12-.07a1.12,1.12,0,0,0-.53,1c0,.94.11,1.24.53,1.59s.4.75.75.72S44.37,122.52,44.73,122.38Z"/><path class="cls-5" d="M39.67,123.84a.58.58,0,0,1,0,.14l0,0h0a.21.21,0,0,1,0,.06,2.8,2.8,0,0,1-.39.46.7.7,0,0,0-.15.2,1.63,1.63,0,0,1-.72.57l-.07.06h0c-.23.2-.42.57-.71.61h-.05a2.27,2.27,0,0,1-1-.34,2.29,2.29,0,0,1-.85-.75,0,0,0,0,1,0,0v0l-.17-1.67,0-.26a2.75,2.75,0,0,1,.16-.34.27.27,0,0,1,.08-.1c.23-.2.7-.18,1-.32h0l.13-.08a2.09,2.09,0,0,1,.4-.19l.2-.05a.55.55,0,0,1,.18,0,1.87,1.87,0,0,1,1,.26,1.82,1.82,0,0,1,.61.78,5.34,5.34,0,0,0,.39.51.46.46,0,0,1,.09.15A.62.62,0,0,1,39.67,123.84Z"/><path class="cls-6" d="M39,123.07a.67.67,0,0,1-.12.91c-.25.15-.61,0-.8-.37a.69.69,0,0,1,.11-.91C38.4,122.55,38.76,122.72,39,123.07Z"/><path class="cls-6" d="M39.19,124.56a.7.7,0,0,0-.15.2,1.63,1.63,0,0,1-.72.57l-.07.06h0c-.23.2-.42.57-.71.61h-.05a2.27,2.27,0,0,1-1-.34,2.29,2.29,0,0,1-.85-.75,0,0,0,0,1,0,0v0l-.17-1.67,0-.26a2.75,2.75,0,0,1,.16-.34.27.27,0,0,1,.08-.1c.23-.2.7-.18,1-.32h0l.13-.08a1.13,1.13,0,0,0-.53,1c0,.94.11,1.24.53,1.6s.39.75.74.72.54-.34.91-.49A4.87,4.87,0,0,0,39.19,124.56Z"/><path class="cls-5" d="M44,123.9a.35.35,0,0,1,0,.14s0,0,0,0h0a2.13,2.13,0,0,1-.43.53.9.9,0,0,0-.15.19,1.55,1.55,0,0,1-.71.58c-.29.17-.49.68-.85.67a2,2,0,0,1-1-.34A2.34,2.34,0,0,1,40,125a2.83,2.83,0,0,1-.4-1.14,2.9,2.9,0,0,1,.35-1.18c.18-.31.78-.26,1.08-.44l.12-.07a2.87,2.87,0,0,1,.4-.19,1.23,1.23,0,0,1,.39-.07,1.62,1.62,0,0,1,1.57,1C43.62,123.24,44,123.53,44,123.9Z"/><path class="cls-6" d="M43.3,123.13a.68.68,0,0,1-.11.91c-.26.15-.62,0-.81-.37a.68.68,0,0,1,.12-.91C42.75,122.61,43.11,122.78,43.3,123.13Z"/><path class="cls-6" d="M42.75,125a4.2,4.2,0,0,0,.79-.37.9.9,0,0,0-.15.19,1.55,1.55,0,0,1-.71.58c-.29.17-.49.68-.85.67a2,2,0,0,1-1-.34A2.34,2.34,0,0,1,40,125a2.83,2.83,0,0,1-.4-1.14,2.9,2.9,0,0,1,.35-1.18c.18-.31.78-.26,1.08-.44l.12-.07a1.13,1.13,0,0,0-.53,1c0,.94.12,1.24.53,1.6s.4.74.75.72S42.39,125.14,42.75,125Z"/><path class="cls-5" d="M48.37,124a.78.78,0,0,1,0,.14s0,0,0,0h0a2,2,0,0,1-.44.52,1.3,1.3,0,0,0-.15.2,1.51,1.51,0,0,1-.71.58c-.29.17-.49.68-.85.67a2.1,2.1,0,0,1-1-.34,2.43,2.43,0,0,1-.85-.74,2.83,2.83,0,0,1-.4-1.14,3,3,0,0,1,.36-1.19c.17-.3.77-.25,1.07-.43l.13-.07a2.14,2.14,0,0,1,.4-.2,1.16,1.16,0,0,1,.38-.06,1.81,1.81,0,0,1,.95.27,1.86,1.86,0,0,1,.62.78C48,123.3,48.38,123.58,48.37,124Z"/><path class="cls-6" d="M47.65,123.19a.69.69,0,0,1-.11.91c-.25.15-.61,0-.8-.37a.67.67,0,0,1,.11-.91C47.1,122.67,47.46,122.84,47.65,123.19Z"/><path class="cls-6" d="M47.11,125.05a3.93,3.93,0,0,0,.78-.38,1.3,1.3,0,0,0-.15.2,1.51,1.51,0,0,1-.71.58c-.29.17-.49.68-.85.67a2.1,2.1,0,0,1-1-.34,2.43,2.43,0,0,1-.85-.74,2.83,2.83,0,0,1-.4-1.14,3,3,0,0,1,.36-1.19c.17-.3.77-.25,1.07-.43l.13-.07a1.16,1.16,0,0,0-.54,1c0,.94.12,1.24.53,1.59s.4.75.75.73S46.74,125.2,47.11,125.05Z"/><path class="cls-5" d="M37.37,126.55c-.12-.23-.36-.44-.48-.66h0a1.84,1.84,0,0,0-.61-.76,1.93,1.93,0,0,0-.68-.25v0l.12,1.15a.78.78,0,0,0,0,.42l0,.38a.86.86,0,0,1,.18.52,4.14,4.14,0,0,1,0,.79l0,.3a.61.61,0,0,1,.16-.12l.22-.13a1.17,1.17,0,0,0,.49-.45,1,1,0,0,1,.15-.2l.06-.06a2.36,2.36,0,0,0,.33-.39l0-.07h0a.43.43,0,0,0,0-.05.32.32,0,0,0,0-.14A.67.67,0,0,0,37.37,126.55Z"/><path class="cls-6" d="M36.61,127c-.25.15-.61,0-.8-.38l-.06-.14a.78.78,0,0,1,0-.42.47.47,0,0,1,.22-.35c.25-.14.61,0,.8.38A.68.68,0,0,1,36.61,127Z"/><path class="cls-5" d="M41.8,126.91a.32.32,0,0,1,0,.14.09.09,0,0,1,0,0h0a2.34,2.34,0,0,1-.44.52,1,1,0,0,0-.15.2,1.63,1.63,0,0,1-.71.58c-.29.17-.49.67-.85.66a2.2,2.2,0,0,1-1-.33,2.45,2.45,0,0,1-.85-.75,2.83,2.83,0,0,1-.4-1.14,3,3,0,0,1,.36-1.18c.17-.31.77-.26,1.07-.43l.13-.08a2.93,2.93,0,0,1,.4-.19,1,1,0,0,1,.38-.06,1.73,1.73,0,0,1,.95.27,1.89,1.89,0,0,1,.62.77C41.4,126.25,41.81,126.54,41.8,126.91Z"/><path class="cls-6" d="M41.08,126.15a.69.69,0,0,1-.11.91c-.25.14-.61,0-.8-.38a.68.68,0,0,1,.11-.91C40.53,125.62,40.89,125.79,41.08,126.15Z"/><path class="cls-6" d="M40.54,128a4.45,4.45,0,0,0,.78-.37,1,1,0,0,0-.15.2,1.63,1.63,0,0,1-.71.58c-.29.17-.49.67-.85.66a2.2,2.2,0,0,1-1-.33,2.45,2.45,0,0,1-.85-.75,2.83,2.83,0,0,1-.4-1.14,3,3,0,0,1,.36-1.18c.17-.31.77-.26,1.07-.43l.13-.08a1.16,1.16,0,0,0-.54,1c0,.94.12,1.24.53,1.6s.4.75.75.72S40.17,128.15,40.54,128Z"/><path class="cls-5" d="M46.15,127a.68.68,0,0,1,0,.14.08.08,0,0,1,0,0h0a2.38,2.38,0,0,1-.43.53,1.35,1.35,0,0,0-.16.19,1.53,1.53,0,0,1-.7.58c-.29.17-.5.68-.85.67a2.11,2.11,0,0,1-1-.34,2.33,2.33,0,0,1-.85-.74,2.67,2.67,0,0,1-.39-1.14,2.75,2.75,0,0,1,.35-1.18c.18-.31.77-.26,1.07-.43l.13-.08a2.93,2.93,0,0,1,.4-.19A1.17,1.17,0,0,1,44,125a1.88,1.88,0,0,1,.95.27,1.83,1.83,0,0,1,.62.78C45.76,126.31,46.16,126.6,46.15,127Z"/><path class="cls-6" d="M45.44,126.2a.68.68,0,0,1-.12.91c-.25.15-.61,0-.8-.37a.69.69,0,0,1,.11-.91C44.88,125.68,45.24,125.85,45.44,126.2Z"/><path class="cls-6" d="M44.89,128.06a4.87,4.87,0,0,0,.79-.37,1.35,1.35,0,0,0-.16.19,1.53,1.53,0,0,1-.7.58c-.29.17-.5.68-.85.67a2.11,2.11,0,0,1-1-.34,2.33,2.33,0,0,1-.85-.74,2.67,2.67,0,0,1-.39-1.14,2.75,2.75,0,0,1,.35-1.18c.18-.31.77-.26,1.07-.43l.13-.08a1.13,1.13,0,0,0-.53,1c0,.94.11,1.24.53,1.6s.4.74.74.72S44.52,128.21,44.89,128.06Z"/><path class="cls-5" d="M50.51,127a.39.39,0,0,1,0,.14s0,0,0,0h0a2.13,2.13,0,0,1-.43.53.9.9,0,0,0-.15.19,1.55,1.55,0,0,1-.71.58c-.29.17-.49.68-.85.67a2,2,0,0,1-1-.34,2.34,2.34,0,0,1-.85-.74A2.68,2.68,0,0,1,46,127a2.71,2.71,0,0,1,.35-1.18c.18-.31.78-.26,1.08-.44l.12-.07a2.14,2.14,0,0,1,.4-.2,1.23,1.23,0,0,1,.39-.06,1.62,1.62,0,0,1,1.57,1C50.11,126.37,50.51,126.65,50.51,127Z"/><path class="cls-6" d="M49.79,126.26a.68.68,0,0,1-.12.91c-.25.15-.61,0-.8-.37a.68.68,0,0,1,.11-.91C49.24,125.74,49.6,125.91,49.79,126.26Z"/><path class="cls-6" d="M49.24,128.12a4.51,4.51,0,0,0,.79-.37.9.9,0,0,0-.15.19,1.55,1.55,0,0,1-.71.58c-.29.17-.49.68-.85.67a2,2,0,0,1-1-.34,2.34,2.34,0,0,1-.85-.74A2.68,2.68,0,0,1,46,127a2.71,2.71,0,0,1,.35-1.18c.18-.31.78-.26,1.08-.44l.12-.07a1.13,1.13,0,0,0-.53,1c0,.94.11,1.24.53,1.59s.4.75.75.73S48.88,128.27,49.24,128.12Z"/><path class="cls-5" d="M40.14,129.3h0a1.55,1.55,0,0,0-.24-.33,3.66,3.66,0,0,1-.32-.43s0,0,0-.05a2.12,2.12,0,0,0-.7-.86,2.53,2.53,0,0,0-.23-.12,2.1,2.1,0,0,0-.88-.19,1.17,1.17,0,0,0-.32,0l-.12,0-.28.13-.19.1-.14.09a3.52,3.52,0,0,1-.75.21l0,.26,0,.3.32,3.16.22.14a2.41,2.41,0,0,0,1.2.39c.41,0,.65-.58,1-.78a1.77,1.77,0,0,0,.83-.67,1.3,1.3,0,0,1,.18-.23,3.3,3.3,0,0,0,.46-.53.2.2,0,0,0,0-.08h0a.43.43,0,0,0,0-.05.35.35,0,0,0,0-.17A.7.7,0,0,0,40.14,129.3Z"/><path class="cls-6" d="M39.4,128.75a.8.8,0,0,1-.13,1.06.73.73,0,0,1-.94-.43.8.8,0,0,1,.13-1.06C38.76,128.14,39.18,128.34,39.4,128.75Z"/><path class="cls-6" d="M38.76,130.92c-.42.17-.65.53-1,.56s-.38-.43-.87-.84-.58-.76-.62-1.86a1.4,1.4,0,0,1,.11-.56,1.23,1.23,0,0,1,.36-.49l.15-.12-.14.09a3.52,3.52,0,0,1-.75.21l0,.26,0,.3.32,3.16.22.14a2.41,2.41,0,0,0,1.2.39c.41,0,.65-.58,1-.78a1.77,1.77,0,0,0,.83-.67,1.3,1.3,0,0,1,.18-.23A5.75,5.75,0,0,1,38.76,130.92Z"/><path class="cls-5" d="M45.3,129.71a.51.51,0,0,1,0,.17l0,.05h0a3.11,3.11,0,0,1-.5.61.76.76,0,0,0-.18.23,1.89,1.89,0,0,1-.83.67c-.33.2-.57.79-1,.78a2.66,2.66,0,0,1-1.21-.39,2.74,2.74,0,0,1-1-.87,3.26,3.26,0,0,1-.47-1.33,3.32,3.32,0,0,1,.41-1.37c.21-.36.9-.3,1.25-.51l.15-.08a2.56,2.56,0,0,1,.47-.23,1.23,1.23,0,0,1,.44-.07,2.11,2.11,0,0,1,1.11.31,2.29,2.29,0,0,1,.72.9C44.84,129,45.31,129.28,45.3,129.71Z"/><path class="cls-6" d="M44.46,128.82a.78.78,0,0,1-.13,1.06c-.29.17-.71,0-.93-.44a.79.79,0,0,1,.13-1.06C43.82,128.21,44.24,128.41,44.46,128.82Z"/><path class="cls-6" d="M43.83,131a5.2,5.2,0,0,0,.92-.43.76.76,0,0,0-.18.23,1.89,1.89,0,0,1-.83.67c-.33.2-.57.79-1,.78a2.66,2.66,0,0,1-1.21-.39,2.74,2.74,0,0,1-1-.87,3.26,3.26,0,0,1-.47-1.33,3.32,3.32,0,0,1,.41-1.37c.21-.36.9-.3,1.25-.51l.15-.08a1.32,1.32,0,0,0-.62,1.17c0,1.1.13,1.45.62,1.86s.46.87.86.84S43.4,131.15,43.83,131Z"/><path class="cls-5" d="M50.37,129.78a.55.55,0,0,1,0,.17s0,0,0,.05h0a3.18,3.18,0,0,1-.51.61.91.91,0,0,0-.17.23,1.89,1.89,0,0,1-.83.67c-.34.2-.57.78-1,.78a2.52,2.52,0,0,1-1.2-.4,2.83,2.83,0,0,1-1-.86,3.11,3.11,0,0,1-.46-1.33,3.26,3.26,0,0,1,.41-1.38c.2-.36.9-.29,1.25-.5l.15-.08a2.82,2.82,0,0,1,.46-.23,1.09,1.09,0,0,1,.45-.07,2,2,0,0,1,1.1.31,2.14,2.14,0,0,1,.72.9C49.9,129,50.37,129.35,50.37,129.78Z"/><path class="cls-6" d="M49.53,128.89A.8.8,0,0,1,49.4,130c-.3.17-.71,0-.94-.44a.79.79,0,0,1,.14-1.06C48.89,128.28,49.31,128.48,49.53,128.89Z"/><path class="cls-6" d="M48.9,131.05a4.84,4.84,0,0,0,.91-.43.91.91,0,0,0-.17.23,1.89,1.89,0,0,1-.83.67c-.34.2-.57.78-1,.78a2.52,2.52,0,0,1-1.2-.4,2.83,2.83,0,0,1-1-.86,3.11,3.11,0,0,1-.46-1.33,3.26,3.26,0,0,1,.41-1.38c.2-.36.9-.29,1.25-.5l.15-.08a1.28,1.28,0,0,0-.62,1.17c0,1.09.13,1.45.61,1.86s.47.87.87.84S48.47,131.22,48.9,131.05Z"/><path class="cls-5" d="M55.43,129.85a.45.45,0,0,1,0,.16.43.43,0,0,1,0,.05h0a2.39,2.39,0,0,1-.5.61,1.81,1.81,0,0,0-.18.23,1.82,1.82,0,0,1-.82.68c-.34.2-.58.78-1,.78a2.48,2.48,0,0,1-1.2-.4,2.67,2.67,0,0,1-1-.86,3.26,3.26,0,0,1-.47-1.33,3.37,3.37,0,0,1,.42-1.38c.2-.36.9-.3,1.25-.5l.14-.09a3.31,3.31,0,0,1,.47-.22,1.27,1.27,0,0,1,.44-.08,2.12,2.12,0,0,1,1.11.32,2.14,2.14,0,0,1,.72.9C55,129.08,55.44,129.41,55.43,129.85Z"/><path class="cls-6" d="M54.6,129a.8.8,0,0,1-.13,1.06c-.3.17-.72,0-.94-.44a.8.8,0,0,1,.13-1.06C54,128.35,54.38,128.54,54.6,129Z"/><path class="cls-6" d="M54,131.12a5,5,0,0,0,.92-.44,1.81,1.81,0,0,0-.18.23,1.82,1.82,0,0,1-.82.68c-.34.2-.58.78-1,.78a2.48,2.48,0,0,1-1.2-.4,2.67,2.67,0,0,1-1-.86,3.26,3.26,0,0,1-.47-1.33,3.37,3.37,0,0,1,.42-1.38c.2-.36.9-.3,1.25-.5l.14-.09a1.35,1.35,0,0,0-.62,1.18c0,1.09.14,1.44.62,1.86s.46.87.87.84S53.54,131.29,54,131.12Z"/><polygon class="cls-7" points="120.62 109.36 118.43 126.44 118.02 129.66 117.91 130.57 117.86 130.91 117.84 131.07 117.48 133.87 36.39 132.78 36.27 131.63 35.95 128.47 35.91 128.09 35.9 127.92 35.75 126.48 35.7 126.06 35.59 124.91 35.59 124.87 35.42 123.2 35.39 122.94 35.37 122.68 35.01 119.17 34.97 118.78 34.86 117.7 34.81 117.22 33.9 108.2 120.62 109.36"/><g class="cls-8"><polygon class="cls-9" points="120.62 109.36 118.43 126.44 118.02 129.66 117.91 130.57 117.86 130.91 117.84 131.07 117.48 133.87 36.39 132.78 36.27 131.63 35.95 128.47 35.91 128.09 35.9 127.92 35.75 126.48 35.7 126.06 35.59 124.91 35.59 124.87 35.42 123.2 35.39 122.94 35.37 122.68 35.01 119.17 34.97 118.78 34.86 117.7 34.81 117.22 33.9 108.2 120.62 109.36"/></g><polygon class="cls-6" points="126.74 109.44 31.03 108.16 33.98 137.97 122.92 139.16 121.92 146.96 31.6 145.75 27.45 104.77 127.17 106.1 126.74 109.44"/><g class="cls-10"><path class="cls-11" d="M70,109.18c-5.51,6.08-14.53,16-22.05,24.25l-3.71-.05c5.49-8,12.22-17.8,16.72-24.32Z"/><polygon class="cls-11" points="99.68 109.08 82.03 133.39 79.69 133.36 87.26 118.92 78.45 133.34 76.88 133.32 88.54 108.93 99.68 109.08"/><polygon class="cls-11" points="106.25 109.17 93.46 124.8 101.44 109.1 106.25 109.17"/></g><polygon class="cls-12" points="130.8 107.23 24.24 105.92 24.31 100.47 42.23 94.06 130.87 101.77 130.85 103.04 130.8 107.23"/><polygon class="cls-6" points="130.8 107.23 24.24 105.92 24.31 100.47 42.23 94.06 130.87 101.77 130.85 103.04 34.27 101.75 130.8 107.23"/><polygon class="cls-4" points="130.87 101.77 24.31 100.47 36 87.36 119.48 88.38 122.09 91.45 130.87 101.77"/><polygon class="cls-6" points="130.87 101.77 24.31 100.47 36 87.36 119.48 88.38 122.09 91.45 47.61 90.45 130.87 101.77"/><polygon class="cls-6" points="36.39 132.78 36.58 134.96 117.3 135.68 117.48 133.87 36.39 132.78"/><polygon class="cls-6" points="33.9 108.2 32.5 108.18 35.23 134.94 36.58 134.96 33.9 108.2"/><path class="cls-13" d="M57.65,63.54l.16,13.75L59,77l2.95,1.39-.21,8.25-2,1-10.85-.28s-2.73-.14-2.08-4.71S52.11,61.37,53.36,58s2.76-9.3,3.89-9.86,7.6-1.94,10-2.53,5.68-1.06,6.58-.64L71.31,59.15s-3.2,2.18-4.94,3.53C64.8,63.9,64.09,65,62.12,65a5.61,5.61,0,0,1-1.35-.17A9.38,9.38,0,0,1,57.65,63.54Z"/><path class="cls-6" d="M73.86,44.92,71.31,59.15s-3.2,2.18-5,3.53C64.8,63.9,64.09,65,62.12,65a5.64,5.64,0,0,1-1.35-.19,9.26,9.26,0,0,1-3.12-1.26l.16,13.76L59,77l2.95,1.39-.21,8.25-2,1-10.85-.28s-2.14-.11-2.18-3.32c2.57,3.69,5.79,1.7,7.18-1.66,1.74-4.19-.46-12.35,1.47-22,3.32-1.78,4.92-4.47,4-8.7,3.67-1.06,8.41-4.43,11.38-6.74A7.67,7.67,0,0,1,73.86,44.92Z"/><path class="cls-14" d="M59.74,87.62a12.91,12.91,0,0,0,.44-6.4,18.06,18.06,0,0,0-1.31-4.49l8.05-8.57a2.94,2.94,0,0,1,1.51-.86l5.34-1.14L79.43,65l11,3.49,9.65,3.94a3,3,0,0,1,1.06.71l2.9,3L104,88.79Z"/><path class="cls-6" d="M59.74,87.62a12.91,12.91,0,0,0,.44-6.4c4.9-2,6.63-4.7,6.75-4.9,0,.11-.18,1-1.54,8.22,17.68,1.31,29.92-4.7,29.92-4.7L96.4,78.1l-.84,4.82L100,84.29l1.16-5L97.32,77c-17.47,0-22.44-8.3-23.55-10.86L79.43,65l11,3.49,9.65,3.94a3,3,0,0,1,1.06.71l2.9,3L104,88.79Z"/><path class="cls-15" d="M74.1,68.15c-.61,2.19.55,6.21.55,6.21l.07,0a14.43,14.43,0,0,1,2.66-1.74,16,16,0,0,1,3.41-1l3.6.84h0A12.27,12.27,0,0,1,89,78.27c2.91-2,6.21-4.91,7-9.25,0,0-1.2-.37-1.61-.51-.1,0-.15,0-.15-.05l-18.28-5s-.53,1.13-1.07,2.52C74.56,66.68,74.3,67.44,74.1,68.15Z"/><path class="cls-16" d="M67.1,75.36c-.08,1.06-.21,2.1-.36,3.15s-.33,2.08-.52,3.11-.42,2.07-.68,3.09a26.41,26.41,0,0,1-.91,3l.55-3.1.57-3.11c.21-1,.4-2.06.63-3.09S66.83,76.39,67.1,75.36Z"/><path class="cls-6" d="M74.72,74.31a14.43,14.43,0,0,1,2.66-1.74,16,16,0,0,1,3.41-1l3.6.84h0l.24-.1.8-.77a25.26,25.26,0,0,0,4.58.93,39.14,39.14,0,0,1-1,5.79c2.91-2,6.21-4.91,7-9.25,0,0-1.2-.37-1.61-.51l-.19.07a.83.83,0,0,1,0-.12l-18.28-5s-.53,1.13-1.07,2.52a12.34,12.34,0,0,0,4.33,3.31A8.06,8.06,0,0,0,74.72,74.31Z"/><path class="cls-13" d="M80.15,67s.14.79.33,2,.45,3.12.65,5.06c0,.35.07.71.11,1.08a39,39,0,0,0,6.73-6l-.85-.55-.09,0h-.1S83.19,67.05,83,67,80.15,67,80.15,67Z"/><path class="cls-6" d="M80.15,67s.14.79.33,2c1,.32,3,1.1,2.8,1.93a13.82,13.82,0,0,1-2.15,3.13c0,.35.07.71.11,1.08a39,39,0,0,0,6.73-6l-.85-.55-.09,0h-.1S83.19,67.05,83,67,80.15,67,80.15,67Z"/><path class="cls-16" d="M81.24,75.19c-.23,1.09-.5,2.16-.76,3.24l-.8,3.22-.8,3.21c-.26,1.08-.51,2.15-.71,3.24a20.42,20.42,0,0,1,.35-3.31c.18-1.1.43-2.18.7-3.26s.57-2.15.91-3.2S80.82,76.22,81.24,75.19Z"/><path class="cls-17" d="M63.34,50.25a10.42,10.42,0,0,1-1.86,1,11.24,11.24,0,0,1-2,.61l.17-.24a13,13,0,0,1,.31,2.42,6.67,6.67,0,0,1-.38,2.46,4.93,4.93,0,0,1-1.44,2A7.44,7.44,0,0,1,56,59.74a9.72,9.72,0,0,0,1.91-1.43,5,5,0,0,0,1.23-2,6.81,6.81,0,0,0,.31-2.3,15.87,15.87,0,0,0-.24-2.36l0-.21.2,0a11.89,11.89,0,0,0,2-.45A15.43,15.43,0,0,0,63.34,50.25Z"/><path class="cls-17" d="M59,61.62a3.27,3.27,0,0,1,.86-1.23,4.2,4.2,0,0,1,1.29-.81,4.4,4.4,0,0,1,1.48-.31,4.3,4.3,0,0,1,1.48.19c-.5.06-1,.08-1.44.18A6.94,6.94,0,0,0,61.3,60a6.63,6.63,0,0,0-1.23.66A6.87,6.87,0,0,0,59,61.62Z"/><path class="cls-13" d="M98.64,81.6a18.16,18.16,0,0,1,5.45-5.5c4.89,5.29,6.77,7.27,6.8,9.67s-1.76,6.58-7.87,6.87-16.11-4.3-16.11-4.3l-10.14-.27s2.36-2.8,9.57-4.51A73.84,73.84,0,0,1,98.64,81.6Z"/><path class="cls-6" d="M110.89,85.77c0,2.4-1.76,6.59-7.87,6.87s-16.11-4.31-16.11-4.31l-10.14-.26s2.36-2.8,9.57-4.51l.23-.06c-7.09,2.35-3,3.11,2.05,4.18s10.21,2.47,14.66,1.94,5.7-4.16,5.4-5.57a2.55,2.55,0,0,0-2.56-2,87.68,87.68,0,0,0-12.89.21c3.35-.51,5.41-.61,5.41-.61a18.16,18.16,0,0,1,5.45-5.5C109,81.39,110.86,83.37,110.89,85.77Z"/><path class="cls-17" d="M98.64,81.6a18.77,18.77,0,0,1,3.16-.36,17.87,17.87,0,0,1,3.18.11,18.89,18.89,0,0,1-3.16.36A17.81,17.81,0,0,1,98.64,81.6Z"/><polyline class="cls-18" points="89.9 95.28 90.72 94.68 84.69 88.15 74.11 87.87 63.52 87.59 57.15 93.79 57.94 94.43"/><polyline class="cls-19" points="88.8 95.01 89.56 94.45 83.94 88.37 74.1 88.11 64.25 87.85 58.33 93.62 59.06 94.22"/><path class="cls-5" d="M85.1,88.83a1.09,1.09,0,0,1,.08.15s0,0,0,0h0a3,3,0,0,1,0,.8,1.42,1.42,0,0,0,0,.3,2.16,2.16,0,0,1-.14,1.09c-.1.39.09,1-.18,1.28a2.14,2.14,0,0,1-1,.59,2.19,2.19,0,0,1-1.16.09,2.5,2.5,0,0,1-1.09-.62,3.57,3.57,0,0,1-.55-1.3c-.08-.4.41-.87.52-1.27,0,0,0-.11,0-.17a4.2,4.2,0,0,1,.17-.5,1.47,1.47,0,0,1,.25-.38,1.87,1.87,0,0,1,.9-.57,1.58,1.58,0,0,1,1,.12C84.35,88.62,84.85,88.52,85.1,88.83Z"/><path class="cls-6" d="M84,88.8a.76.76,0,0,1,.54.86.64.64,0,0,1-.86.37.78.78,0,0,1-.55-.86A.64.64,0,0,1,84,88.8Z"/><path class="cls-6" d="M84.9,90.83a5.94,5.94,0,0,0,.34-1,1.42,1.42,0,0,0,0,.3,2.16,2.16,0,0,1-.14,1.09c-.1.39.09,1-.18,1.28a2.14,2.14,0,0,1-1,.59,2.19,2.19,0,0,1-1.16.09,2.5,2.5,0,0,1-1.09-.62,3.57,3.57,0,0,1-.55-1.3c-.08-.4.41-.87.52-1.27,0,0,0-.11,0-.17a1.49,1.49,0,0,0,.3,1.31c.67.76.94.94,1.5.89s.82.29,1.06,0S84.73,91.26,84.9,90.83Z"/><path class="cls-5" d="M82.94,90.66a.45.45,0,0,1,0,.16s0,0,0,.06h0a2.59,2.59,0,0,1-.46.6,1.6,1.6,0,0,0-.16.23,1.73,1.73,0,0,1-.75.67c-.3.2-.52.78-.9.77a2,2,0,0,1-1.07-.4,2.62,2.62,0,0,1-.87-.88,3.59,3.59,0,0,1-.4-1.35,3.93,3.93,0,0,1,.39-1.38c.19-.35.82-.29,1.13-.49l.13-.08a2.91,2.91,0,0,1,.42-.23,1.08,1.08,0,0,1,.4-.06,1.74,1.74,0,0,1,1,.32,2.19,2.19,0,0,1,.63.92C82.54,89.88,83,90.22,82.94,90.66Z"/><path class="cls-6" d="M82.2,89.75a.86.86,0,0,1-.13,1.07c-.27.17-.64,0-.83-.45a.87.87,0,0,1,.13-1.06C81.64,89.14,82,89.34,82.2,89.75Z"/><path class="cls-6" d="M81.6,91.92a4.14,4.14,0,0,0,.83-.43,1.6,1.6,0,0,0-.16.23,1.73,1.73,0,0,1-.75.67c-.3.2-.52.78-.9.77a2,2,0,0,1-1.07-.4,2.62,2.62,0,0,1-.87-.88,3.59,3.59,0,0,1-.4-1.35,3.93,3.93,0,0,1,.39-1.38c.19-.35.82-.29,1.13-.49l.13-.08a1.38,1.38,0,0,0-.57,1.17c0,1.1.1,1.46.53,1.88s.4.88.76.85S81.22,92.09,81.6,91.92Z"/><path class="cls-5" d="M80.07,88.16a.64.64,0,0,1,.08.14s0,0,0,0h0a3.09,3.09,0,0,1,0,.81,1.36,1.36,0,0,0,0,.29,2.27,2.27,0,0,1-.14,1.09c-.1.39.09,1-.18,1.28a2.19,2.19,0,0,1-1,.59,2.11,2.11,0,0,1-1.16.1,2.52,2.52,0,0,1-1.09-.63,3.6,3.6,0,0,1-.55-1.29c-.08-.41.41-.87.52-1.27,0-.06,0-.12,0-.17a3.81,3.81,0,0,1,.17-.51,1.47,1.47,0,0,1,.24-.37A1.89,1.89,0,0,1,78,87.7a1.59,1.59,0,0,1,1,.13C79.31,87.94,79.82,87.84,80.07,88.16Z"/><path class="cls-6" d="M79,88.12a.78.78,0,0,1,.54.87.64.64,0,0,1-.87.36.76.76,0,0,1-.54-.86A.64.64,0,0,1,79,88.12Z"/><path class="cls-6" d="M79.87,90.15a5.87,5.87,0,0,0,.33-1,1.36,1.36,0,0,0,0,.29,2.27,2.27,0,0,1-.14,1.09c-.1.39.09,1-.18,1.28a2.19,2.19,0,0,1-1,.59,2.11,2.11,0,0,1-1.16.1,2.52,2.52,0,0,1-1.09-.63,3.6,3.6,0,0,1-.55-1.29c-.08-.41.41-.87.52-1.27,0-.06,0-.12,0-.17a1.45,1.45,0,0,0,.29,1.3c.68.76,1,.94,1.51.89s.81.29,1.06,0S79.69,90.58,79.87,90.15Z"/><path class="cls-5" d="M77.91,90a.51.51,0,0,1,0,.17l0,0h0a2.88,2.88,0,0,1-.46.61.73.73,0,0,0-.16.23,1.86,1.86,0,0,1-.75.67c-.31.19-.53.78-.9.77a2.11,2.11,0,0,1-1.07-.41,2.62,2.62,0,0,1-.87-.88,3.54,3.54,0,0,1-.4-1.34,3.63,3.63,0,0,1,.39-1.38c.19-.36.81-.29,1.13-.49l.13-.09a2.12,2.12,0,0,1,.42-.22.89.89,0,0,1,.4-.07,1.68,1.68,0,0,1,1,.33,2.1,2.1,0,0,1,.63.91C77.5,89.2,77.92,89.54,77.91,90Z"/><path class="cls-6" d="M77.17,89.08A.85.85,0,0,1,77,90.14c-.27.17-.64,0-.83-.45a.85.85,0,0,1,.13-1.06C76.61,88.46,77,88.66,77.17,89.08Z"/><path class="cls-6" d="M76.57,91.24a5,5,0,0,0,.83-.42.73.73,0,0,0-.16.23,1.86,1.86,0,0,1-.75.67c-.31.19-.53.78-.9.77a2.11,2.11,0,0,1-1.07-.41,2.62,2.62,0,0,1-.87-.88,3.54,3.54,0,0,1-.4-1.34,3.63,3.63,0,0,1,.39-1.38c.19-.36.81-.29,1.13-.49l.13-.09a1.36,1.36,0,0,0-.57,1.18c0,1.09.1,1.45.52,1.87s.41.88.77.85S76.19,91.41,76.57,91.24Z"/><path class="cls-5" d="M74.35,90a.51.51,0,0,1,0,.17.43.43,0,0,0,0,0h0a2.64,2.64,0,0,1-.46.61,1.19,1.19,0,0,0-.16.23,1.74,1.74,0,0,1-.75.67c-.3.19-.52.78-.89.77A2,2,0,0,1,71,92.09a2.56,2.56,0,0,1-.88-.88,3.36,3.36,0,0,1-.39-1.34,3.46,3.46,0,0,1,.39-1.38c.18-.36.81-.29,1.12-.49l.13-.09a2.49,2.49,0,0,1,.43-.22,1,1,0,0,1,.39-.07,1.73,1.73,0,0,1,1,.33,2.16,2.16,0,0,1,.63.91C74,89.22,74.37,89.56,74.35,90Z"/><path class="cls-6" d="M73.62,89.09a.86.86,0,0,1-.14,1.06c-.26.17-.64,0-.83-.45a.86.86,0,0,1,.14-1.06C73.05,88.47,73.42,88.67,73.62,89.09Z"/><path class="cls-6" d="M73,91.26a4.69,4.69,0,0,0,.82-.43,1.19,1.19,0,0,0-.16.23,1.74,1.74,0,0,1-.75.67c-.3.19-.52.78-.89.77A2,2,0,0,1,71,92.09a2.56,2.56,0,0,1-.88-.88,3.36,3.36,0,0,1-.39-1.34,3.46,3.46,0,0,1,.39-1.38c.18-.36.81-.29,1.12-.49l.13-.09a1.4,1.4,0,0,0-.57,1.18c0,1.1.1,1.45.53,1.87s.4.88.76.86S72.63,91.42,73,91.26Z"/><path class="cls-5" d="M70,87.89a.64.64,0,0,1,.08.14.43.43,0,0,0,0,0h0a3.09,3.09,0,0,1,0,.81,2.83,2.83,0,0,0,0,.3,2.24,2.24,0,0,1-.13,1.08c-.1.39.09,1-.18,1.29a2.29,2.29,0,0,1-1,.58,2.07,2.07,0,0,1-1.15.1,2.52,2.52,0,0,1-1.09-.63,3.16,3.16,0,0,1-.55-1.29c-.08-.41.41-.87.51-1.27l0-.17a2.27,2.27,0,0,1,.17-.5A1.28,1.28,0,0,1,67,88a1.92,1.92,0,0,1,.91-.58,1.67,1.67,0,0,1,1,.13C69.28,87.68,69.78,87.57,70,87.89Z"/><path class="cls-6" d="M69,87.86a.77.77,0,0,1,.54.86.63.63,0,0,1-.87.36.76.76,0,0,1-.54-.86A.63.63,0,0,1,69,87.86Z"/><path class="cls-6" d="M69.84,89.88a7,7,0,0,0,.33-1,2.83,2.83,0,0,0,0,.3,2.24,2.24,0,0,1-.13,1.08c-.1.39.09,1-.18,1.29a2.29,2.29,0,0,1-1,.58,2.07,2.07,0,0,1-1.15.1,2.52,2.52,0,0,1-1.09-.63,3.16,3.16,0,0,1-.55-1.29c-.08-.41.41-.87.51-1.27l0-.17a1.45,1.45,0,0,0,.29,1.3c.67.76.94,1,1.5.89s.82.3,1.07,0S69.66,90.31,69.84,89.88Z"/><path class="cls-5" d="M67.88,89.71a.86.86,0,0,1,0,.17s0,0,0,.05h0a2.72,2.72,0,0,1-.46.61,1.24,1.24,0,0,0-.17.23,1.65,1.65,0,0,1-.74.67c-.31.19-.53.78-.9.77a2.07,2.07,0,0,1-1.07-.41,2.37,2.37,0,0,1-.87-.88,3.37,3.37,0,0,1-.4-1.34,3.5,3.5,0,0,1,.39-1.38c.19-.36.81-.29,1.12-.49l.14-.09a3.36,3.36,0,0,1,.42-.22,1.24,1.24,0,0,1,.4-.07,1.7,1.7,0,0,1,1,.33,2.15,2.15,0,0,1,.64.91C67.47,88.94,67.89,89.28,67.88,89.71Z"/><path class="cls-6" d="M67.14,88.81A.87.87,0,0,1,67,89.87c-.27.17-.64,0-.84-.44a.88.88,0,0,1,.14-1.07C66.58,88.19,67,88.39,67.14,88.81Z"/><path class="cls-6" d="M66.54,91a4.42,4.42,0,0,0,.83-.43,1.24,1.24,0,0,0-.17.23,1.65,1.65,0,0,1-.74.67c-.31.19-.53.78-.9.77a2.07,2.07,0,0,1-1.07-.41,2.37,2.37,0,0,1-.87-.88,3.37,3.37,0,0,1-.4-1.34,3.5,3.5,0,0,1,.39-1.38c.19-.36.81-.29,1.12-.49l.14-.09a1.38,1.38,0,0,0-.58,1.18c0,1.1.1,1.45.53,1.87s.4.88.77.86S66.16,91.15,66.54,91Z"/><path class="cls-5" d="M88.12,93.13a.51.51,0,0,1,0,.17.17.17,0,0,1,0,0h0a3.26,3.26,0,0,1-.46.61.82.82,0,0,0-.16.22,1.73,1.73,0,0,1-.75.67c-.31.2-.53.79-.9.78a2.07,2.07,0,0,1-1.07-.41,2.53,2.53,0,0,1-.87-.88,3.42,3.42,0,0,1-.4-1.35,3.63,3.63,0,0,1,.39-1.37c.19-.36.81-.29,1.13-.49l.13-.09a1.88,1.88,0,0,1,.42-.22.87.87,0,0,1,.4-.07,1.68,1.68,0,0,1,1,.33,2.1,2.1,0,0,1,.63.91C87.71,92.35,88.13,92.69,88.12,93.13Z"/><path class="cls-6" d="M87.38,92.23a.88.88,0,0,1-.13,1.06c-.27.17-.64,0-.83-.45a.85.85,0,0,1,.13-1.06C86.82,91.61,87.19,91.81,87.38,92.23Z"/><path class="cls-6" d="M86.78,94.39a5,5,0,0,0,.83-.42.82.82,0,0,0-.16.22,1.73,1.73,0,0,1-.75.67c-.31.2-.53.79-.9.78a2.07,2.07,0,0,1-1.07-.41,2.53,2.53,0,0,1-.87-.88,3.42,3.42,0,0,1-.4-1.35,3.63,3.63,0,0,1,.39-1.37c.19-.36.81-.29,1.13-.49l.13-.09a1.36,1.36,0,0,0-.57,1.18c0,1.09.09,1.45.52,1.87s.4.88.77.85S86.4,94.56,86.78,94.39Z"/><path class="cls-5" d="M86,93.18a.51.51,0,0,1,0,.17.17.17,0,0,1,0,.05h0a2.88,2.88,0,0,1-.46.61,1.19,1.19,0,0,0-.16.23,1.86,1.86,0,0,1-.75.67c-.31.19-.53.78-.9.77a2.11,2.11,0,0,1-1.07-.41,2.62,2.62,0,0,1-.87-.88,3.54,3.54,0,0,1-.4-1.34,3.63,3.63,0,0,1,.39-1.38c.19-.36.81-.29,1.13-.49L83,91.1a2.12,2.12,0,0,1,.42-.22,1.09,1.09,0,0,1,.4-.07,1.75,1.75,0,0,1,1,.33,2.1,2.1,0,0,1,.63.91C85.63,92.41,86,92.74,86,93.18Z"/><path class="cls-6" d="M85.29,92.28a.85.85,0,0,1-.13,1.06c-.27.17-.64,0-.83-.45a.87.87,0,0,1,.13-1.06C84.73,91.66,85.1,91.86,85.29,92.28Z"/><path class="cls-6" d="M84.69,94.45a5.12,5.12,0,0,0,.83-.43,1.19,1.19,0,0,0-.16.23,1.86,1.86,0,0,1-.75.67c-.31.19-.53.78-.9.77a2.11,2.11,0,0,1-1.07-.41,2.62,2.62,0,0,1-.87-.88,3.54,3.54,0,0,1-.4-1.34,3.63,3.63,0,0,1,.39-1.38c.19-.36.81-.29,1.13-.49L83,91.1a1.39,1.39,0,0,0-.57,1.18c0,1.1.1,1.45.52,1.87s.41.88.77.85S84.31,94.61,84.69,94.45Z"/><path class="cls-5" d="M74.23,92.76a.51.51,0,0,1,0,.17.43.43,0,0,0,0,0h0a2.64,2.64,0,0,1-.46.61,1.19,1.19,0,0,0-.16.23,1.74,1.74,0,0,1-.75.67c-.3.19-.52.78-.89.77a2,2,0,0,1-1.07-.41A2.56,2.56,0,0,1,70,94a3.36,3.36,0,0,1-.39-1.34A3.46,3.46,0,0,1,70,91.26c.18-.36.81-.29,1.12-.49l.13-.09a1.94,1.94,0,0,1,.43-.22,1,1,0,0,1,.4-.07,1.72,1.72,0,0,1,1,.33,2,2,0,0,1,.63.91C73.83,92,74.25,92.33,74.23,92.76Z"/><path class="cls-6" d="M73.5,91.86a.86.86,0,0,1-.14,1.06c-.26.17-.64,0-.83-.45a.86.86,0,0,1,.14-1.06C72.93,91.24,73.3,91.44,73.5,91.86Z"/><path class="cls-6" d="M72.9,94a4.69,4.69,0,0,0,.82-.43,1.19,1.19,0,0,0-.16.23,1.74,1.74,0,0,1-.75.67c-.3.19-.52.78-.89.77a2,2,0,0,1-1.07-.41A2.56,2.56,0,0,1,70,94a3.36,3.36,0,0,1-.39-1.34A3.46,3.46,0,0,1,70,91.26c.18-.36.81-.29,1.12-.49l.13-.09a1.4,1.4,0,0,0-.57,1.18c0,1.1.1,1.45.53,1.87s.4.88.76.85S72.51,94.19,72.9,94Z"/><path class="cls-5" d="M70.58,90.78a.69.69,0,0,1,.07.15.08.08,0,0,1,0,0h0a3.51,3.51,0,0,1,0,.8,1.42,1.42,0,0,0,0,.3,2.27,2.27,0,0,1-.13,1.09c-.11.39.09,1-.18,1.28a2.22,2.22,0,0,1-1,.59,2.16,2.16,0,0,1-1.15.09,2.7,2.7,0,0,1-1.1-.62,3.39,3.39,0,0,1-.54-1.3c-.08-.4.41-.87.51-1.27a.85.85,0,0,0,0-.17,4.2,4.2,0,0,1,.17-.5,1.78,1.78,0,0,1,.25-.38,1.9,1.9,0,0,1,.91-.57,1.59,1.59,0,0,1,1,.12C69.82,90.57,70.32,90.47,70.58,90.78Z"/><path class="cls-6" d="M69.5,90.75a.77.77,0,0,1,.55.86.64.64,0,0,1-.87.37.77.77,0,0,1-.54-.86A.63.63,0,0,1,69.5,90.75Z"/><path class="cls-6" d="M70.37,92.78a5.94,5.94,0,0,0,.34-1,1.42,1.42,0,0,0,0,.3,2.27,2.27,0,0,1-.13,1.09c-.11.39.09,1-.18,1.28a2.22,2.22,0,0,1-1,.59,2.16,2.16,0,0,1-1.15.09,2.7,2.7,0,0,1-1.1-.62,3.39,3.39,0,0,1-.54-1.3c-.08-.4.41-.87.51-1.27a.85.85,0,0,0,0-.17,1.49,1.49,0,0,0,.3,1.3c.67.77.94,1,1.5.9s.82.29,1.06,0S70.2,93.21,70.37,92.78Z"/><path class="cls-5" d="M68.42,92.61l0,.16s0,0,0,0h0a2.9,2.9,0,0,1-.46.6,1.7,1.7,0,0,0-.17.23,1.63,1.63,0,0,1-.75.67c-.3.2-.52.78-.89.77a2.06,2.06,0,0,1-1.07-.4,2.56,2.56,0,0,1-.88-.88,2.58,2.58,0,0,1,0-2.73c.19-.35.81-.29,1.12-.49l.14-.08a2.46,2.46,0,0,1,.42-.23,1,1,0,0,1,.4-.06,1.69,1.69,0,0,1,1,.32,2.12,2.12,0,0,1,.64.92C68,91.83,68.43,92.17,68.42,92.61Z"/><path class="cls-6" d="M67.68,91.7a.89.89,0,0,1-.13,1.07c-.27.17-.64,0-.84-.45a.88.88,0,0,1,.14-1.07C67.11,91.08,67.49,91.29,67.68,91.7Z"/><path class="cls-6" d="M67.08,93.87a4.42,4.42,0,0,0,.83-.43,1.7,1.7,0,0,0-.17.23,1.63,1.63,0,0,1-.75.67c-.3.2-.52.78-.89.77a2.06,2.06,0,0,1-1.07-.4,2.56,2.56,0,0,1-.88-.88,2.58,2.58,0,0,1,0-2.73c.19-.35.81-.29,1.12-.49l.14-.08a1.35,1.35,0,0,0-.58,1.17c0,1.1.1,1.46.53,1.88s.4.88.77.85S66.7,94,67.08,93.87Z"/><path class="cls-5" d="M67.31,92.73l0,.17s0,0,0,0h0a2.72,2.72,0,0,1-.46.61,1.24,1.24,0,0,0-.17.23,1.63,1.63,0,0,1-.75.67c-.3.19-.52.78-.89.77a2.07,2.07,0,0,1-1.07-.41A2.47,2.47,0,0,1,63,94a2.57,2.57,0,0,1,0-2.72c.19-.36.81-.29,1.12-.49l.14-.09a3.36,3.36,0,0,1,.42-.22,1,1,0,0,1,.4-.07,1.7,1.7,0,0,1,1,.33,2.09,2.09,0,0,1,.64.91C66.9,92,67.32,92.3,67.31,92.73Z"/><path class="cls-6" d="M66.57,91.83a.87.87,0,0,1-.13,1.06c-.27.17-.64,0-.84-.45a.86.86,0,0,1,.14-1.06C66,91.21,66.38,91.41,66.57,91.83Z"/><path class="cls-6" d="M66,94a4.42,4.42,0,0,0,.83-.43,1.24,1.24,0,0,0-.17.23,1.63,1.63,0,0,1-.75.67c-.3.19-.52.78-.89.77a2.07,2.07,0,0,1-1.07-.41A2.47,2.47,0,0,1,63,94a2.57,2.57,0,0,1,0-2.72c.19-.36.81-.29,1.12-.49l.14-.09a1.38,1.38,0,0,0-.58,1.18c0,1.1.1,1.45.53,1.87s.4.88.77.86S65.59,94.16,66,94Z"/><path class="cls-5" d="M82.61,93a.47.47,0,0,1,0,.17s0,0,0,0h0a2.72,2.72,0,0,1-.46.61.87.87,0,0,0-.16.23,1.79,1.79,0,0,1-.75.67c-.31.19-.53.78-.9.77a2.11,2.11,0,0,1-1.07-.41,2.62,2.62,0,0,1-.87-.88,3.54,3.54,0,0,1-.4-1.34,3.68,3.68,0,0,1,.39-1.38c.19-.36.81-.29,1.13-.49l.13-.09a4.23,4.23,0,0,1,.42-.22,1.05,1.05,0,0,1,.4-.07,1.75,1.75,0,0,1,1,.33,2.16,2.16,0,0,1,.63.91C82.2,92.21,82.62,92.55,82.61,93Z"/><path class="cls-6" d="M81.87,92.08a.86.86,0,0,1-.13,1.06c-.27.17-.64,0-.83-.45A.85.85,0,0,1,81,91.63C81.31,91.46,81.68,91.66,81.87,92.08Z"/><path class="cls-6" d="M81.27,94.25a4.42,4.42,0,0,0,.83-.43.87.87,0,0,0-.16.23,1.79,1.79,0,0,1-.75.67c-.31.19-.53.78-.9.77a2.11,2.11,0,0,1-1.07-.41,2.62,2.62,0,0,1-.87-.88,3.54,3.54,0,0,1-.4-1.34,3.68,3.68,0,0,1,.39-1.38c.19-.36.81-.29,1.13-.49l.13-.09A1.38,1.38,0,0,0,79,92.08c0,1.1.1,1.45.52,1.87s.41.88.77.86S80.89,94.41,81.27,94.25Z"/><path class="cls-5" d="M79,91a.64.64,0,0,1,.08.14s0,0,0,0h0a3.08,3.08,0,0,1,0,.81.93.93,0,0,0,0,.29A2.16,2.16,0,0,1,79,93.4c-.1.39.09,1-.18,1.28a2.14,2.14,0,0,1-1,.59,2,2,0,0,1-1.16.09,2.4,2.4,0,0,1-1.09-.62A3.6,3.6,0,0,1,75,93.45c-.08-.41.41-.88.52-1.28l0-.16a3.81,3.81,0,0,1,.17-.51,1.27,1.27,0,0,1,.25-.37,1.82,1.82,0,0,1,.9-.58,1.52,1.52,0,0,1,1,.13C78.19,90.79,78.7,90.69,79,91Z"/><path class="cls-6" d="M77.88,91a.77.77,0,0,1,.54.86.64.64,0,0,1-.87.37.77.77,0,0,1-.54-.86A.64.64,0,0,1,77.88,91Z"/><path class="cls-6" d="M78.75,93a6.13,6.13,0,0,0,.34-1,.93.93,0,0,0,0,.29A2.16,2.16,0,0,1,79,93.4c-.1.39.09,1-.18,1.28a2.14,2.14,0,0,1-1,.59,2,2,0,0,1-1.16.09,2.4,2.4,0,0,1-1.09-.62A3.6,3.6,0,0,1,75,93.45c-.08-.41.41-.88.52-1.28l0-.16a1.47,1.47,0,0,0,.3,1.3c.67.76.94.94,1.5.89s.81.29,1.06,0S78.57,93.43,78.75,93Z"/><path class="cls-5" d="M76.79,92.83a.55.55,0,0,1,0,.17.43.43,0,0,0,0,0h0a2.59,2.59,0,0,1-.46.6,1.6,1.6,0,0,0-.16.23,1.73,1.73,0,0,1-.75.67c-.31.2-.53.79-.9.78a2.11,2.11,0,0,1-1.07-.41,2.62,2.62,0,0,1-.87-.88,3.59,3.59,0,0,1-.4-1.35,3.63,3.63,0,0,1,.39-1.37c.19-.36.81-.29,1.13-.5l.13-.08a2.12,2.12,0,0,1,.42-.22.92.92,0,0,1,.4-.07,1.68,1.68,0,0,1,1,.33,2.1,2.1,0,0,1,.63.91C76.39,92.05,76.8,92.39,76.79,92.83Z"/><path class="cls-6" d="M76.05,91.93A.85.85,0,0,1,75.92,93c-.27.17-.64,0-.83-.45a.87.87,0,0,1,.13-1.06C75.49,91.31,75.86,91.51,76.05,91.93Z"/><path class="cls-6" d="M75.45,94.09a4.14,4.14,0,0,0,.83-.43,1.6,1.6,0,0,0-.16.23,1.73,1.73,0,0,1-.75.67c-.31.2-.53.79-.9.78a2.11,2.11,0,0,1-1.07-.41,2.62,2.62,0,0,1-.87-.88,3.59,3.59,0,0,1-.4-1.35,3.63,3.63,0,0,1,.39-1.37c.19-.36.81-.29,1.13-.5l.13-.08a1.39,1.39,0,0,0-.57,1.18c0,1.09.1,1.45.52,1.87s.41.88.77.85S75.07,94.26,75.45,94.09Z"/><path class="cls-5" d="M64.86,92.62a.55.55,0,0,1,0,.17l0,0h0a2.59,2.59,0,0,1-.46.6,1.06,1.06,0,0,0-.16.23,1.73,1.73,0,0,1-.75.67c-.31.2-.53.79-.9.78a2.11,2.11,0,0,1-1.07-.41,2.62,2.62,0,0,1-.87-.88,3.59,3.59,0,0,1-.4-1.35,3.63,3.63,0,0,1,.39-1.37c.19-.36.81-.29,1.13-.5l.13-.08a2.12,2.12,0,0,1,.42-.22.89.89,0,0,1,.4-.07,1.68,1.68,0,0,1,1,.33,2.1,2.1,0,0,1,.63.91C64.46,91.84,64.87,92.18,64.86,92.62Z"/><path class="cls-6" d="M64.12,91.72A.85.85,0,0,1,64,92.78c-.27.17-.64,0-.83-.45a.85.85,0,0,1,.13-1.06C63.56,91.1,63.93,91.3,64.12,91.72Z"/><path class="cls-6" d="M63.52,93.88a4.42,4.42,0,0,0,.83-.43,1.06,1.06,0,0,0-.16.23,1.73,1.73,0,0,1-.75.67c-.31.2-.53.79-.9.78a2.11,2.11,0,0,1-1.07-.41,2.62,2.62,0,0,1-.87-.88,3.59,3.59,0,0,1-.4-1.35,3.63,3.63,0,0,1,.39-1.37c.19-.36.81-.29,1.13-.5l.13-.08a1.36,1.36,0,0,0-.57,1.18c0,1.09.1,1.45.52,1.87s.41.88.77.85S63.14,94.05,63.52,93.88Z"/><polygon class="cls-20" points="90.72 94.68 90.48 95.3 88.4 100.71 59.15 99.94 57.15 93.78 90.72 94.68"/><polygon class="cls-6" points="90.48 95.3 66.03 94.65 88.4 100.71 59.15 99.94 57.15 93.78 90.72 94.68 90.48 95.3"/><polygon class="cls-21" points="80.05 54.79 64.74 62.43 64.35 62.63 63.34 50.25 74.88 44.41 75.4 44.14 80.05 54.79"/><polygon class="cls-22" points="64.33 50.63 65.21 61.54 79.06 54.63 74.96 45.24 64.33 50.63"/><polygon class="cls-6" points="80.05 54.79 64.74 62.43 65.25 61.52 74.19 45.63 74.88 44.41 75.4 44.14 80.05 54.79"/><path class="cls-13" d="M98.35,60.88a5.69,5.69,0,0,0,.9,1.11c2,2,2.86,2,3.22,1.59a2,2,0,0,0,.22-1.22c2.13,0,9.37-3.84,5.77-6.11A4.63,4.63,0,0,0,108,56c-3.4-1.73-6.08,1.57-6.08,1.57a8.6,8.6,0,0,0-2.74.72C98.25,58.79,97.59,59.58,98.35,60.88Z"/><path class="cls-6" d="M98.35,60.88a5.69,5.69,0,0,0,.9,1.11c2,2,2.86,2,3.22,1.59a.71.71,0,0,1-.49-.76c.12-.83.28-1.66,2.3-2.33s3.28-2.34,2.11-2.68c-1-.29.51-1.39,1.64-1.8-3.4-1.73-6.08,1.57-6.08,1.57a8.6,8.6,0,0,0-2.74.72l-.06.18C98.91,59.35,98.62,60.15,98.35,60.88Z"/><path class="cls-23" d="M100.65,61.43a5.55,5.55,0,0,1,1-1.84,6.45,6.45,0,0,1,1.55-1.44,4.93,4.93,0,0,1,2-.74,3.68,3.68,0,0,1,2.08.34,8,8,0,0,0-2,.3,7.58,7.58,0,0,0-1.7.81A19.16,19.16,0,0,0,100.65,61.43Z"/><path class="cls-24" d="M109.94,46.06,111.23,45h-1.34l.91-2.24-1.58,2.46a19.74,19.74,0,0,0,1-7.32c-.67-8.22-8.48-9.94-11.45-10.3-6.44-2.95-14.21-3.39-18-.4-2.36,1.85-4.44,3.56-6.15,5-3.23,2.77-5.14,4.61-5.14,4.61a14.06,14.06,0,0,0,3.27,1.56,8,8,0,0,0-1.25,1.19,6.9,6.9,0,0,0-1.21,6.68A15.11,15.11,0,0,0,73,51.35S87.2,70,100.91,61.71a25.59,25.59,0,0,0,7.71-6.62l.35-.52a12.34,12.34,0,0,0,.85-1.51,11.11,11.11,0,0,0,.56-1.49A7.11,7.11,0,0,0,109.94,46.06ZM99.88,28.14c10.27,3.43,9,10.63,9,10.63C108.11,34.16,104.43,30.51,99.88,28.14Z"/><path class="cls-25" d="M109.82,53.06A15.15,15.15,0,0,1,101.66,47c0,.17.73,5.21,7.31,7.58l-.35.52c-1.54,0-4.19-.49-7.17-3.14a9.44,9.44,0,0,0,1.68,2.85,4.92,4.92,0,0,1-5.71-2.87c-1.87-3.93,4.44-6.75,4.44-6.75a14.07,14.07,0,0,0,8.52,6.39A11.11,11.11,0,0,1,109.82,53.06Z"/><path class="cls-13" d="M100.91,61.71a12,12,0,0,1-7.43,7.61c-7.23,2.52-16.81-1.44-20.44-5-2-2-2.62-3.83-2.61-5.31a5.78,5.78,0,0,1,1.49-3.73A.84.84,0,0,1,72,55.1l1.22-7.34,1.08-6.57.27-1.63.13-.77c5.31,1.26,9.05.05,16.6.43a17.5,17.5,0,0,1,11.86,5.56c-9.29,6-2.71,14.6-2.71,14.6l-.66,1.93Z"/><path class="cls-24" d="M87.54,46.11a31.24,31.24,0,0,0,4.58,2.74l.74.36a5.92,5.92,0,0,0,1.43.44,2.06,2.06,0,0,0,.26,0,4.49,4.49,0,0,0,1.1,0l.35,0a4.59,4.59,0,0,0-1.18-4c-.11-.11-.22-.22-.35-.33a6,6,0,0,0-1-.7,4.52,4.52,0,0,0-1.34-.48C89.43,43.69,87.54,46.11,87.54,46.11Z"/><path class="cls-25" d="M94.55,49.68a4.49,4.49,0,0,0,1.1,0,8,8,0,0,0,.42-1.11,4.42,4.42,0,0,0-1.25-2.91A6.76,6.76,0,0,1,94.55,49.68Z"/><path class="cls-25" d="M92.1,44.17a16.84,16.84,0,0,1,0,4.68l.74.36a5.92,5.92,0,0,0,1.43.44,8.32,8.32,0,0,0,.18-4.3,6,6,0,0,0-1-.7A4.52,4.52,0,0,0,92.1,44.17Z"/><path class="cls-26" d="M82.24,60a8.23,8.23,0,0,0,2.07,4.58c2,2.21,6.56,2.37,7.82.24a8.4,8.4,0,0,0,.81-1.93,15.47,15.47,0,0,0,.54-3.36L89.22,60l-4.1,0Z"/><path class="cls-11" d="M84.88,60.93l1.62.6.31.11h0A18.94,18.94,0,0,0,92.47,63a3.38,3.38,0,0,0,.47,0,15.47,15.47,0,0,0,.54-3.36L89.22,60l-4.1,0a.81.81,0,0,0-.33.37A.52.52,0,0,0,84.88,60.93Z"/><path class="cls-27" d="M84.79,60.38l1.71,1.15.13.09.18,0h0c.82.09,4.13.42,5.62-.4a11.54,11.54,0,0,1,0,1.72,3.38,3.38,0,0,0,.47,0,15.47,15.47,0,0,0,.54-3.36L89.22,60l-4.1,0A.81.81,0,0,0,84.79,60.38Z"/><path class="cls-6" d="M94.42,53.26a3.5,3.5,0,0,1-.67,1.43l0,0a4.36,4.36,0,0,0-5.44-1.13,3.33,3.33,0,0,1,0-1.54,3.15,3.15,0,1,1,6.17,1.26Z"/><path class="cls-6" d="M100.91,61.71a12,12,0,0,1-7.43,7.61,23.47,23.47,0,0,1-20.89-6.47c1.48,1.12,16.55,11,21.76-.24S96.27,39.76,88,40.41a45.16,45.16,0,0,1-13.37-.85l.13-.77c5.31,1.26,9.05.05,16.6.43a17.5,17.5,0,0,1,11.86,5.56c-9.29,6-2.71,14.6-2.71,14.6l-.66,1.93Z"/><path class="cls-28" d="M76.65,58.37a1.72,1.72,0,0,1-.61,1,4.18,4.18,0,0,1-3.45.6,5,5,0,0,1-2.16-1,5.78,5.78,0,0,1,1.49-3.73,5.24,5.24,0,0,1,1.61.09,5.3,5.3,0,0,1,1.39.48C76.12,56.42,76.84,57.41,76.65,58.37Z"/><path class="cls-24" d="M90.36,61.63c-8.86.59-17.48-3.56-17.48-3.56a6.47,6.47,0,0,1,4.71-3.33C83.11,58.08,86.85,57,86.85,57a5.12,5.12,0,0,1,.57.3,6.87,6.87,0,0,1,2.83,3.89A4.43,4.43,0,0,1,90.36,61.63Z"/><path class="cls-25" d="M90.07,61.21,89.22,60l.36,1.38a12.07,12.07,0,0,1-2.88-.21L86.09,60l-.24,1.06-.66-.91-.11.92c-5.28-.55-7.59-1.81-7.59-1.81l.63-1.07.08,1.18.62-.94-.06,1.31.43-1.28c5.5,1,7.55-.42,8.23-1.2a6.87,6.87,0,0,1,2.83,3.89Z"/><path class="cls-28" d="M87.6,56.06c-.29,1.3-2.84,1.81-5.67,1.15S77,55,77.33,53.69s2.84-1.81,5.68-1.15S87.9,54.77,87.6,56.06Z"/><path class="cls-23" d="M87.62,56a1.22,1.22,0,0,1-.29.76,2.12,2.12,0,0,1-.66.53,4.65,4.65,0,0,1-1.58.51,8.94,8.94,0,0,1-3.26-.17,12.26,12.26,0,0,1-1.56-.49,8.75,8.75,0,0,1-1.44-.79,4.68,4.68,0,0,1-1.2-1.15,2.19,2.19,0,0,1-.35-.76,1.27,1.27,0,0,1,.07-.82,1.61,1.61,0,0,0,.6,1.32,5.55,5.55,0,0,0,1.22.85,11.54,11.54,0,0,0,2.85,1,11.78,11.78,0,0,0,3,.33,5.64,5.64,0,0,0,1.48-.22A1.63,1.63,0,0,0,87.62,56Z"/><path class="cls-28" d="M73.26,47.76l1.08-6.57c3.55.1,8.77.52,10.46,2.14C87,45.4,77.62,46.82,73.26,47.76Z"/><path class="cls-24" d="M81.27,45.62a25.48,25.48,0,0,1-4.26.59l-.66,0a4.35,4.35,0,0,1-1.19-.13l-.21,0a4.14,4.14,0,0,1-.82-.33l-.24-.14a2.94,2.94,0,0,1,.28-.82A3.59,3.59,0,0,1,76,43l.36-.13a4.48,4.48,0,0,1,1-.19,3.57,3.57,0,0,1,1.15.07A4.16,4.16,0,0,1,81.27,45.62Z"/><path class="cls-25" d="M75,46.06a4.14,4.14,0,0,1-.82-.33,6.27,6.27,0,0,1,0-1A3.59,3.59,0,0,1,76,43,5.48,5.48,0,0,0,75,46.06Z"/><path class="cls-25" d="M78.51,42.75A13.11,13.11,0,0,0,77,46.21l-.66,0a4.35,4.35,0,0,1-1.19-.13,6.57,6.57,0,0,1,1.22-3.24,4.48,4.48,0,0,1,1-.19A3.57,3.57,0,0,1,78.51,42.75Z"/><path class="cls-29" d="M84.8,41.56s-3,4.23-1,4.65C83.85,46.21,85.62,46.9,84.8,41.56Z"/><path class="cls-6" d="M79.65,50.16a2.64,2.64,0,0,1-.5,1.07c-2-2.64-4.29-1-4.43-.9a2.47,2.47,0,0,1,0-1.18,2.53,2.53,0,0,1,5,1Z"/><path class="cls-25" d="M108.22,45.26a14.12,14.12,0,0,0,2-7.38c-.67-8.22-8.48-9.94-11.45-10.3-6.44-2.95-14.21-3.39-18-.4-2.36,1.85-4.44,3.56-6.15,5,7.73,1.49,16.82-.31,22.52.86,6.41,1.3,7.74,6.43,7.78,6.59-3.53-5.24-7.77-5.06-15.59-4.72s-16.76.29-16.76.29a81,81,0,0,0,19.69,1.6c9.57-.63,12.31,8.09,12.31,8.09a10,10,0,0,0-.49-4.1c1.54,1.16,2.57,4.6,2.57,4.6C107.8,31.57,94.41,28.48,93,28.19,110.49,31.42,108.22,45.26,108.22,45.26Zm.7-6.49c-.81-4.61-4.49-8.26-9-10.63C110.15,31.57,108.92,38.77,108.92,38.77Z"/><path class="cls-25" d="M70.22,46.24a6.9,6.9,0,0,1,1.21-6.68C72.7,41.4,74.92,45.46,70.22,46.24Z"/><path class="cls-26" d="M79.23,51.33a6,6,0,0,1-.56-.36l-.53-.32a4.23,4.23,0,0,0-1-.43,4.58,4.58,0,0,0-2.36.11h0a2.2,2.2,0,0,1,1.11-.83,2.43,2.43,0,0,1,1.46-.07,2.7,2.7,0,0,1,1.25.72A2.82,2.82,0,0,1,79.23,51.33Z"/><path class="cls-26" d="M88.25,53.56h0l0,0h0a2.82,2.82,0,0,1,1.38-.79,3.37,3.37,0,0,1,1.64,0,3.42,3.42,0,0,1,1.47.71,3.56,3.56,0,0,1,1,1.22h0l0,0h0l0,.12-.11-.06h0c-.47-.24-.88-.49-1.31-.67a6.52,6.52,0,0,0-1.28-.45,7.27,7.27,0,0,0-2.8,0h0Z"/></g></g></svg>