<svg xmlns="http://www.w3.org/2000/svg" viewBox="0 0 150 160"><defs><style>.cls-1{isolation:isolate;}.cls-2,.cls-3,.cls-4{stroke:#fff;stroke-miterlimit:10;stroke-width:5px;}.cls-3,.cls-7,.cls-8{mix-blend-mode:multiply;}.cls-11,.cls-4{opacity:0.26;}.cls-5{fill:#adc93a;}.cls-6{fill:#e4f487;}.cls-7{fill:#dee2c0;}.cls-8{fill:#d1d3b4;}.cls-9{fill:#f1f4d7;}.cls-10{fill:#dbddb3;}.cls-11{fill:#6e7239;}.cls-12{fill:#fffff8;}</style></defs><g class="cls-1"><g id="Layer_2" data-name="Layer 2"><path class="cls-2" d="M54.81,112.11c3.08.28,6,2.31,9,1.72,1-.2,1.93-.67,2.93-.88a11.6,11.6,0,0,1,5.6.68c.51-.86-.25-1.9-1-2.6l-4.29-4.31c-1.32-1.32-2.72-2.69-4.53-3.15a1.55,1.55,0,0,0-.93,0,2.14,2.14,0,0,0-.92.94c-1.67,2.46-4.76,3.44-7.61,4.26a36.25,36.25,0,0,1-9,1.9C45.89,114.32,51.85,111.85,54.81,112.11Z"/><path class="cls-2" d="M84,125.47a28.08,28.08,0,0,0,6,.69,15.18,15.18,0,0,0,4.94-.51,29.7,29.7,0,0,0,4.73-2.34c3.89-2,8.38-2.86,12-5.32s5.88-6.08,7.93-9.79c2.84-5.1,5.31-10.83,4.48-16.61a6.36,6.36,0,0,1-4.77,1.57,26.34,26.34,0,0,1-3.77-1,16,16,0,0,0-9.43,1,72.66,72.66,0,0,0-8.56,4.38,95.68,95.68,0,0,1-13.62,6.14c-4.17,1.51-12.66,5.23-12.25,10.89C72,119.92,79.44,124.35,84,125.47Z"/><path class="cls-3" d="M54.81,112.11c3.08.28,6,2.31,9,1.72,1-.2,1.93-.67,2.93-.88a11.6,11.6,0,0,1,5.6.68c.51-.86-.25-1.9-1-2.6l-4.29-4.31c-1.32-1.32-2.72-2.69-4.53-3.15a1.55,1.55,0,0,0-.93,0,2.14,2.14,0,0,0-.92.94c-1.67,2.46-4.76,3.44-7.61,4.26a36.25,36.25,0,0,1-9,1.9C45.89,114.32,51.85,111.85,54.81,112.11Z"/><path class="cls-2" d="M76.29,119.21a8.7,8.7,0,0,1,3-.3c1.13.22,2,1.09,3,1.6,2.11,1,4.61.5,6.89-.07,4.27-1.06,9-2.42,11.29-6.15a20.65,20.65,0,0,1,1.84-3,28.69,28.69,0,0,1,2.86-2.26,7.08,7.08,0,0,0,1.06-9.13,37.1,37.1,0,0,0,11-10.4,13.23,13.23,0,0,0,2.52-5.65c.37-2.81-.77-5.58-1.89-8.19q-1.39-3.28-2.8-6.55a11.38,11.38,0,0,0-10-15.67c-.35-5.4-6.1-9.78-11.4-8.69C92.82,40,87.16,38,82.43,37c-2.39-.51-5.1-1-7.09.46a5.73,5.73,0,0,0-6.07-.56c-.86.45-1.59,1.11-2.47,1.5a10.82,10.82,0,0,1-4.14.5,24.42,24.42,0,0,0-16.34,6.73A11.46,11.46,0,0,0,35.74,47a20.33,20.33,0,0,0-6.89,8.54c-2.52,5.35-3.43,12.16.2,16.83-1.88,1.21-2.42,3.72-2.39,6s.46,4.53-.15,6.68c-.39,1.36-1.16,2.89-.39,4.08a3.47,3.47,0,0,0,2,1.22,22.27,22.27,0,0,0,7.56.92c2.42,4.73,8.24,6.49,13.5,7.26,3,.45,8.75.26,10.89,2.82,1.65,2,.88,5,2.72,7.1,1.05,1.19,2.66,1.44,3.64,2.69s1,3.3,2,4.71A8.42,8.42,0,0,0,76.29,119.21Z"/><path class="cls-2" d="M117.28,89.46a13.23,13.23,0,0,0,2.52-5.65c.37-2.81-.77-5.58-1.89-8.19L116,71.12l.11,9.08a4.21,4.21,0,0,1-.36,2.17,1.46,1.46,0,0,1-1.88.68c.56.92-.33,2-1.14,2.73a13.37,13.37,0,0,1-4.68,3c-1.06.31-2.56.88-2.2,1.93A2.23,2.23,0,0,0,103.48,93l-2.07-.2a6.36,6.36,0,0,0-.14-2.75,2.24,2.24,0,0,0-2-1.62,5.48,5.48,0,0,1-1.39.11A2,2,0,0,1,97,88l-.89-.76A22.6,22.6,0,0,0,91,83.6a7.65,7.65,0,0,0-6.12-.33c-.47.2,4.9,1.7,5,1.8,1.53,1,1.76,3.81.92,5.28a2.29,2.29,0,0,1,1.85,2.32,5,5,0,0,0-.06.86c.14,1.2,1.78,1.39,2.75,2.11a4.55,4.55,0,0,1,.92,1l.79,1a14,14,0,0,1,2.79,4.88,2.42,2.42,0,0,1-.58,2.59c-.45.32-1.09.38-1.43.81a3,3,0,0,0-.39,1.42c-.29,1.31-1.57,2.13-2.74,2.81a18.22,18.22,0,0,1-4.88,2.22,13,13,0,0,1-6-.17,2.39,2.39,0,0,0-1-.09,3.37,3.37,0,0,0-1,.52c-1.61,1-3.69.7-5.56.34a9.59,9.59,0,0,1-4.2-1.53,3.29,3.29,0,0,1-1.14-4,4.42,4.42,0,0,1-1.46-5.66c-1.17-.84-1.23-2.58-.84-4s1.12-2.71,1.11-4.16a1.84,1.84,0,0,0-.29-1.1A2.11,2.11,0,0,0,67.67,92c-2.58.16-4.86,1.68-6.88,3.29a7.7,7.7,0,0,0-2.15,2.33,6.11,6.11,0,0,0-.59,2.31,5.09,5.09,0,0,1,2,1.4c1.65,2,.88,5,2.72,7.1,1.05,1.19,2.66,1.44,3.64,2.69s1,3.3,2,4.71a8.42,8.42,0,0,0,7.86,3.43,8.7,8.7,0,0,1,3-.3c1.13.22,2,1.09,3,1.6,2.11,1,4.61.5,6.89-.07,4.27-1.06,9-2.42,11.29-6.15a20.65,20.65,0,0,1,1.84-3,28.69,28.69,0,0,1,2.86-2.26,7.08,7.08,0,0,0,1.06-9.13A37.1,37.1,0,0,0,117.28,89.46Z"/><path class="cls-2" d="M60.61,51l-.82.47A1.22,1.22,0,0,0,60.61,51Z"/><path class="cls-2" d="M91.93,47.66c.32-.88-.61-1.67-1.34-2.27a8.73,8.73,0,0,1-2.83-4.49,3.85,3.85,0,0,0-.66-1.66c-.59-.64-1.61-.7-2.25-1.29a2.17,2.17,0,0,1-.36-.44c-.69-.19-1.39-.35-2.06-.5-2.39-.51-5.1-1-7.09.46a5.73,5.73,0,0,0-6.07-.56c-.86.45-1.59,1.11-2.47,1.5a10.82,10.82,0,0,1-4.14.5,24.46,24.46,0,0,0-14.95,5.51,2.8,2.8,0,0,0,.57.66c2.09,1.85,5.68-.21,8.11.6a3.4,3.4,0,0,0,1.26.32c.94-.06,1.52-1.13,2.44-1.3,1.27-.22,2.33,1.38,3.6,1.16.33.85-.9,1.36-1.54,2-.79.81-.89,2.33-1.54,3.1l2.62-1.48a8,8,0,0,0,2.41-1.81,2.72,2.72,0,0,0,.5-2.83c2.29,1.23,4.71-1.68,7.3-1.83.78,0,1.56.17,2.34.14,1.55-.06,3-1.06,4.51-1,3.06.13,4.71,4.19,7.75,4.58C89.43,46.92,91.24,46.45,91.93,47.66Z"/><path class="cls-2" d="M52,39.19a44,44,0,0,1,7.25-2l10.08-2a53.91,53.91,0,0,1,9.44-1.32,27.21,27.21,0,0,1,9,1.33c-1.3,2.39-4,3.59-6.62,4.38a45.11,45.11,0,0,1-12.58,2,30.55,30.55,0,0,0-6.35.38c-4.52,1-6.1,2.44-9.41,3.42a19.57,19.57,0,0,1-11.41-.36A41.74,41.74,0,0,1,52,39.19Z"/><path class="cls-2" d="M80.26,74.31c3.62-9.33,4.53-20.26-.18-29.09a2.23,2.23,0,0,0-1-1.15,2.38,2.38,0,0,0-2,.5C64.56,52.26,52,60,41.42,70.16c-4.44,4.26-8.64,9.15-10.25,15.1s0,13.14,5.22,16.45a5.6,5.6,0,0,1,2.15,1.78,7.41,7.41,0,0,1,.44,2.83c1.16,10.71,16.66,6,21,.78C67.93,97.69,75.82,85.78,80.26,74.31Z"/><path class="cls-2" d="M74.93,73.7a3.4,3.4,0,0,0,.92-.64A8.09,8.09,0,0,1,74.93,73.7Z"/><path class="cls-4" d="M71.84,89.52c-7.18,8-8.25,10.67-12.44,13.83-1.28,1-7.19,5.43-9.63,3.7-2.22-1.56-.59-7.48.75-12.35a59.39,59.39,0,0,1,5.31-13c-1.06,1.6-2.45,3.76-4,6.37-.87,1.47-2.44,4.13-3.87,7a75.24,75.24,0,0,0-4.9,12.73,9.84,9.84,0,0,1-2.45-4.91,10,10,0,0,1,1.13-6.6,115.87,115.87,0,0,1,7.32-13,114,114,0,0,1,8-10.81A77.9,77.9,0,0,0,40.43,91.68C39.1,93.87,38,96,36.94,98.09A17.74,17.74,0,0,1,34.33,78.4a24.16,24.16,0,0,0-3.16,6.86c-1.61,5.94,0,13.14,5.22,16.45a5.6,5.6,0,0,1,2.15,1.78,7.41,7.41,0,0,1,.44,2.83c1.16,10.71,16.66,6,21,.78A139.61,139.61,0,0,0,74,87.19C73.28,88,72.54,88.74,71.84,89.52Z"/><path class="cls-2" d="M81.65,87.16a1,1,0,0,0-.17-.44l0,0C78.56,83.73,79.44,91.13,81.65,87.16Z"/><path class="cls-2" d="M86.81,87.43c-.55-1.76-4.64-2.5-3.58.69C84,89.34,87.56,90.25,86.81,87.43Z"/><path class="cls-2" d="M89.58,90.85c.4-1.62-2.39-3.47-2.65-.33C87.18,91.67,89,92.9,89.58,90.85Z"/><path class="cls-2" d="M85.32,91.22h0c-.34-1.07-3.07-1-2.3,1h0C83.48,93.93,88,93.49,85.32,91.22Z"/><path class="cls-2" d="M92.09,97.05c0-1.94-4.92-2.46-2.15.66C90.25,98.59,92.31,98.75,92.09,97.05Z"/><path class="cls-2" d="M103.22,76c-.1-1.38-3.71-1.68-2.29,1C101.5,77.72,103.38,78.27,103.22,76Z"/><path class="cls-2" d="M105,70.6c-2,.65-1.31,5.53,1.58,4C108,73.36,107.48,69.9,105,70.6Z"/><path class="cls-2" d="M103.39,73c-1.19-6.73-4.65,3.7,0,.08h0S103.39,73,103.39,73Z"/><path class="cls-2" d="M104.91,68.77c-.78-2.45-4.27,1.54-.5,1.23A1.06,1.06,0,0,0,104.91,68.77Z"/><path class="cls-2" d="M110.79,68.65c.14.22.07,0-.28-.3C106.75,65.32,110.57,73.3,110.79,68.65Z"/><path class="cls-2" d="M87.75,55.4c-.85-1.34-3.86,1.1-1.54,2.07C87,58.21,89.06,57.24,87.75,55.4Z"/><path class="cls-2" d="M90,52.31c-.52-2.59-3.8-2.54-3.09,1.09C87.6,55.3,90.32,54.59,90,52.31Z"/><path class="cls-2" d="M92.31,54.53c-.44-3.28-4.44,1.6-.45,1.37C92.05,55.62,92.59,55.54,92.31,54.53Z"/><path class="cls-2" d="M93,50.13c-.21-1.77-4,.17-1,1.35C92,51.38,93.05,51.66,93,50.13Z"/><path class="cls-2" d="M96.6,50.89c-.74-1.72-3.42,1.54-.55,1.66C96.46,52.33,97.1,52,96.6,50.89Z"/><path class="cls-2" d="M44,48.74c-1.68-1.13-5.88.43-2.83,1.92C42.13,50.93,45.6,50.7,44,48.74Z"/><path class="cls-2" d="M47.83,48.89c-.44-2.19-4.7.68-1.1,1.38C47.12,50,48,50.08,47.83,48.89Z"/><path class="cls-2" d="M44.88,51.35c-.81-1.15-3.72-.07-1.19,1.77C44.41,53.17,45.52,52.81,44.88,51.35Z"/><path class="cls-2" d="M52.06,49.24c-.79-2.65-4.76,1.4-.71,1.46C51.35,50.49,52.1,50.88,52.06,49.24Z"/><path class="cls-2" d="M37.93,68.55h0C37.8,68.64,38,68.51,37.93,68.55Z"/><path class="cls-2" d="M36,69.17c.22-.17.13-.78-.46-.85C33.44,68,33.92,72.31,36,69.17Z"/><path class="cls-5" d="M54.81,112.11c3.08.28,6,2.31,9,1.72,1-.2,1.93-.67,2.93-.88a11.6,11.6,0,0,1,5.6.68c.51-.86-.25-1.9-1-2.6l-4.29-4.31c-1.32-1.32-2.72-2.69-4.53-3.15a1.55,1.55,0,0,0-.93,0,2.14,2.14,0,0,0-.92.94c-1.67,2.46-4.76,3.44-7.61,4.26a36.25,36.25,0,0,1-9,1.9C45.89,114.32,51.85,111.85,54.81,112.11Z"/><path class="cls-5" d="M84,125.47a28.08,28.08,0,0,0,6,.69,15.18,15.18,0,0,0,4.94-.51,29.7,29.7,0,0,0,4.73-2.34c3.89-2,8.38-2.86,12-5.32s5.88-6.08,7.93-9.79c2.84-5.1,5.31-10.83,4.48-16.61a6.36,6.36,0,0,1-4.77,1.57,26.34,26.34,0,0,1-3.77-1,16,16,0,0,0-9.43,1,72.66,72.66,0,0,0-8.56,4.38,95.68,95.68,0,0,1-13.62,6.14c-4.17,1.51-12.66,5.23-12.25,10.89C72,119.92,79.44,124.35,84,125.47Z"/><path class="cls-6" d="M116.55,99c-2.17-1.68-3.65-7-7.39-5.38a.63.63,0,0,0-.41.48,4.51,4.51,0,0,0-2.7,1.77,1.05,1.05,0,0,0-.81,1.54,6.32,6.32,0,0,0-.18.62,28.13,28.13,0,0,0-.46,4.49c0,.82-.23,1.87-.23,2.85a.73.73,0,0,0-.34.19.94.94,0,0,0-.2.35.78.78,0,0,0,.2.78c1.88,1.83,4,3.4,4.23,6.25,0,.06.1.06.1,0,0-2.56-.55-5.72-2.87-7.22,0-.54,0-1.09,0-1.6a20.26,20.26,0,0,1,.19-4.12,7.15,7.15,0,0,1,.72-1.87,10,10,0,0,1,1.49.48,9.44,9.44,0,0,1,2.28,1.62c3,2.85,5,6.85,4.25,11,0,.1.11.17.16.07,1.6-2.81.15-6.37-1.07-9.08a13.39,13.39,0,0,0-2.94-4.5A9,9,0,0,0,108,96.12a5.81,5.81,0,0,1,1.49-.93c1.31.44,2.67.25,3.62,1.51a13.35,13.35,0,0,0,2.18,2.83,25.05,25.05,0,0,1,2.86,2.14c1.11,1.17,1.21,2.64,1.36,4.16a.16.16,0,0,0,.29.08C121.48,103,118.58,100.57,116.55,99Z"/><path class="cls-7" d="M84,125.47a28.08,28.08,0,0,0,6,.69,15.18,15.18,0,0,0,4.94-.51,29.7,29.7,0,0,0,4.73-2.34c3.89-2,8.38-2.86,12-5.32s5.88-6.08,7.93-9.79c2.84-5.1,5.31-10.83,4.48-16.61a6.36,6.36,0,0,1-4.77,1.57,26.34,26.34,0,0,1-3.77-1,16,16,0,0,0-9.43,1,72.66,72.66,0,0,0-8.56,4.38,95.68,95.68,0,0,1-13.62,6.14c-4.17,1.51-12.66,5.23-12.25,10.89C72,119.92,79.44,124.35,84,125.47Z"/><path class="cls-8" d="M54.81,112.11c3.08.28,6,2.31,9,1.72,1-.2,1.93-.67,2.93-.88a11.6,11.6,0,0,1,5.6.68c.51-.86-.25-1.9-1-2.6l-4.29-4.31c-1.32-1.32-2.72-2.69-4.53-3.15a1.55,1.55,0,0,0-.93,0,2.14,2.14,0,0,0-.92.94c-1.67,2.46-4.76,3.44-7.61,4.26a36.25,36.25,0,0,1-9,1.9C45.89,114.32,51.85,111.85,54.81,112.11Z"/><path class="cls-9" d="M76.29,119.21a8.7,8.7,0,0,1,3-.3c1.13.22,2,1.09,3,1.6,2.11,1,4.61.5,6.89-.07,4.27-1.06,9-2.42,11.29-6.15a20.65,20.65,0,0,1,1.84-3,28.69,28.69,0,0,1,2.86-2.26,7.08,7.08,0,0,0,1.06-9.13,37.1,37.1,0,0,0,11-10.4,13.23,13.23,0,0,0,2.52-5.65c.37-2.81-.77-5.58-1.89-8.19q-1.39-3.28-2.8-6.55a11.38,11.38,0,0,0-10-15.67c-.35-5.4-6.1-9.78-11.4-8.69C92.82,40,87.16,38,82.43,37c-2.39-.51-5.1-1-7.09.46a5.73,5.73,0,0,0-6.07-.56c-.86.45-1.59,1.11-2.47,1.5a10.82,10.82,0,0,1-4.14.5,24.42,24.42,0,0,0-16.34,6.73A11.46,11.46,0,0,0,35.74,47a20.33,20.33,0,0,0-6.89,8.54c-2.52,5.35-3.43,12.16.2,16.83-1.88,1.21-2.42,3.72-2.39,6s.46,4.53-.15,6.68c-.39,1.36-1.16,2.89-.39,4.08a3.47,3.47,0,0,0,2,1.22,22.27,22.27,0,0,0,7.56.92c2.42,4.73,8.24,6.49,13.5,7.26,3,.45,8.75.26,10.89,2.82,1.65,2,.88,5,2.72,7.1,1.05,1.19,2.66,1.44,3.64,2.69s1,3.3,2,4.71A8.42,8.42,0,0,0,76.29,119.21Z"/><path class="cls-10" d="M117.28,89.46a13.23,13.23,0,0,0,2.52-5.65c.37-2.81-.77-5.58-1.89-8.19L116,71.12l.11,9.08a4.21,4.21,0,0,1-.36,2.17,1.46,1.46,0,0,1-1.88.68c.56.92-.33,2-1.14,2.73a13.37,13.37,0,0,1-4.68,3c-1.06.31-2.56.88-2.2,1.93A2.23,2.23,0,0,0,103.48,93l-2.07-.2a6.36,6.36,0,0,0-.14-2.75,2.24,2.24,0,0,0-2-1.62,5.48,5.48,0,0,1-1.39.11A2,2,0,0,1,97,88l-.89-.76A22.6,22.6,0,0,0,91,83.6a7.65,7.65,0,0,0-6.12-.33c-.47.2,4.9,1.7,5,1.8,1.53,1,1.76,3.81.92,5.28a2.29,2.29,0,0,1,1.85,2.32,5,5,0,0,0-.06.86c.14,1.2,1.78,1.39,2.75,2.11a4.55,4.55,0,0,1,.92,1l.79,1a14,14,0,0,1,2.79,4.88,2.42,2.42,0,0,1-.58,2.59c-.45.32-1.09.38-1.43.81a3,3,0,0,0-.39,1.42c-.29,1.31-1.57,2.13-2.74,2.81a18.22,18.22,0,0,1-4.88,2.22,13,13,0,0,1-6-.17,2.39,2.39,0,0,0-1-.09,3.37,3.37,0,0,0-1,.52c-1.61,1-3.69.7-5.56.34a9.59,9.59,0,0,1-4.2-1.53,3.29,3.29,0,0,1-1.14-4,4.42,4.42,0,0,1-1.46-5.66c-1.17-.84-1.23-2.58-.84-4s1.12-2.71,1.11-4.16a1.84,1.84,0,0,0-.29-1.1A2.11,2.11,0,0,0,67.67,92c-2.58.16-4.86,1.68-6.88,3.29a7.7,7.7,0,0,0-2.15,2.33,6.11,6.11,0,0,0-.59,2.31,5.09,5.09,0,0,1,2,1.4c1.65,2,.88,5,2.72,7.1,1.05,1.19,2.66,1.44,3.64,2.69s1,3.3,2,4.71a8.42,8.42,0,0,0,7.86,3.43,8.7,8.7,0,0,1,3-.3c1.13.22,2,1.09,3,1.6,2.11,1,4.61.5,6.89-.07,4.27-1.06,9-2.42,11.29-6.15a20.65,20.65,0,0,1,1.84-3,28.69,28.69,0,0,1,2.86-2.26,7.08,7.08,0,0,0,1.06-9.13A37.1,37.1,0,0,0,117.28,89.46Z"/><path class="cls-10" d="M115.86,63.55a1.92,1.92,0,0,1-.54.56,1.65,1.65,0,0,1-2.44-.64,2.16,2.16,0,0,0-1.11-2.06,2.53,2.53,0,0,1-1,2.23c-3.55-.26-5.77-4.13-6.11-7.67-.57.53-.29,1.47-.5,2.22-.47,1.63-2.76,1.6-4.41,1.22.17-1.1-1.77-1.63-2.19-.61-.14.33-.11.71-.24,1.05a1.63,1.63,0,0,1-2.15.64,4.74,4.74,0,0,1-1.75-1.75L92,59.11a2.42,2.42,0,0,1-1.79,3.39,8.5,8.5,0,0,0-1.6.09,2.08,2.08,0,0,0-1.26,2.15,6.64,6.64,0,0,0,.9,2.52,2.4,2.4,0,0,1,.3,2.21,3.17,3.17,0,0,1-.64.68A4.52,4.52,0,0,0,86.56,74a6.42,6.42,0,0,1,7.07-1.44c.66.29,1.41.69,2,.35s.7-1.15.9-1.82.9-1.39,1.49-1c.2-1.93,1.13-4.06,3-4.58a6.31,6.31,0,0,1,2.45,0l1.61.23,6.31.88a6.79,6.79,0,0,1,1.34.28,9.76,9.76,0,0,1,2.44,1.92A11.38,11.38,0,0,0,115.86,63.55Z"/><path class="cls-10" d="M32.68,68.72c.48-.31,1-.6,1.24-1.14.13-.35.06-.75.17-1.11a2.2,2.2,0,0,1,.8-1,8.69,8.69,0,0,1,8.34-1.28c0-.53-.07-1.07-.11-1.6L45,63l-3-1.92a3.5,3.5,0,0,0-1.6-.66,4.17,4.17,0,0,0-1.88.61,8.5,8.5,0,0,1-4.47.75,2.5,2.5,0,0,1-.63-3,12.17,12.17,0,0,1,1.84-2.7,11.86,11.86,0,0,0,2-4.3L34.4,51.7c-.61-1.67.78-3.35,2.05-4.59L37.63,46a13.28,13.28,0,0,0-1.89,1,20.33,20.33,0,0,0-6.89,8.54c-2.52,5.35-3.43,12.16.2,16.83-1.88,1.21-2.42,3.72-2.39,6s.46,4.53-.15,6.68c-.39,1.36-1.16,2.89-.39,4.08a3.47,3.47,0,0,0,2,1.22,22.23,22.23,0,0,0,7.06.93c1.27-1.84,2-4,.38-5.2-1.06-.76-2.83-.12-4-.71s-1.56-3.88-1.3-3.76a3.38,3.38,0,0,1-1.79-2.92,10.16,10.16,0,0,1,.58-3.52C29.77,72.7,30.61,70.11,32.68,68.72Z"/><path class="cls-10" d="M60.61,51l-.82.47A1.22,1.22,0,0,0,60.61,51Z"/><path class="cls-10" d="M91.93,47.66c.32-.88-.61-1.67-1.34-2.27a8.73,8.73,0,0,1-2.83-4.49,3.85,3.85,0,0,0-.66-1.66c-.59-.64-1.61-.7-2.25-1.29a2.17,2.17,0,0,1-.36-.44c-.69-.19-1.39-.35-2.06-.5-2.39-.51-5.1-1-7.09.46a5.73,5.73,0,0,0-6.07-.56c-.86.45-1.59,1.11-2.47,1.5a10.82,10.82,0,0,1-4.14.5,24.46,24.46,0,0,0-14.95,5.51,2.8,2.8,0,0,0,.57.66c2.09,1.85,5.68-.21,8.11.6a3.4,3.4,0,0,0,1.26.32c.94-.06,1.52-1.13,2.44-1.3,1.27-.22,2.33,1.38,3.6,1.16.33.85-.9,1.36-1.54,2-.79.81-.89,2.33-1.54,3.1l2.62-1.48a8,8,0,0,0,2.41-1.81,2.72,2.72,0,0,0,.5-2.83c2.29,1.23,4.71-1.68,7.3-1.83.78,0,1.56.17,2.34.14,1.55-.06,3-1.06,4.51-1,3.06.13,4.71,4.19,7.75,4.58C89.43,46.92,91.24,46.45,91.93,47.66Z"/><path class="cls-5" d="M52,39.19a44,44,0,0,1,7.25-2l10.08-2a53.91,53.91,0,0,1,9.44-1.32,27.21,27.21,0,0,1,9,1.33c-1.3,2.39-4,3.59-6.62,4.38a45.11,45.11,0,0,1-12.58,2,30.55,30.55,0,0,0-6.35.38c-4.52,1-6.1,2.44-9.41,3.42a19.57,19.57,0,0,1-11.41-.36A41.74,41.74,0,0,1,52,39.19Z"/><path class="cls-5" d="M80.26,74.31c3.62-9.33,4.53-20.26-.18-29.09a2.23,2.23,0,0,0-1-1.15,2.38,2.38,0,0,0-2,.5C64.56,52.26,52,60,41.42,70.16c-4.44,4.26-8.64,9.15-10.25,15.1s0,13.14,5.22,16.45a5.6,5.6,0,0,1,2.15,1.78,7.41,7.41,0,0,1,.44,2.83c1.16,10.71,16.66,6,21,.78C67.93,97.69,75.82,85.78,80.26,74.31Z"/><path class="cls-6" d="M74.93,73.7a3.4,3.4,0,0,0,.92-.64A8.09,8.09,0,0,1,74.93,73.7Z"/><path class="cls-6" d="M60.68,96.08c4.63-1.8-1,.06-2.5-1.89.76,0,5-1.65,3.92-2.81-3.84,2.37-8.56,3.56-13.32,4.38C57.65,77,72.23,88.4,73.85,84.84c-2.59,1-4.56.13-7.19-1.22,1.39-2,5.51-1.27,6.84-3-4.55,1.11-4,0-8.86,2.59-3.85.09-7.7.2-11.1,3C65.32,61.73,66.67,78.85,74.93,73.7c-1.72.83-3.79,0-5.72-.89,1.17-.28,4.17-1.16,4.92-2.25-4.25,2.77-6.45.57-11.26,1.11,1.1-1.27,2.21-2.54,3.31-3.83,3.48-.92,10.41-.19,11.2-5.11-2.56,4.14-6.06,3.25-10.17,3.88,3.58-4.44,8.76-10,9.07-15.94a29.48,29.48,0,0,1-9.46,11.87c-.45-3.11,2.66-8.37,1.35-10.79.13,2.73-1.82,5-2.49,7.83-2.5-3.21.76,2.38-.28,4.2-1.36,1.21-3.16,3-4.73,4.62a19.76,19.76,0,0,1-.57-8.3c-2,2.74-.25,6-.54,9.48-2.73,3-5.48,6.23-8.09,9.71,3.82-14.51,4.35-24.61,1.46-10.84-2.12.83-4.55-1.26-5.71-1.92a5,5,0,0,0,5.46,2.8C52,71.74,51.24,74.11,50.35,77c-4.75-5.22-4.58-4.3-1,.78,1.91,4.54-3,8-4.59,12.23.69-2.87-1.35-24.22-1.59-13.25C42,77,40.86,76,39.75,75.18c-.76,1.15,1.84,2.92,3.5,2.58.89,4.34-1.43,8.69-.8,13.41-5.57-2.45-3.08-3.72-5.21-6.65.87,1.19.33,3.58.9,5.15-.42.15-3.79-3.31-2.89-1.55C37.78,93.41,45,91,40.87,98.36c-2.14-2.52-7-4.26-8.34-7.36.84,5.16,7,4.92,7.27,9.56a16.55,16.55,0,0,0-1.19,3.09,8.41,8.41,0,0,1,.37,2.67c.64,5.92,5.65,7.13,10.75,6.15-3.28-1.24-6.22-3.77-3.69-9.82,4.76,5.77,7.56-2.31,10.4-2.35-4.23-.41-6.79,7.13-9.79.71.45-1.17.91-2.34,1.39-3.5C53.53,96.17,55.12,93.63,60.68,96.08Z"/><path class="cls-5" d="M118.47,106.86c-2,1.4-4.3,2.38-6.38,3.65a24.32,24.32,0,0,1-7.08,3.2,28.12,28.12,0,0,0-3.86.91c-1.08.44-2.11,1-3.17,1.54-1.62.74-3,1.16-4.14,2.56-1.86,2.29-3,5.09-4.83,7.41l.95,0a15.18,15.18,0,0,0,4.94-.51,29.7,29.7,0,0,0,4.73-2.34c3.89-2,8.38-2.86,12-5.32s5.88-6.08,7.93-9.79c.83-1.49,1.62-3,2.32-4.61A16.37,16.37,0,0,1,118.47,106.86Z"/><path class="cls-11" d="M71.84,89.52c-7.18,8-8.25,10.67-12.44,13.83-1.28,1-7.19,5.43-9.63,3.7-2.22-1.56-.59-7.48.75-12.35a59.39,59.39,0,0,1,5.31-13c-1.06,1.6-2.45,3.76-4,6.37-.87,1.47-2.44,4.13-3.87,7a75.24,75.24,0,0,0-4.9,12.73,9.84,9.84,0,0,1-2.45-4.91,10,10,0,0,1,1.13-6.6,115.87,115.87,0,0,1,7.32-13,114,114,0,0,1,8-10.81A77.9,77.9,0,0,0,40.43,91.68C39.1,93.87,38,96,36.94,98.09A17.74,17.74,0,0,1,34.33,78.4a24.16,24.16,0,0,0-3.16,6.86c-1.61,5.94,0,13.14,5.22,16.45a5.6,5.6,0,0,1,2.15,1.78,7.41,7.41,0,0,1,.44,2.83c1.16,10.71,16.66,6,21,.78A139.61,139.61,0,0,0,74,87.19C73.28,88,72.54,88.74,71.84,89.52Z"/><path class="cls-12" d="M81.65,87.16a1,1,0,0,0-.17-.44l0,0C78.56,83.73,79.44,91.13,81.65,87.16Z"/><path class="cls-12" d="M86.81,87.43c-.55-1.76-4.64-2.5-3.58.69C84,89.34,87.56,90.25,86.81,87.43Z"/><path class="cls-12" d="M89.58,90.85c.4-1.62-2.39-3.47-2.65-.33C87.18,91.67,89,92.9,89.58,90.85Z"/><path class="cls-12" d="M85.32,91.22h0c-.34-1.07-3.07-1-2.3,1h0C83.48,93.93,88,93.49,85.32,91.22Z"/><path class="cls-12" d="M92.09,97.05c0-1.94-4.92-2.46-2.15.66C90.25,98.59,92.31,98.75,92.09,97.05Z"/><path class="cls-12" d="M103.22,76c-.1-1.38-3.71-1.68-2.29,1C101.5,77.72,103.38,78.27,103.22,76Z"/><path class="cls-12" d="M105,70.6c-2,.65-1.31,5.53,1.58,4C108,73.36,107.48,69.9,105,70.6Z"/><path class="cls-12" d="M103.39,73c-1.19-6.73-4.65,3.7,0,.08h0S103.39,73,103.39,73Z"/><path class="cls-12" d="M104.91,68.77c-.78-2.45-4.27,1.54-.5,1.23A1.06,1.06,0,0,0,104.91,68.77Z"/><path class="cls-12" d="M110.79,68.65c.14.22.07,0-.28-.3C106.75,65.32,110.57,73.3,110.79,68.65Z"/><path class="cls-12" d="M87.75,55.4c-.85-1.34-3.86,1.1-1.54,2.07C87,58.21,89.06,57.24,87.75,55.4Z"/><path class="cls-12" d="M90,52.31c-.52-2.59-3.8-2.54-3.09,1.09C87.6,55.3,90.32,54.59,90,52.31Z"/><path class="cls-12" d="M92.31,54.53c-.44-3.28-4.44,1.6-.45,1.37C92.05,55.62,92.59,55.54,92.31,54.53Z"/><path class="cls-12" d="M93,50.13c-.21-1.77-4,.17-1,1.35C92,51.38,93.05,51.66,93,50.13Z"/><path class="cls-12" d="M96.6,50.89c-.74-1.72-3.42,1.54-.55,1.66C96.46,52.33,97.1,52,96.6,50.89Z"/><path class="cls-12" d="M44,48.74c-1.68-1.13-5.88.43-2.83,1.92C42.13,50.93,45.6,50.7,44,48.74Z"/><path class="cls-12" d="M47.83,48.89c-.44-2.19-4.7.68-1.1,1.38C47.12,50,48,50.08,47.83,48.89Z"/><path class="cls-12" d="M44.88,51.35c-.81-1.15-3.72-.07-1.19,1.77C44.41,53.17,45.52,52.81,44.88,51.35Z"/><path class="cls-12" d="M52.06,49.24c-.79-2.65-4.76,1.4-.71,1.46C51.35,50.49,52.1,50.88,52.06,49.24Z"/><path class="cls-12" d="M40.82,64.8c-1.19-1.52-4.7,2.75-.86,2.32.33.27,1.25-1,1.11-1.37A1,1,0,0,0,40.82,64.8Z"/><path class="cls-12" d="M38.45,67.45a1.26,1.26,0,0,0-.94-1.24c-.87-.75-2.48,1.21-1.17,2.32-.2-.27.23.65,1.39.15l0,0A1.41,1.41,0,0,0,38.45,67.45Z"/><path class="cls-12" d="M37.93,68.55h0C37.8,68.64,38,68.51,37.93,68.55Z"/><path class="cls-12" d="M36,69.17c.22-.17.13-.78-.46-.85C33.44,68,33.92,72.31,36,69.17Z"/></g></g></svg>