<svg id="तरबूज़" xmlns="http://www.w3.org/2000/svg" viewBox="0 0 150 160"><defs><style>.cls-1,.cls-9{fill:#1c4906;}.cls-1,.cls-2,.cls-3,.cls-4,.cls-5,.cls-6,.cls-7,.cls-8{stroke:#fff;stroke-miterlimit:10;stroke-width:5px;}.cls-10,.cls-2{fill:#edef5a;}.cls-11,.cls-3{fill:#ffe1b1;}.cls-12,.cls-4{fill:#fe8f80;}.cls-13,.cls-5{fill:#ff3f30;}.cls-14,.cls-6{fill:#ff5446;}.cls-15,.cls-7{fill:#3d0200;}.cls-16,.cls-8{fill:#523000;}</style></defs><path class="cls-1" d="M142.22,123.27a128.24,128.24,0,0,1-134.44.26l1.74-2.84a124.9,124.9,0,0,0,131-.26Z"/><path class="cls-2" d="M140.48,120.43a124.9,124.9,0,0,1-131,.26l1.66-2.7a118.36,118.36,0,0,0,127.64-.26Z"/><path class="cls-3" d="M138.82,117.73A118.36,118.36,0,0,1,11.18,118L17,108.46A110.48,110.48,0,0,0,133,108.2Z"/><path class="cls-4" d="M133,108.2A110.48,110.48,0,0,1,17,108.46L25.1,95.31a28.69,28.69,0,0,1,4,2.35c5.06,3.58,8.93,8.78,14.38,11.72,9.49,5.12,21.05,2.23,31.83,2.33,7.25.06,14.41,1.55,21.65,1.82s14.91-.85,20.62-5.31c3.51-2.74,6.14-6.64,9.94-8.9Z"/><path class="cls-5" d="M127.52,99.32c-3.8,2.26-6.43,6.16-9.94,8.9-5.71,4.46-13.38,5.57-20.62,5.31s-14.4-1.76-21.65-1.82c-10.78-.1-22.34,2.79-31.83-2.33-5.45-2.94-9.32-8.14-14.38-11.72a28.69,28.69,0,0,0-4-2.35l26.08-42.5A6.83,6.83,0,0,0,54.77,57C59,58.68,63,54.45,66.33,51.3c4.8-4.57,12-7.64,18.06-5,5.07,2.21,9.17,8.12,14.56,6.9l.22-.06Z"/><path class="cls-6" d="M99.17,53.14,99,53.2c-5.39,1.22-9.49-4.69-14.56-6.9-6.07-2.64-13.26.43-18.06,5C63,54.45,59,58.68,54.77,57a6.83,6.83,0,0,1-3.59-4.14L74.8,14.34h.56Z"/><path class="cls-7" d="M71.81,81.05a.75.75,0,0,0-1.27,0C68.44,83.46,65,92.85,71,92.85S73.93,84,71.81,81.05Z"/><path class="cls-8" d="M71.74,82.19s3.43,7.41.7,9.19S71,84,71.74,82.19Z"/><path class="cls-7" d="M57.81,60.59a.53.53,0,0,0-.87-.21c-1.81,1.35-5.61,7.26-1.49,8.17S58.82,62.91,57.81,60.59Z"/><path class="cls-8" d="M57.58,61.36s1.24,5.6-.9,6.4S56.79,62.46,57.58,61.36Z"/><path class="cls-7" d="M103.5,69.66a.62.62,0,0,0-1,.4c-.79,2.51-.39,10.71,4.14,8.77S106,71.18,103.5,69.66Z"/><path class="cls-8" d="M103.81,70.55s5,4.48,3.49,6.7S103.81,72.14,103.81,70.55Z"/><path class="cls-7" d="M84.57,54.18a.41.41,0,0,0-.67.19c-.71,1.62-1,7.11,2.13,6.14S86.15,55.37,84.57,54.18Z"/><path class="cls-8" d="M84.72,54.79s3,3.35,1.84,4.72S84.6,55.85,84.72,54.79Z"/><path class="cls-7" d="M78.38,65.43a.42.42,0,0,0-.69.14c-.84,1.55-1.6,7,1.62,6.29S79.85,66.75,78.38,65.43Z"/><path class="cls-8" d="M78.47,66.05s2.71,3.58,1.46,4.85S78.27,67.1,78.47,66.05Z"/><path class="cls-9" d="M142.22,123.27a128.24,128.24,0,0,1-134.44.26l1.74-2.84a124.9,124.9,0,0,0,131-.26Z"/><path class="cls-10" d="M140.48,120.43a124.9,124.9,0,0,1-131,.26l1.66-2.7a118.36,118.36,0,0,0,127.64-.26Z"/><path class="cls-11" d="M138.82,117.73A118.36,118.36,0,0,1,11.18,118L17,108.46A110.48,110.48,0,0,0,133,108.2Z"/><path class="cls-12" d="M133,108.2A110.48,110.48,0,0,1,17,108.46L25.1,95.31a28.69,28.69,0,0,1,4,2.35c5.06,3.58,8.93,8.78,14.38,11.72,9.49,5.12,21.05,2.23,31.83,2.33,7.25.06,14.41,1.55,21.65,1.82s14.91-.85,20.62-5.31c3.51-2.74,6.14-6.64,9.94-8.9Z"/><path class="cls-13" d="M127.52,99.32c-3.8,2.26-6.43,6.16-9.94,8.9-5.71,4.46-13.38,5.57-20.62,5.31s-14.4-1.76-21.65-1.82c-10.78-.1-22.34,2.79-31.83-2.33-5.45-2.94-9.32-8.14-14.38-11.72a28.69,28.69,0,0,0-4-2.35l26.08-42.5A6.83,6.83,0,0,0,54.77,57C59,58.68,63,54.45,66.33,51.3c4.8-4.57,12-7.64,18.06-5,5.07,2.21,9.17,8.12,14.56,6.9l.22-.06Z"/><path class="cls-14" d="M99.17,53.14,99,53.2c-5.39,1.22-9.49-4.69-14.56-6.9-6.07-2.64-13.26.43-18.06,5C63,54.45,59,58.68,54.77,57a6.83,6.83,0,0,1-3.59-4.14L74.8,14.34h.56Z"/><path class="cls-15" d="M71.81,81.05a.75.75,0,0,0-1.27,0C68.44,83.46,65,92.85,71,92.85S73.93,84,71.81,81.05Z"/><path class="cls-16" d="M71.74,82.19s3.43,7.41.7,9.19S71,84,71.74,82.19Z"/><path class="cls-15" d="M57.81,60.59a.53.53,0,0,0-.87-.21c-1.81,1.35-5.61,7.26-1.49,8.17S58.82,62.91,57.81,60.59Z"/><path class="cls-16" d="M57.58,61.36s1.24,5.6-.9,6.4S56.79,62.46,57.58,61.36Z"/><path class="cls-15" d="M103.5,69.66a.62.62,0,0,0-1,.4c-.79,2.51-.39,10.71,4.14,8.77S106,71.18,103.5,69.66Z"/><path class="cls-16" d="M103.81,70.55s5,4.48,3.49,6.7S103.81,72.14,103.81,70.55Z"/><path class="cls-15" d="M84.57,54.18a.41.41,0,0,0-.67.19c-.71,1.62-1,7.11,2.13,6.14S86.15,55.37,84.57,54.18Z"/><path class="cls-16" d="M84.72,54.79s3,3.35,1.84,4.72S84.6,55.85,84.72,54.79Z"/><path class="cls-15" d="M78.38,65.43a.42.42,0,0,0-.69.14c-.84,1.55-1.6,7,1.62,6.29S79.85,66.75,78.38,65.43Z"/><path class="cls-16" d="M78.47,66.05s2.71,3.58,1.46,4.85S78.27,67.1,78.47,66.05Z"/></svg>