<svg id="युवक" xmlns="http://www.w3.org/2000/svg" viewBox="0 0 150 160"><defs><style>.cls-1,.cls-10{fill:#fff;}.cls-1{stroke:#fff;stroke-miterlimit:10;stroke-width:5px;}.cls-2{fill:#1e2d46;}.cls-3{fill:#d16251;}.cls-4{fill:#e6e6e6;}.cls-5{fill:#7c91a8;}.cls-6{fill:#1a1a1a;}.cls-7{fill:#4b576b;}.cls-8{fill:#f5b02f;}.cls-9{fill:#b04f2e;}.cls-11{fill:#b88423;}</style></defs><path class="cls-1" d="M89.58,37.84c-2.36-1.12-8.2-3.72-10.86-3.43l-.36-3c3.1-2.44,4.06-5.3,6.09-8,.28-1.17-.73-1.93-.57-3.11.88-.56.57-2,.18-2.78,1.3.27,1-1.44.37-2,1.4-.76-.31-1.64-1.11-1.9.92-1-.79-1.54-1.5-1.85,1-1.23-1.25-1.58-2.06-1.26-.31-.86-1.81-2.93-2.52-1.41-.5-.5-1.74-1.18-2-.12-.5-.42-1.85-1.11-2.11-.13-.79-.18-2.39-.47-2.65.58-.61.06-1.89.15-1.59,1-.85.08-2.29,1.1-1.43,1.92-1,.51-2.63,3.39-1.64,4.16-.59.52-.8,2.06.35,1.92-.38.7-1.1,2.64.38,2.45a3.46,3.46,0,0,0-.14,1.24c-3.7-.21.1,4,1.48,4.78-.14,2.31,4.28,3.61,3.65,6h0l-.18,1.48C68.7,34.21,63,37,60.42,37.84,57.49,39.65,52.25,59.38,53,63.05c.15,3.38,8.59,15.73,9.21,17.17l.67-.56c1.25,16.35,1.71,44,3.73,59.63H66.1c-.19,1.76.06,2.41-1.28,3.27-.13.17-.9,1.6-.73,1.59-.36,2.37-3,1.19-3.46,6.67H72.85c-.23-.51.63-9.31-.77-9.48,0-1.16,0-2.05,0-2.05h-.84C74.84,125,73.89,99.77,75,84.18h.62c1.08,15.54.14,40.63,3.73,54.92h-.84s0,.9,0,2.06c-1.4.16-.54,9-.77,9.47H89.94A5.85,5.85,0,0,0,87,145.28c-.38-.84-1.07-3.3-2.1-3.49-.27-.11-.41-2.45-.45-2.69H84c2-15.46,2.46-42.84,3.69-59l.14.12c.67-1.51,9-13.75,9.21-17.17C97.75,59.38,92.51,39.65,89.58,37.84Zm-28,25.56c-.63-2.28.35-4.41.79-7.52.09,3.29.4,7,.37,10.15A14.07,14.07,0,0,1,61.57,63.4ZM87.7,65.17c0-2.33.11-5,.22-7.76C88.52,60.57,89.25,62.44,87.7,65.17Z"/><path class="cls-2" d="M87.71,74c-.83-4-5-12.24-5-12.24H68S63.73,70,62.91,74s.54,7.54,2.52,8.77,9.88,1.38,9.88,1.38,7.91-.15,9.88-1.38S88.54,78.05,87.71,74Z"/><path class="cls-3" d="M66,120.74c.36,7.79.55,19.14.69,20.52.18,1.77,4.4-.56,4.4-.56s1.25-9.82,2-19.84C70.67,120.85,68.32,120.75,66,120.74Z"/><path class="cls-4" d="M72.08,139.29h-6l-.26,2.41s-2.21,3-1.6,4.41,6.89,1.32,7.41.35S72.08,139.29,72.08,139.29Z"/><path class="cls-5" d="M71.86,144s-2.37-5.25-7.15-1.36l-1.16,2.83a5.84,5.84,0,0,0-2.92,5.35H72.85v-7.25c0-1.17-.59-2.76-.76-2.25A12.44,12.44,0,0,0,71.86,144Z"/><path class="cls-2" d="M68.85,109.87c2.45,0,5.27-1.89,5.27-4.06L75,83c0-2.16-3.87-8.35-3.87-8.35-2.47,0-8.49-.1-8.49,2.06l1.68,29.25C64.35,108.1,67.08,109.87,68.85,109.87Z"/><path class="cls-2" d="M69.38,100.07a4.84,4.84,0,0,0-5,4.9l1.17,28c0,2.41,7.51,2.37,7.51,0,0,0,.62-11.39.73-15.78s.52-13,.52-13C74.26,101.76,72.69,100.07,69.38,100.07Z"/><path class="cls-6" d="M68.85,146.08a.11.11,0,0,0,.09,0,.13.13,0,0,0,0-.18,7.21,7.21,0,0,0-4.82-2h0A.13.13,0,0,0,64,144a.12.12,0,0,0,.13.12,6.92,6.92,0,0,1,4.64,1.89Z"/><path class="cls-6" d="M63.84,145.9a.13.13,0,0,0,.08,0,8.92,8.92,0,0,1,4.74-2,.13.13,0,0,0,.12-.13.14.14,0,0,0-.14-.12,9.14,9.14,0,0,0-4.88,2,.13.13,0,0,0,0,.18A.13.13,0,0,0,63.84,145.9Z"/><path class="cls-6" d="M69,143.18a.13.13,0,0,0,.11-.06.13.13,0,0,0-.05-.17,6.43,6.43,0,0,0-4.26-.63.12.12,0,0,0-.1.15.13.13,0,0,0,.15.1,6.17,6.17,0,0,1,4.09.6Z"/><path class="cls-6" d="M65.07,143.39a.11.11,0,0,0,.08,0,7.71,7.71,0,0,1,4.22-1.5.13.13,0,1,0,0-.25A8,8,0,0,0,65,143.17a.12.12,0,0,0,0,.17A.14.14,0,0,0,65.07,143.39Z"/><path class="cls-3" d="M84.6,120.55c-.36,7.8-.55,19.14-.69,20.52-.18,1.77-4.4-.56-4.4-.56s-1.25-9.81-2-19.84C79.9,120.66,82.25,120.56,84.6,120.55Z"/><path class="cls-4" d="M78.49,139.1h6l.26,2.41s2.21,3,1.6,4.41-6.89,1.32-7.41.35S78.49,139.1,78.49,139.1Z"/><path class="cls-5" d="M78.71,143.81s2.37-5.25,7.15-1.36L87,145.28a5.85,5.85,0,0,1,2.92,5.35H77.72v-7.24c0-1.17.59-2.77.76-2.26A12.44,12.44,0,0,1,78.71,143.81Z"/><path class="cls-6" d="M81.49,145.87a.15.15,0,0,1-.09,0,.13.13,0,0,1,0-.18,7.21,7.21,0,0,1,4.82-2h0a.12.12,0,0,1,.13.12.13.13,0,0,1-.13.13,6.91,6.91,0,0,0-4.64,1.88A.18.18,0,0,1,81.49,145.87Z"/><path class="cls-6" d="M86.31,145.48a.11.11,0,0,1-.08,0,8.87,8.87,0,0,0-4.75-2,.14.14,0,0,1-.12-.14.12.12,0,0,1,.14-.11,9.17,9.17,0,0,1,4.89,2,.12.12,0,0,1,0,.17A.12.12,0,0,1,86.31,145.48Z"/><path class="cls-6" d="M81.3,143a.11.11,0,0,1-.11-.07.13.13,0,0,1,0-.17,6.49,6.49,0,0,1,4.26-.62.13.13,0,0,1,0,.25,6.23,6.23,0,0,0-4.09.59Z"/><path class="cls-6" d="M85.27,143.18a.11.11,0,0,1-.08,0A7.72,7.72,0,0,0,81,141.64a.12.12,0,0,1-.12-.13.14.14,0,0,1,.13-.12A8,8,0,0,1,85.35,143a.14.14,0,0,1,0,.18A.16.16,0,0,1,85.27,143.18Z"/><path class="cls-2" d="M81.72,109.68c-2.45,0-5.27-1.89-5.27-4.05L75.54,82.8c0-2.17,3.87-8.36,3.87-8.36,2.47,0,8.49-.1,8.49,2.06l-1.68,29.25C86.22,107.91,83.49,109.68,81.72,109.68Z"/><path class="cls-2" d="M81.19,99.88a4.84,4.84,0,0,1,5,4.9l-1.17,28c0,2.41-7.51,2.37-7.51,0,0,0-.62-11.38-.73-15.78s-.52-13-.52-13C76.31,101.57,77.88,99.88,81.19,99.88Z"/><path class="cls-7" d="M78.13,108.11a5,5,0,0,0,4.77.87,4.57,4.57,0,0,0,1.26-.65c.13-.1,0-.32-.13-.22a4.76,4.76,0,0,1-4.57.52,4.43,4.43,0,0,1-1.16-.7c-.12-.1-.3.07-.17.18Z"/><path class="cls-7" d="M67.21,108.82a5.57,5.57,0,0,0,4,.52,5.28,5.28,0,0,0,1.09-.4c.15-.08,0-.29-.12-.22a5.34,5.34,0,0,1-3.81.32,4.92,4.92,0,0,1-1-.44c-.14-.07-.27.14-.13.22Z"/><path class="cls-7" d="M72.37,110.05l-1.69.16c-.16,0-.16.26,0,.25l1.69-.15c.16,0,.16-.27,0-.26Z"/><path class="cls-7" d="M77,83.69l3-1.33c.14-.07,0-.29-.13-.22l-3,1.33c-.14.07,0,.28.13.22Z"/><path class="cls-7" d="M77.17,84.49l2.21.12c.16,0,.16-.24,0-.25l-2.21-.12c-.16,0-.16.24,0,.25Z"/><path class="cls-7" d="M75.18,83.64l-1.82-2.33c-.1-.13-.28,0-.18.17L75,83.82c.1.13.28,0,.18-.18Z"/><path class="cls-7" d="M75.35,75.55v3.91a3.64,3.64,0,0,0,.08,1.19.76.76,0,0,0,.83.58c.16,0,.09-.27-.07-.24-.33.05-.52-.31-.56-.58a3.26,3.26,0,0,1,0-.54v-.58l0-2.39V75.55c0-.16-.26-.17-.25,0Z"/><path class="cls-7" d="M76.26,76.2v3a.13.13,0,0,0,.25,0v-3a.13.13,0,0,0-.25,0Z"/><path class="cls-8" d="M88,72.23c-1-5,1.1-34.21.73-34.64-.8-.92-7.51-3.18-8.94-3.18H70.67c-1.43,0-8.13,2.26-8.93,3.18-.38.43,1.7,29.65.73,34.61C61.87,75.26,88.55,75.28,88,72.23Z"/><path class="cls-8" d="M60.42,37.84c1.55-1,7.29-1.09,4.21,8.77C62.08,54.79,62,60,60.86,62.5s-7.19,4.22-7.9.55S57.49,39.65,60.42,37.84Z"/><path class="cls-3" d="M72.83,38.57a42,42,0,0,0-3.24-3.79,24.18,24.18,0,0,1,10.88,0,42,42,0,0,0-3.24,3.79A3.3,3.3,0,0,1,72.83,38.57Z"/><path class="cls-3" d="M78.77,34.84l-1-8H72.26l-1,8a1.34,1.34,0,0,0,1.33,1.5h4.82A1.34,1.34,0,0,0,78.77,34.84Z"/><path class="cls-6" d="M72.26,26.81l-.74,6.12c2.32,1.14,4.88.42,6.85-1.37l-.57-4.75Z"/><path class="cls-3" d="M83.13,16.36c0-3.62-5.08-6.39-7.94-6.39h-1c-2.85.09-7.8,3-7.74,6.64,0,0,1,7.38,1.45,10.28S73.37,33,75,33s6.56-3.45,7-6.36S83.13,16.36,83.13,16.36Z"/><path class="cls-3" d="M67.89,26.71a12.76,12.76,0,0,1-1.83-1.29A3.3,3.3,0,0,1,65,23.69c-.13-.65-.15-1.44.68-1.73s2.16,1.28,2.16,1.28Z"/><path class="cls-3" d="M81.61,26.5a13.46,13.46,0,0,0,1.79-1.34,3.41,3.41,0,0,0,1-1.77c.1-.65.1-1.45-.74-1.71S81.59,23,81.59,23Z"/><path class="cls-9" d="M75.06,25.87s.17-.08.18-.14-.26-.08-.39-.12a.33.33,0,0,1-.28-.25c0-.17.14-.33.17-.51v0c-.08-.14-.23-.1-.32,0a.57.57,0,0,0-.12.23,1,1,0,0,0-.06.54.49.49,0,0,0,.3.38A.74.74,0,0,0,75.06,25.87Z"/><path class="cls-6" d="M77.73,21.92a1,1,0,0,1,1.32.44c0,.07.12.11.18.06a.17.17,0,0,0,0-.21,1.43,1.43,0,0,0-.71-.63,1.2,1.2,0,0,0-1,.07.17.17,0,0,0,0,.21.12.12,0,0,0,.18.06Z"/><path class="cls-6" d="M72.21,21.93a1,1,0,0,0-1.34.43.12.12,0,0,1-.18.05.18.18,0,0,1,0-.21,1.43,1.43,0,0,1,.72-.62,1.17,1.17,0,0,1,1,.08.18.18,0,0,1,0,.22.12.12,0,0,1-.18.05Z"/><path class="cls-6" d="M79.09,23.42a.88.88,0,0,1-.84.91.84.84,0,0,1-.72-1,.88.88,0,0,1,.81-.93A.89.89,0,0,1,79.09,23.42Z"/><path class="cls-6" d="M70.88,23.32c0,.54.28,1,.71,1a.94.94,0,0,0,.85-.95.89.89,0,0,0-.75-1A.88.88,0,0,0,70.88,23.32Z"/><path class="cls-10" d="M77.93,26.26a19.09,19.09,0,0,1-6.28.16,3.22,3.22,0,0,0,3.06,2.06A3,3,0,0,0,77.93,26.26Z"/><path class="cls-2" d="M84.36,17.54a.73.73,0,0,0,.64-.78,2.67,2.67,0,0,0-.57-1.28.76.76,0,0,0,.46-.4.74.74,0,0,0-.37-.94,10.16,10.16,0,0,0-1.17-.52l0,0a.75.75,0,0,0,.21-.26.74.74,0,0,0-.37-.94,9.21,9.21,0,0,0-1.34-.65.67.67,0,0,0-.16-1.16,3,3,0,0,0-1.9-.1,4.46,4.46,0,0,0-1.38-1.81.73.73,0,0,0-1.14.4,3.36,3.36,0,0,0-1-.64.72.72,0,0,0-.94.37.83.83,0,0,0,0,.15,3,3,0,0,0-1.34-.63.64.64,0,0,0-.77.5,3.92,3.92,0,0,0-2.2,0,.67.67,0,0,0-.45.59,5.36,5.36,0,0,0-1.17.22.61.61,0,0,0-.42.82,2.11,2.11,0,0,0-1.63,1.1.64.64,0,0,0,.2.82,2.22,2.22,0,0,0-1.34,1.9.83.83,0,0,0,.05.35,1.85,1.85,0,0,0-.73,1,.73.73,0,0,0,.37.94h0a2,2,0,0,0-.5,1.12.73.73,0,0,0,.6.81.71.71,0,0,0,.25,0v.07a3.12,3.12,0,0,0-.54,1.6.74.74,0,0,0,.6.81.55.55,0,0,0,.31,0,3.39,3.39,0,0,0-.11,1.67.77.77,0,0,0,.17.38l-.14.14a.71.71,0,1,0,1.11.89A5.61,5.61,0,0,0,69,21.29a.49.49,0,0,0,0-.12,9.65,9.65,0,0,0,4.28-1.38.65.65,0,0,0,.85.32,6.86,6.86,0,0,0,1-.43h0a.72.72,0,0,0,.92.42,3.36,3.36,0,0,0,1.47-.93.75.75,0,0,0,1.11.41,9,9,0,0,0,1.24-.92c0,.19,0,.39,0,.59a.7.7,0,0,0,1,.73.74.74,0,0,0,0,.21,4.67,4.67,0,0,0,1.32,3.15.71.71,0,0,0,1.14-.62.67.67,0,0,0,.69-.07.71.71,0,0,0,.16-1,2.18,2.18,0,0,1-.27-1.38.79.79,0,0,0,.45-.55,3.09,3.09,0,0,0-.27-2.23A.73.73,0,0,0,84.36,17.54Z"/><path class="cls-8" d="M53.53,59.32c-1,3.86-.5,4.63.29,6.56s8.35,14.34,8.35,14.34L68,75.38s-6-10.25-6.38-12c-.09-.46-.24-1.66-.46-3.14C60.31,54.68,55.1,53.4,53.53,59.32Z"/><path class="cls-3" d="M67.23,76l1.54,1.92a13.22,13.22,0,0,1-5.13,2.72L63,79.52S63.4,77.25,67.23,76Z"/><path class="cls-8" d="M89.58,37.84c-1.55-1-7.29-1.09-4.21,8.77C87.92,54.79,88,60,89.14,62.5s7.19,4.22,7.9.55S92.51,39.65,89.58,37.84Z"/><path class="cls-8" d="M96.47,59.32c1,3.86.5,4.63-.29,6.56s-8.35,14.34-8.35,14.34l-5.78-4.84s6-10.25,6.38-12c.09-.46.24-1.66.46-3.14C89.69,54.68,94.9,53.4,96.47,59.32Z"/><path class="cls-3" d="M82.77,76,81.23,77.9a13.22,13.22,0,0,0,5.13,2.72l.64-1.1S86.6,77.25,82.77,76Z"/><path class="cls-11" d="M88,57.23,88.15,52l.18-5.21.1-2.94c0-.17-.24-.17-.25,0L88,49.07l-.18,5.21-.11,2.95a.13.13,0,0,0,.25,0Z"/><path class="cls-11" d="M62.74,59.83c-.06-2-.13-4.1-.19-6.15l-.2-6.13-.11-3.45c0-.16-.26-.16-.25,0l.2,6.15.19,6.13.11,3.45c0,.16.26.16.25,0Z"/><path class="cls-11" d="M88.83,61.25l1.7-.7a.13.13,0,0,0,.08-.16.11.11,0,0,0-.15-.08l-1.7.7a.12.12,0,0,0-.08.15c0,.06.09.12.15.09Z"/><path class="cls-11" d="M61.12,61.48l-1.75-.19a.12.12,0,0,0-.13.12.13.13,0,0,0,.13.13l1.75.19a.12.12,0,0,0,.13-.12.13.13,0,0,0-.13-.13Z"/></svg>