<svg xmlns="http://www.w3.org/2000/svg" viewBox="0 0 150 160"><defs><style>.cls-1{isolation:isolate;}.cls-2,.cls-6{fill:#fff;}.cls-2{stroke:#fff;stroke-miterlimit:10;stroke-width:5px;}.cls-3,.cls-5{fill:#b38062;}.cls-4{fill:#e7c8b8;}.cls-15,.cls-5{opacity:0.2;}.cls-11,.cls-12,.cls-15,.cls-16,.cls-5,.cls-8{mix-blend-mode:multiply;}.cls-7{fill:#74cbf3;}.cls-8{fill:#d5d5d5;}.cls-9{fill:#00a6bc;}.cls-10{fill:#d3e2ec;}.cls-11{fill:#d9d9d9;}.cls-13{fill:#d8e8f2;}.cls-14,.cls-15{fill:#a7795c;}.cls-16{fill:#d5e1e9;}</style></defs><g class="cls-1"><g id="पलंग"><path class="cls-2" d="M138.08,104.32c0-1.64.06-8.81,0-10.5h.1c1.92.82-21.7-17.27-21.27-17.41C114.62,62.6,125.32,37,100.93,33.7c-14.72,0-36.62,0-51.34,0C25.08,37.23,36,62.25,33.65,76.13c-.57.66-21.4,17.43-21.45,17.05l-.8.33.8-.32h0c-.52-.09-.2,10.73-.28,11.14H10.51v22h8.6v-3.94H130.89v3.94h8.6v-22Z"/><path class="cls-3" d="M116.87,80.25V48.3s-.6-13.21-15.94-14.6H49.59C34.25,35.09,33.65,48.3,33.65,48.3v32Z"/><path class="cls-4" d="M110,80.25V53.59s-.49-11-13.3-12.19H53.84C41,42.56,40.54,53.59,40.54,53.59V80.25Z"/><path class="cls-5" d="M100.93,33.7H49.59C34.25,35.09,33.65,48.3,33.65,48.3v32h2.89V50.8s.55-12.29,14.83-13.59H99.15C113.43,38.51,114,50.8,114,50.8V80.25h2.89V48.3S116.27,35.09,100.93,33.7Z"/><polygon class="cls-6" points="104.98 66.69 138.14 93.82 76.34 93.82 73.83 93.82 12.03 93.82 45.19 66.69 104.98 66.69"/><polygon class="cls-7" points="112.65 72.97 37.52 72.97 12.03 93.82 138.14 93.82 112.65 72.97"/><polygon class="cls-8" points="123.4 81.76 112.65 72.97 37.52 72.97 26.77 81.76 123.4 81.76"/><polygon class="cls-9" points="122.17 80.75 112.65 72.97 37.52 72.97 28 80.75 122.17 80.75"/><rect class="cls-10" x="11.92" y="92.18" width="126.16" height="14.15" rx="2.01"/><path class="cls-11" d="M136.58,105.52H14.43a2,2,0,0,1-2-2V93.39a1.91,1.91,0,0,1,.11-.64,2,2,0,0,0-.62,1.44v10.13a2,2,0,0,0,2,2H136.07A2,2,0,0,0,138,105,2,2,0,0,1,136.58,105.52Z"/><g class="cls-12"><path class="cls-13" d="M136.56,106.26l-.12,0Z"/><path class="cls-13" d="M137.31,105.89a1.9,1.9,0,0,0,.53-.63A1.9,1.9,0,0,1,137.31,105.89Z"/><path class="cls-13" d="M136.92,106.14l-.14.06Z"/><path class="cls-13" d="M12,93.78a2.71,2.71,0,0,0,0,.41A2.71,2.71,0,0,1,12,93.78Z"/><path class="cls-13" d="M137.24,106l-.16.1Z"/><path class="cls-13" d="M16.44,102.86a1.16,1.16,0,0,1-1.16-1.16V95.86a1,1,0,0,1,0-.24v0a1.15,1.15,0,0,1,1.12-.9H138.08v-.51a2,2,0,0,0-2-2H13.93A2,2,0,0,0,12,93.74a2,2,0,0,1,.56-1,1.91,1.91,0,0,0-.11.64v10.13a2,2,0,0,0,2,2H136.58A2,2,0,0,0,138,105a2.2,2.2,0,0,0,.11-.64v-1.46Z"/><path class="cls-13" d="M138,105l-.12.28Z"/></g><polygon class="cls-3" points="10.51 104.32 10.51 117.39 10.51 122.36 10.51 126.3 19.11 126.3 19.11 122.36 130.89 122.36 130.89 126.3 139.49 126.3 139.49 122.36 139.49 117.39 139.49 104.32 10.51 104.32"/><polygon class="cls-5" points="10.51 104.32 10.51 117.39 10.51 122.36 10.51 126.3 19.11 126.3 19.11 122.36 130.89 122.36 130.89 126.3 139.49 126.3 139.49 122.36 139.49 117.39 15.85 117.22 15.85 104.32 10.51 104.32"/><rect class="cls-14" x="18.62" y="107.8" width="112.76" height="7.52"/><polygon class="cls-15" points="19.65 113.9 19.65 107.8 18.62 107.8 18.62 115.31 131.38 115.31 131.38 113.9 19.65 113.9"/><path class="cls-6" d="M41.6,54a61.34,61.34,0,0,1,31.7,0s3.53,11.06,0,19.61c0,0-17,4.22-31.7,0C41.6,73.62,38.63,62.91,41.6,54Z"/><path class="cls-6" d="M72.6,53.83c-1.1-.29-2.2-.54-3.28-.75l.35.11A8.6,8.6,0,0,0,72.6,53.83Z"/><path class="cls-16" d="M70.88,71.32A32.07,32.07,0,0,1,59.1,73.61c-3.69.14-8.27.4-11.62-1.39a7,7,0,0,1-3.22-3.68c-.95-2.86,1-7,4.08-7.46.72-.12,2,.25,2.57-.14,1-.62-.59-1.12-1.36-1.38-1-.33-2.66-.67-2.76-2-.18-2.4,3.8-3.56,5.45-4.08a17.06,17.06,0,0,1,3.29-.76c2.45-.22,5.13-.75,7.58-.53A60.2,60.2,0,0,0,41.6,54c-3,8.9,0,19.61,0,19.61,14.71,4.22,31.7,0,31.7,0a21,21,0,0,0,1.43-6A7.78,7.78,0,0,1,70.88,71.32Z"/><path class="cls-6" d="M78.22,54a61.3,61.3,0,0,1,31.69,0s3.54,11.06,0,19.61c0,0-17,4.22-31.69,0C78.22,73.62,75.25,62.91,78.22,54Z"/><path class="cls-6" d="M109.22,53.83c-1.11-.29-2.2-.54-3.29-.75l.35.11A8.71,8.71,0,0,0,109.22,53.83Z"/><path class="cls-16" d="M107.5,71.32a32.09,32.09,0,0,1-11.79,2.29c-3.69.14-8.26.4-11.61-1.39a7,7,0,0,1-3.22-3.68c-.95-2.86,1-7,4.08-7.46.71-.12,2,.25,2.57-.14,1-.62-.59-1.12-1.36-1.38-1-.33-2.67-.67-2.77-2-.18-2.4,3.81-3.56,5.46-4.08a16.89,16.89,0,0,1,3.29-.76c2.44-.22,5.12-.75,7.57-.53A60.12,60.12,0,0,0,78.22,54c-3,8.9,0,19.61,0,19.61,14.7,4.22,31.69,0,31.69,0a21,21,0,0,0,1.44-6A7.82,7.82,0,0,1,107.5,71.32Z"/></g></g></svg>