<svg id="เคเคน" xmlns="http://www.w3.org/2000/svg" viewBox="0 0 150 160"><defs><style>.cls-1{fill:#fdb827;}.cls-2{fill:#f2901c;}.cls-3{fill:#fff;}</style></defs><path class="cls-1" d="M89.66,100.72s0,0,0-.06a1.18,1.18,0,0,0,0-.2.29.29,0,0,0,0-.09,1,1,0,0,0-.08-.23.32.32,0,0,0,0-.09.54.54,0,0,0,0-.11.93.93,0,0,0,0-.1.42.42,0,0,0-.09-.14.22.22,0,0,0,0-.08,1.69,1.69,0,0,0-.3-.36.38.38,0,0,0-.09-.09l-.1-.09a0,0,0,0,0,0,0l-.12-.1-.2-.13a1,1,0,0,0-.22-.13L88,98.58a.76.76,0,0,0-.16-.06l-.12,0-.12,0-.23-.06a18.2,18.2,0,0,1-.21,4.73,2.25,2.25,0,0,0,.36.06l.31,0h.37l.13,0a1.66,1.66,0,0,0,.21-.06,1.15,1.15,0,0,0,.25-.12l.23-.17.11-.11a.6.6,0,0,1,.08-.08l.1-.15a1.8,1.8,0,0,0,.23-.46l0-.08a.84.84,0,0,0,0-.17A2.56,2.56,0,0,0,89.66,100.72Zm-.51,10a2.81,2.81,0,0,0-4.34.14c-1.07,1.27-1.22,4.32,1.21,3.64a1.1,1.1,0,0,1,.84,2,3.56,3.56,0,0,1-5.23-1.75c0-.12-.1-.25-.14-.37s0-.08,0-.12,0-.1,0-.15a1.6,1.6,0,0,1,0-.21c0-.13,0-.25,0-.38s0-.09,0-.14,0-.24,0-.35,0-.46,0-.68a.59.59,0,0,0,0-.13,2,2,0,0,1,0-.24l.06-.23a1.58,1.58,0,0,1,.09-.31,11.51,11.51,0,0,1-2.31.93c0,.14,0,.28,0,.43l0,.38a1.77,1.77,0,0,0,0,.23c0,.17,0,.33,0,.49a5.29,5.29,0,0,0,.4,2.26,5.86,5.86,0,0,0,7.63,2.59C90.37,117.43,91.77,113.42,89.15,110.73ZM64,108.83c-1.28-1.86-3.05-.23-4.08,1.11a1.08,1.08,0,0,1-2-.82c.4-2.32,2.32-4.53,4.87-4.23a2.65,2.65,0,0,1,.69.15,15,15,0,0,1-1-3,5.46,5.46,0,0,0-.69.1l-.35.07-.35.09a6.2,6.2,0,0,0-.69.23l-.06,0-.2.08-.08,0a5.72,5.72,0,0,0-.66.32,2.11,2.11,0,0,0-.33.18l-.32.19a3.13,3.13,0,0,0-.3.2l-.27.19-.2.15-.3.24c-.14.12-.29.25-.43.39a.57.57,0,0,0-.11.11,7.35,7.35,0,0,0-.84.93c-.06.08-.13.16-.18.24a.47.47,0,0,0-.06.09,2.2,2.2,0,0,0-.17.25l-.19.3c-.06.1-.11.2-.16.3a4.71,4.71,0,0,0-.31.69,1.17,1.17,0,0,0-.09.24,5,5,0,0,0-.17.64l-.06.31a1.82,1.82,0,0,0,0,.32s0,0,0,0a4.72,4.72,0,0,0,0,.92l0,.2a1.46,1.46,0,0,0,0,.2,7391346463759,7391346463759,0,0,1,.1.38,4.68,4.68,0,0,0,.86,1.48,4.12,4.12,0,0,0,.28.31c.1.1.2.2.32.3,2,1.76,5.87,2.71,7.64.08C65.19,111.45,64.89,110.16,64,108.83Zm25.67-8.11s0,0,0-.06a1.18,1.18,0,0,0,0-.2.29.29,0,0,0,0-.09,1,1,0,0,0-.08-.23.32.32,0,0,0,0-.09.54.54,0,0,0,0-.11.93.93,0,0,0,0-.1.42.42,0,0,0-.09-.14.22.22,0,0,0,0-.08,1.69,1.69,0,0,0-.3-.36.38.38,0,0,0-.09-.09l-.1-.09a0,0,0,0,0,0,0l-.12-.1-.2-.13a1,1,0,0,0-.22-.13L88,98.58a.76.76,0,0,0-.16-.06l-.12,0-.12,0-.23-.06a18.2,18.2,0,0,1-.21,4.73,2.25,2.25,0,0,0,.36.06l.31,0h.37l.13,0a1.66,1.66,0,0,0,.21-.06,1.15,1.15,0,0,0,.25-.12l.23-.17.11-.11a.6.6,0,0,1,.08-.08l.1-.15a1.8,1.8,0,0,0,.23-.46l0-.08a.84.84,0,0,0,0-.17A2.56,2.56,0,0,0,89.66,100.72Zm-.51,10a2.81,2.81,0,0,0-4.34.14c-1.07,1.27-1.22,4.32,1.21,3.64a1.1,1.1,0,0,1,.84,2,3.56,3.56,0,0,1-5.23-1.75c0-.12-.1-.25-.14-.37s0-.08,0-.12,0-.1,0-.15a1.6,1.6,0,0,1,0-.21c0-.13,0-.25,0-.38s0-.09,0-.14,0-.24,0-.35,0-.46,0-.68a.59.59,0,0,0,0-.13,2,2,0,0,1,0-.24l.06-.23a1.58,1.58,0,0,1,.09-.31,11.51,11.51,0,0,1-2.31.93c0,.14,0,.28,0,.43l0,.38a1.77,1.77,0,0,0,0,.23c0,.17,0,.33,0,.49a5.29,5.29,0,0,0,.4,2.26,5.86,5.86,0,0,0,7.63,2.59C90.37,117.43,91.77,113.42,89.15,110.73ZM64,108.83c-1.28-1.86-3.05-.23-4.08,1.11a1.08,1.08,0,0,1-2-.82c.4-2.32,2.32-4.53,4.87-4.23a2.65,2.65,0,0,1,.69.15,15,15,0,0,1-1-3,5.46,5.46,0,0,0-.69.1l-.35.07-.35.09a6.2,6.2,0,0,0-.69.23l-.06,0-.2.08-.08,0a5.72,5.72,0,0,0-.66.32,2.11,2.11,0,0,0-.33.18l-.32.19a3.13,3.13,0,0,0-.3.2l-.27.19-.2.15-.3.24c-.14.12-.29.25-.43.39a.57.57,0,0,0-.11.11,7.35,7.35,0,0,0-.84.93c-.06.08-.13.16-.18.24a.47.47,0,0,0-.06.09,2.2,2.2,0,0,0-.17.25l-.19.3c-.06.1-.11.2-.16.3a4.71,4.71,0,0,0-.31.69,1.17,1.17,0,0,0-.09.24,5,5,0,0,0-.17.64l-.06.31a1.82,1.82,0,0,0,0,.32s0,0,0,0a4.72,4.72,0,0,0,0,.92l0,.2a1.46,1.46,0,0,0,0,.2,7391346463759,7391346463759,0,0,1,.1.38,4.68,4.68,0,0,0,.86,1.48,4.12,4.12,0,0,0,.28.31c.1.1.2.2.32.3,2,1.76,5.87,2.71,7.64.08C65.19,111.45,64.89,110.16,64,108.83Zm25.67-8.11s0,0,0-.06a1.18,1.18,0,0,0,0-.2.29.29,0,0,0,0-.09,1,1,0,0,0-.08-.23.32.32,0,0,0,0-.09.54.54,0,0,0,0-.11.93.93,0,0,0,0-.1.42.42,0,0,0-.09-.14.22.22,0,0,0,0-.08,1.69,1.69,0,0,0-.3-.36.38.38,0,0,0-.09-.09l-.1-.09a0,0,0,0,0,0,0l-.12-.1-.2-.13a1,1,0,0,0-.22-.13L88,98.58a.76.76,0,0,0-.16-.06l-.12,0-.12,0-.23-.06a18.2,18.2,0,0,1-.21,4.73,2.25,2.25,0,0,0,.36.06l.31,0h.37l.13,0a1.66,1.66,0,0,0,.21-.06,1.15,1.15,0,0,0,.25-.12l.23-.17.11-.11a.6.6,0,0,1,.08-.08l.1-.15a1.8,1.8,0,0,0,.23-.46l0-.08a.84.84,0,0,0,0-.17A2.56,2.56,0,0,0,89.66,100.72Zm-.51,10a2.81,2.81,0,0,0-4.34.14c-1.07,1.27-1.22,4.32,1.21,3.64a1.1,1.1,0,0,1,.84,2,3.56,3.56,0,0,1-5.23-1.75c0-.12-.1-.25-.14-.37s0-.08,0-.12,0-.1,0-.15a1.6,1.6,0,0,1,0-.21c0-.13,0-.25,0-.38s0-.09,0-.14,0-.24,0-.35,0-.46,0-.68a.59.59,0,0,0,0-.13,2,2,0,0,1,0-.24l.06-.23a1.58,1.58,0,0,1,.09-.31,11.51,11.51,0,0,1-2.31.93c0,.14,0,.28,0,.43l0,.38a1.77,1.77,0,0,0,0,.23c0,.17,0,.33,0,.49a5.29,5.29,0,0,0,.4,2.26,5.86,5.86,0,0,0,7.63,2.59C90.37,117.43,91.77,113.42,89.15,110.73ZM64,108.83c-1.28-1.86-3.05-.23-4.08,1.11a1.08,1.08,0,0,1-2-.82c.4-2.32,2.32-4.53,4.87-4.23a2.65,2.65,0,0,1,.69.15,15,15,0,0,1-1-3,5.46,5.46,0,0,0-.69.1l-.35.07-.35.09a6.2,6.2,0,0,0-.69.23l-.06,0-.2.08-.08,0a5.72,5.72,0,0,0-.66.32,2.11,2.11,0,0,0-.33.18l-.32.19a3.13,3.13,0,0,0-.3.2l-.27.19-.2.15-.3.24c-.14.12-.29.25-.43.39a.57.57,0,0,0-.11.11,7.35,7.35,0,0,0-.84.93c-.06.08-.13.16-.18.24a.47.47,0,0,0-.06.09,2.2,2.2,0,0,0-.17.25l-.19.3c-.06.1-.11.2-.16.3a4.71,4.71,0,0,0-.31.69,1.17,1.17,0,0,0-.09.24,5,5,0,0,0-.17.64l-.06.31a1.82,1.82,0,0,0,0,.32s0,0,0,0a4.72,4.72,0,0,0,0,.92l0,.2a1.46,1.46,0,0,0,0,.2,7391346463759,7391346463759,0,0,1,.1.38,4.68,4.68,0,0,0,.86,1.48,4.12,4.12,0,0,0,.28.31c.1.1.2.2.32.3,2,1.76,5.87,2.71,7.64.08C65.19,111.45,64.89,110.16,64,108.83Zm25.67-8.11s0,0,0-.06a1.18,1.18,0,0,0,0-.2.29.29,0,0,0,0-.09,1,1,0,0,0-.08-.23.32.32,0,0,0,0-.09.54.54,0,0,0,0-.11.93.93,0,0,0,0-.1.42.42,0,0,0-.09-.14.22.22,0,0,0,0-.08,1.69,1.69,0,0,0-.3-.36.38.38,0,0,0-.09-.09l-.1-.09a0,0,0,0,0,0,0l-.12-.1-.2-.13a1,1,0,0,0-.22-.13L88,98.58a.76.76,0,0,0-.16-.06l-.12,0-.12,0-.23-.06a18.2,18.2,0,0,1-.21,4.73,2.25,2.25,0,0,0,.36.06l.31,0h.37l.13,0a1.66,1.66,0,0,0,.21-.06,1.15,1.15,0,0,0,.25-.12l.23-.17.11-.11a.6.6,0,0,1,.08-.08l.1-.15a1.8,1.8,0,0,0,.23-.46l0-.08a.84.84,0,0,0,0-.17A2.56,2.56,0,0,0,89.66,100.72Zm-.51,10a2.81,2.81,0,0,0-4.34.14c-1.07,1.27-1.22,4.32,1.21,3.64a1.1,1.1,0,0,1,.84,2,3.56,3.56,0,0,1-5.23-1.75c0-.12-.1-.25-.14-.37s0-.08,0-.12,0-.1,0-.15a1.6,1.6,0,0,1,0-.21c0-.13,0-.25,0-.38s0-.09,0-.14,0-.24,0-.35,0-.46,0-.68a.59.59,0,0,0,0-.13,2,2,0,0,1,0-.24l.06-.23a1.58,1.58,0,0,1,.09-.31,11.51,11.51,0,0,1-2.31.93c0,.14,0,.28,0,.43l0,.38a1.77,1.77,0,0,0,0,.23c0,.17,0,.33,0,.49a5.29,5.29,0,0,0,.4,2.26,5.86,5.86,0,0,0,7.63,2.59C90.37,117.43,91.77,113.42,89.15,110.73ZM64,108.83c-1.28-1.86-3.05-.23-4.08,1.11a1.08,1.08,0,0,1-2-.82c.4-2.32,2.32-4.53,4.87-4.23a2.65,2.65,0,0,1,.69.15,15,15,0,0,1-1-3,5.46,5.46,0,0,0-.69.1l-.35.07-.35.09a6.2,6.2,0,0,0-.69.23l-.06,0-.2.08-.08,0a5.72,5.72,0,0,0-.66.32,2.11,2.11,0,0,0-.33.18l-.32.19a3.13,3.13,0,0,0-.3.2l-.27.19-.2.15-.3.24c-.14.12-.29.25-.43.39a.57.57,0,0,0-.11.11,7.35,7.35,0,0,0-.84.93c-.06.08-.13.16-.18.24a.47.47,0,0,0-.06.09,2.2,2.2,0,0,0-.17.25l-.19.3c-.06.1-.11.2-.16.3a4.71,4.71,0,0,0-.31.69,1.17,1.17,0,0,0-.09.24,5,5,0,0,0-.17.64l-.06.31a1.82,1.82,0,0,0,0,.32s0,0,0,0a4.72,4.72,0,0,0,0,.92l0,.2a1.46,1.46,0,0,0,0,.2,7391346463759,7391346463759,0,0,1,.1.38,4.68,4.68,0,0,0,.86,1.48,4.12,4.12,0,0,0,.28.31c.1.1.2.2.32.3,2,1.76,5.87,2.71,7.64.08C65.19,111.45,64.89,110.16,64,108.83Zm25.67-8.11s0,0,0-.06a1.18,1.18,0,0,0,0-.2.29.29,0,0,0,0-.09,1,1,0,0,0-.08-.23.32.32,0,0,0,0-.09.54.54,0,0,0,0-.11.93.93,0,0,0,0-.1.42.42,0,0,0-.09-.14.22.22,0,0,0,0-.08,1.69,1.69,0,0,0-.3-.36.38.38,0,0,0-.09-.09l-.1-.09a0,0,0,0,0,0,0l-.12-.1-.2-.13a1,1,0,0,0-.22-.13L88,98.58a.76.76,0,0,0-.16-.06l-.12,0-.12,0-.23-.06a18.2,18.2,0,0,1-.21,4.73,2.25,2.25,0,0,0,.36.06l.31,0h.37l.13,0a1.66,1.66,0,0,0,.21-.06,1.15,1.15,0,0,0,.25-.12l.23-.17.11-.11a.6.6,0,0,1,.08-.08l.1-.15a1.8,1.8,0,0,0,.23-.46l0-.08a.84.84,0,0,0,0-.17A2.56,2.56,0,0,0,89.66,100.72Zm-.51,10a2.81,2.81,0,0,0-4.34.14c-1.07,1.27-1.22,4.32,1.21,3.64a1.1,1.1,0,0,1,.84,2,3.56,3.56,0,0,1-5.23-1.75c0-.12-.1-.25-.14-.37s0-.08,0-.12,0-.1,0-.15a1.6,1.6,0,0,1,0-.21,2.47,2.47,0,0,1,0-.38s0-.09,0-.14,0-.24,0-.35,0-.46,0-.68a.59.59,0,0,0,0-.13,2,2,0,0,1,0-.24l.06-.23a1.58,1.58,0,0,1,.09-.31,11.51,11.51,0,0,1-2.31.93c0,.14,0,.28,0,.43l0,.38a1.77,1.77,0,0,0,0,.23c0,.17,0,.33,0,.49a5.29,5.29,0,0,0,.4,2.26,5.86,5.86,0,0,0,7.63,2.59C90.37,117.43,91.77,113.42,89.15,110.73ZM64,108.83c-1.28-1.86-3.05-.23-4.08,1.11a1.08,1.08,0,0,1-2-.82c.4-2.32,2.32-4.53,4.87-4.23a2.65,2.65,0,0,1,.69.15,15,15,0,0,1-1-3,5.46,5.46,0,0,0-.69.1l-.35.07-.35.09a6.2,6.2,0,0,0-.69.23l-.06,0-.2.08-.08,0a5.72,5.72,0,0,0-.66.32,2.11,2.11,0,0,0-.33.18l-.32.19a3.13,3.13,0,0,0-.3.2l-.27.19-.2.15-.3.24c-.14.12-.29.25-.43.39a.57.57,0,0,0-.11.11,7.35,7.35,0,0,0-.84.93c-.06.08-.13.16-.18.24a.47.47,0,0,0-.06.09,2.2,2.2,0,0,0-.17.25l-.19.3c-.06.1-.11.2-.16.3a4.71,4.71,0,0,0-.31.69,1.17,1.17,0,0,0-.09.24,5,5,0,0,0-.17.64l-.06.31a1.82,1.82,0,0,0,0,.32s0,0,0,0a4.72,4.72,0,0,0,0,.92l0,.2a1.46,1.46,0,0,0,0,.2,7391346463759,7391346463759,0,0,1,.1.38,4.68,4.68,0,0,0,.86,1.48,4.12,4.12,0,0,0,.28.31c.1.1.2.2.32.3,2,1.76,5.87,2.71,7.64.08C65.19,111.45,64.89,110.16,64,108.83Zm23.48-5.66.31,0h.37l.13,0a1.66,1.66,0,0,0,.21-.06,1.15,1.15,0,0,0,.25-.12l.23-.17.11-.11a.6.6,0,0,1,.08-.08l.1-.15a1.8,1.8,0,0,0,.23-.46l0-.08a.84.84,0,0,0,0-.17,2.56,2.56,0,0,0,.09-1s0,0,0-.06a1.18,1.18,0,0,0,0-.2.29.29,0,0,0,0-.09,1,1,0,0,0-.08-.23.32.32,0,0,0,0-.09.54.54,0,0,0,0-.11.93.93,0,0,0,0-.1.42.42,0,0,0-.09-.14.22.22,0,0,0,0-.08,1.69,1.69,0,0,0-.3-.36.38.38,0,0,0-.09-.09l-.1-.09a0,0,0,0,0,0,0l-.12-.1-.2-.13a1,1,0,0,0-.22-.13L88,98.58a.76.76,0,0,0-.16-.06l-.12,0-.12,0-.23-.06a18.2,18.2,0,0,1-.21,4.73A2.25,2.25,0,0,0,87.47,103.17Zm1.68,7.56a2.81,2.81,0,0,0-4.34.14c-1.07,1.27-1.22,4.32,1.21,3.64a1.1,1.1,0,0,1,.84,2,3.56,3.56,0,0,1-5.23-1.75c0-.12-.1-.25-.14-.37s0-.08,0-.12,0-.1,0-.15a1.6,1.6,0,0,1,0-.21,2.47,2.47,0,0,1,0-.38s0-.09,0-.14,0-.24,0-.35,0-.46,0-.68a.59.59,0,0,0,0-.13,2,2,0,0,1,0-.24l.06-.23a1.58,1.58,0,0,1,.09-.31,11.51,11.51,0,0,1-2.31.93c0,.14,0,.28,0,.43l0,.38a1.77,1.77,0,0,0,0,.23c0,.17,0,.33,0,.49a5.29,5.29,0,0,0,.4,2.26,5.86,5.86,0,0,0,7.63,2.59C90.37,117.43,91.77,113.42,89.15,110.73Zm-29.24-.79a1.08,1.08,0,0,1-2-.82c.4-2.32,2.32-4.53,4.87-4.23a2.65,2.65,0,0,1,.69.15,15,15,0,0,1-1-3,5.46,5.46,0,0,0-.69.1l-.35.07-.35.09a6.2,6.2,0,0,0-.69.23l-.06,0-.2.08-.08,0a5.72,5.72,0,0,0-.66.32,2.11,2.11,0,0,0-.33.18l-.32.19a3.13,3.13,0,0,0-.3.2l-.27.19-.2.15-.3.24c-.14.12-.29.25-.43.39a.57.57,0,0,0-.11.11,7.35,7.35,0,0,0-.84.93c-.06.08-.13.16-.18.24a.47.47,0,0,0-.06.09,2.2,2.2,0,0,0-.17.25l-.19.3c-.06.1-.11.2-.16.3a4.71,4.71,0,0,0-.31.69,1.17,1.17,0,0,0-.09.24,5,5,0,0,0-.17.64l-.06.31a1.82,1.82,0,0,0,0,.32s0,0,0,0a4.72,4.72,0,0,0,0,.92l0,.2a1.46,1.46,0,0,0,0,.2,7391346463759,7391346463759,0,0,1,.1.38,4.68,4.68,0,0,0,.86,1.48,4.12,4.12,0,0,0,.28.31c.1.1.2.2.32.3,2,1.76,5.87,2.71,7.64.08.94-1.41.64-2.7-.26-4C62.71,107,60.94,108.6,59.91,109.94Zm47.4-12.41A32.33,32.33,0,0,0,103.21,86c-.45-.76-.94-1.51-1.46-2.23A30.05,30.05,0,0,0,97,78.53a47.19,47.19,0,0,0-9.92-6.36c-3.35-1.67-7-2.78-10.29-4.47a2,2,0,0,1-.4-3.07c1.22-1.5,2.44-3,3.68-4.45.4-.46.79-.93,1.19-1.38a132.76,132.76,0,0,1,15.4-15.52c-3.32-4.81-7.94-8.46-12.79-11.69-1.2-.79-2.41-1.57-3.62-2.34-1.72-1.09-2.61-1.79-4.61-.76a41.16,41.16,0,0,0-6.4,4.3l-1.12.89c-.38.3-.75.62-1.12.94l-1,.9a90.52,90.52,0,0,0-6.89,8.21c-.43.58-.85,1.17-1.27,1.76h0c-.85,1.22-1.68,2.47-2.46,3.74a82.72,82.72,0,0,0-5.31,10c-.24.54-.47,1.07-.69,1.61-.47,1.1-.9,2.2-1.31,3.32-.1.25-.19.5-.28.76-.2.56-.4,1.12-.58,1.69-.77,2.27-1.45,4.58-2,6.91-.22.85-.42,1.7-.59,2.55A81.68,81.68,0,0,0,43,85.56a76.15,76.15,0,0,0-.21,14.72c0,.55.11,1.09.18,1.64a44.7,44.7,0,0,0,1.94,8.72l0,.09c.31.9.65,1.77,1,2.62s.77,1.66,1.21,2.45.79,1.39,1.23,2a27.08,27.08,0,0,0,7.83,7.84c.39.26.79.51,1.21.75a22.46,22.46,0,0,0,2.07,1.08l.13.06c.67.32,1.35.61,2,.89a49,49,0,0,0,6.79,2.2A46.23,46.23,0,0,0,77.68,132c1.23.06,2.44.06,3.64,0q.95,0,1.89-.12t2.13-.27c.85-.14,1.7-.3,2.54-.51s1.71-.46,2.55-.75a27.06,27.06,0,0,0,4.38-1.92,24.19,24.19,0,0,0,2.81-1.78,22.37,22.37,0,0,0,4.77-4.7,19.48,19.48,0,0,0,1.16-1.74c.12-.2.24-.4.34-.61a27.39,27.39,0,0,0,1.94-4.27c.3-.84.56-1.7.78-2.57s.45-1.83.61-2.77c.11-.62.21-1.25.28-1.88A39,39,0,0,0,107.31,97.53Zm-40,12.39a12.29,12.29,0,0,1-2.58-2.71,14.56,14.56,0,0,1-2.18-5.14,16.79,16.79,0,0,1-.28-1.75A15.17,15.17,0,0,1,64.81,90a11.94,11.94,0,0,1,9.11-4.67,13,13,0,0,1,2.16,0,11.54,11.54,0,0,1,7.72,3.78,15.92,15.92,0,0,1,3.33,7.72c.08.5.15,1,.19,1.5a18.2,18.2,0,0,1-.21,4.73,15.06,15.06,0,0,1-.65,2.46,12.15,12.15,0,0,1-.77,1.72,10.16,10.16,0,0,1-2.44,3,11.2,11.2,0,0,1-1.71,1.16,11.51,11.51,0,0,1-2.31.93,13.23,13.23,0,0,1-2,.39A14,14,0,0,1,67.3,109.92ZM64,108.83c-1.28-1.86-3.05-.23-4.08,1.11a1.08,1.08,0,0,1-2-.82c.4-2.32,2.32-4.53,4.87-4.23a2.65,2.65,0,0,1,.69.15,15,15,0,0,1-1-3,5.46,5.46,0,0,0-.69.1l-.35.07-.35.09a6.2,6.2,0,0,0-.69.23l-.06,0-.2.08-.08,0a5.72,5.72,0,0,0-.66.32,2.11,2.11,0,0,0-.33.18l-.32.19a3.13,3.13,0,0,0-.3.2l-.27.19-.2.15-.3.24c-.14.12-.29.25-.43.39a.57.57,0,0,0-.11.11,7.35,7.35,0,0,0-.84.93c-.06.08-.13.16-.18.24a.47.47,0,0,0-.06.09,2.2,2.2,0,0,0-.17.25l-.19.3c-.06.1-.11.2-.16.3a4.71,4.71,0,0,0-.31.69,1.17,1.17,0,0,0-.09.24,5,5,0,0,0-.17.64l-.06.31a1.82,1.82,0,0,0,0,.32s0,0,0,0a4.72,4.72,0,0,0,0,.92l0,.2a1.46,1.46,0,0,0,0,.2,7391346463759,7391346463759,0,0,1,.1.38,4.68,4.68,0,0,0,.86,1.48,4.12,4.12,0,0,0,.28.31c.1.1.2.2.32.3,2,1.76,5.87,2.71,7.64.08C65.19,111.45,64.89,110.16,64,108.83Zm25.16,1.9a2.81,2.81,0,0,0-4.34.14c-1.07,1.27-1.22,4.32,1.21,3.64a1.1,1.1,0,0,1,.84,2,3.56,3.56,0,0,1-5.23-1.75c0-.12-.1-.25-.14-.37s0-.08,0-.12,0-.1,0-.15a1.6,1.6,0,0,1,0-.21,2.47,2.47,0,0,1,0-.38s0-.09,0-.14,0-.24,0-.35,0-.46,0-.68a.59.59,0,0,0,0-.13,2,2,0,0,1,0-.24l.06-.23a1.58,1.58,0,0,1,.09-.31,11.51,11.51,0,0,1-2.31.93c0,.14,0,.28,0,.43l0,.38a1.77,1.77,0,0,0,0,.23c0,.17,0,.33,0,.49a5.29,5.29,0,0,0,.4,2.26,5.86,5.86,0,0,0,7.63,2.59C90.37,117.43,91.77,113.42,89.15,110.73Zm.51-10s0,0,0-.06a1.18,1.18,0,0,0,0-.2.29.29,0,0,0,0-.09,1,1,0,0,0-.08-.23.32.32,0,0,0,0-.09.54.54,0,0,0,0-.11.93.93,0,0,0,0-.1.42.42,0,0,0-.09-.14.22.22,0,0,0,0-.08,1.69,1.69,0,0,0-.3-.36.38.38,0,0,0-.09-.09l-.1-.09a0,0,0,0,0,0,0l-.12-.1-.2-.13a1,1,0,0,0-.22-.13L88,98.58a.76.76,0,0,0-.16-.06l-.12,0-.12,0-.23-.06a18.2,18.2,0,0,1-.21,4.73,2.25,2.25,0,0,0,.36.06l.31,0h.37l.13,0a1.66,1.66,0,0,0,.21-.06,1.15,1.15,0,0,0,.25-.12l.23-.17.11-.11a.6.6,0,0,1,.08-.08l.1-.15a1.8,1.8,0,0,0,.23-.46l0-.08a.84.84,0,0,0,0-.17A2.56,2.56,0,0,0,89.66,100.72ZM64,108.83c-1.28-1.86-3.05-.23-4.08,1.11a1.08,1.08,0,0,1-2-.82c.4-2.32,2.32-4.53,4.87-4.23a2.65,2.65,0,0,1,.69.15,15,15,0,0,1-1-3,5.46,5.46,0,0,0-.69.1l-.35.07-.35.09a6.2,6.2,0,0,0-.69.23l-.06,0-.2.08-.08,0a5.72,5.72,0,0,0-.66.32,2.11,2.11,0,0,0-.33.18l-.32.19a3.13,3.13,0,0,0-.3.2l-.27.19-.2.15-.3.24c-.14.12-.29.25-.43.39a.57.57,0,0,0-.11.11,7.35,7.35,0,0,0-.84.93c-.06.08-.13.16-.18.24a.47.47,0,0,0-.06.09,2.2,2.2,0,0,0-.17.25l-.19.3c-.06.1-.11.2-.16.3a4.71,4.71,0,0,0-.31.69,1.17,1.17,0,0,0-.09.24,5,5,0,0,0-.17.64l-.06.31a1.82,1.82,0,0,0,0,.32s0,0,0,0a4.72,4.72,0,0,0,0,.92l0,.2a1.46,1.46,0,0,0,0,.2,7391346463759,7391346463759,0,0,1,.1.38,4.68,4.68,0,0,0,.86,1.48,4.12,4.12,0,0,0,.28.31c.1.1.2.2.32.3,2,1.76,5.87,2.71,7.64.08C65.19,111.45,64.89,110.16,64,108.83Zm25.16,1.9a2.81,2.81,0,0,0-4.34.14c-1.07,1.27-1.22,4.32,1.21,3.64a1.1,1.1,0,0,1,.84,2,3.56,3.56,0,0,1-5.23-1.75c0-.12-.1-.25-.14-.37s0-.08,0-.12,0-.1,0-.15a1.6,1.6,0,0,1,0-.21c0-.13,0-.25,0-.38s0-.09,0-.14,0-.24,0-.35,0-.46,0-.68a.59.59,0,0,0,0-.13,2,2,0,0,1,0-.24l.06-.23a1.58,1.58,0,0,1,.09-.31,11.51,11.51,0,0,1-2.31.93c0,.14,0,.28,0,.43l0,.38a1.77,1.77,0,0,0,0,.23c0,.17,0,.33,0,.49a5.29,5.29,0,0,0,.4,2.26,5.86,5.86,0,0,0,7.63,2.59C90.37,117.43,91.77,113.42,89.15,110.73Zm.51-10s0,0,0-.06a1.18,1.18,0,0,0,0-.2.29.29,0,0,0,0-.09,1,1,0,0,0-.08-.23.32.32,0,0,0,0-.09.54.54,0,0,0,0-.11.93.93,0,0,0,0-.1.42.42,0,0,0-.09-.14.22.22,0,0,0,0-.08,1.69,1.69,0,0,0-.3-.36.38.38,0,0,0-.09-.09l-.1-.09a0,0,0,0,0,0,0l-.12-.1-.2-.13a1,1,0,0,0-.22-.13L88,98.58a.76.76,0,0,0-.16-.06l-.12,0-.12,0-.23-.06a18.2,18.2,0,0,1-.21,4.73,2.25,2.25,0,0,0,.36.06l.31,0h.37l.13,0a1.66,1.66,0,0,0,.21-.06,1.15,1.15,0,0,0,.25-.12l.23-.17.11-.11a.6.6,0,0,1,.08-.08l.1-.15a1.8,1.8,0,0,0,.23-.46l0-.08a.84.84,0,0,0,0-.17A2.56,2.56,0,0,0,89.66,100.72ZM64,108.83c-1.28-1.86-3.05-.23-4.08,1.11a1.08,1.08,0,0,1-2-.82c.4-2.32,2.32-4.53,4.87-4.23a2.65,2.65,0,0,1,.69.15,15,15,0,0,1-1-3,5.46,5.46,0,0,0-.69.1l-.35.07-.35.09a6.2,6.2,0,0,0-.69.23l-.06,0-.2.08-.08,0a5.72,5.72,0,0,0-.66.32,2.11,2.11,0,0,0-.33.18l-.32.19a3.13,3.13,0,0,0-.3.2l-.27.19-.2.15-.3.24c-.14.12-.29.25-.43.39a.57.57,0,0,0-.11.11,7.35,7.35,0,0,0-.84.93c-.06.08-.13.16-.18.24a.47.47,0,0,0-.06.09,2.2,2.2,0,0,0-.17.25l-.19.3c-.06.1-.11.2-.16.3a4.71,4.71,0,0,0-.31.69,1.17,1.17,0,0,0-.09.24,5,5,0,0,0-.17.64l-.06.31a1.82,1.82,0,0,0,0,.32s0,0,0,0a4.72,4.72,0,0,0,0,.92l0,.2a1.46,1.46,0,0,0,0,.2,7391346463759,7391346463759,0,0,1,.1.38,4.68,4.68,0,0,0,.86,1.48,4.12,4.12,0,0,0,.28.31c.1.1.2.2.32.3,2,1.76,5.87,2.71,7.64.08C65.19,111.45,64.89,110.16,64,108.83Zm25.16,1.9a2.81,2.81,0,0,0-4.34.14c-1.07,1.27-1.22,4.32,1.21,3.64a1.1,1.1,0,0,1,.84,2,3.56,3.56,0,0,1-5.23-1.75c0-.12-.1-.25-.14-.37s0-.08,0-.12,0-.1,0-.15a1.6,1.6,0,0,1,0-.21c0-.13,0-.25,0-.38s0-.09,0-.14,0-.24,0-.35,0-.46,0-.68a.59.59,0,0,0,0-.13,2,2,0,0,1,0-.24l.06-.23a1.58,1.58,0,0,1,.09-.31,11.51,11.51,0,0,1-2.31.93c0,.14,0,.28,0,.43l0,.38a1.77,1.77,0,0,0,0,.23c0,.17,0,.33,0,.49a5.29,5.29,0,0,0,.4,2.26,5.86,5.86,0,0,0,7.63,2.59C90.37,117.43,91.77,113.42,89.15,110.73Zm.51-10s0,0,0-.06a1.18,1.18,0,0,0,0-.2.29.29,0,0,0,0-.09,1,1,0,0,0-.08-.23.32.32,0,0,0,0-.09.54.54,0,0,0,0-.11.93.93,0,0,0,0-.1.42.42,0,0,0-.09-.14.22.22,0,0,0,0-.08,1.69,1.69,0,0,0-.3-.36.38.38,0,0,0-.09-.09l-.1-.09a0,0,0,0,0,0,0l-.12-.1-.2-.13a1,1,0,0,0-.22-.13L88,98.58a.76.76,0,0,0-.16-.06l-.12,0-.12,0-.23-.06a18.2,18.2,0,0,1-.21,4.73,2.25,2.25,0,0,0,.36.06l.31,0h.37l.13,0a1.66,1.66,0,0,0,.21-.06,1.15,1.15,0,0,0,.25-.12l.23-.17.11-.11a.6.6,0,0,1,.08-.08l.1-.15a1.8,1.8,0,0,0,.23-.46l0-.08a.84.84,0,0,0,0-.17A2.56,2.56,0,0,0,89.66,100.72ZM64,108.83c-1.28-1.86-3.05-.23-4.08,1.11a1.08,1.08,0,0,1-2-.82c.4-2.32,2.32-4.53,4.87-4.23a2.65,2.65,0,0,1,.69.15,15,15,0,0,1-1-3,5.46,5.46,0,0,0-.69.1l-.35.07-.35.09a6.2,6.2,0,0,0-.69.23l-.06,0-.2.08-.08,0a5.72,5.72,0,0,0-.66.32,2.11,2.11,0,0,0-.33.18l-.32.19a3.13,3.13,0,0,0-.3.2l-.27.19-.2.15-.3.24c-.14.12-.29.25-.43.39a.57.57,0,0,0-.11.11,7.35,7.35,0,0,0-.84.93c-.06.08-.13.16-.18.24a.47.47,0,0,0-.06.09,2.2,2.2,0,0,0-.17.25l-.19.3c-.06.1-.11.2-.16.3a4.71,4.71,0,0,0-.31.69,1.17,1.17,0,0,0-.09.24,5,5,0,0,0-.17.64l-.06.31a1.82,1.82,0,0,0,0,.32s0,0,0,0a4.72,4.72,0,0,0,0,.92l0,.2a1.46,1.46,0,0,0,0,.2,7391346463759,7391346463759,0,0,1,.1.38,4.68,4.68,0,0,0,.86,1.48,4.12,4.12,0,0,0,.28.31c.1.1.2.2.32.3,2,1.76,5.87,2.71,7.64.08C65.19,111.45,64.89,110.16,64,108.83Zm25.16,1.9a2.81,2.81,0,0,0-4.34.14c-1.07,1.27-1.22,4.32,1.21,3.64a1.1,1.1,0,0,1,.84,2,3.56,3.56,0,0,1-5.23-1.75c0-.12-.1-.25-.14-.37s0-.08,0-.12,0-.1,0-.15a1.6,1.6,0,0,1,0-.21c0-.13,0-.25,0-.38s0-.09,0-.14,0-.24,0-.35,0-.46,0-.68a.59.59,0,0,0,0-.13,2,2,0,0,1,0-.24l.06-.23a1.58,1.58,0,0,1,.09-.31,11.51,11.51,0,0,1-2.31.93c0,.14,0,.28,0,.43l0,.38a1.77,1.77,0,0,0,0,.23c0,.17,0,.33,0,.49a5.29,5.29,0,0,0,.4,2.26,5.86,5.86,0,0,0,7.63,2.59C90.37,117.43,91.77,113.42,89.15,110.73Zm.51-10s0,0,0-.06a1.18,1.18,0,0,0,0-.2.29.29,0,0,0,0-.09,1,1,0,0,0-.08-.23.32.32,0,0,0,0-.09.54.54,0,0,0,0-.11.93.93,0,0,0,0-.1.42.42,0,0,0-.09-.14.22.22,0,0,0,0-.08,1.69,1.69,0,0,0-.3-.36.38.38,0,0,0-.09-.09l-.1-.09a0,0,0,0,0,0,0l-.12-.1-.2-.13a1,1,0,0,0-.22-.13L88,98.58a.76.76,0,0,0-.16-.06l-.12,0-.12,0-.23-.06a18.2,18.2,0,0,1-.21,4.73,2.25,2.25,0,0,0,.36.06l.31,0h.37l.13,0a1.66,1.66,0,0,0,.21-.06,1.15,1.15,0,0,0,.25-.12l.23-.17.11-.11a.6.6,0,0,1,.08-.08l.1-.15a1.8,1.8,0,0,0,.23-.46l0-.08a.84.84,0,0,0,0-.17A2.56,2.56,0,0,0,89.66,100.72ZM64,108.83c-1.28-1.86-3.05-.23-4.08,1.11a1.08,1.08,0,0,1-2-.82c.4-2.32,2.32-4.53,4.87-4.23a2.65,2.65,0,0,1,.69.15,15,15,0,0,1-1-3,5.46,5.46,0,0,0-.69.1l-.35.07-.35.09a6.2,6.2,0,0,0-.69.23l-.06,0-.2.08-.08,0a5.72,5.72,0,0,0-.66.32,2.11,2.11,0,0,0-.33.18l-.32.19a3.13,3.13,0,0,0-.3.2l-.27.19-.2.15-.3.24c-.14.12-.29.25-.43.39a.57.57,0,0,0-.11.11,7.35,7.35,0,0,0-.84.93c-.06.08-.13.16-.18.24a.47.47,0,0,0-.06.09,2.2,2.2,0,0,0-.17.25l-.19.3c-.06.1-.11.2-.16.3a4.71,4.71,0,0,0-.31.69,1.17,1.17,0,0,0-.09.24,5,5,0,0,0-.17.64l-.06.31a1.82,1.82,0,0,0,0,.32s0,0,0,0a4.72,4.72,0,0,0,0,.92l0,.2a1.46,1.46,0,0,0,0,.2,7391346463759,7391346463759,0,0,1,.1.38,4.68,4.68,0,0,0,.86,1.48,4.12,4.12,0,0,0,.28.31c.1.1.2.2.32.3,2,1.76,5.87,2.71,7.64.08C65.19,111.45,64.89,110.16,64,108.83Zm25.16,1.9a2.81,2.81,0,0,0-4.34.14c-1.07,1.27-1.22,4.32,1.21,3.64a1.1,1.1,0,0,1,.84,2,3.56,3.56,0,0,1-5.23-1.75c0-.12-.1-.25-.14-.37s0-.08,0-.12,0-.1,0-.15a1.6,1.6,0,0,1,0-.21c0-.13,0-.25,0-.38s0-.09,0-.14,0-.24,0-.35,0-.46,0-.68a.59.59,0,0,0,0-.13,2,2,0,0,1,0-.24l.06-.23a1.58,1.58,0,0,1,.09-.31,11.51,11.51,0,0,1-2.31.93c0,.14,0,.28,0,.43l0,.38a1.77,1.77,0,0,0,0,.23c0,.17,0,.33,0,.49a5.29,5.29,0,0,0,.4,2.26,5.86,5.86,0,0,0,7.63,2.59C90.37,117.43,91.77,113.42,89.15,110.73Zm.51-10s0,0,0-.06a1.18,1.18,0,0,0,0-.2.29.29,0,0,0,0-.09,1,1,0,0,0-.08-.23.32.32,0,0,0,0-.09.54.54,0,0,0,0-.11.93.93,0,0,0,0-.1.42.42,0,0,0-.09-.14.22.22,0,0,0,0-.08,1.69,1.69,0,0,0-.3-.36.38.38,0,0,0-.09-.09l-.1-.09a0,0,0,0,0,0,0l-.12-.1-.2-.13a1,1,0,0,0-.22-.13L88,98.58a.76.76,0,0,0-.16-.06l-.12,0-.12,0-.23-.06a18.2,18.2,0,0,1-.21,4.73,2.25,2.25,0,0,0,.36.06l.31,0h.37l.13,0a1.66,1.66,0,0,0,.21-.06,1.15,1.15,0,0,0,.25-.12l.23-.17.11-.11a.6.6,0,0,1,.08-.08l.1-.15a1.8,1.8,0,0,0,.23-.46l0-.08a.84.84,0,0,0,0-.17A2.56,2.56,0,0,0,89.66,100.72Z"/><path class="cls-2" d="M72.41,52.58c-1,6.2-8.87,9.73-14,5.76-3.1-2.42-3.74-5.76-3.12-9.1.78-1.27,1.61-2.52,2.46-3.74a10.83,10.83,0,0,0-.75,7,6.42,6.42,0,0,0,8.38,4.82c3.8-1.2,6.6-7,2.58-9.69a3.46,3.46,0,0,0-4.94.93c-1.77,2.66.34,4.69,3.08,3.35,1-.47,2.07.75,1.21,1.57-1.88,1.79-5,2.21-6.68-.16-1.51-2.17-.77-5.25,1-7.07C66.25,41.33,73.36,46.69,72.41,52.58Z"/><path class="cls-2" d="M84.86,52.8C79,54.52,76.56,47.05,82,44.66c1.29-.56,2.4,1.18,1.13,1.94A3.9,3.9,0,0,0,81.56,48c.13.83.27,1.65.41,2.48.68.72,2.62,0,3.27-.35a5,5,0,0,0,2.86-4.23c0-5.16-6.35-3.81-8.35-1-3,4.27-1.8,10.13,1.49,13.9-.4.45-.79.92-1.19,1.38A13.16,13.16,0,0,1,76,47.92c1-5.12,6.33-10.31,11.69-7.13S89.85,51.33,84.86,52.8Z"/><path class="cls-2" d="M77.34,42.27a7.54,7.54,0,0,1-10.34-6,6.76,6.76,0,0,1,0-1.62c.37-.32.74-.64,1.12-.94l1.12-.89c-1,2.81-.48,5.82,2.65,7.44a5.7,5.7,0,0,0,7.34-2.48c.74-1.48.78-4.11-1.21-4.7-2.46-.74-3,2-2.72,3.76a.88.88,0,0,1-1.45.84c-3.78-3.81,2.31-9.13,6.29-6.1S81.17,40.65,77.34,42.27Z"/><path class="cls-2" d="M71.41,68.85A3.92,3.92,0,0,0,65.63,70c-1.13,1.8-.66,5.25,2,5.13a1,1,0,0,0,.89-1.55c-.37-.67-1.06-1.3-.53-2.21,1.12-1.91,2.74.27,3.14,1a4.67,4.67,0,0,1-.18,4.55c-2,3.06-7.32,3.85-9.69.92-4.79-5.91,5.09-15.52,11.13-14.11.73.18,1-.95.31-1.12-6.14-1.45-12.87,3.86-14.42,9.71-1.65,6.2,3.68,11,9.72,9.36C73.5,80.19,76.74,72.74,71.41,68.85Z"/><path class="cls-2" d="M47.15,66.64c.18-.57.38-1.13.58-1.69.09-.26.18-.51.28-.76a3.82,3.82,0,0,1,2.87,1.14,3.54,3.54,0,0,1-1.36,5.53c-.67.24-1.23-.48-1.09-1.08A13.39,13.39,0,0,0,49,68.43C49,66.65,48.18,66.46,47.15,66.64Z"/><path class="cls-2" d="M48.16,77.14a8.42,8.42,0,0,1-3.62-1c.17-.85.37-1.7.59-2.55,1.88,1.34,5,1.17,7,.12,2.81-1.46,5.88-4.58,5-8a6.15,6.15,0,0,0-3.67-4.05,8.69,8.69,0,0,0-4.16-.73c.22-.54.45-1.07.69-1.61a9.92,9.92,0,0,1,3.37.27,8.27,8.27,0,0,1,6,5.87C60.87,71.49,53.9,77.43,48.16,77.14Z"/><path class="cls-2" d="M59.47,86.78c-3.76-4-10.22,1-6.12,5,1.12,1.08,2.65-.52,1.69-1.68-.76-.92-.57-1.49.55-1.71.54-.7,1-.76,1.54-.17a3.2,3.2,0,0,1,1.49,2.24,6.18,6.18,0,0,1-.54,4.28,6.73,6.73,0,0,1-8.48,2.85C42.07,94.46,48.34,81.28,55,82.09c.77.09,1-1.26.19-1.38-5.79-.83-10.88,6.24-11,11.54-.14,6.14,6.24,9.57,11.68,7.43C60.73,97.77,63.31,90.88,59.47,86.78Z"/><path class="cls-2" d="M81.32,85.64c-1.65-2.08-1.93-5.42.42-7.13C83.81,77,87.18,78.18,87,81c-.05,1-1.57,1.63-2.07.56-.72-1.52-2.85,0-2.42,1.44a3.39,3.39,0,0,0,2.83,2.44c2.15.16,3.79-1.83,4.67-3.52,2.07-4-1.53-6.86-5.41-6.73-5.34.18-8.91,5.4-8.56,10.24a13,13,0,0,0-2.16,0A12.46,12.46,0,0,1,78.81,75c4.24-3.19,13.39-2.88,14.34,3.69C94,84.45,85.75,91.25,81.32,85.64Z"/><path class="cls-2" d="M59.45,116.72c-4.94-1-8.29-6-5.68-10.65a11,11,0,0,1,8.49-5.75,16.79,16.79,0,0,0,.28,1.75,5.46,5.46,0,0,0-.69.1l-.35.07-.35.09a6.2,6.2,0,0,0-.69.23l-.06,0-.2.08-.08,0a5.72,5.72,0,0,0-.66.32,2.11,2.11,0,0,0-.33.18l-.32.19a3.13,3.13,0,0,0-.3.2l-.27.19-.2.15-.3.24c-.14.12-.29.25-.43.39a.57.57,0,0,0-.11.11,7.35,7.35,0,0,0-.84.93c-.06.08-.13.16-.18.24a.47.47,0,0,0-.06.09,1.38,1.38,0,0,0-.17.25,2.2,2.2,0,0,0-.19.3,1.73,1.73,0,0,0-.16.3,4.71,4.71,0,0,0-.31.69,1.17,1.17,0,0,0-.09.24,3.79,3.79,0,0,0-.17.64,1.88,1.88,0,0,0-.06.31,1.82,1.82,0,0,0,0,.32s0,0,0,0a3.55,3.55,0,0,0,0,.92.75.75,0,0,0,0,.2,1.46,1.46,0,0,0,0,.2,7391346463759,7391346463759,0,0,1,.1.38,4.68,4.68,0,0,0,.86,1.48,4.12,4.12,0,0,0,.28.31c.1.1.2.2.32.3,2,1.76,5.87,2.71,7.64.08.94-1.41.64-2.7-.26-4-1.28-1.86-3.05-.23-4.08,1.11a1.08,1.08,0,0,1-2-.82c.4-2.32,2.32-4.53,4.87-4.23a2.65,2.65,0,0,1,.69.15,14.84,14.84,0,0,0,1.21,2.17,12.29,12.29,0,0,0,2.58,2.71C68.19,114.24,63.68,117.61,59.45,116.72Z"/><path class="cls-2" d="M79.31,128.61a9.07,9.07,0,0,1-1.63,3.4,46.23,46.23,0,0,1-9.18-1.34,9.5,9.5,0,0,1-.49-.95c-.87-2-1.52-5.88,1-7.13,2.2-1.1,4.07,1.23,4,3.26a1.13,1.13,0,0,1-2.1.57c-.3-.44-.52-1.38-1-.59-.26.38.17,1.74.31,2.16.58,1.78,2.5,4.36,4.63,3.13,3-1.7,2.83-6.86.71-9.06-3.93-4.07-14,.74-13.83,6.41-.69-.28-1.37-.57-2-.89.37-4.31,5.08-7.6,9.28-8.82,3-.85,6-.66,8.29,1.6A8.69,8.69,0,0,1,79.31,128.61Z"/><path class="cls-2" d="M92.51,117c-2.36,5.44-10.56,6.15-14,1.47a7.22,7.22,0,0,1-1.29-5.71,13.23,13.23,0,0,0,2-.39c0,.14,0,.28,0,.43l0,.38a1.77,1.77,0,0,0,0,.23c0,.17,0,.33,0,.49a5.29,5.29,0,0,0,.4,2.26,5.86,5.86,0,0,0,7.63,2.59c3.22-1.33,4.62-5.34,2-8a2.81,2.81,0,0,0-4.34.14c-1.07,1.27-1.22,4.32,1.21,3.64a1.1,1.1,0,0,1,.84,2,3.56,3.56,0,0,1-5.23-1.75c0-.12-.1-.25-.14-.37s0-.08,0-.12,0-.1,0-.15,0-.14,0-.21,0-.25,0-.38,0-.09,0-.14,0-.24,0-.35,0-.46,0-.68a.59.59,0,0,0,0-.13,2,2,0,0,1,0-.24l.06-.23a1.58,1.58,0,0,1,.09-.31,11.2,11.2,0,0,0,1.71-1.16,10.16,10.16,0,0,0,2.44-3C90.53,105.83,94.47,112.51,92.51,117Z"/><path class="cls-2" d="M94.53,101c-8.71-5.36-1.07-19.16,7.22-17.22.52.72,1,1.47,1.46,2.23-5.36-2.52-11.46,3.79-10.14,9.33.58,2.46,3.79,5.51,6.56,4.17a2.88,2.88,0,0,0,1.73-3.15,4,4,0,0,0-.93-2.24c-1.31-1.13-2.29,0-3.28,1a.87.87,0,0,1-1.44-.84c.53-2.07,2-4,4.4-3.45s3.45,3.2,3.76,5.28C104.67,101.44,98.57,103.44,94.53,101Z"/><path class="cls-2" d="M106.61,112.77c-.22.87-.48,1.73-.78,2.57a2.21,2.21,0,0,0-1.33-.87c-1.32-.31-2.46.58-3.4,1.35a.89.89,0,0,1-1.48-.87C100.3,111.65,104.13,111.24,106.61,112.77Z"/><path class="cls-2" d="M107.5,108.12c-.07.63-.17,1.26-.28,1.88a8,8,0,0,0-1.84-1.75,4.13,4.13,0,0,0-5.33,1.1c-1.69,1.91-2.85,6-1.43,8.28.89,1.47,3.37,2.35,5.27,2-.1.21-.22.41-.34.61a19.48,19.48,0,0,1-1.16,1.74,7.36,7.36,0,0,1-2.23-.44c-5.44-2-5-8.78-2.07-12.79a6.49,6.49,0,0,1,5.75-2.86A5.33,5.33,0,0,1,107.5,108.12Z"/><path class="cls-2" d="M91.6,102.62a4.18,4.18,0,0,1-3.84,3.1,4.33,4.33,0,0,1-1.3-.15,15.06,15.06,0,0,0,.65-2.46,2.25,2.25,0,0,0,.36.06l.31,0h.37l.13,0a1.66,1.66,0,0,0,.21-.06,1.15,1.15,0,0,0,.25-.12l.23-.17.11-.11a.6.6,0,0,1,.08-.08l.1-.15a1.8,1.8,0,0,0,.23-.46l0-.08a.84.84,0,0,0,0-.17,2.56,2.56,0,0,0,.09-1s0,0,0-.06a1.18,1.18,0,0,0,0-.2.29.29,0,0,0,0-.09,1,1,0,0,0-.08-.23.32.32,0,0,0,0-.09.54.54,0,0,0,0-.11.93.93,0,0,0,0-.1.42.42,0,0,0-.09-.14.22.22,0,0,0,0-.08,1.69,1.69,0,0,0-.3-.36.38.38,0,0,0-.09-.09l-.1-.09a0,0,0,0,0,0,0l-.12-.1-.2-.13a1,1,0,0,0-.22-.13L88,98.58a.76.76,0,0,0-.16-.06l-.12,0-.12,0a.86.86,0,0,0-.23-.06c0-.51-.11-1-.19-1.5A4.54,4.54,0,0,1,91.6,102.62Z"/><path class="cls-2" d="M91.81,127.72c-.29.28-.58.58-.85.89a1.45,1.45,0,0,0-.53,1.75q-1.26.44-2.55.75A3.86,3.86,0,0,1,91.1,126C92,125.91,92.37,127.14,91.81,127.72Z"/><path class="cls-2" d="M97.62,126.66a24.19,24.19,0,0,1-2.81,1.78c1.17-2.5.33-5.47-3.1-4.9-2.18.36-9,5-8.5,8.35q-.94.08-1.89.12c-.2-3.14,3.36-6.74,5.55-8.36,3.1-2.28,9.34-4,10.65,1.25A5.33,5.33,0,0,1,97.62,126.66Z"/><path class="cls-2" d="M57.47,126.44c-.42-.24-.82-.49-1.21-.75.2-2.49-2.28-6.93-3.14-7.83-2-2.13-3.73-1.5-4.69,0-.44-.66-.85-1.35-1.23-2a4.7,4.7,0,0,1,3.41-1.28c3.46,0,5.71,3.9,6.62,6.79A8.92,8.92,0,0,1,57.47,126.44Z"/><path class="cls-2" d="M46,113.35c-.37-.85-.71-1.72-1-2.62a7.16,7.16,0,0,0,1.21-4.47c-.11-2.06-1.31-4.05-3.18-4.34-.07-.55-.13-1.09-.18-1.64a5.5,5.5,0,0,1,5.33,3.62C49.24,106.65,49,111.86,46,113.35Z"/><path class="cls-3" d="M102.22,78.83c6.14,6.7,9,15.73,8.91,24.73-.12,7.92-2.29,16.51-7.63,22.55s-13.39,9-21.3,9.57a49.47,49.47,0,0,1-26.85-5.9c-7.26-4.15-12.1-11.32-14.48-19.23-2.61-8.69-2.33-18-1.06-26.93A90.44,90.44,0,0,1,46.3,60.71l.08-.17A68.1,68.1,0,0,1,69.09,29.32c1.3-1,2.64-2,4-2.9,1.18-.82,2.38-1.92,3.85-2.16,2.93-.46,6.12,2.54,8.38,4,5.88,3.9,11.42,8.34,15.12,14.44a1.79,1.79,0,0,1-.63,2.37,83.58,83.58,0,0,0-19.14,20,89.6,89.6,0,0,1,10.61,5.41A44.82,44.82,0,0,1,102.22,78.83Zm1.33,41.39c4-6.62,4.94-15.16,3.76-22.69A31.1,31.1,0,0,0,97,78.53a47.19,47.19,0,0,0-9.92-6.36c-3.35-1.67-7-2.78-10.29-4.47a2,2,0,0,1-.4-3.07c6.23-7.67,12.69-15,20.27-21.35-3.32-4.81-7.94-8.46-12.79-11.69-1.2-.79-2.41-1.57-3.62-2.34-1.72-1.09-2.61-1.79-4.61-.76a46.77,46.77,0,0,0-7.52,5.19c-.73.59-1.45,1.21-2.15,1.84a90.52,90.52,0,0,0-6.89,8.21A82.4,82.4,0,0,0,47.73,65,87.18,87.18,0,0,0,43,85.56c-.83,8.31-.78,17.09,1.91,25.08a28,28,0,0,0,14.6,16.88c7.74,3.63,17.32,5.43,25.8,4.1C92.64,130.47,99.68,126.69,103.55,120.22Z"/><path class="cls-3" d="M83.8,89.16c4.57,5.31,5.17,16.42-.55,21.13-5.53,4.56-14.57,2.68-18.53-3.08A15.57,15.57,0,0,1,64.81,90C69,84.14,79.1,83.68,83.8,89.16Zm-4.13,19.66c3.6-1.85,4.51-5.73,4.36-9.49s-.88-8.16-4.38-10.09a10.85,10.85,0,0,0-11.44,1.09A9.14,9.14,0,0,0,66.69,92c-2.26,5.63-2,12.38,3.53,16.16A9.27,9.27,0,0,0,79.67,108.82Z"/></svg>