<svg xmlns="http://www.w3.org/2000/svg" viewBox="0 0 150 160"><defs><style>.cls-1{isolation:isolate;}.cls-18,.cls-2{fill:#3a2323;}.cls-10,.cls-12,.cls-13,.cls-14,.cls-15,.cls-16,.cls-17,.cls-2,.cls-3,.cls-4,.cls-5,.cls-6,.cls-7,.cls-8,.cls-9{stroke:#fff;stroke-miterlimit:10;stroke-width:5px;}.cls-19,.cls-3{fill:#ad3532;}.cls-20,.cls-4{opacity:0.2;mix-blend-mode:overlay;}.cls-21,.cls-5{fill:#563d3d;}.cls-22,.cls-6{fill:#f2f2f2;}.cls-23,.cls-7{fill:#ffdf5a;}.cls-24,.cls-8{fill:#e8c936;}.cls-25,.cls-9{fill:#e5bb33;}.cls-10,.cls-13,.cls-26,.cls-28{fill:#a83636;}.cls-10,.cls-26{opacity:0.3;}.cls-11{opacity:0.4;}.cls-12,.cls-27{fill:#df9c08;}.cls-14,.cls-29{fill:#545010;}.cls-15,.cls-30{fill:#d36363;}.cls-16,.cls-31{fill:#686216;}.cls-17,.cls-32{fill:#ffeb99;}</style></defs><g class="cls-1"><g id="डाल"><path class="cls-2" d="M19,62V89.62c0,10.32,25.08,18.68,56,18.68s56-8.36,56-18.68V62Z"/><path class="cls-3" d="M75,94.54c-30.94,0-56-8.37-56-18.69V80.3C19,90.62,44.06,99,75,99s56-8.36,56-18.68V75.85C131,86.17,105.94,94.54,75,94.54Z"/><path class="cls-4" d="M39.1,104C39,93.18,38.83,76,38.81,62H19V89.62C19,95.38,26.8,100.53,39.1,104Z"/><path class="cls-4" d="M131,89.62V62H113.36v41.19C124.23,99.82,131,95,131,89.62Z"/><ellipse class="cls-5" cx="75" cy="62.04" rx="56.02" ry="18.68"/><ellipse class="cls-6" cx="75" cy="62.04" rx="52.65" ry="16.13"/><path class="cls-7" d="M22.46,63.08C24.21,71.51,47.06,78.17,75,78.17c26.42,0,48.29-6,52.07-13.73-1.78-2.4-3.82-4.61-6.55-5.68-1.48-.59-3.07-.8-4.58-1.28-2.79-.89-5.27-2.67-8.13-3.29-3.35-.72-7,.21-10.2-.92-2-.71-3.74-2.18-5.81-2.72-3.59-.95-7.29,1.09-11,1.09s-7-1.92-10.59-1.81c-3.19.1-6.13,1.77-9.3,2.1-3.48.38-7-.89-10.46-.52A22.46,22.46,0,0,0,44.8,53q-8.52,3.3-17,6.64A15.79,15.79,0,0,0,22.46,63.08Z"/><ellipse class="cls-8" cx="75" cy="65.54" rx="51.4" ry="12.63"/><path class="cls-9" d="M65.35,63.23a10.89,10.89,0,0,1-2,1.37,5.69,5.69,0,0,1-2.4.2l-10.85-.67c-3.28-.21-6.78-.36-9.64,1.27-.67.39-1.37,1-1.2,1.8a1.73,1.73,0,0,0,1,1.06c4,2.07,8.84-.73,13.19.24,2.21.49,4.17,1.94,6.42,2.1,2.78.19,5.34-1.6,8.11-1.85a16.86,16.86,0,0,1,4.3.4c8.27,1.42,16.71,1.32,25.09,1.08,5-.14,10.08-.38,14.47-2.66,1.07-.56,2.17-2,1.23-2.78a1.83,1.83,0,0,0-1-.3c-3.41-.28-7.13,1.38-10.14-.27.73-1.5,2.63-1.89,4.26-2.21s3.54-1,3.86-2.68c-8.41.08-16.68,3.24-25,2.41a17.52,17.52,0,0,0-5.26-.16c-1.46.29-2.6,1.55-4,1.73C72.06,63.79,69.15,60.61,65.35,63.23Z"/><path class="cls-10" d="M49.55,68.88a22.15,22.15,0,0,1,5.22-1.22c9.39-1.36,19.08-2.08,28.28.26,3.26.83,6.86,2,9.85.46a11.65,11.65,0,0,1,1.79-.92,7.49,7.49,0,0,1,2.91,0,14.85,14.85,0,0,0,5.88-.74c.77-.26,1.66-.82,1.54-1.62a43.16,43.16,0,0,1-5.9.27,51.26,51.26,0,0,1-5.52-.64,109.94,109.94,0,0,0-48.54,3.51c-1,.3-3.69,1.56-1.4,2.62C45.31,71.57,48.11,69.48,49.55,68.88Z"/><g class="cls-11"><path class="cls-12" d="M50.84,63c-1.71-2.6-5.32-2.61-7.91-1.27a12.38,12.38,0,0,1-2,1.06,17.18,17.18,0,0,1-2.24.38,7.36,7.36,0,0,0-3.86,1.38c-.3.24-.08.67.21.78a9.74,9.74,0,0,0,4.4.18,9.1,9.1,0,0,1,4.07.7c2.6.76,5.81.52,7.33-2A1.24,1.24,0,0,0,50.84,63Z"/><path class="cls-12" d="M71.18,56.92c-2.24-.67-5.32-.08-6.62,1.95A.87.87,0,0,0,64.87,60c1.62,1.22,4.46,1.18,6.31.41C72.76,59.78,73.06,57.47,71.18,56.92Z"/><path class="cls-12" d="M76.54,63.36c.27.13.48.34.76.46a4.15,4.15,0,0,0,1.16.2,2.78,2.78,0,0,0,2.14-.63,1,1,0,0,0-.2-1.57,2.81,2.81,0,0,0-2.13-.22,4.17,4.17,0,0,0-1,.32c-.31.16-.46.42-.73.61A.49.49,0,0,0,76.54,63.36Z"/><path class="cls-12" d="M104.44,58.12a18.09,18.09,0,0,0-5.67-1.26c-1.83-.1-7.17.15-6.6,3.19.6,3.22,6,2.76,8.32,2.52,1.4-.14,6.8-.23,6.63-2.47C107,58.85,105.33,58.47,104.44,58.12Z"/><path class="cls-12" d="M113,61.75a2.65,2.65,0,0,0-1.63-.65,2.29,2.29,0,0,0-1.49.33,1.78,1.78,0,0,0,0,3,2.28,2.28,0,0,0,1.49.32,2.6,2.6,0,0,0,1.63-.64A1.7,1.7,0,0,0,113,61.75Z"/><path class="cls-12" d="M114.14,65.28a2.15,2.15,0,0,0-2.3.57,1.34,1.34,0,0,0,0,1.83,2.13,2.13,0,0,0,2.3.58A1.56,1.56,0,0,0,114.14,65.28Z"/><path class="cls-12" d="M78,71.83c-2.41-.12-5.29-.5-7.39.93a1.15,1.15,0,0,0-.41,1.56c1.54,2.26,4.38,2.7,6.94,2.88s5.76.07,7.62-2.12a1.08,1.08,0,0,0,0-1.51C82.72,72,80.46,72,78,71.83Z"/><path class="cls-12" d="M96.91,71.85a3.53,3.53,0,0,0-1.36-.57,3.66,3.66,0,0,0-.81.09c-.22,0-.44.25-.61.29a.77.77,0,0,0,0,1.47c.17,0,.39.24.61.29a3.66,3.66,0,0,0,.81.1,3.55,3.55,0,0,0,1.36-.58A.64.64,0,0,0,96.91,71.85Z"/><path class="cls-12" d="M53.39,69.81c-.43-.06-.86-.14-1.29-.17a4.42,4.42,0,0,0-1.36.18.57.57,0,0,0-.4.71,2.23,2.23,0,0,0,.61,1.1,3,3,0,0,0,1.33.66c.9.2,2.43.12,2.75-1S54.15,69.91,53.39,69.81Z"/><path class="cls-12" d="M33.91,60.73a3.7,3.7,0,0,0-3.46.86.57.57,0,0,0,.25.94,3.71,3.71,0,0,0,3.41-1A.46.46,0,0,0,33.91,60.73Z"/></g><path class="cls-13" d="M85.7,60c2.24-.08,4.7-.07,6.43,1.35s1.83,4.79-.29,5.51a4.87,4.87,0,0,1-2.51-.06,93.44,93.44,0,0,0-23.9-1.5,95,95,0,0,0-11.9,1.56c-2.68.52-8.29,3.11-10.64,2.31,4.69-4.32,14.41-5.8,20.48-6.94A151.92,151.92,0,0,1,85.7,60Z"/><path class="cls-4" d="M89.33,66.75a4.87,4.87,0,0,0,2.51.06c2.12-.72,2-4.09.29-5.51A6.31,6.31,0,0,0,88.77,60c.38.43.83.82,1.24,1.23.79.82,1.47,2,1,3a2.45,2.45,0,0,1-2.41,1.14,17.78,17.78,0,0,1-2.75-.67,22.57,22.57,0,0,0-5.39-.2c-.77,0-1.75-.19-1.87-.94a1.64,1.64,0,0,0-.09-.5c-.12-.23-.43-.28-.69-.29a15.62,15.62,0,0,0-5.84.72,16.54,16.54,0,0,1-3.49,1c-2,.18-4-.75-6-.35-1.4.28-2.71,1.21-4.12,1-.61-.09-1.18-.4-1.79-.5a5.66,5.66,0,0,0-2.89.57l-3.6,1.4c-1.12.44-1.88.14-1.64-.84a18.18,18.18,0,0,0-5.55,3.27c2.35.8,8-1.79,10.64-2.31a95,95,0,0,1,11.9-1.56A93.44,93.44,0,0,1,89.33,66.75Z"/><path class="cls-14" d="M91.5,60.86s3,.51,3.9,2.87c0,0,7.15,1.82,8.61-2.64,0,0,1.47.28,1.24,1.18s-5.4,4.67-9.85,2.9a4.07,4.07,0,0,1-3.56,1.64s1.09-2.6-.34-2.78C91.5,64,93.16,63.61,91.5,60.86Z"/><path class="cls-15" d="M63.64,62.66a3.05,3.05,0,0,0-2.27.17,16.09,16.09,0,0,0-2.53,1.06.08.08,0,0,0,0,.15,7.78,7.78,0,0,0,2.68,0c.79-.13,1.79-.25,2.21-1A.31.31,0,0,0,63.64,62.66Z"/><path class="cls-15" d="M73.63,61.27a11.32,11.32,0,0,0-3.93.19c-1.21.2-2.65.29-3.58,1.17a.27.27,0,0,0,.06.42,5.54,5.54,0,0,0,3.42.14A10.42,10.42,0,0,0,73.73,62C74,61.83,74,61.33,73.63,61.27Z"/><path class="cls-15" d="M87.73,62.92A2.75,2.75,0,0,0,86,62.55a6.72,6.72,0,0,0-1.87.5c-.17.05-.22.36,0,.39,1.22.18,2.4.59,3.58,0A.3.3,0,0,0,87.73,62.92Z"/><path class="cls-15" d="M87.53,61.54a.89.89,0,0,0-.7-.22,1.57,1.57,0,0,0-.37,0c-.14,0-.26.1-.4.13a.22.22,0,0,0,0,.41,3.59,3.59,0,0,1,.35.12,2,2,0,0,0,.42.06.88.88,0,0,0,.7-.22A.25.25,0,0,0,87.53,61.54Z"/><path class="cls-16" d="M93.79,62.52a1.48,1.48,0,0,0-.31-.25.57.57,0,0,0-.22-.11c-.21,0-.24,0-.12,0a.59.59,0,0,0-.74.57c0-.11,0-.1,0,0a.53.53,0,0,0,0,.28.85.85,0,0,0,.17.29,1,1,0,0,0,.54.36A.69.69,0,0,0,93.79,62.52Z"/><path class="cls-16" d="M94.19,64.09a1.84,1.84,0,0,0-.17-.22c-.47-.52-1.28.14-1,.73a.92.92,0,0,0,.17.22.61.61,0,0,0,.79,0A.59.59,0,0,0,94.19,64.09Z"/><path class="cls-16" d="M103.61,62.49a25.48,25.48,0,0,1-2.73,1.21c-.87.28-1.84.24-2.67.59a.25.25,0,0,0-.06.46c1.81.94,4.66-.48,5.65-2.07C103.89,62.55,103.73,62.43,103.61,62.49Z"/><path class="cls-17" d="M64.76,70.67A2.29,2.29,0,0,0,63,70.56a5.24,5.24,0,0,0-1.85.61.43.43,0,0,0,.1.77,5.18,5.18,0,0,0,2,0,2.2,2.2,0,0,0,1.63-.71A.41.41,0,0,0,64.76,70.67Z"/><path class="cls-17" d="M70.65,70.42a1.81,1.81,0,0,0-1.39-.5,4.74,4.74,0,0,0-1.72.17.61.61,0,0,0,0,1.17,5.22,5.22,0,0,0,1.72.17,1.85,1.85,0,0,0,1.39-.51A.35.35,0,0,0,70.65,70.42Z"/><path class="cls-17" d="M67.72,73.14a1.24,1.24,0,0,0-.87-.08,2.53,2.53,0,0,0-.82.15.35.35,0,0,0-.07.54A1.34,1.34,0,0,0,67,74a1,1,0,0,0,.87-.55A.31.31,0,0,0,67.72,73.14Z"/><path class="cls-17" d="M75.38,71.14a1,1,0,0,0-.61-.07l-.62,0A.47.47,0,0,0,74,72,1.3,1.3,0,0,0,75,72c.27-.09.51-.21.58-.52A.34.34,0,0,0,75.38,71.14Z"/><path class="cls-17" d="M104.93,70.23a6.64,6.64,0,0,0-3.39.7.75.75,0,0,0-.15,1.16,4.14,4.14,0,0,0,3.21.63c.79-.09,2.3-.38,2.27-1.46S105.64,70.2,104.93,70.23Z"/><path class="cls-17" d="M111.7,70.46a3.69,3.69,0,0,0-2.5.64.73.73,0,0,0,.36,1.34,3.72,3.72,0,0,0,2.45-.79A.72.72,0,0,0,111.7,70.46Z"/><path class="cls-17" d="M117,68.9l0,0a.79.79,0,0,0,.06-.55.62.62,0,0,0-.41-.41,1,1,0,0,0-.3,0c-.1,0-.11,0,0,0l-.2,0a1.66,1.66,0,0,0-.52.32l-.12.1-.12.09a2.26,2.26,0,0,1-.29.25.58.58,0,0,0,.44,1c.09,0,.28,0,.4,0a2.07,2.07,0,0,0,.47-.18,1.23,1.23,0,0,0,.59-.6h0Z"/><path class="cls-17" d="M120.71,65.34a.83.83,0,0,0-.32-.2c.07,0,.06,0,0,0a.72.72,0,0,0-.29-.06,1.59,1.59,0,0,0-1.53,1.05.65.65,0,0,0,.62.82,1.58,1.58,0,0,0,.48-.1s.2-.09.14-.07.13,0,.13,0a1.93,1.93,0,0,0,.71-.44.94.94,0,0,0,.25-.38A.58.58,0,0,0,120.71,65.34Z"/><path class="cls-17" d="M85,54.56a4.2,4.2,0,0,0-3.47.58c-.52.37-.59,1.42.21,1.55a5.77,5.77,0,0,0,3.48-.44A.93.93,0,0,0,85,54.56Z"/><path class="cls-17" d="M90.24,53.89a1.56,1.56,0,0,0-.6.06,4.43,4.43,0,0,1-.47.17c-.49.06-.49.92,0,1a3.75,3.75,0,0,1,.47.17,1.73,1.73,0,0,0,.55.07c.41,0,.92-.24.92-.74S90.64,53.92,90.24,53.89Z"/><path class="cls-17" d="M95.13,54a5.06,5.06,0,0,0-.87,0c-.57-.06-.69.88-.13,1a2.79,2.79,0,0,1,.37.14,3.1,3.1,0,0,0,.42.08c.33,0,.74-.13.78-.5A.68.68,0,0,0,95.13,54Z"/><path class="cls-17" d="M85.65,52.88a3.43,3.43,0,0,0-1.48-1,1.9,1.9,0,0,0-1.79.36.65.65,0,0,0,.29,1.08c.73.16,1.64,0,2.28.41S86.12,53.32,85.65,52.88Z"/><path class="cls-17" d="M55.23,53.84a4.17,4.17,0,0,0-4.44.28,1,1,0,0,0,.43,1.62,9.64,9.64,0,0,0,2.83-.14c.61-.06,1.5-.19,1.59-1v-.08A.86.86,0,0,0,55.23,53.84Z"/><path class="cls-17" d="M46.69,55.76c.07,0,0-.08-.16-.09l-.21-.09a2.42,2.42,0,0,0-.46-.06,1.58,1.58,0,0,0-1,.23.88.88,0,0,0-.4.84.85.85,0,0,0,.6.7,2.68,2.68,0,0,0,1.57-.21h.08a.67.67,0,0,0,.67-.66A.69.69,0,0,0,46.69,55.76Z"/><path class="cls-17" d="M42.94,57.08c-.69-.27-1.8-.28-2.2.49a.57.57,0,0,0,.49.84,2.93,2.93,0,0,0,.83-.13,2.59,2.59,0,0,1,.73-.07.56.56,0,0,0,.56-.5A.59.59,0,0,0,42.94,57.08Z"/><path class="cls-17" d="M54,58.5a.87.87,0,0,0-.36-.28,1.78,1.78,0,0,0-.38-.1,4.6,4.6,0,0,0-.83,0,.72.72,0,0,0-.7.71.71.71,0,0,0,.7.7,3.84,3.84,0,0,0,.83,0,1.75,1.75,0,0,0,.38-.09,1,1,0,0,0,.36-.28A.45.45,0,0,0,54,58.5Z"/><path class="cls-17" d="M60.7,56.05c.09.05,0,0-.11-.09l-.17-.07a1.12,1.12,0,0,0-.41,0l-.57.08a.74.74,0,0,0-.73.84.75.75,0,0,0,.93.63c.2,0,.41,0,.61-.1a.89.89,0,0,0,.53-.32v0l0,0A.59.59,0,0,0,60.7,56.05Z"/><path class="cls-17" d="M31.18,66.73a2.13,2.13,0,0,0-1.24-.67.69.69,0,0,0-.58,0,.78.78,0,0,0-.47.7,1.13,1.13,0,0,0,.87,1,1.75,1.75,0,0,0,1.15,0,.64.64,0,0,0,.57-.35C31.61,67.17,31.39,66.9,31.18,66.73Z"/><path class="cls-17" d="M36.3,70a2,2,0,0,0-1.62-.48c-.54,0-.84.82-.29,1.09a2.09,2.09,0,0,0,1.8.2A.52.52,0,0,0,36.3,70Z"/><path class="cls-18" d="M19,62V89.62c0,10.32,25.08,18.68,56,18.68s56-8.36,56-18.68V62Z"/><path class="cls-19" d="M75,94.54c-30.94,0-56-8.37-56-18.69V80.3C19,90.62,44.06,99,75,99s56-8.36,56-18.68V75.85C131,86.17,105.94,94.54,75,94.54Z"/><path class="cls-20" d="M39.1,104C39,93.18,38.83,76,38.81,62H19V89.62C19,95.38,26.8,100.53,39.1,104Z"/><path class="cls-20" d="M131,89.62V62H113.36v41.19C124.23,99.82,131,95,131,89.62Z"/><ellipse class="cls-21" cx="75" cy="62.04" rx="56.02" ry="18.68"/><ellipse class="cls-22" cx="75" cy="62.04" rx="52.65" ry="16.13"/><path class="cls-23" d="M22.46,63.08C24.21,71.51,47.06,78.17,75,78.17c26.42,0,48.29-6,52.07-13.73-1.78-2.4-3.82-4.61-6.55-5.68-1.48-.59-3.07-.8-4.58-1.28-2.79-.89-5.27-2.67-8.13-3.29-3.35-.72-7,.21-10.2-.92-2-.71-3.74-2.18-5.81-2.72-3.59-.95-7.29,1.09-11,1.09s-7-1.92-10.59-1.81c-3.19.1-6.13,1.77-9.3,2.1-3.48.38-7-.89-10.46-.52A22.46,22.46,0,0,0,44.8,53q-8.52,3.3-17,6.64A15.79,15.79,0,0,0,22.46,63.08Z"/><ellipse class="cls-24" cx="75" cy="65.54" rx="51.4" ry="12.63"/><path class="cls-25" d="M65.35,63.23a10.89,10.89,0,0,1-2,1.37,5.69,5.69,0,0,1-2.4.2l-10.85-.67c-3.28-.21-6.78-.36-9.64,1.27-.67.39-1.37,1-1.2,1.8a1.73,1.73,0,0,0,1,1.06c4,2.07,8.84-.73,13.19.24,2.21.49,4.17,1.94,6.42,2.1,2.78.19,5.34-1.6,8.11-1.85a16.86,16.86,0,0,1,4.3.4c8.27,1.42,16.71,1.32,25.09,1.08,5-.14,10.08-.38,14.47-2.66,1.07-.56,2.17-2,1.23-2.78a1.83,1.83,0,0,0-1-.3c-3.41-.28-7.13,1.38-10.14-.27.73-1.5,2.63-1.89,4.26-2.21s3.54-1,3.86-2.68c-8.41.08-16.68,3.24-25,2.41a17.52,17.52,0,0,0-5.26-.16c-1.46.29-2.6,1.55-4,1.73C72.06,63.79,69.15,60.61,65.35,63.23Z"/><path class="cls-26" d="M49.55,68.88a22.15,22.15,0,0,1,5.22-1.22c9.39-1.36,19.08-2.08,28.28.26,3.26.83,6.86,2,9.85.46a11.65,11.65,0,0,1,1.79-.92,7.49,7.49,0,0,1,2.91,0,14.85,14.85,0,0,0,5.88-.74c.77-.26,1.66-.82,1.54-1.62a43.16,43.16,0,0,1-5.9.27,51.26,51.26,0,0,1-5.52-.64,109.94,109.94,0,0,0-48.54,3.51c-1,.3-3.69,1.56-1.4,2.62C45.31,71.57,48.11,69.48,49.55,68.88Z"/><g class="cls-11"><path class="cls-27" d="M50.84,63c-1.71-2.6-5.32-2.61-7.91-1.27a12.38,12.38,0,0,1-2,1.06,17.18,17.18,0,0,1-2.24.38,7.36,7.36,0,0,0-3.86,1.38c-.3.24-.08.67.21.78a9.74,9.74,0,0,0,4.4.18,9.1,9.1,0,0,1,4.07.7c2.6.76,5.81.52,7.33-2A1.24,1.24,0,0,0,50.84,63Z"/><path class="cls-27" d="M71.18,56.92c-2.24-.67-5.32-.08-6.62,1.95A.87.87,0,0,0,64.87,60c1.62,1.22,4.46,1.18,6.31.41C72.76,59.78,73.06,57.47,71.18,56.92Z"/><path class="cls-27" d="M76.54,63.36c.27.13.48.34.76.46a4.15,4.15,0,0,0,1.16.2,2.78,2.78,0,0,0,2.14-.63,1,1,0,0,0-.2-1.57,2.81,2.81,0,0,0-2.13-.22,4.17,4.17,0,0,0-1,.32c-.31.16-.46.42-.73.61A.49.49,0,0,0,76.54,63.36Z"/><path class="cls-27" d="M104.44,58.12a18.09,18.09,0,0,0-5.67-1.26c-1.83-.1-7.17.15-6.6,3.19.6,3.22,6,2.76,8.32,2.52,1.4-.14,6.8-.23,6.63-2.47C107,58.85,105.33,58.47,104.44,58.12Z"/><path class="cls-27" d="M113,61.75a2.65,2.65,0,0,0-1.63-.65,2.29,2.29,0,0,0-1.49.33,1.78,1.78,0,0,0,0,3,2.28,2.28,0,0,0,1.49.32,2.6,2.6,0,0,0,1.63-.64A1.7,1.7,0,0,0,113,61.75Z"/><path class="cls-27" d="M114.14,65.28a2.15,2.15,0,0,0-2.3.57,1.34,1.34,0,0,0,0,1.83,2.13,2.13,0,0,0,2.3.58A1.56,1.56,0,0,0,114.14,65.28Z"/><path class="cls-27" d="M78,71.83c-2.41-.12-5.29-.5-7.39.93a1.15,1.15,0,0,0-.41,1.56c1.54,2.26,4.38,2.7,6.94,2.88s5.76.07,7.62-2.12a1.08,1.08,0,0,0,0-1.51C82.72,72,80.46,72,78,71.83Z"/><path class="cls-27" d="M96.91,71.85a3.53,3.53,0,0,0-1.36-.57,3.66,3.66,0,0,0-.81.09c-.22,0-.44.25-.61.29a.77.77,0,0,0,0,1.47c.17,0,.39.24.61.29a3.66,3.66,0,0,0,.81.1,3.55,3.55,0,0,0,1.36-.58A.64.64,0,0,0,96.91,71.85Z"/><path class="cls-27" d="M53.39,69.81c-.43-.06-.86-.14-1.29-.17a4.42,4.42,0,0,0-1.36.18.57.57,0,0,0-.4.71,2.23,2.23,0,0,0,.61,1.1,3,3,0,0,0,1.33.66c.9.2,2.43.12,2.75-1S54.15,69.91,53.39,69.81Z"/><path class="cls-27" d="M33.91,60.73a3.7,3.7,0,0,0-3.46.86.57.57,0,0,0,.25.94,3.71,3.71,0,0,0,3.41-1A.46.46,0,0,0,33.91,60.73Z"/></g><path class="cls-28" d="M85.7,60c2.24-.08,4.7-.07,6.43,1.35s1.83,4.79-.29,5.51a4.87,4.87,0,0,1-2.51-.06,93.44,93.44,0,0,0-23.9-1.5,95,95,0,0,0-11.9,1.56c-2.68.52-8.29,3.11-10.64,2.31,4.69-4.32,14.41-5.8,20.48-6.94A151.92,151.92,0,0,1,85.7,60Z"/><path class="cls-20" d="M89.33,66.75a4.87,4.87,0,0,0,2.51.06c2.12-.72,2-4.09.29-5.51A6.31,6.31,0,0,0,88.77,60c.38.43.83.82,1.24,1.23.79.82,1.47,2,1,3a2.45,2.45,0,0,1-2.41,1.14,17.78,17.78,0,0,1-2.75-.67,22.57,22.57,0,0,0-5.39-.2c-.77,0-1.75-.19-1.87-.94a1.64,1.64,0,0,0-.09-.5c-.12-.23-.43-.28-.69-.29a15.62,15.62,0,0,0-5.84.72,16.54,16.54,0,0,1-3.49,1c-2,.18-4-.75-6-.35-1.4.28-2.71,1.21-4.12,1-.61-.09-1.18-.4-1.79-.5a5.66,5.66,0,0,0-2.89.57l-3.6,1.4c-1.12.44-1.88.14-1.64-.84a18.18,18.18,0,0,0-5.55,3.27c2.35.8,8-1.79,10.64-2.31a95,95,0,0,1,11.9-1.56A93.44,93.44,0,0,1,89.33,66.75Z"/><path class="cls-29" d="M91.5,60.86s3,.51,3.9,2.87c0,0,7.15,1.82,8.61-2.64,0,0,1.47.28,1.24,1.18s-5.4,4.67-9.85,2.9a4.07,4.07,0,0,1-3.56,1.64s1.09-2.6-.34-2.78C91.5,64,93.16,63.61,91.5,60.86Z"/><path class="cls-30" d="M63.64,62.66a3.05,3.05,0,0,0-2.27.17,16.09,16.09,0,0,0-2.53,1.06.08.08,0,0,0,0,.15,7.78,7.78,0,0,0,2.68,0c.79-.13,1.79-.25,2.21-1A.31.31,0,0,0,63.64,62.66Z"/><path class="cls-30" d="M73.63,61.27a11.32,11.32,0,0,0-3.93.19c-1.21.2-2.65.29-3.58,1.17a.27.27,0,0,0,.06.42,5.54,5.54,0,0,0,3.42.14A10.42,10.42,0,0,0,73.73,62C74,61.83,74,61.33,73.63,61.27Z"/><path class="cls-30" d="M87.73,62.92A2.75,2.75,0,0,0,86,62.55a6.72,6.72,0,0,0-1.87.5c-.17.05-.22.36,0,.39,1.22.18,2.4.59,3.58,0A.3.3,0,0,0,87.73,62.92Z"/><path class="cls-30" d="M87.53,61.54a.89.89,0,0,0-.7-.22,1.57,1.57,0,0,0-.37,0c-.14,0-.26.1-.4.13a.22.22,0,0,0,0,.41,3.59,3.59,0,0,1,.35.12,2,2,0,0,0,.42.06.88.88,0,0,0,.7-.22A.25.25,0,0,0,87.53,61.54Z"/><path class="cls-31" d="M93.79,62.52a1.48,1.48,0,0,0-.31-.25.57.57,0,0,0-.22-.11c-.21,0-.24,0-.12,0a.59.59,0,0,0-.74.57c0-.11,0-.1,0,0a.53.53,0,0,0,0,.28.85.85,0,0,0,.17.29,1,1,0,0,0,.54.36A.69.69,0,0,0,93.79,62.52Z"/><path class="cls-31" d="M94.19,64.09a1.84,1.84,0,0,0-.17-.22c-.47-.52-1.28.14-1,.73a.92.92,0,0,0,.17.22.61.61,0,0,0,.79,0A.59.59,0,0,0,94.19,64.09Z"/><path class="cls-31" d="M103.61,62.49a25.48,25.48,0,0,1-2.73,1.21c-.87.28-1.84.24-2.67.59a.25.25,0,0,0-.06.46c1.81.94,4.66-.48,5.65-2.07C103.89,62.55,103.73,62.43,103.61,62.49Z"/><path class="cls-32" d="M64.76,70.67A2.29,2.29,0,0,0,63,70.56a5.24,5.24,0,0,0-1.85.61.43.43,0,0,0,.1.77,5.18,5.18,0,0,0,2,0,2.2,2.2,0,0,0,1.63-.71A.41.41,0,0,0,64.76,70.67Z"/><path class="cls-32" d="M70.65,70.42a1.81,1.81,0,0,0-1.39-.5,4.74,4.74,0,0,0-1.72.17.61.61,0,0,0,0,1.17,5.22,5.22,0,0,0,1.72.17,1.85,1.85,0,0,0,1.39-.51A.35.35,0,0,0,70.65,70.42Z"/><path class="cls-32" d="M67.72,73.14a1.24,1.24,0,0,0-.87-.08,2.53,2.53,0,0,0-.82.15.35.35,0,0,0-.07.54A1.34,1.34,0,0,0,67,74a1,1,0,0,0,.87-.55A.31.31,0,0,0,67.72,73.14Z"/><path class="cls-32" d="M75.38,71.14a1,1,0,0,0-.61-.07l-.62,0A.47.47,0,0,0,74,72,1.3,1.3,0,0,0,75,72c.27-.09.51-.21.58-.52A.34.34,0,0,0,75.38,71.14Z"/><path class="cls-32" d="M104.93,70.23a6.64,6.64,0,0,0-3.39.7.75.75,0,0,0-.15,1.16,4.14,4.14,0,0,0,3.21.63c.79-.09,2.3-.38,2.27-1.46S105.64,70.2,104.93,70.23Z"/><path class="cls-32" d="M111.7,70.46a3.69,3.69,0,0,0-2.5.64.73.73,0,0,0,.36,1.34,3.72,3.72,0,0,0,2.45-.79A.72.72,0,0,0,111.7,70.46Z"/><path class="cls-32" d="M117,68.9l0,0a.79.79,0,0,0,.06-.55.62.62,0,0,0-.41-.41,1,1,0,0,0-.3,0c-.1,0-.11,0,0,0l-.2,0a1.66,1.66,0,0,0-.52.32l-.12.1-.12.09a2.26,2.26,0,0,1-.29.25.58.58,0,0,0,.44,1c.09,0,.28,0,.4,0a2.07,2.07,0,0,0,.47-.18,1.23,1.23,0,0,0,.59-.6h0Z"/><path class="cls-32" d="M120.71,65.34a.83.83,0,0,0-.32-.2c.07,0,.06,0,0,0a.72.72,0,0,0-.29-.06,1.59,1.59,0,0,0-1.53,1.05.65.65,0,0,0,.62.82,1.58,1.58,0,0,0,.48-.1s.2-.09.14-.07.13,0,.13,0a1.93,1.93,0,0,0,.71-.44.94.94,0,0,0,.25-.38A.58.58,0,0,0,120.71,65.34Z"/><path class="cls-32" d="M85,54.56a4.2,4.2,0,0,0-3.47.58c-.52.37-.59,1.42.21,1.55a5.77,5.77,0,0,0,3.48-.44A.93.93,0,0,0,85,54.56Z"/><path class="cls-32" d="M90.24,53.89a1.56,1.56,0,0,0-.6.06,4.43,4.43,0,0,1-.47.17c-.49.06-.49.92,0,1a3.75,3.75,0,0,1,.47.17,1.73,1.73,0,0,0,.55.07c.41,0,.92-.24.92-.74S90.64,53.92,90.24,53.89Z"/><path class="cls-32" d="M95.13,54a5.06,5.06,0,0,0-.87,0c-.57-.06-.69.88-.13,1a2.79,2.79,0,0,1,.37.14,3.1,3.1,0,0,0,.42.08c.33,0,.74-.13.78-.5A.68.68,0,0,0,95.13,54Z"/><path class="cls-32" d="M85.65,52.88a3.43,3.43,0,0,0-1.48-1,1.9,1.9,0,0,0-1.79.36.65.65,0,0,0,.29,1.08c.73.16,1.64,0,2.28.41S86.12,53.32,85.65,52.88Z"/><path class="cls-32" d="M55.23,53.84a4.17,4.17,0,0,0-4.44.28,1,1,0,0,0,.43,1.62,9.64,9.64,0,0,0,2.83-.14c.61-.06,1.5-.19,1.59-1v-.08A.86.86,0,0,0,55.23,53.84Z"/><path class="cls-32" d="M46.69,55.76c.07,0,0-.08-.16-.09l-.21-.09a2.42,2.42,0,0,0-.46-.06,1.58,1.58,0,0,0-1,.23.88.88,0,0,0-.4.84.85.85,0,0,0,.6.7,2.68,2.68,0,0,0,1.57-.21h.08a.67.67,0,0,0,.67-.66A.69.69,0,0,0,46.69,55.76Z"/><path class="cls-32" d="M42.94,57.08c-.69-.27-1.8-.28-2.2.49a.57.57,0,0,0,.49.84,2.93,2.93,0,0,0,.83-.13,2.59,2.59,0,0,1,.73-.07.56.56,0,0,0,.56-.5A.59.59,0,0,0,42.94,57.08Z"/><path class="cls-32" d="M54,58.5a.87.87,0,0,0-.36-.28,1.78,1.78,0,0,0-.38-.1,4.6,4.6,0,0,0-.83,0,.72.72,0,0,0-.7.71.71.71,0,0,0,.7.7,3.84,3.84,0,0,0,.83,0,1.75,1.75,0,0,0,.38-.09,1,1,0,0,0,.36-.28A.45.45,0,0,0,54,58.5Z"/><path class="cls-32" d="M60.7,56.05c.09.05,0,0-.11-.09l-.17-.07a1.12,1.12,0,0,0-.41,0l-.57.08a.74.74,0,0,0-.73.84.75.75,0,0,0,.93.63c.2,0,.41,0,.61-.1a.89.89,0,0,0,.53-.32v0l0,0A.59.59,0,0,0,60.7,56.05Z"/><path class="cls-32" d="M31.18,66.73a2.13,2.13,0,0,0-1.24-.67.69.69,0,0,0-.58,0,.78.78,0,0,0-.47.7,1.13,1.13,0,0,0,.87,1,1.75,1.75,0,0,0,1.15,0,.64.64,0,0,0,.57-.35C31.61,67.17,31.39,66.9,31.18,66.73Z"/><path class="cls-32" d="M36.3,70a2,2,0,0,0-1.62-.48c-.54,0-.84.82-.29,1.09a2.09,2.09,0,0,0,1.8.2A.52.52,0,0,0,36.3,70Z"/></g></g></svg>