<svg id="Layer_1" data-name="Layer 1" xmlns="http://www.w3.org/2000/svg" xmlns:xlink="http://www.w3.org/1999/xlink" viewBox="0 0 150 160"><defs><style>.cls-1,.cls-21,.cls-30,.cls-50{fill:#edc8a5;}.cls-1,.cls-10,.cls-11,.cls-12,.cls-13,.cls-14,.cls-15,.cls-16,.cls-17,.cls-18,.cls-19,.cls-2,.cls-20,.cls-21,.cls-22,.cls-23,.cls-24,.cls-25,.cls-26,.cls-27,.cls-28,.cls-29,.cls-3,.cls-4,.cls-5,.cls-6,.cls-7,.cls-8,.cls-9{stroke:#fff;stroke-miterlimit:10;stroke-width:5px;}.cls-2,.cls-31{fill:#c19168;}.cls-3,.cls-32{fill:#59544f;}.cls-33,.cls-4{fill:#f4d9bf;}.cls-34,.cls-36,.cls-5,.cls-7{fill:#6e4e3c;}.cls-35,.cls-6{fill:#5c4132;}.cls-14,.cls-36,.cls-43,.cls-7{opacity:0.4;}.cls-14,.cls-19,.cls-21,.cls-36,.cls-43,.cls-48,.cls-50,.cls-7{isolation:isolate;}.cls-37,.cls-8{fill:#8a8a7b;}.cls-38,.cls-9{fill:#e51336;}.cls-10,.cls-39{fill:#dedbc3;}.cls-11,.cls-40{fill:#fecb27;}.cls-12,.cls-41{fill:#5bb354;}.cls-13,.cls-14,.cls-42,.cls-43{fill:#3e678a;}.cls-15,.cls-44{fill:#778495;}.cls-16,.cls-45{fill:#18120e;}.cls-17,.cls-46{fill:#e3bb94;}.cls-18,.cls-19,.cls-47,.cls-48{fill:#f2d7bd;}.cls-19,.cls-21,.cls-48,.cls-50{opacity:0.5;}.cls-20{fill:url(#linear-gradient);}.cls-22,.cls-51{fill:#3d1b0b;}.cls-23,.cls-49,.cls-52{fill:#fff;}.cls-24,.cls-53{fill:#463528;}.cls-25,.cls-54{fill:#c39368;}.cls-26,.cls-55{fill:#d3e2e5;}.cls-27,.cls-56{fill:#e6f5f9;}.cls-28,.cls-57{fill:#d5e1e1;}.cls-29,.cls-59{fill:#f5a6aa;}.cls-49{opacity:0.38;}.cls-58{fill:#a03835;}</style><linearGradient id="linear-gradient" x1="47.29" y1="127.42" x2="54.24" y2="117.27" gradientTransform="matrix(1, 0, 0, -1, 0, 162)" gradientUnits="userSpaceOnUse"><stop offset="0.34" stop-color="#f9cbc0"/><stop offset="0.94" stop-color="#fff"/></linearGradient></defs><g id="Layer_10" data-name="Layer 10"><path class="cls-1" d="M39,45.13s-3-1.84-4.15.06,0,4.1,1.75,5c1.18.6,4.88,1,5.39.33S39,45.13,39,45.13Z"/><path class="cls-2" d="M39,47.64a4.19,4.19,0,0,0-1.23-.75A1.12,1.12,0,0,0,36.18,48c0,.08.09.1.11,0,.14-.38.32-.74.78-.74a2.07,2.07,0,0,1,.92.32,2,2,0,0,0-.47,1.3c0,.09.14.14.16,0a1.79,1.79,0,0,1,.74-1.1l.47.33c.22.17.45.45.73.5a.17.17,0,0,0,.19-.14v-.06C39.68,48.13,39.23,47.84,39,47.64Z"/><path class="cls-3" d="M34.34,32.72s-3.45,6.18-2.3,9S39.76,49,39.76,49,38.85,38.61,34.34,32.72Z"/><path class="cls-3" d="M34.34,32.72a28.1,28.1,0,0,0-1.84,4.21c1.14.41,2,2.2,2.34,3.09a16.21,16.21,0,0,1,1,2.94,4.77,4.77,0,0,1,.2,1.95.16.16,0,0,1-.19.11h0a4.47,4.47,0,0,1-2.43-1.28A42.5,42.5,0,0,0,39.77,49S38.85,38.61,34.34,32.72Z"/><polygon class="cls-4" points="76.02 79.67 75.32 64.02 66.01 64.02 69.57 81.1 76.02 79.67"/><path class="cls-4" d="M72.36,76.2a12.84,12.84,0,0,0,3.48-.55L75.32,64H66l2.47,11.86A11.8,11.8,0,0,0,72.36,76.2Z"/><path class="cls-5" d="M65.53,74.66C63.8,65,64,53.13,65.61,51.47c4,2.18,4.88,4.87,8.3,8.79,1.64,2,3.5,10.15,2.67,13.42C75.42,74.74,68.94,76,65.53,74.66Z"/><path class="cls-5" d="M65.53,74.66C63.8,65,64,53.13,65.61,51.47c4,2.18,4.88,4.87,8.3,8.79,1.64,2,3.5,10.15,2.67,13.42C75.42,74.74,68.94,76,65.53,74.66Z"/><path class="cls-6" d="M66.14,73c-.41-2.43-.61-4.89-.92-7.38A63.42,63.42,0,0,1,65,52.48C63.93,56,64,66.17,65.48,74.62a6.45,6.45,0,0,0,1,.32C66.41,74.32,66.26,73.67,66.14,73Z"/><path class="cls-7" d="M74,60.26c-3.46-3.92-4.36-6.61-8.3-8.79a1.72,1.72,0,0,0-.36.57,13.42,13.42,0,0,0,.48,3.57,22.84,22.84,0,0,0,3.11,6.58A29.05,29.05,0,0,1,71,65.57c.54,1.12,1.6,7.39,2.13,9.3a8.59,8.59,0,0,0,3.47-1.19C77.44,70.44,75.59,62.22,74,60.26Z"/><path class="cls-8" d="M88.09,138.5v.07c.23,1.38-1.75,1.92-5.53,3.26-8.31,2.1-16.67,1.85-16.67.92A3.4,3.4,0,0,1,66,141.7C75.92,143.78,85.33,139.82,88.09,138.5Z"/><path class="cls-9" d="M73.39,136.53c4.1-1.94,8.09-3.5,8.09-3.5h4.85a55.28,55.28,0,0,1,1.76,5.47,41.56,41.56,0,0,1-12,3.52A7.8,7.8,0,0,0,73.39,136.53Z"/><path class="cls-10" d="M70.64,137.88c.92-.46,1.84-.92,2.76-1.35A7.75,7.75,0,0,1,76.17,142c-3.36.46-6.24-1.57-9.57-2.23C66.87,138.9,67.32,139.6,70.64,137.88Z"/><path class="cls-11" d="M80.08,136.46a12.48,12.48,0,0,0-1.92-2.06l1-.44C82,137,81.06,137.79,80.08,136.46Z"/><path class="cls-11" d="M77.77,137.67a9.36,9.36,0,0,0-1.85-2.31l1.1-.49C79.79,137.61,78.91,139.55,77.77,137.67Z"/><path class="cls-8" d="M113.71,139.11c0,.13,2.55-.7,2.57-.61.28,1.23-5.17,6.16-9.58,7.91-4,1.57-7.14,3.29-8.48,2.24C98.22,147.12,111.48,141,113.71,139.11Z"/><path class="cls-12" d="M99.15,142.55c.51-.52,1.16-1.13,1.85-1.78,4.07-1.16,5.72,2.9,6.2,4.55a47.34,47.34,0,0,1-10,2.46.79.79,0,0,1-.31-.43C96.4,145.66,97.07,144.67,99.15,142.55Z"/><path class="cls-10" d="M99.15,142.55c.51-.52,1.16-1.13,1.85-1.78,4.07-1.16,5.72,2.9,6.2,4.55a47.34,47.34,0,0,1-10,2.46.79.79,0,0,1-.31-.43C96.4,145.66,97.07,144.67,99.15,142.55Z"/><path class="cls-11" d="M107.09,140.92a11.3,11.3,0,0,0-4.33-1.71l1-.92C107.79,138.48,109.59,142.5,107.09,140.92Z"/><path class="cls-11" d="M108.77,139.44a13,13,0,0,0-4.26-1.84l1.06-.93C109.62,138.07,110.59,140.61,108.77,139.44Z"/><path class="cls-13" d="M115.74,77.26s3.46,4.45,1.74,11.68c-2.42,10.21-9.77,17.75-9.14,19.45l5.15,25.83-8.79,2.34S99.41,124,95.05,110.1c-1.85-6,.92-11,1.13-17L80.74,105.43l7,26.92s-5.72,1.27-8.51.52c0,0-9.86-21.82-9.46-29,.25-4.33,6.52-8.31,13.84-15.69C88.33,83.44,85.74,76,85.74,76S115.41,77,115.74,77.26Z"/><path class="cls-13" d="M71.46,112a43.83,43.83,0,0,1-.93-7A7.4,7.4,0,0,1,72,100.64c2.07-2.91,5.15-4.9,7.77-7.24A50.93,50.93,0,0,1,85,89c1.55-1.06,3.34-1,5.11-1.27a8.17,8.17,0,0,0-3.59-.57c-.12,0-.24-.07-.2-.19,1.28-3.53.31-7.38-.35-11h-.17s2.59,7.49-2.16,12.27C76.31,95.63,70,99.61,69.77,103.93c-.13,2.32.81,6.17,2.15,10.32C71.74,113.5,71.6,112.75,71.46,112Z"/><path class="cls-13" d="M95.11,105.69a26.78,26.78,0,0,1,1.53-8.13,50.72,50.72,0,0,1,3.21-6.27c-1.59,1.17-2.61,3-3.69,4.62l-.27.4c-.76,4.7-2.35,8.93-.8,13.84.07.22.14.43.21.66A32.44,32.44,0,0,1,95.11,105.69Z"/><path class="cls-14" d="M115.74,77.26c-.07,0-1.27-.13-3.14-.23a25.34,25.34,0,0,1,1.85,8.09c.2,4.17-.93,8-2.4,11.88-.8,2.08-1.68,4.14-2.59,6.18a56.93,56.93,0,0,0-2.64,6.17c-.65,2-1.14,4-1.7,6s-1.31,3.53-1.7,5.36a13.23,13.23,0,0,0,1.74-3,37.68,37.68,0,0,0,2-4.38c0-.14.27-.18.31,0,.7,4,1.67,7.91,2.58,11.86.44,1.85.93,3.76,1.23,5.66a2.29,2.29,0,0,1-.54,2.18,9,9,0,0,1-6.28,1.77l-.57-.06c.48,1.19.76,1.84.76,1.84l8.79-2.34-5.15-25.83c-.63-1.7,6.72-9.23,9.14-19.45C119.2,81.73,115.74,77.26,115.74,77.26Z"/><path class="cls-15" d="M113.75,133l1.09,2.76a20.77,20.77,0,0,1-10.46,2.09l-.5-2.33S107.29,136,113.75,133Z"/><path class="cls-15" d="M88,131.54l.51,2.34s-3.35,1.21-9.58-.1l0-2S81.16,133.44,88,131.54Z"/><path class="cls-6" d="M85.06,84.89l.8-.2A29.73,29.73,0,0,1,90.92,84a42.84,42.84,0,0,1,12.24,1.45c2.87.72,5.69,1.68,8.59,2.23a15.38,15.38,0,0,0,6.37.2c.3-4.12.29-19.51-14.37-35.53-10-10.87-28.25-16.53-32.93-8.64,0,0-6.35,4.8-5.23,10a94.39,94.39,0,0,0,8.58,13.84c3.1,4.06,8.3,7.81,10.76,13.1A5.22,5.22,0,0,1,85.06,84.89Z"/><path class="cls-6" d="M85.06,84.89l.28-.06a7.08,7.08,0,0,0,.58-3.21c-.18-2.43-2.38-4.35-3.6-6.33a.18.18,0,0,1,.07-.23.2.2,0,0,1,.17,0,12.83,12.83,0,0,0,4.61,1.84A58.29,58.29,0,0,1,72.84,63.66a55.43,55.43,0,0,1-5.53-8.38,16,16,0,0,1-1.57-4.55,6.26,6.26,0,0,0-.1,3,93.55,93.55,0,0,0,8.58,13.84c3.1,4.06,8.3,7.81,10.75,13.1A5.22,5.22,0,0,1,85.06,84.89Z"/><path class="cls-7" d="M103.75,52.36c-10-10.88-28.25-16.54-32.93-8.65,0,0-4.41,3.34-5.23,7.46,2.55,2.23,5.38,4.54,8.93,4.55a3.73,3.73,0,0,0,3.55-1.93A7.37,7.37,0,0,0,78.69,50a12.2,12.2,0,0,0-1.48-5.14c-.28-.52,8.25-1.68,9-1.57a.17.17,0,0,1,.1.21v0c-2.28,4.33-2.77,9.12-2.62,13.95.1,4.16,1.16,11.49,2.65,15.44C87,69.23,89.26,54.25,91,56.05a23,23,0,0,1,4.32,7.18c1.27,3.24,2,6.64,3.29,9.89,0,.12-.08.22-.19.2-1.29-.26-2.67.44-3.83.93a28.37,28.37,0,0,0-3.13,1.54c-1.5.83-3,1.75-4.39,2.68a32.34,32.34,0,0,1,15.81-.87c4.12.81,9.23,2.68,11.27,6.69a.16.16,0,0,1-.07.23.14.14,0,0,1-.11,0,65.26,65.26,0,0,0-8.15-.86A72.31,72.31,0,0,0,97.61,83a49.13,49.13,0,0,0-8.47.76,12.16,12.16,0,0,0-3,.85A30.93,30.93,0,0,1,90.92,84a42.84,42.84,0,0,1,12.24,1.45c2.87.72,5.69,1.68,8.59,2.23a15.38,15.38,0,0,0,6.37.2C118.42,83.77,118.41,68.38,103.75,52.36Z"/><path class="cls-16" d="M88.41,69.88l-.8,1.21s9.74.22,13.11-5.25c0,0-.48-2.56-5.7-1.59A8.69,8.69,0,0,0,88.41,69.88Z"/><path class="cls-17" d="M65.77,39.55l7.33,3.86s7,3.48,3.22,9.45c-1.64,2.62-7.68-1.07-7.68-1.07l-7.56-4.74Z"/><path class="cls-18" d="M71.77,42.73l-6-3.18-4.69,7.5,5.8,3.64C69.81,49.42,71.67,46,71.77,42.73Z"/><path class="cls-18" d="M75.05,44.82a7,7,0,0,1,.31,5.88,3.77,3.77,0,0,1-2.44,2.37,4.41,4.41,0,0,1-1.35.15c1.77.66,3.84,1,4.7-.36C78.62,49.13,76.76,46.36,75.05,44.82Z"/><path class="cls-18" d="M61,13.2a19.24,19.24,0,0,0-10.95-1,25.5,25.5,0,0,0-7.3,2.33,23.28,23.28,0,0,0-4.42,3.07,18.88,18.88,0,0,0-5.91,8.92,12.46,12.46,0,0,0,.71,8.9c.85,1.65,2.36,2.94,3.18,4.55a15.22,15.22,0,0,1,1.42,4.76c.44,3.24,4,9.61,12.86,11.6,7.84,1.78,15.68-3.69,19.16-10.95,3.22-6.76,2.07-14.16-.21-21a33.06,33.06,0,0,0-2.4-5.73,12.36,12.36,0,0,0-4.07-4.37A14.47,14.47,0,0,0,61,13.2Z"/><path class="cls-19" d="M50.29,48.6a5,5,0,0,0,.36-3.5A6,6,0,0,0,50.29,48.6Z"/><path class="cls-19" d="M34.61,24.6c-1.92,4-2.5,9.06.72,12.38a10.18,10.18,0,0,1-1.17-4.51,18.59,18.59,0,0,1,.77-6.67,20.73,20.73,0,0,1,4.7-8A21.31,21.31,0,0,0,34.61,24.6Z"/><path class="cls-18" d="M54.46,33.11c-1.35-.1-2.73.2-4-.28.11.84.34,1.73,1.41,1.76a20.51,20.51,0,0,0,2.22-.13,22.49,22.49,0,0,1,4.34-.15C57.47,33.33,55.69,33.19,54.46,33.11Z"/><path class="cls-18" d="M45.7,36.22a15.17,15.17,0,0,1,.19,2C46.19,37.54,46.4,36.45,45.7,36.22Z"/><path class="cls-20" d="M50.49,40.61c-2.77,1.51-5.43,4-4.82,7.25,1.52-2.29,4.07-3.82,6.46-5.06a35.67,35.67,0,0,1,4.54-2.06,37,37,0,0,1,4.75-1.17C58,37.71,53.72,38.83,50.49,40.61Z"/><path class="cls-18" d="M49.11,33.16c-.07.5-.16,1.2.17,1.46a1.75,1.75,0,0,0,1.47.28A12.85,12.85,0,0,0,49.11,33.16Z"/><path class="cls-18" d="M43,35.75a5.31,5.31,0,0,1-.65,4.13c-.5,1-1.34,2.77-.7,3.86a18.69,18.69,0,0,1,2.1-3.69,3.54,3.54,0,0,0,1-2.7A2.12,2.12,0,0,0,43,35.75Z"/><path class="cls-18" d="M56.88,47a16.07,16.07,0,0,1,2.56.58,22.71,22.71,0,0,0,5.93.58A10.22,10.22,0,0,0,60,46.54,11,11,0,0,0,56.88,47Z"/><path class="cls-18" d="M69.58,24.4a33.49,33.49,0,0,0-2.4-5.74,12.41,12.41,0,0,0-4.07-4.36A14.64,14.64,0,0,0,61,13.2,18.93,18.93,0,0,0,51.25,12a15.87,15.87,0,0,1,5.61.59,7.38,7.38,0,0,1,4,2.61c1.51,2.42-.37,5.16-1.15,7.49-.46,1.4-.73,3.09.37,4.29,1.33,1.46,3.41,1.73,5,2.86,7.17,5.19,4.7,16-.46,21.72a23.58,23.58,0,0,1-3,2.86,21.27,21.27,0,0,0,8.24-9C73,38.65,71.86,31.25,69.58,24.4Z"/><path class="cls-21" d="M49.69,49.76a6.1,6.1,0,0,0,4.49-1.35C52.66,48.07,50,48.31,49.69,49.76Z"/><path class="cls-22" d="M57.67,38.13c.48.92.49,1.79,0,2s-1.21-.25-1.69-1.12-.49-1.79,0-2S57.2,37.26,57.67,38.13Z"/><path class="cls-23" d="M56.36,38c.12.29.1.56,0,.63s-.35-.1-.47-.39-.1-.55,0-.62S56.24,37.71,56.36,38Z"/><path class="cls-22" d="M46.52,44.15c.48.93.49,1.79,0,2s-1.23-.25-1.71-1.12-.48-1.78,0-2S46.05,43.29,46.52,44.15Z"/><path class="cls-23" d="M45.21,44.05c.12.28.1.56,0,.63s-.36-.11-.48-.39-.1-.55.05-.62S45.09,43.74,45.21,44.05Z"/><path class="cls-24" d="M58.44,34a7.44,7.44,0,0,0-3-1c-1.43-.06-3.15.72-4.45,0a.2.2,0,0,0-.15,0,7.47,7.47,0,0,0,.47,1.13,2.28,2.28,0,0,0,1.31.38,38.7,38.7,0,0,1,5.59-.2C58.32,34.32,58.72,34.16,58.44,34Z"/><path class="cls-24" d="M41.37,44.14A7.48,7.48,0,0,1,41.79,41c.55-1.32,2-2.53,1.84-4a.29.29,0,0,1,0-.13,6,6,0,0,1,.83.92,2.41,2.41,0,0,1-.21,1.35,38.5,38.5,0,0,0-2.46,5C41.7,44.15,41.39,44.44,41.37,44.14Z"/><path class="cls-25" d="M50.69,43.94a8.07,8.07,0,0,0-1.19,5.33c.2,1.61,3.17.14,3.69-.39.08-.09,0-.38-.14-.32-.92.45-3.35,1.91-3.33-.09a9.7,9.7,0,0,1,1-4.42S50.72,43.91,50.69,43.94Z"/><path class="cls-4" d="M70.08,78.45a3.13,3.13,0,0,1,4.11-1.6l.2.1c.92.52,1.85.92,2,6.79a115.45,115.45,0,0,1,.13,12.48L72.15,96S68.08,83.53,70.08,78.45Z"/><path class="cls-4" d="M77.34,95.14a5,5,0,0,0-1.84-1.48,2.86,2.86,0,0,0-1.42-.11,5.71,5.71,0,0,0-2.9,1.85,16.93,16.93,0,0,0-2.6,4.8,10,10,0,0,0,.17,6.11,1.47,1.47,0,0,0,1.31,1s.36,1,.93,1.05c1.07-.3.66-2.4,1.15-4.31.22,1,.84,4.13,2.08,3.77s-.17-3.41.27-5.31c.26,1.24,1.43,5.08,2.09,4.61.92-.62.07-4.21-.24-5.39s.69-1.1,1.45-2.9A4.31,4.31,0,0,0,77.34,95.14Z"/><path class="cls-25" d="M70,107.31a3.3,3.3,0,0,1-.16-.33,7.45,7.45,0,0,1-.27-.92c0-.22-.08-.43-.1-.64v-.73q0-.39,0-.78a3.1,3.1,0,0,1,.07-.79c.06-.27.08-.53.12-.79s.12-.51.19-.75l.22-.69c.07-.21.16-.42.23-.6s.14-.34.22-.5l.2-.38.16-.32-.11.35-.14.39c0,.15-.1.33-.16.52l-.19.61a3.11,3.11,0,0,1-.16.69c-.07.24-.1.48-.16.73s-.07.52-.11.78a6.94,6.94,0,0,0-.08.77c0,.26,0,.51,0,.76v.7a2.68,2.68,0,0,0,0,.64A9.3,9.3,0,0,0,70,107,2.17,2.17,0,0,0,70,107.31Z"/><path class="cls-25" d="M72.07,104.18,72,104a4.15,4.15,0,0,1-.11-.48,5.25,5.25,0,0,1-.08-.68,2.41,2.41,0,0,1,0-.38,2.67,2.67,0,0,1,0-.4,5.39,5.39,0,0,1,.12-.79,1.64,1.64,0,0,1,.09-.35,1.21,1.21,0,0,1,.11-.3,4.2,4.2,0,0,1,.3-.6c0,.22-.08.43-.13.65a1.61,1.61,0,0,0,0,.31l-.06.35v.75a2.54,2.54,0,0,0,0,.39v1A2,2,0,0,0,72.07,104.18Z"/><path class="cls-25" d="M74.42,102.62a2,2,0,0,1-.08-.43v-.43a4.34,4.34,0,0,1,0-.51l0-.5a1.29,1.29,0,0,1,.12-.42,2.05,2.05,0,0,1,.16-.41v1.36a1.38,1.38,0,0,1-.06.49c0,.15,0,.3,0,.43S74.47,102.48,74.42,102.62Z"/><path class="cls-4" d="M80.31,101.31a12.19,12.19,0,0,1-1.62-3.51A7.34,7.34,0,0,0,77.9,96a6.29,6.29,0,0,0-.79-.92s.09-.13,0-.16a.84.84,0,0,0-.27-.08l-.1-.06h0v.06c-1.2.07-1.42,4-1.42,4.67a2.45,2.45,0,0,0,.4,1.54c.26.36.76.28,1.12.23,1.35-.19,1.85,1.58,2.69,2.35a1.16,1.16,0,0,0,1.64,0l.06,0C81.9,102.86,80.78,101.91,80.31,101.31Z"/><polygon class="cls-4" points="101.45 75.24 98.35 61.78 90 63.01 94.37 77.58 101.45 75.24"/><path class="cls-4" d="M96.13,67.45a14.54,14.54,0,0,1,3.4-.55l-1.18-5.12L90.05,63l2,6.7A8.48,8.48,0,0,1,96.13,67.45Z"/><path class="cls-4" d="M95.15,74.7c.69-.59,3-2.59,4.87-1.42,1,.62,2,1.1,1.84,7.63a49.58,49.58,0,0,1-2,13.84H95.3S92.66,80.22,95.15,74.7Z"/><path class="cls-4" d="M88.78,101c.45.52,1.69.86,3.62-.23a11,11,0,0,0,.87,7,1.64,1.64,0,0,0,1.57,1s.53,1.09,1.17,1c1.14-.45.44-2.77.74-4.89.37,1,1.43,4.46,2.77,3.91s-.6-3.74-.34-5.9c.44,1.36,1.75,3.17,2.42,2.61.92-.78,0-2.4-.48-3.69s.63-1.31,1.24-3.38a4.72,4.72,0,0,0-.92-4.06,5.17,5.17,0,0,0-4.66-1.57c-.57.13-2.27.86-4.61,5.15C91.38,99.4,88.34,100.47,88.78,101Z"/><path class="cls-25" d="M94.84,108.74a4,4,0,0,1-.2-.35,7.12,7.12,0,0,1-.41-1c-.06-.22-.14-.44-.2-.7l-.08-.38a2,2,0,0,0-.08-.4c0-.28-.06-.57-.09-.86s0-.59,0-.92a4.85,4.85,0,0,1,.06-.93c0-.33.06-.58.1-.85s.11-.54.17-.79.12-.48.18-.69a5.58,5.58,0,0,1,.18-.58l.16-.43.15-.38a1.43,1.43,0,0,1-.08.39,2.27,2.27,0,0,0-.11.46c0,.17-.07.37-.12.59s-.09.45-.12.69-.06.51-.11.78a8.15,8.15,0,0,1-.07.84,3.54,3.54,0,0,0,0,.86V105a3.91,3.91,0,0,0,.06.84c.07.26.06.52.11.77s.08.46.13.69a8.54,8.54,0,0,0,.29,1A1.61,1.61,0,0,0,94.84,108.74Z"/><path class="cls-25" d="M96.71,105.05a1.51,1.51,0,0,1-.09-.18,3.39,3.39,0,0,1-.17-.51c-.07-.24-.13-.49-.18-.74l0-.42v-.45a6.32,6.32,0,0,1,0-.87.89.89,0,0,1,.06-.4,1.06,1.06,0,0,1,.09-.35,5.78,5.78,0,0,1,.24-.7,6.11,6.11,0,0,1,0,.73,2,2,0,0,0,0,.35v1.22a3.08,3.08,0,0,0,0,.43v.42a2.88,2.88,0,0,0,.06.74C96.68,104.75,96.71,105.05,96.71,105.05Z"/><path class="cls-25" d="M99.11,103a1.86,1.86,0,0,1-.13-.46,3.44,3.44,0,0,0-.1-.48,5.23,5.23,0,0,1,0-.56V101a.94.94,0,0,1,.08-.48,4.05,4.05,0,0,1,.12-.47,4,4,0,0,1,.07.48,3.84,3.84,0,0,1,0,.48v1.57A2.59,2.59,0,0,1,99.11,103Z"/><path class="cls-25" d="M92.4,100.77a1.6,1.6,0,0,1,0-.31,2.44,2.44,0,0,1,.15-.66,3.33,3.33,0,0,1,.27-.61,1.57,1.57,0,0,1,.2-.25,1.71,1.71,0,0,1,0,.32,3.61,3.61,0,0,1-.15.65,2.84,2.84,0,0,1-.29.61A1.44,1.44,0,0,1,92.4,100.77Z"/><path class="cls-5" d="M87.61,71.08c-.29,0-8.25-21.54-2-27.53,1.66-1.84,6.45-.72,10.62,9.23.47,1.14,3.64,10.7,4.46,13C95.89,65.2,91.41,68,87.61,71.08Z"/><path class="cls-6" d="M86,64.16a93,93,0,0,1-1.85-9.52,31.51,31.51,0,0,1-.51-7.19c-1.94,8.41,3.69,23.67,4,23.63l.33-.27A46.83,46.83,0,0,1,86,64.16Z"/><path class="cls-7" d="M96.26,52.78c-4.12-10-9-11.07-10.62-9.23A6.85,6.85,0,0,0,84,46.32a7.89,7.89,0,0,1,.44-.81,3.06,3.06,0,0,1,2.52-1.58,3.6,3.6,0,0,1,2.71,1.72,16.17,16.17,0,0,1,1.9,3.84c.59,1.6,1.22,3.18,1.85,4.77a42.62,42.62,0,0,1,2.3,7.38c.22,1.17.48,2.56-.66,3.33a15.37,15.37,0,0,1-1.92.92,13.56,13.56,0,0,0-2.48,1.62,10,10,0,0,0-2.83,3.43c3.77-3,8.19-5.73,12.91-5.11C99.91,63.48,96.73,53.92,96.26,52.78Z"/><path class="cls-3" d="M74.44,20a7.55,7.55,0,0,0-4.62-3.69c-1.57-.29-4-1.08-5,0s-4.38,8.4-3.85,9.46c.79,1.65,2.57,2.33,4.18,2.92,2.91,1.07,5.49,4.74,6.67,7.38.08.17,3.69-9.55,3.69-9.64A10,10,0,0,0,74.44,20Z"/><path class="cls-18" d="M71.61,36.61s1.07.5,3.12-.74,1.84-5.66,1.56-7.5c-.5-3.29-4.42-4.86-5.79-2.63s-.39,6.32-.39,6.32Z"/><path class="cls-18" d="M76.08,29a.15.15,0,0,1-.23,0c-.56-.45-1.39-1.43-2.22-1.18A2.57,2.57,0,0,0,72,29.73a5.29,5.29,0,0,0,.39,3.77c.29.62,1,1.84.59,2.52a1.73,1.73,0,0,1-.85.68,4.48,4.48,0,0,0,2.65-.83c2-1.17,1.85-5.27,1.6-7.22A1.85,1.85,0,0,1,76.08,29Z"/><path class="cls-2" d="M75.3,30.14c-.17-.7-.76-1.91-1.66-1.72-1.11.23-1.32,1.91-1.35,3.1.07.12.14.24.22.36q.08-.49.18-1c.52,0,1.14-.18,1.59.15.09.07.21-.05.14-.13a2.06,2.06,0,0,0-1.61-.5,3.64,3.64,0,0,1,.63-1.24c.67-.83,1.34.61,1.63,1.07a.13.13,0,0,0,.23-.1Z"/><path class="cls-26" d="M55,66.05a14.54,14.54,0,0,0,1.9-2.91c.22-.46.43-.92.62-1.4a15.2,15.2,0,0,0,.92-2.27c.21-.61.42-1.23.61-1.83a14.74,14.74,0,0,1-4.2,8.67A1.35,1.35,0,0,1,55,66.05Z"/><path class="cls-26" d="M56.61,61.2c.18-.48.35-1,.49-1.47l.37-1.06a11.59,11.59,0,0,1-.77,3,13.32,13.32,0,0,1-1.6,3.39A32,32,0,0,0,56.61,61.2Z"/><path class="cls-26" d="M49.55,67.65a30.31,30.31,0,0,0,2.29-2.38,16.94,16.94,0,0,0,4-6.08l.41-.79c-.92,4.06-4.1,7.77-7.62,10A10.53,10.53,0,0,0,49.55,67.65Z"/><path class="cls-27" d="M46.94,75.87c.14,0,1.34-.49,1.12-.78a1.67,1.67,0,0,0,1.19.55c.82-.06,2-.86,1.62-1.69a2.15,2.15,0,0,0,1.23,0c1.21-.52.81-2.35-.3-2.81a2.37,2.37,0,0,0-1.26-.2,1,1,0,0,0,0-.24,1.64,1.64,0,0,0-1.2-1.17,2.36,2.36,0,0,0-1.52.25,2.63,2.63,0,0,0-2.88.87c-.35.49-.71,1.37.08,1.71l.12.06a2.76,2.76,0,0,0-.75,1.49,2.17,2.17,0,0,0,2.34,2Z"/><path class="cls-28" d="M46.94,75.87c.14,0,1.34-.49,1.12-.78a1.67,1.67,0,0,0,1.19.55c.82-.06,2-.86,1.62-1.69a2.15,2.15,0,0,0,1.23,0c1.21-.52.81-2.35-.3-2.81a2.37,2.37,0,0,0-1.26-.2,1,1,0,0,0,0-.24,1.64,1.64,0,0,0-1.2-1.17,2.36,2.36,0,0,0-1.52.25,2.63,2.63,0,0,0-2.88.87c-.35.49-.71,1.37.08,1.71l.12.06a2.76,2.76,0,0,0-.75,1.49,2.17,2.17,0,0,0,2.34,2Zm-1.68-1.69A2.15,2.15,0,0,1,46,72.34a1.24,1.24,0,0,1,0-1.6,1.76,1.76,0,0,1,1.84-.41c.21-.58,1.25-.64,1.74-.28a1.67,1.67,0,0,1,.68,1.22,1.53,1.53,0,0,1,1.84.85c.21.51-.29,1.07-.74,1.25a1.18,1.18,0,0,1-.92-.06,1.85,1.85,0,0,1-.75,1.74,1.52,1.52,0,0,1-2-.43,1.24,1.24,0,0,1-.69.6,1.43,1.43,0,0,1-1.76-1A.19.19,0,0,1,45.26,74.18Z"/><path class="cls-25" d="M65.29,47.87a17.74,17.74,0,0,0-5.82-1.42,9.1,9.1,0,0,0-4.86,1.06v.06A10.75,10.75,0,0,1,60,46.74,41.24,41.24,0,0,1,65.23,48S65.32,47.9,65.29,47.87Z"/><path class="cls-29" d="M61.89,51.7a9.34,9.34,0,0,0-1.67.14,2.73,2.73,0,0,0-.52,2,2.22,2.22,0,0,0,.41-.2c.38-.22,1.85-1.14,1.72-1.85A.12.12,0,0,0,61.89,51.7Z"/></g><g id="Layer_10-2" data-name="Layer 10"><path class="cls-30" d="M39,45.13s-3-1.84-4.15.06,0,4.1,1.75,5c1.18.6,4.88,1,5.39.33S39,45.13,39,45.13Z"/><path class="cls-31" d="M39,47.64a4.19,4.19,0,0,0-1.23-.75A1.12,1.12,0,0,0,36.18,48c0,.08.09.1.11,0,.14-.38.32-.74.78-.74a2.07,2.07,0,0,1,.92.32,2,2,0,0,0-.47,1.3c0,.09.14.14.16,0a1.79,1.79,0,0,1,.74-1.1l.47.33c.22.17.45.45.73.5a.17.17,0,0,0,.19-.14v-.06C39.68,48.13,39.23,47.84,39,47.64Z"/><path class="cls-32" d="M34.34,32.72s-3.45,6.18-2.3,9S39.76,49,39.76,49,38.85,38.61,34.34,32.72Z"/><path class="cls-32" d="M34.34,32.72a28.1,28.1,0,0,0-1.84,4.21c1.14.41,2,2.2,2.34,3.09a16.21,16.21,0,0,1,1,2.94,4.77,4.77,0,0,1,.2,1.95.16.16,0,0,1-.19.11h0a4.47,4.47,0,0,1-2.43-1.28A42.5,42.5,0,0,0,39.77,49S38.85,38.61,34.34,32.72Z"/><polygon class="cls-33" points="76.02 79.67 75.32 64.02 66.01 64.02 69.57 81.1 76.02 79.67"/><path class="cls-33" d="M72.36,76.2a12.84,12.84,0,0,0,3.48-.55L75.32,64H66l2.47,11.86A11.8,11.8,0,0,0,72.36,76.2Z"/><path class="cls-34" d="M65.53,74.66C63.8,65,64,53.13,65.61,51.47c4,2.18,4.88,4.87,8.3,8.79,1.64,2,3.5,10.15,2.67,13.42C75.42,74.74,68.94,76,65.53,74.66Z"/><path class="cls-34" d="M65.53,74.66C63.8,65,64,53.13,65.61,51.47c4,2.18,4.88,4.87,8.3,8.79,1.64,2,3.5,10.15,2.67,13.42C75.42,74.74,68.94,76,65.53,74.66Z"/><path class="cls-35" d="M66.14,73c-.41-2.43-.61-4.89-.92-7.38A63.42,63.42,0,0,1,65,52.48C63.93,56,64,66.17,65.48,74.62a6.45,6.45,0,0,0,1,.32C66.41,74.32,66.26,73.67,66.14,73Z"/><path class="cls-36" d="M74,60.26c-3.46-3.92-4.36-6.61-8.3-8.79a1.72,1.72,0,0,0-.36.57,13.42,13.42,0,0,0,.48,3.57,22.84,22.84,0,0,0,3.11,6.58A29.05,29.05,0,0,1,71,65.57c.54,1.12,1.6,7.39,2.13,9.3a8.59,8.59,0,0,0,3.47-1.19C77.44,70.44,75.59,62.22,74,60.26Z"/><path class="cls-37" d="M88.09,138.5v.07c.23,1.38-1.75,1.92-5.53,3.26-8.31,2.1-16.67,1.85-16.67.92A3.4,3.4,0,0,1,66,141.7C75.92,143.78,85.33,139.82,88.09,138.5Z"/><path class="cls-38" d="M73.39,136.53c4.1-1.94,8.09-3.5,8.09-3.5h4.85a55.28,55.28,0,0,1,1.76,5.47,41.56,41.56,0,0,1-12,3.52A7.8,7.8,0,0,0,73.39,136.53Z"/><path class="cls-39" d="M70.64,137.88c.92-.46,1.84-.92,2.76-1.35A7.75,7.75,0,0,1,76.17,142a30.32,30.32,0,0,1-10.1-.31C66.34,140.83,67.32,139.6,70.64,137.88Z"/><path class="cls-40" d="M80.08,136.46a12.48,12.48,0,0,0-1.92-2.06l1-.44C82,137,81.06,137.79,80.08,136.46Z"/><path class="cls-40" d="M77.77,137.67a9.36,9.36,0,0,0-1.85-2.31l1.1-.49C79.79,137.61,78.91,139.55,77.77,137.67Z"/><path class="cls-37" d="M116.17,140.35a2.79,2.79,0,0,0,.09.34c.29,1.22-4.25,3.86-8.66,5.61-4,1.57-9.08,2.53-10.41,1.48C107.93,146.3,114,142.23,116.17,140.35Z"/><path class="cls-41" d="M99.15,142.55c.51-.52,1.16-1.13,1.85-1.78,4.07-1.16,5.72,2.9,6.2,4.55a47.34,47.34,0,0,1-10,2.46.79.79,0,0,1-.31-.43C96.4,145.66,97.07,144.67,99.15,142.55Z"/><path class="cls-38" d="M101,140.77c2.17-2,4.78-4.23,4.78-4.23l8.48-1.15s1.46,3.45,1.9,5a31.11,31.11,0,0,1-9,5C106.73,143.68,105.08,139.61,101,140.77Z"/><path class="cls-39" d="M99.15,142.55c.51-.52,1.16-1.13,1.85-1.78,4.07-1.16,5.72,2.9,6.2,4.55a47.34,47.34,0,0,1-10,2.46.79.79,0,0,1-.31-.43C96.4,145.66,97.07,144.67,99.15,142.55Z"/><path class="cls-40" d="M107.09,140.92a11.3,11.3,0,0,0-4.33-1.71l1-.92C107.79,138.48,109.59,142.5,107.09,140.92Z"/><path class="cls-40" d="M108.77,139.44a13,13,0,0,0-4.26-1.84l1.06-.93C109.62,138.07,110.59,140.61,108.77,139.44Z"/><path class="cls-42" d="M115.74,77.26s3.46,4.45,1.74,11.68c-2.42,10.21-9.77,17.75-9.14,19.45l5.15,25.83-8.79,2.34S99.41,124,95.05,110.1c-1.85-6,.92-11,1.13-17L80.74,105.43l7,26.92s-5.72,1.27-8.51.52c0,0-9.86-21.82-9.46-29,.25-4.33,6.52-8.31,13.84-15.69C88.33,83.44,85.74,76,85.74,76S115.41,77,115.74,77.26Z"/><path class="cls-42" d="M71.46,112a43.83,43.83,0,0,1-.93-7A7.4,7.4,0,0,1,72,100.64c2.07-2.91,5.15-4.9,7.77-7.24A50.93,50.93,0,0,1,85,89c1.55-1.06,3.34-1,5.11-1.27a8.17,8.17,0,0,0-3.59-.57c-.12,0-.24-.07-.2-.19,1.28-3.53.31-7.38-.35-11h-.17s2.59,7.49-2.16,12.27C76.31,95.63,70,99.61,69.77,103.93c-.13,2.32.81,6.17,2.15,10.32C71.74,113.5,71.6,112.75,71.46,112Z"/><path class="cls-42" d="M95.11,105.69a26.78,26.78,0,0,1,1.53-8.13,50.72,50.72,0,0,1,3.21-6.27c-1.59,1.17-2.61,3-3.69,4.62l-.27.4c-.76,4.7-2.35,8.93-.8,13.84.07.22.14.43.21.66A32.44,32.44,0,0,1,95.11,105.69Z"/><path class="cls-43" d="M95,94.07A9,9,0,0,1,96.22,93a15.46,15.46,0,0,1,4.32-2c-4.54.63-9.14,1.44-13.69.59,1.32.76,2.82,1.19,4.16,1.92a.17.17,0,0,1,.06.22c-2.13,3.22-5.76,5-8.57,7.53a17.13,17.13,0,0,1-4.7,3.19,24.9,24.9,0,0,1-4.65,1.31,20.22,20.22,0,0,0,4.95.67c.1,0-1.33,5.1-2.09,7.54,1.07-1.51,2.94-5,3-4.84,1.9,3.81,3.31,16.28,2.77,18.22a2.63,2.63,0,0,1-1.46,2,3.5,3.5,0,0,1-3-.59c1.08,2.56,1.85,4.23,1.85,4.23,2.76.75,8.51-.52,8.51-.52l-7-26.92Z"/><path class="cls-43" d="M81.27,103.49a5,5,0,0,0-1.73,2.05,4.38,4.38,0,0,0,.32,2.55c.59,1.85,1.4,3.59,2,5.45.63,2.12,1.22,4.26,1.84,6.37,1.22,3.9,2.36,7.84,3.76,11.68l.07.08L80.7,105.45,93.45,95.27A68.12,68.12,0,0,0,85.78,100C84.23,101.14,82.71,102.28,81.27,103.49Z"/><path class="cls-43" d="M115.74,77.26c-.33-.26-30-1.31-30-1.31s2.06,6-.92,10.65c9.13-2.29,19.57-2.3,27.26,3.62a.16.16,0,0,1,0,.23.13.13,0,0,1-.13.08,31.13,31.13,0,0,0-4.61.52c1,.36,2,.92,1.91,2.16a5.56,5.56,0,0,1-.63,1.78c-.45,1-.92,2-1.35,2.93-.6,1.24-1.22,2.47-1.76,3.69a21.14,21.14,0,0,0-.84,2.17,2,2,0,0,1-.82,1.12A40.65,40.65,0,0,0,99,110.15a31.2,31.2,0,0,0,5.2-2.84c.1-.06.1,5.41-2,7a4.43,4.43,0,0,1-4.85-.08,9.26,9.26,0,0,1-1.24-.92c4.11,12.52,8.59,23.18,8.59,23.18l8.79-2.34-5.15-25.83c-.63-1.7,6.72-9.22,9.14-19.45C119.2,81.73,115.74,77.26,115.74,77.26Z"/><path class="cls-43" d="M115.74,77.26c-.07,0-1.27-.13-3.14-.23a25.34,25.34,0,0,1,1.85,8.09c.2,4.17-.93,8-2.4,11.88-.8,2.08-1.68,4.14-2.59,6.18a56.93,56.93,0,0,0-2.64,6.17c-.65,2-1.14,4-1.7,6s-1.31,3.53-1.7,5.36a13.23,13.23,0,0,0,1.74-3,37.68,37.68,0,0,0,2-4.38c0-.14.27-.18.31,0,.7,4,1.67,7.91,2.58,11.86.44,1.85.93,3.76,1.23,5.66a2.29,2.29,0,0,1-.54,2.18,9,9,0,0,1-6.28,1.77l-.57-.06c.48,1.19.76,1.84.76,1.84l8.79-2.34-5.15-25.83c-.63-1.7,6.72-9.23,9.14-19.45C119.2,81.73,115.74,77.26,115.74,77.26Z"/><path class="cls-44" d="M113.75,133l1.09,2.76a20.77,20.77,0,0,1-10.46,2.09l-.5-2.33S107.29,136,113.75,133Z"/><path class="cls-44" d="M88,131.54l.51,2.34s-3.35,1.21-9.58-.1l0-2S81.16,133.44,88,131.54Z"/><path class="cls-35" d="M85.06,84.89l.8-.2A29.73,29.73,0,0,1,90.92,84a42.84,42.84,0,0,1,12.24,1.45c2.87.72,5.69,1.68,8.59,2.23a15.38,15.38,0,0,0,6.37.2c.3-4.12.29-19.51-14.37-35.53-10-10.87-28.25-16.53-32.93-8.64,0,0-6.35,4.8-5.23,10a94.39,94.39,0,0,0,8.58,13.84c3.1,4.06,8.3,7.81,10.76,13.1A5.22,5.22,0,0,1,85.06,84.89Z"/><path class="cls-35" d="M85.06,84.89l.28-.06a7.08,7.08,0,0,0,.58-3.21c-.18-2.43-2.38-4.35-3.6-6.33a.18.18,0,0,1,.07-.23.2.2,0,0,1,.17,0,12.83,12.83,0,0,0,4.61,1.84A58.29,58.29,0,0,1,72.84,63.66a55.43,55.43,0,0,1-5.53-8.38,16,16,0,0,1-1.57-4.55,6.26,6.26,0,0,0-.1,3,93.55,93.55,0,0,0,8.58,13.84c3.1,4.06,8.3,7.81,10.75,13.1A5.22,5.22,0,0,1,85.06,84.89Z"/><path class="cls-36" d="M103.75,52.36c-10-10.88-28.25-16.54-32.93-8.65,0,0-4.41,3.34-5.23,7.46,2.55,2.23,5.38,4.54,8.93,4.55a3.73,3.73,0,0,0,3.55-1.93A7.37,7.37,0,0,0,78.69,50a12.2,12.2,0,0,0-1.48-5.14c-.28-.52,8.25-1.68,9-1.57a.17.17,0,0,1,.1.21v0c-2.28,4.33-2.77,9.12-2.62,13.95.1,4.16,1.16,11.49,2.65,15.44C87,69.23,89.26,54.25,91,56.05a23,23,0,0,1,4.32,7.18c1.27,3.24,2,6.64,3.29,9.89,0,.12-.08.22-.19.2-1.29-.26-2.67.44-3.83.93a28.37,28.37,0,0,0-3.13,1.54c-1.5.83-3,1.75-4.39,2.68a32.34,32.34,0,0,1,15.81-.87c4.12.81,9.23,2.68,11.27,6.69a.16.16,0,0,1-.07.23.14.14,0,0,1-.11,0,65.26,65.26,0,0,0-8.15-.86A72.31,72.31,0,0,0,97.61,83a49.13,49.13,0,0,0-8.47.76,12.16,12.16,0,0,0-3,.85A30.93,30.93,0,0,1,90.92,84a42.84,42.84,0,0,1,12.24,1.45c2.87.72,5.69,1.68,8.59,2.23a15.38,15.38,0,0,0,6.37.2C118.42,83.77,118.41,68.38,103.75,52.36Z"/><path class="cls-45" d="M88.41,69.88l-.8,1.21s9.74.22,13.11-5.25c0,0-.48-2.56-5.7-1.59A8.69,8.69,0,0,0,88.41,69.88Z"/><path class="cls-46" d="M65.77,39.55l7.33,3.86s7,3.48,3.22,9.45c-1.64,2.62-7.68-1.07-7.68-1.07l-7.56-4.74Z"/><path class="cls-47" d="M71.77,42.73l-6-3.18-4.69,7.5,5.8,3.64C69.81,49.42,71.67,46,71.77,42.73Z"/><path class="cls-47" d="M75.05,44.82a7,7,0,0,1,.31,5.88,3.77,3.77,0,0,1-2.44,2.37,4.41,4.41,0,0,1-1.35.15c1.77.66,3.84,1,4.7-.36C78.62,49.13,76.76,46.36,75.05,44.82Z"/><path class="cls-47" d="M61,13.2a19.24,19.24,0,0,0-10.95-1,25.5,25.5,0,0,0-7.3,2.33,23.28,23.28,0,0,0-4.42,3.07,18.88,18.88,0,0,0-5.91,8.92,12.46,12.46,0,0,0,.71,8.9c.85,1.65,2.36,2.94,3.18,4.55a15.22,15.22,0,0,1,1.42,4.76c.44,3.24,4,9.61,12.86,11.6,7.84,1.78,15.68-3.69,19.16-10.95,3.22-6.76,2.07-14.16-.21-21a33.06,33.06,0,0,0-2.4-5.73,12.36,12.36,0,0,0-4.07-4.37A14.47,14.47,0,0,0,61,13.2Z"/><path class="cls-48" d="M50.29,48.6a5,5,0,0,0,.36-3.5A6,6,0,0,0,50.29,48.6Z"/><path class="cls-48" d="M56.37,52.68a11.61,11.61,0,0,1,1.85-.8c.78-.25,1.6-.39,2.38-.64A4,4,0,0,0,56.37,52.68Z"/><path class="cls-48" d="M34.61,24.6c-1.92,4-2.5,9.06.72,12.38a10.18,10.18,0,0,1-1.17-4.51,18.59,18.59,0,0,1,.77-6.67,20.73,20.73,0,0,1,4.7-8A21.31,21.31,0,0,0,34.61,24.6Z"/><path class="cls-47" d="M54.46,33.11c-1.35-.1-2.73.2-4-.28.11.84.34,1.73,1.41,1.76a20.51,20.51,0,0,0,2.22-.13,22.49,22.49,0,0,1,4.34-.15C57.47,33.33,55.69,33.19,54.46,33.11Z"/><path class="cls-47" d="M45.7,36.22a15.17,15.17,0,0,1,.19,2C46.19,37.54,46.4,36.45,45.7,36.22Z"/><path class="cls-49" d="M50.49,40.61c-2.77,1.51-5.43,4-4.82,7.25,1.52-2.29,4.07-3.82,6.46-5.06a35.67,35.67,0,0,1,4.54-2.06,37,37,0,0,1,4.75-1.17C58,37.71,53.72,38.83,50.49,40.61Z"/><path class="cls-47" d="M49.11,33.16c-.07.5-.16,1.2.17,1.46a1.75,1.75,0,0,0,1.47.28A12.85,12.85,0,0,0,49.11,33.16Z"/><path class="cls-47" d="M43,35.75a5.31,5.31,0,0,1-.65,4.13c-.5,1-1.34,2.77-.7,3.86a18.69,18.69,0,0,1,2.1-3.69,3.54,3.54,0,0,0,1-2.7A2.12,2.12,0,0,0,43,35.75Z"/><path class="cls-47" d="M56.88,47a16.07,16.07,0,0,1,2.56.58,22.71,22.71,0,0,0,5.93.58A10.22,10.22,0,0,0,60,46.54,11,11,0,0,0,56.88,47Z"/><path class="cls-47" d="M51.94,53a7.07,7.07,0,0,0,1.31,2.63,13,13,0,0,1-1-6C51.53,50.51,51.73,51.94,51.94,53Z"/><path class="cls-47" d="M69.58,24.4a33.49,33.49,0,0,0-2.4-5.74,12.41,12.41,0,0,0-4.07-4.36A14.64,14.64,0,0,0,61,13.2,18.93,18.93,0,0,0,51.25,12a15.87,15.87,0,0,1,5.61.59,7.38,7.38,0,0,1,4,2.61c1.51,2.42-.37,5.16-1.15,7.49-.46,1.4-.73,3.09.37,4.29,1.33,1.46,3.41,1.73,5,2.86,7.17,5.19,4.7,16-.46,21.72a23.58,23.58,0,0,1-3,2.86,21.27,21.27,0,0,0,8.24-9C73,38.65,71.86,31.25,69.58,24.4Z"/><path class="cls-50" d="M49.69,49.76a6.1,6.1,0,0,0,4.49-1.35C52.66,48.07,50,48.31,49.69,49.76Z"/><path class="cls-51" d="M57.67,38.13c.48.92.49,1.79,0,2s-1.21-.25-1.69-1.12-.49-1.79,0-2S57.2,37.26,57.67,38.13Z"/><path class="cls-52" d="M56.36,38c.12.29.1.56,0,.63s-.35-.1-.47-.39-.1-.55,0-.62S56.24,37.71,56.36,38Z"/><path class="cls-51" d="M46.52,44.15c.48.93.49,1.79,0,2s-1.23-.25-1.71-1.12-.48-1.78,0-2S46.05,43.29,46.52,44.15Z"/><path class="cls-52" d="M45.21,44.05c.12.28.1.56,0,.63s-.36-.11-.48-.39-.1-.55.05-.62S45.09,43.74,45.21,44.05Z"/><path class="cls-53" d="M58.44,34a7.44,7.44,0,0,0-3-1c-1.43-.06-3.15.72-4.45,0a.2.2,0,0,0-.15,0,7.47,7.47,0,0,0,.47,1.13,2.28,2.28,0,0,0,1.31.38,38.7,38.7,0,0,1,5.59-.2C58.32,34.32,58.72,34.16,58.44,34Z"/><path class="cls-53" d="M41.37,44.14A7.48,7.48,0,0,1,41.79,41c.55-1.32,2-2.53,1.84-4a.29.29,0,0,1,0-.13,6,6,0,0,1,.83.92,2.41,2.41,0,0,1-.21,1.35,38.5,38.5,0,0,0-2.46,5C41.7,44.15,41.39,44.44,41.37,44.14Z"/><path class="cls-54" d="M50.69,43.94a8.07,8.07,0,0,0-1.19,5.33c.2,1.61,3.17.14,3.69-.39.08-.09,0-.38-.14-.32-.92.45-3.35,1.91-3.33-.09a9.7,9.7,0,0,1,1-4.42S50.72,43.91,50.69,43.94Z"/><path class="cls-33" d="M70.08,78.45a3.13,3.13,0,0,1,4.11-1.6l.2.1c.92.52,1.85.92,2,6.79a115.45,115.45,0,0,1,.13,12.48L72.15,96S68.08,83.53,70.08,78.45Z"/><path class="cls-33" d="M77.34,95.14a5,5,0,0,0-1.84-1.48,2.86,2.86,0,0,0-1.42-.11,5.71,5.71,0,0,0-2.9,1.85,16.93,16.93,0,0,0-2.6,4.8,10,10,0,0,0,.17,6.11,1.47,1.47,0,0,0,1.31,1s.36,1,.93,1.05c1.07-.3.66-2.4,1.15-4.31.22,1,.84,4.13,2.08,3.77s-.17-3.41.27-5.31c.26,1.24,1.43,5.08,2.09,4.61.92-.62.07-4.21-.24-5.39s.69-1.1,1.45-2.9A4.31,4.31,0,0,0,77.34,95.14Z"/><path class="cls-54" d="M70,107.31a3.3,3.3,0,0,1-.16-.33,7.45,7.45,0,0,1-.27-.92c0-.22-.08-.43-.1-.64v-.73q0-.39,0-.78a3.1,3.1,0,0,1,.07-.79c.06-.27.08-.53.12-.79s.12-.51.19-.75l.22-.69c.07-.21.16-.42.23-.6s.14-.34.22-.5l.2-.38.16-.32-.11.35-.14.39c0,.15-.1.33-.16.52l-.19.61a3.11,3.11,0,0,1-.16.69c-.07.24-.1.48-.16.73s-.07.52-.11.78a6.94,6.94,0,0,0-.08.77c0,.26,0,.51,0,.76v.7a2.68,2.68,0,0,0,0,.64A9.3,9.3,0,0,0,70,107,2.17,2.17,0,0,0,70,107.31Z"/><path class="cls-54" d="M72.07,104.18,72,104a4.15,4.15,0,0,1-.11-.48,5.25,5.25,0,0,1-.08-.68,2.41,2.41,0,0,1,0-.38,2.67,2.67,0,0,1,0-.4,5.39,5.39,0,0,1,.12-.79,1.64,1.64,0,0,1,.09-.35,1.21,1.21,0,0,1,.11-.3,4.2,4.2,0,0,1,.3-.6c0,.22-.08.43-.13.65a1.61,1.61,0,0,0,0,.31l-.06.35v.75a2.54,2.54,0,0,0,0,.39v1A2,2,0,0,0,72.07,104.18Z"/><path class="cls-54" d="M74.42,102.62a2,2,0,0,1-.08-.43v-.43a4.34,4.34,0,0,1,0-.51l0-.5a1.29,1.29,0,0,1,.12-.42,2.05,2.05,0,0,1,.16-.41v1.36a1.38,1.38,0,0,1-.06.49c0,.15,0,.3,0,.43S74.47,102.48,74.42,102.62Z"/><path class="cls-33" d="M80.31,101.31a12.19,12.19,0,0,1-1.62-3.51A7.34,7.34,0,0,0,77.9,96a6.29,6.29,0,0,0-.79-.92s.09-.13,0-.16a.84.84,0,0,0-.27-.08l-.1-.06h0v.06c-1.2.07-1.42,4-1.42,4.67a2.45,2.45,0,0,0,.4,1.54c.26.36.76.28,1.12.23,1.35-.19,1.85,1.58,2.69,2.35a1.16,1.16,0,0,0,1.64,0l.06,0C81.9,102.86,80.78,101.91,80.31,101.31Z"/><polygon class="cls-33" points="101.45 75.24 98.35 61.78 90 63.01 94.37 77.58 101.45 75.24"/><path class="cls-33" d="M96.13,67.45a14.54,14.54,0,0,1,3.4-.55l-1.18-5.12L90.05,63l2,6.7A8.48,8.48,0,0,1,96.13,67.45Z"/><path class="cls-33" d="M95.15,74.7c.69-.59,3-2.59,4.87-1.42,1,.62,2,1.1,1.84,7.63a49.58,49.58,0,0,1-2,13.84H95.3S92.66,80.22,95.15,74.7Z"/><path class="cls-33" d="M88.78,101c.45.52,1.69.86,3.62-.23a11,11,0,0,0,.87,7,1.64,1.64,0,0,0,1.57,1s.53,1.09,1.17,1c1.14-.45.44-2.77.74-4.89.37,1,1.43,4.46,2.77,3.91s-.6-3.74-.34-5.9c.44,1.36,1.75,3.17,2.42,2.61.92-.78,0-2.4-.48-3.69s.63-1.31,1.24-3.38a4.72,4.72,0,0,0-.92-4.06,5.17,5.17,0,0,0-4.66-1.57c-.57.13-2.27.86-4.61,5.15C91.38,99.4,88.34,100.47,88.78,101Z"/><path class="cls-54" d="M94.84,108.74a4,4,0,0,1-.2-.35,7.12,7.12,0,0,1-.41-1c-.06-.22-.14-.44-.2-.7l-.08-.38a2,2,0,0,0-.08-.4c0-.28-.06-.57-.09-.86s0-.59,0-.92a4.85,4.85,0,0,1,.06-.93c0-.33.06-.58.1-.85s.11-.54.17-.79.12-.48.18-.69a5.58,5.58,0,0,1,.18-.58l.16-.43.15-.38a1.43,1.43,0,0,1-.08.39,2.27,2.27,0,0,0-.11.46c0,.17-.07.37-.12.59s-.09.45-.12.69-.06.51-.11.78a8.15,8.15,0,0,1-.07.84,3.54,3.54,0,0,0,0,.86V105a3.91,3.91,0,0,0,.06.84c.07.26.06.52.11.77s.08.46.13.69a8.54,8.54,0,0,0,.29,1A1.61,1.61,0,0,0,94.84,108.74Z"/><path class="cls-54" d="M96.71,105.05a1.51,1.51,0,0,1-.09-.18,3.39,3.39,0,0,1-.17-.51c-.07-.24-.13-.49-.18-.74l0-.42v-.45a6.32,6.32,0,0,1,0-.87.89.89,0,0,1,.06-.4,1.06,1.06,0,0,1,.09-.35,5.78,5.78,0,0,1,.24-.7,6.11,6.11,0,0,1,0,.73,2,2,0,0,0,0,.35v1.22a3.08,3.08,0,0,0,0,.43v.42a2.88,2.88,0,0,0,.06.74C96.68,104.75,96.71,105.05,96.71,105.05Z"/><path class="cls-54" d="M99.11,103a1.86,1.86,0,0,1-.13-.46,3.44,3.44,0,0,0-.1-.48,5.23,5.23,0,0,1,0-.56V101a.94.94,0,0,1,.08-.48,4.05,4.05,0,0,1,.12-.47,4,4,0,0,1,.07.48,3.84,3.84,0,0,1,0,.48v1.57A2.59,2.59,0,0,1,99.11,103Z"/><path class="cls-54" d="M92.4,100.77a1.6,1.6,0,0,1,0-.31,2.44,2.44,0,0,1,.15-.66,3.33,3.33,0,0,1,.27-.61,1.57,1.57,0,0,1,.2-.25,1.71,1.71,0,0,1,0,.32,3.61,3.61,0,0,1-.15.65,2.84,2.84,0,0,1-.29.61A1.44,1.44,0,0,1,92.4,100.77Z"/><path class="cls-34" d="M87.61,71.08c-.29,0-8.25-21.54-2-27.53,1.66-1.84,6.45-.72,10.62,9.23.47,1.14,3.64,10.7,4.46,13C95.89,65.2,91.41,68,87.61,71.08Z"/><path class="cls-35" d="M86,64.16a93,93,0,0,1-1.85-9.52,31.51,31.51,0,0,1-.51-7.19c-1.94,8.41,3.69,23.67,4,23.63l.33-.27A46.83,46.83,0,0,1,86,64.16Z"/><path class="cls-36" d="M96.26,52.78c-4.12-10-9-11.07-10.62-9.23A6.85,6.85,0,0,0,84,46.32a7.89,7.89,0,0,1,.44-.81,3.06,3.06,0,0,1,2.52-1.58,3.6,3.6,0,0,1,2.71,1.72,16.17,16.17,0,0,1,1.9,3.84c.59,1.6,1.22,3.18,1.85,4.77a42.62,42.62,0,0,1,2.3,7.38c.22,1.17.48,2.56-.66,3.33a15.37,15.37,0,0,1-1.92.92,13.56,13.56,0,0,0-2.48,1.62,10,10,0,0,0-2.83,3.43c3.77-3,8.19-5.73,12.91-5.11C99.91,63.48,96.73,53.92,96.26,52.78Z"/><path class="cls-32" d="M74.44,20a7.55,7.55,0,0,0-4.62-3.69c-1.57-.29-4-1.08-5,0s-4.38,8.4-3.85,9.46c.79,1.65,2.57,2.33,4.18,2.92,2.91,1.07,5.49,4.74,6.67,7.38.08.17,3.69-9.55,3.69-9.64A10,10,0,0,0,74.44,20Z"/><path class="cls-32" d="M74.44,20a9.24,9.24,0,0,0-2.35-2.67,3.24,3.24,0,0,1,.65,3.54,2.53,2.53,0,0,1-2.61,1.41c-1.15-.12-2.19-.81-3.35-.49.61,1.53,2,2.65,2,4.41a.18.18,0,0,1-.17.17.16.16,0,0,1-.11-.05,5.29,5.29,0,0,0-2.35-1.57,11.61,11.61,0,0,1,2.45,3.69.16.16,0,0,1-.09.2.17.17,0,0,1-.1,0C66,28,62.44,26.82,61.92,24A5.19,5.19,0,0,1,62,21.65c-.73,1.85-1.25,3.55-1,4,.8,1.65,2.58,2.32,4.19,2.92,2.91,1.07,5.49,4.73,6.67,7.38.08.17,3.69-9.56,3.69-9.65A10,10,0,0,0,74.44,20Z"/><path class="cls-32" d="M65.42,15.84a1.63,1.63,0,0,0-.6.37,14.34,14.34,0,0,0-1.53,2.66C63.93,17.81,64.69,16.83,65.42,15.84Z"/><path class="cls-47" d="M71.61,36.61s1.07.5,3.12-.74,1.84-5.66,1.56-7.5c-.5-3.29-4.42-4.86-5.79-2.63s-.39,6.32-.39,6.32Z"/><path class="cls-47" d="M76.08,29a.15.15,0,0,1-.23,0c-.56-.45-1.39-1.43-2.22-1.18A2.57,2.57,0,0,0,72,29.73a5.29,5.29,0,0,0,.39,3.77c.29.62,1,1.84.59,2.52a1.73,1.73,0,0,1-.85.68,4.48,4.48,0,0,0,2.65-.83c2-1.17,1.85-5.27,1.6-7.22A1.85,1.85,0,0,1,76.08,29Z"/><path class="cls-31" d="M75.3,30.14c-.17-.7-.76-1.91-1.66-1.72-1.11.23-1.32,1.91-1.35,3.1.07.12.14.24.22.36q.08-.49.18-1c.52,0,1.14-.18,1.59.15.09.07.21-.05.14-.13a2.06,2.06,0,0,0-1.61-.5,3.64,3.64,0,0,1,.63-1.24c.67-.83,1.34.61,1.63,1.07a.13.13,0,0,0,.23-.1Z"/><path class="cls-55" d="M54.33,69.08a20.84,20.84,0,0,0,1.9-3.81c.22-.61.42-1.22.61-1.84a25.71,25.71,0,0,0,.93-3c.21-.8.41-1.6.61-2.4a22.22,22.22,0,0,1-4.2,11.37A1.47,1.47,0,0,1,54.33,69.08Z"/><path class="cls-55" d="M56.61,61.2c.18-.48.35-1,.49-1.47l.37-1.06a11.59,11.59,0,0,1-.77,3,13.32,13.32,0,0,1-1.6,3.39A32,32,0,0,0,56.61,61.2Z"/><path class="cls-55" d="M49.55,67.65a30.31,30.31,0,0,0,2.29-2.38,16.94,16.94,0,0,0,4-6.08l.41-.79c-.92,4.06-4.1,7.77-7.62,10A10.53,10.53,0,0,0,49.55,67.65Z"/><path class="cls-56" d="M46.94,75.87c.14,0,1.34-.49,1.12-.78a1.67,1.67,0,0,0,1.19.55c.82-.06,2-.86,1.62-1.69a2.15,2.15,0,0,0,1.23,0c1.21-.52.81-2.35-.3-2.81a2.37,2.37,0,0,0-1.26-.2,1,1,0,0,0,0-.24,1.64,1.64,0,0,0-1.2-1.17,2.36,2.36,0,0,0-1.52.25,2.63,2.63,0,0,0-2.88.87c-.35.49-.71,1.37.08,1.71l.12.06a2.76,2.76,0,0,0-.75,1.49,2.17,2.17,0,0,0,2.34,2Z"/><path class="cls-57" d="M46.94,75.87c.14,0,1.34-.49,1.12-.78a1.67,1.67,0,0,0,1.19.55c.82-.06,2-.86,1.62-1.69a2.15,2.15,0,0,0,1.23,0c1.21-.52.81-2.35-.3-2.81a2.37,2.37,0,0,0-1.26-.2,1,1,0,0,0,0-.24,1.64,1.64,0,0,0-1.2-1.17,2.36,2.36,0,0,0-1.52.25,2.63,2.63,0,0,0-2.88.87c-.35.49-.71,1.37.08,1.71l.12.06a2.76,2.76,0,0,0-.75,1.49,2.17,2.17,0,0,0,2.34,2Zm-1.68-1.69A2.15,2.15,0,0,1,46,72.34a1.24,1.24,0,0,1,0-1.6,1.76,1.76,0,0,1,1.84-.41c.21-.58,1.25-.64,1.74-.28a1.67,1.67,0,0,1,.68,1.22,1.53,1.53,0,0,1,1.84.85c.21.51-.29,1.07-.74,1.25a1.18,1.18,0,0,1-.92-.06,1.85,1.85,0,0,1-.75,1.74,1.52,1.52,0,0,1-2-.43,1.24,1.24,0,0,1-.69.6,1.43,1.43,0,0,1-1.76-1A.19.19,0,0,1,45.26,74.18Z"/><path class="cls-54" d="M53.59,56.21a13.3,13.3,0,0,1-1.21-3.1c-.23-.92-.68-2.43-.19-3.33,0-.05,0-.07-.07,0-.53.68-.32,1.85-.21,2.61a7.39,7.39,0,0,0,1.55,4S53.62,56.27,53.59,56.21Z"/><path class="cls-54" d="M65.29,47.87a17.74,17.74,0,0,0-5.82-1.42,9.1,9.1,0,0,0-4.86,1.06v.06A10.75,10.75,0,0,1,60,46.74,41.24,41.24,0,0,1,65.23,48S65.32,47.9,65.29,47.87Z"/><path class="cls-58" d="M61.89,51.7a12.52,12.52,0,0,0-3.69.62,8.45,8.45,0,0,0-.85.28c.74,1,1.49,1.78,2.77,1,.38-.22,1.84-1.14,1.72-1.85A.1.1,0,0,0,61.89,51.7Z"/><path class="cls-59" d="M61.89,51.7a9.34,9.34,0,0,0-1.67.14,2.73,2.73,0,0,0-.52,2,2.22,2.22,0,0,0,.41-.2c.38-.22,1.85-1.14,1.72-1.85A.12.12,0,0,0,61.89,51.7Z"/></g></svg>