<svg id="वृक्ष" xmlns="http://www.w3.org/2000/svg" viewBox="0 0 150 160"><defs><style>.cls-1,.cls-15,.cls-2,.cls-8,.cls-9{fill:none;}.cls-1,.cls-2,.cls-3,.cls-4,.cls-5,.cls-6,.cls-7{stroke:#fff;stroke-width:5px;}.cls-1,.cls-15,.cls-8{stroke-linecap:round;stroke-linejoin:round;}.cls-2,.cls-3,.cls-4,.cls-5,.cls-6,.cls-7,.cls-9{stroke-miterlimit:10;}.cls-10,.cls-3{fill:#845635;}.cls-11,.cls-4{fill:#768d3a;}.cls-12,.cls-5{fill:#849e45;}.cls-13,.cls-6{fill:#96b24e;}.cls-14,.cls-7{fill:#b1794b;}.cls-8,.cls-9{stroke:#768d3a;}.cls-15{stroke:#849e45;}</style></defs><line class="cls-1" x1="36.59" y1="103.68" x2="36.59" y2="117.02"/><line class="cls-1" x1="124.96" y1="102.08" x2="124.96" y2="119.44"/><path class="cls-2" d="M20.63,98.07V110.8a5.3,5.3,0,0,0,5.3,5.3h0a5.29,5.29,0,0,0,5.29-5.3V97.58"/><path class="cls-2" d="M125,90.28V103a5.3,5.3,0,0,0,5.3,5.3h0a5.3,5.3,0,0,0,5.3-5.3V89.79"/><path class="cls-3" d="M100.84,97.58a21.25,21.25,0,0,1-36.45,0H52.11a32.45,32.45,0,0,0,22.48,20.47v21.3h16v-21.3a32.45,32.45,0,0,0,22.48-20.47Z"/><path class="cls-4" d="M106.89,40.91a28.6,28.6,0,0,0-4.17.46v-.3A24.47,24.47,0,0,0,54.3,37a25.66,25.66,0,0,0-15.93-1.56,26.07,26.07,0,0,0,2.37,51.26A29.31,29.31,0,0,0,87.15,93.6a30.49,30.49,0,1,0,19.74-52.69Z"/><path class="cls-5" d="M63.28,74.64l-.43,0a13.39,13.39,0,0,0,.38-2.47A13.22,13.22,0,0,0,37.61,67a7.53,7.53,0,0,0-12,8.7c-.24,0-.48-.06-.73-.07a12.8,12.8,0,1,0-1.21,25.58,12.13,12.13,0,0,0,2.18-.09,21.56,21.56,0,0,0,36.24,5.46c.39,0,.77.06,1.17.06a16,16,0,1,0,0-32Z"/><path class="cls-6" d="M103.68,102.65l.67-.28a13.51,13.51,0,0,0,.79,4.38,13.82,13.82,0,1,0,26-9.29c-.05-.14-.11-.27-.17-.41a13.82,13.82,0,1,0-20.88-15.68,13.83,13.83,0,1,0-6.45,21.28Z"/><path class="cls-7" d="M95.46,142.58H69.77c.37-4.6,6-8.24,12.84-8.24S95.09,138,95.46,142.58Z"/><path class="cls-6" d="M37.39,72.74c-5,1.05-3.72,5.88-3.72,5.88S38.58,77.7,37.39,72.74Z"/><path class="cls-6" d="M44.14,76.4c-5,1-3.72,5.87-3.72,5.87S45.33,81.35,44.14,76.4Z"/><path class="cls-6" d="M44.44,68.84c-5,1-3.71,5.87-3.71,5.87S45.63,73.79,44.44,68.84Z"/><path class="cls-5" d="M117.72,78.85c-5,1.05-3.71,5.87-3.71,5.87S118.91,83.8,117.72,78.85Z"/><path class="cls-5" d="M124.47,82.5c-5,1-3.71,5.88-3.71,5.88S125.66,87.46,124.47,82.5Z"/><path class="cls-5" d="M124.77,74.94c-5,1-3.71,5.87-3.71,5.87S126,79.89,124.77,74.94Z"/><path class="cls-5" d="M67.64,26.28c-4.26.9-3.17,5-3.17,5S68.65,30.51,67.64,26.28Z"/><path class="cls-5" d="M73.4,29.4c-4.26.9-3.17,5-3.17,5S74.42,33.63,73.4,29.4Z"/><path class="cls-5" d="M73.66,23c-4.26.9-3.17,5-3.17,5S74.67,27.18,73.66,23Z"/><path class="cls-5" d="M32.08,43.33c-4.25.89-3.17,5-3.17,5S33.1,47.56,32.08,43.33Z"/><path class="cls-5" d="M37.85,46.45c-4.26.89-3.17,5-3.17,5S38.86,50.68,37.85,46.45Z"/><path class="cls-5" d="M38.11,40c-4.26.9-3.17,5-3.17,5S39.12,44.22,38.11,40Z"/><path class="cls-1" d="M40.58,101.36v5.47a11,11,0,0,0,11,11h0a11,11,0,0,0,11-11v-2.67"/><path class="cls-1" d="M101.5,89.79v5.47a11,11,0,0,0,11,11h0a11,11,0,0,0,11-11V92.59"/><path class="cls-1" d="M77.27,46.66v5.47a11,11,0,0,0,11,11h0a11,11,0,0,0,11-11V49.46"/><line class="cls-1" x1="70.94" y1="47.52" x2="70.94" y2="65.55"/><line class="cls-8" x1="36.59" y1="103.68" x2="36.59" y2="117.02"/><line class="cls-8" x1="124.96" y1="102.08" x2="124.96" y2="119.44"/><path class="cls-9" d="M20.63,98.07V110.8a5.3,5.3,0,0,0,5.3,5.3h0a5.29,5.29,0,0,0,5.29-5.3V97.58"/><path class="cls-9" d="M125,90.28V103a5.3,5.3,0,0,0,5.3,5.3h0a5.3,5.3,0,0,0,5.3-5.3V89.79"/><path class="cls-10" d="M100.84,97.58a21.25,21.25,0,0,1-36.45,0H52.11a32.45,32.45,0,0,0,22.48,20.47v21.3h16v-21.3a32.45,32.45,0,0,0,22.48-20.47Z"/><path class="cls-11" d="M106.89,40.91a28.6,28.6,0,0,0-4.17.46v-.3A24.47,24.47,0,0,0,54.3,37a25.66,25.66,0,0,0-15.93-1.56,26.07,26.07,0,0,0,2.37,51.26A29.31,29.31,0,0,0,87.15,93.6a30.49,30.49,0,1,0,19.74-52.69Z"/><path class="cls-12" d="M63.28,74.64l-.43,0a13.39,13.39,0,0,0,.38-2.47A13.22,13.22,0,0,0,37.61,67a7.53,7.53,0,0,0-12,8.7c-.24,0-.48-.06-.73-.07a12.8,12.8,0,1,0-1.21,25.58,12.13,12.13,0,0,0,2.18-.09,21.56,21.56,0,0,0,36.24,5.46c.39,0,.77.06,1.17.06a16,16,0,1,0,0-32Z"/><path class="cls-13" d="M103.68,102.65l.67-.28a13.51,13.51,0,0,0,.79,4.38,13.82,13.82,0,1,0,26-9.29c-.05-.14-.11-.27-.17-.41a13.82,13.82,0,1,0-20.88-15.68,13.83,13.83,0,1,0-6.45,21.28Z"/><path class="cls-14" d="M95.46,142.58H69.77c.37-4.6,6-8.24,12.84-8.24S95.09,138,95.46,142.58Z"/><path class="cls-13" d="M37.39,72.74c-5,1.05-3.72,5.88-3.72,5.88S38.58,77.7,37.39,72.74Z"/><path class="cls-13" d="M44.14,76.4c-5,1-3.72,5.87-3.72,5.87S45.33,81.35,44.14,76.4Z"/><path class="cls-13" d="M44.44,68.84c-5,1-3.71,5.87-3.71,5.87S45.63,73.79,44.44,68.84Z"/><path class="cls-12" d="M117.72,78.85c-5,1.05-3.71,5.87-3.71,5.87S118.91,83.8,117.72,78.85Z"/><path class="cls-12" d="M124.47,82.5c-5,1-3.71,5.88-3.71,5.88S125.66,87.46,124.47,82.5Z"/><path class="cls-12" d="M124.77,74.94c-5,1-3.71,5.87-3.71,5.87S126,79.89,124.77,74.94Z"/><path class="cls-12" d="M67.64,26.28c-4.26.9-3.17,5-3.17,5S68.65,30.51,67.64,26.28Z"/><path class="cls-12" d="M73.4,29.4c-4.26.9-3.17,5-3.17,5S74.42,33.63,73.4,29.4Z"/><path class="cls-12" d="M73.66,23c-4.26.9-3.17,5-3.17,5S74.67,27.18,73.66,23Z"/><path class="cls-12" d="M32.08,43.33c-4.25.89-3.17,5-3.17,5S33.1,47.56,32.08,43.33Z"/><path class="cls-12" d="M37.85,46.45c-4.26.89-3.17,5-3.17,5S38.86,50.68,37.85,46.45Z"/><path class="cls-12" d="M38.11,40c-4.26.9-3.17,5-3.17,5S39.12,44.22,38.11,40Z"/><path class="cls-8" d="M40.58,101.36v5.47a11,11,0,0,0,11,11h0a11,11,0,0,0,11-11v-2.67"/><path class="cls-8" d="M101.5,89.79v5.47a11,11,0,0,0,11,11h0a11,11,0,0,0,11-11V92.59"/><path class="cls-15" d="M77.27,46.66v5.47a11,11,0,0,0,11,11h0a11,11,0,0,0,11-11V49.46"/><line class="cls-15" x1="70.94" y1="47.52" x2="70.94" y2="65.55"/></svg>