<svg id="Layer_1" data-name="Layer 1" xmlns="http://www.w3.org/2000/svg" viewBox="0 0 150 160"><defs><style>.cls-1{fill:#fff;}.cls-2{fill:#d6741d;}.cls-3{fill:#b65416;}.cls-4{fill:#a6441b;}.cls-5{fill:#c66419;}.cls-6{fill:#5d2c10;}.cls-7{fill:#e47e30;}.cls-8{opacity:0.06;}</style></defs><g id="खटमल"><path class="cls-1" d="M115.49,93.46,112,90.82l-5.51-18.21a4,4,0,0,0,.08-1.85,4.21,4.21,0,0,0-4.15-3.47,4.88,4.88,0,0,0-.76.07l-10.74,2c-.35-.46-.7-.9-1.06-1.32l8-5.38A4.23,4.23,0,0,0,99,56.8l0-.16L98,42.75l4.17-4.49a3.27,3.27,0,1,0-4.8-4.45L94,37.51l3.17-8.24,8.28-1.74a3,3,0,0,0-.6-5.85,2.48,2.48,0,0,0-.61.07l-9.85,2.07a3,3,0,0,0-2.16,1.83L86.74,39.84l-8.37,4.79a3.47,3.47,0,0,0-2.89-1.56h-1a3.47,3.47,0,0,0-2.89,1.56l-8.37-4.78L57.79,25.62a2.9,2.9,0,0,0-2.15-1.8L45.8,21.75a2.56,2.56,0,0,0-.62-.07A2.92,2.92,0,0,0,42.3,24a3,3,0,0,0,2.28,3.52l8.28,1.74L56,37.5l-3.42-3.67a3.28,3.28,0,0,0-5.68,2.08,3.32,3.32,0,0,0,.88,2.36L52,42.75,51,56.63l-.09.13a4.23,4.23,0,0,0,1.15,5.86h0l8,5.38c-.37.42-.72.86-1.06,1.31l-10.74-2a3.81,3.81,0,0,0-.75-.07,4.21,4.21,0,0,0-4.09,5.32L38,90.82l-3.49,2.64a3.32,3.32,0,0,0-.6,4.61,3.27,3.27,0,0,0,2.59,1.26,3.21,3.21,0,0,0,2-.66L42,96a4,4,0,0,0,.49-.15s.31,19.4.31,19.42l-2.21,5.2a3.25,3.25,0,0,0,1.67,4.28h0a3.12,3.12,0,0,0,1.31.28,3.23,3.23,0,0,0,3-2l2.23-5.23A3.55,3.55,0,0,0,50,115.09l-.38-23,1.49-.85a62.6,62.6,0,0,0-.5,7.86v1.71h0l-.73.61.83,1.06c0,.29.06.57.09.87v.15A9.08,9.08,0,0,0,51,105c.1.65.21,1.28.31,1.81l.1.52.22,1c.15.66.31,1.32.5,2l.14.48.22.75a1.2,1.2,0,0,0,.13.39,2.25,2.25,0,0,0,.08.24,1.67,1.67,0,0,0,.17.52v.61l.29.25c.14.39.28.77.42,1.12l.1.26h0c.18.46.37.9.54,1.27s.19.48.3.71c.18.43.38.84.6,1.3,0,.12.12.25.18.37a1.51,1.51,0,0,0,.11.22l.26.53.25.5.06.08c.28.55.57,1.07.88,1.61a52,52,0,0,0,7,9.6c3.16,3.39,6.3,5.75,8.89,6.72v.51H77v-.47c2.59-1,5.73-3.33,8.88-6.71a51.09,51.09,0,0,0,7-9.6c.31-.53.6-1.07.9-1.63l.51-1H95v-1.55l.2-.45.26-.59c.1-.23.2-.45.26-.61.29-.69.56-1.4.8-2.08l.18-.49c.07-.16.12-.33.2-.56l.06-.2c.09-.25.16-.49.22-.67.15-.47.29-.94.42-1.42a1.54,1.54,0,0,1,.1-.35,4.85,4.85,0,0,0,.16-.63,4.56,4.56,0,0,0,.13-.53l.11-.45a2.08,2.08,0,0,1,.11-.48l.11-.5.08-.43q.19-.93.33-1.89c.09-.54.15-1.1.22-1.66,0-.29.06-.57.08-.86l.84-1.08-.73-.59V99.16a59,59,0,0,0-.5-7.86l1.49.85-.38,23a3.58,3.58,0,0,0,1.15,2.68l2.23,5.23a3.25,3.25,0,0,0,3,2,3.33,3.33,0,0,0,1.28-.26,3.29,3.29,0,0,0,1.73-4.3l-2.22-5.21.32-19.42A3.9,3.9,0,0,0,108,96l3.55,2.7a3.29,3.29,0,0,0,2,.68,3.36,3.36,0,0,0,2.62-1.3,3.3,3.3,0,0,0-.66-4.61ZM95.41,77.1l4.7-.86,2.18,7.2-5.83-3.32L96.25,80l-.06-.16c-.15-.44-.31-.89-.46-1.27s-.29-.75-.44-1.11l.25-.1ZM82.8,48.9l7.78-4.45a2.64,2.64,0,0,0,.35-.23l.85,12.33L89,58.38a8.9,8.9,0,0,0-5.24-6.73v-.14A3.9,3.9,0,0,0,82.8,48.9ZM66.2,51.64A9,9,0,0,0,61,58.39l-2.74-1.84.85-12.33.35.23,7.78,4.46a3.92,3.92,0,0,0-1,2.63ZM54.73,77.45c-.16.37-.3.73-.44,1.09s-.26.67-.38,1l-.17.46-.2.11-5.83,3.32,2.18-7.19,4.74.85-.12.26Z"/><path class="cls-2" d="M42,93.48l-.75.56-4,3a1.21,1.21,0,0,1-.78.25A1.27,1.27,0,0,1,35.2,96a1.25,1.25,0,0,1,.5-1l4-3,.76-.57a1.27,1.27,0,0,1,1.54,2Z"/><path class="cls-2" d="M49.09,72l-.6,2L44.28,87.87l-.48,1.64-1,3.41A1.56,1.56,0,0,1,41.25,94h0a1.84,1.84,0,0,1-.47-.06,1.61,1.61,0,0,1-1.07-2h0l5.88-19.45L46,71.06a1.59,1.59,0,1,1,3,.92h0Z"/><path class="cls-3" d="M61.39,73.69V74a2.21,2.21,0,0,1-2.12,1.83h-.06a2.81,2.81,0,0,1-.41,0l-1-.19h-.24l-9-1.63-1.32-.25a2.23,2.23,0,0,1-1.58-1.17,2.16,2.16,0,0,1-.22-1.41,2.24,2.24,0,0,1,2.6-1.8l11.59,2.11a2,2,0,0,1,.35.1l.16.07A2.24,2.24,0,0,1,61.39,73.69Z"/><path class="cls-2" d="M47.61,115.65l-.37.87-2.44,5.7a1.28,1.28,0,0,1-1.17.78,1,1,0,0,1-.49-.11,1.24,1.24,0,0,1-.69-1.61l0,0,2.42-5.71.37-.86a1.28,1.28,0,1,1,2.42.84,1.11,1.11,0,0,1-.07.16Z"/><path class="cls-2" d="M48,115.13a1.59,1.59,0,0,1-.78,1.39,1.5,1.5,0,0,1-.78.22h0a1.58,1.58,0,0,1-1.54-1.22,1,1,0,0,1,0-.34l-.39-24.32V89.3A1.59,1.59,0,0,1,46,87.69a1.57,1.57,0,0,1,1.61,1.53v1.7Z"/><path class="cls-3" d="M56.73,85.73,54,87.28l-.21.12-6.17,3.52-.51.29a2.19,2.19,0,0,1-2.66-.35,2,2,0,0,1-.38-.48,1.93,1.93,0,0,1-.27-.87,2.21,2.21,0,0,1,.48-1.64,2.27,2.27,0,0,1,.62-.53l9.63-5.48a2.49,2.49,0,0,1,.79-.28h0a2.23,2.23,0,0,1,1.4,4.15Z"/><path class="cls-4" d="M97.37,99.08a22.43,22.43,0,0,1-.1,2.6h0a12.81,12.81,0,0,1-.12,1.39c-.05.46-.12,1.06-.2,1.58s-.2,1.21-.32,1.79v.4c0,.11,0,.21,0,.32l-.09.37a.47.47,0,0,1,0,.25c0,.09-.07.32-.12.47s-.06.31-.1.46a1.18,1.18,0,0,1-.07.2,3.09,3.09,0,0,1-.18.71c-.06.23-.07.22-.1.33a9.74,9.74,0,0,1-.31,1c-.12.31-.14.47-.22.69s-.13.4-.2.59l-.21.58c-.24.69-.5,1.36-.78,2q-.11.28-.24.57c0,.1-.08.19-.11.28a1.92,1.92,0,0,1-.14.29c-.12.29-.25.56-.38.83h0c-.12.29-.26.56-.4.83v.11c-.19.38-.38.76-.58,1.14s-.55,1-.85,1.54a49.74,49.74,0,0,1-6.76,9.23c-3.64,3.9-7.19,6.26-9.43,6.55H75c-2.23-.29-5.79-2.65-9.42-6.55a49.84,49.84,0,0,1-6.78-9.23c-.28-.51-.57-1-.84-1.54l-.12-.23c-.15-.3-.32-.61-.46-.91a.37.37,0,0,1-.05-.11c-.13-.27-.26-.54-.39-.83s-.26-.53-.38-.8-.18-.4-.26-.62c-.21-.47-.41-.94-.59-1.41a.2.2,0,0,0,0-.13c-.21-.52-.41-1.06-.59-1.6h0c-.1-.27-.2-.55-.28-.82a1.87,1.87,0,0,1-.07-.22c-.07-.22-.14-.44-.2-.66s-.12-.41-.18-.61-.06-.22-.1-.33c-.17-.6-.32-1.22-.46-1.84v-.25a2,2,0,0,0-.08-.33h0a1.28,1.28,0,0,1-.07-.34,2.59,2.59,0,0,1-.09-.4c-.12-.58-.22-1.19-.31-1.79s-.14-1-.21-1.58-.09-.92-.12-1.39h0v-2.6a58.38,58.38,0,0,1,.85-11.66,1.72,1.72,0,0,1,.08-.38c.12-.6.26-1.19.41-1.78s.25-1,.39-1.51c.08-.3.17-.58.26-.87l.15-.5c.06-.2.12-.42.2-.63v-.15c.1-.32.22-.65.33-1s.31-.88.49-1.31c.25-.67.52-1.33.81-2,.07-.16.14-.32.22-.47s.11-.25.17-.38v-.1l.36-.74v-.06c.06-.14.14-.28.21-.43l.65-1.22h0c.22-.4.46-.79.69-1.17s.41-.64.61-1l.11-.15.23-.34c.18-.26.35-.51.54-.75a27.11,27.11,0,0,1,2.39-2.85h0c.29-.29.57-.58.87-.85s.55-.5.82-.73l.12-.1c.21-.19.43-.36.65-.53h0l.19-.15.38-.29.45-.3h0a4.93,4.93,0,0,1,.61-.4,7.26,7.26,0,0,1,1-.56c.38-.17.7-.35,1-.52a7.82,7.82,0,0,1,1.06-.43,14.44,14.44,0,0,1,4.45-.89h.22a14.38,14.38,0,0,1,3.74.65l.71.24c.36.13.71.27,1.06.43a8.53,8.53,0,0,1,1,.52c.3.19.66.36,1,.56a4.71,4.71,0,0,1,.6.4h0l.45.3.36.29.2.15c.19.14.38.3.56.45l.23.18c.27.23.54.48.82.73s.58.56.86.85h0a29.17,29.17,0,0,1,3.16,3.94,22.29,22.29,0,0,1,1.42,2.31c.22.4.44.8.65,1.22l.22.43v.12c.12.23.22.45.32.69s.15.31.22.47.15.32.22.47c.29.64.56,1.3.82,2,.17.43.32.87.48,1.31s.23.66.33,1v.15c.07.21.14.43.2.63.37,1.19.7,2.39,1,3.64.08.34.15.68.22,1a1.75,1.75,0,0,0,.09.38h0A58.52,58.52,0,0,1,97.37,99.08Z"/><path class="cls-3" d="M96.55,106.89h0c-.06.3-.13.61-.2.91a1.63,1.63,0,0,1-.12.47c0,.15-.06.31-.1.46s-.12.46-.19.68a.86.86,0,0,1-.06.23c-.12.46-.26.92-.41,1.36-.07.24-.14.47-.22.69a2.88,2.88,0,0,0-.1.32c0,.1-.06.2-.1.3l-.21.55c-.24.69-.5,1.36-.78,2q-.11.28-.24.57c0,.1-.08.19-.11.28a1.92,1.92,0,0,1-.14.29c-.12.29-.25.56-.38.83h0c-.12.29-.26.56-.4.83v.11c-.19.38-.38.76-.58,1.14s-.55,1-.85,1.54a49.74,49.74,0,0,1-6.76,9.23H65.47a49.84,49.84,0,0,1-6.78-9.23c-.28-.51-.57-1-.84-1.54s-.4-.76-.58-1.14a.37.37,0,0,1-.05-.11c-.06-.11-.12-.23-.17-.34s-.15-.32-.22-.49-.26-.53-.38-.8-.18-.4-.26-.62c-.21-.47-.41-.94-.59-1.41a.2.2,0,0,0-.05-.13c-.21-.53-.41-1.07-.59-1.6h0c-.1-.27-.2-.55-.28-.82a1.87,1.87,0,0,1-.07-.22c0-.13-.09-.28-.13-.41s-.17-.58-.25-.86a1,1,0,0,0-.1-.33c-.17-.6-.32-1.22-.46-1.84l-.21-.91h0c.13-.55.26-1.09.4-1.62.34-1.3.74-2.58,1.18-3.8a35.26,35.26,0,0,1,5.82-7.12c.51,0,1-.07,1.57-.07H87.57a11.86,11.86,0,0,1,1.58.07A36.33,36.33,0,0,1,95,101.45c.42,1.22.82,2.5,1.17,3.8.14.53.28,1.07.4,1.62C96.54,106.88,96.55,106.88,96.55,106.89Z"/><path class="cls-5" d="M97.27,101.68h0a12.81,12.81,0,0,1-.12,1.39c-.05.46-.12,1.06-.2,1.58s-.2,1.21-.32,1.79a.77.77,0,0,1-.08.42h0l-.15.66a.47.47,0,0,1-.05.25c0,.09-.07.32-.12.47a5.33,5.33,0,0,1-.17.66c-.08.35-.18.69-.28,1s-.19.69-.31,1-.14.47-.22.69a2.88,2.88,0,0,0-.1.32l-.1.27h0l-.21.55c-.24.69-.5,1.36-.78,2q-.11.28-.24.57c0,.1-.08.19-.11.28a1.92,1.92,0,0,1-.14.29c-.12.29-.25.56-.38.83h0c-.12.29-.26.56-.4.83v.11c-.19.38-.38.76-.58,1.14s-.55,1-.85,1.54a16.12,16.12,0,0,1-3.73.44H62.43a16.27,16.27,0,0,1-3.74-.44c-.28-.51-.57-1-.84-1.54l-.12-.23c-.15-.3-.32-.61-.46-.91a.37.37,0,0,1-.05-.11c-.06-.11-.12-.23-.17-.34-.21-.43-.41-.85-.6-1.29-.09-.2-.18-.4-.26-.62-.21-.47-.41-.94-.59-1.41a.2.2,0,0,0-.05-.13c-.21-.52-.41-1.06-.59-1.6h0c-.1-.27-.2-.55-.28-.82a1.87,1.87,0,0,1-.07-.22c0-.13-.09-.28-.13-.41a2.33,2.33,0,0,1-.07-.25c-.07-.21-.12-.41-.18-.61s-.06-.22-.1-.33c-.17-.6-.32-1.22-.46-1.84v-.25c0-.08-.11-.44-.16-.66h0a3.43,3.43,0,0,0-.08-.42c-.12-.58-.22-1.19-.31-1.79s-.14-1.05-.21-1.58-.09-.92-.12-1.39h0c.13-.82.29-1.62.46-2.41A52.23,52.23,0,0,1,55,92.64c.44-.7.91-1.38,1.39-2a34.48,34.48,0,0,1,4.43-5.07c.51,0,1-.08,1.57-.08H87.57a10.39,10.39,0,0,1,1.58.08,35.55,35.55,0,0,1,4.42,5.07c.48.66,1,1.34,1.4,2a50.89,50.89,0,0,1,1.84,6.63C97,100.06,97.14,100.86,97.27,101.68Z"/><path class="cls-3" d="M97.37,99.08a22.43,22.43,0,0,1-.1,2.6h0a12.81,12.81,0,0,1-.12,1.39c-.05.46-.12,1.06-.2,1.58-.27.2-.53.39-.81.57a15.74,15.74,0,0,1-9,2.78H62.83a15.81,15.81,0,0,1-9-2.78c-.27-.18-.54-.37-.8-.57-.08-.52-.14-1.05-.21-1.58s-.09-.92-.12-1.39h0v-2.6A58.72,58.72,0,0,1,53.79,87.4a1.72,1.72,0,0,1,.08-.38c.12-.6.26-1.19.41-1.78s.25-1,.39-1.51c.08-.3.17-.58.26-.87l.15-.5c.06-.2.12-.42.2-.63a.38.38,0,0,1,0-.15h0c.1-.32.22-.65.33-1a33,33,0,0,1,1.93-2.77c.27-.37.56-.71.84-1.06s.51-.62.79-.91a26.65,26.65,0,0,1,2.08-2.17h.09c.46,0,1-.06,1.44-.06h24.4a11.32,11.32,0,0,1,1.44.06h.08c.72.68,1.41,1.39,2.08,2.16h0c.28.29.54.6.79.91s.56.69.84,1.06h0c.66.87,1.3,1.8,1.92,2.77.11.33.23.66.33,1v.15c.07.21.14.43.2.63.37,1.19.7,2.39,1,3.64.08.34.15.68.22,1a1.75,1.75,0,0,0,.09.38h0A59.05,59.05,0,0,1,97.37,99.08Z"/><path class="cls-4" d="M96.13,87c0,.09-.08.17-.13.26a12.4,12.4,0,0,1-2.43,3.32,12.66,12.66,0,0,1-8.93,3.66H65.35a12.62,12.62,0,0,1-8.92-3.66A12.31,12.31,0,0,1,54,87.28c0-.09-.09-.17-.13-.26.12-.6.26-1.19.41-1.78s.25-1,.39-1.51c.08-.3.17-.58.26-.87l.15-.5c.06-.2.12-.42.2-.63v-.15c.1-.32.22-.65.33-1s.31-.88.49-1.31c.25-.67.52-1.33.81-2,.13-.28.25-.57.39-.85v-.1l.36-.74v-.06c.06-.14.14-.28.21-.43l.65-1.22h0c.22-.4.46-.79.69-1.17s.41-.64.61-1l.11-.15.23-.34c.18-.26.35-.51.54-.75a27.11,27.11,0,0,1,2.39-2.85h0c.29-.29.57-.58.87-.85.4,0,.81-.06,1.21-.06H84.64q.61,0,1.23.06c.29.27.58.56.86.85h0a29.17,29.17,0,0,1,3.16,3.94,22.29,22.29,0,0,1,1.42,2.31c.22.4.44.8.65,1.22l.22.43v.12c.12.23.22.45.33.68a5.08,5.08,0,0,1,.21.48c.06.16.15.32.22.47.29.64.56,1.3.82,2,.17.43.32.87.48,1.31s.23.66.33,1v.15c.07.21.14.43.2.63.37,1.19.7,2.39,1,3.64A2.74,2.74,0,0,1,96.13,87Z"/><path class="cls-2" d="M56.5,42.81a1.21,1.21,0,0,1-.86.35,1.28,1.28,0,0,1-.94-.41L54,42l-4.75-5.11a1.27,1.27,0,1,1,1.87-1.73l4.79,5.15.64.69a1.25,1.25,0,0,1,0,1.78Z"/><path class="cls-2" d="M57.22,42,56.15,57.57,56,59.22a1.59,1.59,0,0,1-1.58,1.48h-.11A1.59,1.59,0,0,1,52.85,59L53,57.45,54,42v-.24a1.59,1.59,0,0,1,1.69-1.48h.2A1.57,1.57,0,0,1,57.22,42Z"/><path class="cls-4" d="M67.79,66.42a1.5,1.5,0,0,1,0,.3,1.34,1.34,0,0,1-.06.4A2.23,2.23,0,0,1,65,68.72a2.12,2.12,0,0,1-.67-.3l-1.11-.75h0L53.2,61a2.22,2.22,0,0,1-.61-3.08h0a1.73,1.73,0,0,1,.38-.43,2.21,2.21,0,0,1,2.72-.18l.46.3,7.2,4.82,3.41,2.29h0A2.17,2.17,0,0,1,67.79,66.42Z"/><path class="cls-4" d="M75.11,49v1.23a.52.52,0,0,1-.11.1.92.92,0,0,1-.61.24,1,1,0,0,1-.48-.13L71.34,49,60.41,42.71a1,1,0,0,1-.42-.49L54.34,27.53l-9.35-2a1,1,0,0,1-.39-1.36,1,1,0,0,1,.78-.51l9.85,2.08a.92.92,0,0,1,.7.58l5.72,14.87,11.23,6.42,2,1.14.13.09Z"/><path class="cls-6" d="M72,51.52h0a1.93,1.93,0,0,1-.57,1.36,2.27,2.27,0,0,1-.58.39,2.12,2.12,0,0,1-.74.15,1.93,1.93,0,0,1-1.9-1.9h0a1.89,1.89,0,0,1,1.88-1.9h0a2,2,0,0,1,.77.16A1.87,1.87,0,0,1,72,51.52Z"/><path class="cls-2" d="M94.37,43.16a1.27,1.27,0,0,0,.93-.41l5.43-5.84a1.28,1.28,0,0,0-1.87-1.74L93.43,41a1.29,1.29,0,0,0,.07,1.8A1.36,1.36,0,0,0,94.37,43.16Z"/><path class="cls-2" d="M95.56,60.7h.11A1.58,1.58,0,0,0,97.14,59L96,41.78a1.59,1.59,0,1,0-3.18.1s0,.08,0,.12L94,59.22A1.59,1.59,0,0,0,95.56,60.7Z"/><path class="cls-4" d="M84.43,68.79a2.28,2.28,0,0,0,1.24-.37L96.79,61a2.22,2.22,0,0,0-2.47-3.7L83.18,64.71a2.23,2.23,0,0,0,1.25,4.08Z"/><path class="cls-4" d="M74.89,49a.69.69,0,0,1,.24-.21l13.22-7.57,5.72-14.86a.94.94,0,0,1,.69-.58l9.86-2.08a1,1,0,0,1,1,1.75,1,1,0,0,1-.58.12l-9.34,2L90,42.23a.9.9,0,0,1-.42.48l-13.5,7.73a.85.85,0,0,1-.47.13,1,1,0,0,1-.72-.34Z"/><path class="cls-2" d="M113.51,97.34a1.31,1.31,0,0,0,1-.5,1.29,1.29,0,0,0-.25-1.79l-4.74-3.6a1.27,1.27,0,1,0-1.54,2l4.74,3.61A1.27,1.27,0,0,0,113.51,97.34Z"/><path class="cls-2" d="M108.77,94.05a1.43,1.43,0,0,0,.46-.07,1.59,1.59,0,0,0,1.07-2v0L104,71.06a1.59,1.59,0,0,0-3,.92l6.34,20.94A1.57,1.57,0,0,0,108.77,94.05Z"/><path class="cls-3" d="M90.84,75.86a2.67,2.67,0,0,0,.4,0l11.59-2.11a2.23,2.23,0,0,0-.79-4.38l-11.6,2.11a2.23,2.23,0,0,0,.4,4.42Z"/><path class="cls-2" d="M106.37,123a1.24,1.24,0,0,0,.5-.1,1.28,1.28,0,0,0,.67-1.67l-2.8-6.58a1.27,1.27,0,0,0-2.34,1l2.8,6.58A1.27,1.27,0,0,0,106.37,123Z"/><path class="cls-2" d="M103.57,116.74a1.57,1.57,0,0,0,1.59-1.56l.43-25.88a1.6,1.6,0,0,0-3.19,0l-.4,25.83a1.57,1.57,0,0,0,1.53,1.61h0Z"/><path class="cls-3" d="M104,91.5a2.23,2.23,0,0,0,1.11-4.16l-9.63-5.48a2.23,2.23,0,1,0-2.36,3.78l.15.09,9.63,5.48A2.23,2.23,0,0,0,104,91.5Z"/><path class="cls-6" d="M78,51.54a1.9,1.9,0,0,0,1.9,1.9h0a1.9,1.9,0,0,0,1.9-1.9h0a1.9,1.9,0,0,0-1.9-1.9h0a1.9,1.9,0,0,0-1.9,1.9Z"/><path class="cls-3" d="M93,77.32c-.2.18-.41.34-.62.51h0a12.7,12.7,0,0,1-7.77,2.65H65.35a12.6,12.6,0,0,1-7.76-2.65c-.23-.17-.43-.33-.63-.51.13-.28.25-.57.39-.85v-.1l.36-.74v-.06c.06-.14.14-.28.21-.43l.65-1.22h0c.22-.4.46-.79.69-1.17s.41-.64.61-1L60,71.6l.23-.34c.18-.26.35-.51.54-.75a27.11,27.11,0,0,1,2.39-2.85h0c.29-.29.57-.58.87-.85s.55-.5.82-.73L65,66a8.22,8.22,0,0,1,.65-.52h0l.19-.15.38-.29.45-.3h0a4.93,4.93,0,0,1,.61-.4,7.26,7.26,0,0,1,1-.56c.38-.17.7-.35,1-.52a7.82,7.82,0,0,1,1.06-.43,14.44,14.44,0,0,1,4.45-.89H75a12.09,12.09,0,0,1,1.7.17,13.55,13.55,0,0,1,2,.48l.71.24c.36.13.71.27,1.06.43a8.53,8.53,0,0,1,1,.52c.3.19.66.36,1,.56a4.71,4.71,0,0,1,.6.4h0l.45.3.36.29.2.15h0a6,6,0,0,1,.56.44l.23.18c.27.23.54.48.82.73s.58.56.86.85h0a29.17,29.17,0,0,1,3.16,3.94,22.29,22.29,0,0,1,1.42,2.31c.22.4.44.8.65,1.22l.22.43v.12c.12.23.22.45.33.68a5.08,5.08,0,0,1,.21.48C92.56,77,93,77.17,93,77.32Z"/><path class="cls-2" d="M75.11,75.08a2.29,2.29,0,0,1-.11.52h0a7.55,7.55,0,0,1-.29.84,6.6,6.6,0,0,1-8.45,3.35l-7.83-3-1-.4-.21-.09c.1-.23.21-.45.33-.69l.27-.51c.06-.14.14-.28.21-.42A32.24,32.24,0,0,1,60,71.56a26.51,26.51,0,0,1,3.27-3.9c.31-.31.65-.61,1-.9s.53-.47.82-.69l1.73.67,1,.4,3.44,1.33A6.2,6.2,0,0,1,75,72.68h0a4.36,4.36,0,0,1,.11.52v.42A5.1,5.1,0,0,1,75.11,75.08Z"/><path class="cls-2" d="M87.16,59.8a7,7,0,0,1-.51,2.59,6.76,6.76,0,0,1-2.39,3h0a7.18,7.18,0,0,1-4,1.29H69.76a7.08,7.08,0,0,1-4.05-1.3h0A6.9,6.9,0,0,1,68.86,53a5.46,5.46,0,0,1,.9-.07H80.24a5.26,5.26,0,0,1,.89.07A6.9,6.9,0,0,1,87.16,59.8Z"/><path class="cls-7" d="M79.51,51.56a4.68,4.68,0,0,1-.2,1.34,1.32,1.32,0,0,1-.14.39A4.85,4.85,0,0,1,75.11,56h-.23a4.42,4.42,0,0,1-4-2.67c0-.14-.1-.26-.14-.39a4.32,4.32,0,0,1-.21-1.34,4.38,4.38,0,0,1,.38-1.78,3.64,3.64,0,0,1,.47-.81,4.36,4.36,0,0,1,1.54-1.32,3.43,3.43,0,0,1,.52-.23,4.42,4.42,0,0,1,1.48-.25h.23a4.28,4.28,0,0,1,1.5.27,3.16,3.16,0,0,1,.5.22A4.21,4.21,0,0,1,78.66,49a4.12,4.12,0,0,1,.48.81A4.4,4.4,0,0,1,79.51,51.56Z"/><path class="cls-2" d="M76.93,46.52A1.42,1.42,0,0,1,75.57,48H74.48a1.4,1.4,0,0,1-1.12-.54,1.35,1.35,0,0,1-.33-.9,1.45,1.45,0,0,1,1.45-1.45h1A1.44,1.44,0,0,1,76.93,46.52Z"/><path class="cls-2" d="M74.89,75.08a5.59,5.59,0,0,0,.4,1.38,6.62,6.62,0,0,0,8.45,3.35l9.09-3.53c-.2-.41-.4-.81-.61-1.2-.07-.14-.14-.28-.22-.42a28.87,28.87,0,0,0-6.14-7.92c-.27-.24-.54-.47-.82-.69l-6.21,2.41a6.18,6.18,0,0,0-3.94,4.75A5.87,5.87,0,0,0,74.89,75.08Z"/><path class="cls-8" d="M74.52,45.07a1.45,1.45,0,0,0-1.45,1.45,1.35,1.35,0,0,0,.33.9,3.43,3.43,0,0,0-.52.23L61.65,41.23,55.93,26.36a.92.92,0,0,0-.7-.58L45.38,23.7a1,1,0,0,0-.89,1.1,1,1,0,0,0,.51.77l9.35,2L60,42.22a1,1,0,0,0,.42.49L71.34,49a3.64,3.64,0,0,0-.47.81,2,2,0,0,0-.77-.16,1.89,1.89,0,0,0-1.9,1.88v0h0A1.84,1.84,0,0,0,68.86,53a6.89,6.89,0,0,0-6,7.73,6.58,6.58,0,0,0,.44,1.69l-7.2-4.82L57.22,42a1.57,1.57,0,0,0-1.29-1.66l-4.79-5.15a1.27,1.27,0,0,0-1.87,1.73L54,42,53,57.45a1.73,1.73,0,0,0-.38.43A2.22,2.22,0,0,0,53.16,61l0,0,10,6.68a26.51,26.51,0,0,0-3.27,3.9,2,2,0,0,0-.35-.1L48,69.33a2.24,2.24,0,0,0-2.6,1.8,2.16,2.16,0,0,0,.22,1.41L39.71,92h0l-4,3a1.26,1.26,0,0,0-.24,1.78,1.25,1.25,0,0,0,1,.5,1.21,1.21,0,0,0,.78-.25l4-3h0a1.57,1.57,0,0,0,1.51-1.12l1-3.41a1.93,1.93,0,0,0,.27.87,2,2,0,0,0,.38.48l.39,24.32a1,1,0,0,0,0,.34l-2.42,5.71a1.25,1.25,0,0,0,.62,1.64l.05,0a1,1,0,0,0,.49.11,1.28,1.28,0,0,0,1.17-.78l2.44-5.7a1.59,1.59,0,0,0,.78-1.39l-.4-24.21,6.17-3.52a58,58,0,0,0-1.16,11.68v2.6h0a12.81,12.81,0,0,0,.12,1.39c0,.46.13,1.06.21,1.58s.19,1.21.31,1.79a2,2,0,0,0,.08.42h0a1.57,1.57,0,0,0,.08.31h0a.51.51,0,0,0,.08.33v.25c.14.62.29,1.24.46,1.84a1,1,0,0,0,.1.33c0,.11.11.4.18.61a2.33,2.33,0,0,0,.07.25,1.3,1.3,0,0,0,.13.41,1.87,1.87,0,0,0,.07.22c.08.27.18.55.28.82h0c.18.54.38,1.08.59,1.6a.19.19,0,0,0,0,.13c.18.47.38.94.59,1.41.08.22.17.42.26.62s.24.54.38.8.14.33.22.49l.17.34a.37.37,0,0,0,.05.11c.14.3.31.61.46.91l.12.23c.27.52.56,1,.84,1.54a49.84,49.84,0,0,0,6.78,9.23c3.63,3.9,7.19,6.26,9.42,6.55h.22V45.07ZM44.9,87.34a2.27,2.27,0,0,0-.62.53L48.49,74l9,1.63c-.12.24-.23.46-.33.69l.21.09v.1c-.14.28-.26.57-.39.85-.29.64-.56,1.3-.81,2-.18.43-.33.87-.49,1.31s-.23.66-.33,1h0a2.49,2.49,0,0,0-.79.28Z"/></g></svg>