<svg id="शेर" xmlns="http://www.w3.org/2000/svg" viewBox="0 0 150 160"><defs><style>.cls-1{fill:#fff;stroke:#fff;stroke-miterlimit:10;stroke-width:5px;}.cls-2{fill:#b67af4;}.cls-3{fill:#8320d1;}.cls-4{fill:#620fe8;}.cls-5,.cls-7{fill:#252eb4;}.cls-6{fill:#1a207d;}.cls-6,.cls-7,.cls-8{fill-rule:evenodd;}.cls-8{opacity:0.2;}.cls-9{fill:#303857;}.cls-10{fill:#6f676e;}.cls-11{fill:#ff5d15;}</style></defs><path class="cls-1" d="M71.63,89.5h0a6.89,6.89,0,0,0,.75-.67,6.71,6.71,0,0,0,1.55-6.69,7,7,0,0,0-.29-.76,6.66,6.66,0,0,0-6.49-3.86,5.6,5.6,0,0,0-1,.13h0L59,62.12c-1-2.1-2.44-3.49-3.28-3.1s-.74,1.76-.18,3.43l-.34.84a40.43,40.43,0,0,1-7.42,11.85l-1,1.16a59,59,0,0,1-17.5,14l.17-.08h0l-.17.08-19.39,9a2.1,2.1,0,0,0-1,2.78L11,106.68l.75,1.62L11,106.68l-.57.26-.23.11a.75.75,0,0,0-.37,1l.3.67.43.92.45,1,.21.46.22.46.45,1,.43.92.3.67a.75.75,0,0,0,1,.36l.24-.1h0l.27-.12.3-.14-.21-.46.21.45,2.16,4.68a2.1,2.1,0,0,0,2.78,1l3-1.37,6.58-3-6.58,3,.65,1,3.66,5.42,10,14.81.75,1.1c.39.58.89,1,1.13.85l.42-.2L46.25,138l.51-.24v0c.92-.56,1.45-1.3,1.22-1.8s-1.2-.57-2.27-.19l-.48-.93L38,121l1.06-.49a1.1,1.1,0,0,0,.63-1.41l-.43-.92L36.86,113l-.48-1-1.36.62,1.36-.62,2.47-1.15.11,0h0A59.61,59.61,0,0,1,61,105.42l1.51-.07a40.45,40.45,0,0,1,12.57,1.08l.86.22h0c.9,1.41,2,2.24,2.64,1.93.84-.39.73-2.4-.24-4.5Zm-2.42-5.25,0,.06,1.5,3.26-1.51-3.26-2.65-5.74ZM56,63.52l7.22,15.63,1,2.15-1-2.15L56,63.52a9.63,9.63,0,0,1-.39-1Q55.73,63,56,63.52Zm19.37,42L70.51,95l4.82,10.44a3.78,3.78,0,0,0,.17.35Z"/><polygon class="cls-1" points="72.68 35.38 68.21 45.86 70.28 48.68 72.68 35.38"/><polygon class="cls-1" points="66.34 43.34 63.95 56.64 68.42 46.16 66.34 43.34"/><polygon class="cls-1" points="104.47 100.04 101.2 104.97 123.69 101.03 104.47 100.04"/><polygon class="cls-1" points="107.39 95.62 84.9 99.55 104.12 100.54 107.39 95.62"/><polygon class="cls-1" points="101.2 42.28 87.32 55.6 88.68 61.36 101.2 42.28"/><polygon class="cls-1" points="86.09 50.45 73.56 69.54 87.45 56.21 86.09 50.45"/><polygon class="cls-1" points="91.56 84.76 106.44 77.64 92.87 80.7 91.56 84.76"/><polygon class="cls-1" points="94.04 77.06 79.16 84.17 92.73 81.12 94.04 77.06"/><path class="cls-2" d="M66.16,77.65l3,6.6,0,.06.86-.4,3.83-1.77a7,7,0,0,0-.29-.76,6.66,6.66,0,0,0-6.49-3.86A5.6,5.6,0,0,0,66.16,77.65Z"/><path class="cls-3" d="M69.24,84.31l2.39,5.19a6.89,6.89,0,0,0,.75-.67,6.71,6.71,0,0,0,1.55-6.69L70.1,83.91Z"/><path class="cls-4" d="M9.86,108.05l.3.67.43.92.45,1,.21.46.67-.31h0l.27-.12.57-.26L11,106.68l-.57.26-.23.11A.75.75,0,0,0,9.86,108.05Z"/><path class="cls-5" d="M11.25,111.08l.22.46.45,1,.43.92.3.67a.75.75,0,0,0,1,.36l.24-.1.57-.26-.42-.92-1.29-2.79h0l-.57.26-.27.12h0Z"/><path class="cls-3" d="M34.2,100.49,39,110.78A59.38,59.38,0,0,1,61,105.42l1.51-.07a40.45,40.45,0,0,1,12.57,1.08l.86.22a11.59,11.59,0,0,1-.64-1.17L68.55,90.81l-2.35-5.1-.56.26L61.88,87.7Z"/><path class="cls-2" d="M29.28,90.27l.17-.08,4.75,10.3L61.88,87.7,65.64,86l.56-.26-3-6.56L56,63.52a8.44,8.44,0,0,1-.42-1.07l-.34.84a40.43,40.43,0,0,1-7.42,11.85l-1,1.16A59,59,0,0,1,29.28,90.27Z"/><path class="cls-6" d="M19,107.51l14.57-6.73.64-.3L39,110.78l-.11,0L36.38,112l-2.51,1.15-3.49,1.62-8,3.7-3,1.37a2.1,2.1,0,0,1-2.78-1l-2.16-4.68-1.71-3.71Z"/><path class="cls-7" d="M34.2,100.48l-.64.3L19,107.51l-6.24,2.88L11,106.68,8.87,102a2.1,2.1,0,0,1,1-2.78l19.39-9,.17-.08Z"/><polygon class="cls-8" points="12.18 110.67 13.89 114.37 14.46 114.11 12.75 110.4 12.18 110.67"/><polygon class="cls-8" points="10.46 106.94 10.47 106.96 12.18 110.65 12.18 110.67 12.75 110.4 12.74 110.39 11.03 106.68 10.46 106.94"/><path class="cls-7" d="M68.55,90.8,66.2,85.71l1.2-.55,1.83-.85,2.4,5.19,6.73,14.58c1,2.1,1.08,4.11.24,4.5-.67.31-1.74-.52-2.64-1.93a10.73,10.73,0,0,1-.63-1.17Z"/><path class="cls-7" d="M67.4,85.16l-1.2.55-3-6.56L56,63.52a8.44,8.44,0,0,1-.42-1.07C55,60.78,55,59.34,55.71,59S58,60,59,62.12l7.17,15.53,3.07,6.66Z"/><path class="cls-8" d="M55.19,63.29c.07.2.17.41.26.61l7.21,15.63,3,6.44,0,.12L68,91.19l6.78,14.67c.09.2.19.39.28.57l.86.22a11.59,11.59,0,0,1-.64-1.17L68.55,90.81l-2.35-5.1-3-6.56L56,63.52a8.44,8.44,0,0,1-.42-1.07Z"/><path class="cls-8" d="M69.21,84.25l0,.06,2.39,5.19a6.89,6.89,0,0,0,.75-.67L70.1,83.91l0-.06Z"/><path class="cls-8" d="M66.16,77.65l3,6.6.87-.4-2.93-6.33A5.6,5.6,0,0,0,66.16,77.65Z"/><path class="cls-4" d="M33.87,113.12l.54,1,2.68,5.13L38,121l1.06-.49a1.1,1.1,0,0,0,.63-1.41l-.43-.92L36.86,113l-.48-1Z"/><path class="cls-9" d="M22.37,118.44l.65,1,3.66,5.42,10,14.81.75,1.1c.39.58.89,1,1.13.85l.42-.2L46.25,138l.51-.24v0c.92-.56,1.45-1.3,1.22-1.8s-1.2-.57-2.27-.19l-.48-.93L38,121l-.87-1.68-2.68-5.13-.54-1-3.49,1.62Z"/><polygon class="cls-8" points="22.37 118.44 23.02 119.4 30.99 115.72 34.41 114.14 34.49 114.1 36.86 113.01 36.38 111.97 33.87 113.12 30.38 114.73 22.37 118.44"/><path class="cls-10" d="M10.16,108.72l0,.06.4.86.2-.1a.5.5,0,0,0,.3-.54s0,0,0-.06a.25.25,0,0,0,0-.07.52.52,0,0,0-.56-.29l-.12,0Z"/><path class="cls-10" d="M11,110.62l0,.07.18.39.22.46.2-.09a.49.49,0,0,0,.28-.55.07.07,0,0,0,0-.05h0a.64.64,0,0,0,0-.07h0a.5.5,0,0,0-.55-.28l-.11,0Z"/><path class="cls-10" d="M11.92,112.52l0,.07.4.85.18-.08a.51.51,0,0,0,.29-.56s0,0,0,0a.25.25,0,0,0,0-.07.48.48,0,0,0-.55-.28.53.53,0,0,0-.12,0Z"/><path class="cls-10" d="M10.19,108.78l.4.86.2-.1a.5.5,0,0,0,.3-.54s0,0,0-.06a.53.53,0,0,0-.56-.29l-.12,0Z"/><path class="cls-10" d="M11.07,110.69l.18.39.22.46.2-.09a.49.49,0,0,0,.28-.55.07.07,0,0,0,0-.05h0a.52.52,0,0,0-.56-.28l-.11,0Z"/><path class="cls-10" d="M12,112.59l.4.85.18-.08a.51.51,0,0,0,.29-.56s0,0,0,0a.49.49,0,0,0-.55-.28.53.53,0,0,0-.12,0Z"/><polygon class="cls-11" points="68.21 45.86 72.68 35.38 70.28 48.68 68.21 45.86"/><polygon class="cls-11" points="68.42 46.16 63.95 56.64 66.34 43.34 68.42 46.16"/><polygon class="cls-11" points="104.47 100.04 123.69 101.03 101.2 104.97 104.47 100.04"/><polygon class="cls-11" points="104.12 100.54 84.9 99.55 107.39 95.62 104.12 100.54"/><polygon class="cls-11" points="87.32 55.6 101.2 42.28 88.68 61.36 87.32 55.6"/><polygon class="cls-11" points="87.45 56.21 73.56 69.54 86.09 50.45 87.45 56.21"/><polygon class="cls-11" points="92.87 80.7 106.44 77.64 91.56 84.76 92.87 80.7"/><polygon class="cls-11" points="92.73 81.12 79.16 84.17 94.04 77.06 92.73 81.12"/></svg>