<svg id="हिरन" xmlns="http://www.w3.org/2000/svg" viewBox="0 0 150 160"><defs><style>.cls-1{fill:#fff;stroke:#fff;stroke-miterlimit:10;stroke-width:5px;}.cls-2{fill:#cd8112;}.cls-3{fill:#e0931e;}.cls-4{fill:#4b3333;}.cls-5{fill:#cf4a3e;}.cls-6{fill:#f8b34c;}</style></defs><path class="cls-1" d="M92.57,98c-5.53-1.66-10.15,3.73-10.14,8.76,0,4.63,3.6,9.36,5.07,13.35A32.49,32.49,0,0,1,89,134.88c-.22,2.08-3.36,12.6-.57,13.47a1.73,1.73,0,0,0,1.76-.65,11,11,0,0,0,1.64-3.32l5.38-16.72c2-6.15,3.73-13,3.23-19.49C100.11,104.38,96.28,99.07,92.57,98Z"/><path class="cls-1" d="M120,78.72c-2.06.64-5.54-.49-6.27-2.68-1.51-4.51,9.5-9.22,9.72-8.46A13.62,13.62,0,0,1,124,74,6.26,6.26,0,0,1,120,78.72Z"/><path class="cls-1" d="M71.22,109.56a198.83,198.83,0,0,1-.12,26.85c-.25,3.51.19,9-1,12.19-1,2.81-4,1.58-4.4-1.31-1.21-8.66-2.25-17.82-2.87-26.66a8.22,8.22,0,0,0-.94-3.92,2.84,2.84,0,0,0-3.5-1.25c-2.74,1.47-2,8.56-1.87,11,.1,2.25,2.55,24.29.53,24.75-5.48,1.29-4.73-9.2-4.92-12.12-.5-7.85-1.74-16-3-23.61-1.38-8.72-3.61-17.75-4-26.6-.14-3.51-.13-7.15,1.28-10.37,2.06-4.71,6.84-7.77,11.82-9C67.79,67,78.42,69,88.21,67.75s21.35-1.76,27.68,5.8c5,5.92,4.54,14.76,2,22.06s-6.89,13.89-9.2,21.26c-1.56,5-2.07,10.37-3.38,15.44a78.6,78.6,0,0,1-4,12c-.57,1.28-1.59,4.2-3.11,4.72-3.37,1.15-1.68-5.09-1.15-6.55a24,24,0,0,0,1.1-5c.38-2.76,1.34-6.16.88-9-.83-5.07-2.09-10.46-3.19-15.63-.34-1.58-.44-6.53-1.54-7.61s-3.66.24-5.26.66S71.4,112.17,71.22,109.56Z"/><path class="cls-1" d="M44.6,81.37c.22,2.23.77,8.06,3.59,8.67,1.47.33,4.3-1.28,5.55-2a58.28,58.28,0,0,0,10.69-7.18c2.06-1.88,8.27-8.68,6.93-11.68s-7.87-2.62-10-6a32.18,32.18,0,0,1-4.64-13.11A23.8,23.8,0,0,0,55.88,45a5.38,5.38,0,0,0-3.41-3.58c-2-.52-4.11.69-5.27,2.38a13.86,13.86,0,0,0-1.84,5.83A135.2,135.2,0,0,0,44.6,81.37Z"/><path class="cls-1" d="M53.77,31.09c-1,2.64-4.14,8-8,6.59C43.8,37,43,34.15,43,32.33A13.42,13.42,0,0,1,44.74,27a36.39,36.39,0,0,1,6.64-9.06,12.4,12.4,0,0,0,1.8,3.48A11.29,11.29,0,0,1,53.77,31.09Z"/><path class="cls-1" d="M54.76,34.47c-4.35-6.64-12.63-5.76-17.34-.44-2.4,2.7-4.45,5.85-7.56,7.69-1.13.67-2.43,1.18-3.18,2.25-1.34,1.9-.26,4.73,1.66,6S32.7,51.52,35,51.65c3.94.21,8,.32,11.76-.77s7.39-3.57,8.87-7.23A10.09,10.09,0,0,0,54.76,34.47Z"/><path class="cls-1" d="M58.82,32.13C56.9,34.64,52,39.26,49,36c-1.56-1.66-1.31-5.16-.57-7.16a15.8,15.8,0,0,1,3.54-5.26,36.21,36.21,0,0,1,9.49-7.19A17.51,17.51,0,0,0,61.83,21,15.34,15.34,0,0,1,58.82,32.13Z"/><path class="cls-1" d="M42,37.74a1.74,1.74,0,1,0,0,3.47,1.74,1.74,0,0,0,1.73-1.73A1.77,1.77,0,0,0,42,37.74Z"/><path class="cls-1" d="M30.22,42.73c.37,1.49-.11,5.4-2.17,5.67-2.27.29-2.67-3.11-1.78-4.49A3.27,3.27,0,0,1,30.22,42.73Z"/><path class="cls-1" d="M56.66,30.2c-.9,1.7-4.75,5.21-6.12,2.23C49.87,31,51.26,28.18,52,27a7.85,7.85,0,0,1,4.82-3.4A7.51,7.51,0,0,1,56.66,30.2Z"/><path class="cls-1" d="M88.11,73c4.7,6-5,11.17-10.06,9-6-2.55-2.55-9.64,2.18-11.14A7.33,7.33,0,0,1,88.11,73Z"/><path class="cls-1" d="M67.66,77.29C75.6,79.77,61.17,91,56.93,83.41c-2.51-4.49,4.48-6.23,7.32-6.36A10,10,0,0,1,67.66,77.29Z"/><path class="cls-1" d="M98,75.57c4.28-.11,8.67,4.11,4.43,7.3-2.44,1.85-9.89,2.86-11.16-.74C89.92,78.27,95,75.65,98,75.57Z"/><path class="cls-1" d="M68.49,70.39c3.9.23,4.9,4.84.61,5.56-2.31.38-3.73-.74-4.13-2.07C64.46,72.21,65.56,70.21,68.49,70.39Z"/><path class="cls-1" d="M58.54,68.05a3.2,3.2,0,1,0-2.7.1c.83,1.9,1.27.49,2.91-.78"/><path class="cls-1" d="M109.51,76.65a3.07,3.07,0,1,0-4.66-1.2c1,2.3,3.64,2.06,5.67.58"/><path class="cls-2" d="M92.57,98c-5.53-1.66-10.15,3.73-10.14,8.76,0,4.63,3.6,9.36,5.07,13.35A32.49,32.49,0,0,1,89,134.88c-.22,2.08-3.36,12.6-.57,13.47a1.73,1.73,0,0,0,1.76-.65,11,11,0,0,0,1.64-3.32l5.38-16.72c2-6.15,3.73-13,3.23-19.49C100.11,104.38,96.28,99.07,92.57,98Z"/><path class="cls-3" d="M120,78.72c-2.06.64-5.54-.49-6.27-2.68-1.51-4.51,9.5-9.22,9.72-8.46A13.62,13.62,0,0,1,124,74,6.26,6.26,0,0,1,120,78.72Z"/><path class="cls-3" d="M71.22,109.56a198.83,198.83,0,0,1-.12,26.85c-.25,3.51.19,9-1,12.19-1,2.81-4,1.58-4.4-1.31-1.21-8.66-2.25-17.82-2.87-26.66a8.22,8.22,0,0,0-.94-3.92,2.84,2.84,0,0,0-3.5-1.25c-2.74,1.47-2,8.56-1.87,11,.1,2.25,2.55,24.29.53,24.75-5.48,1.29-4.73-9.2-4.92-12.12-.5-7.85-1.74-16-3-23.61-1.38-8.72-3.61-17.75-4-26.6-.14-3.51-.13-7.15,1.28-10.37,2.06-4.71,6.84-7.77,11.82-9C67.79,67,78.42,69,88.21,67.75s21.35-1.76,27.68,5.8c5,5.92,4.54,14.76,2,22.06s-6.89,13.89-9.2,21.26c-1.56,5-2.07,10.37-3.38,15.44a78.6,78.6,0,0,1-4,12c-.57,1.28-1.59,4.2-3.11,4.72-3.37,1.15-1.68-5.09-1.15-6.55a24,24,0,0,0,1.1-5c.38-2.76,1.34-6.16.88-9-.83-5.07-2.09-10.46-3.19-15.63-.34-1.58-.44-6.53-1.54-7.61s-3.66.24-5.26.66S71.4,112.17,71.22,109.56Z"/><path class="cls-3" d="M44.6,81.37c.22,2.23.77,8.06,3.59,8.67,1.47.33,4.3-1.28,5.55-2a58.28,58.28,0,0,0,10.69-7.18c2.06-1.88,8.27-8.68,6.93-11.68s-7.87-2.62-10-6a32.18,32.18,0,0,1-4.64-13.11A23.8,23.8,0,0,0,55.88,45a5.38,5.38,0,0,0-3.41-3.58c-2-.52-4.11.69-5.27,2.38a13.86,13.86,0,0,0-1.84,5.83A135.2,135.2,0,0,0,44.6,81.37Z"/><path class="cls-2" d="M53.77,31.09c-1,2.64-4.14,8-8,6.59C43.8,37,43,34.15,43,32.33A13.42,13.42,0,0,1,44.74,27a36.39,36.39,0,0,1,6.64-9.06,12.4,12.4,0,0,0,1.8,3.48A11.29,11.29,0,0,1,53.77,31.09Z"/><path class="cls-3" d="M54.76,34.47c-4.35-6.64-12.63-5.76-17.34-.44-2.4,2.7-4.45,5.85-7.56,7.69-1.13.67-2.43,1.18-3.18,2.25-1.34,1.9-.26,4.73,1.66,6S32.7,51.52,35,51.65c3.94.21,8,.32,11.76-.77s7.39-3.57,8.87-7.23A10.09,10.09,0,0,0,54.76,34.47Z"/><path class="cls-3" d="M58.82,32.13C56.9,34.64,52,39.26,49,36c-1.56-1.66-1.31-5.16-.57-7.16a15.8,15.8,0,0,1,3.54-5.26,36.21,36.21,0,0,1,9.49-7.19A17.51,17.51,0,0,0,61.83,21,15.34,15.34,0,0,1,58.82,32.13Z"/><path class="cls-4" d="M42,37.74a1.74,1.74,0,1,0,0,3.47,1.74,1.74,0,0,0,1.73-1.73A1.77,1.77,0,0,0,42,37.74Z"/><path class="cls-4" d="M30.22,42.73c.37,1.49-.11,5.4-2.17,5.67-2.27.29-2.67-3.11-1.78-4.49A3.27,3.27,0,0,1,30.22,42.73Z"/><path class="cls-5" d="M56.66,30.2c-.9,1.7-4.75,5.21-6.12,2.23C49.87,31,51.26,28.18,52,27a7.85,7.85,0,0,1,4.82-3.4A7.51,7.51,0,0,1,56.66,30.2Z"/><path class="cls-6" d="M88.11,73c4.7,6-5,11.17-10.06,9-6-2.55-2.55-9.64,2.18-11.14A7.33,7.33,0,0,1,88.11,73Z"/><path class="cls-6" d="M67.66,77.29C75.6,79.77,61.17,91,56.93,83.41c-2.51-4.49,4.48-6.23,7.32-6.36A10,10,0,0,1,67.66,77.29Z"/><path class="cls-6" d="M98,75.57c4.28-.11,8.67,4.11,4.43,7.3-2.44,1.85-9.89,2.86-11.16-.74C89.92,78.27,95,75.65,98,75.57Z"/><path class="cls-6" d="M68.49,70.39c3.9.23,4.9,4.84.61,5.56-2.31.38-3.73-.74-4.13-2.07C64.46,72.21,65.56,70.21,68.49,70.39Z"/><path class="cls-6" d="M58.54,68.05a3.2,3.2,0,1,0-2.7.1c.83,1.9,1.27.49,2.91-.78"/><path class="cls-6" d="M109.51,76.65a3.07,3.07,0,1,0-4.66-1.2c1,2.3,3.64,2.06,5.67.58"/></svg>