<svg id="हार" xmlns="http://www.w3.org/2000/svg" viewBox="0 0 150 160"><defs><style>.cls-1,.cls-4{fill:#fff;}.cls-1{stroke:#fff;stroke-miterlimit:10;stroke-width:5px;}.cls-2{fill:#ffb424;}.cls-3{fill:#377321;}.cls-5{fill:#f2ca13;}</style></defs><path class="cls-1" d="M46.84,68.42a1.33,1.33,0,0,1-1.33-1.34V35.42a1.33,1.33,0,0,1,2.66,0V67.08A1.34,1.34,0,0,1,46.84,68.42Z"/><path class="cls-1" d="M51.38,54.75a4.55,4.55,0,1,1-4.54-4.55A4.54,4.54,0,0,1,51.38,54.75Z"/><path class="cls-1" d="M51.38,54.75a4.55,4.55,0,1,1-4.54-4.55A4.54,4.54,0,0,1,51.38,54.75Z"/><path class="cls-1" d="M46.19,52.73a1,1,0,1,1-1-1A1,1,0,0,1,46.19,52.73Z"/><path class="cls-1" d="M58.84,95.33a12,12,0,0,1-24,0c0-6.64,12-30.65,12-30.65S58.84,88.69,58.84,95.33Z"/><path class="cls-1" d="M46.84,68.15s-9.09,16.77-9.82,26a8.41,8.41,0,0,0,1.24,4.78C39,89.3,46.84,68.15,46.84,68.15Z"/><path class="cls-1" d="M103.16,68.42a1.34,1.34,0,0,1-1.33-1.34V35.42a1.34,1.34,0,0,1,2.67,0V67.08A1.34,1.34,0,0,1,103.16,68.42Z"/><path class="cls-1" d="M107.71,54.75a4.55,4.55,0,1,1-4.55-4.55A4.55,4.55,0,0,1,107.71,54.75Z"/><path class="cls-1" d="M107.71,54.75a4.55,4.55,0,1,1-4.55-4.55A4.55,4.55,0,0,1,107.71,54.75Z"/><path class="cls-1" d="M102.52,52.73a1,1,0,1,1-1-1A1,1,0,0,1,102.52,52.73Z"/><path class="cls-1" d="M115.17,95.33a12,12,0,0,1-24,0c0-6.64,12-30.65,12-30.65S115.17,88.69,115.17,95.33Z"/><path class="cls-1" d="M103.16,68.15s-9.08,16.77-9.81,26a8.41,8.41,0,0,0,1.24,4.78C95.31,89.3,103.16,68.15,103.16,68.15Z"/><path class="cls-1" d="M75,75.73a1.89,1.89,0,0,1-1.54-.8L35.9,21.24A1.88,1.88,0,0,1,39,19.09L75,70.57l36-51.48a1.88,1.88,0,0,1,3.09,2.15L76.54,74.93A1.87,1.87,0,0,1,75,75.73Z"/><path class="cls-1" d="M75,110.52a1.33,1.33,0,0,1-1.33-1.34V77.53a1.33,1.33,0,1,1,2.66,0v31.65A1.33,1.33,0,0,1,75,110.52Z"/><path class="cls-1" d="M79.55,96.85A4.55,4.55,0,1,1,75,92.3,4.55,4.55,0,0,1,79.55,96.85Z"/><path class="cls-1" d="M79.55,96.85A4.55,4.55,0,1,1,75,92.3,4.55,4.55,0,0,1,79.55,96.85Z"/><path class="cls-1" d="M74.36,94.82a1,1,0,1,1-2,0,1,1,0,0,1,2,0Z"/><path class="cls-1" d="M87,137.43a12,12,0,0,1-24,0c0-6.64,12-30.65,12-30.65S87,130.79,87,137.43Z"/><path class="cls-1" d="M75,110.25s-9.08,16.77-9.82,26A8.51,8.51,0,0,0,66.42,141C67.15,131.4,75,110.25,75,110.25Z"/><path class="cls-1" d="M85.2,77.52A10.21,10.21,0,1,1,75,67.32,10.2,10.2,0,0,1,85.2,77.52Z"/><path class="cls-1" d="M85.2,77.52A10.21,10.21,0,1,1,75,67.32,10.2,10.2,0,0,1,85.2,77.52Z"/><path class="cls-1" d="M73.56,73a2.27,2.27,0,1,1-2.27-2.27A2.28,2.28,0,0,1,73.56,73Z"/><path class="cls-2" d="M46.84,68.42a1.33,1.33,0,0,1-1.33-1.34V35.42a1.33,1.33,0,0,1,2.66,0V67.08A1.34,1.34,0,0,1,46.84,68.42Z"/><path class="cls-3" d="M51.38,54.75a4.55,4.55,0,1,1-4.54-4.55A4.54,4.54,0,0,1,51.38,54.75Z"/><path class="cls-3" d="M51.38,54.75a4.55,4.55,0,1,1-4.54-4.55A4.54,4.54,0,0,1,51.38,54.75Z"/><path class="cls-4" d="M46.19,52.73a1,1,0,1,1-1-1A1,1,0,0,1,46.19,52.73Z"/><path class="cls-3" d="M58.84,95.33a12,12,0,0,1-24,0c0-6.64,12-30.65,12-30.65S58.84,88.69,58.84,95.33Z"/><path class="cls-4" d="M46.84,68.15s-9.09,16.77-9.82,26a8.41,8.41,0,0,0,1.24,4.78C39,89.3,46.84,68.15,46.84,68.15Z"/><path class="cls-2" d="M103.16,68.42a1.34,1.34,0,0,1-1.33-1.34V35.42a1.34,1.34,0,0,1,2.67,0V67.08A1.34,1.34,0,0,1,103.16,68.42Z"/><path class="cls-3" d="M107.71,54.75a4.55,4.55,0,1,1-4.55-4.55A4.55,4.55,0,0,1,107.71,54.75Z"/><path class="cls-3" d="M107.71,54.75a4.55,4.55,0,1,1-4.55-4.55A4.55,4.55,0,0,1,107.71,54.75Z"/><path class="cls-4" d="M102.52,52.73a1,1,0,1,1-1-1A1,1,0,0,1,102.52,52.73Z"/><path class="cls-3" d="M115.17,95.33a12,12,0,0,1-24,0c0-6.64,12-30.65,12-30.65S115.17,88.69,115.17,95.33Z"/><path class="cls-4" d="M103.16,68.15s-9.08,16.77-9.81,26a8.41,8.41,0,0,0,1.24,4.78C95.31,89.3,103.16,68.15,103.16,68.15Z"/><path class="cls-2" d="M75,75.73a1.89,1.89,0,0,1-1.54-.8L35.9,21.24A1.88,1.88,0,0,1,39,19.09L75,70.57l36-51.48a1.88,1.88,0,0,1,3.09,2.15L76.54,74.93A1.87,1.87,0,0,1,75,75.73Z"/><path class="cls-5" d="M75,110.52a1.33,1.33,0,0,1-1.33-1.34V77.53a1.33,1.33,0,1,1,2.66,0v31.65A1.33,1.33,0,0,1,75,110.52Z"/><path class="cls-3" d="M79.55,96.85A4.55,4.55,0,1,1,75,92.3,4.55,4.55,0,0,1,79.55,96.85Z"/><path class="cls-3" d="M79.55,96.85A4.55,4.55,0,1,1,75,92.3,4.55,4.55,0,0,1,79.55,96.85Z"/><path class="cls-4" d="M74.36,94.82a1,1,0,1,1-2,0,1,1,0,0,1,2,0Z"/><path class="cls-3" d="M87,137.43a12,12,0,0,1-24,0c0-6.64,12-30.65,12-30.65S87,130.79,87,137.43Z"/><path class="cls-4" d="M75,110.25s-9.08,16.77-9.82,26A8.51,8.51,0,0,0,66.42,141C67.15,131.4,75,110.25,75,110.25Z"/><path class="cls-3" d="M85.2,77.52A10.21,10.21,0,1,1,75,67.32,10.2,10.2,0,0,1,85.2,77.52Z"/><path class="cls-3" d="M85.2,77.52A10.21,10.21,0,1,1,75,67.32,10.2,10.2,0,0,1,85.2,77.52Z"/><path class="cls-4" d="M73.56,73a2.27,2.27,0,1,1-2.27-2.27A2.28,2.28,0,0,1,73.56,73Z"/></svg>