<svg id="_ठेला" data-name=" ठेला" xmlns="http://www.w3.org/2000/svg" viewBox="0 0 150 160"><defs><style>.cls-1,.cls-3{fill:#9e5339;}.cls-1{stroke:#fff;stroke-miterlimit:10;stroke-width:5px;}.cls-2{fill:#35495e;}.cls-4{fill:#ba6e54;}.cls-5{fill:#60819c;}.cls-6{fill:#f0a873;}.cls-7{fill:#c78656;}.cls-8{fill:#4b657a;}.cls-9{fill:#f0c5a6;}</style></defs><path class="cls-1" d="M126.81,121.09h-4c-2.55,0-5.2,2.92-6.38,6.8H101.88c-1.18-3.88-3.83-6.8-6.38-6.8h-4a3.12,3.12,0,0,0-1.46.36,3.13,3.13,0,0,0-1.33-.35l-1.9-12.84h39.84l12.73-40.45-6.5.18-10-13.63-11.27,5.07-2.71,5.48-7.41-3.73-2.92-7.39-10.32-3.3L84,55.36l-4.91-.62-2.53-18,6.77.67c1.78,0,3.05-3.43.63-4.68L6.51,23C2.9,24,5.23,29.41,9,30l16.72,1.66,29.68,89.41H53.33c-2.91,0-4.58,3.79-3.75,8.45S53.45,138,56.36,138h4c2.73,0,4.37-3.33,3.87-7.6H77.74c-.5,4.27,1.14,7.6,3.87,7.6h4c1.59,0,3.21-1.12,4.49-2.9,1.29,1.78,2.91,2.9,4.49,2.9h4c2.73,0,4.37-3.33,3.87-7.6h13.54c-.5,4.27,1.14,7.6,3.87,7.6h4c2.91,0,5.95-3.77,6.78-8.44S129.72,121.09,126.81,121.09Zm-40.63,0H84.64c-2.55,0-5.2,2.92-6.38,6.8H63.68c-.89-2.92-2.61-5.28-4.49-6.28l-3.62-13.35H84ZM59.46,69.9l-3.89-1.05-2-8.87,8.18,2.37ZM32,32.31l40.61,4L76,57,65.88,55.36l-3.25,3.88L39.2,52.63ZM51.66,59.43l2.2,8.95-2.81-.76L48.2,72.33,45.12,73l-5-17Z"/><path class="cls-2" d="M122.84,121.09h4c2.91,0,4.59,3.79,3.75,8.45s-3.87,8.44-6.78,8.44h-4c-2.9,0-4.58-3.77-3.75-8.44S119.94,121.09,122.84,121.09Z"/><path class="cls-2" d="M77.86,129.54c.85-4.66,3.88-8.45,6.78-8.45h4c2.91,0,4.59,3.79,3.75,8.45S88.49,138,85.58,138h-4C78.71,138,77,134.21,77.86,129.54Z"/><path class="cls-3" d="M6.51,23C2.9,24,5.23,29.41,9,30,11.79,28.4,10.7,24,6.51,23Z"/><path class="cls-4" d="M6.51,23C10.7,24,11.79,28.4,9,30l16.72,1.66,6.33.63,40.61,4,3.9.4,6.77.67c1.78,0,3.05-3.43.63-4.68Z"/><polygon class="cls-5" points="98.35 127.89 98.61 130.38 122.11 130.38 123.06 127.89 98.35 127.89"/><polygon class="cls-2" points="89.74 127.89 86.84 108.26 83.98 108.26 87.34 127.89 89.74 127.89"/><polygon class="cls-2" points="72.64 36.34 77.03 63.3 80.42 64.25 76.56 36.73 72.64 36.34"/><polygon class="cls-6" points="132.91 67.99 122.92 54.36 111.65 59.43 108.94 64.91 101.53 61.18 98.61 53.79 88.29 50.49 83.99 55.36 77.23 54.5 76.01 57 65.88 55.36 62.63 59.24 59.46 69.9 51.05 67.62 48.2 72.33 43.78 73.33 53.33 107.26 125.91 107.26 137.46 70.19 132.91 67.99"/><polygon class="cls-7" points="87.56 54.08 86.27 61.63 100.67 66.2 106.09 66.2 109.37 67.81 111.94 60.94 115.46 66.2 121.42 65.16 130.78 69.31 136.89 69.31 125.91 107.26 53.51 108.26 44.87 77.89 51.05 74.32 58.61 75.32 63.12 67.81 70.67 68.62 68.76 58.45 80.14 61.77 81 58.45 83.98 58.45 87.56 54.08"/><path class="cls-5" d="M119.29,93.86l1.57-8.28-10.64-.12L110.07,94ZM108.83,71.65l1.64-.05-.23,12.69,10.88-.12,2.45-13,1.7-.06-2.73,13L132,84l-.5,1.67-9.21-.11-1.73,8.25,8.54-.11-.49,1.66-8.35-.1L118,105.88h-1l2-10.6-9-.11-.19,10.71h-.95l0-10.72-9.07-.11,0-.85v-.09l9.09-.11,0-8.55-9.19-.1,0-.95,9.21-.1Z"/><path class="cls-5" d="M99.79,94.2l.17,11.68h25.48l3.12-10.48.49-1.66,2.4-8h0L132,84l3.94-13.23-10.62.33-1.7.06-13.1.4-1.64.05-9.35.3.17,12.45,0,.95.12,8.76Zm39.62-26.39-12.73,40.45H98.35L97.1,69Z"/><path class="cls-8" d="M86.84,93.44,85.73,81.53,77.24,80.2l1.74,13Zm-9.09-.26L75.74,80l-8.41-1.32L70,93Zm-9-.26L65.82,78.41l-8.34-1.3L61.05,92.7Zm-23-17.63-.31-1.05,10.18,1.44-4-16.25,1.87.55,3.66,15.91,8.35,1.18L62.61,62.62l1.84.53,2.62,14.13,8.45,1.2-2-12.67,1.8.53L77,78.7l8.53,1.21-1-10.9,1.76.51.78,10.6,8,1.14L95.21,83l-8-1.25.86,11.72,7.7.22.09,1.72-7.68-.34L89,105.88H88L87,95l-7.82-.35,1.51,11.21h-1L78,94.61l-7.75-.35,2.16,11.62h-1L69,94.21l-7.7-.34,2.76,12h-1l-3-12.06-8.92-.41-.3-1,8.94.25L56,76.87Z"/><path class="cls-8" d="M45.48,74.24l.31,1.05,5.1,17.13.3,1,3.71,12.47H96.39l-.53-10.47-.09-1.72L95.21,83l-.09-1.74L94.64,72l-8.33-2.43L84.55,69l-9.18-2.67-1.8-.53-9.12-2.66-1.84-.53L53.53,60l-1.87-.55L40.07,56.06Zm34.94-10L97.1,69l1.25,39.31H55.57l5.32,19.63H98.35l.25,2.49H58.47L25.71,31.68l6.33.63L39.2,52.63,77,63.3Z"/><polygon class="cls-9" points="112.65 67.34 117.69 73.61 117.69 92.92 121.78 96.43 121.78 99.28 128.48 101.13 130.19 67.34 125.06 63.3 122.78 65.48 119.81 64.77 118.64 66.48 112.65 67.34"/><polygon class="cls-9" points="85.66 65.73 83.42 60.16 81.42 61.59 78.49 60.16 69.12 61.07 72.54 90.58 80.95 90.58 80.42 76.13 83.99 75.37 83.99 65.26 85.66 65.73"/><path class="cls-4" d="M59.65,129.54c.77,4.25-.77,7.71-3.42,7.71s-5.42-3.46-6.19-7.71.78-7.7,3.42-7.7S58.88,125.28,59.65,129.54Zm-4.43,2.06c.7,0,1.11-.92.91-2.06s-.94-2.06-1.65-2.06-1.12.93-.91,2.06S54.51,131.6,55.22,131.6Z"/><path class="cls-3" d="M53.57,129.54c.2,1.14.94,2.06,1.65,2.06s1.11-.92.91-2.06-.94-2.06-1.65-2.06S53.36,128.41,53.57,129.54Z"/><path class="cls-3" d="M56.23,137.25c2.65,0,4.19-3.46,3.42-7.71s-3.53-7.7-6.19-7.7-4.18,3.44-3.42,7.7S53.58,137.25,56.23,137.25Zm1.07-16.16c2.9,0,5.93,3.79,6.78,8.45S63.23,138,60.33,138h-4c-2.91,0-6-3.77-6.78-8.44s.84-8.45,3.75-8.45Z"/><path class="cls-4" d="M97.85,129.54c.76,4.25-.77,7.71-3.43,7.71s-5.41-3.46-6.18-7.71.78-7.7,3.42-7.7S97.08,125.28,97.85,129.54Zm-4.43,2.06c.7,0,1.11-.92.91-2.06s-.94-2.06-1.65-2.06-1.12.93-.91,2.06S92.71,131.6,93.42,131.6Z"/><path class="cls-3" d="M91.77,129.54c.2,1.14.94,2.06,1.65,2.06s1.11-.92.91-2.06-.94-2.06-1.65-2.06S91.56,128.41,91.77,129.54Z"/><path class="cls-3" d="M94.42,137.25c2.66,0,4.19-3.46,3.43-7.71s-3.53-7.7-6.19-7.7-4.18,3.44-3.42,7.7S91.78,137.25,94.42,137.25Zm1.08-16.16c2.9,0,5.93,3.79,6.78,8.45s-.85,8.44-3.75,8.44h-4c-2.91,0-6-3.77-6.78-8.44s.84-8.45,3.75-8.45Z"/></svg>