<svg id="Layer_1" data-name="Layer 1" xmlns="http://www.w3.org/2000/svg" viewBox="0 0 73 73"><defs><style>.cls-1{fill:#fff;}.cls-2{fill:#2081b7;}.cls-3{fill:#154168;}.cls-4{fill:#1a528e;}.cls-5{fill:#d8d8d8;}.cls-6{fill:#fafbfa;}</style></defs><circle class="cls-1" cx="36.5" cy="36.5" r="35.5"/><circle class="cls-2" cx="36.5" cy="36.5" r="31.8"/><circle class="cls-3" cx="35.4" cy="37.6" r="30.7"/><circle class="cls-4" cx="36.05" cy="36.95" r="30.06"/><path class="cls-5" d="M17.16,32.57a2.28,2.28,0,0,1,2.57-1.66c1.65.05,3.31,0,5,0a1.17,1.17,0,0,0,.69-.25Q30.69,26.3,36,21.89a2,2,0,0,1,3.05.22,2.71,2.71,0,0,1,.42,1.33c.06,1,0,2.09,0,3.14V50.39a2.05,2.05,0,0,1-1.81,2.27A2.07,2.07,0,0,1,36,52.1l-8-6.66c-.87-.73-1.74-1.46-2.62-2.16A1.24,1.24,0,0,0,24.7,43c-1.63,0-3.25,0-4.88,0a2.38,2.38,0,0,1-2.66-1.59Z"/><path class="cls-5" d="M55.84,36.47a17.26,17.26,0,0,1-3.91,11.19A1.31,1.31,0,0,1,50,48a1.37,1.37,0,0,1-.35-2.07,15.71,15.71,0,0,0,1.82-2.81,14,14,0,0,0-1.17-14.3c-.26-.37-.55-.71-.84-1.06a1.38,1.38,0,0,1,.25-2.12,1.33,1.33,0,0,1,1.94.26A16.63,16.63,0,0,1,55.56,34C55.72,35,55.78,35.93,55.84,36.47Z"/><path class="cls-5" d="M49.46,36.87a10.4,10.4,0,0,1-2,6.26,1.31,1.31,0,0,1-1.82.36,1.39,1.39,0,0,1-.53-2,8.56,8.56,0,0,0,1.29-2.71,7.57,7.57,0,0,0-1.21-6.38,3.55,3.55,0,0,1-.49-.84,1.46,1.46,0,0,1,.85-1.67,1.32,1.32,0,0,1,1.66.43A10.31,10.31,0,0,1,49.46,36.87Z"/><path class="cls-6" d="M17.16,31.61a2.29,2.29,0,0,1,2.57-1.67c1.65,0,3.31,0,5,0a1.17,1.17,0,0,0,.69-.25q5.31-4.36,10.6-8.76a2,2,0,0,1,3.05.22,2.65,2.65,0,0,1,.42,1.33c.06,1,0,2.09,0,3.13V49.43a2,2,0,0,1-1.81,2.26A2.07,2.07,0,0,1,36,51.14l-8-6.67c-.87-.72-1.74-1.45-2.62-2.16a1.15,1.15,0,0,0-.66-.23c-1.63,0-3.25-.06-4.88,0a2.38,2.38,0,0,1-2.66-1.59Z"/><path class="cls-6" d="M55.84,35.5a17.29,17.29,0,0,1-3.91,11.2A1.3,1.3,0,0,1,50,47a1.36,1.36,0,0,1-.35-2.06,16.07,16.07,0,0,0,1.82-2.81A14,14,0,0,0,50.34,27.8c-.26-.37-.55-.71-.84-1.06a1.37,1.37,0,0,1,.25-2.11,1.33,1.33,0,0,1,1.94.26A16.63,16.63,0,0,1,55.56,33C55.72,34,55.78,35,55.84,35.5Z"/><path class="cls-6" d="M49.46,35.9a10.36,10.36,0,0,1-2,6.26,1.3,1.3,0,0,1-1.82.36,1.38,1.38,0,0,1-.53-2,8.51,8.51,0,0,0,1.29-2.7,7.56,7.56,0,0,0-1.21-6.38,3.61,3.61,0,0,1-.49-.85A1.45,1.45,0,0,1,45.51,29a1.32,1.32,0,0,1,1.66.42A10.31,10.31,0,0,1,49.46,35.9Z"/></svg>