<svg xmlns="http://www.w3.org/2000/svg" xmlns:xlink="http://www.w3.org/1999/xlink" viewBox="0 0 573 900"><defs><clipPath id="b84b21da-9fda-4c08-99e1-9755adea1585"><rect width="573" height="900" style="fill:none"/></clipPath><clipPath id="f52f8cc0-19b2-43cd-8cfa-0917c32caf74"><path d="M516.25,470.14a11.5,11.5,0,0,0-11.5,11.5v85.91a26.06,26.06,0,0,1-21.95,25.7V398H431.33V548.47a26.07,26.07,0,0,1-19.41-25.16V377.4a11.5,11.5,0,0,0-23,0V523.31a49.09,49.09,0,0,0,42.41,48.56V845.29H482.8V616.39a49.09,49.09,0,0,0,44.95-48.84V481.64A11.5,11.5,0,0,0,516.25,470.14Z" style="fill:none"/></clipPath><clipPath id="f7abb6f4-c695-4628-9a2e-0532e90f9eef"><path d="M372.91,353.35a11.5,11.5,0,0,0-11.5,11.5v85.9a26.05,26.05,0,0,1-26,26h-7.87V362.19H239.13V530.75h-6.9a26.05,26.05,0,0,1-26-26V358.82a11.5,11.5,0,0,0-23,0v145.9a49.08,49.08,0,0,0,49,49h6.9V809.46h88.39V499.78h7.87a49.08,49.08,0,0,0,49-49v-85.9A11.5,11.5,0,0,0,372.91,353.35Z" style="fill:none"/></clipPath></defs><g id="abdb904c-5c89-4afa-9d0b-c6e2c32cebb8" data-name="Layer 11"><g style="clip-path:url(#b84b21da-9fda-4c08-99e1-9755adea1585)"><path d="M516.25,470.14a11.5,11.5,0,0,0-11.5,11.5v85.91a26.06,26.06,0,0,1-21.95,25.7V398H431.33V548.47a26.07,26.07,0,0,1-19.41-25.16V377.4a11.5,11.5,0,0,0-23,0V523.31a49.09,49.09,0,0,0,42.41,48.56V845.29H482.8V616.39a49.09,49.09,0,0,0,44.95-48.84V481.64A11.5,11.5,0,0,0,516.25,470.14Z" style="fill:#6b512f"/><g style="clip-path:url(#f52f8cc0-19b2-43cd-8cfa-0917c32caf74)"><path d="M726.91,289.61a64.6,64.6,0,0,0-41.53-60.34,64.56,64.56,0,0,0-64.56-63.54,65.56,65.56,0,0,0-11.46,1A166.93,166.93,0,0,0,376.7,185a64.63,64.63,0,0,0-78.43,63.08A64.28,64.28,0,0,0,304,274.78a77.55,77.55,0,0,0,7.86,107.61A77.61,77.61,0,0,0,401,482.12a60.77,60.77,0,0,0,88.38,12.61,60.76,60.76,0,0,0,91.25-2.18,88.12,88.12,0,0,0,13.18,1,86.45,86.45,0,0,0,86.45-86.46c0-1.8-.06-3.59-.17-5.37a64.4,64.4,0,0,0,20.17-46.88,65.47,65.47,0,0,0-1.14-12.13A64.51,64.51,0,0,0,726.91,289.61Z" style="fill:#472e14"/></g><path d="M372.91,353.35a11.5,11.5,0,0,0-11.5,11.5v85.9a26.05,26.05,0,0,1-26,26h-7.87V362.19H239.13V530.75h-6.9a26.05,26.05,0,0,1-26-26V358.82a11.5,11.5,0,0,0-23,0v145.9a49.08,49.08,0,0,0,49,49h6.9V809.46h88.39V499.78h7.87a49.08,49.08,0,0,0,49-49v-85.9A11.5,11.5,0,0,0,372.91,353.35Z" style="fill:#6d382f"/><g style="clip-path:url(#f7abb6f4-c695-4628-9a2e-0532e90f9eef)"><path d="M631.27,170a86.73,86.73,0,0,0-55.76-81A86.79,86.79,0,0,0,473.43,5,224.12,224.12,0,0,0,161,29.53,86.74,86.74,0,0,0,63.45,150.07,104.1,104.1,0,0,0,74,294.56,104.18,104.18,0,0,0,193.6,428.47a81.61,81.61,0,0,0,118.67,16.94,81.59,81.59,0,0,0,122.54-2.93A116.18,116.18,0,0,0,568.58,327.73c0-2.42-.08-4.83-.23-7.21a86.46,86.46,0,0,0,27.08-62.95,87.44,87.44,0,0,0-1.53-16.29A86.62,86.62,0,0,0,631.27,170Z" style="fill:#3a1510"/></g><path d="M480.6,756.52c11.57,41.74,44.13,68.81,76.36,67.8,21-.65,37.37-15.49,44.18-21.83-.86-9.28-3.2-31.33-18.42-45.78C559.33,734.52,517,733.06,480.6,756.52Z" style="fill:#ea5038"/><path d="M530.22,775.47a.72.72,0,0,1-.32.35.67.67,0,0,1-.9-.28l-12.73-24a.67.67,0,0,1,1.19-.63l12.72,24A.69.69,0,0,1,530.22,775.47Z" style="fill:#e5a61a"/><path d="M556.73,785.57a.7.7,0,0,1-.34.36.67.67,0,0,1-.89-.31l-16.93-34.69a.67.67,0,0,1,1.21-.59L556.7,785A.68.68,0,0,1,556.73,785.57Z" style="fill:#e5a61a"/><path d="M581.72,795.09a.7.7,0,0,1-.34.36.67.67,0,0,1-.89-.31l-16.93-34.69a.67.67,0,0,1,1.21-.59l16.92,34.69A.68.68,0,0,1,581.72,795.09Z" style="fill:#e5a61a"/><path d="M606.81,804.64a.67.67,0,0,1-.87.39L495.65,763a.67.67,0,1,1,.47-1.25l110.3,42A.67.67,0,0,1,606.81,804.64Z" style="fill:#e5a61a"/><path d="M530.22,775.47a.7.7,0,0,1-.4.39l-25.5,9.49a.67.67,0,0,1-.47-1.26l25.51-9.49a.67.67,0,0,1,.86.39A.72.72,0,0,1,530.22,775.47Z" style="fill:#e5a61a"/><path d="M556.73,785.57a.74.74,0,0,1-.38.38l-35.71,14.64a.68.68,0,0,1-.51-1.25l35.72-14.63a.67.67,0,0,1,.88.86Z" style="fill:#e5a61a"/><path d="M581.72,795.09a.74.74,0,0,1-.38.38l-35.71,14.64a.67.67,0,1,1-.51-1.24l35.72-14.64a.67.67,0,0,1,.88.86Z" style="fill:#e5a61a"/><path d="M508.31,748.64c36,22.78,77.67,21,100.5-1.06,14.85-14.34,17-36,17.76-45.12-6.76-6.19-23-20.73-43.69-21.2C551.15,680.55,519.34,707.47,508.31,748.64Z" style="fill:#f8d448"/><path d="M557,729.65a.63.63,0,0,1,0,.47.66.66,0,0,1-.85.39L531,721.39a.66.66,0,0,1-.39-.85.65.65,0,0,1,.84-.39l25.18,9.12A.64.64,0,0,1,557,729.65Z" style="fill:#7c5f16"/><path d="M583,719.48a.69.69,0,0,1,0,.49.67.67,0,0,1-.86.37l-35.27-14.1a.66.66,0,0,1,.48-1.23l35.28,14.1A.7.7,0,0,1,583,719.48Z" style="fill:#7c5f16"/><path d="M607.52,709.9a.69.69,0,0,1,0,.49.67.67,0,0,1-.86.37l-35.27-14.11a.65.65,0,0,1-.37-.85.66.66,0,0,1,.86-.37l35.27,14.1A.64.64,0,0,1,607.52,709.9Z" style="fill:#7c5f16"/><path d="M632.13,700.28a.67.67,0,0,1-.37.86L523.57,743.43a.67.67,0,0,1-.86-.38.66.66,0,0,1,.38-.85l108.19-42.29A.65.65,0,0,1,632.13,700.28Z" style="fill:#7c5f16"/><path d="M557,729.65a.64.64,0,0,1,0,.54L544.66,754a.67.67,0,0,1-.89.29.65.65,0,0,1-.28-.89l12.31-23.78a.67.67,0,0,1,.89-.29A.66.66,0,0,1,557,729.65Z" style="fill:#7c5f16"/><path d="M583,719.48a.7.7,0,0,1,0,.53l-16.36,34.28a.66.66,0,0,1-.88.31.65.65,0,0,1-.31-.87l16.36-34.29a.65.65,0,0,1,.88-.31A.66.66,0,0,1,583,719.48Z" style="fill:#7c5f16"/><g style="opacity:0.46"><rect x="293.67" y="866.56" width="36.35" height="1" transform="translate(-558.5 1169.6) rotate(-89.39)" style="fill:#3a1510"/><rect x="244.53" y="758.76" width="136.94" height="1" transform="translate(-449.57 1064.11) rotate(-89.39)" style="fill:#3a1510"/><rect x="307.52" y="838.52" width="9.26" height="1" transform="translate(-530.17 1142.17) rotate(-89.39)" style="fill:#3a1510"/><rect x="255.05" y="625.53" width="118.77" height="1" transform="translate(-314.93 933.73) rotate(-89.39)" style="fill:#3a1510"/><rect x="300.29" y="533.92" width="30.26" height="1" transform="translate(-222.36 844.09) rotate(-89.39)" style="fill:#3a1510"/><rect x="262.75" y="657.14" width="118.77" height="1" transform="translate(-338.92 972.71) rotate(-89.39)" style="fill:#3a1510"/><rect x="306.02" y="748.75" width="30.26" height="1" transform="translate(-431.49 1062.35) rotate(-89.39)" style="fill:#3a1510"/><rect x="251.98" y="771.66" width="36.35" height="1" transform="matrix(0.01, -1, 1, 0.01, -504.85, 1034.02)" style="fill:#3a1510"/><rect x="202.84" y="663.85" width="136.94" height="1" transform="translate(-395.92 928.53) rotate(-89.39)" style="fill:#3a1510"/><rect x="265.82" y="743.62" width="9.26" height="1" transform="translate(-476.52 1006.58) rotate(-89.39)" style="fill:#3a1510"/><rect x="213.35" y="530.62" width="118.77" height="1" transform="translate(-261.27 798.15) rotate(-89.39)" style="fill:#3a1510"/><rect x="258.59" y="439.02" width="30.26" height="1" transform="translate(-168.71 708.51) rotate(-89.39)" style="fill:#3a1510"/><rect x="273.58" y="815.55" width="36.35" height="1" transform="matrix(0.01, -1, 1, 0.01, -527.37, 1099.05)" style="fill:#3a1510"/><rect x="224.44" y="707.75" width="136.94" height="1" transform="translate(-418.44 993.56) rotate(-89.39)" style="fill:#3a1510"/><rect x="287.43" y="787.52" width="9.26" height="1" transform="translate(-499.04 1071.62) rotate(-89.39)" style="fill:#3a1510"/><rect x="234.96" y="574.52" width="118.77" height="1" transform="translate(-283.8 863.18) rotate(-89.39)" style="fill:#3a1510"/><rect x="280.2" y="482.92" width="30.26" height="1" transform="translate(-191.23 773.54) rotate(-89.39)" style="fill:#3a1510"/></g><g style="opacity:0.31"><rect x="445.16" y="852.92" width="36.35" height="1" transform="matrix(0.01, -1, 1, 0.01, -395, 1307.58)" style="fill:#472e14"/><rect x="396.02" y="745.11" width="136.94" height="1" transform="translate(-286.06 1202.09) rotate(-89.39)" style="fill:#472e14"/><rect x="459" y="824.88" width="9.26" height="1" transform="translate(-366.66 1280.14) rotate(-89.39)" style="fill:#472e14"/><rect x="406.53" y="611.88" width="118.77" height="1" transform="translate(-151.42 1071.71) rotate(-89.39)" style="fill:#472e14"/><rect x="451.77" y="520.28" width="30.26" height="1" transform="translate(-58.85 982.07) rotate(-89.39)" style="fill:#472e14"/><rect x="414.23" y="643.5" width="118.77" height="1" transform="translate(-175.42 1110.68) rotate(-89.39)" style="fill:#472e14"/><rect x="457.51" y="735.1" width="30.26" height="1" transform="translate(-267.99 1200.32) rotate(-89.39)" style="fill:#472e14"/><rect x="418.47" y="755.28" width="36.35" height="1" transform="matrix(0.01, -1, 1, 0.01, -323.77, 1184.3)" style="fill:#472e14"/><rect x="369.33" y="647.48" width="136.94" height="1" transform="translate(-214.83 1078.81) rotate(-89.39)" style="fill:#472e14"/><rect x="432.32" y="727.24" width="9.26" height="1" transform="translate(-295.43 1156.87) rotate(-89.39)" style="fill:#472e14"/><rect x="379.85" y="514.24" width="118.77" height="1" transform="translate(-80.19 948.43) rotate(-89.39)" style="fill:#472e14"/><rect x="425.08" y="422.64" width="30.26" height="1" transform="translate(12.38 858.79) rotate(-89.39)" style="fill:#472e14"/><rect x="429.84" y="842.17" width="36.35" height="1" transform="translate(-399.4 1281.63) rotate(-89.39)" style="fill:#472e14"/><rect x="380.7" y="734.37" width="136.94" height="1" transform="translate(-290.46 1176.14) rotate(-89.39)" style="fill:#472e14"/><rect x="443.69" y="814.13" width="9.26" height="1" transform="translate(-371.07 1254.2) rotate(-89.39)" style="fill:#472e14"/><rect x="391.22" y="601.13" width="118.77" height="1" transform="translate(-155.82 1045.76) rotate(-89.39)" style="fill:#472e14"/><rect x="436.46" y="509.53" width="30.26" height="1" transform="translate(-63.25 956.12) rotate(-89.39)" style="fill:#472e14"/></g><path d="M704.34,264.39a64.59,64.59,0,0,0-41.52-60.33,64.59,64.59,0,0,0-76-62.53A166.9,166.9,0,0,0,354.14,159.8a64.6,64.6,0,0,0-72.67,89.77,77.51,77.51,0,0,0,7.86,107.6A77.58,77.58,0,0,0,378.4,456.9a60.77,60.77,0,0,0,88.38,12.61A60.76,60.76,0,0,0,558,467.33a86.51,86.51,0,0,0,99.63-85.45c0-1.81-.06-3.6-.17-5.38a64.56,64.56,0,0,0,19-59A64.49,64.49,0,0,0,704.34,264.39Z" style="fill:#01594c"/><path d="M596.76,142.1a86.73,86.73,0,0,0-55.76-81,86.73,86.73,0,0,0-102.07-84A224.12,224.12,0,0,0,126.52,1.66,86.75,86.75,0,0,0,28.94,122.2,104.09,104.09,0,0,0,39.5,266.69a104.16,104.16,0,0,0,99.16,135.92,105,105,0,0,0,20.44-2,81.59,81.59,0,0,0,118.66,16.94A81.58,81.58,0,0,0,400.3,414.6,116.18,116.18,0,0,0,534.07,299.86c0-2.42-.08-4.83-.23-7.21a86.47,86.47,0,0,0,27.09-62.95,87.36,87.36,0,0,0-1.54-16.29A86.62,86.62,0,0,0,596.76,142.1Z" style="fill:#359d6a"/><path d="M87.59,354.62a21.58,21.58,0,0,1-2.24-.12l-.36,0,0-.36c0-.17,2.17-17,17.82-16.77h.36v.36c0,.35-.22,8.58-5.73,13.47A14.39,14.39,0,0,1,87.59,354.62Zm-1.79-.79c4.61.39,8.37-.69,11.2-3.19,4.63-4.12,5.36-11,5.47-12.59C89.05,338.08,86.2,351.45,85.8,353.83Z" style="fill:#f68c4d"/><path d="M438.31,300.15a21.58,21.58,0,0,1-2.24-.12l-.36,0,.05-.36c0-.17,2.17-17,17.81-16.77h.36v.36c0,.35-.22,8.58-5.73,13.47A14.39,14.39,0,0,1,438.31,300.15Zm-1.79-.79c4.61.38,8.38-.69,11.2-3.19,4.64-4.12,5.36-11,5.47-12.59C439.77,283.61,436.92,297,436.52,299.36Z" style="fill:#f68c4d"/><path d="M124.88,281.08a21.29,21.29,0,0,1-.34-2.21l0-.36.37,0c.17,0,17.1-1.29,20,14.09l.07.35-.35.06c-.35.07-8.45,1.51-14.35-2.9A14.4,14.4,0,0,1,124.88,281.08Zm.41-1.91c.55,4.6,2.36,8.07,5.38,10.33,5,3.72,11.8,3.06,13.43,2.84C141.38,279.2,127.71,279.09,125.29,279.17Z" style="fill:#f68c4d"/><path d="M333.05,311a21.58,21.58,0,0,1-2.24-.12l-.36,0,.05-.36c0-.17,2.16-17,17.81-16.78h.36v.36c0,.34-.22,8.57-5.73,13.46A14.34,14.34,0,0,1,333.05,311Zm-1.79-.79c4.61.38,8.37-.69,11.2-3.19,4.64-4.12,5.36-11,5.47-12.6C334.51,294.5,331.66,307.86,331.26,310.25Z" style="fill:#f68c4d"/><path d="M97.41,366.34a12.72,12.72,0,0,1-5.8-1.29c-2.88-1.47-4.88-4.14-6-7.95l-.1-.35.35-.09c.13,0,13.13-3.3,17.46,8.26l.12.34-.33.12A18.1,18.1,0,0,1,97.41,366.34Zm-11-9.08c1,3.42,2.89,5.83,5.49,7.15,4.23,2.16,9.29.84,10.64.42C98.7,355.17,88.52,356.81,86.44,357.26Z" style="fill:#f68c4d"/><path d="M159.88,282.18a12.7,12.7,0,0,1-2.59,5.35c-2.09,2.46-5.15,3.79-9.11,4l-.36,0v-.37c0-.13-.18-13.53,12.07-15.08l.35-.05,0,.36A17.6,17.6,0,0,1,159.88,282.18Zm-11.35,8.58c3.57-.22,6.33-1.46,8.22-3.69,3.07-3.62,2.95-8.85,2.85-10.26C149.31,278.35,148.57,288.64,148.53,290.76Z" style="fill:#f68c4d"/><path d="M251.45,332.77a12.86,12.86,0,0,1-5.44-2.4c-2.53-2-4-5-4.26-9l0-.36.36,0c.14,0,13.52-.65,15.49,11.54l.05.35-.35.06A18.47,18.47,0,0,1,251.45,332.77Zm-9-11.06c.34,3.56,1.67,6.29,4,8.1,3.72,2.95,8.94,2.64,10.34,2.5C254.92,322.08,244.61,321.68,242.49,321.71Z" style="fill:#f68c4d"/><path d="M459.91,374a12.72,12.72,0,0,1-5.8-1.29c-2.87-1.46-4.88-4.14-5.95-8l-.1-.35.35-.09c.13,0,13.13-3.29,17.46,8.27l.12.33-.33.12A18,18,0,0,1,459.91,374Zm-11-9.08c1,3.43,2.88,5.83,5.48,7.16,4.24,2.15,9.29.83,10.64.41C461.21,362.84,451,364.49,449,364.93Z" style="fill:#f68c4d"/><path d="M72.23,281.31s-1.42-30.12,26.06-34.25C98.29,247.06,103,279.3,72.23,281.31Z" style="fill:#01594c"/><path d="M457,277.05s-1.25-26.38,22.81-30C479.85,247.06,484,275.28,457,277.05Z" style="fill:#01594c"/><path d="M189,334.78s2.52-21.33,22.3-21C211.25,313.76,210.81,337,189,334.78Z" style="fill:#01594c"/><path d="M266.66,280.63s-22.56-9.38-16.08-30.94C250.58,249.69,275.83,257.38,266.66,280.63Z" style="fill:#01594c"/><path d="M407.4,343.15s-7.89,23.12-29.83,18.06C377.57,361.21,383.6,335.51,407.4,343.15Z" style="fill:#01594c"/><path d="M407.4,338.92s-19.17.85-21.75-16.63C385.65,322.29,406.16,319.33,407.4,338.92Z" style="fill:#01594c"/><path d="M187.29,334.92s-18.66-7.76-13.3-25.59C174,309.33,194.88,315.69,187.29,334.92Z" style="fill:#01594c"/><path d="M325.11,303.74s-5.43-19.42,0-20C332,283.09,325.11,303.74,325.11,303.74Z" style="fill:#faa32f"/><path d="M325.11,303.74s4.75-21.09,9.87-17.47C339.29,289.32,325.11,303.74,325.11,303.74Z" style="fill:#faa32f"/><path d="M325.11,303.74s-4.93-22-9.86-15.8S325.11,303.74,325.11,303.74Z" style="fill:#faa32f"/><path d="M296.15,385.87s-5.75-20.55,0-21.12C303.45,364,296.15,385.87,296.15,385.87Z" style="fill:#faa32f"/><path d="M296.15,385.87s5-22.31,10.43-18.48C311.14,370.61,296.15,385.87,296.15,385.87Z" style="fill:#faa32f"/><path d="M296.15,385.87s-5.22-23.33-10.43-16.72S296.15,385.87,296.15,385.87Z" style="fill:#faa32f"/><path d="M467.9,364.73s-5.44-19.43,0-20C474.8,344.07,467.9,364.73,467.9,364.73Z" style="fill:#faa32f"/><path d="M467.9,364.73s4.74-21.09,9.86-17.47C482.07,350.31,467.9,364.73,467.9,364.73Z" style="fill:#faa32f"/><path d="M467.9,364.73S463,342.68,458,348.92,467.9,364.73,467.9,364.73Z" style="fill:#faa32f"/><path d="M137.14,275.15s-5.44-19.43,0-20C144,254.5,137.14,275.15,137.14,275.15Z" style="fill:#faa32f"/><path d="M137.14,275.15s4.74-21.09,9.86-17.47C151.31,260.73,137.14,275.15,137.14,275.15Z" style="fill:#faa32f"/><path d="M137.14,275.15s-4.94-22-9.87-15.81S137.14,275.15,137.14,275.15Z" style="fill:#faa32f"/><path d="M77.47,356.87S64.06,341.8,68.7,338.93C74.6,335.28,77.47,356.87,77.47,356.87Z" style="fill:#faa32f"/><path d="M77.47,356.87s-5-21,1.19-20C83.87,337.69,77.47,356.87,77.47,356.87Z" style="fill:#faa32f"/><path d="M77.47,356.87S63.36,339.23,61.67,347,77.47,356.87,77.47,356.87Z" style="fill:#faa32f"/><path d="M87.59,163.5a21.52,21.52,0,0,1-2.24-.11l-.36,0,0-.35c0-.17,2.17-17,17.82-16.78h.36v.36c0,.34-.22,8.57-5.73,13.46A14.34,14.34,0,0,1,87.59,163.5Zm-1.79-.78c4.61.38,8.37-.69,11.2-3.2,4.63-4.11,5.36-11,5.47-12.59C89.05,147,86.2,160.33,85.8,162.72Z" style="fill:#f68c4d"/><path d="M438.31,109c-.73,0-1.47,0-2.24-.11l-.36,0,.05-.36c0-.17,2.17-17,17.81-16.77h.36v.35c0,.35-.22,8.58-5.73,13.47A14.34,14.34,0,0,1,438.31,109Zm-1.79-.78c4.61.38,8.38-.69,11.2-3.2,4.64-4.12,5.36-11,5.47-12.59C439.77,92.49,436.92,105.86,436.52,108.25Z" style="fill:#f68c4d"/><path d="M124.88,90a21.71,21.71,0,0,1-.34-2.21l0-.36.37,0c.17,0,17.1-1.29,20,14.08l.07.36-.35.06c-.35.06-8.45,1.5-14.35-2.91A14.4,14.4,0,0,1,124.88,90Zm.41-1.91c.55,4.59,2.36,8.07,5.38,10.33,5,3.72,11.8,3.06,13.43,2.84C141.38,88.08,127.71,88,125.29,88.06Z" style="fill:#f68c4d"/><path d="M333.05,119.92c-.73,0-1.47,0-2.24-.11l-.36,0,.05-.36c0-.17,2.16-17,17.81-16.77h.36V103c0,.35-.22,8.58-5.73,13.47A14.39,14.39,0,0,1,333.05,119.92Zm-1.79-.79c4.61.39,8.37-.68,11.2-3.19,4.64-4.12,5.36-11,5.47-12.59C334.51,103.38,331.66,116.75,331.26,119.13Z" style="fill:#f68c4d"/><path d="M97.41,175.22a12.72,12.72,0,0,1-5.8-1.29c-2.88-1.46-4.88-4.14-6-8l-.1-.35.35-.09c.13,0,13.13-3.29,17.46,8.27l.12.33-.33.13A18.25,18.25,0,0,1,97.41,175.22Zm-11-9.07a11.23,11.23,0,0,0,5.49,7.15c4.23,2.16,9.29.83,10.64.41C98.7,164.06,88.52,165.7,86.44,166.15Z" style="fill:#f68c4d"/><path d="M159.88,91.07a12.61,12.61,0,0,1-2.59,5.34c-2.09,2.47-5.15,3.8-9.11,4h-.36V100c0-.14-.18-13.54,12.07-15.09l.35,0,0,.35A17.66,17.66,0,0,1,159.88,91.07Zm-11.35,8.58c3.57-.23,6.33-1.47,8.22-3.7,3.07-3.62,2.95-8.84,2.85-10.25C149.31,87.24,148.57,97.52,148.53,99.65Z" style="fill:#f68c4d"/><path d="M251.45,141.66a12.76,12.76,0,0,1-5.44-2.41c-2.53-2-4-5-4.26-9l0-.36.36,0c.14,0,13.52-.64,15.49,11.54l.05.36-.35,0A18,18,0,0,1,251.45,141.66Zm-9-11.06c.34,3.56,1.67,6.28,4,8.09,3.72,2.95,8.94,2.65,10.34,2.5C254.92,131,244.61,130.57,242.49,130.6Z" style="fill:#f68c4d"/><path d="M459.91,182.9a12.85,12.85,0,0,1-5.8-1.29c-2.87-1.47-4.88-4.14-5.95-8l-.1-.34.35-.1c.13,0,13.13-3.29,17.46,8.27l.12.34-.33.12A18,18,0,0,1,459.91,182.9Zm-11-9.08c1,3.42,2.88,5.83,5.48,7.15,4.24,2.16,9.29.83,10.64.42C461.21,171.73,451,173.37,449,173.82Z" style="fill:#f68c4d"/><path d="M72.23,90.2S70.81,60.07,98.29,56C98.29,56,103,88.18,72.23,90.2Z" style="fill:#01594c"/><path d="M457,85.93s-1.25-26.37,22.81-30C479.85,56,484,84.17,457,85.93Z" style="fill:#01594c"/><path d="M189,143.66s2.52-21.33,22.3-21C211.25,122.64,210.81,145.84,189,143.66Z" style="fill:#01594c"/><path d="M266.66,89.51s-22.56-9.38-16.08-30.94C250.58,58.57,275.83,66.26,266.66,89.51Z" style="fill:#01594c"/><path d="M407.4,152s-7.89,23.13-29.83,18.06C377.57,170.09,383.6,144.4,407.4,152Z" style="fill:#01594c"/><path d="M407.4,147.8s-19.17.86-21.75-16.63C385.65,131.17,406.16,128.21,407.4,147.8Z" style="fill:#01594c"/><path d="M187.29,143.81s-18.66-7.76-13.3-25.59C174,118.22,194.88,124.58,187.29,143.81Z" style="fill:#01594c"/><path d="M325.11,112.63s-5.43-19.43,0-20C332,92,325.11,112.63,325.11,112.63Z" style="fill:#faa32f"/><path d="M325.11,112.63s4.75-21.09,9.87-17.47C339.29,98.21,325.11,112.63,325.11,112.63Z" style="fill:#faa32f"/><path d="M325.11,112.63s-4.93-22-9.86-15.81S325.11,112.63,325.11,112.63Z" style="fill:#faa32f"/><path d="M296.15,194.75s-5.75-20.55,0-21.12C303.45,172.9,296.15,194.75,296.15,194.75Z" style="fill:#faa32f"/><path d="M296.15,194.75s5-22.31,10.43-18.48C311.14,179.5,296.15,194.75,296.15,194.75Z" style="fill:#faa32f"/><path d="M296.15,194.75s-5.22-23.32-10.43-16.72S296.15,194.75,296.15,194.75Z" style="fill:#faa32f"/><path d="M467.9,173.61s-5.44-19.43,0-20C474.8,153,467.9,173.61,467.9,173.61Z" style="fill:#faa32f"/><path d="M467.9,173.61s4.74-21.09,9.86-17.47C482.07,159.19,467.9,173.61,467.9,173.61Z" style="fill:#faa32f"/><path d="M467.9,173.61S463,151.56,458,157.8,467.9,173.61,467.9,173.61Z" style="fill:#faa32f"/><path d="M137.14,84s-5.44-19.43,0-20C144,63.38,137.14,84,137.14,84Z" style="fill:#faa32f"/><path d="M137.14,84s4.74-21.1,9.86-17.48C151.31,69.61,137.14,84,137.14,84Z" style="fill:#faa32f"/><path d="M137.14,84S132.2,62,127.27,68.23,137.14,84,137.14,84Z" style="fill:#faa32f"/><path d="M77.47,165.75s-13.41-15.06-8.77-17.93C74.6,144.17,77.47,165.75,77.47,165.75Z" style="fill:#faa32f"/><path d="M77.47,165.75s-5-21,1.19-20C83.87,146.57,77.47,165.75,77.47,165.75Z" style="fill:#faa32f"/><path d="M77.47,165.75s-14.11-17.64-15.8-9.86S77.47,165.75,77.47,165.75Z" style="fill:#faa32f"/><path d="M573.06,657.67a71.11,71.11,0,0,0-12.29-1.1,69.88,69.88,0,0,0-69.7,64.95,54.32,54.32,0,0,0-72.82,36.91,35.52,35.52,0,0,0-32.9,10.43A95.84,95.84,0,0,0,226.5,841a70.51,70.51,0,0,0-100.8,61H396.3c.41-.49.81-1,1.21-1.48,89.8.05,175.29.31,175.29,1.11V795.3l.26,0Z" style="fill:#1c3f2b"/><circle cx="314.03" cy="816.12" r="5.26" style="fill:#e5422c"/><circle cx="339.34" cy="785.67" r="5.26" style="fill:#e5422c"/><circle cx="472.18" cy="746.92" r="5.26" style="fill:#e5422c"/><circle cx="490.17" cy="785.67" r="5.26" style="fill:#e5422c"/><circle cx="528.92" cy="710.95" r="5.26" style="fill:#e5422c"/><circle cx="560.75" cy="741.39" r="5.26" style="fill:#e5422c"/><circle cx="541.37" cy="787.05" r="5.26" style="fill:#e5422c"/><circle cx="510.93" cy="839.64" r="5.26" style="fill:#e5422c"/><circle cx="259.44" cy="823.69" r="5.26" style="fill:#e5422c"/><circle cx="189.21" cy="860.81" r="5.26" style="fill:#e5422c"/><circle cx="213.09" cy="879.13" r="5.26" style="fill:#e5422c"/><circle cx="166.3" cy="884.39" r="5.26" style="fill:#e5422c"/><circle cx="315.23" cy="866.03" r="5.26" style="fill:#e5422c"/><circle cx="286.59" cy="852.68" r="5.26" style="fill:#e5422c"/><circle cx="254.18" cy="868.35" r="5.26" style="fill:#e5422c"/><circle cx="352.5" cy="857.94" r="5.26" style="fill:#e5422c"/><circle cx="386.13" cy="844.29" r="5.26" style="fill:#e5422c"/><circle cx="468.75" cy="857.94" r="5.26" style="fill:#e5422c"/><circle cx="441.43" cy="880.61" r="5.26" style="fill:#e5422c"/><circle cx="375.64" cy="885.71" r="5.26" style="fill:#e5422c"/><circle cx="538.81" cy="879.13" r="5.26" style="fill:#e5422c"/><circle cx="494.85" cy="890.97" r="5.26" style="fill:#e5422c"/><g style="opacity:0.65"><path d="M448.54,778.51a59.24,59.24,0,0,0-18.8,9.8c-1.06.82-2.58,1.79-2.28,3.36.26,1.33,1.82,2.26,3,2.68,2.81,1,6,0,8.57-1.13a47.67,47.67,0,0,0,10.62-6.67l-1.77-1.37a60.67,60.67,0,0,0-4.5,11.9c-.61,2.74-1.73,8.09,2.3,8.74s5.46-4,6.3-6.92a45.61,45.61,0,0,0,1.75-13.09l-2.21.3a36.48,36.48,0,0,0,3.42,10.59c1.4,2.54,4.22,4.81,7.29,3.91,2.71-.79,4-3.81,3.64-6.44-.44-3.3-3.08-5.8-5.45-7.89A50.61,50.61,0,0,0,450,779.21c-1.29-.66-2.43,1.28-1.14,1.94a48.61,48.61,0,0,1,9.27,6.15c2.31,2,5.82,4.75,5.51,8.15a3.24,3.24,0,0,1-2.22,3c-1.79.41-3.41-1-4.28-2.42-1.93-3.06-2.81-7.05-3.49-10.56-.25-1.26-2.23-1-2.21.3a43.48,43.48,0,0,1-1,10A41.16,41.16,0,0,1,449,800.7c-.45,1.22-1.21,2.9-2.73,2.92-2.71,0-.64-6.61-.25-7.93a70.15,70.15,0,0,1,3.75-9.37,1.13,1.13,0,0,0-1.76-1.36,46.52,46.52,0,0,1-9.57,6,15.12,15.12,0,0,1-4.64,1.46c-.68.07-4.51-.1-3.93-1.41.09-.22.74-.61.91-.76l1.13-.86c.74-.56,1.5-1.09,2.27-1.61,1.48-1,3-1.92,4.57-2.78a56.31,56.31,0,0,1,10.35-4.36c1.38-.43.79-2.61-.6-2.17Z" style="fill:#9ac485"/><path d="M512.19,738.38a59.35,59.35,0,0,0-18.8,9.8c-1.06.82-2.57,1.79-2.28,3.36.26,1.33,1.82,2.26,3,2.68,2.81,1,6,0,8.57-1.13a47.44,47.44,0,0,0,10.62-6.67l-1.77-1.36A60.31,60.31,0,0,0,507,757c-.62,2.74-1.74,8.09,2.29,8.75s5.46-4,6.31-6.93a45.6,45.6,0,0,0,1.74-13.09l-2.21.3a36.78,36.78,0,0,0,3.42,10.59c1.4,2.54,4.22,4.81,7.3,3.91,2.71-.79,4-3.81,3.63-6.44-.44-3.3-3.08-5.8-5.44-7.89a51,51,0,0,0-10.39-7.07c-1.29-.66-2.43,1.28-1.14,1.94a48.3,48.3,0,0,1,9.27,6.15c2.31,2,5.82,4.75,5.51,8.15a3.24,3.24,0,0,1-2.22,3c-1.79.41-3.4-1-4.28-2.42-1.93-3.06-2.81-7.05-3.49-10.56-.25-1.25-2.22-1-2.21.3a43,43,0,0,1-1,10,38,38,0,0,1-1.41,4.9c-.45,1.22-1.2,2.9-2.73,2.92-2.71,0-.64-6.61-.25-7.93a68.88,68.88,0,0,1,3.76-9.37,1.13,1.13,0,0,0-1.77-1.36,46.1,46.1,0,0,1-9.57,6,14.62,14.62,0,0,1-4.63,1.46c-.69.07-4.52-.1-3.94-1.41.1-.22.74-.61.92-.76.37-.29.74-.58,1.12-.86.75-.56,1.5-1.09,2.27-1.61,1.48-1,3-1.92,4.57-2.78a56.31,56.31,0,0,1,10.35-4.36c1.38-.43.79-2.6-.6-2.17Z" style="fill:#9ac485"/><path d="M527.42,796.5a59.09,59.09,0,0,0-18.81,9.8c-1.06.82-2.57,1.79-2.27,3.36.25,1.33,1.81,2.26,3,2.68,2.81,1,6,0,8.57-1.13a47.81,47.81,0,0,0,10.62-6.67l-1.77-1.37a61.27,61.27,0,0,0-4.49,11.9c-.62,2.74-1.74,8.09,2.3,8.74s5.45-4,6.3-6.92a45.6,45.6,0,0,0,1.74-13.09l-2.21.3a37.09,37.09,0,0,0,3.42,10.59c1.4,2.54,4.22,4.81,7.3,3.91,2.71-.79,4-3.81,3.64-6.44-.45-3.3-3.09-5.8-5.45-7.89a50.67,50.67,0,0,0-10.39-7.07c-1.29-.66-2.43,1.28-1.14,1.94a47.83,47.83,0,0,1,9.27,6.15c2.31,2,5.82,4.75,5.51,8.15a3.23,3.23,0,0,1-2.22,3c-1.79.41-3.4-1-4.28-2.42-1.93-3.06-2.8-7-3.49-10.56-.24-1.26-2.22-1-2.21.3a42.93,42.93,0,0,1-1,10,38.19,38.19,0,0,1-1.41,4.91c-.45,1.22-1.2,2.9-2.73,2.92-2.7,0-.63-6.61-.25-7.94a69.28,69.28,0,0,1,3.76-9.36,1.13,1.13,0,0,0-1.77-1.36,46.67,46.67,0,0,1-9.57,6,15.15,15.15,0,0,1-4.63,1.46c-.69.07-4.52-.11-3.94-1.41.1-.22.74-.62.92-.76l1.13-.86c.74-.56,1.5-1.09,2.26-1.61,1.48-1,3-1.92,4.57-2.78A56.61,56.61,0,0,1,528,798.67c1.38-.43.79-2.61-.59-2.17Z" style="fill:#9ac485"/><path d="M281.66,780.24a59.24,59.24,0,0,0-18.8,9.8c-1.06.83-2.58,1.8-2.28,3.36.26,1.33,1.82,2.27,3,2.69,2.81,1,6,0,8.57-1.14a47.67,47.67,0,0,0,10.62-6.67L281,786.92a60.67,60.67,0,0,0-4.5,11.9c-.61,2.74-1.73,8.08,2.3,8.74s5.46-4,6.31-6.92a45.65,45.65,0,0,0,1.74-13.09l-2.21.3a36.72,36.72,0,0,0,3.42,10.58c1.4,2.55,4.22,4.81,7.29,3.92,2.71-.8,4-3.81,3.64-6.45-.44-3.29-3.08-5.79-5.44-7.88a50.59,50.59,0,0,0-10.39-7.08c-1.29-.65-2.43,1.29-1.14,1.95a48.09,48.09,0,0,1,9.27,6.14c2.31,2,5.82,4.75,5.51,8.16a3.25,3.25,0,0,1-2.22,3c-1.79.41-3.4-1-4.28-2.42-1.93-3.06-2.81-7.06-3.49-10.56-.25-1.26-2.22-1-2.21.3a43.48,43.48,0,0,1-1,10,39.22,39.22,0,0,1-1.41,4.9c-.45,1.23-1.2,2.9-2.73,2.93-2.71,0-.64-6.61-.25-7.94a69.49,69.49,0,0,1,3.75-9.36,1.13,1.13,0,0,0-1.76-1.37,46.1,46.1,0,0,1-9.57,6,14.6,14.6,0,0,1-4.64,1.46c-.68.08-4.51-.1-3.93-1.41.1-.22.74-.61.92-.75.37-.3.74-.59,1.12-.87.75-.55,1.5-1.09,2.27-1.61,1.48-1,3-1.92,4.57-2.77a57.05,57.05,0,0,1,10.35-4.37c1.38-.43.79-2.6-.6-2.17Z" style="fill:#9ac485"/><path d="M376.76,793.09A67.42,67.42,0,0,0,356.52,805c-1.16,1-2.56,2.14-2.57,3.82a3.52,3.52,0,0,0,2.1,3c2.78,1.41,6.36.54,9.06-.62a16.6,16.6,0,0,0,8.2-7.68,1.13,1.13,0,0,0-1.95-1.14,39.37,39.37,0,0,0-5.06,12c-.38,1.64-1.11,3.82.12,5.27a4.08,4.08,0,0,0,4.86.74,19.22,19.22,0,0,0,8-7.58,21.49,21.49,0,0,0,3.14-10.69h-2.25a43.43,43.43,0,0,0,2.84,13c1.3,3.14,3.81,6.07,7.54,5.59a4.65,4.65,0,0,0,3.57-2.29c.91-1.71.58-3.91.27-5.74a19.87,19.87,0,0,0-5.66-10.7c-3.3-3.23-7.54-5.33-10.54-8.88-.94-1.11-2.52.49-1.59,1.59,2.74,3.24,6.49,5.28,9.65,8a17.93,17.93,0,0,1,6.1,11.47c.21,1.94.13,4.09-2.26,4.3-1.93.17-3.37-1.18-4.28-2.75a23.39,23.39,0,0,1-2.17-6.14,45.75,45.75,0,0,1-1.22-7.54,1.13,1.13,0,0,0-2.25,0,19.3,19.3,0,0,1-8,15.13c-.85.6-3.44,2.41-4.16.74-.26-.63.23-1.94.37-2.58s.37-1.58.6-2.35a37,37,0,0,1,4.33-9.57l-1.95-1.14a14.4,14.4,0,0,1-7.67,7,11.58,11.58,0,0,1-5,.91c-1.41-.13-3.31-1-1.93-2.48a31.86,31.86,0,0,1,4.64-3.87c1.62-1.2,3.28-2.33,5-3.38a64.73,64.73,0,0,1,10.94-5.34c1.35-.51.77-2.68-.59-2.17Z" style="fill:#9ac485"/><path d="M276.48,873.45a77.63,77.63,0,0,0-11.24,6.35q-2.5,1.73-4.88,3.63c-1.23,1-3.23,2.16-2.78,4,.92,3.86,7.37,1.3,9.66.49a36.07,36.07,0,0,0,10.31-5.77l-1.88-1.1-4.06,13.68c-.72,2.44-1.56,6.81,2,7.48,4.16.78,5.54-4.89,6.26-7.77a92.61,92.61,0,0,0,2.3-13.31h-2.25a29.1,29.1,0,0,0,3.41,11.29c1.57,2.84,4.4,5.45,7.78,3.69,3.16-1.65,3.87-5.53,2.71-8.64-1.27-3.4-4-6.34-6.79-8.6a29.6,29.6,0,0,0-10.92-5.62,1.12,1.12,0,0,0-.59,2.17,27,27,0,0,1,9.76,4.91c2.78,2.22,6,5.35,6.73,8.95a4.44,4.44,0,0,1-1.59,4.63c-1.74,1.23-3.41,0-4.45-1.47a24.49,24.49,0,0,1-3.8-11.31,1.13,1.13,0,0,0-2.25,0c-.22,2.18-2.29,20.44-6.09,18.82-.92-.39-.66-2.05-.52-2.8.3-1.57.89-3.12,1.34-4.65l3.22-10.85c.35-1.17-1.06-1.74-1.88-1.09a32.52,32.52,0,0,1-8.14,4.74,33.85,33.85,0,0,1-4.38,1.41,15,15,0,0,1-2.57.51c-.37,0-1,.12-.94-.38s.54-.63.82-.87a75.77,75.77,0,0,1,16.86-10.61c1.32-.6.17-2.54-1.13-1.94Z" style="fill:#9ac485"/><path d="M391.42,860.39a58.65,58.65,0,0,0-12.85,5,57.39,57.39,0,0,0-5.94,3.66c-1.4,1-3.27,2.31-2.87,4.3.79,3.87,7.06,2.49,9.61,1.9a26.92,26.92,0,0,0,11.31-5.78c1.11-1-.49-2.51-1.59-1.59a18.83,18.83,0,0,0-6.06,9.37c-.79,2.81-1.67,7.81.94,10a4.16,4.16,0,0,0,4.69.16,10,10,0,0,0,3.39-4.13,26.92,26.92,0,0,0,3.2-12.28l-2.21.3c1,3.65,2.36,7.42,5.14,10.12,2.08,2,5.95,4.24,8.88,2.81,3.27-1.59,1.65-5.84.56-8.3a30.92,30.92,0,0,0-15.3-15.37c-1.31-.6-2.46,1.34-1.14,1.94a28.91,28.91,0,0,1,14.66,14.95c.46,1.11,1.72,3.77.35,4.68s-3.89-.39-5-1.16c-3.45-2.32-4.9-6.45-6-10.27a1.13,1.13,0,0,0-2.21.3,24.55,24.55,0,0,1-2.11,9.58,15.9,15.9,0,0,1-2.41,4.07c-1,1.08-2.87,1.85-3.6.1a9.27,9.27,0,0,1-.22-4.16,16.62,16.62,0,0,1,1-4.17,16.82,16.82,0,0,1,5-6.92l-1.59-1.59a24.28,24.28,0,0,1-9.13,4.89,23.46,23.46,0,0,1-5.12.88c-1,0-3.9,0-2.39-1.63a20.54,20.54,0,0,1,4.23-3,55.67,55.67,0,0,1,5-2.72A56.29,56.29,0,0,1,392,862.56a1.13,1.13,0,0,0-.59-2.17Z" style="fill:#9ac485"/><path d="M232.39,851.39l-7.13,4c-1.69.94-4.35,1.92-4.4,4.22s2.36,2.47,4,2.27a30,30,0,0,0,7.52-1.88l-.73-1.26c-1.73,1.76-3.5,3.67-4.07,6.14-.43,1.89-.13,4.68,2,5.45s3.75-1.86,4.6-3.4a28.25,28.25,0,0,0,2.35-6.88h-1.45a9.72,9.72,0,0,0,4.15,6.39c1.74,1.1,4.51.93,4.51-1.65s-1.61-4.87-3.32-6.62a91.51,91.51,0,0,0-7.24-6.24c-.73-.61-1.8.45-1.06,1.07,1.81,1.51,3.65,3,5.43,4.54a15.86,15.86,0,0,1,4,4.61c.37.74,1,2.23.65,3.06s-1.77.23-2.31-.14a8.29,8.29,0,0,1-3.35-5.42.76.76,0,0,0-1.45,0,37.85,37.85,0,0,1-1.43,4.88,14.68,14.68,0,0,1-1.1,2.21,5.31,5.31,0,0,1-1.79,2.07c-1.17.55-1.76-1.07-1.84-2a5.81,5.81,0,0,1,.43-2.57,14.21,14.21,0,0,1,3.37-4.45c.49-.5,0-1.54-.73-1.26a29.27,29.27,0,0,1-5.59,1.6,14.55,14.55,0,0,1-2.71.33c-1.27,0-1.79-.95-.84-1.91A10.66,10.66,0,0,1,225.3,857l2.5-1.38,5.35-3c.84-.47.08-1.77-.76-1.3Z" style="fill:#9ac485"/><path d="M510.26,855.92a17.66,17.66,0,0,0-5.89,2.92A17.84,17.84,0,0,0,502,861a6.59,6.59,0,0,0-1.77,2.72c-.42,1.9,1.5,2.6,3,2.37a23.6,23.6,0,0,0,3.66-1.08l4.25-1.36-.84-1.11a33.28,33.28,0,0,0-3.86,6.76c-.71,1.66-2,4.32-.15,5.71,2.17,1.62,3.29-1.41,4-2.9l3.75-7.89-1.37-.18c.37,2.51,1.5,5.11,4,6.13,2,.81,5.08.31,5.46-2.2a4.65,4.65,0,0,0-1.33-3.41,35.81,35.81,0,0,0-3-3.32,38.92,38.92,0,0,0-6.84-5.42c-.82-.51-1.58.78-.76,1.3a36,36,0,0,1,9.44,8.43c.68.89,1.54,2.24.36,3.08a2.93,2.93,0,0,1-2.87.12c-2-.87-2.74-3.1-3-5.11a.76.76,0,0,0-1.38-.17L510,869.24l-1.36,2.87c-.24.5-1,2.62-1.67,1.48-.47-.75.15-2,.43-2.69.36-.93.76-1.85,1.21-2.74a33.55,33.55,0,0,1,3-4.82c.39-.53-.26-1.29-.85-1.1l-6.18,2a7,7,0,0,1-2,.47c-1.38,0-.66-1.18-.11-1.87a16.15,16.15,0,0,1,8.24-5.47.75.75,0,0,0-.4-1.44Z" style="fill:#9ac485"/><path d="M433.93,826l-.39,13.25c1.46,0,2.43-1.55,2.66-3s0-3,.64-4.3c1.31,1.08,1.16,3.09,1.64,4.72a6,6,0,0,0,6,4.13,13.84,13.84,0,0,0-3.21-9.43,8.34,8.34,0,0,0,5.39,1.29,2.12,2.12,0,0,0,.92-.26,1.67,1.67,0,0,0,.12-2.41,4.83,4.83,0,0,0-2.39-1.27l-11.92-3.65" style="fill:#105b35"/><path d="M340.7,868.87a85.52,85.52,0,0,0-10.68,8c-.3.27-.63.63-.52,1a.94.94,0,0,0,.51.51,5.61,5.61,0,0,0,4.71-.23,30.79,30.79,0,0,1,4.45-2,20.88,20.88,0,0,0-3,6c-.49,1.57-.56,3.73.94,4.42s3-.64,3.81-2c1.75-2.82,2.29-6.2,2.79-9.48A8,8,0,0,0,347,881.7a3,3,0,0,0,1.52.66c1.44.12,2.52-1.53,2.37-3a6.7,6.7,0,0,0-2.15-3.68,44.19,44.19,0,0,0-11.54-8.7" style="fill:#105b35"/></g></g></g></svg>