<svg xmlns="http://www.w3.org/2000/svg" xmlns:xlink="http://www.w3.org/1999/xlink" viewBox="0 0 1920 900"><defs><clipPath id="f84303e5-5f24-4af7-bc8a-6a6bb6a19dd8"><rect width="1920" height="900" style="fill:none"/></clipPath><clipPath id="ad123bd4-1e9b-41bf-a151-2e5e79e0fd7e"><path d="M382.05,359.32a11.5,11.5,0,0,0-11.5,11.5v85.91a26,26,0,0,1-26,26h-7.87V368.17H248.27V436.3H237.93a26.05,26.05,0,0,1-26-26V324.37a11.5,11.5,0,0,0-23,0v85.91a49.08,49.08,0,0,0,49,49h10.34V815.43h88.39V505.75h7.87a49.08,49.08,0,0,0,49-49V370.82A11.5,11.5,0,0,0,382.05,359.32Z" style="fill:none"/></clipPath></defs><g id="e7c45905-7d88-4660-8143-697ddb8320c6" data-name="Layer 11"><g style="clip-path:url(#f84303e5-5f24-4af7-bc8a-6a6bb6a19dd8)"><g style="opacity:0.22"><path d="M1909.64,824.06c1-.09.42-.29-2.23-.25l-1.88.33Z"/><path d="M1891.81,823.44c-3.12.16-6.72.45-4.7.75,3.09-.32,3.84-.19,7.16-.56,2.65,0,4.63.1,4.18.22.94-.08,4.12.08,5.55-.13a107.23,107.23,0,0,0-12.39-.06C1890.63,823.59,1891.58,823.5,1891.81,823.44Z"/><path d="M1632.64,822.93l1.67,0C1633.85,822.94,1633.28,822.93,1632.64,822.93Z"/><path d="M1472.06,822.75a11.43,11.43,0,0,0,1.79-.08A11.28,11.28,0,0,0,1472.06,822.75Z"/><path d="M1444.64,822.38l1.62,0C1445.64,822.37,1445,822.36,1444.64,822.38Z"/><path d="M1632.64,822.93l-4.29-.11A35.94,35.94,0,0,0,1632.64,822.93Z"/><path d="M1856.07,824.24c.9,0,1.64,0,2.33-.09l-2.19,0Z"/><path d="M1703.42,822.66h1.31l1.08-.14Z"/><path d="M1757.75,822.61a5.59,5.59,0,0,0-2.13.39,18.82,18.82,0,0,1,2.68-.19C1758.32,822.75,1758.16,822.69,1757.75,822.61Z"/><path d="M1843.89,823.1l1.53,0Z"/><path d="M1664.54,822.6a1.87,1.87,0,0,0-.49-.1S1664.24,822.57,1664.54,822.6Z"/><path d="M145.08,824.71s0,0,0-.05C144.76,824.69,144.66,824.71,145.08,824.71Z"/><path d="M82.11,823.32l.87,0c.09,0,.19-.1.19-.15Z"/><path d="M1394.47,822h.22C1396,822,1395.26,822,1394.47,822Z"/><path d="M933.86,822.23c5.21.25-8.5.32-.64.6C932.49,822.72,940.36,822.39,933.86,822.23Z"/><path d="M1854.66,824.2h-2.23C1853.45,824.22,1854.13,824.22,1854.66,824.2Z"/><path d="M933.22,822.83h0l.81,0Z"/><path d="M1278.86,822.19a10.39,10.39,0,0,0,1.18.12A6.3,6.3,0,0,0,1278.86,822.19Z"/><path d="M1365,822.59l-2.14,0C1363.7,822.58,1364.39,822.59,1365,822.59Z"/><path d="M1234.14,822.59c-1.16,0-1.55-.06-3.13,0l.48,0A24.1,24.1,0,0,1,1234.14,822.59Z"/><path d="M1187.6,822.59l.86,0h1.47Z"/><path d="M286.53,824.57a18.93,18.93,0,0,1-2.15-.25C285.1,824.52,278.26,824.59,286.53,824.57Z"/><path d="M1856,824.08a6.19,6.19,0,0,1-1.38.12h1.55C1856.34,824.15,1856.37,824.11,1856,824.08Z"/><path d="M1232.25,824.8l-7.4,0C1226.92,824.79,1229.61,824.8,1232.25,824.8Z"/><path d="M620.44,824.53l-1.69,0C619.4,824.57,620,824.57,620.44,824.53Z"/><path d="M1202.91,824.8c-1.32-.1-2.72-.15-4.17-.19-.3,0-.65,0-.85.07Z"/><path d="M284.37,824.32h0Z"/><path d="M235.66,825c7,0,3.31-.36,4.8-.58,8.41-.1,3.89.28,6.75.46,5.26-.09,9.28-.43,13.2-.42.29.06,1,.08.16.16,5.55-.29,16.48,0,22.95-.38a6,6,0,0,1,.85.09c-1.05-.19-1.21-.37-1-.51a65.29,65.29,0,0,1,7.05,0,19,19,0,0,0-3,.17l3.31-.11c3,.35-4.52.12-4.52.38,6.45-.11,14-.4,18.92-.3,1,.34-11.56.11-5,.41l-7.66-.13c5.85.54-4.65,0,.73.54,10.07.1,11.26-.17,21.31-.08,2.26-.18-.75-.27,1.51-.46,14.28-.34,11.24.85,21.74.4a59.31,59.31,0,0,1,11.24-.43l-2.55.38c9.75,0,5.57-.55,15.78-.29-1.81.15-7.66.13-6.19.17,6.62.31,4.68-.22,9.77-.22l1,.34c10.38-.05,21.82-.29,33.31-.36-.63.1-2.6.21.09.32,14.5-.17,30.95,0,44.93.24l5.35-.29c1.24,0,2.3.13,1,.18,5.45.12.28-.18,2.9-.3,3.1,0,4.1.17,2.13.26,9.62-.25,27.4-.54,37.54-.22l-2,.09c7.89.11,8.9-.61,16.22-.33l-1.4.05c17.13.13,36.06-.14,49.12.3,2.49-.42,17,.19,18.06-.4,9.78.29,7,.4,20.75.59,3.68,0,5.48-.36,10-.43l.11.31,6.18-.32,3.28.37,4.27-.08a15.2,15.2,0,0,1-3.36-.23c6.67-.14,16.25.22,16.41.37l15.76-.26c-.35.13-3,.17-5.07.25,8.41-.32,1.53.32,9.24,0-1-.07.56-.19.73-.25,3.84.19,12.59.19,19.07.11l-1.25.21c11.7.06,24.65-.1,37.78-.1-4.71-.1-3.63-.46.22-.5l1.54.33c2.48-.21-4-.13,1.08-.37,4.9,0,3.3.37.48.47l6-.11c.35.1-1.05.15-1.41.27,2.44-.2,10.29.33,13.81,0l.34.1c13.12,0,19.07-.11,29.75-.13.21-.28,4.39-.22,7.58-.45,7.85.09,16.56.31,26,.29,6.65-.14,1.94-.24,4.93-.4.49.25,9.94.23,5,.41,11.36,0,14.51-.05,28.87-.26-1.56-.1-3.31-.15-2.4-.24a30.54,30.54,0,0,1,5.55.23l-.68,0c16.12-.38,37.2.75,50,.21l-.72,0,13.31-.28c6.13,0-3.67.19.86.35,14.36-.42,22.69.07,34.52-.22,9.15.76,32.48-.05,44.84.43l-.72-.18a55.78,55.78,0,0,1,6.22.14c-.33-.13-3.47-.16-1.48-.25,27-.22,55.83.26,83.57.42,10.14,0,5.75-.92,18.54-.5l-3.63.33c20.47-.39,41.86,0,61.9-.32a25.31,25.31,0,0,1-3.19.17c4.24.24,15.66,0,15.73-.18,3.12,0,.72.18,2.64.28,4.25.14,10.66-.31,12.92-.07a13.44,13.44,0,0,1-2,.1c2.76-.12,12.89,0,10.24-.25,7.52.13,14.39-.12,20.38,0,3.92-.31,12.88.15,14.12-.29-.54.45,13.19.37,17.94.15-1.59.14,4.14.14,2.27.33,5.43,0,10.4-.09,9.46-.32,10,.54,20.1-.43,25.72.26,16.13-.24,31-.41,45.55-.51-.53.45-16,0-15.41.51,13.76-.18,21.69-.57,35.33-.46,3.54.06-2,.2-3.19.27,13.74-.18,26.57,0,38.8-.2,0,0-1.35.09-2.6.12,2.41,0,5.6.07,5.33-.14l-2.35.06c-3.85-.3,9.57-.62,10-.78-4.1.59,12.08.15,5.58.89,1.58,0,3.57-.14,3.21-.27,2.35,0,3.1.12.71.27,8.64-.11,5.57-.33,13.39-.32,0,.1-1.6.13-2.41.25,4-.19,7.94-.39,14.54-.3-.39.06.37.14-1.6.13,11.35,0,19.35-.51,31.81-.32-3.68.43,4.23.14,4.89.51l6.7-.11-2.69-.18c5.87,0,11.05-.27,16.09-.15l-4.35.16,11-.07-6.22-.14c5.93-.2-.64-.48,7.17-.37-1.59,0,5.87,0,8.92.22h0c2.91-.12,5.89-.24,10.23-.15,1.13.12-.91.41-.17.49,2.86-.31,13.73-.08,17.36-.41-1.21.07-1.27.27-.88.31l2.41-.25c2.72.08,3.11.12,2.67.27,8.18,0-2.59-.47,7.11-.27-.77,0-.4.06-2,.1,9.75.11,18.83-.16,27.78,0,2.64.38-7.82.1-4.8.41,12.91-.07,26.73-.45,39.22-.36l-2.33,0c1.74-.53,9.31.26,15.63,0-1.55,0-2,.3-1.61.24,8.55.08,17.49-.13,30.45-.3l-1.61.14c5,.12,13.28.07,18.73.13,1.61-.14,4.73-.12,2.83-.31,16.8.77,32-.42,46.93.23-1.78,0-4.24.12-2.83.12l12.69-.13a33.38,33.38,0,0,0-4.33-.32c1.61-.14,5.19-.24,8.34-.24-5.71.15,0,.37,2.51.5-.41-.07.43-.15.22-.22,6.63.41,1.12-.47,10.17-.19l-.48.12c3.38-.06,6.51-.22,10.16-.19,1.51.27-3.61.13-3.84.35,5.13,0,10.12-.51,14.77-.24-2.18.07-5.32.07-7.49.15,5,.31,5.64.23,9.4.28h-.37l8.68.15-2.21-.09c6.42-.7,13.07-.13,21.72-.58-8.4.43-1.39.25-2,.55,2.21.08,5.57.18,4.61.26,4.09-.24,6.82.2,12.59-.16.26.1,4.38,0,3.45.25,5.32-.07-1.25-.17-.81-.29,8.2-.33,19.26.4,31-.05,10.17-.19,12-.52,21.47-.68,3.19.15-2.6.35-2.6.35,5.13.15,9,.12,13.83,0-1,.08,0,.15,1.51.26,3.88,0,2.59-.35,7.71-.21-.87.11-2,.29-3.87.39,4.57-.09,9.09-.27,13.83-.36,1.25.17-2.86.26-4.53.37,5.32-.07,13.79-.15,15.44-.42l-3.42-.1c1.94,0,1,.24-.43.28-4.56.22-6.58-.09-6.84-.19l3.37-.06c-3.46-.57-13.55.09-20.34.06l2.84-.42-7,.35c-1.48-.11-2.49-.34.86-.4-4.87-.21-4.31.14-8.49-.09-.46,0-.26,0,.17-.07l-4.76.13c.94-.09-.79-.3,2.14-.24-8.54-.24-13.77.31-17,0l.72,0c-11.85.14-1.15.31-10,.67l-6-.76-1.17.31c-1.22,0-3.64,0-3.19-.16-4.55.21.78.14-1.86.33-5.89-.27-16.22.13-17.55-.35-2.11.23,5.63.18-.65.34-1.79-.53-7.26.09-12.64-.15,1.65-.27,6.75-.13,1.37-.37-3.24.46-10.47-.1-15,0-.21.36-9.85.15-17.46.27.48-.12-14.31-.2-21.39-.33l.21-.06c-1.37.36-8.67.3-14,.37.21-.22,1.17-.31,4-.4h-5c-1.18.12-2.74.18-6,.22l1.26-.27c-6.65,0-13.39.32-22,.14-.48.25,6.81.71-2.24.88-.34-.14-.67-.38,1.7-.43-.78,0-2.77.11-4.33,0l3.61-.23c-3.89-.1-2,.2-5.15.17.06-.19-2.3-.14-1.86-.29.8,0,2.72.08,3.91,0-3.51,0-7.76-.15-9.16-.3.31.11,0,.26-2.57.29-6.65,0-2.28-.24-6.16-.34-1.61.14-5.85,0-6,.29a17.55,17.55,0,0,1-3.06-.22c-3.44.13-16.07,0-12.19.35l.88,0-.56,0h0c-11.28.29-23.43-.17-34.62,0l0-.1c-6.69.11-14.87.06-19.64.28-2,0-4.67-.18-3.82-.3-5.11.07-5.68.18-13.06,0,5.14-.17-1.77-.15,5.26-.13-6.63-.08-8.14-.24-15.26,0,2.43-.25-5-.32-8.15-.24l4.65.18c-3.55,0-6.65,0-9.8,0l1.71-.33c-13.58-.41-24.49.69-34.83,0-3.59.23,7.38.16,4.16.44-6.24-.05-12.75-.53-14.71-.53-8.55-.18-8,.49-16.93.36,1.14.12,2.22.44-4.47.55-6.25,0-7.68-.5-3.73-.59a11.66,11.66,0,0,1,2.15.06c2,0,4.67-.09,2.2-.22l-.81.12c-3.1-.12-11.7-.11-9.68-.3-4.73.11-2,.19,1.48.25-8-.17-12.53,0-20.78-.12,1.31.07,2.52.21,1.21.21-12.1-.15-5.33.22-13.53.27-4.66-.18,1.67-.43-6.58-.28-5-.12-1.07-.31.93-.41-7.52.23-14-.15-18.35-.19l4-.1c-2.37.06-4.31.06-6.29.06l2.26.24a37.47,37.47,0,0,1-4.25-.15c-2.4.16,1.84.4-2.92.61-3.1-.12-9.45.13-10.52-.18,9.76.1-1.07-.32,7.18-.37-1.59,0-3.53,0-5.87,0-.35,0,.33-.06,1-.08-9.33-.28-4.29.36-14,.35,1.23-.18-2.25-.34-3.82-.3,3.89,0,1.86.3-1.72.43-6.2-.14-6.74.11-10,.09l3.7.06c-1.25.18-4.35.16-8.68.21-.37-.13,3.93-.09,2.39-.15-4.8.31-10.85-.32-17.54-.11-3.11-.12-.3-.34-3-.42-7.5.23-8.12-.24-16,0,2.27.24,2.67.18-2.88.41l13-.17-8.32.35c3.92,0,8.26-.15,10.6-.11-4,.19-3.55.14-1.68.33-5.35-.35-10.61.21-16.8,0l.19-.59c-9.31-.26-16.53.3-28.61.15l3.88.11c-1.62.23-7.46,0-11.37.12.36-.19-2.08-.26-3.75-.39.2.15-8.84,0-9.94.38l-5.39-.26c-9.76-.1-11.14.57-20.51.5,2.82-.22-1.44-.36,4.84-.51a53.28,53.28,0,0,0-6,.1c-1.83-.12-8.68.27-11.56.08a40.62,40.62,0,0,1-5.27.28c-.38,0,0-.1,0-.1s-5.51.13-2.43.35c-9.65-.62-27,0-35.35-.49-6.84.07-15.07.13-21.27.15.4-.06,0-.1,1.19-.08-8.55-.18-5.26.57-15,.36-5-.32,5.17-.17,2.07-.29-1.35-.65-11.75.09-18.31-.29l1.59,0c-5-.22-12.22.25-20.4.2,0,0,.4-.06.05-.1-5.6.33-16.19.44-24.06.53,2.45-.25,3.57-.13,2.08-.39-3.53,0,1,.42-6,.49-2.29-.14-7.37-.26-8.05-.54H1089c-3.41-.36-8.6,0-12.1,0l.45-.16c-10.19.05-10.33.45-21.27.42l1.13.12c-6,.38-5-.22-11,.07l-1.8-.4c-4,.1-13.82.38-20.9.46,4-.3,12.29-.45,17.41-.62-3.91,0-13.29,0-15.33.22,1.58,0,3.56-.13,5.12-.07q-7.2.46-18.9.46c1.38-.77-20.32-.2-26-.79-13.79.28-27.36-.12-43.42-.08,5.7.6-4.69,0-3.7.63-3.74,0-5.17,0-5.51,0l-11.33-.36c-2.69-.18,3.55-.14,3.21-.28-8.19,0-3.44-.25-8.86-.42,1.11.22-2.85.32-7.51.23l6.57.28c-11.45.33-9.89-.51-21.43-.19l3.65-.19c-5.93.11-21.85,0-27.65.49-1-.07-2.43-.24.17-.28-14.15-.08-31.5.52-42.5.22l1.08-.15c-2.64,0-4.6.28-7.91.13.18-.06,1.07-.15-.15-.16-1.4.05-7,.26-10.52.17l3-.16c-13.8-.2-21.18.41-32.76.51,0-.44-10.83-.58-16.25-.66l.19-.06c-16.07-.05-27.3.37-42.19.54-9.24-.48-31.29-.2-46.14-.47,2.27.08-.37.34-3,.39-3.49-.09-9.64.3-9.08-.1H665c-2.63-.4-9.79-.29-15.38-.3l-.92.52c-14.63-.76-38.33.29-46.31-.4-3.53.13-7.9.13-11.4.26l.19-.28c-9.78-.07-14.66-.11-26.75,0l2.46-.2c-6.81,0-8.6.81-14.89.83l-1.9-.42c-11.89,0-23.93-.37-35.69,0a8.44,8.44,0,0,1,2.47-.2c-5.6,0-21.66-.28-19.62.3-.14-.38-12.28,0-18.7.13l1-.28c-5.42.35-5.6.45-13.17.55-1.79,0-1.57-.22.81-.15-6-.15-4.66.26-11.91.11l2.71-.17a79.51,79.51,0,0,0-9.05.28,117.64,117.64,0,0,1-12.58-.32,59.47,59.47,0,0,1-7.83.28c-.49-.09.83-.15,1.5-.18-10.29-.19-15.3.32-22.37.05a3.79,3.79,0,0,0-1.2-.17c8.17,0,14.76,0,14.14,0,0-.25-6.6-.3-1.35-.65-5.3.19-14.36.61-20.79.49-.32,0-.62,0-.86-.09l.67,0c-1.48,0-2.81,0-4.07.05-2.05-.05-3.35-.08-5.33-.08-.76-.21-7.57-.12-10.86-.13.27.28-4,.24,0,.47a25.89,25.89,0,0,1,2.81,0l1.41,0-.23,0,8.18,0a82.18,82.18,0,0,1-9,.11c-1.69.18-3.55.37-4.6.45-4.5-.39-13.19-.6-14.39-.84-10.06.16-23.68.1-30,.63a23.44,23.44,0,0,1-4.35-.23c1.65-.06,3.61,0,4.5-.13-5.71.14-16.93.06-18.29.43-7.2-.17,4.05-.34-5.85-.28l1.34-.12c-19.47-.59-31.65,1-53.23.19,1.49,0,2.24.07,2.54.13-24.6-.34-50.7.31-75-.22-6.9-.1-7.65.13-11.86.31l-1.5-.3-7.2.35c-10.21.25-17.68-.74-30.61-.26l1.67.2c-4.65,0-14.71.12-13.93-.11a17.92,17.92,0,0,1-3.34.1l-.14-.15-11.41.27c-8.84-.12,1.38-.63-11.52-.66-4.8.06-13.66.46-11.86.56a33.4,33.4,0,0,1,5.09.26L83,823.3c-.8.47-4.17,1,6.6,1.27l7.5-.28,2.42.22-6.32,0a66,66,0,0,0,8.4-.11,21.19,21.19,0,0,0,3.14.25l7.37-.44c.89.18-3.3.36,1.64.46,3.45-.21-3.31-.41,2.4-.55a37.18,37.18,0,0,0,6.76.21c.59.12-.3.19-2,.25,3.75-.15,9.92-.07,11.86-.31,3.74.26,12.66-.07,12.29.37,1.18-.11,6.61-.35,10.05-.36-6.29.52,12.9,0,11.23.59,4.66-.47,16.83-.21,25.08-.47a20.42,20.42,0,0,1-2.1.09c4.65,0,6,.18,9,.27.6-.39,7.83-.48,11.73-.72,5.69.38-3.46.46-1.67.82-.29-.32,9.89-.32,7.95-.58a44.1,44.1,0,0,1,6,.44c.77-.49,4.06-.09,7.67-.39,6.3.24,1.62.46,8.54.31C241.81,824.81,235.66,825,235.66,825Zm164.57-.85h-3.39Zm13.83,0c-1.68,0-3.78,0-6,0-.48-.09,0-.19,1.44-.19C408.74,824,412,824.05,414.06,824.14Zm-29.25-1.95a19.82,19.82,0,0,1,3.22.07l-3.83,0-.26,0A4,4,0,0,1,384.81,822.19Z"/><path d="M380.87,822.56l-.9,0,1.31.06.77-.09Z"/><path d="M1634.6,823h-.29c.24,0,.46,0,.61,0Z"/><polygon points="605.04 824.67 605.02 824.6 603.81 824.66 605.04 824.67"/><path d="M1710.77,823.94c.15,0,.43,0,1,.07C1711.73,824,1711.3,824,1710.77,823.94Z"/><path d="M1743.68,824l4.65.1C1746.32,824,1744.85,824,1743.68,824Z"/><path d="M1769,824.14a2,2,0,0,0,.5-.12h0Z"/><path d="M1366.73,824.47h-1C1363.46,824.54,1365,824.52,1366.73,824.47Z"/><path d="M1486.43,823.81l-3.85.14A16.28,16.28,0,0,0,1486.43,823.81Z"/><path d="M1233.06,824.81h0Z"/><path d="M1477,823.94c2.13.06,3.91,0,5.56,0C1480.84,823.93,1478.78,823.9,1477,823.94Z"/><path d="M1878.62,824.27h1.22s.05,0,.15,0Z"/><path d="M1880,824.23l1.35,0C1880.72,824.2,1880.18,824.2,1880,824.23Z"/><path d="M1884.19,824.13l-2.85.07C1882.33,824.2,1883.54,824.21,1884.19,824.13Z"/><path d="M1845.13,824.14l-.38.1C1845,824.22,1845.09,824.19,1845.13,824.14Z"/><path d="M1835,824.17c2.42,0,6.09.21,9.47.15l.32-.08C1843.16,824.39,1837.26,824,1835,824.17Z"/><path d="M1792.48,822.91l8.52.08c-1.49-.11-3.45-.26.43-.28C1790.68,822.38,1803.65,823,1792.48,822.91Z"/><path d="M1766,822.75c4.58,0,0-.16.19-.22C1763.32,822.63,1762.61,822.65,1766,822.75Z"/><path d="M1574.93,822.75l.47-.26C1571.86,822.53,1575.36,822.59,1574.93,822.75Z"/><polygon points="1538.4 824.07 1541.84 824.23 1543.48 824 1538.4 824.07"/><polygon points="1516.83 822.25 1518.37 822.21 1512.48 822.3 1516.83 822.25"/><path d="M1195.88,822.34l1.06.31C1199.33,822.6,1199.83,822.24,1195.88,822.34Z"/><path d="M1057.32,822.66a61,61,0,0,0-7.81-.1C1052.63,822.58,1055.74,822.7,1057.32,822.66Z"/><polygon points="641.79 822.15 644.58 822.04 639.32 822.13 641.79 822.15"/></g><g style="opacity:0.22"><path d="M175.67,825.4c.1-.08.05-.28-.21-.25l-.2.32Z"/><path d="M174,824.72c-.31.15-.68.41-.49.73.31-.31.38-.17.72-.54.26,0,.45.12.4.24.1-.08.4.09.55-.11a1.11,1.11,0,0,0-1.21-.1C173.83,824.86,173.92,824.78,174,824.72Z"/><path d="M148.57,823.23l.16,0A.43.43,0,0,0,148.57,823.23Z"/><path d="M132.83,822.53c.12,0,.17,0,.18-.07S132.8,822.5,132.83,822.53Z"/><path d="M130.15,822.08l.16,0A.17.17,0,0,0,130.15,822.08Z"/><path d="M148.57,823.23l-.42-.12C148.12,823.22,148.36,823.2,148.57,823.23Z"/><path d="M170.41,825.37a.84.84,0,0,0,.24-.07l-.22,0Z"/><path d="M155.52,823.21h.12a.76.76,0,0,0,.11-.14Z"/><path d="M160.84,823.36c-.12,0-.17.26-.22.38a.38.38,0,0,1,.27-.18A.45.45,0,0,0,160.84,823.36Z"/><path d="M169.27,824.19l.15,0Z"/><path d="M151.71,823a.23.23,0,0,0-.05-.1A.16.16,0,0,0,151.71,823Z"/><path d="M2.68,822.64s0,0,0,0S2.64,822.64,2.68,822.64Z"/><path d="M125.24,821.58h0C125.39,821.55,125.32,821.56,125.24,821.58Z"/><path d="M80.06,820.73c.51.26-.84.31-.07.6C79.92,821.22,80.69,820.91,80.06,820.73Z"/><path d="M170.28,825.33h0Z"/><path d="M80,821.33h0l.07,0Z"/><path d="M113.9,821.43a.45.45,0,0,0,.11.13S114,821.49,113.9,821.43Z"/><path d="M122.33,822.06l-.2,0A.58.58,0,0,0,122.33,822.06Z"/><path d="M109.5,821.71a.57.57,0,0,0-.3,0,.08.08,0,0,0,0,0A.28.28,0,0,1,109.5,821.71Z"/><path d="M104.94,821.61l.08.06.15,0Z"/><path d="M16.55,822.49a.8.8,0,0,1-.21-.25C16.41,822.44,15.74,822.51,16.55,822.49Z"/><path d="M170.42,825.22a.16.16,0,0,1-.14.11h.15S170.45,825.24,170.42,825.22Z"/><path d="M109.26,823.93l-.72-.06A7,7,0,0,0,109.26,823.93Z"/><path d="M49.29,822.63l-.17,0A.23.23,0,0,0,49.29,822.63Z"/><path d="M106.39,823.86a1.23,1.23,0,0,0-.41-.21.27.27,0,0,0-.08.07Z"/><path d="M16.34,822.24Z"/><path d="M11.56,822.9c.69,0,.33-.36.47-.57.83-.11.38.27.67.46.51-.1.91-.44,1.29-.42,0,.06.1.08,0,.16.55-.3,1.62,0,2.26-.39a.31.31,0,0,1,.08.1.86.86,0,0,1-.1-.51c.31,0,.58-.23.69,0-.19,0-.2.09-.29.16l.32-.1c.29.35-.44.12-.44.37a6.39,6.39,0,0,1,1.85-.3c.11.34-1.13.12-.48.42l-.75-.13c.57.54-.46,0,.07.54,1,.09,1.1-.18,2.09-.08.22-.19-.08-.28.15-.46,1.4-.34,1.1.85,2.13.4.26-.22.37-.65,1.1-.42l-.25.38c1,0,.55-.55,1.55-.29-.18.15-.75.13-.61.17.65.31.46-.21,1-.21l.1.34c1,0,2.14-.29,3.27-.35-.06.1-.26.21,0,.31a17.06,17.06,0,0,1,4.41.26l.53-.29c.12,0,.22.14.09.19.53.12,0-.18.28-.3s.41.17.21.26a8.17,8.17,0,0,1,3.68-.2l-.19.09c.77.12.88-.6,1.59-.32l-.14.05c1.68.14,3.54-.12,4.82.34.25-.42,1.66.2,1.77-.39a7.47,7.47,0,0,0,2,.61c.36,0,.54-.36,1-.42v.31l.61-.32.31.37.42-.07c-.16,0-.35-.14-.32-.23a2,2,0,0,1,1.6.39l1.55-.25c0,.12-.29.16-.5.24.83-.31.15.33.91,0-.11-.07,0-.18.07-.24a4.22,4.22,0,0,0,1.87.13l-.13.21c1.15.07,2.42-.07,3.71-.05-.46-.11-.35-.47,0-.51l.14.33c.25-.2-.39-.13.11-.37.48,0,.32.38.05.48l.58-.11c0,.1-.1.15-.14.28.24-.2,1,.33,1.35,0l0,.09c1.28,0,1.87-.08,2.91-.09,0-.28.44-.21.75-.43a17.05,17.05,0,0,0,2.55.32c.65-.13.19-.24.49-.4,0,.26,1,.25.49.42a18.12,18.12,0,0,0,2.83-.21c-.15-.11-.32-.16-.23-.24.26,0,.58.11.54.23l-.07,0c1.59-.36,3.64.8,4.91.29l-.07,0,1.31-.25c.59.05-.37.18.07.35,1.42-.4,2.23.1,3.39-.17.88.78,3.19,0,4.39.51l-.07-.18c.32-.17.38.11.61.16,0-.14-.34-.17-.14-.26,2.65-.17,5.47.37,8.18.58,1,.07.59-.91,1.83-.46l-.36.32c2-.35,4.1.1,6.07-.19-.12.08-.12.18-.31.17.41.25,1.53,0,1.54-.15.31,0,.07.18.25.29.42.15,1.06-.29,1.27,0,0,0-.12.07-.19.09.27-.11,1.26.06,1-.22.73.15,1.41-.09,2,.08.39-.3,1.26.18,1.39-.25-.06.45,1.29.39,1.76.19-.16.13.4.15.21.34.54,0,1-.07.94-.3,1,.57,2-.38,2.51.32,1.59-.2,3.06-.32,4.48-.39-.06.45-1.57,0-1.52.48a14.25,14.25,0,0,1,3.47-.38c.35.07-.2.19-.32.27,1.35-.15,2.61.11,3.81-.1,0,0-.13.09-.26.12.24,0,.55.08.53-.13l-.23,0c-.37-.31,1-.59,1-.75-.42.58,1.18.18.52.91.16,0,.36-.13.32-.27.23,0,.3.13.07.28.85-.09.55-.31,1.32-.29,0,.1-.16.14-.25.25a2.27,2.27,0,0,1,1.44-.26c0,.06,0,.14-.16.13,1.11,0,1.91-.46,3.12-.24-.37.43.42.16.47.53l.66-.09-.26-.19c.58,0,1.09-.23,1.58-.09l-.43.14,1.08,0-.61-.16c.59-.17,0-.47.72-.34-.16,0,.57,0,.87.25h0a1.47,1.47,0,0,1,1-.12c.11.12-.1.41,0,.49.29-.3,1.35,0,1.71-.36a.26.26,0,0,0-.09.31l.24-.25c.27.09.3.13.26.29.8.07-.24-.48.7-.25-.07,0,0,.06-.2.09,1,.14,1.85-.1,2.73,0,.24.39-.77.07-.49.4a31.86,31.86,0,0,1,3.86-.24l-.23,0c.19-.52.91.3,1.53.07-.15,0-.21.29-.16.23a14.69,14.69,0,0,0,3-.19l-.16.13c.49.13,1.3.11,1.83.19.16-.13.47-.1.29-.3,1.62.83,3.15-.31,4.59.39-.17,0-.42.11-.28.11l1.25-.08c-.09-.23-.16-.14-.42-.33A1.46,1.46,0,0,1,156,824c-.56.13,0,.37.23.51,0-.08.05-.15,0-.22.63.43.12-.46,1-.15l-.05.12a3.37,3.37,0,0,1,1-.15c.14.27-.36.11-.39.33.51,0,1-.47,1.46-.19-.22.07-.52.06-.74.12a1.43,1.43,0,0,0,.91.32h0l.85.18-.21-.1c.65-.67,1.28-.08,2.15-.5-.84.4-.15.24-.22.54.21.1.54.2.44.29.41-.23.66.21,1.24-.12,0,.1.43,0,.33.26.52,0-.12-.17-.07-.29.82-.3,1.87.48,3,.07,1-.15,1.2-.47,2.13-.6.31.17-.27.35-.27.35a2.53,2.53,0,0,0,1.36.06c-.1.08,0,.16.14.27.38,0,.27-.34.76-.18a1.57,1.57,0,0,1-.39.38c.45-.08.9-.24,1.37-.31.11.18-.29.25-.46.35.52-.05,1.35-.1,1.53-.36l-.33-.11c.19,0,.08.24-.06.28-.45.19-.64-.12-.66-.22l.33,0c-.31-.58-1.33,0-2,0l.29-.4-.69.31c-.15-.11-.24-.35.1-.4-.47-.22-.43.13-.83-.11-.05,0,0-.06,0-.07l-.47.1c.09-.08-.07-.29.21-.22-.82-.28-1.36.25-1.66-.07l.07,0c-1.17.1-.12.3-1,.63l-.55-.78-.13.3c-.12,0-.36,0-.31-.17-.45.19.07.14-.19.32-.57-.3-1.6.07-1.71-.42-.22.23.55.2-.08.34-.15-.53-.71.06-1.23-.2.17-.26.67-.1.15-.36-.34.44-1-.14-1.47-.07,0,.36-1,.12-1.72.21a13.7,13.7,0,0,0-2.09-.41l0-.06c-.15.36-.86.27-1.39.32,0-.22.13-.3.41-.39h-.49a.92.92,0,0,1-.59.19l.13-.26a7.21,7.21,0,0,1-2.15.05c-.06.26.64.74-.26.88,0-.14-.05-.38.19-.43a.72.72,0,0,1-.43.05l.36-.22c-.38-.12-.2.18-.51.15,0-.2-.22-.15-.17-.3s.26.09.38,0a1.59,1.59,0,0,1-.88-.33c0,.11,0,.27-.27.28-.65,0-.21-.24-.59-.36-.16.14-.57,0-.59.27-.19,0-.22-.14-.29-.23-.35.12-1.58,0-1.21.31l.08,0h-.05c-1.12.25-2.29-.25-3.4-.16v-.1a10.45,10.45,0,0,0-1.93.21c-.2,0-.46-.19-.37-.31a2.23,2.23,0,0,1-1.28,0c.51-.16-.17-.16.52-.11-.65-.11-.79-.27-1.5,0,.25-.25-.48-.34-.79-.27l.45.2a6,6,0,0,1-1,0l.18-.33c-1.32-.45-2.42.61-3.42-.1-.36.22.72.19.4.45a7,7,0,0,1-1.43-.57c-.83-.21-.8.46-1.67.31.11.12.21.44-.45.53-.62-.06-.74-.52-.35-.6.15,0,.22,0,.21.07.2,0,.46-.08.22-.21l-.08.11c-.3-.13-1.15-.14-.94-.33-.47.1-.21.19.13.26a19.14,19.14,0,0,0-2-.18c.13.07.24.21.11.2-1.18-.18-.53.21-1.33.24-.45-.19.17-.42-.64-.3-.49-.13-.09-.31.1-.41a3.63,3.63,0,0,1-1.79-.24l.39-.08a2.2,2.2,0,0,1-.62,0l.22.25c-.23,0-.42-.06-.41-.16-.24.15.16.4-.31.6-.3-.13-.93.1-1-.21.95.13-.1-.32.71-.35a1.4,1.4,0,0,1-.57,0s0-.07.09-.08c-.9-.31-.43.34-1.38.31.13-.18-.21-.35-.36-.31.38,0,.17.3-.18.42-.61-.15-.67.09-1,.06l.37.08c-.13.17-.44.14-.86.18,0-.14.39-.08.24-.15-.48.3-1.06-.35-1.72-.16-.3-.13,0-.33-.28-.42-.75.21-.79-.27-1.57-.1.21.25.25.19-.3.41l1.28-.14-.83.33c.39,0,.82-.13,1-.08-.4.18-.36.12-.18.32-.51-.37-1,.19-1.65-.07l0-.59c-.91-.29-1.63.26-2.81.08l.38.11c-.17.23-.73,0-1.12.1,0-.2-.2-.27-.36-.4,0,.15-.87,0-1,.35l-.53-.27c-1-.13-1.1.53-2,.44.28-.2-.13-.36.49-.49-.31,0-.58-.06-.59.08-.18-.13-.86.24-1.14.05-.13.08-.18.29-.52.26a.07.07,0,0,1,0-.09c0,.09-.54.11-.24.34-.93-.64-2.65,0-3.46-.56-.67.05-1.48.09-2.09.09,0-.06,0-.1.12-.07-.83-.21-.53.55-1.48.32-.48-.33.51-.16.21-.29-.12-.65-1.15.07-1.79-.33l.16,0c-.49-.23-1.2.22-2,.15,0,0,0-.06,0-.1a6.79,6.79,0,0,1-2.37.48c.25-.24.35-.12.21-.38-.34,0,.1.41-.6.47-.22-.14-.71-.27-.77-.55h.65c-.33-.37-.85,0-1.19-.08l0-.15c-1,0-1,.42-2.1.37l.11.12c-.59.38-.48-.23-1.07,0l-.17-.4a16.34,16.34,0,0,1-2.06.42,7.41,7.41,0,0,1,1.72-.59,3.48,3.48,0,0,0-1.51.2c.16,0,.35-.13.5-.07a3.27,3.27,0,0,1-1.86.42c.15-.76-2-.23-2.53-.83-1.36.25-2.68-.17-4.26-.15.55.6-.46,0-.37.62-.37,0-.51,0-.54,0L78.88,821c-.26-.18.35-.13.32-.26-.8-.07-.33-.27-.86-.44.1.22-.29.31-.74.22l.64.29c-1.13.3-1-.53-2.1-.23l.36-.18c-.58.1-2.14-.05-2.72.44-.1-.07-.24-.24,0-.28-1.39-.1-3.1.47-4.17.16l.11-.15c-.26,0-.46.27-.78.12,0-.06.11-.15,0-.16a2.18,2.18,0,0,1-1,.16l.3-.17c-1.35-.21-2.09.38-3.22.47,0-.44-1.06-.6-1.59-.68l0-.06a23.93,23.93,0,0,0-4.14.49c-.91-.49-3.07-.24-4.53-.52.23.08,0,.34-.3.38s-.94.3-.89-.11h.13c-.26-.4-1-.3-1.51-.32l-.1.53c-1.42-.78-3.76.25-4.53-.45-.35.13-.78.13-1.12.26l0-.29a15.85,15.85,0,0,0-2.63-.06l.25-.2c-.67,0-.86.81-1.47.82l-.19-.42c-1.16,0-2.34-.39-3.5,0a.26.26,0,0,1,.25-.2c-.55,0-2.13-.3-1.93.28,0-.37-1.2,0-1.84.12l.1-.28a2.09,2.09,0,0,1-1.29.55c-.18,0-.15-.23.08-.15-.59-.15-.46.26-1.17.1l.27-.17c-.61,0-.56.07-.89.27s-1.15-.07-1.23-.33a.78.78,0,0,1-.77.29c0-.1.08-.16.14-.19-1-.19-1.5.32-2.19,0a.19.19,0,0,0-.12-.17,12.39,12.39,0,0,1,1.39,0c0-.26-.65-.31-.13-.66a4.55,4.55,0,0,1-2,.49l-.09-.09.07,0a.75.75,0,0,0-.4,0,2.43,2.43,0,0,0-.52-.08c-.08-.21-.74-.12-1.07-.13,0,.28-.39.24,0,.47-.05,0,.06,0,.28,0l.14,0,0,0,.81,0a.88.88,0,0,1-.88.11,6.08,6.08,0,0,1-.46.45c-.44-.39-1.29-.61-1.41-.85-1,.16-2.32.1-2.94.62-.28.07-.32-.15-.43-.23a1.79,1.79,0,0,0,.45-.12c-.56.13-1.66,0-1.8.41-.71-.16.4-.33-.57-.28l.13-.11c-1.91-.59-3.11.94-5.22.18.14.05.22.07.25.13-2.42-.33-5,.31-7.36-.21-.68-.11-.75.13-1.16.31l-.15-.3-.7.35c-1,.26-1.74-.74-3-.25l.17.2c-.46,0-1.45.13-1.37-.11-.05,0-.15.21-.33.11v-.16l-1.12.27c-.87-.11.13-.62-1.13-.65-.47.06-1.34.46-1.16.57s.48.09.5.25l-.43.09c-.08.46-.41.94.65,1.26l.73-.28.24.22-.62,0c.35.21.58,0,.83-.11a.48.48,0,0,0,.3.25l.73-.45c.08.18-.33.36.16.46.34-.2-.33-.41.23-.54.35.21.25.38.66.2.06.12,0,.2-.19.25.37-.15,1-.06,1.16-.31.37.26,1.25-.07,1.21.37a2.31,2.31,0,0,1,1-.37c-.61.53,1.27,0,1.11.59.45-.47,1.65-.21,2.46-.48-.05,0-.14.12-.21.09a2.87,2.87,0,0,1,.88.27c.06-.39.77-.48,1.15-.72.56.38-.34.46-.16.82,0-.31,1-.31.78-.58.42.24.36.12.58.44.08-.49.4-.08.75-.38.62.24.16.46.84.31C12.17,822.73,11.56,822.9,11.56,822.9Zm16.14-.82h0l-.33,0Zm1.36,0h-.59c0-.1,0-.2.14-.19C28.54,821.94,28.85,822,29.06,822.08Zm-2.87-2c.22,0,.29,0,.32.07l-.37,0,0,0A.27.27,0,0,1,26.19,820.13Z"/><path d="M25.81,820.49l-.09,0,.13.06.07-.09Z"/><path d="M148.76,823.28h0l.06,0Z"/><polygon points="47.78 822.75 47.78 822.68 47.66 822.74 47.78 822.75"/><path d="M156.19,824.52a.17.17,0,0,0,.09.07S156.24,824.55,156.19,824.52Z"/><path d="M159.41,824.7l.45.12A2.35,2.35,0,0,0,159.41,824.7Z"/><path d="M161.88,824.93a.23.23,0,0,0,.06-.12h0Z"/><path d="M122.45,824h-.09C122.13,824,122.28,824,122.45,824Z"/><path d="M134.21,823.64a2.91,2.91,0,0,1-.39.12C134,823.79,134.19,823.8,134.21,823.64Z"/><polygon points="109.34 823.93 109.34 823.93 109.26 823.93 109.34 823.93"/><path d="M133.28,823.74a1,1,0,0,0,.54,0A1.63,1.63,0,0,0,133.28,823.74Z"/><path d="M172.62,825.49l.12,0a.08.08,0,0,1,0,0Z"/><path d="M172.76,825.46l.13,0C172.83,825.43,172.78,825.43,172.76,825.46Z"/><path d="M173.17,825.37l-.28.06C173,825.44,173.11,825.45,173.17,825.37Z"/><path d="M169.35,825.23l0,.1A.23.23,0,0,0,169.35,825.23Z"/><path d="M168.35,825.22c.24,0,.59.24.92.19l0-.08C169.14,825.47,168.58,825.05,168.35,825.22Z"/><path d="M164.24,823.79l.83.11c-.14-.11-.33-.27.05-.28C164.08,823.26,165.33,823.87,164.24,823.79Z"/><path d="M161.65,823.53c.45,0,0-.15,0-.22C161.39,823.4,161.32,823.43,161.65,823.53Z"/><path d="M142.92,822.86l.05-.26C142.62,822.63,143,822.7,142.92,822.86Z"/><polygon points="139.29 824.06 139.62 824.23 139.79 824 139.29 824.06"/><polygon points="137.23 822.17 137.39 822.14 136.81 822.21 137.23 822.17"/><path d="M105.76,821.38l.09.31C106.09,821.64,106.15,821.29,105.76,821.38Z"/><path d="M92.16,821.4a.67.67,0,0,0-.76-.12A7,7,0,0,0,92.16,821.4Z"/><polygon points="51.41 820.26 51.68 820.15 51.16 820.24 51.41 820.26"/></g><rect width="1920" height="900" style="fill:#8adeff"/><circle cx="659.32" cy="818.69" r="43.69" style="fill:#01594c"/><circle cx="1082.7" cy="821.5" r="43.69" style="fill:#01594c"/><circle cx="1143.18" cy="825.72" r="43.69" style="fill:#01594c"/><circle cx="836.02" cy="794.97" r="53.41" style="fill:#01594c"/><circle cx="1226.82" cy="824.28" r="63.03" style="fill:#01594c"/><circle cx="918.22" cy="809.66" r="51.22" style="fill:#01594c"/><circle cx="1011.05" cy="822.32" r="51.22" style="fill:#01594c"/><circle cx="746.55" cy="811.68" r="52.15" style="fill:#01594c"/><g style="opacity:0.14"><circle cx="648.74" cy="755.93" r="5.01" style="fill:#8ceab8"/><circle cx="819.22" cy="721.99" r="5.26" style="fill:#8ceab8"/><circle cx="764.63" cy="729.56" r="5.26" style="fill:#8ceab8"/><circle cx="694.41" cy="766.69" r="5.26" style="fill:#8ceab8"/><circle cx="718.28" cy="785.01" r="5.26" style="fill:#8ceab8"/><circle cx="671.5" cy="790.26" r="5.26" style="fill:#8ceab8"/><circle cx="820.42" cy="771.9" r="5.26" style="fill:#8ceab8"/><circle cx="791.78" cy="758.56" r="5.26" style="fill:#8ceab8"/><circle cx="759.38" cy="774.23" r="5.26" style="fill:#8ceab8"/><circle cx="857.69" cy="763.81" r="5.26" style="fill:#8ceab8"/><circle cx="891.32" cy="750.16" r="5.26" style="fill:#8ceab8"/><circle cx="973.94" cy="763.81" r="5.26" style="fill:#8ceab8"/><circle cx="946.63" cy="786.48" r="5.26" style="fill:#8ceab8"/><circle cx="880.84" cy="791.59" r="5.26" style="fill:#8ceab8"/><circle cx="1044" cy="785.01" r="5.26" style="fill:#8ceab8"/><circle cx="1000.05" cy="796.84" r="5.26" style="fill:#8ceab8"/></g><circle cx="1084.46" cy="785.21" r="5.01" style="fill:#8ceab8;opacity:0.21"/><circle cx="1065.97" cy="794.22" r="5.01" style="fill:#8ceab8;opacity:0.21"/><circle cx="1104.64" cy="794.56" r="5.01" style="fill:#8ceab8;opacity:0.21"/><path d="M1968.7,626.3a57.07,57.07,0,0,0-113.15-10.55,57,57,0,0,0-46.19-2.17,41.62,41.62,0,0,0-80.92-5.26A57.07,57.07,0,0,0,1625.53,625c-1.47,1-2.9,2-4.27,3.06-12.37-25.4-37.6-42.8-66.72-42.8-36.28,0-66.53,27-73.37,62.86a52.76,52.76,0,0,0-24.83-6.21c-29.57,0-53.65,24.43-54.87,55a60,60,0,0,0-88.67,52.69c0,1.48.07,2.95.17,4.4a34.57,34.57,0,0,0-6.72-.67A34,34,0,1,0,1332,809.46h36.9c1.3.08,2.61.13,3.93.13s2.6-.05,3.88-.13H1404a56.17,56.17,0,0,0,57.55,0h45.93v.66h412.09V682.81A57.08,57.08,0,0,0,1968.7,626.3Zm-566.19,71a1.39,1.39,0,0,1-.06.19l-.34-.19Z" style="fill:#01594c"/><g style="opacity:0.14"><circle cx="1354.3" cy="733.11" r="5.01" style="fill:#8ceab8"/><circle cx="1383.61" cy="712.68" r="5.01" style="fill:#8ceab8"/><circle cx="1369.78" cy="756" r="5.01" style="fill:#8ceab8"/><circle cx="1349.29" cy="779.95" r="5.01" style="fill:#8ceab8"/><circle cx="1425.22" cy="713.54" r="5.01" style="fill:#8ceab8"/><circle cx="1456.05" cy="683.47" r="5.01" style="fill:#8ceab8"/><circle cx="1490.96" cy="707.68" r="5.01" style="fill:#8ceab8"/><circle cx="1524.76" cy="733.14" r="5.01" style="fill:#8ceab8"/><circle cx="1567.53" cy="685.36" r="5.01" style="fill:#8ceab8"/><circle cx="1526.39" cy="702.62" r="5.01" style="fill:#8ceab8"/><circle cx="1557.94" cy="714.56" r="5.01" style="fill:#8ceab8"/><circle cx="1456.05" cy="720.58" r="5.01" style="fill:#8ceab8"/><circle cx="1429.78" cy="758.82" r="5.01" style="fill:#8ceab8"/><circle cx="1456.05" cy="784.03" r="5.01" style="fill:#8ceab8"/><circle cx="1397.05" cy="744.58" r="5.01" style="fill:#8ceab8"/><circle cx="1303.24" cy="771.24" r="5.01" style="fill:#8ceab8"/><circle cx="1293.22" cy="789.04" r="5.01" style="fill:#8ceab8"/><circle cx="1328.73" cy="783.16" r="5.01" style="fill:#8ceab8"/><circle cx="1328.03" cy="737.4" r="5.01" style="fill:#8ceab8"/><circle cx="1406.96" cy="784.95" r="5.01" style="fill:#8ceab8"/><circle cx="1475.22" cy="755.99" r="5.01" style="fill:#8ceab8"/><circle cx="1605.71" cy="693.33" r="5.01" style="fill:#8ceab8"/><circle cx="1582.51" cy="613.06" r="5.26" style="fill:#8ceab8"/><circle cx="1527.92" cy="620.63" r="5.26" style="fill:#8ceab8"/><circle cx="1457.69" cy="657.76" r="5.26" style="fill:#8ceab8"/><circle cx="1481.57" cy="676.08" r="5.26" style="fill:#8ceab8"/><circle cx="1434.78" cy="681.34" r="5.26" style="fill:#8ceab8"/><circle cx="1583.71" cy="662.97" r="5.26" style="fill:#8ceab8"/><circle cx="1555.07" cy="649.63" r="5.26" style="fill:#8ceab8"/><circle cx="1522.66" cy="665.3" r="5.26" style="fill:#8ceab8"/><circle cx="1620.98" cy="654.89" r="5.26" style="fill:#8ceab8"/><circle cx="1654.61" cy="641.23" r="5.26" style="fill:#8ceab8"/><circle cx="1737.23" cy="654.89" r="5.26" style="fill:#8ceab8"/><circle cx="1709.91" cy="677.55" r="5.26" style="fill:#8ceab8"/><circle cx="1644.12" cy="682.66" r="5.26" style="fill:#8ceab8"/><circle cx="1807.29" cy="676.08" r="5.26" style="fill:#8ceab8"/><circle cx="1763.33" cy="687.92" r="5.26" style="fill:#8ceab8"/><circle cx="1645.71" cy="722.05" r="5.26" style="fill:#8ceab8"/><circle cx="1591.12" cy="729.62" r="5.26" style="fill:#8ceab8"/><circle cx="1520.89" cy="766.75" r="5.26" style="fill:#8ceab8"/><circle cx="1544.77" cy="785.07" r="5.26" style="fill:#8ceab8"/><circle cx="1497.98" cy="790.32" r="5.26" style="fill:#8ceab8"/><circle cx="1646.9" cy="771.96" r="5.26" style="fill:#8ceab8"/><circle cx="1618.26" cy="758.61" r="5.26" style="fill:#8ceab8"/><circle cx="1585.86" cy="774.28" r="5.26" style="fill:#8ceab8"/><circle cx="1684.18" cy="763.87" r="5.26" style="fill:#8ceab8"/><circle cx="1717.8" cy="750.22" r="5.26" style="fill:#8ceab8"/><circle cx="1800.43" cy="763.87" r="5.26" style="fill:#8ceab8"/><circle cx="1773.11" cy="786.54" r="5.26" style="fill:#8ceab8"/><circle cx="1707.32" cy="791.65" r="5.26" style="fill:#8ceab8"/><circle cx="1870.49" cy="785.07" r="5.26" style="fill:#8ceab8"/><circle cx="1826.53" cy="796.9" r="5.26" style="fill:#8ceab8"/></g><circle cx="1223.52" cy="766.75" r="5.01" style="fill:#8ceab8;opacity:0.21"/><circle cx="1250.07" cy="774.82" r="5.01" style="fill:#8ceab8;opacity:0.21"/><circle cx="1232.41" cy="792.8" r="5.01" style="fill:#8ceab8;opacity:0.21"/><circle cx="1193.05" cy="785.69" r="5.01" style="fill:#8ceab8;opacity:0.21"/><circle cx="1161.75" cy="792.8" r="5.01" style="fill:#8ceab8;opacity:0.21"/><circle cx="1140.89" cy="790.43" r="5.01" style="fill:#8ceab8;opacity:0.21"/><path d="M1618.7,760.91a31.52,31.52,0,0,0-61.7-9.1,33.65,33.65,0,0,0-50.3,29.25c0,.84,0,1.66.1,2.48a18.78,18.78,0,0,0-3.78-.38,19.06,19.06,0,1,0,18,25.42,33.69,33.69,0,0,0,33,3.29,31.52,31.52,0,0,0,51.61-24.29c0-.35,0-.69,0-1A31.47,31.47,0,0,0,1618.7,760.91Z" style="fill:#359d6a"/><circle cx="1528.86" cy="770.33" r="2.81" style="fill:#8ceab8"/><circle cx="1545.31" cy="758.87" r="2.81" style="fill:#8ceab8"/><circle cx="1537.55" cy="783.17" r="2.81" style="fill:#8ceab8"/><circle cx="1526.06" cy="796.6" r="2.81" style="fill:#8ceab8"/><circle cx="1574.02" cy="748.43" r="2.81" style="fill:#8ceab8"/><circle cx="1585.95" cy="742.48" r="2.81" style="fill:#8ceab8"/><circle cx="1605.54" cy="756.06" r="2.81" style="fill:#8ceab8"/><circle cx="1585.95" cy="763.29" r="2.81" style="fill:#8ceab8"/><circle cx="1571.21" cy="784.75" r="2.81" style="fill:#8ceab8"/><circle cx="1585.95" cy="798.89" r="2.81" style="fill:#8ceab8"/><circle cx="1552.85" cy="776.76" r="2.81" style="fill:#8ceab8"/><circle cx="1500.22" cy="791.72" r="2.81" style="fill:#8ceab8"/><circle cx="1494.6" cy="801.7" r="2.81" style="fill:#8ceab8"/><circle cx="1558.41" cy="799.41" r="2.81" style="fill:#8ceab8"/><circle cx="1596.71" cy="783.16" r="2.81" style="fill:#8ceab8"/><path d="M585.93,762.77a45,45,0,0,0-9.42,1c.06-.78.09-1.56.09-2.35A32.46,32.46,0,0,0,544.14,729a31.83,31.83,0,0,0-4.6.33c.06-1.18.09-2.36.09-3.55a76.63,76.63,0,0,0-129.5-55.5,56.55,56.55,0,1,0-109.94,26.48v83.84h4.33v28.82h236.7a44.75,44.75,0,1,0,44.71-46.61Z" style="fill:#01594c"/><g style="opacity:0.14"><circle cx="346.86" cy="692.55" r="5.01" style="fill:#8ceab8"/><circle cx="362.12" cy="654.11" r="5.26" style="fill:#8ceab8"/><circle cx="388.66" cy="650.38" r="5.26" style="fill:#8ceab8"/><circle cx="474.3" cy="668.26" r="5.26" style="fill:#8ceab8"/><circle cx="451.05" cy="676.78" r="5.26" style="fill:#8ceab8"/><circle cx="385.26" cy="681.89" r="5.26" style="fill:#8ceab8"/><circle cx="504.48" cy="687.14" r="5.26" style="fill:#8ceab8"/><circle cx="386.85" cy="721.27" r="5.26" style="fill:#8ceab8"/><circle cx="388.05" cy="771.18" r="5.26" style="fill:#8ceab8"/><circle cx="359.41" cy="757.84" r="5.26" style="fill:#8ceab8"/><circle cx="425.32" cy="763.1" r="5.26" style="fill:#8ceab8"/><circle cx="458.95" cy="749.44" r="5.26" style="fill:#8ceab8"/><circle cx="430.02" cy="709.05" r="5.26" style="fill:#8ceab8"/><circle cx="485" cy="715.62" r="5.26" style="fill:#8ceab8"/><circle cx="522.97" cy="730.02" r="5.26" style="fill:#8ceab8"/><circle cx="541.57" cy="763.1" r="5.26" style="fill:#8ceab8"/><circle cx="514.25" cy="785.76" r="5.26" style="fill:#8ceab8"/><circle cx="448.46" cy="790.87" r="5.26" style="fill:#8ceab8"/><circle cx="611.63" cy="784.29" r="5.26" style="fill:#8ceab8"/><circle cx="567.67" cy="796.13" r="5.26" style="fill:#8ceab8"/></g><path d="M48.08,731.49a41.36,41.36,0,0,1,8.68.92c0-.72-.09-1.44-.09-2.17a29.9,29.9,0,0,1,29.9-29.9,29.45,29.45,0,0,1,4.23.31c0-1.08-.08-2.17-.08-3.26A70.58,70.58,0,0,1,210,646.26a52.08,52.08,0,1,1,101.25,24.39v77.22h-4v26.55h-218a41.22,41.22,0,1,1-41.18-42.93Z" style="fill:#01594c"/><rect y="800" width="1920" height="100" style="fill:#08bfa9"/><path d="M315.48,769.88a26.35,26.35,0,0,1,51.58-7.61,28.15,28.15,0,0,1,42.06,24.46c0,.7,0,1.38-.09,2.07a15.68,15.68,0,0,1,3.16-.32,15.94,15.94,0,1,1-15,21.25,28.12,28.12,0,0,1-27.55,2.75,26.35,26.35,0,0,1-43.15-20.31c0-.29,0-.57,0-.86A26.32,26.32,0,0,1,315.48,769.88Z" style="fill:#ea5038"/><circle cx="383.22" cy="769.4" r="2.81" style="fill:#8ceab8"/><circle cx="356.43" cy="763.56" r="2.81" style="fill:#8ceab8"/><circle cx="374.54" cy="782.24" r="2.81" style="fill:#8ceab8"/><circle cx="386.03" cy="795.67" r="2.81" style="fill:#8ceab8"/><circle cx="340.88" cy="749.15" r="2.81" style="fill:#8ceab8"/><circle cx="340.88" cy="767.99" r="2.81" style="fill:#8ceab8"/><circle cx="328.95" cy="778.64" r="2.81" style="fill:#8ceab8"/><circle cx="326.14" cy="762.37" r="2.81" style="fill:#8ceab8"/><circle cx="340.88" cy="783.82" r="2.81" style="fill:#8ceab8"/><circle cx="359.24" cy="775.83" r="2.81" style="fill:#8ceab8"/><circle cx="406.25" cy="795.16" r="2.81" style="fill:#8ceab8"/><circle cx="417.49" cy="800.78" r="2.81" style="fill:#8ceab8"/><circle cx="353.68" cy="798.48" r="2.81" style="fill:#8ceab8"/><rect x="312.38" y="799.99" width="124.38" height="24.14" style="fill:#08bfa9"/><path d="M1653.59,748.22a26.35,26.35,0,0,1,51.58-7.61,28.15,28.15,0,0,1,42.06,24.46c0,.7,0,1.38-.08,2.07a15.58,15.58,0,0,1,3.15-.32,15.94,15.94,0,1,1-15,21.25,28.12,28.12,0,0,1-27.55,2.75,26.35,26.35,0,0,1-43.15-20.3c0-.29,0-.58,0-.87A26.31,26.31,0,0,1,1653.59,748.22Z" style="fill:#ea5038"/><circle cx="1721.34" cy="747.74" r="2.81" style="fill:#8ceab8"/><circle cx="1694.54" cy="741.9" r="2.81" style="fill:#8ceab8"/><circle cx="1712.65" cy="760.58" r="2.81" style="fill:#8ceab8"/><circle cx="1724.14" cy="774.02" r="2.81" style="fill:#8ceab8"/><circle cx="1678.99" cy="727.49" r="2.81" style="fill:#8ceab8"/><circle cx="1678.99" cy="746.33" r="2.81" style="fill:#8ceab8"/><circle cx="1667.06" cy="756.98" r="2.81" style="fill:#8ceab8"/><circle cx="1664.25" cy="740.71" r="2.81" style="fill:#8ceab8"/><circle cx="1678.99" cy="762.16" r="2.81" style="fill:#8ceab8"/><circle cx="1697.35" cy="754.17" r="2.81" style="fill:#8ceab8"/><circle cx="1744.37" cy="773.5" r="2.81" style="fill:#8ceab8"/><circle cx="1755.6" cy="779.12" r="2.81" style="fill:#8ceab8"/><circle cx="1691.79" cy="776.83" r="2.81" style="fill:#8ceab8"/><path d="M561.18,865.35V842.71L567.1,854l5.23-19s7.31,25.42,7,24.38c-.21-.65.79-4.84,1.57-7.88.48-1.84.87-3.26.87-3.26l2.09,4.17s3.13-12.88,3.48-11.84S590.09,857,590.09,857l7-6.79-3.13,15.15s-2.09,4.88-5.92,4.88H567.1S561.18,869.53,561.18,865.35Z" style="fill:#0f8779"/><rect x="435.88" y="870.18" width="36.35" height="1" style="fill:#0f8779"/><rect x="493.39" y="870.18" width="136.94" height="1" style="fill:#0f8779"/><rect x="477.46" y="870.18" width="9.26" height="1" style="fill:#0f8779"/><rect x="635.72" y="870.18" width="118.77" height="1" style="fill:#0f8779"/><rect x="771.58" y="870.18" width="30.26" height="1" style="fill:#0f8779"/><rect x="39.38" y="870.18" width="36.35" height="1" style="fill:#0f8779"/><rect x="96.9" y="870.18" width="136.94" height="1" style="fill:#0f8779"/><rect x="80.97" y="870.18" width="9.26" height="1" style="fill:#0f8779"/><rect x="239.23" y="870.18" width="118.77" height="1" style="fill:#0f8779"/><rect x="375.09" y="870.18" width="30.26" height="1" style="fill:#0f8779"/><rect x="604.19" y="878.21" width="118.77" height="1" style="fill:#0f8779"/><rect x="556.83" y="878.21" width="30.26" height="1" style="fill:#0f8779"/><path d="M207.22,422.15s-1.54-17.58,26.53-13.88C233.75,408.27,224.81,432.64,207.22,422.15Z" style="fill:#1c3f2b"/><path d="M207.22,390.38s-1.54-17.59,26.53-13.88C233.75,376.5,224.81,400.87,207.22,390.38Z" style="fill:#1c3f2b"/><path d="M207.22,459.17s-1.54-17.58,26.53-13.88C233.75,445.29,224.81,469.66,207.22,459.17Z" style="fill:#1c3f2b"/><path d="M207.19,459.17s1.54-17.58-26.53-13.88C180.66,445.29,189.61,469.66,207.19,459.17Z" style="fill:#1c3f2b"/><path d="M102.62,436.86s1.55,17.59-26.53,13.89C76.09,450.75,85,426.37,102.62,436.86Z" style="fill:#1c3f2b"/><path d="M102.65,436.86s-1.54,17.59,26.53,13.89C129.18,450.75,120.24,426.37,102.65,436.86Z" style="fill:#1c3f2b"/><path d="M102.62,410.38s1.55,17.59-26.53,13.88C76.09,424.26,85,399.89,102.62,410.38Z" style="fill:#1c3f2b"/><path d="M102.65,410.38s-1.54,17.59,26.53,13.88C129.18,424.26,120.24,399.89,102.65,410.38Z" style="fill:#1c3f2b"/><path d="M102.62,378.6s1.55,17.59-26.53,13.89C76.09,392.49,85,368.12,102.62,378.6Z" style="fill:#1c3f2b"/><path d="M102.65,378.6s-1.54,17.59,26.53,13.89C129.18,392.49,120.24,368.12,102.65,378.6Z" style="fill:#1c3f2b"/><path d="M195.59,492.66s8.74-15.34,29.71,3.68C225.3,496.34,204.08,511.29,195.59,492.66Z" style="fill:#1c3f2b"/><path d="M195.56,492.64s11.28-13.58-13.91-26.51C181.65,466.13,175.13,491.26,195.56,492.64Z" style="fill:#1c3f2b"/><path d="M165.8,507.66s15.89-7.71,22.43,19.84C188.23,527.5,162.27,527.83,165.8,507.66Z" style="fill:#1c3f2b"/><path d="M165.79,507.63s17-4.82,3.52-29.74C169.31,477.89,149.73,494.94,165.79,507.63Z" style="fill:#1c3f2b"/><path d="M125.24,503.33s16,7.42-1.17,29.92C124.07,533.25,107.39,513.35,125.24,503.33Z" style="fill:#1c3f2b"/><path d="M125.26,503.3s14.48,10.1,25.25-16.09C150.51,487.21,124.92,482.83,125.26,503.3Z" style="fill:#1c3f2b"/><path d="M103.69,470.14s4.15,17.16-24.16,17.7C79.53,487.84,84.73,462.41,103.69,470.14Z" style="fill:#1c3f2b"/><path d="M103.72,470.14s1.1,17.62,28.31,9.75C132,479.89,119.53,457.13,103.72,470.14Z" style="fill:#1c3f2b"/><path d="M207.19,422.15s1.54-17.58-26.53-13.88C180.66,408.27,189.61,432.64,207.19,422.15Z" style="fill:#1c3f2b"/><path d="M207.19,390.38s1.54-17.59-26.53-13.88C180.66,376.5,189.61,400.87,207.19,390.38Z" style="fill:#1c3f2b"/><path d="M154.92,514.66a53.84,53.84,0,0,1-53.78-53.78V240.73h3V460.88a50.79,50.79,0,0,0,101.57,0V240.73h3V460.88A53.84,53.84,0,0,1,154.92,514.66Z" style="fill:#1c3f2b"/><path d="M382.05,359.32a11.5,11.5,0,0,0-11.5,11.5v85.91a26,26,0,0,1-26,26h-7.87V368.17H248.27V436.3H237.93a26.05,26.05,0,0,1-26-26V324.37a11.5,11.5,0,0,0-23,0v85.91a49.08,49.08,0,0,0,49,49h10.34V815.43h88.39V505.75h7.87a49.08,49.08,0,0,0,49-49V370.82A11.5,11.5,0,0,0,382.05,359.32Z" style="fill:#6d382f"/><g style="clip-path:url(#ad123bd4-1e9b-41bf-a151-2e5e79e0fd7e)"><path d="M550.39,156.2A83,83,0,0,0,497,78.66,83,83,0,0,0,414.05-3a84,84,0,0,0-14.72,1.3,214.5,214.5,0,0,0-299,23.48A83,83,0,0,0,6.94,137.15,99.63,99.63,0,0,0,17.05,275.43,99.69,99.69,0,0,0,131.51,403.59a78.11,78.11,0,0,0,113.58,16.22A78.08,78.08,0,0,0,362.36,417a112.44,112.44,0,0,0,16.93,1.28,111.1,111.1,0,0,0,111.1-111.1c0-2.32-.08-4.62-.22-6.9a83.06,83.06,0,0,0,24.45-75.84A82.89,82.89,0,0,0,550.39,156.2Z" style="fill:#3a1510"/></g><path d="M594,107.6a86.72,86.72,0,0,0-55.76-81,86.78,86.78,0,0,0-102.07-84A224.12,224.12,0,0,0,123.71-32.85,86.75,86.75,0,0,0,26.13,87.69,104.11,104.11,0,0,0,36.69,232.18a104.18,104.18,0,0,0,119.6,133.91A81.58,81.58,0,0,0,275,383a81.58,81.58,0,0,0,122.53-2.93,117.3,117.3,0,0,0,17.69,1.34A116.09,116.09,0,0,0,531.27,265.35c0-2.42-.09-4.82-.23-7.21a86.75,86.75,0,0,0,25.54-79.24A86.6,86.6,0,0,0,594,107.6Z" style="fill:#359d6a"/><g style="opacity:0.39"><rect x="293.44" y="843.57" width="36.35" height="1" transform="translate(-535.74 1146.63) rotate(-89.39)" style="fill:#895952"/><rect x="244.3" y="735.77" width="136.94" height="1" transform="translate(-426.8 1041.14) rotate(-89.39)" style="fill:#895952"/><rect x="307.29" y="815.53" width="9.26" height="1" transform="matrix(0.01, -1, 1, 0.01, -507.41, 1119.19)" style="fill:#895952"/><rect x="254.82" y="602.53" width="118.77" height="1" transform="translate(-292.16 910.75) rotate(-89.39)" style="fill:#895952"/><rect x="300.06" y="510.93" width="30.26" height="1" transform="translate(-199.59 821.12) rotate(-89.39)" style="fill:#895952"/><rect x="262.52" y="634.15" width="118.77" height="1" transform="translate(-316.16 949.73) rotate(-89.39)" style="fill:#895952"/><rect x="305.79" y="725.75" width="30.26" height="1" transform="translate(-408.73 1039.37) rotate(-89.39)" style="fill:#895952"/><rect x="251.75" y="748.66" width="36.35" height="1" transform="translate(-482.09 1011.04) rotate(-89.39)" style="fill:#895952"/><rect x="202.61" y="640.86" width="136.94" height="1" transform="translate(-373.15 905.55) rotate(-89.39)" style="fill:#895952"/><rect x="265.59" y="720.63" width="9.26" height="1" transform="translate(-453.76 983.61) rotate(-89.39)" style="fill:#895952"/><rect x="213.12" y="507.63" width="118.77" height="1" transform="translate(-238.51 775.17) rotate(-89.39)" style="fill:#895952"/><rect x="258.36" y="416.02" width="30.26" height="1" transform="translate(-145.94 685.53) rotate(-89.39)" style="fill:#895952"/><rect x="273.35" y="792.56" width="36.35" height="1" transform="translate(-504.61 1076.08) rotate(-89.39)" style="fill:#895952"/><rect x="224.21" y="684.76" width="136.94" height="1" transform="translate(-395.67 970.59) rotate(-89.39)" style="fill:#895952"/><rect x="287.2" y="764.53" width="9.26" height="1" transform="translate(-476.28 1048.64) rotate(-89.39)" style="fill:#895952"/><rect x="234.73" y="551.53" width="118.77" height="1" transform="translate(-261.03 840.21) rotate(-89.39)" style="fill:#895952"/><rect x="279.97" y="459.92" width="30.26" height="1" transform="translate(-168.46 750.57) rotate(-89.39)" style="fill:#895952"/></g><path d="M456.29,311.35c-5.5-4.89-5.72-13.12-5.73-13.46v-.36h.35c15.65-.24,17.8,16.6,17.82,16.77l0,.36-.36,0a21.47,21.47,0,0,1-2.23.11A14.35,14.35,0,0,1,456.29,311.35Zm-5-13.12c.11,1.64.84,8.48,5.48,12.59,2.82,2.51,6.59,3.58,11.2,3.2C467.57,311.63,464.71,298.26,451.29,298.23Z" style="fill:#f68c4d"/><path d="M105.57,256.88c-5.51-4.89-5.72-13.12-5.73-13.47v-.35h.36c15.65-.24,17.8,16.6,17.82,16.77l0,.36-.36,0c-.77.07-1.51.11-2.24.11A14.34,14.34,0,0,1,105.57,256.88Zm-5-13.12c.11,1.64.84,8.47,5.47,12.59,2.83,2.51,6.59,3.58,11.2,3.2C116.84,257.16,114,243.79,100.57,243.76Z" style="fill:#f68c4d"/><path d="M423.52,250.26c-5.9,4.41-14,3-14.34,2.91l-.36-.07.07-.35c2.9-15.37,19.84-14.1,20-14.08l.36,0,0,.36a21.71,21.71,0,0,1-.34,2.21A14.4,14.4,0,0,1,423.52,250.26Zm-13.86,2.26c1.63.23,8.47.89,13.44-2.83,3-2.26,4.82-5.74,5.37-10.33C426.05,239.27,412.39,239.38,409.66,252.52Z" style="fill:#f68c4d"/><path d="M210.83,267.77c-5.5-4.89-5.72-13.12-5.73-13.47v-.36h.36c15.65-.24,17.8,16.6,17.82,16.77l0,.36-.36,0c-.77.07-1.51.11-2.23.11A14.39,14.39,0,0,1,210.83,267.77Zm-5-13.12c.11,1.64.84,8.47,5.48,12.59,2.82,2.5,6.58,3.58,11.2,3.19C222.1,268.05,219.25,254.68,205.83,254.65Z" style="fill:#f68c4d"/><path d="M450.61,325.56l-.34-.12.13-.33c4.32-11.56,17.32-8.3,17.45-8.27l.35.09-.09.35c-1.08,3.81-3.08,6.49-6,8a12.72,12.72,0,0,1-5.8,1.29A17.69,17.69,0,0,1,450.61,325.56Zm.58-.55c1.35.42,6.41,1.74,10.64-.41a11.22,11.22,0,0,0,5.49-7.16C465.24,317,455.06,315.35,451.19,325Z" style="fill:#f68c4d"/><path d="M393.49,236.55l0-.35.35,0c12.25,1.55,12.07,14.95,12.07,15.09v.36h-.36c-4-.17-7-1.5-9.11-4a12.71,12.71,0,0,1-2.59-5.35A17.91,17.91,0,0,1,393.49,236.55Zm.67.45c-.1,1.41-.22,6.63,2.85,10.25,1.89,2.23,4.66,3.47,8.23,3.7C405.19,248.82,404.45,238.54,394.16,237Z" style="fill:#f68c4d"/><path d="M296.49,293.15l-.35,0,.05-.36c2-12.18,15.36-11.55,15.49-11.54l.36,0,0,.36c-.31,3.95-1.74,7-4.27,9a12.71,12.71,0,0,1-5.44,2.41A18,18,0,0,1,296.49,293.15Zm.47-.66c1.4.15,6.62.45,10.35-2.5,2.29-1.81,3.62-4.53,4-8.09C309.15,281.87,298.85,282.26,297,292.49Z" style="fill:#f68c4d"/><path d="M88.1,333.24l-.33-.13.12-.33c4.33-11.56,17.33-8.3,17.46-8.27l.35.1-.1.34c-1.07,3.82-3.07,6.49-5.95,7.95a12.73,12.73,0,0,1-5.8,1.3A18,18,0,0,1,88.1,333.24Zm.59-.56c1.35.42,6.4,1.75,10.64-.41,2.6-1.32,4.44-3.73,5.48-7.15C102.74,324.67,92.56,323,88.69,332.68Z" style="fill:#f68c4d"/><path d="M481.53,241.5s1.42-30.13-26.06-34.26C455.47,207.24,450.74,239.48,481.53,241.5Z" style="fill:#01594c"/><path d="M96.72,237.23s1.25-26.37-22.81-30C73.91,207.24,69.77,235.47,96.72,237.23Z" style="fill:#01594c"/><path d="M364.81,295s-2.51-21.33-22.3-21C342.51,273.94,343,297.14,364.81,295Z" style="fill:#01594c"/><path d="M287.1,240.81s22.56-9.38,16.08-30.94C303.18,209.87,277.93,217.56,287.1,240.81Z" style="fill:#01594c"/><path d="M146.37,303.33s7.89,23.13,29.82,18.06C176.19,321.39,170.16,295.69,146.37,303.33Z" style="fill:#01594c"/><path d="M146.37,299.1s19.16.86,21.74-16.63C168.11,282.47,147.6,279.51,146.37,299.1Z" style="fill:#01594c"/><path d="M366.47,295.11s18.67-7.76,13.3-25.6C379.77,269.51,358.88,275.87,366.47,295.11Z" style="fill:#01594c"/><path d="M228.65,263.93s5.43-19.43,0-20C221.75,243.27,228.65,263.93,228.65,263.93Z" style="fill:#faa32f"/><path d="M228.65,263.93s-4.75-21.09-9.86-17.47C214.47,249.51,228.65,263.93,228.65,263.93Z" style="fill:#faa32f"/><path d="M228.65,263.93s4.93-22.05,9.86-15.81S228.65,263.93,228.65,263.93Z" style="fill:#faa32f"/><path d="M257.61,346.05s5.75-20.55,0-21.12C250.31,324.2,257.61,346.05,257.61,346.05Z" style="fill:#faa32f"/><path d="M257.61,346.05s-5-22.31-10.43-18.48C242.62,330.8,257.61,346.05,257.61,346.05Z" style="fill:#faa32f"/><path d="M257.61,346.05s5.22-23.32,10.43-16.72S257.61,346.05,257.61,346.05Z" style="fill:#faa32f"/><path d="M85.87,324.91s5.43-19.43,0-20C79,304.26,85.87,324.91,85.87,324.91Z" style="fill:#faa32f"/><path d="M85.87,324.91S81.12,303.82,76,307.44C71.69,310.49,85.87,324.91,85.87,324.91Z" style="fill:#faa32f"/><path d="M85.87,324.91s4.93-22.05,9.86-15.81S85.87,324.91,85.87,324.91Z" style="fill:#faa32f"/><path d="M416.63,235.34s5.43-19.43,0-20C409.72,214.68,416.63,235.34,416.63,235.34Z" style="fill:#faa32f"/><path d="M416.63,235.34s-4.75-21.1-9.87-17.48C402.45,220.91,416.63,235.34,416.63,235.34Z" style="fill:#faa32f"/><path d="M416.63,235.34s4.93-22.05,9.86-15.81S416.63,235.34,416.63,235.34Z" style="fill:#faa32f"/><path d="M476.29,317.05s13.41-15.06,8.77-17.93C479.16,295.47,476.29,317.05,476.29,317.05Z" style="fill:#faa32f"/><path d="M476.29,317.05s5-21-1.19-20C469.89,297.87,476.29,317.05,476.29,317.05Z" style="fill:#faa32f"/><path d="M476.29,317.05s14.11-17.64,15.8-9.87S476.29,317.05,476.29,317.05Z" style="fill:#faa32f"/><path d="M456.29,120.24c-5.5-4.89-5.72-13.12-5.73-13.47v-.36h.35c15.65-.25,17.8,16.6,17.82,16.77l0,.36-.36,0a21.54,21.54,0,0,1-2.23.12A14.39,14.39,0,0,1,456.29,120.24Zm-5-13.12c.11,1.63.84,8.47,5.48,12.59,2.82,2.5,6.59,3.58,11.2,3.19C467.57,120.52,464.71,107.15,451.29,107.12Z" style="fill:#f68c4d"/><path d="M105.57,65.77c-5.51-4.9-5.72-13.12-5.73-13.47v-.36h.36c15.65-.25,17.8,16.6,17.82,16.77l0,.36-.36,0a21.58,21.58,0,0,1-2.24.12A14.39,14.39,0,0,1,105.57,65.77Zm-5-13.12c.11,1.63.84,8.47,5.47,12.59,2.83,2.5,6.59,3.57,11.2,3.19C116.84,66,114,52.68,100.57,52.65Z" style="fill:#f68c4d"/><path d="M423.52,59.14c-5.9,4.42-14,3-14.34,2.91l-.36-.06.07-.35c2.9-15.38,19.84-14.1,20-14.09l.36,0,0,.36a21.29,21.29,0,0,1-.34,2.21A14.38,14.38,0,0,1,423.52,59.14Zm-13.86,2.27c1.63.22,8.47.88,13.44-2.84,3-2.26,4.82-5.73,5.37-10.33C426.05,48.16,412.39,48.27,409.66,61.41Z" style="fill:#f68c4d"/><path d="M210.83,76.65c-5.5-4.89-5.72-13.12-5.73-13.46v-.36h.36c15.65-.24,17.8,16.61,17.82,16.78l0,.36L223,80a21.54,21.54,0,0,1-2.23.12A14.35,14.35,0,0,1,210.83,76.65Zm-5-13.12c.11,1.64.84,8.48,5.48,12.59,2.82,2.51,6.58,3.58,11.2,3.2C222.1,76.93,219.25,63.56,205.83,63.53Z" style="fill:#f68c4d"/><path d="M450.61,134.45l-.34-.12.13-.34c4.32-11.56,17.32-8.3,17.45-8.26l.35.09-.09.35c-1.08,3.81-3.08,6.48-6,8a12.72,12.72,0,0,1-5.8,1.29A18,18,0,0,1,450.61,134.45Zm.58-.55c1.35.41,6.41,1.74,10.64-.42,2.6-1.32,4.45-3.73,5.49-7.15C465.24,125.88,455.06,124.24,451.19,133.9Z" style="fill:#f68c4d"/><path d="M393.49,45.44l0-.36.35.05C406.13,46.68,406,60.08,406,60.21v.37l-.36,0c-4-.17-7-1.5-9.11-4a12.82,12.82,0,0,1-2.59-5.35A17.91,17.91,0,0,1,393.49,45.44Zm.67.44c-.1,1.41-.22,6.64,2.85,10.26,1.89,2.23,4.66,3.47,8.23,3.69C405.19,57.71,404.45,47.42,394.16,45.88Z" style="fill:#f68c4d"/><path d="M296.49,102l-.35-.06.05-.35c2-12.19,15.36-11.55,15.49-11.54l.36,0,0,.36c-.31,4-1.74,7-4.27,9a12.71,12.71,0,0,1-5.44,2.41A18.47,18.47,0,0,1,296.49,102Zm.47-.66c1.4.14,6.62.45,10.35-2.5,2.29-1.81,3.62-4.54,4-8.1C309.15,90.75,298.85,91.15,297,101.38Z" style="fill:#f68c4d"/><path d="M88.1,142.12l-.33-.12.12-.33c4.33-11.56,17.33-8.31,17.46-8.27l.35.09-.1.35c-1.07,3.81-3.07,6.49-5.95,7.95a12.72,12.72,0,0,1-5.8,1.29A18,18,0,0,1,88.1,142.12Zm.59-.55c1.35.42,6.4,1.74,10.64-.41,2.6-1.33,4.44-3.73,5.48-7.16C102.74,133.56,92.56,131.91,88.69,141.57Z" style="fill:#f68c4d"/><path d="M481.53,50.38S483,20.26,455.47,16.13C455.47,16.13,450.74,48.37,481.53,50.38Z" style="fill:#01594c"/><path d="M96.72,46.12s1.25-26.38-22.81-30C73.91,16.13,69.77,44.35,96.72,46.12Z" style="fill:#01594c"/><path d="M364.81,103.85s-2.51-21.33-22.3-21C342.51,82.83,343,106,364.81,103.85Z" style="fill:#01594c"/><path d="M287.1,49.7s22.56-9.38,16.08-30.94C303.18,18.76,277.93,26.45,287.1,49.7Z" style="fill:#01594c"/><path d="M146.37,112.22s7.89,23.12,29.82,18.06C176.19,130.28,170.16,104.58,146.37,112.22Z" style="fill:#01594c"/><path d="M146.37,108s19.16.85,21.74-16.63C168.11,91.36,147.6,88.4,146.37,108Z" style="fill:#01594c"/><path d="M366.47,104s18.67-7.76,13.3-25.59C379.77,78.4,358.88,84.76,366.47,104Z" style="fill:#01594c"/><path d="M228.65,72.81s5.43-19.42,0-20C221.75,52.16,228.65,72.81,228.65,72.81Z" style="fill:#faa32f"/><path d="M228.65,72.81s-4.75-21.09-9.86-17.47C214.47,58.39,228.65,72.81,228.65,72.81Z" style="fill:#faa32f"/><path d="M228.65,72.81s4.93-22,9.86-15.8S228.65,72.81,228.65,72.81Z" style="fill:#faa32f"/><path d="M257.61,154.94s5.75-20.55,0-21.13C250.31,133.09,257.61,154.94,257.61,154.94Z" style="fill:#faa32f"/><path d="M257.61,154.94s-5-22.31-10.43-18.49C242.62,139.68,257.61,154.94,257.61,154.94Z" style="fill:#faa32f"/><path d="M257.61,154.94s5.22-23.33,10.43-16.73S257.61,154.94,257.61,154.94Z" style="fill:#faa32f"/><path d="M85.87,133.8s5.43-19.43,0-20C79,113.14,85.87,133.8,85.87,133.8Z" style="fill:#faa32f"/><path d="M85.87,133.8S81.12,112.71,76,116.32C71.69,119.38,85.87,133.8,85.87,133.8Z" style="fill:#faa32f"/><path d="M85.87,133.8S90.8,111.75,95.73,118,85.87,133.8,85.87,133.8Z" style="fill:#faa32f"/><path d="M416.63,44.22s5.43-19.43,0-20C409.72,23.57,416.63,44.22,416.63,44.22Z" style="fill:#faa32f"/><path d="M416.63,44.22s-4.75-21.09-9.87-17.47C402.45,29.8,416.63,44.22,416.63,44.22Z" style="fill:#faa32f"/><path d="M416.63,44.22s4.93-22,9.86-15.81S416.63,44.22,416.63,44.22Z" style="fill:#faa32f"/><path d="M476.29,125.94s13.41-15.07,8.77-17.94C479.16,104.35,476.29,125.94,476.29,125.94Z" style="fill:#faa32f"/><path d="M476.29,125.94s5-21-1.19-20C469.89,106.76,476.29,125.94,476.29,125.94Z" style="fill:#faa32f"/><path d="M476.29,125.94s14.11-17.64,15.8-9.87S476.29,125.94,476.29,125.94Z" style="fill:#faa32f"/><g style="opacity:0.13"><circle cx="236.12" cy="639.19" r="5.26" style="fill:#8ceab8"/><circle cx="236.83" cy="672.51" r="5.26" style="fill:#8ceab8"/><circle cx="209.18" cy="692.36" r="5.26" style="fill:#8ceab8"/><circle cx="232.57" cy="717.88" r="5.26" style="fill:#8ceab8"/><circle cx="187.2" cy="713.63" r="5.26" style="fill:#8ceab8"/><circle cx="151.76" cy="729.93" r="5.26" style="fill:#8ceab8"/><circle cx="191.46" cy="747.65" r="5.26" style="fill:#8ceab8"/><circle cx="126.24" cy="706.54" r="5.26" style="fill:#8ceab8"/><circle cx="142.55" cy="649.83" r="5.26" style="fill:#8ceab8"/><circle cx="174.44" cy="673.93" r="5.26" style="fill:#8ceab8"/><circle cx="154.6" cy="694.49" r="5.26" style="fill:#8ceab8"/><circle cx="108.52" cy="676.06" r="5.26" style="fill:#8ceab8"/><circle cx="94.34" cy="712.21" r="5.26" style="fill:#8ceab8"/></g><path d="M0,900H158.5l.26.37H441.28a68.62,68.62,0,0,0-100.4-58.11A99.6,99.6,0,0,0,179.7,766.43a68.34,68.34,0,0,0-28.9-13,68.57,68.57,0,0,0-73.29-41.67,91.18,91.18,0,0,0-79-67.93V887C-1.17,895.06-.68,900,0,900Z" style="fill:#1c3f2b"/><circle cx="165.72" cy="807.46" r="5.26" style="fill:#e5422c"/><circle cx="111.13" cy="815.03" r="5.26" style="fill:#e5422c"/><circle cx="166.92" cy="857.37" r="5.26" style="fill:#e5422c"/><circle cx="138.28" cy="844.03" r="5.26" style="fill:#e5422c"/><circle cx="105.87" cy="859.7" r="5.26" style="fill:#e5422c"/><circle cx="204.19" cy="849.29" r="5.26" style="fill:#e5422c"/><circle cx="237.82" cy="835.64" r="5.26" style="fill:#e5422c"/><circle cx="270.69" cy="791.2" r="5.26" style="fill:#e5422c"/><circle cx="212.57" cy="780.13" r="5.26" style="fill:#e5422c"/><circle cx="291.45" cy="823.03" r="5.26" style="fill:#e5422c"/><circle cx="78.35" cy="760.76" r="5.26" style="fill:#e5422c"/><circle cx="128.16" cy="769.34" r="5.26" style="fill:#e5422c"/><circle cx="36.83" cy="716.48" r="5.26" style="fill:#e5422c"/><circle cx="23" cy="777.37" r="5.26" style="fill:#e5422c"/><circle cx="78.35" cy="806.43" r="5.26" style="fill:#e5422c"/><circle cx="25.76" cy="852.09" r="5.26" style="fill:#e5422c"/><circle cx="60.36" cy="863.16" r="5.26" style="fill:#e5422c"/><circle cx="43.75" cy="806.43" r="5.26" style="fill:#e5422c"/><circle cx="320.44" cy="849.29" r="5.26" style="fill:#e5422c"/><circle cx="293.12" cy="871.95" r="5.26" style="fill:#e5422c"/><circle cx="227.33" cy="877.06" r="5.26" style="fill:#e5422c"/><circle cx="390.5" cy="870.48" r="5.26" style="fill:#e5422c"/><circle cx="346.54" cy="882.32" r="5.26" style="fill:#e5422c"/><path d="M602,61.23s-1.54-17.59,26.54-13.89C628.54,47.34,619.59,71.72,602,61.23Z" style="fill:#1c3f2b"/><path d="M602,29.45s-1.54-17.59,26.54-13.88C628.54,15.57,619.59,39.94,602,29.45Z" style="fill:#1c3f2b"/><path d="M602,98.25s-1.54-17.59,26.54-13.89C628.54,84.36,619.59,108.74,602,98.25Z" style="fill:#1c3f2b"/><path d="M602,98.25s1.55-17.59-26.53-13.89C575.44,84.36,584.39,108.74,602,98.25Z" style="fill:#1c3f2b"/><path d="M497.41,75.94S499,93.52,470.87,89.82C470.87,89.82,479.82,65.45,497.41,75.94Z" style="fill:#1c3f2b"/><path d="M497.44,75.94S495.89,93.52,524,89.82C524,89.82,515,65.45,497.44,75.94Z" style="fill:#1c3f2b"/><path d="M497.41,49.45S499,67,470.87,63.34C470.87,63.34,479.82,39,497.41,49.45Z" style="fill:#1c3f2b"/><path d="M497.44,49.45S495.89,67,524,63.34C524,63.34,515,39,497.44,49.45Z" style="fill:#1c3f2b"/><path d="M497.41,17.68S499,35.26,470.87,31.56C470.87,31.56,479.82,7.19,497.41,17.68Z" style="fill:#1c3f2b"/><path d="M497.44,17.68S495.89,35.26,524,31.56C524,31.56,515,7.19,497.44,17.68Z" style="fill:#1c3f2b"/><path d="M590.37,131.73s8.74-15.34,29.72,3.68C620.09,135.41,598.86,150.36,590.37,131.73Z" style="fill:#1c3f2b"/><path d="M590.35,131.71s11.27-13.58-13.92-26.51C576.43,105.2,569.92,130.33,590.35,131.71Z" style="fill:#1c3f2b"/><path d="M560.59,146.73S576.47,139,583,166.57C583,166.57,557.05,166.9,560.59,146.73Z" style="fill:#1c3f2b"/><path d="M560.58,146.7s17-4.82,3.51-29.73C564.09,117,544.51,134,560.58,146.7Z" style="fill:#1c3f2b"/><path d="M520,142.4s16,7.42-1.18,29.92C518.85,172.32,502.17,152.42,520,142.4Z" style="fill:#1c3f2b"/><path d="M520,142.37s14.48,10.1,25.25-16.09C545.29,126.28,519.71,121.9,520,142.37Z" style="fill:#1c3f2b"/><path d="M498.47,109.22s4.16,17.15-24.15,17.7C474.32,126.92,479.51,101.48,498.47,109.22Z" style="fill:#1c3f2b"/><path d="M498.5,109.21s1.11,17.62,28.31,9.75C526.81,119,514.31,96.21,498.5,109.21Z" style="fill:#1c3f2b"/><path d="M602,61.23s1.55-17.59-26.53-13.89C575.44,47.34,584.39,71.72,602,61.23Z" style="fill:#1c3f2b"/><path d="M602,29.45s1.55-17.59-26.53-13.88C575.44,15.57,584.39,39.94,602,29.45Z" style="fill:#1c3f2b"/><path d="M600.49-6.12V100a50.79,50.79,0,1,1-101.57,0V-6.12h-3V100a53.79,53.79,0,1,0,107.57,0V-6.12Z" style="fill:#1c3f2b"/><g style="opacity:0.65"><path d="M180.64,816.08a59,59,0,0,0-18.8,9.8c-1.06.82-2.58,1.79-2.28,3.36.26,1.33,1.82,2.26,3,2.68,2.81,1,6,0,8.57-1.13a48,48,0,0,0,10.62-6.67L180,822.75a61.31,61.31,0,0,0-4.5,11.9c-.61,2.74-1.73,8.08,2.3,8.74s5.46-4,6.31-6.92a45.6,45.6,0,0,0,1.74-13.09l-2.21.3A36.78,36.78,0,0,0,187,834.27c1.4,2.54,4.22,4.81,7.3,3.91,2.71-.79,4-3.81,3.63-6.45-.44-3.29-3.08-5.79-5.44-7.88a51,51,0,0,0-10.39-7.07c-1.29-.66-2.43,1.28-1.14,1.94a47.83,47.83,0,0,1,9.27,6.15c2.31,2,5.82,4.75,5.51,8.15a3.24,3.24,0,0,1-2.22,3c-1.79.41-3.4-1-4.28-2.42-1.93-3.06-2.81-7-3.49-10.56-.25-1.26-2.22-1-2.21.3a42.93,42.93,0,0,1-1,10,38.19,38.19,0,0,1-1.41,4.91c-.45,1.22-1.2,2.9-2.73,2.92-2.71,0-.64-6.61-.25-7.94a69.28,69.28,0,0,1,3.76-9.36,1.13,1.13,0,0,0-1.77-1.36,46.94,46.94,0,0,1-9.57,6A15.15,15.15,0,0,1,166,830c-.69.07-4.52-.11-3.94-1.41.1-.22.74-.62.92-.76l1.12-.87c.75-.55,1.5-1.09,2.27-1.6,1.48-1,3-1.92,4.57-2.78a56.31,56.31,0,0,1,10.35-4.36c1.38-.43.79-2.61-.6-2.17Z" style="fill:#9ac485"/><path d="M234,787a59.5,59.5,0,0,0-18.81,9.8c-1.06.83-2.57,1.8-2.27,3.36.25,1.34,1.81,2.27,3,2.69,2.81,1,6,0,8.57-1.14A47.09,47.09,0,0,0,235.09,795l-1.77-1.36a61.27,61.27,0,0,0-4.49,11.9c-.62,2.74-1.74,8.08,2.3,8.74s5.45-4,6.3-6.92a45.6,45.6,0,0,0,1.74-13.09l-2.21.3a37.09,37.09,0,0,0,3.42,10.59c1.4,2.54,4.22,4.81,7.3,3.91,2.71-.79,4-3.81,3.63-6.45-.44-3.29-3.08-5.79-5.44-7.88a49.89,49.89,0,0,0-10.39-7.07c-1.29-.66-2.43,1.28-1.14,1.94a48.25,48.25,0,0,1,9.27,6.14c2.31,2,5.82,4.75,5.51,8.16a3.23,3.23,0,0,1-2.22,3c-1.79.41-3.4-1-4.28-2.42-1.93-3.06-2.8-7-3.49-10.56-.24-1.26-2.22-1-2.21.3a42.93,42.93,0,0,1-1,10,38.19,38.19,0,0,1-1.41,4.91c-.45,1.22-1.2,2.89-2.73,2.92-2.7,0-.63-6.61-.25-7.94a68.76,68.76,0,0,1,3.76-9.36,1.13,1.13,0,0,0-1.77-1.37,45.84,45.84,0,0,1-9.57,6,14.62,14.62,0,0,1-4.63,1.46c-.69.08-4.52-.1-3.94-1.4.1-.23.74-.62.92-.76l1.13-.87c.74-.55,1.49-1.09,2.26-1.6,1.48-1,3-1.93,4.57-2.78a57.35,57.35,0,0,1,10.35-4.37c1.38-.43.79-2.6-.59-2.17Z" style="fill:#9ac485"/><path d="M249.22,845.1a59.29,59.29,0,0,0-18.81,9.8c-1.06.83-2.57,1.8-2.27,3.36.25,1.33,1.81,2.27,3,2.69,2.81,1,6,0,8.57-1.14a47.44,47.44,0,0,0,10.62-6.67l-1.76-1.36a60.67,60.67,0,0,0-4.5,11.9c-.62,2.74-1.73,8.08,2.3,8.74s5.45-4,6.3-6.92a45.65,45.65,0,0,0,1.74-13.09l-2.21.3a37,37,0,0,0,3.42,10.58c1.4,2.55,4.23,4.81,7.3,3.92,2.71-.8,4-3.81,3.64-6.45-.45-3.29-3.09-5.79-5.45-7.88a50.32,50.32,0,0,0-10.39-7.08c-1.29-.65-2.43,1.29-1.13,2a47.72,47.72,0,0,1,9.26,6.14c2.31,2,5.82,4.75,5.51,8.16a3.24,3.24,0,0,1-2.21,3c-1.8.41-3.41-1-4.29-2.42-1.93-3.06-2.8-7.06-3.49-10.56-.24-1.26-2.22-1-2.21.3a42.93,42.93,0,0,1-1,10,37.59,37.59,0,0,1-1.41,4.9c-.45,1.23-1.2,2.9-2.73,2.93-2.7,0-.63-6.61-.24-7.94a67,67,0,0,1,3.75-9.36,1.13,1.13,0,0,0-1.77-1.37,45.84,45.84,0,0,1-9.57,6,14.62,14.62,0,0,1-4.63,1.46c-.69.08-4.52-.1-3.94-1.41.1-.22.74-.61.92-.75.37-.3.75-.59,1.13-.87.74-.55,1.5-1.09,2.26-1.61,1.48-1,3-1.92,4.57-2.77a57.15,57.15,0,0,1,10.36-4.37c1.37-.43.79-2.6-.6-2.17Z" style="fill:#9ac485"/><path d="M28.11,672.34a59,59,0,0,0-18.8,9.8C8.25,683,6.73,683.93,7,685.5c.25,1.33,1.82,2.26,3,2.68,2.81,1,6,0,8.56-1.13a47.87,47.87,0,0,0,10.63-6.67L27.44,679a60.67,60.67,0,0,0-4.5,11.9c-.61,2.74-1.73,8.08,2.3,8.74s5.46-4,6.3-6.92a45.61,45.61,0,0,0,1.75-13.09l-2.21.3a36.48,36.48,0,0,0,3.42,10.59c1.4,2.54,4.22,4.81,7.29,3.91,2.71-.79,4-3.81,3.64-6.44-.44-3.3-3.08-5.8-5.45-7.89A50.4,50.4,0,0,0,29.59,673c-1.28-.66-2.42,1.28-1.13,1.94a48.14,48.14,0,0,1,9.27,6.15c2.3,2,5.82,4.75,5.5,8.15a3.23,3.23,0,0,1-2.21,3c-1.79.41-3.41-1-4.28-2.42-1.93-3.06-2.81-7-3.49-10.56-.25-1.26-2.23-1-2.21.3a44,44,0,0,1-1,10,41.7,41.7,0,0,1-1.41,4.91c-.45,1.22-1.21,2.9-2.74,2.92-2.7,0-.63-6.61-.24-7.94a70.56,70.56,0,0,1,3.75-9.36,1.13,1.13,0,0,0-1.77-1.36,46.6,46.6,0,0,1-9.56,6,15.12,15.12,0,0,1-4.64,1.46c-.68.07-4.51-.11-3.94-1.41.1-.22.74-.62.92-.76l1.13-.86c.74-.56,1.5-1.09,2.27-1.61,1.48-1,3-1.92,4.57-2.78a56.31,56.31,0,0,1,10.35-4.36c1.38-.43.79-2.61-.6-2.17Z" style="fill:#9ac485"/><path d="M41.62,739.49a59.09,59.09,0,0,0-18.81,9.8c-1.06.82-2.57,1.79-2.27,3.36.25,1.33,1.81,2.26,3,2.68,2.81,1,6,0,8.57-1.13a47.81,47.81,0,0,0,10.62-6.67L41,746.16a60.67,60.67,0,0,0-4.5,11.9c-.61,2.74-1.73,8.09,2.3,8.74s5.45-4,6.3-6.92a45.6,45.6,0,0,0,1.74-13.09l-2.21.3A37.09,37.09,0,0,0,48,757.68c1.4,2.54,4.23,4.81,7.3,3.91,2.71-.79,4-3.81,3.64-6.44-.45-3.3-3.08-5.8-5.45-7.89a50.67,50.67,0,0,0-10.39-7.07c-1.28-.66-2.42,1.28-1.13,1.94a48.22,48.22,0,0,1,9.26,6.15c2.31,2,5.83,4.75,5.51,8.15a3.23,3.23,0,0,1-2.21,3c-1.8.41-3.41-1-4.29-2.42-1.92-3.06-2.8-7-3.49-10.56-.24-1.26-2.22-1-2.21.3a42.93,42.93,0,0,1-1,10,38.19,38.19,0,0,1-1.41,4.91c-.44,1.22-1.2,2.9-2.73,2.92-2.7,0-.63-6.61-.24-7.94a67.94,67.94,0,0,1,3.75-9.36,1.13,1.13,0,0,0-1.77-1.36,46.67,46.67,0,0,1-9.57,6,15.06,15.06,0,0,1-4.63,1.46c-.69.07-4.52-.11-3.94-1.41.1-.22.74-.62.92-.76l1.13-.86c.74-.56,1.5-1.09,2.27-1.61,1.47-1,3-1.92,4.56-2.78a56.41,56.41,0,0,1,10.36-4.36c1.37-.43.79-2.61-.6-2.17Z" style="fill:#9ac485"/><path d="M34.27,863A67.29,67.29,0,0,0,14,875c-1.16,1-2.57,2.13-2.57,3.82a3.52,3.52,0,0,0,2.1,3c2.78,1.41,6.36.54,9.06-.62a16.54,16.54,0,0,0,8.19-7.68,1.13,1.13,0,0,0-1.94-1.14,39.37,39.37,0,0,0-5.06,12c-.38,1.64-1.11,3.82.12,5.27a4.05,4.05,0,0,0,4.85.73,19.17,19.17,0,0,0,8-7.57,21.49,21.49,0,0,0,3.14-10.69H37.68a43.43,43.43,0,0,0,2.84,13c1.29,3.14,3.81,6.07,7.54,5.59a4.65,4.65,0,0,0,3.57-2.29c.91-1.71.58-3.91.27-5.74A19.83,19.83,0,0,0,46.24,872c-3.3-3.23-7.54-5.33-10.54-8.88-.94-1.11-2.52.49-1.59,1.59,2.74,3.24,6.49,5.28,9.65,8a17.89,17.89,0,0,1,6.09,11.47c.21,1.94.14,4.09-2.25,4.3-1.93.17-3.38-1.18-4.28-2.75a23.41,23.41,0,0,1-2.18-6.14,46.82,46.82,0,0,1-1.21-7.54,1.13,1.13,0,0,0-2.25,0,19.28,19.28,0,0,1-8,15.13c-.84.6-3.43,2.41-4.15.74-.26-.63.22-1.94.36-2.58s.38-1.58.6-2.36a37.46,37.46,0,0,1,4.33-9.56l-1.94-1.14a14.4,14.4,0,0,1-7.67,7,11.73,11.73,0,0,1-5,.91c-1.42-.13-3.31-1-1.93-2.48a31.23,31.23,0,0,1,4.64-3.87q2.41-1.8,5-3.38a64.37,64.37,0,0,1,10.94-5.34c1.35-.51.76-2.68-.59-2.17Z" style="fill:#9ac485"/><path d="M137.3,861.34a76.6,76.6,0,0,0-11.23,6.35c-1.68,1.14-3.3,2.35-4.88,3.62-1.24,1-3.23,2.17-2.79,4,.92,3.86,7.37,1.31,9.66.49a35.65,35.65,0,0,0,10.32-5.77L136.5,869l-4.07,13.68c-.72,2.43-1.56,6.81,2,7.47,4.16.78,5.54-4.89,6.26-7.77A92.16,92.16,0,0,0,143,869h-2.25a28.93,28.93,0,0,0,3.41,11.29c1.56,2.85,4.4,5.46,7.78,3.7,3.15-1.65,3.87-5.53,2.7-8.64-1.27-3.41-4-6.34-6.79-8.61a29.61,29.61,0,0,0-10.91-5.61,1.13,1.13,0,0,0-.6,2.17,27,27,0,0,1,9.77,4.91c2.77,2.22,6,5.35,6.73,9a4.4,4.4,0,0,1-1.6,4.62c-1.74,1.24-3.41,0-4.44-1.46A24.38,24.38,0,0,1,143,869a1.13,1.13,0,0,0-2.25,0c-.22,2.19-2.3,20.44-6.09,18.83-.92-.39-.67-2-.52-2.81.3-1.57.88-3.11,1.33-4.64l3.22-10.85c.35-1.18-1.06-1.75-1.88-1.1a32.26,32.26,0,0,1-8.14,4.75,31.88,31.88,0,0,1-4.38,1.4,13.34,13.34,0,0,1-2.56.51c-.38,0-1,.13-1-.37s.54-.63.82-.87a75.48,75.48,0,0,1,16.87-10.61c1.31-.61.17-2.55-1.14-1.94Z" style="fill:#9ac485"/><path d="M147.75,777.23l-7.13,3.95c-1.68.93-4.35,1.92-4.39,4.22s2.36,2.46,4.05,2.26a30,30,0,0,0,7.51-1.88l-.73-1.25c-1.72,1.75-3.5,3.66-4.06,6.14-.44,1.89-.13,4.67,2,5.45s3.75-1.87,4.59-3.41a27.7,27.7,0,0,0,2.35-6.88h-1.44a9.68,9.68,0,0,0,4.14,6.39c1.74,1.11,4.51.93,4.52-1.65s-1.62-4.86-3.33-6.62a93.36,93.36,0,0,0-7.23-6.23c-.74-.61-1.81.44-1.06,1.06,1.81,1.51,3.64,3,5.42,4.55a15.33,15.33,0,0,1,4,4.61c.37.73,1,2.23.66,3s-1.78.23-2.32-.13a8.37,8.37,0,0,1-3.35-5.43.75.75,0,0,0-1.44,0,39,39,0,0,1-1.44,4.88,13.89,13.89,0,0,1-1.1,2.22,5.37,5.37,0,0,1-1.79,2.07c-1.17.55-1.76-1.07-1.84-2a5.64,5.64,0,0,1,.44-2.56,14.07,14.07,0,0,1,3.36-4.46c.49-.5,0-1.54-.73-1.25a30,30,0,0,1-5.59,1.6,15.42,15.42,0,0,1-2.71.32c-1.26,0-1.79-.94-.83-1.9a10.38,10.38,0,0,1,2.4-1.49l2.5-1.38,5.35-3c.84-.47.09-1.76-.76-1.29Z" style="fill:#9ac485"/><path d="M82.75,830.1a17.62,17.62,0,0,0-8.29,5.13,6.55,6.55,0,0,0-1.77,2.71c-.42,1.91,1.5,2.6,3,2.38a23.29,23.29,0,0,0,3.66-1.08l4.25-1.37-.84-1.1a33.21,33.21,0,0,0-3.86,6.75c-.71,1.66-2,4.32-.15,5.72,2.17,1.61,3.29-1.42,4-2.91l3.74-7.88-1.37-.18c.37,2.5,1.5,5.1,4,6.13,2,.8,5.08.3,5.46-2.2a4.63,4.63,0,0,0-1.33-3.41,35.82,35.82,0,0,0-3-3.33A39.36,39.36,0,0,0,83.45,830c-.82-.51-1.58.79-.76,1.3a35.88,35.88,0,0,1,9.44,8.44c.68.88,1.54,2.23.36,3.08a3,3,0,0,1-2.87.12c-2-.88-2.74-3.11-3-5.11a.76.76,0,0,0-1.37-.18l-2.73,5.74-1.36,2.86c-.24.51-1,2.62-1.67,1.49-.47-.75.15-2,.43-2.7.36-.93.76-1.84,1.21-2.73a33.65,33.65,0,0,1,3-4.83c.39-.53-.25-1.29-.84-1.1l-6.19,2a6.4,6.4,0,0,1-2,.47c-1.39,0-.67-1.17-.12-1.87a16.11,16.11,0,0,1,8.24-5.46.75.75,0,0,0-.4-1.45Z" style="fill:#9ac485"/><path d="M354.84,852.18a17.59,17.59,0,0,0-5.89,2.93,17.27,17.27,0,0,0-2.41,2.19,6.69,6.69,0,0,0-1.77,2.72c-.42,1.91,1.5,2.6,3,2.38a23.52,23.52,0,0,0,3.65-1.09L355.7,860l-.84-1.1A32.94,32.94,0,0,0,351,865.6c-.71,1.66-2,4.32-.15,5.71,2.17,1.62,3.29-1.41,4-2.9l3.74-7.88-1.37-.18c.37,2.5,1.5,5.1,4,6.12,2,.81,5.07.31,5.45-2.19a4.63,4.63,0,0,0-1.33-3.41,35.82,35.82,0,0,0-2.95-3.33,39.36,39.36,0,0,0-6.85-5.42c-.82-.51-1.58.79-.76,1.3a36,36,0,0,1,9.44,8.43c.69.89,1.55,2.24.36,3.09a3,3,0,0,1-2.87.12c-2-.88-2.74-3.11-3-5.11a.75.75,0,0,0-1.37-.18l-2.73,5.73-1.36,2.87c-.24.51-1,2.62-1.67,1.48-.47-.75.15-2,.43-2.69.36-.93.77-1.84,1.21-2.74a34.11,34.11,0,0,1,3-4.82c.39-.53-.25-1.29-.84-1.1l-6.19,2a6.4,6.4,0,0,1-2,.47c-1.39,0-.67-1.17-.12-1.87a16.15,16.15,0,0,1,8.24-5.46.75.75,0,0,0-.39-1.45Z" style="fill:#9ac485"/><path d="M183.82,893.28l-.39,13.25c1.46,0,2.43-1.54,2.66-3s0-3,.64-4.3c1.31,1.09,1.16,3.09,1.64,4.72a6,6,0,0,0,6,4.13,13.85,13.85,0,0,0-3.22-9.42,8.39,8.39,0,0,0,5.39,1.28,2.08,2.08,0,0,0,.92-.26,1.67,1.67,0,0,0,.12-2.41A4.75,4.75,0,0,0,195.2,896l-11.92-3.66" style="fill:#105b35"/></g></g></g></svg>