<svg xmlns="http://www.w3.org/2000/svg" viewBox="0 0 204.9 219"><defs><style>.cls-1{isolation:isolate;}.cls-2{fill:#b36810;}.cls-3{fill:#c47212;}.cls-4{fill:#e69632;}.cls-5{opacity:0.15;mix-blend-mode:overlay;}.cls-6{fill:#d77d14;}.cls-7{fill:#ffae55;}</style></defs><g class="cls-1"><g id="Layer_17" data-name="Layer 17"><polygon class="cls-2" points="100.08 32.66 173.18 56 173.18 163.16 100.08 139.82 100.08 32.66"/><polygon class="cls-3" points="100.08 32.66 32.8 56 32.8 163.16 100.08 139.82 100.08 32.66"/><polygon class="cls-4" points="105.9 186.34 32.8 163 32.8 55.84 105.9 79.18 105.9 186.34"/><polygon class="cls-5" points="32.8 70.75 32.8 101.83 97.03 122.34 105.9 94.09 105.9 79.18 35.85 61.04 32.8 70.75"/><polygon class="cls-6" points="105.9 186.34 173.18 163 173.18 55.84 105.9 79.18 105.9 186.34"/><polygon class="cls-5" points="105.9 79.18 105.9 93.52 114.07 119.97 173.18 99.47 173.18 70.18 169.18 57.23 105.9 79.18"/><polygon class="cls-4" points="116.75 115.07 184.03 91.73 173.18 55.84 105.9 79.18 116.75 115.07"/><polygon class="cls-7" points="93.97 117.14 20.87 93.8 32.8 55.84 105.9 79.18 93.97 117.14"/></g></g></svg>