<svg id="Layer_1" data-name="Layer 1" xmlns="http://www.w3.org/2000/svg" viewBox="0 0 204.9 219"><defs><style>.cls-1{fill:#fff;}.cls-2{fill:#383838;}.cls-3{fill:#010101;opacity:0.1;isolation:isolate;}</style></defs><g id="Layer_26" data-name="Layer 26"><ellipse class="cls-1" cx="102.45" cy="109.5" rx="63.72" ry="64.91"/><path class="cls-2" d="M99.17,45.58A55.81,55.81,0,0,0,72.22,57.4c-6.53,1.71-15.17,6.93-15.95,7.4-.5.54-1,1.08-1.48,1.64-.22.25-.44.5-.65.76s-.65.75-1,1.13h0a49,49,0,0,0-8.29,19l-4.63,8h0c-.15.69-.29,1.39-.42,2.09,0,.25-.09.51-.13.77-.11.6-.21,1.19-.3,1.8a.68.68,0,0,0,.17-.21l6.07-10.55a68.57,68.57,0,0,0,8.55,3.18c.26,2.54,2.5,23.34,6,28C58.16,123,54.83,133,54.51,138a16.72,16.72,0,0,1-11-4.19l-.16-.09c.39,1,.81,2,1.25,3h0a17.62,17.62,0,0,0,9.43,3h.64c1.62,5,15.07,15.29,18.22,17.66a30.71,30.71,0,0,0,6.8,12.83c1.07.42,2.16.82,3.27,1.18h0a.38.38,0,0,0-.09-.13,31.18,31.18,0,0,1-8.21-13.58c7.27-1.38,13.73-5.59,16.13-7.31a78.93,78.93,0,0,0,25.91,4.93c.87,0,1.75,0,2.62-.07a23.62,23.62,0,0,0,6.13,10.26c-1.36,1.51-5.54,5.34-14.83,8.3a.83.83,0,0,0-.32.2c1.14-.14,2.27-.32,3.4-.52l.92-.16,1.26-.26c.82-.18,1.63-.37,2.43-.58h0c6.68-3.29,8.92-6.55,9-6.73v-.1c25.36-5.82,27.3-23.38,27.41-27.92,2-2.35,6.85-8.69,10.88-20h0c.13-1.06.23-2.12.31-3.19,0-.35.06-.69.08-1l.06-1.18c0-.91.06-1.82.06-2.74h0c0-1,0-2-.07-3v-.78c0-.87-.11-1.74-.19-2.6v-.36c-.1-1-.22-1.9-.36-2.83l-.12-.81c-.12-.76-.25-1.52-.4-2.27l-.12-.62c-.18-.9-.38-1.78-.6-2.66-.07-.29-.15-.57-.22-.85-.17-.67-.36-1.33-.55-2l-.24-.81c-.26-.83-.54-1.66-.82-2.47l-.34-.9c-.21-.58-.44-1.16-.67-1.73-.12-.32-.25-.64-.38-1-.33-.77-.66-1.53-1-2.28-.14-.31-.29-.61-.44-.91-.25-.53-.51-1-.78-1.55-.17-.34-.34-.67-.52-1-.39-.72-.78-1.43-1.2-2.12h0c.63,2.4,2.72,11,1.13,13.79-6.4-1.72-14.67-1.83-17.51-1.81-1.66-4.6-14.77-15.46-18.71-17.77,0-1.47-.31-14-.39-17.42,4.3-.63,14.5,1.56,14.5,1.56h0a62.53,62.53,0,0,0-33.64-9.79h-.88ZM62,120.23a.9.9,0,0,0-.29-.45c-2.43-1.77-4.91-17.7-5.92-27.41,6-8.82,14.63-16.36,17.08-18.43.92.18,19,3.8,25.38,7.06a242.75,242.75,0,0,0,4.49,24.07c-2.56,2.53-16.36,16.24-19.94,21C79.22,124.61,66.23,121.28,62,120.23Zm78.54-30.58c2.72,0,11.4.09,17.68,1.89,1.86,2.5,6.34,9.78,6.85,22.47h.06c-3.94,12.43-9.13,19.57-11.39,22.27-3.12-.46-12.76-.74-15.81-.82-.64-6.58-5.54-20-7.56-25.31,4.37-3.85,9.06-17.1,10.21-20.5ZM128.9,110.76c2.13,5.63,7.51,20.38,7.51,26v.16c-2.74,4.46-14.62,14.31-17,16.62-12.34.67-24.42-3.39-27.88-4.67-1.08-3.41-5.87-18.46-7.47-21.73,3.2-4.34,16.79-17.86,19.68-20.72C107.59,107.94,125.55,110.32,128.9,110.76Zm-8.58-40.89c-4.59.34-19.23,8.2-21.63,9.5-6.55-3.14-22.28-6.39-25.1-7v-14A55.15,55.15,0,0,1,99.81,47.13a73.71,73.71,0,0,1,20.12,5.19C120,54.27,120.28,67,120.32,69.87Z"/><path class="cls-1" d="M120.14,74.38l-.55.24-.54.25c-.35.18-.71.34-1.06.53l-2.08,1.11-4.14,2.26L107.63,81l-2.07,1.12-2.08,1.12.65-1.26.37,2.55.39,2.56.38,2.57.36,2.58c.12.86.22,1.72.34,2.58l.3,2.6c.09.86.19,1.73.27,2.6l.12,1.31c0,.43.07.87.1,1.31-.34-.81-.64-1.64-.93-2.47s-.55-1.66-.8-2.5c-.51-1.67-1-3.36-1.38-5.06-.21-.84-.4-1.7-.59-2.55s-.37-1.7-.53-2.56-.33-1.72-.47-2.58l-.21-1.3c-.07-.44-.12-.88-.18-1.32a1.22,1.22,0,0,1,.65-1.25c.7-.37,1.41-.74,2.12-1.08s1.43-.7,2.15-1,1.44-.66,2.17-1c.36-.17.73-.32,1.1-.47L111,77c1.47-.59,3-1.14,4.49-1.62.39-.11.77-.24,1.15-.34s.77-.22,1.17-.3l1.17-.26A9.58,9.58,0,0,1,120.14,74.38Z"/><path class="cls-1" d="M139.75,140a12.25,12.25,0,0,1-.62,1.26c-.22.42-.47.82-.72,1.22s-.52.78-.8,1.15-.55.76-.84,1.12c-.58.74-1.19,1.44-1.81,2.13s-1.27,1.36-1.92,2l-1,1-1,1c-.67.62-1.36,1.23-2.06,1.83s-1.41,1.19-2.13,1.76-1.45,1.14-2.19,1.69l.26-1c.13.5.29,1,.47,1.49s.37,1,.58,1.49.44,1,.67,1.49.5,1,.76,1.48c-.23-.17-.44-.35-.66-.53l-.62-.58a12.35,12.35,0,0,1-1.13-1.27c-.18-.22-.35-.45-.52-.68s-.32-.47-.47-.72-.3-.49-.44-.75-.26-.51-.39-.78a.78.78,0,0,1,.14-.89l.11-.13,1.94-2,1-.95,1-.95,1-.93,1-.92,2-1.82,2.08-1.78,2.08-1.77,2.1-1.77c.34-.31.7-.6,1-.9Z"/><path class="cls-1" d="M80.47,129.92l-1.16-.16-1.15-.18c-.76-.12-1.52-.24-2.28-.38-1.52-.26-3-.55-4.54-.87l-2.25-.49-2.24-.53q-2.25-.54-4.47-1.14l1.42-.69c-.23.5-.46,1-.68,1.54s-.44,1-.65,1.58-.43,1.07-.64,1.6l-.63,1.61-.6,1.63c-.21.54-.4,1.08-.6,1.63s-.38,1.09-.56,1.64c-.1.28-.16.56-.26.84l-.24.85c0-.29-.06-.59-.08-.89s0-.59,0-.89v-.9a3.82,3.82,0,0,1,.07-.89c.07-.3.06-.59.1-.88l.12-.89c.1-.58.2-1.17.33-1.75s.25-1.15.4-1.73.3-1.14.47-1.71.36-1.14.55-1.7c.1-.29.21-.57.32-.85s.22-.56.34-.84a1.15,1.15,0,0,1,1.35-.7H63l2.24.56c.75.2,1.49.39,2.23.6s1.49.43,2.22.66l2.21.7c.73.24,1.46.5,2.19.77s1.45.54,2.17.84,1.43.6,2.14.92A20.42,20.42,0,0,1,80.47,129.92Z"/><path class="cls-1" d="M59.1,68.29l-.1.22c-.07.13-.16.35-.3.6l-.49.9c-.19.35-.4.73-.65,1.15l-.19.31v.08h0l-.09.18-.38.7L56,74c-.13.26-.27.52-.41.78s-.27.54-.42.81-.27.55-.41.82-.29.55-.42.83l-.84,1.65c-.13.28-.26.55-.4.82l-.4.79L52,82l-.71,1.37c-.43.85-.82,1.56-1.11,2.06l-.46.78V85.3a6,6,0,0,1,.06-1c.06-.35.09-.85.16-1.34s.18-1,.31-1.56.29-1.12.48-1.7.4-1.19.64-1.78.52-1.2.82-1.79a13.38,13.38,0,0,1,1-1.71c.39-.55.69-1.08,1.06-1.58a17.34,17.34,0,0,1,1.13-1.39l.56-.59.13-.14h0l.07-.06.28-.24c.37-.32.73-.61,1-.85a3.79,3.79,0,0,1,.45-.34l.39-.27c.24-.17.44-.28.57-.37Z"/><path class="cls-3" d="M108.6,44.9a64.83,64.83,0,0,1,43.31,61.49c0,35.84-28.53,64.9-63.72,64.9q-3.12,0-6.15-.3a62.72,62.72,0,0,0,20.41,3.42c35.19,0,63.72-29.06,63.72-64.91C166.17,75.77,140.91,48.05,108.6,44.9Z"/></g></svg>