<svg id="a9bd4d83-d36d-424f-b994-8aadd74cd097" data-name="Layer 1" xmlns="http://www.w3.org/2000/svg" viewBox="0 0 172 34"><path d="M168.17,28.28l-8.85-8.23a2,2,0,0,1,0-2.93l10.76-10a1.94,1.94,0,0,0,.64-1.4l.27-3-3.75-.39V3.66H4.76V2.22L1,2.61l.28,3.15h0a1.93,1.93,0,0,0,.64,1.36l10.76,10a2,2,0,0,1,0,2.93L3.87,28.24,1,28.69l.26,3h0a2,2,0,0,0,2,1.87H168.72a2,2,0,0,0,2-1.86l.27-2.95Z" style="fill:#3f1a0b"/><path d="M170.36,27l-10.8-10a2,2,0,0,1,0-2.94l10.8-10A2,2,0,0,0,169,.48H3A2,2,0,0,0,1.65,4l10.8,10a2,2,0,0,1,0,2.94L1.65,27A2,2,0,0,0,3,30.44H169A2,2,0,0,0,170.36,27Z" style="fill:#542a0e"/></svg>