<svg xmlns="http://www.w3.org/2000/svg" xmlns:xlink="http://www.w3.org/1999/xlink" viewBox="0 0 204.9 219"><defs><style>.cls-1{isolation:isolate;}.cls-2{fill:url(#linear-gradient);}.cls-3{fill:url(#linear-gradient-2);}.cls-4{fill:url(#linear-gradient-3);}.cls-5{fill:#fff;}.cls-6{mix-blend-mode:screen;}.cls-7{fill:#eeeadc;mix-blend-mode:multiply;}</style><linearGradient id="linear-gradient" x1="214.45" y1="158.72" x2="126.68" y2="71.79" gradientTransform="matrix(-1, 0, 0, 1, 260.27, 0)" gradientUnits="userSpaceOnUse"><stop offset="0" stop-color="#fff"/><stop offset="1" stop-color="#dad9cf"/></linearGradient><linearGradient id="linear-gradient-2" x1="112.92" y1="64.08" x2="159.34" y2="175.49" xlink:href="#linear-gradient"/><linearGradient id="linear-gradient-3" x1="149.89" y1="53.07" x2="173.52" y2="141.69" xlink:href="#linear-gradient"/></defs><g class="cls-1"><g id="Layer_13" data-name="Layer 13"><g class="cls-1"><polygon class="cls-2" points="62.47 87.94 62.57 140.91 111.65 147.8 111.55 94.83 62.47 87.94"/><polygon class="cls-3" points="111.65 147.8 142.43 131.06 142.33 78.09 111.55 94.83 111.65 147.8"/><polygon class="cls-4" points="111.55 94.83 142.33 78.09 93.25 71.2 62.47 87.94 111.55 94.83"/></g><polygon class="cls-5" points="141.19 78.71 112.23 95.68 111.65 145.47 111.14 95.78 76.08 89.85 111.55 94.83 141.19 78.71"/><g class="cls-6"><path class="cls-7" d="M84.58,132.81a.32.32,0,0,1-.44-.14.32.32,0,1,1,.44.14Z"/><path class="cls-7" d="M70.28,131.3a.41.41,0,0,1-.56-.17.42.42,0,0,1,.17-.56.41.41,0,0,1,.56.18A.4.4,0,0,1,70.28,131.3Z"/><path class="cls-7" d="M67.87,137.88a.31.31,0,0,1-.42-.14.3.3,0,0,1,.13-.42.32.32,0,1,1,.29.56Z"/><path class="cls-7" d="M75.91,134.57a.32.32,0,0,1-.29-.56.32.32,0,0,1,.43.13A.32.32,0,0,1,75.91,134.57Z"/></g><g class="cls-6"><path class="cls-7" d="M107.39,101.49a.23.23,0,0,1-.31-.09.24.24,0,0,1,.1-.31.23.23,0,1,1,.21.4Z"/><path class="cls-7" d="M97.3,100.43a.29.29,0,0,1-.39-.12.28.28,0,0,1,.13-.39.29.29,0,1,1,.26.51Z"/><path class="cls-7" d="M95.61,105.07a.23.23,0,0,1-.21-.4.23.23,0,0,1,.3.1A.22.22,0,0,1,95.61,105.07Z"/><path class="cls-7" d="M101.28,102.74a.23.23,0,0,1-.3-.1.22.22,0,0,1,.1-.3.23.23,0,0,1,.3.09A.24.24,0,0,1,101.28,102.74Z"/></g><g class="cls-6"><path class="cls-7" d="M82.08,95.46a.23.23,0,0,1-.31-.1.22.22,0,0,1,.1-.31.23.23,0,0,1,.31.1A.24.24,0,0,1,82.08,95.46Z"/><path class="cls-7" d="M72,94.4a.29.29,0,1,1,.12-.4A.28.28,0,0,1,72,94.4Z"/><path class="cls-7" d="M70.29,99a.22.22,0,0,1-.3-.09.23.23,0,0,1,.1-.3.22.22,0,0,1,.3.09A.23.23,0,0,1,70.29,99Z"/><path class="cls-7" d="M76,96.7a.23.23,0,0,1-.3-.09.21.21,0,0,1,.09-.3.21.21,0,0,1,.3.09A.22.22,0,0,1,76,96.7Z"/></g><g class="cls-6"><path class="cls-7" d="M97.92,109.56a.23.23,0,0,1-.08.46.24.24,0,0,1-.19-.27A.24.24,0,0,1,97.92,109.56Z"/><path class="cls-7" d="M105.24,116.59a.29.29,0,0,1,.23.34.29.29,0,0,1-.34.24.29.29,0,0,1-.23-.34A.3.3,0,0,1,105.24,116.59Z"/><path class="cls-7" d="M109.42,114a.22.22,0,1,1-.26.18A.23.23,0,0,1,109.42,114Z"/><path class="cls-7" d="M103.51,112.33a.23.23,0,0,1,.18.26.25.25,0,0,1-.26.19.26.26,0,0,1-.19-.27A.24.24,0,0,1,103.51,112.33Z"/></g><g class="cls-6"><path class="cls-7" d="M95.7,137.52a.23.23,0,0,1,.18.27.23.23,0,0,1-.26.18.23.23,0,0,1-.19-.27A.22.22,0,0,1,95.7,137.52Z"/><path class="cls-7" d="M103,144.55a.29.29,0,0,1,.23.34.27.27,0,0,1-.33.23.3.3,0,0,1-.24-.34A.29.29,0,0,1,103,144.55Z"/><path class="cls-7" d="M107.2,141.93a.22.22,0,1,1-.08.43.22.22,0,0,1-.18-.26A.21.21,0,0,1,107.2,141.93Z"/><path class="cls-7" d="M101.29,140.29a.21.21,0,0,1,.17.26.22.22,0,1,1-.44-.08A.24.24,0,0,1,101.29,140.29Z"/></g><g class="cls-6"><path class="cls-7" d="M129.51,122.78a.24.24,0,0,1,.19.27.24.24,0,0,1-.27.18.23.23,0,0,1-.19-.27A.23.23,0,0,1,129.51,122.78Z"/><path class="cls-7" d="M136.82,129.81a.29.29,0,0,1,.24.33.29.29,0,0,1-.34.24.29.29,0,0,1-.23-.34A.28.28,0,0,1,136.82,129.81Z"/><path class="cls-7" d="M141,127.18a.22.22,0,1,1-.26.18A.23.23,0,0,1,141,127.18Z"/><path class="cls-7" d="M135.1,125.55a.22.22,0,0,1,.18.26.23.23,0,0,1-.26.18.23.23,0,0,1-.18-.26A.22.22,0,0,1,135.1,125.55Z"/></g><g class="cls-6"><path class="cls-7" d="M130,97.69a.22.22,0,0,1,.3-.11.23.23,0,0,1,.12.3.24.24,0,0,1-.31.12A.23.23,0,0,1,130,97.69Z"/><path class="cls-7" d="M138.6,92.39a.28.28,0,0,1,.38-.14.3.3,0,0,1,.15.39.29.29,0,0,1-.39.13A.27.27,0,0,1,138.6,92.39Z"/><path class="cls-7" d="M137.12,87.67a.21.21,0,0,1,.29-.1.22.22,0,1,1-.19.4A.22.22,0,0,1,137.12,87.67Z"/><path class="cls-7" d="M134,93a.22.22,0,0,1,.3-.1.21.21,0,0,1,.1.29.22.22,0,0,1-.29.11A.23.23,0,0,1,134,93Z"/></g><g class="cls-6"><path class="cls-7" d="M114.77,105.75a.3.3,0,0,1,.55.26.3.3,0,1,1-.55-.26Z"/><path class="cls-7" d="M126.27,98.7a.38.38,0,0,1,.52-.18.39.39,0,0,1-.33.7A.4.4,0,0,1,126.27,98.7Z"/><path class="cls-7" d="M124.31,92.44a.29.29,0,1,1,.53.24.28.28,0,0,1-.39.15A.29.29,0,0,1,124.31,92.44Z"/><path class="cls-7" d="M120.21,99.49a.3.3,0,0,1,.4-.14.3.3,0,0,1,.14.39.3.3,0,0,1-.39.15A.3.3,0,0,1,120.21,99.49Z"/><path class="cls-7" d="M111.83,90.81a.39.39,0,0,1,.71.33.41.41,0,0,1-.52.19A.4.4,0,0,1,111.83,90.81Z"/><path class="cls-7" d="M109.86,84.54a.3.3,0,0,1,.4-.14.3.3,0,0,1-.25.54A.31.31,0,0,1,109.86,84.54Z"/><path class="cls-7" d="M105.77,91.6a.3.3,0,0,1,.54.25.3.3,0,0,1-.4.15A.31.31,0,0,1,105.77,91.6Z"/><path class="cls-7" d="M133.06,80.94a.39.39,0,1,1,.71.33.39.39,0,0,1-.52.18A.39.39,0,0,1,133.06,80.94Z"/><path class="cls-7" d="M129.14,77.89a.29.29,0,0,1,.39-.15.3.3,0,0,1,.15.39.3.3,0,0,1-.4.15A.29.29,0,0,1,129.14,77.89Z"/><path class="cls-7" d="M127,81.73a.3.3,0,0,1,.54.25.3.3,0,0,1-.4.15A.3.3,0,0,1,127,81.73Z"/><path class="cls-7" d="M98,77.37a.38.38,0,0,1,.51-.19.39.39,0,0,1,.19.52.41.41,0,0,1-.52.19A.4.4,0,0,1,98,77.37Z"/><path class="cls-7" d="M94,74.32a.3.3,0,0,1,.4-.15.3.3,0,0,1,.14.4.29.29,0,0,1-.39.14A.29.29,0,0,1,94,74.32Z"/><path class="cls-7" d="M91.9,78.16a.29.29,0,0,1,.39-.14.29.29,0,0,1-.25.53A.29.29,0,0,1,91.9,78.16Z"/><path class="cls-7" d="M98,77.37a.38.38,0,0,1,.51-.19.39.39,0,0,1,.19.52.41.41,0,0,1-.52.19A.4.4,0,0,1,98,77.37Z"/><path class="cls-7" d="M94,74.32a.3.3,0,0,1,.4-.15.3.3,0,0,1,.14.4.29.29,0,0,1-.39.14A.29.29,0,0,1,94,74.32Z"/><path class="cls-7" d="M91.9,78.16a.29.29,0,0,1,.39-.14.29.29,0,0,1-.25.53A.29.29,0,0,1,91.9,78.16Z"/><path class="cls-7" d="M88.29,85.38a.39.39,0,0,1,.52-.19.4.4,0,0,1,.19.52.39.39,0,0,1-.52.18A.39.39,0,0,1,88.29,85.38Z"/><path class="cls-7" d="M84.37,82.32a.29.29,0,0,1,.39-.14.29.29,0,0,1,.15.39.3.3,0,1,1-.54-.25Z"/><path class="cls-7" d="M82.23,86.17a.3.3,0,0,1,.4-.15.31.31,0,0,1,.14.4.3.3,0,0,1-.54-.25Z"/></g></g></g></svg>