<svg xmlns="http://www.w3.org/2000/svg" viewBox="0 0 204.9 219"><defs><style>.cls-1{isolation:isolate;}.cls-2{fill:#5765ac;}.cls-3{fill:#57558d;}.cls-11,.cls-3{mix-blend-mode:screen;}.cls-4{opacity:0.09;}.cls-11,.cls-5,.cls-6{fill:#e8e5d9;}.cls-5{mix-blend-mode:multiply;}.cls-7{fill:#d8d0bc;}.cls-8{fill:#fbcc36;}.cls-9{fill:#f59a1d;}.cls-10{fill:#132b45;}.cls-11{opacity:0.2;}</style></defs><g class="cls-1"><g id="c2"><rect class="cls-2" x="74.15" y="71.57" width="57.13" height="111.91"/><path class="cls-2" d="M131.28,183.62c-.27,2.2-13.29,3.95-29.07,3.91-5.65,0-10.89-.26-15.28-.66-7.85-.73-13-2-12.79-3.39a0,0,0,0,1,0,0c.24-1.34,5.27-2.52,12.78-3.22,4.65-.42,10.27-.67,16.28-.66,15.44,0,27.8,1.77,28.06,3.91A.22.22,0,0,1,131.28,183.62Z"/><path class="cls-3" d="M131.29,85.88c0,1.28-.1,1.53-.41,1.94-.65.08-.87.11-1.79-1.59s-1.63-3-3.86-2.21c-3.62,1.32-4.53,6.3-8.9,6.62-.33,0-.76,0-1.09,0-4.9,0-7.49-5.65-12.6-5.1-4.49.49-7,5.49-11.85,5.2a10.34,10.34,0,0,1-1.1-.14c-4.23-.71-4.85-6.67-9.62-6.61-2.76,0-2.23,5.18-5.11,4.09-.8-.31-.81-2.67-.82-3.68V82.57c0,3.79.68,5.06,1.88,3.78.79-.85,1.07-2,1.92-2.86a2.65,2.65,0,0,1,2-.9c5,0,6,6.46,10.83,6.76,2.7.17,4.18-1.06,5.75-2.37a10.31,10.31,0,0,1,8.5-2.84,8.92,8.92,0,0,1,5.11,2.25c2.47,2,6.61,5.39,11.07-.26,5.35-6.76,7.49-2.51,8.2-1.11.61,1.21.71,1.25,1.25,1.48.49-.39.6-.48.62-2.31v1.69"/><path class="cls-3" d="M74.88,74.9c-.62-.24-.48,3.63-.15,4.33.17.37.39.27.56-.24.46-1.39,0-3.82-.41-4.09"/><path class="cls-3" d="M90.52,77.59c-2.06,0-2.62,2.59-1.29,3.93A2,2,0,0,0,92.61,80a2.37,2.37,0,0,0-2.09-2.39"/><path class="cls-3" d="M116.08,77.51a2.41,2.41,0,0,0-1.29,4.11c1.41,1.19,3.39-.18,3.22-2.23a1.9,1.9,0,0,0-1.93-1.88"/><path class="cls-3" d="M130.83,74.71a4.86,4.86,0,0,0-.51,2.58c0,1,.22,2,.46,2,.4-.08.52-4.44.13-4.58l-.08,0"/><path class="cls-3" d="M130.93,98.87c-1.92,2.42-1.27,7.34-5.64,7.36-1.6,0-2.7-1.14-3.86-2.35s-2.57-2.69-5.79-2c-2.83.57-4.38,3-6.57,4.51a9.72,9.72,0,0,1-7.49,1.24c-3.21-.81-5-3.81-7.92-5.1A7.31,7.31,0,0,0,92,102c-4.62-.81-6.51,5.21-11.12,4.45-2.26-.38-3.11-2.31-4-4.36-1.17-2.65-1.62-2.83-2.27-2.91-.27.41-.45.69-.46,2.47V99.78c0-1.41.09-1.51.4-2,.76.09,1.32.37,2.71,3.32,1,2.11,1.72,3.64,3.64,4s3-.84,4.26-2.07a6.93,6.93,0,0,1,7-2.36,9.33,9.33,0,0,1,2.78,1c2.44,1.37,4.06,4,7,4.61a8,8,0,0,0,7-1.53c4.78-3.82,8.56-6.83,13.13-2,1,1.12,2,2.09,3.29,2.09,4.34,0,3.4-5.12,5.53-7.36v1.41"/><path class="cls-3" d="M80.7,93.24C79,93.09,79,96.31,80,97.4c.85.92,2,.14,2.15-1.43.09-1.28-.62-2.58-1.48-2.73"/><path class="cls-3" d="M103.74,94.68a2.26,2.26,0,0,0-1.7,3.88,2.39,2.39,0,0,0,4.06-1.64,2.28,2.28,0,0,0-2.36-2.24"/><path class="cls-3" d="M125.87,93c-1.7.47-1.81,3.79-.53,4.46S127.5,95.7,127,94c-.21-.69-.62-1-1.1-1"/><path class="cls-3" d="M131.29,119.32c0,1.28-.1,1.52-.41,1.93-.65.08-.87.11-1.79-1.58s-1.63-3-3.86-2.21c-3.62,1.32-4.53,6.29-8.9,6.61-.33,0-.76,0-1.09,0-4.9,0-7.49-5.65-12.6-5.09-4.49.48-7,5.49-11.85,5.2-.33,0-.77-.09-1.1-.14-4.23-.72-4.85-6.68-9.62-6.61-2.76,0-2.23,5.18-5.11,4.08-.8-.3-.81-2.66-.82-3.67V116a12.09,12.09,0,0,0,.41,3.63.83.83,0,0,0,1.47.16c.79-.85,1.07-2,1.92-2.86a2.69,2.69,0,0,1,2-.9c5,0,6,6.46,10.83,6.76,2.71.17,4.19-1.07,5.75-2.37a10.21,10.21,0,0,1,8.5-2.83,8.82,8.82,0,0,1,5.11,2.23c2.48,2,6.62,5.39,11.07-.26,5.36-6.79,7.5-2.51,8.2-1.1.61,1.22.72,1.26,1.25,1.49.49-.4.6-.49.62-2.32v1.7"/><path class="cls-3" d="M74.88,108.32c-.62-.24-.48,3.64-.15,4.35.17.36.39.26.56-.25.45-1.36,0-3.84-.41-4.1"/><path class="cls-3" d="M90.52,111c-2.06,0-2.62,2.6-1.29,3.93a2,2,0,0,0,3.38-1.53,2.36,2.36,0,0,0-2.09-2.4"/><path class="cls-3" d="M116.08,110.94a2.41,2.41,0,0,0-1.29,4.11c1.41,1.2,3.39-.18,3.22-2.22a1.88,1.88,0,0,0-1.93-1.89"/><path class="cls-3" d="M130.83,108.14a4.88,4.88,0,0,0-.51,2.59c0,1,.22,2,.46,2s.51-4.44.13-4.58a.08.08,0,0,0-.08,0"/><path class="cls-3" d="M130.93,132.3c-1.92,2.42-1.27,7.33-5.64,7.36-1.61,0-2.7-1.14-3.86-2.34s-2.57-2.69-5.79-2c-2.83.56-4.38,3-6.57,4.5a9.75,9.75,0,0,1-7.49,1.23c-3.21-.81-5-3.8-7.92-5.09a7.86,7.86,0,0,0-1.65-.5c-4.62-.8-6.52,5.2-11.12,4.44-2.28-.38-3.12-2.31-4-4.35-1.16-2.64-1.62-2.82-2.27-2.9-.27.4-.45.67-.46,2.46v-1.84c0-1.41.09-1.52.4-2,.76.1,1.32.37,2.71,3.32,1,2.11,1.71,3.63,3.64,3.95s3-.84,4.26-2.07a6.93,6.93,0,0,1,7-2.36A9.33,9.33,0,0,1,95,135c2.43,1.38,4.07,4,7,4.6a8,8,0,0,0,7-1.52c4.79-3.8,8.57-6.81,13.13-1.94,1,1.11,2,2.08,3.29,2.07,4.34,0,3.4-5.11,5.53-7.34v1.4"/><path class="cls-3" d="M80.7,126.68c-1.66-.15-1.67,3.07-.67,4.15.85.93,2,.14,2.15-1.42.09-1.29-.62-2.59-1.48-2.73"/><path class="cls-3" d="M103.74,128.12A2.25,2.25,0,0,0,102,132a2.39,2.39,0,0,0,4.06-1.63,2.27,2.27,0,0,0-2.36-2.24"/><path class="cls-3" d="M125.87,126.48c-1.7.46-1.81,3.79-.53,4.46s2.16-1.81,1.63-3.51c-.21-.69-.62-1.05-1.1-1"/><path class="cls-3" d="M131.29,152.75c0,1.29-.1,1.53-.41,1.94-.65.08-.87.11-1.79-1.59s-1.63-3-3.86-2.22c-3.62,1.33-4.53,6.31-8.9,6.63-.33,0-.76,0-1.09,0-4.9,0-7.48-5.67-12.6-5.11-4.5.49-7,5.5-11.85,5.21a10.34,10.34,0,0,1-1.1-.14c-4.24-.71-4.84-6.69-9.62-6.62-2.76,0-2.23,5.2-5.11,4.1-.8-.31-.81-2.67-.82-3.68v-1.86c0,3.82.68,5.09,1.88,3.79,3.48-3.77,3.48-3.77,3.94-3.77,5,0,6,6.48,10.83,6.78,2.69.17,4.17-1.07,5.75-2.38A10.28,10.28,0,0,1,105,151a8.85,8.85,0,0,1,5.11,2.25c2.47,2,6.61,5.38,11.07-.26,5.35-6.77,7.49-2.51,8.2-1.11.61,1.22.71,1.26,1.25,1.49.49-.39.6-.48.62-2.32v1.7"/><path class="cls-3" d="M74.88,141.76c-.63-.25-.48,3.63-.15,4.35.17.36.39.26.56-.25.46-1.39.06-3.83-.41-4.1"/><path class="cls-3" d="M90.52,144.45c-2.21,0-2.51,2.72-1.29,3.94a2,2,0,0,0,3.38-1.54,2.38,2.38,0,0,0-2.09-2.4"/><path class="cls-3" d="M116.08,144.37a2.41,2.41,0,0,0-1.29,4.12c1.41,1.19,3.39-.19,3.22-2.23a1.87,1.87,0,0,0-1.93-1.89"/><path class="cls-3" d="M130.83,141.57a4.9,4.9,0,0,0-.51,2.6c0,1,.22,2,.46,2,.4-.08.52-4.45.13-4.59,0,0-.06,0-.08,0"/><path class="cls-3" d="M130.93,165.74c-1.92,2.42-1.27,7.33-5.64,7.35-1.6,0-2.7-1.14-3.86-2.35s-2.56-2.68-5.79-2c-2.83.57-4.38,3-6.57,4.5a9.7,9.7,0,0,1-7.49,1.23c-3.21-.8-5-3.8-7.92-5.08a7.31,7.31,0,0,0-1.65-.5c-4.62-.81-6.52,5.2-11.12,4.44-2.26-.38-3.11-2.31-4-4.36-1.16-2.63-1.62-2.82-2.27-2.9-.27.41-.45.68-.46,2.45v-1.83c0-1.41.09-1.51.4-2,.65.08,1.22.15,2.71,3.32,1,2.1,1.71,3.62,3.64,3.94s3-.84,4.26-2.06a6.93,6.93,0,0,1,7-2.36,9.33,9.33,0,0,1,2.78,1c2.43,1.37,4.07,4,7,4.6a8.06,8.06,0,0,0,7-1.52c4.79-3.81,8.57-6.81,13.13-2,1,1.12,2,2.08,3.29,2.08,4.34,0,3.4-5.11,5.53-7.35v1.41"/><path class="cls-3" d="M80.7,160.11c-1.57-.14-1.69,2.83-.78,4s2,.48,2.24-1.06c.19-1.33-.54-2.79-1.46-2.95"/><path class="cls-3" d="M103.74,161.55c-2.37.13-3.11,2.54-1.7,3.87a2.39,2.39,0,0,0,4.06-1.63,2.28,2.28,0,0,0-2.36-2.24"/><path class="cls-3" d="M125.87,159.91c-1.71.47-1.81,3.79-.53,4.45s2.15-1.81,1.63-3.49c-.21-.69-.62-1.05-1.1-1"/><path class="cls-3" d="M74.14,183.6v-.74c0,.26,0,.61,0,.86a.5.5,0,0,1,0-.12"/><path class="cls-3" d="M84.17,186.62c-1.81-2.17-4.54-3.43-6.26-1.05-.36-.09-.7-.17-1-.27,1-1.65,1.76-2.7,3.82-2.36s3.43,1.84,5.14,3.87l-1.69-.19"/><path class="cls-3" d="M108.86,187.48a8.55,8.55,0,0,0-10.35.05c-.74,0-1.48,0-2.21-.06,5-4.17,9.83-4.19,14.7-.07l-2.14.08"/><path class="cls-3" d="M128.41,185.34c-1.53-2.37-4.06-1.09-5.77,1.11l-1.6.2c1.63-2.05,2.8-3.52,4.82-3.91s2.59.68,3.43,2.32c-.27.1-.56.19-.88.28"/><path class="cls-3" d="M74.88,175.19c-.62-.24-.48,3.64-.15,4.35.15.33.35.28.52-.13.52-1.29.12-3.94-.37-4.22"/><path class="cls-3" d="M90.52,177.89c-2,0-2.61,2.59-1.29,3.93a2,2,0,0,0,3.38-1.54,2.36,2.36,0,0,0-2.09-2.39"/><path class="cls-3" d="M116.08,177.81a2.41,2.41,0,0,0-1.29,4.11c1.41,1.2,3.4-.17,3.22-2.24a1.88,1.88,0,0,0-1.93-1.87"/><path class="cls-3" d="M130.83,175a4.84,4.84,0,0,0-.51,2.58c0,1,.22,2,.46,2,.41-.07.53-4.44.13-4.58a.08.08,0,0,0-.08,0"/><path class="cls-2" d="M74.15,71.55c.27-2.19,13.29-3.94,29.07-3.9s28.34,1.85,28.07,4-13.29,4-29.07,3.91S73.87,73.75,74.15,71.55Z"/><path class="cls-4" d="M86.93,71.57v115.3c-7.85-.73-13-2-12.79-3.39a0,0,0,0,1,0,0V71.57Z"/><path class="cls-5" d="M131.28,88c-.14,1.09-.36,1.83-.71,2-1.76.79-3.93-5.38-6.75-7.33-3.91-2.71-5.51-.1-6-.1s-.5,4-2.68,4.06.1-5.94-1.3-5.94-2.41,5.4-7,5.34-5.54-5-7.23-4.89,1.82,19.23-3.79,19.76,1.89-19.31-2.15-19.31-1.54,10.05-3.9,10.18S89.32,81.9,86.71,82s-2,13.45-10.24,12.18A4.23,4.23,0,0,1,74.15,93V71.57h56.11a1.9,1.9,0,0,1,.51.9c.08.34.33,3,.51,6.15A63.42,63.42,0,0,1,131.28,88Z"/><path class="cls-6" d="M73.23,73a4,4,0,0,1,2.49-3.07c3.07-1.17,10.2-2.82,26.12-2.82,2.3,0,4.43,0,6.4.09,1.48,0,3.45-.25,4.75-.18,1.9.1,4.93.21,6.49.36,11.3,1,12.15,3.49,12.29,4.14.2.88,1.57,16.73-.19,17.51s-3.93-5.39-6.75-7.34c-3.92-2.71-5.52-.1-6-.1s-.51,4-2.69,4.06.1-5.94-1.29-5.94-2.42,5.4-7,5.34-5.54-5-7.24-4.89,1.83,19.24-3.78,19.76,1.89-19.31-2.16-19.31-1.54,10.06-3.9,10.18S90.33,80.9,87.72,81s-2,13.45-10.24,12.18C70.79,92.11,72.4,78.13,73.23,73Z"/><path class="cls-7" d="M93.46,71.6c.09-.71,4.3-1.28,9.42-1.26s9.19.59,9.1,1.31-4.31,1.27-9.43,1.26S93.37,72.31,93.46,71.6Z"/><path class="cls-8" d="M108.4,51.23c0,7.58-1.19,13.74-5.68,13.74C98.48,65,97,58.81,97,51.23s5.5-19.76,5.69-19.76S108.4,43.64,108.4,51.23Z"/><path class="cls-9" d="M106.29,56.32c0,4.78-.75,8.65-3.57,8.65-2.67,0-3.58-3.87-3.58-8.65s3.46-12.43,3.58-12.43S106.29,51.55,106.29,56.32Z"/><polygon class="cls-10" points="103.53 71.66 101.98 71.66 102.51 57.06 102.92 57.06 103.53 71.66"/><path class="cls-11" d="M125.41,151.6h0a2.16,2.16,0,0,1-2.15-2.16V93.88a2.15,2.15,0,0,1,2.15-2.15h0a2.15,2.15,0,0,1,2.15,2.15v55.56A2.16,2.16,0,0,1,125.41,151.6Z"/></g></g></svg>