<svg id="Layer_1" data-name="Layer 1" xmlns="http://www.w3.org/2000/svg" viewBox="0 0 204.9 219"><defs><style>.cls-1{fill:#839a8e;}.cls-2{opacity:0.62;}.cls-3{fill:#6d8075;}.cls-4{fill:#657068;}.cls-5{fill:#5f6661;}</style></defs><g id="Layer_6" data-name="Layer 6"><path class="cls-1" d="M176.1,43.85c0-6.18-33-11.19-73.65-11.19s-73.65,5-73.65,11.19a2.53,2.53,0,0,0,.93,1.77l50,95.73a.54.54,0,0,0,0,.21L94.3,186.2a14.51,14.51,0,0,0,8.15,2.58c4.26,0,6.46-1.11,8.15-2.58l14.54-44.64a.74.74,0,0,0,0-.21l50-95.73A2.52,2.52,0,0,0,176.1,43.85Z"/><g class="cls-2"><path class="cls-3" d="M103.24,115.79c7-13.06-.12-21.33,7.26-35.78C122.86,55.79,153.16,59,156.9,41.9a15.73,15.73,0,0,0,.14-6c11.55,2,18.56,4.57,18.56,7.42a2.44,2.44,0,0,1-.93,1.78l-50,95.73c0,1.9-10.18,3.45-22.73,3.45s-22.74-1.55-22.74-3.45l-2.87-5.5C87.79,131.81,97.85,125.83,103.24,115.79Z"/></g><ellipse class="cls-4" cx="102.45" cy="43.34" rx="73.65" ry="13.1"/><path class="cls-5" d="M32,47.19a341.78,341.78,0,0,1,140.07.43,11,11,0,0,0,1.3-.72A6,6,0,0,0,175.52,45a3.25,3.25,0,0,0,.54-1.84,3.31,3.31,0,0,0-1.37-2.34,16.49,16.49,0,0,0-1.81-1.29,20.57,20.57,0,0,0-3-1.42c-15.2-5.58-38.43-6.78-38.43-6.78-25.86-1-23.2-1-25.81-1.05A342.17,342.17,0,0,0,70.28,31.6c-31.53,2.55-37.8,7.84-39.55,8.75a3.63,3.63,0,0,0-1.93,3C28.82,44,29.15,45.5,32,47.19Z"/></g></svg>