<svg id="Layer_7" data-name="Layer 7" xmlns="http://www.w3.org/2000/svg" xmlns:xlink="http://www.w3.org/1999/xlink" viewBox="0 0 204.9 219"><defs><style>.cls-1{fill:#cfc;opacity:0.12;}.cls-2{fill:url(#radial-gradient);}.cls-3{fill:#06602b;}.cls-4{fill:#dcffdc;opacity:0.11;}</style><radialGradient id="radial-gradient" cx="102.45" cy="109.5" r="70.67" gradientUnits="userSpaceOnUse"><stop offset="0" stop-color="#8dc63f"/><stop offset="1" stop-color="#6cb24a"/></radialGradient></defs><ellipse class="cls-1" cx="73.12" cy="81.94" rx="22.32" ry="10.38" transform="translate(-36 69.62) rotate(-41.81)"/><ellipse class="cls-1" cx="55.55" cy="107.81" rx="5.71" ry="4.31" transform="translate(-63.67 130.06) rotate(-73.31)"/><path class="cls-2" d="M171,109.5c0,40.17-30.69,72.73-68.54,72.73S33.91,149.67,33.91,109.5,64.6,36.77,102.45,36.77,171,69.33,171,109.5Z"/><path class="cls-3" d="M100.75,181.31c-.76-1.08-2.3-1.18-3.25-1.29-.36,0,.13-1.64-.25-1.82a11,11,0,0,1-2.73-2c-.24-.33-2.38-1.79-2.63-2.28-1.07-1.82,1.14-2.56.18-3.93-.45-1.39-5.82-2.42-3.72-2.87a16.84,16.84,0,0,1-3.86-3.69c-1.1-.74.7-1.63-1.29-2.75-1.73-1.12-3.67-2.47-2.53-4.17-4.12-1,1-.54-2-1.59-1.08-1.3-3.47-1.75-1.52-2.85-1.42-1.1-1.32-.48-3.13-2.91.08-1.16-1.68-3.17-1.59-4.37-4.88-1.22-1-4-2.16-5.23-.83-1.27-5.58-.4-3-1.71-4.47-1.31,0-3-2.43-4.38.84-3.47,1.28-5.12-.21-6.53-.1-1.4-.83-2.35,1-4.22-3.25-1.46-1.84-2.66-1.95-4.17,2.86-1.5-4.12-3,.42-4.58-5.58-1.54.76-3.4,1.39-5-3.32-1.36-2.5,0-2.08-5.27,1.12-1.5,2.44-3.23.41-4.85,2-1.62-.75-2.45,1.81-4.17,2-1.71-1.94-3.07.14-4.85-3.87-1.79-3.47-4.13,1.11-6-.82-1.84,2.61-2.75,3.47-4.63a6.19,6.19,0,0,1-2.8-2.81c-.86-.94,2.62-1.88,4.33-2.82,2.3-1,2.37-1.89,2.08-2.83s-.9-1.88,0-2.81c3.3-1.74,4.58-3,2.67-4.51C75.1,61.93,77,60,79.93,57c1.36-1.33.1-3.3,4.12-5.24,4.58-1.94-3.47-3.85,5-5-4.69-1.61,4.44-2.26,5.93-3.31-3.87-.93,2.67-2.18,5.91-4.71a1.4,1.4,0,0,1,.26-.2,5.9,5.9,0,0,0,.78-.81s0,0,0,.09c0-.31.09-.62.13-.94a19.92,19.92,0,0,0-4,2c-1.35.86-1.35.75-5.43,1.68.63.89-7.35.88-6,2.07-2.24,1.21-6.18,4.47-4,4.36,1.09.65-4.63,1.83-4.57,3,.68,1.13,4.06,1.83-4,3.16,3.15,2.2-5.34,4.07-5.66,5-.13,1,4.33,1.69,1.57,3.2-1.37,1.38-8.21,2.53-7.13,4,4.47,1.48-.89,3.29.53,4.89A34.3,34.3,0,0,0,60.63,74c-3.94,1.27,2.34,2.58-1.44,3.92.33,1.35,3.7,2.73-.3,4.15,0,1.42-1,2.88-2.9,4.38-3.64,2,2.35,4.07-1.56,6.22-7,2.14,1.79,4.37-1,6.67-.92,1.15-3.49,2.16-3.58,3.36,2.16,1.19-3.36,2.82,1.63,4,2.92,2.07.57,4.06.22,6s-.58,2.68.66,4.55a4.47,4.47,0,0,1,.1,6.43c3.26,1.8,4.31,4.14,1.21,5.84-.33,1.7,1.09,3.74-.12,5.35,2.31,1.61,3.93,2.31,5.31,3.84-1.24,1.52-3.64,3.13-1.82,4.57,2.53,1.43,3,2.7,2.07,4,0,1.35-1.27,3.38.87,4.65,2.59,1.27,6.66,3.36,5.45,4.55-2.49,2,2.93,5.18,2.39,6.93,1.06,1.74,9.37.44,9.57,2,1.37,2.35-2.59,3.44,4.72,4.39,5.64.95.71,2.75,3.25,4.52,3.4,2,4.26,1.77,5.62,2.37a12.4,12.4,0,0,1,3.86,2.08,7.87,7.87,0,0,0,4.07,2c.09,0,3.06,1.33,3.15,1.36S100.83,181.42,100.75,181.31Z"/><path class="cls-3" d="M167.29,126.48c1.54,3-.9,6.7-2.09,9.47a1.73,1.73,0,0,1,.42,1.82,76.29,76.29,0,0,0,5.24-23.85,9.75,9.75,0,0,1-1.56,3C168.23,120.26,168.81,123.44,167.29,126.48Z"/><path class="cls-3" d="M99.74,181.46,94.52,180c-1.59-.45.65,1.36-1.14,1.25-1.26-.69-2-1.66-3.49-2.45a19.32,19.32,0,0,0-4.78-1.7c-.94-1.48-.75-1.53-5.34-2.48-1.44-.94-4.52-1.75-5.34-2.67-3.38-1.19-5.76-1.7-5.55-3.06a19.24,19.24,0,0,1-5.35-4.45,6.58,6.58,0,0,1-3.81-5c-1.29-1.1-.87-1.29-4.13-2.47,0-1.18-3-4.84-1-6.1-2.88-1.26-3.38-2.56-3-3.9-1.77-1.34-2.33-2.73-4.54-4.15-3.14-1.43-.23-2.91-.74-4.41a9.92,9.92,0,0,0,.59-4.67c-.35-1.6-1.56-3.24-4.6-4.92-3.55-3.37.82-6.92-2.37-10.64-1.62-1.87.22-3.77,0-5.73-.45-1.95.09-4-.41-6-.78-2.44,1.65-5.06.94-7.8-1.2-2.75,3.3-5.63,2.3-8.59-2.86-3,3.71-6,3.95-9.12-2.56-1.55,1.51-3.11,2.7-4.68q1.45-2.34,3.22-4.7c-2.31-3.14-.4-7.66,4.53-10.75,5.7-1.55-3-2.32,5.77-3.76,4.78-1.44,2.22-3.17,5.88-5,2.92-1.64,4-3.89,5.67-5.64,8.74-1.74,5-3.93,8.93-3.86,3.36-2.42,5.63-4.25,8.39-4.25,3.48,0,7.24-1.51,10.33-1.56h0v0C64.41,37,33.91,69.45,33.91,109.5c0,39.47,29.63,71.6,66.57,72.7a1,1,0,0,0-.1-.17C99.8,181.8,99.89,181.93,99.74,181.46Z"/><path class="cls-3" d="M105.45,40.36c0,7.07-3.42,10.37,1.44,11.89,1.79-.46-4.8.78,1.52,10.07,1.11,1.38,2,6.73,1.52,7.95s-.23,3.29.85,3.24c-.74,3.87-.67,5.63,2.12,2.41-.48,3.07-4.23,5.57-2,6.82-2.21,2.93,2.83,4.61,2,6.86-.16.43-.26.68-.32.81.11-.14.35-.22.51.84.33,2.34-3.51,7-.21,5.9,1,3.19.63,3.4-.33,5.64-2.22,7.94,1.72,3.38,1.58,5.4-2.29,7-2,4.49-2.22,8.9-.12,2.21,0,4.4,1,3.92,0,.64-.07,1.24-.08,1.8.07-.26.14-.52.22-.8-.08.37-.16.72-.23,1,0,4,1.1,5.58,6.48,2.06-6.72,4.46-7.79,4.33-6.48-2.06,0-.08,0-.17,0-.25-2.28,8.24-1.49,6.24,2.7,9.47,2,1.25-8.87,3.25.68,13.22-6,3.06-4.79,7.18-5.37,11.18-1.69-7.39-3.32-1.19-2.46,1.73-.35.63,2.08,9.59-.06,11.4-6.29,5.32-4.52,8.8-5.47,11.62.15,0,.06,1.13.46.37.29-.37.63-1.06,1.07-1.11,0-.13.07-.28.12-.43.72-1.51-.28-.52.91-1.87,2-2.23,5.43-3.91,3.69-5.06-.83-1.15,4.68-2.52,3-3.58,2.11-1.31-2.08-5.28,1.53-7.17-.76-1.88,1-3.9,2.19-5.77-.76-2.17,1.24-4.46,2.09-6.74a47.88,47.88,0,0,0,1.91-6.65c-.24-1.23,1.06-2.48,2-3.75-1.07-1.27,4.92-2.57-.34-3.89-3-1.33,1.06-2.68-1.07-4.05,5-1.37-5-2.77,2.36-4.19-.88-1.43,2.93-2.87.48-4.34-.06-1.48,1.11-3,.35-4.49,4.41-1.51,0-3,.22-4.61s-2.69-3.15.08-4.76c-.17-1.86,2.48-3.71-.1-5.51-2-1.82.07-3.6-.3-5.35-.08-1.16-1-2.32-1.47-3.46a2.47,2.47,0,0,1,.81-3.39c3.28-1.12,5.86-2.21,1.71-3.3a5.54,5.54,0,0,1-2.65-3.23C124.76,84,127,83,121.2,82c-2.38-1-3.59-2-.54-3-5.77-1.13-2.26-2.24-.74-3.33-.43-1.09.3-2.16-.79-3.22s.36-2.08-.48-3.09c3.47-1,2.31-2-1.25-3-1.93-1.41.25-2.59.92-3.6-2.66-1,3.3-1.87-2.76-2.64-7.25-1.56-3-2.81-1.9-4.44-3.6-1.55-5.71-2.49-1.91-3.65,1.33-1.16-1.32-2.54-1.85-5,0-1.36-1.17-3.49-1.72-5s-1.08-2.43-1.56-1.37a3.77,3.77,0,0,1-1.65-2c-.61-.17-1.21-.36-1.79-.58-.48-.95-.75-.92-.9-.74C103.17,39.49,104,41.66,105.45,40.36Z"/><path class="cls-3" d="M118.69,45.77c3.36,1.38,4.06,3,5.58,4.74,3.58,1.76,1.17,3.67,4.63,5.65,2.87,1.64,1.54,3.48,3.76,5.38,5.41,1.91,4.5,3.87,3,5.77-3.55,1.26-.84,2.52,2.3,3.79,1.44,1.27,0,2.54.64,3.81,2.5,1.27-.26,2.53,2.57,3.8,3.53,1.26-.32,2.51-.63,3.76,1.47,1.25,2,2.5,3.24,3.73-.4,1.22.13,2.45-2,3.65,1.31,1.8-7,3.58.51,5.31-1.74,1.74,1.92,3.43.3,5.07.75,1.64.22,3.22-2.09,4.74-2.1,1.52-.64,3,2.42,4.37-3.92,1.61-4.57,3.19-1.73,4.75-2.69,1.56-.41,3.11,1.5,4.62a8.4,8.4,0,0,0-1.05,4.48,15.76,15.76,0,0,1-.33,4.34c1.32,1.43,2.75,2.82.23,4.2,2.59,1.37-.84,2.72-2.55,4-3.79,1.33-1.1,2.63-.46,3.9,1,1.27-2.85,2.52-2.64,3.75-4,1.22-3,2.28-3.32,3.28a16.6,16.6,0,0,0-.35,2.93c-1.91,2-7.77,4.1-4.08,7.17-6.63,1.66-2.36,4-4.29,6.16.16,2.11-5.52,4-4.32,4.56-4.51,1.19.46,2.34-4.16,3.61,1.1,1.26-1.27,3.34-1.16,5a10.52,10.52,0,0,0-6.74,2.9,9.76,9.76,0,0,1,3.76-.9c1-1.26,6.27-1.45,5.63-2,.53-.54,3.87-1.79,3.51-3.74,1.19-.92,3.09-.58,5.66-1.8,4.71-1.22,1.85-3.52,4.94-5.49,1.85-1.57,5.16-1,7.37-2.87a41.73,41.73,0,0,1,5.73-5.44c0-1-2-2.87-1.1-3.89s2.68-1,3.41-2c3.08-1.09-1-3.92,1.34-5.06,3.32-1.14,2.48-2.2,4.27-3.4-2.55-1.21-1.29-3.46-.31-4.72-1.08-1.26,4.48-2.52,3.23-3.84-1.54-2.64,1.79-6.35.19-9.24a3.29,3.29,0,0,1-1-3.45c.23-1.51,1-2.76,2.74-4.33,4-1.57.25-3.42,1-5.06,1.72-1.63,2.2-3.74-1.47-5.44-.1-1.94,4.38-4.1.68-5.93a7.8,7.8,0,0,1-.55-5.45c-1.24-1.73.53-2.76,0-4.4,2.13-1.65-3.39-3.32,0-4.87-2.8-1.55,1-4-1.2-5.41-.67-1.46-3.41-2.32-3.35-3.69,3.19-1.38-3.43-3.61-2-4.91-3.92-1.3-1.61-3.31-.92-4.53-4.92-1.22-8.11-1.91-4.26-3.06-2.93-1.15-3.64-3-2.93-4,.28-1.35-.85-2.62-4.26-3.28-1.41-1.24-4.59-1.11-3.57-2.26,2-1.19-3.44-3.4-4.35-4.72-1.18-1.33-5.56-2-3.72-3.67-1.47-1.89-6.23-1.9-7.7-2.29a10.93,10.93,0,0,1-5.52-3.73c-.62-.1-1.14-1.07-3.06-1.74-.78-.27-3.64-.87-4.38-1.12a5.53,5.53,0,0,0-2.29-.28c.52.29,3.84,2.53,5.66,3.38.52.24.43-1.41.94-1.18,1.62.76,2.07,1.91,2.5,2.15A37.08,37.08,0,0,1,118.69,45.77Z"/><path class="cls-3" d="M102.68,170.93c-1.25-1.73-4.48-3-3.25-4.92,1.43-2.23,3.33-4.58,2.85-7-.07-2.95-4.38-4-6.67-5.62-.31-3.2,6.47-9.38-1-9.68-1.15-2,3.51-6-3.07-10.53,6.31,1,6.22-.22,1.73-4,3.86,1.77,3.33,1,.13-.93,3-.47,3.39-2.11,2.47-3.76,0-.62,1.27-1.56-1.33-1.66-3-.63,4.34-5.69-1.53-8.61-1.81-.88,3.46-2.33-.9-5.53,1.42-.61-.31-2.31,1.26-3,2.66.11,2.73-1.3,1.56-3,.39-.12-.46-.48-2.13,0,3.28-5.5,7.32-8.43.66-8.86C91.5,93,94.78,88,93.06,85.18c6.17.65,3.22-1.93.19-7,3.19,2.1,3.26.93,1.73-2.33-.36-1.5.42-1.19.64-1.18a2.28,2.28,0,0,0,1.13-2.5c-.14-.5-.09-2.34-1-2.44s1.28-2.17.88-3,1-5.11-2.35-2.57c-.28-2.15,6.1-5.07,3.4-10.41,3.74-1.53,3.33-4.3,2.85-9.28,1.1.61,1.26-.42.17-4.49.58,1.33.9-.21,1.19-2.22l0-.13c-.22.6-.49.62-.78.81l-.26.2c-.32.33-.68,1-1.06,2.94-.43.41,2,1.09-1.39,2.12-3.57,1-.7,2.4-1.54,4.18-5,3.35-3.35,4.81-1.66,5.77-.68,1-8.45,1.76-3.78,3.08.32,1.71-.12,1.59-1.46,3.44,1.47.93-2.54,3.2-2.5,4.06-1,.86,4.62,1.14,1.35,1.87-2.7.66,4.17,3.64-4.06,6-.09,1.2.75,2.68.63,4a6.33,6.33,0,0,1-1.25,3.33c-3.78,1.48-1.28,3.34-.94,4.89.73,1.42.14,2.73-2.08,4.34,0,1.61,1.18,2.09,0,4.23-1.18,1.67.17,1.17-.76,5s.18,2.54-1.32,4.33c.73.9,4.09,3.68,2.83,4.59-.21.91-8.49,2.43.08,3.35-3.36,1.59.87,2.64-.26,4.19-2.27,1.55-2.62,4.12-.15,5.62-1.5,3,3.24,5.09-.11,7.91,0,1.41,1.27,2.8,1.56,4.16,2.32,1.36-1.34,2.49,1.3,3.8.86,1.31,2.6,1.8.09,3.06s4.48,5.63.7,6.83c.68,1.21,1.5.43,2,1.36-2.29.92-2.46,2.3.28,3.22,5,.92-5.15,3.29.52,4.48.38,1.18,3,1.05,2.39,2.77-3.49,1.78,2.71,2.53,1.62,4.29-1.83,1.77,3.3,3.15,2,4.91-.91,1.08,2.72,3.39,2.75,5s1.14,3.86,1.67,4.1c1.06,5.71,2.22,3.71,2.85,5.17.21.38.66.55.81,1.14l.88,0a31.8,31.8,0,0,0-1.28-5.66,9,9,0,0,0-1.11-2.34C100,173.48,103.5,172.08,102.68,170.93Z"/><path class="cls-3" d="M123.05,41.43c2.53,1.52,8.47,3.52,9.43,4.82,2.34,1.3,5,4.53,7.25,6.22,4.56,1.45,1.51,2.84,6.16,4.33,3,.94,2.62,3.17,2.37,5.39,4.45,1.53,7.26,3.33,4.75,4.87-.85,1.53,1.71,1.9,4.76,3.45-.31,1.54-.29,4.54,4.08,6.08,0,1.53-2.12,3.32.14,4.84A28.62,28.62,0,0,1,164.78,86c.72,1.49,2.55,3,2.74,4.48.43,2.92.51,5.7,1.09,8.4-.77,1.34.2,2.66.67,3.94-1.12,1.28-3.57,2.52.35,3.72a11.56,11.56,0,0,1,1.35,3.32c0-.11,0-.21,0-.32,0-38.63-28.39-70.22-64.23-72.58A18.19,18.19,0,0,1,113.69,39C116.67,40.82,120.36,40.76,123.05,41.43Z"/><path class="cls-3" d="M165.56,137.91c-.84,1.8-4.61,3.31-6.39,5.17,1.19,1.25-1.07,3.25-1.65,4.44-.93,1.18.75,2.58-.24,3.69-3.22,1.86-4.46,3.47-3.78,5.16-2.18,1.68-4.59,2.87-4.51,4.37-1.11,2-5.2,3.91-9.87,5.15-2,1.25-2.48,3.39-5.11,4.38-1.7,1.69-5,1.69-6,2.43-.47.74-3.28,4.55-6.41,6-1.86,1.34-3.39-1.4-6-.43-1.55,1-5.47,4.24-6.82,3.19-2.68-.08-2.42-.65-4-.43l-.42.2a.92.92,0,0,1-.59.88l-.08.15C131.56,181.65,155.3,163.55,165.56,137.91Z"/><path class="cls-4" d="M119.31,73.36c0,14.34-14.85,26-33.16,26S53,87.7,53,73.36,67.84,47.41,86.15,47.41,119.31,59,119.31,73.36Z"/></svg>