<svg id="Layer_11" data-name="Layer 11" xmlns="http://www.w3.org/2000/svg" viewBox="0 0 204.9 219"><defs><style>.cls-1{fill:#8ed2eb;}.cls-1,.cls-2{opacity:0.8;}.cls-2{fill:#e1f2fc;}.cls-3{fill:#5bc4e8;opacity:0.4;}.cls-4{fill:#fff;opacity:0.24;}.cls-5{fill:#42b8d6;opacity:0.19;}</style></defs><path class="cls-1" d="M165.25,148.85c-9.08-8.09-37.69-24.94-45.83-26.1-9.87-1.41-68.82-5.22-68.19,7.31v.2c.24,1.74,0,2.74.62,4.34,1.49,3.57,4.42,5,7.59,6.68.59.31,1.2.62,1.8,1q5.7,3.18,11.41,6.33c5.55,3.06,11.12,6.1,16.72,9.07,3,1.62,6.6,4.16,10,4.92,3.17.7,51.36-4.53,59.56-6.3,4.17-.89,5.69-3.46,6.21-6.88"/><path class="cls-1" d="M59.35,141c-3.17-1.64-6.1-3.1-7.59-6.68-1.89-4.5-1.72-9.83-1.53-14.61.65-15.83.17-39.74-.07-46.53s.72-16.48,11.38-16.8A237.46,237.46,0,0,0,88,54.09c10.34-1.3,31.66-5.17,39.42-2.27,9.06,3.4,18.1,7.21,26.87,11.32,1.84.86,4.06,1.48,5.67,2.71,0,0,8.4,3.5,8.4,14.18,0,6.77-.59,13.55-1,20.31-.34,6-.59,12-.95,18.06-.34,5.87-.63,11.77-1.2,17.63-.68,7.11,2.91,18.25-6.32,20.23-8.2,1.77-56.69,7-59.87,6.3-3.43-.76-6.77-3.6-9.82-5.22q-8.4-4.47-16.72-9.07-5.72-3.15-11.41-6.33C60.55,141.6,59.94,141.28,59.35,141Z"/><path class="cls-2" d="M152.28,71.42s-47,7-50.28,9.87,0,5.63,0,10.33,1.31,56.87-1.46,61.1-2.77-13.63-2.3-21.15S98,91.62,98,91.62a15,15,0,0,0-8.46-8.22C83.2,81.05,56,68.6,56.18,66S56.65,61.55,59,63,86.73,76.12,90.72,76.35s56.86-8.69,59.21-8.93S157.4,70.63,152.28,71.42Z"/><path class="cls-3" d="M57.24,124.8s-.35,4.35,1.11,6.22c1.23,1.58,3.5,2.52,5.11,3.7a52.42,52.42,0,0,1,4.26,3.47c.47.43,2.36,1.85,2.29,2.62s-1.35-.08-1.74-.29a50.66,50.66,0,0,1-10.73-8c-1.25-1.18-3.55-3-2.83-4.92a13.61,13.61,0,0,0,.64-5.89,86.69,86.69,0,0,1-.3-10.81c.16-3,.54-6,.67-9,0-.39,0-4.38.47-4.28s.51,2,.55,2.27c.26,1.77.39,3.56.48,5.34.25,4.48.21,9,.13,13.47q0,3-.11,6.1"/><path class="cls-4" d="M68.75,61.77s-9.63-4.92,10.46-3.51,26.78,2.7,32,.7,11.4-3.29,14.69-2,4,2.7,10.57,4.11,17.86,3.76,4.12,4.58c1.23-.2-44,7.61-48.29,6.23C88.61,70.71,68.75,61.77,68.75,61.77Z"/><path class="cls-5" d="M89.07,90.46S73.17,77.59,66,79.35c-8,2-5.53,19.09-4.38,24.78s6.77,11.44,7.3,15.36,2.15,7.37,4.68,11.29,5.53,7.14,10.14,8.75,8.76,3.29,8.3-4.92S99.36,96.67,89.07,90.46Z"/><path class="cls-4" d="M157.7,83.39s5.88,30.85,2.36,37.13-15.52,22-22.47,23.92-5.21-19.22,0-24.71S144,99,144,94.08,150.64,62.74,157.7,83.39Z"/><path class="cls-4" d="M124.44,84.75S104.2,81.4,105.33,97.61s1.2,29.23,1.2,29.23,7.21,5,8.33-2.77,2.53-24.69,9.58-26.46S128.67,87,124.44,84.75Z"/></svg>