<svg id="c2" xmlns="http://www.w3.org/2000/svg" viewBox="0 0 204.9 219"><defs><style>.cls-1{fill:#cac9c9;}.cls-2{fill:#f2f2f2;}.cls-3{fill:#ffe10e;}.cls-4{fill:#fcbd12;}.cls-5{fill:#ffd10c;}.cls-6{fill:#f59a1e;}.cls-7{fill:#fdd5a0;}.cls-8{fill:#f7a81f;}.cls-9{fill:#ffe751;}.cls-10{fill:#cca70c;opacity:0.32;}.cls-11{fill:#fff;opacity:0.53;}.cls-12{fill:#c5c5c4;}.cls-13{fill:#a9a9aa;}</style></defs><path class="cls-1" d="M72.06,114.36V189.1h0c.12,2.94,13.5,5.33,30,5.33s29.88-2.39,30-5.33h0V114.36Z"/><path class="cls-2" d="M69.14,106.74v79.58h0c.12,3.39,14.85,6.14,33,6.14s32.88-2.75,33-6.14h0V106.74Z"/><rect class="cls-1" x="72.06" y="62.24" width="59.99" height="66.67"/><rect class="cls-2" x="69.14" y="48.07" width="66.02" height="80.85"/><path class="cls-3" d="M135.16,106.74V45.51h-66V183.76h0c.12,3.4,14.85,6.14,33,6.14s32.88-2.74,33-6.14h0Z"/><circle class="cls-4" cx="120.45" cy="64.77" r="10.3" transform="translate(-10.52 104.14) rotate(-45)"/><path class="cls-4" d="M135.16,135.47a18,18,0,0,0-2.44-.17,18.27,18.27,0,0,0,0,36.54,18,18,0,0,0,2.44-.17Z"/><path class="cls-5" d="M93.19,76.45a30.22,30.22,0,0,0-24,11.88v36.83a30.29,30.29,0,1,0,24-48.71Z"/><path class="cls-4" d="M79.65,142.28a24.77,24.77,0,0,0-10.51,2.33v39.15h0c.09,2.63,8.91,4.86,21.3,5.74a24.85,24.85,0,0,0-10.8-47.22Z"/><path class="cls-6" d="M76.37,137l-3.48-2.16,36.47-58.69,3.47,2.16a34.55,34.55,0,0,1,11.11,47.58h0A34.55,34.55,0,0,1,76.37,137Z"/><path class="cls-7" d="M108,78.33h0L74.53,132.17h0c16.2,10.07,36.83,6.18,46.07-8.69h0C129.83,108.61,124.19,88.4,108,78.33Z"/><path class="cls-8" d="M92.48,110l5.64,24.16a1.55,1.55,0,0,0,1.78,1.17,28.92,28.92,0,0,0,17.73-10.8,1.54,1.54,0,0,0-.41-2.25L94.79,108.29A1.54,1.54,0,0,0,92.48,110Z"/><path class="cls-8" d="M91.05,110.55a1.54,1.54,0,0,0-2.81-.46L75.52,130.56h0a34.52,34.52,0,0,0,19.55,5.27,1.54,1.54,0,0,0,1.44-1.89Z"/><path class="cls-8" d="M120.24,120.32a28.86,28.86,0,0,0,2-20.74,1.53,1.53,0,0,0-1.83-1.08l-24.34,5.68A1.54,1.54,0,0,0,95.6,107l22.45,14A1.54,1.54,0,0,0,120.24,120.32Z"/><path class="cls-8" d="M119.56,97.13A1.54,1.54,0,0,0,120.62,95a34.49,34.49,0,0,0-13.45-15.37h0L94.31,100.32A1.55,1.55,0,0,0,96,102.64Z"/><path class="cls-9" d="M134.76,44.55l-6-14.54h-53q-3.12,7.26-6.23,14.51a1.51,1.51,0,0,0-.43,1c0,3.41,14.78,6.18,33,6.18s33-2.77,33-6.18A1.5,1.5,0,0,0,134.76,44.55Z"/><path class="cls-10" d="M134.08,106.74V47.08L127.42,30H115.69L116.77,34l5.67,16.44v138.2c5.63-.82,9.79-2,11.64-3.31Z"/><path class="cls-11" d="M84.45,33.22l-4.17-.69Q77.57,40.75,74.86,49l-.18,138.15a56.07,56.07,0,0,0,6.88,1.41l.66-138.11Q83.33,41.83,84.45,33.22Z"/><path class="cls-12" d="M75.15,29v2.15c0,2.11,12.06,3.83,26.94,3.83S129,33.22,129,31.11V29Zm26.94,3.93c-9.6,0-18-.71-22.79-1.78h45.57C120.1,32.18,111.68,32.89,102.09,32.89Z"/><path class="cls-13" d="M128.06,30.08c.63-.32,1-.66,1-1,0-2.11-12.06-3.83-26.94-3.83S75.15,27,75.15,29.06c0,.36.34.7,1,1,3.14-1.61,13.58-2.8,26-2.8S124.91,28.47,128.06,30.08Z"/><ellipse class="cls-2" cx="102.09" cy="30.08" rx="25.97" ry="2.81"/><path class="cls-2" d="M112,31.12a24.18,24.18,0,0,1-8.8-.2c-4.62-.77-9.15-1.69-9.46-3.09a1.3,1.3,0,0,1,.14-1.08,1.25,1.25,0,0,1,1-.35,31.68,31.68,0,0,1,4.24.29l8.79,1,5.66.65a1.93,1.93,0,0,1,.91.27C116.11,29.8,112.73,31,112,31.12Z"/><path class="cls-12" d="M104.9,30.16c-1.75-.18-10.08-.59-11-3.42h0a1.3,1.3,0,0,0-.14,1.08c.31,1.4,4.84,2.32,9.46,3.09a24.18,24.18,0,0,0,8.8.2,6.69,6.69,0,0,0,2.36-1C111.7,31.11,106.56,30.33,104.9,30.16Z"/></svg>