<svg viewBox="0 0 696 200" xmlns="http://www.w3.org/2000/svg" xmlns:xlink="http://www.w3.org/1999/xlink"><clipPath id="a"><rect height="184.43" rx="4.58" width="658.64" x="36.55" y=".96"/></clipPath><rect height="184.43" opacity=".25" rx="4.58" width="658.64" x=".81" y="14.62"/><rect fill="#3f1a0b" height="184.43" rx="4.58" width="658.64" x="36.55" y="14.62"/><rect fill="#fff8f9" height="184.43" rx="4.58" width="658.64" x="36.55" y=".96"/><g clip-path="url(#a)" fill="#cc712b"><path d="m739.81 31.55c-93.61 7.59-187.69 8.11-281.57 5.74s-187.36-7.29-280.99-11.63l-159.84-7.36a.55.55 0 1 0 0 1.09q141.7 6.52 283.42 13c93.41 4.24 186.91 8 280.46 7.06 52.91-.45 105.81-2.54 158.52-6.81.76-.06.76-1.15 0-1.09z" opacity=".13"/><path d="m737 47.71c-47.36 3.25-94.83 4-142.3 2.71s-94.75-3.32-142.11-5.05l-285.86-10.43-160.41-5.86a.55.55 0 1 0 0 1.09l287.28 10.49c95.1 3.47 190.2 7.28 285.31 10.34 52.74 1.76 105.42 1.41 158.09-2.2.76 0 .77-1.14 0-1.09z" opacity=".13"/><path d="m499.22 84.41q-13.47-2.07-27.1-3a206.51 206.51 0 0 0 -25-.53c-6.67.38-13.61 1.48-19.34 4.8-5.07 2.93-10.54 8.6-7.62 14.4 2.46 4.88 9.16 7.26 14.5 8.42a182.31 182.31 0 0 0 26.07 3.5 203.32 203.32 0 0 0 27 .11c6.83-.43 14.55-1.45 19.56-6.17 3.69-3.47 5.09-9.52 2.4-13.85-1.55-2.49-4.27-3.74-7.32-4.06-2.08-.23-4.2-.21-6.29-.31s-4.37-.21-6.56-.3c-12.36-.54-24.75-1-37.12-.74-5.25.1-10.71.15-15.86 1.21-1.14.23-3.67.67-3.76 2.1a1.2 1.2 0 0 0 .39.91s.11.09.15.14.11 0 .14.1c-.15-.2.11.48 0 .24.07.14.15.28.23.42s.33.54.52.8a11.37 11.37 0 0 0 1.41 1.62c4.23 4 11 5 16.8 5.4a251.07 251.07 0 0 0 27 0q6.67-.3 13.33-.91c.76-.07.77-1.16 0-1.09q-13.11 1.19-26.31 1.22c-4.28 0-8.57-.07-12.84-.27a47.8 47.8 0 0 1 -9-1.16 18.31 18.31 0 0 1 -7.8-3.66 11.76 11.76 0 0 1 -2.43-3.16 1.75 1.75 0 0 0 -.33-.42c.1.12 0-.1-.09-.14s.06 0 0 0 0 .17 0 0c0 .17.1-.07 0 0a3.62 3.62 0 0 1 1.3-.67c3.46-1.11 7.43-1.19 11.05-1.37 9.41-.46 18.87-.27 28.28 0 7.62.21 15.23.54 22.84.91 3.5.17 7.48-.12 10.11 2.4a8.27 8.27 0 0 1 2.27 6.7 11.14 11.14 0 0 1 -3.14 7 19.49 19.49 0 0 1 -8.74 4.62 53.12 53.12 0 0 1 -10.38 1.48c-4.27.27-8.55.39-12.83.39a207.37 207.37 0 0 1 -25.71-1.71q-6.3-.81-12.52-2a36.57 36.57 0 0 1 -8.82-2.73c-2.49-1.19-4.95-2.8-6.28-5.13-1.57-2.75-.78-5.81 1.1-8.26 3.82-5 10.21-7.54 16.53-8.73 7-1.31 14.14-1.17 21.2-1q13 .36 25.89 1.81c4.28.47 8.54 1 12.79 1.7.75.12 1.07-.93.32-1z" opacity=".13"/><path d="m738.39 86a845.56 845.56 0 0 0 -150.39 2.84c-21.38 2.34-43.62 4.59-63.6 12.37-10 3.89-18 9.86-27 15.26-10.48 6.28-21.93 6.78-34.1 6.1-49.27-2.76-98.27-8.84-147.08-15.36-48.3-6.45-96.52-13.45-145-18.55s-97.63-8.3-146.62-7q-9.15.26-18.3.71a.55.55 0 1 0 0 1.09c49-2.42 98-.14 146.71 4.46 49.37 4.66 98.42 11.61 147.5 18.26 48 6.5 96.19 12.74 144.63 16.28 11.46.83 23.44 2.38 34.91 1.09 10.61-1.19 18.38-6.36 26.79-12 18.07-12 39.87-16.39 61.62-19.3a836 836 0 0 1 151.24-6.25q9.34.45 18.69 1.11a.55.55 0 1 0 0-1.09z" opacity=".13"/><path d="m741.19 76.19c-48.41-3.62-97.36-7.26-145.73-1.33-23.79 2.91-47.76 10.76-72 9.12-12.43-.84-23.63-5.43-35.49-8.41a116.89 116.89 0 0 0 -32.85-3.09c-22.73.83-44.84 6.29-67.27 9.26-24.68 3.26-48.85 1.26-73.53-1.59l-149.32-17.31-149.36-17.31-18.39-2.13c-.76-.09-.75 1 0 1.09l149.35 17.31 149.4 17.31c24.13 2.8 48.56 6.57 73 5.47 23.24-1 45.81-6.71 68.79-9.55 11.52-1.42 23.25-2.15 34.84-1 12 1.17 22.86 5.09 34.31 8.17 23.14 6.24 46 .88 68.94-3.26 48.56-8.76 98.32-6.49 147.36-3q9 .64 18 1.33c.77.06.77-1 0-1.09z" opacity=".13"/><path d="m736.65 66.22-286.19-9.09-285.64-9.07-160.2-5.06a.55.55 0 1 0 0 1.09l285.44 9.07 286 9.08 160.61 5.1a.55.55 0 1 0 0-1.09z" opacity=".13"/><path d="m721 66.22c-7.61-.49-15.37 0-23 .17-13.76.34-27.51.82-41.27 1.32-31.21 1.13-62.42 2.43-93.63 3.62-9.81.38-19.61.78-29.43 1-21.8.51-42.93-4.67-64.39-7.3-29.21-3.59-58.44-.13-87.62 1.87-29.37 2-58.4.49-87.65-2.15q-88.91-8-177.77-16.3l-22.39-2.04c-.76-.07-.76 1 0 1.09l177.82 16.31c29.63 2.72 59.38 6 89.21 5.23 28.92-.73 57.66-5.14 86.64-4.48 14.9.33 29.48 2.58 44.12 5 12.76 2.06 25.64 4 38.64 4 7.84 0 15.69-.43 23.52-.72 30.3-1.12 60.58-2.39 90.87-3.53 24.26-.9 48.67-2.35 73-2 1.11 0 2.22 0 3.33.1.77 0 .76-1 0-1.09z" opacity=".13"/><path d="m422.78 89.87c-25.84 1.67-51.78 1.87-77.67 1.13-26.7-.72-53.36-2.39-80-4.48-27-2.11-53.89-4.66-80.81-7.18-26.6-2.49-53.2-4.95-79.85-6.92-26-1.93-52.08-3.38-78.18-3.8-3.19-.06-6.38-.09-9.56-.11a.55.55 0 1 0 0 1.09c26 .17 51.93 1.42 77.83 3.2 26.72 1.84 53.39 4.24 80 6.72 26.93 2.51 53.86 5.1 80.82 7.31 26.55 2.18 53.14 4 79.78 4.95 26 .92 52.05 1 78-.31 3.18-.16 6.36-.35 9.53-.55.76 0 .77-1.14 0-1.09z" opacity=".13"/><path d="m498.6 116c-19.61.65-39.39-.55-58.93-2.06a158 158 0 0 1 -28.57-4.86 264.79 264.79 0 0 0 -28.1-6.19c-19.18-2.92-38.68-4.51-58-6.08q-29.49-2.4-59.06-3.61-33.18-1.35-66.33-1.2a.55.55 0 1 0 0 1.09q59.19-.22 118.25 4.27c19.71 1.51 39.48 3.18 59.05 5.79a224.09 224.09 0 0 1 28.36 5.53c9.11 2.42 18.09 4.7 27.54 5.74 10.8 1.18 21.74 1.64 32.6 2.18 11 .56 22.13.88 33.19.51a.55.55 0 1 0 0-1.09z" opacity=".13"/><path d="m737.47 96.37a1072.13 1072.13 0 0 0 -145.39 1.76c-22.09 1.77-44 4-64.39 12.46-10.53 4.35-20.69 9.48-31.78 12.58a144.94 144.94 0 0 1 -35.17 4.8c-24 .64-48.11-1.88-71.83-4.81-24-3-47.93-6.63-72-9.64q-71.68-9-144-13-73.21-4-146.63-2.87-9 .15-18 .36a.55.55 0 1 0 0 1.09q73-1.75 145.93 1.57 73.26 3.38 146.09 11.91c47.68 5.59 95.2 14.69 143.34 16.35 22.27.76 44.36-.79 65-9 10.37-4.14 20.28-9.23 31-12.58 11.14-3.48 22.83-5.26 34.5-6.5 48.11-5.1 97-6.12 145.34-4.23q9 .36 17.9.86a.55.55 0 1 0 0-1.09z" opacity=".13"/><path d="m735.29 102.67-39.77-.67-39.77-.66-40-.67c-12.86-.21-25.74-.58-38.6-.61-10 0-20.83.55-29.36 5.8a29.36 29.36 0 0 0 -2.89 2 .52.52 0 0 0 .12.86 264.2 264.2 0 0 0 36.31 13.94 340.11 340.11 0 0 0 38.1 9.13c13 2.37 26.11 4.12 39.28 5.43s26.58 2.23 39.91 2.89 26.75 1.08 40.13 1.46l4.9.14a.55.55 0 1 0 0-1.09c-13.25-.37-26.5-.76-39.74-1.35s-26.55-1.41-39.78-2.62-26.37-2.81-39.42-5a356.65 356.65 0 0 1 -38.12-8.55 268.79 268.79 0 0 1 -36.59-13.26c-1.46-.66-2.92-1.34-4.37-2l.12.86c7.94-6.34 18.93-7.4 29.05-7.51 6-.07 12.07.13 18.09.23l19.49.32 78.74 1.3 44.15.74a.55.55 0 1 0 0-1.09z" opacity=".13"/><path d="m734.17 109.12-57.64-.57-57.64-.55-32.6-.32a.56.56 0 0 0 -.57.69c1.1 4.15 5.35 6.58 9.29 8.33a116.5 116.5 0 0 0 14.52 5.3 170.52 170.52 0 0 0 31 5.71c21.52 2.14 43.21 1.53 64.8 2.75a220.77 220.77 0 0 1 36 4.6c.74.17 1.06-.89.32-1.05-20.66-4.64-42-5.06-63.21-5.55s-42.38-.94-62.82-6a121.78 121.78 0 0 1 -16.62-5.3c-4.61-1.86-10.81-4.14-12.13-9.11l-.58.69 57.64.57 57.65.57 32.59.33a.55.55 0 1 0 0-1.09z" opacity=".13"/><path d="m736.27 117.59q-22.28.47-44.56-.09t-44.49-2.13q-12.59-.9-25.13-2.11a.56.56 0 0 0 -.58.69c1.8 5.16 8.82 5.79 13.82 6q13 .69 26 1.51 26 1.67 51.95 3.94 14.55 1.27 29.07 2.75c.76.07.76-1 0-1.09q-25.12-2.53-50.31-4.51t-50.42-3.35c-3.93-.21-8-.16-11.88-.93-3-.59-6.11-1.82-7.1-4.66l-.57.69q22.15 2.15 44.41 3.28t44.52 1.3q12.63.06 25.24-.2a.55.55 0 1 0 0-1.09z" opacity=".13"/><path d="m737.31 147.09c-23.73.48-47.56 1-71.19-1.47-23.29-2.39-45.12-9-67.44-15.12-21.23-5.85-42.62-10-64.88-7.54-11.38 1.27-22.56 3.69-33.8 5.73a308.63 308.63 0 0 1 -36.17 4.38c-23.84 1.48-47.75.58-71.59-.34q-36.62-1.42-73.26-2.26-73.85-1.59-147.72-.41-73.5 1.17-146.9 5.08-9.08.48-18.16 1c-.76 0-.77 1.14 0 1.09q73.36-4.23 146.87-5.76t147-.28q36.74.62 73.47 1.91c24 .85 47.93 2.17 71.91 1.76a360.07 360.07 0 0 0 36-2.27c11.44-1.34 22.68-3.61 34-5.69 11.71-2.16 23.55-4 35.54-3.69a163.43 163.43 0 0 1 34.01 4.88c21.76 5.18 42.77 12.79 65 16.48 23 3.81 46.41 4.21 69.69 3.92 5.88-.07 11.76-.19 17.65-.31a.55.55 0 1 0 0-1.09z" opacity=".13"/><path d="m14.7 109.8 102.5 1.35 102.5 1.35c17.17.23 35.46-.44 51.34 6.47l.31-1c-33.29 2.49-66.72 2.34-100.09 1.89-33.19-.45-66.41-1.18-99.59.15-18.44.74-36.85 2.13-55.12 4.52-.76.1-.43 1.15.32 1 32.94-4.31 66.27-5.28 99.51-5.23 33.07 0 66.13 1.09 99.2.82 18.61-.15 37.22-.72 55.77-2.11.53 0 .88-.76.3-1-13.71-6-29.14-6.32-44-6.51l-51.74-.69-51.5-.67-51.51-.68-51.8-.66-6.4-.09a.55.55 0 1 0 0 1.09z" opacity=".13"/><path d="m387.87 132.37-46.87-7.46c-15.42-2.46-30.83-5.21-46.35-7.07a198.11 198.11 0 0 0 -26.45-1.58.55.55 0 1 0 0 1.09c15.67-.22 31.18 2 46.57 4.48s30.93 4.93 46.4 7.39l26.34 4.2c.75.12 1.07-.93.32-1z" opacity=".13"/><path d="m737.19 23.28q-50.67 2.43-101.33 4.84c-33.84 1.59-67.69 3-101.57 3.59s-67.69.29-101.47-1.63c-17-.95-33.88-2.56-50.83-3.81-16.78-1.27-33.56-1.57-50.39-1.27-30.37.46-60.71 1.88-91.06 2.85l-10.24.31a.55.55 0 1 0 0 1.09c29.6-.82 59.19-2.18 88.8-2.9 16.82-.41 33.66-.61 50.47.26s33.47 2.65 50.21 3.8c33.75 2.31 67.61 2.94 101.44 2.61 34-.33 68.07-1.63 102.07-3.18 33.79-1.53 67.58-3.2 101.36-4.82l12.54-.6a.55.55 0 1 0 0-1.09z" opacity=".13"/><path d="m15.75 12.45 59 1.49 59 1.5 59 1.49 58.95 1.49c15.52.4 34.26.3 44.53-12.29a22.14 22.14 0 0 0 2.73-4.3.54.54 0 0 0 -.36-.8c-17.68-4.2-36.06-5.55-54.16-7.47l-55.6-5.91-55.6-5.9c-18.48-2-37-4-55.48-5.61-20.92-1.81-41.92-3-62.94-2.85a.55.55 0 1 0 0 1.09c37.21-.32 74.22 3.76 111.12 7.68l111.06 11.81c10.21 1.13 20.41 2.13 30.61 3.27a256.8 256.8 0 0 1 30.53 4.94l-.35-.8c-3.05 6.33-9.3 10.78-16.25 13.24-8.4 3-17.61 3.08-26.5 2.9-19.3-.39-38.6-1-57.9-1.47l-58.14-1.47-58.06-1.48-57.83-1.46-7.36-.18a.55.55 0 1 0 0 1.09z" opacity=".13"/><path d="m14.86-20.43c16.88 3 33.91 5.29 51 7.11s34.33 3.21 51.53 4.46 34.61 2.37 51.87 3.68 34.5 2.81 51.67 4.82 34.29 4.54 51.22 7.89c2.13.42 4.27.86 6.4 1.31v-1a132 132 0 0 1 -48.25 7 .55.55 0 1 0 0 1.09 133 133 0 0 0 48.56-7.07c.51-.18.62-.92 0-1-16.86-3.62-33.86-6.33-51.03-8.48-17-2.12-34-3.71-51-5.06-17.31-1.32-34.61-2.51-51.91-3.73s-34.57-2.53-51.81-4.25-34.43-3.85-51.49-6.71q-3.23-.54-6.44-1.11c-.75-.14-1.07.91-.32 1.05z" opacity=".13"/><path d="m12.58-9.73c16.42-.27 32.83.41 49.18 1.73s32.84 3.36 49.18 5.58c9.21 1.24 18.4 2.56 27.59 3.88l.16-1.07q-24.28 2.43-48.69 3.61t-48.85 1.07q-13.78-.07-27.58-.53a.55.55 0 1 0 0 1.09q24.43.83 48.86.37t48.8-2.18q13.76-1 27.46-2.35c.61-.06.89-1 .16-1.07-16.3-2.34-32.61-4.68-49-6.62s-32.85-3.48-49.42-4.21c-9.28-.41-18.57-.56-27.85-.39a.55.55 0 1 0 0 1.09z" opacity=".13"/><path d="m136.18.74c14-.67 27.9 1.63 41.67 3.57 6.65.94 13.35 1.74 19.94 3 5.37 1 10.66 2.38 15.89 3.89 5.48 1.59 10.92 3.3 16.46 4.7a.55.55 0 1 0 .31-1.05c-10.12-2.57-19.93-6.05-30.2-8.17-6.58-1.36-13.25-2.18-19.95-3.12-6.83-1-13.66-2-20.51-2.79a143.34 143.34 0 0 0 -23.61-1.12.55.55 0 1 0 0 1.09z" opacity=".13"/><path d="m738.26 11.93c-29.67 2.7-59.26 5.64-89 7.28s-59.52 2.44-89.3 2.65c-59.67.42-119.31-1.56-178.91-4-16.66-.69-33.34-1.3-50-2.16a56.8 56.8 0 0 1 -11.56-1.54c-3.41-.9-6.68-2.21-10-3.33-5.76-2-11.9-3.45-17.7-.8a.53.53 0 0 0 -.12.86c-.55-.5.2-.21-.54-.11a6.28 6.28 0 0 0 -1.08.44c-.78.28-1.57.52-2.36.77-1.89.58-3.8 1.11-5.69 1.7-.63.19-5.89 1.46-4.33 2.87.55.49 1.39-.28.85-.77.55.5-.2.2.54.1a5.57 5.57 0 0 0 1.08-.44c.78-.28 1.57-.52 2.36-.77 1.89-.58 3.8-1.11 5.69-1.7.63-.19 5.89-1.46 4.33-2.86l-.12.85c6.2-2.84 12.93-.46 18.93 1.66a65.7 65.7 0 0 0 18 4.06c14.78.95 29.62 1.33 44.41 1.95 29.51 1.25 59 2.39 88.54 3.19 59 1.61 118 1.9 177-1 33.13-1.62 66-4.8 99-7.8.76-.07.77-1.16 0-1.09z" opacity=".13"/><path d="m738.71.53c-94.31 5-188.89 4.84-283.24.8s-188.72-11.93-282.61-22.23q-79.62-8.73-158.93-19.55c-.76-.1-1.08 1-.32 1.05 93.64 12.61 187.57 23.59 281.84 31.53 94.09 7.92 188.55 12.87 283.04 13.26q80.16.38 160.22-3.77a.55.55 0 1 0 0-1.09z" opacity=".13"/><path d="m727.47 4.23c-28.2 3.58-56.59 5.71-85.05 6.55-28.16.84-56.35.77-84.52.83-55.78.12-111.58-.22-167.33-2.2q-47.17-1.68-94.25-5.07c-.76-.06-.76 1 0 1.09 56 4.12 112.2 6.08 168.38 6.84 28.22.39 56.45.48 84.67.45s56.37 0 84.53-.62a909 909 0 0 0 93.89-6.82c.76-.1.44-1.15-.32-1z" opacity=".13"/><path d="m10.64 201.17a845.53 845.53 0 0 0 150.36-2.88c21.39-2.33 43.63-4.59 63.61-12.36 10-3.89 18-9.86 27-15.26 10.48-6.29 21.93-6.78 34.1-6.1 49.27 2.75 98.27 8.84 147.08 15.36 48.29 6.45 96.52 13.45 145 18.55s97.63 8.3 146.62 7q9.15-.24 18.3-.7a.55.55 0 1 0 0-1.09c-49 2.42-98 .13-146.71-4.46-49.37-4.66-98.42-11.61-147.5-18.26-48.05-6.51-96.19-12.75-144.63-16.28-11.46-.84-23.44-2.38-34.91-1.09-10.61 1.19-18.39 6.36-26.79 11.95-18.08 12-39.87 16.39-61.62 19.3a837.81 837.81 0 0 1 -151.21 6.36q-9.35-.45-18.7-1.11c-.76-.06-.76 1 0 1.09z" opacity=".13"/><path d="m326.26 197.27c25.84-1.68 51.78-1.87 77.67-1.17 26.7.72 53.36 2.39 80 4.47 27 2.12 53.89 4.67 80.81 7.19 26.6 2.48 53.2 5 79.85 6.92 26 1.92 52.08 3.38 78.18 3.8q4.78.08 9.56.11a.55.55 0 1 0 0-1.09c-26-.17-51.93-1.42-77.83-3.2-26.72-1.84-53.39-4.25-80-6.73-26.94-2.5-53.86-5.1-80.82-7.31-26.55-2.18-53.14-4-79.78-4.94-26-.93-52.05-1-78 .3-3.18.17-6.36.35-9.53.56-.76 0-.77 1.14 0 1.09z" opacity=".13"/><path d="m250.44 171.14c19.61-.66 39.39.55 58.93 2.06a158 158 0 0 1 28.57 4.85 260.28 260.28 0 0 0 28.11 6.19c19.19 2.93 38.69 4.51 58.05 6.09q29.49 2.38 59.06 3.6 33.1 1.37 66.27 1.22a.55.55 0 1 0 0-1.09q-59.19.24-118.25-4.27c-19.71-1.5-39.48-3.18-59.05-5.78a225.87 225.87 0 0 1 -28.36-5.53c-9.11-2.42-18.09-4.71-27.54-5.74-10.8-1.18-21.74-1.64-32.6-2.19-11.05-.56-22.13-.87-33.19-.5a.55.55 0 1 0 0 1.09z" opacity=".13"/><path d="m11.57 190.77a1075.39 1075.39 0 0 0 145.43-1.77c22.09-1.78 44-4 64.39-12.47 10.53-4.34 20.69-9.47 31.78-12.58a144.93 144.93 0 0 1 35.17-4.79c24-.64 48.1 1.87 71.83 4.8 24 3 47.93 6.63 71.95 9.65q71.69 9 144 13 73.22 4 146.63 2.88 9-.15 18-.37a.55.55 0 1 0 0-1.09q-73 1.77-145.93-1.56-73.26-3.37-146.09-11.91c-47.68-5.6-95.2-14.69-143.34-16.35-22.27-.77-44.36.78-65 9-10.36 4.15-20.27 9.23-31 12.58-11.15 3.48-22.83 5.26-34.5 6.5-48.11 5.11-97 6.13-145.34 4.23q-9-.34-17.9-.85a.55.55 0 1 0 0 1.09z" opacity=".13"/><path d="m11.73 140c23.73-.48 47.56-.95 71.19 1.47 23.29 2.39 45.12 9 67.44 15.12 21.23 5.86 42.62 10 64.88 7.54 11.38-1.27 22.56-3.68 33.8-5.72a308.65 308.65 0 0 1 36.17-4.39c23.83-1.47 47.75-.58 71.59.35q36.61 1.43 73.26 2.26 73.85 1.59 147.72.41 73.5-1.17 146.9-5.09 9.08-.48 18.16-1a.55.55 0 1 0 0-1.09q-73.37 4.25-146.87 5.77t-147 .28q-36.74-.62-73.47-1.92c-24-.85-47.93-2.16-71.91-1.75a360.06 360.06 0 0 0 -36 2.26c-11.45 1.35-22.68 3.62-34 5.7-11.71 2.15-23.56 4-35.54 3.69a163.45 163.45 0 0 1 -34.05-4.89c-21.76-5.17-42.77-12.79-65-16.47-23-3.81-46.41-4.22-69.69-3.93q-8.82.12-17.65.31a.55.55 0 1 0 0 1.09z" opacity=".13"/><path d="m734.34 177.33-102.5-1.33-102.5-1.35c-17.17-.22-35.46.45-51.35-6.46l-.3 1c33.29-2.48 66.72-2.33 100.08-1.88 33.2.44 66.42 1.17 99.6-.15 18.43-.74 36.84-2.13 55.12-4.53.75-.1.43-1.15-.32-1.05-32.94 4.32-66.27 5.29-99.51 5.24-33.07-.05-66.13-1.09-99.2-.82-18.61.15-37.22.72-55.77 2.1-.53 0-.88.76-.3 1 13.71 6 29.14 6.31 44 6.51l51.74.68 51.5.68 51.51.68 51.77.68 6.4.08a.55.55 0 1 0 0-1.09z" opacity=".13"/><path d="m361.17 154.76 46.83 7.47c15.42 2.45 30.83 5.21 46.35 7.06a198.11 198.11 0 0 0 26.45 1.58.55.55 0 1 0 0-1.09c-15.67.23-31.18-2-46.57-4.48s-30.93-4.92-46.4-7.39l-26.34-4.2c-.75-.12-1.07.93-.32 1z" opacity=".13"/><path d="m329.11 196.11c-16.61 1.46-33.3.59-49.88-.74s-33.23-3.12-49.93-3.45a209.08 209.08 0 0 0 -27.87 1.15c-.75.08-.76 1.17 0 1.09 16.53-1.88 33.23-1.27 49.79 0s33.25 3.09 50 3.67a230.47 230.47 0 0 0 27.94-.6c.76-.07.77-1.16 0-1.09z" opacity=".13"/><path d="m401.13 193.69c-22.47 0-44.74-3.18-66.86-6.49-21.91-3.28-43.88-6.77-66.1-7.51a207.14 207.14 0 0 0 -36.76 1.83c-.76.11-.44 1.16.31 1 21.93-3.18 44.25-2 66.17.6s43.85 6.61 65.9 9.17a328.15 328.15 0 0 0 37.34 2.44.55.55 0 1 0 0-1.09z" opacity=".13"/><path d="m733.94 147c-11.58 2.09-23.2 4.19-35 5.19a187.7 187.7 0 0 1 -33.94-.47c-22.25-2.15-44.23-5.53-66.59-6.84-45.19-2.66-90.64-2.07-135.9-2.51l-274.46-2.65-155.4-1.47a.55.55 0 1 0 0 1.09l277.25 2.66 137.23 1.33c45.83.45 91.79.05 137.58 2 12.82.54 25.62 1.35 38.39 2.6 12.21 1.2 24.33 3 36.53 4.37a200.87 200.87 0 0 0 38 1.14c12.34-1 24.51-3.15 36.65-5.34.75-.13.43-1.18-.32-1.05z" opacity=".13"/><path d="m613.27 146c-31.75 4.07-63.89 5.1-95.92 4.93-33.56-.17-67.09-1.69-100.6-3.16-33.07-1.44-66.16-2.89-99.28-2.9-15.92 0-31.84.32-47.73 1.22-17.26 1-34.41 3-51.64 4.31a306.15 306.15 0 0 1 -53.65-.38c-17.32-1.72-34.4-4.92-51.39-8.4q-6.44-1.32-12.87-2.68c-.75-.15-1.07.9-.32 1.05 34 7.12 68.14 13.7 103.27 12.38 18.19-.69 36.25-3 54.38-4.38 15.84-1.21 31.73-1.78 47.62-2 33.24-.38 66.47.89 99.67 2.32 33.73 1.44 67.47 3.1 101.25 3.56 32.2.45 64.51-.13 96.52-3.56 3.67-.39 7.34-.83 11-1.29.76-.1.43-1.15-.32-1.06z" opacity=".13"/><path d="m240.57 165.4a339.8 339.8 0 0 1 -44.39 3.79 121.24 121.24 0 0 1 -22.2-1.53c-7.19-1.22-14.25-3-21.37-4.46-14.23-3-28.59-5.41-43-7.41s-28.93-3.58-43.45-4.79-29.27-2.16-43.94-2.84l-5.44-.24a.55.55 0 1 0 0 1.09c14.74.63 29.47 1.47 44.17 2.65s29.4 2.68 44 4.62 29.11 4.31 43.5 7.22c7.15 1.44 14.22 3.15 21.38 4.54a120.46 120.46 0 0 0 21.53 2.28 305.24 305.24 0 0 0 44.09-3.08q2.72-.36 5.42-.76c.76-.11.44-1.16-.31-1z" opacity=".13"/><path d="m227.48 173a243.08 243.08 0 0 1 -41.94 2.89 413.53 413.53 0 0 1 -41.93-2.89c-14.05-1.61-28-3.72-42-5.78s-27.73-4.08-41.67-5.59a382.55 382.55 0 0 0 -42.14-2.46c-1.75 0-3.51 0-5.26.06a.55.55 0 1 0 0 1.09 356.88 356.88 0 0 1 42.38 1.88c14.2 1.41 28.32 3.41 42.42 5.48 13.81 2 27.62 4.15 41.49 5.84s28 3 42.13 3.39a255.93 255.93 0 0 0 41.7-2.06c1.72-.24 3.43-.5 5.14-.78.76-.12.44-1.18-.31-1z" opacity=".13"/><path d="m204.86 180.83q-37.4.58-74.79.67t-74.8-.35q-21.08-.24-42.16-.65a.55.55 0 1 0 0 1.09q37.38.72 74.78.93t74.8-.1q21.09-.16 42.17-.5a.55.55 0 1 0 0-1.09z" opacity=".13"/></g></svg>