<svg viewBox="0 0 674 264" xmlns="http://www.w3.org/2000/svg" xmlns:xlink="http://www.w3.org/1999/xlink"><clipPath id="a"><path d="m655.92 231.9-625.16 31a4.49 4.49 0 0 1 -4.71-4.26l-15.93-26.9a4.49 4.49 0 0 1 4.26-4.74l654.31-32.39a4.49 4.49 0 0 1 4.7 4.27l-13.2 28.29a4.49 4.49 0 0 1 -4.27 4.73z"/></clipPath><path d="m655.92 231.9-625.16 31c-1.84 0-2.39-.41-4.71-4.26l-15.93-26.9a4.49 4.49 0 0 1 4.26-4.74l654.31-32.39a4.49 4.49 0 0 1 4.7 4.27l-13.2 28.29c-1.32 2.9-1.79 4.61-4.27 4.73z" fill="#87d8c5"/><g clip-path="url(#a)" fill="#e96d4b"><path d="m539.42 238.21-21.19-31.08-18.02 33.02-21.2-31.08-18.02 33.02-21.19-31.08-18.03 33.02-21.19-31.08-18.02 33.02-21.2-31.08-18.02 33.02-21.19-31.08-18.02 33.03-21.19-31.09-18.02 33.03-21.2-31.09-18.02 33.03-21.19-31.09-18.02 33.03-21.19-31.09-18.02 33.03-21.19-31.08-18.01 33.02-21.2-31.08-18.02 33.02-21.19-31.08-18.02 33.02-21.53-31.57.6-.41 20.86 30.59 18.02-33.03 21.19 31.09 18.02-33.03 21.2 31.09 18.01-33.03 21.2 31.08 18.01-33.02 21.2 31.08 18.01-33.02 21.19 31.08 18.02-33.02 21.2 31.08 18.02-33.02 21.19 31.08 18.02-33.02 21.19 31.08 18.02-33.03 21.2 31.09 18.02-33.03 21.19 31.09 18.03-33.03 21.19 31.08 18.02-33.02 21.2 31.08 18.02-33.02 21.19 31.08 18.02-33.02 21.2 31.08 18.02-33.02 21.2 31.08 18.03-33.03 21.2 31.09 17.74-32.5.64.35-18.31 33.54-21.21-31.08-18.02 33.03-21.2-31.09-18.02 33.03-21.2-31.09z"/><path d="m539.9 247.88-21.19-31.09-18.02 33.03-21.2-31.09-18.02 33.03-21.2-31.08-18.02 33.02-21.19-31.08-18.02 33.02-21.2-31.08-18.02 33.02-21.19-31.08-18.02 33.02-21.19-31.08-18.02 33.02-21.2-31.08-18.02 33.03-21.19-31.09-18.02 33.03-21.19-31.09-18.02 33.03-21.19-31.08-18.02 33.02-21.19-31.08-18.02 33.02-21.19-31.08-18.02 33.02-21.53-31.58.6-.4 20.86 30.59 18.02-33.03 21.19 31.08 18.02-33.02 21.19 31.08 18.02-33.02 21.19 31.08 18.02-33.02 21.19 31.08 18.02-33.02 21.19 31.08 18.02-33.02 21.2 31.08 18.02-33.03 21.19 31.09 18.02-33.03 21.19 31.09 18.02-33.03 21.2 31.09 18.02-33.03 21.19 31.09 18.02-33.03 21.2 31.08 18.02-33.02 21.2 31.08 18.02-33.02 21.19 31.08 18.02-33.02 21.2 31.08 18.02-33.03 21.2 31.09 18.02-33.03 21.21 31.09 17.74-32.51.64.35-18.32 33.55-21.2-31.08-18.02 33.02-21.2-31.08-18.02 33.03-21.2-31.09z"/><path d="m540.4 258.03-21.19-31.09-18.02 33.03-21.2-31.08-18.02 33.02-21.19-31.08-18.02 33.02-21.2-31.08-18.02 33.02-21.2-31.08-18.02 33.03-21.19-31.09-18.02 33.03-21.19-31.09-18.02 33.03-21.2-31.09-18.01 33.03-21.2-31.09-18.02 33.03-21.19-31.08-18.01 33.02-21.2-31.08-18.01 33.02-21.2-31.08-18.02 33.02-21.19-31.08-18.02 33.02-21.53-31.57.6-.41 20.86 30.59 18.02-33.03 21.19 31.09 18.02-33.03 21.2 31.09 18.01-33.03 21.2 31.09 18.01-33.03 21.2 31.08 18.02-33.02 21.19 31.08 18.01-33.02 21.2 31.08 18.02-33.02 21.19 31.08 18.02-33.02 21.19 31.08 18.02-33.03 21.2 31.09 18.02-33.03 21.2 31.09 18.02-33.03 21.19 31.09 18.02-33.03 21.2 31.08 18.02-33.02 21.19 31.08 18.02-33.02 21.2 31.08 18.03-33.02 21.19 31.08 18.03-33.03 21.2 31.09 17.74-32.5.64.35-18.31 33.54-21.2-31.08-18.03 33.03-21.2-31.09-18.02 33.03-21.2-31.09z"/></g><rect fill="#e96d4b" height="201.36" rx="6.15" transform="matrix(.99878042 -.04937274 .04937274 .99878042 -5.41 16.8)" width="664.09" x="4.88" y="17.14"/><rect fill="#70d1c8" height="178.12" rx="6.15" transform="matrix(.99878042 -.04937274 .04937274 .99878042 -5.38 16.8)" width="639.14" x="17.32" y="28.09"/><g fill="#e96d4b"><path d="m91.59 212.86-43.66-39.54 39.54-43.66 43.66 39.54zm-42.54-39.59 42.48 38.47 38.47-42.48-42.47-38.48z"/><path d="m91.13 203.65-34-30.79 30.79-34 34 30.79zm-32.87-30.84 32.82 29.72 29.72-32.82-32.8-29.71z"/><path d="m90.62 193.39-23.22-21 21-23.23 23.23 21zm-22.1-21.09 22 20 20-22.05-22-20z"/><path d="m90.22 185.16-14.59-13.16 13.21-14.59 14.59 13.21zm-13.47-13.27 13.41 12.11 12.15-13.41-13.41-12.11z"/><path d="m87.5 130.24-43.66-39.55 39.54-43.69 43.62 39.58zm-42.5-39.6 42.48 38.48 38.48-42.49-42.53-38.48z"/><path d="m87 121-34-30.79 30.79-34 34 30.79zm-32.83-30.82 32.83 29.72 29.72-32.81-32.83-29.72z"/><path d="m86.53 110.76-23.22-21 21-23.22 23.23 21zm-22.1-21.09 22 20 20-22-22-20z"/><path d="m86.13 102.53-14.59-13.21 13.21-14.58 14.59 13.26zm-13.47-13.26 13.41 12.14 12.15-13.41-13.41-12.14z"/><path d="m174.48 208.76-43.66-39.54 39.54-43.66 43.64 39.54zm-42.54-39.6 42.48 38.48 38.48-42.49-42.49-38.47z"/><path d="m174 199.55-34-30.79 30.79-34 34 30.78zm-32.87-30.84 32.87 29.72 29.72-32.82-32.82-29.72z"/><path d="m173.51 189.29-23.22-21 21-23.22 23.23 21zm-22.1-21.09 22.05 20 20-22-22-20z"/><path d="m173.11 181.06-14.59-13.21 13.21-14.59 14.59 13.21zm-13.47-13.27 13.41 12.15 12.15-13.41-13.41-12.15z"/><path d="m170.39 126.13-43.66-39.54 39.54-43.66 43.66 39.54zm-42.54-39.59 42.48 38.46 38.48-42.48-42.49-38.47z"/><path d="m169.93 116.92-34-30.78 30.78-34 34 30.79zm-32.87-30.84 32.82 29.72 29.72-32.8-32.82-29.74z"/><path d="m169.42 106.66-23.22-21 21-23.23 23.23 21zm-22.1-21.09 22.05 20 20-22.05-22-20z"/><path d="m169 98.43-14.57-13.21 13.21-14.59 14.59 13.21zm-13.45-13.27 13.45 12.15 12.11-13.41-13.41-12.15z"/><path d="m257.63 204.64-43.63-39.54 39.54-43.66 43.63 39.56zm-42.54-39.59 42.49 38.47 38.47-42.52-42.48-38.48z"/><path d="m257.17 195.43-34-30.78 30.79-34 34 30.79zm-32.87-30.84 32.82 29.72 29.72-32.82-32.84-29.72z"/><path d="m256.67 185.17-23.23-21 21-23.22 23.22 21zm-22.1-21.09 22 20 20-22.05-22-20z"/><path d="m256.26 176.94-14.59-13.21 13.21-14.59 14.59 13.21zm-13.47-13.27 13.41 12.15 12.15-13.41-13.41-12.15z"/><path d="m253.54 122-43.66-39.53 39.54-43.66 43.66 39.55zm-42.54-39.58 42.48 38.48 38.52-42.49-42.52-38.47z"/><path d="m253.08 112.81-33.99-30.81 30.79-34 34 30.78zm-32.87-30.81 32.79 29.68 29.72-32.81-32.79-29.72z"/><path d="m252.58 102.54-23.23-21 21-23.22 23.22 21zm-22.1-21.08 22 20 20-22-22.05-20z"/><path d="m252.17 94.31-14.59-13.21 13.21-14.58 14.59 13.21zm-13.47-13.26 13.41 12.14 12.15-13.41-13.41-12.14z"/><path d="m340.52 200.54-43.66-39.54 39.54-43.66 43.66 39.54zm-42.52-39.6 42.48 38.48 38.48-42.49-42.48-38.47z"/><path d="m340.06 191.33-34-30.79 30.79-34 34 30.79zm-32.87-30.84 32.81 29.72 29.72-32.82-32.82-29.72z"/><path d="m339.56 181.07-23.23-21 21-23.22 23.22 21zm-22.1-21.07 22 20 20-22-22.05-20z"/><path d="m339.15 172.84-14.59-13.21 13.21-14.63 14.59 13.21zm-13.47-13.27 13.41 12.15 12.15-13.41-13.41-12.15z"/><path d="m336.43 117.91-43.66-39.54 39.54-43.66 43.69 39.54zm-42.54-39.59 42.48 38.47 38.48-42.48-42.48-38.48z"/><path d="m336 108.7-34-30.78 30.79-34 34 30.79zm-32.9-30.84 32.82 29.72 29.72-32.82-32.82-29.76z"/><path d="m335.47 98.44-23.23-21 21-23.22 23.22 21zm-22.1-21.09 22 20 20-22-22.05-20z"/><path d="m335.06 90.21-14.59-13.21 13.21-14.59 14.59 13.21zm-13.47-13.27 13.41 12.15 12.15-13.41-13.41-12.15z"/><path d="m423.41 196.44-43.67-39.54 39.55-43.67 43.71 39.55zm-42.54-39.6 42.48 38.48 38.48-42.49-42.49-38.47z"/><path d="m423 187.23-34-30.79 30.78-34 34 30.78zm-32.87-30.85 32.81 29.72 29.73-32.81-32.87-29.72z"/><path d="m422.44 177-23.22-21 21-23.22 23.22 21zm-22.1-21.08 22.05 20 20-22-22-20z"/><path d="m422 168.73-14.58-13.21 13.21-14.58 14.59 13.21zm-13.46-13.26 13.46 12.14 12.14-13.41-13.41-12.14z"/><path d="m419.32 113.81-43.67-39.54 39.55-43.66 43.66 39.54zm-42.54-39.6 42.48 38.48 38.48-42.48-42.49-38.48z"/><path d="m418.86 104.6-34-30.79 30.78-34 34 30.79zm-32.86-30.84 32.81 29.72 29.73-32.82-32.83-29.72z"/><path d="m418.35 94.34-23.22-21 21-23.22 23.22 21zm-22.1-21.09 22.05 20 20-22-22-20z"/><path d="m417.94 86.11-14.58-13.21 13.21-14.59 14.59 13.21zm-13.46-13.27 13.41 12.16 12.11-13.42-13.38-12.15z"/><path d="m505.77 192.36-43.66-39.54 39.54-43.66 43.67 39.54zm-42.54-39.6 42.49 38.48 38.47-42.49-42.48-38.47z"/><path d="m505.32 183.15-34-30.79 30.79-34 34 30.78zm-32.88-30.84 32.82 29.69 29.74-32.79-32.81-29.72z"/><path d="m504.81 172.89-23.22-21 21-23.22 23.22 21zm-22.1-21.09 22 20 20-22-22.05-20z"/><path d="m504.4 164.66-14.58-13.21 13.18-14.59 14.58 13.21zm-13.46-13.27 13.41 12.15 12.14-13.41-13.41-12.13z"/><path d="m501.68 109.73-43.68-39.54 39.54-43.66 43.67 39.54zm-42.54-39.59 42.49 38.47 38.47-42.48-42.48-38.48z"/><path d="m501.23 100.52-34-30.78 30.79-34 34 30.79zm-32.88-30.84 32.82 29.72 29.72-32.82-32.81-29.72z"/><path d="m500.72 90.26-23.22-21 21-23.23 23.22 21zm-22.1-21.09 22 20 20-22-22.05-20z"/><path d="m500.31 82-14.59-13.18 13.22-14.59 14.58 13.21zm-13.46-13.24 13.41 12.15 12.14-13.41-13.4-12.15z"/><path d="m588.66 188.26-43.66-39.55 39.54-43.66 43.66 39.55zm-42.54-39.6 42.48 38.48 38.48-42.49-42.48-38.48z"/><path d="m588.2 179.05-34-30.79 30.79-34 34 30.79zm-32.87-30.85 32.82 29.72 29.72-32.81-32.82-29.72z"/><path d="m587.7 168.78-23.23-21 21-23.22 23.23 21zm-22.11-21.08 22 20 20-22-22.05-20z"/><path d="m587.29 160.55-14.59-13.21 13.21-14.58 14.59 13.24zm-13.47-13.26 13.41 12.14 12.15-13.43-13.38-12.12z"/><path d="m584.57 105.63-43.66-39.54 39.54-43.66 43.66 39.57zm-42.57-39.63 42.48 38.48 38.52-42.48-42.49-38.45z"/><path d="m584.11 96.42-34-30.79 30.79-34 34 30.79zm-32.87-30.84 32.82 29.72 29.72-32.82-32.78-29.72z"/><path d="m583.6 86.16-23.22-21 21-23.22 23.23 21zm-22.1-21.09 22 20 20-22-22-20z"/><path d="m583.2 77.93-14.59-13.21 13.21-14.59 14.59 13.21zm-13.47-13.27 13.41 12.15 12.15-13.41-13.41-12.15z"/></g></svg>