<svg viewBox="0 0 851 273" xmlns="http://www.w3.org/2000/svg" xmlns:xlink="http://www.w3.org/1999/xlink"><clipPath id="a"><path d="m828 272.61h-739.55a5.3 5.3 0 0 1 -5.3-5.3l-17.24-32.62a5.3 5.3 0 0 1 5.3-5.3h774a5.3 5.3 0 0 1 5.31 5.3l-17.24 32.62a5.3 5.3 0 0 1 -5.28 5.3z"/></clipPath><rect height="214.52" opacity=".25" rx="23.96" width="836.64" x=".45" y="58.09"/><path d="m828 272.61h-739.55a5.3 5.3 0 0 1 -5.3-5.3l-17.24-32.62a5.3 5.3 0 0 1 5.3-5.3h774a5.3 5.3 0 0 1 5.31 5.3l-17.24 32.62a5.3 5.3 0 0 1 -5.28 5.3z" fill="#aa2d17"/><rect fill="#e96d4b" height="237.91" rx="6.15" width="784.64" x="65.91" y=".39"/><path d="m825.67 24.27 9.33-9.27a5.28 5.28 0 0 0 -3.64-1.46h-746.22a5.3 5.3 0 0 0 -2.68.73l8.9 10z" fill="#8addd3"/><path d="m91.36 24.27-8.9-10a5.29 5.29 0 0 0 -2.63 4.57v201a5.29 5.29 0 0 0 2.17 4.27l9.39-2.54z" fill="#65c4b8"/><path d="m826.82 220.74h-735.46l-9.36 3.37a5.28 5.28 0 0 0 3.17 1.06h746.15a5.28 5.28 0 0 0 4.06-1.9z" fill="#70d1c8"/><path d="m91.36 24.27v196.47l734.31.86v-197.33z" fill="#70d1c8"/><path d="m835 15-9.29 9.29v196.45h1.15l8.56 2.53a5.3 5.3 0 0 0 1.24-3.41v-201a5.27 5.27 0 0 0 -1.66-3.86z" fill="#67c6ba"/><g fill="#123442"><rect height="182.15" rx="18.24" width="158.58" x="102.95" y="34.3"/><rect height="182.09" rx="18.24" width="158.53" x="286.98" y="34.33"/><rect height="182.15" rx="18.24" width="158.58" x="470.95" y="34.3"/><rect height="182.09" rx="18.24" width="158.53" x="654.98" y="34.33"/></g><g clip-path="url(#a)" fill="#e96d4b"><path d="m690.15 273.24-23.19-37.92-23.19 37.92-23.2-37.92-23.2 37.92-23.19-37.92-23.2 37.92-23.19-37.92-23.2 37.92-23.2-37.92-23.19 37.92-23.2-37.92-23.19 37.92-23.19-37.92-23.2 37.92-23.19-37.92-23.19 37.92-23.2-37.92-23.19 37.92-23.19-37.92-23.19 37.92-23.2-37.92-23.19 37.92-23.19-37.92-23.2 37.92-23.19-37.92-23.19 37.92-23.57-38.52.74-.45 22.83 37.32 23.19-37.92 23.19 37.92 23.2-37.92 23.19 37.92 23.19-37.92 23.2 37.92 23.19-37.92 23.19 37.92 23.19-37.92 23.2 37.92 23.19-37.92 23.19 37.92 23.2-37.92 23.19 37.92 23.19-37.92 23.2 37.92 23.19-37.92 23.2 37.92 23.2-37.92 23.19 37.92 23.2-37.92 23.19 37.92 23.2-37.92 23.2 37.92 23.19-37.92 23.19 37.92 23.2-37.92 23.2 37.92 23.2-37.92 23.2 37.92 23.2-37.92 23.2 37.92 22.83-37.32.74.45-23.57 38.52-23.2-37.92-23.2 37.92-23.2-37.92-23.2 37.92-23.2-37.92z"/><path d="m690.15 284.68-23.19-37.92-23.19 37.92-23.2-37.92-23.2 37.92-23.19-37.92-23.2 37.92-23.19-37.92-23.2 37.92-23.2-37.92-23.19 37.92-23.2-37.92-23.19 37.92-23.19-37.92-23.2 37.92-23.19-37.92-23.19 37.92-23.2-37.92-23.19 37.92-23.19-37.92-23.19 37.92-23.2-37.92-23.19 37.92-23.19-37.92-23.2 37.92-23.19-37.92-23.19 37.92-23.57-38.52.74-.45 22.83 37.32 23.19-37.92 23.19 37.92 23.2-37.92 23.19 37.92 23.19-37.92 23.2 37.92 23.19-37.92 23.19 37.92 23.19-37.92 23.2 37.92 23.19-37.92 23.19 37.92 23.2-37.92 23.19 37.92 23.19-37.92 23.2 37.92 23.19-37.92 23.2 37.92 23.2-37.92 23.19 37.92 23.2-37.92 23.19 37.92 23.2-37.92 23.2 37.92 23.19-37.92 23.19 37.92 23.2-37.92 23.2 37.92 23.2-37.92 23.2 37.92 23.2-37.92 23.2 37.92 22.83-37.32.74.45-23.57 38.52-23.2-37.92-23.2 37.92-23.2-37.92-23.2 37.92-23.2-37.92z"/><path d="m690.15 296.69-23.19-37.92-23.19 37.92-23.2-37.92-23.2 37.92-23.19-37.92-23.2 37.92-23.19-37.92-23.2 37.92-23.2-37.92-23.19 37.92-23.2-37.92-23.19 37.92-23.19-37.92-23.2 37.92-23.19-37.92-23.19 37.92-23.2-37.92-23.19 37.92-23.19-37.92-23.19 37.92-23.2-37.92-23.19 37.92-23.19-37.92-23.2 37.92-23.19-37.92-23.19 37.92-23.57-38.52.74-.45 22.83 37.32 23.19-37.92 23.19 37.92 23.2-37.92 23.19 37.92 23.19-37.92 23.2 37.92 23.19-37.92 23.19 37.92 23.19-37.92 23.2 37.92 23.19-37.92 23.19 37.92 23.2-37.92 23.19 37.92 23.19-37.92 23.2 37.92 23.19-37.92 23.2 37.92 23.2-37.92 23.19 37.92 23.2-37.92 23.19 37.92 23.2-37.92 23.2 37.92 23.19-37.92 23.19 37.92 23.2-37.92 23.2 37.92 23.2-37.92 23.2 37.92 23.2-37.92 23.2 37.92 22.83-37.32.74.45-23.57 38.52-23.2-37.92-23.2 37.92-23.2-37.92-23.2 37.92-23.2-37.92z"/></g><path d="m837.2 231.15h-757.36a7.79 7.79 0 0 1 -7.78-7.78v-208.37a7.79 7.79 0 0 1 7.78-7.78h757.36a7.79 7.79 0 0 1 7.8 7.78v208.37a7.79 7.79 0 0 1 -7.8 7.78zm-757.36-223.04a6.93 6.93 0 0 0 -6.92 6.89v208.37a6.92 6.92 0 0 0 6.92 6.92h757.36a6.93 6.93 0 0 0 6.92-6.92v-208.37a6.94 6.94 0 0 0 -6.92-6.92z" fill="#aa2d17"/></svg>