<svg viewBox="0 0 800 760" xmlns="http://www.w3.org/2000/svg" xmlns:xlink="http://www.w3.org/1999/xlink"><clipPath id="a"><path d="m796.77 230.3-586 527.19a5.65 5.65 0 0 1 -8-.42l-36.91-13.56a5.65 5.65 0 0 1 .42-8l613.34-551.75a5.65 5.65 0 0 1 8 .42l9.6 38.14a5.66 5.66 0 0 1 -.45 7.98z"/></clipPath><path d="m796.77 230.3-586 527.19c-1.75 1.51-2.65 1.5-8-.42l-36.91-13.56a5.65 5.65 0 0 1 .42-8l613.34-551.75a5.65 5.65 0 0 1 8 .42l9.6 38.14c.97 3.84 1.87 5.89-.45 7.98z" fill="#87d8c5"/><g clip-path="url(#a)" fill="#e96d4b"><path d="m687.99 329.07-45.41-13.51 8.65 46.58-45.41-13.51 8.65 46.58-45.42-13.51 8.65 46.58-45.41-13.51 8.65 46.58-45.41-13.51 8.65 46.58-45.41-13.51 8.65 46.58-45.41-13.52 8.65 46.58-45.41-13.51 8.65 46.58-45.4-13.51 8.65 46.58-45.41-13.52 8.65 46.58-45.41-13.51 8.66 46.58-45.41-13.52 8.65 46.59-45.41-13.52 8.65 46.58-46.13-13.72.26-.89 44.69 13.3-8.65-46.58 45.41 13.52-8.65-46.58 45.41 13.51-8.65-46.58 45.41 13.51-8.66-46.58 45.41 13.52-8.65-46.58 45.41 13.51-8.66-46.58 45.42 13.52-8.66-46.59 45.42 13.52-8.66-46.58 45.41 13.51-8.65-46.58 45.42 13.51-8.65-46.58 45.41 13.51-8.65-46.58 45.41 13.51-8.65-46.58 45.41 13.51-8.65-46.58 45.41 13.51-8.65-46.58 45.42 13.51-8.65-46.59 45.41 13.52-8.65-46.59 45.42 13.51-8.51-45.85.91-.17 8.78 47.32-45.42-13.5 8.65 46.58-45.42-13.51 8.65 46.59-45.41-13.51z"/><path d="m696.14 338.13-45.41-13.51 8.65 46.58-45.41-13.51 8.65 46.58-45.41-13.51 8.65 46.58-45.41-13.51 8.65 46.58-45.42-13.51 8.65 46.58-45.41-13.51 8.65 46.58-45.4-13.51 8.65 46.58-45.42-13.52 8.66 46.59-45.41-13.52 8.65 46.58-45.41-13.51 8.66 46.58-45.42-13.52 8.66 46.58-45.41-13.51 8.65 46.58-45.41-13.52 8.65 46.59-46.13-13.73.26-.88 44.69 13.3-8.65-46.58 45.41 13.51-8.65-46.58 45.41 13.51-8.65-46.58 45.41 13.52-8.66-46.58 45.41 13.51-8.65-46.58 45.41 13.52-8.65-46.58 45.41 13.51-8.65-46.58 45.41 13.51-8.65-46.58 45.41 13.52-8.65-46.59 45.41 13.51-8.65-46.58 45.41 13.52-8.65-46.59 45.41 13.51-8.65-46.58 45.42 13.51-8.66-46.58 45.41 13.51-8.65-46.58 45.42 13.51-8.65-46.58 45.41 13.51-8.64-46.59 45.41 13.51-8.5-45.85.9-.17 8.78 47.33-45.42-13.51 8.65 46.59-45.41-13.51 8.64 46.58-45.41-13.51z"/><path d="m704.7 347.65-45.41-13.51 8.65 46.58-45.41-13.51 8.65 46.58-45.41-13.51 8.65 46.58-45.41-13.51 8.65 46.58-45.42-13.51 8.65 46.58-45.41-13.51 8.66 46.58-45.41-13.52 8.65 46.58-45.41-13.51 8.65 46.58-45.41-13.51 8.65 46.58-45.41-13.52 8.66 46.58-45.41-13.51 8.65 46.58-45.41-13.52 8.65 46.59-45.41-13.52 8.65 46.58-46.13-13.73.27-.88 44.69 13.31-8.66-46.59 45.41 13.52-8.65-46.58 45.41 13.51-8.65-46.58 45.41 13.51-8.65-46.58 45.41 13.52-8.66-46.58 45.41 13.51-8.65-46.58 45.41 13.52-8.65-46.59 45.41 13.52-8.65-46.58 45.41 13.51-8.65-46.58 45.41 13.51-8.65-46.58 45.41 13.51-8.65-46.58 45.41 13.51-8.65-46.58 45.42 13.51-8.66-46.58 45.41 13.51-8.64-46.58 45.41 13.51-8.65-46.59 45.42 13.51-8.65-46.58 45.42 13.51-8.51-45.85.9-.17 8.78 47.33-45.41-13.51 8.64 46.58-45.41-13.51 8.65 46.59-45.42-13.51z"/></g><rect fill="#e96d4b" height="253.58" rx="6.15" transform="matrix(.74349508 -.6687414 .6687414 .74349508 -147.88 359.39)" width="836.33" x="-23.67" y="245.65"/><rect fill="#70d1c8" height="224.32" rx="6.15" transform="matrix(.74349508 -.6687414 .6687414 .74349508 -147.61 358.85)" width="804.91" x="-8.52" y="259.66"/><g fill="#e96d4b"><path d="m230.41 660.31-74.08-3.92 3.92-74.08 74.08 3.92zm-73-4.86 72.09 3.81 3.81-72.08-72.09-3.82z"/><path d="m222.64 651.68-57.67-3 3.03-57.68 57.68 3zm-56.62-4 55.68 2.94 2.94-55.68-55.64-2.94z"/><path d="m214 642.05-39.41-2.05 2.08-39.4 39.4 2.08zm-38.35-3 37.4 2 2-37.4-37.4-2z"/><path d="m207.05 634.34-24.75-1.34 1.31-24.75 24.75 1.31zm-23.7-2.25 22.75 1.2 1.21-22.75-22.76-1.21z"/><path d="m160.73 582.85-74.08-3.91 3.92-74.08 74.08 3.91zm-73.03-4.85 72.09 3.81 3.81-72.08-72.08-3.81z"/><path d="m153 574.22-57.68-3.05 3-57.68 57.67 3zm-56.63-4 55.63 2.95 3-55.68-55.68-3z"/><path d="m144.31 564.6-39.4-2.08 2.09-39.41 39.4 2.09zm-38.35-3 37.41 2 2-37.41-37.4-2z"/><path d="m137.37 556.89-24.75-1.31 1.31-24.75 24.75 1.31zm-23.7-2.26 22.76 1.2 1.2-22.75-22.75-1.2z"/><path d="m308.11 590.41-74.11-3.92 4-74.08 74 3.92zm-73-4.86 72.09 3.81 3.8-72.08-72.09-3.81z"/><path d="m300.35 581.78-57.68-3 3.05-57.68 57.67 3.05zm-56.63-4 55.68 2.94 2.94-55.72-55.68-2.94z"/><path d="m291.69 572.15-39.4-2.08 2.08-39.4 39.4 2.08zm-38.35-3 37.4 2 2-37.4-37.4-2z"/><path d="m284.75 564.44-24.75-1.31 1.31-24.75 24.75 1.31zm-23.7-2.25 22.76 1.2 1.2-22.75-22.75-1.21z"/><path d="m238.44 513-74.08-4 3.91-74 74.08 3.92zm-73-4.87 72.08 3.81 3.81-72.08-72.11-3.86z"/><path d="m230.67 504.32-57.67-3.05 3-57.68 57.68 3.05zm-56.63-4 55.68 2.94 2.95-55.68-55.67-2.94z"/><path d="m222 494.7-39.4-2.08 2.08-39.41 39.41 2.09zm-38.35-3 37.41 2 2-37.41-37.4-2z"/><path d="m215.07 487-24.75-1.31 1.31-24.75 24.75 1.31zm-23.69-2.26 22.75 1.2 1.2-22.75-22.75-1.19z"/><path d="m386.06 520.29-74.06-3.92 3.92-74.08 74.08 3.92zm-73-4.86 72.09 3.81 3.81-72.09-72.09-3.81z"/><path d="m378.29 511.65-57.67-3 3.05-57.68 57.67 3.03zm-56.62-4 55.68 2.94 2.94-55.68-55.68-2.91z"/><path d="m369.64 502-39.4-2 2.08-39.4 39.4 2.08zm-38.35-3 37.4 2 2-37.4-37.4-2z"/><path d="m362.7 494.32-24.7-1.32 1.31-24.75 24.69 1.32zm-23.7-2.25 22.76 1.2 1.2-22.75-22.75-1.21z"/><path d="m316.38 442.83-74.08-3.91 3.92-74.08 74.08 3.91zm-73-4.86 72.08 3.81 3.81-72.08-72.08-3.81z"/><path d="m308.62 434.2-57.68-3.05 3.06-57.68 57.68 3zm-56.63-4 55.68 2.95 2.94-55.68-55.68-3z"/><path d="m300 424.58-39.4-2.09 2.08-39.4 39.4 2.09zm-38.35-3 37.41 2 2-37.41-37.4-2z"/><path d="m293 416.86-24.75-1.3 1.31-24.75 24.75 1.31zm-23.69-2.25 22.75 1.2 1.2-22.75-22.75-1.2z"/><path d="m463.76 450.39-74.08-3.92 3.92-74.08 74.08 3.92zm-73-4.86 72.08 3.81 3.81-72.08-72.08-3.82z"/><path d="m456 441.75-57.68-3 3.05-57.75 57.68 3.05zm-56.63-4 55.68 2.94 2.95-55.69-55.68-2.94z"/><path d="m447.34 432.13-39.4-2.08 2.08-39.4 39.4 2.08zm-38.35-3 37.41 2 2-37.4-37.4-2z"/><path d="m440.4 424.42-24.75-1.31 1.35-24.75 24.75 1.31zm-23.7-2.25 22.76 1.2 1.2-22.75-22.75-1.21z"/><path d="m394.09 372.93-74.09-3.93 3.91-74.08 74.09 3.93zm-73-4.86 72.08 3.81 3.83-72.08-72.13-3.8z"/><path d="m386.32 364.3-57.68-3.05 3.05-57.68 57.68 3.05zm-56.63-4 55.68 2.95 2.95-55.68-55.68-2.95z"/><path d="m377.66 354.68-39.4-2.08 2.09-39.41 39.4 2.09zm-38.35-3 37.41 2 2-37.41-37.41-2z"/><path d="m370.73 347-24.73-1.34 1.3-24.75 24.7 1.31zm-23.73-2.29 22.75 1.2 1.2-22.75-22.72-1.16z"/><path d="m541.46 380.49-74.08-3.91 3.92-74.08 74.08 3.91zm-73-4.86 72.09 3.81 3.81-72.08-72.09-3.81z"/><path d="m533.7 371.86-57.7-3.05 3.05-57.68 57.67 3.05zm-56.63-4 55.68 2.95 2.94-55.68-55.69-2.95z"/><path d="m525 362.24-39.4-2.09 2.08-39.4 39.4 2.09zm-38.35-3 37.4 2 2-37.41-37.4-2z"/><path d="m518.1 354.52-24.75-1.3 1.31-24.75 24.75 1.3zm-23.7-2.25 22.76 1.2 1.2-22.75-22.75-1.2z"/><path d="m471.79 303-74.08-3.92 3.91-74.08 74.08 4zm-73-4.86 72.05 3.86 3.81-72.09-72.08-3.81z"/><path d="m464 294.4-57.68-3 3.05-57.67 57.68 3zm-56.63-4 55.68 2.94 2.95-55.67-55.68-2.94z"/><path d="m455.36 284.78-39.36-2.08 2-39.4 39.41 2.08zm-38.35-3 37.41 2 2-37.4-37.4-2z"/><path d="m448.42 277.07-24.75-1.31 1.33-24.76 24.75 1.31zm-23.69-2.26 22.75 1.19 1.2-22.76-22.75-1.2z"/><path d="m618.68 311-74.08-3.91 3.91-74.09 74.08 4zm-73-4.86 72.05 3.86 3.81-72.08-72.08-3.81z"/><path d="m610.91 302.4-57.68-3 3-57.68 57.77 3zm-56.63-4 55.72 2.95 2.95-55.68-55.69-2.95z"/><path d="m602.25 292.78-39.4-2.08 2.08-39.41 39.41 2.09zm-38.35-3 37.41 2 2-37.41-37.4-2z"/><path d="m595.31 285.07-24.75-1.31 1.31-24.76 24.75 1.31zm-23.69-2.26 22.75 1.2 1.2-22.75-22.75-1.2z"/><path d="m549 233.58-74.08-3.92 3.91-74.08 74.08 3.92zm-73-4.86 72.08 3.81 3.81-72.09-72.08-3.81z"/><path d="m541.23 224.94-57.68-3 3.05-57.68 57.68 3.05zm-56.63-4 55.68 2.94 3-55.68-55.68-2.94z"/><path d="m532.58 215.32-39.41-2.08 2.09-39.4 39.4 2.08zm-38.35-3 37.4 2 2-37.4-37.41-2z"/><path d="m525.64 207.61-24.75-1.31 1.31-24.75 24.74 1.31zm-23.7-2.25 22.75 1.2 1.2-22.75-22.75-1.21z"/><path d="m696.37 241.14-74.08-3.92 3.92-74.08 74.08 3.92zm-73-4.86 72.08 3.81 3.79-72.09-72.08-3.81z"/><path d="m688.61 232.5-57.68-3.05 3.07-57.67 57.68 3.05zm-56.63-4 55.68 2.94 2.94-55.68-55.68-2.94z"/><path d="m680 222.88-39.4-2.08 2.08-39.4 39.4 2.08zm-38.35-3 37.41 2 2-37.4-37.4-2z"/><path d="m673 215.17-24.75-1.31 1.31-24.75 24.75 1.31zm-23.7-2.26 22.76 1.21 1.2-22.75-22.75-1.21z"/><path d="m626.7 163.68-74.08-3.91 3.91-74.08 74.08 3.91zm-73-4.86 72.08 3.81 3.81-72.08-72.08-3.81z"/><path d="m618.93 155.05-57.68-3.05 3-57.68 57.75 3.05zm-56.63-4 55.7 2.95 2.95-55.68-55.68-2.95z"/><path d="m610.27 145.43-39.4-2.09 2.09-39.4 39.4 2.09zm-38.35-3 37.41 2 2-37.41-37.41-2z"/><path d="m603.34 137.71-24.75-1.31 1.3-24.74 24.75 1.3zm-23.7-2.25 22.75 1.2 1.2-22.75-22.75-1.2z"/></g></svg>