<svg viewBox="0 0 322 57" xmlns="http://www.w3.org/2000/svg"><path d="m315.14 49c-4.75-3.52-18.24-13.61-18.24-13.61a2.76 2.76 0 0 1 0-4.39s18.81-13 20.44-14.71a4 4 0 0 0 1-1.53l3.27-6.41-5.82.29s-1.14 1.22-1.75 1.94c-3.67-.22-72.6-3.58-154.04-3.58-57.44 0-108.66 1.65-135.14 2.72-5.37-1.36-10.4-2.58-10.4-2.58h-14.38l1.52 7.26a3.68 3.68 0 0 0 1.06 1.86c1.47 1.52 17 12.32 20 14.37l-22.61 16.44 1.41 6.21c0 2 2 3.68 4.37 3.68 0 0 70.48-3.59 154.17-3.59s154.17 3.63 154.17 3.63a4.36 4.36 0 0 0 4.08-2.44l3.12-5.64z" fill="#3f1a0b"/><path d="m319.91 43.72c-2.36-1.72-19.91-14.85-19.91-14.85a2.81 2.81 0 0 1 0-4.46s19.09-13.22 20.75-14.93 1-3.1 1-3.1a4.39 4.39 0 0 0 -4.23-2.69s-71.52-3.69-156.52-3.69c-85 0-156.52 3.69-156.52 3.69a4.39 4.39 0 0 0 -4.23 2.69s-.65 1.38 1 3.1 20.75 14.93 20.75 14.93a2.81 2.81 0 0 1 0 4.46s-17.55 13.13-19.91 14.85-2 3.35-2 3.35c0 2.06 2 3.73 4.43 3.73 0 0 71.56-3.65 156.52-3.65s156.48 3.65 156.48 3.65c2.44 0 4.41-1.67 4.43-3.73.05 0 .33-1.64-2.04-3.35z" fill="#542a0e"/></svg>