<svg xmlns="http://www.w3.org/2000/svg" xmlns:xlink="http://www.w3.org/1999/xlink" viewBox="0 0 1920 900"><defs><clipPath id="bcd946e9-0317-4dce-9d36-78cda1996b6b"><rect width="1920" height="900" style="fill:none"/></clipPath><linearGradient id="b56ac7cc-defe-474c-98e5-265846a9bf4a" x1="958.14" y1="898.2" x2="958.14" y2="-1.8" gradientUnits="userSpaceOnUse"><stop offset="0.17" stop-color="#ffe3a5"/><stop offset="0.99" stop-color="#e4f3ed"/></linearGradient><linearGradient id="eff894b5-134a-421b-8a1c-d9bf12d5bf67" x1="954.45" y1="910.43" x2="950.04" y2="563.64" gradientUnits="userSpaceOnUse"><stop offset="0.2" stop-color="#80ccb8"/><stop offset="0.45" stop-color="#82ccb8"/><stop offset="0.59" stop-color="#8aceb6"/><stop offset="0.7" stop-color="#98d0b4"/><stop offset="0.79" stop-color="#abd4b2"/><stop offset="0.87" stop-color="#c3d8ae"/><stop offset="0.94" stop-color="#e2dea9"/><stop offset="1" stop-color="#ffe3a5"/></linearGradient></defs><g id="f3a0c90a-5cbf-4c89-9bb6-6c538f7fb68e" data-name="Layer 12"><g style="clip-path:url(#bcd946e9-0317-4dce-9d36-78cda1996b6b)"><rect x="258.13" y="173.19" width="1400" height="725" style="fill:#2356a7;opacity:0.2"/><g style="opacity:0.2"><rect x="358.13" y="98.19" width="1200" height="800" style="fill:#ee2f29"/></g><g id="bee6316b-aa71-4be0-ab39-9a8d3e9294fb" data-name="Layer10 0 FILL"><path d="M1918.14,898.2V-1.8H-1.86v900Z" style="fill:url(#b56ac7cc-defe-474c-98e5-265846a9bf4a)"/></g><path d="M697.35,522.53c-16.4,6.8-61.21,31-61.21,31,9.92-12,42.22-31.59,54.76-39a192.44,192.44,0,0,0-28.81-27.24c-18.64,16.74-52.53,50.89-52.53,50.89,13.4-20.68,36.12-47.17,44.49-56.74a205.84,205.84,0,0,0-27.54-16C607.39,482,572,522.34,572,522.34c11-21.66,37.08-52,45.17-61.12a233.29,233.29,0,0,0-29.5-10.29c-16.4,14.4-42.47,49.93-42.47,49.93,10.37-23.5,24.76-43.36,32-52.59a281.1,281.1,0,0,0-37.13-5.89c-10.46,16.72-26.33,51.24-26.33,51.24,2.45-18.43,11.91-41.45,16.56-52q-6.66-.4-13.62-.54c-7.36-.14-14.45,0-21.29.41-5.95,35-6.4,96.48-6.4,96.48-5.56-37.39-5.77-75.91-5.4-95.52A225.94,225.94,0,0,0,450,448.56c2,22.11,6.31,63.83,13.48,94.31,0,0-20.65-48.49-26.24-90.51a192,192,0,0,0-28.68,12.19c8.67,26,31.75,73.08,31.75,73.08-10.52-13.21-33.51-51.54-42.6-66.89a180.51,180.51,0,0,0-15.12,10.38l30.86,75-29.71-42.72a7.28,7.28,0,1,1-7.18-10.33l-7.39-10.63a188.53,188.53,0,0,0-22.26,24.68l24,51.93L339,528.43C327,547,322.53,561.09,322.53,561.09L344.43,585l353.83,3.53,16.3-37.65S709.71,538.71,697.35,522.53Zm-103.09,27a7.29,7.29,0,1,1,7.85-6.68A7.29,7.29,0,0,1,594.26,549.57Z" style="fill:#e4d9a8"/><ellipse cx="528.33" cy="525.38" rx="7.29" ry="7.28" transform="translate(-38.1 1009.45) rotate(-85.36)" style="fill:#e4d9a8;opacity:0.23"/><ellipse cx="613.62" cy="490.92" rx="7.29" ry="7.28" transform="translate(74.63 1062.79) rotate(-85.36)" style="fill:#e4d9a8;opacity:0.23"/><ellipse cx="388.5" cy="555.66" rx="7.29" ry="7.28" transform="translate(-196.79 897.9) rotate(-85.36)" style="fill:#e4d9a8;opacity:0.23"/><path d="M855.09,628.42c-.39,7.08-.83,14.15-1.48,21.21s-1.38,14.12-2.36,21.16c-1.15-7-2-14-3-21.06L847,639.23l-1.26-10.5-4.82-41.85c-3.21-27.81-6.61-55.49-11.07-82.85-1.12-6.84-2.3-13.65-3.62-20.42-.62-3.4-1.35-6.77-2-10.15s-1.44-6.73-2.22-10.08c-1.56-6.69-3.22-13.34-5.08-19.91l-1.45-4.9-1-3.18c-.17-.55-.35-1.12-.52-1.68l-1.62-4.83c-.58-1.58-1.12-3.19-1.73-4.77a152,152,0,0,0-8.19-18.34,87.37,87.37,0,0,0-5.13-8.44,59,59,0,0,0-6.09-7.55c-4.41-4.6-9.76-8.31-16-9.41a21.45,21.45,0,0,0-4.75-.28,20.34,20.34,0,0,0-4.84.81,26.93,26.93,0,0,0-9.13,4.73,24.94,24.94,0,0,1,8-7.36,24,24,0,0,1,11-3.18,25.94,25.94,0,0,1,5.9.41l.73.12.72.17,1.45.35,1.4.44.71.23.69.26a43.79,43.79,0,0,1,10.21,5.65,75.09,75.09,0,0,1,15.65,16.37c.58.75,1.1,1.52,1.62,2.29s1.07,1.53,1.56,2.31c1,1.57,2,3.14,2.91,4.74l1.39,2.39,1.33,2.42c.92,1.61,1.7,3.26,2.54,4.9s1.57,3.31,2.36,5l2.22,5c.71,1.68,1.38,3.38,2.07,5.06l1.92,5.1c2.52,6.81,4.71,13.7,6.65,20.65s3.67,13.92,5.17,20.93c.79,3.5,1.45,7,2.15,10.53.34,1.76.63,3.52,1,5.29s.63,3.51.91,5.28q2.79,17,4.44,34.09c.27,2.78.52,5.57.75,8.34.57,7.09,1,14.18,1.36,21.27.15,3.55.33,7.1.44,10.64l.23,10.64C856.05,600.1,855.82,614.27,855.09,628.42Z" style="fill:#e4d9a8"/><path d="M877.79,508q-.63,40.85-4.16,81.61c-.29,3.4-.63,6.79-1,10.18s-.64,6.79-1,10.18c-.73,6.77-1.61,13.54-2.48,20.31l-1.39,10.13c-.5,3.38-1,6.75-1.6,10.13-1.12,6.73-2.29,13.46-3.66,20.17q-.31-6.59-.52-13.15c-.74-22.91-.68-45.7-.76-68.5,0-27.13.33-54.23.78-81.34s1.21-54.21,2.26-81.34,2.39-54.29,4.88-81.54c1.08,6.77,1.94,13.55,2.71,20.33q.58,5.08,1.09,10.17l.95,10.19c.6,6.79,1.1,13.59,1.56,20.39.25,3.4.42,6.8.62,10.2s.4,6.8.55,10.2Q878.54,467.15,877.79,508Z" style="fill:#e4d9a8"/><path d="M870.46,518.84c-.3,22.38-5.29,94.85-8.45,138.72-.74-22.91-.68-45.7-.76-68.5,0-27.13.33-54.23.78-81.34s1.21-54.21,2.26-81.34,2.39-54.29,4.88-81.54C869.17,344.84,870.89,486,870.46,518.84Z" style="fill:#e4d9a8"/><path d="M853.08,535c-11.1-47.59-25.32-79-38.65-99.64-.17-.55-.35-1.12-.52-1.68l-1.62-4.83c-.58-1.58-1.12-3.19-1.73-4.77a152,152,0,0,0-8.19-18.34,87.37,87.37,0,0,0-5.13-8.44,59,59,0,0,0-6.09-7.55c-4.41-4.6-9.76-8.31-16-9.41a21.45,21.45,0,0,0-4.75-.28,20.34,20.34,0,0,0-4.84.81,26.93,26.93,0,0,0-9.13,4.73,24.94,24.94,0,0,1,8-7.36,24,24,0,0,1,11-3.18,25.94,25.94,0,0,1,5.9.41l.73.12.72.17,1.45.35,1.4.44.71.23.69.26a43.79,43.79,0,0,1,10.21,5.65,75.09,75.09,0,0,1,15.65,16.37c.58.75,1.1,1.52,1.62,2.29s1.07,1.53,1.56,2.31c1,1.57,2,3.14,2.91,4.74l1.39,2.39,1.33,2.42c.92,1.61,1.7,3.26,2.54,4.9s1.57,3.31,2.36,5l2.22,5c.71,1.68,1.38,3.38,2.07,5.06l1.92,5.1c2.52,6.81,4.71,13.7,6.65,20.65s3.67,13.92,5.17,20.93c.79,3.5,1.45,7,2.15,10.53.34,1.76.63,3.52,1,5.29s.63,3.51.91,5.28Q851.43,517.93,853.08,535Z" style="fill:#e4d9a8"/><path d="M1472.59,606.89c-1.76,6.86-3.57,13.71-5.59,20.51s-4.1,13.58-6.44,20.29c.25-7.11.74-14.17,1.22-21.22l.76-10.57.81-10.54,3.45-42c2.29-27.9,4.36-55.71,5.33-83.42.23-6.92.4-13.84.43-20.74.06-3.45,0-6.89,0-10.34s-.1-6.89-.21-10.32c-.22-6.86-.56-13.71-1.1-20.52l-.46-5.09c-.13-1.1-.26-2.21-.38-3.31-.06-.58-.12-1.17-.19-1.76l-.63-5c-.27-1.67-.49-3.36-.78-5a149.67,149.67,0,0,0-4.45-19.59A88.36,88.36,0,0,0,1461,369a58.29,58.29,0,0,0-4.49-8.59c-3.44-5.38-8-10.05-13.85-12.35a21.63,21.63,0,0,0-4.6-1.21,20.61,20.61,0,0,0-4.91-.15,26.83,26.83,0,0,0-9.88,2.86,25,25,0,0,1,9.28-5.66,24.08,24.08,0,0,1,11.41-1,26.29,26.29,0,0,1,5.7,1.55l.69.27.67.3,1.36.62,1.29.71.65.36.63.4a43.86,43.86,0,0,1,8.9,7.53A74.8,74.8,0,0,1,1476,373.73c.41.85.78,1.71,1.14,2.56s.75,1.71,1.08,2.58c.66,1.73,1.35,3.46,1.92,5.21l.91,2.62.83,2.63c.59,1.76,1,3.53,1.53,5.3s.9,3.55,1.35,5.32l1.2,5.35c.37,1.78.69,3.58,1,5.36l.9,5.38c1.14,7.16,1.94,14.35,2.49,21.54s.88,14.38,1,21.54c.09,3.59.05,7.17.05,10.76,0,1.79-.07,3.57-.1,5.36s-.06,3.57-.13,5.36c-.39,11.48-1.19,22.92-2.31,34.31-.28,2.77-.57,5.55-.89,8.32-.82,7.07-1.74,14.11-2.82,21.13-.55,3.5-1.06,7-1.65,10.52l-1.85,10.47C1479.07,579.3,1476.08,593.16,1472.59,606.89Z" style="fill:#e4d9a8"/><path d="M1518.37,493.22q-8.59,39.93-20,79.22c-.95,3.28-1.94,6.54-2.93,9.81s-2,6.52-3,9.77c-2,6.51-4.22,13-6.4,19.44l-3.33,9.67q-1.74,4.83-3.56,9.61c-2.4,6.39-4.87,12.76-7.53,19.07q1-6.51,2.07-13c3.75-22.62,8.25-45,12.62-67.33,5.29-26.61,10.92-53.12,16.65-79.62s11.77-52.94,18.1-79.34,12.94-52.77,20.71-79c-.26,6.84-.74,13.66-1.32,20.46-.27,3.4-.59,6.8-.91,10.19l-1.06,10.18c-.74,6.78-1.57,13.54-2.45,20.3-.42,3.38-.91,6.75-1.39,10.13s-.93,6.75-1.45,10.11Q1527.1,453.3,1518.37,493.22Z" style="fill:#e4d9a8"/><path d="M1509.07,502.41c-4.66,21.9-23.71,92-35.37,134.41,3.75-22.62,8.25-45,12.62-67.33,5.29-26.61,10.92-53.12,16.65-79.62s11.77-52.94,18.1-79.34,12.94-52.77,20.71-79C1541.78,331.52,1515.9,470.29,1509.07,502.41Z" style="fill:#e4d9a8"/><path d="M1488.86,514.91c-1.59-48.85-9.41-82.43-18.45-105.27-.06-.58-.12-1.17-.19-1.76l-.63-5c-.27-1.67-.49-3.36-.78-5a149.67,149.67,0,0,0-4.45-19.59A88.36,88.36,0,0,0,1461,369a58.29,58.29,0,0,0-4.49-8.59c-3.44-5.38-8-10.05-13.85-12.35a21.63,21.63,0,0,0-4.6-1.21,20.61,20.61,0,0,0-4.91-.15,26.83,26.83,0,0,0-9.88,2.86,25,25,0,0,1,9.28-5.66,24.08,24.08,0,0,1,11.41-1,26.29,26.29,0,0,1,5.7,1.55l.69.27.67.3,1.36.62,1.29.71.65.36.63.4a43.86,43.86,0,0,1,8.9,7.53A74.8,74.8,0,0,1,1476,373.73c.41.85.78,1.71,1.14,2.56s.75,1.71,1.08,2.58c.66,1.73,1.35,3.46,1.92,5.21l.91,2.62.83,2.63c.59,1.76,1,3.53,1.53,5.3s.9,3.55,1.35,5.32l1.2,5.35c.37,1.78.69,3.58,1,5.36l.9,5.38c1.14,7.16,1.94,14.35,2.49,21.54s.88,14.38,1,21.54c.09,3.59.05,7.17.05,10.76,0,1.79-.07,3.57-.1,5.36s-.06,3.57-.13,5.36C1490.78,492.08,1490,503.52,1488.86,514.91Z" style="fill:#e4d9a8"/><path d="M1467.28,651.32l-.1,0a2.3,2.3,0,0,1-1.71-2.77c15.54-65.78,46.41-297.61,46.72-299.94a2.3,2.3,0,1,1,4.56.6c-.31,2.34-31.21,234.4-46.8,300.4A2.31,2.31,0,0,1,1467.28,651.32Z" style="fill:#e4d9a8"/><path d="M1520.59,287.88a2.3,2.3,0,0,1-1.85-2.55l2.91-23a2.3,2.3,0,1,1,4.56.57l-2.91,23a2.3,2.3,0,0,1-2.57,2Z" style="fill:#e4d9a8"/><path d="M1533.86,285.42l-8.24,65.14c-.81,6.42-6,11.1-11.57,10.4l-5-.64c-5.54-.7-9.42-6.53-8.61-12.95l8.24-65.14c.82-6.42,6-11.1,11.57-10.4l5,.64C1530.8,273.17,1534.67,279,1533.86,285.42Z" style="fill:#e4d9a8"/><path d="M1533.86,285.42l-8.24,65.14c-.81,6.42-6,11.1-11.57,10.4l-1.06-.14,11.2-88.49,1.06.14C1530.8,273.17,1534.67,279,1533.86,285.42Z" style="fill:#e4d9a8"/><path d="M1021.08,572.93c-.82,7-1.68,14.06-2.77,21.07s-2.23,14-3.64,21c-.71-7.09-1.18-14.14-1.66-21.2l-.67-10.56-.62-10.56-2.26-42.06c-1.51-28-3.22-55.79-6-83.37-.71-6.89-1.48-13.77-2.38-20.61-.41-3.43-.94-6.83-1.4-10.25s-1-6.81-1.6-10.19c-1.15-6.78-2.4-13.51-3.86-20.18l-1.15-5c-.27-1.08-.55-2.15-.82-3.23l-.42-1.72-1.32-4.91c-.48-1.62-.93-3.26-1.44-4.86A151.23,151.23,0,0,0,982,347.48a90.62,90.62,0,0,0-4.6-8.74,59.07,59.07,0,0,0-5.62-7.91c-4.13-4.86-9.23-8.88-15.39-10.36a21.17,21.17,0,0,0-4.72-.57,20.25,20.25,0,0,0-4.88.51,27,27,0,0,0-9.41,4.17,25.14,25.14,0,0,1,8.44-6.86,23.86,23.86,0,0,1,11.16-2.5,25.88,25.88,0,0,1,5.87.76l.72.17.7.21,1.43.44,1.38.52.69.27.67.31a43,43,0,0,1,9.84,6.26,74.89,74.89,0,0,1,14.64,17.29c.52.79,1,1.58,1.47,2.38s1,1.59,1.41,2.41c.89,1.62,1.81,3.25,2.62,4.9l1.25,2.48,1.18,2.49c.82,1.66,1.5,3.35,2.23,5s1.37,3.4,2,5.09l1.92,5.14c.61,1.72,1.16,3.45,1.75,5.17l1.62,5.21c2.09,6.95,3.85,14,5.37,21s2.82,14.13,3.89,21.21c.57,3.54,1,7.09,1.5,10.65.24,1.77.42,3.54.63,5.33s.42,3.54.59,5.32c1.17,11.43,1.93,22.88,2.35,34.31q.16,4.19.25,8.37c.14,7.11.18,14.21.06,21.31-.07,3.55-.1,7.1-.22,10.65l-.41,10.63C1023.77,544.71,1022.68,558.85,1021.08,572.93Z" style="fill:#e4d9a8"/><path d="M995.31,613.94c-2.29-5.56-4.39-11.18-6.45-16.82s-4-11.32-6-17-3.47-11.49-5.12-17.26c-.85-2.88-1.63-5.78-2.44-8.67s-1.63-5.78-2.35-8.69l-2-8.78-2-8.79c-.65-2.93-1.31-5.86-1.92-8.8-.3-1.48-.65-2.94-.9-4.42l-.8-4.44c-1.05-5.92-2-11.86-3-17.79l-.72-4.45c-.23-1.49-.39-3-.59-4.48l-1.08-9-1.05-9c-.16-1.5-.35-3-.48-4.49l-.34-4.52c-.4-6-.87-12-1.22-18-.17-6-.33-12.07-.4-18.11-.08-3,0-6,.08-9.05l.28-9.07c0-1.5.06-3,.18-4.52l.34-4.53c.23-3,.45-6,.72-9,.07-.76.13-1.51.21-2.26l.28-2.26.56-4.5.6-4.49.3-2.25c.11-.75.25-1.49.38-2.24.54-3,1.07-6,1.63-8.93s1.33-5.91,2-8.85c.17-.73.35-1.46.57-2.19l.62-2.19c.43-1.45.82-2.9,1.28-4.35l1.48-4.28c.54-1.42,1.07-2.83,1.71-4.2-.11.75-.19,1.49-.27,2.25s-.17,1.48-.23,2.23l-.36,4.46c-.1,1.49-.16,3-.25,4.47s-.21,2.94-.22,4.44c-.06,3-.21,5.93-.26,8.89l0,8.88,0,2.22,0,2.22.09,4.43.06,4.42,0,2.22c0,.73.06,1.47.1,2.21.15,3,.25,5.9.35,8.84l.17,4.42c.06,1.47.19,2.94.27,4.42l.55,8.82c.1,1.47.17,3,.25,4.41s.23,2.94.34,4.41c.55,5.87,1,11.75,1.44,17.62.66,5.86,1.2,11.74,1.81,17.6l.42,4.4c.15,1.46.37,2.93.54,4.39l1.08,8.79c1.25,11.73,3,23.43,4.52,35.16.64,5.88,1.75,11.7,2.54,17.57l1.29,8.79,1.21,8.82c.92,5.86,1.89,11.72,2.75,17.61l1.29,8.83c.43,3,.8,5.91,1.25,8.86.95,5.88,1.86,11.77,2.68,17.71S994.72,607.93,995.31,613.94Z" style="fill:#e4d9a8"/><path d="M1177.35,623.69c-2.3-5.56-4.4-11.18-6.46-16.82q-.9-2.48-1.78-5c-1.42-4-2.81-8-4.18-12.06-1.79-5.73-3.45-11.49-5.11-17.26-.85-2.88-1.63-5.78-2.44-8.67s-1.64-5.78-2.35-8.69l-2-8.78-2-8.78c-.65-2.94-1.32-5.87-1.93-8.81-.3-1.48-.65-2.94-.9-4.42l-.8-4.44c-1.05-5.92-2-11.85-3-17.79l-.72-4.45c-.22-1.49-.39-3-.59-4.48l-1.08-9-1-9c-.17-1.5-.36-3-.49-4.49l-.33-4.51c-.41-6-.88-12-1.23-18.05-.17-6-.33-12.07-.4-18.11-.08-3,0-6,.08-9.05l.27-9.07c.06-1.5.07-3,.19-4.52l.34-4.53c.23-3,.45-6,.73-9,.06-.76.12-1.51.2-2.26l.28-2.26.57-4.5.59-4.49.3-2.25c.11-.74.25-1.49.38-2.24.55-3,1.07-6,1.63-8.93s1.33-5.91,2-8.85c.16-.73.35-1.46.56-2.19l.62-2.19c.43-1.45.82-2.9,1.28-4.34l1.48-4.29c.54-1.42,1.08-2.83,1.71-4.2-.11.75-.19,1.49-.26,2.25s-.18,1.48-.24,2.23l-.36,4.46c-.1,1.49-.16,3-.25,4.47s-.22,2.94-.22,4.44c-.05,3-.21,5.93-.26,8.89l0,8.88,0,2.22,0,2.22.09,4.43.07,4.42,0,2.22c0,.73.06,1.47.1,2.21,0,.31,0,.62,0,.92.13,2.64.22,5.28.32,7.92l.16,4.42c.06,1.47.19,2.95.27,4.42l.56,8.82c.1,1.48.16,3,.23,4.41s.24,2.94.35,4.41c.55,5.88,1,11.75,1.44,17.62.66,5.87,1.2,11.74,1.81,17.6l.42,4.4c.15,1.46.36,2.93.54,4.39l1.08,8.79c1.25,11.73,3,23.43,4.52,35.16.64,5.88,1.74,11.7,2.55,17.57L1166,544l1.21,8.82c.92,5.86,1.88,11.72,2.75,17.61l1.3,8.83c.41,3,.79,5.91,1.24,8.86.94,5.88,1.86,11.77,2.68,17.71S1176.75,617.68,1177.35,623.69Z" style="fill:#e4d9a8"/><path d="M1051.07,454.11q-3.12,40.72-9.12,81.2c-.49,3.38-1,6.74-1.57,10.11s-1.06,6.73-1.64,10.09c-1.13,6.72-2.43,13.42-3.71,20.12l-2,10c-.72,3.34-1.45,6.67-2.22,10-1.52,6.66-3.11,13.3-4.89,19.91q.1-6.58.29-13.15c.66-22.92,2.1-45.66,3.41-68.42,1.64-27.08,3.63-54.1,5.73-81.14s4.51-54,7.2-81.05,5.69-54,9.84-81.09c.67,6.82,1.11,13.64,1.46,20.45.19,3.41.34,6.82.48,10.22l.32,10.23c.19,6.82.27,13.63.32,20.45,0,3.4,0,6.81,0,10.22s0,6.81-.08,10.21Q1054.32,413.37,1051.07,454.11Z" style="fill:#e4d9a8"/><path d="M1196.82,413.84l-1,13.25c-.32,4.41-.72,8.83-1.1,13.23s-.8,8.82-1.25,13.23-.86,8.82-1.38,13.22c-1.05,8.79-2,17.6-3.3,26.37-.61,4.39-1.19,8.79-1.88,13.16l-2.08,13.14c-2.95,17.48-6.35,34.9-10.41,52.17-2.14,8.62-4.21,17.23-6.71,25.75-1.52,5.51-3.19,11-5,16.43-1,3-2,6-3,9l5.42-52.68q2.54-26.28,4.79-52.5l1-13.12c.39-4.37.73-8.74,1.07-13.11l2-26.24c.59-8.76,1.34-17.5,1.86-26.25l1.81-26.26,3.38-52.57,3.28-52.64q1.46-22.58,3-45.2.25-3.75.52-7.51c.62-8.8,1.25-17.6,1.94-26.41s1.38-17.63,2.21-26.47c1.29,8.79,2.23,17.6,3.07,26.42s1.5,17.65,2.09,26.47c1.14,17.67,1.8,35.36,2.12,53.05.15,8.84.23,17.69.17,26.53,0,4.42,0,8.85-.11,13.27l-.26,13.27C1198.73,378.49,1198,396.18,1196.82,413.84Z" style="fill:#e4d9a8"/><path d="M1307.22,459.41a31.17,31.17,0,0,0-12.6-7.14,30.56,30.56,0,0,0-13.37-.73c-8.7,1.45-16.37,6.2-22.83,12.39a102.4,102.4,0,0,0-16.79,21.76c-2.4,4-4.65,8.2-6.75,12.47s-4.11,8.62-6,13.06-3.67,8.92-5.36,13.48l-1.27,3.42-1.23,3.44c-.85,2.28-1.58,4.62-2.41,6.91-3.13,9.28-6,18.7-8.87,28.2s-5.56,19.09-8.34,28.74l-1.06,3.61c-.35,1.22-.67,2.43-1,3.64l-2.14,7.27c-.69,2.43-1.47,4.85-2.2,7.29s-1.49,4.86-2.35,7.29c-.45-5.11-.66-10.21-.71-15.31,0-.53,0-1.06,0-1.58,0-4.58.07-9.14.27-13.71a300.43,300.43,0,0,1,2.93-30.48,246.23,246.23,0,0,1,16.26-59.66c1-2.41,2.12-4.8,3.22-7.18s2.31-4.74,3.58-7.06a141.79,141.79,0,0,1,8.3-13.64c6.09-8.8,13.43-17.1,22.56-23.59a65.54,65.54,0,0,1,7.19-4.41,54.22,54.22,0,0,1,7.82-3.37,43,43,0,0,1,17-2.29c.89.06,1.78.16,2.66.3a33.29,33.29,0,0,1,13.22,5A27.56,27.56,0,0,1,1307.22,459.41Z" style="fill:#e4d9a8"/><path d="M1172,337.14c-6.5,1.72-12.31,5-17.7,8.6a99,99,0,0,0-14.83,12.54l-1.68,1.74-.85.86-.8.91-3.2,3.64c-.54.58-1,1.26-1.52,1.88l-1.51,1.89c-1,1.26-2,2.5-2.93,3.84-.46.64-.91,1.28-1.35,1.91h0c-.48.67-1,1.35-1.45,2l-.71,1-.66,1-1.31,2-2.62,4.07-2.45,4.19c-.81,1.4-1.66,2.77-2.44,4.18l-2.25,4.31-2.26,4.29-2.09,4.4-2.09,4.39c-.36.72-.65,1.49-1,2.23l-1,2.23-1.93,4.48-1,2.23c-.3.75-.59,1.52-.88,2.28-1.15,3-2.34,6.08-3.53,9.11s-2.14,6.17-3.21,9.24c-.52,1.55-1.12,3.07-1.61,4.63l-1.46,4.68c-1,3.14-2,6.23-2.9,9.38-7.31,25.18-13,50.94-17.91,77-.59,3.26-1.25,6.51-1.88,9.77s-1.09,6.54-1.69,9.81l-1.75,9.82c-.63,3.28-1.07,6.57-1.64,9.86l-1.68,9.87-.87,4.93-.79,5c-1.06,6.6-2.18,13.22-3.49,19.83-.45-6.71-.71-13.43-.89-20.15,0-1.68-.1-3.36-.13-5l0-5,.12-10.08.1-5c0-1.68.06-3.36.15-5l.56-10.08c.18-3.36.42-6.72.63-10.07s.61-6.72,1-10.07q.45-4.39,1-8.79a434.6,434.6,0,0,1,14.1-70.88c4-13,8.39-25.94,14.1-38.41.35-.79.68-1.57,1-2.35l1.13-2.32,2.26-4.62c.76-1.53,1.47-3.09,2.3-4.6l2.52-4.51,2.51-4.49c.88-1.47,1.8-2.94,2.72-4.4l2.76-4.36c1-1.43,2-2.83,3-4.24s2-2.83,3-4.22l3.24-4.06,1.62-2,.81-1,.86-1c1.15-1.29,2.32-2.57,3.48-3.85s2.39-2.5,3.63-3.72,2.42-2.46,3.73-3.61l3.92-3.41,1-.85,1-.79,2.07-1.59a87.13,87.13,0,0,1,17.79-10.56l2.37-1c.79-.33,1.62-.59,2.43-.88,1.6-.6,3.27-1,4.91-1.52s3.33-.76,5-1c.83-.14,1.68-.2,2.52-.29S1171.19,337.11,1172,337.14Z" style="fill:#e4d9a8"/><path d="M1119.14,449.31c-.26,4.36-.79,8.67-1.46,12.93s-1.54,8.45-2.49,12.59c-1.88,8.29-4.1,16.35-6.37,24.34s-4.62,15.88-7,23.77l-7,23.65c-2.33,7.88-4.68,15.78-7.12,23.69s-4.9,15.86-7.45,23.83c-1.34,4-2.6,8-4,11.95s-2.79,8-4.47,12a193.19,193.19,0,0,1-.72-25.54l.13-3.28.14-3.07c.12-2.11.27-4.23.43-6.34.31-4.23.8-8.44,1.3-12.64,1.07-8.41,2.52-16.76,4.27-25.06s3.9-16.49,6.32-24.6,5.14-16.11,8.08-24,6.1-15.6,9.27-23.22l4.69-11.39c1.49-3.79,3-7.57,4.36-11.41s2.61-7.72,3.7-11.7,2-8.06,2.78-12.29a63.07,63.07,0,0,1,2.48,12.72A87.71,87.71,0,0,1,1119.14,449.31Z" style="fill:#e4d9a8"/><path d="M962.49,579c-.09,1.57-.23,3.15-.37,4.73-.27,3.15-.64,6.29-1,9.44s-1,6.28-1.54,9.4-1.26,6.26-2.12,9.36c-1.8-6.22-2.91-12.41-4.08-18.58-.58-3.07-1.15-6.15-1.62-9.22l-1.45-9.2q-.7-4.59-1.27-9.18c-.45-3.06-.87-6.11-1.24-9.17-.19-1.53-.36-3.06-.54-4.58l-.58-4.58-.53-4.58c-.17-1.53-.31-3.06-.5-4.59-1.37-12.21-2.6-24.43-3.58-36.75l-.7-9.27-.58-9.32c-.06-1.57-.19-3.11-.25-4.68l-.21-4.72c-.13-3.15-.23-6.32-.25-9.55h0a83.37,83.37,0,0,1,4.5,8.5c1.35,2.9,2.58,5.84,3.74,8.8l1.66,4.46c.55,1.49,1,3,1.53,4.51s1,3,1.44,4.53.88,3,1.29,4.56a245.61,245.61,0,0,1,7.08,37.17c.34,3.13.6,6.28.86,9.42l.35,4.71c.06,1.58.15,3.15.19,4.73.12,3.14.18,6.3.22,9.45s-.11,6.31-.23,9.46Z" style="fill:#e4d9a8"/><path d="M1283.66,442.53c-16.58,2.41-43.45,15.12-66.84,66.52-15.53,34.12-22.29,69.28-24.9,98.57,0-4.58.07-9.14.27-13.71a300.43,300.43,0,0,1,2.93-30.48,246.23,246.23,0,0,1,16.26-59.66c1-2.41,2.12-4.8,3.22-7.18s2.31-4.74,3.58-7.06a141.79,141.79,0,0,1,8.3-13.64c6.09-8.8,13.43-17.1,22.56-23.59a65.54,65.54,0,0,1,7.19-4.41,54.22,54.22,0,0,1,7.82-3.37,43,43,0,0,1,17-2.29C1281.89,442.29,1282.78,442.39,1283.66,442.53Z" style="fill:#e4d9a8"/><path d="M1189,405.37c-2.35,43.94-18.64,157.08-26.25,208.42-1,3-2,6-3,9l5.42-52.68q2.54-26.28,4.79-52.5l1-13.12c.39-4.37.73-8.74,1.07-13.11l2-26.24c.59-8.76,1.34-17.5,1.86-26.25l1.81-26.26,3.38-52.57,3.28-52.64q1.46-22.58,3-45.2C1189.12,305.18,1191,369.31,1189,405.37Z" style="fill:#e4d9a8"/><path d="M1169.11,601.92c-1.42-4-2.81-8-4.18-12.06-1.79-5.73-3.45-11.49-5.11-17.26-.85-2.88-1.63-5.78-2.44-8.67s-1.64-5.78-2.35-8.69l-2-8.78-2-8.78c-.65-2.94-1.32-5.87-1.93-8.81-.3-1.48-.65-2.94-.9-4.42l-.8-4.44c-1.05-5.92-2-11.85-3-17.79l-.72-4.45c-.22-1.49-.39-3-.59-4.48l-1.08-9-1-9c-.17-1.5-.36-3-.49-4.49l-.33-4.51c-.41-6-.88-12-1.23-18.05-.17-6-.33-12.07-.4-18.11-.08-3,0-6,.08-9.05l.27-9.07c.06-1.5.07-3,.19-4.52l.34-4.53c.23-3,.45-6,.73-9,.06-.76.12-1.51.2-2.26l.28-2.26.57-4.5.59-4.49.3-2.25c.11-.74.25-1.49.38-2.24.55-3,1.07-6,1.63-8.93s1.33-5.91,2-8.85c.16-.73.35-1.46.56-2.19l.62-2.19c.43-1.45.82-2.9,1.28-4.34l1.48-4.29c.54-1.42,1.08-2.83,1.71-4.2-.11.75-.19,1.49-.26,2.25s-.18,1.48-.24,2.23l-.36,4.46c-.1,1.49-.16,3-.25,4.47s-.22,2.94-.22,4.44c-.05,3-.21,5.93-.26,8.89l0,8.88,0,2.22,0,2.22.09,4.43.07,4.42,0,2.22c0,.73.06,1.47.1,2.21,0,.31,0,.62,0,.92C1144.86,434,1141.65,506.14,1169.11,601.92Z" style="fill:#e4d9a8"/><path d="M1172,337.14c-6.5,1.72-12.31,5-17.7,8.6a99,99,0,0,0-14.83,12.54l-1.68,1.74-.85.86-.8.91-3.2,3.64c-.54.58-1,1.26-1.52,1.88l-1.51,1.89c-1,1.26-2,2.5-2.93,3.84-.46.64-.91,1.28-1.35,1.91h0c-18.16,18.16-46.7,59.92-68,152.79a434.6,434.6,0,0,1,14.1-70.88c4-13,8.39-25.94,14.1-38.41.35-.79.68-1.57,1-2.35l1.13-2.32,2.26-4.62c.76-1.53,1.47-3.09,2.3-4.6l2.52-4.51,2.51-4.49c.88-1.47,1.8-2.94,2.72-4.4l2.76-4.36c1-1.43,2-2.83,3-4.24s2-2.83,3-4.22l3.24-4.06,1.62-2,.81-1,.86-1c1.15-1.29,2.32-2.57,3.48-3.85s2.39-2.5,3.63-3.72,2.42-2.46,3.73-3.61l3.92-3.41,1-.85,1-.79,2.07-1.59a87.13,87.13,0,0,1,17.79-10.56l2.37-1c.79-.33,1.62-.59,2.43-.88,1.6-.6,3.27-1,4.91-1.52s3.33-.76,5-1c.83-.14,1.68-.2,2.52-.29S1171.19,337.11,1172,337.14Z" style="fill:#e4d9a8"/><path d="M1095.58,512.06c-11.58,14.31-19.54,48.59-24.44,77.16l.14-3.07c.12-2.11.27-4.23.43-6.34.31-4.23.8-8.44,1.3-12.64,1.07-8.41,2.52-16.76,4.27-25.06s3.9-16.49,6.32-24.6,5.14-16.11,8.08-24,6.1-15.6,9.27-23.22l4.69-11.39c1.49-3.79,3-7.57,4.36-11.41s2.61-7.72,3.7-11.7,2-8.06,2.78-12.29C1116.48,423.52,1117.07,485.48,1095.58,512.06Z" style="fill:#e4d9a8"/><path d="M1043.09,464.48c-1.65,22.32-11,94.35-16.87,137.95.66-22.92,2.1-45.66,3.41-68.42,1.64-27.08,3.63-54.1,5.73-81.14s4.51-54,7.2-81.05,5.69-54,9.84-81.09C1052.4,290.73,1045.52,431.73,1043.09,464.48Z" style="fill:#e4d9a8"/><path d="M1024.76,479.59c-8.18-48.18-20.47-80.4-32.51-101.81l-.42-1.72-1.32-4.91c-.48-1.62-.93-3.26-1.44-4.86A151.23,151.23,0,0,0,982,347.48a90.62,90.62,0,0,0-4.6-8.74,59.07,59.07,0,0,0-5.62-7.91c-4.13-4.86-9.23-8.88-15.39-10.36a21.17,21.17,0,0,0-4.72-.57,20.25,20.25,0,0,0-4.88.51,27,27,0,0,0-9.41,4.17,25.14,25.14,0,0,1,8.44-6.86,23.86,23.86,0,0,1,11.16-2.5,25.88,25.88,0,0,1,5.87.76l.72.17.7.21,1.43.44,1.38.52.69.27.67.31a43,43,0,0,1,9.84,6.26,74.89,74.89,0,0,1,14.64,17.29c.52.79,1,1.58,1.47,2.38s1,1.59,1.41,2.41c.89,1.62,1.81,3.25,2.62,4.9l1.25,2.48,1.18,2.49c.82,1.66,1.5,3.35,2.23,5s1.37,3.4,2,5.09l1.92,5.14c.61,1.72,1.16,3.45,1.75,5.17l1.62,5.21c2.09,6.95,3.85,14,5.37,21s2.82,14.13,3.89,21.21c.57,3.54,1,7.09,1.5,10.65.24,1.77.42,3.54.63,5.33s.42,3.54.59,5.32C1023.58,456.71,1024.34,468.16,1024.76,479.59Z" style="fill:#e4d9a8"/><path d="M973,545.49l-2-8.78-2-8.79c-.65-2.93-1.31-5.86-1.92-8.8-.3-1.48-.65-2.94-.9-4.42l-.8-4.44c-1.05-5.92-2-11.86-3-17.79l-.72-4.45c-.23-1.49-.39-3-.59-4.48l-1.08-9-1.05-9c-.16-1.5-.35-3-.48-4.49l-.34-4.52c-.4-6-.87-12-1.22-18-.17-6-.33-12.07-.4-18.11-.08-3,0-6,.08-9.05l.28-9.07c0-1.5.06-3,.18-4.52l.34-4.53c.23-3,.45-6,.72-9,.07-.76.13-1.51.21-2.26l.28-2.26.56-4.5.6-4.49.3-2.25c.11-.75.25-1.49.38-2.24.54-3,1.07-6,1.63-8.93s1.33-5.91,2-8.85c.17-.73.35-1.46.57-2.19l.62-2.19c.43-1.45.82-2.9,1.28-4.35l1.48-4.28c.54-1.42,1.07-2.83,1.71-4.2-.11.75-.19,1.49-.27,2.25s-.17,1.48-.23,2.23l-.36,4.46c-.1,1.49-.16,3-.25,4.47s-.21,2.94-.22,4.44c-.06,3-.21,5.93-.26,8.89l0,8.88S956.26,466.16,973,545.49Z" style="fill:#e4d9a8"/><path d="M957.45,611.91c-1.8-6.22-2.91-12.41-4.08-18.58-.58-3.07-1.15-6.15-1.62-9.22l-1.45-9.2q-.7-4.59-1.27-9.18c-.45-3.06-.87-6.11-1.24-9.17-.19-1.53-.36-3.06-.54-4.58l-.58-4.58-.53-4.58c-.17-1.53-.31-3.06-.5-4.59-1.37-12.21-2.6-24.43-3.58-36.75l-.7-9.27-.58-9.32c-.06-1.57-.19-3.11-.25-4.68l-.21-4.72c-.13-3.15-.23-6.32-.25-9.55h0C940.43,465.36,964.69,562.4,957.45,611.91Z" style="fill:#e4d9a8"/><path d="M1034.85,618.36a2.29,2.29,0,0,1-2.17-2.42c6.67-124.63,50.59-261.69,51-263.06a2.3,2.3,0,0,1,4.38,1.41c-.44,1.36-44.18,137.87-50.82,261.9A2.3,2.3,0,0,1,1034.85,618.36Z" style="fill:#e4d9a8"/><path d="M1103.24,306a2.27,2.27,0,0,1-.67-.13,2.31,2.31,0,0,1-1.37-3l7.93-21.78a2.3,2.3,0,0,1,4.32,1.57l-7.93,21.78A2.28,2.28,0,0,1,1103.24,306Z" style="fill:#e4d9a8"/><path d="M1115.93,306.4l-22.46,61.69c-2.21,6.09-8.32,9.5-13.58,7.59l-4.78-1.74c-5.26-1.92-7.75-8.46-5.53-14.54L1092,297.7c2.21-6.08,8.33-9.49,13.58-7.58l4.78,1.74C1115.65,293.77,1118.14,300.31,1115.93,306.4Z" style="fill:#e4d9a8"/><path d="M1115.93,306.4l-22.46,61.69c-2.21,6.09-8.32,9.5-13.58,7.59l-1-.37,30.51-83.82,1,.37C1115.65,293.77,1118.14,300.31,1115.93,306.4Z" style="fill:#e4d9a8"/><path d="M1184.19,626.36a2.29,2.29,0,0,1-2.17-2.42c3.43-64,17.88-126.59,29.4-167.83,12.48-44.68,24.31-74.66,24.43-75a2.3,2.3,0,1,1,4.27,1.7c-.47,1.18-47,119.67-53.51,241.34A2.3,2.3,0,0,1,1184.19,626.36Z" style="fill:#e4d9a8"/><path d="M1262.51,326.48a2.18,2.18,0,0,1-.86-.18,2.3,2.3,0,0,1-1.21-3l9.07-21.32a2.3,2.3,0,1,1,4.23,1.8l-9.07,21.32A2.3,2.3,0,0,1,1262.51,326.48Z" style="fill:#e4d9a8"/><path d="M1275,327.5l-25.71,60.41c-2.54,6-8.82,9-14,6.85l-4.68-2c-5.15-2.19-7.29-8.86-4.75-14.82l25.71-60.41c2.54-6,8.82-9,14-6.84l4.68,2C1275.36,314.88,1277.49,321.54,1275,327.5Z" style="fill:#e4d9a8"/><path d="M1275,327.5l-25.71,60.41c-2.54,6-8.82,9-14,6.85l-1-.42,34.92-82.07,1,.42C1275.36,314.88,1277.49,321.54,1275,327.5Z" style="fill:#e4d9a8"/><path d="M1156.62,624.89a2.3,2.3,0,0,1-2.17-2.42c13.79-257.55,2.34-341.1,2.23-341.92a2.3,2.3,0,1,1,4.55-.65c.12.81,11.64,84.63-2.19,342.81A2.31,2.31,0,0,1,1156.62,624.89Z" style="fill:#e4d9a8"/><path d="M1148.36,224.45a2.31,2.31,0,0,1-2.15-1.94l-3.65-22.89a2.3,2.3,0,0,1,4.54-.72l3.65,22.89a2.3,2.3,0,0,1-1.91,2.63A2.58,2.58,0,0,1,1148.36,224.45Z" style="fill:#e4d9a8"/><path d="M1160.75,218.36l10.35,64.84c1,6.39-2.67,12.34-8.19,13.22l-5,.8c-5.52.89-10.87-3.62-11.9-10l-10.34-64.83c-1-6.4,2.67-12.35,8.19-13.23l5-.8C1154.38,207.46,1159.73,212,1160.75,218.36Z" style="fill:#e4d9a8"/><path d="M1160.75,218.36l10.35,64.84c1,6.39-2.67,12.34-8.19,13.22l-1.06.17-14-88.08,1-.17C1154.38,207.46,1159.73,212,1160.75,218.36Z" style="fill:#e4d9a8"/><path d="M1335.77,371.49c6.38,2.11,12,5.72,17.15,9.66a99,99,0,0,1,14,13.42l1.57,1.83.8.91.74,1,3,3.83c.51.61.93,1.32,1.4,2l1.39,2c.93,1.32,1.87,2.61,2.7,4,.42.66.83,1.33,1.24,2h0c.44.7.88,1.41,1.33,2.11l.64,1,.6,1.06,1.18,2.11,2.38,4.22,2.18,4.33c.72,1.45,1.49,2.87,2.18,4.32l2,4.44,2,4.42,1.82,4.52,1.81,4.5c.33.75.56,1.53.85,2.29l.83,2.29,1.65,4.59.83,2.28c.25.77.49,1.56.74,2.34,1,3.11,2,6.21,3,9.3s1.76,6.29,2.64,9.42c.42,1.58.93,3.13,1.32,4.72l1.18,4.76c.77,3.19,1.61,6.34,2.32,9.54,5.77,25.57,9.88,51.64,13.19,77.93.39,3.29.86,6.57,1.29,9.86s.68,6.6,1.08,9.9l1.16,9.91c.42,3.31.66,6.62,1,9.93l1.07,10,.58,5,.48,5c.66,6.65,1.37,13.32,2.28,20,.86-6.67,1.52-13.36,2.12-20.06.15-1.67.3-3.35.43-5l.28-5,.5-10.07.21-5c.06-1.68.15-3.36.15-5l.06-10.09c0-3.37,0-6.74,0-10.1s-.2-6.74-.36-10.1c-.11-2.94-.25-5.9-.42-8.84a432.74,432.74,0,0,0-9.76-71.61c-3.24-13.21-6.79-26.4-11.73-39.19-.3-.81-.58-1.61-.89-2.41l-1-2.38-2-4.75c-.67-1.58-1.27-3.18-2-4.73l-2.23-4.65-2.23-4.65q-1.2-2.28-2.46-4.55l-2.49-4.52c-.87-1.49-1.8-2.95-2.7-4.42s-1.81-2.94-2.74-4.39l-3-4.24-1.5-2.12-.75-1-.8-1c-1.06-1.36-2.16-2.71-3.24-4.06s-2.23-2.64-3.39-3.93-2.27-2.61-3.5-3.83l-3.71-3.64-.93-.91-1-.85-2-1.71a87.72,87.72,0,0,0-17.12-11.63l-2.31-1.15c-.76-.38-1.58-.69-2.36-1-1.57-.69-3.21-1.24-4.82-1.81s-3.28-1-5-1.31c-.83-.19-1.67-.3-2.51-.44S1336.61,371.51,1335.77,371.49Z" style="fill:#e4d9a8"/><path d="M1381.73,486.67c0,4.36.26,8.69.68,13s1,8.53,1.71,12.72c1.37,8.39,3.1,16.57,4.88,24.68s3.65,16.14,5.51,24.16l5.59,24c1.86,8,3.72,16,5.67,24.09s3.93,16.13,6,24.24c1.1,4,2.11,8.11,3.3,12.17s2.3,8.15,3.72,12.23a193.58,193.58,0,0,0,2.28-25.45l.06-3.28.06-3.07c0-2.12,0-4.24,0-6.36-.05-4.24-.29-8.47-.52-12.7-.56-8.45-1.5-16.88-2.74-25.26s-2.89-16.71-4.81-25-4.15-16.39-6.61-24.43-5.14-15.94-7.84-23.73l-4-11.66c-1.26-3.87-2.58-7.74-3.66-11.65s-2.14-7.87-3-11.91-1.46-8.16-2-12.43a63.33,63.33,0,0,0-3.26,12.54A88.7,88.7,0,0,0,1381.73,486.67Z" style="fill:#e4d9a8"/><path d="M1335.77,371.49c6.38,2.11,12,5.72,17.15,9.66a99,99,0,0,1,14,13.42l1.57,1.83.8.91.74,1,3,3.83c.51.61.93,1.32,1.4,2l1.39,2c.93,1.32,1.87,2.61,2.7,4,.42.66.83,1.33,1.24,2h0c17,19.23,43,62.65,58.55,156.64a432.74,432.74,0,0,0-9.76-71.61c-3.24-13.21-6.79-26.4-11.73-39.19-.3-.81-.58-1.61-.89-2.41l-1-2.38-2-4.75c-.67-1.58-1.27-3.18-2-4.73l-2.23-4.65-2.23-4.65q-1.2-2.28-2.46-4.55l-2.49-4.52c-.87-1.49-1.8-2.95-2.7-4.42s-1.81-2.94-2.74-4.39l-3-4.24-1.5-2.12-.75-1-.8-1c-1.06-1.36-2.16-2.71-3.24-4.06s-2.23-2.64-3.39-3.93-2.27-2.61-3.5-3.83l-3.71-3.64-.93-.91-1-.85-2-1.71a87.72,87.72,0,0,0-17.12-11.63l-2.31-1.15c-.76-.38-1.58-.69-2.36-1-1.57-.69-3.21-1.24-4.82-1.81s-3.28-1-5-1.31c-.83-.19-1.67-.3-2.51-.44S1336.61,371.51,1335.77,371.49Z" style="fill:#e4d9a8"/><path d="M1401.43,550.73c10.68,15,16.55,49.69,19.69,78.51l.06-3.07c0-2.12,0-4.24,0-6.36-.05-4.24-.29-8.47-.52-12.7-.56-8.45-1.5-16.88-2.74-25.26s-2.89-16.71-4.81-25-4.15-16.39-6.61-24.43-5.14-15.94-7.84-23.73l-4-11.66c-1.26-3.87-2.58-7.74-3.66-11.65s-2.14-7.87-3-11.91-1.46-8.16-2-12.43C1386,461.09,1381.6,522.9,1401.43,550.73Z" style="fill:#e4d9a8"/><path d="M1455.58,660.54a2.31,2.31,0,0,0,2.32-2.29c.92-124.81-34.58-264.29-34.93-265.68a2.3,2.3,0,0,0-4.46,1.14c.36,1.39,35.7,140.31,34.79,264.51A2.3,2.3,0,0,0,1455.58,660.54Z" style="fill:#e4d9a8"/><path d="M1406.32,344.63a2.27,2.27,0,0,0,.68-.09,2.31,2.31,0,0,0,1.55-2.86L1402,319.46a2.3,2.3,0,1,0-4.41,1.31l6.59,22.22A2.28,2.28,0,0,0,1406.32,344.63Z" style="fill:#e4d9a8"/><path d="M1393.64,344.22l18.66,62.94c1.84,6.21,7.73,10,13.09,8.4l4.88-1.45c5.36-1.59,8.25-8,6.41-14.17L1418,337c-1.84-6.21-7.74-10-13.1-8.39l-4.87,1.44C1394.68,331.63,1391.8,338,1393.64,344.22Z" style="fill:#e4d9a8"/><path d="M1393.64,344.22l18.66,62.94c1.84,6.21,7.73,10,13.09,8.4l1-.31-25.35-85.51-1,.3C1394.68,331.63,1391.8,338,1393.64,344.22Z" style="fill:#e4d9a8"/><path d="M879.93,552.2a31.26,31.26,0,0,0-13-6.36,30.72,30.72,0,0,0-13.4.09c-8.59,2-16,7.18-22,13.76a102.55,102.55,0,0,0-15.44,22.74c-2.15,4.17-4.13,8.47-6,12.86s-3.58,8.85-5.17,13.4-3.11,9.13-4.53,13.77L799.33,626l-1,3.51c-.71,2.33-1.3,4.71-2,7-2.56,9.45-4.88,19-7.14,28.68s-4.38,19.4-6.57,29.2l-.84,3.67c-.28,1.23-.52,2.47-.81,3.7l-1.69,7.38c-.55,2.47-1.17,4.94-1.75,7.41s-1.2,5-1.9,7.43c-.76-5.08-1.29-10.16-1.65-15.25,0-.52-.07-1.05-.11-1.57q-.45-6.85-.57-13.7a304,304,0,0,1,1.07-30.61c1.8-20.38,5.63-40.77,12.6-60.53.87-2.47,1.83-4.92,2.78-7.36s2-4.87,3.15-7.27a143.22,143.22,0,0,1,7.44-14.12c5.55-9.16,12.37-17.89,21.08-24.92a65.73,65.73,0,0,1,6.91-4.84,55.9,55.9,0,0,1,7.61-3.84,43.12,43.12,0,0,1,16.78-3.32c.89,0,1.79.06,2.68.14a33.29,33.29,0,0,1,13.49,4.15A27.54,27.54,0,0,1,879.93,552.2Z" style="fill:#e4d9a8"/><path d="M855.4,536.79c-16.41,3.42-42.46,17.74-62.68,70.46-13.43,35-18,70.51-18.85,99.91q-.45-6.85-.57-13.7a304,304,0,0,1,1.07-30.61c1.8-20.38,5.63-40.77,12.6-60.53.87-2.47,1.83-4.92,2.78-7.36s2-4.87,3.15-7.27a143.22,143.22,0,0,1,7.44-14.12c5.55-9.16,12.37-17.89,21.08-24.92a65.73,65.73,0,0,1,6.91-4.84,55.9,55.9,0,0,1,7.61-3.84,43.12,43.12,0,0,1,16.78-3.32C853.61,536.66,854.51,536.71,855.4,536.79Z" style="fill:#e4d9a8"/><path d="M937.84,648.2c-2.63-5.41-5.08-10.89-7.47-16.4-.7-1.6-1.39-3.22-2.08-4.83q-2.49-5.88-4.9-11.79c-2.15-5.6-4.15-11.25-6.16-16.91-1-2.82-2-5.67-3-8.5s-2-5.67-2.87-8.54l-2.58-8.63-2.5-8.65c-.83-2.89-1.67-5.78-2.46-8.68-.39-1.45-.83-2.89-1.17-4.35l-1.06-4.38c-1.41-5.85-2.73-11.72-4.1-17.58l-1-4.4c-.32-1.47-.57-2.95-.86-4.43l-1.63-8.89-1.59-8.89c-.25-1.49-.53-3-.75-4.45l-.61-4.49c-.78-6-1.61-12-2.32-17.94-.54-6-1.07-12-1.5-18-.27-3-.38-6-.48-9.05l-.27-9.06c0-1.51-.12-3-.1-4.53l.07-4.54c0-3,.08-6,.17-9.06,0-.76,0-1.51.07-2.27l.14-2.26.29-4.53.32-4.53.16-2.26c.07-.75.16-1.5.25-2.25.37-3,.7-6,1.08-9s1-6,1.49-8.95c.12-.74.27-1.49.44-2.22l.48-2.23c.34-1.47.65-2.95,1-4.41l1.21-4.38c.45-1.44.9-2.88,1.45-4.28-.07.75-.1,1.5-.12,2.25s-.09,1.49-.1,2.24l-.09,4.48c0,1.49,0,3,0,4.47s0,3,.05,4.45c.13,3,.15,5.94.29,8.89l.49,8.87.11,2.21.18,2.21.36,4.42.34,4.41.15,2.21c.07.74.16,1.47.24,2.21,0,.3.07.61.1.91.28,2.63.53,5.26.8,7.89l.42,4.4c.16,1.46.37,2.93.55,4.39l1.09,8.78c.19,1.46.33,2.92.5,4.38s.42,2.92.62,4.39c.9,5.82,1.66,11.66,2.5,17.49,1,5.82,1.92,11.64,2.88,17.46l.69,4.37c.24,1.45.54,2.9.81,4.35l1.61,8.7c2,11.64,4.43,23.2,6.65,34.82,1,5.83,2.45,11.57,3.61,17.38l1.82,8.7,1.74,8.73c1.28,5.8,2.6,11.59,3.82,17.41L929,604.2c.6,2.92,1.15,5.86,1.78,8.77,1.3,5.81,2.57,11.64,3.75,17.51S936.88,642.24,937.84,648.2Z" style="fill:#e4d9a8"/><path d="M944.5,437.56l-.15,13.27c-.05,4.43-.19,8.86-.29,13.28s-.27,8.86-.45,13.29-.32,8.85-.57,13.27c-.51,8.84-.94,17.69-1.69,26.52-.34,4.43-.65,8.84-1.07,13.26L939,543.68c-1.89,17.63-4.21,35.23-7.21,52.71-1.62,8.73-3.16,17.45-5.14,26.12-1.18,5.59-2.52,11.16-3.95,16.7-.78,3-1.6,6.09-2.44,9.12l2.21-52.91q.93-26.38,1.58-52.69l.26-13.16c.12-4.39.19-8.78.26-13.16l.41-26.32c.06-8.77.28-17.54.27-26.31l.2-26.32.18-52.68L925.7,332q.07-22.62.22-45.29l.06-7.54q.12-13.21.33-26.48c.13-8.83.31-17.67.6-26.54,1.82,8.69,3.29,17.43,4.66,26.18s2.58,17.52,3.71,26.3c2.2,17.56,3.94,35.17,5.34,52.81q1,13.23,1.79,26.48c.23,4.41.51,8.83.69,13.25l.55,13.26C944.26,402.15,944.58,419.86,944.5,437.56Z" style="fill:#e4d9a8"/><path d="M936.22,429.57c.33,44-9,157.93-13.52,209.64-.78,3-1.6,6.09-2.44,9.12l2.21-52.91q.93-26.38,1.58-52.69l.26-13.16c.12-4.39.19-8.78.26-13.16l.41-26.32c.06-8.77.28-17.54.27-26.31l.2-26.32.18-52.68L925.7,332q.07-22.62.22-45.29C930.2,329.57,936,393.46,936.22,429.57Z" style="fill:#e4d9a8"/><path d="M928.29,627q-2.49-5.88-4.9-11.79c-2.15-5.6-4.15-11.25-6.16-16.91-1-2.82-2-5.67-3-8.5s-2-5.67-2.87-8.54l-2.58-8.63-2.5-8.65c-.83-2.89-1.67-5.78-2.46-8.68-.39-1.45-.83-2.89-1.17-4.35l-1.06-4.38c-1.41-5.85-2.73-11.72-4.1-17.58l-1-4.4c-.32-1.47-.57-2.95-.86-4.43l-1.63-8.89-1.59-8.89c-.25-1.49-.53-3-.75-4.45l-.61-4.49c-.78-6-1.61-12-2.32-17.94-.54-6-1.07-12-1.5-18-.27-3-.38-6-.48-9.05l-.27-9.06c0-1.51-.12-3-.1-4.53l.07-4.54c0-3,.08-6,.17-9.06,0-.76,0-1.51.07-2.27l.14-2.26.29-4.53.32-4.53.16-2.26c.07-.75.16-1.5.25-2.25.37-3,.7-6,1.08-9s1-6,1.49-8.95c.12-.74.27-1.49.44-2.22l.48-2.23c.34-1.47.65-2.95,1-4.41l1.21-4.38c.45-1.44.9-2.88,1.45-4.28-.07.75-.1,1.5-.12,2.25s-.09,1.49-.1,2.24l-.09,4.48c0,1.49,0,3,0,4.47s0,3,.05,4.45c.13,3,.15,5.94.29,8.89l.49,8.87.11,2.21.18,2.21.36,4.42.34,4.41.15,2.21c.07.74.16,1.47.24,2.21,0,.3.07.61.1.91C893.86,460.83,895.05,533,928.29,627Z" style="fill:#e4d9a8"/><path d="M917.22,650.66a2.32,2.32,0,0,1-2.32-2.29C913,390.46,896.49,307.76,896.32,307a2.3,2.3,0,1,1,4.5-.94c.17.81,16.77,83.77,18.68,342.32A2.3,2.3,0,0,1,917.22,650.66Z" style="fill:#e4d9a8"/><path d="M884.6,251.46a2.3,2.3,0,0,1-2.26-1.8l-5-22.62a2.3,2.3,0,1,1,4.49-1l5,22.62a2.29,2.29,0,0,1-1.74,2.74A2.12,2.12,0,0,1,884.6,251.46Z" style="fill:#e4d9a8"/><path d="M896.6,244.63l14.27,64.09c1.41,6.32-1.9,12.48-7.37,13.7l-5,1.1c-5.46,1.22-11.08-2.95-12.49-9.27l-14.27-64.09c-1.4-6.32,1.91-12.48,7.37-13.7l5-1.1C889.58,234.14,895.2,238.31,896.6,244.63Z" style="fill:#e4d9a8"/><path d="M896.6,244.63l14.27,64.09c1.41,6.32-1.9,12.48-7.37,13.7l-1,.23-19.39-87.06,1-.23C889.58,234.14,895.2,238.31,896.6,244.63Z" style="fill:#e4d9a8"/><path d="M60.56,571.78c-.09,6.43-.14,12.86,0,19.3s.4,12.87.89,19.32c1.58-6.28,2.91-12.56,4.26-18.84l2-9.42,1.92-9.41,7.45-37.52c5-25,10.1-49.75,16.25-74.19,1.54-6.11,3.14-12.19,4.87-18.23.83-3,1.77-6,2.64-9s1.85-6,2.83-8.95c1.95-5.95,4-11.84,6.26-17.66l1.73-4.33,1.2-2.8c.2-.5.41-1,.62-1.49l1.88-4.25c.68-1.39,1.31-2.81,2-4.19a132.73,132.73,0,0,1,9.17-16,79.22,79.22,0,0,1,5.55-7.27,53.81,53.81,0,0,1,6.41-6.4c4.6-3.84,10-6.81,16.17-7.36a22.46,22.46,0,0,1,4.63.09,21.08,21.08,0,0,1,4.65,1.09,26.91,26.91,0,0,1,8.56,4.93,23.83,23.83,0,0,0-7.28-7.24,24.72,24.72,0,0,0-10.48-3.66,27,27,0,0,0-5.75-.06l-.72.06-.71.1-1.43.21-1.4.3-.7.15-.69.19a43.21,43.21,0,0,0-10.29,4.38,70.27,70.27,0,0,0-16.3,13.68c-.61.64-1.17,1.3-1.73,2s-1.13,1.3-1.66,2c-1.07,1.35-2.16,2.69-3.14,4.07l-1.52,2.07-1.45,2.1c-1,1.38-1.87,2.82-2.79,4.24s-1.75,2.88-2.62,4.32l-2.5,4.37c-.8,1.47-1.56,3-2.34,4.43l-2.21,4.47c-2.89,6-5.48,12.07-7.83,18.21s-4.49,12.34-6.41,18.57c-1,3.12-1.87,6.25-2.79,9.38-.44,1.57-.84,3.14-1.27,4.71s-.85,3.14-1.24,4.72Q71.43,472,68.7,487.4c-.45,2.49-.88,5-1.28,7.49-1,6.38-2,12.76-2.74,19.16-.37,3.19-.78,6.39-1.12,9.59l-.93,9.61C61.5,546.08,60.78,558.92,60.56,571.78Z" style="fill:#e4d9a8"/><path d="M80.32,611.93c2.9-4.71,5.64-9.49,8.33-14.31S94,588,96.54,583.09s4.78-9.88,7.1-14.86c1.18-2.49,2.3-5,3.44-7.49s2.31-5,3.36-7.51l3.08-7.63,3-7.65c1-2.56,2-5.11,3-7.68.47-1.29,1-2.55,1.42-3.85l1.33-3.89c1.75-5.19,3.43-10.4,5.15-15.61l1.25-3.91c.41-1.31.75-2.64,1.13-4l2.17-7.92,2.14-7.93c.34-1.33.71-2.65,1-4l.9-4c1.14-5.36,2.34-10.7,3.44-16.07.92-5.4,1.83-10.81,2.66-16.23.45-2.69.75-5.43,1.05-8.15l.87-8.18c.14-1.36.32-2.72.39-4.09l.24-4.12c.16-2.74.31-5.47.43-8.21,0-.69.07-1.37.09-2.06V406l0-4.12,0-4.12v-2.05c0-.69-.06-1.38-.09-2.06-.15-2.76-.28-5.5-.45-8.24s-.55-5.48-.86-8.21c-.07-.68-.16-1.37-.28-2.05l-.32-2c-.23-1.36-.43-2.72-.69-4.07L141.6,365c-.35-1.34-.68-2.67-1.13-4,0,.68,0,1.36,0,2.05s0,1.35-.06,2l-.21,4.06c-.09,1.35-.22,2.7-.32,4.05s-.16,2.67-.34,4c-.32,2.69-.54,5.36-.87,8l-1.07,8-.25,2-.33,2-.64,4-.61,4-.3,2c-.12.66-.25,1.32-.38,2-.51,2.63-1,5.27-1.45,7.9l-.71,3.95c-.25,1.31-.55,2.62-.81,3.94l-1.65,7.86c-.28,1.31-.52,2.63-.78,3.93s-.6,2.62-.89,3.93c-1.26,5.21-2.39,10.44-3.59,15.65-1.38,5.19-2.64,10.4-4,15.59l-1,3.91c-.33,1.29-.72,2.58-1.07,3.88l-2.14,7.76c-2.69,10.39-5.85,20.68-8.78,31-1.36,5.21-3.15,10.3-4.66,15.47l-2.35,7.75L99,549.49c-1.62,5.15-3.29,10.3-4.86,15.48l-2.36,7.77c-.77,2.6-1.5,5.22-2.31,7.81-1.65,5.16-3.27,10.35-4.81,15.58S81.63,606.6,80.32,611.93Z" style="fill:#e4d9a8"/><path d="M46.48,461.15q-2.08,37-1.37,74.16c0,3.1.16,6.19.26,9.29s.18,6.19.31,9.28c.26,6.18.67,12.37,1.06,18.56l.67,9.27q.41,4.65.9,9.28c.63,6.18,1.33,12.35,2.22,18.52q.73-5.94,1.36-11.86c2.24-20.69,3.7-41.31,5.29-61.94C59,511.15,60.45,486.6,61.81,462s2.42-49.15,3.2-73.78,1.27-49.31.66-74.15c-1.5,6-2.78,12.12-4,18.2-.61,3-1.17,6.08-1.74,9.13l-1.59,9.16c-1,6.1-2,12.21-2.87,18.34-.46,3.05-.86,6.12-1.28,9.18s-.84,6.13-1.21,9.19Q48.46,424.11,46.48,461.15Z" style="fill:#e4d9a8"/><path d="M-55.71,340.62a59.16,59.16,0,0,1,16,10,92.61,92.61,0,0,1,12.75,13.16l1.41,1.77.71.88.66.92,2.63,3.68c.46.59.82,1.26,1.24,1.88l1.22,1.9c.81,1.26,1.64,2.5,2.35,3.82.36.63.72,1.26,1.07,1.89h0c.37.67.75,1.34,1.14,2l.56,1,.51,1,1,2,2,4,1.84,4.08c.6,1.37,1.25,2.71,1.83,4.07l1.63,4.16,1.65,4.15L-2,411.14l1.46,4.21c.27.69.45,1.42.67,2.13l.66,2.13,1.3,4.27L2.77,426c.2.72.38,1.44.56,2.16.73,2.89,1.51,5.77,2.28,8.64s1.29,5.82,1.94,8.72c.31,1.46.7,2.89,1,4.36l.83,4.4c.53,2.94,1.14,5.85,1.62,8.8a699,699,0,0,1,7.66,71.48c.16,3,.39,6,.59,9s.23,6,.4,9l.46,9c.2,3,.21,6,.35,9.07l.38,9.08.23,4.55.14,4.55c.2,6.07.45,12.16.89,18.27,1.28-6,2.36-12,3.39-18,.25-1.5.52-3,.75-4.51l.61-4.54L28,571.08l.53-4.55c.18-1.51.37-3,.49-4.55l.72-9.13c.25-3,.45-6.1.66-9.14s.25-6.11.33-9.17q.12-4,.17-8A367.31,367.31,0,0,0,26.14,461c-2.28-12.2-4.86-24.39-8.81-36.33-.24-.75-.46-1.49-.7-2.24l-.8-2.23-1.6-4.44c-.55-1.47-1-3-1.65-4.42L10.71,407,8.85,402.6c-.67-1.44-1.37-2.87-2.08-4.3L4.65,394c-.75-1.41-1.56-2.8-2.33-4.19s-1.57-2.79-2.38-4.17l-2.61-4.06-1.32-2-.65-1-.71-1c-1-1.31-1.93-2.61-2.89-3.9s-2-2.56-3-3.81-2-2.52-3.15-3.72l-3.37-3.56-.84-.89-.89-.84-1.8-1.69a86.3,86.3,0,0,0-15.86-11.77l-2.17-1.2c-.72-.4-1.49-.74-2.23-1.1-1.47-.74-3-1.36-4.56-2s-3.12-1.11-4.72-1.54c-.79-.23-1.61-.4-2.41-.59S-54.9,340.69-55.71,340.62Z" style="fill:#e4d9a8"/><path d="M-18.67,448.18A111,111,0,0,0-18.88,460c.14,3.91.43,7.79.82,11.63.78,7.7,1.91,15.22,3.1,22.7s2.48,14.86,3.76,22.25l3.85,22.15q1.89,11.09,3.9,22.21c1.29,7.44,2.76,14.88,4.22,22.37.8,3.75,1.51,7.5,2.4,11.26S4.86,602.11,6,605.89A164.72,164.72,0,0,0,9.88,583l.28-3,.26-2.78q.21-2.87.37-5.75c.23-3.85.28-7.69.33-11.53,0-7.7-.33-15.39-1-23.07s-1.69-15.32-3-22.92-2.94-15.14-4.8-22.59-3.93-14.8-6-22.05l-3.1-10.83c-1-3.6-2-7.2-2.79-10.82s-1.55-7.27-2.11-11-.87-7.5-1.14-11.41a54.82,54.82,0,0,0-4,11.12A74.87,74.87,0,0,0-18.67,448.18Z" style="fill:#e4d9a8"/><path d="M116.4,584.67c-.11,1.43-.17,2.87-.23,4.3-.13,2.87-.17,5.74-.21,8.62s.13,5.76.31,8.65.43,5.78.87,8.68c2.52-5.37,4.37-10.79,6.28-16.18.94-2.7,1.87-5.39,2.71-8.09l2.56-8.09q1.25-4,2.37-8.09c.82-2.69,1.61-5.38,2.35-8.08.38-1.36.73-2.71,1.09-4l1.14-4.05,1.09-4c.35-1.35.68-2.71,1.05-4.06,2.86-10.81,5.58-21.63,8.07-32.58l1.83-8.24,1.74-8.31c.25-1.4.56-2.78.83-4.18l.79-4.21c.52-2.82,1-5.66,1.44-8.56h0a72.26,72.26,0,0,0-5.4,7.07c-1.68,2.43-3.24,4.92-4.72,7.44l-2.17,3.8c-.71,1.27-1.37,2.56-2,3.85s-1.32,2.59-2,3.89-1.23,2.62-1.82,3.94a209.5,209.5,0,0,0-11.49,32.52c-.73,2.77-1.37,5.56-2,8.35l-.92,4.2c-.26,1.4-.54,2.81-.78,4.22-.51,2.81-1,5.64-1.39,8.47s-.69,5.69-1,8.54Z" style="fill:#e4d9a8"/><path d="M-55.71,340.62a59.16,59.16,0,0,1,16,10,92.61,92.61,0,0,1,12.75,13.16l1.41,1.77.71.88.66.92,2.63,3.68c.46.59.82,1.26,1.24,1.88l1.22,1.9c.81,1.26,1.64,2.5,2.35,3.82.36.63.72,1.26,1.07,1.89h0c15.26,18.64,37.6,59.81,46.51,146A367.31,367.31,0,0,0,26.14,461c-2.28-12.2-4.86-24.39-8.81-36.33-.24-.75-.46-1.49-.7-2.24l-.8-2.23-1.6-4.44c-.55-1.47-1-3-1.65-4.42L10.71,407,8.85,402.6c-.67-1.44-1.37-2.87-2.08-4.3L4.65,394c-.75-1.41-1.56-2.8-2.33-4.19s-1.57-2.79-2.38-4.17l-2.61-4.06-1.32-2-.65-1-.71-1c-1-1.31-1.93-2.61-2.89-3.9s-2-2.56-3-3.81-2-2.52-3.15-3.72l-3.37-3.56-.84-.89-.89-.84-1.8-1.69a86.3,86.3,0,0,0-15.86-11.77l-2.17-1.2c-.72-.4-1.49-.74-2.23-1.1-1.47-.74-3-1.36-4.56-2s-3.12-1.11-4.72-1.54c-.79-.23-1.61-.4-2.41-.59S-54.9,340.69-55.71,340.62Z" style="fill:#e4d9a8"/><path d="M-3.78,507.59C5.61,521.93,9,553.75,10.16,580.06l.26-2.78q.21-2.87.37-5.75c.23-3.85.28-7.69.33-11.53,0-7.7-.33-15.39-1-23.07s-1.69-15.32-3-22.92-2.94-15.14-4.8-22.59-3.93-14.8-6-22.05l-3.1-10.83c-1-3.6-2-7.2-2.79-10.82s-1.55-7.27-2.11-11-.87-7.5-1.14-11.41C-12.87,425.33-21.21,481-3.78,507.59Z" style="fill:#e4d9a8"/><path d="M52.89,471.48c-1.2,20.29-1.15,86.23-1,126.17,2.24-20.69,3.7-41.31,5.29-61.94C59,511.15,60.45,486.6,61.81,462s2.42-49.15,3.2-73.78,1.27-49.31.66-74.15C65.67,314.1,54.65,441.73,52.89,471.48Z" style="fill:#e4d9a8"/><path d="M68.7,487.4c13.94-42.28,29.85-69.68,44.17-87.39.2-.5.41-1,.62-1.49l1.88-4.25c.68-1.39,1.31-2.81,2-4.19a132.73,132.73,0,0,1,9.17-16,79.22,79.22,0,0,1,5.55-7.27,53.81,53.81,0,0,1,6.41-6.4c4.6-3.84,10-6.81,16.17-7.36a22.46,22.46,0,0,1,4.63.09,21.08,21.08,0,0,1,4.65,1.09,26.91,26.91,0,0,1,8.56,4.93,23.83,23.83,0,0,0-7.28-7.24,24.72,24.72,0,0,0-10.48-3.66,27,27,0,0,0-5.75-.06l-.72.06-.71.1-1.43.21-1.4.3-.7.15-.69.19a43.21,43.21,0,0,0-10.29,4.38,70.27,70.27,0,0,0-16.3,13.68c-.61.64-1.17,1.3-1.73,2s-1.13,1.3-1.66,2c-1.07,1.35-2.16,2.69-3.14,4.07l-1.52,2.07-1.45,2.1c-1,1.38-1.87,2.82-2.79,4.24s-1.75,2.88-2.62,4.32l-2.5,4.37c-.8,1.47-1.56,3-2.34,4.43l-2.21,4.47c-2.89,6-5.48,12.07-7.83,18.21s-4.49,12.34-6.41,18.57c-1,3.12-1.87,6.25-2.79,9.38-.44,1.57-.84,3.14-1.27,4.71s-.85,3.14-1.24,4.72Q71.43,472,68.7,487.4Z" style="fill:#e4d9a8"/><path d="M110.44,553.23l3.08-7.63,3-7.65c1-2.56,2-5.11,3-7.68.47-1.29,1-2.55,1.42-3.85l1.33-3.89c1.75-5.19,3.43-10.4,5.15-15.61l1.25-3.91c.41-1.31.75-2.64,1.13-4l2.17-7.92,2.14-7.93c.34-1.33.71-2.65,1-4l.9-4c1.14-5.36,2.34-10.7,3.44-16.07.92-5.4,1.83-10.81,2.66-16.23.45-2.69.75-5.43,1.05-8.15l.87-8.18c.14-1.36.32-2.72.39-4.09l.24-4.12c.16-2.74.31-5.47.43-8.21,0-.69.07-1.37.09-2.06V406l0-4.12,0-4.12v-2.05c0-.69-.06-1.38-.09-2.06-.15-2.76-.28-5.5-.45-8.24s-.55-5.48-.86-8.21c-.07-.68-.16-1.37-.28-2.05l-.32-2c-.23-1.36-.43-2.72-.69-4.07L141.6,365c-.35-1.34-.68-2.67-1.13-4,0,.68,0,1.36,0,2.05s0,1.35-.06,2l-.21,4.06c-.09,1.35-.22,2.7-.32,4.05s-.16,2.67-.34,4c-.32,2.69-.54,5.36-.87,8l-1.07,8S136.56,484,110.44,553.23Z" style="fill:#e4d9a8"/><path d="M117.14,614.92c2.52-5.37,4.37-10.79,6.28-16.18.94-2.7,1.87-5.39,2.71-8.09l2.56-8.09q1.25-4,2.37-8.09c.82-2.69,1.61-5.38,2.35-8.08.38-1.36.73-2.71,1.09-4l1.14-4.05,1.09-4c.35-1.35.68-2.71,1.05-4.06,2.86-10.81,5.58-21.63,8.07-32.58l1.83-8.24,1.74-8.31c.25-1.4.56-2.78.83-4.18l.79-4.21c.52-2.82,1-5.66,1.44-8.56h0C152,485.33,116.35,569.49,117.14,614.92Z" style="fill:#e4d9a8"/><path d="M77.33,613.78a2.17,2.17,0,0,0,2.4-1.9c5.9-72.71,54.13-282.9,54.62-285a2.12,2.12,0,0,0-1.72-2.5A2.22,2.22,0,0,0,130,326c-.49,2.12-48.78,212.58-54.71,285.57A2.17,2.17,0,0,0,77.33,613.78Z" style="fill:#e4d9a8"/><path d="M138,314.47a2.19,2.19,0,0,0,2.34-1.57l5.26-20.41a2.11,2.11,0,0,0-1.66-2.53,2.22,2.22,0,0,0-2.7,1.51l-5.25,20.41a2.1,2.1,0,0,0,1.65,2.53Z" style="fill:#e4d9a8"/><path d="M126.48,308l-14.89,57.81c-1.47,5.71,1.67,11.38,7,12.62l4.82,1.13c5.3,1.24,10.83-2.41,12.3-8.11l14.89-57.81c1.47-5.71-1.67-11.38-7-12.62l-4.82-1.13C133.48,298.63,128,302.28,126.48,308Z" style="fill:#e4d9a8"/><path d="M126.48,308l-14.89,57.81c-1.47,5.71,1.67,11.38,7,12.62l1,.24,20.23-78.54-1-.24C133.48,298.63,128,302.28,126.48,308Z" style="fill:#e4d9a8"/><path d="M41.57,610.88A2.17,2.17,0,0,0,44,609c9.17-112.9-16.08-241.7-16.33-243a2.27,2.27,0,0,0-2.62-1.7,2.08,2.08,0,0,0-1.79,2.41c.26,1.29,25.4,129.57,16.27,241.92A2.17,2.17,0,0,0,41.57,610.88Z" style="fill:#e4d9a8"/><path d="M14.64,321.4a2.44,2.44,0,0,0,.66,0,2.07,2.07,0,0,0,1.7-2.48L12.07,298.3a2.29,2.29,0,0,0-2.68-1.61,2.07,2.07,0,0,0-1.69,2.48l4.92,20.59A2.21,2.21,0,0,0,14.64,321.4Z" style="fill:#e4d9a8"/><path d="M2.34,320.11l14,58.32c1.38,5.75,6.85,9.59,12.17,8.54l4.84-1c5.31-1,8.54-6.62,7.16-12.37l-14-58.32c-1.37-5.75-6.85-9.59-12.17-8.54l-4.83.95C4.19,308.79,1,314.36,2.34,320.11Z" style="fill:#e4d9a8"/><path d="M2.34,320.11l14,58.32c1.38,5.75,6.85,9.59,12.17,8.54l1-.2-19-79.23-1,.2C4.19,308.79,1,314.36,2.34,320.11Z" style="fill:#e4d9a8"/><path d="M54.24,611.91h.1a2.15,2.15,0,0,0,2.31-2c2.15-61.31,32.19-271.47,32.49-273.59A2.14,2.14,0,0,0,87.21,334a2.17,2.17,0,0,0-2.51,1.76c-.31,2.12-30.37,212.49-32.53,274A2.18,2.18,0,0,0,54.24,611.91Z" style="fill:#e4d9a8"/><path d="M96.71,281.22a2.18,2.18,0,0,0,2.39-1.77l3.12-20.8a2.14,2.14,0,0,0-1.91-2.38A2.19,2.19,0,0,0,97.78,258l-3.12,20.81a2.14,2.14,0,0,0,1.91,2.37Z" style="fill:#e4d9a8"/><path d="M84.86,275.79,76,334.73c-.87,5.82,2.83,11.19,8.23,11.95l4.91.69c5.39.76,10.52-3.37,11.39-9.18l8.85-58.94c.87-5.82-2.83-11.19-8.23-11.95l-4.91-.69C90.85,265.85,85.73,270,84.86,275.79Z" style="fill:#e4d9a8"/><path d="M84.86,275.79,76,334.73c-.87,5.82,2.83,11.19,8.23,11.95l1,.15,12-80.08-1-.14C90.85,265.85,85.73,270,84.86,275.79Z" style="fill:#e4d9a8"/><path d="M1030.38,575.15c-.06,4.2-.09,8.4,0,12.61s.26,8.41.58,12.62c1-4.1,1.9-8.21,2.79-12.31l1.29-6.15,1.25-6.15,4.87-24.52c3.24-16.29,6.6-32.5,10.62-48.47,1-4,2-8,3.18-11.91.54-2,1.15-3.93,1.72-5.9s1.21-3.91,1.85-5.86c1.28-3.88,2.62-7.73,4.09-11.53l1.13-2.83.79-1.83.4-1,1.23-2.78c.44-.91.86-1.84,1.31-2.74a86.93,86.93,0,0,1,6-10.46,50.83,50.83,0,0,1,3.62-4.75,35.19,35.19,0,0,1,4.19-4.18,19.41,19.41,0,0,1,10.56-4.81,15.38,15.38,0,0,1,3,.06,13.55,13.55,0,0,1,3,.71,17.77,17.77,0,0,1,5.59,3.22,15.65,15.65,0,0,0-4.76-4.72,16.08,16.08,0,0,0-6.84-2.4,17.51,17.51,0,0,0-3.76,0l-.47,0-.46.06-.94.14-.91.2-.46.1-.45.12a29,29,0,0,0-6.73,2.86,46.11,46.11,0,0,0-10.65,8.94c-.39.42-.76.85-1.12,1.28s-.75.85-1.09,1.3c-.69.88-1.41,1.75-2.05,2.66l-1,1.35-.95,1.37c-.66.9-1.22,1.84-1.82,2.77s-1.15,1.88-1.72,2.82l-1.63,2.86c-.52,1-1,1.93-1.53,2.89l-1.44,2.93c-1.89,3.9-3.58,7.88-5.11,11.89s-2.94,8.06-4.2,12.14c-.65,2-1.22,4.08-1.82,6.12-.29,1-.55,2.05-.83,3.08s-.55,2-.81,3.08q-2.51,9.93-4.29,20-.43,2.44-.84,4.89c-.67,4.17-1.28,8.34-1.79,12.52-.24,2.09-.51,4.18-.73,6.27l-.61,6.28Q1030.62,562.54,1030.38,575.15Z" style="fill:#e4d9a8"/><path d="M1043.29,601.38c1.9-3.08,3.69-6.2,5.44-9.35s3.47-6.31,5.16-9.49,3.12-6.46,4.64-9.71c.77-1.62,1.5-3.26,2.25-4.89s1.5-3.26,2.19-4.91l2-5,2-5c.65-1.67,1.3-3.33,1.93-5,.31-.84.65-1.67.93-2.52l.87-2.54c1.15-3.39,2.24-6.8,3.37-10.2l.81-2.56c.27-.85.49-1.72.74-2.58l1.42-5.17,1.39-5.19c.23-.87.47-1.73.67-2.6l.59-2.62c.74-3.5,1.53-7,2.24-10.5s1.2-7.06,1.74-10.6c.3-1.76.5-3.55.69-5.33l.57-5.34c.09-.89.21-1.78.26-2.67l.15-2.69c.1-1.79.21-3.58.29-5.37,0-.45,0-.89.05-1.34v-8.08c0-.44,0-.89-.05-1.34-.1-1.8-.19-3.59-.3-5.38s-.35-3.59-.56-5.37c0-.44-.1-.89-.18-1.33l-.21-1.34c-.15-.89-.28-1.78-.45-2.66l-.58-2.64c-.23-.88-.45-1.75-.74-2.61,0,.45,0,.89,0,1.34s0,.89,0,1.33l-.14,2.65c-.06.88-.14,1.76-.21,2.65s-.1,1.75-.22,2.62c-.21,1.76-.36,3.51-.57,5.25l-.69,5.22-.17,1.3-.21,1.3-.42,2.6-.4,2.59-.2,1.3c-.07.43-.16.86-.25,1.29q-.49,2.58-.94,5.17l-.47,2.58c-.16.86-.36,1.71-.53,2.57l-1.07,5.14c-.19.85-.35,1.71-.52,2.57s-.38,1.7-.58,2.56c-.82,3.4-1.56,6.82-2.35,10.23s-1.72,6.79-2.58,10.18l-.63,2.56c-.21.84-.47,1.69-.7,2.53l-1.4,5.07c-1.75,6.79-3.81,13.51-5.73,20.28-.89,3.4-2.06,6.73-3,10.11l-1.54,5.06-1.48,5.08c-1.06,3.36-2.15,6.72-3.18,10.11l-1.54,5.08c-.51,1.7-1,3.4-1.51,5.1-1.08,3.37-2.14,6.76-3.14,10.18S1044.15,597.9,1043.29,601.38Z" style="fill:#e4d9a8"/><path d="M1021.18,502.87q-1.36,24.18-.89,48.45c0,2,.1,4,.16,6.07s.12,4,.21,6.06c.16,4,.43,8.09.69,12.13l.44,6.06q.27,3,.58,6.06c.42,4,.88,8.07,1.45,12.1.32-2.58.62-5.17.9-7.75,1.46-13.51,2.41-27,3.45-40.47,1.18-16,2.14-32.08,3-48.14s1.58-32.11,2.09-48.21.83-32.21.43-48.44c-1,3.95-1.82,7.92-2.6,11.89-.4,2-.77,4-1.14,6l-1,6q-1,6-1.88,12c-.3,2-.56,4-.83,6s-.54,4-.79,6Q1022.47,478.67,1021.18,502.87Z" style="fill:#e4d9a8"/><path d="M954.41,424.11a38.8,38.8,0,0,1,10.47,6.52,62,62,0,0,1,8.33,8.6l.92,1.16.47.58.43.6,1.72,2.4c.29.39.53.83.8,1.23l.8,1.24c.53.82,1.07,1.63,1.54,2.5l.7,1.23h0l.75,1.31.36.63.34.65.66,1.31,1.32,2.6,1.21,2.67c.39.89.81,1.76,1.19,2.66l1.07,2.71,1.08,2.71.95,2.76,1,2.75c.17.46.29.93.44,1.39l.43,1.4.85,2.79.42,1.39c.13.46.25.94.37,1.41.48,1.89,1,3.77,1.48,5.64s.85,3.8,1.28,5.7c.19.95.45,1.89.63,2.85l.54,2.87c.35,1.92.75,3.83,1.06,5.75a456.08,456.08,0,0,1,5,46.71c.11,2,.26,3.92.39,5.89s.15,3.93.26,5.91l.3,5.91c.13,2,.14,4,.23,5.92l.25,5.94.15,3,.09,3c.13,4,.3,7.95.58,11.94.84-3.9,1.55-7.83,2.21-11.76.17-1,.34-2,.5-2.95l.4-3,.75-5.93.35-3c.11-1,.24-2,.31-3l.47-6c.17-2,.29-4,.44-6s.16-4,.21-6c0-1.75.09-3.5.11-5.25a239.73,239.73,0,0,0-3.09-42.8,181.11,181.11,0,0,0-5.75-23.74c-.16-.49-.3-1-.46-1.46l-.53-1.46-1-2.9c-.36-1-.68-1.94-1.08-2.89l-1.22-2.86-1.21-2.85c-.44-.94-.9-1.87-1.37-2.8L993.85,459c-.49-.93-1-1.83-1.52-2.75s-1-1.82-1.55-2.72l-1.72-2.65-.85-1.32-.43-.66-.47-.65-1.88-2.55c-.61-.86-1.3-1.67-2-2.49s-1.33-1.64-2.06-2.43l-2.2-2.32-.55-.58-.58-.56-1.18-1.1a56,56,0,0,0-10.36-7.68l-1.42-.79c-.47-.26-1-.48-1.45-.72-1-.49-2-.89-3-1.3s-2-.73-3.09-1c-.52-.15-1.05-.26-1.57-.38S955,424.16,954.41,424.11Z" style="fill:#e4d9a8"/><path d="M978.61,494.39a73.75,73.75,0,0,0-.13,7.72c.09,2.55.27,5.09.53,7.6.51,5,1.25,9.94,2,14.83s1.62,9.71,2.45,14.54L986,553.55c.83,4.83,1.66,9.67,2.55,14.51s1.8,9.72,2.75,14.62c.53,2.44,1,4.9,1.57,7.35s1.11,4.93,1.84,7.41a108.23,108.23,0,0,0,2.55-14.94l.18-1.94.17-1.81c.09-1.26.17-2.51.24-3.76.15-2.52.19-5,.22-7.54,0-5-.22-10.05-.65-15.07s-1.11-10-2-15-1.92-9.89-3.14-14.75-2.57-9.67-4-14.41l-2-7.08c-.64-2.35-1.3-4.7-1.82-7.07s-1-4.75-1.38-7.17-.57-4.9-.75-7.46a36.42,36.42,0,0,0-2.61,7.27A49.39,49.39,0,0,0,978.61,494.39Z" style="fill:#e4d9a8"/><path d="M1066.86,583.57c-.07.93-.11,1.87-.15,2.81-.08,1.87-.11,3.75-.13,5.63s.08,3.77.2,5.65.28,3.78.57,5.68c1.64-3.51,2.85-7.06,4.1-10.58.61-1.76,1.22-3.52,1.77-5.28l1.67-5.28c.55-1.77,1.06-3.53,1.56-5.3s1-3.51,1.53-5.28c.25-.88.47-1.76.71-2.64l.75-2.64.71-2.65c.23-.88.44-1.77.69-2.65,1.86-7.06,3.64-14.14,5.27-21.29l1.19-5.39,1.14-5.42c.16-.92.37-1.82.54-2.73l.52-2.76c.33-1.84.66-3.69.94-5.59h0a48.27,48.27,0,0,0-3.53,4.62c-1.09,1.59-2.11,3.21-3.08,4.86l-1.42,2.48c-.47.83-.89,1.67-1.33,2.52s-.87,1.69-1.28,2.54-.81,1.71-1.19,2.57a136.93,136.93,0,0,0-7.51,21.25c-.47,1.81-.89,3.63-1.32,5.46l-.6,2.74c-.17.92-.35,1.83-.51,2.76q-.5,2.76-.91,5.53c-.23,1.85-.45,3.72-.63,5.58Z" style="fill:#e4d9a8"/><path d="M954.41,424.11a38.8,38.8,0,0,1,10.47,6.52,62,62,0,0,1,8.33,8.6l.92,1.16.47.58.43.6,1.72,2.4c.29.39.53.83.8,1.23l.8,1.24c.53.82,1.07,1.63,1.54,2.5l.7,1.23h0c10,12.18,24.57,39.08,30.39,95.39a239.73,239.73,0,0,0-3.09-42.8,181.11,181.11,0,0,0-5.75-23.74c-.16-.49-.3-1-.46-1.46l-.53-1.46-1-2.9c-.36-1-.68-1.94-1.08-2.89l-1.22-2.86-1.21-2.85c-.44-.94-.9-1.87-1.37-2.8L993.85,459c-.49-.93-1-1.83-1.52-2.75s-1-1.82-1.55-2.72l-1.72-2.65-.85-1.32-.43-.66-.47-.65-1.88-2.55c-.61-.86-1.3-1.67-2-2.49s-1.33-1.64-2.06-2.43l-2.2-2.32-.55-.58-.58-.56-1.18-1.1a56,56,0,0,0-10.36-7.68l-1.42-.79c-.47-.26-1-.48-1.45-.72-1-.49-2-.89-3-1.3s-2-.73-3.09-1c-.52-.15-1.05-.26-1.57-.38S955,424.16,954.41,424.11Z" style="fill:#e4d9a8"/><path d="M988.34,533.21c6.14,9.37,8.36,30.16,9.11,47.35l.17-1.81c.09-1.26.17-2.51.24-3.76.15-2.52.19-5,.22-7.54,0-5-.22-10.05-.65-15.07s-1.11-10-2-15-1.92-9.89-3.14-14.75-2.57-9.67-4-14.41l-2-7.08c-.64-2.35-1.3-4.7-1.82-7.07s-1-4.75-1.38-7.17-.57-4.9-.75-7.46C982.4,479.46,977,515.81,988.34,533.21Z" style="fill:#e4d9a8"/><path d="M1025.37,509.62c-.79,13.25-.75,56.34-.65,82.43,1.46-13.51,2.41-27,3.45-40.47,1.18-16,2.14-32.08,3-48.14s1.58-32.11,2.09-48.21.83-32.21.43-48.44C1033.72,406.79,1026.52,490.18,1025.37,509.62Z" style="fill:#e4d9a8"/><path d="M1035.7,520c9.11-27.62,19.5-45.53,28.86-57.1l.4-1,1.23-2.78c.44-.91.86-1.84,1.31-2.74a86.93,86.93,0,0,1,6-10.46,50.83,50.83,0,0,1,3.62-4.75,35.19,35.19,0,0,1,4.19-4.18,19.41,19.41,0,0,1,10.56-4.81,15.38,15.38,0,0,1,3,.06,13.55,13.55,0,0,1,3,.71,17.77,17.77,0,0,1,5.59,3.22,15.65,15.65,0,0,0-4.76-4.72,16.08,16.08,0,0,0-6.84-2.4,17.51,17.51,0,0,0-3.76,0l-.47,0-.46.06-.94.14-.91.2-.46.1-.45.12a29,29,0,0,0-6.73,2.86,46.11,46.11,0,0,0-10.65,8.94c-.39.42-.76.85-1.12,1.28s-.75.85-1.09,1.3c-.69.88-1.41,1.75-2.05,2.66l-1,1.35-.95,1.37c-.66.9-1.22,1.84-1.82,2.77s-1.15,1.88-1.72,2.82l-1.63,2.86c-.52,1-1,1.93-1.53,2.89l-1.44,2.93c-1.89,3.9-3.58,7.88-5.11,11.89s-2.94,8.06-4.2,12.14c-.65,2-1.22,4.08-1.82,6.12-.29,1-.55,2.05-.83,3.08s-.55,2-.81,3.08Q1037.48,510,1035.7,520Z" style="fill:#e4d9a8"/><path d="M1063,563l2-5,2-5c.65-1.67,1.3-3.33,1.93-5,.31-.84.65-1.67.93-2.52l.87-2.54c1.15-3.39,2.24-6.8,3.37-10.2l.81-2.56c.27-.85.49-1.72.74-2.58l1.42-5.17,1.39-5.19c.23-.87.47-1.73.67-2.6l.59-2.62c.74-3.5,1.53-7,2.24-10.5s1.2-7.06,1.74-10.6c.3-1.76.5-3.55.69-5.33l.57-5.34c.09-.89.21-1.78.26-2.67l.15-2.69c.1-1.79.21-3.58.29-5.37,0-.45,0-.89.05-1.34v-8.08c0-.44,0-.89-.05-1.34-.1-1.8-.19-3.59-.3-5.38s-.35-3.59-.56-5.37c0-.44-.1-.89-.18-1.33l-.21-1.34c-.15-.89-.28-1.78-.45-2.66l-.58-2.64c-.23-.88-.45-1.75-.74-2.61,0,.45,0,.89,0,1.34s0,.89,0,1.33l-.14,2.65c-.06.88-.14,1.76-.21,2.65s-.1,1.75-.22,2.62c-.21,1.76-.36,3.51-.57,5.25l-.69,5.22S1080,517.82,1063,563Z" style="fill:#e4d9a8"/><path d="M1067.35,603.34c1.64-3.51,2.85-7.06,4.1-10.58.61-1.76,1.22-3.52,1.77-5.28l1.67-5.28c.55-1.77,1.06-3.53,1.56-5.3s1-3.51,1.53-5.28c.25-.88.47-1.76.71-2.64l.75-2.64.71-2.65c.23-.88.44-1.77.69-2.65,1.86-7.06,3.64-14.14,5.27-21.29l1.19-5.39,1.14-5.42c.16-.92.37-1.82.54-2.73l.52-2.76c.33-1.84.66-3.69.94-5.59h0C1090.09,518.67,1066.83,573.65,1067.35,603.34Z" style="fill:#e4d9a8"/><path d="M1041.33,602.59a1.41,1.41,0,0,0,1.57-1.24c3.86-47.51,35.37-184.84,35.69-186.22a1.38,1.38,0,0,0-1.12-1.63,1.46,1.46,0,0,0-1.74,1c-.32,1.38-31.87,138.89-35.74,186.58A1.41,1.41,0,0,0,1041.33,602.59Z" style="fill:#e4d9a8"/><path d="M1080.94,407a1.42,1.42,0,0,0,1.53-1l3.44-13.33a1.39,1.39,0,0,0-1.08-1.66,1.46,1.46,0,0,0-1.77,1l-3.43,13.34a1.37,1.37,0,0,0,1.08,1.65Z" style="fill:#e4d9a8"/><path d="M1073.45,402.79l-9.73,37.77a6.59,6.59,0,0,0,4.55,8.25l3.15.73a7,7,0,0,0,8-5.3l9.73-37.77a6.58,6.58,0,0,0-4.55-8.24l-3.15-.74A7,7,0,0,0,1073.45,402.79Z" style="fill:#e4d9a8"/><path d="M1073.45,402.79l-9.73,37.77a6.59,6.59,0,0,0,4.55,8.25l.67.15,13.21-51.31-.66-.16A7,7,0,0,0,1073.45,402.79Z" style="fill:#e4d9a8"/><path d="M1018,600.69a1.41,1.41,0,0,0,1.57-1.24c6-73.76-10.5-157.92-10.67-158.76a1.48,1.48,0,0,0-1.71-1.11,1.36,1.36,0,0,0-1.17,1.58c.17.84,16.59,84.65,10.63,158.06A1.41,1.41,0,0,0,1018,600.69Z" style="fill:#e4d9a8"/><path d="M1000.38,411.56a2.1,2.1,0,0,0,.43,0,1.36,1.36,0,0,0,1.11-1.62l-3.22-13.45a1.48,1.48,0,0,0-1.75-1.05,1.34,1.34,0,0,0-1.11,1.61l3.22,13.45A1.44,1.44,0,0,0,1000.38,411.56Z" style="fill:#e4d9a8"/><path d="M992.34,410.72l9.12,38.1c.9,3.76,4.48,6.27,7.95,5.58l3.16-.62c3.48-.69,5.59-4.32,4.69-8.08l-9.13-38.11c-.9-3.76-4.47-6.27-8-5.58l-3.16.63C993.55,403.32,991.44,407,992.34,410.72Z" style="fill:#e4d9a8"/><path d="M992.34,410.72l9.12,38.1c.9,3.76,4.48,6.27,7.95,5.58l.67-.13L997.69,402.5l-.67.14C993.55,403.32,991.44,407,992.34,410.72Z" style="fill:#e4d9a8"/><path d="M1026.25,601.37h.06a1.4,1.4,0,0,0,1.51-1.3c1.41-40.06,21-177.37,21.23-178.75a1.4,1.4,0,0,0-1.25-1.55,1.43,1.43,0,0,0-1.65,1.15c-.2,1.39-19.84,138.84-21.25,179A1.42,1.42,0,0,0,1026.25,601.37Z" style="fill:#e4d9a8"/><path d="M1054,385.31a1.43,1.43,0,0,0,1.56-1.16l2-13.59a1.4,1.4,0,0,0-1.25-1.55,1.42,1.42,0,0,0-1.65,1.14l-2,13.59a1.41,1.41,0,0,0,1.25,1.56Z" style="fill:#e4d9a8"/><path d="M1046.25,381.76l-5.78,38.51a6.69,6.69,0,0,0,5.38,7.81l3.21.45a6.84,6.84,0,0,0,7.44-6l5.78-38.51a6.69,6.69,0,0,0-5.37-7.81l-3.21-.45A6.83,6.83,0,0,0,1046.25,381.76Z" style="fill:#e4d9a8"/><path d="M1046.25,381.76l-5.78,38.51a6.69,6.69,0,0,0,5.38,7.81l.67.09,7.86-52.32-.68-.09A6.83,6.83,0,0,0,1046.25,381.76Z" style="fill:#e4d9a8"/><path d="M301.3,549.3c1.72,6.19,3.48,12.38,5.45,18.51s4,12.25,6.28,18.3c-.25-6.47-.74-12.88-1.2-19.29l-.75-9.59-.8-9.57-3.38-38.11c-2.24-25.33-4.28-50.58-5.24-75.76-.23-6.3-.4-12.59-.43-18.86-.06-3.14,0-6.28,0-9.42s.09-6.26.2-9.39c.21-6.25.53-12.49,1.05-18.7l.45-4.65c.11-1,.24-2,.36-3l.18-1.6.62-4.61c.25-1.53.46-3.07.74-4.59A132,132,0,0,1,309.13,341a81.35,81.35,0,0,1,3.28-8.54,54,54,0,0,1,4.37-7.93c3.33-5,7.71-9.36,13.44-11.61a22.25,22.25,0,0,1,4.48-1.21,21,21,0,0,1,4.77-.27,27.2,27.2,0,0,1,9.6,2.34,23.73,23.73,0,0,0-9-4.9,24.67,24.67,0,0,0-11.08-.58,27.3,27.3,0,0,0-5.54,1.55l-.67.26-.66.3-1.31.6-1.26.68-.63.35-.61.37a43.87,43.87,0,0,0-8.65,7.09,70.4,70.4,0,0,0-11.8,17.72c-.4.78-.76,1.56-1.11,2.35s-.72,1.58-1,2.37c-.64,1.6-1.31,3.19-1.87,4.8l-.87,2.41-.81,2.42c-.57,1.6-1,3.23-1.48,4.85s-.87,3.26-1.31,4.88l-1.17,4.9c-.35,1.63-.66,3.27-1,4.91L286.3,376c-1.09,6.55-1.87,13.12-2.39,19.67s-.85,13.11-1,19.63c-.08,3.27,0,6.52,0,9.79,0,1.62.07,3.24.1,4.88s.07,3.24.14,4.87c.38,10.43,1.16,20.83,2.26,31.16.27,2.51.56,5,.87,7.55.81,6.41,1.71,12.79,2.76,19.15.54,3.17,1,6.36,1.61,9.53l1.81,9.48Q296.24,530.67,301.3,549.3Z" style="fill:#e4d9a8"/><path d="M331.53,582.29c1.47-5.34,2.76-10.7,4-16.08s2.37-10.76,3.49-16.16,1.81-10.83,2.64-16.26c.44-2.71.81-5.43,1.2-8.15s.82-5.43,1.12-8.15l.81-8.19.74-8.19c.24-2.73.48-5.46.69-8.19.09-1.37.24-2.74.28-4.1l.18-4.11c.23-5.48.37-10.95.56-16.43l.1-4.1c0-1.37,0-2.74,0-4.11l-.14-8.22-.18-8.21c-.05-1.37-.06-2.74-.13-4.11l-.27-4.1c-.41-5.46-.75-10.93-1.21-16.39-.63-5.44-1.27-10.89-2-16.32-.32-2.72-.8-5.42-1.28-8.12l-1.46-8.1c-.25-1.34-.46-2.69-.77-4l-.93-4c-.62-2.67-1.24-5.34-1.89-8-.17-.67-.32-1.34-.5-2l-.56-2-1.14-4-1.17-3.95-.59-2c-.2-.65-.44-1.31-.66-1.95-.92-2.6-1.81-5.2-2.74-7.78s-2.07-5.11-3.13-7.64q-.39-1-.84-1.89l-.88-1.87c-.61-1.24-1.18-2.49-1.82-3.71l-2-3.64c-.71-1.18-1.41-2.37-2.2-3.51.2.66.38,1.31.55,2s.36,1.31.52,2l.93,3.95c.3,1.32.55,2.65.83,4s.6,2.62.81,4c.44,2.67,1,5.3,1.41,7.95l1.22,8,.32,2,.24,2,.5,4,.53,4,.27,2c.08.67.13,1.34.19,2,.25,2.67.54,5.33.83,8l.43,4c.13,1.33.2,2.67.32,4l.63,8c.1,1.34.23,2.67.35,4s.17,2.67.25,4c.25,5.36.63,10.7.94,16,.14,5.36.39,10.72.58,16.07l.18,4c.05,1.34,0,2.68.06,4l.12,8.06c.35,10.72.2,21.48.29,32.24.16,5.38-.13,10.77-.12,16.16l-.08,8.09v8.1c-.11,5.4-.27,10.81-.33,16.22l-.07,8.13c0,2.71,0,5.42,0,8.14-.13,5.42-.23,10.85-.23,16.3S331.3,576.8,331.53,582.29Z" style="fill:#e4d9a8"/><path d="M256.73,447.07q8.38,36.1,19.51,71.56c.91,3,1.89,5.9,2.85,8.84s1.9,5.89,2.9,8.82c2,5.87,4.11,11.69,6.23,17.52l3.25,8.71q1.69,4.35,3.46,8.66c2.34,5.75,4.75,11.48,7.33,17.15q-1-5.91-2-11.77c-3.66-20.48-8.06-40.69-12.32-60.93-5.16-24.08-10.65-48.05-16.24-72s-11.48-47.86-17.64-71.71-12.62-47.68-20.19-71.36c.26,6.23.73,12.42,1.29,18.59.27,3.09.58,6.17.9,9.25l1,9.24c.72,6.14,1.54,12.27,2.39,18.4.42,3.07.9,6.12,1.36,9.18s.91,6.12,1.42,9.16Q248.23,411,256.73,447.07Z" style="fill:#e4d9a8"/><path d="M124.81,360.07A59.28,59.28,0,0,1,143,365.15a93.25,93.25,0,0,1,15.93,9.05l1.85,1.31.93.64.89.7,3.56,2.79c.6.45,1.14,1,1.71,1.47l1.71,1.47c1.13,1,2.27,1.94,3.33,3l1.55,1.51h0c.55.54,1.11,1.07,1.67,1.6l.8.77.77.82,1.54,1.63,3.06,3.26,2.91,3.4c1,1.14,2,2.24,2.9,3.39l2.74,3.54,2.74,3.51,2.6,3.64,2.58,3.63c.45.59.83,1.24,1.24,1.86l1.23,1.86,2.45,3.73,1.22,1.86c.39.63.77,1.28,1.15,1.92,1.51,2.57,3.06,5.11,4.6,7.65s2.88,5.22,4.32,7.82c.7,1.32,1.48,2.59,2.15,3.92l2,4c1.34,2.68,2.74,5.3,4,8a698.61,698.61,0,0,1,27.42,66.47c1,2.84,2.06,5.65,3.1,8.49s1.91,5.71,2.92,8.56l3,8.56c1,2.84,1.89,5.73,2.87,8.6l2.92,8.61,1.5,4.3,1.41,4.33c1.89,5.77,3.84,11.54,6,17.29-.45-6.09-1.09-12.16-1.8-18.23-.18-1.51-.35-3-.55-4.54l-.68-4.52-1.44-9-.77-4.52c-.26-1.5-.5-3-.81-4.5l-1.87-9c-.61-3-1.29-6-1.94-9s-1.47-5.94-2.26-8.89q-1-3.88-2.08-7.76a367.82,367.82,0,0,0-22.94-61.55c-5.61-11.06-11.51-22-18.65-32.39-.44-.65-.86-1.31-1.31-2l-1.39-1.91L213,412.56c-.94-1.26-1.82-2.56-2.83-3.78l-3-3.68-3-3.66c-1.05-1.19-2.13-2.37-3.21-3.54l-3.23-3.5c-1.12-1.15-2.29-2.25-3.42-3.38s-2.29-2.23-3.45-3.33l-3.65-3.16L185.39,383l-.91-.78-1-.75c-1.28-1-2.58-2-3.86-2.94s-2.63-1.89-4-2.8-2.66-1.85-4.07-2.68l-4.23-2.48-1.06-.61-1.09-.56-2.2-1.12a86.5,86.5,0,0,0-18.53-6.84l-2.42-.54c-.8-.19-1.63-.29-2.45-.44-1.62-.29-3.29-.44-4.93-.62s-3.31-.2-5-.16c-.82,0-1.65.08-2.47.12S125.61,359.92,124.81,360.07Z" style="fill:#e4d9a8"/><path d="M190.55,452.91a111.18,111.18,0,0,0,3.12,11.39c1.23,3.72,2.6,7.37,4.05,10.94,2.91,7.17,6.11,14.07,9.35,20.91s6.56,13.57,9.85,20.31l9.92,20.18q4.93,10.1,10,20.22c3.32,6.77,6.82,13.5,10.33,20.28,1.81,3.37,3.55,6.77,5.46,10.14s3.74,6.76,5.88,10.08a163.51,163.51,0,0,0-2.68-23l-.56-2.92-.53-2.74q-.6-2.82-1.26-5.63c-.86-3.76-1.89-7.46-2.92-11.16-2.14-7.39-4.64-14.68-7.42-21.86s-5.93-14.23-9.34-21.15-7.07-13.71-10.94-20.34-7.94-13.1-12-19.46l-6-9.53c-1.93-3.18-3.92-6.35-5.7-9.6s-3.54-6.54-5.11-9.95-2.95-7-4.31-10.63a54.75,54.75,0,0,0-.71,11.8A75.16,75.16,0,0,0,190.55,452.91Z" style="fill:#e4d9a8"/><path d="M358.51,546c.3,1.4.64,2.8,1,4.2.68,2.78,1.44,5.55,2.22,8.32s1.74,5.5,2.72,8.22,2,5.43,3.28,8.09a171.82,171.82,0,0,0,1.47-17.3c.15-2.85.29-5.69.34-8.52l.18-8.48q.07-4.23,0-8.44t0-8.41c0-1.41-.07-2.8-.09-4.2l0-4.19-.1-4.2c0-1.4-.11-2.79-.13-4.19-.29-11.18-.72-22.33-1.4-33.54l-.56-8.43-.66-8.45c-.16-1.42-.24-2.83-.38-4.25l-.42-4.26c-.3-2.85-.62-5.71-1-8.62a0,0,0,0,1,0,0,73.11,73.11,0,0,0-3.2,8.3c-.93,2.81-1.72,5.63-2.44,8.46l-1,4.26c-.32,1.42-.59,2.85-.87,4.27s-.55,2.85-.79,4.29-.45,2.85-.64,4.29a209.21,209.21,0,0,0-1.9,34.43c.08,2.86.25,5.73.41,8.59l.29,4.28c.14,1.43.27,2.85.44,4.28q.45,4.26,1,8.52c.45,2.82.93,5.65,1.47,8.46Z" style="fill:#e4d9a8"/><path d="M124.81,360.07A59.28,59.28,0,0,1,143,365.15a93.25,93.25,0,0,1,15.93,9.05l1.85,1.31.93.64.89.7,3.56,2.79c.6.45,1.14,1,1.71,1.47l1.71,1.47c1.13,1,2.27,1.94,3.33,3l1.55,1.51h0c19.89,13.6,52.88,46.85,85.64,127.07a367.82,367.82,0,0,0-22.94-61.55c-5.61-11.06-11.51-22-18.65-32.39-.44-.65-.86-1.31-1.31-2l-1.39-1.91L213,412.56c-.94-1.26-1.82-2.56-2.83-3.78l-3-3.68-3-3.66c-1.05-1.19-2.13-2.37-3.21-3.54l-3.23-3.5c-1.12-1.15-2.29-2.25-3.42-3.38s-2.29-2.23-3.45-3.33l-3.65-3.16L185.39,383l-.91-.78-1-.75c-1.28-1-2.58-2-3.86-2.94s-2.63-1.89-4-2.8-2.66-1.85-4.07-2.68l-4.23-2.48-1.06-.61-1.09-.56-2.2-1.12a86.5,86.5,0,0,0-18.53-6.84l-2.42-.54c-.8-.19-1.63-.29-2.45-.44-1.62-.29-3.29-.44-4.93-.62s-3.31-.2-5-.16c-.82,0-1.65.08-2.47.12S125.61,359.92,124.81,360.07Z" style="fill:#e4d9a8"/><path d="M221.53,505.75c13,11.13,25.23,40.72,33.72,65.65l-.53-2.74q-.6-2.82-1.26-5.63c-.86-3.76-1.89-7.46-2.92-11.16-2.14-7.39-4.64-14.68-7.42-21.86s-5.93-14.23-9.34-21.15-7.07-13.71-10.94-20.34-7.94-13.1-12-19.46l-6-9.53c-1.93-3.18-3.92-6.35-5.7-9.6s-3.54-6.54-5.11-9.95-2.95-7-4.31-10.63C189.7,429.35,197.32,485.08,221.53,505.75Z" style="fill:#e4d9a8"/><path d="M265.78,455.19c4.54,19.8,23.11,83.08,34.47,121.37-3.66-20.48-8.06-40.69-12.32-60.93-5.16-24.08-10.65-48.05-16.24-72s-11.48-47.86-17.64-71.71-12.62-47.68-20.19-71.36C233.86,300.54,259.11,426.14,265.78,455.19Z" style="fill:#e4d9a8"/><path d="M285.42,466c1.52-44.49,9.09-75.26,17.86-96.28l.18-1.6.62-4.61c.25-1.53.46-3.07.74-4.59A132,132,0,0,1,309.13,341a81.35,81.35,0,0,1,3.28-8.54,54,54,0,0,1,4.37-7.93c3.33-5,7.71-9.36,13.44-11.61a22.25,22.25,0,0,1,4.48-1.21,21,21,0,0,1,4.77-.27,27.2,27.2,0,0,1,9.6,2.34,23.73,23.73,0,0,0-9-4.9,24.67,24.67,0,0,0-11.08-.58,27.3,27.3,0,0,0-5.54,1.55l-.67.26-.66.3-1.31.6-1.26.68-.63.35-.61.37a43.87,43.87,0,0,0-8.65,7.09,70.4,70.4,0,0,0-11.8,17.72c-.4.78-.76,1.56-1.11,2.35s-.72,1.58-1,2.37c-.64,1.6-1.31,3.19-1.87,4.8l-.87,2.41-.81,2.42c-.57,1.6-1,3.23-1.48,4.85s-.87,3.26-1.31,4.88l-1.17,4.9c-.35,1.63-.66,3.27-1,4.91L286.3,376c-1.09,6.55-1.87,13.12-2.39,19.67s-.85,13.11-1,19.63c-.08,3.27,0,6.52,0,9.79,0,1.62.07,3.24.1,4.88s.07,3.24.14,4.87C283.54,445.3,284.32,455.7,285.42,466Z" style="fill:#e4d9a8"/><path d="M344,517.49l.81-8.19.74-8.19c.24-2.73.48-5.46.69-8.19.09-1.37.24-2.74.28-4.1l.18-4.11c.23-5.48.37-10.95.56-16.43l.1-4.1c0-1.37,0-2.74,0-4.11l-.14-8.22-.18-8.21c-.05-1.37-.06-2.74-.13-4.11l-.27-4.1c-.41-5.46-.75-10.93-1.21-16.39-.63-5.44-1.27-10.89-2-16.32-.32-2.72-.8-5.42-1.28-8.12l-1.46-8.1c-.25-1.34-.46-2.69-.77-4l-.93-4c-.62-2.67-1.24-5.34-1.89-8-.17-.67-.32-1.34-.5-2l-.56-2-1.14-4-1.17-3.95-.59-2c-.2-.65-.44-1.31-.66-1.95-.92-2.6-1.81-5.2-2.74-7.78s-2.07-5.11-3.13-7.64q-.39-1-.84-1.89l-.88-1.87c-.61-1.24-1.18-2.49-1.82-3.71l-2-3.64c-.71-1.18-1.41-2.37-2.2-3.51.2.66.38,1.31.55,2s.36,1.31.52,2l.93,3.95c.3,1.32.55,2.65.83,4s.6,2.62.81,4c.44,2.67,1,5.3,1.41,7.95l1.22,8S349.61,443.75,344,517.49Z" style="fill:#e4d9a8"/><path d="M367.72,574.82a171.82,171.82,0,0,0,1.47-17.3c.15-2.85.29-5.69.34-8.52l.18-8.48q.07-4.23,0-8.44t0-8.41c0-1.41-.07-2.8-.09-4.2l0-4.19-.1-4.2c0-1.4-.11-2.79-.13-4.19-.29-11.18-.72-22.33-1.4-33.54l-.56-8.43-.66-8.45c-.16-1.42-.24-2.83-.38-4.25l-.42-4.26c-.3-2.85-.62-5.71-1-8.62a0,0,0,0,1,0,0C364.75,440.67,354.21,531.43,367.72,574.82Z" style="fill:#e4d9a8"/><path d="M706.33,613.51c-1.49-4.84-2.82-9.71-4.1-14.6-.38-1.42-.74-2.85-1.11-4.28q-1.32-5.21-2.56-10.43c-1.06-4.93-2-9.89-2.94-14.85-.49-2.48-.92-5-1.37-7.46s-.92-5-1.29-7.46l-1-7.51-1-7.52c-.32-2.51-.65-5-.93-7.52-.13-1.26-.32-2.51-.41-3.77l-.32-3.78c-.42-5.05-.76-10.09-1.15-15.15l-.26-3.78c-.07-1.26-.09-2.53-.14-3.8l-.22-7.6-.17-7.59c0-1.27-.06-2.54-.05-3.8l.06-3.81c.13-5.07.21-10.14.38-15.21.33-5.07.66-10.14,1.08-15.2.16-2.53.46-5.06.77-7.58l.93-7.57c.16-1.26.29-2.52.51-3.78l.63-3.77c.43-2.5.85-5,1.32-7.51.11-.62.21-1.25.34-1.87l.41-1.87.83-3.73.84-3.72.43-1.86c.15-.61.33-1.23.49-1.84.69-2.46,1.36-4.91,2.06-7.36s1.57-4.84,2.39-7.25c.2-.6.42-1.2.65-1.79l.69-1.79c.47-1.18.91-2.37,1.41-3.54l1.57-3.48c.56-1.14,1.12-2.28,1.76-3.38q-.23.93-.39,1.86c-.13.62-.27,1.23-.38,1.85l-.64,3.71c-.21,1.24-.37,2.48-.56,3.72s-.41,2.46-.53,3.71c-.28,2.49-.64,4.95-.91,7.43l-.73,7.43-.19,1.86-.13,1.86-.27,3.72-.29,3.71-.15,1.86c-.05.62-.06,1.24-.09,1.86,0,.26,0,.52,0,.77-.1,2.23-.23,4.45-.35,6.67l-.21,3.71c-.06,1.24-.07,2.48-.11,3.72l-.22,7.44c0,1.24-.1,2.48-.15,3.71s0,2.48,0,3.72c0,5-.12,9.92-.17,14.87.1,5,.1,9.93.15,14.89v3.72c0,1.23.08,2.48.11,3.72l.22,7.44c.14,9.93.7,19.86,1.06,29.81.08,5,.55,9.93.76,14.92l.4,7.46.32,7.49c.32,5,.67,10,.94,15l.4,7.5c.12,2.5.2,5,.35,7.51.33,5,.64,10,.87,15.05S706.3,608.43,706.33,613.51Z" style="fill:#e4d9a8"/><path d="M739,439.23l-1.83,11c-.61,3.67-1.3,7.34-2,11s-1.36,7.33-2.08,11-1.4,7.32-2.18,11c-1.57,7.29-3.06,14.59-4.82,21.84-.86,3.63-1.68,7.26-2.6,10.88l-2.76,10.84c-3.84,14.42-8,28.74-12.78,42.9-2.46,7.05-4.87,14.1-7.63,21.05-1.7,4.5-3.53,8.95-5.43,13.38q-1.56,3.64-3.2,7.27l8.64-43.71q4.17-21.82,8.09-43.61l1.91-10.91q1-5.44,1.91-10.9L716,480.4c1.18-7.28,2.49-14.55,3.61-21.84l3.55-21.86,6.93-43.78,6.84-43.84q3-18.79,6-37.63.51-3.12,1-6.26c1.2-7.32,2.41-14.64,3.68-22s2.53-14.66,3.91-22c.39,7.46.5,14.92.51,22.37s-.11,14.9-.3,22.34c-.43,14.89-1.25,29.76-2.35,44.6q-.84,11.13-1.92,22.25c-.37,3.7-.71,7.41-1.13,11.1L745.08,395C743.31,409.76,741.31,424.52,739,439.23Z" style="fill:#e4d9a8"/><path d="M827.9,486a26.22,26.22,0,0,0-10-7,25.89,25.89,0,0,0-11.15-1.65c-7.4.54-14.2,3.92-20.09,8.61a86.27,86.27,0,0,0-15.76,16.92c-2.32,3.19-4.53,6.51-6.62,9.92s-4.11,6.91-6,10.48-3.77,7.19-5.54,10.87l-1.33,2.77-1.29,2.79c-.9,1.84-1.69,3.74-2.56,5.6-3.35,7.53-6.51,15.19-9.63,22.93s-6.13,15.56-9.22,23.43l-1.17,2.95c-.39,1-.75,2-1.15,3L724,603.52c-.77,2-1.61,4-2.41,5.94s-1.63,4-2.54,5.93c0-4.32.24-8.61.6-12.89,0-.44.07-.88.11-1.32.33-3.83.77-7.65,1.29-11.47a254.56,254.56,0,0,1,4.82-25.3,207.09,207.09,0,0,1,18.27-48.72c1-1.93,2.14-3.85,3.25-5.76s2.3-3.79,3.55-5.63a119.93,119.93,0,0,1,8-10.79,79.49,79.49,0,0,1,20.73-18,57,57,0,0,1,6.37-3.13,46.84,46.84,0,0,1,6.82-2.22,36.48,36.48,0,0,1,14.38-.6c.74.13,1.47.28,2.2.47a27.81,27.81,0,0,1,10.69,5.18A23.11,23.11,0,0,1,827.9,486Z" style="fill:#e4d9a8"/><path d="M809.48,470c-14.08.73-37.58,9.28-61.17,50.52-15.67,27.38-24.06,56.31-28.52,80.64.33-3.83.77-7.65,1.29-11.47a254.56,254.56,0,0,1,4.82-25.3,207.09,207.09,0,0,1,18.27-48.72c1-1.93,2.14-3.85,3.25-5.76s2.3-3.79,3.55-5.63a119.93,119.93,0,0,1,8-10.79,79.49,79.49,0,0,1,20.73-18,57,57,0,0,1,6.37-3.13,46.84,46.84,0,0,1,6.82-2.22,36.48,36.48,0,0,1,14.38-.6C808,469.68,808.75,469.83,809.48,470Z" style="fill:#e4d9a8"/><path d="M733.1,431.52c-5.39,36.63-27.83,130.15-38.2,172.57q-1.56,3.64-3.2,7.27l8.64-43.71q4.17-21.82,8.09-43.61l1.91-10.91q1-5.44,1.91-10.9L716,480.4c1.18-7.28,2.49-14.55,3.61-21.84l3.55-21.86,6.93-43.78,6.84-43.84q3-18.79,6-37.63C741,347.6,737.53,401.47,733.1,431.52Z" style="fill:#e4d9a8"/><path d="M701.12,594.63q-1.32-5.21-2.56-10.43c-1.06-4.93-2-9.89-2.94-14.85-.49-2.48-.92-5-1.37-7.46s-.92-5-1.29-7.46l-1-7.51-1-7.52c-.32-2.51-.65-5-.93-7.52-.13-1.26-.32-2.51-.41-3.77l-.32-3.78c-.42-5.05-.76-10.09-1.15-15.15l-.26-3.78c-.07-1.26-.09-2.53-.14-3.8l-.22-7.6-.17-7.59c0-1.27-.06-2.54-.05-3.8l.06-3.81c.13-5.07.21-10.14.38-15.21.33-5.07.66-10.14,1.08-15.2.16-2.53.46-5.06.77-7.58l.93-7.57c.16-1.26.29-2.52.51-3.78l.63-3.77c.43-2.5.85-5,1.32-7.51.11-.62.21-1.25.34-1.87l.41-1.87.83-3.73.84-3.72.43-1.86c.15-.61.33-1.23.49-1.84.69-2.46,1.36-4.91,2.06-7.36s1.57-4.84,2.39-7.25c.2-.6.42-1.2.65-1.79l.69-1.79c.47-1.18.91-2.37,1.41-3.54l1.57-3.48c.56-1.14,1.12-2.28,1.76-3.38q-.23.93-.39,1.86c-.13.62-.27,1.23-.38,1.85l-.64,3.71c-.21,1.24-.37,2.48-.56,3.72s-.41,2.46-.53,3.71c-.28,2.49-.64,4.95-.91,7.43l-.73,7.43-.19,1.86-.13,1.86-.27,3.72-.29,3.71-.15,1.86c-.05.62-.06,1.24-.09,1.86,0,.26,0,.52,0,.77C693.86,452.07,685.56,512.26,701.12,594.63Z" style="fill:#e4d9a8"/><path d="M711.85,616.28a1.93,1.93,0,0,1-1.63-2.2c7.85-53.34,24.82-104.65,37.68-138.31,13.93-36.46,26.18-60.65,26.3-60.89a1.93,1.93,0,1,1,3.45,1.75c-.49,1-48.68,96.6-63.6,198A1.93,1.93,0,0,1,711.85,616.28Z" style="fill:#e4d9a8"/><path d="M800.78,371.15a1.79,1.79,0,0,1-.7-.22,1.93,1.93,0,0,1-.78-2.62l9.26-17.16A1.93,1.93,0,0,1,812,353l-9.26,17.16A1.93,1.93,0,0,1,800.78,371.15Z" style="fill:#e4d9a8"/><path d="M811.13,373,784.9,421.58c-2.59,4.8-8.09,6.89-12.24,4.65l-3.76-2c-4.14-2.23-5.42-8-2.83-12.78l26.24-48.61c2.59-4.79,8.09-6.88,12.23-4.65l3.77,2C812.45,362.43,813.72,368.18,811.13,373Z" style="fill:#e4d9a8"/><path d="M811.13,373,784.9,421.58c-2.59,4.8-8.09,6.89-12.24,4.65l-.79-.42,35.65-66,.79.43C812.45,362.43,813.72,368.18,811.13,373Z" style="fill:#e4d9a8"/><path d="M688.87,612.9a1.93,1.93,0,0,1-1.63-2.2C718.82,396,715.73,325.14,715.7,324.45a1.93,1.93,0,1,1,3.86-.2c0,.69,3.17,71.81-28.49,287A2,2,0,0,1,688.87,612.9Z" style="fill:#e4d9a8"/><path d="M713.09,276.8a2,2,0,0,1-1.65-1.79l-1.27-19.46a1.93,1.93,0,1,1,3.86-.25l1.28,19.45a1.94,1.94,0,0,1-1.81,2.06A2.77,2.77,0,0,1,713.09,276.8Z" style="fill:#e4d9a8"/><path d="M724,272.66l3.62,55.12c.36,5.44-3.19,10.14-7.89,10.44l-4.27.29c-4.69.3-8.83-3.89-9.19-9.32l-3.62-55.12c-.36-5.44,3.2-10.14,7.89-10.45l4.27-.28C719.46,263,723.59,267.23,724,272.66Z" style="fill:#e4d9a8"/><path d="M724,272.66l3.62,55.12c.36,5.44-3.19,10.14-7.89,10.44l-.9.06-4.92-74.88.9-.06C719.46,263,723.59,267.23,724,272.66Z" style="fill:#e4d9a8"/><g style="opacity:0.27"><path d="M760,606.13s5.94-18,19.82-28.59,18.65-12.22,21-7.12-13.73,25.66-18.93,31.83-18.81,18.28-21.75,16.42S760,606.13,760,606.13Z" style="fill:#b58a43"/><path d="M768.07,581.27s-9.78-12.93,6.38-33.89,16.36-9.92,17.95-8.13-4.33,17.08-5,19.07-14.6,18.9-14.6,18.9Z" style="fill:#b58a43"/><path d="M752.91,618.15s-13.61-20.79-14-36,8.73-14.51,11.36-13.47,9.16,14.63,8.34,20.77S752.91,618.15,752.91,618.15Z" style="fill:#b58a43"/><path d="M760.78,567.68s-8.68-15.14-8-27.15,7.78-12.8,9.85-11.68,6.29,8.14,6.29,17.72S760.78,567.68,760.78,567.68Z" style="fill:#b58a43"/><path d="M768.87,546.57s30.45-22.12,31.71-30.37-.69-11.13-4.15-10.33-18,15.83-18,15.83,3.69-23.53-2.55-25.69-10.62,5.23-11.6,13.76S768.87,546.57,768.87,546.57Z" style="fill:#b58a43"/><path d="M783,510.06s25.27-9.73,30.06-28.66S788.5,493.6,783,510.06Z" style="fill:#b58a43"/><path d="M778.72,489s.49-29.29,9.16-26.32-4.89,47.4-4.89,47.4Z" style="fill:#b58a43"/><path d="M792.57,484.71s15.28-18.7,16.68-28.34-5.91.71-5.91.71-11.6,17.82-11.19,22.72S790.22,484.44,792.57,484.71Z" style="fill:#b58a43"/><path d="M753.37,666.56s24.43-13.12,29.07-29.08-8.65-13-11.65-9.82S758.92,642.75,757.05,648s-4.45-16-6.44-23.08-8.83-20.82-13.86-17.94-1.38,22.17-.24,28.25,8.74,24.74,10.73,28.12S753.37,666.56,753.37,666.56Z" style="fill:#b58a43"/><path d="M745.86,683.88S770.72,635.24,762,480.17c0,0,9.07,140.41-12.1,206Z" style="fill:#b58a43"/></g><g style="opacity:0.27"><path d="M357.81,601.82c-1.61-3.79-3.33-7.16-4.42-7.32-2.06-.31-7.77-6.56-8.53,8.85C349,602.69,353.39,602.11,357.81,601.82Z" style="fill:#b58a43"/><path d="M327.94,606.46a8.93,8.93,0,0,0-4.06-.7,4.71,4.71,0,0,0-2.67,2.11C323.45,607.37,325.69,606.91,327.94,606.46Z" style="fill:#b58a43"/><path d="M329.27,606.2l3.27-.63c2.95-.56,6.39-1.23,10.12-1.86,2.28-11.35,4.87-27.61,2.11-32.11-4.35-7.12-7.69-8.07-9.82-5.22s-3.55,23.69-3.55,23.69-12.34-20.37-18.51-18-4.74,10.85,0,18C315.39,593.84,322.81,600.62,329.27,606.2Z" style="fill:#b58a43"/><path d="M327.37,578.24s13.05-23.73,4.5-41.28S321,562.11,327.37,578.24Z" style="fill:#b58a43"/><path d="M310.52,564.88s-18.51-22.7-10-26,26.81,39.39,26.81,39.39Z" style="fill:#b58a43"/><path d="M318.35,552.69s-.37-24.15-5.51-32.42-4.06,4.35-4.06,4.35,2.61,21.11,6.09,24.59S316.39,554,318.35,552.69Z" style="fill:#b58a43"/><path d="M326.37,606.78c-19.55-22.52-34.29-37.87-34.29-37.87,12.72,13.47,24.09,26.09,34.26,37.87Z" style="fill:#b58a43"/></g><g style="opacity:0.27"><path d="M110.11,660.59s5.94-18,19.82-28.6,18.65-12.21,21-7.11S137.21,650.54,132,656.7,113.2,675,110.26,673.13,110.11,660.59,110.11,660.59Z" style="fill:#b58a43"/><path d="M118.17,635.73s-9.78-12.93,6.38-33.9,16.36-9.92,18-8.12-4.33,17.08-5,19.06-14.6,18.9-14.6,18.9Z" style="fill:#b58a43"/><path d="M103,672.6s-13.61-20.79-14-36,8.73-14.51,11.36-13.46,9.16,14.63,8.34,20.76S103,672.6,103,672.6Z" style="fill:#b58a43"/><path d="M110.88,622.13s-8.68-15.13-8-27.14,7.78-12.81,9.85-11.69S119,591.45,119,601,110.88,622.13,110.88,622.13Z" style="fill:#b58a43"/><path d="M119,601s30.45-22.12,31.71-30.37-.69-11.13-4.15-10.32-18,15.82-18,15.82,3.69-23.52-2.55-25.69-10.62,5.23-11.6,13.76S119,601,119,601Z" style="fill:#b58a43"/><path d="M133.09,564.51s25.27-9.73,30.06-28.66S138.6,548.05,133.09,564.51Z" style="fill:#b58a43"/><path d="M128.82,543.44s.49-29.29,9.16-26.32-4.89,47.39-4.89,47.39Z" style="fill:#b58a43"/><path d="M142.66,539.16s15.29-18.7,16.69-28.34-5.91.72-5.91.72-11.6,17.82-11.19,22.72S140.32,538.9,142.66,539.16Z" style="fill:#b58a43"/><path d="M103.47,721s24.43-13.12,29.07-29.08-8.65-13-11.65-9.82-11.87,15.1-13.74,20.35-4.45-16-6.44-23.07-8.83-20.83-13.86-17.95-1.38,22.18-.24,28.26,8.74,24.73,10.73,28.11S103.47,721,103.47,721Z" style="fill:#b58a43"/><path d="M96,738.33s24.86-48.64,16.17-203.7c0,0,9.07,140.4-12.1,205.94Z" style="fill:#b58a43"/></g><g style="opacity:0.27"><path d="M86.55,637.85s.77-18.9,11.18-33S112.29,588,116,592.28s-6.14,28.45-9.44,35.81-13,22.75-16.39,21.77S86.55,637.85,86.55,637.85Z" style="fill:#b58a43"/><path d="M87.45,611.73s-13-9.73-3.2-34.34,13-14,15-12.75.55,17.61.47,19.7-8.83,22.18-8.83,22.18Z" style="fill:#b58a43"/><path d="M83,651.36s-18.82-16.24-23.4-30.78,4.39-16.35,7.2-16.07,12.84,11.54,13.74,17.66S83,651.36,83,651.36Z" style="fill:#b58a43"/><path d="M76.7,600.67s-12.52-12.16-15.22-23.88,4-14.45,6.26-13.94,8.29,6.09,10.92,15.3S76.7,600.67,76.7,600.67Z" style="fill:#b58a43"/><path d="M78.66,578.15s23.19-29.65,22.12-37.93-3.72-10.51-6.82-8.78S81,551.6,81,551.6s-2.92-23.63-9.52-24-8.77,7.95-7.36,16.42S78.66,578.15,78.66,578.15Z" style="fill:#b58a43"/><path d="M82.19,539.16s21.61-16.31,21-35.83S83,521.82,82.19,539.16Z" style="fill:#b58a43"/><path d="M72.28,520.08s-7.6-28.29,1.55-27.83,8.36,46.91,8.36,46.91Z" style="fill:#b58a43"/><path d="M84.41,512.16S94,490,92.65,480.32s-5.49,2.31-5.49,2.31-6.25,20.33-4.5,24.93S82.09,512.54,84.41,512.16Z" style="fill:#b58a43"/><path d="M96.8,697.77s19.88-19.35,19.94-36-11.9-10.16-13.9-6.23-7.26,17.78-7.61,23.34-8.68-14.14-12.54-20.41-14.23-17.58-18.27-13.43,4.79,21.69,7.55,27.23S87.19,693.68,90,696.38,96.8,697.77,96.8,697.77Z" style="fill:#b58a43"/><path d="M94.35,716.49s10.51-53.61-40.55-200.28c0,0,47.38,132.47,45.09,201.31Z" style="fill:#b58a43"/></g><path d="M1259.6,549.19c-8,3.2-29.82,14.66-29.82,14.66,4.87-5.74,20.62-15,26.74-18.54A93.4,93.4,0,0,0,1242.7,532c-9.11,8-25.71,24.32-25.71,24.32,6.6-9.93,17.74-22.61,21.85-27.19a100.39,100.39,0,0,0-13.25-7.9c-9.36,7.87-26.69,27.2-26.69,27.2,5.42-10.41,18.24-24.92,22.2-29.3a113.58,113.58,0,0,0-14.23-5.14c-8,6.88-20.84,23.91-20.84,23.91a126.16,126.16,0,0,1,15.76-25.25,137,137,0,0,0-18-3.05c-5.15,8-13,24.63-13,24.63,1.28-8.9,6-20,8.3-25q-3.22-.24-6.6-.34c-3.56-.11-7-.07-10.31.08-3.07,16.91-3.62,46.62-3.62,46.62-2.49-18.11-2.39-36.74-2.1-46.21a107.45,107.45,0,0,0-16.33,2.76c.83,10.7,2.72,30.89,6,45.67,0,0-9.75-23.56-12.23-43.91a93.07,93.07,0,0,0-14,5.74c4.06,12.62,15,35.51,15,35.51-5-6.45-16-25.11-20.28-32.58-2.63,1.58-5.08,3.23-7.38,4.94l14.55,36.42-14.16-20.82a3.52,3.52,0,1,1-3.43-5l-3.52-5.18a91.2,91.2,0,0,0-10.91,11.81l11.33,25.24L1086,550.08a73.52,73.52,0,0,0-8.13,15.71l10.48,11.65,171.38,3.64,8.09-18.11A64.93,64.93,0,0,0,1259.6,549.19Zm-50.08,12.51a3.53,3.53,0,1,1,3.83-3.19A3.53,3.53,0,0,1,1209.52,561.7Z" style="fill:#e4d9a8"/><circle cx="1241.16" cy="566.48" r="3.53" style="fill:#e4d9a8;opacity:0.23"/><circle cx="1282.65" cy="550.28" r="3.53" style="fill:#e4d9a8;opacity:0.23"/><circle cx="1173.26" cy="580.35" r="3.53" style="fill:#e4d9a8;opacity:0.23"/><path d="M1330.8,670.37c1.18,6.32,2.41,12.63,3.85,18.91s2.94,12.54,4.7,18.76c.3-6.46.36-12.89.44-19.31l.07-9.62,0-9.6-.12-38.26c-.07-25.43,0-50.77,1.24-75.94.3-6.29.67-12.57,1.17-18.83.21-3.13.54-6.25.8-9.38s.62-6.24,1-9.34c.73-6.21,1.59-12.4,2.64-18.54l.84-4.59c.2-1,.41-2,.62-3,.1-.52.21-1.05.31-1.58l1-4.54c.38-1.5.72-3,1.13-4.5a132.64,132.64,0,0,1,5.83-17.51,80.08,80.08,0,0,1,4-8.23,54,54,0,0,1,5-7.54c3.74-4.67,8.48-8.66,14.38-10.41a22.36,22.36,0,0,1,4.56-.83,21.3,21.3,0,0,1,4.78.14,27.13,27.13,0,0,1,9.37,3.15,24,24,0,0,0-8.58-5.66,24.77,24.77,0,0,0-11-1.52,28,28,0,0,0-5.66,1.08l-.69.2-.67.24-1.36.49-1.32.57-.65.29-.64.32a43.54,43.54,0,0,0-9.22,6.33,70.18,70.18,0,0,0-13.27,16.64c-.47.75-.89,1.5-1.31,2.26s-.85,1.51-1.24,2.27c-.77,1.53-1.58,3.07-2.27,4.62l-1.08,2.32-1,2.35c-.7,1.55-1.27,3.13-1.89,4.71s-1.14,3.17-1.71,4.75l-1.58,4.78c-.5,1.6-1,3.2-1.42,4.8l-1.28,4.83c-1.66,6.43-3,12.91-4.07,19.39s-2,13-2.61,19.48c-.36,3.25-.6,6.49-.88,9.74-.12,1.63-.2,3.25-.31,4.87s-.21,3.25-.28,4.87c-.5,10.43-.61,20.85-.4,31.24.06,2.53.13,5.07.23,7.6q.38,9.68,1.11,19.31c.27,3.21.49,6.43.8,9.63l1,9.6C1326.63,645,1328.47,657.72,1330.8,670.37Z" style="fill:#e4d9a8"/><path d="M1358.11,705.81c1.91-5.19,3.65-10.42,5.34-15.67s3.28-10.52,4.85-15.81,2.74-10.63,4-16c.67-2.67,1.27-5.35,1.89-8s1.28-5.34,1.81-8l1.51-8.09,1.43-8.09c.47-2.71,1-5.4,1.38-8.11.21-1.36.47-2.7.63-4.06l.53-4.07c.7-5.44,1.31-10.88,2-16.33l.45-4.08c.14-1.36.21-2.73.32-4.1l.56-8.19.52-8.2c.07-1.37.18-2.74.22-4.1l.09-4.11c0-5.48.18-11,.18-16.44-.16-5.48-.34-11-.6-16.43-.09-2.73-.33-5.47-.58-8.2l-.77-8.19c-.13-1.36-.22-2.72-.43-4.09l-.58-4.08c-.38-2.71-.77-5.43-1.2-8.13-.11-.68-.2-1.36-.32-2l-.4-2-.79-4-.84-4-.41-2c-.15-.67-.32-1.34-.49-2-.69-2.67-1.37-5.33-2.07-8s-1.62-5.26-2.47-7.88c-.2-.65-.42-1.3-.67-1.94l-.73-1.95c-.5-1.28-1-2.57-1.48-3.85l-1.67-3.79c-.61-1.24-1.2-2.49-1.9-3.68.15.66.27,1.34.38,2s.25,1.34.35,2l.59,4c.19,1.34.33,2.68.5,4s.37,2.65.46,4c.22,2.7.53,5.36.74,8l.53,8,.14,2,.08,2,.16,4,.18,4,.1,2c0,.67,0,1.34,0,2,0,2.69.08,5.36.14,8l.08,4c0,1.34,0,2.68,0,4l0,8c0,1.35,0,2.68,0,4s-.07,2.68-.09,4c-.21,5.35-.29,10.7-.43,16-.32,5.36-.53,10.72-.79,16.07l-.17,4c-.07,1.33-.19,2.67-.29,4l-.56,8c-.57,10.72-1.63,21.43-2.46,32.16-.29,5.37-1,10.71-1.5,16.09l-.77,8.05-.68,8.07c-.58,5.37-1.19,10.75-1.71,16.13l-.77,8.09c-.24,2.7-.44,5.41-.72,8.11-.59,5.39-1.16,10.79-1.63,16.22S1358.35,700.33,1358.11,705.81Z" style="fill:#e4d9a8"/><path d="M1295.09,564.71q5.28,36.7,13.35,73c.66,3,1.38,6,2.08,9.05s1.4,6,2.15,9c1.47,6,3.1,12,4.71,18l2.5,9q1.3,4.47,2.71,8.92c1.84,5.92,3.75,11.84,5.84,17.71q-.45-6-1-11.89c-1.9-20.73-4.55-41.23-7.07-61.77-3.1-24.43-6.52-48.78-10-73.13s-7.36-48.67-11.47-73-8.51-48.58-14-72.81c-.28,6.22-.33,12.43-.3,18.63,0,3.09,0,6.19.1,9.29l.25,9.29c.2,6.18.49,12.36.82,18.54.15,3.09.37,6.17.57,9.26s.39,6.17.63,9.25Q1289.71,528,1295.09,564.71Z" style="fill:#e4d9a8"/><path d="M1171.07,466.79a59.39,59.39,0,0,1,17.68,6.62,93,93,0,0,1,15.1,10.37l1.74,1.46.87.72.82.78,3.31,3.08c.56.49,1.05,1.08,1.58,1.6l1.58,1.62c1,1.07,2.1,2.12,3.06,3.28l1.42,1.64a0,0,0,0,1,0,0l1.52,1.74.74.83.69.88,1.39,1.76,2.78,3.5,2.61,3.64c.86,1.22,1.76,2.4,2.6,3.63l2.42,3.75,2.44,3.74,2.27,3.84,2.27,3.84c.4.63.72,1.31,1.08,2l1.06,2,2.13,3.93,1,1.95c.34.67.66,1.34,1,2,1.29,2.69,2.62,5.35,3.94,8s2.42,5.44,3.63,8.16c.59,1.37,1.26,2.7,1.82,4.09l1.68,4.14c1.11,2.77,2.28,5.51,3.34,8.3a700.82,700.82,0,0,1,21.65,68.56c.75,2.91,1.58,5.81,2.37,8.72s1.41,5.86,2.17,8.78l2.25,8.78c.79,2.93,1.4,5.88,2.13,8.82l2.18,8.83,1.12,4.41,1,4.44c1.4,5.91,2.85,11.82,4.49,17.73.07-6.11-.06-12.21-.25-18.32,0-1.52-.08-3-.15-4.57l-.3-4.56-.66-9.13-.39-4.56c-.12-1.52-.23-3-.42-4.56l-1.1-9.09c-.35-3-.77-6.06-1.16-9.09s-1-6-1.5-9.05c-.45-2.64-.91-5.28-1.41-7.91a369.12,369.12,0,0,0-17.62-63.28c-4.64-11.5-9.58-22.94-15.82-33.86-.38-.69-.74-1.38-1.13-2.06l-1.23-2-2.44-4c-.83-1.34-1.6-2.71-2.5-4l-2.69-3.92-2.69-3.91c-.94-1.27-1.91-2.54-2.89-3.8l-2.92-3.76c-1-1.24-2.09-2.44-3.12-3.65s-2.09-2.43-3.15-3.62l-3.37-3.46-1.69-1.72-.84-.86-.89-.83c-1.19-1.09-2.4-2.17-3.6-3.26s-2.46-2.11-3.73-3.13-2.49-2.07-3.82-3l-4-2.83-1-.7-1-.65-2.1-1.3a86,86,0,0,0-17.87-8.39l-2.37-.75c-.78-.25-1.6-.43-2.4-.64-1.59-.44-3.24-.73-4.86-1s-3.28-.48-4.94-.58c-.82-.07-1.65-.07-2.47-.1S1171.88,466.71,1171.07,466.79Z" style="fill:#e4d9a8"/><path d="M1228.66,564.9a114.7,114.7,0,0,0,2.14,11.61c.91,3.81,2,7.56,3.11,11.24,2.28,7.39,4.88,14.55,7.53,21.64s5.37,14.08,8.09,21.07l8.15,20.95c2.71,7,5.43,14,8.23,21s5.64,14,8.56,21.09c1.52,3.51,3,7,4.58,10.56s3.15,7.06,5,10.55a164.15,164.15,0,0,0-.71-23.18l-.31-3-.3-2.78c-.24-1.9-.49-3.81-.77-5.71-.53-3.82-1.25-7.59-2-11.37-1.5-7.55-3.37-15-5.53-22.42s-4.7-14.68-7.5-21.87-5.88-14.25-9.17-21.19-6.79-13.73-10.3-20.41l-5.18-10c-1.66-3.34-3.37-6.66-4.87-10.05s-3-6.82-4.24-10.35-2.34-7.18-3.38-11a54.73,54.73,0,0,0-1.72,11.69A75.87,75.87,0,0,0,1228.66,564.9Z" style="fill:#e4d9a8"/><path d="M1388.08,672c.18,1.42.4,2.84.62,4.26.44,2.84,1,5.66,1.51,8.49s1.27,5.62,2,8.42,1.57,5.58,2.58,8.34c1.4-5.77,2.14-11.45,2.94-17.11.4-2.83.78-5.65,1.07-8.47l.9-8.42q.42-4.22.73-8.41c.26-2.8.51-5.59.7-8.39.1-1.4.17-2.79.27-4.19l.31-4.18.27-4.19c.07-1.39.13-2.79.23-4.19.66-11.16,1.18-22.31,1.45-33.53l.17-8.45.06-8.48c0-1.42,0-2.83,0-4.26l-.06-4.29c0-2.86-.13-5.74-.28-8.67h0a71.84,71.84,0,0,0-3.89,8c-1.16,2.72-2.2,5.46-3.15,8.22l-1.38,4.16c-.45,1.38-.84,2.78-1.24,4.18s-.78,2.8-1.14,4.2-.69,2.81-1,4.22a209.73,209.73,0,0,0-4.83,34.15c-.16,2.86-.24,5.73-.32,8.59l-.08,4.29c0,1.43,0,2.86.08,4.3.06,2.86.17,5.72.31,8.58s.45,5.71.74,8.55Z" style="fill:#e4d9a8"/><path d="M1171.07,466.79a59.39,59.39,0,0,1,17.68,6.62,93,93,0,0,1,15.1,10.37l1.74,1.46.87.72.82.78,3.31,3.08c.56.49,1.05,1.08,1.58,1.6l1.58,1.62c1,1.07,2.1,2.12,3.06,3.28l1.42,1.64a0,0,0,0,1,0,0c18.65,15.25,48.69,51.18,74.5,133.9a369.12,369.12,0,0,0-17.62-63.28c-4.64-11.5-9.58-22.94-15.82-33.86-.38-.69-.74-1.38-1.13-2.06l-1.23-2-2.44-4c-.83-1.34-1.6-2.71-2.5-4l-2.69-3.92-2.69-3.91c-.94-1.27-1.91-2.54-2.89-3.8l-2.92-3.76c-1-1.24-2.09-2.44-3.12-3.65s-2.09-2.43-3.15-3.62l-3.37-3.46-1.69-1.72-.84-.86-.89-.83c-1.19-1.09-2.4-2.17-3.6-3.26s-2.46-2.11-3.73-3.13-2.49-2.07-3.82-3l-4-2.83-1-.7-1-.65-2.1-1.3a86,86,0,0,0-17.87-8.39l-2.37-.75c-.78-.25-1.6-.43-2.4-.64-1.59-.44-3.24-.73-4.86-1s-3.28-.48-4.94-.58c-.82-.07-1.65-.07-2.47-.1S1171.88,466.71,1171.07,466.79Z" style="fill:#e4d9a8"/><path d="M1255,620.18c12,12.2,21.68,42.72,28,68.29l-.3-2.78c-.24-1.9-.49-3.81-.77-5.71-.53-3.82-1.25-7.59-2-11.37-1.5-7.55-3.37-15-5.53-22.42s-4.7-14.68-7.5-21.87-5.88-14.25-9.17-21.19-6.79-13.73-10.3-20.41l-5.18-10c-1.66-3.34-3.37-6.66-4.87-10.05s-3-6.82-4.24-10.35-2.34-7.18-3.38-11C1229.83,541.35,1232.67,597.53,1255,620.18Z" style="fill:#e4d9a8"/><path d="M1303.42,573.58c2.84,20.12,15.95,84.75,24,123.87-1.9-20.73-4.55-41.23-7.07-61.77-3.1-24.43-6.52-48.78-10-73.13s-7.36-48.67-11.47-73-8.51-48.58-14-72.81C1284.8,416.78,1299.26,544.06,1303.42,573.58Z" style="fill:#e4d9a8"/><path d="M1322.07,586.05c5.3-44.2,15.47-74.21,26-94.41.1-.52.21-1.05.31-1.58l1-4.54c.38-1.5.72-3,1.13-4.5a132.64,132.64,0,0,1,5.83-17.51,80.08,80.08,0,0,1,4-8.23,54,54,0,0,1,5-7.54c3.74-4.67,8.48-8.66,14.38-10.41a22.36,22.36,0,0,1,4.56-.83,21.3,21.3,0,0,1,4.78.14,27.13,27.13,0,0,1,9.37,3.15,24,24,0,0,0-8.58-5.66,24.77,24.77,0,0,0-11-1.52,28,28,0,0,0-5.66,1.08l-.69.2-.67.24-1.36.49-1.32.57-.65.29-.64.32a43.54,43.54,0,0,0-9.22,6.33,70.18,70.18,0,0,0-13.27,16.64c-.47.75-.89,1.5-1.31,2.26s-.85,1.51-1.24,2.27c-.77,1.53-1.58,3.07-2.27,4.62l-1.08,2.32-1,2.35c-.7,1.55-1.27,3.13-1.89,4.71s-1.14,3.17-1.71,4.75l-1.58,4.78c-.5,1.6-1,3.2-1.42,4.8l-1.28,4.83c-1.66,6.43-3,12.91-4.07,19.39s-2,13-2.61,19.48c-.36,3.25-.6,6.49-.88,9.74-.12,1.63-.2,3.25-.31,4.87s-.21,3.25-.28,4.87C1322,565.24,1321.86,575.66,1322.07,586.05Z" style="fill:#e4d9a8"/><path d="M1376,642.31l1.51-8.09,1.43-8.09c.47-2.71,1-5.4,1.38-8.11.21-1.36.47-2.7.63-4.06l.53-4.07c.7-5.44,1.31-10.88,2-16.33l.45-4.08c.14-1.36.21-2.73.32-4.1l.56-8.19.52-8.2c.07-1.37.18-2.74.22-4.1l.09-4.11c0-5.48.18-11,.18-16.44-.16-5.48-.34-11-.6-16.43-.09-2.73-.33-5.47-.58-8.2l-.77-8.19c-.13-1.36-.22-2.72-.43-4.09l-.58-4.08c-.38-2.71-.77-5.43-1.2-8.13-.11-.68-.2-1.36-.32-2l-.4-2-.79-4-.84-4-.41-2c-.15-.67-.32-1.34-.49-2-.69-2.67-1.37-5.33-2.07-8s-1.62-5.26-2.47-7.88c-.2-.65-.42-1.3-.67-1.94l-.73-1.95c-.5-1.28-1-2.57-1.48-3.85l-1.67-3.79c-.61-1.24-1.2-2.49-1.9-3.68.15.66.27,1.34.38,2s.25,1.34.35,2l.59,4c.19,1.34.33,2.68.5,4s.37,2.65.46,4c.22,2.7.53,5.36.74,8l.53,8S1387.92,569.32,1376,642.31Z" style="fill:#e4d9a8"/><path d="M1394.8,701.46c1.4-5.77,2.14-11.45,2.94-17.11.4-2.83.78-5.65,1.07-8.47l.9-8.42q.42-4.22.73-8.41c.26-2.8.51-5.59.7-8.39.1-1.4.17-2.79.27-4.19l.31-4.18.27-4.19c.07-1.39.13-2.79.23-4.19.66-11.16,1.18-22.31,1.45-33.53l.17-8.45.06-8.48c0-1.42,0-2.83,0-4.26l-.06-4.29c0-2.86-.13-5.74-.28-8.67h0C1403.27,567.54,1385,657.08,1394.8,701.46Z" style="fill:#e4d9a8"/><path d="M1861.49,594c-1,6.36-1.94,12.72-3.15,19s-2.47,12.65-4,18.93c-.54-6.45-.84-12.87-1.16-19.29l-.43-9.61-.38-9.59-1.3-38.24c-.87-25.42-1.93-50.73-4.06-75.84-.53-6.27-1.14-12.54-1.87-18.77-.32-3.12-.77-6.23-1.14-9.35s-.86-6.2-1.35-9.29c-1-6.18-2.05-12.34-3.32-18.43l-1-4.56c-.24-1-.48-2-.73-3-.12-.52-.24-1-.37-1.57l-1.18-4.5c-.43-1.48-.83-3-1.3-4.46a131.2,131.2,0,0,0-6.47-17.28,76.86,76.86,0,0,0-4.3-8.07,52.89,52.89,0,0,0-5.3-7.34c-3.91-4.54-8.8-8.34-14.76-9.88a23.2,23.2,0,0,0-4.59-.66,21.87,21.87,0,0,0-4.76.32,27.23,27.23,0,0,0-9.25,3.49,23.92,23.92,0,0,1,8.36-6,24.64,24.64,0,0,1,10.93-1.93,26.83,26.83,0,0,1,5.69.87l.7.17.68.21,1.38.44,1.33.53.67.26.65.3a43,43,0,0,1,9.45,6A70.46,70.46,0,0,1,1839,383.07c.49.72.94,1.46,1.39,2.2s.91,1.48,1.32,2.23c.83,1.5,1.69,3,2.44,4.53l1.16,2.28,1.1,2.3c.76,1.53,1.39,3.09,2.07,4.64s1.26,3.13,1.89,4.69l1.75,4.71c.56,1.58,1.06,3.17,1.6,4.75l1.46,4.77c1.89,6.37,3.46,12.79,4.78,19.23s2.44,12.91,3.34,19.37c.48,3.23.84,6.47,1.23,9.71.19,1.61.33,3.23.5,4.85s.33,3.23.46,4.85c.89,10.41,1.39,20.82,1.56,31.21,0,2.53.06,5.07.06,7.6,0,6.46-.13,12.9-.4,19.34-.14,3.22-.25,6.44-.43,9.65l-.64,9.64Q1864.24,574.87,1861.49,594Z" style="fill:#e4d9a8"/><path d="M1835.51,630.41c-2.11-5.12-4-10.28-5.92-15.47s-3.67-10.39-5.44-15.61-3.12-10.53-4.61-15.82c-.76-2.64-1.46-5.29-2.19-7.94s-1.47-5.29-2.1-8l-1.81-8-1.73-8c-.57-2.68-1.15-5.36-1.68-8-.26-1.35-.57-2.68-.79-4l-.67-4.05c-.9-5.41-1.71-10.83-2.57-16.24l-.6-4.07c-.2-1.35-.32-2.71-.48-4.08l-.87-8.17-.82-8.17c-.12-1.37-.28-2.73-.37-4.09l-.24-4.11c-.26-5.47-.59-10.94-.8-16.41,0-5.48-.07-11,0-16.44,0-2.74.13-5.48.28-8.22l.46-8.22c.09-1.36.13-2.72.28-4.09l.43-4.1c.28-2.73.57-5.46.89-8.18.09-.68.16-1.36.25-2l.32-2,.65-4.07.68-4.06.34-2c.12-.67.27-1.35.42-2,.59-2.69,1.16-5.38,1.77-8.05s1.42-5.33,2.17-8c.18-.66.38-1.32.6-2l.65-2c.45-1.3.87-2.61,1.35-3.9l1.52-3.85c.56-1.27,1.11-2.53,1.76-3.75-.13.67-.22,1.34-.31,2s-.2,1.34-.27,2l-.44,4c-.14,1.34-.23,2.7-.35,4s-.27,2.67-.31,4c-.12,2.7-.33,5.38-.44,8.06l-.23,8.06-.07,2v6l0,4,0,2c0,.67,0,1.35,0,2,.08,2.68.12,5.35.16,8l.06,4c0,1.34.13,2.68.17,4l.35,8c.07,1.33.1,2.67.15,4s.16,2.68.23,4c.41,5.34.68,10.69,1,16,.51,5.34.92,10.68,1.39,16l.31,4c.12,1.33.3,2.67.44,4l.86,8c1,10.68,2.43,21.35,3.65,32,.5,5.36,1.45,10.67,2.1,16l1.07,8,1,8c.78,5.35,1.59,10.7,2.31,16.06l1.07,8c.34,2.69.64,5.39,1,8.08.79,5.36,1.56,10.74,2.23,16.15S1835.07,624.94,1835.51,630.41Z" style="fill:#e4d9a8"/><path d="M1893.23,487.06q-3.9,36.87-10.61,73.41c-.55,3-1.16,6.09-1.75,9.13s-1.18,6.08-1.81,9.11c-1.25,6.06-2.65,12.1-4,18.14l-2.16,9q-1.15,4.51-2.38,9c-1.62,6-3.31,12-5.18,17.92q.24-6,.56-11.93c1.13-20.77,3-41.36,4.78-62,2.18-24.52,4.7-49,7.32-73.46s5.55-48.9,8.75-73.33,6.7-48.87,11.32-73.29c.5,6.21.79,12.41,1,18.61.11,3.1.18,6.19.25,9.29l.1,9.29c0,6.19,0,12.38-.13,18.57,0,3.08-.14,6.17-.23,9.27s-.16,6.18-.29,9.26Q1897.27,450.19,1893.23,487.06Z" style="fill:#e4d9a8"/><path d="M2013.54,384.6a59.18,59.18,0,0,0-17.43,7.26,93.84,93.84,0,0,0-14.7,10.94l-1.68,1.52-.85.75-.79.81-3.19,3.2c-.55.51-1,1.11-1.53,1.66l-1.51,1.67c-1,1.11-2,2.2-2.94,3.4l-1.36,1.69h0c-.48.6-1,1.21-1.46,1.8l-.71.86-.66.91-1.32,1.8-2.65,3.61-2.47,3.73c-.81,1.25-1.67,2.47-2.46,3.72l-2.28,3.84-2.3,3.83-2.13,3.93-2.12,3.91c-.38.65-.67,1.34-1,2l-1,2-2,4-1,2c-.31.67-.6,1.36-.9,2-1.19,2.74-2.42,5.45-3.64,8.16s-2.21,5.53-3.33,8.29c-.53,1.39-1.15,2.75-1.66,4.15l-1.53,4.2c-1,2.82-2.07,5.6-3,8.42A700.23,700.23,0,0,0,1908.88,564c-.65,2.94-1.37,5.86-2.05,8.81s-1.2,5.9-1.85,8.85l-1.92,8.86c-.68,3-1.18,5.92-1.8,8.89l-1.85,8.9-1,4.45-.87,4.47c-1.17,6-2.4,11.93-3.83,17.89-.29-6.1-.39-12.21-.43-18.31,0-1.53,0-3.05,0-4.58l.12-4.57.33-9.14L1894,594c.07-1.52.13-3.05.26-4.57l.76-9.12c.24-3,.54-6.09.82-9.13s.74-6.07,1.16-9.1c.35-2.65.72-5.31,1.12-7.95a367.63,367.63,0,0,1,15.25-63.89c4.21-11.67,8.72-23.29,14.55-34.43.36-.7.69-1.4,1-2.1l1.15-2.07,2.3-4.13c.78-1.36,1.5-2.76,2.34-4.09l2.55-4,2.54-4c.89-1.3,1.81-2.61,2.75-3.9l2.78-3.87c1-1.27,2-2.51,3-3.77s2-2.5,3-3.73l3.24-3.58,1.62-1.78.81-.9.86-.85c1.15-1.14,2.32-2.27,3.48-3.39s2.37-2.2,3.6-3.27,2.42-2.16,3.72-3.16l3.89-3,1-.74,1-.68,2-1.38a86,86,0,0,1,17.55-9.05l2.34-.84c.77-.28,1.58-.49,2.37-.73,1.58-.49,3.21-.84,4.82-1.22s3.26-.6,4.92-.76c.81-.1,1.64-.13,2.47-.19S2012.72,384.55,2013.54,384.6Z" style="fill:#e4d9a8"/><path d="M1959.63,484.78a113.27,113.27,0,0,1-1.7,11.68c-.77,3.84-1.68,7.63-2.69,11.35-2,7.47-4.34,14.72-6.73,21.9s-4.84,14.27-7.29,21.36l-7.38,21.24c-2.44,7.09-4.9,14.19-7.43,21.29s-5.12,14.24-7.77,21.39c-1.4,3.57-2.7,7.16-4.19,10.73s-2.89,7.17-4.6,10.73a163.42,163.42,0,0,1-.16-23.2l.2-3,.2-2.78q.24-2.88.56-5.74c.39-3.83,1-7.63,1.53-11.43,1.22-7.6,2.81-15.14,4.69-22.61s4.15-14.85,6.68-22.13,5.35-14.47,8.39-21.52,6.27-14,9.52-20.79l4.81-10.19c1.54-3.39,3.12-6.78,4.49-10.23s2.71-6.92,3.86-10.5,2.07-7.25,3-11.07a54.88,54.88,0,0,1,2.15,11.62A75.88,75.88,0,0,1,1959.63,484.78Z" style="fill:#e4d9a8"/><path d="M1804.3,597.68c-.12,1.43-.3,2.86-.47,4.29-.33,2.85-.75,5.69-1.18,8.53s-1.06,5.67-1.7,8.49-1.36,5.64-2.27,8.43c-1.61-5.71-2.56-11.36-3.58-17-.49-2.81-1-5.62-1.37-8.42l-1.22-8.39c-.39-2.79-.73-5.58-1-8.37s-.71-5.57-1-8.36c-.16-1.39-.28-2.78-.42-4.17l-.47-4.17-.42-4.18c-.13-1.39-.24-2.78-.39-4.17-1.07-11.13-2-22.26-2.7-33.46l-.48-8.43-.37-8.48c0-1.42-.11-2.83-.15-4.26l-.1-4.28c0-2.87-.08-5.75,0-8.68h0a72.32,72.32,0,0,1,4.19,7.85c1.26,2.67,2.4,5.38,3.45,8.1l1.53,4.1c.5,1.37.94,2.75,1.4,4.13s.88,2.77,1.3,4.16.79,2.78,1.16,4.18a208.66,208.66,0,0,1,6.09,33.94c.27,2.85.46,5.72.64,8.57l.24,4.29c0,1.44.08,2.86.09,4.3q.06,4.29,0,8.58c-.11,2.86-.24,5.73-.43,8.58Z" style="fill:#e4d9a8"/><path d="M2013.54,384.6a59.18,59.18,0,0,0-17.43,7.26,93.84,93.84,0,0,0-14.7,10.94l-1.68,1.52-.85.75-.79.81-3.19,3.2c-.55.51-1,1.11-1.53,1.66l-1.51,1.67c-1,1.11-2,2.2-2.94,3.4l-1.36,1.69h0c-18.07,15.94-46.76,53-69.47,136.59a367.63,367.63,0,0,1,15.25-63.89c4.21-11.67,8.72-23.29,14.55-34.43.36-.7.69-1.4,1-2.1l1.15-2.07,2.3-4.13c.78-1.36,1.5-2.76,2.34-4.09l2.55-4,2.54-4c.89-1.3,1.81-2.61,2.75-3.9l2.78-3.87c1-1.27,2-2.51,3-3.77s2-2.5,3-3.73l3.24-3.58,1.62-1.78.81-.9.86-.85c1.15-1.14,2.32-2.27,3.48-3.39s2.37-2.2,3.6-3.27,2.42-2.16,3.72-3.16l3.89-3,1-.74,1-.68,2-1.38a86,86,0,0,1,17.55-9.05l2.34-.84c.77-.28,1.58-.49,2.37-.73,1.58-.49,3.21-.84,4.82-1.22s3.26-.6,4.92-.76c.81-.1,1.64-.13,2.47-.19S2012.72,384.55,2013.54,384.6Z" style="fill:#e4d9a8"/><path d="M1935.34,541c-11.58,12.64-20.07,43.5-25.45,69.28l.2-2.78q.24-2.88.56-5.74c.39-3.83,1-7.63,1.53-11.43,1.22-7.6,2.81-15.14,4.69-22.61s4.15-14.85,6.68-22.13,5.35-14.47,8.39-21.52,6.27-14,9.52-20.79l4.81-10.19c1.54-3.39,3.12-6.78,4.49-10.23s2.71-6.92,3.86-10.5,2.07-7.25,3-11.07C1957.59,461.29,1956.84,517.54,1935.34,541Z" style="fill:#e4d9a8"/><path d="M1885.24,496.23c-2.09,20.21-12.78,85.28-19.38,124.67,1.13-20.77,3-41.36,4.78-62,2.18-24.52,4.7-49,7.32-73.46s5.55-48.9,8.75-73.33,6.7-48.87,11.32-73.29C1898,338.84,1888.31,466.58,1885.24,496.23Z" style="fill:#e4d9a8"/><path d="M1867.07,509.39c-6.94-44-18.21-73.59-29.49-93.38-.12-.52-.24-1-.37-1.57l-1.18-4.5c-.43-1.48-.83-3-1.3-4.46a131.2,131.2,0,0,0-6.47-17.28,76.86,76.86,0,0,0-4.3-8.07,52.89,52.89,0,0,0-5.3-7.34c-3.91-4.54-8.8-8.34-14.76-9.88a23.2,23.2,0,0,0-4.59-.66,21.87,21.87,0,0,0-4.76.32,27.23,27.23,0,0,0-9.25,3.49,23.92,23.92,0,0,1,8.36-6,24.64,24.64,0,0,1,10.93-1.93,26.83,26.83,0,0,1,5.69.87l.7.17.68.21,1.38.44,1.33.53.67.26.65.3a43,43,0,0,1,9.45,6A70.46,70.46,0,0,1,1839,383.07c.49.72.94,1.46,1.39,2.2s.91,1.48,1.32,2.23c.83,1.5,1.69,3,2.44,4.53l1.16,2.28,1.1,2.3c.76,1.53,1.39,3.09,2.07,4.64s1.26,3.13,1.89,4.69l1.75,4.71c.56,1.58,1.06,3.17,1.6,4.75l1.46,4.77c1.89,6.37,3.46,12.79,4.78,19.23s2.44,12.91,3.34,19.37c.48,3.23.84,6.47,1.23,9.71.19,1.61.33,3.23.5,4.85s.33,3.23.46,4.85C1866.4,488.59,1866.9,499,1867.07,509.39Z" style="fill:#e4d9a8"/><path d="M1815.25,567.61l-1.81-8-1.73-8c-.57-2.68-1.15-5.36-1.68-8-.26-1.35-.57-2.68-.79-4l-.67-4.05c-.9-5.41-1.71-10.83-2.57-16.24l-.6-4.07c-.2-1.35-.32-2.71-.48-4.08l-.87-8.17-.82-8.17c-.12-1.37-.28-2.73-.37-4.09l-.24-4.11c-.26-5.47-.59-10.94-.8-16.41,0-5.48-.07-11,0-16.44,0-2.74.13-5.48.28-8.22l.46-8.22c.09-1.36.13-2.72.28-4.09l.43-4.1c.28-2.73.57-5.46.89-8.18.09-.68.16-1.36.25-2l.32-2,.65-4.07.68-4.06.34-2c.12-.67.27-1.35.42-2,.59-2.69,1.16-5.38,1.77-8.05s1.42-5.33,2.17-8c.18-.66.38-1.32.6-2l.65-2c.45-1.3.87-2.61,1.35-3.9l1.52-3.85c.56-1.27,1.11-2.53,1.76-3.75-.13.67-.22,1.34-.31,2s-.2,1.34-.27,2l-.44,4c-.14,1.34-.23,2.7-.35,4s-.27,2.67-.31,4c-.12,2.7-.33,5.38-.44,8.06l-.23,8.06S1800.64,495.12,1815.25,567.61Z" style="fill:#e4d9a8"/><path d="M1798.68,627.42c-1.61-5.71-2.56-11.36-3.58-17-.49-2.81-1-5.62-1.37-8.42l-1.22-8.39c-.39-2.79-.73-5.58-1-8.37s-.71-5.57-1-8.36c-.16-1.39-.28-2.78-.42-4.17l-.47-4.17-.42-4.18c-.13-1.39-.24-2.78-.39-4.17-1.07-11.13-2-22.26-2.7-33.46l-.48-8.43-.37-8.48c0-1.42-.11-2.83-.15-4.26l-.1-4.28c0-2.87-.08-5.75,0-8.68h0C1785.24,493.91,1806.79,582.71,1798.68,627.42Z" style="fill:#e4d9a8"/><g style="opacity:0.27"><path d="M1316.79,575.8c-1.61-3.78-3.33-7.16-4.42-7.32-2.06-.31-7.77-6.55-8.53,8.85C1308,576.67,1312.37,576.1,1316.79,575.8Z" style="fill:#b58a43"/><path d="M1286.92,580.45a8.64,8.64,0,0,0-4.06-.7,4.69,4.69,0,0,0-2.67,2.1Q1283.55,581.12,1286.92,580.45Z" style="fill:#b58a43"/><path d="M1288.25,580.18l3.27-.63c3-.56,6.39-1.23,10.12-1.86,2.28-11.35,4.87-27.61,2.12-32.11-4.36-7.12-7.7-8.07-9.83-5.22s-3.55,23.69-3.55,23.69-12.34-20.37-18.51-18-4.74,10.85,0,18C1274.37,567.82,1281.79,574.6,1288.25,580.18Z" style="fill:#b58a43"/><path d="M1286.35,552.22s13.05-23.72,4.51-41.28S1280,536.09,1286.35,552.22Z" style="fill:#b58a43"/><path d="M1269.5,538.87s-18.51-22.71-10-26,26.81,39.38,26.81,39.38Z" style="fill:#b58a43"/><path d="M1277.33,526.67s-.36-24.15-5.51-32.42-4.06,4.36-4.06,4.36,2.62,21.1,6.09,24.58S1275.37,528,1277.33,526.67Z" style="fill:#b58a43"/></g><g style="opacity:0.27"><path d="M1376.45,625.4s.77-18.9,11.18-32.95,14.56-16.88,18.24-12.63-6.14,28.45-9.44,35.81-13,22.76-16.39,21.78S1376.45,625.4,1376.45,625.4Z" style="fill:#b58a43"/><path d="M1377.35,599.28s-13-9.74-3.2-34.34,13-14.05,15-12.76.55,17.61.47,19.7-8.83,22.19-8.83,22.19Z" style="fill:#b58a43"/><path d="M1372.94,638.9s-18.82-16.23-23.4-30.77,4.4-16.36,7.2-16.08,12.85,11.55,13.74,17.67S1372.94,638.9,1372.94,638.9Z" style="fill:#b58a43"/><path d="M1366.6,588.22s-12.52-12.16-15.22-23.88,4-14.46,6.26-14,8.29,6.1,10.93,15.3S1366.6,588.22,1366.6,588.22Z" style="fill:#b58a43"/><path d="M1368.57,565.69s23.18-29.65,22.11-37.92-3.72-10.51-6.82-8.79-12.94,20.17-12.94,20.17-2.92-23.64-9.52-24-8.77,8-7.36,16.43S1368.57,565.69,1368.57,565.69Z" style="fill:#b58a43"/><path d="M1372.09,526.71s21.61-16.31,21-35.83S1372.85,509.37,1372.09,526.71Z" style="fill:#b58a43"/><path d="M1362.18,507.62s-7.6-28.29,1.55-27.82,8.36,46.91,8.36,46.91Z" style="fill:#b58a43"/><path d="M1374.31,499.7s9.55-22.19,8.24-31.84-5.49,2.32-5.49,2.32-6.25,20.32-4.5,24.92S1372,500.09,1374.31,499.7Z" style="fill:#b58a43"/><path d="M1386.7,685.31s19.88-19.34,19.94-36-11.9-10.15-13.9-6.23-7.25,17.78-7.6,23.35-8.69-14.15-12.55-20.41-14.23-17.59-18.27-13.44,4.79,21.7,7.55,27.23,15.22,21.37,18.06,24.08S1386.7,685.31,1386.7,685.31Z" style="fill:#b58a43"/></g><path d="M390.3,580.11s1-1.45,3.51-4.68,9.57-12.16,7.22-16.07-9.23,1.27-11.15,4.15c0,0,3-16.66-4.3-18.12s-2.33,18.67-2.33,18.67-7.4-9.47-12.2-5.69,4.17,11.3,4.17,11.3,7,5.8,9.65,6.86A22.3,22.3,0,0,1,390.3,580.11Z" style="fill:#e4d9a8"/><path d="M392.6,580.76s2.71-9.5,8-11.25-.12,7.29-1.66,8.2S393,584,392.6,580.76Z" style="fill:#e4d9a8"/><path d="M387.12,579.84a20.24,20.24,0,0,0-10.25-5.65c-6.43-1.34-2,3.4-.52,4.58a16.17,16.17,0,0,0,7.49,2.56C385.94,581.36,388.19,582,387.12,579.84Z" style="fill:#e4d9a8"/><rect x="-13.64" y="575.88" width="1931.78" height="322.31" style="fill:url(#eff894b5-134a-421b-8a1c-d9bf12d5bf67)"/><path d="M1864.35,512.82c-16.4,6.8-61.22,31-61.22,31,9.93-12,42.23-31.58,54.77-39a191.94,191.94,0,0,0-28.81-27.24c-18.64,16.74-52.54,50.89-52.54,50.89,13.41-20.68,36.12-47.17,44.5-56.74a206.94,206.94,0,0,0-27.54-16c-19.12,16.5-54.47,56.89-54.47,56.89,11-21.66,37.08-52,45.16-61.13a232.59,232.59,0,0,0-29.49-10.28c-16.41,14.4-42.47,49.93-42.47,49.93,10.37-23.51,24.75-43.36,32-52.59a279.72,279.72,0,0,0-37.13-5.89c-10.47,16.71-26.33,51.24-26.33,51.24,2.44-18.43,11.9-41.46,16.56-52q-6.66-.4-13.62-.54-11-.21-21.29.4c-6,35-6.41,96.48-6.41,96.48-5.55-37.38-5.76-75.9-5.39-95.51a225.94,225.94,0,0,0-33.64,6.09c2,22.11,6.31,63.83,13.48,94.3,0,0-20.66-48.48-26.24-90.51a193,193,0,0,0-28.68,12.2c8.67,26,31.75,73.08,31.75,73.08-10.52-13.22-33.51-51.55-42.6-66.9-5.39,3.32-10.42,6.8-15.13,10.39l30.86,75-29.7-42.72a7.28,7.28,0,1,1-7.19-10.34l-7.38-10.62a187.9,187.9,0,0,0-22.26,24.68l24,51.92L1506,518.71c-12,18.55-16.43,32.67-16.43,32.67l21.9,23.85,353.83,3.54,16.3-37.65S1876.71,529,1864.35,512.82Zm-103.09,27a7.29,7.29,0,1,1,7.85-6.68A7.28,7.28,0,0,1,1761.26,539.86Z" style="fill:#e4d9a8"/><ellipse cx="1102.43" cy="396.34" rx="7.29" ry="7.28" transform="translate(618.15 1463.07) rotate(-85.36)" style="fill:#e4d9a8;opacity:0.23"/><ellipse cx="1187.72" cy="361.89" rx="7.29" ry="7.28" transform="translate(730.88 1516.42) rotate(-85.36)" style="fill:#e4d9a8;opacity:0.23"/><ellipse cx="962.6" cy="426.62" rx="7.29" ry="7.28" transform="translate(459.46 1351.53) rotate(-85.36)" style="fill:#e4d9a8;opacity:0.23"/></g></g></svg>