<?xml version="1.0" encoding="utf-8"?>
<!-- Generator: Adobe Illustrator 24.3.0, SVG Export Plug-In . SVG Version: 6.00 Build 0)  -->
<svg version="1.1" id="Layer_1" xmlns="http://www.w3.org/2000/svg" xmlns:xlink="http://www.w3.org/1999/xlink" x="0px" y="0px"
	 viewBox="0 0 260 250" style="enable-background:new 0 0 260 250;" xml:space="preserve">
<style type="text/css">
	.st0{fill:#A791B5;}
	.st1{fill:#867196;}
	.st2{fill:#CAD8DC;}
	.st3{fill:#DEE9EC;}
	.st4{fill:#EA9219;}
	.st5{fill:#D1E3E8;}
	.st6{fill:#EFAA19;}
	.st7{fill:#EA8700;}
	.st8{fill:#D97D00;}
	.st9{fill:#ACB1B3;}
	.st10{opacity:0.4;fill:#422809;}
	.st11{fill:#EAEFF0;}
	.st12{fill:#F2F4F5;}
	.st13{fill:#FFFFFF;}
	.st14{opacity:0.2;fill:#FFFFFF;}
	.st15{opacity:0.49;fill:#FFFFFF;enable-background:new    ;}
	.st16{fill:#DBE8EB;}
	.st17{opacity:0.3;fill:#F2F4F5;}
</style>
<g>
	<g id="Layer_20">
		<rect x="0" y="-1" class="st0" width="260" height="250"/>
		<ellipse class="st1" cx="136.1" cy="232.2" rx="69.9" ry="11.3"/>
		<path class="st2" d="M180.6,139.4c-3.4,47.2-32.3,90.6-37.8,93.5c-9.1,4.8-18.4,6.1-28.7,6.6c-8.1-0.4-25.3-2.4-30.8-8.3
			c-2.4-2.6-4.5-5.5-6.4-8.5c-4.7-7.6-8.9-15.4-12.7-23.5l0,0l0,0c-12.4-26.1-16.8-46.6-16.8-72.5c0-0.3,0-0.7,0-1s0-0.4,0-0.6
			c0.5-1.8,1-3.6,1.6-5.5c0.1-0.2,0.1-0.4,0.2-0.6c0,0,0-0.1,0-0.1c0.8-2,1.7-4.1,2.6-6l0,0c0,0,0-0.1,0-0.1c0,0,0,0,0-0.1
			c4.1-8,8.9-15.6,14.3-22.9c0-0.1,0-0.2,0-0.2c0-0.1,0.1-0.2,0.1-0.3c1.6-1.9,3.2-3.8,4.9-5.6l0,0c0,0,0.1-0.2,0.2-0.3l0.8-0.8
			l0.6-0.6l0.7-0.7l0.8-0.8l0.3-0.3l0.2-0.2l0.9-0.9l0,0l0,0l0,0c6.3,0.2,6.7,0.1,6.8,0.2l31.6,0.8l39.2-1.3l0.2,0.2
			c0.4,0.5,0.8,1,1.2,1.5c0.6,0.8,1.2,1.5,1.8,2.2c9.7,12.2,14.6,19.3,20.1,30.1c0.6,1.3,1.1,2.7,1.6,4.1c0.7,1.9,1.3,3.8,1.9,5.8
			c0,0.1,0.1,0.2,0.1,0.3c0.1,0.3,0.1,0.5,0.2,0.8s0.2,0.7,0.3,1.1c0,0.1,0.1,0.2,0.1,0.3C180.9,130.1,180.9,134.7,180.6,139.4z"/>
		<path class="st3" d="M179.2,138.8c-0.4,6.5-1.1,13-2.2,19.4c-4.9,14.6-10.5,28.9-16.8,42.9l0,0c-6.9,15.3-13.6,27.4-17.5,30
			l-0.4,0.2c-3.1,1.7-6.4,3-9.8,3.9c-0.9,0.2-1.9,0.5-2.8,0.7l-1,0.2l-1,0.2c-0.6,0.1-1.3,0.2-1.9,0.3c-3.8,0.6-7.7,1-11.6,1.2
			c-4.4-0.2-8.8-0.7-13.1-1.4c-4.8-0.9-9.4-2.4-13.8-4.6l-1.3-0.6l-0.4-0.2l-0.4-0.3l-0.3-0.2l-0.2-0.2l-0.4-0.3l-0.3-0.3l-0.1-0.1
			l-0.5-0.5c-0.6-0.6-1.2-1.4-1.8-2.2c-0.1-0.1-0.2-0.3-0.3-0.5l-0.2-0.3c-0.2-0.3-0.5-0.6-0.7-1l-0.3-0.4l-0.2-0.2
			c-0.6-0.8-1.1-1.6-1.7-2.6l-0.1-0.2c-0.1-0.1-0.1-0.2-0.2-0.3c0,0,0,0,0-0.1c0,0-0.1-0.1-0.1-0.1l-0.2-0.3
			c-0.1-0.1-0.1-0.1-0.1-0.2l-0.2-0.3l-0.7-1.2c-0.1-0.2-0.2-0.3-0.3-0.5l0,0c0,0-0.2-0.3-0.2-0.4l-0.2-0.3l-0.1-0.1
			c-0.1-0.1-0.2-0.2-0.2-0.4l-0.5-0.8l-0.6-1.1c-0.1-0.2-0.3-0.5-0.4-0.8s-0.3-0.5-0.4-0.8s-0.3-0.6-0.5-0.8s-0.3-0.6-0.5-0.9
			c-0.5-1-1.1-2-1.6-3.1c-0.2-0.4-0.4-0.8-0.6-1.2c-0.9-1.8-1.8-3.6-2.8-5.5c-0.2-0.4-0.4-0.9-0.6-1.3c-0.5-1-1-2.1-1.5-3.1l0,0l0,0
			c-1-2.1-1.9-4.2-2.9-6.3c-0.1-0.3-0.3-0.6-0.4-1l-0.2-0.4c-1.3-2.9-2.5-5.9-3.8-8.9v-0.1c-2.1-5.8-3.9-11.8-5.2-17.9
			c-2.8-12.2-4.1-24.8-4-37.3c0-0.3,0-0.7,0-1c0-0.2,0-0.4,0-0.6c0.4-1.8,1-3.6,1.6-5.4c0.1-0.2,0.1-0.4,0.2-0.6s0-0.1,0-0.1
			c0.8-2,1.6-4,2.5-6l0,0c0,0,0-0.1,0-0.1v-0.1c4-7.9,8.7-15.4,14-22.5c0-0.1,0-0.1,0-0.2c0-0.1,0-0.2,0.1-0.3
			c1.5-1.9,3.1-3.8,4.8-5.5l0,0l0.2-0.3l0.8-0.8c0.2-0.2,0.4-0.4,0.6-0.6l0.7-0.7l0.8-0.8l0.2-0.3l0.2-0.2c0.4-0.4,0.7-0.8,0.9-0.9
			h0.1v-0.1l0,0c6.2,0.2,6.6,0.1,6.7,0.2l30.9,0.8l38.4-1.3c0.1,0.1,0.1,0.2,0.2,0.2l1.2,1.5l1.7,2.2c9.5,12,14.3,19.1,19.7,29.8
			c0.6,1.3,1.1,2.7,1.6,4.1c0.7,1.9,1.3,3.8,1.8,5.8c0,0.1,0.1,0.2,0.1,0.3c0.1,0.3,0.1,0.5,0.2,0.8s0.2,0.7,0.3,1.1
			c0,0.1,0.1,0.2,0.1,0.3C179.6,129.6,179.5,134.3,179.2,138.8z"/>
		<path class="st4" d="M147,213.5L147,213.5c-4.2,5.4-7.5,10.2-13.2,13.5c-12,4.5-30.9,2.9-38.2,0.4c-2.7-0.8-4.6-2.9-6.5-4.8
			c0,0,0,0,0,0c-3.1-3.3-5.9-6.8-8.6-10.5l0,0l0,0c-1.7-2.4-3.4-4.9-5-7.5c-4.1-8-8.7-14.8-11.5-24.8l101.8-2.4
			C166.9,179.8,155.8,201.4,147,213.5z"/>
		<path class="st3" d="M209.6,115.1c-4.3,22.1-7.6,34.5-11,39.2l-0.2,0.3l-0.2,0.3L198,155c-1.9,2.1-3.9,1.9-6.3-0.4
			c-0.5-0.5-1-1-1.4-1.6l-0.4-0.5c-3.7-4.9,9.1-0.4,10.7-56.7c0.3-11.5-2.4-18.5-13.9-26c-4.4-2.9-9.4-3.6-14.6-3.8
			c-4.3-0.3-8.7,0-12.9,0.8c-0.7,0.1-1.3,0.3-2,0.5c-1.3,0.5-2.8,0.7-4.2,0.5c-1.1-0.3-2.1-1.1-2.6-2.1c-0.1-0.2-0.2-0.3-0.3-0.5
			c-0.1-0.1-0.1-0.3-0.2-0.4c-0.1-0.1-0.1-0.2-0.1-0.4c-0.9-2.7-0.8-5.6,0.3-8.2c0.1-0.1,0.1-0.2,0.2-0.3c1.2-2.1,3.5-3.1,5.8-3.7
			c1-0.2,2-0.4,3.1-0.6h0.4c9-1.1,18.2-0.3,26.9,2.4C220,65.1,212.8,98.5,209.6,115.1z"/>
		<path class="st3" d="M203.2,93.8c-1.6,56.3-14.4,51.8-10.7,56.7c2.3,3,4.3,4.4,6.1,3.8l-0.2,0.3l-0.2,0.3L198,155
			c-1.9,2.1-3.9,1.9-6.3-0.4c-0.5-0.5-1-1-1.4-1.6l-0.4-0.5c-3.7-4.9,9.1-0.4,10.7-56.7c0.3-11.5-2.4-18.5-13.9-26
			c-4.4-2.9-9.4-3.6-14.6-3.8c-4.3-0.3-8.7,0-12.9,0.8c-0.7,0.1-1.3,0.3-2,0.5c-1.3,0.5-2.8,0.7-4.2,0.5c-1.1-0.3-2.1-1.1-2.6-2.1
			c-0.1-0.2-0.2-0.3-0.3-0.5c-0.1-0.1-0.1-0.3-0.2-0.4c-0.1-0.1-0.1-0.2-0.1-0.4c-1.6-4.4,2.1-9.9,6.3-12.1c0.5-0.3,1.1-0.6,1.7-0.8
			c0.7-0.2,1.1-0.1,1.3,0.2c0.6,0.7,0.2,2.3,0.1,3.2c-0.9,3.4,0.5,7,3.5,8.8c3.4,2.1,8.2,0.2,11.9,0.3c5.2,0.1,10.2,0.8,14.6,3.8
			C200.7,75.3,203.5,82.3,203.2,93.8z"/>
		<path class="st3" d="M162.1,46.3c-0.1,0.7-0.2,1.5-0.5,2.2c-0.3,0.7-0.6,1.3-1,1.9c-0.5,0.8-1.2,1.5-1.7,2.3l-0.4,0.6
			c-3.4,5.8-4.9,13.3-6.3,20c-0.2,0.8-0.4,1.7-0.5,2.5l-0.4,1.7c-0.9,0.6-1.9,1.1-3,1.4c-13.1,4.8-49.6,5.3-65,0.3
			c-2.2-0.6-4.3-1.7-6-3.2c-0.5-0.5-0.8-1.1-1-1.8c0-0.2,0-0.5,0-0.8c0.1-5.1-0.7-10.1-2.6-14.8c-1.1-3-2.8-5.9-4.9-8.3
			c-0.3-0.4-0.6-0.7-1-1c-1.1-1.2-2.4-2.2-3.8-3.1c-2.5-1.6-5.3-2.7-8.2-3c-2-0.3-2.6-1.2-2.5-2.2c0.2-1.3,1.5-2.9,2.6-3.9
			c6-5.4,14.4-5,21.7-3.7c4.9,0.8,8.9-0.4,13.6-1c7-0.9,14-1.3,21-1.3c10.5-0.2,21.1,0.9,31.4,3.1C149.4,35.5,162.7,38.8,162.1,46.3
			z"/>
		<path class="st5" d="M154.8,42.3c0,0.2,0,0.5-0.1,0.7c-0.4,0.6-1,1.1-1.7,1.2c-1.1,0.3-2.1,0.5-3.2,0.7
			c-19.6,4.3-40.1,2.8-59.6-1.6c-4.5-1-8.9-2.1-13.5-2.8c-5.4-0.8-11.4-0.1-14.6-0.1h-0.5c-1.1,0-1.8-0.2-1.8-0.6
			c0-0.3,0.2-0.6,0.5-0.8c4.9-4.3,10.9-3.9,17-3.2c5.1,0.5,10.2,0.4,15.3-0.4c7.9-0.9,15.8-1.3,23.7-1.3c7.7-0.1,15.3,0.6,22.9,1.9
			c3.7,0.6,7.4,1.5,11,2.8c1.3,0.5,4,1.4,4.6,2.9C154.7,41.9,154.8,42.1,154.8,42.3z"/>
		<path class="st3" d="M154.8,42.3c0,0.2,0,0.5-0.1,0.7c-0.4,0.6-1,1.1-1.7,1.2c-4.4-6.7-34.4-7.6-38.4-7.6
			c-7.9-0.1-15.8,0.3-23.7,1.3c-3.4,0.6-6.8,0.8-10.3,0.7c-3.8-0.4-7.7-0.5-11.6-0.2c-2.5,0.2-4.6,1.4-6.9,2c-0.1,0-0.1,0.1-0.2,0.1
			c-0.1,0-0.2,0-0.3-0.1c-0.2-0.1-0.2-0.3-0.1-0.5c1.5-1.9,3.6-3.2,6-3.6c3.3-0.8,7,0.2,10.3,0.5c5.1,0.5,10.2,0.4,15.3-0.4
			c7.9-0.9,15.8-1.3,23.7-1.3c9.3,0,18.8,0.6,27.9,2.8c3.1,0.6,6,1.6,8.8,3.1C154,41.5,154.4,41.9,154.8,42.3z"/>
		<path class="st6" d="M165.9,177.4c1.7,1.5-20.2,4.5-44.8,4.5s-45.6-2.7-44.1-4.3c1.4-1.5,19.8-3.3,44.4-3.3
			S164.5,176.2,165.9,177.4z"/>
		<path class="st7" d="M150.1,180.8c-7.7,1.3-23.1,2.8-39.8,2.8c-24.6,0-45.6-2.7-44.1-4.3c0.8-0.8,6.4-1.7,15.2-2.3
			c-0.7,0.1-1.2,0.3-1.7,0.7c-1.5,1.6,19.5,4.3,44.1,4.3C132.6,181.9,141.4,181.5,150.1,180.8z"/>
		<path class="st8" d="M146.5,181c-8.1,1.3-22.6,2.5-38.2,2.5c-24.6,0-45.6-2.7-44.1-4.3c0.5-0.5,2.8-1,6.5-1.5
			c-2.2,0.4-3.5,0.7-3.9,1.1c-1.5,1.6,19.5,4.3,44.1,4.3C125,183.1,138.2,182.1,146.5,181z"/>
		<path class="st3" d="M161,49.6c0.6-1,0.9-2.1,1.1-3.3c-0.1,1.9-8.7,4.8-10.2,5.4c-6.7,2.4-25.6,2.8-37.1,1.5
			c-9.4-1-18.7-2.4-28.2-3.4c3.9,0.4,7.4,1.9,10.9,3.3C103.5,54.8,139.9,61.1,161,49.6z"/>
		<path class="st3" d="M77.2,76.1c5.1,3.4,19.8,5.9,37,5.9c17.7,0,32.7-2.6,37.4-6.1l0,0l-0.4,1.7C140.4,84.6,85.5,85,77.2,76.1z"/>
		<path class="st3" d="M152.9,79.2c-5.2,10.1-68.3,11.4-76.9,0.6c0.3-0.3,0.6-0.6,0.6-0.7l2.4,0.1c6.2,3.1,19.7,5.5,35.3,5.5
			c16.1,0,29.8-2.6,35.8-5.8l2.5-0.1L152.9,79.2z"/>
		<path class="st3" d="M152.1,73.4c-0.2,0.8-0.4,1.7-0.5,2.5l-0.4,1.7c-0.9,0.6-1.9,1.1-3,1.4c-13.1,4.8-49.6,5.3-65,0.3
			c-2.2-0.6-4.3-1.7-6-3.2c-0.5-0.5-0.8-1.1-1-1.8c0-0.2,0-0.5,0-0.8c5.4,3.3,21,5.7,37.9,5.7C131.4,79.2,147,76.8,152.1,73.4z"/>
		<path class="st3" d="M151.7,74.5c-4.7,3.8-19.8,6.5-37.5,6.5s-33.1-2.8-37.8-6.6c-0.8,0.8-1.2,1.9-0.9,3c0.1,0.3,0.2,0.7,0.3,1
			c5.8,11.5,72.2,9.1,76.9-0.2C153.1,76.8,152.7,75.4,151.7,74.5z"/>
		<path class="st9" d="M207.9,79c-2.8-10-10-18.3-19.5-22.6c-8.8-4-19.6-4.8-27.9,0.5c-1.1,0.7-0.8,2.8,0.7,2.7
			c9-0.7,18.2-0.3,26.3,4.2c8.8,4.9,14.9,13.3,16.9,23.2c2.2,10.7,0.4,21.9-1.9,32.5c-1.3,6-1.2,12.8-3.3,18.6
			c-1.6,4.5-4.2,7.2-0.9,12c4.5-12,8-24.4,10.4-37C210.8,101.6,211.2,90.1,207.9,79z"/>
		<path class="st9" d="M75.6,34.6c-5-2.5-15.3-1.4-18.3,3.8c-0.2,0.3-0.1,0.8,0.3,0.9c0.2,0.1,0.3,0.1,0.5,0.1
			c2.8-0.6,5.1-2.4,7.9-3.1c3.1-0.8,6.2-0.5,9.3-0.6c0.3,0,0.6-0.3,0.6-0.6C75.9,34.9,75.8,34.7,75.6,34.6z"/>
		<path class="st9" d="M153.3,45c-3.2-0.6-6.5,0.3-9.7,0.6s-6.3,0.5-9.5,0.7c-7.1,0.4-14.3,0.4-21.5,0c-14.5-1-28.9-3.1-43-6.4
			c0,0-0.1,0.1,0,0.1c0,0,0,0,0,0c6.9,2.7,14.1,4.8,21.3,6.2c6.9,1.2,13.9,2.1,20.8,2.6c7.4,0.5,14.8,0.6,22.3,0.2
			c3.7-0.2,7.4-0.5,11.1-1c2.8-0.3,5.7-0.4,8.2-1.7c0.3-0.2,0.4-0.7,0.2-1C153.6,45.2,153.4,45.1,153.3,45z"/>
		<path class="st9" d="M149.6,37.5c-7.9-3.3-16.8-4.6-25.3-5.3c-8.6-0.7-17.3-0.4-25.6,1.9c-0.1,0-0.1,0.1-0.1,0.2
			c0,0.1,0.1,0.1,0.1,0.1c8.3-0.3,16.5-0.9,24.8-0.5c8.8,0.5,17.3,2.4,25.9,4c0.1,0,0.3,0,0.3-0.1C149.8,37.7,149.8,37.6,149.6,37.5
			z"/>
		<path class="st9" d="M136.2,80.8c-3.9-0.6-7.7,0.1-11.6,0.4c-4.6,0.3-9.2,0.5-13.8,0.4c-9.4-0.1-18.8-0.8-28.1-2.2
			c-0.6-0.1-0.8,0.7-0.2,0.9c9,2.5,18.2,4,27.5,4.5c8.2,0.4,18.8,1.2,26.4-2.3c0.4-0.3,0.5-1,0.2-1.4
			C136.5,81,136.4,80.9,136.2,80.8z"/>
		<path class="st9" d="M147.4,58.3c-2.8,0.1-11.4-1.1-12.7,2.2c-1.7,3.9,3.1,14.9,7.6,15c5.8,0.2,7.5-8.7,8.5-12.8
			c0.5-1.9-0.7-3.8-2.6-4.3C147.9,58.4,147.7,58.3,147.4,58.3z"/>
		<path class="st9" d="M94.9,55.4c-0.5-0.1-0.9,0.2-1,0.7c0,0,0,0.1,0,0.1c-0.3,2.7,1.2,5.5,1.8,8.1c0.6,2.9,0,6.3,1.1,9
			c0.4,1,1.9,1.8,2.8,0.8C103.2,69.6,100.9,57.1,94.9,55.4z"/>
		<path class="st10" d="M67.2,89.9c-1.7,7.7-6.8,14.8-9.8,21.8c-1.3,2.9-2.3,5.8-3.2,8.8l-0.1,0.2c-0.2,0.6-0.3,1.2-0.5,1.7
			c-0.2,0.9-0.4,1.8-0.6,2.7c0,0.1-0.1,0.2-0.1,0.3c-1.2,6.2-1.8,12.6-1.5,18.9c0.3,9,2.7,16.9,5.3,24.9c1.3,4.1,2.7,8.3,3.9,12.6
			c1.5,5.5,3,10.9,4.6,16.3l0,0c0,0,0,0,0,0l0.4,1.5c-2.8-5.9-5.4-11.9-7.6-18.1v-0.1c-2.1-5.8-3.9-11.8-5.2-17.9
			c-2.8-12.2-4.1-24.8-4-37.3c0-0.3,0-0.7,0-1c0-0.2,0-0.4,0-0.6c0.4-1.8,1-3.6,1.6-5.4c0.1-0.2,0.1-0.4,0.2-0.6s0-0.1,0-0.1
			c0.8-2,1.6-4,2.5-6l0,0c0,0,0-0.1,0-0.1v-0.1"/>
		<path class="st11" d="M89.9,80.4c-1.7-1.1-3.7-1.5-5.5-2.1c-0.4-0.1-0.7-0.3-1.1-0.4c2.2-1.8,2.3-5.6,1.9-8.8
			c1.1-4.4-1.8-11.5-3.3-14.3l-0.1-0.1c-3-5.7-8.7-9.5-15.2-10.2c-5-0.5-8.8-2-13.3-3.4c-0.2,1.1,0.4,2,2.5,2.2
			c6.2,0.8,11,5.1,15.6,9.1c2.2,2,4,3.6,5,6.4c0.6,1.5,1.3,8.1,3,11.6C79,72.2,79,74.1,79.3,76l-0.6-0.3c-1.2-0.5-1.8,1.2-1.2,2
			c2.5,3.1,8.1,5.9,12.1,4.9c0.6-0.2,1-0.9,0.8-1.5C90.4,80.8,90.2,80.6,89.9,80.4z"/>
		<path class="st11" d="M142.2,84.3c-5.1,0.6-10.1,1.5-15.2,2c-4.9,0.5-9.8,0.6-14.7,0.5c-5.3-0.1-10.5-0.6-15.7-1.4
			c-4.7-0.7-9.3-1.9-14-2.1c-0.3,0-0.5,0.2-0.5,0.5c0,0.2,0.1,0.4,0.3,0.5c8.5,5.3,19.7,6.1,29.4,6.5c12.3,0.6,24.8,0.3,35.1-6.8
			C145.3,84,143.8,84.1,142.2,84.3z"/>
		<path class="st11" d="M150.2,41.3c-3.9-3.3-10-3.5-14.9-4.1c-5.4-0.7-10.8-1.2-16.2-1.4c-5.7-0.2-11.5-0.2-17.2,0.1
			c-5.4,0.2-11.4,0.4-16.5,2.5c-0.5,0.2-0.7,1,0,1.2c4.8,1,10,0.5,14.9,0.5c5.7,0,11.5,0.2,17.2,0.7s11.5,1.1,17.2,2
			c4.6,0.7,10.3,2.7,14.9,1.3c0.8-0.2,1.3-1.1,1.1-2C150.6,41.8,150.4,41.5,150.2,41.3z"/>
		<path class="st11" d="M140.8,54c-7.3-1.2-15.1-0.2-22.5-0.3c-7.9,0-15.9-0.5-23.8-1.3c-0.3,0-0.3,0.5-0.1,0.5
			c7.5,2,15.2,3.3,23,4.1c7.5,0.6,16.1,1.2,23.3-1.3C141.5,55.4,141.7,54.1,140.8,54z"/>
		<path class="st11" d="M159.2,66.9c-0.7,0.1-1.3,0.3-2,0.5c-1.3,0.5-2.8,0.7-4.2,0.5c-1.1-4.7,1-9.3,3.5-13.5
			c0.3-0.6,1.1-0.8,1.6-0.4c0.5,0.3,0.7,0.8,0.5,1.3C157.8,58.7,157.4,63.6,159.2,66.9z"/>
		<path class="st9" d="M130.8,231.6c-6.4-0.2-12.8,0.6-19.2,0.2c-6.8-0.3-13.6-1.2-20.3-2.9c-0.4-0.1-0.7,0.2-0.8,0.6
			c0,0.3,0.1,0.6,0.4,0.8c12.4,4,27.2,7.2,40.1,3.3c0.6-0.1,1-0.6,0.9-1.2S131.3,231.6,130.8,231.6z"/>
		<path class="st12" d="M76,84.7c-6.4,4.1-10.1,12.3-13,19c-3.3,7.5-5.7,15.4-7,23.5c-2.4,15.2-2.3,33.3,5.2,47.1
			c0.5,0.9,2.1,0.5,2-0.5c-0.9-7.4-2.4-14.6-2.7-22c-0.4-7.9,0-15.8,1.3-23.7c1.3-7.4,3.3-14.6,6.1-21.6c2.8-6.9,7.8-13.3,9.7-20.6
			c0.2-0.6-0.2-1.2-0.8-1.3C76.5,84.5,76.2,84.5,76,84.7z"/>
		<path class="st12" d="M174.6,121.1c-3.2-13-10.3-24.2-19.3-34c-0.8-0.8-2,0.4-1.2,1.2c8.3,9.8,14.2,21.3,19.1,33.2
			c0.1,0.4,0.5,0.7,1,0.5C174.5,122,174.7,121.5,174.6,121.1z"/>
		<path class="st12" d="M145.4,54.4c-3.5-0.8-7.3-0.5-11.1,0.2c-3.8-1.6-8.3-0.5-12.3-0.5c-4.9,0.1-9.8-0.1-14.7-0.5
			c-4.8-0.5-9.7-1.1-14.4-2c-4.6-0.8-9.3-2.3-14-2.5c-0.6,0-1,0.5-1,1.1c0,0.3,0.1,0.5,0.3,0.7c5.2,4.3,12.6,6.8,19.7,8.3
			c3.2,3.4,10,4.3,14,4.8c6.6,0.9,14.9,1.1,21-2c0.7-0.3,1.3-1,1.5-1.7c4.3-0.4,8.6-1.5,11.6-4c0.5-0.4,0.5-1.2,0-1.7
			C145.9,54.5,145.7,54.4,145.4,54.4z"/>
		<path class="st12" d="M207,80.7c-5.7-19.8-32.2-25.5-49.8-20c-1.7,0.5-1.9,3.2,0,3.6c9.4,1.9,18.9,0.3,28.2,3.5
			c8.6,3,15.1,9.4,16.6,18.5c1.6,9.5-0.4,20.1-1.9,29.5c-1.6,10.1-4.4,20-5.6,30.1c-0.1,0.9,1.4,1.3,1.8,0.5
			c5.1-10.6,7.3-22.6,9.3-34.2C207.3,102.1,209.9,91,207,80.7z"/>
		<path class="st13" d="M139.4,34.6c-11.2-3.3-24-3-35.4-1.5c-0.2,0-0.2,0.3,0,0.3c12-0.7,23.5,0.8,35.4,1.8
			C139.6,35.2,139.7,34.7,139.4,34.6z"/>
		<path class="st13" d="M74.3,44.4c-5.7-2.4-11.7-4-17.8-4.5c0.8-1.8,2.2-3.4,3.8-4.5c0.2-0.1,0.2-0.3,0.1-0.5
			c-0.1-0.2-0.3-0.2-0.5-0.1l0,0c-2.3,1.1-4,3-4.9,5.4c-0.1,0.3,0.1,0.6,0.4,0.7c0,0,0,0,0,0c6.3,1,12.3,2.6,18.5,4.1
			C74.4,45.2,74.7,44.6,74.3,44.4z"/>
		<path class="st13" d="M150.7,44.3c-9.2,1.6-18.1,3.8-27.5,4s-18.5-1.1-27.8-2.4c-0.1,0-0.2,0-0.2,0.1c0,0.1,0,0.2,0.1,0.2
			c8.9,2.9,18.5,3.7,27.8,3.4c9.1-0.2,19.2-1.2,27.7-4.6c0.2-0.1,0.3-0.3,0.3-0.5C151.1,44.4,150.9,44.3,150.7,44.3L150.7,44.3z"/>
		<path class="st13" d="M205.8,74.4c-4.4-17.3-26-24.5-41.9-20.3c-0.2,0.1-0.3,0.3-0.2,0.4c0,0.1,0.2,0.2,0.3,0.2
			c8.9,0.5,17.4,0.3,25.8,4.2c7,3.1,12.5,8.7,15.6,15.7C205.4,75,205.9,74.8,205.8,74.4z"/>
		<path class="st13" d="M210.5,91.7c-1.5,8.3-2.6,16.7-4.4,25s-4.2,16.4-6.2,24.6c0,0.2,0.1,0.3,0.3,0.3c0.1,0,0.2-0.1,0.3-0.2
			c2.9-8.3,5.2-16.7,6.8-25.3c1.8-8,3-16.2,3.5-24.4c0-0.1,0-0.1-0.1-0.1C210.6,91.6,210.5,91.6,210.5,91.7z"/>
		<path class="st13" d="M146,78.5c-10.2,2.2-19.8,4.6-30.3,4.7s-20.4-1.9-30.5-4.1c-0.1,0-0.2,0.1-0.3,0.2c0,0.1,0,0.2,0.1,0.2
			c9.6,3.7,20.3,5,30.6,5c10,0,21.3-1.1,30.6-5c0.3-0.1,0.4-0.4,0.3-0.7C146.5,78.6,146.3,78.4,146,78.5z"/>
		<path class="st13" d="M169.2,127c-2.7-11.9-7.7-24.7-15.8-34c-0.3-0.3-0.7,0.1-0.5,0.4c6.2,10.8,11.9,21.1,14.8,33.3
			c2.8,12.3,3.2,25.1,1.4,37.6c0,0.4,0.5,0.6,0.6,0.2C172.3,152.1,172.1,139.3,169.2,127z"/>
		<path class="st13" d="M78,36c-2.8-0.5-5.7-0.9-8.5-1.3c-0.2,0-0.3,0.3-0.1,0.3c2.8,0.4,5.7,0.9,8.6,1.2C78.1,36.3,78.1,36.1,78,36
			z"/>
		<path class="st13" d="M197.6,152.5c-0.7-0.2-1.5-0.5-2.1-0.9c-0.6-0.5-1.2-1-1.8-1.5c-0.2-0.2-0.6-0.2-0.8,0
			c-0.1,0.1-0.2,0.3-0.1,0.5c0.7,2,2.5,3.4,4.6,3.6C198.4,154.3,198.5,152.8,197.6,152.5z"/>
		<path class="st13" d="M122.7,237.9c-9.8-0.1-19-0.8-28.5-3.2c-0.1,0-0.2,0.1-0.2,0.2c0,0.1,0,0.1,0.1,0.2c9,3.2,19.2,4.7,28.7,3.4
			C123,238.4,123,237.9,122.7,237.9z"/>
		<path class="st14" d="M104.3,182.4c-10.3-1.3-20.6-2.3-30.9-3.5c-0.1,0-0.1,0.1,0,0.1C83.6,181,93.9,182.2,104.3,182.4
			C104.3,182.4,104.3,182.4,104.3,182.4z"/>
		<path class="st14" d="M135,182.2c-3.1-0.1-6.3,0-9.4,0.2c0,0-0.1,0,0,0.1c0,0,0,0,0,0C128.8,182.6,131.9,182.5,135,182.2
			C135.1,182.3,135.1,182.3,135,182.2C135.1,182.2,135.1,182.2,135,182.2C135.1,182.2,135,182.2,135,182.2z"/>
		<path class="st13" d="M131.3,174.5c-9.5-0.6-19.3-0.4-28.8,0l0,0C112.1,174.2,121.6,174.4,131.3,174.5
			C131.4,174.6,131.4,174.5,131.3,174.5z"/>
		<path class="st15" d="M133.2,73.5c-6.8-1.8-14.5-1.4-21.5-1.3c-7.2,0-14.3,0.6-21.4,1.9c-0.4,0.1-0.3,0.8,0.1,0.7
			c7.1,0,14.2-0.6,21.3-0.6s14.3,1.1,21.3,0.5c0.3,0,0.6-0.3,0.6-0.6C133.7,73.8,133.5,73.6,133.2,73.5z"/>
		<path class="st16" d="M143.3,229.9c-4.5,1.3-8.6,3.4-13.1,4.6c-5.1,1.3-10.4,1.9-15.7,1.9c-5.1,0-10.1-0.6-15-1.8
			c-4.8-1.1-9.2-3.1-13.9-4.5c-0.3-0.1-0.4,0.3-0.2,0.4c7.8,5.8,19.5,7.4,29.1,7.4c9.3,0,21.5-1.4,29.2-7.1
			C144.2,230.5,144,229.7,143.3,229.9z"/>
		<path class="st16" d="M155.9,48.5c-6.2,1.2-12.2,3-18.5,3.7c-6.1,0.6-12.2,0.8-18.4,0.5c-13-0.7-26-2.1-38.8-4.2
			c-0.1,0-0.1,0.1,0,0.2c13.2,2.5,26.1,5.5,39.6,6c11.7,0.4,25.9,0.2,36.6-5C157.1,49.4,156.6,48.4,155.9,48.5z"/>
		<path class="st16" d="M195.9,154.6c-0.8-0.8-1.9-1-2.6-1.8c-0.7-0.9-1.2-2-1.5-3.1c-0.1-0.3-0.5-0.4-0.6-0.1
			c-0.6,1.4-0.2,3.1,0.8,4.2c0.8,1.1,2.5,2.3,3.9,1.7c0.3-0.1,0.3-0.5,0.2-0.7C196,154.7,196,154.7,195.9,154.6z"/>
	</g>
</g>
<rect x="99.4" y="97.2" class="st17" width="31.2" height="104.5"/>
<rect x="82.6" y="131.5" class="st17" width="7.9" height="26.6"/>
</svg>
