<?xml version="1.0" encoding="utf-8"?>
<!-- Generator: Adobe Illustrator 24.3.0, SVG Export Plug-In . SVG Version: 6.00 Build 0)  -->
<svg version="1.1" id="Layer_16" xmlns="http://www.w3.org/2000/svg" xmlns:xlink="http://www.w3.org/1999/xlink" x="0px" y="0px"
	 viewBox="0 0 260 250" style="enable-background:new 0 0 260 250;" xml:space="preserve">
<style type="text/css">
	.st0{fill:#F7F3DE;}
	.st1{fill:#ADA389;}
	.st2{fill:#EC841B;}
	.st3{fill:#D16713;}
	.st4{fill:#F4CC80;}
	.st5{fill:#1A171B;}
	.st6{fill:#DD483E;}
	.st7{opacity:0.8;fill:#EF986E;enable-background:new    ;}
	.st8{fill:#F39969;}
	.st9{fill-rule:evenodd;clip-rule:evenodd;fill:#1A171B;}
	.st10{fill:#F4B731;}
	.st11{fill:#F2A321;}
	.st12{fill:#E9B575;}
	.st13{fill:#E1192B;}
	.st14{fill-rule:evenodd;clip-rule:evenodd;fill:#141C40;}
	.st15{fill-rule:evenodd;clip-rule:evenodd;fill:#788B44;}
	.st16{fill-rule:evenodd;clip-rule:evenodd;fill:#1A6D54;}
	.st17{fill-rule:evenodd;clip-rule:evenodd;fill:#6C2464;}
	.st18{fill-rule:evenodd;clip-rule:evenodd;fill:#FFFFFF;}
	.st19{fill-rule:evenodd;clip-rule:evenodd;fill:#14214B;}
	.st20{fill-rule:evenodd;clip-rule:evenodd;fill:#EB3D72;}
	.st21{fill-rule:evenodd;clip-rule:evenodd;fill:#9C2780;}
	.st22{fill-rule:evenodd;clip-rule:evenodd;fill:#11304D;}
	.st23{fill-rule:evenodd;clip-rule:evenodd;fill:#182956;}
	.st24{fill-rule:evenodd;clip-rule:evenodd;fill:#E1192B;}
	.st25{fill-rule:evenodd;clip-rule:evenodd;fill:#F7B330;}
	.st26{fill-rule:evenodd;clip-rule:evenodd;fill:#399E7D;}
	.st27{fill-rule:evenodd;clip-rule:evenodd;fill:#94BD1C;}
	.st28{fill-rule:evenodd;clip-rule:evenodd;fill:#C61B54;}
	.st29{fill-rule:evenodd;clip-rule:evenodd;fill:#D3162A;}
	.st30{fill-rule:evenodd;clip-rule:evenodd;fill:#0E2B50;}
	.st31{fill:#FFFFFF;}
	.st32{fill:none;}
	.st33{fill-rule:evenodd;clip-rule:evenodd;fill:#26886C;}
	.st34{fill-rule:evenodd;clip-rule:evenodd;fill:#BA1371;}
	.st35{fill-rule:evenodd;clip-rule:evenodd;fill:#147037;}
	.st36{fill-rule:evenodd;clip-rule:evenodd;fill:#84AA22;}
	.st37{fill-rule:evenodd;clip-rule:evenodd;fill:#607E25;}
	.st38{fill:#A58C71;}
	.st39{fill:#8E8C8B;}
	.st40{fill:#8C867E;}
	.st41{fill-rule:evenodd;clip-rule:evenodd;fill:#F4CB80;}
	.st42{fill-rule:evenodd;clip-rule:evenodd;fill:#EE976F;}
	.st43{fill:#C40F25;}
	.st44{fill:#87C438;}
	.st45{fill:#398924;}
	.st46{fill:#CDA15F;}
	.st47{fill:#282728;}
</style>
<rect x="0" y="-0.2" class="st0" width="260" height="250"/>
<path class="st1" d="M110.7,173.5c-12.8,0.2-31.2,3.6-36.8,9.4c-5.4,5.7-5.6,15.1-11.1,20.6c-4.6,4.7-8.3,6-13,8.9
	c-3.8,8,20.6,23.7,47.4,21.5c4.6-0.4,6-4.8,9.5-5.1c3.8-0.4,6.2,1.9,10,2.4c9.3,1.1,13.4-1,20.2-1.1c7.7,0,13.7,2.4,22.4,1.8
	c7.2-0.4,6.6,2.2,13.8,1.8c6.7-0.4,9.1-9.3,12.5-12c5.8-4.6,3-5.8,11.3-10.4c6.5-3.6,5.8-10.4,4.6-14c-1.6-2-8.4-4.4-16.3-11.1
	c-6.9-5.8-15.1-9.8-23.9-11.5C155.2,173.6,115.8,173.4,110.7,173.5z"/>
<path class="st2" d="M74.5,70.1c-3.1-7.2-4-15.1-2.8-22.9c2.2-12.2,42.3,2.9,42.3,2.9l1.2,7.6C115.1,57.7,81.5,76.5,74.5,70.1z"/>
<path class="st3" d="M73.8,46.1c0,0-3.3-4.5,40.2,4C113.9,50.1,71.9,53.1,73.8,46.1z"/>
<path class="st2" d="M117.9,57l-3.9-6.6c0,0,21.4-37.1,30.8-29.1c5.8,5.2,10.1,12,12.3,19.5C155.9,50.1,117.9,57,117.9,57z"/>
<path class="st3" d="M114,50.4c28.2-34.2,28.5-28.6,28.5-28.6C148.4,25.9,114,50.4,114,50.4z"/>
<path class="st4" d="M86.4,84c0-20.8,19.1-37.1,42.6-37.1s42.6,16.3,42.6,37.1c0,7.5-2.5,18.1-6.9,24c-7.6,10.2-20.8,13.5-35.8,13.5
	s-28.2-3.3-35.8-13.6C88.9,102,86.4,91.5,86.4,84z"/>
<path class="st5" d="M128.9,48.9c0,0-0.5,8.5-23.1,13.7s-18.1,34-16.8,37.6l-1.3-3.5c0,0-7.5-17.1,6.3-37.5c0,0,9.3-13.1,34.9-13.8
	C129.9,46.4,128.9,48.9,128.9,48.9z"/>
<path class="st5" d="M128.8,48.9c0,0,0.5,8.5,23.1,13.7s18.1,34,16.8,37.6l1.2-3.5c0,0,7.5-17.1-6.3-37.5c0,0-9.3-13.1-34.9-13.8
	C127.8,46.4,128.8,48.9,128.8,48.9z"/>
<path class="st5" d="M114.4,82.8c0,3.6-2.9,6.5-6.5,6.5s-6.5-2.9-6.5-6.5c0-3.6,2.9-6.5,6.5-6.5S114.4,79.2,114.4,82.8L114.4,82.8z"
	/>
<path class="st5" d="M156.7,82.8c0,3.6-2.9,6.5-6.5,6.5c-3.6,0-6.5-2.9-6.5-6.5c0-3.6,2.9-6.5,6.5-6.5l0,0
	C153.7,76.3,156.7,79.2,156.7,82.8z"/>
<polygon class="st6" points="124.8,94.9 129,84.6 133.2,94.9 "/>
<polygon class="st6" points="137.7,98 129,106 120.3,98 115.9,101.2 129,109.5 142.1,101.2 "/>
<path class="st5" d="M86.6,73.6c0,0-13.2,13.2-9.3,31.9c0,0-7.6,5.5-5.3,23.1c0,0-4.2,6.5-0.2,21.1l6.8,1.6c0,0,8.3-10.9,7.4-23.3
	c0,0,7.5-9.4,6.7-21.1c0,0-7-10.2-6.4-25.6c0.1-1.5,0.4-3,0.9-4.4C88.7,71.2,86.6,73.6,86.6,73.6z"/>
<path class="st7" d="M114.8,101c0,6.1-5,11-11.1,11c-6.1,0-11-5-11-11.1c0-6.1,5-11,11.1-11C109.8,89.9,114.8,94.9,114.8,101
	C114.8,101,114.8,101,114.8,101z"/>
<path class="st7" d="M165.3,101c0,6.1-5,11.1-11.1,11c-6.1,0-11.1-5-11-11.1c0-6.1,5-11,11.1-11C160.3,89.9,165.3,94.9,165.3,101
	C165.3,101,165.3,101,165.3,101z"/>
<path class="st5" d="M170.4,73.8c0,0,13.6,13.1,9.7,31.8c0,0,7.6,5.5,5.3,23.1c0,0,4.1,6.5,0.2,21.1l-6.8,1.6c0,0-8.3-10.9-7.4-23.3
	c0,0-7.5-9.4-6.7-21.1c0,0,7.1-10.2,6.4-25.6C170.8,72.8,170.4,73.8,170.4,73.8z"/>
<path class="st8" d="M104.7,117.3c-0.1,0-0.1,0-0.2-0.1c0,0-0.2-0.2-0.6-0.5c-0.1-0.1-0.1-0.3,0-0.4c0.1-0.1,0.3-0.1,0.4,0
	c0,0,0,0,0,0c0.2,0.2,0.4,0.3,0.5,0.5c0.1,0.1,0.1,0.3,0,0.4C104.9,117.3,104.8,117.3,104.7,117.3z"/>
<path class="st8" d="M103.1,115.7c-0.1,0-0.1,0-0.2-0.1c-0.3-0.4-0.7-0.8-1-1.2c-0.1-0.1-0.1-0.3,0-0.4s0.3-0.1,0.4,0c0,0,0,0,0,0
	c0.3,0.4,0.7,0.8,1,1.2c0.1,0.1,0.1,0.3,0,0.3C103.3,115.7,103.2,115.7,103.1,115.7z M101.2,113.3c-0.1,0-0.2,0-0.2-0.1
	c-0.3-0.4-0.6-0.8-0.9-1.3c-0.1-0.1,0-0.3,0.1-0.3c0.1-0.1,0.3,0,0.3,0.1c0,0,0,0,0,0c0.3,0.4,0.6,0.9,0.9,1.3
	c0.1,0.1,0.1,0.3-0.1,0.3c0,0,0,0,0,0C101.3,113.3,101.3,113.3,101.2,113.3z M99.5,110.7c-0.1,0-0.2-0.1-0.2-0.1
	c-0.2-0.4-0.5-0.9-0.8-1.4c-0.1-0.1,0-0.3,0.1-0.3c0,0,0,0,0,0c0.1-0.1,0.3,0,0.3,0.1c0.2,0.5,0.5,0.9,0.7,1.3
	c0.1,0.1,0,0.3-0.1,0.3C99.6,110.7,99.6,110.7,99.5,110.7z M98.1,108c-0.1,0-0.2-0.1-0.2-0.1c-0.2-0.5-0.4-0.9-0.6-1.4
	c-0.1-0.1,0-0.3,0.1-0.3c0,0,0,0,0,0c0.1-0.1,0.3,0,0.3,0.1c0,0,0,0,0,0c0.2,0.5,0.4,0.9,0.6,1.4c0.1,0.1,0,0.3-0.1,0.3
	C98.2,108,98.1,108,98.1,108z M96.9,105.2c-0.1,0-0.2-0.1-0.2-0.2c-0.2-0.5-0.4-1-0.5-1.5c0-0.1,0-0.3,0.2-0.3c0.1,0,0.3,0,0.3,0.2
	c0.2,0.5,0.3,1,0.5,1.4c0.1,0.1,0,0.3-0.1,0.3C97,105.1,97,105.1,96.9,105.2L96.9,105.2z M95.9,102.3c-0.1,0-0.2-0.1-0.2-0.2
	c-0.2-0.5-0.3-1-0.4-1.5c0-0.1,0-0.3,0.2-0.3c0.1,0,0.3,0,0.3,0.2c0.1,0.5,0.3,1,0.4,1.5C96.2,102.1,96.1,102.2,95.9,102.3
	L95.9,102.3z M95,99.3c-0.1,0-0.2-0.1-0.2-0.2c-0.1-0.5-0.2-1-0.3-1.5c0-0.1,0.1-0.3,0.2-0.3c0,0,0,0,0,0c0.1,0,0.3,0.1,0.3,0.2
	c0,0,0,0,0,0c0.1,0.5,0.2,1,0.3,1.5C95.3,99.1,95.2,99.2,95,99.3C95.1,99.3,95.1,99.3,95,99.3L95,99.3z M94.4,96.3
	c-0.1,0-0.2-0.1-0.2-0.2c-0.1-0.5-0.2-1-0.3-1.5c0-0.1,0.1-0.3,0.2-0.3c0.1,0,0.3,0.1,0.3,0.2c0,0,0,0,0,0c0.1,0.5,0.2,1,0.3,1.5
	C94.7,96.1,94.6,96.2,94.4,96.3L94.4,96.3z M93.9,93.3c-0.1,0-0.2-0.1-0.2-0.2c-0.1-0.5-0.1-1-0.2-1.6c0-0.1,0.1-0.3,0.2-0.3
	c0,0,0,0,0,0c0.1,0,0.3,0.1,0.3,0.2c0.1,0.5,0.1,1,0.2,1.5C94.2,93.1,94.1,93.2,93.9,93.3C93.9,93.3,93.9,93.3,93.9,93.3L93.9,93.3z
	 M93.6,90.2c-0.1,0-0.2-0.1-0.2-0.2c0-0.5-0.1-1-0.1-1.5c0-0.1,0.1-0.3,0.2-0.3c0.1,0,0.3,0.1,0.3,0.2c0,0,0,0,0,0
	c0,0.5,0.1,1,0.1,1.5C93.9,90.1,93.7,90.2,93.6,90.2C93.6,90.2,93.6,90.2,93.6,90.2L93.6,90.2z M93.3,87c-0.1,0-0.2-0.1-0.2-0.2
	c0-0.5,0-1,0-1.6c0-0.1,0.1-0.2,0.2-0.2s0.2,0.1,0.2,0.2c0,0.5,0,1,0.1,1.5C93.7,86.9,93.6,87,93.3,87L93.3,87z M93.3,83.9
	c-0.1,0-0.2-0.1-0.2-0.2v-0.1c0-0.5,0-1,0-1.4c0-0.1,0.1-0.2,0.3-0.2c0.1,0,0.3,0.1,0.2,0.3c0,0.5,0,0.9,0,1.4v0.1
	C93.5,83.8,93.4,83.9,93.3,83.9C93.3,83.9,93.3,83.9,93.3,83.9L93.3,83.9z M93.3,80.8L93.3,80.8c-0.1,0-0.2-0.1-0.2-0.2c0,0,0,0,0,0
	c0-0.5,0.1-1,0.1-1.6c0-0.1,0.1-0.2,0.3-0.2c0,0,0,0,0,0c0.1,0,0.2,0.1,0.2,0.3c0,0.5-0.1,1-0.1,1.5C93.6,80.7,93.5,80.8,93.3,80.8
	C93.4,80.8,93.4,80.8,93.3,80.8L93.3,80.8z M93.6,77.7L93.6,77.7c-0.1,0-0.2-0.1-0.2-0.3c0,0,0,0,0,0c0-0.5,0.1-1,0.2-1.5
	c0.1-0.1,0.2-0.1,0.3-0.1c0,0,0.1,0.1,0.1,0.1c-0.1,0.5-0.1,1-0.2,1.5C93.8,77.6,93.7,77.7,93.6,77.7L93.6,77.7z M94,74.7L94,74.7
	c-0.1,0-0.2-0.1-0.2-0.3c0,0,0,0,0,0c0.1-0.5,0.2-1,0.3-1.5c0-0.1,0.2-0.2,0.3-0.2c0,0,0,0,0,0c0.1,0,0.2,0.2,0.2,0.3
	c-0.1,0.5-0.2,1-0.3,1.5C94.3,74.6,94.1,74.7,94,74.7z M94.7,71.7L94.7,71.7c-0.2,0-0.3-0.2-0.2-0.3c0,0,0,0,0,0
	c0.1-0.5,0.3-1,0.4-1.5c0-0.1,0.2-0.2,0.3-0.2c0.1,0,0.2,0.2,0.2,0.3c-0.2,0.5-0.3,1-0.4,1.5C94.9,71.6,94.8,71.7,94.7,71.7
	L94.7,71.7z"/>
<path class="st8" d="M95.7,68.7L95.7,68.7c-0.2-0.1-0.3-0.2-0.2-0.3c0.1-0.2,0.2-0.5,0.3-0.7c0-0.1,0.2-0.2,0.3-0.1c0,0,0,0,0,0
	c0.1,0.1,0.2,0.2,0.1,0.3c-0.1,0.2-0.2,0.4-0.3,0.7C95.9,68.7,95.8,68.7,95.7,68.7z"/>
<path class="st8" d="M162.4,68.9c-0.1,0-0.2-0.1-0.2-0.2c-0.1-0.2-0.2-0.5-0.3-0.7c-0.1-0.1,0-0.3,0.1-0.3s0.3,0,0.3,0.1l0.3,0.7
	C162.7,68.6,162.6,68.8,162.4,68.9C162.5,68.8,162.5,68.8,162.4,68.9L162.4,68.9z"/>
<path class="st8" d="M154.9,115.7c-0.1,0-0.1,0-0.2-0.1c-0.1-0.1-0.1-0.3,0-0.4c0.3-0.4,0.6-0.8,1-1.2c0.1-0.1,0.2-0.1,0.4-0.1
	c0.1,0.1,0.1,0.3,0,0.4c-0.3,0.4-0.7,0.8-1,1.2C155,115.7,155,115.7,154.9,115.7z M156.8,113.3c-0.1,0-0.1,0-0.1-0.1
	c-0.1-0.1-0.1-0.2-0.1-0.3c0,0,0,0,0,0c0.3-0.4,0.6-0.8,0.9-1.3c0.1-0.1,0.2-0.2,0.3-0.1c0.1,0.1,0.2,0.2,0.1,0.3
	c-0.3,0.4-0.6,0.9-0.9,1.3C157,113.2,156.9,113.3,156.8,113.3z M158.4,110.7c0,0-0.1,0-0.1,0c-0.1-0.1-0.2-0.2-0.1-0.3
	c0.3-0.4,0.5-0.9,0.7-1.3c0.1-0.1,0.2-0.2,0.3-0.1c0,0,0,0,0,0c0.1,0.1,0.2,0.2,0.1,0.3c-0.2,0.5-0.5,0.9-0.8,1.4
	C158.6,110.7,158.5,110.7,158.4,110.7z M159.9,108c0,0-0.1,0-0.1,0c-0.1-0.1-0.2-0.2-0.1-0.3c0,0,0,0,0,0c0.2-0.5,0.4-0.9,0.6-1.4
	c0.1-0.1,0.2-0.2,0.3-0.1c0.1,0.1,0.2,0.2,0.1,0.3c-0.2,0.5-0.4,1-0.6,1.4C160.1,107.9,160,108,159.9,108L159.9,108z M161.1,105.1
	L161.1,105.1c-0.2,0-0.3-0.2-0.2-0.3c0,0,0,0,0,0c0.2-0.5,0.4-1,0.5-1.4c0-0.1,0.2-0.2,0.3-0.2c0.1,0,0.2,0.2,0.2,0.3
	c-0.2,0.5-0.4,1-0.5,1.4C161.3,105.1,161.2,105.1,161.1,105.1z M162.1,102.2L162.1,102.2c-0.2,0-0.3-0.2-0.2-0.3
	c0.1-0.5,0.3-1,0.4-1.5c0-0.1,0.2-0.2,0.3-0.2c0.1,0,0.2,0.2,0.2,0.3c0,0,0,0,0,0c-0.1,0.5-0.3,1-0.4,1.5
	C162.3,102.2,162.2,102.2,162.1,102.2L162.1,102.2z M162.9,99.2L162.9,99.2c-0.2,0-0.3-0.2-0.2-0.3c0.1-0.5,0.2-1,0.4-1.5
	c0-0.1,0.2-0.2,0.3-0.2c0,0,0,0,0,0c0.1,0,0.2,0.2,0.2,0.3c-0.1,0.5-0.2,1-0.4,1.5C163.2,99.2,163.1,99.2,162.9,99.2L162.9,99.2z
	 M163.6,96.2L163.6,96.2c-0.1,0-0.2-0.2-0.2-0.3c0.1-0.5,0.2-1,0.3-1.5c0-0.1,0.2-0.2,0.3-0.2c0.1,0,0.2,0.1,0.2,0.3c0,0,0,0,0,0
	c-0.1,0.5-0.2,1-0.3,1.5C163.9,96.2,163.8,96.3,163.6,96.2L163.6,96.2z M164.1,93.2L164.1,93.2c-0.1,0-0.2-0.1-0.2-0.3c0,0,0,0,0,0
	c0.1-0.5,0.1-1,0.2-1.5c0-0.1,0.1-0.2,0.3-0.2c0,0,0,0,0,0c0.1,0,0.2,0.1,0.2,0.2c0,0,0,0,0,0c0,0.5-0.1,1-0.2,1.5
	C164.3,93.1,164.2,93.2,164.1,93.2L164.1,93.2z M164.4,90.2L164.4,90.2c-0.1,0-0.2-0.1-0.2-0.3c0,0,0,0,0,0c0-0.5,0.1-1,0.1-1.5
	c0-0.1,0.1-0.2,0.2-0.2s0.2,0.1,0.2,0.2l-0.1,1.5C164.7,90,164.6,90.1,164.4,90.2L164.4,90.2z M164.6,87.1L164.6,87.1
	c-0.1,0-0.2-0.1-0.2-0.3c0-0.5,0.1-1,0.1-1.5c0-0.1,0.1-0.2,0.2-0.2c0,0,0,0,0,0c0.1,0,0.2,0.1,0.2,0.2c0,0.5,0,1-0.1,1.6
	C164.9,87,164.8,87.1,164.6,87.1L164.6,87.1z M164.7,84L164.7,84c-0.1,0-0.2-0.1-0.2-0.2v-0.2c0-0.4,0-0.9,0-1.3
	c0-0.1,0.1-0.3,0.2-0.3c0,0,0,0,0,0c0.1,0,0.3,0.1,0.3,0.2c0,0.4,0,0.9,0,1.3v0.2C164.9,83.9,164.8,84,164.7,84L164.7,84z
	 M164.6,80.9c-0.1,0-0.2-0.1-0.3-0.2c0-0.5,0-1-0.1-1.5c0-0.1,0.1-0.2,0.2-0.2s0.2,0.1,0.2,0.2c0,0.5,0.1,1,0.1,1.6
	C164.9,80.9,164.8,81,164.6,80.9L164.6,80.9z M164.4,77.9c-0.1,0-0.2-0.1-0.2-0.2c0-0.5-0.1-1-0.2-1.5c0-0.1,0-0.3,0.2-0.3
	c0.1,0,0.3,0,0.3,0.2c0,0,0,0,0,0.1c0.1,0.5,0.1,1,0.2,1.5C164.7,77.7,164.6,77.8,164.4,77.9C164.4,77.9,164.4,77.9,164.4,77.9
	L164.4,77.9z M164,74.9c-0.1,0-0.2-0.1-0.2-0.2c-0.1-0.5-0.2-1-0.3-1.5c0-0.2,0-0.3,0.2-0.4c0.2,0,0.3,0,0.4,0.2
	c0.1,0.5,0.2,1,0.3,1.5c0,0.1-0.1,0.3-0.2,0.3c0,0,0,0,0,0L164,74.9z M163.3,71.9c-0.1,0-0.2-0.1-0.2-0.2c-0.1-0.5-0.3-1-0.4-1.5
	c0-0.1,0-0.3,0.2-0.3c0.1,0,0.3,0,0.3,0.1c0,0,0,0,0,0c0.2,0.5,0.3,1,0.4,1.5C163.6,71.7,163.5,71.8,163.3,71.9
	C163.4,71.9,163.4,71.9,163.3,71.9L163.3,71.9z"/>
<path class="st8" d="M153.3,117.3c-0.1,0-0.2,0-0.2-0.1c-0.1-0.1-0.1-0.3,0-0.4c0,0,0.2-0.2,0.5-0.5c0.1-0.1,0.3-0.1,0.4,0
	c0.1,0.1,0.1,0.3,0,0.4l0,0c-0.4,0.3-0.6,0.5-0.6,0.5C153.3,117.3,153.3,117.3,153.3,117.3z"/>
<path class="st9" d="M71.8,149.8c0,0-2.5,21.6-9.1,27.4c1.8-0.8,3.4-1.9,4.8-3.4c0,2.3-0.4,4.6-1.2,6.7c1.8-1.5,2.9-3.5,3.4-5.8
	c0.7,1.6,1.7,3.1,2.8,4.4c-0.9-2-0.9-4.3-0.1-6.3c0,0,1.4,4.6,4.7,5.8c-0.8-2.1-1.2-4.4-1-6.6c0,0,1.2,3.7,4.5,4.3
	c0,0-4.5-6.9-2.9-17.6s1-7.4,1-7.4L71.8,149.8z"/>
<path class="st9" d="M185.8,149.8c0,0,2.5,21.6,9.1,27.4c-1.8-0.8-3.4-1.9-4.8-3.4c0,2.3,0.4,4.6,1.2,6.7c-1.8-1.5-2.9-3.5-3.4-5.8
	c-0.7,1.6-1.7,3.1-2.8,4.4c0.9-2,0.9-4.3,0.1-6.3c0,0-1.4,4.6-4.6,5.8c0.8-2.1,1.2-4.4,1-6.6c0,0-1.2,3.7-4.5,4.3
	c0,0,4.5-6.9,2.9-17.6s-1-7.4-1-7.4L185.8,149.8z"/>
<polygon class="st10" points="153.5,174.6 104.4,174.6 106.4,121.4 151.1,121.4 "/>
<path class="st11" d="M112.3,171.4l-7.9,3.2l2.1-53.2c0,0,4.4,3.5,8,4.8s7.3,2.3,7.3,2.3s-9.5,0.1-9.7,7.4
	c-0.1,5.3-0.6,10.7-1.4,15.9L112.3,171.4z"/>
<path class="st11" d="M145.7,171.4l7.9,3.2l-2.1-53.2c0,0-4.4,3.5-8,4.8s-7.3,2.3-7.3,2.3s9.5,0.1,9.7,7.4
	c0.1,5.3,0.6,10.7,1.4,15.9L145.7,171.4z"/>
<polygon class="st12" points="100.4,228.9 116.2,212.6 103.5,205.6 "/>
<polygon class="st12" points="163.6,228.9 149.5,214 161,211.1 "/>
<path class="st13" d="M151,121.3c6.4,3,12,7.4,16.5,12.9c2.9,4.1,5,8.7,6.3,13.6c-1.2-2.1-2.9-3.9-5-5.2c-3.9-2.1-8.7-1.2-11.6,2
	c0,0-4.1,5.5-2.1,13.9c-2.4-2.3-4.8-4.8-6.9-7.4C148.1,151.2,143.9,132.9,151,121.3z"/>
<path class="st4" d="M174.5,151.2c0.6,5.3,0,12.7-8.1,14.1c0,0-6.8,1.6-11.3-6.8c0,0-3.5-14,7.1-16.8c0,0,3-1,7.1,1.2
	C172.2,144.7,174.2,147.8,174.5,151.2z"/>
<path class="st8" d="M165.5,165.2L165.5,165.2c-0.1,0-0.2-0.1-0.2-0.2c0,0,0,0,0,0c0,0,0.1-0.5,0.1-1.3c0-0.1,0.1-0.2,0.2-0.2
	c0.1,0,0.2,0.1,0.2,0.2c0,0,0,0,0,0c-0.1,0.9-0.1,1.3-0.1,1.4C165.8,165.2,165.7,165.3,165.5,165.2
	C165.5,165.2,165.5,165.2,165.5,165.2z M165.7,162.6L165.7,162.6c-0.1,0-0.2-0.1-0.2-0.2c0,0,0,0,0,0c0-0.4,0-0.9,0-1.3
	c0-0.1,0.1-0.2,0.2-0.2l0,0l0,0c0.1,0,0.2,0.1,0.2,0.2l0,0c0,0.5,0,0.9,0,1.4C166,162.5,165.9,162.6,165.7,162.6L165.7,162.6z
	 M165.7,159.9c-0.1,0-0.2-0.1-0.2-0.2l0,0c0-0.4,0-0.9,0-1.3c0-0.1,0.1-0.2,0.2-0.2c0,0,0,0,0,0c0.1,0,0.2,0.1,0.2,0.2
	c0,0.5,0,0.9,0.1,1.3C166,159.8,165.9,159.9,165.7,159.9C165.8,159.9,165.8,159.9,165.7,159.9L165.7,159.9z M165.6,157.2
	c-0.1,0-0.2-0.1-0.2-0.2c0-0.4-0.1-0.9-0.1-1.3c0-0.1,0.1-0.2,0.2-0.2c0.1,0,0.2,0.1,0.2,0.2c0,0.5,0.1,0.9,0.1,1.4
	C165.9,157.1,165.8,157.2,165.6,157.2C165.6,157.2,165.6,157.2,165.6,157.2L165.6,157.2z M165.4,154.5c-0.1,0-0.2-0.1-0.2-0.2
	c-0.1-0.4-0.1-0.9-0.2-1.3c0-0.1,0.1-0.2,0.2-0.2c0,0,0,0,0,0c0.1,0,0.2,0.1,0.2,0.2c0.1,0.5,0.1,0.9,0.2,1.3
	C165.6,154.4,165.5,154.5,165.4,154.5L165.4,154.5z M165,151.9c-0.1,0-0.2-0.1-0.2-0.2c-0.1-0.4-0.1-0.9-0.2-1.3
	c0-0.1,0.1-0.2,0.2-0.3c0.1,0,0.2,0,0.3,0.2c0,0,0,0,0,0c0.1,0.4,0.2,0.9,0.2,1.3C165.2,151.7,165.1,151.8,165,151.9L165,151.9z
	 M164.5,149.2c-0.1,0-0.2-0.1-0.2-0.2l-0.3-1.3c0-0.1,0-0.2,0.2-0.3c0,0,0,0,0,0c0.1,0,0.2,0.1,0.3,0.2c0.1,0.4,0.2,0.9,0.3,1.3
	C164.7,149.1,164.6,149.2,164.5,149.2C164.5,149.2,164.5,149.2,164.5,149.2L164.5,149.2z M163.8,146.6c-0.1,0-0.2-0.1-0.2-0.2
	c-0.1-0.4-0.2-0.9-0.4-1.3c0-0.1,0-0.2,0.2-0.3c0.1,0,0.2,0,0.3,0.1c0.1,0.4,0.2,0.9,0.4,1.3C164.1,146.4,164,146.6,163.8,146.6
	C163.9,146.6,163.9,146.6,163.8,146.6L163.8,146.6z M163.1,144c-0.1,0-0.2-0.1-0.2-0.1c-0.1-0.4-0.3-0.9-0.4-1.3
	c0-0.1,0-0.2,0.1-0.3c0.1,0,0.2,0,0.3,0.1c0,0,0,0,0,0c0.1,0.4,0.3,0.9,0.4,1.3C163.3,143.8,163.3,144,163.1,144
	C163.1,144,163.1,144,163.1,144L163.1,144z"/>
<path class="st14" d="M168.9,211.8c1.7,0,3.3-0.5,4.9-0.6c2.9-0.2,5.6,1.8,8.7,0.9c2.8-0.8,3.6-3.1,4.4-5.2c1-2.8,6.2-9.2,3.9-11.8
	c-0.6-0.6-2.6-1-3.4-1.6c-1.3-1-2.2-2.4-3.6-3.5s-4.3-2.6-5-4.3c-0.4-1,0.3-2.4,0-3.4c-0.6-1.5-1.5-2.8-2.6-3.9
	c-2.3-2.8-5.3-4.9-8-7.4c-1-1.1-1.9-2.2-2.8-3.4c-2.9-3.5-4.4-3.5-9.7-4.7c-1.8-0.4-3.6-0.6-5.4-0.6c-1.8,0-3.4,0.8-5.7,1.8
	c-3.7,1.7-11.4,4.9-13.4,8c-2.8,4.4-1.8,11.5-1.5,16.9c0.3,4.8,2.3,9.3,5.7,12.6c3.6,3.9,8.1,6.6,13.2,8L168.9,211.8z"/>
<path class="st14" d="M91.1,172.4c-7.1,4.3-13.8,6.6-18.3,15.1c-1.9,3.6-11,12.1-10,18.5c1.1,7.2,12.7,12.1,20.4,8.6
	c6.8-3.1,13.8-22.6,20.8-25.2c3.7-1.4,7.1-1.4,10.2-4c1.6-1.4,3.1-2.9,4.5-4.5c1-1,1.6-2.3,1.7-3.8c0.5-3.7-1.7-4.1-4-6.4
	c-2.7-2.6-7.3-9.3-12.1-7.8c-2.1,0.7-4.2,3.2-6.2,4.3C95.9,168.6,93.4,171.1,91.1,172.4z"/>
<path class="st15" d="M162.7,166c1,0.3,1.8,1.2,2,2.2c0.3,2.1-0.8,4.6-0.7,7c-0.5-2.8-1.2-5.2-2.5-7s-3.7-2.8-4.9-4.2L162.7,166z"/>
<path class="st16" d="M164.1,175.1c2.8,1,5.1,0.9,6.6,2.5c1.9,1.9,2.7,4.7,4.4,8.6c-0.2-0.5-2.3-0.1-3.2-0.4l-0.6-0.9
	c-1.2-3-0.1-4.3-1.3-6.1S165.2,176.6,164.1,175.1z"/>
<path class="st17" d="M171.9,185.7c1.6,0.3,6.8,0.1,8.6,2c2.6,2.7,1.5,7.8,2.5,12.1c0.4,1.6,1.6,2.6,1.5,2.9l-0.8,1
	c-1-0.7-1.7-1.7-1.9-2.9c-0.7-2.6-0.7-6.8-1.6-8.5C178.4,189.2,176.3,187.2,171.9,185.7z"/>
<path class="st18" d="M149.3,188.1l-0.2-2.1l1.2-0.8c7.1-1.1,14.4-0.9,21.5,0.6c3.7,1.1,7.5,4.1,8.4,6.5s0.5,5,0.9,8.1
	c0.1,1.6,0.6,3.2,1.6,4.6l-0.4,0.4c0,0-1.2-0.2-1.9-4s-1.1-7.3-1.1-7.3c-0.3-2.3-1.8-3.9-4.3-5.1c-3.1-1.4-6.4-2.3-9.7-2.6
	c-2.2-0.1-4.4,0-6.6,0.3C155.8,187,154.5,188.6,149.3,188.1z"/>
<path class="st19" d="M179.3,194c0,0,0.7,5.9,1.3,8.3s1.7,3.1,1.7,3.1l-1.2,1.2c-2.4-1.2-3-11.7-3.1-12.2c-1.1-4.6-10-7-18.8-5.5
	c-3.8,0.6-8.3,1.6-11.2,1.5l-0.1-2l1.4-0.3c4.4,0.9,7.7-1.8,11.4-1.6c10-0.8,17.6,2.9,18.5,6.8C179.3,193.5,179.3,193.7,179.3,194z"
	/>
<path class="st20" d="M145.2,163.4c4.7-0.8,7.5,0.6,10,3.3c1.9,3,5.1,2.7,5.6,9.1c0,2.3-2.3,6,1.9,8.9c1.3,0.1,4.1,0.5,6.8,0.8
	c0,0-2.9-1-3.8-2.3c-0.7-1.1,0.2-3.9-1.7-7.9c-0.3-1.9-0.9-3.9-1.6-5.7c-0.8-1.6-2.1-3-3.6-4c-0.7-0.5-1.4-1.1-2.2-1.5
	c-2-0.8-4.1-1.4-6.3-1.8C148.8,161.9,145.2,163.4,145.2,163.4z"/>
<path class="st21" d="M145,163.4l-0.7,0.3c5,0.1,8.4,2.6,6.6,9.2c-0.7,2.4,1.2,7.6-0.6,12.3l8.1-0.7c-2-1.6-1.5-2.2-2.2-4.1
	c0-4.6-0.3-12.8-0.3-12.8C153.5,164.6,150.8,162.5,145,163.4z"/>
<path class="st17" d="M156,167.6c-0.7-0.9-1.4-1.7-2.3-2.4c1.1,1.2,2.1,3,2.4,6.3c0.2,2.8-0.1,7-0.1,8.7c0.5,1.8,0.5,3.2,2.5,4.3
	l4.3,0.1c-4.7-3.5-1.4-7-1.9-10C160.1,169.9,157.6,169.3,156,167.6z"/>
<path class="st18" d="M144.3,163.7l-1.7,1.1c5.4,0.8,7.7,3.9,8.3,8.3C152.3,167.5,150.6,163.7,144.3,163.7z"/>
<path class="st22" d="M142.6,164.8l-2.2,0.8c8.5,1.9,9.9,10.2,10,19.6c1.6-4.4,0-8.5,0.5-12.1C150.1,167.7,147,165.3,142.6,164.8z"
	/>
<path class="st14" d="M147.2,170.1c-0.8,6.1-0.5,12.3,0.8,18.3l1.4-0.3c-0.1-0.6,0-1.1,0.2-1.7c0.2-0.5,0.5-0.9,0.8-1.2
	C150.4,178.9,149.6,173.7,147.2,170.1z"/>
<path class="st14" d="M140.4,165.6l-1.7,0.4c2.2,4.9,4.4,6.9,4.6,13.9c0.2,2.1,0.8,4.1,1.7,5.9c1.1,2.3,1.4,4.9,3.6,8l-0.2-3.7
	c-1.6-9.4-1.8-15.2-1.1-20.1C145.6,167.7,143.1,166.1,140.4,165.6z"/>
<path class="st23" d="M138.6,166c0.7,2.8-0.2,5.8-0.6,9.6c-0.5,5.1-0.7,10.7-0.2,12.6c0.7,2.9,0.9,4.7,2.1,6.9
	c3.6,3.6-0.1,7.9,1.1,12l3,0.6c-0.8-8.3,1-16.8-0.7-26.1c0-1.1,0-2.3-0.2-3.4C143.2,172.6,140.6,170.7,138.6,166z"/>
<path class="st23" d="M148,190.4c4.1,0.4,13.6-3,20.6-1.7c4.7,0.9,8.5,2.4,9.3,5.4c0.1,0.5,4,17.4,3.9,18c-2.4,0.4-4.3-0.6-7.1-1
	c-1.9-0.2-4.5,0.9-6.4,0.5c1.6-1.7,1.6-1.4,2.4-2.8c0.7-2.4,0.1-4.3-2.9-4.8c-2.1-0.3-5.1,0.9-8.2,1.1c-3.7,0.3-2.2-1.8-11.9,1.4
	C150.3,203.8,148.7,195.8,148,190.4z"/>
<path class="st24" d="M144.9,185.7c0.6,4.6,0.5,8.1,1,12.2c0.4,3.1,1.6,2.6,1.2,9.1l0.9-0.4c2.2-3.1,0.8-8.8,0.6-12.6
	C146.8,191.6,146.1,188.4,144.9,185.7z"/>
<path class="st25" d="M143.3,181.4l1.6,4.4c0.4,4.7,0.4,8.1,0.9,12c0.4,3.2,1.7,3.7,1.2,9.1l-3,0.7
	C143.3,199.5,144.8,190.3,143.3,181.4z"/>
<path class="st26" d="M138.6,166l-6,0.6c4.1,2.9,0.2,10.3,1.1,19.4c-0.1,5.1,2.2,6.8,6.2,9.2c-1.2-2.1-1.9-4.5-2.1-6.9
	C136.5,177.6,140,169.7,138.6,166z"/>
<path class="st27" d="M132.6,166.6l-5.4-0.1c2.7,3.3,1.8,5.7,1.9,8.8c0.1,3.5-0.1,15.5,1.9,17.1c2.5,1.9,6.4,4,6.7,7.2
	c0.2,2.5,0.2,3.2,0.7,6.4l2.6,1.2c-1-3.6,2.3-8.9-1.1-12c-3.3-1.8-5.5-3.7-6.2-7.2c-0.2-3.3-0.2-6.7,0.1-10
	C134.5,172.8,135.6,168.9,132.6,166.6z"/>
<path class="st28" d="M127.2,166.5c1.2,1.2,1.9,2.9,1.9,4.6c0.1,1.4,0,3,0,4.9c0.1,4,0.8,15.1,1.5,15.9c1.4,1.3,2.9,2.5,4.5,3.6
	c4,2.6,2.2,7,3.3,10.5l-10.3-5.9c1-6.8,0.2-15.1-0.1-22.9C127.9,173.6,129.2,171.1,127.2,166.5z"/>
<path class="st17" d="M127.2,166.5l-5.8-0.5c1.5,1,2.3,2.7,2.2,4.5c-0.4,2.8-0.3,6.6-1.2,10.5c-0.7,2.9-1.9,6.1-2.7,9.1
	c-0.4,1.6-1.4,3-1.8,4.3c3.6,1.6,7,3.6,10.3,5.8c0.9-6.7,0.5-13.5,0-20.3C127.8,175.3,129.2,171.1,127.2,166.5z"/>
<path class="st25" d="M121.4,165.9l-3.2-0.4c2.2,1.7,1.8,4.9,1.7,8.2c-0.1,5.9-1.5,13.5-4.7,19.4l2.6,1.2c1-1.4,2.8-7.5,4.6-13.3
	c0.4-2,0.7-4,0.8-6.1c0.3-1.7,0.4-3.5,0.4-5.2C123.7,168.1,122.8,166.7,121.4,165.9z"/>
<path class="st24" d="M118.2,165.5l-3.2-0.6c3.9,2.6,1.3,4.7,1.3,7.2s0.4,4.9-0.3,7.5c-1,4-3,10.5-4.9,12.1l4,1.4
	c2.4-5.1,4-10.6,4.6-16.2C120.5,171.1,120.1,166.6,118.2,165.5z"/>
<path class="st23" d="M124.9,198c-4.4-2.6-8.9-4.7-13.7-6.4c3.2-4.3,6.2-13.3,5.1-19.6c-0.3-2.1,2.7-4.6-1.3-7.2
	c-2.6-0.6-5-1.8-7.9-1.9c0.6,2-1.2,3.5-1.4,5.1c-0.3,3.8,0.7,7.2,0.2,10.7c-5.1,0.2-8-1.6-15.2,0.5c-2.5,3.5-0.7,6.6,1.6,9.2
	c3.5,2,5,4.6,4.2,6.1c-2.6,6.7-1.3,12-2,17.9c-0.2,1.9-1.9,4.3-1.9,6.1c0.9,0,1.8,0,2.7,0h0.5c0.6-0.1,1.2-0.3,1.8-0.4l0.3-0.2
	c0.5-0.3,2.3-4.1,3.2-4.3c5.7-1.7,9.9,2.4,15,4.1c4.1,1.7,5.5,1.8,8.2,1.6C123.5,209.2,124.7,205.2,124.9,198z"/>
<path class="st25" d="M107.1,162.9c0.4,2.1-1.1,3.2-1.4,5.9c-0.3,2.9,0.8,6.3,0.2,9.9l-3.3-0.1c1.8-5.2,1.3-12.4,4-15.6L107.1,162.9
	z"/>
<path class="st29" d="M106.7,163c-1.1-0.1-2.2,0.1-3.2,0.6c-2.1,0.9-4.5,5-4.5,5c0.3,3.4,0.2,6.7-1.3,9.5l5,0.4
	C104.3,173.3,104,166,106.7,163z"/>
<path class="st16" d="M98.9,168.7c-0.8,3.4-1.6,7.9-7,10.2c1.9-0.4,3.8-0.7,5.7-0.7C99.1,175.5,99.3,171.9,98.9,168.7z"/>
<path class="st14" d="M111.2,191.6c-5.2-2.3-20.9-4.5-17.3-10.5C96,186.2,105.4,188.1,111.2,191.6z"/>
<path class="st14" d="M108.9,169.9c3.9,3.3,4.9,6.1,4.8,8.3c-0.2,3.3-2.7,7.4-7.3,6.9c-1.9-0.2-3.6-1.4-4.3-4.4
	C111.1,187.1,112.2,176.6,108.9,169.9z"/>
<path class="st14" d="M90.8,186.4l19.5,9.7c2.1,1.1-0.5,3.4-3.4,1.4c-3.1-2.5-6.7-4.4-10.5-5.4C94.8,189.3,91.9,188.9,90.8,186.4z"
	/>
<path class="st14" d="M118.9,202.6c-3.3,3.7-7,4.8-11.6,2.2c-2.2-1.2-2.1-2.3-3.5-4.1c-1.8-2.4-4.6-3.6-8.2-3.9c2.1,4,4.3,5,6.4,7.6
	c2.5,3.2-0.8,2.6-0.4,3.7c1.1,2,5.8,2.8,8.2,2.8C114.7,210.9,120.3,207.3,118.9,202.6z"/>
<path class="st30" d="M92.6,192.6c0.3,0.8,0.6,1.6,0.7,2.4c0,1.1-0.1,2.1-0.4,3.1c-0.3,1.8-0.3,3.7-0.1,5.5c0.3,2.8,0.9,5.7,0.4,7.9
	c-0.3,1.6-2,4.7-2,6.9h0.1c0.4,0,0.8,0.1,1.2,0.1c0.1-1.3,0.6-2.6,1.2-3.8c1.4-2.3,0.7-8.1,1-12.2c0.1-2.2,0.5-4.4,1.1-6.5
	c0.6-2.3,1.8-2.8-1.3-6.1c-3.1-1.8-7.1-6.5-3.9-10.9l-1.9,0.3c-1.9,2.2-2.4,4.5-1.5,6.4C88.5,188.4,91.4,189.8,92.6,192.6z"/>
<path class="st31" d="M90.2,195.2c0.4,1.6,0.5,3.3,0.8,5c0.5,2.9,0.7,6.4,1.1,9.3c0.5,2.7-2.1,6-2.4,8.8l0.9,0.2l0.6,0.1
	c0-2.1,1.6-5.1,2-6.9c0.7-4.4-1.6-10,0-14.9c0.6-3.8-1.9-6.3-5.2-9.5c-2-3-1.3-5.5,0.8-7.6l-1.1,0.8c-2.3,1.6-3.5,2.6-3,5.4
	C85.7,189,89.4,191.6,90.2,195.2z"/>
<path class="st29" d="M86.2,199.8c1,3.8,2.8,8,3,11.9c0.2,3.4-1.3,4.4-1.7,6.1l0.6,0.1l1.6,0.3c0.3-2.5,2.2-4.9,2.4-7.4
	c0-1.8-0.1-3.6-0.4-5.4l-0.9-7c-0.4-2.9-0.9-5.3-3.2-8c-2.8-3.1-4-6.1-2-8.7c-3.8,1.4-5.8,3.8-3.3,8.3
	C84,193.2,85.4,196.4,86.2,199.8z"/>
<path class="st32" d="M88,179.6c-0.9,0.6-1.7,1.4-2.4,2.2c-2.6,1-6.5,2.7-8.5,5.3l-0.3-3.3c1.6-1.8,5-2.7,7.3-4.4
	C85.4,179.7,86.7,179.8,88,179.6z"/>
<path class="st33" d="M85.4,216.8c0,0.2-0.1,0.3-0.1,0.5l2.2,0.5c0.5-2,2.3-3.7,1.5-7.5c-0.3-2.7-1.4-5.6-2.5-9.4
	c-1-3.1-1.6-6.3-3.1-8.8c-3-4.7-3-7.5,0.1-9.4c-2.4,0.9-4.7,2.4-6.4,4.3c1.7,9.2,4.9,16,7.7,23C85.6,212.1,85.8,214.5,85.4,216.8z"
	/>
<path class="st27" d="M78.5,203c1.8,3.8,3.4,7.6,3.4,11c0,0.8,0.1,1.6,0.3,2.4c1,0.3,2,0.6,3.1,0.8c0.2-1.8,1-3.4-0.5-7.3
	c-2.4-6.9-5.7-13.7-7.7-22.9c-2.3,5.4-1.9,7.1-0.8,10.2C76.7,198.6,77.6,200.8,78.5,203z"/>
<path class="st20" d="M82.2,216.4c-0.2-1.1-0.3-2.2-0.3-3.3c-0.5-4.1-2-6.9-3.4-10.2c-1.1-2.5-2-5-2.8-7.5c-0.4,2.7-0.4,5.3-0.1,8
	c0.3,1.8,0.8,3.5,1.5,5.2c1.3,2.5,1.5,4.6,2.1,7L82.2,216.4z"/>
<path class="st34" d="M77.6,215.1l1.7,0.5c-0.5-3-1.4-5.9-2.7-8.6l-0.2,4.2c-0.2,0.9-0.1,1.9,0.3,2.7
	C76.8,214.4,77.2,214.9,77.6,215.1z"/>
<path class="st22" d="M171,208.8l-2,2.5c1.3-4.4-1.3-7.3-6.3-6.6c2.9-0.6,5.1-1.1,6.9-0.3C171,205.2,171.7,206.6,171,208.8z"/>
<path class="st25" d="M162.6,204.8l-2.8,0.4c1.7,0.9,5.2,0.5,6.4,2.4c0.9,1.4,0.8,3.4-0.6,6l3.2-2.2
	C170.1,206.9,167.6,204.1,162.6,204.8z"/>
<path class="st35" d="M159.8,205.2c-0.8,0-1.6,0-2.4-0.2c5.6,1.5,8.3,4.3,4.5,10.2l3.7-1.7c1.7-2.8,1.4-4.8,0.6-6
	C164.9,205.6,160.9,205.8,159.8,205.2z"/>
<path class="st33" d="M157.4,205c-2.8-0.8-8.2,1-10.4,2c3.3,0.3,9.6-2.3,11.9,0.7c1.5,2,1.4,5.1-1.1,9.5l4.1-2
	C165.4,210.1,163.9,206.7,157.4,205z"/>
<path class="st36" d="M147.1,207l-3,0.7c3.1,1.5,6.4,2.5,9.9,2.9c1.5,0.2,2.4,0.9,2.6,1.6c0.6,2.1-3.7,4-5.2,5l6.6,0.1
	c3-5.2,2.7-9.6-0.7-10.7C154.5,205.6,150,207.1,147.1,207z"/>
<path class="st20" d="M144.1,207.7c3.1,1.6,6.4,2.6,9.9,2.9c2.5,0.5,3.3,1.6,1.8,3.6c-1.4,1.2-2.9,2.2-4.5,3c-2.8,0.4-5.6,1.4-8,2.9
	C142.9,215.7,146.3,213,144.1,207.7z"/>
<path class="st17" d="M144.1,207.7c-4.6-0.4-8.3-3.3-11.8-5.3c2.1,6.9-0.9,9.3-0.1,18.4c3.8-0.3,6.4,0.2,11.1-0.9
	C142.9,216.5,146.2,212.6,144.1,207.7z"/>
<path class="st25" d="M132.3,202.4l-3.6-2.1c1.7,7.8-0.5,12,0.3,20.1l3.2,0.4C131.2,214.3,134.4,208.2,132.3,202.4z"/>
<path class="st24" d="M128.6,200.4l-3.7-2.4c-0.2,7.1-1.4,13.4-0.6,21.4l4.6,1C128.1,214,130.4,207.2,128.6,200.4z"/>
<path class="st37" d="M164.1,175.1c2.3,6,0.8,6.8,1.8,8.2s4.4,2.5,6.2,2.5c-1.3-1.4-0.8-5.5-2.1-7.1
	C168.4,176.7,164.9,176.2,164.1,175.1z"/>
<path class="st20" d="M180.3,192.4c0.3,1.2,0.5,2.5,0.6,3.7c0.1,1.8,0,6.6,1.9,8.8l1.1-1.3c0,0-0.6-0.1-1.5-2.6
	S181.1,193,180.3,192.4z"/>
<path class="st16" d="M182.2,191.8c0,0,2.1,7.4,4.4,7.6c-0.3,0.6-0.7,1.2-1.1,1.8C185.5,201.2,182.6,199.3,182.2,191.8z"/>
<path class="st37" d="M184.6,202.7l0.9-1.5c0,0-2.3-1.8-3-7c0,2.1,0.3,4.2,0.8,6.2C184,202.4,184.6,202.7,184.6,202.7z"/>
<path class="st31" d="M152.3,116.1c-1.1-0.6-2.5-0.5-3.5,0.2c-0.7,0.6-1.3,1.4-1.5,2.4c-1.2-1.3-3.3-0.8-3.8-0.6
	c-1,0.5-1.7,1.3-2.1,2.3l0,0c-0.9-1-2.3-1.4-3.6-1.2c-1.1,0.2-2.1,1-2.6,2c-0.8-1.1-2.1-1.7-3.5-1.7c-1.2,0.1-2.3,0.8-2.9,1.9h-0.1
	c-0.6-1.2-1.8-1.9-3.2-1.9c-1.3-0.1-2.5,0.5-3.3,1.6l0,0c-0.4-1.2-1.4-2-2.6-2c-1.2-0.3-2.6,0.1-3.4,1.1l0,0
	c-0.3-1.3-1.3-2.2-2.5-2.4c-1.1-0.2-2.2,0-3,0.8c-0.1-1.2-0.9-2.2-2-2.6c-0.9-0.3-1.9-0.3-2.9,0c0.4,0.4,0.8,0.9,1.2,1.4
	c0.2,0.5,0.2,1,0.3,1.6c-0.1,0.8-0.2,1.5-0.4,2.3c5.1,7.5,20,7.7,22.2,7.7s17.1-0.2,22.2-7.7c-0.2-0.6-0.3-1.2-0.4-1.8
	C150.7,118.2,151.2,116.9,152.3,116.1z"/>
<path class="st18" d="M63,203.5c1.1,2.5,2.9,4.6,5.1,6.2c2.1,1.4,5.6,1.9,8,2.6c0,0,1.5-1.4,8.1-0.3s16-1.8,20.6-1.2
	s11.7,5.7,16.8,6.6s18,3.4,30.1-1.9c7.7-3.3,15.9-5.4,24.3-6.1c0,0,5.8-0.7,11.3-11.5c0,0,0.7-1.8,1.2-3.7c0,0,10.6,2.9,13.2,3.1
	c0,0,0.6,8.1-4.1,10.1s-7.2,0-9.9,3.1s-8.7,1.3-8.7,1.3s-14.9,1.3-19.6,4s-1.5,10.4-6.7,13.1s-12.8-1.9-17-1.2s-17.6,4.6-24-0.6
	s-3.2-10.4-6.3-13.1s-13.3-0.6-21.2,3.3s-10.6,7.7-20.5,6.4s-14.1-11-14.1-11L63,203.5z"/>
<path class="st38" d="M128.7,124.1c0,0-0.1,0-0.1,0c-0.1-0.1-0.1-0.2,0-0.3l0,0c0.1-0.1,0.2-0.1,0.3,0c0.1,0.1,0.1,0.1,0,0.2l0,0
	C128.8,124.1,128.8,124.1,128.7,124.1z M135.1,123.7c-0.1,0-0.1,0-0.1-0.1l0,0c-0.1-0.1-0.1-0.2,0-0.3c0.1-0.1,0.2-0.1,0.3,0
	c0,0,0,0,0,0l0,0c0.1,0.1,0.1,0.2,0,0.3C135.1,123.7,135.1,123.7,135.1,123.7z M128.2,123.7c-0.1,0-0.1,0-0.1-0.1l0,0
	c-0.1-0.1-0.1-0.2,0-0.3c0.1-0.1,0.2-0.1,0.3,0l0,0C128.4,123.4,128.4,123.6,128.2,123.7C128.2,123.7,128.2,123.7,128.2,123.7
	L128.2,123.7z M129.2,123.5c0,0-0.1,0-0.1,0c-0.1-0.1-0.1-0.2,0-0.3l0,0c0.1-0.1,0.2,0,0.3,0c0.1,0.1,0.1,0.2,0,0.2l0,0
	C129.3,123.5,129.3,123.5,129.2,123.5L129.2,123.5z M135.4,123.5C135.4,123.5,135.4,123.5,135.4,123.5c-0.2,0-0.2-0.2-0.2-0.3
	c0,0,0,0,0,0l0,0c0-0.1,0.2-0.1,0.2-0.1c0,0,0,0,0,0c0.1,0.1,0.1,0.2,0.1,0.3l0,0C135.6,123.5,135.5,123.5,135.4,123.5L135.4,123.5z
	 M121.7,123.5c-0.1,0-0.1,0-0.2-0.1l0.2-0.1l-0.2,0.1l0.1-0.1l0.2-0.1l-0.1,0.1l0.2-0.1c0.1,0.1,0.1,0.2,0,0.3c0,0,0,0,0,0
	C121.8,123.4,121.8,123.4,121.7,123.5L121.7,123.5z M122.2,123.4c-0.1,0-0.1,0-0.1-0.1c-0.1-0.1-0.1-0.2,0-0.3c0,0,0,0,0,0l0,0
	c0.1-0.1,0.2-0.1,0.3,0c0,0,0,0,0,0c0.1,0.1,0.1,0.2,0,0.3l0,0C122.3,123.3,122.3,123.3,122.2,123.4L122.2,123.4z M134.4,123.2
	c0,0-0.1,0-0.1,0l0.1-0.2l-0.1,0.1l0.1-0.2l0.1-0.2l0,0c0.1,0.1,0.1,0.2,0,0.3C134.5,123.2,134.5,123.2,134.4,123.2L134.4,123.2z
	 M127.6,123.1c0,0-0.1,0-0.1,0l0,0c-0.1-0.1-0.1-0.2-0.1-0.3c0.1-0.1,0.2-0.1,0.3-0.1c0,0,0,0,0,0l0,0c0.1,0.1,0.1,0.2,0,0.3
	C127.7,123.1,127.7,123.1,127.6,123.1L127.6,123.1z M129.8,123c-0.1,0-0.1,0-0.1-0.1c-0.1-0.1-0.1-0.2,0-0.3c0,0,0,0,0,0l0,0
	c0.1-0.1,0.2,0,0.3,0C130,122.8,130,122.9,129.8,123L129.8,123L129.8,123C129.9,123,129.9,123,129.8,123L129.8,123z M122.9,122.9
	c-0.1,0-0.1,0-0.2-0.1c0-0.1,0-0.2,0.1-0.3l0,0c0.1-0.1,0.2,0,0.3,0.1c0.1,0.1,0,0.2-0.1,0.3C123,122.8,123,122.8,122.9,122.9
	L122.9,122.9C123,122.8,122.9,122.8,122.9,122.9L122.9,122.9z M141.7,122.9L141.7,122.9c-0.1,0-0.2-0.1-0.1-0.2l0,0
	c0-0.1,0.2-0.2,0.3-0.1c0.1,0,0.2,0.2,0.1,0.3l0,0C141.9,122.8,141.8,122.8,141.7,122.9L141.7,122.9z M135.9,122.9c0,0-0.1,0-0.1,0
	c-0.1-0.1-0.1-0.2,0-0.3c0,0,0,0,0,0l0,0c0.1-0.1,0.2-0.1,0.3,0c0,0,0,0,0,0c0.1,0.1,0.1,0.2,0.1,0.3l0,0
	C136,122.9,135.9,122.8,135.9,122.9L135.9,122.9z M121.3,122.8c-0.1,0-0.1,0-0.2-0.1l0,0c-0.1-0.1-0.1-0.2,0-0.3c0,0,0,0,0,0
	c0.1-0.1,0.2-0.1,0.3,0l0,0c0.1,0.1,0.1,0.2,0,0.3c0,0,0,0,0,0C121.3,122.7,121.3,122.7,121.3,122.8L121.3,122.8z M133.8,122.8
	c0,0-0.1,0-0.1,0l0,0c-0.1-0.1-0.1-0.2-0.1-0.3c0-0.1,0.2-0.1,0.3-0.1c0,0,0,0,0,0l0,0c0.1,0.1,0.1,0.2,0.1,0.3c0,0-0.1,0-0.1-0.1
	L133.8,122.8z M127,122.6L127,122.6L127,122.6c-0.2-0.1-0.2-0.2-0.2-0.3c0.1-0.1,0.2-0.1,0.3-0.1l0,0c0.1,0,0.1,0.2,0.1,0.3
	C127.1,122.6,127.1,122.6,127,122.6L127,122.6z M130.6,122.5c-0.1,0-0.1,0-0.2-0.1c0-0.1,0-0.2,0.1-0.3l0,0c0.1,0,0.2,0,0.3,0.1
	C130.8,122.3,130.8,122.4,130.6,122.5L130.6,122.5L130.6,122.5z M123.7,122.5c-0.1,0-0.2-0.1-0.2-0.2c0-0.1,0.1-0.2,0.1-0.2l0,0
	c0.1,0,0.2,0,0.2,0.2C123.9,122.4,123.9,122.5,123.7,122.5L123.7,122.5L123.7,122.5z M141.2,122.4c0,0-0.1,0-0.1,0l0,0
	c-0.1-0.1-0.1-0.2-0.1-0.3c0,0,0,0,0,0c0.1-0.1,0.2-0.1,0.3,0c0,0,0,0,0,0l0,0c0.1,0.1,0.1,0.2,0,0.3
	C141.3,122.5,141.2,122.5,141.2,122.4L141.2,122.4z M133.1,122.4L133.1,122.4c-0.2,0-0.3-0.1-0.2-0.2c0-0.1,0.1-0.1,0.2-0.1h0.1
	c0.1,0,0.2,0.1,0.1,0.2C133.1,122.3,133.1,122.3,133.1,122.4L133.1,122.4z M126.2,122.4L126.2,122.4c-0.2,0-0.2-0.1-0.2-0.2
	c0-0.1,0.1-0.2,0.2-0.2l0,0c0.1,0,0.2,0.1,0.2,0.2C126.4,122.3,126.3,122.4,126.2,122.4z M124.5,122.4c-0.1,0-0.2-0.1-0.2-0.2
	c0-0.1,0.1-0.2,0.2-0.2l0,0l0,0c0.1,0,0.2,0.1,0.2,0.2c0,0,0,0,0,0C124.8,122.3,124.7,122.4,124.5,122.4L124.5,122.4L124.5,122.4z
	 M115.8,122.4c-0.1,0-0.2-0.1-0.2-0.1l0,0c0-0.1,0-0.2,0.1-0.2c0.1,0,0.2,0,0.2,0.1l0,0c0,0,0-0.1,0-0.1l0,0c0.1-0.1,0.2-0.1,0.3,0
	c0,0,0,0,0,0c0.1,0.1,0.1,0.2,0,0.3l0,0c-0.1,0.1-0.2,0.1-0.3,0c0,0,0,0,0-0.1C116,122.3,115.9,122.4,115.8,122.4L115.8,122.4z
	 M131.4,122.4c-0.1,0-0.2-0.1-0.2-0.2c0-0.1,0-0.2,0.1-0.2l0,0c0.1,0,0.2,0.1,0.2,0.2C131.6,122.3,131.5,122.4,131.4,122.4
	L131.4,122.4L131.4,122.4z M125.4,122.4c-0.1,0-0.2-0.1-0.2-0.2c0-0.1,0.1-0.2,0.2-0.2l0,0c0.1,0,0.2,0.1,0.2,0.2
	C125.6,122.3,125.5,122.4,125.4,122.4z M132.3,122.4L132.3,122.4l-0.1-0.4l0,0c0.1,0,0.2,0.1,0.2,0.2
	C132.4,122.3,132.3,122.4,132.3,122.4L132.3,122.4z M136.5,122.4c-0.1,0-0.1,0-0.1-0.1c-0.1-0.1-0.1-0.2,0-0.3l0,0
	c0.1-0.1,0.2-0.1,0.3,0c0,0,0,0,0,0c0.1,0.1,0.1,0.2,0,0.3c0,0,0,0,0,0l0,0c-0.1,0-0.2-0.1-0.2-0.1L136.5,122.4z M120.8,122.3
	c0,0-0.1,0-0.1,0l0,0c-0.1-0.1-0.1-0.2,0-0.3c0.1-0.1,0.2-0.1,0.3,0c0,0,0,0,0,0l0,0c0.1,0.1,0.1,0.2,0,0.3c0,0,0,0,0,0
	c-0.1,0-0.2,0-0.2-0.1c0,0,0-0.1,0-0.1L120.8,122.3z M142.1,122.3c-0.1,0-0.2-0.1-0.2-0.2c0,0,0,0,0-0.1l0,0
	c0.1-0.1,0.2-0.1,0.3-0.1c0.1,0,0.1,0.2,0.1,0.3c0,0,0,0,0,0l0,0c-0.1,0.1-0.2,0-0.3-0.1c0,0,0,0,0-0.1L142.1,122.3z M140.5,122.2
	L140.5,122.2L140.5,122.2c-0.2,0-0.2-0.2-0.2-0.3c0,0,0,0,0,0c0-0.1,0.2-0.1,0.3-0.1c0,0,0,0,0,0l0,0c0.1,0,0.1,0.2,0.1,0.3
	c-0.1,0-0.2,0-0.2-0.2L140.5,122.2z M116.9,122c-0.1,0-0.1,0-0.2-0.1c-0.1-0.1,0-0.2,0.1-0.2c0,0,0,0,0,0l0,0c0.1,0,0.2,0,0.3,0.1
	C117.1,121.8,117.1,121.9,116.9,122L116.9,122L116.9,122z M137.3,122l-0.2-0.4l0,0c0.1,0,0.2,0,0.3,0.1
	C137.4,121.8,137.4,121.9,137.3,122l-0.1-0.2L137.3,122z M139.7,122L139.7,122c-0.2,0-0.2-0.2-0.2-0.3c0-0.1,0.1-0.1,0.2-0.1l0,0
	c0.1,0,0.2,0.1,0.1,0.2c0,0,0,0,0,0c-0.1,0-0.2,0-0.2-0.1c0,0,0,0,0,0L139.7,122z M120.1,122H120l0,0c-0.1,0-0.2-0.1-0.1-0.2
	c0-0.1,0.1-0.2,0.2-0.1c0,0,0,0,0.1,0l0,0c0.1,0,0.2,0.1,0.1,0.2C120.3,121.9,120.2,122,120.1,122L120.1,122z M115.5,121.8
	c-0.1,0-0.1,0-0.2-0.1l0,0c-0.1-0.1,0-0.2,0.1-0.3c0,0,0,0,0,0c0.1,0,0.2,0,0.3,0.1l0,0C115.7,121.6,115.7,121.8,115.5,121.8
	L115.5,121.8z M138,121.8c-0.1,0-0.2-0.1-0.2-0.2c0-0.1,0.1-0.2,0.2-0.2h0c0.1,0,0.2,0.1,0.2,0.2C138.2,121.7,138.2,121.8,138,121.8
	L138,121.8L138,121.8z M138.9,121.8L138.9,121.8v-0.2V121.8l-0.1-0.4l0,0c0.1,0,0.2,0.1,0.2,0.2c-0.1,0-0.2-0.1-0.2-0.2L138.9,121.8
	z M119.3,121.8L119.3,121.8c-0.2,0-0.2-0.1-0.2-0.2c0-0.1,0.1-0.2,0.2-0.2l0,0c0.1,0,0.2,0.1,0.2,0.2c-0.1,0-0.2,0-0.2-0.2
	c0,0,0,0,0,0L119.3,121.8z M117.7,121.8l-0.1-0.2v-0.2l0,0c0.1,0,0.2,0,0.2,0.2C117.9,121.6,117.8,121.7,117.7,121.8l0-0.2
	L117.7,121.8z M142.6,121.7c0,0-0.1,0-0.1,0c-0.1-0.1-0.1-0.2,0-0.3c0,0,0,0,0,0l0,0c0.1-0.1,0.2-0.1,0.3,0c0.1,0.1,0.1,0.2,0,0.3
	l0,0C142.7,121.7,142.5,121.7,142.6,121.7c-0.2-0.2-0.1-0.3-0.1-0.3L142.6,121.7z M118.6,121.7L118.6,121.7c-0.1,0-0.2-0.1-0.2-0.2
	c0-0.1,0.1-0.2,0.2-0.2l0,0c0.1,0,0.2,0.1,0.2,0.2C118.8,121.6,118.7,121.7,118.6,121.7z M110.6,121.3c0,0-0.1,0-0.1,0
	c-0.1-0.1-0.1-0.2,0-0.3l0,0c0.1-0.1,0.2-0.1,0.3-0.1c0.1,0.1,0.1,0.2,0.1,0.3c0,0,0,0,0,0l0,0c-0.1,0.1-0.2,0.1-0.3,0
	s-0.1-0.2,0-0.3l0,0L110.6,121.3z M115.1,121.2c0,0-0.1,0-0.1,0l0.1-0.1l-0.2,0.1l0.1-0.2l0.1-0.1l0,0c0.1,0.1,0.1,0.2,0,0.3
	c0,0,0,0,0,0c-0.1,0.1-0.2,0.1-0.3,0s-0.1-0.2,0-0.3l0,0L115.1,121.2z M143.2,121.1c-0.1,0-0.1,0-0.1-0.1c-0.1-0.1-0.1-0.2,0-0.3
	c0,0,0,0,0,0l0,0c0.1-0.1,0.2-0.1,0.3,0c0,0,0,0,0,0c0.1,0.1,0.1,0.2,0,0.3c0,0,0,0,0,0l0,0c-0.1,0.1-0.3,0-0.3-0.1c0,0,0-0.1,0-0.1
	L143.2,121.1z M147.9,121c0,0-0.1,0-0.1,0l0,0c-0.1-0.1-0.1-0.2,0-0.3c0.1-0.1,0.2-0.1,0.3,0l0,0c0.1,0.1,0.1,0.2,0,0.3c0,0,0,0,0,0
	c-0.1,0.1-0.2,0.1-0.3,0s-0.1-0.2,0-0.3L147.9,121z M111,120.4c-0.1,0-0.1,0-0.2-0.1c-0.1-0.1,0-0.2,0.1-0.3c0,0,0,0,0,0l0,0
	c0.1,0,0.2,0,0.3,0.1C111.2,120.3,111.2,120.4,111,120.4C111.1,120.4,111.1,120.4,111,120.4L111,120.4L111,120.4z M114.2,120.4
	L114.2,120.4L114.2,120.4c-0.2-0.1-0.2-0.2-0.2-0.3c0.1-0.1,0.2-0.1,0.3-0.1l0,0c0.1,0.1,0.1,0.2,0.1,0.3
	C114.4,120.3,114.3,120.4,114.2,120.4L114.2,120.4z M143.7,120.3c-0.1,0-0.2,0-0.2-0.1c0-0.1,0-0.2,0.1-0.2c0,0,0,0,0,0l0,0
	c0.1-0.1,0.2,0,0.3,0.1c0.1,0.1,0,0.2-0.1,0.3C143.8,120.3,143.8,120.3,143.7,120.3L143.7,120.3L143.7,120.3z M110.1,120.3
	c-0.1,0-0.2-0.1-0.2-0.1h0.2H110l0.4-0.1l0,0C110.4,120.1,110.3,120.2,110.1,120.3L110.1,120.3z M147,120.3h-0.1
	c-0.1,0-0.2-0.1-0.1-0.2c0-0.1,0.1-0.2,0.2-0.1h0.1c0.1,0,0.1,0.2,0.1,0.3C147.1,120.2,147.1,120.3,147,120.3L147,120.3z
	 M147.8,120.3L147.8,120.3c-0.1,0-0.2-0.1-0.2-0.2c0,0,0,0,0,0l0,0c0-0.1,0.1-0.2,0.2-0.2c0.1,0,0.2,0.1,0.1,0.2l0,0
	c-0.1,0-0.1,0-0.2,0L147.8,120.3z M111.8,120.3l-0.1-0.2v-0.2l0,0c0.1,0,0.2,0,0.2,0.2S112,120.3,111.8,120.3l0-0.2L111.8,120.3z
	 M144.5,120.3c-0.1,0-0.2-0.1-0.2-0.2c0-0.1,0.1-0.2,0.2-0.2l0,0c0.1,0,0.2,0.1,0.2,0.2C144.7,120.2,144.6,120.3,144.5,120.3
	C144.5,120.3,144.5,120.3,144.5,120.3L144.5,120.3L144.5,120.3z M113.5,120.3L113.5,120.3v-0.2V120.3l-0.1-0.2v-0.2l0,0
	c0.1,0,0.2,0.1,0.2,0.2C113.5,120.2,113.5,120.3,113.5,120.3L113.5,120.3z M112.6,120.2v-0.4l0,0c0.1,0,0.2,0.1,0.2,0.2c0,0,0,0,0,0
	C112.8,120.1,112.7,120.2,112.6,120.2C112.6,120.2,112.6,120.2,112.6,120.2L112.6,120.2z M146.2,120.2L146.2,120.2V120V120.2v-0.4
	l0,0c0.1,0,0.2,0.1,0.2,0.2c-0.1,0-0.1,0-0.1,0L146.2,120.2z M145.3,120.2c-0.1,0-0.2-0.1-0.2-0.2c0-0.1,0.1-0.2,0.2-0.2
	c0,0,0,0,0,0h0.1c0.1,0,0.2,0.1,0.2,0.2C145.6,120.1,145.5,120.2,145.3,120.2C145.4,120.2,145.4,120.2,145.3,120.2L145.3,120.2
	L145.3,120.2z M109.8,119.7c-0.1,0-0.1,0-0.2-0.1l0,0c-0.1-0.1,0-0.2,0.1-0.3c0,0,0,0,0,0c0.1-0.1,0.2,0,0.3,0c0,0,0,0,0,0l0,0
	C110.1,119.5,110,119.6,109.8,119.7c0-0.1,0-0.2,0-0.2L109.8,119.7z M148.2,119.7c0,0-0.1,0-0.1,0c-0.1-0.1-0.1-0.2,0-0.3l0,0
	c0.1-0.1,0.2-0.1,0.3-0.1c0.1,0.1,0.1,0.2,0.1,0.3c0,0,0,0,0,0l0,0c-0.1,0-0.2-0.1-0.2-0.2L148.2,119.7z M151,119
	c-0.1,0-0.1,0-0.1-0.1l0,0c-0.1-0.1-0.1-0.2,0-0.3c0.1-0.1,0.2-0.1,0.3,0c0,0,0,0,0,0l0,0c0.1,0.1,0.1,0.2,0,0.3c0,0,0,0,0,0
	C151.1,119,151,119,151,119z M107.3,119c0,0-0.1,0-0.1,0c-0.1-0.1-0.1-0.2-0.1-0.3c0-0.1,0.2-0.1,0.3-0.1c0.1,0,0.1,0.2,0.1,0.3v0.1
	C107.5,119,107.4,119,107.3,119L107.3,119z M148.8,118.9c-0.1,0-0.1,0-0.2-0.1c-0.1-0.1-0.1-0.2,0-0.3l0,0c0.1-0.1,0.2-0.1,0.3,0
	c0.1,0.1,0.1,0.2,0,0.3l0,0C148.9,118.8,148.9,118.9,148.8,118.9L148.8,118.9z M109.3,118.9c0,0-0.1,0-0.1,0l0,0
	c-0.1,0-0.1-0.2-0.1-0.3c0-0.1,0.2-0.1,0.3-0.1c0,0,0,0,0.1,0l0,0c0.1,0.1,0.1,0.2,0,0.3c0,0,0,0,0,0
	C109.4,118.8,109.4,118.8,109.3,118.9L109.3,118.9z M150.3,118.6C150.3,118.6,150.3,118.6,150.3,118.6L150.3,118.6
	c-0.2,0-0.2-0.1-0.2-0.2c0,0,0,0,0,0c0-0.1,0.2-0.1,0.3-0.1l0,0c0.1,0,0.1,0.2,0.1,0.3c0,0,0,0,0,0
	C150.5,118.5,150.4,118.5,150.3,118.6L150.3,118.6z M149.5,118.5c-0.1,0-0.2-0.1-0.2-0.1c0-0.1,0-0.2,0.1-0.2h0.1
	c0.1,0,0.2,0,0.3,0.1c0,0.1,0,0.2-0.1,0.3C149.6,118.5,149.6,118.5,149.5,118.5L149.5,118.5L149.5,118.5z M108.6,118.5L108.6,118.5
	c-0.2,0-0.3-0.1-0.2-0.2c0-0.1,0.1-0.2,0.2-0.1l0,0c0.1,0,0.2,0.1,0.1,0.2c0,0,0,0,0,0C108.7,118.4,108.7,118.4,108.6,118.5
	L108.6,118.5z M107.7,118.4c-0.1,0-0.2-0.1-0.2-0.1c0-0.1,0-0.2,0.1-0.2h0.1c0.1,0,0.2,0,0.2,0.1c0,0,0,0,0,0
	C108,118.3,107.9,118.4,107.7,118.4C107.8,118.4,107.8,118.4,107.7,118.4C107.8,118.4,107.7,118.4,107.7,118.4z"/>
<path class="st39" d="M121,229L121,229c-0.2,0-0.4-0.2-0.4-0.4c0,0,0,0,0,0c0-0.2,0.2-0.4,0.4-0.4l0,0c0.2,0,0.4,0.2,0.4,0.4
	C121.4,228.8,121.2,229,121,229z M122.2,229c-0.2,0-0.4-0.2-0.4-0.4c0-0.2,0.2-0.4,0.4-0.4h0.1c0.2,0,0.4,0.2,0.4,0.4
	C122.7,228.8,122.5,229,122.2,229C122.3,229,122.3,229,122.2,229L122.2,229z M119.7,229L119.7,229c-0.3,0-0.5-0.2-0.5-0.4
	c0-0.2,0.2-0.4,0.4-0.4l0,0c0.2,0,0.4,0.2,0.4,0.4c0,0,0,0,0,0C120.1,228.8,119.9,229,119.7,229z M123.5,229c-0.2,0-0.4-0.2-0.4-0.4
	c0-0.2,0.2-0.4,0.4-0.4l0,0c0.2,0,0.4,0.2,0.4,0.4c0,0,0,0,0,0C123.9,228.8,123.8,229,123.5,229L123.5,229L123.5,229z M118.4,228.9
	L118.4,228.9c-0.3,0-0.5-0.2-0.5-0.5c0,0,0,0,0,0c0-0.2,0.3-0.4,0.5-0.4l0,0c0.2,0,0.4,0.2,0.3,0.5c0,0,0,0,0,0
	C118.7,228.7,118.6,228.8,118.4,228.9L118.4,228.9z M124.8,228.9c-0.2,0-0.4-0.2-0.4-0.4c0-0.2,0.1-0.4,0.4-0.4c0,0,0,0,0,0
	c0.2,0,0.4,0.1,0.5,0.4c0,0.2-0.1,0.4-0.3,0.5c0,0,0,0,0,0L124.8,228.9L124.8,228.9z M126.1,228.7c-0.2,0-0.4-0.2-0.4-0.4
	c0-0.2,0.1-0.4,0.4-0.5s0.4,0.1,0.5,0.4c0,0.2-0.1,0.4-0.3,0.5C126.2,228.7,126.2,228.7,126.1,228.7L126.1,228.7L126.1,228.7z
	 M147.5,228.7L147.5,228.7c-0.3,0-0.5-0.2-0.5-0.4c0,0,0,0,0,0c0-0.2,0.3-0.4,0.5-0.4c0.2,0,0.3,0.2,0.4,0.4c0,0.2-0.2,0.3-0.4,0.3
	L147.5,228.7z M117.2,228.7H117c-0.2-0.1-0.4-0.3-0.3-0.5c0.1-0.2,0.3-0.4,0.5-0.3l0,0c0.2,0.1,0.4,0.3,0.3,0.5
	c-0.1,0.1-0.2,0.2-0.4,0.2L117.2,228.7z M148.7,228.7c-0.2,0-0.4-0.2-0.4-0.4c0-0.2,0.1-0.4,0.4-0.5h0.1c0.2,0,0.4,0.2,0.4,0.4
	C149.2,228.5,149,228.7,148.7,228.7C148.8,228.7,148.8,228.7,148.7,228.7L148.7,228.7L148.7,228.7z M146.2,228.6L146.2,228.6
	c-0.3,0-0.5-0.2-0.4-0.5c0-0.2,0.2-0.4,0.4-0.4c0,0,0,0,0,0h0.1c0.2,0,0.4,0.2,0.4,0.5c-0.1,0.2-0.2,0.2-0.4,0.2L146.2,228.6z
	 M127.3,228.6c-0.2,0-0.4-0.1-0.4-0.3c0-0.2,0.1-0.4,0.3-0.5l0,0c0.2,0,0.4,0.1,0.5,0.3c0,0,0,0,0,0
	C127.8,228.3,127.6,228.5,127.3,228.6C127.4,228.6,127.4,228.6,127.3,228.6L127.3,228.6L127.3,228.6z M150,228.5
	c-0.2,0-0.4-0.1-0.4-0.3c-0.1-0.2,0.1-0.4,0.3-0.5c0,0,0,0,0,0l0,0c0.2,0,0.4,0.1,0.5,0.4C150.4,228.2,150.3,228.4,150,228.5
	L150,228.5L150,228.5z M144.9,228.4h-0.1c-0.2,0-0.4-0.3-0.3-0.5c0-0.2,0.3-0.4,0.5-0.3c0.2,0,0.4,0.3,0.4,0.5
	c-0.1,0.1-0.2,0.2-0.3,0.2L144.9,228.4z M115.9,228.3c0,0-0.1,0-0.1,0l0,0c-0.2-0.1-0.3-0.3-0.3-0.5c0.1-0.2,0.3-0.3,0.5-0.3
	c0,0,0,0,0,0l0,0c0.2,0.1,0.3,0.3,0.3,0.5C116.3,228.2,116.1,228.4,115.9,228.3L115.9,228.3z M128.6,228.3c-0.2,0-0.4-0.1-0.4-0.4
	c0-0.2,0.1-0.4,0.4-0.4l0,0c0.2,0,0.5,0.1,0.5,0.3c0,0.2-0.1,0.4-0.3,0.5c0,0,0,0,0,0L128.6,228.3L128.6,228.3z M143.7,228.1h-0.1
	c-0.2-0.1-0.4-0.3-0.3-0.5s0.3-0.4,0.5-0.3l0,0l0,0c0.2,0,0.4,0.3,0.3,0.5C144,228,143.9,228.2,143.7,228.1L143.7,228.1z
	 M151.2,228.1c-0.2,0-0.3-0.1-0.4-0.2c-0.1-0.2,0-0.5,0.2-0.6l0,0c0.2-0.1,0.4,0,0.5,0.2c0,0,0,0,0,0c0.1,0.2,0,0.5-0.2,0.6l0,0
	c-0.1,0-0.1-0.1-0.2-0.1L151.2,228.1z M129.9,228.1c-0.2,0-0.4-0.1-0.4-0.3c-0.1-0.2,0.1-0.4,0.3-0.5c0,0,0,0,0,0h0.1
	c0.2,0,0.4,0.1,0.5,0.3c0,0,0,0,0,0c0,0.2-0.1,0.4-0.3,0.5l0,0L129.9,228.1z M114.8,227.9c-0.1,0-0.1,0-0.2,0l0,0
	c-0.2-0.1-0.2-0.4-0.1-0.6c0.1-0.2,0.3-0.2,0.5-0.2c0.2,0.1,0.3,0.3,0.2,0.6C115.1,227.9,115,228,114.8,227.9L114.8,227.9z
	 M142.5,227.9h-0.1l0,0c-0.2-0.1-0.3-0.3-0.3-0.5c0,0,0,0,0,0c0.1-0.2,0.3-0.4,0.5-0.3c0,0,0,0,0,0l0,0c0.2,0.1,0.4,0.3,0.3,0.5
	c-0.1,0.1-0.3,0.1-0.4,0.1L142.5,227.9z M131.1,227.8c-0.2,0-0.4-0.2-0.4-0.4c0-0.2,0.1-0.3,0.3-0.4l0,0c0.2,0,0.4,0.1,0.5,0.4
	C131.5,227.6,131.4,227.8,131.1,227.8L131.1,227.8L131.1,227.8z M152.4,227.6c-0.1,0-0.3-0.1-0.3-0.2c-0.1-0.2-0.1-0.4,0.1-0.6l0,0
	c0.2-0.1,0.4-0.1,0.6,0.1s0.1,0.4-0.1,0.6l0,0c-0.1,0-0.2-0.1-0.2-0.1L152.4,227.6z M141.2,227.6h-0.1l0,0c-0.2-0.1-0.4-0.3-0.3-0.5
	c0.1-0.2,0.3-0.4,0.5-0.3c0,0,0,0,0,0l0,0c0.2,0.1,0.3,0.3,0.3,0.5c-0.1,0.1-0.3,0.1-0.4,0.1L141.2,227.6z M132.4,227.6
	c-0.2,0-0.4-0.2-0.4-0.4c0-0.2,0.1-0.3,0.3-0.4l0,0c0.2,0,0.4,0.1,0.5,0.4C132.7,227.3,132.6,227.5,132.4,227.6L132.4,227.6
	L132.4,227.6z M113.6,227c-0.1,0-0.2,0-0.2-0.1l0,0c-0.2-0.1-0.2-0.4-0.1-0.6c0,0,0,0,0,0c0.1-0.2,0.4-0.2,0.5-0.1c0,0,0,0,0,0l0,0
	c0.2,0.1,0.2,0.4,0.1,0.6C113.9,226.9,113.8,227,113.6,227z M133.6,227c-0.2,0-0.4-0.1-0.4-0.3c-0.1-0.2,0.1-0.4,0.3-0.5l0,0
	c0.2,0,0.4,0.1,0.5,0.4c0,0.2-0.1,0.4-0.3,0.4L133.6,227L133.6,227z M140,227h-0.1c-0.2-0.1-0.4-0.3-0.3-0.5
	c0.1-0.2,0.3-0.4,0.5-0.3c0.2,0.1,0.4,0.3,0.3,0.5C140.4,226.9,140.2,227,140,227L140,227z M134.9,226.7c-0.2,0-0.4-0.1-0.4-0.3
	c0-0.2,0.1-0.4,0.3-0.5l0,0c0.2-0.1,0.4,0.1,0.5,0.3c0,0,0,0,0,0C135.3,226.5,135.2,226.7,134.9,226.7
	C135,226.7,135,226.7,134.9,226.7L134.9,226.7L134.9,226.7z M138.8,226.7h-0.1c-0.2,0-0.4-0.3-0.3-0.5c0-0.2,0.3-0.4,0.5-0.3
	c0.2,0,0.4,0.3,0.4,0.5C139.1,226.6,138.9,226.8,138.8,226.7L138.8,226.7z M137.5,226.5L137.5,226.5c-0.3,0-0.5-0.2-0.5-0.4
	c0-0.2,0.2-0.4,0.4-0.4l0,0c0.2,0,0.4,0.2,0.4,0.5C137.8,226.4,137.7,226.6,137.5,226.5L137.5,226.5z M136.2,226.5
	c-0.2,0-0.4-0.2-0.4-0.4c0-0.2,0.1-0.4,0.4-0.4c0,0,0,0,0,0l0,0c0.2,0,0.4,0.2,0.4,0.4C136.6,226.3,136.4,226.5,136.2,226.5
	L136.2,226.5L136.2,226.5z M153.4,226.5c-0.1,0-0.2,0-0.3-0.1c-0.2-0.2-0.2-0.4,0-0.6c0,0,0,0,0,0l0,0c0.2-0.2,0.4-0.2,0.6,0
	c0.2,0.2,0.2,0.4,0,0.6l0,0C153.6,226.5,153.5,226.5,153.4,226.5L153.4,226.5z M112.7,226.3c-0.1,0-0.2,0-0.2-0.1l0,0
	c-0.2-0.2-0.2-0.4,0-0.6c0.1-0.1,0.4-0.2,0.5,0c0.2,0.2,0.2,0.4,0.1,0.6C112.9,226.3,112.8,226.3,112.7,226.3L112.7,226.3z
	 M154.1,225.5c-0.1,0-0.1,0-0.2-0.1c-0.2-0.1-0.3-0.4-0.2-0.6c0.1-0.2,0.4-0.3,0.6-0.2c0.2,0.1,0.3,0.3,0.2,0.5c0,0,0,0,0,0l0,0
	C154.4,225.4,154.2,225.5,154.1,225.5L154.1,225.5z M111.7,225.4c-0.1,0-0.2,0-0.3-0.1l0,0c-0.2-0.2-0.2-0.4,0-0.6
	c0.2-0.2,0.4-0.2,0.6,0c0,0,0,0,0,0l0,0c0.2,0.2,0.2,0.4,0,0.6c0,0,0,0,0,0C111.9,225.4,111.8,225.4,111.7,225.4L111.7,225.4z
	 M110.9,224.4c-0.1,0-0.3-0.1-0.3-0.2l0,0c-0.1-0.2-0.1-0.4,0.1-0.6c0,0,0,0,0,0c0.2-0.1,0.4-0.1,0.6,0.1c0,0,0,0,0,0l0,0
	c0.1,0.2,0.1,0.4-0.1,0.6c0,0,0,0,0,0C111.1,224.4,111,224.4,110.9,224.4L110.9,224.4z M154.6,224.3c0,0-0.1,0-0.1,0
	c-0.2-0.1-0.3-0.3-0.2-0.5c0,0,0,0,0,0c0.1-0.2,0.3-0.3,0.5-0.3c0.2,0.1,0.3,0.3,0.3,0.5c0,0,0,0,0,0l0,0
	C155,224.2,154.8,224.3,154.6,224.3L154.6,224.3z M110.1,223.3c-0.1,0-0.3-0.1-0.3-0.2l0,0c-0.1-0.2,0-0.5,0.2-0.6
	c0.2-0.1,0.5,0,0.6,0.2c0.1,0.2,0,0.4-0.2,0.6C110.3,223.3,110.2,223.4,110.1,223.3L110.1,223.3z M155,223h-0.1
	c-0.2-0.1-0.4-0.3-0.3-0.5c0,0,0,0,0,0l0,0c0.1-0.2,0.3-0.3,0.5-0.3c0,0,0,0,0,0c0.2,0.1,0.4,0.3,0.3,0.5c0,0,0,0,0,0l0,0
	C155.4,223,155.2,223.1,155,223L155,223z M67,222.8L67,222.8c-0.2,0-0.4-0.2-0.4-0.4c0-0.2,0.2-0.4,0.4-0.4h0h0
	c0.2,0,0.4,0.2,0.4,0.4c0,0,0,0,0,0C67.4,222.7,67.3,222.9,67,222.8C67,222.9,67,222.9,67,222.8L67,222.8z M68.3,222.8
	c-0.2,0-0.4-0.2-0.4-0.4c0-0.2,0.2-0.4,0.4-0.4s0.4,0.2,0.4,0.4C68.7,222.7,68.6,222.9,68.3,222.8C68.3,222.9,68.3,222.9,68.3,222.8
	L68.3,222.8L68.3,222.8z M65.7,222.8L65.7,222.8c-0.3,0-0.5-0.2-0.5-0.4c0,0,0,0,0,0c0-0.2,0.2-0.4,0.4-0.4c0,0,0,0,0,0
	c0.2,0,0.4,0.2,0.4,0.4c0,0,0,0,0,0C66.1,222.7,65.9,222.8,65.7,222.8C65.7,222.8,65.7,222.8,65.7,222.8L65.7,222.8z M69.5,222.8
	c-0.2,0-0.4-0.3-0.4-0.5c0-0.2,0.2-0.3,0.4-0.4l0,0c0.2,0,0.4,0.1,0.4,0.4c0,0,0,0,0,0C70,222.5,69.9,222.7,69.5,222.8
	C69.6,222.8,69.6,222.8,69.5,222.8L69.5,222.8L69.5,222.8z M64.5,222.7L64.5,222.7c-0.3,0-0.5-0.2-0.4-0.5c0-0.2,0.2-0.4,0.5-0.4
	l0,0l0,0c0.2,0,0.4,0.2,0.4,0.4C64.8,222.6,64.6,222.7,64.5,222.7L64.5,222.7z M70.8,222.6c-0.2,0-0.4-0.1-0.4-0.3
	c0-0.2,0.1-0.4,0.3-0.5c0,0,0,0,0,0l0,0c0.2-0.1,0.5,0.1,0.5,0.3s-0.1,0.5-0.3,0.5C71,222.6,70.9,222.6,70.8,222.6L70.8,222.6
	L70.8,222.6z M63.2,222.6H63c-0.2,0-0.4-0.2-0.3-0.5c0-0.2,0.2-0.4,0.5-0.3l0,0c0.2,0,0.4,0.3,0.3,0.5
	C63.4,222.4,63.3,222.5,63.2,222.6L63.2,222.6z M72.1,222.4c-0.2,0-0.4-0.2-0.4-0.4c0-0.2,0.1-0.3,0.3-0.4c0.2-0.1,0.5,0.1,0.5,0.3
	c0.1,0.2-0.1,0.4-0.3,0.5l0,0L72.1,222.4z M61.9,222.4h-0.1c-0.2-0.1-0.4-0.3-0.3-0.5c0-0.2,0.3-0.4,0.5-0.3l0,0
	c0.2,0.1,0.3,0.3,0.3,0.5C62.2,222.2,62.1,222.4,61.9,222.4L61.9,222.4z M109.6,222.2c-0.2,0-0.3-0.1-0.4-0.2l0,0
	c-0.1-0.2,0-0.5,0.2-0.5c0.2-0.1,0.5,0,0.5,0.2c0.1,0.2,0,0.5-0.2,0.6L109.6,222.2z M60.6,222h-0.1h0c-0.2-0.1-0.3-0.3-0.3-0.5
	c0,0,0,0,0,0c0.1-0.2,0.3-0.3,0.5-0.3c0,0,0,0,0,0c0.2,0.1,0.4,0.3,0.3,0.5c0,0,0,0,0,0C61,221.9,60.8,222,60.6,222z M73.2,222
	c-0.2,0-0.3-0.1-0.4-0.3c0-0.2,0.1-0.5,0.3-0.5c0.2,0,0.4,0.1,0.5,0.2c0.1,0.2,0,0.4-0.2,0.5c0,0,0,0,0,0h-0.1L73.2,222z
	 M155.2,221.9L155.2,221.9c-0.3,0-0.4-0.2-0.4-0.5c0,0,0,0,0,0v-0.1c0-0.2,0.3-0.4,0.5-0.3c0.2,0,0.4,0.3,0.3,0.5c0,0,0,0,0,0l0,0
	C155.6,221.7,155.4,221.8,155.2,221.9L155.2,221.9z M59.4,221.6h-0.1h0c-0.2-0.1-0.3-0.3-0.3-0.5c0,0,0-0.1,0-0.1
	c0.1-0.2,0.3-0.3,0.5-0.2c0,0,0,0,0,0c0.2,0.1,0.3,0.3,0.2,0.5C59.7,221.5,59.6,221.6,59.4,221.6L59.4,221.6z M74.4,221.5
	c-0.2,0-0.3-0.1-0.4-0.2c-0.1-0.2,0-0.5,0.2-0.6l0,0c0.2-0.1,0.5,0,0.6,0.2c0.1,0.2,0,0.4-0.2,0.5c0,0,0,0,0,0l0,0L74.4,221.5z
	 M58.2,221c-0.1,0-0.1,0-0.2,0l0,0c-0.2-0.1-0.3-0.3-0.3-0.5c0.1-0.2,0.3-0.3,0.5-0.3c0,0,0.1,0,0.1,0.1c0.2,0.1,0.3,0.3,0.2,0.6
	C58.6,221,58.4,221,58.2,221z M109.1,221c-0.2,0-0.3-0.1-0.4-0.3l0,0c-0.1-0.2,0.1-0.5,0.3-0.5c0.2-0.1,0.5,0.1,0.5,0.3l0,0
	c0.1,0.2,0,0.4-0.3,0.5L109.1,221z M75.6,221c-0.2,0-0.3-0.1-0.4-0.2c-0.1-0.2,0-0.5,0.2-0.6l0,0c0.2-0.1,0.5,0,0.6,0.2
	c0.1,0.2,0,0.4-0.2,0.5c0,0,0,0,0,0l0,0C75.7,221,75.7,221,75.6,221z M155.5,220.6L155.5,220.6c-0.3,0-0.5-0.3-0.4-0.5
	c0-0.2,0.3-0.4,0.5-0.4c0.2,0,0.4,0.2,0.3,0.5c0,0,0,0,0,0v0.1C155.9,220.5,155.7,220.6,155.5,220.6L155.5,220.6z M57.1,220.5
	c-0.1,0-0.1,0-0.2-0.1l0,0c-0.2-0.1-0.3-0.4-0.1-0.6c0.1-0.2,0.4-0.3,0.6-0.1l0,0c0.2,0.1,0.2,0.4,0.1,0.6
	C57.4,220.4,57.3,220.5,57.1,220.5L57.1,220.5z M76.8,220.5c-0.2,0-0.4-0.2-0.4-0.4c0-0.2,0.1-0.3,0.2-0.4l0,0
	c0.2-0.1,0.5,0,0.5,0.2c0.1,0.2,0,0.4-0.2,0.5l0,0C76.9,220.4,76.8,220.4,76.8,220.5L76.8,220.5z M108.8,219.9
	c-0.2,0-0.4-0.1-0.4-0.3l0,0c0-0.2,0.1-0.4,0.3-0.5c0.2,0,0.4,0.1,0.5,0.3v0.1C109.2,219.6,109.1,219.8,108.8,219.9L108.8,219.9z
	 M77.9,219.9c-0.2,0-0.4-0.2-0.4-0.4c0-0.2,0.1-0.3,0.2-0.4l0,0c0.2-0.1,0.4-0.1,0.6,0.1c0,0,0,0,0,0c0.1,0.2,0,0.5-0.2,0.6l0,0
	c-0.1,0-0.2,0-0.2-0.1L77.9,219.9z M56.1,219.9c-0.1,0-0.2,0-0.2-0.1l0,0c-0.2-0.1-0.2-0.4-0.1-0.6c0.1-0.2,0.4-0.2,0.6-0.1
	c0,0,0,0,0,0l0,0c0.2,0.1,0.2,0.4,0.1,0.6c-0.1,0.1-0.3,0.1-0.4,0L56.1,219.9z M155.8,219.5L155.8,219.5c-0.3,0-0.5-0.3-0.4-0.5
	c0,0,0,0,0,0l0,0c0.1-0.2,0.3-0.4,0.5-0.3c0.2,0.1,0.4,0.3,0.3,0.5V219c-0.1,0.2-0.2,0.3-0.5,0.3L155.8,219.5z M79,219.1
	c-0.1,0-0.3-0.1-0.4-0.2c-0.1-0.2,0-0.4,0.2-0.6c0,0,0,0,0,0c0.2-0.1,0.5-0.1,0.6,0.1c0,0,0,0,0,0c0.1,0.2,0.1,0.4-0.1,0.6
	c0,0,0,0,0,0l0,0C79.2,219.1,79.1,219.1,79,219.1z M55.1,218.9c-0.1,0-0.2,0-0.3-0.1l0,0c-0.2-0.2-0.2-0.4,0-0.6c0,0,0,0,0,0
	c0.2-0.2,0.4-0.2,0.6,0c0,0,0,0,0,0l0,0c0.2,0.2,0.2,0.4,0,0.6c0,0,0,0,0,0C55.3,218.9,55.2,218.9,55.1,218.9L55.1,218.9z
	 M108.5,218.5c-0.2,0-0.4-0.1-0.4-0.3l0,0c0-0.2,0.1-0.4,0.3-0.5c0.2-0.1,0.4,0.1,0.5,0.3c0,0,0,0,0,0l0,0
	C108.9,218.3,108.8,218.5,108.5,218.5C108.5,218.5,108.5,218.5,108.5,218.5L108.5,218.5z M80.1,218.5c-0.2,0-0.4-0.2-0.4-0.4
	c0-0.2,0.1-0.3,0.2-0.4l0,0c0.2-0.1,0.5,0,0.6,0.2s0,0.5-0.2,0.6l0,0C80.2,218.5,80.2,218.5,80.1,218.5L80.1,218.5z M156.1,218.1
	H156c-0.2-0.1-0.3-0.3-0.3-0.5l0,0c0.1-0.2,0.3-0.3,0.5-0.3c0.2,0.1,0.3,0.3,0.3,0.5l0,0C156.4,218,156.3,218.1,156.1,218.1
	L156.1,218.1z M54.1,218c-0.1,0-0.2,0-0.3-0.1l0,0c-0.2-0.2-0.2-0.4,0-0.6c0.2-0.2,0.4-0.2,0.6,0l0,0c0.2,0.2,0.2,0.4,0,0.6
	c0,0,0,0,0,0C54.3,218,54.2,218,54.1,218L54.1,218z M81.4,217.8l-0.2-0.4l-0.2-0.4l0,0c0.2-0.1,0.4-0.1,0.5,0.1c0,0,0,0,0,0
	C81.7,217.4,81.6,217.7,81.4,217.8C81.4,217.8,81.4,217.8,81.4,217.8l-0.2-0.4L81.4,217.8z M108.1,217.3c-0.2,0-0.4-0.1-0.4-0.3l0,0
	c-0.1-0.2,0.1-0.4,0.3-0.5s0.4,0.1,0.5,0.3l0,0c0.1,0.2-0.1,0.4-0.3,0.5C108.2,217.3,108.2,217.3,108.1,217.3L108.1,217.3z
	 M82.3,217.2c-0.1,0-0.2-0.1-0.3-0.2c-0.1-0.2,0-0.4,0.2-0.6c0,0,0,0,0,0c0.2-0.1,0.5,0,0.6,0.1c0.1,0.2,0,0.4-0.2,0.6l0,0
	C82.5,217.2,82.4,217.2,82.3,217.2L82.3,217.2z M53.2,217.1c-0.1,0-0.2-0.1-0.3-0.1l0,0c-0.1-0.2-0.1-0.4,0.1-0.6
	c0.2-0.1,0.4-0.1,0.6,0.1l0,0c0.1,0.2,0.1,0.4,0,0.6C53.5,217,53.4,217.1,53.2,217.1L53.2,217.1z M157,216.7l-0.4-0.2l-0.4-0.2l0,0
	c0.1-0.2,0.3-0.3,0.5-0.2c0,0,0,0,0,0C157,216.2,157.1,216.5,157,216.7C157,216.7,157,216.7,157,216.7l-0.4-0.2L157,216.7z
	 M83.5,216.6c-0.2,0-0.3-0.1-0.4-0.2c-0.1-0.2,0-0.4,0.2-0.6c0,0,0,0,0,0l0,0c0.2-0.1,0.5,0,0.6,0.2s0,0.5-0.2,0.6l0,0
	C83.6,216.6,83.5,216.6,83.5,216.6z M107.8,216.1c-0.2,0-0.3-0.1-0.4-0.3l0,0c-0.1-0.2,0-0.5,0.2-0.5c0.2-0.1,0.5,0,0.5,0.2l0,0
	c0.1,0.2,0,0.4-0.2,0.5c0,0,0,0,0,0C107.9,216,107.9,216.1,107.8,216.1L107.8,216.1z M84.6,216.1c-0.2,0-0.4-0.2-0.4-0.4
	c0-0.1,0.1-0.3,0.2-0.4l0,0c0.2-0.1,0.5,0.1,0.5,0.3c0.1,0.2,0,0.4-0.2,0.5l0,0C84.7,216,84.7,216,84.6,216.1L84.6,216.1z
	 M52.5,216.1c-0.1,0-0.3-0.1-0.3-0.2l0,0c-0.1-0.2-0.1-0.4,0.1-0.6c0.2-0.1,0.4-0.1,0.6,0.1l0,0c0.1,0.2,0.1,0.5-0.1,0.6
	C52.7,216,52.6,216,52.5,216.1L52.5,216.1z M157.4,215.9c-0.2,0-0.4-0.2-0.4-0.4c0-0.1,0-0.2,0.1-0.3l0,0c0.2-0.2,0.4-0.2,0.6,0
	c0.2,0.2,0.2,0.4,0,0.6c0,0,0,0,0,0l0,0C157.5,215.8,157.4,215.9,157.4,215.9L157.4,215.9z M85.8,215.5c-0.2,0-0.3-0.1-0.4-0.2
	c-0.1-0.2,0-0.4,0.2-0.5c0,0,0,0,0,0l0,0c0.2-0.1,0.5,0,0.5,0.2s0,0.5-0.2,0.5l0,0L85.8,215.5z M158.3,215.1c-0.2,0-0.4-0.2-0.4-0.4
	c0-0.1,0.1-0.3,0.2-0.3c0.2-0.1,0.4-0.1,0.6,0.1c0.1,0.2,0.1,0.4-0.1,0.6h-0.1C158.5,215,158.4,215,158.3,215.1L158.3,215.1z
	 M87,215c-0.2,0-0.3-0.1-0.4-0.2c-0.1-0.2,0-0.4,0.2-0.5c0,0,0,0,0,0l0,0c0.2-0.1,0.5,0,0.6,0.2c0.1,0.2,0,0.5-0.2,0.6l0,0L87,215z
	 M51.9,215c-0.2,0-0.3-0.1-0.4-0.2l0,0c-0.1-0.2,0-0.5,0.2-0.6c0.2-0.1,0.5,0,0.6,0.2l0,0l0,0c0.1,0.2,0,0.4-0.2,0.6c0,0,0,0,0,0
	C52,215,51.9,215,51.9,215L51.9,215z M107.3,215c-0.1,0-0.3-0.1-0.3-0.2l0,0c-0.1-0.2,0-0.5,0.2-0.6s0.5,0,0.6,0.2l0,0
	c0.1,0.2,0,0.5-0.2,0.6c-0.1,0-0.2,0-0.3-0.1L107.3,215z M88.2,214.6c-0.2,0-0.3-0.1-0.4-0.3c-0.1-0.2,0-0.5,0.2-0.5l0,0
	c0.2-0.1,0.4,0,0.5,0.2c0.1,0.2,0,0.4-0.2,0.5l0,0l0,0c-0.1,0-0.1,0-0.2-0.1L88.2,214.6z M159.5,214.5c-0.2,0-0.4-0.2-0.4-0.4
	c0-0.2,0.1-0.3,0.3-0.4c0.2-0.1,0.5,0,0.6,0.2c0.1,0.2,0,0.4-0.2,0.5c0,0,0,0,0,0l-0.2-0.4l0.2,0.4l0,0
	C159.6,214.4,159.5,214.4,159.5,214.5L159.5,214.5z M89.3,214c-0.2,0-0.3-0.1-0.4-0.3c-0.1-0.2,0-0.4,0.2-0.5l0,0
	c0.2-0.1,0.5,0,0.5,0.2c0.1,0.2,0,0.4-0.2,0.5c0,0,0,0,0,0l0,0C89.4,214,89.4,214,89.3,214z M160.6,213.9c-0.2,0-0.3-0.1-0.4-0.3
	c-0.1-0.2,0-0.4,0.2-0.5c0,0,0,0,0,0c0.2-0.1,0.5,0,0.5,0.2c0.1,0.2,0,0.4-0.2,0.5c0,0,0,0,0,0h-0.1L160.6,213.9z M106.5,213.9
	c-0.1,0-0.2,0-0.3-0.1l0,0c-0.2-0.2-0.2-0.4,0-0.6c0,0,0,0,0,0c0.2-0.2,0.4-0.2,0.6,0l0,0c0.2,0.2,0.2,0.4,0,0.6
	C106.7,213.8,106.6,213.9,106.5,213.9L106.5,213.9z M51.3,213.8c-0.2,0-0.3-0.1-0.4-0.3l0,0c-0.1-0.2,0-0.5,0.2-0.6
	c0.2-0.1,0.4,0,0.5,0.2c0,0,0,0,0,0l0,0c0.1,0.2,0,0.5-0.2,0.5C51.4,213.7,51.4,213.8,51.3,213.8L51.3,213.8z M90.6,213.6
	c-0.2,0-0.3-0.1-0.4-0.3c-0.1-0.2,0-0.4,0.3-0.5c0,0,0,0,0,0l0,0c0.2-0.1,0.4,0,0.5,0.2c0,0,0,0,0,0c0.1,0.2,0,0.4-0.3,0.5
	c0,0,0,0,0,0l0,0L90.6,213.6z M161.9,213.5c-0.2,0-0.3-0.1-0.4-0.3c-0.1-0.2,0-0.4,0.3-0.5c0,0,0,0,0,0l0,0c0.2-0.1,0.4,0,0.5,0.3
	c0,0,0,0,0,0c0.1,0.2-0.1,0.5-0.3,0.5l0,0L161.9,213.5z M91.8,213.3c-0.2,0-0.4-0.2-0.4-0.4c0-0.2,0.1-0.3,0.3-0.4l0,0
	c0.2-0.1,0.4,0.1,0.5,0.3c0,0,0,0,0,0c0.1,0.2-0.1,0.5-0.3,0.5l0,0L91.8,213.3z M163.1,213.2c-0.2,0-0.4-0.1-0.4-0.3
	c-0.1-0.2,0.1-0.4,0.3-0.5c0.2-0.1,0.5,0.1,0.5,0.3c0.1,0.2-0.1,0.4-0.3,0.5c0,0,0,0,0,0L163.1,213.2L163.1,213.2z M105.6,213
	c-0.1,0-0.2,0-0.2-0.1l0,0c-0.2-0.1-0.2-0.4-0.1-0.6c0,0,0,0,0,0c0.1-0.2,0.4-0.2,0.6-0.1c0,0,0,0,0,0l0,0c0.2,0.1,0.2,0.4,0.1,0.6
	C105.8,212.9,105.7,213,105.6,213L105.6,213z M93,212.9c-0.2,0-0.4-0.1-0.4-0.3c-0.1-0.2,0.1-0.4,0.3-0.5c0.2-0.1,0.5,0.1,0.5,0.3
	c0.1,0.2-0.1,0.4-0.3,0.5c0,0,0,0,0,0L93,212.9L93,212.9z M164.3,212.9c-0.2,0-0.4-0.1-0.4-0.3c0-0.2,0.1-0.5,0.3-0.5
	c0.2-0.1,0.5,0.1,0.5,0.3c0.1,0.2-0.1,0.4-0.3,0.5c0,0,0,0,0,0l0,0L164.3,212.9z M165.6,212.6c-0.2,0-0.4-0.1-0.4-0.3
	c0-0.2,0.1-0.4,0.3-0.5c0,0,0,0,0,0c0.2,0,0.5,0.1,0.5,0.3c0,0.2-0.1,0.4-0.3,0.5c0,0,0,0,0,0L165.6,212.6L165.6,212.6z M94.3,212.6
	c-0.2,0-0.4-0.1-0.4-0.3c0-0.2,0.1-0.4,0.3-0.5c0.2-0.1,0.5,0.1,0.5,0.3c0.1,0.2-0.1,0.4-0.3,0.5c0,0,0,0,0,0l0,0L94.3,212.6z
	 M104.4,212.4h-0.2l0,0c-0.2-0.1-0.3-0.4-0.2-0.6s0.4-0.3,0.6-0.2c0.2,0.1,0.3,0.3,0.2,0.5C104.8,212.3,104.6,212.4,104.4,212.4
	L104.4,212.4z M166.8,212.4c-0.2,0-0.4-0.1-0.4-0.3c0-0.2,0.1-0.4,0.3-0.5h0.1c0.2,0,0.4,0.1,0.5,0.3c0,0,0,0,0,0
	c0,0.2-0.1,0.4-0.3,0.5c0,0,0,0,0,0H166.8z M95.5,212.4c-0.2,0-0.4-0.2-0.4-0.4c0-0.2,0.1-0.4,0.3-0.4l0,0c0.2,0,0.4,0.1,0.5,0.3
	C95.9,212.1,95.8,212.4,95.5,212.4L95.5,212.4L95.5,212.4L95.5,212.4z M168.1,212.2c-0.2,0-0.4-0.2-0.4-0.4c0-0.2,0.1-0.4,0.3-0.5
	c0,0,0,0,0,0c0.2,0,0.5,0.1,0.5,0.3c0,0,0,0,0,0c0,0.2-0.1,0.4-0.3,0.5L168.1,212.2L168.1,212.2z M96.8,212.2
	c-0.2,0-0.4-0.1-0.4-0.4c0-0.2,0.1-0.4,0.4-0.4l0,0c0.2,0,0.4,0.1,0.5,0.3c0,0,0,0,0,0C97.2,212,97.1,212.2,96.8,212.2
	C96.8,212.2,96.8,212.2,96.8,212.2L96.8,212.2L96.8,212.2z M103.2,212.1h-0.1c-0.2,0-0.4-0.2-0.3-0.5c0,0,0,0,0,0
	c0-0.2,0.3-0.4,0.5-0.3h0.1c0.2,0.1,0.4,0.3,0.3,0.5C103.5,211.9,103.4,212,103.2,212.1L103.2,212.1z M98,212
	c-0.2,0-0.4-0.3-0.4-0.5c0-0.2,0.2-0.3,0.4-0.4l0,0c0.2,0,0.4,0.1,0.5,0.4C98.5,211.8,98.4,212,98,212L98,212L98,212z M169.4,212
	c-0.2,0-0.4-0.2-0.4-0.4c0-0.2,0.1-0.4,0.3-0.5c0,0,0,0,0,0l0,0c0.2,0,0.4,0.1,0.5,0.3c0,0,0,0,0,0C169.8,211.8,169.7,212,169.4,212
	L169.4,212L169.4,212z M102,211.8L102,211.8c-0.3-0.1-0.4-0.3-0.4-0.5c0-0.2,0.2-0.3,0.4-0.3c0.2,0,0.4,0.2,0.4,0.4
	C102.4,211.7,102.2,211.8,102,211.8z M99.4,211.8c-0.2,0-0.4-0.3-0.4-0.5c0-0.2,0.2-0.3,0.4-0.4h0.1c0.2,0,0.4,0.2,0.4,0.4
	C99.9,211.6,99.7,211.8,99.4,211.8L99.4,211.8L99.4,211.8z M100.7,211.8L100.7,211.8c-0.2,0-0.4-0.2-0.4-0.4c0-0.2,0.2-0.4,0.4-0.4
	h0.1c0.2,0,0.4,0.3,0.4,0.5C101.1,211.7,100.9,211.8,100.7,211.8L100.7,211.8z M170.7,211.8c-0.2,0-0.4-0.2-0.4-0.4
	c0-0.2,0.1-0.4,0.4-0.5c0,0,0,0,0,0c0.2,0,0.4,0.1,0.5,0.3c0,0,0,0,0,0c0,0.2-0.1,0.4-0.3,0.5L170.7,211.8L170.7,211.8z M172,211.6
	c-0.2,0-0.4-0.2-0.4-0.4c0-0.2,0.1-0.4,0.3-0.4h0.1c0.2,0,0.5,0.1,0.5,0.3c0,0.2-0.1,0.5-0.3,0.5C172.1,211.6,172.1,211.6,172,211.6
	L172,211.6z M173.3,211.4c-0.2,0-0.4-0.2-0.4-0.4c0-0.2,0.1-0.4,0.4-0.5c0,0,0,0,0,0l0,0c0.2,0,0.4,0.1,0.5,0.4c0,0,0,0,0,0
	C173.7,211.2,173.6,211.4,173.3,211.4L173.3,211.4L173.3,211.4z M183.5,211.2c-0.2,0-0.4-0.3-0.4-0.5c0-0.2,0.2-0.3,0.4-0.4l0,0
	c0.2,0,0.4,0.2,0.4,0.4c0,0,0,0,0,0C183.9,211,183.8,211.2,183.5,211.2L183.5,211.2L183.5,211.2z M182.2,211.2L182.2,211.2
	c-0.3,0-0.4-0.3-0.4-0.5c0-0.2,0.2-0.3,0.4-0.4l0,0c0.2,0,0.4,0.3,0.4,0.5C182.5,211.1,182.4,211.2,182.2,211.2L182.2,211.2z
	 M174.6,211.2c-0.2,0-0.4-0.3-0.4-0.5c0-0.2,0.2-0.3,0.4-0.4c0.2,0,0.4,0.1,0.5,0.4c0,0.2-0.1,0.4-0.4,0.5L174.6,211.2L174.6,211.2z
	 M181,211.1h-0.1c-0.2,0-0.4-0.3-0.4-0.5c0-0.2,0.2-0.4,0.5-0.3c0,0,0,0,0,0c0.2,0,0.4,0.2,0.4,0.5C181.3,211,181.1,211.1,181,211.1
	L181,211.1z M184.8,211.1c-0.2,0-0.4-0.1-0.4-0.4c0-0.2,0.1-0.4,0.4-0.4c0.2,0,0.5,0.1,0.5,0.3c0.1,0.2-0.1,0.4-0.3,0.5c0,0,0,0,0,0
	L184.8,211.1L184.8,211.1z M175.9,211.1c-0.2,0-0.4-0.2-0.4-0.4c0-0.2,0.1-0.4,0.3-0.5h0.1c0.2,0,0.4,0.1,0.5,0.4
	C176.3,210.9,176.1,211.1,175.9,211.1L175.9,211.1L175.9,211.1z M177.1,211c-0.2,0-0.4-0.2-0.4-0.4c0-0.2,0.1-0.4,0.4-0.4l0,0
	c0.2,0,0.4,0.1,0.5,0.4c0,0,0,0,0,0C177.5,210.8,177.4,211,177.1,211L177.1,211L177.1,211z M179.7,211h-0.1
	c-0.2-0.1-0.4-0.3-0.3-0.5c0.1-0.2,0.3-0.4,0.5-0.3h0.1c0.2,0.1,0.3,0.3,0.3,0.5C180,210.9,179.9,211,179.7,211L179.7,211z
	 M178.4,210.9c-0.2,0-0.4-0.2-0.4-0.4c0-0.2,0.2-0.4,0.4-0.4c0.2,0,0.4,0.1,0.5,0.4C178.9,210.7,178.7,210.9,178.4,210.9
	C178.5,210.9,178.5,210.9,178.4,210.9L178.4,210.9L178.4,210.9z M186,210.8c-0.2,0-0.3-0.1-0.4-0.2c-0.1-0.2,0-0.4,0.2-0.5
	c0,0,0,0,0,0l0,0c0.2-0.1,0.5,0,0.5,0.2c0.1,0.2,0,0.5-0.2,0.5l0,0l0,0c-0.1,0-0.2-0.1-0.2-0.1L186,210.8z M187.1,210.2
	c-0.1,0-0.3-0.1-0.3-0.2c-0.1-0.2-0.1-0.4,0.1-0.6c0,0,0,0,0,0l0,0c0.2-0.1,0.4-0.1,0.6,0.1c0.1,0.2,0.1,0.4-0.1,0.6c0,0,0,0,0,0
	l0,0c-0.1,0-0.2,0-0.3-0.1L187.1,210.2z M188,209.3c-0.1,0-0.2,0-0.3-0.1c-0.2-0.2-0.2-0.4,0-0.6c0,0,0,0,0,0l0,0
	c0.2-0.2,0.4-0.2,0.6,0c0,0,0,0,0,0c0.2,0.2,0.2,0.4,0,0.6c0,0,0,0,0,0l0,0c-0.1,0-0.2,0-0.3,0L188,209.3z M189,208.5
	c-0.1,0-0.3-0.1-0.3-0.2c-0.1-0.2-0.1-0.4,0.1-0.6l0,0c0.2-0.1,0.4-0.1,0.6,0.1c0.1,0.2,0.1,0.4-0.1,0.6c0,0,0,0,0,0l0,0
	c-0.1,0-0.2,0-0.3-0.1L189,208.5z M190.2,207.9c-0.2,0-0.3-0.1-0.4-0.3c-0.1-0.2,0-0.5,0.3-0.5l0,0c0.2-0.1,0.5,0,0.5,0.3
	c0,0,0,0,0,0c0.1,0.2-0.1,0.4-0.3,0.5l0,0c-0.1,0-0.2-0.1-0.2-0.1L190.2,207.9z M191.4,207.6c-0.2,0-0.4-0.2-0.4-0.4
	c0-0.2,0.1-0.4,0.4-0.5h0.1c0.2,0,0.4,0.1,0.4,0.4c0,0,0,0,0,0C191.9,207.4,191.7,207.6,191.4,207.6L191.4,207.6L191.4,207.6z
	 M192.7,207.5c-0.2,0-0.4-0.2-0.4-0.4c0-0.2,0.1-0.4,0.4-0.5h0.1c0.2,0,0.4,0.2,0.4,0.4C193.2,207.3,193,207.5,192.7,207.5
	L192.7,207.5L192.7,207.5z M194,207.4c-0.2,0-0.4-0.2-0.4-0.4c0-0.2,0.1-0.4,0.3-0.5c0,0,0,0,0,0l0,0c0.2,0,0.4,0.1,0.5,0.3
	S194.3,207.3,194,207.4L194,207.4L194,207.4z M195.4,207.1l-0.1-0.4l-0.1-0.4l0,0c0.2-0.1,0.4,0.1,0.5,0.3S195.6,207,195.4,207.1
	l-0.1-0.4L195.4,207.1z M196.5,206.7c-0.2,0-0.3-0.1-0.4-0.3c-0.1-0.2,0-0.4,0.2-0.5c0,0,0,0,0,0c0.2-0.1,0.5,0,0.5,0.2c0,0,0,0,0,0
	c0.1,0.2,0,0.4-0.2,0.5h-0.1L196.5,206.7z M197.6,206.2c-0.2,0-0.3-0.1-0.4-0.2c-0.1-0.2,0-0.4,0.2-0.6c0,0,0,0,0,0l0,0
	c0.2-0.1,0.4,0,0.6,0.2c0,0,0,0,0,0c0.1,0.2,0,0.5-0.2,0.6h-0.1c-0.1,0-0.2,0-0.2-0.1L197.6,206.2z M198.7,205.5
	c-0.2,0-0.4-0.2-0.4-0.4c0-0.1,0.1-0.2,0.1-0.3l0,0c0.2-0.1,0.5-0.1,0.6,0.1c0.1,0.2,0.1,0.4,0,0.5l0,0c-0.1,0-0.2,0-0.4-0.1
	L198.7,205.5z M199.6,204.6c-0.1,0-0.2,0-0.3-0.1c-0.2-0.1-0.2-0.4-0.1-0.6c0,0,0,0,0,0l0,0c0.1-0.2,0.4-0.2,0.6-0.1c0,0,0,0,0,0
	c0.2,0.1,0.2,0.4,0.1,0.6c0,0,0,0,0,0l0,0c-0.1,0.1-0.3,0.1-0.4,0L199.6,204.6z M200.3,203.5c-0.1,0-0.1,0-0.2,0
	c-0.2-0.1-0.3-0.3-0.2-0.5c0,0,0,0,0,0l0,0c0.1-0.2,0.3-0.3,0.6-0.2c0.2,0.1,0.3,0.3,0.2,0.5c0,0,0,0,0,0l0,0
	c-0.1,0.1-0.3,0.1-0.5,0.1L200.3,203.5z M200.7,202.3h-0.1c-0.2-0.1-0.3-0.3-0.3-0.5c0,0,0,0,0,0l0,0c0.1-0.2,0.3-0.3,0.5-0.3
	c0.2,0.1,0.3,0.3,0.3,0.5c0,0,0,0,0,0l0,0c-0.1,0.1-0.3,0.2-0.5,0.1L200.7,202.3z M201,201L201,201c-0.3,0-0.4-0.3-0.4-0.5
	c0-0.2,0.2-0.4,0.5-0.4c0.2,0,0.4,0.2,0.4,0.4c0,0,0,0,0,0v0.1c-0.1,0.2-0.3,0.3-0.5,0.2L201,201z M201.1,199.8L201.1,199.8
	c-0.2,0-0.4-0.2-0.4-0.4c0,0,0,0,0,0c0-0.2,0.2-0.4,0.4-0.4c0.2,0,0.4,0.2,0.4,0.4c0,0,0,0,0,0v0.1c-0.1,0.2-0.3,0.3-0.5,0.3
	L201.1,199.8z M201,198.5c-0.2,0-0.4-0.2-0.4-0.4l0,0c0-0.2,0.1-0.4,0.4-0.5c0.2,0,0.4,0.1,0.5,0.4v0.1
	C201.5,198.3,201.3,198.5,201,198.5L201,198.5z"/>
<path class="st40" d="M65.8,217.6c-0.4,0.5-0.3,1.2,0.2,1.6c0.5,0.4,1.2,0.3,1.6-0.2c0.1-0.1,0.1-0.2,0.2-0.3c0,0,0-0.1,0.1-0.1l0,0
	v-0.1c0.1-0.2,0.6-3.1,0.6-3.1c0-0.1,0-0.2-0.1-0.2c-0.1,0-0.2,0-0.2,0c0,0-2.2,2.1-2.2,2.2l0,0l0,0
	C65.8,217.5,65.8,217.6,65.8,217.6z"/>
<path class="st40" d="M69.3,219.7c0.2,0.6,0.8,0.9,1.4,0.7s0.9-0.8,0.7-1.4l0,0c-0.1-0.2-0.2-0.3-0.3-0.5c-0.7-0.9-1.2-1.8-1.5-2.9
	c0-0.1-0.1-0.2-0.3-0.2c-0.1,0-0.1,0.1-0.2,0.2C68.6,216.9,68.6,218.4,69.3,219.7z"/>
<path class="st40" d="M72,218.3c0.4,0.5,1.1,0.5,1.6,0c0.4-0.4,0.5-1.1,0.1-1.5c-0.1-0.1-0.3-0.3-0.4-0.3c-1-0.5-1.8-1.2-2.6-2
	c-0.1-0.1-0.2-0.1-0.3,0c0,0,0,0,0,0c-0.1,0.1-0.1,0.1-0.1,0.2C70.3,216,70.9,217.4,72,218.3z"/>
<path class="st40" d="M64.1,216.9c-0.6,0.1-1.2-0.3-1.3-0.9s0.3-1.2,0.9-1.3c0.2,0,0.3,0,0.5,0c1.1,0.1,2.2,0,3.2-0.3
	c0.1,0,0.2,0,0.3,0.1c0,0,0,0,0,0c0,0.1,0,0.2-0.1,0.2C66.8,216,65.5,216.8,64.1,216.9z"/>
<path class="st40" d="M63.8,213.9c-0.6-0.1-1-0.7-1-1.3s0.7-1,1.3-1l0,0c0.2,0,0.4,0.1,0.5,0.2c1,0.5,2,0.9,3.1,1
	c0.1,0,0.2,0.1,0.2,0.2c0,0.1-0.1,0.2-0.2,0.2C66.6,214,65.1,214.2,63.8,213.9z"/>
<path class="st40" d="M68.2,213.1l2,1.1c-0.4,0.5-1.1,0.7-1.6,0.3C68.2,214.1,68,213.6,68.2,213.1z"/>
<path class="st40" d="M116.6,223.5c-0.2,0.6,0,1.3,0.6,1.5c0.6,0.2,1.3,0,1.5-0.6c0,0,0,0,0-0.1c0-0.1,0-0.1,0-0.2l0,0v-0.1
	c0-0.2,0.2-3.1,0.2-3.2c0-0.1,0-0.2-0.1-0.2c-0.1,0-0.2,0-0.2,0.1c0,0-1.9,2.4-2,2.5v0.1l0,0C116.6,223.4,116.6,223.4,116.6,223.5z"
	/>
<path class="st40" d="M120.4,225.1c0.4,0.5,1.1,0.6,1.6,0.3c0.4-0.3,0.6-0.8,0.4-1.3c-0.1-0.2-0.2-0.3-0.3-0.4
	c-0.8-0.8-1.4-1.7-1.9-2.7c0-0.1-0.2-0.2-0.3-0.1c-0.1,0-0.1,0.1-0.1,0.2C119.4,222.4,119.6,223.9,120.4,225.1z"/>
<path class="st40" d="M123,223.4c0.5,0.4,1.2,0.4,1.6-0.1c0.4-0.5,0.4-1.2-0.1-1.6c-0.1-0.1-0.3-0.2-0.5-0.3c-1-0.4-2-1-2.8-1.7
	c-0.1-0.1-0.2-0.1-0.3,0c0,0,0,0,0,0c0,0.1,0,0.2,0,0.2C121.1,221.3,121.8,222.5,123,223.4z"/>
<path class="st40" d="M114.9,223c-0.6,0.2-1.2-0.1-1.5-0.6c-0.2-0.6,0.1-1.2,0.6-1.5c0.2-0.1,0.4-0.1,0.5-0.1c1.1,0,2.2-0.2,3.2-0.7
	c0.1,0,0.2,0,0.3,0.1c0,0,0,0,0,0c0,0.1,0,0.2,0,0.2C117.5,221.7,116.3,222.7,114.9,223z"/>
<path class="st40" d="M114.2,219.9c-0.6,0-1.1-0.5-1.1-1.2c0-0.6,0.5-1.1,1.2-1.1l0,0c0.2,0,0.4,0,0.5,0.1c1,0.4,2.1,0.6,3.2,0.6
	c0.1,0,0.2,0.1,0.2,0.2l0,0c0,0.1-0.1,0.2-0.1,0.2C117,219.7,115.6,220.1,114.2,219.9z"/>
<path class="st40" d="M118.6,218.6l2.1,0.8c-0.2,0.6-0.9,0.9-1.5,0.6C118.6,219.9,118.3,219.2,118.6,218.6L118.6,218.6z"/>
<path class="st40" d="M192.4,203.4c0.6,0.2,1.2,0.1,1.6-0.4c0.3-0.4,0.1-1-0.4-1.2l-0.1-0.1l0,0c-0.2-0.1-3-0.4-3.1-0.4
	c-0.1,0-0.2,0-0.2,0.1c0,0.1,0,0.1,0,0.2c0,0,1.9,1.6,2,1.7l0,0l0,0L192.4,203.4z"/>
<path class="st40" d="M194.7,200.6c0.6-0.2,0.9-0.6,0.8-1.1c-0.2-0.5-0.8-0.8-1.4-0.6c-0.2,0-0.3,0.1-0.5,0.2
	c-0.9,0.5-1.9,0.9-3,1.2c-0.1,0-0.2,0.1-0.2,0.2c0,0,0,0,0,0c0,0.1,0.1,0.1,0.2,0.1C191.9,201.2,193.4,201.1,194.7,200.6z"/>
<path class="st40" d="M193.4,198.6c0.4-0.2,0.5-0.6,0.3-1c0-0.1-0.1-0.1-0.1-0.2c-0.4-0.4-1.1-0.4-1.6-0.1c-0.1,0.1-0.3,0.2-0.4,0.3
	c-0.6,0.8-1.4,1.4-2.2,1.9c-0.1,0.1-0.1,0.2,0,0.2c0.1,0.1,0.1,0.1,0.2,0.1C191.1,199.8,192.4,199.4,193.4,198.6z"/>
<path class="st40" d="M191.5,204.6c0.1,0.4-0.3,0.9-0.9,1c-0.5,0.2-1.1-0.1-1.3-0.6c-0.1-0.1-0.1-0.3,0-0.4c0.2-0.8,0.2-1.7-0.1-2.5
	c0-0.1,0-0.2,0.2-0.2c0.1,0,0.1,0,0.2,0.1C190.7,202.5,191.4,203.5,191.5,204.6z"/>
<path class="st40" d="M188.4,204.9c-0.2,0.5-0.8,0.8-1.3,0.7c-0.6-0.1-1-0.5-0.9-0.9c0-0.2,0.1-0.3,0.2-0.4c0.6-0.7,1-1.5,1.2-2.4
	c0-0.1,0.1-0.2,0.2-0.1c0.1,0,0.1,0.1,0.2,0.1C188.8,202.7,188.9,203.9,188.4,204.9z"/>
<path class="st40" d="M188,201.5l1.2-1.5c0.4,0.1,0.6,0.5,0.5,0.9c0,0.1-0.1,0.2-0.2,0.3C189.2,201.6,188.5,201.7,188,201.5z"/>
<path class="st40" d="M182.6,210.3c0.3,0.3,0.7,0.4,1.1,0.2c0.3-0.2,0.3-0.5,0-0.8l-0.1-0.1l0,0l0,0c-0.1-0.1-1.7-1-1.7-1
	c0,0-0.1,0-0.1,0c0,0,0,0.1,0,0.1L182.6,210.3L182.6,210.3L182.6,210.3L182.6,210.3z"/>
<path class="st40" d="M184.6,209.2c0.3,0.1,0.6-0.1,0.7-0.4c0-0.4-0.3-0.6-0.7-0.7c-0.1,0-0.2,0-0.4,0c-0.7,0.1-1.4,0.1-2.1,0
	c-0.1,0-0.1,0-0.1,0.1c0,0,0,0,0,0c0,0,0,0.1,0.1,0.1C182.9,208.9,183.7,209.2,184.6,209.2z"/>
<path class="st40" d="M184.4,207.7c0.3,0,0.5-0.3,0.4-0.5c0,0,0-0.1,0-0.1c-0.2-0.3-0.5-0.5-0.9-0.4c-0.1,0-0.2,0.1-0.3,0.1
	c-0.6,0.3-1.2,0.5-1.8,0.6c0,0-0.1,0-0.1,0.1c0,0,0,0,0,0c0,0,0.1,0.1,0.1,0.1C182.7,207.9,183.6,207.9,184.4,207.7z"/>
<path class="st40" d="M181.8,210.8c-0.1,0.3-0.4,0.5-0.8,0.4c-0.4,0-0.6-0.3-0.7-0.7c0-0.1,0-0.2,0.1-0.2c0.3-0.4,0.5-0.9,0.6-1.5
	c0-0.1,0.1-0.1,0.1-0.1c0,0,0.1,0,0.1,0.1C181.8,209.3,182,210.1,181.8,210.8z"/>
<path class="st40" d="M180.4,208.3c0,0,0-0.1-0.1-0.1c-0.1,0-0.1,0-0.2,0c-0.3,0.4-0.7,0.7-1.1,1c0.1,0.4,0.2,0.8,0.3,1.2
	c0.2,0,0.4-0.1,0.6-0.2C180.4,209.7,180.6,209,180.4,208.3z"/>
<path class="st40" d="M180.4,208.1l1.1-0.6c0.2,0.2,0.2,0.5,0.1,0.7c0,0-0.1,0.1-0.1,0.1C181.1,208.4,180.7,208.3,180.4,208.1z"/>
<path class="st40" d="M106.5,215.8c0.2-0.4,0.6-1.8,0.6-1.8c0-0.1,0-0.1-0.1-0.1c-0.1,0-0.1,0-0.2,0l-1,0.6
	C106.1,214.9,106.3,215.3,106.5,215.8z"/>
<path class="st40" d="M107.6,216.8c0.2,0.4,0.7,0.6,1.1,0.5c0.5-0.1,0.8-0.5,0.7-0.9c0-0.1-0.1-0.2-0.2-0.3
	c-0.5-0.5-0.9-1.2-1.2-1.9c0-0.1-0.1-0.1-0.2-0.1c-0.1,0-0.1,0-0.1,0.1C107.2,215,107.1,215.9,107.6,216.8z"/>
<path class="st40" d="M110,216c0.4,0.3,0.9,0.3,1.3,0.1c0.3-0.1,0.5-0.5,0.3-0.8c0-0.1-0.1-0.1-0.1-0.2c-0.1-0.1-0.2-0.2-0.4-0.2
	c-0.7-0.4-1.4-0.8-2-1.4c-0.1-0.1-0.2-0.1-0.2,0c-0.1,0-0.1,0.1-0.1,0.1C108.8,214.6,109.2,215.5,110,216z"/>
<path class="st40" d="M106.6,212.3c-0.6-0.1-1.1-0.2-1.6-0.4c0.1,0.3,0.2,0.7,0.2,1c0.5-0.1,1-0.2,1.4-0.4c0.1,0,0.1,0,0.1-0.1
	C106.8,212.4,106.7,212.3,106.6,212.3z"/>
<path class="st40" d="M107,212.5l1.6,0.8c-0.3,0.3-0.9,0.4-1.3,0.2c-0.3-0.1-0.5-0.5-0.4-0.8C106.9,212.6,107,212.5,107,212.5z"/>
<path class="st40" d="M149,224.1c0.2,0.6,0.8,0.9,1.4,0.8c0.6-0.2,0.9-0.8,0.8-1.4c0-0.1,0-0.1-0.1-0.2c0-0.1,0-0.1-0.1-0.1l0,0l0,0
	c-0.1-0.2-1.8-2.4-1.8-2.4c-0.1-0.1-0.1-0.1-0.2-0.1c-0.1,0-0.1,0.1-0.1,0.2c0,0,0.1,2.9,0.1,3v0.1l0,0C149,224,149,224.1,149,224.1
	z"/>
<path class="st40" d="M152.8,222.9c0.5,0.2,1.1,0,1.4-0.6c0.3-0.5,0-1.2-0.5-1.4c-0.2-0.1-0.3-0.1-0.5-0.1c-1.1-0.1-2.1-0.3-3.1-0.8
	c-0.1,0-0.2,0-0.3,0.1c0,0,0,0,0,0c0,0.1,0,0.2,0,0.2C150.4,221.6,151.5,222.5,152.8,222.9z"/>
<path class="st40" d="M153.5,220c0.6,0,1.1-0.5,1.1-1.1c0-0.6-0.5-1.1-1.1-1.1c-0.2,0-0.4,0-0.5,0.1c-1,0.4-2,0.5-3.1,0.5
	c-0.1,0-0.2,0.1-0.2,0.2c0,0.1,0,0.1,0.1,0.2C150.8,219.7,152.2,220.2,153.5,220z"/>
<path class="st40" d="M147.5,224.8c-0.3,0.5-0.9,0.7-1.5,0.5s-0.7-0.9-0.5-1.5l0,0c0.1-0.2,0.2-0.3,0.3-0.4c0.8-0.7,1.4-1.6,1.9-2.5
	c0-0.1,0.2-0.1,0.3-0.1c0.1,0,0.1,0.1,0.1,0.2C148.5,222.3,148.2,223.7,147.5,224.8z"/>
<path class="st40" d="M145,223.1c-0.5,0.4-1.2,0.3-1.5-0.1c-0.4-0.5-0.3-1.2,0.1-1.5c0.1-0.1,0.3-0.2,0.5-0.2c1-0.3,1.9-0.9,2.7-1.6
	c0.1-0.1,0.2-0.1,0.3,0c0,0.1,0,0.2,0,0.2C146.9,221.1,146.1,222.3,145,223.1z"/>
<path class="st40" d="M147.3,219.4l2.1-0.8c0.2,0.6-0.1,1.2-0.7,1.4S147.5,219.9,147.3,219.4L147.3,219.4z"/>
<path class="st40" d="M133.9,224.4c0.1,0.6,0.6,1,1.2,1c0.6,0,1-0.4,1-1c0,0,0-0.1,0-0.1l0,0l0,0c0-0.1-1.1-2.4-1.1-2.4
	c0-0.1-0.1-0.1-0.2-0.1c-0.1,0-0.1,0-0.2,0.1C134.7,221.9,134,224.2,133.9,224.4L133.9,224.4L133.9,224.4
	C133.9,224.4,133.9,224.4,133.9,224.4z"/>
<path class="st40" d="M137.8,224.4c0.4,0.3,1,0.3,1.4-0.1c0.3-0.3,0.4-0.8,0.1-1.1c0-0.1-0.1-0.1-0.2-0.1c-0.1-0.1-0.3-0.2-0.5-0.2
	c-1-0.3-1.9-0.8-2.7-1.3c-0.1-0.1-0.2-0.1-0.3,0c0,0.1,0,0.1,0,0.2C136,222.9,136.7,223.9,137.8,224.4z"/>
<path class="st40" d="M139.3,222.3c0.5,0.1,1-0.1,1.3-0.6c0.1-0.5-0.1-1-0.6-1.1c0,0-0.1,0-0.1,0c-0.2,0-0.3,0-0.5,0
	c-1,0-2.1-0.1-3.1-0.4c-0.1,0-0.2,0-0.2,0.1c0,0.1,0,0.1,0.1,0.2C136.9,221.5,138,222.2,139.3,222.3z"/>
<path class="st40" d="M132.2,224.6c-0.4,0.3-1,0.3-1.5,0c-0.4-0.2-0.5-0.7-0.2-1.1c0-0.1,0.1-0.1,0.1-0.2c0.1-0.1,0.3-0.2,0.4-0.2
	c0.9-0.3,1.7-0.9,2.5-1.5c0.1-0.1,0.2-0.1,0.3,0c0.1,0,0.1,0.1,0.1,0.2C133.9,222.9,133.2,224,132.2,224.6z"/>
<path class="st40" d="M130.4,222.6c-0.5,0.2-1.1,0-1.4-0.5c-0.2-0.4,0-0.9,0.4-1.1c0,0,0.1,0,0.1-0.1c0.2-0.1,0.3-0.1,0.5-0.1
	c1,0,2-0.2,3-0.6c0.1,0,0.2,0,0.3,0.1c0,0.1,0,0.1,0,0.2C132.7,221.6,131.6,222.4,130.4,222.6z"/>
<path class="st40" d="M133.6,220.3l2.2-0.1c0,0.5-0.5,0.9-1,0.9C134.2,221.2,133.7,220.8,133.6,220.3z"/>
<path class="st40" d="M81.1,216.6c0.2,0.5,0.7,0.8,1.2,0.8c0.6,0,0.9-0.4,0.8-0.8c0,0,0-0.1,0-0.1l0,0l0,0c-0.1-0.1-1.3-1.8-1.3-1.9
	c0-0.1-0.1-0.1-0.2-0.1c-0.1,0-0.1,0-0.1,0.1s-0.4,1.8-0.4,1.9l0,0l0,0C81.1,216.6,81.1,216.6,81.1,216.6z"/>
<path class="st40" d="M84.1,215c-0.5-0.2-0.9-0.4-1.4-0.6c-0.1-0.1-0.2-0.1-0.3,0c0,0,0,0.1,0,0.1c0,0,0,0,0,0
	c0.4,0.8,1,1.5,1.8,1.9C84.2,215.9,84.1,215.5,84.1,215L84.1,215z"/>
<path class="st40" d="M84.1,214.3c0-0.2,0-0.4,0-0.7c-0.4,0-0.8-0.1-1.2-0.2c-0.1,0-0.2,0-0.2,0.1c0,0.1,0,0.1,0.1,0.1
	c0.4,0.4,0.9,0.7,1.4,0.9L84.1,214.3z"/>
<path class="st40" d="M79.5,216.8c-0.4,0.3-1,0.3-1.4,0c-0.5-0.3-0.6-0.7-0.2-1c0.1-0.1,0.2-0.2,0.4-0.2c0.8-0.2,1.5-0.6,2.2-1.1
	c0.1-0.1,0.2-0.1,0.3,0c0.1,0,0.1,0.1,0.1,0.1C80.9,215.5,80.4,216.4,79.5,216.8z"/>
<path class="st40" d="M77.6,215.2c-0.5,0.1-1,0-1.3-0.4c-0.3-0.4-0.2-0.8,0.3-0.9c0.2-0.1,0.3-0.1,0.5-0.1c0.9,0,1.9-0.1,2.8-0.4
	c0.1,0,0.2,0,0.3,0.1c0,0,0,0.1,0,0.1C79.5,214.6,78.6,215.1,77.6,215.2z"/>
<path class="st40" d="M80.3,213.4h2.1c0.1,0.4-0.3,0.7-0.8,0.7C81,214.2,80.5,213.9,80.3,213.4z"/>
<path class="st40" d="M54.7,209.4c0,0.2,0.1,0.3,0.2,0.4c0.5,0.5,1.2,0.4,1.7-0.1l0.1-0.1l0,0v-0.1c0.1-0.1,1.5-2.8,1.6-2.8
	C57.7,207.2,56.3,208.1,54.7,209.4z"/>
<path class="st40" d="M57.8,211.1c0,0.6,0.5,1.1,1.1,1.1c0.6,0,1.1-0.5,1.1-1.1c0-0.2,0-0.4-0.1-0.5c-0.4-1-0.6-2.1-0.6-3.2
	c0-0.1-0.1-0.2-0.2-0.2c-0.1,0-0.2,0-0.2,0.1C58,208.3,57.6,209.7,57.8,211.1z"/>
<path class="st40" d="M60.8,210.6c0.3,0.5,0.9,0.8,1.4,0.6c0.6-0.2,0.9-0.9,0.6-1.5c-0.1-0.2-0.2-0.3-0.3-0.4
	c-0.8-0.8-1.4-1.7-1.8-2.7c0-0.1-0.2-0.2-0.3-0.1c-0.1,0-0.1,0.1-0.1,0.2C59.9,207.9,60.1,209.4,60.8,210.6z"/>
<path class="st40" d="M59,206.3c0.4,0.2,1,0.2,1.3-0.2l-0.4-0.4C59.6,205.8,59.5,206,59,206.3z"/>
<path class="st41" d="M170.6,232.4c6.6,0.1,12.1-7.5,12.3-16.9s-5.2-17.1-11.8-17.2s-12.2,7.5-12.3,16.9S164,232.3,170.6,232.4z"/>
<path class="st42" d="M173.9,200.2c0.9,4.7,1.3,9.4,1.1,14.2c-0.4,5.5-1.2,11-2.6,16.4c0,0,1.3-10.6,1.6-15.6
	S173.9,200.2,173.9,200.2z"/>
<path class="st41" d="M94.6,232.3c-6.6,0.8-12.9-6.2-14-15.5s3.4-17.6,10-18.3s12.9,6.2,14,15.5S101.2,231.5,94.6,232.3z"/>
<path class="st42" d="M88,200.7c-0.2,4.8,0.2,9.5,1.2,14.2c1.2,5.4,3,10.7,5.2,15.8c0,0-3-10.2-4-15.1S88,200.7,88,200.7z"/>
<path class="st43" d="M151,121.3c6.4,3,12,7.4,16.5,12.9c2.9,4.1,5,8.7,6.3,13.6c-1.2-2.1-2.9-3.9-5-5.2
	C165.5,140.9,163,131.8,151,121.3z"/>
<path class="st43" d="M154.8,150.7c-0.4,2.6-0.3,5.2,0.3,7.8c-2.4-2.3-4.8-4.8-6.9-7.4c-1-4.6-1.4-9.3-1.2-14
	C147.7,137.4,149.9,148.4,154.8,150.7z"/>
<path class="st13" d="M106.8,121.3c-6.4,3-12,7.4-16.5,12.9c-2.9,4.1-5,8.7-6.3,13.6c1.2-2.1,2.9-3.9,5-5.2c3.9-2.1,8.7-1.2,11.6,2
	c0,0,4.1,5.5,2.1,13.9c2.4-2.3,4.8-4.8,6.9-7.4C109.7,151.2,113.9,132.9,106.8,121.3z"/>
<path class="st4" d="M83.2,151.2c-0.6,5.3,0,12.7,8.1,14.1c0,0,6.8,1.6,11.3-6.8c0,0,3.5-14-7.2-16.8c0,0-3-1-7,1.2
	C85.5,144.7,83.6,147.8,83.2,151.2z"/>
<path class="st8" d="M92.2,165.2c-0.1,0-0.2-0.1-0.2-0.2c0,0-0.1-0.5-0.1-1.4c0-0.1,0.1-0.2,0.2-0.2c0.1,0,0.2,0.1,0.2,0.2
	c0.1,0.9,0.1,1.3,0.1,1.3C92.4,165.1,92.3,165.2,92.2,165.2L92.2,165.2z M92,162.6c-0.1,0-0.2-0.1-0.2-0.2l0,0c0-0.4,0-0.9,0-1.4
	c0-0.1,0.1-0.2,0.2-0.2l0,0l0,0c0.1,0,0.2,0.1,0.2,0.2c0,0,0,0,0,0c0,0.5,0,0.9,0,1.3C92.2,162.5,92.1,162.6,92,162.6
	C92,162.6,92,162.6,92,162.6L92,162.6z M92,159.9L92,159.9c-0.1,0-0.2-0.1-0.2-0.2c0,0,0,0,0,0c0-0.4,0-0.9,0.1-1.3
	c0-0.1,0.1-0.2,0.2-0.2c0,0,0,0,0,0c0.1,0,0.2,0.1,0.2,0.2c0,0,0,0,0,0c0,0.5,0,0.9,0,1.3C92.3,159.8,92.2,159.9,92,159.9
	C92,159.9,92,159.9,92,159.9z M92.1,157.2L92.1,157.2c-0.1,0-0.2-0.1-0.2-0.2c0,0,0,0,0,0c0-0.4,0.1-0.9,0.1-1.4
	c0-0.1,0.2-0.2,0.3-0.2c0.1,0,0.2,0.1,0.2,0.2c-0.1,0.4-0.1,0.9-0.1,1.3C92.3,157.1,92.2,157.2,92.1,157.2
	C92.1,157.2,92.1,157.2,92.1,157.2L92.1,157.2z M92.4,154.5L92.4,154.5c-0.1,0-0.2-0.1-0.2-0.2c0,0,0,0,0,0c0.1-0.4,0.1-0.9,0.2-1.3
	c0-0.1,0.1-0.2,0.2-0.2c0,0,0,0,0,0c0.1,0,0.2,0.1,0.2,0.2c0,0,0,0,0,0c-0.1,0.4-0.1,0.9-0.2,1.3C92.6,154.4,92.5,154.5,92.4,154.5
	C92.4,154.5,92.4,154.5,92.4,154.5L92.4,154.5z M92.8,151.9L92.8,151.9c-0.1,0-0.2-0.1-0.2-0.3c0.1-0.4,0.2-0.9,0.2-1.3
	c0-0.1,0.1-0.2,0.2-0.2c0,0,0,0,0,0c0.1,0,0.2,0.1,0.2,0.3c-0.1,0.4-0.2,0.9-0.2,1.3C93,151.8,92.9,151.9,92.8,151.9
	C92.8,151.9,92.8,151.9,92.8,151.9L92.8,151.9z M93.3,149.2L93.3,149.2c-0.1,0-0.2-0.1-0.2-0.3c0.1-0.4,0.2-0.9,0.3-1.3
	c0-0.1,0.1-0.2,0.3-0.2c0.1,0,0.2,0.1,0.2,0.3c0,0,0,0,0,0c-0.1,0.4-0.2,0.9-0.3,1.3C93.5,149.2,93.4,149.2,93.3,149.2
	C93.3,149.2,93.3,149.2,93.3,149.2L93.3,149.2z M93.9,146.6L93.9,146.6c-0.2,0-0.3-0.1-0.2-0.3c0,0,0,0,0,0L94,145
	c0-0.1,0.2-0.2,0.3-0.2c0,0,0,0,0,0c0.1,0,0.2,0.2,0.2,0.3c0,0,0,0,0,0l-0.4,1.3C94.1,146.5,94,146.6,93.9,146.6L93.9,146.6z
	 M94.7,144L94.7,144c-0.2,0-0.2-0.2-0.2-0.3c0,0,0,0,0,0c0.1-0.4,0.3-0.9,0.4-1.3c0-0.1,0.2-0.2,0.3-0.1c0.1,0,0.2,0.2,0.1,0.3
	c-0.2,0.4-0.3,0.9-0.4,1.3C94.8,144,94.7,144,94.7,144L94.7,144z"/>
<path class="st43" d="M103,151c0.4,2.5,0.3,5.1-0.3,7.5c2.4-2.3,4.8-4.8,6.9-7.4c1-4.6,1.4-9.4,1.2-14.1
	C110.8,135.5,107.7,146.9,103,151z"/>
<path class="st43" d="M106.8,121.3c-6.4,3-12,7.4-16.5,12.9c-2.9,4.1-5,8.7-6.3,13.6c1.2-2.1,2.9-3.9,5-5.2
	C92.2,140.9,88.2,137,106.8,121.3z"/>
<path class="st44" d="M129.5,149c0-0.3,0.2-0.5,0.5-0.5l0,0c0.3,0,0.5,0.2,0.5,0.5c0,0,0,0,0,0v7.4c0,0.3-0.2,0.5-0.5,0.5h0l0,0
	c-0.3,0-0.5-0.2-0.5-0.5V149z"/>
<path class="st44" d="M128.6,149c0-0.3,0.2-0.5,0.4-0.5c0,0,0,0,0,0l0,0c0.3,0,0.5,0.2,0.5,0.5v7.4c0,0.3-0.2,0.5-0.5,0.5l0,0
	c-0.3,0-0.5-0.2-0.5-0.5v0V149z"/>
<path class="st44" d="M131.4,150.3c0-0.3,0.2-0.5,0.5-0.5c0,0,0,0,0,0l0,0c0.3,0,0.5,0.2,0.5,0.5v0v7.4c0,0.3-0.2,0.5-0.5,0.5l0,0
	c-0.3,0-0.5-0.2-0.5-0.5V150.3z"/>
<path class="st44" d="M130.4,150.3c0-0.3,0.2-0.5,0.5-0.5h0l0,0c0.3,0,0.5,0.2,0.5,0.4c0,0,0,0,0,0v7.4c0,0.3-0.2,0.5-0.5,0.5l0,0
	c-0.3,0-0.5-0.2-0.5-0.5V150.3z"/>
<path class="st45" d="M133.2,152.2c0-0.3,0.2-0.5,0.5-0.5l0,0c0.3,0,0.5,0.2,0.5,0.5v0v7.4c0,0.3-0.2,0.5-0.4,0.5c0,0,0,0,0,0l0,0
	c-0.3,0-0.5-0.2-0.5-0.5V152.2z"/>
<path class="st45" d="M132.3,152.2c0-0.3,0.2-0.5,0.5-0.5h0l0,0c0.3,0,0.5,0.2,0.5,0.5v7.4c0,0.3-0.2,0.5-0.5,0.5l0,0
	c-0.3,0-0.5-0.2-0.5-0.5c0,0,0,0,0,0V152.2z"/>
<path class="st45" d="M135.1,153.3c0-0.3,0.2-0.5,0.5-0.5c0,0,0,0,0,0l0,0c0.3,0,0.5,0.2,0.5,0.5v0v7.4c0,0.3-0.2,0.5-0.5,0.5l0,0
	c-0.3,0-0.5-0.2-0.5-0.5V153.3z"/>
<path class="st45" d="M134.2,153.3c0-0.3,0.2-0.5,0.5-0.5h0l0,0c0.3,0,0.5,0.2,0.5,0.4c0,0,0,0,0,0v7.4c0,0.3-0.2,0.5-0.5,0.5l0,0
	c-0.3,0-0.5-0.2-0.5-0.5V153.3z"/>
<path class="st45" d="M137,154.3c0-0.3,0.2-0.5,0.5-0.5h0l0,0c0.3,0,0.5,0.2,0.5,0.5v0v7.4c0,0.3-0.2,0.5-0.4,0.5c0,0,0,0,0,0l0,0
	c-0.3,0-0.5-0.2-0.5-0.5c0,0,0,0,0,0V154.3z"/>
<path class="st45" d="M136,154.3c0-0.3,0.2-0.5,0.5-0.5h0l0,0c0.3,0,0.5,0.2,0.5,0.5v7.4c0,0.3-0.2,0.5-0.5,0.5l0,0
	c-0.3,0-0.5-0.2-0.5-0.5c0,0,0,0,0,0V154.3z"/>
<path class="st45" d="M122.1,154.3c0-0.3,0.2-0.5,0.5-0.5l0,0c0.3,0,0.5,0.2,0.5,0.5v7.4c0,0.3-0.2,0.5-0.5,0.5l0,0l0,0
	c-0.3,0-0.5-0.2-0.5-0.5V154.3z"/>
<path class="st45" d="M121.1,154.3c0-0.3,0.2-0.5,0.5-0.5l0,0c0.3,0,0.5,0.2,0.5,0.5l0,0v7.4c0,0.3-0.2,0.5-0.4,0.5c0,0,0,0,0,0l0,0
	c-0.3,0-0.5-0.2-0.5-0.5V154.3z"/>
<path class="st45" d="M123.9,153.3c0-0.3,0.2-0.5,0.5-0.5c0,0,0,0,0,0l0,0c0.3,0,0.5,0.2,0.5,0.5l0,0v7.4c0,0.3-0.2,0.5-0.5,0.5l0,0
	c-0.3,0-0.5-0.2-0.5-0.5V153.3z"/>
<path class="st45" d="M123,153.3c0-0.3,0.2-0.5,0.5-0.5c0,0,0,0,0,0l0,0c0.3,0,0.5,0.2,0.5,0.5l0,0v7.4c0,0.3-0.2,0.5-0.5,0.5l0,0
	c-0.3,0-0.5-0.2-0.5-0.5V153.3z"/>
<path class="st45" d="M125.8,152.2c0-0.3,0.2-0.5,0.5-0.5l0,0c0.3,0,0.5,0.2,0.5,0.5l0,0v7.4c0,0.3-0.2,0.5-0.4,0.5c0,0,0,0,0,0l0,0
	c-0.3,0-0.5-0.2-0.5-0.5V152.2z"/>
<path class="st45" d="M124.8,152.2c0-0.3,0.2-0.5,0.5-0.5h0l0,0c0.3,0,0.5,0.2,0.5,0.5l0,0v7.4c0,0.3-0.2,0.5-0.4,0.5c0,0,0,0,0,0
	l0,0c-0.3,0-0.5-0.2-0.5-0.5c0,0,0,0,0,0V152.2z"/>
<path class="st44" d="M127.6,150.3c0-0.3,0.2-0.5,0.5-0.5c0,0,0,0,0,0l0,0c0.3,0,0.5,0.2,0.5,0.5v0v7.4c0,0.3-0.2,0.5-0.5,0.5l0,0
	c-0.3,0-0.5-0.2-0.5-0.5V150.3z"/>
<path class="st44" d="M126.7,150.3c0-0.3,0.2-0.5,0.5-0.5h0l0,0c0.3,0,0.5,0.2,0.5,0.4c0,0,0,0,0,0v7.4c0,0.3-0.2,0.5-0.5,0.5l0,0
	c-0.3,0-0.5-0.2-0.5-0.5V150.3z"/>
<path class="st44" d="M129.5,145.5c0,0.3-0.2,0.5-0.5,0.5l0,0c-0.3,0-0.5-0.2-0.5-0.5c0,0,0,0,0,0v-7.4c0-0.3,0.2-0.5,0.5-0.5h0l0,0
	c0.3,0,0.5,0.2,0.5,0.5V145.5z"/>
<path class="st44" d="M130.4,145.5c0,0.3-0.2,0.5-0.4,0.5c0,0,0,0,0,0l0,0c-0.3,0-0.5-0.2-0.5-0.5v-7.4c0-0.3,0.2-0.5,0.5-0.5l0,0
	c0.3,0,0.5,0.2,0.5,0.5v0V145.5z"/>
<path class="st44" d="M127.6,144.2c0,0.3-0.2,0.5-0.5,0.5c0,0,0,0,0,0l0,0c-0.3,0-0.5-0.2-0.5-0.5l0,0v-7.4c0-0.3,0.2-0.5,0.5-0.5
	l0,0c0.3,0,0.5,0.2,0.5,0.5V144.2z"/>
<path class="st44" d="M128.6,144.2c0,0.3-0.2,0.5-0.5,0.5h0l0,0c-0.3,0-0.5-0.2-0.5-0.4c0,0,0,0,0,0v-7.4c0-0.3,0.2-0.5,0.5-0.5l0,0
	c0.3,0,0.5,0.2,0.5,0.5V144.2z"/>
<path class="st45" d="M125.8,142.3c0,0.3-0.2,0.5-0.4,0.5c0,0,0,0,0,0l0,0c-0.3,0-0.5-0.2-0.5-0.5c0,0,0,0,0,0v-7.4
	c0-0.3,0.2-0.5,0.4-0.5c0,0,0,0,0,0l0,0c0.3,0,0.5,0.2,0.5,0.5c0,0,0,0,0,0V142.3z"/>
<path class="st45" d="M126.7,142.3c0,0.3-0.2,0.5-0.4,0.5c0,0,0,0,0,0l0,0c-0.3,0-0.5-0.2-0.5-0.5v-7.4c0-0.3,0.2-0.5,0.5-0.5l0,0
	c0.3,0,0.5,0.2,0.5,0.5c0,0,0,0,0,0V142.3z"/>
<path class="st45" d="M123.9,141.2c0,0.3-0.2,0.5-0.5,0.5h0l0,0c-0.3,0-0.5-0.2-0.5-0.4c0,0,0,0,0,0v-7.4c0-0.3,0.2-0.5,0.5-0.5l0,0
	c0.3,0,0.5,0.2,0.5,0.5V141.2z"/>
<path class="st45" d="M124.8,141.2c0,0.3-0.2,0.5-0.5,0.5h0l0,0c-0.3,0-0.5-0.2-0.5-0.4c0,0,0,0,0,0v-7.4c0-0.3,0.2-0.5,0.5-0.5l0,0
	c0.3,0,0.5,0.2,0.5,0.5V141.2z"/>
<path class="st45" d="M122,140.1c0,0.3-0.2,0.5-0.4,0.5c0,0,0,0,0,0l0,0c-0.3,0-0.5-0.2-0.5-0.5v-7.4c0-0.3,0.2-0.5,0.5-0.5l0,0
	c0.3,0,0.5,0.2,0.5,0.5c0,0,0,0,0,0V140.1z"/>
<path class="st45" d="M123,140.1c0,0.3-0.2,0.5-0.5,0.5l0,0l0,0c-0.3,0-0.5-0.2-0.5-0.5v-7.4c0-0.3,0.2-0.5,0.5-0.5l0,0
	c0.3,0,0.5,0.2,0.5,0.5l0,0V140.1z"/>
<path class="st45" d="M137,140.1c0,0.3-0.2,0.5-0.5,0.5l0,0c-0.3,0-0.5-0.2-0.5-0.5l0,0v-7.4c0-0.3,0.2-0.5,0.5-0.5l0,0l0,0
	c0.3,0,0.5,0.2,0.5,0.5V140.1z"/>
<path class="st45" d="M137.9,140.1c0,0.3-0.2,0.5-0.4,0.5c0,0,0,0,0,0l0,0c-0.3,0-0.5-0.2-0.5-0.5c0,0,0,0,0,0v-7.4
	c0-0.3,0.2-0.5,0.4-0.5c0,0,0,0,0,0l0,0c0.3,0,0.5,0.2,0.5,0.5c0,0,0,0,0,0V140.1z"/>
<path class="st45" d="M135.1,141.2c0,0.3-0.2,0.5-0.5,0.5c0,0,0,0,0,0l0,0c-0.3,0-0.5-0.2-0.5-0.5v0v-7.4c0-0.3,0.2-0.5,0.5-0.5l0,0
	c0.3,0,0.5,0.2,0.5,0.5V141.2z"/>
<path class="st45" d="M136,141.2c0,0.3-0.2,0.5-0.5,0.5h0l0,0c-0.3,0-0.5-0.2-0.5-0.4c0,0,0,0,0,0v-7.4c0-0.3,0.2-0.5,0.5-0.5l0,0
	c0.3,0,0.5,0.2,0.5,0.5V141.2z"/>
<path class="st45" d="M133.2,142.3c0,0.3-0.2,0.5-0.5,0.5l0,0c-0.3,0-0.5-0.2-0.5-0.5c0,0,0,0,0,0v-7.4c0-0.3,0.2-0.5,0.4-0.5
	c0,0,0,0,0,0l0,0c0.3,0,0.5,0.2,0.5,0.5V142.3z"/>
<path class="st45" d="M134.2,142.3c0,0.3-0.2,0.5-0.4,0.5c0,0,0,0,0,0l0,0c-0.3,0-0.5-0.2-0.5-0.5v-7.4c0-0.3,0.2-0.5,0.5-0.5l0,0
	c0.3,0,0.5,0.2,0.5,0.5c0,0,0,0,0,0V142.3z"/>
<path class="st44" d="M131.4,144.2c0,0.3-0.2,0.5-0.5,0.5c0,0,0,0,0,0l0,0c-0.3,0-0.5-0.2-0.5-0.5v0v-7.4c0-0.3,0.2-0.5,0.5-0.5l0,0
	c0.3,0,0.5,0.2,0.5,0.5V144.2z"/>
<path class="st44" d="M132.3,144.2c0,0.3-0.2,0.5-0.5,0.5h0l0,0c-0.3,0-0.5-0.2-0.5-0.4c0,0,0,0,0,0v-7.4c0-0.3,0.2-0.5,0.5-0.5l0,0
	c0.3,0,0.5,0.2,0.5,0.5V144.2z"/>
<path class="st31" d="M126.9,148.9c0,0.3-0.2,0.5-0.5,0.5l0,0c-0.3,0-0.5-0.2-0.5-0.5v-3.7c0-0.3,0.2-0.5,0.5-0.5l0,0l0,0
	c0.3,0,0.5,0.2,0.5,0.5V148.9z"/>
<path class="st44" d="M120.3,146.5c0,0.3-0.2,0.5-0.5,0.5l0,0c-0.3,0-0.5-0.2-0.5-0.5l0,0V141c0-0.3,0.2-0.5,0.5-0.5c0,0,0,0,0,0
	l0,0c0.3,0,0.5,0.2,0.5,0.5l0,0V146.5z"/>
<path class="st44" d="M119.4,145.8c0,0.3-0.2,0.5-0.5,0.5l0,0c-0.3,0-0.5-0.2-0.5-0.5V141c0-0.3,0.2-0.5,0.5-0.5h0l0,0
	c0.3,0,0.5,0.2,0.5,0.4c0,0,0,0,0,0V145.8z"/>
<path class="st44" d="M118.5,145.4c0,0.3-0.2,0.5-0.5,0.5l0,0c-0.3,0-0.5-0.2-0.5-0.5V141c0-0.3,0.2-0.5,0.5-0.5c0,0,0,0,0,0l0,0
	c0.3,0,0.5,0.2,0.5,0.5l0,0V145.4z"/>
<path class="st44" d="M117.6,145c0,0.3-0.2,0.5-0.4,0.5c0,0,0,0,0,0l0,0c-0.3,0-0.5-0.2-0.5-0.5v-4c0-0.3,0.2-0.5,0.5-0.5h0l0,0
	c0.2,0,0.5,0.2,0.5,0.4c0,0,0,0,0,0V145z"/>
<path class="st44" d="M116.6,144.4c0,0.3-0.2,0.5-0.5,0.5h0l0,0c-0.2,0-0.5-0.2-0.5-0.4c0,0,0,0,0,0V141c0-0.2,0.2-0.5,0.4-0.5
	c0,0,0,0,0,0l0,0c0.3,0,0.5,0.2,0.5,0.5l0,0V144.4z"/>
<path class="st45" d="M115.7,143.3c0,0.3-0.2,0.5-0.4,0.5c0,0,0,0,0,0l0,0c-0.3,0-0.5-0.2-0.5-0.5V141c0-0.3,0.2-0.5,0.5-0.5h0l0,0
	c0.2,0,0.5,0.2,0.5,0.4c0,0,0,0,0,0V143.3z"/>
<path class="st45" d="M114.8,142.2c0,0.3-0.2,0.5-0.4,0.5c0,0,0,0,0,0l0,0c-0.3,0-0.5-0.2-0.5-0.5c0,0,0,0,0,0V141
	c0-0.2,0.2-0.5,0.4-0.5c0,0,0,0,0,0l0,0c0.2,0,0.5,0.2,0.5,0.4c0,0,0,0,0,0V142.2z"/>
<path class="st45" d="M113.8,141.8c0,0.3-0.2,0.5-0.5,0.5l0,0c-0.3,0-0.5-0.2-0.5-0.5V141c0-0.3,0.2-0.5,0.5-0.5c0,0,0,0,0,0l0,0
	c0.3,0,0.5,0.2,0.5,0.5l0,0V141.8z"/>
<path class="st44" d="M120.3,148c0-0.3-0.2-0.5-0.5-0.5l0,0c-0.3,0-0.5,0.2-0.5,0.5l0,0v5.4c0,0.3,0.2,0.5,0.5,0.5c0,0,0,0,0,0l0,0
	c0.3,0,0.5-0.2,0.5-0.5l0,0V148z"/>
<path class="st44" d="M119.4,148.6c0-0.3-0.2-0.5-0.5-0.5l0,0c-0.3,0-0.5,0.2-0.5,0.5v4.8c0,0.3,0.2,0.5,0.5,0.5h0l0,0
	c0.3,0,0.5-0.2,0.5-0.4c0,0,0,0,0,0V148.6z"/>
<path class="st44" d="M118.5,149.1c0-0.3-0.2-0.5-0.5-0.5h0l0,0c-0.3,0-0.5,0.2-0.5,0.4c0,0,0,0,0,0v4.4c0,0.3,0.2,0.5,0.5,0.5
	c0,0,0,0,0,0l0,0c0.3,0,0.5-0.2,0.5-0.5l0,0V149.1z"/>
<path class="st44" d="M117.6,149.5c0-0.3-0.2-0.5-0.4-0.5c0,0,0,0,0,0l0,0c-0.3,0-0.5,0.2-0.5,0.5v3.9c0,0.3,0.2,0.5,0.5,0.5h0l0,0
	c0.2,0,0.5-0.2,0.5-0.4c0,0,0,0,0,0V149.5z"/>
<path class="st44" d="M116.6,150.1c0-0.3-0.2-0.5-0.5-0.5h0l0,0c-0.2,0-0.5,0.2-0.5,0.4c0,0,0,0,0,0v3.4c0,0.2,0.2,0.5,0.4,0.5
	c0,0,0,0,0,0l0,0c0.3,0,0.5-0.2,0.5-0.5l0,0V150.1z"/>
<path class="st45" d="M115.7,151.2c0-0.3-0.2-0.5-0.4-0.5c0,0,0,0,0,0l0,0c-0.3,0-0.5,0.2-0.5,0.5v2.3c0,0.3,0.2,0.5,0.5,0.5h0l0,0
	c0.2,0,0.5-0.2,0.5-0.4c0,0,0,0,0,0V151.2z"/>
<path class="st45" d="M114.8,152.2c0-0.3-0.2-0.5-0.4-0.5c0,0,0,0,0,0l0,0c-0.3,0-0.5,0.2-0.5,0.5c0,0,0,0,0,0v1.2
	c0,0.2,0.2,0.5,0.4,0.5c0,0,0,0,0,0l0,0c0.2,0,0.5-0.2,0.5-0.4c0,0,0,0,0,0V152.2z"/>
<path class="st45" d="M113.8,152.7c0-0.3-0.2-0.5-0.5-0.5l0,0c-0.3,0-0.5,0.2-0.5,0.5v0.8c0,0.3,0.2,0.5,0.5,0.5c0,0,0,0,0,0l0,0
	c0.3,0,0.5-0.2,0.5-0.5l0,0V152.7z"/>
<path class="st31" d="M126,148.9c0,0.3-0.2,0.5-0.5,0.5l0,0c-0.3,0-0.5-0.2-0.5-0.5v-3.7c0-0.3,0.2-0.5,0.5-0.5l0,0
	c0.3,0,0.5,0.2,0.5,0.5l0,0V148.9z"/>
<path class="st31" d="M125,150c0,0.3-0.2,0.5-0.5,0.5l0,0l0,0c-0.3,0-0.5-0.2-0.5-0.5v-5.9c0-0.3,0.2-0.5,0.5-0.5h0l0,0
	c0.3,0,0.5,0.2,0.5,0.4c0,0,0,0,0,0V150z"/>
<path class="st31" d="M124.1,150c0,0.3-0.2,0.5-0.5,0.5l0,0l0,0c-0.3,0-0.5-0.2-0.5-0.5v-5.9c0-0.3,0.2-0.5,0.5-0.5h0l0,0
	c0.3,0,0.5,0.2,0.5,0.4c0,0,0,0,0,0V150z"/>
<path class="st31" d="M123.1,151.1c0,0.3-0.2,0.5-0.5,0.5l0,0l0,0c-0.3,0-0.5-0.2-0.5-0.5v-8c0-0.3,0.2-0.5,0.5-0.5l0,0
	c0.3,0,0.5,0.2,0.5,0.5V151.1z"/>
<path class="st31" d="M122.2,151.1c0,0.3-0.2,0.5-0.4,0.5c0,0,0,0,0,0l0,0c-0.3,0-0.5-0.2-0.5-0.5v-8c0-0.3,0.2-0.5,0.5-0.5l0,0
	c0.3,0,0.5,0.2,0.5,0.5l0,0V151.1z"/>
<path class="st31" d="M121.3,152.2c0,0.3-0.2,0.5-0.5,0.5h0l0,0c-0.2,0-0.5-0.2-0.5-0.4c0,0,0,0,0,0V142c0-0.3,0.2-0.5,0.5-0.5h0
	l0,0c0.3,0,0.5,0.2,0.5,0.5V152.2z"/>
<path class="st31" d="M132.1,145.6c0-0.3,0.2-0.5,0.5-0.5l0,0c0.3,0,0.5,0.2,0.5,0.5v3.7c0,0.3-0.2,0.5-0.5,0.5l0,0
	c-0.3,0-0.5-0.2-0.5-0.5l0,0V145.6z"/>
<path class="st44" d="M138.6,148c0-0.3,0.2-0.5,0.5-0.5l0,0l0,0c0.3,0,0.5,0.2,0.5,0.5v5.4c0,0.3-0.2,0.5-0.5,0.5h0l0,0
	c-0.3,0-0.5-0.2-0.5-0.4c0,0,0,0,0,0V148z"/>
<path class="st44" d="M139.6,148.6c0-0.3,0.2-0.5,0.5-0.5l0,0c0.3,0,0.5,0.2,0.5,0.5v4.8c0,0.3-0.2,0.5-0.5,0.5h0l0,0
	c-0.3,0-0.5-0.2-0.5-0.4c0,0,0,0,0,0V148.6z"/>
<path class="st44" d="M140.5,149.1c0-0.3,0.2-0.5,0.5-0.5c0,0,0,0,0,0l0,0c0.3,0,0.5,0.2,0.5,0.5v0v4.4c0,0.3-0.2,0.5-0.5,0.5h0l0,0
	c-0.3,0-0.5-0.2-0.5-0.4c0,0,0,0,0,0V149.1z"/>
<path class="st44" d="M141.4,149.5c0-0.3,0.2-0.5,0.5-0.5l0,0c0.3,0,0.5,0.2,0.5,0.5c0,0,0,0,0,0v3.9c0,0.2-0.2,0.5-0.4,0.5
	c0,0,0,0,0,0l0,0c-0.3,0-0.5-0.2-0.5-0.5v0V149.5z"/>
<path class="st44" d="M142.4,150.1c0-0.3,0.2-0.5,0.5-0.5h0l0,0c0.3,0,0.5,0.2,0.5,0.4c0,0,0,0,0,0v3.4c0,0.3-0.2,0.5-0.5,0.5
	c0,0,0,0,0,0l0,0c-0.3,0-0.5-0.2-0.5-0.5v0V150.1z"/>
<path class="st45" d="M143.3,151.2c0-0.3,0.2-0.5,0.4-0.5c0,0,0,0,0,0l0,0c0.3,0,0.5,0.2,0.5,0.5c0,0,0,0,0,0v2.3
	c0,0.2-0.2,0.5-0.4,0.5c0,0,0,0,0,0l0,0c-0.2,0-0.5-0.2-0.5-0.4c0,0,0,0,0,0V151.2z"/>
<path class="st45" d="M144.2,152.2c0-0.3,0.2-0.5,0.5-0.5l0,0c0.3,0,0.5,0.2,0.5,0.5l0,0v1.2c0,0.3-0.2,0.5-0.5,0.5c0,0,0,0,0,0l0,0
	c-0.3,0-0.5-0.2-0.5-0.5v0V152.2z"/>
<path class="st45" d="M145.1,152.7c0-0.3,0.2-0.5,0.5-0.5l0,0c0.3,0,0.5,0.2,0.5,0.5v0.8c0,0.3-0.2,0.5-0.5,0.5c0,0,0,0,0,0l0,0
	c-0.3,0-0.5-0.2-0.5-0.5v0V152.7z"/>
<path class="st44" d="M138.6,146.5c0,0.3,0.2,0.5,0.5,0.5l0,0l0,0c0.3,0,0.5-0.2,0.5-0.5V141c0-0.3-0.2-0.5-0.5-0.5h0l0,0
	c-0.3,0-0.5,0.2-0.5,0.4c0,0,0,0,0,0V146.5z"/>
<path class="st44" d="M139.6,145.8c0,0.3,0.2,0.5,0.5,0.5l0,0l0,0c0.3,0,0.5-0.2,0.5-0.5V141c0-0.3-0.2-0.5-0.5-0.5h0l0,0
	c-0.3,0-0.5,0.2-0.5,0.4c0,0,0,0,0,0V145.8z"/>
<path class="st44" d="M140.5,145.4c0,0.3,0.2,0.5,0.5,0.5l0,0c0.3,0,0.5-0.2,0.5-0.5V141c0-0.3-0.2-0.5-0.5-0.5h0l0,0
	c-0.3,0-0.5,0.2-0.5,0.4c0,0,0,0,0,0V145.4z"/>
<path class="st44" d="M141.4,145c0,0.3,0.2,0.5,0.5,0.5l0,0c0.3,0,0.5-0.2,0.5-0.5c0,0,0,0,0,0v-4c0-0.2-0.2-0.5-0.4-0.5
	c0,0,0,0,0,0l0,0c-0.3,0-0.5,0.2-0.5,0.5v0V145z"/>
<path class="st44" d="M142.4,144.4c0,0.3,0.2,0.5,0.5,0.5h0l0,0c0.3,0,0.5-0.2,0.5-0.4c0,0,0,0,0,0V141c0-0.3-0.2-0.5-0.5-0.5
	c0,0,0,0,0,0l0,0c-0.3,0-0.5,0.2-0.5,0.5v0V144.4z"/>
<path class="st45" d="M143.3,143.3c0,0.3,0.2,0.5,0.4,0.5c0,0,0,0,0,0l0,0c0.3,0,0.5-0.2,0.5-0.5c0,0,0,0,0,0V141
	c0-0.2-0.2-0.5-0.4-0.5c0,0,0,0,0,0l0,0c-0.2,0-0.5,0.2-0.5,0.4c0,0,0,0,0,0V143.3z"/>
<path class="st45" d="M144.2,142.2c0,0.3,0.2,0.5,0.5,0.5l0,0c0.3,0,0.5-0.2,0.5-0.5l0,0V141c0-0.3-0.2-0.5-0.5-0.5c0,0,0,0,0,0l0,0
	c-0.3,0-0.5,0.2-0.5,0.5v0V142.2z"/>
<path class="st45" d="M145.1,141.8c0,0.3,0.2,0.5,0.5,0.5l0,0c0.3,0,0.5-0.2,0.5-0.5V141c0-0.3-0.2-0.5-0.5-0.5c0,0,0,0,0,0l0,0
	c-0.3,0-0.5,0.2-0.5,0.5v0V141.8z"/>
<path class="st31" d="M133,145.6c0-0.3,0.2-0.5,0.5-0.5h0l0,0c0.3,0,0.5,0.2,0.5,0.5v3.7c0,0.3-0.2,0.5-0.5,0.5l0,0
	c-0.3,0-0.5-0.2-0.5-0.5c0,0,0,0,0,0V145.6z"/>
<path class="st31" d="M134,144.5c0-0.3,0.2-0.5,0.4-0.5c0,0,0,0,0,0l0,0c0.3,0,0.5,0.2,0.5,0.5v5.9c0,0.3-0.2,0.5-0.5,0.5h0l0,0
	c-0.2,0-0.5-0.2-0.5-0.4c0,0,0,0,0,0V144.5z"/>
<path class="st31" d="M134.9,144.5c0-0.3,0.2-0.5,0.4-0.5c0,0,0,0,0,0l0,0c0.3,0,0.5,0.2,0.5,0.5v5.9c0,0.3-0.2,0.5-0.5,0.5h0l0,0
	c-0.2,0-0.5-0.2-0.5-0.4c0,0,0,0,0,0V144.5z"/>
<path class="st31" d="M135.8,143.4c0-0.2,0.2-0.5,0.4-0.5c0,0,0,0,0,0l0,0c0.3,0,0.5,0.2,0.5,0.5v0v8.1c0,0.3-0.2,0.5-0.5,0.5l0,0
	c-0.3,0-0.5-0.2-0.5-0.5v0V143.4z"/>
<path class="st31" d="M136.8,143.4c0-0.2,0.2-0.5,0.4-0.5c0,0,0,0,0,0l0,0c0.3,0,0.5,0.2,0.5,0.5v0v8.1c0,0.3-0.2,0.5-0.5,0.5l0,0
	c-0.3,0-0.5-0.2-0.5-0.5v0V143.4z"/>
<path class="st31" d="M137.7,142.3c0-0.3,0.2-0.5,0.5-0.5h0l0,0c0.3,0,0.5,0.2,0.5,0.4c0,0,0,0,0,0v10.2c0,0.3-0.2,0.5-0.5,0.5l0,0
	c-0.3,0-0.5-0.2-0.5-0.5V142.3z"/>
<path class="st46" d="M132.7,125.3c0-0.3-0.2-0.6-0.6-0.6s-0.6,0.2-0.6,0.6c0,0,0,0.1,0,0.1c0,0,0,0.1,0,0.1l0,0l0,0
	c0,0.1,0.6,1.5,0.6,1.5c0,0.1,0.1,0.1,0.1,0.1c0,0,0.1,0,0.1-0.1c0,0,0.4-1.5,0.4-1.6l0,0l0,0L132.7,125.3z"/>
<path class="st46" d="M130.6,125.3c-0.2-0.2-0.6-0.1-0.8,0.1c-0.2,0.2-0.2,0.6,0,0.8c0.1,0.1,0.2,0.1,0.3,0.1c0.5,0.2,1,0.5,1.5,0.8
	c0,0,0.1,0,0.1,0c0,0,0,0,0,0c0,0,0-0.1,0-0.1C131.6,126.4,131.2,125.7,130.6,125.3z"/>
<path class="st46" d="M129.8,126.7c-0.3-0.1-0.6,0.1-0.7,0.4c-0.1,0.3,0.1,0.6,0.4,0.7c0,0,0,0,0,0c0.1,0,0.2,0,0.3,0
	c0.6,0,1.1,0,1.7,0.2c0.1,0,0.1,0,0.1-0.1c0,0,0,0,0,0c0,0,0-0.1,0-0.1C131.2,127.2,130.5,126.8,129.8,126.7z"/>
<path class="st46" d="M133.6,125.1c0.2-0.2,0.6-0.3,0.8,0c0.2,0.2,0.3,0.6,0,0.8l0,0c-0.1,0.1-0.1,0.1-0.2,0.2c-0.5,0.2-1,0.6-1.3,1
	c0,0-0.1,0-0.2,0c0,0,0,0,0,0c0,0,0-0.1,0-0.1C132.8,126.3,133.1,125.6,133.6,125.1z"/>
<path class="st46" d="M134.6,126.4c0.3-0.1,0.6,0,0.7,0.3c0.1,0.3,0,0.6-0.3,0.8c-0.1,0-0.2,0-0.3,0c-0.6,0-1.1,0.2-1.6,0.4
	c0,0-0.1,0-0.1,0c0,0,0-0.1,0-0.1C133.4,127.1,133.9,126.6,134.6,126.4z"/>
<path class="st46" d="M132.9,128l-1.2,0.1c0-0.3,0.2-0.6,0.5-0.6C132.6,127.4,132.9,127.7,132.9,128z"/>
<path class="st46" d="M139.4,124.1c-0.1-0.3-0.4-0.6-0.7-0.5c0,0,0,0,0,0c-0.3,0.1-0.5,0.4-0.5,0.7c0,0,0,0,0,0c0,0,0,0.1,0,0.1l0,0
	l0,0c0,0.1,0.8,1.4,0.8,1.4c0,0,0.1,0,0.1,0c0,0,0.1,0,0.1-0.1C139.2,125.8,139.3,124.2,139.4,124.1L139.4,124.1L139.4,124.1
	L139.4,124.1z"/>
<path class="st46" d="M137.3,124.4c-0.3-0.2-0.6-0.1-0.8,0.2c-0.2,0.3-0.1,0.6,0.2,0.8c0,0,0,0,0,0c0.1,0.1,0.2,0.1,0.3,0.1
	c0.6,0.1,1.1,0.3,1.6,0.6c0,0,0.1,0,0.1,0c0,0,0-0.1,0-0.1C138.4,125.3,138,124.7,137.3,124.4z"/>
<path class="st46" d="M136.6,125.9c-0.3,0-0.6,0.2-0.7,0.5c0,0.3,0.2,0.6,0.5,0.7c0.1,0,0.2,0,0.3,0c0.6-0.1,1.1-0.1,1.7,0
	c0.1,0,0.1,0,0.1-0.1c0-0.1,0-0.1,0-0.1C138.1,126.3,137.4,125.9,136.6,125.9z"/>
<path class="st46" d="M140.3,123.8c0.2-0.2,0.5-0.3,0.8-0.1c0.3,0.2,0.3,0.5,0.2,0.8c0,0,0,0,0,0c0,0.1-0.1,0.1-0.2,0.2
	c-0.5,0.3-0.9,0.7-1.2,1.2c0,0-0.1,0-0.1,0c0,0,0,0,0,0c0,0,0-0.1,0-0.1C139.6,125.1,139.8,124.4,140.3,123.8z"/>
<path class="st46" d="M141.4,125c0.3-0.2,0.6-0.1,0.8,0.2c0.2,0.3,0.1,0.6-0.2,0.8c0,0,0,0,0,0c-0.1,0-0.2,0.1-0.3,0.1
	c-0.6,0.1-1.1,0.3-1.6,0.6c0,0-0.1,0-0.1,0c0,0,0,0,0,0c0,0,0-0.1,0-0.1C140.2,125.9,140.7,125.3,141.4,125z"/>
<path class="st46" d="M139.9,126.7l-1.1,0.2c-0.1-0.3,0.1-0.6,0.4-0.7s0.6,0.1,0.7,0.4C139.9,126.7,139.9,126.7,139.9,126.7z"/>
<path class="st46" d="M145.3,121.8c-0.1-0.3-0.4-0.4-0.7-0.3c0,0,0,0,0,0c-0.3,0.1-0.4,0.5-0.3,0.8c0,0,0,0,0,0.1l0,0l0,0
	c0.1,0.1,1,1.2,1,1.2c0,0,0.1,0,0.1,0c0,0,0.1-0.1,0.1-0.1C145.4,123.4,145.3,122,145.3,121.8L145.3,121.8L145.3,121.8
	C145.3,121.9,145.3,121.9,145.3,121.8z"/>
<path class="st46" d="M143.4,122.6c-0.3-0.1-0.6,0.1-0.7,0.3c-0.1,0.3,0,0.6,0.3,0.7c0.1,0,0.2,0,0.3,0c0.5,0,1.1,0.1,1.6,0.3
	c0.1,0,0.1,0,0.1-0.1c0,0,0,0,0,0c0,0,0-0.1,0-0.1C144.7,123.1,144.1,122.7,143.4,122.6z"/>
<path class="st46" d="M143.2,124c-0.3,0.1-0.5,0.3-0.4,0.6c0,0.2,0.3,0.4,0.5,0.4c0.1,0,0.2,0,0.3-0.1c0.5-0.2,1-0.3,1.5-0.4
	c0.1,0,0.1,0,0.1-0.1c0,0,0,0,0,0c0,0,0-0.1-0.1-0.1C144.5,124,143.8,123.9,143.2,124z"/>
<path class="st46" d="M146.1,121.4c0.2-0.3,0.5-0.3,0.8-0.2c0.2,0.1,0.3,0.4,0.2,0.6c0,0.1-0.1,0.2-0.1,0.2
	c-0.4,0.4-0.7,0.8-0.9,1.3c0,0.1-0.1,0.1-0.1,0.1c0,0,0,0,0,0c0,0-0.1,0-0.1-0.1C145.6,122.7,145.7,122,146.1,121.4z"/>
<path class="st46" d="M147.4,122.2c0.2-0.2,0.5-0.2,0.8,0c0.2,0.2,0.2,0.6,0,0.8c0,0,0,0,0,0c-0.1,0.1-0.1,0.1-0.2,0.1
	c-0.5,0.2-0.9,0.5-1.3,0.9c0,0-0.1,0-0.1,0c0,0,0-0.1,0-0.1C146.5,123.2,146.8,122.6,147.4,122.2z"/>
<path class="st46" d="M146.3,124.1l-1,0.4c-0.1-0.3,0.1-0.6,0.4-0.7C146,123.9,146.2,124,146.3,124.1z"/>
<path class="st46" d="M125.9,125c0-0.3-0.2-0.6-0.6-0.6c-0.3,0-0.6,0.2-0.6,0.6c0,0,0,0.1,0,0.1l0,0l0,0c0,0.1,0.4,1.6,0.4,1.6
	c0,0,0,0.1,0.1,0.1c0,0,0.1,0,0.1-0.1C125.3,126.6,125.8,125.2,125.9,125L125.9,125L125.9,125C125.9,125.1,125.9,125.1,125.9,125z"
	/>
<path class="st46" d="M123.8,124.9c-0.2-0.2-0.6-0.2-0.8,0c-0.2,0.2-0.2,0.6,0,0.8c0,0,0,0,0,0c0.1,0.1,0.1,0.1,0.2,0.2
	c0.5,0.2,1,0.6,1.4,1c0,0,0.1,0,0.2,0c0,0,0-0.1,0-0.1C124.7,126,124.4,125.3,123.8,124.9z"/>
<path class="st46" d="M122.8,126.2c-0.3-0.1-0.6,0.1-0.7,0.4c-0.1,0.3,0,0.5,0.3,0.7c0.1,0,0.2,0,0.3,0c0.6,0,1.1,0.2,1.6,0.4
	c0,0,0.1,0,0.2,0c0,0,0-0.1,0-0.1C124.1,126.8,123.5,126.3,122.8,126.2z"/>
<path class="st46" d="M126.8,125c0.3-0.2,0.6-0.1,0.8,0.2c0.1,0.2,0.1,0.5-0.1,0.7c-0.1,0.1-0.2,0.1-0.2,0.1c-0.5,0.2-1,0.5-1.4,0.9
	c0,0-0.1,0-0.2,0c0,0,0,0,0,0c0,0,0-0.1,0-0.1C125.8,126,126.2,125.4,126.8,125z"/>
<path class="st46" d="M127.7,126.4c0.3-0.1,0.6,0.2,0.7,0.5c0,0.3-0.1,0.5-0.3,0.6c-0.1,0-0.2,0-0.3,0c-0.6,0-1.1,0-1.7,0.2
	c-0.1,0-0.1,0-0.1-0.1c0,0,0-0.1,0-0.1C126.3,126.9,126.9,126.5,127.7,126.4z"/>
<path class="st46" d="M125.8,127.7h-1.2c0-0.3,0.3-0.6,0.6-0.6C125.5,127.1,125.8,127.4,125.8,127.7z"/>
<path class="st46" d="M119.1,123.9c0.1-0.3-0.1-0.7-0.4-0.8c-0.3,0-0.7,0.2-0.7,0.5c0,0,0,0.1,0,0.1l0,0l0,0c0,0.1,0.2,1.6,0.2,1.6
	c0,0,0,0.1,0.1,0.1c0,0,0.1,0,0.1-0.1L119.1,123.9L119.1,123.9L119.1,123.9C119,124,119,123.9,119.1,123.9z"/>
<path class="st46" d="M117,123.4c-0.2-0.3-0.6-0.3-0.8-0.2c-0.3,0.2-0.3,0.6-0.2,0.8c0.1,0.1,0.1,0.1,0.2,0.2
	c0.5,0.3,0.9,0.7,1.2,1.2c0,0,0.1,0,0.1,0c0,0,0,0,0,0c0,0,0.1-0.1,0.1-0.1C117.7,124.7,117.5,124,117,123.4z"/>
<path class="st46" d="M115.8,124.6c-0.3-0.1-0.6,0-0.8,0.3c-0.1,0.2,0,0.5,0.2,0.7c0.1,0,0.2,0.1,0.3,0.1c0.6,0.1,1.1,0.3,1.6,0.6
	c0,0,0.1,0,0.2,0c0,0,0-0.1,0-0.1C117,125.4,116.5,124.9,115.8,124.6z"/>
<path class="st46" d="M120,124c0.3-0.1,0.6,0,0.8,0.3c0.1,0.2,0,0.5-0.2,0.7c-0.1,0.1-0.2,0.1-0.3,0.1c-0.6,0.1-1.1,0.3-1.6,0.6
	c0,0-0.1,0-0.2,0c0,0,0-0.1,0-0.1C118.8,124.9,119.3,124.3,120,124z"/>
<path class="st46" d="M120.6,125.5c0.3,0,0.6,0.2,0.6,0.5c0.1,0.3-0.2,0.6-0.5,0.7c-0.1,0-0.2,0-0.3,0c-0.6-0.1-1.1-0.1-1.7,0
	c-0.1,0-0.1,0-0.1-0.1c0,0,0,0,0,0c0,0,0-0.1,0-0.1C119.1,125.9,119.8,125.5,120.6,125.5z"/>
<path class="st46" d="M118.5,126.6l-1.2-0.2c0.1-0.3,0.4-0.5,0.7-0.5c0,0,0,0,0,0C118.4,125.9,118.6,126.2,118.5,126.6
	C118.5,126.6,118.5,126.6,118.5,126.6z"/>
<path class="st46" d="M113.3,122.1c0.1-0.3,0-0.6-0.3-0.7s-0.6,0-0.7,0.3v0.1l0,0l0,0c0,0.1-0.2,1.5-0.2,1.5c0,0,0,0.1,0,0.1
	c0,0,0.1,0,0.1,0c0,0,1-1,1-1.1l0,0l0,0C113.2,122.2,113.2,122.1,113.3,122.1z"/>
<path class="st46" d="M111.6,121.2c-0.1-0.3-0.4-0.4-0.7-0.3c-0.3,0.1-0.4,0.4-0.3,0.7c0,0.1,0.1,0.2,0.1,0.2
	c0.3,0.4,0.6,0.8,0.8,1.3c0,0.1,0.1,0.1,0.1,0.1c0,0,0,0,0,0c0,0,0.1-0.1,0.1-0.1C112,122.5,111.9,121.8,111.6,121.2z"/>
<path class="st46" d="M110.3,122c-0.2-0.2-0.5-0.2-0.7,0c-0.2,0.2-0.2,0.5,0,0.7c0,0,0,0,0,0c0.1,0.1,0.1,0.1,0.2,0.2
	c0.5,0.2,0.9,0.5,1.2,0.9c0,0,0.1,0,0.1,0c0,0,0-0.1,0-0.1C111.2,123,110.8,122.4,110.3,122z"/>
<path class="st46" d="M114.1,122.4c0.3-0.1,0.5,0.1,0.6,0.3c0.1,0.3,0,0.6-0.3,0.7c0,0,0,0,0,0c-0.1,0-0.2,0-0.3,0
	c-0.5,0-1,0-1.5,0.2c-0.1,0-0.1,0-0.1-0.1c0,0,0,0,0,0c0,0,0-0.1,0-0.1C112.8,122.9,113.4,122.5,114.1,122.4z"/>
<path class="st46" d="M114.3,123.9c0.3,0.1,0.5,0.3,0.4,0.6c0,0.3-0.3,0.4-0.5,0.4c-0.1,0-0.2,0-0.2-0.1c-0.5-0.2-1-0.4-1.5-0.4
	c-0.1,0-0.1,0-0.1-0.1c0,0,0-0.1,0.1-0.1C113,123.9,113.6,123.7,114.3,123.9z"/>
<path class="st46" d="M112.2,124.3l-1-0.5c0.1-0.3,0.4-0.4,0.7-0.3c0,0,0,0,0,0C112.2,123.7,112.3,124,112.2,124.3
	C112.2,124.3,112.2,124.3,112.2,124.3z"/>
<path class="st46" d="M108.1,119.3c0.1-0.2,0-0.5-0.2-0.7c-0.2-0.1-0.5,0-0.6,0.2c0,0,0,0,0,0v0.1l0,0l0,0c0,0.1-0.2,1.3-0.2,1.3
	c0,0,0,0.1,0,0.1c0,0,0.1,0,0.1,0C107.2,120.3,108,119.4,108.1,119.3L108.1,119.3L108.1,119.3L108.1,119.3z"/>
<path class="st46" d="M108.8,119.5c0.2-0.1,0.4,0.1,0.5,0.3c0,0,0,0,0,0c0.1,0.2,0,0.5-0.3,0.6c-0.1,0-0.1,0-0.2,0
	c-0.4,0-0.8,0-1.2,0.2c0,0-0.1,0-0.1,0c0,0,0-0.1,0-0.1C107.7,120,108.2,119.6,108.8,119.5z"/>
<path class="st46" d="M108.9,120.8c0.2,0,0.4,0.3,0.4,0.5c0,0.2-0.2,0.4-0.4,0.4c0,0,0,0,0,0c-0.1,0-0.1,0-0.2-0.1
	c-0.4-0.2-0.8-0.3-1.2-0.4c0,0-0.1,0-0.1-0.1c0,0,0,0,0,0c0,0,0-0.1,0.1-0.1C107.8,120.8,108.4,120.7,108.9,120.8z"/>
<path class="st46" d="M107.3,121.2l-0.4-0.2c0-0.2,0-0.2,0.1-0.5c0,0,0.1,0,0.1,0C107.3,120.6,107.4,120.9,107.3,121.2
	C107.3,121.2,107.3,121.2,107.3,121.2z"/>
<path class="st46" d="M149.9,119.3c-0.1-0.2,0-0.5,0.2-0.7c0.2-0.1,0.5,0,0.6,0.2c0,0,0,0,0,0c0,0,0,0,0,0.1l0,0l0,0
	c0,0.1,0.2,1.3,0.2,1.3c0,0,0,0.1,0,0.1c0,0-0.1,0-0.1,0L149.9,119.3L149.9,119.3L149.9,119.3L149.9,119.3z"/>
<path class="st46" d="M149.3,119.5c-0.2-0.1-0.4,0.1-0.5,0.3c0,0,0,0,0,0c-0.1,0.2,0,0.5,0.3,0.6c0.1,0,0.1,0,0.2,0
	c0.4,0,0.8,0,1.2,0.2c0,0,0.1,0,0.1,0c0,0,0-0.1,0-0.1C150.3,120,149.8,119.6,149.3,119.5z"/>
<path class="st46" d="M149.1,120.8c-0.2,0-0.4,0.3-0.4,0.5c0,0.2,0.2,0.4,0.4,0.4c0,0,0,0,0,0c0.1,0,0.1,0,0.2-0.1
	c0.4-0.2,0.8-0.3,1.2-0.4c0,0,0.1,0,0.1-0.1c0,0,0,0,0,0c0,0,0-0.1,0-0.1C150.2,120.8,149.6,120.7,149.1,120.8z"/>
<path class="st46" d="M150.8,121.2l0.4-0.2c0-0.2-0.1-0.3-0.1-0.5h-0.1C150.7,120.7,150.6,121,150.8,121.2z"/>
<path class="st47" d="M128.8,48.9c0,0-19.9,1.6-31.5,10.5C107.1,54.2,117.8,50.6,128.8,48.9z"/>
<path class="st47" d="M128.8,49.3c0,0-23.1,6.8-36.6,15.8C92.2,65.1,120.1,51.5,128.8,49.3z"/>
<path class="st47" d="M128.7,48.9c0,0,19.9,1.6,31.5,10.5C150.4,54.1,139.7,50.6,128.7,48.9z"/>
<path class="st47" d="M128.7,49.3c0,0,23.1,6.8,36.6,15.8C165.2,65.1,137.3,51.5,128.7,49.3z"/>
<path class="st31" d="M103.8,79.6c-0.7,0.8-1.1,1.7-1.3,2.7c0.8,0.1,1.5-0.5,1.6-1.3C104.2,80.5,104.1,80,103.8,79.6z"/>
<path class="st31" d="M103.7,84.1c0,0.3-0.2,0.5-0.5,0.5c-0.3,0-0.5-0.1-0.5-0.4c0-0.3,0.1-0.5,0.4-0.5c0,0,0.1,0,0.1,0
	C103.5,83.7,103.7,83.9,103.7,84.1C103.7,84.1,103.7,84.1,103.7,84.1z"/>
<path class="st31" d="M146.3,79.6c-0.7,0.8-1.1,1.7-1.3,2.7c0.8,0.1,1.5-0.5,1.6-1.3C146.7,80.5,146.6,80,146.3,79.6z"/>
<path class="st31" d="M146.2,84.1c0,0.3-0.2,0.5-0.5,0.5l0,0c-0.3,0-0.5-0.1-0.5-0.4s0.1-0.5,0.4-0.5c0,0,0.1,0,0.1,0
	C146,83.7,146.2,83.9,146.2,84.1C146.2,84.1,146.2,84.1,146.2,84.1z"/>
</svg>
