<?xml version="1.0" encoding="utf-8"?>
<!-- Generator: Adobe Illustrator 24.3.0, SVG Export Plug-In . SVG Version: 6.00 Build 0)  -->
<svg version="1.1" id="Layer_8" xmlns="http://www.w3.org/2000/svg" xmlns:xlink="http://www.w3.org/1999/xlink" x="0px" y="0px"
	 viewBox="0 0 260 250" style="enable-background:new 0 0 260 250;" xml:space="preserve">
<style type="text/css">
	.st0{fill:#EEEBDA;}
	.st1{clip-path:url(#SVGID_2_);}
	.st2{fill:#647A36;}
	.st3{fill:#B6C479;}
	.st4{fill:#4A671E;}
</style>
<rect x="0" y="-0.2" class="st0" width="260" height="250"/>
<g>
	<defs>
		<rect id="SVGID_1_" x="0" y="-0.2" width="260" height="250"/>
	</defs>
	<clipPath id="SVGID_2_">
		<use xlink:href="#SVGID_1_"  style="overflow:visible;"/>
	</clipPath>
	<g class="st1">
		<path class="st2" d="M195.9,107.3c4.3,3.5,8.1,7.8,11.1,12.5c3.6,5.6,6.4,11.8,8.3,18.2c2.2,7.2,3.4,14.6,3.7,22.1
			c0.3,7.9,0.1,16-0.3,24.2s-1.2,16.6-2.3,25c-2.1,16.7-5.2,33.2-8.2,48.7c-1.5,7.8-3,15.2-4.2,22.4c-1.2,6.7-2,13.5-2.5,20.3
			c-0.2,3-0.2,6.1-0.1,9.1c0.1,1.5,0.2,2.9,0.4,4.2s0.4,2.7,0.7,4c0,0,0,0,0,0h0.8c0-0.1,0-0.1-0.1-0.2c-0.3-1.3-0.5-2.6-0.6-3.9
			c-0.2-1.3-0.3-2.7-0.3-4.2c-0.1-3,0-6,0.2-9c0.6-6.8,1.5-13.5,2.7-20.1c1.3-7.1,2.8-14.6,4.4-22.3s3.2-15.7,4.7-23.9
			s2.9-16.5,4-24.9s2-16.8,2.5-25.1s0.7-16.5,0.5-24.4c-0.2-7.7-1.4-15.3-3.5-22.7c-1.9-6.7-4.7-13-8.4-18.9c-3.1-5-7-9.5-11.6-13.3
			c-1-0.8-2.1-1.6-3.1-2.3s-2-1.3-3-1.9c-1.8-1-3.8-1.9-5.7-2.7c-2.8-1-5.7-1.8-8.6-2.2c-0.5-0.1-1-0.1-1.4-0.2s-0.7-0.1-1-0.1
			c-0.2,0-0.4,0-0.6,0c-0.1,0-0.1,0.1-0.2,0.1l-0.2,2.7c0.1,0.1,0.1,0.1,0.2,0.1c0.2,0.1,0.4,0.1,0.6,0.1c0.2,0,0.6,0,0.9,0.1
			s0.8,0.1,1.2,0.1c2.7,0.3,5.4,1,8,1.9c1.8,0.7,3.6,1.5,5.3,2.4c0.9,0.5,1.9,1.1,2.9,1.7S195,106.6,195.9,107.3z"/>
		<path class="st3" d="M206.4,120.3c3.6,5.6,6.4,11.7,8.3,18.1c2.2,7.2,3.4,14.6,3.7,22.1c0.3,7.9,0.1,16-0.3,24.2s-1.2,16.6-2.3,25
			c-2.1,16.7-5.2,33.2-8.2,48.7c-1.5,7.8-3,15.2-4.2,22.4c-1.2,6.7-2,13.5-2.5,20.3c-0.2,3-0.2,6.1-0.1,9.1c0.1,1.5,0.2,2.9,0.4,4.2
			c0.2,1.2,0.4,2.4,0.6,3.5h0.8c-0.2-1.1-0.4-2.3-0.5-3.6s-0.3-2.7-0.3-4.2c-0.1-3,0-6,0.2-9c0.6-6.8,1.5-13.5,2.7-20.1
			c1.3-7.1,2.8-14.6,4.4-22.3s3.2-15.7,4.7-23.9s2.9-16.5,4-24.9s2-16.8,2.5-25.1s0.7-16.5,0.5-24.4c-0.2-7.7-1.4-15.3-3.5-22.7
			c-1.9-6.7-4.7-13-8.4-18.9c-3.1-5-7-9.5-11.6-13.3c-1-0.8-2.1-1.6-3.1-2.3s-2-1.3-3-1.9c-1.8-1-3.8-1.9-5.7-2.7
			c-2.8-1-5.7-1.8-8.6-2.2c-0.5-0.1-1-0.1-1.4-0.2s-0.7-0.1-1-0.1c-0.2,0-0.4,0-0.6,0c-0.1,0-0.1,0.1-0.2,0.1l-0.2,2.7
			c0.1,0.1,0.1,0.1,0.2,0.1c0.2,0.1,0.4,0.1,0.6,0.1c0.2,0,0.6,0,0.9,0.1s0.8,0.1,1.2,0.1c2.7,0.3,5.4,1,8,1.9
			c1.8,0.7,3.6,1.5,5.3,2.4c0.9,0.5,1.9,1.1,2.9,1.7s1.9,1.3,2.9,2.1C199.7,111.4,203.4,115.6,206.4,120.3z"/>
		<path class="st2" d="M53.8,93c-7.2,6.3-10.7,29.6-10.1,31.9s44.8-4.7,42.8,2s-35.2,3.5-39.7,4c-8,1.1-14.1,12.2-15.4,15.9
			c-2.7,7.6-3.7,21.6-4.4,24s21.1,11.6,26.9,10.8s15.2-8.7,16-11.5s12.2-15.8,12-9.4s-19.2,26.8-20.4,27.8s19.3,6.1,25.2,7.5
			c4.7,1,16.4-1.1,19.1-15c3.5-18.3,5.2-29.9,12.6-34.1c9.8-5.6-2.3,30.1-5.3,34.4s-3.9,10-7.6,15.3s61,8.2,57.6-10.4
			s-13.6-26-10.3-32.7s9.5-5,8.9,3.1c-0.6,9.5,3,23.2,5.2,31.2c1.9,7,35.7-7,38-14.9s-18.8-24.9-21.3-31.3s2.6-15,5.3-8.4
			s8.1,26.1,21.8,33.5c0,0,15.9-9,14.1-22.7s-15.4-28.9-35.2-35.7S175.1,94.3,177,89.6c0,0,15.5-44.9-5.9-55.7
			c-28.3-14.4-61,2.8-65.7,5.2c-9,4.7-5.8,10.9-5.8,10.9s34.7,7.3,45.9,23.9c3.2,4.7-2,7.5-5.2,5.3s-17-17.6-28-19.6
			s-31.9,0.3-36.9,3.6c-11.7,7.6-14.2,21.4-14.2,21.4s20.5,5.3,31.3,6.4s23.7,6.7,22.8,9.8c-0.7,2.5-4.6,1.8-12.5-0.3
			C98.5,99.3,61.3,86.5,53.8,93z M152.8,116.7L152.8,116.7c2,4.5,5.1,9.7,5.6,14.8c0.8,4.3-1.8,10.3-6.4,5.5c-2.3-2.7-3-9.7-3-12.8
			C148.9,119.2,148.6,106.9,152.8,116.7L152.8,116.7z M126.8,119.8L126.8,119.8c2.6,2.8,3.7,10.4,4.3,14.3c0.4,3.3-2.9,10.1-7.2,7.1
			c-2.6-1.8-1.4-10-0.9-12.8c0.1-2,0.5-3.9,1.1-5.8C124.7,120.4,125.4,118.7,126.8,119.8L126.8,119.8z M123.9,94.8
			c-2.9-0.1-16.3-4.2-9.4-8.7C118.9,83.2,129.5,94.3,123.9,94.8L123.9,94.8z M94.7,133.8c4.2-2.4,3,5.7-0.1,7.3
			c-2.1,1.1-4.1-0.1-3.4-2.5C92.2,136.8,93.3,135.2,94.7,133.8L94.7,133.8z M92.5,116.4c2.7,2,2.7,4.3-0.8,4.9
			c-2.9-0.1-5.8-0.7-8.6-1.6C77.3,116,88.5,113.5,92.5,116.4L92.5,116.4z"/>
		<path class="st2" d="M150.9,166.5c-0.3,3.3,0.2,6.7-0.4,9.8c-2.9-3.1-5.6-7-8.8-8.9c0.4,2.3,0.8,4.6,1.1,6.9
			c-2.3-1.7-5-3.6-7.5-4.4c-1.6,4.4-6.9,11.7-10.8,15c-1.2-5.3,1.9-7.1,0-11.9c-1.7-5,0-4.8-0.1-7.2c-2.8-8.1,3-7.6,2.7-16.4
			c0.9,2.3,2.5,4.3,4.5,5.8c-0.2-1.1,0.4-2.7,0.6-3.6c0.7,1.5,1.5,2.9,2.3,4.2c0-1.5,2.2-3.5,1.7-4.9c1,2.8,0.8,6,2.1,8.4
			c1.8-5.3,1.8-11.7,2.7-17.1c3.6,5.6,5.2,13.9,9.5,18.5c0.6-3.6,0.3-7.4,1.1-11.4c0.5,1,1.1,2,1.9,2.8c-0.3,0.4-0.5,0.8-0.7,1.2
			c-1.9,3.9,0.7,8,3.9,14.4c-0.5,1.5-1.2,3.1-1.7,4.3C152.9,170.9,151.4,168.9,150.9,166.5z"/>
		<path class="st2" d="M155,150.4c-0.1-1.7-0.1-3.4,0-5.1c0.4,0.8,1.8,1.8,2.2,2.6c0.9-2.2,1.4-4.6,1.5-7c4.1,3.4,6.1,8.4,9.1,12.6
			c2.1-3.6-2-10.7-1.8-14.5c2.2,2.1,4.6,4,7.1,5.7c0.1-3-1.4-6.6-0.9-9.3c2.3,1.7,3.7,4.7,6.5,5.7c0-1.5,1.2-3.7,1.1-5.8
			c0.6,0.8,2,1,3.1,1.4c-0.2,1.6,0.1,3.3,0.6,4.8c0.9,2.1,3.7,5.4,7.1,9.1c-2.7,0.2-5.5-0.2-8-1.3c-0.3-0.2-0.6-0.4-0.9-0.5
			c0.3,0.2,0.6,0.3,0.9,0.5c1.9,1.5,3.9,5.7,4.7,7.6c-4.4-1.2-6.8-4.3-10-5.6c1.5,3.6,4.7,6.9,5.2,10.3c-3.3-2.4-8.6-7.7-9.9-1
			c-1.4-1.5-3.1-1.2-4.7-1.9c-0.3,9.3-0.4,6.9-6.3,4.4c-0.2-2.2-0.2-4.4-0.1-6.6C162.2,149.9,158.3,147.5,155,150.4z"/>
		<path class="st2" d="M185,131.5c0.5-2.7,1-5.1,1-5.1s5.4,2.1,7,6.8c0.4,1.1,3.6,0.4,3-2.3l2,2c1.9-0.2,3.8-0.3,5.7-0.3
			c-5,2-2.7,3.5-6.6,6.8c1.4,1.1,2.8,4,2.8,4c-2.2-1.1-3.4,0-3.4,0c-1.9,2.9,1.7,3.8,2.9,5.8c-1,0.3-2.1,0.5-3.2,0.8
			c-3.6-6.8-5.7-13.6-7.1-17C187.8,130.2,186.2,130.1,185,131.5z"/>
		<path class="st4" d="M81.6,117.2c-0.1-0.2-0.2-0.5-0.2-0.7l0.7,0.1C81.9,116.7,81.7,116.9,81.6,117.2z"/>
		<path class="st2" d="M81.8,168.6c1.2-1.9,2.2-3.9,3-6c0.6,2.4,1.5,4.7,2.9,6.8c0.8-1.6,1.4-3.4,1.7-5.2c0.6,1.1,1.8,1.7,2.3,2.4
			c1.1-1.6,1.2-3.5,1.9-5c0.3,0.5,1,1.4,1.3,1.9c0.8-2.2,1.7-4.4,2.7-6.5c0.8,3.6,0,7.5,1.6,10.9c1.4-3.4,3.1-7.6,6-10.2
			c-0.2,3.6-1.1,7.6-1.5,11.4l-0.4,0.1c-4,2.8-6.2,8.7-8.5,12.8c1.5-2.4,1.8-5.4,0.7-8c-1,1.4-1.8,3-2.6,4.6
			c-0.5-2.1-1.3-4.3-2.7-5.6c-1.5,2.2-2.8,4.6-4,6.9c-0.7-1.9-0.8-4-2.3-5.7c-1.3,2-2.9,3.8-4.6,5.5c0-2.4,0.3-5.2,0.3-7.5
			c-1.8,0.4-3.9,2.5-6,2.7c2.2-2.7,4.2-5.5,6-8.5C80.1,167.2,80.9,168,81.8,168.6z"/>
		<path class="st3" d="M164.4,97.5l0.2-0.3c0.1-0.2,0.3-0.4,0.5-0.9c0.3-0.5,0.5-1,0.7-1.5c0.2-0.6,0.4-1.3,0.6-2
			c0-0.2,0.1-0.4,0.1-0.6l0.1-0.6c0.1-0.4,0.1-0.8,0.1-1.2c0-0.9,0-1.8,0-2.7c-0.1-0.9-0.1-1.9-0.3-2.8s-0.3-1.9-0.5-2.8
			c-0.4-1.9-0.8-3.7-1.2-5.5c-0.2-0.9-0.4-1.7-0.5-2.5s-0.3-1.6-0.4-2.3c0-0.3-0.1-0.7-0.1-1s-0.1-0.6-0.1-0.9
			c-0.1-0.6-0.1-1.1-0.1-1.5s0-0.7,0-1s0-0.3,0-0.3s0,0.1,0,0.3s0,0.6,0,1s0,0.9,0,1.5c0,0.3,0,0.6,0,0.9s0.1,0.7,0.1,1
			c0.1,0.7,0.2,1.5,0.3,2.3s0.2,1.7,0.4,2.6c0.3,1.8,0.6,3.7,0.9,5.5c0.1,0.9,0.2,1.9,0.3,2.8s0.1,1.8,0.1,2.7
			c0,0.8-0.1,1.7-0.1,2.5c-0.1,0.4-0.1,0.8-0.2,1.1c0,0.2-0.1,0.3-0.1,0.5l-0.1,0.5c-0.2,0.6-0.4,1.2-0.6,1.7
			c-0.2,0.4-0.4,0.8-0.6,1.2c-0.2,0.3-0.4,0.6-0.5,0.8l-0.2,0.3L164.4,97.5z"/>
		<path class="st3" d="M158.8,98.5l0.5,0.3l0.6,0.4l0.7,0.5c0.3,0.2,0.6,0.4,0.9,0.7s0.7,0.6,1.1,0.9s0.8,0.7,1.2,1.1l1.3,1.2
			l2.9,2.9c1,1,2.1,2.1,3.4,3.1c1.3,1,2.6,2,4.1,2.8c1.4,0.8,2.9,1.5,4.4,2.3c3,1.5,5.9,3.1,8.6,4.6c2.5,1.4,4.8,2.9,7.1,4.7
			c1.6,1.2,3,2.6,4.2,4.2c0.2,0.3,0.4,0.6,0.5,0.8s0.3,0.5,0.3,0.6l0.2,0.6c0,0-0.1-0.2-0.2-0.6c-0.1-0.2-0.2-0.4-0.3-0.6
			s-0.3-0.5-0.5-0.8c-1.2-1.7-2.5-3.1-4.1-4.4c-2.2-1.8-4.6-3.5-7-4.9c-2.6-1.7-5.6-3.3-8.5-4.9c-1.4-0.8-2.9-1.6-4.3-2.4
			c-1.3-0.8-2.6-1.7-3.8-2.8c-1.1-1-2.2-2.1-3.2-3.1l-2.7-3l-1.2-1.3c-0.4-0.4-0.8-0.8-1.2-1.2s-0.7-0.7-1.1-1s-0.6-0.6-1-0.8
			l-0.8-0.6l-0.6-0.4l-0.5-0.3L158.8,98.5z"/>
		<path class="st3" d="M151,99.6c0,0,0.7,1,1.8,2.8c0.6,0.9,1.3,2,2.1,3.3l2.8,4.2c1,1.5,2.1,3.2,3.2,5c0.6,0.9,1.2,1.8,1.7,2.7
			l1.8,2.9c0.6,1,1.1,2,1.7,3c0.1,0.2,0.3,0.5,0.4,0.8s0.3,0.5,0.4,0.8l0.8,1.6c0.1,0.3,0.3,0.5,0.4,0.8s0.1,0.3,0.2,0.4l0.2,0.4
			l0.8,1.7l1.5,3.3c0.5,1.1,1,2.2,1.5,3.3l0.8,1.7c0.2,0.6,0.5,1.1,0.7,1.7c1,2.2,1.9,4.4,2.8,6.5c0.2,0.5,0.5,1.1,0.7,1.6
			c0.1,0.3,0.2,0.5,0.3,0.8l0.2,0.4l0.1,0.4c0.2,0.5,0.4,1,0.6,1.5c0.1,0.2,0.2,0.5,0.2,0.8l0.2,0.8c0.5,1.9,0.9,3.8,1.2,5.8
			c0.3,1.8,0.5,3.5,0.6,5s0.2,2.8,0.3,3.9s0.1,1.9,0.1,2.5s0,0.9,0,0.9s0-0.3,0-0.9s0-1.4,0-2.5s-0.1-2.4-0.2-3.9s-0.2-3.2-0.5-5
			c-0.2-2-0.6-3.9-1.1-5.9c-0.1-0.2-0.1-0.5-0.2-0.8s-0.2-0.5-0.2-0.8c-0.1-0.5-0.3-1.1-0.5-1.6l-0.1-0.4l-0.1-0.4
			c-0.1-0.3-0.2-0.5-0.3-0.8c-0.2-0.5-0.4-1.1-0.6-1.6l-2.7-6.6l-0.7-1.7c-0.2-0.6-0.5-1.1-0.7-1.7c-0.5-1.1-1-2.2-1.4-3.4l-1.4-3.4
			l-0.7-1.7l-0.2-0.4l-0.2-0.4l-0.4-0.8l-0.8-1.6l-0.4-0.8c-0.1-0.3-0.3-0.5-0.4-0.8c-0.6-1-1.1-2.1-1.7-3.1l-1.7-2.9
			c-0.6-1-1.1-1.9-1.7-2.8c-1.1-1.8-2.2-3.5-3.1-5.1l-2.7-4.2c-0.8-1.3-1.5-2.4-2-3.3l-1.7-2.9L151,99.6z"/>
		<path class="st3" d="M132.1,105.6l1.6,3.2c1,2,2.5,5,4.1,8.6c0.8,1.8,1.6,3.8,2.3,5.9c0.7,2.2,1.4,4.5,1.8,6.8
			c0.5,2.5,0.8,5,0.9,7.5c0.1,1.3,0.1,2.6,0,3.9c0,0.7-0.1,1.3-0.1,2l-0.1,2c-0.2,2.6-0.5,5.2-0.9,7.8s-0.7,5.1-1.2,7.5
			c-0.2,1.2-0.4,2.4-0.6,3.6s-0.5,2.3-0.7,3.4c-0.5,2.2-1,4.3-1.4,6.2s-1,3.7-1.4,5.2c-0.2,0.8-0.5,1.5-0.7,2.1s-0.4,1.3-0.6,1.8
			c-0.4,1.1-0.7,2-0.9,2.5s-0.3,0.9-0.3,0.9l0.4-0.9c0.2-0.6,0.6-1.4,1-2.5c0.2-0.6,0.4-1.1,0.6-1.8s0.5-1.4,0.7-2.1
			c0.5-1.5,1-3.3,1.5-5.2s1.1-4,1.6-6.2l0.8-3.4c0.2-1.2,0.5-2.4,0.7-3.6c0.5-2.4,0.9-5,1.3-7.5s0.8-5.2,1-7.9
			c0.3-2.6,0.4-5.3,0.4-7.9c-0.1-2.6-0.3-5.1-0.7-7.7c-0.4-2.4-1-4.7-1.7-7c-0.7-2.2-1.4-4.2-2.2-6.1c-1.5-3.7-2.9-6.7-3.9-8.8
			l-1.6-3.3L132.1,105.6z"/>
		<path class="st3" d="M104.3,122.6l0.3,0.7c0.1,0.2,0.2,0.5,0.2,0.8s0.2,0.7,0.3,1.2c0.2,1.1,0.3,2.2,0.4,3.3
			c0.1,1.4,0.1,2.9,0,4.3c-0.2,3.6-0.5,7.3-1.2,10.9c-0.3,2-0.7,4-1.2,6.1s-1,4.1-1.5,6.2c-0.3,1-0.6,2.1-0.8,3.1l-0.2,0.8v0.1l0,0
			v0.1l-0.1,0.2l-0.1,0.4c-0.2,0.5-0.3,1-0.6,1.5c-0.8,1.9-1.6,3.8-2.6,5.6c-0.5,0.9-1,1.7-1.4,2.6s-1,1.6-1.5,2.4
			c-1,1.6-2,3-2.8,4.3c-1.8,2.6-3.3,4.9-4.4,6.4c-0.5,0.8-0.9,1.4-1.2,1.8l-0.4,0.6l0.4-0.6c0.3-0.4,0.7-1,1.2-1.8
			c1.1-1.5,2.7-3.7,4.5-6.3c0.9-1.3,1.9-2.7,3-4.3c0.5-0.8,1-1.6,1.5-2.4s1-1.7,1.5-2.6c1-1.8,2-3.7,2.8-5.6c0.2-0.5,0.4-1,0.6-1.5
			l0.1-0.4l0.1-0.2v-0.1l0,0V160l0.2-0.8c0.3-1,0.6-2.1,0.9-3.1c0.6-2.1,1.1-4.1,1.6-6.2s0.9-4.1,1.3-6.1c0.7-3.6,1.2-7.3,1.4-11
			c0.1-1.5,0.1-3,0-4.4c0-1.2-0.2-2.3-0.4-3.4c-0.1-0.5-0.2-0.9-0.3-1.3s-0.2-0.7-0.3-0.9c-0.2-0.5-0.2-0.7-0.2-0.7L104.3,122.6z"/>
		<path class="st3" d="M68.9,147.4c0,0,0,0.1-0.1,0.4s-0.1,0.6-0.2,1s-0.2,0.9-0.4,1.5c-0.1,0.3-0.2,0.6-0.3,0.9s-0.2,0.7-0.3,1
			c-0.2,0.7-0.6,1.5-0.9,2.3c-0.2,0.4-0.4,0.8-0.6,1.2l-0.3,0.6c-0.1,0.2-0.2,0.4-0.3,0.6c-0.4,0.9-0.9,1.7-1.4,2.6
			s-1.1,1.7-1.7,2.6s-1.2,1.7-1.8,2.5c-0.6,0.8-1.3,1.5-2,2.1c-0.7,0.6-1.4,1.2-2.1,1.8s-1.3,1.1-1.9,1.6c-0.5,0.4-1,0.9-1.5,1.4
			c-0.4,0.4-0.7,0.8-1,1.3l-0.3,0.5c-0.1,0.1-0.1,0.3-0.2,0.4l-0.2,0.3c0,0,0.1-0.1,0.2-0.3s0.1-0.2,0.2-0.4l0.3-0.5
			c0.3-0.4,0.6-0.8,1-1.2c0.5-0.5,1-1,1.6-1.4c0.6-0.5,1.3-1,2-1.5s1.5-1.1,2.2-1.7c0.8-0.6,1.5-1.3,2.1-2.1
			c0.6-0.8,1.3-1.6,1.9-2.4s1.2-1.7,1.8-2.5s1.1-1.7,1.5-2.6c0.1-0.2,0.2-0.4,0.3-0.6l0.3-0.6c0.2-0.4,0.4-0.8,0.6-1.2
			c0.4-0.8,0.7-1.6,1-2.3c0.2-0.4,0.3-0.7,0.4-1.1s0.2-0.7,0.3-1c0.2-0.6,0.3-1.1,0.4-1.6s0.2-0.8,0.2-1s0.1-0.4,0.1-0.4L68.9,147.4
			z"/>
		<path class="st3" d="M76.8,142.1l-1.8-0.6l-0.9-0.3c-0.3-0.1-0.7-0.2-1.2-0.3c-0.9-0.2-1.8-0.4-2.8-0.6l-1.6-0.3
			c-0.3,0-0.6-0.1-0.8-0.1l-0.9-0.1l-0.9-0.1h-0.4H65h-1.9h-0.5h-0.5h-1c-0.7,0-1.3,0.1-2,0.1l-2,0.2l-2,0.4l-0.5,0.1
			c-0.2,0-0.3,0.1-0.5,0.1c-0.3,0.1-0.7,0.2-1,0.3s-0.7,0.2-1,0.4l-0.9,0.4c-1.2,0.6-2.4,1.2-3.5,1.8c-2.2,1.2-4.3,2.5-6.1,3.5
			c-0.5,0.2-0.9,0.5-1.3,0.7s-0.8,0.4-1.2,0.6c-0.8,0.4-1.4,0.6-2,0.8c-0.3,0.1-0.5,0.2-0.8,0.3l-0.6,0.2l-0.5,0.1l0.5-0.1l0.6-0.2
			c0.2-0.1,0.5-0.2,0.8-0.3c0.6-0.2,1.2-0.5,2-0.8c0.4-0.2,0.8-0.4,1.2-0.6s0.9-0.4,1.3-0.7c1.8-0.9,3.9-2.2,6.1-3.4
			c1.1-0.6,2.3-1.2,3.5-1.7l0.9-0.4c0.3-0.1,0.6-0.2,1-0.3c0.3-0.1,0.7-0.2,1-0.3c0.2,0,0.3-0.1,0.5-0.1l0.5-0.1l2-0.3l2-0.2
			c0.7-0.1,1.3-0.1,2-0.1h1h0.5h0.5l1.9,0.1h0.4l0.4,0.1l0.9,0.1l0.9,0.1c0.3,0,0.5,0.1,0.8,0.1l1.6,0.3c0.9,0.2,1.8,0.4,2.7,0.6
			c0.4,0.1,0.8,0.2,1.1,0.3l0.9,0.3l1.8,0.6L76.8,142.1z"/>
		<path class="st3" d="M113.4,116.2l-0.6-0.3l-0.7-0.3c-0.3-0.1-0.6-0.3-1-0.4l-1.3-0.5c-0.5-0.2-1-0.3-1.5-0.5s-1.1-0.4-1.7-0.5
			l-0.9-0.3l-1-0.3c-1.3-0.4-2.8-0.7-4.4-1s-3.2-0.6-4.9-0.9s-3.5-0.5-5.3-0.8l-2.7-0.4l-1.3-0.2l-1.3-0.3c-0.9-0.2-1.8-0.4-2.7-0.6
			l-2.7-0.4l-0.7-0.1l-0.7-0.1l-1.3-0.2c-0.9-0.1-1.8-0.2-2.6-0.3l-2.5-0.2c-0.4,0-0.8,0-1.2-0.1h-1.2h-1.2c-0.4,0-0.8,0-1.1,0h-2.1
			c-1.4,0-2.6,0.1-3.8,0.1l-1.6,0.1l-1.4,0l-2.5,0.2L58,108l1.3-0.1h1.6c1.1,0,2.4-0.1,3.8,0h2.1c0.4,0,0.8,0,1.1,0l1.2,0.1l1.2,0.1
			c0.4,0,0.8,0,1.2,0.1l2.5,0.2c0.9,0.1,1.7,0.2,2.6,0.3l1.3,0.2l0.7,0.1l0.7,0.1l2.7,0.5c0.9,0.2,1.8,0.4,2.7,0.6l1.3,0.3l1.4,0.2
			l2.7,0.4c1.8,0.3,3.5,0.6,5.2,0.8s3.3,0.6,4.8,1s3,0.7,4.3,1.1l1,0.3l0.9,0.3c0.6,0.2,1.2,0.4,1.7,0.6s1,0.3,1.5,0.5l1.2,0.5
			c0.4,0.1,0.7,0.3,1,0.4l0.7,0.3l0.6,0.3L113.4,116.2z"/>
		<path class="st3" d="M141.9,100.4l-0.5-0.5c-0.4-0.3-0.9-0.8-1.5-1.5s-1.4-1.4-2.3-2.3l-3.1-3c-1.1-1.1-2.4-2.3-3.7-3.5
			c-0.7-0.6-1.4-1.2-2.1-1.8s-1.5-1.2-2.3-1.8s-1.7-1.1-2.5-1.7s-1.8-1-2.7-1.5l-0.7-0.4l-0.3-0.2l-0.4-0.2l-1.4-0.6
			c-0.5-0.2-1-0.4-1.5-0.6s-1-0.4-1.5-0.6l-3-1c-1-0.3-2-0.6-3-1l-1.4-0.5l-1.5-0.4l-2.9-0.8L98,75.2l-2.5-0.7l-2.3-0.7L91,73.1
			l-1.9-0.6L87.4,72l-1.4-0.5l-2.7-0.9l2.7,1c0.4,0.2,0.9,0.3,1.4,0.5l1.7,0.6l1.9,0.7c0.7,0.2,1.4,0.5,2.1,0.7l2.3,0.8l2.5,0.8
			l5.4,1.7l2.8,0.9l1.4,0.5l1.4,0.5c1,0.3,1.9,0.7,2.9,1l2.9,1.1c0.5,0.2,1,0.4,1.4,0.6s1,0.4,1.4,0.6l1.4,0.7l0.3,0.2l0.3,0.2
			l0.7,0.4c0.9,0.5,1.7,1,2.6,1.5s1.6,1.1,2.4,1.7s1.5,1.2,2.2,1.8c0.7,0.6,1.4,1.2,2,1.8c1.3,1.2,2.5,2.4,3.6,3.5l3,3.1
			c0.9,0.9,1.6,1.7,2.3,2.4s1.1,1.2,1.5,1.5l0.5,0.5L141.9,100.4z"/>
		<path class="st3" d="M158.3,97.4c0,0,0-0.2,0-0.7s0-1-0.1-1.9s-0.1-1.8-0.3-2.9c-0.1-0.6-0.1-1.2-0.2-1.8s-0.2-1.3-0.3-2
			s-0.3-1.4-0.4-2.1c-0.1-0.4-0.2-0.7-0.3-1.1s-0.2-0.8-0.3-1.1c-0.2-0.8-0.4-1.6-0.7-2.3l-0.4-1.2c-0.1-0.4-0.3-0.8-0.4-1.2
			c-0.6-1.6-1.2-3.3-1.9-5s-1.6-3.3-2.4-4.9s-1.8-3.2-2.9-4.7c-1-1.5-2.1-2.9-3.2-4.2l-0.4-0.5l-0.4-0.5l-0.8-0.9l-0.9-0.9l-0.4-0.4
			l-0.4-0.4l-0.9-0.8l-0.9-0.7c-0.6-0.5-1.1-0.9-1.7-1.3c-0.3-0.2-0.5-0.4-0.8-0.6l-0.8-0.6c-0.5-0.3-1-0.7-1.5-1
			c-1-0.6-1.8-1-2.6-1.4s-1.3-0.6-1.7-0.8l-0.6-0.2l0.6,0.3c0.4,0.2,1,0.4,1.7,0.8c0.9,0.4,1.7,0.9,2.5,1.4c0.5,0.3,1,0.6,1.5,1
			l0.8,0.6c0.3,0.2,0.5,0.4,0.8,0.6c0.5,0.4,1.1,0.9,1.6,1.4L140,56l0.8,0.8l0.4,0.4l0.4,0.4l0.8,0.9l0.8,1c0.1,0.2,0.3,0.3,0.4,0.5
			l0.4,0.5c1.1,1.4,2.1,2.8,3,4.3c1,1.5,1.8,3.1,2.7,4.7s1.6,3.3,2.2,4.9s1.3,3.3,1.8,4.9c0.1,0.4,0.2,0.8,0.4,1.2s0.2,0.8,0.3,1.2
			c0.2,0.8,0.4,1.6,0.6,2.3c0.1,0.4,0.2,0.8,0.2,1.1s0.1,0.7,0.2,1.1c0.1,0.7,0.2,1.4,0.4,2.1s0.2,1.3,0.3,1.9s0.1,1.2,0.2,1.7
			c0.1,1.1,0.2,2,0.2,2.8s0,1.4,0,1.8v0.7L158.3,97.4z"/>
		<path class="st3" d="M169.4,98.4c-2.7-0.3-5.4-0.4-8.1-0.3c-3.6,0.3-7.1,0.9-10.5,1.7c-4.1,1-8.2,2.2-12.1,3.7
			c-2.1,0.8-4.2,1.7-6.4,2.7c-1.1,0.5-2.2,1-3.2,1.6s-2.1,1.1-3.2,1.7c-4.2,2.5-8.5,5.3-12.8,8.3s-8.7,6-13,9
			c-8.7,6.1-17.4,12.2-25.6,17.9s-15.9,10.8-22.7,15.1c-5.4,3.5-11,6.6-16.8,9.4c-1.6,0.8-3.4,1.3-5.1,1.6c-0.6,0.1-1.1,0.2-1.4,0.2
			c-0.1,0-0.2,0-0.4,0h0.4c0.3,0,0.8-0.2,1.4-0.2c1.8-0.4,3.5-1,5.1-1.8c5.8-2.8,11.3-6,16.6-9.6c6.7-4.4,14.3-9.7,22.4-15.5
			s16.6-12.1,25.2-18.3c4.3-3.1,8.6-6.2,12.9-9.2c2.1-1.5,4.3-3,6.4-4.4c2.1-1.4,4.3-2.8,6.4-4.1c1.1-0.7,2.2-1.3,3.3-1.8
			s2.2-1.1,3.3-1.6c2.2-1,4.4-1.9,6.5-2.8c4-1.6,8.2-2.9,12.4-3.9c3.6-0.8,7.2-1.4,10.9-1.6c3-0.3,6-0.3,9-0.2
			c2.3,0.3,3.5,0.3,4.8,0.5c0.2,1.1,0.5,2.2,0.9,3.2c-0.3-0.1-0.9-0.3-1.4-0.3C172.9,98.8,171.1,98.5,169.4,98.4z"/>
		<path class="st2" d="M112.4,187c-0.4,1.9-0.6,3.8-0.5,5.7c4.9-1.6,8.9-6.9,8.9-6.9c-2.2,5.5,5.3,9.6,5.3,9.6
			c-0.3-4.9,3.9-9.9,3.9-9.9c0.8,8.1,4.6,5.8,4.6,5.8c-0.8-7,3.8-9.8,3.8-9.8c-4.6,5.8,3.4,15.5,3.4,15.5
			c-2.1-3.5,0.1-10.7,0.1-10.7c0.6,5.6,8.8,9.2,8.8,9.2c-2.5-3.4,2.3-16.2,2.3-16.2c0.6,6.9,3.2,7.8,4.8,7.7
			c-0.1,1.2-0.2,2.4-0.2,3.6c0,1.4,0.2,2.8,0.5,4.1c-14.7,8.6-55.6,6-52.6,1.7c0.5-0.8,1-1.5,1.5-2.3L112.4,187z"/>
		<path class="st2" d="M170.2,164.9c-2.9,11.2,3.1,17.3,3.1,17.3c1-11.8,10.3-16.2,7.6-13.8c-0.1,0.1-0.2,0.2-0.3,0.3
			c-2.2,2.9,0.2,12.7,0.2,12.7c7.2-0.5,9.5-16.5,9.5-16.5c1.3,3.6-2.5,15.6,3.9,12.9c2.6-1.1,3-16.4,3-16.4c2.3,2.3,4.1,5.1,5.3,8.2
			c-0.1,1.2-0.1,2.4,0.1,3.6c0.1,0.8,0.3,1.7,0.5,2.5c-7.6,7.9-34.4,18.3-36.1,12.1c-0.9-3.4-2.1-7.7-3.1-12.4
			C165.7,171.7,167.8,168.2,170.2,164.9z"/>
		<path class="st2" d="M210.8,166.5c-2.2-1.2-4.2-2.7-5.9-4.4c-0.5-8.4-4.3-20.1-4.3-20.1c3.7,2.4,8,15.4,8,15.4
			c2.3-6.5-2.9-15.4-2.9-15.4c2.6,2,4.4,4.9,4.9,8.1c2.6-1,1.4-21.9,1.4-21.9c2.4,2.8,5.7,16.1,5.7,16.1c2.8-3-1.4-13.2-1.4-13.2
			c3.8,4,6.9,11.5,6.9,11.5c0.8-1.1,0.4-3.7-0.8-7c1.2,2.6,2,5.4,2.4,8.2C226.8,157.5,210.8,166.5,210.8,166.5z"/>
	</g>
</g>
</svg>
