<svg id="Layer_26" data-name="Layer 26" xmlns="http://www.w3.org/2000/svg" viewBox="0 0 260 250"><defs><style>.cls-1{fill:#ece3d3;}.cls-2{fill:#f9f9f9;}.cls-3{fill:#c2c2c2;}.cls-4{fill:#676767;}.cls-5{fill:#eb908d;}.cls-6{fill:#d36c6c;}.cls-7{fill:#323335;}.cls-8{fill:#191a1c;}.cls-9{fill:#676869;}.cls-10{fill:#1e1f21;}.cls-11{fill:#fff;}.cls-12{fill:#c4c4c4;}.cls-13{fill:#218cbe;}.cls-14{fill:#1a5aa6;}.cls-15{fill:#153183;}.cls-16{fill:#13100e;}.cls-17{fill:#6d0a09;}.cls-18{fill:#320507;}.cls-19{fill:#f67676;}.cls-20{fill:#e55757;}.cls-21{fill:#bf1c28;}</style></defs><rect class="cls-1" width="260" height="250"/><path class="cls-2" d="M165.3,10.9c.45,1.24-1.35,6.67-2.42,14.11S158.4,36.1,158.4,36.1s-5,.3-9.3.39c-.08-3.37.09-10.27,3.33-15.32S164.86,9.66,165.3,10.9Z"/><path class="cls-3" d="M152.43,21.17c3.23-5,12.39-11.48,12.87-10.27-8.88,5.41-15,15.08-13.13,25.5-1,0-2,.07-3.07.09C149,33.12,149.19,26.22,152.43,21.17Z"/><path class="cls-4" d="M152.21,21c-3,4.67-3.49,11-3.37,15.47v.26h.26c4.29-.08,9.26-.38,9.31-.38h.1l.07-.07c.15-.16,3.49-3.81,4.56-11.24.49-3.47,1.14-6.47,1.66-8.87.63-2.89,1-4.64.75-5.37a.53.53,0,0,0-.55-.33C163.12,10.48,155.11,16.5,152.21,21Zm.44.29C155.59,16.74,163.43,11,165,11h.05c.19.62-.23,2.57-.77,5.05s-1.17,5.42-1.67,8.9c-1,6.68-3.86,10.31-4.35,10.88-.74,0-5,.28-8.91.37C149.27,31.83,149.79,25.78,152.65,21.32Z"/><path class="cls-5" d="M161.5,17.72c.53.22,0,5.58-1.64,10.36a38.08,38.08,0,0,1-3.93,8.16l-3.5.25C152.57,23.56,161.5,17.72,161.5,17.72Z"/><path class="cls-6" d="M152.43,36.49c.14-12.93,9.07-18.77,9.07-18.77s.1.11.13.24c-3,3.68-5.9,11.12-4.39,16.06-.76,1.4-1.31,2.22-1.31,2.22Z"/><path class="cls-4" d="M152.16,36.49v.28l3.91-.28.08-.1a39.11,39.11,0,0,0,4-8.23c1.4-4.08,2.41-10.3,1.49-10.69l-.13,0-.12.08A23.61,23.61,0,0,0,152.16,36.49Zm.54-.29a23.2,23.2,0,0,1,8.7-18.09c.18,1.06-.32,5.59-1.79,9.88a38.85,38.85,0,0,1-3.83,8Z"/><path class="cls-2" d="M117.32,55c1.06-15,9.74-27.36,23.66-30.76,21.36-5.09,31.76,1.37,31.5,2.87s-11.35,9.39-11.35,9.39c-19.44,0-33.95,7.74-29.76,29.69,6.55,34.32,4,50.25-12.16,57.7,8.35-6.48,7-15.59,6.07-23.74S116.26,70,117.32,55Z"/><path class="cls-3" d="M129.36,92.88c-2.48-17.35-8.85-35.41.35-51.35,6.5-11.85,22.22-12,35-7.64-2,1.48-3.54,2.6-3.54,2.6-19.44,0-33.95,7.74-29.76,29.69,6.55,34.32,4,50.25-12.16,57.7a17,17,0,0,0,4.5-5.14C129.06,111.89,130.43,101.47,129.36,92.88Z"/><path class="cls-7" d="M166.37,23.58a29.16,29.16,0,0,0-8.41,13c-.85,0-1.69.1-2.52.17-.06-2.17.12-9.37,5.15-14.2A33.64,33.64,0,0,1,166.37,23.58Z"/><path class="cls-8" d="M158,36.56c-.85,0-1.69.1-2.52.17a23,23,0,0,1,.42-5q1.9.29,3.78.72A30.59,30.59,0,0,0,158,36.56Z"/><path class="cls-7" d="M141,24.23c1.71-.41,3.35-.73,4.92-1a47.68,47.68,0,0,0-.16,15.39,28.9,28.9,0,0,0-3.9,1.59,32,32,0,0,1-2.09-15.65C140.15,24.44,140.57,24.33,141,24.23Z"/><path class="cls-8" d="M145.74,38.62a28.9,28.9,0,0,0-3.9,1.59,31.65,31.65,0,0,1-2-7.31,25.63,25.63,0,0,1,5.31-1.32A39,39,0,0,0,145.74,38.62Z"/><path class="cls-7" d="M135.72,44.7a17.55,17.55,0,0,0-2.09,2.74,25.51,25.51,0,0,1-9.94-11.29,31,31,0,0,1,3.22-3.9C128.35,35.52,131.37,41.34,135.72,44.7Z"/><path class="cls-8" d="M131,39.54a23.58,23.58,0,0,0,4.75,5.16,17.55,17.55,0,0,0-2.09,2.74,27.9,27.9,0,0,1-4.95-4c.32-.65.66-1.3,1-1.95A21,21,0,0,1,131,39.54Z"/><path class="cls-7" d="M132.16,50.39a19.86,19.86,0,0,0-1,3.33,40.21,40.21,0,0,1-13-4.54,37.74,37.74,0,0,1,1.62-5.51A36.4,36.4,0,0,0,132.16,50.39Z"/><path class="cls-8" d="M132.16,50.39a19.86,19.86,0,0,0-1,3.33,37.5,37.5,0,0,1-5.49-1.3,36.93,36.93,0,0,1,1.07-4.2A33.34,33.34,0,0,0,132.16,50.39Z"/><path class="cls-7" d="M130.66,60a35.55,35.55,0,0,0,.36,4.1,33.69,33.69,0,0,1-13.48-.49,54.81,54.81,0,0,1-.3-6.91A33.09,33.09,0,0,0,130.66,60Z"/><path class="cls-8" d="M124.93,59.3a26.53,26.53,0,0,0,5.73.66,35.55,35.55,0,0,0,.36,4.1,40.82,40.82,0,0,1-6,.46C124.9,62.77,124.87,61,124.93,59.3Z"/><path class="cls-7" d="M132.45,72.18c.22,1.3.43,2.57.61,3.82-2.13,1-6.41,2.5-13,2.07-.47-2.07-.92-4.18-1.32-6.29A49.82,49.82,0,0,0,132.45,72.18Z"/><path class="cls-8" d="M132.45,72.18c.22,1.3.43,2.57.61,3.82a21.8,21.8,0,0,1-6.33,1.85q-.48-2.7-.89-5.38A39.64,39.64,0,0,0,132.45,72.18Z"/><path class="cls-7" d="M134.09,83.82c.15,1.46.28,2.87.38,4.24a22.24,22.24,0,0,1-10.92,3.86c-.47-1.87-1-3.91-1.55-6A23,23,0,0,0,134.09,83.82Z"/><path class="cls-8" d="M134.09,83.82c.15,1.46.28,2.87.38,4.24A20.22,20.22,0,0,1,129,90.78c-.27-1.69-.56-3.4-.88-5.11A21.67,21.67,0,0,0,134.09,83.82Z"/><path class="cls-7" d="M134.4,101.14a26.69,26.69,0,0,1-8.73,2.58c-.12-1.21-.26-2.4-.39-3.58-.07-.66-.19-1.41-.35-2.25a34.14,34.14,0,0,0,9.78-2.25C134.69,97.58,134.59,99.41,134.4,101.14Z"/><path class="cls-8" d="M129.68,97.18a28.11,28.11,0,0,0,5-1.54c0,1.94-.12,3.77-.31,5.5a25.16,25.16,0,0,1-4.94,1.85A43.67,43.67,0,0,0,129.68,97.18Z"/><path class="cls-7" d="M132.54,109.76a26,26,0,0,1-1.8,4,21.78,21.78,0,0,1-5.12-.51,24.43,24.43,0,0,0,.32-3.41A38.42,38.42,0,0,0,132.54,109.76Z"/><path class="cls-8" d="M132.54,109.76a26,26,0,0,1-1.8,4,23.79,23.79,0,0,1-3.92-.27,32.41,32.41,0,0,0,1.29-3.54A38.51,38.51,0,0,0,132.54,109.76Z"/><path class="cls-4" d="M125.12,101.13c.86,7.69,1.83,16.41-6.07,22.54l-1.83,1.42,2.1-1c15.87-7.31,19.09-22.48,12.31-58-1.66-8.69-.44-15.59,3.62-20.5,4.81-5.81,13.75-8.88,25.88-8.88h.08l.07,0c1.87-1.32,11.19-8,11.46-9.55a1.1,1.1,0,0,0-.33-.84c-1.39-1.65-7-4.27-16.33-4.27A65.87,65.87,0,0,0,140.92,24a29.59,29.59,0,0,0-16.8,11.14A37.2,37.2,0,0,0,117.06,55c-.72,10.07,2.76,23.52,5.29,33.33A106.71,106.71,0,0,1,125,100.17Zm.43-1a107.22,107.22,0,0,0-2.68-11.94c-2.53-9.78-6-23.18-5.28-33.16,1.1-15.56,10.09-27.25,23.46-30.52a65.32,65.32,0,0,1,15-1.92c9.1,0,14.6,2.51,15.92,4.08.19.22.22.36.21.41-.17,1-6.91,6.13-11.17,9.16-12.24,0-21.3,3.15-26.19,9.07-4.17,5-5.43,12.09-3.74,20.94,6.44,33.75,3.82,49-10.13,56.47,6.39-6.19,5.48-14.36,4.67-21.63Z"/><path class="cls-7" d="M46.26,167.6a78.65,78.65,0,0,0,.38,8.86c.47,4.13-1,17.11-7,21.66a54.52,54.52,0,0,0,1-6.43s-5.49,7.55-5.49,15.05c-1.12-2.66-.88-7.2-.88-7.2s-2.42,6.66-6.73,9.08A73.69,73.69,0,0,0,31.86,196s-2.89,5.08-4.9,6.5A79.48,79.48,0,0,0,28.49,191l-2.65,4.42A27.06,27.06,0,0,1,32,178C38.82,169.38,45.14,166.94,46.26,167.6Z"/><path class="cls-8" d="M32.68,182.83c0,3.19-2.12,6.38-1.06,9.56a30.3,30.3,0,0,1,6-8.85c-1.06,3.54-2.83,7.08-3.19,11,1.07-1.77,2.48-3.9,3.55-5.67a19.93,19.93,0,0,1-.36,4.61c1.77-2.13,3.19-6.82,4.25-9.3a24.58,24.58,0,0,1-.35,5.05c3.74-6.12,2.91-13.22,4.72-19.74,0,1.76.1,4.48.38,7,.47,4.13-1,17.11-7,21.66a54.52,54.52,0,0,0,1-6.43s-5.49,7.55-5.49,15.05c-1.12-2.66-.88-7.2-.88-7.2s-2.42,6.66-6.73,9.08A73.69,73.69,0,0,0,31.86,196s-2.89,5.08-4.9,6.5A79.48,79.48,0,0,0,28.49,191l-2.65,4.42a10.31,10.31,0,0,1,0-1.15C27.47,190.1,29.18,185.93,32.68,182.83Z"/><path d="M31.77,177.8a27.61,27.61,0,0,0-6.2,17.68l.07.83,2.51-4.19a76.51,76.51,0,0,1-1.45,10.31l-.16.68.57-.41c1.33-.94,3-3.37,4-5a66.17,66.17,0,0,1-3.83,10.82l-.38.77.75-.42c3.22-1.81,5.37-5.85,6.31-7.94a17.24,17.24,0,0,0,.93,5.92l.51,1.21v-1.31c0-5.85,3.43-11.81,4.84-14a47.38,47.38,0,0,1-.88,5.33l-.18.72.6-.45c6.12-4.62,7.58-17.71,7.1-21.9a78.59,78.59,0,0,1-.39-8.82v-.16l-.14-.07a1.15,1.15,0,0,0-.63-.14C43.94,167.24,38.13,169.82,31.77,177.8Zm-5.68,16.73a27.56,27.56,0,0,1,6.09-16.4c6.24-7.83,11.85-10.36,13.58-10.36l.23,0a77.65,77.65,0,0,0,.39,8.7c.45,4-.85,16.06-6.3,20.93.54-2.55.83-5.68.84-5.71l.09-1-.57.78c-.06.07-4.83,6.72-5.47,13.7a24.73,24.73,0,0,1-.43-5.68l.09-1.78-.6,1.67c0,.07-2.15,5.81-5.85,8.46a78.51,78.51,0,0,0,3.94-11.84l.43-1.82-.92,1.62a34.32,34.32,0,0,1-4.24,5.92,86.47,86.47,0,0,0,1.37-10.73l.06-1.07Z"/><path d="M34.44,199.85l-.52-.13a35.55,35.55,0,0,1,2.6-6.56S35.17,196.9,34.44,199.85Z"/><path d="M33.73,191.59a49.33,49.33,0,0,1-2.28,5.6L31,197Z"/><path d="M30.54,186.82s-1.42,3.39-2.32,5.31l-.48-.23C28.64,190,30.54,186.82,30.54,186.82Z"/><path class="cls-2" d="M48.27,203.34c-.83-6.11-1.07-8.7,2.47-12.48S61.63,184,64.27,165.1a47.56,47.56,0,0,0,12,11.21s-2.38,16.8-9.92,20.22c-3.77,1.29-6.72,2.59-7.43,5.78s-.62,8.14,0,13.19,1.33,11,.35,13.9a20.11,20.11,0,0,1-8.14,2.92,12.29,12.29,0,0,0-2.83-2.8c-1.78-1.24-2.48-1.48-2.48-3.9S48,221.85,48.21,219,49.09,209.45,48.27,203.34Z"/><path class="cls-3" d="M48.21,219c.17-2.89.88-9.5.06-15.61s-1.07-8.7,2.47-12.48S61.63,184,64.27,165.1a52.48,52.48,0,0,0,6.09,6.64c-.8,5.14-3.37,9.57-6.51,14.28-2.84,4.25-9.56,4.6-10.27,9.91a195.26,195.26,0,0,0-2.48,28.34,19.5,19.5,0,0,0,2,7.68,16.93,16.93,0,0,1-2,.37,12.29,12.29,0,0,0-2.83-2.8c-1.78-1.24-2.48-1.48-2.48-3.9S48,221.85,48.21,219Z"/><path class="cls-7" d="M59.45,220.51c.1,1,.17,2,.22,2.9a34.51,34.51,0,0,0-13.26,0,21.12,21.12,0,0,0,1.45-2.81A19,19,0,0,1,59.45,220.51Z"/><path class="cls-8" d="M47.86,220.58a15.81,15.81,0,0,1,3.32-.78c0,1-.06,2-.07,3a26.44,26.44,0,0,0-4.7.61A21.12,21.12,0,0,0,47.86,220.58Z"/><path class="cls-7" d="M58.56,212.17q.12,1.65.33,3.33v.09a13,13,0,0,0-10.37-1.38c0-.69.07-1.43.09-2.19C50.35,211.07,53.7,210.05,58.56,212.17Z"/><path class="cls-8" d="M48.62,212a8.91,8.91,0,0,1,3.12-1c-.08.9-.16,1.8-.23,2.69a12.76,12.76,0,0,0-3,.51C48.57,213.52,48.6,212.78,48.62,212Z"/><path class="cls-7" d="M58.58,204.19c-.09.81-.14,1.67-.17,2.59a15.48,15.48,0,0,0-10-1.94c0-.5-.11-1-.17-1.5s-.12-.89-.18-1.32C50,201.58,53.8,201.29,58.58,204.19Z"/><path class="cls-8" d="M52.74,201.93c-.12.95-.24,1.89-.35,2.83a13.51,13.51,0,0,0-4,.08c0-.5-.11-1-.17-1.5s-.12-.89-.18-1.32A11.84,11.84,0,0,1,52.74,201.93Z"/><path class="cls-7" d="M61.1,199a6,6,0,0,0-1.73,2c-2.11-1.54-7.1-5-11.14-6.25a10.11,10.11,0,0,1,2.09-3.4A29.41,29.41,0,0,1,61.1,199Z"/><path class="cls-8" d="M50.32,191.33a27.6,27.6,0,0,1,4.19,2.13,5.69,5.69,0,0,0-.93,2.47c-.06.39-.12.78-.17,1.17a27.9,27.9,0,0,0-5.18-2.37A10.11,10.11,0,0,1,50.32,191.33Z"/><path class="cls-7" d="M57.75,183.77c2.62,1.85,8.34,5.84,13,8.6a14.45,14.45,0,0,1-2,2.45c-2.59-2-8.32-6-14.46-7.23A26.06,26.06,0,0,0,57.75,183.77Z"/><path class="cls-8" d="M57.75,183.77c1.18.83,3,2.1,5,3.5a14.76,14.76,0,0,1-2.91,2.14,26.5,26.5,0,0,0-5.59-1.82A26.06,26.06,0,0,0,57.75,183.77Z"/><path class="cls-7" d="M74.74,183.08c-.36,1.27-.79,2.62-1.31,4a25.78,25.78,0,0,0-13.05-7.72c.39-.83.77-1.73,1.14-2.71A25.13,25.13,0,0,1,74.74,183.08Z"/><path class="cls-8" d="M61.52,176.61a23.6,23.6,0,0,1,6.65,2c-.48,1-1,2-1.6,3a27.18,27.18,0,0,0-6.19-2.36C60.77,178.49,61.15,177.59,61.52,176.61Z"/><path class="cls-7" d="M76.24,176.31s-.1.75-.34,1.95a48.68,48.68,0,0,0-13.08-5.79,62.49,62.49,0,0,0,1.45-7.37A47.56,47.56,0,0,0,76.24,176.31Z"/><path class="cls-8" d="M64.27,165.1a52.48,52.48,0,0,0,6.09,6.64,23.92,23.92,0,0,1-.73,3.17,45.66,45.66,0,0,0-6.81-2.44A62.49,62.49,0,0,0,64.27,165.1Z"/><path class="cls-8" d="M76.24,176.31s-.1.75-.34,1.95a50.21,50.21,0,0,0-6.27-3.35,23.92,23.92,0,0,0,.73-3.17A39.87,39.87,0,0,0,76.24,176.31Z"/><path class="cls-4" d="M46.67,222.38a6.31,6.31,0,0,0-1.15,3.24c0,2.34.67,2.79,2.13,3.79l.46.33a12.17,12.17,0,0,1,2.77,2.73l.09.13h.15a20.2,20.2,0,0,0,8.27-3l.08-.05,0-.09c1-3,.25-9.11-.35-14-.66-5.37-.66-10.15,0-13.1.69-3.1,3.69-4.37,7.25-5.59,7.62-3.44,10-19.74,10.1-20.43l0-.17-.15-.09a48,48,0,0,1-11.9-11.15l-.38-.5-.09.63c-2.19,15.6-7.5,20.27-11.38,23.67-.76.67-1.48,1.3-2.08,1.94-3.59,3.82-3.39,6.49-2.55,12.7a70.07,70.07,0,0,1,0,14.06c0,.57-.08,1.07-.11,1.5A7.59,7.59,0,0,1,46.67,222.38Zm-.62,3.24a5.9,5.9,0,0,1,1.08-3A8,8,0,0,0,48.47,219c0-.42.06-.92.11-1.49a70.51,70.51,0,0,0,0-14.18c-.85-6.29-1-8.65,2.41-12.26.58-.62,1.29-1.24,2-1.9,3.67-3.22,9.19-8.07,11.46-23.38A49.25,49.25,0,0,0,76,176.45c-.28,1.77-2.82,16.7-9.74,19.84-3.69,1.26-6.83,2.59-7.58,6-.67,3-.67,7.85,0,13.28.58,4.8,1.32,10.76.39,13.7a19.92,19.92,0,0,1-7.8,2.81,12.63,12.63,0,0,0-2.8-2.74L48,229C46.53,228,46.05,227.68,46.05,225.62Z"/><path class="cls-7" d="M59,228.75c2.42.24,11.39,10.57,11.33,11.43s-6.2,1.32-13.22,1.5-12.1-2-12.22-3a11.81,11.81,0,0,1,2.66-5.08C49.56,231.52,56.59,228.51,59,228.75Z"/><path class="cls-9" d="M50.89,231.36c2.86-1.48,6.51-2.77,8.12-2.61,2,.2,8.67,7.5,10.72,10.36a105.83,105.83,0,0,0-10.35-8.69C58,229.58,53,230.82,50.89,231.36Z"/><path class="cls-10" d="M47.56,233.59a14.84,14.84,0,0,1,3.7-2.42c-1.4,3.36,1,6.54,3.5,7.49,2.1.82,9.93,1.89,15.31,1.49-2,1.09-7.64,1.39-12.95,1.53-7,.17-12.1-2-12.22-3A11.81,11.81,0,0,1,47.56,233.59Z"/><path d="M44.64,238.61v.09c.14,1.31,5.1,3.25,11.65,3.25h.84c13.38-.34,13.45-1.32,13.47-1.75.08-1.05-9-11.45-11.57-11.7s-9.61,2.8-11.66,4.92A11.9,11.9,0,0,0,44.64,238.61Zm.53.06a11.65,11.65,0,0,1,2.58-4.89c1.93-2,8.92-5,11.23-4.76s10.76,9.86,11.09,11.13c-.14.15-1.41,1-13,1.26h-.82C49.55,241.42,45.38,239.38,45.17,238.67Z"/><path class="cls-2" d="M170.62,197.26c4.42-2.74,10.8-8.14,11.51-9.12-1.95-3.09-12.49-4.75-13-14.19,4.25-2.63,13.64-15.2,13.64-15.2s5.48,17,10.09,22.22c2.92,2.48,4.25,3.46,3.54,7.71-.53,2.92-2.3,4.16-5.58,6.1S174.07,206.83,169,206.52s-10.8-4.21-10.8-4.21l3.37-5.51S166.19,200,170.62,197.26Z"/><path class="cls-3" d="M187.78,187.84a44.28,44.28,0,0,1-19.46,12.7,13.48,13.48,0,0,1-8.66-.59l1.93-3.15s4.6,3.21,9,.46,10.8-8.14,11.51-9.12c-1.95-3.09-12.49-4.75-13-14.19,2.39-1.48,6.4-6.09,9.46-9.85A27.28,27.28,0,0,0,187.78,187.84Z"/><path class="cls-7" d="M187.48,197c-.91.62-1.94,1.32-3,2-.86-1.42-2.37-3.89-3-4.79s-2.72-1.83-3.65-2.18c1-.83,1.94-1.62,2.68-2.27C183.24,191.41,186.11,195.07,187.48,197Z"/><path class="cls-8" d="M177.77,192c1-.83,1.94-1.62,2.68-2.27a15.9,15.9,0,0,1,2.93,2.35c-.73.62-1.47,1.22-2.24,1.79A11,11,0,0,0,177.77,192Z"/><path class="cls-7" d="M196.33,188.9c-.45,2.16-1.63,3.39-3.66,4.72a35.32,35.32,0,0,0-4.88-5c-1.19-.88-4.43-.67-5.71-.54a1.27,1.27,0,0,0-.13-.19c1.18-.72,4.69-2.78,6.37-2.85S194.38,187.67,196.33,188.9Z"/><path class="cls-8" d="M182.08,188.09a1.27,1.27,0,0,0-.13-.19,38.41,38.41,0,0,1,3.76-2,24.09,24.09,0,0,0,2.07,2l-.48.53C185.87,187.8,183.21,188,182.08,188.09Z"/><path class="cls-7" d="M182.8,180.18a53.05,53.05,0,0,1,6.9-4.14,30.19,30.19,0,0,0,2.64,4.33,23.91,23.91,0,0,0-6,.69c-1.55.61-4.36,4.34-5.45,5.86a28,28,0,0,0-2.62-1.6A21.39,21.39,0,0,1,182.8,180.18Z"/><path class="cls-8" d="M178.25,185.32a23.12,23.12,0,0,1,3.75-4.49,29.42,29.42,0,0,0,1.65,2.56c-1.11,1.26-2.19,2.71-2.78,3.53A28,28,0,0,0,178.25,185.32Z"/><path class="cls-7" d="M186.55,169.11c.49,1.18,1,2.38,1.53,3.56a10.61,10.61,0,0,0-4.89,1.66c-2.67,1.63-6.24,6.64-7.95,9.19a20.51,20.51,0,0,1-2-1.52c1.39-2.5,4.26-7.4,6.52-9.53A15.06,15.06,0,0,1,186.55,169.11Z"/><path class="cls-8" d="M173.22,182a56.29,56.29,0,0,1,5.82-8.8A26.57,26.57,0,0,0,180.2,177a61.46,61.46,0,0,0-5,6.51A20.51,20.51,0,0,1,173.22,182Z"/><path class="cls-4" d="M161.51,196.42l-3.65,6,.21.14c.24.16,5.88,3.94,10.94,4.25h.25c4.18,0,13.1-6,18.42-9.63,1.44-1,2.57-1.74,3.26-2.15,3.17-1.88,5.14-3.19,5.7-6.29.71-4.27-.65-5.43-3.37-7.73l-.24-.21c-4.52-5.14-10-21.94-10-22.11l-.16-.49-.31.41c-.09.13-9.41,12.56-13.57,15.13l-.13.08V174c.37,6.58,5.51,9.48,9.27,11.59a12.69,12.69,0,0,1,3.67,2.58A77.76,77.76,0,0,1,170.48,197a7,7,0,0,1-3.76,1.07,9.68,9.68,0,0,1-5-1.53Zm-2.93,5.81,3.1-5.06a10,10,0,0,0,5,1.47,7.58,7.58,0,0,0,4-1.15c4.48-2.78,10.88-8.22,11.58-9.19l.11-.15-.1-.15c-.66-1-2.19-1.91-4-2.91-3.82-2.15-8.57-4.83-9-11,3.9-2.54,11.61-12.58,13.27-14.77,1,2.86,5.77,17.06,10,21.83l0,0,.26.22c2.72,2.3,3.85,3.26,3.19,7.23-.5,2.72-2,3.9-5.45,5.93-.7.41-1.84,1.18-3.28,2.16-5.38,3.63-14.45,9.78-18.35,9.53C164.66,206,159.66,202.92,158.58,202.23Z"/><path class="cls-7" d="M159.32,188.68c3.33.88,2.27,8.12,2.27,8.12l-.82,6.5s-8.13.74-14.23-3.93-6.29-6.62-6-8.13S156,187.79,159.32,188.68Z"/><path class="cls-10" d="M140.52,191.24c0-.13.17-.27.42-.42,3.1,6.55,12.33,6.84,18.88,5.11.63-.14,1.26-.28,1.9-.44-.05.78-.13,1.31-.13,1.31l-.82,6.5s-8.13.74-14.23-3.93S140.25,192.75,140.52,191.24Z"/><path d="M140.25,191.2c-.29,1.65-.05,3.65,6.12,8.38,4.76,3.63,10.76,4,13.12,4h0c.8,0,1.27-.05,1.29-.05l.21,0,.85-6.7c.05-.3,1.06-7.49-2.46-8.42a12,12,0,0,0-2.74-.23C152.18,188.19,140.55,189.52,140.25,191.2Zm.53.09c.27-.91,9.65-2.57,15.87-2.57a11.4,11.4,0,0,1,2.6.21c3.06.82,2.09,7.76,2.08,7.83l-.8,6.29-1,0c-2.31,0-8.18-.38-12.8-3.91C140.76,194.61,140.53,192.71,140.78,191.29Z"/><path class="cls-2" d="M96.25,125.29c8.5,1.59,15.76,2.12,23.73-1.77,16.64-11.69,13.63-31.52,11.33-43-7.62-35.06,2.65-43.74,17.53-45.68,21.42-2.66,36.12,11.45,40.43,14.63a19,19,0,0,0,8.31,3.64s-6.25,19.74-5.77,31c-1.89.47-11.93,2.71-17,5.31-.83,6.38-1.06,10.27,5.78,28s7.56,31.63,2.52,43.2c-9.52,20.78-20.22,17.71-31.32,16.53a67.93,67.93,0,0,1-53,7.67C95.48,188,86.07,194,81,197c.8,5.31,3.19,13.63,5.67,18.29s3.66,5.43,5.49,8.44a18.28,18.28,0,0,1,2.18,6.85s-2.54,2-6.2,4.31c-1.53-.18-5.9-1.59-7.08-3.54s.12-4.13-.35-6.85c-1.18-5.55-6.26-15.82-10.39-20.89s-5-7-3.07-10.63,5.19-9.68,1.18-17.58a55.13,55.13,0,0,1-6.37-23.26c-4.37,1.77-11.93,10.39-13.7,14.28s-3.3,3.78-4.13,2.48c.83-5.9,9.56-18.77,17.12-28.8C72.94,124.16,87.75,123.69,96.25,125.29Z"/><path class="cls-3" d="M170.07,62.78H152.22s-2.31-13.69,6.94-14.11S170.07,62.78,170.07,62.78Z"/><path class="cls-3" d="M98.72,184.79l.08-.1v0h0A.46.46,0,0,0,98.72,184.79Z"/><path class="cls-3" d="M111.65,155.21c6.38,7.79,17.36,9.56,26.56,6.73,4.61-1.77,7.44-5.67,9.92-9.56,1.42,6.73,7.08,11,12.75,14.52,4.6,2.83,11,1.06,13.81-3.9.71,2.83,2.83,3.19,5,1.77a18.72,18.72,0,0,0,3.19-3.66c-9.45,20.13-20.06,17.11-31.05,15.94a67.94,67.94,0,0,1-53,7.68v0C106.27,176.57,110.39,166.32,111.65,155.21Z"/><path class="cls-3" d="M142.11,99.26c-4.25,4.6-5.67,11-9.92,15.58a15.77,15.77,0,0,1-8,5.16c11.88-11.84,9.21-29.09,7.13-39.51-4.57-21-2.7-32.56,2.73-38.85A10,10,0,0,0,140,45.43c-4.24,2.12-4.95,7.44-5.66,11.69-1.06,8.5,2.83,16.29,9.21,21.6,8.14,7.08,19.47,7.79,29.74,4.6A139.27,139.27,0,0,1,192,78.63a40.44,40.44,0,0,0-.18,5.4c-1.89.47-11.93,2.71-17,5.31,0,.29-.08.57-.11.84-8.5,3.9-17,5.58-26.57,6.6C146,97.13,143.17,97.49,142.11,99.26Z"/><path class="cls-3" d="M67.74,137.86c-1.06,9.2-.71,18.77,3.19,27.27,2.48,5.31,5.67,11,4.6,17.35-1.06,5.66-4.25,10.62-2.12,16.29,2.48,7.08,6.73,13.45,10.27,20.18,1.41,3.19,0,6.73.71,9.92.57,2.59,3.5,3.31,5.9,4.63-.65.44-1.36.91-2.13,1.39-1.53-.18-5.9-1.59-7.08-3.54s.12-4.13-.35-6.85c-1.18-5.55-6.26-15.82-10.39-20.89s-5-7-3.07-10.63,5.19-9.68,1.18-17.58a55.13,55.13,0,0,1-6.37-23.26c-4.37,1.77-11.93,10.39-13.7,14.28-1.39,3.07-2.64,3.65-3.51,3.13C51,158,58.11,146.92,67.74,137.86Z"/><path class="cls-7" d="M61,152.71a18,18,0,0,0-2.43,1.72,18.94,18.94,0,0,0-4-4.8L55.6,148A9.33,9.33,0,0,1,61,152.71Z"/><path class="cls-8" d="M54.49,149.63,55.6,148a11.51,11.51,0,0,1,2.09,1c-.53.69-1,1.39-1.56,2.09A9.32,9.32,0,0,0,54.49,149.63Z"/><path class="cls-8" d="M57.69,149.08A8.25,8.25,0,0,1,61,152.71a18,18,0,0,0-2.43,1.72,28,28,0,0,0-2.39-3.26C56.64,150.47,57.16,149.77,57.69,149.08Z"/><path class="cls-7" d="M53.58,159.23c-.73.82-1.43,1.65-2.07,2.45a15.81,15.81,0,0,0-3-2.68c.39-.68.81-1.38,1.24-2.09A24.75,24.75,0,0,1,53.58,159.23Z"/><path class="cls-8" d="M51.58,157.9c.75.46,1.46.95,2,1.33-.73.82-1.43,1.65-2.07,2.45a17.16,17.16,0,0,0-1.39-1.42C50.6,159.47,51.08,158.68,51.58,157.9Z"/><path class="cls-8" d="M48.52,159c.39-.68.81-1.38,1.24-2.09a17.23,17.23,0,0,1,1.82,1c-.5.78-1,1.57-1.46,2.36A15.75,15.75,0,0,0,48.52,159Z"/><path class="cls-7" d="M48.31,166.57a9.59,9.59,0,0,1-1.39,2.29,27.34,27.34,0,0,0-2.25-1.72,19.73,19.73,0,0,1,.8-2.18A17.85,17.85,0,0,1,48.31,166.57Z"/><path class="cls-8" d="M44.67,167.14a19.73,19.73,0,0,1,.8-2.18,15.79,15.79,0,0,1,1.48.75c-.4.74-.81,1.47-1.2,2.21C45.35,167.62,45,167.35,44.67,167.14Z"/><path class="cls-8" d="M47,165.71c.5.29,1,.59,1.36.86a9.59,9.59,0,0,1-1.39,2.29c-.39-.34-.79-.66-1.17-.94C46.14,167.18,46.55,166.45,47,165.71Z"/><path class="cls-7" d="M92,223.39a13.53,13.53,0,0,0-11.18,3.53,9,9,0,0,0,0-2.42c-.08-.36-.17-.74-.28-1.13a22.62,22.62,0,0,1,9.2-3.27C90.43,221.18,91.14,222.07,92,223.39Z"/><path class="cls-8" d="M84.26,224.51a12.2,12.2,0,0,0-3.48,2.41,9,9,0,0,0,0-2.42c-.08-.36-.17-.74-.28-1.13a24.82,24.82,0,0,1,3.84-1.92A20.85,20.85,0,0,1,84.26,224.51Z"/><path class="cls-7" d="M86.69,215.29c.29.56.57,1.06.83,1.51-2.2-.05-5.83.23-8.56,2.23-.3-.74-.62-1.51-1-2.29A14.72,14.72,0,0,1,85.58,213C86,213.81,86.32,214.59,86.69,215.29Z"/><path class="cls-8" d="M79,219c-.3-.74-.62-1.51-1-2.29a15.41,15.41,0,0,1,3.22-2.29c.53,1,1.06,1.9,1.58,2.85A10.91,10.91,0,0,0,79,219Z"/><path class="cls-7" d="M83.88,208.46c-2.37-.09-6.56,0-9.42,1.32-.4-.68-.79-1.34-1.19-2a22.08,22.08,0,0,1,9.33-3.57C83,205.64,83.42,207.07,83.88,208.46Z"/><path class="cls-8" d="M74.46,209.78c-.4-.68-.79-1.34-1.19-2A25.43,25.43,0,0,1,76.55,206c.48.94,1,1.87,1.47,2.8A13.74,13.74,0,0,0,74.46,209.78Z"/><path class="cls-7" d="M81,197.11c.15,1,.34,2,.58,3.12a19,19,0,0,0-7.74-1.17c-3.21.19-5.34.41-6.48.54a5.6,5.6,0,0,1-.61-5.55A27.32,27.32,0,0,1,81,197.11Z"/><path class="cls-8" d="M73.41,198.77c0,.1.08.21.11.31-3,.18-5,.39-6.12.52a5.6,5.6,0,0,1-.61-5.55,30,30,0,0,1,5.91.3A11.25,11.25,0,0,0,73.41,198.77Z"/><path class="cls-7" d="M90.58,191c-1.12.75-2.27,1.5-3.39,2.21a26.62,26.62,0,0,0-7.32-5,22.86,22.86,0,0,0-9.83-2.2,15.2,15.2,0,0,0-.41-7.66A51.73,51.73,0,0,1,90.58,191Z"/><path class="cls-8" d="M74.53,186.38a21.57,21.57,0,0,0-4.49-.44,15.2,15.2,0,0,0-.41-7.66,51,51,0,0,1,6.1,2.36,14.57,14.57,0,0,1-.2,1.84A36.53,36.53,0,0,1,74.53,186.38Z"/><path class="cls-7" d="M97.94,185.51c-.43.38-.92.78-1.45,1.21-10-14.47-25-17-30.77-17.44A55,55,0,0,1,63,159.81c3.77,1.37,12.86,4.93,20.11,9.92A56.43,56.43,0,0,1,97.94,185.51Z"/><path class="cls-8" d="M70.93,165.13c.83,1.78,1.75,3.61,2.55,5.49a42.77,42.77,0,0,0-7.76-1.34A55,55,0,0,1,63,159.81c1.57.57,4,1.51,6.93,2.78C70.2,163.45,70.55,164.29,70.93,165.13Z"/><path class="cls-7" d="M74.47,148.57c6.63,3.62,17.11,10.67,29.82,29.3-.61.93-1.27,1.87-2,2.81-3.15-3.77-12.16-14.42-17.65-19.18a60.84,60.84,0,0,0-11.12-6.56c-3.19-1.43-8.91-5.37-11-6.81a28.4,28.4,0,0,1,1.68-5.37C65.86,143.72,69.51,145.86,74.47,148.57Z"/><path class="cls-8" d="M64.25,142.76l3,1.76a59,59,0,0,0,.2,6.91c-2-1.31-3.89-2.6-4.88-3.3A28.4,28.4,0,0,1,64.25,142.76Z"/><path class="cls-7" d="M83.59,133.73c7.29,4.25,11.54,10.62,15.91,18.41,3.37,6,7.52,13.56,9.23,16.68-.28.8-.59,1.61-.93,2.42a49.43,49.43,0,0,1-9-11c-5.08-8.15-8.8-13.64-15.2-18.09-4.94-3.44-11.27-8.57-13.92-10.74A34,34,0,0,1,75.29,128,56.26,56.26,0,0,0,83.59,133.73Z"/><path class="cls-7" d="M101.35,126.1a50.89,50.89,0,0,0,4.55,20.08,41.65,41.65,0,0,1,3.63,16.53c-1.15-1.52-8.15-19.45-11.78-27.42a79.28,79.28,0,0,0-5.63-10.53,34.09,34.09,0,0,1,4.13.53C98,125.61,99.69,125.9,101.35,126.1Z"/><path class="cls-7" d="M110.26,126.32a78.84,78.84,0,0,0,5.41,20.51c4.6,10.74,5.66,22.63,2.12,36.69-.35-6.24-.34-16.92-2.77-24.33-2.33-7.12-9.51-18.42-9-32.72A33.41,33.41,0,0,0,110.26,126.32Z"/><path class="cls-8" d="M117.79,183.52c-.35-6.24-.34-16.92-2.77-24.33-.1-.32-.22-.65-.34-1a21.63,21.63,0,0,0,4.84,2.93A61.17,61.17,0,0,1,117.79,183.52Z"/><path class="cls-7" d="M125.35,139c6.25,7.67,7.08,11.33,8,19.12s2.25,16.35,4.61,19.8c-4.49-3.75-6.49-11.12-7.44-18.18s-5.66-11.53-9.09-15.9c-3.24-4.13-8.07-10.36-8.48-18a27.69,27.69,0,0,0,4.41-1.27A50.9,50.9,0,0,0,125.35,139Z"/><path class="cls-8" d="M138,178c-3.77-3.15-5.79-8.86-6.9-14.78a28.11,28.11,0,0,0,2.91-.29C134.88,169.18,136.09,175.2,138,178Z"/><path class="cls-7" d="M123,121.1c5.28,8.81,15.59,14.59,24.52,17.94,9.44,3.54,17.82,9.68,26.68,12.84,5.57,2,9.38,1.15,11.45.26-.22,1.15-.48,2.27-.79,3.37a11.55,11.55,0,0,1-6.63,1.47c-6.06-.41-28.23-10.62-28.23-10.62s-.33-.1-1.45,4.11c-3.71,14-.28,23.67,1.59,27.53-1.08.62-2.16,1.2-3.24,1.75-2.65-6.45-1.92-17.09-2.57-21.83-.71-5.19-1.89-11.09-12.39-18.88a40.32,40.32,0,0,1-12.75-15.16l.77-.36A33,33,0,0,0,123,121.1Z"/><path class="cls-8" d="M150.16,178c-1.08.62-2.16,1.2-3.24,1.75-2.65-6.45-1.92-17.09-2.57-21.83,0-.11,0-.22,0-.33a38.07,38.07,0,0,0,3.8-5.16C145.18,165.35,148.38,174.32,150.16,178Z"/><path class="cls-7" d="M143.44,125.32c9.91,6.84,22.22,9.79,30.63,8.91a12.14,12.14,0,0,0,9.8-7.08c.23.84.44,1.67.64,2.49-.92,2.63-2.49,6.62-3.86,7.77-2.1,1.78-4.19,2-15.17,1.24s-17.35-3-28.06-9.91c-7.52-4.85-10.15-9.08-11-11.17a28.13,28.13,0,0,0,3.24-5.09A63,63,0,0,0,143.44,125.32Z"/><path class="cls-8" d="M129.61,112.48c.52.68,1.28,1.61,2.27,2.71A15.48,15.48,0,0,1,127,118.9a13.81,13.81,0,0,1-.67-1.33A28.13,28.13,0,0,0,129.61,112.48Z"/><path class="cls-7" d="M144.41,110.5c8,4.37,17.53,6.94,23,7.29,5.13.34,6.47.32,9.89-9.63.47,1.41,1,2.94,1.62,4.62-.75,3-2.3,7.67-4.78,8.55-3.66,1.3-11.21,1.3-20.54-.71-8.82-1.89-17.84-6.12-21.6-14.56a36.3,36.3,0,0,0,.89-5A42.83,42.83,0,0,0,144.41,110.5Z"/><path class="cls-8" d="M132.85,101.05a45.76,45.76,0,0,0,4.9,4.85c-.88,1.68-1.73,3.39-2.7,5a19.8,19.8,0,0,1-3.09-4.86A36.3,36.3,0,0,0,132.85,101.05Z"/><path class="cls-7" d="M142.11,97.49c6.61,5.31,12.45,5.84,18.12,6.43s7.83,1,9-.06c.88-.78,3.13-4.25,5.27-6.83a37.11,37.11,0,0,0,.67,4,22,22,0,0,0-1.81,2.76c-.88,1.71-.94,2.6-3.78,2.72s-5.54.29-9.32.41-10.74-.23-16.06-2.36a25.87,25.87,0,0,1-11.11-9.1,80.65,80.65,0,0,0-1.81-14.92l-.21-1C131.21,79.81,135.58,92.24,142.11,97.49Z"/><path class="cls-8" d="M133.12,95.41a80.65,80.65,0,0,0-1.81-14.92l-.21-1c.11.3,4.48,12.73,11,18l1,.76a3.08,3.08,0,0,0-1,1,21,21,0,0,0-2.21,2.88A25.84,25.84,0,0,1,133.12,95.41Z"/><path class="cls-4" d="M44,168.87V169l.05.09a1.74,1.74,0,0,0,1.44.93c1.05,0,2.12-1.16,3.15-3.45,1.69-3.7,8.83-11.94,13.2-14a55.86,55.86,0,0,0,6.39,23c3.86,7.6.91,13.31-1,17.09l-.14.25c-2,3.78-1,5.83,3.1,10.92S79.29,219,80.47,224.56a10.89,10.89,0,0,1,0,3.13,5.7,5.7,0,0,0,.42,3.8c1.28,2.1,5.79,3.49,7.28,3.66h.1l.08,0c3.62-2.28,6.19-4.3,6.22-4.32l.11-.09v-.14a18.55,18.55,0,0,0-2.23-7,30.84,30.84,0,0,0-2-2.88,40,40,0,0,1-3.51-5.55c-2.47-4.65-4.82-12.92-5.61-18,5-3,14.19-8.82,17.56-12.11a66.3,66.3,0,0,0,17.46,2.27,67.7,67.7,0,0,0,35.52-10l2.41.28a63.26,63.26,0,0,0,7.38.59c6.76,0,14.62-2.09,21.71-17.56,5.09-11.68,4.27-25.88-2.51-43.41-6.68-17.27-6.62-21.25-5.79-27.7,4.54-2.29,12.82-4.27,16-5l.86-.21.21-.05V84c-.46-11,5.7-30.66,5.76-30.86l.1-.31-.32,0a19.11,19.11,0,0,1-8.18-3.59c-.45-.33-1-.79-1.68-1.32-5.11-4.1-17.08-13.7-33.58-13.7a43.82,43.82,0,0,0-5.36.33c-7.67,1-12.76,3.64-16,8.29-5.09,7.25-5.66,19.58-1.72,37.72,1.83,9.14,6.11,30.56-11.21,42.74A28.38,28.38,0,0,1,107,126.22,57.3,57.3,0,0,1,96.3,125a35.61,35.61,0,0,0-6.59-.62c-7.88,0-19.24,2.7-28.56,15.53C55.14,147.93,44.91,162.32,44,168.87Zm.54,0c1-6.72,12.25-22.21,17-28.58C70.77,127.6,82,124.94,89.71,124.94a35.39,35.39,0,0,1,6.49.61,57.51,57.51,0,0,0,10.75,1.2,28.8,28.8,0,0,0,13.14-3l0,0c17.62-12.37,13.29-34,11.44-43.29-3.91-18-3.37-30.19,1.64-37.3,3.18-4.52,8.16-7.09,15.66-8.07a42.85,42.85,0,0,1,5.3-.33c16.31,0,28.18,9.52,33.25,13.59.66.53,1.24,1,1.69,1.33a19.91,19.91,0,0,0,8.13,3.64c-.77,2.5-6.06,20.11-5.71,30.52l-.64.16c-3.19.76-11.64,2.79-16.2,5.13l-.13.06,0,.14c-.86,6.63-1,10.59,5.8,28.1s7.55,31.46,2.53,43c-7,15.19-14.64,17.24-21.23,17.24a62.25,62.25,0,0,1-7.31-.59l-2.51-.29h-.09l-.08,0a67.19,67.19,0,0,1-35.32,9.94,65.65,65.65,0,0,1-17.47-2.3l-.15,0-.11.11c-3.27,3.27-12.67,9.23-17.71,12.24l-.16.09,0,.18c.77,5.14,3.17,13.63,5.69,18.38A39.51,39.51,0,0,0,90,221c.63.86,1.23,1.68,1.94,2.84a18,18,0,0,1,2.13,6.59c-.53.41-2.85,2.18-6,4.15-1.57-.21-5.7-1.61-6.79-3.4a5.17,5.17,0,0,1-.35-3.46,11.25,11.25,0,0,0,0-3.29c-1.21-5.71-6.29-15.91-10.44-21s-4.88-6.77-3-10.33l.13-.26c1.88-3.64,5-9.73,1-17.57a55.11,55.11,0,0,1-6.35-23.15v-.38l-.35.14c-4.43,1.8-12.08,10.55-13.84,14.42-1.24,2.73-2.21,3.14-2.67,3.14A1.2,1.2,0,0,1,44.53,168.84Z"/><path class="cls-4" d="M160.73,92.5a54,54,0,0,0,14-3.4l.21.49A54.47,54.47,0,0,1,160.79,93a22.48,22.48,0,0,1-2.54.14,20.32,20.32,0,0,1-11.34-3.26A23.18,23.18,0,0,0,160.73,92.5Z"/><path class="cls-4" d="M110.57,151.12a20.21,20.21,0,0,1,.59,7.59A42.75,42.75,0,0,1,99,184.91l-.38-.38A41.63,41.63,0,0,0,110.57,151.12Z"/><path class="cls-2" d="M148.13,152.38l27.62,10.86s-7.91,16.64-8.73,28.21c1.53,4.6.47,7.67-2.13,11.21a98.48,98.48,0,0,0-.59,15.88c.3,2.66,5.67,7,5.67,10.62-3.9,2.78-8,5.2-8,5.2s-1.06-2.24-2.54-2.48-4.19-.18-4.54-2.07.71-2.36.71-4.95-.42-6.56-1.13-12.93-1-14.05-.26-18.16C154.46,192.61,141.64,166.31,148.13,152.38Z"/><path class="cls-3" d="M148.13,152.38l.05,0c.23.81.42,1.63.66,2.46,3.76,13,2.57,27.65,10.46,38.84-3,11.5-1.9,23.32,1.58,34.11.3,1.2,2.4,2.92,4.76,4.28-2.1,1.35-3.64,2.27-3.64,2.27s-1.06-2.24-2.54-2.48-4.19-.18-4.54-2.07.71-2.36.71-4.95-.42-6.56-1.13-12.93-1-14.05-.26-18.16C154.46,192.61,141.64,166.31,148.13,152.38Z"/><path class="cls-7" d="M157.78,210.81c1.23-.52,4.68.69,6.45,1.38,0,.79,0,1.55,0,2.28a14,14,0,0,0-4.95-.47,9.5,9.5,0,0,0-4.27,2.21c-.07-.68-.15-1.41-.23-2.16C155.33,213.09,156.57,211.32,157.78,210.81Z"/><path class="cls-8" d="M154.74,214.05a9.18,9.18,0,0,1,2.92-3.18c.06,1.16.16,2.33.29,3.48a11.2,11.2,0,0,0-3,1.86C154.9,215.53,154.82,214.8,154.74,214.05Z"/><path class="cls-7" d="M156.27,203.73c1.35-.62,4.75-.82,8.35,1.11-.09.95-.17,2-.23,3.18a16.19,16.19,0,0,0-3.95-1.59c-1-.08-4.9,2.47-6.16,3.31-.1-1.08-.19-2.18-.26-3.28A6.87,6.87,0,0,1,156.27,203.73Z"/><path class="cls-8" d="M154,206.46a6.87,6.87,0,0,1,2.25-2.73,5.42,5.42,0,0,1,1.45-.37c-.11,1.44-.16,2.88-.16,4.31-1.29.75-2.63,1.63-3.28,2.07C154.18,208.66,154.09,207.56,154,206.46Z"/><path class="cls-7" d="M157,192.53c.61-.22,1.46-.49,4-.23,1.9.2,5.16,1.74,6.68,2.5a9.31,9.31,0,0,1-.55,3.85c-2-.74-6.33-2.27-7.77-2.27s-4.33,1.87-5.57,2.72c0-1.34.09-2.59.2-3.69C154.87,194.36,156.23,192.81,157,192.53Z"/><path class="cls-8" d="M158.66,196.49a19.74,19.74,0,0,0-4.85,2.61c0-1.34.09-2.59.2-3.69.86-1,2.22-2.6,3-2.88a4.53,4.53,0,0,1,1.31-.3c.3.5.63,1,1,1.48C159.07,194.63,158.85,195.56,158.66,196.49Z"/><path class="cls-7" d="M157.78,182.21c3.34.08,7.36,2,10.19,3.06-.32,1.43-.58,2.85-.75,4.22-2-1-5.27-2.35-7.38-2.41-2.33-.06-5.57,1.4-7.18,2.22-.35-.93-.74-2-1.16-3.14C152.72,184.6,155.07,182.15,157.78,182.21Z"/><path class="cls-8" d="M152.66,189.3c-.35-.93-.74-2-1.16-3.14a13.62,13.62,0,0,1,2.92-2.82,42.39,42.39,0,0,0,1.63,4.5A28.89,28.89,0,0,0,152.66,189.3Z"/><path class="cls-7" d="M160.88,170.35c4.43.39,7.41,3.54,10.13,4.55-.58,1.63-1.15,3.35-1.67,5.1a19.39,19.39,0,0,0-8.32-4c-4.16-.75-9.4,2.53-11.55,4.05-.35-1.16-.69-2.36-1-3.59C150.06,174.38,154.44,169.66,160.88,170.35Z"/><path class="cls-8" d="M152.17,172.83c.27,1.7.56,3.38.9,5a31.42,31.42,0,0,0-3.6,2.19c-.35-1.16-.69-2.36-1-3.59A18.92,18.92,0,0,1,152.17,172.83Z"/><path class="cls-7" d="M159.38,156.86c6.19,1.59,12.82,6.64,15.33,8.69-.4.91-.89,2.06-1.43,3.39-3.08-2.05-11.42-7.42-15.23-8.18-3.4-.68-8.86,2.18-11.67,3.84a36,36,0,0,1,0-4.4C148.9,158.33,153.93,155.46,159.38,156.86Z"/><path class="cls-8" d="M149.69,158.18c.32,1.4.6,2.81.85,4.23a45.05,45.05,0,0,0-4.16,2.19,36,36,0,0,1,0-4.4A21.86,21.86,0,0,1,149.69,158.18Z"/><path class="cls-4" d="M148.37,152.49c-5.2,11.16,2.24,30.68,5,38,.87,2.29,1.14,3,1.09,3.3-.8,4.38-.36,12.48.27,18.09.7,6.29,1.12,10.3,1.12,13a7.72,7.72,0,0,1-.48,2.75,3.88,3.88,0,0,0-.23,2.15c.26,1.39,2.06,1.59,3.5,1.75l.82.11c1.3.2,2.26,1.74,2.61,2.36.92-.55,4.32-2.63,7.59-4.95-.07-1.93-1.71-4.12-3.16-6.06-1.22-1.63-2.36-3.16-2.5-4.4a98,98,0,0,1,.59-15.95v-.06l0-.05c2.44-3.33,3.64-6.32,2.08-11v-.1c.82-11.48,8.68-28.14,8.76-28.31a37.49,37.49,0,0,1-1.8,5.48c-2.4,5.84-5.88,15.41-6.42,22.82,1.59,4.81.36,7.92-2.15,11.35a97.89,97.89,0,0,0-.57,15.74c.12,1.1,1.22,2.58,2.39,4.14,1.54,2,3.28,4.38,3.27,6.51v.14l-.11.08c-3.86,2.75-7.94,5.18-8,5.21l-.26.14-.12-.26s-1-2.12-2.34-2.33l-.8-.1c-1.53-.17-3.63-.41-4-2.18a4.23,4.23,0,0,1,.25-2.41,7.5,7.5,0,0,0,.45-2.59c0-2.63-.44-6.81-1.12-12.9-.63-5.65-1.07-13.81-.26-18.23a26.92,26.92,0,0,0-1.07-3c-2.3-6-8-20.25-6.76-31.42C146.74,153.94,148.37,152.49,148.37,152.49Z"/><path class="cls-7" d="M167.72,229.22c.92-.47,2.9-1.18,6.5,1.6s9,6.84,8.5,8.73-9.27,3.31-15.76,2.89-8.8-2.24-9.15-3.95S164.54,230.88,167.72,229.22Z"/><path class="cls-9" d="M166.69,229.82c.37-.23.72-.43,1-.6.92-.47,2.9-1.18,6.5,1.6,2.35,1.81,6.56,5.06,8.3,7.92C178.5,235.16,171.14,229.07,166.69,229.82Z"/><path class="cls-10" d="M164.17,231.59c-.81,3.57-.36,5.84,1.47,6.75,2.08,1.51,11.1,2.95,16.61,1.82-2,1.57-9.52,2.65-15.29,2.28-6.49-.41-8.8-2.24-9.15-3.95C157.56,237.28,161,234,164.17,231.59Z"/><path d="M157.55,238.54c.28,1.35,1.87,3.69,9.39,4.17.76,0,1.56.07,2.39.07,5.35,0,13.06-1.1,13.64-3.16.52-1.83-3.37-5-8.11-8.65l-.48-.36a8.38,8.38,0,0,0-4.87-2.1,4,4,0,0,0-1.91.48C164.64,230.52,157.13,236.53,157.55,238.54Zm10.3-9.08a3.45,3.45,0,0,1,1.66-.42,7.9,7.9,0,0,1,4.55,2l.47.36c3.14,2.42,8.39,6.46,7.93,8.09-.39,1.4-6.89,2.77-13.13,2.77-.82,0-1.61,0-2.36-.07-7.43-.47-8.7-2.78-8.9-3.74C157.78,237.05,164.32,231.29,167.85,229.46Z"/><path class="cls-7" d="M87,234.65c3.23-2.48,5.8-4.44,7.32-4.43,1,0,12.61,9.8,11.73,12.34-.83,1.65-4.87,1.95-11.73,1.77s-11.47-.94-11.82-2.83S83.76,237.13,87,234.65Z"/><path class="cls-9" d="M89.67,232.63c2-1.44,3.58-2.42,4.65-2.41s11.1,8.53,11.74,11.74c-2.06-2.06-7-8-11.93-9.64A5.88,5.88,0,0,0,89.67,232.63Z"/><path class="cls-10" d="M87,234.65c.79-.6,1.54-1.18,2.24-1.7-1.72,1.84-2.3,3.86-1.67,5.48,1.54,3.9,15.84,5.81,18.24,4.47-1.21,1.35-5.14,1.6-11.49,1.43-6.86-.17-11.47-.94-11.82-2.83S83.76,237.13,87,234.65Z"/><path d="M82.24,241.55c.35,1.88,4.19,2.84,12.07,3,1.18,0,2.2,0,3.13,0h0c5.59,0,8.15-.57,8.84-2,.23-.64-.09-1.54-1-2.78-2.58-3.66-9.94-9.94-11-10-1.63,0-4.21,2-7.49,4.49S81.86,239.56,82.24,241.55Zm4.92-6.69c3.07-2.35,5.71-4.38,7.15-4.38.75.11,8.58,6.42,11,10.3.59,1,.62,1.46.54,1.69-.73,1.45-4.85,1.64-8.36,1.64h0c-.92,0-1.94,0-3.12,0-7.38-.19-11.27-1.07-11.56-2.62C82.42,239.66,84,237.26,87.16,234.86Z"/><path class="cls-4" d="M66.32,139.18c0,.07-4.3,7-3.92,14.17l-.53,0a23.94,23.94,0,0,1,1.56-9.23A15.28,15.28,0,0,1,66.32,139.18Z"/><path class="cls-7" d="M158.05,71.48c.82-.41,1.94-.54,1.94,0,0,.92-6.43,6.94-7.14,8.54-.23.82.36,2.89,3,5.6s4.9,5.34,4.72,5.83-4.72-2.11-8.2-5.53-4.19-5.25-4.07-6.67S156.54,72,158.05,71.48Z"/><path class="cls-8" d="M155.86,85.62c2.66,2.72,4.9,5.34,4.72,5.83s-4.72-2.11-8.2-5.53a23.85,23.85,0,0,1-2.94-3.37,26.87,26.87,0,0,0,5.29,1.81C155.06,84.76,155.43,85.18,155.86,85.62Z"/><path class="cls-7" d="M171.68,69.75c1.18-.36-4,6.71-4.84,9.74-.47,2-.45,3,1.85,5.44,1.76,1.86,4.46,2.82,4.46,3.23s-6.19.89-10-5.9C162.06,79.37,164,73,171.68,69.75Z"/><path class="cls-8" d="M168.69,84.93c1.76,1.86,4.46,2.82,4.46,3.23s-4.38.72-8-3.19c1.07-.1,2.13-.25,3.2-.44Z"/><path class="cls-7" d="M182.07,68.74c.31.57-5.37,7.68-5.43,9.15s4.6,5.9,6,6.73c.41.41-7.79-.38-9-4.23C172.09,75.12,181.48,67.67,182.07,68.74Z"/><path class="cls-8" d="M182.6,84.62c.31.32-4.38-.07-7.15-2q1.85-.57,3.69-1.08A23.89,23.89,0,0,0,182.6,84.62Z"/><path d="M169,58.86l-16.77,1s.4-8.53,6.9-8.85S169,58.86,169,58.86Z"/><path class="cls-11" d="M159.37,51.89c7.35,0,11.78,9.48,10.1,13.46-1.17,2.77-12.4,5.58-16.38,0C151.67,62.61,152,51.89,159.37,51.89Z"/><path class="cls-12" d="M169.75,62.31a6.05,6.05,0,0,1-.28,3c-1.17,2.77-12.4,5.58-16.38,0A11,11,0,0,1,152.5,60C154.44,65.44,163.65,68.57,169.75,62.31Z"/><path class="cls-13" d="M159.51,57.29c2.11,0,3.88,2.28,3.94,5.21s-1.59,5.34-3.7,5.39-3.87-2.28-3.94-5.21S157.4,57.34,159.51,57.29Z"/><path class="cls-14" d="M160.63,64.64a5.57,5.57,0,0,0,2.82-1.72c-.09,2.73-1.69,4.92-3.7,5s-3.83-2.23-3.94-5.11A5.1,5.1,0,0,0,160.63,64.64Z"/><path d="M159.05,60.06c1.38,0,2.54,1.58,2.58,3.6s-1,3.67-2.42,3.71-2.54-1.58-2.58-3.59S157.66,60.1,159.05,60.06Z"/><path class="cls-11" d="M159.27,60.11a1.45,1.45,0,0,1,1.61,1.29,1.49,1.49,0,0,1-1.28,1.65A1.45,1.45,0,0,1,158,61.76,1.49,1.49,0,0,1,159.27,60.11Z"/><path class="cls-11" d="M160.43,65.12a.67.67,0,0,1,.74.59.68.68,0,0,1-.59.76.66.66,0,0,1-.73-.59A.68.68,0,0,1,160.43,65.12Z"/><path class="cls-15" d="M155.56,62.69c.07,3.06,1.95,5.52,4.2,5.46l.3,0c2.11-.26,3.71-2.74,3.64-5.64-.07-3.06-1.95-5.52-4.2-5.46S155.49,59.65,155.56,62.69Zm.5,0c-.07-2.64,1.34-4.88,3.2-5.11h.26c2-.05,3.62,2.17,3.69,4.94s-1.48,5.08-3.46,5.13S156.12,65.45,156.06,62.68Z"/><path d="M153.83,54.81c-2,3.34-2,8.69-1,10.66l0,0c1.53,2.15,4.31,3.33,7.83,3.33h0c4,0,8.25-1.58,9-3.38.9-2.13.14-5.72-1.84-8.72-2.16-3.24-5.25-5.1-8.5-5.1A6.22,6.22,0,0,0,153.83,54.81Zm.45.27a5.66,5.66,0,0,1,5.09-2.92c3.07,0,6,1.77,8,4.86,1.87,2.82,2.63,6.28,1.8,8.23-.59,1.41-4.45,3-8.52,3h0c-3.33,0-5.95-1.1-7.39-3.09C152.48,63.56,152.21,58.49,154.28,55.08Z"/><path class="cls-4" d="M158.63,48.74a8.79,8.79,0,0,1,4.36.51,5.89,5.89,0,0,1,2.68,2.11s-3.25-2.67-7-2.1c-2.32.36-4.36,1.89-6.06,4.55a9.77,9.77,0,0,1,2.45-3.54A7.23,7.23,0,0,1,158.63,48.74Z"/><path class="cls-7" d="M163.62,45.25s-7.7-2.63-14.07,6.26C152,44.81,157.6,38.44,163.62,45.25Z"/><path d="M149.3,51.41l-.69,1.85,1.15-1.6c3.86-5.38,8.18-6.51,11.13-6.51a9.26,9.26,0,0,1,2.65.35l.94.32-.66-.74c-1.76-2-3.61-3-5.48-3C154.22,42.07,151,46.9,149.3,51.41Zm1.24-1.6c1.7-3.64,4.5-7.21,7.8-7.21a6.44,6.44,0,0,1,4.48,2.19,10.59,10.59,0,0,0-1.93-.17C158.13,44.62,154.21,45.57,150.54,49.81Z"/><path class="cls-7" d="M177.08,51c3.81,3.89,12.57,6.9,12.57,6.9s-9.74-.17-15.49-5.49-9-11.24-13-13.28C166.19,40.65,173.27,47.11,177.08,51Z"/><path class="cls-7" d="M146.36,89.34a19.12,19.12,0,0,1-10.74-8.12c-2.44-4-3.66-9.84-6.44-13.48q-.39-3.66-.44-6.81c1.72,1.92,5.14,6.1,6.52,10.55C137.15,77.54,140.34,85.68,146.36,89.34Z"/><path class="cls-8" d="M135.26,71.48c1.89,6.06,5.08,14.2,11.1,17.86a19.12,19.12,0,0,1-10.74-8.12c-2.44-4-3.66-9.84-6.44-13.48q-.39-3.66-.44-6.81C130.46,62.85,133.88,67,135.26,71.48Z"/><path class="cls-7" d="M136.33,58.92c3.06,7.52,6.13,11.69,8.85,12.56-5.43-1.62-7.14-3.35-10-8-2.41-3.93-3.55-7-6.17-8.94a32.3,32.3,0,0,1,.93-5A24.49,24.49,0,0,1,136.33,58.92Z"/><path class="cls-8" d="M129,54.57a32.3,32.3,0,0,1,.93-5,22.48,22.48,0,0,1,4.65,5.78c-.11.58-.2,1.16-.29,1.72a22.17,22.17,0,0,0-.09,4.74C132.44,58.71,131.27,56.22,129,54.57Z"/><path class="cls-7" d="M194.25,52.18h0s-5.63,2-13.42-5.26-10.92-8.77-17.21-11.39c13.36,3,22.42,11.53,25.65,13.91A20.88,20.88,0,0,0,194.25,52.18Z"/><path class="cls-2" d="M139.1,10.19c1,0,.71,1.07,2.39,4.87a36.23,36.23,0,0,1,3,14.79,44.55,44.55,0,0,1-2.12,11.45l-2.84,5.62s-9.26,0-9.8-8.93C128.83,23.18,138.13,10.19,139.1,10.19Z"/><path class="cls-3" d="M139,10.23c-4.32,8.64-11.77,27.94.68,36.4l-.15.29s-9.26,0-9.8-8.93C128.86,23.65,137.55,11,139,10.23Z"/><path class="cls-4" d="M139.1,9.93c.78,0,1,.55,1.37,1.74.26.77.61,1.81,1.26,3.29a36.38,36.38,0,0,1,3,14.89A36.28,36.28,0,0,1,144,36a17.81,17.81,0,0,1-1.9,5.18,44.21,44.21,0,0,0,2.11-11.37,36,36,0,0,0-2.95-14.67c-.66-1.5-1-2.55-1.28-3.33-.41-1.21-.49-1.38-.84-1.38-.93.31-10,12.74-9.15,27.52.51,8.57,9.16,8.67,9.53,8.67a8.08,8.08,0,0,1-4.63-.55A8.85,8.85,0,0,1,129.45,38c-.77-13,6.21-24.73,8.85-27.53C138.75,10,139,9.93,139.1,9.93Z"/><path class="cls-5" d="M138.39,16.66s6.09,8.41.62,24.7a19.83,19.83,0,0,1-3.27-13.19C136.53,20.29,138.39,16.66,138.39,16.66Z"/><path class="cls-6" d="M135.74,28.17c.79-7.88,2.65-11.51,2.65-11.51a3.9,3.9,0,0,1,.25.39c-.83,3.77-2.36,13.42-.19,20.12.39,1.19,1.21,1.83,1.54.89-.28,1.06-.6,2.16-1,3.3A19.83,19.83,0,0,1,135.74,28.17Z"/><path class="cls-4" d="M135.47,28.14a20.3,20.3,0,0,0,3.33,13.38l.3.4.16-.48c5.45-16.23-.59-24.85-.65-24.94l-.26-.35-.2.39C138.08,16.69,136.26,20.3,135.47,28.14Zm.53.05a39.26,39.26,0,0,1,2.43-11c1.07,1.84,4.93,9.86.5,23.55A20,20,0,0,1,136,28.19Z"/><path class="cls-7" d="M189.12,67.56c1.27-3.07,1.06-6,2.36-9.45s5.14-4.74,8.06-5.72a16.67,16.67,0,0,1,13.75,1.36c6.38,3.93,8.59,13.19,7.52,16.56S209,76.15,209,76.15s4.87,5.49,4.87,8.23-4.6,6.11-9.21,6.91-10.27-1.42-14.6-6.46S183.1,76,183.37,73,188.24,69.69,189.12,67.56Z"/><path class="cls-9" d="M211.07,67.61a4.94,4.94,0,0,0-.31-6c-2.52-3.06-7.29-2.74-8.64-1.13C206.43,58.69,212.42,61.85,211.07,67.61Z"/><path class="cls-9" d="M195.51,54a28.57,28.57,0,0,1,4-1.6,16.67,16.67,0,0,1,13.75,1.36c6.16,3.8,8.43,12.58,7.62,16.2C219.93,60.23,212.43,49,195.51,54Z"/><path class="cls-8" d="M183.37,73c.26-3,4.87-3.27,5.75-5.4,1.27-3.07,1.06-6,2.36-9.45a7.28,7.28,0,0,1,2.88-3.44,9.82,9.82,0,0,0-2.05,3.94c-.55,4.39.43,4.58-.84,8.38-.51,1.5-.14,4.29.93,5,8.6,4.3,19.6,3,28.37-1.58C219.52,73.72,209,76.15,209,76.15a35.07,35.07,0,0,1-16.64-.74c-2.91-.94-2.76,3.89-2.16,5.55,1.61,4.41,8.68,11.33,20.69,7.68a15.36,15.36,0,0,1-6.23,2.65c-4.6.8-10.27-1.42-14.6-6.46S183.1,76,183.37,73Z"/><path d="M183.1,72.94c-.28,3.21,2.48,7.14,6.7,12.06,3.62,4.2,8.45,6.71,12.93,6.71a11.09,11.09,0,0,0,1.93-.16c4.84-.84,9.43-4.32,9.43-7.17,0-2.44-3.59-6.83-4.65-8.07,2.06-.51,10.64-2.81,11.63-5.92,1.13-3.58-1.26-12.94-7.64-16.86a15.57,15.57,0,0,0-8.31-2.29,18.58,18.58,0,0,0-5.67.9c-2.89,1-6.86,2.29-8.22,5.88A24.6,24.6,0,0,0,190,62.87a20.63,20.63,0,0,1-1.17,4.59c-.34.83-1.36,1.37-2.45,2C184.94,70.2,183.26,71.09,183.1,72.94Zm.53,0c.14-1.57,1.61-2.35,3-3.11,1.17-.62,2.28-1.21,2.7-2.22a21.33,21.33,0,0,0,1.19-4.7,24.79,24.79,0,0,1,1.17-4.76c1.27-3.35,5.1-4.62,7.89-5.55a17.69,17.69,0,0,1,5.5-.88,15,15,0,0,1,8,2.21c6.17,3.8,8.5,12.81,7.41,16.25-1,3.18-11.56,5.64-11.67,5.66l-.43.1.29.34c.05,0,4.81,5.44,4.81,8s-4.46,5.86-9,6.65a11.14,11.14,0,0,1-1.84.15c-4.33,0-9-2.44-12.52-6.53S183.35,76.19,183.63,73Z"/><path class="cls-8" d="M206.77,64.76c1.27,1.17,1.77,2.69,1.12,3.4s-2.21.34-3.48-.83-1.77-2.69-1.12-3.4S205.5,63.59,206.77,64.76Z"/><path class="cls-16" d="M204,63.59a3.78,3.78,0,0,1,2.78,1.17c1.27,1.17,1.77,2.69,1.12,3.4a1.1,1.1,0,0,1-.47.29C205.4,67.53,203.31,65.12,204,63.59Z"/><path d="M203.09,63.75c-.76.83-.26,2.49,1.14,3.77A4.31,4.31,0,0,0,207,68.78a1.5,1.5,0,0,0,1.14-.44,1.75,1.75,0,0,0,.21-1.79,4.81,4.81,0,0,0-1.35-2,4.31,4.31,0,0,0-2.72-1.26A1.52,1.52,0,0,0,203.09,63.75Zm.4.36a1,1,0,0,1,.74-.28A3.83,3.83,0,0,1,206.59,65a4.43,4.43,0,0,1,1.21,1.76,1.29,1.29,0,0,1-.1,1.27,1,1,0,0,1-.75.27,3.86,3.86,0,0,1-2.36-1.12C203.45,66.08,202.94,64.7,203.49,64.11Z"/><path d="M203.75,58.83a7.26,7.26,0,0,1,6.95,2.05,5.15,5.15,0,0,1,1.73,3.77,5.54,5.54,0,0,1-1.74,3.64,8.06,8.06,0,0,0,1.2-3.65,4.57,4.57,0,0,0-1.56-3.38,6.7,6.7,0,0,0-6.43-1.92,9.13,9.13,0,0,0-2.32,1.32A2.83,2.83,0,0,1,203.75,58.83Z"/><path d="M199.9,76.33c7.06.23,10.29-.77,10.33-.78l.16.51c-.12,0-2.69.83-8.37.83l-2.14,0a28.84,28.84,0,0,1-8.13-1.35A4.74,4.74,0,0,1,189.4,74S193.09,76.1,199.9,76.33Z"/><path class="cls-17" d="M206.46,76.44c1.2,1.25,6.3,6.73,4.76,8.48-1.21,1.37-9-.54-13.16-3.31a18.75,18.75,0,0,1-5.75-6.2,29.19,29.19,0,0,0,7.58,1.18A53.33,53.33,0,0,0,206.46,76.44Z"/><path class="cls-18" d="M192.31,75.41a29.19,29.19,0,0,0,7.58,1.18,53.05,53.05,0,0,0,6.55-.15c.6,3.27-1.62,5.9-4.46,7.16a21.43,21.43,0,0,1-3.92-2A18.75,18.75,0,0,1,192.31,75.41Z"/><path class="cls-19" d="M201.21,76.62c1.85.55,3.88,1.42,4.95,2.76a9,9,0,0,1,1.61,5.85,27,27,0,0,1-9.71-3.62,18.75,18.75,0,0,1-5.75-6.2,29.19,29.19,0,0,0,7.58,1.18Z"/><path class="cls-20" d="M199.89,76.59h.43a2,2,0,0,0-.84.35c-1.06,1.77-.41,3.39,1.19,4.6a18.46,18.46,0,0,0,7.1,3.6v.08a27,27,0,0,1-9.71-3.62,18.75,18.75,0,0,1-5.75-6.2A29.19,29.19,0,0,0,199.89,76.59Z"/><path class="cls-21" d="M192.39,75.15l-.63-.19.32.58a19,19,0,0,0,5.83,6.29,26.85,26.85,0,0,0,9.82,3.66l.29,0,0-.29a9.18,9.18,0,0,0-1.67-6,10.11,10.11,0,0,0-5.08-2.85h-.07l-1.32,0A29.16,29.16,0,0,1,192.39,75.15Zm.49.7a30,30,0,0,0,7,1l1.29,0A9.64,9.64,0,0,1,206,79.55a8.54,8.54,0,0,1,1.56,5.37,26.88,26.88,0,0,1-9.31-3.53A18.5,18.5,0,0,1,192.88,75.85Z"/><path d="M192.39,75.15l-.63-.19.32.58a19,19,0,0,0,5.83,6.29,25.63,25.63,0,0,0,11.57,3.81,2.59,2.59,0,0,0,1.94-.55c1.62-1.83-2.8-6.79-4.77-8.84l-.09-.09h-.13a52.41,52.41,0,0,1-6.53.16A29.16,29.16,0,0,1,192.39,75.15Zm.49.7a30,30,0,0,0,7,1,51.87,51.87,0,0,0,6.48-.15c2.84,3,5.74,6.81,4.66,8-.12.14-.48.37-1.54.37a24.91,24.91,0,0,1-11.27-3.72A18.5,18.5,0,0,1,192.88,75.85Z"/></svg>