<svg xmlns="http://www.w3.org/2000/svg" xmlns:xlink="http://www.w3.org/1999/xlink" viewBox="0 0 260 250"><defs><style>.cls-1{isolation:isolate;}.cls-2{fill:url(#radial-gradient);}.cls-3{fill:url(#radial-gradient-2);}.cls-4{fill:#9899bd;opacity:0.1;}.cls-4,.cls-7{mix-blend-mode:multiply;}.cls-5,.cls-6{fill:#fff;}.cls-5{opacity:0.4;}.cls-6{opacity:0.6;}.cls-7{opacity:0.3;}.cls-8{fill:#457cb0;}</style><radialGradient id="radial-gradient" cx="452.15" cy="166.75" r="170.7" gradientTransform="translate(896.44 294.43) rotate(180) scale(1.7 1.4)" gradientUnits="userSpaceOnUse"><stop offset="0" stop-color="#bcdee6"/><stop offset="0.01" stop-color="#a6c1d8"/><stop offset="0.03" stop-color="#93a8cb"/><stop offset="0.04" stop-color="#8494c1"/><stop offset="0.06" stop-color="#7987ba"/><stop offset="0.08" stop-color="#737eb6"/><stop offset="0.12" stop-color="#717cb5"/><stop offset="0.14" stop-color="#6977b2"/><stop offset="0.26" stop-color="#455da6"/><stop offset="0.35" stop-color="#2e4d9e"/><stop offset="0.41" stop-color="#26479b"/><stop offset="0.5" stop-color="#244294"/><stop offset="0.63" stop-color="#203580"/><stop offset="0.78" stop-color="#191f5f"/><stop offset="0.93" stop-color="#100639"/></radialGradient><radialGradient id="radial-gradient-2" cx="-163.34" cy="32.43" r="76.31" gradientTransform="translate(287.44 153.8) rotate(28.05)" gradientUnits="userSpaceOnUse"><stop offset="0" stop-color="#fff"/><stop offset="1" stop-color="#d0dee6"/></radialGradient></defs><g class="cls-1"><g id="Layer_31" data-name="Layer 31"><rect class="cls-2" width="260" height="250"/><path class="cls-3" d="M178.6,131.71a57.63,57.63,0,1,1-23.76-78A57.64,57.64,0,0,1,178.6,131.71Z"/><path class="cls-4" d="M174.16,70.43A51.39,51.39,0,1,1,155.49,54.1l-.65-.36a57.6,57.6,0,1,0,19.32,16.69Z"/><path class="cls-5" d="M176.66,107.88c-9.57,18-33.3,24-53,13.51S95.73,87.81,105.3,69.85s33.31-24,53-13.5S186.24,89.93,176.66,107.88Z"/><path class="cls-6" d="M171.16,89.41c-5.82,10.93-20.26,14.6-32.25,8.21s-17-20.42-11.16-31.35S148,51.67,160,58.06,177,78.49,171.16,89.41Z"/><g class="cls-7"><path class="cls-8" d="M90.84,134.2c.77-2.84,6.58-2.86,11.44.72s3.29,8.72,0,9.58S88.84,141.64,90.84,134.2Z"/><path class="cls-8" d="M144.47,146c-.48-2.56,2.19-5.82,6.48-6.77s8.3.48,9,4.38-4,7.63-7.74,6.58S145,149,144.47,146Z"/><path class="cls-8" d="M102.24,150.35c.6-2.14,5.34-.65,5.38,2.25S101.57,152.72,102.24,150.35Z"/><path class="cls-8" d="M116.33,151.22c.91,1,3.64,2.08,4.21-.87S113.44,148,116.33,151.22Z"/><path class="cls-8" d="M136.75,155.13c2,.24,4.91.37,5.34-2.39s-5.72-2.58-7.06-1.15S134.94,154.91,136.75,155.13Z"/><path class="cls-8" d="M166.49,91.16c1.33,1,5.34,1.33,6-2.29s-3.82-5.24-6-4.48S162.39,87.92,166.49,91.16Z"/><path class="cls-8" d="M160,72.85c1.48,1.32,7,2,8.34-.38s-2.17-5.68-6.69-6S154.7,68.18,160,72.85Z"/><path class="cls-8" d="M125.82,65.15c1.84,1.29,7.21.46,7.69-2.59s-4.79-3.74-7.69-2.68S122.47,62.78,125.82,65.15Z"/><path class="cls-8" d="M113,57.6c2,.94,5,.67,5.11-.76s-1.77-2.29-3.87-2.1S110.53,56.46,113,57.6Z"/><path class="cls-8" d="M87,70.09c.27-1.46,1.81-.29,1.91.48S86.6,72.19,87,70.09Z"/><path class="cls-8" d="M90.58,89.35c-.47-1.26,1.55-1,1.65,0S90.94,90.3,90.58,89.35Z"/><path class="cls-8" d="M85.36,119.28a1.36,1.36,0,0,0,2.45-1C87.65,116.61,84.7,118.14,85.36,119.28Z"/><path class="cls-8" d="M82.41,132.15c.27.47,1.73,1,1.82-.6S81.74,131,82.41,132.15Z"/><path class="cls-8" d="M129.67,159.23c1,.52,2-.43,1.64-1.58S127.6,158.16,129.67,159.23Z"/><path class="cls-8" d="M125,158.8c.68-.74-1.15-1-1.86-.48S124.09,159.73,125,158.8Z"/><path class="cls-8" d="M119.52,156.3c.8.52,1.42.21,1.5-.5S118.09,155.37,119.52,156.3Z"/><path class="cls-8" d="M127.31,141.28c-.2-.47,1.87-.71,1.69,0A.9.9,0,0,1,127.31,141.28Z"/><path class="cls-8" d="M160,115.33c0-1.08,1.72-1,1.79,0S160,116.4,160,115.33Z"/><path class="cls-8" d="M169.21,98.24c-.07-1.08,2-1.15,2.07,0S169.28,99.31,169.21,98.24Z"/><path class="cls-8" d="M154,60.7c-.16-1.24,1.29-1.22,1.5,0S154.05,61.3,154,60.7Z"/><path class="cls-8" d="M144,60.27c-1.12-.79.57-1.5,1.29-.86S145.19,61.13,144,60.27Z"/><path class="cls-8" d="M134.46,55.77c-.72-.36.21-1.75,1.14-1.06S135.18,56.12,134.46,55.77Z"/><path class="cls-8" d="M129.31,51.76c-.77-.91.93-.64,1.5-.36S130.53,53.19,129.31,51.76Z"/><path class="cls-8" d="M141.82,54.52c-.71-1.47,1.15-.38,1,0S141.82,54.52,141.82,54.52Z"/><path class="cls-8" d="M129.45,54.71c-.64-.52.56-.56.6,0S129.45,54.71,129.45,54.71Z"/><path class="cls-8" d="M118.48,55.28c-.34-.24.45-.86.86-.39S119.1,55.73,118.48,55.28Z"/><path class="cls-8" d="M105.29,64c-.65-.52,1.28-1.19,2-.47S106.29,64.85,105.29,64Z"/></g></g></g></svg>