<svg id="Layer_28" data-name="Layer 28" xmlns="http://www.w3.org/2000/svg" viewBox="0 0 260 250"><defs><style>.cls-1{fill:#f9f7ed;}.cls-2{fill:#f0c11b;}.cls-3{fill:#f4dd39;}.cls-4{fill:#fffffe;}.cls-5{fill:#ae3028;}.cls-6{fill:#fb8e5a;}.cls-7{fill:#a72723;}.cls-8{fill:#e9514c;}</style></defs><rect class="cls-1" width="260" height="250"/><path class="cls-2" d="M130.1,62c-8.8-1-19.67-29.47-19.67-29.47s1.71,30.52-6,34.92C99.29,70.36,82.22,59,82.22,59s5.44,19.84,1,23.83c-6.57,5.94-35.06-5.1-35.06-5.1s24,19.21,22,27.81c-1.49,6.14-23,10.46-23,10.46s20.14,9.23,20.26,15.63c.16,8.85-27.25,22.64-27.25,22.64s30.27-5,35.35,2.3c3.56,5.07-7,23.78-7,23.78S88,172.41,93,176.05s3.62,24,3.62,24,14.54-15.16,20.34-13.33c8.44,2.67,13.11,32.91,13.11,32.91s4.68-30.18,13.11-32.91c5.67-1.83,20.11,12.79,20.11,12.79S162,179,167.17,176.05c7.66-4.46,33.23,12.27,33.23,12.27s-19.52-23.78-15.68-31.76c2.82-5.89,25.5-5.61,25.5-5.61s-18.54-12.93-17.4-19.33c1.56-8.72,31.36-16.48,31.36-16.48s-30.38-1.57-34.1-9.61c-2.4-5.18,9.52-20.78,9.52-20.78s-19.34,2.7-22.63-1.93c-5.14-7.21,8.73-34.33,8.73-34.33s-21.5,21.58-29.95,18.92c-5.49-1.73-8.92-21.23-8.92-21.23S135.81,62.61,130.1,62Z"/><circle class="cls-3" cx="132.07" cy="125.26" r="53.17" transform="translate(-0.23 250.27) rotate(-86.86)"/><path class="cls-4" d="M142.59,113.74c-.63,5,2,9.44,5.86,9.93s7.51-3.17,8.14-8.17-2-9.44-5.86-9.93S143.22,108.74,142.59,113.74Z"/><path class="cls-4" d="M124.54,113.74c.63,5-2,9.44-5.86,9.93s-7.51-3.17-8.14-8.17,2-9.44,5.86-9.93S123.91,108.74,124.54,113.74Z"/><path class="cls-5" d="M147.83,115.62c-.21,1.72.69,3.26,2,3.42s2.59-1.09,2.8-2.81-.68-3.25-2-3.42S148.05,113.9,147.83,115.62Z"/><path class="cls-5" d="M120.79,115.62c.22,1.72-.68,3.26-2,3.42s-2.59-1.09-2.81-2.81.69-3.25,2-3.42S120.58,113.9,120.79,115.62Z"/><path class="cls-6" d="M152.73,131.81c.42,2,3.15,3.21,6.1,2.6s5-2.75,4.58-4.8-3.15-3.2-6.1-2.59S152.31,129.77,152.73,131.81Z"/><path class="cls-6" d="M113.09,131.3c-.42,2-3.15,3.2-6.1,2.59s-5-2.75-4.58-4.79,3.15-3.21,6.1-2.6S113.51,129.25,113.09,131.3Z"/><path class="cls-7" d="M119.83,135.89a1.49,1.49,0,0,0-2,1.81c2,6,7.62,11,14.29,11s12.33-5,14.3-11a1.49,1.49,0,0,0-2.06-1.81c-2.73,1.26-7.19,3.38-12.24,3.38S122.56,137.15,119.83,135.89Z"/><path class="cls-8" d="M132.45,150.38c.72,3.47,3.47,5.84,6.15,5.29s4.27-3.82,3.56-7.29-3.47-5.84-6.15-5.29S131.74,146.91,132.45,150.38Z"/><path class="cls-8" d="M126.86,147.66a13.61,13.61,0,0,0,5.21,1.05,14.08,14.08,0,0,0,8.87-3.22,7.79,7.79,0,0,0-6.56-3.1C130.53,142.39,127.35,144.68,126.86,147.66Z"/><path class="cls-2" d="M175.05,120.23a1.55,1.55,0,1,0,1.55-1.55A1.55,1.55,0,0,0,175.05,120.23Z"/><circle class="cls-2" cx="170.7" cy="110.12" r="1.2"/><circle class="cls-2" cx="136.25" cy="82.22" r="1.19"/><circle class="cls-2" cx="135.05" cy="94.16" r="1.47"/><path class="cls-2" d="M127.15,105.19a1.49,1.49,0,1,0,1.48-1.48A1.49,1.49,0,0,0,127.15,105.19Z"/><path class="cls-2" d="M137.31,117.32a.94.94,0,1,0,.94-.93A.94.94,0,0,0,137.31,117.32Z"/><path class="cls-2" d="M156.31,144.57a1.06,1.06,0,1,0,2.11,0,1.06,1.06,0,0,0-2.11,0Z"/><path class="cls-2" d="M171,143.24a1.34,1.34,0,1,0,1.34-1.33A1.33,1.33,0,0,0,171,143.24Z"/><circle class="cls-2" cx="151.04" cy="160.83" r="1.14"/><path class="cls-2" d="M122,164.49a1.12,1.12,0,1,0,1.11-1.12A1.12,1.12,0,0,0,122,164.49Z"/><path class="cls-2" d="M107.94,157.18a1.25,1.25,0,1,0,1.25-1.25A1.25,1.25,0,0,0,107.94,157.18Z"/><path class="cls-2" d="M94.44,150a1.89,1.89,0,1,0,1.89-1.89A1.89,1.89,0,0,0,94.44,150Z"/><path class="cls-2" d="M105.13,142.39a1.14,1.14,0,1,0,1.13-1.13A1.14,1.14,0,0,0,105.13,142.39Z"/><path class="cls-2" d="M89.75,130.68a1.21,1.21,0,1,0,1.2-1.2A1.21,1.21,0,0,0,89.75,130.68Z"/><path class="cls-2" d="M94.44,113.17a2.06,2.06,0,1,0,2.06-2.06A2.07,2.07,0,0,0,94.44,113.17Z"/><path class="cls-2" d="M97.9,97.56A1.61,1.61,0,1,0,99.51,96,1.61,1.61,0,0,0,97.9,97.56Z"/><path class="cls-2" d="M137,160.35a1,1,0,0,1-.61-.2,6.47,6.47,0,0,0-8.46,0,1,1,0,1,1-1.24-1.68,8.56,8.56,0,0,1,10.93,0,1,1,0,0,1-.62,1.88Z"/><path class="cls-2" d="M122.38,99.88a1.06,1.06,0,0,1-.61-.2,6.47,6.47,0,0,0-8.46,0,1,1,0,0,1-1.46-.23,1,1,0,0,1,.23-1.45A8.54,8.54,0,0,1,123,98a1,1,0,0,1-.62,1.88Z"/><path class="cls-2" d="M144.75,99.88a1.06,1.06,0,0,0,.61-.2,6.47,6.47,0,0,1,8.46,0,1,1,0,0,0,1.46-.23,1,1,0,0,0-.23-1.45,8.54,8.54,0,0,0-10.92,0,1,1,0,0,0,.62,1.88Z"/></svg>