<?xml version="1.0" encoding="utf-8"?>
<!-- Generator: Adobe Illustrator 24.3.0, SVG Export Plug-In . SVG Version: 6.00 Build 0)  -->
<svg version="1.1" id="Layer_5" xmlns="http://www.w3.org/2000/svg" xmlns:xlink="http://www.w3.org/1999/xlink" x="0px" y="0px"
	 viewBox="0 0 260 250" style="enable-background:new 0 0 260 250;" xml:space="preserve">
<style type="text/css">
	.st0{clip-path:url(#SVGID_2_);}
	.st1{fill:url(#SVGID_3_);}
	.st2{opacity:0.33;fill:#FFFFFF;enable-background:new    ;}
	.st3{opacity:0.4;fill:#FFFFFF;enable-background:new    ;}
	.st4{opacity:0.11;}
	.st5{fill:#3F210D;}
	.st6{opacity:0.11;fill:#3F210D;enable-background:new    ;}
	.st7{fill:#66B287;}
	.st8{opacity:0.11;fill:#155A5E;enable-background:new    ;}
	.st9{opacity:0.93;fill:#FFFFFF;enable-background:new    ;}
	.st10{opacity:0.83;fill:#FFFFFF;enable-background:new    ;}
	.st11{fill:#84C0A0;}
	.st12{fill:#97D0B1;}
	.st13{opacity:8.000000e-02;enable-background:new    ;}
	.st14{fill:#896052;}
	.st15{fill:#8AC6A9;}
	.st16{fill:#6A5A56;}
	.st17{fill:#A2D8BB;}
	.st18{fill:#B4E1C7;}
	.st19{fill:#939BA8;}
	.st20{fill:#5F6975;}
	.st21{fill:#6A7482;}
	.st22{fill:#C9B6B5;}
	.st23{fill:#3A3A3A;}
	.st24{fill:#F4B073;}
	.st25{fill:#F6BF80;}
	.st26{fill:#966553;}
	.st27{fill:#A06A5A;}
	.st28{fill:#F7876D;}
	.st29{fill:#EC7562;}
	.st30{fill:#936757;}
	.st31{fill:#A27360;}
	.st32{fill:#A27360;stroke:#875D4E;stroke-width:1.07;stroke-miterlimit:10;}
	.st33{fill:#775A50;}
	.st34{fill:#D6C6C5;}
	.st35{opacity:0.22;fill:#3A1D19;enable-background:new    ;}
	.st36{fill:#F5D7B0;}
	.st37{fill:#FFFFFF;}
	.st38{fill:#E1D6D5;}
	.st39{fill:#F18869;}
	.st40{fill:#F5F2EF;}
	.st41{fill:#ECE3E1;}
	.st42{fill:#A1CCE2;}
	.st43{fill:#EBE4E2;}
	.st44{fill:#F4F1F0;}
	.st45{fill:#8EC0DA;}
	.st46{opacity:0.11;fill:#FFFFFF;enable-background:new    ;}
	.st47{opacity:0.22;fill:#FFFFFF;enable-background:new    ;}
	.st48{fill:#F6C899;}
	.st49{fill:#F8B980;}
	.st50{fill:#ECE1D3;}
	.st51{opacity:0.23;fill:#3A1B08;enable-background:new    ;}
	.st52{fill:#428790;}
	.st53{fill:#4E9FA5;}
	.st54{fill:#8ED0AD;}
</style>
<g>
	<defs>
		<rect id="SVGID_1_" x="0" y="-0.2" width="260" height="250"/>
	</defs>
	<clipPath id="SVGID_2_">
		<use xlink:href="#SVGID_1_"  style="overflow:visible;"/>
	</clipPath>
	<g class="st0">
		
			<linearGradient id="SVGID_3_" gradientUnits="userSpaceOnUse" x1="151.1361" y1="110.49" x2="151.5561" y2="315.26" gradientTransform="matrix(1 0 0 -1 0 252)">
			<stop  offset="0" style="stop-color:#FFFFFF"/>
			<stop  offset="1" style="stop-color:#ECD9C2"/>
		</linearGradient>
		<rect x="-20.5" class="st1" width="343.3" height="250"/>
		<path class="st2" d="M312.8,85.7c-3.5-0.2-7.1,0.1-10.6,0.9c-4,0.9-7.9,2.3-11.6,4.1c-7.9,3.7-15.7,9.2-23.5,14.8
			c-6.9,4.9-13.4,10.7-21.2,14.2c-20.3,9.2-34-7.3-47.7-19.6c-9.7-8.7-20.2-16.8-32.9-20.6c-15.9-4.7-32.8-2.7-47.6,4.7
			c-11.2,5.6-24.1,12.6-37,11.3c-9.9-1-18.8-5.9-27.4-10.6c-9-4.9-17.9-10.3-27.8-13.1C16.1,69.4,5.7,69.6-3,74.1l-0.9,0.4L-4.7,75
			c-0.6,0.3-1.1,0.7-1.6,1c-5.7,3.9-10.4,9.2-13.5,15.4c-0.2,0.5-0.5,0.9-0.7,1.3v11.9c0.8-0.8,1.6-1.6,2.6-2.5
			c1.8-1.6,3.6-3.2,5.6-4.6c13.4-9.8,26.5-5.1,37.9,5.3c10.1,9.3,20.3,18.5,32.6,24.9c22.8,11.7,49.2,7.4,71-3.8
			c7.2-3.7,15-7.7,23.3-6.2s15.4,7.6,22,12.8l7.5,5.9c2.6,2,5.4,4.1,8.4,6.1c3.1,2.1,6.3,4.1,9.6,5.8c1.7,0.9,3.5,1.8,5.4,2.6
			c27.5,11.6,53.4-3.3,71.6-23.8c1.7-1.9,3.3-3.9,4.9-5.7l4.5-5.4c1.5-1.7,2.9-3.4,4.2-4.9s2.7-3.1,4-4.5s2.6-2.7,3.9-3.9
			s2.6-2.3,3.9-3.3c1.2-1,2.5-1.9,3.8-2.7c1.2-0.8,2.4-1.4,3.7-2.1c1.2-0.6,2.4-1,3.6-1.4c3-0.9,6.1-1.4,9.2-1.4V88
			c-0.6-0.2-1.2-0.5-1.8-0.7C318.4,86.4,315.6,85.9,312.8,85.7z"/>
		<path class="st3" d="M216.1,81.7c13.5,4.9,27.2,2.3,39.5-4.7c1.3-0.7,2.6-1.5,3.8-2.2c12.4-7.6,23.8-16.8,35.7-25.1h-28.7
			l-2.2,1.2c-6.5,3.4-12.9,7-19.4,10.3c-18.9,9.5-39.1-2.6-58.4-11.4h-18.9c4.1,2.9,8.2,5.9,12.2,9.1
			C190.9,67.6,202.5,76.8,216.1,81.7z"/>
		<g class="st4">
			<path class="st5" d="M301.9,146.4l-5.2-5.1h-22.6l-19.7,11.1l-5.9-6.4v-10.4h0.7v-2.5h-6.4v2.5h0.7v5.1l-6.1-6.5h-23.2l-21,14.7
				l-172.4,2.5L7.4,137.7l-27.9-0.1V250h343.3V127c-5.2-0.3-11.9-0.4-11.9-0.4L301.9,146.4z"/>
		</g>
		<path class="st6" d="M7,172.1l3.7-1.9c-0.8-4.6-1.6-9-2.6-12.9l-4.2,0.7l3.8-2.5c-1.6-6.5-3.4-11-5.2-10.8s-3.8,1.6-5.5,3.8
			l0.6,2.3l-1.6-0.8c-2.2,3.7-3.9,7.7-5.2,11.8l1.9,1.7h-2.4c-0.8,2.5-1.5,5.2-2.2,7.9l4.1,1.6l-4.7,0.9c-1,4-1.8,7.9-2.5,11.5
			l4.4,0.9l-4.8,1c-1.3,7.1-2,12.2-2,12.2l16.9,2.9l13.2-1.8V183c-0.7-3.5-1.1-7.2-1.7-10.9H7z"/>
		<path class="st6" d="M-2.4,180.9l14.1-4.3c-0.1-0.4-0.1-0.8-0.2-1.2l-13.9,4.2c0-2.7,0.2-5.2,0.4-7.6l12.1-4.8
			c-0.1-0.4-0.1-0.8-0.2-1.2l-11.8,4.6c0.2-2.7,0.5-5.2,0.9-7.5l9.9-2.4c-0.1-0.4-0.2-0.8-0.3-1.2l-9.4,2.3
			c0.7-4.6,1.6-8.4,2.3-11.4l3.9-2.1c-0.2-0.4-0.3-0.8-0.5-1.1l-3,1.6c0.5-1.7,0.9-3.1,1.2-3.9c-0.2-0.1-0.5-0.2-0.7-0.2
			c-0.2,0-0.4,0-0.5,0.1c-0.3,0.9-0.6,2.1-1.1,3.5c-0.4-0.9-0.9-1.8-1.2-2.5c-0.4,0.3-0.7,0.5-1,0.8c0.3,0.7,0.9,1.9,1.7,3.5
			c-0.8,2.9-1.6,6.6-2.3,11l-4.6-6c-0.2,0.4-0.4,0.9-0.6,1.3l4.9,6.4c-0.3,2.4-0.7,4.9-0.9,7.6l-7.1-5.1c-0.1,0.4-0.2,0.8-0.4,1.3
			l7.4,5.3c-0.2,2.5-0.3,5.1-0.4,7.8l-9.5-3.2c-0.1,0.4-0.2,0.8-0.3,1.2l9.8,3.3c0,3.4,0.1,6.9,0.3,10.6l-12.6-1.6
			c-0.1,0.4-0.1,0.8-0.2,1.2l12.9,1.6c0.2,2.6,0.5,5.2,0.9,7.9l1.2-0.2c-0.4-2.7-0.6-5.3-0.8-7.9l14.6-5.4v-1.3L-2,191.3
			C-2.2,187.7-2.4,184.2-2.4,180.9z"/>
		<path class="st6" d="M276.9,191.9l4.4-0.9c-0.7-3.6-1.5-7.5-2.5-11.5l-4.7-0.9l4.1-1.6c-0.7-2.6-1.4-5.4-2.2-7.9h-2.5l1.9-1.7
			c-1.3-4.1-3-8.1-5.2-11.8l-1.6,0.9l0.6-2.3c-1.7-2.3-3.5-3.7-5.4-3.9s-3.6,4.3-5.3,10.8l3.8,2.5l-4.2-0.7
			c-0.9,3.9-1.8,8.4-2.6,12.9l3.7,1.9h-4.1c-0.6,3.7-1.1,7.5-1.8,10.9v17.4l13.3,1.9l17-2.9c0,0-0.7-5.1-2-12.2L276.9,191.9z"/>
		<path class="st6" d="M269.5,197.2c0.3-3.7,0.4-7.2,0.4-10.6l9.8-3.3c-0.1-0.4-0.2-0.8-0.3-1.2l-9.5,3.2c-0.1-2.7-0.2-5.3-0.4-7.8
			l7.4-5.3c-0.1-0.4-0.2-0.8-0.4-1.3l-7.1,5.1c-0.2-2.7-0.5-5.2-0.9-7.6l4.9-6.4c-0.2-0.4-0.4-0.9-0.5-1.3l-4.6,6
			c-0.7-4.4-1.5-8.1-2.3-11c0.8-1.6,1.3-2.7,1.7-3.5c-0.3-0.3-0.6-0.6-1-0.8c-0.3,0.6-0.7,1.5-1.2,2.5c-0.4-1.5-0.8-2.7-1.1-3.5
			c-0.2,0-0.4-0.1-0.5-0.1c-0.3,0-0.5,0-0.7,0.2c0.3,0.9,0.7,2.2,1.2,3.9l-3-1.6c-0.2,0.3-0.3,0.7-0.5,1.1l3.9,2.1
			c0.8,3,1.6,6.8,2.3,11.4l-9.4-2.3l-0.3,1.2l9.9,2.4c0.3,2.3,0.6,4.8,0.9,7.5l-11.8-4.6c-0.1,0.4-0.1,0.8-0.2,1.2l12.1,4.8
			c0.2,2.4,0.3,5,0.4,7.7l-13.9-4.2c-0.1,0.4-0.1,0.8-0.2,1.2l14.1,4.3c0,3.3-0.2,6.8-0.4,10.4l-14.8-5.4v1.3l14.7,5.4
			c-0.2,2.6-0.4,5.2-0.8,7.9l1.2,0.2c0.4-2.7,0.7-5.3,0.9-7.9l12.9-1.6c-0.1-0.4-0.1-0.8-0.2-1.2L269.5,197.2z"/>
		<path class="st7" d="M279.1,183c-10.2,0-18.7,7-18.9,15.5c0,1.5,0.2,3,0.7,4.4c-2.2-1.7-5.8-2.9-9.9-2.8h-0.3
			c-0.2-7-7.2-12.6-15.9-12.6c-3.9,0-7.7,1.2-10.9,3.4c-3.4-3.1-7.8-4.7-12.4-4.6c-6.7,0-12.6,3.3-15.4,8c-1.4-0.4-2.9-0.6-4.3-0.6
			c-5.8,0-10.7,3.1-12.1,7.3c-0.4,0-0.8-0.1-1.3,0c-5.7,0-10.3,2.6-10.4,5.7c-0.1,3.8,6.6,7.7,9.6,8.8c3,0.9,6.1,1.3,9.1,1.4
			c19.8,1.1,39.6,1.9,59.5,2.5c8.9,0.2,17.7,0.4,26.6,0.6l21.2,0.4v-30.8C290.3,185.2,284.8,182.9,279.1,183z"/>
		<path class="st8" d="M279.1,183c-10.2,0-18.7,7-18.9,15.5c0,1.5,0.2,3,0.7,4.4c-2.2-1.7-5.8-2.9-9.9-2.8h-0.3
			c-0.2-6.2-5.6-11.2-12.8-12.3c1.2,0.7,1.9,2.1,1.9,3.5c0.6-0.2,1.2-0.2,1.8,0.1c0.3,0.1,0.5,0.3,0.6,0.6c0.3,0.4,0.4,0.9,0.2,1.3
			c-0.2,0.7-0.7,1.3-1.3,1.6c0.2,0.5,0.3,1,0.2,1.5c-0.1,0.4-0.2,0.8-0.5,1.1c0,0.4-0.2,0.7-0.6,0.9c-0.3,0.1-0.5,0.1-0.8,0.1
			c-0.1,0-0.2,0-0.3,0c-0.8,0-1.6-0.3-2.1-0.9c-1-0.6-1.9-1.3-2.5-2.3c-1,0.3-2,0.2-2.9-0.2c-0.7-0.3-1.2-0.9-1.4-1.6
			c-0.4-0.8-0.4-1.8,0-2.6c0.1-0.2,0.2-0.4,0.4-0.6c0.3-1.1,1-2,1.9-2.6c-3.1,0.4-6,1.5-8.5,3.2c-3.4-3.1-7.8-4.7-12.4-4.6
			c-6.7,0-12.6,3.3-15.4,8c-1.4-0.4-2.9-0.6-4.3-0.6c-5.8,0-10.7,3.1-12.1,7.3c-0.4,0-0.8-0.1-1.3,0c-5.7,0-10.3,2.6-10.4,5.7
			c-0.1,3.8,6.6,7.7,9.6,8.8c3,0.9,6.1,1.3,9.1,1.4c19.8,1.1,39.6,1.9,59.5,2.5c8.9,0.2,17.7,0.4,26.6,0.6l21.2,0.4v-30.8
			C290.3,185.2,284.8,182.9,279.1,183z M231.8,199.4c-0.9-0.1-1.5-0.9-1.4-1.8c0-0.1,0-0.2,0.1-0.3c0.3-0.6,0.9-1,1.6-0.9
			c0.3,0,0.7,0.1,0.9,0.3c0.3,0.3,0.5,0.7,0.6,1.1c0.1,0.8-0.6,1.6-1.4,1.6C232,199.4,231.9,199.4,231.8,199.4L231.8,199.4z
			 M282,187c0.1-0.3,0.3-0.5,0.5-0.7c0.9-0.5,2-0.3,2.6,0.6c0.1,0.1,0.1,0.3,0.2,0.4l0.1,0.4c0.9-0.7,2-1,3.1-0.8
			c0.9,0.2,1.6,0.8,1.8,1.7c1.1,1.7,0.7,4-0.9,5.2c-2.3,1.8-6.3,0.4-6.2-2.7c0-0.2,0-0.4,0.1-0.6c-0.7,0-1.4-0.4-1.8-0.9
			C281,188.7,281.2,187.6,282,187L282,187z M267,188.2c1.8-2,5.5-2.7,7.6-1.1c3.2,1.6,3.7,4.7,2.6,7.6l0-0.1c0.8-0.7,2-0.9,3-0.5
			c0.3,0.1,0.5,0.3,0.7,0.5l0.2,0.1c2.3,1.8,0.4,5-2,5.5c-1.5,0.3-3-0.6-3.3-2.1c-0.1-0.3-0.1-0.6-0.1-0.9c-2.2,2.7-5.7,4.2-9,1.8
			C263.3,196.6,264.5,191,267,188.2L267,188.2z M245.7,198c-0.1,0.3-0.2,0.5-0.4,0.7l0,0c-0.3,0.4-0.9,0.5-1.4,0.4
			c-0.3,0-0.6-0.1-0.8-0.3c-0.4-0.3-0.6-0.8-0.6-1.3c-0.1-0.5,0.1-1.1,0.5-1.4c0.3-0.2,0.8-0.3,1.1-0.2c0.3,0.1,0.5,0.2,0.8,0.4
			c0.4,0.1,0.7,0.4,0.9,0.8C245.9,197.3,245.9,197.7,245.7,198L245.7,198z M252.1,212.4L252.1,212.4c-0.6,0-1-0.3-1.1-0.8
			c-0.1-0.5,0.3-0.9,0.8-1c0,0,0,0,0,0h0.1c0.5,0,0.9,0.3,1,0.8C253,211.9,252.6,212.4,252.1,212.4
			C252.1,212.4,252.1,212.4,252.1,212.4L252.1,212.4z M257.5,209c-1,1.2-2.7,1.5-4,0.7c-0.6-0.3-1-0.8-1.1-1.5l-0.2,0.1
			c-1.6,0.9-3.9,1.3-5.4-0.1s-1-3.2-0.1-4.6c1.2-2.1,4.8-4.3,6.8-1.9c0.3,0.1,0.7,0.3,0.9,0.5c0.3,0.4,0.5,0.9,0.5,1.4
			c0,0,0,0.1,0,0.1c0.1,0.6,0.1,1.2-0.1,1.7c0.5-0.1,0.9,0,1.4,0.1C257.8,205.6,258.3,207.7,257.5,209L257.5,209z M263,212.4
			c-1.3,0.6-2.9,0-3.5-1.3c-0.2-0.4-0.3-0.8-0.2-1.2c0.2-1.3,1.2-2.4,2.5-2.6c0.3-0.3,0.7-0.3,1-0.2c1,0.5,1.8,1.5,1.9,2.6
			C264.7,210.9,264.1,212,263,212.4L263,212.4z M261.9,202.9c0.2-1.2,1.3-2.1,2.5-1.9c0.1,0,0.2,0,0.2,0c0.8,0.1,1.5,0.8,1.5,1.6
			c0,0.9-0.5,1.8-1.4,2.1C263.4,205.3,261.7,204.5,261.9,202.9L261.9,202.9z M266.2,207.5L266.2,207.5c-0.6,0-1-0.3-1.1-0.8
			c-0.1-0.5,0.3-0.9,0.8-1c0,0,0,0,0,0h0.1c0.5,0,0.9,0.3,1,0.8C267.1,206.9,266.8,207.4,266.2,207.5L266.2,207.5z M274,212.5
			c-0.1,0.3-0.3,0.5-0.5,0.7c-0.3,0.5-0.8,0.9-1.4,1.1c-1.2,0.4-2.5,0-3.2-1v-0.1c-0.4,0-0.7-0.2-0.7-0.6c-0.3-1.6,0.8-3.1,2.4-3.4
			c0.3,0,0.5-0.1,0.8,0c0.6,0,1.1,0.3,1.5,0.7c0.4,0,0.7,0.2,0.9,0.5c0.6,0.3,0.9,1.2,0.5,1.8C274.2,212.3,274.1,212.4,274,212.5
			L274,212.5z M274.9,206.6c-1.2,1.4-3.3,1.6-4.8,0.6c-0.7-0.5-1.2-1.4-1.1-2.3c-0.1-1.4,0.8-2.7,2.1-3.3c1.3-0.9,3-0.7,4,0.5
			c0.8,0.8,1.1,2,0.6,3C275.5,205.6,275.3,206.2,274.9,206.6L274.9,206.6z M289.5,208.5c-1.1,2.8-4.2,4.3-7.1,3.4
			c-1.1-0.3-2.1-1-2.8-1.9l-0.1,0.1c-1,0.8-2.5,0.7-3.3-0.3c-0.1-0.1-0.1-0.1-0.2-0.2c-0.6-0.7-0.4-1.7,0.3-2.3
			c0.1-0.1,0.3-0.2,0.4-0.2c0.7-0.3,1.4-0.4,2.1-0.3h0.1c0.7-4.5,6.5-9.3,9.6-4.9c0.1,0.1,0.2,0.3,0.3,0.5
			C290.6,203.7,290.4,206.5,289.5,208.5L289.5,208.5z M291.5,197.8c-0.4,0.9-1.3,1.4-2.3,1.4c-1.1-0.2-1.8-1.2-1.6-2.3
			c0-0.2,0.1-0.4,0.2-0.5c0.5-1.1,1.8-1.6,2.9-1.1c0.3,0.1,0.5,0.3,0.7,0.5c0.1,0.2,0.2,0.3,0.2,0.5
			C291.8,196.8,291.8,197.4,291.5,197.8L291.5,197.8z"/>
		<path class="st7" d="M54.8,216.2c5.1,0,10.2,0,15.3-0.1c2.1,0.1,4.2-0.2,6.1-0.9c6.9-2.9,7.3-12.2-1.7-11.3
			c-1.5,0.1-2.9,0.6-4.1,1.4c-0.8-4.2-6.8-6.9-13.7-6.2c-2.9,0.3-5.7,1.2-8.2,2.8c0.1-1,0.1-2,0-3c-0.9-8.3-7.7-14.4-15.3-13.6
			c-6,0.6-10.6,5.3-11.9,11.3c-2.2-0.9-4.6-1.3-6.9-1c-2.3,0.3-4.5,1.2-6.4,2.6c-1.4-8.5-8.7-14.5-16.8-13.7
			c-5.1,0.6-9.6,3.8-11.8,8.5v22.9h18.3L54.8,216.2z"/>
		<path class="st8" d="M54.8,216.2c5.1,0,10.2,0,15.3-0.1c2.1,0.1,4.2-0.2,6.1-0.9c6.9-2.9,7.3-12.2-1.7-11.3
			c-1.5,0.1-2.9,0.6-4.1,1.4c-0.8-4.2-6.8-6.9-13.7-6.2c-2.9,0.3-5.7,1.2-8.2,2.8c0.1-1,0.1-2,0-3c-0.9-8.3-7.7-14.4-15.3-13.6
			c-3.2,0.3-6.1,1.8-8.2,4.2c1.2-0.2,2.5,0.3,3.2,1.3c0.3,0.4,0.6,0.9,0.9,1.4c1.1,1.4,1.5,3.3,1.1,5.1l0,0c0.1,2-0.7,3.9-2.2,5.2
			c-1.9,1.6-4.7,1.4-6.3-0.4c-1.4-1.6-1.9-3.7-1.4-5.8c-1-0.3-2-0.5-3-0.6c0.4,0.4,0.8,0.8,1,1.4c0.5,1.2,0.4,2.6-0.2,3.7
			c-0.2,0.5-0.4,0.9-0.7,1.3l-0.1,0.1c-0.2,1.3-0.8,2.4-1.8,3.2c-1.1,0.9-2.6,1.1-3.9,0.7c-0.1,0.4-0.2,0.7-0.5,1.1
			c-0.2,0.2-0.4,0.4-0.6,0.6c-0.2,0.2-0.5,0.3-0.7,0.4c-0.6,0.2-1.4,0.2-2,0c-0.9-0.4-1.4-1.2-1.5-2.2c-0.1-1,0.3-1.9,1.1-2.5
			c0.1-0.1,0.3-0.2,0.5-0.3c-1-1.5-0.9-3.4,0.1-4.8l0,0c-0.5-3-1.7-5.8-3.7-8.2c0,0.1-0.1,0.2-0.1,0.3c0.3,0.5,0.5,1.1,0.6,1.7
			c0.4,2.2-0.9,4.4-3,5.1c-2.2,0.6-4.5-0.7-5.2-2.9c0-0.1-0.1-0.3-0.1-0.4c-1.5-0.2-2.8-0.9-3.9-2c-0.7-1-0.5-2.3,0.5-3
			c0.2-0.1,0.4-0.2,0.6-0.3c0.3-1,0.9-1.9,1.7-2.6c0.4-0.4,0.9-0.7,1.4-0.9c-1.8-0.6-3.8-0.7-5.7-0.5c-5.1,0.6-9.6,3.8-11.8,8.5
			v22.9h18.3L54.8,216.2z M18.7,206.3c0.2-0.2,0.4-0.4,0.6-0.5c0.2-0.2,0.5-0.3,0.8-0.3h0.1c0.4,0,0.8,0,1.1,0.2l0.5,0.3
			c0.9,0.7,1.1,2.1,0.3,3c-0.2,0.2-0.4,0.4-0.6,0.5c-0.2,0.2-0.5,0.3-0.8,0.3h-0.1c-0.4,0-0.8,0-1.1-0.2l-0.5-0.3
			c-0.4-0.4-0.7-0.9-0.8-1.4C18.2,207.3,18.4,206.7,18.7,206.3z M16.2,209.1L16.2,209.1c0.6,0,1,0.3,1.1,0.8c0.1,0.5-0.3,0.9-0.8,1
			h-0.1c-0.5,0-0.9-0.3-1-0.8C15.3,209.6,15.7,209.2,16.2,209.1C16.2,209.1,16.2,209.1,16.2,209.1L16.2,209.1z M5.1,209.4
			c0.5-0.3,1.1-0.3,1.6-0.1l0.1,0.1c0.1,0,0.2,0.1,0.3,0.1c0.3,0.1,0.6,0.4,0.7,0.7c0.1,0.2,0.1,0.5,0,0.8c0,0.3,0,0.6-0.2,0.9
			c-0.5,0.8-1.4,1.1-2.2,0.6c-0.3-0.1-0.5-0.2-0.7-0.4c-0.4-0.3-0.6-0.9-0.6-1.4C4.2,210.1,4.6,209.7,5.1,209.4L5.1,209.4z
			 M1.8,202.3c1.1,0.3,2.1,1.1,2.5,2.2c0.4,1.5-0.2,3.1-1.5,3.9l-0.2,0.1c-0.3,0.2-0.6,0.4-1,0.5c-1.1,0.4-2.2,0.3-3.2-0.2
			c-1.1-0.6-1.8-1.7-1.8-2.9c0-2.2,1.8-4,4-4C1,202.1,1.4,202.2,1.8,202.3L1.8,202.3z M-8.1,205.2c-0.1,0.3-0.2,0.6-0.3,0.9
			c0,0,0,0.1-0.1,0.1c-0.3,0.8-0.9,1.5-1.5,2c-2.3,1.9-6.4,2.3-7.9-0.8c-1.2-2.6,0.4-5.8,3-6.8c1.4-0.5,2.8-0.4,4.1,0.2
			c0.6-1.7,2.1-2.9,3.9-3.1c1.4-0.1,2.7,0.6,3.3,1.9c0,0.1,0.1,0.2,0.1,0.2c0.5,1.1,0.4,2.5-0.3,3.5C-4.7,204.9-6.4,205.6-8.1,205.2
			L-8.1,205.2z M-2.7,211.6l-0.1,0.1c-0.4,0.4-0.8,0.6-1.4,0.7c-0.6,0.1-1.1-0.1-1.6-0.4c-0.2-0.2-0.4-0.4-0.5-0.6
			c-0.2-0.2-0.3-0.5-0.3-0.8c0-0.4,0-0.8,0.2-1.1c0.1-0.2,0.2-0.3,0.3-0.5c0.2-0.3,0.5-0.5,0.9-0.6c0.2-0.1,0.4-0.1,0.6-0.1
			c0.4,0,0.8,0,1.1,0.2l0.5,0.3c0.4,0.3,0.7,0.8,0.8,1.4C-2.2,210.6-2.4,211.1-2.7,211.6L-2.7,211.6z"/>
		<path class="st9" d="M59.9,130.3c0-2.9-3.1-5.2-7-5.2c-2.9,0-5.5,1.4-6.5,3.3c-1.9-1.1-4-1.6-6.2-1.6c-0.9,0-1.7,0.1-2.6,0.2v-0.2
			c0-5.6-4.8-10.1-10.7-10.1s-10.7,4.5-10.7,10.1c0,0.1,0,0.2,0,0.3c-1.8-1.4-3.9-2.1-6.1-2c-0.4,0-0.9,0-1.3,0.1v-0.1
			c0-5.7-5-10.4-11.2-10.4c-5.9,0-10.8,4.3-11.1,9.7c-1.1-0.4-2.2-0.6-3.3-0.6c-1.3,0-2.6,0.3-3.8,0.8v5.8h80.4V130.3z"/>
		<path class="st9" d="M244.7,127.5c-1.4,0-2.8,0.1-4.2,0.4c-1.5-3.1-5.6-5.3-10.4-5.3c-4.4,0-8.1,1.8-9.9,4.5
			c-2.4-1.6-5.3-2.4-8.2-2.3h-0.3c0-7.5-6.1-13.5-13.6-13.5c-5.4,0-10.3,3.3-12.4,8.3c-1.9-1-4.1-1.5-6.3-1.5
			c-4.5,0-8.4,2.1-10.3,5.1c-1.1-0.4-2.3-0.6-3.6-0.6c-4.3,0-7.9,2.3-8.8,5.4c-1.2-0.4-2.4-0.6-3.7-0.6c-4.1,0-7.4,1.8-7.4,4.1
			c0,0.1,0,0.1,0,0.2h109C254.3,129.4,250,127.5,244.7,127.5z"/>
		<path class="st10" d="M111.7,80.8c-0.9,0-1.8,0.1-2.6,0.4c0-0.1,0-0.3,0-0.4c-0.1-3.6-3.1-6.4-6.7-6.3c-3.2-0.1-6,2.1-6.6,5.2
			c-1.6-0.5-3.3-0.7-5-0.7c-2,0-4.1,0.3-6,1c0.1-0.3,0.1-0.7,0.1-1c0-4.4-4.9-8-11-8c-1.4,0-2.9,0.2-4.3,0.6
			c-2.5-4.7-7.3-7.6-12.6-7.5c-7,0-12.9,4.8-13.8,11.1c-2-0.6-4-0.9-6.1-0.9c-4.9,0-9.2,1.6-11.5,3.9c-2-0.9-4.2-1.3-6.4-1.3
			c-3.9,0-7.3,1.2-9,3c-1.3-0.7-2.8-1-4.3-1c-3.4,0-6.2,1.8-6.2,3.9c0,0.2,0,0.5,0.1,0.7h117C116.6,82,114.4,80.8,111.7,80.8z"/>
		<path class="st10" d="M288.3,89.4c-0.9,0-1.7,0.1-2.5,0.3c-1.9-2.8-6.1-4.8-11.1-4.8c-4.7,0-8.8,1.8-10.8,4.4
			c-2-2.2-4.9-3.5-7.9-3.4c-0.4,0-0.7,0-1.1,0l0,0c0-8.3-5.3-15-11.8-15s-11.8,6.7-11.8,15c0,2.2,0.4,4.4,1.2,6.5
			c-1.2-0.1-2.5-0.2-3.7-0.2c-2.2,0-4.4,0.2-6.6,0.7c0-0.2,0-0.5,0-0.7c0-4-5.9-7.3-13.1-7.3c-0.9,0-1.8,0-2.6,0.2
			c-2.1-4.1-7.1-7-12.8-7c-7,0-12.8,4.3-13.8,9.9c-0.8-0.1-1.6-0.2-2.4-0.2c-5.2,0-9.6,2.3-10.8,5.4c-1.2-0.2-2.5-0.3-3.7-0.3
			c-4.7,0-8.7,1.5-9.3,3.4h110.2l0,0l0,0h31.9c0.4-0.6,0.6-1.2,0.6-1.8C296.1,91.7,292.6,89.4,288.3,89.4z"/>
		<path class="st11" d="M179.4,118.1c-16.2-2.5-12.7,70.7-12.7,70.7l14.5,4.8l15-4.9C196.1,188.6,195.6,120.7,179.4,118.1z"/>
		<path class="st12" d="M178.5,118c-0.5,0-1,0.1-1.4,0.2c1,2.8,2.8,9.6,3.8,23.9c1.1,15.8,0.2,40.5-0.2,51.2l0.5,0.2l0.9-0.3
			c0.4-10.8,1.2-35.4,0.2-51.2C181.3,128,179.6,121.1,178.5,118z"/>
		<path class="st12" d="M180.4,131.4l-9.9-3.2c-0.1,0.4-0.3,0.9-0.4,1.4l10.7,3.5l6.6-6.3c-0.2-0.5-0.4-0.9-0.6-1.4L180.4,131.4z"/>
		<path class="st12" d="M181.9,177.4l-15.6-4.9c0,0.5,0,1,0,1.5l15.5,4.8l13.9-2.9c0-0.5,0-1-0.1-1.4L181.9,177.4z"/>
		<path class="st12" d="M179.4,123.7l-5.3-3.1c-0.3,0.4-0.6,0.8-0.8,1.2l6.6,3.9l3.3-5.5c-0.4-0.3-0.7-0.6-1.1-0.9L179.4,123.7z"/>
		<path class="st12" d="M181.6,186.1l-15.1-4c0,0.5,0,1,0,1.5l15.1,4L196,183c0-0.5,0-1-0.1-1.5L181.6,186.1z"/>
		<path class="st12" d="M182.1,158.1l-15.2-5.3l-0.1,1.5l15.2,5.3l0.2-0.1l11.7-3.8l-0.2-1.4L182.1,158.1z"/>
		<path class="st12" d="M181.3,139.5l-12.5-4.2l-0.2,1.4l12.9,4.4l8.9-5.6l-0.4-1.4L181.3,139.5z"/>
		<path class="st12" d="M182,167.6l-15.5-4.8c0,0.5,0,1,0,1.5l15.5,4.8l13-3.9l-0.1-1.4L182,167.6z"/>
		<path class="st12" d="M181.8,148.4l-14.2-3.8l-0.1,1.4l14.6,4l10.4-5.4c-0.1-0.5-0.2-1-0.3-1.5L181.8,148.4z"/>
		<path class="st13" d="M195.9,178.3L195.9,178.3c0-0.5,0-0.9-0.1-1.4c0,0,0,0,0-0.1c-0.1-1.4-0.1-2.8-0.2-4.4l0,0
			c0-0.5,0-1-0.1-1.5h0.1c0-0.5,0-1.1,0-1.6l0,0c-0.3-1.7-0.4-3.3-0.5-5h-0.1c-0.1-0.6-0.1-1.1-0.2-1.7l0,0
			c-0.1-1.8-0.3-3.5-0.6-5.3l0,0c-1.1-2.1-2.4-3.5-4.1-3.6c-7.8-0.6-6.3,28.4-6.3,28.4l8.4,0.6c-0.2,1.4-1.5,7.5-6.4,9.3l3.6-1.2
			c2-2.2,3.3-5.1,3.6-8.1h0.3l2.8-0.9l0,0c0-0.7,0-1.5,0-2.4h0.1C195.9,179.2,195.9,178.8,195.9,178.3z"/>
		<path class="st14" d="M194.5,180.9c0,0.1,0.6,6.6-3.2,11c-2.3,2.6-5.7,4-10.2,4.1v1.1c4.8-0.1,8.5-1.6,11-4.4
			c4.2-4.8,3.5-11.5,3.5-11.8L194.5,180.9z"/>
		<path class="st15" d="M192.9,152.4c-7.8-0.6-6.4,28.4-6.4,28.4l9.5,0.7l5.9-1.9C201.9,179.6,200.6,153,192.9,152.4z"/>
		<path class="st12" d="M191.6,152.5c0.9,4.9,3.1,18.6,2.9,28.8l1.1,0.1c0.3-10.3-2-24.1-2.9-29.1
			C192.3,152.3,192,152.4,191.6,152.5z"/>
		<path class="st12" d="M195.1,176.6l-8.7-2.6c0,0.4,0,0.8,0,1.1l8.7,2.6l6.4-2.8c0-0.4-0.1-0.7-0.1-1.1L195.1,176.6z"/>
		<path class="st12" d="M194.6,169.7l-7.9-2.7c0,0.4-0.1,0.7-0.1,1.1l8,2.7l5.9-3c-0.1-0.4-0.1-0.7-0.2-1.1L194.6,169.7z"/>
		<path class="st12" d="M192.9,157.3l-3.9-1.6c-0.1,0.3-0.3,0.6-0.4,1l4.8,1.9l2.8-4.2c-0.2-0.3-0.5-0.6-0.8-0.8L192.9,157.3z"/>
		<path class="st12" d="M193.9,163.6l-6.4-2.7c-0.1,0.4-0.1,0.7-0.2,1.1l6.8,2.9l5-4c-0.1-0.4-0.2-0.7-0.4-1.1L193.9,163.6z"/>
		<g>
			<path class="st16" d="M215,209.7L215,209.7c-2.7-0.1-3.4-3.8-3.4-3.9h-0.4h-0.4c0,0.5,1,4.5,4.2,4.7c0,0,0.1,0.1,0.2,0.1
				c3.2,0,4.5-4.3,4.6-4.5l-0.8-0.2C219,205.9,217.6,209.7,215,209.7z"/>
			<path class="st16" d="M215.2,207.8v-0.1h-0.8v0.1c-0.1,2.4-0.1,4.9,0.1,7.3h1.2C215.4,212.7,215.2,210.2,215.2,207.8z"/>
			<path class="st17" d="M216.1,169.1c-7.5,0.9-9.1,23.7-9.6,35.6l7.8,3.3h1l9.3-3C224.8,192.6,224,168.1,216.1,169.1z"/>
			<path class="st18" d="M216.2,169.1c-1.3,11.3-1.7,28.2-1.7,38.8h0.8c0-10.7,0.4-27.5,1.7-38.8
				C216.7,169.1,216.4,169.1,216.2,169.1z"/>
			<path class="st18" d="M215.6,181l-5.1-4.8l-0.3,0.8l5.2,5l7.1-3.6c0-0.3-0.1-0.5-0.2-0.8L215.6,181z"/>
			<path class="st18" d="M216,174.5c-0.7-0.9-1.9-2.6-2.8-3.7c-0.2,0.2-0.3,0.4-0.5,0.7c0.8,1,1.9,2.5,2.9,3.9l0.2,0.3l4.6-3.5
				c-0.1-0.3-0.3-0.5-0.4-0.7L216,174.5z"/>
			<path class="st18" d="M215.2,188l-6.6-4.2l-0.2,0.8l6.7,4.3l8.5-4.2c0-0.3-0.1-0.6-0.1-0.8L215.2,188z"/>
			<path class="st18" d="M215,195.3l-7.5-3.6c0,0.3-0.1,0.6-0.1,0.8l7.6,3.6l9.5-3.5c0-0.3,0-0.6-0.1-0.8L215,195.3z"/>
			<path class="st18" d="M214.8,203.8l-8-4.4c0,0.3,0,0.6,0,0.9l8,4.4l10-4c0-0.3,0-0.6,0-0.9L214.8,203.8z"/>
		</g>
		<polygon class="st15" points="252.4,215.1 -20.5,214.9 -20.5,250 322.8,250 322.8,214.9 277,215 		"/>
		<path class="st19" d="M292,232.1c0-3.5,3-7,6.7-6.8c2.7,0,5-2.3,5-5c0.1-2.9-2.1-5.3-4.9-5.5l-160.1,0.8c-0.1,0.3-0.1,0.7-0.1,1
			c-0.1,4.6,3.6,8.5,8.2,8.7h4.7c3.7,0.1,6.5,3.2,6.4,6.9c-0.1,3.5-2.9,6.2-6.4,6.4H-20.5V250h343.3v-11.4h-23.6
			C295.4,238.6,292,235.9,292,232.1z"/>
		<path class="st20" d="M151.6,238.6H-20.5V250h343.3v-11.4H151.6z"/>
		<rect x="-20.5" y="241.8" class="st21" width="343.3" height="8.2"/>
		<polygon class="st22" points="125.5,118.5 172.3,118.4 149.6,90.2 		"/>
		<g class="st4">
			<path class="st23" d="M277.6,215h-4.8l-20.5,0.1L17.4,215c-0.9,0-1.7,0.7-1.7,1.7c0,0.9,0.7,1.5,1.6,1.5c0,0,0,0,0,0h213
				c0.9,0,1.6,0.7,1.6,1.6c0,0.9-0.7,1.6-1.6,1.6h-2.8c-0.6,0-1.2,0.3-1.5,0.7c-0.2,0.3-0.4,0.6-0.3,1c0.1,0.8,0.8,1.5,1.7,1.5h32.8
				c0.8,0,1.5-0.6,1.6-1.4c0.1-0.5-0.1-1.1-0.6-1.4c-0.3-0.3-0.8-0.4-1.2-0.4h-7.7c-0.9,0-1.6-0.7-1.6-1.6c0-0.9,0.7-1.6,1.6-1.6
				h25.5c0.9,0,1.6-0.7,1.6-1.5c0-0.2,0-0.3-0.1-0.5C279,215.4,278.3,215,277.6,215z"/>
		</g>
		<path class="st14" d="M28.5,200.3H27c-0.4,5.4-0.4,10.9,0.2,16.3h2.2C28.7,211.2,28.4,205.7,28.5,200.3z"/>
		<rect x="34.6" y="117.9" class="st24" width="49.9" height="94.3"/>
		<rect x="166.2" y="118.3" class="st22" width="5.4" height="2.5"/>
		<rect x="84.5" y="117.9" class="st25" width="83.3" height="94.3"/>
		<rect x="32.7" y="208" class="st26" width="51.8" height="8.4"/>
		<rect x="82.5" y="208" class="st27" width="38.1" height="8.4"/>
		<rect x="167.9" y="208" class="st26" width="14.2" height="8.4"/>
		<rect x="116.1" y="117.9" class="st24" width="6.7" height="98.5"/>
		<polygon class="st28" points="67.7,90 36.5,118.4 166.4,118.4 139.5,90.2 		"/>
		<polygon class="st29" points="30.3,118.4 86.3,118.4 67.7,90 		"/>
		<polygon class="st25" points="122.8,117.9 122.8,212.2 167.9,212.2 167.9,117.9 146.1,90.8 		"/>
		<rect x="156.3" y="208" class="st27" width="11.7" height="8.4"/>
		<rect x="122.6" y="208" class="st27" width="11.7" height="8.4"/>
		<rect x="138.6" y="173.1" class="st30" width="18.8" height="43.3"/>
		<rect x="140.7" y="173.1" class="st31" width="18.8" height="43.3"/>
		<rect x="142" y="175.3" class="st32" width="16.1" height="40"/>
		<rect x="144.8" y="177.7" class="st32" width="10.7" height="14.7"/>
		<rect x="144.8" y="197.7" class="st32" width="10.7" height="14.7"/>
		<path class="st33" d="M144.7,194.4h3.9c0.2,0,0.4,0.2,0.4,0.4v0.3c0,0.2-0.2,0.4-0.4,0.4h-3.9c-0.2,0-0.4-0.2-0.4-0.4v-0.3
			C144.3,194.6,144.5,194.4,144.7,194.4z"/>
		<rect x="163.5" y="174.4" class="st34" width="12.5" height="2.9"/>
		<rect x="116.1" y="208" class="st26" width="6.7" height="8.4"/>
		<polygon class="st35" points="122.8,118.1 122.7,118.1 122.7,118.6 34.6,118.6 34.6,124.7 127,124.7 148.9,100.1 167.9,124.5 
			167.9,117.9 146.1,90.8 		"/>
		<g class="st4">
			<rect x="58.2" y="208.4" class="st36" width="5.4" height="2.3"/>
			<rect x="55.7" y="211.1" class="st36" width="5.4" height="2.2"/>
			<rect x="58.2" y="213.6" class="st36" width="5.4" height="2.3"/>
			<rect x="52.2" y="208.4" class="st36" width="5.4" height="2.3"/>
			<rect x="49.7" y="211.1" class="st36" width="5.4" height="2.2"/>
			<rect x="52.2" y="213.6" class="st36" width="5.4" height="2.3"/>
			<rect x="46.2" y="208.4" class="st36" width="5.4" height="2.3"/>
			<rect x="43.6" y="211.1" class="st36" width="5.4" height="2.2"/>
			<rect x="46.2" y="213.6" class="st36" width="5.4" height="2.3"/>
			<rect x="40.2" y="208.4" class="st36" width="5.4" height="2.3"/>
			<rect x="37.6" y="211.1" class="st36" width="5.4" height="2.2"/>
			<rect x="40.2" y="213.6" class="st36" width="5.4" height="2.3"/>
			<rect x="82.2" y="208.4" class="st36" width="5.4" height="2.3"/>
			<rect x="79.6" y="211.1" class="st36" width="5.4" height="2.2"/>
			<rect x="82.2" y="213.6" class="st36" width="5.4" height="2.3"/>
			<rect x="76.2" y="208.4" class="st36" width="5.4" height="2.3"/>
			<rect x="73.6" y="211.1" class="st36" width="5.4" height="2.2"/>
			<rect x="76.2" y="213.6" class="st36" width="5.4" height="2.3"/>
			<rect x="70.2" y="208.4" class="st36" width="5.4" height="2.3"/>
			<rect x="67.6" y="211.1" class="st36" width="5.4" height="2.2"/>
			<rect x="70.2" y="213.6" class="st36" width="5.4" height="2.3"/>
			<rect x="64.1" y="208.4" class="st36" width="5.4" height="2.3"/>
			<rect x="61.6" y="211.1" class="st36" width="5.4" height="2.2"/>
			<rect x="64.1" y="213.6" class="st36" width="5.4" height="2.3"/>
			<rect x="34.2" y="208.4" class="st36" width="5.4" height="2.3"/>
			<rect x="32.7" y="211.1" class="st36" width="4.3" height="2.2"/>
			<rect x="34.2" y="213.6" class="st36" width="5.4" height="2.3"/>
			<rect x="32.7" y="208.4" class="st36" width="0.8" height="2.3"/>
			<rect x="32.7" y="213.6" class="st36" width="0.8" height="2.3"/>
			<rect x="112.6" y="208.4" class="st36" width="5.4" height="2.3"/>
			<rect x="110" y="211.1" class="st36" width="5.4" height="2.2"/>
			<rect x="112.6" y="213.6" class="st36" width="5.4" height="2.3"/>
			<rect x="106.6" y="208.4" class="st36" width="5.4" height="2.3"/>
			<rect x="104" y="211.1" class="st36" width="5.4" height="2.2"/>
			<rect x="106.6" y="213.6" class="st36" width="5.4" height="2.3"/>
			<rect x="100.6" y="208.4" class="st36" width="5.4" height="2.3"/>
			<rect x="98" y="211.1" class="st36" width="5.4" height="2.2"/>
			<rect x="100.6" y="213.6" class="st36" width="5.4" height="2.3"/>
			<rect x="94.5" y="208.4" class="st36" width="5.4" height="2.3"/>
			<rect x="92" y="211.1" class="st36" width="5.4" height="2.2"/>
			<rect x="94.5" y="213.6" class="st36" width="5.4" height="2.3"/>
			<rect x="134" y="211.1" class="st36" width="2.4" height="2.2"/>
			<rect x="130.5" y="208.4" class="st36" width="5.4" height="2.3"/>
			<rect x="128" y="211.1" class="st36" width="5.4" height="2.2"/>
			<rect x="130.5" y="213.6" class="st36" width="5.4" height="2.3"/>
			<rect x="124.5" y="208.4" class="st36" width="5.4" height="2.3"/>
			<rect x="121.9" y="211.1" class="st36" width="5.4" height="2.2"/>
			<rect x="124.5" y="213.6" class="st36" width="5.4" height="2.3"/>
			<rect x="118.5" y="208.4" class="st36" width="5.4" height="2.3"/>
			<rect x="115.9" y="211.1" class="st36" width="5.4" height="2.2"/>
			<rect x="118.5" y="213.6" class="st36" width="5.4" height="2.3"/>
			<rect x="88.2" y="208.4" class="st36" width="5.7" height="2.3"/>
			<rect x="85.7" y="211.1" class="st36" width="5.6" height="2.2"/>
			<rect x="88.2" y="213.6" class="st36" width="5.7" height="2.3"/>
			<rect x="160.7" y="208.4" class="st36" width="5.4" height="2.3"/>
			<rect x="160.2" y="211.1" class="st36" width="3.3" height="2.2"/>
			<rect x="160.7" y="213.6" class="st36" width="5.4" height="2.3"/>
			<rect x="176.1" y="211.1" class="st36" width="5.4" height="2.2"/>
			<rect x="172.6" y="208.4" class="st36" width="5.4" height="2.3"/>
			<rect x="170" y="211.1" class="st36" width="5.4" height="2.2"/>
			<rect x="172.6" y="213.6" class="st36" width="5.4" height="2.3"/>
			<rect x="166.6" y="208.4" class="st36" width="5.4" height="2.3"/>
			<rect x="164" y="211.1" class="st36" width="5.4" height="2.2"/>
			<rect x="166.6" y="213.6" class="st36" width="5.4" height="2.3"/>
		</g>
		<polygon class="st29" points="116.6,118.4 125.5,118.4 149.6,90.2 97,90.1 		"/>
		<rect x="123.6" y="195.3" class="st34" width="12.5" height="2.9"/>
		<polygon class="st37" points="125.1,118.4 125.1,120.4 125.9,121.5 149.6,93.8 149.6,90.2 125.5,118.4 		"/>
		<rect x="123.6" y="213.6" class="st34" width="12.5" height="2.9"/>
		<rect x="126" y="197.9" class="st34" width="1.5" height="16.1"/>
		<rect x="130" y="197.9" class="st34" width="1.5" height="16.1"/>
		<rect x="163.5" y="213.6" class="st34" width="12.5" height="2.9"/>
		<polygon class="st35" points="122.8,161.5 113.4,182.1 168,182.1 180.9,171.5 180.7,168.1 		"/>
		<rect x="165.9" y="197.9" class="st34" width="1.5" height="16.1"/>
		<rect x="169.9" y="197.9" class="st34" width="1.5" height="16.1"/>
		<rect x="123.6" y="174.4" class="st34" width="12.5" height="2.9"/>
		<polygon class="st37" points="149.1,93.3 171.6,120.8 172.6,118.4 149.6,90.2 		"/>
		<polygon class="st38" points="134.3,216.4 138.6,216.4 138.6,170.7 134.3,169.6 		"/>
		<polygon class="st39" points="122.8,161.5 136.1,168.1 182,168.1 167.9,161.5 		"/>
		<rect x="137.1" y="170.7" class="st40" width="4.3" height="45.7"/>
		<rect x="163.5" y="195.3" class="st34" width="12.5" height="2.9"/>
		<rect x="159.5" y="208" class="st26" width="1.1" height="8.4"/>
		<polygon class="st35" points="134.3,169.4 134.3,175.8 137,173.6 141.3,173.6 141.3,170.6 138.6,170.6 		"/>
		<polygon class="st38" points="173.9,216.4 178.1,216.4 178.1,170.7 173.9,169.6 		"/>
		<rect x="176.6" y="170.7" class="st40" width="4.3" height="45.7"/>
		<rect x="30.3" y="118.4" class="st40" width="86.2" height="3.1"/>
		<polygon class="st35" points="173.9,169.4 173.9,175.8 176.5,173.6 180.9,173.6 180.9,170.6 178.1,170.6 		"/>
		<rect x="136.1" y="168.1" class="st40" width="45.9" height="3.1"/>
		<rect x="30.3" y="118.4" class="st41" width="56" height="3.1"/>
		<polygon class="st41" points="116.5,118.4 116.5,121.5 125.9,121.5 125.5,118.4 		"/>
		<polygon class="st38" points="122.8,164.6 136.1,171.2 136.1,168.1 122.8,161.5 		"/>
		<rect x="131" y="127" class="st40" width="29.2" height="24.5"/>
		<rect x="133.1" y="127" class="st37" width="29.2" height="24.5"/>
		<rect x="136.4" y="130.2" class="st42" width="21.1" height="18"/>
		<rect x="157.4" y="130.2" class="st40" width="1.6" height="18"/>
		<rect x="91.7" y="127" class="st40" width="17.3" height="24.8"/>
		<rect x="93.7" y="127" class="st37" width="17.3" height="24.8"/>
		<rect x="96.8" y="130" class="st42" width="9.9" height="18.9"/>
		<rect x="106.5" y="130" class="st40" width="1.4" height="18.9"/>
		<rect x="48.5" y="127" class="st43" width="23.2" height="24.8"/>
		<rect x="46.6" y="127" class="st44" width="23.2" height="24.8"/>
		<rect x="50.9" y="130" class="st45" width="15.8" height="18.9"/>
		<rect x="49.6" y="130" class="st40" width="1.5" height="18.9"/>
		<polygon class="st46" points="97.4,90.7 98,90.1 97,90.1 		"/>
		<polygon class="st46" points="98.4,92.1 99,92.9 101.4,90.2 100.1,90.2 		"/>
		<polygon class="st46" points="99.9,94.3 100.5,95.1 104.8,90.2 103.5,90.2 		"/>
		<polygon class="st46" points="101.4,96.5 102,97.3 108.2,90.2 106.9,90.2 		"/>
		<polygon class="st46" points="103,98.7 103.6,99.5 111.7,90.2 110.4,90.2 		"/>
		<polygon class="st46" points="104.5,100.9 105.1,101.7 115.1,90.2 113.8,90.2 		"/>
		<polygon class="st46" points="106,103.1 106.6,103.9 118.6,90.2 117.2,90.2 		"/>
		<polygon class="st46" points="107.6,105.3 108.1,106.2 122,90.2 120.7,90.2 		"/>
		<polygon class="st46" points="109.1,107.6 109.7,108.4 125.6,90.2 124.3,90.2 		"/>
		<polygon class="st46" points="110.7,109.9 111.3,110.7 129.1,90.2 127.8,90.2 		"/>
		<polygon class="st46" points="112.3,112.2 112.9,113 132.7,90.2 131.4,90.2 		"/>
		<polygon class="st46" points="113.9,114.5 114.5,115.3 136.3,90.2 135,90.2 		"/>
		<polygon class="st46" points="115.5,116.8 116.1,117.6 139.8,90.2 138.5,90.2 		"/>
		<polygon class="st46" points="117.6,118.4 118.9,118.4 143.4,90.2 142.1,90.2 		"/>
		<polygon class="st46" points="121.2,118.4 122.5,118.4 147,90.2 145.7,90.2 		"/>
		<polygon class="st46" points="31.1,118.4 32.4,118.4 36.3,113.8 32.6,116.7 		"/>
		<polygon class="st46" points="34.5,118.4 35.8,118.4 46.4,106.2 42.6,109.1 		"/>
		<polygon class="st46" points="38,118.4 39.2,118.4 56.4,98.7 52.6,101.5 		"/>
		<polygon class="st46" points="41.4,118.4 42.7,118.4 66.4,91.1 62.6,93.9 		"/>
		<polygon class="st46" points="44.8,118.4 46.1,118.4 69,92 68.4,91.1 		"/>
		<polygon class="st46" points="48.3,118.4 49.6,118.4 70.5,94.2 69.9,93.4 		"/>
		<polygon class="st46" points="51.7,118.4 53,118.4 72,96.5 71.4,95.7 		"/>
		<polygon class="st46" points="55.1,118.4 56.4,118.4 73.4,98.8 72.9,97.9 		"/>
		<polygon class="st46" points="58.6,118.4 59.9,118.4 74.9,101 74.4,100.2 		"/>
		<polygon class="st46" points="62.2,118.4 63.5,118.4 76.5,103.4 75.9,102.5 		"/>
		<polygon class="st46" points="65.7,118.4 67,118.4 78,105.7 77.4,104.9 		"/>
		<polygon class="st46" points="69.3,118.4 70.6,118.4 79.5,108.1 79,107.2 		"/>
		<polygon class="st46" points="72.8,118.4 74.2,118.4 81.1,110.4 80.5,109.6 		"/>
		<polygon class="st46" points="76.4,118.4 77.7,118.4 82.6,112.8 82.1,111.9 		"/>
		<polygon class="st46" points="80,118.4 81.3,118.4 84.1,115.1 83.6,114.2 		"/>
		<polygon class="st46" points="83.6,118.4 84.9,118.4 85.7,117.5 85.1,116.6 		"/>
		<g class="st4">
			<polygon class="st37" points="127.7,161.5 141,168.1 143.2,168.1 129.9,161.5 			"/>
			<polygon class="st37" points="133.5,161.5 146.8,168.1 149,168.1 135.7,161.5 			"/>
			<polygon class="st37" points="139.3,161.5 152.6,168.1 154.8,168.1 141.5,161.5 			"/>
			<polygon class="st37" points="145.1,161.5 158.3,168.1 160.6,168.1 147.3,161.5 			"/>
			<polygon class="st37" points="151.1,161.5 164.4,168.1 166.6,168.1 153.3,161.5 			"/>
			<polygon class="st37" points="157.1,161.5 170.4,168.1 172.6,168.1 159.3,161.5 			"/>
			<polygon class="st37" points="163.1,161.5 176.4,168.1 178.6,168.1 165.3,161.5 			"/>
		</g>
		<g class="st4">
			<polygon class="st37" points="69.2,90 88.4,118.4 89.6,118.4 70.4,90 			"/>
			<polygon class="st37" points="72.4,90 91.6,118.4 92.8,118.4 73.6,90 			"/>
			<polygon class="st37" points="75.5,90.1 94.7,118.4 95.9,118.4 76.7,90.1 			"/>
			<polygon class="st37" points="78.7,90.1 97.9,118.4 99.1,118.4 79.9,90.1 			"/>
			<polygon class="st37" points="81.8,90.1 101,118.4 102.2,118.4 83,90.1 			"/>
			<polygon class="st37" points="85,90.1 104.2,118.4 105.3,118.4 86.2,90.1 			"/>
			<polygon class="st37" points="88.1,90.1 107.3,118.4 108.5,118.4 89.3,90.1 			"/>
			<polygon class="st37" points="91.3,90.1 110.5,118.4 111.7,118.4 92.5,90.1 			"/>
			<polygon class="st37" points="94.4,90.1 113.6,118.4 114.8,118.4 95.6,90.1 			"/>
		</g>
		<polygon class="st47" points="51.6,141.4 51.6,148.3 59.2,148.3 66.3,139.4 66.3,130.4 60.3,130.4 		"/>
		<rect x="48.5" y="171.6" class="st43" width="23.2" height="24.9"/>
		<rect x="46.6" y="171.6" class="st44" width="23.2" height="24.9"/>
		<rect x="50.9" y="174.6" class="st45" width="15.8" height="18.9"/>
		<rect x="49.6" y="174.6" class="st40" width="1.5" height="18.9"/>
		<polygon class="st47" points="51.6,186 51.6,192.9 59.2,192.9 66.3,184 66.3,175 60.3,175 		"/>
		<polygon class="st47" points="97.1,130.3 97.1,142.6 101.8,148.4 106,148.4 106,137.2 100.6,130.3 		"/>
		<rect x="91.7" y="171.5" class="st40" width="17.3" height="24.9"/>
		<rect x="93.7" y="171.5" class="st37" width="17.3" height="24.9"/>
		<rect x="96.8" y="174.5" class="st42" width="9.9" height="18.9"/>
		<rect x="106.5" y="174.5" class="st40" width="1.4" height="18.9"/>
		<polygon class="st47" points="97.1,174.8 97.1,187.1 101.8,192.9 106,192.9 106,181.7 100.6,174.8 		"/>
		<polygon class="st47" points="136.9,130.6 136.9,138.1 145,147.9 156.9,147.9 156.9,144.7 146.2,130.6 		"/>
		<rect x="85.8" y="158.5" class="st48" width="7.5" height="2.6"/>
		<rect x="91" y="155.4" class="st48" width="7.6" height="2.6"/>
		<rect x="86.3" y="130.5" class="st48" width="3.2" height="2.6"/>
		<rect x="91.1" y="161.6" class="st48" width="5" height="2.6"/>
		<rect x="104.8" y="162.3" class="st48" width="5.4" height="2.6"/>
		<rect x="108" y="159.2" class="st48" width="5.5" height="2.6"/>
		<rect x="109.7" y="165.4" class="st48" width="3.3" height="2.6"/>
		<rect x="141.3" y="112.5" class="st48" width="7.5" height="2.6"/>
		<rect x="146.5" y="109.4" class="st48" width="7.6" height="2.6"/>
		<rect x="146.6" y="115.6" class="st48" width="5" height="2.6"/>
		<rect x="132.9" y="157.2" class="st48" width="7.5" height="2.6"/>
		<rect x="138.1" y="154.1" class="st48" width="7.6" height="2.6"/>
		<rect x="124.1" y="132.2" class="st48" width="3.7" height="2.6"/>
		<rect x="126.1" y="129.2" class="st48" width="3.8" height="2.6"/>
		<rect x="138.1" y="123" class="st48" width="7.5" height="2.6"/>
		<rect x="140.1" y="119.9" class="st48" width="3.8" height="2.6"/>
		<rect x="163.4" y="135.3" class="st48" width="3.2" height="2.6"/>
		<rect x="124.1" y="143.5" class="st48" width="3.8" height="2.6"/>
		<rect x="85.6" y="182.6" class="st48" width="3.9" height="2.6"/>
		<rect x="38.2" y="203.6" class="st49" width="7.5" height="2.6"/>
		<rect x="43.4" y="200.5" class="st49" width="7.6" height="2.6"/>
		<rect x="39.1" y="162.9" class="st49" width="6.8" height="2.6"/>
		<rect x="43.7" y="159.8" class="st49" width="7.6" height="2.6"/>
		<rect x="42.3" y="165.9" class="st49" width="6.5" height="2.6"/>
		<rect x="58.6" y="165.9" class="st49" width="4.9" height="2.6"/>
		<rect x="35.5" y="177.7" class="st50" width="6.2" height="2.6"/>
		<rect x="36.3" y="183.9" class="st50" width="2.9" height="2.6"/>
		<rect x="74.1" y="188.7" class="st49" width="6.1" height="2.6"/>
		<rect x="76.6" y="191.8" class="st49" width="6.5" height="2.6"/>
		<rect x="74.4" y="138.4" class="st49" width="4.9" height="2.6"/>
		<rect x="77.6" y="135.3" class="st49" width="6" height="2.6"/>
		<rect x="76.1" y="141.5" class="st49" width="5" height="2.6"/>
		<rect x="72" y="165.1" class="st49" width="5.5" height="2.6"/>
		<rect x="75.3" y="168.1" class="st49" width="7.1" height="2.6"/>
		<rect x="61.1" y="155.4" class="st49" width="7.5" height="2.6"/>
		<rect x="36.8" y="150.2" class="st50" width="2.5" height="2.6"/>
		<rect x="36.3" y="192.2" class="st50" width="3.7" height="2.6"/>
		<rect x="66.3" y="158.5" class="st49" width="5" height="2.6"/>
		<rect x="35.7" y="135.3" class="st50" width="3.4" height="2.6"/>
		<rect x="36.8" y="132.2" class="st49" width="6.6" height="2.6"/>
		<rect x="36.8" y="138.4" class="st49" width="5" height="2.6"/>
		<rect x="74" y="125.9" class="st49" width="5" height="2.6"/>
		<rect x="123.5" y="185.7" class="st48" width="7.5" height="2.6"/>
		<rect x="128.7" y="182.6" class="st48" width="3.8" height="2.6"/>
		<rect x="128.7" y="188.7" class="st48" width="3.4" height="2.6"/>
		<rect x="161.4" y="186.5" class="st48" width="4.5" height="2.6"/>
		<rect x="163.6" y="183.4" class="st48" width="2.9" height="2.6"/>
		<rect x="151" y="156.7" class="st48" width="7.5" height="2.6"/>
		<rect x="156.2" y="153.6" class="st48" width="7.6" height="2.6"/>
		<rect x="88" y="203.6" class="st48" width="7.5" height="2.6"/>
		<rect x="107.7" y="203.6" class="st48" width="3.1" height="2.6"/>
		<rect x="93.2" y="200.5" class="st48" width="7.6" height="2.6"/>
		<rect x="62.6" y="203.8" class="st49" width="4.2" height="2.6"/>
		<rect x="63.5" y="200.7" class="st49" width="7.6" height="2.6"/>
		<path class="st35" d="M45.8,173.8c0-3.1-0.1-6.2-0.3-9.4l1.8-0.9c0,0,1-8.9-2.7-11.3c-1.4-13.2-4.3-24.3-10-25.1v74.2l10.8-3.4
			c0,0,0.1-2,0.2-5.3l3.2-1.5C48.8,191.1,49.9,176.7,45.8,173.8z"/>
		<path class="st11" d="M30.3,125.7C14,128.1,13,196.1,13,196.1l15,5l14.5-4.6C42.5,196.4,46.6,123.2,30.3,125.7z"/>
		<path class="st12" d="M27.2,149.6c-1.2,15.8-0.6,40.4-0.2,51.2l0.9,0.3l0.5-0.2c-0.4-10.7-1-35.4,0.2-51.2c1.1-14.3,3-21.1,4-23.9
			c-0.5-0.2-0.9-0.2-1.4-0.2C30.1,128.6,28.3,135.6,27.2,149.6z"/>
		<path class="st12" d="M29.1,138.9l-6.3-6.1c-0.2,0.4-0.4,0.9-0.7,1.4l6.6,6.4l10.7-3.4c-0.1-0.5-0.2-0.9-0.4-1.4L29.1,138.9z"/>
		<path class="st12" d="M13.6,182l-0.1,1.4l13.9,3l15.5-4.7c0-0.5,0-1,0-1.5L27.3,185L13.6,182z"/>
		<path class="st12" d="M30.2,131.2l-2.7-4.5c-0.4,0.3-0.8,0.6-1.1,0.9l3.3,5.5l6.7-3.9c-0.3-0.4-0.5-0.8-0.8-1.2L30.2,131.2z"/>
		<path class="st12" d="M13.2,188.9c0,0.5,0,1-0.1,1.5l14.4,4.8l15.2-3.9c0-0.5,0-1,0-1.5l-15.2,3.9L13.2,188.9z"/>
		<path class="st12" d="M27.3,165.6l-11.8-3.9c-0.1,0.5-0.1,1-0.2,1.4l11.7,3.9l0.2,0.1l15.3-5.1c0-0.5,0-1-0.1-1.5L27.3,165.6z"/>
		<path class="st12" d="M28.2,147.1l-8.7-5.5c-0.1,0.5-0.3,0.9-0.4,1.4l8.9,5.6l12.9-4.3l-0.2-1.4L28.2,147.1z"/>
		<path class="st12" d="M27.3,175.1l-12.9-3.9c0,0.5-0.1,1-0.1,1.4l13,4l15.6-4.7v-1.5L27.3,175.1z"/>
		<path class="st12" d="M27.6,156l-10.3-5.4c-0.1,0.5-0.2,1-0.3,1.5l10.4,5.4l14.5-3.9c0-0.5-0.1-1-0.1-1.4L27.6,156z"/>
		<path class="st13" d="M36.2,151.6c-6.6,1.3-6,12.7-6,12.7l7,1.3c-0.3,0.8-1.1,2.7-2.5,3l0.3,0.7c1.9-0.4,3.2-2.1,3.2-4l4.6-2
			c-0.1-2.1-0.2-4.2-0.4-6.3C41.3,153.9,39.5,151,36.2,151.6z"/>
		<path class="st13" d="M19.5,161.2c-1.7,0.1-3.1,1.5-4.2,3.6l0,0c-0.4,1.8-0.5,3.6-0.6,5.3l0,0c-0.1,0.6-0.1,1.1-0.2,1.7h-0.1
			c-0.1,1.7-0.2,3.3-0.5,5l0,0c0,0.5,0,1.1-0.1,1.6l0,0c0,0.5-0.1,1-0.1,1.5l0,0c-0.1,1.5-0.2,3-0.3,4.4l0,0c0,0.4,0,0.9-0.1,1.3
			v0.1c0,0.4,0,0.8-0.1,1.2c-0.1,0.6,0,0,0,0c0,0.8-0.1,1.6-0.1,2.4l0,0l2.9,0.9h0.3c0.3,3,1.5,5.9,3.6,8.1l3.6,1.2
			c-5-1.8-6.1-7.9-6.4-9.4l8.4-0.5C25.6,189.5,27.2,160.7,19.5,161.2z"/>
		<path class="st14" d="M17.8,199.4c-3.8-4.4-3.1-10.9-3.1-11l-1.1-0.1c0,0.3-0.8,7,3.4,11.8c2.5,2.9,6.1,4.4,10.9,4.5v-1.1
			C23.5,203.4,20.1,202,17.8,199.4z"/>
		<path class="st15" d="M16.5,159.8C8.8,160.3,7.3,187,7.3,187l5.9,1.9l9.5-0.6C22.7,188.3,24.3,159.3,16.5,159.8z"/>
		<path class="st13" d="M42.7,192.4L42.7,192.4L42.7,192.4z"/>
		<path class="st13" d="M42.8,192.4L42.8,192.4L42.8,192.4z"/>
		<path class="st13" d="M42.8,182.6L42.8,182.6c0-0.6,0.1-1.2,0.1-1.8c0,0,0,0,0-0.1c0-0.3,0-0.6,0-0.9l0,0
			c-0.7-3.4-2.5-6.1-4.8-5.6c-5.9,1.1-6.7,18.4-6.7,18.4l6.5,1.3c-0.6,2.2-2,4.1-3.9,5.4l2.7-0.9c0.3-0.3,0.6-0.7,0.8-1.1
			c0.6-1.1,1.1-2.3,1.3-3.6l3.9-1.2l0,0c0-0.2,0.1-1.4,0.1-1.9l0,0c0-0.2,0-0.4,0-0.6v-0.1c0-0.4,0-0.9,0-1.4v-0.1
			c0-0.2,0-0.4,0-0.7v-0.1c0-0.5,0-1,0-1.6V186c0-0.3,0-0.5,0-0.8l0,0c0-0.6,0-1.1,0-1.7c0-0.9,0,0,0-0.1
			C42.8,183.2,42.8,182.9,42.8,182.6z"/>
		<path class="st15" d="M38.7,150.2c-6.6,1.3-6,12.7-6,12.7l7.2,1.3l6-2.7C45.8,161.5,45.2,148.9,38.7,150.2z"/>
		<path class="st15" d="M40.9,172c-5.9,1.1-6.7,18.4-6.7,18.4l6.7,1.3l6.7-2.1C47.6,189.6,46.8,170.9,40.9,172z"/>
		<path class="st12" d="M16.7,159.8c-0.9,5-3.3,18.7-3.1,29.1l1.1-0.1c-0.2-10.2,2.2-23.9,3.1-28.8
			C17.4,159.9,17.1,159.8,16.7,159.8z"/>
		<path class="st31" d="M39.1,163.8c0,1.3-0.4,2.5-1.2,3.5c-0.9,0.9-2.1,1.3-3.3,1.2v1.1c1.5,0.1,3-0.5,4.1-1.6
			c1-1.2,1.5-2.8,1.4-4.4L39.1,163.8z"/>
		<path class="st12" d="M14.2,184.1l-6.3-2.8c0,0.4-0.1,0.8-0.1,1.1l6.4,2.8l8.8-2.6v-1.1L14.2,184.1z"/>
		<path class="st12" d="M14.7,177.1l-5.8-3c-0.1,0.4-0.1,0.7-0.2,1.1l5.9,3l8-2.7c0-0.4,0-0.7-0.1-1.1L14.7,177.1z"/>
		<path class="st12" d="M16.5,164.7l-2.4-3.7c-0.3,0.3-0.5,0.5-0.8,0.8l2.7,4.2l4.8-1.9c-0.1-0.4-0.2-0.7-0.4-1L16.5,164.7z"/>
		<path class="st12" d="M15.4,171.1l-4.8-3.9c-0.1,0.4-0.2,0.7-0.4,1.1l4.9,4.1l6.8-2.8l-0.2-1.1L15.4,171.1z"/>
		<path class="st14" d="M28.2,201.4l-0.1,1.1c0.5,0,0.9,0,1.3,0c11,0,12.6-11.2,12.6-11.3l-1-0.1C41,191.6,39.4,202.3,28.2,201.4z"
			/>
		<path class="st35" d="M128.8,208.5c0-0.2,0-0.4,0-0.6l0,0c-0.2-9.7-1.3-23.7-6.5-23.2l0,0c-4.9,0.6-6.4,13.5-7,22.8l0,0
			c0,0.2,0,0.4,0,0.7l0,0c-0.1,1.2-0.1,2.3-0.1,3.3l3.2,1.3c0.2,0.9,1,2.7,2.7,3c0,0.6,1.7,1.7,3.7,1.8l0.4-0.5
			c-0.8-0.1-3.4-0.6-3.5-1.1c1.8-0.1,2.8-2.1,3.2-3l4-1.3c0-1,0-2.1,0-3.2L128.8,208.5z M121,215.2c-1-0.3-1.7-1.1-2-2.1l2,0.8l0,0
			C121,214.2,121,214.7,121,215.2z M121.7,215.3c0-0.6,0-1.1,0-1.4h0.1l2.3-0.7C123.7,214,122.9,215.2,121.7,215.3L121.7,215.3z"/>
		<path class="st12" d="M37.5,150.6c1,4.4,1.6,8.9,1.5,13.4l0.9,0.2l0.2-0.1c0-4.7-0.5-9.3-1.6-13.9
			C38.2,150.3,37.8,150.4,37.5,150.6z"/>
		<path class="st12" d="M44.9,155.8l-5.6,3.4l-6.1-2.1c-0.1,0.4-0.2,0.7-0.2,1.1l6.4,2.3l5.8-3.5c-0.2-0.6-0.3-1.3-0.6-1.9
			L44.9,155.8z"/>
		<path class="st12" d="M42,150.9l-3.3,2.9l-3.2-1.8c-0.2,0.3-0.5,0.5-0.7,0.9l4,2.3l3.9-3.5C42.6,151.4,42.3,151.1,42,150.9z"/>
		<path class="st12" d="M41.5,171.9c-0.2,0-0.4,0-0.6,0c-0.2,0-0.3,0.1-0.5,0.1c0,0.2,0.1,0.5,0.1,0.8c0.5,3.7,1.6,11.8,0.4,18.8
			l1.2-0.4c1.1-7.1,0-15-0.5-18.6C41.6,172.4,41.6,172.2,41.5,171.9z"/>
		<path class="st12" d="M42,182l-5.9-3.4c-0.1,0.4-0.2,0.7-0.3,1.1l6.2,3.5l4.6-2.2c-0.1-0.4-0.1-0.7-0.2-1.1L42,182z"/>
		<path class="st12" d="M41.8,175.9l-3.2-2.5c-0.2,0.3-0.4,0.6-0.6,0.9l3.8,2.9l3.1-2.3c-0.2-0.3-0.3-0.7-0.5-1L41.8,175.9z"/>
		<path class="st12" d="M41.9,187.5l-7.2-2.2c0,0.4-0.1,0.7-0.1,1.1l7.4,2.3l5.4-2.4c0-0.4-0.1-0.7-0.1-1.1L41.9,187.5z"/>
		<path class="st16" d="M125.1,213.6L125.1,213.6c-2.1-0.1-2.7-2.9-2.7-2.9h-0.3h-0.3c0,0.4,0.8,3.4,3.2,3.5c0,0,0.1,0.1,0.1,0.1
			c2.4,0,3.4-3.2,3.5-3.4l-0.6-0.2C128,210.7,127,213.6,125.1,213.6z"/>
		<path class="st16" d="M125.2,212.1L125.2,212.1l-0.6-0.1v0.1c-0.1,1.8-0.1,3.7,0.1,5.5h0.9C125.4,215.8,125.2,214,125.2,212.1z"/>
		<path class="st17" d="M125.9,182.9c-5.7,0.7-6.9,17.9-7.2,26.8l5.9,2.5h0.7l7-2.2C132.4,200.7,131.9,182.2,125.9,182.9z"/>
		<path class="st18" d="M126,182.9c-1,8.5-1.3,21.2-1.3,29.3h0.6c0-8.1,0.3-20.8,1.3-29.3C126.4,182.9,126.2,182.9,126,182.9z"/>
		<path class="st18" d="M125.5,191.9l-3.8-3.6c-0.1,0.2-0.1,0.4-0.2,0.6l3.9,3.7l5.4-2.7l-0.1-0.6L125.5,191.9z"/>
		<path class="st18" d="M125.9,187.1c-0.5-0.7-1.4-1.9-2.1-2.8c-0.1,0.2-0.3,0.3-0.4,0.5c0.6,0.8,1.4,1.9,2.2,2.9l0.2,0.2l3.5-2.6
			c-0.1-0.2-0.2-0.4-0.3-0.5L125.9,187.1z"/>
		<path class="st18" d="M125.2,197.2l-5-3.2l-0.1,0.6l5.1,3.2l6.4-3.2c0-0.2,0-0.4-0.1-0.6L125.2,197.2z"/>
		<path class="st18" d="M125.1,202.7l-5.7-2.7c0,0.2,0,0.4-0.1,0.6l5.7,2.7l7.1-2.6c0-0.2,0-0.4,0-0.6L125.1,202.7z"/>
		<path class="st18" d="M124.9,209.1l-6.1-3.3c0,0.2,0,0.4,0,0.7l6,3.3l7.5-3c0-0.2,0-0.4,0-0.6L124.9,209.1z"/>
		<path class="st51" d="M15.7,216.7L15.7,216.7z"/>
		<path class="st52" d="M45.2,221.5c-10.5,0.9-12.6,24.4-12.6,24.4s0.9-27.7-22-26.1c-14.4,1-25.1,10.5-31.1,17.3V250h79.7
			C57.6,240.7,53.2,220.9,45.2,221.5z"/>
		<path class="st53" d="M46.1,221.6c-0.3,0-0.7,0-1,0c-0.5,0-1.1,0.1-1.6,0.3c1.7,5.3,4.7,16.8,2.3,28.1h2.6
			C50.7,238.5,48,227.2,46.1,221.6z"/>
		<path class="st53" d="M20,221.1c-1.1-0.4-2.3-0.8-3.4-1C9,224.6,1.7,233.3-0.8,250h2.5C4.3,232.9,12.3,224.8,20,221.1z"/>
		<path class="st53" d="M11.8,226.1l-0.6-6.4h-0.6c-0.6,0.1-1.3,0.1-1.9,0.2l0.8,8.8l18.3-1.3c-0.6-0.8-1.2-1.6-1.9-2.4L11.8,226.1z
			"/>
		<path class="st53" d="M48,237.9l-12.4-5.8c-0.3,0.8-0.5,1.6-0.8,2.4l13.3,6.2l7.9-4.5c-0.2-0.8-0.5-1.6-0.8-2.4L48,237.9z"/>
		<path class="st53" d="M46.7,228.1l-7.2-3.3c-0.5,0.7-1,1.4-1.4,2.1l9.2,4.1l5-4.4c-0.4-0.7-0.9-1.4-1.4-2.1L46.7,228.1z"/>
		<path class="st53" d="M47.3,246.6l-14-5.8c-0.2,0.9-0.3,1.8-0.4,2.5l14.2,5.9l11.5-2.4c-0.2-0.8-0.3-1.6-0.5-2.4L47.3,246.6z"/>
		<path class="st53" d="M1.2,246.6l-15.4-15.8c-0.7,0.6-1.3,1.1-1.9,1.7l16.4,16.8l31.9-6.2l0.2,0.1c0-0.8-0.1-1.7-0.3-2.6
			L1.2,246.6z"/>
		<path class="st53" d="M4,237l-5.9-14.1c-0.8,0.3-1.5,0.7-2.3,1.1l6.8,16.1l1.1-0.3c8.1-2.4,21.4-4.7,27.2-5.6
			c-0.2-0.8-0.5-1.6-0.9-2.4C24.2,232.7,12.1,234.8,4,237z"/>
		<path class="st53" d="M32.9,232.5c4.2-5-0.2-9.6-0.2-9.6C27.5,228.9,32.9,232.5,32.9,232.5z"/>
		<path class="st53" d="M60.9,248.8c6.8-0.8,5.4-6.5,5.4-6.5C61,243.3,60.9,248.8,60.9,248.8z"/>
		<path class="st53" d="M60.2,246.5c0,0,1.9-1.1,0-4.7C60.2,241.8,58.2,245.4,60.2,246.5z"/>
		<path class="st54" d="M122.3,226.9H62c-1,0-1.8-0.8-1.8-1.8l0,0c0-1,0.8-1.8,1.8-1.8h60.4c1,0,1.8,0.8,1.8,1.8l0,0
			C124.2,226.1,123.4,226.9,122.3,226.9C122.4,226.9,122.3,226.9,122.3,226.9z"/>
		<path class="st54" d="M131.1,226.9H128c-1,0-1.8-0.8-1.8-1.8l0,0c0-1,0.8-1.8,1.8-1.8h3.1c1,0,1.8,0.8,1.8,1.8l0,0
			C132.9,226.1,132.1,226.9,131.1,226.9C131.1,226.9,131.1,226.9,131.1,226.9z"/>
		<path class="st54" d="M150.6,234.2h-6.9c-1,0-1.8-0.8-1.8-1.8l0,0c0-1,0.8-1.8,1.8-1.8h6.9c1,0,1.8,0.8,1.8,1.8l0,0
			C152.4,233.4,151.6,234.2,150.6,234.2z"/>
		<rect x="101.2" y="173.9" class="st37" width="1.1" height="20.1"/>
		<rect x="101.2" y="129.4" class="st37" width="1.1" height="20.1"/>
		<rect x="142.7" y="129.4" class="st37" width="1.1" height="20.1"/>
		<rect x="150.6" y="129.4" class="st37" width="1.1" height="20.1"/>
		<rect x="58.3" y="129.4" class="st37" width="1.1" height="20.1"/>
		<rect x="58.3" y="174" class="st37" width="1.1" height="20.1"/>
	</g>
</g>
</svg>
