<?xml version="1.0" encoding="utf-8"?>
<!-- Generator: Adobe Illustrator 24.3.0, SVG Export Plug-In . SVG Version: 6.00 Build 0)  -->
<svg version="1.1" id="Layer_18" xmlns="http://www.w3.org/2000/svg" xmlns:xlink="http://www.w3.org/1999/xlink" x="0px" y="0px"
	 viewBox="0 0 260 250" style="enable-background:new 0 0 260 250;" xml:space="preserve">
<style type="text/css">
	.st0{fill:#A791B5;}
	.st1{fill:#776F7E;}
	.st2{fill:#E6CCB1;}
	.st3{fill:#EDD4B9;}
	.st4{fill:#F2E9DE;}
</style>
<rect x="0" y="-0.2" class="st0" width="260" height="250"/>
<ellipse class="st1" cx="129.6" cy="211.7" rx="62.4" ry="12.8"/>
<path class="st2" d="M193.2,142.3c0,43.7-28.3,71.6-63.2,71.6s-63.2-28-63.2-71.6S95.1,45.4,130,45.4S193.2,98.6,193.2,142.3z"/>
<path class="st3" d="M188.1,126.3c-0.1,38.3-46.3,60.2-79.7,60.2s-44.9-23.7-40.9-60.2s27-81.4,60.3-81.4S188.2,89.4,188.1,126.3z"
	/>
<path class="st4" d="M93.2,74.8c-7,12.9-7.5,32.8-1.3,36.2s2.5-12.6,12.2-23.5s19-19.8,12.9-23.2S100.2,61.9,93.2,74.8z"/>
</svg>
