<?xml version="1.0" encoding="utf-8"?>
<!-- Generator: Adobe Illustrator 24.3.0, SVG Export Plug-In . SVG Version: 6.00 Build 0)  -->
<svg version="1.1" id="Layer_4" xmlns="http://www.w3.org/2000/svg" xmlns:xlink="http://www.w3.org/1999/xlink" x="0px" y="0px"
	 viewBox="0 0 260 250" style="enable-background:new 0 0 260 250;" xml:space="preserve">
<style type="text/css">
	.st0{fill:#EEEBDA;}
	.st1{opacity:0.1;fill:#686868;}
	.st2{fill:#734626;}
	.st3{clip-path:url(#SVGID_2_);}
	.st4{fill:#FCA01A;}
	.st5{opacity:0.46;fill:#FD8D0D;}
	.st6{opacity:0.33;fill:#FCAF3F;}
	.st7{opacity:0.1;clip-path:url(#SVGID_2_);}
	.st8{opacity:0.2;clip-path:url(#SVGID_2_);}
	.st9{fill:#487220;}
	.st10{fill:#3A5E14;}
	.st11{fill:#5D8D2A;}
	.st12{fill:none;}
	.st13{fill:#FFC701;}
	.st14{fill:#FFEB01;}
	.st15{fill:#FFA904;}
</style>
<rect x="0" y="-0.2" class="st0" width="260" height="250"/>
<g>
	<ellipse class="st1" cx="140.9" cy="179.7" rx="82.1" ry="27.6"/>
	<g>
		<path class="st2" d="M120.1,26.2C120.1,26.2,120.1,26.1,120.1,26.2c-4.4,0.4-8.7,1.9-12.5,4.1c-0.2,0.1-0.5,0.3-0.5,0.6
			c0,0.2,0,0.4,0.1,0.6c2.2,4.7,4.4,9.4,6.7,14.1c0.3,0.6,0.6,1.2,1.2,1.4c0.3,0.1,0.7,0,1.1-0.1c3.5-0.8,10.1-0.6,8.2-6.1
			C123.1,35.9,121.2,31.2,120.1,26.2z"/>
		<g>
			<defs>
				<path id="SVGID_1_" d="M194.3,167.2c3.2-2.1,5.6-5.3,7.4-8.6c10.9-19.5,11.5-48.5,4.8-69.4c-7.4-23.1-25.9-43-49.3-49.6
					c-23.1-6.5-51.7-1.3-68,17.3C68.4,80.6,74.7,116,94.5,138c11.4,12.7,26.5,21.7,42.4,27.6C153.2,171.7,178.4,177.6,194.3,167.2z"
					/>
			</defs>
			<use xlink:href="#SVGID_1_"  style="overflow:visible;fill:#F49206;"/>
			<clipPath id="SVGID_2_">
				<use xlink:href="#SVGID_1_"  style="overflow:visible;"/>
			</clipPath>
			<g class="st3">
				<path class="st4" d="M121.7,21.2c-12.3,0.6-24.5,4.4-35.1,11.1c-29.5,18.7-37,60.4-23,90.9c13.6,29.8,44.3,50.6,75.7,57.3
					c14.6,3.1,31.3,3.8,43.1-5.4c4-3.2,7.2-7.4,9.8-11.8c8.8-14.9,11.6-32.7,10.5-49.9C200,69.6,172.2,18.6,121.7,21.2z"/>
				<path class="st5" d="M156.3,162.3C94.6,177.7,29.2,90.6,89.3,43.1c12.1-9.5,27.4-14.9,42.4-14c26.4,1.5,50.3,21.2,59,46.8
					c6.6,19.6,5.5,43.5-4.4,62.1C179.1,151.5,168.5,159.2,156.3,162.3z"/>
				<path class="st6" d="M145.4,129.5c-22.9,6.4-50.3-4.6-62.7-25c-16.9-28,3.3-73,35.9-76.6c23.6-2.6,48.1,18,56.8,39.4
					C185.7,92.4,171.4,122.2,145.4,129.5z"/>
			</g>
			<path class="st7" d="M109.8,82c-5.6,10.3-13.8,18.7-21.4,27.5c-7.3,8.4-15.9,17.4-17,28.9c-2.2-10.8-5-21.5-4.9-32.5
				c0.3-26.7,6.7-54.7,31.9-68.4c3.9-2.1,8.2-3.9,12.6-3.3c1.9,0.2,5,16.9,5.3,18.9C117.9,63.5,114.7,72.9,109.8,82z"/>
			<path class="st8" d="M177.5,167c-0.7-2.3-1.5-4.5-2.3-6.6c-0.5-0.5-1.1-1-1.7-1.5c-0.6-0.5-1.1-1-1.8-1.5
				c-1.1-0.9-2.3-1.8-3.5-2.7c-1.1,1.4-2.2,2.8-3.3,4.2l0,0l3.1-12.3c-4.6-7-10.3-13.1-17.2-18c-0.3-0.2-0.6-0.4-1-0.7
				c-1.8,2.8-3.5,5.6-5.1,8.5l0.2-11.6c-8.6-5-17.9-8.3-27.3-9.8c-0.1,0.1-0.1,0.2-0.2,0.4c-1.3,3.2-2.4,6.5-3.4,9.9
				c-0.3,1-0.6,2.1-0.9,3.1l-1.3-14c-9.8-0.7-19.6,0.6-28.7,4.1c-1.4,3.4-2.5,6.9-3.5,10.5c-0.3,1.3-0.7,2.6-1,4l-2.5-11.4
				c-7.9,4.1-15,10-21,17.7l0.2,18.5l-4.3-8.2c-1.1,0.6-2.2,1.1-3.4,1.7c-0.7,1.4-1.3,2.8-1.9,4.2h0c0,0,0,0,0,0
				c-0.2,0.6-0.5,1.1-0.7,1.7c-3,7.6-2.6,13.8-0.1,18.9c0.6,1.3,1.4,2.5,2.3,3.6c0.2,0.3,0.4,0.6,0.7,0.8c0.5,0.6,1,1.1,1.5,1.6
				c0.8,0.8,1.6,1.5,2.5,2.2c0.5,0.4,1,0.7,1.5,1.1c0.4,0.3,0.9,0.6,1.3,0.9c0.3,0.2,0.7,0.4,1,0.6c2.6,1.6,5.4,3,8.4,4.2
				c0.5,0.2,1,0.4,1.5,0.6c1.5,0.6,3.1,1.1,4.7,1.7c0.5,0.2,1,0.3,1.5,0.5c2.3,0.7,4.6,1.3,6.8,1.8c0.4,0.1,0.8,0.2,1.2,0.3
				c1.1,0.2,2.1,0.5,3.2,0.7c2,0.4,3.9,0.8,5.7,1.1c0.6,0.1,1.1,0.2,1.6,0.3c1,0.2,2,0.3,2.9,0.5c6.3,1,12.7,1.5,19.2,1.5
				c2.8,0,5.5-0.1,8.3-0.2c1.8-0.1,3.7-0.3,5.5-0.5c3.7-0.4,7.3-1,10.9-1.8c0.6-0.1,1.3-0.3,1.9-0.4c0.1,0,0.3-0.1,0.4-0.1
				c0.6-0.1,1.3-0.3,1.9-0.5c0.1,0,0.2,0,0.3-0.1c0.6-0.2,1.2-0.3,1.9-0.5c0.1,0,0.1,0,0.2-0.1c0.7-0.2,1.3-0.4,2-0.5
				c0.1,0,0.2-0.1,0.3-0.1c1.4-0.4,2.7-0.8,4.1-1.3c0.1,0,0.1,0,0.2-0.1c0.7-0.2,1.4-0.5,2.1-0.7c0,0,0,0,0,0
				c1.4-0.5,2.8-1.1,4.2-1.7c0,0,0.1,0,0.1,0c1.4-0.6,2.8-1.3,4.1-2l0,0c2-1.1,4-2.3,5.9-3.6c0,0,0,0,0,0c3.7-2.6,7.1-5.7,9.8-9.5
				c0.8-1.1,1.6-2.3,1.9-3.8C178.6,170.7,178,168.8,177.5,167z M51.9,170.4c-0.1,0-0.3,0.1-0.4,0.1c0.1-0.1,0.3-0.2,0.4-0.3
				L51.9,170.4z"/>
		</g>
		<g>
			<path class="st9" d="M93.3,90.2c-7.6,8.9-17.4,15.5-26.7,22.4c-8.9,6.6-19.2,13.7-22.7,24.7c0.1-11.1-0.4-22.1,2-32.8
				c5.8-26,18-52.1,45.5-60.2c4.2-1.2,8.8-2.1,13-0.6c1.8,0.6,1.4,17.6,1.3,19.6C105,73.8,99.9,82.4,93.3,90.2z"/>
			<path class="st10" d="M46,104.5c5.8-26,18-52.1,45.5-60.2c3.8-1.1,7.9-1.9,11.7-1c-15.5,16.5-48.3,53.6-59.1,94
				C44.1,126.3,43.6,115.3,46,104.5z"/>
			<path class="st11" d="M110,37.4c-3.5,3.7-6.3,6.5-9.8,10.3C96.7,51.4,93.3,55.1,90,59c-6.6,7.7-13,15.7-18.8,24
				c-2.9,4.2-5.7,8.4-8.4,12.7c-1.3,2.2-2.6,4.4-3.9,6.6c-1.2,2.2-2.5,4.4-3.6,6.7c-4.7,9-8.6,18.5-11.3,28.3
				c2.6-9.9,6.4-19.4,10.9-28.5c1.1-2.3,2.3-4.5,3.5-6.8c1.2-2.2,2.5-4.5,3.8-6.6c2.6-4.4,5.3-8.7,8.2-12.9
				c5.8-8.4,12-16.6,18.5-24.4c3.3-3.9,6.6-7.8,10.1-11.6c3.4-3.8,6.6-7.5,10.1-11.2L110,37.4z"/>
			<g>
				<path class="st11" d="M95.8,51.2c1.4,1.7,2.5,3.7,3.4,5.7c0.9,2,1.5,4.2,2.1,6.3c0.5,2.2,0.9,4.3,1.1,6.5c0.2,2.2,0.3,4.4,0,6.6
					c-1.1-4.3-2-8.5-3-12.7c-0.5-2.1-1-4.2-1.6-6.3C97.1,55.4,96.5,53.3,95.8,51.2z"/>
			</g>
			<g>
				<path class="st11" d="M87.4,61c1.1,2.4,2,4.8,2.9,7.3c0.9,2.5,1.6,5,2.1,7.6c0.5,2.6,0.7,5.3,0.6,7.9c-0.1,2.6-0.4,5.3-1,7.8
					c-0.2-2.6-0.3-5.2-0.6-7.8c-0.2-2.6-0.6-5.1-1-7.6c-0.4-2.5-1-5-1.6-7.6C88.2,66.2,87.6,63.6,87.4,61z"/>
			</g>
			<g>
				<path class="st11" d="M77.1,73.9c0.8,2.5,1.4,5.1,1.8,7.7c0.5,2.6,0.7,5.2,0.7,7.9c0,2.7-0.2,5.3-0.7,7.9
					c-0.5,2.6-1.2,5.2-2.2,7.6c0.1-2.6,0.4-5.2,0.6-7.8c0.2-2.6,0.3-5.1,0.3-7.7c0-2.6-0.1-5.1-0.3-7.7
					C77.3,79.2,77.1,76.6,77.1,73.9z"/>
			</g>
			<g>
				<path class="st11" d="M65.1,91.3c0.5,2,0.8,4.1,0.9,6.2c0.1,2.1,0.1,4.2-0.1,6.2c-0.2,2.1-0.6,4.1-1.2,6.1c-0.6,2-1.3,4-2.3,5.8
					c0.2-2.1,0.5-4.1,0.7-6.1c0.3-2,0.5-4,0.7-6c0.2-2,0.4-4,0.5-6.1C64.6,95.5,64.7,93.4,65.1,91.3z"/>
			</g>
			<g>
				<path class="st12" d="M74,53.1"/>
			</g>
			<g>
				<path class="st11" d="M92.6,54.9c-1.9,0-3.7-0.1-5.5-0.2c-1.8-0.1-3.6,0-5.4,0c-1.8,0.1-3.6,0.1-5.3,0.3
					c-1.8,0.1-3.6,0.3-5.4,0.6c1.6-1,3.4-1.7,5.2-2.1c1.8-0.4,3.7-0.7,5.5-0.7c1.9,0,3.7,0.1,5.6,0.5C89.1,53.5,90.9,54,92.6,54.9z"
					/>
			</g>
			<g>
				<path class="st11" d="M82.1,67.5c-2.1,0.4-4.1,0.7-6.2,1c-2,0.3-4.1,0.6-6.1,1c-2,0.4-4,0.8-6,1.2c-2,0.4-4,0.9-6.1,1.4
					c1.7-1.2,3.7-2.1,5.6-2.9c2-0.7,4-1.3,6.1-1.7c2.1-0.4,4.2-0.6,6.3-0.6C77.9,66.9,80,67.1,82.1,67.5z"/>
			</g>
			<g>
				<path class="st11" d="M71.4,81.8c-1.9,0.6-3.8,1-5.7,1.5c-1.9,0.5-3.7,1-5.5,1.6c-1.8,0.6-3.5,1.3-5.2,2.2
					c-1.7,0.9-3.3,1.9-5.1,2.8c1.3-1.5,2.7-2.9,4.3-4.1c1.6-1.2,3.5-2.1,5.4-2.7c1.9-0.6,3.9-1,5.9-1.2
					C67.4,81.6,69.4,81.6,71.4,81.8z"/>
			</g>
			<g>
				<path class="st11" d="M59.7,100.2c-1.2,1-2.5,1.9-3.8,2.8l-3.8,2.6c-1.3,0.9-2.5,1.7-3.8,2.6c-1.2,0.9-2.5,1.8-3.6,2.9
					c0.4-1.6,1.5-2.9,2.6-4.1c1.1-1.2,2.4-2.2,3.7-3.1c1.3-0.9,2.7-1.7,4.2-2.3C56.6,101,58.1,100.5,59.7,100.2z"/>
			</g>
		</g>
	</g>
	<g>
		<polygon class="st13" points="108.7,121.8 110.1,135.8 143.4,132.2 143.2,143.8 167.6,154 164.4,166.3 163.6,187 127.3,200.9 
			80.4,198.3 45.9,186.5 44.8,157 49.3,165.1 49.1,146.6 71.2,128.9 73.8,140.3 		"/>
		<g>
			<g>
				<g>
					<path class="st14" d="M69.8,135.2c-0.4,2.3-0.7,4.6-1,6.9c-5.2,2-10.2,4.4-14.9,7.1c-1.6,0.9-3.2,1.9-4.7,2.9l-0.1-5.5
						c6.3-7.7,13.8-13.6,22.1-17.7C70.7,131,70.2,133.1,69.8,135.2z"/>
				</g>
				<g>
					<path class="st14" d="M165.6,156.8C165.6,156.8,165.6,156.8,165.6,156.8c-5.2-4.1-10.9-7.4-16.8-10.3c-1.5-0.7-2.9-1.4-4.4-2.1
						l-1.3-0.6c1.7-2.9,3.5-5.7,5.4-8.5c0.3,0.2,0.7,0.4,1,0.7c7.3,5,13.3,11,18.1,18C167,154.9,166.3,155.8,165.6,156.8z"/>
				</g>
				<g>
					<path class="st14" d="M68.3,147.6c-0.2,2.4-0.2,4.8-0.3,7.1c0,4.4,0.1,8.9,0.5,13.3c-6.6,2-12.9,4.7-19,7.8l-0.2-20.8
						C55.5,152.1,61.8,149.6,68.3,147.6z"/>
				</g>
				<g>
					<path class="st14" d="M134,169.1c-0.9-0.3-1.9-0.5-2.8-0.8c2.6-6.7,5.7-13.2,9.1-19.5l1.9,0.7c1.5,0.6,3,1.1,4.4,1.7
						c5.9,2.4,11.6,5,17.1,8.2c0,0,0,0,0.1,0c-3.5,5.5-6.4,11.4-8.5,17.4C148.4,173.9,141.3,171.3,134,169.1z"/>
				</g>
				<g>
					<path class="st14" d="M106,131.4c-0.3,1.4-0.6,2.8-0.9,4.3c-4.7,0-9.5,0.3-14.1,0.9c-3.3,0.4-6.6,1-9.8,1.7
						c-2.5,0.6-5,1.3-7.5,2.1c0.3-1.3,0.6-2.7,1-4c1-3.6,2.2-7.1,3.7-10.5c9.6-3.5,19.9-4.8,30.2-4.1
						C107.6,124.9,106.8,128.2,106,131.4z"/>
				</g>
				<g>
					<path class="st14" d="M38.5,164.5c0.8-2,1.8-4,2.8-5.9c1.2-0.6,2.4-1.1,3.5-1.7l3.5,19.4c-1,0.6-2.1,1.1-3.1,1.7
						c1.1-0.3,2.2-0.5,3.3-0.8l1.2,6.5l-0.1-6.7c6.5-1.5,13-3.1,19.4-4.3c0.6,6.8,1.6,13.6,2.6,20.3c-0.4-6.9-0.7-13.8-0.8-20.6
						c1.2-0.2,2.4-0.4,3.7-0.6c8.8-1.4,17.7-1.9,26.5-1.5c-0.1,1.5-0.1,3-0.2,4.5c-0.3,7.3-0.3,14.5-0.3,21.8
						c0.5-7.2,1.1-14.5,2-21.6c0.2-1.5,0.4-3,0.6-4.6c0.2,0,0.4,0,0.6,0c7.8,0.5,15.7,1.5,23.5,2.8c-2.1,8.2-3.6,16.5-4.5,24.9
						c1.6-8.4,3.9-16.6,6.7-24.5c1.2,0.2,2.4,0.4,3.6,0.7c7.3,1.4,14.6,3,21.9,4.5c-1,3.1-1.8,6.2-2.5,9.3c1.2-3.1,2.5-6.1,4-9
						c2,0.4,4,0.8,6,1.2c-1.7-0.9-3.5-1.7-5.3-2.5c3.1-5.6,6.7-10.9,10.9-15.6c1.3,0.9,2.5,1.8,3.7,2.7c0.6,0.5,1.2,1,1.9,1.5
						c0.6,0.5,1.2,1,1.7,1.5c0.9,2.1,1.7,4.3,2.5,6.6c0.6,1.8,1.2,3.7,0.8,5.6c-0.3,1.4-1.1,2.6-2,3.8
						c-9.8,12.7-26.5,18.1-41.3,21.1c-15.2,3.1-31.1,3.1-46.2,1C69.7,203.1,26,194.9,38.5,164.5z"/>
				</g>
				<g>
					<path class="st14" d="M101.3,163.5c-9.4-0.3-18.9,0.8-28,3.1c-0.9,0.2-1.7,0.5-2.6,0.7c0.1-4.2,0.3-8.3,0.7-12.4
						c0.3-2.9,0.7-5.7,1.1-8.5c0.2-0.1,0.5-0.1,0.7-0.2c1.5-0.4,3-0.8,4.6-1.1c1.5-0.4,3.1-0.6,4.6-0.9c3.1-0.5,6.2-1,9.3-1.2
						c3.1-0.3,6.2-0.5,9.4-0.5c0.9,0,1.9,0,2.8,0c-0.6,3.5-1.2,7.1-1.6,10.6C101.9,156.5,101.5,160,101.3,163.5z"/>
				</g>
				<g>
					<path class="st14" d="M138.4,141.8c-2.6-1-5.3-1.9-8-2.7c-6.4-1.8-13-2.9-19.6-3.3c-0.3,0-0.5,0-0.8,0c0.3-1,0.6-2.1,0.9-3.1
						c1-3.4,2.2-6.7,3.6-9.9c0.1-0.1,0.1-0.2,0.2-0.4c9.9,1.4,19.6,4.7,28.7,9.8C141.7,135.3,140,138.5,138.4,141.8z"/>
				</g>
				<g>
					<path class="st14" d="M103.9,163.6C103.9,163.6,103.9,163.6,103.9,163.6c0.5-3.4,1.1-6.7,1.7-10c0.7-3.5,1.5-7,2.4-10.5
						c0-0.2,0.1-0.4,0.1-0.5c0.7,0,1.5,0.1,2.2,0.1c1.6,0.1,3.1,0.2,4.7,0.4c1.5,0.2,3.1,0.3,4.6,0.6c3.1,0.4,6.1,1,9.1,1.8
						c2.4,0.5,4.7,1.2,7.1,2c-2.9,6.6-5.3,13.4-7.4,20.3C120.5,165.5,112.3,164.1,103.9,163.6z"/>
				</g>
			</g>
		</g>
		<path class="st15" d="M135.1,204.9c11.9-2.4,25-6.3,34.7-14.4c-15.4,3.7-31.1,5.6-46.9,5.6c-0.1,0.7-0.3,1.3-0.4,2
			c0.1-0.7,0.2-1.3,0.2-2c-7.4,0-14.8-0.4-22.2-1.1c0,0.5-0.1,1-0.1,1.6c0-0.5,0-1.1,0-1.6c-4.2-0.4-8.4-1-12.6-1.7
			c-5.6-1-11.2-2.2-16.6-3.9c0.1,1.2,0.1,2.5,0.2,3.7c-0.2-1.3-0.4-2.5-0.6-3.8c-5.6-1.8-10.9-4.2-15.8-7.4c-2-1.3-3.9-2.8-5.7-4.4
			l0.1,6.3l-1.2-6.5c-1.1,0.3-2.2,0.5-3.3,0.8c1-0.6,2.1-1.1,3.1-1.7l0-0.1c-1-1-2-2-2.9-3.1c-2.8-3.3-4.7-6.7-6.1-10.3
			c-0.2,0.6-0.5,1.1-0.7,1.7c-12.5,30.4,31.2,38.6,50.4,41.3C104,208,119.9,208,135.1,204.9z"/>
	</g>
</g>
</svg>
