<?xml version="1.0" encoding="utf-8"?>
<!-- Generator: Adobe Illustrator 24.3.0, SVG Export Plug-In . SVG Version: 6.00 Build 0)  -->
<svg version="1.1" id="Layer_23" xmlns="http://www.w3.org/2000/svg" xmlns:xlink="http://www.w3.org/1999/xlink" x="0px" y="0px"
	 viewBox="0 0 260 250" style="enable-background:new 0 0 260 250;" xml:space="preserve">
<style type="text/css">
	.st0{fill:#162B42;}
	.st1{opacity:0.5;fill:#69C4DC;enable-background:new    ;}
	.st2{opacity:0.76;fill:#3AACCC;enable-background:new    ;}
	.st3{opacity:0.3;fill:#DEECED;enable-background:new    ;}
	.st4{opacity:0.7;fill:#4498C3;enable-background:new    ;}
	.st5{fill:#F9871C;}
	.st6{fill:#FCAC52;}
	.st7{fill:#F96D11;}
	.st8{fill:#F75B10;}
</style>
<rect class="st0" width="260" height="250"/>
<g>
	<polygon class="st1" points="154.6,52.2 105.4,52.2 112.1,40.9 147.9,40.9 	"/>
	<polygon class="st2" points="105.4,52.2 154.6,52.2 130,97.3 	"/>
	<polygon class="st3" points="112.1,40.9 121.1,52.2 130,40.9 	"/>
	<polygon class="st3" points="130,40.9 139,52.2 147.9,40.9 	"/>
	<polygon class="st3" points="121.1,52.2 130,97.3 139,52.2 	"/>
	<polygon class="st4" points="121.1,52.2 130,40.9 139,52.2 	"/>
	<rect x="109.1" y="67.8" class="st5" width="41.8" height="16.9"/>
	<rect x="105.5" y="72.2" class="st6" width="49.1" height="19.9"/>
</g>
<g>
	<path class="st7" d="M130.3,82.1c-36,0-65.2,29.2-65.2,65.2s29.2,65.2,65.2,65.2s65.2-29.2,65.2-65.2
		C195.5,111.3,166.3,82.1,130.3,82.1C130.3,82.1,130.3,82.1,130.3,82.1z M130.3,202.3c-30.4,0-55-24.6-55-55s24.6-55,55-55
		c30.4,0,55,24.6,55,55c0,0,0,0,0,0C185.3,177.7,160.7,202.3,130.3,202.3L130.3,202.3L130.3,202.3z"/>
	<path class="st8" d="M190.1,121.3c-3.5,0.6-7.1,1-10.7,1.2c-13.1-25.9-44.1-37.2-70.8-25.7c-1.4-2.8-2.2-6-2.2-9.1c0-0.3,0-0.7,0-1
		C139.1,73.8,176,89.1,190.1,121.3L190.1,121.3z"/>
	<path class="st5" d="M189.9,173.8c-14.7,32.9-53.3,47.6-86.2,32.9c-28.6-12.8-44-44-36.9-74.5c4-2.2,8.2-4.1,12.5-5.7
		c-11.5,28.1,2,60.2,30.2,71.7c28.1,11.5,60.2-2,71.7-30.2c0.9-2.1,1.6-4.3,2.2-6.5C185.9,165.4,188.1,169.5,189.9,173.8z"/>
	<path class="st6" d="M169.8,199.3c-28.7,21.8-69.6,16.2-91.4-12.4c-0.8-1-1.5-2.1-2.2-3.1c2.7-2,5.7-3.8,8.8-5.3
		c17.1,25.1,51.4,31.5,76.4,14.3c1.1-0.8,2.2-1.6,3.3-2.4C166.8,193,168.6,196,169.8,199.3z"/>
	<path class="st7" d="M130.3,207.2c33,0,59.9-26.8,59.9-59.8s-26.8-59.9-59.8-59.9c-33,0-59.9,26.8-59.9,59.8c0,0,0,0,0,0
		C70.5,180.4,97.2,207.2,130.3,207.2z M130.3,96.9c27.9,0,50.4,22.6,50.4,50.4s-22.6,50.4-50.4,50.4s-50.4-22.6-50.4-50.4
		c0,0,0,0,0,0C79.8,119.5,102.4,96.9,130.3,96.9C130.3,96.9,130.3,96.9,130.3,96.9z"/>
	<path class="st8" d="M75.4,171.2c3.1-0.5,6.5-0.9,9.8-1.1c12,23.8,40.5,34.1,65,23.6c1.3,2.6,2,5.5,2,8.4c0,0.3,0,0.6,0,0.9
		C122.2,214.8,88.3,200.7,75.4,171.2L75.4,171.2z"/>
	<path class="st5" d="M75.6,123.1c13.5-30.2,48.9-43.7,79.1-30.2c26.2,11.7,40.4,40.4,33.8,68.3c-3.7,2-7.5,3.8-11.5,5.2
		c10.7-25.7-1.6-55.3-27.3-65.9s-55.3,1.6-65.9,27.3c-0.9,2.1-1.6,4.3-2.2,6.5C79.2,130.7,77.3,127,75.6,123.1z"/>
	<path class="st6" d="M94.1,99.7c26.3-20,63.8-14.9,83.8,11.4c0.7,0.9,1.4,1.9,2,2.9c-2.5,1.9-5.2,3.5-8,4.9
		c-15.7-23-47.1-28.9-70.1-13.1c-1,0.7-2,1.4-3,2.2C96.8,105.5,95.1,102.7,94.1,99.7z"/>
</g>
</svg>
