<?xml version="1.0" encoding="utf-8"?>
<!-- Generator: Adobe Illustrator 24.3.0, SVG Export Plug-In . SVG Version: 6.00 Build 0)  -->
<svg version="1.1" id="Layer_1" xmlns="http://www.w3.org/2000/svg" xmlns:xlink="http://www.w3.org/1999/xlink" x="0px" y="0px"
	 viewBox="0 0 260 250" style="enable-background:new 0 0 260 250;" xml:space="preserve">
<style type="text/css">
	.st0{fill:#50B18A;}
	.st1{clip-path:url(#SVGID_2_);}
	.st2{fill:#183036;}
	.st3{fill:#194C4F;}
	.st4{fill:#367F6B;}
	.st5{fill:#206258;}
	.st6{fill:#216B5A;}
	.st7{fill:#142D2A;}
	.st8{fill:#2BA36B;}
	.st9{fill:#269967;}
	.st10{fill:#229462;}
	.st11{fill:#247760;}
	.st12{fill:#1F5D55;}
	.st13{fill:#22745A;}
	.st14{fill:#152E2B;}
	.st15{fill:#299F6C;}
	.st16{fill:#1F684B;}
	.st17{fill:#5FBB7D;}
	.st18{fill:#1B353A;}
	.st19{fill:#227D5C;}
	.st20{fill:#173130;}
	.st21{fill:#EF7444;}
	.st22{fill:#5E1617;}
	.st23{opacity:0.5;fill:#E13D29;enable-background:new    ;}
	.st24{fill:#F7EDD9;}
	.st25{fill:#F3DFC6;}
	.st26{opacity:0.2;fill:#5E1617;enable-background:new    ;}
	.st27{fill:#F1BF8C;}
	.st28{fill:#E74F5B;}
	.st29{opacity:0.5;}
	.st30{fill:#E13D29;}
	.st31{fill:#FCFBF3;}
	.st32{fill:#F7C437;}
	.st33{fill:#F5B11E;}
	.st34{opacity:0.8;fill:#FBE6B3;}
	.st35{fill:#FBFBFB;}
	.st36{fill:#D74140;}
	.st37{fill:#C63C3C;}
	.st38{fill:#641418;}
	.st39{fill:#491114;}
	.st40{fill:#841E25;}
</style>
<g>
	<g id="Layer_13">
		<rect x="0" y="-0.2" class="st0" width="260" height="250"/>
		<g>
			<defs>
				<rect id="SVGID_1_" y="1.3" width="257.8" height="248.7"/>
			</defs>
			<clipPath id="SVGID_2_">
				<use xlink:href="#SVGID_1_"  style="overflow:visible;"/>
			</clipPath>
			<g class="st1">
				<path class="st2" d="M63.1,191c4.8-8.2,10.9-15.6,17.9-22c11.1-9.8,16.6-22.1,22.4-52.8s-6.4-53-11.9-63.9
					c-9.1,2.4-16.8,8.4-21.5,16.5c-7.7,13.6-29.7,54.6-25.7,75.2S59.6,175.2,63.1,191z"/>
				<path class="st3" d="M103.4,116.2c5.9-30.7-6.4-53-11.9-63.9c0,0-13,41.9-18.5,75.8s-8,53.3-9.9,62.9c4.8-8.2,10.9-15.6,17.9-22
					C92.1,159.2,97.6,146.9,103.4,116.2z"/>
				<path class="st4" d="M75.2,116.1L75.2,116.1L62.1,83.8c-1.2,2.3-2.3,4.7-3.5,7.2L74,122.5C74.4,120.4,74.8,118.2,75.2,116.1z"/>
				<path class="st5" d="M80.2,93.6c0.7-2.7,1.3-5.4,2-7.9l0,0l-2.3-27.8c-3,2.1-5.5,4.7-7.7,7.7L80.2,93.6L80.2,93.6z"/>
				<path class="st5" d="M70.4,144.5c0.2-1.3,0.4-2.6,0.6-4l0,0l-20-32.1c-1.5,3.8-2.8,7.6-3.9,11.3L70.4,144.5L70.4,144.5z"/>
				<path class="st4" d="M67.1,166.3L69,154c0,0-16.7-18.1-23.8-26.2c-0.9,4.1-1.3,8.3-1.2,12.5L67.1,166.3L67.1,166.3z"/>
				<path class="st6" d="M70.4,144.5l31.7-21.8c0.3-1.5,0.6-3.1,0.9-4.7l-32,22.4C70.8,141.8,70.6,143.1,70.4,144.5z"/>
				<path class="st4" d="M74,122.5l0.2,0.5c0,0,18.6-11.1,30.6-18.3c0.2-3.7,0.2-7.5-0.1-11.2l-29.5,22.6
					C74.8,118.2,74.4,120.4,74,122.5z"/>
				<path class="st4" d="M65.8,174.7L65.8,174.7c-0.3,1.7-0.5,3.3-0.8,4.9l0,0l26.3-23.3c1.5-2.6,2.7-5.4,3.8-8.2L65.8,174.7z"/>
				<path class="st4" d="M96.1,61.6c-1.7-3.7-3.3-6.8-4.6-9.3c0,0-4.5,14.5-9.3,33.4L96.1,61.6z"/>
				<path class="st6" d="M78.6,100.3L78.6,100.3L103,82c-0.6-2.6-1.2-5-1.9-7.4l-20.9,19C79.6,95.8,79.1,98.1,78.6,100.3z"/>
				<path class="st7" d="M90.2,54.1C79.8,77.3,63,183.2,61.5,192.9c-0.7,4.9-1.7,9.7-3.1,14.5c-1.3,4.5-4,9.5-3.6,14.3
					c0,0.3,0.3,0.6,0.6,0.6c0.2,0,0.4-0.1,0.5-0.3c2.3-3.5,3.2-8.5,4.6-12.5c1.5-4.7,2.5-9.6,3-14.5c1.2-10.3,16.2-107.5,26.8-140.8
					C90.4,54,90.2,54.1,90.2,54.1z"/>
				<path class="st8" d="M138.2,189.8c6.1-6.7,13.2-12.4,21-17c12.2-6.9,19.7-17.3,31.1-44.7s4.4-50.5,1.4-61.7
					c-8.9,0.5-17.3,4.5-23.2,11.2c-9.8,11.2-38.2,44.9-38.6,64.8S138.1,174.4,138.2,189.8z"/>
				<path class="st9" d="M190.3,128.1c11.4-27.4,4.4-50.5,1.4-61.7c0,0-20.3,36.4-32,66.8s-17.9,48-21.5,56.6
					c6.1-6.7,13.2-12.4,21-17C171.4,165.8,178.9,155.5,190.3,128.1z"/>
				<path class="st10" d="M164.1,122.4L164.1,122.4l-5.9-32.6c-1.5,1.9-3.1,3.9-4.7,6l8.2,32.4C162.5,126.3,163.3,124.4,164.1,122.4
					z"/>
				<path class="st11" d="M173.1,102.6c1.1-2.4,2.3-4.7,3.4-7l0,0l3.3-26.3c-3.2,1.4-6.1,3.3-8.6,5.6L173.1,102.6L173.1,102.6z"/>
				<path class="st11" d="M154.1,147.9l1.4-3.6l0,0l-12.3-33.7c-2.1,3.2-4.1,6.5-5.8,9.8L154.1,147.9z"/>
				<path class="st10" d="M146.7,167.6c1.3-3.4,2.6-7.1,4.2-11.1c0,0-12-20.1-17-29c-1.6,3.6-2.8,7.5-3.5,11.4L146.7,167.6
					L146.7,167.6z"/>
				<path class="st12" d="M154.1,147.9l33.7-14c0.6-1.3,1.2-2.7,1.8-4.1l-34.1,14.5L154.1,147.9z"/>
				<path class="st12" d="M161.7,128.2l0.1,0.5c0,0,19.4-6.7,32-11.1c0.9-3.4,1.7-6.9,2.1-10.4l-31.9,15.2
					C163.3,124.4,162.5,126.3,161.7,128.2z"/>
				<path class="st13" d="M143.9,175.1L143.9,175.1c-0.6,1.6-1.1,3-1.6,4.4l0,0l29-16.5c1.9-2.2,3.6-4.4,5.1-6.9L143.9,175.1z"/>
				<path class="st11" d="M194.2,75.9c-0.8-3.8-1.7-7-2.4-9.5c0,0-7,12.6-15.2,29.2L194.2,75.9z"/>
				<path class="st12" d="M170.3,108.5L170.3,108.5l26.3-12.3c0-2.5-0.1-4.9-0.4-7.2l-23.1,13.6
					C172.2,104.5,171.3,106.5,170.3,108.5z"/>
				<path class="st14" d="M190.2,67.8c-14.2,19.5-50.5,114.7-53.8,123.5c-1.6,4.4-3.5,8.7-5.7,12.8c-2.1,4-5.6,8-6.1,12.6
					c-0.1,0.3,0.1,0.6,0.4,0.7c0.2,0.1,0.5,0,0.6-0.2c2.8-2.8,4.7-7.3,6.7-10.7c2.3-4.1,4.2-8.4,5.6-12.9
					c3.2-9.4,36.1-96.8,52.5-125.7C190.4,67.7,190.2,67.8,190.2,67.8z"/>
				<path class="st15" d="M42.7,206.4c4.3,0.6,3-28.2,14.8-64.7S76.4,53,57.7,3.8c0,0-26.8,30.1-30.1,76.4s8.7,62.4,11.5,85.2
					S38,205.7,42.7,206.4z"/>
				<path class="st16" d="M60.8,82.9c-0.4-4.3,0.1-11.4-2.4-15.2c-5.2-7.9-12-0.2-15.9,5.6c-11.6,17.7-12.2,42.8-8.8,63.1
					c0.8,4.7,1.7,9.3,2.4,13.9c1.3,4.9,2.3,9.9,3,14.9c2.8,22.8-1,40.4,3.6,41c4.3,0.6,3-28.2,14.8-64.7c2.2-6.7,4.2-14,5.9-21.6
					c-0.1-4.2-0.3-8.4-0.5-12.6C62.3,99.3,61.5,91.1,60.8,82.9z"/>
				<path class="st17" d="M52.8,65.4c2.5-17.9,6.6-36.4,5.6-54.6 M58.4,10.8c0,17.5-4,35.1-6.6,52.4c-2.8,18.5-6,36.8-6,55.5
					c-0.1,18.9-1.4,37.9-3.9,56.6c-0.4,3-0.9,6-1.5,9c0,2.6,0,5,0,7.2c5.1-22.4,7.1-45.6,7-68.6c-0.1-19.5,2.8-38.2,5.6-57.5
					L58.4,10.8z"/>
				<path class="st17" d="M57.2,12.4c0,0-0.1-0.1-0.1,0c0,0,0,0,0,0C51,44.8,42.9,76.8,41,109.7c-1,16-1.6,32.1-3.2,47.9
					c0.4,2,0.8,4.1,1.1,6.1c2.2-16.5,2.8-33,3.5-49.6C44,79.7,52.5,46.4,57.2,12.4z"/>
				<path class="st17" d="M39,108.8c2-25.3,6.1-50.3,12.4-74.8c0-0.1-0.1-0.1-0.2,0c-6.9,23.7-11.5,48-13.7,72.7
					c-1.1,11.6-1.6,23.1-1.8,34.7c-0.4-3.2-0.9-6.4-1.5-9.6c-0.8-13.1-0.9-26.2,1.1-39.3c4.5-29,12.1-57.6,21.4-85.3
					c0,0,0-0.1-0.1,0C46.1,33.7,39,61.9,34.2,90.1c-1.7,9.5-2.4,19.2-2.2,28.9c-0.2-1.2-0.4-2.5-0.5-3.7
					c-2.2-17.2,0.8-35.6,4.3-52.4c3.6-17.4,9.6-34.2,17.9-49.9c0-0.1-0.1-0.1-0.1-0.1C36.9,40.2,28.7,74.6,29,106.4
					c0.1,8,1.5,15.9,3.2,23.6c0.2,1.1,0.5,2.3,0.7,3.4c0.3,2.6,0.5,5.2,0.7,7.9c1.2,4.3,2.4,8.4,3.3,12.5c0-0.1,0-0.1,0-0.2
					C37.7,138.7,37.9,123.8,39,108.8z"/>
				<path class="st17" d="M65,29.8c-4.7,48-7.7,96.6-15.6,144.3c1.2-6.7,2.8-14.2,5-22.2c6-40.4,8.8-81.4,10.7-122.1L65,29.8z"/>
				<path class="st17" d="M66.6,56.2C66.6,56.1,66.5,56.1,66.6,56.2c-1.8,27.6-5.4,55-8.2,82.5c1.2-3.9,2.3-8,3.4-12.2
					C64.3,103.1,66.3,79.6,66.6,56.2z"/>
				<path class="st17" d="M61.2,21.8C61.2,21.8,61.2,21.8,61.2,21.8c-1.9,34.4-4.1,68.9-7.8,103.1c-1.4,13.1-3.2,26.2-5.2,39.2
					c0.9-11.9,1.5-23.8,2.1-35.7c1.2-21.7,2.2-43.6,4.6-65.3c-2.5,20.9-4.4,41.9-5.7,63.1c-1.2,20.6-2.6,41.1-5.1,61.4
					c-0.9,4.7-1.9,9.4-3,14.1c-0.1,0.6-0.3,1.2-0.5,1.9c0.1,1,0.6,2,1.5,2.6c0.6-2.9,1.2-5.9,1.7-8.9c1.3-5.9,2.4-11.8,3.5-17.7
					c3.1-17.4,5.5-34.8,7.6-52.3C58.9,92.3,61,57.1,61.2,21.8z"/>
				<path class="st17" d="M57.6,43.1c-1,6.7-1.9,13.4-2.6,20.1C55.7,56.5,56.6,49.8,57.6,43.1z"/>
				<path class="st17" d="M58.3,38.1c-0.2,1.7-0.5,3.3-0.7,5C57.8,41.4,58.1,39.8,58.3,38.1C58.4,38,58.3,38,58.3,38.1z"/>
				<path class="st2" d="M11.4,221.3c3.6-12.1,9.1-23.5,16.2-34C38.8,171.2,42,153.6,40,112.2S15.1,45.9,4.6,33.6
					c-10.9,6-19,16-22.5,28c-5.6,20-21.1,79.6-9.6,104.9S2,202,11.4,221.3z"/>
				<path class="st3" d="M40,112.2C37.9,70.8,15.1,45.9,4.6,33.6c0,0-3.7,58.1-0.1,103.4s6.3,71.2,6.9,84.2
					c3.6-12.1,9.1-23.5,16.2-34C38.8,171.2,42,153.6,40,112.2z"/>
				<path class="st4" d="M3.5,120.9L3.5,120.9l-27-37.5c-0.8,3.3-1.5,6.7-2.3,10.3L4,129.6C3.8,126.7,3.7,123.8,3.5,120.9z"/>
				<path class="st5" d="M2.9,90.4c0-3.7,0-7.3,0.1-10.8h0L-8.7,44.5c-3.1,3.7-5.7,7.8-7.5,12.3L2.9,90.4z"/>
				<path class="st5" d="M6.3,159c-0.1-1.8-0.3-3.5-0.4-5.4l0,0L-30,118.5c-0.7,5.3-1.2,10.7-1.4,15.8L6.3,159z"/>
				<path class="st4" d="M8.8,188.2c-0.4-5-0.9-10.5-1.4-16.6c0,0-27.2-18.1-38.9-26.3c0.1,5.6,0.9,11.1,2.4,16.5L8.8,188.2
					L8.8,188.2z"/>
				<path class="st6" d="M6.3,159l34-37.9c-0.1-2-0.2-4.1-0.2-6.3L5.8,153.6C6,155.4,6.1,157.2,6.3,159z"/>
				<path class="st4" d="M4,129.6l0.5,0.6c0,0,20.4-20.1,33.7-33.2c-0.9-4.9-2.1-9.7-3.7-14.4l-31,38.4C3.7,123.8,3.8,126.7,4,129.6
					z"/>
				<path class="st4" d="M9.8,199.4L9.8,199.4c0.2,2.3,0.4,4.5,0.6,6.5l0,0l26.6-38.3c1-3.9,1.8-7.8,2.3-11.7L9.8,199.4z"/>
				<path class="st4" d="M13.4,44.2C10.1,40,7,36.5,4.6,33.6c0,0-1.3,20.1-1.6,46L13.4,44.2z"/>
				<path class="st6" d="M3,99.6L3,99.6l25.7-31.3c-1.5-3.2-3.1-6.1-4.8-8.9l-21,31.1C2.9,93.4,3,96.5,3,99.6z"/>
				<path class="st7" d="M3.5,36.3C-2.7,69.5,8.9,211.2,10,224.2c0.6,6.5,0.8,13.1,0.6,19.6c-0.3,6.2-2.2,13.5-0.2,19.5
					c0.1,0.4,0.6,0.7,1,0.5c0.3-0.1,0.5-0.3,0.5-0.5c1.9-5.2,1.5-11.9,2-17.5c0.4-6.6,0.2-13.1-0.7-19.6
					C11.6,212.4,0.4,82.5,3.7,36.3C3.7,36.2,3.5,36.3,3.5,36.3z"/>
				<path class="st18" d="M124.4,232c2.3,2.3,14.7-15.7,38.5-32.4s52.2-45,63.3-83.4c0,0-30,6-53.2,32.5s-23.3,41.7-32,56.8
					S121.8,229.5,124.4,232z"/>
				<path class="st19" d="M191.8,165.5c1.7-2.8,5.3-6.9,5.5-10.3c0.4-7.1-7.2-5.6-12.2-3.8c-15.1,5.4-27,20.3-34.2,34.2
					c-1.7,3.2-3.3,6.4-4.9,9.5c-1.4,3.6-3.1,7.1-5,10.4c-8.8,15.1-19.1,24-16.6,26.5c2.3,2.3,14.8-15.7,38.6-32.4
					c4.4-3.1,8.9-6.5,13.4-10.4c1.9-2.6,3.7-5.2,5.5-7.9C185.3,176.1,188.5,170.8,191.8,165.5z"/>
				<path class="st8" d="M195,151.3c9.7-9.7,20.6-19,28.4-30.5c0,0,0-0.1-0.1,0c-8.1,10.6-18.5,19.4-28,28.7
					c-10.2,9.9-20.4,19.5-29.1,30.9c-8.7,11.4-18.2,22.3-28.3,32.5c-1.6,1.6-3.3,3.2-5.1,4.7c-1.2,1.6-2.3,3-3.3,4.4
					c13.3-11.4,25.2-24.3,35.7-38.3C174.2,171.7,184.6,161.7,195,151.3z"/>
				<path class="st8" d="M221.9,121.2C222,121.1,221.9,121.1,221.9,121.2c-18.5,16.8-38.1,32.4-54.3,51.5
					c-7.9,9.3-15.6,18.7-23.9,27.5c-0.7,1.4-1.4,2.8-2.1,4.2c8.9-9,16.8-18.7,24.9-28.4C183.2,155.9,203.6,139.6,221.9,121.2z"/>
				<path class="st8" d="M166.8,171.2c12.8-14.4,26.7-27.7,41.8-39.7c0,0,0-0.1,0-0.1c0,0,0,0-0.1,0c-15,11.2-29,23.8-41.6,37.7
					c-6,6.5-11.5,13.3-17,20.2c1.3-2.1,2.4-4.3,3.5-6.5c5.6-8.3,11.5-16.3,18.7-23.3c16.1-15.4,33.5-29.4,52-41.8 M224.1,117.7
					c-18.6,11.3-35.8,25.1-51.7,40c-5.4,5-10.3,10.6-14.6,16.5c0.4-0.8,0.9-1.7,1.4-2.5c6.6-11.4,16.8-21.2,26.6-29.8
					c10.1-8.9,21.5-16.3,33.7-22c0.1,0,0-0.1,0-0.1c-22.5,8.9-43.2,26-57.6,45.4c-3.5,4.9-6.5,10.2-8.9,15.7
					c-0.4,0.8-0.8,1.6-1.2,2.4c-1,1.7-2.1,3.4-3.1,5.1c-1.3,3.2-2.4,6.2-3.7,9.1l0.1-0.1c7.2-8.7,14.2-17.7,21.7-26.2L224.1,117.7z"
					/>
				<path class="st8" d="M218.8,135.3c-24.9,26.9-48.9,55-75.5,80.3c3.8-3.5,8.2-7.3,13.2-11.2C178.6,182.6,199,159.1,218.8,135.3
					C218.8,135.3,218.8,135.2,218.8,135.3z"/>
				<path class="st8" d="M207.6,152C207.6,152,207.6,151.9,207.6,152c-13.7,15.9-28.4,30.9-42.6,46.2c2.5-1.8,5.1-3.8,7.6-5.8
					C184.8,179.3,196.7,166.1,207.6,152z"/>
				<path class="st8" d="M220.1,128.7C220.1,128.7,220.1,128.6,220.1,128.7c-16.9,19.9-34,39.8-51.9,58.9
					c-6.9,7.3-14,14.4-21.2,21.4c6-6.8,11.8-13.7,17.6-20.6c10.6-12.6,21.3-25.4,32.7-37.5c-11.1,11.5-21.8,23.3-32.3,35.6
					c-10.2,11.9-20.4,23.7-31.2,34.9c-2.7,2.4-5.5,4.8-8.2,7.2l-1.1,0.9c-0.4,0.7-0.5,1.5-0.3,2.2c1.7-1.5,3.4-3,5.1-4.6
					c3.5-3,6.9-6,10.2-9.2c9.8-9.1,19.3-18.5,28.6-28.2C186.4,170.3,203.8,150,220.1,128.7z"/>
				<path class="st8" d="M208.1,139.9c-3.7,3.6-7.3,7.2-10.8,11C200.9,147.2,204.5,143.5,208.1,139.9z"/>
				<path class="st8" d="M210.9,137.2c-0.9,0.9-1.8,1.8-2.7,2.7L210.9,137.2C210.9,137.2,210.9,137.1,210.9,137.2z"/>
				<path class="st20" d="M105.4,250.1c-2.3-2.8,18.8-14.8,39.5-39.6s54.7-53.4,98.2-62.1c0,0-9.4,32.6-41,55.7s-48.4,21.8-65.9,30
					S108,253.1,105.4,250.1z"/>
				<path class="st5" d="M185.3,181.8c3.2-1.6,8.1-5.2,11.9-5.1c7.9,0.2,5.5,8.5,3.1,13.8c-7.4,16.2-25,27.9-41,34.6
					c-3.7,1.6-7.4,3-11,4.5c-4.1,1.2-8.1,2.8-12,4.5c-17.5,8.3-28.4,18.9-30.9,15.9c-2.3-2.8,18.8-14.8,39.5-39.6
					c3.8-4.6,8.1-9.2,12.8-13.9c3.1-1.8,6.1-3.6,9.2-5.3C173,188,179.2,184.9,185.3,181.8z"/>
				<path class="st4" d="M201.4,179.6c11.7-9.9,23-21,36.4-28.5c0,0,0.1,0,0,0.1c-12.5,7.9-23.2,18.6-34.4,28.2
					c-11.9,10.3-23.5,20.8-36.9,29.2c-13.4,8.6-26.3,18-38.6,28.2c-2,1.6-3.9,3.4-5.7,5.1c-1.8,1.1-3.6,2.2-5.1,3.2
					c13.9-13.6,29.2-25.6,45.8-35.8C176.8,200.7,188.9,190.1,201.4,179.6z"/>
				<path class="st4" d="M237.2,152.7C237.2,152.6,237.3,152.7,237.2,152.7c0.1,0,0.1,0.1,0.1,0.1c-20.4,18.8-39.5,38.9-62.1,55.1
					c-11,7.9-22.2,15.5-32.7,23.8c-1.6,0.6-3.2,1.3-4.9,2c10.8-9,22.3-16.8,33.8-24.8C195.1,192.3,215.1,171.2,237.2,152.7z"/>
				<path class="st4" d="M176.6,208.9c17.1-12.8,33.1-27,47.8-42.5c0-0.1,0.1,0,0.1,0.1c-13.8,15.6-29.1,29.8-45.6,42.4
					c-7.8,6-15.8,11.5-24,16.9c2.5-1.2,5-2.2,7.6-3.2c9.7-5.4,19.1-11.1,27.6-18.5c18.6-16.2,35.6-34.4,51.2-53.5c0,0,0.1,0,0.1,0
					c-14.2,19.6-31.1,37.3-49.1,53.4c-6.1,5.5-12.6,10.3-19.6,14.6c1-0.4,1.9-0.8,2.9-1.3c13.3-6.2,25-16.6,35.5-26.6
					c10.8-10.4,20.1-22.2,27.6-35.1c0-0.1,0.1,0,0.1,0.1c-12,24-32.9,45.3-55.7,59.4c-5.8,3.4-11.9,6.2-18.3,8.3
					c-0.9,0.3-1.8,0.7-2.7,1.1c-2,1-4,2-5.9,3c-3.6,1.1-7.1,2.1-10.4,3.2l0.2-0.1C155.9,223.3,166.5,216.4,176.6,208.9z"/>
				<path class="st4" d="M221.3,154.9c-32.1,24.9-65.4,48.9-95.9,75.9c4.2-3.9,8.9-8.4,13.6-13.5
					C165.1,194.8,193.1,174.4,221.3,154.9C221.3,154.8,221.4,154.8,221.3,154.9z"/>
				<path class="st4" d="M201.8,165.6L201.8,165.6c-18.8,13.7-36.8,28.5-55.1,42.8c2.2-2.6,4.6-5.2,7.1-7.9
					C169.4,188.2,185.2,176.3,201.8,165.6z"/>
				<path class="st4" d="M228.7,154C228.7,154,228.8,154,228.7,154c-23.7,16.8-47.2,33.8-70,51.9c-8.7,6.9-17.3,14-25.7,21.3
					c8-6,16.3-11.7,24.5-17.5c14.9-10.6,30.1-21.2,44.5-32.6c-13.8,11.2-27.9,21.9-42.4,32.3c-14.2,10.1-28.1,20.3-41.5,31.2
					c-3,2.8-5.9,5.6-8.7,8.4c-0.4,0.4-0.8,0.8-1.1,1.2c-0.8,0.4-1.7,0.4-2.5,0.1c1.8-1.8,3.7-3.5,5.5-5.2c3.6-3.5,7.3-7,11.1-10.4
					c11-10,22.3-19.6,33.9-28.9C179.5,187.3,203.7,170,228.7,154z"/>
				<path class="st4" d="M215.2,166.1c-4.3,3.8-8.7,7.4-13.2,10.9C206.4,173.5,210.8,169.8,215.2,166.1z"/>
				<path class="st4" d="M218.4,163.4c-1.1,0.9-2.2,1.8-3.2,2.7C216.3,165.2,217.3,164.3,218.4,163.4
					C218.4,163.3,218.5,163.4,218.4,163.4z"/>
				<path class="st8" d="M109.5,246.8c9.7,0,19.3,1.4,28.5,4.3c14.3,4.7,27.9,3.1,57.8-7.6s43.1-33,49.8-43.4
					c-6.8-6.7-16-10.4-25.6-10.2c-15.9,0.3-63.1,2.2-79,16.3S121.6,235.5,109.5,246.8z"/>
				<path class="st9" d="M195.9,243.4c29.9-10.7,43.1-33,49.8-43.4c0,0-43.4,10.2-75.9,22.9s-50.8,20.5-60.2,23.8
					c9.7,0,19.3,1.4,28.5,4.3C152.4,255.7,166,254.1,195.9,243.4z"/>
				<path class="st10" d="M181.4,218.6L181.4,218.6l21.5-28.1c-2.6,0.2-5.3,0.4-8.1,0.6l-19.7,29.8
					C177.2,220.1,179.3,219.4,181.4,218.6z"/>
				<path class="st11" d="M203.6,211.4c2.7-0.8,5.4-1.6,8-2.4l0,0l23.1-16.4c-3.4-1.5-7-2.4-10.7-2.8L203.6,211.4L203.6,211.4z"/>
				<path class="st11" d="M154.1,229.1l3.8-1.5l0,0l17.8-34.1c-4.1,0.7-8.1,1.5-11.9,2.4L154.1,229.1z"/>
				<path class="st10" d="M133.2,237.5c3.6-1.4,7.5-3,11.8-4.7c0,0,7.2-23.9,10.6-34.4c-4.1,1.3-7.9,3.1-11.6,5.4L133.2,237.5
					L133.2,237.5z"/>
				<path class="st12" d="M154.1,229.1l35.4,16.5c1.5-0.5,3-1,4.6-1.6l-36.1-16.5L154.1,229.1z"/>
				<path class="st12" d="M175.2,220.9l-0.3,0.5c0,0,19.3,10.5,31.9,17.3c3.4-1.7,6.6-3.7,9.7-5.9l-35-14.2
					C179.3,219.4,177.2,220.1,175.2,220.9z"/>
				<path class="st13" d="M125.2,240.7L125.2,240.7l-4.6,1.9l0,0l34,11c3.1-0.1,6.1-0.4,9.1-0.9L125.2,240.7z"/>
				<path class="st11" d="M239.9,208.8c2.4-3.4,4.2-6.4,5.8-8.8c0,0-15.1,3.5-34.1,9.1L239.9,208.8z"/>
				<path class="st12" d="M196.9,213.5L196.9,213.5l28.7,11.9c2-1.8,3.8-3.7,5.5-5.5l-27.4-8.5C201.4,212.1,199.2,212.8,196.9,213.5
					z"/>
				<path class="st14" d="M243.4,199.8c-25.7,2.8-127.1,42.9-136.4,46.6c-4.6,1.9-9.4,3.5-14.2,4.8c-4.6,1.2-10.4,1.4-14.3,4.2
					c-0.3,0.2-0.4,0.6-0.2,0.8c0.1,0.2,0.3,0.3,0.5,0.3c4.3,0.2,9.1-1.6,13.3-2.4c4.9-1.1,9.7-2.8,14.2-4.9
					c9.7-4.2,102.5-41.3,137.1-49.2C243.6,200,243.4,199.8,243.4,199.8z"/>
			</g>
		</g>
		<path class="st21" d="M149,135.6c0,0-1.6,29.3,0.3,51s4.5,49.5-2,63.4H1.6v-39.8c0,0,27-37.6,53.1-51.7c24.8-13.4,24-45.9,24-45.9
			L149,135.6z"/>
		<path class="st22" d="M61.1,193.2c1.8,8.5,3.8,17,6,25.4c2.2,8.4,6,16.3,11.1,23.3c0.2,0.3-0.3,0.7-0.5,0.4c-3.1-3-6.4-5.9-9-9.3
			s-3.9-7.6-5.1-11.8C61,212.2,60,203,58.1,194c-1.8-9.2-1.9-18.6-0.3-27.8c0.7-4,1.7-7.9,3-11.7c0.9-0.7,1.8-1.5,2.6-2.2
			C60,165.7,58.2,179.5,61.1,193.2z"/>
		<path class="st22" d="M53.1,228.1c-0.4-7.6-0.4-15.2,0.2-22.8c0.3-3.8,0.8-7.6,1.1-11.4c0.2-4,0.2-8-0.2-12c0-0.1,0.1-0.2,0.3-0.2
			c0.1,0,0.2,0.1,0.2,0.2c1.7,6.8,1.2,14.1,1.7,21c0.5,7.4,0.9,14.7,1.5,22c0.2,3.2,0.6,6.3,1.3,9.4c0.9,3.2,2.1,6.3,3.7,9.2
			c1.2,2.3,2.7,4.5,4.3,6.6h-4c-1-1.1-1.9-2.3-2.8-3.4C56.1,241.3,53.6,234.9,53.1,228.1z"/>
		<path class="st22" d="M40.7,197.9c0.3-9.8,2-19.5,5-28.8c0.8-2.3,1.6-4.5,2.6-6.7c1.6-1.1,3.2-2.1,4.8-3
			c-4,12.4-6.3,25.4-6.7,38.4c-0.3,9.8-2.2,19.4-4.3,28.9c-1,4.8-2.2,9.7-1.3,14.5c0.6,3,1.5,5.9,2.6,8.6H42
			c-3-6.8-4.8-14.1-5.4-21.6C36,218,40.3,208.2,40.7,197.9z"/>
		<path class="st22" d="M24.8,235.9c-1.8-9.6-1.9-21.5,4.9-29.2c7.2-8.2,4.1-19.8,5.5-29.6c0.2-1.7,0.6-3.4,1-5.1
			c0.7-0.6,1.4-1.2,2.1-1.8c-0.6,2.2-1.1,4.4-1.4,6.6c-0.8,5.1-0.2,10.2-0.3,15.4c-0.2,4.7-1.2,9.4-2.7,13.9
			c-0.5,2.1-0.7,4.2-0.7,6.4c-0.2,2.4-0.6,4.9-1.1,7.2c-0.7,4.8-0.8,9.8-0.2,14.6c0.4,5,0.7,10,1.5,14.9c0,0.3,0.1,0.6,0.2,0.9h-3.6
			l-0.1-0.3C27.8,245.2,25.7,240.8,24.8,235.9z"/>
		<path class="st22" d="M7.7,215.2c3.9-9.8,9.7-18.9,14.6-28.2c0.5-1,1.1-2.1,1.6-3.2c1.8-1.8,3.6-3.7,5.5-5.5
			c-0.5,2.6-1.1,5.1-1.9,7.6c-2.9,10-8,19-12.2,28.4c-4.1,9.2-6.1,19.3-5.9,29.4c0.1,2.1,0.3,4.3,0.7,6.4H6.3
			c-0.4-1.5-0.8-2.9-1.1-4.4C2.8,235.5,3.7,224.8,7.7,215.2z"/>
		<path class="st22" d="M78.8,147c1.6,1.6,3,3.2,4.3,5c0.2,0.3-0.2,0.8-0.5,0.6c-2.1-1.5-4.3-2-6.5-3.2s-3.7-3.4-4.8-5.4
			c-0.2-0.3-0.3-0.6-0.5-1c0.5-0.9,1-1.8,1.5-2.7c0.6,0.8,1.2,1.6,1.8,2.4C75.5,144.2,77.2,145.4,78.8,147z"/>
		<path class="st22" d="M69,153.4c1.6,2.9,2.6,6.1,4.1,9.1c1.6,3.2,3.1,6.5,4.3,9.8c1.3,3.4,2.4,6.9,4,10.2c1.7,3.5,4,6.6,6.8,9.3
			c0.2,0.2-0.1,0.6-0.3,0.4c-5.9-4.3-10.6-9.9-13.8-16.4c-1.7-3.4-2.9-7.1-3.4-10.9c-0.5-3.8-1.6-7.4-2.4-11.2
			C68.2,153.3,68.7,153,69,153.4z"/>
		<path class="st22" d="M67.9,199.1c-1.7-11.4-2.6-23-3.5-34.6c0-0.2,0.3-0.2,0.3,0c1.9,11,3.9,22,7.4,32.6
			c3.5,10.6,8.1,20.7,13.7,30.3c4.6,8,9.9,15.5,15.8,22.5H91.7c-4.4-5.7-8.4-11.7-12-18C73.7,221.9,69.7,210.7,67.9,199.1z"/>
		<path class="st22" d="M129.6,183.6c-4.3,2.9-8.1,6.4-11.2,10.4c-0.1,0.2-0.4,0.3-0.6,0.1c-0.2-0.1-0.3-0.4-0.1-0.6l0,0
			c3.5-8.2,12-13.7,18-19.9c3.2-3.3,6.1-7,9-10.6c1.3-1.6,2.6-3.4,3.7-5.1c0,2,0,4.1,0,6.2c-2.2,3.9-4.8,7.6-7.8,10.9
			C137.5,178.4,133.4,180.9,129.6,183.6z"/>
		<path class="st22" d="M136.8,208.1c-3.1,2.1-6.3,4.1-9.4,6.3s-5.7,5.1-5.9,8.9c0,0.4-0.7,0.5-0.7,0.1c-1-7.1,5.8-13.5,10.7-17.6
			c2.9-2.5,6-4.7,9.3-6.7c3.3-2.2,6.3-4.8,8.9-7.8c0.1,0.5,0.1,1,0.1,1.5c-1.6,2.6-3.2,5.1-4.9,7.6C142.7,203.3,140,206,136.8,208.1
			z"/>
		<path class="st22" d="M133.9,192.6c-0.9,0.4-1.4-0.9-0.9-1.5c3.7-4.2,8.3-7.6,12.3-11.5c1.2-1.2,2.3-2.4,3.4-3.6
			c0.1,1.8,0.2,3.7,0.3,5.4c-0.4,0.5-0.9,1-1.4,1.5C143.8,187.1,139.1,190.4,133.9,192.6z"/>
		<path class="st22" d="M142.6,230.1c3.1-2,6.1-4.2,8.9-6.6c0,1.4,0,2.8-0.1,4.2c-1.1,1.3-2.3,2.6-3.5,3.8c-3.1,3.3-6.3,6.6-9.4,9.9
			c-1.4,1.6-3.2,2.9-4.7,4.4c-1.1,1.2-2,2.6-2.6,4.1h-1.8c0.4-3.6,1.4-7.1,2.9-10.4C134.2,235.6,139.1,232.6,142.6,230.1z"/>
		<path class="st23" d="M103,166.9c-5.5-9.8-15.6-16.2-22.5-24.6c-2.1-2.5-3.9-5.2-5.7-8c2.6-7,3.9-14.3,4-21.7l70.2,23
			c0,0-1.6,29.3,0.3,51s4.5,49.5-2,63.4H65c1.4-7.8,4.1-15.3,8-22.2C83.3,210.2,116,190.9,103,166.9z"/>
		<path class="st24" d="M85.1,212c-3.2-11-6.9-22.8-8.1-34.4c-1.4-14.7,4.6-28.9,12.1-41.6c3.3-5.7,6.9-11.2,10.7-16.5l43.2,14.1
			c2.8,24.1,1.5,50-5.1,72.6c-3.8,13.6-10.4,26-15,39.6c-0.4,1.4-0.8,2.8-1.2,4.2h-20.6c-0.6-1.4-1.2-2.8-1.9-4.2
			C94,234.5,88.6,224.1,85.1,212z"/>
		<path class="st25" d="M85.3,212.7c12.7-13.6,27.1-28.5,17.7-45.8c-4.7-8.4-12.7-14.2-19.2-20.9c1.6-3.4,3.4-6.8,5.4-10
			c3.3-5.7,6.9-11.2,10.7-16.5l43.2,14.1c2.8,24.1,1.5,50-5.1,72.6c-3.8,13.6-10.4,26-15,39.6c-0.4,1.4-0.8,2.8-1.2,4.2h-20.6
			c-0.6-1.4-1.2-2.8-1.9-4.2C94.2,234.7,88.8,224.5,85.3,212.7z"/>
		<path class="st26" d="M78.8,112.6l70.2,23c0,0-1.2,21.8-0.3,41.7c-25.7-6.8-58.2-18.5-78.3-33.8C79.2,129.1,78.8,112.6,78.8,112.6
			z"/>
		<path class="st24" d="M54.2,111.3L54.2,111.3c-3.9-11.6,7.5-20.6,15.7-26s20.3-19.8,20.3-19.8l59.5,5.3c0,0,9.4,16.4,16.5,23.2
			s20.5,21.4,9.7,31.8c-0.4-6.1-1.9-14.2-6.6-19.5c0,0,5.5,10.5,3.4,25.7c-3,4.5-6.7,8.4-11,11.6c-2.2,1.7-4.6,3.3-7,4.8
			c2.3-6.2,3.6-12.7,4-19.3c-1.9,8.2-5.5,16-10.5,22.8c-11,5.1-23.4,6.6-35.6-1.5c-10.7,4.6-20.5,3.2-29.1-1.1
			c-2.1-6.3-3-12.9-2.5-19.6c-1.9,5.2-3,10.5-3.5,16c-4.4-3.2-8.5-6.8-12.1-10.9c-4.8-5.1-8.3-11.2-10.3-17.9
			c1.3-4.3,3.3-8.3,5.8-12C58.4,106.9,56.2,109,54.2,111.3z"/>
		<path class="st25" d="M141.1,137.6c-4.3,1.9-7.4,5.9-11.2,8.6c-5,3.1-14,3.6-19.8,3.3c-7.9-0.7-15-8.8-20.2-14.1
			c-7.1-7.4-11-18.1-14-27.8c-2.4-7.5-4.1-15.2-5-23.1c8.1-5.9,19.3-19.1,19.3-19.1l59.5,5.3c0,0,9.4,16.4,16.5,23.2
			s20.5,21.4,9.7,31.8c-0.4-6.1-1.9-14.2-6.6-19.5c0,0,5.5,10.5,3.4,25.7c-2.3,3.6-5.2,6.8-8.4,9.5c-2-1.6-4.2-2.8-6.7-3.6
			c0.6-2.9,1-5.8,1.1-8.8c-0.6,2.8-1.5,5.6-2.6,8.3C151.4,136,145.9,135.6,141.1,137.6z"/>
		<path class="st27" d="M163.6,105.3L163.6,105.3c2.7,4.4,4.4,9.4,4.9,14.5c0.6,5,0.8,10.6-0.9,15.4c-0.1,0.2-0.4,0.1-0.4-0.1
			C169.6,125.6,168.7,113.8,163.6,105.3z"/>
		<path class="st27" d="M165.5,110.2c1.6,5.3,1.4,10.6,1,16.1s-1,10.8-2.9,15.9c-0.1,0.1-0.2,0.1-0.3,0.1c-0.1,0-0.1-0.1-0.1-0.2
			c1.7-5.1,2.2-10.5,2.7-15.8s0.9-10.7-0.5-16C165.4,110.3,165.4,110.2,165.5,110.2C165.4,110.2,165.5,110.2,165.5,110.2z"/>
		<path class="st27" d="M159.8,115.7c2.6,7.2,2.1,14.8,1.3,22.3c0,0.1-0.1,0.2-0.2,0.2s-0.2-0.1-0.2-0.2
			C161.1,130.5,162.1,123.1,159.8,115.7C159.8,115.7,159.8,115.7,159.8,115.7z"/>
		<path class="st27" d="M151.2,124.6c0-0.1,0.1-0.1,0.1,0c0.9,8.9-2.4,19-9,25.2c-0.1,0.1-0.4-0.1-0.2-0.2
			C148.1,142.7,151.9,133.9,151.2,124.6z"/>
		<path class="st27" d="M148.3,127.9C148.3,127.9,148.4,127.9,148.3,127.9c-0.7,6.8-2.7,13-7.5,18c-0.1,0.1-0.4-0.1-0.2-0.2
			C145.2,140.6,147.4,134.6,148.3,127.9z"/>
		<path class="st27" d="M135.1,134c0-0.2,0.3-0.3,0.3-0.1c0.5,7.1,0.1,14.6-3.6,20.9c-0.1,0.2-0.5,0-0.4-0.2
			C134.8,148.3,135.5,141,135.1,134z"/>
		<path class="st27" d="M133.6,138.1c0-0.1,0.1-0.1,0.1,0c0.4,4.7-0.8,9.4-3.3,13.4c-0.1,0.2-0.5,0-0.4-0.2
			C132.6,147.3,133.9,142.7,133.6,138.1z"/>
		<path class="st27" d="M92.9,130.4c-0.5,7,0.2,13.7,3.9,19.9c0.1,0.1-0.2,0.3-0.3,0.2C92.7,144.4,92.2,137.4,92.9,130.4
			C92.8,130.3,92.9,130.4,92.9,130.4z"/>
		<path class="st27" d="M91.2,130.8c-1.2,6.9-0.3,14,2.5,20.4c0.1,0.1-0.1,0.2-0.2,0.1C90.7,144.8,89.8,137.7,91.2,130.8
			C91.1,130.8,91.2,130.8,91.2,130.8z"/>
		<path class="st27" d="M87.2,125.4c-2.4,5.9-2.5,12-1.2,18.2c0,0,0,0.1-0.1,0.1c0,0-0.1,0-0.1-0.1
			C84.3,137.6,84.8,131.2,87.2,125.4C87.1,125.4,87.2,125.4,87.2,125.4z"/>
		<path class="st27" d="M85.3,127.3c-1.1,3.3-2,6.8-2.7,10.2 M82.6,137.6c0.7-3.5,1.5-6.9,2.7-10.2L82.6,137.6z"/>
		<path class="st27" d="M79.6,116.9c-3.9,7.2-6.1,15.2-6.6,23.4c0,0.3-0.5,0.3-0.5,0C72.8,131.8,75.4,124.3,79.6,116.9
			C79.5,116.8,79.6,116.8,79.6,116.9z"/>
		<path class="st27" d="M78.2,115.1c0-0.1,0.2,0,0.1,0.1c-1.9,3.4-4.4,6.5-5.9,10.1c-1.5,3.9-2.6,8-3.2,12.2c0,0.2-0.4,0.2-0.4,0
			c0.5-4.2,1.6-8.3,3.3-12.3C73.6,121.5,76.2,118.5,78.2,115.1z"/>
		<path class="st27" d="M73.7,91.3c-6.8,8.5-9.6,19-11.2,29.5c0,0.1-0.2,0.1-0.2,0C63.7,110.2,66.7,99.7,73.7,91.3
			C73.6,91.2,73.7,91.2,73.7,91.3z"/>
		<path class="st27" d="M69,97.3c-4.5,7.2-7.4,15.2-8.7,23.6c0,0.2-0.4,0.2-0.4,0C61.2,112.5,64.3,104.5,69,97.3L69,97.3z"/>
		<path class="st27" d="M74.8,105.6c-5.3,6.9-7.4,14.9-8.5,23.4c0,0.1-0.1,0.2-0.2,0.2s-0.2-0.1-0.2-0.2
			C66.3,120.5,69.4,112.3,74.8,105.6C74.7,105.6,74.8,105.6,74.8,105.6z"/>
		<path class="st27" d="M176,111.5c0,0.1,0,0.2-0.1,0.3c-0.1,0-0.2,0-0.2-0.1c-4.5-9-11.3-16.7-19.6-22.3l0,0
			C164.7,94.8,171.7,102.1,176,111.5z"/>
		<path class="st27" d="M55.7,103.4c3.4-3.9,7.1-7.4,11-10.7c3.5-3,7.3-6.2,11.5-8l0,0C74.1,86.7,70.5,90,67,93
			c-3.9,3.3-7.6,6.9-11,10.6C55.8,103.7,55.6,103.6,55.7,103.4z"/>
		<path class="st27" d="M74.6,89.4C74.6,89.4,74.7,89.4,74.6,89.4c-6.2,4.1-10.9,9.6-15.9,15c-0.1,0.1-0.2-0.1-0.2-0.2
			C63.5,98.8,68.3,93.3,74.6,89.4z"/>
		<path class="st21" d="M141.6,65.4c0,0,3-12.8,17.3-19.7s22.1,18.1,12.1,30.3c-5.7,6.9-20.5,5.5-20.5,5.5L141.6,65.4z"/>
		<path class="st22" d="M159.1,45.7c2.2,1,4.3,2.4,6,4.1c3.7,3.7,5.6,8.9,6.2,14c0.6,4.1,0.4,8.3-0.4,12.4l0.1-0.1
			C181,63.9,173.4,39.1,159.1,45.7z"/>
		<path class="st24" d="M166.8,48.8c-4.8-0.7-13.7,7.5-15.3,16.8c-1.1,6.3,4.5,13.9,6.4,13.9s9.9-1.8,13-7.6S171.8,49.5,166.8,48.8z
			"/>
		<path class="st25" d="M163.2,49.6c-2.6,4.7-3.6,10.4-4.1,15.7c-0.5,4.7,0,9.4,1.4,13.9c-0.8,0.2-1.7,0.4-2.6,0.4
			c-1.9,0-7.5-7.6-6.4-13.9C152.8,58.3,158.5,51.8,163.2,49.6z"/>
		<path class="st27" d="M162.8,70.9c0.1,0,0.1-0.2,0-0.2c-2.9-0.8-6-1.3-9-1.5c3.4-1.3,7.1-1.9,10.8-2c0.2,0,0.2-0.3,0-0.3
			c-3.7-0.2-7.4,0.1-11,1.1c0.8-0.7,1.6-1.4,2.4-2.1c2.9-2.3,6.2-4.9,10-5.5c0.1,0,0.1-0.1,0.1-0.1c0,0,0-0.1-0.1-0.1
			c-3.4,0.2-6.4,1.9-9.1,3.8c-0.9,0.6-1.9,1.3-2.8,2c1.9-2.1,3.9-4.1,6-5.9c0.1-0.1,0-0.3-0.1-0.2c-2.6,2.1-5.1,4.3-7.3,6.8
			c0.7-1.3,1.5-2.5,2.4-3.7c2.5-3.3,5.4-6.3,8.7-8.9c0.1,0,0-0.1-0.1-0.1c-3.3,2.2-6.2,4.7-8.9,7.6c-1.2,1.5-2.4,3.1-3.4,4.7
			c-0.1,1.3,0,2.6,0.3,3.9h0.7C155.9,70,159.4,70.2,162.8,70.9z"/>
		<path class="st21" d="M99.3,61.6c0,0-0.6-13.1-13.5-22.5s-25,13.8-17.4,27.6c4.3,7.8,19.2,9.1,19.2,9.1L99.3,61.6z"/>
		<path class="st22" d="M85.7,39c-2.4,0.6-4.7,1.6-6.7,3c-4.3,3-7.1,7.7-8.6,12.6c-1.3,3.9-1.9,8.1-1.8,12.3l-0.1-0.1
			C60.8,53,72.8,30,85.7,39z"/>
		<path class="st24" d="M77.5,40.7c4.9,0.2,12.1,9.9,12,19.3c-0.1,6.4-7,12.9-8.8,12.5s-9.4-3.5-11.4-9.9S72.5,40.5,77.5,40.7z"/>
		<path class="st25" d="M78.9,41c4.8,1.7,10.7,10.4,10.6,19c-0.1,6.4-7,12.9-8.8,12.5c-1.2-0.3-2.4-0.8-3.5-1.4
			c1.9-4,2.6-8.8,2.7-13.5C80.4,52,80,46.5,78.9,41z"/>
		<path class="st27" d="M77.5,63.1c-0.1,0-0.1-0.2,0-0.2c3.1-0.3,6.1-0.2,9.2,0.1c-3.2-1.9-6.6-3.2-10.2-3.9c-0.2,0-0.1-0.3,0-0.3
			c3.7,0.4,7.3,1.5,10.7,3.1c-0.7-0.8-1.3-1.7-2-2.5c-2.4-2.8-5.2-6-8.8-7.2c-0.1,0-0.1-0.1-0.1-0.1s0.1-0.1,0.1-0.1
			c3.3,0.8,5.9,3.1,8.3,5.4c0.8,0.8,1.6,1.6,2.3,2.4c-1.5-2.4-3.1-4.7-4.9-6.9c-0.1-0.1,0.1-0.3,0.2-0.2c2.2,2.5,4.2,5.2,6,8
			c-0.5-1.4-1-2.8-1.7-4.1c-1.8-3.8-4.4-7-6.9-10.3c-0.1-0.1,0-0.1,0.1-0.1c2.8,2.7,5.3,5.8,7.3,9.1c0.9,1.7,1.8,3.4,2.4,5.2
			c-0.1,1.3-0.5,2.6-1,3.8l-0.7-0.2C84.5,63.4,81,63.1,77.5,63.1z"/>
		<path class="st21" d="M113.8,136.9c40.4,3.7,54-20.5,53.4-30.2c-4.6-14.8-8.2-15.5-13.6-28.7c-6.8-16.5-19-19.6-32.5-20.8
			S95,56.8,85.3,71.8c-7.7,12-11.4,12.1-18.6,25.8C64.4,107,73.4,133.2,113.8,136.9z"/>
		<path class="st28" d="M66.7,97.5c5.2-10,8.6-12.7,13-18.1c5.5,4.6,6.3,12.8,1.7,18.3c-3.7,4.4-9.8,5.9-15.1,3.7
			C66.3,100.1,66.4,98.8,66.7,97.5z"/>
		<path class="st28" d="M151,96.8c0.4-4.3,2.9-8.1,6.6-10.2c3.4,6.1,6.2,9.4,9.5,20.2c0,1.3-0.1,2.7-0.4,3.9
			c-7,1.5-13.9-2.9-15.5-9.9C151,99.4,150.9,98.1,151,96.8z"/>
		<path class="st22" d="M110.1,61.2c2.9-1,6.3-0.3,9.1-1.8c0-0.8,0.1-1.6,0.1-2.4l1.8,0.2l1.5,0.2c-0.1,0.5-0.2,1-0.2,1.6
			c0,0.2,0,0.3-0.1,0.5c0.9,0.6,1.9,1.2,2.8,1.7c2,1.3,4.2,2.3,6.2,3.5c2.4,1.4,8.1,3.5,7.3,7c-0.2,0.5-0.7,0.7-1.2,0.6
			c-1.6-0.7-2.9-2.5-4.2-3.7c-2-1.6-4.1-2.9-6.3-4.1c-1.7-0.9-3.3-1.9-4.8-3.2c-0.1,0.8-0.2,1.6-0.4,2.4c2.9,1.5,5.8,2.8,8.2,5
			c1.7,1.6,4.7,4.8,4.4,7.4c0,0.2-0.2,0.4-0.4,0.4c-0.1,0-0.2-0.1-0.3-0.1c-2-2.5-4.4-4.8-6.9-6.8c-1.9-1.5-3.6-3.1-5.2-4.8
			l-0.1,0.8c-0.2,1.2-0.2,2.5-0.3,3.7c1.8,2.4,3.8,4.6,6,6.6c1.9,1.8,3.6,4.4,3.3,7.1c0,0.3-0.3,0.5-0.6,0.5c-0.1,0-0.3-0.1-0.4-0.2
			c-0.9-1.1-1.6-2.2-2.3-3.4c-1-1.3-2-2.4-3.2-3.5c-1.3-1.3-2.3-2.8-3-4.4c0,0.2,0,0.3,0,0.4c-0.1,1.1-0.3,2.2-0.6,3.3
			c0.4,1.6,1,3.1,1.7,4.6c1,2,2.4,4.2,2.2,6.4c0,0.3-0.3,0.4-0.5,0.4c-0.1,0-0.2-0.1-0.3-0.2c-1.6-1.8-2.3-4.5-3.2-6.6
			c-0.1-0.2-0.2-0.5-0.3-0.7c-0.2,0.6-0.5,1.2-0.8,1.7c-1.2,1.8-2.5,4.3-4.3,5.5c-0.1,0.1-0.2,0.1-0.3,0c0,0,0,0,0,0
			c-0.8-1.7,0.5-3.3,1.4-4.6c1.3-1.9,2.5-3.9,3.3-6c-0.1-1.9-0.1-3.8-0.2-5.7c-0.9,1.8-2.2,3.3-3.8,4.5c-2.2,1.8-4.9,3-6.5,5.4
			c-0.3,0.5-1,0.1-1-0.4c0.1-2.3,2.1-3.8,3.8-5c2.8-1.7,5.3-3.7,7.5-6.1c0-0.8,0-1.5,0-2.3c0-1.7,0-3.3,0.1-5
			c-1.4,1.1-3.3,1.5-5.3,1.8c-1.9,0.1-3.8,0.7-5.5,1.8c-1.5,1.1-2.3,3-3.9,4c-0.5,0.3-0.9-0.2-0.9-0.7
			C103.5,65,107.3,62.1,110.1,61.2z"/>
		<path class="st22" d="M83.8,89.6c-2.1-3.2-3.4-7-3.5-10.8l0.3-0.4c0.7,4.4,2.2,8.4,5.4,11.8c1.8,1.7,3.8,3.3,5.9,4.6
			c1.5,1,3.3,1.9,3.7,3.7c0.1,0.5-0.3,0.9-0.7,1c-0.2,0-0.4,0-0.6-0.1c-0.7-0.5-1.2-1-1.7-1.7c-1.2-1.1-2.4-2.1-3.8-2.9
			C86.8,93.3,85.1,91.6,83.8,89.6z"/>
		<path class="st22" d="M79.1,93.4c-2-3.2-2.2-7.1-2-10.8l0.9-1.1c0.2,3.6,1.1,7.1,2.6,10.3c1.2,2.5,3.2,3.6,5.8,4.4
			c1.8,0.5,3.3,1.8,4,3.5c0.2,0.5-0.1,1-0.6,1.2c-0.2,0.1-0.4,0.1-0.6,0c-1.9-0.6-3.8-2.2-5.5-3.2C81.8,96.7,80.2,95.2,79.1,93.4z"
			/>
		<path class="st22" d="M72,102c-1.5-2-1.7-4.8-1.7-7.1c0-1.3,0-2.6,0.1-3.8c0.5-0.8,1-1.6,1.5-2.2c0.1,3.5,0.7,7,1.8,10.3
			c1.9,5.5,7.8,3.5,11.6,6c0.4,0.3,0.5,0.9,0.2,1.3c-0.1,0.2-0.3,0.3-0.6,0.4c-2.3,0.3-5-0.6-7.3-1.3C75.4,105,73.5,103.7,72,102z"
			/>
		<path class="st22" d="M74.4,107.5c2.6,0.1,6.6,0.6,8.1,2.9c0.2,0.4,0,0.9-0.4,1.1c0,0,0,0,0,0c-1.1,0.4-2.3,0.3-3.3-0.2
			c-1.8-0.6-3.6-1-5.5-1.2c-1.8-0.2-3.5-0.5-5.2-0.9c-0.2-0.6-0.5-1.2-0.7-1.9C69.8,107.4,72.1,107.4,74.4,107.5z"/>
		<path class="st22" d="M142.1,99.7c2.6-1.1,5-2.4,7.4-3.8c3.8-2.5,5.9-6.4,7.4-10.6c0.1,0.2,0.2,0.3,0.3,0.5
			c-0.9,3.8-2.7,7.2-5.4,10c-1.4,1.5-3.1,2.8-5,3.8c-1.2,0.7-2.6,1.3-3.8,1.9s-1.9,1.6-3.1,2c-0.7,0.2-1.5-0.3-1.2-1.1
			C139.3,100.8,140.7,100.4,142.1,99.7z"/>
		<path class="st22" d="M147.4,102.1c2.5-0.5,4.5-0.8,6.4-2.5c2.8-2.6,4.2-6.7,5.3-10.6c0.2,0.4,0.4,0.7,0.6,1.1
			c-0.3,3.5-1.5,6.8-3.4,9.8c-1.3,1.8-3.1,3.1-5.1,3.9c-1.2,0.5-2.4,0.8-3.6,1.2c-0.9,0.5-2,0.9-3,1.2c-0.5,0.1-1-0.3-1.1-0.8
			c0-0.2,0-0.5,0.1-0.7C144.4,103.3,145.8,102.3,147.4,102.1z"/>
		<path class="st22" d="M147.5,110.8c1.7-0.7,3.5-0.4,5.3-0.4c2.7,0,4.9-0.6,6.7-2.7s2.3-4.8,2.9-7.2c0.3-1.2,0.7-2.3,1-3.5
			c0.4,0.9,0.9,1.9,1.3,2.9c-0.3,3.7-1.1,7.3-3.4,10c-1.4,1.7-3.7,2.2-5.8,2.6c-2.4,0.4-5.7,0.8-8.1,0c-0.5-0.2-0.7-0.7-0.5-1.2
			C147.1,111.1,147.3,110.9,147.5,110.8z"/>
		<path class="st22" d="M157.8,115.1c2.4,0.2,4.6,0.7,6.9,1.1c-0.3,0.6-0.6,1.2-1,1.8c-1.5,0.1-3,0.1-4.5,0c-1.9-0.2-3.8-0.2-5.6,0
			c-1.6,0.2-2.7,0.6-4.1-0.2c-0.4-0.3-0.5-0.8-0.2-1.2c0,0,0,0,0,0C151.2,114.4,155.2,114.8,157.8,115.1z"/>
		<g class="st29">
			<path class="st30" d="M130.9,94.5c2.9,5.4,10.1,5.3,15.2,3.9c2.6-0.7,5-2.2,6.7-4.4c1.2-1.6,1.7-4.8,0-6.1
				c-0.2-0.2-0.5-0.2-0.7,0c-0.4,0.5-0.6,1-0.6,1.6c-0.3,1-0.9,2-1.7,2.7c-1.4,1.3-3,2.3-4.9,2.8c-2,0.7-4.1,1.1-6.2,1.1
				c-2.8,0.1-5-0.9-7.5-1.9c-0.1,0-0.2,0-0.3,0.1C130.9,94.3,130.9,94.4,130.9,94.5L130.9,94.5z"/>
		</g>
		<path class="st31" d="M150.8,63.5c-4.3,4-7.5,9-9.4,14.5c-0.1,0.2,0.1,0.5,0.3,0.5c0.2,0.1,0.4,0,0.5-0.2
			c2.6-5.1,4.7-10.4,8.7-14.7C150.9,63.5,150.8,63.4,150.8,63.5z"/>
		<path class="st31" d="M151.8,68.6c0.1-0.1,0-0.2-0.1-0.2c-3.7,2.2-6.6,5.6-8.3,9.7c-0.2,0.4,0.4,0.6,0.6,0.2
			C145.8,74.5,148.4,71.2,151.8,68.6z"/>
		<path class="st31" d="M153.5,72.7c-3.1,1.3-5.8,3.3-7.9,5.8c-0.2,0.2,0.2,0.6,0.4,0.4c2.2-2.4,4.8-4.4,7.6-6.1
			c0,0,0.1-0.1,0.1-0.1S153.6,72.7,153.5,72.7C153.6,72.7,153.5,72.7,153.5,72.7z"/>
		<path class="st31" d="M142.4,67.2c0-0.1-0.1-0.1-0.1,0c-1.8,3.4-2.5,7.3-2,11.1c0,0.1,0.1,0.2,0.3,0.2c0.1,0,0.2-0.1,0.2-0.2
			C140.9,74.4,140.8,70.8,142.4,67.2z"/>
		<path class="st22" d="M153.6,89c0.6-7.4-6.4-12.4-13.1-11S129,87.1,131,93.7c0,0.6,0.5,1,1,1s1-0.5,1-1c0.7-4.8,2.7-9.1,7.4-11.1
			c2.6-1.1,5.3-0.3,7.6,1.1c1.2,0.7,2.3,1.6,3.3,2.6c0.7,1,1.4,1.9,2.1,2.8C153.5,89.1,153.6,89.1,153.6,89
			C153.6,89,153.6,89,153.6,89L153.6,89z"/>
		<path class="st24" d="M131,94.4c2.2,2.4,14.6,6.3,22.6-5.4c0,0-2.5-11-12.5-9.7C131.4,80.4,131,94.4,131,94.4z"/>
		<path class="st25" d="M141.1,79.2c-9.7,1.2-10.1,15.2-10.1,15.2s10.4-18.9,22.5-5.4v-0.1C153.5,88.9,151.1,78,141.1,79.2z"/>
		<path class="st32" d="M140.4,80.5c-1.2-0.1-2.4,0-3.6,0.4c-5.5,4-5.8,13.5-5.8,13.5c1.8,1.9,9.9,4.8,17.2-0.1c0.4-1,0.7-2,0.8-3.1
			C149.6,85.9,145.8,81.1,140.4,80.5C140.4,80.5,140.4,80.5,140.4,80.5z"/>
		<path class="st33" d="M131,94.3v-0.1c0,0,0,0,0-0.1c0,0,0-0.1,0-0.1l0,0c0.1-1.9,1-9.6,5.8-13.1c1.2-0.4,2.4-0.5,3.6-0.4
			c2.8,0.3,5.3,1.8,6.9,4.1C138,81.7,131,94.4,131,94.3L131,94.3C131,94.4,131,94.3,131,94.3z"/>
		<path class="st22" d="M131.4,90c0,3.9,3.1,7.1,7,7.1s7.1-3.1,7.1-7c0-3.9-3.1-7.1-7-7.1c0,0-0.1,0-0.1,0
			C134.6,83,131.4,86.1,131.4,90z"/>
		<g>
			<path class="st34" d="M143.5,85c-0.1,1.3-1.3,2.3-2.6,2.1c-1.3-0.1-2.3-1.3-2.1-2.6c0.1-1.3,1.3-2.3,2.6-2.1
				C142.7,82.5,143.7,83.7,143.5,85C143.5,85,143.5,85,143.5,85z"/>
			<path class="st35" d="M140.8,89.3c-0.1,0.8-0.8,1.4-1.6,1.3c-0.8-0.1-1.4-0.8-1.3-1.6c0.1-0.8,0.8-1.4,1.6-1.3
				C140.2,87.8,140.8,88.5,140.8,89.3C140.8,89.3,140.8,89.3,140.8,89.3z"/>
		</g>
		<g class="st29">
			<path class="st30" d="M104.1,91.2c-3.9,4.8-10.9,3.3-15.7,0.9C86,91,83.9,89,82.7,86.6c-0.9-1.8-0.8-5,1.2-6
				c0.2-0.1,0.5-0.1,0.7,0.2c0.3,0.5,0.4,1.1,0.3,1.7c0.1,1.1,0.5,2.1,1.1,3c1.1,1.5,2.5,2.8,4.2,3.7c1.8,1.1,3.8,1.8,5.9,2.3
				c2.8,0.6,5.1,0.1,7.8-0.5c0.1,0,0.2,0.1,0.3,0.2C104.2,91.1,104.2,91.2,104.1,91.2L104.1,91.2z"/>
		</g>
		<path class="st31" d="M90.4,57.3c3.5,4.7,5.8,10.2,6.6,15.9c0,0.2-0.2,0.4-0.4,0.4c-0.2,0-0.4-0.1-0.4-0.3
			C94.6,67.9,93.5,62.3,90.4,57.3C90.3,57.3,90.4,57.2,90.4,57.3z"/>
		<path class="st31" d="M88.4,62.2c-0.1-0.1,0-0.2,0.1-0.2c3.3,2.9,5.5,6.7,6.4,11c0.1,0.4-0.6,0.5-0.7,0.1
			C93.3,69.1,91.3,65.3,88.4,62.2z"/>
		<path class="st31" d="M86,65.8c2.8,1.8,5.1,4.3,6.8,7.2c0.2,0.3-0.3,0.6-0.5,0.3c-1.7-2.7-3.9-5.2-6.4-7.3c0,0-0.1-0.1,0-0.1
			S86,65.8,86,65.8L86,65.8z"/>
		<path class="st31" d="M98,62.5c0-0.1,0.1-0.1,0.1,0c1.2,3.7,1.2,7.6,0,11.3c-0.1,0.1-0.2,0.2-0.3,0.1c-0.1,0-0.1-0.1-0.1-0.2
			C98.2,69.8,98.9,66.3,98,62.5z"/>
		<path class="st22" d="M83,81.8c0.8-7.3,8.6-11.1,14.9-8.5s9.6,11.1,6.5,17.2c-0.1,0.6-0.7,0.9-1.2,0.8s-0.9-0.7-0.8-1.2
			c0.2-4.9-1-9.5-5.3-12.3c-2.4-1.6-5.2-1.3-7.7-0.3c-1.3,0.4-2.6,1.1-3.7,2c-0.9,0.8-1.6,1.7-2.6,2.4c-0.1,0-0.1,0-0.2,0
			C83,81.9,82.9,81.9,83,81.8L83,81.8z"/>
		<path class="st24" d="M104.3,91.3c-2.6,2-15.4,3.6-21.3-9.4c0,0,4.4-10.4,14.1-7.3C106.4,77.5,104.3,91.3,104.3,91.3z"/>
		<path class="st25" d="M97.1,74.5c9.3,2.9,7.2,16.8,7.2,16.8s-6.8-20.5-21.2-9.4v-0.1C83.1,81.8,87.5,71.5,97.1,74.5z"/>
		<path class="st32" d="M97.6,75.9c1.2,0.1,2.4,0.5,3.4,1.1c4.7,5,3.3,14.3,3.3,14.3c-2.1,1.6-10.6,2.9-17-3.2
			c-0.2-1-0.3-2.1-0.2-3.2C87.5,79.6,92.2,75.6,97.6,75.9C97.6,75.9,97.6,75.9,97.6,75.9z"/>
		<path class="st33" d="M97.6,75.9c1.2,0.1,2.4,0.5,3.4,1.1c4.1,4.3,3.6,12,3.3,13.9l0,0c0,0,0,0.1,0,0.1l0,0c0,0,0,0.1,0,0.1v0.1
			c0,0-4.6-13.8-14.2-12.6C92.1,76.7,94.8,75.7,97.6,75.9z"/>
		<path class="st22" d="M90.5,85.5c0,3.9,3.2,7.1,7.1,7.1s7.1-3.2,7.1-7.1s-3.2-7.1-7.1-7.1l0,0C93.7,78.5,90.5,81.6,90.5,85.5z"/>
		<g>
			<path class="st34" d="M93.6,79.8c-0.1,1.3,0.8,2.5,2.2,2.6c1.3,0.1,2.5-0.8,2.6-2.2c0.1-1.3-0.8-2.5-2.2-2.6
				C94.9,77.5,93.7,78.5,93.6,79.8C93.6,79.8,93.6,79.8,93.6,79.8z"/>
			<path class="st35" d="M95.6,84.5c-0.1,0.8,0.5,1.5,1.3,1.6c0,0,0,0,0,0c0.8,0.1,1.5-0.5,1.6-1.3c0.1-0.8-0.5-1.5-1.3-1.6
				C96.4,83.1,95.7,83.7,95.6,84.5z"/>
		</g>
		<path class="st22" d="M131.8,129.8c0,4-9.5,0-11.1-1.1c-2.8-1.9-4.9-4.8-8.5-2.9c-1.5,0.9-3,1.6-4.6,2.3c-2.3,0.7-4.7,0.8-7.1,0.5
			c-2-0.2-2.6-3-0.5-3.6c1.8-0.5,3.7-0.7,5.6-1.1s3.4-1.4,5-2.2c2.7-1.3,5.8-1,8.2,0.7c2.2,1.4,3.7,3.6,6.2,4.6
			c1.9,0.7,3.9,1.3,5.9,1.6C131.4,128.8,131.7,129.3,131.8,129.8L131.8,129.8z"/>
		<path class="st24" d="M104.2,102.8c-2.4-1.5-12.2-3.3-16.8,5s3.8,27.9,28.2,14.8c21.7,17.3,33.5-0.4,30.5-9.5s-13-9-15.6-8
			L104.2,102.8z"/>
		<path class="st24" d="M115.5,124.4c2.7,0.2,7.3,6.3,15.8,6.5c0,0,6,20.3-18.1,18.1s-14.5-21.1-14.5-21.1
			C107.2,129.3,112.9,124.1,115.5,124.4z"/>
		<path class="st25" d="M122.8,117.3c-7.1,5.3-13.6,0.1-17.1-4.4c-2.6-3.3-4.4-7.1-5.2-11.2c1.3,0.1,2.5,0.5,3.7,1.1l26.3,2.4
			c2.6-1,12.5-1,15.6,8c1.9,5.4-1.7,14.1-9.7,16.2c-0.2-1.1-0.5-2.2-0.9-3.2C133.2,120.2,127.4,113.8,122.8,117.3z"/>
		<path class="st25" d="M117.8,149.1c1.8-3,2.8-6.4,2.9-9.9c0.3-6.2-1.5-11.1-5-14.9c2.7,0.4,7.3,6.3,15.7,6.4
			C131.4,130.8,136.6,148.5,117.8,149.1z"/>
		<path class="st27" d="M119.2,131c-0.2-0.3-0.4-0.6-0.5-1c-0.1-0.3-0.3-0.6-0.4-1c-0.1-0.2,0-0.4,0.2-0.4c0.2-0.1,0.4,0,0.4,0.2
			c0.4,0.6,1,1.3,1,2c0.1,0.2,0,0.4-0.2,0.4C119.5,131.2,119.3,131.2,119.2,131z"/>
		<path class="st27" d="M118.1,130.4c0.3,0.5,0.7,1.2,0.4,1.8c-0.1,0.1-0.3,0.1-0.4,0c0,0,0,0,0,0c-0.4-0.4-0.2-1.1-0.2-1.6
			C117.7,130.4,118,130.2,118.1,130.4z"/>
		<path class="st27" d="M119.2,134.1c0-0.4,0.5-0.5,0.6-0.1c0.1,0.4,0.1,0.9-0.2,1.3c-0.1,0.1-0.4,0.1-0.4-0.1
			C119.2,134.8,119.3,134.4,119.2,134.1z"/>
		<path class="st27" d="M116.5,133.3c0.1,0.5,0.1,1,0.1,1.5c0,0.4-0.7,0.3-0.6-0.1c0.1-0.5,0.1-1,0.1-1.4
			C116.1,133,116.5,133,116.5,133.3z"/>
		<path class="st27" d="M118.1,134.9c0.1,0.3,0.1,0.6,0.2,0.8s-0.5,0.5-0.6,0.1s0-0.6-0.1-0.9c0-0.1,0.1-0.2,0.2-0.3
			C117.9,134.6,118.1,134.7,118.1,134.9L118.1,134.9z"/>
		<path class="st27" d="M114.5,129.6c0.1,0,0.2,0,0.2,0.1c0,0,0,0,0,0c0,0.2,0,0.3,0,0.5c0,0.2-0.1,0.4-0.1,0.5
			c-0.1,0.1-0.2,0.2-0.3,0.2c-0.1,0-0.2-0.1-0.2-0.2C114,130.2,114.2,129.8,114.5,129.6z"/>
		<path class="st27" d="M118,133.6c0.2,0.2,0.2,0.5,0,0.7c-0.1,0.1-0.2,0.1-0.3,0.1c0,0,0,0-0.1-0.1l-0.1-0.1c0-0.1,0-0.2-0.1-0.2
			c-0.1-0.1,0-0.3,0.1-0.4C117.7,133.4,117.9,133.5,118,133.6z"/>
		<path class="st27" d="M116.5,129.7c0.1,0.3,0.2,0.9-0.1,1.1c-0.1,0.1-0.3,0.1-0.3,0c-0.2-0.2-0.1-0.6-0.1-0.9
			c0-0.2,0.1-0.3,0.2-0.4S116.5,129.5,116.5,129.7z"/>
		<path class="st27" d="M116.3,126.3c0.3,0,0.5,0.3,0.6,0.6c0.2,0.3,0.3,0.6,0.2,0.9c0,0.2-0.2,0.3-0.4,0.3c-0.1,0-0.2-0.1-0.3-0.2
			c-0.1-0.2-0.2-0.5-0.2-0.7c-0.1-0.2-0.2-0.4-0.2-0.7C116.1,126.4,116.2,126.3,116.3,126.3C116.3,126.3,116.3,126.3,116.3,126.3z"
			/>
		<path class="st27" d="M122.1,132c-0.2-0.3-0.4-0.7-0.6-1c-0.1-0.1-0.3-0.3-0.3-0.5c0-0.2,0.1-0.3,0.2-0.4c0.3-0.1,0.7,0.3,0.9,0.5
			c0.3,0.3,0.5,0.7,0.5,1.1c0,0.2-0.3,0.4-0.5,0.4C122.3,132.1,122.2,132.1,122.1,132z"/>
		<path class="st27" d="M121.3,132.5c0.3,0.1,0.5,0.6,0.7,0.9c0.2,0.4,0.3,0.8,0.3,1.2c0,0.2-0.4,0.4-0.5,0.2
			c-0.1-0.1-0.2-0.2-0.2-0.4c-0.1-0.2-0.1-0.4-0.2-0.6c-0.1-0.2-0.1-0.4-0.2-0.5c-0.1-0.1-0.2-0.3-0.2-0.4c0-0.1,0.1-0.3,0.2-0.3
			C121.2,132.5,121.2,132.5,121.3,132.5z"/>
		<path class="st27" d="M125.4,134c-0.2-0.3-0.2-0.6-0.5-0.9s0-0.8,0.3-0.6c0.6,0.2,0.9,0.7,0.9,1.3c0,0.2-0.2,0.4-0.4,0.3
			C125.5,134.2,125.4,134.1,125.4,134z"/>
		<path class="st27" d="M125,136c0.1,0.3,0.1,0.5,0.1,0.8c0,0.2-0.2,0.3-0.3,0.2c-0.1,0-0.2-0.1-0.2-0.1c-0.1-0.2-0.2-0.4-0.2-0.6
			c0-0.2-0.1-0.3-0.2-0.5c-0.1-0.2,0-0.4,0.1-0.5c0.1-0.1,0.3-0.1,0.4,0C124.8,135.6,124.9,135.8,125,136z"/>
		<path class="st27" d="M127.6,134.1c-0.1-0.2-0.2-0.5-0.3-0.7c-0.1-0.2-0.2-0.4-0.1-0.7c0-0.1,0.2-0.2,0.3-0.1c0,0,0,0,0,0
			c0.2,0.1,0.3,0.3,0.4,0.5c0.1,0.2,0.3,0.5,0.4,0.7C128.3,134.1,127.9,134.5,127.6,134.1z"/>
		<path class="st27" d="M121.3,137.2c0.2,0.4,0.3,0.9,0.2,1.3c-0.1,0.2-0.3,0.3-0.5,0.2c-0.1,0-0.2-0.1-0.2-0.3c0-0.4,0-0.7,0-1.1
			C120.8,137.1,121.2,136.9,121.3,137.2z"/>
		<path class="st27" d="M118.9,138.6c-0.1,0.4,0,1-0.5,1.1c-0.1,0.1-0.3,0-0.3-0.1c-0.1-0.2-0.1-0.4,0-0.6c0.1-0.2,0.1-0.4,0.2-0.6
			c0.1-0.2,0.2-0.3,0.4-0.2C118.8,138.3,118.9,138.5,118.9,138.6L118.9,138.6z"/>
		<path class="st27" d="M121.1,141.9c-0.1-0.2-0.1-0.4,0-0.6c0.1-0.2,0.1-0.4,0.1-0.7c0-0.2,0.2-0.3,0.4-0.2c0.1,0,0.2,0.1,0.2,0.3
			c0,0.2,0,0.5,0,0.8c0,0.2-0.1,0.5-0.3,0.6C121.4,142.1,121.2,142.1,121.1,141.9C121.1,141.9,121.1,141.9,121.1,141.9z"/>
		<path class="st27" d="M124.8,140.8c0-0.1-0.1-0.2-0.1-0.3s0-0.3,0-0.4s-0.2-0.5-0.1-0.7c0-0.1,0.1-0.1,0.2-0.1
			c0.3,0,0.4,0.4,0.5,0.6c0.1,0.2,0.1,0.3,0.2,0.5c0,0.2,0,0.3-0.1,0.5c-0.1,0.2-0.3,0.3-0.4,0.2C125,141,124.9,140.9,124.8,140.8z"
			/>
		<path class="st27" d="M129,137.9c0.2,0.3,0.4,0.6,0.6,0.9c0.2,0.4,0.1,0.8-0.1,1.1c-0.1,0.1-0.3,0.2-0.4,0.1c0,0-0.1-0.1-0.1-0.1
			c-0.1-0.1-0.1-0.2-0.1-0.3c0-0.1,0-0.3,0-0.5c0-0.3-0.1-0.5-0.3-0.8c-0.1-0.1-0.1-0.3,0-0.4C128.7,137.8,128.9,137.8,129,137.9z"
			/>
		<path class="st27" d="M126.8,143.1c0.3,0.4,0.4,1,0.2,1.5c-0.1,0.2-0.3,0.3-0.5,0.2c-0.1,0-0.2-0.2-0.2-0.3c0-0.2,0-0.4,0-0.5
			c0-0.2,0-0.4,0-0.6C126.3,143.1,126.7,142.8,126.8,143.1z"/>
		<path class="st27" d="M123.4,143.3c0-0.2,0.2-0.3,0.4-0.2c0.1,0,0.2,0.1,0.2,0.3c0.1,0.5-0.1,1.1-0.3,1.6
			c-0.1,0.1-0.2,0.1-0.3,0.1c-0.1,0-0.1-0.1-0.1-0.2c-0.1-0.2-0.1-0.5,0-0.7C123.3,143.8,123.3,143.5,123.4,143.3z"/>
		<path class="st27" d="M123.7,146.3c0-0.2,0.2-0.3,0.4-0.3s0.3,0.2,0.3,0.4l0,0c0,0.5-0.3,0.9-0.7,1.2c-0.3,0.2-0.6-0.2-0.4-0.5
			C123.5,146.9,123.6,146.6,123.7,146.3z"/>
		<path class="st27" d="M120.3,145c0-0.4,0.5-0.3,0.6,0c0.1,0.5,0.2,1.1-0.4,1.4c-0.1,0.1-0.3,0-0.4-0.1c0,0,0-0.1,0-0.1
			c0-0.2,0.1-0.3,0.1-0.5C120.3,145.4,120.3,145.2,120.3,145z"/>
		<path class="st27" d="M117.6,145.5c0.1-0.2,0.3-0.2,0.5-0.1s0.2,0.3,0.1,0.5c0,0-0.1,0.1-0.1,0.1c-0.1,0.1-0.2,0.2-0.2,0.3
			c-0.3,0.3-0.8-0.2-0.5-0.5C117.5,145.7,117.5,145.6,117.6,145.5z"/>
		<path class="st27" d="M119.2,141.9c0.1-0.1,0.3-0.2,0.4-0.1c0,0,0.1,0.1,0.1,0.1c0.1,0.2,0.1,0.5,0.1,0.7c0,0.2-0.1,0.5-0.3,0.7
			c-0.1,0.1-0.3,0.2-0.5,0c-0.1-0.1-0.1-0.2-0.1-0.3c0-0.2,0.1-0.4,0.1-0.6C119,142.3,119,142.1,119.2,141.9z"/>
		<path class="st27" d="M127.8,140.6c0.1,0.2,0.2,0.4,0.2,0.6c0.1,0.2,0.1,0.4,0.1,0.7c0,0.2-0.2,0.3-0.3,0.3
			c-0.1,0-0.2-0.1-0.2-0.2c-0.1-0.4-0.3-0.8-0.3-1.1C127.2,140.4,127.8,140.3,127.8,140.6z"/>
		<path class="st27" d="M129.4,142.7c0-0.2,0.2-0.3,0.4-0.2c0.1,0,0.2,0.1,0.2,0.3c0,0.4-0.1,0.8-0.3,1.1c-0.2,0.2-0.5,0-0.5-0.2
			c0-0.2,0.1-0.3,0.1-0.5C129.4,143,129.4,142.8,129.4,142.7z"/>
		<path class="st27" d="M127.1,136.3c0.1,0.3,0.2,0.5,0.2,0.8c0.1,0.2,0,0.4-0.2,0.4c-0.2,0.1-0.4,0-0.4-0.2l0,0
			c-0.1-0.3-0.1-0.6-0.1-0.8C126.5,136.2,127,136,127.1,136.3z"/>
		<path class="st27" d="M130,135.8c0-0.1-0.1-0.2-0.1-0.2c0-0.1,0-0.2,0-0.4c0-0.2,0-0.4,0-0.6c0-0.2,0.1-0.4,0.3-0.4
			c0.2,0,0.4,0.1,0.4,0.3c0.1,0.2,0.1,0.5,0.2,0.7c0.1,0.2,0,0.5-0.1,0.7c-0.1,0.2-0.3,0.2-0.4,0.1C130.1,135.9,130,135.8,130,135.8
			z"/>
		<path class="st27" d="M103,117.2L103,117.2c-0.6,0-0.5-1,0.1-0.9l0,0c0.3,0.1,0.4,0.3,0.4,0.6C103.4,117,103.2,117.1,103,117.2
			L103,117.2z"/>
		<path class="st27" d="M100.4,115.2c-0.4-0.2-0.4-0.7-0.2-1.1s0.7-0.4,1.1-0.2l0,0c0.4,0.2,0.4,0.7,0.2,1.1
			S100.8,115.5,100.4,115.2z"/>
		<path class="st27" d="M100,117.8c-0.4,0-0.7-0.4-0.6-0.8s0.4-0.7,0.8-0.6s0.7,0.4,0.6,0.8S100.4,117.9,100,117.8L100,117.8z"/>
		<path class="st27" d="M95.6,116.6c-0.4,0-0.7-0.4-0.6-0.8s0.4-0.7,0.8-0.6l0,0c0.4,0,0.7,0.4,0.6,0.8S96,116.6,95.6,116.6z"/>
		<path class="st27" d="M101.7,121.3c-0.3-0.1-0.5-0.4-0.4-0.7c0.1-0.3,0.3-0.5,0.5-0.5c0.3,0.1,0.5,0.4,0.4,0.7
			C102.2,121.1,102,121.3,101.7,121.3z"/>
		<path class="st27" d="M107.2,118.8c-0.3,0-0.6-0.3-0.6-0.7c0-0.3,0.3-0.6,0.7-0.6s0.6,0.3,0.6,0.7
			C107.8,118.6,107.5,118.9,107.2,118.8L107.2,118.8z"/>
		<path class="st27" d="M103.6,119.2L103.6,119.2c-0.2-0.3-0.1-0.6,0.1-0.8h0.1c0.2-0.2,0.6-0.2,0.8,0.1c0.1,0.1,0.2,0.3,0.1,0.4
			c0,0.3-0.3,0.5-0.6,0.5C103.9,119.4,103.7,119.4,103.6,119.2L103.6,119.2z"/>
		<path class="st27" d="M97.8,122.2c-0.4,0-0.7-0.4-0.6-0.8s0.4-0.7,0.8-0.6s0.7,0.4,0.6,0.8S98.1,122.3,97.8,122.2z"/>
		<path class="st27" d="M100.2,120c-0.3,0-0.5-0.3-0.5-0.5s0.3-0.5,0.5-0.5s0.5,0.3,0.5,0.5S100.4,120,100.2,120L100.2,120z"/>
		<path class="st27" d="M106.2,115.1L106.2,115.1c-0.3,0-0.5-0.3-0.5-0.6l0,0c0-0.3,0.3-0.5,0.6-0.5c0.3,0,0.5,0.3,0.5,0.6
			C106.8,114.9,106.5,115.1,106.2,115.1C106.2,115.1,106.2,115.1,106.2,115.1L106.2,115.1z"/>
		<path class="st27" d="M107,122.4c-0.3-0.1-0.4-0.4-0.3-0.7c0.1-0.2,0.2-0.3,0.4-0.3c0.3,0.1,0.4,0.4,0.3,0.7
			C107.3,122.2,107.2,122.4,107,122.4z"/>
		<path class="st27" d="M127.9,119.4L127.9,119.4c0.6,0.1,0.7-0.9,0.1-0.9l0,0c-0.3,0-0.5,0.2-0.5,0.5
			C127.5,119.2,127.7,119.4,127.9,119.4L127.9,119.4z"/>
		<path class="st27" d="M130.8,118c0.9-0.4,0.3-1.8-0.6-1.4c-0.4,0.2-0.5,0.7-0.3,1.1C130.1,118,130.5,118.1,130.8,118z"/>
		<path class="st27" d="M130.7,120.7c0.4,0,0.7-0.2,0.8-0.6c0-0.4-0.2-0.7-0.6-0.8s-0.7,0.2-0.8,0.6
			C130.1,120.3,130.3,120.6,130.7,120.7L130.7,120.7z"/>
		<path class="st27" d="M135.3,120.2c0.4,0,0.7-0.2,0.8-0.6c0-0.4-0.2-0.7-0.6-0.8s-0.7,0.2-0.8,0.6
			C134.6,119.9,134.9,120.2,135.3,120.2L135.3,120.2z"/>
		<path class="st27" d="M128.5,123.8c0.3,0,0.6-0.3,0.6-0.6c0-0.3-0.2-0.5-0.5-0.5c-0.3,0-0.6,0.3-0.6,0.6
			C128,123.5,128.2,123.7,128.5,123.8z"/>
		<path class="st27" d="M123.5,120.3c0.3,0,0.6-0.2,0.7-0.6s-0.2-0.6-0.6-0.7l0,0c-0.3,0-0.6,0.2-0.7,0.6S123.2,120.3,123.5,120.3z"
			/>
		<path class="st27" d="M127,121.4L127,121.4c0.3-0.2,0.3-0.5,0.1-0.7v-0.1c-0.2-0.2-0.6-0.3-0.8-0.1c-0.2,0.2-0.3,0.6-0.1,0.8
			C126.5,121.6,126.8,121.6,127,121.4L127,121.4z"/>
		<path class="st27" d="M132.2,125.4c0.4,0,0.7-0.2,0.8-0.6c0-0.4-0.2-0.7-0.6-0.8l0,0c-0.4,0-0.7,0.2-0.8,0.6
			C131.5,125,131.8,125.4,132.2,125.4z"/>
		<path class="st27" d="M130.2,122.7c0.3,0,0.5-0.2,0.5-0.5s-0.2-0.5-0.5-0.5s-0.5,0.2-0.5,0.5S130,122.7,130.2,122.7L130.2,122.7z"
			/>
		<path class="st27" d="M125.2,116.8L125.2,116.8c0.3,0,0.5-0.2,0.6-0.5l0,0c0-0.3-0.2-0.5-0.5-0.6c-0.3,0-0.5,0.2-0.6,0.5
			C124.7,116.5,124.9,116.8,125.2,116.8L125.2,116.8z"/>
		<path class="st27" d="M123.1,123.9c0.3,0,0.5-0.3,0.4-0.6c0-0.2-0.2-0.3-0.3-0.4c-0.3,0-0.5,0.3-0.4,0.6
			C122.8,123.6,122.9,123.8,123.1,123.9z"/>
		<path class="st22" d="M116.1,119.7c0.2,1.4,0.2,2.8,0,4.2c0,0.2-0.2,0.2-0.4,0.2c-0.1,0-0.2-0.1-0.2-0.2c-0.3-1.3,0.3-2.9,0.4-4.2
			C116,119.7,116,119.7,116.1,119.7C116.1,119.7,116.1,119.7,116.1,119.7z"/>
		<path class="st36" d="M115.7,115.5c0,0-12.2-7.3-12.7-12.8s12.8-33.2,16.9-32.8s12.2,30,10.7,35.3S115.7,115.5,115.7,115.5z"/>
		<path class="st37" d="M119.2,110.3c-3.8,4.8-7.9-0.9-8.8-4.8c-1.2-5,1.8-14,3.9-20.7c1.3-4.4,1.1-7,0-8.8c2.3-3.7,4.4-6.2,5.7-6.1
			c1,0.1,2.2,1.9,3.5,4.8c-1.5,4.3-0.9,10.7-1.2,15.4C121.9,96.1,123.4,105.2,119.2,110.3z"/>
		<path class="st38" d="M115.5,117.9c4.7,0.4,18.6-9.7,14.1-14.7s-9.5-0.9-12.7-1.2s-7.4-5.2-12.7-1.2S110.8,117.5,115.5,117.9z"/>
		<path class="st39" d="M111.7,103.4c3.8,2.3,1.8,7.4,0.8,10.1c-0.4,1-0.4,2.1,0,3.1c-3.2-2.1-5.9-4.9-7.9-8.2
			C104.2,102.7,108.6,101.5,111.7,103.4z"/>
		<path class="st39" d="M121.9,104.3c-4.1,1.6-3.2,7-2.6,9.8c0.2,1.1,0,2.2-0.5,3.1c3.5-1.5,6.7-3.8,9.2-6.6
			C129.3,105,125.2,103,121.9,104.3z"/>
		<path class="st40" d="M114.8,102.2c1.4,0.3,2.3,1.1,3.9,0.8c1.3-0.3,2.5-0.9,3.8-1.3c1.9-0.4,3.9,0.2,5.1,1.8
			c0.1,0.1,0,0.3-0.2,0.2c-3.1-1.4-5.4-0.1-8.3,0.8c-1.8,0.6-3.7,0-4.9-1.5C113.9,102.6,114.4,102.2,114.8,102.2z"/>
		<path class="st40" d="M112.5,101c0.3,0,0.5,0.1,0.7,0.2c0.2,0.2,0.3,0.4,0.5,0.7s-0.1,0.6-0.4,0.6s-0.5,0-0.7-0.1
			c-0.4-0.1-0.8-0.7-0.6-1.1C112.1,101.1,112.3,101,112.5,101z"/>
		<path class="st40" d="M110.2,100.4c0.2-0.1,0.4-0.1,0.6,0c0.1,0.1,0.3,0.2,0.4,0.3c0.2,0.1,0.3,0.4,0.1,0.6
			c-0.1,0.1-0.2,0.2-0.4,0.2c-0.4,0-0.9-0.1-1-0.5C109.9,100.7,110,100.5,110.2,100.4z"/>
		<path class="st31" d="M74.3,106.6c8.3,0.8,17.1,2.2,24.2,6.8c0.2,0.1,0,0.4-0.2,0.3C90.8,110,82.7,107.6,74.3,106.6L74.3,106.6
			L74.3,106.6z"/>
		<path class="st31" d="M70.8,110c4.7-0.5,9.5-0.3,14.1,0.7c4.3,0.8,8.8,1.6,12.8,3.6c0.2,0.1,0.1,0.3-0.1,0.3
			c-4-2-8.4-2.7-12.7-3.5C80.2,110,75.5,109.7,70.8,110L70.8,110L70.8,110z"/>
		<path class="st31" d="M40.9,136.4c6.2-5.6,14-9.6,21.6-12.8c10.2-4.3,22-7.7,33.1-6.3c0.1,0,0.2,0.1,0.2,0.3
			c0,0.1-0.1,0.2-0.2,0.2c-11.3-0.3-22.5,1.9-32.8,6.3c-7.6,3.1-15.6,7-21.8,12.4C41,136.4,40.9,136.4,40.9,136.4L40.9,136.4z"/>
		<path class="st31" d="M44.6,143.4c6-7.4,14-12.5,22.6-16.4c9.1-4.1,18.7-7,28.6-8.6c0.1,0,0.3,0.1,0.3,0.2c0,0.1-0.1,0.2-0.2,0.3
			c-18.3,4.9-38,9.8-51.1,24.6C44.7,143.6,44.5,143.5,44.6,143.4z"/>
		<path class="st31" d="M66.5,143c6.8-10.5,17.4-19.2,29.5-22.7c0.3-0.1,0.4,0.4,0.2,0.5c-5.8,2.5-11.4,5-16.5,8.8
			C74.6,133.3,70.2,137.9,66.5,143C66.6,143,66.5,143,66.5,143C66.5,143,66.5,143,66.5,143L66.5,143z"/>
		<path class="st31" d="M158,114.2c-8.3-0.7-17.2-0.9-25,2.3c-0.2,0.1-0.1,0.4,0.1,0.3C141.2,114.6,149.6,113.7,158,114.2L158,114.2
			L158,114.2z"/>
		<path class="st31" d="M160.9,118.2c-4.5-1.3-9.3-2-14-1.9c-4.4,0-8.9-0.1-13.2,1.2c-0.2,0-0.1,0.3,0.1,0.3
			c4.3-1.2,8.7-1.2,13.1-1.2C151.6,116.5,156.3,117.1,160.9,118.2L160.9,118.2L160.9,118.2z"/>
		<path class="st31" d="M185.6,149.5c-5.1-6.6-12.1-12-19-16.5c-9.2-6.1-20.3-11.6-31.5-12.1c-0.1,0-0.2,0.1-0.2,0.3
			c0,0.1,0.1,0.2,0.2,0.2c11.1,1.8,21.8,5.9,31.2,12.2C173.1,137.9,180.3,143.1,185.6,149.5C185.5,149.6,185.5,149.6,185.6,149.5
			C185.6,149.5,185.6,149.5,185.6,149.5L185.6,149.5z"/>
		<path class="st31" d="M180.6,155.7c-4.6-8.4-11.5-14.8-19.3-20.2c-8.2-5.6-17.2-10.2-26.6-13.5c-0.1,0-0.3,0-0.3,0.1
			s0,0.3,0.1,0.3c17.1,8.2,35.6,16.5,45.8,33.4C180.5,156,180.7,155.9,180.6,155.7L180.6,155.7z"/>
		<path class="st31" d="M159.2,151.4c-4.7-11.6-13.6-22-24.9-27.6c-0.3-0.1-0.5,0.3-0.2,0.4c5.3,3.5,10.3,7,14.6,11.7
			C153,140.5,156.5,145.7,159.2,151.4C159.1,151.5,159.2,151.5,159.2,151.4z"/>
	</g>
</g>
</svg>
