<?xml version="1.0" encoding="utf-8"?>
<!-- Generator: Adobe Illustrator 24.3.0, SVG Export Plug-In . SVG Version: 6.00 Build 0)  -->
<svg version="1.1" id="Layer_29" xmlns="http://www.w3.org/2000/svg" xmlns:xlink="http://www.w3.org/1999/xlink" x="0px" y="0px"
	 viewBox="0 0 260 250" style="enable-background:new 0 0 260 250;" xml:space="preserve">
<style type="text/css">
	.st0{fill:#EFF1F1;}
	.st1{fill:#C67838;}
	.st2{fill:#E5974F;}
	.st3{fill:#EEBD8E;}
	.st4{fill:#EB9600;}
	.st5{fill:#FFC422;}
	.st6{fill:#FEE19B;}
	.st7{fill:#DBD3D0;}
	.st8{fill:#FFFFFF;}
	.st9{fill:#E2BC8A;}
	.st10{fill:#FEE1B7;}
	.st11{fill:#FEF4E5;}
	.st12{fill:#93430D;}
	.st13{fill:#B55C1A;}
	.st14{fill:#C47D48;}
	.st15{fill:#EAAC72;}
	.st16{fill:#B90000;}
	.st17{fill:#E21011;}
	.st18{fill:#CECECE;}
	.st19{fill:#2AC8FF;}
	.st20{fill:#0079FF;}
	.st21{fill:#00418E;}
	.st22{fill:#FFD04E;}
	.st23{fill:#FFE19C;}
	.st24{fill:#670001;}
	.st25{fill:#F66C7D;}
	.st26{fill:#F8919D;}
	.st27{fill:#AA2F41;}
	.st28{fill:#EE7070;}
</style>
<rect class="st0" width="260" height="250"/>
<g>
	<path class="st1" d="M63.1,78.3c-2.9,0.7-3.4,19.5,3.7,33.3c-1.3-6-1.9-11-0.5-12.2c1.7-1.4,3.9,3.5,5,6.6
		c-0.7-4.5-0.9-9.8,0.4-11.4C69.2,85.8,65.7,77.7,63.1,78.3z"/>
	<path class="st2" d="M63.1,78.3c-2.9,0.7-3.4,19.5,3.7,33.3c-1.3-6-1.9-11-0.5-12.2c1.7-1.4,3.9,3.5,5,6.6
		C70.7,101.5,65.7,77.7,63.1,78.3z"/>
	<path class="st3" d="M62.9,78.4c-2.8,1.3-3.1,19.6,3.9,33.2c-0.7-3.1-1.1-5.9-1.3-8.1C62.5,95.6,61,86.8,62.9,78.4z"/>
	<path class="st1" d="M70.1,63.6c-3.7,0.4-5.3,17.2,0.7,34.7c0.1-2.1,0.6-3.7,1.6-4c2-0.6,4.6,4.3,5.4,5.9
		c0.2-5.4,0.4-14.1,2.4-14.6c0,0,0,0,0.1,0C78.8,76.2,73.8,63.2,70.1,63.6z"/>
	<path class="st2" d="M70.1,63.6c-3.7,0.4-5.3,17.2,0.7,34.7c0.1-2.1,0.6-3.7,1.6-4c2-0.6,4.6,4.3,5.4,5.9
		C78.8,89.1,73.8,63.2,70.1,63.6z"/>
	<path class="st3" d="M69.5,63.8c-3.2,2-4.4,17.9,1.3,34.4c0.1-1.8,0.4-3.2,1.1-3.8C70,87.1,66.2,67.3,69.5,63.8z"/>
	<path class="st1" d="M90.6,48.9c-4.1,1.1-4.4,10.3-2.2,24.2c0.2-0.1,0.4-0.1,0.5-0.1c3.6,0.1,6.1,6.6,7,9c0.3-3.7,0.1-9.3,2.6-10
		c0.9-0.3,1.7,0.1,2.4,1C99,60.7,93.9,48,90.6,48.9z"/>
	<path class="st2" d="M90.6,48.9C86.6,50,95,79.7,95.9,82c0.3-3.7,0.1-9.3,2.6-10c0.9-0.3,1.7,0.1,2.4,1C99,60.7,93.9,48,90.6,48.9z
		"/>
	<path class="st3" d="M91.1,48.9c4.3,2.6,7.3,16,7.5,23.1c0.9-0.2,1.6,0.2,2.3,1.1C99.1,61.3,94.4,49.3,91.1,48.9z"/>
	<path class="st1" d="M81.3,53.2c-4.2,0.5-7.9,11.1-2.2,33.9c0.3-0.9,0.7-1.4,1.1-1.5c2-0.5,4.2,3.2,5,6.6c-1.4-8.7,0-19.2,3.6-19.1
		c1.6,0,3,1.4,4.1,3.1C89.9,61.4,85.5,52.7,81.3,53.2z"/>
	<path class="st2" d="M81.3,53.2c-4.2,0.5-2.4,20.9,4,39c-1.4-8.7,0-19.2,3.6-19.1c1.6,0,3,1.4,4.1,3.1
		C89.9,61.4,85.5,52.7,81.3,53.2z"/>
	<path class="st3" d="M81.6,53.2c3.8,2.1,7.1,11.5,9,20.4c0.9,0.6,1.7,1.5,2.4,2.5C90,61.7,85.7,53.1,81.6,53.2z"/>
	<path class="st4" d="M180.2,185.3c-4.9-1.4-22.1-1.3-28.8-4.4c-0.7,0.9-2,1.6-4.4,1.3c2.5,2,1,6.9-7.2,3.2c0,0.8-0.4,1.8-1,2.6
		c6.9,4,24.9,4.7,28.4,4.4c0.9,0.6,1.2,2.8,0.4,4.5c-0.9,1.9-2.4,2.4-3.1,4.6c-0.6,1.7,1,4.2,5,3.5c3.6-0.6,6.6-5.6,7.4-9.4
		c3.5-0.3,8.9,2.6,10.3,10.5c0.6,3.4,0.3,6.3,2.7,7.6c2.4,1.3,4.9-0.7,5.4-3.8c2.8,2.3,5.2-3,2.2-9.3
		C194.6,194.3,189.9,188.1,180.2,185.3z"/>
	<path class="st5" d="M180.2,185.3c-4.7-1.3-21-1.3-28.1-4.1c-2.2,1.2-3.1,4.4,0.4,6.6c2.8,1.7,13.5,3.1,15,3
		c0.9,0.6,0.9,4.4,0.1,6.1c-0.9,1.9-2.4,2.4-3.1,4.6c-0.6,1.7,1.2,3.6,5.1,2.3c3.5-1.2,5.9-7.5,5.5-11.1c3.5-0.3,12.9,4.3,14.3,12.3
		c0.9,5.4,4.1,8.3,5.4,6.6c0.7-0.8,0.7-3.8,0.2-5.9c2,3.9,5.5,1.2,2.6-5C194.6,194.3,189.9,188.1,180.2,185.3z"/>
	<path class="st6" d="M179.9,189.6c9.3,4.4,15.6,13.3,15,21.7C197.7,202.7,187.7,191.2,179.9,189.6z"/>
	<path class="st6" d="M180.2,185.3c-4.5-1.3-19.8-1.3-27.3-3.8c7.1,3.8,21.1,3.1,28,5.2c2.9,0.9,9.6,3,15.7,12
		C193.6,193.1,189,187.8,180.2,185.3z"/>
	<path class="st7" d="M164.4,201.8c-1.9,1.8-1.7,6.9-0.9,7c0.4,0,1.1-1.8,2.2-2.8c0.9-1,1.6-1.5,1.5-2.2
		C166.9,202.3,165.7,200.5,164.4,201.8z"/>
	<path class="st8" d="M164.4,201.8c-1.9,1.8-1.7,6.9-0.9,7c0,0,0,0,0,0c0.4-2.5,1.8-4.2,3.4-5.9
		C166.5,201.7,165.4,200.8,164.4,201.8z"/>
	<path class="st7" d="M196.1,208c-0.5,0.7-0.2,1.8-0.3,3c-0.1,1.3-0.2,2.3,0,2.5c0.5,0.5,3-3,3-4.9
		C198.7,207.5,196.8,206.9,196.1,208z"/>
	<path class="st8" d="M196.7,207.5c0.3,3.4-0.8,4.1-0.9,6c0.5,0.4,3-3,2.9-4.9C198.7,207.7,197.5,207.2,196.7,207.5z"/>
	<path class="st7" d="M190.7,211.8c-0.7,0.8-0.1,1.6-0.2,2.9c-0.2,1.5-0.4,2.3-0.1,2.6c0.6,0.5,3.9-2.7,4-4.9
		C194.4,210.5,191.7,210.6,190.7,211.8z"/>
	<path class="st8" d="M191.6,211.2c0.5,3.2-0.4,4.1-1.1,6.1c0.6,0.4,3.9-2.8,3.9-4.9C194.4,210.9,192.8,210.7,191.6,211.2z"/>
	<path class="st9" d="M152.7,167.2c-0.2,0-0.3,0.1-0.4,0.1c-4.1,1.3-13.3,8-29,8.8c1,5.6,8.1,9.5,11.1,9.3c-1,1.2-1,3.6,1.3,4
		c2.4,0.4,4.1-2.3,4.1-4.1c8.2,3.7,9.6-1.2,7.2-3.2c3.9,0.4,4.9-1.7,5.1-2.9c0.2-1.2-1.1-2.3-3-1.4
		C152.4,175.4,154.2,169.7,152.7,167.2z"/>
	<path class="st10" d="M152.7,167.2c-0.2,0-0.3,0.1-0.4,0.1c-3,0.9-8.7,4.8-17.7,7.1c-0.7,7.6,14.1,12.1,9.8,6.3
		c2.9,0.8,6.6,1.7,7.7-1c0-0.1,0.1-0.3,0.1-0.4c0.2-1.2-1.1-2.3-3-1.4C152.4,175.4,154.2,169.7,152.7,167.2z"/>
	<path class="st11" d="M152.7,167.2c-0.2,0-0.3,0.1-0.4,0.1c-0.3,0.1-0.6,0.2-1,0.4c1.6,3.6-1,8.8-4,11.5c1.9-1.1,4.1-1.6,4.8-0.4
		c-0.2-0.9-1.3-1.6-3-0.9C152.4,175.4,154.2,169.7,152.7,167.2z"/>
	<path class="st9" d="M181.5,125c-0.6,0.1-1.7,2.1-3.2,2c-1.5-0.2-1.9-2.7-3-2.9c-1.1-0.2-5.2,1.9-8.3,1.2c-3.1-0.7-3.2-4.2-4.2-4.6
		c-1-0.5-3.8,0.4-5.8-1c-1.9-1.4-2.4-4.7-3.5-5.1c-1.2-0.4-4,0.6-6.4-1.8c-2.3-2.4-0.3-6.1-1.6-7.2c-1.3-1.1-3.9,0.9-6-0.4
		c-2.1-1.3-1.5-5.2-2.6-6.4c-1.9-2.2-7-2.2-8.5-3.2c-5.2,1.7-11,2.1-16.1-0.5c-4.5-2.3-7.3-9.1-8.4-13.9c-1.2-5-2.7-9.8-5.4-9
		c-2.5,0.8-2.3,6.3-2.6,10c-0.9-2.3-3.4-8.9-7-9c-3.6-0.1-5,10.4-3.6,19.1c-0.8-3.4-3-7.1-5-6.6c-2,0.5-2.2,9.2-2.4,14.6
		c-0.9-1.6-3.4-6.5-5.4-5.9c-2,0.6-1.8,6.6-1,11.8c-1.1-3-3.4-8-5-6.6c-1.7,1.4-0.5,8.2,1.3,15.8c1.8,7.5,0.7,31.2,9.3,44
		c5.1,7.6,12.1,8.9,16.1,10.4c3.9,1.5,7.1,5.7,24.3,6.5c19.4,1,30.3-7.3,34.9-8.8c4.6-1.4,14.8-1.5,22.7-9.4
		c7.2-7.2,11.9-20.8,9.1-29.7C182.7,128.2,182.1,125,181.5,125z"/>
	<path class="st10" d="M157,119.6c-1.9-1.4-2.4-4.7-3.5-5.1c-1.2-0.4-4,0.6-6.4-1.8c-2.3-2.4-0.3-6.1-1.6-7.2
		c-1.3-1.1-3.9,0.9-6-0.4c-2.1-1.3-1.5-5.2-2.6-6.4c-1.9-2.2-7-2.2-8.5-3.2c-5.2,1.7-11,2.1-16.1-0.5c-4.5-2.3-7.3-9.1-8.4-13.9
		c-1.2-5-6.1-7.1-7.1,7.4c-0.9-2.3-4.1-9.4-6.2-8.4c-3.8,1.8-3.8,11.9-3.6,19.1c-0.8-3.4-3.2-6.9-5.2-6.5c-2,0.5-2.2,8.2-2.4,13.6
		c-0.9-1.6-2.8-4.4-4.8-3.8c-2,0.6-2.5,4-1.7,9.1c-4-6.4-1.2,31.9,7.3,44.8c2.3,3.5,5.8,8.2,13.1,10.6c7.4,4,17.1,7.3,27.2,6.1
		c6.8-0.8,13.9-5.7,20-6.1c4.3,2.7,14.5-3.5,12.5-17.3C162.6,154.9,170.4,132.4,157,119.6z"/>
	<path class="st8" d="M93.9,224.1c-2.6,0.6-4.6,5.2-4.1,5.9c1.6-1.7,3.6-3.2,6-3.5C95.8,225.1,95.3,223.7,93.9,224.1z"/>
	<path class="st4" d="M141.5,225.4c4-1.6,2-5.5-2.8-5.9c-4.1-0.3-8.5,1.2-11.9,1c-1.6-0.1-6.9-0.6-9-2.8c-2.4-4-3-21-0.2-29
		c-1.1-0.6-1.7-1.9-2.1-2.7c-0.4,0.6-2,2.8-4.8,2.2c-2.5-0.5-2.5-2.7-2.8-3.5c-0.2,0.2-0.8,0.5-1.4,0.7c-2.5,14.6,1.2,31.8,0.5,33.9
		c-0.8,2.2-4,3.1-6.3,3.3c-2.3,0.2-5.8-0.7-6.8,1.7c-1,2.4,1.4,5.9,5.1,6.3c3.6,0.4,8.8-2.6,13-2.3c2.3,1.2,9.6,8.9,17.5,11.2
		c8.1,2.3,10.4-1.7,8.1-5.6c3.4,1.4,8.4,1.2,9.6-1.4C148.5,229.8,145.9,226.4,141.5,225.4z"/>
	<path class="st5" d="M141.5,225.4c-2.2-0.5-4.5-0.5-5.4-0.6c6.6-0.1,7.6-2.7,6.9-3.5c-0.8-1-2.3-1.7-4.3-1.9
		c-4.1-0.3-8.5,1.2-11.9,1c-1.6-0.1-6.9-0.6-9-2.8c-2.2-3.6-2.9-18-0.9-26.6c-3.5-1.9-7.6,2.6-8.4,6.7c-0.7,4.1,0.9,19.6,0.3,21.2
		c-0.8,2.2-5.8,3.4-8.1,3.6c-2.3,0.2-5.8-0.7-6.8,1.7c-1,2.4,1.7,3.5,5.3,3.9c3.6,0.4,10.7-3.1,13-2.2c2.3,0.9,9.4,9,17.3,11.3
		c8.1,2.3,9.9-0.2,8.1-3.4c-0.6-0.9-3.1-3-5.1-3.7c3.7,0.1,6.3,2.4,9.3,2.9c2.8,0.5,5.1-0.1,5.4-0.7
		C148.5,229.8,145.9,226.4,141.5,225.4z"/>
	<path class="st6" d="M126.9,220.5c-1.6-0.1-6.9-0.6-9-2.8c-2-3.3-2.7-15.4-1.4-24.1c-3.2,3.5-2.3,22,1.2,25.4
		c2.1,2,7.3,2.8,10.9,2.6c3.9-0.2,10-2.4,13.8-0.7c-0.9-0.7-2.1-1.2-3.7-1.3C134.6,219.3,130.2,220.8,126.9,220.5z"/>
	<path class="st6" d="M141.5,225.4c-2.2-0.5-4.5-0.5-5.4-0.6c-6.7-0.2-11.7-0.6-15.5-3.3c5.2,5.4,15.7,3.7,21,4.9
		c3.2,0.7,5.7,1.8,5.9,5.3C148.1,229.3,145.6,226.3,141.5,225.4z"/>
	<path class="st6" d="M132.6,230.1c-6.2-2.7-11.6-1.7-14-6.6c1.7,7.3,13.5,4.1,19.6,11.6c-0.1-0.4-0.3-0.9-0.5-1.3
		C137.1,232.9,134.6,230.8,132.6,230.1z"/>
	<path class="st7" d="M138.3,236.2c-1.3-0.7-2.9,1.2-2.3,2.3c0.4,0.8,1.4,0.6,2.3,1.2c1,0.7,1.9,1.3,2.2,1.2
		C141,240.8,139.9,237.1,138.3,236.2z"/>
	<path class="st8" d="M138.3,236.2c-1-0.5-2.1,0.4-2.4,1.4c1.8,0.6,3.6,1.4,4.5,3.4c0,0,0,0,0,0C141,240.8,139.9,237.1,138.3,236.2z
		"/>
	<path class="st7" d="M142.8,221.6c-1.3-0.1-1.6,1.7-0.8,2.3c0.6,0.4,1.3,0.3,2.3,0.5c1,0.1,2,0.4,2.2,0.2
		C146.9,224.2,144.3,221.7,142.8,221.6z"/>
	<path class="st8" d="M142.8,221.6c-0.9-0.1-1.4,0.9-1.2,1.6c1.1-0.1,3.5,0.6,4.9,1.3C146.7,224,144.3,221.7,142.8,221.6z"/>
	<path class="st7" d="M147.2,229.6c-1.8-0.6-2.5,2.1-1.7,3.5c0.6,1,1.5,0.6,2.8,1.1c1.4,0.6,2.2,1.1,2.6,0.9
		C151.5,234.7,149.3,230.3,147.2,229.6z"/>
	<path class="st8" d="M147.2,229.6c-1.4-0.5-2.2,1.2-2,2.6c1.3-0.1,4.4,2.1,5.6,2.9c0,0,0,0,0,0
		C151.5,234.7,149.3,230.3,147.2,229.6z"/>
	<path class="st9" d="M95.1,168.4c2.3,3.3,4.3,10.3,8.8,12.8c-1.6,0.2-2.2,2.6-0.7,3.8c1.8,1.5,4.2,0.1,4.8-0.3
		c0.2,0.9,0.3,3,2.7,3.5c2.8,0.5,4.4-1.7,4.8-2.2c0.5,1.1,1.5,3.2,3.7,2.9c2.8-0.4,1.7-3.8,2-4.2c0.4-0.6,6.1-2.6,9.9-6.9
		c2.2-2.4,4.1-6.7,6.8-9.2c0.8-0.8,1.5-1.3,2.8-1.6l-47.2,0C94.1,167.3,94.6,167.7,95.1,168.4z"/>
	<path class="st10" d="M93.5,167c1.8,0.1,4.6,1.2,6,2.7c2.7,3,3.1,7.6,7.6,10.2c-1.4,1.2-0.6,3.1,2.2,2.8c0.4,5.5,5.4,2.8,6.4,1.3
		c0.9,1.1,1.3,3.5,2.8,3.6c2.9,0.2,2.3-2.5,2.6-2.9c0.4-0.6,6.1-2.6,9.9-6.9c2.2-2.4,4.1-6.7,6.8-9.2c0.8-0.8,1.5-1.3,2.8-1.6
		c0,0-7.9-5.7-24.5-5.9C99.5,160.9,93.5,167,93.5,167z"/>
	<path class="st11" d="M132.8,171.1c-1.7,2.5-4.2,9.6-11,13.2c1.6-0.9,6.1-2.9,9.3-6.5c2.2-2.4,4.1-6.7,6.8-9.2
		c0.6-0.6,1.1-1,1.9-1.3C137.9,167.2,134.5,168.6,132.8,171.1z"/>
	<path class="st9" d="M133.7,104.1c-0.9-0.5-1.8-0.8-2.9-0.8l-18.9,2.2c-1.2-0.3-2.2-0.3-3.4-0.1c-8.3,1.7-11.4,8.3-10.7,10.4
		c0.7,2.1,5.3,4.7,10.3,3.7c-10.2,5.6-12,10.8-10.9,13.6c1,2.9,7.6,4.8,12.8,2.9c-5.7,5.1,1.7,11.5,11.2,4.9
		c-1,3.3,4.7,7.3,14.7,0.8c0,0,0,0,0,0c0.9-0.8,1.8-1.6,2.6-2.5C150.6,126.6,143.3,109.1,133.7,104.1z"/>
	<path class="st10" d="M135.4,105.8c-1.3-1.2-2.6-2-4.6-2.4c0,0-6.6-0.9-10.5-0.4c-3.8,0.5-8.4,2.5-8.4,2.5
		c-1.2-0.3-2.2-0.3-3.4-0.1c-8.3,1.7-11.4,8.3-10.7,10.4c0.7,2.1,5.3,4.7,10.3,3.7c-10.2,5.6-12,10.8-10.9,13.6
		c1,2.9,7.6,4.8,12.8,2.9c-5.7,5.1,3.4,7.9,12.9,1.2C134.5,145.4,147.4,116.9,135.4,105.8z"/>
	<path class="st1" d="M82.7,120.7c0.9,2.2,10.3-1.9,15.5-4.1c-0.2-0.3-0.3-0.5-0.4-0.8c-0.6-1.9,1.9-7.7,8.8-9.9
		C93.1,108.9,81.7,118.2,82.7,120.7z"/>
	<path class="st2" d="M83,119.3c5.1-3.1,10.1-5.9,15.8-7.5c1.3-2.2,3.9-4.6,7.8-5.8C95,108.5,85,115.7,83,119.3z"/>
	<path class="st1" d="M97.7,115.8c-0.1-0.4-0.1-1,0-1.6C77.1,120,68,133.5,69,135.4c0.9,1.6,21.6-6.6,32.6-11.6
		c1.6-1.4,3.7-2.8,6.4-4.3C103,120.6,98.4,117.9,97.7,115.8z"/>
	<path class="st2" d="M97.7,115.8c-0.1-0.4-0.1-1,0-1.6c-17.4,4.8-26.6,15.2-28.4,19.5c8.5-7.7,20.7-12.7,30.9-15.4
		C98.9,117.6,98,116.7,97.7,115.8z"/>
	<path class="st1" d="M121.1,140.9c-4.8,3.3-9,3.4-11.3,2c-6.2,3.5-10.4,6.7-9.2,8.1c2.3,2.8,21.5,2.5,35.1-9.1
		C125.8,148.2,120.2,144.2,121.1,140.9z"/>
	<path class="st2" d="M122.5,144.2c-7.5,4.6-13.9,6.9-20.2,7.7c5.5,1.6,21.5,0.1,33.4-10C129.3,146,124.7,145.8,122.5,144.2z"/>
	<path class="st1" d="M121.1,140.9c-9.5,6.6-16.9,0.2-11.2-4.9c-1.3,0.5-2.8,0.7-4.2,0.8c-9.8,5.5-25.1,10.3-24.7,13.1
		c0.4,3.2,22.3,5.6,40.4-6.9C121,142.4,120.9,141.7,121.1,140.9z"/>
	<path class="st2" d="M121.1,140.9c-5.6,3.9-10.4,3.3-12.4,1.1c-8,4.3-17.4,6.3-26.6,6.2c-0.8,0.6-1.2,1.2-1.1,1.7
		c0.4,3.2,22.3,5.6,40.4-6.9C121,142.4,120.9,141.7,121.1,140.9z"/>
	<path class="st1" d="M97.1,133.1c-0.5-1.3-0.3-3.1,0.9-5.2c-11.1,4.6-26.8,14.2-26.7,16.8c0.2,3.2,16.6,3.9,36.6-5.5
		c0.2-1,0.8-2.1,1.9-3.2C104.7,138,98.1,136,97.1,133.1z"/>
	<path class="st2" d="M97.9,134.4c-7.6,3.6-15.7,6.1-24,7.3c-1.6,1.3-2.6,2.4-2.6,3.1c0.2,3.2,16.6,3.9,36.6-5.5
		c0.2-1,0.8-2.1,1.9-3.2C105.5,137.7,100.1,136.5,97.9,134.4z"/>
	<path class="st1" d="M101.8,119.1c-29.5,10.1-37.4,20.3-36.5,22.3c0.8,1.9,17.2-1,31.6-8.9c-0.5-2.9,1.7-7.8,11.1-13
		C105.8,120,103.6,119.7,101.8,119.1z"/>
	<path class="st2" d="M101.8,119.1c-29.5,10.1-37.4,20.3-36.5,22.3c0.8,1.9,23.5-6.1,31.8-11.4c0.8-2.8,3.9-6.5,10.9-10.4
		C105.8,120,103.6,119.7,101.8,119.1z"/>
	<path class="st12" d="M127.9,134.1c-8.1,5-9.4-1.6-7.2-5.3c-9.4,3.4-13.9-4.8-6.5-11.2c-10.2-4.6-8.2-10.5-3.6-12.4l0,0
		c-0.7,0-1.3,0.1-2,0.2c-8.3,1.7-11.4,8.3-10.7,10.4c0.7,2.1,5.3,4.7,10.3,3.7c-10.2,5.6-12,10.8-10.9,13.6c1,2.9,7.6,4.8,12.8,2.9
		c-5.7,5.1,1.7,11.5,11.2,4.9c-1,3.3,4.7,7.3,14.7,0.8c0,0,0,0,0,0c0.9-0.8,1.8-1.6,2.6-2.5c2-2,3.4-4.2,4.4-6.4l0,0
		C136.6,141.1,127.9,139.9,127.9,134.1z"/>
	<path class="st13" d="M127.9,134.1c-8.1,5-9.4-1.6-7.2-5.3c-9.4,3.4-13.9-4.8-6.5-11.2c-10.2-4.6-8.2-10.5-3.6-12.4l0,0
		c-0.7,0-1.3,0.1-2,0.2c-8.3,1.7-11.4,8.3-10.7,10.4c0.7,2.1,5.3,4.7,10.3,3.7c-10.2,5.6-12,10.8-10.9,13.6c1,2.9,9.2,3.8,15.3,1.2
		c-3.6,5.1,0.9,9.6,10.4,2.9c2.3,1.7,4.9,1.8,7.3,0.8C128.8,137.3,127.9,135.9,127.9,134.1z"/>
	<path class="st14" d="M99.8,127.1c-3,3.2-3.3,9,8.3,7.3C102,133.5,97.9,133.2,99.8,127.1z"/>
	<path class="st14" d="M112.9,135.2c-2.3,2.3-1.5,6.5,6.2,2.9C114.9,139.1,111.2,138.7,112.9,135.2z"/>
	<path class="st14" d="M102.4,117.8c-3.8-2.2-2.2-6.1,3-10.8C99.2,110,95.2,117.1,102.4,117.8z"/>
	<path class="st15" d="M74.8,144.9c5.7,2.1,22.6-1.4,30.6-6.2C100.1,140.8,83.5,146,74.8,144.9z"/>
	<path class="st15" d="M88.9,151.1c5.7,2.1,21-1.7,28.6-6.8C112,146.7,97.6,152.2,88.9,151.1z"/>
	<path class="st15" d="M66,140c7.2-7.3,26.2-15.9,34.4-19.2C90.4,123.6,71.6,131.9,66,140z"/>
	<path class="st15" d="M72.4,130c7-6.8,19.6-12.5,23.8-14.5C86.6,118.5,77.3,124.1,72.4,130z"/>
	<path class="st15" d="M100.4,108.4c-6,1.9-12.3,6.3-15.3,9C88.4,115,97,109.7,100.4,108.4z"/>
	<path class="st16" d="M151.1,22.1c-7,0.9-11.3,6.7-12.6,11.1c-1.5,5.2,0.7,8.6,5,9.8c3.7-6.5,10.3-11.3,20.5-12.5
		C160.5,23.6,155.4,21.7,151.1,22.1z"/>
	<path class="st1" d="M198.9,48.2c-0.4-6.6-8.1-16.1-24.3-17.8c-19.8-2-30.2,6.9-33.4,18.4c-3.8,13.7-0.8,25.6-1.4,29.8
		c-1.4,9.5-12.4,14.4-11.8,16.3c0.5,1.5,6.7,1.1,8.9,3.6c1.1,1.3,0.6,5.1,2.6,6.4c2.1,1.3,4.7-0.7,6,0.4c1.3,1.1-0.7,4.9,1.6,7.2
		c2.3,2.4,5.2,1.3,6.4,1.8c1.2,0.4,1.6,3.7,3.5,5.1c1.9,1.4,4.8,0.6,5.8,1c1,0.5,1.2,3.9,4.2,4.6c3.1,0.7,7.2-1.4,8.3-1.2
		c1.1,0.2,1.6,2.7,3,2.9c1.5,0.2,2.5-1.9,3.2-2c0.6-0.1,1.2,3.1,2.6,3.2c1.4,0.1,6.8-3.3,6.1-13.5c-0.5-6.2-9.6-20.7-5.4-30.8
		c7.4-1.3,11.5-5.6,13.1-10.6c1.6-5-0.1-10.2,0.1-13.1C198.1,56.4,199.2,52.9,198.9,48.2z"/>
	<path class="st2" d="M198.9,48.2c-0.2-2.3-1.2-4.9-3.1-7.4c-3.9,4.8-8.2,7.1-12.2,6.5c-6.4-0.9-13.2-11.3-22.8-11.8
		c-8-0.4-12.9,1.9-16.8,8.8c-0.7,1.4-1.3,3-1.8,4.5c-3.8,13.7,0.6,25.6,0,29.8c-1.4,9.5-9.2,12.8-8.5,14.7c0.5,1.5,3.3,1.2,5.5,3.7
		c1.1,1.3-1.1,4.7,0.9,6c2.1,1.3,5.5-0.3,6.8,0.8c1.3,1.1,0.2,5.2,2,7.4c1.5,1.8,4.5,1.2,5.7,1.7c0.9,0.3,0.8,3,2.7,4.2
		c4.1,2.5,13,0,16.4-5.5c3.7-5.9,0.3-12.7-4.7-18c-6.8-7.2-16.3-8.2-19.8-18.2c14.8,9.7,43.8,9.7,48.6-1.8c0-0.1,0-0.1,0.1-0.2
		c1.6-5-0.1-10.2,0.1-13.1C198.1,56.4,199.2,52.9,198.9,48.2z"/>
	<path class="st16" d="M187.1,69.1c-1.5-3.5-8.5-6.2-14.9-3.8c-3.8,1.1-3.7,9.2-5.2,12.9c-1.4,3.3-2.6,5-3.7,8.1
		c-1.1,3.1-0.8,8.5,2.4,11.6c3.2,3,10.8,3.8,14.5-0.5c2.2,2.7,9.8,3.5,11.6-3.1c1.7-6.5-5.7-13.4-6.2-17.8
		C185,72.6,186.5,70.9,187.1,69.1z"/>
	<path class="st17" d="M185.5,74c-1.2-0.9-1.7,9.6-2.5,9.9c-1.6,0.5-7.2-1.5-10.2-8.3c-0.9-2-2.7-3.8-3.1-0.2
		c-0.4,3.9-2.7,8.3-2.2,14.1c0.3,3.9,3.1,7.7,6.6,8.1c5,0.6,10.4-4,7.2-10.9c4.4,3.5,1.4,8.2,4.5,10.3c2.2,1.4,4.9,0.4,5.9-2.6
		c1.7-6.5-5.7-13.4-6.2-17.8C185.4,75.6,185.4,74.8,185.5,74z"/>
	<path d="M192.1,43.5c-0.8,0.1-1.6,0.6-2.2,1.4c2.6-1.1,5,0.6,6.9,3.1C195.8,45.1,194,43.2,192.1,43.5z"/>
	<path d="M165,41.7c-2.2-0.2-4.4,1.5-5.7,4c2.9-2.6,5.8-3.1,8.8-1.8C167.3,42.7,166.3,41.9,165,41.7z"/>
	<path class="st1" d="M192.2,46.1c-2.8,0.2-5.2,4.4-5.3,9.5c0,3.2,1.2,6.1,3,8c0.7-0.7,3.5-2,5.4-1.7c1.2-1.7,1.9-4,1.9-7
		C197.2,50,195,46,192.2,46.1z"/>
	<path d="M191.5,48.7c-2.5,0.1-4.4,3.5-4.4,7.6c0.1,4.1,2.1,7.4,4.6,7.3c2.5-0.1,4.4-3.5,4.4-7.6C196.1,51.9,194,48.6,191.5,48.7z"
		/>
	<path class="st18" d="M191.6,49.3c-2.4,0.1-4.3,3.4-4.3,7.3c0.1,4,2.1,7.1,4.5,7c2.4-0.1,4.3-3.4,4.3-7.3
		C196,52.3,194,49.2,191.6,49.3z"/>
	<path class="st8" d="M191.6,49.3c-2.4,0.1-4.3,3.4-4.3,7.3c0,1.2,0.2,2.2,0.5,3.2c2.5,1,5.7,1,8-0.7c0.2-0.9,0.3-1.8,0.3-2.8
		C196,52.3,194,49.2,191.6,49.3z"/>
	<path d="M192,49.1c-0.1,0-0.3,0-0.4,0c-2.5,0.1-4.5,3.4-4.4,7.5c0.1,3.8,1.9,6.9,4.2,7.2c0,0,0,0,0,0c0.1,0,0.3,0,0.4,0
		c2.5-0.1,4.5-3.4,4.4-7.5C196.2,52.5,194.4,49.4,192,49.1z M191.8,63.4c-0.1,0-0.3,0-0.4,0c-2.2-0.3-3.9-3.3-3.9-6.8
		c-0.1-3.9,1.8-7.1,4.1-7.2c0.1,0,0.3,0,0.4,0c2.2,0.3,3.9,3.3,3.9,6.8C196,60.1,194.1,63.4,191.8,63.4z"/>
	<path class="st19" d="M191.3,53.5c-1.4,0-2.6,1.9-2.5,4.2c0.1,2.3,1.3,4.1,2.7,4c1.4,0,2.6-1.9,2.5-4.2
		C193.9,55.3,192.7,53.5,191.3,53.5z"/>
	<path class="st20" d="M191.3,53.5c-1.4,0-2.6,1.9-2.5,4.2c0.4,3.8,5,3.9,5.2-0.1C193.9,55.3,192.7,53.5,191.3,53.5z"/>
	<path class="st21" d="M191.3,53.3c-0.8,0-1.5,0.5-2,1.3c-0.5,0.8-0.7,1.9-0.7,3c0.1,2.2,1.2,4,2.6,4.2h0c0.1,0,0.2,0,0.3,0
		c1.5,0,2.7-2,2.7-4.3C194.1,55.2,192.8,53.3,191.3,53.3z M191.5,61.5c-1.4,0-2.5-1.7-2.6-3.9c0-1.1,0.2-2.1,0.7-2.8
		c0.4-0.7,1-1.2,1.7-1.2c0.1,0,0.2,0,0.2,0c1.3,0.2,2.3,1.8,2.3,3.9C193.9,59.7,192.8,61.5,191.5,61.5z"/>
	<path d="M191,55.3c-0.9,0-1.5,1.1-1.5,2.4c0,1.3,0.8,2.4,1.6,2.4c0.9,0,1.5-1.1,1.5-2.4C192.6,56.3,191.9,55.3,191,55.3z"/>
	<path class="st8" d="M190.5,54.6c-0.5,0-0.8,0.3-0.9,0.8c0,0.5,0.3,0.8,0.8,0.9c0.5,0,0.8-0.3,0.9-0.8
		C191.3,55,191,54.6,190.5,54.6z"/>
	<path class="st8" d="M190.3,57.3c-0.2,0-0.3,0.1-0.3,0.3c0,0.2,0.1,0.3,0.3,0.3c0.2,0,0.3-0.1,0.3-0.3
		C190.6,57.4,190.5,57.3,190.3,57.3z"/>
	<path class="st2" d="M188.7,64.9c0,0,2.6-0.2,4.3-0.9c1.7-0.7,3.1-1.8,3.1-1.8C193.8,61.3,189.7,62.9,188.7,64.9z"/>
	<path class="st1" d="M165.5,44.3c-3.8-0.5-7.4,3.3-8.1,8.6c-0.4,3,0.2,5.9,1.5,7.9c1.8-0.2,5,0.4,7.1,2.1c2.4-1.3,4.4-4.3,4.9-8
		C171.7,49.5,169.2,44.8,165.5,44.3z"/>
	<path d="M165.5,47.1c-3.2-0.4-6.3,2.7-6.9,6.9c-0.6,4.3,1.5,8.1,4.7,8.5c3.2,0.4,6.3-2.7,6.9-6.9C170.8,51.3,168.7,47.5,165.5,47.1
		z"/>
	<path class="st18" d="M165.5,47.5c-3.1-0.4-6.1,2.6-6.7,6.7c-0.6,4.1,1.5,7.8,4.6,8.3c3.1,0.4,6.1-2.6,6.7-6.7
		C170.6,51.7,168.6,48,165.5,47.5z"/>
	<path class="st8" d="M165.5,47.5c-3.1-0.4-6.1,2.6-6.7,6.7c-0.1,0.6-0.1,1.2-0.1,1.8c2.6,2.4,6.5,3.3,10.1,3.2c0.6-1,1-2.2,1.2-3.5
		C170.6,51.7,168.6,48,165.5,47.5z"/>
	<path d="M165.5,47.4c-0.2,0-0.4,0-0.6,0c-3,0-5.7,3-6.2,6.9c-0.3,2,0,4,0.9,5.6c0.9,1.6,2.2,2.6,3.8,2.8c0.2,0,0.4,0,0.6,0
		c3,0,5.7-3,6.2-6.9c0.3-2,0-4-0.9-5.6C168.4,48.6,167,47.6,165.5,47.4z M169.9,55.8c-0.5,3.8-3.1,6.6-5.9,6.6c-0.2,0-0.4,0-0.6,0
		c-1.5-0.2-2.7-1.2-3.6-2.7c-0.8-1.5-1.2-3.5-0.9-5.4c0.5-3.8,3.1-6.6,5.9-6.6c0.2,0,0.4,0,0.6,0c1.5,0.2,2.7,1.2,3.6,2.7
		C169.8,51.9,170.2,53.8,169.9,55.8z"/>
	<path class="st19" d="M164.2,52.1c-1.7-0.2-3.4,1.4-3.7,3.7c-0.3,2.3,0.8,4.4,2.6,4.6c1.7,0.2,3.4-1.4,3.7-3.7
		C167.1,54.5,166,52.4,164.2,52.1z"/>
	<path class="st20" d="M164.2,52.1c-1.7-0.2-3.4,1.4-3.7,3.7c-0.3,4.1,5.5,4.7,6.3,0.9C167.1,54.5,166,52.4,164.2,52.1z"/>
	<path class="st21" d="M164.3,52c-0.1,0-0.2,0-0.4,0c-1.7,0-3.2,1.7-3.6,3.9c-0.3,2.4,0.9,4.6,2.7,4.8c0.1,0,0.2,0,0.4,0
		c1.7,0,3.2-1.7,3.6-3.9c0.2-1.2,0-2.3-0.5-3.2C165.9,52.7,165.1,52.1,164.3,52z M166.6,56.7c-0.3,2.1-1.7,3.6-3.2,3.6
		c-0.1,0-0.2,0-0.3,0c-1.6-0.2-2.7-2.2-2.4-4.4c0.3-2.1,1.7-3.6,3.2-3.6c0.1,0,0.2,0,0.3,0c0.8,0.1,1.5,0.6,1.9,1.5
		C166.6,54.6,166.8,55.7,166.6,56.7z"/>
	<path d="M163.9,54.1c-1-0.1-2,0.8-2.2,2.2c-0.2,1.4,0.5,2.6,1.5,2.7c1,0.1,2-0.8,2.2-2.2C165.5,55.4,164.9,54.2,163.9,54.1z"/>
	<path class="st2" d="M157.8,61c0,0,2.2,1.3,4.4,2c2.1,0.6,4.7,0.8,4.7,0.8C165.6,61.6,160.3,60.1,157.8,61z"/>
	<path class="st8" d="M163.2,53.1c-0.5,0-0.9,0.4-0.9,0.9c0,0.5,0.4,0.9,0.9,0.9c0.5,0,0.9-0.4,0.9-0.9
		C164.1,53.5,163.7,53.1,163.2,53.1z"/>
	<path class="st8" d="M162.5,56.1c-0.2,0-0.4,0.2-0.4,0.4c0,0.2,0.2,0.4,0.4,0.4c0.2,0,0.4-0.2,0.4-0.4
		C162.9,56.3,162.7,56.1,162.5,56.1z"/>
	<path class="st4" d="M182,56.3c-4.7,0-6.8,4.2-7.7,5.4c-0.9,1.2-3,2-3,4.5c0,9,8.4,17.8,11.2,17.3c1-0.2,0.3-10,3.4-13.5
		c2.3,0,3.8,4.8,4.4,4.8c0.8,0,2.2-5.3,0.5-10.5C189.7,60.6,186.6,56.3,182,56.3z"/>
	<path class="st5" d="M182,56.3c-4.7,0-6.8,4.2-7.7,5.4c-0.4,0.6-1.1,1.1-1.8,1.7c-0.6,0.6-0.3,2.3,3.6,1.2
		c2.6,4.9,8.3,3.4,10.8,4.5c2.2,1,2.4,4.4,3.5,5.6c0.8-0.2,2.1-5.4,0.4-10.5C189.7,60.6,186.6,56.3,182,56.3z"/>
	<path class="st22" d="M182,56.3c-0.9,0-1.8,0.2-2.5,0.4c-3.1,1.7-2.2,7.7,0.6,9.1c2.3,1,6.3,0.4,8.7,3.3c1.5,1.8,1,4.3,1.6,4.3
		c0.6,0,1.7-5.4,0.4-9.2C189.7,60.6,186.6,56.3,182,56.3z"/>
	<path class="st23" d="M182,56.3c-0.2,0-0.5,0-0.7,0c5.4,0.7,8.5,5.8,10.1,10.5c-0.1-0.9-0.2-1.8-0.5-2.6
		C189.7,60.6,186.6,56.3,182,56.3z"/>
	<path class="st24" d="M179.8,70c-1.6-0.4-3-1.3-4-2.1c0,7.5,4.7,13.7,5.5,13.4c0.7-0.3-0.1-4.4,1.9-11
		C182.2,70.3,181,70.3,179.8,70z"/>
	<path class="st25" d="M178.8,72.1c-0.6-0.9-1.7-1.3-2.6-0.7c1.1,5.8,4.5,10.2,5.2,9.9c0.4-0.2,0.4-1.2,0.5-2.9
		C181.7,74.2,180.1,71.3,178.8,72.1z"/>
	<path class="st26" d="M178,76.9c1.4,2.8,2.9,4.5,3.3,4.4c0.4-0.2,0.4-1.2,0.5-2.9c0-0.5-0.1-1-0.1-1.4
		C180.5,76.2,179.1,75.8,178,76.9z"/>
	<path class="st27" d="M179.2,71.8c-0.1,0-0.3,0-0.4,0.1c-0.5-0.6-1.1-0.9-1.8-0.9c-0.3,0-0.6,0.1-0.9,0.3l-0.1,0.1l0,0.1
		c1,5.6,4.3,10,5.2,10c0,0,0.1,0,0.1,0c0.4-0.2,0.4-0.9,0.5-2.3c0-0.2,0-0.5,0-0.8C181.8,74.7,180.6,71.8,179.2,71.8z M181.6,79.1
		c-0.1,1.1-0.1,1.9-0.3,2l0,0c-0.7,0-3.9-4.1-4.9-9.7c0.2-0.1,0.4-0.2,0.7-0.2c0.6,0,1.2,0.4,1.6,0.9l0.1,0.1l0.1-0.1
		c0.1-0.1,0.2-0.1,0.4-0.1c1.1,0,2.3,2.6,2.4,6.2C181.6,78.6,181.6,78.9,181.6,79.1z"/>
	<path class="st27" d="M178.9,72l-0.3,0.2c1.2,1.8,1.7,6.4,1.7,6.5c0,0,0.3-0.5,0-2.4C180,74.8,179.6,73,178.9,72z"/>
	<path class="st16" d="M194.9,29.3c1.6-12.6-9.4-18.9-14.9-17.9c-5.4,1-5.3,5-7,6.6c-0.2-3.4-4.9-8.9-12-9c-8.8-0.1-14,6.1-13.8,9.7
		c0.1,2.3,3.7,2.2,4,3.4c-6.2,0.7-10.2,5.4-12,9.4c-0.2,0.6-0.5,1.1-0.6,1.7l20.7-1.8c12.8-2.1,18.7,14,23.9,14.9
		c3.5,0.6,9.3-0.8,12.9-6.4C199.8,34.3,198.1,29.8,194.9,29.3z"/>
	<path class="st17" d="M194.1,32.4c0.3-0.8,0.7-2.4,0.7-3.1c1.6-12.6-9.4-18.9-14.9-17.9c-5.4,1-5.3,5-7,6.6
		c-0.8,0.8-2.2,1.2-3.6,1.3c3.4-1.6,1.8-5.5,0.6-6.6c-2.1-2-5.2-3.6-9-3.6c-8.8-0.1-14,6.1-13.8,9.7c0.1,2.3,3.7,2.2,4,3.4
		c-4.7,0.6-8.1,3.4-10.3,6.5c-2,4.2,1.8,5.7,5.1,5c2.4-0.5,6.9-2.5,10.6-4.3c2.3-1.1,2.5-3.7,4.6-3.6c3.4,0.2,4.3,3,9.1,5
		c1.8,0.8,4.2,0.5,5.5,1.8c1.7,1.6,2,5.2,3.3,6.7c2,2.3,3.7,4,5.6,4.4c4.1,0.8,12.2-1.5,13.7-8.8c0.2-1.5-0.1-2.8-0.7-3.8
		C197.1,30.5,195.2,30.1,194.1,32.4z"/>
	<path class="st28" d="M180.4,12.6c-1.1,1-0.5,2.1,2.2,3.4c1.6,0.7,5.8,2.2,7.7,4.8c2.3,3.1,2.6,6.9,2.4,9.8
		c-0.1,1.6,0.4,1.3,0.7,0.2c1.7-6.4-0.7-11.3-3.4-14.2C187,13.3,181.5,11.6,180.4,12.6z"/>
	<path class="st28" d="M166.2,11c-4.4-2-11-1.9-15.4,2.9c-0.8,0.9-0.3,1.2,1,0.5c4-2.4,7.3-4,12.9-3C165.6,11.5,167.6,11.6,166.2,11
		z"/>
	<path class="st28" d="M188.9,86.4c0.4,1.6,0.4,2.4,0.3,3.5c-0.1,1.3-0.3,2.7-0.1,3.8c0.1,0.9,0.6,1.5,0.9,1.4
		c1.5-0.2,1.6-4.3-0.5-8.4C189.2,86.2,188.8,86.1,188.9,86.4z"/>
	<path class="st28" d="M180.6,87.8c0.1,1.7-0.5,3-0.8,4.1c-0.4,1.3-0.4,2.4,0.2,2.4c1.4,0.1,2.1-3.8,1.2-6.4
		C180.9,87.2,180.6,86.9,180.6,87.8z"/>
	<path class="st11" d="M125.4,124.6c-6.9-0.3-9.6-4.5-4.9-8.4c-6-0.7-8.5-6.7-4.4-9.6c-5.3,1.4-7,8,1.2,10.2
		c-4.7,5.5-0.3,10.4,7,9.2c-1.8,6.6,7.5,8.3,11.5,0.4C131.7,130.5,124.8,130.9,125.4,124.6z"/>
</g>
</svg>
