<?xml version="1.0" encoding="utf-8"?>
<!-- Generator: Adobe Illustrator 24.3.0, SVG Export Plug-In . SVG Version: 6.00 Build 0)  -->
<svg version="1.1" id="Layer_1" xmlns="http://www.w3.org/2000/svg" xmlns:xlink="http://www.w3.org/1999/xlink" x="0px" y="0px"
	 viewBox="0 0 260 250" style="enable-background:new 0 0 260 250;" xml:space="preserve">
<style type="text/css">
	.st0{fill:#C3C77F;}
	.st1{fill:#607C51;}
	.st2{fill:#4D1F03;}
	.st3{fill:#2A4010;}
	.st4{fill:#B2B30E;}
	.st5{opacity:0.2;fill:#FFFFFF;}
	.st6{opacity:0.2;fill:#E5E5E5;}
	.st7{opacity:0.2;fill:#828282;}
	.st8{fill:#E8E5B5;}
	.st9{fill:#E7D699;}
	.st10{fill:#141414;}
</style>
<g>
	<g id="Layer_22">
		<rect class="st0" width="260" height="250"/>
		<ellipse class="st1" cx="128.6" cy="223.8" rx="81.4" ry="12.2"/>
		<path class="st2" d="M155.3,101.3c0,0.9-2.8,1.1-5.9,1.2c-3.2,0.1-5.7-0.5-5.8-1.3c0-0.7,2.9,0.5,4.1-1.6
			c3.5-6.4,0.7-23.2,1.3-24.1c0.6-1,3.6-1.3,3.7-0.1c0.6,5.6-2.1,24.1-1.7,24.2C153.3,99.6,155.3,100.7,155.3,101.3z"/>
		<path class="st3" d="M150.3,89c0,0-5.2,0.5-9.3-2.2c-4.1-2.8-5.5-7.9-5.5-7.9s5.2-0.5,9.3,2.2C149,83.9,150.3,89,150.3,89z"/>
		<path class="st4" d="M176,133.4c-3-15.2-7.4-24.9-12.5-30.1c-3.3-3.3-14-5.1-13.9-1.5c-0.1-3.6-10.7-1.1-13.7,2.4
			c-4.7,5.5-8.4,15.5-10.4,30.9c-2.6,20-21.4,37.2-20.8,54.5c0.7,20.7,13.4,30.6,26.1,33.1c9,1.7,15.9-2.1,22.9-2.3
			s11.7,2.7,19.3,1.5c13.8-2.1,28.3-12.9,27.5-35.6C199.9,169,179.9,153.2,176,133.4z"/>
		<path class="st5" d="M121.5,186.2c-0.3-12,3.9-21,11.5-30.4c5.4-6.6,12.3-13.5,13.7-22.3c1.3-7.9-1.3-15.9-7-21.5
			c-1.8-1.8-3.9-3.3-6-4.7c-3.7,5.9-6.5,15-8.2,27.9c-2.6,20-21.4,37.2-20.8,54.5c0.5,13.8,6.3,22.8,13.9,28
			C125.4,212.7,121.7,193,121.5,186.2z"/>
		<path class="st6" d="M170.7,115c-0.1,0.5-0.2,1-0.2,1.5c-1.2,9.4-0.1,19,3,28c3.1,9.2,8.1,17.7,9.1,27.5
			c1.4,13.8-0.5,33.2-15.5,39.1c-10.4,4.1-21,5.5-30.7,11.6l-0.9,0.6c6.9,0.1,12.6-2.6,18.3-2.8c7-0.2,11.7,2.7,19.3,1.5
			c13.8-2.1,28.3-12.9,27.5-35.6c-0.6-17.4-20.6-33.2-24.5-53C174.8,127.1,173,120.9,170.7,115z"/>
		<g>
			<path class="st7" d="M180,194.6c2.6,0,2.6-4,0-4C177.5,190.5,177.5,194.6,180,194.6z"/>
			<path class="st7" d="M172.6,193.8c0.7-0.1,1.2-0.7,1.1-1.4c-0.1-0.6-0.5-1.1-1.1-1.1c-0.7,0.1-1.2,0.7-1.1,1.4
				C171.5,193.2,171.9,193.7,172.6,193.8z"/>
			<path class="st7" d="M175.5,189.9c0.7,0,1.3-0.6,1.3-1.3c0-0.7-0.6-1.3-1.3-1.3s-1.3,0.6-1.3,1.3
				C174.2,189.3,174.8,189.9,175.5,189.9z"/>
			<path class="st7" d="M170.3,185.6l-0.2,0l-0.3,0c-0.2,0-0.3,0-0.5,0.1c-0.1,0-0.2,0.1-0.3,0.2c-0.1,0.1-0.3,0.2-0.3,0.4l-0.1,0.3
				l0,0.3c0,0.2,0,0.3,0.1,0.5c0.1,0.2,0.1,0.3,0.3,0.4l0.1,0.2c0.2,0.2,0.4,0.3,0.6,0.3c0.2,0.1,0.5,0.1,0.7,0l0.3-0.1
				c0.2-0.1,0.4-0.3,0.5-0.5c0.1-0.1,0.2-0.3,0.2-0.5c0-0.2,0-0.4,0-0.5c-0.1-0.2-0.2-0.4-0.3-0.6
				C170.7,185.8,170.5,185.7,170.3,185.6L170.3,185.6z"/>
			<path class="st7" d="M166,198.5c0.2,0,0.5,0,0.7-0.1c0.4-0.2,0.8-0.5,0.9-1c0.1-0.2,0.2-0.4,0.1-0.7l-0.1-0.5
				c-0.1-0.3-0.2-0.6-0.5-0.8l-0.4-0.3c-0.3-0.2-0.6-0.2-0.9-0.2c-0.2,0-0.5,0-0.7,0.2c-0.4,0.2-0.8,0.5-0.9,0.9
				c-0.1,0.2-0.2,0.4-0.2,0.7l0.1,0.5c0.1,0.3,0.2,0.6,0.5,0.8l0.4,0.3C165.4,198.4,165.7,198.5,166,198.5L166,198.5z"/>
			<path class="st7" d="M149.3,210.7c0.7,0,1.3-0.6,1.3-1.3c0-0.7-0.6-1.3-1.3-1.3c-0.7,0-1.3,0.6-1.3,1.3
				C148,210.1,148.6,210.7,149.3,210.7z"/>
			<path class="st7" d="M141.1,208.9c0.5,0,0.9-0.4,0.9-0.9c0-0.5-0.4-0.9-0.9-0.9s-0.9,0.4-0.9,0.9
				C140.2,208.5,140.6,208.9,141.1,208.9z"/>
			<path class="st7" d="M145.7,206.3L145.7,206.3L145.7,206.3h0.3c0.1,0,0.1,0,0.2,0l0.2-0.1l0.2-0.1l0.1-0.2
				c0.1-0.1,0.1-0.2,0.1-0.3c0-0.1,0-0.1,0-0.2c0-0.1,0-0.1-0.1-0.2c0-0.1-0.1-0.1-0.1-0.2c0-0.1-0.1-0.2-0.2-0.2l-0.5-0.2h-0.2
				c-0.1,0-0.2,0-0.3,0.1c-0.1,0-0.1,0-0.2,0.1c-0.1,0.1-0.1,0.1-0.2,0.2l-0.1,0.2v0.2c0,0.2,0.1,0.4,0.2,0.5
				c0.1,0.1,0.2,0.1,0.2,0.2l0.6-1.3l0,0l0.5,0.2l-0.1-0.1c-0.1-0.1-0.2-0.2-0.4-0.2c-0.1,0-0.3,0-0.4,0c-0.2,0.1-0.4,0.2-0.5,0.4
				c-0.1,0.1-0.1,0.2-0.1,0.3c0,0.1,0,0.2,0,0.3C145.2,206,145.4,206.2,145.7,206.3L145.7,206.3z"/>
			<path class="st7" d="M153.5,204.4v-0.1c0-0.1-0.1-0.2-0.2-0.3c-0.1-0.1-0.2-0.2-0.3-0.2l-0.2-0.1c-0.2,0-0.3,0-0.5,0h-0.2
				l-0.3,0.1l-0.2,0.2c-0.1,0.1-0.2,0.2-0.2,0.4c-0.1,0.1-0.1,0.2-0.1,0.3c0,0.1,0,0.2,0,0.3c0,0.1,0,0.2,0.1,0.3
				c0,0.1,0.1,0.2,0.1,0.2c0.1,0.1,0.2,0.2,0.3,0.3l0.3,0.1h0.3h0.3l0.3-0.1l0.2-0.2c0.1-0.1,0.2-0.2,0.2-0.4
				c0.1-0.1,0.1-0.2,0.1-0.3C153.6,204.6,153.6,204.5,153.5,204.4L153.5,204.4z"/>
			<path class="st7" d="M166.2,191.6c0.6,0,1-0.5,1-1s-0.5-1-1-1c-0.6,0-1,0.5-1,1S165.6,191.6,166.2,191.6L166.2,191.6z"/>
			<path class="st7" d="M174.4,198.5c0.3,0,0.5-0.2,0.5-0.5c0-0.3-0.2-0.5-0.5-0.5s-0.5,0.2-0.5,0.5
				C173.8,198.3,174.1,198.5,174.4,198.5L174.4,198.5z"/>
			<path class="st7" d="M180.9,186.7c0.5-0.1,0.7-0.6,0.6-1c-0.1-0.3-0.3-0.5-0.6-0.6c-0.5,0.1-0.7,0.6-0.6,1
				C180.3,186.4,180.6,186.6,180.9,186.7z"/>
			<path class="st7" d="M186.5,183.8c0.9-0.1,1.5-0.8,1.5-1.7c-0.1-0.8-0.7-1.4-1.5-1.5c-0.9,0.1-1.5,0.8-1.5,1.7
				C185,183.2,185.7,183.8,186.5,183.8z"/>
			<path class="st7" d="M186.7,189.6v-0.2v-0.3v-0.2l-0.1-0.2c-0.1-0.1-0.1-0.2-0.2-0.3c-0.1-0.1-0.1-0.1-0.2-0.1
				c-0.1,0-0.2-0.1-0.2-0.1c-0.1,0-0.2,0-0.3,0c-0.1,0-0.2,0-0.4,0.1l-0.1,0.1c-0.2,0.1-0.3,0.2-0.4,0.4c-0.1,0.2-0.1,0.3-0.1,0.5
				c0,0.2,0,0.4,0.1,0.5c0.1,0.1,0.2,0.2,0.3,0.3c0.1,0.1,0.2,0.1,0.3,0.2c0.2,0.1,0.4,0.1,0.5,0c0.2,0,0.3-0.1,0.5-0.3
				C186.5,189.9,186.6,189.8,186.7,189.6L186.7,189.6z"/>
			<path class="st7" d="M181.5,180.3c0.2,0,0.3-0.2,0.3-0.4c0-0.1-0.1-0.2-0.3-0.3c-0.2,0-0.3,0.2-0.3,0.4
				C181.3,180.1,181.4,180.2,181.5,180.3z"/>
			<path class="st7" d="M186.3,179.1c0.7-0.1,1.3-0.7,1.2-1.4c-0.1-0.7-0.6-1.2-1.2-1.2c-0.7,0.1-1.3,0.7-1.2,1.4
				C185.1,178.5,185.6,179,186.3,179.1z"/>
			<path class="st7" d="M192,176.7l0.1-0.2l0-0.3c0-0.2,0-0.3-0.1-0.4c0-0.1-0.1-0.2-0.2-0.3c-0.1-0.1-0.2-0.2-0.3-0.3l-0.3-0.1H191
				c-0.2,0-0.3,0-0.5,0.1c-0.1,0-0.3,0.1-0.4,0.2l-0.2,0.2c-0.1,0.2-0.3,0.3-0.3,0.5c-0.1,0.2-0.1,0.4,0,0.6l0.1,0.3
				c0.1,0.2,0.3,0.3,0.4,0.4c0.1,0.1,0.3,0.1,0.5,0.1c0.2,0,0.3,0,0.5,0C191.6,177.5,191.9,177.2,192,176.7L192,176.7z"/>
			<path class="st7" d="M146.6,215.1c2.1,0,2.1-3.3,0-3.3S144.4,215.1,146.6,215.1z"/>
			<path class="st7" d="M138.4,212.5c0.6,0,1.1-0.5,1.1-1.1c0-0.6-0.5-1.1-1.1-1.1c-0.6,0-1.1,0.5-1.1,1.1
				C137.3,212,137.8,212.5,138.4,212.5z"/>
			<path class="st7" d="M133.7,210.5c0.7-0.1,1.2-0.7,1.1-1.4c-0.1-0.6-0.5-1.1-1.1-1.1c-0.7,0.1-1.2,0.7-1.1,1.4
				C132.6,210,133.1,210.5,133.7,210.5z"/>
			<path class="st7" d="M136.3,208.7c2.9,0,2.9-4.5,0-4.5C133.4,204.2,133.4,208.7,136.3,208.7z"/>
			<path class="st7" d="M130,207.8c0.2,0,0.3,0,0.5-0.1c0.2,0,0.3-0.1,0.4-0.3c0.1-0.1,0.2-0.3,0.3-0.4c0.1-0.2,0.1-0.3,0.1-0.5
				l-0.1-0.3c-0.1-0.2-0.2-0.4-0.3-0.6l-0.3-0.2c-0.2-0.1-0.4-0.2-0.7-0.2c-0.2,0-0.3,0-0.5,0.1c-0.2,0.1-0.3,0.1-0.4,0.3
				c-0.1,0.1-0.2,0.3-0.3,0.4c-0.1,0.2-0.1,0.3-0.1,0.5v0.3c0.1,0.2,0.2,0.4,0.3,0.6l0.3,0.2C129.5,207.7,129.8,207.8,130,207.8
				L130,207.8z"/>
			<path class="st7" d="M126,208c0.6,0,1.1-0.5,1.1-1.1c0-0.6-0.5-1.1-1.1-1.1c-0.6,0-1.1,0.5-1.1,1.1
				C124.9,207.5,125.4,208,126,208z"/>
		</g>
		<g>
			<path class="st7" d="M190.5,203c2.6,0,2.6-4,0-4C187.9,199,187.9,203,190.5,203z"/>
			<path class="st7" d="M183.2,204.1c0.7-0.1,1.2-0.7,1.1-1.4c-0.1-0.6-0.5-1.1-1.1-1.1c-0.7,0.1-1.2,0.7-1.1,1.4
				C182.1,203.5,182.6,204,183.2,204.1z"/>
			<path class="st7" d="M185.1,199.7c0.7-0.1,1.3-0.7,1.2-1.4c-0.1-0.7-0.6-1.2-1.2-1.2c-0.7,0.1-1.3,0.7-1.2,1.4
				C183.9,199.1,184.4,199.6,185.1,199.7z"/>
			<path class="st7" d="M179.3,196.7H179h-0.3c-0.2,0-0.3,0.1-0.4,0.2c-0.1,0.1-0.2,0.1-0.2,0.2c-0.1,0.1-0.2,0.3-0.2,0.4v0.3v0.3
				c0.1,0.3,0.3,0.6,0.6,0.7l0.2,0.1c0.4,0.3,0.9,0.3,1.3,0l0.3-0.2c0.2-0.2,0.3-0.4,0.3-0.6c0-0.2,0-0.4,0-0.5
				c0-0.2-0.1-0.3-0.2-0.5c-0.1-0.2-0.3-0.4-0.5-0.5C179.7,196.7,179.5,196.6,179.3,196.7L179.3,196.7z"/>
			<path class="st7" d="M177.9,210.3c0.2,0,0.5,0,0.7-0.1c0.2-0.1,0.4-0.2,0.6-0.4c0.2-0.2,0.3-0.3,0.4-0.6c0.1-0.2,0.2-0.4,0.1-0.7
				l-0.1-0.5c-0.1-0.3-0.2-0.6-0.5-0.8l-0.4-0.3c-0.3-0.2-0.6-0.2-0.9-0.2c-0.2,0-0.5,0-0.7,0.1c-0.2,0.1-0.4,0.2-0.6,0.4
				c-0.2,0.2-0.3,0.3-0.4,0.6c-0.1,0.2-0.2,0.4-0.1,0.7l0.1,0.5c0.1,0.3,0.2,0.6,0.5,0.8l0.4,0.3
				C177.3,210.3,177.6,210.3,177.9,210.3z"/>
			<path class="st7" d="M170.5,212.8c0.7,0,1.3-0.6,1.3-1.3s-0.6-1.3-1.3-1.3s-1.3,0.6-1.3,1.3S169.8,212.8,170.5,212.8z"/>
			<path class="st7" d="M162.2,213c0.5,0,0.9-0.4,0.9-0.9s-0.4-0.9-0.9-0.9s-0.9,0.4-0.9,0.9S161.7,213,162.2,213z"/>
			<path class="st7" d="M166.3,209.4L166.3,209.4h-0.1l0,0l0.2-1.5h-0.3h-0.2c-0.1,0-0.2,0.1-0.2,0.1c-0.1,0-0.1,0.1-0.1,0.1
				c-0.1,0.1-0.1,0.2-0.1,0.2c0,0.1,0,0.3,0,0.4c0,0.1,0.1,0.2,0.1,0.2c0.1,0.1,0.1,0.1,0.2,0.2l0.3,0.1
				C166.1,209.4,166.2,209.4,166.3,209.4c0.1,0,0.2,0,0.3,0c0.1,0,0.2-0.1,0.3-0.1c0.1-0.1,0.2-0.1,0.2-0.2c0.2-0.4,0.1-0.9-0.3-1.1
				c0,0,0,0,0,0h-0.1c-0.2-0.1-0.6-0.1-0.8,0c-0.2,0.1-0.3,0.3-0.4,0.5c-0.1,0.2,0,0.4,0.1,0.6c0.1,0.1,0.2,0.2,0.3,0.3
				C166.1,209.4,166.2,209.5,166.3,209.4L166.3,209.4z"/>
			<path class="st7" d="M173.3,205.6l-0.1-0.1c-0.1-0.1-0.1-0.2-0.2-0.3c-0.1-0.1-0.2-0.1-0.3-0.2c-0.2-0.1-0.5,0-0.7,0.1l-0.1,0.1
				l-0.2,0.2l-0.2,0.2c-0.1,0.1-0.1,0.3-0.1,0.4c0,0.1,0,0.2,0,0.3c0,0.1,0,0.2,0.1,0.3c0,0.1,0.1,0.2,0.1,0.2
				c0,0.1,0.1,0.2,0.2,0.2c0.1,0.1,0.2,0.2,0.4,0.2h0.3h0.3l0.3-0.1l0.2-0.2l0.2-0.2c0.1-0.1,0.1-0.3,0.1-0.4c0-0.1,0-0.2,0-0.3
				C173.5,205.8,173.4,205.7,173.3,205.6L173.3,205.6z"/>
			<path class="st7" d="M176.5,203.6c0.6,0,1-0.5,1-1s-0.5-1-1-1s-1,0.5-1,1S176,203.6,176.5,203.6z"/>
			<path class="st7" d="M186.3,208.2c0.3,0,0.5-0.2,0.5-0.5c0-0.3-0.2-0.5-0.5-0.5l0,0c-0.3,0-0.5,0.2-0.5,0.5
				C185.7,208,186,208.2,186.3,208.2z"/>
			<path class="st7" d="M189.6,195.1c0.5-0.1,0.7-0.6,0.6-1c-0.1-0.3-0.3-0.5-0.6-0.6c-0.5,0.1-0.7,0.6-0.6,1
				C189.1,194.8,189.3,195.1,189.6,195.1z"/>
			<path class="st7" d="M194.1,191c0.9-0.1,1.5-0.8,1.5-1.7c-0.1-0.8-0.7-1.4-1.5-1.5c-0.9,0.1-1.5,0.8-1.5,1.7
				C192.7,190.4,193.3,191,194.1,191z"/>
			<path class="st7" d="M196.2,196.5c0-0.1,0-0.3-0.1-0.4c-0.1-0.3-0.3-0.6-0.7-0.7c-0.3-0.1-0.7,0-0.9,0.2l-0.1,0.1
				c-0.1,0.1-0.2,0.3-0.3,0.4c-0.1,0.2-0.1,0.4,0,0.5c0,0.2,0.1,0.3,0.3,0.4c0.1,0.1,0.2,0.2,0.3,0.2c0.1,0.1,0.3,0.1,0.4,0.1
				c0.2,0,0.4,0,0.5-0.1c0.2-0.1,0.3-0.2,0.4-0.4C196.1,196.9,196.2,196.7,196.2,196.5z"/>
			<path class="st7" d="M188.8,188.8c0.2,0,0.3-0.2,0.3-0.4c0-0.1-0.1-0.2-0.3-0.3c-0.2,0-0.3,0.2-0.3,0.4
				C188.6,188.6,188.7,188.7,188.8,188.8z"/>
			<path class="st7" d="M192.9,186.5c0.7-0.1,1.3-0.7,1.2-1.4c-0.1-0.7-0.6-1.2-1.2-1.2c-0.7,0.1-1.3,0.7-1.2,1.4
				C191.7,185.9,192.2,186.4,192.9,186.5z"/>
			<path class="st7" d="M198.2,182.7v-0.2v-0.3c0-0.1-0.1-0.3-0.2-0.4c-0.1-0.1-0.1-0.2-0.2-0.2c-0.1-0.1-0.2-0.2-0.4-0.2l-0.3,0
				l-0.3,0c-0.1,0-0.3,0.1-0.4,0.2c-0.1,0.1-0.2,0.2-0.3,0.3l-0.1,0.2c-0.1,0.2-0.2,0.4-0.2,0.6c0,0.2,0.1,0.4,0.2,0.6l0.2,0.2
				c0.2,0.1,0.3,0.3,0.5,0.3c0.2,0,0.3,0,0.5,0c0.2,0,0.3-0.1,0.5-0.1C198,183.5,198.2,183.1,198.2,182.7L198.2,182.7z"/>
			<path class="st7" d="M168.9,217.7c0.9,0,1.7-0.7,1.7-1.7s-0.7-1.7-1.7-1.7s-1.7,0.7-1.7,1.7S168,217.7,168.9,217.7z"/>
			<path class="st7" d="M160.5,217.2c0.6-0.1,1-0.6,1-1.2c0-0.5-0.5-0.9-1-1c-0.6,0.1-1,0.6-1,1.2
				C159.6,216.7,160,217.1,160.5,217.2z"/>
			<path class="st7" d="M155.4,216.5c0.7-0.1,1.2-0.7,1.1-1.4c-0.1-0.6-0.5-1.1-1.1-1.1c-0.7,0.1-1.2,0.7-1.1,1.4
				C154.3,215.9,154.8,216.4,155.4,216.5z"/>
			<path class="st7" d="M157.2,214.1c2.9,0,2.9-4.5,0-4.5C154.3,209.6,154.3,214.1,157.2,214.1z"/>
			<path class="st7" d="M151.2,214.7c0.2,0,0.3,0,0.5-0.1c0.3-0.1,0.6-0.4,0.7-0.7c0.1-0.2,0.1-0.3,0.1-0.5l-0.1-0.3
				c-0.1-0.2-0.2-0.4-0.3-0.6l-0.3-0.2c-0.2-0.1-0.4-0.2-0.6-0.2c-0.2,0-0.3,0-0.5,0.1c-0.2,0-0.3,0.1-0.4,0.3
				c-0.1,0.1-0.2,0.3-0.3,0.4c-0.1,0.2-0.1,0.3-0.1,0.5l0.1,0.3c0.1,0.2,0.2,0.4,0.3,0.6l0.3,0.2C150.8,214.6,151,214.7,151.2,214.7
				z"/>
			<path class="st7" d="M147.4,215.9c0.6-0.1,1.1-0.6,1-1.2c0-0.5-0.5-1-1-1c-0.6,0.1-1.1,0.6-1,1.2
				C146.4,215.5,146.8,215.9,147.4,215.9z"/>
		</g>
		<path class="st2" d="M99.9,102.9c0,0.8-2.8,1-6,1s-5.8-0.7-5.8-1.5c0-0.7,2.9,0.6,4.2-1.4c3.7-6.3,1.5-23.2,2.1-24.2
			s3.6-1.1,3.7,0c0.4,5.6-3,24.1-2.5,24.2C98,101.1,99.9,102.2,99.9,102.9z"/>
		<path class="st3" d="M95.4,90.4c0,0-5.3,0.4-9.3-2.6s-5.2-8.1-5.2-8.1c3.3-0.1,6.5,0.8,9.3,2.6C94.2,85.2,95.4,90.4,95.4,90.4z"/>
		<path class="st4" d="M94.1,219.9c-12.2,10.6-48.1,5.1-48.1-30.2c0-17.4,19.5-34,22.7-53.9c2.5-15.3,6.5-25.2,11.5-30.6
			c3.2-3.5,13.9-5.6,13.9-2V219.9z"/>
		<path class="st8" d="M94.1,216.2C82.9,226,50,221,50,188.3c0-14.7,15.9-24.8,18.8-41.9c5.2-30.7,6.8-41.2,25.3-41.2V216.2z"/>
		<path class="st9" d="M94.1,196.7c-1.5-4-2.4-8.1-2.9-12.3c-0.6-5.2-6.1-8.3-6.1-13.8c0-6.4,6.1-10.1,6.1-15.8
			c0-4.8,2.9-10.3,2.9-10.3V196.7z"/>
		<path class="st10" d="M88.8,170.3c0.2-1.4,1.9-6.4,2.7-6.2s0.6,5.4,0.3,6.8s-1.1,2.4-2,2.2S88.5,171.7,88.8,170.3z"/>
		<path class="st4" d="M94.1,219.9c12.2,10.6,48.1,5.2,48.1-30.1c0-17.4-19.5-34-22.7-53.9c-2.5-15.4-6.5-25.2-11.5-30.6
			c-3.2-3.5-13.9-5.6-13.9-2L94.1,219.9z"/>
		<path class="st8" d="M94.1,216.2c11.2,9.8,44.2,4.8,44.2-28c0-14.7-15.9-24.8-18.8-41.9c-5.2-30.7-6.8-41.2-25.3-41.2L94.1,216.2z
			"/>
		<path class="st9" d="M94.1,196.7c1.5-4,2.5-8.1,2.9-12.3c0.6-5.2,6.1-8.3,6.1-13.8c0-6.4-6.1-10.1-6.1-15.8
			c0-4.8-2.9-10.3-2.9-10.3V196.7z"/>
		<path class="st10" d="M99.5,170.3c-0.2-1.4-1.9-6.4-2.7-6.2s-0.6,5.4-0.3,6.8s1.1,2.4,2,2.2S99.8,171.7,99.5,170.3z"/>
	</g>
</g>
</svg>
