<?xml version="1.0" encoding="utf-8"?>
<!-- Generator: Adobe Illustrator 24.3.0, SVG Export Plug-In . SVG Version: 6.00 Build 0)  -->
<svg version="1.1" id="Layer_25" xmlns="http://www.w3.org/2000/svg" xmlns:xlink="http://www.w3.org/1999/xlink" x="0px" y="0px"
	 viewBox="0 0 260 250" style="enable-background:new 0 0 260 250;" xml:space="preserve">
<style type="text/css">
	.st0{fill:#F5F4E1;}
	.st1{fill:#EA7EA0;}
	.st2{fill:#F6C7D5;}
	.st3{fill:#884A41;}
</style>
<rect class="st0" width="260" height="250"/>
<path class="st1" d="M185,37.6c-5.5,10.2-10.4,21.2-10.5,31.8c3.6,0.1,7.3,0.3,11.1,0.6l0,0c0.5-9.1,2.6-18,6.1-26.4
	C189.7,41.4,187.4,39.4,185,37.6z"/>
<path class="st1" d="M192.8,45c-3.3,8-5.2,16.5-5.7,25.1c0,0,0,0.1,0,0.1c2.6,0.3,5.3,0.6,8,1c0-0.1,0-0.2,0-0.3
	c0.7-5.1,1.9-10.2,3.4-15.2C197.2,51.8,195.3,48.2,192.8,45z"/>
<path class="st1" d="M196.4,71.3c1.4,0.2,2.7,0.4,4.1,0.6c0-1.2,0.1-2.4,0-3.7c-0.1-3.3-0.5-6.7-1.4-9.9c-1.1,4.1-2,8.4-2.6,12.6
	C196.5,71.1,196.5,71.2,196.4,71.3z"/>
<path class="st1" d="M221.4,136.3c5.7-4.4,10.8-10.3,13.4-16.9c1.8-4.6,2.7-9.5,2.7-14.5C233.9,116.3,228.5,126.9,221.4,136.3z"/>
<path class="st1" d="M217.1,139.4c9.4-11.4,16.2-24.7,20.1-38.9c-1-6.9-3.3-13.6-6.9-19.6c0.2,3.7,0.1,7.3-0.4,10.9
	c-2.6,20.2-10.8,39.2-23.9,54.8c3.5-2.2,6.9-4.7,10.5-6.9L217.1,139.4z"/>
<path class="st1" d="M228.3,91.6c0.7-4.6,0.7-9.2,0.1-13.8c-0.3-0.4-0.5-0.8-0.8-1.2c-1.8-2.7-3.7-5.3-5.7-7.9
	c0.8,10.4-0.2,20.8-2.8,30.9c-3,11.8-7.9,23.7-15.5,37.6c-2.9,5.5-6.2,10.7-9.9,15.8c2.7-1.3,5.5-2.4,8.1-3.8
	C216.4,133.1,225.6,113,228.3,91.6z"/>
<path class="st1" d="M160.1,69.9c4.1-0.4,8.4-0.5,12.8-0.5c0.1-11,5.2-22.2,10.8-32.7c-1.6-1.2-3.3-2.3-5-3.4
	c-0.1-0.1-0.2-0.2-0.3-0.3l-0.9-0.2C169.8,41.8,162.8,56.8,160.1,69.9z"/>
<path class="st1" d="M39.9,183.7c4-5.3,12.2-9,16.1-10.1c0.6-4.1,1.4-8.1,2.4-12.1c-10.2,1.4-19.6,6.4-26.3,14.2
	c0.2,0.6,0.4,1.2,0.6,1.8c0.4,1.2,0.7,2.4,1,3.6C35.7,182.1,37.8,182.9,39.9,183.7z"/>
<path class="st1" d="M54.6,188.3c0.2-4.4,0.5-8.8,1.1-13c-3.7,1.2-10.8,4.5-14.4,9C45.7,185.9,50.1,187.2,54.6,188.3z"/>
<path class="st1" d="M137,200.5c5.8-10.1,14.2-17.3,22.8-24.8c9-7.9,20-15,30.4-21.1l0.4-0.2c4.4-5.7,8.3-11.8,11.7-18.2
	c7.6-13.7,12.4-25.6,15.4-37.2c2.8-10.7,3.7-21.8,2.5-32.8c-2.8-3.4-5.7-6.7-8.9-9.7c-1.4-1.4-2.9-2.8-4.2-4.2
	c3.8,12.1,3.5,24.5,2.7,32.2c-2.2,22.3-10.9,42.7-23.3,66.5c-0.2,0.4-0.7,0.5-1.1,0.3c-0.1,0-0.2-0.1-0.2-0.2
	c-0.2-0.2-0.2-0.6-0.1-0.9c12.3-23.7,20.9-43.9,23.1-66c0.8-8.2,1.1-21.9-3.7-34.7c-3.3-3.6-6.7-7-10.4-10.2
	c-3.5-2.7-7.5-4.7-11.8-5.7c4.2,2.7,8,5.9,11.3,9.6c2.8,3.4,4.9,7.3,6.2,11.4c0.2,0.2,0.3,0.5,0.2,0.8c1.3,4.1,2,8.4,2.1,12.7
	c0.1,7.2-0.9,14.4-2.8,21.4l0,0c0,0.1,0,0.2-0.1,0.3c-0.4,1.5-0.8,3-1.2,4.4c-1.9,6.8-4.2,13.5-6.8,20c0,0.2-0.1,0.3-0.2,0.4
	c-3.1,7.9-6.7,15.6-10.8,23c-0.2,0.4-0.6,0.6-1,0.4c-0.4-0.2-0.6-0.6-0.4-1c0,0,0-0.1,0.1-0.1c1.6-3,3.2-6,4.6-9
	c-2.9,0.3-8.3,1.1-11.4,3c-0.3,0.2-0.8,0.1-1-0.2c0,0-0.1-0.1-0.1-0.1c-0.2-0.4-0.1-0.8,0.3-1.1c0,0,0,0,0,0c3.5-2.1,9-2.9,13-3.3
	c1.8-3.7,3.4-7.4,4.9-11.2c-7.6,1-17.8,3.1-25.4,7.6c-0.3,0.2-0.8,0.1-1-0.2c0,0-0.1-0.1-0.1-0.1c-0.2-0.4-0.1-0.8,0.3-1.1
	c8.1-4.8,18.9-6.9,26.8-7.9c1.4-3.6,2.7-7.2,3.9-10.9c-10,0.2-27.1,4.1-37.3,10.1c-0.3,0.2-0.7,0.1-1-0.2l-0.1-0.1
	c-0.2-0.4-0.1-0.8,0.3-1.1c10.6-6.2,28.5-10.3,38.6-10.3c0.8-2.4,1.5-4.8,2.2-7.2c0.3-1.1,0.6-2.3,1-3.5c-21.1,0-38.6,3.7-52,11
	c-0.3,0.2-0.8,0.1-1-0.2l-0.1-0.1c-0.2-0.4,0-0.8,0.3-1c13.8-7.5,31.6-11.2,53.1-11.2c0.6-2.5,1.2-5.2,1.7-8.1
	c-20.3-3.1-41-0.5-59.9,7.5c-0.3,0.1-0.7,0-0.9-0.2c0-0.1-0.1-0.1-0.1-0.2c-0.2-0.4,0-0.8,0.4-1c19.1-8.1,40.2-10.8,60.7-7.7
	c0.3-1.9,0.5-3.8,0.6-5.8c-28.4-4.7-50.7-3-70.4,5.3c-0.3,0.1-0.7,0.1-0.9-0.2c-0.1-0.1-0.1-0.1-0.1-0.2c-0.2-0.4,0-0.8,0.4-1
	c3.8-1.6,7.7-3,11.7-4.1c1.7-8.6,6.1-16,9.8-21.6c5.1-7.3,11.1-13.9,18-19.6H167c-9.1,3.5-19.9,10-26.2,17.9s-11.2,18.4-12.5,26.7
	c-0.1,0.4-0.5,0.7-0.9,0.7c-0.2,0-0.3-0.1-0.5-0.3c-0.1-0.2-0.2-0.4-0.2-0.6c1.4-8.6,6.4-19.3,12.9-27.5c5.6-7,14.6-12.9,22.9-16.7
	c-1.4,0.1-2.8,0.3-4.1,0.4c-11.7,1.6-20,7.2-27.8,15.7c-5.6,6.2-7.9,13.4-10.9,21.1c-2.7-0.1-4.5,3.4-5.4,5.6
	c-1.6,4-5.3,7.6-8.5,10.4c-11,9.7-24.9,15.6-38.3,21.3c-8.2,3.5-17.9,6.8-24.9,12.4c-0.8,0.7-1.7,1.3-2.5,2
	c3.2-2.1,6.6-3.8,10.1-5.2c6.9-2.7,19.6-5.1,27.7-5.2c0.4,0,0.7,0.4,0.7,0.9c0,0.4-0.3,0.6-0.7,0.7c-7.9,0.2-20.4,2.5-27.2,5.1
	c-6.9,2.8-13.3,6.9-18.7,12c-2.5,3.5-4.2,7.6-4.8,11.8c5.7-7,14.3-13.4,20.9-15.8c5.8-1.9,11.8-3.4,17.8-4.3
	c3.8-0.7,7.7-1.4,11.4-2.4c0.4-0.1,0.8,0.1,0.9,0.6s-0.1,0.8-0.6,0.9l0,0c-3.8,1-7.7,1.7-11.5,2.4c-6,1-11.8,2.4-17.6,4.3
	c-7.1,2.5-16.6,10-21.9,17.5c-0.6,3.7-1,7.4-1,11.1c3.5-4.8,7.8-9,12.7-12.5c5.5-3.6,11.6-6.1,18-7.7c4.2-0.9,8.4-1.6,12.7-2.1
	c2.6-4.5,5.4-8.7,8.6-12.8c0.3-0.3,0.8-0.4,1.1-0.1s0.4,0.8,0.1,1.1c-14.3,18-22.1,40.5-23,66.7c3.6,0.8,7.2,1.5,10.9,2
	c0.9-20.6,6.7-41.9,17.4-63.5c0.2-0.4,0.6-0.6,1-0.5s0.6,0.6,0.5,1c0,0,0,0.1-0.1,0.1c-10.6,21.4-16.4,42.7-17.2,63
	c3.9,0.5,7.7,0.8,11.6,1c-3.1-12.1,2.8-40,11.9-55.9c0.2-0.4,0.7-0.4,1.1-0.2c0.3,0.2,0.4,0.6,0.3,1c-8.8,15.5-14.8,43.8-11.6,55.2
	l0,0c3.4,0.1,6.8,0,10.2-0.2c-0.2-15.4,2.4-30.7,7.7-45.2c0.1-0.4,0.6-0.6,1-0.5s0.6,0.6,0.5,1c-5.3,14.2-7.8,29.3-7.6,44.5
	c3.1-0.2,6.3-0.7,9.3-1.2c0,0,0-0.1,0-0.1c-0.3-11.6,1.7-23.1,5.8-33.9c0.2-0.4,0.6-0.6,1-0.4c0.4,0.2,0.6,0.6,0.4,1
	c-4,10.6-6,21.9-5.8,33.2c1.9-0.4,3.7-0.8,5.4-1.3c1.4-0.4,2.7-0.9,4-1.4c-0.6-2.9-0.8-5.8-0.5-8.7c0.4-4,1.6-7.9,3.3-11.4l0.6-1.4
	c0.2-0.4,0.6-0.6,1-0.4c0.4,0.2,0.6,0.6,0.4,1l-0.6,1.4c-1.7,3.4-2.8,7.2-3.2,11c-0.2,2.6-0.1,5.3,0.4,7.9c4.6-2,8.9-4.8,12.5-8.3
	c0.3-0.3,0.8-0.3,1.1,0c0.3,0.3,0.3,0.8,0,1.1c0,0,0,0,0,0c-4.3,4.4-11.8,8.7-18.6,10.7c-20.1,5.9-47.1,3.9-69.9-4.6
	c-0.2,0.1-0.5,0.1-0.7-0.1c-0.1,0-0.1-0.1-0.2-0.1c0,0-0.1-0.1-0.1-0.1c-1.8-0.7-3.5-1.4-5.2-2.1c0.7,2.6,1.4,5.3,2.3,7.8
	c1.4,3.5,3.3,6.8,5.6,9.8c22.5,9.4,73-1.2,90.4-16.2c0.4-0.2,0.8-0.1,1.1,0.2c0.2,0.3,0.2,0.7-0.1,0.9
	C116.4,200.3,68,210.9,43.9,203c1.6,2,3.3,3.9,4.9,5.7c2.9,3.3,6,6.4,9.3,9.3c10.3,0.9,26.7-2.6,39.4-6.7c12.9-4.2,30-13.5,37.9-23
	c0.3-0.3,0.8-0.4,1.1-0.1c0.3,0.3,0.4,0.8,0.1,1.1c0,0,0,0,0,0c-8,9.8-25.5,19.2-38.6,23.5c-9.1,3-25.8,7.2-37.8,6.9
	c2.4,1.8,5,3.4,7.7,4.7c4.1,2,8.4,3.4,12.9,4.3c22.5-4,49.9-21.9,61.2-40.9c0.2-0.4,0.7-0.5,1.1-0.3c0,0,0,0,0,0
	c0.4,0.2,0.5,0.7,0.3,1.1c0,0,0,0,0,0c-10.8,18.2-36.1,35.4-58.2,40.8c9.1,1,18.2-0.1,26.9-3c8-2.6,11-5,16.4-11.1
	C131.9,211.4,134.4,205,137,200.5z"/>
<path class="st1" d="M152.2,52.6c-3.5,5.3-7.7,12.3-9.4,20.3c5.1-1.4,10.4-2.3,15.7-2.9c2.5-13,9.5-28.1,17.2-37.4
	c-1.5-0.2-3-0.3-4.4-0.3C165,37.3,157.3,44.9,152.2,52.6z"/>
<path class="st1" d="M37.7,155.9c7.8-4.7,15.9-6.5,24.5-8.5l0.5-0.1c0,0,0.1,0,0.1,0c1.6-4.1,3.5-8.2,5.7-12.1
	c-3.8,0.4-7.7,1.1-11.4,1.9c-6.2,1.5-12.1,4-17.5,7.5c-5.3,3.7-9.8,8.3-13.4,13.7c0.1,1,0.2,1.9,0.4,2.9c0.3,1.4,0.7,2.9,1.2,4.2
	C30.5,161.7,33.9,158.5,37.7,155.9z"/>
<path class="st1" d="M58.4,159.9c0.1,0,0.2,0,0.3,0c1-3.7,2.1-7.3,3.5-10.9c-8.7,2-16.2,3.7-23.7,8.2c-4,2.6-7.4,6-10.1,9.9
	c0.9,2.3,2,4.6,3,7C38.4,166.3,48,161.3,58.4,159.9z"/>
<path class="st2" d="M119.4,63.8c22.2,23.1,40.6,50.5,62.4,74c2.8,3,9.9,11.5,11.5,14.5c0.5,5.5-9.9,12.7-13.6,15.7
	c-6.1,4.9-12.5,9.5-18.5,14.5c-3.8,3.2-12.1,12.9-17.5,11.7s-11.8-9.1-15.3-12.6c-5.6-5.6-10.7-11.7-15.8-17.8
	c-11.1-13.4-21.5-26.8-32.3-40.4c-3.1-4-5.7-8.4-7.8-13c-2.6-5.4-1.8-5.9,2.6-10.1c4.9-4.8,8.2-7,13.3-11.7
	C91.8,85.4,115,61.4,119.4,63.8C123.9,68.4,117.3,62.7,119.4,63.8z"/>
<path class="st3" d="M176.2,161.1c-0.1-0.1-0.1-0.2-0.1-0.2c0-0.2,0.2-0.4,0.4-0.4c3.4,0,5.9-0.6,7.7-2c2-1.5,3.3-4.4,2.1-6.8
	c-0.5-1-1.4-1.6-2.5-1.9c-0.2,0.6-0.6,1.1-1.1,1.5c-1,0.8-2.3,0.6-3.2-0.2c-0.1-0.1-0.1-0.3,0-0.4c0.7-1.2,2.1-1.8,3.4-1.7h0.3
	c0-0.2,0.1-0.4,0.1-0.6c0.1-2.3-1-4.5-3-5.8c-1.6-1-3.5-1.4-5.4-1.3c-0.2,1.9-1.2,3.6-2.8,4.6H172c-0.6,0-1.2-0.3-1.6-0.8
	c-0.5-0.7-0.5-1.6-0.2-2.4c0.7-1.2,2-1.9,3.3-2c0.2,0,0.4-0.1,0.7-0.1c0-0.5-0.1-1-0.2-1.5c-0.8-2.4-2.6-4.3-4.9-5.2
	c-0.6-0.3-1.3-0.5-2-0.7c-0.1,0.3-0.2,0.5-0.3,0.8c-0.5,1-1.4,1.7-2.5,2c-0.6,0.1-1.2-0.1-1.6-0.5c-0.1-0.1-0.1-0.2-0.1-0.3
	c0.3-1.4,1.5-2.5,2.9-2.7c0.3-0.1,0.7-0.1,1-0.1c0.9-3.5-1.2-7-4.7-8c-0.3-0.1-0.6-0.1-0.9-0.2c-0.4,1.3-1.4,2.5-2.6,3.1
	c-0.3,0.2-0.7,0.2-1.1,0.2c-0.4-0.1-0.8-0.4-1-0.8c-0.2-0.5-0.2-1.1,0-1.7c0.5-0.8,1.2-1.3,2.1-1.5c0.7-0.2,1.3-0.2,2-0.2
	c0.1-0.3,0.1-0.6,0.1-0.9c-0.1-1.8-0.7-3.5-1.9-4.8c-1.1-1.5-2.7-2.6-4.6-3h0c-0.4,1.5-1.2,2.8-2.5,3.6c-0.5,0.4-1.2,0.5-1.9,0.4
	c-0.4-0.1-0.7-0.3-0.8-0.6c-0.2-0.5-0.2-1,0-1.5c0.8-1.7,2.6-2.8,4.5-2.8c0.1-0.4,0.1-0.9,0.1-1.3c-0.4-4.1-3.5-7.3-7.5-8
	c-0.2,0.7-0.5,1.4-0.9,2.1c-0.5,0.8-1.4,1.4-2.4,1.4c-0.6,0-1.2-0.3-1.5-0.8c-0.3-0.4-0.4-0.9-0.3-1.3c0.2-0.4,0.5-0.8,0.9-1.1
	c1.1-0.8,2.3-1.1,3.6-1.1c0.2-1.4,0-2.8-0.6-4c-0.8-1.9-2-3.6-3.6-4.9c-1.1-0.9-2.5-1.6-3.9-1.9c0.1,0.8-0.1,1.7-0.4,2.5
	c-0.2,0.7-0.8,1.2-1.5,1.4c-0.6,0.1-1.3-0.3-1.4-0.9c0,0,0-0.1,0-0.1c-0.3-1.1,0.4-3.2,1.9-3.6c0.2-0.1,0.4-0.1,0.6-0.1
	c-0.2-0.9-0.5-1.8-1-2.6c-0.9-1.7-2.2-3.2-3.7-4.3c-1-0.7-2-1.2-3.1-1.6c0,1.5-0.9,2.9-2.3,3.6c0,0-0.1,0-0.2,0
	c-0.7,0-1.3-0.4-1.6-1c-0.4-0.7-0.4-1.6,0-2.4c0.7-1,2-1.5,3.3-1.3c0-0.2-0.1-0.4-0.1-0.6c-0.5-1.8-1.5-3.5-2.8-4.8
	c-1.3-1.1-2.7-2-4.3-2.6c-0.2-0.1-0.5-0.2-0.7-0.2c0.2,1.2-0.2,2.5-1.1,3.4c-0.6,0.6-1.5,0.8-2.3,0.6c-0.6-0.1-1.2-0.5-1.4-1.1
	c-0.4-1-0.1-2.1,0.8-2.8c0.9-0.7,2-1.1,3.1-1c-0.2-1.1-0.8-2-1.6-2.7c-0.8-0.5-1.8-0.7-2.7-0.4c-1.4,0.3-2.6,1.2-3.4,2.5
	c-1.3,2.2-1.2,5.1-1.2,7.4c0,0.2-0.2,0.4-0.4,0.4c-0.2,0-0.4-0.2-0.4-0.4c0-2.4-0.1-5.4,1.3-7.8c0.9-1.4,2.2-2.5,3.9-2.9
	c1.1-0.3,2.3-0.1,3.3,0.5c1.1,0.8,1.8,2,2,3.3c0.4,0.1,0.8,0.2,1.1,0.3c1.7,0.6,3.2,1.6,4.6,2.8c1.4,1.4,2.4,3.2,3,5.2
	c0.1,0.4,0.2,0.7,0.2,1.1c1.3,0.4,2.5,1,3.6,1.8c1.6,1.3,2.9,2.8,3.8,4.6c0.6,0.9,0.9,1.9,1.1,3c1.7,0.3,3.2,1,4.6,2.1
	c1.7,1.4,3.1,3.2,3.9,5.2c0.6,1.4,0.9,2.9,0.7,4.3c4.4,0.7,7.7,4.3,8.1,8.7c0,0.5,0,0.9-0.1,1.4l0,0c2,0.4,3.9,1.6,5.1,3.3
	c1.2,1.5,1.9,3.4,2,5.3c0,0.3,0,0.7-0.1,1c4,0.5,6.8,4.2,6.3,8.2c0,0.3-0.1,0.5-0.2,0.8c0.7,0.1,1.4,0.4,2.1,0.7
	c2.5,1.1,4.4,3.2,5.3,5.7c0.2,0.6,0.3,1.2,0.3,1.8c2-0.1,4.1,0.4,5.8,1.4c2.2,1.4,3.5,3.9,3.4,6.5c0,0.2,0,0.4-0.1,0.6
	c1.3,0.3,2.3,1.1,2.9,2.3c1.4,2.8-0.1,6.1-2.4,7.8c-2,1.4-4.6,2.1-8.1,2.1C176.3,161.3,176.2,161.2,176.2,161.1z M174.2,141.4
	l-0.5,0.1c-1.1,0.1-2.1,0.7-2.8,1.6c-0.2,0.5-0.2,1.1,0.1,1.6c0.2,0.3,0.5,0.5,0.8,0.5C173.1,144.3,174,143,174.2,141.4L174.2,141.4
	z M166.3,133c-0.2,0-0.4,0-0.7,0.1c-1,0.1-1.9,0.9-2.3,1.9c0.2,0.2,0.5,0.2,0.8,0.2c0.9-0.2,1.6-0.8,2-1.6
	C166.2,133.3,166.2,133.2,166.3,133z M160.1,124c-0.5,0-1.1,0.1-1.6,0.2c-0.7,0.1-1.3,0.5-1.6,1.1c-0.1,0.3-0.1,0.6,0,0.9
	c0.1,0.2,0.3,0.3,0.4,0.3c0.2,0,0.4,0,0.6-0.1C159,125.9,159.8,125.1,160.1,124z M153.1,114.4c-1.5,0-3,0.9-3.6,2.3
	c-0.1,0.3-0.2,0.6-0.1,0.9c0.1,0.1,0.2,0.2,0.3,0.2c0.4,0.1,0.9-0.1,1.2-0.3C152.1,116.7,152.8,115.6,153.1,114.4L153.1,114.4z
	 M118.8,73.9c-1-0.1-2,0.2-2.7,0.8c-0.6,0.5-0.8,1.2-0.6,1.9c0.2,0.4,0.5,0.6,0.9,0.7c0.6,0.1,1.2,0,1.6-0.4
	C118.6,76.1,118.9,75,118.8,73.9z M145.1,104.3c-1.1,0-2.1,0.3-3,0.9c-0.3,0.2-0.5,0.4-0.6,0.7c-0.1,0.2,0,0.5,0.1,0.7
	c0.2,0.3,0.6,0.5,0.9,0.5c0.7-0.1,1.4-0.5,1.8-1.1C144.7,105.4,145,104.9,145.1,104.3z M183,149.7h-0.1c-1-0.1-1.9,0.3-2.6,1.1
	c0.6,0.4,1.3,0.3,1.9-0.1C182.6,150.4,182.8,150.1,183,149.7z M127.6,83.2c-1-0.3-2,0.1-2.6,0.8c-0.3,0.5-0.3,1.1,0,1.6
	c0.2,0.3,0.5,0.6,0.9,0.6C127,85.6,127.7,84.4,127.6,83.2z M136.2,92.6c-0.2,0-0.3,0-0.5,0.1c-0.9,0.3-1.5,1.8-1.3,2.7
	c0.1,0.4,0.3,0.4,0.5,0.4s0.7-0.4,0.9-1C136.2,94.1,136.3,93.4,136.2,92.6L136.2,92.6z"/>
<path class="st3" d="M118.3,164c-0.9-1.1-1.6-2.3-2.2-3.5c-0.6-1.4-0.9-2.9-0.7-4.4c-4.4-0.7-7.7-4.3-8.1-8.7c0-0.5,0-0.9,0.1-1.4
	l0,0c-2-0.4-3.9-1.6-5.1-3.3c-1.2-1.5-1.9-3.4-2-5.3c0-0.3,0-0.7,0.1-1c-1.8-0.2-3.5-1.2-4.7-2.6c-1.4-1.8-2-4.1-1.4-6.4
	c-0.7-0.1-1.4-0.4-2.1-0.7c-2.5-1.1-4.4-3.2-5.3-5.7c-0.2-0.6-0.3-1.2-0.3-1.8c-2,0.1-4.1-0.3-5.8-1.4c-2.2-1.4-3.5-3.9-3.4-6.5
	c0-0.2,0-0.4,0.1-0.6c-1.3-0.3-2.4-1.1-3-2.3c-1.4-2.8,0.1-6.1,2.4-7.8c2-1.5,4.6-2.2,8.2-2.1c0.2,0,0.4,0.2,0.4,0.4
	c0,0.2-0.2,0.4-0.4,0.4c-3.3,0-5.9,0.6-7.7,1.9c-2,1.5-3.3,4.4-2.1,6.8c0.5,0.9,1.4,1.6,2.5,1.9c0.2-0.6,0.6-1.1,1.1-1.5
	c0.9-0.7,2.3-0.7,3.2,0.2l0,0c0.1,0.1,0.1,0.3,0,0.4c-0.7,1.2-2.1,1.8-3.4,1.7h-0.3c0,0.2-0.1,0.4-0.1,0.6c-0.1,2.3,1,4.5,3,5.8
	c1.6,1,3.5,1.5,5.4,1.3c0.1-1.9,1.2-3.6,2.8-4.6c0,0,0.1,0,0.2,0c0.6,0,1.2,0.3,1.6,0.8c0.5,0.7,0.6,1.6,0.2,2.4
	c-0.7,1.1-2,1.9-3.3,2l-0.7,0.1c0,0.6,0.1,1.1,0.2,1.7c0.8,2.4,2.6,4.3,4.9,5.2c0.6,0.3,1.3,0.5,2,0.7c0.1-0.2,0.2-0.5,0.3-0.8
	c0.5-1,1.4-1.7,2.6-2c0.6-0.1,1.2,0.1,1.6,0.5c0.1,0.1,0.1,0.2,0.1,0.3c-0.3,1.5-1.5,2.5-3,2.7c-0.3,0.1-0.7,0.1-1,0.1
	c-0.5,2,0,4.2,1.3,5.8c1.1,1.3,2.6,2.1,4.3,2.3c0.4-1.3,1.4-2.5,2.6-3.1c0.3-0.2,0.7-0.2,1.1-0.2c0.4,0.1,0.8,0.4,1,0.8
	c0.3,0.5,0.3,1.1,0,1.6c-0.5,0.8-1.2,1.3-2.1,1.5c-0.7,0.2-1.3,0.2-2,0.2c-0.1,0.3-0.1,0.6-0.1,0.9c0.1,1.8,0.7,3.5,1.8,4.8
	c1.1,1.5,2.7,2.6,4.6,3h0.1c0.4-1.5,1.2-2.8,2.5-3.6c0.5-0.4,1.2-0.5,1.8-0.4c0.4,0.1,0.7,0.3,0.8,0.6c0.2,0.5,0.2,1.1,0,1.5
	c-0.8,1.7-2.6,2.8-4.5,2.7c-0.1,0.4-0.1,0.9-0.1,1.3c0.4,4,3.5,7.3,7.5,8c0.2-0.7,0.5-1.4,1-2.1c0.5-0.8,1.4-1.4,2.4-1.4
	c0.6,0,1.2,0.3,1.5,0.8c0.3,0.4,0.4,0.9,0.3,1.3c-0.2,0.4-0.5,0.8-0.9,1.1c-1.1,0.8-2.3,1.1-3.7,1.1c-0.2,1.4,0.1,2.8,0.6,4
	c0.8,1.9,2,3.6,3.7,4.9c1.1,0.9,2.5,1.6,3.9,1.9c-0.1-0.8,0.1-1.7,0.4-2.5c0.2-0.7,0.8-1.2,1.5-1.4c0.6-0.1,1.3,0.3,1.4,0.9
	c0,0,0,0.1,0,0.1c0.3,1.1-0.4,3.2-1.8,3.6c-0.2,0.1-0.4,0.1-0.6,0.1c0.2,0.9,0.5,1.8,1,2.6c0.9,1.7,2.1,3.2,3.6,4.4
	c1,0.7,2,1.2,3.1,1.5c0-1.5,0.9-2.9,2.3-3.6c0,0,0.1,0,0.1,0c0.7,0,1.3,0.4,1.6,1c0.4,0.7,0.4,1.6,0,2.4c-0.7,1-2,1.5-3.3,1.2
	c0,0.2,0.1,0.4,0.1,0.6c0.7,1.8,1.9,3.3,3.4,4.6c1.1,1.2,2.4,2.2,3.8,2.9c0.2,0.1,0.5,0.2,0.7,0.2c-0.2-1.2,0.2-2.5,1.1-3.4
	c0.6-0.5,1.5-0.8,2.3-0.6c0.6,0.1,1.2,0.5,1.4,1.1c0.4,1,0.1,2.1-0.8,2.8c-0.9,0.7-2,1.1-3.1,1c0.2,1,0.8,2,1.6,2.6
	c0.8,0.5,1.8,0.7,2.7,0.4c1.4-0.3,2.6-1.2,3.4-2.5c1.3-2.2,1.2-5.1,1.2-7.4c0-0.2,0.1-0.4,0.3-0.4c0.2,0,0.4,0.1,0.4,0.3
	c0,0,0,0.1,0,0.1c0.1,2.4,0.1,5.4-1.3,7.8c-0.9,1.4-2.3,2.5-3.9,2.9c-1.1,0.3-2.3,0.1-3.3-0.5c-1.1-0.8-1.8-2-2-3.3
	c-0.4-0.1-0.8-0.2-1.1-0.3c-1.5-0.7-2.9-1.8-4-3c-1.6-1.3-2.8-3-3.6-4.9c-0.1-0.4-0.2-0.7-0.2-1.1c-1.3-0.4-2.5-1-3.6-1.8
	c-1.6-1.3-2.9-2.8-3.8-4.6c-0.6-0.9-0.9-1.9-1.1-3c-1.7-0.3-3.2-1-4.5-2.1C119.4,165.2,118.8,164.6,118.3,164z M126.9,164
	c-0.1-0.1-0.3-0.1-0.4-0.1c-0.3,0-0.7,0.4-1,1c-0.3,0.7-0.4,1.4-0.3,2.2c0.2,0,0.4,0,0.5-0.1c0.9-0.2,1.5-1.9,1.3-2.7
	C127,164.2,127,164.1,126.9,164z M135.6,173.4c-1.1,0.6-1.8,1.8-1.8,3.1c1,0.3,2-0.1,2.6-0.9c0.3-0.5,0.3-1.1,0-1.6
	C136.3,173.7,136,173.5,135.6,173.4L135.6,173.4z M119.8,153.1c-0.2-0.3-0.5-0.4-0.9-0.4c-0.7,0.1-1.4,0.5-1.8,1.1
	c-0.4,0.5-0.6,1.1-0.8,1.7c1.1,0,2.1-0.3,3-0.9c0.3-0.2,0.5-0.4,0.6-0.7C120,153.6,120,153.3,119.8,153.1L119.8,153.1z M145.9,182.8
	c-0.2-0.2-0.5-0.3-0.7-0.4c-0.6-0.1-1.2,0-1.6,0.4c-0.7,0.8-1,1.9-0.8,2.9c1,0.1,2-0.2,2.7-0.8c0.6-0.5,0.8-1.2,0.6-1.9
	C146,182.9,145.9,182.8,145.9,182.8L145.9,182.8z M111.9,142.1c-0.1-0.1-0.2-0.1-0.3-0.1c-0.4-0.1-0.9,0.1-1.2,0.3
	c-1,0.7-1.8,1.8-2.1,3.1c1.5,0,3-0.9,3.6-2.3C112.1,142.8,112.1,142.5,111.9,142.1L111.9,142.1z M81.1,108.9
	c-0.6-0.4-1.4-0.3-1.9,0.1c-0.3,0.3-0.6,0.6-0.7,1h0.1C79.6,110.1,80.5,109.7,81.1,108.9z M104.5,133.3c-0.1-0.1-0.2-0.2-0.3-0.2
	c-0.2,0-0.4,0-0.6,0.1c-1,0.5-1.8,1.4-2.2,2.4c0.5,0,1.1-0.1,1.6-0.2c0.7-0.1,1.3-0.5,1.6-1.1c0.1-0.3,0.1-0.7,0-0.9
	C104.6,133.4,104.5,133.3,104.5,133.3z M89.7,114.5c-1.3,0.8-2.2,2.2-2.3,3.8l0.5-0.1c1.1-0.1,2.1-0.7,2.8-1.6
	c0.2-0.5,0.2-1.1-0.1-1.6C90.3,114.7,90,114.5,89.7,114.5z M98.1,124.8c-0.2-0.2-0.5-0.2-0.8-0.2c-0.9,0.2-1.6,0.8-2,1.6
	c-0.1,0.2-0.1,0.3-0.2,0.5c0.2,0,0.4,0,0.7-0.1C96.9,126.5,97.8,125.8,98.1,124.8z"/>
<path class="st3" d="M96.7,89.7L96.7,89.7c-0.1-0.1-0.1-0.2,0-0.3c-0.1-0.1-0.1-0.2-0.1-0.3c-0.1-1.9,0.4-3.8,1.3-5.5
	c0.3-0.7,0.7-1.2,1.4-1.6c0.4-0.2,0.9-0.2,1.4,0c0.3,0.2,0.6,0.5,0.7,0.8c0.1,0.3,0.1,0.5,0,0.8c-0.5,2.5-1.9,4.6-4,6
	C97.1,89.8,96.9,89.8,96.7,89.7z M100.4,82.9c-0.1-0.1-0.1-0.1-0.2-0.1c-0.2-0.1-0.5-0.1-0.7,0c-0.4,0.3-0.8,0.7-1,1.2
	c-0.8,1.5-1.2,3.2-1.2,4.8c1.7-1.3,2.8-3.1,3.2-5.2c0-0.2,0-0.3,0-0.5C100.5,83,100.5,83,100.4,82.9z"/>
<path class="st3" d="M96.6,90.1L96.6,90.1c-0.1-0.1-0.2-0.4,0-0.5c0,0,0,0,0,0c0.1-0.1,0.2-0.1,0.3-0.1c1-0.6,2.1-1.1,3.3-1.5
	c1.2-0.4,2.5-0.4,3.7-0.1c0.2,0,0.3,0.1,0.4,0.3c0.1,0.3,0.1,0.6-0.1,0.8c-0.9,1.2-2.4,1.6-3.9,1.8C99,91,97.4,91.1,96.6,90.1z
	 M103.5,88.6c-1-0.2-2.1-0.2-3.1,0.2c-1,0.3-1.9,0.7-2.8,1.2c0.8,0.3,1.7,0.3,2.5,0.1C101.3,89.9,102.5,89.4,103.5,88.6z"/>
<path class="st3" d="M96.9,95.5c-0.1-0.1-0.2-0.3-0.3-0.4c-1-1.6-1.1-3.6-0.5-5.4c0.1-0.2,0.3-0.3,0.5-0.2c0,0,0,0,0,0
	c0.1,0,0.1,0.1,0.2,0.1c0.1,0,0.1,0,0.2,0.1c1,0.8,1.8,1.8,2.3,2.9c0.4,0.7,0.5,1.5,0.2,2.3c-0.2,0.5-0.6,0.8-1.1,1
	C98,96,97.5,96,97.2,95.7C97.1,95.7,97,95.6,96.9,95.5z M96.7,90.5c-0.4,1.4-0.1,3,0.6,4.2c0.1,0.2,0.2,0.3,0.3,0.4
	c0.2,0.1,0.3,0.1,0.5,0c0.3-0.1,0.5-0.3,0.6-0.6c0.2-0.6,0.1-1.2-0.2-1.7C98.1,91.9,97.4,91.1,96.7,90.5L96.7,90.5z"/>
<path class="st3" d="M90.3,94.1c-0.1-0.1-0.1-0.1-0.2-0.2c-0.2-0.4-0.3-0.9-0.2-1.4c0.3-0.6,0.8-1.2,1.4-1.5c1.5-1,3.2-1.8,5-2.2
	c0.2-0.1,0.4,0.1,0.5,0.3c0,0.2,0,0.3-0.2,0.4c0,0.1,0,0.1,0,0.2c-0.7,2-2.6,3.4-4.4,4.5c-0.4,0.3-0.9,0.4-1.4,0.4
	C90.7,94.5,90.5,94.3,90.3,94.1z M95.9,89.7c-1.4,0.5-2.8,1.1-4,1.9c-0.5,0.3-0.9,0.7-1.1,1.1c-0.1,0.2,0,0.5,0.1,0.7
	c0.1,0.1,0.2,0.2,0.3,0.2c0.3,0,0.6-0.1,0.8-0.3C93.6,92.6,94.9,91.3,95.9,89.7z"/>
<path class="st3" d="M165.4,169.7c-0.1-0.1-0.1-0.4,0-0.5c1.7-1.9,4.1-3,6.6-3.1c0.3,0,0.5,0,0.8,0.1c0.3,0.2,0.6,0.4,0.7,0.8
	c0.1,0.5,0.1,0.9-0.1,1.4c-0.4,0.6-1,1-1.7,1.2c-1.8,0.6-3.8,0.8-5.7,0.4c-0.1,0-0.2-0.1-0.2-0.1
	C165.6,169.9,165.5,169.8,165.4,169.7C165.4,169.8,165.4,169.7,165.4,169.7z M172.7,167.1c0,0-0.1-0.1-0.1-0.1
	c-0.2-0.1-0.3-0.1-0.5-0.1c-2.1,0.1-4.1,0.9-5.6,2.4c1.7,0.3,3.4,0.1,5-0.4c0.5-0.1,1-0.4,1.3-0.9c0.1-0.2,0.2-0.5,0.1-0.7
	C172.8,167.2,172.7,167.1,172.7,167.1z"/>
<path class="st3" d="M165,169.8c-0.9-1-0.5-2.5-0.1-3.7c0.5-1.4,1.1-2.9,2.4-3.6c0.2-0.2,0.6-0.2,0.8,0c0.1,0.1,0.2,0.3,0.2,0.5
	c0.2,1.3-0.1,2.6-0.7,3.7c-0.5,1.1-1.2,2.1-1.9,3c0,0.1,0,0.2-0.1,0.3C165.4,170.1,165.2,170.1,165,169.8
	C165,169.9,165,169.9,165,169.8L165,169.8z M167.6,163.2c-1,0.8-1.7,1.9-1.9,3.1c-0.4,0.8-0.5,1.6-0.3,2.5c0.6-0.8,1.2-1.6,1.6-2.5
	C167.4,165.4,167.6,164.3,167.6,163.2L167.6,163.2z"/>
<path class="st3" d="M159.7,168.7c-0.4-0.4-0.5-1-0.2-1.5c0.2-0.5,0.7-0.8,1.2-0.9c0.8-0.1,1.6,0.1,2.2,0.6c1.1,0.7,1.9,1.6,2.5,2.7
	c0,0.1,0.1,0.1,0.1,0.2c0,0,0.1,0.1,0.1,0.2c0,0.2-0.1,0.4-0.3,0.5c-1.9,0.3-3.8-0.1-5.2-1.3C159.9,168.9,159.8,168.8,159.7,168.7z
	 M164,168.8c-0.4-0.5-0.9-1-1.5-1.3c-0.5-0.4-1.1-0.5-1.6-0.5c-0.3,0.1-0.5,0.3-0.6,0.5c-0.1,0.2-0.1,0.3,0,0.5
	c0.1,0.2,0.2,0.3,0.4,0.4c1.2,0.9,2.6,1.4,4.1,1.2C164.5,169.4,164.3,169.1,164,168.8L164,168.8z"/>
<path class="st3" d="M160.1,175.4c-0.2-0.2-0.3-0.5-0.3-0.8c0-0.5,0.2-1,0.6-1.3c1.3-1.6,3-3.2,5.1-3.6c0.1,0,0.1,0,0.2,0
	c0.1-0.1,0.3-0.2,0.4-0.1c0.2,0.1,0.3,0.3,0.2,0.5c-0.8,1.7-1.8,3.2-3,4.6c-0.4,0.6-1,1-1.7,1.2c-0.5,0.1-1,0-1.4-0.3L160.1,175.4z
	 M165.3,170.6c-1.7,0.7-3.2,1.8-4.3,3.3c-0.2,0.2-0.4,0.5-0.4,0.8c0,0.1,0.1,0.3,0.2,0.4c0.2,0.2,0.5,0.2,0.7,0.2
	c0.5-0.2,1-0.5,1.3-0.9C163.8,173.1,164.6,171.9,165.3,170.6z"/>
</svg>
