<?xml version="1.0" encoding="utf-8"?>
<!-- Generator: Adobe Illustrator 24.3.0, SVG Export Plug-In . SVG Version: 6.00 Build 0)  -->
<svg version="1.1" id="Layer_17" xmlns="http://www.w3.org/2000/svg" xmlns:xlink="http://www.w3.org/1999/xlink" x="0px" y="0px"
	 viewBox="0 0 260 250" style="enable-background:new 0 0 260 250;" xml:space="preserve">
<style type="text/css">
	.st0{fill:#F7F3DE;}
	.st1{fill:#F87311;}
	.st2{fill:#8C3009;}
	.st3{fill:#F98F2F;}
	.st4{fill:#FAB02D;}
	.st5{fill:#FAC92C;}
	.st6{fill:#BF3B0D;}
	.st7{fill:#F88212;}
	.st8{fill:#121515;}
	.st9{fill:#1C1F1F;}
	.st10{fill:#1A3E18;}
	.st11{fill:#254F1F;}
	.st12{fill:#2D6226;}
	.st13{fill:#07150B;}
	.st14{fill:#438736;}
	.st15{fill:#AEAAB2;}
	.st16{fill:#D5D4D5;}
	.st17{fill:#C0BFC1;}
	.st18{fill:#625C6A;}
	.st19{fill:#D6D4D4;}
	.st20{fill:#FFFFFF;}
	.st21{fill:#179D93;}
	.st22{fill:#2FADB3;}
	.st23{fill:#0A3D4A;}
	.st24{fill:#D87813;}
	.st25{fill:#E98C17;}
	.st26{fill:#5C0E08;}
	.st27{fill:#780E08;}
	.st28{fill:#F35163;}
	.st29{fill:#F3AFB8;}
	.st30{fill:#F38292;}
	.st31{fill:#BD3E4A;}
	.st32{fill:#8A2E08;}
	.st33{fill:#F6C231;}
	.st34{fill:#F7DA83;}
	.st35{fill:#101212;}
	.st36{fill:#F5F5F5;}
	.st37{fill:#F68026;}
	.st38{fill:#E06324;}
	.st39{fill:#411E1B;}
	.st40{fill:#4D2D2A;}
	.st41{fill:#583A37;}
	.st42{fill:#1E0F0C;}
	.st43{fill:#DAD9DB;}
	.st44{fill:#838384;}
	.st45{fill:#F5D4D8;}
</style>
<rect x="0" y="-0.2" class="st0" width="260" height="250"/>
<path class="st1" d="M153.5,213.2c0,0-7,5.8-9.1,8.7c-4.7-0.6-19.4-8.7-19.4-8.7S111.9,204.2,153.5,213.2z"/>
<path class="st2" d="M144.3,222.1c-4.6-0.6-18.8-8.4-19.4-8.7c-0.1-0.1-2.3-1.6-2-2.9c0.3-0.9,1.8-1.4,4.7-1.4
	c4.9,0,13.6,1.4,25.9,4l0.2,0.1l-0.2,0.2C153.4,213.4,146.5,219.1,144.3,222.1L144.3,222.1L144.3,222.1z M127.6,209.4
	c-3.4,0-4.3,0.6-4.4,1.2c-0.3,1.1,1.8,2.6,1.8,2.6s14.6,8,19.2,8.7c2-2.6,7.8-7.6,8.9-8.5C141.1,210.7,132.5,209.4,127.6,209.4z"/>
<path class="st3" d="M113.3,196.8c0,0,2.7,4.1,1.4,10.9c-0.4,3.4-1.1,4.8,1.1,3.8c1,3.1,3,6.4,12.3,0.3c4.8-3.1,25,2.5,23-6.2
	c-1-4.3-3.2-4.6-21.9-0.5c-1.1-0.7-1.8-1.8-2.6-1.8c-0.6-3.2-2.8-5.8-5.9-6.9C118.3,196.4,115.8,196.5,113.3,196.8z"/>
<path class="st4" d="M115.4,196.8c0,0,1.7,3.8,0.5,10.6c-0.4,3.4,0.7,4.1,3,4.9c1,3.1-0.1,5.7,9.2-0.5c4.8-3.1,25,2.5,23-6.2
	c-1-4.3-3.2-4.6-21.9-0.5c-1.1-0.7-1.8-1.8-2.6-1.8c-0.6-3.2-2.8-5.8-5.9-6.9C119,196.3,117.2,196.5,115.4,196.8z"/>
<path class="st5" d="M117,207c0.4-1.9,0.5-3.8,0.4-5.6c-0.2-2,7.6-3.7,9.3,2c0.8-0.1,1.5,1.1,2.6,1.8c18.7-4.1,19.2-3.6,20.2,0.7
	c0.1,0.3-0.2,0.5-1.2,0.6c-9.3,0-12.7,0.7-18.3,4.7c-0.6,0.1-1.2,0.4-1.8,0.7c-9.3,6.1-7.2,3.4-8.2,0.3
	C117.7,211.3,116.5,210.4,117,207z"/>
<path class="st6" d="M119.9,215.4c-2.6,0-3.6-1.8-4.2-3.7c-0.3,0.1-0.6,0.2-0.9,0.2l0,0c-0.2,0-0.3-0.1-0.5-0.2
	c-0.3-0.3-0.2-1.1,0-2.4c0.1-0.5,0.2-1,0.2-1.7c1.2-6.7-1.4-10.8-1.4-10.9l-0.1-0.2h0.2c2.5-0.3,5-0.4,7.5-0.3l0,0
	c3.1,1.1,5.3,3.7,6,6.9c0.6,0.1,1.1,0.4,1.4,0.9c0.3,0.3,0.7,0.6,1.1,0.9c8.4-1.8,13.9-2.9,17.1-2.9c3.4,0,4.3,1.2,4.8,3.5
	c0.3,1.1,0.1,2.2-0.5,3.1c-1.5,1.9-5.5,2.2-9.6,2.2c-1,0-2,0-3,0h-2.9c-2.7,0-5.6,0.1-7.1,1.1C124.6,214.4,121.9,215.5,119.9,215.4
	L119.9,215.4z M138.1,210.7c1,0,2,0,3,0c4,0,7.9-0.3,9.4-2.1c0.6-0.9,0.8-1.9,0.5-2.9c-0.5-2.2-1.3-3.3-4.6-3.3s-8.7,1.1-17.1,2.9
	h-0.1l0,0c-0.4-0.3-0.8-0.6-1.2-0.9c-0.5-0.4-0.9-0.8-1.3-0.8h-0.1v-0.1c-0.6-3.1-2.8-5.7-5.8-6.8c-2.4,0-4.8,0.1-7.2,0.3
	c1.6,3.4,2.1,7.2,1.3,10.9c-0.1,0.6-0.2,1.2-0.2,1.7c-0.2,1.1-0.3,1.9-0.1,2.2c0.1,0.1,0.2,0.1,0.3,0.1c0.3,0,0.7-0.1,1-0.3l0.1-0.1
	v0.1c0.6,1.8,1.5,3.6,4,3.6l0,0c2,0,4.7-1.2,8.2-3.4c1.5-1,4.3-1.1,7.2-1.1L138.1,210.7z"/>
<path class="st3" d="M128.4,207c4.4,0.5,8.8,0.8,13.1,0.7c5.2-0.2,14.7-0.8,14.4,4.8c0,2.8-4.1,4.3-13.4,1.7
	c-7.2-1.7-11.8-1.3-17.6-2.9L128.4,207z"/>
<path class="st4" d="M128.4,207c4.4,0.5,8.8,0.8,13.1,0.7c5.2-0.2,14.7-0.8,14.4,4.8c0,2.8-3.9,3-13.1,0.4c-7.2-1.7-12.1,0-17.9-1.6
	L128.4,207z"/>
<path class="st5" d="M128.4,207c4.4,0.5,8.8,0.8,13.1,0.7c5.2-0.2,12.9-0.4,12.6,3.6c0,2.8-2.9,3.2-12.1,0.6
	c-7.2-1.7-11.4,0.6-17.2-1L128.4,207z"/>
<path class="st6" d="M150.7,215.8c1.5,0.1,3-0.3,4.3-1.1c0.7-0.5,1.1-1.3,1.1-2.1c0.1-1.1-0.3-2.1-1.1-2.9
	c-2.6-2.6-9.4-2.3-13.4-2.1h-0.1c-4.5,0-8.9-0.2-13.4-0.7c1.4,0.3,2.8,0.5,4.1,0.6c3.1,0.3,6.2,0.4,9.2,0.3h0.1
	c4-0.2,10.7-0.5,13.2,2c0.7,0.7,1.1,1.7,1,2.7c0,0.8-0.4,1.5-1,1.9c-1.9,1.5-6.4,1.3-12.2-0.4c-3-0.7-6-1.1-9.1-1.4
	c-2.9-0.3-5.7-0.7-8.5-1.5l-0.1,0.2c2.8,0.7,5.7,1.2,8.6,1.5c3,0.3,6.1,0.8,9.1,1.4C145.2,215.2,147.9,215.7,150.7,215.8z"/>
<path class="st3" d="M124.5,210.7c3,1.4,6.1,2.4,9.3,3c4.8,0.8,16.4,3.4,12.7,8.3c-4.2,5.9-10.4-1.5-24.5-7.2L124.5,210.7z"/>
<path class="st4" d="M124.5,210.7c3,1.4,6.1,2.4,9.3,3c4.8,0.8,16.4,3.4,12.7,8.3c-4.2,4.9-6.1-1.9-24.5-7.2L124.5,210.7z"/>
<path class="st5" d="M124.5,210.7c3,1.4,6.1,2.4,9.3,3c4.8,0.8,14.8,2.8,11.1,7.7c-3.2,3.8-6-5.2-23.1-6.9L124.5,210.7z"/>
<path class="st6" d="M142.9,224.3c1.6,0,3-0.9,3.8-2.2c0.7-0.8,0.9-1.9,0.6-2.8c-1.3-3.3-9.8-5.1-13.4-5.7c-3.3-0.6-6.5-1.6-9.5-3
	c0.8,0.6,1.8,1,2.7,1.4c2.2,0.8,4.5,1.4,6.8,1.9c2.8,0.5,11.8,2.2,13.2,5.5c0.3,0.9,0.1,1.9-0.5,2.6c-2.8,3.9-6.3,1.9-12.8-1.6
	c-3.7-2.1-7.6-4-11.5-5.6l-0.1,0.2c3.9,1.6,7.8,3.5,11.5,5.6C137.5,222.7,140.5,224.3,142.9,224.3z"/>
<path class="st1" d="M129.8,218.5c0,0,7.4,8,6.9,10.4c-0.7,1.6-12.4,3.4-18.6,7.9c-4.1-3.1-16.3-14.1-16.3-14.1
	S112,219.8,129.8,218.5z"/>
<path class="st7" d="M130.7,220l2.2,3.5c-1.4-0.8-4.3-1.1-6.3-1.2C129.7,221.7,130.5,220.8,130.7,220z"/>
<path class="st2" d="M118,237c-4-3.1-16.2-14-16.3-14.1l-0.2-0.1l0.2-0.1c0.1,0,10.4-3,28.1-4.2h0.1l0,0c0.3,0.3,7.4,8.1,6.9,10.5
	l0,0c-0.3,0.8-2.6,1.4-5.7,2.4C127.1,232.6,121.7,234.4,118,237L118,237z M129.8,218.7c-16.2,1.2-26.2,3.8-27.8,4.2
	c1.5,1.3,12.2,11,16,13.9c3.6-2.6,9-4.3,13-5.5c2.8-0.9,5.2-1.6,5.5-2.3C137,226.7,130.3,219.3,129.8,218.7L129.8,218.7z"/>
<path class="st3" d="M104.9,197.4c0.1,4.1-0.1,8.2-0.6,12.3c2,0.5,4.3,4.3,4.3,4.3c12.4,2.1,21.8-1.6,22.3,3.7
	c0.1,5.1-2,4.3-26.1,5.2c-0.5,2.6-4.1,3.6-9.1-0.7c-1.8,1.6-4.3,2.2-4.8,1.1s2-8,3.3-11.2c0.8-2.2,0.1-14.9-1.9-15.9
	C94.6,196.3,104.9,197.4,104.9,197.4z"/>
<path class="st4" d="M104.9,197.4c0.1,4.1-0.1,8.2-0.6,12.3c2,0.5,4.3,4.3,4.3,4.3c12.4,2.1,21.8-1.6,22.3,3.7
	c0.1,5.1-13.3,1.7-26.1,5.2c-0.5,2.6-2.8,2.8-7.8-1.4c-3.2-0.5-3.2-0.5-3.8-1.6s2.4-6.3,3.8-9.5c0.8-2.3,0.8-12.4-1.2-13.5
	C98,197,104.9,197.4,104.9,197.4z"/>
<path class="st5" d="M95.6,218c3.4-6.7,4.8-11.5,4.3-17.8c0.8-0.9,3.1,0.1,5.1-0.5c0,3.3-0.2,6.6-0.6,9.9c2,0.5,4.3,4.3,4.3,4.3
	c12.4,2.1,20.2-1.1,20.2,3.4c0,3.9-12.2,0.4-25,3.9c-0.4,2,0.7,3.8-2.2,2.1C99.4,221.4,94.6,219.9,95.6,218z"/>
<path class="st6" d="M95.7,222.4c-1,0.9-2.3,1.5-3.7,1.6c-0.5,0.1-1-0.2-1.3-0.6c-0.7-1.2,2.3-8.8,3.3-11.3c0.9-2.3,0-14.8-1.9-15.8
	l-0.5-0.3h0.6c2.3,0.2,12.6,1.2,12.7,1.2h0.1v0.1c0,4.1-0.1,8.1-0.6,12.2c1.9,0.6,3.9,3.9,4.2,4.3c3.2,0.5,6.4,0.7,9.7,0.7
	c1.2,0,2.3,0,3.3,0c0.9,0,1.8,0,2.6,0c3.6,0,6.5,0.2,6.8,3.1c0.1,4.5-1.5,4.5-17.1,5l-9.1,0.3c-0.3,1.4-1.6,2.4-3.1,2.2
	C100.5,225.2,98.5,224.7,95.7,222.4z M121.7,214.8c-1.1,0-2.2,0-3.3,0c-3.3,0-6.5-0.2-9.8-0.7l0,0V214c0,0-2.2-3.8-4.2-4.3h-0.1
	v-0.1c0.4-4,0.6-8.1,0.6-12.1c-1.1-0.1-9.5-1-12.2-1.2c1.9,2.2,2.4,13.9,1.7,15.8c-1.7,3.9-3.8,10.1-3.3,11.1
	c0.3,0.3,0.7,0.5,1.1,0.5c1.3-0.1,2.6-0.7,3.6-1.6l0.1-0.1l0.1,0.1c2.8,2.4,4.8,2.9,6,2.9c1.4,0.1,2.6-0.8,2.8-2.1v-0.1h0.1
	c3.5-0.1,6.5-0.2,9.2-0.3c7.7-0.2,12-0.4,14.3-1c2.3-0.6,2.6-1.6,2.5-3.8c-0.2-2.4-2.5-2.9-6.5-2.9
	C123.4,214.8,122.6,214.8,121.7,214.8L121.7,214.8z"/>
<path class="st8" d="M58.5,174.9c0,0-11.8-5-17.9-19.7c-4.7-11.6,4.7-19.7,8.3-19.7c-1.3,2.6-4.6,9,1.3,14.5
	c-1.4-3.6-1.1-10.1,7.3-10c-2,0.9-4,5.4-1.3,9.1c1.1-2.5,5-6.5,8.1-5.6c-1.5,1.9-4,7.8,6.5,22.3C66.4,170.6,58.5,174.9,58.5,174.9z"
	/>
<path class="st9" d="M52.2,151.4c-5.7,2.2-1.8,7.1-0.3,10.1c-13.5-5.8-10.2-24.7-3-25.9c-1.3,2.6-4.6,9,1.3,14.5
	c-1.4-3.6-1.1-10.1,7.3-10c-2,0.9-4,5.4-1.3,9.1c1.1-2.5,5-6.5,8.1-5.6c-0.7,0.8-1.1,1.9-1.3,2.9c-2.5,0.6-4.8,1.8-6.8,3.6
	C55.3,151.1,53.5,150.4,52.2,151.4z"/>
<path d="M58.5,175.1c-0.1-0.1-11.9-5.2-18-19.7c-2.1-4.8-1.6-10.3,1.3-14.6c2.2-3.2,5.3-5.2,7.1-5.2h0.2l-0.2,0.3
	c-1.3,2.6-4.3,8.6,1,13.9c-0.6-2-0.8-4.8,0.7-6.9c1.3-1.9,3.5-2.8,6.7-2.8h0.8l-0.5,0.2c-1.2,0.7-2,1.9-2.3,3.2
	c-0.5,1.9-0.2,3.9,0.9,5.6c1.1-2.4,4.3-5.6,7.2-5.6c0.3,0,0.7,0,1,0.1l0.2,0.1l-0.1,0.1c-1.5,1.9-3.9,7.8,6.5,22.1l0.1,0.1L71,166
	c-4.3,4.6-12.2,9-12.3,9h-0.1L58.5,175.1z M64.1,143.7c-0.2,0-0.5-0.1-0.7-0.1c-2.8,0-6.1,3.4-7,5.7l-0.1,0.2l-0.1-0.2
	c-1.3-1.7-1.7-3.9-1.1-5.9c0.3-1.2,1-2.4,2-3.1c-2.9,0-5,0.9-6.2,2.7c-1.5,2.2-1.2,5.2-0.4,7.2l0.2,0.5l-0.4-0.4
	c-5.9-5.4-2.8-11.7-1.4-14.5c-1.7,0.1-4.6,2-6.7,5.1c-2.9,4.3-3.3,9.7-1.3,14.4c3.4,8.4,9.7,15.4,17.8,19.6c0.7-0.4,8-4.6,12.1-8.9
	C60.5,151.9,62.5,145.8,64.1,143.7z"/>
<path class="st10" d="M133.6,100.2c-5.2-14.8-26.2-27.8-25.4-42c7.2,2.3,20.4,8.6,39.4,14.8c0,0-3.9,2.8,8.4,20.8
	C153.4,96.2,144.5,103.2,133.6,100.2z"/>
<path class="st11" d="M108.2,58.2c6.8,2.2,19,7.9,36.4,13.8c-2.6,7.6,10.9,20.9,11.4,21.8c-2.7,2.5-11.6,9.5-22.4,6.5
	C128.4,85.4,107.4,72.4,108.2,58.2z"/>
<path class="st12" d="M108.2,58.2c6.4,2.1,17.5,7.2,33.3,12.7c-5.1,1.1-10.2,2.2-15.4,2.8c-0.2,3.7,5.8,5.9,7.3,6.3
	c5.7,1.8,16.2,5.3,21.2,14.8c-3.7,3-11.6,7.9-21.1,5.3C128.4,85.4,107.4,72.4,108.2,58.2z"/>
<path class="st13" d="M133.6,100.3L133.6,100.3L133.6,100.3c-2.3-6.5-7.6-12.6-12.6-18.5c-6.9-8-13.3-15.5-12.9-23.7V58l0.2,0
	c2.7,0.9,6.2,2.3,10.7,4.1c7.1,2.9,16.9,6.8,28.7,10.7L148,73l-0.2,0.2c0,0-3.6,2.9,8.4,20.6l0.1,0.1l-0.1,0.1
	c-2.4,2.2-8.8,7.2-17.1,7.2l0,0C137.2,101.1,135.4,100.9,133.6,100.3z M147.4,73c-11.8-3.8-21.5-7.7-28.6-10.6
	c-4.4-1.8-7.9-3.2-10.6-4.1c-0.4,8,6,15.4,12.8,23.3c5.1,5.9,10.3,12,12.6,18.4c1.7,0.5,3.5,0.7,5.3,0.7c8.1,0,14.4-4.9,16.9-7.1
	C145.1,77.9,146.8,73.8,147.4,73z"/>
<path class="st10" d="M126,73.4c0,0,9.4,12.3,40.7-1.7c12.3-6,10.5-20.5,3-31.3s-23.3-27.8-48.1-13.3c-12.1,8.4-18.6,18.1-12.7,36.7
	C109,64.1,126,73.4,126,73.4z"/>
<path class="st11" d="M121.6,27.2c21.8-12.8,36.6-1.2,45,9.1c1.9,2.5,0.3,7.5-2,11.1c-2,3-6.9,5.6-7.9,9.1c-1.2,5,1.3,11.3-1.2,14.8
	c-5.2,6.8-14.8,6.5-23.5,5.9c-4.3-1.5-6-3.7-6-3.7s-17-9.3-17.1-9.5C103,45.2,109.5,35.6,121.6,27.2z"/>
<path class="st12" d="M121.6,27.2c20.5-12,34.8-2.5,43.4,7.3c0.6,3.5-0.4,7-1.8,10.3c-1.8,3.5-6.3,4.8-7.5,8.3
	c-1.5,4.8,0.2,9.8-3.2,14c-6.4,7.4-16.8,9.8-26,7c-1.3,0-2.6-0.3-3.8-0.8c0,0-13.7-9-13.7-9.2C103,45.2,109.5,35.6,121.6,27.2z"/>
<path class="st14" d="M108.9,45.2c10.6-27.7,39.6-24.9,48.1-16.7C151.9,26.7,127,15.6,108.9,45.2z"/>
<path class="st13" d="M140.5,78.6c6,0,14.6-1.5,26.2-6.7c4.2-1.9,7.3-5.5,8.4-10c1.6-6.3-0.4-14.3-5.4-21.5
	c-5.4-7.8-11.3-13.2-17.6-16.2c-9.4-4.5-19.8-3.5-30.6,2.9c-7,4.9-11.1,9.4-13.3,14.8c-2.5,6.2-2.3,13.6,0.7,22.7l0.2-0.1
	c-6.3-19.3,0.4-28.8,12.5-37.2c18.2-10.7,34.3-6.2,47.9,13.2c5,7.1,7,15.1,5.4,21.3c-1.1,4.4-4.2,8-8.3,9.8
	c-16.1,7.2-26.4,7.3-32.1,6.1c-6.2-1.3-8.6-4.3-8.6-4.3s2.3,3.3,8.5,4.6C136.5,78.4,138.5,78.6,140.5,78.6z"/>
<path class="st15" d="M168.2,109.8c11.5,14.8,26.8,41.1,0,66.9c-13.5,12.8-31.3,21.3-59.1,22.6c-19.5,0.2-40.1-6.2-48.3-18.3
	c-4.6-2-8.3-7.3-10.5-11c1.9,1,3.9,1.7,5.9,2c-1.9-2.3-2.4-6.3-2.4-7c3.5,1.5,25-2,46.6-16.3c18.3-11.5,38.7-22.3,34.2-45.1
	C152.4,111.3,161.2,101,168.2,109.8z"/>
<path class="st16" d="M68.4,180.2h1.9C69.7,180.3,69,180.3,68.4,180.2z"/>
<path class="st17" d="M56.2,171.9c-1.9-2.3-2.4-6.3-2.4-7c3.5,1.5,25-2,46.6-16.3c18.3-11.5,38.7-22.3,34.2-45.1
	c17.8,7.8,26.7-2.6,33.7,6.3c5,6.4,10.8,15.1,13.4,24.9c-0.2,4.4-1.4,8.8-3.6,12.7c-3.7,6.4-8.5,12-12.6,18.1
	c-3.7,0.1-7.2-0.4-8.1-4.6c-1,0.2-0.8-1-1.5-1c0-0.5,0.2-1,0-1.2c-0.5-0.5-0.8-1.1-1-1.8c-0.5-6.5-5.5-15.3-12-11
	c-7.3,4.5-1.3,18.6,3.2,22.1c7.8,6.1,2.4,19.1-14.1,23c-8.5,2.2-16,3.7-30.2,4c-13,0.3-34.3-7.6-36-12.8c0.4,0,4.2-2,4.8-2
	c-0.6,0-14.1-1-19.5-9.3c-0.2-0.3-0.4-0.6-0.6-1C52.1,170.9,54.1,171.6,56.2,171.9z"/>
<path class="st16" d="M62.5,169.7l-1.7-3.5c0.7,0.7,36.4,15.7,77.2-1.7c8.9,15.7-0.1,19.8-0.3,20.3c-11.8,6.7-37.7,5.7-53.7,3.7
	c-3.1-0.4-7.3-1.5-7.5-4.5c-0.2-2.5,2.5-4.5,5.3-5c-7,0-13.8-1.7-19.9-5c-1.8-1-2.9-4.2-4.4-6C59.8,168.6,61.4,169.7,62.5,169.7z"/>
<path class="st18" d="M80.2,194.6c-8.9-3.3-15.6-8-19.5-13.6c-3.5-1.6-7.1-5.3-10.5-11l-0.3-0.4l0.4,0.3c1.7,0.9,3.6,1.6,5.6,1.9
	c-1.3-2-2.1-4.4-2.2-6.8v-0.2l0.2,0.1c0.8,0.2,1.6,0.4,2.4,0.3c7.4,0,25.8-4.5,44.1-16.6l3.9-2.4c8.4-5.3,17.2-10.7,23.1-17.4
	c6.7-7.5,9-15.7,7.1-25.2v-0.2l0.2,0.1c4.6,2.1,9.5,3.1,14.5,3.1c2.3,0,4.4-0.2,6.3-0.4c1.6-0.2,3.1-0.3,4.5-0.3
	c3.3-0.2,6.4,1.2,8.4,3.9c8.2,10.5,12.9,20.1,14.4,29.4c2.2,13.6-2.6,26.3-14.4,37.7c-15.1,14.3-33.9,21.4-59.2,22.6H108
	C98.5,199.4,89.1,197.8,80.2,194.6z M155.5,106.4c-1.9,0.2-4,0.4-6.4,0.4c-5,0-9.9-1-14.4-3c4,21.1-13.5,32-30.4,42.6l-3.9,2.4
	c-18.3,12.1-36.8,16.6-44.2,16.6c-0.8,0-1.6-0.1-2.3-0.3c0.1,1.2,0.7,4.7,2.4,6.7l0.2,0.3h-0.3c-1.9-0.3-3.8-0.9-5.6-1.8
	c3.4,5.5,6.8,9.1,10.2,10.6l0,0l0,0c7.5,10.9,26.4,18.2,47.2,18.2h1.1c25.2-1.1,44-8.3,59-22.5c19.7-19,19.7-41.4,0-66.7
	c-1.9-2.6-5-4-8.2-3.8C158.6,106.1,157.1,106.2,155.5,106.4L155.5,106.4z"/>
<path class="st18" d="M69.2,182.2c-0.1,0-5.3,1.1-11.6-3.4l-0.2,0.2C60.7,181.8,65,182.9,69.2,182.2z"/>
<path class="st11" d="M132.7,46.5c0.8,6.4,6.1,11.1,12,10.4s10-6.5,9.2-12.9s-6.2-11.1-12-10.4S132,40,132.7,46.5z"/>
<path class="st19" d="M135,47.4c0.7,5.8,5.5,10,10.8,9.3s9-5.8,8.3-11.6s-5.5-10-10.8-9.3S134.3,41.6,135,47.4z"/>
<path class="st20" d="M144.9,53.2c-4.7-1.6-7.7-5.5-9.7-10c0.8-3.9,4.1-7,8.1-7.5c5.3-0.6,10.1,3.5,10.8,9.3
	c0.5,3.4-0.7,6.8-3.1,9.2C149,54.5,146.8,53.7,144.9,53.2z"/>
<path d="M134.9,47.4c-0.7-5.9,3.1-11.1,8.4-11.8c0.4,0,0.7-0.1,1.1-0.1c5,0,9.2,4.1,9.9,9.5c0.7,5.9-3.1,11.1-8.4,11.8
	c-0.4,0-0.7,0.1-1.1,0.1C139.8,56.9,135.5,52.8,134.9,47.4z M143.3,35.9c-5.2,0.6-8.9,5.8-8.2,11.5c0.6,5.3,4.8,9.3,9.6,9.3
	c0.3,0,0.7,0,1-0.1c5.2-0.6,8.9-5.8,8.2-11.5c-0.6-5.3-4.8-9.3-9.6-9.3C144,35.8,143.6,35.8,143.3,35.9z"/>
<path class="st21" d="M139.3,49.2c0.8,4,4.1,6.6,7.4,6s5.2-4.5,4.4-8.4s-4.1-6.6-7.4-6S138.5,45.2,139.3,49.2z"/>
<path class="st22" d="M139.3,45.5c0.4-2.3,2.1-4.1,4.4-4.7c3.2-0.7,6.6,2,7.4,6c0.5,2.1,0.1,4.2-1,6C145.4,53.4,141.3,50,139.3,45.5
	z"/>
<path class="st23" d="M139.2,49.2c-0.9-4,1.2-7.9,4.5-8.6c0.3-0.1,0.7-0.1,1.1-0.1c3,0,5.7,2.6,6.5,6.2c0.8,4-1.2,7.9-4.5,8.6
	c-0.3,0.1-0.7,0.1-1,0.1C142.6,55.4,139.9,52.8,139.2,49.2z M143.7,40.9c-3.2,0.7-5.1,4.4-4.3,8.3c0.7,3.5,3.4,6,6.2,6
	c0.3,0,0.7,0,1-0.1c3.2-0.7,5.1-4.4,4.3-8.3c-0.7-3.5-3.4-6-6.2-6C144.4,40.8,144,40.8,143.7,40.9z"/>
<path d="M140,47.8c0.2,2.6,2.4,4.6,5,4.4c2.6-0.2,4.6-2.4,4.4-5c-0.2-2.5-2.2-4.4-4.7-4.4C142,42.8,139.9,45.1,140,47.8
	C140,47.7,140,47.7,140,47.8z"/>
<path class="st9" d="M134.9,35.7c0,0,0-3.2,5.5-5.4C144.6,28.8,133.4,25.6,134.9,35.7z"/>
<path d="M135.9,30c0.9-1,2.1-1.5,3.4-1.5c1.1,0,2.1,0.4,2.2,0.9c0,0.3-0.1,0.6-1,0.9c-5.2,2-5.6,5.8-5.6,5.8l-0.1-0.5
	C134.4,33.2,134.8,31.3,135.9,30z M136.1,30.2c-1,1.4-1.4,3-1.1,4.7c0.4-1.1,1.5-3.2,5.5-4.8c0.6-0.2,0.9-0.4,0.8-0.6
	s-0.9-0.7-1.9-0.7C138.1,28.7,136.9,29.2,136.1,30.2L136.1,30.2z"/>
<path class="st24" d="M189.8,69.5c0,0,14.9,14.8,11.9,18.8c-2.8,3.6-12.8,1.3-23.7-7.1c-7.1-5.4-13.7-6.5-15.6-7.6
	c-1.8-2.6-2.2-5-3.3-6.3s-3-7.4,1.6-12.5c6-7.3,6.9-11.6,7.8-16c0.2-3.1,4.9,3.2,9,7.5s14.4,6.7,27.8,10.5
	c15.6,4.1,18,12.5,7.6,13.5C205.2,70.8,197.4,70.5,189.8,69.5z"/>
<path class="st25" d="M189.8,69.5c0,0,11.8,15,10.3,17.4c-2,3.1-12.2-0.1-23.1-8.5c-7.1-5.4-20.9-18.6-16.2-23.7
	c6-7.3,6.9-11.6,7.8-16c0.2-3.1,4.9,3.2,9,7.5s14.4,6.7,27.8,10.5c15.6,4.1,18,12.5,7.6,13.5C205.2,70.8,197.4,70.5,189.8,69.5z"/>
<path class="st26" d="M164.8,59.1c0,0,3.4,9.5,21,22.5c7.2,4.9,12.6,6.8,12.2,3.6s-10.4-13-11.6-18
	C181.2,65.5,164.8,59.1,164.8,59.1z"/>
<path class="st27" d="M186.4,67.2c3.1,7.1,11.3,14.9,11.6,18c0.2,2.1-2.1,1.9-5.9,0.1C194.1,80.6,188.5,77.4,186.4,67.2z"/>
<path class="st28" d="M180.9,65.2c9.4,8,7.2,14.8,6,17.1l-1-0.7c-17.7-13-21-22.5-21-22.5S174.1,62.7,180.9,65.2z"/>
<path class="st29" d="M186.9,82.3l-0.3-0.2L186.9,82.3L186.9,82.3z"/>
<path class="st30" d="M180.5,71c1.5,0.5,0-2,1.2-2.5c0.9-0.3,1.3-0.8,2.5,0.1c5.4,6.5,3,9.9,2.7,10.6c-2.5,4.3-14-11-11.4-11.4
	C177.7,68,178.7,70.2,180.5,71z"/>
<path class="st31" d="M186.8,82.4c-0.3-0.2-0.7-0.4-1-0.7c-17.5-12.9-21.1-22.5-21.1-22.6l-0.1-0.3l0.3,0.1c0.1,0,9.3,3.6,16,6.1
	l0,0C190.3,73.1,188.2,79.8,186.8,82.4L186.8,82.4L186.8,82.4z M165.1,59.3c0.7,1.6,5.1,10.6,20.9,22.2c0.3,0.2,0.6,0.4,0.9,0.6
	c1.3-2.6,3.1-9.1-6-16.8C174.8,63.1,166.6,59.9,165.1,59.3z"/>
<path class="st31" d="M183,75.1c0,0-3.7-9.5-12-13.7l-0.1,0.2C179.1,65.7,183,75,183,75.1z"/>
<path class="st32" d="M185.8,81.7c-17.5-12.9-21.1-22.5-21.1-22.6l-0.1-0.3l0.3,0.1c0.2,0.1,16.5,6.4,21.5,8.1h0.1v0.1
	c0.7,2.6,3.8,6.7,6.6,10.3c2.6,3.3,4.8,6.2,5,7.7c0.1,0.4,0,0.9-0.3,1.2c-0.3,0.3-0.8,0.5-1.2,0.4C194.6,86.9,190.6,85,185.8,81.7z
	 M165.1,59.3c0.7,1.6,5.1,10.6,20.9,22.2c4.7,3.2,8.7,5.2,10.7,5.2c0.4,0,0.8-0.1,1.1-0.4c0.2-0.3,0.3-0.7,0.2-1
	c-0.2-1.4-2.5-4.4-5-7.6c-2.8-3.6-6-7.7-6.7-10.3C181.5,65.7,167.2,60.2,165.1,59.3z"/>
<path class="st25" d="M189.8,69.5c-8-1.4-27.9-7.4-27.9-14.2c6-7.3,5.8-12.1,6.6-16.5c0.2-3.1,4.9,3.2,9,7.5s14.4,6.7,27.8,10.5
	c15.6,4.1,18,12.5,7.6,13.5C201.8,71.3,195.5,70.5,189.8,69.5z"/>
<path class="st33" d="M163.8,55c5.1-11.7,3.9-11.8,4.7-16.3c0.2-3.1,4.9,3.2,9,7.5s14.4,6.7,27.8,10.5c15.6,4.1,15.5,11.2,5.1,12.2
	C199.3,70,161.7,61.3,163.8,55z"/>
<path class="st34" d="M174.2,46.9c-1.7-1.5-3.4-5.4-4.2-7.4c1,1.1,4.1,4.7,5.1,5.7c4.1,4.2,11.7,8.7,26.3,11.6
	c4.6,0.9,12.6,3.7,12.8,6.2c-2.4-1.5-5-2.7-7.8-3.3C195.1,56.6,182.7,55.4,174.2,46.9z"/>
<path class="st32" d="M177.9,81.2c-3.9-2.9-8.3-5.1-13-6.6c-0.9-0.3-1.7-0.6-2.6-1l0,0l0,0c-0.8-1.2-1.5-2.5-2-3.9
	c-0.3-0.9-0.8-1.7-1.4-2.5c-1-1.3-3.2-7.4,1.6-12.7c6.1-7.5,7-11.8,7.8-15.9c0-0.6,0.3-0.9,0.7-0.9c1,0,3,2.3,5.4,4.9
	c1,1.2,2.1,2.4,3.2,3.4c3.6,3.7,12.2,6.1,23.1,9.2l4.6,1.3c10,2.6,14.3,6.8,14,9.8c-0.2,2.1-2.5,3.6-6.4,3.9
	c-2.3,0.2-4.8,0.3-7.5,0.3l0,0c-5.1,0-10.3-0.4-15.4-1c2.1,2.1,14.5,14.9,11.6,18.7c-0.8,1.1-2.4,1.7-4.4,1.7
	C192.3,90.1,185.1,86.8,177.9,81.2z M189.8,69.4c5.2,0.7,10.4,1,15.7,1.1c2.6,0,5.2-0.1,7.4-0.3c3.8-0.3,6-1.7,6.2-3.7
	c0.2-2.8-4-7-13.8-9.5l-4.6-1.3c-11.4-3.2-19.6-5.5-23.3-9.3c-1-1.1-2.1-2.3-3.2-3.4c-2.2-2.5-4.3-4.9-5.2-4.9c-0.1,0-0.4,0-0.4,0.7
	c-0.8,4.2-1.6,8.5-7.8,16c-4.7,5.2-2.6,11.1-1.6,12.4c0.6,0.8,1,1.6,1.3,2.5c0.5,1.3,1.2,2.6,2,3.8c0.8,0.4,1.6,0.7,2.5,1
	c4.7,1.5,9.1,3.7,13.1,6.6c7.1,5.5,14.3,8.8,19.3,8.8c2,0,3.4-0.6,4.2-1.6c2.9-3.8-11.7-18.5-11.9-18.6l-0.3-0.3L189.8,69.4z"/>
<path class="st35" d="M201.6,55.7l3.7,1c15.6,4.1,18,12.5,7.6,13.5l-1.4,0.1C211.3,67.3,209.6,61.2,201.6,55.7z"/>
<path class="st9" d="M201.6,55.7l3.7,1c8.7,2.3,13.3,5.9,13.9,8.9c-1.5,2.6-4.7,3.3-7.8,3.4C210.8,65.8,208.6,60.5,201.6,55.7z"/>
<path class="st36" d="M203.8,57.4c4.5,1.2,10.2,3.5,10.4,5.6c-2.4-1.5-5-2.7-7.8-3.3l-0.2-0.1C205.5,58.7,204.7,57.9,203.8,57.4z"/>
<path d="M211.4,70.4c-0.3-3.1-1.9-9.1-9.9-14.5l-0.6-0.4l0.7,0.2l3.7,1c10,2.6,14.3,6.8,14,9.8c-0.2,2.1-2.5,3.6-6.4,3.9l-1.4,0.1
	L211.4,70.4L211.4,70.4z M211.7,70.2l1.2-0.1c3.8-0.3,6-1.7,6.2-3.7c0.2-2.8-4-7-13.8-9.5l-3-0.8C209.7,61.4,211.4,67.1,211.7,70.2
	L211.7,70.2z"/>
<path class="st37" d="M180.3,59.2c1.4,1,3.1,1.2,3.7,0.4s0-2.4-1.4-3.5s-3.1-1.2-3.7-0.4S178.9,58.1,180.3,59.2z"/>
<path class="st38" d="M179,55.5c0.7-0.7,2.2-0.5,3.6,0.5s2,2.6,1.4,3.5l-0.1,0.1C181.6,59.3,179.7,57.7,179,55.5z"/>
<path class="st32" d="M180.2,59.2c-0.7-0.5-1.2-1.1-1.5-1.9c-0.3-0.6-0.3-1.2,0.1-1.8c0.3-0.4,0.9-0.6,1.4-0.6
	c0.9,0,1.8,0.4,2.5,0.9c1.5,1.1,2.1,2.7,1.4,3.6c-0.3,0.4-0.9,0.6-1.4,0.6C181.8,60.1,180.9,59.8,180.2,59.2z M179,55.8
	c-0.3,0.5-0.3,1-0.1,1.5c0.3,0.7,0.8,1.3,1.4,1.8c0.7,0.5,1.5,0.8,2.3,0.9c0.5,0,0.9-0.1,1.2-0.5c0.6-0.8,0-2.3-1.4-3.3
	c-0.7-0.5-1.5-0.8-2.3-0.9C179.7,55.2,179.3,55.4,179,55.8z"/>
<path class="st32" d="M184.8,55.8c-0.8-1-1.8-1.8-2.9-2.4c-2.3-1.2-3.2,0.4-3.2,0.4C181,51.9,184.7,55.8,184.8,55.8z"/>
<path class="st39" d="M133.6,100.2c10.9,3,19.7-4,22.4-6.5c3,4.4,6.9,9.7,12.1,16c11.5,14.8,26.8,41.1,0,66.9l-1.3,1.2
	c-4.4,2.4-10,4.9-11.1,2.8c-1.3-2.9,2.2-7.4,2.2-7.4c-3.3,2.1-11.4,1.1-5.4-5.4c-5.6-1.1-8.8-3.4-6.9-12.9c1.6-8.2-1.8-32-12.9-34.5
	c2.3-5.3,2.9-11.3,1.6-16.9C134.3,102.4,134,101.3,133.6,100.2z"/>
<path class="st40" d="M165.5,172.2c-3-0.5-1.6-4.3-1.8-7.3c-3.5,2.3-8.5,3-10-1.2c-1.8-5.5,1-12.8-4.5-16.5
	c-1.1-0.8-2.2-1.5-3.3-2.1c-1.1-10.1-5.1-22.7-13-24.5c2.3-5.3,2.9-11.3,1.6-16.9c-0.2-1.1-0.5-2.2-0.9-3.3c10.9,3,19.7-4,22.4-6.5
	c3,4.4,6.9,9.7,12.1,16c10.7,13.8,23.6,34.9,5,58C170.4,170.7,167.5,172.5,165.5,172.2z"/>
<path class="st41" d="M156.2,134.6c-2.3-14.9-15.1-14.6-18.1-19c-1.8-3.5-0.9-12.2-4.5-15.3c9.9,1.6,19.9-4.1,22.4-6.5
	c3,4.4,6.9,9.7,12.1,16c6.1,7.9,11.8,16.1,13.2,28.7c1.1,7.6-3.7,24.7-12.7,24.5c-5.4,0-0.1-8.4,0.2-10.9c-4,4.7-8,6.7-11,5.8
	c-3.8-2.7,4.7-11,4.2-10.7c-1.7,1.6-5.4,2.9-6.7,2.5C152.3,148.4,157.7,144.1,156.2,134.6z"/>
<path class="st42" d="M155.7,180.8c-1-2.4,1.1-5.8,1.9-7.1c-1.1,0.5-2.2,0.7-3.4,0.7l0,0c-1.9,0-3.2-0.6-3.7-1.7
	c-0.4-0.8-0.3-2.3,1.9-4.8c-5.7-1.2-8.6-3.8-6.8-13c0.8-3.9,0.4-11.8-1.7-19.4c-1.4-5-4.7-13.6-11.1-15h-0.1l0.1-0.1
	c2.3-5.3,2.9-11.2,1.6-16.9c-0.2-1.1-0.5-2.2-0.9-3.3l-0.1-0.2l0.2,0.1c1.7,0.5,3.6,0.7,5.4,0.7l0,0c8.2,0,14.6-5,16.9-7.2l0.1-0.1
	l0.1,0.1c3.2,4.7,7.3,10.1,12.1,16.1c8.2,10.5,12.9,20.1,14.4,29.4c2.2,13.6-2.6,26.3-14.4,37.7L167,178l0,0
	c-4.3,2.4-7.5,3.6-9.4,3.6C156.9,181.7,156.1,181.4,155.7,180.8z M168.1,176.6c19.7-19,19.7-41.4,0-66.7c-4.8-5.9-8.9-11.2-12.1-16
	c-2.5,2.2-8.8,7.1-17,7.1l0,0c-1.8,0-3.5-0.2-5.2-0.7c0.4,1,0.6,2.1,0.8,3.1c1.3,5.6,0.7,11.5-1.6,16.9c6.4,1.6,9.8,10.2,11.2,15.2
	c2.1,7.6,2.5,15.6,1.7,19.5c-1.8,9.2,1,11.6,6.8,12.8h0.2l-0.1,0.2c-1.8,1.9-2.5,3.5-2,4.7c0.4,1,1.7,1.5,3.5,1.5l0,0
	c1.3,0,2.6-0.3,3.7-1l0.6-0.4l-0.5,0.6c0,0.1-3.4,4.5-2.2,7.3c0.3,0.5,1,0.8,1.6,0.8c1.8,0,5-1.2,9.3-3.6
	C167.3,177.4,167.7,177,168.1,176.6z"/>
<path class="st43" d="M133,98.7c7.8,0.4,15.5-2.2,21.4-7.3c1,1.5,2,3,3.2,4.7c-2.5,3.1-9.6,9.6-23.1,7.7c0-0.1,0-0.2,0-0.2
	C134.2,101.9,133.7,100.2,133,98.7z"/>
<path class="st20" d="M154.2,96.8c-1.2,2-5.2,6-15,5.8c-3.8-0.5-4-2.1-4.6-3.8c6.9,0,13.7-2.3,19.1-6.7
	C154.8,93.4,155,95.3,154.2,96.8z"/>
<path class="st44" d="M134.6,103.9L134.6,103.9l-0.1-0.2c0,0,0-0.1,0-0.1c-0.3-1.7-0.8-3.3-1.5-4.8l-0.1-0.2h0.2c0.5,0,0.9,0,1.4,0
	c7.3,0.1,14.4-2.5,19.9-7.3l0.1-0.1l0.1,0.1c1,1.5,2,3.1,3.2,4.7l0.1,0.1l-0.1,0.1c-2.5,3-8.1,8.1-18.5,8.1l0,0
	C137.8,104.2,136.2,104.1,134.6,103.9z M154.5,91.6c-5.6,4.8-12.7,7.3-20,7.3h-1.2c0.6,1.5,1.1,3.1,1.4,4.7c0,0,0,0.1,0,0.1l0,0
	c1.5,0.2,3.1,0.3,4.6,0.3l0,0c10.1,0,15.8-4.9,18.2-7.9C156.4,94.5,155.4,93,154.5,91.6z"/>
<path class="st32" d="M194.1,70.1v-0.2c-0.1,0-13.7-0.5-30.4-10.1c0.6,0.5,1.2,0.9,1.9,1.3C181.5,69.7,194,70.1,194.1,70.1z"/>
<path class="st15" d="M110.6,123.1c0,0,22.8-14.3,40.3,3.5c11,11.5,1.5,38.3-36.1,42.3c-18.8,3.3-42.2,2.5-59.8-9.5
	c-5.8-4.8-2.5-7.6,1.9-7.9c1.1-2.8,3.4-3.9,8-4.8c0.9-2.3,4.4-4.4,8-4.9c0.2-2,3.4-5.5,13.3-11C93.7,126.7,98.6,124.2,110.6,123.1z"
	/>
<path class="st16" d="M83.3,138.4c-0.4,0-0.7,0.1-1.1,0.2C82.6,138.4,82.9,138.3,83.3,138.4z"/>
<path class="st16" d="M80.2,139.4c0.6-0.4,1.3-0.7,2-0.9C81.6,138.9,80.9,139.2,80.2,139.4z"/>
<path class="st17" d="M63.3,154.5c2.2-1.6,7.5-1.3,8.7-1.8c-1-0.5-4.5-0.5-6.5-0.5c1.5-4.5,11.5-5.9,16-7.1
	c-1.2,0.2-5.7-0.3-6.9-0.3c1.2-2.1,6.5-5.8,6.4-5.8c-2.7-0.1-5.5-2.2,4.6-7.7l0.7-0.4c7.4-4.1,12.3-6.6,24.3-7.8
	c0,0,22.8-14.3,40.3,3.5c11,11.5,2.2,35.2-36.7,40.5C86.9,171.1,52,162.8,63.3,154.5z"/>
<path class="st16" d="M66.9,155.3c2.2-1.6,6.9-1.9,8.2-2.4c-1-0.5-4.7-2.2-6.6-2.2c1-1.6,14.5-4.6,19-5.9c-1.2,0.2-6-2.4-7.2-2.4
	c1.2-2.1,7-5.7,6.9-5.7c-2.7-0.1-8.9-1.2-1.5-5.4l0.7-0.4c7.4-4.1,12.3-6.6,24.3-7.8c0,0,22.1-14.4,36.8,4.5
	c4.2,5.4,5.5,31.6-33.4,36.9C86.7,168.5,57.5,160.8,66.9,155.3z"/>
<path class="st18" d="M55,159.5c-3.1-2.6-3.4-4.4-3-5.4c0.5-1.5,2.4-2.5,5-2.7c1.1-2.6,3.1-3.8,8-4.7c0.9-2.2,4.4-4.4,8-4.9
	c0.3-1.8,2.9-5.2,13.3-11c7.5-4.2,12.4-6.7,24.3-7.8c5.9-3.4,12.6-5.3,19.4-5.4c7.9,0,15.6,3.2,21,9c4.4,4.6,5.6,11.6,3,18.7
	c-2.1,5.8-6.4,11-12.5,15c-7,4.7-16,7.7-26.6,8.8c-6.2,1.1-12.6,1.7-18.9,1.7l0,0C79.9,170.7,65.7,166.8,55,159.5z M110.7,123.2
	L110.7,123.2L110.7,123.2c-11.9,1.1-16.7,3.6-24.2,7.8c-11.1,6.2-13,9.5-13.2,10.9v0.1h-0.1c-3.6,0.5-7.1,2.6-7.9,4.8v0.1h-0.1
	c-4.9,0.9-6.9,2.1-7.9,4.7v0.1H57c-2.5,0.1-4.4,1.1-4.8,2.5s0.5,3.2,2.9,5.2c10.7,7.4,24.9,11.2,40.9,11.2l0,0
	c6.3,0,12.6-0.6,18.8-1.6c19.7-2.1,34.3-11,38.9-23.7c2.6-7,1.5-13.9-2.9-18.4c-5.4-5.7-13-8.9-20.8-8.9
	C123.2,118,116.6,119.8,110.7,123.2z"/>
<path class="st18" d="M73.1,142c5.8-2.3,14.9-5.6,15-5.6s-9.3,3.1-15.1,5.4L73.1,142z"/>
<path class="st18" d="M63.9,147.1c8.1-1.5,22.2-2.4,22.3-2.4s-14.3,0.6-22.3,2.1L63.9,147.1z"/>
<path class="st18" d="M74,152.9c0,0-12.8-1.6-17-1.5v0.2C61.2,151.5,73.9,152.9,74,152.9z"/>
<path class="st15" d="M113.1,161.5c0,0-25.2,3.8-38-4.7c-5.7-4,16.6-10.3,25.3-10.3c-10.5-0.2-20.9-1.5-2.4-7.4
	c-4.2,0.2-19.1-0.3,6.4-8.4L113.1,161.5z"/>
<path class="st17" d="M113.8,162.3c0,0-23.2,3-34.7-5.5c-5.1-4,14.8-10.3,22.6-10.3c-9.4-0.2-18.7-1.5-2.1-7.4
	c-3.8,0.2-17.4-1.4,5.4-9.6L113.8,162.3z"/>
<path class="st16" d="M113.8,162.3c0,0-19,2.7-30.5-5.8c-5.1-4.1,15.1-9.3,22.9-9.3c-4.5-3.1-20-2.7-3.4-8.7
	c-3.8,0.2-20.6-1,2.2-9.1c0,0,6.2,9.8,7.3,13.4C113.6,147.6,113.8,162.3,113.8,162.3z"/>
<path class="st18" d="M104.9,163c3,0,6.1-0.2,9.1-0.7c-0.2,0-23.4,2.8-34.8-5.6c-0.6-0.4-0.9-1.1-0.7-1.8c1.3-3.8,16.4-8.3,23.2-8.3
	l0,0v-0.2c-7.2-0.2-10.9-0.9-11.1-2.1c-0.1-0.8,1.3-2.3,9-5.1l0.8-0.3h-0.8c-2.4,0.1-7-0.5-7.3-2.1c-0.2-1.2,1.8-3.4,12.8-7.4
	c0,0-3.9,1.2-5.4,1.8c-5.3,2.3-7.9,4.1-7.6,5.6c0.3,1.7,4.6,2.2,6.8,2.3c-5.9,2.2-8.7,3.9-8.5,5.1s3,1.9,8.8,2.2
	c-3.8,0.5-7.5,1.4-11.2,2.6c-2.6,0.9-8.9,3.2-9.8,5.7c-0.3,0.8,0.1,1.7,0.8,2.1C85.9,162,97,163,104.9,163z"/>
<path class="st18" d="M106.2,147.3c0,0-2.2-1.1-6.9-0.8v0.2C104,146.4,106.2,147.2,106.2,147.3z"/>
<path class="st16" d="M99.3,139.3c2.3-0.4,4.6-0.7,6.9-0.8c-2.3-0.1-4.7,0.1-7,0.6L99.3,139.3z"/>
<path class="st3" d="M106.6,219.4c0,0,10.6,1.6,17.2,2.8s14.7,2,12.6,7.6c-1.6,4-10.4,0.3-16.9-2.3c-4.8-1.8-9.8-3.4-14.8-4.7
	L106.6,219.4z"/>
<path class="st4" d="M106.6,219.4c0,0,10.6,1.6,17.2,2.8s14.7,2,12.6,7.6c-1.5,3.7-10.6-1-17-3.6c-4.9-1.8-9.9-3.3-15-4.3
	L106.6,219.4z"/>
<path class="st5" d="M106.6,219.4c0,0,10.6,1.6,17.2,2.8s12.4,1.9,10.4,6.6c-1.4,2.8-8.6-1-15-3.5c-5-1.8-10.2-3.1-15.4-4
	L106.6,219.4z"/>
<path class="st6" d="M133,231.7c0.7,0,1.4-0.1,2-0.4c0.7-0.3,1.2-0.8,1.5-1.5c0.5-1.1,0.5-2.3-0.1-3.4c-1.5-2.5-6.4-3.4-11.1-4.1
	l-1.5-0.2l-14.1-2.4c-1.1-0.2-2.3-0.3-3.5-0.3c0.1,0,11,1.8,17.6,3l1.5,0.2c4.7,0.8,9.5,1.6,10.9,4c0.5,1,0.6,2.2,0.1,3.2
	c-0.2,0.6-0.7,1.1-1.3,1.4c-2.9,1.3-9.4-1.3-14.6-3.4l-0.7-0.3c-4.8-1.8-9.8-3.4-14.8-4.7l-0.1,0.2c5,1.3,9.9,2.8,14.8,4.7l0.7,0.3
	C124.5,229.7,129.6,231.7,133,231.7z"/>
<path class="st3" d="M103.1,220.9c0,0,19.4,10.6,15.3,16.7c-5,6.4-15.9-11.9-20.2-14.6L103.1,220.9z"/>
<path class="st4" d="M103.1,220.9c0,0,19.4,10.6,15.3,16.7c-3.6,5.1-9.9-8-19.7-14.9L103.1,220.9z"/>
<path class="st5" d="M103.1,220.9c0,0,18.4,10.3,14.5,15.8c-3.4,4.5-8.1-7.7-17.8-14.6L103.1,220.9z"/>
<path class="st6" d="M115.8,239.1L115.8,239.1c1.1,0,2.1-0.5,2.6-1.4c0.6-0.9,0.7-1.9,0.5-2.9c-1-4.3-8.3-9.5-12.7-12.2
	c-1.1-0.7-2.2-1.3-3.4-1.7c0.1,0.1,14.4,8.1,15.8,14.1c0.3,0.9,0.1,1.9-0.4,2.7c-0.5,0.8-1.4,1.3-2.4,1.3h-0.1
	c-3.5,0-8.4-5.8-12.3-10.4c-1.2-1.5-2.4-2.8-3.4-3.9c-0.7-0.7-1.5-1.2-2.3-1.7c1.3,0.9,3.2,3.1,5.4,5.8
	C107.3,233.3,112.2,239.1,115.8,239.1z"/>
<path class="st20" d="M143.7,44c0,0.7,0.5,1.2,1.2,1.2c0.7,0,1.2-0.5,1.2-1.2c0-0.7-0.5-1.2-1.2-1.2l0,0
	C144.3,42.8,143.7,43.3,143.7,44z"/>
<path class="st20" d="M142.2,45.6c0,0.3,0.3,0.6,0.6,0.6c0.3,0,0.6-0.3,0.6-0.6c0-0.3-0.3-0.6-0.6-0.6S142.2,45.3,142.2,45.6
	C142.2,45.6,142.2,45.6,142.2,45.6z"/>
<path class="st45" d="M184.2,73c0.5,1.3,1.2,2.3,1.7,2.1s0.5-1.4,0-2.7s-1.2-2.3-1.7-2.2S183.7,71.6,184.2,73z"/>
<path class="st7" d="M111,225.1c0,0,11.3,3.4,14.8,6.1c-1.5,0.2-5.7,2.7-6.3,3.6C117.8,230.7,114.8,227.3,111,225.1z"/>
<path class="st7" d="M147.1,218c0,0-3.8-3.2-12.3-4.6c4.1,0.2,12.3,2.5,14.6,2.7C148.5,216.7,147.7,217.3,147.1,218z"/>
</svg>
