<svg xmlns="http://www.w3.org/2000/svg" xmlns:xlink="http://www.w3.org/1999/xlink" viewBox="0 0 260 250"><defs><style>.cls-1{fill:none;}.cls-2{isolation:isolate;}.cls-3{fill:#18a5b2;}.cls-4{opacity:0.16;fill:url(#linear-gradient);}.cls-5{fill:#d5d5d5;}.cls-6{fill:#fefefe;}.cls-7{fill:#e58d13;}.cls-8{fill:#fccc12;}.cls-9{clip-path:url(#clip-path);}.cls-10{fill:#2f1309;}.cls-10,.cls-11,.cls-13{mix-blend-mode:multiply;}.cls-10,.cls-11{opacity:0.85;}.cls-11{fill:#57220a;}.cls-12{clip-path:url(#clip-path-2);}.cls-13{fill:#e61412;opacity:0.1;}</style><linearGradient id="linear-gradient" x1="205.81" y1="195.53" x2="79.74" y2="88.96" gradientUnits="userSpaceOnUse"><stop offset="0" stop-opacity="0"/><stop offset="0.81"/></linearGradient><clipPath id="clip-path"><path class="cls-1" d="M135.59,153.23a15.64,15.64,0,1,0-23.17,13.62v18.3a7.53,7.53,0,1,0,15.06,0v-18.3A15.57,15.57,0,0,0,135.59,153.23Z"/></clipPath><clipPath id="clip-path-2"><path class="cls-1" d="M184,107.84V84.12c.92-36.51-26.76-64-59.69-66.2A64.15,64.15,0,0,0,55.87,81.85v26H53.14a5.74,5.74,0,0,0-5.73,5.73v45.72A72.54,72.54,0,0,0,120,231.83h0a72.54,72.54,0,0,0,72.54-72.54V113.57a5.74,5.74,0,0,0-5.73-5.73Zm-106.16-26a42.08,42.08,0,0,1,84.16,0v26H77.87Z"/></clipPath></defs><g class="cls-2"><g id="Layer_21" data-name="Layer 21"><rect class="cls-3" x="-0.04" y="-0.19" width="260" height="250"/><path class="cls-4" d="M213.37,116.69h-8.09v-25a64.16,64.16,0,0,0-61.33-64,64.31,64.31,0,0,0-11.59-1.07c-.67,0-1.33,0-2,.05a64.14,64.14,0,0,0-66.09,64v26H61.55a5.73,5.73,0,0,0-5.73,5.73v45.72h0a72.54,72.54,0,0,0,72.54,72.54h0a73.33,73.33,0,0,0,10-.7,73.22,73.22,0,0,0,10,.7h0a72.54,72.54,0,0,0,72.54-72.54V124.22A7.53,7.53,0,0,0,213.37,116.69ZM99.11,91.7A42.13,42.13,0,0,1,138,49.75a42.15,42.15,0,0,1,32.42,41v26H99.11Z"/><path class="cls-5" d="M196.87,109.19h-22V82.85a42.09,42.09,0,0,0-84.17,0v26.34h-22V82.85a64.09,64.09,0,0,1,128.17,0Z"/><path class="cls-6" d="M188,108.19H166V81.85a42.08,42.08,0,0,0-84.16,0v26.34h-22V81.85a64.08,64.08,0,0,1,128.16,0Z"/><path class="cls-7" d="M74.94,107.84H205a7.53,7.53,0,0,1,7.53,7.53v43.92A72.54,72.54,0,0,1,140,231.83h0a72.54,72.54,0,0,1-72.54-72.54V115.37a7.53,7.53,0,0,1,7.53-7.53Z"/><path class="cls-8" d="M54.94,107.84H185a7.53,7.53,0,0,1,7.53,7.53v43.92A72.54,72.54,0,0,1,120,231.83h0a72.54,72.54,0,0,1-72.54-72.54V115.37a7.53,7.53,0,0,1,7.53-7.53Z"/><g class="cls-9"><path class="cls-10" d="M142.59,153.23a15.64,15.64,0,1,0-23.17,13.62v18.3a7.53,7.53,0,1,0,15.06,0v-18.3A15.57,15.57,0,0,0,142.59,153.23Z"/></g><path class="cls-11" d="M135.59,153.23a15.64,15.64,0,1,0-23.17,13.62v18.3a7.53,7.53,0,1,0,15.06,0v-18.3A15.57,15.57,0,0,0,135.59,153.23Z"/><g class="cls-12"><rect class="cls-13" x="119.95" y="107.84" width="72.54" height="123.99"/></g></g></g></svg>