<svg id="Layer_30" data-name="Layer 30" xmlns="http://www.w3.org/2000/svg" viewBox="0 0 260 250"><defs><style>.cls-1{fill:#a791b5;}.cls-2{fill:#0f3a44;}.cls-3{fill:#0c2026;}.cls-4{fill:#9d0f28;}.cls-5{fill:#890f27;}.cls-6{fill:#283438;}.cls-7,.cls-8{fill:#46575b;}.cls-7{opacity:0.5;}.cls-9{fill:#b7b7b7;}</style></defs><rect class="cls-1" x="-0.04" y="-0.19" width="260" height="250"/><path class="cls-2" d="M238,79.16c-4.18.25-64,4.41-93.93,41.16a.93.93,0,0,0,.65,1.52l20.41,1.5a.92.92,0,0,0,.62-.18l31.78-23.71a.94.94,0,0,1,.22-.12l27-10.49a1.1,1.1,0,0,1,.26-.06l25.52-2,.12,0h0a.93.93,0,0,0,.19-1.75l-12.47-5.77A1.13,1.13,0,0,0,238,79.16Z"/><path class="cls-3" d="M168.56,116.56c2.68-3.76,35.07-31.91,82.32-31.28a.8.8,0,0,1,.74.87L251.4,90a.84.84,0,0,1-.79.78c-6.79.26-58.18,3.32-79.14,35.59h0l-3-9.1A.79.79,0,0,1,168.56,116.56Z"/><path class="cls-4" d="M175.34,125.79l-16.84-7,1.34,18.31c-10.57-8.66-33.76-14.68-60.67-14.68s-50.12,6-60.68,14.69l1.34-18.32-16.84,7s.09,24.71,15.07,36.82v-.13c9.77,9.35,32.88,14.94,61.1,14.94s51.32-5.59,61.09-14.93v.12C175.26,150.5,175.34,125.79,175.34,125.79Z"/><path class="cls-5" d="M160.26,162.49v.12c12.6-10.19,14.67-29.28,15-35.09,0,0-3.83,24.51-36.36,35.42-25.56,8.56-72.59,8.28-96.61,2.85,11.35,7.34,32.14,11.63,56.86,11.63C127.38,177.42,150.49,171.83,160.26,162.49Z"/><ellipse class="cls-6" cx="99.17" cy="125.66" rx="74.39" ry="28.1"/><path class="cls-7" d="M99.17,153.75c30.82,0,57.26-7.07,68.55-17.16-6.42-12.08-34.67-21.18-68.55-21.18s-62.12,9.1-68.54,21.18C41.92,146.68,68.36,153.75,99.17,153.75Z"/><path class="cls-8" d="M36.68,140.9c13.26,7.74,36.29,12.85,62.49,12.85,27,0,50.56-5.41,63.61-13.52-9-9.83-33.68-16.89-62.76-16.89C70.29,123.34,45.13,130.73,36.68,140.9Z"/><path class="cls-9" d="M99.17,96.28C56.45,96.28,23,109.41,23,126.17s33.46,29.88,76.18,29.88,76.18-13.13,76.18-29.88S141.89,96.28,99.17,96.28Zm0,57.47c-41.08,0-74.39-12.58-74.39-28.09s33.31-28.1,74.39-28.1,74.4,12.58,74.4,28.1S140.26,153.75,99.17,153.75Z"/><path class="cls-3" d="M238.94,82.62c0,.88-2.67,1.6-6,1.6S227,83.5,227,82.62,229.69,81,233,81,238.94,81.73,238.94,82.62Z"/></svg>