<svg id="Layer_11" data-name="Layer 11" xmlns="http://www.w3.org/2000/svg" viewBox="0 0 260 250"><defs><style>.cls-1{fill:#88c1d9;}.cls-2{fill:#f64f10;}.cls-3{fill:#e23709;}.cls-4{fill:#841807;}.cls-5{fill:#212121;}.cls-6{fill:#0e0e0d;}.cls-7{fill:#424242;}.cls-8{fill:#f7966c;}.cls-9{fill:#f0a668;}.cls-10{fill:#fff;}.cls-11{fill:#d6d6d6;}.cls-12{fill:#720a08;}.cls-13{fill:#f6a3a4;}.cls-14{fill:#e58888;}.cls-15{fill:#ad4040;}.cls-16{fill:#542416;}.cls-17{fill:#a74f45;}.cls-18{fill:#1f0909;}</style></defs><rect class="cls-1" x="-0.04" y="-0.19" width="260" height="250"/><path class="cls-2" d="M79.56,148.86c-4.51-.81-10,2.51-8.28,7.22-2,1-2.76,6.08,1.07,7.09-1,1.44-.44,6.83,7.59,7.11.19,1.73,4.66,4.84,14,4.38,14-.71,24.17-5.41,29.46-7.61C115.57,164.86,79.56,148.86,79.56,148.86Z"/><path class="cls-3" d="M100,157.92l-1.4-2.26c-.19,0-17.67-.92-27.67-.82l.35,1.39C81.26,156.13,99.82,157.91,100,157.92Z"/><path class="cls-3" d="M76.29,163.49c9.78,0,32.37-1.39,33.51-1.46l-3.39-1.87c-.33,0-31.09,2.76-35.47,2.32l1.38.84A29.51,29.51,0,0,0,76.29,163.49Z"/><path class="cls-3" d="M82.9,170.51A111.73,111.73,0,0,0,104.2,168c7.21-1.48,12.61-3.1,12.66-3.11l-3-1.32c-.06,0-5.87,1.42-10.84,2.54-6.83,1.56-19,3-26.86,3.56l3.78.75C80.93,170.45,81.89,170.51,82.9,170.51Z"/><path class="cls-3" d="M93.34,172.94a75.15,75.15,0,0,0,25.53-7.44c1.91.72,3.47,1.26,4.52,1.55-5.29,2.2-15.41,6.9-29.46,7.61-8.78.44-13.26-2.3-13.91-4.06C81.5,172.23,85.21,173.76,93.34,172.94Z"/><path class="cls-4" d="M83.45,173.44c-2-.82-3.43-2-3.64-3-5-.21-6.83-2.4-7.47-3.69a4,4,0,0,1-.23-3.48A3.64,3.64,0,0,1,69.5,160a4.31,4.31,0,0,1,1.59-4,4.72,4.72,0,0,1,.86-4.75,7.58,7.58,0,0,1,3.4-2.21,8.68,8.68,0,0,1,4.24-.33h0c.36.16,36.08,16,43.8,18.18l.44.13-.42.17-1.31.55c-5.69,2.4-15.21,6.41-28.2,7.06-.65,0-1.27.05-1.87.05A23,23,0,0,1,83.45,173.44ZM79.52,149a8.18,8.18,0,0,0-7.33,2.44,4.39,4.39,0,0,0-.76,4.57l0,.13-.13.07c-1,.5-1.7,2.19-1.54,3.75a3.31,3.31,0,0,0,2.58,3l.22.06-.13.18a3.62,3.62,0,0,0,.14,3.35c.62,1.24,2.4,3.35,7.33,3.52h.13l0,.13c.08.77,1.18,2,3.47,2.89a24.29,24.29,0,0,0,10.35,1.35c12.94-.65,22.43-4.65,28.1-7l.9-.38C114.45,164.51,80.46,149.43,79.52,149Z"/><path class="cls-4" d="M100,157.92l0-.31c-.19,0-18.76-1.8-28.76-1.69v.31C81.26,156.13,99.82,157.91,100,157.92Z"/><path class="cls-4" d="M76.29,163.49c9.78,0,32.37-1.39,33.51-1.46l0-.31c-.33,0-33.08,2-37.4,1.29l-.06.31A29.51,29.51,0,0,0,76.29,163.49Z"/><path class="cls-4" d="M82.9,170.51A111.73,111.73,0,0,0,104.2,168c7.21-1.48,12.61-3.1,12.66-3.11l-.09-.3s-5.44,1.62-12.64,3.11C97.49,169,87.9,170.57,80,170.12l0,.31C80.9,170.49,81.89,170.51,82.9,170.51Z"/><path class="cls-5" d="M79.94,170.28c-8-.28-8.59-5.67-7.59-7.11-3.83-1-3.07-6.09-1.07-7.09-1.75-4.71,3.77-8,8.28-7.22a4.66,4.66,0,0,0-2.77,7.3c-1.68,1.49-1.71,4.87,2.13,7.14-1.8,2.28,2.21,6.23,8.65,6.93-1.11,1,1.15,2.56,4.7,3.32,1.72.36,3.6.66,5,.86-1.1.11-2.21.19-3.36.25C84.6,175.12,80.13,172,79.94,170.28Z"/><path class="cls-6" d="M71.29,156.23l0-.13,0,0c-.07-.19-.12-.37-.17-.55l0-.15a5.07,5.07,0,0,1-.09-.54c1.57,0,3.33,0,5.17,0a5.78,5.78,0,0,0,.64,1.3l-.16.15C74.7,156.25,72.88,156.22,71.29,156.23Z"/><path class="cls-6" d="M77.59,162.34a8.27,8.27,0,0,0,1.33,1l-.12.17-2.51,0a29.51,29.51,0,0,1-4-.17l0,0a1.25,1.25,0,0,1,.08-.12,5.06,5.06,0,0,1-.66-.24l-.73-.44h0A61.63,61.63,0,0,0,77.59,162.34Z"/><path class="cls-6" d="M82.94,169.05a16.51,16.51,0,0,0,4.63,1.18l-.11.13q-2.31.15-4.56.15c-1,0-2-.06-2.94-.12a.43.43,0,0,1,0-.11l-.8-.05-3-.59C78.2,169.5,80.51,169.29,82.94,169.05Z"/><path class="cls-6" d="M90.68,173.13a15.25,15.25,0,0,0,1.59.42c1.71.36,3.59.66,5,.86l-.57.05a43.18,43.18,0,0,1-7.19.15A19.41,19.41,0,0,1,82.77,173c-1-.44-2.38-1.21-2.71-2.29a9.79,9.79,0,0,0,3.1,1.75,19.85,19.85,0,0,0,6.18.75C89.79,173.16,90.23,173.15,90.68,173.13Z"/><path d="M83.45,173.44c-2-.82-3.43-2-3.64-3-5-.21-6.83-2.4-7.47-3.69a4,4,0,0,1-.23-3.48A3.64,3.64,0,0,1,69.5,160a4.31,4.31,0,0,1,1.59-4,4.72,4.72,0,0,1,.86-4.75,7.58,7.58,0,0,1,3.4-2.21,8.68,8.68,0,0,1,4.24-.33l.74.13-.73.18a5,5,0,0,0-3.28,2.8,4.55,4.55,0,0,0,.6,4.26l.07.11-.1.09a3.25,3.25,0,0,0-1,2.74A5.7,5.7,0,0,0,79,163.17l.15.09-.11.14a1.93,1.93,0,0,0-.2,2c.81,1.92,4.07,4.13,8.75,4.64l.34,0-.25.24a.57.57,0,0,0-.21.61c.2.74,1.93,1.82,4.83,2.43,1.76.38,3.7.68,5,.86l1.3.19-1.31.12c-1.12.11-2.25.2-3.36.25-.65,0-1.27.05-1.86.05A23.05,23.05,0,0,1,83.45,173.44Zm8.78.26c-2.75-.59-4.79-1.65-5.07-2.66a.85.85,0,0,1,.11-.69,15.45,15.45,0,0,1-5.63-1.77,7,7,0,0,1-3.09-3,2.24,2.24,0,0,1,.14-2.21,5.9,5.9,0,0,1-3.12-4.3,3.58,3.58,0,0,1,1-2.92,4.78,4.78,0,0,1-.56-4.42,5.23,5.23,0,0,1,2.84-2.78,8.12,8.12,0,0,0-6.67,2.52,4.39,4.39,0,0,0-.76,4.57l0,.13-.13.07c-1,.5-1.7,2.19-1.54,3.75a3.31,3.31,0,0,0,2.58,3l.22.06-.13.18a3.62,3.62,0,0,0,.14,3.35c.62,1.24,2.4,3.35,7.33,3.52h.13l0,.13c.08.77,1.18,2,3.47,2.89a24.29,24.29,0,0,0,10.35,1.35c.67,0,1.35-.08,2-.13C94.81,174.19,93.48,174,92.23,173.7Z"/><path d="M76.71,156v.32c-2-.07-3.81-.1-5.42-.09v-.31C72.9,155.9,74.75,155.94,76.71,156Z"/><path d="M72.38,163a49.14,49.14,0,0,0,6.47.14,2.8,2.8,0,0,0,.09.31l-2.65,0a29.51,29.51,0,0,1-4-.17Z"/><path d="M80,170.12a62.83,62.83,0,0,0,7.37-.07,2,2,0,0,1,.12.31c-1.53.1-3,.15-4.54.15-1,0-2,0-3-.08Z"/><path class="cls-2" d="M74.29,116.54c-2.5-2.49-10.35-14.25-14-19.67S51.5,85.47,47.34,83.71c-5.43-2.3-11.25-1.09-12.25,2.93-2.89-.82-7.74,2.46-7.09,7-3.28,0-8.34,4.83-6.15,11.1-3.49.84-6.08,8.37-3.07,11.22-4.35.41-7.78,8.81-4.26,13.43-2.85,1.87-4,9.48,2.69,11.11a6.67,6.67,0,0,0,2.91,9.11c5.23,2.64,15.74.64,21.05-.52,5.85-1.27,19.76-5.89,27.29-6.84C71.16,138.14,74.29,116.54,74.29,116.54Z"/><rect class="cls-4" x="45.41" y="95.55" width="0.31" height="55.59" transform="matrix(0.27, -0.96, 0.96, 0.27, -85.47, 134.3)"/><path class="cls-5" d="M12.51,135.56a5.8,5.8,0,0,0,4.74,4.75l.21.05-.11.18a6.7,6.7,0,0,0-.48,5,6.22,6.22,0,0,0,3.32,3.87c2.24,1.14,5.75,1.52,10.41,1.15a81.2,81.2,0,0,0,10.54-1.68c2.12-.46,5.24-1.35,8.85-2.37,6.37-1.81,13.57-3.85,18.38-4.46,2.56-4,5.55-24.06,5.75-25.47-2.3-2.35-8.82-12-12.72-17.79L60.14,97c-1.7-2.51-7.66-10.9-12.86-13.1-3.33-1.41-6.93-1.52-9.39-.29a4.75,4.75,0,0,0-2.65,3.12l0,.15-.15,0a5.56,5.56,0,0,0-4.78,1.5,5.89,5.89,0,0,0-2.11,5.29l0,.18H28c-1.67,0-3.68,1.27-5,3.14a8.34,8.34,0,0,0-1,7.75l.06.17-.17,0c-1.63.39-3.26,2.47-3.95,5.06s-.31,4.69.95,5.88l.25.24-.34,0c-1.79.17-3.57,1.81-4.65,4.27s-1.57,6.21.49,8.92l.1.13-.14.1C13.05,130.5,12.11,133.23,12.51,135.56Zm6.37-5.83.14-.09-.1-.14a7,7,0,0,1-.63-6.58c1-2.79,3-5,5.12-5.58l.29-.08-.23-.19c-1.33-1.11-1.88-3.21-1.47-5.61s1.7-4.4,3.23-5l.14-.06-.05-.14a7.72,7.72,0,0,1,6.07-9.91h.18l0-.18a4.9,4.9,0,0,1,1.85-4.3c1.58-1.38,3.82-2.12,5.21-1.73l.18,0,0-.18a3.81,3.81,0,0,1,1.7-3.1c1.4-.83,3.59-.65,6.33.51,3.12,1.32,7.4,5.68,11.45,11.66l1.11,1.65c3.48,5.15,9.27,13.74,11.34,15.85-.2,1.33-2.85,19.07-5.12,22.66-4.28.55-10.7,2.37-16.36,4-3.22.91-6,1.7-7.89,2.11A69.8,69.8,0,0,1,32,146.75c-4.11.28-7.25,0-9.33-.91a3.11,3.11,0,0,1-2-2.21,4,4,0,0,1,1-3.47l.17-.19-.25-.06a5.62,5.62,0,0,1-4.44-4.7C16.84,133,17.57,130.59,18.88,129.73Z"/><path class="cls-7" d="M59.47,97.46C55.8,92,50.12,86.06,46,84.3c-3.19-1.35-6-1.69-8-.94,2.43-1.15,6-1.1,9.41.35,4.16,1.76,9.26,7.73,12.93,13.16s11.52,17.18,14,19.67C69.85,113.4,63.14,102.88,59.47,97.46Z"/><path class="cls-3" d="M73.16,124.19l1-2.36C68,115.29,41.27,89.55,35.57,85.42L35,86.75C36.33,88,68.32,118,73.16,124.19Z"/><path class="cls-4" d="M72.91,124.38l.25-.19C68.31,118,36.55,87.8,35.2,86.52l-.22.23C36.33,88,68.07,118.16,72.91,124.38Z"/><path class="cls-3" d="M72.31,127.39l.85-2.25C72.8,124.87,37.39,97.75,28,91.82l-.1,1.9C36,100.11,72,127.11,72.31,127.39Z"/><path class="cls-4" d="M72.26,127.54l.18-.25C72.08,127,36.22,99.86,28.1,93.48l-.2.24C36,100.11,71.89,127.26,72.26,127.54Z"/><path class="cls-3" d="M71.92,129.56l.72-1.42C58,120.42,37.9,109.49,21.53,103.38l.25,1.46Z"/><rect class="cls-4" x="46.79" y="89.14" width="0.31" height="56.03" transform="translate(-78.86 107.17) rotate(-63.63)"/><path class="cls-3" d="M72.31,130.92l.33-1.64c-20.5-6.43-48-13.83-54.81-14.9l.91,1.69Z"/><path class="cls-3" d="M71.42,132.61l0-1.93c-20.53-1.49-45.53-3.34-57.83-2.86l.9,1.69Z"/><rect class="cls-4" x="42.82" y="102.46" width="0.31" height="57.01" transform="translate(-90.21 166.48) rotate(-86.76)"/><path class="cls-3" d="M17.22,140.52l53.53-4.76L70,133.65c-20.27,1.86-42.68,2.39-56.33,4.83A5.7,5.7,0,0,0,17.22,140.52Z"/><rect class="cls-4" x="17.1" y="137.87" width="53.74" height="0.31" transform="translate(-12.3 4.54) rotate(-5.19)"/><path class="cls-3" d="M41.17,149.05c-5.31,1.16-15.82,3.16-21,.52a6.67,6.67,0,0,1-3.06-8.82c1.66,3.82,4,5.24,12.07,5.42,10.8.24,26.2-5.75,41.26-9.25a20.44,20.44,0,0,1-1.93,5.29C60.93,143.16,47,147.78,41.17,149.05Z"/><path d="M20.05,149.71a6.55,6.55,0,0,1-3.48-4.06,7.14,7.14,0,0,1,.41-5.09,6,6,0,0,1-4.78-4.94c-.42-2.42.5-5.14,2.09-6.3a7.81,7.81,0,0,1-1.38-4.38,11.43,11.43,0,0,1,.95-4.73c1.07-2.42,2.8-4.08,4.59-4.41-1.16-1.31-1.47-3.51-.82-6,.6-2.22,2.06-4.66,4-5.25a8.6,8.6,0,0,1,1.1-7.87,7.28,7.28,0,0,1,5.07-3.27,6.23,6.23,0,0,1,2.24-5.39A6,6,0,0,1,35,86.45a5.08,5.08,0,0,1,2.77-3.17c2.54-1.27,6.24-1.16,9.65.29a21.65,21.65,0,0,1,6.71,5.24,64.85,64.85,0,0,1,6.29,8l1.26,1.85c3.93,5.83,10.5,15.58,12.74,17.8l.06.06v.08c-.13.88-3.17,21.67-5.86,25.73l0,.06h-.07c-4.78.6-12,2.65-18.4,4.46-3.62,1-6.75,1.91-8.87,2.37a82,82,0,0,1-10.58,1.69c-1.16.09-2.24.14-3.26.14A16.51,16.51,0,0,1,20.05,149.71ZM74.12,116.6c-2.3-2.35-8.82-12-12.72-17.79L60.14,97c-1.7-2.51-7.66-10.9-12.86-13.1-3.33-1.41-6.93-1.52-9.39-.29a4.75,4.75,0,0,0-2.65,3.12l0,.15-.15,0a5.56,5.56,0,0,0-4.78,1.5,5.89,5.89,0,0,0-2.11,5.29l0,.18H28c-1.67,0-3.68,1.27-5,3.14a8.34,8.34,0,0,0-1,7.75l.06.17-.17,0c-1.63.39-3.26,2.47-3.95,5.06s-.31,4.69.95,5.88l.25.24-.34,0c-1.79.17-3.57,1.81-4.65,4.27s-1.57,6.21.49,8.92l.1.13-.14.1c-1.55,1-2.49,3.74-2.09,6.07a5.8,5.8,0,0,0,4.74,4.75l.21.05-.11.18a6.7,6.7,0,0,0-.48,5,6.22,6.22,0,0,0,3.32,3.87c2.24,1.14,5.75,1.52,10.41,1.15a81.2,81.2,0,0,0,10.54-1.68c2.12-.46,5.24-1.35,8.85-2.37,6.37-1.81,13.57-3.85,18.38-4.46C70.93,138,73.92,118,74.12,116.6Z"/><path class="cls-6" d="M38.65,90a1.36,1.36,0,0,0-.29-.06L35,86.75l.06-.12h.05c0-.15.08-.29.13-.43l.29-.65.07-.13c.8.58,2,1.58,3.52,2.89A5.36,5.36,0,0,0,38.65,90Z"/><path class="cls-6" d="M31.39,96.23h-.24c-1.32-1-2.42-1.87-3.25-2.52V93.6H28a5.62,5.62,0,0,1-.05-.7l0-.81a2.17,2.17,0,0,1,0-.25c.94.59,2.15,1.41,3.56,2.38A4.23,4.23,0,0,0,31.39,96.23Z"/><path class="cls-6" d="M24.79,104.64a7.22,7.22,0,0,0,.38,1.71l-.19.08-3.2-1.59,0-.11.09,0c-.08-.23-.15-.47-.21-.7l-.11-.62C22.6,103.78,23.69,104.2,24.79,104.64Z"/><path class="cls-6" d="M22.07,115.24a4.37,4.37,0,0,0,1.3,2l-.29.08-4.34-1.2-.07-.14h.11c-.1-.1-.2-.2-.29-.31l-.66-1.23C18.82,114.53,20.27,114.83,22.07,115.24Z"/><path class="cls-6" d="M18.79,129.6l-.2.14-4.08-.23-.06-.11.07-.05a5.58,5.58,0,0,1-.44-.64l-.28-.55c-.06-.11-.11-.23-.16-.34,1.28,0,2.7-.08,4.23-.08A5.68,5.68,0,0,0,18.79,129.6Z"/><path class="cls-6" d="M13.71,138.48c1.38-.25,2.85-.47,4.4-.69a5.87,5.87,0,0,0,3.51,2.27l-.07.08-4.33.38h0l0-.06A6.63,6.63,0,0,1,13.71,138.48Z"/><path class="cls-6" d="M17.06,140.75a7.1,7.1,0,0,0,4.3,4.35,3.65,3.65,0,0,0,1.29.89c4.8,2,14,.56,18.75-.47,5.21-1.13,17.61-5.25,24.31-6.09a8.58,8.58,0,0,0,.74-1.54c1.31-.34,2.63-.66,3.94-1a29.67,29.67,0,0,1-1.73,5,.57.57,0,0,1-.15.22.55.55,0,0,1-.28.09l-1.25.19-1.61.3-.42.08-1.3.28-.89.2-.92.21-.92.23-1.42.35-2.89.76-1,.27-1,.27-1.45.4-3.75,1.06c-3.32.94-6.29,1.78-8.3,2.21l-1.05.23-2.41.47-1.33.24-1.39.23-1.53.21-1.29.16c-.77.08-1.56.15-2.34.2a28.75,28.75,0,0,1-6.28-.19l-.63-.11a8.54,8.54,0,0,1-4.67-2.29A6.78,6.78,0,0,1,17.06,140.75Z"/><path d="M20.05,149.71a6.55,6.55,0,0,1-3.48-4.06,7.09,7.09,0,0,1,.41-5.09,6,6,0,0,1-4.78-4.94c-.42-2.42.5-5.14,2.09-6.3a7.81,7.81,0,0,1-1.38-4.38,11.43,11.43,0,0,1,.95-4.73c1.07-2.42,2.8-4.08,4.59-4.41-1.16-1.31-1.47-3.51-.82-6,.6-2.22,2.06-4.66,4-5.25a8.63,8.63,0,0,1,1.1-7.88,7.3,7.3,0,0,1,5.07-3.26,6.23,6.23,0,0,1,2.24-5.39A6,6,0,0,1,35,86.45a5.08,5.08,0,0,1,2.77-3.17c2.54-1.27,6.24-1.16,9.65.29a21.65,21.65,0,0,1,6.71,5.24,64.85,64.85,0,0,1,6.29,8l1.26,1.86c3.93,5.82,10.5,15.57,12.74,17.79l.06.06v.08c-.13.88-3.17,21.67-5.86,25.73l0,.06h-.07c-4.78.6-12,2.65-18.4,4.46-3.62,1-6.75,1.91-8.87,2.37a82,82,0,0,1-10.58,1.69c-1.16.09-2.24.14-3.26.14A16.51,16.51,0,0,1,20.05,149.71ZM74.12,116.6c-2.3-2.35-8.82-12-12.72-17.79L60.14,97c-1.7-2.51-7.66-10.9-12.86-13.1-3.33-1.41-6.93-1.52-9.39-.29a4.75,4.75,0,0,0-2.65,3.12l0,.15-.15,0a5.56,5.56,0,0,0-4.78,1.5,5.89,5.89,0,0,0-2.11,5.29l0,.18H28c-1.67,0-3.68,1.27-5,3.14a8.34,8.34,0,0,0-1,7.75l.06.17-.17,0c-1.63.39-3.26,2.47-3.95,5.06s-.31,4.69.95,5.88l.25.24-.34,0c-1.79.17-3.57,1.81-4.65,4.27s-1.57,6.21.49,8.92l.1.13-.14.1c-1.55,1-2.49,3.74-2.09,6.07a5.8,5.8,0,0,0,4.74,4.75l.21.05-.11.18a6.7,6.7,0,0,0-.48,5,6.22,6.22,0,0,0,3.32,3.87c2.24,1.14,5.75,1.52,10.41,1.15a81.2,81.2,0,0,0,10.54-1.68c2.12-.46,5.24-1.35,8.85-2.37,6.37-1.81,13.57-3.85,18.38-4.46C70.93,138,73.92,118,74.12,116.6ZM22.59,146.13a3.41,3.41,0,0,1-2.14-2.43,4.29,4.29,0,0,1,.89-3.55,6.13,6.13,0,0,1-3.05-1.87,6.27,6.27,0,0,1-1.38-3c-.39-2.25.34-4.71,1.66-5.7a7.35,7.35,0,0,1-.58-6.74c1-2.77,3-5,5.06-5.7-1.26-1.23-1.77-3.33-1.36-5.72s1.7-4.46,3.29-5.14a7.48,7.48,0,0,1,1.07-6.79c1.34-1.89,3.48-3.29,5.16-3.39a5.18,5.18,0,0,1,2-4.41,6.8,6.8,0,0,1,5.32-1.83,4,4,0,0,1,1.83-3.16c1.49-.88,3.78-.71,6.61.49,4.7,2,10.06,9.52,11.59,11.77l1.11,1.66c3.5,5.19,9.36,13.87,11.35,15.85l.06.06v.07c-.11.79-2.82,19.32-5.22,22.94l0,.06h-.07c-4.26.53-10.7,2.36-16.39,4-3.22.91-6,1.7-7.9,2.11a68.6,68.6,0,0,1-9.38,1.39c-1,.07-1.94.1-2.83.1A17.33,17.33,0,0,1,22.59,146.13Zm48.15-29.51c-2.07-2.11-7.86-10.7-11.34-15.85l-1.11-1.65c-4-6-8.33-10.34-11.45-11.66-2.74-1.16-4.93-1.34-6.33-.51a3.81,3.81,0,0,0-1.7,3.1l0,.18-.18,0c-1.39-.39-3.63.35-5.21,1.73a4.9,4.9,0,0,0-1.85,4.3l0,.18h-.18a7.72,7.72,0,0,0-6.07,9.91l.05.14-.14.06c-1.53.56-2.82,2.56-3.23,5s.14,4.5,1.47,5.61l.23.19-.29.08c-2.1.55-4.16,2.79-5.12,5.58a7,7,0,0,0,.63,6.58l.1.14-.14.09c-1.31.86-2,3.26-1.66,5.48a5.62,5.62,0,0,0,4.44,4.7l.25.06-.17.19a4,4,0,0,0-1,3.47,3.11,3.11,0,0,0,2,2.21c2.08.89,5.22,1.19,9.33.91a69.8,69.8,0,0,0,9.33-1.38c1.89-.41,4.67-1.2,7.89-2.11,5.66-1.61,12.08-3.43,16.36-4C67.89,135.69,70.54,118,70.74,116.62Z"/><path d="M38.3,89.91,35,86.75l.22-.23,3.55,3.39Z"/><path d="M31,96.16,27.9,93.72l.2-.24,3.45,2.68Z"/><path d="M25.07,106.47l-3.29-1.63.14-.28,3.35,1.66A2.43,2.43,0,0,1,25.07,106.47Z"/><path d="M23.21,117.31l-4.47-1.24.08-.3L23.25,117A1.17,1.17,0,0,1,23.21,117.31Z"/><path d="M18.77,129.58a.7.7,0,0,1-.09.17l-4.17-.24v-.31l4.26.24A.23.23,0,0,1,18.77,129.58Z"/><path d="M21.44,139.92a1.09,1.09,0,0,1,.08.15.2.2,0,0,1,0,.15l-4.3.39,0-.31Z"/><path class="cls-2" d="M120.4,99.18c-1.38-.94-6.12-5.28-10.54-7.78-4.89-2.76-11.6-4-12.86-1-3-1.19-11.79.17-12,3.7-3.39-.12-7.4,3.58-5.9,6.65-2.07,1-3,5.58-.69,7.72-1.63.81,2.13,6.7,7.91,8.68C94.49,117.18,120.4,99.18,120.4,99.18Z"/><path class="cls-3" d="M116.19,102S103.91,92.84,98,90.92c3.41,2,15.9,12,15.9,12Z"/><path class="cls-3" d="M109.87,105.45c-5-3.14-19.17-9.82-24.2-10.94C89.6,96.77,108,107,108,107Z"/><path class="cls-3" d="M102,110.66,79.75,101c5.46.63,25,8.27,25,8.27Z"/><path class="cls-4" d="M81.38,101.76C93.1,106.52,106,111.91,109.59,114l-.15.28C105.86,112.19,93,106.8,81.25,102,81.3,102,81.34,101.85,81.38,101.76Z"/><path class="cls-3" d="M95.33,114.11l-16.6-5.45c4.06.13,20,4.28,20,4.28Z"/><path class="cls-3" d="M89.91,116.28c-5.17-.79-11.12-5.09-11.85-6.54,1.3,3.4,4.11,5.33,7.25,7.21A9.41,9.41,0,0,0,89.91,116.28Z"/><path class="cls-4" d="M86.28,117.31h-.06a15.52,15.52,0,0,1-5.94-3.86,8,8,0,0,1-2.44-4.12,1,1,0,0,1,.28-.87,5.15,5.15,0,0,1-1.19-4.38,4.67,4.67,0,0,1,1.93-3.39A3.77,3.77,0,0,1,79.33,97a7,7,0,0,1,5.46-3.1h0a3.34,3.34,0,0,1,1.77-2.3c2.79-1.76,8-2.25,10.33-1.44a2.8,2.8,0,0,1,1.71-1.39c2.83-1,7.83.5,11.31,2.46a64.9,64.9,0,0,1,8.59,6.24c.87.71,1.56,1.27,2,1.54l.19.13-.19.13c-.07,0-6.57,4.55-14,9-4.36,2.61-8.18,4.7-11.36,6.19-4,1.86-7,2.81-8.85,2.81Zm32.05-19.56a65,65,0,0,0-8.55-6.21c-4-2.24-8.63-3.27-11-2.44a2.45,2.45,0,0,0-1.58,1.36l-.06.14-.15,0c-2.15-.86-7.48-.35-10.18,1.35a3,3,0,0,0-1.65,2.21v.15H85a6.62,6.62,0,0,0-5.36,2.95,3.46,3.46,0,0,0-.39,3.47l.07.14-.14.07a4.24,4.24,0,0,0-1.89,3.23,4.74,4.74,0,0,0,1.24,4.23l.17.16-.21.1c-.22.11-.31.34-.29.69a7.88,7.88,0,0,0,2.36,3.93A15.09,15.09,0,0,0,86.3,117c3.34,0,10.27-3.1,20-8.95,6.71-4,12.68-8.1,13.79-8.86C119.71,98.88,119.09,98.37,118.33,97.75Zm-21.4-7.21.14-.28c5.41,2.8,17.19,12.79,17.31,12.89l-.2.24C114.06,103.29,102.31,93.32,96.93,90.54ZM84.87,94.23,85,94c3.41,2.17,23.14,12.82,23.34,12.92l-.15.28C108,107.06,88.29,96.41,84.87,94.23Zm-6.55,14.38.1-.29,16.91,5.79-.1.29Z"/><path class="cls-5" d="M78.37,108.47c-2.32-2.14-1.38-6.72.69-7.72C77.56,97.68,81.57,94,85,94.1c.25-3.53,9-4.89,12-3.7,1.26-3,8-1.76,12.86,1a47.31,47.31,0,0,1,5.21,3.54c-4.4-1.65-11.85-3.38-12.6-1-2.32-1.38-12.37-1.13-12,3.34-2.7-.1-7,2-5.23,6.2-2.8.09-4.47,4.61-1.66,6.77-1.08.79.36,4.86,2.69,6.9C80.5,115.17,76.74,109.28,78.37,108.47Z"/><path class="cls-7" d="M111.62,93.06a28.92,28.92,0,0,0-8.1-3.58c-2.5-.57-5.12-.25-5.75.65C101,89.36,105.71,90.26,111.62,93.06Z"/><path class="cls-7" d="M97.88,91.53c-1.79-.93-4.66-1.1-7.4-.61-3.15.55-4.59,2.33-4.7,2.85C88.15,91.58,93.54,90.51,97.88,91.53Z"/><path class="cls-7" d="M84.87,94.51a7.38,7.38,0,0,0-4.22,2.14c-1.26,1.43-1.39,2.73-.9,3.76C79.89,97.73,81.91,95.63,84.87,94.51Z"/><path class="cls-7" d="M79.17,101.35a4.56,4.56,0,0,0-1.54,3.7,4.51,4.51,0,0,0,1.26,3.17A7.35,7.35,0,0,1,79.17,101.35Z"/><path class="cls-6" d="M103,93.27a1.27,1.27,0,0,0-.52.67,2.52,2.52,0,0,0-.52-.24c-1.67-1.24-3.12-2.26-4-2.78A30,30,0,0,1,103,93.27Z"/><path class="cls-6" d="M90.62,96.15a2.65,2.65,0,0,0-.15,1.07c-2.12-1.19-3.87-2.17-4.8-2.71A38.34,38.34,0,0,1,90.62,96.15Z"/><path class="cls-6" d="M84.89,102.26a5.61,5.61,0,0,0,.33,1.15L79.75,101A33.72,33.72,0,0,1,84.89,102.26Z"/><path class="cls-6" d="M82.66,109.2a3.52,3.52,0,0,0,.93,1l-4.86-1.59A28.91,28.91,0,0,1,82.66,109.2Z"/><path class="cls-6" d="M84.12,114.26a9.55,9.55,0,0,0,2,2.76H85.9a12.8,12.8,0,0,1-2.14-1,18.32,18.32,0,0,1-3.35-2.64c-.2-.2-.39-.41-.57-.62l-.06-.06-.11-.15a10.09,10.09,0,0,1-1.58-2.69v0C78.59,110.7,81.07,112.7,84.12,114.26Z"/><path d="M86.22,117.3a15.52,15.52,0,0,1-5.94-3.86,8,8,0,0,1-2.44-4.12,1,1,0,0,1,.28-.87,5.15,5.15,0,0,1-1.19-4.38,4.67,4.67,0,0,1,1.93-3.39A3.77,3.77,0,0,1,79.33,97a7,7,0,0,1,5.46-3.1h0a3.34,3.34,0,0,1,1.77-2.3c2.79-1.76,8-2.25,10.33-1.44a2.8,2.8,0,0,1,1.71-1.39c2.83-1,7.83.5,11.31,2.46a45.72,45.72,0,0,1,5.22,3.54l.84.65-1-.37c-4.22-1.59-9.76-2.77-11.71-1.82a1.24,1.24,0,0,0-.68.71l-.06.19-.17-.1c-1.7-1-7.54-1.08-10.28.63a2.69,2.69,0,0,0-1.48,2.57l0,.17h-.18a5.94,5.94,0,0,0-4.87,2.22,3.71,3.71,0,0,0-.2,3.76l.09.21h-.23A3.19,3.19,0,0,0,82.5,106a3.63,3.63,0,0,0,1.19,4.09l.16.13-.17.12a1,1,0,0,0-.29.76c-.07,1.48,1.19,4.31,3,5.89l.59.53Zm-4-11.36a3.53,3.53,0,0,1,2.83-2.6,4,4,0,0,1,.31-3.86,6.28,6.28,0,0,1,4.94-2.36h0a3,3,0,0,1,1.63-2.68,12.07,12.07,0,0,1,5.73-1.39,11.2,11.2,0,0,1,4.72.67,1.57,1.57,0,0,1,.77-.73c2.1-1,7.39.21,11,1.45a42.51,42.51,0,0,0-4.37-2.9c-4-2.24-8.63-3.27-11-2.44a2.45,2.45,0,0,0-1.58,1.36l-.06.14-.15,0c-2.15-.86-7.48-.35-10.18,1.35a3,3,0,0,0-1.65,2.21v.15H85a6.62,6.62,0,0,0-5.36,2.95,3.46,3.46,0,0,0-.39,3.47l.07.14-.14.07a4.24,4.24,0,0,0-1.89,3.23,4.74,4.74,0,0,0,1.24,4.23l.17.16-.21.1c-.22.11-.31.34-.29.69a7.88,7.88,0,0,0,2.36,3.93,15.31,15.31,0,0,0,5.12,3.51,9.28,9.28,0,0,1-2.56-5.61,1.43,1.43,0,0,1,.28-.87A4,4,0,0,1,82.2,105.94Z"/><path d="M102.62,93.91h-.45a47.66,47.66,0,0,0-5.24-3.37l.14-.28a47.37,47.37,0,0,1,5.55,3.6Z"/><path d="M90.21,97.31c-2.46-1.38-4.45-2.51-5.34-3.08L85,94c.9.57,2.93,1.73,5.44,3.13A.58.58,0,0,1,90.21,97.31Z"/><path d="M85,103.56l-6-2.67.13-.28,6.14,2.71A.66.66,0,0,1,85,103.56Z"/><path d="M83.58,110.2a.45.45,0,0,1,0,.12h-.07l-.08,0-5.12-1.76.1-.29,5.1,1.74Z"/><path class="cls-2" d="M187.57,81.75a98.89,98.89,0,0,0-15.9-14.86c-7.62-5.46-13.22-7.56-14.47-6-3.35-2-9.66-2.3-10.54.83-3.24-1.14-7.61,2.09-6.27,6.69-2.34.38-4.14,3.68-2.93,6.78-2.17.88-2.46,4.1.09,8.53a14.83,14.83,0,0,0,5.75,5.94C157.19,84.42,171.61,82.2,187.57,81.75Z"/><path class="cls-3" d="M158.09,61.65c6.75,3.38,17.74,15,22.06,20.45-1.5.1-2.27.16-3.75.29-1.51-2.76-6.44-8.79-11-13.58C162.25,65.45,159.45,63,158.09,61.65Z"/><path class="cls-3" d="M170.29,83.06c-1.32.17-1.21.2-2.51.41a152.09,152.09,0,0,0-11.39-13.33A51.19,51.19,0,0,0,147.25,62C154.52,64,170.79,83,170.29,83.06Z"/><path class="cls-3" d="M145,89q-.85.3-1.71.63a14.83,14.83,0,0,1-5.75-5.94c-1.76-3-2.17-5.53-1.54-7.07C136.52,81.21,140,86.11,145,89Z"/><path class="cls-3" d="M137.88,75.73c4.73,3.46,9.85,7.74,14.32,11.14-.65.19-1.59.24-2.24.44C146.18,83.56,142,80.36,137.88,75.73Z"/><path class="cls-3" d="M160.08,84.78a22.87,22.87,0,0,1-3,.5c-5.51-5.31-11.28-11.21-16.37-16.54C144.73,71.21,155.9,81.49,160.08,84.78Z"/><path class="cls-4" d="M143.23,89.79a15.23,15.23,0,0,1-5.82-6c-1.63-2.83-2.2-5.33-1.61-7a2.82,2.82,0,0,1,1.46-1.67,5.73,5.73,0,0,1,.39-4.77,4.05,4.05,0,0,1,2.54-2,5.4,5.4,0,0,1,1.48-5.46,5.1,5.1,0,0,1,4.89-1.31,3.13,3.13,0,0,1,1.94-1.83c2.29-.91,6.15-.46,8.67,1,1.54-1.52,7.35.9,14.59,6.08A97.6,97.6,0,0,1,187.4,81.33l.51.57h-.33c-17.18.49-31.23,3-44.23,7.89l-.06,0Zm43.94-8.25A97.8,97.8,0,0,0,171.58,67,49.24,49.24,0,0,0,162,61.4c-2.43-1-4.09-1.13-4.67-.42l-.08.1-.12-.07c-2.45-1.47-6.26-1.93-8.51-1a2.76,2.76,0,0,0-1.8,1.79l0,.16-.16-.06a4.73,4.73,0,0,0-4.72,1.19,5.08,5.08,0,0,0-1.35,5.31l.05.17-.18,0a3.7,3.7,0,0,0-2.49,1.92,5.43,5.43,0,0,0-.31,4.64l0,.15-.14,0a2.42,2.42,0,0,0-1.42,1.54c-.55,1.59,0,4.06,1.58,6.77a15.12,15.12,0,0,0,5.62,5.85c12.93-4.86,26.9-7.37,43.93-7.87Z"/><path class="cls-4" d="M177,82.43l.25-.19c-.11-.14-11.09-14.18-19.93-21.48l-.2.24C165.91,68.28,176.87,82.29,177,82.43Z"/><path class="cls-4" d="M167.69,83.5l.25-.19s-3.74-4.75-8.18-9.74c-6-6.72-10.35-10.76-13-12l-.13.29C152.91,64.78,167.55,83.31,167.69,83.5Z"/><path class="cls-4" d="M156.77,85.6l.23-.2c-1.57-1.88-8.81-9.25-13.13-13.66L140.5,68.3l-.22.21c.47.5,1.75,1.8,3.36,3.45C148,76.36,155.2,83.74,156.77,85.6Z"/><path class="cls-4" d="M149.73,87.52l.23-.21c-.64-.72-2.47-2.44-4.57-4.43-3.21-3-7.19-6.77-7.79-7.78l-.27.16c.62,1,4.46,4.66,7.84,7.85C147.27,85.09,149.09,86.81,149.73,87.52Z"/><path class="cls-5" d="M137.55,83.71c-2.55-4.43-2.26-7.65-.09-8.53-1.21-3.1.59-6.4,2.93-6.78-1.34-4.6,3-7.83,6.27-6.69.88-3.13,7.19-2.84,10.54-.83,1.24-1.54,6.75.51,14.27,5.87-3.19-1.6-8.3-3.37-9.37-1.4-2.85-1.84-9.27-2.23-8.74,1.67-3.6-1.38-8.77,1.75-8,6.52-2.39-.37-4.17,3.19-2.46,7.19-2.46-.52-2.81,4.06-1.44,7.73A17.07,17.07,0,0,1,137.55,83.71Z"/><path class="cls-7" d="M167.16,64.36c-.87-.52-7.63-4.43-9.07-3.21C160.23,60.92,167.16,64.36,167.16,64.36Z"/><path class="cls-7" d="M158.27,62.49a9.3,9.3,0,0,0-4.94-2.34c-2.32-.38-4.81.12-5.52,1C149.56,60.49,154.75,60,158.27,62.49Z"/><path class="cls-7" d="M149,63.81c-.77-.62-3.32-2.78-6-1-2.28,1.5-2.1,5.07-2.1,5.07.58-2.56,1.23-4.19,3.09-4.91S147.62,63,149,63.81Z"/><path class="cls-7" d="M140.28,69.39a4.15,4.15,0,0,0-1.39,6.34A6.66,6.66,0,0,1,140.28,69.39Z"/><path class="cls-6" d="M162.79,64.72a1.46,1.46,0,0,0-.69.63l-.3-.18c-1.59-1.53-2.91-2.71-3.71-3.52A31.49,31.49,0,0,1,162.79,64.72Z"/><path class="cls-6" d="M153.48,65.72a2.58,2.58,0,0,0-.12,1.3l0,0a38.25,38.25,0,0,0-6.08-5A20.28,20.28,0,0,1,153.48,65.72Z"/><path class="cls-6" d="M137,82.67a15.61,15.61,0,0,1-.69-1.63,6.31,6.31,0,0,1-.3-4.4,16,16,0,0,0,4.83,9.15,12.5,12.5,0,0,0,.67,2.66l0,0A17.12,17.12,0,0,1,137,82.71Z"/><path class="cls-6" d="M137.88,75.73c1.5,1.1,3,2.28,4.58,3.48a8.38,8.38,0,0,0,.49,1.52l-.14,0C141.18,79.2,139.52,77.58,137.88,75.73Z"/><path class="cls-6" d="M145.33,72.22a6,6,0,0,0,.08,1.32h-.06c-1.58-1.62-3.13-3.23-4.62-4.79A49.07,49.07,0,0,1,145.33,72.22Z"/><path d="M141.42,88.58a17.11,17.11,0,0,1-4-4.79c-1.63-2.83-2.2-5.33-1.61-7a2.82,2.82,0,0,1,1.46-1.67,5.73,5.73,0,0,1,.39-4.77,4.05,4.05,0,0,1,2.54-2,5.4,5.4,0,0,1,1.48-5.46,5.1,5.1,0,0,1,4.89-1.31,3.13,3.13,0,0,1,1.94-1.83c2.29-.91,6.15-.46,8.67,1,.73-.72,2.41-.58,4.87.4a49.23,49.23,0,0,1,9.53,5.54l-.17.27c-3.77-1.89-8.25-3.15-9.16-1.47l-.09.15-.14-.09c-1.94-1.26-5.74-1.85-7.54-.7a2.07,2.07,0,0,0-.95,2.22l0,.26-.24-.1a6,6,0,0,0-5.77,1.16,5.37,5.37,0,0,0-2,5.19l0,.22-.22,0a2.17,2.17,0,0,0-2.08.92c-.83,1.07-1.39,3.3-.22,6l.12.28-.29-.06a1.26,1.26,0,0,0-1.31.42c-1,1.16-1,4.34,0,7.09l.2.54Zm1.28-8c-.89-2.29-.76-4.66.37-6.11a2.5,2.5,0,0,1,2.16-1.07,5.73,5.73,0,0,1,2.11-5.29,6.33,6.33,0,0,1,5.84-1.28,2.38,2.38,0,0,1,1.12-2.28c1.88-1.19,5.65-.65,7.75.62.57-.83,1.91-1,4-.57a22,22,0,0,1,3.9,1.3c-7.32-5-11.64-6.06-12.6-4.88l-.08.1-.12-.07c-2.45-1.47-6.26-1.93-8.51-1a2.76,2.76,0,0,0-1.8,1.79l0,.16-.16-.06a4.73,4.73,0,0,0-4.72,1.19,5.08,5.08,0,0,0-1.35,5.31l.05.17-.18,0a3.7,3.7,0,0,0-2.49,1.92,5.42,5.42,0,0,0-.31,4.64l0,.15-.14,0a2.42,2.42,0,0,0-1.42,1.54c-.55,1.59,0,4.06,1.58,6.77l-.13.08.13-.08a17.12,17.12,0,0,0,3.5,4.34c-.89-2.75-.82-5.68.19-6.87a1.58,1.58,0,0,1,1.21-.56Z"/><path d="M161.79,65.27c-1.58-1.55-3.17-3-4.69-4.27l.2-.24c1.6,1.32,3.27,2.87,4.94,4.51Z"/><path d="M153.18,66.91H153a27.86,27.86,0,0,0-6.42-5l.13-.29c1.63.76,3.89,2.55,6.75,5.34Z"/><path d="M145.08,73.42,143.64,72c-1.61-1.65-2.89-2.95-3.36-3.45l.22-.21,3.37,3.44,1.64,1.68Z"/><path d="M137.6,75.1A56,56,0,0,0,143,80.65a.58.58,0,0,0-.26,0l-.07.08a52.14,52.14,0,0,1-5.36-5.5Z"/><path class="cls-2" d="M239.14,135.13c.88,2.44,5.47,5.4,5.52,8.65,0,2.45-3.26,5.84-8.34,6.09-4,1.31-15.25,10.82-26,10.26-4.42,3.48-18.68,7.61-40.51,10.17-23.56.06-41.06,2.06-62.79-6.26a180.53,180.53,0,0,1-37.86-20.41c-3-2.1-5-2.87-5.33-3.54-1.05-2.3-2-9.08,0-14.88,1.41-4.2,5.46-8.68,7.71-8.93a37.69,37.69,0,0,0,22.11-3.57c12.33-6,34.45-21.68,55.21-27.58,16.3-4.63,30.32-7.24,45.91-3.89,9,1.94,20.52,4.39,31.74,17.82,7.39,8.82,10.92,16.43,13.18,19.94s4.07,4.52,4.07,4.52Z"/><path class="cls-8" d="M238.92,119.47c-2.38-3.32-6.2-10.06-13.58-18.89-11.23-13.42-21.86-15.18-30.88-17.11-15.59-3.35-29-.79-45.28,3.84-20.76,5.9-42.54,21.54-54.87,27.57-11.79,5.76-21.88,1.31-22.75,1.4a37.69,37.69,0,0,0,22.11-3.57c12.33-6,34.45-21.68,55.21-27.58,16.3-4.63,30.32-7.24,45.91-3.89,9,1.94,20.52,4.39,31.74,17.82,7.39,8.82,10.92,16.43,13.18,19.94s4.07,4.52,4.07,4.52S241.36,122.86,238.92,119.47Z"/><path class="cls-9" d="M123.9,161.8a20,20,0,0,1-2.55-.82,13.31,13.31,0,0,1,2.37.75Z"/><path class="cls-9" d="M123.9,161.8l.58.14A3.51,3.51,0,0,1,123.9,161.8Z"/><path class="cls-3" d="M70,138.46c7.58,5.2,29.63,17.55,52.13,22.3,19.46,4.1,37.81,1,44.77.63,11.28-.54,26.49-2.8,29.12-10.42,6.66,2.5,14.37,4.54,22.15,3.05a42.51,42.51,0,0,0,12.39-4.81c-1.69-.78-3.84-2.71-3.84-3.13,1.23,1,7,2.54,11.89,1.66,3-.55,5.45-1.66,6-4.06v.1c0,2.45-3.26,5.84-8.34,6.09-4,1.31-15.25,10.82-26,10.26-4.42,3.48-18.68,7.61-40.51,10.17-23.56.06-41.06,2.06-62.79-6.26a180.53,180.53,0,0,1-37.86-20.41c-3-2.1-5-2.87-5.33-3.54-.81-1.78-1.54-6.24-.92-10.84C63.75,134.6,66.49,136,70,138.46Z"/><path class="cls-10" d="M167,125a23.45,23.45,0,0,1,2.14-14,105.33,105.33,0,0,1,9.57-15.85c.57-1,.85-2.14,1.42-3,2.29-3.71,5.86-5.71,8.57-9.28.64-1,1.85-1.44,2.53-2.35,1.19.19,2.38.41,3.58.67a68.18,68.18,0,0,1,14.49,4.35c-3.3,2.2-5.34,6.32-7.89,9.61-.72,1-1.43,1.86-2.15,3-7.71,11.7-12.7,24.13-10.42,38.26a44.67,44.67,0,0,0,2,6.57,36,36,0,0,0,6.85,12c2.62,3,5.93,5,9.27,7.07a73.09,73.09,0,0,1-12.76,4.08c-4-2.09-8.28-3.83-11.93-6.72C171.83,151.17,169,137.74,167,125Z"/><path class="cls-10" d="M72.55,116.37a35.9,35.9,0,0,0,10.74-.26c3,4,2.76,9.86,2,14.78A32.37,32.37,0,0,1,79.75,144a23.11,23.11,0,0,1-3.41,4.36c-2.77-1.77-5.17-3.4-7.16-4.76-1.38-1-2.55-1.64-3.44-2.16C70.42,134.18,72.17,125,72.55,116.37Z"/><path class="cls-10" d="M121.86,162.44c1.29-4.42,2.14-8.85,3.57-13.42,3-9.28,2.57-19,2-28.69a34.57,34.57,0,0,0-2-8.28c-1.14-3.14-2.14-6.14-3.14-9.28-.61-1.74-1.66-3.25-2.36-4.91,5.34-2.94,11-5.83,16.67-8.28a65.79,65.79,0,0,1,9.68,19.9c2,6.71,1.28,13.42,1,20.27,0,.14.57.29.57.43-1,5.57-1,10.85-2.57,16.13-2,7.43-4,14.42-7.43,21.27-.5.94-1,1.81-1.48,2.65A103.49,103.49,0,0,1,120.13,168a36.51,36.51,0,0,0,2.16-5.13C122.29,162.73,121.72,162.59,121.86,162.44Z"/><path class="cls-11" d="M206.94,162.09a73.09,73.09,0,0,1-12.76,4.08c-4-2.09-8.26-3.82-11.9-6.7,6-1.38,11.13-3.63,13.2-7.24a31.93,31.93,0,0,0,2.19,2.79C200.29,158,203.6,160.07,206.94,162.09Z"/><path class="cls-11" d="M70,138.46c2.14,1.47,5.43,3.51,9.56,5.78a21.27,21.27,0,0,1-3.26,4.15c-3.55-2.27-7-4.69-10.58-6.93.79-1.44,1.65-2.82,2.34-4.32Z"/><path class="cls-11" d="M121.86,162.44c.16-.55.32-1.1.47-1.65a101.52,101.52,0,0,0,17.69,2c-.66,1.6-1.37,3.2-2.17,4.78-.5.94-1,1.81-1.48,2.65l-1-.07h0l-1-.07h0c-2.69-.21-5.38-.51-8.08-.93h0l-1-.15-.1,0-.89-.15-.15,0-.85-.15-.18,0-.82-.15-.2,0-.81-.17-.2,0-.82-.18-.13,0a36.51,36.51,0,0,0,2.16-5.13C122.29,162.73,121.72,162.59,121.86,162.44Z"/><path class="cls-4" d="M132.82,170.12A94.6,94.6,0,0,1,107,164.19a164.71,164.71,0,0,1-22.55-10.74c-6.6-3.76-11.92-7.33-15.34-9.7-1.34-.92-2.46-1.58-3.36-2.1-1.14-.67-1.83-1.08-2-1.5A18,18,0,0,1,62.57,134a24.89,24.89,0,0,1,1.13-8.81,18.69,18.69,0,0,1,3.57-6c1.56-1.78,3.16-2.91,4.28-3a4.68,4.68,0,0,1,.9.07,36.83,36.83,0,0,0,21.15-3.63c3.73-1.83,8.3-4.5,13.59-7.59,12.1-7.08,27.16-15.88,41.65-20A139.68,139.68,0,0,1,172.08,80a70.48,70.48,0,0,1,22.75,1h0a66.62,66.62,0,0,1,15.06,4.61A48.54,48.54,0,0,1,226.66,99a106.51,106.51,0,0,1,11.21,16.61c.76,1.33,1.41,2.48,2,3.35,2.2,3.43,4,4.45,4,4.46l.12.07-4.67,11.68a12,12,0,0,0,2.29,3.09c1.49,1.67,3.19,3.57,3.22,5.56a5.45,5.45,0,0,1-2.31,4,10.69,10.69,0,0,1-6.16,2.25,32.68,32.68,0,0,0-4.92,2.65c-5.11,3.07-12.72,7.64-20.17,7.64l-.87,0c-2.33,1.81-7.08,3.68-13.74,5.42a203.64,203.64,0,0,1-26.8,4.74h0c-3.86,0-7.55.08-11.13.14s-7.16.12-10.64.12C142.88,170.71,137.82,170.58,132.82,170.12Zm63.75-4.71c6.57-1.72,11.43-3.64,13.67-5.41l0,0h.06c.3,0,.61,0,.91,0,7.36,0,14.93-4.54,20-7.58a31.88,31.88,0,0,1,5-2.69h0a10.35,10.35,0,0,0,6-2.18,5.24,5.24,0,0,0,2.2-3.75c0-1.87-1.69-3.72-3.15-5.35a11.53,11.53,0,0,1-2.36-3.25l0-.06,4.61-11.53a14.93,14.93,0,0,1-4-4.5c-.57-.88-1.22-2-2-3.36a105.2,105.2,0,0,0-11.19-16.57c-11.18-13.37-22.51-15.8-31.62-17.76h0c-15.25-3.28-28.84-.94-45.84,3.88-14.45,4.11-29.49,12.9-41.57,20-5.3,3.1-9.87,5.77-13.61,7.6a37.1,37.1,0,0,1-21.33,3.66,6.08,6.08,0,0,0-.83-.07c-1,.11-2.56,1.21-4.07,2.93a18,18,0,0,0-3.51,5.9c-2,5.92-1,12.63,0,14.75.15.33.85.74,1.9,1.36s2,1.18,3.38,2.12a179.08,179.08,0,0,0,37.82,20.4c18.15,6.94,33.65,6.68,51.61,6.37,3.57-.06,7.26-.12,11.12-.13A203.2,203.2,0,0,0,196.57,165.41Z"/><path class="cls-5" d="M190.59,147.16a39.19,39.19,0,0,1-4.2-16.67,49.68,49.68,0,0,1,2.32-16.86,60.65,60.65,0,0,1,6.5-14,67.32,67.32,0,0,1,8-10.34A49,49,0,0,1,207.83,85c1.27.52,2.55,1.12,3.85,1.8a53.82,53.82,0,0,0-13.28,14.88c-4,6.44-8.72,16.64-8.25,28.71.39,10.06,4.1,18.22,11,24.25a33.28,33.28,0,0,0,9.06,5.61,19.83,19.83,0,0,1-4.12,2.25,37.79,37.79,0,0,1-7.28-4.91A35,35,0,0,1,190.59,147.16Z"/><path class="cls-7" d="M208.32,85.15l.32.15,1,.44,1.09.53a5.89,5.89,0,0,0,1,.49c-.5.35-1.1.81-1.76,1.36a41.5,41.5,0,0,0-3.86-1.63c.6-.55,1.19-1.07,1.77-1.53C207.86,84.93,208.11,85,208.32,85.15Z"/><path class="cls-6" d="M194.71,153.35a8,8,0,0,0,1.35-2.38c.74.28,1.49.55,2.26.82a32.84,32.84,0,0,0,11.91,8.42l-.06,0a17.85,17.85,0,0,1-4,2.15c-.36.14-1.32-.61-1.64-.79-.62-.36-1.24-.74-1.84-1.13a39.79,39.79,0,0,1-3.9-2.94A35.49,35.49,0,0,1,194.71,153.35Z"/><path d="M206,162.6a37.65,37.65,0,0,1-7.31-4.93,35.21,35.21,0,0,1-8.28-10.44,39.32,39.32,0,0,1-4.22-16.73,50.29,50.29,0,0,1,2.33-16.92,60.93,60.93,0,0,1,6.52-14,67.07,67.07,0,0,1,8-10.37,50.77,50.77,0,0,1,4.66-4.36l.07-.06.09,0c1.32.55,2.62,1.16,3.87,1.81l.22.12-.21.15c-3.23,2.25-8.64,7.49-13.23,14.84-4,6.41-8.7,16.59-8.23,28.61.39,10,4.08,18.14,11,24.14a33.17,33.17,0,0,0,9,5.59l.25.1-.22.17a19.93,19.93,0,0,1-4.15,2.26l-.07,0Zm-5-7.89c-6.95-6.05-10.68-14.25-11.08-24.36-.47-12.1,4.25-22.33,8.28-28.79a62.35,62.35,0,0,1,7.46-9.7,42.53,42.53,0,0,1,5.65-5.08c-1.14-.59-2.32-1.14-3.53-1.64a48.92,48.92,0,0,0-4.55,4.28,66.34,66.34,0,0,0-8,10.31,60.6,60.6,0,0,0-6.49,14,49.6,49.6,0,0,0-2.31,16.81,39,39,0,0,0,4.18,16.59l-.14.08.14-.08a34.77,34.77,0,0,0,8.21,10.35,37,37,0,0,0,7.17,4.85,19.7,19.7,0,0,0,3.8-2A33.4,33.4,0,0,1,201.07,154.71Z"/><path class="cls-5" d="M170.33,147.86c-3.83-7.21-5.48-13-5.83-20.32a52,52,0,0,1,9.85-32.36,79.81,79.81,0,0,1,13.85-15c1.65.19,3.31.44,5,.76-16.18,13.13-24,28.76-23.09,46.45.6,12.3,5.25,22.42,13.84,30.08a41.36,41.36,0,0,0,12.91,7.93l0,.13c-1.79.47-3.72.93-5.81,1.38a60.94,60.94,0,0,1-9.44-6.52C176.92,156.61,172.87,152.62,170.33,147.86Z"/><path class="cls-7" d="M189.39,80.31h.09l1.17.17h.07q1.23.18,2.46.42c-.77.62-1.52,1.25-2.25,1.88-1.69-.27-3.36-.47-5-.62.74-.67,1.5-1.34,2.29-2Z"/><path class="cls-6" d="M180.83,159.78c1.56-.32,3.08-.69,4.51-1.12a40.51,40.51,0,0,0,11.5,6.72c.09,0-.73.31-.78.32l-1.46.36-2.93.7c-.88.22-1.5-.3-2.22-.74s-1.63-1-2.43-1.55c-1.88-1.28-3.7-2.66-5.47-4.1Z"/><path d="M190.92,167a60.62,60.62,0,0,1-9.47-6.54c-5.57-4.52-9-8.39-11.26-12.56l.14-.07-.14.07c-3.85-7.24-5.49-13-5.85-20.39a49.17,49.17,0,0,1,2.18-16.88,55.83,55.83,0,0,1,7.7-15.57A80.09,80.09,0,0,1,188.1,80l.05,0h.07c1.66.18,3.34.44,5,.75l.33.07-.26.21c-16.14,13.1-23.89,28.69-23,46.32.59,12.25,5.23,22.34,13.79,30a40.87,40.87,0,0,0,12.85,7.9l.15.05-.12.36-.08,0c-1.81.48-3.76.94-5.81,1.39H191Zm-7.09-9.46c-8.62-7.7-13.3-17.85-13.89-30.19-.86-17.65,6.84-33.25,22.88-46.37-1.52-.28-3-.51-4.57-.68a79.94,79.94,0,0,0-13.78,14.94c-7,9.92-10.36,21.08-9.82,32.26.36,7.38,2,13.06,5.82,20.26h0c2.19,4.12,5.64,8,11.18,12.46a61.33,61.33,0,0,0,9.37,6.48c1.92-.42,3.76-.86,5.48-1.3A42.46,42.46,0,0,1,183.83,157.57Z"/><path class="cls-5" d="M145.82,131.14c.7-16-3.17-30-11.2-40.69q1.77-.8,3.54-1.53a56.77,56.77,0,0,1,6.93,12.74,72.36,72.36,0,0,1,4.49,29.65,76.38,76.38,0,0,1-3,18,81.51,81.51,0,0,1-5.44,13.86,78.36,78.36,0,0,1-4,7.14c-1.44-.08-2.87-.19-4.3-.32a75,75,0,0,0,5-8.61A76,76,0,0,0,145.82,131.14Z"/><path class="cls-7" d="M134.74,90.39l1.58-.69.18-.08,1.65-.7h0c.43.59.85,1.19,1.25,1.79-1.18.48-2.36,1-3.53,1.51q-.62-.9-1.26-1.77Z"/><path class="cls-6" d="M141.31,162.83l-.16.31a78.36,78.36,0,0,1-4,7.14H137l-.79-.05H136l-2.08-.16h-.1l-.92-.07h-.07a74.53,74.53,0,0,0,4.34-7.28C138.57,162.75,140,162.8,141.31,162.83Z"/><path d="M137.11,170.43c-1.47-.08-2.92-.19-4.31-.32l-.26,0,.15-.22a74.48,74.48,0,0,0,5-8.59,75.88,75.88,0,0,0,8-30.14c.7-15.88-3.17-29.91-11.17-40.6l-.12-.15.18-.08c1.2-.54,2.4-1.06,3.55-1.54l.12,0,.07.1a57.56,57.56,0,0,1,7,12.78,72.51,72.51,0,0,1,4.5,29.71,76.64,76.64,0,0,1-3,18,81.85,81.85,0,0,1-5.45,13.89,80.42,80.42,0,0,1-4,7.15l-.05.08Zm-2.25-79.92a54.85,54.85,0,0,1,8.78,18.28A72.34,72.34,0,0,1,146,131.15a77.15,77.15,0,0,1-12.88,38.68c1.27.11,2.59.21,3.94.29a79.51,79.51,0,0,0,4-7.05,82.1,82.1,0,0,0,5.43-13.84,76,76,0,0,0,3-17.93A72.1,72.1,0,0,0,145,101.71a57.16,57.16,0,0,0-6.84-12.6C137.05,89.55,136,90,134.86,90.51Z"/><path class="cls-5" d="M118.56,98.8l3.3-1.81a62.94,62.94,0,0,1,5,14.18,91.53,91.53,0,0,1,2.33,19.6,93.22,93.22,0,0,1-2,20.95,75.3,75.3,0,0,1-5.63,16.69c-1.24-.26-2.5-.55-3.76-.87C128.61,145.71,127.06,115.44,118.56,98.8Z"/><path class="cls-7" d="M121.83,97c.29.57.61,1.2.88,1.8-1.11.6-2.21,1.21-3.3,1.82-.27-.61-.59-1.25-.88-1.82C119.62,98.14,120.72,97.55,121.83,97Z"/><path class="cls-6" d="M122.17,160.76l2.2.43a72.58,72.58,0,0,1-2.93,7.09l-.25-.05-.58-.12-.36-.08-.59-.14-.35-.08-.6-.14-.34-.08-.61-.15-.09,0a64.53,64.53,0,0,0,3-7Z"/><path d="M121.4,168.44c-1.26-.27-2.53-.56-3.77-.87l-.19,0,.09-.17c11.05-22.27,9.08-52.37.79-68.6l-.07-.14.13-.07c1.13-.63,2.24-1.24,3.3-1.81l.14-.08.07.14a63.33,63.33,0,0,1,5,14.22,91.81,91.81,0,0,1,2.33,19.63,94.1,94.1,0,0,1-2,21,75.75,75.75,0,0,1-5.64,16.72l-.06.11Zm-2.74-69.7c4.23,8.36,6.71,20.14,6.81,32.36a91,91,0,0,1-1.76,18.74,72,72,0,0,1-5.81,17.47c1.13.29,2.29.55,3.45.79a75.31,75.31,0,0,0,5.56-16.54,92.81,92.81,0,0,0,2-20.91,91.18,91.18,0,0,0-2.32-19.57,63.41,63.41,0,0,0-4.93-14C120.72,97.61,119.7,98.16,118.66,98.74Z"/><path class="cls-5" d="M83.06,132.78c1.71-7.91-.35-14.09-3.25-16.12l.08-.12a37.54,37.54,0,0,0,4.41-.62,15.92,15.92,0,0,1,2.44,5.39,27,27,0,0,1,0,12.27,33.69,33.69,0,0,1-6.65,13.3c-.76,1-1.5,1.8-2.16,2.51-1.13-.71-2.21-1.4-3.23-2.06.73-.75,1.59-1.72,2.5-2.86A29.76,29.76,0,0,0,83.06,132.78Z"/><path class="cls-7" d="M81,117.83a5.81,5.81,0,0,0-1.22-1.17l.08-.12h0c.51,0,1-.09,1.56-.16h0l.53-.07h0c.55-.08,1.11-.17,1.68-.28h0l.57-.11h0a12.57,12.57,0,0,1,1,1.68A29.63,29.63,0,0,1,81,117.83Z"/><path class="cls-6" d="M77.2,144.47c.27-.34.55-.71.84-1.1,1,.59,2.15,1.2,3.32,1.83-.44.61-.87,1.17-1.27,1.68-.76,1-1.5,1.8-2.16,2.51h0l-.82-.51,0,0-2.37-1.52C75.43,146.58,76.29,145.61,77.2,144.47Z"/><path d="M77.85,149.52c-1.07-.66-2.16-1.36-3.24-2.06l-.15-.1.13-.14a35.39,35.39,0,0,0,2.48-2.85,29.41,29.41,0,0,0,5.83-11.62h0c1.7-7.84-.32-14-3.18-16l-.13-.09.21-.31h.08a34.61,34.61,0,0,0,4.39-.62l.1,0,.06.08a15.87,15.87,0,0,1,2.46,5.45,27,27,0,0,1,0,12.34A33.64,33.64,0,0,1,80.21,147c-.68.86-1.41,1.71-2.16,2.52l-.09.09Zm2.25-32.84c2.84,2.19,4.79,8.34,3.11,16.14a30,30,0,0,1-5.89,11.75c-.75.94-1.54,1.86-2.38,2.73,1,.64,2,1.28,3,1.89.71-.78,1.4-1.58,2.06-2.41a33.35,33.35,0,0,0,6.61-13.23,26.88,26.88,0,0,0,0-12.21,15.91,15.91,0,0,0-2.36-5.25A39.1,39.1,0,0,1,80.1,116.68Z"/><path class="cls-5" d="M63.85,140.09c-.09-.21-.19-.45-.28-.72a32.36,32.36,0,0,0,6.13-13.13,33.69,33.69,0,0,0,.82-9.62,3.23,3.23,0,0,1,1-.34c.25,0,1.21.14,2.73.26a37.9,37.9,0,0,1-.92,10.53,36.11,36.11,0,0,1-7,14.79C65,141,64.05,140.53,63.85,140.09Z"/><path class="cls-6" d="M63.7,139.74c0-.1-.07-.2-.11-.31l0-.06a27.48,27.48,0,0,0,2.56-3.76,28.25,28.25,0,0,0,3,2.26,31.46,31.46,0,0,1-2.77,4l-.87-.51,0,0-.11-.07a5.28,5.28,0,0,1-1.35-.94A1.78,1.78,0,0,1,63.7,139.74Z"/><path d="M66.32,142l-.59-.34c-1.14-.67-1.83-1.08-2-1.5a5.91,5.91,0,0,1-.28-.73l0-.08.05-.07a32.31,32.31,0,0,0,6.1-13.06,34.21,34.21,0,0,0,.81-9.57v-.11l.1,0a3.16,3.16,0,0,1,1.1-.35,4.68,4.68,0,0,1,.9.07c.46,0,1.09.13,1.85.19h.14v.13a38.43,38.43,0,0,1-.93,10.58,36.25,36.25,0,0,1-7,14.85l-.09.1Zm6.09-25.48a6.2,6.2,0,0,0-.83-.07,2.79,2.79,0,0,0-.9.28,34.12,34.12,0,0,1-.83,9.56,32.62,32.62,0,0,1-6.1,13.12c.08.24.16.44.24.62h0c.15.33.85.74,1.9,1.36l.48.28A36.27,36.27,0,0,0,73.22,127a37.92,37.92,0,0,0,.92-10.35C73.43,116.63,72.85,116.56,72.41,116.51Z"/><path class="cls-4" d="M235.6,150l.73,0,0-.31c-3.28.15-7.52-.72-9.55-3.63a4.56,4.56,0,0,0,1.93,2.21A13.42,13.42,0,0,0,235.6,150Z"/><path class="cls-12" d="M234,137a8.84,8.84,0,0,1,5.33,3.65c1.23,2,1,3.13-.4,3.87s-5.34.6-9.28-1.54a23.9,23.9,0,0,1-7.11-6.15Z"/><path class="cls-13" d="M229.67,142.93a23.9,23.9,0,0,1-7.11-6.15l9.66.14c3,1.6,7.53,5.37,6.41,7.69C237.05,145.14,233.32,144.91,229.67,142.93Z"/><path class="cls-14" d="M232.22,136.92h0c-1.64.27-3.43,1.59-2.73,3.24,1.71,4,8.34,4.68,9.29,3.76a1.79,1.79,0,0,1-.17.68c-1.58.53-5.31.3-9-1.68a23.9,23.9,0,0,1-7.11-6.15Z"/><path class="cls-15" d="M234.9,144.87a16.25,16.25,0,0,1-5.3-1.81,23.85,23.85,0,0,1-7.16-6.19l-.19-.25,10,.14,0,0a20.46,20.46,0,0,1,4.78,3.61c1.64,1.71,2.23,3.2,1.7,4.29l0,.06-.06,0a6.28,6.28,0,0,1-1.93.25A13.83,13.83,0,0,1,234.9,144.87Zm1.94-4.27a20.43,20.43,0,0,0-4.66-3.53l-9.3-.13a24.11,24.11,0,0,0,6.87,5.85h0c3.58,2,7.24,2.16,8.76,1.69C239,143.27,237.9,141.71,236.84,140.6Z"/><path class="cls-4" d="M235.28,144.92a16,16,0,0,1-5.68-1.86,23.85,23.85,0,0,1-7.16-6.19l-.19-.25,11.77.17h0a9.08,9.08,0,0,1,5.43,3.73,3.64,3.64,0,0,1,.77,2.75,2.19,2.19,0,0,1-1.22,1.34,5.29,5.29,0,0,1-2.28.4A12.86,12.86,0,0,1,235.28,144.92Zm-12.4-8a24.11,24.11,0,0,0,6.87,5.85c3.81,2.08,7.82,2.23,9.13,1.54a1.91,1.91,0,0,0,1.07-1.15,3.32,3.32,0,0,0-.73-2.49A8.74,8.74,0,0,0,234,137.1Z"/><path class="cls-2" d="M222.56,136.78c2,1,8.39,2.75,15.23.67,6.31-1.92,9.78-6.26,10-9.81s-3.62-5.27-4.92-4.86c-1.95.62-2.36,6.16-6.5,9.27-4.33,3.26-11.12,3.52-12.67,2.68l-1.67.37Z"/><path class="cls-3" d="M246.57,124.41a4.39,4.39,0,0,1,1.17,3.23c-.17,3.55-3.64,7.89-10,9.81-6.84,2.08-13.26.37-15.23-.67l-.58-1.67.25-.06c2.69,1,10,2.69,16.42.08C243.25,133.25,247.74,128.13,246.57,124.41Z"/><path class="cls-4" d="M222.49,136.92l-.06,0-.66-1.9,1.9-.43.05,0a10.56,10.56,0,0,0,5.2.18,16.7,16.7,0,0,0,7.31-2.84,15.13,15.13,0,0,0,4.32-6.17c.72-1.58,1.3-2.83,2.22-3.13a4.17,4.17,0,0,1,3.19,1,4.72,4.72,0,0,1,1.93,4,9,9,0,0,1-2.71,5.62,16.76,16.76,0,0,1-7.34,4.33,23.63,23.63,0,0,1-6.8,1A20.37,20.37,0,0,1,222.49,136.92Zm20.37-14c-.79.25-1.33,1.45-2,3a15.25,15.25,0,0,1-4.42,6.29,17,17,0,0,1-7.44,2.9c-2.26.34-4.43.26-5.34-.19l-1.45.33.51,1.45c2.1,1.09,8.44,2.64,15.06.63s9.68-6.4,9.83-9.67a4.42,4.42,0,0,0-1.81-3.75,4.53,4.53,0,0,0-2.51-1A1.56,1.56,0,0,0,242.86,122.93Z"/><path class="cls-2" d="M225.65,134.52c-1.61.46-4.34,3.7-5,5.69C218.9,134.5,220.87,133,225.65,134.52Z"/><path class="cls-4" d="M220.69,140.21c.91-2.06,3.6-5.15,5-5.69a3.05,3.05,0,0,0-1.66.8,17.66,17.66,0,0,0-2.54,3A3.64,3.64,0,0,0,220.69,140.21Z"/><path class="cls-3" d="M220,105.84c8-.61,10.54,13.48,9.1,18-1.79,5.65-14,6.41-16.49,2.84S210.52,106.56,220,105.84Z"/><path d="M214.92,108.36a7.4,7.4,0,0,1,5-2.52,6.32,6.32,0,0,1,5,1.87,7.47,7.47,0,0,0-5-1.47C218.16,106.33,216.77,107.09,214.92,108.36Z"/><path d="M220,108.21c8-.55,10.54,12.09,9.1,16.17-1.79,5.06-14,5.75-16.49,2.54S210.52,108.85,220,108.21Z"/><path class="cls-10" d="M220,109.06c7.85-.52,10.32,11.6,8.91,15.5-1.76,4.86-13.7,5.52-16.15,2.44S210.73,109.68,220,109.06Z"/><path class="cls-11" d="M229.14,120a10.84,10.84,0,0,1-.26,4.58c-1.76,4.86-13.7,5.52-16.15,2.44-.89-1.13-1.4-3.78-1.22-6.72C213.14,128,226.76,127.42,229.14,120Z"/><path d="M216.43,128.83a6.37,6.37,0,0,1-3.82-1.73c-.77-1-1.25-3-1.29-5.34a17.78,17.78,0,0,1,1.38-7.33c1.05-2.37,3.16-5.25,7.26-5.52a7.25,7.25,0,0,1,6.41,3.19,16.22,16.22,0,0,1,2.75,6.7,12.18,12.18,0,0,1-.1,5.82,5.35,5.35,0,0,1-2.61,2.74,13.8,13.8,0,0,1-4.36,1.42A19.61,19.61,0,0,1,219,129,16.33,16.33,0,0,1,216.43,128.83ZM220,109.22c-3.95.26-6,3-7,5.33-2.06,4.67-1.51,10.62-.13,12.36.91,1.14,3.31,1.81,6.12,1.81a18.54,18.54,0,0,0,3-.25c3.53-.58,6-2.06,6.73-4a12.06,12.06,0,0,0,.08-5.66,15.93,15.93,0,0,0-2.69-6.56,6.91,6.91,0,0,0-5.66-3.09Z"/><ellipse class="cls-16" cx="219.54" cy="120.84" rx="4.43" ry="5.96" transform="translate(-12.79 26.9) rotate(-6.81)"/><path class="cls-17" d="M215.13,121.37c.39,3.27,2.68,5.68,5.11,5.39s4.09-3.17,3.7-6.44C222.25,125.11,217,123.71,215.13,121.37Z"/><ellipse cx="219.59" cy="121.94" rx="3.19" ry="3.6" transform="translate(-7.1 13.76) rotate(-3.53)"/><path class="cls-10" d="M219.5,118.39a1.43,1.43,0,1,0,1.33-1.51A1.42,1.42,0,0,0,219.5,118.39Z"/><path class="cls-10" d="M217.52,124.18a.61.61,0,1,0,.57-.64A.6.6,0,0,0,217.52,124.18Z"/><path class="cls-18" d="M216.81,125.51a7.64,7.64,0,0,1-1-8.55,4.05,4.05,0,0,1,3-2.18c2.51-.3,4.88,2.17,5.28,5.52s-1.32,6.31-3.83,6.61a3,3,0,0,1-.42,0A4.22,4.22,0,0,1,216.81,125.51Zm2-10.42a3.76,3.76,0,0,0-2.79,2,7,7,0,0,0-.77,4.24,6.89,6.89,0,0,0,1.75,3.94,3.76,3.76,0,0,0,3.18,1.31c2.35-.28,3.94-3.09,3.56-6.26-.36-3-2.36-5.28-4.55-5.28A2.34,2.34,0,0,0,218.85,115.09Z"/><path class="cls-5" d="M224.53,101.61c-.21-1.3-1.55-5.1-5.19-5.31-3-.18-6.92,3-7.44,8.57C213.51,101.69,219.54,97.05,224.53,101.61Z"/><path class="cls-6" d="M224.53,101.61c-3.37-6.59-11.22-2.48-12.63,3.26C213.51,101.69,219.54,97.05,224.53,101.61Z"/><path d="M211.74,104.86a10.85,10.85,0,0,1,2.84-6.54,6.46,6.46,0,0,1,4.77-2.18c3.69.21,5.1,4,5.33,5.44l.07.45-.33-.31a6.47,6.47,0,0,0-5.73-1.75,10.23,10.23,0,0,0-6.65,5l-.38.74Zm12.54-3.67c-.4-1.59-1.8-4.55-4.95-4.74a6.19,6.19,0,0,0-4.53,2.09,10.28,10.28,0,0,0-2.65,5.59,10.68,10.68,0,0,1,6.48-4.47,7.85,7.85,0,0,1,1.26-.11A6.81,6.81,0,0,1,224.28,101.19Z"/><path class="cls-2" d="M174.31,166.68c-1.68,6.23-10.2,17.88-15.43,22.52-4.76,4.22-9.67,4.58-10.5,3.49-1.85,1.74-7.15,1.63-7.41-1.05-2.41.76-7-3-5.56-6.85-1.75,0-3.43-4.27-.62-6.61-1-1.38.66-6.86,7.48-8.78s17-2.51,25-5.57A44.74,44.74,0,0,1,174.31,166.68Z"/><path class="cls-3" d="M158,188.55c4.59-4,13.59-16,15.11-22.47.75.35,1.24.6,1.24.6-1.68,6.23-10.2,17.88-15.43,22.52-4.48,4-9.08,4.52-10.31,3.67C150.37,193.21,153.48,192.47,158,188.55Z"/><path class="cls-3" d="M134.84,178.32l2.55-1c7.55-2.84,25.23-9.49,31-13.1l-2.4-.11c-6.14,2.91-21,9.34-28.55,12.18-1.12.42-2.37.92-2.92,1.13Z"/><path class="cls-3" d="M135.53,184.89c1.44-1.5,7.05-4.49,13.54-8,7.65-4.07,16.32-8.7,20.79-12.28l-1.13-.65c-4,3.55-12.52,7.85-20.16,11.92-6.51,3.48-12.81,6.77-14.29,8.31Z"/><path class="cls-3" d="M141.06,191.78c2.62-1.66,23.13-19.3,30.29-26.41l-1.44-.49c-7.15,7.11-27.82,25.12-30.43,26.78Z"/><path class="cls-3" d="M148.47,192.81c1-.76,5.81-5.44,10.85-10.79,4.58-4.87,10.57-11.63,13.13-16.21l-1.22-.55c-2.55,4.55-8.16,11.06-12.72,15.91-5.35,5.69-11.07,11.79-11.88,12.43Z"/><path class="cls-4" d="M142.59,193.66a2.49,2.49,0,0,1-1.75-1.82c-1.22.27-2.92-.45-4.21-1.8a5.17,5.17,0,0,1-1.43-5.12,2.65,2.65,0,0,1-1.78-1.89,4.45,4.45,0,0,1,1.16-4.88,3.28,3.28,0,0,1,0-2.55,8.74,8.74,0,0,1,2.38-3.53,12.52,12.52,0,0,1,5.23-2.82,92,92,0,0,1,9.51-1.92c5.27-.9,10.72-1.82,15.48-3.64l.05,0h0a44.83,44.83,0,0,1,7.06,2.86l.11.06,0,.12c-.77,2.85-3.1,7.19-6.41,11.91A67.51,67.51,0,0,1,159,189.32c-3.46,3.07-7.19,4.23-9.35,4a2.27,2.27,0,0,1-1.26-.44,5.91,5.91,0,0,1-3.65,1.1A6.14,6.14,0,0,1,142.59,193.66Zm5.91-1.07a1.73,1.73,0,0,0,1.16.45c2.09.19,5.72-.95,9.11-4a66.74,66.74,0,0,0,9-10.63c3.23-4.62,5.53-8.87,6.32-11.69a43.76,43.76,0,0,0-6.83-2.76c-4.78,1.82-10.23,2.74-15.5,3.63a96.24,96.24,0,0,0-9.48,1.92c-4.34,1.22-6.67,4-7.39,6.15a2.79,2.79,0,0,0,0,2.38l.09.12-.11.1a4.12,4.12,0,0,0-1.18,4.62c.37,1,1.06,1.71,1.7,1.71h.23l-.08.21a4.8,4.8,0,0,0,1.3,5c1.27,1.34,2.94,2,4.07,1.67l.18-.05,0,.19a2.15,2.15,0,0,0,1.57,1.73,6.13,6.13,0,0,0,5.57-.78l.12-.12Z"/><path class="cls-4" d="M134.84,178.32l2.55-1c7.55-2.84,25.23-9.49,31-13.1l-.17-.27c-5.69,3.6-23.35,10.24-30.89,13.08l-2.55,1Z"/><path class="cls-4" d="M135.53,184.89c1.44-1.5,7.05-4.49,13.54-8,7.65-4.07,16.32-8.7,20.79-12.28l-.19-.24c-4.46,3.56-13.11,8.17-20.74,12.25-6.52,3.47-12.15,6.48-13.63,8Z"/><path class="cls-4" d="M141.06,191.78c2.62-1.66,23.13-19.3,30.29-26.41l-.22-.22c-7.16,7.1-27.63,24.71-30.24,26.36Z"/><path class="cls-4" d="M148.47,192.81c1-.76,5.81-5.44,10.85-10.79,4.58-4.87,10.57-11.63,13.13-16.21l-.27-.15c-2.54,4.55-8.52,11.29-13.09,16.14-5.35,5.69-10,10.12-10.81,10.77Z"/><path class="cls-5" d="M148.38,192.69c-1.85,1.74-7.15,1.63-7.41-1.05-2.41.76-7-3-5.56-6.85-1.75,0-3.43-4.27-.62-6.61-1-1.38.66-6.86,7.48-8.78.22-.07.44-.13.67-.18-3.71,2.66-5.85,5.67-4.75,7.67a3.26,3.26,0,0,0,.89,5.35c-.43,1.66.83,6,6,6.15.08,1.16,3.95,2.44,7.26.52.81,1,3.52,1.21,7.59-.73-.38.37-.74.71-1.09,1C154.12,193.42,149.21,193.78,148.38,192.69Z"/><path class="cls-6" d="M157.11,189.27a17.34,17.34,0,0,0,2.85-1.09l-.27.27a16.55,16.55,0,0,1-8.36,4.65,3.86,3.86,0,0,1-2.72-.21c.36,0,.73.06,1.09,0a6.14,6.14,0,0,0,1.35-.22,12.79,12.79,0,0,0,3.45-1.56A24,24,0,0,0,157.11,189.27Z"/><path class="cls-6" d="M134.84,178.32l-.06-.14h0l0,0-.21-.49a1.43,1.43,0,0,1,0-.22c.57-.22,1.78-.7,2.87-1.11l.54-.21a2.13,2.13,0,0,0,.26.77,3.25,3.25,0,0,0-.26.27l-.54.2Z"/><path class="cls-6" d="M135.31,184.78l-1-.52,0,0a22,22,0,0,1,3.81-2.59,2.65,2.65,0,0,0,1,.62,1.55,1.55,0,0,0,0,.21,19,19,0,0,0-3.51,2.44l-.13-.06v0Z"/><path class="cls-6" d="M145.12,188.39a.47.47,0,0,0,0,.16c-2,1.68-3.52,2.85-4.1,3.23H141a.69.69,0,0,0,0-.13,1.86,1.86,0,0,1-.48.09l-.82-.06-.16,0c.62-.41,2.16-1.64,4.26-3.39A10.58,10.58,0,0,0,145.12,188.39Z"/><path class="cls-6" d="M150.49,189.67a7,7,0,0,0,1.89-.76l.1.11c-2,2-3.49,3.38-4,3.78a.38.38,0,0,1-.11-.11,3.38,3.38,0,0,1-.51.38l-1.24.52h0C147,193.29,148.48,191.78,150.49,189.67Z"/><path d="M142.59,193.66a2.49,2.49,0,0,1-1.75-1.82c-1.22.27-2.92-.45-4.21-1.8a5.17,5.17,0,0,1-1.43-5.12,2.65,2.65,0,0,1-1.78-1.89,4.45,4.45,0,0,1,1.16-4.88,3.28,3.28,0,0,1,0-2.55,8.74,8.74,0,0,1,2.38-3.53,12.52,12.52,0,0,1,5.23-2.82c.21-.07.44-.13.67-.19l.81-.21-.68.49a16,16,0,0,0-4.14,4c-.86,1.34-1.06,2.53-.57,3.43l.06.11-.09.08a3.06,3.06,0,0,0-.91,2.91,2.8,2.8,0,0,0,1.75,2.17l.14,0,0,.14a4.84,4.84,0,0,0,1,3.69,6,6,0,0,0,4.88,2.26h.14v.14c0,.26.3.55.76.8a6.9,6.9,0,0,0,6.27-.4l.11-.06.09.1c.82,1,3.62,1,7.4-.77l.85-.41-.68.66c-.38.38-.75.72-1.09,1-3.46,3.07-7.19,4.23-9.35,4a2.27,2.27,0,0,1-1.26-.44,5.91,5.91,0,0,1-3.65,1.1A6.14,6.14,0,0,1,142.59,193.66Zm5.91-1.07a1.73,1.73,0,0,0,1.16.45c2.09.19,5.72-.95,9.11-4l.42-.38c-3.51,1.49-5.95,1.29-6.85.41a7.21,7.21,0,0,1-6.46.33,1.63,1.63,0,0,1-.89-.9,6.27,6.27,0,0,1-5-2.38,5.26,5.26,0,0,1-1.09-3.82,3.15,3.15,0,0,1-1.83-2.36,3.41,3.41,0,0,1,.92-3.12c-.89-1.85.69-4.58,4.18-7.27-4.25,1.24-6.53,4-7.25,6.11a2.79,2.79,0,0,0,0,2.38l.09.12-.11.1a4.12,4.12,0,0,0-1.18,4.62c.37,1,1.06,1.71,1.7,1.71h.23l-.08.21a4.8,4.8,0,0,0,1.3,5c1.27,1.34,2.94,2,4.07,1.67l.18-.05,0,.19a2.15,2.15,0,0,0,1.57,1.73c1.77.67,4.42.3,5.57-.79l.12-.11Z"/><path d="M137.28,177.07l.83-.31c0,.11,0,.22,0,.33l-.72.27-2.55,1-.11-.29Z"/><path d="M139,182.13a1.11,1.11,0,0,0,.09.31,19.08,19.08,0,0,0-3.52,2.45l-.23-.21A20.05,20.05,0,0,1,139,182.13Z"/><path d="M144.93,188.34a2.28,2.28,0,0,0,.22.22c-2,1.67-3.51,2.84-4.09,3.22l-.17-.27C141.47,191.14,142.93,190,144.93,188.34Z"/><path d="M152.53,189c-2,2-3.56,3.44-4.06,3.83l-.19-.24c.41-.33,1.82-1.64,3.8-3.59Z"/><path class="cls-3" d="M176.58,166.76a8.8,8.8,0,0,1-8,.13c-4.1-1.79-2.18-5.22-2.18-5.22Z"/><path class="cls-4" d="M172.81,168a8.65,8.65,0,0,0,.88,0,7.2,7.2,0,0,0,.88-.12,3.31,3.31,0,0,0,2-1.05,9,9,0,0,1-7.94,0,4.11,4.11,0,0,1-2.42-2.28,4,4,0,0,1,.17-2.8,2.42,2.42,0,0,0-.68,1.59,3.73,3.73,0,0,0,.21,1.31,4.45,4.45,0,0,0,2.59,2.47A10.77,10.77,0,0,0,172.81,168Z"/><path class="cls-2" d="M160.35,125.88s-8.84-7.5-15.11-10.76-14.05-4-15.24,0c-4.64-.82-10.67,5.08-9,9.59-2.57,1.32-5.14,7-2.88,10.79-1.69,1.76-2,8.66,3,11.67-1.19,2,.79,6.71,5.07,8.18-.18,2.17,3.86,8.1,11,7.39,1.15,2.06,7.09,3.91,14.07-.87,8.28-5.67,12.61-17.33,12.61-17.33Z"/><path class="cls-3" d="M149.06,161.67c7.49-5,13-15.22,14.29-19.61l.46,2.48s-4.33,11.66-12.61,17.33c-4.43,3-8.44,3.4-11.07,2.73C142,164.8,145.17,164.27,149.06,161.67Z"/><path class="cls-3" d="M160.93,129.5l-.14-1.8c-1.31-.81-25.08-11.75-30.15-13.8l-.71,1.36C134.2,117.25,160.66,129.38,160.93,129.5Z"/><path class="cls-3" d="M161.78,134l.07-2.23c-7.51-1.56-40.8-8.61-41.13-8.68l.21,1.83C121.26,124.94,154.27,132.38,161.78,134Z"/><path class="cls-3" d="M162.52,137.78v-.31c-.67,0-2.55-1.6-5.08-1.69-10.59-.38-36-.94-40-1.6l.61,1.48c4,.67,28.85,1.56,39.44,1.94Z"/><path class="cls-3" d="M121.09,147.33c7.94,0,41.6-7,41.93-7l-2.27-1.67c-.34.07-33.5,7.13-41.41,7.16Z"/><path class="cls-3" d="M126.18,155.51c9-1.42,36.91-13.39,37.19-13.51l-1-1.83c-.28.12-28.57,13.09-37.55,14.5Z"/><path class="cls-3" d="M137.19,162.89c4.34-1.7,11.3-7,16.38-11.08,5.5-4.46,10-8.57,10.07-8.61l-1.79-.89c-.18.16-18.71,16.78-26.34,20.49Z"/><path class="cls-4" d="M140.23,164.79a5.15,5.15,0,0,1-3.19-1.88,10.73,10.73,0,0,1-8.64-3,7,7,0,0,1-2.4-4.4,8.56,8.56,0,0,1-5-5,4.27,4.27,0,0,1-.08-3.27,8.91,8.91,0,0,1-4-6.53c-.28-2.11.13-4.23,1-5.21a7.73,7.73,0,0,1-.45-6,8.47,8.47,0,0,1,3.33-4.86,5.24,5.24,0,0,1,0-3.16,8.76,8.76,0,0,1,1.72-3.11c2-2.42,5-3.78,7.39-3.43a3.57,3.57,0,0,1,2.13-2.16c2.94-1.24,8.41-.34,13.29,2.2,6.22,3.23,15.05,10.7,15.14,10.78l0,0L164,144.55l0,0a47.19,47.19,0,0,1-3.21,6.57c-1.94,3.32-5.15,7.9-9.45,10.84a17.38,17.38,0,0,1-6.17,2.76,12.4,12.4,0,0,1-2.61.28A10,10,0,0,1,140.23,164.79Zm20-38.83c-.67-.56-9.07-7.6-15-10.71-4.81-2.49-10.17-3.39-13-2.18a3.29,3.29,0,0,0-2,2.09l0,.13-.14,0c-2.32-.41-5.22.92-7.23,3.31-1.67,2-2.28,4.26-1.63,6.08l0,.13-.12.06a8,8,0,0,0-3.3,4.74,7.39,7.39,0,0,0,.47,5.83l.06.11-.08.08c-.84.88-1.24,2.95-1,5a8.64,8.64,0,0,0,4,6.39l.13.08-.08.13a3.79,3.79,0,0,0,0,3.14,8.25,8.25,0,0,0,4.95,4.82l.12,0v.12c-.08.92.69,2.68,2.3,4.27a10.43,10.43,0,0,0,8.49,3h.11l.05.09a4.68,4.68,0,0,0,3,1.81c1.52.36,5.63.81,10.8-2.74,4.25-2.91,7.44-7.44,9.36-10.74a46.43,46.43,0,0,0,3.17-6.48Z"/><path class="cls-4" d="M160.93,129.5l.13-.29c-.27-.12-26.72-12.25-31-14.24l-.13.29C134.2,117.25,160.66,129.38,160.93,129.5Z"/><path class="cls-4" d="M161.78,134l.07-.31c-7.51-1.57-40.52-9-40.85-9.08l-.07.31C121.26,124.94,154.27,132.38,161.78,134Z"/><path class="cls-4" d="M162.52,137.78v-.31l-5-.19c-10.59-.38-35.39-1.27-39.4-1.93l0,.31c4,.67,28.85,1.56,39.44,1.94Z"/><path class="cls-4" d="M121.09,147.33c7.94,0,41.6-7,41.93-7L163,140c-.34.07-34,7-41.87,7Z"/><path class="cls-4" d="M126.18,155.51c9-1.42,36.91-13.39,37.19-13.51l-.12-.28c-.28.12-28.14,12.06-37.11,13.48Z"/><path class="cls-4" d="M137.19,162.89c4.34-1.7,11.3-7,16.38-11.08,5.5-4.46,10-8.57,10.07-8.61l-.21-.23c-.18.16-18.12,16.4-26.36,19.63Z"/><path class="cls-5" d="M137.13,162.74c-7.11.71-11.15-5.22-11-7.39-4.28-1.47-6.26-6.17-5.07-8.18-5-3-4.7-9.91-3-11.67-2.26-3.82.31-9.47,2.88-10.79-1.63-4.51,4.4-10.41,9-9.59,1.19-4,9-3.27,15.24,0,1.11.57,2.3,1.28,3.51,2.06-5.46-1.34-10.54-.92-10.8,1.6-4.63-.59-11.26,1.47-10.45,7.4-4.4,1-5.09,7.36-2.65,9.88a6.15,6.15,0,0,0,1.65,10.64c-1.46,2.54,1.11,6.68,5.14,7.29-.07,3.22,4.5,5.91,10.84,5.85.82,1.47,4.18,2.85,9,1.83l-.29.2C144.22,166.65,138.28,164.8,137.13,162.74Z"/><path class="cls-6" d="M148.52,162a16.57,16.57,0,0,0,3-.35,18.1,18.1,0,0,1-5.6,2.73,11,11,0,0,1-5.7.21,13.33,13.33,0,0,0,7.59-2.14Z"/><path class="cls-6" d="M130.6,114l.06-.07c1.48.6,4.49,1.93,8.08,3.54a1.89,1.89,0,0,0-.79,1.33l-.49,0-7.53-3.47Z"/><path class="cls-6" d="M120.92,124.74l0,0c0-.08,0-.16-.08-.24l-.16-1.43,6.75,1.43a6.58,6.58,0,0,0,0,1.71l-.33.09-6.24-1.4Z"/><path class="cls-6" d="M118,135.57l.06-.07a5.6,5.6,0,0,1-.57-1.31c1,.16,3.36.32,6.44.47a4.81,4.81,0,0,0,.9,1.4l-.17.14c-3.19-.19-5.59-.37-6.63-.54Z"/><path class="cls-6" d="M120.22,146.56l-.49-.43c-.12-.11-.23-.23-.34-.34a46,46,0,0,0,5-.44,7.9,7.9,0,0,0,2.11,1.35l-.09.17a51.17,51.17,0,0,1-5.32.46l-.06-.05.06-.11A7.93,7.93,0,0,1,120.22,146.56Z"/><path class="cls-6" d="M129.76,153.41a6.54,6.54,0,0,0,1.88.58v.16a43.78,43.78,0,0,1-5.46,1.36l0,0c0-.05,0-.09,0-.14-.23-.07-.45-.17-.67-.26l-.68-.42A36.32,36.32,0,0,0,129.76,153.41Z"/><path class="cls-6" d="M142.48,159.84l.08.13a32.91,32.91,0,0,1-5.35,2.91,1,1,0,0,1-.08-.14,10.86,10.86,0,0,1-1.6,0,40.51,40.51,0,0,0,4.92-3C141.1,159.82,141.78,159.84,142.48,159.84Z"/><path d="M140.23,164.79a5.15,5.15,0,0,1-3.19-1.88,10.73,10.73,0,0,1-8.64-3,7,7,0,0,1-2.4-4.4,8.56,8.56,0,0,1-5-5,4.27,4.27,0,0,1-.08-3.27,8.91,8.91,0,0,1-4-6.53c-.28-2.11.13-4.23,1-5.21a7.73,7.73,0,0,1-.45-6,8.47,8.47,0,0,1,3.33-4.86,5.24,5.24,0,0,1,0-3.16,8.76,8.76,0,0,1,1.72-3.11c2-2.42,5-3.78,7.39-3.43a3.57,3.57,0,0,1,2.13-2.16c2.94-1.24,8.41-.34,13.29,2.2,1.05.54,2.23,1.24,3.52,2.07l.79.51-.91-.23c-4.3-1-8.14-1-9.78.17a1.79,1.79,0,0,0-.82,1.3l0,.16-.16,0c-2.81-.36-6.61.25-8.78,2.43a5.45,5.45,0,0,0-1.5,4.79l0,.14-.14,0a5,5,0,0,0-3.62,3.63,6.32,6.32,0,0,0,1.06,6l.12.12-.14.11a6.36,6.36,0,0,0-2.28,5.59,6.12,6.12,0,0,0,3.89,4.79l.16.07-.09.15a3.72,3.72,0,0,0,.09,3.47,6.72,6.72,0,0,0,4.94,3.58l.14,0V154a3.82,3.82,0,0,0,1.22,2.75c1.86,1.88,5.39,3,9.46,2.94h.09l.05.08c.74,1.34,4,2.78,8.84,1.76l.74-.16-.62.44-.29.2a17.38,17.38,0,0,1-6.17,2.76,12.4,12.4,0,0,1-2.61.28A10,10,0,0,1,140.23,164.79Zm5.21-2.95a5,5,0,0,1-3.05-1.84h-.12c-4.06,0-7.59-1.13-9.47-3a4.17,4.17,0,0,1-1.32-2.84,6.93,6.93,0,0,1-5-3.73,4.08,4.08,0,0,1-.16-3.62,6.36,6.36,0,0,1-3.92-5,6.7,6.7,0,0,1,2.26-5.76,6.74,6.74,0,0,1-1-6.16,5.29,5.29,0,0,1,3.71-3.82,5.69,5.69,0,0,1,1.61-4.91c2.2-2.22,6-2.87,8.89-2.54a2.14,2.14,0,0,1,.93-1.37c1.59-1.12,5.12-1.27,9.14-.41-1-.62-1.9-1.15-2.72-1.58-4.81-2.49-10.17-3.39-13-2.18a3.29,3.29,0,0,0-2,2.09l0,.13-.14,0c-2.32-.41-5.22.92-7.23,3.31-1.67,2-2.28,4.26-1.63,6.08l0,.13-.12.06a8,8,0,0,0-3.3,4.74,7.39,7.39,0,0,0,.47,5.83l.06.11-.08.08c-.84.88-1.24,2.95-1,5a8.64,8.64,0,0,0,4,6.39l.13.08-.08.13a3.79,3.79,0,0,0,0,3.14,8.25,8.25,0,0,0,4.95,4.82l.12,0v.12c-.08.92.69,2.68,2.3,4.27a10.42,10.42,0,0,0,7.35,3,11.11,11.11,0,0,0,1.14,0h.11l.05.09a4.68,4.68,0,0,0,3,1.81c1.49.35,5.45.79,10.48-2.52A12.81,12.81,0,0,1,145.44,161.84Z"/><path d="M137.36,118.68l-7.43-3.42.13-.29c1.23.58,4.3,2,8,3.71Z"/><path d="M127.36,126.31l-6.43-1.44.07-.31,6.39,1.44A.34.34,0,0,1,127.36,126.31Z"/><path d="M124.78,136.09l0,0-.06.09c-3.22-.19-5.65-.38-6.7-.55l0-.31c1,.17,3.39.35,6.51.54A1.06,1.06,0,0,0,124.78,136.09Z"/><path d="M126.35,146.56s0,.06,0,.09,0,.14.07.21a49.52,49.52,0,0,1-5.34.47V147A47,47,0,0,0,126.35,146.56Z"/><path d="M131.34,153.91a1.81,1.81,0,0,0,.37.22,46.38,46.38,0,0,1-5.53,1.38l0-.31A41.68,41.68,0,0,0,131.34,153.91Z"/><path d="M142.57,159.59a.52.52,0,0,0,.15.27,33.61,33.61,0,0,1-5.53,3l-.12-.29A33.24,33.24,0,0,0,142.57,159.59Z"/><path class="cls-2" d="M160.47,123.44c-1.87,2.1-6,7.24-4.79,14.19,1.35,7.72,9.55,10.25,9.55,10.25Z"/><path class="cls-4" d="M165.23,147.88a17.07,17.07,0,0,1-4.21-2.29,12.82,12.82,0,0,1-5.19-8c-1.19-6.77,2.69-11.68,4.55-14l.09-.12a5.21,5.21,0,0,0-1.43,1.35c-2,2.71-4.52,7.12-3.52,12.86a13.15,13.15,0,0,0,5.32,8.2,20.08,20.08,0,0,0,1.88,1.21A6.21,6.21,0,0,0,165.23,147.88Z"/></svg>