<svg id="Layer_6" data-name="Layer 6" xmlns="http://www.w3.org/2000/svg" viewBox="0 0 260 250"><defs><style>.cls-1{fill:#eeebda;}.cls-2{fill:#434444;}.cls-3{fill:#e0e0e0;}.cls-4{fill:#20aac9;}.cls-5{fill:#6b6b6b;}.cls-6{fill:#fff;}.cls-10,.cls-7,.cls-8,.cls-9{fill:none;stroke:#636363;stroke-miterlimit:10;}.cls-7{stroke-width:1.54px;}.cls-8{stroke-width:1.24px;}.cls-9{stroke-width:0.77px;}.cls-10{stroke-width:1.15px;}</style></defs><rect class="cls-1" x="-0.04" y="-0.19" width="260" height="250"/><path class="cls-2" d="M172.69,216.56c0,14.12-19.78,20.32-44.17,20.32s-44.23-6.2-44.23-20.32a14.52,14.52,0,0,1,.15-2.1c1.85,12.68,20.89,18.27,44.08,18.27s42.18-5.59,44-18.27A14.52,14.52,0,0,1,172.69,216.56Z"/><path class="cls-3" d="M172.54,214.46c-1.84,12.68-20.86,18.27-44,18.27s-42.23-5.59-44.08-18.27C86.29,201.31,105.33,191,128.52,191S170.7,201.31,172.54,214.46Z"/><path class="cls-4" d="M172.54,214.46c-1.84,12.68-20.86,18.27-44,18.27s-42.23-5.59-44.08-18.27C86.29,201.31,105.33,191,128.52,191S170.7,201.31,172.54,214.46Z"/><path class="cls-5" d="M153.81,202.08c0,8.48-11.33,22.22-25.29,22.22s-25.32-13.74-25.32-22.22c0-4.83,3.69-7.69,9.44-9.25a7.49,7.49,0,0,0,5.41-7l4.37-95.26h12.17L139,185.88a7.47,7.47,0,0,0,5.41,6.94C150.12,194.38,153.81,197.25,153.81,202.08Z"/><path class="cls-6" d="M135.23,202.88c0,1.68-3,3-6.72,3s-6.73-1.36-6.73-3,3-3,6.73-3S135.23,201.2,135.23,202.88Z"/><path class="cls-6" d="M121.3,209.05a1.68,1.68,0,1,1-1.68-1.69A1.68,1.68,0,0,1,121.3,209.05Z"/><path class="cls-6" d="M127.22,209.05a1.68,1.68,0,1,1-1.68-1.69A1.68,1.68,0,0,1,127.22,209.05Z"/><path class="cls-6" d="M133.15,209.05a1.68,1.68,0,1,1-1.68-1.69A1.68,1.68,0,0,1,133.15,209.05Z"/><path class="cls-6" d="M139.08,209.05a1.69,1.69,0,1,1-1.69-1.69A1.69,1.69,0,0,1,139.08,209.05Z"/><path class="cls-4" d="M125,86.94c-4.65-3.44-14-10.78-17.47-22.42a19.51,19.51,0,0,1,.1-11.93c3.51-10.13,20.3-14.35,33-11.64,10.89,2.32,21.15,10.24,20.42,15.27-1,6.58-8.21,7.82-15.84,11.64s-6.88,10.65-7.64,17.56Z"/><path class="cls-4" d="M137.33,83.54c5.44-2,16.75-5.69,28.34-2.08a19.44,19.44,0,0,1,9.87,6.7c6.48,8.54.67,24.85-8.64,33.92-8,7.78-20.25,11.92-24,8.52-5-4.45-2-11.17-.9-19.64s-5-11.64-10.37-16.1Z"/><path class="cls-4" d="M131.29,92.81c-.27,5.77-1.14,17.66-8.89,27a19.56,19.56,0,0,1-10,6.56c-10.37,2.73-23.23-8.86-28.06-20.93C80.24,95.1,81.1,82.17,85.68,80c6-2.87,11.07,2.46,18.49,6.67s12.68-.22,18.84-3.44Z"/><path class="cls-6" d="M141.74,88.66A11.64,11.64,0,1,1,130.1,77,11.64,11.64,0,0,1,141.74,88.66Z"/><path class="cls-6" d="M137.73,88.66A7.64,7.64,0,1,1,130.1,81,7.64,7.64,0,0,1,137.73,88.66Z"/><circle class="cls-7" cx="130" cy="89.01" r="67.58" transform="translate(-24.87 118) rotate(-45)"/><circle class="cls-8" cx="130" cy="89.01" r="54.34" transform="translate(-24.87 118) rotate(-45)"/><line class="cls-9" x1="130" y1="21.43" x2="130" y2="89.01"/><line class="cls-9" x1="120.59" y1="22.09" x2="130" y2="89.01"/><line class="cls-9" x1="111.37" y1="24.05" x2="130" y2="89.01"/><line class="cls-9" x1="102.51" y1="27.27" x2="130" y2="89.01"/><line class="cls-9" x1="94.19" y1="31.7" x2="130" y2="89.01"/><line class="cls-9" x1="86.56" y1="37.24" x2="130" y2="89.01"/><line class="cls-9" x1="79.78" y1="43.79" x2="130" y2="89.01"/><line class="cls-9" x1="73.97" y1="51.22" x2="130" y2="89.01"/><line class="cls-9" x1="69.26" y1="59.39" x2="130" y2="89.01"/><line class="cls-9" x1="65.72" y1="68.13" x2="130" y2="89.01"/><line class="cls-9" x1="63.44" y1="77.28" x2="130" y2="89.01"/><line class="cls-9" x1="62.46" y1="86.66" x2="130" y2="89.01"/><line class="cls-9" x1="62.79" y1="96.08" x2="130" y2="89.01"/><line class="cls-9" x1="64.42" y1="105.36" x2="130" y2="89.01"/><line class="cls-9" x1="67.34" y1="114.33" x2="130" y2="89.01"/><line class="cls-9" x1="71.47" y1="122.81" x2="130" y2="89.01"/><line class="cls-9" x1="76.74" y1="130.62" x2="130" y2="89.01"/><line class="cls-9" x1="83.05" y1="137.63" x2="130" y2="89.01"/><line class="cls-9" x1="90.28" y1="143.69" x2="130" y2="89.01"/><line class="cls-9" x1="98.27" y1="148.69" x2="130" y2="89.01"/><line class="cls-9" x1="106.89" y1="152.52" x2="130" y2="89.01"/><line class="cls-9" x1="115.95" y1="155.12" x2="130" y2="89.01"/><line class="cls-9" x1="125.29" y1="156.43" x2="130" y2="89.01"/><line class="cls-9" x1="134.71" y1="156.43" x2="130" y2="89.01"/><line class="cls-9" x1="144.05" y1="155.12" x2="130" y2="89.01"/><line class="cls-9" x1="153.11" y1="152.52" x2="130" y2="89.01"/><line class="cls-9" x1="161.73" y1="148.69" x2="130" y2="89.01"/><line class="cls-9" x1="169.72" y1="143.69" x2="130" y2="89.01"/><line class="cls-9" x1="176.95" y1="137.63" x2="130" y2="89.01"/><line class="cls-9" x1="183.26" y1="130.62" x2="130" y2="89.01"/><line class="cls-9" x1="188.53" y1="122.81" x2="130" y2="89.01"/><line class="cls-9" x1="192.66" y1="114.33" x2="130" y2="89.01"/><line class="cls-9" x1="195.58" y1="105.36" x2="130" y2="89.01"/><line class="cls-9" x1="197.21" y1="96.08" x2="130" y2="89.01"/><line class="cls-9" x1="197.54" y1="86.66" x2="130" y2="89.01"/><line class="cls-9" x1="196.56" y1="77.28" x2="130" y2="89.01"/><line class="cls-9" x1="194.28" y1="68.13" x2="130" y2="89.01"/><line class="cls-9" x1="190.74" y1="59.39" x2="130" y2="89.01"/><line class="cls-9" x1="186.03" y1="51.22" x2="130" y2="89.01"/><line class="cls-9" x1="180.22" y1="43.79" x2="130" y2="89.01"/><line class="cls-9" x1="173.44" y1="37.24" x2="130" y2="89.01"/><line class="cls-9" x1="165.81" y1="31.7" x2="130" y2="89.01"/><line class="cls-9" x1="157.49" y1="27.27" x2="130" y2="89.01"/><line class="cls-9" x1="148.63" y1="24.05" x2="130" y2="89.01"/><line class="cls-9" x1="139.41" y1="22.09" x2="130" y2="89.01"/><circle class="cls-10" cx="130" cy="89.01" r="50.66"/><circle class="cls-5" cx="130.11" cy="88.45" r="7.69"/></svg>