<svg xmlns="http://www.w3.org/2000/svg" viewBox="0 0 260 250"><defs><style>.cls-1{isolation:isolate;}.cls-2,.cls-3{fill:#8e6852;}.cls-12,.cls-3,.cls-9{mix-blend-mode:multiply;}.cls-3{opacity:0.22;}.cls-4{fill:#efefef;}.cls-5{fill:#e6a7a7;}.cls-6{fill:#f6f7f7;}.cls-7{fill:#e9eaeb;}.cls-8{fill:none;}.cls-10{fill:#8b826f;}.cls-11{fill:#d38467;}.cls-12{opacity:0.35;}.cls-13{fill:#342b27;}.cls-14{fill:#e2e2e2;}</style></defs><g class="cls-1"><g id="Layer_24" data-name="Layer 24"><rect class="cls-2" width="260" height="250"/><path class="cls-3" d="M209.59,221.28c0,7.14-32.76,14.62-73.12,14.62s-73-7.48-73-14.62,32.71-12.93,73.07-12.93S209.59,214.14,209.59,221.28Z"/><path class="cls-4" d="M120,156.86c-5,3-8,8.41-9.47,13.91a40.27,40.27,0,0,0,5.32,32.57,32.8,32.8,0,0,0-14.64,1.74c-2.81,1-5.84,2.95-5.91,5.85,0,2.36,2,4.31,4.13,5.42,3.3,1.69,7.12,2.12,10.85,2.36a121.1,121.1,0,0,0,24.37-1c7.25-1,20.76-.48,26.21-5.2,4.94-4.29,9.77-6.77,9.17-40.31"/><path class="cls-5" d="M187.19,171.18c2.27-2.25,5.29-4.7,8.3-3.62a5.75,5.75,0,0,1,3.31,3.86,17.28,17.28,0,0,1,.47,5.23c2.32-1.92,6.25-.88,7.71,1.75a7,7,0,0,1-1.63,8.2,2.21,2.21,0,0,1,2.9,1.34,4.67,4.67,0,0,1-.36,3.52,11.86,11.86,0,0,1-18.61,4.24"/><path class="cls-6" d="M143.13,16.13a92.21,92.21,0,0,1-17,53.47l-.9,1.24-15.12,4.1a47.94,47.94,0,0,1-1.18-8,66,66,0,0,1-.17-6.8c.15-6.66,1.23-13.38,3.7-17.17,4.55-7,10.93-12.57,17.3-17.95,2.71-2.27,5.42-4.55,8.14-6.8l.7-.58C139.9,16.53,141.62,15.4,143.13,16.13Z"/><path class="cls-7" d="M143.13,16.13a92.21,92.21,0,0,1-17,53.47l-.46-.21c-3.55-1.56-7.57-1.39-11.45-1.63a23.84,23.84,0,0,1-5.29-.86,10.78,10.78,0,0,1-5.26-3.23c-.19-.23,2.34-1.87,5.09-3.57s6-3.58,6.45-3.9c4.19-2.82,7.23-6.77,10.33-10.75,5.4-6.91,10.29-14.61,11.72-23.27.22-1.32.35-2.68.64-4l.7-.58C139.9,16.53,141.62,15.4,143.13,16.13Z"/><path class="cls-6" d="M193,200.33c-3.47,12.14-16.27,15.58-27.63,17-7.29.89-14.56.14-21.79.79a47.9,47.9,0,0,1-23.81-3.7c-11.08-4.87-19.88-14-25.4-26.06a67.9,67.9,0,0,1-2.7-6.86c-4.59-13.85-5.18-28.67-4.91-43.14.09-5.18,2.79-10.13-2.33-13.7-3.92-2.72-8.19-5-11.72-8.15s-6.38-7.59-6.25-12.35c.1-3.3,2.13-6.14,3.19-9.26A59.76,59.76,0,0,1,81.55,75c1.8-2.07,3.62-4.07,5.36-6.19a3.6,3.6,0,0,1,1.9-1.45.14.14,0,0,1,.14,0s0,.09,0,.15l0,1.22a.48.48,0,0,0,.09.35c.37.39,1.47-1.45,1.69-1.71A28.85,28.85,0,0,1,93,65.05a15.66,15.66,0,0,1,5.2-3.47c.13,0,.31-.09.41,0a.35.35,0,0,1,.07.25A2.45,2.45,0,0,1,98.34,63c-.06.11-.12.24,0,.34s.24.09.37,0c1-.3,1.87-.71,2.83-1.06a41.38,41.38,0,0,1,8.19-2.17,30,30,0,0,1,5.36-.32c9.68.35,18.89,7,24,15,4.35,6.87,6.48,17.49,6.35,25.24-.07,5.06-3.32,8.88-2.45,10.62.66,1.31,3.62,2.15,4.81,2.73,3.63,1.76,7.23,3.56,10.72,5.6,10.1,5.9,19.29,13.61,25.73,23.46,2.58,3.95,5.43,7.68,8,11.65.12.2.25.45.12.65a.65.65,0,0,1-.43.2l-1.16.2,2.2,3.48a3.52,3.52,0,0,1,.71,1.83c0,.66-.57,1.35-1.23,1.24C195.73,173.87,196.43,188.18,193,200.33Z"/><path class="cls-6" d="M120.41,70.68c-.88-7.25,1.85-14.58,6.1-20.42s9.91-10.39,15.65-14.67q9.94-7.41,20.42-14c1.52-.95,3.46-1.91,5-.95a4,4,0,0,1,1.5,2.3c1.07,3.62-.26,7.48-1.57,11L160.8,52c-2.06,5.57-4.28,11.38-8.64,15.3-5.93,5.33-15.46,6.89-18.56,14.35"/><path class="cls-7" d="M167.48,34,160.8,52c-2.06,5.57-4.27,11.37-8.64,15.29-5.81,5.22-7.33,6.25-13.16,8,2.95-1.59,9.25-9.44,11.31-15,2.23-6,2.75-15,5-21.06,1.31-3.53,2.63-7.39,1.56-11a4.07,4.07,0,0,0-1.24-2.12c2.3-1.54,4.62-3,7-4.52,1.53-1,3.47-1.9,5-.95a4,4,0,0,1,1.5,2.31C170.12,26.55,168.79,30.41,167.48,34Z"/><path class="cls-5" d="M120.34,103.17c0,2.6-3.18,4.7-7.11,4.7s-7.12-2.1-7.12-4.7,3.19-4.7,7.12-4.7S120.34,100.57,120.34,103.17Z"/><path class="cls-6" d="M143.2,164.47c-5,3-8,8.41-9.46,13.91A40.19,40.19,0,0,0,139.06,211a32.8,32.8,0,0,0-14.64,1.74c-2.82,1-5.85,2.95-5.91,5.85-.05,2.37,2,4.31,4.13,5.42,3.3,1.69,7.12,2.13,10.85,2.36a160.77,160.77,0,0,0,42.11-3.12c20.19-4.39,19-27.48,18.67-43.8"/><path class="cls-8" d="M104.68,143.7a145.66,145.66,0,0,0-36.33,24.76c-2,1.84-3.94,3.8-5,6.3s-.84,5.67,1.11,7.53a9.51,9.51,0,0,0,5,2.06,56.75,56.75,0,0,0,45.08-11.68"/><path class="cls-5" d="M134.48,69.48c5.43-2.19,6.39-4.26,9.59-7.13,2.35-2.11,3.54-5.24,4.65-8.24l3.6-9.72c.71-1.91,1.42-4,.84-5.94a2.11,2.11,0,0,0-.8-1.24c-.82-.51-1.86,0-2.68.51q-5.64,3.56-11,7.55a38.57,38.57,0,0,0-8.43,7.9,15.83,15.83,0,0,0-3.28,11,11.69,11.69,0,0,1,4.35,2.36C132.16,67.21,134.48,69.48,134.48,69.48Z"/><path class="cls-6" d="M87.76,127.54C87.2,145.7,74.39,153,66.93,164.46c-1.87,2.86-3.88,5.84-4.08,9.25a8,8,0,0,0,2.71,6.37c2.16,1.58,5.62.75,8,.2-.55,2.52-1.08,5.25,0,7.58,1.36,2.84,4.84,4.13,8,4s6.11-1.47,9.08-2.53l.07,0c.56-.18,3.52-1.05,3.66-.84,6,8.66,11.06,17.39,19.93,23.15l.39.24"/><g class="cls-9"><path class="cls-10" d="M75,102.77c6-2.11,12.61-1.72,18.9-1.38.4,0,.4-.61,0-.63-6.38-.3-12.88-.51-19,1.7-.2.07-.11.38.08.31Z"/></g><g class="cls-9"><path class="cls-10" d="M77.34,105.52a63.32,63.32,0,0,1,16.34,3.12c.34.11.48-.42.14-.53a57.79,57.79,0,0,0-16.48-3c-.25,0-.25.37,0,.38Z"/></g><g class="cls-9"><path class="cls-10" d="M75.65,107.31c5.35,3.41,10.74,6.94,14.79,11.9.32.39.87-.17.56-.56-4.09-5-9.71-8.36-15.17-11.65-.2-.12-.37.19-.18.31Z"/></g><g class="cls-9"><path class="cls-10" d="M51.29,99c4.87.44,8.94,3.29,12.95,5.83.3.2.57-.27.28-.47-3.95-2.74-8.32-5.36-13.23-5.67-.2,0-.19.29,0,.31Z"/></g><g class="cls-9"><path class="cls-10" d="M50.46,109.52a43.41,43.41,0,0,1,6.7-1.92,56.19,56.19,0,0,1,7.07-.88.25.25,0,0,0,0-.49,37,37,0,0,0-13.86,3c-.21.09-.12.42.09.34Z"/></g><g class="cls-9"><path class="cls-10" d="M52.29,116.54c3.2-3.54,7.43-6,11.45-8.48a.24.24,0,0,0-.24-.41c-4.17,2.42-8.24,5-11.4,8.7-.11.13.08.32.19.19Z"/></g><path class="cls-11" d="M67.09,101.21c-2.15-.13-5.07.23-5.55,2.52a3.47,3.47,0,0,0,1.07,2.81,6.6,6.6,0,0,0,.76.64,13.9,13.9,0,0,0,2.21,1.35,2.85,2.85,0,0,0,2.41-.21,6.81,6.81,0,0,0,3.17-2.7c1.19-2.25-1.06-4-3.06-4.31C67.8,101.27,67.45,101.23,67.09,101.21Z"/><g class="cls-12"><path class="cls-11" d="M71.17,105.62A7,7,0,0,1,68,108.33a2.88,2.88,0,0,1-2.41.2,16.2,16.2,0,0,1-1.76-1,3.4,3.4,0,0,0,2-.35A6.88,6.88,0,0,0,69,104.44a2.46,2.46,0,0,0-.5-3.07C70.36,101.8,72.28,103.5,71.17,105.62Z"/></g><path class="cls-13" d="M107.83,94.74a9.24,9.24,0,0,1-.39,1.19c-1.24,3-3.62,4.27-6.34,3.76-3.11-.58-4.34-4-2.95-7.34s5.48-4.81,8.22-3.2C108,90.08,108.33,92.84,107.83,94.74Z"/><path class="cls-6" d="M103.07,94a1.75,1.75,0,1,1-1.73-2A1.87,1.87,0,0,1,103.07,94Z"/><path class="cls-14" d="M86.52,126.63a26.79,26.79,0,0,0,5.89,3.52,19.39,19.39,0,0,0,7,1.3c4.81.05,9.65-1.33,14.15-2.89a.69.69,0,0,0-.37-1.33c-4.45,1.2-8.9,2.62-13.55,2.7A18.94,18.94,0,0,1,93,129a38.43,38.43,0,0,1-6.12-2.89.3.3,0,0,0-.31.52Z"/><path class="cls-14" d="M75.19,179.12c7.07-6.56,15.12-12.62,20.1-21.05a28.21,28.21,0,0,0,3-7.06.55.55,0,0,0-1.07-.29c-2.69,9.13-9.72,15.73-16.44,22.05-2,1.93-4.12,3.84-6,5.9a.32.32,0,0,0,.45.45Z"/><path class="cls-5" d="M130.36,211.4a17.92,17.92,0,0,0-10.63,3c-11.08-4.87-19.88-14-25.4-26.06,5-1.9,14.43-8.8,14.43-8.8A50.52,50.52,0,0,0,117,197a63.88,63.88,0,0,0,6.36,7.57C125.62,206.94,128.27,208.9,130.36,211.4Z"/><path class="cls-14" d="M94.46,188.53a64.44,64.44,0,0,0,21-14,56.33,56.33,0,0,0,4.74-5.37c.23-.3-.28-.68-.53-.4a79.17,79.17,0,0,1-19.13,16c-2,1.18-4.11,2.29-6.25,3.3-.24.11-.06.54.19.44Z"/><path class="cls-14" d="M141.72,164.11c-5.54,2.52-8.74,8.7-10,14.39-1.51,7.05-.24,14.18,1.8,21,1.3,4.33,2.87,8.58,4.24,12.89l.9-.9a27.33,27.33,0,0,0-9.62-.61,15.8,15.8,0,0,0-8.7,3.4c-.7.61.32,1.62,1,1a14.38,14.38,0,0,1,8-3,26.49,26.49,0,0,1,8.87.6.74.74,0,0,0,.9-.9c-4.05-12.77-10.6-27.09-3.74-40.12a21.15,21.15,0,0,1,6.52-7.3.27.27,0,0,0-.27-.46Z"/><path class="cls-7" d="M121.32,132c.45.89.82,1.8,1.21,2.72.18.43.36.87.53,1.3a7.19,7.19,0,0,0,.62,1.42.44.44,0,0,0,.81-.34,6,6,0,0,0-.53-1.46c-.2-.45-.42-.89-.63-1.33-.45-.89-1-1.76-1.47-2.63-.2-.35-.73,0-.54.32Z"/><path class="cls-7" d="M124.92,130.64q1.27,2.58,2.53,5.16c.83,1.72,1.58,3.49,2.52,5.15.34.62,1.45.2,1.17-.49a51.23,51.23,0,0,0-2.61-5.18c-.94-1.7-1.92-3.37-3-5a.38.38,0,0,0-.65.38Z"/><path class="cls-7" d="M129.1,127.72s0,0,0,0,0,0,0,0Z"/><path class="cls-7" d="M130.19,128a2.31,2.31,0,0,0,0,1,4.89,4.89,0,0,0,.34.9,4.24,4.24,0,0,0,1.14,1.48.55.55,0,0,0,.78-.78,8.08,8.08,0,0,1-.6-.57l-.13-.15-.08-.09h0l-.25-.36-.2-.36c0-.07-.05-.13-.08-.19v0l0-.1c-.11-.28-.26-.53-.38-.8a.27.27,0,0,0-.49.06Z"/><path class="cls-7" d="M134.65,124.44a59.31,59.31,0,0,1,6.27,8.35.66.66,0,0,0,1.13-.67,32,32,0,0,0-7-8.1.3.3,0,0,0-.42.42Z"/><path class="cls-7" d="M140.44,122.15l.11,0c.09,0,0,0,0,0s.05,0,0,0l.17.17c.06.06.13.11.18.17a1.54,1.54,0,0,1,.17.19l-.07-.1a2.3,2.3,0,0,1,.23.4l0-.12a2.44,2.44,0,0,0,.1.24l-.05-.12v0l.84-.49-.37-.4a.51.51,0,1,0-.72.72l.38.39a.5.5,0,0,0,.66,0,.51.51,0,0,0,.18-.26l0-.14a.55.55,0,0,0-.07-.25,1.9,1.9,0,0,0-.3-.44,2.43,2.43,0,0,0-.38-.34,1.26,1.26,0,0,0-.45-.22.8.8,0,0,1-.21,0l-.2-.06a.33.33,0,0,0-.4.23.33.33,0,0,0,.23.4Z"/><path class="cls-7" d="M117.27,133.76c0,.74-.11,1.47,0,2.21s.2,1.4.35,2.09a11.28,11.28,0,0,0,1.52,4.06.43.43,0,0,0,.78-.33c-.38-1.33-1-2.59-1.37-3.91-.21-.66-.38-1.33-.53-2a21.65,21.65,0,0,1-.52-2.11c0-.13-.22-.14-.21,0Z"/><path class="cls-7" d="M95.2,135.17c-.07.33-.18.65-.26,1s-.14.58-.22.87c-.16.6-.35,1.19-.57,1.78-.44,1.18-1,2.32-1.5,3.48a.43.43,0,0,0,.75.43,12.1,12.1,0,0,0,1.77-3.56q.3-.93.51-1.86c.08-.34.15-.68.2-1s.06-.67.09-1-.68-.53-.77-.1Z"/><path class="cls-7" d="M99.83,135.85a1.35,1.35,0,0,0-.1.53,4.6,4.6,0,0,1-.06.52,9.46,9.46,0,0,1-.21,1.06,14.58,14.58,0,0,1-.69,2,.49.49,0,0,0,.17.63.47.47,0,0,0,.64-.16,7.55,7.55,0,0,0,.69-2.27,11.79,11.79,0,0,0,.12-1.18v-.55a1.24,1.24,0,0,0-.09-.6.27.27,0,0,0-.47,0Z"/><path class="cls-7" d="M105.83,135.28c0,1-.11,1.92-.09,2.88s.06,1.84.1,2.77c.09,1.87.21,3.75.4,5.62.09.89,1.5.9,1.4,0-.21-1.87-.41-3.75-.56-5.62s-.33-3.77-.48-5.65a.39.39,0,0,0-.77,0Z"/></g></g></svg>