<?xml version="1.0" encoding="utf-8"?>
<!-- Generator: Adobe Illustrator 24.3.0, SVG Export Plug-In . SVG Version: 6.00 Build 0)  -->
<svg version="1.1" id="Layer_32" xmlns="http://www.w3.org/2000/svg" xmlns:xlink="http://www.w3.org/1999/xlink" x="0px" y="0px"
	 viewBox="0 0 260 250" style="enable-background:new 0 0 260 250;" xml:space="preserve">
<style type="text/css">
	.st0{fill:#F97C4B;}
	.st1{fill:#38383D;}
	.st2{fill:#E6E6E6;}
	.st3{fill:#D1D1D1;}
	.st4{fill:#545454;}
	.st5{opacity:0.46;fill:#FFFFFF;}
	.st6{fill:#FFFFFF;}
</style>
<rect class="st0" width="260" height="250"/>
<g>
	<path class="st1" d="M202.7,97.5c-8.1-17.6-32.8-21.3-32.8-21.3v-33h-27.8h-24.3H90.1v33c0,0-24.7,3.8-32.8,21.3
		c-7.1,15.4-6.6,78-6.3,104.1c0.1,5.8,4.4,10.4,9.7,10.4h57.2h24.3h57.2c5.3,0,9.7-4.6,9.7-10.4C209.3,175.4,209.8,112.8,202.7,97.5
		z"/>
	<path d="M209.1,191.6c-0.1,5.8-4.4,10.4-9.7,10.4h-57.2h-24.3H60.6c-5.3,0-9.7-4.6-9.7-10.4c0-4.4-0.1-9.8-0.1-15.9
		c0,10.2,0,19.4,0.1,26.1c0.1,5.8,4.4,10.4,9.7,10.4h57.2h24.3h57.2c5.3,0,9.7-4.6,9.7-10.4c0.1-6.8,0.2-15.9,0.1-26.1
		C209.2,181.8,209.1,187.2,209.1,191.6z"/>
	<path d="M202.7,97.5c-8.1-17.6-32.8-21.3-32.8-21.3v-33h-18.5v33c0,0,24.7,3.8,32.8,21.3c7.1,15.4,6.6,78,6.3,104.1
		c-0.1,5.8-4.4,10.4-9.7,10.4h18.5c5.3,0,9.7-4.6,9.7-10.4C209.3,175.4,209.8,112.8,202.7,97.5z"/>
	<path class="st2" d="M174.8,66.7H85.2V47.8c0-5.6,4.5-10.1,10.1-10.1h69.5c5.6,0,10.1,4.5,10.1,10.1V66.7z"/>
	<rect x="86.3" y="69.8" class="st2" width="87.4" height="6.1"/>
	<path class="st3" d="M168,37.7h-21.2c3.8,0,6.9,3.1,6.9,6.9v22.1h21.2V44.6C174.8,40.8,171.7,37.7,168,37.7z"/>
	<rect x="153.6" y="69.8" class="st3" width="21.2" height="6.1"/>
	<polygon points="90.1,76.1 180.3,85.3 169.9,76.1 	"/>
	<rect x="74.4" y="112.1" class="st2" width="109.8" height="70.2"/>
	<path class="st1" d="M157.3,112.1c-10.8,10.6-21.7,21.1-32.5,31.7c-1.8,1.7-4.2,3.6-6.5,2.7c-2.2-0.9-3-4.1-5.3-4.8
		c-1.7-0.6-3.4,0.4-4.9,1.3c-12.4,8-23,18.8-30.6,31.5l17.2,2.3c5.7-5.8,11.4-11.5,17.2-17.3c1.3-1.3,3.4-2.7,4.9-1.5
		c0.7,0.5,0.9,1.4,1.3,2.2c1.1,1.7,3.4,2.4,5.4,2.1c2-0.3,3.8-1.4,5.5-2.6c7.3-5,13.6-11.4,19.8-17.8c7.4-7.8,14.6-15.7,21.6-23.9
		c1.6-1.9,3.2-3.8,4.5-5.8H157.3z"/>
	<rect x="74.4" y="169.2" class="st4" width="109.8" height="13.1"/>
	<rect x="74.4" y="112.1" class="st4" width="109.8" height="5.1"/>
	
		<ellipse transform="matrix(0.2298 -0.9732 0.9732 0.2298 -20.3378 286.9853)" class="st4" cx="171.1" cy="156.3" rx="9.2" ry="9.2"/>
	<path class="st5" d="M70,103.7c-3.8,8.6-4.5,18.2-3.6,27.5c0.2,2.6,0.6,5.2,1.6,7.6c1.1,2.4,2.9,4.5,5.4,5.3
		c3.6,1.2,7.7-0.6,10.1-3.5c2.4-2.9,3.4-6.7,4-10.5c1.3-8.8,0.6-18.4,5.5-25.9c2.5-3.8,6.1-6.6,9.7-9.5c1.7-1.4,3.6-3.2,3.4-5.4
		c-0.1-1.7-1.5-3.1-3-4c-6.5-4-13.3-1.1-19.2,2.3C77.6,91.4,72.8,97.2,70,103.7z"/>
	<path class="st5" d="M77.6,149.2c-2.9-0.1-5.9,0.8-8.3,2.4c-0.6,0.4-1.2,0.9-1.7,1.5c-1.4,1.8-1.3,4.3-0.3,6.3
		c2.1,4,7.9,5.3,11.5,2.6c3.6-2.7,3.9-8.6,0.7-11.7L77.6,149.2z"/>
	<rect x="87.7" y="43.1" class="st3" width="2.4" height="23.6"/>
	<rect x="96.3" y="43.1" class="st3" width="2.4" height="23.6"/>
	<rect x="104.9" y="43.1" class="st3" width="2.4" height="23.6"/>
	<rect x="113.6" y="43.1" class="st3" width="2.4" height="23.6"/>
	<rect x="122.2" y="43.1" class="st3" width="2.4" height="23.6"/>
	<rect x="130.8" y="43.1" class="st3" width="2.4" height="23.6"/>
	<rect x="139.4" y="43.1" class="st3" width="2.4" height="23.6"/>
	<rect x="148.1" y="43.1" class="st3" width="2.4" height="23.6"/>
	<path class="st6" d="M134.1,43.4c0.7,0,1.7-0.1,1.8-0.9c0.2-0.9-0.9-1.4-1.8-1.6c-6.4-1.3-13-1.1-19.6-1
		c-5.3,0.1-10.6,0.3-15.9,0.4c-2.1,0.1-9.8-1.2-10.7,1.5c-0.9,2.6,3.3,1.7,4.8,1.7c2.6,0,5.1,0,7.7,0c5.4,0,10.8,0,16.2-0.1
		C122.4,43.4,128.3,43.4,134.1,43.4z"/>
	<path class="st6" d="M90.6,72.5c-0.3,0.2-0.6,0.5-0.7,0.8c-0.2,0.6,0.3,1.2,0.9,1.5c0.6,0.2,1.2,0.1,1.9,0c5.5-0.7,11-0.8,16.5-0.1
		c2.3,0.3,4.6,0.7,6.9,0.2c0.5-0.1,1.1-0.4,1.2-0.9c0.2-0.8-0.9-1.3-1.8-1.4c-4.5-0.4-9-0.7-13.4-1C98.5,71.4,93.6,70.3,90.6,72.5z"
		/>
</g>
</svg>
