<svg id="Layer_3" data-name="Layer 3" xmlns="http://www.w3.org/2000/svg" viewBox="0 0 260 250"><defs><style>.cls-1{fill:#eeebda;}.cls-2{fill:#a31e10;}.cls-3{fill:#d83015;}.cls-4{fill:#f34c3c;}.cls-5{fill:#f7715a;}.cls-6{fill:#5b0f09;}.cls-7{fill:#b25742;}.cls-8{fill:#f6babb;}.cls-9{fill:#f5e3e3;}.cls-10{fill:#8083bd;}.cls-11{fill:#1f0c18;}.cls-12{fill:#cad8d6;}.cls-13{fill:#840d07;}.cls-14{fill:#470907;}.cls-15{fill:#e9535a;}</style></defs><rect class="cls-1" x="-0.04" y="-0.19" width="260" height="250"/><path class="cls-2" d="M158.34,150.35c2.21,3.68,22.4-.79,25.29-1.23s18.53.76,23.72-.58c4.5-1.18,3.48-7.3.54-9.75-3.89-3.26-18.86-.42-24.85.44S154.61,144.16,158.34,150.35Z"/><path class="cls-2" d="M114.16,196.42c3.14-3.33,14.66,9.27,16.6,12.71,1.37,2.42,5.69,12.48,1.26,16.36s-10.86.11-10.25-2.77,2.39-9.25,1.32-11.22S111.94,198.78,114.16,196.42Z"/><path class="cls-2" d="M157.71,178.6c2.84-4.52,19.41,7.79,21.23,10.53s-.23,17.55-6.3,20.42-8.6-.14-7-3.22,5.19-10.59,4.73-13.21C169.9,190.66,155.69,181.81,157.71,178.6Z"/><path class="cls-3" d="M131.26,169.51c-27.93-24.9-55.91-27-81.06-4.21-8.89,6.4-9.3,9.52-2,21.32s29.94,31.63,60.13,24.85S143.87,185.37,131.26,169.51Z"/><path class="cls-4" d="M127.62,172.75c-.7,18.31-51.4,43.44-78.52-3.08C72.85,138.58,116.71,150,127.62,172.75Z"/><path class="cls-5" d="M98.34,157.86c11,23.62-32.16,19.54-32.16,3.6C66.18,151.44,93.77,148.06,98.34,157.86Z"/><path class="cls-3" d="M164.27,137.61c-23.81-5.35-51.64,28.08-26.82,47.34C155.16,198.7,191,156.88,164.27,137.61Z"/><path class="cls-4" d="M156.35,142.87c11.81,7.54-8.49,40.59-24.14,31.27C120.26,164.1,143.75,134.83,156.35,142.87Z"/><path class="cls-5" d="M149.07,144.78c5.35,4.45-6.37,21.38-12.23,13.86S145.1,141.49,149.07,144.78Z"/><path class="cls-3" d="M162.49,151.7c4.29-.17,18.65,7.34,21.24,8.68S201,160.1,205.46,163c3.89,2.54.32,10.89-3.24,12.27-4.74,1.84-17.74-1.62-23.15-4.35S155.69,152,162.49,151.7Z"/><path class="cls-3" d="M147.57,183.53c3.2-4.26,20.63,14.19,21,17.49.4,3.69-2.51,15.86-8.79,18.19s-9.44-4.35-7.64-7.28,7.16-7.24,7-9.83S145.3,186.55,147.57,183.53Z"/><path class="cls-6" d="M112.3,156.39c-15.81,8.64-15.48,47-5.14,55.23-8.17,2.19-19.32.44-19.32.44-11.88-21.11-8-55.69,4.37-62.32A50.27,50.27,0,0,1,112.3,156.39Z"/><path class="cls-6" d="M50.2,165.3a67.33,67.33,0,0,1,15.73-10.8c-9,9.25-9.8,31.57-4.34,46.25a55.71,55.71,0,0,1-13.37-14.13C40.9,174.82,41.31,171.7,50.2,165.3Z"/><path class="cls-6" d="M168,61.06c5-15.48,18.07-32.63,37.51-28.39C216.15,35,215,19.61,202.27,21.74,181.72,25.19,172.46,40.88,165,59.92,163.86,64.29,166.34,65.07,168,61.06Z"/><path class="cls-3" d="M188.51,64.35c-24.55-18.43-81.16,1.91-73.15,46.72,6.9,38.51,64.68,33.32,86.87,9.18C215.34,106,213.15,82.85,188.51,64.35Z"/><path class="cls-4" d="M190.27,67.31c-26.75-24.58-76,6-59.83,37.64C151.55,146.37,242.78,115.57,190.27,67.31Z"/><path class="cls-5" d="M155.67,60.68c29.85-12.32,63.05,35.72,33,44.18C149.24,116,123.47,74,155.67,60.68Z"/><path class="cls-6" d="M143.5,66.3C139.75,47.75,140,29.85,157.91,23c10.29-3.93,2.07-16.54-8.12-9.09C131.82,27,135,55.54,140.48,66.44,141.71,69.84,144.18,69.44,143.5,66.3Z"/><path class="cls-7" d="M208.4,23c5.07,2.38-.31,7.52-5.17,5.6S200.44,19.3,208.4,23Z"/><path class="cls-7" d="M150.17,14.53c-6.42,4.23,1.12,9.27,5.8,5.14S155.73,10.86,150.17,14.53Z"/><path class="cls-4" d="M163.53,151.7c-1.15-4.59,22.06,9.06,20.53,12.06C181.25,169.28,164.4,155.2,163.53,151.7Z"/><path class="cls-4" d="M149.14,182.05c.09-4.73,18.92,14.53,16.65,17C161.63,203.67,149.06,185.66,149.14,182.05Z"/><path class="cls-8" d="M150.6,77.11c-11.41-1.31-18.9,13.55-11.41,26,6.46,10.74,19,18.8,29.19,12.13S167.65,79.07,150.6,77.11Z"/><path class="cls-9" d="M152.12,79.6c-9.35-1.08-15.6,11.87-9.66,23.46,5.16,10.06,16.54,17,25.69,10.94S167.5,81.37,152.12,79.6Z"/><path class="cls-10" d="M165.32,88c-5.38-5.3-15.91-.36-12.53,12.88,2.9,11.35,12.68,16.19,16.84,13.47C175.15,110.69,171.33,93.56,165.32,88Z"/><path class="cls-8" d="M186.58,67.23c-5.58,2.31,6.19,29.65,12.68,33.71,5,3.13,9.33,0,9.28-6.12C208.46,84.06,196.49,63.13,186.58,67.23Z"/><path class="cls-9" d="M188,70.49c-5.33,1.94,3.7,24.44,9.91,29.6,4.64,3.86,8.1,0,9-3.22C209.47,87.13,198.15,69.05,188,70.49Z"/><path class="cls-10" d="M188.4,82.6c-1.21-8.79,8.5-10.36,13.27-1.32,5.73,10.83,3.68,22.27-1.67,20.15S188.51,85.81,188.4,82.6Z"/><path class="cls-11" d="M194.24,80.54c7.73.09,12.35,18.67,6.13,20C196.26,101.39,183.05,80.42,194.24,80.54Z"/><path class="cls-11" d="M162,90.78c-10.41,5.15-.08,27.35,8.34,21.94C175,109.7,170.41,86.59,162,90.78Z"/><path class="cls-9" d="M159.76,99.17c-.63-2.18-12.2-7.43-11.57-3S160.86,103,159.76,99.17Z"/><path class="cls-9" d="M198.68,86.17c-1.57-1.24-1.92-10.39,1.53-8.39S201.41,88.33,198.68,86.17Z"/><path class="cls-3" d="M157.11,79.18C141,68.69,124.68,90.3,143.3,108.69,130.92,92.72,141.57,71.85,157.11,79.18Z"/><path class="cls-3" d="M185.15,72.69c-1.71-12.27,11.08-7.85,18.74,7C195,66.87,186,65.93,185.15,72.69Z"/><path class="cls-12" d="M200.44,94c-.35-.57-3.44-.84-4.11-.2s-.43,3,.06,3.53,3.24.65,3.84.26S200.78,94.53,200.44,94Z"/><path class="cls-12" d="M166.38,107.14c-.2-.63,1.64-3.13,2.58-3.21s2.52,1.66,2.6,2.38-1.66,2.86-2.35,3S166.58,107.78,166.38,107.14Z"/><path class="cls-13" d="M198,107.79c-6.18,4.53-16.9,4.22-20.29,3.5.47,6.55,4.41,13.51,8.5,13.35,5.68-.21,7.59-12.14,7.59-12.14C198.64,110.28,198,107.79,198,107.79Z"/><path class="cls-14" d="M188.59,112.62c-.26,2.67-2.31,5.76-4.11,6a5.13,5.13,0,0,1-4.62-2.38,10.69,10.69,0,0,1-1.32-3.78A40.49,40.49,0,0,0,188.59,112.62Z"/><path class="cls-15" d="M178.87,114.78c10.08-.06,11.38,5.14,10.19,7.74C185.83,126.1,181.11,122.1,178.87,114.78Z"/><path class="cls-8" d="M193.21,111c.21,1.46.07,3.22-3.84,3.79s-4.25-2.45-4.25-2.45A29.23,29.23,0,0,0,193.21,111Z"/><path class="cls-3" d="M105.77,200.91c4-2.3,13.24,14.47,14,17.15s0,13.39-5.34,15.83-8.68-2.39-7.26-5,4.27-8.58,3.81-10.78S103,202.53,105.77,200.91Z"/><path class="cls-4" d="M104.74,197.8c.82-4.66,16.47,17.26,13.86,19.38C113.78,221.08,104.12,201.36,104.74,197.8Z"/></svg>