<svg xmlns="http://www.w3.org/2000/svg" viewBox="0 0 190 108"><g style="isolation:isolate"><g id="ba25fda7-fc73-4ad4-827c-f2eba799024a" data-name="Layer 1"><rect x="1.06" y="41.43" width="163.24" height="59.72" rx="29.86"/><rect x="1.06" y="32.58" width="163.24" height="59.72" rx="29.86" style="fill:#02b6c2;stroke:#fff;stroke-miterlimit:10;stroke-width:3px"/><path d="M188.33,13.77c-1.66-3.19-7.52-5.38-17.42-6.5-5.43-.62-15.44-1.17-21.57,2-28,14.55-50.8,37.42-70.13,58.6L68.47,48.65c-.76-1.34-2.52-4.5-17.95-5.76-5.43-.45-15.22-.82-19.74,1.71A6,6,0,0,0,28.19,53l26.88,48.13c1.16,2.09,3.73,4.19,14.54,5.41,1.49.17,3.5.37,5.73.5,7,.43,16.24.27,19.29-3.12,3.31-3.66,6.67-7.42,9.91-11.06,24.11-27,49.05-55,81.11-71.69C189,19.44,189.56,16.13,188.33,13.77Z" style="opacity:0.2;mix-blend-mode:multiply"/><path d="M182.63,6.31C180.78,3.22,174.8,1.4,164.84.87c-5.45-.28-15.48-.23-21.4,3.32C116.38,20.42,95,44.63,77,66.94L65.1,48.39c-.83-1.3-2.78-4.34-18.26-4.67-5.45-.11-15.24.11-19.6,2.91a6,6,0,0,0-2.08,8.56l29.75,46.42c1.29,2,4,4,14.84,4.51,1.5.08,3.51.16,5.75.16,7,0,16.22-.73,19.07-4.29,3.07-3.85,6.2-7.81,9.22-11.64,22.43-28.46,45.62-57.88,76.61-76.47C183.67,11.92,184,8.59,182.63,6.31Z" style="fill:#fff"/><path d="M145.77,8.08C118.06,24.7,96.69,49.48,76.58,74.7L61.28,50.84c-2.26-3.53-36.07-4-32.3,1.9L58.73,99.16c2.14,3.35,29.52,3.47,32.29,0C116.77,66.93,142.07,31.58,178.07,10,184,6.45,155,2.52,145.77,8.08Z" style="fill:#23b502"/></g></g></svg>