<svg xmlns="http://www.w3.org/2000/svg" viewBox="0 0 167 116"><g style="isolation:isolate"><g id="f0e2ebee-853a-4932-bec4-24c3cf192844" data-name="Layer 1"><rect x="1.88" y="36.19" width="163.24" height="59.72" rx="29.86"/><rect x="1.88" y="27.34" width="163.24" height="59.72" rx="29.86" style="fill:#02b6c2;stroke:#fff;stroke-miterlimit:10;stroke-width:3px"/><path d="M158.47,13.22c-.06-1.4-.71-3.38-3.44-4.79C150.43,6,139.44,5,137.28,4.82c-14-1.2-17.28.9-18.36,1.59A213.4,213.4,0,0,0,91.16,27.63a78.78,78.78,0,0,1-5.83-17c-.75-4-5-5.47-6.45-6C74.74,3.19,68,2.2,60.88,2c-12.47-.35-15,1.85-16,2.68A5.43,5.43,0,0,0,43,9.83c2.75,14.62,11.61,31,21.1,46.69C56.42,65.9,49.05,75.69,41.9,85.18c-3,4-6.11,8.12-9.19,12.14a5,5,0,0,0,1.1,7.13c3.64,2.79,15.57,3.9,19.14,4.18l.48,0c16.38,1.2,18.83-2,19.89-3.38,3.09-4,6.21-8.19,9.23-12.19l3.51-4.66c7.82,9.85,14.79,17.17,21.24,22.28,3.39,2.69,10.36,4.15,17.41,4.67,7.68.56,15.45,0,18.76-1.31s4-3.46,4.15-4.66a5.68,5.68,0,0,0-2.34-5.33c-10.76-8.54-23.35-23.86-36.53-44.42,15.11-17.78,29.36-30.37,47.17-41.76A5.2,5.2,0,0,0,158.47,13.22Z" style="opacity:0.2;mix-blend-mode:multiply"/><path d="M151.52,7.25c-.17-1.4-1-3.32-3.78-4.53-4.77-2-15.8-2.28-18-2.3-14-.18-17.16,2.16-18.19,2.93A211.78,211.78,0,0,0,85.44,26.53,79.13,79.13,0,0,1,78.38,10c-1-3.89-5.42-5.08-6.86-5.47-4.24-1.14-11-1.64-18.15-1.32C40.91,3.73,38.52,6.12,37.62,7a5.44,5.44,0,0,0-1.5,5.29c3.81,14.37,13.84,30.05,24.45,45-7,9.92-13.62,20.22-20,30.21-2.71,4.2-5.51,8.54-8.29,12.78a5,5,0,0,0,1.63,7c3.83,2.51,15.81,2.75,19.39,2.77h.48c16.43,0,18.64-3.38,19.59-4.83,2.79-4.27,5.6-8.62,8.31-12.83l3.17-4.91c8.51,9.26,16,16,22.8,20.67,3.58,2.44,10.64,3.39,17.71,3.39,7.7,0,15.4-1.13,18.61-2.68s3.71-3.74,3.8-5A5.66,5.66,0,0,0,145,98.83c-11.35-7.73-25-22.09-39.68-41.64,13.78-18.83,27.07-32.43,44-45.09A5.21,5.21,0,0,0,151.52,7.25Z" style="fill:#fff"/><path d="M114.3,7A207.88,207.88,0,0,0,84.52,34.17c-4.06-7-8.44-15.18-10.52-23C72.64,6,39.38,6.9,40.5,11.14c4,15.07,15.49,32,25.64,46.17C55.56,72.09,46,87.6,36,102.79c-1.86,2.84,30.56,4.49,33.49,0,4.93-7.52,9.78-15.13,14.69-22.68,7.44,8.43,16.66,18,25.94,24.35,7.17,4.88,38.22,2.14,32.3-1.88C127,92,110.86,72.39,99.7,57.23c13.16-18.4,26.81-33.74,46.9-48.76C151,5.15,119.26,3.27,114.3,7Z" style="fill:#eb1d1d"/></g></g></svg>