<svg id="Curtains_BG" data-name="Curtains BG" xmlns="http://www.w3.org/2000/svg" viewBox="0 0 1920 900"><defs><style>.cls-1{opacity:0.19;}.cls-2{fill:#cd0100;}.cls-2,.cls-3,.cls-4{fill-rule:evenodd;}.cls-3{fill:#9f0100;}.cls-4{fill:none;stroke:#9f0100;stroke-linecap:round;stroke-linejoin:round;stroke-width:4.8px;}</style></defs><g class="cls-1"><path d="M1698.61,886.52c12.13,23.6,27,22.81,43.53,14,13.6,18.1,29.15,15.07,46,5.85,14.71,14.45,32.34,8.45,48.78-1.76,19,6.29,34,.33,52.63-6.84V405.05q-14.38,4.09-28.64,8.09c-9.5,5.48-19,10.91-28.33,16.33q-13.89,7.5-27.53,14.94c-8.9,4.48-17.74,8.89-26.53,13.36-19.6,72-37.94,143.58-51.31,215.31C1714,744.28,1705.6,815.59,1698.61,886.52Z"/><path d="M1797.74,448.1c-16,77.18-30.78,154.12-41,231.42-9.89,74.39-15.56,149.08-20,223.58,1.78-.76,3.59-1.65,5.42-2.63a42,42,0,0,0,6,6.55c4.1-77,9.29-154.2,18.68-231.13,9.41-77.14,23-154.07,37.66-231.17Z"/><path d="M1852.63,417.92c-6.37,84.71-12.17,169.43-15.86,254.12-3.43,78.65-5,157.4-6.06,236.14,2.09-1.12,4.18-2.33,6.24-3.62a54.6,54.6,0,0,0,5.66,1.55c.85-79.74,2.17-159.53,5.05-239.24,3-84.54,7.9-169,13.16-253.66Z"/><path d="M1826.31,432.88c-11.69,81.53-22.46,163-29.7,244.53-6.85,77.05-10.55,154.31-13.27,231.38,1.6-.76,3.21-1.59,4.83-2.47a33,33,0,0,0,6,4.71c2.39-79.16,5.63-158.33,11.84-237.36,6.4-81.38,16-162.62,26.33-244.06Z"/><path d="M1889.41,14.78H1278.88c26.84,120.37,135.73,431.51,610.53,447.81Z"/><path d="M1889.41,14.78H1374.7c22.63,120.37,114.43,431.51,514.71,447.81Z"/><path d="M1889.41,14.78H1416.1c20.81,120.37,105.23,431.51,473.31,447.81Z"/><path d="M1889.41,14.78H1518c16.33,120.37,82.58,431.51,371.45,447.81Z"/><path d="M1889.41,14.78H1556c14.66,120.37,74.13,431.51,333.44,447.81Z"/><path d="M1889.41,14.78H1684.19c9,120.37,45.63,431.51,205.22,447.81Z"/><path d="M1889.41,14.78H1722.69c7.33,120.37,37.07,431.51,166.72,447.81Z"/><path d="M1889.58,456.5c-22.45,8.52-68,9.51-111,1.27"/></g><g class="cls-1"><path d="M222.29,886.52c-12.13,23.6-27,22.81-43.53,14-13.59,18.1-29.15,15.07-46,5.85-14.7,14.45-32.34,8.45-48.78-1.76-19,6.29-34,.33-52.63-6.84V405.05c9.59,2.73,19.16,5.41,28.64,8.09,9.51,5.48,19,10.91,28.33,16.33q13.89,7.5,27.53,14.94c8.9,4.48,17.75,8.89,26.54,13.36,19.59,72,37.94,143.58,51.3,215.31C206.92,744.28,215.3,815.59,222.29,886.52Z"/><path d="M123.16,448.1c16,77.18,30.79,154.12,41.06,231.42,9.88,74.39,15.55,149.08,20,223.58-1.79-.76-3.6-1.65-5.43-2.63a42,42,0,0,1-6,6.55c-4.1-77-9.29-154.2-18.68-231.13-9.41-77.14-23-154.07-37.65-231.17Z"/><path d="M68.27,417.92C74.64,502.63,80.44,587.35,84.13,672c3.43,78.65,5,157.4,6.07,236.14Q87,906.5,84,904.56a53.92,53.92,0,0,1-5.66,1.55c-.84-79.74-2.17-159.53-5.05-239.24-3-84.54-7.9-169-13.16-253.66Z"/><path d="M94.6,432.88c11.69,81.53,22.45,163,29.7,244.53,6.84,77.05,10.55,154.31,13.26,231.38-1.6-.76-3.21-1.59-4.83-2.47a32.63,32.63,0,0,1-6,4.71c-2.38-79.16-5.62-158.33-11.84-237.36-6.4-81.38-15.95-162.62-26.33-244.06Z"/><path d="M31.49,14.78H642C615.19,135.15,506.3,446.29,31.49,462.59Z"/><path d="M31.49,14.78H546.2C523.57,135.15,431.77,446.29,31.49,462.59Z"/><path d="M31.49,14.78H504.8C484,135.15,399.58,446.29,31.49,462.59Z"/><path d="M31.49,14.78H402.94C386.61,135.15,320.36,446.29,31.49,462.59Z"/><path d="M31.49,14.78H364.93C350.28,135.15,290.8,446.29,31.49,462.59Z"/><path d="M31.49,14.78H236.71c-9,120.37-45.62,431.51-205.22,447.81Z"/><path d="M31.49,14.78H198.21c-7.33,120.37-37.06,431.51-166.72,447.81Z"/><path d="M31.32,456.5c22.45,8.52,68,9.51,111,1.27"/></g><path class="cls-2" d="M1730.46,824.8c12.14,22,27,21.26,43.54,13,13.59,16.87,29.15,14.05,46,5.44,14.7,13.48,32.33,7.89,48.77-1.63,19,5.86,34,.31,52.63-6.38V376q-14.39,3.82-28.63,7.54c-9.51,5.11-19,10.17-28.34,15.23q-13.87,7-27.53,13.93c-8.9,4.17-17.74,8.29-26.53,12.45-19.6,67.14-37.94,133.86-51.3,200.72C1745.84,692.19,1737.45,758.68,1730.46,824.8Z"/><path class="cls-3" d="M1829.6,416.08c-16,72-30.79,143.69-41.06,215.75-9.88,69.35-15.56,139-20,208.42,1.79-.71,3.6-1.53,5.43-2.44a40.4,40.4,0,0,0,6,6.1c4.1-71.78,9.3-143.75,18.68-215.47,9.42-71.91,23-143.63,37.66-215.51Z"/><path class="cls-3" d="M1884.48,388c-6.37,79-12.17,158-15.86,236.9-3.43,73.32-5,146.74-6.06,220.14,2.1-1,4.18-2.17,6.24-3.37a55.48,55.48,0,0,0,5.67,1.44c.84-74.33,2.17-148.72,5-223,3.06-78.82,7.9-157.59,13.17-236.48Z"/><path class="cls-3" d="M1858.16,401.9c-11.69,76-22.46,152-29.7,228-6.84,71.82-10.55,143.86-13.27,215.7,1.6-.7,3.21-1.48,4.84-2.31a32,32,0,0,0,6,4.4c2.39-73.79,5.63-147.61,11.84-221.28,6.4-75.86,16-151.6,26.33-227.52Z"/><path class="cls-2" d="M1921.27,12.12H1310.73c26.84,112.22,135.73,402.28,610.54,417.47Z"/><path class="cls-3" d="M1921.27,12.12H1406.55C1429.18,124.34,1521,414.4,1921.27,429.59Z"/><path class="cls-2" d="M1921.27,12.12H1448c20.81,112.22,105.22,402.28,473.31,417.47Z"/><path class="cls-3" d="M1921.27,12.12H1549.81c16.34,112.22,82.58,402.28,371.46,417.47Z"/><path class="cls-2" d="M1921.27,12.12H1587.82c14.66,112.22,74.13,402.28,333.45,417.47Z"/><path class="cls-3" d="M1921.27,12.12H1716.05c9,112.22,45.62,402.28,205.22,417.47Z"/><path class="cls-2" d="M1921.27,12.12H1754.54c7.33,112.22,37.07,402.28,166.73,417.47Z"/><path class="cls-4" d="M1921.43,423.92c-22.44,7.94-68,8.86-111,1.18"/><path class="cls-2" d="M191,824.8c-12.13,22-27,21.26-43.53,13-13.6,16.87-29.15,14.05-46,5.44-14.71,13.48-32.34,7.89-48.78-1.63-19,5.86-34,.31-52.63-6.38V376c9.59,2.55,19.16,5.05,28.64,7.54,9.5,5.11,19,10.17,28.33,15.23q13.89,7,27.53,13.93c8.9,4.17,17.74,8.29,26.54,12.45C130.63,492.24,149,559,162.34,625.82,175.6,692.19,184,758.68,191,824.8Z"/><path class="cls-3" d="M91.84,416.08c16,72,30.78,143.69,41,215.75,9.89,69.35,15.56,139,20,208.42-1.78-.71-3.59-1.53-5.42-2.44a40.44,40.44,0,0,1-6,6.1c-4.1-71.78-9.29-143.75-18.68-215.47-9.41-71.91-23-143.63-37.66-215.51Z"/><path class="cls-3" d="M37,388c6.37,79,12.17,158,15.86,236.9,3.43,73.32,5,146.74,6.06,220.14-2.09-1-4.18-2.17-6.24-3.37A56,56,0,0,1,47,843.06c-.84-74.33-2.17-148.72-5-223C38.87,541.22,34,462.45,28.76,383.56Z"/><path class="cls-3" d="M63.28,401.9c11.68,76,22.45,152,29.69,228,6.85,71.82,10.56,143.86,13.27,215.7-1.6-.7-3.21-1.48-4.83-2.31a32.09,32.09,0,0,1-6,4.4C93,773.86,89.77,700,83.56,626.37c-6.4-75.86-16-151.6-26.33-227.52Z"/><path class="cls-2" d="M.17,12.12H610.7C583.86,124.34,475,414.4.17,429.59Z"/><path class="cls-3" d="M.17,12.12H514.88C492.25,124.34,400.45,414.4.17,429.59Z"/><path class="cls-2" d="M.17,12.12H473.48C452.67,124.34,368.25,414.4.17,429.59Z"/><path class="cls-3" d="M.17,12.12H371.62C355.29,124.34,289,414.4.17,429.59Z"/><path class="cls-2" d="M.17,12.12H333.61C319,124.34,259.48,414.4.17,429.59Z"/><path class="cls-3" d="M.17,12.12H205.39C196.36,124.34,159.76,414.4.17,429.59Z"/><path class="cls-2" d="M.17,12.12H166.89C159.56,124.34,129.83,414.4.17,429.59Z"/><path class="cls-4" d="M0,423.92c22.45,7.94,68,8.86,111,1.18"/></svg>