<svg id="BG" xmlns="http://www.w3.org/2000/svg" viewBox="0 0 1920 900"><defs><style>.cls-1{fill:#fff;}.cls-2{fill:#ff1f5e;}.cls-3{fill:#45370f;opacity:0.72;}.cls-4{fill:#ffca38;}.cls-5{fill:#ffe875;}.cls-6{fill:#e8b11e;}</style></defs><rect class="cls-1" y="829.08" width="87.47" height="188.91"/><rect class="cls-2" x="87.47" y="829.08" width="87.47" height="188.91"/><rect class="cls-1" x="174.51" y="829.08" width="87.47" height="188.91"/><rect class="cls-2" x="261.97" y="829.08" width="87.47" height="188.91"/><rect class="cls-1" x="349.01" y="829.08" width="87.47" height="188.91"/><rect class="cls-2" x="436.48" y="829.08" width="87.47" height="188.91"/><rect class="cls-1" x="523.52" y="829.08" width="87.47" height="188.91"/><rect class="cls-2" x="610.99" y="829.08" width="87.47" height="188.91"/><rect class="cls-1" x="698.03" y="829.08" width="87.47" height="188.91"/><rect class="cls-2" x="785.49" y="829.08" width="87.47" height="188.91"/><rect class="cls-1" x="872.53" y="829.08" width="87.47" height="188.91"/><rect class="cls-2" x="960" y="829.08" width="87.47" height="188.91"/><rect class="cls-1" x="1047.04" y="829.08" width="87.47" height="188.91"/><rect class="cls-2" x="1134.51" y="829.08" width="87.47" height="188.91"/><rect class="cls-1" x="1221.54" y="829.08" width="87.47" height="188.91"/><rect class="cls-2" x="1309.01" y="829.08" width="87.47" height="188.91"/><rect class="cls-1" x="1396.05" y="829.08" width="87.47" height="188.91"/><rect class="cls-2" x="1483.52" y="829.08" width="87.47" height="188.91"/><rect class="cls-1" x="1570.56" y="829.08" width="87.47" height="188.91"/><rect class="cls-2" x="1658.03" y="829.08" width="87.47" height="188.91"/><rect class="cls-1" x="1745.06" y="829.08" width="87.47" height="188.91"/><rect class="cls-2" x="1832.53" y="829.08" width="87.47" height="188.91"/><rect class="cls-3" y="806.36" width="1920" height="57.19"/><rect class="cls-4" y="789" width="1920" height="34.72"/><rect class="cls-5" y="801.94" width="1920" height="8.85"/><rect class="cls-5" y="672.54" width="1920" height="8.85"/><rect class="cls-6" y="677.81" width="1920" height="111.19"/></svg>