<?xml version="1.0" encoding="utf-8"?>
<!-- Generator: Adobe Illustrator 16.0.0, SVG Export Plug-In . SVG Version: 6.00 Build 0)  -->
<!DOCTYPE svg PUBLIC "-//W3C//DTD SVG 1.1//EN" "http://www.w3.org/Graphics/SVG/1.1/DTD/svg11.dtd">
<svg version="1.1" id="Layer_1" xmlns="http://www.w3.org/2000/svg" xmlns:xlink="http://www.w3.org/1999/xlink" x="0px" y="0px"
	 width="114.029px" height="137.233px" viewBox="-14.97 -5.767 114.029 137.233"
	 enable-background="new -14.97 -5.767 114.029 137.233" xml:space="preserve">
<g opacity="0.15">
	<g>
		<g>
			<defs>
				<rect id="SVGID_1_" x="0.002" width="96.938" height="131.467"/>
			</defs>
			<clipPath id="SVGID_2_">
				<use xlink:href="#SVGID_1_"  overflow="visible"/>
			</clipPath>
			<path clip-path="url(#SVGID_2_)" fill="#010101" d="M86.494,81.331c8.278-14.057,11.354-27.169,10.216-38.653
				c-0.002-0.021-0.004-0.049-0.006-0.07c-0.021-0.224-0.053-0.521-0.074-0.744c-0.024-0.241-0.063-0.563-0.09-0.802
				c-0.029-0.239-0.074-0.558-0.107-0.797c-0.034-0.238-0.085-0.555-0.123-0.793c-0.037-0.236-0.095-0.551-0.137-0.787
				c-0.043-0.235-0.105-0.549-0.151-0.783c-0.049-0.233-0.115-0.544-0.166-0.777c-0.052-0.23-0.125-0.539-0.179-0.771
				c-0.056-0.23-0.135-0.536-0.191-0.767c-0.059-0.229-0.142-0.531-0.202-0.76c-0.06-0.211-0.14-0.49-0.198-0.7
				c-0.047-0.168-0.112-0.392-0.161-0.56c-0.05-0.166-0.118-0.388-0.169-0.555c-0.052-0.165-0.123-0.384-0.176-0.549
				c-0.055-0.164-0.128-0.381-0.186-0.544c-0.055-0.161-0.131-0.377-0.188-0.539l-0.178-0.483c0.142,0.379,0.223,0.744,0.257,1.098
				c-1.384-3.788-3.277-7.33-5.652-10.587c-0.016-0.103-0.031-0.205-0.058-0.31c-0.157-0.604-0.5-1.252-1.021-1.933
				c-0.232-0.298-0.545-0.694-0.781-0.989c-0.278-0.343-0.564-0.68-0.852-1.018c-0.29-0.338-0.589-0.669-0.887-1
				c-0.304-0.332-0.612-0.659-0.923-0.984c-0.314-0.326-0.638-0.646-0.959-0.967c-0.353-0.345-0.713-0.682-1.071-1.02
				c-0.346-0.313-0.695-0.621-1.045-0.928c-0.359-0.311-0.729-0.615-1.094-0.918c-0.377-0.309-0.762-0.609-1.146-0.91
				c-0.398-0.307-0.804-0.604-1.208-0.903l-0.563-0.402c1.007,0.707,1.793,1.394,2.35,2.038c0.434,0.504,0.721,0.982,0.862,1.43
				c-0.797-0.652-1.61-1.289-2.458-1.904c-2.866-2.074-5.791-3.838-8.743-5.303C68.808,5.2,68.55,5.01,68.248,4.815
				C67.554,4.37,66.67,3.906,65.611,3.45c-1.058-0.455-2.188-0.861-3.327-1.204c-1.143-0.343-2.29-0.624-3.385-0.832
				c-0.61-0.115-1.197-0.201-1.764-0.269C52.453,0.11,47.783-0.189,43.22,0.231c0.05-0.01,0.097-0.021,0.147-0.029
				c0.19-0.034,0.393-0.063,0.598-0.089c0.205-0.025,0.417-0.048,0.635-0.067C44.818,0.028,45.04,0.013,45.268,0l-0.69,0.041h-0.001
				c-0.503,0.032-1.006,0.078-1.508,0.123c-0.486,0.047-0.974,0.104-1.459,0.161c-0.475,0.059-0.947,0.128-1.421,0.195
				c-0.464,0.072-0.925,0.151-1.387,0.232c-0.603,0.114-1.205,0.239-1.805,0.369c-0.301,0.068-0.697,0.163-0.995,0.234
				c-0.438,0.107-0.876,0.225-1.313,0.343c-0.432,0.118-0.86,0.247-1.291,0.375c-0.425,0.131-0.847,0.271-1.269,0.409
				c-0.359,0.123-0.837,0.291-1.195,0.421c-0.87,0.321-1.521,0.717-1.973,1.171c-3.961,1.84-7.729,4.31-11.227,7.385
				c0.156-0.784,0.617-1.487,1.41-2.088l-0.41,0.313c-0.137,0.105-0.314,0.248-0.45,0.355s-0.313,0.253-0.447,0.361
				c-0.135,0.109-0.313,0.259-0.445,0.369c-0.133,0.113-0.309,0.266-0.439,0.379c-0.134,0.115-0.309,0.271-0.438,0.387
				c-0.165,0.145-0.381,0.34-0.545,0.486c-0.176,0.158-0.408,0.373-0.581,0.533c-0.174,0.162-0.402,0.381-0.574,0.545
				c-0.173,0.166-0.396,0.39-0.566,0.557c-0.17,0.169-0.394,0.396-0.56,0.568c-0.168,0.172-0.387,0.404-0.551,0.578
				c-0.165,0.176-0.38,0.414-0.541,0.592c-0.162,0.18-0.372,0.422-0.531,0.604c-0.157,0.184-0.363,0.432-0.521,0.617
				c-0.154,0.188-0.355,0.439-0.508,0.629c-0.198,0.102-0.325,0.411-0.466,0.588c-0.144,0.186-0.33,0.436-0.473,0.623l-0.216,0.291
				c-0.506,0.689-0.735,1.462-0.702,2.298C6.747,24.6,4.903,28.54,3.556,32.723c-0.234-0.928-0.209-1.795,0.099-2.585l-0.283,0.75
				v0.001c-0.096,0.255-0.214,0.598-0.306,0.854c-0.086,0.235-0.194,0.549-0.277,0.784c-0.088,0.255-0.2,0.596-0.286,0.851
				c-0.083,0.257-0.189,0.601-0.271,0.857c-0.079,0.259-0.181,0.604-0.259,0.863c-0.075,0.26-0.172,0.607-0.245,0.869
				c-0.072,0.262-0.163,0.612-0.231,0.875c-0.068,0.264-0.154,0.616-0.222,0.881c-0.063,0.266-0.146,0.621-0.208,0.888
				c-0.062,0.268-0.139,0.625-0.196,0.894c-0.059,0.27-0.132,0.63-0.188,0.9c-0.118,0.624-0.271,1.457-0.382,2.083
				c-0.169,0.984,0.054,2.07,0.616,3.228C0.519,49.599,0.412,53.547,0.55,57.47c-0.347-0.803-0.535-1.572-0.513-2.29l-0.024,1.002
				C-0.002,56.919,0,57.655,0,58.394c0.004,0.734,0.021,1.47,0.039,2.205c0.021,0.732,0.058,1.466,0.093,2.198
				c0.033,0.719,0.079,1.437,0.125,2.153c0.049,0.725,0.112,1.447,0.174,2.17l0.045,0.492c0.101,1.027,0.584,2.147,1.426,3.332
				c0.583,3.584,1.317,7.037,2.152,10.275c0.081,0.362,0.159,0.725,0.241,1.086c0.155,0.67,0.318,1.338,0.482,2.004
				c0.099,0.367,0.199,0.735,0.303,1.104c0.096,0.343,0.194,0.684,0.294,1.025c0.099,0.34,0.202,0.68,0.305,1.019
				c0.104,0.338,0.211,0.675,0.317,1.012c0.105,0.335,0.219,0.671,0.33,1.003c0.111,0.334,0.228,0.666,0.344,0.996
				s0.237,0.66,0.356,0.988l0.149,0.398c0.178,0.47,0.457,0.961,0.814,1.465c0.539,1.328,1.085,2.568,1.629,3.688
				c1.749,3.603,3.733,6.642,5.763,9.193c0.115,0.159,0.229,0.321,0.347,0.479c0.193,0.262,0.395,0.521,0.592,0.776
				c0.202,0.258,0.408,0.511,0.616,0.765c0.209,0.254,0.425,0.502,0.641,0.75c0.219,0.25,0.442,0.493,0.667,0.736
				c0.229,0.246,0.465,0.486,0.698,0.727c0.271,0.271,0.549,0.534,0.825,0.799c0.256,0.236,0.518,0.47,0.778,0.699
				c0.138,0.119,0.325,0.276,0.465,0.395c0.49,0.404,1.071,0.813,1.71,1.214c1.879,1.479,3.562,2.546,4.845,3.271
				c-3.102,3.248-8.914,9.801-6.401,10.854c3.36,1.413,6.077-3.874,8.136-0.536c2.06,3.337,4.515,5.26,5.486,3.887
				c0.618-0.871,1.14-8.184-0.399-12.713c0.769-0.01,1.637-0.049,2.578-0.119c0.456,0.026,0.907,0.043,1.345,0.037
				c1.325-0.063,2.038-0.158,2.796-0.259c0.327-0.046,0.653-0.103,0.979-0.155c0.32-0.057,0.642-0.121,0.962-0.186
				c0.315-0.064,0.632-0.139,0.947-0.212c0.428-0.104,0.854-0.218,1.279-0.334c0.31-0.086,0.615-0.179,0.922-0.272
				c0.307-0.095,0.609-0.195,0.913-0.296c0.304-0.103,0.604-0.211,0.904-0.317c0.3-0.11,0.599-0.228,0.896-0.342
				c0.298-0.117,0.595-0.24,0.891-0.363c0.148-0.063,0.344-0.147,0.493-0.211c0.138-0.06,0.318-0.139,0.457-0.197
				c-0.072,0.031-0.147,0.063-0.223,0.092c-0.076,0.03-0.154,0.061-0.234,0.089c-0.081,0.027-0.163,0.056-0.248,0.082
				c-0.084,0.026-0.17,0.054-0.26,0.077c-0.072,0.021-0.158,0.032-0.233,0.052c8.162-2.901,17.856-8.644,26.965-19.87
				c2.197-2.709,4.182-5.39,6.002-8.043c0.209-0.291,0.423-0.58,0.632-0.873c0.43-0.596,0.849-1.201,1.267-1.807
				c0.415-0.607,0.819-1.227,1.224-1.842c0.402-0.619,0.793-1.247,1.186-1.874l0.521-0.858c-0.203,0.338-0.461,0.661-0.778,0.967
				C86.544,81.29,86.517,81.31,86.494,81.331"/>
		</g>
	</g>
</g>
<path fill="#93221D" d="M85.825,35.334C79.47,8.242,56.135-6.108,27.821-0.192C-0.493,5.724-17.708,32.852-5.702,77.828
	c6.604,24.739,21.914,34.562,29.184,37.935c-3.254,3.506-5.765,10.391-5.557,11.44c0.326,1.647,3.354,0.897,6.596-1.31
	c3.241-2.205,3.563,3.729,7.207,3.813c2.725,0.063,0.094-8.292-1.412-12.522c4.694-0.439,14.509-2.392,24.472-10.75
	C68.593,94.851,92.179,62.427,85.825,35.334"/>
<path fill="none" stroke="#FFFFFF" stroke-width="2" stroke-linecap="round" stroke-miterlimit="10" d="M20.812,114.401
	c0.974,0.539,1.87,0.988,2.67,1.358c-0.639,0.688-1.248,1.507-1.813,2.386"/>
<path fill="none" stroke="#FFFFFF" stroke-width="2" stroke-linecap="round" stroke-miterlimit="10" stroke-dasharray="5.269,5.269" d="
	M19.228,122.813c-0.897,2.112-1.399,3.896-1.303,4.389c0.326,1.648,3.354,0.896,6.596-1.309s3.562,3.729,7.207,3.813
	c1.779,0.04,1.273-3.509,0.291-7.155"/>
<path fill="none" stroke="#FFFFFF" stroke-width="2" stroke-linecap="round" stroke-miterlimit="10" d="M31.273,120.024
	c-0.33-1.041-0.665-2.021-0.958-2.842c0.837-0.078,1.837-0.203,2.972-0.406"/>
<path fill="none" stroke="#FFFFFF" stroke-width="2" stroke-linecap="round" stroke-miterlimit="10" stroke-dasharray="6.112,6.112" d="
	M39.2,115.263c4.585-1.529,10.063-4.193,15.586-8.828c13.807-11.584,37.393-44.008,31.039-71.101
	C79.47,8.241,56.135-6.109,27.821-0.192C-0.492,5.724-17.708,32.852-5.702,77.827c5.262,19.707,16.047,29.949,23.892,35.005"/>
<path fill="#FFFFFF" d="M63.904,31.106c-0.071-0.608-0.417-1.443-1.646-1.969c-2.066-0.886-6.859-0.989-7.8-1.001
	c-6.099-0.075-7.454,0.94-7.899,1.273c-4.017,3.005-7.826,6.384-11.354,10.069c-1.259-2.326-2.438-4.824-3.064-7.191
	c-0.448-1.69-2.354-2.206-2.98-2.376c-1.842-0.498-4.786-0.713-7.882-0.575c-5.409,0.241-6.449,1.275-6.842,1.666
	c-0.624,0.62-0.867,1.479-0.649,2.295c1.654,6.244,6.011,13.051,10.62,19.552c-3.034,4.311-5.915,8.782-8.711,13.118
	c-1.176,1.824-2.393,3.712-3.597,5.552c-0.678,1.035-0.375,2.348,0.704,3.054c1.666,1.092,6.868,1.196,8.423,1.202
	c0.069,0,0.139,0,0.206,0c7.136,0,8.097-1.467,8.509-2.098c1.213-1.852,2.434-3.742,3.61-5.572c0.459-0.709,0.916-1.42,1.375-2.13
	c3.697,4.021,6.951,6.968,9.904,8.979c1.555,1.058,4.621,1.469,7.688,1.469c3.346,0,6.69-0.487,8.084-1.161
	c1.345-0.648,1.609-1.626,1.648-2.15c0.03-0.409-0.023-1.446-1.179-2.231c-4.934-3.356-10.874-9.594-17.233-18.083
	c5.981-8.178,11.754-14.084,19.104-19.583C63.651,32.684,64.001,31.917,63.904,31.106"/>
<path fill="#EA2425" d="M46.81,31.483c-4.719,3.528-9.016,7.476-12.931,11.811c-1.767-3.057-3.669-6.596-4.572-10.006
	c-0.589-2.221-15.034-1.84-14.546,0c1.735,6.547,6.726,13.902,11.134,20.054c-4.593,6.42-8.757,13.155-13.077,19.752
	c-0.806,1.229,13.271,1.947,14.548,0c2.141-3.269,4.242-6.571,6.379-9.853c3.229,3.664,7.233,7.834,11.267,10.578
	c3.111,2.119,16.595,0.93,14.026-0.818c-6.729-4.579-13.723-13.113-18.566-19.695c5.716-7.988,11.643-14.65,20.367-21.177
	C62.76,30.69,48.965,29.871,46.81,31.483"/>
</svg>
