<?xml version="1.0" encoding="utf-8"?>
<!-- Generator: Adobe Illustrator 16.0.0, SVG Export Plug-In . SVG Version: 6.00 Build 0)  -->
<!DOCTYPE svg PUBLIC "-//W3C//DTD SVG 1.1//EN" "http://www.w3.org/Graphics/SVG/1.1/DTD/svg11.dtd">
<svg version="1.1" id="Layer_1" xmlns="http://www.w3.org/2000/svg" xmlns:xlink="http://www.w3.org/1999/xlink" x="0px" y="0px"
	 width="112.963px" height="137.655px" viewBox="0 0 112.963 137.655" enable-background="new 0 0 112.963 137.655"
	 xml:space="preserve">
<g opacity="0.15">
	<g>
		<defs>
			<rect id="SVGID_1_" x="12.562" y="3.925" width="96.939" height="131.466"/>
		</defs>
		<clipPath id="SVGID_2_">
			<use xlink:href="#SVGID_1_"  overflow="visible"/>
		</clipPath>
		<path clip-path="url(#SVGID_2_)" fill="#010101" d="M99.056,85.254c8.28-14.055,11.355-27.167,10.216-38.652
			c-0.001-0.022-0.004-0.049-0.006-0.07c-0.021-0.224-0.051-0.522-0.073-0.745c-0.024-0.24-0.063-0.561-0.09-0.801
			c-0.03-0.24-0.075-0.558-0.107-0.797c-0.034-0.238-0.086-0.555-0.122-0.793c-0.039-0.237-0.097-0.551-0.138-0.787
			c-0.044-0.236-0.106-0.549-0.152-0.783c-0.048-0.234-0.115-0.545-0.165-0.778c-0.052-0.231-0.126-0.539-0.18-0.771
			c-0.055-0.23-0.134-0.536-0.191-0.766c-0.059-0.228-0.142-0.531-0.202-0.759c-0.06-0.211-0.14-0.491-0.198-0.701
			c-0.047-0.169-0.112-0.392-0.161-0.56c-0.05-0.166-0.118-0.387-0.169-0.554c-0.052-0.165-0.123-0.384-0.177-0.549
			c-0.054-0.164-0.128-0.381-0.183-0.544c-0.056-0.161-0.133-0.377-0.189-0.539l-0.177-0.484c0.141,0.379,0.222,0.745,0.255,1.098
			c-1.383-3.788-3.277-7.33-5.651-10.587c-0.016-0.102-0.03-0.204-0.058-0.31c-0.157-0.604-0.501-1.251-1.021-1.931
			c-0.233-0.299-0.545-0.694-0.782-0.99c-0.278-0.343-0.564-0.68-0.851-1.017c-0.291-0.338-0.589-0.67-0.887-1.001
			c-0.304-0.332-0.612-0.659-0.923-0.984c-0.314-0.326-0.637-0.647-0.958-0.966c-0.353-0.345-0.713-0.683-1.073-1.02
			c-0.344-0.314-0.694-0.621-1.045-0.928c-0.359-0.311-0.727-0.615-1.092-0.919c-0.378-0.308-0.763-0.609-1.146-0.909
			c-0.397-0.307-0.803-0.605-1.208-0.903l-0.563-0.403c1.005,0.707,1.793,1.393,2.348,2.038c0.433,0.504,0.721,0.983,0.863,1.429
			c-0.797-0.651-1.611-1.289-2.457-1.902c-2.868-2.076-5.791-3.84-8.744-5.305c-0.229-0.186-0.487-0.377-0.789-0.571
			c-0.693-0.446-1.577-0.909-2.635-1.366c-1.057-0.454-2.189-0.861-3.328-1.204c-1.141-0.343-2.29-0.624-3.385-0.831
			c-0.611-0.116-1.197-0.202-1.764-0.269c-4.682-1.036-9.352-1.334-13.914-0.915c0.049-0.009,0.096-0.02,0.147-0.029
			c0.192-0.033,0.392-0.062,0.597-0.088c0.206-0.026,0.417-0.049,0.635-0.068c0.219-0.018,0.44-0.034,0.67-0.046l-0.693,0.041v0.001
			c-0.503,0.032-1.005,0.078-1.507,0.122c-0.487,0.047-0.974,0.104-1.46,0.161c-0.473,0.059-0.947,0.128-1.42,0.196
			c-0.463,0.072-0.926,0.151-1.387,0.232c-0.604,0.114-1.205,0.239-1.806,0.37c-0.299,0.067-0.697,0.162-0.994,0.233
			c-0.438,0.108-0.877,0.225-1.313,0.343c-0.433,0.119-0.862,0.247-1.291,0.375c-0.426,0.131-0.848,0.27-1.27,0.409
			c-0.359,0.124-0.836,0.293-1.193,0.422C42.627,7.15,41.976,7.545,41.523,8c-3.961,1.839-7.728,4.309-11.226,7.383
			c0.156-0.783,0.616-1.487,1.409-2.088l-0.409,0.314c-0.136,0.105-0.316,0.249-0.451,0.355c-0.135,0.108-0.313,0.253-0.448,0.361
			c-0.134,0.11-0.311,0.259-0.445,0.371c-0.133,0.112-0.309,0.264-0.44,0.377c-0.133,0.116-0.308,0.271-0.438,0.387
			c-0.166,0.145-0.382,0.34-0.546,0.486c-0.176,0.159-0.407,0.373-0.58,0.534c-0.175,0.162-0.403,0.381-0.576,0.545
			c-0.171,0.165-0.397,0.389-0.567,0.556c-0.169,0.169-0.391,0.398-0.558,0.568c-0.168,0.172-0.386,0.406-0.551,0.579
			c-0.164,0.176-0.379,0.415-0.541,0.592c-0.162,0.18-0.372,0.422-0.531,0.604c-0.158,0.183-0.364,0.431-0.521,0.616
			c-0.153,0.187-0.355,0.44-0.507,0.629c-0.199,0.102-0.326,0.412-0.465,0.589c-0.143,0.185-0.332,0.435-0.473,0.622l-0.216,0.292
			c-0.506,0.69-0.735,1.461-0.702,2.297c-2.433,3.555-4.276,7.495-5.623,11.678c-0.235-0.928-0.21-1.795,0.098-2.585l-0.285,0.75
			v0.001c-0.094,0.254-0.213,0.597-0.304,0.854c-0.086,0.234-0.196,0.548-0.279,0.784c-0.087,0.254-0.2,0.595-0.286,0.85
			c-0.083,0.257-0.19,0.6-0.272,0.857c-0.079,0.259-0.18,0.604-0.257,0.864c-0.076,0.259-0.172,0.608-0.246,0.869
			c-0.072,0.261-0.163,0.612-0.233,0.875c-0.067,0.263-0.154,0.616-0.22,0.881c-0.065,0.265-0.146,0.621-0.208,0.887
			c-0.061,0.268-0.138,0.626-0.197,0.894c-0.058,0.269-0.131,0.63-0.187,0.9c-0.118,0.624-0.271,1.457-0.382,2.083
			c-0.169,0.985,0.055,2.071,0.617,3.228c-0.396,3.884-0.503,7.832-0.366,11.755c-0.347-0.803-0.534-1.572-0.513-2.29l-0.023,1.002
			c-0.016,0.737-0.014,1.474-0.014,2.211c0.004,0.735,0.022,1.47,0.04,2.206c0.022,0.731,0.057,1.466,0.092,2.198
			c0.034,0.719,0.08,1.436,0.125,2.152c0.05,0.726,0.112,1.448,0.174,2.172l0.046,0.491c0.099,1.028,0.584,2.148,1.425,3.332
			c0.583,3.583,1.318,7.037,2.152,10.276c0.081,0.361,0.16,0.725,0.242,1.086c0.155,0.669,0.318,1.336,0.482,2.002
			c0.098,0.369,0.201,0.736,0.302,1.105c0.096,0.342,0.195,0.684,0.294,1.025c0.099,0.34,0.203,0.68,0.306,1.018
			c0.104,0.338,0.21,0.676,0.317,1.013c0.107,0.335,0.218,0.67,0.33,1.003c0.112,0.333,0.228,0.665,0.343,0.996
			c0.117,0.33,0.237,0.66,0.358,0.988l0.149,0.398c0.178,0.471,0.458,0.96,0.815,1.465c0.539,1.327,1.085,2.568,1.629,3.689
			c1.749,3.602,3.733,6.641,5.762,9.193c0.115,0.16,0.23,0.32,0.346,0.479c0.195,0.262,0.394,0.521,0.593,0.776
			c0.202,0.259,0.408,0.512,0.615,0.765c0.21,0.253,0.425,0.502,0.64,0.751c0.219,0.249,0.444,0.493,0.667,0.736
			c0.23,0.246,0.465,0.486,0.7,0.726c0.271,0.271,0.547,0.535,0.825,0.798c0.256,0.238,0.517,0.471,0.778,0.7
			c0.139,0.12,0.325,0.276,0.465,0.396c0.491,0.403,1.071,0.811,1.711,1.213c1.877,1.479,3.56,2.545,4.844,3.271
			c-3.103,3.247-8.916,9.799-6.403,10.854c3.362,1.414,6.078-3.873,8.137-0.535c2.058,3.337,4.515,5.259,5.486,3.887
			c0.618-0.873,1.139-8.184-0.399-12.713c0.768-0.01,1.637-0.049,2.578-0.12c0.455,0.026,0.906,0.043,1.346,0.037
			c1.324-0.063,2.037-0.157,2.795-0.259c0.326-0.045,0.652-0.1,0.979-0.155c0.321-0.056,0.641-0.12,0.962-0.185
			c0.316-0.065,0.632-0.139,0.947-0.213c0.427-0.104,0.854-0.217,1.28-0.332c0.308-0.088,0.615-0.181,0.922-0.273
			c0.306-0.096,0.609-0.195,0.912-0.296c0.303-0.103,0.604-0.212,0.904-0.319c0.301-0.109,0.6-0.227,0.897-0.341
			c0.298-0.117,0.594-0.24,0.89-0.362c0.148-0.063,0.346-0.148,0.493-0.212c0.138-0.059,0.32-0.138,0.457-0.198
			c-0.071,0.032-0.146,0.063-0.222,0.092c-0.076,0.031-0.154,0.061-0.235,0.09c-0.08,0.027-0.163,0.055-0.247,0.082
			c-0.085,0.027-0.171,0.052-0.26,0.076c-0.073,0.021-0.159,0.033-0.234,0.053c8.162-2.902,17.856-8.643,26.965-19.871
			c2.197-2.708,4.181-5.389,6.002-8.043c0.211-0.291,0.423-0.58,0.632-0.871c0.429-0.598,0.848-1.203,1.266-1.809
			c0.415-0.608,0.82-1.226,1.224-1.84c0.403-0.621,0.794-1.248,1.185-1.875l0.521-0.858c-0.204,0.338-0.462,0.661-0.779,0.965
			C99.106,85.213,99.077,85.234,99.056,85.254"/>
	</g>
</g>
<path fill="#FCE42F" d="M39.887,122.633c0,0,13.525,0.72,27.333-10.863c13.808-11.584,37.394-44.01,31.039-71.101
	C91.904,13.576,68.568-0.774,40.256,5.142c-28.314,5.917-45.53,33.044-33.523,78.02C15.55,116.193,39.887,122.633,39.887,122.633"/>
<g>
	<defs>
		<path id="SVGID_3_" d="M40.256,5.143C11.942,11.059-5.275,38.186,6.731,83.163c8.819,33.03,33.156,39.471,33.156,39.471
			s13.524,0.719,27.332-10.863c13.807-11.584,37.394-44.01,31.039-71.102c-5.4-23.023-23.067-36.844-45.627-36.846
			C48.645,3.823,44.509,4.253,40.256,5.143"/>
	</defs>
	<clipPath id="SVGID_4_">
		<use xlink:href="#SVGID_3_"  overflow="visible"/>
	</clipPath>
	<defs>
		<filter id="Adobe_OpacityMaskFilter" filterUnits="userSpaceOnUse" x="-60.114" y="-46.593" width="219.566" height="220.361">
			<feColorMatrix  type="matrix" values="1 0 0 0 0  0 1 0 0 0  0 0 1 0 0  0 0 0 1 0"/>
		</filter>
	</defs>
	<mask maskUnits="userSpaceOnUse" x="-60.114" y="-46.593" width="219.566" height="220.361" id="SVGID_5_">
		<g filter="url(#Adobe_OpacityMaskFilter)">
			
				<linearGradient id="SVGID_6_" gradientUnits="userSpaceOnUse" x1="-922.6826" y1="513.1851" x2="-921.6826" y2="513.1851" gradientTransform="matrix(-61.9695 94.3881 -94.3881 -61.9695 -8663.6953 118915.9609)">
				<stop  offset="0" style="stop-color:#FFFFFF"/>
				<stop  offset="1" style="stop-color:#000000"/>
			</linearGradient>
			<polygon clip-path="url(#SVGID_4_)" fill="url(#SVGID_6_)" points="27.824,-46.593 -60.114,87.349 71.514,173.768 
				159.452,39.826 			"/>
		</g>
	</mask>
	
		<linearGradient id="SVGID_7_" gradientUnits="userSpaceOnUse" x1="-922.6826" y1="513.1851" x2="-921.6826" y2="513.1851" gradientTransform="matrix(-61.9696 94.3881 -94.3881 -61.9696 -8663.8242 118915.9922)">
		<stop  offset="0" style="stop-color:#FCE42F"/>
		<stop  offset="1" style="stop-color:#F57E20"/>
	</linearGradient>
	<polygon clip-path="url(#SVGID_4_)" mask="url(#SVGID_5_)" fill="url(#SVGID_7_)" points="27.824,-46.593 -60.114,87.349 
		71.514,173.768 159.452,39.826 	"/>
</g>
<g>
	<path fill="#F0BA1B" d="M7.985,45.12c0.404-2.213,0.909-4.431,1.522-6.654c1.516-5.501,7.19-16.393,12.576-6.648
		c3.116,5.64,1.938,13.119,2.707,19.299c0.878,7.063,2.751,14.041,6,20.397c6.465,12.648,16.84,18.694,29.633,23.467
		c2.479,0.924,5.545,2.566,6.471,5.225c0.523,1.503,0.219,3.186-0.422,4.643c-2.703,6.162-10.784,10.392-16.819,12.473
		c-7.045,2.428-14.386,0.975-20.351-3.795c-12.075-9.655-18.193-22.62-20.889-37.08C6.436,65.834,6.089,55.516,7.985,45.12"/>
</g>
<g>
	<defs>
		<path id="SVGID_8_" d="M40.256,5.143c-28.313,5.916-45.53,33.043-33.524,78.02c6.605,24.739,21.914,34.561,29.184,37.934
			c-3.255,3.506-5.766,10.392-5.557,11.44c0.327,1.649,3.354,0.897,6.595-1.308c3.242-2.207,3.563,3.729,7.209,3.813
			c2.724,0.063,0.093-8.293-1.412-12.523c4.693-0.438,14.508-2.391,24.47-10.748c13.807-11.584,37.394-44.01,31.039-71.102
			c-5.4-23.025-23.063-36.846-45.627-36.846C48.646,3.823,44.507,4.253,40.256,5.143"/>
	</defs>
	<clipPath id="SVGID_9_">
		<use xlink:href="#SVGID_8_"  overflow="visible"/>
	</clipPath>
	<path clip-path="url(#SVGID_9_)" fill="#FFF4CD" d="M94.088,27.142C86.553,12.296,74.037,3.131,60.413,0.397
		c5.947,0.676,11.662,2.668,16.813,5.92C83.795,11.139,89.624,18.055,94.088,27.142 M66.932,0.659
		c-2.098-0.413-4.28-0.501-6.519-0.262c3.597,0.082,7.09,0.746,10.399,1.977C69.535,1.732,68.239,1.163,66.932,0.659 M62.471-0.782
		c-0.649,0.196-1.336,0.582-2.058,1.179c1.408-0.431,2.774-0.626,4.09-0.589C63.827-0.404,63.148-0.603,62.471-0.782 M60.413,0.397
		c14.263,7.652,26.183,29.108,27.015,59.816c0.924,34.12-18.884,62.37-38.25,65.685c0,0.002,0.004,0.002,0.01,0.002
		c0.789-0.142,1.781-0.353,2.543-0.513c2.953-0.762,3.479-0.963,6.926-2.275c3.57-1.561,4.12-1.882,8.387-4.384
		c3.059-1.964,3.33-2.181,7.859-5.824c2.727-2.362,2.893-2.541,7.186-7.08l0.94-1.077c11.157-13.043,18.306-30.869,16.573-49.609
		C96.838,25.236,79.813,5.908,60.413,0.397 M60.413,0.397C47.313,3.371,32.044,20.178,22.598,49.128
		c-7.371,22.585-6.087,45.498,0.13,60.261c2.687,2.857,5.546,5.435,8.529,7.684c-4.588-12.587-4.833-37.523,2.004-63.644
		C41.014,23.798,51.814,5.187,60.413,0.397 M60.413,0.397c5.879,7.818,9.472,29.436,7.153,60.205
		c-2.401,31.908-12.651,58.496-21.478,64.436c0.119,0.037,0.236,0.086,0.354,0.123c0.66,0.211,1.32,0.379,1.977,0.545
		c14.373-4.414,29.467-31.627,30.088-64.75C79.089,30.132,70.911,8.364,60.413,0.397 M60.413,0.397
		c-3.914,6.178-10.056,26.169-16.054,56.32c-5.676,28.559-7.942,54.345-6.815,64.499c1.677,0.949,3.369,1.785,5.082,2.51
		c3.729-7.79,9.776-34.004,13.845-64.495C60.545,28.679,61.611,7.634,60.413,0.397 M60.413,0.397
		C41.645-0.397,20.737,12.664,9.162,40.196c-5.273,12.545-6.255,26.09-4.159,38.641c2.073,6.76,5.091,13.182,8.786,19.01
		c-5.273-15.235-5.897-34.678,1.036-53.027C25.502,16.553,44.031,1.554,60.413,0.397 M60.413,0.397
		c0.149-0.726,0.269-1.246,0.353-1.583c-0.621-0.135-1.246-0.256-1.869-0.361C59.432-1.111,59.939-0.475,60.413,0.397 M94.63,28.246
		c0.014,0.027,0.026,0.053,0.039,0.081C94.656,28.299,94.644,28.273,94.63,28.246 M53.782-2.082
		c2.247,0.412,4.474,1.236,6.631,2.479c-1.147-1.019-2.339-1.76-3.56-2.238C55.831-1.961,54.809-2.039,53.782-2.082 M60.413,0.397
		C56.588-1.207,52.639-2.016,48.7-1.985C43.325-1.549,38.003-0.06,32.972,2.449C41.749-1.783,51.332-2.343,60.413,0.397
		 M60.413,0.397C44.339-3.048,26.877,2.558,14.428,18.646C9.375,25.743,5.459,34.615,3.254,45.192
		c0.813-3.116,1.857-6.184,3.19-9.165C18.45,9.156,40.492-2.157,60.413,0.397"/>
</g>
<g>
	<g opacity="0.4">
		<g>
			<defs>
				<rect id="SVGID_10_" x="29.497" y="6.99" width="65.909" height="79.91"/>
			</defs>
			<clipPath id="SVGID_11_">
				<use xlink:href="#SVGID_10_"  overflow="visible"/>
			</clipPath>
			<path clip-path="url(#SVGID_11_)" fill="#E8E514" d="M70.08,10.848c11.791,5.954,21.288,14.29,24.184,27.808
				c3.191,14.902-0.356,30.2-10.021,42.051c-4.06,4.976-8.358,7.455-15.022,5.552c-7.185-2.054-15.167-8.812-20.39-13.923
				C37.08,60.841,27.752,42.181,29.772,25.633c0.581-4.755,2.379-8.359,5.731-11.778C43.594,5.603,58.56,5.031,70.08,10.848"/>
		</g>
	</g>
	<path fill="#FEFBEA" d="M73,16.631c3.717,1.954,7.571,6.003,9.235,7.774c4.179,4.451,7.204,10.656,6.5,16.89
		c-0.842,7.455-10.063,3.189-13.237,0.713c-4.656-3.634-12.969-12.019-12.619-18.543C63.168,18.095,67.998,14.003,73,16.631"/>
	<path fill="#FEFBEA" d="M89.008,51.022c1.511,1.709,1.97,4.055,0.492,6.019c-1.135,1.508-3.246,2.203-5.056,1.663
		c-2.659-0.795-3.565-3.818-2.583-6.264c0.723-1.798,2.52-3.365,4.541-3.037c0.992,0.161,1.852,0.792,2.529,1.535
		C88.957,50.965,88.982,50.995,89.008,51.022"/>
	<g opacity="0.08">
		<g>
			<defs>
				<rect id="SVGID_12_" x="11.116" y="80.036" width="13.164" height="23.204"/>
			</defs>
			<clipPath id="SVGID_13_">
				<use xlink:href="#SVGID_12_"  overflow="visible"/>
			</clipPath>
			<path clip-path="url(#SVGID_13_)" fill="#FEFAD2" d="M12.171,80.042c1.966-0.14,2.526,1.788,3.019,3.292
				c0.673,2.057,1.355,4.125,2.299,6.089c1.225,2.546,2.74,4.933,4.163,7.369c0.518,0.886,4.05,5.856,1.987,6.423
				c-0.287,0.079-0.586-0.05-0.849-0.188c-2.006-1.039-3.661-2.67-4.976-4.508C16.564,96.774,8.215,80.323,12.171,80.042"/>
		</g>
	</g>
	<g opacity="0.08">
		<g>
			<defs>
				<rect id="SVGID_14_" x="8.258" y="70.602" width="4.269" height="4.48"/>
			</defs>
			<clipPath id="SVGID_15_">
				<use xlink:href="#SVGID_14_"  overflow="visible"/>
			</clipPath>
			<path clip-path="url(#SVGID_15_)" fill="#FEFAD2" d="M9.585,70.758c2.197-0.931,4.046,2.572,2.159,3.959
				c-1.268,0.933-3.225-0.043-3.461-1.537C8.129,72.206,8.675,71.143,9.585,70.758"/>
		</g>
	</g>
</g>
<g>
	<g>
		<defs>
			<rect id="SVGID_16_" x="36.726" y="121.326" width="9.629" height="8.317"/>
		</defs>
		<clipPath id="SVGID_17_">
			<use xlink:href="#SVGID_16_"  overflow="visible"/>
		</clipPath>
		<path clip-path="url(#SVGID_17_)" fill="#FDCB98" d="M44.255,121.903c0.665,1.363,1.069,3.01,1.603,4.453
			c0.383,1.039,0.688,2.201,0.356,3.289c-1.826-0.412-2.717-4.17-4.933-3.998c-1.631,0.127-2.479,2.367-4.484,2.176
			c-0.452-1.827,1.341-4.326,2.566-5.563C40.922,120.69,42.314,121.481,44.255,121.903"/>
	</g>
</g>
</svg>
