<?xml version="1.0" encoding="utf-8"?>
<!-- Generator: Adobe Illustrator 16.0.0, SVG Export Plug-In . SVG Version: 6.00 Build 0)  -->
<!DOCTYPE svg PUBLIC "-//W3C//DTD SVG 1.1//EN" "http://www.w3.org/Graphics/SVG/1.1/DTD/svg11.dtd">
<svg version="1.1" id="Layer_1" xmlns="http://www.w3.org/2000/svg" xmlns:xlink="http://www.w3.org/1999/xlink" x="0px" y="0px"
	 width="112.346px" height="140.741px" viewBox="0 0 112.346 140.741" enable-background="new 0 0 112.346 140.741"
	 xml:space="preserve">
<g opacity="0.15">
	<g>
		<defs>
			<rect id="SVGID_1_" x="12.194" y="5.23" width="96.94" height="131.467"/>
		</defs>
		<clipPath id="SVGID_2_">
			<use xlink:href="#SVGID_1_"  overflow="visible"/>
		</clipPath>
		<path clip-path="url(#SVGID_2_)" fill="#010101" d="M98.688,86.561c8.279-14.056,11.354-27.169,10.216-38.653
			c-0.002-0.022-0.004-0.049-0.006-0.07c-0.021-0.224-0.052-0.521-0.074-0.744c-0.024-0.241-0.063-0.562-0.09-0.802
			c-0.029-0.239-0.074-0.558-0.107-0.797c-0.034-0.238-0.085-0.555-0.123-0.793c-0.037-0.236-0.095-0.551-0.137-0.787
			c-0.043-0.235-0.105-0.549-0.151-0.783c-0.049-0.233-0.116-0.544-0.166-0.777c-0.052-0.23-0.125-0.539-0.179-0.771
			c-0.056-0.23-0.135-0.536-0.191-0.767c-0.059-0.229-0.142-0.531-0.203-0.76c-0.059-0.211-0.139-0.49-0.198-0.7
			c-0.047-0.168-0.112-0.392-0.161-0.56c-0.05-0.166-0.118-0.388-0.169-0.555c-0.052-0.165-0.123-0.384-0.176-0.549
			c-0.054-0.164-0.128-0.381-0.185-0.544c-0.055-0.161-0.131-0.377-0.188-0.539l-0.177-0.483c0.141,0.379,0.222,0.744,0.256,1.098
			c-1.383-3.788-3.277-7.33-5.652-10.587c-0.016-0.103-0.031-0.205-0.057-0.31c-0.158-0.604-0.501-1.252-1.022-1.933
			c-0.232-0.298-0.545-0.694-0.781-0.989c-0.279-0.343-0.565-0.68-0.852-1.018c-0.29-0.338-0.589-0.669-0.886-1
			c-0.304-0.332-0.613-0.659-0.923-0.984c-0.315-0.326-0.638-0.646-0.959-0.967c-0.353-0.345-0.713-0.682-1.072-1.02
			c-0.345-0.313-0.695-0.621-1.045-0.928c-0.359-0.311-0.728-0.615-1.093-0.918c-0.377-0.309-0.762-0.609-1.146-0.91
			c-0.398-0.307-0.803-0.604-1.208-0.903l-0.563-0.402c1.006,0.707,1.793,1.394,2.349,2.038c0.434,0.504,0.721,0.982,0.863,1.43
			c-0.797-0.652-1.611-1.289-2.458-1.904c-2.867-2.074-5.791-3.838-8.744-5.303c-0.228-0.187-0.486-0.377-0.788-0.572
			C79.748,9.6,78.864,9.136,77.806,8.68c-1.058-0.455-2.188-0.861-3.328-1.204c-1.142-0.343-2.29-0.624-3.384-0.832
			c-0.611-0.115-1.198-0.201-1.764-0.269c-4.682-1.035-9.352-1.334-13.915-0.914c0.05-0.01,0.097-0.021,0.147-0.029
			c0.192-0.034,0.393-0.063,0.598-0.089c0.205-0.025,0.417-0.048,0.635-0.067c0.218-0.018,0.44-0.033,0.669-0.046l-0.692,0.041
			c-0.504,0.032-1.006,0.078-1.508,0.123c-0.487,0.047-0.974,0.104-1.459,0.161c-0.475,0.059-0.948,0.128-1.421,0.195
			c-0.463,0.072-0.925,0.151-1.387,0.232c-0.603,0.114-1.205,0.239-1.805,0.369c-0.3,0.068-0.697,0.163-0.995,0.234
			c-0.438,0.107-0.876,0.225-1.313,0.343c-0.432,0.118-0.861,0.247-1.291,0.375c-0.425,0.131-0.847,0.271-1.269,0.409
			c-0.359,0.123-0.837,0.291-1.194,0.421c-0.871,0.321-1.521,0.717-1.974,1.171c-3.962,1.839-7.729,4.309-11.227,7.384
			c0.156-0.784,0.617-1.487,1.41-2.088l-0.41,0.313c-0.137,0.105-0.315,0.248-0.451,0.355c-0.135,0.107-0.313,0.253-0.447,0.361
			c-0.135,0.109-0.311,0.259-0.445,0.369c-0.133,0.113-0.309,0.266-0.44,0.379c-0.132,0.115-0.307,0.271-0.438,0.387
			c-0.165,0.145-0.382,0.34-0.545,0.486c-0.177,0.158-0.407,0.373-0.581,0.533c-0.174,0.162-0.403,0.381-0.575,0.545
			c-0.172,0.166-0.397,0.39-0.567,0.557c-0.169,0.169-0.392,0.396-0.559,0.568s-0.386,0.404-0.551,0.578
			c-0.164,0.176-0.379,0.414-0.54,0.592c-0.162,0.18-0.372,0.422-0.532,0.604c-0.158,0.184-0.363,0.432-0.52,0.617
			c-0.154,0.188-0.356,0.439-0.508,0.629c-0.198,0.102-0.325,0.411-0.465,0.588c-0.143,0.186-0.331,0.436-0.472,0.623l-0.216,0.291
			c-0.506,0.689-0.736,1.462-0.702,2.298c-2.433,3.555-4.276,7.495-5.624,11.678c-0.235-0.928-0.209-1.795,0.098-2.585l-0.284,0.75
			v0.001c-0.095,0.255-0.213,0.598-0.305,0.854c-0.085,0.235-0.195,0.549-0.279,0.784c-0.087,0.255-0.2,0.596-0.285,0.851
			c-0.083,0.257-0.19,0.601-0.272,0.857c-0.079,0.259-0.181,0.604-0.258,0.863c-0.075,0.26-0.172,0.607-0.246,0.869
			c-0.071,0.262-0.162,0.612-0.232,0.875c-0.068,0.264-0.154,0.616-0.221,0.881c-0.064,0.266-0.145,0.621-0.208,0.888
			c-0.061,0.268-0.138,0.625-0.197,0.894c-0.058,0.27-0.131,0.63-0.186,0.9c-0.119,0.624-0.271,1.457-0.383,2.083
			c-0.168,0.984,0.055,2.07,0.617,3.228c-0.396,3.884-0.503,7.832-0.365,11.755c-0.347-0.803-0.535-1.572-0.514-2.29l-0.023,1.002
			c-0.016,0.737-0.013,1.474-0.014,2.212c0.005,0.734,0.023,1.47,0.04,2.205c0.022,0.732,0.057,1.466,0.092,2.198
			c0.034,0.719,0.08,1.437,0.126,2.153c0.05,0.725,0.112,1.447,0.174,2.17l0.045,0.493c0.099,1.027,0.585,2.147,1.425,3.332
			c0.584,3.583,1.318,7.037,2.153,10.275c0.08,0.362,0.159,0.725,0.241,1.086c0.155,0.669,0.319,1.337,0.483,2.003
			c0.098,0.368,0.2,0.736,0.302,1.104c0.096,0.343,0.195,0.684,0.294,1.025c0.099,0.34,0.202,0.68,0.305,1.019
			c0.104,0.338,0.211,0.675,0.317,1.012c0.108,0.335,0.219,0.67,0.33,1.003c0.112,0.333,0.228,0.665,0.344,0.996
			c0.116,0.33,0.237,0.66,0.358,0.988l0.149,0.398c0.178,0.47,0.457,0.961,0.814,1.466c0.54,1.327,1.085,2.567,1.629,3.688
			c1.749,3.602,3.734,6.641,5.763,9.193c0.115,0.16,0.23,0.321,0.346,0.479c0.194,0.262,0.393,0.521,0.593,0.777
			c0.201,0.258,0.408,0.511,0.615,0.764c0.21,0.254,0.425,0.502,0.64,0.751c0.219,0.249,0.443,0.493,0.667,0.736
			c0.229,0.246,0.465,0.486,0.699,0.726c0.271,0.271,0.548,0.535,0.825,0.799c0.256,0.237,0.517,0.47,0.778,0.699
			c0.139,0.12,0.325,0.277,0.465,0.395c0.491,0.405,1.071,0.812,1.71,1.214c1.879,1.479,3.561,2.546,4.845,3.271
			c-3.102,3.248-8.914,9.8-6.402,10.854c3.361,1.413,6.077-3.874,8.136-0.536c2.06,3.337,4.515,5.259,5.487,3.887
			c0.618-0.872,1.139-8.184-0.4-12.713c0.769-0.01,1.637-0.049,2.578-0.12c0.456,0.027,0.907,0.043,1.346,0.037
			c1.324-0.063,2.038-0.157,2.795-0.258c0.327-0.046,0.653-0.102,0.979-0.156c0.321-0.056,0.642-0.12,0.962-0.185
			c0.316-0.065,0.632-0.139,0.947-0.212c0.428-0.105,0.854-0.217,1.28-0.334c0.309-0.086,0.615-0.179,0.922-0.272
			c0.306-0.095,0.609-0.195,0.913-0.296c0.303-0.103,0.604-0.211,0.904-0.318c0.3-0.11,0.599-0.227,0.896-0.342
			c0.298-0.117,0.595-0.24,0.891-0.362c0.148-0.063,0.345-0.148,0.493-0.212c0.138-0.059,0.319-0.138,0.457-0.197
			c-0.072,0.031-0.146,0.063-0.222,0.092c-0.077,0.03-0.155,0.061-0.235,0.089c-0.081,0.027-0.163,0.056-0.248,0.082
			c-0.084,0.026-0.17,0.053-0.26,0.077c-0.072,0.021-0.158,0.032-0.233,0.052c8.162-2.901,17.856-8.644,26.965-19.871
			c2.197-2.708,4.181-5.389,6.002-8.043c0.211-0.291,0.423-0.579,0.632-0.872c0.429-0.596,0.848-1.202,1.266-1.807
			c0.415-0.608,0.82-1.226,1.224-1.842c0.402-0.619,0.793-1.247,1.185-1.874l0.521-0.858c-0.203,0.338-0.461,0.661-0.778,0.966
			C98.738,86.52,98.711,86.54,98.688,86.561"/>
	</g>
</g>
<path fill="#41B6E9" d="M36.89,119.498c0,0-10.647,12.126-7.187,13.273c3.462,1.147,5.76-4.334,8.071-1.167
	c2.312,3.168,4.909,4.894,5.771,3.45C44.408,133.612,43.804,116.315,36.89,119.498"/>
<g>
	<g>
		<defs>
			<rect id="SVGID_3_" x="32.296" y="122.397" width="9.966" height="8.083"/>
		</defs>
		<clipPath id="SVGID_4_">
			<use xlink:href="#SVGID_3_"  overflow="visible"/>
		</clipPath>
		<path clip-path="url(#SVGID_4_)" fill="#84D4F6" d="M36.745,122.397c-1.085,1.06-2.021,2.474-3.007,3.653
			c-0.711,0.851-1.389,1.843-1.442,2.977c1.858,0.227,3.962-3.012,5.99-2.104c1.492,0.667,1.539,3.063,3.491,3.557
			c1.04-1.569,0.192-4.525-0.547-6.103C40.292,122.375,38.715,122.651,36.745,122.397"/>
	</g>
</g>
<path fill="#41B6E9" d="M37.903,122.523c0,0-12.979-3.871-22.086-19.424s-20.413-54.021-5.316-77.397
	C25.598,2.324,52.4-3.341,77.074,11.754c24.674,15.095,31.763,46.432,5.328,84.749C62.988,124.644,37.903,122.523,37.903,122.523"/>
<g>
	<defs>
		<path id="SVGID_5_" d="M10.501,25.701c-15.097,23.377-3.791,61.846,5.316,77.398c9.106,15.553,22.086,19.424,22.086,19.424
			s25.085,2.121,44.499-26.019c26.435-38.318,19.345-69.655-5.328-84.75C67.851,6.111,58.331,3.37,49.235,3.37
			C33.999,3.37,19.954,11.063,10.501,25.701"/>
	</defs>
	<clipPath id="SVGID_6_">
		<use xlink:href="#SVGID_5_"  overflow="visible"/>
	</clipPath>
	<defs>
		<filter id="Adobe_OpacityMaskFilter" filterUnits="userSpaceOnUse" x="-32.364" y="-22.604" width="168.97" height="173.221">
			<feColorMatrix  type="matrix" values="1 0 0 0 0  0 1 0 0 0  0 0 1 0 0  0 0 0 1 0"/>
		</filter>
	</defs>
	<mask maskUnits="userSpaceOnUse" x="-32.364" y="-22.604" width="168.97" height="173.221" id="SVGID_7_">
		<g filter="url(#Adobe_OpacityMaskFilter)">
			
				<linearGradient id="SVGID_8_" gradientUnits="userSpaceOnUse" x1="-897.771" y1="451.4673" x2="-896.771" y2="451.4673" gradientTransform="matrix(26.6032 109.7356 109.7356 -26.6032 -25617.793 110544.5156)">
				<stop  offset="0" style="stop-color:#FFFFFF"/>
				<stop  offset="1" style="stop-color:#000000"/>
			</linearGradient>
			<polygon clip-path="url(#SVGID_6_)" fill="url(#SVGID_8_)" points="102.54,-22.604 136.605,117.912 1.701,150.617 
				-32.365,10.101 			"/>
		</g>
	</mask>
	
		<linearGradient id="SVGID_9_" gradientUnits="userSpaceOnUse" x1="-897.771" y1="451.4673" x2="-896.771" y2="451.4673" gradientTransform="matrix(26.6033 109.7356 109.7356 -26.6033 -25617.7891 110544.6406)">
		<stop  offset="0" style="stop-color:#8FD8F8"/>
		<stop  offset="1" style="stop-color:#218AB5"/>
	</linearGradient>
	<polygon clip-path="url(#SVGID_6_)" mask="url(#SVGID_7_)" fill="url(#SVGID_9_)" points="102.54,-22.604 136.605,117.912 
		1.701,150.617 -32.364,10.101 	"/>
</g>
<g>
	<path fill="#298CC2" d="M94.018,60.256c0.364-2.221,0.634-4.479,0.805-6.779c0.423-5.689-1.257-17.855-9.606-10.489
		c-4.832,4.263-6.238,11.702-9.04,17.264c-3.203,6.356-7.314,12.298-12.512,17.19c-10.343,9.737-22.147,11.942-35.799,12.133
		c-2.645,0.035-6.086,0.552-7.851,2.745c-0.999,1.238-1.278,2.926-1.166,4.513c0.474,6.713,6.662,13.413,11.646,17.402
		c5.817,4.657,13.22,5.758,20.441,3.272c14.619-5.032,24.741-15.184,32.144-27.895C88.51,80.286,92.307,70.685,94.018,60.256"/>
	<g opacity="0.08">
		<g>
			<defs>
				<rect id="SVGID_10_" x="7.361" y="6.824" width="73.232" height="71.621"/>
			</defs>
			<clipPath id="SVGID_11_">
				<use xlink:href="#SVGID_10_"  overflow="visible"/>
			</clipPath>
			<g clip-path="url(#SVGID_11_)">
				<defs>
					<path id="SVGID_12_" d="M47.069,7.096c-13.107,1.641-24.855,6.296-32.128,18.053C6.923,38.11,5.118,53.709,10.235,68.121
						c2.149,6.052,5.363,9.833,12.279,10.281c7.457,0.482,17.248-3.197,23.885-6.253c14.931-6.874,29.991-21.31,33.655-37.572
						c1.053-4.674,0.571-8.673-1.436-13.019C73.776,11.065,59.874,5.492,47.069,7.096"/>
				</defs>
				<clipPath id="SVGID_13_">
					<use xlink:href="#SVGID_12_"  overflow="visible"/>
				</clipPath>
				<defs>
					
						<filter id="Adobe_OpacityMaskFilter_1_" filterUnits="userSpaceOnUse" x="-20.192" y="-20.714" width="126.61" height="125.804">
						<feColorMatrix  type="matrix" values="1 0 0 0 0  0 1 0 0 0  0 0 1 0 0  0 0 0 1 0"/>
					</filter>
				</defs>
				<mask maskUnits="userSpaceOnUse" x="-20.192" y="-20.714" width="126.61" height="125.804" id="SVGID_14_">
					<g filter="url(#Adobe_OpacityMaskFilter_1_)">
						
							<linearGradient id="SVGID_15_" gradientUnits="userSpaceOnUse" x1="-897.7881" y1="451.3462" x2="-896.7877" y2="451.3462" gradientTransform="matrix(32.0345 80.0745 80.0745 -32.0345 -7355.8359 86345.875)">
							<stop  offset="0" style="stop-color:#FFFFFF"/>
							<stop  offset="0.1901" style="stop-color:#D3D3D3"/>
							<stop  offset="0.6159" style="stop-color:#676767"/>
							<stop  offset="1" style="stop-color:#000000"/>
						</linearGradient>
						<polygon clip-path="url(#SVGID_13_)" fill="url(#SVGID_15_)" points="70.623,-20.714 106.417,68.758 15.602,105.09 
							-20.192,15.618 						"/>
					</g>
				</mask>
				
					<linearGradient id="SVGID_16_" gradientUnits="userSpaceOnUse" x1="-897.7871" y1="451.3442" x2="-896.7867" y2="451.3442" gradientTransform="matrix(32.0345 80.0745 80.0745 -32.0345 -7355.7695 86345.8438)">
					<stop  offset="0" style="stop-color:#FFE1A4"/>
					<stop  offset="0.2912" style="stop-color:#D3D5B8"/>
					<stop  offset="0.9467" style="stop-color:#55B8E3"/>
					<stop  offset="1" style="stop-color:#41B6E9"/>
				</linearGradient>
				<polygon clip-path="url(#SVGID_13_)" mask="url(#SVGID_14_)" fill="url(#SVGID_16_)" points="70.623,-20.714 106.418,68.758 
					15.602,105.09 -20.192,15.618 				"/>
			</g>
		</g>
	</g>
	<g opacity="0.08">
		<g>
			<defs>
				<rect id="SVGID_17_" x="59.366" y="91.527" width="19.588" height="18.313"/>
			</defs>
			<clipPath id="SVGID_18_">
				<use xlink:href="#SVGID_17_"  overflow="visible"/>
			</clipPath>
			<path clip-path="url(#SVGID_18_)" fill="#EFF4D1" d="M78.33,91.736c-1.806-0.792-2.98,0.835-3.95,2.086
				c-1.326,1.71-2.664,3.429-4.214,4.96c-2.01,1.986-4.239,3.726-6.398,5.54c-0.786,0.66-5.784,4.153-4.031,5.381
				c0.243,0.171,0.567,0.149,0.863,0.109c2.237-0.304,4.345-1.285,6.201-2.572C68.565,106.015,81.961,93.331,78.33,91.736"/>
		</g>
	</g>
	<g opacity="0.08">
		<g>
			<defs>
				<rect id="SVGID_19_" x="80.194" y="83.366" width="4.37" height="4.355"/>
			</defs>
			<clipPath id="SVGID_20_">
				<use xlink:href="#SVGID_19_"  overflow="visible"/>
			</clipPath>
			<path clip-path="url(#SVGID_20_)" fill="#EFF4D1" d="M83.888,83.863c-1.757-1.615-4.676,1.063-3.365,3.003
				c0.881,1.304,3.052,1.045,3.776-0.284C84.771,85.716,84.615,84.532,83.888,83.863"/>
		</g>
	</g>
	<path fill="#E9F7FE" d="M42.374,11.56c-4.158,0.589-9.15,3.106-11.313,4.215c-5.433,2.786-10.371,7.613-11.803,13.721
		c-0.542,2.313,0.227,4.751,3.029,4.811c1.703,0.036,3.265-0.876,4.722-1.758c4.807-2.909,9.613-5.818,14.419-8.729
		c3.278-1.983,9.462-5.519,6.866-10.302C47.239,11.575,44.969,11.192,42.374,11.56"/>
	<path fill="#E9F7FE" d="M15.731,38.563c-1.998,1.103-3.218,3.156-2.488,5.502c0.561,1.804,2.316,3.168,4.201,3.268
		c2.772,0.146,4.643-2.396,4.54-5.03c-0.075-1.937-1.24-4.017-3.254-4.387c-0.989-0.182-2.011,0.122-2.899,0.594
		C15.798,38.527,15.764,38.545,15.731,38.563"/>
	<path fill="#FFFFFF" d="M44.355,11.247c1.13,0.943-1.775,3.467-4.037,3.504c-1.498,0.023-1.803-1.026-0.615-2.119
		c0.123-0.115,0.297-0.258,0.436-0.358C41.217,11.493,43.343,10.679,44.355,11.247 M50.461,4.55
		c0.002-0.011,0.004-0.021,0.007-0.031c-0.192-0.188-2.072-0.16-3.659,0.06c-1.653,0.228-2.75,0.604-2.813,0.828
		C43.863,5.847,49.906,5.045,50.461,4.55 M24.957,42.705c-0.796,2.89,1.709,5.439,4.541,4.63c3.188-0.915,4.118-5.354,0.659-7.174
		C27.365,39.027,25.437,40.967,24.957,42.705 M37.72,33.976c-0.825,2.647,2.236,4.938,5.121,3.834
		c2.847-1.09,3.399-4.758,0.151-6.141C40.439,30.846,38.266,32.226,37.72,33.976 M15.563,84.464
		c2.284-0.487,1.827-4.893-1.341-6.885c-2.307-1.184-3.019,0.685-2.789,2.388C11.784,82.558,13.868,84.827,15.563,84.464
		 M48.024,3.104c-1.271,0.061-3.145,0.3-3.295,0.557c0.295,0.213,5.676-0.194,6.193-0.332c0.011-0.006,0.032-0.017,0.046-0.021
		c0.003-0.014,0.006-0.031,0.009-0.043C50.731,3.136,49.464,3.042,48.024,3.104 M48.22,6.411c-1.622,0.461-2.314,1.023-1.944,1.258
		c0.729,0.467,5.863-1.024,5.724-1.664C51.718,5.741,49.63,6.009,48.22,6.411 M41.733,19.559c-1.914-0.784-3.945,0.514-4.715,1.637
		c-1.342,1.954,0.217,3.827,2.727,3.287C42.379,23.918,44.029,20.829,41.733,19.559 M24.21,74.644
		c2.933-0.803,2.821-5.167-1.017-7.077c-3.03-1.202-4.384,0.734-4.382,2.494C18.815,72.893,21.691,75.333,24.21,74.644
		 M80.103,25.452c-1.919-0.043-2.057,1.877-1.548,3.188c0.795,2.037,3.042,3.249,4.369,2.354
		C84.614,29.855,83.016,25.834,80.103,25.452 M76.321,36.759c-2.438-0.213-3.681,1.652-3.437,3.503
		c0.336,2.499,3.189,4.093,5.264,2.94C80.699,41.785,79.967,37.437,76.321,36.759 M63.204,51.73
		c-0.028,2.964,3.386,4.911,6.092,3.473c3.042-1.623,2.8-6.159-1.266-7.135C65.075,47.642,63.225,49.639,63.204,51.73
		 M78.999,16.605c-1.286,0.074-0.347,1.873,0.306,2.735c1.324,1.729,3.045,2.41,3.646,1.84
		C83.99,20.192,81.034,16.771,78.999,16.605 M35.651,65.26c3.428-1.284,3.739-6.396-0.44-8.194
		c-3.143-1.013-5.332,0.893-5.563,3.243C29.317,63.661,32.626,66.391,35.651,65.26 M50.359,65.189
		c-0.231,3.339,3.271,5.663,6.351,4.219c3.485-1.638,3.646-6.703-0.71-8.018C52.727,60.733,50.523,62.85,50.359,65.189
		 M59.268,11.825c1.416-0.488,1.751-2.609,0.769-3.061c-0.774-0.223-1.836,0.64-2.225,1.329c-0.026,0.046-0.058,0.108-0.079,0.159
		C57.191,11.431,58.186,12.193,59.268,11.825 M50.368,25.22c-0.605,2.252,2.125,4.046,4.497,2.955
		c2.23-1.027,2.447-4.171-0.263-5.146C52.378,22.456,50.712,23.932,50.368,25.22 M51.802,116.601
		c-1.899-0.254-3.475,0.63-3.752,1.61c-0.016,0.054-0.027,0.118-0.034,0.171c-0.199,1.481,2.364,2.011,4.219,0.876
		C53.644,118.394,53.771,117.015,51.802,116.601 M75.136,99.95c-2.277-0.013-4.428,1.641-5.012,3.189
		c-0.058,0.159-0.118,0.375-0.143,0.538c-0.276,1.918,2.104,2.622,4.688,0.738C76.766,102.896,77.824,100.233,75.136,99.95
		 M59.066,104.379c2.304-1.232,2.895-4.218-0.577-4.979c-2.809-0.381-4.788,1.104-5.015,2.699
		C53.145,104.451,56.436,105.794,59.066,104.379 M16.482,23.196c-1.332,1.713-1.649,3.508-0.68,3.833
		c1.544,0.521,5.345-3.546,4.305-5.526C19.375,20.611,17.653,21.686,16.482,23.196 M11.601,92.75
		c1.444-0.205,0.395-4.61-1.967-6.553c-0.06-0.04-0.139-0.1-0.202-0.136c-1.114-0.688-1.536,0.424-0.945,2.478
		c0.059,0.192,0.124,0.375,0.192,0.56c0.063,0.165,0.121,0.331,0.185,0.492C9.621,91.419,10.814,92.861,11.601,92.75 M28.312,11.459
		c-0.129-0.654-1.862,0.017-3.339,1.031c-1.561,1.072-2.574,2.303-2.208,2.695C23.467,15.939,28.185,12.772,28.312,11.459
		 M83.114,76.764c-2.607-0.028-4.649,2.015-4.918,3.94c-0.379,2.754,2.635,3.979,5.203,2.121
		C85.844,81.058,86.563,77.151,83.114,76.764 M39.553,8.306c-0.349-0.491-2.397-0.048-3.931,0.662
		c-1.632,0.754-2.54,1.717-1.936,2.052C34.8,11.646,39.794,9.336,39.553,8.306 M14.184,41.297c2.4,0.161,4.934-4.886,2.716-7.047
		c-1.588-1.158-3.304,0.704-3.968,2.329C11.992,38.896,12.599,41.19,14.184,41.297 M48.45,15.756
		c-0.837,1.531,0.656,2.854,2.616,2.32c2.256-0.615,3.165-3.211,1.411-4.027c-1.511-0.506-3.268,0.564-3.899,1.496
		C48.534,15.605,48.486,15.692,48.45,15.756 M28.611,26.708c-1.908-1.016-3.944,0.539-4.722,1.91
		c-1.27,2.238-0.084,4.416,2.232,4.088C28.951,32.3,31.016,28.403,28.611,26.708 M51.996,10.012C53.771,9.886,55.993,8.01,55.35,7.5
		c-0.633-0.289-2.418,0.32-3.323,0.85c-0.341,0.197-0.638,0.428-0.814,0.63C50.653,9.61,51.016,10.081,51.996,10.012 M8.963,68.466
		c2.046-0.156,2.361-5.113-0.135-7.305c-1.746-1.229-2.562,0.722-2.579,2.501C6.22,66.241,7.542,68.576,8.963,68.466 M16.648,59.371
		c2.956-0.409,4.148-6.157,0.9-8.402c-2.386-1.261-3.886,1.01-4.193,3.023C12.908,56.946,14.573,59.663,16.648,59.371
		 M28.034,19.879c2.032,0.224,5.802-2.961,4.5-4.42c-1.038-0.783-3.167,0.229-4.302,1.259
		C26.651,18.152,26.556,19.718,28.034,19.879 M65.538,82.306c2.718-1.706,2.495-5.313-1.303-6.169
		c-3.198-0.446-5.332,1.396-5.473,3.354C58.548,82.464,62.603,84.147,65.538,82.306 M92.998,70.398
		c0.659-0.569,1.186-1.418,1.544-2.342c0.169-0.719,0.34-1.437,0.489-2.162c0.099-1.689-0.51-3.16-2.169-3.272
		c-2.24,0.168-3.771,2.731-3.896,5.013C88.795,70.704,90.941,72.176,92.998,70.398 M44.643,79.662
		c3.077-1.276,2.809-5.285-1.347-6.681c-3.284-0.82-5.355,0.834-5.399,2.834C37.842,78.7,41.688,80.892,44.643,79.662
		 M88.093,40.201c0.705,2.342,2.921,3.569,4.309,2.383c1.87-1.598,0.594-6.224-2.449-6.389
		C87.904,36.346,87.63,38.672,88.093,40.201 M64.135,11.208c0.307,1.346,1.575,2.123,2.297,1.72
		c1.069-0.601-0.219-3.028-1.514-3.427C63.989,9.338,64.021,10.698,64.135,11.208 M85.448,48.644
		c-2.489-0.042-3.825,2.174-3.637,4.25c0.253,2.811,2.967,4.348,5.091,2.877C89.53,53.96,89.04,49.105,85.448,48.644 M89.251,27.62
		c0.571,0.893,1.841,2.311,3.065,2.148c-0.221-0.502-0.452-0.994-0.687-1.481c-0.83-1.439-1.7-2.844-2.646-4.175
		C88.082,24.31,88.211,25.981,89.251,27.62 M38.484,5.638c0.012-0.017,0.031-0.039,0.037-0.058c0.111-0.289-1.287-0.121-3.076,0.487
		s-3.128,1.377-3.088,1.636C32.434,8.165,37.701,6.386,38.484,5.638 M71.149,94.958c2.382-1.529,3.073-4.879-0.435-5.476
		c-2.776-0.221-4.983,1.537-5.296,3.319C64.953,95.448,68.38,96.74,71.149,94.958 M76.836,71.108c3.134-2.016,3.239-7.01-0.704-7.79
		c-2.974-0.266-4.951,2.07-5.073,4.391C70.881,71.012,74.065,72.888,76.836,71.108 M62.369,113.425
		c1.75-1.125,2.568-3.16,0.068-3.569c-2.185-0.172-4.175,1.084-4.664,2.364c-0.025,0.067-0.051,0.155-0.068,0.223
		C57.258,114.241,59.79,115.073,62.369,113.425 M82.17,92.73c-0.087,0.28-0.154,0.64-0.159,0.887
		c-0.023,0.764,0.315,1.292,0.876,1.505c1.313-2.01,2.556-4.101,3.722-6.261C84.6,89.171,82.713,91.055,82.17,92.73 M5.313,52.913
		c1.502,0.421,3.365-5.833,1.794-8.329c-1.044-1.217-2.071,1.037-2.475,3.027C4.11,50.238,4.419,52.666,5.313,52.913 M4.15,71.416
		c-0.047-0.052-0.107-0.116-0.169-0.174c0.351,2.47,0.821,4.896,1.393,7.275C6.225,77.921,5.731,73.505,4.15,71.416 M38.752,114.634
		c-2.01-0.488-3.049,0.36-2.756,1.455c0.376,1.418,2.674,2.681,4.24,1.938C41.598,117.386,41.378,115.463,38.752,114.634
		 M74.66,11.133c0.67,0.463,2.295,1.523,3.002,1.402l0.02-0.01c-1.659-1.234-3.373-2.361-5.137-3.369
		C72.134,9.216,73.563,10.372,74.66,11.133 M69.318,9.643c-0.837-0.044,0.349,1.518,0.708,1.936
		c1.104,1.276,2.349,1.877,2.816,1.638C73.715,12.765,70.947,9.961,69.318,9.643 M55.309,38.126c-0.19,2.602,2.971,4.552,5.549,3.42
		c2.794-1.224,2.701-5.293-0.93-6.353C57.251,34.66,55.447,36.297,55.309,38.126 M48.707,45.158
		c-3.031-0.775-5.205,0.982-5.479,3.055c-0.388,2.939,2.935,5.279,5.93,4.17C52.53,51.134,52.825,46.605,48.707,45.158
		 M62.041,16.038c-1.604-0.332-2.616,0.969-2.732,2.037c-0.201,1.922,1.984,3.088,3.481,2.309
		C64.541,19.478,64.059,16.676,62.041,16.038 M64.964,27.79c0.191,2.266,2.931,3.764,4.802,2.629
		c1.951-1.184,1.215-4.647-1.75-5.371C65.741,24.716,64.848,26.486,64.964,27.79 M73.711,21.557
		c1.567-0.876-0.146-4.168-2.408-4.633c-1.527-0.147-1.662,1.377-1.271,2.455C70.688,21.193,72.659,22.144,73.711,21.557
		 M22.3,91.846c-2.693-1.06-3.407,0.635-3.049,2.175c0.56,2.441,3.213,4.483,5.065,3.901C26.532,97.234,25.699,93.482,22.3,91.846
		 M41.473,102.15c2.344-0.95,2.405-4.272-1.445-5.53c-2.901-0.719-4.556,0.653-4.423,2.33
		C35.787,101.318,39.077,103.111,41.473,102.15 M52.686,93.465c2.383-1.301,2.598-4.743-1.387-5.841
		c-3.158-0.608-5.184,0.988-5.246,2.817C45.963,93.225,49.867,95.002,52.686,93.465 M31.057,105.063
		c-2.438-0.758-3.479,0.365-3.043,1.838c0.558,1.887,3.297,3.746,5.118,2.983C34.864,109.156,34.376,106.344,31.057,105.063
		 M24.968,112.768c0.894,1.451,2.963,2.957,3.93,2.573c1.045-0.414-0.095-2.896-2.676-4.081c-0.14-0.053-0.33-0.126-0.478-0.168
		C24.532,110.777,24.19,111.511,24.968,112.768 M20.135,105.844c1.249-0.373,0.135-3.801-2.621-5.457
		c-0.137-0.07-0.316-0.161-0.462-0.211c-1.157-0.396-1.481,0.565-0.74,2.19C17.231,104.38,19.161,106.135,20.135,105.844
		 M47.927,112.609c1.957-0.938,2.234-3.382-0.927-4.23c-2.437-0.462-4.087,0.674-4.099,2.032
		C42.882,112.194,45.624,113.71,47.927,112.609 M32.994,89.851c2.659-1.057,2.103-4.864-1.744-6.396
		c-3.031-0.951-4.735,0.515-4.577,2.422C26.904,88.631,30.446,90.863,32.994,89.851"/>
</g>
</svg>
