<?xml version="1.0" encoding="utf-8"?>
<!-- Generator: Adobe Illustrator 16.0.0, SVG Export Plug-In . SVG Version: 6.00 Build 0)  -->
<!DOCTYPE svg PUBLIC "-//W3C//DTD SVG 1.1//EN" "http://www.w3.org/Graphics/SVG/1.1/DTD/svg11.dtd">
<svg version="1.1" id="Layer_1" xmlns="http://www.w3.org/2000/svg" xmlns:xlink="http://www.w3.org/1999/xlink" x="0px" y="0px"
	 width="122.222px" height="140.741px" viewBox="0 0 122.222 140.741" enable-background="new 0 0 122.222 140.741"
	 xml:space="preserve">
<g opacity="0.15">
	<g>
		<defs>
			<rect id="SVGID_1_" x="22.776" y="6.44" width="96.943" height="131.467"/>
		</defs>
		<clipPath id="SVGID_2_">
			<use xlink:href="#SVGID_1_"  overflow="visible"/>
		</clipPath>
		<path clip-path="url(#SVGID_2_)" fill="#010101" d="M109.271,87.771c8.28-14.055,11.355-27.169,10.216-38.654
			c-0.002-0.022-0.004-0.049-0.006-0.069c-0.021-0.224-0.051-0.522-0.074-0.745c-0.023-0.24-0.063-0.561-0.09-0.801
			c-0.029-0.24-0.074-0.559-0.106-0.797c-0.034-0.239-0.086-0.556-0.123-0.793c-0.038-0.237-0.096-0.552-0.137-0.787
			c-0.044-0.236-0.106-0.549-0.152-0.784c-0.047-0.233-0.116-0.544-0.166-0.777c-0.051-0.232-0.125-0.54-0.179-0.771
			c-0.055-0.23-0.134-0.536-0.191-0.766c-0.059-0.229-0.142-0.532-0.202-0.76c-0.059-0.21-0.139-0.49-0.198-0.7
			c-0.047-0.169-0.113-0.392-0.162-0.56c-0.049-0.166-0.117-0.388-0.168-0.554c-0.052-0.165-0.123-0.384-0.177-0.549
			c-0.054-0.164-0.128-0.381-0.184-0.545c-0.055-0.161-0.132-0.376-0.188-0.538l-0.177-0.484c0.141,0.379,0.221,0.744,0.255,1.098
			c-1.383-3.788-3.277-7.331-5.651-10.587c-0.017-0.103-0.031-0.205-0.058-0.31c-0.157-0.604-0.501-1.251-1.022-1.932
			c-0.232-0.298-0.545-0.694-0.781-0.989c-0.278-0.343-0.564-0.68-0.851-1.018c-0.291-0.338-0.589-0.669-0.887-1
			c-0.304-0.332-0.613-0.659-0.923-0.984c-0.314-0.326-0.637-0.647-0.959-0.967c-0.353-0.345-0.712-0.682-1.072-1.019
			c-0.344-0.314-0.694-0.621-1.045-0.928c-0.359-0.311-0.727-0.615-1.093-0.919c-0.377-0.308-0.762-0.609-1.146-0.909
			c-0.398-0.307-0.803-0.605-1.208-0.904l-0.563-0.402c1.006,0.707,1.793,1.393,2.349,2.038c0.433,0.504,0.721,0.982,0.863,1.429
			c-0.797-0.652-1.611-1.289-2.458-1.903c-2.867-2.075-5.79-3.839-8.744-5.304c-0.229-0.186-0.486-0.377-0.788-0.572
			c-0.693-0.445-1.577-0.909-2.635-1.365c-1.058-0.455-2.189-0.861-3.329-1.204c-1.141-0.343-2.289-0.624-3.384-0.832
			c-0.611-0.115-1.197-0.201-1.764-0.268C75.23,6.551,70.561,6.252,65.998,6.67c0.05-0.008,0.096-0.02,0.146-0.028
			c0.192-0.034,0.393-0.062,0.598-0.089c0.206-0.025,0.417-0.048,0.634-0.067c0.219-0.018,0.441-0.034,0.671-0.046l-0.693,0.041
			c-0.503,0.032-1.005,0.078-1.507,0.123c-0.487,0.047-0.974,0.104-1.46,0.161c-0.474,0.059-0.947,0.128-1.42,0.196
			c-0.464,0.071-0.925,0.151-1.388,0.232c-0.603,0.114-1.205,0.239-1.805,0.369c-0.299,0.068-0.697,0.163-0.994,0.234
			c-0.439,0.108-0.877,0.225-1.313,0.343c-0.433,0.118-0.862,0.247-1.291,0.375c-0.425,0.131-0.848,0.27-1.27,0.409
			c-0.359,0.123-0.836,0.292-1.194,0.421c-0.871,0.322-1.521,0.717-1.974,1.171c-3.961,1.839-7.729,4.309-11.227,7.384
			c0.155-0.784,0.617-1.487,1.41-2.088l-0.41,0.314c-0.136,0.105-0.315,0.248-0.45,0.355c-0.136,0.107-0.313,0.253-0.448,0.361
			c-0.134,0.11-0.311,0.259-0.444,0.37c-0.134,0.113-0.31,0.265-0.441,0.378c-0.132,0.116-0.307,0.271-0.438,0.387
			c-0.166,0.145-0.382,0.34-0.546,0.486c-0.176,0.159-0.406,0.373-0.58,0.534c-0.175,0.162-0.403,0.381-0.575,0.545
			c-0.172,0.165-0.397,0.389-0.567,0.556c-0.169,0.169-0.391,0.397-0.559,0.568c-0.167,0.172-0.386,0.405-0.551,0.579
			c-0.164,0.176-0.379,0.414-0.541,0.592c-0.161,0.179-0.372,0.422-0.531,0.603c-0.158,0.184-0.363,0.432-0.52,0.617
			c-0.153,0.187-0.356,0.44-0.509,0.629c-0.198,0.101-0.325,0.411-0.465,0.588c-0.143,0.186-0.331,0.436-0.473,0.623l-0.216,0.291
			c-0.506,0.69-0.735,1.461-0.702,2.298c-2.433,3.555-4.275,7.495-5.624,11.677c-0.234-0.927-0.209-1.794,0.099-2.584l-0.284,0.75
			v0.001c-0.095,0.254-0.213,0.597-0.305,0.854c-0.085,0.234-0.195,0.548-0.278,0.783c-0.088,0.255-0.2,0.596-0.286,0.851
			c-0.083,0.257-0.189,0.6-0.271,0.857c-0.079,0.259-0.181,0.604-0.258,0.863c-0.075,0.26-0.172,0.608-0.247,0.869
			c-0.07,0.262-0.161,0.613-0.231,0.875c-0.067,0.264-0.154,0.617-0.221,0.882c-0.063,0.265-0.146,0.621-0.208,0.887
			c-0.061,0.267-0.138,0.625-0.197,0.894c-0.058,0.269-0.131,0.63-0.187,0.9c-0.118,0.624-0.271,1.457-0.382,2.083
			c-0.169,0.985,0.056,2.071,0.617,3.227c-0.396,3.885-0.503,7.833-0.365,11.756c-0.348-0.803-0.535-1.572-0.514-2.29l-0.023,1.002
			c-0.016,0.737-0.014,1.473-0.014,2.211c0.004,0.735,0.022,1.47,0.04,2.205c0.021,0.733,0.057,1.466,0.092,2.199
			c0.034,0.719,0.08,1.436,0.125,2.153c0.05,0.724,0.112,1.447,0.174,2.171l0.046,0.492c0.1,1.028,0.585,2.148,1.425,3.332
			c0.584,3.583,1.318,7.037,2.152,10.276c0.081,0.361,0.16,0.724,0.242,1.086c0.154,0.669,0.318,1.336,0.482,2.001
			c0.098,0.37,0.2,0.737,0.302,1.106c0.096,0.343,0.195,0.684,0.294,1.026c0.099,0.34,0.202,0.679,0.306,1.018
			c0.104,0.337,0.211,0.675,0.317,1.011c0.107,0.335,0.218,0.67,0.329,1.004c0.112,0.333,0.229,0.664,0.344,0.996
			c0.117,0.33,0.237,0.659,0.358,0.988l0.148,0.398c0.179,0.47,0.458,0.961,0.814,1.466c0.54,1.327,1.085,2.568,1.63,3.689
			c1.749,3.601,3.733,6.64,5.762,9.194c0.115,0.159,0.23,0.32,0.347,0.479c0.194,0.261,0.394,0.52,0.593,0.777
			c0.202,0.258,0.408,0.511,0.615,0.764c0.21,0.253,0.425,0.502,0.64,0.75c0.219,0.25,0.443,0.494,0.667,0.737
			c0.23,0.246,0.465,0.486,0.699,0.725c0.271,0.272,0.548,0.536,0.825,0.799c0.256,0.238,0.518,0.47,0.778,0.701
			c0.139,0.119,0.325,0.275,0.465,0.394c0.491,0.405,1.071,0.812,1.711,1.213c1.877,1.479,3.56,2.547,4.845,3.272
			c-3.103,3.248-8.915,9.8-6.403,10.854c3.362,1.412,6.077-3.874,8.137-0.537c2.059,3.339,4.515,5.261,5.486,3.888
			c0.618-0.873,1.139-8.184-0.4-12.713c0.769-0.011,1.637-0.049,2.579-0.121c0.455,0.027,0.906,0.043,1.345,0.039
			c1.325-0.063,2.039-0.158,2.795-0.259c0.326-0.047,0.653-0.101,0.979-0.155c0.321-0.057,0.642-0.121,0.962-0.186
			c0.315-0.066,0.632-0.139,0.946-0.212c0.428-0.104,0.854-0.217,1.28-0.333c0.309-0.087,0.617-0.18,0.923-0.273
			c0.306-0.095,0.608-0.195,0.913-0.295c0.302-0.104,0.604-0.211,0.903-0.32s0.6-0.226,0.897-0.34
			c0.298-0.119,0.594-0.24,0.89-0.363c0.148-0.063,0.346-0.148,0.493-0.213c0.138-0.057,0.32-0.137,0.457-0.196
			c-0.071,0.03-0.146,0.063-0.222,0.092c-0.076,0.03-0.154,0.06-0.235,0.089c-0.08,0.028-0.163,0.055-0.247,0.082
			c-0.085,0.026-0.171,0.053-0.261,0.077c-0.072,0.021-0.158,0.032-0.233,0.052c8.162-2.902,17.856-8.643,26.964-19.872
			c2.198-2.708,4.182-5.388,6.004-8.042c0.21-0.291,0.422-0.58,0.631-0.872c0.429-0.597,0.848-1.203,1.266-1.808
			c0.415-0.608,0.82-1.225,1.225-1.841c0.402-0.619,0.793-1.247,1.184-1.873l0.521-0.859c-0.203,0.338-0.462,0.66-0.779,0.965
			C109.32,87.73,109.292,87.75,109.271,87.771"/>
	</g>
</g>
<g>
	<g opacity="0.08">
		<g>
			<defs>
				<rect id="SVGID_3_" x="15.082" y="239.576" width="19.588" height="18.313"/>
			</defs>
			<clipPath id="SVGID_4_">
				<use xlink:href="#SVGID_3_"  overflow="visible"/>
			</clipPath>
			<path clip-path="url(#SVGID_4_)" fill="#EFF4D1" d="M34.046,239.785c-1.806-0.792-2.98,0.835-3.95,2.086
				c-1.326,1.71-2.664,3.429-4.214,4.96c-2.01,1.986-4.239,3.726-6.398,5.54c-0.786,0.66-5.784,4.153-4.031,5.381
				c0.243,0.171,0.567,0.149,0.863,0.109c2.237-0.304,4.345-1.285,6.201-2.572C24.281,254.064,37.677,241.38,34.046,239.785"/>
		</g>
	</g>
	<g opacity="0.08">
		<g>
			<defs>
				<rect id="SVGID_5_" x="35.91" y="231.415" width="4.37" height="4.355"/>
			</defs>
			<clipPath id="SVGID_6_">
				<use xlink:href="#SVGID_5_"  overflow="visible"/>
			</clipPath>
			<path clip-path="url(#SVGID_6_)" fill="#EFF4D1" d="M39.604,231.912c-1.757-1.615-4.676,1.063-3.365,3.003
				c0.881,1.304,3.052,1.045,3.776-0.284C40.487,233.766,40.331,232.581,39.604,231.912"/>
		</g>
	</g>
	<path fill="#BAD537" d="M48.865,122.266c0,0-8.749,13.56-5.156,14.187c3.592,0.625,5.059-5.135,7.811-2.34
		c2.753,2.793,5.574,4.117,6.217,2.563C58.377,135.122,55.236,118.102,48.865,122.266"/>
	<g>
		<g>
			<defs>
				<rect id="SVGID_7_" x="45.71" y="125.063" width="9.86" height="7.347"/>
			</defs>
			<clipPath id="SVGID_8_">
				<use xlink:href="#SVGID_7_"  overflow="visible"/>
			</clipPath>
			<path clip-path="url(#SVGID_8_)" fill="#E0EAA4" d="M49.148,125.155c-0.917,1.207-1.634,2.742-2.438,4.056
				c-0.577,0.946-1.101,2.026-0.988,3.155c1.872-0.049,3.477-3.561,5.615-2.961c1.575,0.441,1.974,2.803,3.977,3.004
				c0.799-1.703-0.475-4.504-1.437-5.955C52.653,124.612,51.134,125.116,49.148,125.155"/>
		</g>
	</g>
	<path fill="#BAD537" d="M50.313,125.109c0,0-13.407-1.92-24.701-15.966C14.317,95.099-2.521,58.709,8.975,33.367
		C20.472,8.025,46.149-1.519,72.774,9.785c26.625,11.304,38.243,41.259,17.729,83.046C75.438,123.521,50.313,125.109,50.313,125.109
		"/>
</g>
<g>
	<defs>
		<path id="SVGID_9_" d="M8.974,33.367c-11.496,25.342,5.344,61.731,16.639,75.776c11.293,14.046,24.699,15.966,24.699,15.966
			s25.125-1.589,40.191-32.278c20.514-41.787,8.896-71.742-17.729-83.046c-7.474-3.173-14.868-4.703-21.9-4.703
			C32.855,5.084,17.244,15.138,8.974,33.367"/>
	</defs>
	<clipPath id="SVGID_10_">
		<use xlink:href="#SVGID_9_"  overflow="visible"/>
	</clipPath>
	<defs>
		<filter id="Adobe_OpacityMaskFilter" filterUnits="userSpaceOnUse" x="-44.334" y="-34.469" width="197.163" height="199.13">
			<feColorMatrix  type="matrix" values="1 0 0 0 0  0 1 0 0 0  0 0 1 0 0  0 0 0 1 0"/>
		</filter>
	</defs>
	<mask maskUnits="userSpaceOnUse" x="-44.334" y="-34.469" width="197.163" height="199.13" id="SVGID_11_">
		<g filter="url(#Adobe_OpacityMaskFilter)">
			
				<linearGradient id="SVGID_12_" gradientUnits="userSpaceOnUse" x1="-914.9336" y1="567.1553" x2="-913.934" y2="567.1553" gradientTransform="matrix(42.4476 104.6317 104.6317 -42.4476 -20469.4531 119825.9922)">
				<stop  offset="0" style="stop-color:#FFFFFF"/>
				<stop  offset="1" style="stop-color:#000000"/>
			</linearGradient>
			<polygon clip-path="url(#SVGID_10_)" fill="url(#SVGID_12_)" points="94.972,-34.47 152.829,108.146 13.523,164.661 
				-44.334,22.045 			"/>
		</g>
	</mask>
	
		<linearGradient id="SVGID_13_" gradientUnits="userSpaceOnUse" x1="-914.9336" y1="567.1553" x2="-913.934" y2="567.1553" gradientTransform="matrix(42.4476 104.6317 104.6317 -42.4476 -20469.4531 119825.9922)">
		<stop  offset="0" style="stop-color:#BAD537"/>
		<stop  offset="1" style="stop-color:#97B73C"/>
	</linearGradient>
	<polygon clip-path="url(#SVGID_10_)" mask="url(#SVGID_11_)" fill="url(#SVGID_13_)" points="94.972,-34.469 152.829,108.147 
		13.523,164.661 -44.334,22.045 	"/>
</g>
<path fill="#A1AE39" d="M96.664,55.27c0.034-2.25-0.031-4.522-0.201-6.823c-0.418-5.691-3.868-17.478-11.044-8.965
	c-4.152,4.928-4.449,12.494-6.404,18.406c-2.234,6.758-5.427,13.239-9.848,18.843c-8.8,11.152-20.151,15.068-33.628,17.264
	c-2.61,0.425-5.938,1.441-7.362,3.868c-0.806,1.373-0.834,3.083-0.49,4.636c1.456,6.57,8.562,12.289,14.078,15.502
	c6.439,3.751,13.922,3.751,20.7,0.23c13.72-7.125,22.241-18.654,27.694-32.315C94.16,75.892,96.505,65.837,96.664,55.27"/>
<path fill="#C7D62D" d="M42.41,9.588c-12.724,3.55-23.659,9.882-29.125,22.581C7.26,46.167,7.768,61.862,14.947,75.365
	c3.015,5.67,6.751,8.938,13.657,8.364c7.447-0.618,16.591-5.697,22.705-9.696c13.76-8.994,26.535-25.487,27.768-42.112
	c0.354-4.777-0.71-8.662-3.333-12.666C69.41,9.588,54.841,6.121,42.41,9.588"/>
<g opacity="0.08">
	<g>
		<defs>
			<rect id="SVGID_14_" x="69.55" y="88.622" width="17.01" height="20.671"/>
		</defs>
		<clipPath id="SVGID_15_">
			<use xlink:href="#SVGID_14_"  overflow="visible"/>
		</clipPath>
		<path clip-path="url(#SVGID_15_)" fill="#EFF4D1" d="M85.774,88.714c-1.902-0.519-2.825,1.264-3.602,2.644
			c-1.06,1.886-2.13,3.782-3.438,5.525c-1.695,2.26-3.646,4.308-5.515,6.42c-0.68,0.769-5.11,4.958-3.196,5.915
			c0.266,0.133,0.584,0.065,0.869-0.018c2.17-0.63,4.109-1.91,5.757-3.456C78.214,104.274,89.6,89.757,85.774,88.714"/>
	</g>
</g>
<g opacity="0.08">
	<g>
		<defs>
			<rect id="SVGID_16_" x="86.729" y="79.78" width="4.32" height="4.414"/>
		</defs>
		<clipPath id="SVGID_17_">
			<use xlink:href="#SVGID_16_"  overflow="visible"/>
		</clipPath>
		<path clip-path="url(#SVGID_17_)" fill="#EFF4D1" d="M90.114,80.109c-1.975-1.339-4.47,1.738-2.887,3.465
			c1.063,1.16,3.172,0.585,3.693-0.836C91.261,81.811,90.933,80.664,90.114,80.109"/>
	</g>
</g>
<path fill="#EFF4D1" d="M38.423,14.694c-4.026,1.195-8.594,4.417-10.57,5.833c-4.965,3.554-9.14,9.055-9.658,15.307
	c-0.196,2.366,0.923,4.666,3.703,4.313c1.69-0.215,3.101-1.347,4.413-2.433c4.326-3.585,8.652-7.169,12.979-10.753
	c2.951-2.445,8.548-6.851,5.277-11.201C43.237,13.993,40.936,13.949,38.423,14.694"/>
<path fill="#EFF4D1" d="M16.039,45.321c-1.814,1.384-2.72,3.595-1.652,5.808c0.819,1.701,2.756,2.793,4.636,2.614
	c2.763-0.263,4.239-3.053,3.751-5.643c-0.359-1.904-1.817-3.79-3.864-3.861c-1.005-0.034-1.971,0.417-2.779,1.014
	C16.1,45.275,16.069,45.298,16.039,45.321"/>
<g opacity="0.7">
	<g>
		<defs>
			<rect id="SVGID_18_" x="4.23" y="4.937" width="96.489" height="119.082"/>
		</defs>
		<clipPath id="SVGID_19_">
			<use xlink:href="#SVGID_18_"  overflow="visible"/>
		</clipPath>
		<path clip-path="url(#SVGID_19_)" fill="#FFFFFF" d="M31.175,21.6c2.547,0.906,5.667,1.727,9.304,2.407
			c3.897,0.73,8.012,1.23,12.113,1.508c4.103,0.278,8.187,0.335,12.024,0.178c3.833-0.156,7.414-0.525,10.518-1.095
			c3.098-0.569,5.713-1.34,7.622-2.301c0.958-0.482,1.692-0.989,2.213-1.512c0.519-0.523,0.827-1.062,0.933-1.609
			c0.105-0.548,0.008-1.102-0.28-1.658c-0.288-0.554-0.768-1.108-1.427-1.654c-0.294-0.24-0.687-0.555-0.983-0.79
			c-0.349-0.272-0.702-0.537-1.058-0.802c-0.357-0.265-0.723-0.521-1.087-0.777c-0.37-0.256-0.745-0.505-1.12-0.754
			c-0.379-0.247-0.764-0.488-1.148-0.727c-0.421-0.258-0.848-0.507-1.273-0.754c-0.405-0.23-0.816-0.451-1.227-0.672
			c-0.419-0.223-0.845-0.438-1.27-0.652c-0.437-0.216-0.879-0.423-1.32-0.63c-0.456-0.21-0.917-0.411-1.379-0.611L71.69,8.429
			c1.138,0.464,2.059,0.957,2.744,1.462s1.135,1.022,1.33,1.538c0.195,0.515,0.136,1.029-0.198,1.525s-0.942,0.976-1.843,1.421
			c-1.279,0.633-3.025,1.139-5.09,1.513c-2.066,0.374-4.45,0.615-7,0.716s-5.265,0.063-7.99-0.122
			c-2.726-0.183-5.462-0.514-8.054-0.995c-2.59-0.481-4.789-1.067-6.55-1.715c-1.758-0.647-3.076-1.356-3.906-2.082
			c-0.829-0.724-1.172-1.467-0.98-2.184c0.19-0.716,0.913-1.406,2.216-2.03c0.167-0.079,0.34-0.156,0.521-0.232
			c0.181-0.075,0.368-0.148,0.563-0.22c0.194-0.07,0.396-0.14,0.604-0.207c0.208-0.067,0.422-0.132,0.642-0.194l-0.666,0.195
			c-0.483,0.143-0.961,0.3-1.441,0.456c-0.465,0.154-0.926,0.319-1.387,0.483c-0.449,0.163-0.896,0.336-1.341,0.508
			c-0.436,0.173-0.868,0.354-1.301,0.536c-0.562,0.245-1.121,0.502-1.677,0.763c-0.275,0.133-0.643,0.314-0.917,0.45
			c-0.403,0.203-0.804,0.415-1.204,0.627c-0.394,0.212-0.784,0.434-1.175,0.654c-0.384,0.222-0.765,0.452-1.146,0.682
			c-0.322,0.201-0.75,0.472-1.069,0.678c-1.415,0.924-2.09,1.922-2.079,2.944c0.011,1.025,0.71,2.071,2.039,3.089
			C26.668,19.707,28.634,20.696,31.175,21.6"/>
		<path clip-path="url(#SVGID_19_)" fill="#FFFFFF" d="M13.254,40.328c2.103,1.222,4.818,2.393,8.103,3.468
			c3.29,1.077,7.147,2.057,11.522,2.893c5.664,1.083,11.649,1.823,17.62,2.229c5.971,0.407,11.916,0.482,17.498,0.24
			c5.575-0.243,10.781-0.801,15.282-1.661c4.49-0.857,8.274-2.012,11.026-3.449c0.92-0.48,1.695-0.977,2.33-1.486
			c0.634-0.508,1.128-1.029,1.486-1.558c0.359-0.529,0.582-1.066,0.674-1.61c0.093-0.541,0.056-1.088-0.107-1.636l-0.104-0.346
			c-0.068-0.224-0.165-0.521-0.235-0.743c-0.07-0.214-0.167-0.497-0.238-0.71c-0.078-0.229-0.188-0.532-0.267-0.76
			c-0.083-0.227-0.197-0.528-0.282-0.754c-0.087-0.224-0.208-0.522-0.297-0.745c-0.091-0.223-0.217-0.516-0.31-0.737
			c-0.097-0.22-0.227-0.511-0.323-0.729c-0.099-0.217-0.234-0.505-0.335-0.721c-0.103-0.215-0.243-0.498-0.347-0.711
			c-0.105-0.213-0.251-0.493-0.357-0.704c-0.109-0.21-0.257-0.487-0.367-0.696c-0.104-0.192-0.244-0.447-0.35-0.638
			c-0.084-0.154-0.197-0.357-0.282-0.51c-0.086-0.151-0.202-0.352-0.289-0.503c-0.087-0.149-0.205-0.346-0.294-0.495
			c-0.089-0.148-0.21-0.343-0.3-0.49c-0.091-0.145-0.213-0.337-0.306-0.482l-0.28-0.433c0.373,0.567,0.592,1.135,0.651,1.7
			c0.06,0.566-0.041,1.127-0.308,1.68c-0.268,0.553-0.703,1.096-1.312,1.626c-0.61,0.53-1.396,1.045-2.361,1.541
			c-2.411,1.236-5.724,2.228-9.649,2.963c-3.935,0.737-8.481,1.215-13.351,1.419c-4.874,0.205-10.064,0.136-15.277-0.218
			c-5.211-0.354-10.438-0.994-15.387-1.93c-4.14-0.783-7.752-1.711-10.78-2.733c-3.021-1.02-5.459-2.133-7.261-3.288
			c-1.797-1.153-2.959-2.349-3.436-3.537c-0.476-1.185-0.269-2.363,0.671-3.484l-0.33,0.398c-0.108,0.132-0.252,0.312-0.359,0.446
			c-0.107,0.135-0.249,0.317-0.355,0.452c-0.106,0.137-0.246,0.322-0.352,0.46c-0.104,0.14-0.242,0.327-0.345,0.466
			c-0.104,0.143-0.239,0.333-0.341,0.475c-0.129,0.179-0.296,0.417-0.424,0.597c-0.136,0.193-0.313,0.454-0.446,0.649
			c-0.134,0.197-0.307,0.462-0.438,0.66c-0.131,0.199-0.301,0.467-0.429,0.668c-0.128,0.203-0.293,0.475-0.418,0.679
			c-0.125,0.205-0.286,0.481-0.407,0.687c-0.121,0.209-0.277,0.489-0.396,0.698c-0.117,0.211-0.269,0.495-0.383,0.707
			c-0.113,0.214-0.259,0.502-0.37,0.716c-0.107,0.218-0.248,0.509-0.354,0.727c-0.17,0.144-0.225,0.474-0.32,0.678
			c-0.1,0.213-0.227,0.499-0.323,0.713l-0.145,0.331c-0.531,1.232-0.363,2.505,0.459,3.773C9.675,37.843,11.159,39.11,13.254,40.328
			"/>
		<path clip-path="url(#SVGID_19_)" fill="#FFFFFF" d="M48.196,8.676c0.775,0.283,1.742,0.539,2.879,0.749
			c1.138,0.209,2.338,0.354,3.533,0.435c1.195,0.08,2.385,0.097,3.504,0.053c1.118-0.043,2.165-0.148,3.073-0.311
			c0.907-0.162,1.679-0.383,2.243-0.658c0.565-0.276,0.872-0.581,0.945-0.896c0.072-0.315-0.091-0.64-0.466-0.957
			c-0.375-0.316-0.961-0.624-1.737-0.906c-0.775-0.28-1.74-0.534-2.874-0.742c-1.132-0.207-2.325-0.351-3.513-0.431
			c-1.189-0.079-2.371-0.097-3.484-0.054c-1.112,0.042-2.155,0.145-3.063,0.305c-0.907,0.162-1.679,0.38-2.249,0.653
			c-0.57,0.275-0.884,0.578-0.964,0.892c-0.079,0.315,0.076,0.64,0.444,0.957C46.839,8.084,47.422,8.393,48.196,8.676"/>
		<path clip-path="url(#SVGID_19_)" fill="#FFFFFF" d="M99.577,53.506c-0.395,0.479-0.895,0.951-1.502,1.413
			c-0.608,0.462-1.325,0.915-2.153,1.354c-2.905,1.544-6.903,2.785-11.648,3.709c-4.757,0.926-10.26,1.529-16.153,1.794
			c-5.902,0.264-12.189,0.189-18.503-0.244c-6.312-0.432-12.64-1.219-18.626-2.377c-4.332-0.837-8.184-1.811-11.511-2.878
			c-3.32-1.065-6.116-2.224-8.347-3.435c-2.225-1.209-3.888-2.47-4.945-3.743c-1.055-1.271-1.51-2.552-1.325-3.807l-0.109,0.795
			v0.001c-0.035,0.269-0.074,0.629-0.106,0.899c-0.031,0.248-0.067,0.579-0.097,0.827c-0.028,0.268-0.062,0.625-0.088,0.893
			c-0.024,0.268-0.052,0.627-0.074,0.896c-0.02,0.27-0.04,0.629-0.059,0.899c-0.016,0.27-0.031,0.631-0.045,0.902
			c-0.012,0.271-0.022,0.633-0.032,0.905c-0.007,0.272-0.012,0.635-0.018,0.908c-0.003,0.273-0.003,0.638-0.005,0.912
			c0,0.274,0.005,0.64,0.008,0.915c0.004,0.275,0.013,0.643,0.019,0.919c0.024,0.635,0.062,1.481,0.092,2.115
			c0.068,1.212,0.703,2.441,1.871,3.654c1.17,1.214,2.879,2.412,5.088,3.559c2.215,1.149,4.933,2.245,8.119,3.255
			c3.193,1.01,6.854,1.934,10.945,2.733c5.956,1.164,12.252,1.954,18.532,2.385c6.28,0.431,12.536,0.504,18.409,0.232
			c5.865-0.271,11.341-0.884,16.076-1.822c4.722-0.935,8.701-2.191,11.594-3.751c0.72-0.388,1.354-0.785,1.906-1.19
			c0.553-0.405,1.022-0.817,1.412-1.236c0.39-0.418,0.699-0.844,0.93-1.272c0.23-0.429,0.384-0.862,0.461-1.298
			c0.107-0.627,0.245-1.465,0.345-2.092c0.04-0.273,0.09-0.638,0.129-0.912c0.037-0.272,0.081-0.636,0.116-0.908
			c0.033-0.272,0.072-0.634,0.104-0.907c0.029-0.271,0.063-0.632,0.09-0.904c0.025-0.27,0.054-0.632,0.077-0.903
			c0.021-0.269,0.044-0.63,0.063-0.901c0.017-0.269,0.034-0.629,0.049-0.898c0.012-0.27,0.023-0.63,0.033-0.9
			c0.008-0.268,0.014-0.628,0.019-0.897c0.003-0.249,0.002-0.582,0.003-0.831c0.003-0.272,0.001-0.635,0.002-0.907l-0.015-0.802
			c0.014,0.499-0.072,0.994-0.259,1.485C100.26,52.542,99.971,53.027,99.577,53.506"/>
		<path clip-path="url(#SVGID_19_)" fill="#FFFFFF" d="M69.332,117.851c-0.073,0.045-0.146,0.09-0.224,0.135
			c-0.076,0.045-0.154,0.09-0.236,0.135c-1.319,0.719-3.109,1.268-5.217,1.643c-2.11,0.377-4.538,0.58-7.128,0.607
			c-2.592,0.026-5.344-0.123-8.103-0.447c-2.758-0.326-5.521-0.829-8.131-1.51c-1.286-0.336-2.475-0.7-3.561-1.083
			c-1.086-0.383-2.067-0.788-2.941-1.207c-0.872-0.418-1.636-0.852-2.286-1.292c-0.648-0.44-1.183-0.888-1.597-1.336
			c0.104,0.111,0.243,0.259,0.347,0.371h0.001c0.206,0.222,0.416,0.442,0.626,0.662c0.227,0.235,0.457,0.466,0.688,0.696
			c0.23,0.229,0.467,0.455,0.702,0.679c0.237,0.224,0.478,0.443,0.718,0.662c0.242,0.218,0.488,0.431,0.734,0.643
			c0.247,0.212,0.499,0.42,0.751,0.626c0.253,0.207,0.512,0.408,0.771,0.607c0.261,0.2,0.526,0.395,0.791,0.59
			c0.27,0.193,0.543,0.381,0.814,0.568c0.279,0.188,0.563,0.37,0.844,0.551c0.324,0.204,0.653,0.399,0.982,0.594
			c0.303,0.176,0.609,0.342,0.915,0.508c0.162,0.086,0.379,0.199,0.542,0.281c4.088,2.049,12.367,3.293,18.178,1.883
			c1.277-0.356,1.952-0.607,2.666-0.875c0.31-0.119,0.615-0.244,0.92-0.371c0.301-0.125,0.599-0.26,0.896-0.395
			c0.293-0.135,0.585-0.277,0.876-0.419c0.394-0.196,0.785-0.401,1.174-0.61c0.28-0.152,0.56-0.312,0.838-0.472
			c0.276-0.159,0.55-0.325,0.823-0.491c0.272-0.168,0.542-0.342,0.811-0.514c0.268-0.174,0.533-0.354,0.798-0.533
			c0.264-0.181,0.525-0.365,0.786-0.552c0.131-0.095,0.304-0.222,0.434-0.315c0.121-0.088,0.281-0.207,0.402-0.295
			c-0.063,0.047-0.129,0.093-0.196,0.139C69.474,117.759,69.403,117.805,69.332,117.851"/>
		<path clip-path="url(#SVGID_19_)" fill="#FFFFFF" d="M96.195,77.711c-0.362,0.36-0.787,0.715-1.273,1.064
			c-0.487,0.349-1.038,0.691-1.651,1.027c-2.762,1.507-6.56,2.723-11.063,3.63c-4.516,0.908-9.735,1.504-15.325,1.769
			c-5.598,0.266-11.559,0.201-17.544-0.212c-5.984-0.412-11.984-1.171-17.66-2.29c-3.748-0.74-7.117-1.59-10.076-2.519
			c-2.954-0.929-5.495-1.936-7.598-2.994c-2.098-1.056-3.755-2.161-4.944-3.284c-1.188-1.121-1.906-2.262-2.131-3.392l0.201,0.982
			c0.149,0.721,0.315,1.439,0.48,2.157c0.168,0.717,0.35,1.429,0.531,2.142c0.185,0.71,0.383,1.417,0.58,2.123
			c0.194,0.693,0.399,1.381,0.604,2.07c0.211,0.695,0.432,1.386,0.653,2.077l0.155,0.47c0.337,1.012,1.088,2.028,2.232,3.025
			c1.147,0.997,2.688,1.976,4.599,2.91c1.915,0.935,4.201,1.826,6.832,2.647c2.637,0.822,5.618,1.574,8.919,2.23
			c5.203,1.035,10.7,1.736,16.183,2.114c5.483,0.379,10.944,0.437,16.075,0.187c5.123-0.249,9.91-0.805,14.051-1.649
			c4.132-0.844,7.618-1.974,10.157-3.375c0.501-0.277,0.957-0.559,1.366-0.846c0.409-0.286,0.773-0.578,1.092-0.872
			c0.319-0.295,0.594-0.593,0.825-0.896c0.23-0.301,0.417-0.605,0.561-0.913l0.21-0.449c0.307-0.66,0.602-1.327,0.896-1.992
			c0.29-0.66,0.568-1.325,0.847-1.991c0.284-0.678,0.558-1.362,0.83-2.045c0.269-0.686,0.526-1.377,0.782-2.068
			c0.254-0.693,0.495-1.393,0.735-2.091l0.316-0.953c-0.122,0.374-0.303,0.747-0.544,1.115
			C96.858,76.987,96.558,77.352,96.195,77.711"/>
		<path clip-path="url(#SVGID_19_)" fill="#FFFFFF" d="M86.44,99.35c-0.26,0.224-0.55,0.446-0.87,0.665
			c-0.32,0.219-0.67,0.435-1.051,0.647c-2.207,1.228-5.232,2.219-8.813,2.959c-3.589,0.741-7.733,1.229-12.169,1.45
			c-4.439,0.221-9.166,0.174-13.911-0.156c-4.744-0.328-9.502-0.938-14.004-1.84c-2.744-0.55-5.232-1.178-7.446-1.862
			c-2.212-0.683-4.148-1.424-5.791-2.203c-1.641-0.778-2.989-1.594-4.025-2.429c-1.034-0.833-1.758-1.686-2.152-2.538l0.04,0.087
			c0.291,0.627,0.59,1.249,0.891,1.871c0.3,0.618,0.608,1.231,0.917,1.843c0.178,0.339,0.359,0.674,0.541,1.011
			c0.17,0.312,0.343,0.623,0.516,0.934c0.173,0.309,0.349,0.617,0.524,0.924c0.177,0.306,0.356,0.611,0.535,0.915
			c0.18,0.303,0.363,0.605,0.546,0.905c0.184,0.299,0.37,0.597,0.558,0.894c0.188,0.296,0.378,0.59,0.569,0.883l0.234,0.355
			c0.442,0.665,1.12,1.327,2.019,1.971c0.899,0.646,2.021,1.274,3.352,1.873c1.332,0.6,2.874,1.169,4.612,1.695
			c1.74,0.527,3.677,1.011,5.797,1.439c3.724,0.752,7.657,1.258,11.58,1.531c3.924,0.273,7.832,0.31,11.504,0.124
			c3.67-0.186,7.101-0.595,10.072-1.215c2.968-0.62,5.477-1.45,7.311-2.478c0.246-0.137,0.477-0.276,0.691-0.418
			c0.216-0.141,0.416-0.284,0.602-0.428s0.356-0.289,0.511-0.436c0.156-0.147,0.298-0.295,0.425-0.445l0.274-0.326
			c0.226-0.269,0.448-0.542,0.671-0.815c0.223-0.274,0.441-0.551,0.661-0.827c0.218-0.278,0.434-0.558,0.649-0.838
			c0.215-0.282,0.428-0.566,0.641-0.85c0.212-0.286,0.421-0.574,0.631-0.861c0.209-0.289,0.416-0.58,0.623-0.871
			c0.222-0.313,0.439-0.628,0.658-0.943c0.382-0.573,0.757-1.152,1.131-1.73c0.374-0.584,0.741-1.173,1.107-1.761l0.05-0.082
			c-0.145,0.234-0.315,0.465-0.518,0.694C86.932,98.897,86.701,99.125,86.44,99.35"/>
	</g>
</g>
</svg>
