<?xml version="1.0" encoding="utf-8"?>
<!-- Generator: Adobe Illustrator 16.0.0, SVG Export Plug-In . SVG Version: 6.00 Build 0)  -->
<!DOCTYPE svg PUBLIC "-//W3C//DTD SVG 1.1//EN" "http://www.w3.org/Graphics/SVG/1.1/DTD/svg11.dtd">
<svg version="1.1" id="Layer_1" xmlns="http://www.w3.org/2000/svg" xmlns:xlink="http://www.w3.org/1999/xlink" x="0px" y="0px"
	 width="122.84px" height="140.74px" viewBox="0 0 122.84 140.74" enable-background="new 0 0 122.84 140.74" xml:space="preserve">
<g opacity="0.15">
	<g>
		<defs>
			<rect id="SVGID_1_" x="23.052" y="5.896" width="96.939" height="131.467"/>
		</defs>
		<clipPath id="SVGID_2_">
			<use xlink:href="#SVGID_1_"  overflow="visible"/>
		</clipPath>
		<path clip-path="url(#SVGID_2_)" fill="#010101" d="M109.546,87.228c8.28-14.056,11.356-27.169,10.216-38.653
			c-0.002-0.022-0.004-0.049-0.006-0.07c-0.02-0.224-0.051-0.521-0.074-0.744c-0.023-0.241-0.063-0.562-0.09-0.802
			c-0.029-0.239-0.074-0.558-0.105-0.797c-0.035-0.238-0.086-0.555-0.123-0.793c-0.039-0.236-0.096-0.551-0.139-0.787
			c-0.043-0.235-0.105-0.549-0.152-0.783c-0.047-0.233-0.114-0.544-0.164-0.777c-0.053-0.23-0.127-0.539-0.18-0.771
			c-0.056-0.23-0.134-0.536-0.191-0.767c-0.059-0.229-0.141-0.531-0.202-0.76c-0.06-0.211-0.14-0.49-0.199-0.7
			c-0.047-0.168-0.112-0.392-0.161-0.56c-0.05-0.166-0.117-0.388-0.169-0.555c-0.052-0.165-0.122-0.384-0.176-0.549
			c-0.054-0.164-0.128-0.381-0.183-0.544c-0.057-0.161-0.133-0.377-0.19-0.539l-0.176-0.483c0.14,0.379,0.221,0.744,0.255,1.098
			c-1.383-3.788-3.277-7.33-5.652-10.587c-0.016-0.103-0.029-0.205-0.057-0.31c-0.158-0.604-0.501-1.251-1.021-1.932
			c-0.233-0.298-0.545-0.694-0.783-0.989c-0.277-0.343-0.564-0.68-0.851-1.018c-0.29-0.338-0.589-0.669-0.886-1
			c-0.305-0.332-0.613-0.659-0.923-0.984c-0.315-0.326-0.638-0.647-0.958-0.967c-0.354-0.345-0.713-0.682-1.073-1.019
			c-0.344-0.314-0.694-0.621-1.045-0.928c-0.358-0.311-0.726-0.615-1.092-0.919c-0.378-0.308-0.763-0.609-1.146-0.909
			c-0.398-0.307-0.804-0.605-1.209-0.904l-0.563-0.402c1.006,0.707,1.794,1.393,2.349,2.038c0.434,0.504,0.721,0.982,0.863,1.429
			c-0.797-0.652-1.611-1.289-2.458-1.903c-2.867-2.075-5.79-3.839-8.743-5.304c-0.229-0.186-0.486-0.377-0.789-0.572
			c-0.693-0.445-1.577-0.909-2.635-1.365c-1.059-0.455-2.189-0.861-3.329-1.204s-2.289-0.624-3.384-0.832
			c-0.611-0.115-1.197-0.201-1.764-0.268c-4.682-1.036-9.352-1.334-13.914-0.915c0.049-0.009,0.097-0.021,0.147-0.029
			c0.192-0.034,0.392-0.062,0.597-0.089c0.205-0.025,0.418-0.048,0.635-0.067c0.218-0.018,0.44-0.034,0.67-0.046l-0.693,0.041
			c-0.503,0.032-1.005,0.078-1.507,0.123c-0.488,0.047-0.974,0.104-1.46,0.161c-0.475,0.059-0.948,0.128-1.42,0.196
			c-0.463,0.072-0.926,0.151-1.387,0.232c-0.604,0.114-1.206,0.239-1.806,0.369c-0.299,0.068-0.697,0.163-0.995,0.234
			c-0.439,0.108-0.876,0.225-1.313,0.343c-0.432,0.118-0.862,0.247-1.291,0.375c-0.425,0.131-0.847,0.27-1.269,0.409
			c-0.359,0.123-0.837,0.292-1.194,0.421c-0.871,0.322-1.522,0.717-1.974,1.171c-3.962,1.839-7.729,4.309-11.227,7.384
			c0.156-0.784,0.617-1.487,1.41-2.088l-0.41,0.314c-0.136,0.105-0.315,0.248-0.45,0.355s-0.314,0.253-0.448,0.361
			c-0.135,0.11-0.311,0.259-0.445,0.37c-0.133,0.113-0.309,0.265-0.44,0.378c-0.133,0.116-0.308,0.271-0.439,0.387
			c-0.165,0.145-0.381,0.34-0.545,0.486c-0.176,0.159-0.407,0.373-0.581,0.534c-0.174,0.162-0.403,0.381-0.575,0.545
			c-0.172,0.165-0.397,0.389-0.567,0.556c-0.169,0.169-0.391,0.397-0.559,0.568c-0.167,0.172-0.386,0.405-0.55,0.579
			c-0.165,0.176-0.38,0.414-0.541,0.592c-0.162,0.179-0.372,0.422-0.532,0.603c-0.157,0.184-0.363,0.432-0.52,0.617
			c-0.153,0.187-0.356,0.44-0.507,0.629c-0.199,0.101-0.326,0.411-0.465,0.588c-0.144,0.186-0.332,0.436-0.473,0.623l-0.216,0.291
			c-0.506,0.69-0.735,1.462-0.702,2.298c-2.433,3.555-4.276,7.495-5.624,11.678c-0.234-0.928-0.209-1.795,0.098-2.585l-0.284,0.75
			v0.001c-0.095,0.255-0.213,0.598-0.304,0.854c-0.086,0.235-0.196,0.549-0.279,0.784c-0.088,0.255-0.2,0.596-0.286,0.851
			c-0.083,0.257-0.19,0.601-0.272,0.857c-0.079,0.259-0.18,0.604-0.258,0.863c-0.075,0.26-0.172,0.607-0.246,0.869
			c-0.071,0.262-0.162,0.612-0.232,0.875c-0.068,0.264-0.154,0.616-0.221,0.881c-0.064,0.266-0.145,0.621-0.208,0.888
			c-0.061,0.268-0.137,0.625-0.196,0.894c-0.059,0.27-0.131,0.63-0.187,0.9c-0.119,0.624-0.271,1.457-0.382,2.083
			c-0.169,0.984,0.055,2.07,0.616,3.228c-0.396,3.884-0.503,7.832-0.365,11.755c-0.347-0.803-0.534-1.572-0.513-2.29l-0.024,1.002
			c-0.015,0.737-0.013,1.474-0.013,2.212c0.004,0.734,0.022,1.47,0.039,2.205c0.022,0.732,0.058,1.466,0.093,2.198
			c0.033,0.719,0.079,1.437,0.125,2.153c0.05,0.725,0.112,1.447,0.174,2.17l0.046,0.493c0.099,1.027,0.584,2.147,1.425,3.332
			c0.583,3.583,1.317,7.037,2.152,10.275c0.081,0.362,0.159,0.725,0.241,1.086c0.155,0.669,0.319,1.337,0.483,2.003
			c0.098,0.368,0.2,0.736,0.302,1.104c0.096,0.343,0.195,0.684,0.294,1.025c0.099,0.34,0.202,0.68,0.305,1.019
			c0.104,0.338,0.211,0.675,0.317,1.012c0.108,0.335,0.219,0.67,0.33,1.003c0.112,0.333,0.228,0.665,0.344,0.996
			c0.116,0.33,0.237,0.66,0.358,0.988l0.149,0.398c0.178,0.47,0.457,0.961,0.814,1.466c0.54,1.327,1.086,2.567,1.629,3.688
			c1.749,3.602,3.734,6.641,5.763,9.193c0.115,0.16,0.23,0.321,0.346,0.479c0.194,0.262,0.394,0.521,0.593,0.777
			c0.202,0.258,0.408,0.511,0.615,0.764c0.21,0.254,0.425,0.502,0.64,0.751c0.219,0.249,0.443,0.493,0.667,0.736
			c0.23,0.246,0.465,0.486,0.7,0.726c0.271,0.271,0.547,0.535,0.824,0.799c0.256,0.237,0.518,0.47,0.779,0.699
			c0.138,0.12,0.325,0.277,0.465,0.395c0.491,0.405,1.071,0.812,1.71,1.214c1.879,1.479,3.56,2.546,4.845,3.271
			c-3.102,3.248-8.915,9.8-6.403,10.854c3.362,1.413,6.078-3.874,8.136-0.536c2.059,3.337,4.515,5.259,5.487,3.887
			c0.618-0.872,1.139-8.184-0.4-12.713c0.768-0.01,1.637-0.049,2.578-0.12c0.456,0.027,0.907,0.043,1.345,0.037
			c1.326-0.063,2.039-0.157,2.796-0.258c0.326-0.046,0.652-0.102,0.978-0.156c0.322-0.056,0.642-0.12,0.962-0.185
			c0.316-0.065,0.633-0.139,0.948-0.212c0.427-0.105,0.854-0.217,1.28-0.334c0.308-0.086,0.615-0.179,0.922-0.272
			c0.305-0.095,0.609-0.195,0.913-0.296c0.302-0.103,0.604-0.211,0.903-0.318c0.299-0.11,0.6-0.227,0.897-0.342
			c0.297-0.117,0.594-0.24,0.89-0.362c0.148-0.063,0.346-0.148,0.493-0.212c0.138-0.059,0.32-0.138,0.457-0.197
			c-0.071,0.031-0.146,0.063-0.222,0.092c-0.076,0.03-0.155,0.061-0.235,0.089c-0.081,0.027-0.163,0.056-0.248,0.082
			c-0.084,0.026-0.17,0.053-0.259,0.077c-0.072,0.021-0.159,0.032-0.234,0.052c8.162-2.901,17.856-8.644,26.965-19.871
			c2.197-2.708,4.181-5.389,6.002-8.043c0.211-0.291,0.423-0.579,0.632-0.872c0.429-0.596,0.848-1.202,1.266-1.807
			c0.415-0.608,0.82-1.226,1.224-1.842c0.402-0.619,0.795-1.247,1.185-1.874l0.521-0.858c-0.203,0.338-0.461,0.661-0.778,0.966
			C109.596,87.187,109.568,87.206,109.546,87.228"/>
	</g>
</g>
<path fill="#7B58A4" d="M50.618,121.124c0,0-8.749,13.561-5.157,14.186c3.593,0.627,5.06-5.134,7.812-2.34
	c2.752,2.793,5.574,4.118,6.216,2.563C60.129,133.979,56.989,116.96,50.618,121.124"/>
<g>
	<g>
		<defs>
			<rect id="SVGID_3_" x="47.459" y="123.922" width="9.859" height="7.347"/>
		</defs>
		<clipPath id="SVGID_4_">
			<use xlink:href="#SVGID_3_"  overflow="visible"/>
		</clipPath>
		<path clip-path="url(#SVGID_4_)" fill="#7B58A4" d="M50.9,124.013c-0.917,1.208-1.634,2.744-2.437,4.057
			c-0.578,0.945-1.102,2.026-0.989,3.156c1.872-0.049,3.476-3.562,5.616-2.962c1.575,0.441,1.973,2.803,3.976,3.005
			c0.798-1.705-0.475-4.505-1.437-5.956C54.406,123.471,52.886,123.976,50.9,124.013"/>
	</g>
</g>
<path fill="#BAD537" d="M52.065,123.968c0,0-13.408-1.921-24.702-15.966C16.069,93.956-0.77,57.567,10.728,32.226
	S47.901-2.66,74.526,8.644c26.625,11.304,38.244,41.259,17.729,83.046C77.189,122.378,52.065,123.968,52.065,123.968"/>
<path fill="#7B58A4" d="M52.065,123.968c0,0-13.408-1.921-24.702-15.966C16.069,93.956-0.77,57.567,10.728,32.226
	S47.901-2.66,74.526,8.644c26.625,11.304,38.244,41.259,17.729,83.046C77.189,122.378,52.065,123.968,52.065,123.968"/>
<path fill="#6D429A" d="M98.416,54.128c0.035-2.249-0.03-4.521-0.201-6.823c-0.418-5.69-3.867-17.478-11.043-8.964
	c-4.153,4.927-4.45,12.493-6.404,18.405c-2.234,6.759-5.428,13.24-9.848,18.843c-8.799,11.152-20.152,15.068-33.628,17.264
	c-2.611,0.426-5.939,1.441-7.363,3.869c-0.805,1.372-0.833,3.082-0.489,4.636c1.456,6.57,8.561,12.288,14.077,15.502
	c6.44,3.751,13.922,3.751,20.7,0.231c13.721-7.126,22.242-18.655,27.695-32.316C95.912,74.75,98.256,64.695,98.416,54.128"/>
<g opacity="0.4">
	<g>
		<defs>
			<rect id="SVGID_5_" x="10.883" y="7.134" width="70.014" height="75.518"/>
		</defs>
		<clipPath id="SVGID_6_">
			<use xlink:href="#SVGID_5_"  overflow="visible"/>
		</clipPath>
		<path clip-path="url(#SVGID_6_)" fill="#815EA8" d="M44.163,8.447c-12.724,3.55-23.66,9.882-29.125,22.581
			C9.012,45.026,9.52,60.721,16.7,74.224c3.015,5.67,6.751,8.938,13.657,8.364c7.447-0.618,16.59-5.697,22.706-9.696
			c13.758-8.994,26.535-25.487,27.767-42.112c0.354-4.776-0.71-8.662-3.334-12.666C71.163,8.447,56.593,4.979,44.163,8.447"/>
	</g>
</g>
<g opacity="0.08">
	<g>
		<defs>
			<rect id="SVGID_7_" x="71.3" y="87.48" width="17.009" height="20.671"/>
		</defs>
		<clipPath id="SVGID_8_">
			<use xlink:href="#SVGID_7_"  overflow="visible"/>
		</clipPath>
		<path clip-path="url(#SVGID_8_)" fill="#EFF4D1" d="M87.526,87.572c-1.902-0.518-2.825,1.264-3.601,2.644
			c-1.06,1.887-2.131,3.783-3.438,5.525c-1.696,2.26-3.646,4.308-5.517,6.421c-0.678,0.769-5.109,4.958-3.194,5.915
			c0.265,0.133,0.583,0.064,0.869-0.019c2.169-0.63,4.11-1.909,5.756-3.456C79.967,103.132,91.353,88.615,87.526,87.572"/>
	</g>
</g>
<g opacity="0.08">
	<g>
		<defs>
			<rect id="SVGID_9_" x="88.479" y="78.639" width="4.328" height="4.414"/>
		</defs>
		<clipPath id="SVGID_10_">
			<use xlink:href="#SVGID_9_"  overflow="visible"/>
		</clipPath>
		<path clip-path="url(#SVGID_10_)" fill="#EFF4D1" d="M91.867,78.967c-1.976-1.338-4.47,1.738-2.888,3.466
			c1.063,1.16,3.173,0.585,3.694-0.836C93.014,80.67,92.685,79.521,91.867,78.967"/>
	</g>
</g>
<g opacity="0.6">
	<g>
		<defs>
			<rect id="SVGID_11_" x="19.925" y="13.097" width="27.388" height="25.944"/>
		</defs>
		<clipPath id="SVGID_12_">
			<use xlink:href="#SVGID_11_"  overflow="visible"/>
		</clipPath>
		<path clip-path="url(#SVGID_12_)" fill="#FFFFFF" d="M40.175,13.553c-4.026,1.195-8.594,4.417-10.57,5.833
			c-4.965,3.554-9.139,9.055-9.658,15.307c-0.197,2.366,0.922,4.667,3.702,4.313c1.691-0.215,3.101-1.346,4.413-2.432
			c4.326-3.585,8.653-7.17,12.979-10.753c2.951-2.445,8.548-6.851,5.277-11.201C44.989,12.852,42.688,12.807,40.175,13.553"/>
	</g>
</g>
<g opacity="0.6">
	<g>
		<defs>
			<rect id="SVGID_13_" x="15.682" y="43.097" width="8.936" height="9.523"/>
		</defs>
		<clipPath id="SVGID_14_">
			<use xlink:href="#SVGID_13_"  overflow="visible"/>
		</clipPath>
		<path clip-path="url(#SVGID_14_)" fill="#FFFFFF" d="M17.791,44.18c-1.814,1.384-2.719,3.595-1.652,5.808
			c0.82,1.701,2.756,2.793,4.636,2.614c2.763-0.263,4.24-3.053,3.751-5.643c-0.36-1.904-1.817-3.791-3.864-3.861
			c-1.005-0.034-1.972,0.417-2.78,1.014C17.852,44.134,17.821,44.156,17.791,44.18"/>
	</g>
</g>
<g opacity="0.7">
	<g>
		<defs>
			<rect id="SVGID_15_" x="5.983" y="3.794" width="96.49" height="119.082"/>
		</defs>
		<clipPath id="SVGID_16_">
			<use xlink:href="#SVGID_15_"  overflow="visible"/>
		</clipPath>
		<path clip-path="url(#SVGID_16_)" fill="#FFFFFF" d="M32.928,20.458c2.546,0.906,5.667,1.727,9.303,2.407
			c3.897,0.73,8.012,1.23,12.114,1.508s8.187,0.335,12.022,0.178c3.834-0.157,7.416-0.525,10.519-1.095
			c3.099-0.569,5.713-1.34,7.623-2.301c0.958-0.482,1.692-0.989,2.212-1.512s0.828-1.062,0.934-1.61
			c0.105-0.547,0.008-1.102-0.281-1.657c-0.287-0.554-0.768-1.108-1.426-1.654c-0.295-0.24-0.688-0.556-0.983-0.791
			c-0.349-0.271-0.703-0.536-1.058-0.801c-0.358-0.265-0.724-0.521-1.086-0.777c-0.371-0.256-0.746-0.505-1.121-0.754
			c-0.379-0.247-0.765-0.488-1.149-0.727c-0.421-0.258-0.847-0.507-1.272-0.754c-0.406-0.23-0.816-0.452-1.227-0.672
			c-0.42-0.223-0.846-0.438-1.27-0.652c-0.437-0.216-0.879-0.423-1.32-0.63c-0.456-0.21-0.918-0.411-1.379-0.611l-0.639-0.266
			c1.137,0.464,2.059,0.957,2.743,1.462s1.136,1.022,1.33,1.538c0.196,0.515,0.136,1.029-0.196,1.525
			c-0.336,0.496-0.943,0.975-1.845,1.421c-1.278,0.633-3.024,1.139-5.09,1.513s-4.449,0.615-6.999,0.716
			c-2.551,0.101-5.265,0.063-7.991-0.122c-2.726-0.184-5.462-0.514-8.053-0.995c-2.59-0.481-4.79-1.067-6.55-1.715
			c-1.758-0.647-3.076-1.356-3.907-2.082c-0.829-0.724-1.172-1.467-0.981-2.184c0.191-0.716,0.914-1.406,2.217-2.03
			c0.167-0.079,0.34-0.156,0.521-0.232c0.18-0.076,0.368-0.148,0.562-0.22c0.195-0.07,0.396-0.14,0.604-0.207
			c0.208-0.067,0.422-0.132,0.642-0.194l-0.666,0.194v0.001c-0.483,0.143-0.962,0.3-1.442,0.456
			c-0.464,0.154-0.926,0.318-1.387,0.483c-0.448,0.163-0.895,0.336-1.34,0.508c-0.436,0.173-0.869,0.354-1.3,0.536
			c-0.563,0.245-1.121,0.502-1.678,0.763c-0.276,0.133-0.642,0.314-0.917,0.45c-0.403,0.203-0.803,0.415-1.203,0.627
			c-0.395,0.212-0.785,0.433-1.175,0.654c-0.384,0.222-0.766,0.452-1.146,0.682c-0.322,0.201-0.75,0.472-1.069,0.678
			c-1.416,0.924-2.09,1.922-2.079,2.944c0.01,1.024,0.71,2.071,2.039,3.089C28.421,18.565,30.386,19.554,32.928,20.458"/>
		<path clip-path="url(#SVGID_16_)" fill="#FFFFFF" d="M15.007,39.187c2.102,1.222,4.817,2.393,8.101,3.468
			c3.291,1.077,7.148,2.058,11.524,2.894c5.663,1.083,11.649,1.822,17.619,2.229c5.971,0.407,11.917,0.482,17.499,0.24
			c5.574-0.242,10.779-0.801,15.281-1.661c4.49-0.856,8.275-2.013,11.026-3.448c0.92-0.481,1.695-0.978,2.33-1.486
			c0.634-0.509,1.128-1.029,1.487-1.559c0.357-0.529,0.581-1.066,0.674-1.609c0.093-0.541,0.055-1.088-0.107-1.637l-0.105-0.346
			c-0.068-0.224-0.164-0.521-0.235-0.743c-0.069-0.214-0.167-0.497-0.239-0.709c-0.076-0.229-0.187-0.533-0.266-0.762
			c-0.083-0.226-0.197-0.527-0.281-0.753c-0.088-0.224-0.209-0.522-0.298-0.745c-0.091-0.223-0.217-0.516-0.31-0.737
			c-0.096-0.22-0.225-0.511-0.323-0.729c-0.099-0.217-0.233-0.504-0.335-0.721c-0.102-0.214-0.243-0.497-0.348-0.711
			c-0.104-0.213-0.25-0.492-0.356-0.704c-0.108-0.21-0.257-0.486-0.367-0.695c-0.104-0.193-0.243-0.447-0.349-0.638
			c-0.084-0.154-0.198-0.357-0.283-0.51c-0.086-0.151-0.202-0.352-0.288-0.503c-0.088-0.149-0.206-0.347-0.295-0.495
			s-0.209-0.343-0.299-0.49c-0.091-0.145-0.214-0.338-0.306-0.482l-0.28-0.433c0.372,0.567,0.591,1.135,0.651,1.7
			c0.06,0.566-0.041,1.127-0.309,1.68c-0.268,0.553-0.703,1.096-1.313,1.625c-0.609,0.531-1.395,1.046-2.359,1.542
			c-2.412,1.236-5.725,2.229-9.648,2.963c-3.936,0.737-8.482,1.215-13.352,1.419c-4.875,0.205-10.065,0.137-15.278-0.218
			c-5.211-0.354-10.438-0.994-15.386-1.931c-4.141-0.782-7.753-1.711-10.781-2.732c-3.021-1.021-5.459-2.133-7.261-3.288
			c-1.796-1.153-2.958-2.349-3.435-3.537c-0.476-1.185-0.269-2.363,0.671-3.485l-0.33,0.399c-0.109,0.132-0.252,0.312-0.36,0.445
			c-0.108,0.136-0.249,0.317-0.356,0.453c-0.106,0.137-0.245,0.322-0.351,0.46c-0.104,0.14-0.242,0.327-0.345,0.466
			c-0.103,0.142-0.239,0.333-0.341,0.475c-0.128,0.179-0.296,0.417-0.423,0.596c-0.136,0.194-0.313,0.455-0.446,0.65
			c-0.134,0.197-0.308,0.462-0.439,0.66c-0.131,0.199-0.3,0.467-0.429,0.668c-0.127,0.203-0.293,0.475-0.418,0.679
			c-0.125,0.205-0.285,0.481-0.407,0.687c-0.121,0.208-0.277,0.489-0.395,0.698c-0.118,0.211-0.27,0.495-0.383,0.707
			c-0.113,0.215-0.258,0.502-0.37,0.717c-0.108,0.217-0.248,0.509-0.354,0.727c-0.171,0.144-0.225,0.475-0.322,0.678
			c-0.098,0.214-0.226,0.499-0.322,0.713l-0.145,0.332c-0.532,1.231-0.364,2.504,0.459,3.772
			C11.427,36.701,12.911,37.969,15.007,39.187"/>
		<path clip-path="url(#SVGID_16_)" fill="#FFFFFF" d="M49.949,7.534c0.775,0.283,1.742,0.539,2.879,0.749
			c1.138,0.209,2.338,0.354,3.533,0.434c1.195,0.081,2.385,0.098,3.504,0.054c1.119-0.043,2.167-0.148,3.074-0.31
			c0.907-0.162,1.677-0.383,2.243-0.658c0.564-0.276,0.872-0.581,0.943-0.896c0.074-0.315-0.09-0.64-0.465-0.957
			c-0.375-0.316-0.961-0.624-1.736-0.906c-0.776-0.28-1.741-0.534-2.874-0.742c-1.133-0.207-2.326-0.351-3.514-0.431
			s-2.371-0.097-3.483-0.054c-1.113,0.042-2.156,0.145-3.063,0.305c-0.907,0.162-1.679,0.38-2.249,0.653
			c-0.57,0.275-0.884,0.578-0.963,0.892c-0.079,0.314,0.075,0.64,0.444,0.957C48.592,6.942,49.174,7.251,49.949,7.534"/>
		<path clip-path="url(#SVGID_16_)" fill="#FFFFFF" d="M101.329,52.365c-0.396,0.479-0.894,0.95-1.502,1.412
			c-0.608,0.463-1.325,0.915-2.153,1.354c-2.906,1.543-6.902,2.785-11.648,3.709c-4.758,0.926-10.258,1.529-16.153,1.793
			c-5.901,0.266-12.189,0.189-18.502-0.242c-6.312-0.433-12.64-1.22-18.626-2.378c-4.332-0.838-8.184-1.811-11.511-2.877
			c-3.32-1.065-6.116-2.225-8.347-3.437c-2.225-1.209-3.887-2.47-4.945-3.742c-1.055-1.271-1.51-2.553-1.325-3.808l-0.11,0.795
			v0.001c-0.035,0.27-0.074,0.63-0.106,0.899c-0.031,0.249-0.068,0.579-0.096,0.827c-0.029,0.268-0.063,0.625-0.089,0.893
			c-0.024,0.269-0.051,0.627-0.074,0.896c-0.019,0.27-0.041,0.629-0.059,0.898c-0.015,0.271-0.031,0.631-0.045,0.902
			c-0.011,0.271-0.021,0.634-0.031,0.904c-0.008,0.272-0.013,0.637-0.018,0.908c-0.004,0.273-0.004,0.639-0.005,0.912
			c0,0.274,0.005,0.641,0.008,0.915s0.013,0.644,0.018,0.919c0.025,0.635,0.062,1.482,0.093,2.116
			c0.067,1.211,0.702,2.44,1.871,3.652c1.17,1.216,2.877,2.413,5.086,3.56c2.216,1.148,4.934,2.246,8.121,3.255
			c3.192,1.011,6.853,1.934,10.945,2.733c5.955,1.164,12.252,1.954,18.532,2.385c6.281,0.432,12.536,0.504,18.409,0.232
			c5.865-0.271,11.341-0.885,16.076-1.822c4.722-0.935,8.701-2.191,11.594-3.75c0.719-0.389,1.354-0.785,1.906-1.19
			s1.022-0.817,1.412-1.236s0.698-0.844,0.93-1.272c0.23-0.429,0.384-0.862,0.461-1.298c0.107-0.627,0.244-1.465,0.344-2.093
			c0.041-0.272,0.09-0.638,0.129-0.911c0.037-0.271,0.082-0.636,0.117-0.908c0.031-0.271,0.072-0.634,0.104-0.906
			c0.028-0.271,0.063-0.633,0.09-0.904c0.024-0.271,0.054-0.632,0.076-0.903c0.021-0.27,0.045-0.63,0.063-0.9
			c0.017-0.27,0.034-0.63,0.048-0.898c0.012-0.271,0.023-0.63,0.034-0.9c0.008-0.269,0.013-0.628,0.019-0.896
			c0.002-0.25,0.002-0.582,0.002-0.832c0.004-0.271,0.002-0.635,0.002-0.906l-0.015-0.803c0.015,0.499-0.071,0.995-0.259,1.485
			C102.012,51.4,101.723,51.887,101.329,52.365"/>
		<path clip-path="url(#SVGID_16_)" fill="#FFFFFF" d="M71.084,116.709c-0.072,0.045-0.146,0.091-0.223,0.136
			c-0.076,0.044-0.155,0.089-0.236,0.133c-1.32,0.72-3.109,1.269-5.218,1.644c-2.11,0.376-4.537,0.579-7.127,0.606
			c-2.591,0.027-5.344-0.121-8.104-0.447c-2.758-0.325-5.52-0.828-8.131-1.51c-1.286-0.335-2.474-0.698-3.56-1.083
			c-1.086-0.383-2.068-0.787-2.941-1.206s-1.637-0.852-2.286-1.293c-0.649-0.439-1.183-0.888-1.597-1.336
			c0.103,0.111,0.243,0.26,0.346,0.371h0.001c0.206,0.223,0.416,0.442,0.626,0.662c0.227,0.234,0.457,0.466,0.688,0.696
			c0.232,0.229,0.468,0.454,0.702,0.68c0.238,0.223,0.478,0.442,0.719,0.661c0.242,0.218,0.488,0.431,0.734,0.644
			c0.248,0.212,0.5,0.419,0.751,0.626c0.254,0.206,0.512,0.406,0.771,0.606c0.26,0.2,0.525,0.395,0.791,0.589
			c0.269,0.194,0.542,0.382,0.814,0.569c0.279,0.188,0.562,0.37,0.844,0.551c0.325,0.204,0.653,0.399,0.983,0.594
			c0.302,0.175,0.609,0.343,0.914,0.509c0.162,0.086,0.38,0.197,0.542,0.28c4.088,2.047,12.367,3.293,18.178,1.884
			c1.277-0.357,1.952-0.609,2.667-0.876c0.309-0.118,0.615-0.244,0.92-0.37c0.301-0.127,0.599-0.261,0.896-0.396
			c0.294-0.135,0.585-0.276,0.876-0.418c0.395-0.198,0.785-0.402,1.174-0.611c0.281-0.153,0.561-0.313,0.838-0.472
			c0.276-0.16,0.551-0.326,0.824-0.492c0.271-0.168,0.541-0.341,0.811-0.513c0.267-0.174,0.533-0.354,0.798-0.533
			c0.264-0.181,0.524-0.366,0.786-0.552c0.131-0.095,0.304-0.222,0.434-0.316c0.121-0.088,0.281-0.206,0.401-0.295
			c-0.063,0.047-0.128,0.094-0.196,0.14C71.227,116.617,71.156,116.663,71.084,116.709"/>
		<path clip-path="url(#SVGID_16_)" fill="#FFFFFF" d="M97.947,76.569c-0.362,0.359-0.786,0.715-1.271,1.063
			c-0.488,0.35-1.039,0.692-1.654,1.027c-2.762,1.508-6.559,2.724-11.063,3.63c-4.515,0.908-9.734,1.504-15.324,1.77
			c-5.599,0.266-11.56,0.2-17.544-0.212c-5.984-0.413-11.984-1.172-17.66-2.291c-3.749-0.739-7.118-1.589-10.076-2.519
			c-2.954-0.929-5.496-1.937-7.598-2.994c-2.098-1.056-3.755-2.16-4.945-3.283c-1.186-1.121-1.906-2.263-2.13-3.393l0.201,0.981
			c0.149,0.723,0.316,1.439,0.481,2.158c0.167,0.716,0.349,1.429,0.531,2.141c0.185,0.71,0.383,1.417,0.58,2.123
			c0.194,0.694,0.399,1.382,0.603,2.07c0.211,0.695,0.432,1.387,0.654,2.077l0.155,0.471c0.336,1.011,1.088,2.027,2.233,3.024
			c1.147,0.998,2.688,1.977,4.599,2.91c1.914,0.936,4.2,1.826,6.831,2.646c2.636,0.822,5.618,1.574,8.92,2.231
			c5.202,1.034,10.699,1.734,16.182,2.113c5.483,0.38,10.944,0.437,16.075,0.187c5.123-0.249,9.908-0.805,14.05-1.649
			c4.132-0.844,7.618-1.974,10.157-3.375c0.502-0.276,0.957-0.559,1.367-0.845c0.408-0.287,0.772-0.578,1.092-0.873
			c0.318-0.294,0.594-0.593,0.824-0.896c0.23-0.302,0.418-0.605,0.562-0.912l0.21-0.45c0.306-0.66,0.602-1.326,0.896-1.991
			c0.289-0.66,0.567-1.326,0.847-1.991c0.284-0.678,0.557-1.362,0.829-2.045c0.27-0.687,0.526-1.377,0.783-2.068
			c0.254-0.693,0.494-1.393,0.735-2.091l0.315-0.953c-0.121,0.375-0.301,0.747-0.543,1.114
			C98.611,75.845,98.311,76.21,97.947,76.569"/>
		<path clip-path="url(#SVGID_16_)" fill="#FFFFFF" d="M88.193,98.208c-0.26,0.225-0.55,0.445-0.871,0.664
			c-0.32,0.22-0.67,0.436-1.051,0.648c-2.207,1.228-5.232,2.219-8.813,2.959c-3.59,0.74-7.733,1.229-12.17,1.449
			c-4.438,0.222-9.166,0.175-13.911-0.155c-4.745-0.329-9.502-0.938-14.004-1.841c-2.744-0.55-5.232-1.178-7.447-1.861
			c-2.211-0.684-4.148-1.424-5.791-2.203c-1.64-0.778-2.988-1.594-4.025-2.429c-1.034-0.833-1.757-1.686-2.152-2.538L18,92.988
			c0.291,0.627,0.591,1.249,0.89,1.871c0.301,0.618,0.609,1.23,0.918,1.843c0.178,0.339,0.36,0.674,0.541,1.011
			c0.17,0.313,0.343,0.623,0.515,0.934c0.173,0.31,0.349,0.617,0.525,0.925c0.177,0.306,0.356,0.61,0.535,0.915
			c0.18,0.303,0.363,0.604,0.546,0.904s0.37,0.597,0.557,0.895c0.188,0.296,0.379,0.59,0.57,0.883l0.234,0.355
			c0.443,0.665,1.12,1.326,2.019,1.971c0.899,0.646,2.021,1.274,3.351,1.873c1.332,0.6,2.874,1.169,4.613,1.695
			c1.739,0.526,3.676,1.011,5.796,1.438c3.724,0.752,7.658,1.259,11.581,1.531s7.832,0.31,11.504,0.124
			c3.669-0.186,7.101-0.594,10.072-1.216c2.968-0.619,5.476-1.449,7.31-2.477c0.246-0.138,0.477-0.276,0.692-0.419
			c0.216-0.141,0.416-0.284,0.601-0.428c0.186-0.144,0.356-0.29,0.512-0.437s0.297-0.295,0.424-0.444l0.274-0.327
			c0.226-0.269,0.449-0.542,0.671-0.814c0.223-0.273,0.442-0.55,0.661-0.826c0.218-0.278,0.435-0.559,0.649-0.839
			c0.216-0.282,0.428-0.565,0.641-0.851c0.212-0.284,0.422-0.572,0.631-0.86c0.209-0.289,0.418-0.579,0.623-0.871
			c0.221-0.313,0.44-0.628,0.659-0.943c0.381-0.573,0.756-1.151,1.13-1.729c0.375-0.583,0.741-1.172,1.107-1.761l0.05-0.082
			c-0.144,0.234-0.315,0.466-0.517,0.694C88.685,97.756,88.453,97.983,88.193,98.208"/>
	</g>
</g>
</svg>
