<svg xmlns="http://www.w3.org/2000/svg" xmlns:xlink="http://www.w3.org/1999/xlink" viewBox="0 0 1920 900"><defs><style>.cls-1{fill:none;}.cls-2{fill:#0018f4;}.cls-2,.cls-3{opacity:0.2;}.cls-4{fill:#f70000;}.cls-5{fill:#81deff;stroke:#283949;stroke-miterlimit:10;}.cls-6{fill:#15364f;}.cls-7{clip-path:url(#clip-path);}.cls-8{fill:#f4f4ed;opacity:0.05;}</style><clipPath id="clip-path"><rect class="cls-1" y="-1.63" width="1915.89" height="901.63"/></clipPath></defs><g id="Mobile"><rect class="cls-2" x="260" y="175" width="1400" height="725"/></g><g id="Desktop"><g class="cls-3"><rect class="cls-4" x="360" y="100" width="1200" height="800"/></g></g><g id="Bg"><rect class="cls-5" width="1920" height="900"/><rect class="cls-6" width="1920" height="900"/><g class="cls-7"><path class="cls-8" d="M965,826,14.11,1776.89V1630.6Q590.74,1119.22,965,826Z"/><path class="cls-8" d="M965,826Q558.13,1072,14.11,1484.31V1338Q531.45,1021.13,965,826Z"/><path class="cls-8" d="M965,826Q511.09,967.45,14.11,1191.73V1045.44Q497.34,911.7,965,826Z"/><path class="cls-8" d="M965,826Q490.42,854.71,14.11,899.15V752.85Q490.42,797.3,965,826Z"/><path class="cls-8" d="M965,826Q497.35,740.29,14.11,606.56V460.27Q511.08,684.55,965,826Z"/><path class="cls-8" d="M965,826Q531.44,630.87,14.11,314V167.69Q558.11,580,965,826Z"/><path class="cls-8" d="M965,826Q590.74,532.78,14.11,21.4V-124.89Z"/><path class="cls-8" d="M965,826Q671.78,451.74,160.4-124.89H306.69Q719,419.12,965,826Z"/><path class="cls-8" d="M965,826Q769.87,392.44,453-124.89H599.27Q823.55,372.08,965,826Z"/><path class="cls-8" d="M965,826Q879.29,358.35,745.56-124.89H891.85Q936.3,351.42,965,826Z"/><path class="cls-8" d="M965,826q28.71-474.58,73.15-950.89h146.29Q1050.7,358.34,965,826Z"/><path class="cls-8" d="M965,826q141.45-453.91,365.73-950.89H1477Q1160.13,392.43,965,826Z"/><path class="cls-8" d="M965,826q246-406.87,658.31-950.89H1769.6Q1258.22,451.74,965,826Z"/><path class="cls-8" d="M965,826l950.89-950.89V21.4Q1339.26,532.78,965,826Z"/><path class="cls-8" d="M965,826q406.88-246,950.89-658.31V314Q1398.57,630.87,965,826Z"/><path class="cls-8" d="M965,826q453.92-141.45,950.89-365.73V606.56Q1432.67,740.3,965,826Z"/><path class="cls-8" d="M965,826q474.59-28.71,950.89-73.15v146.3Q1439.58,854.71,965,826Z"/><path class="cls-8" d="M965,826q467.66,85.71,950.89,219.44v146.29Q1418.92,967.45,965,826Z"/><path class="cls-8" d="M965,826q433.56,195.14,950.89,512v146.29Q1371.89,1072,965,826Z"/><path class="cls-8" d="M965,826q374.26,293.22,950.89,804.6v146.29Z"/><path class="cls-8" d="M965,826q293.22,374.26,804.6,950.89H1623.31Q1211,1232.89,965,826Z"/><path class="cls-8" d="M965,826q195.13,433.56,512,950.89H1330.73Q1106.45,1279.92,965,826Z"/><path class="cls-8" d="M965,826q85.71,467.66,219.44,950.89H1038.15Q993.71,1300.58,965,826Z"/><path class="cls-8" d="M965,826q-28.71,474.59-73.15,950.89H745.56Q879.3,1293.67,965,826Z"/><path class="cls-8" d="M965,826q-141.45,453.92-365.73,950.89H453Q769.87,1259.55,965,826Z"/><path class="cls-8" d="M965,826q-246,406.88-658.31,950.89H160.4Q671.78,1200.26,965,826Z"/></g></g></svg>