<svg xmlns="http://www.w3.org/2000/svg" version="1.1" viewBox="0 0 1920 900">
    <style xmlns="http://www.w3.org/2000/svg" type="text/css">
	.st0{clip-path:url(#SVGID_2_);}
	.st1{fill:#689EDE;}
	.st2{opacity:0.57;}
	.st3{clip-path:url(#SVGID_4_);}
	.st4{fill:#8DB7E8;}
	.st5{fill:url(#SVGID_5_);}
	.st6{fill:none;}
	.st7{fill:#1A5D7D;}
	.st8{opacity:0.5;fill:url(#SVGID_6_);enable-background:new    ;}
	.st9{fill:#FF186B;}
	.st10{fill:#649A98;}
	.st11{fill:#035574;}
	.st12{fill:#9FC6C5;}
	.st13{fill:#005573;}
	.st14{fill:#FFD902;}
	.st15{fill:#2A3538;}
	.st16{fill:url(#SVGID_7_);}
	.st17{fill:url(#SVGID_8_);}
	.st18{fill:#40A1BC;}
	.st19{opacity:0.5;fill:url(#SVGID_9_);enable-background:new    ;}
	.st20{fill:#FFFFFF;}
	.st21{fill:#0E1E23;}
	.st22{fill:#FED801;}
	.st23{fill:url(#SVGID_10_);}
	.st24{fill:url(#SVGID_11_);}
	.st25{opacity:0.5;fill:url(#SVGID_12_);enable-background:new    ;}
	.st26{opacity:0.3;fill:url(#SVGID_13_);enable-background:new    ;}
	.st27{fill:#4A3D36;}
	.st28{opacity:0.74;fill:#38679E;enable-background:new    ;}
	.st29{fill:#2E3561;}
	.st30{fill:#21294F;}
	.st31{fill:#D69B61;}
	.st32{fill:#FFFF8D;}
	.st33{fill:#F98216;}
	.st34{fill:#E25B00;}
	.st35{fill:#DDC5A8;}
	.st36{opacity:0.3;}
	.st37{opacity:0.3;enable-background:new    ;}
	.st38{fill:#BF5E4B;}
	.st39{fill:#DDCCB6;}
	.st40{fill:#E5D8CA;}
	.st41{fill:#96816F;}
	.st42{fill:#B7A08F;}
	.st43{opacity:0.5;}
	.st44{fill:#4D588C;}
	.st45{opacity:0.39;fill:#02080F;enable-background:new    ;}
	.st46{fill:#EA0707;}
	.st47{fill:#5A0A07;}
	.st48{fill:#2D0706;}
	.st49{clip-path:url(#SVGID_15_);}
	.st50{fill:#EE8D12;}
</style>
<g xmlns="http://www.w3.org/2000/svg" id="Triangle_Title">
			<path class="st20" d="M1204.5,441.3c-2.7-3.5-6.1-6.3-10.1-8.2c3.5-1.8,6.5-4.3,9-7.3c4.7-5.6,7-12.8,6.3-20     c-1.5-14.4-13.7-25.4-28.2-25.2c-1.7,0-3.3,0.1-5,0.4c-5.9,0.9-11.3,3.5-15.8,7.5c-8.4-8.1-19.3-12.5-32-12.5     c-0.8,0-1.6,0-2.5,0.1c-15.3,0.7-24.3,7.3-29.1,12.6c-0.6,0.7-1.2,1.5-1.8,2.2c-8.4-11-20.9-17-36.5-17h-0.9     c-13.2,0.1-25.6,6.2-33.8,16.6c-7.6-8.2-18.3-12.9-29.5-13l1.5-6.2l-21.6,3c-0.5,0.1-12.1,1.6-22.9,3.6l-12.6,2.3     c-1.9-1.1-3.8-2-5.8-2.9c-6.4-2.7-13.3-4.2-20.2-4.3c-11.9-0.2-23.3,5.1-30.8,14.3c-0.7,0.8-1.2,1.6-1.8,2.5     c-5.6-6-13-9.9-21.1-11.1h-0.2c-2.1-0.3-4.2-0.5-6.4-0.5h-1.3c0.8-17.3,2.1-33.5,3.5-44.5l2.6-20.4l-20.2,3.8     c-0.6,0.1-15.5,2.9-29.7,5.9l-13.3,2.8l1.5,13.5c0.2,2,0.4,4,0.6,6.2c-10.1-6.9-22-10.6-34.2-10.6c-1.5,0-3.1,0-4.7,0.2     c-28.9,2-43.4,24.7-42.7,45.9c0.4,16.1,8.3,27.2,17.8,34.9c-6.3,8.1-12.1,16.4-17.5,25.1l-4.9,8.3l5.5,7.9     c13.3,19.3,32.9,29.5,56.7,29.5c8.9,0,17.8-2.1,25.7-6.1l-0.4,5.7c-6,0.1-12,0.3-17.8,0.6l-17,1l3.1,16.8c1.3,7.3,2,14.6,2.2,22     l0.4,19l18.4-4.8l0.7-0.2c0.9,16.4,0.3,32.9-1.8,49.2l-2.8,19l19-1.9c0.1,0,6.3-0.6,13.7-1.1l-0.5,6.9l21.2-6.8     c1.4-0.4,2.8-0.8,4.3-1h0.7v-0.1c2.6-0.4,5.2-0.6,7.8-0.6h0.6l14.9,0.6l-0.7,4.2l20.3-3.2c9.5-1.5,18.8-2.5,18.9-2.5l5.6-0.6     c2.6,1.1,5.3,2,8.1,2.5l-0.5,2.7l20.5-2.4c0,0,1.1-0.1,2.9-0.3l-0.2,1.6l16.7-0.5c1.3,0,2.7-0.1,4-0.1c6.6,0,12.7,0.4,12.7,0.4     l17.8,1.2l-0.4-3.7l3.3,0.6c0.7,6.3,2.9,12.4,6.4,17.7c6,8.8,15.7,14.5,26.4,15.4c1.5,0.2,2.9,0.2,4.4,0.2     c18.3,0,34.3-12.7,41.9-32.5c4.2-0.4,11.4-1,18.4-1.5l15.7-1.1c3.8,1.2,7.8,1.8,11.8,1.8c0.9,0,1.9,0,2.8-0.1     c18-1.2,36.2-14.3,36.3-41.1l0.1-16.2l-4.5,0.3c-4.4-20.7-18.4-33.2-38.3-33.2h-0.7c-4.5,0.1-9,1-13.2,2.7     c0-11.1,0.3-21.2,1-28.4l0.9-9.8c8.2,5,17.6,7.5,28.4,7.6h0.7c11.3,0,21.2-2.9,28.6-8c5.4,4.7,12.4,7.2,19.6,7.1     c14.9,0,27.1-10,29.1-23.8C1210.9,454.7,1209,447.2,1204.5,441.3z M1050.3,483.9l1.8,9.9c1,5.6,1.9,12.5,2.5,20.1     c-3.4,0.3-7.4,0.8-11.1,1.3l-16.7,2.4l0.4,1.3c-7,1.3-13.6,4.6-18.9,9.3c-3.7-4.6-8.6-8-14.2-9.8l-0.3-2.1     c-1.5-9.1-2.8-20.3-3.7-32.4c0.8,0,1.6,0.1,2.4,0.1h0.8c11.7,0.1,22.9-4.8,30.9-13.4c0.7-0.8,1.4-1.6,2.1-2.5     C1032.5,475.7,1040.9,481.2,1050.3,483.9z M915.1,512.6c0-0.2-0.1-0.5-0.2-0.7l-0.1-0.2c-2.8-10-12.1-16.7-23.2-16.7     c-4,0-8,0.9-11.6,2.5c-8.1,3.3-13.9,10.6-15.3,19.3c-0.6-0.1-1.3-0.1-1.9-0.2l0.5-8.7l-10.4,4c-0.1-6.9,0-12.4,0-12.5l0.2-14.5     h1.5l-0.2-1.3c5.3,0.7,10.5,1.6,15.7,2.9L885,490l2.1-9.3c6.1,3.6,13,5.7,20.1,6.1l-0.4,2.1l20.4-2.3c0.1,0,5.4-0.6,11.8-0.8     c-0.6,10-1.4,19.2-2.4,26.8l-0.3,2.7c-3.3-0.9-6.8-1.3-10.2-1.3c-3.4,0-6.8,0.5-10,1.5l0.2-3.2L915.1,512.6z M865.2,586.8     c-0.6-3.5-1.1-7.8-1.6-12.5c1.3-0.4,3-0.9,5-1.4c-0.1,5.3-0.5,10.6-1.3,15.8l-0.9,5.5L865.2,586.8z"/>
			<path class="st11" d="M774.1,473.7c-17.7,0-33.4-7.1-44.3-23c5.4-8.7,11.3-17.2,17.7-25.3c8.1,15.7,27.6,23.1,34.1,15.7     c5.3-5.8,0-15.2-17-23c-16.1-7.4-32.5-16.1-33-35.7c-0.4-11.3,6.4-29,28.8-30.6s38.7,11.7,47,29.1c-8.7,4.4-17,9.6-24.9,15.4     c-2.7-7.6-9.4-13.2-15.5-13.2c-4.9,0-7.4,3.5-6.9,7.6c0.7,7.6,8.1,10.2,20.8,15c18.9,6.7,29.8,18.5,30.2,33.2     C811.4,462.4,792,473.7,774.1,473.7z"/>
			<path class="st11" d="M848.7,469.6c9.4-26.5,5.8-50.7-1.4-52.8c-3.9-1.1-7.2,1.1-10.2,5.1c0,19.2,0.7,37.1,2.5,50     c-8,0.1-16,0.8-24,1.9c2.5-38.1,0.9-99.3-3-134.2c14.1-3,29.3-5.8,29.3-5.8c-1.9,15.4-3.7,41.3-4.4,67.6c5.9-5.1,13.7-7.2,21.4-6     c21.4,3.4,27.2,33,17,78.4C866.9,471.8,857.8,470.4,848.7,469.6z"/>
			<path class="st11" d="M927.5,473.9c0.3-1.8,0.7-3.4,0.9-5.1c-4.3,2.8-9.2,4.5-14.3,5.1c-10.8,1.2-28.8-6.5-29.1-22.4     c-0.3-17.7,15.4-26.1,29.3-26.5c5.5-0.1,10.9,1.3,15.6,4.1c-3-26.8-15.5-21.7-14-8.8c-12.2-0.4-25.6,3.2-25.6,3.2     c-4.2-20.8,12-41.3,39.2-30.2c30,12.2,16.2,58.6,19.2,79.8C941.5,472.8,934.5,473.1,927.5,473.9z M916.7,441.5     c-4.6,1.6-9.2,6.2-7.2,11s8.1,5.1,12,3.7c5.5-2.1,9.2-8,7.6-11.5C927.1,440.7,920.9,440,916.7,441.5L916.7,441.5z"/>
			<path class="st11" d="M994.9,471c-7.3,0.2-14.3-2.8-19.2-8.1c0.7,20.8,2.5,41.9,5.1,57.9c-12.4-4.2-27.4-4.2-27.4-4.2     c4.1-32.1,5.1-87.4,2.8-122c10.6-1.9,22.3-3.5,22.3-3.5c-0.7,3-1.1,6.7-1.6,10.8c5.1-4.6,11.7-7.3,18.5-7.4     c17.1-0.4,28.8,14.7,30,35C1026.5,448.3,1017.5,470.9,994.9,471z M984.1,414.5c-7.4,2.8-9.4,14-6.4,22.8     c2.8,8.1,11,11.5,17.3,7.6c5.7-3.4,6.5-13.6,4.1-21C996.9,417.2,990.7,412.1,984.1,414.5L984.1,414.5z"/>
			<path class="st11" d="M1068.1,472.6c-14.7,1.1-31.4-7.2-37.1-29.7c-6.2-24.5,4.6-51.8,29.1-52.1c23.5-0.4,33.2,17.7,34.3,40.5     c0,0-23.3,0.4-43.3,4.1c0.9,11.1,5,20,10.8,19.4c5.5-0.5,6.5-8,5.3-14.7c0,0,16.1-2.1,31.3-3.2     C1098.2,462.6,1082.2,471.7,1068.1,472.6z M1059.8,408.9c-4.2,0.7-7.2,6.4-8.5,14.3c6.2-0.2,12.4-0.8,18.5-1.8     C1068.8,413.8,1065.2,408.2,1059.8,408.9z"/>
			<path class="st11" d="M1133.8,473.7c-12.5-0.2-23.7-4.4-33-17c4.7-6.6,10-12.8,15.9-18.4c6,12.2,16.8,15.2,19.4,12     c2.1-2.6,0.7-7.2-10.8-12.2c-10.4-4.4-19.6-11-20.1-22.6c-0.5-9.4,5.3-21.7,23.8-22.6c20-0.9,29.7,12.9,33.9,26.5     c-7.9,0.9-15.6,3.2-22.8,6.7c-5.3-13.8-13.9-13.2-13.2-7.8c2.1,14.8,36.7,11.8,36.2,34.6C1162.7,466.6,1149.7,473.9,1133.8,473.7     z"/>
			<path class="st11" d="M1183.4,423.5c-9,0.5-15-5.3-15-12.4c0-6.5,4.9-12.2,12.5-13.4c8.7-1.4,15.2,4.2,15.9,11.5     C1197.5,416.1,1191.9,422.8,1183.4,423.5z M1182.5,472.8c-8.8,0-14.5-6.5-14-14c0.3-6.9,7.1-12.5,15.5-11.8     c9,0.9,14,7.6,12.7,14.7C1195.9,468,1190.1,472.8,1182.5,472.8z"/>
			<path class="st11" d="M821.3,524c0,23.7,1.4,50.8,4.4,68.5c-11,0.4-23.1,1.6-23.1,1.6c2.6-17.7,3.5-44.3,0.5-68.9     c-6.1,0.7-12.1,1.8-18.1,3.2c-0.2-8.2-1.1-16.4-2.5-24.4c18.7-1,40.3-0.5,57.5-2.7c0,0-0.1,12,0.3,23.1     C834,523.9,827.6,523.8,821.3,524z"/>
			<path class="st11" d="M859.4,562.5c0.3-7.3-1.4-12-3.9-12.5c-2.2-0.4-4.5,0.4-6.5,3.8c0.4,12.5,1.6,25,3.4,37.4     c-6.3-0.1-12.6,0.7-18.6,2.5c1.3-17.9,2.2-41-0.4-58.6c0,0,9.2-0.3,15.6-2.7c-0.1,2.1-0.3,4.4-0.3,6.9c4.9-4.5,11.8-6.4,17-5.5     c8.6,1.4,13,9.9,12.7,24.4C869.8,558.9,859.4,562.5,859.4,562.5z"/>
			<path class="st11" d="M895.5,529.6c-6,2-12.4,0-13.7-4.9c-1.3-4.5,1-9.2,6.2-11.4c6-2.7,12.9-0.8,14.3,4.4     C903.6,522.2,902,527.3,895.5,529.6z M884.1,593c2.6-16.4,1.6-40.6-0.8-56.5c6.2-0.5,12.4-1.5,18.5-2.9     c-1,14.6,0.1,42.9,1.9,56.8C903.7,590.4,894.1,591.4,884.1,593z"/>
			<path class="st11" d="M937.3,592.7c0.3-1.2,0.5-2.5,0.7-3.8c-3.2,2-6.8,3.3-10.5,3.8c-7.9,0.9-21.2-4.8-21.5-16.5     c-0.3-13,11.3-19.2,21.6-19.5c4-0.1,8,1,11.4,3c-2.2-19.8-11.4-16-10.3-6.5c-9-0.3-18.8,2.3-18.8,2.3     c-3.1-15.3,8.8-30.4,28.9-22.2c22.1,9,12,43.2,14.2,58.8C947.7,592,942.5,592.2,937.3,592.7z M929.3,569     c-3.4,1.2-6.8,4.5-5.3,8.1s6,3.8,8.8,2.7c4-1.6,6.8-5.8,5.6-8.5C937,568.3,932.5,567.8,929.3,569z"/>
			<path class="st11" d="M981.6,589.6c6.4-18.2,4.7-38.3-0.8-39.9c-2.6-0.8-5.1,0.3-7.3,3.2c0.5,14.8,1.6,30.7,2.6,41     c0,0-9.4-0.7-18.2-0.4c1.5-19.2,1.3-38.4-0.5-57.6c0,0,9.2-0.4,16-2.9v5.7c4.2-3.8,9.9-5.4,15.5-4.5     c15.7,2.5,19.6,24.8,12.1,58.4C991.7,590.9,981.6,589.6,981.6,589.6z"/>
			<path class="st11" d="M1063.1,595.2c-3.8,16.6-15.6,31.7-32.9,29.9c-16.4-1.7-22.9-17.4-18.3-33.5c6.4,2.7,13,4.8,19.8,6.2     c-1,4.2-0.7,9.9,3.1,10.8c5.2,1.2,12.1-6.8,14.6-20.3c0.5-3.1,1-6.1,1.3-9c-5.2,7.4-13.5,12.3-22.5,11.8     c-15.3-1-20.8-15.7-18.7-29.8c2.1-13.5,13.4-26.1,25.9-25.9c5.6,0.1,10.8,2.5,14.6,6.6c-0.7-3.2-1.3-6.6-2.2-10     c8.1-1.2,17.8-2,17.8-2C1066.4,547.1,1068.3,571.7,1063.1,595.2z M1031.3,556.6c-4.7,6-4.3,11.4-2.2,14.2     c3.4,4.4,10.5,2.6,14.4-2.3c3.6-4.5,4.3-11.3,1.8-14.6S1035.6,551.3,1031.3,556.6L1031.3,556.6z"/>
			<path class="st11" d="M1070,593.1c4.9-29.1,3.1-76.3-1.2-100c6.9-0.7,13.8-1.9,20.5-3.6c-2.2,24.3-0.8,77.5,2.9,101.8     C1081.4,592.1,1070,593.1,1070,593.1z"/>
			<path class="st11" d="M1122.7,591.8c-10.8,0.8-23.1-5.3-27.3-21.8c-4.6-18.1,3.4-38.1,21.4-38.3c17.3-0.3,24.4,13,25.2,29.8     c0,0-17.2,0.3-31.8,3c0.7,8.2,3.6,14.7,7.9,14.3c4-0.4,4.8-5.8,3.9-10.8c0,0,11.8-1.6,23-2.3     C1144.9,584.4,1133.1,591.2,1122.7,591.8z M1116.5,544.9c-3.1,0.5-5.3,4.7-6.2,10.5c4.6-0.1,9.1-0.6,13.7-1.3     C1123.2,548.5,1120.6,544.4,1116.5,544.9z"/>
			<path class="st9" d="M772.1,473.7c-17.7,0-33.4-7.1-44.3-23c5.4-8.7,11.3-17.2,17.7-25.3c8.1,15.7,27.6,23.1,34.1,15.7     c5.3-5.8,0-15.2-17-23c-16.1-7.4-32.5-16.1-33-35.7c-0.4-11.3,6.4-29,28.8-30.6s38.7,11.7,47,29.1c-8.7,4.4-17,9.6-24.9,15.4     c-2.7-7.6-9.4-13.2-15.5-13.2c-4.9,0-7.4,3.5-6.9,7.6c0.7,7.6,8.1,10.2,20.8,15c18.9,6.7,29.8,18.5,30.2,33.2     C809.4,462.4,790,473.7,772.1,473.7z"/>
			<path class="st9" d="M846.7,469.6c9.4-26.5,5.8-50.7-1.4-52.8c-3.9-1.1-7.2,1.1-10.2,5.1c0,19.2,0.7,37.1,2.5,50     c-8,0.1-16,0.8-24,1.9c2.5-38.1,0.9-99.3-3-134.2c14.1-3,29.3-5.8,29.3-5.8c-1.9,15.4-3.7,41.3-4.4,67.6c5.9-5.1,13.7-7.2,21.4-6     c21.4,3.4,27.2,33,17,78.4C864.9,471.8,855.8,470.4,846.7,469.6z"/>
			<path class="st9" d="M925.5,473.9c0.3-1.8,0.7-3.4,0.9-5.1c-4.3,2.8-9.2,4.5-14.3,5.1c-10.8,1.2-28.8-6.5-29.1-22.4     c-0.3-17.7,15.4-26.1,29.3-26.5c5.5-0.1,10.9,1.3,15.6,4.1c-3-26.8-15.5-21.7-14-8.8c-12.2-0.4-25.6,3.2-25.6,3.2     c-4.2-20.8,12-41.3,39.2-30.2c30,12.2,16.2,58.6,19.2,79.8C939.5,472.8,932.5,473.1,925.5,473.9z M914.7,441.5     c-4.6,1.6-9.2,6.2-7.2,11s8.1,5.1,12,3.7c5.5-2.1,9.2-8,7.6-11.5C925.1,440.7,918.9,440,914.7,441.5L914.7,441.5z"/>
			<path class="st9" d="M992.9,471c-7.3,0.2-14.3-2.8-19.2-8.1c0.7,20.8,2.5,41.9,5.1,57.9c-12.4-4.2-27.4-4.2-27.4-4.2     c4.1-32.1,5.1-87.4,2.8-122c10.6-1.9,22.2-3.5,22.2-3.5c-0.7,3-1.1,6.7-1.6,10.8c5.1-4.6,11.7-7.3,18.5-7.4     c17.1-0.4,28.8,14.7,30,35C1024.5,448.3,1015.5,470.9,992.9,471z M982.1,414.5c-7.4,2.8-9.4,14-6.4,22.8     c2.8,8.1,11,11.5,17.3,7.6c5.7-3.4,6.5-13.6,4.1-21C994.9,417.2,988.7,412.1,982.1,414.5L982.1,414.5z"/>
			<path class="st9" d="M1066.1,472.6c-14.7,1.1-31.4-7.2-37.1-29.7c-6.2-24.5,4.6-51.8,29.1-52.1c23.5-0.4,33.2,17.7,34.3,40.5     c0,0-23.3,0.4-43.3,4.1c0.9,11.1,5,20,10.8,19.4c5.5-0.5,6.5-8,5.3-14.7c0,0,16.1-2.1,31.3-3.2     C1096.2,462.6,1080.2,471.7,1066.1,472.6z M1057.8,408.9c-4.2,0.7-7.2,6.4-8.5,14.3c6.2-0.2,12.4-0.8,18.6-1.8     C1066.8,413.8,1063.2,408.2,1057.8,408.9z"/>
			<path class="st9" d="M1131.8,473.7c-12.5-0.2-23.7-4.4-33-17c4.7-6.6,10-12.8,15.9-18.4c6,12.2,16.8,15.2,19.4,12     c2.1-2.6,0.7-7.2-10.8-12.2c-10.4-4.4-19.6-11-20.1-22.6c-0.5-9.4,5.3-21.7,23.8-22.6c20-0.9,29.7,12.9,33.9,26.5     c-7.9,0.9-15.6,3.2-22.8,6.7c-5.3-13.8-13.9-13.2-13.2-7.8c2.1,14.8,36.7,11.8,36.2,34.6C1160.7,466.6,1147.7,473.9,1131.8,473.7     z"/>
			<path class="st9" d="M1181.4,423.5c-9,0.5-15-5.3-15-12.4c0-6.5,4.9-12.2,12.5-13.4c8.7-1.4,15.2,4.2,15.9,11.5     C1195.5,416.1,1189.9,422.8,1181.4,423.5z M1180.5,472.8c-8.8,0-14.5-6.5-14-14c0.3-6.9,7.1-12.5,15.5-11.8     c9,0.9,14,7.6,12.7,14.7C1193.9,468,1188.1,472.8,1180.5,472.8z"/>
			<path class="st22" d="M819.3,524c0,23.7,1.4,50.8,4.4,68.5c-11,0.4-23.1,1.6-23.1,1.6c2.6-17.7,3.5-44.3,0.5-68.9     c-6.1,0.7-12.1,1.8-18.1,3.2c-0.2-8.2-1.1-16.4-2.5-24.4c18.7-1,40.3-0.5,57.5-2.7c0,0-0.1,12,0.3,23.1     C832,523.9,825.6,523.8,819.3,524z"/>
			<path class="st22" d="M857.4,562.5c0.3-7.3-1.4-12-3.9-12.5c-2.2-0.4-4.5,0.4-6.5,3.8c0.4,12.5,1.6,25,3.4,37.4     c-6.3-0.1-12.6,0.7-18.6,2.5c1.3-17.9,2.2-41-0.4-58.6c0,0,9.2-0.3,15.6-2.7c-0.1,2.1-0.3,4.4-0.3,6.9c4.9-4.5,11.8-6.4,17-5.5     c8.6,1.4,13,9.9,12.7,24.4C867.8,558.9,857.4,562.5,857.4,562.5z"/>
			<path class="st22" d="M893.5,529.6c-6,2-12.4,0-13.7-4.9c-1.3-4.5,1-9.2,6.2-11.4c6-2.7,12.9-0.8,14.3,4.4     C901.6,522.2,900,527.3,893.5,529.6z M882.1,593c2.6-16.4,1.6-40.6-0.8-56.5c6.2-0.5,12.4-1.5,18.5-2.9c-1,14.6,0.1,42.9,2,56.8     C901.7,590.4,892.1,591.4,882.1,593z"/>
			<path class="st22" d="M935.3,592.7c0.3-1.2,0.5-2.5,0.7-3.8c-3.2,2-6.8,3.3-10.5,3.8c-7.9,0.9-21.2-4.8-21.5-16.5     c-0.3-13,11.3-19.2,21.6-19.5c4-0.1,8,1,11.4,3c-2.2-19.8-11.4-16-10.3-6.5c-9-0.3-18.8,2.3-18.8,2.3     c-3.1-15.3,8.8-30.4,28.9-22.2c22.1,9,12,43.2,14.2,58.8C945.7,592,940.5,592.2,935.3,592.7z M927.3,569     c-3.4,1.2-6.8,4.5-5.3,8.1s6,3.8,8.8,2.7c4-1.6,6.8-5.8,5.6-8.5C935,568.3,930.5,567.8,927.3,569z"/>
			<path class="st22" d="M979.6,589.6c6.4-18.2,4.7-38.3-0.8-39.9c-2.6-0.8-5.1,0.3-7.3,3.2c0.5,14.8,1.6,30.7,2.6,41     c0,0-9.4-0.7-18.2-0.4c1.5-19.2,1.3-38.4-0.5-57.6c0,0,9.2-0.4,16-2.9v5.7c4.2-3.8,9.9-5.4,15.5-4.5     c15.7,2.5,19.6,24.8,12.1,58.4C989.7,590.9,979.6,589.6,979.6,589.6z"/>
			<path class="st22" d="M1061.1,595.2c-3.8,16.6-15.6,31.7-32.9,29.9c-16.4-1.7-22.9-17.4-18.3-33.5c6.4,2.7,13,4.8,19.8,6.2     c-1,4.2-0.7,9.9,3.1,10.8c5.2,1.2,12.1-6.8,14.6-20.3c0.5-3.1,1-6.1,1.3-9c-5.2,7.4-13.5,12.3-22.5,11.8     c-15.3-1-20.8-15.7-18.7-29.8c2.1-13.5,13.4-26.1,25.9-25.9c5.6,0.1,10.8,2.5,14.6,6.6c-0.7-3.2-1.3-6.6-2.2-10     c8.1-1.2,17.8-2,17.8-2C1064.4,547.1,1066.3,571.7,1061.1,595.2z M1029.3,556.6c-4.7,6-4.3,11.4-2.2,14.2     c3.4,4.4,10.5,2.6,14.4-2.3c3.6-4.5,4.3-11.3,1.8-14.6S1033.6,551.3,1029.3,556.6L1029.3,556.6z"/>
			<path class="st22" d="M1068,593.1c4.9-29.1,3.1-76.3-1.2-100c6.9-0.7,13.8-1.9,20.5-3.6c-2.2,24.3-0.8,77.5,2.9,101.8     C1079.4,592.1,1068,593.1,1068,593.1z"/>
			<path class="st22" d="M1120.7,591.8c-10.8,0.8-23.1-5.3-27.3-21.8c-4.6-18.1,3.4-38.1,21.4-38.3c17.3-0.3,24.4,13,25.2,29.8     c0,0-17.2,0.3-31.8,3c0.7,8.2,3.6,14.7,7.9,14.3c4-0.4,4.8-5.8,3.9-10.8c0,0,11.8-1.6,23-2.3     C1142.9,584.4,1131.1,591.2,1120.7,591.8z M1114.5,544.9c-3.1,0.5-5.3,4.7-6.2,10.5c4.6-0.1,9.1-0.6,13.7-1.3     C1121.2,548.5,1118.6,544.4,1114.5,544.9z"/>
		</g>

</svg>