<?xml version="1.0" encoding="UTF-8" standalone="no"?>
<!-- Created with Inkscape (http://www.inkscape.org/) -->

<svg
   width="677.33331mm"
   height="77.536674mm"
   viewBox="0 0 677.33331 77.536674"
   version="1.1"
   id="svg3768"
   inkscape:version="1.1.1 (c3084ef, 2021-09-22)"
   sodipodi:docname="curtain.svg"
   xmlns:inkscape="http://www.inkscape.org/namespaces/inkscape"
   xmlns:sodipodi="http://sodipodi.sourceforge.net/DTD/sodipodi-0.dtd"
   xmlns="http://www.w3.org/2000/svg"
   xmlns:svg="http://www.w3.org/2000/svg">
  <sodipodi:namedview
     id="namedview3770"
     pagecolor="#ffffff"
     bordercolor="#666666"
     borderopacity="1.0"
     inkscape:pageshadow="2"
     inkscape:pageopacity="0.0"
     inkscape:pagecheckerboard="0"
     inkscape:document-units="mm"
     showgrid="false"
     inkscape:zoom="0.52382155"
     inkscape:cx="1280.0161"
     inkscape:cy="146.99663"
     inkscape:window-width="1312"
     inkscape:window-height="810"
     inkscape:window-x="0"
     inkscape:window-y="25"
     inkscape:window-maximized="0"
     inkscape:current-layer="layer1" />
  <defs
     id="defs3765">
    <clipPath
       clipPathUnits="userSpaceOnUse"
       id="clipPath1371">
      <path
         d="M 0,900 H 1920 V 0 H 0 Z"
         id="path1369" />
    </clipPath>
    <clipPath
       clipPathUnits="userSpaceOnUse"
       id="clipPath1379">
      <path
         d="M -28.3604,900 H 1940.52 V 680.211 H -28.3604 Z"
         id="path1377" />
    </clipPath>
    <clipPath
       clipPathUnits="userSpaceOnUse"
       id="clipPath1395">
      <path
         d="M -28.3604,1012.48 H 1940.52 V 792.69 H -28.3604 Z"
         id="path1393" />
    </clipPath>
  </defs>
  <g
     inkscape:label="Layer 1"
     inkscape:groupmode="layer"
     id="layer1"
     transform="translate(233.85799,-109.73167)">
    <g
       id="g1365"
       transform="matrix(0.35277777,0,0,-0.35277777,-233.85799,427.23166)">
      <g
         id="g1367"
         clip-path="url(#clipPath1371)">
        <g
           id="g1373">
          <g
             id="g1375" />
          <g
             id="g1387">
            <g
               clip-path="url(#clipPath1379)"
               opacity="0.740005"
               id="g1385">
              <g
                 transform="translate(1920,712.059)"
                 id="g1383">
                <path
                   d="M 0,0 V 187.941 H -1920 V -4.367 c -6.32,4.045 -14.371,8.519 -28.36,8.519 v -20 c 9.339,0 13.458,-2.678 19.158,-6.384 6.59,-4.284 14.791,-9.616 30.06,-9.616 15.27,0 23.472,5.332 30.061,9.616 5.701,3.706 9.82,6.384 19.16,6.384 9.339,0 13.458,-2.678 19.158,-6.384 6.59,-4.284 14.79,-9.616 30.06,-9.616 15.269,0 23.471,5.332 30.06,9.616 5.701,3.706 9.819,6.384 19.159,6.384 9.34,0 13.46,-2.678 19.16,-6.384 6.591,-4.284 14.792,-9.616 30.062,-9.616 15.27,0 23.471,5.332 30.06,9.616 5.701,3.706 9.82,6.384 19.16,6.384 9.339,0 13.458,-2.678 19.158,-6.384 6.59,-4.284 14.791,-9.616 30.06,-9.616 15.27,0 23.471,5.332 30.06,9.616 5.701,3.706 9.82,6.384 19.16,6.384 9.339,0 13.458,-2.678 19.159,-6.384 6.59,-4.284 14.791,-9.616 30.061,-9.616 15.27,0 23.471,5.332 30.061,9.616 5.701,3.706 9.82,6.384 19.16,6.384 9.341,0 13.46,-2.678 19.161,-6.384 6.59,-4.284 14.791,-9.616 30.061,-9.616 15.271,0 23.472,5.332 30.062,9.616 5.701,3.706 9.819,6.384 19.16,6.384 9.341,0 13.46,-2.678 19.16,-6.384 6.59,-4.284 14.792,-9.616 30.062,-9.616 15.27,0 23.472,5.332 30.061,9.616 5.701,3.706 9.82,6.384 19.16,6.384 9.34,0 13.459,-2.678 19.159,-6.384 6.59,-4.284 14.791,-9.616 30.061,-9.616 15.27,0 23.472,5.332 30.061,9.616 5.701,3.706 9.82,6.384 19.16,6.384 9.341,0 13.46,-2.678 19.161,-6.384 6.59,-4.284 14.791,-9.616 30.062,-9.616 15.27,0 23.471,5.332 30.061,9.616 5.7,3.706 9.819,6.384 19.16,6.384 9.34,0 13.459,-2.678 19.16,-6.384 6.59,-4.284 14.792,-9.616 30.062,-9.616 15.271,0 23.472,5.332 30.062,9.616 5.7,3.706 9.819,6.384 19.159,6.384 9.341,0 13.46,-2.678 19.161,-6.384 6.59,-4.284 14.791,-9.616 30.061,-9.616 15.27,0 23.471,5.332 30.061,9.616 5.701,3.706 9.82,6.384 19.161,6.384 9.339,0 13.457,-2.678 19.157,-6.384 6.59,-4.284 14.79,-9.616 30.06,-9.616 15.269,0 23.471,5.332 30.06,9.616 5.701,3.706 9.819,6.384 19.159,6.384 9.341,0 13.461,-2.678 19.162,-6.384 6.59,-4.284 14.792,-9.616 30.062,-9.616 15.27,0 23.471,5.332 30.061,9.616 5.7,3.706 9.818,6.384 19.158,6.384 9.341,0 13.46,-2.678 19.161,-6.384 6.59,-4.284 14.79,-9.616 30.061,-9.616 15.269,0 23.471,5.332 30.06,9.616 5.701,3.706 9.821,6.384 19.16,6.384 9.34,0 13.459,-2.678 19.161,-6.384 6.589,-4.284 14.79,-9.616 30.06,-9.616 15.271,0 23.472,5.332 30.062,9.616 5.701,3.706 9.82,6.384 19.16,6.384 9.342,0 13.461,-2.678 19.162,-6.384 6.59,-4.284 14.792,-9.616 30.062,-9.616 15.272,0 23.474,5.332 30.064,9.616 5.701,3.706 9.82,6.384 19.162,6.384 9.342,0 13.461,-2.678 19.162,-6.384 6.59,-4.285 14.791,-9.616 30.062,-9.616 15.271,0 23.472,5.331 30.063,9.616 5.702,3.706 9.821,6.384 19.163,6.384 9.341,0 13.46,-2.678 19.161,-6.384 6.59,-4.284 14.791,-9.616 30.062,-9.616 15.27,0 23.472,5.332 30.062,9.616 5.701,3.706 9.821,6.384 19.162,6.384 9.342,0 13.461,-2.678 19.163,-6.384 6.589,-4.284 14.792,-9.616 30.063,-9.616 15.271,0 23.473,5.332 30.063,9.616 5.701,3.706 9.82,6.384 19.162,6.384 9.343,0 13.463,-2.678 19.166,-6.384 6.59,-4.285 14.794,-9.616 30.065,-9.616 15.273,0 23.476,5.331 30.066,9.616 5.703,3.706 9.823,6.384 19.166,6.384 v 20 C 11.648,4.152 5.171,2.348 0,0"
                   style="fill:#38679e;fill-opacity:1;fill-rule:nonzero;stroke:none"
                   id="path1381" />
              </g>
            </g>
          </g>
        </g>
        <g
           id="g1389">
          <g
             id="g1391" />
          <g
             id="g1403">
            <g
               clip-path="url(#clipPath1395)"
               opacity="0.389999"
               id="g1401">
              <g
                 transform="translate(1920,824.5381)"
                 id="g1399">
                <path
                   d="M 0,0 V 187.941 H -1920 V -4.367 c -6.32,4.045 -14.371,8.519 -28.36,8.519 v -20 c 9.339,0 13.458,-2.678 19.158,-6.384 6.59,-4.284 14.791,-9.616 30.06,-9.616 15.27,0 23.472,5.332 30.061,9.616 5.701,3.706 9.82,6.384 19.16,6.384 9.339,0 13.458,-2.678 19.158,-6.384 6.59,-4.284 14.79,-9.616 30.06,-9.616 15.269,0 23.471,5.332 30.06,9.616 5.701,3.706 9.819,6.384 19.159,6.384 9.34,0 13.46,-2.678 19.16,-6.384 6.591,-4.284 14.792,-9.616 30.062,-9.616 15.27,0 23.471,5.332 30.06,9.616 5.701,3.706 9.82,6.384 19.16,6.384 9.339,0 13.458,-2.678 19.158,-6.384 6.59,-4.284 14.791,-9.616 30.06,-9.616 15.27,0 23.471,5.332 30.06,9.616 5.701,3.706 9.82,6.384 19.16,6.384 9.339,0 13.458,-2.678 19.159,-6.384 6.59,-4.284 14.791,-9.616 30.061,-9.616 15.27,0 23.471,5.332 30.061,9.616 5.701,3.706 9.82,6.384 19.16,6.384 9.341,0 13.46,-2.678 19.161,-6.384 6.59,-4.284 14.791,-9.616 30.061,-9.616 15.271,0 23.472,5.332 30.062,9.616 5.701,3.706 9.819,6.384 19.16,6.384 9.341,0 13.46,-2.678 19.16,-6.384 6.59,-4.284 14.792,-9.616 30.062,-9.616 15.27,0 23.472,5.332 30.061,9.616 5.701,3.706 9.82,6.384 19.16,6.384 9.34,0 13.459,-2.678 19.159,-6.384 6.59,-4.284 14.791,-9.616 30.061,-9.616 15.27,0 23.472,5.332 30.061,9.616 5.701,3.706 9.82,6.384 19.16,6.384 9.341,0 13.46,-2.678 19.161,-6.384 6.59,-4.284 14.791,-9.616 30.062,-9.616 15.27,0 23.471,5.332 30.061,9.616 5.7,3.706 9.819,6.384 19.16,6.384 9.34,0 13.459,-2.678 19.16,-6.384 6.59,-4.284 14.792,-9.616 30.062,-9.616 15.271,0 23.472,5.332 30.062,9.616 5.7,3.706 9.819,6.384 19.159,6.384 9.341,0 13.46,-2.678 19.161,-6.384 6.59,-4.284 14.791,-9.616 30.061,-9.616 15.27,0 23.471,5.332 30.061,9.616 5.701,3.706 9.82,6.384 19.161,6.384 9.339,0 13.457,-2.678 19.157,-6.384 6.59,-4.284 14.79,-9.616 30.06,-9.616 15.269,0 23.471,5.332 30.06,9.616 5.701,3.706 9.819,6.384 19.159,6.384 9.341,0 13.461,-2.678 19.162,-6.384 6.59,-4.284 14.792,-9.616 30.062,-9.616 15.27,0 23.471,5.332 30.061,9.616 5.7,3.706 9.818,6.384 19.158,6.384 9.341,0 13.46,-2.678 19.161,-6.384 6.59,-4.284 14.79,-9.616 30.061,-9.616 15.269,0 23.471,5.332 30.06,9.616 5.701,3.706 9.821,6.384 19.16,6.384 9.34,0 13.459,-2.678 19.161,-6.384 6.589,-4.284 14.79,-9.616 30.06,-9.616 15.271,0 23.472,5.332 30.062,9.616 5.701,3.706 9.82,6.384 19.16,6.384 9.342,0 13.461,-2.678 19.162,-6.384 6.59,-4.284 14.792,-9.616 30.062,-9.616 15.272,0 23.474,5.332 30.064,9.616 5.701,3.706 9.82,6.384 19.162,6.384 9.342,0 13.461,-2.678 19.162,-6.384 6.59,-4.285 14.791,-9.616 30.062,-9.616 15.271,0 23.472,5.331 30.063,9.616 5.702,3.706 9.821,6.384 19.163,6.384 9.341,0 13.46,-2.678 19.161,-6.384 6.59,-4.284 14.791,-9.616 30.062,-9.616 15.27,0 23.472,5.332 30.062,9.616 5.701,3.706 9.821,6.384 19.162,6.384 9.342,0 13.461,-2.678 19.163,-6.384 6.589,-4.284 14.792,-9.616 30.063,-9.616 15.271,0 23.473,5.332 30.063,9.616 5.701,3.706 9.82,6.384 19.162,6.384 9.343,0 13.463,-2.678 19.166,-6.384 6.59,-4.285 14.794,-9.616 30.065,-9.616 15.273,0 23.476,5.331 30.066,9.616 5.703,3.706 9.823,6.384 19.166,6.384 v 20 C 11.648,4.152 5.171,2.348 0,0"
                   style="fill:#02080f;fill-opacity:1;fill-rule:nonzero;stroke:none"
                   id="path1397" />
              </g>
            </g>
          </g>
        </g>
      </g>
    </g>
  </g>
</svg>
