<svg id="a693380a-2496-48a4-a05f-e2b26b547a8a" data-name="Layer 2" xmlns="http://www.w3.org/2000/svg" xmlns:xlink="http://www.w3.org/1999/xlink" viewBox="0 0 180 170"><defs><clipPath id="aa9987f9-59e8-4c55-a215-d186a3462ac7"><path d="M2.28,120.12l175.25.21L166.27,29.59a5.14,5.14,0,0,0-5.14-5.14H18.68a5.14,5.14,0,0,0-5.15,5.14Z" style="fill:none"/></clipPath><clipPath id="a2b65202-ade0-4852-a55d-35408a2fd0ea"><rect x="-0.77" y="21.43" width="182.2" height="101.16" style="fill:none"/></clipPath></defs><rect x="8.66" y="125.29" width="162.69" height="20.73" style="fill:#873921"/><path d="M8.66,158.08A9.92,9.92,0,0,0,18.58,168H161.42a9.92,9.92,0,0,0,9.92-9.92v-3.69H8.66Z" style="fill:#873921"/><rect x="8.66" y="146.02" width="162.69" height="8.38" style="fill:#a5c1e8"/><rect x="8.66" y="125.29" width="162.69" height="9.92" style="fill:#b24628"/><path d="M2.27,120H177.73a0,0,0,0,1,0,0v3a5.44,5.44,0,0,1-5.44,5.44H7.71A5.44,5.44,0,0,1,2.27,123v-3a0,0,0,0,1,0,0Z" style="fill:#873921"/><path d="M2.28,120.12l175.25.21L166.27,29.59a5.14,5.14,0,0,0-5.14-5.14H18.68a5.14,5.14,0,0,0-5.15,5.14Z" style="fill:#ef7d5e"/><g style="clip-path:url(#aa9987f9-59e8-4c55-a215-d186a3462ac7)"><g style="clip-path:url(#a2b65202-ade0-4852-a55d-35408a2fd0ea)"><path d="M5.68,12.8A3.23,3.23,0,1,1,2.45,9.58,3.23,3.23,0,0,1,5.68,12.8" style="fill:#a5e8d7"/><path d="M17.33,12.8A3.23,3.23,0,1,1,14.1,9.58a3.23,3.23,0,0,1,3.23,3.22" style="fill:#a5e8d7"/><path d="M29,12.8a3.23,3.23,0,1,1-3.22-3.22A3.22,3.22,0,0,1,29,12.8" style="fill:#a5e8d7"/><path d="M40.63,12.8a3.23,3.23,0,1,1-3.22-3.22,3.22,3.22,0,0,1,3.22,3.22" style="fill:#a5e8d7"/><path d="M52.28,12.8a3.22,3.22,0,1,1-3.22-3.22,3.22,3.22,0,0,1,3.22,3.22" style="fill:#a5e8d7"/><path d="M63.93,12.8a3.22,3.22,0,1,1-3.22-3.22,3.22,3.22,0,0,1,3.22,3.22" style="fill:#a5e8d7"/><path d="M75.58,12.8a3.22,3.22,0,1,1-3.22-3.22,3.22,3.22,0,0,1,3.22,3.22" style="fill:#a5e8d7"/><path d="M87.23,12.8A3.22,3.22,0,1,1,84,9.58a3.22,3.22,0,0,1,3.22,3.22" style="fill:#a5e8d7"/><path d="M98.88,12.8a3.22,3.22,0,1,1-3.22-3.22,3.22,3.22,0,0,1,3.22,3.22" style="fill:#a5e8d7"/><path d="M110.53,12.8a3.22,3.22,0,1,1-3.22-3.22,3.22,3.22,0,0,1,3.22,3.22" style="fill:#a5e8d7"/><path d="M122.18,12.8A3.22,3.22,0,1,1,119,9.58a3.22,3.22,0,0,1,3.22,3.22" style="fill:#a5e8d7"/><path d="M133.83,12.8a3.22,3.22,0,1,1-3.22-3.22,3.22,3.22,0,0,1,3.22,3.22" style="fill:#a5e8d7"/><path d="M145.48,12.8a3.22,3.22,0,1,1-3.22-3.22,3.22,3.22,0,0,1,3.22,3.22" style="fill:#a5e8d7"/><path d="M157.13,12.8a3.22,3.22,0,1,1-3.22-3.22,3.22,3.22,0,0,1,3.22,3.22" style="fill:#a5e8d7"/><path d="M168.78,12.8a3.22,3.22,0,1,1-3.22-3.22,3.22,3.22,0,0,1,3.22,3.22" style="fill:#a5e8d7"/><path d="M180.44,12.8a3.23,3.23,0,1,1-3.23-3.22,3.23,3.23,0,0,1,3.23,3.22" style="fill:#a5e8d7"/><path d="M5.68,24.66a3.23,3.23,0,1,1-3.23-3.23,3.23,3.23,0,0,1,3.23,3.23" style="fill:#a5e8d7"/><path d="M17.33,24.66a3.23,3.23,0,1,1-3.23-3.23,3.23,3.23,0,0,1,3.23,3.23" style="fill:#a5e8d7"/><path d="M29,24.66a3.23,3.23,0,1,1-3.22-3.23A3.23,3.23,0,0,1,29,24.66" style="fill:#a5e8d7"/><path d="M40.63,24.66a3.23,3.23,0,1,1-3.22-3.23,3.23,3.23,0,0,1,3.22,3.23" style="fill:#a5e8d7"/><path d="M52.28,24.66a3.22,3.22,0,1,1-3.22-3.23,3.22,3.22,0,0,1,3.22,3.23" style="fill:#a5e8d7"/><path d="M63.93,24.66a3.22,3.22,0,1,1-3.22-3.23,3.22,3.22,0,0,1,3.22,3.23" style="fill:#a5e8d7"/><path d="M75.58,24.66a3.22,3.22,0,1,1-3.22-3.23,3.22,3.22,0,0,1,3.22,3.23" style="fill:#a5e8d7"/><path d="M87.23,24.66A3.22,3.22,0,1,1,84,21.43a3.22,3.22,0,0,1,3.22,3.23" style="fill:#a5e8d7"/><path d="M98.88,24.66a3.22,3.22,0,1,1-3.22-3.23,3.22,3.22,0,0,1,3.22,3.23" style="fill:#a5e8d7"/><path d="M110.53,24.66a3.22,3.22,0,1,1-3.22-3.23,3.22,3.22,0,0,1,3.22,3.23" style="fill:#a5e8d7"/><path d="M122.18,24.66A3.22,3.22,0,1,1,119,21.43a3.22,3.22,0,0,1,3.22,3.23" style="fill:#a5e8d7"/><path d="M133.83,24.66a3.22,3.22,0,1,1-3.22-3.23,3.22,3.22,0,0,1,3.22,3.23" style="fill:#a5e8d7"/><path d="M145.48,24.66a3.22,3.22,0,1,1-3.22-3.23,3.22,3.22,0,0,1,3.22,3.23" style="fill:#a5e8d7"/><path d="M157.13,24.66a3.22,3.22,0,1,1-3.22-3.23,3.22,3.22,0,0,1,3.22,3.23" style="fill:#a5e8d7"/><path d="M168.78,24.66a3.22,3.22,0,1,1-3.22-3.23,3.22,3.22,0,0,1,3.22,3.23" style="fill:#a5e8d7"/><path d="M180.44,24.66a3.23,3.23,0,1,1-3.23-3.23,3.23,3.23,0,0,1,3.23,3.23" style="fill:#a5e8d7"/><path d="M5.68,36.51a3.23,3.23,0,1,1-3.23-3.22,3.23,3.23,0,0,1,3.23,3.22" style="fill:#a5e8d7"/><path d="M17.33,36.51a3.23,3.23,0,1,1-3.23-3.22,3.23,3.23,0,0,1,3.23,3.22" style="fill:#a5e8d7"/><path d="M29,36.51a3.23,3.23,0,1,1-3.22-3.22A3.22,3.22,0,0,1,29,36.51" style="fill:#a5e8d7"/><path d="M40.63,36.51a3.23,3.23,0,1,1-3.22-3.22,3.22,3.22,0,0,1,3.22,3.22" style="fill:#a5e8d7"/><path d="M52.28,36.51a3.22,3.22,0,1,1-3.22-3.22,3.22,3.22,0,0,1,3.22,3.22" style="fill:#a5e8d7"/><path d="M63.93,36.51a3.22,3.22,0,1,1-3.22-3.22,3.22,3.22,0,0,1,3.22,3.22" style="fill:#a5e8d7"/><path d="M75.58,36.51a3.22,3.22,0,1,1-3.22-3.22,3.22,3.22,0,0,1,3.22,3.22" style="fill:#a5e8d7"/><path d="M87.23,36.51A3.22,3.22,0,1,1,84,33.29a3.22,3.22,0,0,1,3.22,3.22" style="fill:#a5e8d7"/><path d="M98.88,36.51a3.22,3.22,0,1,1-3.22-3.22,3.22,3.22,0,0,1,3.22,3.22" style="fill:#a5e8d7"/><path d="M110.53,36.51a3.22,3.22,0,1,1-3.22-3.22,3.22,3.22,0,0,1,3.22,3.22" style="fill:#a5e8d7"/><path d="M122.18,36.51A3.22,3.22,0,1,1,119,33.29a3.22,3.22,0,0,1,3.22,3.22" style="fill:#a5e8d7"/><path d="M133.83,36.51a3.22,3.22,0,1,1-3.22-3.22,3.22,3.22,0,0,1,3.22,3.22" style="fill:#a5e8d7"/><path d="M145.48,36.51a3.22,3.22,0,1,1-3.22-3.22,3.22,3.22,0,0,1,3.22,3.22" style="fill:#a5e8d7"/><path d="M157.13,36.51a3.22,3.22,0,1,1-3.22-3.22,3.22,3.22,0,0,1,3.22,3.22" style="fill:#a5e8d7"/><path d="M168.78,36.51a3.22,3.22,0,1,1-3.22-3.22,3.22,3.22,0,0,1,3.22,3.22" style="fill:#a5e8d7"/><path d="M180.44,36.51a3.23,3.23,0,1,1-3.23-3.22,3.23,3.23,0,0,1,3.23,3.22" style="fill:#a5e8d7"/><path d="M5.68,48.36a3.23,3.23,0,1,1-3.23-3.22,3.23,3.23,0,0,1,3.23,3.22" style="fill:#a5e8d7"/><path d="M17.33,48.36a3.23,3.23,0,1,1-3.23-3.22,3.23,3.23,0,0,1,3.23,3.22" style="fill:#a5e8d7"/><path d="M29,48.36a3.23,3.23,0,1,1-3.22-3.22A3.22,3.22,0,0,1,29,48.36" style="fill:#a5e8d7"/><path d="M40.63,48.36a3.23,3.23,0,1,1-3.22-3.22,3.22,3.22,0,0,1,3.22,3.22" style="fill:#a5e8d7"/><path d="M52.28,48.36a3.22,3.22,0,1,1-3.22-3.22,3.22,3.22,0,0,1,3.22,3.22" style="fill:#a5e8d7"/><path d="M63.93,48.36a3.22,3.22,0,1,1-3.22-3.22,3.22,3.22,0,0,1,3.22,3.22" style="fill:#a5e8d7"/><path d="M75.58,48.36a3.22,3.22,0,1,1-3.22-3.22,3.22,3.22,0,0,1,3.22,3.22" style="fill:#a5e8d7"/><path d="M87.23,48.36A3.22,3.22,0,1,1,84,45.14a3.22,3.22,0,0,1,3.22,3.22" style="fill:#a5e8d7"/><path d="M98.88,48.36a3.22,3.22,0,1,1-3.22-3.22,3.22,3.22,0,0,1,3.22,3.22" style="fill:#a5e8d7"/><path d="M110.53,48.36a3.22,3.22,0,1,1-3.22-3.22,3.22,3.22,0,0,1,3.22,3.22" style="fill:#a5e8d7"/><path d="M122.18,48.36A3.22,3.22,0,1,1,119,45.14a3.22,3.22,0,0,1,3.22,3.22" style="fill:#a5e8d7"/><path d="M133.83,48.36a3.22,3.22,0,1,1-3.22-3.22,3.22,3.22,0,0,1,3.22,3.22" style="fill:#a5e8d7"/><path d="M145.48,48.36a3.22,3.22,0,1,1-3.22-3.22,3.22,3.22,0,0,1,3.22,3.22" style="fill:#a5e8d7"/><path d="M157.13,48.36a3.22,3.22,0,1,1-3.22-3.22,3.22,3.22,0,0,1,3.22,3.22" style="fill:#a5e8d7"/><path d="M168.78,48.36a3.22,3.22,0,1,1-3.22-3.22,3.22,3.22,0,0,1,3.22,3.22" style="fill:#a5e8d7"/><path d="M180.44,48.36a3.23,3.23,0,1,1-3.23-3.22,3.23,3.23,0,0,1,3.23,3.22" style="fill:#a5e8d7"/><path d="M5.68,60.21A3.23,3.23,0,1,1,2.45,57a3.23,3.23,0,0,1,3.23,3.22" style="fill:#a5e8d7"/><path d="M17.33,60.21A3.23,3.23,0,1,1,14.1,57a3.23,3.23,0,0,1,3.23,3.22" style="fill:#a5e8d7"/><path d="M29,60.21A3.23,3.23,0,1,1,25.76,57,3.22,3.22,0,0,1,29,60.21" style="fill:#a5e8d7"/><path d="M40.63,60.21A3.23,3.23,0,1,1,37.41,57a3.22,3.22,0,0,1,3.22,3.22" style="fill:#a5e8d7"/><path d="M52.28,60.21A3.22,3.22,0,1,1,49.06,57a3.22,3.22,0,0,1,3.22,3.22" style="fill:#a5e8d7"/><path d="M63.93,60.21A3.22,3.22,0,1,1,60.71,57a3.22,3.22,0,0,1,3.22,3.22" style="fill:#a5e8d7"/><path d="M75.58,60.21A3.22,3.22,0,1,1,72.36,57a3.22,3.22,0,0,1,3.22,3.22" style="fill:#a5e8d7"/><path d="M87.23,60.21A3.22,3.22,0,1,1,84,57a3.22,3.22,0,0,1,3.22,3.22" style="fill:#a5e8d7"/><path d="M98.88,60.21A3.22,3.22,0,1,1,95.66,57a3.22,3.22,0,0,1,3.22,3.22" style="fill:#a5e8d7"/><path d="M110.53,60.21A3.22,3.22,0,1,1,107.31,57a3.22,3.22,0,0,1,3.22,3.22" style="fill:#a5e8d7"/><path d="M122.18,60.21A3.22,3.22,0,1,1,119,57a3.22,3.22,0,0,1,3.22,3.22" style="fill:#a5e8d7"/><path d="M133.83,60.21A3.22,3.22,0,1,1,130.61,57a3.22,3.22,0,0,1,3.22,3.22" style="fill:#a5e8d7"/><path d="M145.48,60.21A3.22,3.22,0,1,1,142.26,57a3.22,3.22,0,0,1,3.22,3.22" style="fill:#a5e8d7"/><path d="M157.13,60.21A3.22,3.22,0,1,1,153.91,57a3.22,3.22,0,0,1,3.22,3.22" style="fill:#a5e8d7"/><path d="M168.78,60.21A3.22,3.22,0,1,1,165.56,57a3.22,3.22,0,0,1,3.22,3.22" style="fill:#a5e8d7"/><path d="M180.44,60.21A3.23,3.23,0,1,1,177.21,57a3.23,3.23,0,0,1,3.23,3.22" style="fill:#a5e8d7"/><path d="M5.68,72.07a3.23,3.23,0,1,1-3.23-3.23,3.23,3.23,0,0,1,3.23,3.23" style="fill:#a5e8d7"/><path d="M17.33,72.07a3.23,3.23,0,1,1-3.23-3.23,3.23,3.23,0,0,1,3.23,3.23" style="fill:#a5e8d7"/><path d="M29,72.07a3.23,3.23,0,1,1-3.22-3.23A3.23,3.23,0,0,1,29,72.07" style="fill:#a5e8d7"/><path d="M40.63,72.07a3.23,3.23,0,1,1-3.22-3.23,3.23,3.23,0,0,1,3.22,3.23" style="fill:#a5e8d7"/><path d="M52.28,72.07a3.22,3.22,0,1,1-3.22-3.23,3.22,3.22,0,0,1,3.22,3.23" style="fill:#a5e8d7"/><path d="M63.93,72.07a3.22,3.22,0,1,1-3.22-3.23,3.22,3.22,0,0,1,3.22,3.23" style="fill:#a5e8d7"/><path d="M75.58,72.07a3.22,3.22,0,1,1-3.22-3.23,3.22,3.22,0,0,1,3.22,3.23" style="fill:#a5e8d7"/><path d="M87.23,72.07A3.22,3.22,0,1,1,84,68.84a3.22,3.22,0,0,1,3.22,3.23" style="fill:#a5e8d7"/><path d="M98.88,72.07a3.22,3.22,0,1,1-3.22-3.23,3.22,3.22,0,0,1,3.22,3.23" style="fill:#a5e8d7"/><path d="M110.53,72.07a3.22,3.22,0,1,1-3.22-3.23,3.22,3.22,0,0,1,3.22,3.23" style="fill:#a5e8d7"/><path d="M122.18,72.07A3.22,3.22,0,1,1,119,68.84a3.22,3.22,0,0,1,3.22,3.23" style="fill:#a5e8d7"/><path d="M133.83,72.07a3.22,3.22,0,1,1-3.22-3.23,3.22,3.22,0,0,1,3.22,3.23" style="fill:#a5e8d7"/><path d="M145.48,72.07a3.22,3.22,0,1,1-3.22-3.23,3.22,3.22,0,0,1,3.22,3.23" style="fill:#a5e8d7"/><path d="M157.13,72.07a3.22,3.22,0,1,1-3.22-3.23,3.22,3.22,0,0,1,3.22,3.23" style="fill:#a5e8d7"/><path d="M168.78,72.07a3.22,3.22,0,1,1-3.22-3.23,3.22,3.22,0,0,1,3.22,3.23" style="fill:#a5e8d7"/><path d="M180.44,72.07a3.23,3.23,0,1,1-3.23-3.23,3.23,3.23,0,0,1,3.23,3.23" style="fill:#a5e8d7"/><path d="M5.68,83.92A3.23,3.23,0,1,1,2.45,80.7a3.23,3.23,0,0,1,3.23,3.22" style="fill:#a5e8d7"/><path d="M17.33,83.92A3.23,3.23,0,1,1,14.1,80.7a3.23,3.23,0,0,1,3.23,3.22" style="fill:#a5e8d7"/><path d="M29,83.92a3.23,3.23,0,1,1-3.22-3.22A3.22,3.22,0,0,1,29,83.92" style="fill:#a5e8d7"/><path d="M40.63,83.92a3.23,3.23,0,1,1-3.22-3.22,3.22,3.22,0,0,1,3.22,3.22" style="fill:#a5e8d7"/><path d="M52.28,83.92a3.22,3.22,0,1,1-3.22-3.22,3.22,3.22,0,0,1,3.22,3.22" style="fill:#a5e8d7"/><path d="M63.93,83.92a3.22,3.22,0,1,1-3.22-3.22,3.22,3.22,0,0,1,3.22,3.22" style="fill:#a5e8d7"/><path d="M75.58,83.92a3.22,3.22,0,1,1-3.22-3.22,3.22,3.22,0,0,1,3.22,3.22" style="fill:#a5e8d7"/><path d="M87.23,83.92A3.22,3.22,0,1,1,84,80.7a3.22,3.22,0,0,1,3.22,3.22" style="fill:#a5e8d7"/><path d="M98.88,83.92a3.22,3.22,0,1,1-3.22-3.22,3.22,3.22,0,0,1,3.22,3.22" style="fill:#a5e8d7"/><path d="M110.53,83.92a3.22,3.22,0,1,1-3.22-3.22,3.22,3.22,0,0,1,3.22,3.22" style="fill:#a5e8d7"/><path d="M122.18,83.92A3.22,3.22,0,1,1,119,80.7a3.22,3.22,0,0,1,3.22,3.22" style="fill:#a5e8d7"/><path d="M133.83,83.92a3.22,3.22,0,1,1-3.22-3.22,3.22,3.22,0,0,1,3.22,3.22" style="fill:#a5e8d7"/><path d="M145.48,83.92a3.22,3.22,0,1,1-3.22-3.22,3.22,3.22,0,0,1,3.22,3.22" style="fill:#a5e8d7"/><path d="M157.13,83.92a3.22,3.22,0,1,1-3.22-3.22,3.22,3.22,0,0,1,3.22,3.22" style="fill:#a5e8d7"/><path d="M168.78,83.92a3.22,3.22,0,1,1-3.22-3.22,3.22,3.22,0,0,1,3.22,3.22" style="fill:#a5e8d7"/><path d="M180.44,83.92a3.23,3.23,0,1,1-3.23-3.22,3.23,3.23,0,0,1,3.23,3.22" style="fill:#a5e8d7"/><path d="M5.68,95.77a3.23,3.23,0,1,1-3.23-3.22,3.23,3.23,0,0,1,3.23,3.22" style="fill:#a5e8d7"/><path d="M17.33,95.77a3.23,3.23,0,1,1-3.23-3.22,3.23,3.23,0,0,1,3.23,3.22" style="fill:#a5e8d7"/><path d="M29,95.77a3.23,3.23,0,1,1-3.22-3.22A3.22,3.22,0,0,1,29,95.77" style="fill:#a5e8d7"/><path d="M40.63,95.77a3.23,3.23,0,1,1-3.22-3.22,3.22,3.22,0,0,1,3.22,3.22" style="fill:#a5e8d7"/><path d="M52.28,95.77a3.22,3.22,0,1,1-3.22-3.22,3.22,3.22,0,0,1,3.22,3.22" style="fill:#a5e8d7"/><path d="M63.93,95.77a3.22,3.22,0,1,1-3.22-3.22,3.22,3.22,0,0,1,3.22,3.22" style="fill:#a5e8d7"/><path d="M75.58,95.77a3.22,3.22,0,1,1-3.22-3.22,3.22,3.22,0,0,1,3.22,3.22" style="fill:#a5e8d7"/><path d="M87.23,95.77A3.22,3.22,0,1,1,84,92.55a3.22,3.22,0,0,1,3.22,3.22" style="fill:#a5e8d7"/><path d="M98.88,95.77a3.22,3.22,0,1,1-3.22-3.22,3.22,3.22,0,0,1,3.22,3.22" style="fill:#a5e8d7"/><path d="M110.53,95.77a3.22,3.22,0,1,1-3.22-3.22,3.22,3.22,0,0,1,3.22,3.22" style="fill:#a5e8d7"/><path d="M122.18,95.77A3.22,3.22,0,1,1,119,92.55a3.22,3.22,0,0,1,3.22,3.22" style="fill:#a5e8d7"/><path d="M133.83,95.77a3.22,3.22,0,1,1-3.22-3.22,3.22,3.22,0,0,1,3.22,3.22" style="fill:#a5e8d7"/><path d="M145.48,95.77a3.22,3.22,0,1,1-3.22-3.22,3.22,3.22,0,0,1,3.22,3.22" style="fill:#a5e8d7"/><path d="M157.13,95.77a3.22,3.22,0,1,1-3.22-3.22,3.22,3.22,0,0,1,3.22,3.22" style="fill:#a5e8d7"/><path d="M168.78,95.77a3.22,3.22,0,1,1-3.22-3.22,3.22,3.22,0,0,1,3.22,3.22" style="fill:#a5e8d7"/><path d="M180.44,95.77a3.23,3.23,0,1,1-3.23-3.22,3.23,3.23,0,0,1,3.23,3.22" style="fill:#a5e8d7"/><path d="M5.68,107.62a3.23,3.23,0,1,1-3.23-3.22,3.23,3.23,0,0,1,3.23,3.22" style="fill:#a5e8d7"/><path d="M17.33,107.62a3.23,3.23,0,1,1-3.23-3.22,3.23,3.23,0,0,1,3.23,3.22" style="fill:#a5e8d7"/><path d="M29,107.62a3.23,3.23,0,1,1-3.22-3.22A3.22,3.22,0,0,1,29,107.62" style="fill:#a5e8d7"/><path d="M40.63,107.62a3.23,3.23,0,1,1-3.22-3.22,3.22,3.22,0,0,1,3.22,3.22" style="fill:#a5e8d7"/><path d="M52.28,107.62a3.22,3.22,0,1,1-3.22-3.22,3.22,3.22,0,0,1,3.22,3.22" style="fill:#a5e8d7"/><path d="M63.93,107.62a3.22,3.22,0,1,1-3.22-3.22,3.22,3.22,0,0,1,3.22,3.22" style="fill:#a5e8d7"/><path d="M75.58,107.62a3.22,3.22,0,1,1-3.22-3.22,3.22,3.22,0,0,1,3.22,3.22" style="fill:#a5e8d7"/><path d="M87.23,107.62A3.22,3.22,0,1,1,84,104.4a3.22,3.22,0,0,1,3.22,3.22" style="fill:#a5e8d7"/><path d="M98.88,107.62a3.22,3.22,0,1,1-3.22-3.22,3.22,3.22,0,0,1,3.22,3.22" style="fill:#a5e8d7"/><path d="M110.53,107.62a3.22,3.22,0,1,1-3.22-3.22,3.22,3.22,0,0,1,3.22,3.22" style="fill:#a5e8d7"/><path d="M122.18,107.62A3.22,3.22,0,1,1,119,104.4a3.22,3.22,0,0,1,3.22,3.22" style="fill:#a5e8d7"/><path d="M133.83,107.62a3.22,3.22,0,1,1-3.22-3.22,3.22,3.22,0,0,1,3.22,3.22" style="fill:#a5e8d7"/><path d="M145.48,107.62a3.22,3.22,0,1,1-3.22-3.22,3.22,3.22,0,0,1,3.22,3.22" style="fill:#a5e8d7"/><path d="M157.13,107.62a3.22,3.22,0,1,1-3.22-3.22,3.22,3.22,0,0,1,3.22,3.22" style="fill:#a5e8d7"/><path d="M168.78,107.62a3.22,3.22,0,1,1-3.22-3.22,3.22,3.22,0,0,1,3.22,3.22" style="fill:#a5e8d7"/><path d="M180.44,107.62a3.23,3.23,0,1,1-3.23-3.22,3.23,3.23,0,0,1,3.23,3.22" style="fill:#a5e8d7"/><path d="M5.68,119.47a3.23,3.23,0,1,1-3.23-3.22,3.23,3.23,0,0,1,3.23,3.22" style="fill:#a5e8d7"/><path d="M17.33,119.47a3.23,3.23,0,1,1-3.23-3.22,3.23,3.23,0,0,1,3.23,3.22" style="fill:#a5e8d7"/><path d="M29,119.47a3.23,3.23,0,1,1-3.22-3.22A3.23,3.23,0,0,1,29,119.47" style="fill:#a5e8d7"/><path d="M40.63,119.47a3.23,3.23,0,1,1-3.22-3.22,3.23,3.23,0,0,1,3.22,3.22" style="fill:#a5e8d7"/><path d="M52.28,119.47a3.22,3.22,0,1,1-3.22-3.22,3.23,3.23,0,0,1,3.22,3.22" style="fill:#a5e8d7"/><path d="M63.93,119.47a3.22,3.22,0,1,1-3.22-3.22,3.23,3.23,0,0,1,3.22,3.22" style="fill:#a5e8d7"/><path d="M75.58,119.47a3.22,3.22,0,1,1-3.22-3.22,3.23,3.23,0,0,1,3.22,3.22" style="fill:#a5e8d7"/><path d="M87.23,119.47A3.22,3.22,0,1,1,84,116.25a3.23,3.23,0,0,1,3.22,3.22" style="fill:#a5e8d7"/><path d="M98.88,119.47a3.22,3.22,0,1,1-3.22-3.22,3.23,3.23,0,0,1,3.22,3.22" style="fill:#a5e8d7"/><path d="M110.53,119.47a3.22,3.22,0,1,1-3.22-3.22,3.23,3.23,0,0,1,3.22,3.22" style="fill:#a5e8d7"/><path d="M122.18,119.47a3.22,3.22,0,1,1-3.22-3.22,3.23,3.23,0,0,1,3.22,3.22" style="fill:#a5e8d7"/><path d="M133.83,119.47a3.22,3.22,0,1,1-3.22-3.22,3.23,3.23,0,0,1,3.22,3.22" style="fill:#a5e8d7"/><path d="M145.48,119.47a3.22,3.22,0,1,1-3.22-3.22,3.23,3.23,0,0,1,3.22,3.22" style="fill:#a5e8d7"/><path d="M157.13,119.47a3.22,3.22,0,1,1-3.22-3.22,3.23,3.23,0,0,1,3.22,3.22" style="fill:#a5e8d7"/><path d="M168.78,119.47a3.22,3.22,0,1,1-3.22-3.22,3.23,3.23,0,0,1,3.22,3.22" style="fill:#a5e8d7"/><path d="M180.44,119.47a3.23,3.23,0,1,1-3.23-3.22,3.23,3.23,0,0,1,3.23,3.22" style="fill:#a5e8d7"/><path d="M5.68,131.33a3.23,3.23,0,1,1-3.23-3.23,3.23,3.23,0,0,1,3.23,3.23" style="fill:#a5e8d7"/><path d="M17.33,131.33a3.23,3.23,0,1,1-3.23-3.23,3.23,3.23,0,0,1,3.23,3.23" style="fill:#a5e8d7"/><path d="M29,131.33a3.23,3.23,0,1,1-3.22-3.23A3.23,3.23,0,0,1,29,131.33" style="fill:#a5e8d7"/><path d="M40.63,131.33a3.23,3.23,0,1,1-3.22-3.23,3.23,3.23,0,0,1,3.22,3.23" style="fill:#a5e8d7"/><path d="M52.28,131.33a3.22,3.22,0,1,1-3.22-3.23,3.22,3.22,0,0,1,3.22,3.23" style="fill:#a5e8d7"/><path d="M63.93,131.33a3.22,3.22,0,1,1-3.22-3.23,3.22,3.22,0,0,1,3.22,3.23" style="fill:#a5e8d7"/><path d="M75.58,131.33a3.22,3.22,0,1,1-3.22-3.23,3.22,3.22,0,0,1,3.22,3.23" style="fill:#a5e8d7"/><path d="M87.23,131.33A3.22,3.22,0,1,1,84,128.1a3.22,3.22,0,0,1,3.22,3.23" style="fill:#a5e8d7"/><path d="M98.88,131.33a3.22,3.22,0,1,1-3.22-3.23,3.22,3.22,0,0,1,3.22,3.23" style="fill:#a5e8d7"/><path d="M110.53,131.33a3.22,3.22,0,1,1-3.22-3.23,3.22,3.22,0,0,1,3.22,3.23" style="fill:#a5e8d7"/><path d="M122.18,131.33A3.22,3.22,0,1,1,119,128.1a3.22,3.22,0,0,1,3.22,3.23" style="fill:#a5e8d7"/><path d="M133.83,131.33a3.22,3.22,0,1,1-3.22-3.23,3.22,3.22,0,0,1,3.22,3.23" style="fill:#a5e8d7"/><path d="M145.48,131.33a3.22,3.22,0,1,1-3.22-3.23,3.22,3.22,0,0,1,3.22,3.23" style="fill:#a5e8d7"/><path d="M157.13,131.33a3.22,3.22,0,1,1-3.22-3.23,3.22,3.22,0,0,1,3.22,3.23" style="fill:#a5e8d7"/><path d="M168.78,131.33a3.22,3.22,0,1,1-3.22-3.23,3.22,3.22,0,0,1,3.22,3.23" style="fill:#a5e8d7"/><path d="M180.44,131.33a3.23,3.23,0,1,1-3.23-3.23,3.23,3.23,0,0,1,3.23,3.23" style="fill:#a5e8d7"/></g></g><ellipse cx="85.96" cy="50.57" rx="9.66" ry="8.51" style="fill:#b74c32"/><ellipse cx="104.85" cy="56.35" rx="9.66" ry="8.51" style="fill:#b74c32"/><ellipse cx="113.47" cy="72.25" rx="9.66" ry="8.51" style="fill:#b74c32"/><ellipse cx="106.7" cy="88.84" rx="9.66" ry="8.51" style="fill:#b74c32"/><ellipse cx="88.56" cy="96.26" rx="9.66" ry="8.51" style="fill:#b74c32"/><ellipse cx="69.83" cy="90.1" rx="9.66" ry="8.51" style="fill:#b74c32"/><ellipse cx="61.62" cy="74.03" rx="9.66" ry="8.51" style="fill:#b74c32"/><ellipse cx="68.81" cy="57.58" rx="9.66" ry="8.51" style="fill:#b74c32"/><ellipse cx="87.55" cy="73.41" rx="29.79" ry="26.27" style="fill:#b74c32"/><ellipse cx="87.55" cy="73.41" rx="24.44" ry="21.55" style="fill:none;stroke:#fff;stroke-miterlimit:10;stroke-width:0.55222761631012px"/><text transform="translate(73.79 80.02) scale(1.13 1)" style="font-size:22.645360946655273px;fill:#fff;font-family:Montserrat-Bold, Montserrat;font-weight:700">10</text></svg>