<svg id="e672d90f-483f-408d-afec-ad9990fb9d90" data-name="Layer 4" xmlns="http://www.w3.org/2000/svg" xmlns:xlink="http://www.w3.org/1999/xlink" viewBox="0 0 180 170"><defs><clipPath id="b9bd6385-0154-44de-82a7-e4318d452ce4"><path d="M14.06,110.47H165.48a0,0,0,0,1,0,0v43.74A13.79,13.79,0,0,1,151.69,168H49.55a35.49,35.49,0,0,1-35.49-35.49v-22a0,0,0,0,1,0,0Z" style="fill:none"/></clipPath><clipPath id="b53e11ba-a3a7-44a6-a54d-9ecc3e7b8a4d"><path d="M66.86,47.21s-3.27-20,25.19-24.36c31.28-4.75,47.87,9.24,53.54,23.52,4.13,10.39,17.92,46.12,25.13,64.82a8.53,8.53,0,0,1-8,11.6H45.86S9.33,119.43,8.7,87.1,56.15,44.27,66.86,47.21Z" style="fill:none"/></clipPath><clipPath id="ae6720d1-aaf2-40a6-b44f-954357378723"><rect x="5.25" y="24.36" width="184.01" height="102.74" style="fill:none"/></clipPath></defs><path d="M14.06,110.47H165.48a0,0,0,0,1,0,0v43.74A13.79,13.79,0,0,1,151.69,168H49.55a35.49,35.49,0,0,1-35.49-35.49v-22a0,0,0,0,1,0,0Z" style="fill:#ea9f43"/><g style="clip-path:url(#b9bd6385-0154-44de-82a7-e4318d452ce4)"><path d="M173.59,132.28V117.84H168.3c-7.59-19.19-17.6-44.45-21-52.9-5.81-14.28-22.83-28.27-54.88-23.52C63.21,45.74,66.55,65.78,66.55,65.78,57.84,63.44,25,69.58,12.14,88.39H6.94v17.14h0v.14C7.59,138,45,141.36,45,141.36H164.85A8.64,8.64,0,0,0,173.59,132.28Z" style="fill:#ab702c;opacity:0.64"/></g><path d="M171.28,128.31V113.86h-5.16C158.72,94.67,149,69.42,145.59,61c-5.67-14.28-22.26-28.26-53.54-23.52C63.59,41.76,66.86,61.8,66.86,61.8c-8.5-2.33-40.55,3.8-53.09,22.61H8.7v17.15h0v.13c.63,32.33,37.16,35.69,37.16,35.69h116.9A8.54,8.54,0,0,0,171.28,128.31Z" style="fill:#ab702c"/><path d="M66.86,47.21s-3.27-20,25.19-24.36c31.28-4.75,47.87,9.24,53.54,23.52,4.13,10.39,17.92,46.12,25.13,64.82a8.53,8.53,0,0,1-8,11.6H45.86S9.33,119.43,8.7,87.1,56.15,44.27,66.86,47.21Z" style="fill:#ea9f43"/><path d="M63.33,69.16c-3.78-.21-5.74,1.33-5.39,3.56a14.26,14.26,0,0,0,4.76,8.89s4.27-3.29,5-7.28S67.11,69.37,63.33,69.16Z" style="fill:none"/><path d="M43.73,81.68c-5.88-.14-3,8-2.8,8.4s1.12,2.66,4.62,1.47a15.61,15.61,0,0,0,7.07-4.62S49.61,81.82,43.73,81.68Z" style="fill:none"/><g style="clip-path:url(#b53e11ba-a3a7-44a6-a54d-9ecc3e7b8a4d)"><g style="clip-path:url(#ae6720d1-aaf2-40a6-b44f-954357378723)"><path d="M13.87,9.46h0a2.44,2.44,0,0,0-3.46,0L9.92,10l-.49-.49A2.44,2.44,0,1,0,6,12.91l.49.49,3.46,3.46,3.45-3.46.5-.49a2.44,2.44,0,0,0,0-3.45" style="fill:#a5e8d7"/><path d="M30.7,9.46h0a2.44,2.44,0,0,0-3.46,0l-.49.49-.49-.49a2.44,2.44,0,0,0-3.46,3.45l.5.49,3.45,3.46,3.46-3.46.49-.49a2.44,2.44,0,0,0,0-3.45" style="fill:#a5e8d7"/><path d="M47.53,9.46h0a2.44,2.44,0,0,0-3.46,0l-.49.49-.49-.49a2.44,2.44,0,0,0-3.45,3.45l.49.49,3.45,3.46L47,13.4l.49-.49a2.44,2.44,0,0,0,0-3.45" style="fill:#a5e8d7"/><path d="M64.36,9.46h0a2.43,2.43,0,0,0-3.45,0l-.5.49-.49-.49a2.44,2.44,0,0,0-3.45,3.45l.49.49,3.45,3.46,3.46-3.46.49-.49a2.43,2.43,0,0,0,0-3.45" style="fill:#a5e8d7"/><path d="M81.19,9.46h0a2.43,2.43,0,0,0-3.45,0l-.49.49-.5-.49a2.44,2.44,0,0,0-3.45,3.45l.49.49,3.46,3.46L80.7,13.4l.49-.49a2.43,2.43,0,0,0,0-3.45" style="fill:#a5e8d7"/><path d="M98,9.46h0a2.43,2.43,0,0,0-3.45,0l-.49.49-.5-.49a2.44,2.44,0,1,0-3.45,3.45l.49.49,3.46,3.46,3.45-3.46.49-.49a2.43,2.43,0,0,0,0-3.45" style="fill:#a5e8d7"/><path d="M114.86,9.46h0a2.44,2.44,0,0,0-3.46,0l-.49.49-.49-.49A2.44,2.44,0,0,0,107,12.91l.49.49,3.46,3.46,3.45-3.46.5-.49a2.44,2.44,0,0,0,0-3.45" style="fill:#a5e8d7"/><path d="M131.69,9.46h0a2.44,2.44,0,0,0-3.46,0l-.49.49-.49-.49a2.44,2.44,0,0,0-3.46,3.45l.49.49,3.46,3.46,3.46-3.46.49-.49a2.44,2.44,0,0,0,0-3.45" style="fill:#a5e8d7"/><path d="M148.52,9.46h0a2.44,2.44,0,0,0-3.46,0l-.49.49-.49-.49a2.44,2.44,0,0,0-3.46,3.45l.5.49,3.45,3.46L148,13.4l.49-.49a2.44,2.44,0,0,0,0-3.45" style="fill:#a5e8d7"/><path d="M165.35,9.46h0a2.44,2.44,0,0,0-3.46,0l-.49.49-.49-.49a2.44,2.44,0,0,0-3.45,3.45l.49.49,3.45,3.46,3.46-3.46.49-.49a2.44,2.44,0,0,0,0-3.45" style="fill:#a5e8d7"/><path d="M182.18,9.46h0a2.43,2.43,0,0,0-3.45,0l-.5.49-.49-.49a2.44,2.44,0,1,0-3.45,3.45l.49.49,3.45,3.46,3.46-3.46.49-.49a2.43,2.43,0,0,0,0-3.45" style="fill:#a5e8d7"/><path d="M13.87,25.08h0a2.46,2.46,0,0,0-3.46,0l-.49.49-.49-.49A2.45,2.45,0,0,0,6,28.54l.49.49,3.46,3.45L13.37,29l.5-.49a2.46,2.46,0,0,0,0-3.46" style="fill:#a5e8d7"/><path d="M30.7,25.08h0a2.46,2.46,0,0,0-3.46,0l-.49.49-.49-.49a2.45,2.45,0,0,0-3.46,3.46l.5.49,3.45,3.45L30.21,29l.49-.49a2.46,2.46,0,0,0,0-3.46" style="fill:#a5e8d7"/><path d="M47.53,25.08h0a2.46,2.46,0,0,0-3.46,0l-.49.49-.49-.49a2.44,2.44,0,1,0-3.45,3.46l.49.49,3.45,3.45L47,29l.49-.49a2.46,2.46,0,0,0,0-3.46" style="fill:#a5e8d7"/><path d="M64.36,25.08h0a2.44,2.44,0,0,0-3.45,0l-.5.49-.49-.49a2.44,2.44,0,1,0-3.45,3.46L57,29l3.45,3.45L63.87,29l.49-.49a2.44,2.44,0,0,0,0-3.46" style="fill:#a5e8d7"/><path d="M81.19,25.08h0a2.44,2.44,0,0,0-3.45,0l-.49.49-.5-.49a2.44,2.44,0,0,0-3.45,3.46l.49.49,3.46,3.45L80.7,29l.49-.49a2.44,2.44,0,0,0,0-3.46" style="fill:#a5e8d7"/><path d="M98,25.08h0a2.44,2.44,0,0,0-3.45,0l-.49.49-.5-.49a2.44,2.44,0,1,0-3.45,3.46l.49.49,3.46,3.45L97.53,29l.49-.49a2.44,2.44,0,0,0,0-3.46" style="fill:#a5e8d7"/><path d="M114.86,25.08h0a2.46,2.46,0,0,0-3.46,0l-.49.49-.49-.49A2.45,2.45,0,0,0,107,28.54l.49.49,3.46,3.45L114.36,29l.5-.49a2.46,2.46,0,0,0,0-3.46" style="fill:#a5e8d7"/><path d="M131.69,25.08h0a2.46,2.46,0,0,0-3.46,0l-.49.49-.49-.49a2.45,2.45,0,0,0-3.46,3.46l.49.49,3.46,3.45L131.2,29l.49-.49a2.46,2.46,0,0,0,0-3.46" style="fill:#a5e8d7"/><path d="M148.52,25.08h0a2.46,2.46,0,0,0-3.46,0l-.49.49-.49-.49a2.45,2.45,0,0,0-3.46,3.46l.5.49,3.45,3.45L148,29l.49-.49a2.46,2.46,0,0,0,0-3.46" style="fill:#a5e8d7"/><path d="M165.35,25.08h0a2.46,2.46,0,0,0-3.46,0l-.49.49-.49-.49a2.44,2.44,0,0,0-3.45,3.46L158,29l3.45,3.45L164.86,29l.49-.49a2.46,2.46,0,0,0,0-3.46" style="fill:#a5e8d7"/><path d="M182.18,25.08h0a2.44,2.44,0,0,0-3.45,0l-.5.49-.49-.49a2.44,2.44,0,1,0-3.45,3.46l.49.49,3.45,3.45L181.69,29l.49-.49a2.44,2.44,0,0,0,0-3.46" style="fill:#a5e8d7"/><path d="M13.87,40.7h0a2.46,2.46,0,0,0-3.46,0l-.49.5-.49-.5A2.45,2.45,0,0,0,6,44.16l.49.49,3.46,3.46,3.45-3.46.5-.49a2.46,2.46,0,0,0,0-3.46" style="fill:#a5e8d7"/><path d="M30.7,40.7h0a2.46,2.46,0,0,0-3.46,0l-.49.5-.49-.5a2.45,2.45,0,0,0-3.46,3.46l.5.49,3.45,3.46,3.46-3.46.49-.49a2.46,2.46,0,0,0,0-3.46" style="fill:#a5e8d7"/><path d="M47.53,40.7h0a2.46,2.46,0,0,0-3.46,0l-.49.5-.49-.5a2.44,2.44,0,1,0-3.45,3.46l.49.49,3.45,3.46L47,44.65l.49-.49a2.46,2.46,0,0,0,0-3.46" style="fill:#a5e8d7"/><path d="M64.36,40.7h0a2.44,2.44,0,0,0-3.45,0l-.5.5-.49-.5a2.44,2.44,0,1,0-3.45,3.46l.49.49,3.45,3.46,3.46-3.46.49-.49a2.44,2.44,0,0,0,0-3.46" style="fill:#a5e8d7"/><path d="M81.19,40.7h0a2.44,2.44,0,0,0-3.45,0l-.49.5-.5-.5a2.44,2.44,0,0,0-3.45,3.46l.49.49,3.46,3.46,3.45-3.46.49-.49a2.44,2.44,0,0,0,0-3.46" style="fill:#a5e8d7"/><path d="M98,40.7h0a2.44,2.44,0,0,0-3.45,0l-.49.5-.5-.5a2.44,2.44,0,1,0-3.45,3.46l.49.49,3.46,3.46,3.45-3.46.49-.49a2.44,2.44,0,0,0,0-3.46" style="fill:#a5e8d7"/><path d="M114.86,40.7h0a2.46,2.46,0,0,0-3.46,0l-.49.5-.49-.5A2.45,2.45,0,0,0,107,44.16l.49.49,3.46,3.46,3.45-3.46.5-.49a2.46,2.46,0,0,0,0-3.46" style="fill:#a5e8d7"/><path d="M131.69,40.7h0a2.46,2.46,0,0,0-3.46,0l-.49.5-.49-.5a2.45,2.45,0,0,0-3.46,3.46l.49.49,3.46,3.46,3.46-3.46.49-.49a2.46,2.46,0,0,0,0-3.46" style="fill:#a5e8d7"/><path d="M148.52,40.7h0a2.46,2.46,0,0,0-3.46,0l-.49.5-.49-.5a2.45,2.45,0,0,0-3.46,3.46l.5.49,3.45,3.46L148,44.65l.49-.49a2.46,2.46,0,0,0,0-3.46" style="fill:#a5e8d7"/><path d="M165.35,40.7h0a2.46,2.46,0,0,0-3.46,0l-.49.5-.49-.5a2.44,2.44,0,0,0-3.45,3.46l.49.49,3.45,3.46,3.46-3.46.49-.49a2.46,2.46,0,0,0,0-3.46" style="fill:#a5e8d7"/><path d="M182.18,40.7h0a2.44,2.44,0,0,0-3.45,0l-.5.5-.49-.5a2.44,2.44,0,1,0-3.45,3.46l.49.49,3.45,3.46,3.46-3.46.49-.49a2.44,2.44,0,0,0,0-3.46" style="fill:#a5e8d7"/><path d="M13.87,56.33h0a2.44,2.44,0,0,0-3.46,0l-.49.49-.49-.49A2.44,2.44,0,0,0,6,59.78l.49.5,3.46,3.45,3.45-3.45.5-.5a2.44,2.44,0,0,0,0-3.45" style="fill:#a5e8d7"/><path d="M30.7,56.33h0a2.44,2.44,0,0,0-3.46,0l-.49.49-.49-.49a2.44,2.44,0,0,0-3.46,3.45l.5.5,3.45,3.45,3.46-3.45.49-.5a2.44,2.44,0,0,0,0-3.45" style="fill:#a5e8d7"/><path d="M47.53,56.33h0a2.44,2.44,0,0,0-3.46,0l-.49.49-.49-.49a2.44,2.44,0,0,0-3.45,3.45l.49.5,3.45,3.45L47,60.28l.49-.5a2.44,2.44,0,0,0,0-3.45" style="fill:#a5e8d7"/><path d="M64.36,56.33h0a2.43,2.43,0,0,0-3.45,0l-.5.49-.49-.49a2.44,2.44,0,0,0-3.45,3.45l.49.5,3.45,3.45,3.46-3.45.49-.5a2.43,2.43,0,0,0,0-3.45" style="fill:#a5e8d7"/><path d="M81.19,56.33h0a2.43,2.43,0,0,0-3.45,0l-.49.49-.5-.49a2.44,2.44,0,0,0-3.45,3.45l.49.5,3.46,3.45,3.45-3.45.49-.5a2.43,2.43,0,0,0,0-3.45" style="fill:#a5e8d7"/><path d="M98,56.33h0a2.43,2.43,0,0,0-3.45,0l-.49.49-.5-.49a2.44,2.44,0,1,0-3.45,3.45l.49.5,3.46,3.45,3.45-3.45.49-.5a2.43,2.43,0,0,0,0-3.45" style="fill:#a5e8d7"/><path d="M114.86,56.33h0a2.44,2.44,0,0,0-3.46,0l-.49.49-.49-.49A2.44,2.44,0,0,0,107,59.78l.49.5,3.46,3.45,3.45-3.45.5-.5a2.44,2.44,0,0,0,0-3.45" style="fill:#a5e8d7"/><path d="M131.69,56.33h0a2.44,2.44,0,0,0-3.46,0l-.49.49-.49-.49a2.44,2.44,0,0,0-3.46,3.45l.49.5,3.46,3.45,3.46-3.45.49-.5a2.44,2.44,0,0,0,0-3.45" style="fill:#a5e8d7"/><path d="M148.52,56.33h0a2.44,2.44,0,0,0-3.46,0l-.49.49-.49-.49a2.44,2.44,0,0,0-3.46,3.45l.5.5,3.45,3.45L148,60.28l.49-.5a2.44,2.44,0,0,0,0-3.45" style="fill:#a5e8d7"/><path d="M165.35,56.33h0a2.44,2.44,0,0,0-3.46,0l-.49.49-.49-.49a2.44,2.44,0,0,0-3.45,3.45l.49.5,3.45,3.45,3.46-3.45.49-.5a2.44,2.44,0,0,0,0-3.45" style="fill:#a5e8d7"/><path d="M182.18,56.33h0a2.43,2.43,0,0,0-3.45,0l-.5.49-.49-.49a2.44,2.44,0,1,0-3.45,3.45l.49.5,3.45,3.45,3.46-3.45.49-.5a2.43,2.43,0,0,0,0-3.45" style="fill:#a5e8d7"/><path d="M13.87,72h0a2.46,2.46,0,0,0-3.46,0l-.49.49L9.43,72A2.45,2.45,0,0,0,6,75.41l.49.49,3.46,3.46,3.45-3.46.5-.49a2.46,2.46,0,0,0,0-3.46" style="fill:#a5e8d7"/><path d="M30.7,72h0a2.46,2.46,0,0,0-3.46,0l-.49.49L26.26,72a2.45,2.45,0,0,0-3.46,3.46l.5.49,3.45,3.46,3.46-3.46.49-.49a2.46,2.46,0,0,0,0-3.46" style="fill:#a5e8d7"/><path d="M47.53,72h0a2.46,2.46,0,0,0-3.46,0l-.49.49L43.09,72a2.44,2.44,0,0,0-3.45,3.46l.49.49,3.45,3.46L47,75.9l.49-.49a2.46,2.46,0,0,0,0-3.46" style="fill:#a5e8d7"/><path d="M64.36,72h0a2.44,2.44,0,0,0-3.45,0l-.5.49L59.92,72a2.44,2.44,0,0,0-3.45,3.46l.49.49,3.45,3.46,3.46-3.46.49-.49a2.44,2.44,0,0,0,0-3.46" style="fill:#a5e8d7"/><path d="M81.19,72h0a2.44,2.44,0,0,0-3.45,0l-.49.49-.5-.49a2.44,2.44,0,0,0-3.45,3.46l.49.49,3.46,3.46L80.7,75.9l.49-.49a2.44,2.44,0,0,0,0-3.46" style="fill:#a5e8d7"/><path d="M98,72h0a2.44,2.44,0,0,0-3.45,0l-.49.49-.5-.49a2.44,2.44,0,1,0-3.45,3.46l.49.49,3.46,3.46,3.45-3.46.49-.49A2.44,2.44,0,0,0,98,72" style="fill:#a5e8d7"/><path d="M114.86,72h0a2.46,2.46,0,0,0-3.46,0l-.49.49-.49-.49A2.45,2.45,0,0,0,107,75.41l.49.49,3.46,3.46,3.45-3.46.5-.49a2.46,2.46,0,0,0,0-3.46" style="fill:#a5e8d7"/><path d="M131.69,72h0a2.46,2.46,0,0,0-3.46,0l-.49.49-.49-.49a2.45,2.45,0,0,0-3.46,3.46l.49.49,3.46,3.46,3.46-3.46.49-.49a2.46,2.46,0,0,0,0-3.46" style="fill:#a5e8d7"/><path d="M148.52,72h0a2.46,2.46,0,0,0-3.46,0l-.49.49-.49-.49a2.45,2.45,0,0,0-3.46,3.46l.5.49,3.45,3.46L148,75.9l.49-.49a2.46,2.46,0,0,0,0-3.46" style="fill:#a5e8d7"/><path d="M165.35,72h0a2.46,2.46,0,0,0-3.46,0l-.49.49-.49-.49a2.44,2.44,0,0,0-3.45,3.46l.49.49,3.45,3.46,3.46-3.46.49-.49a2.46,2.46,0,0,0,0-3.46" style="fill:#a5e8d7"/><path d="M182.18,72h0a2.44,2.44,0,0,0-3.45,0l-.5.49-.49-.49a2.44,2.44,0,1,0-3.45,3.46l.49.49,3.45,3.46,3.46-3.46.49-.49a2.44,2.44,0,0,0,0-3.46" style="fill:#a5e8d7"/><path d="M13.87,87.58h0a2.44,2.44,0,0,0-3.46,0l-.49.49-.49-.49A2.44,2.44,0,0,0,6,91l.49.5L9.92,95l3.45-3.45.5-.5a2.44,2.44,0,0,0,0-3.45" style="fill:#a5e8d7"/><path d="M30.7,87.58h0a2.44,2.44,0,0,0-3.46,0l-.49.49-.49-.49A2.44,2.44,0,0,0,22.8,91l.5.5L26.75,95l3.46-3.45.49-.5a2.44,2.44,0,0,0,0-3.45" style="fill:#a5e8d7"/><path d="M47.53,87.58h0a2.44,2.44,0,0,0-3.46,0l-.49.49-.49-.49A2.44,2.44,0,0,0,39.64,91l.49.5L43.58,95,47,91.53l.49-.5a2.44,2.44,0,0,0,0-3.45" style="fill:#a5e8d7"/><path d="M64.36,87.58h0a2.43,2.43,0,0,0-3.45,0l-.5.49-.49-.49A2.44,2.44,0,0,0,56.47,91l.49.5L60.41,95l3.46-3.45.49-.5a2.43,2.43,0,0,0,0-3.45" style="fill:#a5e8d7"/><path d="M81.19,87.58h0a2.43,2.43,0,0,0-3.45,0l-.49.49-.5-.49A2.44,2.44,0,0,0,73.3,91l.49.5L77.25,95l3.45-3.45.49-.5a2.43,2.43,0,0,0,0-3.45" style="fill:#a5e8d7"/><path d="M98,87.58h0a2.43,2.43,0,0,0-3.45,0l-.49.49-.5-.49A2.44,2.44,0,0,0,90.13,91l.49.5L94.08,95l3.45-3.45L98,91a2.43,2.43,0,0,0,0-3.45" style="fill:#a5e8d7"/><path d="M114.86,87.58h0a2.44,2.44,0,0,0-3.46,0l-.49.49-.49-.49A2.44,2.44,0,0,0,107,91l.49.5L110.91,95l3.45-3.45.5-.5a2.44,2.44,0,0,0,0-3.45" style="fill:#a5e8d7"/><path d="M131.69,87.58h0a2.44,2.44,0,0,0-3.46,0l-.49.49-.49-.49A2.44,2.44,0,0,0,123.79,91l.49.5L127.74,95l3.46-3.45.49-.5a2.44,2.44,0,0,0,0-3.45" style="fill:#a5e8d7"/><path d="M148.52,87.58h0a2.44,2.44,0,0,0-3.46,0l-.49.49-.49-.49A2.44,2.44,0,0,0,140.62,91l.5.5L144.57,95,148,91.53l.49-.5a2.44,2.44,0,0,0,0-3.45" style="fill:#a5e8d7"/><path d="M165.35,87.58h0a2.44,2.44,0,0,0-3.46,0l-.49.49-.49-.49A2.44,2.44,0,0,0,157.46,91l.49.5L161.4,95l3.46-3.45.49-.5a2.44,2.44,0,0,0,0-3.45" style="fill:#a5e8d7"/><path d="M182.18,87.58h0a2.43,2.43,0,0,0-3.45,0l-.5.49-.49-.49A2.44,2.44,0,1,0,174.29,91l.49.5L178.23,95l3.46-3.45.49-.5a2.43,2.43,0,0,0,0-3.45" style="fill:#a5e8d7"/><path d="M13.87,103.2h0a2.46,2.46,0,0,0-3.46,0l-.49.49-.49-.49A2.45,2.45,0,0,0,6,106.66l.49.49,3.46,3.45,3.45-3.45.5-.49a2.46,2.46,0,0,0,0-3.46" style="fill:#a5e8d7"/><path d="M30.7,103.2h0a2.46,2.46,0,0,0-3.46,0l-.49.49-.49-.49a2.45,2.45,0,0,0-3.46,3.46l.5.49,3.45,3.45,3.46-3.45.49-.49a2.46,2.46,0,0,0,0-3.46" style="fill:#a5e8d7"/><path d="M47.53,103.2h0a2.46,2.46,0,0,0-3.46,0l-.49.49-.49-.49a2.44,2.44,0,0,0-3.45,3.46l.49.49,3.45,3.45L47,107.15l.49-.49a2.46,2.46,0,0,0,0-3.46" style="fill:#a5e8d7"/><path d="M64.36,103.2h0a2.44,2.44,0,0,0-3.45,0l-.5.49-.49-.49a2.44,2.44,0,0,0-3.45,3.46l.49.49,3.45,3.45,3.46-3.45.49-.49a2.44,2.44,0,0,0,0-3.46" style="fill:#a5e8d7"/><path d="M81.19,103.2h0a2.44,2.44,0,0,0-3.45,0l-.49.49-.5-.49a2.44,2.44,0,0,0-3.45,3.46l.49.49,3.46,3.45,3.45-3.45.49-.49a2.44,2.44,0,0,0,0-3.46" style="fill:#a5e8d7"/><path d="M98,103.2h0a2.44,2.44,0,0,0-3.45,0l-.49.49-.5-.49a2.44,2.44,0,1,0-3.45,3.46l.49.49,3.46,3.45,3.45-3.45.49-.49a2.44,2.44,0,0,0,0-3.46" style="fill:#a5e8d7"/><path d="M114.86,103.2h0a2.46,2.46,0,0,0-3.46,0l-.49.49-.49-.49a2.45,2.45,0,0,0-3.46,3.46l.49.49,3.46,3.45,3.45-3.45.5-.49a2.46,2.46,0,0,0,0-3.46" style="fill:#a5e8d7"/><path d="M131.69,103.2h0a2.46,2.46,0,0,0-3.46,0l-.49.49-.49-.49a2.45,2.45,0,0,0-3.46,3.46l.49.49,3.46,3.45,3.46-3.45.49-.49a2.46,2.46,0,0,0,0-3.46" style="fill:#a5e8d7"/><path d="M148.52,103.2h0a2.46,2.46,0,0,0-3.46,0l-.49.49-.49-.49a2.45,2.45,0,0,0-3.46,3.46l.5.49,3.45,3.45,3.46-3.45.49-.49a2.46,2.46,0,0,0,0-3.46" style="fill:#a5e8d7"/><path d="M165.35,103.2h0a2.46,2.46,0,0,0-3.46,0l-.49.49-.49-.49a2.44,2.44,0,0,0-3.45,3.46l.49.49,3.45,3.45,3.46-3.45.49-.49a2.46,2.46,0,0,0,0-3.46" style="fill:#a5e8d7"/><path d="M182.18,103.2h0a2.44,2.44,0,0,0-3.45,0l-.5.49-.49-.49a2.44,2.44,0,1,0-3.45,3.46l.49.49,3.45,3.45,3.46-3.45.49-.49a2.44,2.44,0,0,0,0-3.46" style="fill:#a5e8d7"/><path d="M13.87,118.83h0a2.44,2.44,0,0,0-3.46,0l-.49.49-.49-.49A2.44,2.44,0,0,0,6,122.28l.49.49,3.46,3.46,3.45-3.46.5-.49a2.44,2.44,0,0,0,0-3.45" style="fill:#a5e8d7"/><path d="M30.7,118.83h0a2.44,2.44,0,0,0-3.46,0l-.49.49-.49-.49a2.44,2.44,0,0,0-3.46,3.45l.5.49,3.45,3.46,3.46-3.46.49-.49a2.44,2.44,0,0,0,0-3.45" style="fill:#a5e8d7"/><path d="M47.53,118.83h0a2.44,2.44,0,0,0-3.46,0l-.49.49-.49-.49a2.44,2.44,0,0,0-3.45,3.45l.49.49,3.45,3.46L47,122.77l.49-.49a2.44,2.44,0,0,0,0-3.45" style="fill:#a5e8d7"/><path d="M64.36,118.83h0a2.43,2.43,0,0,0-3.45,0l-.5.49-.49-.49a2.44,2.44,0,0,0-3.45,3.45l.49.49,3.45,3.46,3.46-3.46.49-.49a2.43,2.43,0,0,0,0-3.45" style="fill:#a5e8d7"/><path d="M81.19,118.83h0a2.43,2.43,0,0,0-3.45,0l-.49.49-.5-.49a2.44,2.44,0,0,0-3.45,3.45l.49.49,3.46,3.46,3.45-3.46.49-.49a2.43,2.43,0,0,0,0-3.45" style="fill:#a5e8d7"/><path d="M98,118.83h0a2.43,2.43,0,0,0-3.45,0l-.49.49-.5-.49a2.44,2.44,0,0,0-3.45,3.45l.49.49,3.46,3.46,3.45-3.46.49-.49a2.43,2.43,0,0,0,0-3.45" style="fill:#a5e8d7"/><path d="M114.86,118.83h0a2.44,2.44,0,0,0-3.46,0l-.49.49-.49-.49a2.44,2.44,0,0,0-3.46,3.45l.49.49,3.46,3.46,3.45-3.46.5-.49a2.44,2.44,0,0,0,0-3.45" style="fill:#a5e8d7"/><path d="M131.69,118.83h0a2.44,2.44,0,0,0-3.46,0l-.49.49-.49-.49a2.44,2.44,0,0,0-3.46,3.45l.49.49,3.46,3.46,3.46-3.46.49-.49a2.44,2.44,0,0,0,0-3.45" style="fill:#a5e8d7"/><path d="M148.52,118.83h0a2.44,2.44,0,0,0-3.46,0l-.49.49-.49-.49a2.44,2.44,0,0,0-3.46,3.45l.5.49,3.45,3.46,3.46-3.46.49-.49a2.44,2.44,0,0,0,0-3.45" style="fill:#a5e8d7"/><path d="M165.35,118.83h0a2.44,2.44,0,0,0-3.46,0l-.49.49-.49-.49a2.44,2.44,0,0,0-3.45,3.45l.49.49,3.45,3.46,3.46-3.46.49-.49a2.44,2.44,0,0,0,0-3.45" style="fill:#a5e8d7"/><path d="M182.18,118.83h0a2.43,2.43,0,0,0-3.45,0l-.5.49-.49-.49a2.44,2.44,0,1,0-3.45,3.45l.49.49,3.45,3.46,3.46-3.46.49-.49a2.43,2.43,0,0,0,0-3.45" style="fill:#a5e8d7"/><path d="M13.87,134.45h0a2.44,2.44,0,0,0-3.46,0l-.49.49-.49-.49A2.44,2.44,0,0,0,6,137.9l.49.5,3.46,3.45,3.45-3.45.5-.5a2.44,2.44,0,0,0,0-3.45" style="fill:#a5e8d7"/><path d="M30.7,134.45h0a2.44,2.44,0,0,0-3.46,0l-.49.49-.49-.49a2.44,2.44,0,0,0-3.46,3.45l.5.5,3.45,3.45,3.46-3.45.49-.5a2.44,2.44,0,0,0,0-3.45" style="fill:#a5e8d7"/><path d="M47.53,134.45h0a2.44,2.44,0,0,0-3.46,0l-.49.49-.49-.49a2.44,2.44,0,0,0-3.45,3.45l.49.5,3.45,3.45L47,138.4l.49-.5a2.44,2.44,0,0,0,0-3.45" style="fill:#a5e8d7"/><path d="M64.36,134.45h0a2.43,2.43,0,0,0-3.45,0l-.5.49-.49-.49a2.44,2.44,0,0,0-3.45,3.45l.49.5,3.45,3.45,3.46-3.45.49-.5a2.43,2.43,0,0,0,0-3.45" style="fill:#a5e8d7"/><path d="M81.19,134.45h0a2.43,2.43,0,0,0-3.45,0l-.49.49-.5-.49a2.44,2.44,0,0,0-3.45,3.45l.49.5,3.46,3.45,3.45-3.45.49-.5a2.43,2.43,0,0,0,0-3.45" style="fill:#a5e8d7"/><path d="M98,134.45h0a2.43,2.43,0,0,0-3.45,0l-.49.49-.5-.49a2.44,2.44,0,0,0-3.45,3.45l.49.5,3.46,3.45,3.45-3.45.49-.5a2.43,2.43,0,0,0,0-3.45" style="fill:#a5e8d7"/><path d="M114.86,134.45h0a2.44,2.44,0,0,0-3.46,0l-.49.49-.49-.49A2.44,2.44,0,0,0,107,137.9l.49.5,3.46,3.45,3.45-3.45.5-.5a2.44,2.44,0,0,0,0-3.45" style="fill:#a5e8d7"/><path d="M131.69,134.45h0a2.44,2.44,0,0,0-3.46,0l-.49.49-.49-.49a2.44,2.44,0,0,0-3.46,3.45l.49.5,3.46,3.45,3.46-3.45.49-.5a2.44,2.44,0,0,0,0-3.45" style="fill:#a5e8d7"/><path d="M148.52,134.45h0a2.44,2.44,0,0,0-3.46,0l-.49.49-.49-.49a2.44,2.44,0,0,0-3.46,3.45l.5.5,3.45,3.45L148,138.4l.49-.5a2.44,2.44,0,0,0,0-3.45" style="fill:#a5e8d7"/><path d="M165.35,134.45h0a2.44,2.44,0,0,0-3.46,0l-.49.49-.49-.49a2.44,2.44,0,0,0-3.45,3.45l.49.5,3.45,3.45,3.46-3.45.49-.5a2.44,2.44,0,0,0,0-3.45" style="fill:#a5e8d7"/><path d="M182.18,134.45h0a2.43,2.43,0,0,0-3.45,0l-.5.49-.49-.49a2.44,2.44,0,0,0-3.45,3.45l.49.5,3.45,3.45,3.46-3.45.49-.5a2.43,2.43,0,0,0,0-3.45" style="fill:#a5e8d7"/></g></g><ellipse cx="90.84" cy="57.61" rx="9.66" ry="8.51" style="fill:#cc7f27"/><ellipse cx="109.73" cy="63.39" rx="9.66" ry="8.51" style="fill:#cc7f27"/><ellipse cx="118.35" cy="79.29" rx="9.66" ry="8.51" style="fill:#cc7f27"/><ellipse cx="111.58" cy="95.88" rx="9.66" ry="8.51" style="fill:#cc7f27"/><ellipse cx="93.44" cy="103.3" rx="9.66" ry="8.51" style="fill:#cc7f27"/><ellipse cx="74.71" cy="97.14" rx="9.66" ry="8.51" style="fill:#cc7f27"/><ellipse cx="66.5" cy="81.07" rx="9.66" ry="8.51" style="fill:#cc7f27"/><ellipse cx="73.69" cy="64.62" rx="9.66" ry="8.51" style="fill:#cc7f27"/><ellipse cx="92.42" cy="80.45" rx="29.79" ry="26.27" style="fill:#cc7f27"/><ellipse cx="92.42" cy="80.45" rx="24.44" ry="21.55" style="fill:none;stroke:#fff;stroke-miterlimit:10;stroke-width:0.55222761631012px"/><text transform="translate(78.67 87.06) scale(1.13 1)" style="font-size:22.645360946655273px;fill:#fff;font-family:Montserrat-Bold, Montserrat;font-weight:700">10</text></svg>