<svg xmlns="http://www.w3.org/2000/svg" xmlns:xlink="http://www.w3.org/1999/xlink" viewBox="0 0 1920 900"><defs><clipPath id="a99ede79-5740-4717-90df-fc817fdd8421"><rect width="1920" height="900" style="fill:none"/></clipPath><clipPath id="b112dc46-d4ed-40fc-b8e4-ae6973e67aac"><rect x="0.16" y="345.73" width="1937.99" height="312.74" style="fill:none"/></clipPath><clipPath id="ec804937-f2dc-4915-ac53-37a3ff8d5d22"><rect x="-1.83" y="2.65" width="629.58" height="159.26" style="fill:none"/></clipPath><clipPath id="bfddb621-085f-4d83-bcb6-b8404eac4c50"><rect x="646.91" y="2.65" width="629.58" height="159.26" style="fill:none"/></clipPath><clipPath id="a7cc470b-007a-4c3d-a3b1-9406364df919"><rect x="1295.66" y="2.65" width="629.58" height="159.26" style="fill:none"/></clipPath></defs><g id="e81c3b0b-ce74-427e-a5f5-ebc1aa0c7e4a" data-name="Layer 19"><g style="clip-path:url(#a99ede79-5740-4717-90df-fc817fdd8421)"><rect x="-1.83" width="1924.42" height="362" style="fill:#4fbad8"/><rect x="-1.83" width="1924.42" height="183.99" style="fill:#e2f3f7"/><rect x="-1.83" y="345.07" width="1924.42" height="557.42" style="fill:#b7dfef"/><rect x="1295.66" y="2.65" width="629.58" height="159.26" style="fill:#9dddea"/><g style="opacity:0.46"><g style="clip-path:url(#b112dc46-d4ed-40fc-b8e4-ae6973e67aac)"><rect x="0.16" y="345.73" width="75.65" height="75.65" style="fill:#4fbad8"/><rect x="75.87" y="421.45" width="75.65" height="75.65" style="fill:#4fbad8"/><rect x="161.52" y="345.73" width="75.65" height="75.65" style="fill:#4fbad8"/><rect x="237.24" y="421.45" width="75.65" height="75.65" style="fill:#4fbad8"/><rect x="322.89" y="345.73" width="75.65" height="75.65" style="fill:#4fbad8"/><rect x="398.61" y="421.45" width="75.65" height="75.65" style="fill:#4fbad8"/><rect x="484.26" y="345.73" width="75.65" height="75.65" style="fill:#4fbad8"/><rect x="559.98" y="421.45" width="75.65" height="75.65" style="fill:#4fbad8"/><rect x="645.63" y="345.73" width="75.65" height="75.65" style="fill:#4fbad8"/><rect x="721.35" y="421.45" width="75.65" height="75.65" style="fill:#4fbad8"/><rect x="807" y="345.73" width="75.65" height="75.65" style="fill:#4fbad8"/><rect x="882.72" y="421.45" width="75.65" height="75.65" style="fill:#4fbad8"/><rect x="968.37" y="345.73" width="75.65" height="75.65" style="fill:#4fbad8"/><rect x="1044.08" y="421.45" width="75.65" height="75.65" style="fill:#4fbad8"/><rect x="1129.73" y="345.73" width="75.65" height="75.65" style="fill:#4fbad8"/><rect x="1205.45" y="421.45" width="75.65" height="75.65" style="fill:#4fbad8"/><rect x="1291.1" y="345.73" width="75.65" height="75.65" style="fill:#4fbad8"/><rect x="1366.82" y="421.45" width="75.65" height="75.65" style="fill:#4fbad8"/><rect x="1452.47" y="345.73" width="75.65" height="75.65" style="fill:#4fbad8"/><rect x="1528.19" y="421.45" width="75.65" height="75.65" style="fill:#4fbad8"/><rect x="1613.84" y="345.73" width="75.65" height="75.65" style="fill:#4fbad8"/><rect x="1689.56" y="421.45" width="75.65" height="75.65" style="fill:#4fbad8"/><rect x="1775.21" y="345.73" width="75.65" height="75.65" style="fill:#4fbad8"/><rect x="1850.93" y="421.45" width="75.65" height="75.65" style="fill:#4fbad8"/><rect x="0.16" y="507.1" width="75.65" height="75.65" style="fill:#4fbad8"/><rect x="75.87" y="582.82" width="75.65" height="75.65" style="fill:#4fbad8"/><rect x="161.52" y="507.1" width="75.65" height="75.65" style="fill:#4fbad8"/><rect x="237.24" y="582.82" width="75.65" height="75.65" style="fill:#4fbad8"/><rect x="322.89" y="507.1" width="75.65" height="75.65" style="fill:#4fbad8"/><rect x="398.61" y="582.82" width="75.65" height="75.65" style="fill:#4fbad8"/><rect x="484.26" y="507.1" width="75.65" height="75.65" style="fill:#4fbad8"/><rect x="559.98" y="582.82" width="75.65" height="75.65" style="fill:#4fbad8"/><rect x="645.63" y="507.1" width="75.65" height="75.65" style="fill:#4fbad8"/><rect x="721.35" y="582.82" width="75.65" height="75.65" style="fill:#4fbad8"/><rect x="807" y="507.1" width="75.65" height="75.65" style="fill:#4fbad8"/><rect x="882.72" y="582.82" width="75.65" height="75.65" style="fill:#4fbad8"/><rect x="968.37" y="507.1" width="75.65" height="75.65" style="fill:#4fbad8"/><rect x="1044.08" y="582.82" width="75.65" height="75.65" style="fill:#4fbad8"/><rect x="1129.73" y="507.1" width="75.65" height="75.65" style="fill:#4fbad8"/><rect x="1205.45" y="582.82" width="75.65" height="75.65" style="fill:#4fbad8"/><rect x="1291.1" y="507.1" width="75.65" height="75.65" style="fill:#4fbad8"/><rect x="1366.82" y="582.82" width="75.65" height="75.65" style="fill:#4fbad8"/><rect x="1452.47" y="507.1" width="75.65" height="75.65" style="fill:#4fbad8"/><rect x="1528.19" y="582.82" width="75.65" height="75.65" style="fill:#4fbad8"/><rect x="1613.84" y="507.1" width="75.65" height="75.65" style="fill:#4fbad8"/><rect x="1689.56" y="582.82" width="75.65" height="75.65" style="fill:#4fbad8"/><rect x="1775.21" y="507.1" width="75.65" height="75.65" style="fill:#4fbad8"/><rect x="1850.93" y="582.82" width="75.65" height="75.65" style="fill:#4fbad8"/></g></g><rect x="-1.83" y="2.65" width="629.58" height="159.26" style="fill:#9dddea"/><rect x="646.91" y="2.65" width="629.58" height="159.26" style="fill:#9dddea"/><g style="clip-path:url(#ec804937-f2dc-4915-ac53-37a3ff8d5d22)"><rect x="422.58" y="-241.58" width="83.69" height="629.59" transform="translate(84.26 349.84) rotate(-45)" style="fill:#b5e6ef"/><rect x="177.59" y="-204.98" width="83.69" height="629.59" transform="translate(-13.38 187.33) rotate(-45)" style="fill:#b5e6ef"/></g><g style="clip-path:url(#bfddb621-085f-4d83-bcb6-b8404eac4c50)"><rect x="1005.98" y="-241.1" width="83.69" height="629.59" transform="translate(254.79 762.51) rotate(-45)" style="fill:#b5e6ef"/><rect x="760.99" y="-204.5" width="83.69" height="629.59" transform="translate(157.15 600) rotate(-45)" style="fill:#b5e6ef"/></g><g style="clip-path:url(#a7cc470b-007a-4c3d-a3b1-9406364df919)"><rect x="1723.05" y="-241.1" width="83.69" height="629.59" transform="translate(464.82 1269.55) rotate(-45)" style="fill:#b5e6ef"/><rect x="1478.06" y="-204.5" width="83.69" height="629.59" transform="translate(367.18 1107.04) rotate(-45)" style="fill:#b5e6ef"/></g><rect x="0.16" y="323.77" width="1922.43" height="24.55" style="fill:#51a7c3"/><circle cx="1860.08" cy="232.75" r="7.81" style="fill:#67cbd0"/><circle cx="1758.68" cy="291.84" r="7.81" style="fill:#67cbd0"/><circle cx="1640.22" cy="224.95" r="7.81" style="fill:#67cbd0"/><circle cx="1543.7" cy="295.49" r="7.81" style="fill:#67cbd0"/><circle cx="1430.26" cy="208.13" r="7.81" style="fill:#67cbd0"/><circle cx="1312.79" cy="295.49" r="7.81" style="fill:#67cbd0"/><circle cx="1211.68" cy="224.38" r="7.81" style="fill:#67cbd0"/><circle cx="1096.51" cy="294.29" r="7.81" style="fill:#67cbd0"/><circle cx="1030.13" cy="215.93" r="7.81" style="fill:#67cbd0"/><circle cx="938.72" cy="286.48" r="7.81" style="fill:#67cbd0"/><circle cx="846.3" cy="208.13" r="7.81" style="fill:#67cbd0"/><circle cx="739.06" cy="291.84" r="7.81" style="fill:#67cbd0"/><circle cx="664.91" cy="204.99" r="7.81" style="fill:#67cbd0"/><circle cx="542.33" cy="287.15" r="7.81" style="fill:#67cbd0"/><circle cx="419.74" cy="202.65" r="7.81" style="fill:#67cbd0"/><circle cx="320.76" cy="294.96" r="7.81" style="fill:#67cbd0"/><circle cx="234.47" cy="215.93" r="7.81" style="fill:#67cbd0"/><circle cx="157.36" cy="298.19" r="7.81" style="fill:#67cbd0"/><circle cx="25.1" cy="215.93" r="7.81" style="fill:#67cbd0"/><rect x="1598.9" y="855.04" width="83.51" height="195.24" style="fill:#5c339e"/><rect x="-11.14" y="855.04" width="1622.57" height="195.24" style="fill:#251540"/><path d="M-24.82,649.5H1760.87a77.64,77.64,0,0,1,77.64,77.64v73.14a77.64,77.64,0,0,1-77.64,77.64H-24.82a0,0,0,0,1,0,0V649.5A0,0,0,0,1-24.82,649.5Z" style="fill:#432573"/><path d="M-5.45,568.22H1780.24a77.64,77.64,0,0,1,77.64,77.64V752a77.64,77.64,0,0,1-77.64,77.64H-5.45a0,0,0,0,1,0,0V568.22A0,0,0,0,1-5.45,568.22Z" style="fill:#5c339e"/><path d="M667.32,695.79H259.52a18,18,0,0,1-16.42-25.45l53.84-118.89a18,18,0,0,1,16.41-10.59h407.8a18,18,0,0,1,16.42,25.45L683.74,685.2A18,18,0,0,1,667.32,695.79Z" style="fill:#e131a8"/><path d="M685.08,721.61V680.13l54.12-119.5,1,26.42a30.74,30.74,0,0,1-2.51,13.35Z" style="fill:#bc2691"/><path d="M667.72,735.17H258.84a17.36,17.36,0,0,1-17.36-17.36V680.13h443.6v37.68A17.36,17.36,0,0,1,667.72,735.17Z" style="fill:#ce299f"/><path d="M581.09,657.39H370.34a6.77,6.77,0,0,1-6.17-9.57l29.24-64.58a6.77,6.77,0,0,1,6.18-4H610.33a6.77,6.77,0,0,1,6.17,9.57l-29.24,64.58A6.76,6.76,0,0,1,581.09,657.39Z" style="fill:#948bc0"/><rect x="405.77" y="574.65" width="154.09" height="48.63" style="fill:#685cc0"/><rect x="394.26" y="695.79" width="133.86" height="16.32" rx="4.34" style="fill:#74b5ff"/><polygon points="559.86 623.28 579.69 578.23 559.86 573.88 559.86 623.28" style="fill:#3e3394"/><rect x="288.28" y="233.91" width="422.91" height="344.32" rx="30.78" style="fill:#a54f9e"/><rect x="269.48" y="218.87" width="422.91" height="344.32" rx="30.78" style="fill:#fc7fc7"/><rect x="290.42" y="237.99" width="381.04" height="285.78" rx="21.86" style="fill:#110f47"/><path d="M381.7,623.28H566.19a18.14,18.14,0,0,1,18.14,18.14v16a0,0,0,0,1,0,0H363.56a0,0,0,0,1,0,0v-16A18.14,18.14,0,0,1,381.7,623.28Z" style="fill:#ada0e0"/><text transform="translate(437.95 354.09) rotate(90)" style="font-size:149.38784790039062px;fill:#adff00;font-family:Montserrat-Bold, Montserrat;font-weight:700">:)</text></g></g></svg>