<svg xmlns="http://www.w3.org/2000/svg" xmlns:xlink="http://www.w3.org/1999/xlink" viewBox="0 0 1920 900"><defs><clipPath id="ea09b403-f6f7-4425-beba-f01f107e7868"><rect width="1920" height="900" style="fill:none"/></clipPath><linearGradient id="a43502b7-b93e-4a6f-acb2-f3f813e89dd4" x1="459.16" y1="194.58" x2="459.16" y2="263.91" gradientTransform="translate(3.11)" gradientUnits="userSpaceOnUse"><stop offset="0" stop-color="#ffd79d"/><stop offset="1" stop-color="#ffb454"/></linearGradient><linearGradient id="ec7047bc-a4ac-4ee3-ab68-783a02f9341a" x1="476.36" y1="177.24" x2="475.09" y2="269.76" gradientTransform="translate(3.11)" gradientUnits="userSpaceOnUse"><stop offset="0" stop-color="#ffb8b3"/><stop offset="0.58" stop-color="#ff9a92"/><stop offset="1" stop-color="#f67f73"/></linearGradient><linearGradient id="afdf8697-0893-42c3-a638-aaf409bb12cf" x1="478.9" y1="172.53" x2="496.97" y2="266.83" gradientTransform="translate(3.11)" gradientUnits="userSpaceOnUse"><stop offset="0" stop-color="#f9e6c6"/><stop offset="0.5" stop-color="#e8bc8b"/><stop offset="1" stop-color="#f0b563"/></linearGradient><linearGradient id="a13fad8c-4f5a-4b1e-84d3-a0754883ac95" x1="490.26" y1="194.58" x2="490.26" y2="263.91" xlink:href="#a43502b7-b93e-4a6f-acb2-f3f813e89dd4"/><linearGradient id="ed2e1081-724e-4c34-a110-5098a64e6aee" x1="630.44" y1="194.58" x2="630.44" y2="263.91" xlink:href="#a43502b7-b93e-4a6f-acb2-f3f813e89dd4"/><linearGradient id="fc331a76-b440-4f8f-82e7-80be8edf39e5" x1="647.64" y1="177.24" x2="646.38" y2="269.76" xlink:href="#ec7047bc-a4ac-4ee3-ab68-783a02f9341a"/><linearGradient id="acd27aa9-62f3-4bb4-979c-fb26eb516b53" x1="650.19" y1="172.53" x2="668.26" y2="266.83" xlink:href="#afdf8697-0893-42c3-a638-aaf409bb12cf"/><linearGradient id="ffaead27-18bb-4ee9-b610-7ade2ec1fa0e" x1="661.54" y1="194.58" x2="661.54" y2="263.91" xlink:href="#a43502b7-b93e-4a6f-acb2-f3f813e89dd4"/><linearGradient id="e73dc984-a729-4081-986e-97fe9877105d" x1="801.73" y1="194.58" x2="801.73" y2="263.91" xlink:href="#a43502b7-b93e-4a6f-acb2-f3f813e89dd4"/><linearGradient id="b6f15468-e599-48d0-b831-19749e43ada1" x1="818.93" y1="177.24" x2="817.66" y2="269.76" xlink:href="#ec7047bc-a4ac-4ee3-ab68-783a02f9341a"/><linearGradient id="beff3c39-63ad-40e6-b117-96097b2e5bd6" x1="821.48" y1="172.53" x2="839.55" y2="266.83" xlink:href="#afdf8697-0893-42c3-a638-aaf409bb12cf"/><linearGradient id="bf7a32e6-a84e-479a-b04f-dfeb5fbede21" x1="832.83" y1="194.58" x2="832.83" y2="263.91" xlink:href="#a43502b7-b93e-4a6f-acb2-f3f813e89dd4"/><linearGradient id="ba62b0b4-b955-4503-afc6-d2ebb10be194" x1="973.01" y1="194.58" x2="973.01" y2="263.91" xlink:href="#a43502b7-b93e-4a6f-acb2-f3f813e89dd4"/><linearGradient id="b2d97a37-1c32-46c7-81d4-555a6ca01012" x1="990.22" y1="177.24" x2="988.95" y2="269.76" xlink:href="#ec7047bc-a4ac-4ee3-ab68-783a02f9341a"/><linearGradient id="f3217b51-17c8-45c2-bef2-20e7b2bded3a" x1="992.76" y1="172.53" x2="1010.83" y2="266.83" xlink:href="#afdf8697-0893-42c3-a638-aaf409bb12cf"/><linearGradient id="b0fdfd30-a6b8-4763-ab07-22fb0c172049" x1="1004.11" y1="194.58" x2="1004.11" y2="263.91" xlink:href="#a43502b7-b93e-4a6f-acb2-f3f813e89dd4"/><linearGradient id="fea7eef3-c6c7-436d-b3ef-ac04446c484f" x1="1144.3" y1="194.58" x2="1144.3" y2="263.91" xlink:href="#a43502b7-b93e-4a6f-acb2-f3f813e89dd4"/><linearGradient id="e94eb4e6-a1c2-4c77-a797-b1360ccd90cc" x1="1161.5" y1="177.24" x2="1160.24" y2="269.76" xlink:href="#ec7047bc-a4ac-4ee3-ab68-783a02f9341a"/><linearGradient id="af0131f4-8243-4fe3-962a-866117095559" x1="1164.05" y1="172.53" x2="1182.12" y2="266.83" xlink:href="#afdf8697-0893-42c3-a638-aaf409bb12cf"/><linearGradient id="f36e4bf5-8c9a-4854-95a6-8a65a3c045a5" x1="1175.4" y1="194.58" x2="1175.4" y2="263.91" xlink:href="#a43502b7-b93e-4a6f-acb2-f3f813e89dd4"/><linearGradient id="e0919715-47cf-431a-8f6c-734218b37cd9" x1="459.16" y1="327.74" x2="459.16" y2="397.07" xlink:href="#a43502b7-b93e-4a6f-acb2-f3f813e89dd4"/><linearGradient id="ede78e89-b47e-41e9-9325-31023980af19" x1="476.36" y1="310.4" x2="475.09" y2="402.92" xlink:href="#ec7047bc-a4ac-4ee3-ab68-783a02f9341a"/><linearGradient id="ac1ac9ac-6ae2-4e10-bbce-e40255e3d8e5" x1="478.9" y1="305.69" x2="496.97" y2="399.98" xlink:href="#afdf8697-0893-42c3-a638-aaf409bb12cf"/><linearGradient id="ea98ee44-9f7c-476c-9aaf-f1bda02bcc0b" x1="490.26" y1="327.74" x2="490.26" y2="397.07" xlink:href="#a43502b7-b93e-4a6f-acb2-f3f813e89dd4"/><linearGradient id="b729889a-b80b-4d1b-9dc4-3dadeeac359c" x1="630.44" y1="327.74" x2="630.44" y2="397.07" xlink:href="#a43502b7-b93e-4a6f-acb2-f3f813e89dd4"/><linearGradient id="e37749c6-f294-4082-8623-7e536128e244" x1="647.64" y1="310.4" x2="646.38" y2="402.92" xlink:href="#ec7047bc-a4ac-4ee3-ab68-783a02f9341a"/><linearGradient id="e3600e42-0325-42b2-8298-459a38ccf034" x1="650.19" y1="305.69" x2="668.26" y2="399.98" xlink:href="#afdf8697-0893-42c3-a638-aaf409bb12cf"/><linearGradient id="f86f5d5a-8a89-4cef-9449-1ec4f26ea8a9" x1="661.54" y1="327.74" x2="661.54" y2="397.07" xlink:href="#a43502b7-b93e-4a6f-acb2-f3f813e89dd4"/><linearGradient id="a6e1c020-f1ad-4998-a6bc-98ce8502dc92" x1="801.73" y1="327.74" x2="801.73" y2="397.07" xlink:href="#a43502b7-b93e-4a6f-acb2-f3f813e89dd4"/><linearGradient id="e3d5a2be-a378-4d06-acc4-f8a8eb23f366" x1="818.93" y1="310.4" x2="817.66" y2="402.92" xlink:href="#ec7047bc-a4ac-4ee3-ab68-783a02f9341a"/><linearGradient id="fe6a0689-b2b4-4695-bbcc-975cb9fe0f7f" x1="821.48" y1="305.69" x2="839.55" y2="399.98" xlink:href="#afdf8697-0893-42c3-a638-aaf409bb12cf"/><linearGradient id="bb2e319a-f63d-4340-bd7d-538b7436d821" x1="832.83" y1="327.74" x2="832.83" y2="397.07" xlink:href="#a43502b7-b93e-4a6f-acb2-f3f813e89dd4"/><linearGradient id="ed4963be-2328-4b2a-b302-20c80d5555ab" x1="973.01" y1="327.74" x2="973.01" y2="397.07" xlink:href="#a43502b7-b93e-4a6f-acb2-f3f813e89dd4"/><linearGradient id="f9246131-bfdd-4348-abb7-28c84250ba8a" x1="990.22" y1="310.4" x2="988.95" y2="402.92" xlink:href="#ec7047bc-a4ac-4ee3-ab68-783a02f9341a"/><linearGradient id="aaf7ad7a-5a23-45e8-9d5a-605d1e59d3de" x1="992.76" y1="305.69" x2="1010.83" y2="399.98" xlink:href="#afdf8697-0893-42c3-a638-aaf409bb12cf"/><linearGradient id="b330ad62-baa6-47b3-b605-427f87060e4c" x1="1004.11" y1="327.74" x2="1004.11" y2="397.07" xlink:href="#a43502b7-b93e-4a6f-acb2-f3f813e89dd4"/><linearGradient id="b13db8ff-8702-4c27-ba0b-3b09916bf6d5" x1="1144.3" y1="327.74" x2="1144.3" y2="397.07" xlink:href="#a43502b7-b93e-4a6f-acb2-f3f813e89dd4"/><linearGradient id="b86b2912-ea19-4e69-9e40-b76a8dc3728c" x1="1161.5" y1="310.4" x2="1160.24" y2="402.92" xlink:href="#ec7047bc-a4ac-4ee3-ab68-783a02f9341a"/><linearGradient id="ab1b696a-d06e-49e3-8d22-b98833543e97" x1="1164.05" y1="305.69" x2="1182.12" y2="399.98" xlink:href="#afdf8697-0893-42c3-a638-aaf409bb12cf"/><linearGradient id="a0b606f5-332b-4a18-8a74-e1012376f485" x1="1175.4" y1="327.74" x2="1175.4" y2="397.07" xlink:href="#a43502b7-b93e-4a6f-acb2-f3f813e89dd4"/><clipPath id="a606267c-1ed9-4bac-a59f-64b6978e94de"><path d="M521.18,681.85v68.89a13.08,13.08,0,0,0,13.08,13.08H834a13.08,13.08,0,0,0,13.08-13.08V681.85Z" style="fill:none"/></clipPath><clipPath id="e85a13d8-944f-4e45-b9c9-928d074feb44"><path d="M571.08,507.73H794a15.24,15.24,0,0,1,15.13,13.39L826,658.59a15.24,15.24,0,0,1-15.12,17.09H557.05a15.23,15.23,0,0,1-15.16-16.78l14-137.48A15.23,15.23,0,0,1,571.08,507.73Z" style="fill:none"/></clipPath></defs><g id="a6f5bd89-7028-4235-af04-5806e4fa7326" data-name="Layer 27"><g style="clip-path:url(#ea09b403-f6f7-4425-beba-f01f107e7868)"><rect y="-3.36" width="1920" height="900" style="fill:#c9dced"/><rect x="95.5" y="-3.36" width="90.38" height="900" style="fill:#67abdc"/><rect x="1748.44" y="-3.36" width="90.38" height="900" style="fill:#67abdc"/><rect x="331.63" y="-3.36" width="90.38" height="900" style="fill:#67abdc"/><rect x="567.77" y="-3.36" width="90.38" height="900" style="fill:#67abdc"/><rect x="803.9" y="-3.36" width="90.38" height="900" style="fill:#67abdc"/><rect x="1040.03" y="-3.36" width="90.38" height="900" style="fill:#67abdc"/><rect x="1276.17" y="-3.36" width="90.38" height="900" style="fill:#67abdc"/><rect x="1512.3" y="-3.36" width="90.38" height="900" style="fill:#67abdc"/><rect x="417.77" y="304.35" width="798.78" height="45.59" style="fill:#633a20;opacity:0.8"/><rect x="417.77" y="436.49" width="798.78" height="45.59" style="fill:#633a20;opacity:0.8"/><rect x="376.08" y="285.6" width="883.41" height="18.75" style="fill:#fff"/><polygon points="420.46 266.85 1215.12 266.85 1259.49 285.6 376.08 285.6 420.46 266.85" style="fill:#d39b6a"/><rect x="376.08" y="285.6" width="883.41" height="18.75" style="fill:#f5e6cb"/><rect x="369.88" y="418.02" width="883.41" height="20" style="fill:#fff"/><polygon points="414.25 398.02 1208.91 398.02 1253.28 418.02 369.88 418.02 414.25 398.02" style="fill:#d39b6a"/><rect x="369.88" y="418.02" width="883.41" height="20" style="fill:#f5e6cb"/><rect x="2.79" y="465.25" width="1925" height="438.11" style="fill:#fedaa6"/><rect x="2.79" y="828.83" width="1925" height="74.53" style="fill:#371e23"/><rect x="-7.79" y="819.83" width="1946.15" height="74.53" style="fill:#7d4928"/><rect x="-7.79" y="468.61" width="1935.57" height="30.93" style="fill:#f1bc75"/><rect x="-7.79" y="524.93" width="1935.57" height="39.55" style="fill:#f1bc75"/><rect x="-7.79" y="592.83" width="1935.57" height="45.02" style="fill:#f1bc75"/><rect x="-7.79" y="671.15" width="1935.57" height="49.64" style="fill:#f1bc75"/><rect x="-7.79" y="751.94" width="1935.57" height="63.1" style="fill:#f1bc75"/><polygon points="416.08 235.09 537.4 233.22 517.93 273.28 432.56 262.8 416.08 235.09" style="fill:#db9092"/><path d="M464.59,180.56c-22.45-.47-36.9,22.52-39.16,43-2.93,26.57,16.75,56.51,38.17,55.9,21.14-.61,38.32-30.79,35.48-56.47C497.08,204.85,484.34,181,464.59,180.56Z" style="fill:url(#a43502b7-b93e-4a6f-acb2-f3f813e89dd4)"/><path d="M471.49,186.6c-2.31,1.14-26.73,6.53-30.64,40.51-2.81,24.45,14.88,52.11,33.49,51.82,16.58-.26,31.46-22.64,32.1-43C507.09,215.51,493.32,195.68,471.49,186.6Z" style="fill:#b36016;opacity:0.30000000000000004"/><path d="M481.47,179.06c-22.59,1.55-36.35,25.35-37.51,49.26-1.26,25.72,15.65,55.45,34.8,55.43,19.3,0,35.58-30.25,34.8-55.78C512.9,206.41,503,177.57,481.47,179.06Z" style="fill:url(#ec7047bc-a4ac-4ee3-ab68-783a02f9341a)"/><path d="M479.34,185.79c-28.66,10.16-24.76,51.55-30.22,52.64-2,.39-4.23-4.24-5.22-6.55.21,14.9,6.15,30.6,14.8,40.77l33.86,5.88a44.16,44.16,0,0,0,9.65-10.75C502.83,240.45,501.84,177.81,479.34,185.79Z" style="fill:#f65a4a;opacity:0.5"/><path d="M488.69,181.19c-19.7,2.21-30.87,28.75-31.72,48-1,23.5,12.61,51.62,31.18,53.64,20.89,2.29,44.47-28.81,41.4-57.59C527.19,203.17,508.79,178.93,488.69,181.19Z" style="fill:url(#afdf8697-0893-42c3-a638-aaf409bb12cf)"/><path d="M488.69,181.19c-19.7,2.21-30.87,28.75-31.72,48-1,23.5,12.61,51.62,31.18,53.64,20.89,2.29,44.47-28.81,41.4-57.59C527.19,203.17,508.79,178.93,488.69,181.19Z" style="fill:url(#a13fad8c-4f5a-4b1e-84d3-a0754883ac95)"/><path d="M529.49,225.23c-1.46-13.66-9.08-28.15-19.44-36.68-18.18-.33-34.86,14.11-35.22,41.68-.26,19.51,7.62,37.36,25,50.64C516.82,273.64,532,248.67,529.49,225.23Z" style="fill:#d69a58;opacity:0.2"/><path d="M518.43,238.22c-2.83.56-7.53,9.41-7.53,9.41s-6.59-6.21-9.79-5.46-10.92,8.09-10.92,8.09-7.34-8.28-10.91-7.34-10.92,8.28-10.92,8.28-7.15-8.84-10.35-8.65-11.48,6.21-11.48,6.21-6.4-9.41-9.41-9.23c-1.87.12-6.49,2.85-9.73,4.9,3.29,11.47,9.91,21.88,18.08,28.31l65.8.42a61.86,61.86,0,0,0,16.46-27.92C526.23,241.53,521,237.69,518.43,238.22Z" style="fill:#e25947;opacity:0.30000000000000004"/><path d="M519.88,229.83a2.51,2.51,0,1,0,1.78,4.28,2.51,2.51,0,0,0-1.78-4.28Z" style="fill:#eaa25d"/><path d="M524.82,224.08a1.22,1.22,0,0,0-1-.88,1.23,1.23,0,0,0-1.4,1.21,1.24,1.24,0,1,0,2.43-.33Z" style="fill:#eaa25d"/><path d="M518.75,218.32a1.35,1.35,0,1,0,1.35,1.34A1.38,1.38,0,0,0,518.75,218.32Z" style="fill:#eaa25d"/><path d="M505,235a1.05,1.05,0,1,0,1,1.05A1.06,1.06,0,0,0,505,235Z" style="fill:#eaa25d"/><path d="M499.87,233.18a1.27,1.27,0,0,0-1.26,1.26,1.29,1.29,0,0,0,1.26,1.26,1.26,1.26,0,0,0,0-2.52Z" style="fill:#eaa25d"/><path d="M504.68,228.08a1.74,1.74,0,0,0-1.76,1.76,1.79,1.79,0,0,0,1.76,1.76,1.83,1.83,0,0,0,1.25-.52,1.76,1.76,0,0,0-1.25-3Z" style="fill:#eaa25d"/><path d="M503.35,193.36a1.21,1.21,0,1,0,1.69.26A1.23,1.23,0,0,0,503.35,193.36Z" style="fill:#eaa25d"/><path d="M501.21,197.15a2,2,0,0,0-1.21-.09c-2.55.59-1.67,4.82,1,4.2a1.85,1.85,0,0,0,1.22-.89A2.32,2.32,0,0,0,501.21,197.15Z" style="fill:#eaa25d"/><path d="M505.85,198.84a.93.93,0,1,0,1.1,1.51.93.93,0,0,0-1.1-1.51Z" style="fill:#eaa25d"/><path d="M537.4,233.22c-1.12-1.4-11.76,15.33-11.76,15.33s-4.12-7.66-7.07-6.78S510.33,253,510.33,253s-6.19-7.36-9.72-7.06-10.6,10-10.6,10-6.74-9.11-10.6-8.84c-4.12.3-10.89,9.43-10.89,9.43s-6.77-9.72-9.72-9.72c-4.43,0-10.89,7.65-10.89,7.65S440.55,243,437.6,243c-3.87,0-8.54,5.89-8.54,5.89s-11.88-15.22-13.35-13.75,20.36,49.53,20.36,49.53l78.47.24S538.89,235.09,537.4,233.22Z" style="fill:#ffe8a4"/><path d="M485.18,250.42c-1.95-1.87-4.12-3.46-5.77-3.35-4.12.3-10.89,9.43-10.89,9.43s-6.77-9.72-9.72-9.72c-4.43,0-10.89,7.65-10.89,7.65S440.55,243,437.6,243c-3.87,0-8.54,5.89-8.54,5.89s7.1-4.92,8.57-4.67S448.15,256,448.15,256s8.31-8.07,10.63-7.83,10,10.4,10,10.4,7.46-10.52,10.52-10.64C481,247.89,483.33,249.19,485.18,250.42Z" style="fill:#fff5ff"/><path d="M494.56,181.29c-.82-.11-1.64-.2-2.46-.23a20.87,20.87,0,0,0-10.69-2,32,32,0,0,0-10.47,2.5,24.59,24.59,0,0,0-6.4-1c-13-.27-23.3,7.3-30.12,17.69a46.9,46.9,0,0,0,15.85,4.91C469.31,205.53,486.87,196.24,494.56,181.29Z" style="fill:#f9e6c6;opacity:0.30000000000000004"/><polygon points="587.37 235.09 708.68 233.22 689.21 273.28 603.84 262.8 587.37 235.09" style="fill:#db9092"/><path d="M635.88,180.56c-22.45-.47-36.9,22.52-39.16,43-2.93,26.57,16.74,56.51,38.17,55.9,21.14-.61,38.32-30.79,35.48-56.47C668.37,204.85,655.62,181,635.88,180.56Z" style="fill:url(#ed2e1081-724e-4c34-a110-5098a64e6aee)"/><path d="M642.77,186.6c-2.3,1.14-26.72,6.53-30.63,40.51-2.82,24.45,14.88,52.11,33.49,51.82,16.57-.26,31.45-22.64,32.1-43C678.38,215.51,664.61,195.68,642.77,186.6Z" style="fill:#b36016;opacity:0.30000000000000004"/><path d="M652.76,179.06c-22.59,1.55-36.35,25.35-37.52,49.26C614,254,630.9,283.77,650.05,283.75s35.58-30.25,34.8-55.78C684.19,206.41,674.33,177.57,652.76,179.06Z" style="fill:url(#fc331a76-b440-4f8f-82e7-80be8edf39e5)"/><path d="M650.63,185.79C622,196,625.86,237.34,620.4,238.43c-2,.39-4.22-4.24-5.21-6.55.21,14.9,6.14,30.6,14.8,40.77l33.86,5.88a44.16,44.16,0,0,0,9.65-10.75C674.11,240.45,673.13,177.81,650.63,185.79Z" style="fill:#f65a4a;opacity:0.5"/><path d="M660,181.19c-19.71,2.21-30.87,28.75-31.72,48-1,23.5,12.61,51.62,31.18,53.64,20.89,2.29,44.47-28.81,41.39-57.59C698.47,203.17,680.07,178.93,660,181.19Z" style="fill:url(#acd27aa9-62f3-4bb4-979c-fb26eb516b53)"/><path d="M660,181.19c-19.71,2.21-30.87,28.75-31.72,48-1,23.5,12.61,51.62,31.18,53.64,20.89,2.29,44.47-28.81,41.39-57.59C698.47,203.17,680.07,178.93,660,181.19Z" style="fill:url(#ffaead27-18bb-4ee9-b610-7ade2ec1fa0e)"/><path d="M700.77,225.23c-1.46-13.66-9.07-28.15-19.43-36.68-18.18-.33-34.86,14.11-35.23,41.68-.25,19.51,7.62,37.36,25,50.64C688.1,273.64,703.28,248.67,700.77,225.23Z" style="fill:#d69a58;opacity:0.2"/><path d="M689.71,238.22c-2.82.56-7.53,9.41-7.53,9.41s-6.58-6.21-9.78-5.46-10.92,8.09-10.92,8.09-7.34-8.28-10.92-7.34-10.91,8.28-10.91,8.28-7.15-8.84-10.35-8.65-11.48,6.21-11.48,6.21-6.4-9.41-9.42-9.23c-1.86.12-6.48,2.85-9.72,4.9,3.28,11.47,9.9,21.88,18.08,28.31l65.8.42A62,62,0,0,0,699,245.24C697.52,241.53,692.33,237.69,689.71,238.22Z" style="fill:#e25947;opacity:0.30000000000000004"/><path d="M691.17,229.83a2.56,2.56,0,0,0-1.77.74,2.52,2.52,0,0,0-.74,1.77,2.5,2.5,0,0,0,4.28,1.77,2.5,2.5,0,0,0,.74-1.77A2.55,2.55,0,0,0,691.17,229.83Z" style="fill:#eaa25d"/><path d="M696.1,224.08a1.21,1.21,0,0,0-1-.88,1.24,1.24,0,0,0-1.41,1.21,1.27,1.27,0,0,0,1.24,1.24A1.24,1.24,0,0,0,696.1,224.08Z" style="fill:#eaa25d"/><path d="M690,218.32a1.35,1.35,0,0,0-1.34,1.34,1.34,1.34,0,1,0,1.34-1.34Z" style="fill:#eaa25d"/><path d="M676.32,235a1.05,1.05,0,1,0,1,1.05A1.06,1.06,0,0,0,676.32,235Z" style="fill:#eaa25d"/><path d="M671.16,233.18a1.26,1.26,0,1,0,1.26,1.26A1.27,1.27,0,0,0,671.16,233.18Z" style="fill:#eaa25d"/><path d="M676,228.08a1.81,1.81,0,0,0-1.25.51,1.82,1.82,0,0,0-.51,1.25A1.79,1.79,0,0,0,676,231.6a1.81,1.81,0,0,0,1.24-.52,1.75,1.75,0,0,0,.52-1.24A1.8,1.8,0,0,0,676,228.08Z" style="fill:#eaa25d"/><path d="M674.64,193.36a1.21,1.21,0,1,0,1.69.26A1.22,1.22,0,0,0,674.64,193.36Z" style="fill:#eaa25d"/><path d="M672.5,197.15a2,2,0,0,0-1.21-.09c-2.55.59-1.68,4.82,1,4.2a1.84,1.84,0,0,0,1.23-.89A2.33,2.33,0,0,0,672.5,197.15Z" style="fill:#eaa25d"/><path d="M677.14,198.84a.93.93,0,1,0,1.1,1.51.93.93,0,0,0-1.1-1.51Z" style="fill:#eaa25d"/><path d="M708.68,233.22c-1.12-1.4-11.76,15.33-11.76,15.33s-4.12-7.66-7.06-6.78S681.61,253,681.61,253s-6.18-7.36-9.71-7.06-10.6,10-10.6,10-6.74-9.11-10.6-8.84c-4.12.3-10.9,9.43-10.9,9.43s-6.77-9.72-9.71-9.72c-4.43,0-10.9,7.65-10.9,7.65S611.83,243,608.89,243c-3.88,0-8.54,5.89-8.54,5.89S588.47,233.62,587,235.09s20.36,49.53,20.36,49.53l78.48.24S710.18,235.09,708.68,233.22Z" style="fill:#ffe8a4"/><path d="M656.47,250.42c-2-1.87-4.12-3.46-5.77-3.35-4.12.3-10.9,9.43-10.9,9.43s-6.77-9.72-9.71-9.72c-4.43,0-10.9,7.65-10.9,7.65S611.83,243,608.89,243c-3.88,0-8.54,5.89-8.54,5.89s7.1-4.92,8.57-4.67S619.43,256,619.43,256s8.32-8.07,10.64-7.83,10,10.4,10,10.4,7.46-10.52,10.51-10.64C652.25,247.89,654.62,249.19,656.47,250.42Z" style="fill:#fff5ff"/><path d="M665.84,181.29c-.81-.11-1.63-.2-2.46-.23a20.83,20.83,0,0,0-10.68-2,32.06,32.06,0,0,0-10.48,2.5,24.52,24.52,0,0,0-6.4-1c-13-.27-23.29,7.3-30.11,17.69a46.76,46.76,0,0,0,15.85,4.91C640.6,205.53,658.16,196.24,665.84,181.29Z" style="fill:#f9e6c6;opacity:0.30000000000000004"/><polygon points="758.65 235.09 879.97 233.22 860.5 273.28 775.13 262.8 758.65 235.09" style="fill:#db9092"/><path d="M807.17,180.56c-22.46-.47-36.91,22.52-39.16,43-2.93,26.57,16.74,56.51,38.17,55.9,21.14-.61,38.31-30.79,35.48-56.47C839.65,204.85,826.91,181,807.17,180.56Z" style="fill:url(#e73dc984-a729-4081-986e-97fe9877105d)"/><path d="M814.06,186.6c-2.3,1.14-26.72,6.53-30.63,40.51-2.82,24.45,14.87,52.11,33.48,51.82,16.58-.26,31.46-22.64,32.1-43C849.66,215.51,835.9,195.68,814.06,186.6Z" style="fill:#b36016;opacity:0.30000000000000004"/><path d="M824,179.06c-22.59,1.55-36.34,25.35-37.51,49.26-1.25,25.72,15.65,55.45,34.8,55.43S856.92,253.5,856.14,228C855.48,206.41,845.61,177.57,824,179.06Z" style="fill:url(#b6f15468-e599-48d0-b831-19749e43ada1)"/><path d="M821.92,185.79c-28.67,10.16-24.77,51.55-30.23,52.64-2,.39-4.22-4.24-5.22-6.55.22,14.9,6.15,30.6,14.81,40.77l33.85,5.88a44.4,44.4,0,0,0,9.66-10.75C845.4,240.45,844.41,177.81,821.92,185.79Z" style="fill:#f65a4a;opacity:0.5"/><path d="M831.26,181.19c-19.7,2.21-30.86,28.75-31.72,48-1,23.5,12.61,51.62,31.18,53.64,20.89,2.29,44.48-28.81,41.4-57.59C869.76,203.17,851.36,178.93,831.26,181.19Z" style="fill:url(#beff3c39-63ad-40e6-b117-96097b2e5bd6)"/><path d="M831.26,181.19c-19.7,2.21-30.86,28.75-31.72,48-1,23.5,12.61,51.62,31.18,53.64,20.89,2.29,44.48-28.81,41.4-57.59C869.76,203.17,851.36,178.93,831.26,181.19Z" style="fill:url(#bf7a32e6-a84e-479a-b04f-dfeb5fbede21)"/><path d="M872.06,225.23c-1.46-13.66-9.08-28.15-19.44-36.68-18.18-.33-34.86,14.11-35.22,41.68-.26,19.51,7.62,37.36,25,50.64C859.39,273.64,874.57,248.67,872.06,225.23Z" style="fill:#d69a58;opacity:0.2"/><path d="M861,238.22c-2.82.56-7.53,9.41-7.53,9.41s-6.59-6.21-9.79-5.46-10.91,8.09-10.91,8.09-7.34-8.28-10.92-7.34-10.92,8.28-10.92,8.28-7.15-8.84-10.35-8.65-11.48,6.21-11.48,6.21-6.4-9.41-9.41-9.23c-1.87.12-6.49,2.85-9.73,4.9,3.29,11.47,9.91,21.88,18.08,28.31l65.8.42a62,62,0,0,0,16.47-27.92C868.81,241.53,863.61,237.69,861,238.22Z" style="fill:#e25947;opacity:0.30000000000000004"/><path d="M862.46,229.83a2.58,2.58,0,0,0-1.78.74,2.51,2.51,0,0,0,1.78,4.28,2.58,2.58,0,0,0,1.77-.74,2.51,2.51,0,0,0-1.77-4.28Z" style="fill:#eaa25d"/><path d="M867.39,224.08a1.22,1.22,0,0,0-1-.88,1.23,1.23,0,0,0-1.4,1.21,1.27,1.27,0,0,0,1.24,1.24A1.24,1.24,0,0,0,867.39,224.08Z" style="fill:#eaa25d"/><path d="M861.33,218.32a1.36,1.36,0,0,0-1.35,1.34,1.38,1.38,0,0,0,1.35,1.35,1.35,1.35,0,0,0,0-2.69Z" style="fill:#eaa25d"/><path d="M847.61,235a1.06,1.06,0,0,0-1.05,1.05,1,1,0,1,0,1.05-1.05Z" style="fill:#eaa25d"/><path d="M842.45,233.18a1.26,1.26,0,1,0,1.26,1.26A1.29,1.29,0,0,0,842.45,233.18Z" style="fill:#eaa25d"/><path d="M847.25,228.08a1.76,1.76,0,0,0,0,3.52,1.83,1.83,0,0,0,1.25-.52,1.76,1.76,0,0,0-1.25-3Z" style="fill:#eaa25d"/><path d="M845.92,193.36a1.21,1.21,0,0,0,1.43,2,1.21,1.21,0,1,0-1.43-2Z" style="fill:#eaa25d"/><path d="M843.79,197.15a2,2,0,0,0-1.21-.09c-2.56.59-1.68,4.82.95,4.2a1.87,1.87,0,0,0,1.23-.89A2.33,2.33,0,0,0,843.79,197.15Z" style="fill:#eaa25d"/><path d="M848.42,198.84a.93.93,0,1,0,1.31.21A.95.95,0,0,0,848.42,198.84Z" style="fill:#eaa25d"/><path d="M880,233.22c-1.12-1.4-11.76,15.33-11.76,15.33s-4.12-7.66-7.07-6.78S852.9,253,852.9,253s-6.18-7.36-9.72-7.06-10.6,10-10.6,10-6.73-9.11-10.6-8.84c-4.12.3-10.89,9.43-10.89,9.43s-6.77-9.72-9.72-9.72c-4.42,0-10.89,7.65-10.89,7.65S783.12,243,780.17,243c-3.87,0-8.53,5.89-8.53,5.89s-11.89-15.22-13.36-13.75,20.36,49.53,20.36,49.53l78.47.24S881.47,235.09,880,233.22Z" style="fill:#ffe8a4"/><path d="M827.76,250.42c-2-1.87-4.13-3.46-5.78-3.35-4.12.3-10.89,9.43-10.89,9.43s-6.77-9.72-9.72-9.72c-4.42,0-10.89,7.65-10.89,7.65S783.12,243,780.17,243c-3.87,0-8.53,5.89-8.53,5.89s7.09-4.92,8.56-4.67S790.72,256,790.72,256,799,248,801.36,248.2s10,10.4,10,10.4,7.46-10.52,10.52-10.64C823.54,247.89,825.91,249.19,827.76,250.42Z" style="fill:#fff5ff"/><path d="M837.13,181.29c-.82-.11-1.64-.2-2.46-.23a20.87,20.87,0,0,0-10.69-2,32,32,0,0,0-10.47,2.5,24.59,24.59,0,0,0-6.4-1c-13-.27-23.29,7.3-30.11,17.69a46.77,46.77,0,0,0,15.84,4.91C811.88,205.53,829.44,196.24,837.13,181.29Z" style="fill:#f9e6c6;opacity:0.30000000000000004"/><polygon points="929.94 235.09 1051.26 233.22 1031.79 273.28 946.42 262.8 929.94 235.09" style="fill:#db9092"/><path d="M978.45,180.56c-22.45-.47-36.9,22.52-39.16,43-2.93,26.57,16.74,56.51,38.17,55.9,21.14-.61,38.32-30.79,35.48-56.47C1010.94,204.85,998.2,181,978.45,180.56Z" style="fill:url(#ba62b0b4-b955-4503-afc6-d2ebb10be194)"/><path d="M985.34,186.6c-2.3,1.14-26.72,6.53-30.63,40.51-2.81,24.45,14.88,52.11,33.49,51.82,16.58-.26,31.46-22.64,32.1-43C1021,215.51,1007.18,195.68,985.34,186.6Z" style="fill:#b36016;opacity:0.30000000000000004"/><path d="M995.33,179.06c-22.59,1.55-36.35,25.35-37.51,49.26-1.26,25.72,15.65,55.45,34.8,55.43s35.58-30.25,34.8-55.78C1026.76,206.41,1016.9,177.57,995.33,179.06Z" style="fill:url(#b2d97a37-1c32-46c7-81d4-555a6ca01012)"/><path d="M993.2,185.79C964.54,196,968.44,237.34,963,238.43c-2,.39-4.22-4.24-5.21-6.55.21,14.9,6.15,30.6,14.8,40.77l33.86,5.88a44.16,44.16,0,0,0,9.65-10.75C1016.69,240.45,1015.7,177.81,993.2,185.79Z" style="fill:#f65a4a;opacity:0.5"/><path d="M1002.55,181.19c-19.7,2.21-30.87,28.75-31.72,48-1,23.5,12.61,51.62,31.18,53.64,20.89,2.29,44.47-28.81,41.39-57.59C1041.05,203.17,1022.65,178.93,1002.55,181.19Z" style="fill:url(#f3217b51-17c8-45c2-bef2-20e7b2bded3a)"/><path d="M1002.55,181.19c-19.7,2.21-30.87,28.75-31.72,48-1,23.5,12.61,51.62,31.18,53.64,20.89,2.29,44.47-28.81,41.39-57.59C1041.05,203.17,1022.65,178.93,1002.55,181.19Z" style="fill:url(#b0fdfd30-a6b8-4763-ab07-22fb0c172049)"/><path d="M1043.35,225.23c-1.46-13.66-9.08-28.15-19.44-36.68-18.18-.33-34.86,14.11-35.22,41.68-.26,19.51,7.61,37.36,25,50.64C1030.68,273.64,1045.85,248.67,1043.35,225.23Z" style="fill:#d69a58;opacity:0.2"/><path d="M1032.29,238.22c-2.83.56-7.53,9.41-7.53,9.41s-6.59-6.21-9.79-5.46-10.92,8.09-10.92,8.09-7.34-8.28-10.91-7.34-10.92,8.28-10.92,8.28-7.15-8.84-10.35-8.65-11.48,6.21-11.48,6.21-6.4-9.41-9.41-9.23c-1.87.12-6.49,2.85-9.73,4.9,3.29,11.47,9.91,21.88,18.08,28.31l65.8.42a61.86,61.86,0,0,0,16.46-27.92C1040.09,241.53,1034.9,237.69,1032.29,238.22Z" style="fill:#e25947;opacity:0.30000000000000004"/><path d="M1033.74,229.83a2.51,2.51,0,1,0,1.78,4.28,2.51,2.51,0,0,0-1.78-4.28Z" style="fill:#eaa25d"/><path d="M1038.68,224.08a1.24,1.24,0,0,0-2.43.33,1.24,1.24,0,1,0,2.43-.33Z" style="fill:#eaa25d"/><path d="M1032.61,218.32a1.35,1.35,0,1,0,1.35,1.34A1.38,1.38,0,0,0,1032.61,218.32Z" style="fill:#eaa25d"/><path d="M1018.89,235a1.05,1.05,0,1,0,1.05,1.05A1.05,1.05,0,0,0,1018.89,235Z" style="fill:#eaa25d"/><path d="M1013.73,233.18a1.27,1.27,0,0,0-1.26,1.26,1.29,1.29,0,0,0,1.26,1.26,1.26,1.26,0,0,0,0-2.52Z" style="fill:#eaa25d"/><path d="M1018.54,228.08a1.74,1.74,0,0,0-1.76,1.76,1.75,1.75,0,0,0,3,1.24,1.75,1.75,0,0,0,.52-1.24A1.78,1.78,0,0,0,1018.54,228.08Z" style="fill:#eaa25d"/><path d="M1017.21,193.36a1.22,1.22,0,0,0-.27,1.69,1.21,1.21,0,1,0,2-1.43A1.23,1.23,0,0,0,1017.21,193.36Z" style="fill:#eaa25d"/><path d="M1015.07,197.15a2,2,0,0,0-1.21-.09c-2.55.59-1.67,4.82,1,4.2a1.85,1.85,0,0,0,1.22-.89A2.32,2.32,0,0,0,1015.07,197.15Z" style="fill:#eaa25d"/><path d="M1019.71,198.84a.93.93,0,1,0,1.1,1.51.93.93,0,0,0-1.1-1.51Z" style="fill:#eaa25d"/><path d="M1051.26,233.22c-1.12-1.4-11.76,15.33-11.76,15.33s-4.13-7.66-7.07-6.78-8.24,11.19-8.24,11.19-6.19-7.36-9.72-7.06-10.6,10-10.6,10-6.74-9.11-10.6-8.84c-4.12.3-10.89,9.43-10.89,9.43s-6.78-9.72-9.72-9.72c-4.43,0-10.89,7.65-10.89,7.65S954.4,243,951.46,243c-3.87,0-8.54,5.89-8.54,5.89S931,233.62,929.57,235.09s20.35,49.53,20.35,49.53l78.48.24S1052.75,235.09,1051.26,233.22Z" style="fill:#ffe8a4"/><path d="M999,250.42c-1.95-1.87-4.12-3.46-5.77-3.35-4.12.3-10.89,9.43-10.89,9.43s-6.78-9.72-9.72-9.72c-4.43,0-10.89,7.65-10.89,7.65S954.4,243,951.46,243c-3.87,0-8.54,5.89-8.54,5.89s7.1-4.92,8.57-4.67S962,256,962,256s8.32-8.07,10.64-7.83,10,10.4,10,10.4,7.46-10.52,10.52-10.64C994.82,247.89,997.19,249.19,999,250.42Z" style="fill:#fff5ff"/><path d="M1008.42,181.29c-.82-.11-1.64-.2-2.47-.23a20.83,20.83,0,0,0-10.68-2,31.94,31.94,0,0,0-10.47,2.5,24.59,24.59,0,0,0-6.4-1c-13-.27-23.3,7.3-30.12,17.69a46.9,46.9,0,0,0,15.85,4.91C983.17,205.53,1000.73,196.24,1008.42,181.29Z" style="fill:#f9e6c6;opacity:0.30000000000000004"/><polygon points="1101.23 235.09 1222.54 233.22 1203.07 273.28 1117.7 262.8 1101.23 235.09" style="fill:#db9092"/><path d="M1149.74,180.56c-22.45-.47-36.9,22.52-39.16,43-2.93,26.57,16.74,56.51,38.17,55.9,21.14-.61,38.32-30.79,35.48-56.47C1182.23,204.85,1169.48,181,1149.74,180.56Z" style="fill:url(#fea7eef3-c6c7-436d-b3ef-ac04446c484f)"/><path d="M1156.63,186.6c-2.3,1.14-26.72,6.53-30.63,40.51-2.82,24.45,14.88,52.11,33.49,51.82,16.57-.26,31.45-22.64,32.1-43C1192.23,215.51,1178.47,195.68,1156.63,186.6Z" style="fill:#b36016;opacity:0.30000000000000004"/><path d="M1166.61,179.06c-22.58,1.55-36.34,25.35-37.51,49.26-1.25,25.72,15.66,55.45,34.81,55.43s35.58-30.25,34.8-55.78C1198.05,206.41,1188.19,177.57,1166.61,179.06Z" style="fill:url(#e94eb4e6-a1c2-4c77-a797-b1360ccd90cc)"/><path d="M1164.49,185.79c-28.67,10.16-24.77,51.55-30.23,52.64-2,.39-4.22-4.24-5.22-6.55.22,14.9,6.15,30.6,14.81,40.77l33.86,5.88a44.16,44.16,0,0,0,9.65-10.75C1188,240.45,1187,177.81,1164.49,185.79Z" style="fill:#f65a4a;opacity:0.5"/><path d="M1173.83,181.19c-19.7,2.21-30.86,28.75-31.71,48-1,23.5,12.6,51.62,31.18,53.64,20.88,2.29,44.47-28.81,41.39-57.59C1212.33,203.17,1193.93,178.93,1173.83,181.19Z" style="fill:url(#af0131f4-8243-4fe3-962a-866117095559)"/><path d="M1173.83,181.19c-19.7,2.21-30.86,28.75-31.71,48-1,23.5,12.6,51.62,31.18,53.64,20.88,2.29,44.47-28.81,41.39-57.59C1212.33,203.17,1193.93,178.93,1173.83,181.19Z" style="fill:url(#f36e4bf5-8c9a-4854-95a6-8a65a3c045a5)"/><path d="M1214.63,225.23c-1.46-13.66-9.07-28.15-19.43-36.68-18.18-.33-34.86,14.11-35.23,41.68-.25,19.51,7.62,37.36,25,50.64C1202,273.64,1217.14,248.67,1214.63,225.23Z" style="fill:#d69a58;opacity:0.2"/><path d="M1203.57,238.22c-2.82.56-7.53,9.41-7.53,9.41s-6.58-6.21-9.78-5.46-10.92,8.09-10.92,8.09-7.34-8.28-10.92-7.34-10.91,8.28-10.91,8.28-7.15-8.84-10.35-8.65-11.49,6.21-11.49,6.21-6.39-9.41-9.41-9.23c-1.86.12-6.48,2.85-9.72,4.9,3.28,11.47,9.9,21.88,18.08,28.31l65.8.42a62,62,0,0,0,16.46-27.92C1211.38,241.53,1206.19,237.69,1203.57,238.22Z" style="fill:#e25947;opacity:0.30000000000000004"/><path d="M1205,229.83a2.6,2.6,0,0,0-1.78.74,2.51,2.51,0,1,0,1.78-.74Z" style="fill:#eaa25d"/><path d="M1210,224.08a1.21,1.21,0,0,0-1-.88,1.23,1.23,0,0,0-1.4,1.21,1.27,1.27,0,0,0,1.24,1.24A1.24,1.24,0,0,0,1210,224.08Z" style="fill:#eaa25d"/><path d="M1203.9,218.32a1.35,1.35,0,0,0-1.34,1.34,1.34,1.34,0,1,0,1.34-1.34Z" style="fill:#eaa25d"/><path d="M1190.18,235a1.05,1.05,0,1,0,1,1.05A1.06,1.06,0,0,0,1190.18,235Z" style="fill:#eaa25d"/><path d="M1185,233.18a1.26,1.26,0,1,0,1.26,1.26A1.27,1.27,0,0,0,1185,233.18Z" style="fill:#eaa25d"/><path d="M1189.83,228.08a1.76,1.76,0,1,0,1.24,3,1.75,1.75,0,0,0,.52-1.24A1.8,1.8,0,0,0,1189.83,228.08Z" style="fill:#eaa25d"/><path d="M1188.5,193.36a1.21,1.21,0,0,0-.27,1.69,1.21,1.21,0,1,0,.27-1.69Z" style="fill:#eaa25d"/><path d="M1186.36,197.15a2,2,0,0,0-1.21-.09c-2.55.59-1.68,4.82.95,4.2a1.84,1.84,0,0,0,1.23-.89A2.33,2.33,0,0,0,1186.36,197.15Z" style="fill:#eaa25d"/><path d="M1191,198.84a.93.93,0,1,0,1.3.21A.94.94,0,0,0,1191,198.84Z" style="fill:#eaa25d"/><path d="M1222.54,233.22c-1.12-1.4-11.76,15.33-11.76,15.33s-4.12-7.66-7.06-6.78-8.25,11.19-8.25,11.19-6.18-7.36-9.71-7.06-10.6,10-10.6,10-6.74-9.11-10.6-8.84c-4.13.3-10.9,9.43-10.9,9.43s-6.77-9.72-9.71-9.72c-4.43,0-10.9,7.65-10.9,7.65s-7.36-11.48-10.3-11.48c-3.88,0-8.54,5.89-8.54,5.89s-11.89-15.22-13.36-13.75,20.36,49.53,20.36,49.53l78.47.24S1224,235.09,1222.54,233.22Z" style="fill:#ffe8a4"/><path d="M1170.33,250.42c-1.95-1.87-4.12-3.46-5.77-3.35-4.13.3-10.9,9.43-10.9,9.43s-6.77-9.72-9.71-9.72c-4.43,0-10.9,7.65-10.9,7.65s-7.36-11.48-10.3-11.48c-3.88,0-8.54,5.89-8.54,5.89s7.1-4.92,8.56-4.67S1133.29,256,1133.29,256s8.32-8.07,10.64-7.83,10,10.4,10,10.4,7.46-10.52,10.51-10.64C1166.11,247.89,1168.48,249.19,1170.33,250.42Z" style="fill:#fff5ff"/><path d="M1179.7,181.29c-.81-.11-1.63-.2-2.46-.23a20.83,20.83,0,0,0-10.68-2,32.06,32.06,0,0,0-10.48,2.5,24.52,24.52,0,0,0-6.4-1c-13-.27-23.29,7.3-30.11,17.69a46.77,46.77,0,0,0,15.84,4.91C1154.46,205.53,1172,196.24,1179.7,181.29Z" style="fill:#f9e6c6;opacity:0.30000000000000004"/><polygon points="416.08 368.25 537.4 366.38 517.93 406.44 432.56 395.96 416.08 368.25" style="fill:#db9092"/><path d="M464.59,313.72c-22.45-.47-36.9,22.52-39.16,43-2.93,26.57,16.75,56.51,38.17,55.89,21.14-.6,38.32-30.78,35.48-56.46C497.08,338,484.34,314.14,464.59,313.72Z" style="fill:url(#e0919715-47cf-431a-8f6c-734218b37cd9)"/><path d="M471.49,319.76c-2.31,1.14-26.73,6.53-30.64,40.51-2.81,24.45,14.88,52.11,33.49,51.82,16.58-.26,31.46-22.64,32.1-42.95C507.09,348.67,493.32,328.84,471.49,319.76Z" style="fill:#b36016;opacity:0.30000000000000004"/><path d="M481.47,312.21c-22.59,1.56-36.35,25.35-37.51,49.27-1.26,25.72,15.65,55.45,34.8,55.43,19.3,0,35.58-30.25,34.8-55.78C512.9,339.57,503,310.73,481.47,312.21Z" style="fill:url(#ede78e89-b47e-41e9-9325-31023980af19)"/><path d="M479.34,319c-28.66,10.16-24.76,51.55-30.22,52.64-2,.39-4.23-4.24-5.22-6.55.21,14.9,6.15,30.6,14.8,40.77l33.86,5.88a44.53,44.53,0,0,0,9.65-10.75C502.83,373.61,501.84,311,479.34,319Z" style="fill:#f65a4a;opacity:0.5"/><path d="M488.69,314.35c-19.7,2.21-30.87,28.75-31.72,48-1,23.5,12.61,51.61,31.18,53.64,20.89,2.28,44.47-28.81,41.4-57.59C527.19,336.33,508.79,312.09,488.69,314.35Z" style="fill:url(#ac1ac9ac-6ae2-4e10-bbce-e40255e3d8e5)"/><path d="M488.69,314.35c-19.7,2.21-30.87,28.75-31.72,48-1,23.5,12.61,51.61,31.18,53.64,20.89,2.28,44.47-28.81,41.4-57.59C527.19,336.33,508.79,312.09,488.69,314.35Z" style="fill:url(#ea98ee44-9f7c-476c-9aaf-f1bda02bcc0b)"/><path d="M529.49,358.39c-1.46-13.66-9.08-28.15-19.44-36.68-18.18-.33-34.86,14.11-35.22,41.68-.26,19.51,7.62,37.36,25,50.64C516.82,406.8,532,381.83,529.49,358.39Z" style="fill:#d69a58;opacity:0.2"/><path d="M518.43,371.38c-2.83.56-7.53,9.41-7.53,9.41s-6.59-6.21-9.79-5.46-10.92,8.09-10.92,8.09-7.34-8.28-10.91-7.34-10.92,8.28-10.92,8.28-7.15-8.84-10.35-8.66-11.48,6.22-11.48,6.22-6.4-9.41-9.41-9.23c-1.87.12-6.49,2.84-9.73,4.9,3.29,11.47,9.91,21.88,18.08,28.31l65.8.42a61.91,61.91,0,0,0,16.46-27.92C526.23,374.69,521,370.85,518.43,371.38Z" style="fill:#e25947;opacity:0.30000000000000004"/><path d="M519.88,363a2.51,2.51,0,1,0,2.51,2.51A2.56,2.56,0,0,0,519.88,363Z" style="fill:#eaa25d"/><path d="M524.82,357.24a1.24,1.24,0,0,0-2.43.33,1.24,1.24,0,1,0,2.43-.33Z" style="fill:#eaa25d"/><path d="M518.75,351.48a1.35,1.35,0,1,0,1.35,1.34A1.38,1.38,0,0,0,518.75,351.48Z" style="fill:#eaa25d"/><path d="M505,368.16a1.05,1.05,0,1,0,1,1A1.06,1.06,0,0,0,505,368.16Z" style="fill:#eaa25d"/><path d="M499.87,366.34a1.27,1.27,0,0,0-1.26,1.26,1.29,1.29,0,0,0,1.26,1.26,1.26,1.26,0,0,0,0-2.52Z" style="fill:#eaa25d"/><path d="M504.68,361.23a1.76,1.76,0,0,0-1.76,1.77,1.79,1.79,0,0,0,1.76,1.76,1.83,1.83,0,0,0,1.25-.52,1.77,1.77,0,0,0-1.25-3Z" style="fill:#eaa25d"/><path d="M503.35,326.51a1.21,1.21,0,1,0,1.43,2,1.22,1.22,0,0,0,.26-1.69A1.24,1.24,0,0,0,503.35,326.51Z" style="fill:#eaa25d"/><path d="M501.21,330.31a2.08,2.08,0,0,0-1.21-.1c-2.55.6-1.67,4.83,1,4.21a1.85,1.85,0,0,0,1.22-.89A2.32,2.32,0,0,0,501.21,330.31Z" style="fill:#eaa25d"/><path d="M505.85,332a.93.93,0,1,0,1.1,1.51.93.93,0,0,0-1.1-1.51Z" style="fill:#eaa25d"/><path d="M537.4,366.38c-1.12-1.4-11.76,15.32-11.76,15.32s-4.12-7.65-7.07-6.77-8.24,11.19-8.24,11.19-6.19-7.36-9.72-7.07-10.6,10-10.6,10-6.74-9.1-10.6-8.83c-4.12.3-10.89,9.42-10.89,9.42s-6.77-9.71-9.72-9.71c-4.43,0-10.89,7.65-10.89,7.65s-7.36-11.48-10.31-11.48c-3.87,0-8.54,5.89-8.54,5.89s-11.88-15.22-13.35-13.75,20.36,49.53,20.36,49.53l78.47.24S538.89,368.25,537.4,366.38Z" style="fill:#ffe8a4"/><path d="M485.18,383.57c-1.95-1.86-4.12-3.46-5.77-3.34-4.12.3-10.89,9.42-10.89,9.42s-6.77-9.71-9.72-9.71c-4.43,0-10.89,7.65-10.89,7.65s-7.36-11.48-10.31-11.48c-3.87,0-8.54,5.89-8.54,5.89s7.1-4.92,8.57-4.67,10.52,11.86,10.52,11.86,8.31-8.07,10.63-7.83,10,10.4,10,10.4,7.46-10.52,10.52-10.64C481,381.05,483.33,382.35,485.18,383.57Z" style="fill:#fff5ff"/><path d="M494.56,314.45c-.82-.11-1.64-.2-2.46-.23a21,21,0,0,0-10.69-2,32.27,32.27,0,0,0-10.47,2.51,24.59,24.59,0,0,0-6.4-1c-13-.27-23.3,7.3-30.12,17.69a46.9,46.9,0,0,0,15.85,4.91C469.31,338.69,486.87,329.4,494.56,314.45Z" style="fill:#f9e6c6;opacity:0.30000000000000004"/><polygon points="587.37 368.25 708.68 366.38 689.21 406.44 603.84 395.96 587.37 368.25" style="fill:#db9092"/><path d="M635.88,313.72c-22.45-.47-36.9,22.52-39.16,43-2.93,26.57,16.74,56.51,38.17,55.89,21.14-.6,38.32-30.78,35.48-56.46C668.37,338,655.62,314.14,635.88,313.72Z" style="fill:url(#b729889a-b80b-4d1b-9dc4-3dadeeac359c)"/><path d="M642.77,319.76c-2.3,1.14-26.72,6.53-30.63,40.51-2.82,24.45,14.88,52.11,33.49,51.82,16.57-.26,31.45-22.64,32.1-42.95C678.38,348.67,664.61,328.84,642.77,319.76Z" style="fill:#b36016;opacity:0.30000000000000004"/><path d="M652.76,312.21c-22.59,1.56-36.35,25.35-37.52,49.27-1.25,25.72,15.66,55.45,34.81,55.43s35.58-30.25,34.8-55.78C684.19,339.57,674.33,310.73,652.76,312.21Z" style="fill:url(#e37749c6-f294-4082-8623-7e536128e244)"/><path d="M650.63,319C622,329.11,625.86,370.5,620.4,371.59c-2,.39-4.22-4.24-5.21-6.55.21,14.9,6.14,30.6,14.8,40.77l33.86,5.88a44.53,44.53,0,0,0,9.65-10.75C674.11,373.61,673.13,311,650.63,319Z" style="fill:#f65a4a;opacity:0.5"/><path d="M660,314.35c-19.71,2.21-30.87,28.75-31.72,48-1,23.5,12.61,51.61,31.18,53.64,20.89,2.28,44.47-28.81,41.39-57.59C698.47,336.33,680.07,312.09,660,314.35Z" style="fill:url(#e3600e42-0325-42b2-8298-459a38ccf034)"/><path d="M660,314.35c-19.71,2.21-30.87,28.75-31.72,48-1,23.5,12.61,51.61,31.18,53.64,20.89,2.28,44.47-28.81,41.39-57.59C698.47,336.33,680.07,312.09,660,314.35Z" style="fill:url(#f86f5d5a-8a89-4cef-9449-1ec4f26ea8a9)"/><path d="M700.77,358.39c-1.46-13.66-9.07-28.15-19.43-36.68-18.18-.33-34.86,14.11-35.23,41.68-.25,19.51,7.62,37.36,25,50.64C688.1,406.8,703.28,381.83,700.77,358.39Z" style="fill:#d69a58;opacity:0.2"/><path d="M689.71,371.38c-2.82.56-7.53,9.41-7.53,9.41s-6.58-6.21-9.78-5.46-10.92,8.09-10.92,8.09-7.34-8.28-10.92-7.34-10.91,8.28-10.91,8.28-7.15-8.84-10.35-8.66-11.48,6.22-11.48,6.22-6.4-9.41-9.42-9.23c-1.86.12-6.48,2.84-9.72,4.9,3.28,11.47,9.9,21.88,18.08,28.31l65.8.42A62,62,0,0,0,699,378.4C697.52,374.69,692.33,370.85,689.71,371.38Z" style="fill:#e25947;opacity:0.30000000000000004"/><path d="M691.17,363a2.56,2.56,0,0,0-1.77.74,2.5,2.5,0,0,0-.74,1.77,2.5,2.5,0,0,0,4.28,1.77,2.52,2.52,0,0,0,.74-1.77A2.55,2.55,0,0,0,691.17,363Z" style="fill:#eaa25d"/><path d="M696.1,357.24a1.21,1.21,0,0,0-1-.88,1.23,1.23,0,0,0-1.41,1.21,1.27,1.27,0,0,0,1.24,1.24A1.24,1.24,0,0,0,696.1,357.24Z" style="fill:#eaa25d"/><path d="M690,351.48a1.35,1.35,0,0,0-1.34,1.34,1.34,1.34,0,1,0,1.34-1.34Z" style="fill:#eaa25d"/><path d="M676.32,368.16a1.05,1.05,0,1,0,1,1A1.06,1.06,0,0,0,676.32,368.16Z" style="fill:#eaa25d"/><path d="M671.16,366.34a1.26,1.26,0,1,0,1.26,1.26A1.27,1.27,0,0,0,671.16,366.34Z" style="fill:#eaa25d"/><path d="M676,361.23a1.76,1.76,0,0,0-1.76,1.77,1.79,1.79,0,0,0,1.76,1.76,1.81,1.81,0,0,0,1.24-.52,1.77,1.77,0,0,0,.52-1.24A1.8,1.8,0,0,0,676,361.23Z" style="fill:#eaa25d"/><path d="M674.64,326.51a1.21,1.21,0,1,0,1.42,2,1.21,1.21,0,0,0,.27-1.69A1.24,1.24,0,0,0,674.64,326.51Z" style="fill:#eaa25d"/><path d="M672.5,330.31a2.09,2.09,0,0,0-1.21-.1c-2.55.6-1.68,4.83,1,4.21a1.84,1.84,0,0,0,1.23-.89A2.33,2.33,0,0,0,672.5,330.31Z" style="fill:#eaa25d"/><path d="M677.14,332a.94.94,0,0,0-.21,1.3,1,1,0,0,0,1.31.21.93.93,0,0,0-1.1-1.51Z" style="fill:#eaa25d"/><path d="M708.68,366.38c-1.12-1.4-11.76,15.32-11.76,15.32s-4.12-7.65-7.06-6.77-8.25,11.19-8.25,11.19-6.18-7.36-9.71-7.07-10.6,10-10.6,10-6.74-9.1-10.6-8.83c-4.12.3-10.9,9.42-10.9,9.42s-6.77-9.71-9.71-9.71c-4.43,0-10.9,7.65-10.9,7.65s-7.36-11.48-10.3-11.48c-3.88,0-8.54,5.89-8.54,5.89S588.47,366.78,587,368.25s20.36,49.53,20.36,49.53l78.48.24S710.18,368.25,708.68,366.38Z" style="fill:#ffe8a4"/><path d="M656.47,383.57c-2-1.86-4.12-3.46-5.77-3.34-4.12.3-10.9,9.42-10.9,9.42s-6.77-9.71-9.71-9.71c-4.43,0-10.9,7.65-10.9,7.65s-7.36-11.48-10.3-11.48c-3.88,0-8.54,5.89-8.54,5.89s7.1-4.92,8.57-4.67,10.51,11.86,10.51,11.86,8.32-8.07,10.64-7.83,10,10.4,10,10.4,7.46-10.52,10.51-10.64C652.25,381.05,654.62,382.35,656.47,383.57Z" style="fill:#fff5ff"/><path d="M665.84,314.45c-.81-.11-1.63-.2-2.46-.23a20.94,20.94,0,0,0-10.68-2,32.33,32.33,0,0,0-10.48,2.51,24.52,24.52,0,0,0-6.4-1c-13-.27-23.29,7.3-30.11,17.69a46.76,46.76,0,0,0,15.85,4.91C640.6,338.69,658.16,329.4,665.84,314.45Z" style="fill:#f9e6c6;opacity:0.30000000000000004"/><polygon points="758.65 368.25 879.97 366.38 860.5 406.44 775.13 395.96 758.65 368.25" style="fill:#db9092"/><path d="M807.17,313.72c-22.46-.47-36.91,22.52-39.16,43-2.93,26.57,16.74,56.51,38.17,55.89,21.14-.6,38.31-30.78,35.48-56.46C839.65,338,826.91,314.14,807.17,313.72Z" style="fill:url(#a6e1c020-f1ad-4998-a6bc-98ce8502dc92)"/><path d="M814.06,319.76c-2.3,1.14-26.72,6.53-30.63,40.51-2.82,24.45,14.87,52.11,33.48,51.82,16.58-.26,31.46-22.64,32.1-42.95C849.66,348.67,835.9,328.84,814.06,319.76Z" style="fill:#b36016;opacity:0.30000000000000004"/><path d="M824,312.21c-22.59,1.56-36.34,25.35-37.51,49.27-1.25,25.72,15.65,55.45,34.8,55.43s35.59-30.25,34.81-55.78C855.48,339.57,845.61,310.73,824,312.21Z" style="fill:url(#e3d5a2be-a378-4d06-acc4-f8a8eb23f366)"/><path d="M821.92,319c-28.67,10.16-24.77,51.55-30.23,52.64-2,.39-4.22-4.24-5.22-6.55.22,14.9,6.15,30.6,14.81,40.77l33.85,5.88a44.77,44.77,0,0,0,9.66-10.75C845.4,373.61,844.41,311,821.92,319Z" style="fill:#f65a4a;opacity:0.5"/><path d="M831.26,314.35c-19.7,2.21-30.86,28.75-31.72,48-1,23.5,12.61,51.61,31.18,53.64,20.89,2.28,44.48-28.81,41.4-57.59C869.76,336.33,851.36,312.09,831.26,314.35Z" style="fill:url(#fe6a0689-b2b4-4695-bbcc-975cb9fe0f7f)"/><path d="M831.26,314.35c-19.7,2.21-30.86,28.75-31.72,48-1,23.5,12.61,51.61,31.18,53.64,20.89,2.28,44.48-28.81,41.4-57.59C869.76,336.33,851.36,312.09,831.26,314.35Z" style="fill:url(#bb2e319a-f63d-4340-bd7d-538b7436d821)"/><path d="M872.06,358.39c-1.46-13.66-9.08-28.15-19.44-36.68-18.18-.33-34.86,14.11-35.22,41.68-.26,19.51,7.62,37.36,25,50.64C859.39,406.8,874.57,381.83,872.06,358.39Z" style="fill:#d69a58;opacity:0.2"/><path d="M861,371.38c-2.82.56-7.53,9.41-7.53,9.41s-6.59-6.21-9.79-5.46-10.91,8.09-10.91,8.09-7.34-8.28-10.92-7.34-10.92,8.28-10.92,8.28-7.15-8.84-10.35-8.66-11.48,6.22-11.48,6.22-6.4-9.41-9.41-9.23c-1.87.12-6.49,2.84-9.73,4.9,3.29,11.47,9.91,21.88,18.08,28.31l65.8.42a62,62,0,0,0,16.47-27.92C868.81,374.69,863.61,370.85,861,371.38Z" style="fill:#e25947;opacity:0.30000000000000004"/><path d="M862.46,363a2.58,2.58,0,0,0-1.78.74,2.51,2.51,0,0,0,1.78,4.28,2.58,2.58,0,0,0,1.77-.74,2.51,2.51,0,0,0-1.77-4.28Z" style="fill:#eaa25d"/><path d="M867.39,357.24a1.24,1.24,0,0,0-2.43.33,1.27,1.27,0,0,0,1.24,1.24A1.25,1.25,0,0,0,867.39,357.24Z" style="fill:#eaa25d"/><path d="M861.33,351.48a1.36,1.36,0,0,0-1.35,1.34,1.38,1.38,0,0,0,1.35,1.35,1.35,1.35,0,0,0,0-2.69Z" style="fill:#eaa25d"/><path d="M847.61,368.16a1.06,1.06,0,0,0-1.05,1,1,1,0,1,0,1.05-1Z" style="fill:#eaa25d"/><path d="M842.45,366.34a1.26,1.26,0,1,0,1.26,1.26A1.29,1.29,0,0,0,842.45,366.34Z" style="fill:#eaa25d"/><path d="M847.25,361.23a1.81,1.81,0,0,0-1.24.52,1.76,1.76,0,0,0,1.24,3,1.83,1.83,0,0,0,1.25-.52,1.77,1.77,0,0,0-1.25-3Z" style="fill:#eaa25d"/><path d="M845.92,326.51a1.21,1.21,0,1,0,1.7.27A1.26,1.26,0,0,0,845.92,326.51Z" style="fill:#eaa25d"/><path d="M843.79,330.31a2.09,2.09,0,0,0-1.21-.1c-2.56.6-1.68,4.83.95,4.21a1.87,1.87,0,0,0,1.23-.89A2.33,2.33,0,0,0,843.79,330.31Z" style="fill:#eaa25d"/><path d="M848.42,332a.93.93,0,1,0,1.31.21A1,1,0,0,0,848.42,332Z" style="fill:#eaa25d"/><path d="M880,366.38c-1.12-1.4-11.76,15.32-11.76,15.32s-4.12-7.65-7.07-6.77-8.24,11.19-8.24,11.19-6.18-7.36-9.72-7.07-10.6,10-10.6,10-6.73-9.1-10.6-8.83c-4.12.3-10.89,9.42-10.89,9.42s-6.77-9.71-9.72-9.71c-4.42,0-10.89,7.65-10.89,7.65s-7.36-11.48-10.31-11.48c-3.87,0-8.53,5.89-8.53,5.89s-11.89-15.22-13.36-13.75,20.36,49.53,20.36,49.53l78.47.24S881.47,368.25,880,366.38Z" style="fill:#ffe8a4"/><path d="M827.76,383.57c-2-1.86-4.13-3.46-5.78-3.34-4.12.3-10.89,9.42-10.89,9.42s-6.77-9.71-9.72-9.71c-4.42,0-10.89,7.65-10.89,7.65s-7.36-11.48-10.31-11.48c-3.87,0-8.53,5.89-8.53,5.89s7.09-4.92,8.56-4.67,10.52,11.86,10.52,11.86,8.31-8.07,10.64-7.83,10,10.4,10,10.4,7.46-10.52,10.52-10.64C823.54,381.05,825.91,382.35,827.76,383.57Z" style="fill:#fff5ff"/><path d="M837.13,314.45c-.82-.11-1.64-.2-2.46-.23a21,21,0,0,0-10.69-2,32.27,32.27,0,0,0-10.47,2.51,24.59,24.59,0,0,0-6.4-1c-13-.27-23.29,7.3-30.11,17.69a46.77,46.77,0,0,0,15.84,4.91C811.88,338.69,829.44,329.4,837.13,314.45Z" style="fill:#f9e6c6;opacity:0.30000000000000004"/><polygon points="929.94 368.25 1051.26 366.38 1031.79 406.44 946.42 395.96 929.94 368.25" style="fill:#db9092"/><path d="M978.45,313.72c-22.45-.47-36.9,22.52-39.16,43-2.93,26.57,16.74,56.51,38.17,55.89,21.14-.6,38.32-30.78,35.48-56.46C1010.94,338,998.2,314.14,978.45,313.72Z" style="fill:url(#ed4963be-2328-4b2a-b302-20c80d5555ab)"/><path d="M985.34,319.76c-2.3,1.14-26.72,6.53-30.63,40.51-2.81,24.45,14.88,52.11,33.49,51.82,16.58-.26,31.46-22.64,32.1-42.95C1021,348.67,1007.18,328.84,985.34,319.76Z" style="fill:#b36016;opacity:0.30000000000000004"/><path d="M995.33,312.21c-22.59,1.56-36.35,25.35-37.51,49.27-1.26,25.72,15.65,55.45,34.8,55.43s35.58-30.25,34.8-55.78C1026.76,339.57,1016.9,310.73,995.33,312.21Z" style="fill:url(#f9246131-bfdd-4348-abb7-28c84250ba8a)"/><path d="M993.2,319c-28.66,10.16-24.76,51.55-30.23,52.64-2,.39-4.22-4.24-5.21-6.55.21,14.9,6.15,30.6,14.8,40.77l33.86,5.88a44.53,44.53,0,0,0,9.65-10.75C1016.69,373.61,1015.7,311,993.2,319Z" style="fill:#f65a4a;opacity:0.5"/><path d="M1002.55,314.35c-19.7,2.21-30.87,28.75-31.72,48-1,23.5,12.61,51.61,31.18,53.64,20.89,2.28,44.47-28.81,41.39-57.59C1041.05,336.33,1022.65,312.09,1002.55,314.35Z" style="fill:url(#aaf7ad7a-5a23-45e8-9d5a-605d1e59d3de)"/><path d="M1002.55,314.35c-19.7,2.21-30.87,28.75-31.72,48-1,23.5,12.61,51.61,31.18,53.64,20.89,2.28,44.47-28.81,41.39-57.59C1041.05,336.33,1022.65,312.09,1002.55,314.35Z" style="fill:url(#b330ad62-baa6-47b3-b605-427f87060e4c)"/><path d="M1043.35,358.39c-1.46-13.66-9.08-28.15-19.44-36.68-18.18-.33-34.86,14.11-35.22,41.68-.26,19.51,7.61,37.36,25,50.64C1030.68,406.8,1045.85,381.83,1043.35,358.39Z" style="fill:#d69a58;opacity:0.2"/><path d="M1032.29,371.38c-2.83.56-7.53,9.41-7.53,9.41s-6.59-6.21-9.79-5.46-10.92,8.09-10.92,8.09-7.34-8.28-10.91-7.34-10.92,8.28-10.92,8.28-7.15-8.84-10.35-8.66-11.48,6.22-11.48,6.22-6.4-9.41-9.41-9.23c-1.87.12-6.49,2.84-9.73,4.9,3.29,11.47,9.91,21.88,18.08,28.31l65.8.42a61.91,61.91,0,0,0,16.46-27.92C1040.09,374.69,1034.9,370.85,1032.29,371.38Z" style="fill:#e25947;opacity:0.30000000000000004"/><path d="M1033.74,363a2.51,2.51,0,1,0,2.51,2.51A2.56,2.56,0,0,0,1033.74,363Z" style="fill:#eaa25d"/><path d="M1038.68,357.24a1.24,1.24,0,0,0-2.43.33,1.24,1.24,0,1,0,2.43-.33Z" style="fill:#eaa25d"/><path d="M1032.61,351.48a1.35,1.35,0,1,0,1.35,1.34A1.38,1.38,0,0,0,1032.61,351.48Z" style="fill:#eaa25d"/><path d="M1018.89,368.16a1.05,1.05,0,1,0,1.05,1A1.05,1.05,0,0,0,1018.89,368.16Z" style="fill:#eaa25d"/><path d="M1013.73,366.34a1.27,1.27,0,0,0-1.26,1.26,1.29,1.29,0,0,0,1.26,1.26,1.26,1.26,0,0,0,0-2.52Z" style="fill:#eaa25d"/><path d="M1018.54,361.23a1.76,1.76,0,0,0-1.76,1.77,1.75,1.75,0,0,0,3,1.24,1.77,1.77,0,0,0,.52-1.24A1.79,1.79,0,0,0,1018.54,361.23Z" style="fill:#eaa25d"/><path d="M1017.21,326.51a1.21,1.21,0,1,0,1.43,2,1.22,1.22,0,0,0,.26-1.69A1.24,1.24,0,0,0,1017.21,326.51Z" style="fill:#eaa25d"/><path d="M1015.07,330.31a2.09,2.09,0,0,0-1.21-.1c-2.55.6-1.67,4.83,1,4.21a1.85,1.85,0,0,0,1.22-.89A2.32,2.32,0,0,0,1015.07,330.31Z" style="fill:#eaa25d"/><path d="M1019.71,332a.94.94,0,0,0-.21,1.3,1,1,0,0,0,1.31.21.93.93,0,0,0-1.1-1.51Z" style="fill:#eaa25d"/><path d="M1051.26,366.38c-1.12-1.4-11.76,15.32-11.76,15.32s-4.13-7.65-7.07-6.77-8.24,11.19-8.24,11.19-6.19-7.36-9.72-7.07-10.6,10-10.6,10-6.74-9.1-10.6-8.83c-4.12.3-10.89,9.42-10.89,9.42s-6.78-9.71-9.72-9.71c-4.43,0-10.89,7.65-10.89,7.65s-7.37-11.48-10.31-11.48c-3.87,0-8.54,5.89-8.54,5.89S931,366.78,929.57,368.25s20.35,49.53,20.35,49.53l78.48.24S1052.75,368.25,1051.26,366.38Z" style="fill:#ffe8a4"/><path d="M999,383.57c-1.95-1.86-4.12-3.46-5.77-3.34-4.12.3-10.89,9.42-10.89,9.42s-6.78-9.71-9.72-9.71c-4.43,0-10.89,7.65-10.89,7.65s-7.37-11.48-10.31-11.48c-3.87,0-8.54,5.89-8.54,5.89s7.1-4.92,8.57-4.67S962,389.19,962,389.19s8.32-8.07,10.64-7.83,10,10.4,10,10.4,7.46-10.52,10.52-10.64C994.82,381.05,997.19,382.35,999,383.57Z" style="fill:#fff5ff"/><path d="M1008.42,314.45c-.82-.11-1.64-.2-2.47-.23a20.94,20.94,0,0,0-10.68-2,32.2,32.2,0,0,0-10.47,2.51,24.59,24.59,0,0,0-6.4-1c-13-.27-23.3,7.3-30.12,17.69a46.9,46.9,0,0,0,15.85,4.91C983.17,338.69,1000.73,329.4,1008.42,314.45Z" style="fill:#f9e6c6;opacity:0.30000000000000004"/><polygon points="1101.23 368.25 1222.54 366.38 1203.07 406.44 1117.7 395.96 1101.23 368.25" style="fill:#db9092"/><path d="M1149.74,313.72c-22.45-.47-36.9,22.52-39.16,43-2.93,26.57,16.74,56.51,38.17,55.89,21.14-.6,38.32-30.78,35.48-56.46C1182.23,338,1169.48,314.14,1149.74,313.72Z" style="fill:url(#b13db8ff-8702-4c27-ba0b-3b09916bf6d5)"/><path d="M1156.63,319.76c-2.3,1.14-26.72,6.53-30.63,40.51-2.82,24.45,14.88,52.11,33.49,51.82,16.57-.26,31.45-22.64,32.1-42.95C1192.23,348.67,1178.47,328.84,1156.63,319.76Z" style="fill:#b36016;opacity:0.30000000000000004"/><path d="M1166.61,312.21c-22.58,1.56-36.34,25.35-37.51,49.27-1.25,25.72,15.66,55.45,34.81,55.43s35.58-30.25,34.8-55.78C1198.05,339.57,1188.19,310.73,1166.61,312.21Z" style="fill:url(#b86b2912-ea19-4e69-9e40-b76a8dc3728c)"/><path d="M1164.49,319c-28.67,10.16-24.77,51.55-30.23,52.64-2,.39-4.22-4.24-5.22-6.55.22,14.9,6.15,30.6,14.81,40.77l33.86,5.88a44.53,44.53,0,0,0,9.65-10.75C1188,373.61,1187,311,1164.49,319Z" style="fill:#f65a4a;opacity:0.5"/><path d="M1173.83,314.35c-19.7,2.21-30.86,28.75-31.71,48-1,23.5,12.6,51.61,31.18,53.64,20.88,2.28,44.47-28.81,41.39-57.59C1212.33,336.33,1193.93,312.09,1173.83,314.35Z" style="fill:url(#ab1b696a-d06e-49e3-8d22-b98833543e97)"/><path d="M1173.83,314.35c-19.7,2.21-30.86,28.75-31.71,48-1,23.5,12.6,51.61,31.18,53.64,20.88,2.28,44.47-28.81,41.39-57.59C1212.33,336.33,1193.93,312.09,1173.83,314.35Z" style="fill:url(#a0b606f5-332b-4a18-8a74-e1012376f485)"/><path d="M1214.63,358.39c-1.46-13.66-9.07-28.15-19.43-36.68-18.18-.33-34.86,14.11-35.23,41.68-.25,19.51,7.62,37.36,25,50.64C1202,406.8,1217.14,381.83,1214.63,358.39Z" style="fill:#d69a58;opacity:0.2"/><path d="M1203.57,371.38c-2.82.56-7.53,9.41-7.53,9.41s-6.58-6.21-9.78-5.46-10.92,8.09-10.92,8.09-7.34-8.28-10.92-7.34-10.91,8.28-10.91,8.28-7.15-8.84-10.35-8.66-11.49,6.22-11.49,6.22-6.39-9.41-9.41-9.23c-1.86.12-6.48,2.84-9.72,4.9,3.28,11.47,9.9,21.88,18.08,28.31l65.8.42a62,62,0,0,0,16.46-27.92C1211.38,374.69,1206.19,370.85,1203.57,371.38Z" style="fill:#e25947;opacity:0.30000000000000004"/><path d="M1205,363a2.6,2.6,0,0,0-1.78.74A2.51,2.51,0,0,0,1205,368a2.51,2.51,0,0,0,0-5Z" style="fill:#eaa25d"/><path d="M1210,357.24a1.21,1.21,0,0,0-1-.88,1.23,1.23,0,0,0-1.4,1.21,1.27,1.27,0,0,0,1.24,1.24A1.25,1.25,0,0,0,1210,357.24Z" style="fill:#eaa25d"/><path d="M1203.9,351.48a1.35,1.35,0,0,0-1.34,1.34,1.34,1.34,0,1,0,1.34-1.34Z" style="fill:#eaa25d"/><path d="M1190.18,368.16a1.05,1.05,0,1,0,1,1A1.06,1.06,0,0,0,1190.18,368.16Z" style="fill:#eaa25d"/><path d="M1185,366.34a1.26,1.26,0,1,0,1.26,1.26A1.27,1.27,0,0,0,1185,366.34Z" style="fill:#eaa25d"/><path d="M1189.83,361.23a1.81,1.81,0,0,0-1.25.52,1.76,1.76,0,0,0,1.25,3,1.81,1.81,0,0,0,1.24-.52,1.77,1.77,0,0,0,.52-1.24A1.8,1.8,0,0,0,1189.83,361.23Z" style="fill:#eaa25d"/><path d="M1188.5,326.51a1.21,1.21,0,1,0,1.69.27A1.24,1.24,0,0,0,1188.5,326.51Z" style="fill:#eaa25d"/><path d="M1186.36,330.31a2.09,2.09,0,0,0-1.21-.1c-2.55.6-1.68,4.83.95,4.21a1.84,1.84,0,0,0,1.23-.89A2.33,2.33,0,0,0,1186.36,330.31Z" style="fill:#eaa25d"/><path d="M1191,332a.93.93,0,1,0,1.3.21A.93.93,0,0,0,1191,332Z" style="fill:#eaa25d"/><path d="M1222.54,366.38c-1.12-1.4-11.76,15.32-11.76,15.32s-4.12-7.65-7.06-6.77-8.25,11.19-8.25,11.19-6.18-7.36-9.71-7.07-10.6,10-10.6,10-6.74-9.1-10.6-8.83c-4.13.3-10.9,9.42-10.9,9.42s-6.77-9.71-9.71-9.71c-4.43,0-10.9,7.65-10.9,7.65s-7.36-11.48-10.3-11.48c-3.88,0-8.54,5.89-8.54,5.89s-11.89-15.22-13.36-13.75,20.36,49.53,20.36,49.53l78.47.24S1224,368.25,1222.54,366.38Z" style="fill:#ffe8a4"/><path d="M1170.33,383.57c-1.95-1.86-4.12-3.46-5.77-3.34-4.13.3-10.9,9.42-10.9,9.42s-6.77-9.71-9.71-9.71c-4.43,0-10.9,7.65-10.9,7.65s-7.36-11.48-10.3-11.48c-3.88,0-8.54,5.89-8.54,5.89s7.1-4.92,8.56-4.67,10.52,11.86,10.52,11.86,8.32-8.07,10.64-7.83,10,10.4,10,10.4,7.46-10.52,10.51-10.64C1166.11,381.05,1168.48,382.35,1170.33,383.57Z" style="fill:#fff5ff"/><path d="M1179.7,314.45c-.81-.11-1.63-.2-2.46-.23a20.94,20.94,0,0,0-10.68-2,32.33,32.33,0,0,0-10.48,2.51,24.52,24.52,0,0,0-6.4-1c-13-.27-23.29,7.3-30.11,17.69a46.77,46.77,0,0,0,15.84,4.91C1154.46,338.69,1172,329.4,1179.7,314.45Z" style="fill:#f9e6c6;opacity:0.30000000000000004"/><path d="M825.22,772.7H524.92c-12.29,0-21.91-9.2-20.74-19.83l25.7-234c1-9.29,10-16.39,20.74-16.39h247.8c10.72,0,19.68,7.06,20.74,16.32l26.8,234C847.18,763.45,837.55,772.7,825.22,772.7Z" style="fill:#633a20;opacity:0.8"/><path d="M521.18,681.85v68.89a13.08,13.08,0,0,0,13.08,13.08H834a13.08,13.08,0,0,0,13.08-13.08V681.85Z" style="fill:#de8ae3"/><g style="clip-path:url(#a606267c-1ed9-4bac-a59f-64b6978e94de)"><rect x="546.77" y="497.64" width="19.99" height="430.54" transform="translate(-341.03 602.5) rotate(-45)" style="fill:#ffe2be"/><rect x="607.98" y="492.22" width="19.99" height="430.54" transform="translate(-319.27 644.19) rotate(-45)" style="fill:#ffe2be"/><rect x="718.61" y="484.4" width="19.99" height="430.54" transform="translate(-281.34 720.13) rotate(-45)" style="fill:#ffe2be"/><rect x="757.27" y="466.57" width="19.99" height="430.54" transform="translate(-257.41 742.24) rotate(-45)" style="fill:#ffe2be"/></g><path d="M521.18,681.85H847.09a0,0,0,0,1,0,0v16.65a1.18,1.18,0,0,1-1.18,1.18H522.36a1.18,1.18,0,0,1-1.18-1.18V681.85A0,0,0,0,1,521.18,681.85Z" style="fill:#7b3985;opacity:0.8"/><path d="M551.78,493.73h261A17.27,17.27,0,0,1,830,508.91L849.72,670.3a17.28,17.28,0,0,1-17.15,19.38H535.31a17.27,17.27,0,0,1-17.18-19l16.47-161.4A17.27,17.27,0,0,1,551.78,493.73Z" style="fill:#f498fb"/><path d="M571.08,507.73H794a15.24,15.24,0,0,1,15.13,13.39L826,658.59a15.24,15.24,0,0,1-15.12,17.09H557.05a15.23,15.23,0,0,1-15.16-16.78l14-137.48A15.23,15.23,0,0,1,571.08,507.73Z" style="fill:#a64796"/><g style="clip-path:url(#e85a13d8-944f-4e45-b9c9-928d074feb44)"><polygon points="557.32 507.73 807.53 507.73 814.75 566.71 551.3 566.71 557.32 507.73" style="fill:#c85ab9"/></g><path d="M1290.54,577.58a17.79,17.79,0,0,0-15.6-17.67l-266.6-33a17.77,17.77,0,0,0-19.52,13.67L951.56,703.29a17.8,17.8,0,0,0-.4,5.21l-3.42,27.56a3.06,3.06,0,0,0,2.66,3.42l332.5,41.22a3,3,0,0,0,3.41-2.66l1.53-12.28h0l1.9-15.32-.32,0a18,18,0,0,0,.86-5.47Z" style="fill:#633a20;opacity:0.8"/><path d="M957.79,720.31H1299a0,0,0,0,1,0,0v27.41a3.47,3.47,0,0,1-3.47,3.47H961.25a3.47,3.47,0,0,1-3.47-3.47V720.31a0,0,0,0,1,0,0Z" transform="translate(99.1 -133.24) rotate(7.07)" style="fill:#de8ae3"/><path d="M1018.16,517.83l266.6,33.06a17.78,17.78,0,0,1,15.6,17.67l-.26,167.35a17.77,17.77,0,0,1-20,17.61l-303.6-37.64a17.77,17.77,0,0,1-15.15-21.61l37.26-162.76A17.78,17.78,0,0,1,1018.16,517.83Z" style="fill:#f498fb"/><path d="M956.84,735.69H1298a0,0,0,0,1,0,0v12a3.47,3.47,0,0,1-3.47,3.47H960.3a3.47,3.47,0,0,1-3.47-3.47v-12a0,0,0,0,1,0,0Z" transform="translate(100.04 -133.07) rotate(7.07)" style="fill:#d361e3;opacity:0.72"/><ellipse cx="1143.19" cy="588.96" rx="17.14" ry="19.44" transform="translate(418.05 1651) rotate(-82.93)" style="fill:#fa50c4"/><ellipse cx="1179.49" cy="605.18" rx="17.14" ry="19.44" transform="translate(433.78 1701.25) rotate(-82.93)" style="fill:#fa50c4"/><ellipse cx="1192.77" cy="639.09" rx="17.14" ry="19.44" transform="translate(411.77 1744.17) rotate(-82.93)" style="fill:#fa50c4"/><ellipse cx="1175.14" cy="670.55" rx="17.14" ry="19.44" transform="translate(365.09 1754.26) rotate(-82.93)" style="fill:#fa50c4"/><ellipse cx="1137.07" cy="680.88" rx="17.14" ry="19.44" transform="translate(321.46 1725.53) rotate(-82.93)" style="fill:#fa50c4"/><ellipse cx="1101.17" cy="663.94" rx="17.14" ry="19.44" transform="translate(306.78 1675.05) rotate(-82.93)" style="fill:#fa50c4"/><ellipse cx="1088.75" cy="629.8" rx="17.14" ry="19.44" transform="translate(329.78 1632.79) rotate(-82.93)" style="fill:#fa50c4"/><ellipse cx="1107.2" cy="598.72" rx="17.14" ry="19.44" transform="translate(376.8 1623.84) rotate(-82.93)" style="fill:#fa50c4"/><ellipse cx="1140.69" cy="634.99" rx="52.88" ry="59.98" transform="translate(370.18 1688.88) rotate(-82.93)" style="fill:#fa50c4"/><ellipse cx="1140.69" cy="634.99" rx="43.38" ry="49.2" transform="translate(370.18 1688.88) rotate(-82.93)" style="fill:none;stroke:#fff;stroke-miterlimit:10;stroke-width:0.5px"/><path d="M1131.34,615.06l-3.92,31.66-8.32-1,3.2-25.78-7.18-.89.73-5.88Z" style="fill:#fff"/><path d="M1141.29,647a13.77,13.77,0,0,1-4.77-6.31,20.8,20.8,0,0,1,2.18-17.6,13.81,13.81,0,0,1,6.17-5,17.35,17.35,0,0,1,15.9,2,13.86,13.86,0,0,1,4.77,6.31,20.76,20.76,0,0,1-2.19,17.6,13.78,13.78,0,0,1-6.16,5,17.35,17.35,0,0,1-15.9-2Zm13.94-5.12c1.46-1.5,2.4-4,2.83-7.45s.12-6.11-.92-7.93a6.16,6.16,0,0,0-4.85-3.12,6.09,6.09,0,0,0-5.41,1.85q-2.19,2.25-2.83,7.46t.92,7.92a6.05,6.05,0,0,0,4.8,3.12A6.12,6.12,0,0,0,1155.23,641.9Z" style="fill:#fff"/><path d="M1203.47,414.17c-1.44-22.51,4.08-49.82,8.25-70.62l-17.94.9L1205,317c-27.42-1.2-57.06-2.67-90.16-2.88-3.06,9.91-7.44,25-9.89,34.84-12.77.56-29.75,3.86-25.4-14.45-8.68-.6-43.15,26.05-33.58.73-28.65,11.6-70.88,14.15-98.64,11.76-15.89-2.2-24.39-10.36-27.87,11.56-16.41-12.29-40.22-14.93-58.93-6-23-106.74-174-53.26-151.88,54.63-.29,76.41,72.84,127.24,130.3,79.12,25.59,25.38,65.47,24.62,89.9,2.49,8.16,12.92,35.72,6,31.14,22.59l34.23-7.41c5.56,6.85,52.26,1.08,62,3.56l31.22,2.17c-2.92-9.83,3.79-5.47,10.35-4.87,56,13.05-6.43-16.8,59.29.54,24.49,0,54.94-17,60.2-65.08C1220.1,423.81,1220.9,419.79,1203.47,414.17Z" style="fill:#633a20"/><path d="M1198.19,408.89c-1.44-22.51,4.08-49.82,8.25-70.62l-17.94.9,11.21-27.41c-27.42-1.2-57.06-2.67-90.16-2.88-3.06,9.91-7.44,25-9.89,34.84-12.77.56-29.75,3.86-25.4-14.45-8.68-.6-43.15,26.05-33.58.73C1012,341.6,969.8,344.15,942,341.76c-15.89-2.2-24.39-10.36-27.87,11.55C897.76,341,874,338.39,855.24,347.36c-23-106.74-174-53.26-151.88,54.63-.29,76.41,72.84,127.24,130.3,79.12,25.59,25.38,65.47,24.62,89.9,2.49,8.16,12.92,35.72,5.95,31.14,22.59l34.23-7.41c5.56,6.85,52.26,1.08,62,3.56l31.22,2.17c-2.92-9.83,3.79-5.47,10.35-4.87,56,13.05-6.43-16.81,59.29.54,24.49,0,54.94-17.05,60.2-65.08C1214.82,418.53,1215.62,414.51,1198.19,408.89Z" style="fill:#fa50c4"/><path d="M835.83,419.18q.93,27.72-21.19,45.43-11,8.61-26.8,8.62-12.35,0-21.43-4.89-30.52-16.3-34.48-68.26-.46-5.59-.46-10.72,0-25.62,9.55-44,8.15-16.08,21.43-23.53a52.63,52.63,0,0,1,25.86-7,49.23,49.23,0,0,1,21.9,5.13q13.27,6.53,18.4,21.2Q833,353.25,833,374.68q-6,.24-11.84.7a158.59,158.59,0,0,0-25.31,4q-1.39-25.62-12.54-25.16-6.74.24-12.53,10.95-7,13-6.74,32.85a98.63,98.63,0,0,0,3.49,25.39q5.1,17.72,15.79,17.71,5.57,0,9.52-5.48c2.63-3.64,4-8.27,4-13.86A222.31,222.31,0,0,1,835.83,419.18Z" style="fill:#fbfcfa"/><path d="M924.36,420.81q1.17,21.9-8.39,36.34-10.25,15.15-29.35,16.54a38,38,0,0,1-23.76-6.05q-13.75-8.85-17.71-28a70.48,70.48,0,0,1-1.63-15.14q0-22.37,10.72-38.67,11.41-17.25,29.12-17.48,16.08-.22,27.72,14Q923,397.28,924.36,420.81Zm-27,5.24q-.95-10.77-5-17.32t-9.44-6.09q-6.28.47-10.13,8a37.45,37.45,0,0,0-3.84,17.32,48.38,48.38,0,0,0,.46,6.79q3,18,14.68,16.85,6.75-.69,10.36-8.19A33.82,33.82,0,0,0,897.34,426.05Z" style="fill:#fbfcfa"/><path d="M1016.61,470.43a135.59,135.59,0,0,0-28.89,2.8q.46-7.14.47-11a36.41,36.41,0,0,1-23.3,8.15,38.36,38.36,0,0,1-5.82-.46q-13.27-1.64-20.27-14.33t-7-33.2q0-24.46,9.79-54.75l33.31,6.06q-8.62,24.47-8.62,46.13,0,21.44,8.39,22.83,7.68,1.4,13.51-6.06-.93-33.31-5.36-67.79,19.8.47,32.15-3a466.4,466.4,0,0,0-2.33,46.7A394.55,394.55,0,0,0,1016.61,470.43Z" style="fill:#fbfcfa"/><path d="M1102.81,473.69q-15.37-2.79-34.71-5.35a130.22,130.22,0,0,0,7.22-42.64q0-26.32-8.62-28.88a9.57,9.57,0,0,0-3-.47c-3.58,0-6.91,2.1-10,6.29q1.39,41.92,4.66,73.38-17.94-1.17-32.61-.7,1.62-22.36,1.63-46.82,0-30.28-2.57-56.38a92.69,92.69,0,0,0,9.79-.93,83.71,83.71,0,0,0,18.87-4.19v10.25a33.4,33.4,0,0,1,22.36-8.62q33.78,0,33.78,52.88Q1109.56,444.12,1102.81,473.69Z" style="fill:#fbfcfa"/><path d="M1191.33,432.23q-2.32,20.49-11.88,31.45-9.09,10-22.13,10a39.89,39.89,0,0,1-6.06-.46q-28.89-5.33-28.89-58.84a230.05,230.05,0,0,1,1.4-24.56h-8.62q.46-9.79,1.86-20.27l9.79-.47a328.26,328.26,0,0,1,7.92-33.54q14.67.22,31.92.93a215.43,215.43,0,0,0-9.79,31l23.06-1.16a151.36,151.36,0,0,0-2.56,25.62q-10.24-1.32-25.16-2.09a193.9,193.9,0,0,0-3,32.33q0,19.17,4.66,21,3.72,1.4,5.83-5.36t1.86-17.48Q1176,425.25,1191.33,432.23Z" style="fill:#fbfcfa"/></g></g></svg>