<svg id="Layer_22" data-name="Layer 22" xmlns="http://www.w3.org/2000/svg" viewBox="0 0 350 270"><defs><style>.cls-1{fill:#fbf9f4;}.cls-2{fill:#db8332;}.cls-3{fill:#f4af65;}.cls-4{fill:#f9e5d0;}.cls-5{fill:#dc7821;}.cls-6{fill:#f9d2c9;}.cls-7{fill:#c08170;}.cls-8{fill:#b2674a;}.cls-9{fill:#9e522b;}.cls-10{fill:#e6f0df;}.cls-11{fill:#964420;}.cls-12{fill:#fbfdfe;}</style></defs><rect class="cls-1" width="350" height="270"/><path class="cls-2" d="M198.24,197c10.84,13.69,19.5,13.84,21.55,21.8s-11.13,14.57-9.43,19.59c.48,1.43,13.23,1.79,16.14.63,2.48-1,2.74-3.14,5.38-7,5.23-7.71,9-12.85,9.79-17.85.6-3.88-2-6.81-5.95-18.84C233.67,195.33,200.94,196.92,198.24,197Z"/><path class="cls-2" d="M133.61,196c.09,7,1.09,15.8-.09,25.61-1.26,10.44-7.61,12.1-6.33,16.79.4,1.45,11.63,1.59,14.39.76,2.6-.78,4.91-5.65,6.08-10.32,1.7-6.82,2.42-20,2.47-34.85C148,194,136.37,195.91,133.61,196Z"/><path class="cls-3" d="M148.71,131c-4.68,0-38,2.72-41.72,2.47.18,13.06-2.29,26-.45,36.46,1.48,8.37,9.21,20.86,24.34,28.69,24.62,12.73,98.17,15.37,112-4.84,11.12-16.27,6-46.75-16.78-51.82-19.66-4.38-40.28,3.79-62,1.63C153.08,142.45,149.05,138.37,148.71,131Z"/><path class="cls-4" d="M130.88,198.91c-15.71-6.32-23.31-19.46-24.34-27.58-1.47-11.65,2.8-19.19,2.63-31.75,1.71.11,7.78-.35,14.31-.87-1.88,26.6,4.53,38.75,8.75,47.93,8.81,19.18,40.69,19.51,51.63,21.81C155.63,207.78,140.78,202.89,130.88,198.91Z"/><path class="cls-3" d="M149.7,196.54C138,212.65,124.42,242,114.55,243.42a141.33,141.33,0,0,1-15.27.44,2.8,2.8,0,0,1-2.46-2.67c.13-2.8,3.63-6.77,7.17-9.8,25.9-22.21,16.77-62.42,29.41-75.07C138.64,151.09,157.83,185.39,149.7,196.54Z"/><path class="cls-3" d="M195.77,173c0,13.8,9.67,28.24,22.94,32,23.88,6.85,30.25,11.57,33.83,14.61,2.58,2.18,7.6,8.45,6.94,13.55s-3.36,8-2.36,10c.86,1.79,14.88,1.41,15.69.36,6.14-7.92-.46-22.48.51-28.76.59-3.87-17.77-13.58-21.14-24.42-1.66-5.35.58-37.13-25-42.19C206.39,144.12,195.77,159.2,195.77,173Z"/><path class="cls-3" d="M246.5,158.42c23.81,0,39.83-10.24,47.57-21.61,8.65-12.72,8.53-28.12-.32-41.21C286.56,85,274.84,80.88,264.52,77.27c-13.07-4.56-18.88-7.36-19.66-15a7,7,0,0,0-7.58-6.17,6.89,6.89,0,0,0-6.17,7.58C232.86,80.86,247.89,86.1,260,90.32c9.11,3.18,17.72,6.19,22.34,13,5.64,8.34,5.76,17.7.33,25.68-7,10.22-25.33,19.86-54.24,13.45a6.91,6.91,0,0,0-3,13.5A97.24,97.24,0,0,0,246.5,158.42Z"/><path class="cls-5" d="M208.92,140.76c-2,.09-4,.2-6,.38,1.65,10.86,3.66,29.63,7.19,29.14C213.08,169.88,209.9,150.21,208.92,140.76Zm16.71,1.09a53.68,53.68,0,0,0-5.76-.85c1.35,9.36,3.42,19.88,5.61,19.67C227.82,160.45,226.54,148.33,225.63,141.85Zm-54.4,2c-.59,14.17-1,28.64,1.76,29s4.41-16.43,5.45-29.18C176.05,143.81,173.65,143.89,171.23,143.87Zm-18.53,17c2.63,1,5.86-8.83,9.84-17.51a25.76,25.76,0,0,1-6.82-1.75C152.63,151.43,150.06,159.85,152.7,160.83ZM194.77,142c-2.34.28-4.7.57-7.08.83,1.49,12,1.67,30.19,5,30C196.26,172.62,194.54,153.28,194.77,142Z"/><path class="cls-5" d="M244,83.3a67.11,67.11,0,0,0,12.52,5.78l5.87-12.59c-6.14-2.2-10.49-4.09-13.31-6.43Zm38.12,19.81,10.17-9.42a38,38,0,0,0-11.13-9.4l-8.81,10.95A25.49,25.49,0,0,1,282.08,103.11ZM272,138.33a45.48,45.48,0,0,1-11.09,4.35l5.58,12.93a56.92,56.92,0,0,0,13.24-5.68Zm14.59-21.45a21.89,21.89,0,0,1-3.73,11.78L296,133.54a35.24,35.24,0,0,0,4.28-13.91Z"/><path class="cls-5" d="M124.17,56.36c-2.09.67-6.35-6.69-10.14-14.45a46.65,46.65,0,0,1,8.53-1C125.47,48.81,126.11,55.74,124.17,56.36Z"/><path class="cls-5" d="M102.08,66.77c-1.89,1.37-8.18-5-14-14.22l-.11-.19a62.18,62.18,0,0,1,7.27-4.24C100.85,57.13,103.93,65.43,102.08,66.77Z"/><path class="cls-5" d="M100.39,45.79c1.36-.54,6.28-2.21,8-2.58.06.14.13.25.2.38,5.7,11.84,8.14,22.52,6.05,23.53s-7.92-8-13.62-19.88C100.78,46.74,100.6,46.27,100.39,45.79Z"/><path class="cls-5" d="M166.18,126.81a55.89,55.89,0,0,1-4.54,3.59c-3.13-5.13-4.68-9.12-3.54-9.77S162.41,122.61,166.18,126.81Z"/><path class="cls-5" d="M170.84,122.19c-5.73-4.2-9.29-8-8.51-9.26s6.06.34,12.67,3.82A42.1,42.1,0,0,1,170.84,122.19Z"/><path class="cls-3" d="M79.49,63.57c2.84,14.16,39.78,4.56,37.3-6.68C113.39,41.47,94,16.14,88,17.75,81.24,19.57,76.65,49.4,79.49,63.57Z"/><path class="cls-6" d="M87.56,60.09c2.24,11.19,26.51,2.89,24.56-6-2.69-12.19-18-32.18-22.71-30.92C84,24.63,85.31,48.91,87.56,60.09Z"/><path class="cls-3" d="M181.77,79c-6.89,12.69-39.36-7.36-33.68-17.37,7.8-13.74,33.8-32.22,39-28.93C193.06,36.42,188.66,66.28,181.77,79Z"/><path class="cls-6" d="M175.08,73.28c-5.44,10-26.19-5-21.7-13,6.15-10.85,26.69-25.44,30.81-22.85C188.89,40.43,180.52,63.26,175.08,73.28Z"/><path class="cls-3" d="M184.41,102.84c1.13,32.91-36.38,41.34-67.84,37.2-25.2-3.32-56.7-23.57-47.39-54.57,8.28-27.53,32.83-51,64-46.24C168.64,44.66,183.25,69.34,184.41,102.84Z"/><path class="cls-3" d="M180.14,122.25A117.13,117.13,0,0,1,191,116.62s-7.49-6.69-6.83-15.37C181.91,99.07,177.48,123.87,180.14,122.25Z"/><path class="cls-3" d="M181.26,104.55c4.2,2.47,9.52,1.27,9.52,1.27s-6.36-5.87-7.44-13.7C181,90.61,178.83,103.12,181.26,104.55Z"/><path class="cls-3" d="M68.16,103.58c-3.87-3.45-7.64-6.37-7.64-6.37s6.27-4.76,7.11-12.63C70,83,70.27,105.46,68.16,103.58Z"/><path class="cls-3" d="M71.21,88c-4.74,1.12-9.47-1.59-9.47-1.59s7.8-3.73,11.15-10.9C75.62,74.73,74,87.31,71.21,88Z"/><path class="cls-4" d="M134.82,116.77c-6.09-8.65-8.91-13.54-14.87-14.44-5.75-.86-10,3-18.44,9.57-9.23,7.15-27.84-1-34.23-9.29C70,121.2,94.6,137.86,116.44,140.87c24.63,3.4,52.58-2,64.25-19.3C169.62,125.67,141.56,126.37,134.82,116.77Z"/><path class="cls-7" d="M122.06,120h-.21a6.51,6.51,0,0,1-3.87-2.56,8.36,8.36,0,0,1-1.39-6.85.8.8,0,0,1,1.57.29,6.8,6.8,0,0,0,1.09,5.59,5.09,5.09,0,0,0,2.74,1.94h.1a7.77,7.77,0,0,0,4.25-2.19.8.8,0,0,1,1.11-.19.81.81,0,0,1,.19,1.12A9.11,9.11,0,0,1,122.06,120Z"/><path class="cls-7" d="M110.91,118.34a3.33,3.33,0,0,1-.67-.06,7.09,7.09,0,0,1-4.64-4.66.8.8,0,0,1,1.52-.51,5.54,5.54,0,0,0,3.45,3.61,4.62,4.62,0,0,0,3-.88,7.63,7.63,0,0,0,3-5.22.8.8,0,0,1,1.57.28,9.07,9.07,0,0,1-3.68,6.27A6.65,6.65,0,0,1,110.91,118.34Z"/><path class="cls-8" d="M125,108.1c-.47,3.16-7.48,3.25-7.48,3.25s-6.66-2.15-6.19-5.31S125.48,104.94,125,108.1Z"/><path class="cls-9" d="M162.65,100.21a14.53,14.53,0,1,1-12.19-16.55A14.54,14.54,0,0,1,162.65,100.21Z"/><path class="cls-10" d="M161.53,101A14.73,14.73,0,1,1,149.1,84.66,14.48,14.48,0,0,1,161.53,101Z"/><path class="cls-11" d="M157.78,100.39a9.39,9.39,0,1,1-7.89-10.68A9.39,9.39,0,0,1,157.78,100.39Z"/><path class="cls-12" d="M145.84,93.78a2.26,2.26,0,1,1-1.9-2.57A2.26,2.26,0,0,1,145.84,93.78Z"/><path class="cls-9" d="M79.92,87.74A14.53,14.53,0,1,0,96.45,75.52,14.53,14.53,0,0,0,79.92,87.74Z"/><path class="cls-10" d="M80.78,88.78a14.72,14.72,0,1,0,16.67-11.9A14.49,14.49,0,0,0,80.78,88.78Z"/><path class="cls-11" d="M88.23,89.91A9.38,9.38,0,1,0,98.91,82,9.38,9.38,0,0,0,88.23,89.91Z"/><path class="cls-12" d="M90.42,85.42A2.26,2.26,0,1,0,93,83.53,2.25,2.25,0,0,0,90.42,85.42Z"/><path class="cls-7" d="M84.15,104.27a.38.38,0,0,1-.25-.09c-9-6.77-21.51-11.65-33.4-13.06a.42.42,0,0,1-.37-.47.44.44,0,0,1,.42-.38h.05c12,1.42,24.68,6.36,33.81,13.22a.43.43,0,0,1,.08.59A.41.41,0,0,1,84.15,104.27Z"/><path class="cls-7" d="M82.28,107.26a.41.41,0,0,1-.16,0,68.4,68.4,0,0,0-34.68-4.4.44.44,0,0,1-.48-.36.42.42,0,0,1,.37-.48,69.11,69.11,0,0,1,35.12,4.45.43.43,0,0,1-.17.82Z"/><path class="cls-7" d="M49.8,113.59a.44.44,0,0,1-.4-.29.42.42,0,0,1,.27-.54c10.24-3.39,23.87-3.52,32.21-2.22a.42.42,0,0,1,.35.49.39.39,0,0,1-.48.35c-8.26-1.3-21.72-1.16-31.81,2.19Z"/><path class="cls-7" d="M152.69,114.8a.43.43,0,0,1-.41-.3.41.41,0,0,1,.28-.53c11-3.43,29.56-5.79,46.12-3.37a.42.42,0,1,1-.12.84c-16.45-2.4-34.82-.06-45.75,3.34Z"/><path class="cls-7" d="M198.34,124.41a.4.4,0,0,1-.15,0,109.16,109.16,0,0,0-44-6.14.51.51,0,0,1-.46-.4.44.44,0,0,1,.4-.46,110.75,110.75,0,0,1,44.4,6.2.43.43,0,0,1-.15.83Z"/><path class="cls-7" d="M191.9,134.74a.54.54,0,0,1-.22-.05,100.29,100.29,0,0,0-38.21-12.35.43.43,0,0,1-.39-.46.42.42,0,0,1,.46-.39c10.24.92,26.15,5.13,38.57,12.46a.42.42,0,0,1-.21.79Z"/><path class="cls-5" d="M115.77,54.74c2.18.3,5.12-7.67,7.54-16A50,50,0,0,0,114.57,40C113.05,48.28,113.76,54.46,115.77,54.74Z"/><path class="cls-5" d="M139.34,61.08c2.09,1,7.2-6.31,11.41-16.39l.08-.21a63.83,63.83,0,0,0-7.89-2.95C138.91,51.38,137.29,60.07,139.34,61.08Z"/><path class="cls-5" d="M137.37,40.22c-1.42-.3-2.68-.76-4.18-1s-2.75-.09-4.14-.19l-.14.41c-3.6,12.63-4.19,23.57-2,24.21s6.44-9.27,10-21.9C137.15,41.22,137.25,40.73,137.37,40.22Z"/></svg>