<svg id="Layer_9" data-name="Layer 9" xmlns="http://www.w3.org/2000/svg" viewBox="0 0 350 270"><defs><style>.cls-1{fill:#f4c6ac;}.cls-2{fill:#a02b33;}.cls-3{fill:#fff;}.cls-4{fill:#caccd3;}.cls-5{fill:#dd4445;}.cls-6{fill:#e96558;}.cls-7{fill:#d03841;}.cls-8{fill:#bc2a3a;}</style></defs><rect class="cls-1" width="350" height="270"/><path class="cls-2" d="M256.31,138.66c-28.92-24.75-136.59-21.06-158.4,3.69C142.41,175,231,165,256.31,138.66Z"/><path class="cls-3" d="M262.63,123.37a1.46,1.46,0,0,1-.26.17,91.92,91.92,0,0,1-10.52,5c-.3.13-.63.23-.93.37h-.07c-.93.36-1.86.73-2.86,1.06q-3.6,1.31-7.49,2.57c-.6.2-1.2.36-1.8.56-1,.33-2,.63-2.93.93-4.93,1.47-10,2.8-15.05,4-21.44,5-41.81,6.85-44.61,2.09-2.1,4.7-23.3,2.73-45.34-2.36-4.76-1.07-9.52-2.3-14.18-3.66l-4.36-1.3-.47-.17c-2.53-.8-5-1.66-7.42-2.49-.94-.37-1.84-.7-2.77-1.07a2.23,2.23,0,0,0-.3-.13,4.49,4.49,0,0,1-.56-.24,88.73,88.73,0,0,1-10.86-5.09,2.59,2.59,0,0,1-.3-.17s.44-.26,1.14-.76c0,0,.06,0,.1-.07.73-.5,1.83-1.3,3.13-2.16,0,0,0,0,0,0,2.83-1.93,6.69-4.46,10.69-7,0-.07.16-.1.23-.14,6.56-4.16,13.48-8.15,16.58-8.85a3.22,3.22,0,0,1,.86-.1c3.76-.24,13.55,1.73,23.84,4.16,6.89,1.66,14,3.49,19.74,5,2.76.7,5.16,1.36,7.09,1.89,1.27.34,2.33.64,3.13.87.73-.2,1.6-.43,2.73-.77a.09.09,0,0,0,.1-.06c2-.5,4.46-1.17,7.26-1.93,5.76-1.5,12.92-3.37,19.84-5,10.79-2.56,21-4.59,24.34-4.16a.66.66,0,0,1,.36.07c2.83.6,8.92,4.06,15,7.85,4.46,2.77,8.92,5.73,12.12,7.89,1.53,1,2.76,1.9,3.59,2.47S262.63,123.37,262.63,123.37Z"/><path class="cls-4" d="M240.5,132.5c-.6.2-1.2.36-1.8.56-1,.33-2,.63-2.93.93-4.93,1.47-10,2.8-15.05,4-9.22-4.43-19.14-8.16-22.84-6.6-9.22,3.83-12.15,6.1-21.37,6.1s-12.45-2-21.64-5.83c-3.93-1.6-14.61,1.9-24.1,6.06-4.76-1.07-9.52-2.3-14.18-3.66l-4.36-1.3-.47-.17C114,131,117,129,119.88,127a.45.45,0,0,0,.17-.1c5.79-3.93,11.75-7.85,13.75-9a1.74,1.74,0,0,1,.66-.34c.27,0,6.33.8,14.72,1.94l18.91,2.59c1.73.23,3.49.47,5.22.73,1,.1,2,.27,2.9.4.8-.1,1.57-.2,2.36-.33a.12.12,0,0,0,.1,0c1.8-.2,3.6-.47,5.4-.73,6.62-.94,13.35-1.84,19-2.6,8.53-1.17,14.72-2,15-2a4.09,4.09,0,0,1,.77.37c1.9,1.1,6.93,4.43,12.15,7.92,3.4,2.27,6.83,4.63,9.52,6.56Z"/><path class="cls-5" d="M62.51,130.24c2.08,2.15,6.11,7.36,11.05,14,10.86,14.53,26.08,35.77,34.33,45.54,10.81,12.8,37.11,25.12,68.21,24.39,31.07.73,57.39-11.59,68.2-24.39,7.83-9.26,21.89-28.83,32.57-43.21a.64.64,0,0,0,.14-.15c5.65-7.62,10.35-13.78,12.68-16.15,0,0-8.15.88-19,2.9-5.92,1.14-12.68,2.6-19.33,4.46a154.4,154.4,0,0,1-51.33,17.51,214.12,214.12,0,0,1-24,1.67,214.18,214.18,0,0,1-24-1.67,154.82,154.82,0,0,1-51.34-17.51c-7.66-2.15-15.46-3.76-22-4.93C69.31,131,62.51,130.24,62.51,130.24Z"/><path class="cls-6" d="M87.2,146.29c2-3.66,12,9.23,32.46,15,8.44,2.4,34.76,9,57,9s48.07-6.57,56.5-9c20.48-5.78,30.49-18.67,32.49-15,2.22,4.08-18.26,29-30.27,37.93-10.65,8-36.9,17.57-59,17.22-22.08.35-48.32-9.26-59-17.22C105.43,175.27,85,150.37,87.2,146.29Z"/><path class="cls-7" d="M70.89,132.07c12.23,7.4,27.15,10.56,35.16,11.35,6.11.6,17.72,10.11,44.42,14.56,6.25,1.4,14.57,2.28,25.76,2.28.59,0,1.15,0,1.71,0s1.15,0,1.73,0c11.19,0,19.52-.88,25.74-2.28,26.72-4.45,38.33-14,44.45-14.56,8-.79,22.9-3.95,35.15-11.35l-14.28,1.07c-5.92,1.14-12.68,2.6-19.33,4.46a154.4,154.4,0,0,1-51.33,17.51,214.12,214.12,0,0,1-24,1.67,214.18,214.18,0,0,1-24-1.67,154.82,154.82,0,0,1-51.34-17.51c-7.66-2.15-15.46-3.76-22-4.93Z"/><path class="cls-5" d="M62.51,130.35c15.37,13.07,31,14.23,45.3,11.48,0,0,0-.05.08,0,17.11-3.31,32.46-12.13,43.59-12.9,9.48-.69,11.43,5.89,24.62,5.89s15.11-6.58,24.58-5.89c16.15,1.12,41.17,19.21,67.6,12.68a51.84,51.84,0,0,0,21.41-11.26C277.22,129.62,230.5,78,209.6,76.62c-19.6-1.33-21.62,8-33.16,8.6h-.72c-11.53-.61-13.53-9.93-33.13-8.6C121.66,78,75,129.62,62.51,130.35Z"/><path class="cls-6" d="M101,111.72c11.79-7.88,32.7-29.37,44.71-32.24,11.47-2.73,22.93,10.17,30.72,11.35,7.79-1.18,19.25-14.08,30.72-11.35,12,2.87,32.93,24.36,44.72,32.24s28,15,27.58,18.27c-.72,5.25-20.46,10.75-34,5.37s-36.71-20.06-44.27-19c-7,1-13.13,7-24.72,6-11.58.92-17.67-5-24.71-6-7.57-1.08-30.7,13.61-44.27,19s-33.31-.12-34-5.37C73,126.77,89.2,119.6,101,111.72Z"/><path class="cls-3" d="M244.69,162.48c1.12,5.6-26.58,14.61-28.65,12.54S244.21,160.05,244.69,162.48Z"/><path class="cls-3" d="M209.88,192.4c.63,3.5-13.33,8.14-14.57,4.12S209.29,189.13,209.88,192.4Z"/><path class="cls-3" d="M191.29,197c.08,3.25-6.28,1.77-6.88-.78S191.18,192.32,191.29,197Z"/><path class="cls-3" d="M222.72,94.89c-.67,1.79-10.24-2.51-16.24-5s-17.36,6.45-20.25,4.3,9.57-10.39,13.13-10.75,9.56,2.15,13.57,4S223.44,92.94,222.72,94.89Z"/><path class="cls-3" d="M163.36,89.06c.85,3.06-9.36,2.12-12-.79s.06-5.56,2.3-5.56C156.3,82.71,162.7,86.68,163.36,89.06Z"/><path class="cls-7" d="M107.89,141.83c17.11-3.31,32.46-12.13,43.59-12.9,9.48-.69,11.43,5.89,24.62,5.89s15.11-6.58,24.58-5.89c16.15,1.12,41.17,19.21,67.6,12.68-12.1,1.29-32.25-2.75-45.57-9.11-15.78-7.52-23.79-8.94-27.79-6.45s-16.26,9.67-26,5-16.26-7.52-26.7-2.88C133.7,132,117.58,139,107.89,141.83Z"/><path class="cls-8" d="M73.56,144.21c10.86,14.53,26.08,35.77,34.33,45.54,10.81,12.8,37.11,25.12,68.21,24.39,31.07.73,57.39-11.59,68.2-24.39,7.83-9.26,21.89-28.83,32.57-43.21-12,14.64-30.16,39.22-43.25,48.74a32.54,32.54,0,0,1-3.33,2.11c-7,3.92-17.86,7.4-30.3,9.52a.83.83,0,0,1-.27,0A152.36,152.36,0,0,1,176.79,209h-1.17a152.62,152.62,0,0,1-22.94-2.05.72.72,0,0,0-.26,0c-12.44-2.12-23.31-5.6-30.3-9.52a33.87,33.87,0,0,1-3.34-2.11C105,185.23,85.54,158.4,73.56,144.21Z"/></svg>