<svg id="Layer_7" data-name="Layer 7" xmlns="http://www.w3.org/2000/svg" viewBox="0 0 350 270"><defs><style>.cls-1{fill:#2a2f6b;}.cls-2{fill:#222657;}.cls-3{fill:#c79568;}.cls-4{fill:#d4a27a;}.cls-5{fill:#bd8d5c;}.cls-6{fill:#966c3e;}.cls-7{fill:#9d7144;}.cls-8{fill:#a57846;}.cls-9{fill:#bf8f5d;}.cls-10{fill:#b48550;}.cls-11{fill:#ac7f4f;}.cls-12{fill:#7b5632;}.cls-13{fill:#855e36;}</style></defs><rect class="cls-1" width="350" height="270"/><ellipse class="cls-2" cx="170.62" cy="176.56" rx="109" ry="33.35"/><path class="cls-3" d="M55.2,136.85c12-.73,24,2.17,34.83,7.29,24.72,11.66,42.33,33.37,58.31,54.79l.39.52c28,8.33,60.69,14.38,88.46,11.82H236a50.42,50.42,0,0,0-8.94-.47h-.25l-.69-.06c-.68-.07-1.36-.15-2-.24l-.68-.1c-.45-.06-.9-.14-1.34-.21l-.67-.13c-1.56-.29-3.11-.65-4.64-1.07l-.65-.18q-2.29-.66-4.53-1.48c-1.92-.71-3.81-1.49-5.67-2.36-.87-.41-1.74-.84-2.6-1.27a115.69,115.69,0,0,1-12.42-7.46l-1.19-.82c-1.19-.83-2.37-1.66-3.54-2.51l-2.46-1.8-.56-.41-1.88-1.4-.58-.43-1.86-1.4-.46-.35-2-1.49-.16-.12L167,178.39l-.21-.16h0L162.55,175l-6-4.56-10-7.63c-6.24-4.74-12.49-9.47-19-13.8l-.6-.39-1.2-.78-1.82-1.16L122.7,146q-2.46-1.5-5-2.91l-1.26-.69-.64-.34a93.14,93.14,0,0,0-21.29-8.45c-.69-.17-1.39-.34-2.09-.49a68.47,68.47,0,0,0-7.11-1.19,64.11,64.11,0,0,0-10.18-.36l-1.56.09a3.46,3.46,0,0,0-.79.06l-1.38.13a54.58,54.58,0,0,0-8.22,1.53l-.62.17-.24.07-.38.11-.33.09-.29.09L61,134l-.23.07-.42.13-.19.06-.46.16-.15.05-.48.17H59l-.51.18h-.09l-.52.2h-.08l-.54.21h-.05l-.55.23h0l-.56.24h0l-.57.25h0l-.57.27h0l-.57.28h0l-.56.3A4.12,4.12,0,0,0,55.2,136.85Z"/><path class="cls-4" d="M116.47,142.37l1.26.69q2.51,1.41,5,2.91l1.22.75,1.82,1.16,1.2.78.6.39c6.53,4.33,12.78,9.06,19,13.8l10,7.63,6,4.56,4.15,3.16h0l.21.16,9.28,7.09.16.12,2,1.49.46.35,1.86,1.4.58.43,1.88,1.4.56.41,2.46,1.8q1.76,1.26,3.54,2.51l1.19.82a115.69,115.69,0,0,0,12.42,7.46c.86.43,1.73.86,2.6,1.27q2.79,1.29,5.67,2.36,2.24.82,4.53,1.48l.65.18c1.53.42,3.08.78,4.64,1.07l.67.13c.44.07.89.15,1.34.21l.68.1,2,.24.69.06H227c1.18.1,4.71.4,8.94.47h0c2,0,4.13,0,6.26-.09a84.94,84.94,0,0,0,13-1.64l.18-.06.58-.13,1.05-.37-.26.06-.63.08c-.64.07-1.72.2-3.15.32l-.64.06-1,.08-.73,0-2,.12h-1.3l-1.35.06h-3.9c-2.54,0-5.27-.06-8-.26-2.3-.17-4.64-.45-6.94-.82-.58-.1-1.15-.19-1.72-.3-2.28-.41-4.51-.91-6.61-1.46q-.8-.19-1.56-.42c-2.29-.64-4.4-1.34-6.22-2-.61-.24-1.19-.47-1.73-.71l-1.3-.59-.47-.22-.81-.38-.59-.29-.69-.34-.66-.34-.6-.3-.71-.38-.54-.29-.76-.42-.47-.26-.81-.45-.42-.25-.84-.49-.38-.22-.88-.53-.38,0-.92-.57-.27-.18-1-.6-.23-.15-1-.65-.18-.12-1-.69-.14-.09-1.07-.73-.09-.06-1.1-.77h0l-1.14-.81h0l-1.71-1.24-.42-.31c-.56-.4-1.11-.81-1.67-1.23l-.18-.13-1.53-1.15-.41-.32L182.32,187l-.35-.28-1.31-1-.55-.43-.15-.11-.28-.22-2.22-1.74-.37-.29-2.37-1.9-2-1.55-.33-.25-1.15-.89-1.25-1-2.59-2-.07-.06-3.93-3-7.32-5.63-6.63-5.11-3-2.31-.12-.09c-1-.78-2-1.55-3.06-2.32l-2-1.54-.34-.25-1.71-1.27-.53-.39-1.6-1.16-.57-.41-2.12-1.52c-.64-.45-1.27-.89-1.92-1.33l-1.92-1.32-1.29-.86-.9-.59c-2.05-1.33-4.14-2.64-6.27-3.91l-.85-.5c-1-.58-2-1.14-3-1.69l-.17-.1-1.76-.94c-2.06-1.08-4.14-2.09-6.26-3a82.69,82.69,0,0,0-21.63-6.5A61.73,61.73,0,0,0,66,130c-6.85,1.52-14,4.53-18.93,9.64a20.83,20.83,0,0,0-2.57,3.2c.24.37.48.74.73,1.11h0l.42-.54.14-.16.3-.36.16-.19.3-.33.16-.18.31-.31.17-.17.31-.32.17-.15.33-.31.16-.15.35-.31.15-.13L49,140l.14-.11.39-.31.14-.1.42-.31.11-.09.45-.31.1-.07.48-.32.08-.06.51-.32h.06l.54-.32h0l.57-.33h0l.58-.32h0l.56-.3h0l.57-.28h0l.57-.27h0l.57-.25h0l.56-.24h0l.55-.23h0l.54-.21h.08l.52-.2h.09l.51-.18h.12l.48-.17.15,0,.46-.16.19-.06.42-.13L61,134l.39-.12.29-.09.33-.09.38-.11.24-.07.62-.17a54.58,54.58,0,0,1,8.22-1.53l1.38-.13c.26,0,.52-.05.79-.06l1.56-.09a64.11,64.11,0,0,1,10.18.36,68.47,68.47,0,0,1,7.11,1.19c.7.15,1.4.32,2.09.49A93.39,93.39,0,0,1,115.83,142Z"/><path class="cls-5" d="M228.67,85c.18-.24.33-.46.44-.63l.17-.28.16-.23.06-.07h-.07a1.54,1.54,0,0,1-.19.17l-.14.15-.61.56h0l0,.06Z"/><path class="cls-5" d="M117.67,81.61a29.89,29.89,0,0,1,3-1.49l.46-.19.22-.09.25-.1.31-.12.66-.24,1-.33,1-.31a39.06,39.06,0,0,1,4.41-1c1-.17,2-.31,3.07-.41.57-.06,1.15-.1,1.73-.14l1.2-.06a62,62,0,0,1,7.83.19l1.47.14q1.46.15,2.94.36c.86.11,1.72.24,2.59.39l2.38.43.43.09c.94.17,1.88.39,2.83.59,1.3.29,2.6.61,3.91,1l1,.26.76.21c.48.12.95.26,1.43.4l1.42.4c.94.29,1.9.57,2.83.87l.92.29.49.15,1.43.48,2.88.94,1.58.51q.66.23,1.32.42l2.91.87.55.17.68.2.21.06.4.11,1.05.29,2.5.67.38.1.7.17.89.22,1.28.31c.94.24,1.9.43,2.84.64l1.2.26c.54.11,1.07.22,1.61.31l2.77.51.72.11,2,.31c.9.13,1.8.23,2.68.33l.66.08.66.06,1.3.11.7.07H206l1.24.06H212L213,91.2h.07a5.1,5.1,0,0,0,1.11-.08h.3l.78-.09c1.12-.13,2.18-.31,3.19-.53l.82-.18.52-.14.39-.11a8.89,8.89,0,0,0,.88-.26h.14l.47-.16.23-.08h.2l.2-.08.39-.16A16.21,16.21,0,0,0,225.46,88,12.11,12.11,0,0,0,227,86.84l.18-.16.23-.2c.25-.23.46-.46.65-.67s.4-.47.55-.67l-1.18.49h0l-.41.26-.45.26-.24.13-.25.12-.53.26-.58.24a18.18,18.18,0,0,1-2.7.8c-.5.12-1,.2-1.58.29a6.24,6.24,0,0,0-.84.11l-.87.1h0l-.79,0h-6.66L211,88l-1.11-.1-1.14-.14-1.15-.14-1.18-.19-1.19-.18L204,87l-1.23-.23-.62-.11-.62-.14-1.26-.26-.64-.13-.32-.07L199,86l-2.59-.6c-1.73-.44-3.51-.87-5.31-1.39s-3.62-1-5.47-1.57l-.19-.06h-.12l-1.42-.44-1-.32h0l-1.4-.43-1.4-.46L177.86,80l-.63-.21-2.82-1-1-.34-.2-.06-1.68-.57-1.44-.49-1.48-.47c-1-.32-2-.61-3-.9l-1.45-.4h0c-.5-.14-1-.28-1.5-.4l-1.5-.38c-.49-.13-1-.23-1.5-.35-1-.24-2-.44-3-.64s-2-.38-3-.54-2-.3-3-.43q-3-.37-6-.51c-2-.09-3.9-.1-5.8,0-.94,0-1.88.11-2.81.2a12.93,12.93,0,0,0-1.38.15l-.68.09-.67.1a43.35,43.35,0,0,0-5.18,1.1,38.72,38.72,0,0,0-4.69,1.61,33,33,0,0,0-4.07,2.06c-.23.13-.45.27-.66.41a15.58,15.58,0,0,0-1.92,4.06l.49-.29Z"/><path class="cls-5" d="M136.42,149.37l.65-.31a55.36,55.36,0,0,0,11.76-8,66.15,66.15,0,0,0,9.22-9.85,60.56,60.56,0,0,0,11.23-24.06c.89-4.22,1.68-9,.19-13.17-.15-.4-.31-.78-.49-1.16h0a9.05,9.05,0,0,0-.59-1h0a9.23,9.23,0,0,0-1.27-1.59h0a8.88,8.88,0,0,0-.79-.71,9.15,9.15,0,0,0-.8-.59,7.46,7.46,0,0,0-1.43-.67l-.68-.24-.84-.25-.35-.1-.29-.08a40.34,40.34,0,0,0-4.21-.88,43.82,43.82,0,0,0-9.26-2.06c-2.74-.33-5.5-.49-8.26-.58-1.36,0-2.72-.08-4.08-.11a6,6,0,0,0-.74.07H135a17.9,17.9,0,0,0-3.8,1.14c-.52.22-1,.47-1.53.74l-.42.23a17.29,17.29,0,0,0-2.46,1.69,7.73,7.73,0,0,0-1.07,1.07,27.07,27.07,0,0,0-4,7.28,35,35,0,0,0-1.61,8.55c-.27,3.09-2.39,17.11-2.88,20.82a100.18,100.18,0,0,0-.85,13.52l1.76.94.17.1c1,.55,2,1.11,3,1.69l.85.5q3.19,1.89,6.27,3.91l.9.59,1.29.86q1,.65,1.92,1.32c.65.44,1.28.88,1.92,1.33l.51-.21C135.41,149.83,135.92,149.6,136.42,149.37Z"/><path class="cls-6" d="M249.25,127.64v.07c.29,2.34.73,5.92,1.18,9.58.24,1.9.47,3.83.69,5.61,1.07.21,2.11.44,3.12.68h.15L256,144c.89.23,1.75.48,2.58.74l1.27.41.55.18,1.38.5.21.07h0c.87.33,1.72.67,2.54,1l1.55.71h.06l.22.11,1.32.66h.08a43.45,43.45,0,0,1,6,3.77l.36.27.23.18.17.13c.72.57,1.4,1.15,2.05,1.74l.07.06a36.4,36.4,0,0,1,4.06,4.36c.09.1.17.21.26.32l.14.18.28.39.1.12.33.46h0l.28.39a.44.44,0,0,0,.08.11l.3.46v.06l.14.22c.18.27.34.53.5.8.28.46.55.92.8,1.38l.09.16.15.28.12.23a38,38,0,0,1,2.5,6c.06.13.11.26.16.39,1.94,4.72,2,9.74,2,14.77.31-.32.62-.64.92-1,6.2-7.14,7.18-17.38,5.88-26.55-.76-5.39-3.83-31.24-35.4-41.52A45.85,45.85,0,0,0,247.71,115c.53,4.2,1,8.41,1.54,12.62Z"/><path class="cls-7" d="M252.17,151.34c0,.32.06.62.07.93v.34a.29.29,0,0,1,0,.13v1.11a.21.21,0,0,1,0,.11v.24a.69.69,0,0,1-.05.13v.1l-.08.14a.41.41,0,0,1-.05.09l-.1.15v.07a1.84,1.84,0,0,1-.17.22h0a15.51,15.51,0,0,1-3.25,2.51c-1.21.82-2.43,1.61-3.68,2.37q-.95.57-1.89,1.11a88.74,88.74,0,0,1-12.89,6c-2,.76-4.13,1.45-6.22,2.09l-1,.31-1.32.38c-3.07.86-6.18,1.59-9.31,2.23a174.16,174.16,0,0,1-23.85,3.14l-2.19.13c-2.91.14-5.82.22-8.75.23q-3,0-6-.09c-1.19,0-2.38-.08-3.58-.14l2.59,2,1.25,1c.39.29.77.59,1.15.89l.33.25,2,1.55,2.32,1.82.37.29,2.22,1.74.28.22.15.11.55.43,1.31,1,.35.28,1.62,1.23.41.32,1.53,1.15.18.13c.56.42,1.11.83,1.67,1.23l.42.31,1.71,1.24h0A162.87,162.87,0,0,0,209.75,191a268.17,268.17,0,0,0,29.33-5.8h0l.92-.2.45-.1.47-.1.48-.11.43-.1.49-.12.39-.09.51-.13.33-.08c.68-.17,1.34-.35,2-.53h.15l.63-.18.18-.06.63-.18.15-.05.66-.2h0c1.24-.38,2.43-.78,3.59-1.19h0a56.47,56.47,0,0,0,14.68-7.57h0a31.44,31.44,0,0,0,3.85-3.35h0l.36-.39h0l.34-.38V170l.32-.37h0l.33-.39h0a19.88,19.88,0,0,0,1.2-1.69h0L273,167v-.07c.07-.11.13-.23.19-.34l.05-.09.17-.31,0-.1.15-.31v-.1c0-.1.09-.21.14-.31v-.1c0-.1.09-.21.13-.31v-.09l.13-.34v-.05c.09-.27.17-.54.24-.8h0a1.66,1.66,0,0,1,.09-.37c0-.12,0-.06,0-.09a2.93,2.93,0,0,0,.05-.29v-2.35a3.4,3.4,0,0,0-.12-.71v-.09a1.14,1.14,0,0,0-.06-.25v-.13a1.72,1.72,0,0,1-.07-.21l-.05-.14a1.46,1.46,0,0,0-.07-.19l-.06-.14a1.08,1.08,0,0,0-.08-.19l-.06-.14-.09-.19-.07-.13-.1-.19-.08-.13-.11-.19-.08-.12c0-.06-.09-.13-.14-.2a.61.61,0,0,1-.07-.1,3.25,3.25,0,0,0-.23-.29h0a28.69,28.69,0,0,0-21.53-10.45c.3,2.44.52,4.22.58,4.69C252.14,151.13,252.16,151.24,252.17,151.34Z"/><path class="cls-8" d="M247.38,112.42l.33,2.59a46.11,46.11,0,0,1,12.79,1.75c31.57,10.28,34.64,36.13,35.4,41.52,1.3,9.17.32,19.41-5.88,26.55-.3.35-.61.67-.92,1,0-5-.1-10-2-14.77-.05-.13-.1-.26-.16-.39h0a38,38,0,0,0-2.5-6l-.12-.23-.15-.28L284,164c-.25-.46-.52-.92-.8-1.38-.16-.27-.32-.53-.5-.8l-.14-.22v-.06l-.3-.46a.44.44,0,0,1-.08-.11l-.28-.39h0l-.33-.46-.1-.12-.28-.39-.14-.18c-.09-.11-.17-.22-.26-.32a36.4,36.4,0,0,0-4.06-4.36l-.07-.06c-.65-.59-1.33-1.17-2.05-1.74l-.17-.13-.23-.18-.36-.27a43.45,43.45,0,0,0-6-3.77.11.11,0,0,1-.08,0l-1.32-.66-.22-.11h-.06L264.6,147c-.82-.36-1.67-.7-2.54-1h0l-.21-.07-1.38-.5-.55-.18-1.27-.41c-.83-.26-1.69-.51-2.58-.74l-1.65-.42h-.15c-1-.24-2.05-.47-3.12-.68.15,1.23.3,2.39.42,3.43a28.69,28.69,0,0,1,21.53,10.45h0a3.25,3.25,0,0,1,.23.29.61.61,0,0,0,.07.1c.05.07.09.14.14.2l.08.12.11.19.08.13.1.19.07.13.09.19.06.14a1.08,1.08,0,0,1,.08.19l.06.14a1.46,1.46,0,0,1,.07.19l.05.14a1.72,1.72,0,0,0,.07.21v.13a1.14,1.14,0,0,1,.06.25v.09c.05.23.09.47.12.71v.48a1,1,0,0,1,0,.24V163a2.93,2.93,0,0,1-.05.29v.09a2.65,2.65,0,0,1-.09.37h0c-.07.26-.15.53-.24.8v.05l-.13.34V165a.82.82,0,0,1-.13.31v.1c-.05.1-.09.21-.14.31v.1l-.15.31,0,.1-.17.31-.05.09c-.06.11-.12.23-.19.34V167l-.24.39h0a19.88,19.88,0,0,1-1.2,1.69h0l-.33.39h0l-.32.37v0l-.34.38h0l-.36.39h0a31.44,31.44,0,0,1-3.85,3.35h0a56.47,56.47,0,0,1-14.68,7.57h0c-1.16.41-2.35.81-3.59,1.19h0l-.66.2-.15.05-.63.18-.18.06-.63.18h-.15c-.66.18-1.32.36-2,.53l-.33.08-.51.13-.39.09-.49.12-.43.1-.48.11-.47.1-.45.1-.88.19a268.17,268.17,0,0,1-29.33,5.8,160.39,160.39,0,0,1-19.94,1.55h0l1.14.81h0l1.1.77.09.06,1.07.73.14.09,1,.69.18.12,1,.65.23.15,1,.6.27.18.92.57.33.2.88.53.38.22.84.49.42.25.81.45.47.26.76.42.54.29.71.38.6.3.66.34.69.34.59.29.81.38.47.22,1.3.59c.54.24,1.12.47,1.73.71a55.06,55.06,0,0,0,6.22,2q.76.23,1.56.42c2.1.55,4.33,1,6.61,1.46.57.11,1.14.2,1.72.3,2.3.37,4.64.65,6.94.82,2.77.2,5.5.27,8,.26h3.9l1.35-.06H249l2-.12.73-.05,1-.08.64-.06c1.43-.12,2.51-.25,3.15-.32l.63-.08c.42-.09.85-.17,1.27-.27,13.94-3,31.36-10.07,38.05-26.78C307.69,153.1,290.16,113.09,247.38,112.42Z"/><path class="cls-9" d="M148.73,199.45l-.39-.52c-16-21.42-33.59-43.13-58.31-54.79-10.85-5.12-22.79-8-34.83-7.29-.51,0-1,.07-1.54.12h0l-.58.32h0l-.57.33h0l-.54.32h-.06l-.51.32-.08.06-.48.32-.1.07-.45.31-.11.09-.42.31-.14.1-.39.31L49,140l-.38.31-.15.13-.35.31-.16.15-.33.31-.17.15-.31.32-.17.17-.31.31-.16.18-.3.33c0,.06-.11.12-.16.19l-.3.36-.14.16-.42.54h0a63.24,63.24,0,0,0,6.71,7.73c6,6,15,13.8,20.72,17.08,4.58,2.64,18.34,9.53,37.09,17.05l2.48,1C123.09,191.08,135.52,195.52,148.73,199.45Z"/><path class="cls-10" d="M215.54,88.22h2.67l.79,0h0l.87-.1a4.71,4.71,0,0,0,.84-.11c.55-.09,1.08-.17,1.58-.29a18.18,18.18,0,0,0,2.7-.8l.58-.24.53-.26.25-.12.24-.13.45-.26.41-.26h0A45,45,0,0,1,215.54,88.22Z"/><path class="cls-11" d="M191.09,84c1.8.52,3.58,1,5.31,1.39L199,86l.32.08.32.07.64.13,1.26.26.62.14.62.11L204,87l1.21.21,1.19.18,1.18.19,1.15.14,1.14.14L211,88h4.56a45,45,0,0,0,12-2.72l1.18-.49h0l-.17-.19,0-.06c-.5-.53-1.79-1.89-3.58-3.54-.75-.68-1.57-1.41-2.47-2.15-.25-.21-.51-.43-.78-.64l-.4-.32-.83-.63c-.42-.32-.85-.63-1.29-.94s-.88-.61-1.33-.9l-.46-.29-.92-.56L216,74.3l-1-.3c-.63-.33-1.26-.63-1.9-.9l-1-.38-.49-.17a11.53,11.53,0,0,0-7.45-.32c-3.8,1.31-6.49,3.48-9.14,5.49l-.51.39-.77.57-.45.33a17.18,17.18,0,0,1-7.88,3.36h0l.19.06C187.47,83,189.29,83.54,191.09,84Z"/><path class="cls-11" d="M190.18,151.92a122.93,122.93,0,0,1-12.86,7c41.6-2.39,73.14-21.32,73-21.62h.08c-.45-3.66-.89-7.24-1.18-9.58v-.07h0c-.52-4.21-1-8.42-1.54-12.62l-.33-2.59c-.15-1.13-.29-2.26-.45-3.38a61.32,61.32,0,0,0-4.05-16.16,45.62,45.62,0,0,0-5.43-9.34A98.46,98.46,0,0,1,225,117.07,105.37,105.37,0,0,1,190.18,151.92Z"/><path class="cls-10" d="M117.14,125.5c.49-3.71,2.61-17.73,2.88-20.82a35,35,0,0,1,1.61-8.55,27.07,27.07,0,0,1,4-7.28,7.73,7.73,0,0,1,1.07-1.07,17.29,17.29,0,0,1,2.46-1.69l.42-.23c.5-.27,1-.52,1.53-.74a17.9,17.9,0,0,1,3.8-1.14h.44a6,6,0,0,1,.74-.07c1.36,0,2.72.06,4.08.11,2.76.09,5.52.25,8.26.58a43.82,43.82,0,0,1,9.26,2.06,40.34,40.34,0,0,1,4.21.88l.29.08.35.1.84.25.68.24a7.46,7.46,0,0,1,1.43.67,9.15,9.15,0,0,1,.8.59,8.88,8.88,0,0,1,.79.71h0a9.23,9.23,0,0,1,1.27,1.59h0a9.05,9.05,0,0,1,.59,1h0c.18.38.34.76.49,1.16,1.49,4.18.7,9-.19,13.17A60.56,60.56,0,0,1,158,131.16a66.15,66.15,0,0,1-9.22,9.85A55.36,55.36,0,0,1,137,149l-.65.31c-.5.24-1,.46-1.53.68l-.51.21,2.12,1.52.57.41,1.6,1.16.53.39,1.71,1.27.34.25,2,1.54h0a140.4,140.4,0,0,0,34,2.1,122.93,122.93,0,0,0,12.86-7A105.4,105.4,0,0,0,225,117.07a98.49,98.49,0,0,0,12.42-33.53,49.33,49.33,0,0,0-12.19-11.49,47.47,47.47,0,0,0-12.46-5.9A44.18,44.18,0,0,0,206,64.66c-2.71-.37-5.58-.63-8.22.26s-4.46,2.74-6.33,4.6a30.31,30.31,0,0,1-5.75,4.58,31.91,31.91,0,0,1-12.55,4.31l.2.06,1,.34,2.82,1,.63.21,2.19.71,1.4.46,1.4.43h0l1,.32,1.42.44h.12A17.21,17.21,0,0,0,193.31,79l.45-.33.77-.57.51-.39c2.65-2,5.34-4.18,9.14-5.49a11.53,11.53,0,0,1,7.45.32l.49.17,1,.38c.64.27,1.27.57,1.9.9l.94.51.47.27.92.56.46.29c.45.29.9.6,1.33.9s.87.62,1.29.94l.83.63.4.32c.27.21.53.43.78.64.9.74,1.72,1.47,2.47,2.15,1.79,1.65,3.08,3,3.58,3.54h0l.61-.56.14-.15a1.54,1.54,0,0,0,.19-.17h.07l-.06.07-.16.23-.17.28c-.11.17-.26.39-.44.63a8.1,8.1,0,0,1-.55.67c-.22.24-.4.44-.65.67l-.23.2-.18.16a12.11,12.11,0,0,1-1.54,1.12,16.21,16.21,0,0,1-2.73,1.37l-.39.16-.2.08H222l-.23.08-.47.16h-.14a8.89,8.89,0,0,1-.88.26l-.39.11-.52.14-.82.18a32.14,32.14,0,0,1-3.19.53l-.78.09h-.3a5.28,5.28,0,0,0-1.11.08h-.07l-1.1.17h-4.78l-1.22,0h-1.85l-.7-.07-1.3-.11-.66-.06-.66-.08c-.88-.1-1.78-.2-2.68-.33l-2-.31-.72-.11-2.77-.51c-.54-.09-1.07-.2-1.61-.31l-1.2-.26c-.94-.21-1.9-.4-2.84-.64l-1.28-.31-.89-.22-.7-.17-.38-.1-2.5-.67-1-.29-.4-.11-.21-.06-.68-.2-.55-.17-2.91-.87q-.66-.19-1.32-.42l-1.58-.51-2.88-.94L168.25,83l-.49-.15-.92-.29c-.93-.3-1.89-.58-2.83-.87l-1.42-.4-1.43-.4-.76-.21-1-.26-3.91-1c-1-.2-1.89-.42-2.83-.59l-.43-.09-2.38-.43c-.87-.15-1.73-.28-2.59-.39s-2-.26-2.94-.36l-1.47-.14a62,62,0,0,0-7.83-.19l-1.2.06a16.58,16.58,0,0,0-1.73.14c-1,.1-2.07.24-3.07.41a39.06,39.06,0,0,0-4.41,1c-.35.09-.69.2-1,.31l-1,.33-.66.24-.31.12-.25.1-.22.09-.46.19a29.89,29.89,0,0,0-3,1.49l-.34.19-.49.29a28.87,28.87,0,0,0-.81,3.17c-.63,3.15-1.09,6.34-1.58,9.51Q113.71,99.89,113,105q-1.32,10-2.19,20c-.28,3.35-.53,6.7-.72,10a6.3,6.3,0,0,1-.06,1c2.12,1,4.2,2,6.26,3A100.91,100.91,0,0,1,117.14,125.5Z"/><path class="cls-12" d="M250.36,137.28c.1.3-31.44,19.23-73,21.62a129,129,0,0,1-21.21,7.73l7.32,5.63,4,3.09c1.2.06,2.39.11,3.58.14q3,.09,6,.09,4.38,0,8.75-.23l2.19-.13a174.16,174.16,0,0,0,23.85-3.14c3.13-.64,6.24-1.37,9.31-2.23l1.32-.38,1-.31c2.09-.64,4.17-1.33,6.22-2.09a88.74,88.74,0,0,0,12.89-6q.94-.54,1.89-1.11c1.25-.76,2.47-1.55,3.68-2.37a15.51,15.51,0,0,0,3.25-2.51h0a1.84,1.84,0,0,0,.17-.22v-.07l.1-.15a.41.41,0,0,0,.05-.09l.08-.14v-.1a.69.69,0,0,0,0-.13v-.24a.21.21,0,0,0,0-.11v-1.11a.29.29,0,0,0,0-.13v-.34a4.21,4.21,0,0,0-.07-.93V151c-.06-.47-.28-2.25-.58-4.69-.12-1-.27-2.2-.42-3.43-.22-1.78-.45-3.71-.69-5.61Z"/><path class="cls-13" d="M143.29,156.8h0c1,.77,2.05,1.54,3.06,2.32l.12.09,3,2.31,6.63,5.11a129,129,0,0,0,21.21-7.73A140.56,140.56,0,0,1,143.29,156.8Z"/></svg>