<svg id="Layer_1" data-name="Layer 1" xmlns="http://www.w3.org/2000/svg" viewBox="0 0 350 270"><defs><style>.cls-1{fill:#dac0ff;}.cls-2{fill:#c09df9;}.cls-3{fill:#b36810;}.cls-4{fill:#c47212;}.cls-5{fill:#e69632;}.cls-6{opacity:0.15;isolation:isolate;}.cls-7{fill:#d77d14;}.cls-8{fill:#ffae55;}</style></defs><rect class="cls-1" width="350" height="270"/><rect class="cls-2" y="179" width="350" height="91"/><g id="OBJECTS"><polygon class="cls-3" points="171.65 26.63 274.75 59.55 274.75 210.68 171.65 177.76 171.65 26.63"/><polygon class="cls-4" points="171.65 26.63 76.77 59.55 76.77 210.68 171.65 177.76 171.65 26.63"/><polygon class="cls-5" points="179.87 243.37 76.77 210.46 76.77 59.32 179.87 92.24 179.87 243.37"/><polygon class="cls-6" points="76.77 80.35 76.77 124.19 167.35 153.11 179.87 113.27 179.87 92.24 81.07 66.66 76.77 80.35"/><polygon class="cls-7" points="179.87 243.37 274.75 210.46 274.75 59.32 179.87 92.24 179.87 243.37"/><polygon class="cls-6" points="179.87 92.24 179.87 112.47 191.39 149.77 274.75 120.85 274.75 79.55 269.11 61.28 179.87 92.24"/><polygon class="cls-5" points="195.17 142.85 290.05 109.94 274.75 59.32 179.87 92.24 195.17 142.85"/><polygon class="cls-8" points="163.05 145.77 59.95 112.86 76.77 59.32 179.87 92.24 163.05 145.77"/></g></svg>