<svg xmlns="http://www.w3.org/2000/svg" xmlns:xlink="http://www.w3.org/1999/xlink" viewBox="0 0 350 270"><defs><style>.cls-1{fill:none;}.cls-2{isolation:isolate;}.cls-3{fill:#f1e9e1;}.cls-16,.cls-4{fill:#f0ce81;}.cls-5{fill:#d78200;}.cls-6{fill:#9f5000;}.cls-7{fill:#edb000;}.cls-8{fill:#462200;}.cls-9{clip-path:url(#clip-path);}.cls-10,.cls-16{opacity:0.3;}.cls-10{mix-blend-mode:screen;}.cls-11{fill:#e0d9d6;}.cls-12{clip-path:url(#clip-path-2);}.cls-13{fill:#6075ab;}.cls-14{fill:#2c4394;}.cls-15{fill:#003082;}</style><clipPath id="clip-path"><path class="cls-1" d="M232.19,94.14c-14.45,2.47-34.95,4-57.66,4s-43.22-1.55-57.69-4c14.47-2.5,35-4,57.69-4S217.74,91.64,232.19,94.14Z"/></clipPath><clipPath id="clip-path-2"><path class="cls-1" d="M300.57,108.34c-6.41-18.57-29.34-16.63-39.33-14.8.08-.62.13-1.21.18-1.7,1-10.64-6.46-13-6.46-13s-16.39-9.24-80.43-9.24h-.42c-64.06,0-80.46,9.24-80.46,9.24s-7.41,2.33-6.43,13c.93,10.15,3.85,37.88,18,60.5A59,59,0,0,0,139,177.41c9.63,2.79,22.36,5.53,35.11,5.53h.42c12.73,0,25.46-2.74,35.09-5.53a60.12,60.12,0,0,0,26.52-15.88,206.22,206.22,0,0,1,20.4-3.1c16.53-1.75,28-5.88,35.48-11.62C304.44,137.28,305.73,123.29,300.57,108.34Zm-41.4.26c8.73-6.25,29.39-10.62,34.24,6.89a18.56,18.56,0,0,1-.41,12c-4.57,11.88-21.3,18.05-30.68,19.11-6.89.8-11.28-1.52-13.79-3.69A134.76,134.76,0,0,0,259.17,108.6Z"/></clipPath></defs><g class="cls-2"><g id="Layer_23" data-name="Layer 23"><rect class="cls-3" width="350" height="270"/></g><g id="OBJECTS"><path class="cls-4" d="M302.45,164.74c0,19.68-57.24,35.63-127.9,35.63a406.45,406.45,0,0,1-63.06-4.63,266.38,266.38,0,0,1-28-5.93c-22.84-6.43-36.94-15.33-36.94-25.07,0-19.68,57.32-35.63,128-35.63S302.45,145.06,302.45,164.74Z"/><path class="cls-5" d="M217.63,177.67c0,7.36-19.29,13.32-43.1,13.32a122.74,122.74,0,0,1-21.25-1.73,78.73,78.73,0,0,1-9.43-2.22c-7.69-2.4-12.45-5.73-12.45-9.37,0-7.36,19.32-13.32,43.13-13.32S217.63,170.31,217.63,177.67Z"/><path class="cls-6" d="M153.28,189.26a78.73,78.73,0,0,1-9.43-2.22,4.11,4.11,0,0,1,3.49-4.1C151.13,182,152.71,186.63,153.28,189.26Z"/><path class="cls-7" d="M300.57,108.34c-6.41-18.57-29.34-16.63-39.33-14.8.08-.62.13-1.21.18-1.7,1-10.64-6.46-13-6.46-13s-16.39-9.24-80.43-9.24h-.42c-64.06,0-80.46,9.24-80.46,9.24s-7.41,2.33-6.43,13c.93,10.15,3.85,37.88,18,60.5A59,59,0,0,0,139,177.41c9.63,2.79,22.36,5.53,35.11,5.53h.42c12.73,0,25.46-2.74,35.09-5.53a60.12,60.12,0,0,0,26.52-15.88,206.22,206.22,0,0,1,20.4-3.1c16.53-1.75,28-5.88,35.48-11.62C304.44,137.28,305.73,123.29,300.57,108.34Zm-41.4.26c8.73-6.25,29.39-10.62,34.24,6.89a18.56,18.56,0,0,1-.41,12c-4.57,11.88-21.3,18.05-30.68,19.11-6.89.8-11.28-1.52-13.79-3.69A134.76,134.76,0,0,0,259.17,108.6Z"/><path class="cls-5" d="M253.92,85.26c0,3.42-8.26,6.58-21.73,8.88-14.45,2.47-34.95,4-57.66,4-14.3,0-27.72-.62-39.31-1.67-6.82-.65-13-1.45-18.38-2.35l-1.22-.23c-12.76-2.27-20.49-5.33-20.49-8.65,0-7.13,35.55-12.91,79.4-12.91S253.92,78.13,253.92,85.26Z"/><path class="cls-8" d="M232.19,94.14c-14.45,2.47-34.95,4-57.66,4s-43.22-1.55-57.69-4c14.47-2.5,35-4,57.69-4S217.74,91.64,232.19,94.14Z"/><path class="cls-5" d="M294.2,104.76c13.13,14.09,9.22,32.75-2.18,42.05-7.46,5.74-18.95,9.87-35.48,11.62a206.22,206.22,0,0,0-20.4,3.1s7.18-6.14,9.4-10.82c0,0,29.86,4.79,43.2-11.54,8-9.77,5.91-19.19,4.67-23.68-4.85-17.51-25.51-13.14-34.24-6.89L261,99.33S281.08,90.67,294.2,104.76Z"/><path class="cls-7" d="M297.17,161.53a11.53,11.53,0,0,1-3.07,7.58,30.87,30.87,0,0,1-6.39,5.4,81,81,0,0,1-15,7.27,204.45,204.45,0,0,1-32.15,8.35c-21.8,4-43.95,5.42-66,5.53-22.1-.09-44.27-1.52-66.06-5.54a205,205,0,0,1-32.15-8.33,79.21,79.21,0,0,1-15-7.28,30.87,30.87,0,0,1-6.39-5.4,11.53,11.53,0,0,1-3.07-7.58,11.16,11.16,0,0,0,3.61,7.09,30.43,30.43,0,0,0,6.51,4.8,78.3,78.3,0,0,0,15.09,6.14,206.71,206.71,0,0,0,32,6.9,456,456,0,0,0,65.45,4.38A462.07,462.07,0,0,0,240,186.49a205.75,205.75,0,0,0,32-6.93,78.94,78.94,0,0,0,15.09-6.14,30.53,30.53,0,0,0,6.52-4.79A11.2,11.2,0,0,0,297.17,161.53Z"/><g class="cls-9"><g class="cls-10"><path class="cls-11" d="M190.91,94.83a2.11,2.11,0,1,1-2.1-2.11A2.1,2.1,0,0,1,190.91,94.83Z"/><path class="cls-11" d="M184.63,92.59a2.11,2.11,0,1,1-2.11-2.11A2.11,2.11,0,0,1,184.63,92.59Z"/><path class="cls-11" d="M197.13,96.29a1.46,1.46,0,1,1-1.46-1.46A1.46,1.46,0,0,1,197.13,96.29Z"/><path class="cls-11" d="M187.76,92a1.46,1.46,0,1,1-1.46-1.46A1.46,1.46,0,0,1,187.76,92Z"/><path class="cls-11" d="M180.09,91.9a1.47,1.47,0,1,1-1.46-1.47A1.47,1.47,0,0,1,180.09,91.9Z"/><path class="cls-11" d="M167,92a1.46,1.46,0,1,1-1.46-1.46A1.46,1.46,0,0,1,167,92Z"/><path class="cls-11" d="M163.61,92a1.47,1.47,0,1,1-1.46-1.46A1.46,1.46,0,0,1,163.61,92Z"/><path class="cls-11" d="M148,93.06a1.46,1.46,0,1,1-1.46-1.46A1.46,1.46,0,0,1,148,93.06Z"/><path class="cls-11" d="M204.05,97.31a1.46,1.46,0,1,1-1.46-1.47A1.46,1.46,0,0,1,204.05,97.31Z"/><path class="cls-11" d="M199.69,95a1,1,0,1,1-1-1A1,1,0,0,1,199.69,95Z"/><path class="cls-11" d="M205.27,92.72a1.46,1.46,0,1,1-1.46-1.46A1.46,1.46,0,0,1,205.27,92.72Z"/><path class="cls-11" d="M201.49,95.84a.73.73,0,1,1-1.46,0,.73.73,0,0,1,1.46,0Z"/><circle class="cls-11" cx="201.06" cy="93.7" r="1.03"/><circle class="cls-11" cx="211.27" cy="93.27" r="1.03"/><circle class="cls-11" cx="213.8" cy="93.48" r="1.03"/><path class="cls-11" d="M200.42,92.36a.73.73,0,1,1-.73-.73A.73.73,0,0,1,200.42,92.36Z"/><path class="cls-11" d="M205.27,95.11a.73.73,0,1,1-.73-.73A.73.73,0,0,1,205.27,95.11Z"/><path class="cls-11" d="M205.83,96.66a.73.73,0,0,1-1.46,0,.73.73,0,1,1,1.46,0Z"/><path class="cls-11" d="M213,95a.73.73,0,1,1-1.46,0A.73.73,0,0,1,213,95Z"/><path class="cls-11" d="M216.76,93.48a.73.73,0,1,1-.73-.73A.73.73,0,0,1,216.76,93.48Z"/><path class="cls-11" d="M202.22,91.9a.73.73,0,0,1-1.46,0,.73.73,0,1,1,1.46,0Z"/><path class="cls-11" d="M190,91.26a.73.73,0,1,1-.73-.73A.73.73,0,0,1,190,91.26Z"/><path class="cls-11" d="M177.19,91.17a.74.74,0,1,1-.74-.74A.74.74,0,0,1,177.19,91.17Z"/><path class="cls-11" d="M172.94,91.05a.74.74,0,1,1-.74-.73A.74.74,0,0,1,172.94,91.05Z"/><circle class="cls-11" cx="170.5" cy="91.05" r="0.73"/><path class="cls-11" d="M169.49,91.17a.73.73,0,0,1-1.46,0,.73.73,0,1,1,1.46,0Z"/><path class="cls-11" d="M164.63,93.79a.74.74,0,0,1-1.47,0,.74.74,0,0,1,1.47,0Z"/><path class="cls-11" d="M160.52,91.47a.73.73,0,1,1-1.46,0,.73.73,0,1,1,1.46,0Z"/><path class="cls-11" d="M149.45,92a.73.73,0,1,1-.73-.73A.73.73,0,0,1,149.45,92Z"/><path class="cls-11" d="M144.87,92.53a.73.73,0,1,1-.73-.73A.73.73,0,0,1,144.87,92.53Z"/><path class="cls-11" d="M143.21,92.73a.73.73,0,1,1-.73-.73A.73.73,0,0,1,143.21,92.73Z"/><circle class="cls-11" cx="139.75" cy="92.94" r="0.73"/><path class="cls-11" d="M136.24,93.36a.73.73,0,1,1-.73-.73A.73.73,0,0,1,136.24,93.36Z"/><path class="cls-11" d="M137.82,93.26a.73.73,0,1,1-.73-.73A.73.73,0,0,1,137.82,93.26Z"/><path class="cls-11" d="M144.14,94.09a.73.73,0,1,1-.73-.73A.73.73,0,0,1,144.14,94.09Z"/><path class="cls-11" d="M157.87,91.58a.73.73,0,1,1-.73-.73A.73.73,0,0,1,157.87,91.58Z"/><path class="cls-11" d="M217.66,93.22a.26.26,0,0,1-.26.26.26.26,0,0,1-.25-.26.25.25,0,0,1,.25-.25A.26.26,0,0,1,217.66,93.22Z"/><circle class="cls-11" cx="206.01" cy="92.2" r="0.42"/><path class="cls-11" d="M190.83,92.2a.42.42,0,0,1-.84,0,.42.42,0,1,1,.84,0Z"/><path class="cls-11" d="M186.3,94.21a.41.41,0,0,1-.42.41.41.41,0,0,1-.41-.41.41.41,0,0,1,.41-.42A.42.42,0,0,1,186.3,94.21Z"/><path class="cls-11" d="M175.37,90.84a.41.41,0,0,1-.41.42.42.42,0,0,1-.42-.42.41.41,0,0,1,.42-.41A.41.41,0,0,1,175.37,90.84Z"/><path class="cls-11" d="M156.21,91.33a.41.41,0,0,1-.41.41.41.41,0,0,1-.42-.41.42.42,0,0,1,.42-.42A.41.41,0,0,1,156.21,91.33Z"/><circle class="cls-11" cx="156" cy="92.44" r="0.42"/><path class="cls-11" d="M150.45,91.58A.41.41,0,0,1,150,92a.42.42,0,0,1-.42-.42.41.41,0,0,1,.42-.41A.41.41,0,0,1,150.45,91.58Z"/><circle class="cls-11" cx="144.87" cy="94.4" r="0.42"/><path class="cls-11" d="M141.42,92.53a.41.41,0,0,1-.42.41.41.41,0,0,1-.41-.41.41.41,0,0,1,.41-.42A.42.42,0,0,1,141.42,92.53Z"/><path class="cls-11" d="M138.85,92.73a.41.41,0,0,1-.41.41.41.41,0,0,1-.42-.41.42.42,0,0,1,.42-.42A.41.41,0,0,1,138.85,92.73Z"/><circle class="cls-11" cx="134.21" cy="93.26" r="0.42"/><path class="cls-11" d="M180.83,90.84a.42.42,0,0,1-.42.42.41.41,0,0,1-.41-.42.41.41,0,0,1,.41-.41A.41.41,0,0,1,180.83,90.84Z"/><circle class="cls-11" cx="176.45" cy="92.61" r="0.42"/><path class="cls-11" d="M174.24,90.91a.41.41,0,0,1-.41.42.42.42,0,1,1,0-.84A.41.41,0,0,1,174.24,90.91Z"/><circle class="cls-11" cx="171.36" cy="92.2" r="0.42"/><path class="cls-11" d="M167.79,90.84a.42.42,0,0,1-.84,0,.42.42,0,0,1,.84,0Z"/><path class="cls-11" d="M164.18,90.84a.42.42,0,0,1-.42.42.41.41,0,0,1-.41-.42.41.41,0,0,1,.41-.41A.41.41,0,0,1,164.18,90.84Z"/><circle class="cls-11" cx="169.76" cy="92.2" r="0.42"/><path class="cls-11" d="M160.62,92.94a.42.42,0,0,1-.42.42.41.41,0,0,1-.41-.42.41.41,0,0,1,.41-.41A.41.41,0,0,1,160.62,92.94Z"/><circle class="cls-11" cx="158.4" cy="91.17" r="0.42"/><circle class="cls-11" cx="190.91" cy="91.26" r="0.42"/><circle class="cls-11" cx="209.68" cy="92.44" r="0.42"/><path class="cls-11" d="M218.57,93.27a.25.25,0,1,1-.5,0,.25.25,0,1,1,.5,0Z"/><path class="cls-11" d="M189.54,98a.73.73,0,0,1-1.46,0,.73.73,0,1,1,1.46,0Z"/><path class="cls-11" d="M196.77,99.77a1.47,1.47,0,1,1-1.47-1.46A1.46,1.46,0,0,1,196.77,99.77Z"/><path class="cls-11" d="M198.48,92.59a1.68,1.68,0,1,1-1.68-1.68A1.68,1.68,0,0,1,198.48,92.59Z"/><circle class="cls-11" cx="198.87" cy="98.4" r="2.11"/><path class="cls-11" d="M194.21,97.67a2.11,2.11,0,1,1-2.11-2.11A2.11,2.11,0,0,1,194.21,97.67Z"/><path class="cls-11" d="M195.13,93.27a2.11,2.11,0,1,1-2.11-2.1A2.11,2.11,0,0,1,195.13,93.27Z"/><path class="cls-11" d="M209.81,94.55a2.11,2.11,0,1,1-2.11-2.11A2.11,2.11,0,0,1,209.81,94.55Z"/></g></g><g class="cls-12"><path class="cls-13" d="M261.27,108.46q.32,11.79.35,23.57c-58.54,16.66-115.76,16.64-174.3-.06q0-11.77.36-23.56C145.79,124,203.16,124,261.27,108.46Z"/><path class="cls-14" d="M248.86,115.46a21,21,0,0,0-1.86,1.4c-3.75-1.44-8.67-1.42-12.63-.67a30.77,30.77,0,0,0-15.72,8.07,16.14,16.14,0,0,0-10.58-3.16,20.09,20.09,0,0,0-10.55,4,23,23,0,0,0-2.41-1.57A20.72,20.72,0,0,0,172,125a22.33,22.33,0,0,0-2.77-1.38,21.91,21.91,0,0,0-10.67-1.35,20.21,20.21,0,0,0-8.35,2.86,22.32,22.32,0,0,0-16.71-5.27,18.62,18.62,0,0,0-6.79,2.23,19.94,19.94,0,0,0-12.93-4.59,21.73,21.73,0,0,0-9.23,1.67,24.06,24.06,0,0,0-7.06-5.11,17.31,17.31,0,0,0-9.94-1.71l0,1.2.17,0c5.14.08,10.78,2.72,14.74,6.77l-.31.21a10.06,10.06,0,0,0-3.57,4.62,6.61,6.61,0,0,0,.19,5.73,7,7,0,0,0,4.59,3.32,5.68,5.68,0,0,0,4.78-1.59c2.83-2.69,1-7.34-1.4-10.81a19.85,19.85,0,0,1,7.92-1.06,17,17,0,0,1,9.36,3.27c-.34.3-.66.62-1,1-2.66,2.92-4,7.8.12,11.44a4.88,4.88,0,0,0,8.61-2.93,11.87,11.87,0,0,0-2.42-8.5,16.61,16.61,0,0,1,15.76.87,20.47,20.47,0,0,1,2.19,1.53c-2.49,2.43-4.41,5.86-3.66,9.61.81,4.21,5.32,7.65,9.19,5.71,4.15-2.06,4.18-7.38,2.27-11.35a19.16,19.16,0,0,0-2.18-3.45l0,0a18,18,0,0,1,15.05-.79c.41.16.81.35,1.21.54a12.81,12.81,0,0,0-3.25,7,8,8,0,0,0,0,1.3,7.34,7.34,0,0,0,.09.92c.63,4.34,5.12,7.26,9,5s4.56-6.83,2.9-10.57a12.5,12.5,0,0,0-2.87-4l.49-.31a17.46,17.46,0,0,1,17.55-.23c.5.29,1,.59,1.51.94a13.53,13.53,0,0,0-3.49,7.65c-.35,3.59,1.74,7.31,5.67,6.87a7.3,7.3,0,0,0,5-3.27,8,8,0,0,0,1.24-6.16,11.25,11.25,0,0,0-2.72-5.24c5-3.36,11.23-3.55,15.68-.24l.07.06q-.33.45-.63.93c-2.24,3.61-4,8.94-1,11.91a4.41,4.41,0,0,0,2.5,1.19,5.1,5.1,0,0,0,2.68-.4,5.79,5.79,0,0,0,.89-.46,7.75,7.75,0,0,0,3.45-5.88,11.26,11.26,0,0,0-2.76-8,22.66,22.66,0,0,1,5.1-3.75c5.1-2.72,11-4,16.2-3.09a11.37,11.37,0,0,1,1.4.33,18,18,0,0,0-2.87,5.92c-.91,3.49,0,8.34,4.53,7.32,4.21-.95,6.78-5.63,6.82-9.17a7.16,7.16,0,0,0-2.22-5.51c.37-.26.74-.49,1.13-.71a13.1,13.1,0,0,1,9.2-1.52,1.79,1.79,0,0,0,1,0l-.09-3.81A16.93,16.93,0,0,0,248.86,115.46ZM106.54,129.58c-.71,1.58-4.42,3.06-5.43,0-.49-1.48.34-3.29,1-4.34a7.9,7.9,0,0,1,2.42-2.36C106,125,107.38,127.78,106.54,129.58ZM128.33,132c-.06,1-.45,2.23-1.42,2.53s-2.12-.8-2.55-1.74c-1.08-2.34.59-4.48,2.28-5.93A8.48,8.48,0,0,1,128.33,132Zm24.27,5.26a3,3,0,0,1-2.27,2.34,2.94,2.94,0,0,1-2.69-1.74,4.89,4.89,0,0,1-.17-4.14,9.68,9.68,0,0,1,2.51-3.64,15.57,15.57,0,0,1,1.77,2.66A6.57,6.57,0,0,1,152.6,137.23Zm20.4,1.59a2.27,2.27,0,0,1-2.76-.77,4.59,4.59,0,0,1-.56-4.16,10.58,10.58,0,0,1,2.55-4.2,10.59,10.59,0,0,1,2.16,2.61C175.62,134.47,175.59,137.67,173,138.82ZM198.86,137a3.08,3.08,0,0,1-2.48,1.56c-2-.16-1.77-3.12-1.29-4.73a10,10,0,0,1,2.27-3.76,8.73,8.73,0,0,1,1.85,3.09A4.32,4.32,0,0,1,198.86,137Zm19.8.58c-1.19.54-2-.71-2.13-1.69-.24-1.87.77-4.08,2-5.93a8.91,8.91,0,0,1,1.63,4C220.3,135.15,220,137,218.66,137.58ZM246,129.5c-2.4,1.36-1.31-3.35-.87-4.45a13.72,13.72,0,0,1,1.8-3.16,4.39,4.39,0,0,1,1.22,2.1A5.17,5.17,0,0,1,246,129.5Z"/><path class="cls-15" d="M96.37,123.66a3.55,3.55,0,0,0-1.48-.49c.33-.75.63-1.51.9-2.29.35-1-1.39-1.85-1.81-.91a26.88,26.88,0,0,1-1.57,3c-1-1-1.94-2-2.9-3s-2.41-.14-1.45.94l1.67,1.89c-.46-.06-.93-.14-1.39-.22-1.11-.19-1.17,1.37,0,1.61,1,.21,2,.38,2.92.52-.29.39-.58.77-.88,1.14-.46.55-1,1-.66,1.88a1.31,1.31,0,0,0,.87.84c1.24.22,2-.84,2.56-1.87a3.63,3.63,0,0,0,2.12,1.29.57.57,0,0,0,.6-.57,3.53,3.53,0,0,0-1.31-2.29,2.89,2.89,0,0,0,2.08-.44C96.93,124.37,96.79,123.92,96.37,123.66Z"/><path class="cls-15" d="M117.93,127.67a3.14,3.14,0,0,0-1-.06c.16-.49.33-1,.5-1.47.42-1.23-1.6-2.1-2.08-.94-.39.94-.78,1.88-1.16,2.82-.92-.84-1.85-1.65-2.8-2.44a.67.67,0,1,0-.92,1c.8.81,1.59,1.65,2.37,2.49-.65.32-1.28.66-1.89,1s.3,1.53,1,1.15c.35-.2.71-.39,1.08-.56a3.83,3.83,0,0,0-.39,2.55,1.17,1.17,0,0,0,1.66.75,3.37,3.37,0,0,0,1.27-2.06,2.36,2.36,0,0,0,.88.37.54.54,0,0,0,.67-.53,3.07,3.07,0,0,0-.95-1.87c0-.13.09-.26.13-.39a5.37,5.37,0,0,0,2.06-.77C118.72,128.42,118.42,127.78,117.93,127.67Z"/><path class="cls-15" d="M142.13,132.7c-1-.48-2.29-.11-3.38.06l1.4-2c.64-.91-.88-1.93-1.55-1.09l-1.9,2.4c-1-.91-2-1.87-2.95-2.86-.7-.72-1.7.13-1,.89q1.24,1.42,2.58,2.76c-.55,0-1.09,0-1.64-.08-1-.08-1,1.33,0,1.49l1.09.16a4.29,4.29,0,0,0-1.41,2.69.92.92,0,0,0,1,.88c1.4-.31,2.19-2.07,2.95-3.16h0a4.71,4.71,0,0,0,2.57,1.63.6.6,0,0,0,.65-.78,2.93,2.93,0,0,0-.67-1.06,3.48,3.48,0,0,0,2.71-.89C142.83,133.39,142.48,132.88,142.13,132.7Z"/><path class="cls-15" d="M165.12,134.14a18.68,18.68,0,0,0-2.8,0c.21-.77.46-1.53.74-2.28s-1-1.38-1.35-.64-.67,1.35-1,2.06l-1.36-2c-.63-.93-2.07-.2-1.48.8l1.39,2.36c-.66.08-1.3.15-1.95.2-1,.07-.71,1.68.23,1.72l2,.11a12.38,12.38,0,0,0-.42,2.15,1.14,1.14,0,0,0,2.21.41c.06-.22.12-.45.17-.69a3.88,3.88,0,0,0,1.32,1.4.88.88,0,0,0,1.36-.75A4.87,4.87,0,0,0,163,136.5a16.84,16.84,0,0,0,2.37-.25,1,1,0,0,0,.73-.73,1.32,1.32,0,0,0,0-.56A1.12,1.12,0,0,0,165.12,134.14Z"/><path class="cls-15" d="M186.53,133.8l.84-1.79a.73.73,0,1,0-1.27-.71c-.46.8-1,1.6-1.47,2.4L183,131.63c-.56-.72-1.71.25-1.25,1l1,1.72-1.14.1c-1.21.09-1.23,1.94,0,1.93l1.45,0a16.1,16.1,0,0,0-.82,1.8c-.44,1.15,1.19,1.6,1.8.73a10.37,10.37,0,0,0,.72-1.25,7.2,7.2,0,0,0,.88,1.1c.87.88,2.13-.33,1.65-1.36a6.92,6.92,0,0,0-.8-1.29c1.13-.1,2.83-.14,3.32-1.27a.8.8,0,0,0-.12-.93C189,133.07,187.59,133.54,186.53,133.8Z"/><path class="cls-15" d="M212.41,133.45a3.08,3.08,0,0,0-2,0l.72-2c.36-1-1.28-1.54-1.71-.52l-.81,2c-.57-.6-1.17-1.18-1.79-1.72-.77-.68-1.83.55-1.17,1.29q.74.82,1.38,1.71l-1.4.25c-1.12.2-1.15,1.91,0,1.78l1.67-.19a17,17,0,0,0-1.19,3.25,1,1,0,0,0,1.88.59,13.17,13.17,0,0,0,1-2.37c.5.9,1.21,1.8,2.14.88.76-.76.25-1.85-.35-2.72a3.1,3.1,0,0,0,1.62-.62C212.92,134.48,213,133.74,212.41,133.45Z"/><path class="cls-15" d="M237.31,128a2.11,2.11,0,0,0-1.44,0c.22-.59.43-1.18.66-1.77.37-1-1.21-1.33-1.67-.36s-.9,1.9-1.37,2.85a23,23,0,0,0-2.62-1.57c-.83-.43-1.88,1.07-1.09,1.58.55.36,1.08.73,1.6,1.13-.54.2-1.08.39-1.63.57-1,.33-.77,1.95.24,1.68.7-.18,1.4-.38,2.1-.59a21,21,0,0,0-1.33,3.12,1,1,0,0,0,.32,1.14,1.15,1.15,0,0,0,.9.19,1.59,1.59,0,0,0,1.1-.82,17.86,17.86,0,0,0,1.12-2.52,5.09,5.09,0,0,0,1.13,1c.7.42,1.92-.32,1.62-1.23a4.84,4.84,0,0,0-1.38-2,3.47,3.47,0,0,0,2-1.51A.62.62,0,0,0,237.31,128Z"/><path class="cls-15" d="M261.79,126a1.12,1.12,0,0,1-.18.5,1.07,1.07,0,0,1-.85.5,1.74,1.74,0,0,1-.76-.12c-.41,1-1,1.89-1.9,1.84-1.23-.07-.63-1.56-.12-2.63-.88.31-1.77.58-2.66.84s-1.21-1.12-.24-1.54c.7-.31,1.39-.63,2.08-1-.72-.58-1.49-1.12-2.28-1.64s.36-1.87,1.22-1.44a30.68,30.68,0,0,1,3.2,1.86c.52-1.17,1-2.35,1.49-3.54a1.16,1.16,0,0,1,.74-.67c0,1.88.05,3.77.07,5.65l-.25.1a2.19,2.19,0,0,1,.25.37A1.43,1.43,0,0,1,261.79,126Z"/></g><path class="cls-16" d="M258.4,86.65c.05,1.91-1.32,3.53-2.74,4.7a24.43,24.43,0,0,1-4.8,2.94,72.25,72.25,0,0,1-10.43,4,165.12,165.12,0,0,1-21.72,4.59,308.49,308.49,0,0,1-44.18,3,308.7,308.7,0,0,1-41.09-2.63c.13,1.78-3.64,29.89,10.41,65a49,49,0,0,1-13.37-2.5c-21.81-28.48-17.82-62.79-18-66.48-1.31-.34-2.61-.68-3.9-1.06a72.25,72.25,0,0,1-10.43-4,23.72,23.72,0,0,1-4.78-2.94c-1.44-1.17-2.81-2.79-2.73-4.7.2,1.88,1.68,3.15,3.17,4.08A25,25,0,0,0,98.71,93a69.77,69.77,0,0,0,10.51,2.78c1.06.21,2.09.42,3.15.6,6.1,1.11,12.27,1.83,18.44,2.45.78.08,1.58.16,2.35.21,13.74,1.21,27.55,1.7,41.37,1.7,14.59,0,29.18-.54,43.69-1.91a214,214,0,0,0,21.61-3,68.84,68.84,0,0,0,10.51-2.76,25.83,25.83,0,0,0,4.86-2.32C256.69,89.8,258.17,88.53,258.4,86.65Z"/></g></g></svg>