<svg id="Layer_16" data-name="Layer 16" xmlns="http://www.w3.org/2000/svg" viewBox="0 0 350 270"><defs><style>.cls-1{fill:#9c7eb0;}.cls-2{fill:#dddfe5;}.cls-3{fill:#cdcfd6;}.cls-4{fill:#f9f9fb;}.cls-5{fill:#d7eaf5;}.cls-6{fill:#f1f7fb;}.cls-7{fill:#f6f7f9;}.cls-8{fill:#d0d2d8;}.cls-9{fill:#bdbfc6;}.cls-10{fill:#eaebef;}.cls-11{fill:#765b8a;}.cls-12{fill:#b9dff4;opacity:0.74;}.cls-12,.cls-13,.cls-14{isolation:isolate;}.cls-13{fill:#a2d6ef;opacity:0.41;}.cls-14{fill:#e6f1f8;opacity:0.67;}</style></defs><rect class="cls-1" width="350" height="270"/><path class="cls-2" d="M62.93,151.6H58.05V82.73A22.25,22.25,0,0,1,79.71,60.51h.56a22.25,22.25,0,0,1,21.66,22.22H97.05a17.06,17.06,0,1,0-34.12,0h0Z"/><rect class="cls-2" x="95.91" y="82.73" width="7.05" height="4.41" rx="0.48"/><path class="cls-3" d="M101.92,88H97a.44.44,0,0,1-.44-.44h0v-.43h5.85v.43A.44.44,0,0,1,102,88Z"/><path class="cls-4" d="M60.11,80.67H60a.8.8,0,0,1-.66-.92h0A26.31,26.31,0,0,1,63,70.56a.82.82,0,0,1,1.13-.22.81.81,0,0,1,.21,1.13h0A25.13,25.13,0,0,0,60.91,80,.81.81,0,0,1,60.11,80.67Z"/><path class="cls-4" d="M65.73,69.31a.78.78,0,0,1-.54-.21.82.82,0,0,1-.06-1.1,21.19,21.19,0,0,1,6.62-4.62.81.81,0,0,1,.65,1.49A19.94,19.94,0,0,0,66.34,69,.81.81,0,0,1,65.73,69.31Z"/><path class="cls-4" d="M59.91,99.31a.82.82,0,0,1-.82-.81V83.05a.82.82,0,0,1,.82-.81.81.81,0,0,1,.81.81V98.5A.81.81,0,0,1,59.91,99.31Z"/><polygon class="cls-5" points="96.95 88.01 92.08 141.89 112.02 141.89 101.92 88.01 96.95 88.01"/><polygon class="cls-6" points="98.4 88.01 96.53 141.69 102.05 141.69 99.81 88.01 98.4 88.01"/><path class="cls-7" d="M247.43,226.11H99.37A39.7,39.7,0,0,1,61,196.65l-12-45.1H297.84l-12,45.1A39.72,39.72,0,0,1,247.43,226.11Z"/><path class="cls-2" d="M285.25,151.55l-12,45.1a39.7,39.7,0,0,1-38.37,29.46h12.59a39.7,39.7,0,0,0,38.37-29.46l12-45.1Z"/><path class="cls-7" d="M301.55,141.84H45.26a4.86,4.86,0,0,0-4.85,4.86h0a4.85,4.85,0,0,0,4.85,4.85H301.55a4.85,4.85,0,0,0,4.85-4.85h0A4.86,4.86,0,0,0,301.55,141.84Z"/><polygon class="cls-2" points="50.26 156.4 296.55 156.4 297.84 151.55 48.97 151.55 50.26 156.4"/><path class="cls-8" d="M113.67,226.11h-14c-1.64,0-2.27.57-2.28,1.3a3.18,3.18,0,0,0,3.1,3.26h.08a2.19,2.19,0,0,1,2.19,2.19h0V233a1.63,1.63,0,0,1-1.61,1.63H97.74a1.21,1.21,0,0,0-1.21,1.18,2.73,2.73,0,0,0,2.69,2.77h4.87a5.42,5.42,0,0,0,5.41-5.42v-.27a2.19,2.19,0,0,1,2.2-2.2h.17a3.19,3.19,0,0,0,3.18-3.2v-.06A1.37,1.37,0,0,0,113.67,226.11Z"/><path class="cls-9" d="M100.52,230.66h0a2.19,2.19,0,0,1,2.19,2.19h0V233a1.62,1.62,0,0,1-1.5,1.62h8a5.59,5.59,0,0,0,.2-1.46v-.27a2.19,2.19,0,0,1,2.2-2.2H100.52Z"/><path class="cls-8" d="M233.13,226.11h14c1.64,0,2.26.57,2.28,1.3a3.19,3.19,0,0,1-3.12,3.26h-.06a2.19,2.19,0,0,0-2.2,2.2V233a1.63,1.63,0,0,0,1.63,1.63h3.39a1.22,1.22,0,0,1,1.22,1.18,2.74,2.74,0,0,1-2.71,2.77h-4.85a5.42,5.42,0,0,1-5.42-5.42v-.27a2.19,2.19,0,0,0-2.18-2.2h-.18a3.19,3.19,0,0,1-3.18-3.2v-.06A1.36,1.36,0,0,1,233.13,226.11Z"/><path class="cls-9" d="M246.28,230.66h0a2.19,2.19,0,0,0-2.2,2.2V233a1.63,1.63,0,0,0,1.51,1.62h-8a5.15,5.15,0,0,1-.21-1.46v-.27a2.19,2.19,0,0,0-2.18-2.2h11.16Z"/><path class="cls-10" d="M105.32,228.24c0,.8-1,1.73-3,1.73s-4.13-.93-4.13-1.73,2.18-1.17,4.13-1.17S105.32,227.44,105.32,228.24Z"/><path class="cls-10" d="M239.73,228.24c0,.8-1,1.73-2.95,1.73s-4.14-.93-4.14-1.73,2.18-1.17,4.14-1.17S239.73,227.44,239.73,228.24Z"/><path class="cls-11" d="M286.56,242.14H169.09a1.79,1.79,0,0,1-1.79-1.79h0a1.79,1.79,0,0,1,1.79-1.79H286.56a1.79,1.79,0,0,1,1.79,1.79h0a1.79,1.79,0,0,1-1.79,1.79Z"/><path class="cls-11" d="M159.84,242.14H133.39a1.79,1.79,0,0,1-1.79-1.79h0a1.79,1.79,0,0,1,1.79-1.79h26.45a1.79,1.79,0,0,1,1.79,1.79h0A1.8,1.8,0,0,1,159.84,242.14Z"/><path class="cls-11" d="M123.17,242.14H60a1.79,1.79,0,0,1-1.79-1.79h0A1.79,1.79,0,0,1,60,238.56h63.14a1.8,1.8,0,0,1,1.78,1.79h0A1.79,1.79,0,0,1,123.17,242.14Z"/><circle class="cls-12" cx="84.92" cy="139.94" r="11.61"/><path class="cls-13" d="M89.86,129.44a11.6,11.6,0,0,1-11.08,20.34A11.6,11.6,0,1,0,91,130.07,11.75,11.75,0,0,0,89.86,129.44Z"/><circle class="cls-14" cx="82.96" cy="138.63" r="8.21"/><circle class="cls-12" cx="68.9" cy="135.66" r="11.61"/><path class="cls-13" d="M73.84,125.17a11.6,11.6,0,0,1-11.09,20.34,11.6,11.6,0,0,0,12.18-19.75C74.58,125.55,74.21,125.35,73.84,125.17Z"/><circle class="cls-14" cx="66.94" cy="134.37" r="8.21"/><circle class="cls-12" cx="84.02" cy="126.15" r="9.47"/><path class="cls-13" d="M88.05,117.59a9.46,9.46,0,0,1-9,16.59,9.46,9.46,0,0,0,10.16-16A8.68,8.68,0,0,0,88.05,117.59Z"/><circle class="cls-14" cx="82.42" cy="125.08" r="6.7"/><circle class="cls-12" cx="98.53" cy="151.36" r="9.52"/><path class="cls-13" d="M102.58,142.76a9.51,9.51,0,0,1-9.09,16.67,9.51,9.51,0,0,0,10.07-16.14C103.24,143.1,102.92,142.92,102.58,142.76Z"/><circle class="cls-14" cx="96.92" cy="150.28" r="6.73" transform="translate(-76.21 105.51) rotate(-42.68)"/><circle class="cls-12" cx="109.81" cy="149.45" r="6.6"/><path class="cls-13" d="M112.62,143.49a6.6,6.6,0,0,1-3.49,12.19,6.53,6.53,0,0,1-2.81-.64,6.61,6.61,0,0,0,10.1-5.57,6.59,6.59,0,0,0-3.8-6Z"/><circle class="cls-14" cx="108.7" cy="148.7" r="4.66"/><circle class="cls-12" cx="107.21" cy="158.8" r="4.81"/><path class="cls-13" d="M109.25,154.44a4.81,4.81,0,0,1-4.59,8.43,4.81,4.81,0,1,0,5.15-8.12A4.4,4.4,0,0,0,109.25,154.44Z"/><circle class="cls-14" cx="106.39" cy="158.25" r="3.4"/><path class="cls-12" d="M106.39,163.6a4,4,0,1,1-4-4A4,4,0,0,1,106.39,163.6Z"/><path class="cls-13" d="M104.1,160a4,4,0,0,1-3.82,7,4,4,0,1,0,3.82-7Z"/><path class="cls-14" d="M104.55,163.15a2.83,2.83,0,1,1-2.83-2.83,2.83,2.83,0,0,1,2.83,2.83Z"/><circle class="cls-12" cx="241.44" cy="118.95" r="6.2"/><path class="cls-13" d="M244.08,113.35a6.2,6.2,0,0,1-5.92,10.86,6.2,6.2,0,1,0,5.92-10.86Z"/><path class="cls-14" d="M244.78,118.25a4.39,4.39,0,1,1-4.4-4.38h0A4.39,4.39,0,0,1,244.78,118.25Z"/><circle class="cls-12" cx="212.19" cy="113.87" r="4.14"/><path class="cls-13" d="M214,110.13a4.13,4.13,0,0,1-2.19,7.64,4,4,0,0,1-1.76-.4,4.13,4.13,0,1,0,3.95-7.24Z"/><path class="cls-14" d="M214.41,113.4a2.93,2.93,0,1,1-2.94-2.92h0A2.94,2.94,0,0,1,214.41,113.4Z"/><path class="cls-12" d="M105.34,175.15a3,3,0,1,1-2.94-3,2.95,2.95,0,0,1,2.94,3Z"/><path class="cls-13" d="M103.65,172.49a2.94,2.94,0,0,1-1.56,5.44,2.85,2.85,0,0,1-1.25-.28,2.94,2.94,0,1,0,3-5.05Z"/><path class="cls-14" d="M104,174.82a2.09,2.09,0,1,1-2.1-2.08h0a2.08,2.08,0,0,1,2.08,2.08Z"/><path class="cls-12" d="M254.14,109.54a3,3,0,1,1,0-.05Z"/><path class="cls-13" d="M252.45,106.88a2.95,2.95,0,0,1-1.56,5.44,3,3,0,0,1-1.26-.28,2.93,2.93,0,0,0,4.49-2.52A2.94,2.94,0,0,0,252.45,106.88Z"/><path class="cls-14" d="M252.78,109.21a2.09,2.09,0,1,1-2.1-2.08h0A2.09,2.09,0,0,1,252.78,109.21Z"/><path class="cls-12" d="M245.2,96.8a3,3,0,1,1-2.95-3,2.95,2.95,0,0,1,2.95,3Z"/><path class="cls-13" d="M243.51,94.14A2.94,2.94,0,0,1,242,99.58a2.85,2.85,0,0,1-1.25-.28,2.94,2.94,0,1,0,3-5l-.2-.11Z"/><path class="cls-14" d="M243.84,96.47a2.09,2.09,0,1,1-2.09-2.09h0a2.08,2.08,0,0,1,2.08,2.08Z"/><circle class="cls-12" cx="101.77" cy="133.62" r="11.61"/><path class="cls-13" d="M106.71,123.12a11.59,11.59,0,0,1-11.08,20.33,11.6,11.6,0,1,0,11.08-20.33Z"/><circle class="cls-14" cx="99.82" cy="132.32" r="8.21"/><circle class="cls-12" cx="119" cy="138.63" r="9.19"/><path class="cls-13" d="M122.91,130.33a9.17,9.17,0,0,1-8.77,16.08,9.07,9.07,0,0,0,4.86,1.4,9.18,9.18,0,0,0,3.91-17.48Z"/><circle class="cls-14" cx="117.44" cy="137.59" r="6.5"/><circle class="cls-12" cx="143.25" cy="138.23" r="7.41"/><path class="cls-13" d="M146.4,131.54a7.4,7.4,0,0,1-7.07,13,7.4,7.4,0,0,0,7.28-12.89Z"/><circle class="cls-14" cx="142" cy="137.4" r="5.24"/><circle class="cls-12" cx="174.66" cy="140.81" r="7.41"/><path class="cls-13" d="M177.81,134.11a7.4,7.4,0,0,1-7.07,13A7.4,7.4,0,0,0,178,134.22Z"/><circle class="cls-14" cx="173.4" cy="139.97" r="5.24"/><circle class="cls-12" cx="204.25" cy="136.88" r="7.41"/><path class="cls-13" d="M207.41,130.19a7.41,7.41,0,0,1-7.08,13,7.41,7.41,0,1,0,7.7-12.66C207.83,130.41,207.62,130.29,207.41,130.19Z"/><circle class="cls-14" cx="203" cy="136.05" r="5.24"/><circle class="cls-12" cx="234.84" cy="140.51" r="7.41"/><path class="cls-13" d="M238,133.82a7.41,7.41,0,0,1-7.08,13,7.41,7.41,0,1,0,7.7-12.66C238.42,134,238.21,133.92,238,133.82Z"/><circle class="cls-14" cx="233.59" cy="139.68" r="5.24"/><circle class="cls-12" cx="254.14" cy="138.63" r="7.41" transform="translate(76.59 367.28) rotate(-80.78)"/><path class="cls-13" d="M257.29,131.93a7.4,7.4,0,0,1-7.07,13A7.4,7.4,0,0,0,257.5,132Z"/><circle class="cls-14" cx="252.89" cy="137.79" r="5.24"/><circle class="cls-12" cx="273.02" cy="141.29" r="7.41"/><path class="cls-13" d="M276.18,134.59a7.41,7.41,0,0,1-7.08,13,7.41,7.41,0,0,0,7.7-12.66C276.6,134.81,276.39,134.69,276.18,134.59Z"/><circle class="cls-14" cx="271.77" cy="140.46" r="5.24"/><circle class="cls-12" cx="116.41" cy="126.48" r="9.19"/><path class="cls-13" d="M120.32,118.18a9.18,9.18,0,0,1-8.77,16.09,9.18,9.18,0,1,0,9.77-15.55A9.64,9.64,0,0,0,120.32,118.18Z"/><circle class="cls-14" cx="114.85" cy="125.44" r="6.5"/><circle class="cls-12" cx="158.98" cy="139.07" r="9.19"/><path class="cls-13" d="M162.89,130.77a9.18,9.18,0,0,1-4.86,17,9,9,0,0,1-3.91-.89,9.08,9.08,0,0,0,4.86,1.41,9.18,9.18,0,0,0,3.91-17.49Z"/><circle class="cls-14" cx="157.42" cy="138.03" r="6.5"/><circle class="cls-12" cx="133.71" cy="141.85" r="9.19"/><path class="cls-13" d="M137.62,133.54a9.18,9.18,0,0,1-8.77,16.09,9.18,9.18,0,1,0,9.77-15.55A9.64,9.64,0,0,0,137.62,133.54Z"/><circle class="cls-14" cx="132.16" cy="140.81" r="6.5"/><circle class="cls-12" cx="189.95" cy="137.79" r="9.19"/><path class="cls-13" d="M193.86,129.49a9.18,9.18,0,0,1-8.77,16.09A9.18,9.18,0,1,0,194.86,130,9.64,9.64,0,0,0,193.86,129.49Z"/><circle class="cls-14" cx="188.39" cy="136.75" r="6.5"/><circle class="cls-12" cx="212.19" cy="145.22" r="9.19"/><path class="cls-13" d="M216.1,136.92A9.18,9.18,0,0,1,207.33,153a9.18,9.18,0,0,0,9.77-15.55,9.64,9.64,0,0,0-1-.54Z"/><circle class="cls-14" cx="210.63" cy="144.19" r="6.5"/><circle class="cls-12" cx="223.82" cy="136.23" r="9.19"/><path class="cls-13" d="M227.73,127.92A9.18,9.18,0,0,1,219,144a9.18,9.18,0,0,0,9.77-15.55,9.64,9.64,0,0,0-1-.54Z"/><circle class="cls-14" cx="222.27" cy="135.2" r="6.5"/><circle class="cls-12" cx="126.99" cy="131.1" r="7.69"/><path class="cls-13" d="M130.26,124.15a7.68,7.68,0,0,1-7.33,13.46,7.68,7.68,0,1,0,8.22-13A6.45,6.45,0,0,0,130.26,124.15Z"/><circle class="cls-14" cx="125.69" cy="130.23" r="5.44"/><circle class="cls-12" cx="169.51" cy="130.77" r="7.69"/><path class="cls-13" d="M172.78,123.82a7.68,7.68,0,0,1-7.34,13.46,7.68,7.68,0,1,0,8.16-13A6.53,6.53,0,0,0,172.78,123.82Z"/><circle class="cls-14" cx="168.21" cy="129.9" r="5.44"/><circle class="cls-12" cx="212.19" cy="129.9" r="7.69"/><path class="cls-13" d="M215.46,123a7.68,7.68,0,0,1-7.34,13.47,7.68,7.68,0,0,0,8-13.1C215.92,123.24,215.7,123.11,215.46,123Z"/><circle class="cls-14" cx="210.89" cy="129.04" r="5.44"/><circle class="cls-12" cx="242.74" cy="136.04" r="7.69"/><path class="cls-13" d="M246,129.09a7.68,7.68,0,0,1-7.33,13.46,7.68,7.68,0,1,0,8.22-13A6.45,6.45,0,0,0,246,129.09Z"/><circle class="cls-14" cx="241.44" cy="135.18" r="5.44"/><circle class="cls-12" cx="263.88" cy="137.78" r="7.69"/><path class="cls-13" d="M267.17,130.85a7.68,7.68,0,0,1-7.34,13.46,7.68,7.68,0,1,0,8.16-13A6.53,6.53,0,0,0,267.17,130.85Z"/><circle class="cls-14" cx="262.6" cy="136.93" r="5.44"/><circle class="cls-12" cx="113.32" cy="105.9" r="6.17"/><path class="cls-13" d="M115.94,100.33a6.16,6.16,0,0,1-5.88,10.8,6.16,6.16,0,0,0,6.54-10.44A7,7,0,0,0,115.94,100.33Z"/><path class="cls-14" d="M116.64,105.2a4.36,4.36,0,1,1-4.36-4.36,4.36,4.36,0,0,1,4.36,4.36Z"/><circle class="cls-12" cx="122.93" cy="86.88" r="4.64"/><path class="cls-13" d="M124.9,82.69a4.63,4.63,0,0,1-4.43,8.12,4.64,4.64,0,0,0,6.39-1.49,4.62,4.62,0,0,0-2-6.63Z"/><circle class="cls-14" cx="122.14" cy="86.35" r="3.28"/><path class="cls-12" d="M113.73,74A2.79,2.79,0,1,1,111,71.16h0A2.77,2.77,0,0,1,113.73,74Z"/><path class="cls-13" d="M112.13,71.43a2.78,2.78,0,0,1-1.47,5.15,2.73,2.73,0,0,1-1.19-.27,2.88,2.88,0,0,0,1.48.42,2.78,2.78,0,0,0,1.18-5.3Z"/><path class="cls-14" d="M112.45,73.63a2,2,0,1,1-2-2A2,2,0,0,1,112.45,73.63Z"/><path class="cls-12" d="M86.81,107.13A2.79,2.79,0,1,1,84,104.34a2.79,2.79,0,0,1,2.81,2.79Z"/><path class="cls-13" d="M85.21,104.61a2.78,2.78,0,0,1-1.48,5.14,2.82,2.82,0,0,1-1.18-.26,2.78,2.78,0,1,0,2.79-4.81Z"/><path class="cls-14" d="M85.52,106.81a2,2,0,1,1-2-2A2,2,0,0,1,85.52,106.81Z"/><rect class="cls-7" x="150.1" y="141.84" width="48.51" height="7.93"/></svg>