<svg id="Layer_13" data-name="Layer 13" xmlns="http://www.w3.org/2000/svg" viewBox="0 0 350 270"><defs><style>.cls-1{fill:#fbf9f4;}.cls-2{fill:#f4c527;}.cls-3{fill:#fada4f;}.cls-4{fill:#fffffe;}.cls-5{fill:#b64f41;}.cls-6{fill:#f4a377;}.cls-7{fill:#b1453b;}.cls-8{fill:#e26e65;}</style></defs><rect class="cls-1" width="350" height="270"/><path class="cls-2" d="M175.1,72c-8.8-1-19.67-29.47-19.67-29.47s1.71,30.52-6,34.92c-5.16,3-22.23-8.42-22.23-8.42s5.44,19.84,1,23.83c-6.57,5.94-35.06-5.1-35.06-5.1s24,19.21,22,27.81c-1.49,6.14-23,10.46-23,10.46s20.14,9.23,20.26,15.63c.16,8.85-27.25,22.64-27.25,22.64s30.27-5,35.35,2.3c3.56,5.07-7,23.78-7,23.78S133,182.41,138,186.05s3.62,24,3.62,24,14.54-15.16,20.34-13.33c8.44,2.67,13.11,32.91,13.11,32.91s4.68-30.18,13.11-32.91c5.67-1.83,20.11,12.79,20.11,12.79S207,189,212.17,186.05c7.66-4.46,33.23,12.27,33.23,12.27s-19.52-23.78-15.68-31.76c2.82-5.89,25.5-5.61,25.5-5.61s-18.54-12.93-17.4-19.33c1.56-8.72,31.36-16.48,31.36-16.48s-30.38-1.57-34.1-9.61c-2.4-5.18,9.52-20.78,9.52-20.78s-19.34,2.7-22.63-1.93c-5.14-7.21,8.73-34.33,8.73-34.33s-21.5,21.58-29.95,18.92c-5.49-1.73-8.92-21.23-8.92-21.23S180.81,72.61,175.1,72Z"/><circle class="cls-3" cx="177.07" cy="135.26" r="53.17" transform="translate(32.32 304.66) rotate(-86.86)"/><path class="cls-4" d="M187.59,123.74c-.63,5,2,9.44,5.86,9.93s7.51-3.17,8.14-8.17-2-9.44-5.86-9.93S188.22,118.74,187.59,123.74Z"/><path class="cls-4" d="M169.54,123.74c.63,5-2,9.44-5.86,9.93s-7.51-3.17-8.14-8.17,2-9.44,5.86-9.93S168.91,118.74,169.54,123.74Z"/><path class="cls-5" d="M192.83,125.62c-.21,1.72.69,3.26,2,3.42s2.59-1.09,2.8-2.81-.68-3.25-2-3.42S193.05,123.9,192.83,125.62Z"/><path class="cls-5" d="M165.79,125.62c.22,1.72-.68,3.26-2,3.42s-2.59-1.09-2.81-2.81.69-3.25,2-3.42S165.58,123.9,165.79,125.62Z"/><path class="cls-6" d="M197.73,141.81c.42,2,3.15,3.21,6.1,2.6s5-2.75,4.58-4.8-3.15-3.2-6.1-2.59S197.31,139.77,197.73,141.81Z"/><path class="cls-6" d="M158.09,141.3c-.42,2-3.15,3.2-6.1,2.59s-5-2.75-4.58-4.79,3.15-3.21,6.1-2.6S158.51,139.25,158.09,141.3Z"/><path class="cls-7" d="M164.83,145.89a1.49,1.49,0,0,0-2.05,1.81c2,6,7.62,11,14.29,11s12.33-5,14.3-11a1.49,1.49,0,0,0-2.06-1.81c-2.73,1.26-7.19,3.38-12.24,3.38S167.56,147.15,164.83,145.89Z"/><path class="cls-8" d="M177.45,160.38c.72,3.47,3.47,5.84,6.15,5.29s4.27-3.82,3.56-7.29-3.47-5.84-6.15-5.29S176.74,156.91,177.45,160.38Z"/><path class="cls-8" d="M171.86,157.66a13.61,13.61,0,0,0,5.21,1.05,14.08,14.08,0,0,0,8.87-3.22,7.79,7.79,0,0,0-6.56-3.1C175.53,152.39,172.35,154.68,171.86,157.66Z"/><path class="cls-2" d="M220.05,130.23a1.55,1.55,0,1,0,1.55-1.55A1.55,1.55,0,0,0,220.05,130.23Z"/><circle class="cls-2" cx="215.7" cy="120.12" r="1.2"/><circle class="cls-2" cx="181.25" cy="92.22" r="1.19"/><circle class="cls-2" cx="180.05" cy="104.16" r="1.47"/><path class="cls-2" d="M172.15,115.19a1.49,1.49,0,1,0,1.48-1.48A1.49,1.49,0,0,0,172.15,115.19Z"/><path class="cls-2" d="M182.31,127.32a.94.94,0,1,0,.94-.93A.94.94,0,0,0,182.31,127.32Z"/><path class="cls-2" d="M201.31,154.57a1.06,1.06,0,1,0,2.11,0,1.06,1.06,0,0,0-2.11,0Z"/><path class="cls-2" d="M216,153.24a1.34,1.34,0,1,0,1.34-1.33A1.33,1.33,0,0,0,216,153.24Z"/><circle class="cls-2" cx="196.04" cy="170.83" r="1.14"/><path class="cls-2" d="M167,174.49a1.12,1.12,0,1,0,1.11-1.12A1.12,1.12,0,0,0,167,174.49Z"/><path class="cls-2" d="M152.94,167.18a1.25,1.25,0,1,0,1.25-1.25A1.25,1.25,0,0,0,152.94,167.18Z"/><path class="cls-2" d="M139.44,160a1.89,1.89,0,1,0,1.89-1.89A1.89,1.89,0,0,0,139.44,160Z"/><path class="cls-2" d="M150.13,152.39a1.14,1.14,0,1,0,1.13-1.13A1.14,1.14,0,0,0,150.13,152.39Z"/><path class="cls-2" d="M134.75,140.68a1.21,1.21,0,1,0,1.2-1.2A1.21,1.21,0,0,0,134.75,140.68Z"/><path class="cls-2" d="M139.44,123.17a2.06,2.06,0,1,0,2.06-2.06A2.07,2.07,0,0,0,139.44,123.17Z"/><path class="cls-2" d="M142.9,107.56a1.61,1.61,0,1,0,1.61-1.61A1.61,1.61,0,0,0,142.9,107.56Z"/><path class="cls-2" d="M182,170.35a1,1,0,0,1-.61-.2,6.47,6.47,0,0,0-8.46,0,1,1,0,1,1-1.24-1.68,8.56,8.56,0,0,1,10.93,0,1,1,0,0,1-.62,1.88Z"/><path class="cls-2" d="M167.38,109.88a1.06,1.06,0,0,1-.61-.2,6.47,6.47,0,0,0-8.46,0,1,1,0,0,1-1.46-.23,1,1,0,0,1,.23-1.45A8.54,8.54,0,0,1,168,108a1,1,0,0,1-.62,1.88Z"/><path class="cls-2" d="M189.75,109.88a1.06,1.06,0,0,0,.61-.2,6.47,6.47,0,0,1,8.46,0,1,1,0,0,0,1.46-.23,1,1,0,0,0-.23-1.45,8.54,8.54,0,0,0-10.92,0,1,1,0,0,0,.62,1.88Z"/></svg>