<svg id="Layer_8" data-name="Layer 8" xmlns="http://www.w3.org/2000/svg" viewBox="0 0 350 270"><defs><style>.cls-1{fill:#e2e3e8;}.cls-2{fill:#e32021;}</style></defs><rect class="cls-1" width="350" height="270"/><path class="cls-2" d="M296.29,140.85c-4.81-1.65-9.5-1-14.13.76-4.9,1.56-9.28.7-12.57-3.33-3.5-4.3-2.61-9.14-.6-13.72,1.47-3.33,3.45-6.44,5.23-9.63a35.2,35.2,0,0,0,4.16-9.68c1.29-6-.93-11.57-5.51-13.82s-8.1-.91-12.6,4.6c-3.31,4.06-7.14,4.88-11.83,2.59-3.67-1.79-5.63-5-6.94-8.61C240,85.8,239.65,81.35,239,77c-.87-5.53-2.43-10.75-7.24-14.27-5.78-4.24-12.89-1.11-13.56,6-.21,2.19.17,4.43.15,6.65,0,3.14-1.31,5.56-4.36,6.79s-5.6.19-7.71-2.13c-.53-.58-1-1.25-1.48-1.83-3.63-4.14-6.85-4.06-10.33.31-1.14,1.43-2.07,3-3.18,4.47-4.36,5.8-10.79,6.4-16.24,1.54-3.14-2.81-4.67-6.55-5.9-10.44-1.29-4.11-2.36-8.29-3.83-12.33-1.56-4.3-4.21-7.82-8.64-9.62a8.75,8.75,0,0,0-8.93.85c-2.86,2.07-3.49,5-3,8.36.53,3.79,2.68,6.74,4.74,9.76s4.07,6.11,4.5,9.88c.33,2.91-.4,5.51-2.86,7.27s-5.22,1.52-7.75,0c-2.13-1.27-4.08-2.83-6.18-4.13-6-3.73-11.47-1.28-12.7,5.73a23.11,23.11,0,0,1-2.24,7.45c-2.86,5.13-7,5.75-11.1,1.64-.46-.46-.83-1-1.28-1.48C108,95.64,106,94,103.3,94.69c-2.9.79-2.64,3.57-2.92,5.84-.59,4.69-2.84,7-7.47,7.53a13.67,13.67,0,0,1-8.7-1.65c-2.93-1.72-5.81-3.52-8.76-5.2s-6.16-2.93-9.68-2.62c-3.23.28-5.8,1.82-6.94,5s-.12,5.88,2.29,8.15a21,21,0,0,0,9.34,4.69,63.94,63.94,0,0,1,8.2,2.57c2.07.87,5,2,4,4.86s-3.39.54-5.09.21c-4.53-.87-9.35,1.74-10.62,6-1.15,3.84,1.54,7.84,6.23,9.42,3.16,1.07,6.17.57,9.19-.5,1.89-.67,3.76-.55,4.87,1.3s.66,3.76-.78,5.4a12.45,12.45,0,0,1-5.36,3.11c-9.66,3.61-19.33,7.21-29,10.87-3.71,1.4-7.17,3.22-9.26,6.85-1.47,2.55-1.78,5.19-.26,7.81s4.07,3.51,7,3.41c3.48-.11,6.23-1.8,8.67-4.07s4.59-4.65,7-6.84,5.46-4,9.11-4c3.35.07,5.92,1.45,6.87,4.75s-.85,5.47-3.57,7.07c-2.12,1.26-4.61,2-6.37,3.79s-3.31,3.7-1.62,6.2c1.57,2.34,3.93,2.27,6.31,1.26l18.69-8.06a6.22,6.22,0,0,0,.58-.63,2.11,2.11,0,0,0,.3-.54,2.11,2.11,0,0,1-.3.54,6.22,6.22,0,0,1-.58.63,7.64,7.64,0,0,1,5.44.8c2,2.7,1.37,5.18-.79,7.38-1.92,1.95-4,3.75-6,5.6-2.34,2.14-4.39,4.5-5.25,7.65-1.44,5.29,2.36,9.49,7.77,8.56a13,13,0,0,0,8.66-5.59c2.85-4.06,5.45-8.29,8.22-12.41a19,19,0,0,1,8.85-7.46c6.59-2.58,12.62,1.05,13.32,8a66,66,0,0,0,.68,6.62c.49,2.36,1.61,4.51,4.27,5.09s4.42-1.07,5.88-3c1.6-2.14,2-4.8,3.08-7.17,3-6.62,10.22-7.57,14.73-1.88a15.35,15.35,0,0,1,3.3,10.23c-.13,4.83-.58,9.65-.66,14.47-.06,4.28.92,8.33,4,11.56,5,5.24,12.35,3.59,14.56-3.26a23.67,23.67,0,0,0,.54-11.25,42.54,42.54,0,0,1-.59-9.76c.41-6,2.85-9.11,8.71-10.46,6.1-1.41,12.26-2.6,18.41-3.79,8.24-1.59,15.29-.2,19.94,7.76,1.47,2.52,3.77,4.64,7.06,4,3.59-.75,3.68-4,4-6.83.88-7,5-10.27,12.05-9.58a25.07,25.07,0,0,1,8.51,2.79c4.12,2,8.21,4,12.76,4.9s8.86.51,12.86-1.91,6-6.62,5.29-10.57c-.81-4.56-3.83-7-8.11-8-1.64-.39-3.37-.35-5.05-.58a5.27,5.27,0,0,1-4.95-4.76c-.43-2.9,1.1-4.87,3.69-5.72a66.81,66.81,0,0,1,8-1.84c3.61-.72,7.19-1.49,10.09-3.95C302.69,149.37,301.9,143.63,296.29,140.85ZM138.62,130.49a6.34,6.34,0,0,1-.14.8A6.34,6.34,0,0,0,138.62,130.49Zm-4.58.84-.75.06Zm-2.26.3-1.51.3Zm-22,18.66a10.41,10.41,0,0,1-5.28-1.07,10.41,10.41,0,0,0,5.28,1.07c3.65,0,6.5-1.33,8.05-3.6C116.24,149,113.39,150.29,109.74,150.29Zm-10.45,21.5c-.14-1-.63-1.7-1.68-1.74,1,0,1.54.75,1.68,1.73Zm-5.48-7.08c1.9-.19,3.73.75,5.54.29.12-1.11.05-2.6,1-3-1,.44-.89,1.93-1,3C97.54,165.46,95.71,164.52,93.81,164.71Zm58.56-18.23c.11-3.25,0-6.5,0-9.75,0-3,.08-6,0-9,.11,3,0,6,0,9C152.4,140,152.48,143.23,152.37,146.48Zm11.81,10.13c.77-1.26,2.69-1.24,4.77-1.15C166.87,155.37,165,155.35,164.18,156.61Zm2.89,4.16.09-.13Zm.14-.19a5.88,5.88,0,0,0,.42-.92A5.88,5.88,0,0,1,167.21,160.58Zm8.09-15.53c0-1.43,0-2.87,0-4.31s.05-2.88,0-4.31c.06,1.43,0,2.87,0,4.31S175.34,143.62,175.3,145.05Zm13.82,12c-.34-.36-.66-.72-.54-1C188.46,156.29,188.78,156.65,189.12,157Zm1.65-1.44-.06,0Zm-.74,5.17c.21-.29.08-.73-.17-1.22C190.11,160,190.24,160.45,190,160.74Z"/><path class="cls-2" d="M120.71,213.4c-.17-.88-.28-1.91-1.46-2s-1.57.8-2,1.6q-3.25,6-6.47,12.07a13.71,13.71,0,0,0-1.57,6c0,4.71,3.36,8.25,7.67,8.14a7.45,7.45,0,0,0,7.11-8.9C123.12,224.63,121.84,219,120.71,213.4Z"/><path class="cls-2" d="M307.93,117.58a5.68,5.68,0,0,0-7.15-3.8,55,55,0,0,0-14.09,7.61,2.55,2.55,0,0,0-1.26,2.68,2.53,2.53,0,0,0,2.5,2.09c2.6.23,5.2.41,7,.55,3.76-.39,6.8.69,9.69-.79A7.18,7.18,0,0,0,307.93,117.58Z"/><path class="cls-2" d="M213.12,218c-2-.44-3.19.5-2.89,2.49.73,4.75,1.48,9.51,2.59,14.19,1,4.09,3.34,5.75,6.53,5.22s5.4-3.59,5.38-7.18C224.71,228.12,217.57,219,213.12,218Z"/><path class="cls-2" d="M185,69.4a1.93,1.93,0,0,0,1.82-1.24c2.92-5.29,5.09-10.81,5.2-16.95a4.32,4.32,0,0,0-2.55-4.45,4.9,4.9,0,0,0-5.41,1.16c-2.18,1.95-2.89,4.54-3,7.51.1,4.19,1.89,8.21,2.42,12.46A1.59,1.59,0,0,0,185,69.4Z"/><path class="cls-2" d="M46.68,148.8c1.64.36,3.31.55,4.92.81a49,49,0,0,0,5.08-.82c2-.55,5.09-.5,5.22-3.13s-3-2.45-4.79-3.09c-3.4-1.2-6.9-2.54-10.61-1.14-1.85.7-3.18,1.93-3.1,4S44.91,148.41,46.68,148.8Z"/><path class="cls-2" d="M82.75,89c1.74,1.71,2.63,5.57,5.62,4.48s1.62-4.79,2.22-6.8A9.94,9.94,0,0,0,89.5,81.3c-1.5-2.71-3.8-4.17-6.8-2.87s-3.28,3.89-2.29,6.62A10.66,10.66,0,0,0,82.75,89Z"/><path class="cls-2" d="M255.52,81.24c2.15-3.56,4.47-7.09,4.87-11.4a3.48,3.48,0,0,0-1.68-3.68,3.64,3.64,0,0,0-4,.36c-2.81,1.78-3.69,4.57-3.81,7.54a15.39,15.39,0,0,0,1.94,6.88C253.51,82.25,254.67,82.64,255.52,81.24Z"/><path class="cls-2" d="M262.53,197.94c-2.79-.1-4,1.34-4,4,0,4.2,2.7,7.83,5.85,7.93s5.42-1.8,5.47-4.71C269.94,201.76,266.22,198.08,262.53,197.94Z"/></svg>