<svg id="Layer_1" data-name="Layer 1" xmlns="http://www.w3.org/2000/svg" viewBox="0 0 350 270"><defs><style>.cls-1{fill:#aed9ff;}.cls-2{fill:#4d7c37;}.cls-3{fill:#b01917;}.cls-4{fill:#dd0a14;}.cls-5{fill:#e63535;}.cls-6{fill:#6b150e;}.cls-7{fill:#ea7a20;}.cls-8{fill:#f39835;}.cls-9{fill:#f6a752;}.cls-10{fill:#984215;}.cls-11{fill:#dbd9d9;}.cls-12{fill:#fff;}.cls-13{fill:#969596;}.cls-14{fill:#f49c25;}.cls-15{fill:#fab937;}.cls-16{fill:#ffeab4;}.cls-17{fill:#bc5217;}.cls-18{fill:#e4232a;}.cls-19{fill:#ef8383;}.cls-20{fill:#6c1419;}.cls-21{fill:#f49e51;}.cls-22{fill:#f8bc87;}.cls-23{fill:#e4a32d;}.cls-24{fill:#fcc859;}.cls-25{fill:#ffe687;}.cls-26{fill:#815413;}.cls-27{fill:#f8d889;}.cls-28{fill:#d70f23;}.cls-29{fill:#c9c6c6;}.cls-30{fill:#817f7f;}.cls-31{fill:#223a8e;}.cls-32{fill:#3056a2;}.cls-33{fill:#090c1a;}.cls-34{fill:#1d1e41;}.cls-35{fill:#d21122;}.cls-36{fill:#f19391;}.cls-37{fill:#ef8114;}.cls-38{fill:#f7ac28;}.cls-39{fill:#b94e17;}.cls-40{fill:#8d1913;}.cls-41{fill:#f1918e;}.cls-42{fill:#c55655;}.cls-43{fill:#ffefc0;}.cls-44{fill:#de7c0b;}</style></defs><rect class="cls-1" width="350" height="270"/><path class="cls-2" d="M350,270H0V239.5a636.74,636.74,0,0,1,350,0Z"/><g id="HEN"><path class="cls-3" d="M112.67,70.69c-9-14.35-20-26.9-27.77-31.64s-13.57,5.05.31,21.3c-13.57-9.46-20.35-2.21-3.94,14.05-11.52-3.16-13.84,6.62.79,16.72-10.21-1-12.42,5.79-.11,12.31-8.41,1.26-6.52,9.57,5.68,11.78-6.42,2.21-6.52,8.68,2.68,10.62-4.26,2.74-1.47,8.15,6.79,7.84-4.16,3.31-.16,8.26,6.47,7.84-3.63,3.68.89,10.36,12.2,6.83,8.1-2.63,6.52-7.83,6.68-17.14S115.87,81.21,112.67,70.69Z"/><path class="cls-4" d="M122.45,131.2c.16-9.31-6.58-50-9.78-60.51-9-14.35-20-26.9-27.77-31.64-4.67-2.86-8.64-.41-8,5.54,5.46,15,21.87,22.8,32.93,33.28.63,1.26-1.27,3.15-.64,4.41-9.93-5.22-16.4-14.35-24.07-22C77.19,54.8,71.61,55,71.66,59.43c7.7,12.93,23.26,18.51,35,27.9a4,4,0,0,1,0,3.79,2.88,2.88,0,0,1-3.16,0c-6.9-7.45-16.06-10.87-23.68-17.06-4-.76-6.64.19-7.58,2.21,7.88,14.67,28.58,17.85,43.27,24.32a18,18,0,0,0-1.27,5C102.67,101,90.77,97.05,79.76,91c-3.13.08-5.2,1-5.92,2.54,11.16,9.83,26.29,13.85,40.4,18.37.63,0,0,1.89-.63,3.15-10.39-4.45-21.94-7-32.54-11.5-2.31.53-3.68,1.65-4.12,3,7.56,8.92,23.42,7.36,34.77,9.75v2.52c-8-1.61-16.54-1.86-24.72-3.44-2.21.92-3.54,2.38-3.85,3.93,8.09,5.13,19.07,2.67,28.57,2.67-3.61,4-13,4.89-21.55,3.88a3.62,3.62,0,0,0-1.82,3.18c7.22,3.47,16.32.81,24-1.38,2.52-1.27.63,1.89,1.26,3.15-5.54.5-11.08,2.21-16.62,2.88a3.94,3.94,0,0,0-1.57,2.71c7.76,3.34,17.26,1.34,23.87-3.06-1,5.84-9.08,7.55-15.92,8.31a3.93,3.93,0,0,0-1,3.05c6.86,1.74,14.35-.91,20.07-5.35C122.55,137.12,122.39,134.4,122.45,131.2Z"/><path class="cls-5" d="M107.44,68.19c-4.87-9.36-19.21-24.68-26.93-27.7,8.8,7.34,21.43,21.56,25.42,28.54C107.83,69.6,107.44,68.19,107.44,68.19Z"/><path class="cls-5" d="M105,82.8C99,74.17,82.69,60.92,74.64,59c9.71,6.09,24.13,18.49,29,24.87C105.62,84.14,105,82.8,105,82.8Z"/><path class="cls-5" d="M109.18,95.42C101.7,88,86.68,83.66,75.13,77.18c10.5,9.14,27,14,32.87,19.5C110,96.65,109.18,95.42,109.18,95.42Z"/><path class="cls-5" d="M111.26,109.72c-7.76-7.16-20.63-8.42-34.73-16.91,10.85,8.72,27.47,13,33.6,18.21C112.1,110.91,111.26,109.72,111.26,109.72Z"/><path class="cls-5" d="M117.05,116.34c-9.14-5.27-22-3.65-37.6-8.82,9.94,6.41,29.66,6.61,36.79,10.34C118.14,117.31,117.05,116.34,117.05,116.34Z"/><path class="cls-5" d="M123.61,120.7c-10-3.46-22.28.51-38.59-1.66,11,4.45,30.37,1,38.07,3.31C124.86,121.46,123.61,120.7,123.61,120.7Z"/><path class="cls-5" d="M128.55,124.28c-10.35-2-22,3.66-38.43,3.83,11.48,2.84,30.2-3.35,38.16-2.13C129.9,124.85,128.55,124.28,128.55,124.28Z"/><path class="cls-5" d="M136.84,131.19c-10.36-2-22,3.66-38.43,3.82,11.48,2.85,30.2-3.34,38.16-2.12C138.19,131.76,136.84,131.19,136.84,131.19Z"/><path class="cls-6" d="M109.86,149.65h0c-4.38,0-6.75-1.93-7.51-3.75a4.05,4.05,0,0,1,.51-4.05c-3.6,0-6.74-1.62-7.57-4a3.71,3.71,0,0,1,1-3.87c-5.1,0-7.56-2.24-8.11-4.12a3.63,3.63,0,0,1,1.41-3.9c-4.12-1-6.65-3.11-6.8-5.66-.13-2,1.29-3.88,3.76-5-7-1.53-10.09-5-10-7.76,0-2.07,1.71-3.63,4.54-4.27-5.51-3.08-8.38-6.5-7.7-9.23.55-2.22,3.43-3.49,7.64-3.32-6.77-4.92-10.37-10.38-9.22-14.09.63-2,2.64-3.16,5.51-3.16a14.45,14.45,0,0,1,3,.34c-6.73-6.87-10-12.81-8.64-16a3.52,3.52,0,0,1,3.56-2c2.25,0,5.2,1.1,8.46,3.11-7-8.84-8-15.44-6.5-18.76a4.28,4.28,0,0,1,4-2.63,7.58,7.58,0,0,1,3.88,1.24c7.75,4.75,19,17.5,27.87,31.74v.08c3.06,10,10,51,9.79,60.6v4.07c.09,6.91.15,11.08-6.9,13.37A20.61,20.61,0,0,1,109.86,149.65Zm-5.49-8.51-.58.59a3.53,3.53,0,0,0-.86,3.93c.68,1.62,2.86,3.36,6.93,3.36a19.79,19.79,0,0,0,5.81-1c6.61-2.14,6.56-5.92,6.47-12.76v-4.09c.16-9.51-6.69-50.28-9.75-60.37-8.87-14.15-20-26.8-27.65-31.5a7,7,0,0,0-3.55-1.15,3.68,3.68,0,0,0-3.48,2.27c-1.54,3.34-.31,10.27,7.75,19.71L87.05,62l-2-1.41c-3.84-2.68-7.34-4.16-9.86-4.16a3,3,0,0,0-3,1.6c-1,2.38,1,7.86,9.29,16.12l.85.85-1.16-.32a15,15,0,0,0-3.93-.59c-2.61,0-4.36,1-4.9,2.72-.86,2.73,1.22,8,9.89,14l1,.69L82,91.43c-.63-.05-1.25-.08-1.83-.08-3.48,0-5.82,1.06-6.27,2.85-.49,2,1.4,5.36,8.17,9l.85.45-1,.14c-3,.45-4.86,1.88-4.89,3.81,0,2.61,3.26,6,10.58,7.35l1.19.21-1.15.4c-2.79,1-4.46,2.79-4.33,4.77.14,2.39,2.75,4.35,7,5.24l.75.16-.65.42c-1.48,1-2.11,2.27-1.72,3.6.57,1.91,3.38,3.83,8.33,3.65h1l-.76.6c-1.37,1.09-1.87,2.42-1.4,3.74.73,2.09,3.56,3.55,6.89,3.55h.77Z"/><path class="cls-6" d="M103.62,79.26A192.91,192.91,0,0,1,83.85,59.21l.49-.41a191.75,191.75,0,0,0,19.7,20Z"/><path class="cls-6" d="M102.74,88.56A134,134,0,0,1,80.51,74.08l.41-.48A133.3,133.3,0,0,0,103,88Z"/><path class="cls-6" d="M102.35,101.3a155.52,155.52,0,0,1-20.46-9.91l.33-.54a154,154,0,0,0,20.36,9.86Z"/><path class="cls-6" d="M104.4,111.52a88.28,88.28,0,0,1-22.6-7.82l.3-.55a88.14,88.14,0,0,0,22.42,7.75Z"/><path class="cls-6" d="M105.41,117.53a98.27,98.27,0,0,1-17.85-2l.14-.62a96.6,96.6,0,0,0,18.34,2v.63Z"/><path class="cls-6" d="M94.69,126.31a35.21,35.21,0,0,1-4.92-.28l.1-.63c.06,0,6.62,1,17.06-.93l.11.62A66.46,66.46,0,0,1,94.69,126.31Z"/><path class="cls-6" d="M97.12,134v-.63a63.81,63.81,0,0,0,16.1-3.5l.23.59A64,64,0,0,1,97.12,134Z"/><path class="cls-6" d="M103.61,141.82l-.08-.63c.08,0,8.25-1.09,14.53-5.52l.36.52C112,140.7,103.69,141.81,103.61,141.82Z"/><path class="cls-7" d="M128.76,104.85c-2-9.15-8.42-27.3-15.78-36.66s-13.46-2.63-7.57,8.41c-10.21-7.25-14.73-1.68-5.16,9.4-6.2-1.37-7.54,6.81,1.06,12.17-7.74-.31-11.67,6.31-.32,12.31-6.07,1.34-4,7,4.21,9.47-5.55,2.13-3.66,8.36,5,9.23-5.52,2.6.24,8,9.39,5.31C125.6,129.86,128.76,104.85,128.76,104.85Z"/><path class="cls-8" d="M113,68.19c-7.36-9.36-13.46-2.63-7.57,8.41-10.23-7.25-14.75-1.68-5.18,9.4-2.24-.5-3.84.26-4.57,1.67,3.06,7.7,10.81,11.44,18.56,14.21a28.36,28.36,0,0,1-13.39-3.72c-3.07,0-5.48,1.09-6.46,2.8,3.72,6.46,13.65,8.74,20.48,11-5.34,2.13-10.23-.7-15.43-2.39.49.3,1,.59,1.55.89-1.85.41-2.94,1.23-3.33,2.23,4.22,4.79,12.6,6.12,19.11,5.58-3.71,2.78-8.1,2.83-12.17,1.92a4.3,4.3,0,0,0-2.39,2.5c4.07,3.52,10.76,4,15.82,2.52a24.35,24.35,0,0,0,7.37-3.07,147.25,147.25,0,0,0,3.36-17.28C126.71,95.7,120.34,77.55,113,68.19Z"/><path class="cls-9" d="M118.66,89.86c-1.26,3.15,0,5.68.63,8.2-2.52,0-4.42-1.26-6.94-1.89a75.39,75.39,0,0,0,6.94,7.57c-1.89,0-3.15,1.26-5.05.63,0,1.9,2.53,1.27,3.16,3.16h-3.16c.63,3.16,3.79,3.79,5.68,5.68-1.89.63-4.41.63-6.31,1.89,4,1.34,8.67,2.36,13.06,1.72,1.38-6.38,2.09-12,2.09-12-2-8.75-7.86-25.69-14.8-35.35,2.43,7.09,5.41,13.87,6,21.62A1.35,1.35,0,0,1,118.66,89.86Z"/><path class="cls-10" d="M114.78,135.51h0c-4.09,0-6.61-1.7-7-3.38a2.66,2.66,0,0,1,1.43-2.79c-4.75-.73-7.16-3.12-7.45-5.28-.23-1.67.71-3.16,2.53-4.1-5-1.7-7.21-4.45-7.13-6.51,0-1.4,1.12-2.51,3-3.1-4.79-2.69-7.13-5.79-6.45-8.57.57-2.3,3.12-3.82,6.56-4-4.52-3.18-5.87-7.13-5.17-9.58a3.86,3.86,0,0,1,4.37-2.73c-3.85-4.62-5.53-8.67-4.5-10.93A2.84,2.84,0,0,1,97.8,73c1.78,0,4.16.93,6.78,2.64-2-4.25-2.43-8.21-1-10.51a3.32,3.32,0,0,1,2.93-1.71c2,0,4.45,1.62,6.76,4.55,7.24,9.21,13.73,27.4,15.84,36.79v.11c-.13,1-3.24,25.19-9.27,29.82h-.1A17.4,17.4,0,0,1,114.78,135.51Zm-14-37.06c-3.35,0-6,1.4-6.46,3.48-.64,2.57,1.91,5.65,6.82,8.24l.76.4-.84.19c-2,.45-3.2,1.42-3.25,2.72-.07,1.85,2.24,4.57,7.48,6.13l.88.27-.86.33c-2,.78-3.12,2.19-2.91,3.77.28,2,2.81,4.35,7.85,4.85l1.14.11-1,.49c-1.46.69-2.15,1.6-1.94,2.57.32,1.39,2.66,2.88,6.37,2.88h0a16.49,16.49,0,0,0,4.68-.71c5.66-4.46,8.81-28,9-29.31-2.11-9.35-8.54-27.36-15.71-36.48-2.18-2.78-4.41-4.31-6.26-4.31a2.71,2.71,0,0,0-2.39,1.4c-1.09,1.82-1.24,5.65,1.61,11l.63,1.18-1.1-.78c-2.91-2.07-5.54-3.21-7.42-3.21a2.31,2.31,0,0,0-2.26,1.2c-.75,1.65.16,5.37,5,10.91l.63.72-.93-.21c-2.25-.49-4,.35-4.49,2.15-.68,2.39.83,6.37,5.77,9.45l1,.64-1.2,0Z"/><path class="cls-10" d="M104.56,75.62l.55-.3a37.72,37.72,0,0,0,5.2,7.22A24.4,24.4,0,0,1,104.56,75.62Z"/><path class="cls-10" d="M99.78,85.9l.45-.45a39.16,39.16,0,0,0,7,5.77A24.13,24.13,0,0,1,99.78,85.9Z"/><path class="cls-10" d="M100.68,98.11l.34-.53a26.54,26.54,0,0,0,7.35,3.59S105.32,101.1,100.68,98.11Z"/><path class="cls-10" d="M100.13,110.34l.3-.56a29.05,29.05,0,0,0,8.49,2.91A21,21,0,0,1,100.13,110.34Z"/><path class="cls-10" d="M104.37,120l.18-.6a21.32,21.32,0,0,0,6.76,1.19A17.14,17.14,0,0,1,104.37,120Z"/><path class="cls-10" d="M111.76,129.51a13.93,13.93,0,0,1-1.91-.09l.06-.63a19.45,19.45,0,0,0,6.92-.58A10.34,10.34,0,0,1,111.76,129.51Z"/><path class="cls-3" d="M271.91,104.93c3.26-4.89,5.84-13.3,3.1-14.75s-7.57,4-10.51,7c2.84-8.1,2.84-15.88-.74-15.88s-14.25,8.2-19.3,17.83c-.58,11.09-1.58,55.85,1.57,63.74,9.31-2.16,17.31-8.68,19.83-14.2s0-7.57-3.57-7c3.57-2.52,10.15-7,12.57-13.2s-1.32-6.89-5.95-5c3.21-2.89,8.73-9.15,9.37-14.41S276,102.88,271.91,104.93Z"/><path class="cls-4" d="M244.13,146.08c10.64-5,26.44-8.38,27-20.63-10,3.63-18.33,9.86-27.16,15.19C244,142.51,244.06,144.33,244.13,146.08Z"/><path class="cls-4" d="M273,105.25c-8.3,9.4-19,14.92-29.18,21.67,0,3.53,0,7.11.06,10.58,14.12-7,27.57-15.64,32.27-31.62C276.8,104.62,273.65,105.25,273,105.25Z"/><path class="cls-4" d="M264.38,81.36a2.16,2.16,0,0,0-.62-.09c-3.58,0-14.25,8.2-19.3,17.83-.13,2.49-.28,6.69-.4,11.78C254.68,103.56,265.8,93.72,264.38,81.36Z"/><path class="cls-4" d="M272.79,90.19c-2.68,1-6,4.71-8.29,7,.17-.49.33-1,.48-1.46-5.06,8-12.88,13.71-21,19.07,0,2.29-.07,4.72-.1,7.2,11.31-6.55,22.25-13.4,29.78-24.91C275.08,94.66,275.07,91.19,272.79,90.19Z"/><path class="cls-5" d="M245.23,100.44c4.27-7.38,11.69-14.68,16.82-17.28-4.26,3.79-13.41,15.15-15.7,18.62C244.61,103.2,245.23,100.44,245.23,100.44Z"/><path class="cls-5" d="M256,110.32c4.27-7.39,11.7-14.68,16.82-17.28-4.26,3.78-13.41,15.15-15.69,18.62C255.36,113.08,256,110.32,256,110.32Z"/><path class="cls-5" d="M256.84,124.79c4.27-7.38,11.7-14.68,16.82-17.28-4.26,3.79-13.41,15.15-15.69,18.62C256.23,127.55,256.84,124.79,256.84,124.79Z"/><path class="cls-4" d="M260.39,146.9c-3.53-3.09-9.85-.61-16.14,2a102.76,102.76,0,0,0,1,10.66C252.86,155.21,264.63,150.61,260.39,146.9Z"/><path class="cls-6" d="M272.75,104.2c2.4-4,4.32-9.7,3.57-12.64A2.27,2.27,0,0,0,274,89.63c-2.59,0-6,3.46-8.7,6.25l-.09.08c1.92-6.07,2.18-11.66.59-13.9a2.41,2.41,0,0,0-2-1.06c-3.82,0-14.55,8.41-19.58,18v.13c-.56,10.78-1.62,55.82,1.6,63.88l.1.25.27-.06c9.78-2.27,17.63-9.1,20-14.38,1.51-3.3,1.11-5.11.51-6a3.68,3.68,0,0,0-3.27-1.52c3.76-2.65,9.5-6.9,11.76-12.69.93-2.39,1-4.15.29-5.23s-2.68-1.47-5.24-.72c3.25-3.19,7.81-8.78,8.39-13.59.25-2.06,0-3.56-.83-4.46C276.76,103.38,275,103.28,272.75,104.2Zm5.21,4.69c-.62,5.2-6.11,11.38-9.26,14.22l-1.3,1.18,1.63-.65a10.6,10.6,0,0,1,3.75-.88,2.41,2.41,0,0,1,2.14.88c.61.88.48,2.49-.36,4.64-2.3,5.9-8.42,10.21-12.08,12.79l-1.46,1,1.31-.19a5.62,5.62,0,0,1,1-.08,3.2,3.2,0,0,1,2.8,1.23c.74,1.16.55,3-.55,5.45-2.33,5.09-9.88,11.68-19.35,14-2.89-8.19-2.12-50.6-1.46-63.29,5.08-9.64,15.7-17.6,19-17.6a1.82,1.82,0,0,1,1.54.84c1.56,2.21,1.1,8.36-1.1,14.63l-.46,1.3,1-1,1-1c2.5-2.56,5.93-6.06,8.25-6.06a2,2,0,0,1,.86.2,1.86,1.86,0,0,1,.84,1.25c.75,3-1.54,9.26-4.06,13l-.67,1,1.07-.54c2.43-1.23,4.3-1.35,5.24-.29.72.76.91,2.08.72,4Z"/><path class="cls-6" d="M255.59,106l.46.43c.06-.06,5.87-6.26,9.15-9.52l-.44-.45C261.46,99.71,255.65,105.92,255.59,106Z"/><path class="cls-6" d="M258.55,116.52l.38.5c.41-.31,10.13-7.65,13.69-12.61l-.52-.37C268.6,108.92,258.65,116.44,258.55,116.52Z"/><path class="cls-6" d="M258.59,129.66l.29.56a62.47,62.47,0,0,0,11.6-7.93l-.43-.47A61,61,0,0,1,258.59,129.66Z"/><path class="cls-11" d="M184.14,222.45c-1.49.21-1.8,4.82-.58,6.16,3.11,1.09,8-2.18,10.24-.66C193.86,222.33,188.37,220.51,184.14,222.45Z"/><path class="cls-12" d="M184.14,222.45c-1.49.21-1.8,1.89-.58,3.23,3.11,1.08,8.1-1.49,10.24,2.27C193.86,222.33,188.37,220.51,184.14,222.45Z"/><path class="cls-13" d="M188.28,221.42a8.21,8.21,0,0,0-4.23.72c-.37.07-.86.37-1.2,1.33-.58,1.6-.49,4.29.48,5.35v.06h.08a4.82,4.82,0,0,0,1,.22,13.73,13.73,0,0,0,4.45-.67,12.23,12.23,0,0,1,3.65-.59,2.21,2.21,0,0,1,1,.34l.48.33V228a6.17,6.17,0,0,0-5.71-6.58Zm4.37,5.83a12.13,12.13,0,0,0-3.87.6,12.94,12.94,0,0,1-4.23.65,4.47,4.47,0,0,1-.81-.16c-.74-.92-.79-3.29-.3-4.65.2-.55.47-.89.75-.93h.08a7.91,7.91,0,0,1,3.95-.69,5.55,5.55,0,0,1,5.26,5.39A3,3,0,0,0,192.65,227.25Z"/><path class="cls-14" d="M182.79,219.58c-4-.85-7.08,2-11.49.55.61-5.39,1.82-15.93,1.54-23-.55-4.27-10.15-4.44-12.47-1.17,3,6.72,2.59,17.52,1.76,23.35-2.15,2.26-7.93,1.38-11.71,1.11s-8.62-.58-10.88,2.38,1.12,7.43,4,7.27c-1.42,2.83.82,6.89,4.15,7.64s6-2.65,7.86-3.54c-2.93,5.86,2.78,7.82,5,7.6s4.55-2.29,5.3-5.52c.89-1.58,5-6,6.57-9.45,2.52.24,7.4,3.87,11.47,2.75S186.83,220.44,182.79,219.58Z"/><path class="cls-15" d="M182.79,219.58c-4-.85-10.39,1.82-14.8.39.61-5.39,2-16.67,1.76-23.78-.55-4.28-7.06-3.54-9.38-.27,3,6.72,2.59,17.52,1.76,23.35-2.15,2.26-7.93,1.38-11.71,1.11s-8.62-.58-10.88,2.38a3.72,3.72,0,0,0-.58,3.32c2,2.14,5.53,1.42,7.74.56a7.53,7.53,0,0,0-3.48,3.37h.27a4.62,4.62,0,0,0-.21,3.39,6.26,6.26,0,0,0,7.11,1.18c4.63-2.1,6.36-7,12.14-7.73,1.94-.45,3.38-2.22,4.18-4,.51,1.32-.23,2.52-1,3.71-3.55,2.94-7.93,4.86-10.59,8.42a4.82,4.82,0,0,0,0,4c2.17.6,7.5,1.6,9.42-4.33,1.34-4.13,5-6.62,7.14-10.73,3.53,2.86,8.5,4,11.88,1.75,1.49-.91,1.89-2.7,1.56-4.48A4,4,0,0,0,182.79,219.58Z"/><path class="cls-16" d="M163.2,218.88c2-3.57,2.79-14.83,0-20.2C164.08,203.64,164.77,213.11,163.2,218.88Z"/><path class="cls-16" d="M146.45,221.34a6.42,6.42,0,0,0-5.87,2.63c3.26-2.59,7-1.92,9.9-1.69s6.31.32,8.19-.77C155,222.07,149.76,221.54,146.45,221.34Z"/><path class="cls-16" d="M144.81,231.69c2.4-3.4,6.16-3.82,9-4.42s6.14-1.48,7.64-3.06c-3.39,1.59-8.55,2.56-11.78,3.3A6.37,6.37,0,0,0,144.81,231.69Z"/><path class="cls-16" d="M158.73,233.21a5.25,5.25,0,0,0-2.48,4.66c.81-3.32,3.56-4.77,5.57-6.09s4.24-3,4.91-4.63C164.62,229.38,161,231.67,158.73,233.21Z"/><path class="cls-17" d="M182.85,219.28a6.6,6.6,0,0,0-.89-.14,13,13,0,0,0-4.43.53,13.41,13.41,0,0,1-4.41.52,8.22,8.22,0,0,1-1.48-.28c.64-5.61,1.79-15.81,1.51-22.86-.25-2-2.34-3.36-5.46-3.66-2.67-.25-6.18.38-7.57,2.35l-.11.14.07.17c3,6.77,2.51,17.64,1.76,23.07-1.82,1.78-6.25,1.39-9.83,1.07l-1.57-.13c-3.69-.27-8.75-.64-11.15,2.51a4.23,4.23,0,0,0-.37,4.37,5.61,5.61,0,0,0,4.1,3.39,5.3,5.3,0,0,0,.32,4.11,6.39,6.39,0,0,0,4.23,3.54c2.51.56,4.64-1.07,6.32-2.36.32-.25.63-.49.92-.7a5,5,0,0,0,.09,4.34,6.2,6.2,0,0,0,4.75,2.78,6.32,6.32,0,0,0,.87,0c2.54-.25,4.83-2.6,5.57-5.72A30.4,30.4,0,0,1,168,233.8a40.76,40.76,0,0,0,4.59-6.7,14.6,14.6,0,0,1,3.07,1.1,20.46,20.46,0,0,0,5.77,1.79,7,7,0,0,0,2.53-.19c1.79-.49,2.87-2.31,2.79-4.73S185.29,219.79,182.85,219.28Zm.9,9.92a6.15,6.15,0,0,1-2.3.17,19.49,19.49,0,0,1-5.58-1.75,13.34,13.34,0,0,0-3.48-1.17h-.22l-.09.2a38.71,38.71,0,0,1-4.62,6.79,27.39,27.39,0,0,0-1.94,2.63v.09c-.79,3.37-3.16,5.1-5,5.28a4.7,4.7,0,0,1-.75,0,5.58,5.58,0,0,1-4.26-2.46c-.7-1.26-.59-2.83.34-4.68l.41-.82-.83.39a12.62,12.62,0,0,0-1.87,1.28c-1.57,1.21-3.56,2.74-5.79,2.24a5.81,5.81,0,0,1-3.8-3.19,4.57,4.57,0,0,1-.14-4l.25-.49h-.55c-1.48.09-3.2-1.26-4-3a3.61,3.61,0,0,1,.29-3.74c2.2-2.87,7.06-2.52,10.61-2.26l1.56.13c3.75.33,8.42.74,10.4-1.33l.07-.08v-.1c.77-5.42,1.26-16.39-1.71-23.35,1.13-1.4,4-2.21,6.89-1.94,2.2.21,4.64,1.13,4.89,3.09.28,7-.9,17.38-1.54,23v.25l.25.08a8.44,8.44,0,0,0,1.86.39,13.82,13.82,0,0,0,4.61-.54,12.86,12.86,0,0,1,4.23-.51,5.59,5.59,0,0,1,.82.12c2.1.45,3.3,3,3.36,5.21C186.13,226.76,185.55,228.71,183.75,229.2Z"/><path class="cls-17" d="M162.89,228.4c-.85.57-1.74,1.07-2.6,1.56-2.19,1.26-4.26,2.45-5.22,4.36l.56.28c.87-1.74,2.87-2.88,5-4.09.86-.49,1.76-1,2.63-1.59,3.12-2.07,3.2-4.24,3.2-4.24S165.81,226.46,162.89,228.4Z"/><path class="cls-17" d="M156.78,224.45c-.93.26-2.11.46-3.37.68-4,.68-9,1.53-10.42,5.27l.59.22c1.29-3.4,6.08-4.22,9.93-4.87a33.27,33.27,0,0,0,3.44-.7c3.9-1.13,4.53-2.8,4.53-2.8S160.45,223.38,156.78,224.45Z"/><path class="cls-17" d="M145.11,220l-.21.6a5.26,5.26,0,0,1,3.66,4.86A5,5,0,0,0,145.11,220Z"/><path class="cls-17" d="M152,220.22l-.31.55a4.58,4.58,0,0,1,1.87,3.4S154.06,221.4,152,220.22Z"/><path class="cls-17" d="M155.36,224.84l-.26.57a5.72,5.72,0,0,1,3.11,3.73A4.89,4.89,0,0,0,155.36,224.84Z"/><path class="cls-17" d="M149.67,225.91l-.22.59a6.14,6.14,0,0,1,3.82,5S153.51,227.35,149.67,225.91Z"/><path class="cls-17" d="M157.15,232.1h-.05v.63h0c4.25.4,5,3,5,3.13S161.87,232.54,157.15,232.1Z"/><path class="cls-17" d="M161.3,229.45v.63c3.21.21,4.19,2.17,4.23,2.25l.29-.14-.29.14.29-.14S164.89,229.69,161.3,229.45Z"/><path class="cls-17" d="M174.49,220.25l-.27.56c2.42,1.19,2.27,4.23,2.26,4.27S177.31,221.63,174.49,220.25Z"/><path class="cls-17" d="M180.13,219.21l-.26.58c3.25,1.43,2.43,4.9,2.4,5.05C182.27,224.84,183.86,220.86,180.13,219.21Z"/><path class="cls-11" d="M139.21,224.54a7.34,7.34,0,0,0-3.28,7.11c2-1.2,4.92-.81,6-2C143.05,228,141.45,224.31,139.21,224.54Z"/><path class="cls-12" d="M139.21,224.54a7.34,7.34,0,0,0-3.28,7.11c1.5-2.58,3.84-2.56,4.93-3.71C142,226.21,141.45,224.31,139.21,224.54Z"/><path class="cls-13" d="M139.18,224.23h-.13a7.61,7.61,0,0,0-3.44,7.39v.51l.44-.26a9.18,9.18,0,0,1,3.15-.94,5.21,5.21,0,0,0,3-1.11,3.82,3.82,0,0,0-.09-3.61A3.11,3.11,0,0,0,139.18,224.23Zm2.53,5.25a5,5,0,0,1-2.58.88,11.29,11.29,0,0,0-2.91.78,7,7,0,0,1,3.1-6.29,2.53,2.53,0,0,1,2.23,1.68,3.27,3.27,0,0,1,.16,2.95Z"/><path class="cls-11" d="M143.49,231.75a7.37,7.37,0,0,0-3.28,7.11c2-1.2,4.92-.81,6-2C147.33,235.17,145.73,231.52,143.49,231.75Z"/><path class="cls-12" d="M143.49,231.75a7.37,7.37,0,0,0-3.28,7.11c1.5-2.58,3.84-2.56,4.93-3.71C146.25,233.42,145.73,231.52,143.49,231.75Z"/><path class="cls-13" d="M143.46,231.44h-.13c-2.44,1.51-3.65,4.14-3.44,7.39v.51l.44-.26a9.18,9.18,0,0,1,3.15-.94,5.21,5.21,0,0,0,3-1.11,3.84,3.84,0,0,0-.09-3.62A3.1,3.1,0,0,0,143.46,231.44Zm2.54,5.25a5.12,5.12,0,0,1-2.59.88,11.29,11.29,0,0,0-2.91.78,7,7,0,0,1,3.1-6.29,2.53,2.53,0,0,1,2.24,1.68A3.33,3.33,0,0,1,146,236.69Z"/><path class="cls-11" d="M154.73,237.6a7.36,7.36,0,0,0-.92,7.77c1.55-1.76,4.43-2.3,5.11-3.72C159.44,239.65,156.78,236.68,154.73,237.6Z"/><path class="cls-12" d="M154.73,237.6a7.36,7.36,0,0,0-.92,7.77c.63-2.92,2.86-3.63,3.54-5.05C157.86,238.32,156.78,236.68,154.73,237.6Z"/><path class="cls-13" d="M154.6,237.31h-.07l-.05.06a7.62,7.62,0,0,0-1,8.09l.19.48.34-.39a9.33,9.33,0,0,1,2.7-1.87,5.23,5.23,0,0,0,2.48-2,3.83,3.83,0,0,0-1.21-3.41A3.1,3.1,0,0,0,154.6,237.31Zm4,4.2a5,5,0,0,1-2.19,1.64,11.65,11.65,0,0,0-2.52,1.65,6.92,6.92,0,0,1,1-6.94,2.51,2.51,0,0,1,2.65.9,3.29,3.29,0,0,1,1.1,2.75Z"/><path class="cls-17" d="M162.58,204.66l-.22.59a15.61,15.61,0,0,0,4.16,1,10,10,0,0,0,4.4-.43A16.31,16.31,0,0,1,162.58,204.66Z"/><path class="cls-17" d="M162.89,211.15l-.35.52a9.43,9.43,0,0,0,4.41,1.58,9,9,0,0,0,3.27-.26A11.64,11.64,0,0,1,162.89,211.15Z"/><path class="cls-17" d="M162.5,217.31l-.31.56a10,10,0,0,0,3.91,1.28,6.15,6.15,0,0,0,3.06-.4A10.05,10.05,0,0,1,162.5,217.31Z"/><path class="cls-11" d="M212.35,227.56c-1.46.35-1.34,5,0,6.19,3.19.79,7.77-2.92,10.14-1.62C222,226.53,216.37,225.23,212.35,227.56Z"/><path class="cls-12" d="M212.35,227.56c-1.46.35-1.62,2.05-.28,3.27,3.2.79,7.93-2.25,10.42,1.3C222,226.53,216.37,225.23,212.35,227.56Z"/><path class="cls-13" d="M216.38,226.14a8.38,8.38,0,0,0-4.15,1.12c-.36.11-.82.45-1.08,1.44-.42,1.65-.08,4.31,1,5.28l0,.06h.08a4.21,4.21,0,0,0,1,.12,13.74,13.74,0,0,0,4.37-1.08,11.75,11.75,0,0,1,3.58-.93,2.17,2.17,0,0,1,1.06.24l.52.28v-.58a6.15,6.15,0,0,0-6.36-6Zm4.89,5.4a12.42,12.42,0,0,0-3.79,1,13.06,13.06,0,0,1-4.16,1.05,3.75,3.75,0,0,1-.82-.09c-.82-.84-1.09-3.2-.73-4.6.14-.57.38-.93.65-1h.09a7.73,7.73,0,0,1,3.87-1.06,5.53,5.53,0,0,1,5.73,4.87A3.39,3.39,0,0,0,221.27,231.54Z"/><path class="cls-14" d="M210.73,224.83c-4.1-.47-6.86,2.63-11.39,1.63.11-5.43.32-16-.63-23.08-.94-4.21-10.52-3.47-12.51,0,3.57,6.41,4.22,17.19,3.94,23.08-1.93,2.45-7.77,2.12-11.56,2.2s-8.64.24-10.61,3.39,1.82,7.3,4.62,6.87c-1.15,3,1.46,6.78,4.85,7.22s5.72-3.2,7.49-4.26c-2.36,6.11,3.5,7.52,5.68,7.1s4.32-2.71,4.76-6c.74-1.66,4.39-6.39,5.66-10,2.52,0,7.73,3.16,11.67,1.66S214.83,225.31,210.73,224.83Z"/><path class="cls-15" d="M210.73,224.83c-4.1-.47-10.17,2.78-14.7,1.78.11-5.43.47-16.8-.47-23.84-.95-4.21-7.37-2.86-9.36.61,3.57,6.41,4.22,17.19,3.94,23.08-1.93,2.45-7.77,2.12-11.56,2.2s-8.64.24-10.61,3.39a3.78,3.78,0,0,0-.26,3.37c2.17,1.94,5.63.89,7.76-.17a7.46,7.46,0,0,0-3.15,3.68h.27a4.69,4.69,0,0,0,.11,3.4c2.19,1.52,4.68,2,7.18.5,4.42-2.52,5.68-7.57,11.36-8.83,1.9-.63,3.16-2.53,3.79-4.42.63,1.26,0,2.52-.63,3.79-3.25,3.25-7.43,5.57-9.75,9.37a4.8,4.8,0,0,0,.36,4c2.21.4,7.61.89,9-5.19.94-4.24,4.32-7.06,6.1-11.36,3.79,2.52,8.84,3.16,12,.63,1.4-1,1.63-2.87,1.14-4.61A4,4,0,0,0,210.73,224.83Z"/><path class="cls-16" d="M191.16,226c1.66-3.74,1.39-15-1.86-20.11C190.61,210.71,192.19,220.08,191.16,226Z"/><path class="cls-16" d="M169.12,233.16c3-2.88,6.78-2.57,9.7-2.61s6.31-.27,8.09-1.53c-3.63.9-8.88.86-12.19,1A6.42,6.42,0,0,0,169.12,233.16Z"/><path class="cls-16" d="M174.06,240.45c2.06-3.61,5.77-4.38,8.56-5.24s6-2.05,7.32-3.77c-3.22,1.9-8.27,3.35-11.41,4.39A6.41,6.41,0,0,0,174.06,240.45Z"/><path class="cls-16" d="M188.06,240.66a5.27,5.27,0,0,0-2,4.87c.49-3.38,3.1-5.08,5-6.58s3.95-3.37,4.46-5.08C193.57,236.29,190.15,238.91,188.06,240.66Z"/><path class="cls-17" d="M210.77,224.52c-.3,0-.6-.05-.9-.05a13.62,13.62,0,0,0-4.37.94,13.43,13.43,0,0,1-4.34.93,7.55,7.55,0,0,1-1.5-.14c.11-5.64.3-15.9-.64-22.89-.43-1.93-2.65-3.14-5.78-3.14-2.68,0-6.11,1-7.32,3.05l-.09.15.09.16c3.6,6.47,4.15,17.33,3.91,22.81-1.64,1.94-6.09,2-9.68,2h-1.57c-3.71.07-8.78.18-10.88,3.54a4.25,4.25,0,0,0,.05,4.39,5.6,5.6,0,0,0,4.39,3,5.39,5.39,0,0,0,.71,4.07,6.34,6.34,0,0,0,4.55,3.12c2.55.32,4.52-1.5,6.06-2.94.3-.28.58-.54.86-.78a5,5,0,0,0,.49,4.31,6.2,6.2,0,0,0,5,2.32,4.91,4.91,0,0,0,.86-.07c2.51-.49,4.56-3,5-6.22a28.05,28.05,0,0,1,1.62-2.68,40.79,40.79,0,0,0,4-7.11,15.6,15.6,0,0,1,3.16.81,20.32,20.32,0,0,0,5.91,1.25,7.11,7.11,0,0,0,2.5-.43c1.74-.66,2.64-2.57,2.34-5S213.24,224.81,210.77,224.52Zm1.82,9.8a6.31,6.31,0,0,1-2.27.39,19.68,19.68,0,0,1-5.72-1.22,13.75,13.75,0,0,0-3.57-.84h-.23l-.07.21a39.48,39.48,0,0,1-4,7.19,25.61,25.61,0,0,0-1.68,2.8v.09c-.47,3.43-2.66,5.37-4.51,5.73a4.52,4.52,0,0,1-.74.06,5.6,5.6,0,0,1-4.48-2c-.81-1.19-.85-2.77-.1-4.69l.33-.86-.79.47A12.06,12.06,0,0,0,183,243.1c-1.45,1.35-3.28,3.06-5.55,2.77a5.77,5.77,0,0,1-4.09-2.81,4.6,4.6,0,0,1-.51-4l.2-.51-.54.09c-1.47.22-3.31-1-4.24-2.64a3.63,3.63,0,0,1-.06-3.75c1.92-3.07,6.79-3.17,10.35-3.24h1.57c3.76,0,8.45,0,10.23-2.31l.06-.08v-.1c.25-5.47-.28-16.44-3.9-23.08,1-1.51,3.76-2.58,6.68-2.58,2.21,0,4.73.69,5.16,2.61.94,7,.74,17.39.63,23v.26l.26.06a8.53,8.53,0,0,0,1.88.21,14.23,14.23,0,0,0,4.55-1,12.67,12.67,0,0,1,4.16-.91,7.52,7.52,0,0,1,.82,0c2.13.24,3.57,2.69,3.84,4.87.22,1.65-.19,3.65-1.93,4.31Z"/><path class="cls-17" d="M191.75,235.48c-.8.64-1.63,1.23-2.44,1.8-2.07,1.46-4,2.83-4.79,4.82l.58.23c.71-1.81,2.59-3.13,4.57-4.53.82-.58,1.66-1.17,2.48-1.83,2.91-2.36,2.78-4.53,2.78-4.53S194.47,233.27,191.75,235.48Z"/><path class="cls-17" d="M185.29,232.11a31.93,31.93,0,0,1-3.29,1c-3.93,1-8.82,2.37-9.87,6.23l.61.16c.95-3.51,5.65-4.77,9.43-5.78a33,33,0,0,0,3.35-1c3.78-1.49,4.25-3.21,4.25-3.21S188.85,230.71,185.29,232.11Z"/><path class="cls-17" d="M173.26,228.78l-.15.61a5.23,5.23,0,0,1,4.09,4.5A5,5,0,0,0,173.26,228.78Z"/><path class="cls-17" d="M180.17,228.36l-.26.57a4.59,4.59,0,0,1,2.19,3.21S182.3,229.34,180.17,228.36Z"/><path class="cls-17" d="M183.92,232.64l-.21.6a5.73,5.73,0,0,1,3.45,3.41A4.88,4.88,0,0,0,183.92,232.64Z"/><path class="cls-17" d="M178.36,234.24l-.17.61a6.16,6.16,0,0,1,4.28,4.63S182.31,235.32,178.36,234.24Z"/><path class="cls-17" d="M186.38,239.7h0v.63h0c4.27,0,5.21,2.54,5.25,2.65S191.12,239.7,186.38,239.7Z"/><path class="cls-17" d="M190.26,236.67v.63c3.22-.09,4.38,1.77,4.43,1.85L195,239l-.27.16L195,239S193.86,236.57,190.26,236.67Z"/><path class="cls-17" d="M202.54,226.27l-.23.59c2.53,1,2.66,4,2.66,4S205.47,227.38,202.54,226.27Z"/><path class="cls-17" d="M208.05,224.71l-.2.6c3.36,1.13,2.88,4.65,2.86,4.8C210.71,230.11,211.92,226,208.05,224.71Z"/><path class="cls-11" d="M167.81,233.86a7.36,7.36,0,0,0-2.6,7.38c1.89-1.38,4.83-1.26,5.81-2.5C172,236.91,170,233.42,167.81,233.86Z"/><path class="cls-12" d="M167.81,233.86a7.36,7.36,0,0,0-2.6,7.38c1.26-2.71,3.59-2.91,4.56-4.15C170.71,235.26,170,233.42,167.81,233.86Z"/><path class="cls-13" d="M167.75,233.55h-.13a7.63,7.63,0,0,0-2.72,7.68l.08.51.42-.3a8.85,8.85,0,0,1,3-1.23,5.28,5.28,0,0,0,2.86-1.39,3.86,3.86,0,0,0-.43-3.59A3.13,3.13,0,0,0,167.75,233.55Zm3,5a5,5,0,0,1-2.5,1.12,11.82,11.82,0,0,0-2.82,1.05,6.94,6.94,0,0,1,2.5-6.55,2.51,2.51,0,0,1,2.38,1.46,3.31,3.31,0,0,1,.46,2.91Z"/><path class="cls-11" d="M172.75,240.64a7.34,7.34,0,0,0-2.6,7.38c1.89-1.38,4.83-1.27,5.81-2.51C176.9,243.68,175,240.2,172.75,240.64Z"/><path class="cls-12" d="M172.75,240.64a7.34,7.34,0,0,0-2.6,7.38c1.26-2.71,3.59-2.91,4.56-4.15C175.65,242,175,240.2,172.75,240.64Z"/><path class="cls-13" d="M172.69,240.33h-.13c-2.28,1.73-3.24,4.46-2.72,7.68l.08.51.42-.3a8.85,8.85,0,0,1,3-1.23,5.28,5.28,0,0,0,2.86-1.39,3.83,3.83,0,0,0-.43-3.59A3.1,3.1,0,0,0,172.69,240.33Zm3,5a5.17,5.17,0,0,1-2.5,1.12,11.69,11.69,0,0,0-2.82,1,7,7,0,0,1,2.5-6.55,2.54,2.54,0,0,1,2.38,1.47,3.27,3.27,0,0,1,.46,2.95Z"/><path class="cls-11" d="M184.48,245.4a7.36,7.36,0,0,0-.18,7.83c1.37-1.9,4.2-2.71,4.74-4.19C189.37,247,186.45,244.3,184.48,245.4Z"/><path class="cls-12" d="M184.48,245.4a7.36,7.36,0,0,0-.18,7.83c.35-3,2.51-3.89,3-5.37C187.67,245.83,186.45,244.3,184.48,245.4Z"/><path class="cls-13" d="M187.83,245.81a3.11,3.11,0,0,0-3.5-.68h-.07v.06a7.68,7.68,0,0,0-.2,8.15l.24.46.3-.42a9.4,9.4,0,0,1,2.51-2.11,5.23,5.23,0,0,0,2.28-2.21A3.8,3.8,0,0,0,187.83,245.81Zm.92,3.12c-.25.67-1.11,1.24-2,1.84a11.79,11.79,0,0,0-2.35,1.87,6.91,6.91,0,0,1,.33-7,2.52,2.52,0,0,1,2.72.65A3.33,3.33,0,0,1,188.75,248.93Z"/><path class="cls-17" d="M189.22,211.87l-.18.61a15.59,15.59,0,0,0,4.24.62,10.13,10.13,0,0,0,4.34-.84A16.29,16.29,0,0,1,189.22,211.87Z"/><path class="cls-17" d="M190.13,218.3l-.3.56a9.45,9.45,0,0,0,4.54,1.15,9.12,9.12,0,0,0,3.23-.56A11.65,11.65,0,0,1,190.13,218.3Z"/><path class="cls-17" d="M190.32,224.48l-.26.58a9.9,9.9,0,0,0,4,.91,6.15,6.15,0,0,0,3-.69A10.07,10.07,0,0,1,190.32,224.48Z"/><path class="cls-18" d="M141.05,68.25c-2.12,5.26-7.37,8.83-8,15.15s5.37,9.67,10.21,8S155.45,73,155.13,68.25,146.12,65.51,141.05,68.25Z"/><path class="cls-19" d="M133,83.4a7.86,7.86,0,0,0,.88,4.59,9.17,9.17,0,0,1,1.54-8.59c3.12-4.68,7.53-8.08,10-13A26.35,26.35,0,0,0,141,68.27C138.93,73.51,133.68,77.08,133,83.4Z"/><path class="cls-20" d="M150.93,65.08a23.87,23.87,0,0,0-10,2.89l-.1.06v.1a26.52,26.52,0,0,1-3.49,5.68c-2,2.79-4.15,5.67-4.54,9.55a7.73,7.73,0,0,0,1.9,6.15,8.24,8.24,0,0,0,8.72,2.18c4.92-1.71,12.43-18.52,12.1-23.46C155.31,66.2,153.71,65.08,150.93,65.08Zm-7.79,26a7.41,7.41,0,0,1-2.47.42h0a7.49,7.49,0,0,1-5.58-2.42,7.13,7.13,0,0,1-1.73-5.66c.37-3.72,2.43-6.53,4.42-9.24a28,28,0,0,0,3.52-5.72,23.09,23.09,0,0,1,9.63-2.75c2.47,0,3.78.86,3.89,2.55.31,4.74-7.07,21.23-11.68,22.83Z"/><path class="cls-7" d="M139.06,181.62c3.74,12.62,12.58,26.35,29.07,27.77S188.87,189,188.87,189,146.2,172.47,139.06,181.62Z"/><path class="cls-8" d="M155.65,179.55c-7.59-1.18-14.16-1.05-16.59,2.07,2.29,7.72,6.48,15.84,13.17,21.32a8.37,8.37,0,0,0,1.5.14C150.13,195.26,151.68,186.87,155.65,179.55Z"/><path class="cls-10" d="M147.89,178.55c-4.53,0-7.59,1-9.08,2.87l-.1.13v.16c2.32,7.85,9.84,26.31,29.34,28,.52,0,1,.07,1.55.07h0c15.31,0,19.49-20.47,19.53-20.68v-.26l-.25-.09C188.72,188.64,162.56,178.55,147.89,178.55Zm21.76,30.59a10.83,10.83,0,0,1-1.5-.07c-19-1.63-26.4-19.56-28.74-27.38,1.4-1.67,4.25-2.51,8.48-2.51,13.78,0,37.88,9,40.61,10C188,191.59,183.52,209.14,169.65,209.14Z"/><path class="cls-7" d="M257.29,115.35c6-7.52,4-15.19-3.37-11.12,2.74-5.4.53-10.71-4.83-7,1.73-3.48-.06-6.21-3.06-2.32s-11.78,17.2-22.56,18.73c-4.57-2.48-16.09-6.79-26.61-5.21-5.1-1.16-60.8-5.26-76.42,6.89-5.21,9.62-8.36,19.72-5.84,37.71s21.88,35.18,32,37.5c6.31,6.94,16,10.83,22.3,10.83,5.57,8.73,14,14.54,22.93,15,11.92.67,15-3.26,16.46-6.2,3.58-.9,5.89-2.95,6.21-5.89a4.65,4.65,0,0,0,4.31-3.32c9.84.74,21-2.31,20-12.67,5.47-1.74,10.94-7.68,7.1-13.31,6-3.78,8.47-11.15,5-12.73,1.57-1.75,3-6.36.16-6.94,5.73-4.15,10.88-12.3,5.41-14.83,4-2.84,8.52-12.46,2.95-11.89C264.92,122.61,266.86,112.82,257.29,115.35Z"/><path class="cls-8" d="M184.19,203.6a1.12,1.12,0,0,0,.47.11Z"/><path class="cls-8" d="M128.49,172.78c1.26.63,0-1.26,0-2.52,2.52,2.52,5.68,3.78,8.83,5.05v-4.42c5.05,8.83,13.89,13.25,23.35,15.14,0-2.52,1.9-4.41,1.27-6.94,2.49,11.21,10.52,21.81,22.25,24.51a1.36,1.36,0,0,1-.79-1.16c8.2.64,17,2.53,23.35-4.41h-2.53a22,22,0,0,0,6.31-15.15c-5.68,0-11.36.63-16.41-1.89,0,.63,1.27,1.26,1.27,1.89-6.95-1.26-11.36-5.68-16.41-9.47v1.26c-11.36-4.41-20.2-21.45-12-27.77,13.88-10.09,34.71-4.41,49.86,6.95,5,4.42,12.62,2.52,19.56,2.52,0,1.9-1.89,2.53-1.89,4.42,6.31,1.26,12-3.16,15.78-8.2-1.27-.64-2.53,1.26-3.79.63,3.79-1.9,4.42-5.68,5.68-9.47h-2.53c-.63-.63,0-2.53.64-3.16,3.78-1.89,5-5.05,5.68-8.83h-1.9c4.42-3.16,4.42-10.1,5-15.15-1.89,0-3.79,1.89-5.68,1.26,3.69-4.14,5.69-9.63,4.54-14.75a7.13,7.13,0,0,0-4.07,1.11c2.74-5.4.53-10.71-4.83-7,1.73-3.48-.06-6.21-3.06-2.32s-11.78,17.2-22.56,18.73c-4.57-2.48-16.09-6.79-26.61-5.21-5.1-1.16-60.8-5.26-76.42,6.89C115.17,124.94,112,135,114.54,153a35,35,0,0,0,2.63,9C120.3,166.51,123.89,170.48,128.49,172.78Z"/><path class="cls-21" d="M232.1,137.94l-1.37.13A2,2,0,0,0,232.1,137.94Z"/><path class="cls-22" d="M222.53,116.61c12.56-1,19.92-12,26.54-23.47-.66-.33-1.73.11-3,1.8-3,3.89-11.78,17.2-22.56,18.73-4.57-2.48-16.09-6.79-26.61-5.21a84,84,0,0,0-8.81-.92c8,3.29,16.73,3.16,25,5.92C216.21,114.09,221.26,116.61,222.53,116.61Z"/><path class="cls-22" d="M123.89,113.24a20.3,20.3,0,0,0-3.45,2.11c-5.21,9.62-8.36,19.72-5.84,37.71a35,35,0,0,0,2.63,9c.64.93,1.32,1.85,2,2.73C112.11,149.29,115.69,129,123.89,113.24Z"/><path class="cls-21" d="M200.69,126.81l-.25-.1Z"/><path class="cls-9" d="M245.88,117.24c-1.27-1.26-5,.63-7.58-.63-.63,0,0-2.52,0-3.79-6.94,9.47-19.56,7.58-29.66,6.32,0-1.27,1.26-2.53.63-3.16a12.58,12.58,0,0,0-3.35-.27c-3.36,1.22-5,4.91-5.48,7.84-.64,1.27,2.52.63,3.78,2.53-1.17,0-2.35,1.09-3.53.73,10.65,4.34,21.29,6.23,32.56,8.1.5,0,.21,2.33-1.15,3,6.76-.69,15.16-2.25,16.93-9.34h-3.15C244.61,124.82,249.66,119.77,245.88,117.24Z"/><path class="cls-9" d="M156.89,153.22c.63-5.68.63-11.36-1.9-15.15-1.26-1.26-5,4.42-6.31,1.89-5.05-8.83-9.46-5.05-17-5.05-2.52,0-2.52-4.41-3.78-6.31-2.53-1.89-2.53,3.79-4.42,2.53a12.91,12.91,0,0,1-1.26-1.77c-2.45,6.9-3.06,14.11,0,21.33a9.16,9.16,0,0,1,1.26-2.52c4.42,5.68,5,13.25,11.36,17.67-.63-1.89,1.26-3.79.63-5.68,5,3.79,12,5.68,17.67,8.83,0-1.89-.63-3.78,0-5.68.63-.63,2.53,0,3.79,0-.63-3.15-2.53-6.31-1.9-10.09Z"/><path class="cls-10" d="M263.93,116.77c-.43-1-1.46-2.14-3.88-2.14a9.64,9.64,0,0,0-2,.21c2.73-3.71,3.78-7.71,2.61-10.16-1-2-3.27-2.45-6.1-1.14,1-2.47,1.11-4.94.17-6.47s-2.83-1.82-5-.61a3.86,3.86,0,0,0,0-3.09,1.28,1.28,0,0,0-1.14-.65c-.83,0-1.81.7-2.84,2l-1.06,1.42c-3.79,5.12-11.66,15.75-21.19,17.17a51,51,0,0,0-21.95-5.54,32.24,32.24,0,0,0-4.71.34c-2.55-.55-14.79-1.6-28.69-1.6-16.85,0-38.84,1.49-47.93,8.56l-.09.1c-5.33,9.86-8.37,20.08-5.87,37.9,2.58,18.39,22.32,35.41,32.12,37.74,6.47,7.07,16.06,10.8,22.3,10.87,5.76,8.93,14.38,14.55,23.08,15,.89,0,1.76.07,2.59.07,9.66,0,12.64-3.35,14.11-6.32,3.64-1,5.85-3,6.27-5.87a5,5,0,0,0,4.26-3.27c.85,0,1.7.08,2.55.08,6.7,0,12.21-1.83,15.11-5a10.06,10.06,0,0,0,2.49-7.85c3.7-1.25,6.88-4.14,8-7.23a7,7,0,0,0-.75-6.2c4.45-2.91,6.66-7.44,6.48-10.29a3.18,3.18,0,0,0-1.39-2.63c1-1.37,2-3.95,1.45-5.65a2.12,2.12,0,0,0-1.1-1.3c3.92-3,7.72-8,7.36-11.68a3.82,3.82,0,0,0-2-3.1c2.94-2.36,6-8,5.14-10.65a2.12,2.12,0,0,0-2.08-1.52C263.54,124.34,265.14,119.46,263.93,116.77Zm-4.67,11.67-.54.61.81-.08c1.19-.12,1.89.22,2.15,1.06.74,2.35-2.23,8.1-5.31,10.25l-.45.32.5.23a3.33,3.33,0,0,1,2.12,2.82c.34,3.49-3.59,8.57-7.59,11.47l-.58.42.7.14a1.54,1.54,0,0,1,1.24,1.09c.49,1.47-.44,4.08-1.57,5.33l-.28.32.39.18a2.55,2.55,0,0,1,1.37,2.29c.17,2.76-2.19,7.22-6.46,9.89l-.28.17.19.27a6.37,6.37,0,0,1,.86,5.91c-1,3-4.17,5.77-7.8,6.92l-.24.08v.25a9.5,9.5,0,0,1-2.31,7.62c-2.78,3.06-8.12,4.81-14.64,4.81a25.55,25.55,0,0,1-2.76-.1h-.25l-.07.25a4.36,4.36,0,0,1-4,3.08h-.27v.26c-.29,2.74-2.41,4.73-6,5.62H208l-.06.13c-1.37,2.84-4.16,6.1-13.61,6.1-.82,0-1.67,0-2.55-.07-8.55-.48-17-6.05-22.68-14.9L169,201h-.17c-6.12,0-15.66-3.69-22.07-10.73l-.06-.08h-.1c-9.62-2.2-29.18-19-31.73-37.24-2.48-17.61.51-27.72,5.77-37.45,9-6.93,30.78-8.39,47.49-8.39,14,0,26.22,1.06,28.61,1.6h.12a33.23,33.23,0,0,1,4.67-.33,50.46,50.46,0,0,1,21.74,5.5h.2c9.84-1.39,17.86-12.23,21.71-17.43.4-.55.76-1,1.06-1.42,1.23-1.6,2.43-2.23,2.93-1.43.35.58.36,1.85-.42,3.42l-.55,1.1,1-.7c2.2-1.54,4.06-1.58,4.95-.12s.69,4.19-.58,6.69l-.46.91.9-.5c2.86-1.58,5.15-1.4,6,.46s.35,5.93-3.08,10.19l-.6.75.93-.25c3.14-.82,5.21-.35,6,1.38,1.2,2.62-.6,7.63-4,11.47Z"/><path class="cls-10" d="M147.16,191.63l.48-.42a16.55,16.55,0,0,1-3.59-6.56A12.65,12.65,0,0,0,147.16,191.63Z"/><path class="cls-10" d="M169.27,202.57l.52-.35A40.11,40.11,0,0,1,163.2,187S163.63,194.3,169.27,202.57Z"/><path class="cls-10" d="M203.57,209.39a5.35,5.35,0,0,0,3.39,1.17,12.16,12.16,0,0,0,1.81-.14l-.1-.62A11.16,11.16,0,0,1,203.57,209.39Z"/><path class="cls-10" d="M210,203.39a5.63,5.63,0,0,0,3.71,1.29,11.5,11.5,0,0,0,1.31-.07L215,204A10.59,10.59,0,0,1,210,203.39Z"/><path class="cls-10" d="M217.65,197a5.6,5.6,0,0,1,.77,4.18l.62.1A4.38,4.38,0,0,0,217.65,197Z"/><path class="cls-10" d="M232.78,189a17.46,17.46,0,0,0,7-.65l-.22-.6A16.6,16.6,0,0,1,232.78,189Z"/><path class="cls-10" d="M241.68,176.47a9.56,9.56,0,0,0,4.95-1.51l-.35-.52A15.53,15.53,0,0,1,241.68,176.47Z"/><path class="cls-10" d="M251.47,142.54a11.54,11.54,0,0,0,6-2.36l-.41-.48A16.61,16.61,0,0,1,251.47,142.54Z"/><path class="cls-10" d="M254.79,131.68s4-1.25,5.69-3.71l-.52-.35C258.37,129.93,254.82,131.67,254.79,131.68Z"/><path class="cls-10" d="M252.53,119.46a18.54,18.54,0,0,0,5.7-4.83l-.51-.37A27.19,27.19,0,0,1,252.53,119.46Z"/><path class="cls-10" d="M250.55,108.55A11.78,11.78,0,0,0,254.4,104l-.56-.28A19.84,19.84,0,0,1,250.55,108.55Z"/><path class="cls-10" d="M245.23,101.28a29.13,29.13,0,0,1,4-3.77L248.9,97A14.38,14.38,0,0,0,245.23,101.28Z"/><path class="cls-4" d="M191.39,133c-.61,2.21,1.79,4.89,3.6,5.13s12.23-1.11,14.28-3.55C205.72,130.89,198.33,130.6,191.39,133Z"/><path class="cls-5" d="M193.71,133.24a4.08,4.08,0,0,1,.9.86c3.86-.67,7.29-1.18,9.15-1.36A52.8,52.8,0,0,0,193.71,133.24Z"/><path class="cls-6" d="M200.12,131.14a27.42,27.42,0,0,0-8.83,1.58l-.16.06v.16a4,4,0,0,0,.71,3.24,5,5,0,0,0,3.15,2.28h.6c2.7,0,12-1.31,14-3.69l.19-.22-.2-.2C207.5,132.29,204.17,131.14,200.12,131.14Zm-4.57,6.72H195a4.4,4.4,0,0,1-2.71-2,3.47,3.47,0,0,1-.66-2.57,26.79,26.79,0,0,1,8.46-1.49c3.73,0,6.81,1,8.71,2.83-2.12,1.94-10.33,3.23-13.28,3.23Z"/><path class="cls-3" d="M194.39,136.33c-2.63,2-1.42,10.79,5.31,9.73,9.68-2.89,17.67-9,18.3-12C213.32,132.23,201.8,134,194.39,136.33Z"/><path class="cls-4" d="M194.39,136.33c-2.63,2-5.21,6.15,1.53,5.09,9.67-2.89,18.17-4.75,22.08-7.4C213.32,132.23,201.8,134,194.39,136.33Z"/><path class="cls-5" d="M189,139.38c6.34-2.56,18.71-5.33,26.13-5.07-5,.67-21.52,4.13-26.8,6.21S184.44,140.58,189,139.38Z"/><path class="cls-6" d="M212.6,133a69,69,0,0,0-18.31,3l-.1.05c-1.39,1.09-1.82,3.87-1,6.33a5.55,5.55,0,0,0,5.4,4.06,6.64,6.64,0,0,0,1.18-.1c9.59-2.87,17.83-9,18.52-12.29l.06-.26-.26-.1A16.19,16.19,0,0,0,212.6,133Zm-12.95,12.77a5.55,5.55,0,0,1-1,.09,5,5,0,0,1-4.8-3.64c-.74-2.15-.41-4.64.73-5.58a68.74,68.74,0,0,1,18.06-3,16.26,16.26,0,0,1,5,.61c-1,2.8-8.32,8.61-18,11.5Z"/><path class="cls-3" d="M197.52,143.7c-2.63,2.05-1.42,10.78,5.31,9.73,12.12-2.69,25.69-10.57,25.69-15.62C225.26,135.6,208.64,139.33,197.52,143.7Z"/><path class="cls-4" d="M197.52,143.7c-2.63,2.05-4.26,6.47,2.47,5.41,12.12-2.68,26.92-8.38,28.53-11.3C225.26,135.6,208.64,139.33,197.52,143.7Z"/><path class="cls-5" d="M199.2,145.28c6.16-3,18.31-6.6,25.72-6.85-5,1-21.18,5.59-26.31,8S194.79,146.78,199.2,145.28Z"/><path class="cls-6" d="M225,136.84c-6.09,0-18.21,2.88-27.59,6.56h-.08c-1.4,1.09-1.83,3.86-1,6.32a5.54,5.54,0,0,0,5.4,4.06,6.3,6.3,0,0,0,1.15-.1c11.68-2.58,25.94-10.44,25.94-15.92v-.17l-.14-.1A7,7,0,0,0,225,136.84Zm-22.21,16.27a5.55,5.55,0,0,1-1,.09,5,5,0,0,1-4.8-3.64c-.75-2.16-.42-4.65.73-5.59,9.31-3.65,21.31-6.5,27.32-6.5a7,7,0,0,1,3.2.51c-.35,4.72-13.24,12.43-25.45,15.13Z"/><path class="cls-3" d="M203.15,151.3c-2.63,2-1.42,10.78,5.31,9.73,12.12-2.68,29-10.5,29-16.27C234.2,141.08,214.27,146.94,203.15,151.3Z"/><path class="cls-4" d="M203.15,151.3c-2.63,2-4.52,5.26,2.21,4.2,12.12-2.68,27.89-5.85,32.08-10.74C234.2,141.08,214.27,146.94,203.15,151.3Z"/><path class="cls-5" d="M206,152.24c6.15-3,18.3-6.61,25.72-6.86-5,1-21.46,6.31-26.59,8.75S201.53,153.74,206,152.24Z"/><path class="cls-6" d="M233.12,143.28c-7.63,0-22.18,4.62-30.09,7.73H203c-1.39,1.09-1.82,3.87-1,6.33a5.55,5.55,0,0,0,5.4,4.06,8.93,8.93,0,0,0,1.16-.1c11.91-2.64,29.22-10.41,29.22-16.58v-.12l-.08-.09C236.92,143.7,235.43,143.28,233.12,143.28Zm-24.71,17.44a6.74,6.74,0,0,1-1,.08,5,5,0,0,1-4.8-3.63c-.74-2.16-.41-4.65.74-5.59,7.87-3.09,22.28-7.67,29.81-7.67,2,0,3.35.33,4,1C236.88,150.2,221.3,157.87,208.41,160.72Z"/><path class="cls-3" d="M206.84,159.28c-2.63,2.06-.83,13.37,5.9,12.32,12.12-2.68,29.51-10.48,29.82-20C239.33,147.91,218,154.92,206.84,159.28Z"/><path class="cls-4" d="M206.84,159.28c-2.63,2.06-5,7.82,1.7,6.77,12.11-2.68,30.55-7.69,34-14.47C239.33,147.91,218,154.92,206.84,159.28Z"/><path class="cls-5" d="M213.61,159.21c6.15-3,18.3-6.6,25.72-6.85-5,1-21.46,6.31-26.59,8.75S209.19,160.71,213.61,159.21Z"/><path class="cls-6" d="M238.79,150.24c-7.71,0-23.78,5.5-32.07,8.75h-.07c-1.44,1.12-1.71,4.64-.61,7.85s3.24,5.09,5.84,5.09a5.82,5.82,0,0,0,.93-.07c11.45-2.54,29.74-10.29,30.07-20.32v-.12l-.08-.1C242.13,150.61,240.82,150.24,238.79,150.24Zm-26.1,21a5.52,5.52,0,0,1-.81.06c-3.28,0-4.76-3.27-5.24-4.67-1-2.84-.81-6.15.36-7.12,8.26-3.24,24.19-8.69,31.79-8.69,1.72,0,2.88.28,3.45.83-.47,9.66-18.35,17.16-29.55,19.64Z"/><path class="cls-7" d="M214.64,161.11c7.89-4.26,2.4-9.24-7.23-8.91,6.73-3.75,2.3-7.82-6.22-8.17,6.23-4,.82-7-2.65-7.62,0-3.94-8-5.52-8-5.52l-23.9,1.71s-4.92,3.19-5.78,13c-1,10.73,6,24.22,19.9,27.61s30.18,2.41,38.11-2.87S221.38,161,214.64,161.11Z"/><path class="cls-8" d="M222.15,163.57c-1.05-1.29-3.22-2.16-5.77-2.4a119,119,0,0,0-18.47,1.51c5.86-3.51,12.8-8.11,20.33-6.73-.89-2.28-5.13-3.94-10.83-3.75l.65-.39c-5.6.41-10,5-16.46,1.41,6.6-.55,13.2-2.07,18.55-6.21-1.23-1.62-4.55-2.8-9-3l.24-.17c-3.48.56-6.8,2.13-10.46,3,3-4.5,8.38-4.64,13-7-.48-1.83-3.31-3.08-5.43-3.47,0-3.94-8.18-5.78-8.18-5.78l-23.69,2s-4.92,3.19-5.78,13a25.59,25.59,0,0,0,1.77,11.48c3.69,5.81,9.42,10.26,16.32,11.24l-1.26-1.26c6.08,1.83,12.16,3.64,18.81,3.21-.38-.23-.76-.68-1.14-.68C204.65,170.17,214.38,168.82,222.15,163.57Z"/><path class="cls-8" d="M197.28,170.26l-.75.05A.56.56,0,0,0,197.28,170.26Z"/><path class="cls-10" d="M215.77,160.81c3-1.94,3.12-3.74,2.86-4.69-.68-2.51-4.75-4.2-10.08-4.25,2.34-1.58,2.61-3,2.38-4-.52-2.18-3.94-3.76-8.81-4.13,1.7-1.27,2.44-2.56,2.19-3.82-.38-1.93-3.05-3.3-5.46-3.79-.14-1.74-1.69-3-3.4-3.91a11.65,11.65,0,0,0-4.94-1c.08,0,7.72,1.57,7.72,5.21v.27h.26c2.28.42,4.88,1.73,5.2,3.34.23,1.14-.7,2.42-2.68,3.7l-.83.54h1c4.92.21,8.68,1.72,9.15,3.7.29,1.24-.8,2.62-3.07,3.88l-1.14.63h1.31c6.23-.21,10,1.74,10.6,3.78.4,1.48-.85,3.1-3.53,4.54l-1.15.62h1.3c3.9-.08,7.16,1.3,7.76,3.24.5,1.6-.8,3.54-3.68,5.45-7.69,5.13-23.61,6.32-37.85,2.84-13.53-3.31-20.62-16.47-19.67-27.28.84-9.56,5.6-12.78,5.64-12.81s-5.4,2.87-6.27,12.75c-1,11.08,6.29,24.57,20.15,27.95a70.73,70.73,0,0,0,16.71,2c8.81,0,16.81-1.7,21.64-4.92,4-2.67,4.35-4.83,3.94-6.17C222.37,162.43,219.47,161,215.77,160.81Z"/><path class="cls-10" d="M203.28,162.2a53.47,53.47,0,0,1,13.43-.67l.06-.63A41.46,41.46,0,0,0,203.28,162.2Z"/><path class="cls-10" d="M200,154.19a20.9,20.9,0,0,1,9.1-1.68v-.63C204.43,151.49,200,154.19,200,154.19Z"/><path class="cls-10" d="M195.4,145.28a17.45,17.45,0,0,1,6.8-.88l.05-.63A12.67,12.67,0,0,0,195.4,145.28Z"/><path class="cls-10" d="M191.34,136.33a19.93,19.93,0,0,1,7.65.5l.17-.61A14.93,14.93,0,0,0,191.34,136.33Z"/><path class="cls-23" d="M190.23,87.47c-1-9,2.74-15.25,2.74-23.45s-3.26-18.62-7.79-24.2-16.83-10-27.45-6.83c-7.89,4.73-10.41,14.41-11.68,23.35S144.69,69.28,143.74,74c-4.52,12.83-26.4,25.46-27.66,50.17a23.24,23.24,0,0,1,9.73-7.2c.21,4.15,2.52,11.36,5.78,14.51,2.37-3.47,8.47-8.2,10.47-11.36,1.21,4.37,7.15,12.26,11.46,15.26,2.63-1.84,6.52-8.94,6.47-13.78,5.73,7.1,12.73,6,16.52,11.68,1.42-2.95,1.26-8.68.36-12.26,3.84,2.89,10.75,3,14.63,2.16-2.06-3-2.53-8.47-2.63-11,3.68,1.37,9.82.11,12.41-1.94C195.23,106.46,191.28,96.52,190.23,87.47Z"/><path class="cls-24" d="M186.42,104.46c3.58,2.38,5.83,3.55,8.51,4.31a40.19,40.19,0,0,1-9.64-9.83h3.15c-5-5-9.46-13.25-5.68-18.3,8.88-13.88,9-33.11-1.86-44.42-5.85-3.61-15-5.66-23.17-3.23-7.89,4.73-10.41,14.41-11.68,23.35S144.69,69.28,143.74,74c-4.49,12.73-26,25.26-27.62,49.59a32.87,32.87,0,0,1,10.47-13.3,23,23,0,0,0-1.29,6.87,5.27,5.27,0,0,1,.51-.19c.2,4,2.38,10.9,5.48,14.2.3-9.14,9.19-15.17,9.19-24.67,1.15,4.61.67,9.45,1.25,14.1q.18-.24.33-.48c1.15,4.18,6.63,11.56,10.88,14.82,3.77-7.4,1.17-17.74.16-25.28,2.28,4.55,5.33,7.31,6.89,11.94,5.65,7,12.52,6,16.34,11.44.24-7.76-3-16-9.34-20.23,7.42,4.25,13.51,9.82,22,10.75a19.24,19.24,0,0,0,2-.28,7.91,7.91,0,0,1-3.18-4.79c-2.52-5.68-3.78-13.88-10.09-15.77A18.9,18.9,0,0,1,186.42,104.46Z"/><path class="cls-25" d="M135.43,90.73c.63,1.27-1.26,3.16-.63,2.53,8-8,21.07-22.61,10.59-31.89-.68,5.61-.9,8.9-1.65,12.64-3.94,11.17-21,22.19-26.2,41.15C121.59,105.91,128.16,97.62,135.43,90.73Z"/><path class="cls-26" d="M190.55,87.44c-.59-5,.36-9.27,1.28-13.36A45.16,45.16,0,0,0,193.28,64c0-8.39-3.37-18.88-7.85-24.4-3.77-4.64-12.26-8-20.19-8a27.14,27.14,0,0,0-7.6,1.06h-.07c-8.23,4.93-10.64,15.19-11.83,23.57-.56,4-.9,7.05-1.17,9.51-.35,3.09-.62,5.53-1.13,8.1-1.62,4.6-5.45,9.12-9.88,14.35-7.57,8.93-17,20-17.8,35.92l-.05,1.06.62-.86a23.36,23.36,0,0,1,9.19-7c.35,4.51,2.77,11.32,5.85,14.3l.27.26.21-.31a44.45,44.45,0,0,1,5.28-5.69,47.73,47.73,0,0,0,4.82-5.13c1.57,4.52,7.19,11.88,11.39,14.8l.18.12.18-.12c2.45-1.72,6.23-8.22,6.58-13.21,2.87,3.27,6,4.69,8.86,6s5.32,2.4,7.1,5.07l.31.46.24-.5c1.33-2.76,1.32-8,.57-11.69a18.43,18.43,0,0,0,9.45,2.24,21.89,21.89,0,0,0,4.77-.49l.45-.1-.27-.38c-1.91-2.8-2.42-7.88-2.56-10.37a11.44,11.44,0,0,0,3.34.44c3.34,0,7-1.06,8.93-2.59l.35-.27-.38-.24C195.28,106.12,191.53,95.88,190.55,87.44Zm2,25a10.52,10.52,0,0,1-3.56-.55l-.45-.17v.48c.12,2.75.59,7.71,2.44,10.76a21.74,21.74,0,0,1-4.18.38c-4,0-7.57-.94-9.75-2.57l-.71-.54.22.87c.84,3.38,1,8.58-.13,11.54-1.86-2.49-4.38-3.63-7.05-4.82-3.07-1.39-6.24-2.81-9.15-6.42l-.57-.71v.91c0,4.77-3.68,11.46-6.16,13.39-4.22-3-10-10.76-11.16-15l-.19-.69-.38.61a38.29,38.29,0,0,1-5.1,5.55,50.21,50.21,0,0,0-5.14,5.48c-3-3.1-5.21-9.78-5.43-14v-.41l-.4.13a24,24,0,0,0-9.25,6.5c1.13-15.1,9.86-25.4,17.59-34.52,4.47-5.28,8.34-9.84,10-14.59.53-2.64.8-5.09,1.14-8.2.28-2.46.62-5.52,1.18-9.49,1.16-8.23,3.52-18.29,11.49-23.1a25.57,25.57,0,0,1,7.38-1c7.76,0,16,3.27,19.7,7.77,4.4,5.42,7.71,15.74,7.71,24A43.76,43.76,0,0,1,191.2,74c-.93,4.14-1.89,8.42-1.29,13.57,1,8.41,4.69,18.61,10.8,22.75a16,16,0,0,1-8.17,2.18Z"/><path class="cls-26" d="M125.6,118.2h.63a27.43,27.43,0,0,1,.3-6.89A16.46,16.46,0,0,0,125.6,118.2Z"/><path class="cls-26" d="M141.79,113.93a11.24,11.24,0,0,0,.2,7l.6-.2A15.26,15.26,0,0,1,141.79,113.93Z"/><path class="cls-26" d="M185.47,106.14s2.72,2,3.13,7h.63C188.8,107.82,185.47,106.14,185.47,106.14Z"/><path class="cls-27" d="M175.35,58.55c8.68-12.86,3.82-20.12-1-21.26s-10.45,2.76-14.87,6.27c0-3,0-9.47-4.34-10.14s-8.4,4.22-10.45,9.59c-5.84.31-6.78,5.28-3.47,10.09,3,1.5,13.49,9.47,16.64,15.39,5.53,12.78,20.75,12.07,23.83,5.52S182.45,60.52,175.35,58.55Z"/><path class="cls-26" d="M175.85,58.37c5.65-8.56,4.88-14,3.9-16.51A7.81,7.81,0,0,0,174.4,37a8.38,8.38,0,0,0-1.87-.21c-4.25,0-8.8,3-12.76,6.13,0-2.86-.25-9.11-4.61-9.79a4.76,4.76,0,0,0-.84-.07c-4.22,0-8,4.82-9.88,9.66-3.05.23-4.38,1.65-5,2.83-1,2.06-.47,5,1.45,7.75v.07H141c2.93,1.46,13.42,9.45,16.5,15.22a16.31,16.31,0,0,0,15,10.32c4.37,0,8.07-1.88,9.44-4.79a12.26,12.26,0,0,0,.42-10.27A10.21,10.21,0,0,0,175.85,58.37Zm5.52,15.51c-1.26,2.68-4.74,4.42-8.86,4.42a15.71,15.71,0,0,1-14.4-10c-3.26-6.11-13.8-14-16.71-15.48-1.75-2.58-2.26-5.21-1.35-7,.74-1.51,2.34-2.37,4.63-2.49h.2l.07-.19c1.8-4.7,5.39-9.45,9.37-9.45a4.52,4.52,0,0,1,.74.06c4.2.66,4.11,7.56,4.08,9.82v.67l.52-.42c4-3.16,8.63-6.4,12.88-6.4a7.62,7.62,0,0,1,1.72.19,7.21,7.21,0,0,1,4.91,4.5c1,2.42,1.68,7.76-4.07,16.28l-.25.36.42.12a9.73,9.73,0,0,1,6.54,5.28,11.66,11.66,0,0,1-.44,9.73Z"/><path class="cls-28" d="M160.44,64.51c-3.36-2.12-13.07,3.6-14.4,8.69.94,5.17-1.33,7.61-1.64,12.15S146,96,153.08,95.75s9.95-5.25,9.48-12.69S159.66,75.78,160.44,64.51Z"/><path class="cls-18" d="M145.89,78.67c-.49,2.15-1.31,4.07-1.49,6.68a11.35,11.35,0,0,0,2,7.56,7.35,7.35,0,0,0,9.07-2.1c3.29-4.69,5.17-10.8.94-14.56C153,73.28,149.69,77.64,145.89,78.67Z"/><path class="cls-20" d="M161.73,76.63c-.74-2.71-1.45-5.27-1-12.1v-.19l-.16-.1a3.79,3.79,0,0,0-2-.5c-4.3,0-11.68,4.85-12.87,9.38v.13a14.51,14.51,0,0,1-.68,7.36,21.68,21.68,0,0,0-1,4.72,11.16,11.16,0,0,0,2.48,8.31,8,8,0,0,0,6.13,2.43h.4a9.68,9.68,0,0,0,7.16-2.92c2-2.23,2.9-5.62,2.62-10.1A28,28,0,0,0,161.73,76.63Zm-1.95,16.09a9,9,0,0,1-6.71,2.71h-.38A7.43,7.43,0,0,1,147,93.21a10.58,10.58,0,0,1-2.31-7.84,21.06,21.06,0,0,1,.94-4.58,15,15,0,0,0,.71-7.58c1.16-4.2,8.25-8.84,12.24-8.84a3.48,3.48,0,0,1,1.52.31c-.46,6.8.25,9.38,1,12.11a28.05,28.05,0,0,1,1.12,6.29C162.51,87.38,161.68,90.62,159.78,92.72Z"/><path class="cls-19" d="M147.18,92.23c-.91-3.65-.91-6.82,0-11.81C145.8,83.89,144.91,88.3,147.18,92.23Z"/><path class="cls-29" d="M171.11,41.33c-3.18-.56-6.44,2.88-7.29,7.68s1.05,9.14,4.24,9.7,6.44-2.87,7.29-7.67S174.3,41.89,171.11,41.33Z"/><path class="cls-12" d="M171.11,41.33c-3.18-.56-6.44,2.88-7.29,7.68s10.68,6.83,11.53,2S174.3,41.89,171.11,41.33Z"/><path class="cls-30" d="M171.17,41c-3.35-.59-6.79,3-7.66,7.93S164.65,58.44,168,59s6.78-3,7.66-7.93S174.52,41.61,171.17,41ZM175,51c-.82,4.62-3.92,8-6.93,7.42s-4.79-4.72-4-9.34S168,41.14,171,41.66,175.85,46.36,175,51Z"/><path class="cls-31" d="M170.9,47.63c-1.7-.3-3.43,1.44-3.86,3.89s.6,4.67,2.3,5,3.44-1.44,3.87-3.88S172.61,47.93,170.9,47.63Z"/><path class="cls-32" d="M167,51.52c-.43,2.45.6,4.67,2.3,5s3.44-1.44,3.87-3.88C171.28,54.87,167.69,55,167,51.52Z"/><path class="cls-33" d="M170.63,49.19c-1.11-.2-2.23.93-2.51,2.52s.39,3,1.5,3.23,2.23-.94,2.5-2.53S171.73,49.38,170.63,49.19Z"/><path class="cls-12" d="M170.06,48.88a1.34,1.34,0,1,0,.91,1.3A1.34,1.34,0,0,0,170.06,48.88Z"/><path class="cls-12" d="M168.7,51.86a.67.67,0,1,0,.44.63A.67.67,0,0,0,168.7,51.86Z"/><path class="cls-34" d="M170.94,47.43c-1.81-.31-3.64,1.5-4.09,4.06s.65,4.88,2.46,5.2,3.64-1.5,4.09-4S172.74,47.75,170.94,47.43ZM173,52.57c-.41,2.34-2.05,4-3.64,3.72s-2.56-2.4-2.15-4.74,2-4,3.64-3.72S173.43,50.24,173,52.57Z"/><path class="cls-29" d="M153.92,35.81c-2.12-.81-5.17,2-6.81,6.37s-1.25,8.48.87,9.28,5.17-2,6.81-6.37S156,36.61,153.92,35.81Z"/><path class="cls-12" d="M153.92,35.81c-2.12-.81-5.17,2-6.81,6.37s6,7.24,7.68,2.91S156,36.61,153.92,35.81Z"/><path class="cls-30" d="M154,35.51a2.55,2.55,0,0,0-.86-.15c-2.21,0-4.88,2.82-6.35,6.71a14.13,14.13,0,0,0-1,6.1c.18,1.88.9,3.16,2.05,3.59a2.58,2.58,0,0,0,.87.16h0c2.2,0,4.87-2.83,6.34-6.72C156.81,40.65,156.35,36.39,154,35.51Zm.46,9.47c-1.36,3.59-3.84,6.31-5.75,6.31a1.82,1.82,0,0,1-.65-.12c-.9-.34-1.49-1.43-1.64-3.06a13.48,13.48,0,0,1,1-5.82c1.36-3.59,3.84-6.3,5.76-6.3a1.72,1.72,0,0,1,.64.11c1.91.73,2.18,4.8.67,8.9Z"/><path class="cls-31" d="M152.4,41.56c-1.13-.43-2.73,1-3.57,3.21s-.59,4.34.54,4.78,2.73-1,3.57-3.22S153.54,42,152.4,41.56Z"/><path class="cls-32" d="M148.83,44.77c-.84,2.21-.59,4.34.54,4.78s2.73-1,3.57-3.22C151.34,47.94,148.61,47.09,148.83,44.77Z"/><path class="cls-33" d="M151.73,43.32c-.63-.24-1.53.57-2,1.8s-.34,2.42.3,2.66,1.53-.56,2-1.79S152.37,43.56,151.73,43.32Z"/><path class="cls-12" d="M151.25,42.8c-.31-.12-.74.27-1,.87s-.16,1.17.15,1.29.74-.27,1-.87S151.56,42.91,151.25,42.8Z"/><path class="cls-12" d="M150,45.27c-.17-.07-.41.15-.53.48s-.09.64.08.71.4-.15.53-.48S150.15,45.33,150,45.27Z"/><path class="cls-34" d="M152.5,41.31a2,2,0,0,0-.35-.09c-1.26-.14-2.76,1.31-3.57,3.46-.91,2.38-.6,4.63.69,5.12a1.37,1.37,0,0,0,.35.08c1.26.15,2.76-1.3,3.58-3.45C154.1,44.05,153.79,41.8,152.5,41.31Zm.19,4.93c-.76,2-2.25,3.42-3.22,3s-1.15-2.39-.38-4.42c.7-1.85,2-3.22,3-3.1h.21C153.28,42.19,153.45,44.21,152.69,46.24Z"/><path class="cls-35" d="M187.5,32.83c3.47-6.08-3-12.93-10.17-5.92,2.44-10.25-8.21-14.44-11.84-5.36-3.63-5.92-13.1-6.71-16.57-2.05s-2.76,15.14,11.6,15.77c7.49-3.21,20.11-1.93,28.87,11.9C196.1,42.77,195.94,31.49,187.5,32.83Z"/><path class="cls-18" d="M155.63,32c7.57,0,15.14-3.16,22.72,1.89,1.89,1.27,4.41.63,6.31,0,0,1.9.63,4.42,1.89,5.68,1.89,1.27,4.42,1.27,5-.63.36-1.46,1.15-3.33.9-4.91a5.61,5.61,0,0,0-5-1.24c3.47-6.08-3-12.93-10.17-5.92,2.44-10.25-8.21-14.44-11.84-5.36-3.63-5.92-13.1-6.71-16.57-2.05a9.45,9.45,0,0,0-1,9.19A9.9,9.9,0,0,0,155.63,32Z"/><path class="cls-36" d="M166.75,21.47c1.4-4.07,7.7-5.62,9.81,0C174.24,17.62,169.73,17.42,166.75,21.47Z"/><path class="cls-36" d="M148.06,25.47c.27-6.16,6.24-10.21,13.08-6.68C157.78,17.58,150.09,18.3,148.06,25.47Z"/><path class="cls-20" d="M188.06,32.44a6.55,6.55,0,0,0-.08-6.16,5.2,5.2,0,0,0-4.61-2.65,8.77,8.77,0,0,0-5.54,2.4,9.22,9.22,0,0,0-1.54-7.41,6,6,0,0,0-4.7-2.38c-2.55,0-4.82,1.72-6.16,4.64a11.87,11.87,0,0,0-9.59-4.71,8.71,8.71,0,0,0-7.17,3.14,9.72,9.72,0,0,0-.9,9.76c1.86,3.92,6.38,6.24,12.73,6.52h.14A18.78,18.78,0,0,1,168,34.12c4.78,0,13.88,1.72,21.16,13.22l.17.27.27-.18c4.15-2.72,5.6-7.81,4.6-11.15C193.35,33.58,191.11,32.15,188.06,32.44Zm1.42,14.28c-7.42-11.5-16.65-13.23-21.52-13.23a19.5,19.5,0,0,0-7.5,1.47c-7.77-.36-10.88-3.55-12.12-6.16a9.2,9.2,0,0,1,.83-9.12,8.13,8.13,0,0,1,6.67-2.88,11.08,11.08,0,0,1,9.38,4.91l.33.54.23-.59c1.2-3,3.37-4.79,5.81-4.79A5.39,5.39,0,0,1,175.8,19c1.53,1.93,2,4.71,1.23,7.83l-.25,1.05.77-.75c1.94-1.88,3.95-2.88,5.82-2.88a4.6,4.6,0,0,1,4.07,2.34,6.07,6.07,0,0,1-.22,6.07l-.32.57.65-.1c3-.48,5.23.73,6,3.32C194.46,39.51,193.18,44.13,189.48,46.72Z"/><path class="cls-20" d="M154.77,18.41a2.39,2.39,0,0,0-1.42,2.11c0,1.14,1.47,1.2,1.47,1.2a1.16,1.16,0,0,1-.89-1.19A1.82,1.82,0,0,1,155,19a2,2,0,0,1,2,.41A1.79,1.79,0,0,0,154.77,18.41Z"/><path class="cls-20" d="M156.78,29.68a2.43,2.43,0,0,0-1.42,2.11c0,1.14,1.48,1.19,1.48,1.19a1.17,1.17,0,0,1-.9-1.19,1.81,1.81,0,0,1,1-1.57,2,2,0,0,1,2,.41A1.78,1.78,0,0,0,156.78,29.68Z"/><path class="cls-20" d="M161.61,24.57a2.39,2.39,0,0,0-1.42,2.11c0,1.14,1.47,1.2,1.47,1.2a1.16,1.16,0,0,1-.89-1.19,1.8,1.8,0,0,1,1-1.58,2,2,0,0,1,2,.41A1.79,1.79,0,0,0,161.61,24.57Z"/><path class="cls-20" d="M182.66,29.92c-1.06.43-.54,1.82-.54,1.82a1.21,1.21,0,0,1,.76-1.28,1.81,1.81,0,0,1,1.85.34,2,2,0,0,1,.39,2,1.79,1.79,0,0,0,0-2.37A2.42,2.42,0,0,0,182.66,29.92Z"/><path class="cls-20" d="M188.59,37.58c-1.07.43-.54,1.82-.54,1.82a1.19,1.19,0,0,1,.75-1.29,1.79,1.79,0,0,1,1.85.35,2,2,0,0,1,.4,2,1.81,1.81,0,0,0,0-2.37A2.39,2.39,0,0,0,188.59,37.58Z"/><path class="cls-20" d="M170.26,21.09c-1.14.16-1,1.63-1,1.63a1.18,1.18,0,0,1,1-1.06,1.81,1.81,0,0,1,1.71.78,2,2,0,0,1-.1,2,1.8,1.8,0,0,0,.61-2.29A2.39,2.39,0,0,0,170.26,21.09Z"/><path class="cls-20" d="M169.12,26.41a2.38,2.38,0,0,0-2.23,1.21c-.55,1,.75,1.74.75,1.74a1.19,1.19,0,0,1-.25-1.47A1.81,1.81,0,0,1,169,27a2,2,0,0,1,1.56,1.27A1.79,1.79,0,0,0,169.12,26.41Z"/><path class="cls-37" d="M160.31,57.76c-4.68.21-17.41,3.89-20.07,5.05a28.61,28.61,0,0,1-6.55,10.57c3.26,2.37,10.26,3.89,16.52,2.37s8.68-6.32,9.73-7.79C164.83,65.54,166.51,58.49,160.31,57.76Z"/><path class="cls-38" d="M160.31,57.76c-4.68.21-17.41,3.89-20.07,5.05a28.61,28.61,0,0,1-6.55,10.57c3.26,2.37,8.16,2.5,14.41,1s9-6.44,10.05-7.91C162,65.4,166.51,58.49,160.31,57.76Z"/><path class="cls-39" d="M160.29,57.44c-4.67.21-17.43,3.88-20.17,5.08H140l-.05.14a27.86,27.86,0,0,1-6.48,10.45l-.24.26.29.21c2.54,1.85,7,3,11.4,3h0a22.56,22.56,0,0,0,5.36-.62,15.32,15.32,0,0,0,9.49-7.27l.38-.57c2.94-1.49,4.87-4.7,4.42-7.34C164.38,59.75,163.57,57.83,160.29,57.44Zm-.49,10.24h-.07v.07l-.44.65a14.76,14.76,0,0,1-9.11,7A21.81,21.81,0,0,1,145,76h0c-4.09,0-8.25-1.06-10.74-2.71A28.4,28.4,0,0,0,140.5,63c3-1.24,15.27-4.76,19.77-5,2.09.25,3.4,1.28,3.68,2.91.41,2.47-1.41,5.41-4.15,6.77Z"/><path class="cls-38" d="M153.86,58.85c-4.68.21-11,2.8-13.62,4a28.61,28.61,0,0,1-6.55,10.57c3.95,1.42,9.58.42,13.84-1.84,6.48-3.44,8.46-8,9.52-9.47C156.57,60.34,155.15,58.85,153.86,58.85Z"/><path class="cls-39" d="M153.84,58.53h0c-4.22.19-9.79,2.27-13.72,4H140l-.05.14a27.86,27.86,0,0,1-6.48,10.45l-.32.35.45.17a12.93,12.93,0,0,0,4.27.67h0a21.67,21.67,0,0,0,9.81-2.53,22.14,22.14,0,0,0,9.07-8.69c.22-.35.4-.65.56-.88l.09-.12V62C156.83,60.08,155.26,58.53,153.84,58.53Zm2.36,4.27a21.52,21.52,0,0,1-8.82,8.46,21.12,21.12,0,0,1-9.52,2.46,12.17,12.17,0,0,1-3.6-.49A28.31,28.31,0,0,0,140.5,63c5.51-2.39,10.13-3.73,13.36-3.88,1.09,0,2.36,1.29,2.84,2.85Z"/><path class="cls-40" d="M142.37,62.91a22,22,0,0,1-6.05,9.68c6.68-.21,15.39-4.79,17.17-9.68C152.31,60.86,145.84,61.49,142.37,62.91Z"/><path class="cls-41" d="M147,61.76a10.48,10.48,0,0,0-4.67,5.62,9.63,9.63,0,0,0,0,4c5.07-1.7,9.85-5,11.12-8.51C152.75,61.62,149.91,61.39,147,61.76Z"/><path class="cls-42" d="M149.37,61.29a18.85,18.85,0,0,0-2.37.15h-.12a10.81,10.81,0,0,0-4.82,5.84,9.51,9.51,0,0,0,0,4.18l.08.33.33-.11c4.62-1.55,9.91-4.84,11.3-8.7l0-.14-.07-.12C153.06,61.54,151,61.29,149.37,61.29ZM142.61,71a9.12,9.12,0,0,1,.06-3.53,10.09,10.09,0,0,1,4.47-5.42,18.42,18.42,0,0,1,2.23-.14c1.91,0,3.27.37,3.76,1C151.93,66,147.75,69.21,142.61,71Z"/><path class="cls-39" d="M149.37,61.28a20.39,20.39,0,0,0-7.12,1.34l-.14.06v.14a21.55,21.55,0,0,1-6,9.53l-.71.58h.92c6.36-.2,15.56-4.65,17.45-9.88l.05-.14-.07-.12C153.06,61.54,151,61.28,149.37,61.28ZM137.21,72.22a23,23,0,0,0,5.42-9.07,20.14,20.14,0,0,1,6.74-1.23c1.91,0,3.27.37,3.76,1C151.44,67.27,143.81,71.66,137.21,72.22Z"/><path class="cls-37" d="M158.47,54.09c-.44-1.93-1.42-5.33-4.66-6.27s-5.18,1.1-9.49,1.26-10-2.16-15.57,2-7.84,9-7.21,14.39c6.28-5.65,11.84-1.87,19.41-.53s14.22,0,17.73-2.29l2.12-4.82C159.22,57.3,158.9,56,158.47,54.09Z"/><path class="cls-38" d="M158.47,54.09c-.44-1.93-1.42-5.33-4.66-6.27s-5.18,1.1-9.49,1.26-10-2.16-15.57,2c-5.2,3.91-7.55,8.41-7.28,13.45,3.81-9.19,15-4,22.16-1.57,5.39,1.8,10.77.19,15.61-1.59l1.56-3.54C159.22,57.3,158.9,56,158.47,54.09Z"/><path class="cls-43" d="M124.15,57.76c2.37-3.47,5.75-6.95,10.12-7.87s9.81,1.57,14.94-.72c-3.89,3.12-9.41,1.17-12.94,1.38S128.22,53.29,124.15,57.76Z"/><path class="cls-39" d="M158.77,54c-.3-1.34-1.22-5.44-4.87-6.51a8.22,8.22,0,0,0-5.09.39,16.83,16.83,0,0,1-4.5.86,24.76,24.76,0,0,1-3.65-.22c-3.72-.4-7.94-.84-12.1,2.29-5.51,4.14-8,9.09-7.33,14.68l.07.61.46-.41c4.66-4.21,8.8-3.09,14-1.67,1.62.44,3.29.89,5.1,1.21a30.73,30.73,0,0,0,14.51-.72,11.39,11.39,0,0,0,3.09-2.14c-2.94,1.94-9.29,3.69-17.49,2.24-1.78-.32-3.44-.77-5-1.2-5.05-1.36-9.43-2.55-14.17,1.4-.38-5.11,2-9.65,7.14-13.5,4-3,8.05-2.55,11.65-2.16a27.51,27.51,0,0,0,3.74.23,18,18,0,0,0,4.66-.89c1.67-.5,3-.9,4.73-.39,3,.87,3.95,3.86,4.44,6,.42,1.88.75,3.37,2.54,4l.2-.6C159.52,57.07,159.22,56,158.77,54Z"/><path class="cls-44" d="M150.08,53.18c-.92,0-1.66.46-1.66,1s.74,1,1.66,1,1.65-.46,1.65-1S151,53.18,150.08,53.18Z"/><path class="cls-39" d="M150.08,52.87c-1.11,0-2,.59-2,1.34s.87,1.34,2,1.34,2-.59,2-1.34S151.18,52.87,150.08,52.87Zm0,2.05c-.79,0-1.34-.38-1.34-.71s.55-.71,1.34-.71,1.34.37,1.34.71S150.87,54.92,150.08,54.92Z"/></g></svg>