<svg xmlns="http://www.w3.org/2000/svg" viewBox="0 0 350 270"><defs><style>.cls-1{isolation:isolate;}.cls-2{fill:#196aa5;}.cls-3{fill:#18597c;}.cls-4,.cls-6{fill:#6c5451;}.cls-5{fill:#56372f;}.cls-18,.cls-20,.cls-6,.cls-9{mix-blend-mode:multiply;}.cls-14,.cls-18,.cls-6,.cls-9{opacity:0.4;}.cls-7{fill:#e994a4;}.cls-8{fill:#ea6a8d;}.cls-10,.cls-14,.cls-9{fill:#f1bbb4;}.cls-11{fill:#ed9783;}.cls-12{fill:#d8a182;opacity:0.6;}.cls-12,.cls-14,.cls-19,.cls-21,.cls-23{mix-blend-mode:screen;}.cls-13,.cls-21{fill:#fff;}.cls-15{fill:#9c480f;}.cls-16,.cls-23{fill:#f29797;}.cls-17{fill:#e26180;}.cls-20{fill:#d86666;}.cls-22{fill:#c36564;}</style></defs><g class="cls-1"><g id="Layer_1" data-name="Layer 1"><rect class="cls-2" width="350" height="270"/><ellipse class="cls-3" cx="179.82" cy="227.33" rx="111.71" ry="16.02"/><path class="cls-4" d="M100.18,218.34l3.94,1.26s5.51,6.82,4.13,7.57a4.83,4.83,0,0,1-3.4,0s1,1.4-1.59,1.4-8.59-.32-10.5-3.72a17.77,17.77,0,0,1-2.23-6Z"/><path class="cls-5" d="M103.26,229.05c-3.25,0-9-.51-10.93-4A18.78,18.78,0,0,1,90,218.9a.54.54,0,0,1,.11-.37.46.46,0,0,1,.35-.17l9.66-.51a.5.5,0,0,1,.17,0l3.94,1.27a.53.53,0,0,1,.23.16c1.12,1.39,4.76,6,4.43,7.66a.91.91,0,0,1-.45.64,3.59,3.59,0,0,1-1.73.39,5.72,5.72,0,0,1-1.24-.14,1.07,1.07,0,0,1-.12.4C105.1,228.79,104.4,229.05,103.26,229.05ZM91.1,219.3a19.19,19.19,0,0,0,2.08,5.32c1.76,3.12,7.64,3.46,10.08,3.46.88,0,1.21-.18,1.27-.29s0-.3-.08-.35a.48.48,0,0,1,0-.57.49.49,0,0,1,.55-.16,5.85,5.85,0,0,0,1.73.3,2.57,2.57,0,0,0,1.27-.27c.19-.56-1.71-3.63-4.18-6.72l-3.72-1.19Z"/><path class="cls-6" d="M100.18,218.34l3.94,1.26.39.5c-1.2,1.46-3.89,1.92-5.54,2.23-1.28.24-3.83.26-3.25,2.36.36,1.3,4,2.44,4.4,2.58.78.28,2,.7,2.8.24a1.64,1.64,0,0,0,.82-1.23.68.68,0,0,0,0-.7,4.77,4.77,0,0,0-.16-.89c.43.42.84.85,1.26,1.19.62.52,1.91,1.31,2.5.28a2.88,2.88,0,0,0,.26-1.6c.73,1.26,1.14,2.33.64,2.61a4.83,4.83,0,0,1-3.4,0s1,1.4-1.59,1.4-8.59-.32-10.5-3.72a17.77,17.77,0,0,1-2.23-6Z"/><path class="cls-5" d="M104.85,227.49a.33.33,0,0,0,.15,0,.33.33,0,0,0,.13-.44l-2.06-3.71a.31.31,0,0,0-.43-.12.31.31,0,0,0-.13.42l2.07,3.72A.29.29,0,0,0,104.85,227.49Z"/><path class="cls-4" d="M176.25,221.71l3.93,1.27s5.51,6.81,4.13,7.57a4.8,4.8,0,0,1-3.39,0s1,1.4-1.59,1.4-8.6-.33-10.51-3.72a18,18,0,0,1-2.23-6Z"/><path class="cls-5" d="M179.33,232.43c-3.25,0-9-.51-10.94-4a18.33,18.33,0,0,1-2.28-6.19.48.48,0,0,1,.11-.38.51.51,0,0,1,.35-.17l9.65-.5a.37.37,0,0,1,.18,0l3.93,1.27a.41.41,0,0,1,.23.15c1.12,1.39,4.76,6,4.44,7.66a.91.91,0,0,1-.45.64,3.48,3.48,0,0,1-1.73.4,6.44,6.44,0,0,1-1.25-.14,1,1,0,0,1-.12.39C181.16,232.16,180.47,232.43,179.33,232.43Zm-12.16-9.76a19.07,19.07,0,0,0,2.07,5.32c1.76,3.13,7.64,3.47,10.09,3.47.87,0,1.2-.19,1.26-.3s-.05-.3-.07-.34a.48.48,0,0,1,.57-.73,5.76,5.76,0,0,0,1.73.3,2.67,2.67,0,0,0,1.26-.27c.19-.56-1.7-3.63-4.19-6.72l-3.7-1.2Z"/><path class="cls-6" d="M176.25,221.71l3.55,1.14c-.84.28-1.75.47-2.21.66-1.67.69-3.45,1.06-5.09,1.72-2.85,1.14-.39,3.07,1.32,4.1,1.17.71,4.67,2.88,5.94,1.28a2.33,2.33,0,0,0,.32-2.18l.61.52c.71.58,1.74,1.49,2.72,1a1.49,1.49,0,0,0,.81-1c.34.77.45,1.37.09,1.57a4.8,4.8,0,0,1-3.39,0s1,1.4-1.59,1.4-8.6-.33-10.51-3.72a18,18,0,0,1-2.23-6Z"/><path class="cls-5" d="M180.92,230.86a.28.28,0,0,0,.15,0,.31.31,0,0,0,.12-.43l-2.06-3.72a.32.32,0,0,0-.43-.12.31.31,0,0,0-.12.43l2.06,3.72A.32.32,0,0,0,180.92,230.86Z"/><path class="cls-4" d="M207.79,218.48l3.94,1.27s5.5,6.81,4.13,7.57a4.83,4.83,0,0,1-3.4,0s1,1.4-1.59,1.4-8.6-.32-10.5-3.72a17.77,17.77,0,0,1-2.23-6Z"/><path class="cls-5" d="M210.87,229.2c-3.25,0-9-.51-10.93-4a18.24,18.24,0,0,1-2.29-6.19.53.53,0,0,1,.11-.37.48.48,0,0,1,.35-.18l9.66-.5a.35.35,0,0,1,.17,0l3.94,1.27a.51.51,0,0,1,.23.15c1.12,1.39,4.75,6.05,4.43,7.67a.86.86,0,0,1-.45.63,3.48,3.48,0,0,1-1.73.4,6.42,6.42,0,0,1-1.24-.14,1.17,1.17,0,0,1-.12.39C212.71,228.94,212,229.2,210.87,229.2Zm-12.16-9.76a19.08,19.08,0,0,0,2.08,5.32c1.76,3.13,7.63,3.47,10.08,3.47.88,0,1.21-.18,1.26-.3s0-.3-.07-.34a.48.48,0,0,1,.57-.73,5.85,5.85,0,0,0,1.73.3,2.61,2.61,0,0,0,1.26-.27c.19-.56-1.7-3.63-4.18-6.72l-3.71-1.2Z"/><path class="cls-6" d="M207.79,218.48l3.14,1a22.92,22.92,0,0,1-7.73,3c-.57.07-1,.77-.51,1.23,1.41,1.27,5.63,5.23,7.84,4,1.4-.77.88-2.63.51-4.16,1.37,1.24,2.2,3.61,4.17,3.73a2.46,2.46,0,0,0,.69-.06l0,0a4.83,4.83,0,0,1-3.4,0s1,1.4-1.59,1.4-8.6-.32-10.5-3.72a17.77,17.77,0,0,1-2.23-6Z"/><path class="cls-5" d="M212.46,227.63a.34.34,0,0,0,.16,0,.32.32,0,0,0,.12-.43l-2.07-3.71a.31.31,0,0,0-.43-.13.32.32,0,0,0-.12.43l2.06,3.72A.33.33,0,0,0,212.46,227.63Z"/><path class="cls-4" d="M126.87,214.56l3.92,1.24s5.47,6.67,4.1,7.41a4.84,4.84,0,0,1-3.38,0s1,1.37-1.58,1.37-8.54-.31-10.45-3.64a17.7,17.7,0,0,1-2.21-5.89Z"/><path class="cls-5" d="M129.93,225.07c-3.23,0-8.94-.51-10.87-3.89a17.8,17.8,0,0,1-2.27-6.07.46.46,0,0,1,.11-.37.48.48,0,0,1,.35-.18l9.59-.49a.36.36,0,0,1,.18,0l3.91,1.25a.44.44,0,0,1,.23.15c1.12,1.35,4.73,5.91,4.41,7.51a.92.92,0,0,1-.45.64,3.67,3.67,0,0,1-1.72.38,6.36,6.36,0,0,1-1.23-.13,1.45,1.45,0,0,1-.12.37C131.77,224.8,131.07,225.07,129.93,225.07Zm-12.08-9.56a18.47,18.47,0,0,0,2.06,5.19c1.75,3.06,7.59,3.39,10,3.39.87,0,1.2-.18,1.26-.29a.41.41,0,0,0-.08-.31.5.5,0,0,1,0-.58.48.48,0,0,1,.55-.16,5.83,5.83,0,0,0,1.72.3,2.67,2.67,0,0,0,1.26-.27c.17-.55-1.71-3.55-4.16-6.56l-3.69-1.17Z"/><path class="cls-6" d="M126.87,214.56l3.92,1.24.11.14c-1.83,1.31-7.87,2.05-9,2.2a.73.73,0,0,0-.51,1.24,12,12,0,0,0,3.26,2.27c1.07.62,2.59,1.64,3.89,1.53,1.7-.15,1.71-1.5,1.52-2.92,1.37,1.5,3.09,3.53,4.18,2.11a1.91,1.91,0,0,0,.33-1.23c.54,1,.79,1.84.36,2.07a4.84,4.84,0,0,1-3.38,0s1,1.37-1.58,1.37-8.54-.31-10.45-3.64a17.7,17.7,0,0,1-2.21-5.89Z"/><path class="cls-5" d="M131.45,223.6a.42.42,0,0,0,.15,0,.31.31,0,0,0,.12-.43l-2.06-3.72a.32.32,0,1,0-.55.31l2.06,3.72A.33.33,0,0,0,131.45,223.6Z"/><path class="cls-7" d="M263.86,75.39a20.09,20.09,0,0,0,13.51,2S275,88.24,262,87.77s-27.46-22.09-27.46-22.09,3.06-5.44,13.08-2.66S256.33,71.27,263.86,75.39Z"/><path class="cls-8" d="M262.8,88.27H262c-5.53-.2-11.9-4-19-11.37A89.9,89.9,0,0,1,234.13,66a.47.47,0,0,1,0-.51c.08-.15,2.15-3.7,8.21-3.7a20.25,20.25,0,0,1,5.42.81c5.93,1.65,8,4.19,10.16,6.88A19.28,19.28,0,0,0,264.09,75a19.62,19.62,0,0,0,9.3,2.33h0a19.35,19.35,0,0,0,3.88-.4.48.48,0,0,1,.45.13.47.47,0,0,1,.13.45c0,.11-2.5,10.8-15.05,10.8ZM235.12,65.68c1.71,2.46,15.06,21.18,26.89,21.61.27,0,.52,0,.79,0,9.88,0,13.09-7,13.88-9.31a20.11,20.11,0,0,1-3.29.28h0a20.39,20.39,0,0,1-9.78-2.46A20.16,20.16,0,0,1,257.14,70a16.2,16.2,0,0,0-9.66-6.55,19.61,19.61,0,0,0-5.16-.78C237.69,62.71,235.68,64.92,235.12,65.68Z"/><path class="cls-9" d="M247.61,63c10,2.78,8.72,8.25,16.25,12.37a20.09,20.09,0,0,0,10.88,2.34c-5.35,2-12.43.44-16.74-2.76-.7-.52-1.38.55-.88,1.14,2.4,2.81,4.67,5.61,6,9.09.33.85.66,1.71,1,2.54a19.18,19.18,0,0,1-2.16,0c-13-.46-27.46-22.09-27.46-22.09S237.59,60.24,247.61,63Z"/><path class="cls-10" d="M58.21,84.54c.51,1.1,1.84.4,4.11,1.33-4.14,5-1,12.64,4.32,10s2.06-9.1-.13-10.1C73.85,80,78,90,78,90l2.88-3.6C77.8,79.62,70,79.78,64.41,83.79,62.53,83.18,57.7,83.44,58.21,84.54Zm5.67,8.38c-2-2.43,1.13-5.45,1.13-5.45C69.34,90.64,65.86,95.36,63.88,92.92Z"/><path class="cls-11" d="M64.54,96.89a4.37,4.37,0,0,1-4-2.75,8.19,8.19,0,0,1,.94-8,9.45,9.45,0,0,0-1.76-.33c-.82-.08-1.6-.17-2-1a.81.81,0,0,1,0-.81c.55-.86,2.89-1,3.87-1a10.74,10.74,0,0,1,2.63.28,14.53,14.53,0,0,1,8.2-2.75,9.29,9.29,0,0,1,8.84,5.7.5.5,0,0,1-.06.51l-2.88,3.59a.49.49,0,0,1-.45.18.48.48,0,0,1-.38-.29c0-.06-2.46-5.73-6.66-5.73a6.41,6.41,0,0,0-3.56,1.25A8,8,0,0,1,70,91.31a5.2,5.2,0,0,1-3.14,5A5.14,5.14,0,0,1,64.54,96.89ZM58.7,84.42c.15.25.41.3,1.18.39a9,9,0,0,1,2.62.61.48.48,0,0,1,.29.33.47.47,0,0,1-.09.43,7.22,7.22,0,0,0-1.22,7.54,3.4,3.4,0,0,0,4.94,1.7A4.26,4.26,0,0,0,69,91.33c0-2.37-1.66-4.66-2.71-5.14a.47.47,0,0,1-.1-.82,7.69,7.69,0,0,1,4.72-1.87c3.91,0,6.35,3.94,7.21,5.6l2.21-2.75a8.33,8.33,0,0,0-7.83-4.87,13.59,13.59,0,0,0-7.82,2.71.53.53,0,0,1-.44.07,9.12,9.12,0,0,0-2.57-.3A6.7,6.7,0,0,0,58.7,84.42Zm6.43,9.67a2.07,2.07,0,0,1-1.63-.86c-1.78-2.2,0-5,1.17-6.11a.48.48,0,0,1,.62,0c2.24,1.63,2.55,3.69,2.1,5.06A2.56,2.56,0,0,1,65.13,94.09Zm-.07-6c-.67.77-2.15,2.82-.8,4.49.73.9,1.82.39,2.21-.78C66.63,91.36,67,89.72,65.06,88.13Z"/><path class="cls-12" d="M64.2,95.81s-1.19-.42-2.12-2.6c-1.4-3.3.69-7.48,5.13-10.27,1.67-.86-1.88-.6-4.82,3.42S61,96.25,64.2,95.81Z"/><path class="cls-13" d="M62,94.28s-3.37-4.82,3-10.42C61.65,86,59.11,90.38,62,94.28Z"/><path class="cls-10" d="M221.26,167s-29.64-8.47-32.83-7c0,0-11.26,24.17,10.55,61.44a21.94,21.94,0,0,0,12.89-.73C210.92,215,204.8,193.59,221.26,167Z"/><path class="cls-11" d="M204,222.51a18.46,18.46,0,0,1-5.21-.65.49.49,0,0,1-.27-.22C187.24,202.3,185,186.52,185,176.7c.09-10.68,2.83-16.69,3-16.94a.47.47,0,0,1,.24-.24,3.56,3.56,0,0,1,1.41-.21c6.43,0,30.73,6.93,31.76,7.22a.51.51,0,0,1,.32.29.52.52,0,0,1,0,.44c-15,24.27-11.12,44.15-9.65,51.64.14.66.25,1.22.32,1.69a.49.49,0,0,1-.31.54A23.91,23.91,0,0,1,204,222.51ZM199.3,221a18.59,18.59,0,0,0,4.74.56,22.72,22.72,0,0,0,7.28-1.2l-.24-1.26c-1.48-7.53-5.4-27.43,9.43-51.79-3.9-1.1-25.13-7-30.87-7a3.71,3.71,0,0,0-.85.07C187.83,162.68,179,186.19,199.3,221Z"/><path class="cls-9" d="M188.43,160c3.19-1.43,32.83,7,32.83,7a79.66,79.66,0,0,0-7.51,15.62c0-.12,0-.24,0-.36a.73.73,0,0,0-.91-.7c-8,2.13-13.86,9.52-15.12,17.56-1.23,7.8,1.82,15.82,5.35,22.88a17.45,17.45,0,0,1-4.07-.6C177.17,184.13,188.43,160,188.43,160Z"/><path class="cls-9" d="M194.07,187.23a25.11,25.11,0,0,0-6.9,4.86C182.84,172,188.43,160,188.43,160c3.19-1.43,32.83,7,32.83,7A83,83,0,0,0,216,177C208.6,180.19,201.32,183.75,194.07,187.23Z"/><path class="cls-10" d="M110.07,182.86A21.12,21.12,0,0,0,114,170.65c9.33,1.58,21.49,4.21,21.49,4.21s-12,16.77-7.76,33.07a52.74,52.74,0,0,0,3.08,7.87s-8.42,3.19-13.52-.75c0,0-4.57-10.83-10.21-24.26C106.94,187.78,108.11,185.65,110.07,182.86Z"/><path class="cls-11" d="M123.9,217.5a11.09,11.09,0,0,1-6.93-2.06.59.59,0,0,1-.15-.2s-4.57-10.83-10.21-24.26a.85.85,0,0,1,0-.17c-.12-3,1-5.24,3.1-8.23a20.53,20.53,0,0,0,3.82-11.94.45.45,0,0,1,.18-.36.49.49,0,0,1,.39-.11c9.24,1.56,21.39,4.18,21.51,4.21a.5.5,0,0,1,.35.3.48.48,0,0,1-.06.46c-.12.17-11.84,16.78-7.67,32.67a51.78,51.78,0,0,0,3,7.77.51.51,0,0,1,0,.4.5.5,0,0,1-.28.27A22.24,22.24,0,0,1,123.9,217.5Zm-6.23-2.76a10.18,10.18,0,0,0,6.23,1.79,21.46,21.46,0,0,0,6.21-1,50.64,50.64,0,0,1-2.87-7.46c-3.82-14.58,5.33-29.69,7.42-32.87-2.66-.57-12.36-2.61-20.21-4a21.41,21.41,0,0,1-4,11.92c-2,2.85-3,4.81-2.92,7.55C112.82,203.25,117.16,213.53,117.67,214.74Z"/><path class="cls-9" d="M110.07,182.86A21.12,21.12,0,0,0,114,170.65c9.33,1.58,21.49,4.21,21.49,4.21a54.46,54.46,0,0,0-6.09,12c-6.38-2.29-14.09-.26-14.3,7.47-.23,8.41,4.46,15.25,7.76,22.61a10.18,10.18,0,0,1-5.57-1.93s-4.57-10.83-10.21-24.26C106.94,187.78,108.11,185.65,110.07,182.86Z"/><path class="cls-10" d="M66.77,120c2-21.73,3.87-32.63,24.59-46.83,20.3-13.91,109.86-10.71,125.52-1.34,10.27,7.09,23.63,63.68,20.59,78.05-5.3,25-45.51,35.9-54.1,37.15-4.66,3.58-4.44,23.95-2.85,36.4,0,0-1.71.5-4.58,1.07-5.76,1.14-9.05-.87-9.05-.87-4.83-3.79-5.89-13.6-14.72-38.18-17.37-1.07-29.73-.93-43.22-6.73-10.83,16.33-5.21,33-4.5,41.33,0,0-7.62,4.25-13.86-.78,0,0-5.57-9.47-11-26.17a8.27,8.27,0,0,1,1.12-5.3c2.47-1.79,5-3.62,5.54-6.42,1-5.11-2.94-9.76-5.39-13.88-3.54-5.93-6.79-12.2-9.78-18.43C69.49,145.61,65.21,137.15,66.77,120Z"/><path class="cls-11" d="M172.49,225.31a11.66,11.66,0,0,1-5.85-1.3c-3.28-2.56-4.83-7.51-7.93-17.39-1.7-5.41-3.8-12.12-6.89-20.73l-6.64-.38c-13.67-.74-24.49-1.33-36.05-6.22-8.53,13.16-6.36,26.55-4.93,35.44.33,2,.61,3.74.73,5.25a.47.47,0,0,1-.24.46,15.85,15.85,0,0,1-7,1.74,11.46,11.46,0,0,1-7.37-2.56c-.17-.11-5.83-10-11.11-26.4,0,0,0-.08,0-.12a8.53,8.53,0,0,1,1.2-5.59.3.3,0,0,1,.12-.13c2.39-1.74,4.84-3.51,5.34-6.12.77-4-1.72-7.88-3.91-11.28-.5-.77-1-1.52-1.42-2.26-3.23-5.41-6.43-11.46-9.8-18.47l-.11-.23c-1.74-3.64-5.84-12.15-4.3-29.1,2-21.74,3.87-32.83,24.81-47.18,8.67-5.95,31.7-9.5,61.58-9.5,29.46,0,56.57,3.43,64.46,8.14,10.3,7.11,23.94,63.81,20.81,78.57-5.28,25-44.61,36-54.37,37.52-4.21,3.52-4.21,23-2.57,35.87a.5.5,0,0,1-.35.53c-.06,0-1.75.51-4.62,1.08A18.17,18.17,0,0,1,172.49,225.31Zm-5.3-2.09a11.36,11.36,0,0,0,5.3,1.12,17,17,0,0,0,3.35-.35c2-.4,3.48-.77,4.14-1-1.28-10.43-2.15-32.39,3.09-36.42a.44.44,0,0,1,.22-.1c9.4-1.37,48.51-12.22,53.7-36.77,1.41-6.67-.71-23.37-5.3-41.54-4.82-19.12-10.6-32.91-15.09-36-7.73-4.61-34.63-8-63.93-8-29.69,0-52.51,3.48-61,9.32C71.06,87.65,69.21,98.57,67.26,120c-1.52,16.68,2.49,25,4.2,28.58l.11.24c3.35,7,6.54,13,9.76,18.4.43.72.91,1.46,1.4,2.22,2.29,3.56,4.89,7.6,4,12-.57,3-3.15,4.84-5.66,6.67a7.71,7.71,0,0,0-1,4.85c5.08,15.8,10.34,25.1,10.84,25.95a10.58,10.58,0,0,0,6.69,2.29,15.16,15.16,0,0,0,6.27-1.48c-.13-1.39-.39-3-.69-4.85-1.47-9.11-3.7-22.88,5.3-36.47a.49.49,0,0,1,.6-.17c11.54,5,22.38,5.55,36.1,6.3l7,.39a.51.51,0,0,1,.43.33c3.15,8.77,5.29,15.59,7,21.07,3,9.68,4.56,14.54,7.55,16.89Z"/><path class="cls-9" d="M80.91,167.47c2.45,4.12,6.37,8.77,5.39,13.88-.54,2.8-3.07,4.63-5.54,6.42a8.27,8.27,0,0,0-1.12,5.3c5.38,16.7,10.94,26.16,11,26.17,6.24,5,13.86.78,13.86.78-.71-8.35-6.33-25,4.5-41.33,13.49,5.8,25.85,5.66,43.22,6.73,8.83,24.58,9.89,34.39,14.72,38.18,0,0,3.29,2,9.05.87,2.87-.57,4.58-1.07,4.58-1.07-1.59-12.45-1.81-32.82,2.85-36.4,8.59-1.25,48.8-12.12,54.1-37.15,3-14.37-10.32-71-20.59-78-15.66-9.37-105.22-12.57-125.52,1.34C70.64,87.34,68.75,98.24,66.77,120c-1.56,17.18,2.72,25.64,4.36,29.07C74.12,155.27,77.37,161.54,80.91,167.47Zm3.37-8.16c-5.11-8.78-9.82-17.94-11.72-28-1.68-8.85-.15-19,3.94-27.66l.12-.31A48.45,48.45,0,0,1,88.71,87.06a62.4,62.4,0,0,1,15.05-10.81c15.15-7.85,32.17-9.32,48.9-7.83a123,123,0,0,1,13.1,1.89c3.66.74,7.65,1.46,11.08,3,2.74,1.21,4.83,2.79,5.86,5.68a14.32,14.32,0,0,1,.35,4.93c-.05,2.64-4.86,22.06-2.93,30.79a44.45,44.45,0,0,0,10.12,18.94c22.93,25.36,1.34,39.61,1.5,39.05a104.23,104.23,0,0,0,2.51-11.81c-.16.18-.31.38-.47.58a56.08,56.08,0,0,0-3.49,5.37c-2.51,4.26-4.73,8.76-6.85,13.23A47.49,47.49,0,0,0,179,195.77c-.51,5.16-.21,10.38-.24,15.55,0,2.82.17,6-1.78,8.29-1.62,1.88-4.14.11-5.47-1.08-5.15-4.61-7.08-13.36-9.23-19.62-5.11-14.88-7.42-30-5.93-45.77.6-6.19,1.78-13.49,4.72-19.58l-.35.36a62,62,0,0,0-7.37,10.91c-2.2,3.87-3.38,8.19-4.63,12.44-.87,2.93-1.65,6.45-3.55,8.92-2.5,3.27-7.43,3.71-11.21,3.74a39.1,39.1,0,0,1-14.46-2.7.73.73,0,0,1-.5-.89A122.1,122.1,0,0,0,121.81,147a58.17,58.17,0,0,1-3.15,9.59c-3.74,8.79-10.72,15.38-14.85,23.91s-5,19.05-3.26,28.16c.43,2.28,1.28,4.57.2,6.75-1,1.94-3.61,1.16-5.06.49-5.84-2.65-10.25-28.22-8.94-29.55,2.35-3.47,6.93-4.16,6.94-8.56C93.7,172.34,86.94,163.87,84.28,159.31Z"/><path class="cls-9" d="M223.61,167.52c0-5.07-2.41-8.27-6.48-11.14-5.82-4.11-12.35-6.93-17.32-12.18a73,73,0,0,1-12.21-17.13,41.74,41.74,0,0,1-4.94-20.77c.25-8.27.91-17,3.53-24.86,1.54-4.63,4.78-10.93,2.72-15.88,13.1,1.42,23.52,3.58,28,6.24,10.27,7.09,23.63,63.68,20.59,78.05-1.74,8.2-7.22,14.88-14.11,20.2A11.31,11.31,0,0,0,223.61,167.52Z"/><path class="cls-10" d="M188.64,113.15c2.72,14.33,17.63,38.79,44.2,44.17,37.2,2.55,38.72-12.17,46.06-15.58,11.82.36,11.48-29.85,7.3-31.36-14-5-19.91-11.86-22.33-18.65a49.34,49.34,0,0,0-9.16-14.25C239.28,61.09,216,60.6,202.21,73.06,184.42,89.19,186.86,103.75,188.64,113.15Z"/><path class="cls-11" d="M241,158.1h0c-2.57,0-5.33-.09-8.2-.29-26-5.26-41.74-29.23-44.65-44.56-1.7-9-4.55-24,13.72-40.54a34.86,34.86,0,0,1,23.53-8.82c11.07,0,21.61,4.71,29.66,13.26a50.2,50.2,0,0,1,9.25,14.4c2.87,8.07,10.08,14.07,22,18.37,2.89,1,3.68,11.55,2.31,19.43-1.45,8.31-4.85,12.88-9.56,12.88H279a17.91,17.91,0,0,0-4.66,3.91C269.48,151.19,262.81,158.1,241,158.1Zm-15.6-93.24a33.83,33.83,0,0,0-22.87,8.57c-17.87,16.19-15.09,30.87-13.42,39.63,2.86,15.08,18.35,38.63,43.82,43.79,2.78.18,5.52.28,8.07.28,21.39,0,27.89-6.74,32.64-11.66a18.07,18.07,0,0,1,5.05-4.17.51.51,0,0,1,.22,0h.19c5.65,0,7.82-7.57,8.6-12.08,1.55-8.89.05-17.72-1.68-18.34-12.25-4.4-19.65-10.6-22.62-19a49.23,49.23,0,0,0-9.05-14.07A39.62,39.62,0,0,0,225.41,64.86Z"/><path class="cls-14" d="M266.85,101.54c-4.17-6.61-7.4-13.79-12.16-20-7.65-10-20.15-15.75-32.68-17,11.22-1,23.4,3.06,32.7,12.94a49.34,49.34,0,0,1,9.16,14.25c2.42,6.79,8.33,13.62,22.33,18.65a1.67,1.67,0,0,1,.72.59C279.6,109.62,271.1,108.25,266.85,101.54Z"/><path class="cls-9" d="M213.87,113.25c6.73-8.59,17.06-13.28,27.95-14.13,8.4-.65,19.85-1.41,26.94,4.15-9.74-.31-19.45-1.11-29.1.86A111.81,111.81,0,0,0,213.87,113.25Z"/><path class="cls-9" d="M202.21,73.06a34.29,34.29,0,0,1,22.48-8.67c-2.49,2.49.33,6.67,1.23,10.14a25.13,25.13,0,0,1-.12,13.52c-.76,2.33-1.36,4.14-4,2.92-1.66-.78-3.28-1.6-5-2.24C212.39,87.05,203.91,83,200,87.9c-4.53,5.67-3.34,14.58-2.79,21.3,1,12.75,9.57,26.71,21.71,31.68,5.12,2.09,12,3.14,16.43-1.12,3.19-3.08,4.46-7.33,4.72-11.65,1.4,3.3,1.15,7.11.28,10.59a.73.73,0,0,0,.51.89c3.46,1,6.66,2.42,10.26,2.93,1.46.21,3.49.43,4.83-.4a4.93,4.93,0,0,0,2.25-4.23,43.34,43.34,0,0,1,1.9-11.3c2-6.5,4.59-14.67,12-16.72a22,22,0,0,1,14.76,1c3.58,4,3.32,31.26-7.9,30.91-7.34,3.41-8.86,18.13-46.06,15.58-26.57-5.38-41.48-29.84-44.2-44.17C186.86,103.75,184.42,89.19,202.21,73.06Z"/><path class="cls-15" d="M258.24,86s-4.54-5.27-7.73.25C251.49,81.37,255.29,79,258.24,86Z"/><path class="cls-15" d="M237.63,85.38s-4.54-5.27-7.72.25C230.89,80.72,234.69,78.39,237.63,85.38Z"/><path class="cls-16" d="M264.55,121.93c5.19-9.67,9-12.84,14.91-12.51,1.25.06,6.87.72,7.81.91,7.21,2.62,5.51,12.61,5.18,23.41-.33,10.34-10.34,10.23-15.18,11-.35,0-12,0-12.46,0C258.18,144.7,259.35,131.59,264.55,121.93Z"/><path class="cls-17" d="M264.81,145.19A4.32,4.32,0,0,1,261,143c-2.44-4.08-1.05-13.43,3.17-21.29,5.31-9.89,9.24-13.1,15.37-12.76,1.22.07,6.86.71,7.88.93,6.6,2.39,6.21,10.28,5.76,19.41-.07,1.47-.15,3-.19,4.48-.31,9.61-8.76,10.61-13.82,11.21-.64.08-1.24.14-1.77.22h-.13c-.09,0-.64,0-3.24,0l-8.31,0Zm13.86-35.31c-5.25,0-8.83,3.21-13.7,12.28-4,7.45-5.43,16.57-3.19,20.31a3.35,3.35,0,0,0,3,1.75h12.45L279,144c5.05-.59,12.68-1.5,12.95-10.27.05-1.52.12-3,.2-4.5.43-8.74.8-16.3-5.06-18.43-.82-.17-6.38-.82-7.66-.89Z"/><g class="cls-18"><path class="cls-16" d="M271.88,127.77c2.42-1.73,10.65-16.76,16.49-16.93,5.93,3.22,4.4,12.7,4.08,22.9s-10.34,10.23-15.18,11c-.35,0-12,0-12.46,0-5.51,0-5.62-9-2.54-17.65C264.22,127.42,270,129.14,271.88,127.77Z"/></g><g class="cls-18"><path class="cls-16" d="M267.11,138.87a6.31,6.31,0,0,0,2.12-4.31,21.87,21.87,0,0,1,2.45-6.68l.2-.11c2.42-1.73,10.65-16.76,16.49-16.93,5.93,3.22,4.4,12.7,4.08,22.9s-10.34,10.23-15.18,11c-.35,0-12,0-12.46,0-2.24,0-3.59-1.49-4.19-3.84A11.91,11.91,0,0,0,267.11,138.87Z"/></g><path class="cls-16" d="M269.26,132c2.28-10.76,8.36-20.51,15.83-21.53a5.92,5.92,0,0,1,3.93.76,8.42,8.42,0,0,1,1.73,1.47,13.88,13.88,0,0,1,2.53,4.75c1.34,4.4,1.36,10.24,1.17,16.33s-4.45,9.05-10.17,10.42C271.43,146.2,267,142.45,269.26,132Z"/><path class="cls-17" d="M278.36,145.19c-4.08,0-6.84-1-8.46-3-1.77-2.17-2.13-5.56-1.11-10.35,3-14,10.29-21.1,16.24-21.91a6.44,6.44,0,0,1,4.24.82,8.9,8.9,0,0,1,1.84,1.56,13.92,13.92,0,0,1,2.63,4.93c1.43,4.68,1.36,11,1.19,16.49s-3.72,9.25-10.54,10.89A39.33,39.33,0,0,1,278.36,145.19ZM286,110.86a5,5,0,0,0-.85.07c-6.64.9-13,9.59-15.42,21.14-.95,4.49-.65,7.6.91,9.54,2.06,2.54,6.43,3.21,13.55,2.08,6.39-1.53,9.6-4.79,9.76-10,.17-5.45.23-11.64-1.14-16.17a13.21,13.21,0,0,0-2.44-4.57,7.64,7.64,0,0,0-1.62-1.38A5.36,5.36,0,0,0,286,110.86Z"/><g class="cls-19"><path class="cls-16" d="M293.74,131.46a25.54,25.54,0,0,0,.08-6.24c-.42-3.52-.7-7.67-3-10.57a10.67,10.67,0,0,0-6.6-4.05c.29-.06.57-.12.86-.16a5.92,5.92,0,0,1,3.93.76,8.42,8.42,0,0,1,1.73,1.47,13.88,13.88,0,0,1,2.53,4.75c1.34,4.4,1.36,10.24,1.17,16.33a10.64,10.64,0,0,1-.86,4C293.06,135.74,293.51,133.44,293.74,131.46Z"/></g><g class="cls-18"><path class="cls-16" d="M269.26,132c2.15-10.15,7.68-19.4,14.57-21.26a11.64,11.64,0,0,0-4.32,4.31,44.52,44.52,0,0,0-5.17,12.49c-.77,3.25-1.77,6.8-1.54,10.18.45,6.64,10.22,5.45,14.41,3.74a13.21,13.21,0,0,0,7.11-6.31c-.75,5.17-4.77,7.79-10,9C271.43,146.2,267,142.45,269.26,132Z"/></g><path class="cls-20" d="M291.71,123.74S290,126,290.83,130c.53,3.38.42,5.41-1.21,5C286.53,134.29,288.33,127,291.71,123.74Z"/><path class="cls-20" d="M281.2,124.19s-1.9,2-1.55,6.16c.17,3.42-.16,5.42-1.74,4.85C274.92,134.13,277.49,127.08,281.2,124.19Z"/><path class="cls-7" d="M188.32,79.55,191,87.27s6.07-11.54,13.88-14.7S186.9,60.88,188.32,79.55Z"/><path class="cls-8" d="M191,87.76h0a.5.5,0,0,1-.42-.33l-2.67-7.72a.5.5,0,0,1,0-.12c-.3-3.92.54-7,2.51-9.11a10.82,10.82,0,0,1,8.09-3.09c4.1,0,8,1.61,8.37,3.45.1.51,0,1.48-1.75,2.19-7.57,3-13.58,14.35-13.64,14.47A.48.48,0,0,1,191,87.76Zm-2.19-8.3,2.3,6.62c1.66-2.88,7-11.28,13.59-14,.48-.18,1.27-.59,1.17-1.1-.21-1.07-3.42-2.66-7.42-2.66a9.86,9.86,0,0,0-7.37,2.78C189.3,73.05,188.54,75.84,188.8,79.46Z"/><path class="cls-9" d="M188.32,79.55,191,87.27s6.07-11.54,13.88-14.7S186.9,60.88,188.32,79.55Z"/><path class="cls-10" d="M191,87.27a26.8,26.8,0,0,1-5-7.87q-.24-.84-.45-1.68c-.8-3.19-2.33-7.21.12-10.1s5.94-2.55,9.49-2.87c2.94-3.26,6.26-6.37,10.29-8.2,3.62-1.66,7.57.45,9.94,3.06,14.49,16,9.45,29.42,7.56,29.58-4.38.36-23.08-16.61-28.89-13.39C192.24,76.82,190.89,84.83,191,87.27Z"/><path class="cls-11" d="M222.83,89.68c-2,0-6-2.62-10.65-5.66-5.84-3.82-12.46-8.14-16.31-8.14a3.17,3.17,0,0,0-1.55.35c-1.48.82-2.91,8.1-2.85,10.89a.37.37,0,0,1,0,.15.49.49,0,0,1-.5.49.48.48,0,0,1-.36-.15,27.26,27.26,0,0,1-5.06-8c-.18-.61-.33-1.18-.47-1.74l-.31-1.17c-.8-3-1.79-6.62.53-9.36s5-2.77,8-2.92c.55,0,1.1-.06,1.66-.11,2.53-2.79,6-6.2,10.32-8.18a7,7,0,0,1,2.91-.63,10.74,10.74,0,0,1,7.59,3.81c5,5.54,8.23,11.3,9.5,17.1s.18,9.68-.37,11.05c-.31.8-1,2.17-1.88,2.24Zm-27-14.77c4.14,0,10.89,4.4,16.84,8.29,4.34,2.83,8.42,5.51,10.12,5.51h.11c.15,0,.75-.62,1.27-2.22.65-2,3.28-12.82-9.16-26.55a9.76,9.76,0,0,0-6.87-3.48,6,6,0,0,0-2.5.54c-4.27,1.94-7.66,5.34-10.13,8.09a.48.48,0,0,1-.32.15c-.64.06-1.27.1-1.89.13-2.86.15-5.32.28-7.27,2.58s-1.11,5.61-.33,8.48c.11.41.22.8.31,1.18.14.55.29,1.11.45,1.66a27.42,27.42,0,0,0,4,6.78c.24-3.22,1.45-9.64,3.31-10.67A4.13,4.13,0,0,1,195.87,74.91Z"/><path class="cls-11" d="M192.45,75.28c2.5-1,5.13-.38,7.48.7.1,0,.31.4.09.36-2.1-.44-4-1.1-6.14-.69a5.38,5.38,0,0,0-4.51,4.2c0,.13-.2,0-.19-.12A4.82,4.82,0,0,1,192.45,75.28Z"/><path class="cls-11" d="M193.45,64.74a13.78,13.78,0,0,1,3-.34,15.23,15.23,0,0,0,3.89-.81,11.49,11.49,0,0,0,4.72-2.69s.14.07.11.11a8,8,0,0,1-4,3,16.5,16.5,0,0,1-7.58,1.11C193.49,65.08,193.26,64.8,193.45,64.74Z"/><path class="cls-10" d="M235.37,65.52a.94.94,0,0,1-.15-.06,21.89,21.89,0,0,0-2.19-.77c2-2.74,6-4.34,9.24-4.91,4-.7,7.93.87,11.18,3,3.91,2.61,6.28,6.78,10.05,9.54,4,2.94,8.53,4,13.41,4.33.28,0,.58.4.46.67-.47,1.12-1.94,1.54-3,1.91a10.83,10.83,0,0,1-5.92.06,27.36,27.36,0,0,1-6.31-2.16,34.53,34.53,0,0,1-5.07-3.57c-3.86-3.07-7.46-6.58-12.65-6.94a14.27,14.27,0,0,0-5.36.25A17,17,0,0,0,235.37,65.52Z"/><path class="cls-11" d="M271.49,80.2a12.85,12.85,0,0,1-3.16-.4,27.43,27.43,0,0,1-6.42-2.2,33.74,33.74,0,0,1-5-3.53l-.12-.09-1.51-1.21c-3.35-2.74-6.51-5.32-10.87-5.62l-.33,0c-.68-.05-1.46-.1-2.23-.1a7.79,7.79,0,0,0-2.61.35.53.53,0,0,1-.39,0A15.91,15.91,0,0,0,235.24,66l-.13-.06c-.93-.37-1.59-.6-2.21-.78a.49.49,0,0,1-.33-.31.47.47,0,0,1,.07-.44c2.1-2.89,6.31-4.53,9.54-5.11,3.58-.64,7.52.43,11.55,3.12a30.07,30.07,0,0,1,5.39,5,31.59,31.59,0,0,0,4.67,4.5c3.43,2.51,7.49,3.82,13.16,4.24a1.07,1.07,0,0,1,.79.52.94.94,0,0,1,.08.84c-.52,1.23-2,1.72-3,2.09l-.25.08A9.37,9.37,0,0,1,271.49,80.2ZM241.83,66c.81,0,1.6.06,2.3.11l.33,0c4.67.33,8.1,3.13,11.42,5.84.49.41,1,.81,1.49,1.21l.12.09a33.73,33.73,0,0,0,4.88,3.43,26.51,26.51,0,0,0,6.19,2.11,10.3,10.3,0,0,0,5.66,0l.24-.09c.94-.32,2.11-.71,2.47-1.54,0,0-.07,0-.09,0-5.82-.43-10-1.8-13.63-4.42a33.14,33.14,0,0,1-4.82-4.64,29.36,29.36,0,0,0-5.2-4.88c-3.82-2.55-7.51-3.56-10.84-3-2.84.51-6.44,1.86-8.49,4.18.46.15,1,.33,1.54.57l0,.51.12-.47a17.81,17.81,0,0,1,3.61,1.33A9.18,9.18,0,0,1,241.83,66Z"/><path class="cls-9" d="M238.72,60.77a7,7,0,0,0-1.56,2.77c-.12.4.22,1,.7.91,9.8-1.3,16.11,5,24,9.56,4.52,2.64,10.37,5.46,15.43,3.56-.56,1-1.9,1.36-2.89,1.7a10.83,10.83,0,0,1-5.92.06,27.36,27.36,0,0,1-6.31-2.16,34.53,34.53,0,0,1-5.07-3.57c-3.86-3.07-7.46-6.58-12.65-6.94a14.27,14.27,0,0,0-5.36.25,17,17,0,0,0-3.69-1.39.94.94,0,0,1-.15-.06,21.89,21.89,0,0,0-2.19-.77A12.54,12.54,0,0,1,238.72,60.77Z"/><path d="M257,97.43c.62,2.43,2,4.25,3.07,4.09s1.44-2.3.83-4.73-2-4.26-3.05-4.1S256.36,95,257,97.43Z"/><path class="cls-21" d="M257.31,95.61c.16.65.53,1.14.82,1.09s.38-.61.22-1.26-.53-1.13-.82-1.09S257.15,95,257.31,95.61Z"/><path d="M232.77,99.81c.62,2.44,2,4.26,3.07,4.09s1.44-2.29.83-4.72-2-4.27-3.06-4.1S232.16,97.38,232.77,99.81Z"/><path class="cls-21" d="M233.11,98c.16.65.53,1.13.82,1.09s.38-.61.22-1.26-.53-1.14-.82-1.09S233,97.35,233.11,98Z"/><path class="cls-9" d="M185.7,67.62c2.53-3,5.94-2.55,9.49-2.87,2.94-3.26,6.26-6.37,10.29-8.2a6.16,6.16,0,0,1,1.23-.42c1.89,1.22.43,4.93-.35,6.41-1.22,2.32-3.08,3.11-5.65,3.35-3.29.31-7.15.07-9.58,2.71a.73.73,0,0,0,.51,1.23c5.11.36,10.22,2.5,14.75,4.77a57,57,0,0,1,10.11,6.22c2.52,2,6.23,3.1,6.47-1.36a29.3,29.3,0,0,0-4.38-16c10.5,14.22,6.13,25.55,4.39,25.7-4.38.36-23.08-16.61-28.89-13.39-1.85,1-3.2,9-3.1,11.47a26.8,26.8,0,0,1-5-7.87q-.24-.84-.45-1.68C184.78,74.53,183.25,70.51,185.7,67.62Z"/><path class="cls-22" d="M238.82,138.34l.07.1a8.57,8.57,0,0,0,.67-2,18.16,18.16,0,0,0,.83-4,12,12,0,0,1-.49,7.16c4.33,4.57,11.18,6.6,17.36,6.5,5.12-.08,11.38-2.91,16.4-1.17,0,0,.14.17,0,.16-3.59-.62-7.89.52-11.41,1.23a25.94,25.94,0,0,1-10.81.34c-3.44-.79-7.66-1.95-10.39-4.34-.5-.44-1.14-1-1.78-1.56a8.33,8.33,0,0,1-6.8,4h0A12.39,12.39,0,0,0,238.82,138.34Z"/><path class="cls-22" d="M149.08,160.6c.06-.17.33.11.32.23-.63,4.85-1,9.65.15,14.44a109.78,109.78,0,0,0,3.41,11.9c0,.14-.13.07-.16,0-1.78-4.49-3.66-8.51-4.8-13.22C146.93,169.49,147.67,164.87,149.08,160.6Z"/><path class="cls-22" d="M108,179.52c1.5-3,3.47-5.72,4.82-8.8.08-.19.37.13.32.29-.59,1.71-1.4,3.28-2.1,5-.57,1.36-1.32,3.2-2.61,4C108.24,180.11,107.91,179.72,108,179.52Z"/><path class="cls-22" d="M182.58,187.45a33.44,33.44,0,0,1,4.36-8.14c.08-.12.28.09.23.2-.72,1.48-1.48,2.91-2.27,4.35-.71,1.29-1.15,2.7-1.91,4C182.85,188.06,182.52,187.64,182.58,187.45Z"/><path class="cls-14" d="M216.36,62.65c2.44,4.25,4.39,8.21,4.61,13.25,0,.42-.48,0-.52-.19a29.77,29.77,0,0,0-4.39-11.26,24.32,24.32,0,0,0-4.81-5.66A17.81,17.81,0,0,1,216.36,62.65Z"/><path class="cls-14" d="M244.72,60.92c-.13-.07-.25-.14-.39-.2,2.6-.41,5.11,1,7.37,2.12a20.22,20.22,0,0,1,4.2,3.46,13.14,13.14,0,0,1,1.25,1.54C253.53,64.83,249.16,62.85,244.72,60.92Z"/><path class="cls-14" d="M118.17,74.75s-35,9.26-40.94,38.5C77.23,113.25,91.16,86.58,118.17,74.75Z"/><path class="cls-14" d="M177.46,184.93a61.43,61.43,0,0,1,1.88-6.48,21.94,21.94,0,0,1,4-7c.22-.3.62.23.55.48-1.44,4.75-3.36,9.35-4.53,14.18-1,4.37-1.29,8.82-2.17,13.19-.1.48-.75-.07-.75-.37A66.63,66.63,0,0,1,177.46,184.93Z"/><path class="cls-14" d="M210.8,185.87c.11-.14.37.18.34.3a89.59,89.59,0,0,0-2.57,10.58c-.73,4.93-.31,9.76.06,14.7,0,.34-.37,0-.42-.15C206.09,202.61,204.86,193.31,210.8,185.87Z"/><path class="cls-14" d="M104.92,174.14c.14-.16.43.22.36.37-1,2.16-2.23,4.2-3,6.45a80.52,80.52,0,0,0-2.34,8.78,59.84,59.84,0,0,0-1,15.69c0,.32-.38,0-.41-.14C96.94,194.33,97.27,182.92,104.92,174.14Z"/><path class="cls-14" d="M124,195.9a13.29,13.29,0,0,1,2.46-6.05c.13-.19.42.12.38.28a63,63,0,0,0-1,13.64c0,.31-.44,0-.48-.17C124.49,200.88,123.53,198.76,124,195.9Z"/><path class="cls-14" d="M268.12,103.24S242,98.93,219.65,111C219.65,111,239.68,101.62,268.12,103.24Z"/><path class="cls-23" d="M266.56,121.42c.75-1.52,1.55-3,2.41-4.5.77-1.16,1.55-2.28,2.27-3.24a8.43,8.43,0,0,1,6.33-3.41A53.14,53.14,0,0,0,266.56,121.42Z"/></g></g></svg>