<svg id="Layer_21" data-name="Layer 21" xmlns="http://www.w3.org/2000/svg" viewBox="0 0 350 270"><defs><style>.cls-1{fill:#fbf9f4;}.cls-2{fill:#634d37;}.cls-3{fill:#5d4833;}.cls-4{fill:#eba856;}.cls-5{fill:#f8b15b;}.cls-6{fill:#e7a555;}.cls-7{fill:#313130;}</style></defs><rect class="cls-1" width="350" height="270"/><path d="M201.33,135.78l-2.44,2.91c-19.06,22.59-39,44.39-60.15,65-1.54,1.51-3.12,3-4.64,4.51a2,2,0,0,1-2.38.55c-1.32-.56-2.62-1.14-3.93-1.72-.22-.09-.42-.2-.68-.32-.15.18-.28.32-.4.48-4,5.69-8,11.4-11.65,17.4a27.92,27.92,0,0,0-1.4,2.5,6,6,0,0,1-3.17,2.94c-3.5,1.57-7,3.13-10.5,4.71a118.59,118.59,0,0,0-13.26,7,16.15,16.15,0,0,1-1.68.92,2.7,2.7,0,0,1-3.52-1.7,1.78,1.78,0,0,1,.21-1c1-2.12,1.94-4.21,2.88-6.33q3.28-7.44,6.53-14.92c.54-1.24.94-2.55,1.51-3.78a4.59,4.59,0,0,1,1.15-1.48c1.65-1.45,3.32-2.88,5-4.26q7.53-6,15.08-12l.86-.72a13.81,13.81,0,0,1-.82-1.23c-.53-1.07-1-2.15-1.52-3.24a2,2,0,0,1,.37-2.12c3-3.92,5.84-7.88,8.81-11.8,17.78-23.5,36.8-46,56.77-67.65,1.26-1.38,2.53-2.75,3.83-4.16-.35-.76-.64-1.51-1-2.2a2.21,2.21,0,0,1,.31-2.73c2.8-3.43,5.42-7,8.36-10.32a531.6,531.6,0,0,1,45.76-45.3c2.3-2,4.73-3.92,7.11-5.87a64.24,64.24,0,0,1,9.44-6.11,11.48,11.48,0,0,1,13.36,1.51,17.19,17.19,0,0,1,4.51,6.27,9.2,9.2,0,0,1,.2,6.88,61,61,0,0,1-6,12.75c-.7,1.11-1.41,2.22-2.08,3.35a1.62,1.62,0,0,0-.29,1c.41,2-.41,3.69-1.29,5.36a141.1,141.1,0,0,1-9.16,14.59A332.91,332.91,0,0,1,215,129.88c-2.06,2.11-4.19,4.17-6.39,6.13a10.74,10.74,0,0,1-3.07,1.8,2.88,2.88,0,0,1-2.78-.72A16.23,16.23,0,0,1,201.33,135.78Zm-64,67.47a1.64,1.64,0,0,0,.28-.12l1.53-1.5q31.6-31.5,60.21-65.75a2.86,2.86,0,0,0,.68-3,2.56,2.56,0,0,1,.39-2.6c.59-.69,1.18-1.4,1.81-2.06,1.59-1.67,3.22-3.32,4.81-4.95a3.41,3.41,0,0,0-.13-.41c-.21-.39-.42-.78-.65-1.15a48.77,48.77,0,0,0-12.36-13.21,25.63,25.63,0,0,0-8.19-4,995,995,0,0,0-68.64,81.55c1,.22,1.87.37,2.73.65a29.86,29.86,0,0,1,13.7,9.46,17.11,17.11,0,0,1,3.58,6.44C137.15,202.83,137.26,203,137.34,203.25ZM187.07,96.16c.49.13.83.26,1.17.31a19.57,19.57,0,0,1,5.87,2,48.89,48.89,0,0,1,18.19,15.92c.42.62.82,1.25,1.28,2,.28-.26.52-.45.73-.68l2.58-2.83C231.21,97,244.49,80.29,255.62,62c1-1.67,1-1.66,2.95-1.45l.36,0a1.77,1.77,0,0,1,1.46,1.09c.2.47.43.93.72,1.54.5-.8.93-1.46,1.35-2.13a54.81,54.81,0,0,0,5.61-11.23,1.58,1.58,0,0,0,0-1.48c-1.13-1.92-2.14-3.93-3.37-5.79a15.32,15.32,0,0,0-5.61-5.11,27.78,27.78,0,0,0-5.44-2.16,2.09,2.09,0,0,0-1.71.21,51.9,51.9,0,0,0-7.35,4.72c-2.4,1.93-4.84,3.81-7.16,5.82-8.66,7.51-17,15.36-25.18,23.4q-12,11.79-23.21,24.36C188.42,94.53,187.8,95.3,187.07,96.16ZM82.84,240.84c.23-.24.48-.48.7-.75a218.29,218.29,0,0,1,15.82-16.66,1.27,1.27,0,0,0,.41-.66c.22-2.61,2.08-4,4-5.39a1.24,1.24,0,0,1,1.65.09c1,.8,1.16,1.37.38,2.33-1,1.24-2.12,2.37-3.23,3.51a2.07,2.07,0,0,1-1.64.59,1,1,0,0,0-.69.31c-2,1.95-3.9,3.89-5.81,5.88q-5.06,5.26-10.06,10.58c-.27.29-.76.51-.57,1.09.51.24.82-.15,1.18-.36,2.27-1.34,4.49-2.77,6.8-4,5.9-3.22,12.08-5.84,18.21-8.56a3.87,3.87,0,0,0,2.39-2.27,8.75,8.75,0,0,1,.8-1.47,208.69,208.69,0,0,1,13.78-20,1.59,1.59,0,0,0,.26-1.82,12.3,12.3,0,0,0-3.4-4.43,14.64,14.64,0,0,0-4.49-2.68,2.5,2.5,0,0,0-2.87.47c-1.19,1.11-2.5,2.11-3.78,3.13-6.14,4.91-12.07,10.09-18.49,14.65a1.44,1.44,0,0,0-.49.63c-1.07,2.88-2,5.8-3.19,8.65s-2.39,5.67-3.71,8.44-2.68,5.17-4,7.76C82.59,240.16,82.28,240.48,82.84,240.84ZM257.36,61.62c-.18.28-.36.54-.52.81-1.7,2.75-3.32,5.55-5.1,8.24a360,360,0,0,1-50.26,60.1,1.11,1.11,0,0,0-.4,1.15,7.07,7.07,0,0,0,2.33,4.07,2.46,2.46,0,0,0,3.45-.2c1.48-1.45,3-2.9,4.43-4.37a333.14,333.14,0,0,0,38.4-46.24,155.16,155.16,0,0,0,9.67-15.26,6.64,6.64,0,0,0,.44-6.29,6,6,0,0,1-.45-1.23c-.14-.65-.56-.82-1.14-.82C257.94,61.58,257.66,61.6,257.36,61.62Zm-74.17,43.55c.38-.4.75-.81,1.14-1.2a1.79,1.79,0,0,1,2-.52,28.64,28.64,0,0,1,6.26,2.69,47.35,47.35,0,0,1,15,15c.19.29.37.59.61,1l1.08-1.16c-.78-1.2-1.45-2.38-2.26-3.46a51.72,51.72,0,0,0-13.57-12.69,20.89,20.89,0,0,0-8.91-3.3c-.08,0-.16-.13-.28-.24.45-.51,1-.34,1.46-.25a23.09,23.09,0,0,1,7.6,2.82,48.37,48.37,0,0,1,16.41,16,4.33,4.33,0,0,0,.34.4c.94-1,1.83-1.93,2.72-2.87a3.52,3.52,0,0,0-.22-.52c-.35-.58-.69-1.16-1.08-1.72A48.78,48.78,0,0,0,194,99.44a21.23,21.23,0,0,0-6.65-2.28,1.5,1.5,0,0,0-1.63.67c-.81,1.09-1.69,2.13-2.53,3.19-1.47,1.87-1.47,1.87-.2,3.93C183,105,183.07,105.06,183.19,105.17Zm-67.26,90.26a3,3,0,0,1,2.78-.5,14,14,0,0,1,8.87,6.8c.68,1.14,1.22,2.36.42,3.69,0,0,0,.08,0,.12a13.2,13.2,0,0,0,4.47,2.2,1,1,0,0,0,1.15-.37c.77-.87,1.54-1.73,2.37-2.55a1.16,1.16,0,0,0,.32-1.27,16.84,16.84,0,0,0-3.61-6.82,30.39,30.39,0,0,0-12-8.89,24.13,24.13,0,0,0-3.58-.93,1,1,0,0,0-1.13.45c-.7.92-1.45,1.81-2.2,2.69a1,1,0,0,0-.2,1A10.77,10.77,0,0,0,115.93,195.43Zm138.19-161c1.3.52,2.53,1,3.73,1.48a16.74,16.74,0,0,1,6,4.19A30.4,30.4,0,0,1,268.43,47a4.29,4.29,0,0,0,.43.61,5.57,5.57,0,0,0,.24-4.74,14.8,14.8,0,0,0-5.31-7.33,9.72,9.72,0,0,0-4.69-2C257.39,33.36,255.69,33.27,254.12,34.48ZM104.85,218.15a6.94,6.94,0,0,0-3.31,2.86,2.12,2.12,0,0,0-.53,1.62C102.46,222.17,104.74,219.54,104.85,218.15Z"/><path class="cls-2" d="M206.27,121.75a48.77,48.77,0,0,0-12.36-13.21,25.63,25.63,0,0,0-8.19-4,995,995,0,0,0-68.64,81.55c1,.22,1.87.37,2.73.65a29.86,29.86,0,0,1,13.7,9.46,18.27,18.27,0,0,1,1.43,1.88c25-24.25,48.1-50.32,71.36-76.25Z"/><path class="cls-3" d="M206.3,121.8c-23.26,25.93-46.39,52-71.36,76.25a16,16,0,0,1,2.15,4.56c.06.22.17.42.25.64a1.64,1.64,0,0,0,.28-.12l1.53-1.5q31.6-31.5,60.21-65.75a2.86,2.86,0,0,0,.68-3,2.56,2.56,0,0,1,.39-2.6c.59-.69,1.18-1.4,1.81-2.06,1.59-1.67,3.22-3.32,4.81-4.95a3.41,3.41,0,0,0-.13-.41C206.72,122.52,206.52,122.15,206.3,121.8Z"/><path class="cls-2" d="M255.46,59.5a95,95,0,0,0,9.75-16.19l-.48-.75a15.32,15.32,0,0,0-5.61-5.11,27.78,27.78,0,0,0-5.44-2.16,2.09,2.09,0,0,0-1.71.21,51.9,51.9,0,0,0-7.35,4.72c-2.4,1.93-4.84,3.81-7.16,5.82-8.66,7.51-17,15.36-25.18,23.4q-12,11.79-23.21,24.36c-.65.73-1.27,1.5-2,2.36.49.13.83.26,1.17.31a19.57,19.57,0,0,1,5.87,2,48.94,48.94,0,0,1,18.17,15.9c3.6-3.82,6.76-7.91,10.3-12C234.42,88.69,244.55,74.12,255.46,59.5Z"/><path class="cls-3" d="M268.1,48.35c-1-1.67-1.87-3.4-2.89-5a95,95,0,0,1-9.75,16.19c-10.91,14.62-21,29.19-32.88,42.9-3.54,4.09-6.7,8.18-10.3,12l0,0c.42.62.82,1.25,1.28,2,.28-.26.52-.45.73-.68l2.58-2.83C231.21,97,244.49,80.29,255.62,62c1-1.67,1-1.66,2.95-1.45l.36,0a1.77,1.77,0,0,1,1.46,1.09c.2.47.43.93.72,1.54.5-.8.93-1.46,1.35-2.13a54.81,54.81,0,0,0,5.61-11.23A1.58,1.58,0,0,0,268.1,48.35Z"/><path class="cls-4" d="M99.77,222.77c.22-2.61,2.08-4,4-5.39a1.24,1.24,0,0,1,1.65.09,3.41,3.41,0,0,1,.6.61c0-.81-.3-1.6-1.15-1.66a5.48,5.48,0,0,0-5.23,5.69c-5.85,5.94-12.11,11.75-17,18.42a.68.68,0,0,0,.29.31c.23-.24.48-.48.7-.75a218.29,218.29,0,0,1,15.82-16.66A1.27,1.27,0,0,0,99.77,222.77Z"/><path class="cls-5" d="M110.84,227.3c4.61-8.54,11.12-16,16.26-24.23a12.51,12.51,0,0,0-3.32-4.25,14.64,14.64,0,0,0-4.49-2.68,2.5,2.5,0,0,0-2.87.47c-1.19,1.11-2.5,2.11-3.78,3.13-6.14,4.91-12.07,10.09-18.49,14.65a1.44,1.44,0,0,0-.49.63c-1.07,2.88-2,5.8-3.19,8.65s-2.39,5.67-3.71,8.44-2.68,5.17-4,7.76c-.1.2-.29.42-.19.66,4.94-6.67,11.2-12.48,17-18.42a5.48,5.48,0,0,1,5.23-5.69c.85.06,1.15.85,1.15,1.66.39.52.35,1-.22,1.72-1,1.24-2.12,2.37-3.23,3.51a2.07,2.07,0,0,1-1.64.59,1,1,0,0,0-.69.31c-2,1.95-3.9,3.89-5.81,5.88q-5.06,5.26-10.06,10.58c-.13.14-.32.27-.45.43a.41.41,0,0,1,.12.11C92.34,235.45,101.61,231.54,110.84,227.3Z"/><path class="cls-4" d="M127.18,203.25a1.42,1.42,0,0,0-.08-.18c-5.14,8.21-11.65,15.69-16.26,24.23-9.23,4.24-18.5,8.15-26.84,13.91a.41.41,0,0,0-.12-.11.63.63,0,0,0-.12.66c.51.24.82-.15,1.18-.36,2.27-1.34,4.49-2.77,6.8-4,5.9-3.22,12.08-5.84,18.21-8.56a3.87,3.87,0,0,0,2.39-2.27,8.75,8.75,0,0,1,.8-1.47,208.69,208.69,0,0,1,13.78-20A1.59,1.59,0,0,0,127.18,203.25Z"/><path class="cls-5" d="M259.8,63.63a6,6,0,0,1-.45-1.23,1,1,0,0,0-.35-.62,12.75,12.75,0,0,1-.75,1.36l.15.08c-.19.35-.35.71-.55,1a274.94,274.94,0,0,1-24.43,34.27c-7.89,9.64-16.13,19-24.84,27.88-1,1-2,1.94-3,2.89a6.59,6.59,0,0,1-.75.51l0-.06c-.85.58-1.89,1.09-1.92,2,.57.45.72,1.18,1.14,1.69a6.1,6.1,0,0,1,1.24,1.8c.47.22.91.5,1.38.71a1.64,1.64,0,0,0,.25-.21c1.48-1.45,3-2.9,4.43-4.37a333.14,333.14,0,0,0,38.4-46.24,155.16,155.16,0,0,0,9.67-15.26A6.64,6.64,0,0,0,259.8,63.63Z"/><path class="cls-4" d="M205.27,135.41c-1.44-.6-2.82-2.6-2.66-3.77a1.43,1.43,0,0,1,.24.16c0-1,1.07-1.46,1.92-2l-.19-.22c1.38-1.68,3.08-3,4.57-4.63s3-3.16,4.55-4.76,3-3.21,4.46-4.83,3-3.26,4.4-4.9,2.89-3.31,4.31-5,2.84-3.34,4.25-5S234,97,235.37,95.23s2.74-3.42,4.08-5.16,2.65-3.5,4-5.26,2.61-3.52,3.88-5.31,2.53-3.59,3.74-5.41,2.4-3.68,3.58-5.53,2.23-3.73,3.5-5.49l.14.07a12.75,12.75,0,0,0,.75-1.36,1.29,1.29,0,0,0-.79-.2c-.27,0-.55,0-.85,0-.18.28-.36.54-.52.81-1.7,2.75-3.32,5.55-5.1,8.24a360,360,0,0,1-50.26,60.1,1.11,1.11,0,0,0-.4,1.15,7.07,7.07,0,0,0,2.33,4.07,2.41,2.41,0,0,0,3.2,0c-.47-.21-.91-.49-1.38-.71Z"/><path class="cls-5" d="M184.22,101.3c.45-.51,1-.34,1.46-.25a23.09,23.09,0,0,1,7.6,2.82,48.76,48.76,0,0,1,15.61,14.7c.89-1,1.93-2,2.84-3-.09-.14-.18-.28-.28-.42A48.78,48.78,0,0,0,194,99.44a21.23,21.23,0,0,0-6.65-2.28,1.5,1.5,0,0,0-1.63.67c-.81,1.09-1.69,2.13-2.53,3.19-.23.3-.42.54-.58.76.54-.17,1.12-.28,1.69-.43Z"/><path class="cls-6" d="M193.41,104.84a20.89,20.89,0,0,0-8.91-3.3c-.07,0-.13-.1-.23-.19-.57.15-1.15.26-1.69.43-.86,1.16-.69,1.43.38,3.17,0,.07.11.11.23.22.38-.4.75-.81,1.14-1.2a1.79,1.79,0,0,1,2-.52,28.64,28.64,0,0,1,6.26,2.69,47.35,47.35,0,0,1,15,15c.19.29.37.59.61,1l1.08-1.16c-.78-1.2-1.45-2.38-2.26-3.46A51.72,51.72,0,0,0,193.41,104.84Z"/><path class="cls-4" d="M212.53,116.84c-.26-.43-.52-.87-.8-1.3-.91,1.06-1.95,2-2.84,3,.27.42.54.83.8,1.26a4.33,4.33,0,0,0,.34.4c.94-1,1.83-1.93,2.72-2.87A3.52,3.52,0,0,0,212.53,116.84Z"/><path class="cls-5" d="M132.71,196.73a30.39,30.39,0,0,0-12-8.89,24.13,24.13,0,0,0-3.58-.93,1,1,0,0,0-1.13.45c-.7.92-1.45,1.81-2.2,2.69a.89.89,0,0,0-.25.55,12.29,12.29,0,0,1,1.84.33h0l0-.27a10.08,10.08,0,0,1,1.46.22,22.1,22.1,0,0,1,6.27,3.19,32.4,32.4,0,0,1,8.06,7.91,25.41,25.41,0,0,0,3-3.22A20.8,20.8,0,0,0,132.71,196.73Z"/><path class="cls-4" d="M136.32,203.55a15.76,15.76,0,0,0-2.1-4.8,25.41,25.41,0,0,1-3,3.22c.34.5.68,1,1,1.52a7.17,7.17,0,0,1,.66,1.4,1.39,1.39,0,0,1-.1.66,8.78,8.78,0,0,1,.61,2,1.74,1.74,0,0,0,.25-.23c.77-.87,1.54-1.73,2.37-2.55A1.16,1.16,0,0,0,136.32,203.55Z"/><path class="cls-6" d="M132.77,205.55c0,.09-.05.19-.07.3-1.24-1.83-2.21-3.5-3.43-5a31.62,31.62,0,0,0-4-4.1,33.28,33.28,0,0,0-4.76-3.41c-1.62-.95-3.4-1.62-5.11-2.42a12.29,12.29,0,0,0-1.84-.33,1.12,1.12,0,0,0,0,.43,10.77,10.77,0,0,0,2.32,4.4,3,3,0,0,1,2.78-.5,14,14,0,0,1,8.87,6.8c.68,1.14,1.22,2.36.42,3.69,0,0,0,.08,0,.12a13.2,13.2,0,0,0,4.47,2.2,1,1,0,0,0,.9-.14A8.78,8.78,0,0,0,132.77,205.55Z"/><path class="cls-5" d="M263.79,35.53a9.72,9.72,0,0,0-4.69-2c-1.71-.22-3.41-.31-5,.9,1.3.52,2.53,1,3.73,1.48a16.74,16.74,0,0,1,6,4.19,26.85,26.85,0,0,1,1.95,2.45c.52-1.09,1.07-2.16,1.59-3.24A15,15,0,0,0,263.79,35.53Z"/><path class="cls-4" d="M269.1,42.86a14.88,14.88,0,0,0-1.68-3.5c-.52,1.08-1.07,2.15-1.59,3.24a33.34,33.34,0,0,1,2.6,4.39,4.29,4.29,0,0,0,.43.61A5.57,5.57,0,0,0,269.1,42.86Z"/><path class="cls-7" d="M104.85,218.15c-.11,1.39-2.39,4-3.84,4.48a2.12,2.12,0,0,1,.53-1.62A6.94,6.94,0,0,1,104.85,218.15Z"/><path d="M204.58,129.54c1.38-1.68,3.08-3,4.57-4.63s3-3.16,4.55-4.76,3-3.21,4.46-4.83,3-3.26,4.4-4.9,2.89-3.31,4.31-5,2.84-3.34,4.25-5S234,97,235.37,95.23s2.74-3.42,4.08-5.16,2.65-3.5,4-5.26,2.61-3.52,3.88-5.31,2.53-3.59,3.74-5.41,2.4-3.68,3.58-5.53,2.23-3.73,3.5-5.49l.29.15c-.19.35-.35.71-.55,1a274.94,274.94,0,0,1-24.43,34.27c-7.89,9.64-16.13,19-24.84,27.88-1,1-2,1.94-3,2.89a6.59,6.59,0,0,1-.75.51Z"/><path d="M205.27,135.41c-1.44-.6-2.82-2.6-2.66-3.77.78.42.91,1.27,1.38,1.85A5.66,5.66,0,0,1,205.27,135.41Z"/><path d="M115.42,190.65a10.08,10.08,0,0,1,1.46.22,22.1,22.1,0,0,1,6.27,3.19,31.83,31.83,0,0,1,9.06,9.43,7.17,7.17,0,0,1,.66,1.4c.07.2-.07.46-.17,1-1.24-1.83-2.21-3.5-3.43-5a31.62,31.62,0,0,0-4-4.1,33.28,33.28,0,0,0-4.76-3.41c-1.62-.95-3.41-1.63-5.13-2.43Z"/></svg>