<svg id="Layer_3" data-name="Layer 3" xmlns="http://www.w3.org/2000/svg" xmlns:xlink="http://www.w3.org/1999/xlink" viewBox="0 0 350 270"><defs><style>.cls-1,.cls-24,.cls-37,.cls-45,.cls-52{fill:none;}.cls-2{clip-path:url(#clip-path);}.cls-3{fill:#cae7f6;}.cls-4{clip-path:url(#clip-path-2);}.cls-5,.cls-6{fill:#00a8ab;}.cls-10,.cls-11,.cls-12,.cls-13,.cls-14,.cls-15,.cls-16,.cls-19,.cls-20,.cls-21,.cls-22,.cls-23,.cls-25,.cls-26,.cls-29,.cls-30,.cls-31,.cls-32,.cls-33,.cls-34,.cls-35,.cls-36,.cls-38,.cls-39,.cls-40,.cls-41,.cls-43,.cls-44,.cls-47,.cls-48,.cls-49,.cls-5,.cls-53,.cls-54,.cls-55,.cls-56,.cls-57,.cls-59,.cls-60,.cls-62,.cls-63,.cls-7,.cls-9{fill-rule:evenodd;}.cls-12,.cls-7,.cls-8{fill:#fff;}.cls-9{fill:#f6e5d4;}.cls-10{fill:#f9f2e6;}.cls-11{fill:#1d1d1b;opacity:0.2;}.cls-11,.cls-12,.cls-56,.cls-58{isolation:isolate;}.cls-12{opacity:0.5;}.cls-13{fill:#0094ae;}.cls-14{fill:#160e0a;}.cls-15{fill:#281a13;}.cls-16{fill:#f7d9d7;}.cls-17{fill:#d6a489;}.cls-18,.cls-20{fill:#e2ae91;}.cls-19{fill:#d8a793;}.cls-21,.cls-50{fill:#020d11;}.cls-22{fill:#f4c5b6;}.cls-23{fill:#00879f;}.cls-24{stroke:#00707f;stroke-width:0.4px;}.cls-24,.cls-37,.cls-45{stroke-linecap:round;stroke-linejoin:round;}.cls-25{fill:#ebebf0;}.cls-26,.cls-28{fill:#dba886;}.cls-27,.cls-35{fill:#4f585a;}.cls-29{fill:#111;}.cls-30{fill:#ae754e;}.cls-31{fill:#352402;}.cls-32{fill:#c79a87;}.cls-33{fill:#442f0a;}.cls-34{fill:#c08a68;}.cls-36{fill:#f6bb2a;}.cls-37{stroke:#cb9f3b;stroke-width:2.69px;}.cls-38{fill:#f2a39c;}.cls-39{fill:#f6d0c0;}.cls-40,.cls-65{fill:#ee8075;}.cls-41{fill:#110b06;}.cls-42{fill:#d8a68a;}.cls-43{fill:#9c6945;}.cls-44{fill:#bb907f;}.cls-45{stroke:#0094ae;stroke-width:1.34px;}.cls-46{fill:#d3a281;}.cls-47{fill:#ad8468;}.cls-48{fill:#a56e68;}.cls-49{fill:#8c664c;}.cls-51{fill:#5fb1cd;}.cls-52{stroke:#5fb1cd;stroke-miterlimit:22.93;stroke-width:0.34px;}.cls-53{fill:#bf8877;}.cls-54,.cls-56,.cls-58{fill:#cb9f3b;}.cls-55{fill:#636b6f;}.cls-56,.cls-58{opacity:0.3;}.cls-57,.cls-61{fill:#fad58e;}.cls-59{fill:#8f979f;}.cls-60{fill:#d5d7dd;}.cls-62{fill:#c0c3c9;}.cls-63{fill:#e0e1e6;}.cls-64{fill:#dde4ea;}</style><clipPath id="clip-path"><rect class="cls-1" width="350" height="270"/></clipPath><clipPath id="clip-path-2"><rect class="cls-1" y="-43.14" width="350" height="335.94"/></clipPath></defs><g class="cls-2"><rect class="cls-3" y="-43.14" width="350" height="336.28"/><g class="cls-4"><path class="cls-5" d="M254.69,153.84c7.26,0,13.18-5.23,13.18-11.64s-5.92-11.65-13.18-11.65-13.18,5.23-13.18,11.65S247.43,153.84,254.69,153.84Z"/><path class="cls-5" d="M271.41,148.52c7.26,0,13.18-5.23,13.18-11.65s-5.92-11.65-13.18-11.65-13.17,5.24-13.17,11.65S264.16,148.52,271.41,148.52Z"/><path class="cls-5" d="M284.23,158c7.26,0,13.18-5.24,13.18-11.65s-5.92-11.65-13.18-11.65-13.18,5.23-13.18,11.65S277,158,284.23,158Z"/><path class="cls-5" d="M294.81,167c7.26,0,13.18-5.23,13.18-11.64s-5.92-11.65-13.18-11.65-13.18,5.23-13.18,11.65S287.55,167,294.81,167Z"/><path class="cls-5" d="M303.86,156.12c7.25,0,13.17-5.23,13.17-11.65s-5.92-11.65-13.17-11.65-13.18,5.24-13.18,11.65S296.6,156.12,303.86,156.12Z"/><path class="cls-5" d="M313,168.66c7.26,0,13.18-5.23,13.18-11.65s-5.92-11.65-13.18-11.65S299.81,150.6,299.81,157,305.73,168.66,313,168.66Z"/><path class="cls-5" d="M331,175.85c7.26,0,13.18-5.23,13.18-11.65s-5.92-11.65-13.18-11.65-13.17,5.24-13.17,11.65S323.73,175.85,331,175.85Z"/><ellipse class="cls-6" cx="345.74" cy="154.11" rx="13.18" ry="11.65"/><path class="cls-5" d="M348.54,175.75c7.26,0,13.18-5.23,13.18-11.65s-5.92-11.65-13.18-11.65-13.17,5.24-13.17,11.65S341.29,175.75,348.54,175.75Z"/><path class="cls-5" d="M116.71,153.39c7.26,0,13.18-5.24,13.18-11.65s-5.92-11.65-13.18-11.65-13.17,5.23-13.17,11.65S109.46,153.39,116.71,153.39Z"/><path class="cls-5" d="M101.4,158c7.25,0,13.17-5.24,13.17-11.65s-5.92-11.65-13.17-11.65-13.18,5.23-13.18,11.65S94.14,158,101.4,158Z"/><path class="cls-5" d="M81.58,153.6c7.26,0,13.18-5.23,13.18-11.64s-5.92-11.65-13.18-11.65S68.4,135.54,68.4,142,74.32,153.6,81.58,153.6Z"/><path class="cls-5" d="M62,151.27c7.26,0,13.18-5.23,13.18-11.64S69.23,128,62,128s-13.18,5.23-13.18,11.65S54.71,151.27,62,151.27Z"/><path class="cls-5" d="M41.35,154.35c7.26,0,13.18-5.23,13.18-11.64s-5.92-11.65-13.18-11.65-13.17,5.23-13.17,11.65S34.1,154.35,41.35,154.35Z"/><ellipse class="cls-6" cx="41.39" cy="152.03" rx="13.18" ry="11.65"/><path class="cls-5" d="M30.11,167.27c7.26,0,13.18-5.23,13.18-11.65S37.37,144,30.11,144s-13.18,5.23-13.18,11.64S22.85,167.27,30.11,167.27Z"/><path class="cls-5" d="M16.41,175.15c7.26,0,13.18-5.23,13.18-11.64s-5.92-11.65-13.18-11.65S3.23,157.09,3.23,163.51,9.15,175.15,16.41,175.15Z"/><path class="cls-5" d="M2.43,164.36c7.26,0,13.17-5.23,13.17-11.65S9.69,141.06,2.43,141.06s-13.18,5.24-13.18,11.65S-4.83,164.36,2.43,164.36Z"/><path class="cls-5" d="M-2.63,181.59c7.26,0,13.18-5.23,13.18-11.65S4.63,158.29-2.63,158.29s-13.18,5.24-13.18,11.65S-9.89,181.59-2.63,181.59Z"/><path class="cls-5" d="M216.37,151.53c7.25,0,13.17-5.23,13.17-11.65s-5.92-11.64-13.17-11.64-13.18,5.23-13.18,11.64S209.11,151.53,216.37,151.53Z"/><path class="cls-5" d="M195.75,151.88c7.26,0,13.18-5.24,13.18-11.65s-5.92-11.65-13.18-11.65-13.18,5.23-13.18,11.65S188.49,151.88,195.75,151.88Z"/><path class="cls-5" d="M178.85,147c7.26,0,13.18-5.23,13.18-11.65s-5.92-11.64-13.18-11.64-13.18,5.23-13.18,11.64S171.59,147,178.85,147Z"/><ellipse class="cls-6" cx="158.83" cy="141.3" rx="13.18" ry="11.65"/><path class="cls-5" d="M138.85,152.89c7.26,0,13.18-5.24,13.18-11.65s-5.92-11.65-13.18-11.65-13.17,5.23-13.17,11.65S131.6,152.89,138.85,152.89Z"/><ellipse class="cls-6" cx="234.56" cy="142.89" rx="13.18" ry="11.65"/></g><path class="cls-7" d="M47.58,96.1c12.25,0,22.25-6.7,22.25-14.91s-10-14.91-22.25-14.91S25.33,73,25.33,81.19,35.33,96.1,47.58,96.1Z"/><ellipse class="cls-8" cx="29.54" cy="89.36" rx="17.04" ry="11.42"/><path class="cls-7" d="M68.49,99.09c8.33,0,15.11-4.55,15.11-10.12S76.82,78.84,68.49,78.84,53.38,83.39,53.38,89,60.17,99.09,68.49,99.09Z"/><path class="cls-7" d="M54.54,103.21c6.05,0,11-3.3,11-7.36s-4.93-7.36-11-7.36-11,3.31-11,7.36S48.49,103.21,54.54,103.21Z"/><path class="cls-7" d="M287,121.87c-7.54,0-13.65-4.42-13.65-9.87s6.11-9.88,13.65-9.88,13.65,4.42,13.65,9.88S294.57,121.87,287,121.87Z"/><path class="cls-7" d="M277,112.56c-7.72,0-14-4.53-14-10.11s6.25-10.1,14-10.1,14,4.52,14,10.1S284.73,112.56,277,112.56Z"/><path class="cls-7" d="M302.7,114.36c-5.12,0-9.27-3-9.27-6.71s4.15-6.71,9.27-6.71,9.27,3,9.27,6.71S307.82,114.36,302.7,114.36Z"/><path class="cls-7" d="M291.39,106.5c-5.56,0-10.07-3.26-10.07-7.29s4.51-7.29,10.07-7.29,10.08,3.27,10.08,7.29S297,106.5,291.39,106.5Z"/><path class="cls-9" d="M350,168.46v65H0v-65c48.38-6.86,109.08-10.94,175-10.94S301.62,161.6,350,168.46Z"/><path class="cls-10" d="M350,175.19v118H0v-118c48.38-6.19,109.08-9.88,175-9.88S301.62,169,350,175.19Z"/><path class="cls-9" d="M350,242.15v51H0v-51c48.38-5.63,109.08-9,175-9S301.62,236.52,350,242.15Z"/><path class="cls-11" d="M315.37,216c.73,11.23-265.75,14.13-266.69,0S314.22,198.23,315.37,216Z"/><path class="cls-7" d="M66.38.78C75,.78,82-4.3,82-10.53s-7-11.3-15.62-11.3-15.63,5.08-15.63,11.3S57.77.78,66.38.78Z"/><path class="cls-7" d="M81.87,6.15c6.59,0,12-3.89,12-8.66s-5.38-8.66-12-8.66-12,3.89-12,8.66S75.27,6.15,81.87,6.15Z"/><path class="cls-7" d="M48.44,2.13c5.84,0,10.61-3.45,10.61-7.68s-4.77-7.68-10.61-7.68S37.82-9.78,37.82-5.55,42.59,2.13,48.44,2.13Z"/><ellipse class="cls-8" cx="63.82" cy="2.35" rx="13.97" ry="10.11"/><path class="cls-7" d="M311,31.57c8.57,0,15.57-5.06,15.57-11.26S319.52,9.05,311,9.05s-15.57,5.06-15.57,11.26S302.37,31.57,311,31.57Z"/><path class="cls-7" d="M298.32,22.76c6.57,0,11.93-3.87,11.93-8.62s-5.36-8.63-11.93-8.63-11.93,3.87-11.93,8.63S291.75,22.76,298.32,22.76Z"/><path class="cls-7" d="M325.59,22.09c5.82,0,10.57-3.44,10.57-7.66s-4.75-7.65-10.57-7.65S315,10.22,315,14.43,319.76,22.09,325.59,22.09Z"/><ellipse class="cls-8" cx="312.22" cy="7.59" rx="10.14" ry="7.34"/><path class="cls-7" d="M201.47,43.06c5.54-1,10.61,1.48,11.32,5.49s-3.21,8.06-8.76,9-10.62-1.48-11.33-5.49S195.92,44,201.47,43.06Z"/><path class="cls-7" d="M210.05,48.61c5.67-1,10.86,1.52,11.59,5.63s-3.3,8.24-9,9.24S201.8,62,201.08,57.86,204.37,49.61,210.05,48.61Z"/><path class="cls-7" d="M190.91,50.62c3.77-.66,7.21,1,7.7,3.73s-2.19,5.48-6,6.14-7.21-1-7.69-3.73S187.14,51.29,190.91,50.62Z"/><path class="cls-7" d="M200.25,54.93c4.1-.72,7.84,1.1,8.36,4.06s-2.37,5.95-6.47,6.67-7.84-1.09-8.36-4S196.16,55.66,200.25,54.93Z"/><path class="cls-12" d="M53.71,153.77l.08-40.08c0-9,3.65-14,10.63-13.71h199.9L278,109.25l9.53,44.52Z"/><polygon class="cls-12" points="224.4 102.82 221.88 102.82 210.02 150.93 212.54 150.93 224.4 102.82"/><polygon class="cls-12" points="219.52 102.82 217 102.82 205.14 150.93 207.66 150.93 219.52 102.82"/><polygon class="cls-12" points="78.7 102.82 76.17 102.82 64.31 150.93 66.83 150.93 78.7 102.82"/><polygon class="cls-12" points="85.88 102.82 80.83 102.82 68.97 150.93 74.02 150.93 85.88 102.82"/><path class="cls-7" d="M81.74,156h-17L66,148.73l.5-3,2.31-5.4c1.89-.7,6.06-.59,8.74-.73l2,5Z"/><path class="cls-13" d="M76.5,139.65a3.84,3.84,0,0,1,0,.48,3.28,3.28,0,0,1-6.56,0V140A55.34,55.34,0,0,1,76.5,139.65Z"/><polygon class="cls-12" points="123.57 102.82 121.05 102.82 109.19 150.93 111.71 150.93 123.57 102.82"/><polygon class="cls-12" points="118.72 102.82 116.2 102.82 104.34 150.93 106.86 150.93 118.72 102.82"/><polygon class="cls-12" points="178.66 102.82 176.14 102.82 164.28 150.93 166.8 150.93 178.66 102.82"/><polygon class="cls-12" points="185.84 102.82 180.8 102.82 168.94 150.93 173.98 150.93 185.84 102.82"/><path class="cls-14" d="M219,146.65c-5.84-.51-11,.62-16.55,1.08-6.86-3.5-11.69-21.77-.3-30.22,5.26-3.91,13.38-1.64,14.26-.2,2.6,0,4.9,2,6.44,4.65C226.74,128.6,224.65,141.68,219,146.65Z"/><path class="cls-15" d="M199.25,142.64c1.51-2.83.89-6.76-.07-7.87a4.68,4.68,0,0,1,1.44,6.47A4.58,4.58,0,0,1,199.25,142.64Z"/><path class="cls-16" d="M220.33,146l-3.41,2.5-1-.9.74,8.26-16.82-.62,1.66-9.87-1.89-.66,1.29-6.59C207.16,139.78,215.11,136.2,220.33,146Z"/><rect class="cls-17" x="207.5" y="129.81" width="5.03" height="11.69" rx="2.51"/><ellipse class="cls-18" cx="210.01" cy="126.83" rx="12.77" ry="10.61"/><path class="cls-19" d="M209.75,131.69c1.44.33,2.05-.54,1.65-1.75A1.73,1.73,0,0,1,209.75,131.69Z"/><path class="cls-20" d="M223.39,126.48c-.81-.29-1.78.39-2.18,1.5a1.93,1.93,0,0,0,.74,2.54c.81.29,1.78-.39,2.18-1.5A1.93,1.93,0,0,0,223.39,126.48Z"/><path class="cls-14" d="M205,124.94c-.48.36-.81-.27-.33-.62a3.43,3.43,0,0,1,2.85-.5.45.45,0,0,1-.28.86A3.07,3.07,0,0,0,205,124.94Z"/><path class="cls-14" d="M215.19,124.32c.48.35.12.87-.36.52a3,3,0,0,0-2.21-.16.45.45,0,0,1-.28-.86h0A3.43,3.43,0,0,1,215.19,124.32Z"/><path class="cls-21" d="M213.81,129c.39,0,.72-.63.72-1.4s-.33-1.4-.72-1.4-.72.63-.72,1.4S213.41,129,213.81,129Z"/><path class="cls-21" d="M206.22,129c.4,0,.72-.63.72-1.4s-.32-1.4-.72-1.4-.72.63-.72,1.4S205.83,129,206.22,129Z"/><path class="cls-22" d="M213.77,130a1.75,1.75,0,1,1,1.33,2.09,1.67,1.67,0,0,1-.52-.21C213.79,131.4,213.42,130.56,213.77,130Z"/><path class="cls-22" d="M206.26,130a1.75,1.75,0,1,0-1.33,2.09,1.67,1.67,0,0,0,.52-.21A1.48,1.48,0,0,0,206.26,130Z"/><path class="cls-14" d="M217.76,118.08c.18,3.23-2.46,5.26-5.67,5.41a7.37,7.37,0,0,0,2.5-5.71C214.6,116.57,216.12,117.07,217.76,118.08Z"/><path class="cls-14" d="M216.5,117.78c-.72,2.83-4.81,5.17-8,4.82a8.07,8.07,0,0,0,4-5.22C212.65,116.18,215,116.53,216.5,117.78Z"/><path class="cls-20" d="M197,126.48c.81-.29,1.78.39,2.18,1.5a1.93,1.93,0,0,1-.74,2.54c-.81.29-1.78-.39-2.18-1.5A1.93,1.93,0,0,1,197,126.48Z"/><path class="cls-14" d="M214.18,116.8c-2.73,5.82-12.61,5-15.59,12.3-3.71-4.33.95-9.44,4.27-11.39C205.45,116.18,212.29,114.58,214.18,116.8Z"/><path class="cls-14" d="M214.18,116.8c1.44,5.82,6.4,4.73,8,12C226,122.65,217.16,116.94,214.18,116.8Z"/><path class="cls-15" d="M214.15,122.3c2.13-.77,3.1-3,2.34-4.33C216.61,119.19,215.23,121.36,214.15,122.3Z"/><path class="cls-15" d="M210.33,121.93c2.27.15,5.49-2.26,5.46-4.73C215.42,118.57,211.7,121.5,210.33,121.93Z"/><path class="cls-15" d="M198.55,127c2.54-6.63,13.87-8,16.26-9.68C210.83,118,199.09,119,198.55,127Z"/><path class="cls-15" d="M217.37,118.84c.49,2.12,4.72,4.56,4.93,7.92C222.81,122.84,218.36,120.57,217.37,118.84Z"/><path class="cls-15" d="M201.46,119.08c3.87-4.28,10.65-3.64,13.24-2.33C212.25,116.46,205.51,116.23,201.46,119.08Z"/><path class="cls-15" d="M198.37,140a54.78,54.78,0,0,1-1.59-9.86A12.84,12.84,0,0,0,198.37,140Z"/><path class="cls-15" d="M219.61,143.06c-1.52-2.83-.9-6.76.06-7.86a4.68,4.68,0,0,0-.06,7.86Z"/><path class="cls-15" d="M222.11,140a53.89,53.89,0,0,0,1.58-9.86A12.88,12.88,0,0,1,222.11,140Z"/><polygon class="cls-12" points="269.88 102.23 267.12 102.23 254.14 151.26 256.91 151.26 269.88 102.23"/><polygon class="cls-12" points="265.11 101.83 262.32 101.83 249.24 151.26 252.03 151.26 265.11 101.83"/><path class="cls-23" d="M252.81,137.29c1.29,8.79-2.09,5.15-8,12l-4.48-3.09C242.19,143.62,246.75,137.44,252.81,137.29Z"/><path class="cls-23" d="M264.07,157.2H244.13l2-12.73c1.56-10.05,14.39-10.07,16-.06Z"/><path class="cls-24" d="M249.18,138.36a10,10,0,0,0,.37,5,1.77,1.77,0,0,0,1.82-.29c-.18,1.16,0,1.9-.13,3.09a11.22,11.22,0,0,0,7.5,3.29"/><path class="cls-23" d="M255.56,136.72c-2.39,8.56,3.66,9.63,8.67,17.16l3.87-3.45C266.57,147.65,261.33,137.7,255.56,136.72Z"/><path class="cls-24" d="M258.38,138.23c1.36,1.48,2.1,2.12,2.51,3.32a1.73,1.73,0,0,1-1.63.57c.82.76,1.11,1.35,1.9,2.16a8.19,8.19,0,0,1-4.09,5.54"/><path class="cls-7" d="M250.47,137.42c0,2.73,2.84,8.08,5.28,9.52s3.13-5.42,1.3-9.81S252.91,136.59,250.47,137.42Z"/><polygon class="cls-25" points="254.7 137.14 251.43 141.19 250.88 139.97 251.89 135.3 254.7 137.14"/><polygon class="cls-25" points="254.53 137.19 257.8 139.43 257.18 137.28 255.87 135.97 254.53 137.19"/><path class="cls-13" d="M254.38,140.58l.55,5.75a5.45,5.45,0,0,0,.82.61c1.19.71,2-.56,2.24-2.56l-1.69-4.3-1.39-1.36Z"/><polygon class="cls-13" points="254.35 136.81 252.65 138.65 254.35 140.49 256.26 140.13 256.61 137.63 254.35 136.81"/><polygon class="cls-7" points="254.93 136.52 250.75 140.67 250.39 137.73 252.18 134.7 254.93 136.52"/><path class="cls-26" d="M274.37,144.35c2.47-3.78,7.25-2.17,6.23.32-.15.36-1.89.21-2.23.62a7.9,7.9,0,0,1-.91,1.24c-1.82,2.06-6.14,6.57-8.85,8.21l-3.39-2.83C268.35,150.91,272.26,147.25,274.37,144.35Z"/><path class="cls-27" d="M278.59,143.72h0a.58.58,0,0,1,.59.59v11.5a.58.58,0,0,1-.59.59h0a.58.58,0,0,1-.59-.59v-11.5A.58.58,0,0,1,278.59,143.72Z"/><polygon class="cls-7" points="276.83 147.24 273.41 144.53 273.85 143.97 277.27 146.68 276.83 147.24"/><path class="cls-13" d="M265.25,150.59c2.73-.37,5.17-2.74,7.87-6.29l3.85,3c-2.23,3.64-5.17,7.23-9.89,9C263.12,157.84,259.86,151.31,265.25,150.59Z"/><path class="cls-26" d="M269,122.86c-1-.22-2,.69-2.34,2s.22,2.64,1.2,2.87,2-.69,2.34-2S270,123.09,269,122.86Z"/><polygon class="cls-7" points="254.26 136.78 257.87 139.16 257.15 137.2 255.79 135.08 254.26 136.78"/><ellipse class="cls-28" cx="253.47" cy="124.38" rx="15.54" ry="12.91" transform="translate(-12.53 29.73) rotate(-6.55)"/><path class="cls-29" d="M260.93,122.72c.46,0,.92.63,1,1.53s-.19,1.68-.66,1.73-.92-.63-1-1.53S260.46,122.77,260.93,122.72Z"/><path class="cls-29" d="M250.83,123.88c.46,0,.93.63,1,1.53s-.19,1.68-.65,1.73-.93-.63-1-1.53S250.37,123.93,250.83,123.88Z"/><path class="cls-30" d="M247.05,123.91a.43.43,0,0,1-.59-.63,3.89,3.89,0,0,1,1.53-.84h0a3.3,3.3,0,0,1,1.62-.11.43.43,0,0,1-.16.84,2.49,2.49,0,0,0-1.21.09h0A3.15,3.15,0,0,0,247.05,123.91Z"/><path class="cls-31" d="M237.82,127.77c7.38.42,17.11-4.88,21.16-10.29,1.4,3.33,6.31,6.75,9.92,7,3.35-6.71-4.09-13.88-9.77-12.92C248.31,106.32,234.46,115.88,237.82,127.77Z"/><path class="cls-26" d="M237.57,126.47c.91-.44,2.13.22,2.75,1.47s.38,2.62-.52,3.06-2.13-.21-2.75-1.46S236.67,126.91,237.57,126.47Z"/><path class="cls-32" d="M249.29,131.46a.35.35,0,0,1-.18-.45.34.34,0,0,1,.44-.19h0a14.58,14.58,0,0,0,6.69.52c2.47-.29,4.73-1,5.5-1.88a.35.35,0,0,1,.49.49c-.89,1-3.33,1.81-6,2.11A15.21,15.21,0,0,1,249.29,131.46Z"/><path class="cls-32" d="M253.63,133.39a.34.34,0,1,1,.3-.62,4.74,4.74,0,0,0,2.3.21,2.74,2.74,0,0,0,1.71-.6.34.34,0,0,1,.58.37,3.25,3.25,0,0,1-2.21.92A5.44,5.44,0,0,1,253.63,133.39Z"/><path class="cls-19" d="M256,129.56c1.78.21,2.4-.93,1.75-2.33A2.09,2.09,0,0,1,256,129.56Z"/><path class="cls-30" d="M260,121.72a.43.43,0,0,1,.15.59.43.43,0,0,1-.57.17h0a3.33,3.33,0,0,0-1.31-.36,2.51,2.51,0,0,0-1.21.19.43.43,0,1,1-.35-.79h0a3.46,3.46,0,0,1,1.62-.26A4.27,4.27,0,0,1,260,121.72Z"/><path class="cls-33" d="M240.48,125.59c8.21-.36,18.27-8,18.35-12.34C256.82,116.63,247,124.33,240.48,125.59Z"/><path class="cls-33" d="M267,122.33a11.29,11.29,0,0,1-7.9-7.09A34.42,34.42,0,0,0,267,122.33Z"/><path class="cls-34" d="M239.9,121c4.65-7.76,15.36-9.29,17.32-8.49C254.41,110.6,243.31,111.62,239.9,121Z"/><path class="cls-33" d="M268,120.16c.1-4-5-6.77-7.67-6.52C262.32,114,266.85,117.26,268,120.16Z"/><path class="cls-35" d="M266,114.58c2.41.63,7.22,2,5.93,3.2s-13.2,6.81-19.55,5.7-9.76-3.51-11-5S261.28,113.28,266,114.58Z"/><path class="cls-35" d="M237.63,118.44l-.34,2.86s8.92,1.32,15.18.08a146.37,146.37,0,0,0,16.14-4.77l-1.07-2.92S243.07,116.43,237.63,118.44Z"/><path class="cls-13" d="M261.29,105.07c3.42.33,11.85.71,7,10.08-4.94,3.59-21,7.21-30.81,4.52-2.18-2.42.89-6.13,6.11-8.39C247.68,109.5,254.75,104.44,261.29,105.07Z"/><path class="cls-36" d="M261,108.13c-1.49.17-2.49,2.15-2.23,4.42s1.66,4,3.15,3.81,2.49-2.14,2.23-4.42S262.53,108,261,108.13Z"/><path class="cls-22" d="M261.6,126.76a1.74,1.74,0,0,1,2.36-.47c1,.44,1.52,1.38,1.2,2.09a1.76,1.76,0,0,1-2.37.47C261.81,128.41,261.27,127.47,261.6,126.76Z"/><path class="cls-22" d="M251.1,128a2.07,2.07,0,1,0-1.29,2.63,2.25,2.25,0,0,0,.59-.32A1.75,1.75,0,0,0,251.1,128Z"/><path class="cls-37" d="M284,150.93l-7.33-35.27c-1-4.68-4-12.52-13.3-12.84H234.44v48.11Z"/><path class="cls-37" d="M55.91,150.93,56,115.08c0-8,3.27-12.53,9.51-12.26H93.16v48.11Z"/><path class="cls-38" d="M118.63,139.06c1.34,5-2.19,5.41-4.92,8.88a6.44,6.44,0,0,0-1,1.62c-.52,1.3-4.77,1.77-4.09-.76C110.06,143.24,114.41,138.07,118.63,139.06Z"/><path class="cls-39" d="M124.89,139.91a2.46,2.46,0,0,0-.48-.31,7.24,7.24,0,0,1,2.66,5l.45,3.85c.13.17.25.35.36.52a9.51,9.51,0,0,1,1.64,6.57c-.84,1.46-.89,3,.25,1.73-.4,3.41,3.79,2.77,2.6-1.49a21.29,21.29,0,0,0-1.72-8.29A26,26,0,0,0,124.89,139.91Z"/><path class="cls-38" d="M121.89,139.06c-1.34,5,1.49,5.29,4.23,8.75a12.08,12.08,0,0,1,2.86,7.32l3.81-.23C133.25,148.28,128,137.34,121.89,139.06Z"/><path class="cls-40" d="M128.38,155.81H112l1.81-15.46c3.91-2.46,9.53-2.81,12.26-.55Z"/><path class="cls-41" d="M73.11,138.56c-1.12.55-3.31-1.23-4.88-4s-1.93-5.4-.81-5.94,3.32,1.23,4.89,4S74.24,138,73.11,138.56Z"/><path class="cls-41" d="M74.43,138.56c1.13.55,3.31-1.23,4.89-4s1.93-5.4.8-5.94-3.32,1.23-4.89,4S73.3,138,74.43,138.56Z"/><path class="cls-41" d="M78.46,138.11c1.21.32,3-1.85,4-4.83s.86-5.67-.35-6-3,1.85-4,4.84S77.25,137.79,78.46,138.11Z"/><path class="cls-41" d="M82.67,136.6c1.25-.12,2.2-2.77,2.12-5.92s-1.15-5.62-2.39-5.5-2.2,2.77-2.12,5.93S81.42,136.72,82.67,136.6Z"/><path class="cls-41" d="M87,134.07c1.06-.68.67-3.47-.85-6.24s-3.6-4.45-4.66-3.77-.67,3.47.86,6.24S85.94,134.75,87,134.07Z"/><path class="cls-42" d="M120.29,129.57h0a2.59,2.59,0,0,1,2.6,2.6V138a2.59,2.59,0,0,1-2.6,2.6h0a2.59,2.59,0,0,1-2.6-2.6v-5.86A2.59,2.59,0,0,1,120.29,129.57Z"/><path class="cls-20" d="M120.06,138c7.28,0,13.22-4.93,13.22-11s-5.94-11-13.22-11-13.22,4.93-13.22,11S112.78,138,120.06,138Z"/><path class="cls-21" d="M124.38,129.52c.4,0,.72-.63.72-1.4s-.32-1.4-.72-1.4-.72.63-.72,1.4S124,129.52,124.38,129.52Z"/><path class="cls-21" d="M115.74,129.52c.39,0,.72-.63.72-1.4s-.33-1.4-.72-1.4-.72.63-.72,1.4S115.34,129.52,115.74,129.52Z"/><path class="cls-19" d="M119.52,132c1.48.35,2.12-.55,1.71-1.8A1.79,1.79,0,0,1,119.52,132Z"/><path class="cls-22" d="M124.56,130.59a1.48,1.48,0,0,1,2-.18c.79.48,1.15,1.32.81,1.89a1.5,1.5,0,0,1-2,.17C124.58,132,124.22,131.15,124.56,130.59Z"/><path class="cls-22" d="M115.57,130.59a1.5,1.5,0,0,0-2-.18c-.78.48-1.15,1.32-.81,1.89a1.5,1.5,0,0,0,2,.17C115.54,132,115.91,131.15,115.57,130.59Z"/><path class="cls-14" d="M111.36,116.53c1.43-1.65,5.15-.78,8.32,2s4.56,6.29,3.12,8-5.16.79-8.32-2S109.92,118.19,111.36,116.53Z"/><path class="cls-14" d="M115.08,116c.93-2,5.89-2,11.09-.07s8.66,5.18,7.73,7.18-5.89,2-11.08.07S114.16,118,115.08,116Z"/><path class="cls-14" d="M118.19,116.28c1.43-1.66,5.16-.79,8.32,1.94s4.56,6.3,3.13,8-5.16.79-8.32-1.94S116.76,117.94,118.19,116.28Z"/><path class="cls-14" d="M127,117.54c1.23-.55,3.52,1.41,5.12,4.39s1.9,5.84.68,6.39-3.51-1.42-5.11-4.4S125.74,118.08,127,117.54Z"/><path class="cls-20" d="M133.32,127.24c-.81-.29-1.78.39-2.18,1.5a1.93,1.93,0,0,0,.74,2.54c.81.29,1.78-.38,2.18-1.5A1.92,1.92,0,0,0,133.32,127.24Z"/><path class="cls-14" d="M114,116.44c-1.47-1.23-4.25.45-6.21,3.75s-2.35,7-.87,8.21,4.26-.45,6.21-3.75S115.51,117.67,114,116.44Z"/><path class="cls-20" d="M106.41,127.24c.81-.29,1.78.39,2.18,1.5a1.93,1.93,0,0,1-.74,2.54c-.81.29-1.78-.38-2.18-1.5A1.93,1.93,0,0,1,106.41,127.24Z"/><path class="cls-14" d="M116.54,117.21c-.18-1.16-2.71-1.91-5.65-1.67s-5.19,1.37-5,2.53,2.7,1.9,5.65,1.67S116.72,118.37,116.54,117.21Z"/><path class="cls-14" d="M114.88,116.11c0-1.49,3-3,6.73-3.31s6.8.6,6.83,2.1-3,3-6.73,3.31S114.9,117.61,114.88,116.11Z"/><path class="cls-14" d="M115.71,119.3c-.44-1.24-3.38-1.53-6.58-.65s-5.44,2.6-5,3.84,3.39,1.54,6.59.66S116.15,120.54,115.71,119.3Z"/><path class="cls-19" d="M116.68,132.91c1.64,1,5.76,1,6.76,0C122.24,136.64,118.11,136.69,116.68,132.91Z"/><path class="cls-7" d="M123.2,133.09c-.22,1.54-5.87,1.39-6.28,0A11.55,11.55,0,0,0,123.2,133.09Z"/><path class="cls-15" d="M122.91,123.78a1.89,1.89,0,0,1-.44,1.25c-1.13,1.3-4.06.62-6.54-1.53-2.31-2-3.43-4.56-2.67-6a7.29,7.29,0,0,0,2.9,5c2.49,2.15,5.42,2.83,6.55,1.53A1.57,1.57,0,0,0,122.91,123.78Z"/><path class="cls-15" d="M129.77,123.29a1.69,1.69,0,0,1-.13,1.17c-.7,1.36-3.38,1.38-6,0-2.42-1.26-3.92-3.24-3.54-4.61.26,1.25,1.6,2.73,3.55,3.74,2.59,1.35,5.28,1.33,6,0A1.57,1.57,0,0,0,129.77,123.29Z"/><path class="cls-15" d="M132.67,120.57a1.71,1.71,0,0,1,.05,1.18c-.48,1.46-3.13,1.89-5.91,1-2.58-.86-4.36-2.6-4.21-4,.45,1.2,2,2.45,4.09,3.15,2.77.92,5.42.5,5.91-1C132.63,120.79,132.65,120.68,132.67,120.57Z"/><path class="cls-15" d="M126.53,114.3a1.37,1.37,0,0,1,.41.83c.1,1.19-1.66,2.32-3.94,2.52-2.12.19-3.93-.5-4.26-1.55a5.14,5.14,0,0,0,3.9,1c2.28-.2,4-1.34,3.94-2.53A2.56,2.56,0,0,0,126.53,114.3Z"/><path class="cls-15" d="M107.43,117.37a1,1,0,0,0-.1.72c.22.93,1.82,1.34,3.58.92s2.84-1.35,2.82-2.22a4,4,0,0,1-2.69,1.7c-1.76.42-3.37,0-3.58-.92A.64.64,0,0,1,107.43,117.37Z"/><path class="cls-15" d="M105.28,121.49a1.3,1.3,0,0,0,0,.91c.47,1.11,2.55,1.29,4.66.41s3.25-2.27,3-3.36a5.12,5.12,0,0,1-3,2.68c-2.11.88-4.2.7-4.66-.4A1,1,0,0,1,105.28,121.49Z"/><path class="cls-41" d="M69.08,138.11c-1.21.32-3-1.85-4-4.83s-.85-5.67.36-6,3,1.85,4,4.84S70.29,137.79,69.08,138.11Z"/><path class="cls-41" d="M64.87,136.6c-1.24-.12-2.19-2.77-2.12-5.92s1.15-5.62,2.39-5.5,2.2,2.77,2.13,5.93S66.12,136.72,64.87,136.6Z"/><path class="cls-41" d="M61.35,134.47c-1.19-.39-1.52-3.19-.75-6.25s2.4-5.22,3.55-4.83,1.53,3.19.75,6.25S62.54,134.86,61.35,134.47Z"/><path class="cls-41" d="M59.06,128.11c-1-.75-.45-3.51,1.25-6.17s3.88-4.22,4.89-3.47.45,3.51-1.25,6.17S60.07,128.85,59.06,128.11Z"/><path class="cls-43" d="M87.88,128.11c1-.75.45-3.51-1.25-6.17s-3.88-4.22-4.89-3.47S81.3,122,83,124.64,86.88,128.85,87.88,128.11Z"/><path class="cls-28" d="M73.26,130.62h0a2.59,2.59,0,0,1,2.6,2.6v6.9a2.59,2.59,0,0,1-2.6,2.6h0a2.59,2.59,0,0,1-2.6-2.6v-6.9A2.59,2.59,0,0,1,73.26,130.62Z"/><ellipse class="cls-28" cx="73.72" cy="126.69" rx="13.22" ry="10.98"/><path class="cls-21" d="M78,129.21c.4,0,.72-.63.72-1.4s-.32-1.39-.72-1.39-.72.62-.72,1.39S77.64,129.21,78,129.21Z"/><path class="cls-21" d="M69.39,129.21c.4,0,.72-.63.72-1.4s-.32-1.39-.72-1.39-.72.62-.72,1.39S69,129.21,69.39,129.21Z"/><path class="cls-44" d="M68.14,132.83a.37.37,0,0,1-.13-.5.36.36,0,0,1,.49-.13,12.31,12.31,0,0,0,5.58,1.08c2.1,0,4.06-.35,4.78-1a.36.36,0,1,1,.5.53h0c-.87.81-3,1.23-5.28,1.23A13.08,13.08,0,0,1,68.14,132.83Z"/><path class="cls-44" d="M71.62,134.88a.37.37,0,0,1-.12-.5.38.38,0,0,1,.51-.12,3.93,3.93,0,0,0,1.88.39,2.31,2.31,0,0,0,1.45-.31.36.36,0,0,1,.51-.05h0a.36.36,0,0,1,.05.51h0a2.82,2.82,0,0,1-2,.58A4.61,4.61,0,0,1,71.62,134.88Z"/><path class="cls-44" d="M73.18,131.72c1.48.34,2.11-.56,1.7-1.81A1.79,1.79,0,0,1,73.18,131.72Z"/><path class="cls-22" d="M78.21,130.28a1.49,1.49,0,0,1,2.05-.17c.78.47,1.15,1.31.81,1.88a1.5,1.5,0,0,1-2,.17A1.48,1.48,0,0,1,78.21,130.28Z"/><path class="cls-22" d="M69.22,130.28a1.75,1.75,0,1,0-1.33,2.09,1.67,1.67,0,0,0,.52-.21A1.48,1.48,0,0,0,69.22,130.28Z"/><path class="cls-41" d="M87.48,127.85c1.13-1,0-5.74-3.78-9.13s-8.28-4.29-9.41-3.31,3.68,3.75,7,6.54S86.35,128.82,87.48,127.85Z"/><path class="cls-41" d="M79.48,123.79c.73-.34.72-2.15,0-4s-1.92-3.13-2.64-2.79-.72,2.15,0,4S78.76,124.14,79.48,123.79Z"/><path class="cls-41" d="M88.06,128.52c1-.61.74-3.25-.6-5.9s-3.25-4.31-4.26-3.71-.75,3.25.6,5.9S87.05,129.12,88.06,128.52Z"/><path class="cls-26" d="M87,126.93c-.81-.28-1.78.39-2.18,1.51a1.92,1.92,0,0,0,.74,2.54c.8.28,1.78-.39,2.17-1.51A1.92,1.92,0,0,0,87,126.93Z"/><path class="cls-41" d="M60.2,127.85c-1.13-1,0-5.74,3.78-9.13s8.28-4.29,9.41-3.31-3.68,3.75-7,6.54S61.33,128.82,60.2,127.85Z"/><path class="cls-26" d="M60.07,126.93c.8-.28,1.78.39,2.17,1.51A1.92,1.92,0,0,1,61.5,131c-.8.28-1.77-.39-2.17-1.51A1.92,1.92,0,0,1,60.07,126.93Z"/><path class="cls-41" d="M68.51,123c-.75-.79.14-3.08,2-5.11s4-3,4.71-2.25-.14,3.08-2,5.11S69.27,123.79,68.51,123Z"/><path class="cls-41" d="M64.46,125.26c-.88-.64-.4-3.05,1.06-5.38s3.37-3.68,4.25-3,.4,3.05-1.06,5.37S65.34,125.91,64.46,125.26Z"/><path class="cls-41" d="M73.35,123.15c-.76-.51-.44-2.53.71-4.52s2.68-3.17,3.44-2.66.43,2.53-.71,4.51S74.1,123.66,73.35,123.15Z"/><path class="cls-41" d="M69.29,114.07c.24-.88,2.25-1.24,4.5-.81s3.89,1.49,3.65,2.37-2.25,1.24-4.5.81S69.06,115,69.29,114.07Z"/><path class="cls-41" d="M62.55,118.47c-.24-1.06,1.69-2.57,4.32-3.36s5-.58,5.2.49-1.7,2.57-4.33,3.36S62.79,119.54,62.55,118.47Z"/><path class="cls-41" d="M86,127.14c-.92.57-3-.76-4.59-3s-2.18-4.49-1.25-5.07,3,.76,4.6,3S87,126.56,86,127.14Z"/><path class="cls-41" d="M84.37,118.63c.32-.85-1.09-2.33-3.17-3.3s-4-1.07-4.35-.22,1.1,2.33,3.17,3.3S84,119.47,84.37,118.63Z"/><path class="cls-15" d="M77.12,120.53c.36.62,1.84,2.64,2.58,2C79.41,124.06,77.56,122.49,77.12,120.53Z"/><path class="cls-15" d="M81.35,121.08c.81,1.17,4.11,5,5.46,3.55C86.51,127.74,82.54,124.92,81.35,121.08Z"/><path class="cls-15" d="M76.55,119.12c-.43.75-2.24,3.22-3.13,2.43C73.76,123.42,76,121.51,76.55,119.12Z"/><path class="cls-15" d="M72.65,119.93c-.63.6-3.07,2.44-3.7,1.43C68.74,123.25,71.46,122.07,72.65,119.93Z"/><path class="cls-15" d="M67.86,121.39c-.49.71-2.47,3-3.31,2.19C64.75,125.47,67.16,123.73,67.86,121.39Z"/><path class="cls-15" d="M64.12,121.78c-.73,1.06-3.67,4.5-4.9,3.24C59.52,127.81,63.07,125.25,64.12,121.78Z"/><path class="cls-15" d="M68.62,116.29c-.73.62-3.52,2.52-4.16,1.37C64.13,119.73,67.19,118.58,68.62,116.29Z"/><path class="cls-15" d="M75.63,114.73c-.93.24-4.26.74-4.34-.57C70.09,115.88,73.35,116.17,75.63,114.73Z"/><path class="cls-15" d="M78.77,115.9c.74.61,3.56,2.47,4.18,1.31C83.31,119.27,80.24,118.17,78.77,115.9Z"/><path class="cls-15" d="M72,117.42c-1,.84-4.72,3.39-5.58,1.85C66,122.05,70.11,120.5,72,117.42Z"/><path class="cls-15" d="M79.52,118.09c.88.76,4.28,3.08,5.06,1.68C85,122.29,81.25,120.88,79.52,118.09Z"/><path class="cls-15" d="M77.19,116.29c-.67.57-3.23,2.32-3.82,1.27C73.06,119.46,75.88,118.4,77.19,116.29Z"/><rect class="cls-37" x="100.72" y="102.82" width="37.2" height="48.11"/><path class="cls-31" d="M151.5,149.11c2.62-1.19.38-7.82,1.19-10.18s3.47-2.89,4.58-1.74C159.18,139.15,158.94,150.51,151.5,149.11Z"/><path class="cls-33" d="M153.59,148.46c4.67-2.65,3.81-7.94,3.2-9.54C156.6,140,156.92,145,153.59,148.46Z"/><path class="cls-33" d="M153.56,147c.6-2.85-1.15-5.88.28-8.6C153.43,140.19,155.6,144.47,153.56,147Z"/><path class="cls-31" d="M178.21,149.11c-2.62-1.19-.38-7.82-1.19-10.18s-3.47-2.89-4.58-1.74C170.53,139.15,170.77,150.51,178.21,149.11Z"/><path class="cls-33" d="M175.91,148.46c-4.68-2.65-3.82-7.94-3.2-9.54C172.9,140,172.57,145,175.91,148.46Z"/><path class="cls-33" d="M175.94,147c-.6-2.85,1.15-5.88-.28-8.6C176.06,140.19,173.9,144.47,175.94,147Z"/><path class="cls-31" d="M178.11,129.4c-.57-8-7.77-13.25-13.31-11.81-5.37-1.37-13,3.34-13.31,11.81-.11,3.13.69,6.64,2.38,8.06,2,1.65,10-6.91,11.58-5.79,1.37-1.47,7,8.15,9.73,5.93C177.53,135.71,178.32,132.24,178.11,129.4Z"/><path class="cls-45" d="M175.91,137.35c-1.68.64-2.38.55-3.5-.18"/><path class="cls-45" d="M153.75,137.35c1.68.64,2.38.55,3.5-.18"/><path class="cls-7" d="M163.56,139.9v.17a5.33,5.33,0,0,1,2.35-.13h0c4.94.68,7.79,4.73,8.85,7.18l-3.44,1.24c-.07-.11.86,13.18,1.15,16.93h-15.6c.32-2.92.61-9,1.6-15.3l-.35.49L155,147.56C156,145.1,158.62,140.58,163.56,139.9Z"/><rect class="cls-46" x="162.29" y="131.59" width="5.03" height="11.69" rx="2.51"/><path class="cls-47" d="M164.8,139.22c7,0,12.77-4.77,12.77-10.61S171.84,118,164.8,118,152,122.76,152,128.61,157.77,139.22,164.8,139.22Z"/><path class="cls-48" d="M168.55,131.76a1.49,1.49,0,0,1,2-.17c.79.47,1.15,1.32.81,1.88a1.48,1.48,0,0,1-2,.18C168.57,133.17,168.21,132.33,168.55,131.76Z"/><path class="cls-48" d="M161.05,131.76a1.49,1.49,0,0,0-2-.17c-.79.47-1.15,1.32-.81,1.88a1.48,1.48,0,0,0,2,.18C161,133.17,161.39,132.33,161.05,131.76Z"/><path class="cls-49" d="M160.38,133.82c2.14,1.24,7.54,1.23,8.84,0C167.65,138.35,162.25,138.41,160.38,133.82Z"/><path class="cls-49" d="M164.54,133.46c1.43.34,2.05-.54,1.65-1.74A1.72,1.72,0,0,1,164.54,133.46Z"/><path class="cls-7" d="M156.52,130l-2.92-1.74.24-.41,2.71,1.61a2.43,2.43,0,0,1,1-1.43,4.58,4.58,0,0,1,5,0,2.54,2.54,0,0,1,.92,1.08,1.77,1.77,0,0,1,.76-.41,2.27,2.27,0,0,1,1.3,0,1.34,1.34,0,0,1,.64.37,2.48,2.48,0,0,1,.9-1,4.58,4.58,0,0,1,5,0,2.37,2.37,0,0,1,1,1.43l2.71-1.61.24.41L173.08,130a2.3,2.3,0,0,1-1.06,1.69,4.62,4.62,0,0,1-5,0,2.26,2.26,0,0,1-1.07-1.83.76.76,0,0,0-.61-.72,1.4,1.4,0,0,0-.5-.06,2.33,2.33,0,0,0-.53.07c-.41.12-.74.37-.74.71a2.26,2.26,0,0,1-1.07,1.83,4.62,4.62,0,0,1-5,0,2.3,2.3,0,0,1-1.06-1.69Zm15.22-1.58a4.13,4.13,0,0,0-4.41,0,1.64,1.64,0,0,0-.66,2.22,1.68,1.68,0,0,0,.66.66,4.13,4.13,0,0,0,4.41,0,1.63,1.63,0,0,0,.68-2.2A1.65,1.65,0,0,0,171.74,128.42Zm-9.47,0a4.13,4.13,0,0,0-4.41,0,1.63,1.63,0,0,0-.68,2.2,1.65,1.65,0,0,0,.68.68,4.13,4.13,0,0,0,4.41,0,1.64,1.64,0,0,0,.66-2.22A1.68,1.68,0,0,0,162.27,128.42Z"/><path class="cls-31" d="M164.8,118c-11.69-.29-15,10.36-11.75,13.25,1.2-6.48,5.74-8.76,11.75-10.42,5.89,1.62,11.83,5.09,12.24,10.84C179.39,128,176.49,117.7,164.8,118Z"/><path class="cls-7" d="M168.93,134c-.29,1.87-7.68,1.69-8.22,0C162.87,134.71,167.33,134.72,168.93,134Z"/><path class="cls-31" d="M170,126.19a.45.45,0,0,1-.51.75,2.52,2.52,0,0,0-1-.37,2.12,2.12,0,0,0-1,.08.45.45,0,0,1-.55-.34.46.46,0,0,1,.24-.52,2.9,2.9,0,0,1,1.43-.12A3.51,3.51,0,0,1,170,126.19Z"/><ellipse class="cls-50" cx="168.59" cy="129.37" rx="0.72" ry="1.4"/><ellipse class="cls-50" cx="161.01" cy="129.37" rx="0.72" ry="1.4"/><path class="cls-13" d="M167.9,140.39a9.18,9.18,0,0,1,1,.48v6.83c0,1.27,1.26,3,2.29,3,.57,5.34,1,11.28,1.28,14.51h-15.6c.3-2.8.59-8.54,1.48-14.51,1.07-.11,2.3-1.77,2.3-3v-6.87c.33-.17.66-.33,1-.47v7h6.2Z"/><rect class="cls-51" x="161.7" y="149.39" width="6.2" height="4.21"/><rect class="cls-52" x="160.5" y="143.49" width="1.34" height="0.92" rx="0.24"/><rect class="cls-52" x="167.73" y="143.49" width="1.34" height="0.92" rx="0.24"/><path class="cls-47" d="M178.17,128.25c-.8-.28-1.77.39-2.17,1.51a1.92,1.92,0,0,0,.74,2.54c.8.28,1.78-.39,2.17-1.51A1.91,1.91,0,0,0,178.17,128.25Z"/><path class="cls-47" d="M151.74,128.25c.8-.28,1.78.39,2.17,1.51a1.92,1.92,0,0,1-.74,2.54c-.8.28-1.77-.39-2.17-1.51A1.91,1.91,0,0,1,151.74,128.25Z"/><path class="cls-31" d="M159.91,127a.46.46,0,0,1-.52-.75h0a3.49,3.49,0,0,1,1.43-.53,3,3,0,0,1,1.43.13.45.45,0,0,1-.31.85,2.25,2.25,0,0,0-1-.08A2.56,2.56,0,0,0,159.91,127Z"/><path class="cls-53" d="M157.86,150.2a9.09,9.09,0,0,0-.39,5.89c1,1.28,1.28,2.79,0,1.69.86,3.2-3.24,3.18-2.7-1.06a20.42,20.42,0,0,1,.49-8.16l.18-.57Z"/><path class="cls-33" d="M153,128c2.35-5.83,8.59-6.42,11.77-9.44C161.12,120.66,154.45,121.25,153,128Z"/><path class="cls-33" d="M176.74,128c-2.35-5.83-8.59-6.42-11.77-9.44C168.66,120.66,175.32,121.25,176.74,128Z"/><path class="cls-33" d="M154.49,122.59c3-3.68,8-4.65,9.87-4.27C162.1,117,157.12,118,154.49,122.59Z"/><path class="cls-33" d="M174.86,122.59c-3-3.68-8-4.65-9.87-4.27C167.25,117,172.24,118,174.86,122.59Z"/><rect class="cls-37" x="145.47" y="102.82" width="37.2" height="48.11"/><rect class="cls-37" x="190.22" y="102.82" width="37.2" height="48.11"/><path class="cls-7" d="M315.65,171.6a8.34,8.34,0,0,1,0,16Z"/><path class="cls-54" d="M315.65,173.28h-1a1,1,0,0,0-1,1v14a1,1,0,0,0,1,1h1Z"/><path class="cls-55" d="M50.16,172.37h1a1,1,0,0,1,1,1v14a1,1,0,0,1-1,1h-1Z"/><path class="cls-36" d="M66.32,98.37H265.14c9.54,0,15,8,16.66,16.24l7.2,36.32,21.55,9.38c2.6,1.13,5.15,2.32,5.15,5.15v24.43A11.15,11.15,0,0,1,304.53,201H59.67a9.54,9.54,0,0,1-9.51-9.52V115.65C50.16,103.15,55.7,98.37,66.32,98.37ZM284,150.93l-7.33-35.27c-1-4.68-4-12.52-13.3-12.84H234.44v48.11Zm-93.77-48.11v48.11h37.2V102.82Zm-44.75,0v48.11h37.2V102.82Zm-44.75,0v48.11h37.19V102.82ZM55.91,150.93H93.16V102.82h-27c-6.7-.27-10.19,4.24-10.21,12.26Z"/><polygon class="cls-56" points="50.16 156.7 302.21 156.7 306.36 158.51 50.16 158.51 50.16 156.7"/><path class="cls-20" d="M217.15,148.28c1.85,1.86,1.77,4.13,1.61,6.62-.8,1.42-.84,2.95.25,1.67-.37,3.29,3.68,2.66,2.51-1.46a20.38,20.38,0,0,0-1.72-8c-.13-.28.06-.41-.1-.7Z"/><path class="cls-20" d="M200.71,139a17.79,17.79,0,0,1-3.94-2.39,13.29,13.29,0,0,1-4.13-6.75c.35-1.6-.06-3.07-.73-1.53-.62-3.25-4.3-1.46-2,2.13a27.69,27.69,0,0,0,4.15,7.36c2.3,3,3.39,4.19,5.76,5.59Z"/><path class="cls-26" d="M66,148.72a13.67,13.67,0,0,0-2,7.91c.85,1.46.9,3.05-.24,1.73.4,3.41-3.79,2.78-2.61-1.49a21.07,21.07,0,0,1,1.73-8.28,25.91,25.91,0,0,1,5.61-7.49l-2,4.64Z"/><path class="cls-13" d="M66,148.72a20.76,20.76,0,0,0-1.87,7.42L60.91,156c-.39-5.52,3.24-13.83,7.86-15.62l-2.31,5.4-.49,3Zm2.88-8.41a5.53,5.53,0,0,1,1.2-.29,7.33,7.33,0,0,0-1.23.29Z"/><path class="cls-57" d="M288.88,150.58l.07.35,21.55,9.38c2.6,1.13,5.15,2.32,5.15,5.15v.22L289,153.93Z"/><path class="cls-57" d="M66.32,98.37H265.14a14.82,14.82,0,0,1,10.73,4.45H53.8C56.51,99.71,60.7,98.37,66.32,98.37Z"/><rect class="cls-58" x="230.24" y="98.37" width="1.34" height="102.64"/><rect class="cls-58" x="50.16" y="181.47" width="265.49" height="1.81"/><path class="cls-35" d="M315.65,165.88v24a11.37,11.37,0,0,1-.14,1.75,2.52,2.52,0,0,1-2.28-2.51V168.4A2.52,2.52,0,0,1,315.65,165.88Z"/><path class="cls-54" d="M315.65,190.2A11.16,11.16,0,0,1,304.53,201H59.67a9.54,9.54,0,0,1-9.51-9.52V190.2Z"/><path class="cls-54" d="M303.13,201h-55.3a27.65,27.65,0,1,1,55.3,0Z"/><path class="cls-35" d="M297.41,201H253.55a21.93,21.93,0,0,1,43.86,0Z"/><path class="cls-59" d="M275.1,182.28A18.73,18.73,0,1,1,256.37,201h0A18.73,18.73,0,0,1,275.1,182.28Z"/><path class="cls-60" d="M275.1,192.3a8.71,8.71,0,1,1-8.71,8.71h0A8.71,8.71,0,0,1,275.1,192.3Z"/><path class="cls-12" d="M275.1,192.3a8.72,8.72,0,0,1,4.1,1,17.91,17.91,0,0,1-11.53,12.24,8.71,8.71,0,0,1,7.43-13.26Z"/><path class="cls-54" d="M121.24,201H65.94a27.65,27.65,0,1,1,55.3,0Z"/><path class="cls-35" d="M115.52,201H71.66a21.93,21.93,0,1,1,43.86,0Z"/><path class="cls-59" d="M93.2,182.28A18.73,18.73,0,1,1,74.47,201h0A18.73,18.73,0,0,1,93.2,182.28Z"/><path class="cls-60" d="M93.2,192.3A8.71,8.71,0,1,1,84.5,201v0A8.72,8.72,0,0,1,93.2,192.3Z"/><path class="cls-12" d="M93.2,192.3a8.6,8.6,0,0,1,4.1,1,17.9,17.9,0,0,1-11.52,12.24A8.7,8.7,0,0,1,93.2,192.3Z"/><path class="cls-36" d="M286.34,136.28h3.77a3.77,3.77,0,0,1,3.77,3.77v9.22a3.77,3.77,0,0,1-3.77,3.77h-3.77Z"/><rect class="cls-61" x="284.3" y="136.28" width="3.77" height="16.77"/><path class="cls-62" d="M308.59,187.61h7.77a4.49,4.49,0,0,1,4.47,4.47v7.08a4.48,4.48,0,0,1-4.47,4.47h-7.81a4.48,4.48,0,0,1-4.47-4.47v-7.08a4.49,4.49,0,0,1,4.47-4.47Z"/><path class="cls-63" d="M308.59,187.61h7.77a4.38,4.38,0,0,1,2.28.63v9.19a3.61,3.61,0,0,1-3.59,3.6H304.49a4.47,4.47,0,0,1-.41-1.87v-7.08a4.49,4.49,0,0,1,4.47-4.47Z"/><path class="cls-62" d="M50.45,187.61h7.77a4.49,4.49,0,0,1,4.47,4.47v7.08a4.48,4.48,0,0,1-4.47,4.47H50.4a4.48,4.48,0,0,1-4.47-4.47v-7.08a4.49,4.49,0,0,1,4.47-4.47Z"/><path class="cls-63" d="M50.45,187.61h7.77a4.47,4.47,0,0,1,2.28.63v9.19a3.61,3.61,0,0,1-3.6,3.6H46.34a4.47,4.47,0,0,1-.41-1.87v-7.08a4.49,4.49,0,0,1,4.47-4.47Z"/><path class="cls-26" d="M77.75,140.22a31,31,0,0,0,7.46-2.71,9.55,9.55,0,0,0,4.53-5c-.06-1.69.64-3.12,1-1.42,1.24-3.2,4.65-.68,1.6,2.54a21.07,21.07,0,0,1-5.4,6.51,25.77,25.77,0,0,1-7.75,3.8Z"/><path class="cls-13" d="M77.51,139.61A45.28,45.28,0,0,0,83.77,138a11.5,11.5,0,0,0,5.62-5.11l2.74,1.65c-1.74,3.93-7.53,8.55-12.63,10.13Z"/><polygon class="cls-7" points="122.89 137.89 123.99 138.67 124.13 141.7 120.32 140.66 122.89 137.89"/><polygon class="cls-7" points="117.74 137.89 116.63 138.77 116.51 141.7 120.32 140.66 117.74 137.89"/><path class="cls-20" d="M111.47,148.34c2.15,1.24,6.18,1.57,8.88,1.28,1.43-.9,3-1,1.74.18,3.38-.54,2.92,3.68-1.39,2.66-2.08,0-6.8-.11-9.09-.79Z"/><polygon class="cls-7" points="119.98 152.47 119.76 149.18 120.3 149.14 120.51 152.43 119.98 152.47"/><path class="cls-38" d="M112.23,147.68c1.59,1.35,4.16,1.5,7.51,1.22l.25,3.7c-3.17.6-6.67.78-10.06-1C107.09,150.17,109.09,145,112.23,147.68Z"/><path class="cls-19" d="M206.86,131.89c1.64,1,5.76,1,6.76,0C212.42,135.63,208.29,135.68,206.86,131.89Z"/><path class="cls-7" d="M213.38,132.07c-.22,1.54-5.87,1.4-6.28,0A11.55,11.55,0,0,0,213.38,132.07Z"/><rect class="cls-64" x="165.71" y="147.9" width="6.4" height="9.2" transform="translate(-57.99 135.05) rotate(-37.68)"/><rect class="cls-65" x="165.31" y="148.73" width="6.4" height="9.2" transform="translate(-55.25 110.48) rotate(-31.46)"/><path class="cls-53" d="M171.34,148.37c-1.09,2.25-2.23,3-4.57,4.29-1.63.05-3,.82-1.3,1.08-1.1.51-.54,1.3-.24,1.82.44.79,1,1.55,2.8-.44a20.8,20.8,0,0,0,5.92-5.64,2.05,2.05,0,0,0,.18-2.25Z"/><path class="cls-26" d="M243.69,146.73c2.84,1.65,8.18,2.09,11.75,1.7,1.89-1.19,4-1.34,2.3.23,4.48-.7,3.86,4.87-1.84,3.53-2.75,0-9-.14-12-1.05Z"/><polygon class="cls-7" points="254.95 152.19 254.66 147.84 255.37 147.79 255.66 152.15 254.95 152.19"/><path class="cls-13" d="M244.17,146.66c2.11,1.78,6,1.19,10.47.81l.32,4.9c-4.19.8-8.83,1-13.31-1.28C237.89,149.16,240,143.16,244.17,146.66Z"/><path class="cls-40" d="M50.16,171.6a8.34,8.34,0,0,0,0,16Z"/></g></svg>