<svg id="Layer_17" data-name="Layer 17" xmlns="http://www.w3.org/2000/svg" viewBox="0 0 350 270"><defs><style>.cls-1{fill:#f2f4f7;}.cls-2,.cls-24{fill:#fff;}.cls-2,.cls-25{fill-rule:evenodd;}.cls-3{fill:#e01327;}.cls-4{fill:#e0ebf7;}.cls-5{fill:#c7cfd9;}.cls-6{fill:#e2e0e1;}.cls-7{fill:#bf2321;}.cls-8{fill:#b61924;}.cls-9{fill:#f7e393;}.cls-10{fill:#fad737;}.cls-11{fill:#dac363;}.cls-12{fill:#eed66f;}.cls-13{fill:#f2e197;}.cls-14{fill:#f2dd88;}.cls-15{fill:#dfc975;}.cls-16{fill:#e7d58a;}.cls-17{fill:#efa700;}.cls-18{fill:#dd1934;}.cls-19{fill:#ea6f3d;}.cls-20{fill:#e62b42;}.cls-21{fill:#e73c49;}.cls-22{fill:#e94465;}.cls-23{fill:#ea546f;}.cls-25{fill:#332e43;}</style></defs><rect class="cls-1" width="350" height="270"/><path class="cls-2" d="M74,138.15a69.65,69.65,0,0,0-13.54,1.56c-5.32,1.43-3.26,2.7,2.82,2.66,3.62,0,40.1-3.06,39.88-3.6-.06-.15-.12-.3-.17-.46C95.94,137.66,78.69,138,74,138.15Z"/><path class="cls-2" d="M101.57,176.15c-1.44,1.33-.28,2.62,2.78,2.39a10.42,10.42,0,0,0,5.09-2c1.29-.95,5.66-4.57,6.42-6.56l-.55-.34C114.66,169.25,102.43,175.36,101.57,176.15Z"/><path class="cls-2" d="M67.08,101.25c-4,.49-3.24,2.73.61,4.31,2.29.93,26.58,6.63,26.68,5.85l.09-.66c-4.12-2.73-15.12-6.9-18.17-8C73.5,101.83,69.7,100.92,67.08,101.25Z"/><path class="cls-2" d="M66,120.41c-6,.21-5.68,2.76-1.7,4.52a18.67,18.67,0,0,0,3.82,1.16h0c4.45.88,49.72,7.22,49.53,6.68-.06-.16-.11-.31-.16-.46C117.12,131.13,70,120.27,66,120.41Z"/><path class="cls-2" d="M82.87,152.39c-4-.7-13.06-.18-15.53,0-2.26.21-5.14.8-6.67,1.93-2.31,1.72-.76,3.18,2.48,3.09,1.92,0,20.3-3.89,20-4.53C83,152.75,83,152.57,82.87,152.39Z"/><path class="cls-2" d="M70.09,170.18c-7.07,3.93-5.41,5.28,1.74,3.32,4.26-1.16,48.77-17.33,48.84-18.12q0-.33.06-.66c-7.81,1.16-28.22,7.06-33.86,8.79A98.26,98.26,0,0,0,70.09,170.18Z"/><path class="cls-2" d="M98.33,147.71a13.23,13.23,0,0,0-6,2.1c-2.27,1.82-1.16,3.31,1.64,3.16,1.66-.09,18.1-4.37,17.93-5,0-.18-.09-.37-.14-.55C108.41,146.74,100.49,147.44,98.33,147.71Z"/><path class="cls-2" d="M109.78,51c-5-3.58-5.09-.76-1.14,4.61,2.34,3.19,29.1,33.14,29.56,32.52.13-.18.26-.35.4-.52-3.76-6.71-15.2-21.75-18.41-25.83C117.25,58,113.07,53.31,109.78,51Z"/><path class="cls-2" d="M121.88,40c-3.84-4.35-4.65-2.19-2.27,3.22C121,46.45,138.8,78.1,139.4,77.76l.51-.27C138.05,71.1,131,55.83,129,51.66,127.17,47.85,124.4,42.89,121.88,40Z"/><path class="cls-2" d="M123.25,84.62c-3.33-1.39-4.27.35-2.41,3,1.1,1.57,15.65,15.61,16.25,15.15l.5-.38c-1.28-3.51-6.82-10.88-8.42-12.86A17.26,17.26,0,0,0,123.25,84.62Z"/><path class="cls-2" d="M104.24,83A113,113,0,0,0,90.11,71.2c-7-4.58-7.38-2.74-2.16,2.58,3.11,3.16,39.21,34.93,40,34.71l.63-.17C123.72,102.18,108.52,87.11,104.24,83Z"/><path class="cls-2" d="M105.66,115.12c-2.06-.08-2,1-.22,2,1,.6,12.53,5,12.68,4.69l.12-.29c-1.73-1.54-6.75-4.26-8.15-5A12.52,12.52,0,0,0,105.66,115.12Z"/><path class="cls-2" d="M140.66,33.26c-2.16-3.06-3.85-2.22-3.61,1,.14,1.9,5.49,21.61,6.23,21.6h.63c.69-3.55-.31-12.67-.68-15.18A18.5,18.5,0,0,0,140.66,33.26Z"/><path class="cls-2" d="M258.88,191.29c-2.94-2.43-35.93-24.36-36.39-23.71l-.4.54c4.87,5.33,19.17,16.72,23.18,19.79,3.66,2.8,8.82,6.25,12.75,7.75C264,197.94,263.84,195.38,258.88,191.29Z"/><path class="cls-2" d="M259.45,76.51c-3.37,2.3-36,28.78-35.58,29.27l.37.42c6.84-3.65,22.81-14.89,27.16-18,4-2.9,9.1-7,11.93-10.33C267.63,72.81,265.12,72.63,259.45,76.51Z"/><path class="cls-2" d="M75.51,86.93c-6.9-1.93-5.9.9.54,4.94,3.83,2.4,45,23.41,45.24,22.64.07-.21.15-.42.23-.64-6.76-5.43-25.21-16.64-30.34-19.63C86.49,91.5,80.05,88.19,75.51,86.93Z"/><path class="cls-2" d="M280.17,153.18c-3.65-.93-44.07-6.9-44.55-6.17-.14.21-.27.41-.42.61,6.15,2.68,23.84,6.89,28.78,8a66.91,66.91,0,0,0,15.56,1.68C286.71,156.89,286.31,154.76,280.17,153.18Z"/><path class="cls-2" d="M225.72,87.34c-1.13,1.06-10.35,14.32-9.86,14.76l.42.37c2.73-1.41,8-6.67,9.34-8.17A12.61,12.61,0,0,0,228.71,89C229.27,86.14,227.63,85.56,225.72,87.34Z"/><path class="cls-2" d="M124.69,174.79c-7,3.25-22.39,14-26.56,17-3.81,2.77-8.59,6.8-10.91,10.17-3.53,5.13-.5,5.66,5,2,3.28-2.18,33.73-28,33-28.62Z"/><path class="cls-2" d="M141.44,188.44c-2.72,2.36-8.46,9.87-10,12a27.89,27.89,0,0,0-3.85,7c-1.09,3.46.25,3.69,2.31,1.11,1.23-1.53,12.18-19.41,11.83-19.78C141.64,188.65,141.54,188.55,141.44,188.44Z"/><path class="cls-2" d="M245,102.39c-1.72.6-17.52,10.34-17.1,11l.35.57c3.73-.26,11.83-3.44,14-4.39,2-.88,4.48-2.39,5.61-4.18C249.62,102.69,247.9,101.37,245,102.39Z"/><path class="cls-2" d="M100.79,213.48c-3.2,4.35-2.4,7.29,2.45,5.1,3.19-1.44,6.83-5,9.28-8,2.68-3.23,12.08-15.32,14.73-21.12l-.58-.65C126,188,102.69,210.89,100.79,213.48Z"/><path class="cls-2" d="M277.4,104.15c-4.5,1.29-49.21,18-48.8,18.61l.33.54c8.87-1.57,30.29-8,36.15-9.86,5.36-1.7,12.37-4.3,16.49-6.76C287.85,102.94,285,102,277.4,104.15Z"/><path class="cls-2" d="M157.27,220.72c-2.39,2.77-5.84,11.38-6.7,13.8a17.62,17.62,0,0,0-1.08,7.95c.61,3.88,2.67,4.06,4,1.1.78-1.76,5.15-22.12,4.41-22.51Z"/><path class="cls-2" d="M220,229c-1.73-2.24-8.27-10.22-11.66-12.76l-.5.32c-.6.38,11,19.28,12.43,20.91,2.38,2.75,4.4,2.55,3.64-1.07C223.41,234,221.58,231.08,220,229Z"/><path class="cls-2" d="M146.35,205.13l-.49-.21c-2.81,4.49-7.91,17-9.24,20.46a41.54,41.54,0,0,0-2.75,10.77c-.29,4.83,1.57,4.3,3.44-.05C138.42,233.51,146.94,205.37,146.35,205.13Z"/><path class="cls-2" d="M247.05,59.82c-1.12,1-10.21,13.7-9.72,14.14l.41.37c2.69-1.28,7.85-6.26,9.21-7.69a11.78,11.78,0,0,0,3-5.11C250.55,58.76,248.93,58.14,247.05,59.82Z"/><path class="cls-2" d="M210.65,193.06l-.41.29c2.36,6,10.22,20.21,12.46,24.09a61.53,61.53,0,0,0,7.55,10.74c3.84,4,4.3,1.86,1.6-3.18C230.25,222,211.13,192.71,210.65,193.06Z"/><path class="cls-2" d="M284.7,123.08c-1.72-.14-19.18,1.54-19.08,2.13,0,.17.05.33.07.5,3.33,1,11.57,1.38,13.83,1.42A15.51,15.51,0,0,0,286,126C288.56,124.74,287.61,123.3,284.7,123.08Z"/><path class="cls-2" d="M252,126.92c-1.87-.1-20.8,2.11-20.7,2.72,0,.18.05.35.08.52,3.59,1,12.52,1.16,15,1.14a17.8,17.8,0,0,0,7-1.3C256.13,128.56,255.11,127.07,252,126.92Z"/><path class="cls-2" d="M283.25,138c-4.35-.44-49.05-.81-48.94,0l.09.69c8.22,1.86,29.06,3.65,34.79,4,5.25.35,12.25.43,16.71-.49C292.7,140.89,290.58,138.78,283.25,138Z"/><path class="cls-2" d="M251.84,160.57c-1.61-1.1-20.39-8.9-20.78-8.21-.11.19-.22.39-.34.58,2.49,2.91,10.38,7.88,12.61,9.16a16.44,16.44,0,0,0,7.36,2.41C254.32,164.5,254.56,162.41,251.84,160.57Z"/><path class="cls-2" d="M245,169.5c-1.45-1.11-18.28-10-18.62-9.47l-.3.42c2.25,2.7,9.34,7.79,11.34,9.13a18.41,18.41,0,0,0,6.59,2.95C247.21,173,247.4,171.36,245,169.5Z"/><path class="cls-2" d="M271.05,182.92c-1.49-1.13-18.74-10.23-19.09-9.71l-.3.44c2.31,2.76,9.57,8,11.62,9.36a19,19,0,0,0,6.75,3C273.35,186.53,273.55,184.83,271.05,182.92Z"/><path class="cls-2" d="M226.62,183.82c-1.64-1.4-7.73-6.3-10.57-7.63l-.29.33c-.34.39,11.39,12.69,12.69,13.68,2.19,1.66,3.55,1.16,2.32-1.46A17.17,17.17,0,0,0,226.62,183.82Z"/><path class="cls-2" d="M237,192.36l-.41.24c1.78,2.75,8.17,8.83,10,10.47a24.83,24.83,0,0,0,6.36,4.28c3.35,1.38,3.94.17,1.77-2C253.41,204.06,237.47,192.08,237,192.36Z"/><path class="cls-2" d="M226.87,197.26l-.43.26c1.88,3.58,8.66,11.65,10.59,13.84a29.26,29.26,0,0,0,6.74,5.83c3.55,2,4.18.49,1.88-2.39C244.28,213.09,227.39,197,226.87,197.26Z"/><path class="cls-2" d="M237.81,48.48c-2.28,1.39-4.56,4.42-6,6.86-1.59,2.67-7,12.58-8.22,17.15l.56.43c.66.51,15.33-18.79,16.42-20.9C242.37,48.47,241.28,46.37,237.81,48.48Z"/><path class="cls-2" d="M274,87.36c-1.84.71-19,11.72-18.56,12.41.12.19.23.39.34.58,4-.44,12.64-4.16,15-5.27,2.15-1,4.84-2.73,6.13-4.66C278.84,87.47,277.1,86.15,274,87.36Z"/><path class="cls-2" d="M125.22,215.35l-.62-.27c-2.62,1.85-6.64,7.79-7.65,9.47a9.16,9.16,0,0,0-1.52,5.59c.45,2.79,2.58,3,4.1,1C120.43,229.9,126,215.66,125.22,215.35Z"/><path class="cls-2" d="M222.21,43.67c-2,.59-3.85,3.06-5,5.21-1.22,2.36-5.35,11.29-6,16l.57.73c.68.87,12.52-14.76,13.32-16.7C226.51,45.64,225.26,42.77,222.21,43.67Z"/><path class="cls-2" d="M98.12,58.84c-3.34-1.39-4.27.36-2.41,3C96.81,63.43,111.36,77.46,112,77l.51-.38c-1.29-3.5-6.82-10.88-8.42-12.86A17.47,17.47,0,0,0,98.12,58.84Z"/><path class="cls-2" d="M77.89,189.12c-2.43,1.82-1.61,3.68,2.31,3.45a16.81,16.81,0,0,0,7.28-2.63c2-1.29,9.22-6.24,11.12-9l-.52-.5C97.47,179.85,79.33,188,77.89,189.12Z"/><path class="cls-2" d="M278.86,168.38c-1.49-.74-18.55-5.42-18.85-4.84l-.26.49c2.39,2.11,9.67,5.42,11.72,6.27a15.62,15.62,0,0,0,6.63,1.31C281.3,171.31,281.37,169.63,278.86,168.38Z"/><path class="cls-2" d="M210,41.82c-2.15,3.4-21.2,40.17-20.58,40.44l.52.24c4.77-6,14.79-22.38,17.48-26.95,2.45-4.17,5.45-9.92,6.68-14C216,35.29,213.64,36.1,210,41.82Z"/><path class="cls-2" d="M183.51,64.69c-.6,1.41-3.57,17.07-2.94,17.28l.54.18c1.93-2.34,4.55-9.15,5.2-11.06a12.09,12.09,0,0,0,.63-6C186.28,62.23,184.53,62.33,183.51,64.69Z"/><path class="cls-2" d="M172.7,59.74c-.42,1.62-.81,19.09-.06,19.22l.64.11c1.72-2.85,3.38-10.66,3.75-12.83a13,13,0,0,0-.43-6.66C175.33,56.62,173.39,57,172.7,59.74Z"/><path class="cls-2" d="M205.94,70.63c-1.09,1.42-8.68,17.92-7.94,18.25l.61.29c3-2.21,7.92-9.17,9.19-11.13,1.16-1.79,2.37-4.37,2.29-6.45C210,68.41,207.78,68.23,205.94,70.63Z"/><path class="cls-2" d="M191.71,31.34c-.62,1.34-3.7,16.44-3.07,16.66l.53.18c1.94-2.21,4.61-8.75,5.27-10.58a11.36,11.36,0,0,0,.68-5.83C194.48,29,192.73,29.08,191.71,31.34Z"/><path class="cls-2" d="M177.21,25.21c-1.52,2.14-2.37,5.79-2.69,8.58-.35,3.05-1.27,14.21-.45,18.84l.69.17c.82.22,6.31-23.06,6.43-25.41C181.4,23.44,179.52,21.94,177.21,25.21Z"/><path class="cls-2" d="M159.46,26.92c-1.42,1.49-1.72,4.5-1.55,6.9.18,2.62,1.32,12.3,3.26,16.64l.88.35c1,.42,3-18.79,2.72-20.85C164.22,26.51,161.62,24.65,159.46,26.92Z"/><path class="cls-2" d="M161.17,57.82c-.45,1.61-1.27,19.07-.52,19.21l.63.12c1.79-2.8,3.64-10.57,4.06-12.74a12.92,12.92,0,0,0-.26-6.67C163.88,54.76,161.93,55.11,161.17,57.82Z"/><path class="cls-2" d="M147.92,64.21a10.7,10.7,0,0,0,0,4.71c.3,1.54,1.58,7.08,2.71,9.1L151,78c.44-.09-.46-12.46-.77-13.61C149.74,62.41,148.57,62.13,147.92,64.21Z"/><path class="cls-2" d="M195.52,221.5q-.32,0-.63.06c-.37,3.59,1.42,12.59,2,15.06a18.66,18.66,0,0,0,3.22,7.16c2.42,2.87,4,1.9,3.51-1.27C203.31,240.62,196.26,221.43,195.52,221.5Z"/><path class="cls-2" d="M159.89,193l-.55-.13c-1.72,2.48-3.74,9.49-4.22,11.44a12,12,0,0,0-.1,6.07c.9,2.75,2.64,2.51,3.44.07C158.94,209.05,160.54,193.2,159.89,193Z"/><path class="cls-2" d="M170.14,195.22l-.64-.05c-1.47,3-2.44,10.88-2.62,13.08a13,13,0,0,0,1,6.6c1.52,2.83,3.43,2.28,3.88-.49C172,212.72,170.9,195.29,170.14,195.22Z"/><path class="cls-2" d="M170.31,221.44c-.84-.14-4.27,23.48-4.19,25.83.14,3.95,2.14,5.29,4.16,1.85,1.33-2.25,1.85-6,1.93-8.76.09-3.07,0-14.26-1.2-18.8Z"/><path class="cls-2" d="M184.07,222.67l-.91-.27c-1.07-.33-1.39,19-.89,21,.85,3.4,3.6,5,5.56,2.6,1.29-1.6,1.32-4.62.94-7C188.36,236.39,186.38,226.84,184.07,222.67Z"/><path class="cls-2" d="M182.27,196.17l-.64-.07c-1.54,2.94-2.71,10.83-2.94,13a13,13,0,0,0,.84,6.62c1.46,2.87,3.37,2.36,3.89-.4C183.73,213.71,183,196.25,182.27,196.17Z"/><path class="cls-2" d="M194.64,194.7l-.37.1c-.43.12,1.55,12.37,1.95,13.48.69,1.89,1.88,2.08,2.34-.05a10.69,10.69,0,0,0-.42-4.69C197.71,202,195.94,196.62,194.64,194.7Z"/><path class="cls-3" d="M233,102.45c-2.14-4.85-8.84-9.35-12.94-13.47a45,45,0,0,1-7.26-9c-1-1.74-.89-4.88-3-5.92-2.31-1.16-7.23.07-9.66.45-5.23.83-10.5,1.6-15.79,2.24-18.29,2.23-37,2.62-55.29,4.59-2.17,7.14-12,10.83-18.21,16.16l-.35.3c-6.41,5.66-4.39,14.53-4.68,21.41-.69,16.24-1.6,33.2,3,49.23,2.38,8.28,9.94,25.38,30.16,27.35,28.86,2.81,39.8,1.4,58.81.31,26.7-1.52,36.75-18.34,37.78-36.1.73-12.3-.37-24.72-1-37C234.35,116.54,235.76,108.64,233,102.45Z"/><path class="cls-4" d="M241.07,110.09c-.12-2.88-.32-8.25-8.8-14.85C223,88.06,217.69,81.52,218.41,80l4.42-3.65-6.89-.66c-11.87-1.12-23.25-.44-34.26.22-5.15.31-10.47.63-15.82.77-6.49.16-13.22-.19-19.73-.53-7.15-.37-14.54-.75-21.59-.45l.46,5-.26,0c1.07,4-3.48,7.39-8.75,11.3-1.39,1-2.83,2.09-4.21,3.2-3.35,2.71-9.68,9.33-9.68,15,0,2-.31,5.35-.69,9.56-1.29,13.95-3.45,37.3,2.28,53.81a36.88,36.88,0,0,0,11.64,16.74c6.62,5.36,19.78,11.35,29.82,12.56,4.71.58,9.49,1.1,14.22,1.26,3.86.14,7.87.26,11.95.32,15.48.24,30.4-1.6,43.9-6,6-1.93,10.88-5.82,15.19-9.27,8.09-6.46,11.31-15.07,11.91-23.39,1-14.43-.07-49.31-1.16-54.63A7,7,0,0,1,241.07,110.09Zm-6.54,55.56c-.72,10-6.28,26.88-35.45,28.27-2.67.12-5.18.26-7.6.38a331.19,331.19,0,0,1-52.42-.61c-19-1.51-25.74-15.37-27.78-21.25-5.46-15.75-3.35-38.61-2.09-52.27.4-4.3.71-7.69.71-9.89,0-3.64,4.59-9,7.85-11.62,1.27-1,2.65-2,4-3,5.77-4.27,11.72-8.67,10.91-14.71,4.17.07,8.45.3,12.9.53,6.73.35,13.68.71,20.61.53,5.55-.14,11-.46,16.22-.78,9.66-.58,18.86-1.13,28.37-.56.53,5.17,8.28,12.35,15.65,18.09,6.64,5.16,6.78,9,6.88,11.5a11.35,11.35,0,0,0,.16,1.79C234.5,117.19,235.55,151.42,234.53,165.65Z"/><path class="cls-5" d="M213.19,79.25l0-.18A.58.58,0,0,0,213.19,79.25Z"/><path class="cls-6" d="M218.44,80.86A7.93,7.93,0,0,0,219.62,83q-.26-.42-.48-.84C218.86,81.64,218.64,81.2,218.44,80.86Z"/><path class="cls-6" d="M230.41,189.3a88.81,88.81,0,0,1-7.16,5.33,55.62,55.62,0,0,0,4.91-3.06,31.49,31.49,0,0,0,12.61-17.36A30.69,30.69,0,0,1,230.41,189.3Z"/><path class="cls-6" d="M240.35,104.9c-2-6.22-9.27-10.63-15.06-15.61,2,1.86,4.31,3.88,7,5.95,8.48,6.6,8.68,12,8.8,14.85a7,7,0,0,0,.09,1.19A140.33,140.33,0,0,1,242.23,126c-.13-4.52-.35-9.07-.72-13.72A34.22,34.22,0,0,0,240.35,104.9Z"/><path class="cls-6" d="M226.29,184.23a26.92,26.92,0,0,0,7.4-13.16A34.76,34.76,0,0,1,226.29,184.23Z"/><path class="cls-7" d="M233.27,110.23c-.1-2.53-.24-6.34-6.88-11.5C219,93,211.27,85.81,210.74,80.64c-2.12-.13-4.22-.2-6.31-.23a18.4,18.4,0,0,1-2.26.29c-3.89.22-11.26-.58-13.41,2.34,16.69,5.09,23.49,13.14,25.48,24.82,1.63,9.55.43,49.62-.22,60.09-.37,6-.91,12.61-3.69,18.39-.53,1.11-1.08,2.45-1.68,3.89,7.73-2.08,14.49-5.39,19-10.7,1.85-2.16,2.27-4.63,4.16-6.72,0,.18,0,.37-.07.55-.79,5.76-5.71,11.51-11.94,15q-2.91,1.65-5.85,3a31.67,31.67,0,0,0,12.31-7.14,34.76,34.76,0,0,0,7.4-13.16,33.08,33.08,0,0,0,.84-5.42c1-14.23,0-48.46-1.1-53.63A11.35,11.35,0,0,1,233.27,110.23Z"/><path class="cls-5" d="M241.16,111.28a7,7,0,0,1-.09-1.19c-.12-2.88-.32-8.25-8.8-14.85-2.67-2.07-5-4.09-7-5.95A27.39,27.39,0,0,1,219.62,83a7.93,7.93,0,0,1-1.18-2.16c-.46-.77-.84-1.08-1.64-1.08a17,17,0,0,0-3.19.58c0-.43-.29-.76-.42-1.11l.75,3c-.59-2.1-2-2.71-3.84-2.71a36,36,0,0,0-5.67.88c2.09,0,4.19.1,6.31.23.53,5.17,8.28,12.35,15.65,18.09,6.64,5.16,6.78,9,6.88,11.5a11.35,11.35,0,0,0,.16,1.79c1.07,5.17,2.12,39.4,1.1,53.63a33.08,33.08,0,0,1-.84,5.42,26.92,26.92,0,0,1-7.4,13.16A31.67,31.67,0,0,1,214,191.37a70.51,70.51,0,0,1-7,2.72c-1.42,3.08-3.13,6.09-5.41,8,10.19-2.59,16-4.3,21.67-7.42a88.81,88.81,0,0,0,7.16-5.33,30.69,30.69,0,0,0,10.36-15.09l0-.05a71.48,71.48,0,0,0,1.57-16.06c0-11,.19-21.44-.13-32.1A140.33,140.33,0,0,0,241.16,111.28Z"/><path class="cls-8" d="M171.1,193.91c-12.5.22-36.26-.59-47.86-8.95-2.88-2.08-7.65-5.39-9.41-8,4.26,6.37,9,12.83,18.34,16.1,11.6,4.05,26.47,5.44,39.15,5.53,18.14.13,33.6-1.72,48.51-10.17,6.23-3.53,11.15-9.28,11.94-15,0-.18,0-.37.07-.55-1.89,2.09-2.31,4.56-4.16,6.72C216.23,192.93,190.62,193.57,171.1,193.91Z"/><path class="cls-9" d="M219.06,80.46c-3.69-2.23-9.27-1-13.24-.74a260.46,260.46,0,0,1-30.48,0c-10.07-.56-20.73-.89-30.67-2.58-5.12-.88-10.37-1.12-15.29.71-3.13,1.16-3.65,4.09-5.94,6.31-2.85,2.78-14.52,8-14.52,8s2.71,7.8,8.93,12.57c2.67,2.05,5.94,5.08,9.07,2.62s3.62-7.09,7.16-9.18c1.83-1.08,3-1.57,3.64.69a14.13,14.13,0,0,1,.17,5.72c-.34,2.32-1.53,4.87.51,6.8,2.84,2.71,8.21,2.61,11.89,2.85a10.12,10.12,0,0,0,6.5-1.33c2.52-1.59,4.31-4.93,8-4.46,2,.26,3.6,1.68,4.9,3.42s.36,3,3.18,3.13c4.28.25,9.91.92,14.06-.39,3.07-1,3.37-6,6.22-7.19,3.28-1.35,5.93,3.64,8.7,5.07,2,1.06,5.56-.44,9.39-1.53A8.52,8.52,0,0,0,216,108c2-2.43,1.2-5,4.29-6.11,3.61-1.26,6.47,1.6,9,1.54,4.12-.1,7.77-10.06,7.77-10.06s-9.85-4.48-13.48-7.18C220.82,84.11,222,82.27,219.06,80.46Z"/><path class="cls-3" d="M271.67,87a.67.67,0,0,0-.72.6c-.31,3.91-6.8,4.56-9.05,4.49-3.38-.12-6-.6-8.38-2.62-1.22-1-2.38-2.12-3.51-3.18a57.25,57.25,0,0,0-5.13-4.47c-6.88-5.15-12.87-6.53-18.3-4.22-3.44,1.46-5.27,3.77-5,6.32a.66.66,0,1,0,1.32-.12c-.26-2.76,2.87-4.4,4.22-5,5-2.11,10.52-.78,17,4.06a57.22,57.22,0,0,1,5,4.37c1.14,1.07,2.33,2.19,3.57,3.23,2.71,2.27,5.52,2.8,9.19,2.93h.53c4,0,9.54-1.47,9.88-5.71A.66.66,0,0,0,271.67,87Z"/><path class="cls-3" d="M272.74,61.61a.67.67,0,0,0-.73.58c-.44,3.76-2.33,8.82-5.57,11.66-3.05,2.67-7.54,5.2-11,4.29a28.75,28.75,0,0,1-6.37-2.86l-1.47-.79c-4-2.11-7.73-4.11-12.62-3.64a13.7,13.7,0,0,0-9.08,4.47c-2.64,3-5.13,6.18-5.44,9.46a.66.66,0,0,0,.6.72h.06a.66.66,0,0,0,.65-.6c.32-3.29,3.56-7,5.12-8.7a12.15,12.15,0,0,1,8.22-4c4.5-.43,8.08,1.47,11.87,3.49l1.46.78a29.57,29.57,0,0,0,6.65,3c5,1.33,10.6-3.16,12.2-4.57,3.74-3.28,5.58-8.78,6-12.5A.65.65,0,0,0,272.74,61.61Z"/><path class="cls-10" d="M222.92,66.51c.06-1.8.08-4,0-5.75-12.44,9.35-33.27,9.59-50.08,9.25-24.68-.5-45.62-3-49.6-12.15-2.92,1.29-2.65,13-2.86,16.63-.32,6,1.34,8.15,8.74,10.55,11.25,3.65,25.11,6.86,37.8,7.44a120.15,120.15,0,0,0,39.92-5c4.06-1.17,12.23-2.39,14.73-5.58C223.89,78.92,222.8,70.28,222.92,66.51Z"/><path class="cls-11" d="M222.92,66.51c.06-1.8.08-4,0-5.75-12.44,9.35-33.27,9.59-50.08,9.25-24.68-.5-45.62-3-49.6-12.15-2.92,1.29-2.65,13-2.86,16.63-.32,6,1.34,8.15,8.74,10.55,11.25,3.65,25.11,6.86,37.8,7.44a120.15,120.15,0,0,0,39.92-5c4.06-1.17,12.23-2.39,14.73-5.58C223.89,78.92,222.8,70.28,222.92,66.51Z"/><path class="cls-12" d="M137.05,95.67c-1.55.59-9.85,8-11.84,11.27a2.08,2.08,0,0,0-.46,1.34c0,.1,3.83-1.46,4.22-1.55a7.36,7.36,0,0,1,5.46.58c1.64,1,2.47,2.92,4,4a3.19,3.19,0,0,0,.84-1.31C139.91,108.16,138.47,95.13,137.05,95.67Z"/><path class="cls-12" d="M220.59,96.28a15.74,15.74,0,0,0-4.78-2.16c-1.47-.3-1.51-.06-1.63,1.13a29.38,29.38,0,0,0,.3,5.93c.15,1.45,0,3.87.94,5.39a2.65,2.65,0,0,0,1,1c1.33-1.12,1.92-2.84,3.41-3.88a8.25,8.25,0,0,1,5.32-1.1c.41,0,4.37.92,4.37.84a1.73,1.73,0,0,0-.62-1.09C226.53,99.82,223.58,98.12,220.59,96.28Z"/><path class="cls-12" d="M165,98.84c-4.88,0-10.57,15-10.1,14.94,1.27-.18,4.43-3.16,8.4-3,5.18.15,6.72,4.53,7.9,4.12.34-.12.47-.55.47-1.12C171.7,112.32,168.51,98.8,165,98.84Z"/><path class="cls-12" d="M192.12,98.84c-1.82.29-5.3,10.75-5.3,13.9,0,.6,0,1.21.06,1.84a16.29,16.29,0,0,1,6.08-3,9.53,9.53,0,0,1,7.47.54c2.21,1.19,2.33-.46,1.75-2.17C201.23,107.13,194.5,98.47,192.12,98.84Z"/><path class="cls-3" d="M224.93,80a.66.66,0,0,0-.92.18c-1.13,1.72-17.21,12.93-54.61,12.24-25.62-.47-36.57-4.12-45.93-9.85a.66.66,0,0,0-.69,1.13c9.55,5.84,20.68,9.57,46.59,10l3.23,0c35.7,0,51.36-11.11,52.52-12.86A.66.66,0,0,0,224.93,80Z"/><path class="cls-3" d="M222.82,82.35a.65.65,0,0,0-.91.18c-1.14,1.72-17.22,12.93-54.62,12.24-25.62-.47-36.56-4.12-45.93-9.85a.66.66,0,1,0-.69,1.12c9.55,5.85,20.68,9.57,46.59,10l3.23,0C206.2,96.12,221.86,85,223,83.26A.65.65,0,0,0,222.82,82.35Z"/><path class="cls-3" d="M229,85.2c-.33-.11-.63-.2-.86-.29-2-.74-5-1.28-6.83-.37a.66.66,0,0,0-.31.88.67.67,0,0,0,.89.31c1.39-.68,4-.26,5.79.42l.91.31c1.05.34,2.81.92,3.27,1.51a1.52,1.52,0,0,1,.17,1.3,2.13,2.13,0,0,1-1.1,1.42c-.87.36-2.73-.11-3.84-.39l-.57-.13c-2.45-.58-5.43-1.69-7.06-3.81a.65.65,0,0,0,.44-.56c.05-.59.8-1.2,1.52-1.78l1-.86c2.72-2.2,5.53-4.48,6.56-8.11a7,7,0,0,0-.39-5.44,4,4,0,0,0-2.83-1.8c-2.66-.45-5.3,2.19-6.45,3.83a15.94,15.94,0,0,0-2,13.55c1.32,3.76,5.56,5.48,8.89,6.26l.54.14a14.87,14.87,0,0,0,3.31.55,3.5,3.5,0,0,0,1.36-.23,3.41,3.41,0,0,0,1.88-2.3,2.78,2.78,0,0,0-.41-2.45C232.23,86.32,230.73,85.78,229,85.2Zm-10.28-.1c0-.12-.1-.23-.14-.35a14.53,14.53,0,0,1,1.85-12.35c1-1.39,3-3.32,4.76-3.32a2.56,2.56,0,0,1,.39,0,2.67,2.67,0,0,1,1.93,1.21,5.83,5.83,0,0,1,.23,4.37c-.91,3.23-3.55,5.37-6.11,7.45l-1.05.85A5.47,5.47,0,0,0,218.7,85.1Z"/><path class="cls-12" d="M174.1,44.9c-41.51,0-53.62,10-53.62,16.4,0,7.29,11.51,12.16,48.86,13.49,19.17.68,52.54-4.33,53.8-12.46C224.88,51.09,199.3,44.9,174.1,44.9Z"/><path class="cls-13" d="M170,72.42c-44.56.13-47.78-7.85-49.44-9.42.26.48-1.77,12.67,49.44,12.64,49.29,0,51.88-11.7,52.64-13.16C222,62.84,218.37,72.29,170,72.42Z"/><path class="cls-13" d="M120.59,63c.08.07-.17-.3,0,0Z"/><path class="cls-14" d="M173.14,48.75c-33.52,0-43.3,7.1-43.3,11.61,0,5.17,9.3,8.62,39.45,9.56,15.49.48,42.43-3.07,43.45-8.83C214.14,53.13,193.49,48.75,173.14,48.75Z"/><path class="cls-15" d="M187.44,78.88c-13.82.83-24.74,1.54-38.47-.5-5.12-.76-13.08-3.22-18.27-3.7-2.29-.21-4.2.16-5.25,1-1.48,1.18-1.27,3.27,1.93,6,3.69,3.11,26.44,7.11,34.16,7.47,4.39.21,47.6.38,42.91-10C202.51,74.88,190.87,78.67,187.44,78.88Z"/><path class="cls-16" d="M151.6,79.85c-4.32-1.78-19-4.78-19.68-.46-.52,3.52,5.72,6,12.31,6.86,2.61.34,12.49,2.64,12-2.52C156,81.58,153.41,80.6,151.6,79.85Z"/><path class="cls-17" d="M160,133.59a3.62,3.62,0,0,0,0,.95c.13,1.46.94,2.78,1.47,2.39s.32-2.23-.1-3.3C160.85,132.3,160.22,132.61,160,133.59Z"/><path class="cls-17" d="M156.78,145.58a3.31,3.31,0,0,0-.33.88c-.35,1.41,0,3,.62,2.8s1-2,1-3.14C158,144.67,157.27,144.72,156.78,145.58Z"/><path class="cls-17" d="M164.85,149.66c-1.31-.24-1.42.51-.75,1.21a2.94,2.94,0,0,0,.71.54c1.2.67,2.66.64,2.64-.06S165.9,149.85,164.85,149.66Z"/><path class="cls-17" d="M153.74,136.35a3.59,3.59,0,0,0-.34.88c-.34,1.42,0,3,.62,2.8s1-2,1-3.13C154.91,135.45,154.22,135.5,153.74,136.35Z"/><path class="cls-17" d="M127.16,145.15a4.27,4.27,0,0,0,0,1.15c.15,1.77,1.14,3.37,1.79,2.9s.38-2.71-.13-4C128.15,143.57,127.38,144,127.16,145.15Z"/><path class="cls-17" d="M121.18,162.29a4,4,0,0,0-.41,1.06c-.42,1.72,0,3.6.75,3.4s1.23-2.39,1.16-3.8C122.6,161.19,121.76,161.25,121.18,162.29Z"/><path class="cls-17" d="M124.55,132a3.11,3.11,0,0,0-.75.48c-1.06.91-1.64,2.36-1,2.65s1.89-.92,2.49-1.88C126,132.06,125.41,131.65,124.55,132Z"/><path class="cls-17" d="M170.7,131.18a3.45,3.45,0,0,0-.33.88c-.35,1.42,0,3,.62,2.8s1-2,1-3.14C171.88,130.27,171.19,130.32,170.7,131.18Z"/><path class="cls-17" d="M150.36,159a3.73,3.73,0,0,0,0,1c.12,1.46.94,2.77,1.47,2.39s.32-2.24-.1-3.31C151.18,157.68,150.54,158,150.36,159Z"/><path class="cls-17" d="M178.58,137.36a2.81,2.81,0,0,0-.8.37c-1.16.74-1.91,2.1-1.36,2.46s2-.63,2.7-1.49C180,137.62,179.48,137.12,178.58,137.36Z"/><path class="cls-17" d="M158.77,152.91a4.27,4.27,0,0,0,0,1.15c.15,1.77,1.14,3.37,1.79,2.9s.38-2.71-.13-4C159.76,151.33,159,151.71,158.77,152.91Z"/><path class="cls-17" d="M136.73,136a4.05,4.05,0,0,0-.4,1.06c-.42,1.72,0,3.59.75,3.4s1.22-2.4,1.16-3.8C138.16,134.93,137.32,135,136.73,136Z"/><path class="cls-17" d="M175,162.54a3.6,3.6,0,0,0,0,1c.13,1.46.94,2.78,1.47,2.39s.32-2.23-.1-3.3C175.83,161.24,175.2,161.55,175,162.54Z"/><path class="cls-17" d="M115.23,133.33a3.31,3.31,0,0,0-.33.88c-.35,1.41,0,3,.62,2.8s1-2,1-3.14C116.41,132.42,115.72,132.47,115.23,133.33Z"/><path class="cls-17" d="M176.91,125.06c-1.32-.24-1.42.51-.75,1.21a2.94,2.94,0,0,0,.71.54c1.2.67,2.65.64,2.64-.06S178,125.25,176.91,125.06Z"/><path class="cls-17" d="M168.28,169.19a3.37,3.37,0,0,0-.33.87c-.35,1.42,0,3,.62,2.8s1-2,1-3.13C169.45,168.28,168.76,168.33,168.28,169.19Z"/><path class="cls-17" d="M139,162.61a4.69,4.69,0,0,0,0,1.15c.16,1.77,1.14,3.37,1.79,2.9s.39-2.7-.12-4C139.93,161,139.16,161.42,139,162.61Z"/><path class="cls-17" d="M115.37,144.5a4.43,4.43,0,0,0-.41,1.06c-.42,1.72,0,3.59.76,3.4s1.22-2.4,1.16-3.81C116.79,143.39,116,143.46,115.37,144.5Z"/><path class="cls-17" d="M135.49,153.36a3.11,3.11,0,0,0-.75.48c-1.06.9-1.64,2.36-1.05,2.64s1.89-.91,2.49-1.87C136.93,153.41,136.35,153,135.49,153.36Z"/><path class="cls-17" d="M181.08,149.19a4,4,0,0,0-.34.88c-.34,1.42,0,3,.63,2.8s1-2,.95-3.13C182.25,148.28,181.56,148.34,181.08,149.19Z"/><path class="cls-17" d="M113.73,120.94a3.62,3.62,0,0,0,0,1c.13,1.46.94,2.78,1.48,2.39s.31-2.23-.11-3.3C114.54,119.64,113.91,120,113.73,120.94Z"/><path class="cls-17" d="M139,142.69a2.86,2.86,0,0,0-.81.37c-1.16.74-1.91,2.1-1.36,2.46s2-.63,2.7-1.49C140.4,143,139.87,142.45,139,142.69Z"/><path class="cls-17" d="M144.74,149.19a4.27,4.27,0,0,0,0,1.15c.15,1.77,1.14,3.37,1.78,2.9s.39-2.71-.12-4C145.73,147.61,145,148,144.74,149.19Z"/><path class="cls-17" d="M160.71,164.05a4.79,4.79,0,0,0-.41,1.06c-.41,1.72,0,3.6.76,3.4s1.22-2.39,1.16-3.8C162.13,163,161.29,163,160.71,164.05Z"/><path class="cls-17" d="M166.93,185.42a3.62,3.62,0,0,0,0,1c.13,1.46.94,2.78,1.48,2.39s.32-2.23-.1-3.3C167.74,184.12,167.11,184.43,166.93,185.42Z"/><path class="cls-17" d="M209.72,121.12c-1.32-.24-1.42.51-.76,1.21a3.22,3.22,0,0,0,.72.54c1.19.68,2.65.64,2.64-.06S210.77,121.32,209.72,121.12Z"/><path class="cls-17" d="M131.63,173.3a3,3,0,0,0-.34.88c-.35,1.41,0,3,.62,2.8s1-2,1-3.14C132.8,172.39,132.11,172.44,131.63,173.3Z"/><path class="cls-17" d="M199.48,152.66a4.32,4.32,0,0,0,0,1.16c.16,1.77,1.14,3.37,1.79,2.89s.38-2.7-.12-4C200.46,151.09,199.69,151.47,199.48,152.66Z"/><path class="cls-17" d="M193.71,172.39a4.27,4.27,0,0,0-.41,1.07c-.42,1.72,0,3.59.76,3.39s1.22-2.39,1.15-3.8C195.13,171.29,194.29,171.36,193.71,172.39Z"/><path class="cls-17" d="M194.58,133.66a2.77,2.77,0,0,0-.75.48c-1.06.9-1.64,2.36-1.05,2.64s1.89-.91,2.49-1.87C196,133.7,195.44,133.29,194.58,133.66Z"/><path class="cls-17" d="M176.66,183a3.3,3.3,0,0,0-.34.88c-.34,1.41,0,3,.62,2.8s1-2,1-3.14C177.83,182.1,177.14,182.15,176.66,183Z"/><path class="cls-17" d="M126.76,124.24a3.64,3.64,0,0,0,0,1c.12,1.46.94,2.78,1.47,2.39s.32-2.24-.1-3.31C127.58,122.94,126.94,123.25,126.76,124.24Z"/><path class="cls-17" d="M144.8,176.56a2.81,2.81,0,0,0-.8.37c-1.16.74-1.92,2.1-1.37,2.46s2-.63,2.71-1.49C146.22,176.82,145.7,176.32,144.8,176.56Z"/><path class="cls-17" d="M200.78,123.46a4.27,4.27,0,0,0,0,1.15c.15,1.78,1.13,3.38,1.78,2.9s.39-2.7-.12-4C201.77,121.89,201,122.27,200.78,123.46Z"/><path class="cls-17" d="M200.33,164.89a4.28,4.28,0,0,0-.4,1.07c-.42,1.72,0,3.59.75,3.39s1.22-2.39,1.16-3.8C201.76,163.79,200.92,163.85,200.33,164.89Z"/><path class="cls-17" d="M151.42,127.8a3.6,3.6,0,0,0,0,1c.13,1.46.94,2.78,1.48,2.39s.31-2.23-.1-3.3C152.23,126.5,151.6,126.81,151.42,127.8Z"/><path class="cls-17" d="M187.77,143.43a3.44,3.44,0,0,0-.34.88c-.34,1.42,0,3,.63,2.8s1-2,.95-3.14C188.94,142.52,188.25,142.57,187.77,143.43Z"/><path class="cls-17" d="M182.86,176.89c-1.31-.24-1.42.51-.75,1.2a2.73,2.73,0,0,0,.71.55c1.2.67,2.65.64,2.64-.06S183.91,177.08,182.86,176.89Z"/><path class="cls-17" d="M143.21,127.17a3.6,3.6,0,0,0-.33.88c-.35,1.42,0,3,.62,2.8s1-2,.95-3.14C144.39,126.26,143.69,126.32,143.21,127.17Z"/><path class="cls-17" d="M121.55,118.54a4.27,4.27,0,0,0,0,1.15c.15,1.77,1.13,3.37,1.78,2.9s.39-2.71-.12-4C122.54,117,121.77,117.34,121.55,118.54Z"/><path class="cls-17" d="M186.1,158.85a4.05,4.05,0,0,0-.4,1.06c-.42,1.72,0,3.59.75,3.39s1.22-2.39,1.16-3.8C187.53,157.74,186.69,157.81,186.1,158.85Z"/><path class="cls-17" d="M205.31,138.53a3,3,0,0,0-.76.48c-1.06.9-1.64,2.36-1.05,2.64s1.9-.91,2.5-1.87C206.74,138.58,206.16,138.16,205.31,138.53Z"/><path class="cls-17" d="M152.88,175.32a3.59,3.59,0,0,0-.34.88c-.34,1.42,0,3,.62,2.8s1-2,1-3.13C154.05,174.42,153.36,174.47,152.88,175.32Z"/><path class="cls-17" d="M184.62,134.85a3.64,3.64,0,0,0,0,1c.13,1.46.94,2.78,1.48,2.4s.32-2.24-.1-3.31C185.43,133.56,184.8,133.87,184.62,134.85Z"/><path class="cls-17" d="M155.69,181.9a4.27,4.27,0,0,0,0,1.15c.15,1.77,1.14,3.37,1.78,2.9s.39-2.71-.12-4C156.68,180.33,155.91,180.7,155.69,181.9Z"/><path class="cls-17" d="M134.61,124.11a4.05,4.05,0,0,0-.4,1.06c-.42,1.72,0,3.59.75,3.4s1.22-2.4,1.16-3.81C136,123,135.2,123.07,134.61,124.11Z"/><path class="cls-17" d="M228.41,150.56a4.29,4.29,0,0,0,0,1.15c.16,1.77,1.14,3.37,1.79,2.9s.38-2.7-.12-4C229.4,149,228.63,149.37,228.41,150.56Z"/><path class="cls-17" d="M222.42,167.71a4.19,4.19,0,0,0-.4,1.06c-.42,1.72,0,3.59.75,3.4s1.23-2.4,1.16-3.81C223.85,166.61,223,166.67,222.42,167.71Z"/><path class="cls-17" d="M225.8,137.43a3.11,3.11,0,0,0-.75.48c-1.06.9-1.64,2.36-1.05,2.64s1.89-.91,2.49-1.87C227.24,137.48,226.66,137.06,225.8,137.43Z"/><path class="cls-17" d="M216.49,138.74a3.59,3.59,0,0,0-.34.88c-.35,1.42,0,3,.62,2.8s1-2,1-3.13C217.66,137.83,217,137.89,216.49,138.74Z"/><path class="cls-17" d="M209.42,171.33a4.27,4.27,0,0,0,0,1.15c.15,1.77,1.13,3.37,1.78,2.9s.39-2.71-.12-4C210.4,169.75,209.64,170.13,209.42,171.33Z"/><path class="cls-17" d="M216.62,149.91a4.28,4.28,0,0,0-.4,1.07c-.43,1.72,0,3.59.75,3.39s1.22-2.39,1.16-3.8C218,148.81,217.21,148.87,216.62,149.91Z"/><path class="cls-17" d="M215,126.36a3.6,3.6,0,0,0,0,1c.13,1.46.94,2.78,1.48,2.39s.31-2.23-.11-3.3C215.79,125.06,215.16,125.37,215,126.36Z"/><path class="cls-17" d="M193.49,123.65a4.43,4.43,0,0,0-.41,1.06c-.42,1.72,0,3.59.76,3.39s1.22-2.39,1.15-3.8C194.91,122.54,194.08,122.61,193.49,123.65Z"/><path class="cls-17" d="M228,129.65a3.67,3.67,0,0,0,0,.95c.13,1.46.94,2.78,1.47,2.4s.32-2.24-.1-3.31C228.83,128.36,228.19,128.67,228,129.65Z"/><path class="cls-17" d="M208.89,154.65a4.34,4.34,0,0,0-.41,1.06c-.42,1.72,0,3.6.76,3.4s1.22-2.39,1.15-3.8C210.31,153.55,209.47,153.61,208.89,154.65Z"/><path class="cls-17" d="M222.8,124a4.27,4.27,0,0,0,0,1.15c.15,1.78,1.14,3.38,1.78,2.9s.39-2.7-.12-4C223.79,122.38,223,122.76,222.8,124Z"/><path class="cls-17" d="M199.33,182.68a4.69,4.69,0,0,0-.41,1.07c-.42,1.71,0,3.59.76,3.39s1.22-2.39,1.15-3.8C200.75,181.58,199.91,181.64,199.33,182.68Z"/><path class="cls-18" d="M168.93,120.22c-6.52-3.55-15.22-5.49-23.73-5.49a48.44,48.44,0,0,0-13.69,1.87,20.41,20.41,0,0,0-7.87,4.13c.06.86,0,1.62-.35,1.86a.43.43,0,0,1-.24.08c-.25,0-.52-.22-.76-.58-4.83,5.59-4.05,13.49-4,20.36.08,8,.57,16,1.06,24,.31,5-.43,10.95,3.32,15.45,4.59,5.51,15.95,7,25.84,7,3.63,0,7.07-.2,9.9-.47A67.82,67.82,0,0,0,167,186.9c0-.17-.06-.35-.08-.53a3.62,3.62,0,0,1,0-1c.09-.52.32-.85.58-.85s.51.26.76.89a5.81,5.81,0,0,1,.29,1.06l.73-.19c5-1.31,4.61-5.58,5.31-8.62a64.5,64.5,0,0,0,1.4-11.84,3.51,3.51,0,0,1-1-2.38,3.6,3.6,0,0,1,0-1c.09-.52.31-.86.58-.86s.33.12.5.38c0-.95,0-1.89,0-2.81,0-5,.36-10,.36-15,0-1.25.06-2.6.13-4a.36.36,0,0,1-.18-.07c-.34-.22-.19-.81.24-1.41C176.93,132,176.7,124.44,168.93,120.22ZM157.43,186a.46.46,0,0,1-.24.08c-.63,0-1.41-1.42-1.54-3a4.27,4.27,0,0,1,0-1.15c.12-.64.39-1,.71-1s.61.32.91,1.08C157.82,183.24,158,185.51,157.43,186Zm.25-37.55c.11,8.38-.09,22.43-.61,26.22-.64,4.74-2.87,8.92-9.57,10.4a30.75,30.75,0,0,1-6.43.68,25.66,25.66,0,0,1-9.48-1.68c-1.85-.75-4.38-1.47-5.61-2.82-1-1-1.43-2.64-2.21-3.8-2.34-3.46-2.19-7-2.78-10.77l0-.18a4.32,4.32,0,0,1-.28-2.64c-.28-4.16.1-8.38.06-12.57-.06-5.7.93-11.13,1.3-16.77.32-4.77.79-10.1,5.78-13.57a18.86,18.86,0,0,1,10.8-3.31,21.41,21.41,0,0,1,8.92,2c11.17,5.13,9.44,15.3,10,23.73,0,.46.05,1,.07,1.69.22.09.39.44.43,1.12A6.62,6.62,0,0,1,157.68,148.4ZM160,133.59c.09-.52.31-.85.58-.85s.51.26.75.89c.42,1.07.6,2.94.1,3.3a.31.31,0,0,1-.2.07c-.52,0-1.16-1.17-1.27-2.46A3.62,3.62,0,0,1,160,133.59Zm-1.31,20.47a4.27,4.27,0,0,1,0-1.15c.12-.64.39-1,.71-1s.62.32.91,1.08c.51,1.3.73,3.57.13,4a.46.46,0,0,1-.25.08C159.64,157,158.86,155.61,158.73,154.06Zm2.33,14.45H161c-.69,0-1-1.77-.65-3.41a4.79,4.79,0,0,1,.41-1.06c.26-.46.57-.73.84-.73s.62.41.67,1.39C162.28,166.12,161.76,168.33,161.06,168.51Zm5.47-16.61a3.65,3.65,0,0,1-1.72-.49,2.94,2.94,0,0,1-.71-.54c-.58-.61-.58-1.26.3-1.26a2.68,2.68,0,0,1,.45,0c1.05.19,2.59,1,2.6,1.69C167.46,151.71,167.07,151.9,166.53,151.9Zm2,21-.09,0c-.57,0-.86-1.47-.53-2.82a3.37,3.37,0,0,1,.33-.87c.21-.39.47-.61.7-.61s.5.34.54,1.15C169.58,170.89,169.14,172.71,168.57,172.86Zm2.42-38h-.09c-.57,0-.86-1.46-.53-2.81a3.45,3.45,0,0,1,.33-.88c.22-.38.48-.6.7-.6s.51.34.55,1.14C172,132.88,171.57,134.71,171,134.86Z"/><path class="cls-19" d="M160.62,132.74c-.27,0-.49.33-.58.85a3.62,3.62,0,0,0,0,.95c.11,1.29.75,2.46,1.27,2.46a.31.31,0,0,0,.2-.07c.5-.36.32-2.23-.1-3.3C161.13,133,160.86,132.74,160.62,132.74Z"/><path class="cls-19" d="M157.6,145c0,1,.06,2.11.08,3.4a6.62,6.62,0,0,0,.35-2.28C158,145.44,157.82,145.09,157.6,145Z"/><path class="cls-19" d="M164.85,149.66a2.68,2.68,0,0,0-.45,0c-.88,0-.88.65-.3,1.26a2.94,2.94,0,0,0,.71.54,3.65,3.65,0,0,0,1.72.49c.54,0,.93-.19.92-.55C167.44,150.7,165.9,149.85,164.85,149.66Z"/><path class="cls-19" d="M121,166.45c-.13-.88-.22-1.76-.28-2.64A4.32,4.32,0,0,0,121,166.45Z"/><path class="cls-19" d="M171.4,130.58c-.22,0-.48.22-.7.6a3.45,3.45,0,0,0-.33.88c-.33,1.35,0,2.81.53,2.81H171c.58-.15,1-2,1-3.14C171.91,130.92,171.68,130.58,171.4,130.58Z"/><path class="cls-19" d="M176.42,140.19a.36.36,0,0,0,.18.07l.06-1.48C176.23,139.38,176.08,140,176.42,140.19Z"/><path class="cls-19" d="M159.48,151.87c-.32,0-.59.4-.71,1a4.27,4.27,0,0,0,0,1.15c.13,1.55.91,3,1.54,3a.46.46,0,0,0,.25-.08c.6-.44.38-2.71-.13-4C160.1,152.19,159.77,151.87,159.48,151.87Z"/><path class="cls-19" d="M175.6,161.68c-.27,0-.49.34-.58.86a3.6,3.6,0,0,0,0,1,3.51,3.51,0,0,0,1,2.38c0-1,.07-2.06.09-3.08,0-.25,0-.49,0-.73C175.93,161.8,175.76,161.68,175.6,161.68Z"/><path class="cls-19" d="M169,168.58c-.23,0-.49.22-.7.61a3.37,3.37,0,0,0-.33.87c-.33,1.35,0,2.82.53,2.82l.09,0c.57-.15,1-2,1-3.13C169.48,168.92,169.25,168.58,169,168.58Z"/><path class="cls-19" d="M161.55,163.32c-.27,0-.58.27-.84.73a4.79,4.79,0,0,0-.41,1.06c-.39,1.64,0,3.41.65,3.41h.11c.7-.18,1.22-2.39,1.16-3.8C162.17,163.73,161.89,163.32,161.55,163.32Z"/><path class="cls-19" d="M167.51,184.57c-.26,0-.49.33-.58.85a3.62,3.62,0,0,0,0,1c0,.18.05.36.08.53l1.59-.38a5.81,5.81,0,0,0-.29-1.06C168,184.83,167.75,184.57,167.51,184.57Z"/><path class="cls-19" d="M122.29,122.09c.24.36.51.58.76.58a.43.43,0,0,0,.24-.08c.33-.24.41-1,.35-1.86A14.41,14.41,0,0,0,122.29,122.09Z"/><path class="cls-19" d="M156.4,180.86c-.32,0-.59.4-.71,1a4.27,4.27,0,0,0,0,1.15c.13,1.56.91,3,1.54,3a.46.46,0,0,0,.24-.08c.6-.44.39-2.71-.12-4C157,181.18,156.68,180.86,156.4,180.86Z"/><path class="cls-20" d="M157.07,149.26H157c-.57,0-.86-1.47-.53-2.81a3.31,3.31,0,0,1,.33-.88c.22-.38.47-.61.7-.61a.27.27,0,0,1,.12,0c0-.66,0-1.23-.07-1.69-.55-8.43,1.18-18.6-10-23.73a21.41,21.41,0,0,0-8.92-2,18.86,18.86,0,0,0-10.8,3.31c-5,3.47-5.46,8.8-5.78,13.57-.37,5.64-1.36,11.07-1.3,16.77,0,4.19-.34,8.41-.06,12.57a4.14,4.14,0,0,1,.09-.46,4,4,0,0,1,.41-1.06c.26-.46.57-.73.84-.73s.62.41.66,1.39c.07,1.41-.46,3.62-1.16,3.8h-.1a.55.55,0,0,1-.46-.31l0,.18c.59,3.78.44,7.31,2.78,10.77.78,1.16,1.24,2.75,2.21,3.8,1.23,1.35,3.76,2.07,5.61,2.82a25.66,25.66,0,0,0,9.48,1.68,30.75,30.75,0,0,0,6.43-.68c6.7-1.48,8.93-5.66,9.57-10.4.52-3.79.72-17.84.61-26.22C157.52,148.86,157.3,149.2,157.07,149.26Zm-31.83-16c-.54.87-1.7,1.91-2.31,1.91a.48.48,0,0,1-.18,0c-.59-.29,0-1.74,1-2.65a3.11,3.11,0,0,1,.75-.48,1.55,1.55,0,0,1,.55-.13C125.61,131.88,125.82,132.34,125.24,133.26Zm9-8.09a4.05,4.05,0,0,1,.4-1.06c.26-.47.57-.74.85-.74s.61.42.66,1.39c.06,1.41-.46,3.62-1.16,3.81h-.11C134.16,128.58,133.81,126.81,134.21,125.17Zm-7.45-.93c.1-.53.32-.86.59-.86s.5.27.75.89c.42,1.07.6,3,.1,3.31a.31.31,0,0,1-.2.07c-.52,0-1.16-1.18-1.27-2.46A3.64,3.64,0,0,1,126.76,124.24Zm2.15,25a.46.46,0,0,1-.25.08c-.63,0-1.4-1.43-1.54-3a4.27,4.27,0,0,1,0-1.15c.12-.64.39-1,.71-1s.62.32.91,1.08C129.29,146.49,129.51,148.76,128.91,149.2Zm3,27.78h-.09c-.57,0-.86-1.47-.53-2.81a3,3,0,0,1,.34-.88c.21-.38.47-.61.69-.61s.51.35.55,1.15C132.92,175,132.49,176.83,131.91,177Zm7.75,3.52a3.14,3.14,0,0,1-.83-.12c-3.47-.92-2.75-7.74-2.69-10.12.09-4.23,0-8.41-.08-12.65,0-.93,0-1.86,0-2.79-.58.82-1.6,1.7-2.17,1.7a.34.34,0,0,1-.18,0c-.59-.28,0-1.74,1.05-2.64a3.11,3.11,0,0,1,.75-.48,1.56,1.56,0,0,1,.54-.13c0-4.51,0-9,.28-13.52a5.52,5.52,0,0,1,0-2.62,4,4,0,0,1,.2-.64c.07-.91.15-1.83.25-2.74.19-1.86-.11-7.29,2.35-8.23a3.12,3.12,0,0,1,1.07-.21,2.59,2.59,0,0,1,2.26,1.65,7.74,7.74,0,0,1,.44,1,3.42,3.42,0,0,1,.31-.79c.22-.38.47-.6.7-.6s.51.34.54,1.14c.06,1.13-.35,2.88-.9,3.12.79,5.5,0,13.29,0,14.85,0,7.3.16,14.61-.27,21.9C143.17,169.87,144,180.5,139.66,180.5Zm5.68-2.6a4.49,4.49,0,0,1-2.44,1.56.47.47,0,0,1-.27-.07c-.55-.36.21-1.72,1.37-2.46a2.81,2.81,0,0,1,.8-.37,1.62,1.62,0,0,1,.41-.06C145.84,176.5,146.08,177,145.34,177.9Zm1.14-24.66a.43.43,0,0,1-.24.08c-.63,0-1.41-1.43-1.54-3a4.27,4.27,0,0,1,0-1.15c.12-.64.39-1,.71-1s.61.32.91,1.08C146.87,150.53,147.08,152.8,146.48,153.24Zm5.32,9.08a.36.36,0,0,1-.2.06c-.52,0-1.16-1.17-1.27-2.45a3.73,3.73,0,0,1,0-1c.1-.52.32-.85.58-.85s.51.26.76.89C152.12,160.08,152.29,162,151.8,162.32Zm-.42-33.57a3.6,3.6,0,0,1,0-1c.09-.52.32-.85.58-.85s.51.26.76.89c.41,1.07.59,2.94.1,3.3a.35.35,0,0,1-.21.07C152.14,131.21,151.49,130,151.38,128.75ZM153.16,179l-.09,0c-.56,0-.86-1.47-.53-2.82a3.59,3.59,0,0,1,.34-.88c.21-.38.47-.6.69-.6s.51.34.55,1.15C154.17,177,153.74,178.85,153.16,179Zm.86-39-.09,0c-.56,0-.86-1.47-.53-2.82a3.59,3.59,0,0,1,.34-.88c.21-.38.47-.6.69-.6s.51.34.55,1.15C155,138.06,154.6,139.88,154,140Z"/><path class="cls-17" d="M157.48,145c-.23,0-.48.23-.7.61a3.31,3.31,0,0,0-.33.88c-.33,1.34,0,2.81.53,2.81h.09c.23-.06.45-.4.61-.86,0-1.29,0-2.44-.08-3.4A.27.27,0,0,0,157.48,145Z"/><path class="cls-21" d="M154.43,135.75c-.22,0-.48.22-.69.6a3.59,3.59,0,0,0-.34.88c-.33,1.35,0,2.82.53,2.82l.09,0c.58-.15,1-2,1-3.13C154.94,136.09,154.71,135.75,154.43,135.75Z"/><path class="cls-17" d="M127.87,144.11c-.32,0-.59.4-.71,1a4.27,4.27,0,0,0,0,1.15c.14,1.55.91,3,1.54,3a.46.46,0,0,0,.25-.08c.6-.44.38-2.71-.13-4C128.49,144.43,128.16,144.11,127.87,144.11Z"/><path class="cls-17" d="M122,161.56c-.27,0-.58.27-.84.73a4,4,0,0,0-.41,1.06,4.14,4.14,0,0,0-.09.46c.06.88.15,1.76.28,2.64a.55.55,0,0,0,.46.31h.1c.7-.18,1.23-2.39,1.16-3.8C122.64,162,122.36,161.56,122,161.56Z"/><path class="cls-17" d="M125.1,131.88a1.55,1.55,0,0,0-.55.13,3.11,3.11,0,0,0-.75.48c-1.06.91-1.64,2.36-1,2.65a.48.48,0,0,0,.18,0c.61,0,1.77-1,2.31-1.91S125.61,131.88,125.1,131.88Z"/><path class="cls-17" d="M150.94,158.12c-.26,0-.48.33-.58.85a3.73,3.73,0,0,0,0,1c.11,1.28.75,2.45,1.27,2.45a.36.36,0,0,0,.2-.06c.49-.36.32-2.24-.1-3.31C151.45,158.38,151.18,158.12,150.94,158.12Z"/><path class="cls-21" d="M136.31,139.71c.06-1.09.14-2.17.22-3.26a4,4,0,0,0-.2.64A5.52,5.52,0,0,0,136.31,139.71Z"/><path class="cls-17" d="M135.49,153.36a3.11,3.11,0,0,0-.75.48c-1.06.9-1.64,2.36-1.05,2.64a.34.34,0,0,0,.18,0c.57,0,1.59-.88,2.17-1.7,0-.53,0-1.06,0-1.59A1.56,1.56,0,0,0,135.49,153.36Z"/><path class="cls-21" d="M145.45,148.15c-.32,0-.59.4-.71,1a4.27,4.27,0,0,0,0,1.15c.13,1.55.91,3,1.54,3a.43.43,0,0,0,.24-.08c.6-.44.39-2.71-.12-4C146.06,148.47,145.74,148.15,145.45,148.15Z"/><path class="cls-17" d="M132.32,172.69c-.22,0-.48.23-.69.61a3,3,0,0,0-.34.88c-.33,1.34,0,2.81.53,2.81h.09c.58-.15,1-2,1-3.14C132.83,173,132.6,172.69,132.32,172.69Z"/><path class="cls-17" d="M127.35,123.38c-.27,0-.49.33-.59.86a3.64,3.64,0,0,0,0,1c.11,1.28.75,2.46,1.27,2.46a.31.31,0,0,0,.2-.07c.5-.36.32-2.24-.1-3.31C127.85,123.65,127.58,123.38,127.35,123.38Z"/><path class="cls-17" d="M145.21,176.5a1.62,1.62,0,0,0-.41.06,2.81,2.81,0,0,0-.8.37c-1.16.74-1.92,2.1-1.37,2.46a.47.47,0,0,0,.27.07,4.49,4.49,0,0,0,2.44-1.56C146.08,177,145.84,176.5,145.21,176.5Z"/><path class="cls-17" d="M152,127c-.26,0-.49.33-.58.85a3.6,3.6,0,0,0,0,1c.11,1.28.76,2.46,1.27,2.46a.35.35,0,0,0,.21-.07c.49-.36.31-2.23-.1-3.3C152.51,127.21,152.24,127,152,127Z"/><path class="cls-21" d="M143.91,126.57c-.23,0-.48.22-.7.6a3.42,3.42,0,0,0-.31.79,15.41,15.41,0,0,1,.65,2.87c.55-.24,1-2,.9-3.12C144.42,126.91,144.19,126.57,143.91,126.57Z"/><path class="cls-17" d="M153.57,174.72c-.22,0-.48.22-.69.6a3.59,3.59,0,0,0-.34.88c-.33,1.35,0,2.82.53,2.82l.09,0c.58-.15,1-2,1-3.13C154.08,175.06,153.85,174.72,153.57,174.72Z"/><path class="cls-17" d="M135.46,123.37c-.28,0-.59.27-.85.74a4.05,4.05,0,0,0-.4,1.06c-.4,1.64-.05,3.41.64,3.41H135c.7-.19,1.22-2.4,1.16-3.81C136.07,123.79,135.8,123.37,135.46,123.37Z"/><path class="cls-22" d="M143.55,130.83l-.05,0h-.09c-.57,0-.86-1.46-.53-2.81,0,0,0-.06,0-.09a7.74,7.74,0,0,0-.44-1,2.59,2.59,0,0,0-2.26-1.65,3.12,3.12,0,0,0-1.07.21c-2.46.94-2.16,6.37-2.35,8.23-.1.91-.18,1.83-.25,2.74a4.09,4.09,0,0,1,.2-.42c.26-.47.58-.73.85-.73s.61.41.66,1.39c.06,1.4-.46,3.61-1.16,3.8H137c-.29,0-.51-.31-.66-.79-.24,4.5-.29,9-.28,13.52h0c.51,0,.72.46.14,1.38l-.14.21c0,.93,0,1.86,0,2.79,0,4.24.17,8.42.08,12.65-.06,2.38-.78,9.2,2.69,10.12a3.14,3.14,0,0,0,.83.12c4.35,0,3.51-10.63,3.65-12.92.43-7.29.3-14.6.27-21.9C143.57,144.12,144.34,136.33,143.55,130.83Zm-6.48,14.76a.44.44,0,0,1-.26-.07c-.55-.36.2-1.72,1.36-2.46a2.86,2.86,0,0,1,.81-.37,1.56,1.56,0,0,1,.41-.06c.62,0,.86.49.12,1.4A4.42,4.42,0,0,1,137.07,145.59Zm3.62,21.07a.4.4,0,0,1-.25.09c-.62,0-1.4-1.43-1.54-3a4.69,4.69,0,0,1,0-1.15c.11-.63.38-1,.7-1s.62.32.92,1.08C141.08,164,141.29,166.23,140.69,166.66Z"/><path class="cls-23" d="M137.58,135.3c-.27,0-.59.26-.85.73a4.09,4.09,0,0,0-.2.42c-.08,1.09-.16,2.17-.22,3.26.15.48.37.79.66.79h.11c.7-.19,1.22-2.4,1.16-3.8C138.19,135.71,137.92,135.3,137.58,135.3Z"/><path class="cls-23" d="M139.65,161.58c-.32,0-.59.4-.7,1a4.69,4.69,0,0,0,0,1.15c.14,1.56.92,3,1.54,3a.4.4,0,0,0,.25-.09c.6-.43.39-2.7-.12-4C140.27,161.9,139.94,161.58,139.65,161.58Z"/><path class="cls-23" d="M136,153.23h0c0,.53,0,1.06,0,1.59l.14-.21C136.76,153.69,136.55,153.23,136,153.23Z"/><path class="cls-23" d="M139.39,142.63a1.56,1.56,0,0,0-.41.06,2.86,2.86,0,0,0-.81.37c-1.16.74-1.91,2.1-1.36,2.46a.44.44,0,0,0,.26.07,4.42,4.42,0,0,0,2.44-1.56C140.25,143.12,140,142.63,139.39,142.63Z"/><path class="cls-23" d="M142.88,128.05c-.33,1.35,0,2.81.53,2.81h.09l.05,0a15.41,15.41,0,0,0-.65-2.87S142.89,128,142.88,128.05Z"/><path class="cls-24" d="M159.85,139.36c-1.59,1.16-2.71,1.59-3.34,1.26-.85-.45-.8-2.34-.76-3.87,0-.44,0-.87,0-1.24a2.35,2.35,0,0,0-1.13-2c-.6-.34-1.66-.54-3.33.41a.25.25,0,1,0,.25.43c1.16-.66,2.14-.8,2.83-.4a1.85,1.85,0,0,1,.88,1.59c0,.36,0,.78,0,1.22-.05,1.75-.1,3.73,1,4.32a1.4,1.4,0,0,0,.66.16,5.84,5.84,0,0,0,3.2-1.46.23.23,0,0,0,.06-.34A.25.25,0,0,0,159.85,139.36Z"/><path class="cls-24" d="M155.51,139.65a3.91,3.91,0,0,1-4.2,1.26,2.14,2.14,0,0,1-1.54-2.21,2.57,2.57,0,0,1,2.09-2.3,3.08,3.08,0,0,1,3.42,1,.25.25,0,0,0,.34.08.26.26,0,0,0,.08-.35,3.57,3.57,0,0,0-4-1.21,3,3,0,0,0-2.46,2.77,2.65,2.65,0,0,0,1.87,2.7,4,4,0,0,0,1.18.2,4.4,4.4,0,0,0,3.59-1.63.25.25,0,0,0-.4-.31Z"/><path class="cls-24" d="M174.27,129.38a.27.27,0,0,0-.27-.27h0a.27.27,0,0,0-.27.27c0,2.37.13,9.64.22,12.66a.27.27,0,0,0,.27.26h0a.27.27,0,0,0,.26-.28C174.4,139,174.24,131.75,174.27,129.38Z"/><path class="cls-24" d="M178.17,134a3.86,3.86,0,0,0-4.23,2.12.27.27,0,0,0,.12.37.27.27,0,0,0,.36-.11,3.3,3.3,0,0,1,3.62-1.85,2.92,2.92,0,0,1,2.06,3.13c0,2.64-1.3,3.44-2.39,3.66-1.4.27-2.76-.35-2.93-.78a.27.27,0,1,0-.5.2c.25.62,1.46,1.18,2.74,1.18a4.22,4.22,0,0,0,.79-.07c1.06-.21,2.83-1,2.83-4.19A3.45,3.45,0,0,0,178.17,134Z"/><path class="cls-24" d="M135.69,132.87a.28.28,0,0,0-.36.13c-.7,1.54-2.53,3.42-3.78,2.85a.27.27,0,0,0-.22.5,1.69,1.69,0,0,0,.49.13c1.53.19,3.28-1.68,4-3.25A.26.26,0,0,0,135.69,132.87Z"/><path class="cls-24" d="M129.61,133.22A5.31,5.31,0,0,1,128,132a1.47,1.47,0,0,1-.13-1.65,1.45,1.45,0,0,1,1.55-.63.91.91,0,0,1,.81.74,1.4,1.4,0,0,1-.6,1.38.27.27,0,0,0,.29.45,1.91,1.91,0,0,0,.84-1.93,1.45,1.45,0,0,0-1.24-1.17,2,2,0,0,0-2.11.89,2,2,0,0,0,.17,2.25,5.73,5.73,0,0,0,1.72,1.32,5.32,5.32,0,0,1,1.55,1.17,1.46,1.46,0,0,1,0,1.86,2.3,2.3,0,0,1-1.67.57,4.86,4.86,0,0,1-3.65-1.75.27.27,0,0,0-.4.36,5.51,5.51,0,0,0,3.54,1.91l.51,0a2.8,2.8,0,0,0,2.07-.75,2,2,0,0,0,0-2.56A5.87,5.87,0,0,0,129.61,133.22Z"/><path class="cls-24" d="M138.27,138.52a1.84,1.84,0,0,1-1.09.53,1.53,1.53,0,0,1-1.24-.23c-.54-.48-.36-1.81-.23-2.79,0-.3.08-.59.09-.83,0-.43,0-.86.07-1.29.12-2.26.24-4.6.44-6.89a.29.29,0,0,0-.25-.3h0a.28.28,0,0,0-.29.25c-.2,2.3-.32,4.64-.44,6.91,0,.43-.05.86-.07,1.29,0,.22,0,.5-.09.79-.15,1.16-.34,2.59.42,3.26a1.7,1.7,0,0,0,1,.4,2.59,2.59,0,0,0,2-.7A2.29,2.29,0,0,1,138.27,138.52Z"/><path class="cls-24" d="M137.6,130.72l-3.3-.25a.31.31,0,0,0-.33.26.31.31,0,0,0,.28.31l3.31.25a.29.29,0,0,0,.32-.26A.3.3,0,0,0,137.6,130.72Z"/><path class="cls-24" d="M174.15,134.26a.26.26,0,0,0-.37.09,3.28,3.28,0,0,1-1.84.86c0-.1,0-.2,0-.3a1,1,0,0,0-1.85-.83.94.94,0,0,0,0,1.14,1.47,1.47,0,0,0,1.27.57,12.24,12.24,0,0,1-.82,3.14c-.41,1-1.42,2.57-2.41,2.49s-1.73-1-2.27-2a5.17,5.17,0,0,0,.47-1.26c.08-.33.16-1.32-.32-1.61-.17-.11-.46-.16-.88.19s-.5,1.1-.13,2.11a5,5,0,0,0,.25.57c-.13.21-.27.41-.42.61a3.41,3.41,0,0,1-2.12,1.39,1.46,1.46,0,0,1-1.15-.43,7.5,7.5,0,0,1-1.58-2.73l-.09-.22a9.24,9.24,0,0,1-.84-4,.27.27,0,1,0-.54,0,9.74,9.74,0,0,0,.88,4.25l.09.22a8,8,0,0,0,1.71,2.92,2,2,0,0,0,1.34.57,1.61,1.61,0,0,0,.22,0,4,4,0,0,0,2.5-1.59q.16-.21.3-.42a3.79,3.79,0,0,0,2.54,2h.07c1.35,0,2.47-1.82,2.88-2.83a12.66,12.66,0,0,0,.86-3.37,3.64,3.64,0,0,0,2.34-1.12A.27.27,0,0,0,174.15,134.26Zm-8.35,3.79a5,5,0,0,1-.25.77l-.06-.14c-.28-.76-.29-1.28,0-1.5s.25-.15.25-.15A1.53,1.53,0,0,1,165.8,138.05Zm5.6-2.8a1,1,0,0,1-.86-.32.41.41,0,0,1,0-.52.54.54,0,0,1,.43-.19.33.33,0,0,1,.15,0c.21.07.32.3.31.65C171.41,135,171.4,135.13,171.4,135.25Z"/><path class="cls-24" d="M218.67,136a.26.26,0,0,0-.35.14,3.82,3.82,0,0,1-3,1.55,2.51,2.51,0,0,1-2.44-1.18,12.86,12.86,0,0,1-.75-4.31c-.05-.56-.09-1.13-.15-1.75a.29.29,0,0,0-.3-.25.27.27,0,0,0-.24.3c.06.62.11,1.19.15,1.75.18,2.08.3,3.58.82,4.52a3,3,0,0,0,2.94,1.46h.08a4.18,4.18,0,0,0,3.42-1.88A.26.26,0,0,0,218.67,136Z"/><path class="cls-24" d="M220.53,137.29c-.61.21-1.13.4-1.57.58-.08-1.31-.19-2.83-.31-4.47s-.23-3-.24-3.51a.27.27,0,1,0-.54,0c0,.57.12,1.95.24,3.55s.23,3.14.33,4.64a6.19,6.19,0,0,0-1.95,1.33,2.61,2.61,0,0,0-.7,2.87,2,2,0,0,0,1.67,1.36h.14a1.67,1.67,0,0,0,1.39-1.09,16.45,16.45,0,0,0,0-4.12c.46-.2,1-.41,1.7-.64a.26.26,0,0,0,.17-.34A.28.28,0,0,0,220.53,137.29Zm-2,5c-.26.53-.61.8-1,.78a1.47,1.47,0,0,1-1.19-1,2.07,2.07,0,0,1,.58-2.3,5.49,5.49,0,0,1,1.6-1.13c0,.13,0,.26,0,.39A13.73,13.73,0,0,1,218.5,142.33Z"/><path class="cls-24" d="M149.38,138.77a.28.28,0,0,0-.34.17,2.54,2.54,0,0,1-1.7,1.73,1.2,1.2,0,0,1-1.13-.27c-.36-.36-.52-1.8-.37-3.56a16.41,16.41,0,0,1,.29-2,2.86,2.86,0,0,0,1.72-1.53.83.83,0,0,0-.45-1c-.17-.09-.59-.24-1,.32a5.34,5.34,0,0,0-.72,1.84,5.06,5.06,0,0,1-1.9.27,5.65,5.65,0,0,1-1.92-.45,5.55,5.55,0,0,0,.08-.76,2.18,2.18,0,0,0-.7-1.81.82.82,0,0,0-.83-.06,1.06,1.06,0,0,0-.63,1.21,2.77,2.77,0,0,0,1.46,1.7,15.3,15.3,0,0,1-3.32,4.29c-.13.07-.1.17,0,.3s0,.29.14.22l.25-.13a15.36,15.36,0,0,0,3.46-4.43,6.25,6.25,0,0,0,2,.46,5.39,5.39,0,0,0,1.81-.21c-.11.61-.19,1.23-.24,1.78-.06.75-.2,3.26.53,4a1.61,1.61,0,0,0,1,.46,2.09,2.09,0,0,0,.6-.05,3,3,0,0,0,2.09-2.07A.28.28,0,0,0,149.38,138.77Zm-2.56-5.88c.12-.16.21-.19.26-.19a.08.08,0,0,1,.06,0c.24.13.23.28.2.4a2.1,2.1,0,0,1-1,1A4,4,0,0,1,146.82,132.89ZM141.35,134a2.18,2.18,0,0,1-1-1.25.53.53,0,0,1,.33-.62.27.27,0,0,1,.17,0,.21.21,0,0,1,.13.05,1.75,1.75,0,0,1,.46,1.34C141.38,133.63,141.37,133.8,141.35,134Z"/><path class="cls-24" d="M189.82,140.53a5.78,5.78,0,0,1-5,1.05,2.83,2.83,0,0,1-1.68-1.52c1.86-.28,4-.71,5.38-2a2.41,2.41,0,0,0,.48-3.49c-1-1.42-3.09-.86-3.78-.68a4.42,4.42,0,0,0-3,4.92,6,6,0,0,0,.19.83h0a.28.28,0,0,0-.23.31.27.27,0,0,0,.31.23l.1,0h0a3.42,3.42,0,0,0,2.05,1.94,5,5,0,0,0,2.44.17,6.42,6.42,0,0,0,3.1-1.33.28.28,0,0,0,0-.38A.27.27,0,0,0,189.82,140.53Zm-7.07-1.81a3.86,3.86,0,0,1,2.62-4.31c1.66-.45,2.67-.3,3.19.46a1.85,1.85,0,0,1-.4,2.78c-1.29,1.22-3.4,1.62-5.21,1.9A5,5,0,0,1,182.75,138.72Z"/><path class="cls-24" d="M203.31,133.6a27.7,27.7,0,0,1-1.17,4c0,.1-.08.2-.11.29a3.58,3.58,0,0,1-1.56,2,1.17,1.17,0,0,1-1.15,0c-.44-.28-.92-1.64-1.18-3.39a17.25,17.25,0,0,1-.18-2.05,2.87,2.87,0,0,0,1.33-1.88.83.83,0,0,0-.68-.89c-.17,0-.62-.1-.91.54a5.33,5.33,0,0,0-.28,1.95,4.76,4.76,0,0,1-1.79.7,5.35,5.35,0,0,1-2,0,6.05,6.05,0,0,0-.11-.76,2.18,2.18,0,0,0-1.09-1.6.81.81,0,0,0-.81.13,1.07,1.07,0,0,0-.35,1.32c.72,1.64,2.94,1.69,4.41,1.44a5.18,5.18,0,0,0,1.72-.61,16,16,0,0,0,.17,1.79c.11.74.54,3.22,1.42,3.77a1.62,1.62,0,0,0,1.11.21,1.82,1.82,0,0,0,.57-.19,4.47,4.47,0,0,0,2-2.55,25.3,25.3,0,0,0,1-4C203.79,133.48,203.51,132.62,203.31,133.6Zm-5.11-1.17c.08-.19.15-.24.21-.25h.06c.26.07.29.21.28.34a2,2,0,0,1-.78,1.22A4,4,0,0,1,198.2,132.43Zm-6.39,1.3a.5.5,0,0,1,.18-.67.32.32,0,0,1,.3-.06,1.79,1.79,0,0,1,.75,1.21c0,.18.06.35.07.5A2.16,2.16,0,0,1,191.81,133.73Z"/><path class="cls-24" d="M212.2,136.05a.27.27,0,0,0-.3.24,2.54,2.54,0,0,1-1.26,2.07,1.25,1.25,0,0,1-1.16,0c-.44-.28-.91-1.64-1.17-3.39a15.67,15.67,0,0,1-.18-2.05,2.86,2.86,0,0,0,1.32-1.88.84.84,0,0,0-.67-.9c-.18,0-.63-.09-.91.55a5.3,5.3,0,0,0-.28,1.95,4.93,4.93,0,0,1-1.79.7,5.64,5.64,0,0,1-2,0,4.42,4.42,0,0,0-.1-.76,2.23,2.23,0,0,0-1.09-1.61.85.85,0,0,0-.82.14,1,1,0,0,0-.34,1.32c.6,1.37,3.11,1.66,4.41,1.44a5.61,5.61,0,0,0,1.71-.61c0,.62.09,1.24.17,1.79.12.74.55,3.21,1.43,3.76a1.61,1.61,0,0,0,1.1.21,2,2,0,0,0,.57-.18,3.06,3.06,0,0,0,1.57-2.49A.27.27,0,0,0,212.2,136.05Zm-3.84-5.15c.09-.18.16-.23.21-.24h.06c.26.08.29.22.29.35a2.05,2.05,0,0,1-.79,1.21A4.31,4.31,0,0,1,208.36,130.9ZM202,132.21a.54.54,0,0,1,.18-.68.71.71,0,0,1,.16-.07.23.23,0,0,1,.14,0,1.73,1.73,0,0,1,.75,1.2c0,.18.06.35.08.51A2.16,2.16,0,0,1,202,132.21Z"/><path class="cls-24" d="M193.14,135a.31.31,0,0,0-.35.29,9.73,9.73,0,0,1-2.46,4.89c-.17.18-.44.27-.59.48s0,.56.3.4l.09-.06a8.72,8.72,0,0,0,2.47-3.12,6.86,6.86,0,0,0,.82-2.47A.37.37,0,0,0,193.14,135Z"/><path class="cls-25" d="M146.32,147.3c-.81-.39-13.1-2.28-15.88-2.14-.29.84,0,4,0,4.61s.12,1.28.09,1.9c1.55.07,8,2.14,9.09,2.32.57,2.32.34,4.89.38,7.25,0,.23,0,.46,0,.69-.15,1.39.05,4.77-2.74,4.91-1.38.06-3.45-3.07-3.17-3.15-2.52.69-4.25,2.75-2.93,4.61a9.65,9.65,0,0,0,11.68,2.77,5.64,5.64,0,0,0,3.36-3.43c.65-2.29.49-4.65.57-7,.11-3.63,0-7.27,0-10.9C146.85,149,147.28,147.76,146.32,147.3Z"/><path class="cls-25" d="M221.48,164.92q0-2.74-.09-5.49c0-2-.14-4.64-.25-6.67-.1-1.7-.21-3.41-.43-5.1a15.71,15.71,0,0,0-.3-1.69,1.79,1.79,0,0,0-.37-.87.39.39,0,0,0-.11-.06c-1.61-.45-3.86.53-5.85.9-1.31.24-5.68,13.33-6.7,13.14-.8-.14-6.12-10.75-6.56-11.14-.71-.6-6.76-.18-8.29-.06-.85.06-1.08.07-1.21.93-.19,1.28.83,20.58.83,20.58,0,1.39-.47,3.42,1.33,3.76a42.79,42.79,0,0,0,5.55,0c1.3-.09,1.3-.55,1.43-1.67.15-1.29-.26-6.72.21-7.74.47.27,3.83,8.24,4.25,8.52s4.72.49,5.29-.86a50.05,50.05,0,0,0,1.72-5.19,36.89,36.89,0,0,1,1.47-3.83c-.09.21.1.79.12,1s.07.68.1,1c0,.68.08,1.37.11,2.05s0,1.49.05,2.24c0,.42,0,.83,0,1.25s-.13,1.32.46,1.31A4.56,4.56,0,0,0,215,171l1-.26a24.05,24.05,0,0,0,3.59-1.21,10.82,10.82,0,0,0,1.18-.59,1.92,1.92,0,0,0,.46-.27c.32-.36.19-1.26.19-1.73Q221.5,165.94,221.48,164.92Z"/><path class="cls-25" d="M174.35,148.29a69.71,69.71,0,0,0-8.66.1c-.13,0-.27.22-.31.37-.76,2.42-4.4,15.15-5.17,17.18a78.77,78.77,0,0,0-2.16,7.86c-.18,1.26,7.45.77,7.45.77s1-3,1.37-4c0,0,5-.16,6.31,0,0,.14.28,3.68.68,4,.58.47,7.67-.3,7.82-.3-.21-.62-6.1-23.27-6.26-23.83C175.18,149.6,175.31,148.43,174.35,148.29Zm-6.92,15.15,1.3-7.62a5.79,5.79,0,0,1,1.82,0c.36,2,1.65,7.93,1.65,7.93Zm13,9.71s0,0,0,.06h-.09Z"/></svg>