<svg xmlns="http://www.w3.org/2000/svg" xmlns:xlink="http://www.w3.org/1999/xlink" viewBox="0 0 350 270"><defs><style>.cls-1{fill:#e5dfc2;}.cls-2{fill:#ad140c;}.cls-3{fill:#402d2d;}.cls-4{fill:#bc9191;}.cls-5{fill:#593b3b;}.cls-6{fill:#bd9999;}.cls-7{opacity:0.37;fill:url(#linear-gradient);}.cls-8{fill:#4f3434;}.cls-9{opacity:0.08;}.cls-10{fill:url(#linear-gradient-2);}.cls-11{fill:#ef4437;}</style><linearGradient id="linear-gradient" x1="139.49" y1="208.17" x2="201.52" y2="208.17" gradientUnits="userSpaceOnUse"><stop offset="0" stop-color="#b09494"/><stop offset="1" stop-color="#6b5252"/></linearGradient><linearGradient id="linear-gradient-2" x1="34.96" y1="188.58" x2="141.62" y2="188.58" xlink:href="#linear-gradient"/></defs><g id="Layer_3" data-name="Layer 3"><rect class="cls-1" width="350" height="270"/></g><g id="Layer_4" data-name="Layer 4"><polygon class="cls-2" points="252.69 73 252.69 76.51 272.93 84.97 272.93 81.26 252.69 73"/></g><g id="Layer_14" data-name="Layer 14"><path class="cls-3" d="M50,225s58.24,40.88,130.43,8.08C272.13,191.48,258,129.54,258,129.54S91.81,181.22,50,225Z"/><path class="cls-4" d="M329.2,28.31c-.63-.88.1,2.34-2.33,3.07s-1.5.73-4.85,3.44c-.69.57-77.06,58-77.06,58s-8.16,6.51-7.34,20.54c0,0-.92,21.33,6.54,3.42,0,0-5.54-14.41,9.13-24.54s74.15-57.35,74.15-57.35C328.35,33.91,331.44,31.47,329.2,28.31Z"/><path class="cls-5" d="M328.93,27.76c-1.49-1.58-6.82-2.21-13.49,3.2-.69.56-73.35,55.9-73.35,55.9S229.83,96.23,230,109.74c0,.44,0,.88,0,1.33.2,5.52,2.81,9.91,5.82,9.8,2.4-.09,4.34-3,4.93-6.93.16-1-2.48-13.84,12.52-23.89,14.81-9.92,74.15-57.34,74.15-57.34C328.37,31.84,330.47,29.38,328.93,27.76Zm-6,5.23c-2,.95-4,.95-4.48,0s.87-2.46,2.92-3.41,4.05-.95,4.48,0S325,32.05,322.9,33Z"/><path class="cls-5" d="M201.52,201a267.55,267.55,0,0,1-38.31,17.64c-6.6,2.45-13.17,4.57-19.64,6.39-37,10.41-70.86,10.66-90.68,1.47-8.25-3.83-14.08-9.3-16.69-16.36A25.85,25.85,0,0,1,35,197.53C36.75,184.16,47.45,169,64.5,155c16-13.14,37.58-25.27,62.63-34C181.9,102,248,102.6,258,129.54,265.69,150.34,240.9,178.84,201.52,201Z"/><path class="cls-6" d="M201.84,108.93c30.12,0,50.23,7.65,55.16,21,3.55,9.61-.05,21.43-10.42,34.17-10.12,12.46-25.89,24.9-45.58,36a265.16,265.16,0,0,1-38.16,17.57c-6.42,2.38-13,4.52-19.55,6.36-18.76,5.27-37.27,8.06-53.54,8.06-14.6,0-27.19-2.26-36.41-6.53-8.26-3.83-13.69-9.14-16.14-15.76A24.82,24.82,0,0,1,36,197.67c1.73-13,12.09-27.8,29.16-41.81,16.74-13.75,38.28-25.44,62.3-33.81s51-13.12,74.35-13.12h0m0-1.07c-23.1,0-50.05,4.6-74.7,13.18-25,8.73-46.64,20.86-62.63,34-17,14-27.75,29.12-29.54,42.49a25.85,25.85,0,0,0,1.24,12.6c2.61,7.06,8.44,12.53,16.69,16.36,9.48,4.39,22.16,6.63,36.86,6.63,16,0,34.5-2.67,53.82-8.1,6.47-1.82,13-3.94,19.64-6.39A267.55,267.55,0,0,0,201.52,201c39.38-22.15,64.17-50.65,56.48-71.45-5.48-14.82-27.94-21.68-56.17-21.68Z"/><path class="cls-7" d="M201.52,201a267.55,267.55,0,0,1-38.31,17.64c-6.6,2.45-13.17,4.57-19.64,6.39a9.21,9.21,0,0,1-3.62-4.48c-2.92-8.3,8.41-19.85,25.3-25.78s32.93-4,35.85,4.29A8.1,8.1,0,0,1,201.52,201Z"/><path class="cls-8" d="M236.09,118c0,1.38-.8,2.25-1.8,2a3.2,3.2,0,0,1-1.81-3c0-1.37.81-2.24,1.81-1.94A3.19,3.19,0,0,1,236.09,118Z"/><path class="cls-6" d="M235.87,118.13c0,1.38-.81,2.25-1.8,2a3.2,3.2,0,0,1-1.81-3c0-1.37.81-2.24,1.81-1.94A3.19,3.19,0,0,1,235.87,118.13Z"/><g class="cls-9"><path class="cls-10" d="M140,220.54a8.55,8.55,0,0,0,.77,1.58L35,197.53C36.75,184.16,47.45,169,64.5,155l77.12,56.19C139.63,214.47,139,217.69,140,220.54Z"/></g></g><g id="Layer_2" data-name="Layer 2"><path class="cls-11" d="M252.69,71.36l20.24,8.29L337.3,28.56l-18.42-6.41a2.29,2.29,0,0,0-2.13.34Z"/><polygon class="cls-2" points="272.93 79.65 272.93 84.99 337.01 33.25 337.3 28.55 272.93 79.65"/><polygon class="cls-2" points="252.69 71.36 252.69 73.51 272.93 81.97 272.93 79.65 252.69 71.36"/><polygon class="cls-2" points="268.09 79.08 268.09 81.42 271.17 80.78 269.63 78.67 268.09 79.08"/></g></svg>