<svg id="Layer_1" data-name="Layer 1" xmlns="http://www.w3.org/2000/svg" viewBox="0 0 350 270"><defs><style>.cls-1{fill:#bdffdc;}.cls-2{fill:#8dfcba;}.cls-3{fill:#352e35;}.cls-4{fill:#ff8b00;}.cls-5{fill:#f27900;}.cls-6{fill:#c40e00;}.cls-7{fill:#259cc5;}.cls-8{fill:#b70900;}.cls-9{fill:#008db7;}.cls-10{fill:#fff;opacity:0.23;isolation:isolate;}.cls-11{fill:#e94d4e;}.cls-12{fill:#65adcd;}</style></defs><rect class="cls-1" width="350" height="270"/><path class="cls-2" d="M350,270H0V233.09S60.75,209.32,174.34,211,350,233.09,350,233.09Z"/><g id="Layer_2" data-name="Layer 2"><path class="cls-3" d="M177.82,226.58c0,2-1.25,3.57-2.81,3.57s-2.81-1.6-2.81-3.57V207.35c0-2,1.26-3.57,2.81-3.57s2.81,1.6,2.81,3.57Z"/><path class="cls-4" d="M239.41,126.42c0,33.41-41.06,84.28-64.4,84.28s-64.39-50.89-64.39-84.28c0-21.11,11.48-37.79,28.91-47.21a78,78,0,0,1,71,0C227.88,88.63,239.41,105.31,239.41,126.42Z"/><path class="cls-5" d="M169.77,203.18a110.39,110.39,0,0,1-12.23-21.81A122.9,122.9,0,0,1,148,138.15c-.6-15.86,1.27-32.28,7.09-47.18A107.35,107.35,0,0,1,165,71.29a71.59,71.59,0,0,0-25.5,7.93c-17.42,9.42-28.91,26.1-28.91,47.2,0,33.42,41,84.28,64.39,84.28h1.1A52.16,52.16,0,0,1,169.77,203.18Z"/><path class="cls-4" d="M168.09,71a72.56,72.56,0,0,0-28.56,8.23C147,84.46,160.11,88,175,88s28-3.49,35.47-8.74A72.68,72.68,0,0,0,181.93,71"/><path class="cls-5" d="M166.83,77.7c4.17-2.44,1.26-6.7,1.26-6.7a72.56,72.56,0,0,0-28.56,8.23c4.16,2.91,10.51,5.56,17.47,7.08C159.13,82.78,163.47,79.65,166.83,77.7Z"/><path class="cls-6" d="M238.52,116.66a52.6,52.6,0,0,0-1.54-6.3,296.43,296.43,0,0,1-124.3,1.12,52.65,52.65,0,0,0-1.38,6.34A303.09,303.09,0,0,0,172.2,124,303.8,303.8,0,0,0,238.52,116.66Z"/><path class="cls-7" d="M239.27,129.81c.09-1.15.14-2.28.14-3.39s0-2.19-.11-3.31a296.39,296.39,0,0,1-128.62,1.25c0,.66-.06,1.32-.06,2a44.73,44.73,0,0,0,.24,4.63,303.1,303.1,0,0,0,61.34,6.28A303.32,303.32,0,0,0,239.27,129.81Z"/><path class="cls-6" d="M228.17,162.63c.54-1,1.07-2,1.58-3a298,298,0,0,1-108.87,1.16q.78,1.46,1.59,2.91a301.32,301.32,0,0,0,49.73,4.15A302,302,0,0,0,228.17,162.63Z"/><path class="cls-6" d="M220.29,175.24c.68-1,1.35-2,2-3a298,298,0,0,1-93.93,1c.66,1,1.32,1.94,2,2.9a302.93,302.93,0,0,0,41.8,2.93A299.53,299.53,0,0,0,220.29,175.24Z"/><path class="cls-6" d="M210.26,187.93l2.56-3a297.88,297.88,0,0,1-74.94.8c.84,1,1.69,2,2.54,2.89a301.22,301.22,0,0,0,31.78,1.7A302.68,302.68,0,0,0,210.26,187.93Z"/><path class="cls-6" d="M197.09,200.55c1.15-.92,2.31-1.89,3.46-2.9a297.55,297.55,0,0,1-50.48.52q1.73,1.5,3.42,2.83c6.23.39,12.48.6,18.71.6Q184.67,201.6,197.09,200.55Z"/><path class="cls-8" d="M148.21,123.05c.15-2.16.36-4.33.62-6.48a295.51,295.51,0,0,1-36.15-5.09v.1c-.28,1-.54,2-.76,3s-.42,2.12-.6,3.2A307.9,307.9,0,0,0,148.21,123.05Z"/><path class="cls-9" d="M147.92,129.82a300,300,0,0,1-37.24-5.43c0,.66-.07,1.32-.07,2V129c0,.69.1,1.39.17,2.1h0a304.93,304.93,0,0,0,37.09,5.29Z"/><path class="cls-8" d="M151.88,164.56a299,299,0,0,1-31-3.73h0c.51,1,1,1.92,1.57,2.87h0q15,2.49,30.12,3.49C152.35,166.35,152.1,165.46,151.88,164.56Z"/><path class="cls-8" d="M156.51,178.71c-.35-.9-.72-1.78-1-2.65q-13.56-.76-27-2.75h0l2,2.88Q143.39,178,156.51,178.71Z"/><path class="cls-8" d="M140.42,188.66c7.08.75,14.18,1.23,21.29,1.49l-1.32-2.64q-11.23-.45-22.47-1.75C138.73,186.75,139.57,187.72,140.42,188.66Z"/><path class="cls-8" d="M168.64,201.54c-.61-.87-1.2-1.75-1.78-2.65q-8.4-.13-16.79-.76h0c.54.47,1.07.92,1.61,1.37l.17.14,1.63,1.32Q161.06,201.47,168.64,201.54Z"/><path class="cls-10" d="M221.54,91.32a14.45,14.45,0,0,0-16-6.39c-5,1.18-9.87,2.59-14.82,3.84-7,1.77-13.22,1-20.21.7h-.14a2.37,2.37,0,0,0-2.22.79c-8.09,8.59.37,21.5,9.82,24.24,7.18,2.08,15.52.22,22.74-.63,5.59-.66,11.14-.62,16.66-1.84C230.08,109.23,227.18,99.76,221.54,91.32Z"/><path class="cls-10" d="M231.59,135.25c-4-2.34-11.1,1.07-15,2-10.28,2.47-21.19,4-31.72,2.16a2.19,2.19,0,0,0-3.09-.27,2,2,0,0,0-.39.43c-5.52,7.06,2.55,13.15,8.26,16.8,10.13,6.46,23.36,5.46,34,.42,5.28-2.51,7.67-6.74,9-12.29C233.24,142.1,234.53,137,231.59,135.25Z"/><path class="cls-10" d="M218,167.5c-5.18-1.15-11.08.49-16.34,1.06-5.46.59-11,.81-16.4,1.61-.29,0-.18.43.06.47,6.18.82,12.43.54,18.63.25,4.73-.22,9.92,0,14.22-2.16a.66.66,0,0,0,.27-.89A.69.69,0,0,0,218,167.5Z"/><path class="cls-10" d="M206.62,178.88c-5.4-.59-11.4.92-16.72,1.63-6.49.86-12.86.66-19.37.88a.23.23,0,0,0-.2.23.22.22,0,0,0,.14.18c5.49,2,11.2,1.63,16.95,1.19,6.3-.48,13.33-.88,19.39-2.73a.7.7,0,0,0,.46-.88h0A.71.71,0,0,0,206.62,178.88Z"/><path class="cls-10" d="M196.31,190.38c-8.59-.43-17.75,1.81-26.28,0-.58-.13-1.2.66-.66,1.1,3.08,2.46,6.77,2.14,10.57,2.06,5.42-.14,11.43.44,16.58-1.47a.86.86,0,0,0,.56-1.09h0A.86.86,0,0,0,196.31,190.38Z"/><path class="cls-10" d="M183.87,203.06c-1.57-.76-3-.09-4.69.09a37.57,37.57,0,0,1-6,.15.5.5,0,0,0-.48.52.51.51,0,0,0,.23.4,9.14,9.14,0,0,0,5.54,2.06c2,.15,4.49-.06,5.75-1.7a1.1,1.1,0,0,0-.37-1.5h0Z"/><path class="cls-11" d="M233,112.16c-9,1.93-18.17,2.86-27.25,4.06-9.48,1.24-19.53.27-28.76,2.82a.26.26,0,0,0-.18.32.25.25,0,0,0,.18.18c9.47,1.85,19.24,1.33,28.76.16,9-1.09,19.63-.8,28.34-3.59a2.05,2.05,0,0,0-1.09-4Z"/><path class="cls-12" d="M226.22,127.52c-6.93-1.2-13.87,1-20.71,2.15-8.46,1.45-17.27,1.37-25.78,2.39a.45.45,0,0,0-.44.46.46.46,0,0,0,.32.42c6.31,2.4,13.07.83,19.62.45,8.91-.52,18.37-1.32,27-3.52a1.23,1.23,0,0,0,0-2.35Z"/></g><ellipse class="cls-5" cx="175" cy="73.51" rx="20.6" ry="4.43"/><rect class="cls-5" x="154.4" y="65.51" width="41.2" height="8"/><ellipse class="cls-4" cx="175" cy="65.51" rx="20.6" ry="4.43"/></svg>