<svg xmlns="http://www.w3.org/2000/svg" viewBox="0 0 350 270"><defs><style>.cls-1{isolation:isolate;}.cls-2{fill:#e5dfc2;}.cls-3{fill:#b54840;}.cls-4{fill:#a4443b;}.cls-5{fill:#d7d9df;}.cls-6{fill:#f4f4f7;}.cls-7{fill:#c64e46;}.cls-8{fill:#b7b18c;}.cls-9{fill:#2d3334;opacity:0.1;}.cls-10{fill:#866b68;}.cls-11{fill:#7d6461;}.cls-12{fill:#86bfe7;}.cls-13{fill:#76add6;}.cls-14{fill:#bd9367;}.cls-15{fill:#a17e56;}.cls-16{fill:#fff;}.cls-17{fill:#c0c3c9;opacity:0.31;mix-blend-mode:multiply;}.cls-18{fill:#91724b;}.cls-19{fill:#c5986b;}.cls-20{fill:#b58d62;}.cls-21{fill:#a48057;}.cls-22{fill:#9a7951;}.cls-23{fill:#95754d;}.cls-24{fill:#ab855b;}.cls-25{fill:#896c46;}</style></defs><g class="cls-1"><g id="Layer_14" data-name="Layer 14"><rect class="cls-2" width="350" height="270"/><path class="cls-3" d="M215.82,153.77l-14.26-1.16,30-39.31c2.85-3.73,8.4-10,12.33-9.66h0c4.31,2.27,4.77,7.1,1.93,10.83Z"/><polygon class="cls-4" points="198.78 147.96 213.03 149.13 215.82 153.77 201.56 152.61 198.78 147.96"/><polygon class="cls-5" points="195.51 177.28 185.73 176.48 210.8 148.95 213.58 153.59 195.51 177.28"/><polygon class="cls-6" points="192.73 172.63 182.94 171.83 232.97 106.24 242.76 107.04 192.73 172.63"/><path class="cls-7" d="M213,149.13,198.78,148l30-39.3c2.84-3.73,8.34-6.5,12.28-6.18h0c3.93.33,4.82,3.61,2,7.34Z"/><circle class="cls-8" cx="175" cy="130.41" r="100.09" transform="translate(-40.95 161.94) rotate(-45)"/><path class="cls-7" d="M273.71,171.44l-96.11,7.09-96.11,7.09s2.56,60.69,100.58,53.46S273.71,171.44,273.71,171.44Z"/><path class="cls-9" d="M204.8,227.25c-72.61,5.36-92.84-26.56-98.45-43.46l-24.86,1.83s2.56,60.69,100.58,53.46c32.49-2.4,53.5-10.64,67.09-20.58C237.47,222.75,222.92,225.91,204.8,227.25Z"/><ellipse class="cls-6" cx="177.6" cy="178.53" rx="96.37" ry="30.39" transform="translate(-12.66 13.55) rotate(-4.22)"/><path class="cls-10" d="M243.16,158.2c-18.16-4.29-42.08-5.62-67.34-3.75s-48.71,6.69-66,13.6c-19.51,7.76-23.37,15-23.21,17.19.1,1.37,2.13,4.57,8.86,7.95A76.74,76.74,0,0,0,112,198.86c18.17,4.28,42.08,5.62,67.34,3.76s48.72-6.7,66.05-13.61A76.84,76.84,0,0,0,261,181c6.16-4.34,7.7-7.79,7.59-9.16C268.48,169.66,263.59,163,243.16,158.2Z"/><path class="cls-11" d="M244.42,175.3c-18.16-4.29-42.08-5.62-67.34-3.76s-48.71,6.69-66.05,13.6a75.78,75.78,0,0,0-15.61,8.05A76.74,76.74,0,0,0,112,198.86c18.17,4.28,42.08,5.62,67.34,3.76s48.72-6.7,66.05-13.61A76.84,76.84,0,0,0,261,181,76,76,0,0,0,244.42,175.3Z"/></g><g id="Layer_15" data-name="Layer 15"><rect class="cls-12" width="350" height="270"/><path class="cls-13" d="M175,237.31c-10.86-.18-125-9.24-130-11.26s0-6.43,6.73-7.64S154.08,203.6,154.08,203.6l46.52-9.9,60.59-1.64s44.84,6.53,45.9,13.23S186.61,237.52,175,237.31Z"/><polygon class="cls-14" points="196.68 84.96 196.68 128.37 204.52 129.45 204.52 83.28 196.68 84.96"/><polygon class="cls-14" points="215.16 84.96 215.16 128.37 223.01 129.45 223.01 83.28 215.16 84.96"/><polygon class="cls-14" points="233.65 84.96 233.65 128.37 241.49 129.45 241.49 83.28 233.65 84.96"/><polygon class="cls-14" points="252.13 84.96 252.13 128.37 259.98 129.45 259.98 83.28 252.13 84.96"/><polygon class="cls-14" points="270.62 87.27 270.62 130.68 278.46 131.76 278.46 85.59 270.62 87.27"/><path class="cls-14" d="M295.83,85.31c-20.73-12.61-94.95-7.85-106.15-4.2s-16.53,12-16.81,31.64,7.56,88.79,7.56,88.79l6.73-4.2-.56-7.29a889.41,889.41,0,0,1,103.06,5.89s4.77,7.84,4.77,12.32l6.72-4.2C305.91,169.89,313.94,96.32,295.83,85.31Zm-.77,43.93s-101.8-4.46-112.38-6c0,0-2.46-21.92,2.87-28.64,6.65-8.4,32.74-9.63,59.58-7.91,28.83,1.84,47.69,1.89,50.49,15.89A65.5,65.5,0,0,1,295.06,129.24Z"/><path class="cls-15" d="M289.1,85.31C268.38,72.7,194.16,77.46,183,81.11s-16.53,12-16.81,31.64,2.8,87.39,2.8,87.39,3.08,1.4,11.48,1.4l-.56-11.49a889.53,889.53,0,0,1,103.07,5.89v11.48l11.49.84C299.19,174.09,307.22,96.32,289.1,85.31Zm-22.68,3.56v39.38l-10.64-.49V87.82C259.62,88.11,263.17,88.44,266.42,88.87Zm-18.49-1.58v40.1l-10.64-.51V86.64l1.12.07Zm-37,38.26L200.32,125V87c3.32-.37,6.89-.62,10.64-.77ZM218.81,86c3.46,0,7,.07,10.64.21v40.24L218.81,126ZM176,123.26s-2.45-21.92,2.87-28.64c2.37-3,7.21-5.07,13.66-6.43v36.32C184.22,124,178.14,123.57,176,123.26Zm112.38,6-14.07-.63V90.3c8.17,2,13.28,5.53,14.63,12.3A65.5,65.5,0,0,1,288.33,129.24Z"/><path class="cls-16" d="M283.82,161.8a6,6,0,0,0-5.25-6.21c-5.64-1.05-84.7-5.64-88.21-5.45S56.58,163.36,56.58,169.66V193.4l114.85,1.47Z"/><path class="cls-17" d="M220.52,176.62s-3.82-6.64-1.9-6.87,16.17-4.52,20.6-6.6,8.54-4.25,12.91-4.46,12.24,3.85,17.94,2.22,2.8-5.89,2.79-5.9c-11.35-.93-36.57-2.49-56.18-3.6l-21.83,10.15,1,21.6Z"/><path class="cls-18" d="M287,188.78l-5.25-18.07-57.34,12.51,3.13,8.06c15.63.81,33.83,2.14,52.63,4.33Z"/><polygon class="cls-19" points="289.52 163.15 283.82 161.8 152.09 177.87 145.81 204.65 281.3 187.42 283.29 167.13 289.52 163.15"/><polygon class="cls-20" points="157.79 179.22 289.52 163.15 287 188.78 151.51 206 157.79 179.22"/><path class="cls-21" d="M288.64,172.09c-2.41,4.27-6.35,9.15-12.35,11.13-11.64,3.85-49.43,8.61-86.19,12.39-30,3.09-30.88-11-30.08-16.65l-2.23.26L151.51,206,287,188.78Z"/><polygon class="cls-14" points="75.48 134.93 75.48 178.34 83.32 179.43 83.32 133.25 75.48 134.93"/><polygon class="cls-14" points="93.97 134.93 93.97 178.34 101.81 179.43 101.81 133.25 93.97 134.93"/><polygon class="cls-14" points="112.45 134.93 112.45 178.34 120.29 179.43 120.29 133.25 112.45 134.93"/><polygon class="cls-14" points="130.94 134.93 130.94 178.34 138.78 179.43 138.78 133.25 130.94 134.93"/><polygon class="cls-14" points="149.42 137.24 149.42 180.66 157.26 181.74 157.26 135.56 149.42 137.24"/><path class="cls-14" d="M174.63,135.28c-20.73-12.6-94.95-7.84-106.15-4.2s-16.53,12-16.81,31.65,7.57,61.9,7.57,61.9l6.72-4.2-.56-7.29A890.87,890.87,0,0,1,168.47,219s4.76,7.85,4.76,12.33l6.72-4.2C184.71,193,192.74,146.3,174.63,135.28Zm-.77,43.94s-101.8-4.46-112.38-6c0,0-2.46-21.92,2.87-28.64C71,136.2,97.1,135,123.93,136.68c28.83,1.84,47.69,1.89,50.49,15.9A65.52,65.52,0,0,1,173.86,179.22Z"/><path class="cls-22" d="M167.91,135.28c-20.73-12.6-94.95-7.84-106.15-4.2s-16.53,12-16.81,31.65,2.8,60.5,2.8,60.5,3.08,1.4,11.49,1.4l-.56-11.49A890.66,890.66,0,0,1,161.74,219v11.49l11.49.84C178,197.18,186,146.3,167.91,135.28Zm-22.69,3.56v39.39l-10.64-.49v-40C138.42,138.08,142,138.41,145.22,138.84Zm-18.48-1.57v40.1l-10.65-.52V136.61l1.12.07Zm-37,38.25c-3.72-.19-7.29-.39-10.65-.58v-38c3.32-.38,6.89-.63,10.65-.77ZM97.61,136c3.46,0,7,.08,10.64.21v40.25l-10.64-.54ZM54.76,173.23s-2.46-21.92,2.87-28.64c2.36-3,7.2-5.06,13.65-6.43v36.33C63,174,56.94,173.55,54.76,173.23Zm112.38,6-14.08-.63V140.28c8.17,2,13.28,5.53,14.64,12.3A65.52,65.52,0,0,1,167.14,179.22Z"/><path class="cls-23" d="M58.47,203.48s-1.89-18.9-1.89-19.74S164.13,190,165,190s-1.89,18.9-2.32,19.74S58.47,203.48,58.47,203.48Z"/><path class="cls-24" d="M56.58,183.74c0,.84,1.89,19.74,1.89,19.74l3.68.25,1.36-3s-.64-11.25-1.12-16.94A38.71,38.71,0,0,0,56.58,183.74Z"/><path class="cls-25" d="M162.65,209.78a31,31,0,0,0,.72-3.8c-34-1-99.13-5.65-99.86-5.23s-5,2.73-5,2.73S162.23,210.62,162.65,209.78Z"/></g></g></svg>