<svg xmlns="http://www.w3.org/2000/svg" xmlns:xlink="http://www.w3.org/1999/xlink" viewBox="0 0 1920 900"><defs><clipPath id="e446a4a5-352c-4392-b586-00ff4f747c6a"><rect width="1920" height="900" style="fill:none"/></clipPath><linearGradient id="b06d68b2-a3ea-47b0-9304-6459d3d856f5" x1="961.28" y1="900.72" x2="961.28" y2="0.72" gradientUnits="userSpaceOnUse"><stop offset="0" stop-color="#0a76bd"/><stop offset="0.48" stop-color="#0466a1"/><stop offset="0.99" stop-color="#4eb9e0"/></linearGradient><linearGradient id="ad246671-d3b3-4aa3-81b0-4549cce9f2f7" x1="957.59" y1="912.95" x2="953.18" y2="566.16" gradientUnits="userSpaceOnUse"><stop offset="0.2" stop-color="#056cab"/><stop offset="0.54" stop-color="#076eaa"/><stop offset="0.72" stop-color="#0c76a9"/><stop offset="0.85" stop-color="#1482a6"/><stop offset="0.87" stop-color="#2285a2"/><stop offset="0.91" stop-color="#488d97"/><stop offset="0.96" stop-color="#859986"/><stop offset="1" stop-color="#bba477"/></linearGradient></defs><g id="abc2b30d-0684-446d-b6c0-e9363b234dea" data-name="Layer 13"><g style="clip-path:url(#e446a4a5-352c-4392-b586-00ff4f747c6a)"><rect x="261.27" y="175.71" width="1400" height="725" style="fill:#2356a7;opacity:0.2"/><g style="opacity:0.2"><rect x="361.27" y="100.71" width="1200" height="800" style="fill:#ee2f29"/></g><g id="ba3d088e-6282-4a23-add3-6c2e49ea764a" data-name="Layer10 0 FILL"><path d="M1921.28,900.72V.72H1.28v900Z" style="fill:url(#b06d68b2-a3ea-47b0-9304-6459d3d856f5)"/></g><path d="M700.49,525.05c-16.4,6.8-61.21,31-61.21,31,9.92-12,42.22-31.59,54.77-39a192.51,192.51,0,0,0-28.82-27.23c-18.64,16.73-52.53,50.88-52.53,50.88,13.4-20.68,36.12-47.17,44.49-56.74a206.33,206.33,0,0,0-27.53-16c-19.13,16.5-54.47,56.88-54.47,56.88,11-21.66,37.07-52,45.16-61.12a233.29,233.29,0,0,0-29.5-10.29c-16.4,14.4-42.47,49.94-42.47,49.94,10.37-23.51,24.76-43.37,32-52.6a279.51,279.51,0,0,0-37.13-5.88c-10.46,16.71-26.33,51.24-26.33,51.24,2.45-18.43,11.91-41.46,16.56-52q-6.66-.41-13.62-.54c-7.36-.14-14.45,0-21.29.41-5.95,35-6.4,96.48-6.4,96.48-5.56-37.39-5.77-75.91-5.4-95.52a227.24,227.24,0,0,0-33.64,6.09c2,22.11,6.32,63.83,13.48,94.31,0,0-20.65-48.49-26.23-90.51a191.65,191.65,0,0,0-28.69,12.19c8.68,26,31.75,73.08,31.75,73.08-10.52-13.21-33.51-51.54-42.6-66.89a180.57,180.57,0,0,0-15.12,10.39l30.86,75L386.83,515.9a7.28,7.28,0,1,1-7.18-10.33L372.26,495A187.85,187.85,0,0,0,350,519.62l24,51.93L342.1,531c-12,18.55-16.43,32.66-16.43,32.66l21.9,23.86L701.4,591l16.3-37.65S712.85,541.24,700.49,525.05Zm-103.09,27a7.29,7.29,0,1,1,7.85-6.68A7.29,7.29,0,0,1,597.4,552.09Z" style="fill:#245b70"/><ellipse cx="531.47" cy="527.9" rx="7.29" ry="7.28" transform="translate(-37.72 1014.89) rotate(-85.36)" style="fill:#245b70"/><ellipse cx="616.76" cy="493.45" rx="7.29" ry="7.28" transform="translate(75.01 1068.24) rotate(-85.36)" style="fill:#245b70"/><ellipse cx="391.64" cy="558.18" rx="7.29" ry="7.28" transform="translate(-196.41 903.35) rotate(-85.36)" style="fill:#245b70"/><path d="M858.23,631c-.39,7.07-.83,14.14-1.48,21.2s-1.38,14.12-2.36,21.16c-1.15-7-2-14-2.95-21l-1.31-10.51-1.26-10.5-4.82-41.85c-3.21-27.81-6.61-55.49-11.06-82.85-1.13-6.83-2.31-13.65-3.63-20.42-.62-3.4-1.35-6.77-2-10.15s-1.44-6.73-2.22-10.08c-1.56-6.69-3.22-13.33-5.08-19.9l-1.45-4.91c-.34-1.06-.68-2.11-1-3.18-.17-.55-.35-1.12-.52-1.68l-1.62-4.82c-.58-1.59-1.12-3.2-1.73-4.77a151.46,151.46,0,0,0-8.19-18.35,87.37,87.37,0,0,0-5.13-8.44,59,59,0,0,0-6.09-7.55c-4.41-4.6-9.76-8.3-16-9.41a21.45,21.45,0,0,0-4.75-.28,20.34,20.34,0,0,0-4.84.81,26.93,26.93,0,0,0-9.13,4.73,25,25,0,0,1,8-7.36,24,24,0,0,1,11-3.18,25.94,25.94,0,0,1,5.9.41l.73.12.72.17,1.45.35,1.41.44.7.23.69.26a43.79,43.79,0,0,1,10.21,5.65A75.37,75.37,0,0,1,816,401.61c.57.75,1.09,1.52,1.62,2.29s1.06,1.53,1.55,2.31c1,1.57,2,3.14,2.91,4.74l1.39,2.39,1.34,2.43c.91,1.6,1.69,3.25,2.53,4.89s1.57,3.31,2.36,5l2.22,5c.71,1.67,1.38,3.37,2.07,5.05l1.93,5.1c2.51,6.81,4.7,13.7,6.64,20.65s3.67,13.92,5.17,20.93c.79,3.5,1.45,7,2.15,10.53.34,1.76.63,3.52,1,5.29s.63,3.51.92,5.28q2.78,17,4.43,34.1c.27,2.77.52,5.56.75,8.33.58,7.1,1,14.18,1.36,21.27.15,3.55.33,7.1.44,10.64l.23,10.64C859.19,602.62,859,616.8,858.23,631Z" style="fill:#245b70"/><path d="M880.93,510.52q-.63,40.85-4.16,81.61c-.29,3.4-.63,6.79-1,10.19s-.64,6.78-1,10.17c-.73,6.78-1.61,13.54-2.48,20.31l-1.38,10.13c-.51,3.38-1.05,6.75-1.61,10.13-1.12,6.73-2.29,13.46-3.66,20.17q-.31-6.59-.51-13.15c-.75-22.91-.69-45.7-.77-68.49,0-27.14.33-54.23.78-81.35s1.21-54.21,2.26-81.34,2.39-54.29,4.88-81.54c1.08,6.77,1.94,13.55,2.71,20.33q.59,5.08,1.09,10.18l.95,10.19c.6,6.78,1.1,13.58,1.56,20.38.25,3.4.42,6.8.62,10.2s.4,6.81.55,10.2Q881.68,469.67,880.93,510.52Z" style="fill:#245b70"/><path d="M873.6,521.36c-.3,22.38-5.29,94.85-8.44,138.72-.75-22.91-.69-45.7-.77-68.49,0-27.14.33-54.23.78-81.35s1.21-54.21,2.26-81.34,2.39-54.29,4.88-81.54C872.31,347.36,874,488.52,873.6,521.36Z" style="fill:#245b70"/><path d="M856.22,537.56c-11.1-47.6-25.32-79-38.65-99.65-.17-.55-.35-1.12-.52-1.68l-1.62-4.82c-.58-1.59-1.12-3.2-1.73-4.77a151.46,151.46,0,0,0-8.19-18.35,87.37,87.37,0,0,0-5.13-8.44,59,59,0,0,0-6.09-7.55c-4.41-4.6-9.76-8.3-16-9.41a21.45,21.45,0,0,0-4.75-.28,20.34,20.34,0,0,0-4.84.81,26.93,26.93,0,0,0-9.13,4.73,25,25,0,0,1,8-7.36,24,24,0,0,1,11-3.18,25.94,25.94,0,0,1,5.9.41l.73.12.72.17,1.45.35,1.41.44.7.23.69.26a43.79,43.79,0,0,1,10.21,5.65A75.37,75.37,0,0,1,816,401.61c.57.75,1.09,1.52,1.62,2.29s1.06,1.53,1.55,2.31c1,1.57,2,3.14,2.91,4.74l1.39,2.39,1.34,2.43c.91,1.6,1.69,3.25,2.53,4.89s1.57,3.31,2.36,5l2.22,5c.71,1.67,1.38,3.37,2.07,5.05l1.93,5.1c2.51,6.81,4.7,13.7,6.64,20.65s3.67,13.92,5.17,20.93c.79,3.5,1.45,7,2.15,10.53.34,1.76.63,3.52,1,5.29s.63,3.51.92,5.28Q854.57,520.45,856.22,537.56Z" style="fill:#245b70"/><path d="M1475.73,609.41c-1.76,6.86-3.56,13.71-5.59,20.51s-4.1,13.58-6.44,20.29c.25-7.11.74-14.17,1.22-21.22l.76-10.57.81-10.54,3.45-42c2.29-27.9,4.36-55.71,5.33-83.41.23-6.93.4-13.85.43-20.74.06-3.46,0-6.9,0-10.35s-.1-6.88-.21-10.32c-.22-6.86-.56-13.71-1.1-20.51l-.46-5.1c-.13-1.1-.26-2.21-.38-3.31l-.18-1.76-.64-5c-.27-1.67-.49-3.36-.78-5a149.67,149.67,0,0,0-4.45-19.59,88.36,88.36,0,0,0-3.38-9.28,58.29,58.29,0,0,0-4.49-8.59c-3.44-5.38-8-10.05-13.85-12.35a21.48,21.48,0,0,0-4.6-1.21,21.15,21.15,0,0,0-4.91-.15,27,27,0,0,0-9.88,2.86,25.14,25.14,0,0,1,9.29-5.66,24,24,0,0,1,11.4-1,26.29,26.29,0,0,1,5.7,1.55l.69.27.67.3,1.36.63,1.29.71.65.35.63.4a43.58,43.58,0,0,1,8.9,7.54,74.8,74.8,0,0,1,12.16,19.11c.42.84.78,1.7,1.14,2.56s.75,1.7,1.08,2.57c.66,1.73,1.35,3.46,1.92,5.21l.91,2.62.83,2.64c.59,1.75,1,3.52,1.53,5.29s.9,3.55,1.35,5.32l1.2,5.35c.37,1.78.69,3.58,1,5.36l.9,5.38c1.14,7.17,1.94,14.36,2.49,21.54s.88,14.38,1,21.54c.09,3.59,0,7.17,0,10.76,0,1.79-.07,3.57-.1,5.36s-.06,3.58-.13,5.36c-.39,11.48-1.19,22.93-2.31,34.31q-.4,4.17-.89,8.32c-.82,7.07-1.74,14.11-2.82,21.13-.55,3.51-1.06,7-1.65,10.52l-1.85,10.47C1482.21,581.82,1479.22,595.68,1475.73,609.41Z" style="fill:#245b70"/><path d="M1521.51,495.74q-8.6,39.93-20,79.23c-.94,3.27-1.94,6.53-2.93,9.8s-2,6.53-3,9.77c-2,6.51-4.22,13-6.4,19.44l-3.33,9.67q-1.74,4.83-3.56,9.62c-2.4,6.38-4.87,12.75-7.53,19.06q1-6.51,2.07-13c3.75-22.62,8.25-45,12.62-67.33,5.3-26.61,10.92-53.12,16.65-79.62s11.77-52.94,18.1-79.34,12.94-52.77,20.71-79c-.26,6.85-.74,13.66-1.32,20.46-.27,3.4-.59,6.8-.91,10.2l-1.06,10.17c-.74,6.78-1.57,13.54-2.45,20.31-.42,3.37-.91,6.74-1.39,10.12s-.93,6.75-1.45,10.11Q1530.24,455.82,1521.51,495.74Z" style="fill:#245b70"/><path d="M1512.21,504.94c-4.66,21.89-23.71,92-35.37,134.4,3.75-22.62,8.25-45,12.62-67.33,5.3-26.61,10.92-53.12,16.65-79.62s11.77-52.94,18.1-79.34,12.94-52.77,20.71-79C1544.92,334,1519,472.81,1512.21,504.94Z" style="fill:#245b70"/><path d="M1492,517.43c-1.59-48.85-9.41-82.43-18.45-105.27l-.18-1.76-.64-5c-.27-1.67-.49-3.36-.78-5a149.67,149.67,0,0,0-4.45-19.59,88.36,88.36,0,0,0-3.38-9.28,58.29,58.29,0,0,0-4.49-8.59c-3.44-5.38-8-10.05-13.85-12.35a21.48,21.48,0,0,0-4.6-1.21,21.15,21.15,0,0,0-4.91-.15,27,27,0,0,0-9.88,2.86,25.14,25.14,0,0,1,9.29-5.66,24,24,0,0,1,11.4-1,26.29,26.29,0,0,1,5.7,1.55l.69.27.67.3,1.36.63,1.29.71.65.35.63.4a43.58,43.58,0,0,1,8.9,7.54,74.8,74.8,0,0,1,12.16,19.11c.42.84.78,1.7,1.14,2.56s.75,1.7,1.08,2.57c.66,1.73,1.35,3.46,1.92,5.21l.91,2.62.83,2.64c.59,1.75,1,3.52,1.53,5.29s.9,3.55,1.35,5.32l1.2,5.35c.37,1.78.69,3.58,1,5.36l.9,5.38c1.14,7.17,1.94,14.36,2.49,21.54s.88,14.38,1,21.54c.09,3.59,0,7.17,0,10.76,0,1.79-.07,3.57-.1,5.36s-.06,3.58-.13,5.36C1493.92,494.6,1493.12,506.05,1492,517.43Z" style="fill:#245b70"/><path d="M1470.42,653.84l-.1,0a2.31,2.31,0,0,1-1.71-2.77c15.54-65.78,46.41-297.61,46.72-299.94a2.3,2.3,0,0,1,4.56.6c-.31,2.34-31.21,234.4-46.8,300.4A2.31,2.31,0,0,1,1470.42,653.84Z" style="fill:#245b70"/><path d="M1523.73,290.4a2.3,2.3,0,0,1-1.85-2.55l2.91-23a2.3,2.3,0,1,1,4.56.57l-2.91,23a2.3,2.3,0,0,1-2.57,2Z" style="fill:#245b70"/><path d="M1537,287.94l-8.24,65.14c-.81,6.42-6,11.1-11.57,10.4l-5-.64c-5.54-.7-9.42-6.53-8.61-12.95l8.24-65.14c.82-6.42,6-11.1,11.57-10.4l5.05.64C1533.94,275.69,1537.81,281.52,1537,287.94Z" style="fill:#245b70"/><path d="M1537,287.94l-8.24,65.14c-.81,6.42-6,11.1-11.57,10.4l-1.06-.13,11.2-88.49,1.06.13C1533.94,275.69,1537.81,281.52,1537,287.94Z" style="fill:#245b70"/><path d="M1024.22,575.45c-.82,7-1.68,14.07-2.77,21.07s-2.23,14-3.64,21c-.71-7.08-1.18-14.14-1.66-21.19l-.67-10.57-.62-10.56-2.26-42.06c-1.51-28-3.22-55.79-6-83.37-.7-6.89-1.47-13.77-2.38-20.61-.41-3.43-.93-6.83-1.4-10.25s-1-6.81-1.6-10.19c-1.15-6.77-2.4-13.51-3.86-20.18l-1.15-5c-.27-1.08-.55-2.15-.82-3.23l-.42-1.71-1.32-4.92c-.48-1.61-.93-3.26-1.44-4.86A151.23,151.23,0,0,0,985.15,350a88.44,88.44,0,0,0-4.6-8.74,59.07,59.07,0,0,0-5.62-7.91c-4.13-4.86-9.23-8.88-15.39-10.36a21.17,21.17,0,0,0-4.72-.57,20.26,20.26,0,0,0-4.88.52,27,27,0,0,0-9.41,4.16,25.14,25.14,0,0,1,8.44-6.86,24,24,0,0,1,11.17-2.5,26.45,26.45,0,0,1,5.86.76l.72.17.7.21,1.43.44,1.38.52.69.27.67.31a43.38,43.38,0,0,1,9.84,6.26A75.1,75.1,0,0,1,996.07,344c.52.79,1,1.58,1.47,2.38s1,1.6,1.42,2.41c.88,1.63,1.8,3.25,2.61,4.9l1.25,2.48,1.18,2.49c.82,1.66,1.5,3.36,2.23,5.05s1.37,3.39,2,5.09l1.92,5.13c.61,1.72,1.16,3.45,1.75,5.17l1.62,5.21c2.09,7,3.85,14,5.37,21s2.82,14.13,3.89,21.21c.57,3.54,1,7.09,1.5,10.65.24,1.77.42,3.55.63,5.33s.42,3.55.59,5.33c1.17,11.42,1.93,22.87,2.36,34.3q.15,4.18.24,8.37c.14,7.11.18,14.21.06,21.31-.07,3.55-.1,7.1-.21,10.65l-.42,10.63C1026.91,547.24,1025.82,561.37,1024.22,575.45Z" style="fill:#245b70"/><path d="M998.45,616.46c-2.29-5.56-4.39-11.18-6.45-16.82s-4-11.32-6-17-3.47-11.48-5.12-17.26c-.84-2.88-1.63-5.78-2.44-8.67s-1.63-5.78-2.35-8.69l-2-8.77-2-8.79c-.65-2.94-1.31-5.87-1.92-8.81-.3-1.48-.65-2.94-.9-4.42l-.8-4.44c-1-5.92-2-11.85-3-17.79l-.72-4.45c-.23-1.49-.39-3-.59-4.48l-1.08-9-1.05-9c-.16-1.5-.35-3-.48-4.49l-.34-4.51c-.4-6-.87-12-1.22-18.05-.17-6-.33-12.07-.4-18.11-.08-3,0-6,.08-9l.28-9.07c0-1.5.06-3,.18-4.52l.34-4.53c.23-3,.46-6,.72-9,.07-.75.13-1.51.21-2.26l.28-2.26.56-4.5.6-4.49.3-2.25c.11-.74.25-1.49.38-2.24.55-3,1.07-6,1.63-8.93s1.33-5.91,2-8.84c.17-.74.36-1.47.57-2.2l.62-2.19c.43-1.45.83-2.9,1.28-4.34l1.48-4.29c.54-1.42,1.07-2.83,1.71-4.2-.11.75-.19,1.49-.27,2.25s-.17,1.48-.23,2.23l-.35,4.46c-.11,1.49-.17,3-.26,4.47s-.21,2.95-.22,4.44c-.06,3-.21,5.94-.25,8.89l0,8.88,0,2.22,0,2.22.09,4.43.06,4.43,0,2.21c0,.74.07,1.47.1,2.21.15,2.95.25,5.9.35,8.84l.17,4.42c.06,1.47.19,2.95.27,4.42l.55,8.82c.1,1.48.17,2.95.25,4.41s.23,2.94.34,4.41c.55,5.88,1,11.75,1.44,17.62.66,5.87,1.2,11.74,1.81,17.6l.42,4.4c.15,1.47.37,2.93.54,4.39l1.08,8.79c1.25,11.73,3,23.43,4.52,35.16.64,5.88,1.75,11.7,2.54,17.57l1.3,8.79,1.2,8.83c.92,5.85,1.89,11.72,2.76,17.6l1.29,8.83c.42,3,.79,5.91,1.24,8.86.95,5.88,1.86,11.77,2.68,17.71S997.87,610.45,998.45,616.46Z" style="fill:#245b70"/><path d="M1180.49,626.21c-2.3-5.56-4.4-11.18-6.46-16.82q-.9-2.48-1.78-4.95c-1.42-4-2.8-8-4.17-12.06-1.8-5.72-3.46-11.48-5.12-17.26-.85-2.88-1.63-5.78-2.44-8.67s-1.64-5.78-2.35-8.69l-2.05-8.77-2-8.79c-.65-2.94-1.32-5.87-1.93-8.81-.3-1.48-.65-2.94-.9-4.42l-.8-4.44c-1-5.92-2-11.85-3-17.79l-.72-4.45c-.22-1.49-.39-3-.59-4.48l-1.08-9-1-9c-.17-1.5-.36-3-.49-4.49l-.33-4.51c-.41-6-.88-12-1.23-18.05-.17-6-.33-12.07-.4-18.11-.08-3,0-6,.08-9l.28-9.07c0-1.5.06-3,.18-4.52l.34-4.53c.23-3,.45-6,.73-9,.06-.75.12-1.51.2-2.26l.28-2.26.57-4.5.59-4.49.3-2.25c.11-.74.25-1.49.38-2.24.55-3,1.07-6,1.63-8.93s1.33-5.91,2-8.84c.16-.74.35-1.47.56-2.2l.62-2.19c.43-1.45.82-2.9,1.28-4.34l1.48-4.29c.54-1.41,1.08-2.83,1.71-4.19-.11.74-.19,1.49-.26,2.24s-.18,1.48-.24,2.23l-.36,4.46c-.1,1.49-.16,3-.25,4.47s-.22,2.95-.22,4.44c0,3-.21,5.94-.26,8.89l0,8.88,0,2.22,0,2.22.09,4.43.07,4.43,0,2.21c0,.74.06,1.47.1,2.21,0,.31,0,.62,0,.92.13,2.65.22,5.28.32,7.93l.16,4.41c.06,1.47.19,2.95.27,4.42l.56,8.82c.1,1.48.16,2.95.24,4.41s.23,2.94.34,4.42c.55,5.87,1,11.74,1.44,17.61.66,5.87,1.2,11.74,1.81,17.6l.42,4.4c.15,1.47.36,2.93.54,4.39l1.08,8.79c1.25,11.74,3,23.43,4.52,35.16.64,5.88,1.74,11.7,2.55,17.57l1.28,8.79,1.21,8.83c.92,5.86,1.89,11.72,2.75,17.6l1.3,8.83c.42,3,.79,5.91,1.24,8.86,1,5.88,1.86,11.77,2.68,17.71S1179.89,620.2,1180.49,626.21Z" style="fill:#245b70"/><path d="M1054.21,456.63q-3.12,40.72-9.12,81.2c-.49,3.38-1,6.75-1.57,10.11s-1.06,6.73-1.64,10.09c-1.13,6.72-2.42,13.42-3.7,20.13l-2,10q-1.07,5-2.22,10c-1.52,6.66-3.11,13.3-4.89,19.91q.11-6.58.29-13.15c.66-22.91,2.1-45.65,3.41-68.41,1.64-27.09,3.63-54.11,5.73-81.15s4.51-54,7.2-81.05,5.7-54,9.84-81.09c.67,6.82,1.11,13.64,1.47,20.45.18,3.41.33,6.82.47,10.23l.32,10.22c.19,6.82.27,13.63.32,20.45,0,3.4,0,6.81,0,10.22s0,6.81-.08,10.21Q1057.46,415.89,1054.21,456.63Z" style="fill:#245b70"/><path d="M1200,416.36l-1,13.25c-.33,4.42-.73,8.83-1.11,13.24s-.8,8.81-1.25,13.23-.86,8.81-1.38,13.21c-1,8.79-2,17.6-3.3,26.37-.61,4.4-1.19,8.79-1.88,13.16L1188,522c-3,17.48-6.35,34.9-10.4,52.17-2.15,8.62-4.22,17.23-6.72,25.75-1.52,5.51-3.19,11-5,16.44-1,3-2,6-3,8.95l5.43-52.68q2.52-26.28,4.78-52.5l1-13.12c.39-4.36.73-8.74,1.07-13.11l2-26.24c.59-8.75,1.34-17.5,1.86-26.25l1.81-26.26,3.38-52.57,3.28-52.64q1.46-22.57,3-45.19c.17-2.51.34-5,.52-7.52.62-8.8,1.25-17.6,1.94-26.41s1.38-17.63,2.21-26.46c1.29,8.78,2.23,17.6,3.07,26.41s1.5,17.65,2.09,26.48c1.14,17.66,1.8,35.35,2.12,53,.15,8.84.23,17.69.17,26.53,0,4.42,0,8.85-.11,13.28l-.25,13.27C1201.87,381,1201.12,398.7,1200,416.36Z" style="fill:#245b70"/><path d="M1310.36,461.93a31.17,31.17,0,0,0-12.6-7.14,30.56,30.56,0,0,0-13.37-.73c-8.7,1.45-16.37,6.2-22.83,12.39a102.4,102.4,0,0,0-16.79,21.76c-2.4,4-4.64,8.2-6.75,12.47s-4.1,8.62-6,13.06-3.67,8.93-5.36,13.48l-1.27,3.42-1.23,3.44c-.85,2.28-1.58,4.62-2.41,6.92-3.13,9.27-6,18.69-8.87,28.19s-5.55,19.09-8.34,28.74l-1.06,3.62c-.35,1.21-.67,2.42-1,3.63l-2.14,7.27c-.69,2.43-1.47,4.85-2.2,7.29s-1.49,4.87-2.35,7.29c-.45-5.11-.66-10.21-.71-15.31,0-.53,0-1.05,0-1.58q0-6.85.26-13.71a300.43,300.43,0,0,1,2.93-30.48,246.23,246.23,0,0,1,16.26-59.66c1-2.41,2.12-4.79,3.22-7.18s2.31-4.73,3.59-7.05a138.66,138.66,0,0,1,8.29-13.65c6.09-8.8,13.43-17.1,22.56-23.59a65.54,65.54,0,0,1,7.19-4.41,55.35,55.35,0,0,1,7.82-3.37,43,43,0,0,1,17-2.29c.9.07,1.78.17,2.67.31A33.29,33.29,0,0,1,1300,450,27.56,27.56,0,0,1,1310.36,461.93Z" style="fill:#245b70"/><path d="M1175.17,339.66c-6.5,1.72-12.31,5-17.7,8.6a99,99,0,0,0-14.83,12.54l-1.68,1.74-.85.86-.8.91-3.19,3.64c-.55.58-1,1.26-1.53,1.88l-1.51,1.89c-1,1.26-2,2.5-2.93,3.84-.46.64-.91,1.28-1.35,1.91h0l-1.45,2-.71,1-.66,1-1.31,2L1122,387.6l-2.45,4.19c-.81,1.4-1.66,2.77-2.44,4.18l-2.25,4.31-2.26,4.29-2.09,4.4-2.08,4.39c-.37.72-.66,1.49-1,2.23l-1,2.24-1.94,4.47-1,2.23c-.3.76-.59,1.52-.88,2.28-1.15,3.05-2.34,6.08-3.53,9.11s-2.14,6.17-3.21,9.24c-.52,1.56-1.12,3.07-1.61,4.64l-1.46,4.67c-1,3.14-2,6.23-2.9,9.38-7.31,25.18-13,50.94-17.91,77-.59,3.25-1.25,6.5-1.88,9.76s-1.09,6.54-1.69,9.81l-1.75,9.83c-.62,3.27-1.07,6.56-1.64,9.85l-1.68,9.87-.87,4.93-.79,5c-1.06,6.61-2.18,13.22-3.49,19.83-.45-6.71-.7-13.43-.89-20.15,0-1.68-.1-3.36-.13-5l0-5,.12-10.08.1-5c0-1.68.06-3.36.15-5l.56-10.07c.18-3.36.42-6.73.63-10.08s.61-6.71,1-10.06q.44-4.41,1-8.8a434.6,434.6,0,0,1,14.1-70.88c4-13,8.39-25.94,14.1-38.41.35-.78.68-1.57,1-2.35l1.13-2.32,2.26-4.62c.77-1.53,1.47-3.09,2.3-4.59l2.52-4.51,2.51-4.5c.88-1.47,1.8-2.94,2.73-4.39l2.76-4.36c1-1.44,2-2.84,3-4.25s2-2.82,3-4.22l3.24-4.05,1.62-2,.81-1,.86-1c1.15-1.29,2.32-2.57,3.49-3.85s2.38-2.5,3.62-3.72,2.42-2.46,3.73-3.61l3.92-3.41,1-.85,1-.79,2.07-1.59a88,88,0,0,1,17.79-10.56l2.38-1c.78-.33,1.61-.59,2.42-.88,1.6-.6,3.27-1,4.91-1.51s3.34-.77,5-1c.83-.14,1.68-.2,2.52-.29S1174.33,339.63,1175.17,339.66Z" style="fill:#245b70"/><path d="M1122.28,451.84c-.26,4.35-.79,8.66-1.46,12.92s-1.54,8.45-2.49,12.59c-1.87,8.29-4.1,16.35-6.37,24.34s-4.62,15.89-7,23.77l-7,23.65c-2.33,7.88-4.68,15.79-7.11,23.69s-4.91,15.86-7.46,23.83c-1.34,4-2.6,8-4,12s-2.79,8-4.47,12a193.19,193.19,0,0,1-.72-25.54l.13-3.28.14-3.07c.12-2.11.27-4.23.43-6.34.31-4.23.8-8.44,1.3-12.64,1.07-8.41,2.52-16.76,4.27-25.06s3.9-16.49,6.32-24.6,5.14-16.11,8.08-24,6.1-15.6,9.27-23.22l4.69-11.39c1.49-3.79,3-7.57,4.36-11.41s2.61-7.72,3.7-11.7,2-8.06,2.78-12.29a63.07,63.07,0,0,1,2.48,12.72A87.83,87.83,0,0,1,1122.28,451.84Z" style="fill:#245b70"/><path d="M965.63,581.5c-.09,1.57-.23,3.15-.37,4.73-.27,3.15-.64,6.3-1,9.44s-1,6.28-1.54,9.41-1.26,6.25-2.12,9.36c-1.8-6.23-2.91-12.42-4.08-18.59-.58-3.07-1.15-6.15-1.62-9.22l-1.45-9.2q-.71-4.59-1.27-9.18c-.45-3.06-.87-6.11-1.24-9.17-.19-1.53-.35-3.06-.54-4.58l-.58-4.58-.53-4.58c-.17-1.53-.31-3.06-.5-4.59-1.37-12.21-2.6-24.43-3.58-36.75l-.7-9.27-.58-9.32c-.06-1.56-.19-3.11-.25-4.68l-.21-4.72c-.13-3.15-.23-6.32-.25-9.55h0a83.37,83.37,0,0,1,4.5,8.5q2,4.35,3.74,8.8l1.66,4.47c.55,1.49,1,3,1.53,4.5s1,3,1.44,4.53.88,3,1.29,4.56A245.61,245.61,0,0,1,964.45,539c.34,3.13.6,6.28.86,9.42l.35,4.71c.07,1.58.15,3.15.19,4.73.12,3.14.18,6.3.22,9.45s-.11,6.31-.23,9.46Z" style="fill:#245b70"/><path d="M1286.81,445.06c-16.59,2.4-43.46,15.12-66.85,66.51-15.53,34.12-22.29,69.28-24.89,98.57q0-6.85.26-13.71a300.43,300.43,0,0,1,2.93-30.48,246.23,246.23,0,0,1,16.26-59.66c1-2.41,2.12-4.79,3.22-7.18s2.31-4.73,3.59-7.05a138.66,138.66,0,0,1,8.29-13.65c6.09-8.8,13.43-17.1,22.56-23.59a65.54,65.54,0,0,1,7.19-4.41,55.35,55.35,0,0,1,7.82-3.37,43,43,0,0,1,17-2.29C1285,444.82,1285.92,444.92,1286.81,445.06Z" style="fill:#245b70"/><path d="M1192.18,407.89c-2.35,43.94-18.64,157.08-26.25,208.43-1,3-2,6-3,8.95l5.43-52.68q2.52-26.28,4.78-52.5l1-13.12c.39-4.36.73-8.74,1.07-13.11l2-26.24c.59-8.75,1.34-17.5,1.86-26.25l1.81-26.26,3.38-52.57,3.28-52.64q1.46-22.57,3-45.19C1192.26,307.7,1194.11,371.83,1192.18,407.89Z" style="fill:#245b70"/><path d="M1172.25,604.44c-1.42-4-2.8-8-4.17-12.06-1.8-5.72-3.46-11.48-5.12-17.26-.85-2.88-1.63-5.78-2.44-8.67s-1.64-5.78-2.35-8.69l-2.05-8.77-2-8.79c-.65-2.94-1.32-5.87-1.93-8.81-.3-1.48-.65-2.94-.9-4.42l-.8-4.44c-1-5.92-2-11.85-3-17.79l-.72-4.45c-.22-1.49-.39-3-.59-4.48l-1.08-9-1-9c-.17-1.5-.36-3-.49-4.49l-.33-4.51c-.41-6-.88-12-1.23-18.05-.17-6-.33-12.07-.4-18.11-.08-3,0-6,.08-9l.28-9.07c0-1.5.06-3,.18-4.52l.34-4.53c.23-3,.45-6,.73-9,.06-.75.12-1.51.2-2.26l.28-2.26.57-4.5.59-4.49.3-2.25c.11-.74.25-1.49.38-2.24.55-3,1.07-6,1.63-8.93s1.33-5.91,2-8.84c.16-.74.35-1.47.56-2.2l.62-2.19c.43-1.45.82-2.9,1.28-4.34l1.48-4.29c.54-1.41,1.08-2.83,1.71-4.19-.11.74-.19,1.49-.26,2.24s-.18,1.48-.24,2.23l-.36,4.46c-.1,1.49-.16,3-.25,4.47s-.22,2.95-.22,4.44c0,3-.21,5.94-.26,8.89l0,8.88,0,2.22,0,2.22.09,4.43.07,4.43,0,2.21c0,.74.06,1.47.1,2.21,0,.31,0,.62,0,.92C1148,436.51,1144.79,508.66,1172.25,604.44Z" style="fill:#245b70"/><path d="M1175.17,339.66c-6.5,1.72-12.31,5-17.7,8.6a99,99,0,0,0-14.83,12.54l-1.68,1.74-.85.86-.8.91-3.19,3.64c-.55.58-1,1.26-1.53,1.88l-1.51,1.89c-1,1.26-2,2.5-2.93,3.84-.46.64-.91,1.28-1.35,1.91h0c-18.16,18.16-46.7,59.93-68,152.79a434.6,434.6,0,0,1,14.1-70.88c4-13,8.39-25.94,14.1-38.41.35-.78.68-1.57,1-2.35l1.13-2.32,2.26-4.62c.77-1.53,1.47-3.09,2.3-4.59l2.52-4.51,2.51-4.5c.88-1.47,1.8-2.94,2.73-4.39l2.76-4.36c1-1.44,2-2.84,3-4.25s2-2.82,3-4.22l3.24-4.05,1.62-2,.81-1,.86-1c1.15-1.29,2.32-2.57,3.49-3.85s2.38-2.5,3.62-3.72,2.42-2.46,3.73-3.61l3.92-3.41,1-.85,1-.79,2.07-1.59a88,88,0,0,1,17.79-10.56l2.38-1c.78-.33,1.61-.59,2.42-.88,1.6-.6,3.27-1,4.91-1.51s3.34-.77,5-1c.83-.14,1.68-.2,2.52-.29S1174.33,339.63,1175.17,339.66Z" style="fill:#245b70"/><path d="M1098.72,514.58c-11.58,14.32-19.54,48.59-24.44,77.16l.14-3.07c.12-2.11.27-4.23.43-6.34.31-4.23.8-8.44,1.3-12.64,1.07-8.41,2.52-16.76,4.27-25.06s3.9-16.49,6.32-24.6,5.14-16.11,8.08-24,6.1-15.6,9.27-23.22l4.69-11.39c1.49-3.79,3-7.57,4.36-11.41s2.61-7.72,3.7-11.7,2-8.06,2.78-12.29C1119.62,426,1120.21,488,1098.72,514.58Z" style="fill:#245b70"/><path d="M1046.23,467c-1.65,22.33-11,94.35-16.87,138,.66-22.91,2.1-45.65,3.41-68.41,1.64-27.09,3.63-54.11,5.73-81.15s4.51-54,7.2-81.05,5.7-54,9.84-81.09C1055.54,293.25,1048.66,434.25,1046.23,467Z" style="fill:#245b70"/><path d="M1027.91,482.11c-8.19-48.18-20.48-80.4-32.52-101.81l-.42-1.71-1.32-4.92c-.48-1.61-.93-3.26-1.44-4.86A151.23,151.23,0,0,0,985.15,350a88.44,88.44,0,0,0-4.6-8.74,59.07,59.07,0,0,0-5.62-7.91c-4.13-4.86-9.23-8.88-15.39-10.36a21.17,21.17,0,0,0-4.72-.57,20.26,20.26,0,0,0-4.88.52,27,27,0,0,0-9.41,4.16,25.14,25.14,0,0,1,8.44-6.86,24,24,0,0,1,11.17-2.5,26.45,26.45,0,0,1,5.86.76l.72.17.7.21,1.43.44,1.38.52.69.27.67.31a43.38,43.38,0,0,1,9.84,6.26A75.1,75.1,0,0,1,996.07,344c.52.79,1,1.58,1.47,2.38s1,1.6,1.42,2.41c.88,1.63,1.8,3.25,2.61,4.9l1.25,2.48,1.18,2.49c.82,1.66,1.5,3.36,2.23,5.05s1.37,3.39,2,5.09l1.92,5.13c.61,1.72,1.16,3.45,1.75,5.17l1.62,5.21c2.09,7,3.85,14,5.37,21s2.82,14.13,3.89,21.21c.57,3.54,1,7.09,1.5,10.65.24,1.77.42,3.55.63,5.33s.42,3.55.59,5.33C1026.72,459.23,1027.48,470.68,1027.91,482.11Z" style="fill:#245b70"/><path d="M976.14,548l-2-8.77-2-8.79c-.65-2.94-1.31-5.87-1.92-8.81-.3-1.48-.65-2.94-.9-4.42l-.8-4.44c-1-5.92-2-11.85-3-17.79l-.72-4.45c-.23-1.49-.39-3-.59-4.48l-1.08-9-1.05-9c-.16-1.5-.35-3-.48-4.49l-.34-4.51c-.4-6-.87-12-1.22-18.05-.17-6-.33-12.07-.4-18.11-.08-3,0-6,.08-9l.28-9.07c0-1.5.06-3,.18-4.52l.34-4.53c.23-3,.46-6,.72-9,.07-.75.13-1.51.21-2.26l.28-2.26.56-4.5.6-4.49.3-2.25c.11-.74.25-1.49.38-2.24.55-3,1.07-6,1.63-8.93s1.33-5.91,2-8.84c.17-.74.36-1.47.57-2.2l.62-2.19c.43-1.45.83-2.9,1.28-4.34l1.48-4.29c.54-1.42,1.07-2.83,1.71-4.2-.11.75-.19,1.49-.27,2.25s-.17,1.48-.23,2.23l-.35,4.46c-.11,1.49-.17,3-.26,4.47s-.21,2.95-.22,4.44c-.06,3-.21,5.94-.25,8.89l0,8.88S959.4,468.68,976.14,548Z" style="fill:#245b70"/><path d="M960.59,614.44c-1.8-6.23-2.91-12.42-4.08-18.59-.58-3.07-1.15-6.15-1.62-9.22l-1.45-9.2q-.71-4.59-1.27-9.18c-.45-3.06-.87-6.11-1.24-9.17-.19-1.53-.35-3.06-.54-4.58l-.58-4.58-.53-4.58c-.17-1.53-.31-3.06-.5-4.59-1.37-12.21-2.6-24.43-3.58-36.75l-.7-9.27-.58-9.32c-.06-1.56-.19-3.11-.25-4.68l-.21-4.72c-.13-3.15-.23-6.32-.25-9.55h0C943.57,467.88,967.83,564.92,960.59,614.44Z" style="fill:#245b70"/><path d="M1038,620.88a2.29,2.29,0,0,1-2.17-2.41c6.67-124.64,50.59-261.7,51-263.07a2.3,2.3,0,0,1,4.38,1.41c-.44,1.37-44.18,137.88-50.82,261.9A2.3,2.3,0,0,1,1038,620.88Z" style="fill:#245b70"/><path d="M1106.38,308.56a2.27,2.27,0,0,1-.67-.13,2.31,2.31,0,0,1-1.37-2.95l7.93-21.78a2.3,2.3,0,0,1,4.32,1.58l-7.93,21.77A2.28,2.28,0,0,1,1106.38,308.56Z" style="fill:#245b70"/><path d="M1119.07,308.92l-22.46,61.7c-2.21,6.08-8.32,9.49-13.58,7.58l-4.78-1.74c-5.26-1.92-7.75-8.46-5.53-14.54l22.45-61.7c2.22-6.08,8.33-9.49,13.58-7.58l4.78,1.74C1118.79,296.3,1121.28,302.83,1119.07,308.92Z" style="fill:#245b70"/><path d="M1119.07,308.92l-22.46,61.7c-2.21,6.08-8.32,9.49-13.58,7.58l-1-.37L1112.53,294l1,.36C1118.79,296.3,1121.28,302.83,1119.07,308.92Z" style="fill:#245b70"/><path d="M1187.33,628.88a2.29,2.29,0,0,1-2.17-2.41c3.43-64,17.88-126.6,29.4-167.84C1227,414,1238.87,384,1239,383.67a2.3,2.3,0,1,1,4.27,1.7c-.46,1.18-47,119.67-53.51,241.34A2.3,2.3,0,0,1,1187.33,628.88Z" style="fill:#245b70"/><path d="M1265.65,329a2.18,2.18,0,0,1-.86-.18,2.3,2.3,0,0,1-1.21-3l9.07-21.32a2.3,2.3,0,1,1,4.23,1.8l-9.07,21.33A2.3,2.3,0,0,1,1265.65,329Z" style="fill:#245b70"/><path d="M1278.1,330l-25.71,60.41c-2.54,6-8.82,9-14,6.85l-4.68-2c-5.15-2.19-7.29-8.86-4.75-14.81l25.71-60.42c2.54-5.95,8.82-9,14-6.84l4.68,2C1278.5,317.4,1280.63,324.06,1278.1,330Z" style="fill:#245b70"/><path d="M1278.1,330l-25.71,60.41c-2.54,6-8.82,9-14,6.85l-1-.42,34.92-82.07,1,.42C1278.5,317.4,1280.63,324.06,1278.1,330Z" style="fill:#245b70"/><path d="M1159.76,627.41a2.3,2.3,0,0,1-2.17-2.42c13.79-257.55,2.34-341.1,2.23-341.92a2.3,2.3,0,1,1,4.55-.65c.12.81,11.64,84.63-2.19,342.81A2.3,2.3,0,0,1,1159.76,627.41Z" style="fill:#245b70"/><path d="M1151.5,227a2.32,2.32,0,0,1-2.15-1.94l-3.65-22.88a2.3,2.3,0,1,1,4.54-.73l3.65,22.89a2.3,2.3,0,0,1-1.91,2.63A1.94,1.94,0,0,1,1151.5,227Z" style="fill:#245b70"/><path d="M1163.89,220.88l10.35,64.84c1,6.39-2.67,12.34-8.19,13.22l-5,.81c-5.52.88-10.87-3.63-11.89-10l-10.35-64.83c-1-6.39,2.67-12.34,8.19-13.22l5-.81C1157.52,210,1162.87,214.49,1163.89,220.88Z" style="fill:#245b70"/><path d="M1163.89,220.88l10.35,64.84c1,6.39-2.67,12.34-8.19,13.22l-1.06.17-14-88.08,1.06-.17C1157.52,210,1162.87,214.49,1163.89,220.88Z" style="fill:#245b70"/><path d="M1338.91,374c6.38,2.11,12,5.72,17.15,9.66a99,99,0,0,1,14,13.42l1.57,1.83.8.92.74,1,3,3.83c.51.61.93,1.32,1.4,2l1.4,2c.92,1.32,1.86,2.61,2.69,4,.42.66.83,1.33,1.24,2h0c.44.7.88,1.41,1.33,2.11l.64,1,.6,1.05,1.18,2.11,2.38,4.22,2.19,4.33c.71,1.45,1.48,2.87,2.17,4.33l2,4.43,2,4.43,1.82,4.51,1.81,4.51c.33.74.56,1.52.85,2.28l.83,2.29,1.65,4.59.83,2.29c.25.77.49,1.55.74,2.33,1,3.11,2,6.21,3,9.3s1.76,6.29,2.64,9.42c.42,1.58.93,3.13,1.32,4.72l1.18,4.76c.77,3.19,1.61,6.34,2.32,9.54,5.77,25.57,9.88,51.64,13.19,77.93.39,3.29.86,6.57,1.29,9.86s.69,6.6,1.08,9.9l1.16,9.91c.42,3.31.66,6.62,1,9.93l1.07,10,.58,5,.48,5c.66,6.65,1.37,13.32,2.28,20,.86-6.67,1.52-13.36,2.12-20.06.15-1.67.3-3.34.43-5l.28-5,.51-10.07.2-5c.06-1.68.15-3.36.15-5l.06-10.09c0-3.36,0-6.73,0-10.1s-.2-6.73-.36-10.1q-.16-4.41-.42-8.84a432.48,432.48,0,0,0-9.76-71.6c-3.24-13.22-6.79-26.41-11.73-39.2-.3-.8-.58-1.61-.89-2.41l-1-2.38-2-4.75c-.67-1.58-1.27-3.18-2-4.73l-2.23-4.65-2.23-4.64q-1.2-2.3-2.46-4.56l-2.49-4.51c-.87-1.5-1.8-3-2.7-4.43s-1.81-2.93-2.74-4.39l-3-4.24-1.5-2.12-.75-1.05-.8-1c-1.06-1.36-2.16-2.71-3.24-4s-2.23-2.65-3.39-3.94-2.27-2.6-3.5-3.83l-3.71-3.64-.93-.91-1-.85-2-1.71A87.72,87.72,0,0,0,1358.38,380l-2.31-1.15c-.76-.38-1.58-.69-2.36-1-1.57-.69-3.21-1.24-4.82-1.81s-3.28-1-5-1.31c-.82-.19-1.67-.3-2.5-.44S1339.75,374,1338.91,374Z" style="fill:#245b70"/><path d="M1384.87,489.19c0,4.36.26,8.7.68,13s1,8.53,1.71,12.72c1.37,8.39,3.1,16.57,4.88,24.68s3.65,16.14,5.51,24.16l5.59,24c1.86,8,3.72,16,5.67,24.09s3.93,16.13,6,24.24c1.1,4,2.11,8.11,3.3,12.18s2.3,8.15,3.72,12.22a193.43,193.43,0,0,0,2.28-25.44l.07-3.29,0-3.07c0-2.12,0-4.24,0-6.36,0-4.24-.29-8.47-.52-12.69-.56-8.46-1.5-16.89-2.74-25.27s-2.89-16.7-4.81-24.94-4.15-16.4-6.61-24.43-5.13-16-7.84-23.74l-4-11.66c-1.26-3.87-2.57-7.74-3.66-11.65s-2.14-7.86-3-11.9-1.46-8.17-2-12.44a63.33,63.33,0,0,0-3.26,12.54A90.2,90.2,0,0,0,1384.87,489.19Z" style="fill:#245b70"/><path d="M1338.91,374c6.38,2.11,12,5.72,17.15,9.66a99,99,0,0,1,14,13.42l1.57,1.83.8.92.74,1,3,3.83c.51.61.93,1.32,1.4,2l1.4,2c.92,1.32,1.86,2.61,2.69,4,.42.66.83,1.33,1.24,2h0c17,19.23,43,62.66,58.55,156.64a432.48,432.48,0,0,0-9.76-71.6c-3.24-13.22-6.79-26.41-11.73-39.2-.3-.8-.58-1.61-.89-2.41l-1-2.38-2-4.75c-.67-1.58-1.27-3.18-2-4.73l-2.23-4.65-2.23-4.64q-1.2-2.3-2.46-4.56l-2.49-4.51c-.87-1.5-1.8-3-2.7-4.43s-1.81-2.93-2.74-4.39l-3-4.24-1.5-2.12-.75-1.05-.8-1c-1.06-1.36-2.16-2.71-3.24-4s-2.23-2.65-3.39-3.94-2.27-2.6-3.5-3.83l-3.71-3.64-.93-.91-1-.85-2-1.71A87.72,87.72,0,0,0,1358.38,380l-2.31-1.15c-.76-.38-1.58-.69-2.36-1-1.57-.69-3.21-1.24-4.82-1.81s-3.28-1-5-1.31c-.82-.19-1.67-.3-2.5-.44S1339.75,374,1338.91,374Z" style="fill:#245b70"/><path d="M1404.57,553.26c10.68,15,16.55,49.68,19.7,78.5l0-3.07c0-2.12,0-4.24,0-6.36,0-4.24-.29-8.47-.52-12.69-.56-8.46-1.5-16.89-2.74-25.27s-2.89-16.7-4.81-24.94-4.15-16.4-6.61-24.43-5.13-16-7.84-23.74l-4-11.66c-1.26-3.87-2.57-7.74-3.66-11.65s-2.14-7.86-3-11.9-1.46-8.17-2-12.44C1389.1,463.61,1384.74,525.42,1404.57,553.26Z" style="fill:#245b70"/><path d="M1458.72,663.06a2.3,2.3,0,0,0,2.32-2.28c.92-124.82-34.57-264.3-34.93-265.69a2.3,2.3,0,0,0-4.46,1.15c.36,1.38,35.7,140.3,34.79,264.5A2.3,2.3,0,0,0,1458.72,663.06Z" style="fill:#245b70"/><path d="M1409.46,347.16a2.31,2.31,0,0,0,2.23-3L1405.1,322a2.3,2.3,0,1,0-4.41,1.31l6.59,22.22A2.3,2.3,0,0,0,1409.46,347.16Z" style="fill:#245b70"/><path d="M1396.78,346.74l18.66,62.94c1.84,6.21,7.73,10,13.09,8.4l4.88-1.45c5.36-1.59,8.25-8,6.41-14.17l-18.66-62.95c-1.84-6.21-7.74-10-13.1-8.39l-4.87,1.44C1397.82,334.15,1394.94,340.53,1396.78,346.74Z" style="fill:#245b70"/><path d="M1396.78,346.74l18.66,62.94c1.84,6.21,7.73,10,13.09,8.4l1-.3-25.35-85.52-1,.3C1397.82,334.15,1394.94,340.53,1396.78,346.74Z" style="fill:#245b70"/><path d="M883.07,554.73a31.16,31.16,0,0,0-13-6.37,30.72,30.72,0,0,0-13.4.09c-8.59,2-16,7.19-22,13.76A102.55,102.55,0,0,0,819.2,585c-2.15,4.17-4.13,8.47-6,12.86s-3.58,8.85-5.17,13.4S805,620.34,803.53,625l-1.06,3.49-1,3.51c-.71,2.33-1.3,4.7-2,7-2.56,9.44-4.88,19-7.14,28.67s-4.38,19.4-6.57,29.2l-.84,3.68c-.28,1.23-.52,2.46-.81,3.69l-1.69,7.38c-.55,2.47-1.17,4.94-1.75,7.41s-1.2,4.95-1.9,7.43c-.76-5.08-1.29-10.16-1.65-15.25,0-.52-.07-1-.11-1.57q-.45-6.85-.56-13.7a304.07,304.07,0,0,1,1.06-30.61c1.8-20.38,5.63-40.77,12.6-60.53.87-2.47,1.83-4.92,2.78-7.36s2-4.87,3.15-7.27a143.22,143.22,0,0,1,7.44-14.12c5.55-9.16,12.37-17.89,21.09-24.92a66,66,0,0,1,6.9-4.84,55.9,55.9,0,0,1,7.61-3.84,43.12,43.12,0,0,1,16.78-3.32c.89,0,1.79.06,2.68.15A33.12,33.12,0,0,1,872,543.46,27.51,27.51,0,0,1,883.07,554.73Z" style="fill:#245b70"/><path d="M858.54,539.32c-16.41,3.41-42.46,17.73-62.68,70.45-13.43,35-18,70.51-18.85,99.91q-.45-6.85-.56-13.7a304.07,304.07,0,0,1,1.06-30.61c1.8-20.38,5.63-40.77,12.6-60.53.87-2.47,1.83-4.92,2.78-7.36s2-4.87,3.15-7.27a143.22,143.22,0,0,1,7.44-14.12c5.55-9.16,12.37-17.89,21.09-24.92a66,66,0,0,1,6.9-4.84,55.9,55.9,0,0,1,7.61-3.84,43.12,43.12,0,0,1,16.78-3.32C856.75,539.18,857.65,539.23,858.54,539.32Z" style="fill:#245b70"/><path d="M941,650.72c-2.63-5.41-5.08-10.89-7.47-16.4q-1.05-2.4-2.08-4.83-2.49-5.88-4.9-11.78c-2.15-5.61-4.15-11.25-6.16-16.92-1-2.82-2-5.66-3-8.5s-2-5.67-2.87-8.53L912,575.12l-2.5-8.65c-.83-2.89-1.67-5.78-2.46-8.68-.39-1.45-.83-2.89-1.17-4.35l-1.06-4.38c-1.41-5.85-2.73-11.71-4.1-17.58l-1-4.4c-.32-1.47-.57-3-.86-4.43l-1.63-8.89-1.59-8.89c-.25-1.49-.53-3-.75-4.45l-.61-4.49c-.78-6-1.61-11.95-2.32-17.93-.54-6-1.07-12-1.5-18.05-.27-3-.38-6-.48-9.05l-.27-9.06c0-1.51-.12-3-.1-4.53l.07-4.54c0-3,.09-6,.17-9.06,0-.75,0-1.51.07-2.27l.14-2.26.29-4.53.32-4.52.16-2.27c.07-.75.16-1.5.25-2.25.37-3,.7-6,1.08-9s1-6,1.5-8.95c.11-.74.26-1.49.43-2.22l.49-2.23c.33-1.47.64-2.95,1-4.41l1.21-4.37c.45-1.45.9-2.89,1.45-4.29-.07.75-.1,1.5-.12,2.25s-.09,1.49-.1,2.24l-.09,4.48c0,1.49,0,3,0,4.47s0,3,.05,4.45c.13,3,.15,5.94.29,8.89l.49,8.87.11,2.21.18,2.21.37,4.42.33,4.42.15,2.2c.07.74.16,1.47.24,2.21,0,.3.07.61.1.91.29,2.63.53,5.26.8,7.89l.42,4.4c.16,1.46.37,2.93.55,4.39l1.09,8.78c.19,1.46.34,2.93.5,4.38s.42,2.92.62,4.39c.9,5.82,1.66,11.67,2.5,17.49,1,5.82,1.92,11.64,2.88,17.46l.69,4.37c.24,1.45.54,2.9.81,4.35l1.61,8.7c2,11.64,4.43,23.2,6.65,34.82,1,5.84,2.45,11.57,3.61,17.39l1.82,8.69,1.74,8.74c1.28,5.79,2.6,11.58,3.82,17.4l1.84,8.73c.59,2.92,1.14,5.86,1.78,8.77,1.29,5.81,2.56,11.64,3.74,17.51S940,644.76,941,650.72Z" style="fill:#245b70"/><path d="M947.64,440.08l-.15,13.28c0,4.42-.19,8.85-.29,13.28s-.27,8.85-.45,13.28-.32,8.85-.56,13.27c-.52,8.84-1,17.7-1.7,26.52-.34,4.43-.65,8.85-1.07,13.26l-1.28,13.23c-1.88,17.64-4.21,35.23-7.21,52.71-1.62,8.73-3.16,17.46-5.14,26.12-1.18,5.59-2.51,11.16-3.95,16.7-.78,3-1.6,6.09-2.44,9.12l2.21-52.91q.93-26.38,1.58-52.69l.26-13.16c.12-4.39.19-8.78.26-13.16l.41-26.31c.06-8.78.28-17.55.27-26.32l.2-26.32.18-52.68.07-52.73q.07-22.63.22-45.3l.06-7.54q.12-13.22.33-26.47c.13-8.84.31-17.68.6-26.55,1.82,8.69,3.29,17.43,4.67,26.18s2.57,17.52,3.7,26.3c2.2,17.56,3.94,35.18,5.34,52.81q1,13.23,1.79,26.48c.23,4.41.52,8.83.69,13.25l.55,13.26C947.4,404.67,947.73,422.38,947.64,440.08Z" style="fill:#245b70"/><path d="M939.36,432.09c.33,44-9,157.93-13.52,209.64-.78,3-1.6,6.09-2.44,9.12l2.21-52.91q.93-26.38,1.58-52.69l.26-13.16c.12-4.39.19-8.78.26-13.16l.41-26.31c.06-8.78.28-17.55.27-26.32l.2-26.32.18-52.68.07-52.73q.07-22.63.22-45.3C933.34,332.09,939.09,396,939.36,432.09Z" style="fill:#245b70"/><path d="M931.43,629.49q-2.49-5.88-4.9-11.78c-2.15-5.61-4.15-11.25-6.16-16.92-1-2.82-2-5.66-3-8.5s-2-5.67-2.87-8.53L912,575.12l-2.5-8.65c-.83-2.89-1.67-5.78-2.46-8.68-.39-1.45-.83-2.89-1.17-4.35l-1.06-4.38c-1.41-5.85-2.73-11.71-4.1-17.58l-1-4.4c-.32-1.47-.57-3-.86-4.43l-1.63-8.89-1.59-8.89c-.25-1.49-.53-3-.75-4.45l-.61-4.49c-.78-6-1.61-11.95-2.32-17.93-.54-6-1.07-12-1.5-18.05-.27-3-.38-6-.48-9.05l-.27-9.06c0-1.51-.12-3-.1-4.53l.07-4.54c0-3,.09-6,.17-9.06,0-.75,0-1.51.07-2.27l.14-2.26.29-4.53.32-4.52.16-2.27c.07-.75.16-1.5.25-2.25.37-3,.7-6,1.08-9s1-6,1.5-8.95c.11-.74.26-1.49.43-2.22l.49-2.23c.33-1.47.64-2.95,1-4.41l1.21-4.37c.45-1.45.9-2.89,1.45-4.29-.07.75-.1,1.5-.12,2.25s-.09,1.49-.1,2.24l-.09,4.48c0,1.49,0,3,0,4.47s0,3,.05,4.45c.13,3,.15,5.94.29,8.89l.49,8.87.11,2.21.18,2.21.37,4.42.33,4.42.15,2.2c.07.74.16,1.47.24,2.21,0,.3.07.61.1.91C897,463.35,898.19,535.56,931.43,629.49Z" style="fill:#245b70"/><path d="M920.36,653.18a2.31,2.31,0,0,1-2.32-2.29c-1.9-257.9-18.41-340.61-18.58-341.41a2.3,2.3,0,0,1,4.5-.94c.17.81,16.77,83.78,18.68,342.32A2.3,2.3,0,0,1,920.36,653.18Z" style="fill:#245b70"/><path d="M887.74,254a2.3,2.3,0,0,1-2.26-1.8l-5-22.62a2.3,2.3,0,1,1,4.49-1l5,22.62a2.3,2.3,0,0,1-1.74,2.75A2.81,2.81,0,0,1,887.74,254Z" style="fill:#245b70"/><path d="M899.74,247.16,914,311.24c1.41,6.32-1.9,12.48-7.36,13.7l-5,1.11c-5.46,1.21-11.08-3-12.49-9.28l-14.27-64.09c-1.4-6.32,1.91-12.48,7.37-13.7l5-1.1C892.72,236.66,898.34,240.83,899.74,247.16Z" style="fill:#245b70"/><path d="M899.74,247.16,914,311.24c1.41,6.32-1.9,12.48-7.36,13.7l-1,.23-19.39-87.06,1-.23C892.72,236.66,898.34,240.83,899.74,247.16Z" style="fill:#245b70"/><path d="M63.7,574.3c-.09,6.43-.14,12.86,0,19.3s.4,12.88.89,19.32c1.58-6.28,2.91-12.56,4.26-18.84l2-9.42,1.92-9.41,7.45-37.52c5-24.94,10.1-49.75,16.25-74.19,1.54-6.11,3.15-12.19,4.87-18.23.83-3,1.77-6,2.64-9s1.85-6,2.83-9c2-5.95,4-11.84,6.26-17.65l1.73-4.34,1.2-2.8.62-1.49,1.89-4.25c.67-1.39,1.3-2.81,2-4.19a134.28,134.28,0,0,1,9.17-16,79.22,79.22,0,0,1,5.55-7.27,54.57,54.57,0,0,1,6.41-6.4c4.6-3.84,10-6.81,16.17-7.36a22.46,22.46,0,0,1,4.63.09,21.29,21.29,0,0,1,4.66,1.09,27,27,0,0,1,8.55,4.93,23.8,23.8,0,0,0-7.28-7.23,24.6,24.6,0,0,0-10.48-3.67,27,27,0,0,0-5.75-.06l-.72.06-.71.1-1.43.21-1.4.3-.7.15-.69.19a43.39,43.39,0,0,0-10.29,4.38,70.27,70.27,0,0,0-16.3,13.68c-.61.64-1.17,1.3-1.73,2s-1.13,1.3-1.66,2c-1.06,1.35-2.16,2.69-3.14,4.08l-1.52,2.06-1.45,2.1c-1,1.38-1.87,2.82-2.79,4.24s-1.75,2.88-2.62,4.32l-2.5,4.37c-.8,1.47-1.56,3-2.34,4.43L98,403.79c-2.89,6-5.48,12.07-7.82,18.21s-4.49,12.34-6.42,18.57c-1,3.12-1.87,6.25-2.79,9.38-.44,1.57-.84,3.14-1.27,4.72s-.85,3.13-1.24,4.71q-3.84,15.18-6.57,30.54-.68,3.75-1.28,7.49c-1,6.38-2,12.76-2.73,19.16-.38,3.2-.79,6.39-1.13,9.6l-.93,9.6C64.64,548.6,63.92,561.44,63.7,574.3Z" style="fill:#245b70"/><path d="M83.46,614.45c2.9-4.71,5.64-9.49,8.33-14.31s5.3-9.66,7.89-14.53,4.78-9.88,7.1-14.86c1.18-2.48,2.3-5,3.44-7.49s2.31-5,3.36-7.51l3.08-7.63,3-7.65c1-2.56,2-5.11,3-7.67.47-1.29,1-2.56,1.42-3.86l1.33-3.89c1.76-5.19,3.43-10.4,5.15-15.61l1.25-3.91c.41-1.31.75-2.63,1.13-4l2.17-7.92,2.14-7.93c.34-1.33.71-2.65,1-4l.9-4c1.14-5.36,2.35-10.7,3.44-16.07.92-5.4,1.83-10.81,2.66-16.23.45-2.69.75-5.43,1-8.15l.87-8.18c.14-1.36.32-2.72.39-4.09l.24-4.12c.16-2.73.31-5.47.43-8.21,0-.68.07-1.37.09-2.06v-2.06l0-4.12,0-4.11v-2.06c0-.69-.06-1.38-.09-2.06-.15-2.75-.28-5.5-.45-8.24s-.55-5.48-.86-8.21c-.07-.68-.16-1.36-.28-2l-.32-2.05c-.23-1.36-.43-2.72-.69-4.07l-.89-4.05c-.35-1.33-.68-2.67-1.13-4,0,.68,0,1.36,0,2.05s0,1.35-.06,2l-.21,4.06c-.09,1.35-.22,2.7-.32,4.05s-.16,2.68-.34,4c-.32,2.69-.54,5.36-.87,8l-1.07,8-.25,2-.33,2-.64,4-.61,4-.3,2c-.12.66-.25,1.32-.38,2-.51,2.63-1,5.27-1.45,7.9l-.71,4c-.25,1.32-.55,2.62-.81,3.94l-1.65,7.86c-.28,1.31-.52,2.63-.78,3.93s-.59,2.62-.89,3.93c-1.26,5.21-2.39,10.44-3.59,15.65-1.38,5.19-2.64,10.4-4,15.59l-1,3.91c-.33,1.29-.72,2.58-1.07,3.88L120.2,490c-2.69,10.39-5.85,20.68-8.78,31-1.36,5.21-3.15,10.3-4.66,15.48l-2.35,7.74L102.14,552c-1.62,5.15-3.29,10.3-4.86,15.48l-2.36,7.77c-.77,2.6-1.5,5.22-2.31,7.81-1.65,5.16-3.27,10.35-4.81,15.58S84.78,609.12,83.46,614.45Z" style="fill:#245b70"/><path d="M49.62,463.67q-2.09,37-1.37,74.16c0,3.1.16,6.19.26,9.29s.18,6.19.31,9.28c.26,6.19.67,12.37,1.06,18.56l.68,9.27q.39,4.65.89,9.28c.63,6.18,1.33,12.36,2.22,18.52q.73-5.92,1.37-11.86c2.23-20.68,3.69-41.31,5.28-61.94,1.8-24.55,3.27-49.1,4.63-73.67s2.42-49.16,3.2-73.79,1.27-49.31.66-74.15c-1.5,6.05-2.78,12.12-4,18.2-.6,3-1.17,6.09-1.74,9.13l-1.59,9.16c-1,6.1-2,12.21-2.87,18.34-.46,3.05-.86,6.12-1.28,9.18s-.83,6.13-1.21,9.19Q51.6,426.65,49.62,463.67Z" style="fill:#245b70"/><path d="M-52.57,343.14a59.16,59.16,0,0,1,16,10A93.15,93.15,0,0,1-23.8,366.28l1.41,1.77.72.88.65.92,2.63,3.68c.46.59.82,1.26,1.24,1.88l1.22,1.9c.81,1.26,1.64,2.5,2.35,3.82l1.07,1.89h0q.55,1,1.14,2l.56,1,.51,1,1,2,2,4,1.84,4.08c.6,1.37,1.25,2.71,1.83,4.08l1.63,4.15,1.65,4.15,1.47,4.22,1.46,4.21c.27.7.45,1.42.67,2.13L4,422.13l1.3,4.27.65,2.13c.2.72.38,1.44.56,2.16.73,2.89,1.51,5.77,2.28,8.64s1.29,5.82,1.94,8.72c.31,1.46.7,2.9,1,4.37l.83,4.39c.53,2.94,1.14,5.85,1.62,8.8a699,699,0,0,1,7.66,71.48c.16,3,.39,6,.59,9s.23,6,.4,9l.47,9.05c.19,3,.21,6,.34,9.07l.38,9.08.23,4.55.14,4.55c.2,6.07.45,12.16.89,18.27,1.28-6,2.36-12,3.39-18,.25-1.5.52-3,.75-4.51l.61-4.54,1.15-9.07.53-4.55c.18-1.51.37-3,.49-4.55l.72-9.13c.26-3,.45-6.09.66-9.14s.25-6.11.33-9.17q.12-4,.17-8a367.31,367.31,0,0,0-4.73-65.51c-2.28-12.2-4.86-24.39-8.81-36.32-.24-.75-.45-1.5-.7-2.25l-.8-2.23-1.6-4.44c-.55-1.47-1-3-1.65-4.42l-1.86-4.38L12,405.12c-.67-1.43-1.37-2.87-2.08-4.29l-2.12-4.27c-.75-1.42-1.56-2.8-2.33-4.2s-1.57-2.79-2.38-4.17L.47,384.13l-1.32-2-.65-1-.71-1c-1-1.31-1.92-2.6-2.89-3.9s-2-2.56-3-3.81-2-2.52-3.15-3.72l-3.37-3.56-.84-.89-.89-.84-1.8-1.69A85.79,85.79,0,0,0-34,349.94l-2.17-1.21c-.72-.4-1.49-.74-2.23-1.1-1.47-.74-3-1.35-4.56-2s-3.12-1.11-4.72-1.54c-.79-.23-1.61-.39-2.41-.59S-51.75,343.21-52.57,343.14Z" style="fill:#245b70"/><path d="M-15.53,450.7a111,111,0,0,0-.21,11.81c.14,3.91.43,7.8.82,11.63.78,7.7,1.91,15.22,3.1,22.7s2.48,14.87,3.76,22.25l3.85,22.16c1.27,7.38,2.55,14.79,3.9,22.21s2.76,14.88,4.22,22.36c.8,3.75,1.51,7.5,2.4,11.26S8,604.63,9.12,608.41A164.72,164.72,0,0,0,13,585.55l.28-3,.26-2.77q.21-2.88.37-5.76c.23-3.84.28-7.69.33-11.53,0-7.69-.33-15.39-1-23.07s-1.69-15.32-3-22.92-2.94-15.14-4.8-22.59-3.93-14.8-6-22l-3.1-10.84c-1-3.6-2-7.2-2.79-10.82s-1.55-7.27-2.1-11-.88-7.5-1.15-11.41a54.82,54.82,0,0,0-4,11.12A74.87,74.87,0,0,0-15.53,450.7Z" style="fill:#245b70"/><path d="M119.54,587.19c-.11,1.43-.17,2.87-.23,4.3-.13,2.87-.17,5.74-.21,8.62s.13,5.76.31,8.65.43,5.78.87,8.68c2.52-5.37,4.37-10.79,6.28-16.18.94-2.7,1.87-5.39,2.71-8.09l2.56-8.08q1.24-4.05,2.38-8.1c.81-2.69,1.6-5.38,2.34-8.08.38-1.35.73-2.71,1.09-4l1.14-4,1.09-4.06c.35-1.35.68-2.71,1-4.06,2.86-10.81,5.58-21.63,8.07-32.58l1.83-8.24,1.74-8.31c.25-1.4.56-2.78.83-4.18l.79-4.21c.52-2.82,1-5.66,1.44-8.56h0a72.26,72.26,0,0,0-5.4,7.07c-1.68,2.43-3.24,4.92-4.72,7.44l-2.17,3.8c-.71,1.27-1.37,2.56-2,3.85s-1.32,2.59-1.95,3.89-1.24,2.62-1.83,3.94A210.54,210.54,0,0,0,126,549.14c-.73,2.77-1.37,5.56-2,8.35l-.93,4.2c-.26,1.41-.54,2.81-.78,4.22-.5,2.81-1,5.64-1.39,8.47s-.69,5.69-1,8.54Z" style="fill:#245b70"/><path d="M-52.57,343.14a59.16,59.16,0,0,1,16,10A93.15,93.15,0,0,1-23.8,366.28l1.41,1.77.72.88.65.92,2.63,3.68c.46.59.82,1.26,1.24,1.88l1.22,1.9c.81,1.26,1.64,2.5,2.35,3.82l1.07,1.89h0C2.76,401.67,25.1,442.84,34,529a367.31,367.31,0,0,0-4.73-65.51c-2.28-12.2-4.86-24.39-8.81-36.32-.24-.75-.45-1.5-.7-2.25l-.8-2.23-1.6-4.44c-.55-1.47-1-3-1.65-4.42l-1.86-4.38L12,405.12c-.67-1.43-1.37-2.87-2.08-4.29l-2.12-4.27c-.75-1.42-1.56-2.8-2.33-4.2s-1.57-2.79-2.38-4.17L.47,384.13l-1.32-2-.65-1-.71-1c-1-1.31-1.92-2.6-2.89-3.9s-2-2.56-3-3.81-2-2.52-3.15-3.72l-3.37-3.56-.84-.89-.89-.84-1.8-1.69A85.79,85.79,0,0,0-34,349.94l-2.17-1.21c-.72-.4-1.49-.74-2.23-1.1-1.47-.74-3-1.35-4.56-2s-3.12-1.11-4.72-1.54c-.79-.23-1.61-.39-2.41-.59S-51.75,343.21-52.57,343.14Z" style="fill:#245b70"/><path d="M-.64,510.11c9.39,14.34,12.79,46.16,13.94,72.47l.26-2.77q.21-2.88.37-5.76c.23-3.84.28-7.69.33-11.53,0-7.69-.33-15.39-1-23.07s-1.69-15.32-3-22.92-2.94-15.14-4.8-22.59-3.93-14.8-6-22l-3.1-10.84c-1-3.6-2-7.2-2.79-10.82s-1.55-7.27-2.1-11-.88-7.5-1.15-11.41C-9.73,427.85-18.07,483.48-.64,510.11Z" style="fill:#245b70"/><path d="M56,474c-1.2,20.28-1.15,86.22-1,126.16,2.23-20.68,3.69-41.31,5.28-61.94,1.8-24.55,3.27-49.1,4.63-73.67s2.42-49.16,3.2-73.79,1.27-49.31.66-74.15C68.81,316.62,57.79,444.25,56,474Z" style="fill:#245b70"/><path d="M71.84,489.92c13.94-42.27,29.85-69.68,44.17-87.39l.62-1.49,1.89-4.25c.67-1.39,1.3-2.81,2-4.19a134.28,134.28,0,0,1,9.17-16,79.22,79.22,0,0,1,5.55-7.27,54.57,54.57,0,0,1,6.41-6.4c4.6-3.84,10-6.81,16.17-7.36a22.46,22.46,0,0,1,4.63.09,21.29,21.29,0,0,1,4.66,1.09,27,27,0,0,1,8.55,4.93,23.8,23.8,0,0,0-7.28-7.23,24.6,24.6,0,0,0-10.48-3.67,27,27,0,0,0-5.75-.06l-.72.06-.71.1-1.43.21-1.4.3-.7.15-.69.19a43.39,43.39,0,0,0-10.29,4.38,70.27,70.27,0,0,0-16.3,13.68c-.61.64-1.17,1.3-1.73,2s-1.13,1.3-1.66,2c-1.06,1.35-2.16,2.69-3.14,4.08l-1.52,2.06-1.45,2.1c-1,1.38-1.87,2.82-2.79,4.24s-1.75,2.88-2.62,4.32l-2.5,4.37c-.8,1.47-1.56,3-2.34,4.43L98,403.79c-2.89,6-5.48,12.07-7.82,18.21s-4.49,12.34-6.42,18.57c-1,3.12-1.87,6.25-2.79,9.38-.44,1.57-.84,3.14-1.27,4.72s-.85,3.13-1.24,4.71Q74.57,474.56,71.84,489.92Z" style="fill:#245b70"/><path d="M113.58,555.75l3.08-7.63,3-7.65c1-2.56,2-5.11,3-7.67.47-1.29,1-2.56,1.42-3.86l1.33-3.89c1.76-5.19,3.43-10.4,5.15-15.61l1.25-3.91c.41-1.31.75-2.63,1.13-4l2.17-7.92,2.14-7.93c.34-1.33.71-2.65,1-4l.9-4c1.14-5.36,2.35-10.7,3.44-16.07.92-5.4,1.83-10.81,2.66-16.23.45-2.69.75-5.43,1-8.15l.87-8.18c.14-1.36.32-2.72.39-4.09l.24-4.12c.16-2.73.31-5.47.43-8.21,0-.68.07-1.37.09-2.06v-2.06l0-4.12,0-4.11v-2.06c0-.69-.06-1.38-.09-2.06-.15-2.75-.28-5.5-.45-8.24s-.55-5.48-.86-8.21c-.07-.68-.16-1.36-.28-2l-.32-2.05c-.23-1.36-.43-2.72-.69-4.07l-.89-4.05c-.35-1.33-.68-2.67-1.13-4,0,.68,0,1.36,0,2.05s0,1.35-.06,2l-.21,4.06c-.09,1.35-.22,2.7-.32,4.05s-.16,2.68-.34,4c-.32,2.69-.54,5.36-.87,8l-1.07,8S139.7,486.56,113.58,555.75Z" style="fill:#245b70"/><path d="M120.28,617.44c2.52-5.37,4.37-10.79,6.28-16.18.94-2.7,1.87-5.39,2.71-8.09l2.56-8.08q1.24-4.05,2.38-8.1c.81-2.69,1.6-5.38,2.34-8.08.38-1.35.73-2.71,1.09-4l1.14-4,1.09-4.06c.35-1.35.68-2.71,1-4.06,2.86-10.81,5.58-21.63,8.07-32.58l1.83-8.24,1.74-8.31c.25-1.4.56-2.78.83-4.18l.79-4.21c.52-2.82,1-5.66,1.44-8.56h0C155.09,487.85,119.5,572,120.28,617.44Z" style="fill:#245b70"/><path d="M80.47,616.3a2.17,2.17,0,0,0,2.4-1.9c5.9-72.71,54.13-282.9,54.62-285a2.12,2.12,0,0,0-1.72-2.5,2.22,2.22,0,0,0-2.66,1.58C132.62,330.59,84.33,541.05,78.4,614A2.17,2.17,0,0,0,80.47,616.3Z" style="fill:#245b70"/><path d="M141.09,317a2.19,2.19,0,0,0,2.34-1.57L148.69,295a2.11,2.11,0,0,0-1.66-2.53,2.23,2.23,0,0,0-2.7,1.51l-5.25,20.41a2.1,2.1,0,0,0,1.65,2.53Z" style="fill:#245b70"/><path d="M129.62,310.5l-14.89,57.81c-1.47,5.71,1.67,11.38,7,12.62l4.82,1.13c5.3,1.24,10.83-2.41,12.3-8.11l14.89-57.81c1.47-5.71-1.67-11.38-7-12.62l-4.82-1.13C136.62,301.15,131.09,304.8,129.62,310.5Z" style="fill:#245b70"/><path d="M129.62,310.5l-14.89,57.81c-1.47,5.71,1.67,11.38,7,12.62l1,.24,20.23-78.54-1-.24C136.62,301.15,131.09,304.8,129.62,310.5Z" style="fill:#245b70"/><path d="M44.71,613.4a2.17,2.17,0,0,0,2.4-1.9c9.17-112.9-16.08-241.7-16.33-243a2.27,2.27,0,0,0-2.62-1.7,2.09,2.09,0,0,0-1.79,2.42c.26,1.28,25.4,129.56,16.27,241.91A2.17,2.17,0,0,0,44.71,613.4Z" style="fill:#245b70"/><path d="M17.78,323.92a2.44,2.44,0,0,0,.66,0,2.07,2.07,0,0,0,1.7-2.48l-4.93-20.59a2.29,2.29,0,0,0-2.68-1.61,2.07,2.07,0,0,0-1.69,2.48l4.92,20.59A2.22,2.22,0,0,0,17.78,323.92Z" style="fill:#245b70"/><path d="M5.48,322.63l14,58.32c1.38,5.75,6.85,9.6,12.17,8.54l4.84-.95c5.31-1.05,8.54-6.62,7.16-12.37l-14-58.32c-1.37-5.75-6.85-9.59-12.17-8.54l-4.83.95C7.33,311.32,4.1,316.88,5.48,322.63Z" style="fill:#245b70"/><path d="M5.48,322.63l14,58.32c1.38,5.75,6.85,9.6,12.17,8.54l1-.2-19-79.23-1,.2C7.33,311.32,4.1,316.88,5.48,322.63Z" style="fill:#245b70"/><path d="M57.38,614.43h.1a2.15,2.15,0,0,0,2.31-2C61.94,551.13,92,341,92.28,338.86a2.15,2.15,0,0,0-1.93-2.37,2.18,2.18,0,0,0-2.51,1.77c-.3,2.11-30.37,212.48-32.53,274A2.18,2.18,0,0,0,57.38,614.43Z" style="fill:#245b70"/><path d="M99.85,283.74a2.18,2.18,0,0,0,2.39-1.77l3.12-20.8a2.14,2.14,0,0,0-1.91-2.38,2.19,2.19,0,0,0-2.53,1.75L97.8,281.35a2.15,2.15,0,0,0,1.91,2.38Z" style="fill:#245b70"/><path d="M88,278.31l-8.85,58.94c-.87,5.82,2.83,11.19,8.23,11.95l4.91.69c5.39.76,10.52-3.37,11.39-9.18l8.85-58.94c.87-5.81-2.83-11.19-8.23-11.95l-4.91-.69C94,268.37,88.87,272.5,88,278.31Z" style="fill:#245b70"/><path d="M88,278.31l-8.85,58.94c-.87,5.82,2.83,11.19,8.23,11.95l1,.15,12-80.08-1-.14C94,268.37,88.87,272.5,88,278.31Z" style="fill:#245b70"/><path d="M1033.52,577.67c-.06,4.2-.09,8.4,0,12.61s.26,8.41.58,12.62c1-4.1,1.9-8.21,2.79-12.31l1.29-6.15,1.25-6.15,4.87-24.52c3.24-16.29,6.6-32.5,10.62-48.47,1-4,2-8,3.18-11.91.54-2,1.15-3.93,1.72-5.9s1.21-3.91,1.85-5.85c1.28-3.89,2.62-7.74,4.09-11.54l1.13-2.83.79-1.83.4-1,1.23-2.78c.44-.91.86-1.84,1.31-2.74a87.71,87.71,0,0,1,6-10.46,50.83,50.83,0,0,1,3.62-4.75,35.19,35.19,0,0,1,4.19-4.18,19.41,19.41,0,0,1,10.56-4.81,15.38,15.38,0,0,1,3,.06,13.42,13.42,0,0,1,3,.71,17.61,17.61,0,0,1,5.59,3.23,15.46,15.46,0,0,0-4.76-4.73,16.08,16.08,0,0,0-6.84-2.4,17.51,17.51,0,0,0-3.76,0l-.47,0-.46.06-.94.14-.91.2-.46.1-.45.12a29,29,0,0,0-6.73,2.86,45.9,45.9,0,0,0-10.65,8.95c-.39.41-.76.84-1.12,1.27s-.75.86-1.09,1.3c-.69.88-1.41,1.75-2,2.66l-1,1.35-1,1.37c-.66.9-1.22,1.84-1.82,2.77s-1.15,1.88-1.72,2.82l-1.63,2.86c-.52,1-1,1.93-1.53,2.89l-1.44,2.93c-1.89,3.9-3.58,7.88-5.11,11.89s-2.94,8.07-4.2,12.14c-.65,2-1.22,4.08-1.82,6.13-.29,1-.55,2.05-.83,3.07s-.55,2.05-.81,3.08q-2.51,9.93-4.29,20-.43,2.44-.84,4.89c-.67,4.17-1.28,8.34-1.78,12.52-.25,2.09-.52,4.18-.74,6.27l-.61,6.28Q1033.76,565.07,1033.52,577.67Z" style="fill:#245b70"/><path d="M1046.43,603.9c1.9-3.07,3.69-6.2,5.45-9.34s3.46-6.32,5.15-9.5,3.12-6.46,4.64-9.71c.77-1.62,1.5-3.26,2.25-4.89s1.5-3.26,2.19-4.91l2-5,2-5c.65-1.67,1.31-3.33,1.93-5,.31-.84.65-1.67.93-2.52l.87-2.54c1.15-3.39,2.24-6.8,3.37-10.2l.81-2.55c.27-.86.49-1.72.74-2.59l1.42-5.17,1.39-5.19c.23-.86.47-1.72.67-2.6l.59-2.62c.75-3.5,1.53-7,2.25-10.5s1.19-7.06,1.73-10.6c.3-1.76.5-3.55.69-5.32l.57-5.35c.09-.89.21-1.77.26-2.67l.15-2.69c.1-1.79.21-3.58.29-5.37,0-.45,0-.89,0-1.34v-8.08c0-.44,0-.89-.06-1.34-.1-1.8-.19-3.59-.3-5.38s-.35-3.58-.56-5.37c0-.44-.1-.89-.18-1.33l-.21-1.34c-.15-.89-.28-1.77-.45-2.66l-.58-2.64c-.23-.88-.45-1.75-.74-2.61,0,.45,0,.89,0,1.34s0,.89,0,1.33l-.14,2.65c-.06.89-.14,1.77-.21,2.65s-.1,1.75-.22,2.63c-.21,1.75-.35,3.5-.57,5.24l-.69,5.22-.17,1.3-.21,1.3-.42,2.6-.4,2.59-.2,1.3c-.07.43-.16.86-.24,1.29-.34,1.72-.65,3.45-1,5.17l-.47,2.58c-.16.86-.36,1.71-.53,2.57l-1.07,5.14c-.19.86-.35,1.71-.52,2.57s-.38,1.71-.58,2.56c-.82,3.4-1.56,6.82-2.35,10.23s-1.72,6.79-2.58,10.19l-.63,2.55c-.21.84-.47,1.69-.7,2.53l-1.4,5.07c-1.75,6.79-3.81,13.51-5.73,20.28-.89,3.4-2.06,6.73-3,10.11l-1.54,5.06-1.48,5.08c-1.06,3.36-2.15,6.73-3.18,10.11l-1.54,5.08c-.51,1.7-1,3.41-1.51,5.1-1.08,3.37-2.14,6.76-3.14,10.18S1047.29,600.42,1046.43,603.9Z" style="fill:#245b70"/><path d="M1024.32,505.39q-1.37,24.18-.89,48.45c0,2,.1,4,.16,6.07s.12,4,.21,6.06c.17,4,.43,8.09.69,12.13l.44,6.06q.27,3,.58,6.06c.42,4,.88,8.07,1.46,12.1.31-2.58.61-5.17.89-7.75,1.46-13.51,2.41-27,3.45-40.47,1.18-16,2.14-32.08,3-48.13s1.58-32.12,2.09-48.21.83-32.22.43-48.45c-1,3.95-1.82,7.92-2.6,11.89-.4,2-.77,4-1.14,6l-1,6q-1,6-1.87,12c-.31,2-.56,4-.84,6s-.54,4-.79,6Q1025.61,481.19,1024.32,505.39Z" style="fill:#245b70"/><path d="M957.55,426.63A38.58,38.58,0,0,1,968,433.16a60.83,60.83,0,0,1,8.33,8.59l.92,1.16.47.58.43.6,1.72,2.4c.29.39.53.83.8,1.23l.8,1.24c.53.82,1.07,1.63,1.54,2.5.24.41.47.82.7,1.23h0l.75,1.31.37.63.33.65.66,1.31,1.32,2.6,1.21,2.67c.39.89.81,1.77,1.19,2.66l1.07,2.72,1.08,2.71,1,2.75,1,2.75c.17.46.29.93.44,1.39l.43,1.4.85,2.79.42,1.39c.13.47.25.94.37,1.41q.72,2.84,1.49,5.64c.44,1.9.84,3.81,1.27,5.7.2.95.45,1.89.63,2.85l.54,2.87c.35,1.92.75,3.83,1.06,5.75a456.38,456.38,0,0,1,5,46.71c.11,2,.26,3.93.39,5.89s.15,3.94.26,5.91l.31,5.91c.12,2,.13,3.95.22,5.92l.25,5.94.15,3,.09,3c.13,4,.3,7.94.58,11.93.84-3.9,1.55-7.83,2.21-11.76.17-1,.34-2,.5-2.95l.4-3,.75-5.93.35-3c.11-1,.24-2,.31-3l.48-6c.16-2,.29-4,.43-6s.16-4,.21-6c0-1.75.09-3.5.11-5.25a239.8,239.8,0,0,0-3.09-42.8,181,181,0,0,0-5.75-23.73c-.16-.49-.3-1-.46-1.47l-.53-1.46-1-2.9c-.36-1-.68-1.94-1.08-2.89L1001,470l-1.21-2.85c-.44-.93-.9-1.87-1.37-2.8L997,461.54c-.49-.93-1-1.83-1.52-2.75s-1-1.82-1.55-2.72l-1.71-2.65-.86-1.32-.43-.66-.47-.65c-.61-.85-1.25-1.7-1.88-2.55s-1.3-1.67-2-2.48-1.33-1.65-2.06-2.43l-2.2-2.33-.55-.58-.58-.55L980,438.76a56,56,0,0,0-10.36-7.68l-1.42-.79c-.47-.26-1-.48-1.45-.72-1-.49-2-.88-3-1.3s-2-.73-3.09-1c-.52-.15-1.05-.25-1.57-.38S958.09,426.69,957.55,426.63Z" style="fill:#245b70"/><path d="M981.75,496.92a73.52,73.52,0,0,0-.13,7.71c.09,2.55.28,5.09.53,7.6.51,5,1.25,9.95,2,14.83s1.62,9.71,2.45,14.54l2.52,14.47c.83,4.83,1.66,9.67,2.55,14.51s1.8,9.73,2.75,14.62c.53,2.44,1,4.9,1.57,7.36s1.11,4.92,1.84,7.4a108.23,108.23,0,0,0,2.55-14.94l.18-1.94.17-1.81c.09-1.25.17-2.51.24-3.76.15-2.52.19-5,.22-7.54,0-5-.22-10.05-.65-15.07s-1.1-10-2-15-1.92-9.9-3.14-14.76-2.57-9.67-4-14.41l-2-7.08c-.63-2.35-1.3-4.7-1.82-7.07s-1-4.74-1.38-7.17-.57-4.9-.75-7.45a36.11,36.11,0,0,0-2.61,7.26A49.34,49.34,0,0,0,981.75,496.92Z" style="fill:#245b70"/><path d="M1070,586.09c-.07.94-.11,1.87-.15,2.81-.08,1.88-.11,3.75-.13,5.63s.08,3.77.2,5.65.28,3.78.57,5.68c1.64-3.51,2.85-7.06,4.1-10.58.62-1.76,1.22-3.52,1.77-5.28l1.67-5.28c.55-1.76,1.06-3.53,1.56-5.29s1.05-3.52,1.53-5.28c.25-.89.47-1.77.71-2.65l.75-2.64.71-2.65c.23-.88.44-1.77.69-2.65,1.86-7.06,3.64-14.14,5.27-21.29l1.19-5.39,1.14-5.42c.16-.92.37-1.82.54-2.73l.52-2.76c.33-1.84.66-3.69.94-5.59h0A48.27,48.27,0,0,0,1090,525c-1.09,1.59-2.11,3.21-3.08,4.86l-1.42,2.48c-.46.83-.89,1.68-1.33,2.52s-.87,1.69-1.28,2.54-.8,1.71-1.19,2.57a136.93,136.93,0,0,0-7.51,21.25c-.47,1.81-.89,3.63-1.31,5.46l-.61,2.74c-.17.92-.35,1.83-.51,2.76q-.49,2.76-.91,5.53c-.23,1.86-.45,3.72-.63,5.58Z" style="fill:#245b70"/><path d="M957.55,426.63A38.58,38.58,0,0,1,968,433.16a60.83,60.83,0,0,1,8.33,8.59l.92,1.16.47.58.43.6,1.72,2.4c.29.39.53.83.8,1.23l.8,1.24c.53.82,1.07,1.63,1.54,2.5.24.41.47.82.7,1.23h0c10,12.18,24.57,39.08,30.39,95.39a239.8,239.8,0,0,0-3.09-42.8,181,181,0,0,0-5.75-23.73c-.16-.49-.3-1-.46-1.47l-.53-1.46-1-2.9c-.36-1-.68-1.94-1.08-2.89L1001,470l-1.21-2.85c-.44-.93-.9-1.87-1.37-2.8L997,461.54c-.49-.93-1-1.83-1.52-2.75s-1-1.82-1.55-2.72l-1.71-2.65-.86-1.32-.43-.66-.47-.65c-.61-.85-1.25-1.7-1.88-2.55s-1.3-1.67-2-2.48-1.33-1.65-2.06-2.43l-2.2-2.33-.55-.58-.58-.55L980,438.76a56,56,0,0,0-10.36-7.68l-1.42-.79c-.47-.26-1-.48-1.45-.72-1-.49-2-.88-3-1.3s-2-.73-3.09-1c-.52-.15-1.05-.25-1.57-.38S958.09,426.69,957.55,426.63Z" style="fill:#245b70"/><path d="M991.48,535.73c6.14,9.37,8.36,30.16,9.11,47.35l.17-1.81c.09-1.25.17-2.51.24-3.76.15-2.52.19-5,.22-7.54,0-5-.22-10.05-.65-15.07s-1.1-10-2-15-1.92-9.9-3.14-14.76-2.57-9.67-4-14.41l-2-7.08c-.63-2.35-1.3-4.7-1.82-7.07s-1-4.74-1.38-7.17-.57-4.9-.75-7.45C985.54,482,980.1,518.33,991.48,535.73Z" style="fill:#245b70"/><path d="M1028.51,512.14c-.79,13.25-.75,56.34-.65,82.43,1.46-13.51,2.41-27,3.45-40.47,1.18-16,2.14-32.08,3-48.13s1.58-32.12,2.09-48.21.83-32.22.43-48.45C1036.86,409.31,1029.66,492.7,1028.51,512.14Z" style="fill:#245b70"/><path d="M1038.84,522.54c9.11-27.62,19.5-45.53,28.86-57.1l.4-1,1.23-2.78c.44-.91.86-1.84,1.31-2.74a87.71,87.71,0,0,1,6-10.46,50.83,50.83,0,0,1,3.62-4.75,35.19,35.19,0,0,1,4.19-4.18,19.41,19.41,0,0,1,10.56-4.81,15.38,15.38,0,0,1,3,.06,13.42,13.42,0,0,1,3,.71,17.61,17.61,0,0,1,5.59,3.23,15.46,15.46,0,0,0-4.76-4.73,16.08,16.08,0,0,0-6.84-2.4,17.51,17.51,0,0,0-3.76,0l-.47,0-.46.06-.94.14-.91.2-.46.1-.45.12a29,29,0,0,0-6.73,2.86,45.9,45.9,0,0,0-10.65,8.95c-.39.41-.76.84-1.12,1.27s-.75.86-1.09,1.3c-.69.88-1.41,1.75-2,2.66l-1,1.35-1,1.37c-.66.9-1.22,1.84-1.82,2.77s-1.15,1.88-1.72,2.82l-1.63,2.86c-.52,1-1,1.93-1.53,2.89l-1.44,2.93c-1.89,3.9-3.58,7.88-5.11,11.89s-2.94,8.07-4.2,12.14c-.65,2-1.22,4.08-1.82,6.13-.29,1-.55,2.05-.83,3.07s-.55,2.05-.81,3.08Q1040.63,512.51,1038.84,522.54Z" style="fill:#245b70"/><path d="M1066.11,565.55l2-5,2-5c.65-1.67,1.31-3.33,1.93-5,.31-.84.65-1.67.93-2.52l.87-2.54c1.15-3.39,2.24-6.8,3.37-10.2l.81-2.55c.27-.86.49-1.72.74-2.59l1.42-5.17,1.39-5.19c.23-.86.47-1.72.67-2.6l.59-2.62c.75-3.5,1.53-7,2.25-10.5s1.19-7.06,1.73-10.6c.3-1.76.5-3.55.69-5.32l.57-5.35c.09-.89.21-1.77.26-2.67l.15-2.69c.1-1.79.21-3.58.29-5.37,0-.45,0-.89,0-1.34v-8.08c0-.44,0-.89-.06-1.34-.1-1.8-.19-3.59-.3-5.38s-.35-3.58-.56-5.37c0-.44-.1-.89-.18-1.33l-.21-1.34c-.15-.89-.28-1.77-.45-2.66l-.58-2.64c-.23-.88-.45-1.75-.74-2.61,0,.45,0,.89,0,1.34s0,.89,0,1.33l-.14,2.65c-.06.89-.14,1.77-.21,2.65s-.1,1.75-.22,2.63c-.21,1.75-.35,3.5-.57,5.24l-.69,5.22S1083.18,520.34,1066.11,565.55Z" style="fill:#245b70"/><path d="M1070.49,605.86c1.64-3.51,2.85-7.06,4.1-10.58.62-1.76,1.22-3.52,1.77-5.28l1.67-5.28c.55-1.76,1.06-3.53,1.56-5.29s1.05-3.52,1.53-5.28c.25-.89.47-1.77.71-2.65l.75-2.64.71-2.65c.23-.88.44-1.77.69-2.65,1.86-7.06,3.64-14.14,5.27-21.29l1.19-5.39,1.14-5.42c.16-.92.37-1.82.54-2.73l.52-2.76c.33-1.84.66-3.69.94-5.59h0C1093.23,521.19,1070,576.17,1070.49,605.86Z" style="fill:#245b70"/><path d="M1044.47,605.11a1.41,1.41,0,0,0,1.57-1.24c3.86-47.51,35.37-184.84,35.69-186.22a1.38,1.38,0,0,0-1.12-1.63,1.46,1.46,0,0,0-1.74,1c-.32,1.38-31.87,138.89-35.74,186.59A1.4,1.4,0,0,0,1044.47,605.11Z" style="fill:#245b70"/><path d="M1084.08,409.55a1.44,1.44,0,0,0,1.54-1l3.43-13.33a1.37,1.37,0,0,0-1.08-1.65,1.46,1.46,0,0,0-1.77,1l-3.43,13.33a1.39,1.39,0,0,0,1.08,1.66Z" style="fill:#245b70"/><path d="M1076.59,405.31l-9.73,37.77a6.59,6.59,0,0,0,4.55,8.25l3.15.73a7,7,0,0,0,8-5.3l9.73-37.77a6.58,6.58,0,0,0-4.55-8.24l-3.15-.74A7,7,0,0,0,1076.59,405.31Z" style="fill:#245b70"/><path d="M1076.59,405.31l-9.73,37.77a6.59,6.59,0,0,0,4.55,8.25l.67.15,13.21-51.31-.66-.16A7,7,0,0,0,1076.59,405.31Z" style="fill:#245b70"/><path d="M1021.11,603.22a1.42,1.42,0,0,0,1.57-1.25c6-73.76-10.5-157.92-10.67-158.76a1.48,1.48,0,0,0-1.71-1.11,1.36,1.36,0,0,0-1.17,1.58c.17.84,16.59,84.66,10.63,158.06A1.43,1.43,0,0,0,1021.11,603.22Z" style="fill:#245b70"/><path d="M1003.52,414.08a1.57,1.57,0,0,0,.43,0,1.36,1.36,0,0,0,1.11-1.62L1001.84,399a1.48,1.48,0,0,0-1.75-1.05,1.34,1.34,0,0,0-1.11,1.61L1002.2,413A1.45,1.45,0,0,0,1003.52,414.08Z" style="fill:#245b70"/><path d="M995.48,413.24l9.12,38.1c.9,3.76,4.48,6.27,7.95,5.58l3.16-.62c3.48-.69,5.59-4.32,4.69-8.08l-9.12-38.11c-.9-3.75-4.48-6.26-8-5.58l-3.16.63C996.69,405.84,994.58,409.48,995.48,413.24Z" style="fill:#245b70"/><path d="M995.48,413.24l9.12,38.1c.9,3.76,4.48,6.27,7.95,5.58l.67-.13L1000.83,405l-.67.13C996.69,405.84,994.58,409.48,995.48,413.24Z" style="fill:#245b70"/><path d="M1029.39,603.89h.06a1.4,1.4,0,0,0,1.51-1.3c1.41-40.06,21-177.37,21.23-178.75a1.4,1.4,0,0,0-1.25-1.55,1.43,1.43,0,0,0-1.65,1.16c-.2,1.38-19.84,138.83-21.25,179A1.42,1.42,0,0,0,1029.39,603.89Z" style="fill:#245b70"/><path d="M1057.14,387.83a1.43,1.43,0,0,0,1.56-1.16l2-13.59a1.4,1.4,0,0,0-1.25-1.55,1.42,1.42,0,0,0-1.65,1.14l-2,13.6a1.4,1.4,0,0,0,1.25,1.55Z" style="fill:#245b70"/><path d="M1049.39,384.28l-5.77,38.51a6.69,6.69,0,0,0,5.37,7.81l3.21.45a6.83,6.83,0,0,0,7.44-6l5.78-38.51a6.69,6.69,0,0,0-5.37-7.81l-3.21-.45A6.83,6.83,0,0,0,1049.39,384.28Z" style="fill:#245b70"/><path d="M1049.39,384.28l-5.77,38.51a6.69,6.69,0,0,0,5.37,7.81l.67.09,7.86-52.31-.68-.1A6.83,6.83,0,0,0,1049.39,384.28Z" style="fill:#245b70"/><path d="M304.44,551.82c1.72,6.19,3.48,12.38,5.45,18.51s4,12.25,6.28,18.3c-.25-6.47-.74-12.88-1.2-19.28l-.75-9.6-.8-9.57L310,512.07c-2.24-25.33-4.28-50.58-5.24-75.76-.23-6.3-.4-12.59-.43-18.86-.06-3.14,0-6.28,0-9.42s.09-6.26.2-9.39c.21-6.25.53-12.49,1.05-18.7l.45-4.64c.12-1,.24-2,.36-3l.18-1.6.62-4.61c.25-1.53.46-3.07.74-4.59a130.6,130.6,0,0,1,4.32-17.94,78.19,78.19,0,0,1,3.27-8.53,53.6,53.6,0,0,1,4.37-7.94c3.33-5,7.72-9.36,13.44-11.6a21.62,21.62,0,0,1,4.48-1.22,21,21,0,0,1,4.77-.27,27.2,27.2,0,0,1,9.6,2.34,23.87,23.87,0,0,0-9-4.9,24.67,24.67,0,0,0-11.08-.58,26.69,26.69,0,0,0-5.54,1.56l-.67.26-.66.29-1.31.6-1.26.68-.63.35-.61.37a43.57,43.57,0,0,0-8.65,7.1A70.35,70.35,0,0,0,301,339.75c-.4.78-.76,1.56-1.11,2.36s-.72,1.57-1,2.37c-.64,1.59-1.31,3.18-1.87,4.79l-.87,2.41-.81,2.42c-.57,1.61-1,3.23-1.48,4.86s-.87,3.25-1.31,4.87l-1.17,4.9c-.35,1.63-.66,3.27-1,4.91l-.87,4.91c-1.09,6.56-1.86,13.12-2.39,19.67s-.85,13.11-.95,19.63c-.08,3.27,0,6.52,0,9.79,0,1.63.07,3.25.1,4.88s.07,3.25.14,4.87c.38,10.43,1.16,20.83,2.26,31.16.27,2.52.57,5,.87,7.55.81,6.41,1.71,12.79,2.76,19.15.54,3.17,1,6.36,1.61,9.53l1.81,9.48Q299.38,533.19,304.44,551.82Z" style="fill:#245b70"/><path d="M334.67,584.81c1.47-5.34,2.76-10.7,4-16.07S341,558,342.15,552.57s1.81-10.83,2.64-16.26c.44-2.71.81-5.43,1.2-8.15s.82-5.43,1.12-8.15l.81-8.19.74-8.19c.24-2.73.48-5.46.69-8.19.09-1.37.24-2.74.28-4.1l.18-4.11c.23-5.47.37-11,.56-16.43l.1-4.1c0-1.37,0-2.74,0-4.11l-.14-8.22-.18-8.21c-.05-1.37-.06-2.74-.13-4.1l-.27-4.11c-.41-5.46-.75-10.93-1.21-16.39-.63-5.44-1.27-10.89-2-16.32-.32-2.71-.8-5.42-1.28-8.12l-1.46-8.1c-.25-1.34-.46-2.69-.77-4l-.93-4c-.62-2.67-1.23-5.34-1.89-8-.17-.67-.32-1.34-.5-2l-.56-2L338,365l-1.17-3.95-.59-2c-.2-.65-.44-1.3-.66-1.95-.92-2.6-1.81-5.2-2.74-7.78s-2.07-5.11-3.13-7.64q-.39-1-.84-1.89L328,338c-.61-1.24-1.18-2.49-1.82-3.71l-2-3.64c-.71-1.18-1.41-2.37-2.2-3.5.2.65.38,1.31.55,2s.36,1.31.52,2L324,335c.3,1.32.55,2.65.83,4s.6,2.61.81,3.95c.44,2.67,1,5.3,1.41,7.95l1.22,8,.32,2,.25,2,.49,4,.53,4,.27,2c.08.67.13,1.34.2,2,.24,2.67.53,5.33.82,8l.43,4c.13,1.33.2,2.67.32,4l.63,8c.1,1.33.23,2.66.35,4s.17,2.67.25,4c.25,5.36.63,10.7.95,16,.14,5.36.38,10.72.57,16.07l.18,4c.05,1.34,0,2.68.06,4L335,455c.35,10.72.2,21.48.29,32.25.16,5.37-.13,10.76-.12,16.15l-.08,8.09v8.1c-.11,5.4-.27,10.81-.33,16.22l-.07,8.13c0,2.71,0,5.42,0,8.14-.13,5.42-.24,10.85-.24,16.3S334.44,579.32,334.67,584.81Z" style="fill:#245b70"/><path d="M259.87,449.59q8.38,36.11,19.51,71.56c.91,3,1.89,5.9,2.85,8.84s1.91,5.89,2.9,8.82c2,5.87,4.11,11.69,6.23,17.52l3.25,8.71q1.69,4.35,3.46,8.66c2.34,5.75,4.75,11.48,7.33,17.15q-1-5.91-2-11.77c-3.66-20.48-8.05-40.69-12.32-60.93-5.16-24.08-10.65-48-16.24-72s-11.48-47.86-17.64-71.72S244.57,326.74,237,303.07c.26,6.22.73,12.41,1.29,18.58q.42,4.64.9,9.25l1,9.24c.72,6.14,1.54,12.28,2.39,18.41.42,3.06.9,6.11,1.36,9.17s.91,6.12,1.42,9.16Q251.37,413.5,259.87,449.59Z" style="fill:#245b70"/><path d="M128,362.59a59.2,59.2,0,0,1,18.18,5.08,93.92,93.92,0,0,1,15.93,9.05l1.85,1.31.93.65.89.7,3.56,2.79c.6.44,1.14,1,1.71,1.46l1.71,1.47c1.13,1,2.27,1.94,3.33,3l1.56,1.52h0c.55.54,1.11,1.08,1.67,1.6l.8.78.77.81,1.54,1.63,3.06,3.26,2.91,3.4c1,1.14,2,2.24,2.9,3.39L194,408l2.74,3.52,2.6,3.63,2.58,3.63c.45.6.83,1.24,1.24,1.86l1.23,1.86,2.45,3.73,1.22,1.86c.39.64.77,1.28,1.15,1.92,1.51,2.57,3.06,5.11,4.6,7.65s2.88,5.22,4.32,7.82c.7,1.32,1.48,2.59,2.15,3.92l2,4c1.34,2.67,2.75,5.29,4,8a698.43,698.43,0,0,1,27.42,66.46c1,2.84,2.06,5.65,3.1,8.49s1.91,5.71,2.92,8.56l3,8.56c1,2.85,1.89,5.74,2.87,8.6l2.92,8.62,1.5,4.3,1.41,4.33c1.89,5.76,3.84,11.54,6,17.28-.45-6.09-1.09-12.16-1.8-18.23-.18-1.51-.35-3-.55-4.54l-.68-4.52-1.44-9-.77-4.51c-.26-1.5-.5-3-.81-4.51l-1.87-9c-.61-3-1.29-6-1.94-9s-1.47-5.93-2.26-8.89q-1-3.88-2.08-7.76a367.39,367.39,0,0,0-22.94-61.54c-5.61-11.07-11.51-22.05-18.65-32.4-.44-.65-.86-1.3-1.31-1.95L219,418.9l-2.78-3.82c-.94-1.26-1.82-2.56-2.83-3.78l-3-3.68-3-3.66c-1-1.19-2.13-2.37-3.21-3.54l-3.23-3.5c-1.12-1.15-2.29-2.25-3.42-3.38s-2.29-2.23-3.45-3.33l-3.65-3.16-1.83-1.57-.91-.79-1-.75c-1.28-1-2.58-2-3.86-2.94s-2.63-1.89-4-2.8-2.66-1.85-4.07-2.68L170.52,373l-1.06-.61-1.09-.56-2.2-1.12a86.5,86.5,0,0,0-18.53-6.84l-2.42-.54c-.8-.18-1.63-.29-2.45-.44-1.62-.29-3.29-.44-4.93-.62s-3.31-.19-5-.16c-.82,0-1.65.08-2.47.12S128.75,362.44,128,362.59Z" style="fill:#245b70"/><path d="M193.69,455.43a113.8,113.8,0,0,0,3.12,11.39c1.23,3.72,2.6,7.37,4.05,10.94,2.91,7.17,6.11,14.07,9.35,20.91s6.56,13.57,9.86,20.31L230,539.16q4.94,10.1,10,20.22c3.32,6.77,6.82,13.51,10.33,20.28,1.82,3.37,3.55,6.77,5.46,10.14s3.74,6.76,5.88,10.08a163.51,163.51,0,0,0-2.68-23l-.56-2.92-.53-2.74q-.6-2.82-1.26-5.63c-.86-3.76-1.89-7.46-2.92-11.16-2.14-7.39-4.64-14.67-7.42-21.86s-5.93-14.23-9.33-21.15-7.08-13.71-11-20.33-7.94-13.11-12-19.47l-6-9.53c-1.93-3.18-3.92-6.35-5.7-9.6s-3.54-6.54-5.11-9.95-2.94-6.95-4.3-10.63a54.13,54.13,0,0,0-.72,11.8A76.36,76.36,0,0,0,193.69,455.43Z" style="fill:#245b70"/><path d="M361.65,548.52c.3,1.4.65,2.79,1,4.19.68,2.79,1.44,5.56,2.22,8.32s1.74,5.5,2.72,8.22,2,5.43,3.28,8.09a171.82,171.82,0,0,0,1.47-17.3c.16-2.85.29-5.69.34-8.52l.18-8.48q.07-4.23,0-8.44t0-8.41c0-1.4-.07-2.8-.09-4.2l0-4.19-.1-4.2c0-1.39-.1-2.79-.12-4.19-.3-11.18-.73-22.33-1.41-33.54l-.56-8.42-.66-8.46c-.16-1.42-.24-2.83-.38-4.25l-.42-4.26c-.3-2.85-.62-5.71-1-8.62h0a73.85,73.85,0,0,0-3.2,8.3c-.93,2.81-1.72,5.63-2.44,8.46l-1,4.26c-.32,1.42-.59,2.85-.87,4.27s-.54,2.86-.79,4.29-.45,2.85-.64,4.29a210.38,210.38,0,0,0-1.9,34.43c.08,2.87.25,5.73.41,8.59l.29,4.28c.14,1.43.27,2.85.44,4.28q.45,4.26,1,8.52c.45,2.82.93,5.65,1.47,8.46Z" style="fill:#245b70"/><path d="M128,362.59a59.2,59.2,0,0,1,18.18,5.08,93.92,93.92,0,0,1,15.93,9.05l1.85,1.31.93.65.89.7,3.56,2.79c.6.44,1.14,1,1.71,1.46l1.71,1.47c1.13,1,2.27,1.94,3.33,3l1.56,1.52h0c19.89,13.61,52.88,46.85,85.64,127.07a367.39,367.39,0,0,0-22.94-61.54c-5.61-11.07-11.51-22.05-18.65-32.4-.44-.65-.86-1.3-1.31-1.95L219,418.9l-2.78-3.82c-.94-1.26-1.82-2.56-2.83-3.78l-3-3.68-3-3.66c-1-1.19-2.13-2.37-3.21-3.54l-3.23-3.5c-1.12-1.15-2.29-2.25-3.42-3.38s-2.29-2.23-3.45-3.33l-3.65-3.16-1.83-1.57-.91-.79-1-.75c-1.28-1-2.58-2-3.86-2.94s-2.63-1.89-4-2.8-2.66-1.85-4.07-2.68L170.52,373l-1.06-.61-1.09-.56-2.2-1.12a86.5,86.5,0,0,0-18.53-6.84l-2.42-.54c-.8-.18-1.63-.29-2.45-.44-1.62-.29-3.29-.44-4.93-.62s-3.31-.19-5-.16c-.82,0-1.65.08-2.47.12S128.75,362.44,128,362.59Z" style="fill:#245b70"/><path d="M224.67,508.27c13,11.13,25.23,40.72,33.72,65.65l-.53-2.74q-.6-2.82-1.26-5.63c-.86-3.76-1.89-7.46-2.92-11.16-2.14-7.39-4.64-14.67-7.42-21.86s-5.93-14.23-9.33-21.15-7.08-13.71-11-20.33-7.94-13.11-12-19.47l-6-9.53c-1.93-3.18-3.92-6.35-5.7-9.6s-3.54-6.54-5.11-9.95-2.94-6.95-4.3-10.63C192.85,431.87,200.46,487.61,224.67,508.27Z" style="fill:#245b70"/><path d="M268.92,457.71c4.54,19.8,23.11,83.08,34.47,121.37-3.66-20.48-8.05-40.69-12.32-60.93-5.16-24.08-10.65-48-16.24-72s-11.48-47.86-17.64-71.72S244.57,326.74,237,303.07C237,303.07,262.25,428.66,268.92,457.71Z" style="fill:#245b70"/><path d="M288.56,468.55c1.52-44.49,9.09-75.26,17.86-96.28l.18-1.6.62-4.61c.25-1.53.46-3.07.74-4.59a130.6,130.6,0,0,1,4.32-17.94,78.19,78.19,0,0,1,3.27-8.53,53.6,53.6,0,0,1,4.37-7.94c3.33-5,7.72-9.36,13.44-11.6a21.62,21.62,0,0,1,4.48-1.22,21,21,0,0,1,4.77-.27,27.2,27.2,0,0,1,9.6,2.34,23.87,23.87,0,0,0-9-4.9,24.67,24.67,0,0,0-11.08-.58,26.69,26.69,0,0,0-5.54,1.56l-.67.26-.66.29-1.31.6-1.26.68-.63.35-.61.37a43.57,43.57,0,0,0-8.65,7.1A70.35,70.35,0,0,0,301,339.75c-.4.78-.76,1.56-1.11,2.36s-.72,1.57-1,2.37c-.64,1.59-1.31,3.18-1.87,4.79l-.87,2.41-.81,2.42c-.57,1.61-1,3.23-1.48,4.86s-.87,3.25-1.31,4.87l-1.17,4.9c-.35,1.63-.66,3.27-1,4.91l-.87,4.91c-1.09,6.56-1.86,13.12-2.39,19.67s-.85,13.11-.95,19.63c-.08,3.27,0,6.52,0,9.79,0,1.63.07,3.25.1,4.88s.07,3.25.14,4.87C286.68,447.82,287.46,458.22,288.56,468.55Z" style="fill:#245b70"/><path d="M347.11,520l.81-8.19.74-8.19c.24-2.73.48-5.46.69-8.19.09-1.37.24-2.74.28-4.1l.18-4.11c.23-5.47.37-11,.56-16.43l.1-4.1c0-1.37,0-2.74,0-4.11l-.14-8.22-.18-8.21c-.05-1.37-.06-2.74-.13-4.1l-.27-4.11c-.41-5.46-.75-10.93-1.21-16.39-.63-5.44-1.27-10.89-2-16.32-.32-2.71-.8-5.42-1.28-8.12l-1.46-8.1c-.25-1.34-.46-2.69-.77-4l-.93-4c-.62-2.67-1.23-5.34-1.89-8-.17-.67-.32-1.34-.5-2l-.56-2L338,365l-1.17-3.95-.59-2c-.2-.65-.44-1.3-.66-1.95-.92-2.6-1.81-5.2-2.74-7.78s-2.07-5.11-3.13-7.64q-.39-1-.84-1.89L328,338c-.61-1.24-1.18-2.49-1.82-3.71l-2-3.64c-.71-1.18-1.41-2.37-2.2-3.5.2.65.38,1.31.55,2s.36,1.31.52,2L324,335c.3,1.32.55,2.65.83,4s.6,2.61.81,3.95c.44,2.67,1,5.3,1.41,7.95l1.22,8S352.75,446.27,347.11,520Z" style="fill:#245b70"/><path d="M370.86,577.34a171.82,171.82,0,0,0,1.47-17.3c.16-2.85.29-5.69.34-8.52l.18-8.48q.07-4.23,0-8.44t0-8.41c0-1.4-.07-2.8-.09-4.2l0-4.19-.1-4.2c0-1.39-.1-2.79-.12-4.19-.3-11.18-.73-22.33-1.41-33.54l-.56-8.42-.66-8.46c-.16-1.42-.24-2.83-.38-4.25l-.42-4.26c-.3-2.85-.62-5.71-1-8.62h0C367.89,443.19,357.35,534,370.86,577.34Z" style="fill:#245b70"/><path d="M709.47,616c-1.49-4.84-2.82-9.71-4.1-14.6-.38-1.42-.74-2.85-1.11-4.28-.88-3.47-1.72-6.95-2.56-10.43-1.06-4.93-2-9.89-2.94-14.85-.49-2.48-.92-5-1.37-7.45s-.92-5-1.29-7.47l-1-7.51-1-7.51c-.32-2.52-.65-5-.93-7.53-.13-1.26-.32-2.51-.41-3.77l-.32-3.78c-.42-5.05-.76-10.09-1.15-15.14l-.26-3.79c-.07-1.26-.09-2.53-.14-3.8l-.22-7.59-.17-7.6c0-1.27-.06-2.53,0-3.8l.06-3.81c.13-5.07.21-10.14.38-15.21.33-5.07.66-10.14,1.08-15.2.16-2.53.46-5.06.77-7.58l.93-7.57c.16-1.26.29-2.52.51-3.78l.63-3.76c.43-2.51.85-5,1.32-7.52.11-.62.21-1.25.34-1.87l.41-1.87.83-3.73.85-3.72.42-1.86c.15-.61.33-1.23.49-1.84.7-2.46,1.36-4.91,2.06-7.36s1.57-4.84,2.4-7.25c.19-.6.41-1.2.64-1.79l.69-1.79c.47-1.18.92-2.37,1.41-3.54l1.57-3.48c.56-1.14,1.12-2.28,1.76-3.38q-.22.93-.39,1.86c-.13.62-.27,1.23-.37,1.85l-.65,3.71c-.21,1.24-.37,2.48-.56,3.73s-.41,2.45-.53,3.7c-.28,2.5-.64,5-.91,7.43l-.73,7.44-.19,1.85-.13,1.86-.27,3.72-.29,3.72-.15,1.85c0,.62-.06,1.24-.09,1.86,0,.26,0,.52,0,.77-.1,2.23-.23,4.45-.35,6.67l-.21,3.71c-.06,1.24-.07,2.48-.11,3.72l-.22,7.44c0,1.24-.1,2.48-.15,3.71s0,2.48,0,3.72c0,5-.12,9.92-.17,14.87s.1,9.93.15,14.89V485c0,1.24.08,2.48.11,3.72l.22,7.45c.14,9.92.7,19.85,1.06,29.8.08,5,.55,9.94.76,14.92l.4,7.46.32,7.49c.32,5,.67,10,.94,15l.4,7.5c.12,2.5.2,5,.35,7.51.33,5,.64,10,.87,15S709.44,611,709.47,616Z" style="fill:#245b70"/><path d="M742.1,441.75l-1.83,11c-.61,3.68-1.3,7.34-1.95,11s-1.36,7.33-2.08,11-1.4,7.32-2.18,11c-1.57,7.29-3.06,14.59-4.82,21.84-.86,3.63-1.68,7.26-2.6,10.88l-2.76,10.84c-3.84,14.42-8,28.74-12.78,42.9-2.46,7.05-4.87,14.1-7.62,21.05Q700.92,600,698,606.61q-1.56,3.64-3.2,7.27l8.64-43.71q4.17-21.81,8.09-43.61l1.91-10.91q1-5.44,1.91-10.9l3.72-21.83c1.18-7.28,2.49-14.55,3.61-21.84l3.55-21.86,6.93-43.78L740,351.6q3-18.8,6-37.63.51-3.12,1-6.26c1.2-7.32,2.41-14.64,3.68-22s2.53-14.66,3.91-22c.39,7.46.5,14.91.51,22.36s-.11,14.9-.3,22.34c-.43,14.89-1.25,29.76-2.35,44.6q-.84,11.13-1.92,22.25c-.37,3.7-.71,7.41-1.13,11.11l-1.25,11.09C746.45,412.28,744.45,427,742.1,441.75Z" style="fill:#245b70"/><path d="M831,488.51a26.22,26.22,0,0,0-10-7,25.89,25.89,0,0,0-11.15-1.65c-7.4.55-14.19,3.93-20.09,8.61a86.27,86.27,0,0,0-15.76,16.92c-2.32,3.19-4.53,6.51-6.62,9.92s-4.11,6.91-6,10.48-3.77,7.19-5.54,10.88l-1.33,2.76-1.29,2.79c-.9,1.84-1.69,3.74-2.56,5.6-3.35,7.53-6.51,15.19-9.63,22.93s-6.13,15.56-9.21,23.43l-1.18,2.95c-.39,1-.74,2-1.15,3l-2.35,5.93c-.77,2-1.61,4-2.41,5.93s-1.63,4-2.54,5.93c0-4.32.24-8.61.6-12.89,0-.44.07-.88.11-1.32.33-3.83.77-7.65,1.29-11.46A254.76,254.76,0,0,1,729,566.93a207.3,207.3,0,0,1,18.27-48.71c1-1.94,2.14-3.86,3.25-5.77s2.3-3.79,3.55-5.63a119.93,119.93,0,0,1,8-10.79,79.27,79.27,0,0,1,20.73-18,55.37,55.37,0,0,1,6.37-3.14,46.84,46.84,0,0,1,6.82-2.22,36.29,36.29,0,0,1,14.38-.59c.74.12,1.48.27,2.2.46a28,28,0,0,1,10.69,5.18A23.11,23.11,0,0,1,831,488.51Z" style="fill:#245b70"/><path d="M812.62,472.54c-14.08.73-37.58,9.29-61.17,50.52-15.67,27.38-24.06,56.31-28.52,80.64.33-3.83.77-7.65,1.29-11.46A254.76,254.76,0,0,1,729,566.93a207.3,207.3,0,0,1,18.27-48.71c1-1.94,2.14-3.86,3.25-5.77s2.3-3.79,3.55-5.63a119.93,119.93,0,0,1,8-10.79,79.27,79.27,0,0,1,20.73-18,55.37,55.37,0,0,1,6.37-3.14,46.84,46.84,0,0,1,6.82-2.22,36.29,36.29,0,0,1,14.38-.59C811.16,472.2,811.9,472.35,812.62,472.54Z" style="fill:#245b70"/><path d="M736.24,434c-5.39,36.64-27.83,130.15-38.2,172.57q-1.56,3.64-3.2,7.27l8.64-43.71q4.17-21.81,8.09-43.61l1.91-10.91q1-5.44,1.91-10.9l3.72-21.83c1.18-7.28,2.49-14.55,3.61-21.84l3.55-21.86,6.93-43.78L740,351.6q3-18.8,6-37.63C744.1,350.12,740.67,404,736.24,434Z" style="fill:#245b70"/><path d="M704.26,597.15c-.88-3.47-1.72-6.95-2.56-10.43-1.06-4.93-2-9.89-2.94-14.85-.49-2.48-.92-5-1.37-7.45s-.92-5-1.29-7.47l-1-7.51-1-7.51c-.32-2.52-.65-5-.93-7.53-.13-1.26-.32-2.51-.41-3.77l-.32-3.78c-.42-5.05-.76-10.09-1.15-15.14l-.26-3.79c-.07-1.26-.09-2.53-.14-3.8l-.22-7.59-.17-7.6c0-1.27-.06-2.53,0-3.8l.06-3.81c.13-5.07.21-10.14.38-15.21.33-5.07.66-10.14,1.08-15.2.16-2.53.46-5.06.77-7.58l.93-7.57c.16-1.26.29-2.52.51-3.78l.63-3.76c.43-2.51.85-5,1.32-7.52.11-.62.21-1.25.34-1.87l.41-1.87.83-3.73.85-3.72.42-1.86c.15-.61.33-1.23.49-1.84.7-2.46,1.36-4.91,2.06-7.36s1.57-4.84,2.4-7.25c.19-.6.41-1.2.64-1.79l.69-1.79c.47-1.18.92-2.37,1.41-3.54l1.57-3.48c.56-1.14,1.12-2.28,1.76-3.38q-.22.93-.39,1.86c-.13.62-.27,1.23-.37,1.85l-.65,3.71c-.21,1.24-.37,2.48-.56,3.73s-.41,2.45-.53,3.7c-.28,2.5-.64,5-.91,7.43l-.73,7.44-.19,1.85-.13,1.86-.27,3.72-.29,3.72-.15,1.85c0,.62-.06,1.24-.09,1.86,0,.26,0,.52,0,.77C697,454.59,688.7,514.78,704.26,597.15Z" style="fill:#245b70"/><path d="M715,618.8a1.93,1.93,0,0,1-1.63-2.19C721.21,563.26,738.18,512,751,478.29c13.93-36.46,26.18-60.65,26.3-60.89a1.93,1.93,0,1,1,3.45,1.75c-.49,1-48.68,96.6-63.6,198A1.93,1.93,0,0,1,715,618.8Z" style="fill:#245b70"/><path d="M803.92,373.67a1.68,1.68,0,0,1-.7-.22,1.93,1.93,0,0,1-.78-2.62l9.26-17.16a1.93,1.93,0,1,1,3.4,1.84l-9.26,17.16A1.91,1.91,0,0,1,803.92,373.67Z" style="fill:#245b70"/><path d="M814.27,375.5,788,424.1c-2.59,4.8-8.09,6.89-12.24,4.65l-3.76-2c-4.14-2.23-5.42-8-2.83-12.78l26.24-48.61c2.59-4.79,8.09-6.88,12.23-4.65l3.77,2C815.59,365,816.86,370.7,814.27,375.5Z" style="fill:#245b70"/><path d="M814.27,375.5,788,424.1c-2.59,4.8-8.09,6.89-12.24,4.65l-.79-.42,35.65-66,.79.43C815.59,365,816.86,370.7,814.27,375.5Z" style="fill:#245b70"/><path d="M692,615.42a1.93,1.93,0,0,1-1.63-2.2C722,398.54,718.87,327.66,718.84,327a1.93,1.93,0,0,1,3.86-.2c0,.69,3.17,71.81-28.49,287A1.93,1.93,0,0,1,692,615.42Z" style="fill:#245b70"/><path d="M716.23,279.32a2,2,0,0,1-1.65-1.79l-1.27-19.46a1.93,1.93,0,1,1,3.86-.25l1.28,19.46a1.93,1.93,0,0,1-1.81,2.05A1.88,1.88,0,0,1,716.23,279.32Z" style="fill:#245b70"/><path d="M727.09,275.19l3.62,55.11c.36,5.44-3.19,10.14-7.89,10.45l-4.27.28c-4.69.31-8.83-3.89-9.19-9.32l-3.62-55.12c-.36-5.44,3.2-10.14,7.89-10.44l4.27-.28C722.6,265.56,726.73,269.75,727.09,275.19Z" style="fill:#245b70"/><path d="M727.09,275.19l3.62,55.11c.36,5.44-3.19,10.14-7.89,10.45l-.89.06L717,265.92l.9-.05C722.6,265.56,726.73,269.75,727.09,275.19Z" style="fill:#245b70"/><g style="opacity:0.27"><path d="M763.15,608.66s5.94-18,19.83-28.6,18.64-12.21,21-7.12-13.73,25.66-18.93,31.83-18.81,18.28-21.75,16.42S763.15,608.66,763.15,608.66Z" style="fill:#245b70"/><path d="M771.21,583.79s-9.78-12.93,6.38-33.89S794,540,795.54,541.77s-4.32,17.08-5,19.07-14.6,18.9-14.6,18.9Z" style="fill:#245b70"/><path d="M756.05,620.67s-13.61-20.79-14-36,8.74-14.51,11.36-13.46,9.16,14.63,8.34,20.76S756.05,620.67,756.05,620.67Z" style="fill:#245b70"/><path d="M763.92,570.2s-8.68-15.14-8-27.15,7.78-12.8,9.85-11.68,6.29,8.14,6.29,17.72S763.92,570.2,763.92,570.2Z" style="fill:#245b70"/><path d="M772,549.09s30.45-22.12,31.71-30.37-.69-11.13-4.15-10.32-18,15.82-18,15.82,3.69-23.53-2.55-25.69-10.62,5.23-11.6,13.76S772,549.09,772,549.09Z" style="fill:#245b70"/><path d="M786.13,512.58s25.27-9.73,30.06-28.66S791.64,496.12,786.13,512.58Z" style="fill:#245b70"/><path d="M781.86,491.5s.49-29.28,9.16-26.32-4.89,47.4-4.89,47.4Z" style="fill:#245b70"/><path d="M795.71,487.23s15.28-18.7,16.68-28.34-5.91.72-5.91.72-11.6,17.81-11.19,22.72S793.36,487,795.71,487.23Z" style="fill:#245b70"/><path d="M756.51,669.08S781,656,785.58,640s-8.65-13-11.65-9.82-11.87,15.1-13.74,20.35-4.45-16-6.44-23.08-8.83-20.82-13.86-17.94-1.38,22.17-.24,28.25,8.74,24.74,10.73,28.12S756.51,669.08,756.51,669.08Z" style="fill:#245b70"/><path d="M749,686.4s24.86-48.64,16.17-203.71c0,0,9.07,140.41-12.1,206Z" style="fill:#245b70"/></g><g style="opacity:0.27"><path d="M361,604.34c-1.61-3.78-3.33-7.16-4.42-7.32-2.06-.31-7.77-6.56-8.53,8.85C352.13,605.21,356.53,604.64,361,604.34Z" style="fill:#245b70"/><path d="M331.08,609a8.75,8.75,0,0,0-4.06-.69,4.69,4.69,0,0,0-2.67,2.1Q327.71,609.66,331.08,609Z" style="fill:#245b70"/><path d="M332.41,608.72l3.27-.63c2.95-.56,6.39-1.23,10.12-1.86,2.28-11.35,4.87-27.61,2.11-32.11-4.35-7.12-7.69-8.07-9.82-5.22s-3.55,23.69-3.55,23.69-12.34-20.37-18.51-18-4.74,10.85,0,18C318.53,596.36,326,603.14,332.41,608.72Z" style="fill:#245b70"/><path d="M330.51,580.76S343.56,557,335,539.48,324.11,564.63,330.51,580.76Z" style="fill:#245b70"/><path d="M313.66,567.4s-18.51-22.7-10-26,26.81,39.38,26.81,39.38Z" style="fill:#245b70"/><path d="M321.49,555.21s-.37-24.15-5.51-32.42-4.06,4.36-4.06,4.36,2.61,21.1,6.09,24.58S319.53,556.52,321.49,555.21Z" style="fill:#245b70"/><path d="M329.51,609.3c-19.55-22.52-34.29-37.87-34.29-37.87,12.72,13.47,24.09,26.09,34.26,37.87Z" style="fill:#245b70"/></g><g style="opacity:0.27"><path d="M113.25,663.11s5.94-18,19.82-28.6,18.65-12.21,21-7.11-13.73,25.66-18.93,31.83-18.81,18.28-21.75,16.42S113.25,663.11,113.25,663.11Z" style="fill:#245b70"/><path d="M121.31,638.25s-9.78-12.93,6.38-33.9,16.36-9.92,17.95-8.12-4.32,17.08-5,19.06-14.6,18.9-14.6,18.9Z" style="fill:#245b70"/><path d="M106.15,675.13s-13.61-20.79-14-36,8.73-14.51,11.36-13.47,9.16,14.63,8.34,20.76S106.15,675.13,106.15,675.13Z" style="fill:#245b70"/><path d="M114,624.65s-8.68-15.13-8-27.14,7.78-12.81,9.85-11.69,6.29,8.15,6.29,17.72S114,624.65,114,624.65Z" style="fill:#245b70"/><path d="M122.11,603.54s30.45-22.12,31.71-30.37-.69-11.13-4.15-10.32-18,15.82-18,15.82,3.69-23.52-2.55-25.69-10.62,5.24-11.6,13.76S122.11,603.54,122.11,603.54Z" style="fill:#245b70"/><path d="M136.23,567s25.27-9.73,30.06-28.66S141.74,550.57,136.23,567Z" style="fill:#245b70"/><path d="M132,546s.49-29.29,9.16-26.32S136.23,567,136.23,567Z" style="fill:#245b70"/><path d="M145.81,541.68s15.28-18.7,16.68-28.33-5.91.71-5.91.71-11.6,17.82-11.19,22.72S143.46,541.42,145.81,541.68Z" style="fill:#245b70"/><path d="M106.61,723.53s24.43-13.12,29.07-29.08-8.65-13-11.65-9.81S112.16,699.73,110.29,705s-4.45-16-6.44-23.07S95,661.09,90,664s-1.38,22.18-.24,28.26,8.74,24.73,10.73,28.11S106.61,723.53,106.61,723.53Z" style="fill:#245b70"/><path d="M99.1,740.85s24.86-48.64,16.17-203.7c0,0,9.07,140.4-12.1,205.94Z" style="fill:#245b70"/></g><g style="opacity:0.27"><path d="M89.69,640.37s.77-18.89,11.18-33,14.56-16.87,18.24-12.62-6.14,28.45-9.44,35.81-13,22.75-16.39,21.78S89.69,640.37,89.69,640.37Z" style="fill:#245b70"/><path d="M90.59,614.25s-13-9.73-3.2-34.34,13-14,15-12.75.55,17.61.47,19.7-8.83,22.19-8.83,22.19Z" style="fill:#245b70"/><path d="M86.18,653.88s-18.82-16.24-23.4-30.78S67.18,606.75,70,607s12.85,11.54,13.74,17.66S86.18,653.88,86.18,653.88Z" style="fill:#245b70"/><path d="M79.84,603.19S67.32,591,64.62,579.31s4-14.45,6.26-13.94,8.29,6.09,10.93,15.3S79.84,603.19,79.84,603.19Z" style="fill:#245b70"/><path d="M81.81,580.67S105,551,103.92,542.74,100.2,532.23,97.1,534s-12.94,20.16-12.94,20.16-2.92-23.63-9.52-24-8.77,8-7.36,16.42S81.81,580.67,81.81,580.67Z" style="fill:#245b70"/><path d="M85.33,541.68s21.61-16.31,21-35.82S86.09,524.34,85.33,541.68Z" style="fill:#245b70"/><path d="M75.42,522.6s-7.6-28.29,1.55-27.83,8.36,46.91,8.36,46.91Z" style="fill:#245b70"/><path d="M87.55,514.68s9.55-22.19,8.24-31.84-5.49,2.31-5.49,2.31-6.25,20.33-4.5,24.93S85.23,515.07,87.55,514.68Z" style="fill:#245b70"/><path d="M99.94,700.29s19.88-19.34,19.94-36S108,654.18,106,658.1s-7.25,17.78-7.6,23.34S89.69,667.3,85.83,661,71.61,643.45,67.56,647.6s4.79,21.7,7.55,27.23S90.33,696.2,93.17,698.9,99.94,700.29,99.94,700.29Z" style="fill:#245b70"/><path d="M97.49,719S108,665.4,56.94,518.73c0,0,47.38,132.47,45.09,201.31Z" style="fill:#245b70"/></g><path d="M1262.74,551.71c-8,3.2-29.82,14.66-29.82,14.66,4.87-5.74,20.62-15,26.74-18.54a93.41,93.41,0,0,0-13.82-13.33c-9.11,8-25.71,24.32-25.71,24.32,6.6-9.93,17.74-22.61,21.85-27.19a100.39,100.39,0,0,0-13.25-7.9c-9.36,7.87-26.69,27.21-26.69,27.21,5.42-10.42,18.24-24.93,22.2-29.31A112,112,0,0,0,1210,516.5c-8,6.87-20.84,23.91-20.84,23.91a126.3,126.3,0,0,1,15.76-25.26,137,137,0,0,0-18-3c-5.15,8-13,24.63-13,24.63,1.28-8.89,6-20,8.3-25-2.15-.15-4.35-.27-6.6-.34q-5.34-.15-10.31.08c-3.07,16.91-3.62,46.62-3.62,46.62-2.49-18.11-2.39-36.73-2.1-46.21a108.7,108.7,0,0,0-16.33,2.76c.83,10.7,2.72,30.89,6,45.67,0,0-9.75-23.56-12.23-43.91a93.07,93.07,0,0,0-14,5.74c4.06,12.62,15,35.51,15,35.51-5-6.45-16-25.11-20.28-32.58-2.63,1.58-5.08,3.23-7.38,4.94L1125,566.39l-14.16-20.82a3.52,3.52,0,1,1-3.43-5l-3.52-5.18A91.85,91.85,0,0,0,1093,547.17l11.33,25.24-15.22-19.8a73.34,73.34,0,0,0-8.13,15.7L1091.45,580l171.38,3.64,8.09-18.11A65.22,65.22,0,0,0,1262.74,551.71Zm-50.08,12.51a3.53,3.53,0,1,1,3.83-3.18A3.52,3.52,0,0,1,1212.66,564.22Z" style="fill:#245b70"/><circle cx="1244.3" cy="569" r="3.53" style="fill:#245b70"/><circle cx="1285.79" cy="552.8" r="3.53" style="fill:#245b70"/><circle cx="1176.4" cy="582.87" r="3.53" style="fill:#245b70"/><path d="M1333.94,672.89c1.18,6.32,2.41,12.63,3.85,18.91s2.94,12.54,4.7,18.76c.3-6.46.36-12.89.44-19.31l.07-9.62,0-9.6-.12-38.26c-.07-25.43,0-50.77,1.24-75.94.3-6.29.67-12.57,1.17-18.83.21-3.13.54-6.25.8-9.38s.62-6.23,1-9.34c.73-6.21,1.59-12.4,2.64-18.54l.84-4.59c.2-1,.41-2,.62-3,.1-.52.21-1.05.31-1.58l1-4.54c.38-1.5.72-3,1.13-4.5a132.64,132.64,0,0,1,5.83-17.51,80.08,80.08,0,0,1,4-8.23,54.24,54.24,0,0,1,5-7.53c3.74-4.68,8.48-8.67,14.38-10.42a22.36,22.36,0,0,1,4.56-.83,21.3,21.3,0,0,1,4.78.14,27.13,27.13,0,0,1,9.37,3.15,23.83,23.83,0,0,0-8.58-5.65,24.77,24.77,0,0,0-11-1.53,28,28,0,0,0-5.66,1.08l-.69.21-.67.23-1.36.49-1.32.57-.65.29-.64.32a43.54,43.54,0,0,0-9.22,6.33,70.38,70.38,0,0,0-13.27,16.64c-.47.75-.89,1.5-1.31,2.26s-.85,1.51-1.24,2.27c-.77,1.54-1.57,3.07-2.27,4.62l-1.07,2.33-1,2.34c-.7,1.55-1.27,3.13-1.89,4.71s-1.14,3.17-1.71,4.75l-1.58,4.78c-.5,1.6-.94,3.21-1.42,4.81l-1.28,4.82c-1.66,6.43-3,12.91-4.07,19.39s-2,13-2.61,19.48c-.36,3.25-.6,6.49-.88,9.74-.12,1.63-.2,3.25-.31,4.88s-.21,3.24-.28,4.86c-.5,10.43-.61,20.85-.4,31.24.06,2.53.13,5.07.23,7.6q.38,9.68,1.11,19.31c.27,3.21.49,6.43.8,9.63l1,9.61C1329.77,647.51,1331.61,660.24,1333.94,672.89Z" style="fill:#245b70"/><path d="M1361.25,708.34c1.92-5.2,3.65-10.43,5.34-15.68s3.28-10.52,4.85-15.81,2.74-10.63,4-16c.67-2.67,1.27-5.34,1.89-8s1.28-5.34,1.81-8l1.51-8.09,1.43-8.09c.47-2.7,1-5.4,1.38-8.11.21-1.36.47-2.7.64-4.06l.52-4.07c.7-5.44,1.31-10.88,2-16.33l.45-4.08c.14-1.36.21-2.73.32-4.1l.56-8.19.52-8.2c.07-1.37.18-2.73.22-4.1l.09-4.11c0-5.48.18-11,.18-16.43-.16-5.48-.34-11-.6-16.44-.09-2.73-.33-5.47-.58-8.2L1387,514c-.13-1.36-.22-2.72-.42-4.09l-.59-4.08c-.38-2.71-.77-5.43-1.19-8.13-.12-.68-.21-1.36-.33-2l-.39-2-.8-4-.83-4-.42-2c-.15-.67-.32-1.34-.49-2-.69-2.67-1.37-5.33-2.07-8s-1.62-5.26-2.47-7.87c-.2-.66-.42-1.31-.67-2l-.72-1.95c-.51-1.28-1-2.57-1.49-3.85l-1.67-3.79c-.61-1.24-1.2-2.48-1.9-3.68.15.67.27,1.34.38,2s.25,1.34.35,2l.6,4c.18,1.34.32,2.68.49,4s.37,2.66.46,4c.22,2.7.53,5.36.74,8l.53,8,.14,2,.08,2,.16,4,.18,4,.1,2c0,.67,0,1.34,0,2,0,2.68.08,5.35.14,8l.08,4c0,1.34,0,2.68,0,4l0,8c0,1.34,0,2.67,0,4s-.07,2.67-.09,4c-.21,5.35-.28,10.71-.43,16-.32,5.36-.53,10.72-.79,16.07l-.17,4c-.07,1.33-.19,2.67-.28,4l-.57,8c-.57,10.71-1.63,21.42-2.46,32.15-.29,5.37-1,10.72-1.5,16.09l-.77,8.05-.68,8.07c-.58,5.37-1.19,10.75-1.71,16.14l-.77,8.08c-.24,2.7-.44,5.41-.72,8.11-.59,5.39-1.16,10.8-1.63,16.22S1361.49,702.85,1361.25,708.34Z" style="fill:#245b70"/><path d="M1298.24,567.24q5.27,36.69,13.34,73c.66,3,1.38,6,2.08,9s1.4,6,2.15,9c1.47,6,3.1,12,4.71,18l2.5,9q1.31,4.47,2.71,8.92c1.84,5.93,3.75,11.84,5.84,17.71q-.45-6-1-11.89c-1.9-20.73-4.55-41.23-7.07-61.77-3.1-24.42-6.52-48.78-10-73.13s-7.36-48.66-11.47-73-8.51-48.58-14-72.81c-.28,6.22-.33,12.43-.3,18.63q0,4.63.11,9.29l.24,9.29c.2,6.18.49,12.36.82,18.54.15,3.09.37,6.17.57,9.26s.39,6.17.63,9.25Q1292.85,530.55,1298.24,567.24Z" style="fill:#245b70"/><path d="M1174.21,469.32a59.1,59.1,0,0,1,17.68,6.61A93,93,0,0,1,1207,486.3l1.74,1.46.87.73.83.77,3.3,3.08c.56.49,1,1.08,1.58,1.6l1.58,1.62c1,1.07,2.1,2.12,3.06,3.28l1.42,1.64h0l1.52,1.74.74.83.7.88,1.38,1.76,2.78,3.51,2.61,3.63c.86,1.22,1.76,2.4,2.6,3.63l2.42,3.75,2.44,3.74,2.27,3.84,2.27,3.84c.4.63.72,1.31,1.08,2l1.06,2,2.13,3.93,1,2c.34.67.66,1.34,1,2,1.28,2.69,2.61,5.35,3.93,8s2.42,5.45,3.63,8.16c.59,1.37,1.26,2.7,1.82,4.09l1.68,4.14c1.11,2.77,2.28,5.51,3.34,8.3a701.68,701.68,0,0,1,21.65,68.56c.75,2.91,1.58,5.81,2.37,8.72s1.41,5.86,2.17,8.78l2.25,8.78c.79,2.93,1.4,5.88,2.13,8.82l2.18,8.83,1.12,4.41,1,4.44c1.4,5.91,2.85,11.82,4.49,17.73.07-6.11-.06-12.21-.25-18.31,0-1.53-.08-3.06-.15-4.58l-.3-4.56-.66-9.13-.39-4.56c-.12-1.52-.23-3-.42-4.56l-1.1-9.09c-.35-3-.77-6.06-1.16-9.09s-1-6-1.5-9.05c-.45-2.64-.91-5.28-1.41-7.91a368.21,368.21,0,0,0-17.62-63.28c-4.64-11.5-9.58-22.94-15.82-33.86-.38-.68-.74-1.37-1.13-2.06l-1.23-2-2.44-4c-.83-1.34-1.6-2.7-2.5-4l-2.69-3.92-2.69-3.91c-.94-1.27-1.91-2.54-2.89-3.79l-2.92-3.77c-1-1.24-2.09-2.44-3.12-3.65s-2.09-2.43-3.15-3.62l-3.37-3.46-1.69-1.72-.84-.86-.89-.83c-1.19-1.09-2.4-2.17-3.6-3.26s-2.46-2.11-3.73-3.13-2.49-2.07-3.82-3l-4-2.82-1-.71-1-.65-2.1-1.3a86,86,0,0,0-17.87-8.39l-2.37-.75c-.78-.25-1.6-.43-2.4-.64-1.59-.43-3.24-.73-4.86-1s-3.28-.48-4.94-.58c-.82-.07-1.65-.07-2.47-.1S1175,469.23,1174.21,469.32Z" style="fill:#245b70"/><path d="M1231.8,567.42a114.7,114.7,0,0,0,2.14,11.61c.91,3.81,2,7.56,3.11,11.25,2.28,7.39,4.88,14.54,7.53,21.63S1250,626,1252.67,633l8.15,20.95c2.71,7,5.43,14,8.23,21s5.64,14,8.56,21.09c1.52,3.51,3,7.05,4.58,10.56s3.15,7.06,5,10.55a164.15,164.15,0,0,0-.71-23.18l-.31-3-.3-2.78c-.24-1.9-.49-3.81-.77-5.71-.53-3.82-1.25-7.59-2-11.37-1.5-7.55-3.37-15-5.53-22.42s-4.7-14.68-7.5-21.87-5.88-14.25-9.17-21.19-6.79-13.73-10.29-20.41l-5.19-10c-1.66-3.34-3.37-6.66-4.87-10.05s-3-6.82-4.24-10.35-2.34-7.18-3.38-11a54.63,54.63,0,0,0-1.72,11.68A75.87,75.87,0,0,0,1231.8,567.42Z" style="fill:#245b70"/><path d="M1391.22,674.47c.18,1.42.4,2.84.63,4.26.44,2.84,1,5.67,1.5,8.49s1.27,5.63,2,8.42,1.57,5.58,2.58,8.34c1.4-5.76,2.14-11.45,2.94-17.11.4-2.83.78-5.65,1.07-8.46l.9-8.43c.28-2.81.53-5.61.73-8.41s.51-5.59.7-8.39c.1-1.4.17-2.79.27-4.18l.31-4.19.27-4.19c.08-1.39.13-2.79.23-4.18.66-11.17,1.18-22.32,1.46-33.54l.16-8.44L1407,586c0-1.42,0-2.83,0-4.26l-.06-4.29c0-2.86-.13-5.74-.28-8.67h0a73.64,73.64,0,0,0-3.89,8c-1.16,2.72-2.2,5.46-3.15,8.22l-1.38,4.16c-.45,1.39-.84,2.78-1.24,4.18s-.78,2.8-1.14,4.2-.69,2.81-1,4.22a210.83,210.83,0,0,0-4.83,34.15c-.16,2.86-.24,5.73-.32,8.59l-.08,4.29c0,1.44,0,2.86.08,4.3.06,2.86.17,5.72.31,8.58s.45,5.71.74,8.56Z" style="fill:#245b70"/><path d="M1174.21,469.32a59.1,59.1,0,0,1,17.68,6.61A93,93,0,0,1,1207,486.3l1.74,1.46.87.73.83.77,3.3,3.08c.56.49,1,1.08,1.58,1.6l1.58,1.62c1,1.07,2.1,2.12,3.06,3.28l1.42,1.64h0c18.65,15.25,48.7,51.18,74.5,133.9a368.21,368.21,0,0,0-17.62-63.28c-4.64-11.5-9.58-22.94-15.82-33.86-.38-.68-.74-1.37-1.13-2.06l-1.23-2-2.44-4c-.83-1.34-1.6-2.7-2.5-4l-2.69-3.92-2.69-3.91c-.94-1.27-1.91-2.54-2.89-3.79l-2.92-3.77c-1-1.24-2.09-2.44-3.12-3.65s-2.09-2.43-3.15-3.62l-3.37-3.46-1.69-1.72-.84-.86-.89-.83c-1.19-1.09-2.4-2.17-3.6-3.26s-2.46-2.11-3.73-3.13-2.49-2.07-3.82-3l-4-2.82-1-.71-1-.65-2.1-1.3a86,86,0,0,0-17.87-8.39l-2.37-.75c-.78-.25-1.6-.43-2.4-.64-1.59-.43-3.24-.73-4.86-1s-3.28-.48-4.94-.58c-.82-.07-1.65-.07-2.47-.1S1175,469.23,1174.21,469.32Z" style="fill:#245b70"/><path d="M1258.16,622.7c12,12.2,21.68,42.72,28,68.29l-.3-2.78c-.24-1.9-.49-3.81-.77-5.71-.53-3.82-1.25-7.59-2-11.37-1.5-7.55-3.37-15-5.53-22.42s-4.7-14.68-7.5-21.87-5.88-14.25-9.17-21.19-6.79-13.73-10.29-20.41l-5.19-10c-1.66-3.34-3.37-6.66-4.87-10.05s-3-6.82-4.24-10.35-2.34-7.18-3.38-11C1233,543.88,1235.81,600.05,1258.16,622.7Z" style="fill:#245b70"/><path d="M1306.56,576.1c2.84,20.12,16,84.75,24,123.87-1.9-20.73-4.55-41.23-7.07-61.77-3.1-24.42-6.52-48.78-10-73.13s-7.36-48.66-11.47-73-8.51-48.58-14-72.81C1287.94,419.3,1302.4,546.59,1306.56,576.1Z" style="fill:#245b70"/><path d="M1325.21,588.57c5.3-44.2,15.47-74.21,26-94.41.1-.52.21-1.05.31-1.58l1-4.54c.38-1.5.72-3,1.13-4.5a132.64,132.64,0,0,1,5.83-17.51,80.08,80.08,0,0,1,4-8.23,54.24,54.24,0,0,1,5-7.53c3.74-4.68,8.48-8.67,14.38-10.42a22.36,22.36,0,0,1,4.56-.83,21.3,21.3,0,0,1,4.78.14,27.13,27.13,0,0,1,9.37,3.15,23.83,23.83,0,0,0-8.58-5.65,24.77,24.77,0,0,0-11-1.53,28,28,0,0,0-5.66,1.08l-.69.21-.67.23-1.36.49-1.32.57-.65.29-.64.32a43.54,43.54,0,0,0-9.22,6.33,70.38,70.38,0,0,0-13.27,16.64c-.47.75-.89,1.5-1.31,2.26s-.85,1.51-1.24,2.27c-.77,1.54-1.57,3.07-2.27,4.62l-1.07,2.33-1,2.34c-.7,1.55-1.27,3.13-1.89,4.71s-1.14,3.17-1.71,4.75l-1.58,4.78c-.5,1.6-.94,3.21-1.42,4.81l-1.28,4.82c-1.66,6.43-3,12.91-4.07,19.39s-2,13-2.61,19.48c-.36,3.25-.6,6.49-.88,9.74-.12,1.63-.2,3.25-.31,4.88s-.21,3.24-.28,4.86C1325.11,567.76,1325,578.18,1325.21,588.57Z" style="fill:#245b70"/><path d="M1379.16,644.83l1.51-8.09,1.43-8.09c.47-2.7,1-5.4,1.38-8.11.21-1.36.47-2.7.64-4.06l.52-4.07c.7-5.44,1.31-10.88,2-16.33l.45-4.08c.14-1.36.21-2.73.32-4.1l.56-8.19.52-8.2c.07-1.37.18-2.73.22-4.1l.09-4.11c0-5.48.18-11,.18-16.43-.16-5.48-.34-11-.6-16.44-.09-2.73-.33-5.47-.58-8.2L1387,514c-.13-1.36-.22-2.72-.42-4.09l-.59-4.08c-.38-2.71-.77-5.43-1.19-8.13-.12-.68-.21-1.36-.33-2l-.39-2-.8-4-.83-4-.42-2c-.15-.67-.32-1.34-.49-2-.69-2.67-1.37-5.33-2.07-8s-1.62-5.26-2.47-7.87c-.2-.66-.42-1.31-.67-2l-.72-1.95c-.51-1.28-1-2.57-1.49-3.85l-1.67-3.79c-.61-1.24-1.2-2.48-1.9-3.68.15.67.27,1.34.38,2s.25,1.34.35,2l.6,4c.18,1.34.32,2.68.49,4s.37,2.66.46,4c.22,2.7.53,5.36.74,8l.53,8S1391.06,571.84,1379.16,644.83Z" style="fill:#245b70"/><path d="M1397.94,704c1.4-5.76,2.14-11.45,2.94-17.11.4-2.83.78-5.65,1.07-8.46l.9-8.43c.28-2.81.53-5.61.73-8.41s.51-5.59.7-8.39c.1-1.4.17-2.79.27-4.18l.31-4.19.27-4.19c.08-1.39.13-2.79.23-4.18.66-11.17,1.18-22.32,1.46-33.54l.16-8.44L1407,586c0-1.42,0-2.83,0-4.26l-.06-4.29c0-2.86-.13-5.74-.28-8.67h0C1406.41,570.06,1388.17,659.6,1397.94,704Z" style="fill:#245b70"/><path d="M1864.63,596.49c-1,6.36-1.94,12.72-3.15,19s-2.47,12.64-4,18.92c-.54-6.45-.84-12.87-1.16-19.28l-.43-9.62-.37-9.59-1.31-38.24c-.87-25.41-1.93-50.73-4.06-75.84-.53-6.27-1.14-12.54-1.87-18.77-.32-3.12-.77-6.23-1.14-9.34s-.86-6.21-1.35-9.3c-1-6.18-2-12.33-3.32-18.43l-1-4.56-.72-3c-.13-.52-.25-1-.38-1.57l-1.17-4.49c-.44-1.49-.84-3-1.31-4.46a130.8,130.8,0,0,0-6.47-17.29,79.76,79.76,0,0,0-4.29-8.07,55.9,55.9,0,0,0-5.3-7.34c-3.92-4.54-8.81-8.34-14.77-9.87a21.81,21.81,0,0,0-4.59-.66,21.26,21.26,0,0,0-4.76.31,27,27,0,0,0-9.25,3.5,23.82,23.82,0,0,1,8.36-6,24.64,24.64,0,0,1,10.93-1.93,26.73,26.73,0,0,1,5.69.87l.7.17.68.22,1.38.44,1.33.52.67.26.65.3a43.36,43.36,0,0,1,9.45,6,70.46,70.46,0,0,1,13.88,16.14c.49.73.94,1.46,1.39,2.2s.91,1.48,1.32,2.23c.83,1.5,1.69,3,2.44,4.53l1.16,2.28,1.1,2.3c.76,1.53,1.39,3.09,2.07,4.65s1.26,3.12,1.89,4.68l1.76,4.72c.55,1.57,1.06,3.16,1.59,4.74l1.46,4.78c1.89,6.36,3.46,12.78,4.79,19.23s2.44,12.9,3.33,19.36c.48,3.23.84,6.47,1.23,9.71.19,1.62.33,3.23.5,4.85s.33,3.24.46,4.86c.89,10.4,1.39,20.81,1.56,31.2,0,2.53.06,5.07.06,7.6,0,6.46-.13,12.9-.4,19.34-.14,3.22-.25,6.44-.43,9.66l-.64,9.63Q1867.38,577.39,1864.63,596.49Z" style="fill:#245b70"/><path d="M1838.65,632.93c-2.11-5.12-4-10.28-5.92-15.46s-3.67-10.4-5.44-15.62c-1.62-5.25-3.12-10.53-4.61-15.81-.76-2.64-1.46-5.3-2.19-7.95s-1.47-5.29-2.1-8l-1.81-8-1.73-8c-.57-2.68-1.15-5.36-1.68-8.05-.26-1.35-.57-2.68-.78-4l-.68-4c-.9-5.41-1.71-10.83-2.57-16.24l-.6-4.07c-.19-1.35-.32-2.71-.48-4.08l-.87-8.17-.82-8.17c-.12-1.37-.28-2.73-.37-4.09l-.24-4.11c-.26-5.47-.59-10.94-.8-16.41,0-5.48-.06-11,0-16.44,0-2.74.14-5.48.28-8.22l.46-8.21c.09-1.37.13-2.73.28-4.1l.43-4.1c.28-2.73.57-5.46.89-8.18.09-.68.16-1.36.25-2l.32-2,.65-4.07.68-4.06.34-2c.12-.67.27-1.34.42-2,.59-2.69,1.16-5.37,1.77-8s1.42-5.32,2.17-8c.18-.66.38-1.32.6-2l.65-2c.45-1.3.87-2.61,1.35-3.9l1.52-3.85c.56-1.27,1.11-2.53,1.76-3.75-.13.67-.22,1.34-.31,2s-.2,1.35-.27,2l-.44,4c-.14,1.35-.23,2.7-.35,4.05s-.27,2.66-.31,4c-.12,2.71-.33,5.38-.44,8.06l-.23,8.06-.07,2v6l0,4,0,2c0,.67,0,1.35,0,2,.09,2.68.12,5.36.16,8l.06,4c0,1.33.13,2.67.17,4l.35,8c.07,1.34.1,2.67.15,4s.16,2.68.24,4c.4,5.34.67,10.69,1,16,.52,5.34.92,10.69,1.39,16l.32,4c.11,1.33.29,2.67.43,4l.86,8c1,10.69,2.43,21.35,3.65,32,.5,5.36,1.45,10.67,2.1,16l1.07,8,1,8c.78,5.35,1.59,10.7,2.31,16.06l1.07,8.06c.34,2.69.64,5.38,1,8.07.79,5.36,1.56,10.74,2.23,16.15S1838.21,627.46,1838.65,632.93Z" style="fill:#245b70"/><path d="M1896.38,489.58q-3.92,36.87-10.62,73.42c-.55,3-1.16,6.08-1.75,9.12s-1.18,6.08-1.81,9.11c-1.25,6.06-2.65,12.1-4,18.15l-2.16,9q-1.15,4.51-2.38,9c-1.62,6-3.31,12-5.18,17.92q.24-6,.56-11.92c1.13-20.78,3-41.37,4.78-62,2.19-24.52,4.7-49,7.32-73.45s5.55-48.91,8.75-73.34,6.7-48.87,11.32-73.28c.5,6.2.79,12.41,1,18.6.1,3.1.17,6.19.24,9.29l.1,9.29c0,6.19,0,12.38-.13,18.57,0,3.09-.14,6.18-.23,9.27s-.16,6.18-.29,9.26Q1900.41,452.72,1896.38,489.58Z" style="fill:#245b70"/><path d="M2016.68,387.12a59.2,59.2,0,0,0-17.43,7.27,93.16,93.16,0,0,0-14.7,10.93l-1.68,1.52-.85.75-.79.81-3.19,3.2c-.55.51-1,1.12-1.53,1.66l-1.51,1.67c-1,1.12-2,2.21-2.94,3.4-.45.56-.9,1.13-1.36,1.69h0c-.48.61-1,1.21-1.46,1.8l-.7.86-.67.91-1.32,1.8-2.64,3.61-2.48,3.73c-.81,1.25-1.67,2.47-2.46,3.73l-2.28,3.84-2.3,3.82-2.13,3.93-2.12,3.92c-.38.64-.67,1.33-1,2l-1,2-2,4-1,2c-.31.67-.6,1.36-.9,2-1.19,2.74-2.42,5.45-3.64,8.16s-2.21,5.53-3.32,8.29c-.54,1.39-1.16,2.75-1.67,4.15l-1.52,4.2c-1,2.82-2.08,5.6-3,8.43A699.29,699.29,0,0,0,1912,566.54c-.65,2.94-1.37,5.87-2,8.81s-1.2,5.9-1.85,8.85l-1.92,8.86c-.68,3-1.18,5.93-1.8,8.89l-1.85,8.91-1,4.45-.87,4.47c-1.17,6-2.4,11.92-3.83,17.88-.29-6.1-.39-12.2-.43-18.31,0-1.52,0-3.05,0-4.58l.12-4.57.33-9.14.21-4.58c.07-1.52.13-3,.26-4.56l.76-9.13c.24-3,.54-6.09.82-9.13s.74-6.07,1.16-9.1q.53-4,1.12-7.95a367.63,367.63,0,0,1,15.25-63.89c4.21-11.67,8.72-23.29,14.55-34.43.36-.7.69-1.4,1-2.1l1.16-2.07,2.29-4.12c.78-1.37,1.5-2.77,2.34-4.1l2.55-4,2.54-4q1.33-2,2.75-3.91l2.78-3.87c1-1.27,2-2.51,3-3.77s2-2.49,3-3.73l3.24-3.58,1.62-1.78.81-.89.86-.86c1.15-1.14,2.32-2.27,3.48-3.39s2.37-2.2,3.6-3.27,2.42-2.16,3.72-3.16l3.89-3,1-.74,1-.69,2-1.38a86,86,0,0,1,17.55-9.05l2.34-.84c.77-.28,1.58-.49,2.37-.73,1.58-.49,3.21-.84,4.83-1.22s3.26-.6,4.91-.76c.81-.1,1.65-.13,2.47-.19S2015.86,387.07,2016.68,387.12Z" style="fill:#245b70"/><path d="M1962.77,487.3a112.88,112.88,0,0,1-1.7,11.68c-.77,3.84-1.68,7.63-2.69,11.35-2,7.47-4.34,14.72-6.73,21.9s-4.84,14.27-7.29,21.36L1937,574.83c-2.45,7.09-4.91,14.19-7.44,21.29s-5.12,14.24-7.77,21.39c-1.4,3.57-2.7,7.16-4.19,10.73s-2.89,7.17-4.6,10.73a163.28,163.28,0,0,1-.16-23.19l.2-3,.2-2.78c.16-1.91.35-3.83.56-5.74.39-3.83,1-7.63,1.53-11.43,1.22-7.6,2.81-15.14,4.69-22.61s4.15-14.85,6.68-22.13,5.35-14.47,8.39-21.52,6.27-14,9.52-20.78l4.81-10.2c1.54-3.39,3.12-6.78,4.49-10.22s2.71-6.93,3.86-10.51,2.07-7.25,3-11.07a54.37,54.37,0,0,1,2.15,11.62A74.68,74.68,0,0,1,1962.77,487.3Z" style="fill:#245b70"/><path d="M1807.44,600.21c-.12,1.42-.3,2.85-.46,4.28-.34,2.85-.76,5.69-1.19,8.53s-1.06,5.67-1.7,8.49-1.36,5.64-2.27,8.43c-1.61-5.71-2.56-11.36-3.57-17-.5-2.81-1-5.62-1.38-8.42l-1.22-8.39c-.39-2.79-.73-5.58-1-8.37s-.71-5.57-1-8.36c-.15-1.39-.28-2.78-.42-4.17l-.47-4.17-.42-4.17c-.13-1.4-.24-2.79-.39-4.18-1.07-11.13-2-22.25-2.7-33.46l-.48-8.43-.37-8.48c0-1.42-.11-2.83-.15-4.26l-.1-4.28c0-2.87-.08-5.74,0-8.68h0a74.23,74.23,0,0,1,4.19,7.85c1.26,2.67,2.4,5.38,3.45,8.1l1.53,4.1c.5,1.37.94,2.75,1.4,4.13s.88,2.77,1.3,4.16.79,2.78,1.16,4.18a208.85,208.85,0,0,1,6.09,33.94c.27,2.86.46,5.72.64,8.57l.24,4.29c0,1.44.08,2.86.09,4.3q.06,4.29,0,8.58c-.11,2.86-.24,5.73-.43,8.58Z" style="fill:#245b70"/><path d="M2016.68,387.12a59.2,59.2,0,0,0-17.43,7.27,93.16,93.16,0,0,0-14.7,10.93l-1.68,1.52-.85.75-.79.81-3.19,3.2c-.55.51-1,1.12-1.53,1.66l-1.51,1.67c-1,1.12-2,2.21-2.94,3.4-.45.56-.9,1.13-1.36,1.69h0c-18.07,15.94-46.76,53-69.47,136.59a367.63,367.63,0,0,1,15.25-63.89c4.21-11.67,8.72-23.29,14.55-34.43.36-.7.69-1.4,1-2.1l1.16-2.07,2.29-4.12c.78-1.37,1.5-2.77,2.34-4.1l2.55-4,2.54-4q1.33-2,2.75-3.91l2.78-3.87c1-1.27,2-2.51,3-3.77s2-2.49,3-3.73l3.24-3.58,1.62-1.78.81-.89.86-.86c1.15-1.14,2.32-2.27,3.48-3.39s2.37-2.2,3.6-3.27,2.42-2.16,3.72-3.16l3.89-3,1-.74,1-.69,2-1.38a86,86,0,0,1,17.55-9.05l2.34-.84c.77-.28,1.58-.49,2.37-.73,1.58-.49,3.21-.84,4.83-1.22s3.26-.6,4.91-.76c.81-.1,1.65-.13,2.47-.19S2015.86,387.07,2016.68,387.12Z" style="fill:#245b70"/><path d="M1938.48,543.53C1926.9,556.16,1918.41,587,1913,612.8l.2-2.78c.16-1.91.35-3.83.56-5.74.39-3.83,1-7.63,1.53-11.43,1.22-7.6,2.81-15.14,4.69-22.61s4.15-14.85,6.68-22.13,5.35-14.47,8.39-21.52,6.27-14,9.52-20.78l4.81-10.2c1.54-3.39,3.12-6.78,4.49-10.22s2.71-6.93,3.86-10.51,2.07-7.25,3-11.07C1960.73,463.81,1960,520.06,1938.48,543.53Z" style="fill:#245b70"/><path d="M1888.39,498.75C1886.29,519,1875.6,584,1869,623.43c1.13-20.78,3-41.37,4.78-62,2.19-24.52,4.7-49,7.32-73.45s5.55-48.91,8.75-73.34,6.7-48.87,11.32-73.28C1901.17,341.37,1891.45,469.1,1888.39,498.75Z" style="fill:#245b70"/><path d="M1870.21,511.91c-6.94-44-18.21-73.59-29.48-93.38-.13-.52-.25-1-.38-1.57l-1.17-4.49c-.44-1.49-.84-3-1.31-4.46a130.8,130.8,0,0,0-6.47-17.29,79.76,79.76,0,0,0-4.29-8.07,55.9,55.9,0,0,0-5.3-7.34c-3.92-4.54-8.81-8.34-14.77-9.87a21.81,21.81,0,0,0-4.59-.66,21.26,21.26,0,0,0-4.76.31,27,27,0,0,0-9.25,3.5,23.82,23.82,0,0,1,8.36-6,24.64,24.64,0,0,1,10.93-1.93,26.73,26.73,0,0,1,5.69.87l.7.17.68.22,1.38.44,1.33.52.67.26.65.3a43.36,43.36,0,0,1,9.45,6,70.46,70.46,0,0,1,13.88,16.14c.49.73.94,1.46,1.39,2.2s.91,1.48,1.32,2.23c.83,1.5,1.69,3,2.44,4.53l1.16,2.28,1.1,2.3c.76,1.53,1.39,3.09,2.07,4.65s1.26,3.12,1.89,4.68l1.76,4.72c.55,1.57,1.06,3.16,1.59,4.74l1.46,4.78c1.89,6.36,3.46,12.78,4.79,19.23s2.44,12.9,3.33,19.36c.48,3.23.84,6.47,1.23,9.71.19,1.62.33,3.23.5,4.85s.33,3.24.46,4.86C1869.54,491.11,1870,501.52,1870.21,511.91Z" style="fill:#245b70"/><path d="M1818.39,570.13l-1.81-8-1.73-8c-.57-2.68-1.15-5.36-1.68-8.05-.26-1.35-.57-2.68-.78-4l-.68-4c-.9-5.41-1.71-10.83-2.57-16.24l-.6-4.07c-.19-1.35-.32-2.71-.48-4.08l-.87-8.17-.82-8.17c-.12-1.37-.28-2.73-.37-4.09l-.24-4.11c-.26-5.47-.59-10.94-.8-16.41,0-5.48-.06-11,0-16.44,0-2.74.14-5.48.28-8.22l.46-8.21c.09-1.37.13-2.73.28-4.1l.43-4.1c.28-2.73.57-5.46.89-8.18.09-.68.16-1.36.25-2l.32-2,.65-4.07.68-4.06.34-2c.12-.67.27-1.34.42-2,.59-2.69,1.16-5.37,1.77-8s1.42-5.32,2.17-8c.18-.66.38-1.32.6-2l.65-2c.45-1.3.87-2.61,1.35-3.9l1.52-3.85c.56-1.27,1.11-2.53,1.76-3.75-.13.67-.22,1.34-.31,2s-.2,1.35-.27,2l-.44,4c-.14,1.35-.23,2.7-.35,4.05s-.27,2.66-.31,4c-.12,2.71-.33,5.38-.44,8.06l-.23,8.06S1803.78,497.64,1818.39,570.13Z" style="fill:#245b70"/><path d="M1801.82,629.94c-1.61-5.71-2.56-11.36-3.57-17-.5-2.81-1-5.62-1.38-8.42l-1.22-8.39c-.39-2.79-.73-5.58-1-8.37s-.71-5.57-1-8.36c-.15-1.39-.28-2.78-.42-4.17l-.47-4.17-.42-4.17c-.13-1.4-.24-2.79-.39-4.18-1.07-11.13-2-22.25-2.7-33.46l-.48-8.43-.37-8.48c0-1.42-.11-2.83-.15-4.26l-.1-4.28c0-2.87-.08-5.74,0-8.68h0C1788.38,496.43,1809.93,585.23,1801.82,629.94Z" style="fill:#245b70"/><g style="opacity:0.27"><path d="M1319.94,578.32c-1.62-3.78-3.34-7.16-4.43-7.32-2.06-.3-7.77-6.55-8.53,8.85C1311.11,579.19,1315.51,578.62,1319.94,578.32Z" style="fill:#245b70"/><path d="M1290.06,583a8.64,8.64,0,0,0-4.06-.7,4.73,4.73,0,0,0-2.67,2.1Q1286.69,583.64,1290.06,583Z" style="fill:#245b70"/><path d="M1291.39,582.7l3.28-.63c2.94-.56,6.38-1.23,10.11-1.86,2.28-11.35,4.87-27.61,2.12-32.11-4.36-7.12-7.7-8.07-9.83-5.22s-3.55,23.69-3.55,23.69-12.34-20.37-18.51-18-4.74,10.84,0,18C1277.51,570.34,1284.93,577.12,1291.39,582.7Z" style="fill:#245b70"/><path d="M1289.49,554.74s13-23.72,4.51-41.28S1283.1,538.61,1289.49,554.74Z" style="fill:#245b70"/><path d="M1272.64,541.39s-18.5-22.71-10-26,26.81,39.38,26.81,39.38Z" style="fill:#245b70"/><path d="M1280.47,529.19s-.36-24.15-5.51-32.42-4.06,4.36-4.06,4.36,2.62,21.1,6.09,24.58S1278.51,530.5,1280.47,529.19Z" style="fill:#245b70"/></g><g style="opacity:0.27"><path d="M1379.59,627.92s.77-18.9,11.18-32.95,14.56-16.88,18.24-12.63-6.14,28.46-9.44,35.82-13,22.75-16.39,21.77S1379.59,627.92,1379.59,627.92Z" style="fill:#245b70"/><path d="M1380.49,601.8s-13-9.74-3.2-34.34,13-14.05,15-12.76.55,17.61.47,19.7-8.83,22.19-8.83,22.19Z" style="fill:#245b70"/><path d="M1376.08,641.42s-18.82-16.23-23.4-30.77,4.4-16.36,7.2-16.07,12.85,11.54,13.74,17.66S1376.08,641.42,1376.08,641.42Z" style="fill:#245b70"/><path d="M1369.74,590.74s-12.52-12.16-15.22-23.88,4-14.45,6.26-14,8.29,6.1,10.93,15.31S1369.74,590.74,1369.74,590.74Z" style="fill:#245b70"/><path d="M1371.71,568.22s23.18-29.65,22.11-37.93-3.72-10.51-6.82-8.78-12.94,20.16-12.94,20.16-2.92-23.63-9.52-24-8.77,8-7.36,16.42S1371.71,568.22,1371.71,568.22Z" style="fill:#245b70"/><path d="M1375.23,529.23s21.61-16.31,21-35.83S1376,511.89,1375.23,529.23Z" style="fill:#245b70"/><path d="M1365.32,510.15s-7.6-28.3,1.55-27.83,8.36,46.91,8.36,46.91Z" style="fill:#245b70"/><path d="M1377.45,502.22s9.55-22.18,8.24-31.83-5.48,2.31-5.48,2.31S1374,493,1375.7,497.62,1375.13,502.61,1377.45,502.22Z" style="fill:#245b70"/><path d="M1389.84,687.83s19.88-19.34,19.94-36-11.9-10.16-13.9-6.24-7.25,17.78-7.6,23.35-8.69-14.15-12.55-20.41-14.22-17.59-18.26-13.44,4.78,21.7,7.54,27.23,15.22,21.37,18.06,24.08S1389.84,687.83,1389.84,687.83Z" style="fill:#245b70"/></g><path d="M393.44,582.63s1-1.44,3.52-4.68,9.56-12.16,7.21-16.07S394.94,563.15,393,566c0,0,3-16.66-4.3-18.12s-2.33,18.68-2.33,18.68-7.4-9.48-12.2-5.7,4.17,11.3,4.17,11.3,7,5.8,9.65,6.86A22.62,22.62,0,0,1,393.44,582.63Z" style="fill:#245b70"/><path d="M395.74,583.28s2.71-9.5,8-11.25-.12,7.29-1.66,8.2S396.09,586.54,395.74,583.28Z" style="fill:#245b70"/><path d="M390.26,582.36A20.24,20.24,0,0,0,380,576.71c-6.43-1.33-2,3.4-.52,4.58a16.29,16.29,0,0,0,7.49,2.57C389.08,583.89,391.33,584.53,390.26,582.36Z" style="fill:#245b70"/><rect x="-10.5" y="578.4" width="1931.78" height="322.31" style="fill:url(#ad246671-d3b3-4aa3-81b0-4549cce9f2f7)"/><path d="M1867.49,515.34c-16.4,6.8-61.21,31-61.21,31,9.92-12,42.22-31.59,54.76-39a191.94,191.94,0,0,0-28.81-27.24C1813.59,496.88,1779.7,531,1779.7,531c13.4-20.68,36.12-47.17,44.49-56.74a206.94,206.94,0,0,0-27.54-16c-19.12,16.5-54.47,56.89-54.47,56.89,11-21.66,37.08-52,45.16-61.12a232.58,232.58,0,0,0-29.49-10.29c-16.4,14.4-42.47,49.93-42.47,49.93,10.37-23.51,24.75-43.36,32-52.59a279.72,279.72,0,0,0-37.13-5.89c-10.47,16.71-26.33,51.24-26.33,51.24,2.44-18.43,11.9-41.46,16.56-52q-6.66-.4-13.62-.54-11-.21-21.29.4c-6,35-6.41,96.49-6.41,96.49-5.55-37.39-5.76-75.91-5.39-95.52a225.94,225.94,0,0,0-33.64,6.09c2,22.11,6.31,63.83,13.48,94.31,0,0-20.65-48.49-26.24-90.51a192,192,0,0,0-28.68,12.19c8.67,26,31.75,73.08,31.75,73.08-10.52-13.22-33.51-51.55-42.6-66.9a183,183,0,0,0-15.12,10.39l30.85,75-29.7-42.72a7.28,7.28,0,1,1-7.18-10.33l-7.39-10.63A187.9,187.9,0,0,0,1517,509.91l24,51.93-31.86-40.61c-11.95,18.55-16.43,32.67-16.43,32.67l21.9,23.85,353.83,3.54,16.3-37.65S1879.85,531.52,1867.49,515.34Zm-103.09,27a7.29,7.29,0,1,1,7.85-6.68A7.28,7.28,0,0,1,1764.4,542.38Z" style="fill:#245b70"/><ellipse cx="1105.57" cy="398.87" rx="7.29" ry="7.28" transform="translate(618.52 1468.52) rotate(-85.36)" style="fill:#245b70"/><ellipse cx="1190.86" cy="364.41" rx="7.29" ry="7.28" transform="translate(731.25 1521.86) rotate(-85.36)" style="fill:#245b70"/><ellipse cx="965.74" cy="429.14" rx="7.29" ry="7.28" transform="translate(459.83 1356.97) rotate(-85.36)" style="fill:#245b70"/></g></g></svg>