<svg id="Layer_1" data-name="Layer 1" xmlns="http://www.w3.org/2000/svg" viewBox="0 0 260 260"><path d="M249.26,163.53c0,37.62-53.32,65.46-119.08,65.46S11.09,201.15,11.09,163.53,57,87.05,130.18,87.05C212,87.05,249.26,125.92,249.26,163.53Z" fill="#f4642a"/><ellipse cx="188.74" cy="178.74" rx="49.98" ry="23.52" fill="#a1bc33"/><ellipse cx="108.93" cy="195.4" rx="49.98" ry="23.52" fill="#a1bc33"/><ellipse cx="58.95" cy="161.85" rx="49.98" ry="23.52" fill="#a1bc33"/><path d="M244,150.64C244,183.58,192.89,208,129.89,208s-114-24.38-114-57.32,44-67,114-67C208.22,83.67,244,117.7,244,150.64Z" fill="#51352b"/><path d="M244,137.11c0,32.94-51.06,57.32-114.06,57.32s-114-24.38-114-57.32,44-67,114-67C208.22,70.13,244,104.17,244,137.11Z" fill="#703725"/><rect x="29.74" y="88.76" width="199.51" height="84.84" fill="#fff797"/><path d="M250.44,107.14c0,37.61-54,65.46-120.55,65.46S9.35,144.75,9.35,107.14,55.82,30.66,129.89,30.66C212.68,30.66,250.44,69.53,250.44,107.14Z" fill="#a83f1a"/><path d="M129.89,146.45c60.91,0,111.23-20.8,119.37-50-6.91-33.68-44.93-65.11-119.37-65.11C63,31.29,18.61,63,10.65,96.87,19.18,125.87,69.31,146.45,129.89,146.45Z" fill="#f4642a"/><path d="M60.33,101.63s3.79-57.27,75.24-67.51C135.57,34.12,78.06,48.46,60.33,101.63Z" fill="#a83f1a"/><path d="M91.82,106.92s3.79-57.27,75.24-67.51C167.06,39.41,109.56,53.75,91.82,106.92Z" fill="#a83f1a"/><path d="M121.29,117.42s3.79-57.27,75.24-67.51C196.53,49.91,139,64.25,121.29,117.42Z" fill="#a83f1a"/><polygon points="58.81 110.71 50.16 116.48 60.33 118.13 58.81 110.71" fill="#e5cd67"/><polygon points="88.83 61.91 80.18 67.69 90.35 69.34 88.83 61.91" fill="#e5cd67"/><polygon points="50.51 61.91 41.85 67.69 52.02 69.34 50.51 61.91" fill="#e5cd67"/><polygon points="124.86 33.51 116.2 39.28 126.37 40.93 124.86 33.51" fill="#e5cd67"/><polygon points="179.75 66.42 171.1 72.19 181.27 73.84 179.75 66.42" fill="#e5cd67"/><polygon points="136.53 72.54 127.88 78.31 138.04 79.97 136.53 72.54" fill="#e5cd67"/><polygon points="138.1 110.71 129.44 116.48 139.61 118.13 138.1 110.71" fill="#e5cd67"/><polygon points="195.01 104.25 186.36 110.02 196.53 111.67 195.01 104.25" fill="#e5cd67"/><polygon points="189.93 40.16 181.28 45.93 191.45 47.58 189.93 40.16" fill="#e5cd67"/><polygon points="71.86 42.87 66.06 47.18 72.87 48.41 71.86 42.87" fill="#e5cd67"/><polygon points="162.53 42.87 156.73 47.18 163.54 48.41 162.53 42.87" fill="#e5cd67"/></svg>