<svg id="Layer_1" data-name="Layer 1" xmlns="http://www.w3.org/2000/svg" xmlns:xlink="http://www.w3.org/1999/xlink" viewBox="0 0 494 428"><defs><style>.cls-1{fill:none;}.cls-2{clip-path:url(#clip-path);}.cls-3{fill:#e53942;}.cls-4{fill:#090d1c;}.cls-5{fill:#def9fc;}.cls-6{fill:#dcf8fc;}.cls-7{fill:#fbfcfc;}</style><clipPath id="clip-path"><rect class="cls-1" x="0.5" y="0.43" width="494" height="427.14"/></clipPath></defs><g class="cls-2"><path class="cls-3" d="M246.44,305.91s-2.1,152-48.41,299l68.65,14.2,46-247.86Z"/><path class="cls-4" d="M325.84,80.24s70.81-35.38,90.33-5.56-26.12,78.18-44.65,97.64Z"/><path class="cls-4" d="M378,165.48s74.67-.85,80.8,35.14-67.72,71.53-67.72,71.53Z"/><path class="cls-4" d="M390.12,264.53s74.67-.85,80.81,35.14-67.72,71.53-67.72,71.53Z"/><path class="cls-4" d="M408,366.73s74.56-1.73,80.22,30.37S419.67,462,419.67,462Z"/><path class="cls-3" d="M266.83,569.78S236.69,165,233.35,126.41l-3.78-56.35s-2.36-16.43,17.76-17.16,58.38,4.34,68.19,10.45,24.76,20,32.27,55.64S375.71,275.53,380.68,316s37.87,212.12,44.77,234.28Z"/><path class="cls-3" d="M266.68,619.06s1.58-303.12-2.27-348l41-211.53s59.08,11.56,78.19,111.72,65.75,399.37,72.56,470.09Z"/><path class="cls-5" d="M380.78,417.19c-1-1.67-1.09-4.59-3.61-4.5-2.78.09-2.91,3.06-3.66,5-4,10.61-10,19.68-19.88,25.63-6.8,4.1-14,7.19-22.23,4-1.95.47-3.68-.35-5.42-1-11-3.92-17.92-12.37-24.32-21.46-.71-1-1.11-2.67-2.67-2.58-1.93.12-2.05,2-2.39,3.35a72.66,72.66,0,0,1-7.11,18.16c-3.4,6.11-7.3,11.86-14.13,15.84,0-.06,0-.13,0-.2a13.49,13.49,0,0,1-3.09,1.76c0,.16-.05.33-.08.49a.17.17,0,0,1,0,.07c.32.28.63.58.92.89a14.93,14.93,0,0,1,2.21-.57,2.93,2.93,0,0,1,1.19-1.07c8.59-4.5,14.15-11.86,19.06-19.86a4.67,4.67,0,0,0,2.17-2.46c2.76-5.11,2.72-5.06,7-1.2C315,447.07,327,452.74,341.23,451.7c8-.58,15.94-2.26,21.21-9.43,6.19-6,10.79-13.11,14.82-20.94,18.19,23.47,36.94,32.13,50.17,23.58C405.67,446.17,391.14,435.23,380.78,417.19Z"/><path class="cls-6" d="M316.84,324.79c-7.13,29.7-26.48,36.84-41.37,31.55,24.12-.41,33.59-16.56,40.53-36.55,4.57,5.93,8.13,11.78,13.86,15.83,11.45,8.11,27.79,6.9,37.46-3.27a53,53,0,0,0,10.91-16.86c.67-1.65.43-4.19,2.85-4.34,2.25-.13,2.91,2.25,3.65,3.82,4.84,10.33,12.36,18.1,22.08,23.93-9.77-2-16.71-8-22.34-15.87-.73-1-1-2.67-2.56-2.59-1.34.06-1.39,1.58-1.86,2.53-12.83,26-37.7,29.57-57.7,8.23C320.57,329.31,319,327.26,316.84,324.79Z"/><path class="cls-7" d="M114.74,306.84s-13.18-29.81-26.84-25-4.07,35.93-4.07,35.93Z"/><path class="cls-7" d="M146,296.91S133,267,120.34,271.54s-3,35.55-3,35.55Z"/><path class="cls-7" d="M15.92,244.63c.52,3,5,24.84,24.06,29.24,11.48,2.64,14.2-16.57,14.39-34Z"/><path class="cls-7" d="M57.22,239.56s7,31.88,25.25,29.65,16-34.71,16-34.71Z"/><path class="cls-7" d="M96.09,237.64s13,30,30.4,24.35,9.11-37.1,9.11-37.1Z"/><path class="cls-7" d="M133,227.91s16.15,28.36,31.75,21.24,3.57-37.36,3.57-37.36Z"/><path class="cls-7" d="M161.32,212.7s25,20.92,37.17,8.8-9.72-36.25-9.72-36.25Z"/><path class="cls-3" d="M12.21,261.47s-9.16-31.34-10-44.53-1.7-45.06,2.38-60.83S39.89,49.49,234.25,54.32c0,0,5,68-11.24,110.34S153.56,256.11,12.21,261.47Z"/><path class="cls-3" d="M65.23,315.51s73.46-17.25,118-66.75,47.92-123.59,47.92-123.59l100,58.68-49.57,109.7s-54,25.54-157.36,33.06C124.22,326.61,70.89,328.31,65.23,315.51Z"/><path class="cls-4" d="M64.75,313.48c.73-.17,73.35-17.69,116.93-66.12S229,125.81,229.07,125.07l4.16.19c0,.75-3.92,75.41-48.45,124.89,0,0-33.44,45.19-111.41,71.37C73.37,321.52,64.89,318.84,64.75,313.48Z"/><path class="cls-4" d="M219,140.85a2.08,2.08,0,0,1-2.23-2.72c.07-.21,7.29-21.14,28-17.7a2.08,2.08,0,1,1-.68,4.11c-17.14-2.84-23.1,14.18-23.35,14.91A2.07,2.07,0,0,1,219,140.85Z"/><path class="cls-6" d="M311.47,127.67a12.83,12.83,0,0,0-5.82,3.67,5,5,0,0,0,.2,6.58,6.19,6.19,0,0,0,7.63,1c2.36-1.32,4.47-4.08,3.95-6.93s-4.22-4.6-6.44-2.33a1.12,1.12,0,0,0,.19,1.57,1.16,1.16,0,0,0,1.57-.19.83.83,0,0,1,.57-.22,2,2,0,0,1,.87.19,1.76,1.76,0,0,1,1.06,1.5c.22,1.87-1.36,3.7-2.92,4.51a4,4,0,0,1-4.86-.59,2.81,2.81,0,0,1-.74-2,3.17,3.17,0,0,1,.85-1.84,11.35,11.35,0,0,1,4.74-2.79c1.35-.5.5-2.56-.85-2.06Z"/><path class="cls-6" d="M322.3,132.75a7.69,7.69,0,0,0-2.67,4.09c-.45,1.61-.48,4,1.4,4.66a4.9,4.9,0,0,0,4.53-.94,4,4,0,0,0,1.41-4.31,3.69,3.69,0,0,0-4-2.62,1.12,1.12,0,0,0,.28,2.22l.33,0c-.29,0,.06,0,.16,0s.2.06.06,0l.05,0,.16.07.11.06-.07,0,.27.21s.16.14.06,0,.06.08.07.09a2.92,2.92,0,0,1,.21.28s.09.18,0,0l.09.19a2.35,2.35,0,0,1,.14.37c-.08-.24,0,0,0,.13s0,.4,0,.13l-.06.43c0,.07-.08.16,0,0l-.06.17c-.05.11-.1.21-.16.32.11-.22-.05.07-.09.13l-.12.14c-.06.07-.18.19,0,.06a4.9,4.9,0,0,1-.57.45c-.23.17.13-.06,0,0l-.16.08a3.08,3.08,0,0,1-.38.16l-.22.08c-.16.06.18,0,0,0l-.36.07a3,3,0,0,1-.42,0c-.06,0-.19,0,0,0l-.24,0a1.38,1.38,0,0,1-.2,0c-.15,0,.13.07,0,0s-.24-.12-.06,0l-.15-.12c.09.09,0,.05,0,0s.07.2,0,0c0-.05,0-.2,0,0,0-.11,0-.21-.05-.32a1.48,1.48,0,0,0,0-.21h0c0-.14,0-.27,0-.41a9.09,9.09,0,0,1,.15-.91s.06-.21,0,0c0-.1.06-.2.09-.3s.11-.29.17-.43.14-.31.22-.46a1.62,1.62,0,0,1,.1-.18c.06-.11-.07.1,0-.07a7,7,0,0,1,.62-.81l.14-.15c.16-.17-.1.07.09-.09l.4-.33a1.12,1.12,0,0,0-1.36-1.78Z"/><path class="cls-6" d="M310.06,142.7a13.41,13.41,0,0,0-4.71,5.26,11,11,0,0,0-.67,1.59,4.37,4.37,0,0,0-.37,2c.23,1.46,1.94,1.78,3.17,1.94a8.27,8.27,0,0,0,6.39-1.66,5.53,5.53,0,0,0,1.86-5.42c-.46-2.07-2-4.1-4.32-4.15a1.14,1.14,0,0,0-1.27.94,1.12,1.12,0,0,0,.94,1.27,2.76,2.76,0,0,1,.57.06l.18,0c-.26-.07,0,0,.06,0s.46.24.24.1a3.61,3.61,0,0,1,.44.33s.23.24.06.05l.12.14a4,4,0,0,1,.31.41s.14.24,0,0a2,2,0,0,1,.13.25,5.09,5.09,0,0,1,.22.54l.06.18c.1.3,0-.22,0,.09,0,.16.06.32.08.48a4.15,4.15,0,0,1,0,.49c0-.27,0,0,0,.09s0,.23,0,.34,0,.16,0,.24-.09.35,0,.1a3.43,3.43,0,0,1-.16.45,1.51,1.51,0,0,1-.11.22s-.14.23,0,0a5.84,5.84,0,0,1-.42.56,4.3,4.3,0,0,1-.82.7,4.73,4.73,0,0,1-1.08.52,6.86,6.86,0,0,1-2.33.37,9.45,9.45,0,0,1-1.21-.13l-.6-.13c-.38-.1.17.07-.2-.06a.58.58,0,0,1-.17-.06c-.06,0-.07,0,0,0s.2.24.13.28a1.43,1.43,0,0,0,0-.26,5.71,5.71,0,0,1,.19-.6,11.59,11.59,0,0,1,.56-1.35,11.23,11.23,0,0,1,4.1-4.55,1.12,1.12,0,0,0-1.35-1.78Z"/><path class="cls-6" d="M295.86,133.73a6.19,6.19,0,0,0-1.77,3.6,3.26,3.26,0,0,0,.64,2.2,2.91,2.91,0,0,0,1.63,1,3.7,3.7,0,0,0,3.12-.73,3.51,3.51,0,0,0,1.19-3.45,4.92,4.92,0,0,0-2.73-3.4,1.13,1.13,0,0,0-1.47.58,1.15,1.15,0,0,0,.58,1.47l.17.08c.11.06.16.16,0,0,.08.07.19.12.27.18l.24.2a1.66,1.66,0,0,0,.14.13l-.11-.11.09.09a4.81,4.81,0,0,1,.42.56c.05.08,0,.12-.05-.09,0,.05.06.11.08.17a2,2,0,0,1,.14.34,1.27,1.27,0,0,0,.06.18s-.06-.29,0-.12l.06.31c0,.06,0,.12,0,.18s0,.24,0-.06c0,.12,0,.25,0,.37a.5.5,0,0,1,0,.12c0,.22.09-.26,0,0s-.06.16-.1.25-.05.08-.07.13c.14-.28.12-.18.07-.12l-.21.26c-.06.08-.16.1.08-.07l-.12.1-.2.15c-.24.16.23-.12,0,0a1.39,1.39,0,0,1-.28.12c-.05,0-.38.12-.15.06s-.09,0-.15,0l-.25,0c-.21,0,.3,0,.1,0H297l-.24,0c-.2,0,.28.09.09,0l-.13,0-.09,0c-.1-.05-.16-.14.08,0l-.23-.17c-.15-.13.15.19.07.08a.39.39,0,0,0-.08-.1s-.07-.15-.1-.16.1.21,0,.08-.05-.12-.07-.19l0-.06c0-.11,0-.08,0,.1a2.65,2.65,0,0,0-.05-.38c0-.11.05-.08,0,.1a1.09,1.09,0,0,0,0-.26,2.83,2.83,0,0,0,.08-.4c0,.18-.06.18,0,0l.09-.24a3.39,3.39,0,0,1,.18-.39c0-.07.07-.13.1-.19.13-.23-.13.2,0,0s.16-.25.25-.37a7,7,0,0,1,.59-.73,1.12,1.12,0,0,0-.19-1.57,1.14,1.14,0,0,0-1.57.19Z"/><path class="cls-6" d="M307.81,119.1a2.26,2.26,0,0,0-2.66.75,3.56,3.56,0,0,0-.74,2.38,4.39,4.39,0,0,0,2.32,3.69c2.85,1.54,6.59-1.32,5.88-4.46A4.34,4.34,0,0,0,309,118a1.12,1.12,0,1,0-.33,2.21l.38.06c.24,0-.15-.08,0,0a1.89,1.89,0,0,0,.18.06.91.91,0,0,1,.34.17s-.22-.15-.05,0l.18.14.18.15c.06,0,.16.08,0,0a1.13,1.13,0,0,1,.25.29c.07.09.13.2.2.29s-.12-.25,0,0l.09.21a1.89,1.89,0,0,1,.13.35s-.05-.24,0-.07,0,.15,0,.23a.76.76,0,0,1,0,.15v.07h0v.07a1.57,1.57,0,0,1,0,.23v.08h0l0-.07c0,.05,0,.1,0,.14a3.49,3.49,0,0,1-.15.34c-.07.14,0,0,0-.06s-.08.13-.1.16a3.88,3.88,0,0,1-.26.31c-.16.19.15-.1,0,0a1.49,1.49,0,0,0-.14.12,2.32,2.32,0,0,1-.3.22l-.12.08c.07,0,.2-.1,0,0L309,124l-.17,0c-.15.06.28,0,0,0l-.33,0h-.19s.26,0,.08,0l-.44-.06c-.21,0,.07,0,.07,0a.9.9,0,0,1-.21-.08l-.3-.14c-.14-.06.22.16,0,0l-.12-.09-.17-.14-.06,0c-.08-.09-.07-.07.05,0-.05,0-.22-.25-.24-.28l-.09-.12s-.16-.18,0-.07,0,0,0-.07l-.06-.13s-.15-.42-.16-.42.06.25,0,.08,0-.17,0-.26a2.5,2.5,0,0,0,0-.4c.05,0,0,.24,0,.08l0-.26c0-.06,0-.12,0-.18,0-.24-.09.22,0,0a1.34,1.34,0,0,0,.07-.18c.12-.25-.1.09,0-.07a1.13,1.13,0,0,0,.1-.13c.15-.18-.15.1,0,0l.07,0c.1-.07.08-.06-.06,0l.07,0c.12,0,.09,0-.08,0,0,0,.13,0,.14,0-.18,0-.21,0-.09,0-.16-.05-.18-.05-.07,0a1.12,1.12,0,0,0,.89-2.05Z"/><path class="cls-6" d="M296.94,143.47a6,6,0,0,0-1.58,4,3.07,3.07,0,0,0,2.46,2.87,3.18,3.18,0,0,0,3.17-1.94,4.86,4.86,0,0,0,.43-3.73,3.21,3.21,0,0,0-1.1-1.62,1.89,1.89,0,0,0-2.33,0,1.12,1.12,0,0,0,1.35,1.78c.24-.18-.18.08,0,0s-.31,0-.12,0c0,0-.32,0-.16,0s-.14,0-.14,0l.09,0c.17.08-.19-.15-.1-.06a.57.57,0,0,0,.13.1c.11.07-.16-.19-.08-.08l.1.11a.72.72,0,0,0,.14.2c-.12-.09-.11-.19,0-.08s0,.09.07.14l.12.31c0,.11,0,.19,0-.07,0,0,0,.09,0,.13a2.17,2.17,0,0,1,0,.25c0,.05,0,.24,0,0s0,0,0,0a2.07,2.07,0,0,1,0,.35,2.74,2.74,0,0,1-.05.28l0,.14,0,.07h0l0-.07a.74.74,0,0,1,0,.14s0,.09-.05.14-.08.22-.13.33l-.13.25c-.11.21.11-.16,0,0l-.09.14-.16.21-.09.1c-.14.17.18-.15,0,0a1.84,1.84,0,0,1-.22.17c-.12.09-.12,0,.07,0l-.11.06-.11,0c-.16.07.1,0,.12,0s-.44.05-.21,0-.18,0-.17,0,.26.1.09,0l-.12-.05c-.16-.06.06,0,.08.05a.6.6,0,0,0-.13-.09.63.63,0,0,0-.12-.11c.07,0,.16.2.05,0s-.11-.18-.17-.24c.13.12.09.19.05.08a.61.61,0,0,1-.05-.12,1,1,0,0,1-.06-.16c-.06-.13,0-.14,0,.07,0-.1-.05-.24-.06-.34a.57.57,0,0,0,0-.13c0-.23,0,.26,0,0a2.52,2.52,0,0,1,.05-.37.45.45,0,0,1,0-.16c0,.13,0,.15,0,.08s0-.08,0-.12a3.52,3.52,0,0,1,.16-.39c.06-.13.13-.26.2-.38s-.09.13,0,0,.07-.13.11-.18c.17-.27.36-.52.55-.77a1.12,1.12,0,0,0-1.76-1.38Z"/><path class="cls-6" d="M323.77,146.93a2.8,2.8,0,0,0-3.07,1.95,3.38,3.38,0,0,0-.08,2.13,2.68,2.68,0,0,0,1.35,1.55,3.49,3.49,0,0,0,3.66-.44,3.57,3.57,0,0,0,1.16-1.5,3.67,3.67,0,0,0,0-2.34,4.39,4.39,0,0,0-3.59-3,1.12,1.12,0,1,0-.33,2.21,1.89,1.89,0,0,0,.39.07c-.17,0-.2-.06-.06,0l.16,0,.35.17c.17.08-.06,0-.07-.05s.16.11.22.15l.26.21c.08.07.14.2,0,0,0,0,.1.09.14.14a2.56,2.56,0,0,1,.2.26l.11.16c.12.18-.13-.24,0,0s.1.22.14.33a1.27,1.27,0,0,0,.06.18c-.11-.25,0-.19,0-.1s0,.25,0,.37,0-.22,0-.07a2,2,0,0,1,0,.23l0,.17c0,.2.09-.23,0-.1l-.11.27c0,.1-.15.18,0-.06l-.06.09c-.07.11-.17.19-.24.3.15-.21.16-.15.09-.09l-.12.11-.24.17c-.08.06-.21.09.08,0l-.14.07-.3.13-.15,0c.32-.11.18,0,.08,0l-.26,0h-.16c.32,0,.22,0,.12,0l-.34,0c-.19,0,.23.09.11,0l-.12-.05-.14-.06c-.19-.09.22.16.06,0l-.2-.17c.22.17.13.14.06,0a1,1,0,0,1-.09-.13c.18.21.1.19,0,.07s0-.09,0-.14,0,.26,0,.12l0-.13c0-.12,0-.45,0-.06,0-.1,0-.2,0-.31l0-.15c0-.2-.09.26,0,.07s.09-.23.14-.34a.41.41,0,0,0,.05-.09c-.14.32-.06.11,0,0a.58.58,0,0,1,.1-.12c.06-.08.19-.15-.07,0l.26-.2c.1-.09-.28.14-.11.06l.18-.08c.19-.07-.3.05-.1,0l.15,0c.2,0-.3,0-.1,0l.21,0a1.12,1.12,0,1,0,.32-2.21Z"/><path class="cls-6" d="M334.68,140.22a13.83,13.83,0,0,0-5.08,5.3c-1.19,2.17-2.46,5.66.21,7.25a6.27,6.27,0,0,0,7.1-1,8.77,8.77,0,0,0,2.7-7.22,5.39,5.39,0,0,0-1.78-3.9,3.51,3.51,0,0,0-4.12-.26,1.12,1.12,0,0,0-.22,1.56,1.15,1.15,0,0,0,1.57.22,1.35,1.35,0,0,1,1.57.41,3.82,3.82,0,0,1,.77,2.5,6.41,6.41,0,0,1-1.78,4.86c-1.16,1.08-3.19,1.79-4.67.91-.78-.46-.5-1.38-.29-2.11A11.48,11.48,0,0,1,336,142a1.11,1.11,0,0,0,.22-1.56,1.16,1.16,0,0,0-1.57-.22Z"/><path class="cls-6" d="M310.45,157.62a2.43,2.43,0,0,0-.15,3.51A3.24,3.24,0,0,0,312,162.2a3.13,3.13,0,0,0,2.06-.26,6,6,0,0,0,1.85-1.42,10.07,10.07,0,0,0,1.22-1.54,2.78,2.78,0,0,0,.42-2.52,2.66,2.66,0,0,0-1.63-1.5,3.34,3.34,0,0,0-2.52.15,8.32,8.32,0,0,0-2.14,1.69,1.12,1.12,0,0,0,.2,1.56,1.16,1.16,0,0,0,1.57-.19h0l.16-.16.28-.25a4.56,4.56,0,0,1,.65-.51c.05,0,.23-.13,0,0l.16-.08.34-.13c.23-.08,0,0,0,0l.14,0h.15c.24,0-.25,0,0,0,0,0,.29,0,.3.05s-.23-.08-.07,0l.17.07c.05,0,.15.11,0,0s0,0,0,0l.11.09c.09,0-.18-.19,0,0,0,0,.09.16,0,0s0,0,0,0c.08.21,0,0,0-.06s.05.13,0,.14,0-.27,0,0c0,0,0,.19,0,0,0,.12-.12.3-.17.4.11-.21-.06.07-.1.13l-.21.29c-.17.21-.33.42-.5.62l-.27.31-.12.13s-.16.16-.05.06-.09.08-.09.08l-.13.11a3,3,0,0,1-.35.27c-.06.05-.31.26-.11.08a1.05,1.05,0,0,1-.3.15l-.16.06c-.2.08,0,0,0,0a2.3,2.3,0,0,0-.42.07c-.17,0,.09,0,.12,0h-.12l-.15,0c-.13,0,.23.09.11,0l-.23-.1c-.13-.05.24.17.06,0l-.12-.09-.1-.08c-.19-.15.09.12,0,0s-.12-.13-.18-.21l-.07-.1c-.12-.17.11.23,0,.05a2.15,2.15,0,0,0-.1-.27c.13.27,0,.22,0,.13a1,1,0,0,1,0-.16c0-.14.1,0,0,.14l0-.16,0,.13s.1-.19,0,0,0,0,0,0-.21.17,0,0a1.11,1.11,0,1,0-1.35-1.77Z"/><path class="cls-6" d="M328.5,123.65a2.82,2.82,0,0,0-1.38,3.47,2.94,2.94,0,0,0,3.25,1.91,3.63,3.63,0,0,0,3-2.59,4.89,4.89,0,0,0,.16-2.15c0-.18-.08-.36-.12-.53a1.19,1.19,0,0,0-.75-.91,2.57,2.57,0,0,0-.91-.21,3.24,3.24,0,0,0-2.16.67,2.94,2.94,0,0,0-1.14,1.92,1.12,1.12,0,1,0,2.21.32s0-.19,0-.19-.1.28,0,.14a.49.49,0,0,0,0-.11s.14-.25,0-.07,0,0,.05-.06.12-.17.14-.16l-.1.09.07-.06.16-.12.08-.05c.14-.1-.22.11-.1.06l.36-.15c.11-.05-.27.06-.15,0l.09,0,.22,0h.1s-.31,0-.16,0l.19,0,.12,0c.11,0-.24-.09-.14,0a1.76,1.76,0,0,0,.2.09l-.59-.6c.05.18,0-.12,0-.12a.35.35,0,0,1,0,.12,2,2,0,0,1,0,.24,4.93,4.93,0,0,1,.05.54c0,.19,0-.12,0-.12v.12l0,.24a2,2,0,0,1,0,.24.36.36,0,0,0,0,.11c0,.21.08-.24,0,0a2.39,2.39,0,0,1-.18.44s0,.07-.05.1c.06-.2.11-.17.05-.09l-.17.24-.15.17c.2-.25.08-.08,0,0l-.18.12-.1.06c.26-.18.15-.08.06,0a3,3,0,0,1-.42.16c.35-.12.13,0,0,0a1.33,1.33,0,0,1-.28,0h-.11s.31,0,.14,0l-.21,0-.11,0c-.09,0-.13-.08.12,0l-.24-.09-.1,0s.25.17.11.06l-.17-.13c-.13-.1.2.23,0,0a1.77,1.77,0,0,1-.12-.17c-.08-.11.14.28.06.11s0,0,0-.08a.87.87,0,0,0-.07-.17c-.06-.17.07.31,0,.06l0-.21v-.09c0-.19,0,.11,0,.14s0-.19,0-.23.12-.33,0,0a1.46,1.46,0,0,0,.07-.19l0-.08c.05-.12-.16.24-.06.11l.13-.18c.1-.11-.1.11-.11.11l.11-.08.07,0s-.29.15-.09,0a1.11,1.11,0,1,0-.85-2.06Z"/><path class="cls-6" d="M300.58,154.64c-2,0-3.39,1.77-3.75,3.56a4.35,4.35,0,0,0,2.39,4.74,5.85,5.85,0,0,0,5.34-.14,1.77,1.77,0,0,0,.89-.77,3.18,3.18,0,0,0,.06-1.27l-.05-1.84a10.06,10.06,0,0,0-.45-3.32,3.24,3.24,0,0,0-2.66-2.15,2.55,2.55,0,0,0-2.77,1.53,1.12,1.12,0,1,0,2.05.88s.08-.2.08-.2c-.09.15-.1.17,0,.08l0-.06s-.19.19,0,0-.21.07,0,0l.2-.07c-.08.08-.23,0,0,0l.21,0s-.28,0,0,0c0,0,.22,0,.22,0s-.23-.09,0,0a.83.83,0,0,1,.21.09s-.21-.15,0,0,.23.19.1.07.09.11.11.15l.09.13c-.05-.09-.05-.1,0,0s.09.18.13.27a2.5,2.5,0,0,1,.09.25c.1.24,0-.13,0,.11s.07.42.1.63c.05.43.06.86.07,1.3l.09,3,.44-1c-.05,0-.29.18-.16.11s-.14.06-.18.08a4.35,4.35,0,0,1-.63.25l-.12,0c-.15.06.2,0,0,0l-.29.06q-.32,0-.63.06c-.29,0,.13,0-.08,0l-.33,0c-.21,0-.41-.08-.62-.11l.08,0-.16,0-.27-.1-.26-.12-.14-.07c.07,0,.14.09,0,0s-.31-.26-.48-.38,0,.05.05.06l-.11-.12a2.56,2.56,0,0,1-.2-.26l-.09-.14s.09.19,0,.08l-.12-.25c0-.08-.05-.17-.09-.26s0,.22,0,.07,0-.14,0-.2l0-.27a.49.49,0,0,0,0-.12c0-.22,0,.06,0,.06s0-.48.07-.59.08-.28,0-.07l.09-.26a2,2,0,0,1,.11-.26.61.61,0,0,1,.07-.14s.14-.22,0-.08,0,0,0,0l.12-.16c.06-.09.13-.16.19-.24s.16-.12,0,0,0,0,.06-.05L300,157c.13-.1-.06,0-.06,0s.11-.06.13-.07l.28-.11-.07,0,.19,0a2.06,2.06,0,0,1,.35,0,1.13,1.13,0,0,0,1-1.25,1.15,1.15,0,0,0-1.25-1Z"/><path class="cls-6" d="M322,158.87c-1.25,1.14-2.61,2.61-2.4,4.44a3.62,3.62,0,0,0,3.6,3c1.93.07,3.58-1.1,5-2.25a4.7,4.7,0,0,0,1.61-2,2.94,2.94,0,0,0-.41-2.76,3.86,3.86,0,0,0-2.58-1.53,8.8,8.8,0,0,0-3.56.44,1.13,1.13,0,0,0-.61,1.46,1.16,1.16,0,0,0,1.46.61,7.67,7.67,0,0,1,1.94-.34,1.91,1.91,0,0,1,1.38.48s.13.13.07.06.08.11.09.13a.71.71,0,0,1,.1.14s-.07-.14,0,.05,0-.05,0,.15,0,.13,0,0a1,1,0,0,1,0,.24c0-.14,0,0,0,.06l-.11.21c.07-.11-.09.11-.12.14a2.78,2.78,0,0,1-.55.52,7.53,7.53,0,0,1-3.24,1.86l-.39,0c.18,0-.16,0-.21,0a1.43,1.43,0,0,1-.64-.18l-.14-.07c-.16-.09.11.08,0,0a1.61,1.61,0,0,1-.29-.24c.11.13-.05-.08-.08-.12s0-.07,0,0l-.08-.2c.06.15,0,0,0,0a1.64,1.64,0,0,1,0-.23c0,.17,0,0,0,0a2.56,2.56,0,0,1,.05-.27c0-.13,0,0,0,0s.06-.18.1-.27l.08-.16c.07-.14,0,0,.06-.12a7.19,7.19,0,0,1,1.25-1.41,1.15,1.15,0,0,0,.21-1.57,1.12,1.12,0,0,0-1.56-.21Z"/><path class="cls-7" d="M208.25,73.09S206,38.63,244.61,32.39c35.63-5.77,43.86,31.79,38.67,50.08s-24.13,22.94-37.58,23.2S209.05,98.55,208.25,73.09Z"/><path class="cls-7" d="M149.08,71.7S147.44,46.55,175.62,42c26-4.2,32,23.21,28.23,36.56s-17.62,16.75-27.43,16.94S149.66,90.28,149.08,71.7Z"/><circle class="cls-4" cx="262.07" cy="74.83" r="18.71"/><circle class="cls-4" cx="188.37" cy="72.96" r="13.66"/><path class="cls-4" d="M156.67,46.54s1.75-16.94,24.4-16.93l-2.51-9.1s-20.5-2.37-28.4,18.47a8.54,8.54,0,0,0,1,8.24C153.42,50.43,156.67,46.54,156.67,46.54Z"/><path class="cls-4" d="M261.14,14.67l3.79-11.73s33-4.86,38.83,31.48c0,0,.51,5.17-2.66,5.79s-5.28.53-6.22-.52C294.88,39.69,294.21,11.55,261.14,14.67Z"/><ellipse class="cls-4" cx="49.08" cy="161.03" rx="7.02" ry="5.56" transform="translate(-117.01 188.44) rotate(-82.42)"/><ellipse class="cls-4" cx="23.18" cy="155.68" rx="7.02" ry="5.56" transform="translate(-134.2 158.12) rotate(-82.42)"/><path class="cls-3" d="M74.62,321.17s2.62-9.67,12.89-4.63c0,0,2.82-9.87,14.1-6l1.61,3.42-15.91,6.45Z"/></g></svg>