<svg id="Layer_1" data-name="Layer 1" xmlns="http://www.w3.org/2000/svg" viewBox="0 0 328 181"><defs><style>.cls-1{fill:#35373a;opacity:0.62;}.cls-2{fill:#fffffd;}.cls-3{fill:#e5e27a;}.cls-4{fill:#d8b452;}.cls-5{fill:#eaeaea;}.cls-6{fill:#c9cfd3;}</style></defs><ellipse class="cls-1" cx="164.28" cy="94.39" rx="159.15" ry="86.45"/><ellipse class="cls-2" cx="164.28" cy="83.09" rx="163.55" ry="82.38"/><path class="cls-3" d="M164.28.71C74,.71.72,37.59.72,83.09S74,165.47,164.28,165.47s163.55-36.88,163.55-82.38S254.6.71,164.28.71Zm0,153.4C78.51,154.11,9,120.47,9,79S78.51,3.82,164.28,3.82,319.57,37.46,319.57,79,250,154.11,164.28,154.11Z"/><path class="cls-4" d="M164.28,158.72c-88.09,0-159.89-35.07-163.41-79C.78,80.83.72,82,.72,83.09c0,45.5,73.23,82.38,163.56,82.38s163.55-36.88,163.55-82.38c0-1.13-.06-2.26-.15-3.38C324.16,123.65,252.36,158.72,164.28,158.72Z"/><ellipse class="cls-5" cx="164.28" cy="76.87" rx="108.33" ry="51.24"/><path class="cls-6" d="M164.28,30.45c58.11,0,105.54,21.65,108.2,48.83.08-.8.12-1.6.12-2.41,0-28.3-48.5-51.24-108.32-51.24S56,48.57,56,76.87c0,.81,0,1.61.12,2.41C58.73,52.1,106.16,30.45,164.28,30.45Z"/></svg>