<svg id="Layer_1" data-name="Layer 1" xmlns="http://www.w3.org/2000/svg" xmlns:xlink="http://www.w3.org/1999/xlink" viewBox="0 0 203 258"><defs><linearGradient id="linear-gradient" x1="406.96" y1="209.53" x2="229.13" y2="501.26" gradientTransform="translate(406.02 -223.98) rotate(90)" gradientUnits="userSpaceOnUse"><stop offset="0" stop-color="#fefffb"/><stop offset="0.46" stop-color="#fcfdf9"/><stop offset="0.7" stop-color="#f5f5f2"/><stop offset="0.89" stop-color="#eae7e7"/><stop offset="1" stop-color="#e0dcdd"/></linearGradient><linearGradient id="linear-gradient-2" x1="104.11" y1="63.71" x2="104.11" y2="368.19" gradientUnits="userSpaceOnUse"><stop offset="0" stop-color="#fefffb"/><stop offset="0.33" stop-color="#f9f9f6"/><stop offset="0.77" stop-color="#eae8e7"/><stop offset="1" stop-color="#e0dcdd"/></linearGradient></defs><rect x="0.77" y="6.02" width="197.29" height="252.24" opacity="0.3"/><rect x="5.47" y="0.54" width="197.29" height="252.24" fill="#dbcfb8"/><rect x="5.47" y="0.54" width="197.29" height="252.24" fill="#ffe228"/><rect x="17.66" y="12.03" width="172.91" height="229.27" fill="url(#linear-gradient)"/><rect x="17.66" y="12.03" width="172.91" height="229.27" fill="#b5b5b5"/><rect x="19.08" y="13.92" width="170.06" height="225.49" fill="#f7494a"/><rect x="41.94" y="33.54" width="124.33" height="186.25" fill="#d8d8d8"/><rect x="41.94" y="33.54" width="124.33" height="186.25" fill="#59544f"/><rect x="44.05" y="36.69" width="120.12" height="179.95" fill="url(#linear-gradient-2)"/><path d="M133.53,145s6.49-2.6,6.49,23.52a12.79,12.79,0,0,0,14,0s4.58-26.55-6.58-35c-4.32-3.29-9-3.49-16-3.38Z" fill="#f7c42b"/><path d="M156.12,180.18a9.15,9.15,0,0,0,1.45-4.93c0-5.35-4.64-9.69-10.37-9.69s-10.38,4.34-10.38,9.69a9.15,9.15,0,0,0,1.45,4.93h4.6s-1.82-6.75,3.72-6.75,4,6.75,4,6.75Z" fill="#2fcafe"/><path d="M74.69,145s-6.48-2.6-6.48,23.52a12.81,12.81,0,0,1-14,0s-4.58-26.55,6.58-35c4.33-3.29,9-3.49,16-3.38Z" fill="#f7c42b"/><path d="M52.1,180.18a9.24,9.24,0,0,1-1.45-4.93c0-5.35,4.65-9.69,10.38-9.69s10.37,4.34,10.37,9.69A9.15,9.15,0,0,1,70,180.18h-4.6s1.82-6.75-3.72-6.75-4,6.75-4,6.75Z" fill="#2fcafe"/><rect x="98.5" y="116.15" width="11.22" height="13.38" fill="#4a4a4a"/><rect x="128.6" y="129.53" width="7.96" height="17.53" fill="#4a4a4a"/><rect x="71.66" y="129.53" width="7.96" height="17.53" fill="#4a4a4a"/><rect x="85.74" y="164.35" width="12.77" height="35.52" fill="#f7c42b"/><rect x="109.72" y="164.35" width="12.77" height="35.52" fill="#f7c42b"/><path d="M83.4,205.33h17.53s2.29-9.46-8.89-9.46S83.4,205.33,83.4,205.33Z" fill="#2fcafe"/><path d="M124.84,205.4H107.31S105,196,116.2,196,124.84,205.4,124.84,205.4Z" fill="#2fcafe"/><path d="M133,107.79h-4.84V88.42H133a5,5,0,0,1,5,5v9.34A5,5,0,0,1,133,107.79Z" fill="#f7c42b"/><path d="M75.06,107.79H79.9V88.42H75.06a5,5,0,0,0-5,5v9.34A5,5,0,0,0,75.06,107.79Z" fill="#f7c42b"/><rect x="115.29" y="64.72" width="4.03" height="18.33" fill="#2fcafe"/><path d="M122.38,61.61a5.08,5.08,0,1,1-5.08-5.08A5.07,5.07,0,0,1,122.38,61.61Z" fill="#f13536"/><rect x="88.91" y="64.72" width="4.03" height="18.33" fill="#2fcafe"/><path d="M85.84,61.61a5.08,5.08,0,1,0,5.08-5.08A5.07,5.07,0,0,0,85.84,61.61Z" fill="#f13536"/><rect x="77.23" y="79.25" width="53.75" height="40.13" fill="#00c077"/><rect x="77.23" y="126.99" width="53.75" height="40.13" fill="#00c077"/><rect x="84.56" y="134.26" width="39.11" height="12.8" fill="#2fcafe"/><path d="M94.06,144H92v-2.5H89.75V144h-2v-6.59h2v2.41H92v-2.41h2Z" fill="#fff"/><path d="M95.44,144v-6.59H101v1.58H97.49v.91h3v1.51h-3v1H101V144Z" fill="#fff"/><path d="M102.14,144v-6.59h2v4.9h3.27V144Z" fill="#fff"/><path d="M108.33,144v-6.59h2v4.9h3.27V144Z" fill="#fff"/><path d="M121,140.65a3.45,3.45,0,1,1-3.45-3.4C119.71,137.25,121,138.41,121,140.65Zm-4.79-.3V141c0,.9.44,1.52,1.34,1.52s1.36-.62,1.36-1.52v-.61c0-.9-.46-1.52-1.36-1.52S116.19,139.45,116.19,140.35Z" fill="#fff"/><path d="M95.24,90.49a4.32,4.32,0,1,1-4.32-4.32A4.32,4.32,0,0,1,95.24,90.49Z" fill="#3c393e"/><path d="M121.63,90.49a4.33,4.33,0,1,1-4.33-4.32A4.33,4.33,0,0,1,121.63,90.49Z" fill="#3c393e"/><path d="M109.09,99.32a5,5,0,1,1-5-5A5,5,0,0,1,109.09,99.32Z" fill="#3c393e"/><path d="M113.15,105.89a15.16,15.16,0,0,1-17.44,0c0,7.53,7.84,8.32,8.68,8.38h.08C105.31,114.21,113.15,113.42,113.15,105.89Z" fill="#3c393e"/></svg>