<svg id="Layer_1" data-name="Layer 1" xmlns="http://www.w3.org/2000/svg" viewBox="0 0 352 457"><defs><style>.cls-1{fill:#10564f;}.cls-2{fill:#34ba77;}.cls-3{fill:#0b7056;}.cls-4{fill:#79aed4;}.cls-5{fill:#fff;}</style></defs><path class="cls-1" d="M183.19,116.79c15-36.37,31.7-44.71,45.71-47.05,20.36-10,47.38-8.34,59.06-6.67s33.2,13.35,39.2,23.86,14,16,20,35.53,5,31,5,31c-15-2-18-11-25-15s-15-8.5-23-7-19-7-29.53,1.5-22.52,10-36,5.5S198.54,152,187,144C182.53,125,183.19,116.79,183.19,116.79Z"/><path class="cls-2" d="M336.76,132C327,117.26,312.32,95.06,287,85.21l-4.23-1.65c-24.12-9.4-34.11-13.3-53.84-13l0-1.68C249,68.59,259,72.51,283.37,82l4.23,1.64c25.83,10,40.71,32.52,50.56,47.39Z"/><path class="cls-2" d="M298.15,72c-4.4-.49-8.41-1.17-12.28-1.83-12.19-2.06-22.71-3.84-37.44,1.82l-.6-1.57c15.16-5.82,25.89-4,38.32-1.9,3.85.65,7.83,1.32,12.19,1.82Z"/><path class="cls-2" d="M330.44,97.67c-6.22-3.62-11.48-3.76-17.05-3.9a50,50,0,0,1-12.51-1.46l.44-1.62a48.58,48.58,0,0,0,12.11,1.4c5.79.15,11.26.29,17.85,4.12Z"/><path class="cls-2" d="M341.47,124.44a116.59,116.59,0,0,0-15.09-7.55l.62-1.56A118.08,118.08,0,0,1,342.33,123Z"/><path class="cls-2" d="M307.87,121c-5.08-6-7.35-11.61-9.54-17-2.57-6.3-5-12.25-11.64-19l1.2-1.17c6.87,7,9.48,13.37,12,19.54,2.15,5.26,4.37,10.7,9.27,16.54Z"/><path class="cls-2" d="M280.2,115.59c-9.15-11-10.57-19.38-11.71-26.15-.84-5-1.56-9.27-5.14-13.31L264.61,75c3.9,4.39,4.66,8.91,5.54,14.14,1.16,6.92,2.48,14.75,11.34,25.35Z"/><path class="cls-2" d="M223.75,126.9c-5.87-26.14-24.29-38.54-24.48-38.66l.92-1.4c.2.12,19.18,12.89,25.2,39.69Z"/><path class="cls-1" d="M137.72,27.51C132.85,5.64,126.88,5.78,113.62,5.6S95.6-4.52,81.33,2.91,55.56,6.4,50.2,16c20.77-2,18,10.7,33.16,9.56s22.65,16.28,32.11,16S138.46,30.85,137.72,27.51Z"/><path class="cls-3" d="M142.15,36.38c8-23.69,24.69-30,35.71-29,24-6,38.7,6,40.7,6.34,26,11.34,28,29,30.36,32.7s-.67,4.34-7.34,5-8.67-.33-20-4.67-20.23-1.33-28,4-28.76,8.71-38.1-1.15S142.15,36.38,142.15,36.38Z"/><path class="cls-2" d="M150.6,89.23l-1-1.12C133,70.48,134.41,43.71,141.5,35.85c.42-.58.85-1.14,1.29-1.69A33.46,33.46,0,0,0,137,28l-.1-.1c-.09-.1-8.34-9.48-24.14-9.48A40.59,40.59,0,0,1,99,15.9c-3-1-5.67-1.85-8.62-1.61a42.76,42.76,0,0,1-6.55-.17c-5-.39-10.2-.79-14.94,2.47l-1-1.38c5.23-3.6,11-3.16,16-2.77a42.23,42.23,0,0,0,6.29.18c3.28-.27,6,.64,9.27,1.69a39.23,39.23,0,0,0,13.19,2.45c16.11,0,24.56,9.09,25.36,10a35.34,35.34,0,0,1,5.82,6.08,45.73,45.73,0,0,1,23-14.35,49.09,49.09,0,0,1,24.26-.4c3.52.91,7.11,1.48,10.58,2,8.68,1.36,17.65,2.78,26.37,9.75,4.33,3.46,8.07,6,11.08,8.12l2.44,1.69-1,1.38-2.42-1.69c-3-2.09-6.81-4.69-11.18-8.19-8.37-6.69-16.73-8-25.58-9.4-3.51-.56-7.14-1.13-10.74-2.07-9.82-2.55-31.41-2.53-45.82,14.53,5.24,7.68,8.11,17.93,8.4,30.21A99.09,99.09,0,0,1,151,87.74ZM143.79,35.6c-.32.41-.64.84-1,1.27l-.05.07c-3.41,3.74-5.19,12.28-4.44,21.25.51,6.13,2.68,17.66,11.35,27.58C151,79.14,155.34,53,143.79,35.6Z"/><path class="cls-3" d="M128,68.41c-42-15-61-10.51-86.08,7.51s-28.52,44.54-27,58.05,4,15.52-6,27-10,33-4.5,50.54,7,18.52,5,37.54,1,33.53,14,43,15.51,20,15.51,20c11.51-15.52,7.51-26.53,20-35.53s28.53-7,46-27.53,18.52-36.53,20.52-49.55S150.5,181,167,174s24-25.53,24-43.54S172,88.93,159.5,80.92,138.81,72,128,68.41Z"/><path class="cls-2" d="M160.64,324.05l-.63-4.28c0-.28-4.09-27.52-12-48.54l1.57-.59c6.08,16.19,9.88,36,11.36,44.59,4.31-20.75,4.37-44.05,4.37-44.3H167c0,.27-.06,27.05-5.36,48.91Z"/><path class="cls-4" d="M254.2,456.44H89.91A9.94,9.94,0,0,1,80,445.37L95.85,307h152.4l15.83,138.4A9.94,9.94,0,0,1,254.2,456.44Z"/><path class="cls-2" d="M17.11,126.18l-1.48-.77c15.4-29.54,45.74-31,65.81-32,6.82-.34,12.71-.63,16.48-1.91l.54,1.59c-4,1.35-10,1.65-16.93,2C60.66,96.09,32.07,97.5,17.11,126.18Z"/><path class="cls-2" d="M155.15,168.13c-16-14.13-26.71-32.18-30.87-52.19-3.29-15.81-2.42-33,2.38-47.15l1.59.54c-9.47,27.91-4.48,68.9,28,97.54Z"/><path class="cls-2" d="M7,193.1,5.75,192c12.34-13.19,29.36-18.23,44.37-22.68,11.88-3.52,22.14-6.56,27.27-12.86l1.3,1.06c-5.46,6.7-15.95,9.81-28.09,13.41C35.79,175.27,19,180.24,7,193.1Z"/><path class="cls-2" d="M92.39,251c-12-10.5-21.07-23.12-26.26-36.48-4.31-11.1-5.72-22.3-3.86-30.75l1.64.36c-1.79,8.13-.41,19,3.79,29.78,5.09,13.11,14,25.5,25.8,35.83Z"/><path class="cls-2" d="M18.45,273.19l-1.65-.32c4.77-24.81,26.39-36.16,26.61-36.28l.77,1.5C44,238.2,23.06,249.2,18.45,273.19Z"/><path class="cls-5" d="M259.38,404.23,228.8,431.61l-40.23-34.24-37,34.18-37-32.13-2.3,2c-9,7.74-21.87,18.81-30.11,25.63L81,437c3.1-2.38,8.14-6.63,16.89-14.07,6.64-5.64,13.27-11.34,16.65-14.26L151.66,441l37.09-34.23,40.17,34.18,31.43-28.14Z"/><path class="cls-5" d="M84.36,407.48c1.11-.86,2.33-1.87,3.73-3,3.29-2.69,7.78-6.46,13.35-11.19,4.75-4,9.5-8.11,13.06-11.17l37.27,32.37,37.13-34.25L229,414.35l28.59-25.6-2.5-21.94-26.39,23.63-40.29-34.28-37,34.14-36.87-32-5.91,5.11c-7.2,6.23-14.83,12.77-21.32,18.26Z"/><path class="cls-2" d="M43.41,288.64l-1.67,0c.07-4.36-.11-8.67-.3-13.23-.58-13.88-1.24-29.6,4.89-55.27,4.24-17.72,12.1-30.34,19-41.47,6.71-10.77,13-20.95,15.23-34,.16-.92.31-1.89.48-2.89,1.78-10.9,4.21-25.84,10.79-39.86,7.8-16.61,19.85-28.13,35.81-34.22l.59,1.57C92.37,82.89,86.34,119.88,82.73,142c-.16,1-.32,2-.47,2.9C80,158.3,73.59,168.61,66.79,179.53,59.59,191.09,52.14,203,48,220.5c-6.09,25.44-5.43,41-4.85,54.81C43.31,279.9,43.49,284.23,43.41,288.64Z"/><path class="cls-1" d="M152.16,168.17c-46.71,24-44,64.06-32,88.08s40.71,20.69,48.72,27.36.66,34,7.34,44.71,36,24.69,56.05,27.36,36.7,28,29.36,46.71c46.71-16.68,60.72-32.7,55.39-60.72s-17.35-33.37-3.34-53.39,14.68-40,2-58.72-8.67-28.69-4.67-48S276.06,140.59,241.8,144s-66.28,16.8-69.62,18.8C164.18,166.17,152.16,168.17,152.16,168.17Z"/><path class="cls-2" d="M274.71,388.81l-1.47-.81c12.11-22.19,6-54.53-2.8-68.4-5.21-8.19-6.39-15.46-7.53-22.5-1.41-8.7-2.74-16.92-11.44-26.43-16.39-17.93-20.24-25.15-17.4-49.71,1.52-13.09-1.35-22.85-9.31-31.66-8.81-9.76-24.16-18.59-48.31-27.8l.6-1.57c24.4,9.31,40,18.28,49,28.24,8.3,9.2,11.31,19.37,9.73,33-2.78,24,.74,30.63,17,48.38,9,9.89,10.47,18.74,11.86,27.3,1.11,6.87,2.26,14,7.29,21.86C280.91,332.91,287.13,366.05,274.71,388.81Z"/><path class="cls-2" d="M191.55,317.3l-1-1.32c19.3-15.19,24.55-34.71,29.63-53.59,3.33-12.36,6.47-24,13.38-33.81l1.37,1c-6.73,9.54-9.84,21.07-13.12,33.28C216.62,282,211.29,301.76,191.55,317.3Z"/><path class="cls-2" d="M304.64,193.2c-16.95-12.84-35.81-11-54.06-9.19-11.61,1.14-22.59,2.22-32.15-.74l.49-1.6c9.24,2.85,20.05,1.79,31.5.67,17.7-1.74,37.76-3.71,55.23,9.52Z"/><path class="cls-2" d="M141.81,256.75l-1.65-.33c3.47-17.56,13.76-30.31,23.7-42.64,12.26-15.2,23.85-29.56,18.49-50.33L184,163c5.57,21.58-6.27,36.26-18.8,51.8C155.35,227,145.2,239.59,141.81,256.75Z"/><path class="cls-2" d="M308,289.1c-11.78-16.64-28.32-20.88-42.92-24.63-11.16-2.86-21.7-5.56-28.28-13.42l1.29-1.08c6.23,7.44,16,10,27.41,12.88,14.87,3.81,31.73,8.13,43.87,25.28Z"/><path class="cls-2" d="M241,352.05l-1.5-.75c1.31-2.6,2.54-4.95,3.74-7.22,6.66-12.69,11.07-21.07,11-40.2a206.16,206.16,0,0,0-3-33.62l1.65-.32a207.52,207.52,0,0,1,3,33.94c.06,19.54-4.42,28.07-11.21,41C243.53,347.12,242.3,349.47,241,352.05Z"/><path class="cls-2" d="M296,363.08a85.59,85.59,0,0,0-7.33-8.44c-4.57-4.81-8.88-9.36-10.72-15.17l1.6-.5c1.72,5.44,5.91,9.85,10.34,14.52a85.88,85.88,0,0,1,7.47,8.61Z"/><path class="cls-2" d="M102.23,16.74c-.06-.08-6.1-7.8-12.07-10.29L90.8,4.9c6.39,2.66,12.5,10.48,12.76,10.81Z"/><path class="cls-2" d="M109.66,30.12l-.32-1.64c9.92-1.94,18-8.28,18.11-8.35l1,1.32A48.92,48.92,0,0,1,109.66,30.12Z"/><path class="cls-2" d="M77.89,19l-1.35-1c.14-.18,3.35-4.48,6.58-5.79l.63,1.55C81,14.93,77.92,19,77.89,19Z"/><path class="cls-2" d="M231.36,26.64a106,106,0,0,1-13.12-.76l.23-1.67a103.41,103.41,0,0,0,12.89.75Z"/><path class="cls-2" d="M214.34,37.17c-4.58-9.47-16-15.57-16.15-15.63l.78-1.49c.49.26,12.06,6.42,16.88,16.39Z"/><path class="cls-2" d="M170.46,19.36l-.71-1.52a122.94,122.94,0,0,1,21.09-7l.39,1.63A121.74,121.74,0,0,0,170.46,19.36Z"/><path class="cls-2" d="M187,39.29c-24.35-5.67-31.61-14.35-31.91-14.72l1.31-1.05c.06.08,7.28,8.62,31,14.14Z"/></svg>