<svg id="Layer_1" data-name="Layer 1" xmlns="http://www.w3.org/2000/svg" xmlns:xlink="http://www.w3.org/1999/xlink" viewBox="0 0 438 160"><defs><style>.cls-1{fill:none;}.cls-2{clip-path:url(#clip-path);}.cls-3{fill:#e53942;}.cls-4{fill:#b22636;}.cls-5{clip-path:url(#clip-path-2);}.cls-6,.cls-7{fill:#090d1c;}.cls-6{opacity:0.31;}.cls-7{opacity:0.42;}.cls-8{clip-path:url(#clip-path-3);}</style><clipPath id="clip-path"><rect class="cls-1" width="438" height="160"/></clipPath><clipPath id="clip-path-2"><path class="cls-1" d="M391.84,2.09S199.66-27.73,154.93,177.7H471.36L468.88,17Z"/></clipPath><clipPath id="clip-path-3"><path class="cls-1" d="M177.29,137.11s-21.53-27.34-70.41-8.28S28.19,171.07,4.17,131.31c0,0-8.07-12.68-1.21-11.79S31.05,139,79.27,90.32,170,12.68,239.19,43.65Z"/></clipPath></defs><g class="cls-2"><path class="cls-3" d="M177.29,137.11s-21.53-27.34-70.41-8.28S28.19,171.07,4.17,131.31c0,0-8.07-12.68-1.21-11.79S31.05,139,79.27,90.32,170,12.68,239.19,43.65Z"/><path class="cls-4" d="M391.84,2.09S199.66-27.73,154.93,177.7H471.36L468.88,17Z"/><g class="cls-5"><path class="cls-6" d="M395.15-6.2s-5,42.25-24,50.53-53-48.87-53-48.87,9.12,51.36-11.59,67.1-63.79-43.91-63.79-43.91S265.93,51.79,257.64,75,193,71.67,193,71.67l-4.14,9.11s27.34,10.77,29.82,41.42-63,19.88-63,19.88S168.18,58.42,174,52.62s72.9-63.79,82-67.1S358.7-45.13,360.36-42.65,395.15-6.2,395.15-6.2Z"/></g><path class="cls-7" d="M331.76,173.22s43.76-28.82,94.4-24.24,82.52,13.7,90.16,30.86S495.82,234.18,493,235s-148.67-35.3-148.67-35.3Z"/><g class="cls-8"><path class="cls-6" d="M217.74,32.37s-9.29,21.45-23.89,23.89-16.59-29.2-16.59-29.2l-4.2.88s5.75,25.66-3.32,28.1-27.87-19.47-27.87-19.47l-3.54,4.2s8,17.26,1.55,26.33-31.41-10.62-31.41-10.62l-1.11,3.1s9.07,13,6.42,21-23.67-6.42-23.67-6.42l-2.88,3.1s8,12.83,3.32,19.91-20.79-5.09-20.79-5.09L67.1,97.18s9.29,12.61,2.88,20.57-20.57-8.85-20.57-8.85l-2.22,2.66s6.86,13.27.67,17.47-17.25-9.73-17.25-9.73l-3.1,2s3.32,10-1.77,12.61-8.63-12.61-8.63-12.61-2.21,9.29-5.31,9.51-3.09-11.94-3.09-11.94,10.84-13.72,12.6-14.6S94.75,58.69,94.75,58.69s45.35-34.95,46.9-35.17,38-6.19,38.93-6S217.74,32.37,217.74,32.37Z"/></g></g></svg>