<svg xmlns="http://www.w3.org/2000/svg" xmlns:xlink="http://www.w3.org/1999/xlink" viewBox="0 0 1920 900"><defs><clipPath id="b94e6dbf-db7a-4840-87d2-242f54b66d59"><path d="M772.37,726.31s-15.9,5.43-77.94,5.43-81.89-23.2-81.89-23.2-7.52-6-12.38-9.29-16.37-19-21-28.31-11.06-40.7-12.16-50,.88-32.74,3.09-42.69a37.27,37.27,0,0,1,8.41-16.37s4.86-6.19,4.86.88a121.36,121.36,0,0,1-2.65,21.46c-.66,2.21,0,23.89.89,27.21s5.08,14.6,9.29,18.36,3.31,3.32,5.08,3.09c0,0,5.31-11.06,8.85-15.26s7.3-10.84,16.15-16.15,22.12-9.29,24.77-10.83,4.43-2.66,8-3.1,13-3.76,15.92-4.43,22.79-1.54,30.31-1.1a113.55,113.55,0,0,1,22.34,4s15,5.09,17.69,5.53,15.93,2,21.68,6A140.3,140.3,0,0,1,774,607c1.1,1.11,10.17,9.07,10.39,10s2.44-6.86,2.66-10,2-10.83,2.43-17.25.89-8.85.66-13.27-3.09-38.27-4-41.14S778,482.26,778,479.83s-2.66-17.7-3.76-22.79-2.66-4.86-3.32-8.18-1.11-14.82-1.33-15.93-1.55-3.1-4.64-.88-11.28,7.52-13.94,8.4-21.23,6-31,4.65-19-3.1-23.66-6.86-11.51-17.92-11.51-25-.22-12.6,0-13.27,10.4-24.11,40.93-30.08c0,0,24.33-4.87,34.06-2,0,0,16.15,3.54,17.25,6s6.64,5.53,8,6.42,3.09,2.43,5.08,6.85,6.86,15.49,8,19.91,8.4,31.19,8.62,33.84,5.76,27.43,6.86,31.41,9.73,38.49,10.18,43.36,5.53,20.79,8.62,42.69.89,59.72.67,63.26-2.66,17.48-2.66,17.48-.44,21-8.62,38-9.29,21.68-15,26.77a120.53,120.53,0,0,1-12.6,9.51l-.45,5.31Z" style="fill:none"/></clipPath></defs><g style="isolation:isolate"><g id="a7903a74-2254-4333-8118-d107a5689ec6" data-name="Layer 12"><rect width="1920" height="898" style="fill:#6ce1f2"/><path d="M1356.38,860.87h562.81V182.56s-126-20.66-147.89,106.07c0,0-183.49-45.81-194.45,148.64,0,0-56.14,1.37-60.25,52,0,0-63-47.92-128.72,8.22,0,0-50.67,31.5-31.5,109.55Z" style="fill:#fdfffe;opacity:0.88"/><path d="M1920,460.33s-39.56-25.88-75.79,0c0,0-174.29-94.9-207.07,91.46,0,0-15.53,0-17.26,12.08,0,0-117.34-65.57-157,63.84,0,0-139.78-81.1-229.51,75.07L1920,860.26V460.33" style="fill:#fdfffe"/><path d="M478.53,860.87V617.25c16.27-66.27-26.74-93-26.74-93-55.81-47.67-109.29-7-109.29-7-3.49-43-51.16-44.18-51.16-44.18C282,308,126.25,346.88,126.25,346.88,107.65,239.28.68,256.83.68,256.83v604Z" style="fill:#fdfffe;opacity:0.88"/><path d="M0,492.66s33.58-22,64.35,0c0,0,148-80.58,175.81,77.65,0,0,13.18,0,14.65,10.26,0,0,99.62-55.68,133.32,54.2,0,0,118.67-68.85,194.85,63.73L0,832.21V492.66" style="fill:#fdfffe"/><path d="M1920,837.29c-210-97.25-561.62-161-960-161S210,740,0,837.29V900H1920Z" style="fill:#93bc4b"/><path d="M960,676.28C570.74,738,298.57,900,298.57,900H195.71s409-199.43,727.51-223.54Z" style="fill:none;stroke:#bae854;stroke-miterlimit:10"/><path d="M1101.45,676.28C712.19,738,440,900,440,900H337.16s409-199.43,727.51-223.54Z" style="fill:none;stroke:#bae854;stroke-miterlimit:10"/><path d="M1575.54,735.19s-20.38-20.38-14.46-28.93,14.46-7.89,17.75-3.29,10.52,18.41,10.52,18.41l2.63-21.75s2.63-15.73,14.46-13.1,7.24,19.73,7.24,19.73l-3.29,17.09L1636,710.71s19.07-9.35,27.62,0,3.94,20.53-5.92,24.48-36.16,10.52-36.16,10.52Z" style="fill:#93bc4b"/><ellipse cx="1130.64" cy="770.87" rx="21.21" ry="8.61" style="fill:#f9db00"/><ellipse cx="1635.62" cy="832.72" rx="21.21" ry="8.61" style="fill:#f9db00"/><ellipse cx="1296.85" cy="803.02" rx="10.6" ry="4.3" style="fill:#f9db00"/><ellipse cx="1135.33" cy="837.77" rx="10.6" ry="4.3" style="fill:#f9db00"/><ellipse cx="904.41" cy="852.75" rx="10.6" ry="4.3" style="fill:#f9db00"/><ellipse cx="1424.46" cy="755.77" rx="10.6" ry="4.3" style="fill:#f9db00"/><ellipse cx="1512.49" cy="840.36" rx="10.6" ry="4.3" style="fill:#f9db00"/><ellipse cx="1362.65" cy="857.05" rx="10.6" ry="4.3" style="fill:#f9db00"/><ellipse cx="1238.05" cy="745.71" rx="10.6" ry="4.3" style="fill:#f9db00"/></g><g id="b7f5a1ed-f485-4b7b-819f-767db4882e46" data-name="Layer 8"><path d="M613.76,699.94c0,.88.26,59.09,0,62.63s3.76,10.84,5.75,12.38,1.1,2.88,11.72,2.44,13.05-11.06,13.94-15.71.35-59.8.35-59.8Z" style="fill:#b22636"/><path d="M724.29,727.47c1.32.22,2.48,7.78,2,9.55s-.22,30.08,0,35.83,7.52,5.31,7.52,5.31,2.88.44,10.4,0,7.08-8,7.08-8V759.58c0-.66-.51-31.67-.29-33.66Z" style="fill:#b22636"/><path d="M787.07,390.9s37.16-8.4,36.27,1.33-26.54,23-26.54,23l.89,6.19s32.73-4.87,35.39,6.63S805.21,452,805.21,452l.88,5.31s28.31-4.42,31.85,4.87-23,22.56-27.43,23l2.66,4s34.51-3.1,33.18,6.63-27.87,21.68-27.87,21.68l1.77,6.19s26.54-6.19,27.87,6.2-23.45,19.9-23.45,19.9l.89,4.43s27.87-2.21,28.31,8.85-27,18.58-27,18.58,27.87.88,27.87,12.83-28.31,11.94-28.31,11.94L809.19,582.9s-21.24-136.25-21.68-138S787.07,390.9,787.07,390.9Z" style="fill:#090d1c"/><path d="M794.15,713.41a120.53,120.53,0,0,0,12.6-9.51c5.76-5.09,6.86-9.73,15-26.77s8.62-38,8.62-38,2.44-13.94,2.66-17.48,2.43-41.36-.67-63.26-8.18-37.82-8.62-42.69-9.07-39.37-10.18-43.36-6.63-28.75-6.86-31.41-7.52-29.42-8.62-33.84-6-15.48-8-19.91-3.76-6-5.08-6.85-6.86-4-8-6.42-17.25-6-17.25-6c-9.73-2.88-34.06,2-34.06,2-30.53,6-40.7,29.42-40.93,30.08s0,6.2,0,13.27,6.86,21.24,11.51,25,13.93,5.53,23.66,6.86,28.32-3.76,31-4.65,10.84-6.19,13.94-8.4,4.42-.22,4.64.88.67,12.61,1.33,15.93,2.21,3.09,3.32,8.18S778,477.39,778,479.83s7.3,52.64,8.18,55.52,3.76,36.71,4,41.14-.22,6.86-.66,13.27-2.21,14.16-2.43,17.25-2.44,10.84-2.66,10-9.29-8.85-10.39-10a140.3,140.3,0,0,0-12.39-9.51c-5.75-4-19-5.53-21.68-6S722.26,586,722.26,586a113.55,113.55,0,0,0-22.34-4c-7.52-.44-27.43.44-30.31,1.1s-12.39,4-15.92,4.43-5.31,1.55-8,3.1S629.8,596.18,621,601.48s-12.61,11.95-16.15,16.15S596,632.89,596,632.89c-1.77.23-.88.67-5.08-3.09s-8.41-15-9.29-18.36-1.55-25-.89-27.21a121.36,121.36,0,0,0,2.65-21.46c0-7.07-4.86-.88-4.86-.88a37.27,37.27,0,0,0-8.41,16.37c-2.21,10-4.2,33.4-3.09,42.69s7.52,40.7,12.16,50,16.15,25,21,28.31,12.38,9.29,12.38,9.29,17.9,24.36,85.76,23.2,76.79-6.21,76.79-6.21S788,721.06,794.15,713.41Z" style="fill:#e53942"/><path d="M702.59,408.37a1.75,1.75,0,0,0,0-.57,1.5,1.5,0,0,0-1.85-1.05,1.74,1.74,0,0,0-.89.69,13.6,13.6,0,0,0-2.56,6.5,1.42,1.42,0,0,0,.59,1.18,1.57,1.57,0,0,0,1.31.27,4.9,4.9,0,0,0,3.61-2.9,5,5,0,0,0,.31-2.71A4.52,4.52,0,0,0,702.59,408.37Zm-2.46,2.48s0,0,0,0h0Z" style="fill:#090d1c"/><path d="M713.8,409.06a3.3,3.3,0,0,0-2.39-2.69,1.63,1.63,0,0,0-1.42.35,1.32,1.32,0,0,0-.82.65,15.48,15.48,0,0,0-1.23,3.35,6,6,0,0,0-.24,1.73,2.09,2.09,0,0,0,2,2,3.16,3.16,0,0,0,2.06-.9,6.16,6.16,0,0,0,1-1,5.53,5.53,0,0,0,1-1.69A4,4,0,0,0,713.8,409.06Zm-3,1c0,.14-.12.2,0,0Zm-.09-.8Zm0,0Zm0,0a.37.37,0,0,1,.06.1h0s0,0-.08-.12Zm-1,2c-.09.07-.27.16,0,0Z" style="fill:#090d1c"/><path d="M689,425.87c-.06.05-.06.2.07.19l.13-.23Z"/><path d="M689.72,426.44c.16-.1.37-.28.31-.52-.18.21-.2.11-.4.37a.16.16,0,0,1-.17-.2c-.05.06-.18-.08-.27.06a.38.38,0,0,0,.57.13C689.79,426.34,689.74,426.39,689.72,426.44Z"/><path d="M701.79,428.28l-.07,0Z"/><path d="M709.37,428.67a.11.11,0,0,0-.09.06C709.34,428.71,709.38,428.69,709.37,428.67Z"/><path d="M710.67,428.92h-.08S710.65,428.94,710.67,428.92Z"/><path d="M701.79,428.28l.2.09C702,428.29,701.89,428.3,701.79,428.28Z"/><path d="M691.48,426.09a.18.18,0,0,0-.12.05h.11Z"/><path d="M698.44,428.27h-.07l-.06.1Z"/><path d="M695.89,428c.05,0,.1-.19.13-.27a.2.2,0,0,1-.14.12A.27.27,0,0,0,695.89,428Z"/><path d="M691.91,427l-.08,0Z"/><path d="M700.27,428.43a.12.12,0,0,0,0,.07A.19.19,0,0,0,700.27,428.43Z"/><path d="M760.81,404.45h0S760.8,404.43,760.81,404.45Z"/><polygon points="760.58 401.32 760.61 401.35 760.72 401.31 760.58 401.32"/><path d="M713.06,429.14h0C713,429.16,713,429.16,713.06,429.14Z"/><path d="M734.59,425.34c-.29-.11.32-.33-.1-.43C734.55,425,734.26,425.31,734.59,425.34Z"/><path d="M691.54,426.12l.1,0A.2.2,0,0,0,691.54,426.12Z"/><path d="M734.49,424.91h0Z"/><path d="M718.53,428.59a.24.24,0,0,0-.06-.08S718.49,428.55,718.53,428.59Z"/><path d="M714.44,428.69l.1,0Z"/><path d="M720.61,428.08c.06,0,.08,0,.15,0l0,0S720.68,428.1,720.61,428.08Z"/><path d="M722.8,427.79l0,0-.07,0Z"/><path d="M759.93,408.86a.68.68,0,0,1,.2.07C760,408.84,760.19,408.58,759.93,408.86Z"/><path d="M691.46,426.21c0-.06,0-.08.08-.09h-.07A.08.08,0,0,0,691.46,426.21Z"/><path d="M720.48,426.42h.35A2.13,2.13,0,0,0,720.48,426.42Z"/><path d="M747.45,418l.06-.06A.09.09,0,0,0,747.45,418Z"/><path d="M721.84,426.28a.36.36,0,0,0,.21.11s0,0,0-.06Z"/><path d="M760.13,408.93Z"/><path d="M761.32,407c-.21.23.1.29.18.45-.2.34-.27,0-.46,0-.12.22-.07.53-.2.65s-.08,0-.09-.08c0,.34-.53.55-.54,1l-.08,0a.83.83,0,0,1,.3.24c-.1.11-.07.32-.24.22.07-.05,0-.11,0-.18l-.06.16c-.29-.09.09-.21,0-.35-.15.27-.27.66-.49.76-.21-.15.34-.42,0-.38l.33-.17c-.48-.11.18-.12-.3-.27-.4.26-.3.45-.69.71,0,.17.17.13.18.3-.32.64-.81-.12-.94.46,0,.21.2.49-.18.58l-.1-.29c-.37.26.07.48-.42.63,0-.14.21-.3.14-.28-.39,0-.07.26-.25.41l-.2-.16c-.35.33-.64.81-1,1.19,0-.08,0-.2-.14-.18a4.63,4.63,0,0,1-1.78,1.1l-.07.33s-.14,0-.12-.09c-.25.08.07.12,0,.26a.11.11,0,0,1-.19-.1c-.25.41-.79,1.09-1.32,1.16l0-.1c-.36.12-.1.59-.51.6l0-.06c-.73.34-1.37,1-2.05,1,.06.33-.74.3-.56.71a3.53,3.53,0,0,0-1.06.1c-.16.07-.08.36-.25.5l-.12-.19-.13.34-.27-.16-.14.14c.07,0,.2,0,.22.08a.75.75,0,0,1-.81.12l-.55.52c0-.09.06-.18.12-.28-.23.4-.18-.18-.39.18.07,0,0,.14.06.18a1.33,1.33,0,0,0-.82.35l0-.17c-.49.24-1,.6-1.54.84a.19.19,0,0,1,.15.34l-.17-.19c0,.19.21,0,.08.27-.22.07-.26-.18-.18-.31l-.21.19c-.05-.06,0-.12,0-.21,0,.18-.54,0-.58.28l0-.06c-.56.25-.77.44-1.22.66.08.19-.12.23-.19.45a5.19,5.19,0,0,0-1.19.3c-.24.23,0,.2-.09.38-.09-.17-.5,0-.34-.21a6.16,6.16,0,0,0-1.19.64c.1.05.19.05.17.13s-.29,0-.3-.07l0,0c-.61.52-1.82.06-2.25.64l0,0-.52.41c-.27.07.12-.19-.12-.23-.53.52-1,.34-1.47.67-.57-.43-1.44.44-2.1.25l.07.12c-.11.16-.19,0-.31,0,.05.09.19.07.12.17a15.62,15.62,0,0,1-3.82.69c-.47.05-.12.72-.77.52l.11-.27c-.87.47-1.91.35-2.78.77.05-.06,0-.14.12-.15-.22-.14-.71.13-.69.27-.15,0-.06-.12-.16-.18s-.45.32-.58.16,0-.07.08-.09-.59.09-.44.27c-.36,0-.64.22-.94.15-.14.27-.61,0-.62.29,0-.34-.65-.2-.85,0,.06-.11-.2-.09-.13-.24-.25,0-.48.12-.41.29-.51-.36-.9.42-1.22-.07a16.88,16.88,0,0,1-2.07.6c0-.34.74-.11.68-.46a4.47,4.47,0,0,1-1.61.52c-.17,0,.08-.16.13-.22-.63.2-1.23.12-1.79.3,0,0,.06-.07.12-.1-.12,0-.27,0-.25.11l.11,0c.19.22-.42.47-.44.59.17-.44-.57-.1-.29-.66a.19.19,0,0,0-.14.2c-.11,0-.15-.08,0-.2-.39.09-.24.25-.61.25,0-.07.07-.1.1-.19a.73.73,0,0,1-.67.24s0-.1.07-.1c-.52,0-.89.4-1.48.28.17-.33-.2-.11-.23-.39l-.31.09.12.14c-.27,0-.51.21-.75.12l.2-.12-.51.06.29.1c-.28.15,0,.36-.33.29.07,0-.28,0-.42-.16h0a.54.54,0,0,1-.48.12c-.05-.09,0-.31,0-.37-.14.24-.64.08-.82.33a.33.33,0,0,0,.05-.24l-.12.2c-.13-.06-.14-.09-.12-.21-.38,0,.11.35-.34.21,0,0,0,0,.1-.07-.46-.08-.89.07-1.31,0-.11-.29.37-.05.24-.3a9.71,9.71,0,0,1-1.85.16l.11,0c-.1.39-.42-.23-.73-.06.08,0,.11-.21.09-.17a4.6,4.6,0,0,0-1.44.13l.08-.09a5,5,0,0,0-.87-.16c-.08.1-.23.07-.15.23-.74-.63-1.53.21-2.18-.31.08,0,.21-.08.14-.08l-.6.05c0,.18.06.11.18.25a.56.56,0,0,1-.41.16c.28-.1,0-.27-.08-.38,0,.06,0,.11,0,.16-.28-.35-.09.34-.49.07l0-.08c-.16,0-.32.12-.48.07-.05-.21.17-.07.2-.23-.24,0-.51.31-.7.08.1,0,.25,0,.36-.06-.21-.27-.24-.22-.41-.28h0l-.39-.17.1.08c-.36.48-.62,0-1.07.29.44-.26.09-.18.15-.4-.09-.07-.24-.17-.19-.22-.21.15-.3-.19-.6,0,0-.08-.2,0-.13-.22-.26,0,0,.14,0,.23-.42.19-.85-.43-1.45-.17-.49.07-.62.3-1.08.36-.13-.14.17-.25.17-.25a.8.8,0,0,0-.65-.1c.06-.05,0-.11,0-.2s-.17.24-.39.1a1.34,1.34,0,0,1,.23-.26c-.22,0-.46.14-.69.17,0-.13.17-.17.26-.24-.26,0-.66,0-.77.21l.15.09c-.1,0,0-.18.05-.2.24-.13.3.11.3.18l-.17,0c.09.44.64,0,1,.09l-.18.29.37-.21c0,.09.07.27-.09.29.2.19.22-.08.39.12,0,0,0,0,0,.05l.24-.06c-.06.06,0,.23-.13.16.37.24.68-.14.79.12h0c.56,0,.08-.21.54-.42l.19.6.09-.22c.06,0,.17.05.13.14.24-.13,0-.11.13-.24.24.25.76,0,.78.39.12-.16-.25-.17.06-.25,0,.4.35,0,.58.2-.11.19-.33.05-.1.26.19-.32.48.15.7.11,0-.27.47,0,.84-.08,0,.08.65.24,1,.39l0,0c.1-.27.43-.15.69-.2a.34.34,0,0,1-.22.29h.23a.43.43,0,0,1,.3-.14l-.08.2c.32,0,.66-.21,1,0,0-.19-.27-.56.16-.66,0,.11,0,.29-.11.32,0,0,.14-.08.21,0l-.18.17c.17.08.11-.14.25-.12,0,.15.1.11.07.23s-.12-.07-.19,0a.67.67,0,0,1,.42.26c0-.09,0-.2.14-.21.31,0,.09.18.27.27.08-.1.27,0,.3-.2.09,0,.1.11.13.17s.76,0,.59-.22l0,0h0c.54-.19,1.09.19,1.63.13v.08c.32-.07.71,0,.94-.15s.21.15.17.23a.75.75,0,0,1,.62,0c-.25.12.07.12-.26.08.31.09.38.21.72,0-.12.18.23.25.38.2l-.21-.15a1.72,1.72,0,0,1,.46,0L706,429c.64.36,1.17-.48,1.65,0,.18-.18-.34-.12-.19-.32.29,0,.6.38.69.38.41.13.38-.38.81-.29-.06-.09-.11-.32.21-.41s.36.36.18.44-.11,0-.11,0-.22.07-.1.17l0-.09c.15.09.55.07.46.22.22-.09.09-.15-.07-.2.38.13.59,0,1,.08-.06-.05-.12-.16-.06-.16.58.1.25-.17.64-.22.22.13-.07.33.32.21.24.08,0,.23,0,.31.35-.18.67.1.88.12l-.19.08a.65.65,0,0,1,.3-.05l-.12-.17c.12,0,.21,0,.21.1.11-.12-.1-.3.12-.46.15.09.44-.11.5.13-.46-.07.07.23-.32.28a.44.44,0,0,1,.28,0s0,.05-.05.06c.46.2.19-.27.65-.27-.05.13.12.25.2.22-.19,0-.1-.22.06-.33.3.1.32-.08.47-.07l-.18-.05c0-.13.2-.12.4-.16,0,.1-.18.07-.1.12.21-.23.52.2.83,0,.15.08,0,.25.16.3.35-.21.4.14.76,0-.12-.17-.13-.12.12-.32l-.61.19.38-.3c-.19,0-.38.15-.5.13.18-.17.16-.12.06-.26.28.24.49-.21.8-.06l0,.45c.46.15.76-.31,1.34-.26l-.19-.06c.06-.18.35-.06.53-.15,0,.15.12.19.21.28,0-.11.42,0,.44-.34l.27.17c.47,0,.48-.47.92-.47-.11.17.1.26-.18.4.15,0,.29,0,.28-.1.09.08.38-.24.53-.12.06-.07.06-.22.22-.23a.08.08,0,0,1,0,.08c0-.08.25-.13.08-.28.52.42,1.26-.16,1.71.14.31-.11.69-.23,1-.3,0,.05,0,.08,0,.07.42.06.17-.46.65-.4.27.19-.22.18-.06.24.15.47.53-.17.89.05l-.07,0c.27.12.54-.29.92-.32a.08.08,0,0,0,0,.07,2.42,2.42,0,0,1,1-.61c-.07.21-.14.13,0,.31.16-.06-.11-.29.2-.41.13.08.38.13.46.32l-.31.07c.22.23.4-.08.57-.07v.12c.47-.13.41-.41.92-.49l-.07-.08c.2-.35.26.1.49-.18l.15.26a5.41,5.41,0,0,1,.87-.59c-.13.26-.48.47-.68.66.18,0,.6-.18.66-.35-.07.05-.14.14-.22.12a1.17,1.17,0,0,1,.77-.57c.09.57,1-.12,1.34.24.58-.38,1.28-.26,2-.5-.39-.35.21-.07,0-.49.16-.08.23-.09.26-.07l.6.12c.16.09-.13.15-.09.24.38-.08.22.13.5.16-.1-.14,0-.27.28-.28l-.36-.1c.44-.42.57.21,1-.21l-.12.2c.24-.18,1-.36,1.12-.8.06,0,.17.13.06.2.66-.18,1.27-.88,1.85-.85v.13c.11-.08.13-.27.32-.22,0,0,0,.12.05.1s.24-.29.42-.29l-.09.17c.68-.08.82-.66,1.29-1,.13.3.64.19.9.13v0a7.76,7.76,0,0,0,1.67-1.19c.54.13,1.43-.45,2.14-.63-.12,0-.1-.23,0-.32s.3-.43.42-.14l-.06,0c.25.2.51,0,.75-.15l-.15-.37c.89.17,1.5-1.06,2.09-.79.1-.16.28-.26.38-.43l.1.19a3.72,3.72,0,0,0,1.1-.64l0,.2c.29-.17,0-.75.28-.92l.24.22c.47-.3,1.11-.38,1.43-.92,0,0,0,.13,0,.19.23-.14,1-.38.67-.69.17.24.5-.3.67-.59l.08.2c.06-.37,0-.43.27-.7.09,0,.16.09,0,.11.29-.08.06-.29.4-.4l0,.18c.24-.16.18-.2.22-.42a.52.52,0,0,1,.63-.16.32.32,0,0,1,.17-.39.11.11,0,0,1,0,.15c.48-.18.45-.61.83-.66a.17.17,0,0,0,.12.06,2.4,2.4,0,0,1-.55.38c.12.16.39,0,.35.36.12-.26.26-.78.56-.91l.07,0v0a.26.26,0,0,0,.13-.14.84.84,0,0,0,.23-.12c.13.1.33-.16.46-.26-.14-.15,0-.25-.22-.27,0,0,0,0-.08.11s0,0,0,.06v0l-.3.26c0-.16.07-.31.28-.33l0-.4c.36.09.78-.05.94,0,.3-.39.82-.78.77-1.29.07-.13.2,0,.27,0s-.1.15-.09.22c.13-.26.56-.58.43-.82.33-.14,0,.31.34,0v.11c1-.31.61-1.54,1.72-1.87-.07,0-.11,0-.15,0a3.15,3.15,0,0,0,.67-.59c.2-.23.37-.45.64-.79l.35-.46a4.36,4.36,0,0,0-.2-.53,3,3,0,0,1-.25-1c-.05-.33-.23-.3-.43-.42l.18-.16-.38-.21c-.36-.36.18-1-.39-1.39l-.11.13c-.06-.21-.36-.6-.19-.64,0,0-.17,0-.13-.11l.1-.05-.4-.41c-.08-.42.46-.13.24-.7-.13-.19-.57-.45-.61-.34a.27.27,0,0,1-.08.3l-.14-.17c-.34.11-.73.1-.75.66l.34.24-.11.18-.13-.27c-.08.21.09.26.23.33a.28.28,0,0,0-.11.21l.44.18c-.11.1-.31,0-.29.21.21.09.22-.26.42-.06-.07.22-.21.23,0,.36-.07.06-.14,0-.21,0,.17.12.23.42.44.42-.11.24.28.53,0,.65a.92.92,0,0,1,.44.32c-.48-.11.22.57-.2.67.41.05.46.66.8.94,0,0-.11,0-.1-.07.06.21,0,.35-.07.36.28-.09.4,0,.65.14-.3.06-.41-.11-.71-.08a.51.51,0,0,1,.27.06.28.28,0,0,0,.18.1.51.51,0,0,1-.37-.07c.16.09.16.12.14.13s0,0,0,.16c-.33.1-.3-.17-.43.14C761.23,407.27,761.32,407,761.32,407Zm-5.16,5.59h0l.11-.11Zm-.5.4a.93.93,0,0,0,.22-.16c.07,0,.09.12,0,.15S755.77,413,755.66,413Zm2,.28c-.07.09-.12.08-.16.05l.13-.13v0A.49.49,0,0,1,757.64,413.25Z"/><path d="M757.61,412.91l0,0h-.08l0,.07Z"/><path d="M701.7,428.24h0s0,0,0,0A0,0,0,0,1,701.7,428.24Z"/><polygon points="748.03 417.53 748.05 417.58 748.08 417.51 748.03 417.53"/><path d="M698.19,427.29l0-.06A.15.15,0,0,0,698.19,427.29Z"/><path d="M696.67,427l-.21-.1Z"/><path d="M695.5,426.75a.41.41,0,0,0,0,.08h0Z"/><path d="M714.28,427.28h0C714.42,427.23,714.35,427.25,714.28,427.28Z"/><path d="M708.69,427.89l.18-.11C708.77,427.77,708.69,427.77,708.69,427.89Z"/><polygon points="720.45 426.42 720.45 426.42 720.48 426.42 720.45 426.42"/><path d="M709.13,427.78a.33.33,0,0,0-.26,0A.46.46,0,0,0,709.13,427.78Z"/><path d="M690.44,425.92l-.06,0a.1.1,0,0,1,0,0Z"/><path d="M690.37,425.93l-.07,0S690.36,426,690.37,425.93Z"/><path d="M690.16,426l.14,0A.13.13,0,0,0,690.16,426Z"/><path d="M692,426.24l0-.07A.15.15,0,0,0,692,426.24Z"/><path d="M692.45,426.28c-.11,0-.26-.2-.42-.17l0,.06C692.09,426.06,692.32,426.4,692.45,426.28Z"/><path d="M694.29,427.51l-.39-.12c.06.09.13.21,0,.2C694.32,427.91,693.77,427.4,694.29,427.51Z"/><path d="M695.51,427.8c-.22,0,0,.12,0,.16C695.63,427.91,695.66,427.9,695.51,427.8Z"/><path d="M704.51,428.58l0,.19C704.64,428.75,704.48,428.7,704.51,428.58Z"/><polygon points="706.26 427.7 706.1 427.57 706.02 427.74 706.26 427.7"/><polygon points="707.24 429.09 707.17 429.12 707.45 429.04 707.24 429.09"/><path d="M722.44,428.05l-.09-.22C722.25,427.89,722.26,428.16,722.44,428.05Z"/><path d="M728.85,426.59a.25.25,0,0,0,.38,0C729.08,426.59,728.92,426.55,728.85,426.59Z"/><polygon points="747.43 420.01 747.35 420.15 747.53 419.97 747.43 420.01"/><path d="M763.22,406.5a1.07,1.07,0,0,0-.09.16l.14-.21Z"/><path d="M763,406.92l.31-.47c-.13.2-.08.11-.24.35,0,0,0-.08.08-.15s0-.06-.07.07-.08.19,0,.06Z"/><path d="M763.44,407.63v0Z"/><path d="M763.76,408l0,0Z"/><path d="M763.68,408.25v0S763.67,408.27,763.68,408.25Z"/><path d="M763.44,407.63l0,.07C763.46,407.63,763.44,407.65,763.44,407.63Z"/><path d="M763.42,406.46l0,.05,0,0Z"/><path d="M763.17,407.7h0l-.06.09Z"/><path d="M763,407.65s.11-.17.16-.25l-.08.12A.74.74,0,0,0,763,407.65Z"/><path d="M763,407.21l0,0Z"/><path d="M763.24,407.79l0,.07A.43.43,0,0,1,763.24,407.79Z"/><path d="M767.7,408.66l0,0Z"/><path d="M767.3,409.64h0l-.07.1Z"/><path d="M763.66,408.56h0S763.65,408.57,763.66,408.56Z"/><path d="M764.84,409.1c.09-.17.15-.2.24-.39A3.93,3.93,0,0,0,764.84,409.1Z"/><path d="M763.41,406.48h0Z"/><path d="M765.08,408.71h0v0Z"/><path d="M764,408.62a.28.28,0,0,1,0-.08S764,408.58,764,408.62Z"/><path d="M764,408.23v0Z"/><path d="M764.26,408.43s0,0,0,0v0S764.25,408.46,764.26,408.43Z"/><path d="M764.37,408.49l0,0h0Z"/><path d="M767.31,408.54l-.1.17C767.29,408.58,767.33,408.54,767.31,408.54Z"/><path d="M763.36,406.56l0-.08h0Z"/><path d="M765.13,407v0S765.14,407,765.13,407Z"/><path d="M766.49,408.08l0,0Z"/><path d="M765.2,407.05l-.06.13,0,0Z"/><path d="M767.21,408.71Z"/><path d="M767.59,408.35s-.15.23-.24.36.1-.18.17-.3c0,0-.19.26-.2.25l.06-.1c-.12.18,0,0-.2.21l0-.06L767,409s-.11.14,0,0a.78.78,0,0,1,.08-.1L767,409a1.75,1.75,0,0,1,.15-.24c-.06.07-.19.24-.16.17.13-.22.07-.06.18-.26l0,.09c.2-.35,0,0,.21-.34,0-.08-.09.09-.08,0-.08.11-.11.18-.19.29s.31-.56.11-.28-.27.41-.2.25l.16-.24s-.23.35-.15.17.07-.07.08-.11c.1-.2-.1.14-.11.13l.13-.22s-.17.16-.22.18a1.32,1.32,0,0,0,.12-.2c-.1.09,0-.07,0-.22l-.13.18a.8.8,0,0,1,.08-.12c0-.08-.08.12-.13.19a.94.94,0,0,1,.1-.17c-.12.15-.28.3-.18.09l0-.06c0-.08-.26.38-.17.19l0,0c0-.11-.14,0,0-.27-.18.27,0-.14-.2.23a4,4,0,0,0,.18-.41s-.16.23-.19.26l.12-.19-.15.2.14-.25,0,.05-.08.15c-.07.08,0-.16.11-.26l-.14.14.1-.15c-.14.19.13-.21,0,0l-.1.16c.06-.12,0-.14,0-.1l.08-.13c0-.05-.1,0-.13,0a1.8,1.8,0,0,1-.19.32l.12-.21c-.09.12,0,.08-.15.23a2.35,2.35,0,0,1,.19-.3l-.06.06.11-.17c-.09.12.1-.23,0,0l0-.06s-.08,0-.12,0a2.43,2.43,0,0,1-.19.27c0-.07.08-.22.05-.22a2.71,2.71,0,0,0-.17.25c.1-.16.07-.16.15-.27s-.05,0-.17.12,0,.1-.09.16,0-.08.08-.16h0c-.19.22.21-.54,0-.21v0l-.14.16s.08-.12.13-.23c-.2.26,0-.07-.17.1.28-.5-.1,0,.06-.34l-.06.11c-.08.11,0-.07,0-.1s-.06.11-.1.17,0-.25,0-.4-.37.59-.23.29l.13-.2c-.2.22-.09-.07-.27.11,0,0,.07-.11.08-.1.08-.16,0,0-.11.09a1.26,1.26,0,0,1,.1-.18c0-.09-.15.18-.06,0a.15.15,0,0,1,0-.06c0,.07,0,0-.12.14,0-.09-.08.06,0-.06-.13.2,0-.11-.15.17.18-.29.11-.25,0-.12.06-.09,0-.1.12-.22s-.06,0-.15.19c.19-.36-.21.25,0-.2a1.44,1.44,0,0,1-.31.26c.18-.29.06,0,.24-.31-.1.1-.27.34-.26.25s.08-.12.11-.17c-.1.1,0-.07-.17.07l0-.07s0,0-.06.08l0,0a4.25,4.25,0,0,1-.33.48c.24-.37,0-.11.34-.58l-.12.17a.7.7,0,0,1,.11-.17c-.06,0-.14.2-.16.18l.11-.16c-.09.12-.17.24-.16.18l.06-.09s-.25.3-.2.17,0-.1.19-.34l-.06.06-.07.12s-.13.15-.09.07l.07-.09-.06,0,0,.1c-.09.11-.18.3-.16.22s0,0,.07-.16h0c0,.08-.11.15-.08.09s.16-.27.19-.32c-.13.2-.07,0-.21.24a1.67,1.67,0,0,0,.13-.2l-.11.16.1-.18s-.17.31-.12.16a.15.15,0,0,0,0-.06c0-.08-.1.08-.08,0,.15-.25.06,0,.18-.26-.06,0-.24.25-.24.18v0c-.21.33.08-.18,0,0l.09-.15c0-.07-.09.06-.19.14l.06-.08c0-.09,0-.07,0-.11a.87.87,0,0,0-.13.19c.26-.52-.24.22,0-.21l0-.08-.08.07a1.08,1.08,0,0,0-.11.21.69.69,0,0,1-.12.14,2.23,2.23,0,0,0,.19-.32l-.09.14c.15-.28-.18.29-.09.1l0-.07s-.1.13-.09.1.05-.07.14-.21-.22.31-.13.13l.08-.09c.11-.2.08-.15.09-.19h0l0-.1,0,.06c-.29.43-.08.06-.28.34a3.29,3.29,0,0,0,.22-.35l.09-.18c-.1.15.06-.13-.09.09a1.57,1.57,0,0,1,.09-.17,1.39,1.39,0,0,0-.11.19c-.15.2.11-.29-.1,0-.09.1-.23.31-.31.4a1.77,1.77,0,0,1,.14-.22c0-.1,0-.09,0,0s.06-.11.1-.18-.14.23-.1.13l.16-.25-.17.21c.06-.11.11-.16.15-.23a1.14,1.14,0,0,0-.2.25l0,.07a1.46,1.46,0,0,1,.11-.18c.1-.13,0,.07-.06.13l0,0c-.21.37.07,0,.07,0l-.17.26.16-.21-.16.26c-.07.13.06-.09,0,.06l0,0,.06-.08a1.5,1.5,0,0,1-.1.15c-.07.17.15-.18,0,0h0a4.15,4.15,0,0,0,.28-.41l-.28.49.12-.19s0,0,0,.1a2.26,2.26,0,0,0,.13-.2c-.09.18.09-.06-.09.25a1.27,1.27,0,0,1,.13-.22c-.2.34,0,0,0,.12a2.22,2.22,0,0,0-.15.23c.19-.29,0,.08,0,0,.14-.23.08-.08.14-.15a1,1,0,0,0-.07.24l0,0c.15-.23.14-.17.18-.22a3,3,0,0,1-.17.26h0a.38.38,0,0,1,.1-.13l-.11.17s.15-.18.1-.05c.1-.17.27-.47.35-.57a2.5,2.5,0,0,1-.17.28s0-.07,0,0l-.1.14c0,.07.08-.12.08-.1l-.11.19s0,0,0,0a.88.88,0,0,1-.09.21.9.9,0,0,1,.12-.18s-.09.15-.12.22,0,0,.13-.17l-.08.14c.06-.08.05,0,.17-.2v0h0c.14-.17,0,.14.06.08l0,.06c.06-.06.06,0,.15-.15a.87.87,0,0,1-.1.2s.08-.11,0,0-.06.1-.07.08-.07.17.05,0c-.1.16-.11.21-.08.17l.06-.12s0,0,0,0l-.13.21c-.13.28.33-.41.09,0,.1-.14,0-.12.16-.28a3.84,3.84,0,0,1-.17.35c0,.13.21-.3.18-.2a2.12,2.12,0,0,1,.23-.35,2.81,2.81,0,0,1-.23.39s0,0,0-.05a1.17,1.17,0,0,0-.09.14l0-.07a.6.6,0,0,1-.1.2.37.37,0,0,0,.1-.16c0,.12,0,0,0,.1l.08-.13c0,.11.1-.13.14-.15s-.17.27-.09.18a1.39,1.39,0,0,1-.17.27c.11-.14,0,.11,0,.15l0,.05s0,0,0,0l.09-.16-.05.1c.07-.1.15-.26.25-.39,0,.08.07-.07,0,.14,0-.09-.12.2-.16.22s0,0,0,0l0,.06c-.09.19.15-.23.17-.21a.79.79,0,0,0-.11.2,1.47,1.47,0,0,1,.17-.27c0,.09.06-.06.06,0l0,0a.33.33,0,0,1,.1-.12c-.05.08-.05.05-.07.09.14-.19-.1.22,0,.1,0,.08-.13.21-.15.27.1-.14-.08.17,0,.06a1.67,1.67,0,0,1,.17-.26l-.09.09.15-.21s-.08.08-.07.05a1.53,1.53,0,0,0,.14-.21c-.13.24.1-.12,0,.05l-.23.37c-.08.19.16-.17.13-.05l0-.08c.1-.14,0,0,.08-.06a1.76,1.76,0,0,0-.14.26c.05-.1,0,0,.17-.23l-.09.17c0,.08.25-.34.24-.29a2.54,2.54,0,0,1-.21.32s0,0,.06-.05c-.05.08.12-.16,0,0l.12-.17,0,.07c0-.07.06-.08.14-.22-.22.4.08,0-.11.36a.24.24,0,0,1,.11-.06l0,0c-.05.13.23-.35.18-.21a1.68,1.68,0,0,1-.12.19c-.25.42.06,0-.07.21l0,0c-.08.15.12-.14.12-.09a.3.3,0,0,0,0,.06,1.79,1.79,0,0,1,.26-.31c-.1.16-.06.08-.16.25,0,0,.16-.27.21-.3s-.09.18-.19.35h0c-.14.24,0,0,0,.05l-.07.1s.2-.27.22-.23l0-.08c.17-.24-.07.15,0,0l-.15.26a3.23,3.23,0,0,1,.23-.26,3.87,3.87,0,0,1-.28.36s0,0,.12-.12c0,0-.06.08,0,0s.21-.28.23-.26c-.31.49,0,.15-.25.54.14-.16,0,.12.07.11.22-.39,0,0,.26-.39,0,0,0,0,0,0L765,409a1.71,1.71,0,0,1-.11.17,2.34,2.34,0,0,1-.14.28c.08-.14.12-.19.1-.13l.1-.19c.15-.19-.18.34,0,.15l-.08.12c.06-.07.05,0,.26-.27l-.11.18c0,.06.28-.29.18-.08l-.06.09s.12-.17.07-.07l-.06.1s.12-.16.09-.09l-.07.1c0,.14.21-.23.28-.28a2.14,2.14,0,0,0-.22.44l0,0c0,.06.21-.19.31-.28-.16.32,0,.17-.07.37a1.2,1.2,0,0,1,.16-.25c0,.06.14-.18,0,.08h0c-.15.26-.09.2-.08.22l.21-.34c-.27.51.2-.12,0,.33.06-.08.07-.07.13-.15l-.11.18c0,.06,0,.09,0,.06l-.09.13s.34-.51.36-.51l-.16.27s-.08.27.09,0l-.08.13s-.06.21.16-.16c-.15.24,0,0,.1-.06l-.11.18c.15-.22.19-.28.24-.34s-.08.15-.06.1c0,.1.12-.16.08-.06l-.08.11s0,0,.13-.16,0,.06-.09.22c.06-.1.15-.22.13-.17l-.08.11c-.05.14.16-.18.07,0l-.06.11a0,0,0,0,1,0-.05,4.51,4.51,0,0,1-.25.43c.09-.12.28-.38.24-.29l0,.06v0s0,0,0,0,0,.05,0,.05,0,.09,0,.1c.11-.18.11-.15.19-.3l0,0v0h0c.06-.09.12-.16.06-.06l.19-.28c-.14.25-.2.4-.29.56a1.34,1.34,0,0,0,.32-.36,1.56,1.56,0,0,1-.09.15l-.05.08c.06-.08.06,0,.2-.25,0,.12-.14.21-.09.19l0,.07c-.18.41.45-.56.2,0a.9.9,0,0,1,.05-.09c-.08.25.24-.12.09.25,0,.08.07-.07.15-.18l-.11.2.15-.22c.12-.14-.25.5,0,.21l.08-.13s.08-.05,0,.09c0,0,.08-.13,0-.06l-.06.1.14-.15a3.83,3.83,0,0,0-.23.43,3.78,3.78,0,0,0,.25-.34s0-.07.08-.17l0-.05a7.74,7.74,0,0,0,.48-.82l-.13.17.08-.15h0c.08-.14,0,0-.06.06a1,1,0,0,0,.09-.16l-.19.27a2.06,2.06,0,0,0,.17-.3c-.08.13-.15.27-.21.35.07-.14.14-.25.06-.14l.1-.16c-.06.09-.05,0-.15.18.1-.17,0,0,.12-.26a1.21,1.21,0,0,1-.17.22c.22-.33,0,0,.21-.4-.2.3-.12.11-.25.27l0,0a1.54,1.54,0,0,1,.09-.19c-.16.25-.21.29-.31.44.13-.25.19-.29.32-.52-.12.2-.14.19-.24.36a2.77,2.77,0,0,1,.15-.29c-.19.31,0,.05-.16.23.08-.16.17-.29.1-.21A1.33,1.33,0,0,1,767.59,408.35Zm-.72.3Zm0,0h0l-.08.12S766.8,408.69,766.83,408.64Zm-.69,1.28s0,0,0-.05h0l0,0A.33.33,0,0,0,766.14,409.92Z"/><path d="M766.29,409.69h0l0,0,0,.06Z"/><path d="M763.46,407.6h0l0,0Z"/><polygon points="766.58 408.01 766.56 408.06 766.58 408.02 766.58 408.01"/><path d="M763.65,406.87l0-.05Z"/><path d="M763.6,406.78l0-.07Z"/><path d="M763.59,406.65a.56.56,0,0,1-.05.08h0Z"/><path d="M764.68,407h0S764.7,407,764.68,407Z"/><path d="M764.14,407.27l.06-.08S764.2,407.17,764.14,407.27Z"/><polygon points="765.13 407.01 765.13 407.01 765.13 407.01 765.13 407.01"/><path d="M764.21,407.21s0,0,0,0S764.19,407.23,764.21,407.21Z"/><path d="M763.38,406.41h0l0,0Z"/><path d="M763.36,406.43v0Z"/><path d="M763.31,406.49l0,0S763.34,406.44,763.31,406.49Z"/><path d="M763.41,406.54l0-.06Z"/><path d="M763.44,406.54s.07-.15,0-.11l0,.05C763.51,406.38,763.37,406.64,763.44,406.54Z"/><path d="M763.05,407.41v-.07a1,1,0,0,1-.11.18C762.85,407.74,763,407.36,763.05,407.41Z"/><path d="M763.05,407.55a.47.47,0,0,0-.08.14A.5.5,0,0,0,763.05,407.55Z"/><path d="M763.51,407.83l-.1.16A1.23,1.23,0,0,0,763.51,407.83Z"/><polygon points="764.12 407.03 764.17 406.93 764.07 407.07 764.12 407.03"/><polygon points="763.45 408.23 763.44 408.25 763.49 408.2 763.45 408.23"/><path d="M764.26,408.64l.12-.2S764.21,408.7,764.26,408.64Z"/><path d="M764.71,408.64c-.05.1-.08.17,0,.08S764.73,408.62,764.71,408.64Z"/><polygon points="765.51 409.57 765.46 409.64 765.51 409.59 765.51 409.57"/><g style="clip-path:url(#b94e6dbf-db7a-4840-87d2-242f54b66d59)"><path d="M599.27,613.43s21.24,13.93,29.2,8-.66-31.85-.66-31.85l5.3-2.66s10,18.59,18.58,18.59S661,575.6,661,575.6l6.63,2s-1.33,22.57,13.27,24.56,22.57-25.88,22.57-25.88l8,2s-8.63,24.55,4.64,31.19,29.2-24.56,29.2-24.56-10.62,26.55,3.32,31.19,26.54-19.9,26.54-19.9S750.57,574.94,748.58,573,666.29,557,663.64,557.69s-47.12,2.65-50.43,12.6S599.27,613.43,599.27,613.43Z" style="fill:#090d1c;opacity:0.31"/><path d="M583.88,576.91s-17.07,2.79-1.12,13.43c0,0-17.63,6.44-.28,10.08,0,0-15.11,9.24,1.68,12,0,0-14,14,4.2,10.36,0,0-10.07,16.52,7,8.12Z" style="fill:#090d1c;opacity:0.31"/></g><path d="M733.52,374.42s-.62-9.53,10.06-11.26c9.85-1.6,12.13,8.79,10.7,13.86s-6.68,6.34-10.4,6.41S733.74,381.46,733.52,374.42Z" style="fill:#fbfcfc"/><path d="M717.15,374s-.45-6.95,7.34-8.22c7.2-1.16,8.86,6.42,7.81,10.12s-4.87,4.63-7.59,4.68S717.31,379.18,717.15,374Z" style="fill:#fbfcfc"/><circle cx="748.41" cy="374.9" r="5.18" style="fill:#090d1c"/><circle cx="728.02" cy="374.38" r="3.78" style="fill:#090d1c"/><path d="M719.25,367.08s.48-4.69,6.75-4.69l-.69-2.52a7.69,7.69,0,0,0-7.86,5.11,2.35,2.35,0,0,0,.28,2.28C718.35,368.15,719.25,367.08,719.25,367.08Z" style="fill:#090d1c"/><path d="M748.15,358.26,749.2,355s9.12-1.34,10.74,8.71c0,0,.14,1.43-.74,1.6s-1.46.15-1.72-.14C757.48,365.18,757.3,357.39,748.15,358.26Z" style="fill:#090d1c"/><g style="opacity:0.61"><path d="M778.69,388.71a4.46,4.46,0,0,0-2.06,1.3,1.78,1.78,0,0,0,.07,2.33,2.19,2.19,0,0,0,2.7.34,2.53,2.53,0,0,0,1.4-2.45,1.38,1.38,0,0,0-2.28-.83.41.41,0,0,0,.06.56.42.42,0,0,0,.56-.07.26.26,0,0,1,.2-.07.77.77,0,0,1,.31.06.64.64,0,0,1,.37.53,1.79,1.79,0,0,1-1,1.6,1.4,1.4,0,0,1-1.72-.21,1,1,0,0,1-.26-.72,1.09,1.09,0,0,1,.3-.65,4,4,0,0,1,1.68-1c.47-.18.17-.91-.3-.73Z" style="fill:#dcf8fc"/><path d="M782.52,390.51a2.75,2.75,0,0,0-.95,1.45c-.15.56-.16,1.4.5,1.64a1.69,1.69,0,0,0,1.6-.33,1.4,1.4,0,0,0,.5-1.52,1.31,1.31,0,0,0-1.41-.93.4.4,0,0,0-.34.44.39.39,0,0,0,.44.34H783c-.1,0,0,0,0,0s.08,0,0,0,0,0,0,0l0,0,0,0s0,0,0,0a.73.73,0,0,0,.09.08s.06,0,0,0l0,0,.07.1s0,.07,0,0l0,.07s0,.09.05.13,0,0,0,.05,0,.14,0,0a.77.77,0,0,1,0,.15s0,.06,0,0,0,0,0,.06a.54.54,0,0,0,0,.11c0-.08,0,0,0,.05l0,.05s-.06.07,0,0l-.21.16c-.08.06.05,0,0,0l0,0-.14.06-.08,0s.07,0,0,0l-.13,0h-.29c-.06,0,0,0,0,0s-.09,0,0,0l-.06,0s0,0,0,0,0,.07,0,0,0-.07,0,0,0-.07,0-.11v-.08s0-.08,0,0a.76.76,0,0,0,0-.15,2,2,0,0,1,.06-.32s0-.07,0,0l0-.1.06-.15a1.3,1.3,0,0,1,.08-.17l0-.06s0,0,0,0a3.15,3.15,0,0,1,.22-.29.12.12,0,0,1,.05,0c0-.06,0,0,0,0l.14-.11a.41.41,0,0,0,.07-.56.4.4,0,0,0-.55-.07Z" style="fill:#dcf8fc"/><path d="M778.19,394a4.68,4.68,0,0,0-1.67,1.86,5.55,5.55,0,0,0-.24.56,1.71,1.71,0,0,0-.13.7c.08.52.69.63,1.12.69a2.93,2.93,0,0,0,2.27-.59,2,2,0,0,0,.65-1.91,1.71,1.71,0,0,0-1.53-1.47.39.39,0,1,0-.11.78.68.68,0,0,1,.2,0h.06c-.09,0,0,0,0,0s.16.08.08,0a1,1,0,0,1,.16.12s.08.08,0,0l0,.05.11.15s0,.08,0,0l0,.09a1.46,1.46,0,0,1,.07.19.19.19,0,0,1,0,.07c0,.1,0-.08,0,0l0,.17a1,1,0,0,1,0,.17v0s0,.08,0,.12,0,.06,0,.09,0,.12,0,0l-.06.16,0,.08s-.05.08,0,0a1.3,1.3,0,0,1-.15.2,1.53,1.53,0,0,1-.29.24,1.68,1.68,0,0,1-.38.19,2.47,2.47,0,0,1-.82.13,2.27,2.27,0,0,1-.43-.05l-.21,0-.07,0-.06,0s0,0,0,0,.07.09,0,.1,0-.08,0-.09a1,1,0,0,1,.07-.21,3.43,3.43,0,0,1,.19-.48,4,4,0,0,1,1.46-1.61.41.41,0,0,0,.07-.56.4.4,0,0,0-.55-.07Z" style="fill:#dcf8fc"/><path d="M773.16,390.85a2.18,2.18,0,0,0-.62,1.28,1.15,1.15,0,0,0,.22.78,1,1,0,0,0,.58.36,1.28,1.28,0,0,0,1.1-.26,1.23,1.23,0,0,0,.42-1.22,1.73,1.73,0,0,0-1-1.21.41.41,0,0,0-.52.21.4.4,0,0,0,.2.52l.06,0s.06.06,0,0l.1.07a.27.27,0,0,1,.08.07l.05,0,0,0,0,0a1.33,1.33,0,0,1,.14.19s0,.05,0,0,0,0,0,.06a.61.61,0,0,0,.05.12.11.11,0,0,0,0,.06s0-.1,0,0,0,.07,0,.1a.15.15,0,0,1,0,.07s0,.08,0,0a.62.62,0,0,1,0,.13v0c0,.08,0-.09,0,0a.36.36,0,0,1,0,.09s0,0,0,.05,0-.06,0,0l-.07.09s-.06,0,0,0l0,0a.18.18,0,0,1-.07.05c-.08.06.08,0,0,0l-.1,0-.06,0h-.24c-.07,0,.1,0,0,0h0l0,0s-.05-.05,0,0l-.08-.06c0-.05.05.07,0,0l0,0s0-.05,0-.05,0,.07,0,0l0-.06v0c0-.05,0,0,0,0s0-.09,0-.13,0,0,0,0,0-.06,0-.09,0-.1,0-.14,0,.06,0,0l0-.08c0-.05,0-.09.07-.14l0-.07c0-.08,0,.08,0,0l.09-.13a1.71,1.71,0,0,1,.21-.26.4.4,0,0,0-.07-.55.41.41,0,0,0-.56.06Z" style="fill:#dcf8fc"/><path d="M777.39,385.68a.8.8,0,0,0-.94.26,1.22,1.22,0,0,0-.26.84,1.55,1.55,0,0,0,.82,1.31,1.48,1.48,0,0,0,2.08-1.58,1.55,1.55,0,0,0-1.29-1.21.4.4,0,0,0-.45.34.41.41,0,0,0,.33.45l.14,0c.08,0-.06,0,0,0l.06,0s.1,0,.12.06-.08-.06,0,0l.07.05.06,0s0,0,0,0a.39.39,0,0,1,.08.1l.07.11s0-.09,0,0l0,.07s.06.12.05.13,0-.09,0,0,0,.06,0,.08v.08h0v0s0,.06,0,.08v0s0,0,0,0v0a.43.43,0,0,0,0,0l-.06.11c0,.06,0,0,0,0l0,.05-.09.11c0,.07.05,0,0,0l0,0-.11.08,0,0s.07,0,0,0l-.14.05-.06,0s.1,0,0,0l-.12,0h0l-.15,0c-.08,0,0,0,0,0l-.07,0-.11-.05s.08.05,0,0l0,0-.06-.05,0,0s0,0,0,0a.87.87,0,0,1-.08-.1l0,0,0,0s0,0,0,0,0,0,0,0a.84.84,0,0,1-.06-.14s0,.08,0,0,0-.06,0-.09a.66.66,0,0,0,0-.14s0,.08,0,0,0-.06,0-.09a.15.15,0,0,1,0-.07c0-.08,0,.08,0,0a.14.14,0,0,0,0-.06c.05-.09,0,0,0,0l0,0c.06-.07-.05,0,0,0l0,0h0s0,0,0,0h0c-.05,0-.06,0,0,0a.39.39,0,1,0,.31-.72Z" style="fill:#dcf8fc"/><path d="M773.54,394.3a2.2,2.2,0,0,0-.56,1.41,1.1,1.1,0,0,0,.87,1A1.13,1.13,0,0,0,775,396a1.74,1.74,0,0,0,.15-1.32,1.13,1.13,0,0,0-.39-.57.65.65,0,0,0-.82,0,.39.39,0,0,0-.08.55.42.42,0,0,0,.56.08c.08-.07-.07,0,0,0s-.11,0,0,0-.11,0-.05,0,0,0,0,0l0,0c.06,0-.07-.06,0,0l0,0s0-.07,0,0,0,0,0,0a.18.18,0,0,0,.05.07c-.05,0,0-.07,0,0l0,0a1.17,1.17,0,0,0,0,.11s0,.07,0,0v0a.28.28,0,0,1,0,.09s0,.09,0,0,0,0,0,0,0,.08,0,.12,0,.07,0,.1v.08h0v0l0,.05v0a.61.61,0,0,0-.05.12l0,.09c0,.07,0-.06,0,0l0,0-.06.07,0,0c0,.06.06-.06,0,0l-.08.06s0,0,0,0l0,0H774c.1,0-.06,0-.06,0s.1,0,0,0l-.05,0s0,0,0,0l0,0s0,0,0,0,.06.07,0,0l-.06-.08c.05,0,0,.06,0,0a.05.05,0,0,1,0,0s0,0,0-.05,0-.06,0,0a.5.5,0,0,0,0-.12v-.05c0-.08,0,.1,0,0s0-.08,0-.13,0,0,0-.05,0,.05,0,0v0l.06-.14.07-.13c.05-.09,0,.05,0,0a.21.21,0,0,0,0-.06l.2-.27a.4.4,0,0,0-.63-.49Z" style="fill:#dcf8fc"/><path d="M783,395.52a1,1,0,0,0-1.09.7,1.13,1.13,0,0,0,0,.75.94.94,0,0,0,.47.55,1.25,1.25,0,0,0,1.3-.16,1.27,1.27,0,0,0,.41-.53,1.31,1.31,0,0,0,0-.83,1.57,1.57,0,0,0-1.27-1.05.4.4,0,0,0-.12.79l.14,0c-.06,0-.07,0,0,0l0,0,.13.05h0l.08.05.09.07s.05.08,0,0l.05.06.07.09,0,.05c0,.07,0-.08,0,0a.37.37,0,0,1,0,.11s0,0,0,.06,0-.06,0,0,0,.09,0,.13v0s0,.05,0,.08,0,0,0,.06,0-.08,0,0,0,.07,0,.1-.05.06,0,0l0,0a.39.39,0,0,1-.08.1c0-.07.06-.05,0,0l0,0-.09.06s-.07,0,0,0l-.05,0-.1.05H783c.12,0,.07,0,0,0l-.09,0h-.06c.11,0,.08,0,0,0l-.11,0c-.07,0,.08,0,0,0h0l0,0c-.06,0,.08.06,0,0l-.07-.06c.08.06.05.05,0,0l0,0c.06.07,0,.06,0,0s0,0,0-.05,0,.09,0,0a.06.06,0,0,1,0,0c0-.05,0-.16,0,0a.37.37,0,0,1,0-.11s0,0,0-.06v0l.06-.12v0c0,.11,0,0,0,0l0,0,0,0,.09-.07,0,0,.06,0h.06a.39.39,0,0,0,.44-.34.4.4,0,0,0-.33-.45Z" style="fill:#dcf8fc"/><path d="M786.9,393.15a5,5,0,0,0-1.8,1.88c-.42.76-.87,2,.08,2.56a2.22,2.22,0,0,0,2.51-.34,3.1,3.1,0,0,0,.95-2.56,1.87,1.87,0,0,0-.63-1.38,1.22,1.22,0,0,0-1.45-.09.4.4,0,0,0-.08.55.41.41,0,0,0,.55.08.48.48,0,0,1,.56.14,1.34,1.34,0,0,1,.27.89,2.24,2.24,0,0,1-.63,1.72,1.48,1.48,0,0,1-1.65.32c-.28-.16-.18-.49-.1-.75a4.26,4.26,0,0,1,.38-.88,4.15,4.15,0,0,1,1.52-1.51.4.4,0,0,0-.48-.63Z" style="fill:#dcf8fc"/><path d="M778.32,399.31a.87.87,0,0,0-.05,1.24,1.13,1.13,0,0,0,.6.38,1.16,1.16,0,0,0,.73-.09,2.26,2.26,0,0,0,.65-.5,3.26,3.26,0,0,0,.43-.55,1,1,0,0,0,.15-.89.93.93,0,0,0-.57-.53,1.17,1.17,0,0,0-.9.05,3.1,3.1,0,0,0-.75.6.39.39,0,0,0,.06.55.41.41,0,0,0,.56-.07c0-.05,0,0,0,0l.06-.06.09-.09.23-.18s.09,0,0,0l.06,0,.12,0c.08,0,0,0,0,0h.1c.08,0-.09,0,0,0l.1,0h0l.06,0s.05,0,0,0h0l0,0h0s0,.06,0,0,0,0,0,0,0,0,0,0,0,0,0,.05,0-.1,0,0,0,.07,0,0,0,.1-.06.14,0,0,0,0l-.08.11-.18.22-.09.1,0,.05,0,0,0,0-.05,0-.12.1s-.11.09,0,0a.39.39,0,0,1-.11.06l0,0c-.08,0,0,0,0,0l-.14,0H779s.08,0,0,0l-.08,0c-.05,0,.08.06,0,0l0,0,0,0c-.06-.05,0,0,0,0l-.06-.08,0,0c-.05-.07,0,.08,0,0a.36.36,0,0,1,0-.09c.05.09,0,.07,0,0v-.06s0,0,0,.05v-.05s0,.1,0,0h0c0,.06,0,0,0,0s-.08.07,0,0a.4.4,0,1,0-.48-.63Z" style="fill:#dcf8fc"/><path d="M784.71,387.29a1,1,0,0,0-.49,1.23,1.05,1.05,0,0,0,1.15.67,1.28,1.28,0,0,0,1.07-.91,1.82,1.82,0,0,0,.06-.77,1.21,1.21,0,0,0,0-.18.44.44,0,0,0-.07-.19.5.5,0,0,0-.19-.13.72.72,0,0,0-.32-.08,1.18,1.18,0,0,0-.77.24,1.06,1.06,0,0,0-.4.68.39.39,0,0,0,.78.11v-.07s0,.1,0,.05,0,0,0,0,0-.09,0,0,0,0,0,0l.05-.06,0,0,0,0,.06,0,0,0,0,0,.13,0s-.1,0,0,0h.14s-.11,0-.05,0h.1s-.08,0,0,0l.07,0-.21-.22v0s0,0,0,.08a1.23,1.23,0,0,1,0,.19v0s0,.06,0,.09,0,.05,0,.08v0c0,.08,0-.08,0,0l-.06.16,0,0c0-.07,0-.06,0,0l-.06.09-.06.06c.08-.09,0,0,0,0l-.06.05,0,0c.09-.07.05,0,0,0l-.15.06c.12,0,0,0,0,0h-.2s-.05,0,0,0l-.09,0,0,0s.09.06,0,0l-.06,0s.07.08,0,0l0-.06s0,.1,0,0v0l0-.06c0-.06,0,.11,0,0a.17.17,0,0,1,0-.07v0c0-.06,0,0,0,.05v-.08s0-.11,0,0a.64.64,0,0,1,0-.07l0,0s-.06.09,0,0l0-.06,0,0,0,0,0,0s-.11.05,0,0a.41.41,0,0,0,.21-.52.39.39,0,0,0-.52-.21Z" style="fill:#dcf8fc"/><path d="M774.83,398.25a1.47,1.47,0,0,0-1.32,1.26,1.52,1.52,0,0,0,.84,1.68,2,2,0,0,0,1.89-.05.61.61,0,0,0,.32-.27,1.35,1.35,0,0,0,0-.45l0-.65a3.37,3.37,0,0,0-.16-1.18,1.17,1.17,0,0,0-.94-.76.89.89,0,0,0-1,.54.39.39,0,1,0,.72.32l0-.07v0l0,0h0c.06-.05-.07,0,0,0l.07,0s-.08,0,0,0h.08s-.1,0,0,0h.08s-.08,0,0,0l.07,0h0s.08.07,0,0,0,0,0,.06l0,0s0,0,0,0l0,.1,0,.08c0,.09,0,0,0,0l0,.23c0,.15,0,.3,0,.46l0,1.07.15-.36s-.1.06-.05,0l-.06,0-.23.08,0,0c-.05,0,.07,0,0,0l-.1,0-.22,0c-.11,0,0,0,0,0h-.12l-.22,0h0l-.06,0-.09,0-.09,0,0,0h0l-.17-.13s0,0,0,0l0,0a.36.36,0,0,1-.07-.1l0,0s0,.06,0,0,0-.05,0-.08,0-.07,0-.1,0,.08,0,0,0,0,0-.07a.34.34,0,0,1,0-.1v0s0-.17,0-.21,0-.1,0,0l0-.1,0-.09,0-.05s.05-.07,0,0,0,0,0,0a.21.21,0,0,1,0-.06l.07-.08s.05,0,0,0,0,0,0,0l.09-.07h0l0,0,.1,0h.17a.39.39,0,0,0,.34-.44.41.41,0,0,0-.44-.35Z" style="fill:#dcf8fc"/><path d="M782.42,399.75a2,2,0,0,0-.85,1.57,1.29,1.29,0,0,0,1.28,1.06,2.9,2.9,0,0,0,1.78-.79,1.81,1.81,0,0,0,.57-.69,1,1,0,0,0-.15-1,1.33,1.33,0,0,0-.91-.54,3,3,0,0,0-1.26.15.39.39,0,0,0,.3.73,3.2,3.2,0,0,1,.69-.11.68.68,0,0,1,.49.16s0,.05,0,0,0,0,0,0l0,.05s0-.05,0,0,0,0,0,.05,0,.05,0,0,0,.05,0,.08,0,0,0,0a.3.3,0,0,1,0,.08s0,0,0,.05a1.2,1.2,0,0,1-.2.18,2.65,2.65,0,0,1-1.14.66h-.22a.57.57,0,0,1-.22-.07l-.05,0c-.06,0,0,0,0,0l-.1-.08s0,0,0-.05,0,0,0,0l0-.07c0,.06,0,0,0,0a.19.19,0,0,0,0-.08c0,.06,0,0,0,0s0-.06,0-.1h0l0-.09,0-.06,0,0a2.71,2.71,0,0,1,.44-.5.4.4,0,1,0-.48-.63Z" style="fill:#dcf8fc"/></g><path d="M803.85,474.49c-.25-.37-.33-1-.9-1s-.62.75-.76,1.22a11,11,0,0,1-4.12,6.19c-1.48,1.06-3.08,1.88-5,1.3a2.17,2.17,0,0,1-1.26-.13c-2.57-.71-4.3-2.53-5.92-4.51-.18-.21-.3-.59-.65-.54s-.44.48-.49.8a17.16,17.16,0,0,1-1.33,4.28,8.71,8.71,0,0,1-3,3.86v0a3.65,3.65,0,0,1-.68.45.45.45,0,0,0,0,.11v0l.22.19a2.67,2.67,0,0,1,.5-.17.62.62,0,0,1,.25-.26,11.65,11.65,0,0,0,4-4.87,1.07,1.07,0,0,0,.46-.6c.54-1.21.54-1.2,1.57-.39a10.93,10.93,0,0,0,8.6,2.62c1.81-.26,3.61-.78,4.7-2.51a17.74,17.74,0,0,0,3-5c4.56,5.07,9,6.73,11.88,4.55C810,480.71,806.52,478.45,803.85,474.49Z" style="fill:#def9fc"/><path d="M787.67,454.41c-1.14,6.92-5.45,8.88-8.94,7.92,5.51-.5,7.41-4.36,8.66-9.05a16.21,16.21,0,0,0,3.44,3.39,6.67,6.67,0,0,0,8.52-1.37,12.08,12.08,0,0,0,2.21-4c.13-.39,0-1,.58-1s.71.46.9.81a12.49,12.49,0,0,0,5.46,5.11,8.28,8.28,0,0,1-5.38-3.26c-.19-.22-.27-.59-.63-.55s-.29.38-.38.61c-2.51,6.17-8.14,7.4-13.07,2.85C788.6,455.38,788.19,454.94,787.67,454.41Z" style="fill:#dcf8fc"/><path d="M815.07,494.94l-1.16-1.45c-1.49,4.29-3.44,8.05-8.17,9.07s-8.13-1.41-11.22-4.94a16.44,16.44,0,0,1-3.28,7.11,9.09,9.09,0,0,1-7.07,3.26,19.64,19.64,0,0,0,3.32-1.14c3.63-2,5.23-5.28,6-9.12.07-.33.08-.68.16-1s0-.64.4-.74.63.2.82.48a13.19,13.19,0,0,0,2.65,2.78c4.9,4,11.4,2.91,14.55-3.21a27.76,27.76,0,0,0,1.23-3.1c.13-.35.26-.64.68-.68.4.72.81,1.43,1.21,2.14C815.44,494.65,815.5,494.86,815.07,494.94Z" style="fill:#e4fbfd"/><path d="M812.05,520c-.25-.37-.33-1-.91-1s-.61.75-.75,1.21a11,11,0,0,1-4.12,6.2c-1.49,1-3.08,1.88-5,1.3a2.17,2.17,0,0,1-1.26-.13c-2.57-.72-4.3-2.53-5.92-4.51-.18-.22-.3-.59-.65-.54s-.44.48-.5.8a16.73,16.73,0,0,1-1.32,4.28,8.89,8.89,0,0,1-3,3.86v0a3.25,3.25,0,0,1-.68.46.41.41,0,0,0,0,.11v0l.22.19a2.67,2.67,0,0,1,.5-.17.7.7,0,0,1,.25-.27,11.62,11.62,0,0,0,4-4.86,1.1,1.1,0,0,0,.46-.6c.54-1.21.54-1.2,1.57-.39a11,11,0,0,0,8.6,2.62c1.81-.27,3.61-.79,4.7-2.52a17.61,17.61,0,0,0,3-5c4.56,5.07,9,6.74,11.88,4.56C818.23,526.21,814.72,524,812.05,520Z" style="fill:#def9fc"/><path d="M823.42,539.9l-1.21-2.14c-.42,0-.55.33-.68.67a27.92,27.92,0,0,1-1.23,3.11c-3.15,6.12-9.65,7.2-14.55,3.21A13.19,13.19,0,0,1,803.1,542c-.19-.28-.4-.6-.82-.49a.4.4,0,0,0-.29.27h0q.18.38.33.78l0,.08c.11.27.2.54.29.82h0c0-.1.05-.2.08-.3,3.09,3.52,6.47,6,11.22,4.93s6.68-4.77,8.17-9.07c.47.6.82,1,1.16,1.45C823.7,540.37,823.64,540.15,823.42,539.9Z" style="fill:#e4fbfd"/><path d="M686.13,720.87c0,2.65-.22,40.09-.22,40.09s.44,14.38-9.74,16.15-15.26-4.42-15.92-5.09-5.09-7.74-4.87-17-.88-35.89-.88-35.89Z" style="fill:#e53942"/><path d="M794.09,708.47s-2.45,42.82-2.67,45.47,2,21.46-6.64,22.56a111.6,111.6,0,0,1-12.39,1.11s-6,.22-6.19-7.52-4.3-53.48-4.3-53.48Z" style="fill:#e53942"/><g style="mix-blend-mode:multiply"><path d="M643.39,616.78s10.94-10.32,22.5-7.22,11.56,7.22,12.18,8.87,2.68,16.3-.21,21.46-8.46,10.11-18.16,6-9.7-5.16-13.62-7.85S635.55,626.48,643.39,616.78Z" style="fill:#b4b3bb"/><path d="M694.37,660.12s7.84-3.51,10.32,2.89,3.09,12.17-3.3,12.17-10.32-4.13-10.53-6.6S693.34,660.74,694.37,660.12Z" style="fill:#b4b3bb"/><path d="M800.88,579.49s7.84-3.51,10.31,2.89,3.1,12.18-3.3,12.18-10.32-4.13-10.52-6.61S799.84,580.11,800.88,579.49Z" style="fill:#b4b3bb"/><path d="M655.57,672.5s10.73,0,11.76,7.84-4.12,12.38-6,12.59-11.15.41-13-4.13a13.8,13.8,0,0,1-.21-10.73C649.17,675.18,652.68,673.12,655.57,672.5Z" style="fill:#b4b3bb"/><path d="M688.38,615.75s1.86-5.58,5.78-3.92,5.16,5.15,4.54,6.81-2.89,5.36-5.57,5.36S688,621.73,688.38,615.75Z" style="fill:#b4b3bb"/><path d="M749.26,661.15s9.29-9.29,20.44-4.34S780,664,782.49,666.93s6,11.55-.62,14.24-11.56,8.05-24.35,2.06S746.17,667.34,749.26,661.15Z" style="fill:#b4b3bb"/><path d="M718.31,697.68s4.54-3.72,7.22.62,4.13,7.43.83,8-8.67,1.24-9.7-2.27S718.31,697.68,718.31,697.68Z" style="fill:#b4b3bb"/><path d="M809.88,611.08s4.54-3.72,7.23.62,4.12,7.43.82,8-8.66,1.23-9.7-2.27S809.88,611.08,809.88,611.08Z" style="fill:#b4b3bb"/><path d="M607.49,677.45s.82-5.36,6.19-2.89,5.57,4.75,3.92,6-8.26,3.09-9.5,1.44S607.49,677.45,607.49,677.45Z" style="fill:#b4b3bb"/><path d="M589.32,642.16s4.34-2.27,6.4,1,3.1,6.4,1.24,8.26-6.19-.62-7.22-1.45S587.05,645.67,589.32,642.16Z" style="fill:#b4b3bb"/><path d="M625.23,655s4.34-1.45,4.75.82.62,6.61-2.27,6.61S624.2,657.64,625.23,655Z" style="fill:#b4b3bb"/><path d="M739.15,623s1.24-6.81,4.75-3.92,5.78,5,4.54,7.22-3.72,4.54-6.4,3.1S739.15,623,739.15,623Z" style="fill:#b4b3bb"/><path d="M781.53,629.62s2.69-3.3,4.34-1.44,2.27,4.33.2,5.16S780.91,633.34,781.53,629.62Z" style="fill:#b4b3bb"/><path d="M680.54,708.61s2.27-6.19,6.81-4.12,1.45,8.66.41,9.08-4.33,1-6-.62S679.72,711.71,680.54,708.61Z" style="fill:#b4b3bb"/><path d="M772.17,699.12c.83-.2,3.92-3.51,5.78-.41s1.45,6.81-1.24,7-7.43-1.45-6.6-3.31A15.18,15.18,0,0,1,772.17,699.12Z" style="fill:#b4b3bb"/></g><path d="M682.49,430.82s-6.33-12-14.46-8.13,9.64,8.59,9.64,8.59A12.59,12.59,0,0,0,682.49,430.82Z" style="fill:#c0d181"/><path d="M657.22,450s-17.31-2.11-15.35,3.77S656,451.78,657.22,450Z" style="fill:#b4b3bb"/><path d="M666,440.49s-9.78-5.27-11-.15S666,440.49,666,440.49Z" style="fill:#b4b3bb"/><path d="M671.68,436.27s-8,17.62,0,18.22S671.68,436.27,671.68,436.27Z" style="fill:#12555d"/><path d="M676,433.7s-14.3-9.79-17.16-2S673.47,436.56,676,433.7Z" style="fill:#12555d"/><path d="M659.62,447.12s-23.94-5-21.38,6.33S657.36,450.59,659.62,447.12Z" style="fill:#12555d"/><path d="M655,452.88s-22.27,4.66-17.34,14.74S655,452.88,655,452.88Z" style="fill:#c0d181"/><path d="M656.77,451.93s-7.38,12.95-.9,14.3S656.77,451.93,656.77,451.93Z" style="fill:#12555d"/><path d="M660.11,448.73S645.86,444.39,646,451,660.11,448.73,660.11,448.73Z" style="fill:#c0d181"/><path d="M670.42,439.12s-21.23-6-22.89-.3,4.07,7.52,7.83,7.22S668.31,442.13,670.42,439.12Z" style="fill:#c0d181"/><path d="M669,437.48s-14.61,19.57-5.27,24.84S669,437.48,669,437.48Z" style="fill:#c0d181"/><path d="M689.41,428.21s-15.78-10-17.58-4.73S689.41,428.21,689.41,428.21Z" style="fill:#12555d"/><path d="M683.72,429.2s9.79,13.7-.75,18.66S683.72,429.2,683.72,429.2Z" style="fill:#12555d"/><path d="M677.85,431.61s-10.69,13.7,1,17.91S677.85,431.61,677.85,431.61Z" style="fill:#c0d181"/><path d="M652.71,458s-8.43,8-3.92,10.84S652.71,458,652.71,458Z" style="fill:#12555d"/><path d="M662.19,444.85s-6.47,9.79-1.35,11.3S662.19,444.85,662.19,444.85Z" style="fill:#12555d"/><path d="M667.29,439.52s-10.24-5.73-11.36-.51S667.29,439.52,667.29,439.52Z" style="fill:#12555d"/><path d="M689.19,425.63s-33.85,14.93-38,35.34c0,0,8.73-21.06,38.21-32.76Z" style="fill:#12555d"/></g><g id="a9003a64-048d-4b11-b80e-ef76be807d75" data-name="Layer 13"><path d="M1135.05,531.67c-.16.22-.31.41-.44.57C1134.74,532.08,1134.89,531.89,1135.05,531.67Z" style="fill:#fdfffe"/><path d="M1134.49,532.38l-.23.26Z" style="fill:#fdfffe"/><path d="M1134.15,532.74a.91.91,0,0,1-.16.13A.91.91,0,0,0,1134.15,532.74Z" style="fill:#fdfffe"/><path d="M1133.91,532.9s-.06,0-.09,0h0A.24.24,0,0,0,1133.91,532.9Z" style="fill:#fdfffe"/><path d="M1103.55,502.87l.52.74-1.31.05C1103,503.4,1103.3,503.14,1103.55,502.87Z" style="fill:#fdfffe"/><path d="M570,343.41s8.76.64,9.82,8.54-2.56,12.39-2.35,14.32c0,0-4.48-2.57-4.27-6a39.11,39.11,0,0,1-2.56,3.85c-.64.64-.64-2.56-1.93-3.42s-3.84-7.9-2.13-13S570,343.41,570,343.41Z" style="fill:#f64523"/><path d="M572.92,350.25s3.81-1.41,4.72,1.74.25,4.65-.58,4.81-5,1.49-5.8-1S570.51,350.83,572.92,350.25Z" style="fill:#ffc82d"/><path d="M571.94,338.92s7-5.34,10.85-2.61,2.82,6.56,1.41,7.05-8.13,1.58-11.78-1.57C572.42,341.79,570.05,340.45,571.94,338.92Z" style="fill:#f64523"/><path d="M579.63,337.14s2.82-.91,3,1-.66,3-2,2.74A2.13,2.13,0,0,1,579.63,337.14Z" style="fill:#ffc82d"/><path d="M567,340.71s-3.87-7.88-11.6-5.91-10.54,7-12.4,7.54c0,0,4.06,3.2,7.15,1.72a39.57,39.57,0,0,0-2.61,3.82c-.35.83,2.62-.37,3.89.5s8.77.61,12.89-2.9S567,340.71,567,340.71Z" style="fill:#f64523"/><path d="M559.57,340.59s-.12-4.07-3.39-3.74-4.4,1.51-4.24,2.34.48,5.18,3.1,5S559.93,343,559.57,340.59Z" style="fill:#ffc82d"/><path d="M570.44,337.25s2.32-8.52-1.64-11-7.14-.17-7.07,1.33,1.58,8.13,5.87,10.33C567.6,337.88,569.73,339.57,570.44,337.25Z" style="fill:#f64523"/><path d="M569.21,329.45s-.21-3-2-2.4-2.52,1.74-1.8,2.87A2.13,2.13,0,0,0,569.21,329.45Z" style="fill:#ffc82d"/><path d="M567.22,338s2.35-5.56,6.19-3.85-1.92,12-4.7,14.75-6.19,3.41-7.26,2.13S561.87,343.16,567.22,338Z" style="fill:#55464d"/><path d="M573.78,335.44c2.19-2.63,4.46-5.16,7.84-6.21a9.66,9.66,0,0,1,5.1-.46,2.73,2.73,0,0,1,1.78,1.28,1.53,1.53,0,0,1-.41,2l.69.18c-.12-.16,0-.25.14-.27.63-.09.36-1.05-.27-1a1.14,1.14,0,0,0-.74,1.74.52.52,0,0,0,.69.18,2.66,2.66,0,0,0,.15-4.16c-1.48-1.38-3.68-1.24-5.52-.93a13.22,13.22,0,0,0-5.71,2.37,27.31,27.31,0,0,0-4.45,4.54c-.41.49.29,1.2.71.71Z" style="fill:#55464d"/><path d="M575.17,333.84c3-2.45,3.54-6.71,3.11-10.36-.21-1.74-.83-3.6-2.5-4.46-1.24-.64-3.47-.51-3.63,1.26-.15,1.61,1.87,3.3,3.26,2.07a.5.5,0,0,0,0-.71l-.56-.46c-.49-.4-1.2.3-.7.71l.55.46v-.71c-.63.56-1.51-.51-1.55-1.09-.08-1,1.24-1,1.9-.77,1.7.65,2.14,2.63,2.28,4.24.28,3.27-.15,6.92-2.87,9.11-.5.4.21,1.1.71.71Z" style="fill:#55464d"/></g><g id="a60cf729-24b1-4669-8076-58bafd6f8e94" data-name="Layer 17"><g style="opacity:0.30000000000000004"><path d="M1050.17,377.32q-14.25.48-30.88,1.92a378.64,378.64,0,0,0,3.84-43.37,197.85,197.85,0,0,0-21.6-.47q1.11,30.56,5.12,46.88a258.14,258.14,0,0,0-31.36-.8q4.63-19.85,4.64-58.57,0-33.59-3.36-50.88,14.55-.46,27.68.33-2.57,17.59-2.88,47,8.19-.33,21.76-1.76a470.11,470.11,0,0,0-1.92-52.16,248.38,248.38,0,0,0,27.68,1.43q-4.32,22.24-4.32,53.93Q1044.57,356.36,1050.17,377.32Z" style="stroke:#000;stroke-miterlimit:10;stroke-width:38px"/><path d="M1119,346.76q-.17,16-9,24.48-7.37,7-18.56,7.83a29.53,29.53,0,0,1-19.84-5.43q-10.24-7.2-13.76-21.44a48.76,48.76,0,0,1-1.6-12.48q0-14.25,7.2-24a25.08,25.08,0,0,1,20.8-10.73q15-.15,23.2,10.41,7,9.6,7.84,26.24-6.57.15-12.8.64a226.32,226.32,0,0,0-26.4,3,33.61,33.61,0,0,0,3.28,12.88q2.64,5,6.48,4.71,5.28-.46,5.28-8.8a21.23,21.23,0,0,0-.48-4.47Q1098,348.67,1119,346.76Zm-25.92-14.08q-1.77-12.48-9.12-11.36-5.76.8-7.68,13A115.24,115.24,0,0,0,1093.05,332.68Z" style="stroke:#000;stroke-miterlimit:10;stroke-width:38px"/><path d="M1181.37,379.4a134.16,134.16,0,0,0-19.2.8c.21-1,.47-2.51.79-4.64a30.42,30.42,0,0,1-13,4.64q-8.48,1-16.79-4.33-9.45-6.08-9.61-16a21.21,21.21,0,0,1,8.48-17.92,29.17,29.17,0,0,1,18.09-6.08,25.32,25.32,0,0,1,14.08,3.69q-1.93-17.61-8.33-17.61c-1.38,0-2.53.94-3.43,2.81a12.11,12.11,0,0,0-.89,6.8,85.92,85.92,0,0,0-23.19,2.88,28.53,28.53,0,0,1-.65-5.92,25,25,0,0,1,6.32-17.2q6.33-7.12,16.72-7.12a33.93,33.93,0,0,1,13.12,2.87q17.92,7.37,17.92,38.25,0,4.95-.47,14.08t-.49,12.8A45.57,45.57,0,0,0,1181.37,379.4Zm-24.81-29.12a13.4,13.4,0,0,0-7.35,2.24c-2.57,1.81-3.84,3.89-3.84,6.24q0,6.08,7.51,6.08a12,12,0,0,0,7.45-2.81,8.23,8.23,0,0,0,3.59-6.63Q1163.92,350.27,1156.56,350.28Z" style="stroke:#000;stroke-miterlimit:10;stroke-width:38px"/><path d="M1216.56,378.44q-12.32.94-27.36,2.24,3.69-21.45,3.68-53.44,0-41.61-5.12-69.6,7.2-.64,25.28-4.49-1.27,14.25-1.28,37.92Q1211.76,346.27,1216.56,378.44Z" style="stroke:#000;stroke-miterlimit:10;stroke-width:38px"/><path d="M1273,351.56q-1.61,14.07-8.16,21.59a19.75,19.75,0,0,1-15.2,6.88,27.74,27.74,0,0,1-4.16-.31q-19.85-3.66-19.84-40.42a157.58,157.58,0,0,1,1-16.86h-5.92c.21-4.49.64-9.12,1.28-13.92l6.72-.32a226.78,226.78,0,0,1,5.44-23.05q10.08.17,21.92.65a150,150,0,0,0-6.72,21.27l15.84-.79a104.27,104.27,0,0,0-1.76,17.59c-4.69-.6-10.45-1.09-17.28-1.43a132.86,132.86,0,0,0-2.08,22.2q0,13.17,3.2,14.43c1.71.65,3-.58,4-3.67a38.51,38.51,0,0,0,1.28-12Q1262.48,346.76,1273,351.56Z" style="stroke:#000;stroke-miterlimit:10;stroke-width:38px"/><path d="M1334.32,380.2a155.62,155.62,0,0,0-24.48-3.84A85.25,85.25,0,0,0,1315,348q0-17.75-6.4-19.51a5.44,5.44,0,0,0-1.76-.32q-3.84,0-7.52,4.95,0,29,2.24,45.29a157.43,157.43,0,0,0-21.76,1.76q1.11-16.49,1.12-39.05,0-48.47-3.84-82.55,11.84-2.57,26.56-5.28-3,23.67-4,61.28a23.31,23.31,0,0,1,15.36-5.76q23.83,0,23.84,36.48Q1338.8,360.52,1334.32,380.2Z" style="stroke:#000;stroke-miterlimit:10;stroke-width:38px"/><path d="M1407.92,306.6q-4.32,11.36-12.48,38.55-8.64,29.61-13.12,42.25-8,22.56-15.68,33.92-10.25-7.36-21.76-16.17,13.11-14.23,22.88-36.63a622.89,622.89,0,0,1-25.6-56.8q6.24-1.12,24.8-2.57,1,5.93,2.24,11.53a166.89,166.89,0,0,0,7.36,24.16,194.31,194.31,0,0,0,8.48-42.08Z" style="stroke:#000;stroke-miterlimit:10;stroke-width:38px"/><path d="M1124.17,446q-.81,7.36-1.92,30.24a78,78,0,0,0-24.32-3.52,61.84,61.84,0,0,0-10.4.8q-.16,5.44.48,22.08,5.91-1,20.16-4l.32,19.52a100.83,100.83,0,0,0-19.36-.32q1.75,22.41,5.44,43.84a159.54,159.54,0,0,0-27.36,4.16q.63-13.92.64-29.44,0-44.64-4.8-77.12,12.15-.8,31-2.88Q1116.49,446.63,1124.17,446Z" style="stroke:#000;stroke-miterlimit:10;stroke-width:38px"/><path d="M1184.48,521.66q.81,15-5.76,25-7,10.41-20.16,11.36a26.08,26.08,0,0,1-16.32-4.16q-9.43-6.08-12.16-19.2a48.93,48.93,0,0,1-1.12-10.4q0-15.36,7.36-26.56,7.85-11.84,20-12,11-.15,19,9.6Q1183.52,505.51,1184.48,521.66Zm-18.56,3.6q-.63-7.39-3.44-11.89t-6.48-4.19q-4.32.33-7,5.47a25.72,25.72,0,0,0-2.64,11.9,33.54,33.54,0,0,0,.32,4.66q2.08,12.38,10.08,11.57,4.65-.48,7.12-5.62A23.14,23.14,0,0,0,1165.92,525.26Z" style="stroke:#000;stroke-miterlimit:10;stroke-width:38px"/><path d="M1245,521.66q.81,15-5.76,25Q1232.17,557,1219,558a26.08,26.08,0,0,1-16.32-4.16q-9.43-6.08-12.16-19.2a48.93,48.93,0,0,1-1.12-10.4q0-15.36,7.36-26.56,7.85-11.84,20-12,11-.15,19,9.6Q1244,505.51,1245,521.66Zm-18.56,3.6q-.63-7.39-3.44-11.89t-6.48-4.19q-4.32.33-7,5.47a25.72,25.72,0,0,0-2.64,11.9,33.54,33.54,0,0,0,.32,4.66q2.08,12.38,10.08,11.57,4.65-.48,7.12-5.62A23.14,23.14,0,0,0,1226.4,525.26Z" style="stroke:#000;stroke-miterlimit:10;stroke-width:38px"/><path d="M1317.76,430.14q-4.32,36.33-4.32,85.6,0,25.6,1.76,40.64H1312a131.26,131.26,0,0,0-18.24,1.76,71.25,71.25,0,0,0,1-9.76,25.45,25.45,0,0,1-16.8,6.24q-11.84.33-19.68-7.68t-8.16-21.6a46,46,0,0,1,6.24-24.8q7.68-13.28,20.64-13.92,11-.63,18.88,8.32-.79-35-4.48-60.64A152.37,152.37,0,0,0,1317.76,430.14ZM1293,523.58a19.87,19.87,0,0,0,.32-3.52q0-9-7.84-10.4-5.45-1-10.16,3.36a16.71,16.71,0,0,0-5.36,11.2,10.62,10.62,0,0,0,2.8,8.72,9.53,9.53,0,0,0,7.92,3.12Q1290.89,535.43,1293,523.58Z" style="stroke:#000;stroke-miterlimit:10;stroke-width:38px"/></g></g><g id="aaca723c-a228-4f5c-b8ca-4f95aa7875c4" data-name="Layer 16"><path d="M1050.17,367.32q-14.25.48-30.88,1.92a378.64,378.64,0,0,0,3.84-43.37,197.85,197.85,0,0,0-21.6-.47q1.11,30.56,5.12,46.88a258.14,258.14,0,0,0-31.36-.8q4.63-19.85,4.64-58.57,0-33.59-3.36-50.88,14.55-.46,27.68.33-2.57,17.59-2.88,47,8.19-.33,21.76-1.76a470.11,470.11,0,0,0-1.92-52.16,248.38,248.38,0,0,0,27.68,1.43q-4.32,22.24-4.32,53.93Q1044.57,346.36,1050.17,367.32Z" style="fill:#65af04;stroke:#fff;stroke-miterlimit:10;stroke-width:38px"/><path d="M1119,336.76q-.17,16-9,24.48-7.37,7-18.56,7.83a29.53,29.53,0,0,1-19.84-5.43q-10.24-7.2-13.76-21.44a48.76,48.76,0,0,1-1.6-12.48q0-14.25,7.2-24a25.08,25.08,0,0,1,20.8-10.73q15-.15,23.2,10.41,7,9.6,7.84,26.24-6.57.15-12.8.64a226.32,226.32,0,0,0-26.4,3,33.61,33.61,0,0,0,3.28,12.88q2.64,5,6.48,4.71,5.28-.46,5.28-8.8a21.23,21.23,0,0,0-.48-4.47Q1098,338.67,1119,336.76Zm-25.92-14.08q-1.77-12.48-9.12-11.36-5.76.8-7.68,13A115.24,115.24,0,0,0,1093.05,322.68Z" style="fill:#65af04;stroke:#fff;stroke-miterlimit:10;stroke-width:38px"/><path d="M1181.37,369.4a134.16,134.16,0,0,0-19.2.8c.21-1,.47-2.51.79-4.64a30.42,30.42,0,0,1-13,4.64q-8.48,1-16.79-4.33-9.45-6.08-9.61-16a21.21,21.21,0,0,1,8.48-17.92,29.17,29.17,0,0,1,18.09-6.08,25.32,25.32,0,0,1,14.08,3.69q-1.93-17.61-8.33-17.61c-1.38,0-2.53.94-3.43,2.81a12.11,12.11,0,0,0-.89,6.8,85.92,85.92,0,0,0-23.19,2.88,28.53,28.53,0,0,1-.65-5.92,25,25,0,0,1,6.32-17.2q6.33-7.12,16.72-7.12a33.93,33.93,0,0,1,13.12,2.87q17.92,7.37,17.92,38.25,0,4.95-.47,14.08t-.49,12.8A45.57,45.57,0,0,0,1181.37,369.4Zm-24.81-29.12a13.4,13.4,0,0,0-7.35,2.24c-2.57,1.81-3.84,3.89-3.84,6.24q0,6.08,7.51,6.08a12,12,0,0,0,7.45-2.81,8.23,8.23,0,0,0,3.59-6.63Q1163.92,340.27,1156.56,340.28Z" style="fill:#65af04;stroke:#fff;stroke-miterlimit:10;stroke-width:38px"/><path d="M1216.56,368.44q-12.32.94-27.36,2.24,3.69-21.45,3.68-53.44,0-41.61-5.12-69.6,7.2-.64,25.28-4.49-1.27,14.25-1.28,37.92Q1211.76,336.27,1216.56,368.44Z" style="fill:#65af04;stroke:#fff;stroke-miterlimit:10;stroke-width:38px"/><path d="M1273,341.56q-1.61,14.07-8.16,21.59a19.75,19.75,0,0,1-15.2,6.88,27.74,27.74,0,0,1-4.16-.31q-19.85-3.66-19.84-40.42a157.58,157.58,0,0,1,1-16.86h-5.92c.21-4.49.64-9.12,1.28-13.92l6.72-.32a226.78,226.78,0,0,1,5.44-23.05q10.08.17,21.92.65a150,150,0,0,0-6.72,21.27l15.84-.79a104.27,104.27,0,0,0-1.76,17.59c-4.69-.6-10.45-1.09-17.28-1.43a132.86,132.86,0,0,0-2.08,22.2q0,13.17,3.2,14.43c1.71.65,3-.58,4-3.67a38.51,38.51,0,0,0,1.28-12Q1262.48,336.76,1273,341.56Z" style="fill:#65af04;stroke:#fff;stroke-miterlimit:10;stroke-width:38px"/><path d="M1334.32,370.2a155.62,155.62,0,0,0-24.48-3.84A85.25,85.25,0,0,0,1315,338q0-17.75-6.4-19.51a5.44,5.44,0,0,0-1.76-.32q-3.84,0-7.52,4.95,0,29,2.24,45.29a157.43,157.43,0,0,0-21.76,1.76q1.11-16.49,1.12-39.05,0-48.47-3.84-82.55,11.84-2.57,26.56-5.28-3,23.67-4,61.28a23.31,23.31,0,0,1,15.36-5.76q23.83,0,23.84,36.48Q1338.8,350.52,1334.32,370.2Z" style="fill:#65af04;stroke:#fff;stroke-miterlimit:10;stroke-width:38px"/><path d="M1407.92,296.6q-4.32,11.36-12.48,38.55-8.64,29.61-13.12,42.25-8,22.56-15.68,33.92-10.25-7.36-21.76-16.17,13.11-14.23,22.88-36.63a622.89,622.89,0,0,1-25.6-56.8q6.24-1.12,24.8-2.57,1,5.93,2.24,11.53a166.89,166.89,0,0,0,7.36,24.16,194.31,194.31,0,0,0,8.48-42.08Z" style="fill:#65af04;stroke:#fff;stroke-miterlimit:10;stroke-width:38px"/><path d="M1124.17,436q-.81,7.36-1.92,30.24a78,78,0,0,0-24.32-3.52,61.84,61.84,0,0,0-10.4.8q-.16,5.44.48,22.08,5.91-1,20.16-4l.32,19.52a100.83,100.83,0,0,0-19.36-.32q1.75,22.41,5.44,43.84a159.54,159.54,0,0,0-27.36,4.16q.63-13.92.64-29.44,0-44.64-4.8-77.12,12.15-.8,31-2.88Q1116.49,436.63,1124.17,436Z" style="fill:#0a7bc1;stroke:#fff;stroke-miterlimit:10;stroke-width:38px"/><path d="M1184.48,511.66q.81,15-5.76,25-7,10.41-20.16,11.36a26.08,26.08,0,0,1-16.32-4.16q-9.43-6.08-12.16-19.2a48.93,48.93,0,0,1-1.12-10.4q0-15.36,7.36-26.56,7.85-11.84,20-12,11-.15,19,9.6Q1183.52,495.51,1184.48,511.66Zm-18.56,3.6q-.63-7.39-3.44-11.89t-6.48-4.19q-4.32.33-7,5.47a25.72,25.72,0,0,0-2.64,11.9,33.54,33.54,0,0,0,.32,4.66q2.08,12.38,10.08,11.57,4.65-.48,7.12-5.62A23.14,23.14,0,0,0,1165.92,515.26Z" style="fill:#0a7bc1;stroke:#fff;stroke-miterlimit:10;stroke-width:38px"/><path d="M1245,511.66q.81,15-5.76,25Q1232.17,547,1219,548a26.08,26.08,0,0,1-16.32-4.16q-9.43-6.08-12.16-19.2a48.93,48.93,0,0,1-1.12-10.4q0-15.36,7.36-26.56,7.85-11.84,20-12,11-.15,19,9.6Q1244,495.51,1245,511.66Zm-18.56,3.6q-.63-7.39-3.44-11.89t-6.48-4.19q-4.32.33-7,5.47a25.72,25.72,0,0,0-2.64,11.9,33.54,33.54,0,0,0,.32,4.66q2.08,12.38,10.08,11.57,4.65-.48,7.12-5.62A23.14,23.14,0,0,0,1226.4,515.26Z" style="fill:#0a7bc1;stroke:#fff;stroke-miterlimit:10;stroke-width:38px"/><path d="M1317.76,420.14q-4.32,36.33-4.32,85.6,0,25.6,1.76,40.64H1312a131.26,131.26,0,0,0-18.24,1.76,71.25,71.25,0,0,0,1-9.76,25.45,25.45,0,0,1-16.8,6.24q-11.84.33-19.68-7.68t-8.16-21.6a46,46,0,0,1,6.24-24.8q7.68-13.28,20.64-13.92,11-.63,18.88,8.32-.79-35-4.48-60.64A152.37,152.37,0,0,0,1317.76,420.14ZM1293,513.58a19.87,19.87,0,0,0,.32-3.52q0-9-7.84-10.4-5.45-1-10.16,3.36a16.71,16.71,0,0,0-5.36,11.2,10.62,10.62,0,0,0,2.8,8.72,9.53,9.53,0,0,0,7.92,3.12Q1290.89,525.43,1293,513.58Z" style="fill:#0a7bc1;stroke:#fff;stroke-miterlimit:10;stroke-width:38px"/></g><g id="f7ba1f4e-1d8b-45e9-9f2b-b6166fa6c48c" data-name="Layer 11"><path d="M1050.17,367.32q-14.25.48-30.88,1.92a378.64,378.64,0,0,0,3.84-43.37,197.85,197.85,0,0,0-21.6-.47q1.11,30.56,5.12,46.88a258.14,258.14,0,0,0-31.36-.8q4.63-19.85,4.64-58.57,0-33.59-3.36-50.88,14.55-.46,27.68.33-2.57,17.59-2.88,47,8.19-.33,21.76-1.76a470.11,470.11,0,0,0-1.92-52.16,248.38,248.38,0,0,0,27.68,1.43q-4.32,22.24-4.32,53.93Q1044.57,346.36,1050.17,367.32Z" style="fill:#65af04"/><path d="M1119,336.76q-.17,16-9,24.48-7.37,7-18.56,7.83a29.53,29.53,0,0,1-19.84-5.43q-10.24-7.2-13.76-21.44a48.76,48.76,0,0,1-1.6-12.48q0-14.25,7.2-24a25.08,25.08,0,0,1,20.8-10.73q15-.15,23.2,10.41,7,9.6,7.84,26.24-6.57.15-12.8.64a226.32,226.32,0,0,0-26.4,3,33.61,33.61,0,0,0,3.28,12.88q2.64,5,6.48,4.71,5.28-.46,5.28-8.8a21.23,21.23,0,0,0-.48-4.47Q1098,338.67,1119,336.76Zm-25.92-14.08q-1.77-12.48-9.12-11.36-5.76.8-7.68,13A115.24,115.24,0,0,0,1093.05,322.68Z" style="fill:#65af04"/><path d="M1181.37,369.4a134.16,134.16,0,0,0-19.2.8c.21-1,.47-2.51.79-4.64a30.42,30.42,0,0,1-13,4.64q-8.48,1-16.79-4.33-9.45-6.08-9.61-16a21.21,21.21,0,0,1,8.48-17.92,29.17,29.17,0,0,1,18.09-6.08,25.32,25.32,0,0,1,14.08,3.69q-1.93-17.61-8.33-17.61c-1.38,0-2.53.94-3.43,2.81a12.11,12.11,0,0,0-.89,6.8,85.92,85.92,0,0,0-23.19,2.88,28.53,28.53,0,0,1-.65-5.92,25,25,0,0,1,6.32-17.2q6.33-7.12,16.72-7.12a33.93,33.93,0,0,1,13.12,2.87q17.92,7.37,17.92,38.25,0,4.95-.47,14.08t-.49,12.8A45.57,45.57,0,0,0,1181.37,369.4Zm-24.81-29.12a13.4,13.4,0,0,0-7.35,2.24c-2.57,1.81-3.84,3.89-3.84,6.24q0,6.08,7.51,6.08a12,12,0,0,0,7.45-2.81,8.23,8.23,0,0,0,3.59-6.63Q1163.92,340.27,1156.56,340.28Z" style="fill:#65af04"/><path d="M1216.56,368.44q-12.32.94-27.36,2.24,3.69-21.45,3.68-53.44,0-41.61-5.12-69.6,7.2-.64,25.28-4.49-1.27,14.25-1.28,37.92Q1211.76,336.27,1216.56,368.44Z" style="fill:#65af04"/><path d="M1273,341.56q-1.61,14.07-8.16,21.59a19.75,19.75,0,0,1-15.2,6.88,27.74,27.74,0,0,1-4.16-.31q-19.85-3.66-19.84-40.42a157.58,157.58,0,0,1,1-16.86h-5.92c.21-4.49.64-9.12,1.28-13.92l6.72-.32a226.78,226.78,0,0,1,5.44-23.05q10.08.17,21.92.65a150,150,0,0,0-6.72,21.27l15.84-.79a104.27,104.27,0,0,0-1.76,17.59c-4.69-.6-10.45-1.09-17.28-1.43a132.86,132.86,0,0,0-2.08,22.2q0,13.17,3.2,14.43c1.71.65,3-.58,4-3.67a38.51,38.51,0,0,0,1.28-12Q1262.48,336.76,1273,341.56Z" style="fill:#65af04"/><path d="M1334.32,370.2a155.62,155.62,0,0,0-24.48-3.84A85.25,85.25,0,0,0,1315,338q0-17.75-6.4-19.51a5.44,5.44,0,0,0-1.76-.32q-3.84,0-7.52,4.95,0,29,2.24,45.29a157.43,157.43,0,0,0-21.76,1.76q1.11-16.49,1.12-39.05,0-48.47-3.84-82.55,11.84-2.57,26.56-5.28-3,23.67-4,61.28a23.31,23.31,0,0,1,15.36-5.76q23.83,0,23.84,36.48Q1338.8,350.52,1334.32,370.2Z" style="fill:#65af04"/><path d="M1407.92,296.6q-4.32,11.36-12.48,38.55-8.64,29.61-13.12,42.25-8,22.56-15.68,33.92-10.25-7.36-21.76-16.17,13.11-14.23,22.88-36.63a622.89,622.89,0,0,1-25.6-56.8q6.24-1.12,24.8-2.57,1,5.93,2.24,11.53a166.89,166.89,0,0,0,7.36,24.16,194.31,194.31,0,0,0,8.48-42.08Z" style="fill:#65af04"/><path d="M1124.17,436q-.81,7.36-1.92,30.24a78,78,0,0,0-24.32-3.52,61.84,61.84,0,0,0-10.4.8q-.16,5.44.48,22.08,5.91-1,20.16-4l.32,19.52a100.83,100.83,0,0,0-19.36-.32q1.75,22.41,5.44,43.84a159.54,159.54,0,0,0-27.36,4.16q.63-13.92.64-29.44,0-44.64-4.8-77.12,12.15-.8,31-2.88Q1116.49,436.63,1124.17,436Z" style="fill:#0a7bc1"/><path d="M1184.48,511.66q.81,15-5.76,25-7,10.41-20.16,11.36a26.08,26.08,0,0,1-16.32-4.16q-9.43-6.08-12.16-19.2a48.93,48.93,0,0,1-1.12-10.4q0-15.36,7.36-26.56,7.85-11.84,20-12,11-.15,19,9.6Q1183.52,495.51,1184.48,511.66Zm-18.56,3.6q-.63-7.39-3.44-11.89t-6.48-4.19q-4.32.33-7,5.47a25.72,25.72,0,0,0-2.64,11.9,33.54,33.54,0,0,0,.32,4.66q2.08,12.38,10.08,11.57,4.65-.48,7.12-5.62A23.14,23.14,0,0,0,1165.92,515.26Z" style="fill:#0a7bc1"/><path d="M1245,511.66q.81,15-5.76,25Q1232.17,547,1219,548a26.08,26.08,0,0,1-16.32-4.16q-9.43-6.08-12.16-19.2a48.93,48.93,0,0,1-1.12-10.4q0-15.36,7.36-26.56,7.85-11.84,20-12,11-.15,19,9.6Q1244,495.51,1245,511.66Zm-18.56,3.6q-.63-7.39-3.44-11.89t-6.48-4.19q-4.32.33-7,5.47a25.72,25.72,0,0,0-2.64,11.9,33.54,33.54,0,0,0,.32,4.66q2.08,12.38,10.08,11.57,4.65-.48,7.12-5.62A23.14,23.14,0,0,0,1226.4,515.26Z" style="fill:#0a7bc1"/><path d="M1317.76,420.14q-4.32,36.33-4.32,85.6,0,25.6,1.76,40.64H1312a131.26,131.26,0,0,0-18.24,1.76,71.25,71.25,0,0,0,1-9.76,25.45,25.45,0,0,1-16.8,6.24q-11.84.33-19.68-7.68t-8.16-21.6a46,46,0,0,1,6.24-24.8q7.68-13.28,20.64-13.92,11-.63,18.88,8.32-.79-35-4.48-60.64A152.37,152.37,0,0,0,1317.76,420.14ZM1293,513.58a19.87,19.87,0,0,0,.32-3.52q0-9-7.84-10.4-5.45-1-10.16,3.36a16.71,16.71,0,0,0-5.36,11.2,10.62,10.62,0,0,0,2.8,8.72,9.53,9.53,0,0,0,7.92,3.12Q1290.89,525.43,1293,513.58Z" style="fill:#0a7bc1"/></g></g></svg>