<svg id="Layer_5" data-name="Layer 5" xmlns="http://www.w3.org/2000/svg" viewBox="0 0 204.9 219"><defs><style>.cls-1{fill:#fea82a;}.cls-2{fill:#df8612;opacity:0.77;}.cls-3{fill:#f0991d;}.cls-4{fill:#db701c;opacity:0.8;}.cls-5{fill:#6a9936;}.cls-6{fill:#d4df35;}.cls-7{opacity:0.6;}.cls-8{fill:#dea223;}.cls-9{fill:#f0e48a;opacity:0.37;}.cls-10{fill:#54a742;}.cls-11{fill:#278712;opacity:0.5;}.cls-12{fill:#84c63d;}</style></defs><path class="cls-1" d="M157.22,144.39c-11.66,28.07-45.64,40.63-75.89,28.06S36,126.94,47.68,98.87s45.64-40.63,75.89-28.06S168.88,116.32,157.22,144.39Z"/><path class="cls-2" d="M50.87,98c5.52-3.89,12-5.9,18.6-7.23,7.62-1.54,15.35-2.2,23-3.43,7.84-1.26,16.22-3.1,22.23-8.66a.48.48,0,0,1,.58-.07A19.18,19.18,0,0,0,125,82c2.88.25,6.7.61,9.32-.87A4,4,0,0,0,136.44,78a64,64,0,0,0-12.87-7.18c-30.25-12.57-64.23,0-75.89,28.06-.4,1-.76,1.93-1.1,2.9A29.8,29.8,0,0,1,50.87,98Z"/><path class="cls-3" d="M123.57,70.81c-30.25-12.57-64.23,0-75.89,28.06s3.4,61,33.65,73.58,64.23,0,75.89-28.06S153.82,83.38,123.57,70.81Zm-41,87.28C58,147.9,45.43,122.13,54.4,100.52s36.14-30.84,60.67-20.65,37.14,36,28.16,57.57S107.09,168.29,82.56,158.09Z"/><path class="cls-4" d="M131.67,80.05c-.77,1.85-6.68,1.16-13.2-1.55s-11.17-6.4-10.4-8.26,6.67-1.16,13.19,1.55S132.44,78.2,131.67,80.05Z"/><path class="cls-5" d="M128.55,77.57c-.54,1.3-4.68.82-9.24-1.08S111.48,72,112,70.71s4.68-.82,9.24,1.08S129.08,76.27,128.55,77.57Z"/><path class="cls-6" d="M126.18,76.59c-.38.93-3.33.58-6.59-.77s-5.59-3.21-5.2-4.13,3.33-.58,6.59.77S126.57,75.66,126.18,76.59Z"/><g class="cls-7"><path class="cls-8" d="M58.55,126.88a1.24,1.24,0,0,0-.66-.3,1.91,1.91,0,0,0-1.2.08l-.1,0a2.09,2.09,0,0,0-.3.14l-.06,0a.83.83,0,0,0-.16.12,1.34,1.34,0,0,0-.25.23.5.5,0,0,0-.08.07,1.1,1.1,0,0,0-.09.14l0,0h0a.59.59,0,0,0,.06.78l.07.05.11.08a1.18,1.18,0,0,0,.56.24,2.34,2.34,0,0,0,1.83-.52C58.57,127.87,59,127.25,58.55,126.88Z"/><path class="cls-8" d="M59.09,135.21l0,0c-.52-.69-2.24-.09-2,.81a.58.58,0,0,1,0,.18c-.11.45.55.61.84.61a1.85,1.85,0,0,0,1.19-.45C59.4,136,59.6,135.53,59.09,135.21Z"/><path class="cls-8" d="M65.28,129.75a1,1,0,0,0-1,.65,1.84,1.84,0,0,0,0,.25c-.06.25.3.34.48.34a1,1,0,0,0,.86-.49l.15-.25C66,129.93,65.52,129.74,65.28,129.75Z"/><path class="cls-8" d="M69.16,124.08h0c0-.92-1.52-.35-1.81,0l0,.06a1,1,0,0,0-.34.57c0,.41.44.56.77.55a1.72,1.72,0,0,0,1.09-.4C69,124.73,69.29,124.35,69.16,124.08Z"/><path class="cls-8" d="M88.18,153.78c-.2-.72-1.43-.23-1.77.15s-.44.86.08,1.18a1.57,1.57,0,0,0,1.58-.31C88.35,154.56,88.62,154,88.18,153.78Z"/><path class="cls-8" d="M98.84,145.51c-.31-.53-1.09-.25-1.48,0a2.27,2.27,0,0,0-.75.85c-.28.53.35.81.77.81s1.33-.3,1.5-.84A.93.93,0,0,0,98.84,145.51Z"/><path class="cls-8" d="M115.27,147.19a1.77,1.77,0,0,0-1.77.36,1,1,0,0,0-.21.2l0,0c-.3.25-.5.74,0,1a1.56,1.56,0,0,0,1.2,0,1.93,1.93,0,0,0,.79-.38C115.57,148.06,115.83,147.46,115.27,147.19Z"/><path class="cls-8" d="M122.31,158.66c-.06-.11-.11-.22-.16-.32-.37-.74-2.12-.11-1.86.68l.11.35C120.67,160.19,122.68,159.4,122.31,158.66Z"/><path class="cls-8" d="M124.84,163.52c0-.48-.47-.65-.9-.64a2,2,0,0,0-1.49.69,1.41,1.41,0,0,0-.33.5c-.13.51.09.76.58.9l.19.06a2,2,0,0,0,1.64-.47C124.87,164.27,125.06,163.85,124.84,163.52Z"/><path class="cls-8" d="M148.05,140.69c-.93-.38-3.15,1.06-1.89,1.58C147.08,142.66,149.3,141.21,148.05,140.69Z"/><path class="cls-8" d="M140.86,156.49c0-.56-.49-.72-1-.7a2,2,0,0,0-1.48.44,2.33,2.33,0,0,0-.32.31.7.7,0,0,0-.05.91c.31.37.94.33,1.35.27C140,157.63,140.82,157.16,140.86,156.49Z"/><path class="cls-8" d="M140.89,161.59a.93.93,0,0,0-.13-.15.09.09,0,0,1,0-.05c.08-.4-.47-.54-.75-.54a1.58,1.58,0,0,0-1.34.76,1.33,1.33,0,0,0-.11,1.07c.09.44.82.42,1.11.37a1.74,1.74,0,0,0,1.21-.82A.59.59,0,0,0,140.89,161.59Z"/><path class="cls-8" d="M132.31,148.41c-.71-.3-2.41.81-1.45,1.21C131.57,149.91,133.27,148.81,132.31,148.41Z"/><path class="cls-8" d="M140.58,125.9h0a.33.33,0,0,0,0-.22,1.18,1.18,0,0,1,0-.2.47.47,0,0,0-.47-.35,1.31,1.31,0,0,0-1.08,0c-.29.1-.89.44-.84.83l0,.24s0,.1,0,.16a.49.49,0,0,0,.15.41C138.91,127.24,140.56,126.84,140.58,125.9Z"/><path class="cls-8" d="M143.56,140.31c-.36-.79-1.63-.34-2.11,0a1.41,1.41,0,0,0-.5.63c-.19.61.31.92.88.91a2,2,0,0,0,.75-.17s0,0-.05,0a1.71,1.71,0,0,0,.85-.58A.86.86,0,0,0,143.56,140.31Z"/><path class="cls-8" d="M154.65,116c-.93-.39-3.15,1.06-1.9,1.58C153.68,118,155.9,116.51,154.65,116Z"/><path class="cls-8" d="M156.2,125.74c0-.56-.49-.72-1-.7a2,2,0,0,0-1.47.44,1.88,1.88,0,0,0-.32.31.69.69,0,0,0-.05.91c.3.38.94.33,1.35.27C155.28,126.89,156.15,126.41,156.2,125.74Z"/><path class="cls-8" d="M157.07,135.25a.7.7,0,0,0-.13-.16.11.11,0,0,1,0-.05c.08-.4-.47-.54-.75-.54a1.58,1.58,0,0,0-1.34.76,1.34,1.34,0,0,0-.11,1.07c.09.44.81.42,1.11.37a1.74,1.74,0,0,0,1.21-.82A.62.62,0,0,0,157.07,135.25Z"/><path class="cls-8" d="M146.08,99.52c-.36-.79-1.63-.34-2.11,0a1.38,1.38,0,0,0-.5.62c-.18.62.31.93.88.92a2.21,2.21,0,0,0,.75-.17l0,0a1.8,1.8,0,0,0,.85-.58A.85.85,0,0,0,146.08,99.52Z"/><path class="cls-8" d="M71.08,111.6a.13.13,0,0,0,0,0,.61.61,0,0,0,.14-.34l0-.25c.08-.91-1.55-.35-1.83,0l-.19.26a0,0,0,0,1,0,0,.82.82,0,0,0-.16.37c0,.43.35.58.8.53a1.62,1.62,0,0,0,1.11-.48l0,0S71.07,111.62,71.08,111.6Z"/><path class="cls-8" d="M57.78,94.79s0,0,0,0a.69.69,0,0,0,.15-.34,2.28,2.28,0,0,1,0-.26c.09-.91-1.55-.35-1.83,0l-.19.26v0a.66.66,0,0,0-.16.36c0,.43.34.58.8.53a1.55,1.55,0,0,0,1.1-.48l0,0S57.76,94.81,57.78,94.79Z"/><path class="cls-8" d="M56.39,114c.26-.22.47-.69,0-.88a1.76,1.76,0,0,0-2.19,1c-.16.36.1.63.44.7a2.39,2.39,0,0,0,.8,0c.38-.06.89-.36.88-.79Z"/><path class="cls-8" d="M63.71,101.59c0-.08,0-.17,0-.25.05-.63-1.07-.24-1.26,0l-.2.26c-.27.37,0,.67.43.66S63.68,102,63.71,101.59Z"/><path class="cls-8" d="M54.18,110.36c-.35-.14-1.19.4-.71.6S54.66,110.56,54.18,110.36Z"/><path class="cls-8" d="M49.23,123.87a1.76,1.76,0,0,0-1.35.06,1,1,0,0,0-.72.72l0,.16a.39.39,0,0,0,0,.15.79.79,0,0,0,.11.5c.27.55,1.12.24,1.48,0a2.3,2.3,0,0,0,.75-.86A.52.52,0,0,0,49.23,123.87Z"/><path class="cls-8" d="M54.14,123a1.32,1.32,0,0,0-.81-.09c-.28,0-.95.34-.9.74v0a.4.4,0,0,0,.25.38l.13.06a1.35,1.35,0,0,0,1.29-.26C54.35,123.63,54.56,123.16,54.14,123Z"/><path class="cls-8" d="M56.66,143.93c.09-.15.06-.32-.14-.51,0,0,0,0,0,0a.21.21,0,0,1,0-.06c-.25-.35-1-.15-1.29,0l-.09,0-.07.06c-.36.21-.53.39-.54.54-.14.32.23.46.72.45S56.56,144.37,56.66,143.93Z"/><path class="cls-8" d="M69.69,154.55a.78.78,0,0,0-.08-.4,1,1,0,0,0-1.1-.36,1.82,1.82,0,0,0-1,.57l0,0a.6.6,0,0,0-.09.71C67.57,156.09,69.67,155.47,69.69,154.55Z"/><path class="cls-8" d="M73,145s0-.1,0-.15c.08-.73-1.24-.29-1.46,0s-.28.24.13,0a.85.85,0,0,0-.47.59c0,.34.36.46.63.45S73.17,145.51,73,145Z"/><path class="cls-8" d="M83.67,161.19a0,0,0,0,1,0,0,.66.66,0,0,0-.56-.39H83a1.47,1.47,0,0,0-.75,0,2.09,2.09,0,0,0-.58.24.85.85,0,0,0-.19.14.43.43,0,0,0-.12.11.72.72,0,0,0-.18.25s0,0,0,0a.46.46,0,0,0,.05.52l0,.05c.28.41.76.38,1.2.33S83.86,161.85,83.67,161.19Z"/><path class="cls-8" d="M100.52,168.13s0,.07,0,.1c-.06.38.24.48.6.45a1,1,0,0,0,1.12-.48.61.61,0,0,0,.07-.1C103,167.08,100.68,167,100.52,168.13Z"/><path class="cls-8" d="M103.94,171a1.07,1.07,0,0,0-.32-.2,1.4,1.4,0,0,0-1.38.28c-.27.22-.5.73,0,.91a1.28,1.28,0,0,0,.39.13,1.52,1.52,0,0,0,1.16-.33C104,171.62,104.22,171.23,103.94,171Z"/><path class="cls-8" d="M110.46,158c.14-.49-.24-.73-.69-.73a1.56,1.56,0,0,0-1.34.76l-.09.17c-.26.48.32.74.7.73s1.22-.26,1.36-.76Z"/><path class="cls-8" d="M115.74,172.35a2.7,2.7,0,0,0-.47.12,1.23,1.23,0,0,0-.89.9.66.66,0,0,0,0,.31c.16.59,1.16.45,1.56.3a1.5,1.5,0,0,0,1-.79C117.17,172.41,116.33,172.27,115.74,172.35Z"/><path class="cls-8" d="M128.26,171.3c0-.28-.48-.35-.69-.35a2.29,2.29,0,0,0-.55.1,1.76,1.76,0,0,0-.94.4c-.34.27-.58.85-.06,1.09C126.92,173,128.46,172.47,128.26,171.3Z"/><path class="cls-8" d="M139.13,112.46a2.17,2.17,0,0,0,0-.25c0-.35-.39-.47-.65-.47a1.39,1.39,0,0,0-1.08.5l-.18.26c-.34.48,0,.87.55.87S139.06,113,139.13,112.46Z"/><path class="cls-8" d="M141.11,86.65c-.12-.3-.48-.35-.81-.31a1.58,1.58,0,0,0-1.11.36c-.43.35-.41.84.15,1a1.72,1.72,0,0,0,1.27-.23C140.88,87.33,141.23,87,141.11,86.65Z"/><path class="cls-8" d="M124.38,129.41l-.49-.27a1.72,1.72,0,0,0-2.09.78,1.07,1.07,0,0,0,.12,1c.38.62,1.43.41,1.88,0l.19-.2a1.72,1.72,0,0,0,.33-.22C124.68,130.21,124.88,129.68,124.38,129.41Z"/><path class="cls-8" d="M113.69,133.77l-.3-.06c-.52-.12-1.83.56-1.07,1.08l.22.15c.36.25,1,0,1.29-.26S114.22,133.89,113.69,133.77Z"/><path class="cls-8" d="M108.93,137.47a.59.59,0,0,0,0-.23c-.26-.44-.82-.39-1.25-.24a1.7,1.7,0,0,0-1,.81c-.22.47.29.72.68.71a1.61,1.61,0,0,0,1.1-.46C108.69,137.94,109,137.72,108.93,137.47Z"/><path class="cls-8" d="M133.38,136.12l0,0a2.5,2.5,0,0,1-.09-.25c-.18-.56-1.07-.43-1.46-.28s-1.2.65-.93,1.17a1.3,1.3,0,0,0,.6.7,1.63,1.63,0,0,0,1.42-.16C133.22,137.09,133.81,136.52,133.38,136.12Z"/><path class="cls-8" d="M126.15,150c-.19-.52-.84-.45-1.34-.29a1.37,1.37,0,0,0-.53.19l-.2.14a1.06,1.06,0,0,0-.57.57h0c-.15.26-.18.54.21.69a2.06,2.06,0,0,0,1.48-.15C125.65,151,126.35,150.49,126.15,150Z"/></g><path class="cls-9" d="M88.44,93.08s-10-3.71-17.27,4,2.07,12.84,11.23,9S95.64,95,88.44,93.08Z"/><path class="cls-9" d="M64,105.2a6.15,6.15,0,0,0-5,4.15c-1.14,3.74,2.78,3.89,5.17,1.14S66.64,104.64,64,105.2Z"/><path class="cls-10" d="M140.33,41.82c-3.3.72-5.66,4.46-7.4,7-3,4.39-5.89,8.75-8.44,13.39-1.4,2.54-2.43,5.25-3.92,7.74a17.66,17.66,0,0,1-1.86,2.63,2.9,2.9,0,0,0,3.59,2.48,11.17,11.17,0,0,0,2.44-4.17c1-2.75,1.7-5.23,3.51-7.61,3.23-4.23,6.41-9.14,10.84-12.21,2.36-1.65,7.09-3.37,7-6.86C146.1,41.63,142.07,41.44,140.33,41.82Z"/><path class="cls-10" d="M117.25,65.3a11.73,11.73,0,0,0-5.6-1.71.46.46,0,0,1-.67-.29,9.83,9.83,0,0,0-2-3.55,19,19,0,0,0-4.37-2.83l-.81-.34a11.67,11.67,0,0,1-1.89-.72,45.79,45.79,0,0,0-8.8-2.06c-8.57-1.18-17.07,1.73-24,6.7A55.21,55.21,0,0,0,52.62,79.73a66,66,0,0,0-6.23,17c7-5.51,15.87-8.87,24.23-10.82,6.62-1.54,13.28-1.88,20-2.42a87.24,87.24,0,0,0,8.91-1.06C108.53,79.38,121.22,72.86,117.25,65.3Z"/><path class="cls-11" d="M117.25,65.3a11.73,11.73,0,0,0-5.6-1.71.46.46,0,0,1-.67-.29,9.83,9.83,0,0,0-2-3.55,19,19,0,0,0-4.37-2.83l-.81-.34a11.67,11.67,0,0,1-1.89-.72,45.79,45.79,0,0,0-8.8-2.06,28.78,28.78,0,0,0-5.4-.21c1,.07,2,.17,3,.34,4.5.78,10.65,1.86,13.54,5.79a.48.48,0,0,1-.26.78c-3.55.79-7.17,1-10.74,1.67a50.11,50.11,0,0,0-10.09,3,82.73,82.73,0,0,0-17.24,9.5c-8,5.78-15.2,12.94-19.32,21.9,6.92-5.42,15.75-8.74,24-10.67,6.62-1.54,13.28-1.88,20-2.42a87.24,87.24,0,0,0,8.91-1.06C108.53,79.38,121.22,72.86,117.25,65.3Zm-2.91,2.45c-4.33,6.83-12.68,9.43-20.18,11-11,2.34-22.41,2.36-33,6.41a.48.48,0,0,1-.53-.78,73,73,0,0,1,23-14.08A64,64,0,0,1,99.24,66.8c5.07-1.17,10.31-1.52,14.86.24A.48.48,0,0,1,114.34,67.75Z"/><path class="cls-12" d="M125.21,66.57c-.37-.7-2.46-1.38-2.79-1.49A27.71,27.71,0,0,0,118,63.92c-22.26-3.58-41.52,6-45.55,9.19a53.16,53.16,0,0,0-8.89,8.81c.88-.82,1.72-1.68,2.64-2.44a48,48,0,0,1,6.19-4.18,68,68,0,0,1,13.39-6.39c8.58-2.78,17.48-4.74,27.83-3.87,3,.22,5.41,1.19,8.34,1.79.71.15,2.37.78,3,.35C125.28,67,125.32,66.77,125.21,66.57Z"/></svg>