<svg xmlns="http://www.w3.org/2000/svg" xmlns:xlink="http://www.w3.org/1999/xlink" viewBox="0 0 1920 900"><defs><clipPath id="e4cd60fb-fdb8-4a17-97af-6879392d6adf"><rect width="1920" height="900" style="fill:none"/></clipPath></defs><g id="ab9d0794-4f36-4561-8365-d96b7f55e27c" data-name="Layer 23"><g style="clip-path:url(#e4cd60fb-fdb8-4a17-97af-6879392d6adf)"><rect width="1920.57" height="901.06" style="fill:#9e6156"/><g style="opacity:0.44"><g id="a8b23f2b-0fb1-4bca-a4d3-a5a534bee71f" data-name="&lt;Grid Repeat&gt;"><circle cx="140.18" cy="7.55" r="51.32" style="fill:none;stroke:#731d0e;stroke-miterlimit:10"/><ellipse cx="140.18" cy="7.55" rx="33.87" ry="51.32" style="fill:none;stroke:#731d0e;stroke-miterlimit:10"/><ellipse cx="140.18" cy="7.55" rx="15.34" ry="51.32" style="fill:none;stroke:#731d0e;stroke-miterlimit:10"/><circle cx="26.94" cy="120.78" r="51.32" style="fill:none;stroke:#731d0e;stroke-miterlimit:10"/><ellipse cx="26.94" cy="120.78" rx="33.87" ry="51.32" style="fill:none;stroke:#731d0e;stroke-miterlimit:10"/><ellipse cx="26.94" cy="120.78" rx="15.34" ry="51.32" style="fill:none;stroke:#731d0e;stroke-miterlimit:10"/></g><g id="a61f273c-5548-46ca-a103-2105ecc10aaf" data-name="&lt;Grid Repeat&gt;"><circle cx="367.05" cy="7.55" r="51.32" style="fill:none;stroke:#731d0e;stroke-miterlimit:10"/><ellipse cx="367.05" cy="7.55" rx="33.87" ry="51.32" style="fill:none;stroke:#731d0e;stroke-miterlimit:10"/><ellipse cx="367.05" cy="7.55" rx="15.34" ry="51.32" style="fill:none;stroke:#731d0e;stroke-miterlimit:10"/><circle cx="253.82" cy="120.78" r="51.32" style="fill:none;stroke:#731d0e;stroke-miterlimit:10"/><ellipse cx="253.82" cy="120.78" rx="33.87" ry="51.32" style="fill:none;stroke:#731d0e;stroke-miterlimit:10"/><ellipse cx="253.82" cy="120.78" rx="15.34" ry="51.32" style="fill:none;stroke:#731d0e;stroke-miterlimit:10"/></g><g id="f0fe9b3c-a3c5-4b64-a0de-8a168782431e" data-name="&lt;Grid Repeat&gt;"><circle cx="593.92" cy="7.55" r="51.32" style="fill:none;stroke:#731d0e;stroke-miterlimit:10"/><ellipse cx="593.92" cy="7.55" rx="33.87" ry="51.32" style="fill:none;stroke:#731d0e;stroke-miterlimit:10"/><ellipse cx="593.92" cy="7.55" rx="15.34" ry="51.32" style="fill:none;stroke:#731d0e;stroke-miterlimit:10"/><circle cx="480.69" cy="120.78" r="51.32" style="fill:none;stroke:#731d0e;stroke-miterlimit:10"/><ellipse cx="480.69" cy="120.78" rx="33.87" ry="51.32" style="fill:none;stroke:#731d0e;stroke-miterlimit:10"/><ellipse cx="480.69" cy="120.78" rx="15.34" ry="51.32" style="fill:none;stroke:#731d0e;stroke-miterlimit:10"/></g><g id="a4f5ce9b-661d-406d-a3d3-8a0a7c180873" data-name="&lt;Grid Repeat&gt;"><circle cx="820.79" cy="7.55" r="51.32" style="fill:none;stroke:#731d0e;stroke-miterlimit:10"/><ellipse cx="820.79" cy="7.55" rx="33.87" ry="51.32" style="fill:none;stroke:#731d0e;stroke-miterlimit:10"/><ellipse cx="820.79" cy="7.55" rx="15.34" ry="51.32" style="fill:none;stroke:#731d0e;stroke-miterlimit:10"/><circle cx="707.56" cy="120.78" r="51.32" style="fill:none;stroke:#731d0e;stroke-miterlimit:10"/><ellipse cx="707.56" cy="120.78" rx="33.87" ry="51.32" style="fill:none;stroke:#731d0e;stroke-miterlimit:10"/><ellipse cx="707.56" cy="120.78" rx="15.34" ry="51.32" style="fill:none;stroke:#731d0e;stroke-miterlimit:10"/></g><g id="e13b87d5-8fb6-46a1-898d-d74cecd78743" data-name="&lt;Grid Repeat&gt;"><circle cx="1047.66" cy="7.55" r="51.32" style="fill:none;stroke:#731d0e;stroke-miterlimit:10"/><ellipse cx="1047.66" cy="7.55" rx="33.87" ry="51.32" style="fill:none;stroke:#731d0e;stroke-miterlimit:10"/><ellipse cx="1047.66" cy="7.55" rx="15.34" ry="51.32" style="fill:none;stroke:#731d0e;stroke-miterlimit:10"/><circle cx="934.43" cy="120.78" r="51.32" style="fill:none;stroke:#731d0e;stroke-miterlimit:10"/><ellipse cx="934.43" cy="120.78" rx="33.87" ry="51.32" style="fill:none;stroke:#731d0e;stroke-miterlimit:10"/><ellipse cx="934.43" cy="120.78" rx="15.34" ry="51.32" style="fill:none;stroke:#731d0e;stroke-miterlimit:10"/></g><g id="bf099df7-9f1b-4128-987b-d6b38a25c19b" data-name="&lt;Grid Repeat&gt;"><circle cx="1274.53" cy="7.55" r="51.32" style="fill:none;stroke:#731d0e;stroke-miterlimit:10"/><ellipse cx="1274.53" cy="7.55" rx="33.87" ry="51.32" style="fill:none;stroke:#731d0e;stroke-miterlimit:10"/><ellipse cx="1274.53" cy="7.55" rx="15.34" ry="51.32" style="fill:none;stroke:#731d0e;stroke-miterlimit:10"/><circle cx="1161.3" cy="120.78" r="51.32" style="fill:none;stroke:#731d0e;stroke-miterlimit:10"/><ellipse cx="1161.3" cy="120.78" rx="33.87" ry="51.32" style="fill:none;stroke:#731d0e;stroke-miterlimit:10"/><ellipse cx="1161.3" cy="120.78" rx="15.34" ry="51.32" style="fill:none;stroke:#731d0e;stroke-miterlimit:10"/></g><g id="f0152142-c999-4200-b8dd-f9d14fdbe057" data-name="&lt;Grid Repeat&gt;"><circle cx="1501.4" cy="7.55" r="51.32" style="fill:none;stroke:#731d0e;stroke-miterlimit:10"/><ellipse cx="1501.4" cy="7.55" rx="33.87" ry="51.32" style="fill:none;stroke:#731d0e;stroke-miterlimit:10"/><ellipse cx="1501.4" cy="7.55" rx="15.34" ry="51.32" style="fill:none;stroke:#731d0e;stroke-miterlimit:10"/><circle cx="1388.17" cy="120.78" r="51.32" style="fill:none;stroke:#731d0e;stroke-miterlimit:10"/><ellipse cx="1388.17" cy="120.78" rx="33.87" ry="51.32" style="fill:none;stroke:#731d0e;stroke-miterlimit:10"/><ellipse cx="1388.17" cy="120.78" rx="15.34" ry="51.32" style="fill:none;stroke:#731d0e;stroke-miterlimit:10"/></g><g id="e23fe822-3a96-4ba9-86db-3f37aa71d50f" data-name="&lt;Grid Repeat&gt;"><circle cx="1728.28" cy="7.55" r="51.32" style="fill:none;stroke:#731d0e;stroke-miterlimit:10"/><ellipse cx="1728.28" cy="7.55" rx="33.87" ry="51.32" style="fill:none;stroke:#731d0e;stroke-miterlimit:10"/><ellipse cx="1728.28" cy="7.55" rx="15.34" ry="51.32" style="fill:none;stroke:#731d0e;stroke-miterlimit:10"/><circle cx="1615.04" cy="120.78" r="51.32" style="fill:none;stroke:#731d0e;stroke-miterlimit:10"/><ellipse cx="1615.04" cy="120.78" rx="33.87" ry="51.32" style="fill:none;stroke:#731d0e;stroke-miterlimit:10"/><ellipse cx="1615.04" cy="120.78" rx="15.34" ry="51.32" style="fill:none;stroke:#731d0e;stroke-miterlimit:10"/></g><g id="ebc234c0-6855-4a18-ad83-bf6548f7000f" data-name="&lt;Grid Repeat&gt;"><circle cx="1955.15" cy="7.55" r="51.32" style="fill:none;stroke:#731d0e;stroke-miterlimit:10"/><circle cx="1841.91" cy="120.78" r="51.32" style="fill:none;stroke:#731d0e;stroke-miterlimit:10"/><ellipse cx="1841.91" cy="120.78" rx="33.87" ry="51.32" style="fill:none;stroke:#731d0e;stroke-miterlimit:10"/><ellipse cx="1841.91" cy="120.78" rx="15.34" ry="51.32" style="fill:none;stroke:#731d0e;stroke-miterlimit:10"/></g><g id="a10049e0-d8c6-4cfe-bc0f-b15c727bd112" data-name="&lt;Grid Repeat&gt;"><circle cx="140.18" cy="234.42" r="51.32" style="fill:none;stroke:#731d0e;stroke-miterlimit:10"/><ellipse cx="140.18" cy="234.42" rx="33.87" ry="51.32" style="fill:none;stroke:#731d0e;stroke-miterlimit:10"/><ellipse cx="140.18" cy="234.42" rx="15.34" ry="51.32" style="fill:none;stroke:#731d0e;stroke-miterlimit:10"/><circle cx="26.94" cy="347.65" r="51.32" style="fill:none;stroke:#731d0e;stroke-miterlimit:10"/><ellipse cx="26.94" cy="347.65" rx="33.87" ry="51.32" style="fill:none;stroke:#731d0e;stroke-miterlimit:10"/><ellipse cx="26.94" cy="347.65" rx="15.34" ry="51.32" style="fill:none;stroke:#731d0e;stroke-miterlimit:10"/></g><g id="b6c2cc1b-87e7-470f-9c93-4353cf2a5e28" data-name="&lt;Grid Repeat&gt;"><circle cx="367.05" cy="234.42" r="51.32" style="fill:none;stroke:#731d0e;stroke-miterlimit:10"/><ellipse cx="367.05" cy="234.42" rx="33.87" ry="51.32" style="fill:none;stroke:#731d0e;stroke-miterlimit:10"/><ellipse cx="367.05" cy="234.42" rx="15.34" ry="51.32" style="fill:none;stroke:#731d0e;stroke-miterlimit:10"/><circle cx="253.82" cy="347.65" r="51.32" style="fill:none;stroke:#731d0e;stroke-miterlimit:10"/><ellipse cx="253.82" cy="347.65" rx="33.87" ry="51.32" style="fill:none;stroke:#731d0e;stroke-miterlimit:10"/><ellipse cx="253.82" cy="347.65" rx="15.34" ry="51.32" style="fill:none;stroke:#731d0e;stroke-miterlimit:10"/></g><g id="e2b43a40-968f-47dc-ae3a-647bb62c4e9d" data-name="&lt;Grid Repeat&gt;"><circle cx="593.92" cy="234.42" r="51.32" style="fill:none;stroke:#731d0e;stroke-miterlimit:10"/><ellipse cx="593.92" cy="234.42" rx="33.87" ry="51.32" style="fill:none;stroke:#731d0e;stroke-miterlimit:10"/><ellipse cx="593.92" cy="234.42" rx="15.34" ry="51.32" style="fill:none;stroke:#731d0e;stroke-miterlimit:10"/><circle cx="480.69" cy="347.65" r="51.32" style="fill:none;stroke:#731d0e;stroke-miterlimit:10"/><ellipse cx="480.69" cy="347.65" rx="33.87" ry="51.32" style="fill:none;stroke:#731d0e;stroke-miterlimit:10"/><ellipse cx="480.69" cy="347.65" rx="15.34" ry="51.32" style="fill:none;stroke:#731d0e;stroke-miterlimit:10"/></g><g id="e4a87676-29c8-40a6-8b35-2f0fac27ff76" data-name="&lt;Grid Repeat&gt;"><circle cx="820.79" cy="234.42" r="51.32" style="fill:none;stroke:#731d0e;stroke-miterlimit:10"/><ellipse cx="820.79" cy="234.42" rx="33.87" ry="51.32" style="fill:none;stroke:#731d0e;stroke-miterlimit:10"/><ellipse cx="820.79" cy="234.42" rx="15.34" ry="51.32" style="fill:none;stroke:#731d0e;stroke-miterlimit:10"/><circle cx="707.56" cy="347.65" r="51.32" style="fill:none;stroke:#731d0e;stroke-miterlimit:10"/><ellipse cx="707.56" cy="347.65" rx="33.87" ry="51.32" style="fill:none;stroke:#731d0e;stroke-miterlimit:10"/><ellipse cx="707.56" cy="347.65" rx="15.34" ry="51.32" style="fill:none;stroke:#731d0e;stroke-miterlimit:10"/></g><g id="b6d017e5-3607-46b9-aa8d-8e925d3f9583" data-name="&lt;Grid Repeat&gt;"><circle cx="1047.66" cy="234.42" r="51.32" style="fill:none;stroke:#731d0e;stroke-miterlimit:10"/><ellipse cx="1047.66" cy="234.42" rx="33.87" ry="51.32" style="fill:none;stroke:#731d0e;stroke-miterlimit:10"/><ellipse cx="1047.66" cy="234.42" rx="15.34" ry="51.32" style="fill:none;stroke:#731d0e;stroke-miterlimit:10"/><circle cx="934.43" cy="347.65" r="51.32" style="fill:none;stroke:#731d0e;stroke-miterlimit:10"/><ellipse cx="934.43" cy="347.65" rx="33.87" ry="51.32" style="fill:none;stroke:#731d0e;stroke-miterlimit:10"/><ellipse cx="934.43" cy="347.65" rx="15.34" ry="51.32" style="fill:none;stroke:#731d0e;stroke-miterlimit:10"/></g><g id="fd9a0673-6074-4382-a7c5-08425e13145a" data-name="&lt;Grid Repeat&gt;"><circle cx="1274.53" cy="234.42" r="51.32" style="fill:none;stroke:#731d0e;stroke-miterlimit:10"/><ellipse cx="1274.53" cy="234.42" rx="33.87" ry="51.32" style="fill:none;stroke:#731d0e;stroke-miterlimit:10"/><ellipse cx="1274.53" cy="234.42" rx="15.34" ry="51.32" style="fill:none;stroke:#731d0e;stroke-miterlimit:10"/><circle cx="1161.3" cy="347.65" r="51.32" style="fill:none;stroke:#731d0e;stroke-miterlimit:10"/><ellipse cx="1161.3" cy="347.65" rx="33.87" ry="51.32" style="fill:none;stroke:#731d0e;stroke-miterlimit:10"/><ellipse cx="1161.3" cy="347.65" rx="15.34" ry="51.32" style="fill:none;stroke:#731d0e;stroke-miterlimit:10"/></g><g id="b958fef2-2026-424b-a7cc-f1fde7a60a8f" data-name="&lt;Grid Repeat&gt;"><circle cx="1501.4" cy="234.42" r="51.32" style="fill:none;stroke:#731d0e;stroke-miterlimit:10"/><ellipse cx="1501.4" cy="234.42" rx="33.87" ry="51.32" style="fill:none;stroke:#731d0e;stroke-miterlimit:10"/><ellipse cx="1501.4" cy="234.42" rx="15.34" ry="51.32" style="fill:none;stroke:#731d0e;stroke-miterlimit:10"/><circle cx="1388.17" cy="347.65" r="51.32" style="fill:none;stroke:#731d0e;stroke-miterlimit:10"/><ellipse cx="1388.17" cy="347.65" rx="33.87" ry="51.32" style="fill:none;stroke:#731d0e;stroke-miterlimit:10"/><ellipse cx="1388.17" cy="347.65" rx="15.34" ry="51.32" style="fill:none;stroke:#731d0e;stroke-miterlimit:10"/></g><g id="b1296dd3-a292-4807-a76f-052164469951" data-name="&lt;Grid Repeat&gt;"><circle cx="1728.28" cy="234.42" r="51.32" style="fill:none;stroke:#731d0e;stroke-miterlimit:10"/><ellipse cx="1728.28" cy="234.42" rx="33.87" ry="51.32" style="fill:none;stroke:#731d0e;stroke-miterlimit:10"/><ellipse cx="1728.28" cy="234.42" rx="15.34" ry="51.32" style="fill:none;stroke:#731d0e;stroke-miterlimit:10"/><circle cx="1615.04" cy="347.65" r="51.32" style="fill:none;stroke:#731d0e;stroke-miterlimit:10"/><ellipse cx="1615.04" cy="347.65" rx="33.87" ry="51.32" style="fill:none;stroke:#731d0e;stroke-miterlimit:10"/><ellipse cx="1615.04" cy="347.65" rx="15.34" ry="51.32" style="fill:none;stroke:#731d0e;stroke-miterlimit:10"/></g><g id="e6c50dbe-dae6-4a19-9024-d4fca64a32fe" data-name="&lt;Grid Repeat&gt;"><circle cx="1955.15" cy="234.42" r="51.32" style="fill:none;stroke:#731d0e;stroke-miterlimit:10"/><circle cx="1841.91" cy="347.65" r="51.32" style="fill:none;stroke:#731d0e;stroke-miterlimit:10"/><ellipse cx="1841.91" cy="347.65" rx="33.87" ry="51.32" style="fill:none;stroke:#731d0e;stroke-miterlimit:10"/><ellipse cx="1841.91" cy="347.65" rx="15.34" ry="51.32" style="fill:none;stroke:#731d0e;stroke-miterlimit:10"/></g><g id="b43a0282-b0e8-478d-89a6-69ee3593c41d" data-name="&lt;Grid Repeat&gt;"><circle cx="140.18" cy="461.29" r="51.32" style="fill:none;stroke:#731d0e;stroke-miterlimit:10"/><ellipse cx="140.18" cy="461.29" rx="33.87" ry="51.32" style="fill:none;stroke:#731d0e;stroke-miterlimit:10"/><ellipse cx="140.18" cy="461.29" rx="15.34" ry="51.32" style="fill:none;stroke:#731d0e;stroke-miterlimit:10"/><circle cx="26.94" cy="574.52" r="51.32" style="fill:none;stroke:#731d0e;stroke-miterlimit:10"/><ellipse cx="26.94" cy="574.52" rx="33.87" ry="51.32" style="fill:none;stroke:#731d0e;stroke-miterlimit:10"/><ellipse cx="26.94" cy="574.52" rx="15.34" ry="51.32" style="fill:none;stroke:#731d0e;stroke-miterlimit:10"/></g><g id="a4f0dafa-873e-4db1-b8fb-66f9ff35dca0" data-name="&lt;Grid Repeat&gt;"><circle cx="367.05" cy="461.29" r="51.32" style="fill:none;stroke:#731d0e;stroke-miterlimit:10"/><ellipse cx="367.05" cy="461.29" rx="33.87" ry="51.32" style="fill:none;stroke:#731d0e;stroke-miterlimit:10"/><ellipse cx="367.05" cy="461.29" rx="15.34" ry="51.32" style="fill:none;stroke:#731d0e;stroke-miterlimit:10"/><circle cx="253.82" cy="574.52" r="51.32" style="fill:none;stroke:#731d0e;stroke-miterlimit:10"/><ellipse cx="253.82" cy="574.52" rx="33.87" ry="51.32" style="fill:none;stroke:#731d0e;stroke-miterlimit:10"/><ellipse cx="253.82" cy="574.52" rx="15.34" ry="51.32" style="fill:none;stroke:#731d0e;stroke-miterlimit:10"/></g><g id="bc6111ee-eaee-4f64-8420-ca508f7e28e4" data-name="&lt;Grid Repeat&gt;"><circle cx="593.92" cy="461.29" r="51.32" style="fill:none;stroke:#731d0e;stroke-miterlimit:10"/><ellipse cx="593.92" cy="461.29" rx="33.87" ry="51.32" style="fill:none;stroke:#731d0e;stroke-miterlimit:10"/><ellipse cx="593.92" cy="461.29" rx="15.34" ry="51.32" style="fill:none;stroke:#731d0e;stroke-miterlimit:10"/><circle cx="480.69" cy="574.52" r="51.32" style="fill:none;stroke:#731d0e;stroke-miterlimit:10"/><ellipse cx="480.69" cy="574.52" rx="33.87" ry="51.32" style="fill:none;stroke:#731d0e;stroke-miterlimit:10"/><ellipse cx="480.69" cy="574.52" rx="15.34" ry="51.32" style="fill:none;stroke:#731d0e;stroke-miterlimit:10"/></g><g id="f3fdacc8-2ac1-468f-8e01-461fdde8d8e9" data-name="&lt;Grid Repeat&gt;"><circle cx="820.79" cy="461.29" r="51.32" style="fill:none;stroke:#731d0e;stroke-miterlimit:10"/><ellipse cx="820.79" cy="461.29" rx="33.87" ry="51.32" style="fill:none;stroke:#731d0e;stroke-miterlimit:10"/><ellipse cx="820.79" cy="461.29" rx="15.34" ry="51.32" style="fill:none;stroke:#731d0e;stroke-miterlimit:10"/><circle cx="707.56" cy="574.52" r="51.32" style="fill:none;stroke:#731d0e;stroke-miterlimit:10"/><ellipse cx="707.56" cy="574.52" rx="33.87" ry="51.32" style="fill:none;stroke:#731d0e;stroke-miterlimit:10"/><ellipse cx="707.56" cy="574.52" rx="15.34" ry="51.32" style="fill:none;stroke:#731d0e;stroke-miterlimit:10"/></g><g id="e8c17e6e-c5b4-4e6d-b0c6-d35d10f307fa" data-name="&lt;Grid Repeat&gt;"><circle cx="1047.66" cy="461.29" r="51.32" style="fill:none;stroke:#731d0e;stroke-miterlimit:10"/><ellipse cx="1047.66" cy="461.29" rx="33.87" ry="51.32" style="fill:none;stroke:#731d0e;stroke-miterlimit:10"/><ellipse cx="1047.66" cy="461.29" rx="15.34" ry="51.32" style="fill:none;stroke:#731d0e;stroke-miterlimit:10"/><circle cx="934.43" cy="574.52" r="51.32" style="fill:none;stroke:#731d0e;stroke-miterlimit:10"/><ellipse cx="934.43" cy="574.52" rx="33.87" ry="51.32" style="fill:none;stroke:#731d0e;stroke-miterlimit:10"/><ellipse cx="934.43" cy="574.52" rx="15.34" ry="51.32" style="fill:none;stroke:#731d0e;stroke-miterlimit:10"/></g><g id="ade01ede-412f-4060-9ca4-0e21cd60ac4b" data-name="&lt;Grid Repeat&gt;"><circle cx="1274.53" cy="461.29" r="51.32" style="fill:none;stroke:#731d0e;stroke-miterlimit:10"/><ellipse cx="1274.53" cy="461.29" rx="33.87" ry="51.32" style="fill:none;stroke:#731d0e;stroke-miterlimit:10"/><ellipse cx="1274.53" cy="461.29" rx="15.34" ry="51.32" style="fill:none;stroke:#731d0e;stroke-miterlimit:10"/><circle cx="1161.3" cy="574.52" r="51.32" style="fill:none;stroke:#731d0e;stroke-miterlimit:10"/><ellipse cx="1161.3" cy="574.52" rx="33.87" ry="51.32" style="fill:none;stroke:#731d0e;stroke-miterlimit:10"/><ellipse cx="1161.3" cy="574.52" rx="15.34" ry="51.32" style="fill:none;stroke:#731d0e;stroke-miterlimit:10"/></g><g id="aa4cb99e-2e76-4417-b52a-8e41cbe0a5fb" data-name="&lt;Grid Repeat&gt;"><circle cx="1501.4" cy="461.29" r="51.32" style="fill:none;stroke:#731d0e;stroke-miterlimit:10"/><ellipse cx="1501.4" cy="461.29" rx="33.87" ry="51.32" style="fill:none;stroke:#731d0e;stroke-miterlimit:10"/><ellipse cx="1501.4" cy="461.29" rx="15.34" ry="51.32" style="fill:none;stroke:#731d0e;stroke-miterlimit:10"/><circle cx="1388.17" cy="574.52" r="51.32" style="fill:none;stroke:#731d0e;stroke-miterlimit:10"/><ellipse cx="1388.17" cy="574.52" rx="33.87" ry="51.32" style="fill:none;stroke:#731d0e;stroke-miterlimit:10"/><ellipse cx="1388.17" cy="574.52" rx="15.34" ry="51.32" style="fill:none;stroke:#731d0e;stroke-miterlimit:10"/></g><g id="a5e76e30-c885-4b91-bbea-02dcc5e1eb59" data-name="&lt;Grid Repeat&gt;"><circle cx="1728.28" cy="461.29" r="51.32" style="fill:none;stroke:#731d0e;stroke-miterlimit:10"/><ellipse cx="1728.28" cy="461.29" rx="33.87" ry="51.32" style="fill:none;stroke:#731d0e;stroke-miterlimit:10"/><ellipse cx="1728.28" cy="461.29" rx="15.34" ry="51.32" style="fill:none;stroke:#731d0e;stroke-miterlimit:10"/><circle cx="1615.04" cy="574.52" r="51.32" style="fill:none;stroke:#731d0e;stroke-miterlimit:10"/><ellipse cx="1615.04" cy="574.52" rx="33.87" ry="51.32" style="fill:none;stroke:#731d0e;stroke-miterlimit:10"/><ellipse cx="1615.04" cy="574.52" rx="15.34" ry="51.32" style="fill:none;stroke:#731d0e;stroke-miterlimit:10"/></g><g id="b0fd045e-c045-4343-a061-8b53fbc4a422" data-name="&lt;Grid Repeat&gt;"><circle cx="1955.15" cy="461.29" r="51.32" style="fill:none;stroke:#731d0e;stroke-miterlimit:10"/><circle cx="1841.91" cy="574.52" r="51.32" style="fill:none;stroke:#731d0e;stroke-miterlimit:10"/><ellipse cx="1841.91" cy="574.52" rx="33.87" ry="51.32" style="fill:none;stroke:#731d0e;stroke-miterlimit:10"/><ellipse cx="1841.91" cy="574.52" rx="15.34" ry="51.32" style="fill:none;stroke:#731d0e;stroke-miterlimit:10"/></g><g id="f250ca93-1710-48d0-97f4-dd0f32f27235" data-name="&lt;Grid Repeat&gt;"><circle cx="140.18" cy="688.16" r="51.32" style="fill:none;stroke:#731d0e;stroke-miterlimit:10"/><ellipse cx="140.18" cy="688.16" rx="33.87" ry="51.32" style="fill:none;stroke:#731d0e;stroke-miterlimit:10"/><ellipse cx="140.18" cy="688.16" rx="15.34" ry="51.32" style="fill:none;stroke:#731d0e;stroke-miterlimit:10"/><circle cx="26.94" cy="801.4" r="51.32" style="fill:none;stroke:#731d0e;stroke-miterlimit:10"/><ellipse cx="26.94" cy="801.4" rx="33.87" ry="51.32" style="fill:none;stroke:#731d0e;stroke-miterlimit:10"/><ellipse cx="26.94" cy="801.4" rx="15.34" ry="51.32" style="fill:none;stroke:#731d0e;stroke-miterlimit:10"/></g><g id="bba439f8-1ce7-4ea7-80e9-1fa475f79800" data-name="&lt;Grid Repeat&gt;"><circle cx="367.05" cy="688.16" r="51.32" style="fill:none;stroke:#731d0e;stroke-miterlimit:10"/><ellipse cx="367.05" cy="688.16" rx="33.87" ry="51.32" style="fill:none;stroke:#731d0e;stroke-miterlimit:10"/><ellipse cx="367.05" cy="688.16" rx="15.34" ry="51.32" style="fill:none;stroke:#731d0e;stroke-miterlimit:10"/><circle cx="253.82" cy="801.4" r="51.32" style="fill:none;stroke:#731d0e;stroke-miterlimit:10"/><ellipse cx="253.82" cy="801.4" rx="33.87" ry="51.32" style="fill:none;stroke:#731d0e;stroke-miterlimit:10"/><ellipse cx="253.82" cy="801.4" rx="15.34" ry="51.32" style="fill:none;stroke:#731d0e;stroke-miterlimit:10"/></g><g id="f9b0e3d9-7fdb-4f8a-a5bb-be1d94cddc0c" data-name="&lt;Grid Repeat&gt;"><circle cx="593.92" cy="688.16" r="51.32" style="fill:none;stroke:#731d0e;stroke-miterlimit:10"/><ellipse cx="593.92" cy="688.16" rx="33.87" ry="51.32" style="fill:none;stroke:#731d0e;stroke-miterlimit:10"/><ellipse cx="593.92" cy="688.16" rx="15.34" ry="51.32" style="fill:none;stroke:#731d0e;stroke-miterlimit:10"/><circle cx="480.69" cy="801.4" r="51.32" style="fill:none;stroke:#731d0e;stroke-miterlimit:10"/><ellipse cx="480.69" cy="801.4" rx="33.87" ry="51.32" style="fill:none;stroke:#731d0e;stroke-miterlimit:10"/><ellipse cx="480.69" cy="801.4" rx="15.34" ry="51.32" style="fill:none;stroke:#731d0e;stroke-miterlimit:10"/></g><g id="bf7389a9-a9a6-45d1-8ceb-7eee8f595c61" data-name="&lt;Grid Repeat&gt;"><circle cx="820.79" cy="688.16" r="51.32" style="fill:none;stroke:#731d0e;stroke-miterlimit:10"/><ellipse cx="820.79" cy="688.16" rx="33.87" ry="51.32" style="fill:none;stroke:#731d0e;stroke-miterlimit:10"/><ellipse cx="820.79" cy="688.16" rx="15.34" ry="51.32" style="fill:none;stroke:#731d0e;stroke-miterlimit:10"/><circle cx="707.56" cy="801.4" r="51.32" style="fill:none;stroke:#731d0e;stroke-miterlimit:10"/><ellipse cx="707.56" cy="801.4" rx="33.87" ry="51.32" style="fill:none;stroke:#731d0e;stroke-miterlimit:10"/><ellipse cx="707.56" cy="801.4" rx="15.34" ry="51.32" style="fill:none;stroke:#731d0e;stroke-miterlimit:10"/></g><g id="b9259660-d37e-4d06-a23e-157b3d39f262" data-name="&lt;Grid Repeat&gt;"><circle cx="1047.66" cy="688.16" r="51.32" style="fill:none;stroke:#731d0e;stroke-miterlimit:10"/><ellipse cx="1047.66" cy="688.16" rx="33.87" ry="51.32" style="fill:none;stroke:#731d0e;stroke-miterlimit:10"/><ellipse cx="1047.66" cy="688.16" rx="15.34" ry="51.32" style="fill:none;stroke:#731d0e;stroke-miterlimit:10"/><circle cx="934.43" cy="801.4" r="51.32" style="fill:none;stroke:#731d0e;stroke-miterlimit:10"/><ellipse cx="934.43" cy="801.4" rx="33.87" ry="51.32" style="fill:none;stroke:#731d0e;stroke-miterlimit:10"/><ellipse cx="934.43" cy="801.4" rx="15.34" ry="51.32" style="fill:none;stroke:#731d0e;stroke-miterlimit:10"/></g><g id="b75c0bc9-f594-4111-ae98-63198c738019" data-name="&lt;Grid Repeat&gt;"><circle cx="1274.53" cy="688.16" r="51.32" style="fill:none;stroke:#731d0e;stroke-miterlimit:10"/><ellipse cx="1274.53" cy="688.16" rx="33.87" ry="51.32" style="fill:none;stroke:#731d0e;stroke-miterlimit:10"/><ellipse cx="1274.53" cy="688.16" rx="15.34" ry="51.32" style="fill:none;stroke:#731d0e;stroke-miterlimit:10"/><circle cx="1161.3" cy="801.4" r="51.32" style="fill:none;stroke:#731d0e;stroke-miterlimit:10"/><ellipse cx="1161.3" cy="801.4" rx="33.87" ry="51.32" style="fill:none;stroke:#731d0e;stroke-miterlimit:10"/><ellipse cx="1161.3" cy="801.4" rx="15.34" ry="51.32" style="fill:none;stroke:#731d0e;stroke-miterlimit:10"/></g><g id="ae496136-b05a-4a64-9fa9-871ef35e90a2" data-name="&lt;Grid Repeat&gt;"><circle cx="1501.4" cy="688.16" r="51.32" style="fill:none;stroke:#731d0e;stroke-miterlimit:10"/><ellipse cx="1501.4" cy="688.16" rx="33.87" ry="51.32" style="fill:none;stroke:#731d0e;stroke-miterlimit:10"/><ellipse cx="1501.4" cy="688.16" rx="15.34" ry="51.32" style="fill:none;stroke:#731d0e;stroke-miterlimit:10"/><circle cx="1388.17" cy="801.4" r="51.32" style="fill:none;stroke:#731d0e;stroke-miterlimit:10"/><ellipse cx="1388.17" cy="801.4" rx="33.87" ry="51.32" style="fill:none;stroke:#731d0e;stroke-miterlimit:10"/><ellipse cx="1388.17" cy="801.4" rx="15.34" ry="51.32" style="fill:none;stroke:#731d0e;stroke-miterlimit:10"/></g><g id="b7ec2095-d48b-4a0f-be44-e824c499a171" data-name="&lt;Grid Repeat&gt;"><circle cx="1728.28" cy="688.16" r="51.32" style="fill:none;stroke:#731d0e;stroke-miterlimit:10"/><ellipse cx="1728.28" cy="688.16" rx="33.87" ry="51.32" style="fill:none;stroke:#731d0e;stroke-miterlimit:10"/><ellipse cx="1728.28" cy="688.16" rx="15.34" ry="51.32" style="fill:none;stroke:#731d0e;stroke-miterlimit:10"/><circle cx="1615.04" cy="801.4" r="51.32" style="fill:none;stroke:#731d0e;stroke-miterlimit:10"/><ellipse cx="1615.04" cy="801.4" rx="33.87" ry="51.32" style="fill:none;stroke:#731d0e;stroke-miterlimit:10"/><ellipse cx="1615.04" cy="801.4" rx="15.34" ry="51.32" style="fill:none;stroke:#731d0e;stroke-miterlimit:10"/></g><g id="a4316444-1cba-47e7-b539-ae4528330ef9" data-name="&lt;Grid Repeat&gt;"><circle cx="1955.15" cy="688.16" r="51.32" style="fill:none;stroke:#731d0e;stroke-miterlimit:10"/><circle cx="1841.91" cy="801.4" r="51.32" style="fill:none;stroke:#731d0e;stroke-miterlimit:10"/><ellipse cx="1841.91" cy="801.4" rx="33.87" ry="51.32" style="fill:none;stroke:#731d0e;stroke-miterlimit:10"/><ellipse cx="1841.91" cy="801.4" rx="15.34" ry="51.32" style="fill:none;stroke:#731d0e;stroke-miterlimit:10"/></g></g><rect x="-23.13" y="-44.08" width="1968.81" height="694" style="fill:none"/><circle cx="524.49" cy="420.31" r="51.32" style="fill:#9e6156"/><ellipse cx="524.49" cy="420.31" rx="33.87" ry="51.32" style="fill:#9e6156"/><ellipse cx="524.49" cy="420.31" rx="15.34" ry="51.32" style="fill:#9e6156"/></g></g></svg>