<svg id="Layer_6" data-name="Layer 6" xmlns="http://www.w3.org/2000/svg" xmlns:xlink="http://www.w3.org/1999/xlink" viewBox="0 0 204.9 219"><defs><style>.cls-1{fill:url(#linear-gradient);}.cls-2{fill:url(#radial-gradient);}.cls-3{fill:url(#radial-gradient-2);}.cls-4{fill:url(#radial-gradient-3);}.cls-5{fill:url(#radial-gradient-4);}.cls-6{fill:url(#radial-gradient-5);}.cls-7{fill:url(#linear-gradient-2);}.cls-8{fill:url(#linear-gradient-3);}.cls-9{fill:url(#linear-gradient-4);}.cls-10{fill:#e8422a;}.cls-11{fill:#ef7966;}.cls-12{fill:#fff;opacity:0.27;isolation:isolate;}.cls-13{fill:#0b3d00;opacity:0.37;}</style><linearGradient id="linear-gradient" x1="44.57" y1="132.17" x2="163.39" y2="132.17" gradientUnits="userSpaceOnUse"><stop offset="0" stop-color="#9ac76a"/><stop offset="1" stop-color="#489439"/></linearGradient><radialGradient id="radial-gradient" cx="59.75" cy="103.09" r="20.17" gradientUnits="userSpaceOnUse"><stop offset="0.02" stop-color="#e6d975"/><stop offset="0.5" stop-color="#e6ce04"/><stop offset="0.68" stop-color="#e3cd08"/><stop offset="0.86" stop-color="#dbca14"/><stop offset="1" stop-color="#d1c722"/></radialGradient><radialGradient id="radial-gradient-2" cx="71.03" cy="127.18" r="30.4" xlink:href="#radial-gradient"/><radialGradient id="radial-gradient-3" cx="146.53" cy="155.29" r="26.36" xlink:href="#radial-gradient"/><radialGradient id="radial-gradient-4" cx="88.43" cy="141.66" r="42.15" xlink:href="#radial-gradient"/><radialGradient id="radial-gradient-5" cx="122.82" cy="138.67" r="44.04" xlink:href="#radial-gradient"/><linearGradient id="linear-gradient-2" x1="42.89" y1="79.39" x2="165.2" y2="79.39" gradientUnits="userSpaceOnUse"><stop offset="0" stop-color="#abdc75"/><stop offset="1" stop-color="#52a941"/></linearGradient><linearGradient id="linear-gradient-3" x1="42.77" y1="70.99" x2="165.2" y2="70.99" xlink:href="#linear-gradient-2"/><linearGradient id="linear-gradient-4" x1="42.77" y1="60.58" x2="165.19" y2="60.58" gradientUnits="userSpaceOnUse"><stop offset="0" stop-color="#9fce6e"/><stop offset="1" stop-color="#4b9b3c"/></linearGradient></defs><path class="cls-1" d="M44.57,73.43v92.79c0,13.64,26.6,24.69,59.41,24.69s59.41-11,59.41-24.69V73.43Z"/><path class="cls-2" d="M44.63,127.28l1.57-1.58A147.49,147.49,0,0,0,72.93,88.81c1.59-3.13,3-7.16.82-9.91,1,1.22-9.33,14.47-10.47,16-5.05,6.71-11.4,15.32-18.65,20.76Z"/><path class="cls-3" d="M96.68,98.76a6.07,6.07,0,0,0,.69-3.67c-.28-1.23-1.7-2.27-2.83-1.68a3.22,3.22,0,0,0-1.12,1.28,156.13,156.13,0,0,1-46.78,49,13.7,13.7,0,0,1-2,1.16v16.26l.57-.37A140.31,140.31,0,0,0,96.68,98.76Z"/><path class="cls-4" d="M163.45,122.06c-6.1,17.55-13.15,34.78-22.58,50.77a93.43,93.43,0,0,1-11.25,15.68c8.83-1.75,16.46-4.39,22.22-7.63.06-.12.11-.25.16-.38A311.84,311.84,0,0,0,163.45,147Z"/><path class="cls-5" d="M68.85,185.86c3-4.18,7-7.44,10.9-10.81a183,183,0,0,0,42.89-55c2.71-5.33,5.2-11,5.55-16.93.16-2.63-1.06-6.15-3.68-5.85-1.67.19-2.67,1.9-3.42,3.4-9,18-21.21,34.34-34.84,49.19C77.78,159.09,68.47,168,57,173.06a21.41,21.41,0,0,1-8.34,2.15c4.1,4.36,11.1,8.11,20,10.86Z"/><path class="cls-6" d="M106.83,190.88a38.74,38.74,0,0,1,3.6-6.08c14.81-21.84,27.09-45.29,38.8-68.93,3.94-8,7.92-16.36,7.48-25.22-.1-2-1.28-4.66-3.25-4.16-1.07.27-1.66,1.39-2.07,2.42-2.36,5.81-3.47,12-5.36,18a121.93,121.93,0,0,1-9.22,20.65A395.1,395.1,0,0,1,115.35,163c-4.84,7.1-9.95,14.1-16.33,19.86A52,52,0,0,1,88.9,190.1a141.78,141.78,0,0,0,15.14.81Q105.45,190.91,106.83,190.88Z"/><path class="cls-7" d="M165.2,79.39c0,14.1-27.41,25.53-61.22,25.53S42.89,95.11,42.89,81,70.17,53.87,104,53.87,165.2,65.29,165.2,79.39Z"/><polygon class="cls-8" points="42.89 81.01 42.77 60.97 165.2 60.97 165.2 79.39 42.89 81.01"/><ellipse class="cls-9" cx="103.98" cy="60.58" rx="61.21" ry="20.43"/><polygon class="cls-10" points="105.78 81 104.04 190.91 109.97 190.91 109.97 80.92 105.78 81"/><polygon class="cls-11" points="105.78 81 105.26 40.15 107 40.17 109.97 80.92 105.78 81"/><polygon class="cls-11" points="42.77 60.58 164.97 58.81 164.53 57.56 42.89 59.07 42.77 60.58"/><path class="cls-10" d="M115.59,41.92a30.68,30.68,0,0,1,13.68-9.81c3.2-1.06,6.8-1.42,9.9-.1s5.48,4.69,4.87,8a9.06,9.06,0,0,1-1.44,3.27c-3.74,5.62-10.48,8.33-16.84,10.59a93.81,93.81,0,0,1-16.61,4.68,2.17,2.17,0,0,1-1.42-.1c-.42-.25-.6-.93-.2-1.22a1.2,1.2,0,0,1,.45-.15c9.15-1.73,17.65-5.84,26-10a20,20,0,0,0,4.65-3A6.74,6.74,0,0,0,141,39.24c0-3.24-3.38-5.7-6.63-5.82s-6.29,1.49-9,3.33a48.14,48.14,0,0,0-11,10.51,47.53,47.53,0,0,0-4,6.3c-.74,1.36-1.44,4.33-2.73,5.14-.6-1.84.81-4.83,1.59-6.48A48.5,48.5,0,0,1,115.59,41.92Z"/><path class="cls-10" d="M114.87,68.4a22.34,22.34,0,0,0,9.86,4,13.25,13.25,0,0,0,10.06-2.75,2.07,2.07,0,0,0,.79-1.11c.17-.94-.85-1.67-1.78-1.91a7.77,7.77,0,0,0-8,3.33,12.26,12.26,0,0,0-1.69,8.82c.73,4.7,3.66,9.18,8,11a15.68,15.68,0,0,0,6.71,1.06A13,13,0,0,0,145.53,89c.74-.49,1.48-1.33,1.17-2.16a1.9,1.9,0,0,0-.81-.87,7.91,7.91,0,0,0-6.54-.4,17,17,0,0,0-7.83,5.67,20.26,20.26,0,0,0-4.28,16A17.16,17.16,0,0,0,137.44,120c3.91,1.54,8.24,1.44,12.44,1.32a4.78,4.78,0,0,0-.13-1.92,37.94,37.94,0,0,1-9.71-1.32,19,19,0,0,1-5.57-2.39,14.63,14.63,0,0,1-6-13.13,19.52,19.52,0,0,1,6.94-13c1.89-1.63,4.26-3,6.74-2.73a1.13,1.13,0,0,1,1,.55c.27.66-.62,1.17-1.31,1.31-4.29.85-9.28.43-12.2-2.81-2.19-2.43-2.74-5.88-3-9.14a11.49,11.49,0,0,1,.63-6.14c.92-1.87,3.2-3.23,5.13-2.44.38.15.77.49.7.89s-.44.54-.78.66a16.64,16.64,0,0,1-20.44-8.08c-.45-.88-1.63-3.87-2.88-3.87s-.54,1.92-.36,2.69C109.44,63.88,112,66.48,114.87,68.4Z"/><path class="cls-10" d="M98.45,61.92a22.5,22.5,0,0,0-5.81,8.9,13.3,13.3,0,0,0,.74,10.4,2,2,0,0,0,.93,1c.89.36,1.8-.5,2.22-1.37a7.73,7.73,0,0,0-1.71-8.47A12.23,12.23,0,0,0,86.5,69c-4.75-.2-9.72,1.8-12.39,5.73a15.73,15.73,0,0,0-2.34,6.38,12.89,12.89,0,0,0,.5,6.88c.33.82,1,1.71,1.89,1.57a1.93,1.93,0,0,0,1-.63,7.87,7.87,0,0,0,1.67-6.33,17,17,0,0,0-4-8.79A20.26,20.26,0,0,0,58,66.5,17.16,17.16,0,0,0,43.43,74c-2.27,3.53-3,7.8-3.73,11.94a4.75,4.75,0,0,0,1.91.25,38,38,0,0,1,3.19-9.26,18.61,18.61,0,0,1,3.43-5,14.64,14.64,0,0,1,14.05-3.31A19.59,19.59,0,0,1,73.68,78c1.23,2.17,2.12,4.76,1.35,7.14-.12.38-.34.79-.73.87-.7.13-1-.84-1-1.55,0-4.36,1.38-9.18,5.14-11.41,2.8-1.67,6.29-1.54,9.54-1.19,2.07.22,4.24.55,5.9,1.82s2.55,3.76,1.4,5.5c-.23.34-.63.67-1,.51s-.44-.53-.49-.88a16.62,16.62,0,0,1,11.9-18.48c1-.27,4.12-.85,4.36-2.08s-1.78-.9-2.57-.87C103.94,57.48,100.88,59.52,98.45,61.92Z"/><path class="cls-12" d="M52.36,107.71a30.21,30.21,0,0,0-.34,8c.41,9.23.58,18.55-1.13,27.63-.7,3.67-1.7,7.3-1.94,11S49.31,162,51.53,165s6.34,4.79,9.85,3.51,5.44-5,5.78-8.69-.64-7.29-1.4-10.88a97.58,97.58,0,0,1-2-24.23,65.93,65.93,0,0,0,.11-9,18.68,18.68,0,0,0-4.74-10.52C56.5,102.15,53.18,104.13,52.36,107.71Z"/><path class="cls-12" d="M52.8,57.6a7.94,7.94,0,0,0,2.13-1.4c6.94-5.52,16-7.57,24.88-8.21a39.8,39.8,0,0,0,7.29-.89,1.52,1.52,0,0,0,1.1-.71,1.08,1.08,0,0,0-.61-1.29,3,3,0,0,0-1.53-.19A138,138,0,0,0,66,47.31a41.51,41.51,0,0,0-8.88,2.53,18.79,18.79,0,0,0-6.21,4.29c-.75.79-1.49,1.57-.87,2.68A2.23,2.23,0,0,0,52.8,57.6Z"/><path class="cls-10" d="M100.6,41.08c-2.88-5.44-7.2-10.53-13.07-12.37a10.85,10.85,0,0,0-6.55-.2,11.6,11.6,0,0,0-3.84,2.24c-3.2,2.63-5.69,6.46-5.62,10.6s2.9,8.1,6.44,10.46,7.77,3.47,11.93,4.39A159.44,159.44,0,0,0,105.7,59a4.92,4.92,0,0,0,2.61-.14c-.61-1.5-2.56-1.78-4.17-1.93-6.93-.66-13.53-3.16-20-5.63a27.73,27.73,0,0,1-6-2.85,9.29,9.29,0,0,1-3.91-5.17,9.63,9.63,0,0,1,0-4c.58-3.15,2.43-6.32,5.45-7.39a9.55,9.55,0,0,1,4.08-.34c5.23.55,10,3.64,13.36,7.64A45.12,45.12,0,0,1,104.53,53c.74,2.06,1.49,4.58,3.29,6,1-.74-2.55-7.23-3.08-8.54A95.74,95.74,0,0,0,100.6,41.08Z"/><path class="cls-13" d="M44.57,85.84s22.77,23,68.94,18.79,49.88-20.12,49.88-20.12V97.74s-12.78,16.23-45.23,17c-51.81,1.25-73.59-27-73.59-27Z"/></svg>