<svg id="Layer_8" data-name="Layer 8" xmlns="http://www.w3.org/2000/svg" viewBox="0 0 204.9 219"><defs><style>.cls-1{fill:#e54141;}.cls-2{fill:#f75454;}.cls-3{fill:#cc3939;opacity:0.25;}.cls-4{fill:#fff;opacity:0.11;}</style></defs><path class="cls-1" d="M72.9,169.84a57.87,57.87,0,0,1-14.26-5.79c-2.81-1.65-7.52-5-7.52-8.67l.93.13c0,3.4,4.45,6.51,7.09,8.06,9.08,5.33,21.67,8.31,35.43,8.41,4.31,0,10.57-.18,15.2-2.29,3.77-1.72,6.87-5.29,5.28-9.41a19.67,19.67,0,0,0-2.67-4.3c-1.79-2.42-3.64-4.93-2.82-7.28.73-2.07,3.61-3.47,7.35-3.56,5.51-.13,10.91,2.22,16.13,4.49,4.65,2,9.46,4.12,14.32,4.43,7.13.46,12.91-3.57,12.38-8.63-.62-5.84-8.31-11-15.65-13.57-5.7-2-11.79-2.94-17.68-3.87-2.18-.34-4.44-.7-6.64-1.1l-1.54-.3a11.62,11.62,0,0,1-5.94,2,45.38,45.38,0,0,1-10.35-.75v-.66a44.1,44.1,0,0,0,10,.74,11.51,11.51,0,0,0,5.09-1.52c-9.16-1.93-15.77-4.76-20.14-8.61-.85-.75-2.78-2.68-2.45-4.43.3-1.56,2-2.47,4.58-2.45,3.81,0,8.11,1.26,13.14,3.74,4.52,2.22,9.23,6.2,7.59,10.07a4.32,4.32,0,0,1-1,1.38l1,.18c2.19.4,4.44.76,6.61,1.1,5.95.94,12.11,1.92,17.92,3.93,7.66,2.66,15.67,8.09,16.32,14.24.57,5.4-5.6,9.71-13.21,9.22-5.1-.33-10-2.48-14.78-4.55-5.32-2.31-10.33-4.5-15.55-4.37-3.4.08-6,1.33-6.66,3.17-.74,2.11.94,4.38,2.72,6.78a20.43,20.43,0,0,1,2.76,4.47c1.7,4.41-1.57,8.22-5.57,10-4.8,2.19-11.22,2.41-15.63,2.37A87.25,87.25,0,0,1,72.9,169.84Zm31.68-57.51a21.57,21.57,0,0,0-5.33-.79c-2.16,0-3.59.72-3.83,2-.28,1.49,1.45,3.2,2.2,3.86,4.31,3.8,10.91,6.57,20.16,8.46a4.15,4.15,0,0,0,1.12-1.47c1.48-3.52-2.91-7.18-7.11-9.25A39.68,39.68,0,0,0,104.58,112.33Z"/><path class="cls-2" d="M142.72,109.46a50.13,50.13,0,1,1-6.1-39.83A50.11,50.11,0,0,1,142.72,109.46Z"/><path class="cls-1" d="M101.77,46.92A267.8,267.8,0,0,0,58.53,61.39c1.06-1.09,2.17-2.11,3.32-3.08A269.62,269.62,0,0,1,97.14,46.44,45.41,45.41,0,0,1,101.77,46.92Z"/><path class="cls-1" d="M113,50A264,264,0,0,0,58.34,67.1c-2.26,1-4.47,2-6.64,3,.52-.84,1-1.65,1.62-2.45,1.44-.66,2.91-1.32,4.4-2A266.17,266.17,0,0,1,110.05,48.9C111.05,49.22,112,49.58,113,50Z"/><path class="cls-1" d="M120.89,54A260.12,260.12,0,0,0,59.12,72.4c-3.89,1.69-7.64,3.43-11.22,5.18.29-.74.62-1.46,1-2.18Q53.52,73.16,58.5,71a261.93,261.93,0,0,1,60.22-18.27C119.46,53.11,120.19,53.54,120.89,54Z"/><path class="cls-1" d="M127,58.47A259.18,259.18,0,0,0,59.89,77.69c-3.47,1.51-6.83,3-10,4.61L47.6,83.39c-.64.31-1.27.63-1.9,1,.07-.29.14-.56.22-.84s.09-.35.14-.53l.18-.62,1.31-.64c3.74-1.84,7.66-3.66,11.72-5.43a260.11,260.11,0,0,1,66-19.2C125.88,57.53,126.44,58,127,58.47Z"/><path class="cls-1" d="M131.81,63.23A257.62,257.62,0,0,0,60.67,83l-2.79,1.23-2.47,1.12Q52.64,86.63,50,87.91L47.74,89l-3.19,1.6c.06-.62.15-1.25.25-1.86l.7-.35c.73-.37,1.44-.73,2.18-1.09Q50.27,86,53,84.77c.79-.38,1.59-.74,2.39-1.11q2.31-1.05,4.68-2.09a260.12,260.12,0,0,1,67-19.34c1.15-.16,2.29-.32,3.44-.46C130.93,62.25,131.38,62.73,131.81,63.23Z"/><path class="cls-1" d="M63.91,57.46c.24.46.48.92.74,1.38l-1.45.58c-.26-.45-.5-.91-.74-1.36Z"/><path class="cls-1" d="M66.44,62.06c.25.46.51.91.78,1.36L65.73,64c-.26-.45-.51-.9-.76-1.35Z"/><path class="cls-1" d="M69.91,68l-1.5.59-.81-1.34c.5-.21,1-.4,1.49-.59C69.36,67.07,69.63,67.52,69.91,68Z"/><path class="cls-1" d="M72.74,72.47l-1.52.59-.84-1.34,1.5-.58C72.17,71.6,72.45,72,72.74,72.47Z"/><path class="cls-1" d="M129.21,132.45l-1.15,1.09a249.54,249.54,0,0,1-33-29.76A220.75,220.75,0,0,1,74.17,77.53c-.31-.44-.6-.88-.9-1.33l1.54-.58c.29.46.59.9.89,1.34C91.72,100.47,111,118.72,129.21,132.45Z"/><path class="cls-1" d="M68.77,55.55q.36.69.75,1.38l-1.46.56c-.26-.46-.52-.92-.75-1.37Z"/><path class="cls-1" d="M71.35,60.17c.26.45.53.91.8,1.35l-1.48.56c-.28-.44-.54-.9-.8-1.35Z"/><path class="cls-1" d="M74.91,66.09l-1.51.55c-.27-.44-.55-.89-.82-1.35l1.5-.56Z"/><path class="cls-1" d="M77.82,70.62l-1.53.55c-.3-.44-.59-.89-.88-1.34l1.53-.55C77.23,69.74,77.53,70.18,77.82,70.62Z"/><path class="cls-1" d="M132.82,128.57c-.34.4-.68.8-1,1.19a249,249,0,0,1-32.86-29.64A220.66,220.66,0,0,1,79.31,75.67l-.92-1.34c.52-.18,1-.37,1.56-.54l.92,1.33A238.55,238.55,0,0,0,132.82,128.57Z"/><path class="cls-1" d="M73.69,53.72c.24.46.5.92.77,1.38-.5.17-1,.36-1.49.54-.26-.46-.52-.92-.77-1.38Z"/><path class="cls-1" d="M76.34,58.35l.81,1.36-1.51.53-.81-1.35Z"/><path class="cls-1" d="M80,64.29l-1.54.53c-.28-.45-.57-.9-.85-1.36l1.53-.52C79.42,63.4,79.71,63.85,80,64.29Z"/><path class="cls-1" d="M83,68.85c-.53.17-1,.34-1.56.52-.3-.44-.6-.89-.89-1.35l1.55-.52C82.38,68,82.67,68.4,83,68.85Z"/><path class="cls-1" d="M136,124.34c-.29.43-.59.87-.9,1.29a249.39,249.39,0,0,1-32.24-29.15,220.18,220.18,0,0,1-18.3-22.59c-.32-.44-.64-.89-1-1.35L85.17,72c.31.45.63.9,1,1.34A239.3,239.3,0,0,0,136,124.34Z"/><path class="cls-1" d="M78.68,52c.26.47.53.94.8,1.38L78,53.87c-.27-.46-.53-.92-.79-1.38Z"/><path class="cls-1" d="M81.41,56.61,82.24,58l-1.54.52-.82-1.37C80.39,56.94,80.9,56.78,81.41,56.61Z"/><path class="cls-1" d="M85.17,62.58l-1.57.51-.88-1.36,1.57-.51C84.58,61.68,84.87,62.14,85.17,62.58Z"/><path class="cls-1" d="M88.24,67.16l-1.59.5-.92-1.35,1.58-.51Z"/><path class="cls-1" d="M138.69,119.77c-.24.47-.49.94-.76,1.4a248.56,248.56,0,0,1-31.17-28.34A224.54,224.54,0,0,1,89.85,72.21l-1-1.36,1.62-.49,1,1.36A239.73,239.73,0,0,0,138.69,119.77Z"/><path class="cls-1" d="M83.74,50.31c.27.47.55.92.82,1.38l-1.54.5c-.27-.46-.55-.92-.81-1.39Z"/><path class="cls-1" d="M86.55,55l.87,1.39-1.56.48c-.3-.45-.58-.91-.86-1.38Z"/><path class="cls-1" d="M90.43,61l-1.6.47c-.3-.46-.61-.91-.9-1.37l1.59-.49C89.82,60.06,90.12,60.52,90.43,61Z"/><path class="cls-1" d="M93.6,65.58,92,66.05c-.32-.46-.64-.91-1-1.38l1.61-.47Z"/><path class="cls-1" d="M141,114.83c-.2.5-.41,1-.62,1.51a245.6,245.6,0,0,1-29.65-27.16,222.24,222.24,0,0,1-15.4-18.57l-1-1.35c.55-.17,1.1-.32,1.65-.47.34.46.68.92,1,1.36A239.17,239.17,0,0,0,141,114.83Z"/><path class="cls-1" d="M88,49q.44.7.87,1.38l-1.57.47q-.43-.68-.87-1.38Z"/><path class="cls-1" d="M91,53.63c.3.47.61.94.92,1.39l-1.6.46c-.31-.45-.61-.91-.92-1.38Z"/><path class="cls-1" d="M95.11,59.64c-.55.14-1.1.3-1.64.45l-1-1.37,1.63-.46Z"/><path class="cls-1" d="M142.72,109.46l-.33,1.16a247.51,247.51,0,0,1-30.56-27.88q-6.08-6.55-11.52-13.48l-1.08-1.37,1.71-.45c.36.47.72.92,1.08,1.38A242.75,242.75,0,0,0,142.84,109Z"/><path class="cls-1" d="M93.27,47.48c.29.47.6.94.9,1.4l-1.6.44-.9-1.39C92.2,47.77,92.73,47.63,93.27,47.48Z"/><path class="cls-1" d="M96.35,52.15c.31.46.63.93,1,1.4L95.67,54c-.32-.46-.63-.93-1-1.4Z"/><path class="cls-1" d="M100.61,58.18l-1.67.43c-.34-.45-.67-.92-1-1.39l1.67-.43C99.93,57.26,100.27,57.73,100.61,58.18Z"/><path class="cls-1" d="M143.71,104.94a246.89,246.89,0,0,1-28-25.85Q110.66,73.6,106,67.85l-1.11-1.39,1.74-.41c.37.47.75.93,1.12,1.39A243,243,0,0,0,144,103.14C143.91,103.74,143.81,104.33,143.71,104.94Z"/><path class="cls-1" d="M99,46.57q.3.47.6.9c-.55.13-1.09.27-1.63.42L97,46.47l.14,0C97.74,46.47,98.35,46.52,99,46.57Z"/><path class="cls-1" d="M101.81,50.76l1,1.41-1.66.4-1-1.41Z"/><path class="cls-1" d="M106.23,56.84l-1.71.4-1-1.41,1.7-.4Q105.69,56.15,106.23,56.84Z"/><path class="cls-1" d="M144.38,98.67a244.16,244.16,0,0,1-24.72-23.22c-2.69-2.92-5.31-5.89-7.82-8.91-.38-.46-.77-.92-1.15-1.39.6-.14,1.2-.25,1.79-.38.39.48.78.94,1.17,1.41a241.83,241.83,0,0,0,30.79,30.48Q144.44,97.67,144.38,98.67Z"/><path class="cls-1" d="M107.41,49.47c.35.47.69.94,1,1.42l-1.71.37-1-1.41C106.28,49.71,106.85,49.58,107.41,49.47Z"/><path class="cls-1" d="M112,55.6l-1.76.37-1.07-1.42,1.74-.37C111.26,54.66,111.63,55.13,112,55.6Z"/><path class="cls-1" d="M144.2,91.59A242.16,242.16,0,0,1,123.57,71.8q-2.92-3.18-5.72-6.44c-.4-.46-.8-.94-1.2-1.41l1.84-.34L119.71,65a240.23,240.23,0,0,0,24.2,24.2C144,90,144.13,90.8,144.2,91.59Z"/><path class="cls-1" d="M112.14,49.65,113,50l-.51.11Z"/><path class="cls-1" d="M117.9,54.49l-1.8.33c-.38-.48-.75-1-1.12-1.44l1.79-.33Z"/><path class="cls-1" d="M142.62,83.12q-8-7.23-15.12-15-1.75-1.89-3.46-3.83c-.42-.48-.85-1-1.26-1.44l1.89-.29L125.94,64c5.13,5.75,10.41,11.08,15.73,16C142,81.06,142.33,82.08,142.62,83.12Z"/><path class="cls-1" d="M63.91,57.46c.24.46.48.92.74,1.38l-1.45.58c-.26-.45-.5-.91-.74-1.36Z"/><path class="cls-1" d="M66.44,62.06c.25.46.51.91.78,1.36L65.73,64c-.26-.45-.51-.9-.76-1.35Z"/><path class="cls-1" d="M69.91,68l-1.5.59-.81-1.34c.5-.21,1-.4,1.49-.59C69.36,67.07,69.63,67.52,69.91,68Z"/><path class="cls-1" d="M72.74,72.47l-1.52.59-.84-1.34,1.5-.58C72.17,71.6,72.45,72,72.74,72.47Z"/><path class="cls-1" d="M129.21,132.45l-1.11,1.05,0,0s0,0-.05,0l-1.88-1.44c-1.48-1.14-2.94-2.28-4.39-3.45-.62-.49-1.23-1-1.84-1.49q-2.18-1.77-4.28-3.58c-.61-.51-1.21-1-1.79-1.54-1.42-1.23-2.8-2.46-4.17-3.7l-1.73-1.6c-1.47-1.36-2.91-2.73-4.33-4.13q-.82-.8-1.65-1.62c-1.28-1.26-2.54-2.55-3.78-3.85-.55-.55-1.08-1.11-1.61-1.67L95,103.78q-1-1.14-2.07-2.28c-.52-.57-1-1.15-1.55-1.74-1.17-1.32-2.32-2.65-3.45-4-.5-.57-1-1.16-1.48-1.77-1.11-1.34-2.21-2.71-3.29-4.09-.47-.6-.94-1.19-1.4-1.8q-4-5.17-7.6-10.55c-.31-.44-.6-.88-.9-1.33l1.54-.58c.29.46.59.9.89,1.34q4,5.88,8.29,11.34c.46.61.93,1.2,1.41,1.79,1.09,1.37,2.2,2.73,3.31,4,.49.6,1,1.19,1.48,1.77,1.15,1.35,2.32,2.68,3.48,4,.52.58,1,1.15,1.56,1.71,1.2,1.34,2.42,2.64,3.64,3.91.53.56,1.07,1.11,1.6,1.66,1.26,1.3,2.53,2.56,3.8,3.81l1.64,1.61c1.46,1.4,2.91,2.77,4.37,4.11l1.74,1.57q2.07,1.88,4.16,3.67c.59.51,1.19,1,1.79,1.52,1.42,1.21,2.85,2.39,4.27,3.54l1.83,1.47c1.47,1.17,2.94,2.3,4.39,3.41Z"/><path class="cls-1" d="M68.77,55.55q.36.69.75,1.38l-1.46.56c-.26-.46-.52-.92-.75-1.37Z"/><path class="cls-1" d="M71.35,60.17c.26.45.53.91.8,1.35l-1.48.56c-.28-.44-.54-.9-.8-1.35Z"/><path class="cls-1" d="M74.91,66.09l-1.51.55c-.27-.44-.55-.89-.82-1.35l1.5-.56Z"/><path class="cls-1" d="M77.82,70.62l-1.53.55c-.3-.44-.59-.89-.88-1.34l1.53-.55C77.23,69.74,77.53,70.18,77.82,70.62Z"/><path class="cls-1" d="M102.73,101.81l-2.27,0c-.51-.54-1-1.09-1.53-1.65,0,0,0,0,0,0l2.26.06Z"/><path class="cls-1" d="M132.82,128.57c-.34.4-.68.8-1,1.19l-2.23-1.71c-.62-.47-1.23-1-1.84-1.43q-2.18-1.71-4.29-3.45l-1.78-1.47q-2.12-1.77-4.18-3.58l-1.74-1.52c-1.52-1.36-3-2.72-4.49-4.1l-1.65-1.56q-1.94-1.84-3.83-3.72l2.28,0c1.28,1.26,2.55,2.49,3.84,3.69.55.53,1.1,1,1.66,1.54,1.5,1.4,3,2.76,4.51,4.09l1.74,1.51c1.4,1.21,2.79,2.38,4.17,3.53.61.49,1.2,1,1.8,1.47q2.14,1.74,4.26,3.39.91.72,1.83,1.41Z"/><path class="cls-1" d="M73.69,53.72c.24.46.5.92.77,1.38-.5.17-1,.36-1.49.54-.26-.46-.52-.92-.77-1.38Z"/><path class="cls-1" d="M76.34,58.35l.81,1.36-1.51.53-.81-1.35Z"/><path class="cls-1" d="M80,64.29l-1.54.53c-.28-.45-.57-.9-.85-1.36l1.53-.52C79.42,63.4,79.71,63.85,80,64.29Z"/><path class="cls-1" d="M83,68.85c-.53.17-1,.34-1.56.52-.3-.44-.6-.89-.89-1.35l1.55-.52C82.38,68,82.67,68.4,83,68.85Z"/><path class="cls-1" d="M136,124.34c-.29.43-.59.87-.9,1.29-1.32-1-2.63-2-3.94-3l-1.78-1.42c-1.4-1.13-2.8-2.27-4.17-3.43l-1.74-1.47q-2.36-2-4.63-4.06l-1.66-1.5c-1.31-1.19-2.6-2.4-3.87-3.61-.54-.52-1.08-1-1.61-1.56q-1.89-1.83-3.74-3.71l-1.57-1.61c-1.19-1.23-2.36-2.47-3.53-3.73l0-.06c-.51-.55-1-1.1-1.52-1.66-1.16-1.27-2.3-2.57-3.43-3.87-.49-.56-1-1.13-1.44-1.69q-6.32-7.44-11.86-15.31c-.32-.44-.64-.89-1-1.35L85.17,72c.31.45.63.9,1,1.34,4,5.62,8.19,10.92,12.49,15.92.48.57,1,1.13,1.46,1.68,1.14,1.31,2.29,2.58,3.44,3.84.51.55,1,1.09,1.52,1.64,1.2,1.27,2.39,2.53,3.59,3.76l1.57,1.59c1.25,1.24,2.49,2.47,3.75,3.67l1.61,1.54c1.29,1.21,2.57,2.41,3.86,3.57l1.66,1.49q2.34,2.07,4.67,4l1.73,1.46c1.4,1.15,2.79,2.29,4.18,3.39.59.48,1.18,1,1.78,1.41C134.29,123,135.13,123.7,136,124.34Z"/><path class="cls-1" d="M78.68,52c.26.47.53.94.8,1.38L78,53.87c-.27-.46-.53-.92-.79-1.38Z"/><path class="cls-1" d="M81.41,56.61,82.24,58l-1.54.52-.82-1.37C80.39,56.94,80.9,56.78,81.41,56.61Z"/><path class="cls-1" d="M85.17,62.58l-1.57.51-.88-1.36,1.57-.51C84.58,61.68,84.87,62.14,85.17,62.58Z"/><path class="cls-1" d="M88.24,67.16l-1.59.5-.92-1.35,1.58-.51Z"/><path class="cls-1" d="M107.36,91.07c-.74,0-1.48,0-2.21,0l-1.48-1.65q-7.4-8.34-13.82-17.21l-1-1.36,1.62-.49,1,1.36a226.19,226.19,0,0,0,14.39,17.72C106.37,90,106.86,90.54,107.36,91.07Z"/><path class="cls-1" d="M138.69,119.77c-.08.16-.16.32-.25.48-.16.31-.33.62-.51.92l-1-.75c-1.41-1.08-2.8-2.19-4.18-3.3-.58-.47-1.16-.94-1.73-1.42q-2.43-2-4.77-4c-.56-.48-1.11-1-1.65-1.45-1.32-1.15-2.61-2.32-3.9-3.49-.54-.5-1.08-1-1.61-1.5.75,0,1.49-.07,2.23-.12l1.62,1.48c1.29,1.17,2.58,2.33,3.88,3.45l1.65,1.43c1.59,1.37,3.2,2.7,4.79,4L135,116.9Z"/><path class="cls-1" d="M83.74,50.31c.27.47.55.92.82,1.38l-1.54.5c-.27-.46-.55-.92-.81-1.39Z"/><path class="cls-1" d="M86.55,55l.87,1.39-1.56.48c-.3-.45-.58-.91-.86-1.38Z"/><path class="cls-1" d="M90.43,61l-1.6.47c-.3-.46-.61-.91-.9-1.37l1.59-.49C89.82,60.06,90.12,60.52,90.43,61Z"/><path class="cls-1" d="M93.6,65.58,92,66.05c-.32-.46-.64-.91-1-1.38l1.61-.47Z"/><path class="cls-1" d="M113.1,89.4c.49.53,1,1,1.48,1.57-.72,0-1.44,0-2.17.06-.5-.53-1-1-1.49-1.59l-.24-.26a222.24,222.24,0,0,1-15.4-18.57l-1-1.35c.55-.17,1.1-.32,1.65-.47.34.46.68.92,1,1.36A226.16,226.16,0,0,0,113.09,89.4Z"/><path class="cls-1" d="M140.35,116.29s0,0,0,0l-.05,0Z"/><path class="cls-1" d="M88,49q.44.7.87,1.38l-1.57.47q-.43-.68-.87-1.38Z"/><path class="cls-1" d="M91,53.63c.3.47.61.94.92,1.39l-1.6.46c-.31-.45-.61-.91-.92-1.38Z"/><path class="cls-1" d="M95.11,59.64c-.55.14-1.1.3-1.64.45l-1-1.37,1.63-.46Z"/><path class="cls-1" d="M142.72,109.46c0,.13-.07.26-.12.39s-.13.52-.21.77l-.79-.62c-.58-.45-1.15-.89-1.71-1.35-1.35-1.06-2.68-2.14-4-3.22L134.23,104c-1.31-1.1-2.62-2.22-3.91-3.34l-1.62-1.43c-1.28-1.15-2.56-2.29-3.8-3.46-.54-.49-1.07-1-1.59-1.49-1.24-1.16-2.47-2.34-3.67-3.54-.53-.5-1-1-1.55-1.53q-3.21-3.21-6.26-6.51-6.08-6.55-11.52-13.48l-1.08-1.37,1.71-.45c.36.47.72.92,1.08,1.38a232.34,232.34,0,0,0,18.26,20.33c.51.52,1,1,1.54,1.53,1.23,1.19,2.45,2.35,3.68,3.5l1.6,1.48c1.26,1.16,2.52,2.3,3.79,3.4l1.62,1.43c1.31,1.12,2.61,2.23,3.9,3.31l1.67,1.37c1.33,1.09,2.66,2.15,4,3.19l.79.61Z"/><path class="cls-1" d="M93.27,47.48c.29.47.6.94.9,1.4l-1.6.44-.9-1.39C92.2,47.77,92.73,47.63,93.27,47.48Z"/><path class="cls-1" d="M96.35,52.15c.31.46.63.93,1,1.4L95.67,54c-.32-.46-.63-.93-1-1.4Z"/><path class="cls-1" d="M100.61,58.18l-1.67.43c-.34-.45-.67-.92-1-1.39l1.67-.43C99.93,57.26,100.27,57.73,100.61,58.18Z"/><path class="cls-1" d="M143.71,104.94l-.55-.44-1.67-1.34c-1.31-1.06-2.61-2.15-3.9-3.23L136,98.54c-1.28-1.1-2.55-2.2-3.8-3.33-.53-.47-1.07-.95-1.59-1.43-1.25-1.13-2.48-2.28-3.7-3.43l-1.55-1.48q-5-4.8-9.58-9.78Q110.66,73.6,106,67.85l-1.11-1.39,1.74-.41c.37.47.75.93,1.12,1.39A231.73,231.73,0,0,0,127.5,88.71c.51.5,1,1,1.55,1.47q1.83,1.74,3.68,3.39c.53.49,1.07,1,1.6,1.43q1.89,1.68,3.8,3.29l1.63,1.37c1.29,1.1,2.6,2.16,3.89,3.2l.34.28c-.06.42-.12.84-.19,1.27Z"/><path class="cls-1" d="M99,46.57q.3.47.6.9c-.55.13-1.09.27-1.63.42L97,46.47l.14,0C97.74,46.47,98.35,46.52,99,46.57Z"/><path class="cls-1" d="M101.81,50.76l1,1.41-1.66.4-1-1.41Z"/><path class="cls-1" d="M106.23,56.84l-1.71.4-1-1.41,1.7-.4Q105.69,56.15,106.23,56.84Z"/><path class="cls-1" d="M144.38,98.67l-1.22-1q-1.92-1.58-3.81-3.21c-.54-.46-1.08-.92-1.61-1.39-1.24-1.09-2.48-2.2-3.7-3.32-.53-.47-1-1-1.55-1.43.72-.07,1.43-.13,2.14-.21.51.48,1,1,1.55,1.42q1.84,1.68,3.69,3.28l1.6,1.38,3,2.5c0,.27,0,.54,0,.81S144.4,98.27,144.38,98.67Z"/><path class="cls-1" d="M107.41,49.47c.35.47.69.94,1,1.42l-1.71.37-1-1.41C106.28,49.71,106.85,49.58,107.41,49.47Z"/><path class="cls-1" d="M112,55.6l-1.76.37-1.07-1.42,1.74-.37C111.26,54.66,111.63,55.13,112,55.6Z"/><path class="cls-1" d="M144.2,91.59c-1-.88-2.06-1.77-3.08-2.67-.52-.46-1-.92-1.55-1.39q-8.46-7.56-16-15.73-2.92-3.18-5.72-6.44c-.4-.46-.8-.94-1.2-1.41l1.84-.34L119.71,65a241.06,241.06,0,0,0,22,22.24c.52.47,1,.92,1.55,1.37l.68.59C144,90,144.13,90.8,144.2,91.59Z"/><path class="cls-1" d="M112.14,49.65,113,50l-.51.11Z"/><path class="cls-1" d="M117.9,54.49l-1.8.33c-.38-.48-.75-1-1.12-1.44l1.79-.33Z"/><path class="cls-1" d="M142.62,83.12q-8-7.23-15.12-15-1.75-1.89-3.46-3.83c-.42-.48-.85-1-1.26-1.44l1.89-.29L125.94,64c5.13,5.75,10.41,11.08,15.73,16C142,81.06,142.33,82.08,142.62,83.12Z"/><path class="cls-1" d="M122.89,137.63c-.88.62-1.79,1.21-2.71,1.77a248.84,248.84,0,0,1-44.78-1.34q-5.79-.72-11.45-1.71c-.91-.68-1.78-1.4-2.64-2.15A243.69,243.69,0,0,0,122.89,137.63Z"/><path class="cls-1" d="M129.21,132.45l-1.11,1.05H128a251,251,0,0,1-51.9-.83q-10-1.25-19.6-3.31c-.58-.66-1.14-1.34-1.68-2a242.13,242.13,0,0,0,71.3,4.73l2.33-.19Z"/><path class="cls-1" d="M122.24,127l1.83,1.47-2.33.15a247.67,247.67,0,0,1-44.92-1.32,221.67,221.67,0,0,1-25.2-4.6c-.4-.63-.77-1.28-1.14-1.94a237.63,237.63,0,0,0,69.42,6.37Z"/><path class="cls-1" d="M131.85,127.83l-2.29.22c-.62-.47-1.23-1-1.84-1.43.77-.06,1.54-.12,2.3-.2Q130.94,127.14,131.85,127.83Z"/><path class="cls-1" d="M116.18,121.94c.59.51,1.19,1,1.79,1.52-.78,0-1.57.07-2.35.09a244.35,244.35,0,0,1-38.09-1.63,221,221,0,0,1-29.25-5.62c-.26-.62-.51-1.24-.75-1.87a233.68,233.68,0,0,0,66.3,7.58Z"/><path class="cls-1" d="M124,121.56c.61.49,1.2,1,1.8,1.47l-2.33.14-1.78-1.47Z"/><path class="cls-1" d="M131.65,121c.59.48,1.18,1,1.78,1.41l-2.29.21-1.78-1.42C130.13,121.1,130.89,121,131.65,121Z"/><path class="cls-1" d="M138.44,120.25c-.16.31-.33.62-.51.92l-1-.75Z"/><path class="cls-1" d="M110.28,116.7l1.74,1.57-2.36,0a242.35,242.35,0,0,1-31.41-1.77,217.67,217.67,0,0,1-32.16-6.42c-.17-.59-.33-1.2-.48-1.81a229.72,229.72,0,0,0,62.32,8.4Z"/><path class="cls-1" d="M118.05,116.52l1.74,1.51c-.77,0-1.55.07-2.32.09l-1.74-1.52Z"/><path class="cls-1" d="M125.74,116.11l1.73,1.46-2.28.16-1.74-1.47Z"/><path class="cls-1" d="M135,116.9l-2.24.22c-.58-.47-1.16-.94-1.73-1.42l2.24-.21Z"/><path class="cls-1" d="M104.27,111l1.64,1.61H103.6A237.55,237.55,0,0,1,75,110.81,217.44,217.44,0,0,1,44.92,105c-.1-.58-.19-1.17-.28-1.75A229.68,229.68,0,0,0,102,111C102.72,111,103.49,111,104.27,111Z"/><path class="cls-1" d="M111.88,110.89c.55.53,1.1,1,1.66,1.54-.77,0-1.53,0-2.3.07l-1.65-1.56Z"/><path class="cls-1" d="M119.41,110.58l1.66,1.49-2.25.13-1.66-1.5Z"/><path class="cls-1" d="M128.51,111.49l-2.22.2c-.56-.48-1.11-1-1.65-1.45l2.22-.18Z"/><path class="cls-1" d="M142.72,109.46c0,.13-.07.26-.12.39l-1,.15c-.58-.45-1.15-.89-1.71-1.35.73-.09,1.45-.18,2.16-.29l.79.61Z"/><path class="cls-1" d="M98.87,105.51c.53.56,1.07,1.11,1.6,1.66-.77,0-1.53,0-2.3-.06q-11.39-.31-22.42-1.68a217,217,0,0,1-31.48-6.22c0-.57-.05-1.13-.06-1.7a227.16,227.16,0,0,0,52.35,7.93Z"/><path class="cls-1" d="M113.94,105.47l1.61,1.54-2.26.08c-.54-.52-1.08-1-1.61-1.56C112.43,105.52,113.19,105.5,113.94,105.47Z"/><path class="cls-1" d="M121.36,105.13l1.62,1.48-2.24.14c-.54-.5-1.08-1-1.61-1.5C119.88,105.22,120.62,105.18,121.36,105.13Z"/><path class="cls-1" d="M138.08,105.17c-.73.1-1.46.18-2.18.26L134.23,104c.73-.08,1.46-.15,2.18-.24Z"/><path class="cls-1" d="M143.8,104.41l-.64.09-1.67-1.34,2.16-.3.34.28C143.93,103.56,143.87,104,143.8,104.41Z"/><path class="cls-1" d="M93.67,99.89c.52.58,1,1.15,1.56,1.71l-2.29-.1c-5.56-.3-11-.77-16.48-1.45a216.65,216.65,0,0,1-32.18-6.42c0-.54.07-1.09.12-1.64a224.79,224.79,0,0,0,47,7.77C92.15,99.82,92.92,99.85,93.67,99.89Z"/><path class="cls-1" d="M101.17,100.16l1.56,1.65-2.27,0c-.51-.54-1-1.09-1.53-1.65,0,0,0,0,0,0Z"/><path class="cls-1" d="M110.19,101.8l-2.25,0-1.57-1.61q1.14,0,2.25,0Z"/><path class="cls-1" d="M132.51,100.49l-2.19.21-1.62-1.43c.73-.07,1.46-.13,2.19-.21Z"/><path class="cls-1" d="M138.13,98.29l1.63,1.37-2.17.27L136,98.54C136.69,98.47,137.41,98.39,138.13,98.29Z"/><path class="cls-1" d="M144.38,98.67l-1.22-1,1.27-.17C144.42,97.86,144.4,98.27,144.38,98.67Z"/><path class="cls-1" d="M90.19,95.91c-.74,0-1.5-.1-2.25-.17-3.62-.27-7.2-.63-10.76-1.07A218.46,218.46,0,0,1,47.74,89l-2.23-.61c.72-.37,1.43-.73,2.17-1.09.76.21,1.53.41,2.3.6A222.76,222.76,0,0,0,86.46,94c.75.07,1.5.13,2.25.17C89.2,94.74,89.69,95.33,90.19,95.91Z"/><path class="cls-1" d="M105,96.45l-2.24,0c-.51-.55-1-1.1-1.52-1.66.76,0,1.5,0,2.24,0C104,95.36,104.53,95.9,105,96.45Z"/><path class="cls-1" d="M127.1,95.66l-2.2.15c-.54-.49-1.07-1-1.59-1.49l2.19-.14Z"/><path class="cls-1" d="M132.73,93.57c.53.49,1.07,1,1.6,1.43l-2.17.21c-.53-.47-1.07-.95-1.59-1.43C131.3,93.71,132,93.65,132.73,93.57Z"/><path class="cls-1" d="M141.47,94.16c-.71.1-1.41.19-2.12.27-.54-.46-1.08-.92-1.61-1.39l2.13-.26Z"/><path class="cls-1" d="M47.55,81.71l2.29.59L47.6,83.39,46.06,83l.18-.62c.09-.31.18-.62.29-.92Z"/><path class="cls-1" d="M85.4,90.09c-.74-.06-1.49-.13-2.23-.21-1.76-.17-3.52-.37-5.28-.59a220.27,220.27,0,0,1-22.48-4L53,84.77c.79-.38,1.59-.74,2.39-1.11.84.2,1.68.38,2.51.56a221.92,221.92,0,0,0,23.89,3.86L84,88.3C84.45,88.91,84.92,89.5,85.4,90.09Z"/><path class="cls-1" d="M98.61,89.29c.48.57,1,1.13,1.46,1.68-.74,0-1.49,0-2.23-.08-.49-.56-1-1.13-1.44-1.69Z"/><path class="cls-1" d="M107.36,91.07c-.74,0-1.48,0-2.21,0l-1.48-1.65c.74,0,1.47,0,2.2,0C106.37,90,106.86,90.54,107.36,91.07Z"/><path class="cls-1" d="M113.1,89.4c.49.53,1,1,1.48,1.57-.72,0-1.44,0-2.17.06-.5-.53-1-1-1.49-1.59l2.17,0Z"/><path class="cls-1" d="M120.28,89.15c.51.52,1,1,1.54,1.53-.73,0-1.46.08-2.18.1-.53-.5-1-1-1.55-1.53Z"/><path class="cls-1" d="M127.5,88.71c.51.5,1,1,1.55,1.47l-2.18.17-1.55-1.48Z"/><path class="cls-1" d="M134.63,88.08c.51.48,1,1,1.55,1.42l-2.14.22c-.53-.47-1-1-1.55-1.43C133.21,88.22,133.92,88.16,134.63,88.08Z"/><path class="cls-1" d="M143.23,88.64l-2.11.28c-.52-.46-1-.92-1.55-1.39l2.11-.26C142.2,87.74,142.71,88.19,143.23,88.64Z"/><path class="cls-3" d="M142.72,109.46a50.12,50.12,0,0,1-95.58,4c54,6.19,78.81-23.37,89.48-43.78A50,50,0,0,1,142.72,109.46Z"/><path class="cls-4" d="M76.35,60.58C66.24,65.46,58.09,74.75,55.67,85.72c-1,4.33-.89,9.26,1.9,12.69,2.94,3.61,8,4.58,12.66,4.75a59.61,59.61,0,0,0,38.82-12.72,32.83,32.83,0,0,0,8.75-9.82,17.38,17.38,0,0,0,1.79-12.79C114.79,51,87.87,55,76.35,60.58Z"/></svg>