<svg id="Layer_12" data-name="Layer 12" xmlns="http://www.w3.org/2000/svg" viewBox="0 0 204.9 219"><defs><style>.cls-1{fill:#76b83f;}.cls-2{fill:#6db52d;}.cls-3{fill:#48ac33;}.cls-4{fill:#60b233;}.cls-5{fill:#048841;}.cls-6{fill:#3caa38;}.cls-7{fill:#49ad3c;}.cls-8{fill:#047a4a;}.cls-9{fill:#553627;}.cls-10{isolation:isolate;}.cls-11{fill:#4b3022;}</style></defs><path class="cls-1" d="M120.06,67.13l3.33,7.41L78.05,71.18l-12.4,7.26a14.93,14.93,0,0,0-8.34,13.91V106.7l4-1.1L82,149.26l12.57,7.22c5.32,3.32,12,2.8,17.45-.39l9-5.27,26.67-36.71V92.83a16.84,16.84,0,0,0-8.36-14.54Z"/><path class="cls-2" d="M113.63,134.38c-12.82-.23-26,0-39.06-.73L82,149.26l12.57,7.22c5.32,3.32,12,2.8,17.45-.39l9-5.27,11.77-16.21C126.34,134.58,120,134.49,113.63,134.38Z"/><path class="cls-3" d="M134.91,103.9a33.86,33.86,0,0,0,6,7.42,56.37,56.37,0,0,0,6.67,1V92.83a16.84,16.84,0,0,0-8.36-14.54l-16.19-9.42c0,1.79.13,3.58.33,5.38C124.56,84.59,129.62,95.08,134.91,103.9Z"/><path class="cls-4" d="M137.66,89.19l-24.49,14.14a22.81,22.81,0,0,1-14.4,2.43,14,14,0,0,1-4.85-1.62L66.38,88.23c-4.91-2.84-4.29-7.82,1.39-11.11L92.26,63a22.53,22.53,0,0,1,16.94-1.82,11.78,11.78,0,0,1,2.31,1l27.54,15.91C144,80.91,143.33,85.92,137.66,89.19Z"/><path class="cls-5" d="M147.6,95.23v28.29c0,6-3.31,12.81-7.59,16.14a10.77,10.77,0,0,1-1.35.92l-27.54,15.9a6.69,6.69,0,0,1-3.9,1c-3-.21-5-3.09-5-7.79V121.45a22.56,22.56,0,0,1,3.24-11,16.6,16.6,0,0,1,5.68-6l27.54-15.9a7.37,7.37,0,0,1,.66-.36C143.94,85.94,147.6,89,147.6,95.23Z"/><path class="cls-6" d="M102.7,121.06v28.28c0,4.37-1.78,7.16-4.42,7.69a6.27,6.27,0,0,1-4.5-.94L70.6,142.71s-4.36-2.52-4.36-2.52c-4.91-2.84-8.94-10.51-8.94-17.06V94.84c0-5.79,3.13-8.82,7.26-7.49a8.07,8.07,0,0,1,1.68.74L93.78,104a16.53,16.53,0,0,1,5.81,6.26A22.32,22.32,0,0,1,102.7,121.06Z"/><path class="cls-2" d="M80.81,95.16c3,1.66,12,8,18,10.6a14,14,0,0,1-4.85-1.62L66.38,88.23c-4.91-2.84-4.29-7.82,1.39-11.11L92.26,63a22.53,22.53,0,0,1,16.94-1.82c-8.16-.54-11.28,0-14.57,1.64C90.18,65,76,73.93,68.63,78.56c-2,1.28-3,5.68-1.14,7.15C71.42,88.75,78.17,93.68,80.81,95.16Z"/><path class="cls-7" d="M70.6,142.69l-4.36-2.5c-4.91-2.84-8.94-10.51-8.94-17.06V94.84c0-5.79,3.13-8.82,7.26-7.49-3.89.37-5.39,1.94-6,4.32-.48,1.92-.43,25.81.08,32.09s2.87,12.15,7.37,15.58C67.19,140.22,68.43,141.05,70.6,142.69Z"/><path class="cls-7" d="M102.7,121.06v28.28c0,4.37-1.78,7.16-4.42,7.69a31.85,31.85,0,0,0,3.13-5.55c.75-1.41.59-24.32.51-28.8-.08-3.34-1.56-9.49-2.33-12.42A22.32,22.32,0,0,1,102.7,121.06Z"/><path class="cls-8" d="M107.22,157.52c-3-.21-5-3.09-5-7.79V121.45a22.56,22.56,0,0,1,3.24-11c-.78,3-2.23,9-2.29,12.28-.07,4.48-.25,27.39.51,28.8S105.72,156.05,107.22,157.52Z"/><path class="cls-8" d="M147.6,95.23v28.29c0,6-3.31,12.81-7.59,16.14,3.31-3.52,5.18-8.35,6-10.84a33.3,33.3,0,0,0,.88-7.2s0-26.52-.26-27.52-.94-3.81-3.13-5a10.81,10.81,0,0,0-4.17-1C143.94,85.94,147.6,89,147.6,95.23Z"/><path class="cls-9" d="M126.54,84.33c2.27,1.31,2.28,3.43,0,4.73a9,9,0,0,1-8.18,0c-2.27-1.31-2.27-3.43,0-4.74A9,9,0,0,1,126.54,84.33Z"/><path class="cls-9" d="M86.72,79.59C89,80.9,89,83,86.75,84.32a9,9,0,0,1-8.17,0c-2.27-1.3-2.28-3.42,0-4.73A9,9,0,0,1,86.72,79.59Z"/><g class="cls-10"><path class="cls-9" d="M102.48,70.44c2.26,1.3,2.27,3.42,0,4.73a9,9,0,0,1-8.18,0c-2.26-1.3-2.27-3.43,0-4.73A9,9,0,0,1,102.48,70.44Z"/><path class="cls-9" d="M98.75,86.53c2.27,1.31,2.29,3.44,0,4.74a9,9,0,0,1-8.18,0c-2.27-1.31-2.28-3.43,0-4.74A9,9,0,0,1,98.75,86.53Z"/><path class="cls-9" d="M110.79,93.48c2.26,1.31,2.28,3.43,0,4.74a9,9,0,0,1-8.18,0c-2.26-1.31-2.28-3.43,0-4.74A9,9,0,0,1,110.79,93.48Z"/><path class="cls-9" d="M114.51,77.38c2.26,1.31,2.28,3.43,0,4.74a9,9,0,0,1-8.19,0c-2.26-1.31-2.27-3.43,0-4.74A9,9,0,0,1,114.51,77.38Z"/></g><path class="cls-11" d="M120.63,128.9a2.92,2.92,0,0,1,2.9-.29c1.61.91,1.62,3.9,0,6.66a8.29,8.29,0,0,1-2.89,3,2.92,2.92,0,0,1-2.91.3c-1.6-.92-1.61-3.9,0-6.66A8.35,8.35,0,0,1,120.63,128.9Z"/><path class="cls-11" d="M132.86,107.72a2.93,2.93,0,0,1,2.9-.3c1.61.92,1.62,3.9,0,6.67a8.29,8.29,0,0,1-2.89,3,2.94,2.94,0,0,1-2.91.3c-1.6-.92-1.61-3.9,0-6.67A8.39,8.39,0,0,1,132.86,107.72Z"/><g class="cls-10"><path class="cls-11" d="M87.21,132.59a2.92,2.92,0,0,0-2.9-.29c-1.62.91-1.63,3.9,0,6.66A8.33,8.33,0,0,0,87.18,142a2.94,2.94,0,0,0,2.91.29c1.6-.91,1.61-3.9,0-6.66A8.43,8.43,0,0,0,87.21,132.59Z"/><path class="cls-11" d="M70.25,103.22a2.94,2.94,0,0,0-2.91-.29c-1.6.91-1.61,3.9,0,6.66a8.31,8.31,0,0,0,2.9,3,2.9,2.9,0,0,0,2.9.3c1.61-.92,1.62-3.9,0-6.67A8.37,8.37,0,0,0,70.25,103.22Z"/></g><path class="cls-11" d="M78.73,117.9a2.94,2.94,0,0,0-2.91-.29c-1.6.92-1.61,3.9,0,6.67a8.21,8.21,0,0,0,2.89,3,2.9,2.9,0,0,0,2.9.3c1.61-.92,1.62-3.9,0-6.67A8.33,8.33,0,0,0,78.73,117.9Z"/></svg>