<svg id="Layer_1" data-name="Layer 1" xmlns="http://www.w3.org/2000/svg" viewBox="0 0 204.9 219"><defs><style>.cls-1{fill:#818594;}.cls-2{fill:#979ca5;}.cls-3{fill:#767675;}.cls-4{fill:#b6c0cb;}.cls-5{fill:#d8dee2;}.cls-6{fill:#c7cdd3;opacity:0.48;}.cls-7{fill:#656977;opacity:0.71;}</style></defs><path class="cls-1" d="M144.93,187.55a1.17,1.17,0,0,1-1,1.16,357.56,357.56,0,0,1-41.76,2.5,358.18,358.18,0,0,1-41.26-2.34,1.17,1.17,0,0,1-1-1.19c.1-5.2.2-9.92.29-15.13l84.78-.29Z"/><ellipse class="cls-2" cx="102.58" cy="172.55" rx="42.43" ry="4.76"/><ellipse class="cls-3" cx="102.86" cy="172.71" rx="36.67" ry="3.02"/><path class="cls-4" d="M67.69,46H138V172.71A267.62,267.62,0,0,1,102.73,175a266.46,266.46,0,0,1-35-2.33Z"/><path class="cls-5" d="M80.55,48.76h3.71a2.7,2.7,0,0,1,2.89,2.45V170.27a2.7,2.7,0,0,1-2.89,2.44H80.55a2.69,2.69,0,0,1-2.89-2.44V51.21A2.7,2.7,0,0,1,80.55,48.76Z"/><path class="cls-2" d="M113.14,46H138V172.71q-5.46.73-11.36,1.26c-4.67.42-9.17.7-13.48.87Z"/><path class="cls-1" d="M145,47.55a1.17,1.17,0,0,1-1,1.16,357.43,357.43,0,0,1-41.76,2.5,358.18,358.18,0,0,1-41.26-2.34,1.17,1.17,0,0,1-1-1.19c.1-5.2.2-9.92.3-15.13L145,32.26Z"/><ellipse class="cls-2" cx="102.62" cy="32.55" rx="42.43" ry="4.76"/><ellipse class="cls-3" cx="102.89" cy="32.71" rx="36.67" ry="3.02"/><path class="cls-6" d="M77.66,36.41l-5.86-.58a25,25,0,0,0,0,3.07v7.46a32.28,32.28,0,0,0,.08,3.6l5.78.44a21,21,0,0,0,0-4V38.9A8,8,0,0,0,77.66,36.41Z"/><path class="cls-6" d="M83.68,36.82l-2.56-.16c-.09.53-.13,13.41,0,14l2.65.14C83.82,50.23,83.78,37.36,83.68,36.82Z"/><path class="cls-6" d="M76.49,176.31l-5.86-.58a27.29,27.29,0,0,0,0,3.07v7.47a31.58,31.58,0,0,0,.09,3.59l5.77.44a21.71,21.71,0,0,0,0-4V178.8A8.32,8.32,0,0,0,76.49,176.31Z"/><path class="cls-6" d="M82.52,176.72,80,176.56c-.09.53-.14,13.41,0,13.95l2.66.15C82.65,190.13,82.61,177.26,82.52,176.72Z"/><path class="cls-7" d="M119.51,36.92l.26,13.77c7.72-.42,16-.91,24.33-2,1.19-.16.82-1.2.82-1.7V32.89c-.24.16-.6.38-1,.61a13.74,13.74,0,0,1-2.45,1,13.56,13.56,0,0,1-1.59.36c-2.39.42-3.58.63-4.58.76-4.09.51-7.59.8-7.59.8C125.54,36.58,122.77,36.77,119.51,36.92Z"/><path class="cls-7" d="M119.47,176.87l.26,13.76c7.72-.41,16-.91,24.33-2,1.19-.15.82-1.19.82-1.69V172.84a6.76,6.76,0,0,1-1.34,1,7.05,7.05,0,0,1-2.14.73c-2.13.46-3.67.67-3.67.67l-3.89.54c-1.52.19-3.64.44-6.45.68C125.17,176.61,122.5,176.78,119.47,176.87Z"/></svg>