<svg id="bb441b70-d6b8-4d8d-b5fc-0bfa9acfedf9" data-name="Layer 1" xmlns="http://www.w3.org/2000/svg" xmlns:xlink="http://www.w3.org/1999/xlink" viewBox="0 0 22 217"><defs><clipPath id="abf6d277-9fc5-4848-810e-7eb7f4ef0f65"><rect x="1" width="20" height="217" style="fill:none"/></clipPath></defs><g style="clip-path:url(#abf6d277-9fc5-4848-810e-7eb7f4ef0f65)"><path d="M3.63-14.35c0-2,1.11-3.54,2.47-3.54h.83c1.36,0,2.47,1.59,2.47,3.54V204c0,2-1.11,3.54-2.47,3.54H6.1c-1.36,0-2.47-1.58-2.47-3.54Z" style="fill:#c6bc93"/><g style="opacity:0.5"><path d="M6.67,198.92a14.26,14.26,0,0,0-2.66,4c-.35.79.54,1.51.89.73a12.3,12.3,0,0,1,2.29-3.48c.52-.55,0-1.8-.52-1.24Z" style="fill:#968f71"/></g><g style="opacity:0.5"><path d="M6.87,193.75a9.12,9.12,0,0,0-2.57,3c-.4.72.32,1.74.72,1A8.49,8.49,0,0,1,7.39,195c.59-.42.07-1.66-.52-1.24Z" style="fill:#968f71"/></g><g style="opacity:0.5"><path d="M5.84,188.58A16.3,16.3,0,0,0,3.6,192c-.4.74.49,1.45.89.72a14.15,14.15,0,0,1,1.87-2.9c.52-.56,0-1.8-.52-1.24Z" style="fill:#968f71"/></g><g style="opacity:0.5"><path d="M6.05,183.13a12.69,12.69,0,0,0-2.45,3.7c-.35.79.54,1.51.89.72a11,11,0,0,1,2.08-3.18c.52-.56,0-1.81-.52-1.24Z" style="fill:#968f71"/></g><g style="opacity:0.5"><path d="M6.25,176.52a9.31,9.31,0,0,0-2.57,3c-.4.73.32,1.75.73,1a8.35,8.35,0,0,1,2.36-2.76c.59-.43.07-1.66-.52-1.24Z" style="fill:#968f71"/></g><g style="opacity:0.5"><path d="M5.94,170.6a26.08,26.08,0,0,0-2.67,4.31c-.41.72.31,1.74.72,1a26.71,26.71,0,0,1,2.68-4.3c.51-.59-.22-1.6-.73-1Z" style="fill:#968f71"/></g><g style="opacity:0.5"><path d="M6.46,164.46a8,8,0,0,0-2.66,3.7c-.34.8.55,1.52.89.73A6.75,6.75,0,0,1,7,165.7c.61-.37.08-1.6-.52-1.24Z" style="fill:#968f71"/></g><g style="opacity:0.5"><path d="M6.15,157.68c-.72,1-1.34,2.14-2.06,3.16-.47.66.26,1.67.73,1,.72-1,1.34-2.14,2.06-3.16.46-.66-.26-1.67-.73-1Z" style="fill:#968f71"/></g><g style="opacity:0.5"><path d="M6.56,151.65c-.9,1.24-1.87,2.36-2.68,3.73-.41.71.31,1.73.73,1a45,45,0,0,1,2.68-3.74c.47-.65-.26-1.66-.73-1Z" style="fill:#968f71"/></g><g style="opacity:0.5"><path d="M6.36,145a45,45,0,0,0-2.68,3.74c-.42.71.31,1.73.73,1a44.71,44.71,0,0,1,2.67-3.73c.48-.65-.25-1.67-.72-1Z" style="fill:#968f71"/></g><g style="opacity:0.5"><path d="M6.05,139.47A9.37,9.37,0,0,0,3.6,142.6c-.41.74.49,1.45.89.73a7.75,7.75,0,0,1,2.08-2.62c.59-.43.07-1.67-.52-1.24Z" style="fill:#968f71"/></g><g style="opacity:0.5"><path d="M6.58,133.66c-1,.4-1.69,1.64-2.16,2.91-.3.83.59,1.55.89.73s.79-2,1.55-2.26.36-1.64-.28-1.38Z" style="fill:#968f71"/></g><g style="opacity:0.5"><path d="M5.94,127.24c-.66.9-1.4,1.68-2.06,2.58-.47.65.26,1.67.73,1,.66-.91,1.4-1.68,2.06-2.59.48-.65-.25-1.66-.73-1Z" style="fill:#968f71"/></g><g style="opacity:0.5"><path d="M5.53,120.92a28.78,28.78,0,0,0-1.93,3c-.4.73.49,1.45.89.72a26.09,26.09,0,0,1,1.77-2.73c.47-.65-.26-1.67-.73-1Z" style="fill:#968f71"/></g><g style="opacity:0.5"><path d="M6.25,114.78a14,14,0,0,0-3,3.56c-.42.7.3,1.73.72,1A13.1,13.1,0,0,1,6.77,116c.57-.49.05-1.73-.52-1.24Z" style="fill:#968f71"/></g><g style="opacity:0.5"><path d="M5.53,108.57a28.78,28.78,0,0,0-1.93,3c-.4.74.49,1.45.89.72a24.94,24.94,0,0,1,1.77-2.72c.47-.66-.26-1.67-.73-1Z" style="fill:#968f71"/></g><g style="opacity:0.5"><path d="M6.05,101.57a14.75,14.75,0,0,0-2,2.12c-.47.65.25,1.66.73,1a12.69,12.69,0,0,1,1.75-1.89c.55-.52,0-1.76-.52-1.24Z" style="fill:#968f71"/></g><g style="opacity:0.5"><path d="M5.45,94.64a19,19,0,0,1-1.57,2.73c-.46.66.27,1.68.73,1a20.63,20.63,0,0,0,1.73-3c.37-.77-.52-1.49-.89-.73Z" style="fill:#968f71"/></g><g style="opacity:0.5"><path d="M5.66,88.61a8.61,8.61,0,0,1-1.88,2.9c-.52.56,0,1.81.52,1.24a10.24,10.24,0,0,0,2.25-3.41c.3-.82-.58-1.55-.89-.73Z" style="fill:#968f71"/></g><g style="opacity:0.5"><path d="M6.25,82.61A7.67,7.67,0,0,0,4,86c-.3.82.58,1.55.89.72a6.47,6.47,0,0,1,1.87-2.9c.59-.43.07-1.67-.52-1.24Z" style="fill:#968f71"/></g><g style="opacity:0.5"><path d="M6.05,76.58a8,8,0,0,0-2.66,3.13c-.4.74.49,1.45.89.73a6.58,6.58,0,0,1,2.29-2.62c.61-.36.08-1.59-.52-1.24Z" style="fill:#968f71"/></g><g style="opacity:0.5"><path d="M6.07,70c-.71,1.29-1.56,2.43-2.27,3.73-.4.74.5,1.45.89.72C5.4,73.11,6.25,72,7,70.67c.4-.73-.49-1.45-.89-.72Z" style="fill:#968f71"/></g><g style="opacity:0.5"><path d="M6.89,61.91A43.45,43.45,0,0,1,4.3,66.07c-.42.71.3,1.73.72,1a43.19,43.19,0,0,0,2.76-4.45c.36-.79-.53-1.51-.89-.72Z" style="fill:#968f71"/></g><g style="opacity:0.5"><path d="M6.79,57.27A5.09,5.09,0,0,0,4,59.9c-.41.73.49,1.44.89.72a3.87,3.87,0,0,1,2.16-2c.65-.2.38-1.58-.27-1.38Z" style="fill:#968f71"/></g><g style="opacity:0.5"><path d="M7.18,50a52.87,52.87,0,0,0-3.09,4.3c-.47.66.26,1.68.73,1,1-1.44,2-3,3.09-4.31.51-.59-.22-1.6-.73-1Z" style="fill:#968f71"/></g><g style="opacity:0.5"><path d="M6.36,45.68a32.49,32.49,0,0,0-2.27,3.44c-.46.67.26,1.68.73,1a35.38,35.38,0,0,1,2.26-3.45c.53-.57-.21-1.58-.72-1Z" style="fill:#968f71"/></g><g style="opacity:0.5"><path d="M6.36,39.36a10.41,10.41,0,0,0-2.2,4c-.25.85.74,1.22,1,.38a8.73,8.73,0,0,1,1.92-3.41c.53-.57-.21-1.58-.72-1Z" style="fill:#968f71"/></g><g style="opacity:0.5"><path d="M6.46,32.93a18.31,18.31,0,0,0-2.66,3.7c-.4.74.5,1.45.89.73A15.83,15.83,0,0,1,7,34.17c.52-.55,0-1.8-.52-1.24Z" style="fill:#968f71"/></g><g style="opacity:0.5"><path d="M6.28,27.73a19.41,19.41,0,0,1-2.6,4.45c-.47.66.26,1.67.73,1a20.58,20.58,0,0,0,2.75-4.74c.31-.82-.58-1.55-.88-.73Z" style="fill:#968f71"/></g><g style="opacity:0.5"><path d="M5.86,23.71a15.4,15.4,0,0,1-2.28,3.48c-.54.52,0,1.77.52,1.24a17,17,0,0,0,2.65-4c.4-.74-.49-1.46-.89-.73Z" style="fill:#968f71"/></g><g style="opacity:0.5"><path d="M6.28,17.68c-.6,1.08-1.27,2.07-1.86,3.16-.4.74.49,1.45.89.72.59-1.08,1.26-2.07,1.85-3.16.41-.73-.49-1.45-.88-.72Z" style="fill:#968f71"/></g><g style="opacity:0.5"><path d="M6.77,12.08C5.91,13.55,5,14.91,4.09,16.39c-.41.71.31,1.73.73,1,.86-1.48,1.82-2.83,2.68-4.31.41-.71-.31-1.73-.73-1Z" style="fill:#968f71"/></g><g style="opacity:0.5"><path d="M6,7.13a5.3,5.3,0,0,1-.67,1.78c-.35.74-.73,1.46-1.11,2.16s.49,1.46.88.73.83-1.55,1.21-2.36A6.51,6.51,0,0,0,7,7.13c0-.93-1-.92-1,0Z" style="fill:#968f71"/></g><g style="opacity:0.5"><path d="M6.56.59A20.94,20.94,0,0,0,4.22,5.33c-.31.82.58,1.55.88.73A19.41,19.41,0,0,1,7.29,1.61C7.75.94,7-.07,6.56.59Z" style="fill:#968f71"/></g><path d="M8.31,206.26l0,0S8.29,206.21,8.31,206.26Z" style="fill:#c6bc93"/><path d="M20,215.76c-1.12.52-7.07-.55-11.32-3.34-1.18-.77-1.19-3.9-2.39-4.45l2.1-1.53a1.25,1.25,0,0,1-.06-.18c1.31,1.74,4.07,2.28,5.72,3.1s3.56-.06,6.4,1.13A3.43,3.43,0,0,1,20,215.76Z" style="fill:#c6bc93"/><path d="M6.65,205.66a8.37,8.37,0,0,0-2.19,3.05c-.34.7.48,1.36.82.66a7,7,0,0,1,1.85-2.57c.54-.4.06-1.53-.48-1.14Z" style="fill:#968f71"/><path d="M2.32,212.22a4.32,4.32,0,0,0,3.6-.76,6.11,6.11,0,0,0,1.42-1.25,7.31,7.31,0,0,0,.85-1.15l.57-.13c1.24.1,3.33-1.48,3.61-3.16.35-2.18-.6-4.54-2.09-5.3s-3.39.19-4.84.59a5.85,5.85,0,0,0-4,3.66C.4,207.05-.2,211.38,2.32,212.22Z" style="fill:#c6bc93"/><path d="M19.35,211a11.42,11.42,0,0,1,.81,3c.09.84,1,.48.91-.35a12.05,12.05,0,0,0-.9-3.32c-.3-.74-1.12-.08-.82.66Z" style="fill:#968f71"/><path d="M17.27,211.11a8,8,0,0,1,.8,2.47c.1.84,1,.48.92-.35a9.15,9.15,0,0,0-.91-2.79c-.33-.7-1.15-.05-.81.67Z" style="fill:#968f71"/><path d="M14.31,210.71a5.31,5.31,0,0,1,1.56,3c.07.84,1,.84,1,0A6.59,6.59,0,0,0,15,209.78c-.46-.55-1.14.37-.67.93Z" style="fill:#968f71"/><path d="M11.32,208.93a15.58,15.58,0,0,0,.59,3.07c.17.81,1.09.47.91-.35a14.41,14.41,0,0,1-.55-2.72c0-.85-1-.85-.95,0Z" style="fill:#968f71"/><path d="M9.25,209.11c.2.83.37,1.67.57,2.5s1.11.46.92-.35-.38-1.67-.57-2.51-1.11-.45-.92.36Z" style="fill:#968f71"/><path d="M.89,211c1-.58,1.9-2.33,2.56-3.08a16.65,16.65,0,0,1,5.81-4.25,8.87,8.87,0,0,1,2.81-.78,4.1,4.1,0,0,0-1.79-2.28c-1.45-.75-3.39.19-4.84.59a5.85,5.85,0,0,0-4,3.66C.69,206.54.16,209.28.89,211Z" style="fill:#968f71;opacity:0.5"/></g></svg>