<svg id="Layer_1" data-name="Layer 1" xmlns="http://www.w3.org/2000/svg" width="45" height="60" viewBox="0 0 45 60"><defs><style>.cls-1{fill:#77ccf2;}.cls-2{fill:none;}.cls-3{fill:#4eadce;}.cls-4{fill:#3b8ebc;}</style></defs><path class="cls-1" d="M6.22,23.69a7.48,7.48,0,0,1,1.07-.18l6-6.49a6.43,6.43,0,0,1-.15-2.5,29.56,29.56,0,0,1-1.9-6.33h0a10.85,10.85,0,0,1-2.55.15A3.6,3.6,0,0,0,11.37,7C12.44-.1,6.91,0,6.91,0S.94-.77.24,7.76s3.61,11,4.45,12.86c.3.66.89,1.78,1.53,3.07Z"/><path class="cls-2" d="M11.36,7.07l-.14.82C11.28,7.6,11.32,7.33,11.36,7.07Z"/><path class="cls-3" d="M29.66,37.09c4.06-1.57,8.21-1.53,11,0,.46-1.38,1.1-4.31,1-9.66a14.87,14.87,0,0,0-1.56-6.15S39.07,32.37,29.66,37.09Z"/><path d="M31.39,15.08l-.14.05.14-.05Z"/><path class="cls-1" d="M5.44,35.46C7.56,38.1,17.05,42,28,37.83c.55-.28,1.11-.52,1.66-.74,9.41-4.72,10.41-15.84,10.41-15.84-2.08-4.2-5.81-7-8.58-6.19-.85.27.63,3.41.63,3.41a16.67,16.67,0,0,0-1.95-2.71S25.64,9.59,21.71,13a19.18,19.18,0,0,1,3.13,4.16S18.84,10,15,11.76l-.27.18s-1.36,1.33.83,5.69a7.43,7.43,0,0,1-1.79-2,13,13,0,0,0,.69,1.15,13,13,0,0,1-.69-1.15v0a5,5,0,0,1-.37-.73l-.18-.39a6.43,6.43,0,0,0,.15,2.5l-6,6.49a7.48,7.48,0,0,0-1.07.18,17.43,17.43,0,0,1,1,2.13,17.43,17.43,0,0,1,1.6,4.64,17.43,17.43,0,0,0-1.6-4.64,29.62,29.62,0,0,1,1.47,5A15,15,0,0,0,5.92,26c-1.42-1.74-3.76-.3-3.76-.3l.15-.14c-.18.16-.35.32-.52.5C1.45,30.54,3.62,33.19,5.44,35.46Z"/><path class="cls-3" d="M28,37.83C17.05,42,7.56,38.1,5.44,35.46c-1.82-2.27-4-4.92-3.65-9.42A6.18,6.18,0,0,0,.17,29.15c-1,5.11,3,10.36,4.52,11.67a24.93,24.93,0,0,0,15.68,5.79C21,43.38,23.76,40,28,37.83Z"/><path class="cls-1" d="M43.26,39.43A6.3,6.3,0,0,0,40.66,37a4.92,4.92,0,0,1-.42,1,17.24,17.24,0,0,1-2.7,3,4.21,4.21,0,0,1,2.72,1.89c1.39,2.47-.74,6.12-4.77,8.15s-8.42,1.67-9.81-.8a4,4,0,0,1,.12-3.8c-.28,0-.55.07-.83.09a26.22,26.22,0,0,1-4.6,0A6,6,0,0,0,21,50.65c2.28,4,9.11,4.79,15.26,1.69S45.53,43.46,43.26,39.43Z"/><path class="cls-1" d="M25,46.5c.28,0,.55,0,.83-.09a10.28,10.28,0,0,1,4.64-4.35A10.66,10.66,0,0,1,37.54,41a17.24,17.24,0,0,0,2.7-3,4.92,4.92,0,0,0,.42-1c-2.79-1.5-6.94-1.54-11,0a16.69,16.69,0,0,1-1.66.74c-4.24,2.13-7,5.54-7.63,8.78A26.22,26.22,0,0,0,25,46.5Z"/><path class="cls-4" d="M40.26,42.86A4.21,4.21,0,0,0,37.54,41a10.66,10.66,0,0,0-7.1,1.09,10.28,10.28,0,0,0-4.64,4.35,4,4,0,0,0-.12,3.8c1.39,2.47,5.79,2.82,9.81.8S41.65,45.33,40.26,42.86Z"/><path d="M31.56,15h0Zm0,0-.13,0,.1,0,0,0Z"/><path d="M31.25,15.13a2.68,2.68,0,0,0-1.08.63,3.48,3.48,0,0,1,1.08-.63Z"/><path class="cls-3" d="M31.49,15.06l-.1,0-.14.05a3.48,3.48,0,0,0-1.08.63,16.67,16.67,0,0,1,1.95,2.71S30.64,15.33,31.49,15.06Z"/><polygon points="6.22 23.69 6.22 23.69 6.22 23.69 6.22 23.69 6.22 23.69 6.22 23.69"/><path d="M6.22,23.69h0Z"/><path d="M11.22,7.89a2.9,2.9,0,0,0,0,.3l0-.3Z"/><path class="cls-3" d="M8.72,8.34a10.85,10.85,0,0,0,2.55-.15h0a2.9,2.9,0,0,1,0-.3l.14-.82V7A3.6,3.6,0,0,1,8.72,8.34Z"/><path d="M11.37,7h0V7Z"/><path class="cls-3" d="M5.92,26a15,15,0,0,1,2.8,4.82,29.62,29.62,0,0,0-1.47-5c-.34-.73-.69-1.45-1-2.13h0A11.86,11.86,0,0,0,3.1,25a8.27,8.27,0,0,0-.79.57l-.15.14S4.5,24.24,5.92,26Z"/><path class="cls-3" d="M13.35,14.91c.12.26.24.5.37.75a7.43,7.43,0,0,0,1.79,2c-2.19-4.36-.84-5.69-.83-5.69a3.38,3.38,0,0,0-1,1.06,5.45,5.45,0,0,0-.46,1.18l0,.13A1.38,1.38,0,0,0,13.35,14.91Z"/><path class="cls-3" d="M15,11.73l-.06,0c3.89-1.73,9.89,5.39,9.89,5.39A19.18,19.18,0,0,0,21.71,13a8.58,8.58,0,0,0-.85-.69,6.69,6.69,0,0,0-1.09-.63,5.54,5.54,0,0,0-4.22-.17"/></svg>