<?xml version="1.0" encoding="utf-8"?>
<!-- Generator: Adobe Illustrator 25.4.0, SVG Export Plug-In . SVG Version: 6.00 Build 0)  -->
<svg version="1.1" id="Layer_1" xmlns="http://www.w3.org/2000/svg" xmlns:xlink="http://www.w3.org/1999/xlink" x="0px" y="0px"
	 viewBox="0 0 183 74" style="enable-background:new 0 0 183 74;" xml:space="preserve">
<style type="text/css">
	.st0{fill:#195D61;}
	.st1{fill:#9BD6EA;}
	.st2{fill:#E6F5FA;}
	.st3{fill:#BBE4F1;}
	.st4{fill:#FFFFFF;}
</style>
<g>
	<path class="st0" d="M182.8,39c-20.2-8.4-72-32.3-95.7-26.7c-0.9,0.2-1.8,0.3-2.8,0.3c-6.6,0.1-32.3,0.3-45,0.1
		c-3.8,0-7.4,1.5-10,4.3C19,28.2,11.4,34.2,6.6,37.4c-3.8,2.5-6,6.7-6,11.2v0c0,5.5,3.4,10.5,8.5,12.5c48.3,19.5,115.7,14.9,164.7-2
		c5.5-1.9,9.1-7,9.1-12.8C182.8,42.5,182.8,39,182.8,39C182.8,39,182.8,39,182.8,39z"/>
	<g>
		<polygon class="st1" points="15.3,28 15.3,44.3 58.8,60 58.8,43.7 		"/>
		<polygon class="st2" points="124.3,43.7 124.3,60 179.6,42.7 179.6,26.4 		"/>
		<rect x="58.8" y="43.7" class="st3" width="65.5" height="16.3"/>
		<polygon class="st4" points="179.6,26.4 124.3,43.7 58.8,43.7 15.3,28 44.8,0.5 83.6,0.5 92.2,4.7 92.2,0.5 120.6,0.5 		"/>
		<polygon class="st1" points="106.1,3.7 97.4,3.7 92.2,0.5 92.2,4.7 98.3,7.6 106.1,6.4 115.5,14.7 		"/>
		<polygon class="st1" points="82.7,43.2 89,54.5 89,44.1 94.1,34.7 		"/>
	</g>
</g>
</svg>
