<svg viewBox="0 0 604 432" xmlns="http://www.w3.org/2000/svg" xmlns:xlink="http://www.w3.org/1999/xlink"><clipPath id="a"><path d="m598 304.63-507.84 126.48c-2 .5-4.29-1.72-5.1-5l-20.83-33.11c-.8-3.24.17-6.27 2.18-6.77l531.53-132.38c2-.51 4.29 1.72 5.1 5l-2.85 39c.81 3.24-.19 6.28-2.19 6.78z"/></clipPath><path d="m598 304.63-507.84 126.48c-1.5.31-2.08-.21-5.1-5l-20.83-33.11c-.8-3.24.17-6.27 2.18-6.77l531.53-132.38c2-.51 4.29 1.72 5.1 5l-2.85 39c-.26 3.96-.19 6.28-2.19 6.78z" fill="#87d8c5"/><g clip-path="url(#a)" fill="#e96d4b"><path d="m557.91 315.36-31.82-36.64-10.91 47.28-31.82-36.64-10.92 47.29-31.82-36.65-10.91 47.29-31.82-36.64-10.92 47.28-31.82-36.64-10.92 47.28-31.81-36.64-10.92 47.29-31.81-36.65-10.92 47.29-31.82-36.64-10.91 47.28-31.82-36.64-10.91 47.28-31.82-36.64-10.91 47.29-31.82-36.65-10.91 47.29-31.82-36.65-10.92 47.29-31.81-36.64-10.92 47.28-32.32-37.22.55-.67 31.32 36.06 10.91-47.28 31.82 36.64 10.92-47.28 31.81 36.64 10.91-47.29 31.82 36.65 10.91-47.29 31.82 36.65 10.91-47.29 31.82 36.65 10.92-47.29 31.81 36.64 10.92-47.28 31.82 36.64 10.91-47.28 31.82 36.64 10.91-47.29 31.82 36.65 10.92-47.29 31.82 36.64 10.92-47.28 31.82 36.64 10.91-47.29 31.83 36.65 10.91-47.29 31.82 36.64 10.92-47.28 31.82 36.64 10.92-47.29 31.82 36.64 10.92-47.28 31.82 36.64 10.75-46.54.81.33-11.1 48.04-31.83-36.65-10.92 47.29-31.82-36.64-10.92 47.29-31.82-36.65z"/><path d="m561.07 328.02-31.82-36.65-10.92 47.29-31.82-36.64-10.92 47.28-31.82-36.64-10.91 47.29-31.82-36.65-10.92 47.29-31.82-36.64-10.91 47.28-31.82-36.64-10.92 47.29-31.81-36.65-10.92 47.29-31.82-36.65-10.91 47.29-31.82-36.64-10.91 47.28-31.82-36.64-10.91 47.28-31.82-36.64-10.91 47.28-31.82-36.64-10.91 47.29-31.82-36.65-10.92 47.29-32.32-37.23.56-.66 31.31 36.06 10.91-47.28 31.82 36.64 10.92-47.29 31.82 36.65 10.91-47.29 31.82 36.65 10.91-47.29 31.81 36.64 10.92-47.28 31.81 36.64 10.92-47.28 31.82 36.64 10.91-47.29 31.82 36.65 10.91-47.29 31.82 36.65 10.92-47.29 31.82 36.64 10.91-47.28 31.82 36.64 10.92-47.29 31.82 36.65 10.92-47.29 31.82 36.64 10.91-47.28 31.82 36.64 10.92-47.29 31.82 36.65 10.92-47.29 31.82 36.64 10.92-47.28 31.83 36.64 10.75-46.54.8.33-11.1 48.03-31.82-36.64-10.93 47.29-31.82-36.64-10.92 47.28-31.82-36.64z"/><path d="m564.38 341.31-31.82-36.64-10.92 47.28-31.82-36.64-10.92 47.28-31.82-36.64-10.91 47.29-31.82-36.64-10.92 47.28-31.82-36.64-10.91 47.28-31.82-36.64-10.92 47.29-31.81-36.65-10.92 47.29-31.82-36.64-10.91 47.28-31.82-36.64-10.91 47.28-31.82-36.64-10.91 47.28-31.82-36.64-10.91 47.29-31.82-36.65-10.91 47.29-31.82-36.65-10.92 47.29-32.32-37.22.55-.67 31.32 36.06 10.91-47.28 31.82 36.64 10.92-47.29 31.82 36.65 10.91-47.29 31.82 36.65 10.91-47.29 31.81 36.64 10.92-47.28 31.81 36.64 10.92-47.28 31.82 36.64 10.91-47.29 31.82 36.65 10.91-47.29 31.82 36.65 10.92-47.29 31.82 36.64 10.91-47.28 31.82 36.64 10.92-47.29 31.82 36.65 10.92-47.29 31.82 36.64 10.91-47.28 31.82 36.64 10.92-47.29 31.82 36.65 10.92-47.29 31.82 36.64 10.92-47.28 31.83 36.64 10.75-46.54.8.33-11.1 48.03-31.82-36.64-10.92 47.29-31.83-36.64-10.92 47.29-31.82-36.65z"/></g><rect fill="#e96d4b" height="271.33" rx="6.15" transform="matrix(.97038011 -.24158318 .24158318 .97038011 -38.96 78.82)" width="555.26" x="24.21" y="62.59"/><rect fill="#70d1c8" height="240.02" rx="6.15" transform="matrix(.97038011 -.24158318 .24158318 .97038011 -38.76 78.74)" width="534.41" x="34.42" y="77.37"/><g fill="#e96d4b"><path d="m110.19 323.58-44.19-28.08 25.86-45.5 44.14 28.06zm-43.19-28.32 43 27.33 25.14-44.29-43.04-27.3z"/><path d="m108.16 315.43-34.39-21.86 20.12-35.45 34.39 21.88zm-33.45-22.1 33.2 21.11 19.42-34.21-33.2-21.11z"/><path d="m105.9 306.35-23.5-14.93 13.75-24.22 23.49 14.94zm-22.55-15.17 22.3 14.18 13-23-22.26-14.16z"/><path d="m104.08 299.07-14.75-9.38 8.67-15.21 14.76 9.39zm-13.81-9.61 13.57 8.62 7.93-14-13.56-8.62z"/><path d="m92 250.49-44.19-28.09 25.84-45.52 44.17 28.12zm-43.24-28.32 43 27.32 25.14-44.29-43-27.33z"/><path d="m90 242.34-34.44-21.87 20.12-35.47 34.39 21.87zm-33.44-22.1 33.2 21.11 19.42-34.22-33.25-21.13z"/><path d="m87.69 233.26-23.49-14.94 13.74-24.21 23.5 14.94zm-22.55-15.17 22.31 14.18 13-23-22.26-14.17z"/><path d="m85.88 226-14.76-9.4 8.64-15.21 14.75 9.38zm-13.81-9.62 13.56 8.62 7.94-14-13.57-8.62z"/><path d="m179.93 306.21-44.17-28.08 25.84-45.52 44.17 28.08zm-43.22-28.32 43 27.33 25.14-44.29-43-27.33z"/><path d="m177.9 298.06-34.39-21.86 20.12-35.45 34.37 21.87zm-33.44-22.06 33.2 21.11 19.42-34.21-33.2-21.11z"/><path d="m175.64 289-23.49-14.93 13.74-24.22 23.5 14.94zm-22.55-15.17 22.31 14.17 13-23-22.3-14.18z"/><path d="m173.83 281.7-14.76-9.38 8.64-15.21 14.75 9.39zm-13.83-9.61 13.56 8.62 7.94-14-13.5-8.6z"/><path d="m161.73 233.12-44.17-28.12 25.84-45.52 44.17 28.09zm-43.23-28.32 43 27.32 25.15-44.29-43-27.33z"/><path d="m159.7 225-34.39-21.9 20.12-35.44 34.39 21.87zm-33.45-22.1 33.2 21.1 19.42-34.22-33.2-21.11z"/><path d="m157.44 215.89-23.44-14.89 13.74-24.21 23.49 14.94zm-22.55-15.17 22.3 14.18 13.05-23-22.3-14.18z"/><path d="m155.63 208.61-14.76-9.38 8.63-15.23 14.76 9.38zm-13.82-9.61 13.57 8.63 7.94-14-13.57-8.63z"/><path d="m249.9 288.79-44.17-28.09 25.84-45.52 44.17 28.09zm-43.23-28.32 43 27.32 25.13-44.29-43-27.33z"/><path d="m247.87 280.64-34.39-21.87 20.12-35.44 34.4 21.87zm-33.45-22.1 33.2 21.1 19.43-34.21-33.2-21.11z"/><path d="m245.61 271.56-23.49-14.94 13.74-24.21 23.49 14.94zm-22.55-15.17 22.3 14.18 13.05-23-22.3-14.18z"/><path d="m243.8 264.28-14.8-9.38 8.63-15.21 14.76 9.38zm-13.8-9.62 13.57 8.63 7.94-14-13.57-8.63z"/><path d="m231.7 215.69-44.17-28.08 25.84-45.52 44.17 28.08zm-43.23-28.32 43 27.33 25.14-44.29-43-27.33z"/><path d="m229.67 207.54-34.39-21.86 20.12-35.44 34.39 21.86zm-33.45-22.1 33.2 21.11 19.42-34.21-33.2-21.11z"/><path d="m227.41 198.46-23.5-14.93 13.75-24.21 23.49 14.93zm-22.55-15.17 22.3 14.18 13.05-23-22.31-14.16z"/><path d="m225.59 191.18-14.75-9.38 8.63-15.21 14.76 9.41zm-13.81-9.61 13.57 8.62 7.93-14-13.56-8.62z"/><path d="m319.65 271.42-44.17-28.09 25.84-45.52 44.17 28.09zm-43.23-28.32 43 27.32 25.14-44.29-43-27.33z"/><path d="m317.62 263.27-34.39-21.87 20.12-35.4 34.39 21.87zm-33.45-22.1 33.2 21.1 19.42-34.21-33.2-21.06z"/><path d="m315.36 254.19-23.5-14.94 13.75-24.25 23.49 15zm-22.55-15.19 22.3 14.18 13.05-23-22.31-14.18z"/><path d="m313.54 246.91-14.75-9.38 8.63-15.21 14.76 9.38zm-13.81-9.62 13.57 8.63 7.93-14-13.56-8.63z"/><path d="m301.44 198.32-44.17-28.08 25.84-45.52 44.17 28.08zm-43.22-28.32 43 27.33 25.12-44.33-43-27.33z"/><path d="m299.41 190.17-34.41-21.86 20.12-35.44 34.39 21.86zm-33.41-22.1 33.2 21.11 19.39-34.18-33.2-21.11z"/><path d="m297.15 181.09-23.49-14.93 13.74-24.16 23.5 14.93zm-22.55-15.17 22.31 14.18 13-23-22.3-14.18z"/><path d="m295.34 173.81-14.76-9.38 8.64-15.21 14.78 9.39zm-13.81-9.61 13.56 8.62 7.94-14-13.57-8.62z"/><path d="m389.39 254.05-44.17-28.05 25.84-45.52 44.17 28.09zm-43.23-28.32 43 27.32 25.15-44.29-43-27.33z"/><path d="m387.36 245.9-34.36-21.9 20.12-35.44 34.39 21.87zm-33.45-22.1 33.2 21.11 19.43-34.22-33.2-21.11z"/><path d="m385.1 236.82-23.49-14.94 13.74-24.21 23.49 14.94zm-22.55-15.17 22.3 14.18 13-23-22.3-14.18z"/><path d="m383.29 229.54-14.76-9.38 8.63-15.16 14.76 9.38zm-13.82-9.62 13.53 8.63 7.94-14-13.57-8.63z"/><path d="m371.19 181-44.19-28.13 25.84-45.52 44.16 28.08zm-43.19-28.37 43 27.33 25.14-44.29-43-27.33z"/><path d="m369.16 172.8-34.39-21.86 20.12-35.44 34.39 21.86zm-33.45-22.1 33.2 21.11 19.42-34.21-33.2-21.11z"/><path d="m366.9 163.72-23.5-14.93 13.75-24.21 23.49 14.93zm-22.55-15.17 22.3 14.18 13.05-23-22.31-14.18z"/><path d="m365.08 156.45-14.75-9.39 8.67-15.21 14.76 9.39zm-13.81-9.62 13.57 8.62 7.93-14-13.56-8.62z"/><path d="m458.7 236.79-44.17-28.09 25.84-45.52 44.17 28.09zm-43.23-28.32 43 27.32 25.14-44.29-43-27.33z"/><path d="m456.67 228.64-34.39-21.87 20.12-35.44 34.39 21.87zm-33.45-22.1 33.2 21.11 19.42-34.22-33.2-21.11z"/><path d="m454.41 219.56-23.5-14.94 13.75-24.21 23.49 14.94zm-22.55-15.17 22.3 14.18 13-23-22.26-14.17z"/><path d="m452.59 212.28-14.75-9.38 8.63-15.21 14.76 9.38zm-13.81-9.62 13.57 8.63 7.93-14-13.56-8.63z"/><path d="m440.49 163.69-44.17-28.08 25.84-45.52 44.17 28.08zm-43.22-28.32 43 27.33 25.14-44.29-43-27.33z"/><path d="m438.46 155.54-34.39-21.86 20.12-35.44 34.39 21.86zm-33.46-22.1 33.2 21.11 19.42-34.21-33.2-21.11z"/><path d="m436.2 146.46-23.49-14.93 13.74-24.21 23.55 14.93zm-22.55-15.17 22.35 14.18 13-23-22.3-14.18z"/><path d="m434.39 139.19-14.76-9.39 8.64-15.21 14.73 9.41zm-13.81-9.62 13.56 8.62 7.94-14-13.57-8.62z"/><path d="m528.44 219.42-44.17-28.09 25.84-45.52 44.17 28.09zm-43.23-28.32 43 27.32 25.15-44.29-43-27.33z"/><path d="m526.41 211.27-34.41-21.87 20.14-35.4 34.39 21.87zm-33.41-22.1 33.2 21.11 19.43-34.22-33.24-21.06z"/><path d="m524.15 202.19-23.49-14.94 13.74-24.25 23.49 15zm-22.55-15.19 22.3 14.18 13.05-23-22.3-14.18z"/><path d="m522.34 194.91-14.76-9.38 8.63-15.21 14.79 9.38zm-13.82-9.62 13.57 8.63 7.94-14-13.57-8.63z"/><path d="m510.24 146.32-44.17-28.08 25.84-45.52 44.17 28.08zm-43.24-28.32 43 27.33 25.13-44.33-43-27.33z"/><path d="m508.21 138.17-34.39-21.86 20.12-35.44 34.39 21.86zm-33.45-22.1 33.24 21.11 19.38-34.18-33.2-21.11z"/><path d="m506 129.1-23.5-14.94 13.7-24.16 23.49 14.93zm-22.6-15.18 22.3 14.18 13.05-23-22.31-14.16z"/><path d="m504.13 121.82-14.75-9.39 8.62-15.2 14.76 9.38zm-13.81-9.62 13.57 8.62 7.93-14-13.56-8.62z"/></g></svg>