<svg viewBox="0 0 132 132" xmlns="http://www.w3.org/2000/svg"><circle cx="66.06" cy="66.41" fill="#fff" r="65"/><circle cx="66.06" cy="66.41" fill="#1783cc" r="58.23"/><circle cx="68.07" cy="68.42" fill="#074068" r="56.22"/><circle cx="66.89" cy="67.24" fill="#08518e" r="55.04"/><path d="m43.37 65c1.38-3.3 8.87-9.91 18.74-16.27 9.27-6 17.89-10 21.86-10.32h.34.21.21.09a4.84 4.84 0 0 1 3.09 8.31c-1.07.65-2.15 1.32-3.25 2-9.86 6.33-17.36 12.94-18.73 16.28a5.88 5.88 0 0 0 .85 6.58c2.54 3.58 9.32 9.28 17.88 14.8 1.1.71 2.19 1.39 3.26 2a4.84 4.84 0 0 1 -3 8.29h-.25-.18-.4c-4-.34-12.59-4.32-21.9-10.33-8.57-5.52-15.34-11.22-17.88-14.8a5.91 5.91 0 0 1 -.94-6.54z" fill="#d8d8d8"/><path d="m43.37 62.76c1.38-3.31 8.87-9.92 18.74-16.27 9.27-6 17.89-10 21.86-10.33h.34.51a4.84 4.84 0 0 1 3.09 8.31c-1.07.64-2.15 1.32-3.25 2-9.86 6.35-17.36 13-18.73 16.27a5.88 5.88 0 0 0 .85 6.58c2.54 3.57 9.32 9.28 17.88 14.8 1.1.71 2.19 1.38 3.26 2a4.85 4.85 0 0 1 -3 8.3h-.43-.4c-4-.33-12.59-4.32-21.9-10.32-8.57-5.52-15.34-11.23-17.88-14.8a5.91 5.91 0 0 1 -.86-6.58z" fill="#fbfcfa"/></svg>