<svg viewBox="0 0 184 184" xmlns="http://www.w3.org/2000/svg"><circle cx="92.06" cy="91.88" fill="#fff" r="91.32"/><circle cx="92.06" cy="91.88" fill="#1783cc" r="81.81"/><circle cx="89.23" cy="94.71" fill="#074068" r="78.98"/><circle cx="90.89" cy="93.05" fill="#08518e" r="77.32"/><path d="m120.93 82.68-43.12-24.9a10.63 10.63 0 0 0 -15.94 9.22v49.8a10.63 10.63 0 0 0 15.94 9.2l43.12-24.9a10.62 10.62 0 0 0 0-18.42z" fill="#d8d8d8"/><path d="m120.67 81.09-42.91-24.46a10.63 10.63 0 0 0 -15.89 9.24v48.91a10.63 10.63 0 0 0 15.89 9.22l42.91-24.46a10.62 10.62 0 0 0 0-18.45z" fill="#fbfcfa"/></svg>