<svg viewBox="0 0 1034 208" xmlns="http://www.w3.org/2000/svg" xmlns:xlink="http://www.w3.org/1999/xlink"><clipPath id="a"><rect height="195.73" rx="4.58" width="978.15" x="54.46" y="1.14"/></clipPath><rect height="195.73" opacity=".3" rx="4.58" width="978.15" x="1.39" y="11.12"/><rect fill="#3f1a0b" height="195.73" rx="4.58" width="978.15" x="54.46" y="11.12"/><rect fill="#fff8f9" height="195.73" rx="4.58" width="978.15" x="54.46" y="1.14"/><g clip-path="url(#a)" fill="#cc712b"><path d="m1098.87 33.61c-139 8-278.74 8.61-418.16 6.09-139.18-2.52-278.24-7.76-417.29-12.33l-237.42-7.82c-1.14 0-1.14 1.12 0 1.16q210.49 6.93 421 13.85c138.72 4.5 277.58 8.48 416.51 7.49 78.57-.56 157.13-2.75 235.41-7.28 1.13-.06 1.14-1.22 0-1.16z" opacity=".13"/><path d="m1094.66 50.77c-70.34 3.44-140.83 4.24-211.33 2.87s-140.71-3.52-211.05-5.36l-424.48-11.07-238.23-6.21c-1.14 0-1.14 1.13 0 1.16l426.64 11.12c141.24 3.72 282.46 7.72 423.72 11.02 78.32 1.82 156.55 1.45 234.73-2.38 1.13-.05 1.14-1.21 0-1.15z" opacity=".13"/><path d="m741.57 89.71q-20-2.19-40.24-3.17c-12.33-.54-24.81-1.05-37.13-.54-9.9.4-20.21 1.57-28.72 5.09-7.53 3.11-15.65 9.13-11.32 15.28 3.66 5.18 13.6 7.71 21.54 9a378.5 378.5 0 0 0 38.71 3.63c13.35.67 26.8.72 40.16.11 10.15-.46 21.6-1.54 29-6.54 5.49-3.69 7.56-10.11 3.57-14.7-2.3-2.65-6.34-4-10.87-4.32-3.08-.24-6.23-.22-9.34-.32s-6.49-.22-9.74-.32c-18.35-.57-36.76-1-55.13-.79-7.79.11-15.9.16-23.54 1.28-1.71.25-5.45.72-5.6 2.24a1.21 1.21 0 0 0 .58 1c.06.05.17.08.22.14s.17.06.22.1c-.23-.2.16.51 0 .26.1.15.22.3.34.45a10.07 10.07 0 0 0 .77.84 14.35 14.35 0 0 0 2.09 1.73c6.28 4.28 16.31 5.34 25 5.72 13.32.6 26.8.47 40.13 0q9.91-.33 19.8-1c1.13-.08 1.14-1.23 0-1.16q-19.48 1.28-39.07 1.35c-6.36 0-12.73-.08-19.08-.29a95.46 95.46 0 0 1 -13.37-1.23c-4.21-.73-8.41-1.88-11.58-3.88a13.75 13.75 0 0 1 -3.61-3.35 3.59 3.59 0 0 0 -.5-.46c.15.14-.08-.1-.13-.14s.08 0 0 0 0 .17 0 0c0 .18.14-.07 0 0a6.41 6.41 0 0 1 1.94-.72c5.14-1.17 11-1.26 16.41-1.45 14-.49 28-.28 42 0 11.31.23 22.62.57 33.92 1 5.2.18 11.1-.12 15 2.56a7.42 7.42 0 0 1 3.37 7.11 10.7 10.7 0 0 1 -4.66 7.38c-3.42 2.45-8.18 4-13 4.89a107.57 107.57 0 0 1 -15.37 1.51q-9.51.42-19.06.41c-12.79 0-25.6-.6-38.27-1.77q-9.35-.85-18.6-2.13a70.72 70.72 0 0 1 -13.1-2.89c-3.69-1.26-7.34-3-9.31-5.44-2.34-2.93-1.16-6.17 1.63-8.77 5.66-5.27 15.15-8 24.54-9.27 10.33-1.39 21-1.24 31.49-1 12.85.26 25.69.9 38.45 1.92q9.52.77 19 1.81c1.12.12 1.6-1 .47-1.12z" opacity=".13"/><path d="m1096.77 91.37a1754.46 1754.46 0 0 0 -223.28 3c-31.76 2.48-64.78 4.87-94.46 13.12-14.86 4.13-26.74 10.47-40.1 16.19-15.57 6.68-32.57 7.2-50.65 6.48-73.16-2.92-145.93-9.38-218.42-16.3-71.72-6.85-143.33-14.28-215.36-19.69-72.23-5.43-145-8.81-217.73-7.41q-13.61.25-27.18.75c-1.14 0-1.15 1.19 0 1.15 72.69-2.57 145.53-.14 217.88 4.74 73.31 4.94 146.16 12.32 219.05 19.37 71.36 6.91 142.85 13.53 214.79 17.28 17 .89 34.81 2.53 51.84 1.16 15.76-1.26 27.3-6.75 39.78-12.68 26.85-12.78 59.22-17.39 91.51-20.49a1735.19 1735.19 0 0 1 224.56-6.69q13.9.48 27.77 1.18c1.14 0 1.13-1.11 0-1.16z" opacity=".13"/><path d="m1100.93 81c-71.89-3.85-144.59-7.71-216.44-1.42-35.32 3.1-70.91 11.42-106.86 9.68-18.45-.89-35.09-5.75-52.71-8.92a241.36 241.36 0 0 0 -48.78-3.28c-33.75.88-66.59 6.67-99.9 9.83-36.71 3.47-72.68 1.34-109.26-1.69l-221.77-18.38-221.79-18.37-27.32-2.27c-1.1-.09-1.1 1.07 0 1.16l221.8 18.37 221.79 18.38c35.85 3 72.13 7 108.39 5.81 34.51-1.11 68-7.13 102.16-10.14 17.11-1.51 34.53-2.28 51.74-1.08 17.78 1.25 33.95 5.4 50.95 8.68 34.38 6.62 68.29.93 102.38-3.46 72.13-9.3 146-6.89 218.85-3.16q13.38.67 26.77 1.41c1.14.06 1.13-1.1 0-1.16z" opacity=".13"/><path d="m1094.19 70.41-425-9.65-424.19-9.63-237.94-5.4c-1.15 0-1.14 1.13 0 1.16l423.94 9.62 424.7 9.64 238.54 5.42c1.14 0 1.13-1.13 0-1.16z" opacity=".13"/><path d="m1070.88 70.41c-11.29-.52-22.82 0-34.12.17-20.43.37-40.85.88-61.28 1.41-46.35 1.2-92.7 2.57-139.05 3.84-14.57.4-29.13.83-43.7 1.08-32.38.54-63.76-5-95.63-7.76-43.38-3.8-86.79-.13-130.13 2-43.61 2.15-86.72.52-130.17-2.28q-132-8.51-264-17.3l-33.24-2.18c-1.14-.07-1.13 1.09 0 1.16l264.08 17.3c44 2.88 88.18 6.34 132.48 5.55 43-.77 85.64-5.45 128.68-4.76 22.13.36 43.77 2.74 65.52 5.26 18.94 2.19 38.08 4.29 57.38 4.22 11.64 0 23.3-.45 34.94-.76 45-1.19 90-2.54 134.94-3.74 36-1 72.28-2.5 108.36-2.16 1.64 0 3.3 0 4.94.11 1.14.05 1.13-1.1 0-1.16z" opacity=".13"/><path d="m628.06 95.5c-38.38 1.78-76.9 2-115.35 1.25-39.65-.75-79.24-2.54-118.71-4.75-40.05-2.24-80-5-120-7.62-39.5-2.65-79-5.26-118.58-7.35-38.71-2.03-77.42-3.59-116.18-4.03q-7.1-.08-14.2-.11c-1.14-.02-1.14 1.11-.04 1.11 38.58.17 77.12 1.5 115.59 3.39 39.68 2 79.28 4.51 118.87 7.14 40 2.66 80 5.41 120 7.76 39.54 2.35 78.99 4.28 118.54 5.29 38.61 1 77.3 1.09 115.89-.33q7.08-.25 14.16-.59c1.13 0 1.14-1.21 0-1.16z" opacity=".13"/><path d="m740.66 123.24c-29.13.69-58.51-.59-87.52-2.19a320.58 320.58 0 0 1 -42.43-5.15c-13.81-2.63-27.55-5-41.75-6.57-28.5-3.1-57.46-4.79-86.21-6.46q-43.78-2.53-87.7-3.82-49.18-1.44-98.43-1.3c-1.14 0-1.14 1.16 0 1.16q87.92-.25 175.62 4.53c29.26 1.59 58.62 3.37 87.69 6.14 14.26 1.35 28.29 3.24 42.12 5.87 13.53 2.56 26.87 5 40.9 6.09 16 1.25 32.28 1.74 48.41 2.32 16.42.59 32.86.93 49.3.53 1.14 0 1.14-1.18 0-1.15z" opacity=".13"/><path d="m1095.4 102.4c-71.92-2.84-144.14-2.25-215.92 1.87-32.81 1.89-65.31 4.28-95.63 13.23-15.63 4.61-30.73 10.06-47.19 13.35-16.91 3.38-34.6 4.76-52.24 5.09-35.61.68-71.43-2-106.66-5.1-35.68-3.15-71.19-7-106.86-10.23q-106.44-9.56-213.81-13.78-108.73-4.27-217.76-3-13.33.15-26.69.38c-1.14 0-1.14 1.18 0 1.16q108.36-1.91 216.73 1.63 108.79 3.57 217 12.64c70.82 5.94 141.39 15.59 212.88 17.35 33.06.81 65.87-.83 96.49-9.59 15.39-4.4 30.11-9.79 46-13.35 16.55-3.69 33.9-5.58 51.23-6.9 71.45-5.41 144-6.5 215.85-4.49q13.31.38 26.58.91c1.14 0 1.14-1.11 0-1.16z" opacity=".13"/><path d="m1092.16 109.09-59.06-.7-59.07-.7-59.35-.7c-19.1-.23-38.22-.62-57.33-.66-14.8 0-30.94.59-43.6 6.15a45.27 45.27 0 0 0 -4.29 2.17c-.42.24-.31.74.18.91a499.12 499.12 0 0 0 53.92 14.79c18.51 4 37.45 7.19 56.58 9.69 19.29 2.52 38.78 4.37 58.33 5.77 19.71 1.41 39.48 2.36 59.27 3.06s39.73 1.15 59.6 1.55l7.29.15c1.14 0 1.14-1.14 0-1.16-19.68-.39-39.36-.8-59-1.43s-39.42-1.5-59.07-2.78-39.16-3-58.54-5.35c-19.11-2.32-38.06-5.27-56.61-9.06a511.88 511.88 0 0 1 -54.41-14.09q-3.27-1-6.49-2.14l.18.91c11.79-6.72 28.11-7.86 43.14-8 9-.07 17.92.13 26.87.24l28.94.34 116.94 1.39 65.56.78c1.14 0 1.14-1.15 0-1.16z" opacity=".13"/><path d="m1090.5 115.94-85.6-.61-85.6-.61-48.41-.34c-.59 0-1 .37-.86.73 1.64 4.41 8 7 13.81 8.84a217.45 217.45 0 0 0 21.56 5.62 341.53 341.53 0 0 0 46 6.06c32 2.28 64.18 1.63 96.23 2.92a454.93 454.93 0 0 1 53.47 4.88c1.11.18 1.58-.93.47-1.11-30.68-4.92-62.44-5.37-93.86-5.89-31.24-.51-62.94-1-93.3-6.32a238.2 238.2 0 0 1 -24.68-5.63c-6.84-2-16.06-4.4-18-9.68l-.85.74 85.6.6 85.6.61 48.41.34c1.14 0 1.14-1.15 0-1.15z" opacity=".13"/><path d="m1093.62 124.93q-33.09.48-66.17-.1t-66.08-2.26q-18.69-.94-37.33-2.24c-.56 0-1 .4-.85.73 2.67 5.48 13.09 6.15 20.53 6.43q19.32.72 38.63 1.6 38.61 1.77 77.15 4.18 21.62 1.36 43.18 2.91c1.13.09 1.12-1.07 0-1.15q-37.32-2.7-74.72-4.78t-74.88-3.56c-5.84-.23-11.9-.17-17.64-1-4.39-.62-9.07-1.93-10.54-4.94l-.86.73q32.96 2.29 65.96 3.52t66.14 1.32q18.73.08 37.48-.21c1.13 0 1.14-1.17 0-1.15z" opacity=".13"/><path d="m1095.16 156.24c-35.24.51-70.63 1-105.72-1.56-34.59-2.54-67-9.51-100.15-16.05-31.53-6.21-63.3-10.63-96.35-8-16.92 1.35-33.51 3.91-50.2 6.08q-26.62 3.45-53.72 4.65c-35.4 1.56-70.91.61-106.32-.37q-54.37-1.52-108.79-2.39-109.68-1.69-219.39-.44-109.14 1.25-218.15 5.39-13.48.52-27 1.08c-1.13 0-1.14 1.2 0 1.15q108.95-4.5 218.11-6.11t218.3-.3q54.57.65 109.12 2c35.58.9 71.18 2.3 106.8 1.86 17.85-.22 35.7-.91 53.41-2.4 17-1.43 33.68-3.84 50.46-6 17.39-2.29 35-4.2 52.78-3.92a333.85 333.85 0 0 1 50.6 5.18c32.32 5.49 63.52 13.57 96.47 17.48 34.11 4 68.92 4.47 103.5 4.16 8.73-.07 17.47-.2 26.21-.32 1.14 0 1.14-1.18 0-1.16z" opacity=".13"/><path d="m22 116.66 152.23 1.43 152.23 1.44c25.48.24 52.66-.48 76.24 6.86l.45-1.08c-49.43 2.64-99.07 2.48-148.63 2-49.29-.47-98.63-1.24-147.9.16-27.38.79-54.72 2.26-81.86 4.8-1.13.11-.65 1.22.47 1.12 48.92-4.58 98.41-5.61 147.78-5.56 49.11 0 98.21 1.16 147.33.88 27.63-.16 55.27-.77 82.81-2.24.79 0 1.32-.81.45-1.08-20.35-6.33-43.27-6.7-65.39-6.91l-76.83-.72-76.48-.76-76.5-.72-76.87-.73-9.53-.05c-1.14 0-1.14 1.15 0 1.16z" opacity=".13"/><path d="m576.2 140.61-69.54-7.92c-22.9-2.6-45.78-5.52-68.83-7.49-13-1.12-26.14-1.82-39.28-1.68-1.14 0-1.15 1.17 0 1.15 23.27-.23 46.31 2.17 69.16 4.76s45.94 5.23 68.9 7.85l39.12 4.45c1.12.13 1.6-1 .47-1.12z" opacity=".13"/><path d="m1095 24.84q-75.26 2.57-150.5 5.16c-50.25 1.68-100.53 3.2-150.84 3.8s-100.53.26-150.66-1.75c-25.21-1-50.32-2.72-75.49-4-24.92-1.31-49.85-1.66-74.84-1.39-45.1.49-90.16 2-135.23 3l-15.24.34c-1.14 0-1.15 1.18 0 1.16 44-.87 87.9-2.31 131.88-3.08 25-.44 50-.65 74.95.28s49.71 2.81 74.58 4c50.11 2.45 100.4 3.12 150.64 2.77 50.56-.35 101.09-1.73 151.59-3.37q75.27-2.45 150.52-5.12l18.64-.64c1.13 0 1.14-1.2 0-1.16z" opacity=".13"/><path d="m23.57 13.34 87.55 1.58 87.56 1.59 87.55 1.59 87.55 1.58c23.05.42 50.88.32 66.13-13a23.81 23.81 0 0 0 4-4.56c.22-.33.07-.75-.53-.85-26.21-4.5-53.5-5.94-80.38-7.98l-82.57-6.29-82.58-6.27c-27.45-2.08-54.89-4.24-82.4-5.94-31.06-1.93-62.25-3.22-93.47-3-1.14 0-1.14 1.16 0 1.16 55.27-.34 110.23 4 165 8.15l165.18 12.52c15.15 1.15 30.31 2.26 45.45 3.47s30.46 2.72 45.39 5.24l-.53-.85c-4.53 6.73-13.81 11.44-24.13 14.05-12.48 3.16-26.16 3.27-39.36 3.08-28.66-.41-57.32-1-86-1.55l-86.3-1.56-86.3-1.56-85.87-1.56-10.94-.2c-1.14 0-1.14 1.14 0 1.16z" opacity=".13"/><path d="m22.26-21.55c25.07 3.2 50.35 5.61 75.74 7.55s51 3.41 76.52 4.73 51.38 2.52 77.06 3.91 51.24 3 76.75 5.11 50.92 4.82 76.05 8.38q4.75.68 9.5 1.39v-1.13a269.11 269.11 0 0 1 -71.65 7.47c-1.14 0-1.14 1.12 0 1.15a271.34 271.34 0 0 0 72.12-7.5c.76-.19.93-1 0-1.12-25.05-3.77-50.35-6.64-75.81-8.92-25.18-2.25-50.47-3.93-75.78-5.37-25.67-1.46-51.36-2.66-77-4s-51.34-2.69-76.94-4.51-51.19-4.04-76.52-7.08q-4.78-.57-9.57-1.18c-1.11-.14-1.59 1-.47 1.12z" opacity=".13"/><path d="m18.87-10.2c24.37-.32 48.76.43 73 1.86 24.44 1.44 48.78 3.55 73 5.9 13.67 1.32 27.32 2.72 41 4.12l.24-1.14q-36.07 2.6-72.32 3.84t-72.49 1.13q-20.47-.07-40.95-.51c-1.14 0-1.14 1.13 0 1.15q36.26.85 72.55.35t72.47-2.3q20.43-1 40.79-2.5c.9-.07 1.31-1 .23-1.14-24.21-2.48-48.43-5-72.74-7s-48.86-3.71-73.42-4.48q-20.67-.66-41.36-.42c-1.14 0-1.15 1.17 0 1.16z" opacity=".13"/><path d="m202.43.92c20.79-.72 41.43 1.73 61.88 3.79 9.88 1 19.83 1.84 29.61 3.17 8 1.08 15.83 2.52 23.6 4.13 8.14 1.68 16.21 3.49 24.44 5 1.1.2 1.57-.91.47-1.11-15-2.73-29.6-6.43-44.85-8.67-9.78-1.44-19.73-2.3-29.63-3.3-10.15-1-20.28-2.1-30.46-3a297 297 0 0 0 -35.06-1.17c-1.13 0-1.14 1.2 0 1.16z" opacity=".13"/><path d="m1096.58 12.79c-44.06 2.86-88 6-132.23 7.73s-88.35 2.59-132.62 2.81c-88.61.44-177.19-1.66-265.69-4.28-24.74-.74-49.51-1.37-74.25-2.29a115.71 115.71 0 0 1 -17.15-1.64c-5.07-.95-9.93-2.34-14.87-3.53-8.56-2.07-17.68-3.66-26.29-.85-.51.17-.56.66-.18.91-.82-.53.3-.22-.8-.11a12.38 12.38 0 0 0 -1.61.46c-1.15.3-2.33.56-3.5.82-2.81.62-5.65 1.18-8.45 1.8-.93.21-8.75 1.56-6.43 3.05.82.52 2.07-.3 1.26-.82.82.53-.3.22.8.11a12.38 12.38 0 0 0 1.61-.46c1.15-.3 2.33-.56 3.5-.82 2.81-.62 5.65-1.18 8.45-1.81.93-.2 8.75-1.55 6.43-3l-.18.91c9.21-3 19.2-.49 28.11 1.76a131.72 131.72 0 0 0 26.76 4.31c21.94 1 44 1.41 66 2.07 43.82 1.32 87.65 2.53 131.49 3.39 87.58 1.71 175.28 2 262.79-1 49.21-1.72 98.08-5.1 147.1-8.28 1.12-.08 1.13-1.23 0-1.16z" opacity=".13"/><path d="m1097.24.69c-140.06 5.31-280.52 5.13-420.64.85-140.3-4.3-280.26-12.66-419.7-23.54q-118.24-9.27-236-20.75c-1.12-.11-1.6 1-.47 1.11 139.04 13.34 278.57 24.99 418.57 33.42 139.7 8.41 280 13.6 420.3 14.07q119 .41 237.94-4c1.14-.05 1.14-1.21 0-1.16z" opacity=".13"/><path d="m1080.55 4.62q-62.82 5.7-126.31 7c-41.81.89-83.68.82-125.52.88-82.84.13-165.71-.23-248.5-2.34q-70.07-1.77-140-5.38c-1.14-.06-1.13 1.1 0 1.16 83.19 4.37 166.61 6.45 250 7.26q62.87.62 125.74.47c41.84 0 83.71 0 125.54-.65 46.67-.76 93.19-3 139.44-7.24 1.12-.1.64-1.21-.48-1.11z" opacity=".13"/><path d="m16 213.63a1756.31 1756.31 0 0 0 223.28-3c31.75-2.48 64.78-4.87 94.46-13.12 14.86-4.14 26.74-10.47 40.1-16.2 15.57-6.67 32.56-7.2 50.64-6.48 73.17 2.93 145.93 9.39 218.43 16.31 71.72 6.84 143.33 14.27 215.35 19.68 72.24 5.43 145 8.81 217.74 7.42q13.61-.27 27.18-.75c1.14 0 1.14-1.2 0-1.16-72.69 2.57-145.53.15-217.88-4.73-73.31-5-146.17-12.33-219-19.38-71.36-6.91-142.85-13.53-214.79-17.28-17-.89-34.81-2.53-51.84-1.16-15.76 1.27-27.31 6.75-39.78 12.69-26.85 12.77-59.22 17.39-91.51 20.48a1737.13 1737.13 0 0 1 -224.57 6.75q-13.89-.48-27.76-1.18c-1.14-.06-1.14 1.1 0 1.16z" opacity=".13"/><path d="m484.71 209.49c38.38-1.78 76.9-2 115.35-1.24 39.65.76 79.24 2.53 118.76 4.75 40 2.24 80 4.95 120 7.62 39.49 2.64 79 5.26 118.58 7.35 38.63 2 77.35 3.58 116.11 4 4.73.06 9.46.09 14.19.12 1.14 0 1.15-1.16 0-1.16-38.57-.18-77.12-1.5-115.58-3.4-39.68-1.95-79.29-4.5-118.87-7.13-40-2.66-80-5.42-120-7.76-39.43-2.31-78.92-4.24-118.48-5.25-38.61-1-77.3-1.09-115.89.32q-7.08.27-14.16.59c-1.13.06-1.14 1.21 0 1.16z" opacity=".13"/><path d="m372.11 181.76c29.12-.7 58.5.58 87.52 2.19a320.58 320.58 0 0 1 42.43 5.15c13.81 2.62 27.55 5 41.75 6.57 28.49 3.1 57.45 4.78 86.21 6.45q43.79 2.55 87.7 3.83 49.18 1.44 98.42 1.3c1.15 0 1.15-1.16 0-1.16q-87.9.24-175.61-4.53c-29.27-1.6-58.63-3.38-87.7-6.14-14.25-1.36-28.28-3.24-42.11-5.87-13.53-2.57-26.87-5-40.9-6.09-16-1.26-32.28-1.74-48.41-2.32-16.42-.6-32.87-.93-49.3-.54-1.14 0-1.15 1.19 0 1.16z" opacity=".13"/><path d="m17.36 202.59c71.93 2.85 144.14 2.26 215.93-1.87 32.81-1.88 65.31-4.27 95.63-13.22 15.62-4.62 30.72-10.06 47.19-13.36 16.91-3.38 34.6-4.75 52.23-5.09 35.62-.68 71.44 2 106.67 5.1 35.68 3.15 71.19 7 106.86 10.24q106.44 9.54 213.8 13.77 108.74 4.28 217.76 3.05 13.35-.15 26.7-.39c1.14 0 1.14-1.17 0-1.15q-108.37 1.86-216.73-1.67-108.79-3.57-216.95-12.64c-70.82-5.93-141.39-15.59-212.88-17.35-33.07-.81-65.88.83-96.49 9.59-15.39 4.4-30.08 9.8-46.08 13.4-16.55 3.7-33.9 5.59-51.23 6.9-71.46 5.42-144 6.5-215.85 4.49q-13.31-.37-26.59-.9c-1.13-.05-1.13 1.11 0 1.15z" opacity=".13"/><path d="m17.61 148.76c35.24-.51 70.63-1 105.72 1.56 34.59 2.53 67 9.51 100.15 16 31.53 6.22 63.3 10.64 96.35 8 16.91-1.35 33.51-3.91 50.2-6.08q26.63-3.47 53.71-4.65c35.41-1.57 70.92-.62 106.33.36q54.38 1.51 108.79 2.4 109.67 1.69 219.39.44 109.14-1.25 218.15-5.4 13.49-.51 27-1.07c1.13-.05 1.14-1.21 0-1.16q-108.94 4.5-218.11 6.12t-218.31.3q-54.57-.66-109.11-2c-35.58-.9-71.18-2.3-106.8-1.86-17.85.22-35.7.92-53.42 2.4-17 1.43-33.67 3.84-50.46 6.05-17.38 2.29-35 4.2-52.78 3.92a335 335 0 0 1 -50.59-5.18c-32.32-5.49-63.52-13.57-96.47-17.48-34.11-4.05-68.92-4.48-103.5-4.17q-13.11.12-26.21.33c-1.14 0-1.14 1.17 0 1.16z" opacity=".13"/><path d="m1090.75 188.33-152.22-1.43-152.23-1.43c-25.49-.24-52.66.47-76.25-6.87l-.44 1.08c49.43-2.63 99.07-2.47 148.63-2 49.29.47 98.62 1.25 147.9-.16 27.38-.78 54.72-2.26 81.86-4.8 1.12-.1.65-1.22-.47-1.11-48.92 4.58-98.42 5.61-147.78 5.55-49.11 0-98.21-1.15-147.33-.87-27.63.16-55.27.77-82.81 2.24-.8 0-1.32.8-.45 1.07 20.35 6.33 43.27 6.7 65.39 6.91l76.83.73 76.49.72 76.5.72 76.87.72 9.51.09c1.15 0 1.15-1.15 0-1.16z" opacity=".13"/><path d="m536.56 164.38 69.55 7.92c22.9 2.61 45.78 5.53 68.83 7.5 13 1.11 26.14 1.81 39.28 1.68 1.14 0 1.14-1.17 0-1.16-23.27.24-46.31-2.16-69.17-4.75l-68.9-7.85-39.15-4.46c-1.11-.12-1.59 1-.47 1.12z" opacity=".13"/><path d="m489 208.26c-24.66 1.55-49.46.62-74.09-.78s-49.34-3.31-74.14-3.67c-13.82-.19-27.67.11-41.39 1.22-1.12.09-1.13 1.25 0 1.16 24.55-2 49.35-1.34 73.94 0s49.38 3.28 74.19 3.89c13.83.34 27.7.23 41.49-.63 1.12-.07 1.13-1.23 0-1.16z" opacity=".13"/><path d="m595.9 205.69c-33.37 0-66.44-3.38-99.29-6.89-32.53-3.48-65.16-7.18-98.17-8a429.89 429.89 0 0 0 -54.59 1.95c-1.13.11-.65 1.23.47 1.11 32.56-3.38 65.7-2.12 98.26.64 32.73 2.77 65.12 7 97.87 9.73 18.39 1.53 36.9 2.57 55.45 2.59 1.14 0 1.14-1.16 0-1.16z" opacity=".13"/><path d="m1090.16 156.18c-17.21 2.22-34.45 4.45-51.94 5.51a389 389 0 0 1 -50.41-.5c-33-2.28-65.68-5.86-98.88-7.26-67.11-2.82-134.62-2.2-201.83-2.66l-407.6-2.82-230.83-1.59c-1.14 0-1.14 1.15 0 1.15l411.75 2.85 203.8 1.41c68.06.47 136.31 0 204.31 2.09 19 .57 38.06 1.43 57 2.75 18.14 1.28 36.15 3.2 54.25 4.64 18.75 1.5 37.55 2.26 56.41 1.22 18.33-1 36.41-3.35 54.43-5.67 1.12-.14.65-1.26-.47-1.12z" opacity=".13"/><path d="m911 155.06c-47.15 4.32-94.88 5.41-142.45 5.23-49.84-.18-99.63-1.8-149.4-3.35-49.11-1.53-98.26-3.07-147.44-3.08-23.64 0-47.29.34-70.89 1.29-25.63 1-51.1 3.17-76.69 4.57a633.92 633.92 0 0 1 -79.66-.39c-25.73-1.83-51.1-5.23-76.33-8.92l-19.14-2.84c-1.11-.17-1.58 1-.47 1.11 50.54 7.56 101.2 14.54 153.37 13.13 27-.72 53.83-3.18 80.76-4.64 23.52-1.28 47.12-1.89 70.71-2.08 49.37-.41 98.72.95 148 2.46 50.11 1.53 100.21 3.29 150.37 3.79 47.82.47 95.8-.15 143.34-3.78q8.19-.63 16.35-1.38c1.13-.11.65-1.22-.47-1.12z" opacity=".13"/><path d="m357.45 175.67c-21.76 2.29-43.86 3.78-65.92 4a251.2 251.2 0 0 1 -33-1.62c-10.68-1.29-21.17-3.15-31.75-4.73q-31.69-4.74-63.88-7.87t-64.5-5.12q-32.56-2-65.26-3l-8.08-.26c-1.14 0-1.14 1.13 0 1.16 21.89.67 43.77 1.56 65.6 2.81s43.66 2.85 65.37 4.91 43.22 4.57 64.6 7.66c10.61 1.53 21.12 3.34 31.75 4.82a247.66 247.66 0 0 0 32 2.41 628.74 628.74 0 0 0 65.47-3.26q4-.37 8.06-.81c1.13-.12.65-1.23-.47-1.11z" opacity=".13"/><path d="m338 183.72a502.42 502.42 0 0 1 -62.28 3.07c-20.83-.19-41.61-1.39-62.27-3.09-20.87-1.71-41.62-3.94-62.38-6.14-20.59-2.17-41.18-4.32-61.89-5.92s-41.65-2.64-62.57-2.64c-2.61 0-5.21 0-7.82.07-1.14 0-1.14 1.17 0 1.15 21-.31 42.05.53 62.94 2 21.09 1.49 42.06 3.62 63 5.82 20.52 2.16 41 4.4 61.63 6.2s41.62 3.18 62.55 3.59a528.11 528.11 0 0 0 61.93-2.19c2.55-.25 5.1-.53 7.64-.82 1.12-.13.65-1.25-.47-1.12z" opacity=".13"/><path d="m304.42 192q-55.53.63-111.07.72t-111.08-.38q-31.3-.25-62.62-.69c-1.14 0-1.14 1.14 0 1.16q55.53.77 111.07 1t111.08-.1q31.31-.18 62.62-.54c1.14 0 1.14-1.17 0-1.16z" opacity=".13"/></g></svg>