<svg viewBox="0 0 132 132" xmlns="http://www.w3.org/2000/svg"><circle cx="66.06" cy="66.41" fill="#fff" r="65"/><circle cx="66.06" cy="66.41" fill="#1783cc" r="58.23"/><circle cx="64.05" cy="68.42" fill="#074068" r="56.22"/><circle cx="65.23" cy="67.24" fill="#08518e" r="55.04"/><path d="m88.75 65c-1.38-3.3-8.87-9.91-18.74-16.27-9.28-6-17.89-10-21.86-10.32h-.34-.21-.21-.09a4.84 4.84 0 0 0 -3.09 8.31c1.07.65 2.15 1.32 3.25 2 9.86 6.36 17.35 13 18.73 16.27a5.93 5.93 0 0 1 -.85 6.58c-2.55 3.58-9.32 9.28-17.88 14.8q-1.65 1.06-3.27 2a4.85 4.85 0 0 0 3.05 8.29h.25.18.4c3.94-.34 12.59-4.32 21.9-10.33 8.56-5.52 15.34-11.22 17.88-14.8a5.91 5.91 0 0 0 .9-6.53z" fill="#d8d8d8"/><path d="m88.75 62.76c-1.38-3.31-8.87-9.92-18.75-16.27-9.28-6-17.89-10-21.86-10.33h-.34-.5a4.84 4.84 0 0 0 -3.09 8.31c1.07.64 2.15 1.32 3.25 2 9.86 6.35 17.35 13 18.73 16.27a5.93 5.93 0 0 1 -.85 6.58c-2.55 3.57-9.32 9.28-17.88 14.8-1.1.71-2.19 1.38-3.27 2a4.85 4.85 0 0 0 3.05 8.3h.43.4c3.94-.33 12.59-4.32 21.9-10.32 8.56-5.52 15.34-11.23 17.88-14.8a5.91 5.91 0 0 0 .86-6.58z" fill="#fbfcfa"/></svg>