<svg viewBox="0 0 614 364" xmlns="http://www.w3.org/2000/svg" xmlns:xlink="http://www.w3.org/1999/xlink"><clipPath id="a"><path d="m600.43 321.71-500.94 36.45c-2 .14-3.8-2.53-4-6l-14.49-37.42c-.25-3.44 1.16-6.34 3.14-6.49l524.3-38.15c2-.14 3.79 2.53 4 6l-8.89 39.15c.27 3.41-1.13 6.31-3.12 6.46z"/></clipPath><rect height="263.09" opacity=".25" rx="23.96" transform="matrix(.99736536 -.07254192 .07254192 .99736536 -14.59 22.31)" width="582.18" x="8.64" y="80.44"/><path d="m600.43 321.71-500.94 36.45c-2 .14-3.8-2.53-4-6l-14.49-37.42c-.25-3.44 1.16-6.34 3.14-6.49l524.3-38.15c2-.14 3.79 2.53 4 6l-8.89 39.15c.27 3.41-1.13 6.31-3.12 6.46z" fill="#57b2a7"/><path d="m600.43 321.71-500.94 36.45c-2 .14-3.8-2.53-4-6l-14.49-37.42c-.25-3.44 1.16-6.34 3.14-6.49l524.3-38.15c2-.14 3.79 2.53 4 6l-8.89 39.15c.27 3.41-1.13 6.31-3.12 6.46z" fill="none"/><path d="m600.43 321.71-500.94 36.45c-2 .14-3.8-2.53-4-6l-14.49-37.42c-.25-3.44 1.16-6.34 3.14-6.49l524.3-38.15c2-.14 3.79 2.53 4 6l-8.89 39.15c.27 3.41-1.13 6.31-3.12 6.46z" fill="none"/><g clip-path="url(#a)" fill="#fff"><path d="m552.01 325.98-23.44-43.06-16.96 46-23.44-43.06-16.97 46-23.44-43.06-16.96 46-23.44-43.06-16.97 46-23.44-43.06-16.96 46-23.44-43.06-16.96 46-23.44-43.06-16.96 46-23.44-43.06-16.97 46-23.43-43.06-16.96 46-23.44-43.06-16.96 46-23.44-43.06-16.96 46-23.44-43.06-16.96 46-23.44-43.06-16.96 46-23.82-43.74.61-.58 23.06 42.38 16.97-46 23.44 43.06 16.96-46 23.44 43.06 16.96-46 23.44 43.06 16.96-46 23.44 43.06 16.96-46 23.43 43.06 16.96-46 23.45 43.06 16.96-46 23.44 43.06 16.96-46 23.44 43.06 16.96-46 23.44 43.06 16.96-46 23.45 43.06 16.96-46 23.44 43.06 16.96-46 23.45 43.06 16.96-46 23.44 43.06 16.96-46 23.45 43.06 16.96-46 23.45 43.06 16.96-46 23.45 43.06 16.7-45.27.68.48-17.24 46.73-23.45-43.06-16.96 46-23.45-43.06-16.96 46-23.45-43.06z"/><path d="m552.99 339.41-23.44-43.06-16.96 46-23.45-43.06-16.96 46-23.44-43.06-16.96 46-23.45-43.06-16.96 46-23.44-43.06-16.96 46-23.45-43.06-16.96 46-23.43-43.06-16.96 46-23.45-43.06-16.96 46-23.44-43.06-16.96 46-23.44-43.06-16.95 46-23.44-43.06-16.96 46-23.44-43.06-16.96 46-23.45-43.06-16.96 46-23.81-43.74.6-.58 23.07 42.38 16.96-46 23.44 43.06 16.97-46 23.44 43.06 16.95-46 23.44 43.06 16.96-46 23.44 43.06 16.96-46 23.44 43.06 16.96-46 23.44 43.06 16.96-46 23.44 43.06 16.96-46 23.44 43.06 16.97-46 23.44 43.06 16.96-46 23.44 43.06 16.97-46 23.44 43.06 16.96-46 23.45 43.06 16.95-46 23.45 43.06 16.96-46 23.44 43.06 16.97-46 23.44 43.06 16.97-46 23.45 43.06 16.7-45.27.68.48-17.24 46.73-23.45-43.06-16.97 46-23.44-43.06-16.97 46-23.44-43.06z"/><path d="m554.01 353.51-23.44-43.06-16.96 46-23.44-43.06-16.96 46-23.45-43.06-16.96 46-23.44-43.06-16.96 46-23.45-43.06-16.96 46-23.44-43.06-16.96 46-23.44-43.06-16.96 46-23.44-43.06-16.96 46-23.44-43.06-16.96 46-23.44-43.06-16.96 46-23.44-43.06-16.96 46-23.44-43.06-16.96 46-23.44-43.06-16.96 46-23.81-43.74.6-.57 23.07 42.37 16.96-46 23.44 43.06 16.96-46 23.44 43.06 16.96-46 23.44 43.06 16.96-45.99 23.44 43.05 16.96-45.99 23.44 43.05 16.96-45.99 23.44 43.05 16.96-46 23.44 43.06 16.96-46 23.44 43.06 16.96-46 23.45 43.06 16.96-46 23.44 43.06 16.96-46 23.44 43.06 16.97-46 23.44 43.06 16.96-46 23.44 43.06 16.97-46 23.44 43.06 16.97-46 23.44 43.06 16.97-46 23.44 43.06 16.7-45.27.68.48-17.23 46.73-23.45-43.06-16.97 46-23.44-43.06-16.97 46-23.44-43.06z"/></g><rect fill="#6fcec0" height="280.1" rx="6.15" transform="matrix(.99736536 -.07254192 .07254192 .99736536 -10.72 24.87)" width="532.89" x="70.42" y="19.9"/><path d="m577.63 30.2 5.5-11.36a3 3 0 0 0 -2.59-1.54l-505.43 36.78a2.59 2.59 0 0 0 -1.76 1l6.89 11.32z" fill="#e96d4b"/><path d="m595.2 260.86-498.2 36.25-6 4.41a2.77 2.77 0 0 0 2.24 1.09l505.43-36.78c1.11-.08 2-1 2.59-2.42z" fill="#ba4532"/><path d="m80.24 66.4 16.79 230.71 497.47-35.18-16.87-231.73z" fill="#d3583c"/><path d="m583.13 18.84-5.5 11.36 16.79 230.71.78-.05 6 2.55a9.32 9.32 0 0 0 .55-4.07l-17.17-236.07a8.78 8.78 0 0 0 -1.45-4.43z" fill="#ba4532"/><rect fill="#2d1305" height="214.45" rx="10.7" transform="matrix(.99736536 -.07254192 .07254192 .99736536 -11.23 24.96)" width="467.98" x="103.85" y="59.78"/><path d="m603.12 272.57-513 37.33c-2.9.21-5.56-3.71-5.93-8.75l-17.81-244.65c-.37-5 1.7-9.31 4.6-9.52l513.02-37.33c2.9-.21 5.56 3.72 5.93 8.75l17.8 244.65c.36 5.04-1.73 9.31-4.61 9.52zm-532.07-224.57c-2.58.18-4.42 4-4.09 8.46l17.8 244.65c.33 4.48 2.7 8 5.28 7.78l513-37.33c2.59-.19 4.42-4 4.1-8.46l-17.8-244.65c-.33-4.48-2.7-8-5.28-7.78z" fill="#aa2d17"/><path d="m82.32 66.24-8.74-11.18a6.78 6.78 0 0 0 -1.94 5.54l17.18 236.07a7 7 0 0 0 2.25 4.84l8.11-3.58z" fill="#ba4532"/></svg>