<svg enable-background="new 0 0 604 366" viewBox="0 0 604 366" xmlns="http://www.w3.org/2000/svg" xmlns:xlink="http://www.w3.org/1999/xlink"><clipPath id="a"><path d="m559.2 365.2-480.3-44.4c-1.9-.2-3.2-3.1-2.9-6.5l-7.6-39.3c.3-3.4 2.1-6.1 4-5.9l502.7 46.4c1.9.2 3.2 3.1 2.9 6.5l-14.7 37.2c-.4 3.5-2.2 6.2-4.1 6z"/></clipPath><path d="m47.2 53.9 512.8 47.4c13.2 1.2 22.9 12.9 21.7 26.1l-19.8 214.3c-1.2 13.2-12.9 22.9-26.1 21.7l-512.9-47.5c-13.1-1.2-22.8-12.9-21.6-26.1l19.8-214.2c1.2-13.2 12.9-22.9 26.1-21.7z" opacity=".25"/><path d="m559.2 365.2-480.3-44.4c-1.9-.2-3.2-3.1-2.9-6.5l-7.6-39.3c.3-3.4 2.1-6.1 4-5.9l502.7 46.4c1.9.2 3.2 3.1 2.9 6.5l-14.7 37.2c-.4 3.5-2.2 6.2-4.1 6z" fill="#57b2a7"/><path d="m559.2 365.2-480.3-44.4c-1.9-.2-3.2-3.1-2.9-6.5l-7.6-39.3c.3-3.4 2.1-6.1 4-5.9l502.7 46.4c1.9.2 3.2 3.1 2.9 6.5l-14.7 37.2c-.4 3.5-2.2 6.2-4.1 6z" fill="none"/><path d="m559.2 365.2-480.3-44.4c-1.9-.2-3.2-3.1-2.9-6.5l-7.6-39.3c.3-3.4 2.1-6.1 4-5.9l502.7 46.4c1.9.2 3.2 3.1 2.9 6.5l-14.7 37.2c-.4 3.5-2.2 6.2-4.1 6z" fill="none"/><g clip-path="url(#a)" fill="#fff"><path d="m521.9 362.5-16.2-46.4-24.4 42.6-16.2-46.3-24.4 42.6-16.2-46.4-24.4 42.6-16.1-46.3-24.5 42.6-16.1-46.4-24.4 42.6-16.2-46.3-24.4 42.6-16.2-46.4-24.4 42.6-16.2-46.3-24.4 42.6-16.1-46.4-24.4 42.6-16.2-46.3-24.4 42.6-16.2-46.4-24.4 42.6-16.1-46.3-24.4 42.6-16.2-46.4-24.4 42.6-16.4-47.1.6-.4 16 45.6 24.4-42.6 16.1 46.3 24.4-42.6 16.2 46.4 24.4-42.6 16.2 46.3 24.4-42.6 16.2 46.4 24.3-42.6 16.2 46.3 24.4-42.5 16.2 46.3 24.4-42.6 16.2 46.3 24.4-42.5 16.1 46.3 24.4-42.6 16.2 46.3 24.4-42.5 16.2 46.3 24.4-42.6 16.2 46.3 24.4-42.5 16.2 46.3 24.4-42.6 16.1 46.3 24.4-42.5 16.2 46.3 24.4-42.6 16.2 46.3 24.4-42.5 16.2 46.3 24-41.9.6.6-24.8 43.2-16.2-46.3-24.4 42.6-16.2-46.4-24.4 42.6-16.1-46.3z"/><path d="m520.6 375.9-16.2-46.4-24.4 42.6-16.1-46.3-24.4 42.6-16.2-46.4-24.4 42.6-16.2-46.3-24.4 42.6-16.2-46.4-24.4 42.6-16.1-46.3-24.4 42.6-16.2-46.4-24.4 42.6-16.2-46.3-24.4 42.6-16.2-46.4-24.4 42.6-16.1-46.3-24.4 42.6-16.2-46.4-24.4 42.6-16.2-46.3-24.4 42.6-16.2-46.4-24.3 42.6-16.5-47.1.7-.4 15.9 45.6 24.4-42.6 16.2 46.3 24.4-42.5 16.2 46.3 24.4-42.6 16.2 46.3 24.3-42.5 16.2 46.3 24.4-42.6 16.2 46.3 24.4-42.5 16.2 46.3 24.4-42.6 16.1 46.3 24.4-42.5 16.2 46.3 24.4-42.6 16.2 46.3 24.4-42.5 16.2 46.3 24.4-42.6 16.1 46.3 24.4-42.5 16.2 46.3 24.4-42.6 16.2 46.3 24.4-42.5 16.2 46.3 24.4-42.6 16.2 46.3 24.4-42.5 16.1 46.3 24.1-41.9.6.6-24.8 43.2-16.2-46.3-24.4 42.6-16.2-46.4-24.4 42.6-16.2-46.3z"/><path d="m519.3 390-16.2-46.4-24.3 42.6-16.2-46.3-24.4 42.6-16.2-46.4-24.4 42.6-16.2-46.3-24.4 42.6-16.2-46.4-24.4 42.6-16.1-46.3-24.4 42.6-16.2-46.4-24.4 42.6-16.2-46.3-24.4 42.6-16.2-46.4-24.4 42.6-16.1-46.3-24.4 42.6-16.2-46.4-24.4 42.6-16.2-46.3-24.4 42.6-16.2-46.4-24.3 42.6-16.5-47.1.7-.4 15.9 45.6 24.4-42.6 16.2 46.3 24.4-42.6 16.2 46.4 24.4-42.6 16.2 46.3 24.3-42.6 16.2 46.4 24.4-42.6 16.2 46.3 24.4-42.6 16.2 46.4 24.4-42.6 16.1 46.3 24.4-42.6 16.2 46.4 24.4-42.6 16.2 46.3 24.4-42.6 16.2 46.4 24.4-42.6 16.2 46.3 24.4-42.6 16.1 46.4 24.4-42.6 16.2 46.3 24.4-42.6 16.2 46.4 24.4-42.6 16.2 46.3 24.4-42.6 16.1 46.4 24.1-41.9.6.6-24.8 43.2-16.2-46.3-24.4 42.6-16.2-46.4-24.4 42.6-16.2-46.3z"/></g><path d="m99.9.9 497.3 46c3.4.3 5.9 3.3 5.6 6.7l-24.6 266.7c-.3 3.4-3.3 5.9-6.7 5.6l-497.3-46c-3.4-.3-5.9-3.3-5.6-6.7l24.6-266.8c.3-3.4 3.3-5.9 6.7-5.5z" fill="#6fcec0"/><path d="m584.6 73.9 7-10.3c-.4-1-1.2-1.7-2.2-1.9l-484.6-44.9c-.7 0-1.3.2-1.8.7l4.7 12.3z" fill="#e96d4b"/><path d="m564.1 304.3-477.7-44.2-6.4 3.4c.4.8 1.1 1.3 2 1.4l484.6 44.8c1.1.1 2.1-.7 2.8-2z" fill="#ba4532"/><path d="m107.7 29.8-21.3 230.3 476.8 45.1 21.4-231.3z" fill="#d3583c"/><path d="m591.7 63.5-7 10.3-21.3 230.3.7.1 5.3 3.5c.7-1.2 1.1-2.5 1.2-3.9l21.8-235.7c.1-1.5-.1-3.1-.7-4.6z" fill="#ba4532"/><path d="m102.8 245.8 17.8-192.2c.5-5.9 5.8-10.2 11.6-9.7l426.2 39.4c5.9.5 10.2 5.8 9.7 11.6l-17.8 192.2c-.5 5.9-5.8 10.2-11.6 9.7l-426.2-39.4c-5.9-.5-10.2-5.7-9.7-11.6z" fill="#2d1305"/><path d="m569.7 317.1-491.9-45.5c-2.8-.2-4.7-4.5-4.2-9.6l22.6-244.2c.5-5 3.1-8.9 5.9-8.6l491.9 45.4c2.8.3 4.7 4.6 4.2 9.6l-22.6 244.3c-.5 5-3.1 8.9-5.9 8.6zm-467.7-306.9c-2.5-.2-4.8 3.2-5.2 7.7l-22.6 244.2c-.4 4.5 1.3 8.3 3.7 8.5l491.9 45.5c2.5.2 4.8-3.2 5.2-7.7l22.6-244.3c.4-4.5-1.3-8.3-3.7-8.5z" fill="#aa2d17"/><path d="m109.7 30-6.5-12.4c-1.6 1.2-2.6 3.1-2.7 5.2l-21.8 235.6c-.2 1.8.3 3.7 1.3 5.1l8.3-2.2z" fill="#ba4532"/></svg>