<svg viewBox="0 0 42 40" xmlns="http://www.w3.org/2000/svg"><path d="m20.12 18.23c-4.38 0-11.64 0-19.63.42 1.13 1.57 3.35 3.68 7.48 6.5 0 0-5.48 12.06-2.15 14.1.86.53 4.11 0 4.11 0 4.41-.86 6.25-2 10.23-4.09 3.64 2.14 13.61 6.84 14.42 2.78.7-3.5-.89-8.63-1.88-11.36a1.34 1.34 0 0 1 -.07-.18 81 81 0 0 0 8.88-7.66c-8.68-.47-16.69-.53-21.39-.51z" fill="#2b0e24" opacity=".29"/><path d="m38.39 16a79.21 79.21 0 0 0 -10.39-2.61c-1.91-5-4.26-9.27-7-10.44-2.43-1-5.44 7.14-6.27 9.54a41.51 41.51 0 0 0 -6.7.87 22.24 22.24 0 0 0 -5.21 1.64s-3.92 2.1 6.75 9.9c0 0-4.78 11.28-1.88 13.18a2.46 2.46 0 0 0 1.87.13 59.1 59.1 0 0 0 10.66-4.72c3.18 2 11.88 7.16 12.59 3.37.61-3.28-.78-8.07-1.65-10.63a1 1 0 0 1 -.05-.16 63.74 63.74 0 0 0 8.24-7.75c1.27-1.71-.96-2.32-.96-2.32z" fill="#5b5b5b"/><path d="m31 32.43c-.61 3.27-8.12-1.17-10.86-2.91a51.63 51.63 0 0 1 -9.19 4.07 2.15 2.15 0 0 1 -1.62-.11c-2.55-1.64 1.58-11.38 1.58-11.38-9.21-6.72-5.83-8.51-5.83-8.51a17.57 17.57 0 0 1 3.33-1.17 12.12 12.12 0 0 1 -.41-1.42 22.48 22.48 0 0 0 -5.2 1.67s-3.9 2.03 6.77 9.82c0 0-4.78 11.29-1.88 13.19a2.49 2.49 0 0 0 1.87.12 58.38 58.38 0 0 0 10.66-4.71c3.18 2 11.88 7.16 12.59 3.37.61-3.28-.78-8.08-1.65-10.63h-1.43c.74 2.28 1.72 5.99 1.27 8.6z" fill="#898989"/><path d="m38.39 13.55a81 81 0 0 0 -10.39-2.55c-1.93-5-4.28-9.28-7-10.45-2.43-1-5.44 7.14-6.27 9.54a42.8 42.8 0 0 0 -6.73.91 12.12 12.12 0 0 0 .39 1.47 34.63 34.63 0 0 1 7-1c.71-2.07 3.31-9.13 5.41-8.23 2.35 1 4.38 4.67 6 9a68.93 68.93 0 0 1 9 2.22s1.92.56.83 2a54.5 54.5 0 0 1 -7.12 6.68c.08.22.16.45.24.7h1.43a.84.84 0 0 1 -.05-.17 63.27 63.27 0 0 0 8.24-7.74c1.25-1.72-.98-2.38-.98-2.38z" fill="#bababa"/><path d="m10.91 22.1s-4.13 9.74-1.62 11.38a2.15 2.15 0 0 0 1.62.11 51.63 51.63 0 0 0 9.19-4.07c2.74 1.74 10.25 6.18 10.9 2.91.49-2.61-.49-6.32-1.23-8.62-15.41-.36-20-7.33-21.32-11.39a17.57 17.57 0 0 0 -3.33 1.17s-3.42 1.79 5.79 8.51z" fill="#7c7c7c"/><path d="m29.73 23.81c-.08-.25-.16-.48-.24-.7a54.5 54.5 0 0 0 7.12-6.68c1.09-1.48-.83-2-.83-2a68.93 68.93 0 0 0 -9-2.22c-1.64-4.33-3.67-8-6-9-2.1-.9-4.7 6.16-5.41 8.23a34.63 34.63 0 0 0 -6.95 1c1.34 4.04 5.9 11.01 21.31 11.37z" fill="#999"/><ellipse cx="8.78" cy="34.44" fill="#e5e5e5" opacity=".5" rx="1.24" ry=".87" transform="matrix(.8660254 -.5 .5 .8660254 -16.05 9.01)"/><ellipse cx="38.17" cy="14.78" fill="#e5e5e5" opacity=".5" rx=".87" ry="1.24" transform="matrix(.23276646 -.97253266 .97253266 .23276646 14.91 48.47)"/><g fill="#f2f2f2"><path d="m9.77 10.62s-5.91 1-6.95 2-1.37 3.05 3.09 7c0-.05-4.91-6.46 3.86-9z" opacity=".5"/><path d="m24.05 33.83s5.49 2.43 6.89 2.2 2.82-1.78 1.28-7.5c0 0 .5 8.04-8.17 5.3z" opacity=".5"/></g></svg>