<svg id="b65724a8-9f30-45fe-b1e6-d92f2928fcdd" data-name="Layer 14" xmlns="http://www.w3.org/2000/svg" viewBox="0 0 56 56"><circle cx="28" cy="28" r="27.3" transform="translate(-10.9 35.41) rotate(-55.78)" style="fill:#faf6d1;stroke:#faf6d1;stroke-linecap:round;stroke-linejoin:round;stroke-width:0.5669000000000001px"/><path d="M22.89,1.18A27.19,27.19,0,0,1,29.53.74c.65.68.53,1.55-.56,2.35-1.28,1-3.91,1.79-6.56,2.8a24.48,24.48,0,0,0-7.8,4.38,21,21,0,0,0-6.06,9.12A22.63,22.63,0,0,0,8.1,30.82c.79,3.48,2.41,6.18,3.19,8.5s.73,4.29-.6,5.33a4.49,4.49,0,0,1-3.91.54,27.31,27.31,0,0,1,16.11-44Z" style="fill:#fffbdb;stroke:#fffbdb;stroke-linecap:round;stroke-linejoin:round;stroke-width:0.5669000000000001px;fill-rule:evenodd"/><path d="M22.89,1.18C23.71,1,24.53.91,25.35.83c-.25,2.82-1.93,5.1-3.21,7.75C18.73,15.65,18.37,23,26.56,26.91c2.75,1.31,1.31,1.1,3.23-2.11,4.56-7.6,12.7-5.07,19-1.74,2.58,1.37,3.9,2.32,6.43,2.36-.08-.84-.2-1.68-.36-2.53s-.38-1.77-.63-2.62c-2.79.44-4.65-.51-7.62-1.38C38.73,16.58,31,17,28.65,26.44c-.42,1.68.11,1.74-1.73-.07-7.4-7.3-2.56-14.51,3.47-20.18,1.75-1.64,3.14-2.75,4-4.74a26.83,26.83,0,0,1,4.93,1.7c-1.61,2.35-4.1,3.4-6.6,5.07-6.45,4.32-10.59,10.43-5.49,17.9,1.33,1.95,1.32,1.68,1.83,4.13,1.86,9.07-5.79,13-13.11,14.8-3.15.78-4.66.87-6.76,2.72a27.54,27.54,0,0,1-3.43-4c2.42-1.39,4-1.18,7.2-1.35C21.82,42,29.45,39,28.42,28.37c-.16-1.64-.25.24-.54,1.26C25.17,39.28,16.46,39,8.68,36.74c-2.85-.82-4.34-1.49-6.87-1-.25-.85-.46-1.71-.63-2.6S.9,31.43.82,30.59c2.87.09,4.54,1.37,7.35,2.76C15.28,36.87,23.3,38,27.53,29.5c1.06-2.13.24-1.72,2.71-2.32,9.35-2.24,13.1,5.52,14.85,13,.75,3.25.83,4.59,2.68,6.66a27.64,27.64,0,0,1-4,3.42c-1.52-2.56-1.26-4-1.41-7.46-.34-8-2.92-15.91-12.75-15.21-1.95.14-1.14,0-2.65,1.55-7.28,7.24-14.69,2.58-20.42-3.38-1.84-1.91-2.91-3.3-5.13-4.16a27.77,27.77,0,0,1,1.7-4.92c2.33,1.53,3.3,3.74,5,6.2,4.45,6.62,10.82,11.26,18.64,6,2.35-1.59,1.49-.68,1.38-3.75-.36-9.58,8.07-11.63,15.68-11.9,2.66-.09,4.37,0,6.43-1.05a26.71,26.71,0,0,0-3.45-4c-2.29,1.75-4.86,1.9-7.83,2.67-7.93,2-13.64,6.51-11,15.6.49,1.66.94,1.15-1.5,1.82C16.34,31.05,12.36,23.17,10.37,15c-.57-2.37-.83-4.1-2.17-5.83a27.86,27.86,0,0,1,3.92-3.42c1.22,2.59.92,5.37,1.15,8.35.61,7.85,4,14.48,13.13,13.78,2.91-.23,1.61-.09,3.79-2.05,6.76-6.08,13.73-1.33,18.73,4,2.18,2.33,3,3.65,5.62,4.54a27.22,27.22,0,0,1-1.71,4.94c-2.53-1.46-3.1-3-4.9-5.84C43.62,26.72,37.5,21.42,29.42,27c-1.53,1-.76.88-3,.3C16.33,24.65,16.78,16,19.15,8c.68-2.29,1.35-4,1.09-6.14.86-.25,1.75-.47,2.65-.64Zm12.76,53c0-.16-.08-.32-.11-.46-.68-3.39,3-10,2.5-15.85C37.57,31.71,34,29,28.35,27.71l.39.54c6.25,8.68.68,15.06-6.68,19.8-2.78,1.79-4.06,2.31-5.43,4.77a26.28,26.28,0,0,0,4.92,1.71c.89-2.75,2.58-3.94,4.73-6,5.55-5.34,10-12.54,3.48-19.43C29,28.3,27.47,27.3,29,28c9.68,4.47,7.88,12.73,3.89,20.39-1.58,3-2.34,4-2.28,6.81q1.26-.12,2.55-.36C34,54.66,34.82,54.45,35.65,54.21Z" style="fill:#19d1ed;stroke:#19d1ed;stroke-linecap:round;stroke-linejoin:round;stroke-width:0.5669000000000001px;fill-rule:evenodd"/><path d="M22.89,1.18C23.71,1,24.53.91,25.35.83a12.27,12.27,0,0,1-1.52,4.53l-1.42.53c-1,.38-2,.79-3,1.28a12.25,12.25,0,0,0,.85-5.35c.86-.25,1.75-.47,2.65-.64Zm-16.11,44c-.36-.44-.7-.9-1-1.37,2.1-1.21,3.59-1.21,6-1.3a2.93,2.93,0,0,1-1.09,2.13,4.49,4.49,0,0,1-3.91.54Zm3.66-8c-.59-.14-1.18-.3-1.76-.47-2.85-.82-4.34-1.49-6.87-1-.25-.85-.46-1.71-.63-2.6S.9,31.43.82,30.59c2.87.09,4.54,1.37,7.35,2.76.27.14.55.27.82.39.47,1.26,1,2.4,1.45,3.47ZM7.59,26.78c-.34-.34-.68-.67-1-1-1.84-1.91-2.91-3.3-5.13-4.16a27.77,27.77,0,0,1,1.7-4.92c2.2,1.44,3.19,3.49,4.68,5.78a23.29,23.29,0,0,0-.24,4.32Zm2.85-11.5a2.33,2.33,0,0,0-.07-.25c-.57-2.37-.83-4.1-2.17-5.83a27.86,27.86,0,0,1,3.92-3.42,14.53,14.53,0,0,1,1,5.9A21.64,21.64,0,0,0,10.44,15.28Z" style="fill:#4bf1ff;stroke:#4bf1ff;stroke-linecap:round;stroke-linejoin:round;stroke-width:0.5669000000000001px;fill-rule:evenodd"/><path d="M5.71,15.42a27.91,27.91,0,0,0-2.26,5.34,24.14,24.14,0,0,0-1.1,7.81,31.79,31.79,0,0,0,1.41,8.19A8.75,8.75,0,0,0,5.68,40.5c.5.41.77.06.47-1.3a68.31,68.31,0,0,1-1.63-6.7,36.8,36.8,0,0,1-.17-9.3,28.84,28.84,0,0,1,1.54-6.27,13.14,13.14,0,0,0,.75-2.53C6.62,14.1,6.33,14.33,5.71,15.42Z" style="fill:#fff;stroke:#fff;stroke-linecap:round;stroke-linejoin:round;stroke-width:0.5669000000000001px;fill-rule:evenodd"/><path d="M53.47,33.45a24.07,24.07,0,0,1-1.56,5,25.81,25.81,0,0,1-3.08,5.1,34.92,34.92,0,0,1-3.56,4.12,8.72,8.72,0,0,1-2.64,1.92c-.54.18-.66-.09.25-1.19s2.86-3,4.51-5.11a38.67,38.67,0,0,0,3.93-6.18c.91-1.78,1.37-3.05,1.72-3.77S53.64,32.47,53.47,33.45Z" style="fill:#fff;stroke:#fff;stroke-linecap:round;stroke-linejoin:round;stroke-width:0.5669000000000001px;fill-rule:evenodd"/><path d="M8.32,11a3.85,3.85,0,0,0-.68,1.29c-.06.3.07.43.33.25a6.76,6.76,0,0,0,1-1.23A7.94,7.94,0,0,0,10,9.84c.12-.33-.07-.38-.41-.13A6.55,6.55,0,0,0,8.32,11Z" style="fill:#fff;stroke:#fff;stroke-linecap:round;stroke-linejoin:round;stroke-width:0.5669000000000001px;fill-rule:evenodd"/><path d="M20.2,13.93c-1.13,5.21.21,10.06,6.34,13,2.74,1.31,1.3,1.1,3.23-2.11,3.05-5.09,7.72-5.63,12.35-4.44a16.32,16.32,0,0,0-1.78-2.62c-5.4-.28-10,1.8-11.72,8.7-.42,1.68.11,1.74-1.72-.07-5-4.92-4.42-9.81-1.67-14.2a16.26,16.26,0,0,1,3-.24c-3.55,3.87-4.85,8.66-1.07,14.19,1.33,1.95,1.32,1.69,1.83,4.13,1.34,6.49-2.21,10.34-7,12.67a16.64,16.64,0,0,1-2.69-1.38c5.8-1.55,9.85-5.23,9.08-13.17-.16-1.64-.25.24-.54,1.26-1.93,6.89-6.93,8.7-12.46,8.36a15.85,15.85,0,0,1-1.65-2.52c5.4,1.34,10.62.33,13.76-6,1.06-2.13.24-1.72,2.71-2.32,6.64-1.59,10.45,1.86,12.73,6.67a16.64,16.64,0,0,1-1.4,2.76c-1.38-5.41-4.69-9.53-11.91-9-2,.14-1.15.05-2.66,1.55-5.1,5.08-10.27,4.3-14.87,1.33a15.87,15.87,0,0,1-.19-3c4,3.76,9,5.3,14.81,1.38,2.36-1.59,1.5-.68,1.38-3.74-.24-6.42,3.46-9.46,8.22-10.85a15.89,15.89,0,0,0-2.85-1.37c-4.81,2.55-7.51,6.76-5.53,13.56.49,1.66.94,1.15-1.5,1.82-6.94,1.9-11-1.21-13.5-6a17.49,17.49,0,0,1,1.31-2.68c1.64,5.18,5.27,8.81,12.12,8.28,2.92-.23,1.61-.09,3.79-2.05,4.71-4.22,9.51-3.21,13.68-.41a16.26,16.26,0,0,1,.2,3.1C40.17,24.66,35.3,22.91,29.39,27c-1.52,1-.76.88-3,.3-6.88-1.78-8.87-6.36-8.69-11.64a16.93,16.93,0,0,1,2.48-1.69ZM38,40.59a15.15,15.15,0,0,0,0-2.69c-.47-6.18-4.08-8.86-9.68-10.19l.38.54c4.64,6.44,2.77,11.62-1.52,15.8a15.87,15.87,0,0,0,3.07-.14c3.13-4.54,4.24-9.76-.53-14.82C29,28.3,27.45,27.3,28.92,28c7.14,3.3,8,8.65,6.42,14.31A16.67,16.67,0,0,0,38,40.59Z" style="fill:#06bcd1;stroke:#06bcd1;stroke-linecap:round;stroke-linejoin:round;stroke-width:0.5669000000000001px;fill-rule:evenodd"/></svg>