<svg id="e60b4b23-f60e-4549-9a33-b300077b5a3f" data-name="Layer 3" xmlns="http://www.w3.org/2000/svg" xmlns:xlink="http://www.w3.org/1999/xlink" viewBox="0 0 84 86"><defs><clipPath id="e2119d45-2018-4d7d-b359-0f5e5dc5ca52"><path d="M74,37.37l-.2.31.1-.31H10c5.42,25.49,9.57,33.26,11.19,35.49C23.57,76.58,32,79.34,42,79.34c9.26,0,17.14-2.37,20.11-5.68C62.55,73.26,67.31,68.68,74,37.37Z" style="fill:none"/></clipPath></defs><ellipse cx="42" cy="72.45" rx="30.91" ry="12.65" style="opacity:0.2"/><path d="M74,37.37l-.2.31.1-.31H10c5.42,25.49,9.57,33.26,11.19,35.49C23.57,76.58,32,79.34,42,79.34c9.26,0,17.14-2.37,20.11-5.68C62.55,73.26,67.31,68.68,74,37.37Z" style="fill:#fcfffc"/><path d="M74.27,37.22c0,.81-3.79,1.18-4,2s3.06,2.75,2.72,3.49-4-.49-4.44.18,1.91,3.63,1.34,4.22-3.66-1.65-4.3-1.13,1,4,.28,4.43-3.26-2.37-4-2,.25,4.08-.49,4.42S58.55,50,57.79,50.25s-.3,4.07-1.08,4.31-2.51-3.16-3.3-3-.75,4-1.55,4.17-2.17-3.42-3-3.3-1.15,3.91-2,4-1.85-3.61-2.65-3.57S42.77,56.67,42,56.67s-1.53-3.76-2.32-3.79S37.78,56.52,37,56.45s-1.17-3.88-2-4-2.2,3.44-3,3.3-.78-4-1.54-4.17-2.56,3.2-3.31,3-.34-4-1.08-4.31-2.92,2.87-3.64,2.55.2-4-.49-4.42-3.33,2.41-4,2,.88-3.94.28-4.43-3.76,1.69-4.3,1.13,1.79-3.6,1.34-4.23-4.1.53-4.44-.18,2.9-2.71,2.72-3.48-4-1.14-4-2,3.78-1.17,4-1.95-3.06-2.75-2.71-3.49,3.95.5,4.43-.17S13.42,28,14,27.38s3.65,1.65,4.29,1.13-1-4-.27-4.43,3.26,2.37,4,2-.26-4.08.49-4.42,2.87,2.84,3.64,2.55.29-4.07,1.07-4.31,2.51,3.16,3.3,3,.75-4,1.55-4.16,2.18,3.41,3,3.3,1.15-3.92,1.95-4,1.85,3.61,2.66,3.57,1.51-3.79,2.32-3.79,1.52,3.76,2.31,3.79,1.87-3.64,2.65-3.57,1.18,3.89,2,4,2.2-3.45,3-3.3.78,4,1.55,4.16,2.55-3.2,3.3-3,.34,4,1.08,4.31,2.92-2.87,3.64-2.55-.2,4,.49,4.42,3.33-2.4,4-2S65,28,65.62,28.52s3.76-1.69,4.3-1.13S68.14,31,68.59,31.61s4.1-.53,4.43.18-2.9,2.71-2.72,3.48S74.27,36.42,74.27,37.22Z" style="fill:#0a4e99"/><path d="M12.37,35.56c0,.15.07.24.07.24-3.39,7.54,8,9.14,8,9.14a12.08,12.08,0,0,0,1.18.93A70.06,70.06,0,0,1,12.37,35.56Z" style="fill:#63e0fc;stroke:#4ad6ed;stroke-miterlimit:10;stroke-width:0.623608734008428px"/><path d="M50.79,20.72C59,21.81,65.56,27,69.62,31.07c1.08-1.31,3-5.05-3.58-10.35-8.32-6.67-26-8.85-26-8.85a25.57,25.57,0,0,0-4.73.14C36.79,14.67,40.8,19.39,50.79,20.72Z" style="fill:#63e0fc;stroke:#4ad6ed;stroke-miterlimit:10;stroke-width:0.623608734008428px"/><path d="M28.15,38.7A18.24,18.24,0,0,1,18.3,25.6v0c-7.59,2.08-6.27,8.59-5.92,9.91a70.06,70.06,0,0,0,9.26,10.31c7.4,5.29,21.72,5.07,23.57,5C42.42,46.77,38.11,43.9,28.15,38.7Z" style="fill:#63e0fc;stroke:#4ad6ed;stroke-miterlimit:10;stroke-width:0.623608734008428px"/><path d="M57.26,43.49c-1.7-1.74-2.77-4.35-19.1-10.44C28.21,29.33,25.7,22.82,25.26,18.3l0,.1C18.9,18,18.33,25,18.3,25.6a18.24,18.24,0,0,0,9.85,13.1c10,5.2,14.27,8.07,17.05,12.19h.2c13.09,1,13.24-2,13.24-2a3.49,3.49,0,0,0,3.48-1.63A25.92,25.92,0,0,1,57.26,43.49Z" style="fill:#63e0fc;stroke:#4ad6ed;stroke-miterlimit:10;stroke-width:0.623608734008428px"/><path d="M69.62,31.07C65.56,27,59,21.81,50.79,20.72c-10-1.33-14-6-15.51-8.71a15.59,15.59,0,0,0-5.71,1.76c0,3.21,1.7,8.33,12.75,9.41,15.64,1.53,25.76,8,28.21,16.18,4.27-1.56-1.41-7.77-1.41-7.77A4.07,4.07,0,0,0,69.62,31.07Z" style="fill:#63e0fc;stroke:#4ad6ed;stroke-miterlimit:10;stroke-width:0.623608734008428px"/><path d="M42.32,23.18c-11-1.08-12.78-6.2-12.75-9.41a9.42,9.42,0,0,0-4.31,4.53c.44,4.52,2.95,11,12.9,14.75,16.33,6.09,17.4,8.7,19.1,10.44a25.92,25.92,0,0,0,4.86,3.73l.07-.11A4.78,4.78,0,0,0,67,46c2.62-.14,3.39-6.52,3.39-6.52l.18-.07C68.08,31.17,58,24.71,42.32,23.18Z" style="fill:#63e0fc"/><path d="M42.32,23.21A28.79,28.79,0,0,1,38,22.48a15.88,15.88,0,0,1-4.09-1.57A9.29,9.29,0,0,1,30.67,18a7.84,7.84,0,0,1-1.18-4.2l.12.07a11.4,11.4,0,0,0-2.5,1.92,8,8,0,0,0-1.74,2.58v-.05a15.73,15.73,0,0,0,1.75,5.76,16.74,16.74,0,0,0,3.79,4.67A21.55,21.55,0,0,0,36,31.93c1.83.84,3.77,1.5,5.66,2.25a77.66,77.66,0,0,1,11.1,5.17,20,20,0,0,1,2.53,1.79,23.36,23.36,0,0,1,2.16,2.18A25.48,25.48,0,0,0,62.27,47l-.4.09.06-.1.12-.2.22.07a4.62,4.62,0,0,0,2.39.06,4.15,4.15,0,0,0,1.12-.44,4.25,4.25,0,0,0,1-.7l.09-.1h.12a1.88,1.88,0,0,0,1.36-.89,7.79,7.79,0,0,0,.85-1.65A18.23,18.23,0,0,0,70,39.39l0-.19.19-.07.17-.06-.19.38a17.28,17.28,0,0,0-4.46-7.05,27.34,27.34,0,0,0-7-4.78A50.42,50.42,0,0,0,42.32,23.21Zm0-.06a50.62,50.62,0,0,1,16.62,4.13A28.18,28.18,0,0,1,66.15,32a16.86,16.86,0,0,1,4.68,7.26l.08.28-.28.1-.19.07.22-.26a19.74,19.74,0,0,1-.93,3.86,8.36,8.36,0,0,1-.94,1.8A2.47,2.47,0,0,1,67,46.26l.21-.1a4.8,4.8,0,0,1-1.11.83,4.6,4.6,0,0,1-1.27.5,5.09,5.09,0,0,1-2.71-.09l.34-.14-.07.13-.16.24L62,47.48a26.11,26.11,0,0,1-4.87-3.77A23,23,0,0,0,55,41.54a19.39,19.39,0,0,0-2.44-1.76,76.74,76.74,0,0,0-11-5.21c-1.89-.76-3.81-1.42-5.67-2.29A22.11,22.11,0,0,1,30.69,29a16.76,16.76,0,0,1-3.83-4.79,16.15,16.15,0,0,1-1.72-5.88v0A8.2,8.2,0,0,1,27,15.62a11.14,11.14,0,0,1,2.56-1.92l.12-.07v.14a7.63,7.63,0,0,0,1.12,4.14A9.15,9.15,0,0,0,34,20.82,15.92,15.92,0,0,0,38,22.4,29.89,29.89,0,0,0,42.32,23.15Z" style="fill:#4ad6ed"/><path d="M22.83,25.74s-2.74,3.81,6.24,12c8.49,7.67,20.18,11.89,24.34,9.71s1.54-6.81-4.47-10S34.16,33.05,28.3,27C28.3,27,24.89,23.41,22.83,25.74Z" style="fill:#94f2ff"/><path d="M36.81,32.18S32.12,28.89,30,25.55s2.2-3.57,4.54-3.15,11.94,2.17,16.18,3.2S63.67,27.86,68,35.8s-4,8.42-5.8,8.05A17.27,17.27,0,0,1,56,41c-1.74-1.37-10.68-5.36-13.53-6.49S36.81,32.18,36.81,32.18Z" style="fill:#94f2ff"/><path d="M16.49,33s2.45-1.64,5.89,2,9.44,6.35,10.69,6.91,6.79,3.34,6.79,4.47-2.1,2.72-6.84,2.11-9-1.6-11.14-3.66-4.39-4.38-5.39-6.49S14.94,34.49,16.49,33Z" style="fill:#94f2ff"/><path d="M34.56,18.92s2.7,3,11.34,4.33A42.22,42.22,0,0,1,61.33,28.7c.84.57,3.19.66,3.64.05a1.51,1.51,0,0,0-.35-2.16c-.8-.47-6.34-4.52-11.68-5.55s-10.09-1.83-12.08-2.49-3.75-1.22-5-.85S34.26,18,34.56,18.92Z" style="fill:#94f2ff"/><path d="M58.73,22.54s4.34,1.6,6.44,1.32,2.3-1.22.15-2.77-10.14-5.74-14.48-6.3S43.35,15,43.35,16s2.75,3.1,4.79,3.62S57,21.23,58.73,22.54Z" style="fill:#94f2ff"/><path d="M54,3.58a7.1,7.1,0,0,0-3.78-2.32A7.09,7.09,0,0,0,41.74,4.9c-.4-.26-7.33-2.14-9.19-.13a5.62,5.62,0,0,0-1.66,5c2.94,2.09,9.28,6.17,15,6.91C45.86,16.68,52.72,11.08,54,3.58Z" style="fill:#fe92c2"/><path d="M54,3.58c-1.32,7.5-8.18,13.1-8.18,13.1-5.69-.74-12-4.82-15-6.91a9.93,9.93,0,0,0,2.73,4.78c4.26,4.64,13.44,5.14,13.44,5.14,6.39-3.63,7.46-10.78,7.73-11.41A5.09,5.09,0,0,0,54,3.58Z" style="fill:#fb5a8e"/><g style="clip-path:url(#e2119d45-2018-4d7d-b359-0f5e5dc5ca52)"><path d="M41.42,57.4h1.22a.79.79,0,0,1,.79.79V80.08a0,0,0,0,1,0,0H40.63a0,0,0,0,1,0,0V58.18a.79.79,0,0,1,.79-.79Z" style="fill:#63e0fc;stroke:#4ad6ed;stroke-miterlimit:10;stroke-width:0.623608734008428px"/><path d="M48.05,57.24h1.22a.79.79,0,0,1,.79.79V79.92a0,0,0,0,1,0,0H47.26a0,0,0,0,1,0,0V58a.79.79,0,0,1,.79-.79Z" transform="translate(4.91 -3.23) rotate(4)" style="fill:#63e0fc;stroke:#4ad6ed;stroke-miterlimit:10;stroke-width:0.623608734008428px"/><path d="M54.45,56.69h1.22a.79.79,0,0,1,.79.79V79.37a0,0,0,0,1,0,0H53.66a0,0,0,0,1,0,0V57.48A.79.79,0,0,1,54.45,56.69Z" transform="translate(7.9 -5.69) rotate(6.38)" style="fill:#63e0fc;stroke:#4ad6ed;stroke-miterlimit:10;stroke-width:0.623608734008428px"/><path d="M60.85,54.9h1.22a.79.79,0,0,1,.79.79V77.58a0,0,0,0,1,0,0H60.06a0,0,0,0,1,0,0V55.69A.79.79,0,0,1,60.85,54.9Z" transform="translate(10.58 -8.44) rotate(8.59)" style="fill:#63e0fc;stroke:#4ad6ed;stroke-miterlimit:10;stroke-width:0.623608734008428px"/><path d="M34,58.1h2.79a0,0,0,0,1,0,0V80a.79.79,0,0,1-.79.79H34.78A.79.79,0,0,1,34,80V58.1A0,0,0,0,1,34,58.1Z" transform="translate(75.55 136.24) rotate(176)" style="fill:#63e0fc;stroke:#4ad6ed;stroke-miterlimit:10;stroke-width:0.623608734008428px"/><path d="M27.6,57.55h2.79a0,0,0,0,1,0,0V79.45a.79.79,0,0,1-.79.79H28.38a.79.79,0,0,1-.79-.79V57.55a0,0,0,0,1,0,0Z" transform="translate(65.46 134.14) rotate(173.62)" style="fill:#63e0fc;stroke:#4ad6ed;stroke-miterlimit:10;stroke-width:0.623608734008428px"/><path d="M21.2,55.76H24a0,0,0,0,1,0,0V77.65a.79.79,0,0,1-.79.79H22a.79.79,0,0,1-.79-.79V55.76A0,0,0,0,1,21.2,55.76Z" transform="translate(54.97 130.07) rotate(171.41)" style="fill:#63e0fc;stroke:#4ad6ed;stroke-miterlimit:10;stroke-width:0.623608734008428px"/></g></svg>