<svg id="f6bc0322-bdb4-4d09-9726-7381a804cbf8" data-name="Layer 1" xmlns="http://www.w3.org/2000/svg" xmlns:xlink="http://www.w3.org/1999/xlink" viewBox="0 0 180 170"><defs><clipPath id="a7b6384d-bb21-40b6-a6d2-296e8e40d9a6"><path d="M9.15,127.28V161.5a6.5,6.5,0,0,0,6.49,6.5H164.55a6.5,6.5,0,0,0,6.5-6.5V127.28Z" style="fill:none"/></clipPath><clipPath id="bcbf34ed-453a-4e15-bbd6-deabcf476d2f"><path d="M33.93,40.78H144.7a7.57,7.57,0,0,1,7.51,6.65l8.36,68.29a7.57,7.57,0,0,1-7.51,8.49H27a7.57,7.57,0,0,1-7.53-8.33l7-68.3A7.58,7.58,0,0,1,33.93,40.78Z" style="fill:none"/></clipPath></defs><path d="M9.15,127.28V161.5a6.5,6.5,0,0,0,6.49,6.5H164.55a6.5,6.5,0,0,0,6.5-6.5V127.28Z" style="fill:#e3c08a"/><g style="clip-path:url(#a7b6384d-bb21-40b6-a6d2-296e8e40d9a6)"><rect x="21.86" y="35.77" width="9.93" height="213.88" transform="translate(-93.05 60.77) rotate(-45)" style="fill:#ff7a8c"/><rect x="52.26" y="33.08" width="9.93" height="213.88" transform="translate(-82.25 81.48) rotate(-45)" style="fill:#ff7a8c"/><rect x="107.22" y="29.19" width="9.93" height="213.88" transform="translate(-63.4 119.2) rotate(-45)" style="fill:#ff7a8c"/><rect x="126.43" y="20.34" width="9.93" height="213.88" transform="translate(-51.51 130.19) rotate(-45)" style="fill:#ff7a8c"/></g><path d="M9.15,127.28H171a0,0,0,0,1,0,0V135a1.18,1.18,0,0,1-1.18,1.18H10.33A1.18,1.18,0,0,1,9.15,135v-7.68a0,0,0,0,1,0,0Z" style="fill:#856539;opacity:0.8"/><path d="M24.35,33.83H154a8.57,8.57,0,0,1,8.51,7.54l9.82,80.17a8.58,8.58,0,0,1-8.52,9.63H16.17a8.58,8.58,0,0,1-8.54-9.46l8.18-80.17A8.58,8.58,0,0,1,24.35,33.83Z" style="fill:#fbd398"/><path d="M33.93,40.78H144.7a7.57,7.57,0,0,1,7.51,6.65l8.36,68.29a7.57,7.57,0,0,1-7.51,8.49H27a7.57,7.57,0,0,1-7.53-8.33l7-68.3A7.58,7.58,0,0,1,33.93,40.78Z" style="fill:#b5934d"/><g style="clip-path:url(#bcbf34ed-453a-4e15-bbd6-deabcf476d2f)"><polygon points="27.1 40.78 151.4 40.78 154.98 70.08 24.11 70.08 27.1 40.78" style="fill:#c8a35a"/></g><path d="M5.34,117.91H174.82a0,0,0,0,1,0,0v11.87a3.47,3.47,0,0,1-3.47,3.47H8.81a3.47,3.47,0,0,1-3.47-3.47V117.91a0,0,0,0,1,0,0Z" style="fill:#e3c08a"/><path d="M22.43,24.88H155.89a8.83,8.83,0,0,1,8.76,7.76l10.11,82.51a8.84,8.84,0,0,1-8.77,9.91H14a8.84,8.84,0,0,1-8.79-9.73l8.42-82.51A8.84,8.84,0,0,1,22.43,24.88Z" style="fill:#fbd398"/><path d="M5.34,125.57H174.82a0,0,0,0,1,0,0v4.2a3.47,3.47,0,0,1-3.47,3.47H8.81a3.47,3.47,0,0,1-3.47-3.47v-4.2a0,0,0,0,1,0,0Z" style="fill:#e3ad61;opacity:0.72"/><ellipse cx="88.42" cy="52.3" rx="9.66" ry="8.51" style="fill:#ff7a8c"/><ellipse cx="107.31" cy="58.08" rx="9.66" ry="8.51" style="fill:#ff7a8c"/><ellipse cx="115.92" cy="73.99" rx="9.66" ry="8.51" style="fill:#ff7a8c"/><ellipse cx="109.15" cy="90.57" rx="9.66" ry="8.51" style="fill:#ff7a8c"/><ellipse cx="91.02" cy="97.99" rx="9.66" ry="8.51" style="fill:#ff7a8c"/><ellipse cx="72.28" cy="91.84" rx="9.66" ry="8.51" style="fill:#ff7a8c"/><ellipse cx="64.08" cy="75.76" rx="9.66" ry="8.51" style="fill:#ff7a8c"/><ellipse cx="71.27" cy="59.31" rx="9.66" ry="8.51" style="fill:#ff7a8c"/><ellipse cx="90" cy="75.15" rx="29.79" ry="26.27" style="fill:#ff7a8c"/><ellipse cx="90" cy="75.15" rx="24.44" ry="21.55" style="fill:none;stroke:#fff;stroke-miterlimit:10;stroke-width:0.55222761631012px"/><text transform="translate(76.25 81.76) scale(1.13 1)" style="font-size:22.645360946655273px;fill:#fff;font-family:Montserrat-Bold, Montserrat;font-weight:700">10</text></svg>