<svg id="b2e6733b-9317-4523-840b-5221563d8f64" data-name="Layer 4" xmlns="http://www.w3.org/2000/svg" xmlns:xlink="http://www.w3.org/1999/xlink" viewBox="0 0 84 86"><defs><linearGradient id="a7304b24-92f4-4ad8-933c-a28904be8def" x1="3.18" y1="59.35" x2="64.32" y2="59.35" gradientTransform="translate(3.11)" gradientUnits="userSpaceOnUse"><stop offset="0" stop-color="#a1cc84"/><stop offset="1" stop-color="#a1cc84"/></linearGradient><linearGradient id="b0685708-85f9-4f4d-9ee9-944d2bf13a94" x1="8.34" y1="65.53" x2="67.3" y2="65.53" gradientTransform="translate(3.11)" gradientUnits="userSpaceOnUse"><stop offset="0" stop-color="#dae8bf"/><stop offset="0.51" stop-color="#bbd99f"/><stop offset="1" stop-color="#a1cc84"/></linearGradient><linearGradient id="a6928997-9743-49d2-ac05-672caa01d0c5" x1="8.34" y1="62.93" x2="67.3" y2="62.93" xlink:href="#b0685708-85f9-4f4d-9ee9-944d2bf13a94"/><linearGradient id="ee8888ef-ac7c-4ed9-b4aa-f8744b8ccd3b" x1="8.34" y1="62.36" x2="67.3" y2="62.36" xlink:href="#b0685708-85f9-4f4d-9ee9-944d2bf13a94"/><linearGradient id="e246cd46-f1d6-41c7-97dd-5012ed24c27a" x1="8.96" y1="72.93" x2="67.84" y2="72.93" gradientTransform="translate(3.11)" gradientUnits="userSpaceOnUse"><stop offset="0" stop-color="#f2f7e9"/><stop offset="0.3" stop-color="#eaf2db"/><stop offset="1" stop-color="#dae8bf"/></linearGradient><linearGradient id="a50383b1-e37c-4aa4-896c-e4095bb006e2" x1="8.96" y1="71.38" x2="67.84" y2="71.38" gradientTransform="translate(3.11)" gradientUnits="userSpaceOnUse"><stop offset="0" stop-color="#f2f7e9"/><stop offset="1" stop-color="#f2f7e9"/></linearGradient><linearGradient id="ad34e4ef-7ada-44c1-acf1-0caa85329179" x1="3.27" y1="46.82" x2="73.79" y2="46.82" gradientTransform="translate(3.11)" gradientUnits="userSpaceOnUse"><stop offset="0" stop-color="#a1cc84"/><stop offset="0.68" stop-color="#9b8e66"/><stop offset="1" stop-color="#99755a"/></linearGradient></defs><path d="M6.3,37c.21.65,8.88,44.66,8.88,44.66H68.3L77,37.24Z" style="fill:url(#a7304b24-92f4-4ad8-933c-a28904be8def)"/><path d="M36.41,49.38l1.35,32.3H47C47,67.93,47,49.38,47,49.38Z" style="fill:url(#b0685708-85f9-4f4d-9ee9-944d2bf13a94)"/><path d="M55.37,81.68h8.1c1.21-15.13,3.19-37.5,3.19-37.5l-9.76,1.3Z" style="fill:url(#a6928997-9743-49d2-ac05-672caa01d0c5)"/><path d="M26.66,46,16.25,43l4.36,38.64h8.5C28.05,67.23,26.66,46,26.66,46Z" style="fill:url(#ee8888ef-ac7c-4ed9-b4aa-f8744b8ccd3b)"/><path d="M53.51,75.6c-12-.06-17.35-10.59-30.46-11.45a27.6,27.6,0,0,0-11,1.61c1.72,8.7,3.15,16,3.15,16H68.34L71,68.36C63.9,74.19,58,75.63,53.51,75.6Z" style="fill:url(#e246cd46-f1d6-41c7-97dd-5012ed24c27a)"/><path d="M23.05,64.15a27.6,27.6,0,0,0-11,1.61c.19,1,.38,1.95.57,2.89a21,21,0,0,1,9.82-2.92C34.68,65.37,40,77.29,51.85,78.55c4.39.47,10.5-.45,18.34-6.27L71,68.36c-7.05,5.83-13,7.27-17.44,7.24C41.47,75.54,36.16,65,23.05,64.15Z" style="fill:url(#a50383b1-e37c-4aa4-896c-e4095bb006e2)"/><path d="M74.5,49.89l2.4-12.28L6.38,37.4c.28,1.32,1.19,5.82,2.31,11.47C26.81,59.74,59.56,57.25,74.5,49.89Z" style="opacity:0.7000000000000001;fill:url(#ad34e4ef-7ada-44c1-acf1-0caa85329179)"/><path d="M3.08,23.43,2,39.91S15,54,41.24,54,82,40.78,82,40.78L80.7,23.43Z" style="fill:#a1cc84"/><path d="M3.08,23.43c1.55-2,15.31-19.18,39-19.08,23.46.11,37,17,38.59,19.08a43.32,43.32,0,0,1-77.62,0Z" style="fill:#f2f7e9"/><path d="M7.06,23.69c1.38-1.8,13.73-17.22,35-17.13,21,.09,33.22,15.29,34.64,17.13a39.89,39.89,0,0,1-69.67,0Z" style="fill:#a1cc84"/><path d="M13.5,24.19s8.62,15,27.33,15c19,0,29-14.6,29-14.6S58,11.22,41.84,11.22,13.5,24.19,13.5,24.19Z" style="fill:#f2f7e9"/><path d="M18.15,24.35c8.09-9.7,23.69-13.13,23.69-13.13-16.11,0-28.34,13-28.34,13s8.62,15,27.33,15C22,34.19,18.15,24.35,18.15,24.35Z" style="fill:#f2f7e9"/></svg>