<svg viewBox="0 0 464 146" xmlns="http://www.w3.org/2000/svg" xmlns:xlink="http://www.w3.org/1999/xlink"><clipPath id="a"><path d="m0 0h464v146h-464z"/></clipPath><g clip-path="url(#a)"><path d="m365.13 99.23a55.17 55.17 0 0 0 -56-6.06 55.23 55.23 0 0 0 -82.2-18.27 75.24 75.24 0 0 0 -140.83 19.27 55.23 55.23 0 0 0 -80.21 49.27 57.49 57.49 0 0 0 .3 5.75h358.94z" fill="#183f6a"/><g fill="#6da597"><path d="m56.35 140.41-.27-.44c-.15-.25-3.76-6.36-1.53-13.24 1.65-5.07 6-9.14 13-12.11l.6-.26.27.6c.17.35 4 8.81.6 16.24-2 4.36-6.1 7.41-12.16 9.08zm11.08-24.27c-6.22 2.77-10.11 6.47-11.58 11-1.72 5.27.4 10.2 1.15 11.68 5.37-1.58 9-4.33 10.77-8.18 2.67-5.77.45-12.47-.34-14.5z"/><path d="m48.24 132.87-.48-.19c-.28-.1-6.89-2.67-9.39-9.45-1.85-5-.94-10.91 2.7-17.55l.31-.57.59.3c.35.17 8.61 4.42 10.52 12.39 1.11 4.66-.21 9.59-3.94 14.65zm-6.31-25.93c-3.17 6-3.94 11.34-2.29 15.8 1.91 5.2 6.63 7.77 8.13 8.47 3.24-4.56 4.38-9 3.4-13.09-1.47-6.19-7.36-10.12-9.24-11.18z"/><g opacity=".6"><path d="m145.34 95.36-.26-.44c-.16-.25-3.76-6.36-1.53-13.24 1.64-5.07 6-9.15 13-12.11l.6-.26.28.6c.17.35 4 8.81.6 16.24-2 4.36-6.1 7.41-12.16 9.08zm11.09-24.27c-6.22 2.77-10.11 6.47-11.59 11-1.71 5.27.41 10.2 1.16 11.68 5.36-1.58 9-4.33 10.77-8.18 2.67-5.77.45-12.47-.34-14.5z"/><path d="m137.24 87.81-.48-.18c-.28-.1-6.89-2.67-9.39-9.45-1.85-5-.94-10.91 2.69-17.55l.32-.57.58.3c.35.17 8.62 4.42 10.52 12.39 1.12 4.66-.21 9.59-3.93 14.65zm-6.31-25.92c-3.17 6-3.94 11.34-2.3 15.8 1.92 5.2 6.63 7.77 8.14 8.47 3.24-4.56 4.38-9 3.4-13.09-1.48-6.19-7.36-10.07-9.24-11.18z"/></g><g opacity=".6"><path d="m286.81 113.58-.26-.44a14.51 14.51 0 0 1 -1.29-11.14c1.38-4.26 5-7.67 10.86-10.15l.6-.26.28.6c.14.3 3.38 7.37.5 13.61-1.69 3.65-5.12 6.21-10.19 7.61zm9.19-20.18c-5.07 2.29-8.26 5.32-9.46 9a13.19 13.19 0 0 0 .91 9.56c4.38-1.32 7.34-3.57 8.79-6.72 2.18-4.64.47-10.04-.24-11.84z"/><path d="m280.16 107.3-.48-.18a14.56 14.56 0 0 1 -7.88-7.93c-1.55-4.2-.79-9.14 2.25-14.69l.32-.58.58.3c.3.14 7.22 3.7 8.81 10.38.94 3.92-.17 8.05-3.29 12.29zm-5.24-21.55c-2.58 4.94-3.2 9.29-1.85 13a13.17 13.17 0 0 0 6.62 6.94c2.64-3.74 3.56-7.35 2.76-10.72-1.2-5.06-5.88-8.24-7.53-9.22z"/></g><path d="m142.38 127.22-.27-.44c-.15-.25-3.76-6.36-1.53-13.24 1.65-5.07 6-9.15 13-12.11l.61-.26.27.6c.17.35 4 8.8.6 16.24-2 4.36-6.1 7.41-12.16 9.08zm11.08-24.22c-6.22 2.77-10.11 6.47-11.59 11-1.71 5.27.41 10.2 1.16 11.68 5.37-1.58 9-4.33 10.77-8.18 2.67-5.82.45-12.5-.34-14.5z"/><path d="m134.27 119.67-.48-.18c-.28-.1-6.89-2.67-9.39-9.45-1.85-5-.94-10.91 2.7-17.55l.31-.57.59.29c.35.18 8.61 4.43 10.52 12.39 1.11 4.67-.21 9.6-3.94 14.66zm-6.27-25.92c-3.17 6-3.94 11.34-2.29 15.8 1.91 5.2 6.63 7.76 8.13 8.47 3.24-4.56 4.38-9 3.4-13.09-1.51-6.19-7.4-10.08-9.24-11.18z"/><path d="m124.73 132.61a16 16 0 0 1 -8.76-2.46c-4.49-2.89-7.31-8.15-8.39-15.64l-.09-.65.64-.12c.39-.06 9.55-1.64 15.86 3.59 3.69 3.06 5.6 7.8 5.66 14.08v.51l-.49.15a17.43 17.43 0 0 1 -4.43.54zm-15.73-17.61c1.08 6.72 3.66 11.43 7.66 14 4.65 3 10 2.21 11.59 1.87-.15-5.59-1.89-9.8-5.15-12.5-4.87-4.05-11.91-3.63-14.1-3.37z"/><path d="m260.62 87.47-.26-.44c-.16-.26-3.76-6.37-1.53-13.24 1.64-5.07 6-9.15 13-12.11l.61-.26.27.59c.17.36 4 8.81.6 16.25-2 4.35-6.1 7.41-12.16 9.07zm11.09-24.27c-6.22 2.77-10.11 6.47-11.59 11-1.71 5.27.41 10.2 1.16 11.69 5.37-1.58 9-4.34 10.77-8.19 2.67-5.79.45-12.48-.34-14.5z"/><path d="m252.52 79.92-.48-.18c-.28-.11-6.89-2.68-9.39-9.45-1.85-5-.94-10.91 2.7-17.55l.31-.57.58.29c.36.18 8.62 4.43 10.53 12.39 1.11 4.67-.22 9.6-3.94 14.66zm-6.31-25.92c-3.17 6-3.94 11.34-2.3 15.81 1.92 5.2 6.63 7.76 8.14 8.47 3.24-4.57 4.38-9 3.4-13.09-1.45-6.19-7.36-10.09-9.24-11.19z"/><path d="m243 92.86a16.07 16.07 0 0 1 -8.77-2.46c-4.48-2.89-7.3-8.15-8.38-15.64l-.09-.65.64-.12c.39-.07 9.55-1.64 15.85 3.58 3.7 3.06 5.6 7.8 5.66 14.09v.51l-.5.14a16.48 16.48 0 0 1 -4.41.55zm-15.73-17.62c1.09 6.72 3.67 11.43 7.67 14 4.65 3 10 2.22 11.59 1.88-.16-5.59-1.89-9.8-5.15-12.51-4.9-4.05-11.95-3.61-14.11-3.37z"/></g><g fill="#a2cc21" opacity=".26"><path d="m43.84 99.48c.25.91-.55 1.92-1.79 2.32s-2.52.09-2.85-.78.46-2 1.78-2.43 2.6 0 2.86.89z"/><path d="m50 114.28a1.83 1.83 0 0 1 -3.5 1 1.82 1.82 0 0 1 3.5-1z"/><path d="m50.61 129.77c.15.41 0 .83-.27.93a.72.72 0 0 1 -.81-.53c-.16-.41-.06-.85.26-.95a.7.7 0 0 1 .82.55z"/><path d="m64.14 98.65a1 1 0 0 1 -1.14.85 1 1 0 0 1 -1.12-.84c0-.47.49-.86 1.12-.86s1.15.37 1.14.85z"/><path d="m59.53 140c.11.93-.16 1.75-.62 1.8s-.93-.59-1.12-1.51.07-1.76.59-1.83 1.04.63 1.15 1.54z"/><path d="m87.72 126.08a1.62 1.62 0 0 1 -2.23 1 1.92 1.92 0 0 1 -.35-.16 1.55 1.55 0 0 1 -.24-.19 1.6 1.6 0 0 1 -.35-.51 1.81 1.81 0 0 1 0-1.28 1.61 1.61 0 0 1 2.07-1.07 1.92 1.92 0 0 1 1.1 2.21z"/><path d="m33.22 122.44a1.21 1.21 0 0 1 -1.82 1.56 1.21 1.21 0 0 1 1.82-1.56z"/><path d="m70.13 119.71a.85.85 0 1 1 -1.69-.19.85.85 0 1 1 1.69.19z"/><path d="m95 103.12c.4 1.18.61 2.09.48 2a7 7 0 0 1 -.68-2.12c-.12-.51-.22-1-.33-1.44l-.15-.6.19.62c.17.51.33 1 .49 1.54z"/><path d="m102.68 123.53c.45 1.2.24 2-.46 1.72a4.28 4.28 0 0 1 -1.81-2.62c-.32-1.15-.13-1.87.42-1.64a5 5 0 0 1 1.85 2.54z"/><path d="m104.19 139.38c.13.48-.18.77-.68.66a1.53 1.53 0 0 1 -1.08-1.08c-.11-.49.2-.78.68-.66a1.69 1.69 0 0 1 1.08 1.08z"/><path d="m97.43 104.65a3.21 3.21 0 0 1 .71 1c0 .08-.38-.28-.78-.8a5.49 5.49 0 0 1 -.7-1 3.91 3.91 0 0 1 .77.8z"/><path d="m121.29 101.34a1.52 1.52 0 1 1 -1 2.84 1.52 1.52 0 1 1 1-2.84z"/><path d="m91.27 118.62c-.1.6-.52.94-1 .78a1.1 1.1 0 0 1 -.5-1.33c.16-.58.59-.93 1-.79a1.23 1.23 0 0 1 .5 1.34z"/><path d="m116.33 119.39a2 2 0 0 1 .71 1.54c-.06.49-.43.58-.84.21a2.25 2.25 0 0 1 -.69-1.55c.02-.47.39-.59.82-.2z"/><path d="m112.92 71.18c.67.67.39 1.94-.48 2.93s-2.18 1.29-2.89.68-.54-1.94.41-3 2.32-1.27 2.96-.61z"/><path d="m125.46 81.17a1.85 1.85 0 0 1 -2.61 2.6 1.85 1.85 0 0 1 2.61-2.6z"/><path d="m133.42 94.47a.6.6 0 1 1 -.75.88.61.61 0 1 1 .75-.88z"/><path d="m131.8 60.48c.19.43-.14 1-.74 1.27a1.12 1.12 0 0 1 -1.46-.25c-.21-.43.11-1 .73-1.3s1.28-.2 1.47.28z"/><path d="m145.69 99.64c.53.79.7 1.56.43 1.77s-1-.22-1.56-.94-.79-1.51-.46-1.78 1.08.18 1.59.95z"/><path d="m163.77 78.6a1.5 1.5 0 1 1 -2.93-.58 1.51 1.51 0 1 1 2.93.58z"/><path d="m114.59 96.1a1.15 1.15 0 0 1 -.92 2.11 1.15 1.15 0 0 1 .92-2.11z"/><path d="m146 77.25a.84.84 0 1 1 -1.61.46.84.84 0 1 1 1.61-.46z"/><path d="m192.43 66.3a2.07 2.07 0 0 1 -2.85 0c-1-.73-1.53-1.92-1-2.71s1.88-.83 3 0 1.42 1.97.85 2.71z"/><path d="m184.21 80a1.81 1.81 0 0 1 -2.87-2.19 1.81 1.81 0 0 1 2.87 2.19z"/><path d="m172.06 89.69a.61.61 0 1 1 -1-.64.71.71 0 0 1 .93-.34.69.69 0 0 1 .07.98z"/><path d="m204.8 81.19a1 1 0 0 1 -1.31-.27 1 1 0 0 1 0-1.35 1 1 0 0 1 1.31.27 1 1 0 0 1 0 1.35z"/><path d="m169.46 103.25c-.66.66-1.51.89-1.87.51a.83.83 0 0 1 -.15-.81 2.74 2.74 0 0 1 .6-1.06c.62-.68 1.48-1 1.89-.58s.2 1.29-.47 1.94z"/><path d="m200.62 117.63c-.56.93-1.39 1-1.88.05a3.29 3.29 0 0 1 .29-3.21c.64-.82 1.49-.82 1.89 0a3.83 3.83 0 0 1 -.3 3.16z"/><path d="m168 71.22a1.09 1.09 0 0 1 -1.4.69 1.08 1.08 0 1 1 .57-2.07 1.15 1.15 0 0 1 .83 1.38z"/><path d="m192.38 99.1a.87.87 0 0 1 -1.21-.2.9.9 0 0 1 1.49-1 .9.9 0 0 1 -.28 1.2z"/><path d="m215.94 94.43a6.92 6.92 0 0 1 -.53 2.55 8.23 8.23 0 0 1 .33-2.68c.13-.63.25-1.22.37-1.79 0-.25.1-.49.15-.75 0 .27-.07.52-.11.77-.07.61-.15 1.22-.21 1.9z"/><path d="m214.08 119.84a4 4 0 0 1 -.52 1.81c-.27.42-.62.63-1 .48-.7-.29-1-1.8-.76-3.24s.85-2.33 1.4-2.1a1.6 1.6 0 0 1 .67 1 6 6 0 0 1 .21 2.05z"/><path d="m208 136.61a.59.59 0 0 1 -.94.38 1.3 1.3 0 0 1 -.58-1.28.55.55 0 0 1 .91-.33 1.27 1.27 0 0 1 .61 1.23z"/><path d="m217.56 96.78a3.84 3.84 0 0 1 .2 1.32c-.07.06-.25-.46-.39-1.16a6.39 6.39 0 0 1 -.2-1.31 4.34 4.34 0 0 1 .39 1.15z"/><path d="m239 104.27a1.63 1.63 0 0 1 .62 2.12 1.55 1.55 0 0 1 -2.3.67 2 2 0 0 1 -.57-2.48 1.55 1.55 0 0 1 2.25-.31z"/><path d="m206.23 110.82c-.33.65-.76.83-.95.41a2.29 2.29 0 0 1 .31-1.82c.36-.59.79-.78.95-.42a2.55 2.55 0 0 1 -.31 1.83z"/><path d="m229.08 120.6a2 2 0 0 1 -.07 1.66c-.29.4-.68.32-.88-.19a2.06 2.06 0 0 1 .11-1.64c.24-.43.61-.33.84.17z"/><path d="m248 73.18c.11.93-1.07 1.83-2.67 2.16s-3.11 0-3.37-.93a1.44 1.44 0 0 1 .59-1.39 4.57 4.57 0 0 1 2.11-1c1.74-.36 3.21.24 3.34 1.16z"/><path d="m252.07 88.72a1.88 1.88 0 0 1 -1.72 1.89 1.93 1.93 0 0 1 -2.19-1.35 1.82 1.82 0 0 1 1.73-2 1.8 1.8 0 0 1 2.18 1.46z"/><path d="m250.66 104.09c.1.42 0 .81-.21.87s-.49-.22-.62-.64-.05-.82.2-.89.53.23.63.66z"/><path d="m271.54 77.66c-.16.44-.82.6-1.49.38s-1.11-.75-1-1.21.81-.64 1.51-.41 1.15.79.98 1.24z"/><path d="m255.33 115.81c-.13.92-.39 1.67-.57 1.64s-.29-.77-.28-1.7.23-1.68.52-1.68.45.81.33 1.74z"/><path d="m281.21 113.75a1.54 1.54 0 1 1 -1.68-2.56 1.54 1.54 0 1 1 1.68 2.56z"/><path d="m233.82 97.47a1.31 1.31 0 0 1 -1.59 2 1.3 1.3 0 0 1 1.59-2z"/><path d="m270.14 99.69a.88.88 0 0 1 -1.17.37.89.89 0 0 1 -.28-1.19.87.87 0 0 1 1.18-.38.85.85 0 0 1 .27 1.2z"/><path d="m337.7 98.25c-.09.94-1.35 1.58-2.91 1.48s-2.83-.9-2.79-1.85 1.43-1.64 3-1.53 2.77.98 2.7 1.9z"/><path d="m338.78 114.32c-.09.93-1.25 1.57-2.59 1.46s-2.39-1-2.33-1.88 1.24-1.62 2.62-1.5 2.4.99 2.3 1.92z"/><path d="m331.74 128.82a1 1 0 0 1 -2-.08.88.88 0 0 1 1-.75.9.9 0 0 1 1 .83z"/><path d="m359.66 102.89c-.07.46-.71.75-1.41.64s-1.22-.57-1.15-1 .69-.76 1.4-.65 1.23.54 1.16 1.01z"/><path d="m343.62 142.19a2.07 2.07 0 0 1 -2.5 1.39c-1.24-.15-2.13-1-2-2a2 2 0 0 1 2.43-1.41c1.26.21 2.19 1.1 2.07 2.02z"/><path d="m312.78 115.61c.16.56-.43 1.24-1.32 1.54s-1.75.12-2-.44.35-1.31 1.3-1.6 1.86-.11 2.02.5z"/><path d="m365.61 125a1.13 1.13 0 0 1 -1.41.62c-.67-.15-1.14-.66-1-1.14s.73-.78 1.41-.63 1.11.61 1 1.15z"/></g><path d="m262.22 150.56s-1.34-25.58 19.53-28.28a15 15 0 0 1 14.14 0s-8.76-53.86 72-33c0 0-6.06-36.35 15.48-43.09s33.67 12.12 33.67 17.51-6.74-57.23 31.64-60.6c0 0 31.64 0 38.38 37 0 0 19.9-82.81 96.8-47.8v158.26z" fill="#72b220"/><path d="m504.55 131.35a7.08 7.08 0 0 1 -3.85-1.09c-2.63-1.7-4-5.21-3.58-9 .4-3.27 2-6.26 3.45-8.91 2.45-4.53 4.94-9.14 7.68-13.58a24.47 24.47 0 0 0 -6.25-6.15c-2.19-1.49-5.55-3.15-9.08-2.62a16.07 16.07 0 0 0 -5.13 2 64.79 64.79 0 0 0 -23.95 22.43l-1.37 2.19v-2.62a130.75 130.75 0 0 0 -3.19-28.3 17.49 17.49 0 0 0 -2.2-6c-2.32-3.45-7.14-5.11-11.73-4-4 .92-7.74 3.72-10.64 7.87s-4.64 9.08-6.2 13.46c-.46 1.3-1 2.73-1.34 4.22a25.87 25.87 0 0 1 8.53 5.6 5.06 5.06 0 0 1 1.53 2.43c.43 2-1.21 3.86-3 4.43a5.9 5.9 0 0 1 -4.79-.62 8.71 8.71 0 0 1 -4.05-5.54 13.67 13.67 0 0 1 0-5.37 36.12 36.12 0 0 0 -15.39-1.8c-6.6.59-12 2.53-16.15 5.75a19.7 19.7 0 0 0 -5.17 6.07 13 13 0 0 1 3.61 8.79c0 2.2-1.16 4.59-3.31 4.7s-3.6-2.28-3.78-4.69a17 17 0 0 1 1.65-8.49 20.19 20.19 0 0 0 -7.5-4.58c-14.59-4.94-30.26 3.27-40.83 11l-.89-1.21c10.86-8 27-16.4 42.2-11.25a21.86 21.86 0 0 1 7.76 4.58 21.11 21.11 0 0 1 5.33-6.14c4.35-3.4 10.05-5.44 16.95-6.07a37.7 37.7 0 0 1 15.92 1.79c.38-1.48.89-2.89 1.34-4.18 1.59-4.47 3.4-9.54 6.39-13.82 3.11-4.45 7.21-7.46 11.53-8.47 5.18-1.21 10.66.71 13.31 4.66a18.87 18.87 0 0 1 2.43 6.53 132.42 132.42 0 0 1 3.19 26.16 66.48 66.48 0 0 1 23.14-20.89 17.77 17.77 0 0 1 5.63-2.15c4-.6 7.73 1.23 10.15 2.87a25.85 25.85 0 0 1 6.25 6.06 76.32 76.32 0 0 1 12.67-15.58c10.37-9.47 23.68-13.48 34.74-10.47l-.39 1.45c-12.63-3.44-25.5 3-33.33 10.13a75.32 75.32 0 0 0 -12.84 15.85 32.53 32.53 0 0 1 5.15 17.91c0 4.8-1.14 8.56-3.33 11.18a10 10 0 0 1 -7.27 3.48zm4.62-31.16c-2.59 4.23-4.95 8.6-7.28 12.92-1.43 2.65-2.91 5.39-3.28 8.37-.29 2.42.29 5.83 2.91 7.51 3 1.93 7.09.42 9.19-2.09 1.95-2.34 3-5.78 3-10.22a31.19 31.19 0 0 0 -4.54-16.49zm-121.25 13.51a15.35 15.35 0 0 0 -1.27 7.19c.11 1.41.86 3.38 2.22 3.3s1.88-1.91 1.88-3.2a11.36 11.36 0 0 0 -2.83-7.29zm38.93-11a11.89 11.89 0 0 0 0 4.49 7.27 7.27 0 0 0 3.33 4.56 4.41 4.41 0 0 0 3.58.49c1.16-.37 2.23-1.54 2-2.68a3.82 3.82 0 0 0 -1.14-1.69 24.22 24.22 0 0 0 -7.77-5.17z" fill="#a2cc21"/><path d="m336.16 108.34c-1.89 0-3.78-.16-5.63-.31l-1-.08.32-.91a34.37 34.37 0 0 1 4.86-9.04 12.6 12.6 0 0 1 4.61-4.16c2.19-1 4.64-.94 6.8-.88l8.33.23-.05 1.5h-1.52c-.95 4.61-2.5 7.79-4.87 10a15.2 15.2 0 0 1 -8.47 3.58 27.26 27.26 0 0 1 -3.38.07zm-4.53-1.72a38.31 38.31 0 0 0 7.72 0 13.9 13.9 0 0 0 7.64-3.19c2.09-1.92 3.48-4.75 4.36-8.91l-5.27-.14c-2-.06-4.26-.12-6.13.74a11.4 11.4 0 0 0 -4 3.69 33.35 33.35 0 0 0 -4.32 7.81z" fill="#a2cc21"/><path d="m373.43 98.63h-.29a1.75 1.75 0 0 1 -1.39-.62 1.82 1.82 0 0 1 -.26-1.4l1-7.37a22.45 22.45 0 0 1 1.43-6.18 12 12 0 0 1 10.61-7v.07l.22-.09c2.4 5.74-.21 12-2.83 16.31-2.52 4.11-5.45 6.28-8.49 6.28zm-.43-1.53h.24c3.25.14 5.82-3 7.42-5.56 2.28-3.72 4.57-9.06 3.08-14a10.55 10.55 0 0 0 -8.43 6.05 22.09 22.09 0 0 0 -1.31 5.84l-1 7.37a1.2 1.2 0 0 0 0 .3z" fill="#a2cc21"/><path d="m407 75.6a23.45 23.45 0 0 1 -5-.53 13.77 13.77 0 0 1 -7.14-3.62c-2.25-2.34-3.16-5.54-4-8.36l1.44-.41c.75 2.65 1.61 5.66 3.6 7.73a12.27 12.27 0 0 0 6.38 3.19 21.93 21.93 0 0 0 9.09 0 24.86 24.86 0 0 0 -20.37-11.48v-1.5a26.41 26.41 0 0 1 21.79 12.38 1.43 1.43 0 0 1 .26 1.06c-.07.38-.35.88-1.27 1.07a23.42 23.42 0 0 1 -4.78.47z" fill="#a2cc21"/><path d="m429.09 47.39a46.36 46.36 0 0 1 -4.88-.28l-.81-.11.15-.79c.58-3.09 2.86-5.5 4.69-7.43s4-4.18 6.66-5.43c3.5-1.62 7.46-1.41 11-1.24l-.08 1.5c.76 5-2.85 9.7-6.9 11.75a21.64 21.64 0 0 1 -9.83 2.03zm-3.86-1.69c4 .36 8.87.41 13-1.66 3.69-1.86 6.85-6.23 6-10.48-2.91-.12-6-.07-8.69 1.17-2.44 1.13-4.36 3.15-6.21 5.1-1.53 1.61-3.33 3.57-4.1 5.87z" fill="#a2cc21"/><path d="m445.62 27.41a34.22 34.22 0 0 1 -4.76-.41c-3.21-.44-6.55-1.05-9.1-3.2a2.61 2.61 0 0 1 -.92-1.3c-.26-1 .41-2.06 1.83-2.79a29.53 29.53 0 0 1 22.65-1.71l-.32 1 1.06-.1c.36 3.62-2.55 6.63-5.62 7.74a14.1 14.1 0 0 1 -4.82.77zm.46-9.4a27.81 27.81 0 0 0 -12.72 3c-.59.3-1.15.76-1.06 1.1a1.27 1.27 0 0 0 .43.51c2.24 1.89 5.35 2.45 8.33 2.86s6.08.73 8.85-.27c2.38-.86 4.76-3.2 4.66-5.9a27.35 27.35 0 0 0 -8.49-1.31z" fill="#a2cc21"/><path d="m457.27 51q-1.92 0-3.84-.18l.12-1.35-1.22-.09c.3-4 3.05-8 7.18-10.37s8.64-2.9 12.22-3.18a1.91 1.91 0 0 1 1.38.3 2 2 0 0 1 .65 1.52c.2 3.31.22 6.74-1.83 9.23-1.77 2.15-4.58 2.93-6.83 3.36a40.5 40.5 0 0 1 -7.83.76zm-3.43-1.65a39.58 39.58 0 0 0 11-.58c2-.39 4.5-1.07 6-2.84 1.71-2.07 1.68-5.06 1.49-8.19a1.33 1.33 0 0 0 -.07-.44h-.34c-3.43.27-7.85.85-11.6 3s-6.17 5.57-6.48 9.07z" fill="#a2cc21"/><path d="m428.59 67.55-.13-.86c-.56-3.58.89-7.07 2.41-10.33a24.64 24.64 0 0 1 4.1-6.68 9.62 9.62 0 0 1 6.89-3.23l1-.52a17.47 17.47 0 0 1 2.42 6.75c.25 3.63-1.81 7.5-5.39 10.11-3.15 2.3-7 3.47-10.46 4.51zm13.18-19.55a8.17 8.17 0 0 0 -5.71 2.76 23.61 23.61 0 0 0 -3.83 6.24c-1.3 2.78-2.54 5.72-2.38 8.61a30 30 0 0 0 9.15-4c2.48-1.8 5-5.06 4.77-8.79a13.22 13.22 0 0 0 -1.56-4.84z" fill="#a2cc21"/><path d="m457.3 72.52v-1c-.07-3.91.14-9 2.4-13.42s6.48-7.46 10.77-7.66a4.71 4.71 0 0 1 .16-.62l1.43.47a8 8 0 0 0 -.15 3.14l.35 4.69a12.43 12.43 0 0 1 -.4 5.42c-1 2.54-3.3 4.12-5.23 5.21a36.81 36.81 0 0 1 -8.38 3.48zm13-20.54c-3.69.26-7.29 2.89-9.29 6.83-1.93 3.79-2.26 8.15-2.25 11.73a35.72 35.72 0 0 0 7.1-3.06c1.71-1 3.78-2.35 4.57-4.44a11.32 11.32 0 0 0 .31-4.78l-.36-4.69c-.03-.51-.07-1.04-.07-1.57z" fill="#a2cc21"/><g fill="#a2cc21" opacity=".82"><path d="m316.17 99a2.56 2.56 0 0 1 -1.77 2.75 2 2 0 0 1 -2.82-.93 2.58 2.58 0 0 1 1.76-2.82c1.31-.56 2.58 0 2.83 1z"/><path d="m322.28 116.53a2.19 2.19 0 0 1 -1.28 2.47 1.73 1.73 0 0 1 -2.19-1.3 2.12 2.12 0 0 1 1.26-2.56 1.68 1.68 0 0 1 2.21 1.39z"/><path d="m322.88 134.87c.14.49 0 1-.27 1.1s-.64-.15-.81-.63-.05-1 .26-1.12.67.16.82.65z"/><path d="m336.27 98a1.09 1.09 0 0 1 -1.11 1 1 1 0 1 1 0-2 1 1 0 0 1 1.11 1z"/><path d="m331.7 147c.11 1.1-.16 2.06-.61 2.13s-.92-.7-1.11-1.79.07-2.08.59-2.17 1.02.74 1.13 1.83z"/><path d="m359.6 130.5a1.53 1.53 0 0 1 -2.2 1.16 1.66 1.66 0 0 1 -.35-.19 1.26 1.26 0 0 1 -.24-.22 2.08 2.08 0 0 1 -.34-.6 2.56 2.56 0 0 1 0-1.53 1.57 1.57 0 0 1 2-1.26 2.37 2.37 0 0 1 1.13 2.64z"/><path d="m305.66 126.19a1.56 1.56 0 0 1 -.21 1.88 1 1 0 0 1 -1.59 0 1.5 1.5 0 0 1 .2-1.89 1 1 0 0 1 1.6.01z"/><path d="m342.19 123c-.06.58-.48 1-.93 1a1 1 0 0 1 -.73-1.18.91.91 0 0 1 .93-1 1 1 0 0 1 .73 1.18z"/><path d="m347.87 90.4a7.42 7.42 0 0 1 .48 2.41 9.33 9.33 0 0 1 -.69-2.53c-.12-.6-.22-1.15-.33-1.7l-.14-.71c.06.26.12.5.19.74.16.57.32 1.15.49 1.79z"/><path d="m355.45 114.57c.45 1.42.24 2.37-.45 2a5.15 5.15 0 0 1 -1.79-3.1c-.31-1.36-.13-2.21.42-2a6 6 0 0 1 1.82 3.1z"/><path d="m357 133.34c.12.56-.18.9-.68.77a1.69 1.69 0 0 1 -1.07-1.28c-.1-.57.2-.92.67-.77a1.86 1.86 0 0 1 1.08 1.28z"/><path d="m350.27 92.22a4.25 4.25 0 0 1 .7 1.22c0 .1-.38-.33-.78-1a6.3 6.3 0 0 1 -.69-1.22 4.63 4.63 0 0 1 .77 1z"/><path d="m373.83 145.14a1.92 1.92 0 0 1 -.11 1.66 3.19 3.19 0 0 1 -1.46 1.47c-1.34.66-2.69.23-3.06-.82a2.36 2.36 0 0 1 1.56-2.8 3.57 3.57 0 0 1 1.83-.35 1.53 1.53 0 0 1 1.24.84z"/><path d="m373.88 88.29a2.06 2.06 0 0 1 1 2.37 1.54 1.54 0 0 1 -2.06 1 1.94 1.94 0 0 1 -1.08-2.39 1.47 1.47 0 0 1 2.14-.98z"/><path d="m344.17 108.75c-.1.71-.52 1.12-.95.92a1.4 1.4 0 0 1 -.48-1.57c.15-.68.57-1.1.94-.93s.58.88.49 1.58z"/><path d="m369 109.66a2.64 2.64 0 0 1 .7 1.83c-.05.58-.42.69-.83.24a3 3 0 0 1 -.68-1.82c-.01-.56.35-.67.81-.25z"/><path d="m380.45 63.65c.66.8.39 2.3-.47 3.47s-2.16 1.52-2.87.81-.53-2.31.41-3.54 2.3-1.53 2.93-.74z"/><path d="m392.86 75.48a2.47 2.47 0 0 1 -.13 2.93 1.59 1.59 0 0 1 -2.45.14 2.32 2.32 0 0 1 .09-3 1.53 1.53 0 0 1 2.49-.07z"/><path d="m400.75 91.22a.94.94 0 0 1 .2 1.12c-.19.29-.61.25-.95-.08a1 1 0 0 1 -.23-1.14c.23-.29.65-.24.98.1z"/><path d="m399.14 51a1.33 1.33 0 0 1 -.74 1.51 1 1 0 0 1 -1.44-.3 1.31 1.31 0 0 1 .73-1.53c.61-.37 1.31-.22 1.45.32z"/><path d="m412.89 97.35c.52.93.69 1.84.42 2.09s-.95-.26-1.54-1.11-.78-1.79-.45-2.12 1.06.23 1.57 1.14z"/><path d="m430.78 72.43c-.23 1.09-1 1.76-1.76 1.58s-1.26-1.16-1.14-2.26.93-1.84 1.78-1.67a1.93 1.93 0 0 1 1.12 2.35z"/><path d="m382.1 93.15a1.49 1.49 0 0 1 .52 1.76 1.08 1.08 0 0 1 -1.43.74 1.41 1.41 0 0 1 -.52-1.76c.26-.71.9-1.04 1.43-.74z"/><path d="m413.23 70.83a1.08 1.08 0 0 1 -.56 1.28c-.43.15-.89-.17-1-.73a1.11 1.11 0 0 1 .54-1.33.89.89 0 0 1 1.02.78z"/><path d="m444.3 46.81c-.57.87-1.83.85-2.82 0a2.81 2.81 0 0 1 -1-3.22c.49-.92 1.86-1 2.94 0a2.78 2.78 0 0 1 .88 3.22z"/><path d="m436.16 63.05a1.6 1.6 0 0 1 -2.44.3 2.43 2.43 0 0 1 -.4-2.89 1.52 1.52 0 0 1 2.44-.3 2.29 2.29 0 0 1 .4 2.89z"/><path d="m424.14 74.5c-.25.42-.66.61-.92.4a1 1 0 0 1 -.06-1.16c.23-.43.64-.61.92-.4a.94.94 0 0 1 .06 1.16z"/><path d="m456.55 64.44c-.37.35-.95.2-1.3-.32a1.34 1.34 0 0 1 0-1.6c.36-.36.95-.21 1.3.32a1.31 1.31 0 0 1 0 1.6z"/><path d="m421.57 90.56c-.67.77-1.5 1-1.86.6a1.11 1.11 0 0 1 -.14-1 3.19 3.19 0 0 1 .59-1.26c.61-.81 1.46-1.19 1.86-.69a2 2 0 0 1 -.45 2.35z"/><path d="m452.4 107.58c-.55 1.1-1.37 1.13-1.85.06a4.54 4.54 0 0 1 .28-3.8c.64-1 1.47-1 1.87 0a5.33 5.33 0 0 1 -.3 3.74z"/><path d="m420.09 52.64a1.06 1.06 0 0 1 -1.39.81 1.36 1.36 0 0 1 -.85-1.56 1.1 1.1 0 0 1 1.41-.89 1.41 1.41 0 0 1 .83 1.64z"/><path d="m444.25 85.64a.77.77 0 0 1 -1.2-.24 1.16 1.16 0 0 1 .25-1.4.77.77 0 0 1 1.22.22 1.17 1.17 0 0 1 -.27 1.42z"/><path d="m465.73 110.2a5.55 5.55 0 0 1 -.51 2.14c-.27.5-.62.75-1 .57-.69-.35-1-2.13-.75-3.83s.84-2.76 1.39-2.49a2 2 0 0 1 .66 1.23 8.76 8.76 0 0 1 .21 2.38z"/><path d="m459.66 130.05a.57.57 0 0 1 -.93.45 1.66 1.66 0 0 1 -.58-1.51c.1-.53.51-.71.9-.4a1.62 1.62 0 0 1 .61 1.46z"/><path d="m458 99.52c-.33.76-.76 1-.94.49a3.2 3.2 0 0 1 .3-2.16c.36-.7.78-.92.95-.49a3.65 3.65 0 0 1 -.31 2.16z"/></g></g></svg>