<svg id="b4da40b0-c139-4f8f-b41b-4ddc7d9a901f" data-name="Layer 1" xmlns="http://www.w3.org/2000/svg" viewBox="0 0 84 86"><path d="M78.81,33.37C77.13,27.81,52.41,16.86,36.36,20c-5.48,1.06-10,4.3-14.71,6.06C-2.06,34.88-1.49,51.52,8.14,64.75,13.59,72.25,28.27,80,44.88,78.91,91.79,75.75,78.81,33.37,78.81,33.37ZM57,57c-1.75-1.36-4.17-3.69-6.8-5.62-.11,0-.2-.05-.31-.1A50.45,50.45,0,0,0,44,49.1a24.71,24.71,0,0,1-3.09.47,8.71,8.71,0,0,0-5.27,1.28,5.16,5.16,0,0,1-1.92.78,30.89,30.89,0,0,0-3.36,2.43c-5.52,4.62-3.88-5.33-5.49-8.7-.29-3,20-11.15,27.57-5.75a13.13,13.13,0,0,1,3,2c.1.1.18.21.27.31,2.82,1.88,5.46,4.07,8.13,6.16C69.5,52.55,62.71,61.4,57,57Z" style="fill:#b9630f"/><path d="M7,44q.29.88.6,1.74L9,45.84c4.11.25,8.21-.41,12.32-.18l3.75.22a5.15,5.15,0,0,0-.2-.52c-.29-3,20-11.15,27.57-5.75a13.13,13.13,0,0,1,3,2c.1.1.18.21.27.31,1.62,1.08,3.17,2.26,4.71,3.46,2.33-1.12,4.66-2.32,7.07-3.35,3.2-1.37,7.9-3.66,12.24-4.61a36.76,36.76,0,0,0-.92-4.09C77.13,27.81,52.41,16.86,36.36,20c-5.48,1.06-10,4.3-14.71,6.06-10,3.76-15.72,8.92-18.21,14.62A4.61,4.61,0,0,1,7,44Z" style="fill:#9d4a00"/><path d="M72.64,62.58c.59-1.9-.16-4.94.92-6.5s4-2,5.49-3c2.63-1.84,2.61-5.47,2.94-8.35C83.34,33,78.87,22.33,60.6,14.82,51.11,10.93,31,6.88,13.27,19.69,2.69,27.34.69,35.47,2.26,45.07c.6,3.63,4,11,8.24,12.49,2.07.73,3.59.11,5.56,1.63a12.44,12.44,0,0,1,3.46,4.35c2.28,4.28,5,4.93,9.85,4.66,2.66-.15,3.86-.52,6,1.16a9.17,9.17,0,0,0,5.37,2.26c4.56.21,6.58-5.84,11.49-2.43,1.79,1.24,3.44,2.65,5.67,1.55s1.51-3.65,3.3-5C64.9,63,70.56,69.27,72.64,62.58ZM29.74,32.36c13.65-11,23.54,1.74,23.53,4.94C53.22,49.8,16.18,43.34,29.74,32.36Z" style="fill:#7d3622"/><path d="M25.5,31.11c2.93-4.09,6.38-8,10.88-10.26s10.23-2.59,14.4.23c5.6,3.78,7,12,12.82,15.43a8.36,8.36,0,0,0,7.94.56c2.45-1.27,3.95-4.41,2.93-7a8.81,8.81,0,0,0-2-2.79,42.6,42.6,0,0,0-54.22-5.55c-2.84,1.91-5.58,4.36-6.53,7.65s.64,7.48,4,8.29A6.87,6.87,0,0,0,21.49,36,24.43,24.43,0,0,0,25.5,31.11Z" style="fill:#a16d5e"/><path d="M44,51c-6.82-.07-13.15-3.42-19.56-5.77a13.63,13.63,0,0,0-4.85-1.09,5,5,0,0,0-4.25,2.2c-1.44,2.51.49,5.69,2.8,7.44,4.66,3.52,10.75,4.34,16.54,5,5.55.58,11.18,1.07,16.67.12s10.91-3.5,14.24-8a8.28,8.28,0,0,0,1.85-4.48c.06-1.64-.67-3.72-2.29-4C59.4,41.33,55.11,51.14,44,51Z" style="fill:#a16d5e"/><path d="M66.87,25.64a2.55,2.55,0,0,0-1.53-.33l-3.61,0,.12,1.92a11.06,11.06,0,0,1,5.72.66A2.61,2.61,0,0,0,66.87,25.64Z" style="fill:#cc3131"/><path d="M76.87,46.28A2.56,2.56,0,0,0,75.34,46l-3.6,0c0,.64.07,1.28.11,1.92a11.06,11.06,0,0,1,5.72.66A2.57,2.57,0,0,0,76.87,46.28Z" style="fill:#cc3131"/><path d="M73.1,51.34l-2.8-2.66a59.91,59.91,0,0,1-6.88,2.46,8.14,8.14,0,0,1,3,3.72A29.9,29.9,0,0,1,73.1,51.34Z" style="fill:#ead4af"/><path d="M15.61,35.19l-2.8-2.66A58.51,58.51,0,0,1,5.94,35a8.17,8.17,0,0,1,3,3.72A30.5,30.5,0,0,1,15.61,35.19Z" style="fill:#ead4af"/><path d="M45.69,58a3.15,3.15,0,0,0-1.36-1l-3-1.51L39,58.22a17.5,17.5,0,0,1,6.54,2.43A3.24,3.24,0,0,0,45.69,58Z" style="fill:#fc0"/><path d="M62.72,42.08a3.07,3.07,0,0,0-1.36-1l-3-1.51-2.34,2.8a17.49,17.49,0,0,1,6.55,2.43A3.2,3.2,0,0,0,62.72,42.08Z" style="fill:#fc0"/><path d="M20.83,27.27c-.37.93-.73,1.86-1.09,2.8l6.83,1.59a4.09,4.09,0,0,1,.69-2.35A29.53,29.53,0,0,1,20.83,27.27Z" style="fill:#5cb45f"/><path d="M37.25,19.35l-6-.26a7.57,7.57,0,0,0-1.36,2.55,23.54,23.54,0,0,1,7,.32A4.69,4.69,0,0,1,37.25,19.35Z" style="fill:#cc3131"/><path d="M45.51,23.93l3,.13a3.64,3.64,0,0,1-.48-2.9,5.32,5.32,0,0,0-.07-3l-2.07-.48C45.74,19.77,45.62,21.85,45.51,23.93Z" style="fill:#fc0"/><path d="M21.78,38.8l3,.12a3.58,3.58,0,0,1-.47-2.9,5.38,5.38,0,0,0-.08-3l-2.07-.49C22,34.63,21.89,36.72,21.78,38.8Z" style="fill:#fc0"/><path d="M57.54,29.46,56.3,27.83l-4.85,1.1,2.08,2.46Z" style="fill:#ead4af"/><path d="M24.77,56.14l-1.25-1.62-4.85,1.1,2.09,2.46Z" style="fill:#ead4af"/><path d="M67.22,34.6a1.46,1.46,0,0,0-.44-1.45,1.28,1.28,0,0,0-1.49-.1,2.28,2.28,0,0,0-.39.37A10.36,10.36,0,0,0,62.58,38a4.52,4.52,0,0,1,2.61.83,4.8,4.8,0,0,1,1-2.67A4.41,4.41,0,0,0,67.22,34.6Z" style="fill:#5cb45f"/><path d="M40.27,60.83a1.43,1.43,0,0,0-.44-1.45,1.25,1.25,0,0,0-1.48-.1,2,2,0,0,0-.4.37,10.52,10.52,0,0,0-2.32,4.57,4.55,4.55,0,0,1,2.62.83,4.77,4.77,0,0,1,1-2.67A4.62,4.62,0,0,0,40.27,60.83Z" style="fill:#5cb45f"/><path d="M22.24,49.88l2.25,1.54,3-4.33-2.2-.2Z" style="fill:#cc3131"/><path d="M10.34,41.57c.06.16.24.24.41.31l3.17,1.22a15.39,15.39,0,0,1,3.22-5.25,7.88,7.88,0,0,1-3.22-.56L10.59,41C10.42,41.12,10.26,41.35,10.34,41.57Z" style="fill:#fc0"/><path d="M60.7,60.59c.06.16.24.24.4.31l3.17,1.23a15.49,15.49,0,0,1,3.22-5.26,7.83,7.83,0,0,1-3.21-.56L60.94,60C60.78,60.14,60.61,60.37,60.7,60.59Z" style="fill:#fc0"/><path d="M55.79,62a12.26,12.26,0,0,1,3.31-4.24l-2.46-1.2-3.8,3.61Z" style="fill:#5cb45f"/><path d="M26.41,61.5,29.11,63a34.71,34.71,0,0,1,3.4-4.5,1.15,1.15,0,0,0-1-.64Z" style="fill:#6bc3c3"/><path d="M13,25.49,9.63,29.21,12,30.58l3.07-4.33Z" style="fill:#cc3131"/><path d="M24.29,20.53a3.45,3.45,0,0,0-1.78-.09l-3.09.42c.23.91.46,1.83.7,2.75a11,11,0,0,1,5.7-1.07A3.38,3.38,0,0,0,24.29,20.53Z" style="fill:#6bc3c3"/><path d="M21.24,44.61a3.39,3.39,0,0,0-1.79-.09l-3.09.41c.23.92.46,1.84.7,2.76a11,11,0,0,1,5.7-1.08A3.41,3.41,0,0,0,21.24,44.61Z" style="fill:#6bc3c3"/><path d="M73.63,41.35a2.56,2.56,0,0,0,.73.58,1.29,1.29,0,0,0,1.8-1.36,23.77,23.77,0,0,1-3-3.9l-3,1.18Z" style="fill:#6bc3c3"/><path d="M51.11,56.32a2.37,2.37,0,0,0,.73.57,1.27,1.27,0,0,0,1.3-.14,1.31,1.31,0,0,0,.5-1.22,23.28,23.28,0,0,1-3-3.89l-3,1.18Z" style="fill:#6bc3c3"/><path d="M56.78,27.11a2.75,2.75,0,0,0,.74.58,1.29,1.29,0,0,0,1.8-1.36,23.24,23.24,0,0,1-3-3.9l-3,1.19Z" style="fill:#6bc3c3"/><path d="M34.42,28.77a2.63,2.63,0,0,0,.72.57,1.31,1.31,0,0,0,1.31-.14A1.33,1.33,0,0,0,37,28a22.84,22.84,0,0,1-3-3.9l-3,1.19Z" style="fill:#6bc3c3"/><path d="M58.94,18.82a11.34,11.34,0,0,1-4.56-.43c-.26.75-.51,1.5-.76,2.25a20.23,20.23,0,0,1,5.85.56A3.73,3.73,0,0,1,58.94,18.82Z" style="fill:#5cb45f"/><path d="M32.62,46.82a5.92,5.92,0,0,1-2.88-3.92c-.93.35-1.86.69-2.78,1.05a20.66,20.66,0,0,1,3.55,4.85Z" style="fill:#ead4af"/><path d="M42.42,17.51a5.94,5.94,0,0,1-2.89-3.93l-2.78,1.05a20.87,20.87,0,0,1,3.55,4.85Z" style="fill:#ead4af"/><path d="M52.66,65.48a6,6,0,0,1-2.89-3.93L47,62.6a21.26,21.26,0,0,1,3.56,4.86Z" style="fill:#ead4af"/><path d="M51.07,50.6a1.26,1.26,0,0,0,.82.94,1.28,1.28,0,0,0,1.22-.25c.56-1.39,1.11-2.78,1.67-4.16A10.42,10.42,0,0,0,52.46,47a5.11,5.11,0,0,0-1.4,3A2,2,0,0,0,51.07,50.6Z" style="fill:#cc3131"/><path d="M40.66,47.93c-.06-.27-.39-.36-.66-.4l-2-.29-3.23,4,2.32,1.07c1.1-1.26,2.21-2.51,3.32-3.77A.69.69,0,0,0,40.66,47.93Z" style="fill:#5cb45f"/><path d="M10.1,49.5a16.7,16.7,0,0,1,5.06,3.22l2-2.71a29.51,29.51,0,0,1-4.84-2.24Z" style="fill:#5cb45f"/></svg>