<svg xmlns="http://www.w3.org/2000/svg" xmlns:xlink="http://www.w3.org/1999/xlink" viewBox="0 0 1920 900"><defs><clipPath id="fe6e077a-e115-4715-97fb-75f170ab4287"><rect x="0.17" y="1072.83" width="629.58" height="159.26" style="fill:none"/></clipPath><clipPath id="a2a85f54-6d11-4bd0-8c21-44cd84617495"><rect x="648.91" y="1072.83" width="629.58" height="159.26" style="fill:none"/></clipPath><clipPath id="f353424f-e945-4b95-9ba7-fd26926ee07c"><rect x="1297.66" y="1072.83" width="629.58" height="159.26" style="fill:none"/></clipPath><clipPath id="e0d28e14-339a-4fdf-942a-63ec181a52f2"><rect width="1920" height="900" style="fill:none"/></clipPath><clipPath id="abbe2ece-8152-4271-a7fd-3c443b4a4a5f"><rect x="2.16" y="344.54" width="1937.99" height="312.74" style="fill:none"/></clipPath><clipPath id="adc983fc-91ca-412a-80db-dc4b522eb8e6"><rect x="0.17" y="1.46" width="629.58" height="159.26" style="fill:none"/></clipPath><clipPath id="f7674da3-9bf5-4820-a2fb-bb33d8e49232"><rect x="648.91" y="1.46" width="629.58" height="159.26" style="fill:none"/></clipPath><clipPath id="a0d454ec-dab8-4e28-ba79-8a2f27101031"><rect x="1297.66" y="1.46" width="629.58" height="159.26" style="fill:none"/></clipPath></defs><g id="ac2f57d7-9dc8-438a-82ca-d7fc85a19218" data-name="Background"><g style="clip-path:url(#fe6e077a-e115-4715-97fb-75f170ab4287)"><rect x="424.58" y="828.59" width="83.69" height="629.59" transform="translate(-671.88 664.7) rotate(-45)" style="fill:#b5e6ef"/></g><g style="clip-path:url(#a2a85f54-6d11-4bd0-8c21-44cd84617495)"><rect x="1007.98" y="829.07" width="83.69" height="629.59" transform="translate(-501.35 1077.37) rotate(-45)" style="fill:#b5e6ef"/></g><g style="clip-path:url(#f353424f-e945-4b95-9ba7-fd26926ee07c)"><rect x="1725.05" y="829.07" width="83.69" height="629.59" transform="translate(-291.33 1584.41) rotate(-45)" style="fill:#b5e6ef"/></g></g><g id="adecdb73-1080-4396-8ca1-7c58e2f81f2d" data-name="Layer 17"><g style="clip-path:url(#e0d28e14-339a-4fdf-942a-63ec181a52f2)"><rect x="260" y="175" width="1400" height="725" style="fill:#0018f4;opacity:0.2"/><g style="opacity:0.2"><rect x="360" y="100" width="1200" height="800" style="fill:#f70000"/></g><rect x="0.17" y="-1.19" width="1924.42" height="362" style="fill:#4fbad8"/><rect x="0.17" y="-1.19" width="1924.42" height="183.99" style="fill:#e2f3f7"/><rect x="0.17" y="343.88" width="1924.42" height="557.42" style="fill:#b7dfef"/><rect x="1297.66" y="1.46" width="629.58" height="159.26" style="fill:#9dddea"/><g style="opacity:0.46"><g style="clip-path:url(#abbe2ece-8152-4271-a7fd-3c443b4a4a5f)"><rect x="2.16" y="344.54" width="75.65" height="75.65" style="fill:#4fbad8"/><rect x="77.87" y="420.26" width="75.65" height="75.65" style="fill:#4fbad8"/><rect x="163.52" y="344.54" width="75.65" height="75.65" style="fill:#4fbad8"/><rect x="239.24" y="420.26" width="75.65" height="75.65" style="fill:#4fbad8"/><rect x="324.89" y="344.54" width="75.65" height="75.65" style="fill:#4fbad8"/><rect x="400.61" y="420.26" width="75.65" height="75.65" style="fill:#4fbad8"/><rect x="486.26" y="344.54" width="75.65" height="75.65" style="fill:#4fbad8"/><rect x="561.98" y="420.26" width="75.65" height="75.65" style="fill:#4fbad8"/><rect x="647.63" y="344.54" width="75.65" height="75.65" style="fill:#4fbad8"/><rect x="723.35" y="420.26" width="75.65" height="75.65" style="fill:#4fbad8"/><rect x="809" y="344.54" width="75.65" height="75.65" style="fill:#4fbad8"/><rect x="884.72" y="420.26" width="75.65" height="75.65" style="fill:#4fbad8"/><rect x="970.37" y="344.54" width="75.65" height="75.65" style="fill:#4fbad8"/><rect x="1046.08" y="420.26" width="75.65" height="75.65" style="fill:#4fbad8"/><rect x="1131.73" y="344.54" width="75.65" height="75.65" style="fill:#4fbad8"/><rect x="1207.45" y="420.26" width="75.65" height="75.65" style="fill:#4fbad8"/><rect x="1293.1" y="344.54" width="75.65" height="75.65" style="fill:#4fbad8"/><rect x="1368.82" y="420.26" width="75.65" height="75.65" style="fill:#4fbad8"/><rect x="1454.47" y="344.54" width="75.65" height="75.65" style="fill:#4fbad8"/><rect x="1530.19" y="420.26" width="75.65" height="75.65" style="fill:#4fbad8"/><rect x="1615.84" y="344.54" width="75.65" height="75.65" style="fill:#4fbad8"/><rect x="1691.56" y="420.26" width="75.65" height="75.65" style="fill:#4fbad8"/><rect x="1777.21" y="344.54" width="75.65" height="75.65" style="fill:#4fbad8"/><rect x="1852.93" y="420.26" width="75.65" height="75.65" style="fill:#4fbad8"/><rect x="2.16" y="505.91" width="75.65" height="75.65" style="fill:#4fbad8"/><rect x="77.87" y="581.63" width="75.65" height="75.65" style="fill:#4fbad8"/><rect x="163.52" y="505.91" width="75.65" height="75.65" style="fill:#4fbad8"/><rect x="239.24" y="581.63" width="75.65" height="75.65" style="fill:#4fbad8"/><rect x="324.89" y="505.91" width="75.65" height="75.65" style="fill:#4fbad8"/><rect x="400.61" y="581.63" width="75.65" height="75.65" style="fill:#4fbad8"/><rect x="486.26" y="505.91" width="75.65" height="75.65" style="fill:#4fbad8"/><rect x="561.98" y="581.63" width="75.65" height="75.65" style="fill:#4fbad8"/><rect x="647.63" y="505.91" width="75.65" height="75.65" style="fill:#4fbad8"/><rect x="723.35" y="581.63" width="75.65" height="75.65" style="fill:#4fbad8"/><rect x="809" y="505.91" width="75.65" height="75.65" style="fill:#4fbad8"/><rect x="884.72" y="581.63" width="75.65" height="75.65" style="fill:#4fbad8"/><rect x="970.37" y="505.91" width="75.65" height="75.65" style="fill:#4fbad8"/><rect x="1046.08" y="581.63" width="75.65" height="75.65" style="fill:#4fbad8"/><rect x="1131.73" y="505.91" width="75.65" height="75.65" style="fill:#4fbad8"/><rect x="1207.45" y="581.63" width="75.65" height="75.65" style="fill:#4fbad8"/><rect x="1293.1" y="505.91" width="75.65" height="75.65" style="fill:#4fbad8"/><rect x="1368.82" y="581.63" width="75.65" height="75.65" style="fill:#4fbad8"/><rect x="1454.47" y="505.91" width="75.65" height="75.65" style="fill:#4fbad8"/><rect x="1530.19" y="581.63" width="75.65" height="75.65" style="fill:#4fbad8"/><rect x="1615.84" y="505.91" width="75.65" height="75.65" style="fill:#4fbad8"/><rect x="1691.56" y="581.63" width="75.65" height="75.65" style="fill:#4fbad8"/><rect x="1777.21" y="505.91" width="75.65" height="75.65" style="fill:#4fbad8"/><rect x="1852.93" y="581.63" width="75.65" height="75.65" style="fill:#4fbad8"/></g></g><rect x="0.17" y="1.46" width="629.58" height="159.26" style="fill:#9dddea"/><rect x="648.91" y="1.46" width="629.58" height="159.26" style="fill:#9dddea"/><g style="clip-path:url(#adc983fc-91ca-412a-80db-dc4b522eb8e6)"><rect x="424.58" y="-242.77" width="83.69" height="629.59" transform="translate(85.68 350.91) rotate(-45)" style="fill:#b5e6ef"/><rect x="179.59" y="-206.17" width="83.69" height="629.59" transform="translate(-11.96 188.39) rotate(-45)" style="fill:#b5e6ef"/></g><g style="clip-path:url(#f7674da3-9bf5-4820-a2fb-bb33d8e49232)"><rect x="1007.98" y="-242.29" width="83.69" height="629.59" transform="translate(256.22 763.57) rotate(-45)" style="fill:#b5e6ef"/><rect x="762.99" y="-205.69" width="83.69" height="629.59" transform="translate(158.58 601.06) rotate(-45)" style="fill:#b5e6ef"/></g><g style="clip-path:url(#a0d454ec-dab8-4e28-ba79-8a2f27101031)"><rect x="1725.05" y="-242.29" width="83.69" height="629.59" transform="translate(466.24 1270.62) rotate(-45)" style="fill:#b5e6ef"/><rect x="1480.06" y="-205.69" width="83.69" height="629.59" transform="translate(368.6 1108.1) rotate(-45)" style="fill:#b5e6ef"/></g><rect x="2.16" y="322.58" width="1922.43" height="24.55" style="fill:#51a7c3"/><circle cx="1862.08" cy="231.56" r="7.81" style="fill:#67cbd0"/><circle cx="1760.68" cy="290.65" r="7.81" style="fill:#67cbd0"/><circle cx="1642.22" cy="223.76" r="7.81" style="fill:#67cbd0"/><circle cx="1545.7" cy="294.3" r="7.81" style="fill:#67cbd0"/><circle cx="1432.26" cy="206.94" r="7.81" style="fill:#67cbd0"/><circle cx="1314.79" cy="294.3" r="7.81" style="fill:#67cbd0"/><circle cx="1213.68" cy="223.18" r="7.81" style="fill:#67cbd0"/><circle cx="1098.51" cy="293.1" r="7.81" style="fill:#67cbd0"/><circle cx="1032.13" cy="214.74" r="7.81" style="fill:#67cbd0"/><circle cx="940.72" cy="285.29" r="7.81" style="fill:#67cbd0"/><circle cx="848.3" cy="206.94" r="7.81" style="fill:#67cbd0"/><circle cx="741.06" cy="290.65" r="7.81" style="fill:#67cbd0"/><circle cx="666.91" cy="203.8" r="7.81" style="fill:#67cbd0"/><circle cx="544.33" cy="285.96" r="7.81" style="fill:#67cbd0"/><circle cx="421.74" cy="201.46" r="7.81" style="fill:#67cbd0"/><circle cx="322.76" cy="293.77" r="7.81" style="fill:#67cbd0"/><circle cx="236.47" cy="214.74" r="7.81" style="fill:#67cbd0"/><circle cx="159.36" cy="297" r="7.81" style="fill:#67cbd0"/><circle cx="27.1" cy="214.74" r="7.81" style="fill:#67cbd0"/><rect x="1019.44" y="550.92" width="53.09" height="132.72" style="fill:#e29443"/><rect x="-4.12" y="550.92" width="1031.52" height="132.72" style="fill:#502513"/><path d="M-12.81,411.2H1094.13a77.64,77.64,0,0,1,77.64,77.64v0a77.64,77.64,0,0,1-77.64,77.64H-12.81a0,0,0,0,1,0,0V411.2A0,0,0,0,1-12.81,411.2Z" style="fill:#7b4614"/><path d="M-.5,355.95H1106.44a77.64,77.64,0,0,1,77.64,77.64V456a77.64,77.64,0,0,1-77.64,77.64H-.5a0,0,0,0,1,0,0V355.95A0,0,0,0,1-.5,355.95Z" style="fill:#ffca56"/></g></g></svg>