<svg xmlns="http://www.w3.org/2000/svg" xmlns:xlink="http://www.w3.org/1999/xlink" viewBox="0 0 1920 900"><defs><clipPath id="ee35c4d0-0b5c-400e-9a97-f6e175b630d9"><rect width="1920" height="900" style="fill:none"/></clipPath><clipPath id="bdee756f-d074-422a-ae41-37faa5086031"><path d="M126.64,415.57-120.77,844.09H429.88L182.47,415.57C170.07,394.08,139.05,394.08,126.64,415.57Z" style="fill:none"/></clipPath><clipPath id="b063fec7-b373-4c34-a792-e6c38f8ac8b5"><rect x="-17.1" y="411.38" width="344.04" height="104.79" style="fill:none"/></clipPath><clipPath id="a542a2f0-1252-4fb1-a644-779e75c9b151"><path d="M1804.2,393.67,1556.8,822.19h550.64L1860,393.67A32.24,32.24,0,0,0,1804.2,393.67Z" style="fill:none"/></clipPath><clipPath id="bcad9b0d-2fc8-477c-9786-3d28087c2db1"><rect x="1660.46" y="389.48" width="344.04" height="104.79" style="fill:none"/></clipPath><clipPath id="a0bb58c8-7132-45f4-9d2b-56d14d814a2d"><path d="M773.64,406.94,526.24,835.46h550.64L829.48,406.94A32.24,32.24,0,0,0,773.64,406.94Z" style="fill:none"/></clipPath><clipPath id="b67f7367-c317-47d5-a35b-1dc10f4d9ef9"><rect x="629.9" y="402.75" width="344.04" height="104.79" style="fill:none"/></clipPath><clipPath id="fec06ed2-add3-48c2-94a8-f37c5f3ff7b7"><path d="M1507.73,243.81l-337.15,584h730.13L1563.56,243.81A32.23,32.23,0,0,0,1507.73,243.81Z" style="fill:none"/></clipPath><clipPath id="a17f398e-f349-41d0-bb92-af177c42a3bf"><rect x="1308.04" y="254.01" width="456.18" height="138.95" style="fill:none"/></clipPath><clipPath id="b2813a04-5dc5-4da5-8341-736eb634c52a"><path d="M444.5,494.54,197.09,923.06H747.74L500.33,494.54C487.93,473,456.91,473,444.5,494.54Z" style="fill:none"/></clipPath><clipPath id="b6715c9f-d9fc-4012-beb0-0128af3502ac"><rect x="300.76" y="490.35" width="344.04" height="104.79" style="fill:none"/></clipPath><clipPath id="aa178c47-2f91-49c7-be87-8ba691b7bd2d"><rect x="-12.43" y="812.38" width="1938.3" height="70.55" style="fill:none"/></clipPath></defs><g id="acc0fad1-613f-45f0-8374-7e6a9b3b6cbd" data-name="Layer 12"><g style="clip-path:url(#ee35c4d0-0b5c-400e-9a97-f6e175b630d9)"><rect x="260" y="175" width="1400" height="725" style="fill:#0018f4;opacity:0.2"/><g style="opacity:0.2"><rect x="360" y="100" width="1200" height="800" style="fill:#f70000"/></g><rect width="1920" height="900" style="fill:#70c3eb"/><circle cx="928.96" cy="823.94" r="43.69" style="fill:#01594c"/><circle cx="1352.33" cy="826.76" r="43.69" style="fill:#01594c"/><circle cx="1412.81" cy="830.98" r="43.69" style="fill:#01594c"/><circle cx="1105.65" cy="800.22" r="53.41" style="fill:#235387"/><circle cx="1496.45" cy="829.54" r="63.03" style="fill:#01594c"/><circle cx="1187.85" cy="814.91" r="51.22" style="fill:#235387"/><circle cx="1280.69" cy="827.57" r="51.22" style="fill:#01594c"/><circle cx="1016.19" cy="816.93" r="52.15" style="fill:#235387"/><g style="opacity:0.14"><circle cx="918.38" cy="761.18" r="5.01" style="fill:#8ceab8"/><circle cx="1088.86" cy="727.25" r="5.26" style="fill:#8ceab8"/><circle cx="1034.27" cy="734.82" r="5.26" style="fill:#8ceab8"/><circle cx="964.04" cy="771.94" r="5.26" style="fill:#8ceab8"/><circle cx="987.92" cy="790.26" r="5.26" style="fill:#8ceab8"/><circle cx="941.13" cy="795.52" r="5.26" style="fill:#8ceab8"/><circle cx="1090.06" cy="777.16" r="5.26" style="fill:#8ceab8"/><circle cx="1061.42" cy="763.81" r="5.26" style="fill:#8ceab8"/><circle cx="1029.01" cy="779.48" r="5.26" style="fill:#8ceab8"/><circle cx="1127.33" cy="769.07" r="5.26" style="fill:#8ceab8"/><circle cx="1160.96" cy="755.42" r="5.26" style="fill:#8ceab8"/><circle cx="1243.58" cy="769.07" r="5.26" style="fill:#8ceab8"/><circle cx="1216.26" cy="791.74" r="5.26" style="fill:#8ceab8"/><circle cx="1150.47" cy="796.84" r="5.26" style="fill:#8ceab8"/><circle cx="1313.64" cy="790.26" r="5.26" style="fill:#8ceab8"/><circle cx="1269.68" cy="802.1" r="5.26" style="fill:#8ceab8"/></g><circle cx="1354.1" cy="790.46" r="5.01" style="fill:#8ceab8;opacity:0.21"/><circle cx="1335.6" cy="799.47" r="5.01" style="fill:#8ceab8;opacity:0.21"/><circle cx="1374.27" cy="799.81" r="5.01" style="fill:#8ceab8;opacity:0.21"/><path d="M126.64,415.57-120.77,844.09H429.88L182.47,415.57C170.07,394.08,139.05,394.08,126.64,415.57Z" style="fill:#7c6c7b"/><g style="opacity:0.77"><g style="clip-path:url(#bdee756f-d074-422a-ae41-37faa5086031)"><g style="clip-path:url(#b063fec7-b373-4c34-a792-e6c38f8ac8b5)"><g id="ec8790ad-b1dc-491e-a0ca-465b4c349a8f" data-name="&lt;Grid Repeat&gt;"><path d="M-4.16,411.38H2A12.94,12.94,0,0,1,15,424.32v87a0,0,0,0,1,0,0H-17.1a0,0,0,0,1,0,0v-87A12.94,12.94,0,0,1-4.16,411.38Z" transform="translate(-2.14 922.66) rotate(180)" style="fill:#ebc2a4"/></g><g id="a4e78543-66d6-46f9-bb22-ad5eaeed004c" data-name="&lt;Grid Repeat&gt;"><path d="M27.12,411.38H33.3a12.94,12.94,0,0,1,12.94,12.94v87a0,0,0,0,1,0,0H14.18a0,0,0,0,1,0,0v-87A12.94,12.94,0,0,1,27.12,411.38Z" transform="translate(60.42 922.66) rotate(180)" style="fill:#ebc2a4"/></g><g id="b78b62a0-1b1e-4263-a8c0-4f2d6033c3fc" data-name="&lt;Grid Repeat&gt;"><path d="M58.39,411.38h6.19a12.94,12.94,0,0,1,12.94,12.94v87a0,0,0,0,1,0,0H45.45a0,0,0,0,1,0,0v-87A12.94,12.94,0,0,1,58.39,411.38Z" transform="translate(122.98 922.66) rotate(180)" style="fill:#ebc2a4"/></g><g id="b4facc25-9cf4-4e56-8574-544b5ccfed83" data-name="&lt;Grid Repeat&gt;"><path d="M92.77,411.38h0a16,16,0,0,1,16,16v80.78a3.09,3.09,0,0,1-3.09,3.09H79.83a3.09,3.09,0,0,1-3.09-3.09V427.41a16,16,0,0,1,16-16Z" transform="translate(185.54 922.66) rotate(180)" style="fill:#ebc2a4"/></g><g id="a17da388-3cde-44ec-829d-1a8fcf24bd4e" data-name="&lt;Grid Repeat&gt;"><path d="M124,411.38h0a16,16,0,0,1,16,16v80.78a3.09,3.09,0,0,1-3.09,3.09H111.11a3.09,3.09,0,0,1-3.09-3.09V427.41a16,16,0,0,1,16-16Z" transform="translate(248.09 922.66) rotate(180)" style="fill:#ebc2a4"/></g><g id="a283e09a-c9b0-4bf2-a98c-a21e7190367b" data-name="&lt;Grid Repeat&gt;"><path d="M155.33,411.38h0a16,16,0,0,1,16,16v80.78a3.09,3.09,0,0,1-3.09,3.09H142.39a3.09,3.09,0,0,1-3.09-3.09V427.41a16,16,0,0,1,16-16Z" transform="translate(310.65 922.66) rotate(180)" style="fill:#ebc2a4"/></g><g id="a9b92432-af75-4dd3-bd5e-1065631ac4da" data-name="&lt;Grid Repeat&gt;"><path d="M186.6,411.38h0a16,16,0,0,1,16,16v80.78a3.09,3.09,0,0,1-3.09,3.09H173.66a3.09,3.09,0,0,1-3.09-3.09V427.41A16,16,0,0,1,186.6,411.38Z" transform="translate(373.21 922.66) rotate(180)" style="fill:#ebc2a4"/></g><g id="be531a9a-1a6c-4c60-8f55-1335326b82f0" data-name="&lt;Grid Repeat&gt;"><path d="M217.88,411.38h0a16,16,0,0,1,16,16v80.78a3.09,3.09,0,0,1-3.09,3.09H204.94a3.09,3.09,0,0,1-3.09-3.09V427.41a16,16,0,0,1,16-16Z" transform="translate(435.77 922.66) rotate(180)" style="fill:#ebc2a4"/></g><g id="e35bf9c4-8b04-4d91-a23a-a860af896987" data-name="&lt;Grid Repeat&gt;"><path d="M246.07,411.38h6.19a12.94,12.94,0,0,1,12.94,12.94v87a0,0,0,0,1,0,0H233.13a0,0,0,0,1,0,0v-87a12.94,12.94,0,0,1,12.94-12.94Z" transform="translate(498.32 922.66) rotate(180)" style="fill:#ebc2a4"/></g><g id="f542d389-1f13-4e2d-b461-9efad30cb097" data-name="&lt;Grid Repeat&gt;"><path d="M277.35,411.38h6.19a12.94,12.94,0,0,1,12.94,12.94v87a0,0,0,0,1,0,0H264.41a0,0,0,0,1,0,0v-87a12.94,12.94,0,0,1,12.94-12.94Z" transform="translate(560.88 922.66) rotate(180)" style="fill:#ebc2a4"/></g><g id="bf965cbc-251e-4b7a-899b-13414d76351e" data-name="&lt;Grid Repeat&gt;"><path d="M308.63,411.38h6.19a12.94,12.94,0,0,1,12.94,12.94v87a0,0,0,0,1,0,0H295.69a0,0,0,0,1,0,0v-87a12.94,12.94,0,0,1,12.94-12.94Z" transform="translate(623.44 922.66) rotate(180)" style="fill:#ebc2a4"/></g></g><rect x="-17.1" y="247.95" width="344.12" height="176.38" style="fill:#ebc2a4"/></g></g><g style="opacity:0.81"><path d="M1804.2,393.67,1556.8,822.19h550.64L1860,393.67A32.24,32.24,0,0,0,1804.2,393.67Z" style="fill:#845e6f"/><g style="clip-path:url(#a542a2f0-1252-4fb1-a644-779e75c9b151)"><g style="clip-path:url(#bcad9b0d-2fc8-477c-9786-3d28087c2db1)"><g id="a5ca301d-8dbc-4a09-b4d3-ad0527f30b6f" data-name="&lt;Grid Repeat&gt;"><path d="M1642.12,389.48h6.19a12.94,12.94,0,0,1,12.94,12.94v87a0,0,0,0,1,0,0h-32.07a0,0,0,0,1,0,0v-87a12.94,12.94,0,0,1,12.94-12.94Z" transform="translate(3290.43 878.87) rotate(180)" style="fill:#ebc2a4"/></g><g id="be7e3384-a8d4-441a-89b1-a74cf59f602a" data-name="&lt;Grid Repeat&gt;"><path d="M1673.4,389.48h6.19a12.94,12.94,0,0,1,12.94,12.94v87a0,0,0,0,1,0,0h-32.07a0,0,0,0,1,0,0v-87A12.94,12.94,0,0,1,1673.4,389.48Z" transform="translate(3352.99 878.87) rotate(180)" style="fill:#ebc2a4"/></g><g id="e6e43d59-e488-4607-a917-6196b53c678c" data-name="&lt;Grid Repeat&gt;"><path d="M1704.68,389.48h6.19a12.94,12.94,0,0,1,12.94,12.94v87a0,0,0,0,1,0,0h-32.07a0,0,0,0,1,0,0v-87a12.94,12.94,0,0,1,12.94-12.94Z" transform="translate(3415.55 878.87) rotate(180)" style="fill:#ebc2a4"/></g><g id="ea3e3f79-9c83-4487-b713-dc5e921f07dc" data-name="&lt;Grid Repeat&gt;"><path d="M1736,389.48h6.19a12.94,12.94,0,0,1,12.94,12.94v87a0,0,0,0,1,0,0H1723a0,0,0,0,1,0,0v-87A12.94,12.94,0,0,1,1736,389.48Z" transform="translate(3478.1 878.87) rotate(180)" style="fill:#ebc2a4"/></g><g id="ffd6c22d-1cd5-4f55-90b7-9300254320db" data-name="&lt;Grid Repeat&gt;"><path d="M1770.33,389.48h0a16,16,0,0,1,16,16v80.78a3.09,3.09,0,0,1-3.09,3.09h-25.88a3.09,3.09,0,0,1-3.09-3.09V405.51a16,16,0,0,1,16-16Z" transform="translate(3540.66 878.87) rotate(180)" style="fill:#ebc2a4"/></g><g id="e6fabbb6-0e8e-4b38-a385-4e59699ca707" data-name="&lt;Grid Repeat&gt;"><path d="M1801.61,389.48h0a16,16,0,0,1,16,16v80.78a3.09,3.09,0,0,1-3.09,3.09h-25.88a3.09,3.09,0,0,1-3.09-3.09V405.51a16,16,0,0,1,16-16Z" transform="translate(3603.22 878.87) rotate(180)" style="fill:#ebc2a4"/></g><g id="b98bd7fe-3b0f-4288-9c2c-0be96dd8e8d2" data-name="&lt;Grid Repeat&gt;"><path d="M1832.89,389.48h0a16,16,0,0,1,16,16v80.78a3.09,3.09,0,0,1-3.09,3.09h-25.88a3.09,3.09,0,0,1-3.09-3.09V405.51a16,16,0,0,1,16-16Z" transform="translate(3665.78 878.87) rotate(180)" style="fill:#ebc2a4"/></g><g id="a4c76890-9089-4c2c-be93-63a060d1df5a" data-name="&lt;Grid Repeat&gt;"><path d="M1864.17,389.48h0a16,16,0,0,1,16,16v80.78a3.09,3.09,0,0,1-3.09,3.09h-25.88a3.09,3.09,0,0,1-3.09-3.09V405.51A16,16,0,0,1,1864.17,389.48Z" transform="translate(3728.34 878.87) rotate(180)" style="fill:#ebc2a4"/></g><g id="f59c4fad-74d8-4994-937e-60ec7f1ffb64" data-name="&lt;Grid Repeat&gt;"><path d="M1895.45,389.48h0a16,16,0,0,1,16,16v80.78a3.09,3.09,0,0,1-3.09,3.09h-25.88a3.09,3.09,0,0,1-3.09-3.09V405.51a16,16,0,0,1,16-16Z" transform="translate(3790.89 878.87) rotate(180)" style="fill:#ebc2a4"/></g><g id="a6982e45-9162-4078-b84d-0f11e6fa959a" data-name="&lt;Grid Repeat&gt;"><path d="M1923.63,389.48h6.19a12.94,12.94,0,0,1,12.94,12.94v87a0,0,0,0,1,0,0h-32.07a0,0,0,0,1,0,0v-87a12.94,12.94,0,0,1,12.94-12.94Z" transform="translate(3853.45 878.87) rotate(180)" style="fill:#ebc2a4"/></g></g><rect x="1660.46" y="226.05" width="344.12" height="176.38" style="fill:#ebc2a4"/></g></g><path d="M773.64,406.94,526.24,835.46h550.64L829.48,406.94A32.24,32.24,0,0,0,773.64,406.94Z" style="fill:#7c6c7b"/><g style="opacity:0.77"><g style="clip-path:url(#a0bb58c8-7132-45f4-9d2b-56d14d814a2d)"><g style="clip-path:url(#b67f7367-c317-47d5-a35b-1dc10f4d9ef9)"><g id="a370b65b-5c3d-4716-b38a-cedcb6d908d4" data-name="&lt;Grid Repeat&gt;"><path d="M611.56,402.75h6.19a12.94,12.94,0,0,1,12.94,12.94v87a0,0,0,0,1,0,0H598.62a0,0,0,0,1,0,0v-87A12.94,12.94,0,0,1,611.56,402.75Z" transform="translate(1229.31 905.41) rotate(180)" style="fill:#ebc2a4"/></g><g id="a16dfab3-b107-408e-96ab-38435b37276d" data-name="&lt;Grid Repeat&gt;"><path d="M642.84,402.75H649A12.94,12.94,0,0,1,662,415.69v87a0,0,0,0,1,0,0H629.9a0,0,0,0,1,0,0v-87A12.94,12.94,0,0,1,642.84,402.75Z" transform="translate(1291.87 905.41) rotate(180)" style="fill:#ebc2a4"/></g><g id="a7fd718e-9c0b-49ac-81f1-dea3062faaca" data-name="&lt;Grid Repeat&gt;"><path d="M677.21,402.75h0a16,16,0,0,1,16,16v83.87a0,0,0,0,1,0,0H661.18a0,0,0,0,1,0,0V418.79a16,16,0,0,1,16-16Z" transform="translate(1354.43 905.41) rotate(180)" style="fill:#ebc2a4"/></g><g id="b896c49b-0d3d-41bd-86e3-d0ac40383c2f" data-name="&lt;Grid Repeat&gt;"><path d="M705.4,402.75h6.19a12.94,12.94,0,0,1,12.94,12.94v87a0,0,0,0,1,0,0H692.46a0,0,0,0,1,0,0v-87a12.94,12.94,0,0,1,12.94-12.94Z" transform="translate(1416.98 905.41) rotate(180)" style="fill:#ebc2a4"/></g><g id="ab213c23-84b1-4ace-b709-b13ad01e61fc" data-name="&lt;Grid Repeat&gt;"><path d="M739.77,402.75h0a16,16,0,0,1,16,16v80.78a3.09,3.09,0,0,1-3.09,3.09H726.83a3.09,3.09,0,0,1-3.09-3.09V418.79a16,16,0,0,1,16-16Z" transform="translate(1479.54 905.41) rotate(180)" style="fill:#ebc2a4"/></g><g id="ac4559e9-274d-4967-af7b-6084f78ee2d4" data-name="&lt;Grid Repeat&gt;"><path d="M771,402.75h0a16,16,0,0,1,16,16v80.78a3.09,3.09,0,0,1-3.09,3.09H758.11a3.09,3.09,0,0,1-3.09-3.09V418.79A16,16,0,0,1,771,402.75Z" transform="translate(1542.1 905.41) rotate(180)" style="fill:#ebc2a4"/></g><g id="b4c2ae84-67a0-4a33-b6a7-be78c22e9e83" data-name="&lt;Grid Repeat&gt;"><path d="M802.33,402.75h0a16,16,0,0,1,16,16v83.87a0,0,0,0,1,0,0H786.29a0,0,0,0,1,0,0V418.79A16,16,0,0,1,802.33,402.75Z" transform="translate(1604.66 905.41) rotate(180)" style="fill:#ebc2a4"/></g><g id="b1978114-e96c-45b8-88a8-4f373ae2a670" data-name="&lt;Grid Repeat&gt;"><path d="M833.61,402.75h0a16,16,0,0,1,16,16v80.78a3.09,3.09,0,0,1-3.09,3.09H820.67a3.09,3.09,0,0,1-3.09-3.09V418.79A16,16,0,0,1,833.61,402.75Z" transform="translate(1667.22 905.41) rotate(180)" style="fill:#ebc2a4"/></g><g id="a1ead6c9-851a-4e58-b107-5872319da977" data-name="&lt;Grid Repeat&gt;"><path d="M864.89,402.75h0a16,16,0,0,1,16,16v80.78a3.09,3.09,0,0,1-3.09,3.09H851.95a3.09,3.09,0,0,1-3.09-3.09V418.79A16,16,0,0,1,864.89,402.75Z" transform="translate(1729.77 905.41) rotate(180)" style="fill:#ebc2a4"/></g><g id="f992c204-1ce9-446e-a47e-a18b547837b4" data-name="&lt;Grid Repeat&gt;"><path d="M893.07,402.75h6.19a12.94,12.94,0,0,1,12.94,12.94v87a0,0,0,0,1,0,0H880.13a0,0,0,0,1,0,0v-87A12.94,12.94,0,0,1,893.07,402.75Z" transform="translate(1792.33 905.41) rotate(180)" style="fill:#ebc2a4"/></g><g id="ecb3ee1c-f261-4e1d-9fdb-7d6a955caf81" data-name="&lt;Grid Repeat&gt;"><path d="M924.35,402.75h6.19a12.94,12.94,0,0,1,12.94,12.94v87a0,0,0,0,1,0,0H911.41a0,0,0,0,1,0,0v-87A12.94,12.94,0,0,1,924.35,402.75Z" transform="translate(1854.89 905.41) rotate(180)" style="fill:#ebc2a4"/></g><g id="acc9731b-258c-45d7-ad3e-015695eb11f5" data-name="&lt;Grid Repeat&gt;"><path d="M955.63,402.75h6.19a12.94,12.94,0,0,1,12.94,12.94v87a0,0,0,0,1,0,0H942.69a0,0,0,0,1,0,0v-87A12.94,12.94,0,0,1,955.63,402.75Z" transform="translate(1917.45 905.41) rotate(180)" style="fill:#ebc2a4"/></g></g><rect x="629.9" y="239.32" width="344.12" height="176.38" style="fill:#ebc2a4"/></g></g><path d="M1507.73,243.81l-337.15,584h730.13L1563.56,243.81A32.23,32.23,0,0,0,1507.73,243.81Z" style="fill:#ae8595"/><g style="clip-path:url(#fec06ed2-add3-48c2-94a8-f37c5f3ff7b7)"><g style="clip-path:url(#a17f398e-f349-41d0-bb92-af177c42a3bf)"><g id="a3feb6f0-030a-4358-912d-8215774fc0a4" data-name="&lt;Grid Repeat&gt;"><path d="M1287.82,254h0a21.26,21.26,0,0,1,21.26,21.26V378.16a8.32,8.32,0,0,1-8.32,8.32h-25.88a8.32,8.32,0,0,1-8.32-8.32V275.27A21.26,21.26,0,0,1,1287.82,254Z" transform="translate(2575.65 640.5) rotate(180)" style="fill:#ebc2a4"/></g><g id="e74cc745-46af-41e2-8b60-a964d221d8ce" data-name="&lt;Grid Repeat&gt;"><path d="M1329.3,254h0a21.26,21.26,0,0,1,21.26,21.26V378.16a8.32,8.32,0,0,1-8.32,8.32h-25.88a8.32,8.32,0,0,1-8.32-8.32V275.27A21.26,21.26,0,0,1,1329.3,254Z" transform="translate(2658.59 640.5) rotate(180)" style="fill:#ebc2a4"/></g><g id="a5eda05b-a96b-4963-acbd-9d6594e603c0" data-name="&lt;Grid Repeat&gt;"><path d="M1370.77,254h0A21.26,21.26,0,0,1,1392,275.27V378.16a8.32,8.32,0,0,1-8.32,8.32h-25.88a8.32,8.32,0,0,1-8.32-8.32V275.27A21.26,21.26,0,0,1,1370.77,254Z" transform="translate(2741.54 640.5) rotate(180)" style="fill:#ebc2a4"/></g><g id="fc2511bd-d7ef-4f5f-90ac-54fe932cd27f" data-name="&lt;Grid Repeat&gt;"><path d="M1412.24,254h0a21.26,21.26,0,0,1,21.26,21.26V378.16a8.32,8.32,0,0,1-8.32,8.32H1399.3a8.32,8.32,0,0,1-8.32-8.32V275.27A21.26,21.26,0,0,1,1412.24,254Z" transform="translate(2824.49 640.5) rotate(180)" style="fill:#ebc2a4"/></g><g id="be455161-af52-405f-b556-b505007fa1fd" data-name="&lt;Grid Repeat&gt;"><path d="M1453.72,254h0A21.26,21.26,0,0,1,1475,275.27V378.16a8.32,8.32,0,0,1-8.32,8.32h-25.88a8.32,8.32,0,0,1-8.32-8.32V275.27A21.26,21.26,0,0,1,1453.72,254Z" transform="translate(2907.44 640.5) rotate(180)" style="fill:#ebc2a4"/></g><g id="f05638da-b87d-4683-8c69-119fe84c017a" data-name="&lt;Grid Repeat&gt;"><path d="M1495.19,254h0a21.26,21.26,0,0,1,21.26,21.26V378.16a8.32,8.32,0,0,1-8.32,8.32h-25.88a8.32,8.32,0,0,1-8.32-8.32V275.27A21.26,21.26,0,0,1,1495.19,254Z" transform="translate(2990.38 640.5) rotate(180)" style="fill:#ebc2a4"/></g><g id="ab66fc1a-a7d0-44c7-9ddc-e40bcafe45a6" data-name="&lt;Grid Repeat&gt;"><path d="M1536.66,254h0a21.26,21.26,0,0,1,21.26,21.26V378.16a8.32,8.32,0,0,1-8.32,8.32h-25.88a8.32,8.32,0,0,1-8.32-8.32V275.27A21.26,21.26,0,0,1,1536.66,254Z" transform="translate(3073.33 640.5) rotate(180)" style="fill:#ebc2a4"/></g><g id="aa3c5847-6f8a-4d76-bbe4-d69944063ae3" data-name="&lt;Grid Repeat&gt;"><path d="M1578.14,254h0a21.26,21.26,0,0,1,21.26,21.26V378.16a8.32,8.32,0,0,1-8.32,8.32H1565.2a8.32,8.32,0,0,1-8.32-8.32V275.27A21.26,21.26,0,0,1,1578.14,254Z" transform="translate(3156.28 640.5) rotate(180)" style="fill:#ebc2a4"/></g><g id="f9d9344b-e46b-4919-bdaa-dd06758991ae" data-name="&lt;Grid Repeat&gt;"><path d="M1619.61,254h0a21.26,21.26,0,0,1,21.26,21.26V378.16a8.32,8.32,0,0,1-8.32,8.32h-25.88a8.32,8.32,0,0,1-8.32-8.32V275.27A21.26,21.26,0,0,1,1619.61,254Z" transform="translate(3239.22 640.5) rotate(180)" style="fill:#ebc2a4"/></g><g id="b5178a96-c833-470d-9da5-afc128d700a9" data-name="&lt;Grid Repeat&gt;"><path d="M1661.09,254h0a21.26,21.26,0,0,1,21.26,21.26V378.16a8.32,8.32,0,0,1-8.32,8.32h-25.88a8.32,8.32,0,0,1-8.32-8.32V275.27A21.26,21.26,0,0,1,1661.09,254Z" transform="translate(3322.17 640.5) rotate(180)" style="fill:#ebc2a4"/></g><g id="bd0d730e-a999-4118-8232-07c877772721" data-name="&lt;Grid Repeat&gt;"><path d="M1702.56,254h0a21.26,21.26,0,0,1,21.26,21.26V378.16a8.32,8.32,0,0,1-8.32,8.32h-25.88a8.32,8.32,0,0,1-8.32-8.32V275.27A21.26,21.26,0,0,1,1702.56,254Z" transform="translate(3405.12 640.5) rotate(180)" style="fill:#ebc2a4"/></g><g id="bad30120-fd29-4353-b537-01aefc2666b3" data-name="&lt;Grid Repeat&gt;"><path d="M1744,254h0a21.26,21.26,0,0,1,21.26,21.26V378.16a8.32,8.32,0,0,1-8.32,8.32h-25.88a8.32,8.32,0,0,1-8.32-8.32V275.27A21.26,21.26,0,0,1,1744,254Z" transform="translate(3488.07 640.5) rotate(180)" style="fill:#ebc2a4"/></g></g><rect x="1308.04" y="37.32" width="456.28" height="233.86" style="fill:#ebc2a4"/></g><path d="M444.5,494.54,197.09,923.06H747.74L500.33,494.54C487.93,473,456.91,473,444.5,494.54Z" style="fill:#ae8595"/><g style="clip-path:url(#b2813a04-5dc5-4da5-8341-736eb634c52a)"><g style="clip-path:url(#b6715c9f-d9fc-4012-beb0-0128af3502ac)"><g id="be84ca97-9eda-4524-b60c-b99b354b92aa" data-name="&lt;Grid Repeat&gt;"><path d="M285.51,490.35h0a16,16,0,0,1,16,16v80.78a3.09,3.09,0,0,1-3.09,3.09H272.57a3.09,3.09,0,0,1-3.09-3.09V506.38a16,16,0,0,1,16-16Z" transform="translate(571.03 1080.6) rotate(180)" style="fill:#ebc2a4"/></g><g id="af274df3-0c07-494c-8ed4-47edd92f9f89" data-name="&lt;Grid Repeat&gt;"><path d="M316.79,490.35h0a16,16,0,0,1,16,16v80.78a3.09,3.09,0,0,1-3.09,3.09H303.85a3.09,3.09,0,0,1-3.09-3.09V506.38a16,16,0,0,1,16-16Z" transform="translate(633.58 1080.6) rotate(180)" style="fill:#ebc2a4"/></g><g id="fff2310b-27a6-470e-945b-6511a25c95c7" data-name="&lt;Grid Repeat&gt;"><path d="M348.07,490.35h0a16,16,0,0,1,16,16v80.78a3.09,3.09,0,0,1-3.09,3.09H335.13a3.09,3.09,0,0,1-3.09-3.09V506.38a16,16,0,0,1,16-16Z" transform="translate(696.14 1080.6) rotate(180)" style="fill:#ebc2a4"/></g><g id="abd43a05-2dce-45c4-82c3-18412a80038b" data-name="&lt;Grid Repeat&gt;"><path d="M379.35,490.35h0a16,16,0,0,1,16,16v80.78a3.09,3.09,0,0,1-3.09,3.09H366.41a3.09,3.09,0,0,1-3.09-3.09V506.38a16,16,0,0,1,16-16Z" transform="translate(758.7 1080.6) rotate(180)" style="fill:#ebc2a4"/></g><g id="bfcf4d78-3df7-41a5-afc7-53eb16a63268" data-name="&lt;Grid Repeat&gt;"><path d="M410.63,490.35h0a16,16,0,0,1,16,16v80.78a3.09,3.09,0,0,1-3.09,3.09H397.69a3.09,3.09,0,0,1-3.09-3.09V506.38a16,16,0,0,1,16-16Z" transform="translate(821.26 1080.6) rotate(180)" style="fill:#ebc2a4"/></g><g id="a34573dc-c94e-49e6-8858-548614b66cf6" data-name="&lt;Grid Repeat&gt;"><path d="M441.91,490.35h0a16,16,0,0,1,16,16v80.78a3.09,3.09,0,0,1-3.09,3.09H429a3.09,3.09,0,0,1-3.09-3.09V506.38a16,16,0,0,1,16-16Z" transform="translate(883.82 1080.6) rotate(180)" style="fill:#ebc2a4"/></g><g id="b5e10a57-cfca-4419-9c82-e0ef32888e0c" data-name="&lt;Grid Repeat&gt;"><path d="M473.19,490.35h0a16,16,0,0,1,16,16v80.78a3.09,3.09,0,0,1-3.09,3.09H460.25a3.09,3.09,0,0,1-3.09-3.09V506.38a16,16,0,0,1,16-16Z" transform="translate(946.37 1080.6) rotate(180)" style="fill:#ebc2a4"/></g><g id="bc1e5458-1576-4d4f-877d-ab2240b3c0c0" data-name="&lt;Grid Repeat&gt;"><path d="M504.47,490.35h0a16,16,0,0,1,16,16v80.78a3.09,3.09,0,0,1-3.09,3.09H491.53a3.09,3.09,0,0,1-3.09-3.09V506.38a16,16,0,0,1,16-16Z" transform="translate(1008.93 1080.6) rotate(180)" style="fill:#ebc2a4"/></g><g id="f482b243-ca90-499b-b20e-a926721eae2c" data-name="&lt;Grid Repeat&gt;"><path d="M535.74,490.35h0a16,16,0,0,1,16,16v80.78a3.09,3.09,0,0,1-3.09,3.09H522.8a3.09,3.09,0,0,1-3.09-3.09V506.38a16,16,0,0,1,16-16Z" transform="translate(1071.49 1080.6) rotate(180)" style="fill:#ebc2a4"/></g><g id="b4eacb93-2a97-4aa2-bdd4-f79e20dd287b" data-name="&lt;Grid Repeat&gt;"><path d="M567,490.35h0a16,16,0,0,1,16,16v80.78a3.09,3.09,0,0,1-3.09,3.09H554.08a3.09,3.09,0,0,1-3.09-3.09V506.38a16,16,0,0,1,16-16Z" transform="translate(1134.05 1080.6) rotate(180)" style="fill:#ebc2a4"/></g><g id="f88555a4-f281-426d-97b7-7142728cb2da" data-name="&lt;Grid Repeat&gt;"><path d="M598.3,490.35h0a16,16,0,0,1,16,16v80.78a3.09,3.09,0,0,1-3.09,3.09H585.36a3.09,3.09,0,0,1-3.09-3.09V506.38a16,16,0,0,1,16-16Z" transform="translate(1196.6 1080.6) rotate(180)" style="fill:#ebc2a4"/></g><g id="a8d617bc-2b21-4dfd-895e-65d5b8df1d20" data-name="&lt;Grid Repeat&gt;"><path d="M629.58,490.35h0a16,16,0,0,1,16,16v80.78a3.09,3.09,0,0,1-3.09,3.09H616.64a3.09,3.09,0,0,1-3.09-3.09V506.38a16,16,0,0,1,16-16Z" transform="translate(1259.16 1080.6) rotate(180)" style="fill:#ebc2a4"/></g></g><rect x="300.76" y="326.92" width="344.12" height="176.38" style="fill:#ebc2a4"/></g><rect x="1491.79" y="750.96" width="8.34" height="114.18" style="fill:#fa777d"/><path d="M1534.58,753.37c-3.74-3.26-5.56-3.5-15.95-10.39-6.22-4.12-9.53-11.27-11.2-16.35,2.15,3.17,6.07,7.25,11.9,8,1,.12,9.59,1,13-5,2.4-4.24,1-9.7-1.66-12.69-1.88-2.1-3.78-2.77-8.68-4.33a15.15,15.15,0,0,1-2.89-1c-1.88-1.18-9.18-6.22-12.58-15a13.57,13.57,0,0,0,8.79,5.27c.78.1,7.82.85,10.61-4.08,2-3.45.81-7.89-1.36-10.33-1.53-1.71-3.08-2.26-7.07-3.53,0,0-3.43-.66-8.7-4.81-9.93-7.8-12-19.44-12.56-23.36v-.29s0,.1,0,.14a.78.78,0,0,0,0-.14v.29c-.51,3.92-2.63,15.56-12.56,23.36-5.27,4.15-8.7,4.81-8.7,4.81-4,1.27-5.53,1.82-7.06,3.53-2.18,2.44-3.32,6.88-1.36,10.33,2.79,4.93,9.82,4.18,10.6,4.08a13.05,13.05,0,0,0,7.9-4.25,32.9,32.9,0,0,1-12.81,14.22,14.38,14.38,0,0,1-2.45.85c-4.9,1.56-6.8,2.23-8.68,4.33-2.67,3-4.07,8.45-1.67,12.69,3.43,6,12.06,5.12,13,5,6.12-.75,10.13-5.21,12.2-8.43-1.61,5.1-4.93,12.57-11.35,16.82-10.39,6.89-12.2,7.13-16,10.39s-8.33,11.24-1.57,18.73,27.73,7.13,40.2-17.68c12.46,24.81,33.45,25.14,40.19,17.68S1538.33,756.64,1534.58,753.37Z" style="fill:#2f3146"/><rect x="1425.03" y="774.05" width="5.56" height="76.12" style="fill:#fa777d"/><path d="M1453.56,775.66c-2.49-2.17-3.7-2.34-10.63-6.93-4.15-2.74-6.36-7.51-7.47-10.9,1.44,2.11,4,4.83,7.93,5.31.64.08,6.4.7,8.68-3.34a7.64,7.64,0,0,0-1.11-8.45c-1.25-1.41-2.52-1.86-5.79-2.9a9.72,9.72,0,0,1-1.92-.68,21.9,21.9,0,0,1-8.39-10,9,9,0,0,0,5.86,3.51c.52.07,5.21.57,7.07-2.71a6.22,6.22,0,0,0-.9-6.89c-1-1.15-2.05-1.51-4.72-2.36,0,0-2.28-.44-5.8-3.2-6.62-5.2-8-13-8.37-15.58v0c-.35,2.62-1.76,10.38-8.38,15.58-3.51,2.76-5.8,3.2-5.8,3.2-2.66.85-3.69,1.21-4.71,2.36a6.24,6.24,0,0,0-.91,6.89c1.87,3.28,6.55,2.78,7.07,2.71a8.65,8.65,0,0,0,5.27-2.83,21.9,21.9,0,0,1-8.54,9.48,8.51,8.51,0,0,1-1.64.56c-3.26,1-4.53,1.49-5.78,2.9a7.64,7.64,0,0,0-1.11,8.45c2.28,4,8,3.42,8.67,3.34,4.09-.5,6.76-3.47,8.14-5.62-1.07,3.4-3.29,8.38-7.56,11.21-6.93,4.59-8.14,4.76-10.64,6.93s-5.56,7.49-1,12.49,18.48,4.75,26.79-11.79c8.31,16.54,22.31,16.76,26.8,11.79S1456.06,777.84,1453.56,775.66Z" style="fill:#2f3146"/><g style="clip-path:url(#aa178c47-2f91-49c7-be87-8ba691b7bd2d)"><g id="a333078d-b218-453b-a7b7-5de19a6f019b" data-name="&lt;Grid Repeat&gt;"><path d="M.51,812.38h0a12.94,12.94,0,0,1,12.94,12.94V893a0,0,0,0,1,0,0H-12.43a0,0,0,0,1,0,0V825.32A12.94,12.94,0,0,1,.51,812.38Z" style="fill:#014e3c"/></g><g id="bc90b951-e07a-4dba-9f89-d3baecd9f0b8" data-name="&lt;Grid Repeat&gt;"><path d="M24.82,812.38h0a12.94,12.94,0,0,1,12.94,12.94V893a0,0,0,0,1,0,0H11.88a0,0,0,0,1,0,0V825.32a12.94,12.94,0,0,1,12.94-12.94Z" style="fill:#014e3c"/></g><g id="bcddd5bb-dc00-49a0-aa92-3a16819979f2" data-name="&lt;Grid Repeat&gt;"><path d="M49.13,812.38h0a12.94,12.94,0,0,1,12.94,12.94V893a0,0,0,0,1,0,0H36.19a0,0,0,0,1,0,0V825.32A12.94,12.94,0,0,1,49.13,812.38Z" style="fill:#014e3c"/></g><g id="be4d50d8-d64b-4aa1-b552-39d721435b91" data-name="&lt;Grid Repeat&gt;"><path d="M73.44,812.38h0a12.94,12.94,0,0,1,12.94,12.94V893a0,0,0,0,1,0,0H60.5a0,0,0,0,1,0,0V825.32A12.94,12.94,0,0,1,73.44,812.38Z" style="fill:#014e3c"/></g><g id="b49abfcd-05fc-438b-badd-db9c3bb53026" data-name="&lt;Grid Repeat&gt;"><path d="M97.75,812.38h0a12.94,12.94,0,0,1,12.94,12.94V893a0,0,0,0,1,0,0H84.81a0,0,0,0,1,0,0V825.32A12.94,12.94,0,0,1,97.75,812.38Z" style="fill:#014e3c"/></g><g id="b7c52651-8bf4-41b3-ab4c-949e1ccd8ee4" data-name="&lt;Grid Repeat&gt;"><path d="M122.06,812.38h0A12.94,12.94,0,0,1,135,825.32V893a0,0,0,0,1,0,0H109.12a0,0,0,0,1,0,0V825.32A12.94,12.94,0,0,1,122.06,812.38Z" style="fill:#014e3c"/></g><g id="b0023d24-6659-4533-920a-43f0be168c17" data-name="&lt;Grid Repeat&gt;"><path d="M146.37,812.38h0a12.94,12.94,0,0,1,12.94,12.94V893a0,0,0,0,1,0,0H133.43a0,0,0,0,1,0,0V825.32A12.94,12.94,0,0,1,146.37,812.38Z" style="fill:#014e3c"/></g><g id="b9c6b454-3f46-4133-b7ef-d627816c6797" data-name="&lt;Grid Repeat&gt;"><path d="M170.68,812.38h0a12.94,12.94,0,0,1,12.94,12.94V893a0,0,0,0,1,0,0H157.74a0,0,0,0,1,0,0V825.32a12.94,12.94,0,0,1,12.94-12.94Z" style="fill:#014e3c"/></g><g id="a9aa0b59-65fb-493d-9080-dba0bce04e90" data-name="&lt;Grid Repeat&gt;"><path d="M195,812.38h0a12.94,12.94,0,0,1,12.94,12.94V893a0,0,0,0,1,0,0H182.05a0,0,0,0,1,0,0V825.32A12.94,12.94,0,0,1,195,812.38Z" style="fill:#014e3c"/></g><g id="a3815291-b4b2-4ee2-a9ef-44c60d14251a" data-name="&lt;Grid Repeat&gt;"><path d="M219.3,812.38h0a12.94,12.94,0,0,1,12.94,12.94V893a0,0,0,0,1,0,0H206.36a0,0,0,0,1,0,0V825.32A12.94,12.94,0,0,1,219.3,812.38Z" style="fill:#014e3c"/></g><g id="a2d769c6-9b2d-4536-8d7e-47ae45439783" data-name="&lt;Grid Repeat&gt;"><path d="M243.61,812.38h0a12.94,12.94,0,0,1,12.94,12.94V893a0,0,0,0,1,0,0H230.67a0,0,0,0,1,0,0V825.32A12.94,12.94,0,0,1,243.61,812.38Z" style="fill:#014e3c"/></g><g id="b7ef38ee-e566-4c61-a55e-0d2ce920fa2d" data-name="&lt;Grid Repeat&gt;"><path d="M267.92,812.38h0a12.94,12.94,0,0,1,12.94,12.94V893a0,0,0,0,1,0,0H255a0,0,0,0,1,0,0V825.32a12.94,12.94,0,0,1,12.94-12.94Z" style="fill:#014e3c"/></g><g id="a9f3720c-333c-4bc4-b675-a6b02d185500" data-name="&lt;Grid Repeat&gt;"><path d="M292.23,812.38h0a12.94,12.94,0,0,1,12.94,12.94V893a0,0,0,0,1,0,0H279.29a0,0,0,0,1,0,0V825.32A12.94,12.94,0,0,1,292.23,812.38Z" style="fill:#014e3c"/></g><g id="b9bafb43-333b-4e57-9a20-152847c7d793" data-name="&lt;Grid Repeat&gt;"><path d="M316.54,812.38h0a12.94,12.94,0,0,1,12.94,12.94V893a0,0,0,0,1,0,0H303.6a0,0,0,0,1,0,0V825.32a12.94,12.94,0,0,1,12.94-12.94Z" style="fill:#014e3c"/></g><g id="f9715aea-1078-419d-95ed-88b0a3e462e9" data-name="&lt;Grid Repeat&gt;"><path d="M340.86,812.38h0a12.94,12.94,0,0,1,12.94,12.94V893a0,0,0,0,1,0,0H327.92a0,0,0,0,1,0,0V825.32A12.94,12.94,0,0,1,340.86,812.38Z" style="fill:#014e3c"/></g><g id="bc5757a3-0e73-484c-99de-443d757ed8a7" data-name="&lt;Grid Repeat&gt;"><path d="M365.17,812.38h0a12.94,12.94,0,0,1,12.94,12.94V893a0,0,0,0,1,0,0H352.23a0,0,0,0,1,0,0V825.32A12.94,12.94,0,0,1,365.17,812.38Z" style="fill:#014e3c"/></g><g id="a06ebe55-9d25-4c3c-a0f4-9bb039db2116" data-name="&lt;Grid Repeat&gt;"><path d="M389.48,812.38h0a12.94,12.94,0,0,1,12.94,12.94V893a0,0,0,0,1,0,0H376.54a0,0,0,0,1,0,0V825.32A12.94,12.94,0,0,1,389.48,812.38Z" style="fill:#014e3c"/></g><g id="ac3f0db1-49ff-4422-bb2a-634d1411d0e2" data-name="&lt;Grid Repeat&gt;"><path d="M413.79,812.38h0a12.94,12.94,0,0,1,12.94,12.94V893a0,0,0,0,1,0,0H400.85a0,0,0,0,1,0,0V825.32A12.94,12.94,0,0,1,413.79,812.38Z" style="fill:#014e3c"/></g><g id="e1cd28a0-de28-4c62-8917-08e4fbbaaaf8" data-name="&lt;Grid Repeat&gt;"><path d="M438.1,812.38h0A12.94,12.94,0,0,1,451,825.32V893a0,0,0,0,1,0,0H425.16a0,0,0,0,1,0,0V825.32A12.94,12.94,0,0,1,438.1,812.38Z" style="fill:#014e3c"/></g><g id="ef447458-53cf-4c34-bf21-1c806f180c49" data-name="&lt;Grid Repeat&gt;"><path d="M462.41,812.38h0a12.94,12.94,0,0,1,12.94,12.94V893a0,0,0,0,1,0,0H449.47a0,0,0,0,1,0,0V825.32a12.94,12.94,0,0,1,12.94-12.94Z" style="fill:#014e3c"/></g><g id="b6d55dbb-8671-496d-9c06-044529094f46" data-name="&lt;Grid Repeat&gt;"><path d="M486.72,812.38h0a12.94,12.94,0,0,1,12.94,12.94V893a0,0,0,0,1,0,0H473.78a0,0,0,0,1,0,0V825.32A12.94,12.94,0,0,1,486.72,812.38Z" style="fill:#014e3c"/></g><g id="f797c68a-db7f-4b99-bfc6-27a121c6cd5f" data-name="&lt;Grid Repeat&gt;"><path d="M511,812.38h0A12.94,12.94,0,0,1,524,825.32V893a0,0,0,0,1,0,0H498.09a0,0,0,0,1,0,0V825.32A12.94,12.94,0,0,1,511,812.38Z" style="fill:#014e3c"/></g><g id="b34450de-01d4-48a6-bd04-a9ffa1c12910" data-name="&lt;Grid Repeat&gt;"><path d="M535.34,812.38h0a12.94,12.94,0,0,1,12.94,12.94V893a0,0,0,0,1,0,0H522.4a0,0,0,0,1,0,0V825.32A12.94,12.94,0,0,1,535.34,812.38Z" style="fill:#014e3c"/></g><g id="a165ca3a-fddc-465c-8c36-d84d563ef8cf" data-name="&lt;Grid Repeat&gt;"><path d="M559.65,812.38h0a12.94,12.94,0,0,1,12.94,12.94V893a0,0,0,0,1,0,0H546.71a0,0,0,0,1,0,0V825.32A12.94,12.94,0,0,1,559.65,812.38Z" style="fill:#014e3c"/></g><g id="f394dba8-82f8-403b-be56-f350de0af740" data-name="&lt;Grid Repeat&gt;"><path d="M584,812.38h0a12.94,12.94,0,0,1,12.94,12.94V893a0,0,0,0,1,0,0H571a0,0,0,0,1,0,0V825.32A12.94,12.94,0,0,1,584,812.38Z" style="fill:#014e3c"/></g><g id="ee7f9e2f-20ed-4429-922b-2ea5b3d94f59" data-name="&lt;Grid Repeat&gt;"><path d="M608.27,812.38h0a12.94,12.94,0,0,1,12.94,12.94V893a0,0,0,0,1,0,0H595.33a0,0,0,0,1,0,0V825.32A12.94,12.94,0,0,1,608.27,812.38Z" style="fill:#014e3c"/></g><g id="a95a9c5c-54ee-40ea-adec-c9bc0fa6a94d" data-name="&lt;Grid Repeat&gt;"><path d="M632.58,812.38h0a12.94,12.94,0,0,1,12.94,12.94V893a0,0,0,0,1,0,0H619.64a0,0,0,0,1,0,0V825.32A12.94,12.94,0,0,1,632.58,812.38Z" style="fill:#014e3c"/></g><g id="ec2fbc43-b416-45af-a06f-41f9a98c942e" data-name="&lt;Grid Repeat&gt;"><path d="M656.89,812.38h0a12.94,12.94,0,0,1,12.94,12.94V893a0,0,0,0,1,0,0H644a0,0,0,0,1,0,0V825.32A12.94,12.94,0,0,1,656.89,812.38Z" style="fill:#014e3c"/></g><g id="b6a6ec6d-4d74-4a5a-af3e-4173e2353946" data-name="&lt;Grid Repeat&gt;"><path d="M681.2,812.38h0a12.94,12.94,0,0,1,12.94,12.94V893a0,0,0,0,1,0,0H668.26a0,0,0,0,1,0,0V825.32A12.94,12.94,0,0,1,681.2,812.38Z" style="fill:#014e3c"/></g><g id="f65728a5-f8b3-4f5c-b3d0-af2f16774524" data-name="&lt;Grid Repeat&gt;"><path d="M705.52,812.38h0a12.94,12.94,0,0,1,12.94,12.94V893a0,0,0,0,1,0,0H692.58a0,0,0,0,1,0,0V825.32A12.94,12.94,0,0,1,705.52,812.38Z" style="fill:#014e3c"/></g><g id="abe1dfd9-b5d0-4d17-8a96-72454816e6c6" data-name="&lt;Grid Repeat&gt;"><path d="M729.83,812.38h0a12.94,12.94,0,0,1,12.94,12.94V893a0,0,0,0,1,0,0H716.89a0,0,0,0,1,0,0V825.32A12.94,12.94,0,0,1,729.83,812.38Z" style="fill:#014e3c"/></g><g id="ef85c4c6-7cf3-499d-a104-8e683d26982a" data-name="&lt;Grid Repeat&gt;"><path d="M754.14,812.38h0a12.94,12.94,0,0,1,12.94,12.94V893a0,0,0,0,1,0,0H741.2a0,0,0,0,1,0,0V825.32A12.94,12.94,0,0,1,754.14,812.38Z" style="fill:#014e3c"/></g><g id="b8946195-900d-4c2c-998d-cd6f80990e6e" data-name="&lt;Grid Repeat&gt;"><path d="M778.45,812.38h0a12.94,12.94,0,0,1,12.94,12.94V893a0,0,0,0,1,0,0H765.51a0,0,0,0,1,0,0V825.32A12.94,12.94,0,0,1,778.45,812.38Z" style="fill:#014e3c"/></g><g id="ac0ea2e1-2818-48e6-a5e7-44ffa4bfcee3" data-name="&lt;Grid Repeat&gt;"><path d="M802.76,812.38h0a12.94,12.94,0,0,1,12.94,12.94V893a0,0,0,0,1,0,0H789.82a0,0,0,0,1,0,0V825.32A12.94,12.94,0,0,1,802.76,812.38Z" style="fill:#014e3c"/></g><g id="f24e8a7f-5971-4d41-9c2c-c7eb13374128" data-name="&lt;Grid Repeat&gt;"><path d="M827.07,812.38h0A12.94,12.94,0,0,1,840,825.32V893a0,0,0,0,1,0,0H814.13a0,0,0,0,1,0,0V825.32A12.94,12.94,0,0,1,827.07,812.38Z" style="fill:#014e3c"/></g><g id="aa6e5df0-2b68-42f8-94ec-8b37af9eaa93" data-name="&lt;Grid Repeat&gt;"><path d="M851.38,812.38h0a12.94,12.94,0,0,1,12.94,12.94V893a0,0,0,0,1,0,0H838.44a0,0,0,0,1,0,0V825.32A12.94,12.94,0,0,1,851.38,812.38Z" style="fill:#014e3c"/></g><g id="b3f15c7a-b50a-474f-82bb-2d6fc45fde08" data-name="&lt;Grid Repeat&gt;"><path d="M875.69,812.38h0a12.94,12.94,0,0,1,12.94,12.94V893a0,0,0,0,1,0,0H862.75a0,0,0,0,1,0,0V825.32A12.94,12.94,0,0,1,875.69,812.38Z" style="fill:#014e3c"/></g><g id="b09b7d23-e51c-4712-b81b-54776d6cd581" data-name="&lt;Grid Repeat&gt;"><path d="M900,812.38h0a12.94,12.94,0,0,1,12.94,12.94V893a0,0,0,0,1,0,0H887.06a0,0,0,0,1,0,0V825.32A12.94,12.94,0,0,1,900,812.38Z" style="fill:#014e3c"/></g><g id="f5da4cef-6199-48fe-a983-7c0faca14fa7" data-name="&lt;Grid Repeat&gt;"><path d="M924.31,812.38h0a12.94,12.94,0,0,1,12.94,12.94V893a0,0,0,0,1,0,0H911.37a0,0,0,0,1,0,0V825.32A12.94,12.94,0,0,1,924.31,812.38Z" style="fill:#014e3c"/></g><g id="a0cf7726-0594-421d-9809-03627f309b5a" data-name="&lt;Grid Repeat&gt;"><path d="M948.62,812.38h0a12.94,12.94,0,0,1,12.94,12.94V893a0,0,0,0,1,0,0H935.68a0,0,0,0,1,0,0V825.32a12.94,12.94,0,0,1,12.94-12.94Z" style="fill:#014e3c"/></g><g id="aa864062-4919-45f4-9367-7a7a21399984" data-name="&lt;Grid Repeat&gt;"><path d="M972.93,812.38h0a12.94,12.94,0,0,1,12.94,12.94V893a0,0,0,0,1,0,0H960a0,0,0,0,1,0,0V825.32A12.94,12.94,0,0,1,972.93,812.38Z" style="fill:#014e3c"/></g><g id="a76b2709-1803-4c2b-8abb-36cafeabded4" data-name="&lt;Grid Repeat&gt;"><path d="M997.24,812.38h0a12.94,12.94,0,0,1,12.94,12.94V893a0,0,0,0,1,0,0H984.3a0,0,0,0,1,0,0V825.32A12.94,12.94,0,0,1,997.24,812.38Z" style="fill:#014e3c"/></g><g id="e9aa3a1c-33cd-4d63-9528-5318c525b9ea" data-name="&lt;Grid Repeat&gt;"><path d="M1021.55,812.38h0a12.94,12.94,0,0,1,12.94,12.94V893a0,0,0,0,1,0,0h-25.88a0,0,0,0,1,0,0V825.32A12.94,12.94,0,0,1,1021.55,812.38Z" style="fill:#014e3c"/></g><g id="be43814c-39ff-48a8-aa9c-2d15e1d09ae9" data-name="&lt;Grid Repeat&gt;"><path d="M1045.86,812.38h0a12.94,12.94,0,0,1,12.94,12.94V893a0,0,0,0,1,0,0h-25.88a0,0,0,0,1,0,0V825.32A12.94,12.94,0,0,1,1045.86,812.38Z" style="fill:#014e3c"/></g><g id="fbed246b-e493-4599-a4bd-980168c0446d" data-name="&lt;Grid Repeat&gt;"><path d="M1070.18,812.38h0a12.94,12.94,0,0,1,12.94,12.94V893a0,0,0,0,1,0,0h-25.88a0,0,0,0,1,0,0V825.32a12.94,12.94,0,0,1,12.94-12.94Z" style="fill:#014e3c"/></g><g id="ea7f045a-a188-4c09-b655-579531114eee" data-name="&lt;Grid Repeat&gt;"><path d="M1094.49,812.38h0a12.94,12.94,0,0,1,12.94,12.94V893a0,0,0,0,1,0,0h-25.88a0,0,0,0,1,0,0V825.32A12.94,12.94,0,0,1,1094.49,812.38Z" style="fill:#014e3c"/></g><g id="b3bbdf06-c408-4c4b-8d0f-6cf636b8228b" data-name="&lt;Grid Repeat&gt;"><path d="M1118.8,812.38h0a12.94,12.94,0,0,1,12.94,12.94V893a0,0,0,0,1,0,0h-25.88a0,0,0,0,1,0,0V825.32A12.94,12.94,0,0,1,1118.8,812.38Z" style="fill:#014e3c"/></g><g id="ba19f05b-ac80-40ed-9f29-6c0ef1d4e238" data-name="&lt;Grid Repeat&gt;"><path d="M1143.11,812.38h0A12.94,12.94,0,0,1,1156,825.32V893a0,0,0,0,1,0,0h-25.88a0,0,0,0,1,0,0V825.32A12.94,12.94,0,0,1,1143.11,812.38Z" style="fill:#014e3c"/></g><g id="b130aaba-b9f2-41a6-8ef6-415c4d47cc14" data-name="&lt;Grid Repeat&gt;"><path d="M1167.42,812.38h0a12.94,12.94,0,0,1,12.94,12.94V893a0,0,0,0,1,0,0h-25.88a0,0,0,0,1,0,0V825.32a12.94,12.94,0,0,1,12.94-12.94Z" style="fill:#014e3c"/></g><g id="f5805b36-86a0-4920-815e-29117ad3a3a0" data-name="&lt;Grid Repeat&gt;"><path d="M1191.73,812.38h0a12.94,12.94,0,0,1,12.94,12.94V893a0,0,0,0,1,0,0h-25.88a0,0,0,0,1,0,0V825.32A12.94,12.94,0,0,1,1191.73,812.38Z" style="fill:#014e3c"/></g><g id="f3b4efb8-ea05-4b8e-99d0-81b9aa105b5a" data-name="&lt;Grid Repeat&gt;"><path d="M1216,812.38h0A12.94,12.94,0,0,1,1229,825.32V893a0,0,0,0,1,0,0H1203.1a0,0,0,0,1,0,0V825.32A12.94,12.94,0,0,1,1216,812.38Z" style="fill:#014e3c"/></g><g id="b177b267-acb5-4b2c-acde-e0e3b37a9d7e" data-name="&lt;Grid Repeat&gt;"><path d="M1240.35,812.38h0a12.94,12.94,0,0,1,12.94,12.94V893a0,0,0,0,1,0,0h-25.88a0,0,0,0,1,0,0V825.32A12.94,12.94,0,0,1,1240.35,812.38Z" style="fill:#014e3c"/></g><g id="ff834a09-249b-441e-8234-0963f0ae82ba" data-name="&lt;Grid Repeat&gt;"><path d="M1264.66,812.38h0a12.94,12.94,0,0,1,12.94,12.94V893a0,0,0,0,1,0,0h-25.88a0,0,0,0,1,0,0V825.32a12.94,12.94,0,0,1,12.94-12.94Z" style="fill:#014e3c"/></g><g id="aee0c357-6851-471a-9a88-f7870dc4aa24" data-name="&lt;Grid Repeat&gt;"><path d="M1289,812.38h0a12.94,12.94,0,0,1,12.94,12.94V893a0,0,0,0,1,0,0H1276a0,0,0,0,1,0,0V825.32A12.94,12.94,0,0,1,1289,812.38Z" style="fill:#014e3c"/></g><g id="b37836e3-bdee-4cc9-b2eb-288ab42ca744" data-name="&lt;Grid Repeat&gt;"><path d="M1313.28,812.38h0a12.94,12.94,0,0,1,12.94,12.94V893a0,0,0,0,1,0,0h-25.88a0,0,0,0,1,0,0V825.32A12.94,12.94,0,0,1,1313.28,812.38Z" style="fill:#014e3c"/></g><g id="b47539ea-2420-44e6-bd81-1724774f6db5" data-name="&lt;Grid Repeat&gt;"><path d="M1337.59,812.38h0a12.94,12.94,0,0,1,12.94,12.94V893a0,0,0,0,1,0,0h-25.88a0,0,0,0,1,0,0V825.32a12.94,12.94,0,0,1,12.94-12.94Z" style="fill:#014e3c"/></g><g id="b952d8ac-ea26-462c-ac4d-d068d395d989" data-name="&lt;Grid Repeat&gt;"><path d="M1361.9,812.38h0a12.94,12.94,0,0,1,12.94,12.94V893a0,0,0,0,1,0,0H1349a0,0,0,0,1,0,0V825.32a12.94,12.94,0,0,1,12.94-12.94Z" style="fill:#014e3c"/></g><g id="a0ced6aa-98d2-41fc-8622-cb2a0bf02854" data-name="&lt;Grid Repeat&gt;"><path d="M1386.21,812.38h0a12.94,12.94,0,0,1,12.94,12.94V893a0,0,0,0,1,0,0h-25.88a0,0,0,0,1,0,0V825.32a12.94,12.94,0,0,1,12.94-12.94Z" style="fill:#014e3c"/></g><g id="e6fcbc72-a743-405e-83c0-79bbfc072fa6" data-name="&lt;Grid Repeat&gt;"><path d="M1410.53,812.38h0a12.94,12.94,0,0,1,12.94,12.94V893a0,0,0,0,1,0,0h-25.88a0,0,0,0,1,0,0V825.32A12.94,12.94,0,0,1,1410.53,812.38Z" style="fill:#014e3c"/></g><g id="f662804e-dbcf-49c9-9a43-12d0a4563792" data-name="&lt;Grid Repeat&gt;"><path d="M1434.84,812.38h0a12.94,12.94,0,0,1,12.94,12.94V893a0,0,0,0,1,0,0H1421.9a0,0,0,0,1,0,0V825.32A12.94,12.94,0,0,1,1434.84,812.38Z" style="fill:#014e3c"/></g><g id="a8a8055e-a0f1-4cfe-b8f3-e75b5271b5d9" data-name="&lt;Grid Repeat&gt;"><path d="M1459.15,812.38h0a12.94,12.94,0,0,1,12.94,12.94V893a0,0,0,0,1,0,0h-25.88a0,0,0,0,1,0,0V825.32a12.94,12.94,0,0,1,12.94-12.94Z" style="fill:#014e3c"/></g><g id="fd7a9282-29fc-49d6-b88d-2b1fbfaa2f68" data-name="&lt;Grid Repeat&gt;"><path d="M1483.46,812.38h0a12.94,12.94,0,0,1,12.94,12.94V893a0,0,0,0,1,0,0h-25.88a0,0,0,0,1,0,0V825.32A12.94,12.94,0,0,1,1483.46,812.38Z" style="fill:#014e3c"/></g><g id="b7f3e6e9-01c8-401b-b57a-2ef65d510213" data-name="&lt;Grid Repeat&gt;"><path d="M1507.77,812.38h0a12.94,12.94,0,0,1,12.94,12.94V893a0,0,0,0,1,0,0h-25.88a0,0,0,0,1,0,0V825.32A12.94,12.94,0,0,1,1507.77,812.38Z" style="fill:#014e3c"/></g><g id="f4828942-bb6b-406e-ab08-d7df1b4c8edd" data-name="&lt;Grid Repeat&gt;"><path d="M1532.08,812.38h0A12.94,12.94,0,0,1,1545,825.32V893a0,0,0,0,1,0,0h-25.88a0,0,0,0,1,0,0V825.32a12.94,12.94,0,0,1,12.94-12.94Z" style="fill:#014e3c"/></g><g id="ba3ec711-55e3-4647-9e17-fed67b4c541f" data-name="&lt;Grid Repeat&gt;"><path d="M1556.39,812.38h0a12.94,12.94,0,0,1,12.94,12.94V893a0,0,0,0,1,0,0h-25.88a0,0,0,0,1,0,0V825.32a12.94,12.94,0,0,1,12.94-12.94Z" style="fill:#014e3c"/></g><g id="e60ea0f3-9b9b-4497-8e95-fde899bc6c9b" data-name="&lt;Grid Repeat&gt;"><path d="M1580.7,812.38h0a12.94,12.94,0,0,1,12.94,12.94V893a0,0,0,0,1,0,0h-25.88a0,0,0,0,1,0,0V825.32A12.94,12.94,0,0,1,1580.7,812.38Z" style="fill:#014e3c"/></g><g id="e5d06d50-e350-4644-9ea6-327598c44eb5" data-name="&lt;Grid Repeat&gt;"><path d="M1605,812.38h0A12.94,12.94,0,0,1,1618,825.32V893a0,0,0,0,1,0,0h-25.88a0,0,0,0,1,0,0V825.32A12.94,12.94,0,0,1,1605,812.38Z" style="fill:#014e3c"/></g><g id="afca1d7c-76b0-42a4-9da0-803919b8f19c" data-name="&lt;Grid Repeat&gt;"><path d="M1629.32,812.38h0a12.94,12.94,0,0,1,12.94,12.94V893a0,0,0,0,1,0,0h-25.88a0,0,0,0,1,0,0V825.32A12.94,12.94,0,0,1,1629.32,812.38Z" style="fill:#014e3c"/></g><g id="b7c35613-55a6-43ed-a362-e802444cdc12" data-name="&lt;Grid Repeat&gt;"><path d="M1653.63,812.38h0a12.94,12.94,0,0,1,12.94,12.94V893a0,0,0,0,1,0,0h-25.88a0,0,0,0,1,0,0V825.32a12.94,12.94,0,0,1,12.94-12.94Z" style="fill:#014e3c"/></g><g id="f859154a-a6e1-4e9b-b07a-8e23ae954c16" data-name="&lt;Grid Repeat&gt;"><path d="M1677.94,812.38h0a12.94,12.94,0,0,1,12.94,12.94V893a0,0,0,0,1,0,0H1665a0,0,0,0,1,0,0V825.32A12.94,12.94,0,0,1,1677.94,812.38Z" style="fill:#014e3c"/></g><g id="b3efad87-e8f2-45aa-ad8d-98a6bf85b559" data-name="&lt;Grid Repeat&gt;"><path d="M1702.25,812.38h0a12.94,12.94,0,0,1,12.94,12.94V893a0,0,0,0,1,0,0h-25.88a0,0,0,0,1,0,0V825.32a12.94,12.94,0,0,1,12.94-12.94Z" style="fill:#014e3c"/></g><g id="afb8ac66-ddd6-4a02-81b2-9140b6b89785" data-name="&lt;Grid Repeat&gt;"><path d="M1726.56,812.38h0a12.94,12.94,0,0,1,12.94,12.94V893a0,0,0,0,1,0,0h-25.88a0,0,0,0,1,0,0V825.32a12.94,12.94,0,0,1,12.94-12.94Z" style="fill:#014e3c"/></g><g id="ad776742-8426-45ad-b367-00ce8d000b80" data-name="&lt;Grid Repeat&gt;"><path d="M1750.87,812.38h0a12.94,12.94,0,0,1,12.94,12.94V893a0,0,0,0,1,0,0h-25.88a0,0,0,0,1,0,0V825.32a12.94,12.94,0,0,1,12.94-12.94Z" style="fill:#014e3c"/></g><g id="f7dacfba-6f82-46c4-9320-6ecd140897fb" data-name="&lt;Grid Repeat&gt;"><path d="M1775.19,812.38h0a12.94,12.94,0,0,1,12.94,12.94V893a0,0,0,0,1,0,0h-25.88a0,0,0,0,1,0,0V825.32A12.94,12.94,0,0,1,1775.19,812.38Z" style="fill:#014e3c"/></g><g id="e5dd5158-9d00-4c38-99a6-b9dbd0f3f757" data-name="&lt;Grid Repeat&gt;"><path d="M1799.5,812.38h0a12.94,12.94,0,0,1,12.94,12.94V893a0,0,0,0,1,0,0h-25.88a0,0,0,0,1,0,0V825.32a12.94,12.94,0,0,1,12.94-12.94Z" style="fill:#014e3c"/></g><g id="e9625b5f-e768-40e4-9fe3-34ef20c0f16d" data-name="&lt;Grid Repeat&gt;"><path d="M1823.81,812.38h0a12.94,12.94,0,0,1,12.94,12.94V893a0,0,0,0,1,0,0h-25.88a0,0,0,0,1,0,0V825.32A12.94,12.94,0,0,1,1823.81,812.38Z" style="fill:#014e3c"/></g><g id="a5866b3d-051e-4105-9055-c7aca25fbc1c" data-name="&lt;Grid Repeat&gt;"><path d="M1848.12,812.38h0a12.94,12.94,0,0,1,12.94,12.94V893a0,0,0,0,1,0,0h-25.88a0,0,0,0,1,0,0V825.32A12.94,12.94,0,0,1,1848.12,812.38Z" style="fill:#014e3c"/></g><g id="abecb676-a1e5-4e2e-a856-8fd0e22d8a8b" data-name="&lt;Grid Repeat&gt;"><path d="M1872.43,812.38h0a12.94,12.94,0,0,1,12.94,12.94V893a0,0,0,0,1,0,0h-25.88a0,0,0,0,1,0,0V825.32A12.94,12.94,0,0,1,1872.43,812.38Z" style="fill:#014e3c"/></g><g id="ac959f67-8c78-4bfa-ae42-4984222ece1b" data-name="&lt;Grid Repeat&gt;"><path d="M1896.74,812.38h0a12.94,12.94,0,0,1,12.94,12.94V893a0,0,0,0,1,0,0H1883.8a0,0,0,0,1,0,0V825.32A12.94,12.94,0,0,1,1896.74,812.38Z" style="fill:#014e3c"/></g><g id="e3e51f11-6d39-40b3-bd99-db54dfcb9b3b" data-name="&lt;Grid Repeat&gt;"><path d="M1921,812.38h0A12.94,12.94,0,0,1,1934,825.32V893a0,0,0,0,1,0,0h-25.88a0,0,0,0,1,0,0V825.32A12.94,12.94,0,0,1,1921,812.38Z" style="fill:#014e3c"/></g></g><rect y="847.99" width="1920" height="51.9" style="fill:#014e3c"/></g></g></svg>