<?xml version="1.0" encoding="utf-8"?>
<!-- Generator: Adobe Illustrator 26.0.0, SVG Export Plug-In . SVG Version: 6.00 Build 0)  -->
<svg version="1.1" xmlns="http://www.w3.org/2000/svg" xmlns:xlink="http://www.w3.org/1999/xlink" x="0px" y="0px"
	 viewBox="0 0 402.38 67.19" style="enable-background:new 0 0 402.38 67.19;" xml:space="preserve">
<style type="text/css">
	.st0{fill:#5C853B;}
	.st1{fill:#441C16;}
	.st2{fill:#E5A624;}
	.st3{fill:#448E4D;}
</style>
<g id="Layer_1">
</g>
<g id="S">
	<g>
		<g>
			<g>
				<path class="st0" d="M202.17,54.02H73.18c-3.02,0-5.46-2.45-5.46-5.46V31.8c0-3.02,2.45-5.46,5.46-5.46h128.99
					c3.02,0,5.46,2.45,5.46,5.46v16.76C207.64,51.57,205.19,54.02,202.17,54.02z"/>
				<path class="st1" d="M92.41,53.98c0-4.79-3.88-8.67-8.67-8.67c-4.79,0-8.67,3.88-8.67,8.67H92.41z"/>
				<circle class="st1" cx="106.07" cy="43.25" r="2.82"/>
				<circle class="st1" cx="173.87" cy="46.78" r="2"/>
				<circle class="st1" cx="71.75" cy="46.4" r="2"/>
				<circle class="st1" cx="200.49" cy="44.52" r="2"/>
				<circle class="st1" cx="131" cy="44.66" r="0.87"/>
				<circle class="st1" cx="116.1" cy="49.25" r="0.87"/>
				<circle class="st1" cx="142.28" cy="41.62" r="0.87"/>
				<circle class="st1" cx="183.32" cy="49.97" r="0.87"/>
				<circle class="st1" cx="190.66" cy="42.94" r="0.87"/>
				<circle class="st1" cx="163.85" cy="50.73" r="2.93"/>
				<path class="st1" d="M207.65,13.76H67.69v24.79c2.14,1.73,4.86,2.77,7.82,2.77c4.32,0,8.13-2.2,10.36-5.54
					c2.23,3.34,6.04,5.54,10.36,5.54s8.13-2.2,10.36-5.54c2.23,3.34,6.04,5.54,10.36,5.54c4.32,0,8.13-2.2,10.36-5.54
					c2.23,3.34,6.04,5.54,10.36,5.54s8.13-2.2,10.36-5.54c2.23,3.34,6.04,5.54,10.36,5.54s8.13-2.2,10.36-5.54
					c2.23,3.34,6.04,5.54,10.36,5.54s8.13-2.2,10.36-5.54c2.23,3.34,6.04,5.54,10.36,5.54c2.96,0,5.67-1.03,7.8-2.75V13.76z"/>
				<path class="st2" d="M212.3,15.56c0-2.39-1.94-4.32-4.32-4.32H67.38c-2.39,0-4.32,1.94-4.32,4.32v10.78h0
					c0,6.88,5.58,12.46,12.46,12.46c4.32,0,8.13-2.2,10.36-5.54c2.23,3.34,6.04,5.54,10.36,5.54c4.32,0,8.13-2.2,10.36-5.54
					c2.23,3.34,6.04,5.54,10.36,5.54s8.13-2.2,10.36-5.54c2.23,3.34,6.04,5.54,10.36,5.54s8.13-2.2,10.36-5.54
					c2.23,3.34,6.04,5.54,10.36,5.54s8.13-2.2,10.36-5.54c2.23,3.34,6.04,5.54,10.36,5.54s8.13-2.2,10.36-5.54
					c2.23,3.34,6.04,5.54,10.36,5.54c6.88,0,12.46-5.58,12.46-12.46h0V15.56z"/>
				<circle class="st3" cx="93.44" cy="25.7" r="2.82"/>
				<circle class="st3" cx="184.65" cy="15.74" r="2.82"/>
				<circle class="st3" cx="71.01" cy="30.43" r="1.2"/>
				<circle class="st3" cx="131.52" cy="17.9" r="1.2"/>
				<circle class="st3" cx="96.76" cy="21" r="1.2"/>
				<circle class="st3" cx="68.87" cy="20.55" r="1.2"/>
				<circle class="st3" cx="178.45" cy="32.07" r="1.2"/>
				<circle class="st3" cx="144.49" cy="20.33" r="1.2"/>
				<circle class="st3" cx="117.13" cy="32.73" r="1.2"/>
				<circle class="st3" cx="199.84" cy="17.01" r="1.2"/>
				<circle class="st3" cx="204.26" cy="29.85" r="1.2"/>
				<circle class="st3" cx="195.94" cy="35.16" r="1.2"/>
			</g>
		</g>
		<g>
			<g>
				<path class="st0" d="M326.27,54.02H197.27c-3.02,0-5.46-2.45-5.46-5.46V31.8c0-3.02,2.45-5.46,5.46-5.46h128.99
					c3.02,0,5.46,2.45,5.46,5.46v16.76C331.73,51.57,329.28,54.02,326.27,54.02z"/>
				<path class="st1" d="M216.5,53.98c0-4.79-3.88-8.67-8.67-8.67c-4.79,0-8.67,3.88-8.67,8.67H216.5z"/>
				<circle class="st1" cx="230.16" cy="43.25" r="2.82"/>
				<circle class="st1" cx="297.96" cy="46.78" r="2"/>
				<circle class="st1" cx="195.84" cy="46.4" r="2"/>
				<circle class="st1" cx="324.58" cy="44.52" r="2"/>
				<circle class="st1" cx="255.09" cy="44.66" r="0.87"/>
				<circle class="st1" cx="240.19" cy="49.25" r="0.87"/>
				<circle class="st1" cx="266.37" cy="41.62" r="0.87"/>
				<circle class="st1" cx="307.41" cy="49.97" r="0.87"/>
				<circle class="st1" cx="314.75" cy="42.94" r="0.87"/>
				<circle class="st1" cx="287.94" cy="50.73" r="2.93"/>
				<path class="st1" d="M331.74,13.76H191.78v24.79c2.14,1.73,4.86,2.77,7.82,2.77c4.32,0,8.13-2.2,10.36-5.54
					c2.23,3.34,6.04,5.54,10.36,5.54s8.13-2.2,10.36-5.54c2.23,3.34,6.04,5.54,10.36,5.54c4.32,0,8.13-2.2,10.36-5.54
					c2.23,3.34,6.04,5.54,10.36,5.54s8.13-2.2,10.36-5.54c2.23,3.34,6.04,5.54,10.36,5.54s8.13-2.2,10.36-5.54
					c2.23,3.34,6.04,5.54,10.36,5.54s8.13-2.2,10.36-5.54c2.23,3.34,6.04,5.54,10.36,5.54c2.96,0,5.67-1.03,7.8-2.75V13.76z"/>
				<path class="st2" d="M336.39,15.56c0-2.39-1.94-4.32-4.32-4.32h-140.6c-2.39,0-4.32,1.94-4.32,4.32v10.78h0
					c0,6.88,5.58,12.46,12.46,12.46c4.32,0,8.13-2.2,10.36-5.54c2.23,3.34,6.04,5.54,10.36,5.54s8.13-2.2,10.36-5.54
					c2.23,3.34,6.04,5.54,10.36,5.54s8.13-2.2,10.36-5.54c2.23,3.34,6.04,5.54,10.36,5.54s8.13-2.2,10.36-5.54
					c2.23,3.34,6.04,5.54,10.36,5.54s8.13-2.2,10.36-5.54c2.23,3.34,6.04,5.54,10.36,5.54s8.13-2.2,10.36-5.54
					c2.23,3.34,6.04,5.54,10.36,5.54c6.88,0,12.46-5.58,12.46-12.46h0V15.56z"/>
				<circle class="st3" cx="217.53" cy="25.7" r="2.82"/>
				<circle class="st3" cx="308.74" cy="15.74" r="2.82"/>
				<circle class="st3" cx="195.1" cy="30.43" r="1.2"/>
				<circle class="st3" cx="255.61" cy="17.9" r="1.2"/>
				<circle class="st3" cx="220.85" cy="21" r="1.2"/>
				<circle class="st3" cx="192.96" cy="20.55" r="1.2"/>
				<circle class="st3" cx="302.54" cy="32.07" r="1.2"/>
				<circle class="st3" cx="268.58" cy="20.33" r="1.2"/>
				<circle class="st3" cx="241.22" cy="32.73" r="1.2"/>
				<circle class="st3" cx="323.93" cy="17.01" r="1.2"/>
				<circle class="st3" cx="328.35" cy="29.85" r="1.2"/>
				<circle class="st3" cx="320.03" cy="35.16" r="1.2"/>
			</g>
		</g>
		<g>
			<g>
				<path class="st0" d="M388.23,54.02H259.24c-3.02,0-5.46-2.45-5.46-5.46V31.8c0-3.02,2.45-5.46,5.46-5.46h128.99
					c3.02,0,5.46,2.45,5.46,5.46v16.76C393.7,51.57,391.25,54.02,388.23,54.02z"/>
				<path class="st1" d="M278.47,53.98c0-4.79-3.88-8.67-8.67-8.67s-8.67,3.88-8.67,8.67H278.47z"/>
				<circle class="st1" cx="292.13" cy="43.25" r="2.82"/>
				<circle class="st1" cx="359.93" cy="46.78" r="2"/>
				<circle class="st1" cx="257.81" cy="46.4" r="2"/>
				<circle class="st1" cx="386.55" cy="44.52" r="2"/>
				<circle class="st1" cx="317.06" cy="44.66" r="0.87"/>
				<circle class="st1" cx="302.16" cy="49.25" r="0.87"/>
				<circle class="st1" cx="328.34" cy="41.62" r="0.87"/>
				<circle class="st1" cx="369.38" cy="49.97" r="0.87"/>
				<circle class="st1" cx="376.72" cy="42.94" r="0.87"/>
				<circle class="st1" cx="349.91" cy="50.73" r="2.93"/>
				<path class="st1" d="M393.71,13.76H253.75v24.79c2.14,1.73,4.86,2.77,7.82,2.77c4.32,0,8.13-2.2,10.36-5.54
					c2.23,3.34,6.04,5.54,10.36,5.54s8.13-2.2,10.36-5.54c2.23,3.34,6.04,5.54,10.36,5.54c4.32,0,8.13-2.2,10.36-5.54
					c2.23,3.34,6.04,5.54,10.36,5.54s8.13-2.2,10.36-5.54c2.23,3.34,6.04,5.54,10.36,5.54s8.13-2.2,10.36-5.54
					c2.23,3.34,6.04,5.54,10.36,5.54s8.13-2.2,10.36-5.54c2.23,3.34,6.04,5.54,10.36,5.54c2.96,0,5.67-1.03,7.8-2.75V13.76z"/>
				<path class="st2" d="M398.36,15.56c0-2.39-1.94-4.32-4.32-4.32h-140.6c-2.39,0-4.32,1.94-4.32,4.32v10.78h0
					c0,6.88,5.58,12.46,12.46,12.46c4.32,0,8.13-2.2,10.36-5.54c2.23,3.34,6.04,5.54,10.36,5.54s8.13-2.2,10.36-5.54
					c2.23,3.34,6.04,5.54,10.36,5.54s8.13-2.2,10.36-5.54c2.23,3.34,6.04,5.54,10.36,5.54s8.13-2.2,10.36-5.54
					c2.23,3.34,6.04,5.54,10.36,5.54s8.13-2.2,10.36-5.54c2.23,3.34,6.04,5.54,10.36,5.54s8.13-2.2,10.36-5.54
					c2.23,3.34,6.04,5.54,10.36,5.54c6.88,0,12.46-5.58,12.46-12.46h0V15.56z"/>
				<circle class="st3" cx="279.5" cy="25.7" r="2.82"/>
				<circle class="st3" cx="370.71" cy="15.74" r="2.82"/>
				<circle class="st3" cx="257.07" cy="30.43" r="1.2"/>
				<circle class="st3" cx="317.58" cy="17.9" r="1.2"/>
				<circle class="st3" cx="282.82" cy="21" r="1.2"/>
				<circle class="st3" cx="254.93" cy="20.55" r="1.2"/>
				<circle class="st3" cx="364.51" cy="32.07" r="1.2"/>
				<circle class="st3" cx="330.55" cy="20.33" r="1.2"/>
				<circle class="st3" cx="303.19" cy="32.73" r="1.2"/>
				<circle class="st3" cx="385.89" cy="17.01" r="1.2"/>
				<circle class="st3" cx="390.32" cy="29.85" r="1.2"/>
				<circle class="st3" cx="382" cy="35.16" r="1.2"/>
			</g>
		</g>
	</g>
	<g>
		<g>
			<g>
				<path class="st0" d="M143.85,54.02H14.85c-3.02,0-5.46-2.45-5.46-5.46V31.8c0-3.02,2.45-5.46,5.46-5.46h128.99
					c3.02,0,5.46,2.45,5.46,5.46v16.76C149.31,51.57,146.86,54.02,143.85,54.02z"/>
				<path class="st1" d="M34.08,53.98c0-4.79-3.88-8.67-8.67-8.67s-8.67,3.88-8.67,8.67H34.08z"/>
				<circle class="st1" cx="47.74" cy="43.25" r="2.82"/>
				<circle class="st1" cx="115.54" cy="46.78" r="2"/>
				<circle class="st1" cx="13.42" cy="46.4" r="2"/>
				<circle class="st1" cx="142.16" cy="44.52" r="2"/>
				<circle class="st1" cx="72.67" cy="44.66" r="0.87"/>
				<circle class="st1" cx="57.77" cy="49.25" r="0.87"/>
				<circle class="st1" cx="83.95" cy="41.62" r="0.87"/>
				<circle class="st1" cx="124.99" cy="49.97" r="0.87"/>
				<circle class="st1" cx="132.33" cy="42.94" r="0.87"/>
				<circle class="st1" cx="105.52" cy="50.73" r="2.93"/>
				<path class="st1" d="M149.32,13.76H9.36v24.79c2.14,1.73,4.86,2.77,7.82,2.77c4.32,0,8.13-2.2,10.36-5.54
					c2.23,3.34,6.04,5.54,10.36,5.54s8.13-2.2,10.36-5.54c2.23,3.34,6.04,5.54,10.36,5.54s8.13-2.2,10.36-5.54
					c2.23,3.34,6.04,5.54,10.36,5.54s8.13-2.2,10.36-5.54c2.23,3.34,6.04,5.54,10.36,5.54c4.32,0,8.13-2.2,10.36-5.54
					c2.23,3.34,6.04,5.54,10.36,5.54s8.13-2.2,10.36-5.54c2.23,3.34,6.04,5.54,10.36,5.54c2.96,0,5.67-1.03,7.8-2.75V13.76z"/>
				<path class="st2" d="M153.97,15.56c0-2.39-1.94-4.32-4.32-4.32H9.05c-2.39,0-4.32,1.94-4.32,4.32v10.78h0
					c0,6.88,5.58,12.46,12.46,12.46c4.32,0,8.13-2.2,10.36-5.54c2.23,3.34,6.04,5.54,10.36,5.54s8.13-2.2,10.36-5.54
					c2.23,3.34,6.04,5.54,10.36,5.54s8.13-2.2,10.36-5.54c2.23,3.34,6.04,5.54,10.36,5.54c4.32,0,8.13-2.2,10.36-5.54
					c2.23,3.34,6.04,5.54,10.36,5.54s8.13-2.2,10.36-5.54c2.23,3.34,6.04,5.54,10.36,5.54c4.32,0,8.13-2.2,10.36-5.54
					c2.23,3.34,6.04,5.54,10.36,5.54c6.88,0,12.46-5.58,12.46-12.46h0V15.56z"/>
				<circle class="st3" cx="35.11" cy="25.7" r="2.82"/>
				<circle class="st3" cx="126.32" cy="15.74" r="2.82"/>
				<circle class="st3" cx="12.68" cy="30.43" r="1.2"/>
				<circle class="st3" cx="73.19" cy="17.9" r="1.2"/>
				<circle class="st3" cx="38.43" cy="21" r="1.2"/>
				<circle class="st3" cx="10.54" cy="20.55" r="1.2"/>
				<circle class="st3" cx="120.12" cy="32.07" r="1.2"/>
				<circle class="st3" cx="86.16" cy="20.33" r="1.2"/>
				<circle class="st3" cx="58.8" cy="32.73" r="1.2"/>
				<circle class="st3" cx="141.51" cy="17.01" r="1.2"/>
				<circle class="st3" cx="145.93" cy="29.85" r="1.2"/>
				<circle class="st3" cx="137.61" cy="35.16" r="1.2"/>
			</g>
		</g>
		<g>
			<g>
				<path class="st0" d="M267.94,54.02H138.95c-3.02,0-5.46-2.45-5.46-5.46V31.8c0-3.02,2.45-5.46,5.46-5.46h128.99
					c3.02,0,5.46,2.45,5.46,5.46v16.76C273.4,51.57,270.96,54.02,267.94,54.02z"/>
				<path class="st1" d="M158.17,53.98c0-4.79-3.88-8.67-8.67-8.67c-4.79,0-8.67,3.88-8.67,8.67H158.17z"/>
				<circle class="st1" cx="171.83" cy="43.25" r="2.82"/>
				<circle class="st1" cx="239.64" cy="46.78" r="2"/>
				<circle class="st1" cx="137.52" cy="46.4" r="2"/>
				<circle class="st1" cx="266.25" cy="44.52" r="2"/>
				<circle class="st1" cx="196.77" cy="44.66" r="0.87"/>
				<circle class="st1" cx="181.86" cy="49.25" r="0.87"/>
				<circle class="st1" cx="208.04" cy="41.62" r="0.87"/>
				<circle class="st1" cx="249.09" cy="49.97" r="0.87"/>
				<circle class="st1" cx="256.42" cy="42.94" r="0.87"/>
				<circle class="st1" cx="229.62" cy="50.73" r="2.93"/>
				<path class="st1" d="M273.41,13.76H133.45v24.79c2.14,1.73,4.86,2.77,7.82,2.77c4.32,0,8.13-2.2,10.36-5.54
					c2.23,3.34,6.04,5.54,10.36,5.54s8.13-2.2,10.36-5.54c2.23,3.34,6.04,5.54,10.36,5.54c4.32,0,8.13-2.2,10.36-5.54
					c2.23,3.34,6.04,5.54,10.36,5.54s8.13-2.2,10.36-5.54c2.23,3.34,6.04,5.54,10.36,5.54s8.13-2.2,10.36-5.54
					c2.23,3.34,6.04,5.54,10.36,5.54s8.13-2.2,10.36-5.54c2.23,3.34,6.04,5.54,10.36,5.54c2.96,0,5.67-1.03,7.8-2.75V13.76z"/>
				<path class="st2" d="M278.07,15.56c0-2.39-1.94-4.32-4.32-4.32h-140.6c-2.39,0-4.32,1.94-4.32,4.32v10.78h0
					c0,6.88,5.58,12.46,12.46,12.46c4.32,0,8.13-2.2,10.36-5.54c2.23,3.34,6.04,5.54,10.36,5.54c4.32,0,8.13-2.2,10.36-5.54
					c2.23,3.34,6.04,5.54,10.36,5.54s8.13-2.2,10.36-5.54c2.23,3.34,6.04,5.54,10.36,5.54s8.13-2.2,10.36-5.54
					c2.23,3.34,6.04,5.54,10.36,5.54s8.13-2.2,10.36-5.54c2.23,3.34,6.04,5.54,10.36,5.54c4.32,0,8.13-2.2,10.36-5.54
					c2.23,3.34,6.04,5.54,10.36,5.54c6.88,0,12.46-5.58,12.46-12.46h0V15.56z"/>
				<circle class="st3" cx="159.21" cy="25.7" r="2.82"/>
				<circle class="st3" cx="250.41" cy="15.74" r="2.82"/>
				<circle class="st3" cx="136.77" cy="30.43" r="1.2"/>
				<circle class="st3" cx="197.28" cy="17.9" r="1.2"/>
				<circle class="st3" cx="162.53" cy="21" r="1.2"/>
				<circle class="st3" cx="134.63" cy="20.55" r="1.2"/>
				<circle class="st3" cx="244.22" cy="32.07" r="1.2"/>
				<circle class="st3" cx="210.25" cy="20.33" r="1.2"/>
				<circle class="st3" cx="182.89" cy="32.73" r="1.2"/>
				<circle class="st3" cx="265.6" cy="17.01" r="1.2"/>
				<circle class="st3" cx="270.03" cy="29.85" r="1.2"/>
				<circle class="st3" cx="261.7" cy="35.16" r="1.2"/>
			</g>
		</g>
		<g>
			<g>
				<path class="st0" d="M329.9,54.02H200.91c-3.02,0-5.46-2.45-5.46-5.46V31.8c0-3.02,2.45-5.46,5.46-5.46H329.9
					c3.02,0,5.46,2.45,5.46,5.46v16.76C335.37,51.57,332.92,54.02,329.9,54.02z"/>
				<path class="st1" d="M220.14,53.98c0-4.79-3.88-8.67-8.67-8.67s-8.67,3.88-8.67,8.67H220.14z"/>
				<circle class="st1" cx="233.8" cy="43.25" r="2.82"/>
				<circle class="st1" cx="301.6" cy="46.78" r="2"/>
				<circle class="st1" cx="199.48" cy="46.4" r="2"/>
				<circle class="st1" cx="328.22" cy="44.52" r="2"/>
				<circle class="st1" cx="258.73" cy="44.66" r="0.87"/>
				<circle class="st1" cx="243.83" cy="49.25" r="0.87"/>
				<circle class="st1" cx="270.01" cy="41.62" r="0.87"/>
				<circle class="st1" cx="311.05" cy="49.97" r="0.87"/>
				<circle class="st1" cx="318.39" cy="42.94" r="0.87"/>
				<circle class="st1" cx="291.58" cy="50.73" r="2.93"/>
				<path class="st1" d="M335.38,13.76H195.42v24.79c2.14,1.73,4.86,2.77,7.82,2.77c4.32,0,8.13-2.2,10.36-5.54
					c2.23,3.34,6.04,5.54,10.36,5.54s8.13-2.2,10.36-5.54c2.23,3.34,6.04,5.54,10.36,5.54s8.13-2.2,10.36-5.54
					c2.23,3.34,6.04,5.54,10.36,5.54s8.13-2.2,10.36-5.54c2.23,3.34,6.04,5.54,10.36,5.54s8.13-2.2,10.36-5.54
					c2.23,3.34,6.04,5.54,10.36,5.54s8.13-2.2,10.36-5.54c2.23,3.34,6.04,5.54,10.36,5.54c2.96,0,5.67-1.03,7.8-2.75V13.76z"/>
				<path class="st2" d="M340.03,15.56c0-2.39-1.94-4.32-4.32-4.32h-140.6c-2.39,0-4.32,1.94-4.32,4.32v10.78h0
					c0,6.88,5.58,12.46,12.46,12.46c4.32,0,8.13-2.2,10.36-5.54c2.23,3.34,6.04,5.54,10.36,5.54s8.13-2.2,10.36-5.54
					c2.23,3.34,6.04,5.54,10.36,5.54s8.13-2.2,10.36-5.54c2.23,3.34,6.04,5.54,10.36,5.54s8.13-2.2,10.36-5.54
					c2.23,3.34,6.04,5.54,10.36,5.54s8.13-2.2,10.36-5.54c2.23,3.34,6.04,5.54,10.36,5.54c4.32,0,8.13-2.2,10.36-5.54
					c2.23,3.34,6.04,5.54,10.36,5.54c6.88,0,12.46-5.58,12.46-12.46h0V15.56z"/>
				<circle class="st3" cx="221.17" cy="25.7" r="2.82"/>
				<circle class="st3" cx="312.38" cy="15.74" r="2.82"/>
				<circle class="st3" cx="198.74" cy="30.43" r="1.2"/>
				<circle class="st3" cx="259.25" cy="17.9" r="1.2"/>
				<circle class="st3" cx="224.49" cy="21" r="1.2"/>
				<circle class="st3" cx="196.6" cy="20.55" r="1.2"/>
				<circle class="st3" cx="306.18" cy="32.07" r="1.2"/>
				<circle class="st3" cx="272.22" cy="20.33" r="1.2"/>
				<circle class="st3" cx="244.86" cy="32.73" r="1.2"/>
				<circle class="st3" cx="327.57" cy="17.01" r="1.2"/>
				<circle class="st3" cx="331.99" cy="29.85" r="1.2"/>
				<circle class="st3" cx="323.67" cy="35.16" r="1.2"/>
			</g>
		</g>
	</g>
</g>
</svg>
