<svg xmlns="http://www.w3.org/2000/svg" xmlns:xlink="http://www.w3.org/1999/xlink" viewBox="0 0 1920 900"><defs><clipPath id="b22f267a-399b-47e9-bdb5-35335e191639"><rect width="1920" height="900" style="fill:none"/></clipPath><clipPath id="abd2f8c5-b49b-4ba8-8ec1-401a8322a452"><path d="M122.69,416.77-124.72,845.29H425.93L178.53,416.77A32.23,32.23,0,0,0,122.69,416.77Z" style="fill:none"/></clipPath><clipPath id="a1f61fb7-f935-4a44-9412-953299870a9f"><rect x="-21.05" y="412.58" width="344.04" height="104.79" style="fill:none"/></clipPath><clipPath id="fa7b6fe1-07b5-4fe6-959d-88913af84d3c"><path d="M1800.25,394.87l-247.4,428.52H2103.5L1856.09,394.87A32.24,32.24,0,0,0,1800.25,394.87Z" style="fill:none"/></clipPath><clipPath id="add03f3f-2514-40ba-9b1b-0a94d2a21877"><rect x="1656.51" y="390.68" width="344.04" height="104.79" style="fill:none"/></clipPath><clipPath id="a30a3d2c-9d31-4e5e-8601-1fbcaf2777e6"><path d="M769.69,408.14,522.29,836.66h550.65L825.53,408.14A32.24,32.24,0,0,0,769.69,408.14Z" style="fill:none"/></clipPath><clipPath id="aa2ea5c3-7ffb-49a8-a5f2-f93bffaa8d28"><rect x="625.95" y="403.95" width="344.04" height="104.79" style="fill:none"/></clipPath><clipPath id="b796b3cc-d3d6-48d6-96b5-673a82f33c2e"><path d="M1503.78,245,1166.64,829h730.12L1559.61,245C1547.21,223.51,1516.19,223.51,1503.78,245Z" style="fill:none"/></clipPath><clipPath id="f3556f7d-41d9-4d62-99a5-09c720ffcc7c"><rect x="1274.09" y="255.21" width="456.18" height="138.95" style="fill:none"/></clipPath><clipPath id="bef0ea7b-76df-411f-bf70-dc42dc71c024"><path d="M440.55,495.73,193.15,924.25H743.79L496.39,495.73A32.24,32.24,0,0,0,440.55,495.73Z" style="fill:none"/></clipPath><clipPath id="b52f69ba-f5e1-4189-8881-d706baaae364"><rect x="266.81" y="491.54" width="344.04" height="104.79" style="fill:none"/></clipPath><clipPath id="a00686fc-cdce-4640-8dd0-c981eba4d4a6"><rect x="-13.38" y="813.58" width="1938.3" height="70.55" style="fill:none"/></clipPath></defs><g style="isolation:isolate"><g id="b432630b-b09e-4d1a-8c36-d698d433a00e" data-name="Layer 14"><g style="clip-path:url(#b22f267a-399b-47e9-bdb5-35335e191639)"><rect x="256.05" y="176.2" width="1400" height="725" style="fill:#0018f4;opacity:0.2"/><g style="opacity:0.2"><rect x="356.05" y="101.2" width="1200" height="800" style="fill:#f70000"/></g><rect x="-3.95" y="1.2" width="1925.87" height="900" style="fill:#70c3eb"/><circle cx="925.01" cy="825.14" r="43.69" style="fill:#01594c"/><circle cx="1348.38" cy="827.95" r="43.69" style="fill:#01594c"/><circle cx="1408.86" cy="832.17" r="43.69" style="fill:#01594c"/><circle cx="1101.71" cy="801.42" r="53.41" style="fill:#235387"/><circle cx="1492.5" cy="830.73" r="63.03" style="fill:#01594c"/><circle cx="1183.91" cy="816.11" r="51.22" style="fill:#235387"/><circle cx="1276.74" cy="828.77" r="51.22" style="fill:#01594c"/><circle cx="1012.24" cy="818.13" r="52.15" style="fill:#235387"/><g style="opacity:0.14"><circle cx="914.43" cy="762.38" r="5.01" style="fill:#8ceab8"/><circle cx="1084.91" cy="728.44" r="5.26" style="fill:#8ceab8"/><circle cx="1030.32" cy="736.01" r="5.26" style="fill:#8ceab8"/><circle cx="960.09" cy="773.14" r="5.26" style="fill:#8ceab8"/><circle cx="983.97" cy="791.46" r="5.26" style="fill:#8ceab8"/><circle cx="937.18" cy="796.71" r="5.26" style="fill:#8ceab8"/><circle cx="1086.11" cy="778.35" r="5.26" style="fill:#8ceab8"/><circle cx="1057.47" cy="765.01" r="5.26" style="fill:#8ceab8"/><circle cx="1025.07" cy="780.68" r="5.26" style="fill:#8ceab8"/><circle cx="1123.38" cy="770.26" r="5.26" style="fill:#8ceab8"/><circle cx="1157.01" cy="756.61" r="5.26" style="fill:#8ceab8"/><circle cx="1239.63" cy="770.26" r="5.26" style="fill:#8ceab8"/><circle cx="1212.31" cy="792.93" r="5.26" style="fill:#8ceab8"/><circle cx="1146.52" cy="798.04" r="5.26" style="fill:#8ceab8"/><circle cx="1309.69" cy="791.46" r="5.26" style="fill:#8ceab8"/><circle cx="1265.73" cy="803.3" r="5.26" style="fill:#8ceab8"/></g><circle cx="1350.15" cy="791.66" r="5.01" style="fill:#8ceab8;opacity:0.21"/><circle cx="1331.65" cy="800.67" r="5.01" style="fill:#8ceab8;opacity:0.21"/><circle cx="1370.33" cy="801.01" r="5.01" style="fill:#8ceab8;opacity:0.21"/><path d="M122.69,416.77-124.72,845.29H425.93L178.53,416.77A32.23,32.23,0,0,0,122.69,416.77Z" style="fill:#7c6c7b"/><g style="opacity:0.77"><g style="clip-path:url(#abd2f8c5-b49b-4ba8-8ec1-401a8322a452)"><g style="clip-path:url(#a1f61fb7-f935-4a44-9412-953299870a9f)"><g id="ac33b0b3-9404-4dc8-b6ce-82ae806e3cdf" data-name="&lt;Grid Repeat&gt;"><path d="M-8.11,412.58h6.19A12.94,12.94,0,0,1,11,425.52v87a0,0,0,0,1,0,0H-21.05a0,0,0,0,1,0,0v-87A12.94,12.94,0,0,1-8.11,412.58Z" transform="translate(-10.03 925.06) rotate(180)" style="fill:#ebc2a4"/></g><g id="aaa3a207-6284-4e5c-bcd7-1b23d394990c" data-name="&lt;Grid Repeat&gt;"><path d="M23.17,412.58h6.19A12.94,12.94,0,0,1,42.3,425.52v87a0,0,0,0,1,0,0H10.23a0,0,0,0,1,0,0v-87A12.94,12.94,0,0,1,23.17,412.58Z" transform="translate(52.52 925.06) rotate(180)" style="fill:#ebc2a4"/></g><g id="bbd83c42-eb17-49da-a56c-e09dd0b549c6" data-name="&lt;Grid Repeat&gt;"><path d="M54.45,412.58h6.19a12.94,12.94,0,0,1,12.94,12.94v87a0,0,0,0,1,0,0H41.51a0,0,0,0,1,0,0v-87A12.94,12.94,0,0,1,54.45,412.58Z" transform="translate(115.08 925.06) rotate(180)" style="fill:#ebc2a4"/></g><g id="e933b835-8c4e-493e-91c7-8f6f09585030" data-name="&lt;Grid Repeat&gt;"><path d="M88.82,412.58h0a16,16,0,0,1,16,16v80.78a3.09,3.09,0,0,1-3.09,3.09H75.88a3.09,3.09,0,0,1-3.09-3.09V428.61a16,16,0,0,1,16-16Z" transform="translate(177.64 925.06) rotate(180)" style="fill:#ebc2a4"/></g><g id="bb2673b2-d527-4ec5-9359-b313045201a3" data-name="&lt;Grid Repeat&gt;"><path d="M120.1,412.58h0a16,16,0,0,1,16,16v80.78a3.09,3.09,0,0,1-3.09,3.09H107.16a3.09,3.09,0,0,1-3.09-3.09V428.61a16,16,0,0,1,16-16Z" transform="translate(240.2 925.06) rotate(180)" style="fill:#ebc2a4"/></g><g id="b8f79054-c2e1-49b4-8dde-4565fa5a21b1" data-name="&lt;Grid Repeat&gt;"><path d="M151.38,412.58h0a16,16,0,0,1,16,16v80.78a3.09,3.09,0,0,1-3.09,3.09H138.44a3.09,3.09,0,0,1-3.09-3.09V428.61a16,16,0,0,1,16-16Z" transform="translate(302.75 925.06) rotate(180)" style="fill:#ebc2a4"/></g><g id="ba695cc3-68f8-4683-81bf-6118081f7aaf" data-name="&lt;Grid Repeat&gt;"><path d="M182.66,412.58h0a16,16,0,0,1,16,16v80.78a3.09,3.09,0,0,1-3.09,3.09H169.72a3.09,3.09,0,0,1-3.09-3.09V428.61A16,16,0,0,1,182.66,412.58Z" transform="translate(365.31 925.06) rotate(180)" style="fill:#ebc2a4"/></g><g id="ae2a4cdf-1220-4974-8fd2-0a749da5db99" data-name="&lt;Grid Repeat&gt;"><path d="M213.94,412.58h0a16,16,0,0,1,16,16v80.78a3.09,3.09,0,0,1-3.09,3.09H201a3.09,3.09,0,0,1-3.09-3.09V428.61a16,16,0,0,1,16-16Z" transform="translate(427.87 925.06) rotate(180)" style="fill:#ebc2a4"/></g><g id="ec1b910d-aa54-4a7f-8511-7789e43b606f" data-name="&lt;Grid Repeat&gt;"><path d="M242.12,412.58h6.19a12.94,12.94,0,0,1,12.94,12.94v87a0,0,0,0,1,0,0H229.18a0,0,0,0,1,0,0v-87A12.94,12.94,0,0,1,242.12,412.58Z" transform="translate(490.43 925.06) rotate(180)" style="fill:#ebc2a4"/></g><g id="ba14c814-13e3-4bdb-8028-28b3e1bc95a7" data-name="&lt;Grid Repeat&gt;"><path d="M273.4,412.58h6.19a12.94,12.94,0,0,1,12.94,12.94v87a0,0,0,0,1,0,0H260.46a0,0,0,0,1,0,0v-87a12.94,12.94,0,0,1,12.94-12.94Z" transform="translate(552.99 925.06) rotate(180)" style="fill:#ebc2a4"/></g><g id="ad4375ab-aa0b-4d4b-978c-52e9fdf2db06" data-name="&lt;Grid Repeat&gt;"><path d="M304.68,412.58h6.19a12.94,12.94,0,0,1,12.94,12.94v87a0,0,0,0,1,0,0H291.74a0,0,0,0,1,0,0v-87a12.94,12.94,0,0,1,12.94-12.94Z" transform="translate(615.54 925.06) rotate(180)" style="fill:#ebc2a4"/></g></g><rect x="-21.05" y="249.15" width="344.12" height="176.38" style="fill:#ebc2a4"/></g></g><g style="opacity:0.81"><path d="M1800.25,394.87l-247.4,428.52H2103.5L1856.09,394.87A32.24,32.24,0,0,0,1800.25,394.87Z" style="fill:#845e6f"/><g style="clip-path:url(#fa7b6fe1-07b5-4fe6-959d-88913af84d3c)"><g style="clip-path:url(#add03f3f-2514-40ba-9b1b-0a94d2a21877)"><g id="edf851c4-fab5-4b90-915b-f368f9b27ab5" data-name="&lt;Grid Repeat&gt;"><path d="M1638.17,390.68h6.19a12.94,12.94,0,0,1,12.94,12.94v87a0,0,0,0,1,0,0h-32.07a0,0,0,0,1,0,0v-87a12.94,12.94,0,0,1,12.94-12.94Z" transform="translate(3282.53 881.26) rotate(180)" style="fill:#ebc2a4"/></g><g id="a05ab04f-38ee-4e7d-93b8-5257d6eee169" data-name="&lt;Grid Repeat&gt;"><path d="M1669.45,390.68h6.19a12.94,12.94,0,0,1,12.94,12.94v87a0,0,0,0,1,0,0h-32.07a0,0,0,0,1,0,0v-87A12.94,12.94,0,0,1,1669.45,390.68Z" transform="translate(3345.09 881.26) rotate(180)" style="fill:#ebc2a4"/></g><g id="aa437fb7-6384-4fec-895c-64d27b547943" data-name="&lt;Grid Repeat&gt;"><path d="M1700.73,390.68h6.19a12.94,12.94,0,0,1,12.94,12.94v87a0,0,0,0,1,0,0h-32.07a0,0,0,0,1,0,0v-87A12.94,12.94,0,0,1,1700.73,390.68Z" transform="translate(3407.65 881.26) rotate(180)" style="fill:#ebc2a4"/></g><g id="bfe4bad8-84d3-42d4-8632-ded05b80b939" data-name="&lt;Grid Repeat&gt;"><path d="M1732,390.68h6.19a12.94,12.94,0,0,1,12.94,12.94v87a0,0,0,0,1,0,0h-32.07a0,0,0,0,1,0,0v-87A12.94,12.94,0,0,1,1732,390.68Z" transform="translate(3470.21 881.26) rotate(180)" style="fill:#ebc2a4"/></g><g id="eb50a084-8862-4916-a124-1f03f666954f" data-name="&lt;Grid Repeat&gt;"><path d="M1766.38,390.68h0a16,16,0,0,1,16,16v80.78a3.09,3.09,0,0,1-3.09,3.09h-25.88a3.09,3.09,0,0,1-3.09-3.09V406.71a16,16,0,0,1,16-16Z" transform="translate(3532.77 881.26) rotate(180)" style="fill:#ebc2a4"/></g><g id="ad634580-2868-432d-b1d9-913c37fa601c" data-name="&lt;Grid Repeat&gt;"><path d="M1797.66,390.68h0a16,16,0,0,1,16,16v80.78a3.09,3.09,0,0,1-3.09,3.09h-25.88a3.09,3.09,0,0,1-3.09-3.09V406.71a16,16,0,0,1,16-16Z" transform="translate(3595.32 881.26) rotate(180)" style="fill:#ebc2a4"/></g><g id="b0f549a0-a710-42c2-a0aa-407e7db3f219" data-name="&lt;Grid Repeat&gt;"><path d="M1828.94,390.68h0a16,16,0,0,1,16,16v80.78a3.09,3.09,0,0,1-3.09,3.09H1816a3.09,3.09,0,0,1-3.09-3.09V406.71a16,16,0,0,1,16-16Z" transform="translate(3657.88 881.26) rotate(180)" style="fill:#ebc2a4"/></g><g id="e2810021-04bf-4353-8063-16fbc55952ea" data-name="&lt;Grid Repeat&gt;"><path d="M1860.22,390.68h0a16,16,0,0,1,16,16v80.78a3.09,3.09,0,0,1-3.09,3.09h-25.88a3.09,3.09,0,0,1-3.09-3.09V406.71A16,16,0,0,1,1860.22,390.68Z" transform="translate(3720.44 881.26) rotate(180)" style="fill:#ebc2a4"/></g><g id="f807e2b3-a160-4d2d-864e-938b6a024c69" data-name="&lt;Grid Repeat&gt;"><path d="M1891.5,390.68h0a16,16,0,0,1,16,16v80.78a3.09,3.09,0,0,1-3.09,3.09h-25.88a3.09,3.09,0,0,1-3.09-3.09V406.71A16,16,0,0,1,1891.5,390.68Z" transform="translate(3783 881.26) rotate(180)" style="fill:#ebc2a4"/></g><g id="f14cc6ff-760f-48ad-bec2-b9e7e386e8dc" data-name="&lt;Grid Repeat&gt;"><path d="M1919.68,390.68h6.19a12.94,12.94,0,0,1,12.94,12.94v87a0,0,0,0,1,0,0h-32.07a0,0,0,0,1,0,0v-87A12.94,12.94,0,0,1,1919.68,390.68Z" transform="translate(3845.55 881.26) rotate(180)" style="fill:#ebc2a4"/></g></g><rect x="1656.51" y="227.25" width="344.12" height="176.38" style="fill:#ebc2a4"/></g></g><path d="M769.69,408.14,522.29,836.66h550.65L825.53,408.14A32.24,32.24,0,0,0,769.69,408.14Z" style="fill:#7c6c7b"/><g style="opacity:0.77"><g style="clip-path:url(#a30a3d2c-9d31-4e5e-8601-1fbcaf2777e6)"><g style="clip-path:url(#aa2ea5c3-7ffb-49a8-a5f2-f93bffaa8d28)"><g id="f9ed6950-df38-41f0-aa2c-f46e18e94fcf" data-name="&lt;Grid Repeat&gt;"><path d="M607.61,403.95h6.19a12.94,12.94,0,0,1,12.94,12.94v87a0,0,0,0,1,0,0H594.67a0,0,0,0,1,0,0v-87a12.94,12.94,0,0,1,12.94-12.94Z" transform="translate(1221.41 907.8) rotate(180)" style="fill:#ebc2a4"/></g><g id="b3d8ba31-d450-4615-b052-a1d4b7cde7a8" data-name="&lt;Grid Repeat&gt;"><path d="M638.89,403.95h6.19A12.94,12.94,0,0,1,658,416.89v87a0,0,0,0,1,0,0H626a0,0,0,0,1,0,0v-87A12.94,12.94,0,0,1,638.89,403.95Z" transform="translate(1283.97 907.8) rotate(180)" style="fill:#ebc2a4"/></g><g id="b612bfdf-1365-4816-94db-0693844e4b3f" data-name="&lt;Grid Repeat&gt;"><path d="M673.27,403.95h0a16,16,0,0,1,16,16v83.87a0,0,0,0,1,0,0H657.23a0,0,0,0,1,0,0V420A16,16,0,0,1,673.27,403.95Z" transform="translate(1346.53 907.8) rotate(180)" style="fill:#ebc2a4"/></g><g id="e0d37293-70cb-46d4-83ad-996eb5137107" data-name="&lt;Grid Repeat&gt;"><path d="M701.45,403.95h6.19a12.94,12.94,0,0,1,12.94,12.94v87a0,0,0,0,1,0,0H688.51a0,0,0,0,1,0,0v-87A12.94,12.94,0,0,1,701.45,403.95Z" transform="translate(1409.09 907.8) rotate(180)" style="fill:#ebc2a4"/></g><g id="fcc576f4-0ad9-4c69-9f85-875891d1f4c0" data-name="&lt;Grid Repeat&gt;"><path d="M735.82,403.95h0a16,16,0,0,1,16,16v80.78a3.09,3.09,0,0,1-3.09,3.09H722.88a3.09,3.09,0,0,1-3.09-3.09V420a16,16,0,0,1,16-16Z" transform="translate(1471.65 907.8) rotate(180)" style="fill:#ebc2a4"/></g><g id="a75b2f71-c388-4484-b41e-195cad3f2372" data-name="&lt;Grid Repeat&gt;"><path d="M767.1,403.95h0a16,16,0,0,1,16,16v80.78a3.09,3.09,0,0,1-3.09,3.09H754.16a3.09,3.09,0,0,1-3.09-3.09V420a16,16,0,0,1,16-16Z" transform="translate(1534.2 907.8) rotate(180)" style="fill:#ebc2a4"/></g><g id="ac8f57cf-7775-4b81-bc0f-6bbba01c8afa" data-name="&lt;Grid Repeat&gt;"><path d="M798.38,403.95h0a16,16,0,0,1,16,16v83.87a0,0,0,0,1,0,0H782.35a0,0,0,0,1,0,0V420A16,16,0,0,1,798.38,403.95Z" transform="translate(1596.76 907.8) rotate(180)" style="fill:#ebc2a4"/></g><g id="b666113c-4594-4730-8ddf-4b162364be00" data-name="&lt;Grid Repeat&gt;"><path d="M829.66,403.95h0a16,16,0,0,1,16,16v80.78a3.09,3.09,0,0,1-3.09,3.09H816.72a3.09,3.09,0,0,1-3.09-3.09V420A16,16,0,0,1,829.66,403.95Z" transform="translate(1659.32 907.8) rotate(180)" style="fill:#ebc2a4"/></g><g id="b17d8422-04a3-4899-ac17-575656460910" data-name="&lt;Grid Repeat&gt;"><path d="M860.94,403.95h0a16,16,0,0,1,16,16v80.78a3.09,3.09,0,0,1-3.09,3.09H848a3.09,3.09,0,0,1-3.09-3.09V420a16,16,0,0,1,16-16Z" transform="translate(1721.88 907.8) rotate(180)" style="fill:#ebc2a4"/></g><g id="f708ca75-74a1-4ad8-afb5-1fe2921c5fb6" data-name="&lt;Grid Repeat&gt;"><path d="M889.12,403.95h6.19a12.94,12.94,0,0,1,12.94,12.94v87a0,0,0,0,1,0,0H876.18a0,0,0,0,1,0,0v-87A12.94,12.94,0,0,1,889.12,403.95Z" transform="translate(1784.43 907.8) rotate(180)" style="fill:#ebc2a4"/></g><g id="b594e16a-bd74-4b13-9565-3ca709b37761" data-name="&lt;Grid Repeat&gt;"><path d="M920.4,403.95h6.19a12.94,12.94,0,0,1,12.94,12.94v87a0,0,0,0,1,0,0H907.46a0,0,0,0,1,0,0v-87A12.94,12.94,0,0,1,920.4,403.95Z" transform="translate(1846.99 907.8) rotate(180)" style="fill:#ebc2a4"/></g><g id="a84dfaae-75d3-40ab-b28c-1c4ece1ad11a" data-name="&lt;Grid Repeat&gt;"><path d="M951.68,403.95h6.19a12.94,12.94,0,0,1,12.94,12.94v87a0,0,0,0,1,0,0H938.74a0,0,0,0,1,0,0v-87A12.94,12.94,0,0,1,951.68,403.95Z" transform="translate(1909.55 907.8) rotate(180)" style="fill:#ebc2a4"/></g></g><rect x="625.95" y="240.52" width="344.12" height="176.38" style="fill:#ebc2a4"/></g></g><path d="M1503.78,245,1166.64,829h730.12L1559.61,245C1547.21,223.51,1516.19,223.51,1503.78,245Z" style="fill:#ae8595"/><g style="clip-path:url(#b796b3cc-d3d6-48d6-96b5-673a82f33c2e)"><g style="clip-path:url(#f3556f7d-41d9-4d62-99a5-09c720ffcc7c)"><g id="b7ec61cc-7397-46ec-958d-82342399591a" data-name="&lt;Grid Repeat&gt;"><path d="M1253.87,255.21h0a21.26,21.26,0,0,1,21.26,21.26V379.36a8.32,8.32,0,0,1-8.32,8.32h-25.88a8.32,8.32,0,0,1-8.32-8.32V276.47a21.26,21.26,0,0,1,21.26-21.26Z" transform="translate(2507.75 642.89) rotate(180)" style="fill:#ebc2a4"/></g><g id="b46a4405-bc00-475d-9c99-52995f8db349" data-name="&lt;Grid Repeat&gt;"><path d="M1295.35,255.21h0a21.26,21.26,0,0,1,21.26,21.26V379.36a8.32,8.32,0,0,1-8.32,8.32h-25.88a8.32,8.32,0,0,1-8.32-8.32V276.47a21.26,21.26,0,0,1,21.26-21.26Z" transform="translate(2590.7 642.89) rotate(180)" style="fill:#ebc2a4"/></g><g id="b42eb847-1e5c-48af-93f8-ef9baa1ed79d" data-name="&lt;Grid Repeat&gt;"><path d="M1336.82,255.21h0a21.26,21.26,0,0,1,21.26,21.26V379.36a8.32,8.32,0,0,1-8.32,8.32h-25.88a8.32,8.32,0,0,1-8.32-8.32V276.47a21.26,21.26,0,0,1,21.26-21.26Z" transform="translate(2673.64 642.89) rotate(180)" style="fill:#ebc2a4"/></g><g id="ae3e0798-6525-4568-bf5a-94af5fd51822" data-name="&lt;Grid Repeat&gt;"><path d="M1378.3,255.21h0a21.26,21.26,0,0,1,21.26,21.26V379.36a8.32,8.32,0,0,1-8.32,8.32h-25.88a8.32,8.32,0,0,1-8.32-8.32V276.47a21.26,21.26,0,0,1,21.26-21.26Z" transform="translate(2756.59 642.89) rotate(180)" style="fill:#ebc2a4"/></g><g id="abc85341-30a8-4551-ace3-798492a10f72" data-name="&lt;Grid Repeat&gt;"><path d="M1419.77,255.21h0A21.26,21.26,0,0,1,1441,276.47V379.36a8.32,8.32,0,0,1-8.32,8.32h-25.88a8.32,8.32,0,0,1-8.32-8.32V276.47a21.26,21.26,0,0,1,21.26-21.26Z" transform="translate(2839.54 642.89) rotate(180)" style="fill:#ebc2a4"/></g><g id="a65c61eb-6ab0-41db-965b-5473a283fc6b" data-name="&lt;Grid Repeat&gt;"><path d="M1461.24,255.21h0a21.26,21.26,0,0,1,21.26,21.26V379.36a8.32,8.32,0,0,1-8.32,8.32H1448.3a8.32,8.32,0,0,1-8.32-8.32V276.47a21.26,21.26,0,0,1,21.26-21.26Z" transform="translate(2922.49 642.89) rotate(180)" style="fill:#ebc2a4"/></g><g id="bf2f9455-6208-49c0-a368-0660a94dab97" data-name="&lt;Grid Repeat&gt;"><path d="M1502.72,255.21h0A21.26,21.26,0,0,1,1524,276.47V379.36a8.32,8.32,0,0,1-8.32,8.32h-25.88a8.32,8.32,0,0,1-8.32-8.32V276.47a21.26,21.26,0,0,1,21.26-21.26Z" transform="translate(3005.43 642.89) rotate(180)" style="fill:#ebc2a4"/></g><g id="a13e6f72-69a2-4406-98aa-b5e948c21afa" data-name="&lt;Grid Repeat&gt;"><path d="M1544.19,255.21h0a21.26,21.26,0,0,1,21.26,21.26V379.36a8.32,8.32,0,0,1-8.32,8.32h-25.88a8.32,8.32,0,0,1-8.32-8.32V276.47a21.26,21.26,0,0,1,21.26-21.26Z" transform="translate(3088.38 642.89) rotate(180)" style="fill:#ebc2a4"/></g><g id="e61002f7-c66d-4102-99c0-942a4c3acc27" data-name="&lt;Grid Repeat&gt;"><path d="M1585.66,255.21h0a21.26,21.26,0,0,1,21.26,21.26V379.36a8.32,8.32,0,0,1-8.32,8.32h-25.88a8.32,8.32,0,0,1-8.32-8.32V276.47a21.26,21.26,0,0,1,21.26-21.26Z" transform="translate(3171.33 642.89) rotate(180)" style="fill:#ebc2a4"/></g><g id="e25908bc-5c81-4631-bc03-5b5f5d85936d" data-name="&lt;Grid Repeat&gt;"><path d="M1627.14,255.21h0a21.26,21.26,0,0,1,21.26,21.26V379.36a8.32,8.32,0,0,1-8.32,8.32H1614.2a8.32,8.32,0,0,1-8.32-8.32V276.47a21.26,21.26,0,0,1,21.26-21.26Z" transform="translate(3254.28 642.89) rotate(180)" style="fill:#ebc2a4"/></g><g id="b0b17ee8-145c-4b5b-b6f6-6b0d9600d8bf" data-name="&lt;Grid Repeat&gt;"><path d="M1668.61,255.21h0a21.26,21.26,0,0,1,21.26,21.26V379.36a8.32,8.32,0,0,1-8.32,8.32h-25.88a8.32,8.32,0,0,1-8.32-8.32V276.47a21.26,21.26,0,0,1,21.26-21.26Z" transform="translate(3337.22 642.89) rotate(180)" style="fill:#ebc2a4"/></g><g id="f63ae6a3-0ea8-47c4-8d3c-81ee523c9ada" data-name="&lt;Grid Repeat&gt;"><path d="M1710.09,255.21h0a21.26,21.26,0,0,1,21.26,21.26V379.36a8.32,8.32,0,0,1-8.32,8.32h-25.88a8.32,8.32,0,0,1-8.32-8.32V276.47a21.26,21.26,0,0,1,21.26-21.26Z" transform="translate(3420.17 642.89) rotate(180)" style="fill:#ebc2a4"/></g></g><rect x="1304.09" y="38.52" width="456.28" height="233.86" style="fill:#ebc2a4"/></g><path d="M440.55,495.73,193.15,924.25H743.79L496.39,495.73A32.24,32.24,0,0,0,440.55,495.73Z" style="fill:#ae8595"/><g style="clip-path:url(#bef0ea7b-76df-411f-bf70-dc42dc71c024)"><g style="clip-path:url(#b52f69ba-f5e1-4189-8881-d706baaae364)"><g id="bfd3d576-c551-459a-9517-07ec42b82990" data-name="&lt;Grid Repeat&gt;"><path d="M251.57,491.54h0a16,16,0,0,1,16,16v80.78a3.09,3.09,0,0,1-3.09,3.09H238.63a3.09,3.09,0,0,1-3.09-3.09V507.58a16,16,0,0,1,16-16Z" transform="translate(503.13 1082.99) rotate(180)" style="fill:#ebc2a4"/></g><g id="a096ac48-b0c4-4d85-950f-3145a987be15" data-name="&lt;Grid Repeat&gt;"><path d="M282.84,491.54h0a16,16,0,0,1,16,16v80.78a3.09,3.09,0,0,1-3.09,3.09H269.9a3.09,3.09,0,0,1-3.09-3.09V507.58a16,16,0,0,1,16-16Z" transform="translate(565.69 1082.99) rotate(180)" style="fill:#ebc2a4"/></g><g id="aba0ddc9-8ac5-466b-981b-669707729476" data-name="&lt;Grid Repeat&gt;"><path d="M314.12,491.54h0a16,16,0,0,1,16,16v80.78a3.09,3.09,0,0,1-3.09,3.09H301.18a3.09,3.09,0,0,1-3.09-3.09V507.58a16,16,0,0,1,16-16Z" transform="translate(628.25 1082.99) rotate(180)" style="fill:#ebc2a4"/></g><g id="facf37f1-421a-414f-adb7-b0809f01db4f" data-name="&lt;Grid Repeat&gt;"><path d="M345.4,491.54h0a16,16,0,0,1,16,16v80.78a3.09,3.09,0,0,1-3.09,3.09H332.46a3.09,3.09,0,0,1-3.09-3.09V507.58a16,16,0,0,1,16-16Z" transform="translate(690.8 1082.99) rotate(180)" style="fill:#ebc2a4"/></g><g id="b9947a37-a828-43b0-b0aa-f21128d2c137" data-name="&lt;Grid Repeat&gt;"><path d="M376.68,491.54h0a16,16,0,0,1,16,16v80.78a3.09,3.09,0,0,1-3.09,3.09H363.74a3.09,3.09,0,0,1-3.09-3.09V507.58a16,16,0,0,1,16-16Z" transform="translate(753.36 1082.99) rotate(180)" style="fill:#ebc2a4"/></g><g id="e03e42f2-dca2-425e-9308-b0120c6c0b28" data-name="&lt;Grid Repeat&gt;"><path d="M408,491.54h0a16,16,0,0,1,16,16v80.78a3.09,3.09,0,0,1-3.09,3.09H395a3.09,3.09,0,0,1-3.09-3.09V507.58a16,16,0,0,1,16-16Z" transform="translate(815.92 1082.99) rotate(180)" style="fill:#ebc2a4"/></g><g id="bdbf04fc-b54c-47e2-a777-2b7b3e431fa6" data-name="&lt;Grid Repeat&gt;"><path d="M439.24,491.54h0a16,16,0,0,1,16,16v80.78a3.09,3.09,0,0,1-3.09,3.09H426.3a3.09,3.09,0,0,1-3.09-3.09V507.58a16,16,0,0,1,16-16Z" transform="translate(878.48 1082.99) rotate(180)" style="fill:#ebc2a4"/></g><g id="ab0104a2-d88a-46ac-b965-54bb0632b300" data-name="&lt;Grid Repeat&gt;"><path d="M470.52,491.54h0a16,16,0,0,1,16,16v80.78a3.09,3.09,0,0,1-3.09,3.09H457.58a3.09,3.09,0,0,1-3.09-3.09V507.58a16,16,0,0,1,16-16Z" transform="translate(941.03 1082.99) rotate(180)" style="fill:#ebc2a4"/></g><g id="e180ccb9-2890-4c9d-bdcb-efd247d556bf" data-name="&lt;Grid Repeat&gt;"><path d="M501.8,491.54h0a16,16,0,0,1,16,16v80.78a3.09,3.09,0,0,1-3.09,3.09H488.86a3.09,3.09,0,0,1-3.09-3.09V507.58a16,16,0,0,1,16-16Z" transform="translate(1003.59 1082.99) rotate(180)" style="fill:#ebc2a4"/></g><g id="aaf05839-fa06-43e0-ba0d-a606f4a5496a" data-name="&lt;Grid Repeat&gt;"><path d="M533.08,491.54h0a16,16,0,0,1,16,16v80.78a3.09,3.09,0,0,1-3.09,3.09H520.14a3.09,3.09,0,0,1-3.09-3.09V507.58a16,16,0,0,1,16-16Z" transform="translate(1066.15 1082.99) rotate(180)" style="fill:#ebc2a4"/></g><g id="f3696b87-368b-417d-940a-5bcd9d436bbc" data-name="&lt;Grid Repeat&gt;"><path d="M564.35,491.54h0a16,16,0,0,1,16,16v80.78a3.09,3.09,0,0,1-3.09,3.09H551.41a3.09,3.09,0,0,1-3.09-3.09V507.58A16,16,0,0,1,564.35,491.54Z" transform="translate(1128.71 1082.99) rotate(180)" style="fill:#ebc2a4"/></g><g id="a4eb7773-0cb8-4c4b-b07d-4a8b4fe25b77" data-name="&lt;Grid Repeat&gt;"><path d="M595.63,491.54h0a16,16,0,0,1,16,16v80.78a3.09,3.09,0,0,1-3.09,3.09H582.69a3.09,3.09,0,0,1-3.09-3.09V507.58A16,16,0,0,1,595.63,491.54Z" transform="translate(1191.27 1082.99) rotate(180)" style="fill:#ebc2a4"/></g></g><rect x="296.81" y="328.12" width="344.12" height="176.38" style="fill:#ebc2a4"/></g><rect x="1487.84" y="752.15" width="8.34" height="114.18" style="fill:#fa777d"/><path d="M1530.63,754.57c-3.74-3.26-5.55-3.5-16-10.39-6.21-4.12-9.53-11.27-11.19-16.35,2.15,3.17,6.06,7.24,11.89,8,.95.12,9.59,1.05,13-5,2.39-4.23,1-9.69-1.67-12.68-1.88-2.1-3.78-2.78-8.68-4.34a14.8,14.8,0,0,1-2.89-1c-1.87-1.18-9.18-6.22-12.58-15.05a13.59,13.59,0,0,0,8.8,5.27c.77.09,7.81.85,10.6-4.08,2-3.45.81-7.9-1.36-10.33-1.53-1.72-3.08-2.26-7.07-3.54,0,0-3.43-.66-8.7-4.8-9.93-7.8-12-19.44-12.56-23.37v-.28a.78.78,0,0,1,0,.14.59.59,0,0,0,0-.14v.28c-.51,3.93-2.62,15.57-12.55,23.37-5.28,4.14-8.7,4.8-8.7,4.8-4,1.28-5.54,1.82-7.07,3.54-2.18,2.43-3.32,6.88-1.36,10.33,2.79,4.93,9.82,4.17,10.6,4.08a13.07,13.07,0,0,0,7.9-4.25,32.89,32.89,0,0,1-12.81,14.22,13.62,13.62,0,0,1-2.45.84c-4.9,1.56-6.8,2.24-8.68,4.34-2.67,3-4.07,8.45-1.67,12.68,3.43,6.06,12.06,5.13,13,5,6.12-.75,10.13-5.21,12.2-8.43-1.61,5.1-4.93,12.57-11.35,16.82-10.39,6.89-12.2,7.13-15.94,10.39s-8.34,11.24-1.58,18.73,27.73,7.13,40.2-17.69c12.46,24.82,33.46,25.15,40.19,17.69S1534.38,757.83,1530.63,754.57Z" style="fill:#2f3146"/><rect x="1421.09" y="775.25" width="5.56" height="76.12" style="fill:#fa777d"/><path d="M1449.61,776.86c-2.49-2.18-3.7-2.34-10.63-6.93-4.14-2.75-6.36-7.51-7.46-10.9a11.58,11.58,0,0,0,7.93,5.31c.63.08,6.39.7,8.67-3.34a7.66,7.66,0,0,0-1.11-8.46c-1.25-1.4-2.52-1.85-5.78-2.89a9.4,9.4,0,0,1-1.93-.69,21.86,21.86,0,0,1-8.39-10,9,9,0,0,0,5.87,3.51c.51.06,5.2.57,7.06-2.72a6.22,6.22,0,0,0-.9-6.89c-1-1.14-2-1.5-4.71-2.35,0,0-2.29-.44-5.8-3.2-6.63-5.2-8-13-8.38-15.58v0c-.35,2.62-1.75,10.38-8.38,15.58-3.51,2.76-5.79,3.2-5.79,3.2-2.67.85-3.7,1.21-4.72,2.35a6.22,6.22,0,0,0-.9,6.89c1.86,3.29,6.55,2.78,7.07,2.72a8.68,8.68,0,0,0,5.26-2.83,22,22,0,0,1-8.54,9.48,9.64,9.64,0,0,1-1.63.56c-3.27,1-4.53,1.49-5.79,2.89a7.66,7.66,0,0,0-1.11,8.46c2.28,4,8,3.42,8.68,3.34,4.08-.51,6.75-3.48,8.13-5.62-1.07,3.4-3.29,8.38-7.56,11.21-6.93,4.59-8.14,4.75-10.64,6.93s-5.55,7.49-1,12.48,18.48,4.76,26.79-11.79c8.32,16.55,22.31,16.77,26.8,11.79S1452.11,779,1449.61,776.86Z" style="fill:#2f3146"/><g style="clip-path:url(#a00686fc-cdce-4640-8dd0-c981eba4d4a6)"><g id="e0a06073-6dff-42b9-a552-9c4d534cb181" data-name="&lt;Grid Repeat&gt;"><path d="M-.44,813.58h0A12.94,12.94,0,0,1,12.5,826.52v67.69a0,0,0,0,1,0,0H-13.38a0,0,0,0,1,0,0V826.52A12.94,12.94,0,0,1-.44,813.58Z" style="fill:#014e3c"/></g><g id="e451f2dc-b5e0-41b2-86bc-6dc20cc5703b" data-name="&lt;Grid Repeat&gt;"><path d="M23.87,813.58h0a12.94,12.94,0,0,1,12.94,12.94v67.69a0,0,0,0,1,0,0H10.93a0,0,0,0,1,0,0V826.52A12.94,12.94,0,0,1,23.87,813.58Z" style="fill:#014e3c"/></g><g id="a588e38c-0761-46ed-afcc-58d1ae46db86" data-name="&lt;Grid Repeat&gt;"><path d="M48.18,813.58h0a12.94,12.94,0,0,1,12.94,12.94v67.69a0,0,0,0,1,0,0H35.24a0,0,0,0,1,0,0V826.52A12.94,12.94,0,0,1,48.18,813.58Z" style="fill:#014e3c"/></g><g id="ac5e2fd0-7039-4519-982d-8791ef44123e" data-name="&lt;Grid Repeat&gt;"><path d="M72.49,813.58h0a12.94,12.94,0,0,1,12.94,12.94v67.69a0,0,0,0,1,0,0H59.55a0,0,0,0,1,0,0V826.52A12.94,12.94,0,0,1,72.49,813.58Z" style="fill:#014e3c"/></g><g id="e740d87e-3801-4778-801b-0df38c0058fb" data-name="&lt;Grid Repeat&gt;"><path d="M96.8,813.58h0a12.94,12.94,0,0,1,12.94,12.94v67.69a0,0,0,0,1,0,0H83.86a0,0,0,0,1,0,0V826.52A12.94,12.94,0,0,1,96.8,813.58Z" style="fill:#014e3c"/></g><g id="ec301a16-ba20-4946-b0bd-74eb3dca0c29" data-name="&lt;Grid Repeat&gt;"><path d="M121.11,813.58h0a12.94,12.94,0,0,1,12.94,12.94v67.69a0,0,0,0,1,0,0H108.17a0,0,0,0,1,0,0V826.52A12.94,12.94,0,0,1,121.11,813.58Z" style="fill:#014e3c"/></g><g id="bc27ccdb-4789-4650-b3cf-ebe72c082cc1" data-name="&lt;Grid Repeat&gt;"><path d="M145.42,813.58h0a12.94,12.94,0,0,1,12.94,12.94v67.69a0,0,0,0,1,0,0H132.48a0,0,0,0,1,0,0V826.52a12.94,12.94,0,0,1,12.94-12.94Z" style="fill:#014e3c"/></g><g id="b83e2ef2-9ed2-4c22-b3df-e0486fa3f66f" data-name="&lt;Grid Repeat&gt;"><path d="M169.73,813.58h0a12.94,12.94,0,0,1,12.94,12.94v67.69a0,0,0,0,1,0,0H156.79a0,0,0,0,1,0,0V826.52A12.94,12.94,0,0,1,169.73,813.58Z" style="fill:#014e3c"/></g><g id="a13b5cd7-5d06-4f2f-aeef-d5810193dcdb" data-name="&lt;Grid Repeat&gt;"><path d="M194,813.58h0A12.94,12.94,0,0,1,207,826.52v67.69a0,0,0,0,1,0,0H181.1a0,0,0,0,1,0,0V826.52A12.94,12.94,0,0,1,194,813.58Z" style="fill:#014e3c"/></g><g id="b6ecae18-70ac-4d29-99dc-26b5f9840286" data-name="&lt;Grid Repeat&gt;"><path d="M218.35,813.58h0a12.94,12.94,0,0,1,12.94,12.94v67.69a0,0,0,0,1,0,0H205.41a0,0,0,0,1,0,0V826.52a12.94,12.94,0,0,1,12.94-12.94Z" style="fill:#014e3c"/></g><g id="e7621475-3ede-4e70-9d67-d2c8a978e466" data-name="&lt;Grid Repeat&gt;"><path d="M242.66,813.58h0a12.94,12.94,0,0,1,12.94,12.94v67.69a0,0,0,0,1,0,0H229.72a0,0,0,0,1,0,0V826.52A12.94,12.94,0,0,1,242.66,813.58Z" style="fill:#014e3c"/></g><g id="ecb9f9ee-15a2-4e6d-9d8e-1a62990cd483" data-name="&lt;Grid Repeat&gt;"><path d="M267,813.58h0a12.94,12.94,0,0,1,12.94,12.94v67.69a0,0,0,0,1,0,0H254a0,0,0,0,1,0,0V826.52A12.94,12.94,0,0,1,267,813.58Z" style="fill:#014e3c"/></g><g id="a2946979-8699-40a5-91d5-77ab5b881f6d" data-name="&lt;Grid Repeat&gt;"><path d="M291.29,813.58h0a12.94,12.94,0,0,1,12.94,12.94v67.69a0,0,0,0,1,0,0H278.35a0,0,0,0,1,0,0V826.52a12.94,12.94,0,0,1,12.94-12.94Z" style="fill:#014e3c"/></g><g id="a5eff757-bf66-4161-8cd4-b09140b79b4c" data-name="&lt;Grid Repeat&gt;"><path d="M315.6,813.58h0a12.94,12.94,0,0,1,12.94,12.94v67.69a0,0,0,0,1,0,0H302.66a0,0,0,0,1,0,0V826.52A12.94,12.94,0,0,1,315.6,813.58Z" style="fill:#014e3c"/></g><g id="a2cad65b-7df2-4a8f-8c6c-2a161dcc8ad8" data-name="&lt;Grid Repeat&gt;"><path d="M339.91,813.58h0a12.94,12.94,0,0,1,12.94,12.94v67.69a0,0,0,0,1,0,0H327a0,0,0,0,1,0,0V826.52A12.94,12.94,0,0,1,339.91,813.58Z" style="fill:#014e3c"/></g><g id="a393e8d2-95b6-4159-aa06-04c7f83f91de" data-name="&lt;Grid Repeat&gt;"><path d="M364.22,813.58h0a12.94,12.94,0,0,1,12.94,12.94v67.69a0,0,0,0,1,0,0H351.28a0,0,0,0,1,0,0V826.52A12.94,12.94,0,0,1,364.22,813.58Z" style="fill:#014e3c"/></g><g id="fdb91bf5-0e45-4735-8622-764d9a87fa46" data-name="&lt;Grid Repeat&gt;"><path d="M388.53,813.58h0a12.94,12.94,0,0,1,12.94,12.94v67.69a0,0,0,0,1,0,0H375.59a0,0,0,0,1,0,0V826.52A12.94,12.94,0,0,1,388.53,813.58Z" style="fill:#014e3c"/></g><g id="a88e8122-c371-481d-b24b-56db4b17399a" data-name="&lt;Grid Repeat&gt;"><path d="M412.84,813.58h0a12.94,12.94,0,0,1,12.94,12.94v67.69a0,0,0,0,1,0,0H399.9a0,0,0,0,1,0,0V826.52a12.94,12.94,0,0,1,12.94-12.94Z" style="fill:#014e3c"/></g><g id="b063c6cb-5361-4761-a411-1021265bdf64" data-name="&lt;Grid Repeat&gt;"><path d="M437.15,813.58h0a12.94,12.94,0,0,1,12.94,12.94v67.69a0,0,0,0,1,0,0H424.21a0,0,0,0,1,0,0V826.52A12.94,12.94,0,0,1,437.15,813.58Z" style="fill:#014e3c"/></g><g id="aa7de950-3c7c-4cf7-b79e-2f69638d9b2e" data-name="&lt;Grid Repeat&gt;"><path d="M461.46,813.58h0a12.94,12.94,0,0,1,12.94,12.94v67.69a0,0,0,0,1,0,0H448.52a0,0,0,0,1,0,0V826.52A12.94,12.94,0,0,1,461.46,813.58Z" style="fill:#014e3c"/></g><g id="a8901074-96c3-476c-b454-fdd5923d5eef" data-name="&lt;Grid Repeat&gt;"><path d="M485.77,813.58h0a12.94,12.94,0,0,1,12.94,12.94v67.69a0,0,0,0,1,0,0H472.83a0,0,0,0,1,0,0V826.52A12.94,12.94,0,0,1,485.77,813.58Z" style="fill:#014e3c"/></g><g id="a4a6ba46-6b56-4945-9228-dbaeb28d5c66" data-name="&lt;Grid Repeat&gt;"><path d="M510.08,813.58h0A12.94,12.94,0,0,1,523,826.52v67.69a0,0,0,0,1,0,0H497.14a0,0,0,0,1,0,0V826.52A12.94,12.94,0,0,1,510.08,813.58Z" style="fill:#014e3c"/></g><g id="b8e02eae-3ddb-41b6-b2c7-01e7db9ee9cf" data-name="&lt;Grid Repeat&gt;"><path d="M534.39,813.58h0a12.94,12.94,0,0,1,12.94,12.94v67.69a0,0,0,0,1,0,0H521.45a0,0,0,0,1,0,0V826.52a12.94,12.94,0,0,1,12.94-12.94Z" style="fill:#014e3c"/></g><g id="fac10f95-c7b7-4849-a044-b4ccd320a052" data-name="&lt;Grid Repeat&gt;"><path d="M558.7,813.58h0a12.94,12.94,0,0,1,12.94,12.94v67.69a0,0,0,0,1,0,0H545.76a0,0,0,0,1,0,0V826.52A12.94,12.94,0,0,1,558.7,813.58Z" style="fill:#014e3c"/></g><g id="a80f8818-e3c3-4fab-acc0-d42cc4d82499" data-name="&lt;Grid Repeat&gt;"><path d="M583,813.58h0A12.94,12.94,0,0,1,596,826.52v67.69a0,0,0,0,1,0,0H570.07a0,0,0,0,1,0,0V826.52A12.94,12.94,0,0,1,583,813.58Z" style="fill:#014e3c"/></g><g id="a0ff0574-fd9c-4e63-8cf6-19973834b8d6" data-name="&lt;Grid Repeat&gt;"><path d="M607.32,813.58h0a12.94,12.94,0,0,1,12.94,12.94v67.69a0,0,0,0,1,0,0H594.38a0,0,0,0,1,0,0V826.52a12.94,12.94,0,0,1,12.94-12.94Z" style="fill:#014e3c"/></g><g id="a2fb1d79-46b8-49bd-ba19-67fc5cae4e94" data-name="&lt;Grid Repeat&gt;"><path d="M631.64,813.58h0a12.94,12.94,0,0,1,12.94,12.94v67.69a0,0,0,0,1,0,0H618.7a0,0,0,0,1,0,0V826.52A12.94,12.94,0,0,1,631.64,813.58Z" style="fill:#014e3c"/></g><g id="eb3ee3ff-df4a-49fd-84df-c2126c97a676" data-name="&lt;Grid Repeat&gt;"><path d="M655.95,813.58h0a12.94,12.94,0,0,1,12.94,12.94v67.69a0,0,0,0,1,0,0H643a0,0,0,0,1,0,0V826.52a12.94,12.94,0,0,1,12.94-12.94Z" style="fill:#014e3c"/></g><g id="f5191113-15aa-4fe4-919b-7677ac28027f" data-name="&lt;Grid Repeat&gt;"><path d="M680.26,813.58h0a12.94,12.94,0,0,1,12.94,12.94v67.69a0,0,0,0,1,0,0H667.32a0,0,0,0,1,0,0V826.52A12.94,12.94,0,0,1,680.26,813.58Z" style="fill:#014e3c"/></g><g id="e1765d0b-ffc9-441e-9296-b97d21a22d1e" data-name="&lt;Grid Repeat&gt;"><path d="M704.57,813.58h0a12.94,12.94,0,0,1,12.94,12.94v67.69a0,0,0,0,1,0,0H691.63a0,0,0,0,1,0,0V826.52A12.94,12.94,0,0,1,704.57,813.58Z" style="fill:#014e3c"/></g><g id="af7b794c-8a38-4334-9ed1-54a7352c15e3" data-name="&lt;Grid Repeat&gt;"><path d="M728.88,813.58h0a12.94,12.94,0,0,1,12.94,12.94v67.69a0,0,0,0,1,0,0H715.94a0,0,0,0,1,0,0V826.52a12.94,12.94,0,0,1,12.94-12.94Z" style="fill:#014e3c"/></g><g id="ab948628-a465-437d-b32e-84ff8ba40934" data-name="&lt;Grid Repeat&gt;"><path d="M753.19,813.58h0a12.94,12.94,0,0,1,12.94,12.94v67.69a0,0,0,0,1,0,0H740.25a0,0,0,0,1,0,0V826.52A12.94,12.94,0,0,1,753.19,813.58Z" style="fill:#014e3c"/></g><g id="bb32cd8a-1038-475c-a493-183bf4cac26a" data-name="&lt;Grid Repeat&gt;"><path d="M777.5,813.58h0a12.94,12.94,0,0,1,12.94,12.94v67.69a0,0,0,0,1,0,0H764.56a0,0,0,0,1,0,0V826.52A12.94,12.94,0,0,1,777.5,813.58Z" style="fill:#014e3c"/></g><g id="b830c3c4-c525-4e5d-8fc1-2587715e17f2" data-name="&lt;Grid Repeat&gt;"><path d="M801.81,813.58h0a12.94,12.94,0,0,1,12.94,12.94v67.69a0,0,0,0,1,0,0H788.87a0,0,0,0,1,0,0V826.52A12.94,12.94,0,0,1,801.81,813.58Z" style="fill:#014e3c"/></g><g id="f463bf69-6a5b-4821-9375-a65a2ce8d5b4" data-name="&lt;Grid Repeat&gt;"><path d="M826.12,813.58h0a12.94,12.94,0,0,1,12.94,12.94v67.69a0,0,0,0,1,0,0H813.18a0,0,0,0,1,0,0V826.52A12.94,12.94,0,0,1,826.12,813.58Z" style="fill:#014e3c"/></g><g id="b0ff8ffa-37d9-4fa7-bbac-327ea0c02fb3" data-name="&lt;Grid Repeat&gt;"><path d="M850.43,813.58h0a12.94,12.94,0,0,1,12.94,12.94v67.69a0,0,0,0,1,0,0H837.49a0,0,0,0,1,0,0V826.52A12.94,12.94,0,0,1,850.43,813.58Z" style="fill:#014e3c"/></g><g id="b55da307-34b7-41a3-b0e3-0b826c2135c3" data-name="&lt;Grid Repeat&gt;"><path d="M874.74,813.58h0a12.94,12.94,0,0,1,12.94,12.94v67.69a0,0,0,0,1,0,0H861.8a0,0,0,0,1,0,0V826.52A12.94,12.94,0,0,1,874.74,813.58Z" style="fill:#014e3c"/></g><g id="a3b31a1c-6151-49ec-af04-802145a846c9" data-name="&lt;Grid Repeat&gt;"><path d="M899.05,813.58h0A12.94,12.94,0,0,1,912,826.52v67.69a0,0,0,0,1,0,0H886.11a0,0,0,0,1,0,0V826.52A12.94,12.94,0,0,1,899.05,813.58Z" style="fill:#014e3c"/></g><g id="bd38f939-2f16-4b6b-a826-3d2c35efbbe4" data-name="&lt;Grid Repeat&gt;"><path d="M923.36,813.58h0a12.94,12.94,0,0,1,12.94,12.94v67.69a0,0,0,0,1,0,0H910.42a0,0,0,0,1,0,0V826.52A12.94,12.94,0,0,1,923.36,813.58Z" style="fill:#014e3c"/></g><g id="edf75f96-610a-4cca-8a47-ad04c257a348" data-name="&lt;Grid Repeat&gt;"><path d="M947.67,813.58h0a12.94,12.94,0,0,1,12.94,12.94v67.69a0,0,0,0,1,0,0H934.73a0,0,0,0,1,0,0V826.52a12.94,12.94,0,0,1,12.94-12.94Z" style="fill:#014e3c"/></g><g id="a46c917d-b05b-4cd4-b4c5-75d578180370" data-name="&lt;Grid Repeat&gt;"><path d="M972,813.58h0a12.94,12.94,0,0,1,12.94,12.94v67.69a0,0,0,0,1,0,0H959a0,0,0,0,1,0,0V826.52A12.94,12.94,0,0,1,972,813.58Z" style="fill:#014e3c"/></g><g id="f0e32083-fdfd-42df-a4c7-2c25fd9d2ca1" data-name="&lt;Grid Repeat&gt;"><path d="M996.3,813.58h0a12.94,12.94,0,0,1,12.94,12.94v67.69a0,0,0,0,1,0,0H983.36a0,0,0,0,1,0,0V826.52A12.94,12.94,0,0,1,996.3,813.58Z" style="fill:#014e3c"/></g><g id="a69de28c-41cc-42ca-904d-e27d87f74227" data-name="&lt;Grid Repeat&gt;"><path d="M1020.61,813.58h0a12.94,12.94,0,0,1,12.94,12.94v67.69a0,0,0,0,1,0,0h-25.88a0,0,0,0,1,0,0V826.52A12.94,12.94,0,0,1,1020.61,813.58Z" style="fill:#014e3c"/></g><g id="fac5bfb2-5514-45d9-80a2-fc8df82ceb9f" data-name="&lt;Grid Repeat&gt;"><path d="M1044.92,813.58h0a12.94,12.94,0,0,1,12.94,12.94v67.69a0,0,0,0,1,0,0H1032a0,0,0,0,1,0,0V826.52A12.94,12.94,0,0,1,1044.92,813.58Z" style="fill:#014e3c"/></g><g id="a67909d8-efde-4ade-a0eb-424efd969de3" data-name="&lt;Grid Repeat&gt;"><path d="M1069.23,813.58h0a12.94,12.94,0,0,1,12.94,12.94v67.69a0,0,0,0,1,0,0h-25.88a0,0,0,0,1,0,0V826.52A12.94,12.94,0,0,1,1069.23,813.58Z" style="fill:#014e3c"/></g><g id="ed45fde6-519e-4e1d-bbcc-c45c5729b440" data-name="&lt;Grid Repeat&gt;"><path d="M1093.54,813.58h0a12.94,12.94,0,0,1,12.94,12.94v67.69a0,0,0,0,1,0,0H1080.6a0,0,0,0,1,0,0V826.52A12.94,12.94,0,0,1,1093.54,813.58Z" style="fill:#014e3c"/></g><g id="b6fbf2da-989b-40c8-90b4-cc6d5e45be9a" data-name="&lt;Grid Repeat&gt;"><path d="M1117.85,813.58h0a12.94,12.94,0,0,1,12.94,12.94v67.69a0,0,0,0,1,0,0h-25.88a0,0,0,0,1,0,0V826.52A12.94,12.94,0,0,1,1117.85,813.58Z" style="fill:#014e3c"/></g><g id="ff9beb4d-bc9d-4b8b-bc8a-04f6c226f4e1" data-name="&lt;Grid Repeat&gt;"><path d="M1142.16,813.58h0a12.94,12.94,0,0,1,12.94,12.94v67.69a0,0,0,0,1,0,0h-25.88a0,0,0,0,1,0,0V826.52A12.94,12.94,0,0,1,1142.16,813.58Z" style="fill:#014e3c"/></g><g id="aaa636d1-1575-4017-9955-34d798b97400" data-name="&lt;Grid Repeat&gt;"><path d="M1166.47,813.58h0a12.94,12.94,0,0,1,12.94,12.94v67.69a0,0,0,0,1,0,0h-25.88a0,0,0,0,1,0,0V826.52A12.94,12.94,0,0,1,1166.47,813.58Z" style="fill:#014e3c"/></g><g id="bbd01ae7-0bbb-4713-acef-08c6b7034563" data-name="&lt;Grid Repeat&gt;"><path d="M1190.78,813.58h0a12.94,12.94,0,0,1,12.94,12.94v67.69a0,0,0,0,1,0,0h-25.88a0,0,0,0,1,0,0V826.52A12.94,12.94,0,0,1,1190.78,813.58Z" style="fill:#014e3c"/></g><g id="a280f8fa-c1c3-4551-82ce-d365961ec797" data-name="&lt;Grid Repeat&gt;"><path d="M1215.09,813.58h0A12.94,12.94,0,0,1,1228,826.52v67.69a0,0,0,0,1,0,0h-25.88a0,0,0,0,1,0,0V826.52a12.94,12.94,0,0,1,12.94-12.94Z" style="fill:#014e3c"/></g><g id="b34d21a5-1148-48ba-bec7-f486455be83f" data-name="&lt;Grid Repeat&gt;"><path d="M1239.4,813.58h0a12.94,12.94,0,0,1,12.94,12.94v67.69a0,0,0,0,1,0,0h-25.88a0,0,0,0,1,0,0V826.52A12.94,12.94,0,0,1,1239.4,813.58Z" style="fill:#014e3c"/></g><g id="bdc57956-85aa-4879-8052-b953fafe62dc" data-name="&lt;Grid Repeat&gt;"><path d="M1263.71,813.58h0a12.94,12.94,0,0,1,12.94,12.94v67.69a0,0,0,0,1,0,0h-25.88a0,0,0,0,1,0,0V826.52a12.94,12.94,0,0,1,12.94-12.94Z" style="fill:#014e3c"/></g><g id="e8725064-1083-4994-9672-70dee7a6cb9c" data-name="&lt;Grid Repeat&gt;"><path d="M1288,813.58h0A12.94,12.94,0,0,1,1301,826.52v67.69a0,0,0,0,1,0,0h-25.88a0,0,0,0,1,0,0V826.52A12.94,12.94,0,0,1,1288,813.58Z" style="fill:#014e3c"/></g><g id="eb145000-cc49-4fab-ae93-3f638a1d64b0" data-name="&lt;Grid Repeat&gt;"><path d="M1312.33,813.58h0a12.94,12.94,0,0,1,12.94,12.94v67.69a0,0,0,0,1,0,0h-25.88a0,0,0,0,1,0,0V826.52A12.94,12.94,0,0,1,1312.33,813.58Z" style="fill:#014e3c"/></g><g id="a85faf1a-be0a-415e-a310-aaccaaa42b54" data-name="&lt;Grid Repeat&gt;"><path d="M1336.64,813.58h0a12.94,12.94,0,0,1,12.94,12.94v67.69a0,0,0,0,1,0,0H1323.7a0,0,0,0,1,0,0V826.52A12.94,12.94,0,0,1,1336.64,813.58Z" style="fill:#014e3c"/></g><g id="fd200f1a-8740-4b3c-8eeb-f95c820397a7" data-name="&lt;Grid Repeat&gt;"><path d="M1361,813.58h0a12.94,12.94,0,0,1,12.94,12.94v67.69a0,0,0,0,1,0,0H1348a0,0,0,0,1,0,0V826.52A12.94,12.94,0,0,1,1361,813.58Z" style="fill:#014e3c"/></g><g id="b597848d-93f5-46c6-8d72-7839f95b5d6d" data-name="&lt;Grid Repeat&gt;"><path d="M1385.27,813.58h0a12.94,12.94,0,0,1,12.94,12.94v67.69a0,0,0,0,1,0,0h-25.88a0,0,0,0,1,0,0V826.52A12.94,12.94,0,0,1,1385.27,813.58Z" style="fill:#014e3c"/></g><g id="a741bac0-63e2-4e77-94a3-b43e674296ba" data-name="&lt;Grid Repeat&gt;"><path d="M1409.58,813.58h0a12.94,12.94,0,0,1,12.94,12.94v67.69a0,0,0,0,1,0,0h-25.88a0,0,0,0,1,0,0V826.52A12.94,12.94,0,0,1,1409.58,813.58Z" style="fill:#014e3c"/></g><g id="f637de40-bc78-42f5-b09c-80048f02b9b3" data-name="&lt;Grid Repeat&gt;"><path d="M1433.89,813.58h0a12.94,12.94,0,0,1,12.94,12.94v67.69a0,0,0,0,1,0,0h-25.88a0,0,0,0,1,0,0V826.52A12.94,12.94,0,0,1,1433.89,813.58Z" style="fill:#014e3c"/></g><g id="a6e64ca2-fa6d-4dcb-976d-79854a6502e2" data-name="&lt;Grid Repeat&gt;"><path d="M1458.2,813.58h0a12.94,12.94,0,0,1,12.94,12.94v67.69a0,0,0,0,1,0,0h-25.88a0,0,0,0,1,0,0V826.52A12.94,12.94,0,0,1,1458.2,813.58Z" style="fill:#014e3c"/></g><g id="a644414b-bf15-41bb-b800-2d8ff4d0351f" data-name="&lt;Grid Repeat&gt;"><path d="M1482.51,813.58h0a12.94,12.94,0,0,1,12.94,12.94v67.69a0,0,0,0,1,0,0h-25.88a0,0,0,0,1,0,0V826.52a12.94,12.94,0,0,1,12.94-12.94Z" style="fill:#014e3c"/></g><g id="b4421150-5cd0-47dd-8778-f391beaa329f" data-name="&lt;Grid Repeat&gt;"><path d="M1506.82,813.58h0a12.94,12.94,0,0,1,12.94,12.94v67.69a0,0,0,0,1,0,0h-25.88a0,0,0,0,1,0,0V826.52A12.94,12.94,0,0,1,1506.82,813.58Z" style="fill:#014e3c"/></g><g id="ff387c60-db06-4699-9e3d-308ff0becde0" data-name="&lt;Grid Repeat&gt;"><path d="M1531.13,813.58h0a12.94,12.94,0,0,1,12.94,12.94v67.69a0,0,0,0,1,0,0h-25.88a0,0,0,0,1,0,0V826.52A12.94,12.94,0,0,1,1531.13,813.58Z" style="fill:#014e3c"/></g><g id="aada02be-71e5-4c23-8a2b-082396d3b95c" data-name="&lt;Grid Repeat&gt;"><path d="M1555.44,813.58h0a12.94,12.94,0,0,1,12.94,12.94v67.69a0,0,0,0,1,0,0H1542.5a0,0,0,0,1,0,0V826.52A12.94,12.94,0,0,1,1555.44,813.58Z" style="fill:#014e3c"/></g><g id="bdea17cb-42bf-4cdb-9615-04d5954ccdc5" data-name="&lt;Grid Repeat&gt;"><path d="M1579.75,813.58h0a12.94,12.94,0,0,1,12.94,12.94v67.69a0,0,0,0,1,0,0h-25.88a0,0,0,0,1,0,0V826.52A12.94,12.94,0,0,1,1579.75,813.58Z" style="fill:#014e3c"/></g><g id="bbd227d6-906e-49bd-8508-bad43d300cf7" data-name="&lt;Grid Repeat&gt;"><path d="M1604.06,813.58h0A12.94,12.94,0,0,1,1617,826.52v67.69a0,0,0,0,1,0,0h-25.88a0,0,0,0,1,0,0V826.52A12.94,12.94,0,0,1,1604.06,813.58Z" style="fill:#014e3c"/></g><g id="b945ad32-76b3-49b5-bb35-4bd4ca545377" data-name="&lt;Grid Repeat&gt;"><path d="M1628.37,813.58h0a12.94,12.94,0,0,1,12.94,12.94v67.69a0,0,0,0,1,0,0h-25.88a0,0,0,0,1,0,0V826.52A12.94,12.94,0,0,1,1628.37,813.58Z" style="fill:#014e3c"/></g><g id="a92896d9-e6c6-4326-a095-aab2a081e398" data-name="&lt;Grid Repeat&gt;"><path d="M1652.68,813.58h0a12.94,12.94,0,0,1,12.94,12.94v67.69a0,0,0,0,1,0,0h-25.88a0,0,0,0,1,0,0V826.52A12.94,12.94,0,0,1,1652.68,813.58Z" style="fill:#014e3c"/></g><g id="a8c86a56-8608-45f9-867f-f6cea5694748" data-name="&lt;Grid Repeat&gt;"><path d="M1677,813.58h0a12.94,12.94,0,0,1,12.94,12.94v67.69a0,0,0,0,1,0,0h-25.88a0,0,0,0,1,0,0V826.52A12.94,12.94,0,0,1,1677,813.58Z" style="fill:#014e3c"/></g><g id="fa8907be-07f4-4991-b61a-46958ac6d7e7" data-name="&lt;Grid Repeat&gt;"><path d="M1701.3,813.58h0a12.94,12.94,0,0,1,12.94,12.94v67.69a0,0,0,0,1,0,0h-25.88a0,0,0,0,1,0,0V826.52A12.94,12.94,0,0,1,1701.3,813.58Z" style="fill:#014e3c"/></g><g id="fbb8bf0a-580b-4451-a9dc-0ac6e03e9065" data-name="&lt;Grid Repeat&gt;"><path d="M1725.62,813.58h0a12.94,12.94,0,0,1,12.94,12.94v67.69a0,0,0,0,1,0,0h-25.88a0,0,0,0,1,0,0V826.52a12.94,12.94,0,0,1,12.94-12.94Z" style="fill:#014e3c"/></g><g id="a01e6827-21e3-429d-9e7d-3fc177b95b47" data-name="&lt;Grid Repeat&gt;"><path d="M1749.93,813.58h0a12.94,12.94,0,0,1,12.94,12.94v67.69a0,0,0,0,1,0,0H1737a0,0,0,0,1,0,0V826.52A12.94,12.94,0,0,1,1749.93,813.58Z" style="fill:#014e3c"/></g><g id="f3b03f89-4c37-4bfe-a7a5-f0993baaa8dd" data-name="&lt;Grid Repeat&gt;"><path d="M1774.24,813.58h0a12.94,12.94,0,0,1,12.94,12.94v67.69a0,0,0,0,1,0,0H1761.3a0,0,0,0,1,0,0V826.52A12.94,12.94,0,0,1,1774.24,813.58Z" style="fill:#014e3c"/></g><g id="f4c25c1e-f38b-4203-b4a9-31048a5c0567" data-name="&lt;Grid Repeat&gt;"><path d="M1798.55,813.58h0a12.94,12.94,0,0,1,12.94,12.94v67.69a0,0,0,0,1,0,0h-25.88a0,0,0,0,1,0,0V826.52A12.94,12.94,0,0,1,1798.55,813.58Z" style="fill:#014e3c"/></g><g id="e2cd6258-93ac-48b7-baa6-84d07a1b79cf" data-name="&lt;Grid Repeat&gt;"><path d="M1822.86,813.58h0a12.94,12.94,0,0,1,12.94,12.94v67.69a0,0,0,0,1,0,0h-25.88a0,0,0,0,1,0,0V826.52A12.94,12.94,0,0,1,1822.86,813.58Z" style="fill:#014e3c"/></g><g id="f4de8edf-6072-472c-a9bd-05d1229bfb4a" data-name="&lt;Grid Repeat&gt;"><path d="M1847.17,813.58h0a12.94,12.94,0,0,1,12.94,12.94v67.69a0,0,0,0,1,0,0h-25.88a0,0,0,0,1,0,0V826.52A12.94,12.94,0,0,1,1847.17,813.58Z" style="fill:#014e3c"/></g><g id="fead699b-d261-4c8d-946d-b4ca5e63966f" data-name="&lt;Grid Repeat&gt;"><path d="M1871.48,813.58h0a12.94,12.94,0,0,1,12.94,12.94v67.69a0,0,0,0,1,0,0h-25.88a0,0,0,0,1,0,0V826.52A12.94,12.94,0,0,1,1871.48,813.58Z" style="fill:#014e3c"/></g><g id="b879565c-e194-403e-8ec0-8ea61c227722" data-name="&lt;Grid Repeat&gt;"><path d="M1895.79,813.58h0a12.94,12.94,0,0,1,12.94,12.94v67.69a0,0,0,0,1,0,0h-25.88a0,0,0,0,1,0,0V826.52A12.94,12.94,0,0,1,1895.79,813.58Z" style="fill:#014e3c"/></g><g id="be79d181-95b1-4839-8442-2e9c100d8d71" data-name="&lt;Grid Repeat&gt;"><path d="M1920.1,813.58h0A12.94,12.94,0,0,1,1933,826.52v67.69a0,0,0,0,1,0,0h-25.88a0,0,0,0,1,0,0V826.52A12.94,12.94,0,0,1,1920.1,813.58Z" style="fill:#014e3c"/></g></g><rect x="-3.95" y="849.19" width="1930" height="51.9" style="fill:#014e3c"/><circle cx="594.42" cy="613.8" r="42.46" style="fill:#37173a"/><path d="M552.89,316.31H537.34a4.32,4.32,0,0,1,0-8.64H549.6l15.95-58.37a4.32,4.32,0,1,1,8.33,2.28l-16.82,61.55A4.32,4.32,0,0,1,552.89,316.31Z" style="fill:#3a222b"/><path d="M652.16,316.31H636.6a4.32,4.32,0,0,1-4.17-3.18l-16.82-61.55A4.32,4.32,0,0,1,624,249.3l15.95,58.37h12.26a4.32,4.32,0,1,1,0,8.64Z" style="fill:#3a222b"/><path d="M594.75,238.07a3,3,0,0,1-.56-6l74.66-14.12a3,3,0,1,1,1.13,5.95L595.32,238A3.66,3.66,0,0,1,594.75,238.07Z" style="fill:#3a222b"/><path d="M669.42,234.4A2.42,2.42,0,0,1,667,232V222a2.43,2.43,0,0,1,4.85,0v10A2.42,2.42,0,0,1,669.42,234.4Z" style="fill:#3a222b"/><path d="M670.76,213h-2.68c-2.85,0-5.16,1.79-5.16,4v2.9c0,1.76,1.84,3.19,4.11,3.19h4.78c2.26,0,4.1-1.43,4.1-3.19V217C675.91,214.75,673.6,213,670.76,213Z" style="fill:#55b798"/><path d="M680.26,216h-.12l-21.68-2.13a1.21,1.21,0,0,1-1.09-1.32,1.2,1.2,0,0,1,1.33-1.09l21.67,2.13a1.21,1.21,0,0,1-.11,2.41Z" style="fill:#3a222b"/><path d="M665.2,216.85a1.21,1.21,0,0,1-.62-2.26l7.31-4.25a1.21,1.21,0,0,1,1.22,2.09l-7.3,4.26A1.26,1.26,0,0,1,665.2,216.85Z" style="fill:#3a222b"/><path d="M673.28,231.21c-.88-1.42-3.14-1.36-4.86-1.31-2.49-.06-4.18,2.27-2.81,3.89l1.26,1.59a3.51,3.51,0,0,0,5.09,0C672.91,234.2,674.47,232.62,673.28,231.21Z" style="fill:#f0a76e"/><path d="M696.88,259.46a3.49,3.49,0,0,1-.71-.07L594,240a3.81,3.81,0,1,1,1.43-7.48l102.12,19.42a3.81,3.81,0,0,1-.71,7.55Z" style="fill:#3a222b"/><path d="M696.88,274.75a3.06,3.06,0,0,1-3-3.05V259.14a3,3,0,1,1,6.09,0V271.7A3,3,0,0,1,696.88,274.75Z" style="fill:#3a222b"/><path d="M695.19,247.8h3.37c3.58,0,6.48,2.26,6.48,5v3.64c0,2.21-2.31,4-5.16,4h-6c-2.85,0-5.16-1.8-5.16-4v-3.64C688.72,250.06,691.62,247.8,695.19,247.8Z" style="fill:#55b798"/><path d="M710.5,251.58h-.15l-27.24-2.67a1.52,1.52,0,1,1,.3-3l27.24,2.67a1.52,1.52,0,0,1-.15,3Z" style="fill:#3a222b"/><path d="M691.58,252.69a1.52,1.52,0,0,1-.77-2.84l9.17-5.34a1.52,1.52,0,0,1,1.54,2.63l-9.18,5.34A1.5,1.5,0,0,1,691.58,252.69Z" style="fill:#3a222b"/><path d="M692,268c1.1-1.78,4-1.7,6.11-1.64,3.13-.08,5.25,2.85,3.52,4.88l-1.57,2c-1.35,1.83-5.06,1.84-6.4,0C692.48,271.77,690.52,269.78,692,268Z" style="fill:#f0a76e"/><path d="M594.76,238.07a3.66,3.66,0,0,1-.57,0l-74.66-14.13a3,3,0,1,1,1.13-5.95l74.66,14.12a3,3,0,0,1-.56,6Z" style="fill:#3a222b"/><path d="M520.09,234.4a2.42,2.42,0,0,1-2.42-2.42V222a2.43,2.43,0,0,1,4.85,0v10A2.42,2.42,0,0,1,520.09,234.4Z" style="fill:#3a222b"/><path d="M518.75,213h2.68c2.85,0,5.16,1.79,5.16,4v2.9c0,1.76-1.84,3.19-4.11,3.19H517.7c-2.27,0-4.1-1.43-4.1-3.19V217C513.6,214.75,515.9,213,518.75,213Z" style="fill:#55b798"/><path d="M509.25,216a1.21,1.21,0,0,1-.12-2.41l21.68-2.13a1.21,1.21,0,1,1,.24,2.41L509.37,216Z" style="fill:#3a222b"/><path d="M524.31,216.85a1.26,1.26,0,0,1-.61-.16l-7.3-4.26a1.21,1.21,0,1,1,1.22-2.09l7.3,4.25a1.21,1.21,0,0,1-.61,2.26Z" style="fill:#3a222b"/><path d="M516.23,231.21c.88-1.42,3.14-1.36,4.86-1.31,2.49-.06,4.18,2.27,2.8,3.89l-1.25,1.59a3.51,3.51,0,0,1-5.09,0C516.6,234.2,515,232.62,516.23,231.21Z" style="fill:#f0a76e"/><path d="M492.63,259.46a3.81,3.81,0,0,1-.71-7.55L594,232.49a3.81,3.81,0,0,1,1.43,7.48L493.34,259.39A3.49,3.49,0,0,1,492.63,259.46Z" style="fill:#3a222b"/><path d="M492.63,274.75a3.06,3.06,0,0,1-3.05-3.05V259.14a3,3,0,1,1,6.09,0V271.7A3,3,0,0,1,492.63,274.75Z" style="fill:#3a222b"/><path d="M494.31,247.8h-3.37c-3.57,0-6.47,2.26-6.47,5v3.64c0,2.21,2.31,4,5.16,4h6c2.85,0,5.16-1.8,5.16-4v-3.64C500.79,250.06,497.89,247.8,494.31,247.8Z" style="fill:#55b798"/><path d="M479,251.58a1.52,1.52,0,0,1-.15-3l27.24-2.67a1.52,1.52,0,0,1,.3,3l-27.24,2.67Z" style="fill:#3a222b"/><path d="M497.93,252.69a1.5,1.5,0,0,1-.76-.21L488,247.14a1.52,1.52,0,1,1,1.53-2.63l9.18,5.34a1.52,1.52,0,0,1-.77,2.84Z" style="fill:#3a222b"/><path d="M497.48,268c-1.1-1.78-3.94-1.7-6.1-1.64-3.13-.08-5.25,2.85-3.53,4.88l1.58,2c1.34,1.83,5.05,1.84,6.4,0C497,271.77,499,269.78,497.48,268Z" style="fill:#f0a76e"/><path d="M611.48,259.23H578c-5.14,0-9.55-3.22-10.48-7.66l-1.73-8.23c-1.28-6.08,4-11.7,11.1-11.7h35.67c7,0,12.38,5.62,11.1,11.7L622,251.57C621,256,616.62,259.23,611.48,259.23Z" style="fill:#e3f7f1"/><rect x="583.67" y="243.77" width="22.17" height="8.74" style="fill:#3a222b"/><path d="M614.69,302.88H574.82a12.7,12.7,0,0,1-12.49-10.39l-2.06-11.18a13.45,13.45,0,0,1,13.23-15.89H616a13.45,13.45,0,0,1,13.23,15.89l-2.06,11.18A12.71,12.71,0,0,1,614.69,302.88Z" style="fill:#e3f7f1"/><path d="M569.1,274.6a5.14,5.14,0,0,0-5.21,5.83l0,.06,1.84,9.82a11.31,11.31,0,0,0,11.17,9.14h35.66a11.33,11.33,0,0,0,11.18-9.14l1.84-9.82v-.06a5.13,5.13,0,0,0-5.2-5.83Z" style="fill:#a3e0cc"/><path d="M721.94,584.08l-252.31,7.34c-6.56.19-12-5.28-12.18-12.19l-5.9-248.14c-.17-7.06,5.24-12.87,11.94-12.82l261.16,2.1c6.57.05,11.85,5.73,11.77,12.67l-2.95,238.7C733.38,578.45,728.3,583.89,721.94,584.08Z" style="fill:#37173a"/><path d="M725.3,581.08,473,588.42c-6.55.19-12-5.28-12.18-12.19l-5.9-248.14c-.17-7.06,5.24-12.87,11.94-12.82L728,317.37c6.58.05,11.85,5.73,11.77,12.67l-2.95,238.7C736.74,575.45,731.66,580.89,725.3,581.08Z" style="fill:#5d2f5f"/><path d="M711.79,567.44,486.12,574a10.86,10.86,0,0,1-10.89-10.9l-5.29-221.94c-.15-6.33,4.69-11.52,10.69-11.47l233.59,1.87c5.88.05,10.6,5.13,10.52,11.33L722.1,556.4A10.92,10.92,0,0,1,711.79,567.44Z" style="fill:#076aad"/><circle cx="596.31" cy="613.68" r="41.59" style="fill:#5d2f5f"/><circle cx="595.64" cy="613.64" r="35.5" style="fill:#fff"/><circle cx="595.64" cy="613.64" r="31.8" style="fill:#1783cc"/><circle cx="594.54" cy="614.74" r="30.7" style="fill:#074068"/><circle cx="595.18" cy="614.1" r="30.06" style="fill:#08518e"/><path d="M576.3,609.72a2.29,2.29,0,0,1,2.57-1.67c1.65.05,3.3,0,5,0a1.17,1.17,0,0,0,.69-.25q5.31-4.37,10.6-8.77a2,2,0,0,1,3,.22,2.71,2.71,0,0,1,.42,1.34c.06,1,0,2.08,0,3.13v23.81a2.05,2.05,0,0,1-1.81,2.27,2.07,2.07,0,0,1-1.64-.56l-8-6.66c-.88-.72-1.74-1.46-2.62-2.16a1.15,1.15,0,0,0-.66-.23c-1.63,0-3.26-.06-4.88,0a2.37,2.37,0,0,1-2.66-1.59Z" style="fill:#d8d8d8"/><path d="M615,613.61a17.29,17.29,0,0,1-3.91,11.2,1.31,1.31,0,0,1-1.89.28,1.36,1.36,0,0,1-.35-2.06,16.67,16.67,0,0,0,1.82-2.81,14,14,0,0,0-1.17-14.31c-.26-.37-.55-.71-.84-1.06a1.36,1.36,0,0,1,.25-2.11,1.33,1.33,0,0,1,1.94.25,16.66,16.66,0,0,1,3.87,8.15C614.86,612.1,614.92,613.08,615,613.61Z" style="fill:#d8d8d8"/><path d="M608.6,614a10.38,10.38,0,0,1-2,6.26,1.32,1.32,0,0,1-1.82.36,1.4,1.4,0,0,1-.54-2,8.06,8.06,0,0,0,1.29-2.71,7.53,7.53,0,0,0-1.2-6.38,3.55,3.55,0,0,1-.49-.84,1.45,1.45,0,0,1,.85-1.66,1.32,1.32,0,0,1,1.66.42A10.37,10.37,0,0,1,608.6,614Z" style="fill:#d8d8d8"/><path d="M576.3,608.75a2.3,2.3,0,0,1,2.57-1.67c1.65,0,3.3,0,5,0a1.22,1.22,0,0,0,.69-.24l10.6-8.77a2,2,0,0,1,3,.22,2.68,2.68,0,0,1,.42,1.33c.06,1,0,2.09,0,3.13v23.82a2.06,2.06,0,0,1-1.81,2.27,2.11,2.11,0,0,1-1.64-.56l-8-6.67c-.88-.72-1.74-1.45-2.62-2.16a1.22,1.22,0,0,0-.66-.23c-1.63,0-3.26-.06-4.88,0a2.37,2.37,0,0,1-2.66-1.6Z" style="fill:#fbfcfa"/><path d="M615,612.64a17.29,17.29,0,0,1-3.91,11.2,1.3,1.3,0,0,1-1.89.28,1.35,1.35,0,0,1-.35-2.06,16.67,16.67,0,0,0,1.82-2.81,14,14,0,0,0-1.17-14.3c-.26-.37-.55-.72-.84-1.07a1.36,1.36,0,0,1,.25-2.11,1.33,1.33,0,0,1,1.94.26,16.63,16.63,0,0,1,3.87,8.14C614.86,611.13,614.92,612.11,615,612.64Z" style="fill:#fbfcfa"/><path d="M608.6,613a10.41,10.41,0,0,1-2,6.27,1.3,1.3,0,0,1-1.82.35,1.4,1.4,0,0,1-.54-2,8.1,8.1,0,0,0,1.29-2.7,7.52,7.52,0,0,0-1.2-6.38,3.76,3.76,0,0,1-.49-.84,1.46,1.46,0,0,1,.85-1.67,1.32,1.32,0,0,1,1.66.42A10.37,10.37,0,0,1,608.6,613Z" style="fill:#fbfcfa"/><path d="M525.83,525.2l3.65,1.17s5.1,6.31,3.82,7a4.39,4.39,0,0,1-3.15,0s.89,1.3-1.47,1.3-8-.3-9.73-3.44a16.59,16.59,0,0,1-2.06-5.57Z" style="fill:#6d5451"/><path d="M528.68,535.12c-3,0-8.32-.47-10.12-3.67a17,17,0,0,1-2.12-5.73.45.45,0,0,1,.1-.34.42.42,0,0,1,.33-.16l8.94-.47a.3.3,0,0,1,.16,0l3.64,1.17a.48.48,0,0,1,.22.15c1,1.28,4.4,5.59,4.1,7.09a.78.78,0,0,1-.42.59,3.32,3.32,0,0,1-1.6.37,5.6,5.6,0,0,1-1.15-.13,1,1,0,0,1-.11.36C530.38,534.88,529.74,535.12,528.68,535.12Zm-11.26-9a18,18,0,0,0,1.93,4.92c1.63,2.9,7.07,3.21,9.33,3.21.81,0,1.12-.17,1.17-.27s0-.28-.07-.32a.45.45,0,0,1,0-.53.46.46,0,0,1,.51-.15,5.39,5.39,0,0,0,1.6.28,2.41,2.41,0,0,0,1.17-.25c.18-.52-1.57-3.36-3.87-6.22l-3.44-1.11Z" style="fill:#56372f"/><path d="M525.83,525.2l3.65,1.17.36.46c-1.12,1.35-3.6,1.78-5.13,2.06-1.19.23-3.55.24-3,2.19.34,1.2,3.68,2.25,4.07,2.39.73.26,1.85.65,2.59.22a1.55,1.55,0,0,0,.77-1.14.68.68,0,0,0,0-.65,6.48,6.48,0,0,0-.15-.82c.39.39.77.78,1.16,1.11.58.47,1.77,1.2,2.31.25a2.55,2.55,0,0,0,.25-1.48c.67,1.16,1,2.16.59,2.41a4.39,4.39,0,0,1-3.15,0s.89,1.3-1.47,1.3-8-.3-9.73-3.44a16.59,16.59,0,0,1-2.06-5.57Z" style="fill:#6d5451;opacity:0.4;mix-blend-mode:multiply"/><path d="M530.15,533.67a.28.28,0,0,0,.15,0,.29.29,0,0,0,.11-.4l-1.91-3.44a.29.29,0,1,0-.51.29l1.91,3.44A.29.29,0,0,0,530.15,533.67Z" style="fill:#56372f"/><path d="M596.26,528.32l3.65,1.18s5.09,6.31,3.82,7a4.44,4.44,0,0,1-3.15,0s.89,1.3-1.47,1.3-8-.3-9.73-3.44a16.59,16.59,0,0,1-2.06-5.57Z" style="fill:#6d5451"/><path d="M599.11,538.25c-3,0-8.32-.48-10.12-3.67a17.31,17.31,0,0,1-2.12-5.73.45.45,0,0,1,.43-.51l8.94-.47a.44.44,0,0,1,.16,0l3.65,1.18a.41.41,0,0,1,.21.14c1,1.29,4.4,5.6,4.1,7.1a.82.82,0,0,1-.42.59,3.32,3.32,0,0,1-1.6.36,6.45,6.45,0,0,1-1.15-.12,1.06,1.06,0,0,1-.11.36C600.81,538,600.17,538.25,599.11,538.25Zm-11.26-9a17.86,17.86,0,0,0,1.93,4.93c1.62,2.89,7.07,3.2,9.33,3.2.81,0,1.12-.16,1.17-.27s0-.28-.07-.31a.47.47,0,0,1,0-.54.45.45,0,0,1,.51-.14,5.39,5.39,0,0,0,1.6.28,2.41,2.41,0,0,0,1.17-.26c.18-.51-1.57-3.36-3.87-6.22l-3.44-1.1Z" style="fill:#56372f"/><path d="M596.26,528.32l3.29,1.06c-.77.26-1.62.43-2,.61-1.54.64-3.19,1-4.71,1.59-2.63,1.06-.36,2.84,1.22,3.79,1.09.66,4.33,2.68,5.51,1.19a2.16,2.16,0,0,0,.29-2c.19.15.38.32.56.48.66.53,1.61,1.38,2.52.93a1.43,1.43,0,0,0,.75-.91c.32.72.42,1.27.09,1.45a4.44,4.44,0,0,1-3.15,0s.89,1.3-1.47,1.3-8-.3-9.73-3.44a16.59,16.59,0,0,1-2.06-5.57Z" style="fill:#6d5451;opacity:0.4;mix-blend-mode:multiply"/><path d="M600.58,536.79l.15,0a.29.29,0,0,0,.11-.4l-1.91-3.44a.29.29,0,0,0-.4-.11.28.28,0,0,0-.11.39l1.91,3.44A.27.27,0,0,0,600.58,536.79Z" style="fill:#56372f"/><path d="M625.47,525.33l3.65,1.18s5.09,6.31,3.81,7a4.42,4.42,0,0,1-3.14,0s.89,1.3-1.47,1.3-8-.3-9.73-3.44a16.67,16.67,0,0,1-2.06-5.57Z" style="fill:#6d5451"/><path d="M628.32,535.26c-3,0-8.33-.48-10.12-3.67a16.79,16.79,0,0,1-2.12-5.74.42.42,0,0,1,.1-.34.45.45,0,0,1,.32-.16l8.94-.47.17,0,3.64,1.18a.39.39,0,0,1,.21.14c1,1.29,4.41,5.6,4.11,7.1a.82.82,0,0,1-.42.59,3.32,3.32,0,0,1-1.6.36,5.52,5.52,0,0,1-1.15-.13,1.3,1.3,0,0,1-.11.37C630,535,629.38,535.26,628.32,535.26Zm-11.26-9a18,18,0,0,0,1.92,4.92c1.63,2.91,7.07,3.22,9.34,3.22.81,0,1.12-.17,1.17-.28s0-.28-.07-.31a.47.47,0,0,1,0-.54.45.45,0,0,1,.51-.14,5.39,5.39,0,0,0,1.6.28,2.3,2.3,0,0,0,1.17-.26c.17-.51-1.57-3.36-3.87-6.22l-3.44-1.1Z" style="fill:#56372f"/><path d="M625.47,525.33l2.91.94a21.32,21.32,0,0,1-7.16,2.8c-.53.06-1,.71-.48,1.14,1.31,1.18,5.21,4.84,7.26,3.72,1.3-.71.82-2.43.47-3.85,1.28,1.15,2,3.35,3.87,3.45a2.44,2.44,0,0,0,.63,0l0,0a4.42,4.42,0,0,1-3.14,0s.89,1.3-1.47,1.3-8-.3-9.73-3.44a16.67,16.67,0,0,1-2.06-5.57Z" style="fill:#6d5451;opacity:0.4;mix-blend-mode:multiply"/><path d="M629.79,533.8a.32.32,0,0,0,.14,0,.29.29,0,0,0,.12-.4l-1.91-3.44a.29.29,0,0,0-.4-.11.28.28,0,0,0-.11.39l1.91,3.44A.27.27,0,0,0,629.79,533.8Z" style="fill:#56372f"/><path d="M550.54,521.7l3.63,1.15s5.06,6.17,3.8,6.86a4.5,4.5,0,0,1-3.13,0s.88,1.27-1.47,1.27-7.91-.29-9.67-3.37a16.43,16.43,0,0,1-2.05-5.46Z" style="fill:#6d5451"/><path d="M553.37,531.43c-3,0-8.27-.47-10.06-3.6a16.85,16.85,0,0,1-2.11-5.62.47.47,0,0,1,.11-.34.44.44,0,0,1,.32-.17l8.89-.45a.3.3,0,0,1,.16,0l3.62,1.15a.44.44,0,0,1,.22.14c1,1.25,4.37,5.48,4.08,7a.8.8,0,0,1-.42.58,3.3,3.3,0,0,1-1.59.36,6.23,6.23,0,0,1-1.14-.12,1.22,1.22,0,0,1-.11.34C555.07,531.18,554.43,531.43,553.37,531.43Zm-11.18-8.85a17.13,17.13,0,0,0,1.91,4.8c1.61,2.84,7,3.14,9.27,3.14.81,0,1.12-.16,1.17-.26s0-.25-.07-.3a.45.45,0,0,1,0-.53.46.46,0,0,1,.52-.14,5.37,5.37,0,0,0,1.59.27,2.4,2.4,0,0,0,1.16-.25c.16-.51-1.58-3.29-3.85-6.07l-3.42-1.09Z" style="fill:#56372f"/><path d="M550.54,521.7l3.63,1.15a.93.93,0,0,1,.1.13c-1.69,1.21-7.28,1.9-8.37,2a.67.67,0,0,0-.47,1.14,11,11,0,0,0,3,2.11c1,.57,2.41,1.52,3.61,1.41,1.57-.14,1.59-1.39,1.41-2.7,1.27,1.39,2.85,3.27,3.87,1.95a1.8,1.8,0,0,0,.31-1.13c.5.94.72,1.69.33,1.91a4.5,4.5,0,0,1-3.13,0s.88,1.27-1.47,1.27-7.91-.29-9.67-3.37a16.43,16.43,0,0,1-2.05-5.46Z" style="fill:#6d5451;opacity:0.4;mix-blend-mode:multiply"/><path d="M554.78,530.07a.23.23,0,0,0,.14,0,.29.29,0,0,0,.11-.4l-1.9-3.44a.29.29,0,0,0-.4-.11.29.29,0,0,0-.12.4l1.91,3.44A.31.31,0,0,0,554.78,530.07Z" style="fill:#56372f"/><path d="M677.38,392.84a18.6,18.6,0,0,0,12.52,1.83s-2.2,10.07-14.24,9.63-25.43-20.45-25.43-20.45,2.83-5,12.11-2.46S670.41,389,677.38,392.84Z" style="fill:#eb94a4"/><path d="M676.4,404.77h-.76c-5.12-.19-11-3.73-17.54-10.53a85.37,85.37,0,0,1-8.25-10.13.48.48,0,0,1,0-.48c.08-.13,2-3.42,7.61-3.42a18.81,18.81,0,0,1,5,.75,15.81,15.81,0,0,1,9.4,6.37,17.88,17.88,0,0,0,5.74,5.12,18.22,18.22,0,0,0,8.61,2.16h0a17.92,17.92,0,0,0,3.59-.37.46.46,0,0,1,.42.12.45.45,0,0,1,.12.41c0,.1-2.32,10-13.94,10Zm-25.63-20.92c1.58,2.28,13.94,19.61,24.9,20,.25,0,.48,0,.73,0,9.15,0,12.12-6.48,12.85-8.62a18.16,18.16,0,0,1-3,.25h0a18.17,18.17,0,0,1-15.05-7.61,15,15,0,0,0-8.94-6.07,17.9,17.9,0,0,0-4.78-.72C653.16,381.1,651.29,383.15,650.77,383.85Z" style="fill:#ea6a8d"/><path d="M662.34,381.39c9.28,2.57,8.07,7.64,15,11.45A18.61,18.61,0,0,0,687.46,395c-5,1.88-11.51.42-15.5-2.55-.65-.48-1.28.51-.81,1.05a29.7,29.7,0,0,1,5.56,8.42c.31.79.6,1.58.94,2.36a18.67,18.67,0,0,1-2,0c-12-.43-25.43-20.45-25.43-20.45S653.06,378.81,662.34,381.39Z" style="fill:#f3bbb4;opacity:0.4;mix-blend-mode:multiply"/><path d="M487,401.31c.47,1,1.7.37,3.8,1.24-3.83,4.62-.89,11.69,4,9.24s1.91-8.44-.12-9.36c6.8-5.29,10.68,3.95,10.68,3.95l2.66-3.33c-2.89-6.3-10.12-6.15-15.28-2.43C491,400.05,486.49,400.3,487,401.31Zm5.25,7.76c-1.83-2.25,1-5,1-5C497.27,407,494.05,411.33,492.22,409.07Z" style="fill:#f3bbb4"/><path d="M492.83,412.74a4,4,0,0,1-3.66-2.54,7.58,7.58,0,0,1,.87-7.44,8.63,8.63,0,0,0-1.63-.31c-.76-.08-1.48-.16-1.85-.95a.75.75,0,0,1,0-.74c.51-.8,2.68-.89,3.59-.89a10.4,10.4,0,0,1,2.44.25,13.48,13.48,0,0,1,7.59-2.54,8.59,8.59,0,0,1,8.18,5.28.47.47,0,0,1,0,.47l-2.67,3.33a.46.46,0,0,1-.77-.11c0-.05-2.28-5.3-6.17-5.3a5.9,5.9,0,0,0-3.29,1.16,7.38,7.38,0,0,1,2.43,5.17,5.25,5.25,0,0,1-5.05,5.16Zm-5.41-11.54c.14.23.38.28,1.09.36a8.47,8.47,0,0,1,2.43.57.47.47,0,0,1,.27.31.43.43,0,0,1-.09.39,6.7,6.7,0,0,0-1.13,7,3.16,3.16,0,0,0,4.58,1.58A4,4,0,0,0,497,407.6c0-2.2-1.54-4.32-2.52-4.76a.45.45,0,0,1-.26-.36.44.44,0,0,1,.17-.4,7.19,7.19,0,0,1,4.37-1.73c3.62,0,5.89,3.64,6.68,5.18.4-.49,1.07-1.33,2-2.55a7.7,7.7,0,0,0-7.24-4.5A12.63,12.63,0,0,0,493,401a.46.46,0,0,1-.41.07,8.32,8.32,0,0,0-2.38-.28A6.29,6.29,0,0,0,487.42,401.2Zm5.95,8.95a1.91,1.91,0,0,1-1.5-.79c-1.65-2,0-4.59,1.08-5.66a.44.44,0,0,1,.58,0c2.06,1.5,2.36,3.41,1.94,4.68A2.38,2.38,0,0,1,493.37,410.15Zm-.06-5.51c-.62.71-2,2.6-.74,4.15.68.84,1.69.37,2-.72A3.13,3.13,0,0,0,493.31,404.64Z" style="fill:#f09783"/><path d="M492.51,411.75s-1.1-.39-2-2.41c-1.3-3,.64-6.93,4.75-9.51,1.54-.8-1.74-.56-4.47,3.17S489.59,412.15,492.51,411.75Z" style="fill:#d8a182;opacity:0.6000000000000001;mix-blend-mode:screen"/><path d="M490.44,410.33s-3.11-4.46,2.82-9.64C490.15,402.7,487.8,406.72,490.44,410.33Z" style="fill:#fff"/><path d="M637.94,477.66s-27.45-7.84-30.4-6.51c0,0-10.42,22.38,9.77,56.88a20.31,20.31,0,0,0,11.94-.67C628.37,522.09,622.7,502.28,637.94,477.66Z" style="fill:#f3bbb4"/><path d="M622,529.06a17.11,17.11,0,0,1-4.82-.6.45.45,0,0,1-.25-.2c-10.48-17.91-12.59-32.52-12.52-41.61.08-9.89,2.62-15.46,2.73-15.69a.45.45,0,0,1,.23-.22,3.26,3.26,0,0,1,1.3-.19c6,0,28.45,6.41,29.41,6.68a.46.46,0,0,1,.29.27.47.47,0,0,1,0,.4c-13.92,22.48-10.3,40.88-8.93,47.82.12.61.22,1.13.29,1.57a.46.46,0,0,1-.29.5A22.46,22.46,0,0,1,622,529.06Zm-4.38-1.41a17.7,17.7,0,0,0,4.38.51,21.4,21.4,0,0,0,6.75-1.1c-.07-.34-.14-.73-.23-1.17-1.37-7-5-25.41,8.74-47.95-3.62-1-23.28-6.49-28.59-6.49a3.85,3.85,0,0,0-.78.06C607,473.66,598.82,495.43,617.61,527.65Z" style="fill:#f09783"/><path d="M607.54,471.15c3-1.33,30.4,6.51,30.4,6.51a73.63,73.63,0,0,0-7,14.47c0-.12,0-.23,0-.34a.69.69,0,0,0-.85-.65c-7.41,2-12.83,8.82-14,16.26-1.14,7.23,1.69,14.65,5,21.19a15.82,15.82,0,0,1-3.77-.56C597.12,493.53,607.54,471.15,607.54,471.15Z" style="fill:#f3bbb4;opacity:0.4;mix-blend-mode:multiply"/><path d="M612.77,496.39a23.66,23.66,0,0,0-6.4,4.5c-4-18.63,1.17-29.74,1.17-29.74,3-1.33,30.4,6.51,30.4,6.51a75.67,75.67,0,0,0-4.89,9.24C626.22,489.88,619.47,493.17,612.77,496.39Z" style="fill:#f3bbb4;opacity:0.4;mix-blend-mode:multiply"/><path d="M535,492.35A19.51,19.51,0,0,0,538.6,481c8.65,1.47,19.9,3.9,19.9,3.9s-11.13,15.53-7.18,30.62a48.45,48.45,0,0,0,2.85,7.29s-7.79,2.95-12.52-.7c0,0-4.23-10-9.45-22.46C532.09,496.91,533.17,494.93,535,492.35Z" style="fill:#f3bbb4"/><path d="M547.8,524.43a10.24,10.24,0,0,1-6.42-1.92.4.4,0,0,1-.14-.18s-4.24-10-9.45-22.46a.32.32,0,0,1,0-.16c-.12-2.82.92-4.85,2.86-7.62A18.93,18.93,0,0,0,538.15,481a.46.46,0,0,1,.53-.43c8.55,1.45,19.81,3.87,19.92,3.9a.43.43,0,0,1,.32.28.43.43,0,0,1,0,.42c-.11.16-11,15.54-7.11,30.25a48.55,48.55,0,0,0,2.81,7.2.5.5,0,0,1,0,.36.51.51,0,0,1-.26.26A20.42,20.42,0,0,1,547.8,524.43ZM542,521.87a9.45,9.45,0,0,0,5.78,1.66,19.63,19.63,0,0,0,5.74-.95,46.57,46.57,0,0,1-2.65-6.9c-3.54-13.51,4.93-27.49,6.87-30.44-2.47-.53-11.46-2.42-18.72-3.67a19.84,19.84,0,0,1-3.69,11c-1.85,2.64-2.78,4.45-2.7,7C537.53,511.23,541.55,520.75,542,521.87Z" style="fill:#f09783"/><path d="M535,492.35A19.51,19.51,0,0,0,538.6,481c8.65,1.47,19.9,3.9,19.9,3.9a50.23,50.23,0,0,0-5.64,11.15c-5.9-2.12-13.05-.24-13.24,6.91-.21,7.8,4.14,14.12,7.19,20.94a9.43,9.43,0,0,1-5.16-1.79s-4.23-10-9.45-22.46C532.09,496.91,533.17,494.93,535,492.35Z" style="fill:#f3bbb4;opacity:0.4;mix-blend-mode:multiply"/><path d="M494.89,434.12c1.84-20.12,3.59-30.22,22.77-43.36,18.8-12.88,101.72-9.92,116.22-1.25,9.52,6.57,21.89,59,19.07,72.28C648,485,610.81,495,602.85,496.18c-4.31,3.32-4.1,22.18-2.64,33.7,0,0-1.57.47-4.23,1-5.34,1.06-8.39-.81-8.39-.81-4.47-3.51-5.45-12.59-13.62-35.35-16.08-1-27.53-.86-40-6.24-10,15.13-4.82,30.54-4.16,38.27,0,0-7,3.94-12.83-.72,0,0-5.16-8.77-10.14-24.23a7.65,7.65,0,0,1,1-4.9c2.29-1.66,4.63-3.35,5.12-5.95.91-4.73-2.72-9-5-12.85-3.27-5.49-6.28-11.3-9.05-17.07C497.41,457.86,493.45,450,494.89,434.12Z" style="fill:#f3bbb4"/><path d="M592.78,531.65a10.92,10.92,0,0,1-5.42-1.2c-3-2.37-4.47-7-7.34-16.1-1.57-5-3.52-11.23-6.38-19.2q-3.18-.19-6.14-.34c-12.66-.7-22.69-1.24-33.39-5.77-7.89,12.19-5.89,24.59-4.56,32.82.3,1.86.56,3.46.68,4.86a.48.48,0,0,1-.23.43,14.71,14.71,0,0,1-6.5,1.61,10.58,10.58,0,0,1-6.83-2.38c-.16-.1-5.4-9.25-10.28-24.44l0-.11a8,8,0,0,1,1.11-5.18.46.46,0,0,1,.12-.12c2.21-1.61,4.48-3.25,4.94-5.66.72-3.72-1.59-7.3-3.62-10.45-.46-.71-.91-1.41-1.31-2.09-3-5-6-10.61-9.07-17.1l-.11-.22c-1.61-3.36-5.4-11.24-4-26.93,1.84-20.14,3.58-30.41,23-43.7,8-5.5,29.35-8.79,57-8.79,27.28,0,52.38,3.17,59.68,7.54,9.55,6.58,22.17,59.08,19.28,72.75-4.9,23.13-41.32,33.37-50.35,34.73-3.89,3.26-3.89,21.32-2.38,33.22a.46.46,0,0,1-.32.49c-.06,0-1.62.47-4.28,1A17,17,0,0,1,592.78,531.65Zm-4.91-1.93a10.6,10.6,0,0,0,4.91,1,16.9,16.9,0,0,0,3.11-.31c1.87-.38,3.22-.72,3.83-.89-1.18-9.66-2-30,2.86-33.72a.4.4,0,0,1,.2-.09c8.71-1.27,44.91-11.32,49.73-34.05,1.3-6.18-.66-21.63-4.91-38.46-4.46-17.7-9.81-30.48-14-33.35-7.16-4.27-32.07-7.39-59.2-7.39-27.5,0-48.62,3.23-56.51,8.64-19.06,13.06-20.77,23.18-22.58,43-1.4,15.44,2.31,23.17,3.9,26.46l.1.22c3.1,6.47,6.05,12,9,17,.4.67.85,1.36,1.3,2.06,2.12,3.3,4.53,7,3.75,11.11-.53,2.74-2.92,4.49-5.24,6.18a7.19,7.19,0,0,0-.92,4.49c4.71,14.63,9.58,23.24,10,24a9.79,9.79,0,0,0,6.2,2.12,14,14,0,0,0,5.8-1.37c-.12-1.29-.36-2.78-.64-4.49-1.36-8.44-3.42-21.19,4.91-33.77a.44.44,0,0,1,.55-.16c10.69,4.6,20.72,5.14,33.43,5.83,2.07.12,4.21.23,6.44.37a.45.45,0,0,1,.4.3c2.92,8.12,4.9,14.44,6.49,19.51,2.81,9,4.23,13.46,7,15.64Z" style="fill:#f09783"/><path d="M508,478.1c2.27,3.81,5.9,8.12,5,12.85-.49,2.6-2.83,4.29-5.12,5.95a7.65,7.65,0,0,0-1,4.9c5,15.46,10.13,24.23,10.14,24.23,5.78,4.66,12.83.72,12.83.72-.66-7.73-5.86-23.14,4.16-38.27,12.5,5.38,23.95,5.25,40,6.24,8.17,22.76,9.15,31.84,13.62,35.35,0,0,3,1.87,8.39.81,2.66-.53,4.23-1,4.23-1-1.46-11.52-1.67-30.38,2.64-33.7C610.81,495,648,485,653,461.79c2.82-13.31-9.55-65.71-19.07-72.28-14.5-8.67-97.42-11.63-116.22,1.25-19.18,13.14-20.93,23.24-22.77,43.36-1.44,15.91,2.52,23.74,4,26.91C501.7,466.8,504.71,472.61,508,478.1Zm3.13-7.56c-4.74-8.12-9.09-16.6-10.86-25.93-1.55-8.18-.13-17.56,3.65-25.61,0-.09.07-.19.12-.29a44.8,44.8,0,0,1,11.19-15.07,58,58,0,0,1,13.94-10c14-7.27,29.78-8.63,45.27-7.26a114.67,114.67,0,0,1,12.13,1.76,50.13,50.13,0,0,1,10.26,2.75c2.54,1.13,4.47,2.59,5.42,5.26a13.5,13.5,0,0,1,.33,4.57c0,2.45-4.5,20.42-2.72,28.51a41.34,41.34,0,0,0,9.37,17.53c21.24,23.49,1.25,36.68,1.4,36.16A97.91,97.91,0,0,0,612.93,472c-.15.17-.29.35-.43.54a52.11,52.11,0,0,0-3.24,5c-2.32,3.95-4.38,8.12-6.34,12.26a43.83,43.83,0,0,0-4.15,14.55c-.48,4.78-.2,9.61-.23,14.4,0,2.61.16,5.57-1.65,7.68-1.5,1.74-3.83.1-5.06-1-4.77-4.28-6.56-12.37-8.55-18.17-4.73-13.77-6.87-27.82-5.49-42.38.55-5.73,1.65-12.49,4.37-18.13-.11.11-.22.22-.32.34a55.77,55.77,0,0,0-6.82,10.1c-2,3.58-3.13,7.58-4.29,11.51-.81,2.72-1.53,6-3.29,8.27-2.32,3-6.88,3.43-10.38,3.46a36.28,36.28,0,0,1-13.39-2.5.7.7,0,0,1-.47-.82,112.46,112.46,0,0,0,2.66-17.89,54.61,54.61,0,0,1-2.92,8.88c-3.46,8.14-9.93,14.25-13.75,22.14s-4.61,17.64-3,26.08c.4,2.1,1.19,4.22.19,6.24-.9,1.8-3.35,1.08-4.69.46-5.4-2.45-9.49-26.13-8.28-27.36,2.18-3.22,6.42-3.86,6.43-7.93C519.83,482.61,513.57,474.76,511.11,470.54Z" style="fill:#f3bbb4;opacity:0.4;mix-blend-mode:multiply"/><path d="M640.12,478.15c0-4.7-2.24-7.66-6-10.32-5.39-3.81-11.43-6.42-16-11.28a67.68,67.68,0,0,1-11.31-15.86,38.78,38.78,0,0,1-4.58-19.23c.24-7.66.85-15.7,3.27-23,1.43-4.29,4.43-10.12,2.53-14.7,12.13,1.31,21.77,3.31,25.89,5.77,9.52,6.57,21.89,59,19.07,72.28-1.61,7.58-6.68,13.77-13.06,18.7A10.86,10.86,0,0,0,640.12,478.15Z" style="fill:#f3bbb4;opacity:0.4;mix-blend-mode:multiply"/><path d="M607.74,427.81c2.51,13.27,16.32,35.91,40.92,40.89,34.45,2.36,35.85-11.27,42.65-14.42,10.94.33,10.63-27.65,6.76-29-13-4.66-18.44-11-20.67-17.27a45.69,45.69,0,0,0-8.49-13.19c-14.28-15.18-35.87-15.64-48.61-4.09C603.83,405.61,606.08,419.1,607.74,427.81Z" style="fill:#f3bbb4"/><path d="M656.23,469.43h0c-2.39,0-4.94-.09-7.59-.28-24.06-4.86-38.65-27.06-41.35-41.26-1.57-8.3-4.21-22.2,12.71-37.54a32.28,32.28,0,0,1,21.78-8.16,37.58,37.58,0,0,1,27.46,12.28,46.58,46.58,0,0,1,8.57,13.33c2.66,7.47,9.33,13,20.41,17,2.67,1,3.41,10.7,2.14,18-1.34,7.69-4.49,11.93-8.86,11.93h-.09a16.6,16.6,0,0,0-4.31,3.62C682.59,463,676.42,469.43,656.23,469.43Zm-14.45-86.34A31.4,31.4,0,0,0,620.6,391c-16.54,15-14,28.58-12.42,36.7,2.65,14,17,35.77,40.57,40.54,2.58.17,5.11.27,7.48.27,19.8,0,25.82-6.25,30.22-10.8a16.53,16.53,0,0,1,4.67-3.86.49.49,0,0,1,.21,0h.17c5.24,0,7.24-7,8-11.19,1.43-8.23,0-16.4-1.56-17-11.34-4.07-18.19-9.81-20.94-17.54a45.55,45.55,0,0,0-8.38-13A36.7,36.7,0,0,0,641.78,383.09Z" style="fill:#f09783"/><path d="M680.16,417.05c-3.87-6.12-6.86-12.76-11.27-18.54-7.08-9.27-18.65-14.58-30.25-15.72,10.38-1,21.66,2.83,30.27,12A45.69,45.69,0,0,1,677.4,408c2.23,6.29,7.7,12.61,20.67,17.27a1.48,1.48,0,0,1,.66.54C692,424.53,684.08,423.26,680.16,417.05Z" style="fill:#f3bbb4;opacity:0.4;mix-blend-mode:screen"/><path d="M631.09,427.89c6.24-7.95,15.8-12.29,25.89-13.08,7.78-.6,18.37-1.3,24.94,3.84-9-.28-18-1-26.94.8A103.84,103.84,0,0,0,631.09,427.89Z" style="fill:#f3bbb4;opacity:0.4;mix-blend-mode:multiply"/><path d="M620.3,390.69a31.76,31.76,0,0,1,20.81-8c-2.3,2.31.31,6.18,1.14,9.4a23.25,23.25,0,0,1-.11,12.52c-.7,2.15-1.26,3.82-3.66,2.7-1.54-.72-3-1.48-4.63-2.08-4.12-1.55-12-5.32-15.62-.77-4.2,5.26-3.1,13.5-2.59,19.73,1,11.8,8.87,24.73,20.11,29.33,4.74,1.93,11.14,2.9,15.21-1,2.95-2.85,4.13-6.79,4.37-10.78,1.3,3,1.06,6.58.26,9.8a.69.69,0,0,0,.47.83c3.21.92,6.16,2.24,9.5,2.71,1.35.19,3.23.4,4.47-.37a4.55,4.55,0,0,0,2.08-3.92,40.08,40.08,0,0,1,1.77-10.47c1.84-6,4.25-13.58,11.08-15.48a20.34,20.34,0,0,1,13.66.89c3.32,3.74,3.08,29-7.31,28.63-6.8,3.15-8.2,16.78-42.65,14.42-24.6-5-38.41-27.62-40.92-40.89C606.08,419.1,603.83,405.61,620.3,390.69Z" style="fill:#f3bbb4;opacity:0.4;mix-blend-mode:multiply"/><path d="M672.18,402.7s-4.21-4.89-7.16.22C665.93,398.38,669.45,396.22,672.18,402.7Z" style="fill:#9c4802"/><path d="M653.1,402.09s-4.2-4.88-7.16.23C646.85,397.78,650.37,395.62,653.1,402.09Z" style="fill:#9c4802"/><path d="M678,435.93c4.81-8.95,8.35-11.89,13.81-11.58,1.16.06,6.36.66,7.23.84,6.68,2.43,5.11,11.68,4.79,21.68-.3,9.57-9.57,9.47-14.05,10.15-.32,0-11.13,0-11.54,0C672.13,457,673.21,444.88,678,435.93Z" style="fill:#f79797"/><path d="M678.26,457.47a4,4,0,0,1-3.57-2.05c-2.26-3.78-1-12.43,2.93-19.71,4.92-9.15,8.56-12.13,14.23-11.81,1.14.06,6.36.66,7.3.85,6.11,2.22,5.75,9.52,5.33,18-.06,1.36-.13,2.75-.17,4.15-.28,8.9-8.11,9.82-12.8,10.37l-1.64.21h-.12c-.08,0-.59,0-3,0l-7.7,0Zm12.83-32.69c-4.85,0-8.17,3-12.68,11.36-3.7,6.9-5,15.34-2.95,18.81a3.09,3.09,0,0,0,2.8,1.62h11.53l1.62-.2c4.67-.55,11.74-1.39,12-9.51.05-1.41.12-2.81.18-4.17.4-8.09.75-15.09-4.68-17.06-.75-.16-5.91-.76-7.1-.82C691.56,424.78,691.33,424.78,691.09,424.78Z" style="fill:#e26180"/><g style="opacity:0.4;mix-blend-mode:multiply"><path d="M684.81,441.34c2.24-1.6,9.86-15.52,15.27-15.68,5.48,3,4.07,11.76,3.77,21.21s-9.57,9.47-14.05,10.15c-.32,0-11.13,0-11.54,0-5.1,0-5.21-8.38-2.35-16.34C677.72,441,683,442.61,684.81,441.34Z" style="fill:#f79797"/></g><g style="opacity:0.4;mix-blend-mode:multiply"><path d="M680.39,451.61a5.85,5.85,0,0,0,2-4,20.06,20.06,0,0,1,2.26-6.19l.19-.1c2.24-1.6,9.86-15.52,15.27-15.68,5.48,3,4.07,11.76,3.77,21.21s-9.57,9.47-14.05,10.15c-.32,0-11.13,0-11.54,0-2.07,0-3.32-1.39-3.88-3.56A10.93,10.93,0,0,0,680.39,451.61Z" style="fill:#f79797"/></g><path d="M682.39,445.23c2.11-10,7.73-19,14.65-19.93a5.48,5.48,0,0,1,3.64.69,8.4,8.4,0,0,1,1.6,1.36,13,13,0,0,1,2.35,4.41c1.24,4.07,1.25,9.47,1.07,15.11s-4.11,8.39-9.41,9.66C684.39,458.41,680.33,454.93,682.39,445.23Z" style="fill:#f79797"/><path d="M690.81,457.47c-3.77,0-6.34-.9-7.84-2.75-1.63-2-2-5.15-1-9.59,2.74-13,9.53-19.53,15-20.28a5.9,5.9,0,0,1,3.93.76,8.16,8.16,0,0,1,1.7,1.44,12.78,12.78,0,0,1,2.44,4.56c1.33,4.34,1.26,10.16,1.11,15.27s-3.45,8.57-9.77,10.09A36.81,36.81,0,0,1,690.81,457.47Zm7.09-31.78a5.54,5.54,0,0,0-.8.05c-6.14.84-12,8.89-14.27,19.58-.88,4.15-.61,7,.84,8.83,1.91,2.35,6,3,12.55,1.93,5.92-1.42,8.88-4.44,9-9.22.16-5.05.22-10.78-1-15a12.36,12.36,0,0,0-2.26-4.24,7.27,7.27,0,0,0-1.5-1.27A4.89,4.89,0,0,0,697.9,425.69Z" style="fill:#e26180"/><g style="mix-blend-mode:screen"><path d="M705.05,444.76a23.29,23.29,0,0,0,.07-5.78c-.38-3.26-.64-7.11-2.76-9.79a9.91,9.91,0,0,0-6.11-3.75c.26-.05.53-.11.79-.14a5.48,5.48,0,0,1,3.64.69,8.4,8.4,0,0,1,1.6,1.36,13,13,0,0,1,2.35,4.41c1.24,4.07,1.25,9.47,1.07,15.11a9.78,9.78,0,0,1-.79,3.7C704.42,448.72,704.84,446.59,705.05,444.76Z" style="fill:#f79797"/></g><g style="opacity:0.4;mix-blend-mode:multiply"><path d="M682.39,445.23c2-9.4,7.1-18,13.49-19.69a10.68,10.68,0,0,0-4,4,41.15,41.15,0,0,0-4.79,11.57c-.72,3-1.65,6.3-1.43,9.43.42,6.14,9.46,5,13.35,3.46a12.27,12.27,0,0,0,6.58-5.85c-.7,4.8-4.42,7.22-9.3,8.39C684.39,458.41,680.33,454.93,682.39,445.23Z" style="fill:#f79797"/></g><path d="M703.17,437.6s-1.55,2.07-.81,5.83c.48,3.12.38,5-1.13,4.63C698.37,447.38,700,440.64,703.17,437.6Z" style="fill:#d86666;mix-blend-mode:multiply"/><path d="M693.44,438s-1.76,1.88-1.43,5.69c.15,3.17-.15,5-1.61,4.5C687.63,447.23,690,440.7,693.44,438Z" style="fill:#d86666;mix-blend-mode:multiply"/><path d="M607.44,396.7l2.47,7.14s5.62-10.69,12.86-13.61S606.12,379.4,607.44,396.7Z" style="fill:#eb94a4"/><path d="M609.91,404.29h0a.44.44,0,0,1-.39-.3L607,396.84a.45.45,0,0,1,0-.11c-.27-3.63.51-6.47,2.33-8.44a10,10,0,0,1,7.49-2.86c3.8,0,7.42,1.49,7.75,3.2.09.47,0,1.36-1.63,2-7,2.82-12.56,13.3-12.62,13.4A.45.45,0,0,1,609.91,404.29Zm-2-7.69,2.12,6.14c1.54-2.67,6.44-10.45,12.59-12.93.44-.17,1.17-.54,1.08-1-.2-1-3.16-2.47-6.87-2.47A9.12,9.12,0,0,0,610,388.9C608.35,390.67,607.64,393.26,607.89,396.6Z" style="fill:#ea6a8d"/><path d="M607.44,396.7l2.47,7.14s5.62-10.69,12.86-13.61S606.12,379.4,607.44,396.7Z" style="fill:#f3bbb4;opacity:0.4;mix-blend-mode:multiply"/><path d="M609.91,403.84a24.83,24.83,0,0,1-4.59-7.29c-.15-.52-.29-1-.42-1.55-.74-3-2.15-6.68.11-9.35s5.51-2.37,8.79-2.66a30.08,30.08,0,0,1,9.52-7.6c3.36-1.53,7,.42,9.21,2.84,13.41,14.8,8.75,27.24,7,27.38-4.06.34-21.37-15.37-26.75-12.39C611.07,394.16,609.82,401.58,609.91,403.84Z" style="fill:#f3bbb4"/><path d="M639.4,406.07c-1.84,0-5.56-2.43-9.87-5.24-5.41-3.53-11.54-7.53-15.1-7.53a3,3,0,0,0-1.44.31c-1.37.76-2.69,7.51-2.63,10.09a.59.59,0,0,1,0,.14.45.45,0,0,1-.46.45.41.41,0,0,1-.33-.14,24.94,24.94,0,0,1-4.68-7.43c-.17-.57-.31-1.09-.45-1.61-.08-.35-.18-.71-.28-1.08-.74-2.73-1.66-6.13.49-8.67s4.63-2.57,7.37-2.71c.51,0,1,0,1.54-.1,2.34-2.58,5.52-5.74,9.56-7.57a6.38,6.38,0,0,1,2.69-.58,9.93,9.93,0,0,1,7,3.52c4.65,5.14,7.61,10.47,8.8,15.84s.15,9-.35,10.22c-.29.75-.91,2-1.74,2.08Zm-25-13.68c3.83,0,10.08,4.08,15.6,7.68,4,2.62,7.79,5.1,9.37,5.1h.09c.15,0,.7-.58,1.18-2.06.6-1.87,3-11.88-8.48-24.58a9,9,0,0,0-6.36-3.23,5.59,5.59,0,0,0-2.32.5c-4,1.8-7.09,4.95-9.38,7.49a.51.51,0,0,1-.29.15c-.59.05-1.18.08-1.75.11-2.65.14-4.93.26-6.73,2.39s-1,5.19-.31,7.85c.1.38.2.74.29,1.1s.27,1,.41,1.54a25.31,25.31,0,0,0,3.75,6.27c.21-3,1.33-8.92,3.06-9.88A3.91,3.91,0,0,1,614.43,392.39Z" style="fill:#f09783"/><path d="M611.27,392.74c2.3-1,4.74-.35,6.92.64.09,0,.29.38.08.33-1.95-.4-3.67-1-5.68-.63a5,5,0,0,0-4.18,3.89c0,.12-.18,0-.18-.11A4.46,4.46,0,0,1,611.27,392.74Z" style="fill:#f09783"/><path d="M612.19,383a12.32,12.32,0,0,1,2.77-.31,14.35,14.35,0,0,0,3.6-.76,10.52,10.52,0,0,0,4.37-2.49s.13.06.1.11a7.51,7.51,0,0,1-3.68,2.75,15.39,15.39,0,0,1-7,1C612.23,383.29,612,383,612.19,383Z" style="fill:#f09783"/><path d="M651,383.7l-.14-.05a20.18,20.18,0,0,0-2-.72c1.84-2.53,5.59-4,8.55-4.54,3.69-.66,7.35.8,10.36,2.81,3.62,2.42,5.81,6.28,9.3,8.83,3.72,2.73,7.9,3.67,12.42,4a.54.54,0,0,1,.43.63c-.44,1-1.8,1.42-2.78,1.76a10,10,0,0,1-5.49.06,25.35,25.35,0,0,1-5.84-2,32,32,0,0,1-4.69-3.31c-3.58-2.84-6.91-6.09-11.71-6.43a13.45,13.45,0,0,0-5,.23A16.56,16.56,0,0,0,651,383.7Z" style="fill:#f3bbb4"/><path d="M684.45,397.3a11.9,11.9,0,0,1-2.93-.38,25.59,25.59,0,0,1-5.95-2,32.21,32.21,0,0,1-4.64-3.26l-.11-.09c-.47-.37-.94-.74-1.4-1.12-3.1-2.53-6-4.93-10.07-5.2l-.3,0c-.63,0-1.35-.09-2.06-.09a7.26,7.26,0,0,0-2.42.32.45.45,0,0,1-.36,0,15.75,15.75,0,0,0-3.32-1.24l-.13-.05a18.63,18.63,0,0,0-2-.72.47.47,0,0,1-.31-.29.46.46,0,0,1,.07-.41c1.94-2.68,5.83-4.19,8.83-4.73,3.32-.59,7,.4,10.69,2.89a27.68,27.68,0,0,1,5,4.66,30,30,0,0,0,4.32,4.18c3.19,2.32,6.94,3.53,12.19,3.92a1,1,0,0,1,.73.48.87.87,0,0,1,.08.78c-.48,1.14-1.83,1.59-2.82,1.93l-.22.08A8.64,8.64,0,0,1,684.45,397.3ZM657,384.18c.74,0,1.48.05,2.12.1l.31,0c4.32.3,7.5,2.89,10.57,5.4l1.39,1.12.11.09a32.09,32.09,0,0,0,4.51,3.17,25,25,0,0,0,5.74,2A9.42,9.42,0,0,0,687,396l.23-.08c.87-.29,1.95-.66,2.28-1.42,0,0-.06,0-.08,0-5.39-.4-9.29-1.67-12.62-4.09a30.81,30.81,0,0,1-4.46-4.3,26.51,26.51,0,0,0-4.82-4.52c-3.53-2.36-7-3.29-10-2.75-2.63.47-6,1.72-7.86,3.87.42.14.88.31,1.42.53l0,.47.12-.43a16.06,16.06,0,0,1,3.34,1.23A8.61,8.61,0,0,1,657,384.18Z" style="fill:#f09783"/><path d="M654.11,379.3a6.32,6.32,0,0,0-1.45,2.56.67.67,0,0,0,.65.85c9.07-1.2,14.92,4.61,22.2,8.86,4.18,2.44,9.6,5.05,14.28,3.28a4.73,4.73,0,0,1-2.67,1.58,10,10,0,0,1-5.49.06,25.35,25.35,0,0,1-5.84-2,32,32,0,0,1-4.69-3.31c-3.58-2.84-6.91-6.09-11.71-6.43a13.45,13.45,0,0,0-5,.23A16.56,16.56,0,0,0,651,383.7l-.14-.05a20.18,20.18,0,0,0-2-.72A11.58,11.58,0,0,1,654.11,379.3Z" style="fill:#f3bbb4;opacity:0.4;mix-blend-mode:multiply"/><path d="M671,413.24c.58,2.26,1.84,3.94,2.85,3.79s1.33-2.13.77-4.38-1.84-3.94-2.83-3.79S670.44,411,671,413.24Z"/><path d="M671.32,411.56c.15.6.49,1.06.76,1s.35-.57.2-1.17-.49-1-.75-1S671.17,411,671.32,411.56Z" style="fill:#fff;mix-blend-mode:screen"/><path d="M648.59,415.46c.58,2.25,1.84,3.93,2.85,3.78s1.33-2.13.77-4.38-1.83-3.94-2.83-3.79S648,413.2,648.59,415.46Z"/><path d="M648.91,413.77c.15.61.49,1.06.76,1s.35-.56.2-1.16-.49-1.05-.75-1S648.76,413.17,648.91,413.77Z" style="fill:#fff;mix-blend-mode:screen"/><path d="M605,385.65c2.34-2.77,5.51-2.37,8.79-2.66a30.08,30.08,0,0,1,9.52-7.6,6.35,6.35,0,0,1,1.14-.38c1.76,1.12.41,4.56-.32,5.93-1.13,2.15-2.85,2.88-5.22,3.11-3,.28-6.63.05-8.88,2.5a.68.68,0,0,0,.48,1.14c4.72.34,9.46,2.31,13.65,4.41a53.72,53.72,0,0,1,9.36,5.76c2.33,1.85,5.77,2.88,6-1.25a27.22,27.22,0,0,0-4.06-14.79c9.72,13.17,5.67,23.66,4.06,23.79-4.06.34-21.37-15.37-26.75-12.39-1.71.94-3,8.36-2.87,10.62a24.83,24.83,0,0,1-4.59-7.29c-.15-.52-.29-1-.42-1.55C604.16,392,602.75,388.32,605,385.65Z" style="fill:#f3bbb4;opacity:0.4;mix-blend-mode:multiply"/><path d="M654.2,451.13l.06.09a7.82,7.82,0,0,0,.62-1.82,16.64,16.64,0,0,0,.77-3.72,11.06,11.06,0,0,1-.45,6.62c4,4.24,10.35,6.11,16.07,6,4.74-.08,10.54-2.7,15.19-1.09,0,0,.13.17,0,.15-3.33-.57-7.31.49-10.57,1.15a24.14,24.14,0,0,1-10,.31c-3.19-.73-7.09-1.8-9.62-4-.46-.41-1.06-.89-1.65-1.44a7.73,7.73,0,0,1-6.29,3.74h0A11.45,11.45,0,0,0,654.2,451.13Z" style="fill:#c36564"/><path d="M571.11,471.74c0-.16.3.1.29.21-.58,4.49-1,8.93.14,13.37a100.33,100.33,0,0,0,3.15,11c0,.13-.11.07-.14,0-1.65-4.15-3.39-7.88-4.44-12.24A22.62,22.62,0,0,1,571.11,471.74Z" style="fill:#c36564"/><path d="M533.08,489.25c1.39-2.76,3.22-5.29,4.47-8.15.07-.17.35.13.3.28-.55,1.58-1.3,3-2,4.58-.52,1.26-1.22,3-2.41,3.72C533.29,489.8,533,489.44,533.08,489.25Z" style="fill:#c36564"/><path d="M602.12,496.6a31.14,31.14,0,0,1,4-7.54c.08-.11.26.09.22.19-.67,1.36-1.38,2.69-2.11,4s-1.07,2.5-1.76,3.67C602.37,497.16,602.07,496.78,602.12,496.6Z" style="fill:#c36564"/><path d="M633.4,381c2.27,3.93,4.06,7.61,4.27,12.27,0,.39-.44,0-.48-.17a27.43,27.43,0,0,0-4.07-10.43,22.33,22.33,0,0,0-4.45-5.24A16.62,16.62,0,0,1,633.4,381Z" style="fill:#f3bbb4;opacity:0.4;mix-blend-mode:screen"/><path d="M659.66,379.44c-.12-.06-.23-.13-.36-.18,2.41-.39,4.73.9,6.82,2a19.28,19.28,0,0,1,3.9,3.2,13.06,13.06,0,0,1,1.15,1.43C667.82,383.06,663.78,381.23,659.66,379.44Z" style="fill:#f3bbb4;opacity:0.4;mix-blend-mode:screen"/><path d="M542.48,392.25s-32.43,8.57-37.9,35.64C504.58,427.89,517.48,403.2,542.48,392.25Z" style="fill:#f3bbb4;opacity:0.4;mix-blend-mode:screen"/><path d="M597.39,494.27a54.11,54.11,0,0,1,1.73-6,20.18,20.18,0,0,1,3.67-6.52c.21-.28.58.21.51.44-1.33,4.4-3.11,8.66-4.19,13.13-1,4.05-1.19,8.17-2,12.21-.09.45-.68-.06-.69-.34A61.44,61.44,0,0,1,597.39,494.27Z" style="fill:#f3bbb4;opacity:0.4;mix-blend-mode:screen"/><path d="M628.26,495.14c.1-.14.34.16.31.27a82.78,82.78,0,0,0-2.38,9.8c-.68,4.57-.29,9,0,13.61,0,.31-.34,0-.38-.14C623.89,510.64,622.76,502,628.26,495.14Z" style="fill:#f3bbb4;opacity:0.4;mix-blend-mode:screen"/><path d="M530.22,484.28c.13-.15.39.2.33.34a63.43,63.43,0,0,0-2.79,6,73.78,73.78,0,0,0-2.17,8.13,55.75,55.75,0,0,0-.9,14.53c0,.3-.34,0-.37-.14C522.83,503,523.13,492.4,530.22,484.28Z" style="fill:#f3bbb4;opacity:0.4;mix-blend-mode:screen"/><path d="M547.85,504.42a12.25,12.25,0,0,1,2.28-5.6c.12-.17.38.11.35.26a58.15,58.15,0,0,0-1,12.63c0,.29-.41,0-.44-.16C548.34,509,547.45,507.07,547.85,504.42Z" style="fill:#f3bbb4;opacity:0.4;mix-blend-mode:screen"/><path d="M681.33,418.63s-24.22-4-44.88,7.18C636.45,425.81,655,417.12,681.33,418.63Z" style="fill:#f3bbb4;opacity:0.4;mix-blend-mode:screen"/><path d="M679.88,435.46q1.05-2.11,2.23-4.16c.72-1.09,1.44-2.12,2.11-3a7.79,7.79,0,0,1,5.86-3.15A49.16,49.16,0,0,0,679.88,435.46Z" style="fill:#f79797;mix-blend-mode:screen"/><path d="M936.23,402.69a28.32,28.32,0,0,1,.52,5.26A20.06,20.06,0,0,1,932.26,421,23.35,23.35,0,0,1,921,428.2a59.47,59.47,0,0,1-17.56,2.31,64.06,64.06,0,0,1-21.53-3.33q2.94-13.33,3-35.51a235.09,235.09,0,0,0-3.72-44.09,76.53,76.53,0,0,1,20.51-2.95q26.65,0,29.61,19.61a21.18,21.18,0,0,1,.25,3.21q0,13.07-12.94,19.09Q933.67,389.24,936.23,402.69Zm-22.68-29.6a7.19,7.19,0,0,0-2.31-6.16,10.39,10.39,0,0,0-7.18-2.3,23.61,23.61,0,0,0-5.25.64q1,6.8,1.66,17.3Q913,380.53,913.55,373.09Zm4,30.25q-1-8.85-16.53-7.82.25,4.86.25,9.35c0,3-.08,5.69-.25,8.08,1.28.08,2.47.13,3.59.13q6.78,0,10.12-2.7A7.4,7.4,0,0,0,917.52,403.34Z" style="fill:#001e28;stroke:#f0f0f0;stroke-miterlimit:10;stroke-width:20px"/><path d="M990.83,405q-.12,12.83-7.17,19.61a23.18,23.18,0,0,1-14.87,6.28,23.62,23.62,0,0,1-15.89-4.36q-8.21-5.76-11-17.17a39.34,39.34,0,0,1-1.28-10q0-11.4,5.77-19.22A20.06,20.06,0,0,1,963,371.55q12-.14,18.59,8.33,5.64,7.69,6.28,21-5.26.14-10.26.51a185.7,185.7,0,0,0-21.15,2.44,27,27,0,0,0,2.63,10.32q2.11,4,5.19,3.78,4.23-.39,4.23-7.05a17.52,17.52,0,0,0-.38-3.59Q974,406.55,990.83,405Zm-20.76-11.28q-1.41-10-7.31-9.1-4.6.64-6.15,10.38A90.12,90.12,0,0,0,970.07,393.72Z" style="fill:#001e28;stroke:#f0f0f0;stroke-miterlimit:10;stroke-width:20px"/><path d="M1050.18,370.14q1.15,20.89,1.15,28.71a161.9,161.9,0,0,1-3.46,35.37,44.9,44.9,0,0,1-10.25,20.64q-8.34,9-19.48,9-10.14,0-16.15-6.53t-6-16.92a35.79,35.79,0,0,1,1.41-9.74,90.42,90.42,0,0,0,19.48,6.15,15.38,15.38,0,0,0-.51,4q0,5.89,3.59,6.67,4,.88,8.27-4.75t6.09-15.25a84.75,84.75,0,0,0,1.28-8.84q-8.85,12.56-22.18,11.66A18.41,18.41,0,0,1,999,422.56q-4.49-6.4-4.49-16a34.21,34.21,0,0,1,7.05-20.89q7.81-10.51,18.84-10.26a19,19,0,0,1,14.36,6.54q-.65-3.33-2.18-9.87Q1040,371,1050.18,370.14Zm-19.93,23.33a5.52,5.52,0,0,0-4.68-1.93,11.12,11.12,0,0,0-9,4.62q-3.64,4.6-3.65,9.1a7.87,7.87,0,0,0,1.73,5.25,6.09,6.09,0,0,0,4.94,2.05q5.12,0,9-4.74a14.63,14.63,0,0,0,3.2-9.23A8.21,8.21,0,0,0,1030.25,393.47Z" style="fill:#001e28;stroke:#f0f0f0;stroke-miterlimit:10;stroke-width:20px"/><path d="M1076.2,357.71a10.44,10.44,0,0,1,.38,2.69q0,6.66-7.18,9.1a14.16,14.16,0,0,1-4.48.77,10.48,10.48,0,0,1-6.67-2.12,7.15,7.15,0,0,1-2.69-6q0-6,6.54-8.84a13.83,13.83,0,0,1,5.51-1.16Q1074.66,352.19,1076.2,357.71Zm1.28,71.77q-4.74.51-19.36,2.57a144.57,144.57,0,0,0,1.54-22.82,225.13,225.13,0,0,0-2.3-32.94l18.2-2.82q-.39,5.38-.39,13.46A334.79,334.79,0,0,0,1077.48,429.48Z" style="fill:#001e28;stroke:#f0f0f0;stroke-miterlimit:10;stroke-width:20px"/><path d="M1124.65,431.66q-8.46-1.53-19.1-3a71.53,71.53,0,0,0,4-23.45q0-14.49-4.74-15.9a5.27,5.27,0,0,0-1.67-.25q-2.94,0-5.51,3.46.76,23.07,2.56,40.37-9.87-.65-17.94-.38.9-12.3.9-25.76,0-16.67-1.41-31a52.49,52.49,0,0,0,5.38-.52,46.06,46.06,0,0,0,10.38-2.3v5.64a18.44,18.44,0,0,1,12.31-4.75q18.59,0,18.58,29.1A131.35,131.35,0,0,1,1124.65,431.66Z" style="fill:#001e28;stroke:#f0f0f0;stroke-miterlimit:10;stroke-width:20px"/><path d="M1175.79,431.66q-8.46-1.53-19.1-3a71.79,71.79,0,0,0,4-23.45q0-14.49-4.74-15.9a5.27,5.27,0,0,0-1.67-.25q-2.94,0-5.51,3.46.77,23.07,2.56,40.37-9.87-.65-17.94-.38.9-12.3.9-25.76,0-16.67-1.41-31a52.49,52.49,0,0,0,5.38-.52,46.06,46.06,0,0,0,10.38-2.3v5.64a18.44,18.44,0,0,1,12.31-4.75q18.58,0,18.58,29.1A131.35,131.35,0,0,1,1175.79,431.66Z" style="fill:#001e28;stroke:#f0f0f0;stroke-miterlimit:10;stroke-width:20px"/><path d="M1204.49,357.71a10.05,10.05,0,0,1,.39,2.69q0,6.66-7.18,9.1a14.22,14.22,0,0,1-4.49.77,10.45,10.45,0,0,1-6.66-2.12,7.15,7.15,0,0,1-2.69-6q0-6,6.54-8.84a13.83,13.83,0,0,1,5.51-1.16Q1203,352.19,1204.49,357.71Zm1.29,71.77q-4.76.51-19.36,2.57a144.57,144.57,0,0,0,1.54-22.82,223.71,223.71,0,0,0-2.31-32.94l18.2-2.82q-.37,5.38-.38,13.46A334.79,334.79,0,0,0,1205.78,429.48Z" style="fill:#001e28;stroke:#f0f0f0;stroke-miterlimit:10;stroke-width:20px"/><path d="M1252.94,431.66q-8.46-1.53-19.1-3a71.54,71.54,0,0,0,4-23.45q0-14.49-4.74-15.9a5.31,5.31,0,0,0-1.67-.25c-2,0-3.8,1.15-5.51,3.46q.76,23.07,2.56,40.37-9.87-.65-17.94-.38.88-12.3.89-25.76,0-16.67-1.41-31a52.69,52.69,0,0,0,5.39-.52,46.31,46.31,0,0,0,10.38-2.3v5.64a18.39,18.39,0,0,1,12.3-4.75q18.59,0,18.59,29.1A130.81,130.81,0,0,1,1252.94,431.66Z" style="fill:#001e28;stroke:#f0f0f0;stroke-miterlimit:10;stroke-width:20px"/><path d="M1316.64,370.14q1.15,20.89,1.15,28.71a161.9,161.9,0,0,1-3.46,35.37q-2.82,12.43-10.25,20.64-8.32,9-19.48,9-10.12,0-16.15-6.53t-6-16.92a35.79,35.79,0,0,1,1.41-9.74,90.52,90.52,0,0,0,19.49,6.15,15,15,0,0,0-.52,4q0,5.89,3.59,6.67,4,.88,8.27-4.75t6.09-15.25a82.13,82.13,0,0,0,1.28-8.84q-8.85,12.56-22.17,11.66a18.43,18.43,0,0,1-14.36-7.69q-4.49-6.4-4.49-16a34.21,34.21,0,0,1,7-20.89q7.83-10.51,18.85-10.26a19,19,0,0,1,14.35,6.54q-.65-3.33-2.18-9.87Q1306.52,371,1316.64,370.14Zm-19.93,23.33a5.5,5.5,0,0,0-4.68-1.93,11.09,11.09,0,0,0-9,4.62q-3.66,4.6-3.66,9.1a7.87,7.87,0,0,0,1.73,5.25,6.1,6.1,0,0,0,4.94,2.05c3.41,0,6.41-1.58,9-4.74a14.57,14.57,0,0,0,3.2-9.23A8.21,8.21,0,0,0,1296.71,393.47Z" style="fill:#001e28;stroke:#f0f0f0;stroke-miterlimit:10;stroke-width:20px"/><path d="M1014.22,532.54q.25,11.93-8.46,18.84a27.72,27.72,0,0,1-18.32,6.28q-20.64,0-32.17-16.66a184,184,0,0,1,12.81-18.33,25.43,25.43,0,0,0,9,9.87,18.82,18.82,0,0,0,10.39,3.59,7.88,7.88,0,0,0,4.74-1.48,4.84,4.84,0,0,0,2.05-4.16q0-6.79-13.72-13.08-11.26-5.11-16.14-9.61a22,22,0,0,1-7.82-16.28,21,21,0,0,1,4.23-13.71q5.64-7.69,16.66-8.46a32.77,32.77,0,0,1,20.89,5.38,38.94,38.94,0,0,1,13.2,15.77,128.61,128.61,0,0,0-18.07,11.15,15.35,15.35,0,0,0-4.68-6.86,10.27,10.27,0,0,0-6.6-2.75q-5.64,0-5,5.51.39,3.72,4.36,6.28,2.57,1.67,10.77,4.61Q1014,516.27,1014.22,532.54Z" style="fill:#001e28;stroke:#f0f0f0;stroke-miterlimit:10;stroke-width:20px"/><path d="M1062.42,528.57q.63,12-4.62,20-5.64,8.34-16.15,9.1a20.9,20.9,0,0,1-13.07-3.33q-7.56-4.87-9.74-15.38a38.78,38.78,0,0,1-.9-8.33q0-12.32,5.9-21.28,6.27-9.48,16-9.61,8.84-.14,15.25,7.69Q1061.65,515.63,1062.42,528.57Zm-14.87,2.88a21.36,21.36,0,0,0-2.76-9.53q-2.24-3.6-5.19-3.35c-2.31.17-4.16,1.63-5.57,4.38a20.59,20.59,0,0,0-2.12,9.53,26.53,26.53,0,0,0,.26,3.73q1.66,9.91,8.07,9.27c2.48-.25,4.38-1.76,5.71-4.5A18.6,18.6,0,0,0,1047.55,531.45Z" style="fill:#001e28;stroke:#f0f0f0;stroke-miterlimit:10;stroke-width:20px"/><path d="M1113.17,555.86a75.2,75.2,0,0,0-15.89,1.54q.26-3.92.26-6a20.08,20.08,0,0,1-12.82,4.49,21.23,21.23,0,0,1-3.21-.26q-7.3-.9-11.15-7.88t-3.84-18.27q0-13.46,5.38-30.12l18.33,3.34a76.5,76.5,0,0,0-4.74,25.37q0,11.81,4.61,12.56,4.23.78,7.44-3.33-.52-18.33-3-37.3,10.89.27,17.69-1.66A254.41,254.41,0,0,0,1111,524,217.29,217.29,0,0,0,1113.17,555.86Z" style="fill:#001e28;stroke:#f0f0f0;stroke-miterlimit:10;stroke-width:20px"/><path d="M1160.6,557.66q-8.46-1.53-19.1-2.95a71.53,71.53,0,0,0,4-23.45q0-14.49-4.74-15.9a5.27,5.27,0,0,0-1.67-.25q-2.94,0-5.51,3.46.77,23.07,2.57,40.37-9.88-.65-17.95-.38.9-12.3.9-25.76,0-16.66-1.41-31a52.49,52.49,0,0,0,5.38-.52,46.06,46.06,0,0,0,10.38-2.3v5.64a18.44,18.44,0,0,1,12.31-4.75q18.58,0,18.58,29.1A131.35,131.35,0,0,1,1160.6,557.66Z" style="fill:#001e28;stroke:#f0f0f0;stroke-miterlimit:10;stroke-width:20px"/><path d="M1222.89,455.25q-3.47,29.1-3.46,68.57a294.39,294.39,0,0,0,1.41,32.56h-2.57a104.71,104.71,0,0,0-14.61,1.41,56.61,56.61,0,0,0,.77-7.82,22,22,0,0,1-29.22-1.15q-6.29-6.41-6.54-17.31a36.74,36.74,0,0,1,5-19.86q6.15-10.65,16.53-11.15,8.85-.51,15.13,6.66a415,415,0,0,0-3.59-48.58A122.72,122.72,0,0,0,1222.89,455.25ZM1203,530.1a15.74,15.74,0,0,0,.26-2.82q0-7.17-6.28-8.33a9.29,9.29,0,0,0-8.14,2.69,13.39,13.39,0,0,0-4.3,9,8.49,8.49,0,0,0,2.25,7,7.64,7.64,0,0,0,6.34,2.5Q1201.35,539.59,1203,530.1Z" style="fill:#001e28;stroke:#f0f0f0;stroke-miterlimit:10;stroke-width:20px"/><path d="M1271.72,542.67a12.91,12.91,0,0,1-6.22,11.15q-6.09,4-15.06,3.84-14.87-.12-24-12.3A79.81,79.81,0,0,1,1238,532a20.18,20.18,0,0,0,5.9,7.3,10.33,10.33,0,0,0,5.89,2.31c2,0,3-.85,3-2.56q0-3.6-8.46-7.18-14.1-6-14.61-16.41a14.88,14.88,0,0,1,3.47-10.51q4.62-5.5,13.88-5.89,18.39-.9,24.69,19.22a46.82,46.82,0,0,0-16.62,4.87q-3.21-8.19-7.6-8.2c-1.63,0-2.31.85-2.06,2.56q.64,4.23,7.57,7.69,11.91,5.64,12.43,6Q1271.85,535.61,1271.72,542.67Z" style="fill:#001e28;stroke:#f0f0f0;stroke-miterlimit:10;stroke-width:20px"/><path d="M936.23,402.69a28.32,28.32,0,0,1,.52,5.26A20.06,20.06,0,0,1,932.26,421,23.35,23.35,0,0,1,921,428.2a59.47,59.47,0,0,1-17.56,2.31,64.06,64.06,0,0,1-21.53-3.33q2.94-13.33,3-35.51a235.09,235.09,0,0,0-3.72-44.09,76.53,76.53,0,0,1,20.51-2.95q26.65,0,29.61,19.61a21.18,21.18,0,0,1,.25,3.21q0,13.07-12.94,19.09Q933.67,389.24,936.23,402.69Zm-22.68-29.6a7.19,7.19,0,0,0-2.31-6.16,10.39,10.39,0,0,0-7.18-2.3,23.61,23.61,0,0,0-5.25.64q1,6.8,1.66,17.3Q913,380.53,913.55,373.09Zm4,30.25q-1-8.85-16.53-7.82.25,4.86.25,9.35c0,3-.08,5.69-.25,8.08,1.28.08,2.47.13,3.59.13q6.78,0,10.12-2.7A7.4,7.4,0,0,0,917.52,403.34Z" style="fill:#001e28"/><path d="M990.83,405q-.12,12.83-7.17,19.61a23.18,23.18,0,0,1-14.87,6.28,23.62,23.62,0,0,1-15.89-4.36q-8.21-5.76-11-17.17a39.34,39.34,0,0,1-1.28-10q0-11.4,5.77-19.22A20.06,20.06,0,0,1,963,371.55q12-.14,18.59,8.33,5.64,7.69,6.28,21-5.26.14-10.26.51a185.7,185.7,0,0,0-21.15,2.44,27,27,0,0,0,2.63,10.32q2.11,4,5.19,3.78,4.23-.39,4.23-7.05a17.52,17.52,0,0,0-.38-3.59Q974,406.55,990.83,405Zm-20.76-11.28q-1.41-10-7.31-9.1-4.6.64-6.15,10.38A90.12,90.12,0,0,0,970.07,393.72Z" style="fill:#001e28"/><path d="M1050.18,370.14q1.15,20.89,1.15,28.71a161.9,161.9,0,0,1-3.46,35.37,44.9,44.9,0,0,1-10.25,20.64q-8.34,9-19.48,9-10.14,0-16.15-6.53t-6-16.92a35.79,35.79,0,0,1,1.41-9.74,90.42,90.42,0,0,0,19.48,6.15,15.38,15.38,0,0,0-.51,4q0,5.89,3.59,6.67,4,.88,8.27-4.75t6.09-15.25a84.75,84.75,0,0,0,1.28-8.84q-8.85,12.56-22.18,11.66A18.41,18.41,0,0,1,999,422.56q-4.49-6.4-4.49-16a34.21,34.21,0,0,1,7.05-20.89q7.81-10.51,18.84-10.26a19,19,0,0,1,14.36,6.54q-.65-3.33-2.18-9.87Q1040,371,1050.18,370.14Zm-19.93,23.33a5.52,5.52,0,0,0-4.68-1.93,11.12,11.12,0,0,0-9,4.62q-3.64,4.6-3.65,9.1a7.87,7.87,0,0,0,1.73,5.25,6.09,6.09,0,0,0,4.94,2.05q5.12,0,9-4.74a14.63,14.63,0,0,0,3.2-9.23A8.21,8.21,0,0,0,1030.25,393.47Z" style="fill:#001e28"/><path d="M1076.2,357.71a10.44,10.44,0,0,1,.38,2.69q0,6.66-7.18,9.1a14.16,14.16,0,0,1-4.48.77,10.48,10.48,0,0,1-6.67-2.12,7.15,7.15,0,0,1-2.69-6q0-6,6.54-8.84a13.83,13.83,0,0,1,5.51-1.16Q1074.66,352.19,1076.2,357.71Zm1.28,71.77q-4.74.51-19.36,2.57a144.57,144.57,0,0,0,1.54-22.82,225.13,225.13,0,0,0-2.3-32.94l18.2-2.82q-.39,5.38-.39,13.46A334.79,334.79,0,0,0,1077.48,429.48Z" style="fill:#001e28"/><path d="M1124.65,431.66q-8.46-1.53-19.1-3a71.53,71.53,0,0,0,4-23.45q0-14.49-4.74-15.9a5.27,5.27,0,0,0-1.67-.25q-2.94,0-5.51,3.46.76,23.07,2.56,40.37-9.87-.65-17.94-.38.9-12.3.9-25.76,0-16.67-1.41-31a52.49,52.49,0,0,0,5.38-.52,46.06,46.06,0,0,0,10.38-2.3v5.64a18.44,18.44,0,0,1,12.31-4.75q18.59,0,18.58,29.1A131.35,131.35,0,0,1,1124.65,431.66Z" style="fill:#001e28"/><path d="M1175.79,431.66q-8.46-1.53-19.1-3a71.79,71.79,0,0,0,4-23.45q0-14.49-4.74-15.9a5.27,5.27,0,0,0-1.67-.25q-2.94,0-5.51,3.46.77,23.07,2.56,40.37-9.87-.65-17.94-.38.9-12.3.9-25.76,0-16.67-1.41-31a52.49,52.49,0,0,0,5.38-.52,46.06,46.06,0,0,0,10.38-2.3v5.64a18.44,18.44,0,0,1,12.31-4.75q18.58,0,18.58,29.1A131.35,131.35,0,0,1,1175.79,431.66Z" style="fill:#001e28"/><path d="M1204.49,357.71a10.05,10.05,0,0,1,.39,2.69q0,6.66-7.18,9.1a14.22,14.22,0,0,1-4.49.77,10.45,10.45,0,0,1-6.66-2.12,7.15,7.15,0,0,1-2.69-6q0-6,6.54-8.84a13.83,13.83,0,0,1,5.51-1.16Q1203,352.19,1204.49,357.71Zm1.29,71.77q-4.76.51-19.36,2.57a144.57,144.57,0,0,0,1.54-22.82,223.71,223.71,0,0,0-2.31-32.94l18.2-2.82q-.37,5.38-.38,13.46A334.79,334.79,0,0,0,1205.78,429.48Z" style="fill:#001e28"/><path d="M1252.94,431.66q-8.46-1.53-19.1-3a71.54,71.54,0,0,0,4-23.45q0-14.49-4.74-15.9a5.31,5.31,0,0,0-1.67-.25c-2,0-3.8,1.15-5.51,3.46q.76,23.07,2.56,40.37-9.87-.65-17.94-.38.88-12.3.89-25.76,0-16.67-1.41-31a52.69,52.69,0,0,0,5.39-.52,46.31,46.31,0,0,0,10.38-2.3v5.64a18.39,18.39,0,0,1,12.3-4.75q18.59,0,18.59,29.1A130.81,130.81,0,0,1,1252.94,431.66Z" style="fill:#001e28"/><path d="M1316.64,370.14q1.15,20.89,1.15,28.71a161.9,161.9,0,0,1-3.46,35.37q-2.82,12.43-10.25,20.64-8.32,9-19.48,9-10.12,0-16.15-6.53t-6-16.92a35.79,35.79,0,0,1,1.41-9.74,90.52,90.52,0,0,0,19.49,6.15,15,15,0,0,0-.52,4q0,5.89,3.59,6.67,4,.88,8.27-4.75t6.09-15.25a82.13,82.13,0,0,0,1.28-8.84q-8.85,12.56-22.17,11.66a18.43,18.43,0,0,1-14.36-7.69q-4.49-6.4-4.49-16a34.21,34.21,0,0,1,7-20.89q7.83-10.51,18.85-10.26a19,19,0,0,1,14.35,6.54q-.65-3.33-2.18-9.87Q1306.52,371,1316.64,370.14Zm-19.93,23.33a5.5,5.5,0,0,0-4.68-1.93,11.09,11.09,0,0,0-9,4.62q-3.66,4.6-3.66,9.1a7.87,7.87,0,0,0,1.73,5.25,6.1,6.1,0,0,0,4.94,2.05c3.41,0,6.41-1.58,9-4.74a14.57,14.57,0,0,0,3.2-9.23A8.21,8.21,0,0,0,1296.71,393.47Z" style="fill:#001e28"/><path d="M1014.22,532.54q.25,11.93-8.46,18.84a27.72,27.72,0,0,1-18.32,6.28q-20.64,0-32.17-16.66a184,184,0,0,1,12.81-18.33,25.43,25.43,0,0,0,9,9.87,18.82,18.82,0,0,0,10.39,3.59,7.88,7.88,0,0,0,4.74-1.48,4.84,4.84,0,0,0,2.05-4.16q0-6.79-13.72-13.08-11.26-5.11-16.14-9.61a22,22,0,0,1-7.82-16.28,21,21,0,0,1,4.23-13.71q5.64-7.69,16.66-8.46a32.77,32.77,0,0,1,20.89,5.38,38.94,38.94,0,0,1,13.2,15.77,128.61,128.61,0,0,0-18.07,11.15,15.35,15.35,0,0,0-4.68-6.86,10.27,10.27,0,0,0-6.6-2.75q-5.64,0-5,5.51.39,3.72,4.36,6.28,2.57,1.67,10.77,4.61Q1014,516.27,1014.22,532.54Z" style="fill:#001e28"/><path d="M1062.42,528.57q.63,12-4.62,20-5.64,8.34-16.15,9.1a20.9,20.9,0,0,1-13.07-3.33q-7.56-4.87-9.74-15.38a38.78,38.78,0,0,1-.9-8.33q0-12.32,5.9-21.28,6.27-9.48,16-9.61,8.84-.14,15.25,7.69Q1061.65,515.63,1062.42,528.57Zm-14.87,2.88a21.36,21.36,0,0,0-2.76-9.53q-2.24-3.6-5.19-3.35c-2.31.17-4.16,1.63-5.57,4.38a20.59,20.59,0,0,0-2.12,9.53,26.53,26.53,0,0,0,.26,3.73q1.66,9.91,8.07,9.27c2.48-.25,4.38-1.76,5.71-4.5A18.6,18.6,0,0,0,1047.55,531.45Z" style="fill:#001e28"/><path d="M1113.17,555.86a75.2,75.2,0,0,0-15.89,1.54q.26-3.92.26-6a20.08,20.08,0,0,1-12.82,4.49,21.23,21.23,0,0,1-3.21-.26q-7.3-.9-11.15-7.88t-3.84-18.27q0-13.46,5.38-30.12l18.33,3.34a76.5,76.5,0,0,0-4.74,25.37q0,11.81,4.61,12.56,4.23.78,7.44-3.33-.52-18.33-3-37.3,10.89.27,17.69-1.66A254.41,254.41,0,0,0,1111,524,217.29,217.29,0,0,0,1113.17,555.86Z" style="fill:#001e28"/><path d="M1160.6,557.66q-8.46-1.53-19.1-2.95a71.53,71.53,0,0,0,4-23.45q0-14.49-4.74-15.9a5.27,5.27,0,0,0-1.67-.25q-2.94,0-5.51,3.46.77,23.07,2.57,40.37-9.88-.65-17.95-.38.9-12.3.9-25.76,0-16.66-1.41-31a52.49,52.49,0,0,0,5.38-.52,46.06,46.06,0,0,0,10.38-2.3v5.64a18.44,18.44,0,0,1,12.31-4.75q18.58,0,18.58,29.1A131.35,131.35,0,0,1,1160.6,557.66Z" style="fill:#001e28"/><path d="M1222.89,455.25q-3.47,29.1-3.46,68.57a294.39,294.39,0,0,0,1.41,32.56h-2.57a104.71,104.71,0,0,0-14.61,1.41,56.61,56.61,0,0,0,.77-7.82,22,22,0,0,1-29.22-1.15q-6.29-6.41-6.54-17.31a36.74,36.74,0,0,1,5-19.86q6.15-10.65,16.53-11.15,8.85-.51,15.13,6.66a415,415,0,0,0-3.59-48.58A122.72,122.72,0,0,0,1222.89,455.25ZM1203,530.1a15.74,15.74,0,0,0,.26-2.82q0-7.17-6.28-8.33a9.29,9.29,0,0,0-8.14,2.69,13.39,13.39,0,0,0-4.3,9,8.49,8.49,0,0,0,2.25,7,7.64,7.64,0,0,0,6.34,2.5Q1201.35,539.59,1203,530.1Z" style="fill:#001e28"/><path d="M1271.72,542.67a12.91,12.91,0,0,1-6.22,11.15q-6.09,4-15.06,3.84-14.87-.12-24-12.3A79.81,79.81,0,0,1,1238,532a20.18,20.18,0,0,0,5.9,7.3,10.33,10.33,0,0,0,5.89,2.31c2,0,3-.85,3-2.56q0-3.6-8.46-7.18-14.1-6-14.61-16.41a14.88,14.88,0,0,1,3.47-10.51q4.62-5.5,13.88-5.89,18.39-.9,24.69,19.22a46.82,46.82,0,0,0-16.62,4.87q-3.21-8.19-7.6-8.2c-1.63,0-2.31.85-2.06,2.56q.64,4.23,7.57,7.69,11.91,5.64,12.43,6Q1271.85,535.61,1271.72,542.67Z" style="fill:#001e28"/></g></g></g></svg>