<?xml version="1.0" encoding="utf-8"?>
<!-- Generator: Adobe Illustrator 26.0.0, SVG Export Plug-In . SVG Version: 6.00 Build 0)  -->
<svg version="1.1" xmlns="http://www.w3.org/2000/svg" xmlns:xlink="http://www.w3.org/1999/xlink" x="0px" y="0px"
	 viewBox="0 0 646.28 73.45" style="enable-background:new 0 0 646.28 73.45;" xml:space="preserve">
<style type="text/css">
	.st0{fill:#5C853B;}
	.st1{fill:#441C16;}
	.st2{fill:#E5A624;}
	.st3{fill:#448E4D;}
</style>
<g id="Layer_1">
</g>
<g id="L">
	<g>
		<g>
			<g>
				<path class="st0" d="M437.28,57.38H308.29c-3.02,0-5.46-2.45-5.46-5.46V35.16c0-3.02,2.45-5.46,5.46-5.46h128.99
					c3.02,0,5.46,2.45,5.46,5.46v16.76C442.75,54.93,440.3,57.38,437.28,57.38z"/>
				<path class="st1" d="M327.52,57.34c0-4.79-3.88-8.67-8.67-8.67c-4.79,0-8.67,3.88-8.67,8.67H327.52z"/>
				<circle class="st1" cx="341.18" cy="46.61" r="2.82"/>
				<circle class="st1" cx="408.98" cy="50.14" r="2"/>
				<circle class="st1" cx="306.86" cy="49.76" r="2"/>
				<circle class="st1" cx="435.6" cy="47.88" r="2"/>
				<circle class="st1" cx="366.11" cy="48.02" r="0.87"/>
				<circle class="st1" cx="351.21" cy="52.61" r="0.87"/>
				<circle class="st1" cx="377.39" cy="44.98" r="0.87"/>
				<circle class="st1" cx="418.43" cy="53.33" r="0.87"/>
				<circle class="st1" cx="425.77" cy="46.3" r="0.87"/>
				<circle class="st1" cx="398.96" cy="54.09" r="2.93"/>
				<path class="st1" d="M442.76,17.12H302.8v24.79c2.14,1.73,4.86,2.77,7.82,2.77c4.32,0,8.13-2.2,10.36-5.54
					c2.23,3.34,6.04,5.54,10.36,5.54s8.13-2.2,10.36-5.54c2.23,3.34,6.04,5.54,10.36,5.54s8.13-2.2,10.36-5.54
					c2.23,3.34,6.04,5.54,10.36,5.54s8.13-2.2,10.36-5.54c2.23,3.34,6.04,5.54,10.36,5.54s8.13-2.2,10.36-5.54
					c2.23,3.34,6.04,5.54,10.36,5.54s8.13-2.2,10.36-5.54c2.23,3.34,6.04,5.54,10.36,5.54c2.96,0,5.67-1.03,7.8-2.75V17.12z"/>
				<path class="st2" d="M447.41,18.92c0-2.39-1.94-4.32-4.32-4.32h-140.6c-2.39,0-4.32,1.94-4.32,4.32v10.78h0
					c0,6.88,5.58,12.46,12.46,12.46c4.32,0,8.13-2.2,10.36-5.54c2.23,3.34,6.04,5.54,10.36,5.54s8.13-2.2,10.36-5.54
					c2.23,3.34,6.04,5.54,10.36,5.54c4.32,0,8.13-2.2,10.36-5.54c2.23,3.34,6.04,5.54,10.36,5.54s8.13-2.2,10.36-5.54
					c2.23,3.34,6.04,5.54,10.36,5.54s8.13-2.2,10.36-5.54c2.23,3.34,6.04,5.54,10.36,5.54s8.13-2.2,10.36-5.54
					c2.23,3.34,6.04,5.54,10.36,5.54c6.88,0,12.46-5.58,12.46-12.46h0V18.92z"/>
				<circle class="st3" cx="328.55" cy="29.07" r="2.82"/>
				<circle class="st3" cx="419.76" cy="19.1" r="2.82"/>
				<circle class="st3" cx="306.12" cy="33.79" r="1.2"/>
				<circle class="st3" cx="366.63" cy="21.26" r="1.2"/>
				<circle class="st3" cx="331.87" cy="24.36" r="1.2"/>
				<circle class="st3" cx="303.98" cy="23.91" r="1.2"/>
				<circle class="st3" cx="413.56" cy="35.43" r="1.2"/>
				<circle class="st3" cx="379.6" cy="23.69" r="1.2"/>
				<circle class="st3" cx="352.24" cy="36.09" r="1.2"/>
				<circle class="st3" cx="434.94" cy="20.37" r="1.2"/>
				<circle class="st3" cx="439.37" cy="33.21" r="1.2"/>
				<circle class="st3" cx="431.05" cy="38.53" r="1.2"/>
			</g>
		</g>
		<g>
			<g>
				<path class="st0" d="M561.37,57.38H432.38c-3.02,0-5.46-2.45-5.46-5.46V35.16c0-3.02,2.45-5.46,5.46-5.46h128.99
					c3.02,0,5.46,2.45,5.46,5.46v16.76C566.84,54.93,564.39,57.38,561.37,57.38z"/>
				<path class="st1" d="M451.61,57.34c0-4.79-3.88-8.67-8.67-8.67s-8.67,3.88-8.67,8.67H451.61z"/>
				<circle class="st1" cx="465.27" cy="46.61" r="2.82"/>
				<circle class="st1" cx="533.07" cy="50.14" r="2"/>
				<circle class="st1" cx="430.95" cy="49.76" r="2"/>
				<circle class="st1" cx="559.69" cy="47.88" r="2"/>
				<circle class="st1" cx="490.2" cy="48.02" r="0.87"/>
				<circle class="st1" cx="475.3" cy="52.61" r="0.87"/>
				<circle class="st1" cx="501.48" cy="44.98" r="0.87"/>
				<circle class="st1" cx="542.52" cy="53.33" r="0.87"/>
				<circle class="st1" cx="549.86" cy="46.3" r="0.87"/>
				<circle class="st1" cx="523.05" cy="54.09" r="2.93"/>
				<path class="st1" d="M566.85,17.12H426.89v24.79c2.14,1.73,4.86,2.77,7.82,2.77c4.32,0,8.13-2.2,10.36-5.54
					c2.23,3.34,6.04,5.54,10.36,5.54s8.13-2.2,10.36-5.54c2.23,3.34,6.04,5.54,10.36,5.54c4.32,0,8.13-2.2,10.36-5.54
					c2.23,3.34,6.04,5.54,10.36,5.54s8.13-2.2,10.36-5.54c2.23,3.34,6.04,5.54,10.36,5.54c4.32,0,8.13-2.2,10.36-5.54
					c2.23,3.34,6.04,5.54,10.36,5.54c4.32,0,8.13-2.2,10.36-5.54c2.23,3.34,6.04,5.54,10.36,5.54c2.96,0,5.67-1.03,7.8-2.75V17.12z"
					/>
				<path class="st2" d="M571.5,18.92c0-2.39-1.94-4.32-4.32-4.32h-140.6c-2.39,0-4.32,1.94-4.32,4.32v10.78h0
					c0,6.88,5.58,12.46,12.46,12.46c4.32,0,8.13-2.2,10.36-5.54c2.23,3.34,6.04,5.54,10.36,5.54s8.13-2.2,10.36-5.54
					c2.23,3.34,6.04,5.54,10.36,5.54s8.13-2.2,10.36-5.54c2.23,3.34,6.04,5.54,10.36,5.54s8.13-2.2,10.36-5.54
					c2.23,3.34,6.04,5.54,10.36,5.54c4.32,0,8.13-2.2,10.36-5.54c2.23,3.34,6.04,5.54,10.36,5.54c4.32,0,8.13-2.2,10.36-5.54
					c2.23,3.34,6.04,5.54,10.36,5.54c6.88,0,12.46-5.58,12.46-12.46h0V18.92z"/>
				<circle class="st3" cx="452.64" cy="29.07" r="2.82"/>
				<circle class="st3" cx="543.85" cy="19.1" r="2.82"/>
				<circle class="st3" cx="430.21" cy="33.79" r="1.2"/>
				<circle class="st3" cx="490.72" cy="21.26" r="1.2"/>
				<circle class="st3" cx="455.96" cy="24.36" r="1.2"/>
				<circle class="st3" cx="428.07" cy="23.91" r="1.2"/>
				<circle class="st3" cx="537.65" cy="35.43" r="1.2"/>
				<circle class="st3" cx="503.69" cy="23.69" r="1.2"/>
				<circle class="st3" cx="476.33" cy="36.09" r="1.2"/>
				<circle class="st3" cx="559.04" cy="20.37" r="1.2"/>
				<circle class="st3" cx="563.46" cy="33.21" r="1.2"/>
				<circle class="st3" cx="555.14" cy="38.53" r="1.2"/>
			</g>
		</g>
		<g>
			<g>
				<path class="st0" d="M623.34,57.38H494.35c-3.02,0-5.46-2.45-5.46-5.46V35.16c0-3.02,2.45-5.46,5.46-5.46h128.99
					c3.02,0,5.46,2.45,5.46,5.46v16.76C628.81,54.93,626.36,57.38,623.34,57.38z"/>
				<path class="st1" d="M513.57,57.34c0-4.79-3.88-8.67-8.67-8.67c-4.79,0-8.67,3.88-8.67,8.67H513.57z"/>
				<circle class="st1" cx="527.23" cy="46.61" r="2.82"/>
				<circle class="st1" cx="595.04" cy="50.14" r="2"/>
				<circle class="st1" cx="492.92" cy="49.76" r="2"/>
				<circle class="st1" cx="621.65" cy="47.88" r="2"/>
				<circle class="st1" cx="552.17" cy="48.02" r="0.87"/>
				<circle class="st1" cx="537.27" cy="52.61" r="0.87"/>
				<circle class="st1" cx="563.44" cy="44.98" r="0.87"/>
				<circle class="st1" cx="604.49" cy="53.33" r="0.87"/>
				<circle class="st1" cx="611.83" cy="46.3" r="0.87"/>
				<circle class="st1" cx="585.02" cy="54.09" r="2.93"/>
				<path class="st1" d="M628.81,17.12H488.86v24.79c2.14,1.73,4.86,2.77,7.82,2.77c4.32,0,8.13-2.2,10.36-5.54
					c2.23,3.34,6.04,5.54,10.36,5.54c4.32,0,8.13-2.2,10.36-5.54c2.23,3.34,6.04,5.54,10.36,5.54c4.32,0,8.13-2.2,10.36-5.54
					c2.23,3.34,6.04,5.54,10.36,5.54c4.32,0,8.13-2.2,10.36-5.54c2.23,3.34,6.04,5.54,10.36,5.54c4.32,0,8.13-2.2,10.36-5.54
					c2.23,3.34,6.04,5.54,10.36,5.54c4.32,0,8.13-2.2,10.36-5.54c2.23,3.34,6.04,5.54,10.36,5.54c2.96,0,5.67-1.03,7.8-2.75V17.12z"
					/>
				<path class="st2" d="M633.47,18.92c0-2.39-1.94-4.32-4.32-4.32h-140.6c-2.39,0-4.32,1.94-4.32,4.32v10.78h0
					c0,6.88,5.58,12.46,12.46,12.46c4.32,0,8.13-2.2,10.36-5.54c2.23,3.34,6.04,5.54,10.36,5.54c4.32,0,8.13-2.2,10.36-5.54
					c2.23,3.34,6.04,5.54,10.36,5.54c4.32,0,8.13-2.2,10.36-5.54c2.23,3.34,6.04,5.54,10.36,5.54c4.32,0,8.13-2.2,10.36-5.54
					c2.23,3.34,6.04,5.54,10.36,5.54c4.32,0,8.13-2.2,10.36-5.54c2.23,3.34,6.04,5.54,10.36,5.54c4.32,0,8.13-2.2,10.36-5.54
					c2.23,3.34,6.04,5.54,10.36,5.54c6.88,0,12.46-5.58,12.46-12.46h0V18.92z"/>
				<circle class="st3" cx="514.61" cy="29.07" r="2.82"/>
				<circle class="st3" cx="605.82" cy="19.1" r="2.82"/>
				<circle class="st3" cx="492.18" cy="33.79" r="1.2"/>
				<circle class="st3" cx="552.69" cy="21.26" r="1.2"/>
				<circle class="st3" cx="517.93" cy="24.36" r="1.2"/>
				<circle class="st3" cx="490.04" cy="23.91" r="1.2"/>
				<circle class="st3" cx="599.62" cy="35.43" r="1.2"/>
				<circle class="st3" cx="565.66" cy="23.69" r="1.2"/>
				<circle class="st3" cx="538.3" cy="36.09" r="1.2"/>
				<circle class="st3" cx="621" cy="20.37" r="1.2"/>
				<circle class="st3" cx="625.43" cy="33.21" r="1.2"/>
				<circle class="st3" cx="617.11" cy="38.53" r="1.2"/>
			</g>
		</g>
	</g>
	<g>
		<g>
			<g>
				<path class="st0" d="M150.5,57.38H21.51c-3.02,0-5.46-2.45-5.46-5.46V35.16c0-3.02,2.45-5.46,5.46-5.46H150.5
					c3.02,0,5.46,2.45,5.46,5.46v16.76C155.96,54.93,153.52,57.38,150.5,57.38z"/>
				<path class="st1" d="M40.73,57.34c0-4.79-3.88-8.67-8.67-8.67s-8.67,3.88-8.67,8.67H40.73z"/>
				<circle class="st1" cx="54.39" cy="46.61" r="2.82"/>
				<circle class="st1" cx="122.2" cy="50.14" r="2"/>
				<circle class="st1" cx="20.08" cy="49.76" r="2"/>
				<circle class="st1" cx="148.81" cy="47.88" r="2"/>
				<circle class="st1" cx="79.33" cy="48.02" r="0.87"/>
				<circle class="st1" cx="64.43" cy="52.61" r="0.87"/>
				<circle class="st1" cx="90.6" cy="44.98" r="0.87"/>
				<circle class="st1" cx="131.65" cy="53.33" r="0.87"/>
				<circle class="st1" cx="138.99" cy="46.3" r="0.87"/>
				<circle class="st1" cx="112.18" cy="54.09" r="2.93"/>
				<path class="st1" d="M155.97,17.12H16.01v24.79c2.14,1.73,4.86,2.77,7.82,2.77c4.32,0,8.13-2.2,10.36-5.54
					c2.23,3.34,6.04,5.54,10.36,5.54s8.13-2.2,10.36-5.54c2.23,3.34,6.04,5.54,10.36,5.54s8.13-2.2,10.36-5.54
					c2.23,3.34,6.04,5.54,10.36,5.54s8.13-2.2,10.36-5.54c2.23,3.34,6.04,5.54,10.36,5.54s8.13-2.2,10.36-5.54
					c2.23,3.34,6.04,5.54,10.36,5.54s8.13-2.2,10.36-5.54c2.23,3.34,6.04,5.54,10.36,5.54c2.96,0,5.67-1.03,7.8-2.75V17.12z"/>
				<path class="st2" d="M160.63,18.92c0-2.39-1.94-4.32-4.32-4.32H15.71c-2.39,0-4.32,1.94-4.32,4.32v10.78h0
					c0,6.88,5.58,12.46,12.46,12.46c4.32,0,8.13-2.2,10.36-5.54c2.23,3.34,6.04,5.54,10.36,5.54s8.13-2.2,10.36-5.54
					c2.23,3.34,6.04,5.54,10.36,5.54c4.32,0,8.13-2.2,10.36-5.54c2.23,3.34,6.04,5.54,10.36,5.54s8.13-2.2,10.36-5.54
					c2.23,3.34,6.04,5.54,10.36,5.54c4.32,0,8.13-2.2,10.36-5.54c2.23,3.34,6.04,5.54,10.36,5.54c4.32,0,8.13-2.2,10.36-5.54
					c2.23,3.34,6.04,5.54,10.36,5.54c6.88,0,12.46-5.58,12.46-12.46h0V18.92z"/>
				<circle class="st3" cx="41.77" cy="29.07" r="2.82"/>
				<circle class="st3" cx="132.98" cy="19.1" r="2.82"/>
				<circle class="st3" cx="19.34" cy="33.79" r="1.2"/>
				<circle class="st3" cx="79.85" cy="21.26" r="1.2"/>
				<circle class="st3" cx="45.09" cy="24.36" r="1.2"/>
				<circle class="st3" cx="17.19" cy="23.91" r="1.2"/>
				<circle class="st3" cx="126.78" cy="35.43" r="1.2"/>
				<circle class="st3" cx="92.82" cy="23.69" r="1.2"/>
				<circle class="st3" cx="65.46" cy="36.09" r="1.2"/>
				<circle class="st3" cx="148.16" cy="20.37" r="1.2"/>
				<circle class="st3" cx="152.59" cy="33.21" r="1.2"/>
				<circle class="st3" cx="144.27" cy="38.53" r="1.2"/>
			</g>
		</g>
		<g>
			<g>
				<path class="st0" d="M274.59,57.38H145.6c-3.02,0-5.46-2.45-5.46-5.46V35.16c0-3.02,2.45-5.46,5.46-5.46h128.99
					c3.02,0,5.46,2.45,5.46,5.46v16.76C280.06,54.93,277.61,57.38,274.59,57.38z"/>
				<path class="st1" d="M164.82,57.34c0-4.79-3.88-8.67-8.67-8.67s-8.67,3.88-8.67,8.67H164.82z"/>
				<circle class="st1" cx="178.49" cy="46.61" r="2.82"/>
				<circle class="st1" cx="246.29" cy="50.14" r="2"/>
				<circle class="st1" cx="144.17" cy="49.76" r="2"/>
				<circle class="st1" cx="272.91" cy="47.88" r="2"/>
				<circle class="st1" cx="203.42" cy="48.02" r="0.87"/>
				<circle class="st1" cx="188.52" cy="52.61" r="0.87"/>
				<circle class="st1" cx="214.7" cy="44.98" r="0.87"/>
				<circle class="st1" cx="255.74" cy="53.33" r="0.87"/>
				<circle class="st1" cx="263.08" cy="46.3" r="0.87"/>
				<circle class="st1" cx="236.27" cy="54.09" r="2.93"/>
				<path class="st1" d="M280.07,17.12H140.11v24.79c2.14,1.73,4.86,2.77,7.82,2.77c4.32,0,8.13-2.2,10.36-5.54
					c2.23,3.34,6.04,5.54,10.36,5.54s8.13-2.2,10.36-5.54c2.23,3.34,6.04,5.54,10.36,5.54s8.13-2.2,10.36-5.54
					c2.23,3.34,6.04,5.54,10.36,5.54s8.13-2.2,10.36-5.54c2.23,3.34,6.04,5.54,10.36,5.54s8.13-2.2,10.36-5.54
					c2.23,3.34,6.04,5.54,10.36,5.54s8.13-2.2,10.36-5.54c2.23,3.34,6.04,5.54,10.36,5.54c2.96,0,5.67-1.03,7.8-2.75V17.12z"/>
				<path class="st2" d="M284.72,18.92c0-2.39-1.94-4.32-4.32-4.32H139.8c-2.39,0-4.32,1.94-4.32,4.32v10.78h0
					c0,6.88,5.58,12.46,12.46,12.46c4.32,0,8.13-2.2,10.36-5.54c2.23,3.34,6.04,5.54,10.36,5.54s8.13-2.2,10.36-5.54
					c2.23,3.34,6.04,5.54,10.36,5.54s8.13-2.2,10.36-5.54c2.23,3.34,6.04,5.54,10.36,5.54s8.13-2.2,10.36-5.54
					c2.23,3.34,6.04,5.54,10.36,5.54s8.13-2.2,10.36-5.54c2.23,3.34,6.04,5.54,10.36,5.54s8.13-2.2,10.36-5.54
					c2.23,3.34,6.04,5.54,10.36,5.54c6.88,0,12.46-5.58,12.46-12.46h0V18.92z"/>
				<circle class="st3" cx="165.86" cy="29.07" r="2.82"/>
				<circle class="st3" cx="257.07" cy="19.1" r="2.82"/>
				<circle class="st3" cx="143.43" cy="33.79" r="1.2"/>
				<circle class="st3" cx="203.94" cy="21.26" r="1.2"/>
				<circle class="st3" cx="169.18" cy="24.36" r="1.2"/>
				<circle class="st3" cx="141.29" cy="23.91" r="1.2"/>
				<circle class="st3" cx="250.87" cy="35.43" r="1.2"/>
				<circle class="st3" cx="216.91" cy="23.69" r="1.2"/>
				<circle class="st3" cx="189.55" cy="36.09" r="1.2"/>
				<circle class="st3" cx="272.25" cy="20.37" r="1.2"/>
				<circle class="st3" cx="276.68" cy="33.21" r="1.2"/>
				<circle class="st3" cx="268.36" cy="38.53" r="1.2"/>
			</g>
		</g>
		<g>
			<g>
				<path class="st0" d="M336.56,57.38H207.57c-3.02,0-5.46-2.45-5.46-5.46V35.16c0-3.02,2.45-5.46,5.46-5.46h128.99
					c3.02,0,5.46,2.45,5.46,5.46v16.76C342.02,54.93,339.58,57.38,336.56,57.38z"/>
				<path class="st1" d="M226.79,57.34c0-4.79-3.88-8.67-8.67-8.67s-8.67,3.88-8.67,8.67H226.79z"/>
				<circle class="st1" cx="240.45" cy="46.61" r="2.82"/>
				<circle class="st1" cx="308.26" cy="50.14" r="2"/>
				<circle class="st1" cx="206.14" cy="49.76" r="2"/>
				<circle class="st1" cx="334.87" cy="47.88" r="2"/>
				<circle class="st1" cx="265.39" cy="48.02" r="0.87"/>
				<circle class="st1" cx="250.49" cy="52.61" r="0.87"/>
				<circle class="st1" cx="276.66" cy="44.98" r="0.87"/>
				<circle class="st1" cx="317.71" cy="53.33" r="0.87"/>
				<circle class="st1" cx="325.05" cy="46.3" r="0.87"/>
				<circle class="st1" cx="298.24" cy="54.09" r="2.93"/>
				<path class="st1" d="M342.03,17.12H202.07v24.79c2.14,1.73,4.86,2.77,7.82,2.77c4.32,0,8.13-2.2,10.36-5.54
					c2.23,3.34,6.04,5.54,10.36,5.54s8.13-2.2,10.36-5.54c2.23,3.34,6.04,5.54,10.36,5.54s8.13-2.2,10.36-5.54
					c2.23,3.34,6.04,5.54,10.36,5.54s8.13-2.2,10.36-5.54c2.23,3.34,6.04,5.54,10.36,5.54s8.13-2.2,10.36-5.54
					c2.23,3.34,6.04,5.54,10.36,5.54s8.13-2.2,10.36-5.54c2.23,3.34,6.04,5.54,10.36,5.54c2.96,0,5.67-1.03,7.8-2.75V17.12z"/>
				<path class="st2" d="M346.69,18.92c0-2.39-1.94-4.32-4.32-4.32h-140.6c-2.39,0-4.32,1.94-4.32,4.32v10.78h0
					c0,6.88,5.58,12.46,12.46,12.46c4.32,0,8.13-2.2,10.36-5.54c2.23,3.34,6.04,5.54,10.36,5.54s8.13-2.2,10.36-5.54
					c2.23,3.34,6.04,5.54,10.36,5.54c4.32,0,8.13-2.2,10.36-5.54c2.23,3.34,6.04,5.54,10.36,5.54s8.13-2.2,10.36-5.54
					c2.23,3.34,6.04,5.54,10.36,5.54s8.13-2.2,10.36-5.54c2.23,3.34,6.04,5.54,10.36,5.54s8.13-2.2,10.36-5.54
					c2.23,3.34,6.04,5.54,10.36,5.54c6.88,0,12.46-5.58,12.46-12.46h0V18.92z"/>
				<circle class="st3" cx="227.83" cy="29.07" r="2.82"/>
				<circle class="st3" cx="319.04" cy="19.1" r="2.82"/>
				<circle class="st3" cx="205.4" cy="33.79" r="1.2"/>
				<circle class="st3" cx="265.9" cy="21.26" r="1.2"/>
				<circle class="st3" cx="231.15" cy="24.36" r="1.2"/>
				<circle class="st3" cx="203.25" cy="23.91" r="1.2"/>
				<circle class="st3" cx="312.84" cy="35.43" r="1.2"/>
				<circle class="st3" cx="278.88" cy="23.69" r="1.2"/>
				<circle class="st3" cx="251.51" cy="36.09" r="1.2"/>
				<circle class="st3" cx="334.22" cy="20.37" r="1.2"/>
				<circle class="st3" cx="338.65" cy="33.21" r="1.2"/>
				<circle class="st3" cx="330.33" cy="38.53" r="1.2"/>
			</g>
		</g>
	</g>
</g>
</svg>
