<?xml version="1.0" encoding="UTF-8" standalone="no"?>
<!-- Created with Inkscape (http://www.inkscape.org/) -->

<svg
   width="22.700001mm"
   height="22.5mm"
   viewBox="0 0 22.700001 22.5"
   version="1.1"
   id="svg8586"
   inkscape:version="1.1.1 (c3084ef, 2021-09-22)"
   sodipodi:docname="arrow.svg"
   xmlns:inkscape="http://www.inkscape.org/namespaces/inkscape"
   xmlns:sodipodi="http://sodipodi.sourceforge.net/DTD/sodipodi-0.dtd"
   xmlns="http://www.w3.org/2000/svg"
   xmlns:svg="http://www.w3.org/2000/svg">
  <sodipodi:namedview
     id="namedview8588"
     pagecolor="#ffffff"
     bordercolor="#666666"
     borderopacity="1.0"
     inkscape:pageshadow="2"
     inkscape:pageopacity="0.0"
     inkscape:pagecheckerboard="0"
     inkscape:document-units="mm"
     showgrid="false"
     width="22.7mm"
     inkscape:zoom="0.52382155"
     inkscape:cx="-174.67781"
     inkscape:cy="561.25984"
     inkscape:window-width="1312"
     inkscape:window-height="810"
     inkscape:window-x="0"
     inkscape:window-y="25"
     inkscape:window-maximized="0"
     inkscape:current-layer="g5463" />
  <defs
     id="defs8583">
    <clipPath
       clipPathUnits="userSpaceOnUse"
       id="clipPath5467">
      <path
         d="M 0,900 H 1920 V 0 H 0 Z"
         id="path5465" />
    </clipPath>
  </defs>
  <g
     inkscape:label="Layer 1"
     inkscape:groupmode="layer"
     id="layer1">
    <g
       id="g5461"
       transform="matrix(0.35277777,0,0,-0.35277777,-275.26718,196.00227)"
       style="display:inline">
      <g
         id="g5463"
         clip-path="url(#clipPath5467)">
        <g
           id="g5497"
           transform="translate(837.01688,492.47856)"
           style="display:inline">
          <path
             d="m 0,0 c 0.986,0 1.979,0.322 2.809,0.986 1.94,1.553 2.254,4.384 0.702,6.326 -15.785,19.732 -33.56,38.036 -52.829,54.402 -1.895,1.609 -4.734,1.378 -6.343,-0.517 -1.61,-1.894 -1.378,-4.734 0.516,-6.343 C -36.313,38.859 -18.943,20.973 -3.517,1.688 -2.628,0.578 -1.32,0 0,0"
             style="fill:#806400;fill-opacity:1;fill-rule:nonzero;stroke:none"
             id="path5499" />
        </g>
        <g
           id="g5501"
           transform="translate(819.88308,492.63376)"
           style="display:inline">
          <path
             d="m 0,0 18.342,-0.819 c 2.263,-0.102 4.18,1.651 4.281,3.915 l 0.819,18.341 c 0.163,3.652 -4.17,5.678 -6.867,3.211 L -2.586,7.126 C -5.283,4.659 -3.651,0.163 0,0"
             style="fill:#806400;fill-opacity:1;fill-rule:nonzero;stroke:none"
             id="path5503" />
        </g>
        <g
           id="g5505"
           transform="translate(838.41138,492.81256)"
           style="display:inline">
          <path
             d="m 0,0 c 0.985,0 1.979,0.322 2.808,0.986 1.941,1.553 2.255,4.384 0.703,6.326 -15.786,19.732 -33.561,38.036 -52.83,54.402 -1.894,1.609 -4.734,1.378 -6.343,-0.517 -1.609,-1.894 -1.378,-4.734 0.516,-6.343 C -36.314,38.859 -18.944,20.973 -3.517,1.688 -2.628,0.578 -1.32,0 0,0"
             style="fill:#e9fe00;fill-opacity:1;fill-rule:nonzero;stroke:none"
             id="path5507" />
        </g>
        <g
           id="g5509"
           transform="translate(821.27668,492.96776)"
           style="display:inline">
          <path
             d="m 0,0 18.342,-0.819 c 2.263,-0.102 4.18,1.652 4.282,3.916 l 0.819,18.34 c 0.163,3.652 -4.171,5.678 -6.868,3.211 L -2.585,7.126 C -5.283,4.659 -3.651,0.163 0,0"
             style="fill:#e9fe00;fill-opacity:1;fill-rule:nonzero;stroke:none"
             id="path5511" />
        </g>
        <g
           id="g5513"
           transform="translate(836.88998,508.55466)"
           style="display:inline">
          <path
             d="M 0,0 C 0,-4.225 1.442,-7.649 3.221,-7.649 4.998,-7.649 6.44,-4.225 6.44,0 6.44,4.224 4.998,7.648 3.221,7.648 1.442,7.648 0,4.224 0,0"
             style="fill:#ffffff;fill-opacity:1;fill-rule:nonzero;stroke:none"
             id="path5515" />
        </g>
        <g
           id="g5517"
           transform="translate(804.15848,536.99616)"
           style="display:inline">
          <path
             d="m 0,0 19.858,-19.858 c 0.599,-0.599 0.599,-1.569 0,-2.167 -0.597,-0.598 -1.568,-0.598 -2.166,0 L -2.167,-2.166 c -0.598,0.598 -0.598,1.567 0,2.166 0.599,0.599 1.568,0.599 2.167,0"
             style="fill:#ffffff;fill-opacity:1;fill-rule:nonzero;stroke:none"
             id="path5519" />
        </g>
      </g>
    </g>
  </g>
</svg>
