<svg id="Layer_44" data-name="Layer 44" xmlns="http://www.w3.org/2000/svg" viewBox="0 0 895 511.11"><defs><style>.cls-1{fill:#fff;stroke:#1d1d1b;stroke-miterlimit:10;}</style></defs><path class="cls-1" d="M685.14,73.2a9.18,9.18,0,0,0-.82-1c-24-23.7-54.07,4.67-76.49,16q-49.49,24.9-99.13,49.55c-72.55,36.09-288.14,153.84-325.9,171.65-12.42,5.87-24.62,9.23-23.84,25.08.26,5.14,1.94,10.24,4,15.2,1.08,2.54,2.25,5,3.39,7.45s2.2,4.71,3.15,7c7.73,18.7,35.6,71,43.37,78.34,6.92,6.52,16.35,6.72,26,4.21h0a66.78,66.78,0,0,0,6.78-2.19c2.48-.9,4.93-1.94,7.3-3.06,7.25-3.33,13.93-7.24,19-10,2.24-1.22,5.11-2.75,8.54-4.58l7-3.67c8.62-4.53,19.56-10.22,32.22-16.76l7-3.64,32.22-16.61,7-3.6,29.42-15.13c2.3-1.18,4.61-2.37,6.95-3.55l35.59-18.28c2.33-1.19,4.67-2.4,7-3.59,10.76-5.54,21.58-11.08,32.33-16.59l7-3.61,32.22-16.54c2.36-1.21,4.69-2.41,7-3.59l39.25-20.18,7-3.61c11.06-5.7,21.42-11.05,30.83-15.92,2.4-1.23,4.74-2.45,7-3.63,13.2-6.83,24.19-12.57,32.22-16.82.66-.35,1.29-.7,1.92-1l5-2.69c10.61-5.65,21.25-11.41,31.79-17.36,2.3-1.29,4.58-2.58,6.87-3.9,8.84-5.07,17.59-10.27,26.17-15.66q3.33-2.08,6.65-4.23l.45-.29c2.37-1.54,4.73-3,6.94-4.47,7.69-5.24,13.24-10.87,9-21.52C731.33,162.2,693,84.15,685.14,73.2Zm-12.25,74.51c-15.08-7.22-9.2-29.63,7.24-29.82C703.08,117.59,699,160.2,672.89,147.71Z"/><path class="cls-1" d="M678.77,80.93a36,36,0,0,0-3.66-3.16C652.45,60.66,625,86,604.32,96.46q-48.18,24.27-96.51,48.23C437.2,179.83,227.34,294.45,190.56,311.8c-12.07,5.71-24,9-23.19,24.4a38.11,38.11,0,0,0,2.25,10.48,120.75,120.75,0,0,0,4.94,11.57c1.1,2.31,2.16,4.58,3.08,6.79,7.53,18.21,34.65,69.16,42.21,76.24,5.22,4.93,11.91,6.14,19,5.32h0a66.78,66.78,0,0,0,6.78-2.19c2.48-.9,4.93-1.94,7.3-3.06,7.25-3.33,13.93-7.24,19-10,2.24-1.22,5.11-2.75,8.54-4.58l7-3.67c8.62-4.53,19.56-10.22,32.22-16.76l7-3.64,32.22-16.61,7-3.6,29.42-15.13c2.3-1.18,4.61-2.37,6.95-3.55l35.59-18.28c2.33-1.19,4.67-2.4,7-3.59,10.76-5.54,21.58-11.08,32.33-16.59l7-3.61,32.22-16.54c2.36-1.21,4.69-2.41,7-3.59l39.25-20.18,7-3.61c11.06-5.7,21.42-11.05,30.83-15.92,2.4-1.23,4.74-2.45,7-3.63,13.2-6.83,24.19-12.57,32.22-16.82.66-.35,1.29-.7,1.92-1l5-2.69c10.61-5.65,21.25-11.41,31.79-17.36,2.3-1.29,4.58-2.58,6.87-3.9,8.84-5.07,17.59-10.27,26.17-15.66q3.33-2.08,6.65-4.23l.45-.29c2.37-1.54,4.73-3,6.94-4.47,3.4-3.88,4.81-8.58,2.09-15.4C724.41,168.21,684.1,86.2,678.77,80.93Zm-5.88,66.78c-15.08-7.22-9.2-29.63,7.24-29.82C703.08,117.59,699,160.2,672.89,147.71Z"/><path class="cls-1" d="M245.67,427.35l7.3,14c-2.37,1.12-4.82,2.16-7.3,3.06l-7-13.41C236.33,426.5,243.32,422.85,245.67,427.35Z"/><path class="cls-1" d="M397.11,351.33a53.57,53.57,0,0,0,5.17,12.48c-2.34,1.18-4.65,2.37-6.95,3.55A61.85,61.85,0,0,1,389.4,353C388.16,348.06,395.87,346.4,397.11,351.33Z"/><path class="cls-1" d="M564.68,268.1l5.07,9.72-7,3.61-5.05-9.68C555.34,267.24,562.33,263.6,564.68,268.1Z"/><path class="cls-1" d="M718.24,196.59q-3.32,2.15-6.65,4.23c-2.43-4.21-4.89-8.41-7.17-12.71-2.39-4.51,4.62-8.14,7-3.65C713.58,188.56,715.92,192.57,718.24,196.59Z"/><path class="cls-1" d="M681.49,209l3.93,7.52c-2.29,1.32-4.57,2.61-6.87,3.9l-4-7.78C672.15,208.1,679.14,204.45,681.49,209Z"/><path class="cls-1" d="M646.76,237.74l-5,2.69c-.63.32-1.26.67-1.92,1-1.28-2.32-2.51-4.67-3.73-7-2.35-4.51,4.64-8.15,7-3.65C644.28,233.12,645.49,235.44,646.76,237.74Z"/><path class="cls-1" d="M604.26,251.9l3.32,6.37c-2.26,1.18-4.6,2.4-7,3.63l-3.31-6.35C594.92,251.05,601.91,247.4,604.26,251.9Z"/><path class="cls-1" d="M519.28,293.56l4.2,8.05c-2.33,1.18-4.66,2.38-7,3.59l-4.17-8C509.94,292.7,516.93,289.05,519.28,293.56Z"/><path class="cls-1" d="M484.24,321.74l-7,3.61c-1.14-2.09-2.26-4.21-3.37-6.33-2.34-4.5,4.65-8.15,7-3.64C482,317.5,483.09,319.64,484.24,321.74Z"/><path class="cls-1" d="M442.05,336.5l2.84,5.44c-2.35,1.19-4.69,2.4-7,3.59l-2.81-5.38C432.71,335.64,439.7,332,442.05,336.5Z"/><path class="cls-1" d="M362.24,375.45l3.67,7-7,3.6-3.65-7C352.9,374.6,359.89,371,362.24,375.45Z"/><path class="cls-1" d="M326.68,402.7l-7,3.64c-1-1.79-1.92-3.61-2.86-5.42-2.35-4.5,4.64-8.15,7-3.64C324.76,399.09,325.7,400.9,326.68,402.7Z"/><path class="cls-1" d="M285,418.4l2.45,4.7-7,3.67L278,422.05C275.67,417.54,282.67,413.9,285,418.4Z"/><path class="cls-1" d="M675.11,77.77c-29.84,15.23-49,41.79-76.75,60.44-38,25.54-79.86,36.16-123.31,48.54-48.49,13.82-80.91,43.86-115.55,79-40.17,40.73-92.57,54.91-146.23,68.4-6.59,1.66-26.77,5.7-43.65,12.53a38.11,38.11,0,0,1-2.25-10.48c-.77-15.43,11.12-18.69,23.19-24.4,36.78-17.35,246.64-132,317.25-167.11q48.32-24,96.51-48.23C625,86,652.45,60.66,675.11,77.77Z"/><path class="cls-1" d="M242,399.43c-4.28-9-17.29-13.63-24.06-6.53-11.47,12,.55,32,14,28.35A15.55,15.55,0,0,0,242,399.43Zm-12.42,14.29c-6.35,1.74-9.24-11.59-6.53-13.86a4.39,4.39,0,0,1,2.42-1.62C234.45,396.61,240.75,410.66,229.56,413.72Z"/><path class="cls-1" d="M372.3,331.54c1.27-3.46,3.7,3.65,6,10.35,1.62,4.77,9.34,3.15,7.72-1.65-2.55-7.53-7.92-13.95-11.64-20.91-1.74-3.26-7.6-2.45-7.44,1.63.13,3.13-1.09,5.38-2.13,8.22-1.75,4.78,5.78,7.13,7.52,2.36Z"/><path class="cls-1" d="M539,244.73c-2-2.65,1.28-7.1,3.88-8,1.14-.41.72,1.81.91,2.93.85,4.94-.08,11.68-3.08,15.8-2.56,3.51,1.88,6.85,5.16,5.59a173.82,173.82,0,0,0,17.85-8.41c4.51-2.36.86-9.35-3.65-7-5.84,3.05-9.17,4.64-9.17,4.64,1.26-4.85,3.68-12-2-18.82-3.29-3.91-8.35-3-12-.13-5.92,4.64-8.3,12.44-3.62,18.82,3,4.09,8.75-1.32,5.77-5.38Z"/><path class="cls-1" d="M695.79,162.48a7.4,7.4,0,0,0-1.82-.35,7.93,7.93,0,0,0-4.76-7.46c-7.51-3.6-13.31,3-14.17,10-.63,5.07,7.26,5.4,7.88.38.15-1.24,1.12-4.21,2.52-3.54,2,.95,0,4.07-1.39,6-.32.38-.62.77-.9,1.15-3.06,4.19,3.54,8,6.67,4.2.17-.2.33-.41.49-.63.87-1.06,2.42-2.67,3.39-2.18s-.57,3.73-1.08,4.58c-2.17,3.68-2.1,2.14-6,2.91-2.55.51-4,5.2,1,6.22,4.17.84,13.07-.67,14-11.58C702.06,167.83,700.13,163.85,695.79,162.48Z"/></svg>