<svg id="Layer_169" data-name="Layer 169" xmlns="http://www.w3.org/2000/svg" viewBox="0 0 895 511.11"><defs><style>.cls-1{fill:#fff;}</style></defs><g id="Steamship"><path class="cls-1" d="M631.72,319.18a192.55,192.55,0,0,1-10.83,34.56c-.31.77-.61,1.56-.92,2.33h-1.06c-87.45-.54-174.89-.37-262.34-.35-3.75-6.43-12.65-9.47-20.54-7.78a12.74,12.74,0,0,0-9,7.73c-16.55,0-33.09,0-49.6.84l-.63,0c-.48-1.27-.95-2.53-1.42-3.81-4.13-11.38-7.62-23-12.3-34.19,23.34,1.15,46.77.76,70.14.78l74.34,0q73.83,0,147.66,0C580.69,319.28,606.22,319.61,631.72,319.18Z"/><path class="cls-1" d="M618.89,358.8q-1.93,4.92-3.8,9.84h-1q-128.35-.66-256.76-.38a14.06,14.06,0,0,0,.91-3.35,14.45,14.45,0,0,0-.25-5.76q25.92,0,51.8,0H544.43C569.24,359.16,594.07,359,618.89,358.8Z"/><path class="cls-1" d="M614.05,371.39c-2.76,7.35-5.44,14.72-8.15,22.08-5,13.51-9.26,27.24-14.08,40.8q-3.54,10-7.54,19.79c-1.77,4.37-3.86,8.76-5,13.37-15.11-.48-30.35.07-45.44.07H481.48q-52.38,0-104.74.08-14.39.06-28.76.21c-8.35.08-17.6-.61-26,.75-4.28-12.88-11-24.77-15.7-37.51-4.88-13.27-9.56-26.5-15-39.54-2.88-6.85-5.83-13.67-8.68-20.53,15.3,1.05,30.73,1,46.12.89a15.11,15.11,0,0,0,4.85,4.93,14.8,14.8,0,0,0,2.93,1.4c0,.23.07.46.1.66s0,.15,0,.22c0,.28,0,.57-.05.86a13.69,13.69,0,0,0-3.59.36,25.8,25.8,0,0,0-4.19,1c-2.28.9-3,3.06-2.63,5.39s2.08,3.31,4.34,3.51a21.43,21.43,0,0,0,7-.19,90,90,0,0,0-.14,11.84,20.15,20.15,0,0,1-3.78-1.63,21.9,21.9,0,0,1-4.45-3.33,5.32,5.32,0,0,1-.74-1,.4.4,0,0,0-.27-.17.52.52,0,0,0-.58,0,8.71,8.71,0,0,0-2.76,10.69,9.47,9.47,0,0,0,4.65,4.5c4.19,2.19,8.36,3.64,12.16,6.57a1.2,1.2,0,0,0,1.65,0c3.19-2.95,6.28-3.72,10.1-5.4a9.9,9.9,0,0,0,5.33-4.65c1.95-3.83,2.65-9.34-.3-12.77-.72-.86-2.08,0-2,.94a11.22,11.22,0,0,1-4.28,4.55,14.55,14.55,0,0,1-3,1.49c-.36.12-.75.19-1.15.29a79,79,0,0,0-.88-10.5,8.31,8.31,0,0,0-.13-2.29c1.67,0,3.33,0,5-.13a11.41,11.41,0,0,0,3-.38c1.9-.71,2.36-3,2.37-4.78.06-5.67-6.83-5.09-11-4.11a13.7,13.7,0,0,1-.2-1.43,17.76,17.76,0,0,0,9.37-6.57q28.11,0,56.2,0c43.39,0,86.79-.21,130.19-.23Q577.9,371.52,614.05,371.39Z"/><path class="cls-1" d="M557.71,249.92c-.38,4-.24,8.11-.32,12.07-.13,5.84-.27,11.68-.33,17.52-.12,10.9-.26,21.81-.15,32.71-22.26.09-44.53.24-66.76.22q-73.83,0-147.66,0h-2.3c1.74-20.92,1.43-42.46.72-63.45,8,.81,16.34.46,24.37.62,8.89.17,17.79.18,26.67.22q28.21.12,56.42.1l55.39,0C521.71,250,539.76,250.58,557.71,249.92Zm-22.26,28.43c1.85-12.45-11.16-19.34-22.18-17-5.59,1.2-9.2,5.93-10.08,11.37a14.89,14.89,0,0,0,.82,8,15.34,15.34,0,0,0,6.74,9.46C520.46,296.29,533.83,289.28,535.45,278.35Zm-44.83,0c1.85-12.45-11.16-19.34-22.18-17-5.58,1.2-9.2,5.93-10.08,11.37a14.79,14.79,0,0,0,.83,8,15.29,15.29,0,0,0,6.73,9.46C475.64,296.29,489,289.28,490.62,278.35Zm-44.83,0c1.85-12.45-11.16-19.34-22.17-17-5.59,1.2-9.21,5.93-10.09,11.37a14.79,14.79,0,0,0,.83,8,15.29,15.29,0,0,0,6.73,9.46C430.81,296.29,444.18,289.28,445.79,278.35Z"/><path class="cls-1" d="M517.29,265c8.12.17,16.82,6.64,12.05,15.27-3.28,5.93-11.4,8.78-17,4.24A13,13,0,0,1,509,268.61,9.8,9.8,0,0,1,517.29,265Z"/><path class="cls-1" d="M499.57,161.27c0,7.9.13,15.77.09,23.57q0,10.93-.08,21.88c-19.3-.28-39-.54-58.24,1,0-7.16.08-14.33.08-21.48,0-8.62,0-17.24,0-25.86C460.57,162,480.37,161.91,499.57,161.27Z"/><path class="cls-1" d="M499.59,243.33l-51.22,0h-7.65c1-8.62.52-17.53.58-26.17l0-7.92c19.25,1.51,38.94,1.25,58.24,1Q499.53,226.79,499.59,243.33Z"/><path class="cls-1" d="M500.7,127.58c-.92,10-1.12,20-1.14,30.12-19.19-.65-39-.71-58.12.92q0-15.94,0-31.9c8.93,1.1,18.21.75,27.13.81Q484.66,127.64,500.7,127.58Z"/><path class="cls-1" d="M472.46,265c8.12.17,16.82,6.64,12.06,15.27-3.28,5.93-11.41,8.78-17,4.24a13,13,0,0,1-3.34-15.89A9.8,9.8,0,0,1,472.46,265Z"/><path class="cls-1" d="M469.68,65.53c4.2,9.2,2.35,20.14,2.06,30.14a25.62,25.62,0,0,0-5.57-2c-5.13-1-12.72-.72-18.29-3.09A17.92,17.92,0,0,1,436.23,82a3.34,3.34,0,0,0-.92,1.93c-1.61,13.53-13.9,24.32-26.45,28.19-5.29,1.63-15.68,2.51-20.45-1.81a19.79,19.79,0,0,1-7.79-7.32,3,3,0,0,0-.7,2c-.07,9.49-8,18.08-16.55,21.45-7.87,3.13-18.08,2.23-25.5-1.68s-13.94-12.94-14.28-21.43c-.37-9.64,13-20.5,20.49-11.47a2.46,2.46,0,0,0,1.8.87c0-5.53-.05-11.15,1.21-16.35.5-7.69,4.07-15.07,11.63-18,7.72-3,17.38-1.42,24.12,3.6a43,43,0,0,1,10.94,8.64,2.26,2.26,0,0,0,.67-1.18c2.81-14,10.33-28,26.47-27.59,12.49.29,27.63,7.7,27.39,21.91a3.89,3.89,0,0,0,0,.49c2.67-3.73,6.68-7,11-6.21.11,0,.21.06.33.09C463.45,58.11,467.78,61.36,469.68,65.53Z"/><path class="cls-1" d="M427.63,265c8.12.17,16.83,6.64,12.06,15.27-3.28,5.93-11.41,8.78-17,4.24a13,13,0,0,1-3.34-15.89A9.81,9.81,0,0,1,427.63,265Z"/><path class="cls-1" d="M396.86,186.13c-.42,4.7-.56,9.48-.62,14.25-10.63-.37-21.49,0-32.13.61-.07-5-.17-10.06-.26-15,4.69.55,9.59.31,14.21.34C384.31,186.35,390.61,186.55,396.86,186.13Z"/><path class="cls-1" d="M396.21,203.27c0,3.68,0,7.35-.12,11-.24,9.68-.78,19.52-.34,29.19H393c-9.23,0-18.47.05-27.7.23l-2.49,0a361.51,361.51,0,0,0,1.33-41.05C374.75,203.28,385.6,203.64,396.21,203.27Z"/><path class="cls-1" d="M357.53,398.89a11.92,11.92,0,0,1-.3,4.68c-1,4-3.33,5.61-7.1,7.09a25.42,25.42,0,0,0-7.87,4.52,48.63,48.63,0,0,0-10-6c-5.61-2.5-7-6.74-4.54-11.92a9.36,9.36,0,0,0,3.61,5.7c1.8,1.38,5.43,3.69,7.69,2a.87.87,0,0,0,.17-.16c.73-2.37.16-5.38,0-7.7-.15-3.15-.31-6.27-.34-9.4a1,1,0,0,0-1.23-.35,12.69,12.69,0,0,1-5,.25c-1.22-.07-3.27.26-3.75-1.13-.72-2,.77-2.58,2.31-3,2.29-.57,4.54-1.19,6.82-1.74a.76.76,0,0,0,.51-1s0-.07,0-.11a13.68,13.68,0,0,0-.27-4.4c0-1.1,0-2.19.08-3.26.11-1.35,1.05-8.58,3.74-6.17,1.61,1.44,1.38,5.51,1.5,7.45a36,36,0,0,0,.53,6.3,1,1,0,0,0,1.43.68l.38.07c2,.41,3.9.39,5.87.66,1.49.21,2.73.31,3,2,.09.61.26,1.94-.26,2.41s-1.39.24-1.88.25c-2.29.08-4.59.16-6.89.17a1.11,1.11,0,0,0-.79.3c0,1.83-.06,3.65-.1,5.48,0,.42,0,.84,0,1.26v.46c0,1.17,0,2.33,0,3.49.06,1.87.15,3.74.19,5.56a1.32,1.32,0,0,0,.55,1.08,1.79,1.79,0,0,0,1,1c2.38.93,6.42-1.76,8.18-3.16A9,9,0,0,0,357.53,398.89Z"/><path class="cls-1" d="M340.05,351.55c8.11.17,16.82,6.64,12.05,15.27a12.79,12.79,0,0,1-6.31,5.56c-.22-3.94-.93-7.87-4-8.4-4-.68-5.37,3.4-5.61,7.81a7.92,7.92,0,0,1-1-.73,13,13,0,0,1-3.34-15.89A9.8,9.8,0,0,1,340.05,351.55Z"/><path class="cls-1" d="M327,368.07c-14.89-.09-29.79,0-44.59,1l-.64,0q-2.2-5.36-4.28-10.74c16.14.77,32.33.79,48.49.76l0,.16a14.81,14.81,0,0,0,.83,8C326.84,367.58,326.92,367.83,327,368.07Z"/><path d="M631.62,312.61c-22.71-.43-45.44-.47-68.17-.41.1-10.89-.05-21.8-.15-32.69-.06-5.52-.2-11-.31-16.55-.1-4.67.1-9.54-.47-14.22a3.23,3.23,0,0,0,.18-.28,7.93,7.93,0,0,0-3.56-5s0,0,0,0c-17.44-.71-35-.16-52.47-.12.09-19.49,0-39-.07-58.48-.1-20.23.81-41-1.44-61.15a2.11,2.11,0,0,0-1.4-1.85,3.11,3.11,0,0,0-2.28-.93q-16.46-.09-32.88.06c-8.23,0-16.76-.23-25,.57a61.33,61.33,0,0,1-6.31.87,9.84,9.84,0,0,1-1.27,1l-.45.68a2.66,2.66,0,0,1-.34.4q0,30.87,0,61.76,0,15.49.13,31c.07,8.65-.39,17.55.57,26.18q-16.83,0-33.67.06c.43-9.67-.1-19.51-.35-29.18s.1-19.56-.87-29.2a2.37,2.37,0,0,0,.25-.29c0-.32,0-.64,0-.95a6.24,6.24,0,0,0-1.63-3.74A3.93,3.93,0,0,0,399,180c-6.95-.65-14-.4-20.93-.34-6.4.06-13.3-.46-19.49,1.39a1.92,1.92,0,0,0-.41.19,3.4,3.4,0,0,1-.18.3q-.15,1.4-.33,2.79a.65.65,0,0,1,.08.09c-.36,19.59-1,39.84,1,59.34a155.16,155.16,0,0,0-20.15.85,2.72,2.72,0,0,0-3.32,2.64c-.77,21.56-1.14,43.73.66,65.26-25.2-.06-50.49-.45-75.65.92l-.24-.07c-.51.47-1,.92-1.52,1.39a4,4,0,0,0-.24.41c-.06,1-.11,2-.16,3.06l0,0c4.07,12,7.2,24.2,11.11,36.21,4.42,13.56,10.13,26.71,15.62,39.86,5.33,12.73,9.83,25.69,14.7,38.6s11.91,24.87,16.71,37.82a3,3,0,0,0,1.87,1.87,1.6,1.6,0,0,0,.55.23c8,1.91,17,1.27,25.15,1.36,8.55.09,17.11.19,25.66.22q26.19.08,52.38.1H526.66c18.43,0,37,.73,55.48,0,1.28-2.43,2.44-4.92,3.7-7.37,1.27-4,3.13-7.77,4.73-11.56,2.71-6.42,5.15-12.95,7.47-19.51,4.94-13.87,9.32-27.91,14.35-41.74q7.07-19.49,14.06-39c4.13-11.53,9-23.81,10-36.17h.4A9.09,9.09,0,0,0,631.62,312.61ZM441.46,126.72c8.93,1.1,18.21.75,27.13.81q16.07.1,32.11,0c-.92,10-1.12,20-1.14,30.12-19.19-.65-39-.71-58.12.92Q441.46,142.68,441.46,126.72Zm0,59.49c0-8.62,0-17.24,0-25.86,19.13,1.62,38.93,1.56,58.13.92,0,7.9.13,15.77.09,23.57q0,10.93-.08,21.88c-19.3-.28-39-.54-58.24,1C441.37,200.53,441.42,193.36,441.42,186.21Zm-.12,31,0-7.92c19.25,1.51,38.94,1.25,58.24,1q0,16.55,0,33.09l-51.22,0h-7.65C441.68,234.74,441.24,225.83,441.3,217.19Zm-63.24-30.9c6.25.06,12.55.26,18.8-.16-.42,4.7-.56,9.48-.62,14.25-10.63-.37-21.49,0-32.13.61-.07-5-.17-10.06-.26-15C368.54,186.5,373.44,186.26,378.06,186.29Zm-13.94,16.37c10.63.62,21.48,1,32.09.61,0,3.68,0,7.35-.12,11-.24,9.68-.78,19.52-.34,29.19H393c-9.23,0-18.47.05-27.7.23l-2.49,0A361.51,361.51,0,0,0,364.12,202.66ZM340.91,249c8,.81,16.34.46,24.37.62,8.89.17,17.79.18,26.67.22q28.21.12,56.42.1l55.39,0c18,0,36,.59,54-.07-.38,4-.24,8.11-.32,12.07-.13,5.84-.27,11.68-.33,17.52-.12,10.9-.26,21.81-.15,32.71-22.26.09-44.53.24-66.76.22q-73.83,0-147.66,0h-2.3C341.93,291.55,341.62,270,340.91,249Zm-59.14,120.1q-2.2-5.36-4.28-10.74c16.14.77,32.33.79,48.49.76l0,.16a14.81,14.81,0,0,0,.83,8c.06.26.14.51.22.75-14.89-.09-29.79,0-44.59,1ZM605.9,393.47c-5,13.51-9.26,27.24-14.08,40.8q-3.54,10-7.54,19.79c-1.77,4.37-3.86,8.76-5,13.37-15.11-.48-30.35.07-45.44.07H481.48q-52.38,0-104.74.08-14.39.06-28.76.21c-8.35.08-17.6-.61-26,.75-4.28-12.88-11-24.77-15.7-37.51-4.88-13.27-9.56-26.5-15-39.54-2.88-6.85-5.83-13.67-8.68-20.53,15.3,1.05,30.73,1,46.12.89a15.11,15.11,0,0,0,4.85,4.93,14.8,14.8,0,0,0,2.93,1.4c0,.23.07.46.1.66s0,.15,0,.22c0,.28,0,.57-.05.86a13.69,13.69,0,0,0-3.59.36,25.8,25.8,0,0,0-4.19,1c-2.28.9-3,3.06-2.63,5.39s2.08,3.31,4.34,3.51a21.43,21.43,0,0,0,7-.19,90,90,0,0,0-.14,11.84,20.15,20.15,0,0,1-3.78-1.63,21.9,21.9,0,0,1-4.45-3.33,5.32,5.32,0,0,1-.74-1,.4.4,0,0,0-.27-.17.52.52,0,0,0-.58,0,8.71,8.71,0,0,0-2.76,10.69,9.47,9.47,0,0,0,4.65,4.5c4.19,2.19,8.36,3.64,12.16,6.57a1.2,1.2,0,0,0,1.65,0c3.19-2.95,6.28-3.72,10.1-5.4a9.9,9.9,0,0,0,5.33-4.65c1.95-3.83,2.65-9.34-.3-12.77-.72-.86-2.08,0-2,.94a11.22,11.22,0,0,1-4.28,4.55,14.55,14.55,0,0,1-3,1.49c-.36.12-.75.19-1.15.29a79,79,0,0,0-.88-10.5,8.31,8.31,0,0,0-.13-2.29c1.67,0,3.33,0,5-.13a11.41,11.41,0,0,0,3-.38c1.9-.71,2.36-3,2.37-4.78.06-5.67-6.83-5.09-11-4.11a13.7,13.7,0,0,1-.2-1.43,17.76,17.76,0,0,0,9.37-6.57q28.11,0,56.2,0c43.39,0,86.79-.21,130.19-.23q36.13,0,72.29-.14C611.29,378.74,608.61,386.11,605.9,393.47Zm-261,.27v.46c0,1.17,0,2.33,0,3.49.06,1.87.15,3.74.2,5.56a1.29,1.29,0,0,0,.54,1.08,1.79,1.79,0,0,0,1,1c2.38.93,6.42-1.76,8.18-3.16a9,9,0,0,0,2.7-3.27,11.92,11.92,0,0,1-.3,4.68c-1,4-3.33,5.61-7.1,7.09a25.42,25.42,0,0,0-7.87,4.52,48.63,48.63,0,0,0-10-6c-5.61-2.5-7-6.74-4.54-11.92a9.36,9.36,0,0,0,3.61,5.7c1.8,1.38,5.43,3.69,7.69,2a.87.87,0,0,0,.17-.16c.73-2.37.16-5.38,0-7.7-.15-3.15-.31-6.27-.34-9.4a1,1,0,0,0-1.23-.35,12.69,12.69,0,0,1-5,.25c-1.22-.07-3.27.26-3.75-1.13-.72-2,.77-2.58,2.31-3,2.29-.57,4.54-1.19,6.82-1.74a.76.76,0,0,0,.51-1s0-.07,0-.11a13.68,13.68,0,0,0-.27-4.4c0-1.1,0-2.19.08-3.26.11-1.35,1.05-8.58,3.74-6.17,1.61,1.44,1.38,5.51,1.5,7.45a36,36,0,0,0,.53,6.3,1,1,0,0,0,1.43.68l.38.07c2,.41,3.9.39,5.87.66,1.49.21,2.73.31,3,2,.09.61.26,1.94-.26,2.41s-1.39.24-1.88.25c-2.29.08-4.59.16-6.89.17a1.11,1.11,0,0,0-.79.3c0,1.83-.06,3.65-.1,5.48C344.85,392.9,344.85,393.32,344.86,393.74Zm.93-21.36c-.22-3.94-.93-7.87-4-8.4-4-.68-5.37,3.4-5.61,7.81a7.92,7.92,0,0,1-1-.73,13,13,0,0,1-3.34-15.89,9.8,9.8,0,0,1,8.29-3.62c8.11.17,16.82,6.64,12.05,15.27A12.79,12.79,0,0,1,345.79,372.38Zm269.3-3.74h-1q-128.35-.66-256.76-.38a14.06,14.06,0,0,0,.91-3.35,14.45,14.45,0,0,0-.25-5.76q25.92,0,51.8,0H544.43c24.81,0,49.64-.2,74.46-.37C617.6,362.08,616.34,365.35,615.09,368.64Zm5.8-14.9c-.31.77-.61,1.56-.92,2.33h-1.06c-87.45-.54-174.89-.37-262.34-.35-3.75-6.43-12.65-9.47-20.54-7.78a12.74,12.74,0,0,0-9,7.73c-16.55,0-33.09,0-49.6.84l-.63,0c-.48-1.27-.95-2.53-1.42-3.81-4.13-11.38-7.62-23-12.3-34.19,23.34,1.15,46.77.76,70.14.78l74.34,0q73.83,0,147.66,0c25.49,0,51,.3,76.52-.13A192.55,192.55,0,0,1,620.89,353.74Z"/><path d="M510.75,290.22c9.71,6.07,23.08-.94,24.7-11.87,1.85-12.45-11.16-19.34-22.18-17-5.59,1.2-9.2,5.93-10.08,11.37a14.89,14.89,0,0,0,.82,8A15.34,15.34,0,0,0,510.75,290.22ZM509,268.61a9.8,9.8,0,0,1,8.29-3.62c8.12.17,16.82,6.64,12.05,15.27-3.28,5.93-11.4,8.78-17,4.24A13,13,0,0,1,509,268.61Z"/><path d="M465.92,290.22c9.72,6.07,23.08-.94,24.7-11.87,1.85-12.45-11.16-19.34-22.18-17-5.58,1.2-9.2,5.93-10.08,11.37a14.79,14.79,0,0,0,.83,8A15.29,15.29,0,0,0,465.92,290.22Zm-1.75-21.61a9.8,9.8,0,0,1,8.29-3.62c8.12.17,16.82,6.64,12.06,15.27-3.28,5.93-11.41,8.78-17,4.24A13,13,0,0,1,464.17,268.61Z"/><path d="M469.66,56c-5.56-4.69-12.75-4.54-17.26-.47C448.16,43.66,434.74,37,422.07,36.37c-16.84-.88-26.51,11.23-31.23,25.51-7.75-9.5-22.55-13.24-34-8.88-12.13,4.61-16.72,17.93-15.27,30-7.75-2.46-16.78,2.69-21.35,10.47-6.19,10.53.35,25,8.73,32.42,9.05,8,23.26,10.69,34.76,7,8.84-2.83,17-9.92,20.46-18.69,5.86,5.61,16.54,6.15,24.59,4.31C422.11,115.5,435,104.88,439.6,91.7A24.84,24.84,0,0,0,449,97.34a36.53,36.53,0,0,0,9.76,1.89,38.28,38.28,0,0,1,7.83.89c.37.1.79.29,1.2.42a31.72,31.72,0,0,1,6.53,1.58c1.48-1,1.83-2,1.5-3C476.57,85.76,481.7,66.12,469.66,56Zm2.08,39.71a25.62,25.62,0,0,0-5.57-2c-5.13-1-12.72-.72-18.29-3.09A17.92,17.92,0,0,1,436.23,82a3.34,3.34,0,0,0-.92,1.93c-1.61,13.53-13.9,24.32-26.45,28.19-5.29,1.63-15.68,2.51-20.45-1.81a19.79,19.79,0,0,1-7.79-7.32,3,3,0,0,0-.7,2c-.07,9.49-8,18.08-16.55,21.45-7.87,3.13-18.08,2.23-25.5-1.68s-13.94-12.94-14.28-21.43c-.37-9.64,13-20.5,20.49-11.47a2.46,2.46,0,0,0,1.8.87c0-5.53-.05-11.15,1.21-16.35.5-7.69,4.07-15.07,11.63-18,7.72-3,17.38-1.42,24.12,3.6a43,43,0,0,1,10.94,8.64,2.26,2.26,0,0,0,.67-1.18c2.81-14,10.33-28,26.47-27.59,12.49.29,27.63,7.7,27.39,21.91a3.89,3.89,0,0,0,0,.49c2.67-3.73,6.68-7,11-6.21.11,0,.21.06.33.09,3.72,0,8,3.25,9.95,7.42C473.88,74.73,472,85.67,471.74,95.67Z"/><path d="M421.09,290.22c9.72,6.07,23.09-.94,24.7-11.87,1.85-12.45-11.16-19.34-22.17-17-5.59,1.2-9.21,5.93-10.09,11.37a14.79,14.79,0,0,0,.83,8A15.29,15.29,0,0,0,421.09,290.22Zm-1.75-21.61a9.81,9.81,0,0,1,8.29-3.62c8.12.17,16.83,6.64,12.06,15.27-3.28,5.93-11.41,8.78-17,4.24A13,13,0,0,1,419.34,268.61Z"/></g></svg>