<?xml version="1.0" encoding="UTF-8" standalone="no"?>
<!-- Created with Inkscape (http://www.inkscape.org/) -->

<svg
   width="158.5mm"
   height="113.2mm"
   viewBox="0 0 158.5 113.2"
   version="1.1"
   id="svg4753"
   inkscape:version="1.1.1 (c3084ef, 2021-09-22)"
   sodipodi:docname="launch_title.svg"
   xmlns:inkscape="http://www.inkscape.org/namespaces/inkscape"
   xmlns:sodipodi="http://sodipodi.sourceforge.net/DTD/sodipodi-0.dtd"
   xmlns="http://www.w3.org/2000/svg"
   xmlns:svg="http://www.w3.org/2000/svg">
  <sodipodi:namedview
     id="namedview4755"
     pagecolor="#ffffff"
     bordercolor="#666666"
     borderopacity="1.0"
     inkscape:pageshadow="2"
     inkscape:pageopacity="0.0"
     inkscape:pagecheckerboard="0"
     inkscape:document-units="mm"
     showgrid="false"
     width="158.5mm"
     inkscape:zoom="0.52382155"
     inkscape:cx="81.134501"
     inkscape:cy="561.25984"
     inkscape:window-width="1312"
     inkscape:window-height="810"
     inkscape:window-x="0"
     inkscape:window-y="25"
     inkscape:window-maximized="0"
     inkscape:current-layer="text2507" />
  <defs
     id="defs4750" />
  <g
     inkscape:label="Layer 1"
     inkscape:groupmode="layer"
     id="layer1">
    <g
       id="g4043"
       transform="matrix(0.35277777,0,0,-0.35277777,104.58311,94.23649)"
       style="display:inline">
      <path
         d="M 0,0 C 0.998,1.729 2.145,0.556 3.592,0 3.592,0 0,0 0,0 m -184.896,196.722 c -7.215,-7.499 -4.873,-22.091 -17.701,-18.814 -21.303,-27.028 -39.889,-8.749 -26.808,16.968 -2.525,-13.729 37.104,-3.988 44.509,1.846 m 333.631,14.559 c -3.832,12.492 -18.055,9.076 -28.231,6.812 -13.899,10.398 -35.752,-1.147 -49.988,5.228 -21.279,-8.886 -46.636,0.315 -65.174,-12.058 -4.887,-3.103 -12.561,13.452 -27.67,9.962 -37.848,-3.773 -40.606,-21.628 -36.923,18.907 -7.635,36.276 -64.888,19.388 -55.738,-25.144 -20.967,22.522 -68.878,-17.181 -62.425,-3.328 22.12,72.62 -86.875,52.58 -103.586,5.779 -14.287,-26.791 -14.29,-66.606 6.629,-88.895 11.889,-23.55 52.616,-9.28 60.957,-30.067 -0.005,-0.008 -1.039,-99.37 -1.039,-99.37 19.089,-10.812 44.936,-10.283 59.842,8.837 -2.372,12.99 -2.091,6.717 -2.791,28.122 11.346,-1.13 36.679,24.677 31.642,1.607 -4.986,-38.289 18.188,-63.388 49.063,-39.904 21.984,-3.469 45.698,-15.391 66.626,-4.785 -1.05,-91.389 104.86,-38.894 84.467,66.666 4.212,31.355 0.552,52.38 -37.65,41.643 -10.892,6.651 -44.352,7.874 -52.904,-5.83 -9.823,16.456 -55.924,0.757 -54.72,16.375 17.977,11.367 57.626,-16.16 77.568,13.267 20.914,-24.128 88.971,-21.561 114.3,-5.892 10.53,12.102 4.413,27.714 6.041,43.219 0.918,1.849 13.538,-1.535 14.946,-1.327 8.018,13.546 16.012,34.361 6.758,50.176"
         style="fill:#b83a1c;fill-opacity:1;fill-rule:nonzero;stroke:none"
         id="path4045" />
    </g>
    <g
       id="g4047"
       transform="matrix(0.35277777,0,0,-0.35277777,102.66022,91.67264)"
       style="display:inline">
      <path
         d="M 0,0 C 0.998,1.729 2.145,0.556 3.592,0 3.592,0 0,0 0,0 m -184.896,196.722 c -7.215,-7.499 -4.873,-22.091 -17.701,-18.814 -21.303,-27.028 -39.889,-8.749 -26.808,16.968 -2.525,-13.729 37.104,-3.988 44.509,1.846 m 333.631,14.559 c -3.832,12.492 -18.055,9.076 -28.231,6.812 -13.899,10.398 -35.752,-1.147 -49.988,5.228 -21.279,-8.886 -46.636,0.315 -65.174,-12.058 -4.887,-3.103 -12.561,13.452 -27.67,9.962 -37.848,-3.773 -40.606,-21.628 -36.923,18.907 -7.635,36.276 -64.888,19.387 -55.738,-25.144 -20.967,22.522 -68.878,-17.181 -62.425,-3.328 22.12,72.62 -86.875,52.58 -103.586,5.779 -14.287,-26.791 -14.29,-66.606 6.629,-88.895 11.889,-23.55 52.616,-9.28 60.957,-30.067 -0.005,-0.008 -1.039,-99.37 -1.039,-99.37 19.089,-10.812 44.936,-10.283 59.842,8.837 -2.372,12.99 -2.091,6.717 -2.791,28.122 11.346,-1.13 36.679,24.677 31.642,1.607 -4.986,-38.289 18.188,-63.388 49.063,-39.904 21.984,-3.469 45.698,-15.391 66.626,-4.785 -1.05,-91.389 104.86,-38.894 84.467,66.666 4.212,31.355 0.553,52.38 -37.65,41.643 -10.892,6.651 -44.352,7.874 -52.904,-5.83 -9.823,16.456 -55.924,0.757 -54.72,16.375 17.977,11.367 57.626,-16.16 77.568,13.267 20.914,-24.128 88.971,-21.561 114.3,-5.892 10.53,12.102 4.413,27.714 6.041,43.219 0.918,1.849 13.538,-1.535 14.946,-1.327 8.018,13.546 16.012,34.361 6.758,50.176"
         style="fill:#ff4567;fill-opacity:1;fill-rule:nonzero;stroke:none"
         id="path4049" />
    </g>
    <g
       aria-label="Play"
       id="text2507"
       style="font-size:56.6046px;font-family:'Bubblegum Sans';-inkscape-font-specification:BubblegumSans-Regular;display:inline;fill:#fbfcfa;stroke-width:0.352778">
      <path
         d="m 41.559062,67.834021 q 12.67943,-1.132092 12.67943,-8.094458 0,-2.264184 -2.377393,-3.509485 -2.320789,-1.301906 -5.943483,-1.301906 L 41.842085,55.2678 q -0.283023,2.037765 -0.283023,12.566221 z m 0.566046,19.528586 q -0.622651,0.622651 -2.490603,0.962279 -1.811347,0.396232 -3.113253,0.396232 -1.301905,0 -2.09437,-0.339628 L 34.76651,55.720636 q -0.792465,-0.905673 -1.528324,-3.000043 -0.679256,-2.09437 -0.679256,-2.547207 0,-0.509442 0.11321,-0.622651 0.169813,-0.169814 3.622694,-0.339627 3.509485,-0.226419 7.01897,-0.226419 3.56609,0 6.339715,0.396232 2.773626,0.396233 5.66046,1.47172 2.943439,1.018883 4.641577,3.226462 1.754743,2.150975 1.754743,5.547251 0,3.396276 -2.09437,6.226506 -2.037766,2.83023 -4.981205,4.301949 -6.113297,3.113253 -10.981292,3.735904 l -2.09437,0.226418 q 0.226418,11.547338 0.566046,13.245476 z"
         id="path5023" />
      <path
         d="m 65.672645,78.985127 0.226418,-20.490865 q 0,-4.471763 -0.113209,-6.056692 -0.113209,-1.584929 -0.113209,-1.698138 0,-0.566046 1.867952,-1.301906 1.924556,-0.73586 3.396276,-0.73586 1.471719,0 1.471719,0.226419 -0.283023,2.09437 -0.283023,14.717195 L 72.01236,77.513407 q 0,3.905717 0.113209,4.811391 0.283023,2.490602 1.641533,4.528368 0,0.566046 -2.320788,1.811347 -2.320789,1.245301 -3.962322,1.245301 -0.452837,0 -1.018883,-1.698138 -0.566046,-1.698138 -0.679255,-2.943439 -0.113209,-1.245301 -0.113209,-6.28311 z"
         id="path5025" />
      <path
         d="m 97.371225,74.400154 q 0,7.075575 0.169813,8.264272 0.452837,3.113253 1.924557,4.471763 0,0.622651 -2.264184,1.867952 -2.20758,1.245301 -4.018927,1.245301 -0.509441,0 -1.075487,-1.528324 -0.566046,-1.47172 -0.679255,-2.20758 -0.0566,-0.735859 -0.11321,-0.735859 l -0.169813,0.113209 q -3.000044,2.377393 -7.018971,2.377393 -4.018926,0 -6.226505,-1.924556 -2.150975,-1.981161 -2.150975,-5.151019 0,-3.169858 1.35851,-5.320832 1.415115,-2.20758 3.283067,-3.339672 1.867952,-1.132092 4.132136,-1.811347 3.45288,-1.132092 5.434041,-1.132092 l 0.113209,-0.0566 q 0,-2.773626 -7.01897,-2.773626 -2.773625,0 -4.132136,0.226419 h -0.0566 q 0,-1.132092 0.679255,-2.83023 0.73586,-1.698138 1.188696,-2.20758 0.509442,-0.509441 4.075532,-0.509441 6.452924,0 9.509572,2.490602 3.056649,2.433998 3.056649,7.585017 z m -6.283111,3.622694 v -2.150974 q 0,-1.245301 -0.05661,-1.245301 -3.792508,0 -6.566133,1.981161 -1.754743,1.245301 -1.754743,3.113252 0,1.188697 0.849069,1.981161 0.849069,0.792465 2.547207,0.792465 1.754743,0 3.339672,-1.018883 1.641533,-1.018883 1.641533,-3.452881 z"
         id="path5027" />
      <path
         d="m 123.46596,71.230297 0.0566,15.056823 q 0,4.415159 -1.1887,7.868039 -1.13209,3.452881 -2.83023,5.320833 -1.64153,1.867948 -3.79251,3.056648 -3.50948,1.98116 -7.13218,1.98116 -0.16981,0 -0.67925,-0.84907 -0.50944,-0.84907 -0.96228,-2.32079 -0.45284,-1.415112 -0.45284,-2.660413 2.15098,0 4.30195,-0.849069 2.15098,-0.792464 3.00005,-1.754742 0.84907,-0.905674 1.69813,-2.320789 1.75475,-2.773625 1.75475,-9.000131 l -0.0566,-1.641534 q 0,-0.339627 -0.11321,-0.339627 -0.11321,0 -0.22642,0.169814 -0.1132,0.169813 -0.28302,0.452836 -0.16981,0.226419 -0.84907,0.905674 -0.62265,0.622651 -1.35851,1.132092 -1.98116,1.35851 -4.01892,1.35851 -1.98116,0 -3.16986,-0.509441 -1.13209,-0.509441 -1.92456,-1.301906 -0.73586,-0.792464 -1.2453,-2.207579 -0.50944,-1.47172 -0.79246,-2.717021 -0.28303,-1.245301 -0.39624,-3.396276 -0.22641,-3.000044 -0.22641,-6.226506 0,-4.471763 0.45283,-7.301993 l 0.16982,-0.792464 q 0,-0.396233 1.69813,-0.792465 1.75475,-0.396232 2.88684,-0.396232 l 1.81135,0.283023 q -0.62265,5.603855 -0.62265,9.452968 0,3.849113 0.79246,6.39632 0.79246,2.547207 2.66042,2.547207 1.86795,0 2.94344,-1.075488 1.13209,-1.132092 1.41511,-2.207579 l 0.28302,-1.075487 q -0.11321,-3.56609 -0.11321,-7.641621 0,-4.132136 0.28303,-4.415159 0.73586,-0.73586 2.5472,-1.132092 1.86796,-0.396232 3.00005,-0.396232 1.13209,0 1.13209,0.169814 -0.45284,2.660416 -0.45284,9.169945 z"
         id="path5029" />
    </g>
    <g
       aria-label="Colour"
       id="text4055"
       style="font-size:56.6046px;font-family:'Bubblegum Sans';-inkscape-font-specification:BubblegumSans-Regular;display:inline;fill:#fbfcfa;stroke-width:0.352778">
      <path
         d="m 24.124827,47.399728 q -8.264272,0 -12.509617,-4.754787 -4.2453447,-4.754786 -4.2453447,-12.283198 0,-6.396319 2.8302297,-11.886965 1.641534,-3.226462 4.132136,-5.66046 2.490602,-2.433998 6.735947,-4.0189267 4.245345,-1.5849288 9.622782,-1.5849288 1.811347,0 3.226462,0.3396276 1.415115,0.3396276 1.415115,0.4528368 0,2.7170211 -0.396232,6.2265061 -0.339628,3.45288 -0.396232,3.509485 -0.283023,0.283023 -2.377393,0.905673 -2.037766,0.622651 -3.056649,0.622651 v -0.339628 q 0,-2.547206 -0.73586,-3.566089 -0.735859,-1.018883 -2.547206,-1.018883 -4.018927,0 -7.471808,4.245345 -3.45288,4.18874 -3.45288,11.547338 0,3.905717 1.924556,7.01897 1.018883,1.641534 2.943439,2.660417 1.981161,1.018882 4.641578,1.018882 5.320832,0 10.358641,-4.9246 0.226419,0 0.905674,0.73586 0.73586,0.679255 1.415115,1.867952 1.415115,2.264184 1.415115,2.773625 0,0.509441 -1.754743,1.924556 -1.754742,1.358511 -5.320832,2.773626 -3.56609,1.415115 -7.301993,1.415115 z"
         id="path4459" />
      <path
         d="m 65.049974,33.871229 q 0,5.377437 -3.283067,9.339758 -3.226462,3.905718 -8.830317,3.905718 -5.547251,0 -8.717108,-3.452881 -3.169858,-3.45288 -3.169858,-8.943526 0,-5.547251 3.905718,-9.792596 3.962321,-4.30195 10.641664,-4.30195 2.717021,0.11321 2.943439,0.339628 0.226419,0.226418 0.226419,1.075487 0,0.849069 -0.169814,1.867952 0.849069,0 2.150975,1.018883 1.35851,0.962278 2.207579,1.981161 0.849069,1.018883 1.47172,2.886834 0.62265,1.811348 0.62265,4.075532 z M 56.785703,29.908907 Q 55.483797,29.059838 54.238496,29.059838 H 53.785659 Q 53.67245,28.833419 53.67245,28.09756 q 0,-0.73586 0.169814,-1.415115 -2.320789,0 -4.358555,2.09437 -1.981161,2.09437 -1.981161,5.830273 0,4.415159 2.83023,6.113297 1.075488,0.679255 2.94344,0.679255 1.924556,0 3.566089,-1.754742 1.698138,-1.754743 1.698138,-5.207623 0,-3.452881 -1.754742,-4.528368 z"
         id="path4461" />
      <path
         d="m 69.578368,37.607132 0.226419,-20.490865 q 0,-4.471763 -0.113209,-6.056692 -0.11321,-1.5849286 -0.11321,-1.6981378 0,-0.5660459 1.867952,-1.3019057 1.924557,-0.7358598 3.396276,-0.7358598 1.47172,0 1.47172,0.2264184 -0.283023,2.0943701 -0.283023,14.7171959 l -0.11321,13.868127 q 0,3.905717 0.11321,4.81139 0.283023,2.490603 1.641533,4.528368 0,0.566046 -2.320789,1.811348 -2.320788,1.245301 -3.962321,1.245301 -0.452837,0 -1.018883,-1.698138 -0.566046,-1.698138 -0.679255,-2.943439 -0.11321,-1.245302 -0.11321,-6.283111 z"
         id="path4463" />
      <path
         d="m 105.06946,33.871229 q 0,5.377437 -3.28307,9.339758 -3.226459,3.905718 -8.830315,3.905718 -5.54725,0 -8.717108,-3.452881 -3.169857,-3.45288 -3.169857,-8.943526 0,-5.547251 3.905717,-9.792596 3.962322,-4.30195 10.641665,-4.30195 2.71702,0.11321 2.943439,0.339628 0.226418,0.226418 0.226418,1.075487 0,0.849069 -0.169814,1.867952 0.849069,0 2.150975,1.018883 1.35851,0.962278 2.20758,1.981161 0.84907,1.018883 1.47172,2.886834 0.62265,1.811348 0.62265,4.075532 z m -8.264272,-3.962322 q -1.301906,-0.849069 -2.547207,-0.849069 h -0.452837 q -0.113209,-0.226419 -0.113209,-0.962278 0,-0.73586 0.169814,-1.415115 -2.320789,0 -4.358554,2.09437 -1.981161,2.09437 -1.981161,5.830273 0,4.415159 2.83023,6.113297 1.075487,0.679255 2.943439,0.679255 1.924556,0 3.56609,-1.754742 1.698138,-1.754743 1.698138,-5.207623 0,-3.452881 -1.754743,-4.528368 z"
         id="path4465" />
      <path
         d="m 123.52257,43.49401 -0.0566,-1.188696 -0.0566,-0.113209 q -1.35851,2.09437 -3.45288,3.339671 -2.03777,1.245301 -4.01893,1.245301 -5.94348,0 -6.79255,-9.226549 -0.11321,-1.47172 -0.11321,-7.585017 0,-6.113296 0.50944,-7.245388 1.47172,-1.188697 4.75479,-1.188697 1.30191,0 1.58493,0.283023 0,0.05661 -0.0566,1.528324 -0.28302,4.30195 -0.28302,6.622738 0,2.320789 0.0566,3.452881 0.0566,1.075487 0.0566,1.415115 0.0566,0.283023 0.16981,1.075487 0.16982,0.792465 0.45284,1.358511 0.84907,1.641533 2.60381,1.641533 1.81135,0 3.16986,-1.754743 1.41512,-1.811347 1.35851,-2.547207 v -1.924556 q 0,-10.358642 0.33963,-11.151106 0.28302,-0.509441 1.75474,-1.075487 1.52833,-0.566046 3.00004,-0.566046 1.47172,0 1.69814,0.226418 l -0.11321,2.660416 q -0.33962,8.094458 -0.33962,12.509617 0,4.415158 0.22641,5.603855 0.39624,2.83023 1.52833,4.528368 0,0.566046 -2.32079,1.811347 -2.32079,1.245301 -3.96232,1.245301 -0.45284,0 -1.01888,-1.698138 -0.56605,-1.698138 -0.67926,-3.283067 z"
         id="path4467" />
      <path
         d="m 135.57936,38.003364 -0.1132,-12.849244 q 0,-3.339671 0.22641,-3.566089 0.62265,-0.622651 2.15098,-1.075488 1.52832,-0.509441 2.83023,-0.509441 1.35851,0 1.35851,0.283023 -0.16982,1.528324 -0.16982,3.509485 0,1.924556 0.11321,1.924556 0.11321,0 0.22642,-0.113209 0.11321,-0.169814 0.33963,-0.452837 0.28302,-0.339627 1.07549,-1.132092 0.84907,-0.792464 1.81134,-1.35851 2.434,-1.584929 5.20763,-1.584929 0.45283,0.73586 0.45283,2.264184 0,3.226462 -0.79246,4.584973 l -0.22642,0.452837 -0.73586,-0.11321 q -4.07553,0 -6.39632,3.339672 -0.90567,1.35851 -0.90567,2.037765 v 4.981205 q 0,6.792552 -0.16982,6.962366 -1.58492,1.528324 -6.2265,1.528324 -0.45284,0 -0.45284,-0.169814 0.39623,-2.207579 0.39623,-8.943527 z"
         id="path4469" />
    </g>
  </g>
</svg>
