<svg id="Layer_1" data-name="Layer 1" xmlns="http://www.w3.org/2000/svg" viewBox="0 0 182.63 182.63"><defs><style>.cls-1{fill:#fff;}.cls-2{fill:#f7dc1d;}.cls-3{fill:#dd9a18;}.cls-4{fill:#f4bb00;}.cls-5{fill:#d8d8d8;}.cls-6{fill:#fbfcfa;}</style></defs><circle class="cls-1" cx="91.32" cy="91.32" r="91.32"/><circle class="cls-2" cx="91.32" cy="91.32" r="81.81"/><circle class="cls-3" cx="88.49" cy="94.14" r="78.98"/><circle class="cls-4" cx="90.15" cy="92.48" r="77.32"/><path class="cls-5" d="M121.37,83.3,78.25,58.4a10.63,10.63,0,0,0-15.94,9.2v49.8a10.63,10.63,0,0,0,15.94,9.2l43.12-24.9A10.62,10.62,0,0,0,121.37,83.3Z" transform="translate(-1.18 -1.18)"/><path class="cls-6" d="M121.11,81.71,78.2,57.25a10.63,10.63,0,0,0-15.89,9.23V115.4a10.63,10.63,0,0,0,15.89,9.23l42.91-24.46A10.62,10.62,0,0,0,121.11,81.71Z" transform="translate(-1.18 -1.18)"/></svg>