<svg id="Layer_11" data-name="Layer 11" xmlns="http://www.w3.org/2000/svg" viewBox="0 0 895 511.11"><defs><style>.cls-1{fill:#fff;}.cls-2,.cls-3{fill:none;stroke:#000;stroke-miterlimit:10;}.cls-2{stroke-width:5px;}</style></defs><path class="cls-1" d="M630.2,237.56c0,49.09-31,104.1-67.38,151.84h0L559,394.32C547.58,409,535.69,423,524.12,435.78h0q-3.45,3.78-6.84,7.45C509.76,451.4,502.44,459,495.55,466a66.48,66.48,0,0,1-19.37,13.57c-2.19,1-4.44,1.89-6.72,2.67a68.84,68.84,0,0,1-48.39-1.7,67.38,67.38,0,0,1-8.28-4.15A65.77,65.77,0,0,1,399.47,466c-20.93-21.14-45.82-48.24-68.47-78.13-2.08-2.74-4.14-5.48-6.17-8.26-33.14-45.36-60-96.27-60-142q0-9.24.64-17.83h0c.2-2.56.44-5.09.7-7.57,5.42-49,26.83-81.92,58.32-102.74,2.79-1.89,5.67-3.65,8.63-5.31,31.31-17.64,71.1-24.85,114.41-24.85,42.31,0,81.26,6.88,112.23,23.65q4.4,2.37,8.57,5c32.71,20.74,55,54.09,60.56,104.23l.71,7.78Q630.2,228.43,630.2,237.56Z"/><path class="cls-2" d="M630.2,237.56c0,49.09-31,104.1-67.38,151.84h0L559,394.32C547.58,409,535.69,423,524.12,435.78h0q-3.45,3.78-6.84,7.45C509.76,451.4,502.44,459,495.55,466a66.48,66.48,0,0,1-19.37,13.57c-2.19,1-4.44,1.89-6.72,2.67a68.84,68.84,0,0,1-48.39-1.7,67.38,67.38,0,0,1-8.28-4.15A65.77,65.77,0,0,1,399.47,466c-20.93-21.14-45.82-48.24-68.47-78.13-2.08-2.74-4.14-5.48-6.17-8.26-33.14-45.36-60-96.27-60-142q0-9.24.64-17.83h0c.2-2.56.44-5.09.7-7.57,5.42-49,26.83-81.92,58.32-102.74,2.79-1.89,5.67-3.65,8.63-5.31,31.31-17.64,71.1-24.85,114.41-24.85,42.31,0,81.26,6.88,112.23,23.65q4.4,2.37,8.57,5c32.71,20.74,55,54.09,60.56,104.23l.71,7.78Q630.2,228.43,630.2,237.56Z"/><path class="cls-1" d="M575.27,98.62C536.94,97,514,76.46,488.27,71c-13.8-2.91-24.38-2.12-32.07,1.51h-2.65c3.72-14.73,10.76-30.95,24.09-40.37,2.25-1.59,2.19-4.13-.13-5.68a7.91,7.91,0,0,0-8.28.09c-16,11.34-23.92,30.38-27.81,46.87-1.06.19-2.11.39-3.1.65-7.65-3.44-18.07-4.14-31.59-1.29-25.74,5.43-48.66,26-87,27.59,44.12,13.76,78,10.49,100.47,4.08,3.85,16.75,19.22,35.75,11,58,31-23.49,37.71-45.6,36.46-62C489.83,108.16,526.21,113.93,575.27,98.62Z"/><path class="cls-2" d="M575.27,98.62C536.94,97,514,76.46,488.27,71c-13.8-2.91-24.38-2.12-32.07,1.51h-2.65c3.72-14.73,10.76-30.95,24.09-40.37,2.25-1.59,2.19-4.13-.13-5.68a7.91,7.91,0,0,0-8.28.09c-16,11.34-23.92,30.38-27.81,46.87-1.06.19-2.11.39-3.1.65-7.65-3.44-18.07-4.14-31.59-1.29-25.74,5.43-48.66,26-87,27.59,44.12,13.76,78,10.49,100.47,4.08,3.85,16.75,19.22,35.75,11,58,31-23.49,37.71-45.6,36.46-62C489.83,108.16,526.21,113.93,575.27,98.62Z"/><path class="cls-1" d="M322.24,139.62c-.58-5,2.1-6.19,4.65-6.18s5,1.25,4.58,6.23c-.48,5.23-4.67,9-4.67,9S322.83,144.73,322.24,139.62Z"/><path class="cls-1" d="M360.06,153.4c-.58-5,2.1-6.18,4.65-6.17s5,1.24,4.58,6.23c-.47,5.23-4.67,9-4.67,9S360.65,158.52,360.06,153.4Z"/><path class="cls-1" d="M412.81,158.88c-.57-5,2.1-6.19,4.65-6.18s5,1.25,4.58,6.23c-.47,5.23-4.66,9-4.66,9S413.4,164,412.81,158.88Z"/><path class="cls-1" d="M467.56,158.88c-.58-5,2.1-6.19,4.65-6.18s5,1.25,4.58,6.23c-.48,5.23-4.67,9-4.67,9S468.15,164,467.56,158.88Z"/><path class="cls-1" d="M514.83,151.26c-.57-5,2.11-6.19,4.66-6.18s5,1.25,4.58,6.23c-.48,5.23-4.67,9-4.67,9S515.43,156.37,514.83,151.26Z"/><path class="cls-1" d="M554.65,139.62c-.58-5,2.1-6.19,4.65-6.18s5,1.25,4.58,6.23c-.47,5.23-4.67,9-4.67,9S555.24,144.73,554.65,139.62Z"/><path class="cls-1" d="M322.24,190.32c-.58-5,2.1-6.19,4.65-6.17s5,1.24,4.58,6.22c-.48,5.24-4.67,9-4.67,9S322.83,195.44,322.24,190.32Z"/><path class="cls-1" d="M360.06,204.11c-.58-5,2.1-6.19,4.65-6.18s5,1.25,4.58,6.23c-.47,5.23-4.67,9-4.67,9S360.65,209.23,360.06,204.11Z"/><path class="cls-1" d="M412.81,209.58c-.57-5,2.1-6.19,4.65-6.17s5,1.24,4.58,6.23c-.47,5.23-4.66,9-4.66,9S413.4,214.7,412.81,209.58Z"/><path class="cls-1" d="M467.56,209.58c-.58-5,2.1-6.19,4.65-6.17s5,1.24,4.58,6.23c-.48,5.23-4.67,9-4.67,9S468.15,214.7,467.56,209.58Z"/><path class="cls-1" d="M514.83,202c-.57-5,2.11-6.19,4.66-6.17s5,1.24,4.58,6.22c-.48,5.23-4.67,9-4.67,9S515.43,207.08,514.83,202Z"/><path class="cls-1" d="M554.65,190.32c-.58-5,2.1-6.19,4.65-6.17s5,1.24,4.58,6.22c-.47,5.24-4.67,9-4.67,9S555.24,195.44,554.65,190.32Z"/><path class="cls-1" d="M490,124.37c-.57-5,2.1-6.18,4.65-6.17s5,1.24,4.58,6.23c-.47,5.23-4.67,9-4.67,9S490.54,129.49,490,124.37Z"/><path class="cls-1" d="M388.26,128.85c-.57-5,2.1-6.18,4.65-6.17s5,1.24,4.58,6.23c-.47,5.23-4.67,9-4.67,9S388.85,134,388.26,128.85Z"/><path class="cls-1" d="M288.23,177.38c-.58-5,2.1-6.19,4.65-6.18s5,1.25,4.58,6.23c-.47,5.23-4.67,9-4.67,9S288.82,182.49,288.23,177.38Z"/><path class="cls-1" d="M590.94,177.38c-.58-5,2.1-6.19,4.65-6.18s5,1.25,4.58,6.23c-.47,5.23-4.67,9-4.67,9S591.53,182.49,590.94,177.38Z"/><path class="cls-1" d="M322.24,242.08c-.58-5,2.1-6.19,4.65-6.17s5,1.24,4.58,6.22c-.48,5.23-4.67,9-4.67,9S322.83,247.2,322.24,242.08Z"/><path class="cls-1" d="M360.06,255.87c-.58-5,2.1-6.19,4.65-6.18s5,1.24,4.58,6.23c-.47,5.23-4.67,9-4.67,9S360.65,261,360.06,255.87Z"/><path class="cls-1" d="M412.81,261.34c-.57-5,2.1-6.19,4.65-6.17s5,1.24,4.58,6.22c-.47,5.23-4.66,9-4.66,9S413.4,266.46,412.81,261.34Z"/><path class="cls-1" d="M467.56,261.34c-.58-5,2.1-6.19,4.65-6.17s5,1.24,4.58,6.22c-.48,5.23-4.67,9-4.67,9S468.15,266.46,467.56,261.34Z"/><path class="cls-1" d="M514.83,253.72c-.57-5,2.11-6.19,4.66-6.17s5,1.24,4.58,6.22c-.48,5.23-4.67,9-4.67,9S515.43,258.84,514.83,253.72Z"/><path class="cls-1" d="M559.33,242.08c-.58-5,2.1-6.19,4.65-6.17s5,1.24,4.58,6.22c-.47,5.23-4.67,9-4.67,9S559.92,247.2,559.33,242.08Z"/><path class="cls-1" d="M295.49,229.47c-.58-5,2.1-6.19,4.65-6.17s5,1.24,4.58,6.23c-.47,5.23-4.67,9-4.67,9S296.08,234.59,295.49,229.47Z"/><path class="cls-1" d="M271.43,252.72c-.57-5,2.11-6.18,4.65-6.17s5,1.24,4.58,6.23c-.47,5.23-4.66,9-4.66,9S272,257.84,271.43,252.72Z"/><path class="cls-1" d="M274.42,211.73c-.58-5,2.1-6.19,4.65-6.17s5,1.24,4.58,6.22c-.47,5.23-4.67,9-4.67,9S275,216.85,274.42,211.73Z"/><path class="cls-1" d="M590.94,233.61c-.58-5,2.1-6.18,4.65-6.17s5,1.24,4.58,6.23c-.47,5.23-4.67,9-4.67,9S591.53,238.73,590.94,233.61Z"/><path class="cls-1" d="M611.34,254.18c-.57-5,2.11-6.19,4.65-6.17s5,1.24,4.58,6.22c-.47,5.23-4.66,9-4.66,9S611.93,259.3,611.34,254.18Z"/><path class="cls-1" d="M609.35,204.11c-.57-5,2.1-6.19,4.65-6.18s5,1.25,4.58,6.23c-.47,5.23-4.66,9-4.66,9S609.94,209.23,609.35,204.11Z"/><path class="cls-1" d="M322.24,288.53c-.58-5,2.1-6.19,4.65-6.17s5,1.24,4.58,6.23c-.48,5.23-4.67,9-4.67,9S322.83,293.65,322.24,288.53Z"/><path class="cls-1" d="M360.06,302.32c-.58-5,2.1-6.19,4.65-6.18s5,1.25,4.58,6.23c-.47,5.23-4.67,9-4.67,9S360.65,307.44,360.06,302.32Z"/><path class="cls-1" d="M412.81,307.79c-.57-5,2.1-6.19,4.65-6.17s5,1.24,4.58,6.23c-.47,5.23-4.66,9-4.66,9S413.4,312.91,412.81,307.79Z"/><path class="cls-1" d="M467.56,307.79c-.58-5,2.1-6.19,4.65-6.17s5,1.24,4.58,6.23c-.48,5.23-4.67,9-4.67,9S468.15,312.91,467.56,307.79Z"/><path class="cls-1" d="M514.83,300.17c-.57-5,2.11-6.19,4.66-6.17s5,1.24,4.58,6.22c-.48,5.23-4.67,9-4.67,9S515.43,305.29,514.83,300.17Z"/><path class="cls-1" d="M554.65,288.53c-.58-5,2.1-6.19,4.65-6.17s5,1.24,4.58,6.23c-.47,5.23-4.67,9-4.67,9S555.24,293.65,554.65,288.53Z"/><path class="cls-1" d="M288.23,275.59c-.58-5,2.1-6.19,4.65-6.18s5,1.25,4.58,6.23c-.47,5.23-4.67,9-4.67,9S288.82,280.7,288.23,275.59Z"/><path class="cls-1" d="M590.94,275.59c-.58-5,2.1-6.19,4.65-6.18s5,1.25,4.58,6.23c-.47,5.23-4.67,9-4.67,9S591.53,280.7,590.94,275.59Z"/><path class="cls-1" d="M322.24,330.51c-.58-5,2.1-6.19,4.65-6.18s5,1.25,4.58,6.23c-.48,5.23-4.67,9-4.67,9S322.83,335.62,322.24,330.51Z"/><path class="cls-1" d="M360.06,344.29c-.58-5,2.1-6.19,4.65-6.17s5,1.24,4.58,6.23c-.47,5.23-4.67,9-4.67,9S360.65,349.41,360.06,344.29Z"/><path class="cls-1" d="M412.81,349.77c-.57-5,2.1-6.19,4.65-6.18s5,1.25,4.58,6.23c-.47,5.23-4.66,9-4.66,9S413.4,354.88,412.81,349.77Z"/><path class="cls-1" d="M467.56,349.77c-.58-5,2.1-6.19,4.65-6.18s5,1.25,4.58,6.23c-.48,5.23-4.67,9-4.67,9S468.15,354.88,467.56,349.77Z"/><path class="cls-1" d="M514.83,342.14c-.57-5,2.11-6.18,4.66-6.17s5,1.24,4.58,6.23c-.48,5.23-4.67,9-4.67,9S515.43,347.26,514.83,342.14Z"/><path class="cls-1" d="M554.65,330.51c-.58-5,2.1-6.19,4.65-6.18s5,1.25,4.58,6.23c-.47,5.23-4.67,9-4.67,9S555.24,335.62,554.65,330.51Z"/><path class="cls-1" d="M297.59,315.41c-.57-5,2.11-6.18,4.66-6.17s5,1.24,4.58,6.23c-.48,5.23-4.67,9-4.67,9S298.19,320.53,297.59,315.41Z"/><path class="cls-1" d="M590.94,317.56c-.58-5,2.1-6.19,4.65-6.17s5,1.24,4.58,6.22c-.47,5.23-4.67,9-4.67,9S591.53,322.68,590.94,317.56Z"/><path class="cls-1" d="M334.46,385.48a11.77,11.77,0,0,1-.46,2.35c-2.08-2.74-4.14-5.48-6.17-8.26a6.56,6.56,0,0,1,2.06-.31C332.43,379.27,334.93,380.5,334.46,385.48Z"/><path class="cls-1" d="M360.06,399.21c-.58-5,2.1-6.19,4.65-6.17s5,1.24,4.58,6.22c-.47,5.23-4.67,9-4.67,9S360.65,404.33,360.06,399.21Z"/><path class="cls-1" d="M412.81,404.69c-.57-5,2.1-6.19,4.65-6.18s5,1.24,4.58,6.23c-.47,5.23-4.66,9-4.66,9S413.4,409.8,412.81,404.69Z"/><path class="cls-1" d="M467.56,404.69c-.58-5,2.1-6.19,4.65-6.18s5,1.24,4.58,6.23c-.48,5.23-4.67,9-4.67,9S468.15,409.8,467.56,404.69Z"/><path class="cls-1" d="M514.83,397.06c-.57-5,2.11-6.18,4.66-6.17s5,1.24,4.58,6.23c-.48,5.23-4.67,9-4.67,9S515.43,402.18,514.83,397.06Z"/><path class="cls-1" d="M562.81,386.41h0a12.4,12.4,0,0,0,1.06-3.92c.45-5-2-6.21-4.58-6.22s-5.23,1.18-4.65,6.16c.51,4.48,3.62,8.08,4.38,8.9Z"/><path class="cls-1" d="M412.81,444.51c-.57-5,2.1-6.19,4.65-6.17s5,1.24,4.58,6.23c-.47,5.23-4.66,9-4.66,9S413.4,449.63,412.81,444.51Z"/><path class="cls-1" d="M467.56,444.51c-.58-5,2.1-6.19,4.65-6.17s5,1.24,4.58,6.23c-.48,5.23-4.67,9-4.67,9S468.15,449.63,467.56,444.51Z"/><path class="cls-1" d="M524.12,432.78h0q-3.45,3.78-6.84,7.45a15.38,15.38,0,0,1-2.45-6.36c-.58-5,2.11-6.18,4.66-6.17C521.82,427.74,524.12,428.77,524.12,432.78Z"/><path class="cls-1" d="M422,473.77a12.34,12.34,0,0,1-1,3.73,67.38,67.38,0,0,1-8.28-4.15c-.42-4.67,2.18-5.82,4.67-5.81S422.49,468.79,422,473.77Z"/><path class="cls-1" d="M476.79,473.77a11.85,11.85,0,0,1-.61,2.76c-2.19,1-4.44,1.89-6.72,2.67a14.46,14.46,0,0,1-1.91-5.48c-.57-5,2.11-6.19,4.66-6.18S477.24,468.79,476.79,473.77Z"/><path class="cls-3" d="M322.24,139.62c-.58-5,2.1-6.19,4.65-6.18s5,1.25,4.58,6.23c-.48,5.23-4.67,9-4.67,9S322.83,144.73,322.24,139.62Z"/><path class="cls-3" d="M360.06,153.4c-.58-5,2.1-6.18,4.65-6.17s5,1.24,4.58,6.23c-.47,5.23-4.67,9-4.67,9S360.65,158.52,360.06,153.4Z"/><path class="cls-3" d="M412.81,158.88c-.57-5,2.1-6.19,4.65-6.18s5,1.25,4.58,6.23c-.47,5.23-4.66,9-4.66,9S413.4,164,412.81,158.88Z"/><path class="cls-3" d="M467.56,158.88c-.58-5,2.1-6.19,4.65-6.18s5,1.25,4.58,6.23c-.48,5.23-4.67,9-4.67,9S468.15,164,467.56,158.88Z"/><path class="cls-3" d="M514.83,151.26c-.57-5,2.11-6.19,4.66-6.18s5,1.25,4.58,6.23c-.48,5.23-4.67,9-4.67,9S515.43,156.37,514.83,151.26Z"/><path class="cls-3" d="M554.65,139.62c-.58-5,2.1-6.19,4.65-6.18s5,1.25,4.58,6.23c-.47,5.23-4.67,9-4.67,9S555.24,144.73,554.65,139.62Z"/><path class="cls-3" d="M322.24,190.32c-.58-5,2.1-6.19,4.65-6.17s5,1.24,4.58,6.22c-.48,5.24-4.67,9-4.67,9S322.83,195.44,322.24,190.32Z"/><path class="cls-3" d="M360.06,204.11c-.58-5,2.1-6.19,4.65-6.18s5,1.25,4.58,6.23c-.47,5.23-4.67,9-4.67,9S360.65,209.23,360.06,204.11Z"/><path class="cls-3" d="M412.81,209.58c-.57-5,2.1-6.19,4.65-6.17s5,1.24,4.58,6.23c-.47,5.23-4.66,9-4.66,9S413.4,214.7,412.81,209.58Z"/><path class="cls-3" d="M467.56,209.58c-.58-5,2.1-6.19,4.65-6.17s5,1.24,4.58,6.23c-.48,5.23-4.67,9-4.67,9S468.15,214.7,467.56,209.58Z"/><path class="cls-3" d="M514.83,202c-.57-5,2.11-6.19,4.66-6.17s5,1.24,4.58,6.22c-.48,5.23-4.67,9-4.67,9S515.43,207.08,514.83,202Z"/><path class="cls-3" d="M554.65,190.32c-.58-5,2.1-6.19,4.65-6.17s5,1.24,4.58,6.22c-.47,5.24-4.67,9-4.67,9S555.24,195.44,554.65,190.32Z"/><path class="cls-3" d="M490,124.37c-.57-5,2.1-6.18,4.65-6.17s5,1.24,4.58,6.23c-.47,5.23-4.67,9-4.67,9S490.54,129.49,490,124.37Z"/><path class="cls-3" d="M388.26,128.85c-.57-5,2.1-6.18,4.65-6.17s5,1.24,4.58,6.23c-.47,5.23-4.67,9-4.67,9S388.85,134,388.26,128.85Z"/><path class="cls-3" d="M288.23,177.38c-.58-5,2.1-6.19,4.65-6.18s5,1.25,4.58,6.23c-.47,5.23-4.67,9-4.67,9S288.82,182.49,288.23,177.38Z"/><path class="cls-3" d="M590.94,177.38c-.58-5,2.1-6.19,4.65-6.18s5,1.25,4.58,6.23c-.47,5.23-4.67,9-4.67,9S591.53,182.49,590.94,177.38Z"/><path class="cls-3" d="M322.24,242.08c-.58-5,2.1-6.19,4.65-6.17s5,1.24,4.58,6.22c-.48,5.23-4.67,9-4.67,9S322.83,247.2,322.24,242.08Z"/><path class="cls-3" d="M360.06,255.87c-.58-5,2.1-6.19,4.65-6.18s5,1.24,4.58,6.23c-.47,5.23-4.67,9-4.67,9S360.65,261,360.06,255.87Z"/><path class="cls-3" d="M412.81,261.34c-.57-5,2.1-6.19,4.65-6.17s5,1.24,4.58,6.22c-.47,5.23-4.66,9-4.66,9S413.4,266.46,412.81,261.34Z"/><path class="cls-3" d="M467.56,261.34c-.58-5,2.1-6.19,4.65-6.17s5,1.24,4.58,6.22c-.48,5.23-4.67,9-4.67,9S468.15,266.46,467.56,261.34Z"/><path class="cls-3" d="M514.83,253.72c-.57-5,2.11-6.19,4.66-6.17s5,1.24,4.58,6.22c-.48,5.23-4.67,9-4.67,9S515.43,258.84,514.83,253.72Z"/><path class="cls-3" d="M559.33,242.08c-.58-5,2.1-6.19,4.65-6.17s5,1.24,4.58,6.22c-.47,5.23-4.67,9-4.67,9S559.92,247.2,559.33,242.08Z"/><path class="cls-3" d="M295.49,229.47c-.58-5,2.1-6.19,4.65-6.17s5,1.24,4.58,6.23c-.47,5.23-4.67,9-4.67,9S296.08,234.59,295.49,229.47Z"/><path class="cls-3" d="M271.43,252.72c-.57-5,2.11-6.18,4.65-6.17s5,1.24,4.58,6.23c-.47,5.23-4.66,9-4.66,9S272,257.84,271.43,252.72Z"/><path class="cls-3" d="M274.42,211.73c-.58-5,2.1-6.19,4.65-6.17s5,1.24,4.58,6.22c-.47,5.23-4.67,9-4.67,9S275,216.85,274.42,211.73Z"/><path class="cls-3" d="M590.94,233.61c-.58-5,2.1-6.18,4.65-6.17s5,1.24,4.58,6.23c-.47,5.23-4.67,9-4.67,9S591.53,238.73,590.94,233.61Z"/><path class="cls-3" d="M611.34,254.18c-.57-5,2.11-6.19,4.65-6.17s5,1.24,4.58,6.22c-.47,5.23-4.66,9-4.66,9S611.93,259.3,611.34,254.18Z"/><path class="cls-3" d="M609.35,204.11c-.57-5,2.1-6.19,4.65-6.18s5,1.25,4.58,6.23c-.47,5.23-4.66,9-4.66,9S609.94,209.23,609.35,204.11Z"/><path class="cls-3" d="M322.24,288.53c-.58-5,2.1-6.19,4.65-6.17s5,1.24,4.58,6.23c-.48,5.23-4.67,9-4.67,9S322.83,293.65,322.24,288.53Z"/><path class="cls-3" d="M360.06,302.32c-.58-5,2.1-6.19,4.65-6.18s5,1.25,4.58,6.23c-.47,5.23-4.67,9-4.67,9S360.65,307.44,360.06,302.32Z"/><path class="cls-3" d="M412.81,307.79c-.57-5,2.1-6.19,4.65-6.17s5,1.24,4.58,6.23c-.47,5.23-4.66,9-4.66,9S413.4,312.91,412.81,307.79Z"/><path class="cls-3" d="M467.56,307.79c-.58-5,2.1-6.19,4.65-6.17s5,1.24,4.58,6.23c-.48,5.23-4.67,9-4.67,9S468.15,312.91,467.56,307.79Z"/><path class="cls-3" d="M514.83,300.17c-.57-5,2.11-6.19,4.66-6.17s5,1.24,4.58,6.22c-.48,5.23-4.67,9-4.67,9S515.43,305.29,514.83,300.17Z"/><path class="cls-3" d="M554.65,288.53c-.58-5,2.1-6.19,4.65-6.17s5,1.24,4.58,6.23c-.47,5.23-4.67,9-4.67,9S555.24,293.65,554.65,288.53Z"/><path class="cls-3" d="M288.23,275.59c-.58-5,2.1-6.19,4.65-6.18s5,1.25,4.58,6.23c-.47,5.23-4.67,9-4.67,9S288.82,280.7,288.23,275.59Z"/><path class="cls-3" d="M590.94,275.59c-.58-5,2.1-6.19,4.65-6.18s5,1.25,4.58,6.23c-.47,5.23-4.67,9-4.67,9S591.53,280.7,590.94,275.59Z"/><path class="cls-3" d="M322.24,330.51c-.58-5,2.1-6.19,4.65-6.18s5,1.25,4.58,6.23c-.48,5.23-4.67,9-4.67,9S322.83,335.62,322.24,330.51Z"/><path class="cls-3" d="M360.06,344.29c-.58-5,2.1-6.19,4.65-6.17s5,1.24,4.58,6.23c-.47,5.23-4.67,9-4.67,9S360.65,349.41,360.06,344.29Z"/><path class="cls-3" d="M412.81,349.77c-.57-5,2.1-6.19,4.65-6.18s5,1.25,4.58,6.23c-.47,5.23-4.66,9-4.66,9S413.4,354.88,412.81,349.77Z"/><path class="cls-3" d="M467.56,349.77c-.58-5,2.1-6.19,4.65-6.18s5,1.25,4.58,6.23c-.48,5.23-4.67,9-4.67,9S468.15,354.88,467.56,349.77Z"/><path class="cls-3" d="M514.83,342.14c-.57-5,2.11-6.18,4.66-6.17s5,1.24,4.58,6.23c-.48,5.23-4.67,9-4.67,9S515.43,347.26,514.83,342.14Z"/><path class="cls-3" d="M554.65,330.51c-.58-5,2.1-6.19,4.65-6.18s5,1.25,4.58,6.23c-.47,5.23-4.67,9-4.67,9S555.24,335.62,554.65,330.51Z"/><path class="cls-3" d="M297.59,315.41c-.57-5,2.11-6.18,4.66-6.17s5,1.24,4.58,6.23c-.48,5.23-4.67,9-4.67,9S298.19,320.53,297.59,315.41Z"/><path class="cls-3" d="M590.94,317.56c-.58-5,2.1-6.19,4.65-6.17s5,1.24,4.58,6.22c-.47,5.23-4.67,9-4.67,9S591.53,322.68,590.94,317.56Z"/><path class="cls-3" d="M334.46,385.48a11.77,11.77,0,0,1-.46,2.35c-2.08-2.74-4.14-5.48-6.17-8.26a6.56,6.56,0,0,1,2.06-.31C332.43,379.27,334.93,380.5,334.46,385.48Z"/><path class="cls-3" d="M360.06,399.21c-.58-5,2.1-6.19,4.65-6.17s5,1.24,4.58,6.22c-.47,5.23-4.67,9-4.67,9S360.65,404.33,360.06,399.21Z"/><path class="cls-3" d="M412.81,404.69c-.57-5,2.1-6.19,4.65-6.18s5,1.24,4.58,6.23c-.47,5.23-4.66,9-4.66,9S413.4,409.8,412.81,404.69Z"/><path class="cls-3" d="M467.56,404.69c-.58-5,2.1-6.19,4.65-6.18s5,1.24,4.58,6.23c-.48,5.23-4.67,9-4.67,9S468.15,409.8,467.56,404.69Z"/><path class="cls-3" d="M514.83,397.06c-.57-5,2.11-6.18,4.66-6.17s5,1.24,4.58,6.23c-.48,5.23-4.67,9-4.67,9S515.43,402.18,514.83,397.06Z"/><path class="cls-3" d="M562.81,386.41h0a12.4,12.4,0,0,0,1.06-3.92c.45-5-2-6.21-4.58-6.22s-5.23,1.18-4.65,6.16c.51,4.48,3.62,8.08,4.38,8.9Z"/><path class="cls-3" d="M412.81,444.51c-.57-5,2.1-6.19,4.65-6.17s5,1.24,4.58,6.23c-.47,5.23-4.66,9-4.66,9S413.4,449.63,412.81,444.51Z"/><path class="cls-3" d="M467.56,444.51c-.58-5,2.1-6.19,4.65-6.17s5,1.24,4.58,6.23c-.48,5.23-4.67,9-4.67,9S468.15,449.63,467.56,444.51Z"/><path class="cls-3" d="M524.12,432.78h0q-3.45,3.78-6.84,7.45a15.38,15.38,0,0,1-2.45-6.36c-.58-5,2.11-6.18,4.66-6.17C521.82,427.74,524.12,428.77,524.12,432.78Z"/><path class="cls-3" d="M422,473.77a12.34,12.34,0,0,1-1,3.73,67.38,67.38,0,0,1-8.28-4.15c-.42-4.67,2.18-5.82,4.67-5.81S422.49,468.79,422,473.77Z"/><path class="cls-3" d="M476.79,473.77a11.85,11.85,0,0,1-.61,2.76c-2.19,1-4.44,1.89-6.72,2.67a14.46,14.46,0,0,1-1.91-5.48c-.57-5,2.11-6.19,4.66-6.18S477.24,468.79,476.79,473.77Z"/></svg>