<svg id="Layer_1" data-name="Layer 1" xmlns="http://www.w3.org/2000/svg" viewBox="0 0 895 511.11"><defs><style>.cls-1,.cls-3{fill:#fff;}.cls-2{fill:none;}.cls-2,.cls-3{stroke:#000;stroke-miterlimit:10;stroke-width:5px;}.cls-4{opacity:0.5;}.cls-5{opacity:0.3;}</style></defs><g id="Layer_4" data-name="Layer 4"><path class="cls-1" d="M666.16,225.29c-11.65,1.72-12.31,7.55-26.59,4.8-46.67-9-91.55,7.43-137.2,17-44.52,9.31-93.83,3.66-133-19S299.75,168.69,258,149.9c-11-5-13.88-21.23-15.4-33.75-2.83-23.35-2-28.56-2.6-37.19L202.57,93c1.83-.68,11.88,35.85,12.35,38.27,6.1,31.41-5.45,55.57-6.94,85.8C200.3,373.23,399.35,420.9,514.64,391.36c46.09-11.81,91.64-36,124.48-73a190.81,190.81,0,0,0,22.43-31.26c5.74-9.93,10.79-21.6,19.43-29.27C688.39,251.27,679.23,223.37,666.16,225.29Z"/><path class="cls-2" d="M666.16,225.29c-11.65,1.72-12.31,7.55-26.59,4.8-46.67-9-91.55,7.43-137.2,17-44.52,9.31-93.83,3.66-133-19S299.75,168.69,258,149.9c-11-5-13.88-21.23-15.4-33.75-2.83-23.35-2-28.56-2.6-37.19L202.57,93c1.83-.68,11.88,35.85,12.35,38.27,6.1,31.41-5.45,55.57-6.94,85.8C200.3,373.23,399.35,420.9,514.64,391.36c46.09-11.81,91.64-36,124.48-73a190.81,190.81,0,0,0,22.43-31.26c5.74-9.93,10.79-21.6,19.43-29.27C688.39,251.27,679.23,223.37,666.16,225.29Z"/><path class="cls-3" d="M258.91,150.41c-.32-.15-.58-.38-.89-.52-11-4.94-13.88-21.23-15.4-33.74-2.83-23.35-2-28.56-2.6-37.2L202.57,93c1.83-.68,11.88,35.84,12.35,38.26,2,10.36,1.79,19.82,1,29.09l.29,0S234.57,137.83,258.91,150.41Z"/><g class="cls-4"><path class="cls-3" d="M639.12,318.37a190.22,190.22,0,0,0,22.43-31.26c-50.88,60.84-169,117.12-317.9,57.79s-124.85-150.83-118.2-182S209.07,90.6,209.07,90.6L202.57,93c1.83-.68,11.88,35.85,12.35,38.27,6.1,31.41-5.45,55.57-6.94,85.8C200.3,373.23,399.35,420.9,514.64,391.36,560.73,379.55,606.28,355.33,639.12,318.37Z"/></g><path class="cls-1" d="M666.16,225.29h0c.51,4.89,0,4.89,3.79,8.29,3.48,3.13,7.89,6.88,8.88,11.75,1.09,5.44,0,14.39,2.88,11.71C687.72,249.29,678.76,223.44,666.16,225.29Z"/><path class="cls-2" d="M666.16,225.29h0c.51,4.89,0,4.89,3.79,8.29,3.48,3.13,7.89,6.88,8.88,11.75,1.09,5.44,0,14.39,2.88,11.71C687.72,249.29,678.76,223.44,666.16,225.29Z"/><path class="cls-3" d="M202.33,93.24a7,7,0,0,0,3.21,2.39c8.13,3.16,12.83-2.5,18.89-6.82a18.19,18.19,0,0,1,7-2.61c2.43-.51,3.76-.42,6-1.56s3.14-1.83,3-4.38c-.62-8.65-7-8-11.34-7.17-7.6,1.54-24.79,3.14-27.58,12.81A9.1,9.1,0,0,0,202.33,93.24Z"/><g class="cls-5"><path class="cls-3" d="M236.15,73.13c-2.23-.86-4.94-.49-7.11,0-7.61,1.54-24.8,3.15-27.59,12.82a9.8,9.8,0,0,0,0,5.5c4.38,2.52,11.51,3.62,13.89-3.66C218.22,79,230.07,77,236.15,73.13Z"/></g><path class="cls-1" d="M686.15,276.64c-12.69.66-13.94,6.91-29,2.46-49.37-14.53-99.19-1.33-149.2,4.32-48.77,5.5-101.29-5.66-141.33-34.2s-69.29-71.38-112.43-96c-11.36-6.48-12.93-24.39-13.39-38.11-.85-25.56.49-31.11.7-40.52L199.83,86c2-.55,9.41,40,9.68,42.69,3.62,34.63-11.07,59.59-15.51,92.16-22.95,168.21,186.73,240.21,313.54,220,50.7-8.06,102-29.62,140.78-66.26a204.17,204.17,0,0,0,27.07-31.54c7.11-10.16,13.64-22.28,23.66-29.69C707.63,307,700.4,275.89,686.15,276.64Z"/><path class="cls-2" d="M686.15,276.64c-12.69.66-13.94,6.91-29,2.46-49.37-14.53-99.19-1.33-149.2,4.32-48.77,5.5-101.29-5.66-141.33-34.2s-69.29-71.38-112.43-96c-11.36-6.48-12.93-24.39-13.39-38.11-.85-25.56.49-31.11.7-40.52L199.83,86c2-.55,9.41,40,9.68,42.69,3.62,34.63-11.07,59.59-15.51,92.16-22.95,168.21,186.73,240.21,313.54,220,50.7-8.06,102-29.62,140.78-66.26a204.17,204.17,0,0,0,27.07-31.54c7.11-10.16,13.64-22.28,23.66-29.69C707.63,307,700.4,275.89,686.15,276.64Z"/><path class="cls-1" d="M255.05,153.86c-.33-.19-.58-.47-.91-.65-11.36-6.47-12.93-24.4-13.39-38.1-.85-25.57.49-31.12.7-40.53L199.83,86c2-.55,9.41,40,9.69,42.68,1.18,11.42.06,21.64-1.7,31.58l.32,0S230.05,137.75,255.05,153.86Z"/><path class="cls-2" d="M255.05,153.86c-.33-.19-.58-.47-.91-.65-11.36-6.47-12.93-24.4-13.39-38.1-.85-25.57.49-31.12.7-40.53L199.83,86c2-.55,9.41,40,9.69,42.68,1.18,11.42.06,21.64-1.7,31.58l.32,0S230.05,137.75,255.05,153.86Z"/><path class="cls-1" d="M686.15,276.64h0c.1,5.34-.46,5.28,3.3,9.35,3.46,3.75,7.85,8.26,8.45,13.63.67,6-1.4,15.58,2,13C707.1,304.82,699.89,275.92,686.15,276.64Z"/><path class="cls-2" d="M686.15,276.64h0c.1,5.34-.46,5.28,3.3,9.35,3.46,3.75,7.85,8.26,8.45,13.63.67,6-1.4,15.58,2,13C707.1,304.82,699.89,275.92,686.15,276.64Z"/><path class="cls-1" d="M199.55,86.18a7.71,7.71,0,0,0,3.23,2.92c8.45,4.25,14-1.4,21-5.45a19.24,19.24,0,0,1,7.76-2.11c2.66-.3,4.08-.07,6.6-1.08s3.56-1.65,3.6-4.44c.14-9.42-6.82-9.42-11.52-8.92-8.33.89-27,.87-30.88,11.05A9.88,9.88,0,0,0,199.55,86.18Z"/><path class="cls-2" d="M199.55,86.18a7.71,7.71,0,0,0,3.23,2.92c8.45,4.25,14-1.4,21-5.45a19.24,19.24,0,0,1,7.76-2.11c2.66-.3,4.08-.07,6.6-1.08s3.56-1.65,3.6-4.44c.14-9.42-6.82-9.42-11.52-8.92-8.33.89-27,.87-30.88,11.05A9.88,9.88,0,0,0,199.55,86.18Z"/></g></svg>