<svg id="Layer_50" data-name="Layer 50" xmlns="http://www.w3.org/2000/svg" viewBox="0 0 895 511.11"><defs><style>.cls-1{fill:#fff;}.cls-2{fill:#1d1d1b;}</style></defs><path class="cls-1" d="M510.08,163.91s-1.69-16-6.43-27-7.27-24.21,6.8-30.24,28.77,12.61,27.85,19.86-5.44,13.14-11.9,12.94c0,6.74,2.65,17.07.71,28.49C520.3,185.74,510.08,163.91,510.08,163.91Z"/><path class="cls-2" d="M520.68,176.05c-6,0-11-10.48-11.6-11.68A1.06,1.06,0,0,1,509,164c0-.16-1.74-16-6.35-26.64-4-9.27-4.88-16.52-2.63-22.19,1.66-4.16,5-7.36,10-9.49a15.59,15.59,0,0,1,6.18-1.28c5.83,0,12.09,3.31,17.16,9.07,4.1,4.64,6.47,9.84,6,13.22-1,7.85-5.83,13.42-11.87,13.88.06,1.89.3,4,.56,6.48.65,5.92,1.45,13.28.12,21.12C526.19,173.47,523.68,176.05,520.68,176.05Zm-9.52-12.45c1.44,3,5.72,10.24,9.52,10.24,2.49,0,4.31-3.39,5.4-6.23,1.23-7.33.44-14.52-.19-20.3a76.77,76.77,0,0,1-.6-7.8,1.1,1.1,0,0,1,.34-.79,1.09,1.09,0,0,1,.8-.31h.28c5.28,0,9.59-4.92,10.5-12,.34-2.7-1.93-7.42-5.51-11.49-6.29-7.13-14.27-10-20.82-7.21-4.42,1.89-7.39,4.68-8.82,8.28-2,5.09-1.17,11.79,2.6,20.5C509.19,147,510.94,161.68,511.16,163.6Z"/><path class="cls-1" d="M483.46,88.86c5.91,25.67-6.18,29-17.82,33.65C457.27,112.86,458,86.27,483.46,88.86Z"/><path class="cls-2" d="M465.64,123.61a1.12,1.12,0,0,1-.83-.38c-5.21-6-6.57-17.21-3-25s11.34-11.57,21.79-10.5a1.1,1.1,0,0,1,1,.85c5.84,25.34-5.66,29.87-16.79,34.24l-1.69.67A1.15,1.15,0,0,1,465.64,123.61Zm14.45-33.82c-9.94,0-14.35,5.11-16.31,9.39-3.45,7.58-1.57,17.07,2.21,22l.94-.37c11.07-4.35,20.65-8.12,15.63-30.92C481.71,89.82,480.89,89.79,480.09,89.79Z"/><path class="cls-1" d="M490.84,76.72c2.49-25.78,14.8-25.1,27.1-25.82C522.75,62.5,513.73,87.06,490.84,76.72Z"/><path class="cls-2" d="M501.16,80.3a26.42,26.42,0,0,1-10.78-2.58,1.1,1.1,0,0,1-.64-1.11c2.46-25.45,14.59-26.09,26.32-26.71l1.81-.1a1.08,1.08,0,0,1,1.09.68c2.56,6.19,1.35,15.27-2.88,21.6A17.58,17.58,0,0,1,501.16,80.3ZM492,76a23.71,23.71,0,0,0,9.15,2.07,15.34,15.34,0,0,0,13.09-7.24c3.68-5.52,4.87-13.29,2.94-18.82l-1,.06C504.53,52.72,494.44,53.25,492,76Z"/><path class="cls-1" d="M572,130.66c-5.82-22,4.53-25.21,14.45-29.55C594,109.19,594.07,132.22,572,130.66Z"/><path class="cls-2" d="M574.11,131.84c-.69,0-1.4,0-2.15-.08a1.09,1.09,0,0,1-1-.81c-5.78-21.85,4.08-26.11,13.61-30.22l1.46-.63a1.09,1.09,0,0,1,1.25.26c4.8,5.15,6.26,15,3.25,21.87C587.86,128.43,582,131.84,574.11,131.84Zm-1.2-2.23c9.73.47,13.9-4.32,15.62-8.26,2.78-6.39,1.06-14.68-2.34-18.91l-.73.32C576.12,106.79,568,110.28,572.91,129.61Z"/><path class="cls-1" d="M554.68,136c-41.39-16.78-73.37-46-95.08-86.75-4.36-5.89.76-17,7.58-4,20.75,38.94,51.26,66.81,90.73,82.82,5.58,2.26,11.39,4.32,17.25,6.09a233,233,0,0,0,54.77,9.68c12.92,1.48,4.75,8.79-.49,8.58a240.87,240.87,0,0,1-56.77-10C566.55,140.52,560.5,138.4,554.68,136Z"/><path class="cls-2" d="M629.66,153.51h-.26a242.37,242.37,0,0,1-57-10.08c-6.28-1.89-12.36-4-18.09-6.38-41.6-16.87-73.78-46.22-95.64-87.25a9.41,9.41,0,0,1-.94-9.29,3.92,3.92,0,0,1,3.45-2.39c2.35,0,4.71,2.22,7,6.6,20.64,38.73,51,66.43,90.17,82.32,5.68,2.3,11.45,4.33,17.16,6.05A232,232,0,0,0,630,142.72c6.78.78,8.06,3.12,8,4.95C637.77,150.76,633.17,153.51,629.66,153.51ZM461.13,40.31c-.73,0-1.2.65-1.48,1.19a7.42,7.42,0,0,0,.83,7.12c21.7,40.69,53.5,69.71,94.61,86.37,5.67,2.32,11.69,4.45,17.9,6.32a241.06,241.06,0,0,0,56.51,10l.16,1.11V151.3c2.78,0,6-2.24,6.08-3.76.06-.93-1.48-2.11-5.94-2.63a233.9,233.9,0,0,1-55-9.72c-5.77-1.73-11.61-3.79-17.34-6.11C517.81,113,487.1,85,466.2,45.74,463.55,40.7,461.65,40.31,461.13,40.31Z"/><path class="cls-1" d="M475.65,323.17c5.76,19.82,11.51,33.88,40.27,28.12s21.08-52.87,13.44-83.73c-9.61-38.67,2.23-85.67,33.86-94,28.7-7.53,44.43,8.95,35.82,21.74-7.4,10.93-22.38-4.48-36.45,0s-29.41,25.57-19.18,72.88c8.84,40.94,16.64,86.51-21.72,97.69s-56.92-20.34-59.46-40.8C466.07,318.06,475.65,323.17,475.65,323.17Z"/><path class="cls-2" d="M506.36,369.33c-29.16,0-43-26.38-45.22-44.11a1.09,1.09,0,0,1,.12-.66,8.07,8.07,0,0,1,7.49-4.29,17.81,17.81,0,0,1,7.42,1.92,1.1,1.1,0,0,1,.54.67c5,17.3,9.65,28.63,27.5,28.63a59.36,59.36,0,0,0,11.49-1.28,20.58,20.58,0,0,0,13.86-9.44c8-12.63,7.59-37.17-1.27-72.94-9.71-39.08,1.9-86.71,34.65-95.32a55.72,55.72,0,0,1,14-1.93c11.08,0,20.24,4.27,23.89,11.13a13.47,13.47,0,0,1-.92,14.22,9.62,9.62,0,0,1-8.5,4.5c-3.19,0-6.72-1.09-10.44-2.24-4.17-1.28-8.47-2.61-12.79-2.61a17.27,17.27,0,0,0-5.31.79c-14.64,4.66-28.25,26.2-18.43,71.6,7.48,34.63,18.77,87-22.49,99A56,56,0,0,1,506.36,369.33Zm-43-44c2.25,16.94,15.46,41.8,43,41.8a53.79,53.79,0,0,0,15-2.29c36.29-10.57,30.62-51.63,21-96.4-10.14-46.84,4.39-69.23,19.91-74.17a19.75,19.75,0,0,1,6-.88c4.65,0,9.11,1.37,13.43,2.7,3.57,1.1,6.94,2.14,9.8,2.14a7.39,7.39,0,0,0,6.67-3.52,11.19,11.19,0,0,0,.81-11.95c-3.27-6.15-11.69-10-22-10a53.55,53.55,0,0,0-13.49,1.85c-31,8.16-42.33,55.38-33.07,92.66,9,36.38,9.34,61.5,1,74.66a22.71,22.71,0,0,1-15.29,10.41,61.47,61.47,0,0,1-11.92,1.33c-19.13,0-24.55-12.86-29.48-29.76a15.38,15.38,0,0,0-6-1.46A5.8,5.8,0,0,0,463.37,325.32Z"/><path class="cls-1" d="M563.22,173.58c28.7-7.53,44.88,9.25,35.82,21.74-8.92,12.26-22.67-3.41-36.73,1.07-3.2,1-6.16,1.81-9.17,4.66-1.71-3.29-5.81-9.78-12.23-11.84C546.68,181.55,554.14,176,563.22,173.58Z"/><path class="cls-2" d="M553.14,202.15l-.18,0a1.13,1.13,0,0,1-.8-.57c-1.42-2.74-5.4-9.32-11.59-11.3a1.11,1.11,0,0,1-.71-.72,1.07,1.07,0,0,1,.17-1c6.25-8.29,14-13.68,22.91-16a55.5,55.5,0,0,1,13.94-1.91c11.39,0,20.71,4.4,24.32,11.47A13,13,0,0,1,599.93,196a11.61,11.61,0,0,1-9.89,5.25h0c-3.26,0-6.69-1-10.31-2.15-3.86-1.18-7.86-2.4-11.88-2.4a17.06,17.06,0,0,0-5.21.78l-.56.17c-3,.93-5.53,1.73-8.18,4.24A1.14,1.14,0,0,1,553.14,202.15ZM542.7,188.71c5.22,2.27,8.77,7.14,10.75,10.6a22.07,22.07,0,0,1,8-3.8l.55-.17a18.83,18.83,0,0,1,5.87-.88c4.35,0,8.5,1.26,12.52,2.49C583.84,198,587.11,199,590,199h0a9.43,9.43,0,0,0,8.11-4.34,10.72,10.72,0,0,0,1.09-11.6c-2.53-5-9.74-10.26-22.36-10.26a52.94,52.94,0,0,0-13.38,1.83C555.46,176.76,548.47,181.49,542.7,188.71Z"/><path class="cls-1" d="M477.31,421.91a29.9,29.9,0,0,0-3.11,19.74c2,11.63-.68,24.52-7.06,24.09-4.72,9.1-11.48,6.57-14.19,2.26-6.29,2.62-10.57-3.18-8.26-7.48s9.42-18,4.36-19.52-3.87,10.05-9.64,10.43c-7.92.49-9.52-9.38-4-19.26s23-20.61,31.38-23.59C470.3,410.14,480.65,412.38,477.31,421.91Z"/><path class="cls-2" d="M459.37,473a8.78,8.78,0,0,1-6.84-3.67,7.25,7.25,0,0,1-8.63-2.89,6.5,6.5,0,0,1-.19-6.44c6-11.37,6.46-15.65,5.8-17.24a1.18,1.18,0,0,0-.78-.71c-1.5-.45-2.15,1.11-3.21,3.85s-2.45,6.39-6,6.63l-.63,0a7.17,7.17,0,0,1-6.44-3.54c-2.39-4.06-1.61-10.88,2-17.38,5.75-10.41,23.88-21.22,32-24.09a1.06,1.06,0,0,1,.82,0c.44.19,1,.4,1.62.63,4.15,1.55,12.78,4.77,9.52,14.08a.91.91,0,0,1-.11.22,29.13,29.13,0,0,0-3,19c1.63,9.38.31,18.85-3.22,23.05a6.12,6.12,0,0,1-4.26,2.34C465,471.92,461.67,473,459.37,473ZM453,466.9a1.11,1.11,0,0,1,.93.52,6.84,6.84,0,0,0,5.49,3.38c2.55,0,4.9-1.92,6.79-5.56a1.1,1.1,0,0,1,1-.6h.23a3.8,3.8,0,0,0,2.93-1.56c3-3.62,4.22-12.75,2.74-21.25a30.9,30.9,0,0,1,3.2-20.4c2.26-6.63-2.84-9.15-8.25-11.17-.49-.18-.94-.35-1.33-.51-9,3.34-25.44,14-30.39,22.94-3.18,5.74-4,11.84-2,15.19a5,5,0,0,0,5,2.44c2-.13,2.94-2.15,4.12-5.22,1-2.63,2-5.35,4.72-5.35a4.11,4.11,0,0,1,1.17.18,3.39,3.39,0,0,1,2.18,2c1.67,4-2.56,12.82-5.88,19.13a4.29,4.29,0,0,0,.14,4.27c1.27,2.12,3.95,2.83,6.72,1.68A1.07,1.07,0,0,1,453,466.9Z"/><path class="cls-2" d="M467.14,466.18a.37.37,0,0,0,.35-.18c4.47-6.32.59-17.81.43-18.31a.45.45,0,0,0-.55-.28.49.49,0,0,0-.29.59c0,.1,3.89,11.54-.29,17.48a.46.46,0,0,0,.1.63A.4.4,0,0,0,467.14,466.18Z"/><path class="cls-2" d="M467.14,466.74a.94.94,0,0,1-.57-.18,1,1,0,0,1-.41-.66,1,1,0,0,1,.19-.75c4-5.71.25-16.86.21-17a1.05,1.05,0,0,1,.63-1.29l.3-.05a1,1,0,0,1,.95.66c.69,2.13,3.8,12.73-.5,18.82A.91.91,0,0,1,467.14,466.74Z"/><path class="cls-2" d="M453,468.45a.49.49,0,0,0,.26-.1c9.62-6.75,6.67-21.86,6.64-22a.45.45,0,0,0-.52-.33.47.47,0,0,0-.35.53c0,.14,2.88,14.73-6.28,21.11a.44.44,0,0,0-.11.63A.48.48,0,0,0,453,468.45Z"/><path class="cls-2" d="M453,469a1,1,0,0,1-.79-.4,1,1,0,0,1-.2-.76,1,1,0,0,1,.43-.67c8.79-6.13,6.08-20.39,6.05-20.53a1,1,0,0,1,.75-1.2l.21,0a1,1,0,0,1,1,.79c0,.15,3,15.65-6.87,22.6A1.08,1.08,0,0,1,453,469Z"/><path class="cls-1" d="M481.07,346.66s30.33,34.12,25.45,48.69c-5.12,15.34-22.26,15.86-30.52,33.39-1.83-5.56-.68-12.72-.68-12.72a19,19,0,0,0-10.07,8.49c-.42-3.64,1.43-13.08,1.43-13.08s-7.67,2.19-13.32,1c10.05-3.5,18-10.11,25.46-19.9-16.43-6.92-27.77-20.84-27.77-20.84Z"/><path class="cls-2" d="M476,429.85h-.07a1.08,1.08,0,0,1-1-.75,30.24,30.24,0,0,1-.94-11.34,18.87,18.87,0,0,0-7.81,7.33,1.13,1.13,0,0,1-1.18.51,1.11,1.11,0,0,1-.87-.95c-.33-2.84.62-8.79,1.13-11.73a38.5,38.5,0,0,1-8.15,1,19.38,19.38,0,0,1-4-.38,1.09,1.09,0,0,1-.88-1,1.11,1.11,0,0,1,.74-1.12c9-3.15,16.72-9,24.08-18.42-15.77-7.09-26.42-20-26.88-20.58a1.11,1.11,0,0,1,.15-1.55l30-25a1.1,1.1,0,0,1,1.53.11c1.25,1.41,30.69,34.76,25.67,49.77-2.68,8-8.42,12.1-14.51,16.43-5.93,4.22-12.06,8.58-16.07,17.08A1.1,1.1,0,0,1,476,429.85Zm-.68-14.93a1.09,1.09,0,0,1,.73.28,1.07,1.07,0,0,1,.36,1,34.49,34.49,0,0,0,0,9.42c4.23-7.33,10.13-11.53,15.4-15.28,5.78-4.11,11.24-8,13.69-15.33,4.21-12.6-20.05-41.59-24.53-46.8l-28.33,23.63c2.71,3.07,12.94,13.92,26.63,19.69a1.16,1.16,0,0,1,.64.73,1.11,1.11,0,0,1-.19.95C473,402,466.11,408,458.2,411.67a38.92,38.92,0,0,0,8.17-1.3,1.09,1.09,0,0,1,1.05.25,1.13,1.13,0,0,1,.34,1c0,.07-1,5.3-1.37,9.35a19.18,19.18,0,0,1,8.63-6A1,1,0,0,1,475.32,414.92Z"/><path class="cls-1" d="M365.88,386.38s-.16,11.29-7.69,20.38-12.3,21.25-6.56,24.06c-.4,10.24,6.72,11.4,11.2,9,4.16,5.39,11.26,2.77,12.16-2,1.1-6,1.22-20.64,4.54-20.09s-2.07,11.7,2.52,15.23,13.49-.53,13.58-14.77c.09-11.29-9.49-30-15.29-36.79C376.5,381,367.69,376.45,365.88,386.38Z"/><path class="cls-2" d="M368.54,443.94a8.1,8.1,0,0,1-6-2.74,10,10,0,0,1-3.82.79,7.51,7.51,0,0,1-5.57-2.29c-1.79-1.86-2.67-4.63-2.63-8.25a5.59,5.59,0,0,1-2.34-3.61c-1.26-5.87,3.87-15.41,9.17-21.78,7.17-8.67,7.43-19.58,7.43-19.69.9-5,3.51-7.47,7.78-7.47a23.17,23.17,0,0,1,5.46.87,20.58,20.58,0,0,0,2.43.51,1.06,1.06,0,0,1,.72.37c5.54,6.46,15.66,25.61,15.56,37.52-.07,11.2-5.63,17.06-11.09,17.06h0a6.9,6.9,0,0,1-4.26-1.43c-3-2.3-2.45-6.89-2-10.58.17-1.41.52-4.34,0-4.43-1.29.55-2.08,8.65-2.46,12.54-.25,2.54-.49,4.94-.8,6.66A7.62,7.62,0,0,1,368.54,443.94Zm-5.71-5.21a1.09,1.09,0,0,1,.87.43,6.11,6.11,0,0,0,4.84,2.57,5.38,5.38,0,0,0,5.37-4.15c.3-1.62.53-4,.77-6.47.89-9,1.65-14.53,4.67-14.53l.36,0c2.6.44,2.24,3.56,1.84,6.87-.37,3.13-.83,7,1.17,8.57a4.74,4.74,0,0,0,2.92,1c4.37,0,8.82-5.11,8.89-14.88.09-11.21-9.36-29.22-14.76-35.74-.69-.11-1.46-.3-2.27-.5a22.17,22.17,0,0,0-4.94-.81c-2.14,0-4.71.63-5.59,5.48A36.67,36.67,0,0,1,359,407.46c-6,7.2-9.64,15.57-8.7,19.92a3.25,3.25,0,0,0,1.78,2.45,1.12,1.12,0,0,1,.62,1c-.13,3.29.56,5.82,2,7.32a5.44,5.44,0,0,0,4,1.6,7.7,7.7,0,0,0,3.59-.92A1.08,1.08,0,0,1,362.83,438.73Z"/><path class="cls-2" d="M351.63,431.27h0a.46.46,0,0,0,.42-.48c-.69-7.24,8.32-15.28,8.41-15.36a.44.44,0,0,0,0-.63.43.43,0,0,0-.6,0c-.4.33-9.47,8.43-8.73,16.1A.44.44,0,0,0,351.63,431.27Z"/><path class="cls-2" d="M351.66,431.82h0a1,1,0,0,1-1-.89c-.78-8.14,8.83-16.5,8.92-16.59a1,1,0,0,1,1.37.09,1,1,0,0,1-.07,1.42c-.1.08-8.9,8-8.23,14.89a1,1,0,0,1-.25.74,1,1,0,0,1-.69.34Z"/><path class="cls-2" d="M362.83,440.26l.18,0a.46.46,0,0,0,.22-.59c-4.77-10.14,4.93-21.36,5-21.47a.44.44,0,0,0-.07-.62.42.42,0,0,0-.6,0c-.11.12-10.18,11.79-5.17,22.44A.45.45,0,0,0,362.83,440.26Z"/><path class="cls-2" d="M362.83,440.81a1,1,0,0,1-.89-.55c-5.07-10.76,4.81-22.54,5.23-23a1,1,0,0,1,1.41-.08,1,1,0,0,1,.34.65,1,1,0,0,1-.24.75c-.11.11-9.59,11-5,20.87a1,1,0,0,1-.49,1.32A1.06,1.06,0,0,1,362.83,440.81Z"/><path class="cls-1" d="M398.63,320.53s-43.24,14.56-46.25,29.62c-3.17,15.87,11.47,24.8,9.93,44.14,4.36-3.91,6.91-10.69,6.91-10.69A19.09,19.09,0,0,1,373.74,396c2.15-3,5.25-12.08,5.25-12.08s5.57,5.73,11.05,7.49c-7-8-10.65-17.73-12.23-29.92,17.7,2.13,34.46-4.31,34.46-4.31Z"/><path class="cls-2" d="M373.74,397.08a1.26,1.26,0,0,1-.33-.05,1.12,1.12,0,0,1-.77-1,19,19,0,0,0-3.14-10.23,30.05,30.05,0,0,1-6.46,9.35,1.1,1.1,0,0,1-1.83-.9c.75-9.38-2.41-16.21-5.47-22.82-3.13-6.77-6.09-13.17-4.44-21.46,3.09-15.51,45.18-29.85,47-30.45a1.1,1.1,0,0,1,1.38.66l13.64,36.63a1.11,1.11,0,0,1-.64,1.42,84.47,84.47,0,0,1-27.4,4.81h0c-2.09,0-4.16-.09-6.16-.29,1.71,11.72,5.42,20.57,11.62,27.77a1.09,1.09,0,0,1,.47.91,1.19,1.19,0,0,1-1.12,1.1,1.16,1.16,0,0,1-.36-.05c-4.14-1.33-8.23-4.72-10.23-6.56-1,2.8-3.16,8.45-4.84,10.75A1.12,1.12,0,0,1,373.74,397.08Zm-4.52-14.58a1.13,1.13,0,0,1,.79.33,19.39,19.39,0,0,1,4.48,9.52c1.71-3.69,3.44-8.74,3.46-8.81a1.1,1.1,0,0,1,1.84-.41,39,39,0,0,0,6.44,5.19c-5-7.14-8.09-15.76-9.52-26.71a1.11,1.11,0,0,1,.31-.92,1.09,1.09,0,0,1,.92-.32,61.78,61.78,0,0,0,7.31.43,84.18,84.18,0,0,0,25.59-4.31L398,321.92c-6.47,2.3-41.91,15.42-44.51,28.44-1.51,7.59,1.3,13.67,4.28,20.11,2.72,5.87,5.76,12.44,5.78,20.92a34.13,34.13,0,0,0,4.67-8.18,1.1,1.1,0,0,1,.8-.69Z"/><path class="cls-1" d="M327.82,271s-16.46-8.22-20.09-11.7c-2.55-7.64-18.84-19.45-29.07-24.37-7.08-3.43-12.48-3.37-14.13-.42-1.29,2.29-.21,6.75,5,9.8-4.72-2-10.47-.45-11.24,3.36s3.36,7.29,9.7,9.9c-5.05-.24-8.33,2.94-6.72,6.31s12.31,6.3,18.37,5.21c4.44,7.47,13.62,10.74,20.73,8.19,6.48,4,22.17,9.45,22.74,9.31S327.82,271,327.82,271Z"/><path class="cls-2" d="M323,287.71h0c-1.35,0-16.19-5.24-22.84-9.21a16.15,16.15,0,0,1-4.94.75,19.72,19.72,0,0,1-16.21-8.95c-6.2.77-17-2.07-18.82-5.93a4.75,4.75,0,0,1,.22-4.72,6.72,6.72,0,0,1,3.63-2.67c-5.18-2.8-7.61-6.11-6.91-9.52.62-3.06,3.83-5.13,8-5.13h.18c-2.51-2.87-3-6.16-1.77-8.35.7-1.25,2.27-2.75,5.78-2.75a23.47,23.47,0,0,1,9.79,2.72c10.47,5,26.61,16.8,29.54,24.74,3.83,3.43,19.47,11.26,19.63,11.34a1.09,1.09,0,0,1,.57,1.27c-4.37,16.12-4.8,16.21-5.58,16.38A1.22,1.22,0,0,1,323,287.71Zm-22.71-11.52a1.11,1.11,0,0,1,.59.16c5.59,3.5,18.34,8.07,21.55,9,.77-2.09,2.67-8.72,4-13.76-3.41-1.72-16.27-8.34-19.56-11.48a1.31,1.31,0,0,1-.28-.45c-2.42-7.29-18.5-18.92-28.5-23.72a21.31,21.31,0,0,0-8.83-2.5c-1.35,0-3.11.28-3.86,1.62-1,1.7-.17,5.52,4.56,8.31a1.1,1.1,0,0,1-1,2,10,10,0,0,0-3.9-.79c-3,0-5.43,1.38-5.83,3.36-.6,2.9,2.7,6.06,9,8.67a1.09,1.09,0,0,1,.65,1.25,1.06,1.06,0,0,1-1.13.86c-2.54-.1-4.68.72-5.57,2.14a2.59,2.59,0,0,0-.1,2.6c1,2.1,8.22,4.81,14.5,4.81a15.55,15.55,0,0,0,2.69-.21,1.08,1.08,0,0,1,1.14.52,17.49,17.49,0,0,0,14.71,8.5,13.8,13.8,0,0,0,4.7-.79A1.19,1.19,0,0,1,300.33,276.19Z"/><path class="cls-1" d="M269.49,244.32c3.35,2.73,11.43,6.24,14.24,6.94Z"/><path class="cls-2" d="M283.73,252.37a.84.84,0,0,1-.27,0c-2.91-.72-11.1-4.25-14.67-7.16a1.11,1.11,0,0,1,1.4-1.71c3.17,2.59,11.1,6.06,13.8,6.73a1.11,1.11,0,0,1-.26,2.18Z"/><path class="cls-1" d="M268,257.58s7,3.87,13.67,3.51Z"/><path class="cls-2" d="M280.73,262.22c-6.58,0-13-3.51-13.32-3.67a1.1,1.1,0,1,1,1.07-1.93c.07,0,6.8,3.69,13.08,3.37a1.1,1.1,0,0,1,.12,2.2C281.36,262.21,281.05,262.22,280.73,262.22Z"/><path class="cls-1" d="M307.73,259.31c.42-6-4.3-21.26-11.28-28.92-4.09-4.51-10.43-3.18-10.38,3.37,0,4.07,4.5,8.75,4.5,8.75s-4.86,7.73-.28,15.3Z"/><path class="cls-2" d="M307.73,260.41h-.08a1.1,1.1,0,0,1-1-1.18c.41-5.88-4.35-20.81-11-28.1-1.77-1.95-4.12-2.75-6-2-1.61.63-2.51,2.32-2.5,4.65,0,3.58,4.15,7.95,4.19,8a1.1,1.1,0,0,1,.14,1.35c-.18.3-4.42,7.27-.26,14.15a1.1,1.1,0,1,1-1.89,1.14c-4.09-6.76-1.27-13.52-.13-15.72-1.26-1.47-4.23-5.3-4.25-8.9,0-3.24,1.43-5.75,3.89-6.71,2.71-1.06,6,0,8.4,2.6,7.23,7.93,12,23.51,11.57,29.74A1.1,1.1,0,0,1,307.73,260.41Z"/><path class="cls-1" d="M505,143.77c1,8.31,4.54,26.16-12.11,55.55-19.41,34.28-33.84,42.13-49.41,59-25.49,9.88-32.37,15.94-48.12,18.6-36.37,6.11-66.76-6-79-13.67,1.18,4.36,8.32,9,8.32,9a53.3,53.3,0,0,1-14.91-.45c2,1.59,7.19,6.15,12.84,7.34-6.3,2.63-10.69,2.3-17.1,1.9,10.59,8,36.24,15.62,56.36,18.64,12.08,1.83,27,4.5,39.44-.31-3.78,10.9-10.59,26.36-8.25,43.58,2.45,17.86,23.34,45.66,62.82,34.2,31.79-9.19,36.19-36.83,30.61-57.89-4.46-16.85-16.94-32.18-18.23-49.59,30-19.28,40.81-38.12,48.41-51.22a100.75,100.75,0,0,0,11.9-69.28c-2.57,5.25-5.35,11.74-5.35,11.74s-2.14-9.62-5.75-14.23a66.66,66.66,0,0,1-3.26,12.55Z"/><path class="cls-2" d="M438.14,380.94c-28.25,0-44-22.13-46.14-37.84-2.09-15.36,3-29.53,6.79-39.87.26-.71.51-1.39.75-2.07a49,49,0,0,1-14.77,2c-7.23,0-14.57-1.13-21-2.12l-2-.31c-19.36-2.89-45.87-10.49-56.86-18.85a1.09,1.09,0,0,1-.37-1.26,1.08,1.08,0,0,1,1.1-.71l.3,0c5.44.34,9.35.4,13.27-.75a39,39,0,0,1-9.31-5.94l-.75-.6a1.11,1.11,0,0,1-.33-1.31,1.1,1.1,0,0,1,1.2-.64,52.6,52.6,0,0,0,9,.75c1,0,1.92,0,2.7-.07-2.31-1.83-5.54-4.85-6.36-7.86a1.11,1.11,0,0,1,1.66-1.22c11.12,7,33.08,15.17,58.36,15.17a120.76,120.76,0,0,0,19.85-1.65c9.5-1.61,15.66-4.44,25-8.73,5.75-2.64,12.89-5.92,22.67-9.73,4.14-4.46,8.27-8.37,12.26-12.15,11.16-10.57,22.7-21.5,36.83-46.45,15.57-27.49,13.35-44.36,12.16-53.43l-.18-1.44a1.1,1.1,0,0,1,.73-1.18,1.11,1.11,0,0,1,1.31.48l8,13.42a61.05,61.05,0,0,0,2.43-10.1,1.12,1.12,0,0,1,.81-.92,1.08,1.08,0,0,1,1.15.39c2.44,3.11,4.2,8.25,5.15,11.55,1.06-2.38,2.62-5.84,4.1-8.86a1.12,1.12,0,0,1,1.13-.61,1.09,1.09,0,0,1,.94.89,102.35,102.35,0,0,1-12,70l-.15.26c-7.79,13.44-18.44,31.81-48.06,51,.88,9.69,5.35,19,9.68,27.95,3.24,6.7,6.58,13.64,8.47,20.78,5.69,21.5.89,49.91-31.37,59.24A65.18,65.18,0,0,1,438.14,380.94Zm-36.8-82.68a1.12,1.12,0,0,1,.77.31,1.11,1.11,0,0,1,.28,1.16c-.47,1.35-1,2.77-1.52,4.25-3.88,10.69-8.71,24-6.69,38.82s17,35.94,44,35.94a62.68,62.68,0,0,0,17.46-2.65c30.71-8.87,35.56-35,29.86-56.55-1.84-6.94-5.13-13.78-8.32-20.4-4.52-9.36-9.19-19.05-9.95-29.39a1.11,1.11,0,0,1,.5-1c29.59-19,40.18-37.26,47.9-50.58l.16-.27a100.22,100.22,0,0,0,12.34-65.09c-2,4.32-3.81,8.5-3.83,8.55a1.13,1.13,0,0,1-1.12.66,1.11,1.11,0,0,1-1-.86,53.58,53.58,0,0,0-4.07-11.49,68.4,68.4,0,0,1-2.83,10,1.1,1.1,0,0,1-.93.71,1.12,1.12,0,0,1-1.05-.53l-6.55-11c1,9.65,1,26.5-12.88,51-14.29,25.25-26,36.29-37.23,47-4,3.81-8.19,7.75-12.33,12.24a1.07,1.07,0,0,1-.41.28c-9.85,3.82-17,7.11-22.79,9.76-9.49,4.37-15.76,7.25-25.55,8.9a121.86,121.86,0,0,1-20.21,1.68c-23.2,0-43.7-6.78-55.85-13.36a31,31,0,0,0,5.82,5,1.11,1.11,0,0,1-.45,2,46.56,46.56,0,0,1-5.88.33c-1.8,0-3.58-.09-5.32-.25a25,25,0,0,0,9.2,4.63,1.1,1.1,0,0,1,.2,2.09,27.69,27.69,0,0,1-11.39,2.26c-.71,0-1.43,0-2.17-.05,12.11,7.26,35.21,13.63,52.56,16.23l2,.3c6.39,1,13.64,2.09,20.71,2.09A44.44,44.44,0,0,0,401,298.34,1.09,1.09,0,0,1,401.34,298.26Z"/><path class="cls-1" d="M423.89,267c18.88-2.86,26.72-14.5,26.72-14.5-.42,1.38.94,25.9,19.72,65,10.3,21.46,12,35.27,5.16,47.49a42.88,42.88,0,0,1-19.58,12.25c-24.88,7.76-42.6-.74-52.37-13C392.5,345,393.63,320.05,423.89,267Z"/><path class="cls-2" d="M437.61,381.23c-14.11,0-26.51-5.83-34.93-16.4-12.83-22.23-6.94-50.71,20.25-98.42a1.1,1.1,0,0,1,.79-.55c18.19-2.75,25.9-13.91,26-14a1.1,1.1,0,0,1,2,.93c-.36,2.08,1.51,26.41,19.66,64.16,10.58,22,12.06,36.09,5.14,48.51a1,1,0,0,1-.15.2,44.11,44.11,0,0,1-20.07,12.57A63.07,63.07,0,0,1,437.61,381.23ZM424.58,268C391.77,325.7,395.53,348,404.5,363.59c7.9,9.9,19.69,15.44,33.11,15.44a60.62,60.62,0,0,0,18-2.93,42,42,0,0,0,19-11.84c6.46-11.69,4.94-25.14-5.26-46.38-15.45-32.13-19.15-54.36-19.75-62.45C446.21,259.05,438.32,265.74,424.58,268Z"/><path class="cls-1" d="M466.28,163.75c-.51-16.73,16.89-32.22,33.64-26.88,26.86,8.59,28.34,65.5-8.11,61.19C471.16,194.15,466.28,163.75,466.28,163.75Z"/><path class="cls-2" d="M495.64,199.4a31.78,31.78,0,0,1-4-.25c-21.24-4-26.28-34-26.49-35.22a28.44,28.44,0,0,1,8.3-20.49c7.26-7.49,17.69-10.51,26.77-7.63,15.5,5,22.47,24.91,20,40.54C518,190.78,508.82,199.4,495.64,199.4Zm-2.58-62.5a25.48,25.48,0,0,0-18,8.08,26.18,26.18,0,0,0-7.69,18.74c0,.15,5,29.54,24.63,33.26a31.43,31.43,0,0,0,3.63.21c12,0,20.4-7.92,22.47-21.18,2.3-14.73-4.13-33.49-18.52-38.09A21.36,21.36,0,0,0,493.06,136.9Z"/><path class="cls-1" d="M474.44,175.88c-.29-9.41,9.79-24,19.39-21.64,16,3.95,12,38.63-8.49,36.19C473.74,188.23,474.44,175.88,474.44,175.88Z"/><path class="cls-2" d="M487.38,191.65a18.15,18.15,0,0,1-2.17-.13c-12.49-2.36-11.87-15.57-11.87-15.7-.17-5.44,3-12.73,7.79-17.63,4.14-4.27,8.77-6.07,13-5,8.63,2.13,11.48,12,10.47,20.32C503.47,182.53,497.73,191.65,487.38,191.65Zm4.33-36.57c-2.9,0-6.1,1.65-9,4.65-4.37,4.5-7.32,11.13-7.16,16.12,0,.56-.5,11.5,10,13.49a15.51,15.51,0,0,0,1.83.11c9,0,14-8.15,15-16.22.9-7.36-1.48-16.11-8.81-17.92A7.77,7.77,0,0,0,491.71,155.08Z"/><path class="cls-1" d="M352.31,213.28c-9-14.08-32.15-17-42.94-3.17C292.05,232.37,323,280.16,350.64,256,365.46,241.11,352.31,213.28,352.31,213.28Z"/><path class="cls-2" d="M334.64,263.77h0c-10.44,0-21.06-7.93-27.06-20.21-6.1-12.48-5.75-25.55.92-34.12,4.67-6,12.08-9.45,20.32-9.45,10.05,0,19.4,4.87,24.42,12.7.62,1.29,13.37,28.83-1.82,44.11C346.12,261.44,340.49,263.77,334.64,263.77Zm-5.82-61.58c-7.67,0-14.27,3.06-18.58,8.6-7.35,9.45-5.17,22.62-.68,31.81,5.64,11.52,15.48,19,25.08,19h0c5.3,0,10.44-2.14,15.27-6.37,14-14.13,1.53-41.16,1.4-41.44C346.84,206.78,338,202.19,328.82,202.19Z"/><path class="cls-1" d="M352.43,227.9c-5.07-7.94-21.65-14.27-28.24-6.91-10.95,12.32,11.92,38.66,27.46,25.07C360,237.69,352.43,227.9,352.43,227.9Z"/><path class="cls-2" d="M342,251h0c-8.85,0-16.75-7.3-20-14.51-2.78-6.18-2.28-12.08,1.38-16.19,2.12-2.38,5.32-3.63,9.24-3.63,7.68,0,17,4.79,20.75,10.67,0,0,8,10.58-.92,19.54A15.56,15.56,0,0,1,342,251Zm-9.37-32.13c-2.28,0-5.46.51-7.6,2.9-3,3.42-3.41,8.46-1,13.82,2.95,6.56,10.07,13.2,18,13.2a13.32,13.32,0,0,0,8.95-3.52c7.51-7.55.91-16.29.62-16.66C348.15,223.26,339.51,218.83,332.61,218.83Z"/><path class="cls-1" d="M479.25,183.11c17.5,4.46,33.15,38.45-12.13,67.31-6.19,24-32.74,35.06-55.85,22.52-20.5,13.27-69.09-.22-56.93-37.89-18.7-31.71-28.16-78,29.53-101.3C433.14,113.81,466.17,132.83,479.25,183.11Z"/><path class="cls-2" d="M431.25,279.26a43.11,43.11,0,0,1-19.94-5.05c-5.08,3.1-11.93,4.81-19.38,4.81-14.44,0-28.26-6.19-35.23-15.75-5.64-7.75-6.86-17.45-3.56-28.09-7.95-13.6-19.71-39.59-11.49-63.85,5.66-16.68,19.72-29.67,41.81-38.6,12.9-5.22,25-7.87,35.81-7.87,29.91,0,51,19.83,60.89,57.35,8.58,2.52,15.65,11.28,17.3,21.55,2.63,16.41-8.08,33.65-29.39,47.36A37.62,37.62,0,0,1,431.25,279.26Zm-20-7.43a1.07,1.07,0,0,1,.52.14,41,41,0,0,0,19.46,5.08,35.45,35.45,0,0,0,34.8-26.91,1.11,1.11,0,0,1,.47-.65c20.78-13.24,31.26-29.78,28.76-45.38-1.55-9.68-8.25-17.88-16.3-19.93a1.1,1.1,0,0,1-.8-.79c-9.58-36.85-29.95-56.32-58.91-56.32-10.57,0-22.35,2.59-35,7.7C362.82,143.45,349.18,156,343.74,172c-8,23.68,3.79,49.29,11.55,62.45a1.07,1.07,0,0,1,.1.89c-3.27,10.13-2.2,19.32,3.09,26.59,6.57,9,19.69,14.84,33.45,14.84,7.3,0,14-1.7,18.74-4.8A1.08,1.08,0,0,1,411.27,271.83Z"/><path class="cls-1" d="M373.16,265.87C359.24,255.61,362.32,234.21,371,229c-16.24-7.82-24.41-34.71-16-51.92,7.28-14.84,26.92-22.77,43.22-14.68,8.79-20.93,31.75-25.19,45.19-15.95s20.92,31.52,20.76,44.17c14-.14,44.08,22.23,2.87,59.78-4.29,24.5-33.53,36.69-55.85,22.52A44.16,44.16,0,0,1,373.16,265.87Z"/><path class="cls-2" d="M431.76,280.06a39.26,39.26,0,0,1-20.65-5.92,42.56,42.56,0,0,1-11.59,1.51,45.28,45.28,0,0,1-27-8.89c-6.79-5-10.42-13.09-10-22.19.32-6.51,2.78-12.31,6.42-15.41-6.81-3.91-12.47-11.31-15.67-20.61-3.85-11.14-3.55-23.08.8-31.93,5.44-11.09,17.65-18.53,30.39-18.53a32,32,0,0,1,13.27,2.85c6.73-14.86,19.93-20.19,30.2-20.19a28.31,28.31,0,0,1,16.17,4.82c13.71,9.42,21,31.16,21.23,44,8,.53,18.35,6.81,22.17,16.67,3.52,9.09,3,24.22-19.38,44.73-3.14,16.87-18.38,29.08-36.38,29.08Zm-20.49-8.23a1,1,0,0,1,.59.18,37.18,37.18,0,0,0,19.9,5.85h0c17.06,0,31.47-11.63,34.27-27.63a1.12,1.12,0,0,1,.34-.63c21.74-19.8,22.38-34.07,19.09-42.56-4-10.44-15-15.3-21.08-15.3a1.32,1.32,0,0,1-.85-.32,1.26,1.26,0,0,1-.38-.79c.15-11.88-7-34.11-20.28-43.25A26.17,26.17,0,0,0,428,143c-9.8,0-22.47,5.23-28.63,19.9a1.13,1.13,0,0,1-.64.61,1.1,1.1,0,0,1-.87-.05,29.68,29.68,0,0,0-13.33-3.12c-11.92,0-23.33,7-28.41,17.3-4.1,8.34-4.36,19.65-.7,30.24,3.27,9.47,9.15,16.82,16.15,20.19a1.12,1.12,0,0,1,.62.95,1.09,1.09,0,0,1-.54,1c-3.78,2.25-6.54,8.17-6.86,14.71-.41,8.36,2.9,15.76,9.08,20.32a43.1,43.1,0,0,0,25.7,8.46,38.87,38.87,0,0,0,11.39-1.56A1.13,1.13,0,0,1,411.27,271.83Z"/><path class="cls-1" d="M407.36,129.36s-16.71,1.25-20.26-7.82c-5.65-14.42,14.4-18.62,12.27-3.66,8.13-13.23-15.29-24.58-23.1-8-6.29,13.38,13.43,22.07-3.22,31.23Z"/><path class="cls-2" d="M373.05,142.17a1.1,1.1,0,0,1-.53-2.07c8.53-4.7,6.69-8.86,4.15-14.63-2-4.61-4.34-9.85-1.4-16.11,2.54-5.38,7.08-8.6,12.45-8.85a14.53,14.53,0,0,1,13,6.62c2.07,3.51,1.93,7.54-.4,11.33a1.1,1.1,0,0,1-2-.74c.52-3.67-.39-6.43-2.51-7.57a5.66,5.66,0,0,0-6.28,1c-2.48,2.2-3,5.83-1.36,10,3.2,8.2,19,7.14,19.14,7.12a1.06,1.06,0,0,1,1.18,1,1.09,1.09,0,0,1-1,1.18c-.71.06-17.57,1.21-21.36-8.52-1.95-5-1.22-9.6,1.95-12.41a7.81,7.81,0,0,1,8.79-1.32,6.82,6.82,0,0,1,3.13,3.62,8.22,8.22,0,0,0-1.14-3.58c-2-3.46-6.55-5.75-11-5.53-2.66.12-7.57,1.26-10.55,7.58-2.52,5.35-.52,9.89,1.42,14.28,2.55,5.79,5.2,11.78-5.11,17.45A1.13,1.13,0,0,1,373.05,142.17Z"/><path class="cls-2" d="M407.7,217.44a1.11,1.11,0,0,1-.63-.19c-1.66-1.16-2.53-3.94-2.13-6.76.61-4.26,3.89-7.69,9-9.4,7.57-2.55,11.46-.31,13.1,1.24a7.23,7.23,0,0,1,2,7.21,1.1,1.1,0,0,1-2.12-.59,5,5,0,0,0-1.39-5c-2.19-2.07-6.16-2.34-10.88-.76-5.87,2-7.23,5.63-7.52,7.63-.34,2.38.51,4.14,1.21,4.64a1.1,1.1,0,0,1-.63,2Z"/><path class="cls-2" d="M420.7,211.92a.47.47,0,0,0,.45-.41c.17-2.95,1.85-4,2.9-4,.16,0,.75.06.74.55a.45.45,0,0,0,.44.45h0a.43.43,0,0,0,.44-.45,1.5,1.5,0,0,0-1.6-1.45H424c-1.37,0-3.54,1.29-3.75,4.81a.44.44,0,0,0,.42.46Z"/><path class="cls-2" d="M420.7,212.47h0a1,1,0,0,1-1-1.05c.24-3.9,2.7-5.32,4.3-5.32a2.06,2.06,0,0,1,2.2,2,1,1,0,1,1-2,0s-.11,0-.19,0c-.86,0-2.2.92-2.34,3.44A1,1,0,0,1,420.7,212.47Z"/><path class="cls-2" d="M409.75,214.46a.37.37,0,0,0,.18-.05.44.44,0,0,0,.23-.58.36.36,0,0,1,.14-.53c.7-.56,2.72-.6,4.48.79a.43.43,0,1,0,.54-.68c-2-1.63-4.46-1.67-5.57-.8a1.32,1.32,0,0,0-.42,1.62A.5.5,0,0,0,409.75,214.46Z"/><path class="cls-2" d="M409.75,215a1,1,0,0,1-.88-.48,1.88,1.88,0,0,1,.53-2.35,3.75,3.75,0,0,1,2.28-.69,6.39,6.39,0,0,1,4,1.5.91.91,0,0,1,.36.6,1.05,1.05,0,0,1-.2.78,1,1,0,0,1-1.41.14,4.52,4.52,0,0,0-2.75-1,1.89,1.89,0,0,0-1,.21,1,1,0,0,1-.52,1.21A.89.89,0,0,1,409.75,215Z"/><path class="cls-1" d="M462.49,219.64c-1.89,5.74-11.57,19.68-30.15,26.8s-34.1,5.9-41.28,3.06c14.82,13.85,28.11,20,48,13.35C467.19,253.44,462.49,219.64,462.49,219.64Z"/><path class="cls-2" d="M424,266.64h0c-11.34,0-21.41-4.88-33.67-16.34a1.1,1.1,0,0,1,1.16-1.83c2,.81,6.57,2.17,14,2.17a74.4,74.4,0,0,0,26.49-5.23c18.08-6.92,27.68-20.59,29.51-26.12a1.06,1.06,0,0,1,1.14-.75,1.1,1.1,0,0,1,1,1c.05.34,4.5,34.82-24.21,44.41A48.35,48.35,0,0,1,424,266.64ZM395.39,251.9c10.22,8.75,18.95,12.54,28.58,12.54h0a46.29,46.29,0,0,0,14.7-2.63c21.06-7,23.12-28.52,23-37.74-4.18,7.31-13.88,17.64-28.92,23.4a76.65,76.65,0,0,1-27.28,5.37A50.17,50.17,0,0,1,395.39,251.9Z"/><path class="cls-1" d="M463.07,209.85s1.06,6-.7,10.17Z"/><path class="cls-2" d="M462.37,221.13a1.11,1.11,0,0,1-1-1.53c1.62-3.87.64-9.5.63-9.55a1.1,1.1,0,0,1,2.17-.39c.05.26,1.1,6.33-.76,10.79A1.12,1.12,0,0,1,462.37,221.13Z"/><path class="cls-2" d="M457.1,213.41a1.09,1.09,0,0,1-.9-1.73,9.37,9.37,0,0,1,6-3.63c2.78-.37,5.67.65,8.57,3.06a1.1,1.1,0,1,1-1.4,1.7c-2.42-2-4.73-2.88-6.88-2.57a7.17,7.17,0,0,0-4.51,2.7A1.09,1.09,0,0,1,457.1,213.41Z"/><path class="cls-1" d="M384,243.72s3.42,5,8.16,6.05Z"/><path class="cls-2" d="M392.17,250.87a1,1,0,0,1-.24,0c-5.1-1.14-8.68-6.29-8.83-6.51a1.1,1.1,0,0,1,.29-1.53,1.11,1.11,0,0,1,1.53.28s3.24,4.66,7.49,5.61a1.1,1.1,0,0,1-.24,2.17Z"/><path class="cls-2" d="M380.59,251.14h-.08a1.11,1.11,0,0,1-1-1.18c0-.2.43-4.91,3.92-7.38,2.15-1.52,4.92-1.85,8.26-1a1.1,1.1,0,0,1-.57,2.13c-2.66-.7-4.83-.49-6.42.64-2.65,1.88-3,5.71-3,5.75A1.1,1.1,0,0,1,380.59,251.14Z"/><path class="cls-1" d="M439,262.85c-8.48,2.84-15.75,3.33-22.46,1.91.9-10.13,11.12-14.89,17.75-13.68,6.14-7.88,17.94-4.42,22-1.41A31.77,31.77,0,0,1,439,262.85Z"/><path class="cls-2" d="M424,266.64a36.88,36.88,0,0,1-7.66-.8,1.1,1.1,0,0,1-.87-1.18c.83-9.31,9.16-14.87,16.73-14.87a13,13,0,0,1,1.67.1A14.06,14.06,0,0,1,445,245.16a22,22,0,0,1,12,3.62,1.1,1.1,0,0,1,.27,1.48,33,33,0,0,1-17.85,13.64A48.14,48.14,0,0,1,424,266.64Zm-6.21-2.76c6.49,1.17,13.22.5,20.89-2.07A30.9,30.9,0,0,0,454.77,250a20.75,20.75,0,0,0-9.82-2.61,12,12,0,0,0-9.77,4.4,1.08,1.08,0,0,1-1.07.4,10.73,10.73,0,0,0-1.92-.16C426.84,252,419.06,255.69,417.78,263.88Z"/><path class="cls-1" d="M436.55,255.54h.06a.44.44,0,0,0,.38-.49,8.22,8.22,0,0,0-2.38-4.25.39.39,0,0,0-.6,0,.45.45,0,0,0,0,.63,7.61,7.61,0,0,1,2.16,3.77A.4.4,0,0,0,436.55,255.54Z"/><path class="cls-2" d="M436.61,256.64h-.06a1.5,1.5,0,0,1-1.52-1.4h0a7.08,7.08,0,0,0-1.85-3.08,1.58,1.58,0,0,1-.41-1.19,1.5,1.5,0,0,1,.52-1,1.61,1.61,0,0,1,2.2.21,8.86,8.86,0,0,1,2.6,4.91,1.49,1.49,0,0,1-1.32,1.58Z"/><path class="cls-1" d="M422.07,160.54c7.72-4.4,28.6,3.33,33.12,22.19,4.3,17.94-16.1,25.19-27,17.49C418.63,193.48,406.41,169.51,422.07,160.54Z"/><path class="cls-2" d="M438.33,204.37a18.78,18.78,0,0,1-10.78-3.25c-7.05-5-14.55-17.76-14.06-28.18a15.49,15.49,0,0,1,8-13.35,11.9,11.9,0,0,1,5.91-1.35c9.28,0,24.86,7.7,28.82,24.23,1.75,7.3-.53,12.19-2.75,15A19.31,19.31,0,0,1,438.33,204.37Zm-10.89-43.93a9.86,9.86,0,0,0-4.82,1.06A13.23,13.23,0,0,0,415.69,173c-.48,10.21,7.32,22.18,13.13,26.28a16.63,16.63,0,0,0,9.51,2.84,17.07,17.07,0,0,0,13.44-6c2.76-3.5,3.57-8,2.35-13.14C450.43,167.61,436,160.44,427.44,160.44Z"/><path class="cls-2" d="M428.27,187.4c2.28,2.72,5.91,3.45,8.08,1.61s2.12-5.52-.17-8.25-5.94-3.47-8.12-1.63S426,184.67,428.27,187.4Z"/><path class="cls-1" d="M431.36,180.78a1.69,1.69,0,1,0-.08-2.62A1.91,1.91,0,0,0,431.36,180.78Z"/><path class="cls-1" d="M432.15,189a.94.94,0,0,0,1.32.25,1,1,0,0,0,0-1.34.94.94,0,0,0-1.3-.24A.92.92,0,0,0,432.15,189Z"/><path class="cls-1" d="M379.42,178.66c-8.57,2.3-18,22.48-8,39.06,9.57,15.78,29.16,6.61,31.52-6.56C405,199.67,396.85,174,379.42,178.66Z"/><path class="cls-2" d="M385,227.16h0c-5.9,0-11-3.15-14.52-8.87a32.48,32.48,0,0,1-2.05-28.8c2.52-6.25,6.61-10.8,10.69-11.9,6.43-1.7,12.44.4,17.09,5.95,6.51,7.76,9.13,20.48,7.83,27.81C402.5,220.07,394,227.16,385,227.16Zm-1.52-47.95a14.46,14.46,0,0,0-3.79.52c-3.37.9-7,5.05-9.21,10.58a30.26,30.26,0,0,0,1.89,26.84c3.91,6.45,9,7.8,12.63,7.8,7.78,0,15.51-6.41,16.86-14,1.23-6.87-1.43-19-7.34-26C391.35,181.14,387.63,179.21,383.5,179.21Z"/><path class="cls-2" d="M393.9,202.13c.27,3.54-1.81,6.62-4.63,6.82s-5.39-2.47-5.66-6,1.78-6.62,4.62-6.85S393.61,198.55,393.9,202.13Z"/><path class="cls-1" d="M387,199.6a1.68,1.68,0,1,1-1.79-1.93A1.88,1.88,0,0,1,387,199.6Z"/><path class="cls-1" d="M392.26,206a1,1,0,0,1-.75,1.11c-.45,0-.86-.38-.91-1a1,1,0,0,1,.74-1.11A1,1,0,0,1,392.26,206Z"/><path class="cls-1" d="M516.63,100.61c2.89-3.75,11.22-3.12,12.53,4.27,6.61-2.82,9.55,2.32,10.22,5.7,4.52-1.38,9.46,4.67,6.28,13.1-3.66,9.68-13.09,9.9-13.38,1.93-5,3.23-11.48-2.52-8.95-7.82-5.34,3.62-10-.46-8.88-5.12S518.35,104.74,516.63,100.61Z"/><path class="cls-2" d="M537.19,132.39a5.91,5.91,0,0,1-5.82-5.11,7.56,7.56,0,0,1-8.59-3.28,6.94,6.94,0,0,1-1.1-4.14,6.33,6.33,0,0,1-7.17-1.86,6.48,6.48,0,0,1-1.13-5.59,32.74,32.74,0,0,1,1.39-4.13c1-2.68,1.86-4.8.85-7.24a1.12,1.12,0,0,1,.14-1.1,7.47,7.47,0,0,1,6-2.68,8.5,8.5,0,0,1,8.22,6.16,9.19,9.19,0,0,1,2.79-.46c4.15,0,6.53,3.21,7.47,6.34a6.51,6.51,0,0,1,5.8,3c2.07,3,2.33,7.39.69,11.74C544.78,129.12,541.05,132.39,537.19,132.39Zm-4.91-7.89a1,1,0,0,1,.51.13,1.09,1.09,0,0,1,.59.94c.1,2.85,1.56,4.61,3.81,4.61s5.64-2.13,7.44-6.89c1.38-3.67,1.22-7.3-.44-9.7a4.08,4.08,0,0,0-4.48-2,1.11,1.11,0,0,1-.89-.11,1.09,1.09,0,0,1-.52-.73c-.11-.57-1.24-5.62-5.57-5.62a8.14,8.14,0,0,0-3.14.72,1.08,1.08,0,0,1-1,0,1.13,1.13,0,0,1-.56-.78,6.34,6.34,0,0,0-6.35-5.6,5.52,5.52,0,0,0-3.82,1.38c1,3,0,5.53-1.08,8.23a31.75,31.75,0,0,0-1.3,3.86,4.31,4.31,0,0,0,.72,3.7c1.38,1.75,4,1.9,6.47.23a1.13,1.13,0,0,1,1.34.08,1.09,1.09,0,0,1,.27,1.31,4.66,4.66,0,0,0,.33,4.57,5.18,5.18,0,0,0,7,1.85A1.08,1.08,0,0,1,532.28,124.5Z"/><path class="cls-1" d="M539.38,110.58c0,4.91-2.61,11.88-7.17,14.69Z"/><path class="cls-2" d="M532.21,126.37a1.1,1.1,0,0,1-.58-2c4.11-2.53,6.65-9.11,6.65-13.75a1.11,1.11,0,0,1,2.21,0c0,5.35-2.88,12.66-7.71,15.63A1.1,1.1,0,0,1,532.21,126.37Z"/><path class="cls-1" d="M519.06,130.44c3.31-3,2.72-10.7-1.36-14.73,3.29,1.36,11.15-.31,12.16-6.83.94-6.31-8.14-9.65-15.41-7.93-5.16,1.26-20.94,9.09-13.43,28.8Z"/><path class="cls-2" d="M519.06,131.54a1.1,1.1,0,0,1-.75-1.92,6.74,6.74,0,0,0,1.78-4.86,11.6,11.6,0,0,0-3.16-8.27,1.1,1.1,0,0,1,1.2-1.8c1.52.63,4.57.46,7-.91a7,7,0,0,0,3.63-5.07,4.65,4.65,0,0,0-1.64-4.28c-2.69-2.46-7.91-3.48-12.42-2.41-3,.72-9.44,3.71-12.65,9.83-2.57,4.89-2.57,10.78,0,17.51a1.09,1.09,0,0,1-.63,1.42,1.11,1.11,0,0,1-1.43-.64c-2.8-7.34-2.76-13.84.12-19.32,3.57-6.8,10.53-10.08,14.08-10.94,5.27-1.25,11.2,0,14.43,2.92A6.86,6.86,0,0,1,531,109a9.11,9.11,0,0,1-4.72,6.66,12.53,12.53,0,0,1-5.94,1.55,14.4,14.4,0,0,1,2,7.55,8.81,8.81,0,0,1-2.5,6.45A1.12,1.12,0,0,1,519.06,131.54Z"/></svg>