<svg id="Layer_46" data-name="Layer 46" xmlns="http://www.w3.org/2000/svg" viewBox="0 0 895 511.11"><defs><style>.cls-1{fill:#fff;}.cls-2{fill:#1d1d1b;}</style></defs><path class="cls-1" d="M432.59,414.09s-2.68,7.55.35,14.58-1.56,14.29-8.06,15.12c-5.39.66-9.06-1-10.08-4.7-3.18,3.51-10.73,5.7-16.1,4.19-6.93-1.95-8.06-4.36-8.24-7.2-2.15,1.33-8.77,2-9.73-2.36-1.34-6.23,7.41-9.07,13.46-13.59s10.21-8.39,10.21-8.39S432.59,406,432.59,414.09Z"/><path class="cls-2" d="M422.66,445.09c-4,0-6.87-1.41-8.3-4a20.16,20.16,0,0,1-11.89,3.85,15.44,15.44,0,0,1-4.08-.52c-6.1-1.72-8.21-3.93-8.86-6.66a11.91,11.91,0,0,1-3.44.51c-3.48,0-5.9-1.6-6.49-4.29-1.16-5.42,4-8.54,9-11.56,1.67-1,3.4-2.06,4.93-3.19,5.89-4.46,10.08-8.28,10.12-8.32a1.11,1.11,0,0,1,.55-.28,106.51,106.51,0,0,1,17.95-2c7.71,0,11.62,1.84,11.62,5.47a1.21,1.21,0,0,1-.06.38c0,.07-2.49,7.23.32,13.74a12.24,12.24,0,0,1-.56,11,11.47,11.47,0,0,1-8.41,5.73A18.26,18.26,0,0,1,422.66,445.09Zm-7.86-7.16.27,0a1.15,1.15,0,0,1,.84.82c.92,3.3,4.18,4,6.75,4a16.94,16.94,0,0,0,2.08-.13,9.2,9.2,0,0,0,6.7-4.59,9.94,9.94,0,0,0,.43-8.93c-2.91-6.76-.88-13.84-.45-15.2-.23-2.6-5.9-3-9.3-3a104,104,0,0,0-17.18,1.89c-1,.88-4.88,4.32-10.06,8.23-1.61,1.21-3.39,2.29-5.11,3.33-4.68,2.84-8.73,5.28-7.91,9.09.47,2.15,2.85,2.47,4.23,2.47a8.09,8.09,0,0,0,3.77-.84,1.16,1.16,0,0,1,1.76.91c.14,2.19.8,4.31,7.4,6.16a12.82,12.82,0,0,0,3.45.44c4.39,0,9.22-1.81,11.47-4.3A1.18,1.18,0,0,1,414.8,437.93Z"/><path class="cls-1" d="M433.68,410.88S428.57,421,431.59,428s-.49,11-7,11.22c-7.54.34-7.71-8.19-6.54-11.92-2.35,5.22-13.93,10.58-19.3,9.06-6.93-1.94-4.44-7.71-2.1-11.22-2.17,1.34-8.24,7.57-12.17,5.36-4.2-2.36,3.71-5.87,9.76-10.39a48.18,48.18,0,0,0,8.68-8.06S419.73,411.38,433.68,410.88Z"/><path class="cls-2" d="M424.1,440.4a7.1,7.1,0,0,1-6-2.82,10.79,10.79,0,0,1-1.81-6.22c-4.79,4.39-13.52,7.39-17.92,6.14-2.63-.74-4.32-2.07-5-4a7.08,7.08,0,0,1,0-4.5c-2.14,1.56-4.72,3.11-7.11,3.11a4.92,4.92,0,0,1-2.44-.62,2.93,2.93,0,0,1-1.76-2.44c-.08-2.22,2.82-4.13,6.84-6.76,1.52-1,3.09-2,4.56-3.12a47.73,47.73,0,0,0,8.45-7.84,1.15,1.15,0,0,1,.87-.45s16.87-.69,30.82-1.2a1.16,1.16,0,0,1,1.07,1.68c0,.09-4.83,9.7-2.06,16.16,1.94,4.53,1.14,7.4.13,9-1.48,2.34-4.31,3.66-8.19,3.82ZM418,426.16a1,1,0,0,1,.41.08,1.14,1.14,0,0,1,.69,1.42c-.67,2.14-.84,6.2.88,8.55a4.74,4.74,0,0,0,4.12,1.88h.39c3.05-.13,5.29-1.1,6.33-2.74s.93-4-.3-6.87c-2.45-5.71,0-13.06,1.34-16.37-12.07.44-25.62,1-28.42,1.11a53.6,53.6,0,0,1-8.56,7.84c-1.53,1.15-3.13,2.2-4.68,3.21-2.32,1.53-5.82,3.83-5.79,4.75,0,0,.1.23.59.51,2.28,1.28,6.5-1.87,9-3.88a22.34,22.34,0,0,1,2-1.46,1.15,1.15,0,0,1,1.57,1.62c-1.91,2.86-2.63,5.32-2,6.93.43,1.16,1.6,2,3.48,2.54a6.6,6.6,0,0,0,1.81.22c5.61,0,14.34-4.69,16.13-8.65A1.16,1.16,0,0,1,418,426.16Z"/><path class="cls-1" d="M379.17,221.74S348.09,210.21,309,200.29c-24.55-6.22-40.67,5.53-20.72,42.21s59,58.1,82.83,58.1C388.76,275.72,393.73,243.87,379.17,221.74Z"/><path class="cls-2" d="M371.12,301.75c-25,0-64.12-22.44-83.85-58.7-9.1-16.73-11.44-29.75-6.75-37.63,3.06-5.15,8.93-7.87,17-7.87a48.59,48.59,0,0,1,11.79,1.62c38.7,9.82,70,21.37,70.28,21.49a1.11,1.11,0,0,1,.56.44c14,21.34,10.8,53.56-8.07,80.16A1.15,1.15,0,0,1,371.12,301.75ZM297.5,199.86c-5,0-11.68,1.17-15,6.74-3,5-4.19,15.16,6.79,35.35,19.17,35.22,56.89,57.13,81.22,57.48,17.92-25.6,21.08-56.32,7.89-76.74-3.57-1.3-33.34-12.06-69.69-21.28A45.9,45.9,0,0,0,297.5,199.86Z"/><path class="cls-1" d="M379.93,266.71S362.71,248,323.57,222.42c-26.35-17.25-55.23-16.6-35.28,20.08s59,58.1,82.83,58.1C388.76,275.72,394.5,288.84,379.93,266.71Z"/><path class="cls-2" d="M371.12,301.75c-25,0-64.12-22.44-83.85-58.7-6.77-12.44-8.49-21.62-5.13-27.27,2.12-3.58,6.22-5.46,11.85-5.46,8.26,0,19.56,4.16,30.21,11.13,38.81,25.39,56.41,44.29,56.58,44.47l3.28,4.91c6.54,9.75,7.08,10.55,1.41,15.51a77,77,0,0,0-13.41,14.92A1.15,1.15,0,0,1,371.12,301.75ZM294,212.63c-3.33,0-7.74.75-9.87,4.33-2,3.37-2.73,10.44,5.18,25,19.17,35.22,56.9,57.13,81.22,57.48A79.58,79.58,0,0,1,384,284.6c4.13-3.62,4.13-3.62-1.81-12.48-.92-1.38-2-3-3.18-4.78,0,0-17.49-18.75-56-43.95C312.65,216.65,301.82,212.63,294,212.63Z"/><path class="cls-1" d="M516.46,212.89s32.91-3.86,73.23-4.26c25.33-.23,38.21,15,10.15,45.92S528.73,297,505.62,291.41C494.37,263.06,497.06,230.94,516.46,212.89Z"/><path class="cls-2" d="M518.26,293.93a54.92,54.92,0,0,1-12.91-1.4,1.13,1.13,0,0,1-.8-.7c-12-30.33-7.57-62.39,11.12-79.79a1.15,1.15,0,0,1,.65-.3c.33,0,33.44-3.87,73.36-4.27h.58c13.1,0,22.08,4,25.3,11.28,2.75,6.19,2.39,17.56-14.86,36.58C576.48,282,541.84,293.93,518.26,293.93Zm-11.79-3.51a53.38,53.38,0,0,0,11.79,1.2c23.07,0,57-11.7,80.72-37.85,16.42-18.09,16.93-28.52,14.47-34.08-2.79-6.3-11.24-9.91-23.19-9.91h-.55c-37.5.37-69,3.79-72.74,4.21C499.32,230.7,495.12,261.29,506.47,290.42Z"/><path class="cls-1" d="M505.07,256.39s21.15-14.08,65.24-29.7c29.69-10.52,57.59-3.06,29.53,27.86S528.73,297,505.62,291.41C494.37,263.06,485.68,274.45,505.07,256.39Z"/><path class="cls-2" d="M518.26,293.93a54.92,54.92,0,0,1-12.91-1.4,1.13,1.13,0,0,1-.8-.7A76.74,76.74,0,0,0,495,274.15c-4.33-6.15-3.62-6.8,5-14.74,1.22-1.11,2.61-2.39,4.19-3.86.36-.26,21.92-14.46,65.65-30a73.77,73.77,0,0,1,23.75-4.55c9.39,0,15.79,2.79,18.05,7.88,1.93,4.37,1.59,12.49-11,26.4C576.48,282,541.84,293.93,518.26,293.93Zm-11.79-3.51a53.38,53.38,0,0,0,11.79,1.2c23.07,0,57-11.7,80.72-37.85,11.79-13,12.29-20.17,10.63-23.91-1.86-4.19-7.51-6.5-15.93-6.5a71.64,71.64,0,0,0-23,4.42c-43.42,15.38-64.78,29.44-65,29.58-1.44,1.36-2.84,2.64-4.06,3.76-7.88,7.21-7.88,7.21-4.72,11.7A79.65,79.65,0,0,1,506.47,290.42Z"/><path class="cls-1" d="M383.33,228.33s7.55,14.1-1,32.21S345.08,343.1,360.51,378c16.5,37.31,44.92,40.44,72.65,34.58,23.65-5,32.22-3,44.3,1,8.34,2.76,34-.53,42.11-6.69,16.77-12.77,23.8-27.71,22.8-62.44s-26.18-77.85-29.68-88.93-9.58-27.7-5-34.74S383.33,228.33,383.33,228.33Z"/><path class="cls-2" d="M413,416.06c-24.84,0-42.35-12.29-53.54-37.58-14.85-33.62,10.31-94,21.82-118.44,8.22-17.37,1.12-31,1.05-31.16a1.15,1.15,0,0,1,.88-1.69c.84-.1,84-9.49,113.9-9.49,9.75,0,11.09,1,11.63,2a1.68,1.68,0,0,1-.1,1.75c-3.86,6,.79,20.3,4.19,30.76l1,3c.85,2.68,3.07,7.43,5.88,13.45,8.64,18.49,23.11,49.45,23.86,75.79,1,33-5.14,49.6-23.26,63.4-6.44,4.89-22.73,7.91-34.13,7.91h0a31,31,0,0,1-9.05-1c-6.67-2.22-12.42-3.93-20.7-3.93-6.18,0-13.48.94-23,3A98.89,98.89,0,0,1,413,416.06ZM385.05,229.31c1.72,4.19,5.5,16.53-1.69,31.72C372,285.15,347.1,344.8,361.56,377.55c10.78,24.36,27.6,36.2,51.43,36.2a95.62,95.62,0,0,0,19.93-2.3c9.67-2.05,17.13-3,23.47-3,8.61,0,14.8,1.83,21.43,4.05a29,29,0,0,0,8.32.92c11.07,0,26.87-3,32.73-7.44,15.3-11.65,23.4-24.9,22.34-61.49-.73-25.87-15.07-56.55-23.64-74.88a148.43,148.43,0,0,1-6-13.73l-1-3c-3.64-11.22-8.15-25.11-4.26-32.19-.82-.26-3.09-.67-9.26-.67C469.65,220,396.73,228,385.05,229.31Z"/><path class="cls-1" d="M407.24,229.33c-21.6,31.67-45,94.93-28.2,125.52s59.06,50.34,102,27.51a61.43,61.43,0,0,0,31.52-55.7c-.84-29.71-31.16-93-38.15-101.28C469.79,219.91,421.31,218.75,407.24,229.33Z"/><path class="cls-2" d="M443,393.42h0c-26.8,0-52.3-14.92-65-38-16.93-30.84,5.53-93.41,28.25-126.72a1.39,1.39,0,0,1,.26-.28c8.12-6.09,26.84-8.27,41.65-8.27,10.76,0,24.31,1.18,27.12,4.5,6.77,8,37.55,71.16,38.43,102a62.29,62.29,0,0,1-32.13,56.76A81.79,81.79,0,0,1,443,393.42ZM408.09,230.14c-21.8,32-44.27,94.56-28,124.15,12.27,22.36,37,36.82,62.95,36.82h0a79.48,79.48,0,0,0,37.51-9.77,60,60,0,0,0,30.91-54.65C510.58,297,480,233.77,473.54,226.13c-1.51-1.79-10.91-3.69-25.35-3.69S415.83,224.47,408.09,230.14Z"/><path class="cls-1" d="M372.42,120.85c-2.69,6.7-10.13,17.75-18.19,26.11-12.31,12.79-24.52,38.37-9.57,60.81,13.78,20.71,59.87,35,91.52,36,26.49.81,67.3-9.57,87.1-20s32.12-26.48,30.06-50.37c-2.24-25.57-30-37.12-37.7-51.35s-35-56.43-76.5-54.84C411.22,68.3,390.4,75.92,372.42,120.85Z"/><path class="cls-2" d="M439.18,245h0c-1,0-2,0-3-.05-33.59-1-78.76-15.93-92.45-36.51-14.11-21.18-4.87-47.12,9.69-62.25,7.44-7.71,15.16-18.78,17.95-25.74,17.6-44,38.17-53.21,67.76-54.35.78,0,1.56,0,2.33,0,42.89,0,70.19,46.22,75.23,55.48,2.67,4.92,8,9.68,13.66,14.72,10.64,9.47,22.7,20.21,24.17,37.09,1.94,22.41-8.38,39.74-30.67,51.49C505.32,234.54,466.9,245,439.18,245Zm2.25-176.63c-.75,0-1.49,0-2.24,0-29.32,1.13-48.48,9.89-65.7,52.9-2.94,7.32-10.69,18.46-18.43,26.48-10,10.41-24.87,36.2-9.44,59.37,13.1,19.68,58.26,34.5,90.6,35.48,1,0,1.95,0,3,0,27.38,0,65.31-10.28,83.56-19.89,21.39-11.28,31.29-27.85,29.44-49.25-1.39-16-13.08-26.38-23.39-35.57-5.81-5.17-11.3-10.06-14.16-15.33C509.7,113.55,483,68.34,441.43,68.34Z"/><path class="cls-1" d="M409.19,181.06s7.14-20,4.56-39.49S399.86,108.83,388.31,112c-8.17,2.25-14.91,16.69-20.92,26.56-3.4,5.59-16.71,26.58-18.06,40.09s-2.68,37.92,29.62,52.41,66.18,19.53,113.63,4c37.47-12.28,57.09-52.92,34.24-76s-29.61-33.33-34.11-37.44-17.32-16.26-32-11.35-17.46,24.92-18.77,33.8,1,28.68,2.3,32.5,3.7,16.09,3.67,17.55S409.19,181.06,409.19,181.06Z"/><path class="cls-2" d="M438.33,245.73c-20.11,0-39.13-4.32-59.85-13.6C344.32,216.82,347,190,348.18,178.56c1.29-13,13.07-32.18,17.51-39.41l.71-1.17c1.1-1.81,2.23-3.77,3.39-5.79,5.2-9.06,11.09-19.32,18.21-21.29a14.12,14.12,0,0,1,3.75-.51c11,0,20.76,13,23.15,31,2.27,17.18-2.81,34.48-4.26,39,12.35,4.61,31,11.34,35.94,12.52a153,153,0,0,0-3.47-15.95c-1.32-4-3.67-24-2.35-33l.06-.39c1.4-9.51,4.32-29.28,19.49-34.34a23.47,23.47,0,0,1,7.41-1.21c11.85,0,21.43,8.82,25.52,12.58l.25.23a83.53,83.53,0,0,1,6.38,7.12c5.2,6.17,13.07,15.51,27.77,30.35,8.91,9,12.08,21.17,8.91,34.27-4.66,19.36-21.78,36.49-43.61,43.64C473.28,242.6,455.42,245.73,438.33,245.73Zm-46.58-133a11.71,11.71,0,0,0-3.14.43c-6.2,1.71-11.84,11.54-16.82,20.21-1.16,2-2.3,4-3.42,5.84l-.71,1.17c-3.94,6.44-15.94,26-17.18,38.44-1.2,11.88-3.69,36.6,28.94,51.23,20.42,9.14,39.13,13.4,58.91,13.4,16.84,0,34.47-3.09,53.89-9.46,21.08-6.91,37.6-23.39,42.09-42,3-12.29,0-23.69-8.31-32.09-14.77-14.91-23-24.67-27.9-30.49a83.1,83.1,0,0,0-6.17-6.91l-.25-.23c-3.89-3.58-13-12-24-12a20.87,20.87,0,0,0-6.67,1.1c-13.83,4.6-16.61,23.43-17.94,32.47l-.06.39c-1.25,8.54,1,28.22,2.25,32s3.77,16.28,3.73,17.94a1.27,1.27,0,0,1-1.4,1.22c-3.43,0-35.23-11.88-38.85-13.24a1.15,1.15,0,0,1-.68-1.47c.07-.2,7-20,4.5-38.95C410.41,125.18,401.44,112.7,391.75,112.7Z"/><path class="cls-1" d="M415.74,194.76a14.87,14.87,0,0,0-4.84,13c.86,7.05,8.06,13.27,15.62,13.7,9.17.53,24.59-8,20.73-29.83C436.93,194.49,415.74,194.76,415.74,194.76Z"/><path class="cls-2" d="M427.35,222.6h0c-.3,0-.6,0-.89,0-8.14-.46-15.79-7.2-16.7-14.71a15.9,15.9,0,0,1,5.26-14,1.13,1.13,0,0,1,.7-.25c.22,0,21.17-.31,31.22-3.13a1.17,1.17,0,0,1,.93.13,1.21,1.21,0,0,1,.52.78c2.11,11.91-1.52,19.26-4.93,23.33A21.71,21.71,0,0,1,427.35,222.6Zm-11.17-26.69a13.63,13.63,0,0,0-4.13,11.66c.79,6.48,7.45,12.29,14.54,12.69.25,0,.5,0,.76,0h0a19.62,19.62,0,0,0,14.34-7c3-3.55,6.13-9.9,4.62-20.21C436.39,195.45,419.19,195.86,416.18,195.91Z"/><path class="cls-1" d="M445,195s-3,9.83-8.87,13.46-15.19,4.65-19.48,0c-1-5.65.28-9.35,3.07-13.29C424.44,195,445,195,445,195Z"/><path class="cls-2" d="M425.18,212.73c-4,0-7.27-1.21-9.39-3.51a1.21,1.21,0,0,1-.28-.58c-1-5.42,0-9.52,3.27-14.16a1.19,1.19,0,0,1,.9-.49c3.45-.14,15.15-.16,21.82-.16H445a1.14,1.14,0,0,1,.93.47,1.16,1.16,0,0,1,.18,1c-.13.42-3.21,10.3-9.37,14.12A22.73,22.73,0,0,1,425.18,212.73Zm-7.45-4.84c1.66,1.63,4.29,2.53,7.45,2.53a20.28,20.28,0,0,0,10.34-2.95c4.11-2.54,6.78-8.53,7.85-11.33H441.5c-5.09,0-17,0-21.16.14A14.65,14.65,0,0,0,417.73,207.89Z"/><path class="cls-1" d="M438.91,206.09a20.78,20.78,0,0,0-8.77-3.4c-6.52-1.09-9.77,3.42-11.83,7.12,4.73,3,12.65,1.87,17.82-1.36A12.67,12.67,0,0,0,438.91,206.09Z"/><path class="cls-2" d="M425.19,212.72h0a13.91,13.91,0,0,1-7.5-1.94,1.15,1.15,0,0,1-.38-1.53c2-3.67,5.12-7.88,10.91-7.88a12.89,12.89,0,0,1,2.11.18,22.07,22.07,0,0,1,9.25,3.6,1.12,1.12,0,0,1,.48.81,1.17,1.17,0,0,1-.29.91,14.44,14.44,0,0,1-3,2.57A22.76,22.76,0,0,1,425.19,212.72Zm-5.28-3.35c4,1.88,11,1,15.61-1.9a10.92,10.92,0,0,0,1.57-1.18,21.55,21.55,0,0,0-7.15-2.46,10.35,10.35,0,0,0-1.72-.15C424.12,203.68,421.7,206.41,419.91,209.37Z"/><path class="cls-1" d="M485.26,154c0,9.93-7.52,18-16.8,18s-16.81-8-16.81-18,7.53-18,16.81-18S485.26,144.1,485.26,154Z"/><path class="cls-2" d="M468.46,173.14c-9.91,0-18-8.58-18-19.13s8.06-19.11,18-19.11,18,8.57,18,19.11S478.36,173.14,468.46,173.14Zm0-35.93c-8.64,0-15.66,7.53-15.66,16.8s7,16.82,15.66,16.82S484.1,163.28,484.1,154,477.08,137.21,468.46,137.21Z"/><path class="cls-1" d="M468.46,172.54c-9.6,0-17.4-8.32-17.4-18.53s7.8-18.53,17.4-18.53,17.37,8.32,17.37,18.53S478,172.54,468.46,172.54Z"/><path class="cls-2" d="M468.46,173.69c-10.23,0-18.55-8.83-18.55-19.68s8.32-19.69,18.55-19.69S487,143.15,487,154,478.68,173.69,468.46,173.69Zm0-37.05c-9,0-16.24,7.79-16.24,17.37s7.28,17.37,16.24,17.37,16.22-7.79,16.22-17.37S477.4,136.64,468.46,136.64Z"/><path class="cls-2" d="M482.34,152.32c0,6.85-5.18,12.41-11.61,12.41s-11.65-5.56-11.65-12.41,5.21-12.44,11.65-12.44S482.34,145.45,482.34,152.32Z"/><path class="cls-1" d="M467.57,145.46a3.32,3.32,0,1,1-3.32-3.28A3.28,3.28,0,0,1,467.57,145.46Z"/><path class="cls-1" d="M475.33,157.19a1.86,1.86,0,1,1-1.86-1.84A1.85,1.85,0,0,1,475.33,157.19Z"/><path class="cls-1" d="M407.91,155.72c0,9.47-7.18,17.12-16,17.12s-16-7.65-16-17.12,7.16-17.11,16-17.11S407.91,146.27,407.91,155.72Z"/><path class="cls-2" d="M391.89,174c-9.47,0-17.17-8.2-17.17-18.28s7.7-18.27,17.17-18.27,17.17,8.2,17.17,18.27S401.36,174,391.89,174Zm0-34.24c-8.19,0-14.86,7.16-14.86,16s6.67,16,14.86,16,14.86-7.16,14.86-16S400.08,139.76,391.89,139.76Z"/><path class="cls-1" d="M391.89,173.41c-9.14,0-16.58-7.93-16.58-17.69s7.44-17.67,16.58-17.67,16.58,7.93,16.58,17.67S401,173.41,391.89,173.41Z"/><path class="cls-2" d="M391.89,174.56c-9.78,0-17.74-8.45-17.74-18.84s8-18.83,17.74-18.83,17.74,8.45,17.74,18.83S401.67,174.56,391.89,174.56Zm0-35.36c-8.51,0-15.43,7.41-15.43,16.52s6.92,16.53,15.43,16.53,15.43-7.41,15.43-16.53S400.4,139.2,391.89,139.2Z"/><path class="cls-2" d="M405,154.84c0,6.57-5,11.85-11.1,11.85s-11.1-5.28-11.1-11.85,5-11.84,11.1-11.84S405,148.3,405,154.84Z"/><path class="cls-1" d="M391,148.32a3.16,3.16,0,1,1-3.17-3.12A3.15,3.15,0,0,1,391,148.32Z"/><path class="cls-1" d="M398.34,159.5a1.78,1.78,0,0,1-3.55,0,1.78,1.78,0,0,1,3.55,0Z"/><path class="cls-1" d="M400.65,196.35a23.85,23.85,0,0,1,9-17.84c8.77-7.16,21.27-1.07,27,4.7a52.28,52.28,0,0,0,11.16,8.73c-.19,2.47-4.22,5.7-9.44,6.82s-13.54,1-20.37-2.65S402.55,196,400.65,196.35Z"/><path class="cls-2" d="M432,200.55a31.4,31.4,0,0,1-14.64-3.42,13.78,13.78,0,0,0-6.51-1.47,31.56,31.56,0,0,0-8.51,1.44c-.68.19-1.2.33-1.54.39a1.17,1.17,0,0,1-1.35-1.1,24.86,24.86,0,0,1,9.4-18.77A15.51,15.51,0,0,1,419,174.11c7.09,0,14.37,4.16,18.45,8.29a51.49,51.49,0,0,0,10.85,8.51,1.14,1.14,0,0,1,.63,1.12c-.25,3.21-4.79,6.66-10.35,7.86A30.94,30.94,0,0,1,432,200.55Zm-21.15-7.2a16,16,0,0,1,7.59,1.74A29.28,29.28,0,0,0,432,198.24a28.28,28.28,0,0,0,6-.61c4.47-1,7.57-3.39,8.35-5.11A56.09,56.09,0,0,1,435.77,184c-3.74-3.79-10.38-7.61-16.8-7.61a13.24,13.24,0,0,0-8.62,3,23.26,23.26,0,0,0-8.46,15.42A33.46,33.46,0,0,1,410.89,193.35Z"/><path class="cls-1" d="M425.65,189a1.87,1.87,0,0,1-1.88-1.06c-.36-1,.44-2.14,1.82-2.67s2.77-.09,3.09.84-.42,2.16-1.79,2.66A3.24,3.24,0,0,1,425.65,189Z"/><path class="cls-2" d="M425.65,190.14a3,3,0,0,1-3-1.81c-.57-1.62.51-3.39,2.5-4.15s4.07,0,4.59,1.54-.48,3.39-2.48,4.13A4.5,4.5,0,0,1,425.65,190.14Zm1.11-3.94a2.11,2.11,0,0,0-.77.15c-.84.32-1.23.91-1.13,1.19s1,.38,1.62.14c.78-.28,1.23-.86,1.11-1.19C427.56,186.4,427.28,186.2,426.76,186.2Z"/><path class="cls-1" d="M515.57,423.66s-3-8.58.4-16.53S514.21,391,506.85,390c-6.09-.75-10.26,1.14-11.42,5.32-3.59-4-12.14-6.47-18.22-4.76-7.87,2.23-9.14,4.94-9.32,8.18-2.47-1.53-9.95-2.34-11,2.66-1.51,7,8.36,10.26,15.19,15.39s9.21,6.63,11.61,9.52C490.18,434.19,515.57,432.78,515.57,423.66Z"/><path class="cls-2" d="M499.46,432.61h0c-5.84,0-13.3-1.46-16.68-5.54-1.85-2.22-3.75-3.63-7.91-6.72-1-.75-2.18-1.61-3.5-2.61-1.72-1.29-3.68-2.48-5.57-3.63-5.59-3.4-11.36-6.91-10.07-12.92.65-3,3.27-4.74,7.18-4.74a13.14,13.14,0,0,1,4,.63c.66-3.11,3-5.63,10-7.6a16.74,16.74,0,0,1,4.6-.59A22.42,22.42,0,0,1,495,393.34c1.85-3.56,6.13-5.19,12-4.46a12.84,12.84,0,0,1,9.42,6.42,13.64,13.64,0,0,1,.61,12.28c-3.21,7.46-.4,15.61-.37,15.69a1.07,1.07,0,0,1,.07.39c0,2-1,4.82-5.69,6.87A29.92,29.92,0,0,1,499.46,432.61Zm-36.55-33.85c-1.6,0-4.37.38-4.91,2.92-.95,4.4,3.66,7.21,9,10.45,1.94,1.18,3.94,2.4,5.76,3.76,1.32,1,2.47,1.85,3.49,2.61,4.32,3.2,6.28,4.66,8.31,7.1,2.36,2.85,8.22,4.7,14.9,4.7h0a27.91,27.91,0,0,0,10.65-1.89c1.92-.83,4.19-2.3,4.3-4.58-.46-1.42-2.81-9.48.5-17.16a11.4,11.4,0,0,0-.49-10.22,10.59,10.59,0,0,0-7.71-5.28,19.55,19.55,0,0,0-2.36-.15c-3,0-6.74.81-7.8,4.64a1.18,1.18,0,0,1-.85.82,1.2,1.2,0,0,1-1.13-.35c-2.57-2.86-8.06-4.93-13.07-4.93a15.06,15.06,0,0,0-4,.5c-7.59,2.15-8.34,4.6-8.48,7.13a1.16,1.16,0,0,1-1.76.92A9.21,9.21,0,0,0,462.91,398.76Z"/><path class="cls-1" d="M509.77,398.05c-6.08-.76-10.7,0-11.81,4.17-3.61-4-13.74-5.41-17.46-4.17-5.2,1.73-10.23,4.38-7.31,7.66-2.48-1.5-11.95-1.7-13.05,3.31a.44.44,0,0,1,0,.16c-1.88-1.85-3.82-5.12-3.25-7.75,1.07-5,8.55-4.19,11-2.66.18-3.24,1.45-5.95,9.32-8.18,6.08-1.71,14.63.76,18.22,4.76,1.16-4.18,5.33-6.07,11.42-5.32,5.49.68,11.36,7.12,10.25,13.86C515.24,401.41,513,398.43,509.77,398.05Z"/><path class="cls-2" d="M460.12,410.34a1.18,1.18,0,0,1-.81-.33c-2.25-2.22-4.23-5.8-3.57-8.82s3.26-4.74,7.17-4.74a13.14,13.14,0,0,1,4,.63c.66-3.11,3-5.63,10-7.6a16.74,16.74,0,0,1,4.6-.59A22.42,22.42,0,0,1,495,393.34c1.85-3.56,6.13-5.19,12-4.46a13.35,13.35,0,0,1,8.63,5.43,12.86,12.86,0,0,1,2.61,9.77,1.16,1.16,0,0,1-.87.93,1.12,1.12,0,0,1-1.2-.43c-1.6-2.13-3.79-5.05-6.53-5.38a30,30,0,0,0-3.67-.26c-5.33,0-6.49,2-6.9,3.58a1.15,1.15,0,0,1-.84.82,1.13,1.13,0,0,1-1.13-.34c-2.39-2.65-8.54-4.23-13.1-4.23a10.47,10.47,0,0,0-3.14.38c-6.12,2-7.17,3.73-7.34,4.37-.07.27-.1.72.53,1.42a1.16,1.16,0,0,1-1.46,1.76,9.6,9.6,0,0,0-4.25-.77c-2.9,0-6.48.86-7.06,3.28a1.88,1.88,0,0,1-.08.4,1.18,1.18,0,0,1-.84.71Zm2.79-11.58c-1.6,0-4.37.38-4.91,2.92-.35,1.58.52,3.65,1.76,5.32,2.15-3.21,7.72-3.8,11.41-3.14a3.77,3.77,0,0,1,.12-.94c.59-2.23,3.48-4.18,8.84-6a12.93,12.93,0,0,1,3.87-.49c4.47,0,10.17,1.3,13.51,3.81,1.77-3.09,5.74-4.2,12.41-3.37a9.92,9.92,0,0,1,6,3.68,11.38,11.38,0,0,0-2.17-4.88,11.15,11.15,0,0,0-7.06-4.53,19.55,19.55,0,0,0-2.36-.15c-3,0-6.74.81-7.8,4.64a1.18,1.18,0,0,1-.85.82,1.2,1.2,0,0,1-1.13-.35c-2.57-2.86-8.06-4.93-13.07-4.93a15.06,15.06,0,0,0-4,.5c-7.59,2.15-8.34,4.6-8.48,7.13a1.16,1.16,0,0,1-1.76.92A9.21,9.21,0,0,0,462.91,398.76Z"/></svg>