<svg id="Layer_163" data-name="Layer 163" xmlns="http://www.w3.org/2000/svg" viewBox="0 0 895 511.11"><defs><style>.cls-1{fill:#fff;}</style></defs><g id="Bicycle"><path class="cls-1" d="M741.36,168.25a1.47,1.47,0,0,1-.76,1.67c-5.44,2.78-11.73,2.93-18,2.25-4.54.36-9.07.7-13.62,1-13.34.77-26.7,1.22-40.07,1.54-26.65.59-53.29.57-79.92,1.45-.77-4.23-1.79-8.46-2.75-12.69h.1c8.69,0,17.38-.66,26.07-.95a8.8,8.8,0,0,0,5.61,8.26c4.37,1.79,10.34,1.39,15,1.72a158.3,158.3,0,0,0,22.84.1c15-1,29.87-2.28,44.92-2.68C714,169.54,728.44,171.67,741.36,168.25Z"/><path class="cls-1" d="M729.33,154.23c5.1-1.57,11.26,1.27,8.54,7.43a4.5,4.5,0,0,0-.36,1.92c-9.52,1.89-19.37.61-29,1.06-1,.05-2,.1-3,.13l-.1-2.4a66.84,66.84,0,0,0,7.33-.71,25.71,25.71,0,0,0,9.62-3.79C724.48,156.61,726.93,155,729.33,154.23Z"/><path class="cls-1" d="M689.58,271.49a107.17,107.17,0,1,1-152,114l11.85.4a95.54,95.54,0,1,0,135.9-103.53Q687.42,276.93,689.58,271.49Z"/><path class="cls-1" d="M705.38,162.37l.1,2.4c-9.88.42-19.76.65-29.61,1.39-10.31.81-20.54,2.2-30.9,2-4.71-.12-26.87.14-29.52-6.84.51-3.53,2.45-6.7,6.67-6.29a8,8,0,0,1,1.07.18,4.93,4.93,0,0,1,1.39.45,11.42,11.42,0,0,1,1.21.61c.13,0,.18,0,.13,0,1.69.81,3.1,2.32,4.7,3.29a31,31,0,0,0,12,3.88c10.81,1.5,21.71-.6,32.5-1.28C685.14,161.46,695.34,162.8,705.38,162.37Z"/><path class="cls-1" d="M681.65,268.1c-1.46,3.59-2.9,7.2-4.35,10.79a94.75,94.75,0,0,0-26-5.93c0-3.41-.05-6.82-.05-10.23,0-.48,0-1,0-1.44A105.94,105.94,0,0,1,681.65,268.1Z"/><path class="cls-1" d="M654.36,356.74c2.4,5.86,2,15.29-3.18,18.95s-13.94,2.72-20,2.52c-19.69-.61-39.4-.43-59.12-1.13-21.35-.76-42.7-1.77-64.05-2.61-11.48-.45-23.46,0-35.25-.63,1.29-4.9,2.72-9.77,4.37-14.55a1.3,1.3,0,0,0,.36-.1,36,36,0,0,0,5-2.91c6.5-4.54,11.63-11.45,10-19.83-1.82-9.43-11.8-15.8-20.87-16.58-9.72-.81-19.7,4.73-22.64,14.3-1.82,5.91-.78,13.62,4,17.28a9.9,9.9,0,0,0,4,1.82c-2.23,5.79-4,11.76-5.66,17.82C435.74,367,426.6,355,430.08,337.87c3.67-18.05,18.65-30.18,36.38-33.31,16.37-2.9,33.28,1.31,49.14,5.1,17.43,4.17,35.08,7.2,52.51,11.32a367.84,367.84,0,0,1,55,18.14,179.68,179.68,0,0,1,19.4,8.92c2.9,1.62,7.48,4,10.63,7a12.38,12.38,0,0,1,1.19,1.71S654.34,356.76,654.36,356.74Zm-16.09,16.45c7.37-4.18,8.37-16.15.73-20.62-6-3.47-15.16-1.27-17.58,5.55a1.44,1.44,0,0,0,0,.79,11.64,11.64,0,0,0-.58,3.36C620.64,370.89,630.44,377.66,638.27,373.19Z"/><path class="cls-1" d="M644.84,261v1.73c0,3.31,0,6.61-.05,9.92-.51,0-1,0-1.52,0A94.74,94.74,0,0,0,626.9,274q-1.41-3.45-2.85-6.89c-.56-1.37-1.14-2.74-1.72-4.12A107,107,0,0,1,643.27,261C643.8,261,644.31,261,644.84,261Z"/><path class="cls-1" d="M641.48,338.29c-1.52-.75-3-1.43-4.29-2q-7-3.25-14.11-6.25c-7.47-20.54-15.36-41-23.14-61.31-5.51-14.4-11.17-28.76-17.28-42.93-3.14-7.33-6.62-14.51-9.5-22-1.52-3.89-2.86-8.14-5-11.82,2.44-1.49,4.86-3,7.36-4.5s5.35-2.43,8-3.68c3.71,14.77,10,29,15.74,43.07q9.59,23.28,19.23,46.57Q628,296.51,636,320.1C638,325.73,639.49,332.11,641.48,338.29Z"/><path class="cls-1" d="M634.83,356.56c4.65,1.57,4.86,7.84.84,10.44-6.11,4-10.71-4.18-8.89-9A8.87,8.87,0,0,1,634.83,356.56Z"/><path class="cls-1" d="M624.45,83.66A12.33,12.33,0,0,1,636.4,95.21c-6,9.05-24.48,9.9-33.68,11-12.73,1.45-25.54,2.3-38.28,3.62a194.39,194.39,0,0,0-35.2,6.87,165.14,165.14,0,0,1-17.1,4.45,44.41,44.41,0,0,1-7.3.9,7.73,7.73,0,0,1-6.77-3.58c1-4.65,5-9.19,8-12,9-8.12,21.94-10.79,33.56-12.59C553,91.8,566.59,90.72,580,88.94c8.33-1.13,16.67-2.29,25-3.31C611.28,84.85,618.11,83.24,624.45,83.66Z"/><path class="cls-1" d="M634.93,103.72c-2.17,5-6.37,8.8-10.91,11.93-10.71,7.4-22.81,11.67-34.72,16.57a34.26,34.26,0,0,0-6.21,3.16,166.59,166.59,0,0,1-21.7,3.21c-6.27.48-13.83,1.29-21.17,1.26a81.59,81.59,0,0,1-7.92-2.27c-2.11-.61-4.16-1.41-5.93-2-4.43-1.36-8.89-2.29-13.39-3.38-4.65-1.11-10.89-2.52-13.72-6.79a9.71,9.71,0,0,0,1.89.58c6.19,1.26,13.39-.76,19.31-2.28,10.13-2.58,19.93-6.07,30.27-7.78,20.34-3.36,41.12-3,61.49-6.09C618.67,108.93,628.29,107.62,634.93,103.72Z"/><path class="cls-1" d="M593.5,273.81c1.34,3.51,2.65,7,4,10.54a96.07,96.07,0,0,0-31.27,27.44q-6.11-1.41-12.26-2.73a108.1,108.1,0,0,1,39.41-35.72C593.39,273.51,593.45,273.66,593.5,273.81Z"/><path class="cls-1" d="M582.56,165.55a36.44,36.44,0,0,0-.07,7.81c-.16,1.41-.34,2.78-.43,4.09a40.76,40.76,0,0,0-9.56,4.88,27.77,27.77,0,0,0-7,6.34,3.72,3.72,0,0,0-1.8-.45c-6.26-4.78-14.15-7.44-21.92-6.6-.06-.17-.15-.31-.21-.48l-.9-.07a28.44,28.44,0,0,0,0-8.64c-.1-2.89-.25-5.84.81-8.52,0-.16.15-.3.21-.46a1.29,1.29,0,0,0,.17-.15,9.67,9.67,0,0,1,2.48-2.17,10.94,10.94,0,0,1,2.35-.6l.91.29a1.4,1.4,0,0,1,1.24.29c7.47,1.56,19.17.24,26.45-1.39a2.6,2.6,0,0,1,.25-.1c2.4.37,4.7,1,5.78,2.72A9.46,9.46,0,0,1,582.56,165.55Z"/><path class="cls-1" d="M577.83,141.42a19.44,19.44,0,0,0-1.31,4.62c.12,2.66.17,5.34.23,8-5.79,1.1-11.72.65-17.61.95-3.46.18-9.65,1.72-13.69.59q-.21-5.13-.11-10.28c0-.16-.05-.33-.07-.48,5.63.09,11.26-.41,16.12-.77A130,130,0,0,0,577.83,141.42Z"/><path class="cls-1" d="M541.58,184.53c6.26,1.64,12.93,4.22,18,8.06-4.74,5.68-8.43,12.25-12.3,18.51-6.32,10.16-13.62,19.66-20,29.79-11.36,18-20.9,37-31,55.64a109.19,109.19,0,0,0-20.77-1.7c9.62-16.75,21.14-32.51,31.2-49,10.91-17.83,21.95-35.78,31.79-54.25C539.5,189.25,540.54,186.9,541.58,184.53Z"/><path class="cls-1" d="M537.1,165a.43.43,0,0,1,0,.14,23.37,23.37,0,0,0-.81,5.46,57.35,57.35,0,0,1-1.44,10.14c-28.91-1.62-58.45.1-87.32.12-29.92,0-60.54-1.59-90.43.89-1.19-2.86-5.84-13.4-9.63-18.19,31.89,1.86,63.92,1.36,95.84,1.41C474.54,165,505.83,165.32,537.1,165Z"/><path class="cls-1" d="M512.52,400.7c-.13.58-.32,1.14-.5,1.71-8.77-2.44-20.31-.17-29.18-.15-10.41,0-21.2-.85-31.62.1,1.63-8.51,4.71-16.79,6.78-25.19,2.72-11,4.95-22.38,9.8-32.68l.76-.64,1.41-.75a2.86,2.86,0,0,0,1.09-.24c7.27-3.08,1.75,7.15.55,10.12a166.85,166.85,0,0,0-6.44,20.15c-1.54,5.81-7,17.31-1,22.08s17,2,23.83,2.05c5.9,0,19.12-2,23.54,2.66A4.16,4.16,0,0,0,512.52,400.7Z"/><path class="cls-1" d="M510.73,406.18c-.56,1.49-1.12,3-1.57,4.55-19.61-.56-39.37-1.31-59-.55a52.35,52.35,0,0,1,.61-5.33c9.52,1,19.33.73,28.87.77,5.82,0,11.66.13,17.51.06C501.71,405.63,506.33,405,510.73,406.18Z"/><path class="cls-1" d="M474.83,325.69c7.32,1.89,14.7,8.28,12.71,16.57-1.1,4.65-4.35,7.43-7.72,10.2a26.11,26.11,0,0,0,2.36-8.4c.35-5.42-3.31-8.55-7.5-8.7-4.25-.61-9.53.51-11,4.19a3.07,3.07,0,0,0-.38.51,84.61,84.61,0,0,0-5.48,11.15c-.21-.18-.41-.38-.61-.58C445.75,339.25,460,321.85,474.83,325.69Z"/><path class="cls-1" d="M456.48,297.87a56.47,56.47,0,0,0-10.89,4.88c-15.61-15.14-31.53-29.95-47.32-44.88C386.65,246.88,375,236,364,224.35c-8.8-9.26-17.71-19.1-28.31-26.43,5-2,10.52-3.62,15.35-6.1,9,11,19,21,28.72,31.28,11,11.66,21.88,23.4,33.23,34.7C427,271.72,441.4,285.18,456.48,297.87Z"/><path class="cls-1" d="M356,43.08c4.46,7.91-13.1,13.27-18.43,14.74-16.21,4.47-34.86,5.1-49,13.95a22.05,22.05,0,0,0-11.81,10c-9.88.73-23.17-2.25-24.91-12.27A29.79,29.79,0,0,1,256.17,62c7.46-9.57,19.33-13.17,30.4-16.7,12.76-4,25.7-8.51,39.16-9.35C334,35.38,351.17,34.42,356,43.08Z"/><path class="cls-1" d="M350.47,182.65a3.07,3.07,0,0,0-1.26,1.29c-2.11,1.55-4.22,3.13-6.27,4.76a72.18,72.18,0,0,0-9.7,7.34l-.08-.07a14.45,14.45,0,0,0-2.48-1.26,3.35,3.35,0,0,0-.66-.26c-3.66-1.29-7.9-1.43-11.61-2.17-3.49-.68-7.15-2.86-10.74-3.84.25-2.33.47-4.65.65-7,.35-4.32.54-9.85,3.36-13.37a1.8,1.8,0,0,1,.23-.43l.28-.34,0-.05c.43-.54.88-1.07,1.33-1.6a19.56,19.56,0,0,1,2.36-3.29c4.44,2.56,10,2.51,15,2.43,3.94-.07,8.11.16,12-.58.31,2.37,1.82,5.33,2.38,6.64C347,174.74,348.3,179,350.47,182.65Z"/><path class="cls-1" d="M305.21,275.28a106.83,106.83,0,1,1-28.79-11.44c-1.35,3.68-2.74,7.35-4.13,11A95.77,95.77,0,1,0,301,286.37Q303.2,280.85,305.21,275.28Z"/><path class="cls-1" d="M336.07,121.67c4.22,5.28,7.4,14.12,4.14,20.64-.48,1-.89,1.87-1.27,2.78-7.87-.44-16.64-.94-24.58.62-3.77-1-3-2.82-3.26-7.3-.2-3.73-.88-7.42-3.23-10.41-5.38-6.92-15.44-7.45-23.24-9.44-17.57-4.43-35.18-22-34.62-40.12a15.83,15.83,0,0,0,7.05,6.64c4.3,2.2,11.6,4.49,17.79,4.22a14.12,14.12,0,0,0,.62,4c3.34,10.85,16.88,12,26.34,12.89C314.28,107.37,327.93,111.48,336.07,121.67Z"/><path class="cls-1" d="M336.8,152.51a35.06,35.06,0,0,0-.25,6,152.57,152.57,0,0,1-18.32.55,3.56,3.56,0,0,0-.43-1.51c-.11-1.16-.23-2.3-.35-3.46a3.91,3.91,0,0,0,.95-.91C324.34,153.93,330.91,152.91,336.8,152.51Z"/><path class="cls-1" d="M307.11,192.91c5,4.15,11.55,5.58,18,6.93-12.79,26.7-21.2,55.1-32,82.64-5.74,14.73-12.61,28.86-17.64,43.88-3.08,9.15-6,18.35-8.89,27.55A20.69,20.69,0,0,0,255,347.82c5.45-15.18,9.92-30.72,15.49-45.88,6.44-17.49,12.8-35,19.33-52.46,6-16.07,12.17-32.47,15.94-49.24C306.35,197.81,306.76,195.36,307.11,192.91Z"/><path class="cls-1" d="M251.73,352.51a15.64,15.64,0,1,1-15.64,15.64A15.66,15.66,0,0,1,251.73,352.51Zm9.57,16c.06-5.55-4.14-10.15-9.83-9.79a8.82,8.82,0,0,0-7.14,4.31,6.66,6.66,0,0,0-2.56,7.53,12.69,12.69,0,0,0,10.36,8.8C258.3,379.86,261.23,373.84,261.3,368.48Z"/><path class="cls-1" d="M252.77,363.46c4.34.76,4.36,7.18,1.82,9.88-2,2.17-5.74-.56-7.34-2.4a9.76,9.76,0,0,1-1.16-1.6C246.6,365.86,248.55,362.72,252.77,363.46Z"/><path d="M693.27,262.27c11.07-27.24,22.18-55.1,35.2-81.44a4.06,4.06,0,0,0,.27-.81c5.24-.27,11-.37,15.59-3,7.3-4.11,6.67-10.38,1.35-13.72,3.23-11.42-6.53-21-18.48-16.83-8,2.81-12.28,7.61-21.22,8-10.28.39-20.57-.66-30.84,0-8.5.55-17,1.94-25.48,1.82-4.72-.06-9.55-.45-13.82-2.56-3.1-1.54-5.58-4.14-8.92-5.23-6.77-2.22-15.84.89-15.93,6.68-8.82.38-17.62,1.06-26.44,1.57,1.19-5,1.5-10.89,5.44-13.75,4.93-3.57,12.46-4.6,18.06-7.21,11.25-5.3,24.38-11,32.17-21.17,6.23-8.11,8.73-19.67,3.93-29.08-5.53-10.83-15.88-12.68-27-11.5-16.4,1.75-32.72,4.23-49.07,6.3-12.93,1.64-26,2.43-38.78,5.11-17,3.61-46.74,17.52-40.44,40.14,3.3,11.83,16.36,14.53,26.72,16.78,6.68,1.44,14.83,5.08,22.14,4.57a29.61,29.61,0,0,0-.21,8.19c-31.42-.38-62.86,0-94.26,0-33,.07-66.18-.5-99.17,1.59a12.53,12.53,0,0,1,.68-6.08c.94-2,3.21-3.42,4.3-5.37,2.43-4.41,2.45-10.28,1.59-15.12-1.85-10.41-9.1-18.7-17.77-24.29a63.56,63.56,0,0,0-28.41-9.42c-5.34-.55-11.48-.43-16.4-2.81-4.68-2.27-5-6.08-3.24-9.54C303,67.75,332.66,73.51,353.7,62.42c8.36-4.4,16.75-12.72,11.88-22.82-5-10.36-18.05-12.93-28.4-13.59-15.29-1-30.22,2.72-44.68,7.28-13,4.12-27,7.68-37.66,16.67-21.91,18.47-14.71,50.73,5.6,67.21a58.61,58.61,0,0,0,19.25,10.56c5.64,1.77,14.73,1.47,19.31,5.48,4.09,3.57,1.42,9.95,3.21,14.61a10,10,0,0,0,7.05,6.23,34.2,34.2,0,0,0-.23,3.51,11.58,11.58,0,0,0,.23,3.07c-7.53,2.9-8.87,13.38-9.76,20.81-2.2,18.63-7.29,36.05-13.13,53.84-2.12,6.44-4.33,12.81-6.59,19.18a117.19,117.19,0,1,0,28.79,11.32c7.28-21.17,13.68-42.65,22.21-63.37,10.44,8.65,19.66,18.27,28.89,28.23,10.91,11.79,22.5,22.89,34,34.06q22.24,21.6,44.29,43.37a51.1,51.1,0,0,0-16.42,25c-4.55,15.76-.89,33.24,13.56,42.49a45.63,45.63,0,0,0,13.35,5.64c-3.16,10.05-6.93,19.94-7.38,30.54a3.87,3.87,0,0,0,.12,1.16c-2,7.81,17.41,6.73,28.66,5.61,14.48-.05,29-.62,43.43-1a3.13,3.13,0,0,0,2.8-1.65,4,4,0,0,0,1-1.29,27.18,27.18,0,0,0,2.53-17.88,3,3,0,0,0-1.64-2.13,3.55,3.55,0,0,0-.46-.58c-5.63-5.76-16.47-4.84-23.78-4.77-4.29,0-8.61,0-12.88.18-2.3.1-9.42,1.64-11.09-.1-.69-.71-.11-3.16.52-5.46,6.75.18,13.45.05,19.69.2,12.5.32,25,.73,37.49,1.14A117.08,117.08,0,1,0,693.27,262.27ZM707,209.92q-10.71,23.27-20.7,46.87c-.3.71-.58,1.43-.88,2.12a116.34,116.34,0,0,0-34.19-7.58c-.08-22.79-.3-45.58-1.9-68.32q25.13-.12,50.21-1.19c7-.32,14-.75,20.92-1.24C714.8,189.48,711.32,200.55,707,209.92ZM612,387.46l6.1.07c6.56.05,13.28.58,19.92.39l-13.43,68.84a90.69,90.69,0,0,1-58-40.59Zm-48,24.46a89.94,89.94,0,0,1-9.54-25.87q8.82.3,17.61.55c10.28.28,20.56.55,30.82.73Zm79.11-24.31c1.06-.1,2.1-.23,3.14-.4A26.43,26.43,0,0,0,655.7,384l53.94,45.67a90.31,90.31,0,0,1-66.37,29,92.22,92.22,0,0,1-13.8-1.06Zm16.48-6.77a14.3,14.3,0,0,0,3.15-6,34.35,34.35,0,0,0,.18-13.82l65.14-24.61A90.47,90.47,0,0,1,712.93,426ZM662.17,356a19.35,19.35,0,0,0-5.08-7.63c4.95-14.15,12.25-27.26,18.1-41,2.87-6.72,5.58-13.49,8.26-20.29a91.09,91.09,0,0,1,42.74,44.77Zm-10.82-78a89.71,89.71,0,0,1,24.09,5.55c-2.81,7-5.64,14-8.64,20.89-4.93,11.43-10.74,22.44-15.45,33.94C651.61,318.21,651.46,298.07,651.35,277.94Zm0-5c0-3.41-.05-6.82-.05-10.23,0-.48,0-1,0-1.44a105.94,105.94,0,0,1,30.39,6.81c-1.46,3.59-2.9,7.2-4.35,10.79A94.75,94.75,0,0,0,651.33,273ZM622.12,155a8,8,0,0,1,1.07.18,4.93,4.93,0,0,1,1.39.45,11.42,11.42,0,0,1,1.21.61c.13,0,.18,0,.13,0,1.69.81,3.1,2.32,4.7,3.29a31,31,0,0,0,12,3.88c10.81,1.5,21.71-.6,32.5-1.28,10-.63,20.2.71,30.24.28a66.84,66.84,0,0,0,7.33-.71,25.71,25.71,0,0,0,9.62-3.79c2.15-1.26,4.6-2.91,7-3.64,5.1-1.57,11.26,1.27,8.54,7.43a4.5,4.5,0,0,0-.36,1.92c-9.52,1.89-19.37.61-29,1.06-1,.05-2,.1-3,.13-9.88.42-19.76.65-29.61,1.39-10.31.81-20.54,2.2-30.9,2-4.71-.12-26.88.14-29.52-6.84C616,157.75,617.9,154.58,622.12,155Zm-35.8,8.46c8.69,0,17.38-.66,26.07-.95a8.8,8.8,0,0,0,5.61,8.26c4.37,1.79,10.34,1.39,15,1.72a158.3,158.3,0,0,0,22.84.1c15-1,29.87-2.28,44.92-2.68,13.25-.36,27.72,1.77,40.64-1.65a1.47,1.47,0,0,1-.76,1.67c-5.44,2.78-11.73,2.93-18,2.25-4.54.36-9.07.7-13.62,1-13.34.77-26.7,1.22-40.07,1.54-26.65.59-53.29.57-79.92,1.45-.77-4.23-1.79-8.46-2.75-12.69ZM643.27,272.6A94.74,94.74,0,0,0,626.9,274q-1.41-3.45-2.85-6.89c-.56-1.37-1.14-2.74-1.72-4.12A107,107,0,0,1,643.27,261c.53,0,1,0,1.57,0v1.73c0,3.31,0,6.61-.05,9.92C644.28,272.63,643.78,272.6,643.27,272.6Zm1.49,5c-.1,14.5-.18,29-.15,43.53-1.23-3.51-2.47-7-3.69-10.52-3.79-10.71-7.85-21.31-12.08-31.83a88,88,0,0,1,14.43-1.23C643.76,277.56,644.26,277.6,644.76,277.61ZM643.27,251a116.75,116.75,0,0,0-24.83,2.67C608.59,230,598.9,206.35,590,182.3c2.28,0,4.68.35,7,.13,16.6.43,33.22.66,49.85.6-1.6,22.64-1.82,45.35-1.92,68C644.34,251.07,643.8,251,643.27,251Zm-44-24.16q9.59,23.28,19.23,46.57Q628,296.51,636,320.1c1.93,5.63,3.45,12,5.44,18.19-1.52-.75-3-1.43-4.29-2q-7-3.25-14.11-6.25c-7.47-20.54-15.36-41-23.14-61.31-5.51-14.4-11.17-28.76-17.28-42.93-3.14-7.33-6.62-14.51-9.5-22-1.52-3.89-2.86-8.14-5-11.82,2.44-1.49,4.86-3,7.36-4.5s5.35-2.43,8-3.68C587.23,198.57,593.5,212.83,599.26,226.87Zm-58.57-54.44c-.1-2.89-.25-5.84.81-8.52,0-.16.15-.3.21-.46a1.29,1.29,0,0,0,.17-.15,9.67,9.67,0,0,1,2.48-2.17,11.09,11.09,0,0,1,2.35-.6l.91.29a1.4,1.4,0,0,1,1.24.29c7.47,1.56,19.17.24,26.45-1.39a2.6,2.6,0,0,1,.25-.1c2.4.37,4.7,1,5.78,2.72a9.46,9.46,0,0,1,1.22,3.21,36.44,36.44,0,0,0-.07,7.81c-.16,1.41-.34,2.78-.43,4.09a40.76,40.76,0,0,0-9.56,4.88,27.77,27.77,0,0,0-7,6.34,3.72,3.72,0,0,0-1.8-.45c-6.26-4.78-14.15-7.44-21.92-6.6-.06-.17-.15-.31-.21-.48l-.9-.07A28.44,28.44,0,0,0,540.69,172.43Zm36.06-18.37c-5.79,1.1-11.72.65-17.61.95-3.46.18-9.65,1.72-13.69.59q-.21-5.13-.11-10.28c0-.16-.05-.33-.07-.47,5.63.08,11.26-.42,16.12-.78a130,130,0,0,0,16.44-2.65,19.44,19.44,0,0,0-1.31,4.62C576.64,148.7,576.69,151.38,576.75,154.06ZM563.43,198.4c4.25,9.11,7.45,19.14,11.34,28.25,5.28,12.33,10.19,24.83,15,37.36a117.89,117.89,0,0,0-46.21,42.83c-9-1.88-17.92-3.77-26.83-5.92-3.9-.95-7.86-1.89-11.85-2.73,9.39-16.82,18.21-33.95,28.29-50.38,5.89-9.59,12.49-18.69,18.4-28.24,3.48-5.64,6.62-11.39,10.08-16.95C562.24,201.22,562.83,199.81,563.43,198.4Zm29.91,74.94c0,.17.11.32.16.47,1.34,3.51,2.65,7,4,10.54a96.07,96.07,0,0,0-31.27,27.44q-6.11-1.41-12.26-2.73A108.1,108.1,0,0,1,593.34,273.34Zm5.89,15.71c4.57,12.25,9,24.53,13.55,36.81-9-3.49-18.25-6.61-27.55-9.24-4.57-1.3-9.17-2.46-13.79-3.59A91.25,91.25,0,0,1,599.23,289.05ZM498.07,118.43c1-4.65,5-9.19,8-12,9-8.12,21.94-10.79,33.56-12.59C553,91.8,566.59,90.72,580,88.94c8.33-1.13,16.67-2.29,25-3.31,6.26-.78,13.09-2.39,19.43-2A12.33,12.33,0,0,1,636.4,95.21c-6,9.05-24.48,9.9-33.68,11-12.73,1.45-25.54,2.3-38.28,3.62a194.39,194.39,0,0,0-35.2,6.87,165.14,165.14,0,0,1-17.1,4.45,44.41,44.41,0,0,1-7.3.9A7.73,7.73,0,0,1,498.07,118.43Zm34.23,19.15c-2.1-.61-4.16-1.41-5.93-2-4.43-1.36-8.89-2.29-13.39-3.38-4.65-1.11-10.89-2.52-13.72-6.79a9.71,9.71,0,0,0,1.89.58c6.19,1.26,13.39-.76,19.31-2.28,10.13-2.58,19.93-6.07,30.27-7.78,20.34-3.36,41.12-3,61.49-6.09,6.45-1,16.07-2.27,22.71-6.17-2.17,5-6.37,8.8-10.91,11.93-10.71,7.4-22.81,11.67-34.72,16.57a34.26,34.26,0,0,0-6.21,3.16,166.59,166.59,0,0,1-21.7,3.21c-6.27.48-13.83,1.29-21.17,1.26A81.59,81.59,0,0,1,532.3,137.58Zm6.2,54c1-2.37,2-4.72,3.08-7.09,6.26,1.64,12.93,4.22,18,8.06-4.74,5.68-8.43,12.25-12.3,18.51-6.32,10.16-13.62,19.66-20,29.79-11.36,18-20.9,37-31,55.64a109.19,109.19,0,0,0-20.77-1.7c9.62-16.75,21.14-32.51,31.2-49C517.62,228,528.66,210.09,538.5,191.62ZM465.93,295.11q-26-21.06-50-44.51c-20.24-19.73-40.86-40-59.15-61.63,30,2.53,60.69.89,90.71.93,27.64,0,55.89,1.62,83.62.31-11.06,16.8-21,34.38-31.62,51.44C488.47,259.42,475.68,276.57,465.93,295.11ZM443.27,164.92c31.27.05,62.56.4,93.83,0a.43.43,0,0,1,0,.14,23.37,23.37,0,0,0-.81,5.46,57.35,57.35,0,0,1-1.44,10.14c-28.91-1.62-58.45.1-87.32.12-29.92,0-60.54-1.59-90.43.89-1.19-2.86-5.84-13.4-9.63-18.19C379.32,165.37,411.35,164.87,443.27,164.92ZM256.17,62c7.46-9.57,19.33-13.17,30.4-16.7,12.76-4,25.7-8.51,39.16-9.35,8.26-.53,25.44-1.49,30.3,7.17,4.46,7.91-13.1,13.27-18.43,14.74-16.21,4.47-34.86,5.1-49,13.95a22.05,22.05,0,0,0-11.81,10c-9.88.73-23.17-2.25-24.91-12.27A29.79,29.79,0,0,1,256.17,62Zm51.7,66c-5.38-6.92-15.44-7.45-23.24-9.44-17.57-4.43-35.18-22-34.62-40.12a15.83,15.83,0,0,0,7.05,6.64c4.3,2.2,11.6,4.49,17.79,4.22a14.46,14.46,0,0,0,.61,4c3.35,10.85,16.89,12,26.35,12.89,12.47,1.17,26.12,5.28,34.26,15.47,4.22,5.28,7.4,14.12,4.14,20.64-.48,1-.89,1.87-1.27,2.78-7.87-.44-16.64-.94-24.58.62-3.77-1-3-2.82-3.26-7.3C310.9,134.68,310.22,131,307.87,128Zm28.68,30.53a152.57,152.57,0,0,1-18.32.55,3.56,3.56,0,0,0-.43-1.51c-.11-1.16-.23-2.3-.35-3.46a3.91,3.91,0,0,0,.95-.91c5.94.73,12.51-.3,18.4-.69A35.06,35.06,0,0,0,336.55,158.53Zm22.38,209.62a107.19,107.19,0,1,1-82.51-104.31c-1.35,3.68-2.74,7.35-4.13,11A95.77,95.77,0,1,0,301,286.37q2.16-5.52,4.17-11.09A107.29,107.29,0,0,1,358.93,368.15Zm-86.78-2.62c.6-1.72,1.2-3.46,1.76-5.18l65.56-14.78a90.61,90.61,0,0,1-30.37,92.62l-39.44-59.9a20.46,20.46,0,0,0,2.68-10.14A18.79,18.79,0,0,0,272.15,365.53Zm3.55-10.67c2.46-7.75,4.83-15.55,7.39-23.26,4.62-13.85,10.61-27,16.09-40.55a91,91,0,0,1,38.9,49.75Zm29.46,86.37A90.26,90.26,0,0,1,215.09,451l29.33-63.56a20.48,20.48,0,0,0,22.06-4.88Zm-73.85-70.47a20.64,20.64,0,0,0,8.7,14.32L210.6,448.81a90.74,90.74,0,0,1-49.19-74.11Zm-70.11-1c0-.53,0-1.05,0-1.58A90.67,90.67,0,0,1,213.7,286l27.06,64.76a20.65,20.65,0,0,0-9.49,15.07Zm90.53,14.06a15.64,15.64,0,1,1,15.64-15.64A15.66,15.66,0,0,1,251.73,383.79Zm-6.57-35.41L218.25,284a90,90,0,0,1,52.25-4.45c-1.64,4.27-3.29,8.52-5,12.78C258.15,310.85,252.31,329.83,245.16,348.38Zm48-65.9c-5.74,14.73-12.61,28.86-17.64,43.88-3.08,9.15-6,18.35-8.89,27.55A20.69,20.69,0,0,0,255,347.82c5.45-15.18,9.92-30.72,15.49-45.88,6.44-17.49,12.8-35,19.33-52.46,6-16.07,12.17-32.47,15.94-49.24.55-2.43,1-4.88,1.31-7.33,5,4.15,11.55,5.58,18,6.93C312.31,226.54,303.9,254.94,293.14,282.48Zm40-86.51a14.45,14.45,0,0,0-2.48-1.26,3.35,3.35,0,0,0-.66-.26c-3.66-1.29-7.9-1.43-11.61-2.17-3.49-.68-7.15-2.86-10.74-3.84.25-2.33.47-4.65.65-7,.35-4.32.54-9.85,3.36-13.37a2.07,2.07,0,0,1,.23-.44l.28-.33,0-.05c.43-.54.88-1.07,1.33-1.6a19.56,19.56,0,0,1,2.36-3.29c4.44,2.56,10,2.51,15,2.43,3.94-.07,8.11.16,12-.58.31,2.37,1.82,5.33,2.38,6.64,1.67,3.89,3,8.14,5.13,11.8a3.07,3.07,0,0,0-1.26,1.29c-2.11,1.55-4.22,3.13-6.27,4.76a72.18,72.18,0,0,0-9.7,7.34Zm65.11,61.9C386.65,246.88,375,236,364,224.35c-8.8-9.26-17.71-19.1-28.31-26.43,5-2,10.52-3.62,15.36-6.1,8.95,11,19,21,28.71,31.28,11,11.66,21.88,23.4,33.23,34.7,14,13.92,28.42,27.38,43.5,40.07a56.47,56.47,0,0,0-10.89,4.88C430,287.61,414.06,272.8,398.27,257.87ZM509.16,410.73c-19.61-.56-39.37-1.31-59-.55a52.35,52.35,0,0,1,.61-5.33c9.52,1,19.33.73,28.87.77,5.82,0,11.66.13,17.51.06,4.53-.05,9.15-.73,13.55.5C510.17,407.67,509.61,409.16,509.16,410.73Zm-44-37.6c-1.54,5.81-7,17.31-1,22.08s17,2,23.83,2.05c5.9,0,19.12-2,23.54,2.66a4.16,4.16,0,0,0,1,.78c-.13.58-.32,1.14-.5,1.7-8.77-2.43-20.31-.16-29.18-.14-10.41,0-21.2-.85-31.62.1,1.63-8.51,4.71-16.79,6.78-25.19,2.72-11,4.95-22.38,9.8-32.68l.76-.64,1.41-.75a2.86,2.86,0,0,0,1.09-.24c7.27-3.08,1.75,7.15.55,10.12A166.85,166.85,0,0,0,465.17,373.13Zm9.66-47.44c7.32,1.89,14.7,8.28,12.71,16.57-1.1,4.65-4.35,7.43-7.72,10.2a26.11,26.11,0,0,0,2.36-8.4c.35-5.42-3.31-8.55-7.5-8.7-4.25-.61-9.53.51-11,4.19a3.07,3.07,0,0,0-.38.51,84.61,84.61,0,0,0-5.48,11.15c-.21-.18-.41-.38-.61-.58C445.75,339.25,460,321.85,474.83,325.69ZM508,374.47c-11.48-.45-23.46,0-35.25-.63,1.29-4.9,2.72-9.77,4.37-14.55a1.3,1.3,0,0,0,.36-.1,36,36,0,0,0,5-2.91c6.5-4.54,11.63-11.45,10-19.83-1.82-9.43-11.8-15.8-20.87-16.58-9.72-.81-19.7,4.73-22.64,14.3-1.82,5.91-.78,13.62,4,17.28a9.9,9.9,0,0,0,4,1.82c-2.23,5.79-4,11.76-5.66,17.82C435.74,367,426.6,355,430.08,337.87c3.67-18.05,18.65-30.18,36.38-33.31,16.37-2.9,33.28,1.31,49.14,5.1,17.43,4.17,35.08,7.2,52.51,11.32a367.84,367.84,0,0,1,55,18.14,179.68,179.68,0,0,1,19.4,8.92c2.9,1.62,7.48,4,10.63,7a12.38,12.38,0,0,1,1.19,1.71s0,0,.05,0c2.4,5.86,2,15.29-3.18,18.95s-13.94,2.72-20,2.52c-19.69-.61-39.4-.43-59.12-1.13C550.73,376.32,529.38,375.31,508,374.47ZM643.27,475.33a107.3,107.3,0,0,1-105.73-89.84l11.85.4a95.54,95.54,0,1,0,135.9-103.53q2.13-5.43,4.29-10.87a107.18,107.18,0,0,1-46.31,203.84Z"/><path class="cls-1" d="M638.27,373.19c7.37-4.18,8.37-16.15.73-20.62-6-3.47-15.16-1.27-17.58,5.55a1.44,1.44,0,0,0,0,.79,11.64,11.64,0,0,0-.58,3.36C620.64,370.89,630.44,377.66,638.27,373.19ZM626.78,358a8.87,8.87,0,0,1,8.05-1.44c4.65,1.57,4.86,7.84.84,10.44C629.56,371,625,362.82,626.78,358Z"/><path class="cls-1" d="M251.47,358.69a8.82,8.82,0,0,0-7.14,4.31,6.66,6.66,0,0,0-2.56,7.53,12.69,12.69,0,0,0,10.36,8.8c6.17.53,9.1-5.49,9.17-10.85C261.36,362.93,257.16,358.33,251.47,358.69Zm3.12,14.65c-2,2.17-5.74-.56-7.34-2.4a9.76,9.76,0,0,1-1.16-1.6c.51-3.48,2.46-6.62,6.68-5.88S257.13,370.64,254.59,373.34Z"/></g></svg>