<svg id="Layer_164" data-name="Layer 164" xmlns="http://www.w3.org/2000/svg" viewBox="0 0 895 511.11"><defs><style>.cls-1,.cls-2{fill:#fff;}.cls-2{stroke:#000;stroke-miterlimit:10;stroke-width:3px;}</style></defs><g id="Bus"><path class="cls-1" d="M755.43,377.77c.41,7.76.73,15.54.76,23.33q-38.55-.15-77.09-.23a68.78,68.78,0,0,0-136.45-.21h-36.1c.83-33.76,0-67.66-.21-101.41,0-1.43,0-2.86,0-4.3H609.46c42.19,0,84.4.42,126.58-.3,3,2,6.91,3.21,10.19,4.27,4.31,1.4,4.73,3.55,6,9a60.38,60.38,0,0,1,1.15,6.63c-8.08,1-17-1.52-22.92,5.73s-5.05,18.85-4.05,27.64c.91,7.77,1,18.35,5.8,24.89,5.23,7.17,15.25,5.49,23,5.05A1,1,0,0,0,755.43,377.77Z"/><path class="cls-1" d="M755.13,372.18c-7.65-.23-17,2.2-19.91-7-1.88-6-2.4-13.06-3.09-19.31-.74-6.83-1.5-15.26,2.16-21.42,3.83-6.47,12.6-6.21,19.31-8.14,1.12,11.25-.1,23.09.36,34.19C754.28,357.75,754.72,365,755.13,372.18Z"/><path class="cls-1" d="M729.91,87.05c1.2,23,1.36,46.07,1.2,69.12-13.16-1.48-26.75-1-40-1.15q-21-.15-42-.17h-1.72c1-37.16.55-74.85-1.46-112q31.72,0,63.45-.1a4.69,4.69,0,0,0,2.19-.52C726.79,50.28,729.06,71.06,729.91,87.05Z"/><path class="cls-1" d="M731.08,159.09c0,5.21-.11,10.41-.17,15.62-51.75-3-104-1.28-155.8-1.28q-81.39,0-162.8.09c-29.71.06-59.5-.61-89.18.22a.45.45,0,0,0-.16,0,16.07,16.07,0,0,0-5.39.8c-13.15,2-22.28,23.89-26.3,33.54-9.83,23.62-15.16,48.79-24.8,72.43l-8.52-.09c3.09-10.21,4-21,6.53-31.35,2.84-11.61,5.61-23.24,8.07-34.95,2.17-10.31,3.39-20.87,6-31.08,1.46-5.63,3.16-12.08,7.51-16.21a33.19,33.19,0,0,1,6.76-4.64c2.24-.64,4.49-1.3,6.77-1.79,112.63.58,225.27.23,337.9.06,15.46,0,30.91,0,46.38-.15S715.56,160.86,731.08,159.09Z"/><path class="cls-1" d="M730.88,177.38c0,.87,0,1.73,0,2.59-.39,28.95-.44,58-2.44,86.83a71.15,71.15,0,0,0,0,14c-73.14-1.05-146.34-.19-219.48-.2h-2.72c-.22-23.3-.6-46.59-1.32-69.88a2.35,2.35,0,0,1-.12-.77V204.7a6.42,6.42,0,0,0-.15-.63,2.78,2.78,0,0,0-2.79-2.36v0c-18.29-.18-36.63.15-54.9.21-17.11,0-34.3.1-51.41,1v-.12l-1.21.22-.59.19a2.64,2.64,0,0,1-.76.13,2.48,2.48,0,0,0-.44,1.14,5.51,5.51,0,0,1-.11.61v0c0,.64,0,1.31,0,2h.08v.08l-.05,1.22c0,.3,0,.61,0,.92a3.88,3.88,0,0,1-.07.71c-.74,23.5-1.14,47-1.36,70.53q-52.2,0-104.41,0-7.81,0-15.65-.08c8.87-20.49,14.22-42.42,22.22-63.27,5.18-13.5,11.59-31.47,25.35-38.27.32-.07.63-.13,1-.18,1.71-.23,3.44-.2,5.13-.39,52.38,1.43,105,.29,157.39.28l162.8,0C673.55,178.66,702.25,179,730.88,177.38Z"/><path class="cls-1" d="M729.32,285.15a19.3,19.3,0,0,0,2.1,4.78c-74.59-1.21-149.28-.23-223.88-.23-.43,0-.85,0-1.27,0,0-1.42,0-2.87,0-4.31q50,0,100,0C647.26,285.33,688.31,285.74,729.32,285.15Z"/><path class="cls-1" d="M610.86,349.42a60.06,60.06,0,1,1-60.06,60.05A60.12,60.12,0,0,1,610.86,349.42ZM639.31,408a28.46,28.46,0,1,0-28.45,28.46A28.49,28.49,0,0,0,639.31,408Z"/><path class="cls-1" d="M627.09,42.86h16.68c-2,37.14-2.48,74.81-1.46,112q-7,0-14.08,0C628.55,117.58,629.6,80.06,627.09,42.86Z"/><path class="cls-1" d="M610.86,384A24.09,24.09,0,1,1,586.77,408,24.1,24.1,0,0,1,610.86,384Zm0,42.21A18.13,18.13,0,1,0,592.73,408,18.14,18.14,0,0,0,610.86,426.16Z"/><path class="cls-1" d="M606.44,42.86h17.49c-2.5,37.2-1.47,74.72-1.13,112q-29.58,0-59.17,0h-45.9c.92-37.19.38-74.71-1.3-111.9Z"/><circle class="cls-1" cx="610.86" cy="408.03" r="13.76" transform="translate(73.39 908.8) rotate(-76.72)"/><path class="cls-1" d="M492.42,42.88H514c-1.67,37.19-2.2,74.71-1.28,111.9H494C494.91,117.67,494.31,80,492.42,42.88Z"/><path class="cls-1" d="M446.93,208.34c18.2,0,36.45.38,54.68.2-1,30.23-1.37,60.45-1.53,90.7-.19,33.75-1,67.65-.19,101.41q-51.24,0-102.46,0c.83-33.77,0-67.67-.2-101.44-.16-30.66-.56-61.3-1.56-91.92C412.73,208.23,429.86,208.28,446.93,208.34Z"/><path class="cls-1" d="M426.66,42.86q31.82,0,63.63,0c-1.89,37.1-2.49,74.79-1.55,111.92q-47.33,0-94.66,0h-4.59c.88-17.45.09-35.17-.1-52.61-.22-19.81-.45-39.6-1.25-59.39Z"/><path class="cls-1" d="M391.07,285.4c0,1.41,0,2.84,0,4.27q-56.81,0-113.56.07c-41.37.07-82.79-.29-124.12,1.27a15.31,15.31,0,0,1,2.33-1.47c3.5-1.77,6.15-2.64,8.35-5.6,36.3,2.86,73.19,1.42,109.56,1.42l110.4,0Z"/><path class="cls-1" d="M391,295c0,1.43,0,2.84,0,4.27-.19,33.77-1,67.67-.19,101.44q-14.58,0-29.15,0a68.77,68.77,0,0,0-136.44.07c-6.77,0-13.54.07-20.31.16,7.66-17.15,14.33-34.78,22-51.9,4.18-9.26,8.08-18.64,12.3-27.87,3.8-8.35,7.84-16.78,9.89-25.76,43.46.11,86.92-.43,130.29-.44Z"/><path class="cls-1" d="M368.07,42.78l17.52,0c-.79,19.79-1,39.58-1.24,59.39-.19,17.44-1,35.16-.11,52.61-5,0-9.92,0-14.89,0,.22-19.35.06-38.73-.23-58.08C368.87,78.77,369.11,60.7,368.07,42.78Z"/><path class="cls-1" d="M365.68,42.76c-1.05,17.94-.8,36-1.06,54-.28,19.35-.44,38.73-.23,58.08q-30.34,0-60.71.08c-.53.1-1.08.19-1.61.27-5-20.06-15.46-39.26-23.76-58.1-4.49-10.19-8.55-20.55-13.09-30.73-3.54-7.92-8.35-16.32-11-24.8,27,1.39,54.1,1.07,81.12,1.17Q350.49,42.75,365.68,42.76Z"/><path class="cls-1" d="M293.41,349.42a60.06,60.06,0,1,1-60.06,60.05A60.13,60.13,0,0,1,293.41,349.42ZM321.86,408a28.46,28.46,0,1,0-28.45,28.46A28.49,28.49,0,0,0,321.86,408Z"/><path class="cls-1" d="M293.41,384A24.09,24.09,0,1,1,269.32,408,24.11,24.11,0,0,1,293.41,384Zm0,42.21A18.13,18.13,0,1,0,275.28,408,18.14,18.14,0,0,0,293.41,426.16Z"/><circle class="cls-1" cx="293.41" cy="408.03" r="13.76" transform="translate(-171.12 599.85) rotate(-76.72)"/><path class="cls-1" d="M298,155.78l-1.79.23a77.76,77.76,0,0,0-9.55,4.11c-8.23-18.71-17.53-36.94-26.59-55.26-8.72-17.62-16.84-35.7-26.21-53-.12-.22-.24-.42-.35-.64a44.53,44.53,0,0,1,13.32-10.1l5,.27c1.66,7.2,5.64,14.35,8.27,21,4.3,10.84,8.42,21.76,12.83,32.55Q285.34,125.36,298,155.78Z"/><path class="cls-1" d="M283.17,161.93c.05.08.1.19.15.27a20.14,20.14,0,0,0-6.25,7.28c-5.36,10.62-6.42,23-8.26,34.6-2.12,13.29-5.41,26.44-8.52,39.51-2.88,12.09-3.77,24.88-7.29,36.74-29.27-.33-58.69-.62-87.73,1.61,2.76-5.17,3-10.94,3.28-16.69.38-9,2-17.89,3.34-26.77q3.9-25.29,8.63-50.49a459,459,0,0,1,11.81-49.8c4.49-14.68,10.57-28.46,16.88-42.41S221.62,65,232,52.81c6.51,18.16,15.22,35.68,23.46,53.07C264.43,124.69,273.43,143.52,283.17,161.93Z"/><path class="cls-1" d="M245.63,295.39c-6.89,18.82-16.46,36.83-24.92,55-7.8,16.7-14.85,33.67-21.91,50.69-14.13.23-28.25.66-42.35,1.4-3.42-1.72-7.63-3.38-10.43-5.81-5.21-4.53-6.4-15-7-21.23a85,85,0,0,1-.37-8.87c9.59.65,22.47,3.77,27.83-6.38,3.91-7.38,4.56-18.36,5.23-26.62.51-6.45,1.28-17.11-5.36-21-6.3-3.7-15.93-.73-23.27.53a64.72,64.72,0,0,1,3.35-12.22,25.11,25.11,0,0,1,4.21-7.3C182.27,294.82,213.94,295.29,245.63,295.39Z"/><path class="cls-1" d="M159.94,316.45c7.82,1.09,6.6,11,6.15,17.08a150.93,150.93,0,0,1-2.64,18.76c-1.32,6.55-4.09,9.7-11.28,9.83-4.46.07-8.91-.76-13.36-1.13.44-8.31,1.56-16.63,2.09-24.9.4-6.39.73-13,1.63-19.51C148.32,316.58,154.22,315.66,159.94,316.45Z"/><path d="M760.62,312.92c-.77-7.13-2.17-17-9.16-20.57-3.6-1.82-9.44-3-12-6.1-3.93-4.74-2.52-13.79-2.13-19.45,2.17-30.77,2.19-61.7,2.62-92.55.47-31.27,2.17-63-.61-94.24-1.64-18.32-7.28-43.36-28.18-46.44a4.64,4.64,0,0,0-1.73-.33q-180.51-.89-361,0c-32.11.13-64.38-.43-96.47,1.36a2.41,2.41,0,0,0-1.33-.63c-22.44-3.82-36.49,29-43.85,45-13.26,28.82-24.62,57.32-31.35,88.47-3.94,18.27-7,36.74-10,55.19q-2.28,14.1-4.24,28.26c-.55,4-1.15,8.06-1.37,12.13-.25,4.93.37,10.53-2.33,14.93-2.24,3.67-7.89,4.46-11.17,7.43-3.92,3.52-6.44,8.24-8.27,13.1-4.35,11.59-5,24.5-5.8,36.73-1,16.73-4.19,33.67-.45,50.28,1.4,6.22,3.47,13.43,8.46,17.78a15.17,15.17,0,0,0,5.77,3.06,3.06,3.06,0,0,0,.15.54c2.41.66,4.82,1.44,7.22,2.17,23.75,1.34,47.53,1.66,71.33,1.75a68.77,68.77,0,0,0,137.52.07q12.24,0,24.45,0,77.75-.19,155.47-.14a68.78,68.78,0,0,0,137.53,0q39.15,0,78.27-.13a4.52,4.52,0,0,0,2.71-.83,4.12,4.12,0,0,0,4.46-4.28c-.38-16.92-2.24-33.8-3.22-50.71C761,340.86,762.12,326.74,760.62,312.92ZM754,350.51c.32,7.24.76,14.46,1.17,21.67-7.65-.23-17,2.2-19.91-7-1.88-6-2.4-13.06-3.09-19.31-.74-6.83-1.5-15.26,2.16-21.42,3.83-6.47,12.6-6.21,19.31-8.14C754.72,327.57,753.5,339.41,754,350.51ZM709.4,42.76a4.69,4.69,0,0,0,2.19-.52c15.2,8,17.47,28.82,18.32,44.81,1.2,23,1.36,46.07,1.2,69.12-13.16-1.48-26.75-1-40-1.15q-21-.15-42-.17h-1.72c1-37.16.55-74.85-1.46-112Q677.68,42.86,709.4,42.76Zm21.68,116.33c0,5.21-.11,10.41-.17,15.62-51.75-3-104-1.28-155.8-1.28q-81.39,0-162.8.09c-29.71.06-59.5-.61-89.18.22a.45.45,0,0,0-.16,0,16.07,16.07,0,0,0-5.39.8c-13.15,2-22.28,23.89-26.3,33.54-9.83,23.62-15.16,48.79-24.8,72.43l-8.52-.09c3.09-10.21,4-21,6.53-31.35,2.84-11.61,5.61-23.24,8.07-34.95,2.17-10.31,3.39-20.87,6-31.08,1.46-5.63,3.16-12.08,7.51-16.21a33.19,33.19,0,0,1,6.76-4.64c2.24-.64,4.49-1.3,6.77-1.79,112.63.58,225.27.23,337.9.06,15.46,0,30.91,0,46.38-.15S715.56,160.86,731.08,159.09ZM643.77,42.86c-2,37.14-2.48,74.81-1.46,112q-7,0-14.08,0c.32-37.25,1.37-74.77-1.14-112Zm-37.33,0h17.49c-2.5,37.2-1.47,74.72-1.13,112q-29.58,0-59.17,0h-45.9c.92-37.19.38-74.71-1.3-111.9Zm-92.44,0c-1.67,37.19-2.2,74.71-1.28,111.9H494c1-37.13.35-74.82-1.54-111.92Zm-87.34,0q31.82,0,63.63,0c-1.89,37.1-2.49,74.79-1.55,111.92q-47.33,0-94.66,0h-4.59c.88-17.45.09-35.17-.1-52.61-.22-19.81-.45-39.6-1.25-59.39Zm-41.07,0c-.79,19.79-1,39.58-1.24,59.39-.19,17.44-1,35.16-.11,52.61-5,0-9.92,0-14.89,0,.22-19.35.06-38.73-.23-58.08-.25-18,0-36-1.05-53.94Zm-50.28-.13q15.18.06,30.37.07c-1.05,17.94-.8,36-1.06,54-.28,19.35-.44,38.73-.23,58.08q-30.34,0-60.71.08c-.53.1-1.08.19-1.61.27-5-20.06-15.46-39.26-23.76-58.1-4.49-10.19-8.55-20.55-13.09-30.73-3.54-7.92-8.35-16.32-11-24.8C281.19,42.91,308.29,42.59,335.31,42.69Zm-88.53-1.57,5,.27c1.66,7.2,5.64,14.35,8.27,21,4.3,10.84,8.42,21.76,12.83,32.55q12.48,30.45,25.09,60.87l-1.79.23a77.76,77.76,0,0,0-9.55,4.11c-8.23-18.71-17.53-36.94-26.59-55.26-8.72-17.62-16.84-35.7-26.21-53-.12-.22-.24-.42-.35-.64A44.53,44.53,0,0,1,246.78,41.12ZM168.55,265.25c.38-9,2-17.89,3.34-26.77q3.9-25.29,8.63-50.49a459,459,0,0,1,11.81-49.8c4.49-14.68,10.57-28.46,16.88-42.41S221.62,65,232,52.81c6.51,18.16,15.22,35.68,23.46,53.07,8.93,18.81,17.93,37.64,27.67,56.05.05.08.1.19.15.27a20.14,20.14,0,0,0-6.25,7.28c-5.36,10.62-6.42,23-8.26,34.6-2.12,13.29-5.41,26.44-8.52,39.51-2.88,12.09-3.77,24.88-7.29,36.74-29.27-.33-58.69-.62-87.73,1.61C168,276.77,168.32,271,168.55,265.25ZM140.9,336.09c.4-6.39.73-13,1.63-19.51,5.79,0,11.69-.92,17.41-.13,7.82,1.09,6.6,11,6.15,17.08a150.93,150.93,0,0,1-2.64,18.76c-1.32,6.55-4.09,9.7-11.28,9.83-4.46.07-8.91-.76-13.36-1.13C139.25,352.68,140.37,344.36,140.9,336.09Zm15.55,66.35c-3.42-1.72-7.63-3.38-10.43-5.81-5.21-4.53-6.4-15-7-21.23a85,85,0,0,1-.37-8.87c9.59.65,22.47,3.77,27.83-6.38,3.91-7.38,4.56-18.36,5.23-26.62.51-6.45,1.28-17.11-5.36-21-6.3-3.7-15.93-.73-23.27.53a64.72,64.72,0,0,1,3.35-12.22,25.11,25.11,0,0,1,4.21-7.3c31.63,1.28,63.3,1.75,95,1.85-6.89,18.82-16.46,36.83-24.92,55-7.8,16.7-14.85,33.67-21.91,50.69C184.67,401.27,170.55,401.7,156.45,402.44Zm137,67.09a60.06,60.06,0,1,1,60.06-60.06A60.12,60.12,0,0,1,293.41,469.53ZM391,299.24c-.19,33.77-1,67.67-.19,101.44q-14.58,0-29.15,0a68.77,68.77,0,0,0-136.44.07c-6.77,0-13.54.07-20.31.16,7.66-17.15,14.33-34.78,22-51.9,4.18-9.26,8.08-18.64,12.3-27.87,3.8-8.35,7.84-16.78,9.89-25.76,43.46.11,86.92-.43,130.29-.44H391C391,296.4,391,297.81,391,299.24Zm.08-9.57q-56.81,0-113.56.07c-41.37.07-82.79-.29-124.12,1.27a15.31,15.31,0,0,1,2.33-1.47c3.5-1.77,6.15-2.64,8.35-5.6,36.3,2.86,73.19,1.42,109.57,1.42l110.39,0h7.07C391.05,286.81,391,288.24,391,289.67Zm109,9.57c-.19,33.75-1,67.65-.19,101.41q-51.24,0-102.46,0c.83-33.77,0-67.67-.2-101.44-.16-30.66-.56-61.3-1.56-91.92,17.06.91,34.19,1,51.26,1,18.2,0,36.45.38,54.68.2C500.63,238.77,500.24,269,500.08,299.24Zm4.81-88.52a2.35,2.35,0,0,1-.12-.77V204.7a6.42,6.42,0,0,0-.15-.63,2.78,2.78,0,0,0-2.79-2.36v0c-18.29-.18-36.63.15-54.9.21-17.11,0-34.3.1-51.41,1v-.12l-1.21.22-.59.19a2.64,2.64,0,0,1-.76.13,2.48,2.48,0,0,0-.44,1.14,5.51,5.51,0,0,1-.11.61v0c0,.64,0,1.31,0,2h.08v.08l-.05,1.22c0,.3,0,.61,0,.92a3.88,3.88,0,0,1-.07.71c-.74,23.5-1.14,47-1.36,70.53q-52.2,0-104.41,0-7.81,0-15.65-.08c8.87-20.49,14.22-42.42,22.22-63.27,5.18-13.5,11.59-31.47,25.35-38.27.32-.07.63-.13,1-.18,1.71-.23,3.44-.2,5.13-.39,52.38,1.43,105,.29,157.39.28l162.8,0c28.67,0,57.37.29,86-1.28,0,.87,0,1.73,0,2.59-.39,28.95-.43,58-2.44,86.83a71.15,71.15,0,0,0,0,14c-73.14-1.05-146.34-.19-219.48-.2h-2.72C506,257.3,505.61,234,504.89,210.72Zm1.35,74.65q50,0,100,0c41,0,82,.4,123.06-.19a19.3,19.3,0,0,0,2.1,4.78c-74.59-1.21-149.28-.23-223.88-.23-.43,0-.85,0-1.27,0C506.27,288.26,506.25,286.81,506.24,285.37ZM610.86,469.53a60.06,60.06,0,1,1,60-60.06A60.12,60.12,0,0,1,610.86,469.53Zm68.24-68.66a68.78,68.78,0,0,0-136.45-.21h-36.1c.83-33.76,0-67.66-.21-101.41,0-1.43,0-2.86,0-4.3l103.15,0c42.19,0,84.4.43,126.58-.29,3,2,6.91,3.21,10.19,4.27,4.31,1.4,4.73,3.55,6,9a60.38,60.38,0,0,1,1.15,6.63c-8.08,1-17-1.52-22.92,5.73s-5.05,18.85-4.05,27.64c.91,7.77,1,18.35,5.8,24.89,5.23,7.17,15.25,5.49,23,5.05a1,1,0,0,0,.24,0c.41,7.76.73,15.54.76,23.33Q717.64,401,679.1,400.87Z"/><path class="cls-2" d="M610.86,379.58A28.46,28.46,0,1,0,639.31,408,28.49,28.49,0,0,0,610.86,379.58Zm0,52.54A24.09,24.09,0,1,1,634.94,408,24.12,24.12,0,0,1,610.86,432.12Z"/><path class="cls-2" d="M610.86,389.9A18.13,18.13,0,1,0,629,408,18.14,18.14,0,0,0,610.86,389.9Zm0,31.89A13.76,13.76,0,1,1,624.62,408,13.77,13.77,0,0,1,610.86,421.79Z"/><path class="cls-2" d="M293.41,379.58A28.46,28.46,0,1,0,321.86,408,28.5,28.5,0,0,0,293.41,379.58Zm0,52.54A24.09,24.09,0,1,1,317.5,408,24.12,24.12,0,0,1,293.41,432.12Z"/><path class="cls-2" d="M293.41,389.9A18.13,18.13,0,1,0,311.54,408,18.15,18.15,0,0,0,293.41,389.9Zm0,31.89A13.76,13.76,0,1,1,307.17,408,13.77,13.77,0,0,1,293.41,421.79Z"/></g></svg>