<?xml version="1.0" encoding="UTF-8" standalone="no"?>
<!-- Created with Inkscape (http://www.inkscape.org/) -->

<svg
   width="42.744045mm"
   height="42.62706mm"
   viewBox="0 0 42.744045 42.62706"
   version="1.1"
   id="svg4246"
   inkscape:version="1.1.1 (c3084ef, 2021-09-22)"
   sodipodi:docname="cat_2.svg"
   xmlns:inkscape="http://www.inkscape.org/namespaces/inkscape"
   xmlns:sodipodi="http://sodipodi.sourceforge.net/DTD/sodipodi-0.dtd"
   xmlns="http://www.w3.org/2000/svg"
   xmlns:svg="http://www.w3.org/2000/svg">
  <sodipodi:namedview
     id="namedview4248"
     pagecolor="#ffffff"
     bordercolor="#666666"
     borderopacity="1.0"
     inkscape:pageshadow="2"
     inkscape:pageopacity="0.0"
     inkscape:pagecheckerboard="0"
     inkscape:document-units="mm"
     showgrid="false"
     inkscape:zoom="0.52382155"
     inkscape:cx="-344.583"
     inkscape:cy="83.998072"
     inkscape:window-width="1312"
     inkscape:window-height="810"
     inkscape:window-x="0"
     inkscape:window-y="25"
     inkscape:window-maximized="0"
     inkscape:current-layer="layer1" />
  <defs
     id="defs4243" />
  <g
     inkscape:label="Layer 1"
     inkscape:groupmode="layer"
     id="layer1"
     transform="translate(-195.82185,-126.17626)">
    <g
       id="g3551"
       transform="matrix(0.35277777,0,0,-0.35277777,213.45029,166.75612)"
       style="display:inline">
      <path
         d="m 0,0 c -1.811,-1.894 -3.771,-3.582 -6.243,-4.585 -3.57,-1.448 -7.2,-1.709 -10.782,-0.216 -2.416,1.007 -4.629,1.153 -7.125,0.114 -7.42,-3.089 -15.484,0.646 -19.356,7.81 -3.083,5.704 -4.652,11.825 -5.447,18.197 -0.268,2.15 -0.72,4.282 -0.905,6.438 -0.618,7.195 1.242,13.459 7.35,17.866 5.094,3.676 11.892,3.709 17.154,0.27 0.882,-0.577 1.81,-1.025 2.822,-1.306 -0.094,-2.097 -0.189,-4.195 -0.283,-6.292 -0.985,0.211 -1.892,0.567 -2.694,1.209 -1.099,0.881 -2.358,0.807 -3.126,-0.12 -0.8,-0.965 -0.594,-2.321 0.498,-3.21 1.025,-0.834 2.229,-1.371 3.466,-1.738 3.947,-1.172 7.708,-0.734 11.15,1.623 1.239,0.85 1.5,2.241 0.704,3.271 -0.766,0.992 -2.039,1.063 -3.217,0.135 -0.739,-0.582 -1.537,-0.959 -2.49,-0.969 0.175,2.097 -0.034,4.213 0.321,6.3 0.023,0.098 0.045,0.196 0.068,0.294 l -0.015,-0.026 c 0.68,-0.172 1.164,0.274 1.635,0.6 2.501,1.73 5.33,2.465 8.292,2.829 5.421,-0.083 9.756,-2.328 13.099,-6.55 C 6.127,40.092 7.174,38.143 7.731,35.96 8.459,33.063 8.721,30.16 8.3,27.163 7.992,24.962 7.418,22.786 7.46,20.539 6.879,18.779 6.826,16.92 6.441,15.123 5.83,12.479 5.055,9.885 4.062,7.357 2.9,4.799 1.672,2.277 0,0"
         style="fill:#ea423f;fill-opacity:1;fill-rule:nonzero;stroke:none"
         id="path3553" />
    </g>
    <g
       id="g3555"
       transform="matrix(0.35277777,0,0,-0.35277777,222.34675,162.76458)"
       style="display:inline">
      <path
         d="M 0,0 C -0.126,0.994 -0.477,2.145 -1.171,3.161 -1.707,3.945 -2.385,4.02 -2.951,3.218 -3.684,2.179 -4.123,0.999 -4.163,-0.282 -4.204,-1.556 -3.327,-2.464 -2.121,-2.484 -0.863,-2.506 0.026,-1.561 0,0 m 16.717,6.253 c -0.125,0.994 -0.475,2.145 -1.168,3.161 -0.534,0.783 -1.211,0.869 -1.78,0.065 C 13.034,8.442 12.596,7.261 12.554,5.981 12.511,4.705 13.385,3.797 14.591,3.774 15.85,3.749 16.741,4.693 16.717,6.253 M 6.272,12.432 c -0.12,1.103 -0.492,2.293 -1.24,3.327 -0.526,0.728 -1.185,0.72 -1.701,-0.007 -0.736,-1.038 -1.175,-2.216 -1.225,-3.495 -0.051,-1.28 0.813,-2.192 2.018,-2.226 1.26,-0.035 2.162,0.903 2.148,2.401 m -12.537,0.045 c -0.125,1.035 -0.484,2.23 -1.227,3.268 -0.517,0.721 -1.178,0.755 -1.701,0.021 -0.765,-1.073 -1.225,-2.289 -1.238,-3.619 -0.012,-1.26 0.918,-2.143 2.128,-2.116 1.205,0.028 2.043,0.939 2.038,2.446 m 33.43,4.216 c -0.129,0.993 -0.478,2.146 -1.174,3.159 -0.54,0.786 -1.218,0.852 -1.781,0.049 -0.729,-1.04 -1.17,-2.22 -1.208,-3.501 -0.039,-1.273 0.841,-2.179 2.047,-2.197 1.258,-0.018 2.144,0.928 2.116,2.49 M -17.759,9.225 c -0.041,2.247 0.533,4.422 0.841,6.623 0.42,2.998 0.159,5.9 -0.569,8.797 4.967,0.008 9.934,0.017 14.901,0.025 1.729,-0.001 3.458,-0.003 5.187,-0.004 6.193,0 12.387,0.001 18.581,0.001 l 4.93,-0.005 c 2.446,-10e-4 4.893,-10e-4 7.339,-10e-4 1.355,-0.024 2.71,-0.048 4.064,-0.072 -0.201,-2.211 -0.62,-4.38 -1.339,-6.483 C 33.375,9.914 28.183,3.527 21.114,-1.336 12.342,-7.372 2.659,-9.818 -7.965,-8.279 c -4.656,0.675 -8.996,2.268 -13.191,4.322 0.993,2.527 1.768,5.121 2.379,7.765 1.573,0.243 2.282,1.139 2.031,2.652 -0.162,0.978 -0.486,1.912 -1.013,2.765"
         style="fill:#d03330;fill-opacity:1;fill-rule:nonzero;stroke:none"
         id="path3557" />
    </g>
    <g
       id="g3559"
       transform="matrix(0.35277777,0,0,-0.35277777,214.88327,164.16066)"
       style="display:inline">
      <path
         d="m 0,0 c 4.195,-2.054 8.535,-3.647 13.191,-4.322 10.624,-1.539 20.307,0.908 29.08,6.943 7.068,4.863 12.26,11.251 15.061,19.443 0.719,2.103 1.138,4.271 1.339,6.482 2.481,0.014 4.962,-0.016 7.44,0.065 0.936,0.03 1.055,-0.341 1.014,-1.131 C 66.829,21.773 65.189,16.449 62.258,11.581 54.315,-1.609 42.627,-9.527 27.532,-12.338 16.456,-14.401 5.916,-12.521 -4.062,-7.357 -2.39,-5.08 -1.162,-2.558 0,0"
         style="fill:#36a772;fill-opacity:1;fill-rule:nonzero;stroke:none"
         id="path3561" />
    </g>
    <g
       id="g3563"
       transform="matrix(0.35277777,0,0,-0.35277777,231.55848,154.06445)"
       style="display:inline">
      <path
         d="m 0,0 c -1.643,0.002 -3.287,0.004 -4.93,0.005 0.532,0.568 1.017,1.193 1.609,1.69 0.747,0.627 0.732,1.065 0.014,1.75 -3.514,3.351 -6.977,6.755 -10.461,10.137 -0.092,0.089 -0.215,0.145 -0.323,0.216 0,0.167 0,0.334 0,0.5 3.355,3.222 6.708,6.446 10.066,9.665 0.465,0.446 0.95,0.871 1.426,1.305 0.497,10e-4 0.735,-0.402 1.065,-0.67 2.659,-2.159 4.899,-4.751 7.373,-7.1 0.364,-0.346 0.635,-0.853 1.251,-0.831 0,0 -0.016,0.012 -0.016,0.012 C 7.14,16.588 7.206,16.496 7.272,16.404 7.277,14.835 7.281,13.265 7.286,11.695 4.5,9.552 2.199,6.9 -0.306,4.464 -2.319,2.507 -2.299,2.488 -0.397,0.506 -0.249,0.352 -0.131,0.169 0,0"
         style="fill:#f6af30;fill-opacity:1;fill-rule:nonzero;stroke:none"
         id="path3565" />
    </g>
    <g
       id="g3567"
       transform="matrix(0.35277777,0,0,-0.35277777,219.38525,132.08226)"
       style="display:inline">
      <path
         d="m 0,0 c 0.227,4.336 1.058,8.505 3.392,12.26 1.047,1.684 2.404,3.052 4.067,4.145 0.673,0.443 1.185,0.45 1.87,0.012 3.467,-2.219 5.234,-5.578 6.363,-9.356 0.685,-2.292 1.03,-4.65 1.085,-7.045 -2.91,-2.052 -5.355,-4.535 -7.2,-7.602 C 9.184,-8.24 9.188,-9.256 8.14,-9.411 6.306,-5.516 3.565,-2.403 0,0"
         style="fill:#36a872;fill-opacity:1;fill-rule:nonzero;stroke:none"
         id="path3569" />
    </g>
    <g
       id="g3571"
       transform="matrix(0.35277777,0,0,-0.35277777,219.38525,132.08226)"
       style="display:inline">
      <path
         d="m 0,0 c 3.565,-2.403 6.306,-5.516 8.14,-9.411 0.82,-1.56 1.516,-3.166 1.827,-4.914 l -0.78,-0.09 c -0.524,-0.001 -1.048,-0.001 -1.572,-0.002 -0.951,0.075 -1.892,0.027 -2.844,-0.077 -2.932,-0.319 -5.741,-1.124 -8.535,-2.01 -0.668,0.081 -0.663,0.576 -0.629,1.059 0.051,0.739 -0.069,1.45 -0.277,2.152 C -6.51,-6.101 -11.226,-0.81 -16.543,4.389 -10.468,4.364 -4.987,3.125 0,0"
         style="fill:#2f9163;fill-opacity:1;fill-rule:nonzero;stroke:none"
         id="path3573" />
    </g>
    <g
       id="g3575"
       transform="matrix(0.35277777,0,0,-0.35277777,222.90156,137.13581)"
       style="display:inline">
      <path
         d="m 0,0 c -0.311,1.748 -1.008,3.354 -1.827,4.914 1.047,0.155 1.044,1.171 1.437,1.825 1.845,3.067 4.289,5.55 7.2,7.602 5,3.067 10.469,4.353 16.581,4.379 C 21.66,16.982 20.066,15.483 18.657,13.81 15.821,10.443 13.319,6.881 11.962,2.633 11.819,2.186 11.59,1.751 11.744,1.256 c 0,0 0.028,0.012 0.028,0.012 C 11.557,1.328 11.554,1.151 11.503,1.027 11.3,0.327 11.176,-0.38 11.226,-1.116 11.258,-1.592 11.278,-2.093 10.608,-2.174 7.16,-1.021 3.646,-0.19 0,0"
         style="fill:#329c6a;fill-opacity:1;fill-rule:nonzero;stroke:none"
         id="path3577" />
    </g>
    <g
       id="g3579"
       transform="matrix(0.35277777,0,0,-0.35277777,215.17043,151.95914)"
       style="display:inline">
      <path
         d="m 0,0 c -3.344,4.221 -7.678,6.467 -13.099,6.549 0.024,1.212 0.048,2.423 0.073,3.634 2.873,2.752 5.744,5.508 8.623,8.255 0.366,0.349 0.644,0.842 1.243,0.865 3.08,-2.947 6.159,-5.896 9.24,-8.842 0.747,-0.714 1.502,-1.418 2.253,-2.127 0,-0.169 0,-0.339 0,-0.508 C 5.966,5.506 3.603,3.182 1.229,0.87 0.869,0.52 0.596,0.026 0,0"
         style="fill:#f6af30;fill-opacity:1;fill-rule:nonzero;stroke:none"
         id="path3581" />
    </g>
    <g
       id="g3583"
       transform="matrix(0.35277777,0,0,-0.35277777,217.73788,136.7717)"
       style="display:inline">
      <path
         d="m 0,0 c 0.208,-0.702 0.328,-1.413 0.277,-2.152 -0.034,-0.483 -0.04,-0.978 0.628,-1.059 -1.892,-0.999 -3.972,-1.65 -5.652,-3.041 -1.475,-0.725 -2.649,-1.88 -3.997,-2.787 -1.905,5.86 -5.665,10.475 -9.937,14.745 -0.452,0.453 -0.931,0.879 -1.629,1.534 2.854,0.068 5.372,-0.219 7.842,-0.794 C -7.877,5.378 -3.669,3.542 -0.374,0.014 -0.314,-0.05 -0.128,0.002 0,0"
         style="fill:#268357;fill-opacity:1;fill-rule:nonzero;stroke:none"
         id="path3585" />
    </g>
    <g
       id="g3587"
       transform="matrix(0.35277777,0,0,-0.35277777,226.64354,137.90289)"
       style="display:inline">
      <path
         d="m 0,0 c 0.671,0.081 0.651,0.583 0.618,1.059 -0.05,0.736 0.075,1.443 0.278,2.143 0.09,0.08 0.179,0.16 0.269,0.24 0,0 -0.029,-0.011 -0.029,-0.011 2.411,1.91 4.874,3.73 7.779,4.863 3.841,1.498 7.829,2.124 12.241,2.191 C 16.171,5.643 11.766,0.692 9.635,-5.823 8.279,-4.905 7.086,-3.756 5.611,-3.009 3.927,-1.659 1.879,-0.988 0,0"
         style="fill:#268357;fill-opacity:1;fill-rule:nonzero;stroke:none"
         id="path3589" />
    </g>
    <g
       id="g3591"
       transform="matrix(0.35277777,0,0,-0.35277777,214.65323,139.96043)"
       style="display:inline">
      <path
         d="M 0,0 C 1.348,0.907 2.522,2.061 3.997,2.787 4.355,2.479 4.729,2.187 5.068,1.86 6.65,0.334 8.223,-1.202 9.799,-2.734 V -3.237 C 9.628,-3.367 9.443,-3.482 9.29,-3.63 5.919,-6.902 2.553,-10.178 -0.818,-13.45 c -0.277,-0.268 -0.583,-0.506 -0.876,-0.759 -0.597,0.023 -0.874,0.515 -1.24,0.864 -1.464,1.398 -2.781,2.957 -4.484,4.094 C -5.574,-5.665 -2.927,-2.721 0,0"
         style="fill:#f6af30;fill-opacity:1;fill-rule:nonzero;stroke:none"
         id="path3593" />
    </g>
    <g
       id="g3595"
       transform="matrix(0.35277777,0,0,-0.35277777,228.62305,138.96432)"
       style="display:inline">
      <path
         d="m 0,0 c 1.475,-0.747 2.668,-1.896 4.024,-2.814 2.612,-2.423 4.984,-5.047 6.81,-8.126 0.219,-0.369 0.408,-0.757 0.61,-1.136 -0.812,-0.772 -1.576,-1.604 -2.449,-2.301 -1.098,-0.875 -1.956,-2.048 -3.273,-2.652 -0.598,0.557 -1.221,1.089 -1.79,1.673 -3.129,3.209 -6.405,6.264 -9.702,9.297 V -5.56 C -3.847,-3.707 -1.923,-1.853 0,0"
         style="fill:#f6af30;fill-opacity:1;fill-rule:nonzero;stroke:none"
         id="path3597" />
    </g>
    <g
       id="g3599"
       transform="matrix(0.35277777,0,0,-0.35277777,205.4016,153.24604)"
       style="display:inline">
      <path
         d="m 0,0 c 0.094,2.097 0.189,4.194 0.283,6.291 0.433,3.002 0.62,6.036 1.246,9.012 0.599,2.849 1.277,5.668 2.779,8.209 0.565,0.956 1.37,1.464 2.504,1.141 1.263,-0.36 1.9,-1.718 1.261,-2.911 C 5.559,17.055 5.104,11.917 4.665,6.769 c 0,0 0.015,0.026 0.015,0.026 C 4.456,6.743 4.452,6.641 4.612,6.501 4.257,4.414 4.466,2.297 4.293,0.201 2.897,-0.586 1.449,-0.311 0,0"
         style="fill:#603928;fill-opacity:1;fill-rule:nonzero;stroke:none"
         id="path3601" />
    </g>
    <g
       id="g3603"
       transform="matrix(0.35277777,0,0,-0.35277777,231.55848,154.06445)"
       style="display:inline">
      <path
         d="M 0,0 C -0.131,0.169 -0.249,0.352 -0.397,0.506 -2.299,2.488 -2.319,2.507 -0.306,4.464 2.199,6.9 4.5,9.552 7.286,11.695 7.304,7.796 7.322,3.898 7.339,-0.001 4.893,-0.001 2.446,0 0,0"
         style="fill:#df9e2c;fill-opacity:1;fill-rule:nonzero;stroke:none"
         id="path3605" />
    </g>
    <g
       id="g3607"
       transform="matrix(0.35277777,0,0,-0.35277777,212.03639,143.2239)"
       style="display:inline">
      <path
         d="m 0,0 c 1.703,-1.138 3.02,-2.696 4.484,-4.095 0.365,-0.348 0.643,-0.84 1.24,-0.863 0,-0.166 0,-0.333 0,-0.5 C 5.125,-5.481 4.847,-5.974 4.481,-6.323 1.602,-9.071 -1.269,-11.826 -4.143,-14.579 -4.023,-9.362 -2.607,-4.512 0,0"
         style="fill:#e09f2d;fill-opacity:1;fill-rule:nonzero;stroke:none"
         id="path3609" />
    </g>
    <g
       id="g3611"
       transform="matrix(0.35277777,0,0,-0.35277777,230.64179,144.97174)"
       style="display:inline">
      <path
         d="M 0,0 C 1.317,0.604 2.175,1.777 3.273,2.652 4.146,3.349 4.91,4.181 5.722,4.953 8.215,0.595 9.74,-4.035 9.688,-9.108 9.073,-9.13 8.802,-8.623 8.437,-8.277 5.963,-5.927 3.723,-3.336 1.064,-1.177 0.734,-0.909 0.497,-0.506 0,-0.506 0,-0.338 0,-0.169 0,0"
         style="fill:#e09f2d;fill-opacity:1;fill-rule:nonzero;stroke:none"
         id="path3613" />
    </g>
    <g
       id="g3615"
       transform="matrix(0.35277777,0,0,-0.35277777,234.12398,148.27734)"
       style="display:inline">
      <path
         d="M 0,0 C -0.066,0.092 -0.132,0.183 -0.198,0.275 -0.068,0.23 0.044,0.17 0,0"
         style="fill:#e09f2d;fill-opacity:1;fill-rule:nonzero;stroke:none"
         id="path3617" />
    </g>
    <g
       id="g3619"
       transform="matrix(0.35277777,0,0,-0.35277777,215.17043,151.95914)"
       style="display:inline">
      <path
         d="M 0,0 C 0.596,0.026 0.869,0.52 1.229,0.87 3.603,3.182 5.966,5.506 8.333,7.826 9.47,7.339 10.292,6.435 11.167,5.621 13.999,2.99 16.54,0.063 19.485,-2.461 c 0.841,-0.722 1.274,-0.675 2.014,0.059 3.237,3.213 6.527,6.372 9.8,9.549 0.307,0.298 0.567,0.677 1.064,0.684 0.109,-0.072 0.232,-0.128 0.323,-0.217 3.484,-3.382 6.947,-6.786 10.461,-10.137 0.718,-0.685 0.733,-1.123 -0.014,-1.75 -0.592,-0.497 -1.077,-1.122 -1.609,-1.69 -6.193,0 -12.387,0 -18.581,-0.001 -0.625,0.659 -1.248,1.321 -1.878,1.977 -0.303,0.315 -0.68,0.479 -1.024,0.123 C 19.322,-4.611 18.298,-5.024 17.756,-5.96 12.789,-5.968 7.822,-5.976 2.855,-5.984 2.298,-3.802 1.251,-1.852 0,0"
         style="fill:#df9e2c;fill-opacity:1;fill-rule:nonzero;stroke:none"
         id="path3621" />
    </g>
    <g
       id="g3623"
       transform="matrix(0.35277777,0,0,-0.35277777,205.4016,153.24604)"
       style="display:inline">
      <path
         d="M 0,0 C 1.449,-0.311 2.897,-0.586 4.293,0.201 5.244,0.21 6.042,0.587 6.782,1.17 7.959,2.097 9.232,2.027 9.999,1.035 10.794,0.005 10.534,-1.387 9.294,-2.236 5.852,-4.594 2.092,-5.032 -1.856,-3.859 c -1.236,0.367 -2.441,0.903 -3.466,1.738 -1.092,0.888 -1.298,2.244 -0.498,3.21 0.768,0.927 2.027,1.001 3.126,0.12 C -1.892,0.566 -0.984,0.211 0,0"
         style="fill:#c7312e;fill-opacity:1;fill-rule:nonzero;stroke:none"
         id="path3625" />
    </g>
    <g
       id="g3627"
       transform="matrix(0.35277777,0,0,-0.35277777,216.08191,159.51031)"
       style="display:inline">
      <path
         d="M 0,0 C 0.526,-0.853 0.851,-1.787 1.013,-2.764 1.264,-4.278 0.555,-5.174 -1.018,-5.417 -0.633,-3.619 -0.58,-1.76 0,0"
         style="fill:#623725;fill-opacity:1;fill-rule:nonzero;stroke:none"
         id="path3629" />
    </g>
    <g
       id="g3631"
       transform="matrix(0.35277777,0,0,-0.35277777,207.02864,150.95266)"
       style="display:inline">
      <path
         d="M 0,0 C -0.16,0.14 -0.156,0.242 0.068,0.294 0.045,0.196 0.023,0.098 0,0"
         style="fill:#fefefe;fill-opacity:1;fill-rule:nonzero;stroke:none"
         id="path3633" />
    </g>
    <g
       id="g3635"
       transform="matrix(0.35277777,0,0,-0.35277777,231.92978,156.87556)"
       style="display:inline">
      <path
         d="m 0,0 c 0.029,-1.562 -0.857,-2.509 -2.115,-2.49 -1.206,0.018 -2.086,0.924 -2.048,2.197 0.039,1.281 0.479,2.461 1.208,3.501 0.563,0.802 1.242,0.737 1.781,-0.049 C -0.477,2.145 -0.128,0.993 0,0"
         style="fill:#623725;fill-opacity:1;fill-rule:nonzero;stroke:none"
         id="path3637" />
    </g>
    <g
       id="g3639"
       transform="matrix(0.35277777,0,0,-0.35277777,220.13652,158.36287)"
       style="display:inline">
      <path
         d="m 0,0 c 0.005,-1.508 -0.833,-2.419 -2.038,-2.446 -1.21,-0.028 -2.14,0.856 -2.128,2.116 0.013,1.329 0.473,2.546 1.238,3.619 0.523,0.733 1.184,0.7 1.701,-0.022 C -0.483,2.229 -0.125,1.035 0,0"
         style="fill:#623725;fill-opacity:1;fill-rule:nonzero;stroke:none"
         id="path3641" />
    </g>
    <g
       id="g3643"
       transform="matrix(0.35277777,0,0,-0.35277777,224.5593,158.37895)"
       style="display:inline">
      <path
         d="m 0,0 c 0.014,-1.498 -0.887,-2.435 -2.148,-2.4 -1.205,0.033 -2.069,0.946 -2.018,2.225 0.05,1.279 0.489,2.457 1.225,3.495 0.516,0.727 1.175,0.735 1.702,0.008 C -0.492,2.294 -0.119,1.103 0,0"
         style="fill:#623725;fill-opacity:1;fill-rule:nonzero;stroke:none"
         id="path3645" />
    </g>
    <g
       id="g3647"
       transform="matrix(0.35277777,0,0,-0.35277777,228.24427,160.55856)"
       style="display:inline">
      <path
         d="m 0,0 c 0.024,-1.561 -0.867,-2.504 -2.126,-2.48 -1.206,0.023 -2.08,0.932 -2.038,2.207 0.043,1.281 0.48,2.461 1.215,3.498 0.57,0.804 1.247,0.718 1.78,-0.064 C -0.476,2.145 -0.125,0.994 0,0"
         style="fill:#623725;fill-opacity:1;fill-rule:nonzero;stroke:none"
         id="path3649" />
    </g>
    <g
       id="g3651"
       transform="matrix(0.35277777,0,0,-0.35277777,222.34675,162.76458)"
       style="display:inline">
      <path
         d="m 0,0 c 0.026,-1.561 -0.863,-2.506 -2.121,-2.484 -1.206,0.02 -2.083,0.928 -2.042,2.202 0.04,1.281 0.479,2.461 1.212,3.5 0.566,0.802 1.244,0.727 1.78,-0.057 C -0.477,2.145 -0.126,0.994 0,0"
         style="fill:#623725;fill-opacity:1;fill-rule:nonzero;stroke:none"
         id="path3653" />
    </g>
    <g
       id="g3655"
       transform="matrix(0.35277777,0,0,-0.35277777,221.43439,154.06159)"
       style="display:inline">
      <path
         d="M 0,0 C 0.542,0.935 1.565,1.349 2.285,2.096 2.629,2.452 3.006,2.288 3.309,1.972 3.939,1.317 4.561,0.655 5.187,-0.004 3.458,-0.003 1.729,-0.001 0,0"
         style="fill:#f6af30;fill-opacity:1;fill-rule:nonzero;stroke:none"
         id="path3657" />
    </g>
    <g
       id="g3659"
       transform="matrix(0.35277777,0,0,-0.35277777,226.58749,149.19668)"
       style="display:inline">
      <path
         d="m 0,0 c -0.497,-0.006 -0.757,-0.385 -1.065,-0.684 -3.272,-3.176 -6.563,-6.336 -9.799,-9.548 -0.74,-0.735 -1.173,-0.781 -2.015,-0.06 -2.944,2.525 -5.486,5.451 -8.317,8.083 -0.875,0.813 -1.697,1.718 -2.835,2.204 0,0.17 0,0.339 0,0.509 0.496,0.054 0.908,0.284 1.26,0.622 3.409,3.271 6.56,6.807 10.165,9.878 0.484,0.412 0.57,0.747 0.041,1.26 -2.835,2.747 -5.596,5.57 -8.465,8.281 -0.923,0.871 -1.775,1.884 -3.001,2.4 v 0.503 c 0.231,0.103 0.507,0.156 0.684,0.318 3.63,3.326 7.165,6.75 10.546,10.33 0.524,0.001 1.048,0.001 1.573,0.002 3.29,-3.672 7.139,-6.776 10.547,-10.33 C -0.519,23.598 -0.23,23.55 0,23.445 0,23.279 0,23.113 0,22.946 -0.198,22.869 -0.446,22.844 -0.586,22.709 -4.165,19.248 -7.725,15.768 -11.309,12.313 -11.85,11.792 -11.65,11.464 -11.215,11.043 -7.732,7.67 -4.26,4.286 -0.787,0.903 -0.563,0.685 -0.328,0.507 0,0.5 0,0.333 0,0.167 0,0"
         style="fill:#f6af30;fill-opacity:1;fill-rule:nonzero;stroke:none"
         id="path3661" />
    </g>
    <g
       id="g3663"
       transform="matrix(0.35277777,0,0,-0.35277777,226.58752,149.02036)"
       style="display:inline">
      <path
         d="m 0,0 c -0.328,0.008 -0.563,0.185 -0.787,0.403 -3.473,3.383 -6.945,6.767 -10.428,10.14 -0.435,0.422 -0.635,0.749 -0.095,1.27 3.585,3.455 7.145,6.935 10.724,10.396 0.14,0.136 0.388,0.161 0.586,0.237 3.297,-3.033 6.573,-6.088 9.702,-9.296 0.569,-0.584 1.192,-1.117 1.79,-1.673 0,-0.169 0,-0.338 0,-0.507 C 11.016,10.536 10.531,10.111 10.066,9.665 6.708,6.446 3.355,3.222 0,0"
         style="fill:#df9e2c;fill-opacity:1;fill-rule:nonzero;stroke:none"
         id="path3665" />
    </g>
    <g
       id="g3667"
       transform="matrix(0.35277777,0,0,-0.35277777,222.07165,137.16826)"
       style="display:inline">
      <path
         d="m 0,0 c -3.381,-3.58 -6.916,-7.004 -10.546,-10.33 -0.177,-0.162 -0.454,-0.215 -0.684,-0.319 -1.576,1.532 -3.149,3.068 -4.731,4.594 -0.339,0.327 -0.713,0.619 -1.07,0.927 1.68,1.391 3.759,2.043 5.651,3.041 2.795,0.886 5.604,1.691 8.536,2.01 C -1.892,0.027 -0.951,0.075 0,0"
         style="fill:#df9e2c;fill-opacity:1;fill-rule:nonzero;stroke:none"
         id="path3669" />
    </g>
    <g
       id="g3671"
       transform="matrix(0.35277777,0,0,-0.35277777,226.58752,140.9258)"
       style="display:inline">
      <path
         d="m 0,0 c -0.23,0.105 -0.519,0.153 -0.681,0.323 -3.408,3.554 -7.257,6.658 -10.547,10.33 0.26,0.03 0.52,0.06 0.78,0.09 3.646,-0.189 7.16,-1.02 10.607,-2.174 C 2.037,7.581 4.086,6.91 5.77,5.56 3.847,3.707 1.923,1.853 0,0"
         style="fill:#df9e2c;fill-opacity:1;fill-rule:nonzero;stroke:none"
         id="path3673" />
    </g>
    <g
       id="g3675"
       transform="matrix(0.35277777,0,0,-0.35277777,227.05449,136.68855)"
       style="display:inline">
      <path
         d="M 0,0 C -0.09,-0.08 -0.179,-0.16 -0.269,-0.24 -0.218,-0.117 -0.216,0.06 0,0"
         style="fill:#fefefe;fill-opacity:1;fill-rule:nonzero;stroke:none"
         id="path3677" />
    </g>
    <g
       id="g3679"
       transform="matrix(0.35277777,0,0,-0.35277777,218.10999,141.10237)"
       style="display:inline">
      <path
         d="m 0,0 c 1.226,-0.516 2.078,-1.528 3,-2.4 2.869,-2.71 5.631,-5.534 8.466,-8.281 0.529,-0.513 0.443,-0.848 -0.042,-1.26 C 7.82,-15.012 4.669,-18.548 1.259,-21.819 0.908,-22.156 0.495,-22.386 0,-22.441 c -0.751,0.709 -1.506,1.413 -2.252,2.127 -3.082,2.946 -6.161,5.894 -9.24,8.842 v 0.501 c 0.292,0.252 0.598,0.49 0.875,0.758 3.371,3.272 6.737,6.548 10.108,9.82 C -0.356,-0.245 -0.17,-0.13 0,0"
         style="fill:#df9e2c;fill-opacity:1;fill-rule:nonzero;stroke:none"
         id="path3681" />
    </g>
  </g>
</svg>
