<?xml version="1.0" encoding="UTF-8" standalone="no"?>
<!-- Created with Inkscape (http://www.inkscape.org/) -->

<svg
   width="46.847061mm"
   height="46.885731mm"
   viewBox="0 0 46.847061 46.885731"
   version="1.1"
   id="svg4704"
   inkscape:version="1.1.1 (c3084ef, 2021-09-22)"
   sodipodi:docname="cat_3.svg"
   xmlns:inkscape="http://www.inkscape.org/namespaces/inkscape"
   xmlns:sodipodi="http://sodipodi.sourceforge.net/DTD/sodipodi-0.dtd"
   xmlns="http://www.w3.org/2000/svg"
   xmlns:svg="http://www.w3.org/2000/svg">
  <sodipodi:namedview
     id="namedview4706"
     pagecolor="#ffffff"
     bordercolor="#666666"
     borderopacity="1.0"
     inkscape:pageshadow="2"
     inkscape:pageopacity="0.0"
     inkscape:pagecheckerboard="0"
     inkscape:document-units="mm"
     showgrid="false"
     inkscape:zoom="0.52382155"
     inkscape:cx="-31.499277"
     inkscape:cy="135.54234"
     inkscape:window-width="1312"
     inkscape:window-height="810"
     inkscape:window-x="0"
     inkscape:window-y="25"
     inkscape:window-maximized="0"
     inkscape:current-layer="layer1" />
  <defs
     id="defs4701" />
  <g
     inkscape:label="Layer 1"
     inkscape:groupmode="layer"
     id="layer1"
     transform="translate(-112.95402,-112.42959)">
    <g
       id="g3683"
       transform="matrix(0.35277777,0,0,-0.35277777,148.7097,159.26892)"
       style="display:inline">
      <path
         d="m 0,0 c -0.619,-0.019 -1.237,-0.054 -1.856,-0.054 -22.786,-0.003 -45.573,0.115 -68.358,-0.077 -6.453,-0.054 -13.86,4.012 -14.856,13.522 -0.678,6.469 -1.804,12.891 -2.719,19.335 -0.902,6.35 -1.789,12.703 -2.686,19.054 -0.578,4.093 -1.162,8.186 -1.743,12.278 14.072,0.004 28.145,0.006 42.217,0.016 0.58,0 1.13,-0.075 1.678,-0.271 2.864,-1.027 5.711,-2.113 8.609,-3.034 2.655,-0.845 5.226,-2.444 8.205,-1.277 -0.295,-3.832 -3.065,-5.733 -6.646,-4.527 -3.876,1.305 -7.741,2.646 -11.609,3.974 -0.669,0.23 -1.28,0.566 -2.041,0.564 -8.108,-0.024 -16.215,-0.034 -24.322,0.007 -1.116,0.005 -1.331,-0.509 -1.166,-1.392 0.357,-1.908 0.659,-3.835 1.17,-5.703 0.663,-2.423 1.508,-4.797 2.275,-7.192 -1.731,-1.173 -2.36,-2.795 -2.344,-4.884 0.064,-8.717 0.025,-17.436 0.027,-26.154 0.001,-3.031 1.842,-5.074 4.568,-5.08 2.672,-0.006 4.586,2.108 4.592,5.069 0.012,6.717 0.026,13.434 0.039,20.151 1.345,-1.319 2.648,-2.685 4.048,-3.944 1.57,-1.413 3.14,-2.846 5.059,-3.803 0.005,-4.231 0.001,-8.462 0.016,-12.693 0.009,-2.768 1.937,-4.774 4.564,-4.78 2.59,-0.006 4.575,2.048 4.591,4.766 0.015,2.52 0.015,5.04 0.021,7.559 2.974,-1.078 6.007,-1.946 9.109,-2.569 0.011,-1.756 -10e-4,-3.514 0.037,-5.27 0.055,-2.547 2.039,-4.481 4.562,-4.486 2.455,-0.005 4.53,2.003 4.586,4.475 0.036,1.566 0.019,3.134 0.025,4.701 3.041,0 6.081,0 9.121,0 0.007,-1.375 0.016,-2.75 0.019,-4.125 0.007,-3.004 1.845,-5.042 4.561,-5.051 2.614,-0.009 4.526,2.017 4.608,4.881 0.749,-1.524 1.433,-3.084 2.26,-4.565 C -7.479,5.297 -4.746,1.596 0,0"
         style="fill:#4891d2;fill-opacity:1;fill-rule:nonzero;stroke:none"
         id="path3685" />
    </g>
    <g
       id="g3687"
       transform="matrix(0.35277777,0,0,-0.35277777,134.75462,152.61503)"
       style="display:inline">
      <path
         d="m 0,0 c -3.102,0.623 -6.135,1.491 -9.109,2.568 -0.007,6.435 -0.011,12.87 -0.021,19.305 -0.004,2.928 -1.853,4.978 -4.507,5.012 -2.73,0.034 -4.645,-2.025 -4.65,-5.012 -0.008,-4.719 -0.01,-9.438 -0.014,-14.157 -1.92,0.957 -3.489,2.391 -5.06,3.804 -1.399,1.259 -2.702,2.624 -4.048,3.943 -0.013,2.236 -0.033,4.472 -0.036,6.708 -0.003,1.24 -0.365,2.322 -1.233,3.238 -1.64,1.733 -3.548,1.779 -5.613,0.953 -0.766,2.395 -1.611,4.768 -2.274,7.192 -0.511,1.868 -0.813,3.795 -1.17,5.703 -0.166,0.883 0.049,1.397 1.166,1.391 8.107,-0.04 16.214,-0.031 24.321,-0.006 0.761,0.002 1.373,-0.335 2.042,-0.564 3.868,-1.328 7.732,-2.669 11.609,-3.975 3.58,-1.206 6.35,0.696 6.646,4.527 L 8.041,40.623 c 16.503,0.001 33.006,0.004 49.51,0.001 1.191,0 2.383,-0.033 3.575,-0.05 -0.413,-3.095 -0.825,-6.189 -1.238,-9.283 -2.505,-0.72 -4.608,-1.98 -5.861,-4.377 -0.937,-1.415 -1.573,-2.907 -1.187,-4.66 -0.609,-0.145 -1.217,-0.29 -1.826,-0.436 -0.026,0.165 -0.051,0.329 -0.076,0.494 0.393,3 0.88,5.991 1.154,9.002 0.317,3.489 -2.384,5.492 -5.684,4.345 -2.139,-1.183 -2.677,-2.719 -2.215,-5.696 0.42,-2.703 0.694,-5.427 1.033,-8.142 -4.73,1.08 -9.131,0.379 -13.143,-2.427 -1.954,-1.08 -3.201,-2.868 -4.553,-4.55 -0.007,2.432 -0.024,4.865 -0.016,7.297 0.004,1.139 -0.284,2.168 -1.027,3.041 -1.363,1.602 -3.211,2.101 -5.146,1.414 -1.85,-0.657 -2.982,-2.303 -2.987,-4.427 -0.016,-7.583 -0.016,-15.166 -0.023,-22.749 -3.04,0 -6.081,0 -9.121,0 C 9.203,6.951 9.191,14.482 9.197,22.013 9.198,23.199 8.941,24.279 8.16,25.191 6.79,26.789 4.947,27.284 3.013,26.594 1.167,25.935 0.04,24.289 0.035,22.164 0.015,14.776 0.01,7.388 0,0"
         style="fill:#57b6ea;fill-opacity:1;fill-rule:nonzero;stroke:none"
         id="path3689" />
    </g>
    <g
       id="g3691"
       transform="matrix(0.35277777,0,0,-0.35277777,157.08867,149.6947)"
       style="display:inline">
      <path
         d="M 0,0 C 0.017,2.229 -3.355,6.417 -5.568,6.838 -6.8,7.072 -7.814,6.755 -8.335,5.444 -8.81,4.248 -8.348,3.308 -7.395,2.763 -5.87,1.892 -4.891,0.69 -4.218,-0.909 -3.808,-1.883 -2.895,-2.483 -1.782,-2.217 -0.695,-1.957 0.093,-1.291 0,0 m -12.295,13.54 c 0.608,0.146 1.217,0.291 1.826,0.436 0.798,0.016 1.598,0.014 2.395,0.053 1.055,0.051 2.095,-0.668 3.158,-0.058 0.161,-0.436 0.566,-0.436 0.929,-0.544 7.99,-2.392 12.648,-9.756 11.485,-18.05 -0.641,-4.573 -2.092,-8.856 -4.319,-12.889 -0.196,0.31 -0.447,0.208 -0.745,0.16 -1.539,-0.249 -3.078,-0.583 -4.628,-0.658 -5.641,-0.274 -10.92,1.017 -15.765,3.948 -4.675,2.829 -8.212,6.731 -10.58,11.64 -2.057,4.263 -2.898,8.805 -2.687,13.538 4.012,2.806 8.413,3.507 13.143,2.427 0.115,-0.699 0.157,-1.421 0.362,-2.094 0.382,-1.252 1.218,-2.013 2.6,-1.997 1.217,0.014 2.234,0.884 2.491,2.131 0.134,0.648 0.224,1.305 0.335,1.957"
         style="fill:#f7664f;fill-opacity:1;fill-rule:nonzero;stroke:none"
         id="path3693" />
    </g>
    <g
       id="g3695"
       transform="matrix(0.35277777,0,0,-0.35277777,137.59413,138.28157)"
       style="display:inline">
      <path
         d="m 0,0 c -2.98,-1.166 -5.55,0.432 -8.205,1.277 -2.898,0.922 -5.745,2.007 -8.609,3.034 -0.548,0.197 -1.098,0.271 -1.678,0.271 -14.073,-0.01 -28.145,-0.012 -42.218,-0.015 -1.334,0.003 -2.669,0.007 -4.003,0.01 -3.205,0.005 -5.205,1.874 -5.131,4.797 0.068,2.704 2.32,4.496 5.415,4.309 0.284,-2.645 2.244,-4.223 5.331,-4.228 7.156,-0.014 14.312,-0.007 21.467,0.007 0.218,0 0.555,-0.191 0.704,0.228 -3.728,1.342 -7.43,2.673 -11.132,4.005 h 3.375 c 0.014,0.085 0.029,0.171 0.043,0.256 -3.337,1.161 -6.672,2.328 -10.011,3.482 -3.138,1.083 -6.286,2.138 -9.421,3.233 -2.386,0.834 -3.479,2.381 -3.456,4.798 0.697,0.113 1.31,-0.192 1.934,-0.408 8.805,-3.056 17.606,-6.124 26.411,-9.181 4.313,-1.497 8.631,-2.979 12.947,-4.468 6.744,-2.325 13.478,-4.678 20.238,-6.957 2.032,-0.685 4.201,0.225 5.194,1.964 0.856,1.5 0.703,1.855 -0.948,2.434 -4.571,1.604 -9.135,3.226 -13.702,4.841 4.579,0 9.159,10e-4 13.739,10e-4 0.164,-0.086 0.322,-0.193 0.496,-0.254 C 6.315,10.776 14.13,9.578 22.072,9.49 35.69,9.34 49.31,9.435 62.93,9.428 62.996,6.544 61.117,4.602 58.231,4.578 56.765,4.567 55.299,4.57 53.834,4.567 37.104,4.57 20.374,4.574 3.644,4.577 3.406,4.577 3.167,4.575 2.929,4.566 2.619,4.553 2.328,4.448 2.324,4.097 2.303,2.293 1.029,1.213 -0.008,-0.007 Z"
         style="fill:#57b7ea;fill-opacity:1;fill-rule:nonzero;stroke:none"
         id="path3697" />
    </g>
    <g
       id="g3699"
       transform="matrix(0.35277777,0,0,-0.35277777,141.71757,123.32704)"
       style="display:inline">
      <path
         d="m 0,0 c -0.551,1.589 -1.562,2.973 -1.734,4.746 -0.415,4.268 1.749,8.048 5.762,9.636 0.714,0.282 1.077,0.556 1.27,1.416 1.015,4.527 5.343,8.256 9.62,8.457 -0.313,-1.593 -0.295,-3.159 -0.039,-4.786 1.001,-6.358 6.769,-11.491 13.142,-11.449 1.206,0.008 1.987,-0.43 2.866,-1.195 3.255,-2.83 7.028,-3.94 11.347,-3.173 3.02,0.536 5.452,2.075 7.669,4.07 C 50.252,5.226 49.456,3.014 48.233,0.9 48.002,0.501 47.566,0.212 47.562,-0.312 c -0.968,-0.682 -1.68,-1.68 -2.75,-2.232 -1.424,-0.735 -2.423,-1.539 -2.73,-3.43 -0.532,-3.267 -3.044,-5.097 -5.954,-6.36 -1.927,-0.222 -3.82,-0.486 -5.756,0.208 -1.373,0.492 -2.361,1.561 -3.685,2.074 -0.646,1.243 -1.662,2.27 -2.075,3.654 -0.151,0.509 -0.552,0.194 -0.825,0.095 -1.775,-0.643 -3.574,-0.786 -5.41,-0.309 -2.329,0.757 -4.185,2.143 -5.489,4.219 -0.371,0.591 -0.643,0.519 -1.222,0.228 C 10.271,-2.865 8.782,-3.327 7.177,-3.184 5.862,-3.32 4.633,-2.958 3.469,-2.426 2.173,-1.835 1.116,-0.867 0,0"
         style="fill:#7ab92d;fill-opacity:1;fill-rule:nonzero;stroke:none"
         id="path3701" />
    </g>
    <g
       id="g3703"
       transform="matrix(0.35277777,0,0,-0.35277777,159.32224,120.60289)"
       style="display:inline">
      <path
         d="m 0,0 c -2.217,-1.995 -4.649,-3.534 -7.669,-4.07 -4.319,-0.767 -8.092,0.343 -11.347,3.173 -0.879,0.765 -1.66,1.203 -2.866,1.195 -6.373,-0.042 -12.141,5.091 -13.142,11.449 -0.256,1.627 -0.274,3.193 0.039,4.786 1.654,-0.146 2.636,0.56 3.612,1.99 2.747,4.027 7.862,5.568 12.525,4.101 4.671,-1.471 7.836,-5.649 7.941,-10.549 0.017,-0.831 0.021,-1.364 1.127,-1.5 C -4.318,9.906 -0.301,5.503 0,0"
         style="fill:#a1d41d;fill-opacity:1;fill-rule:nonzero;stroke:none"
         id="path3705" />
    </g>
    <g
       id="g3707"
       transform="matrix(0.35277777,0,0,-0.35277777,146.07279,145.77337)"
       style="display:inline">
      <path
         d="m 0,0 c -0.211,-4.732 0.63,-9.274 2.687,-13.538 2.368,-4.909 5.905,-8.811 10.58,-11.639 4.845,-2.932 10.124,-4.222 15.765,-3.948 1.55,0.075 3.089,0.409 4.628,0.658 0.298,0.048 0.549,0.15 0.745,-0.161 -1.371,-2.872 -3.262,-5.349 -5.692,-7.404 -3.512,-2.969 -7.417,-2.747 -11.411,-1.271 -0.913,0.338 -1.65,0.362 -2.551,-0.013 -2.325,-0.969 -4.782,-1.161 -7.276,-0.939 -4.746,1.596 -7.479,5.297 -9.78,9.421 -0.826,1.481 -1.51,3.041 -2.26,4.565 -0.134,0.45 -0.252,0.906 -0.405,1.35 -2.133,6.176 -3.103,12.323 0.417,18.37 C -3.201,-2.868 -1.954,-1.08 0,0"
         style="fill:#cb5144;fill-opacity:1;fill-rule:nonzero;stroke:none"
         id="path3709" />
    </g>
    <g
       id="g3711"
       transform="matrix(0.35277777,0,0,-0.35277777,132.14181,133.45225)"
       style="display:inline">
      <path
         d="m 0,0 c 4.567,-1.615 9.132,-3.237 13.703,-4.842 1.65,-0.579 1.803,-0.934 0.947,-2.433 -0.992,-1.74 -3.161,-2.65 -5.194,-1.965 -6.759,2.279 -13.494,4.633 -20.238,6.958 -4.316,1.488 -8.634,2.971 -12.947,4.468 -8.805,3.057 -17.606,6.124 -26.411,9.18 -0.623,0.217 -1.237,0.521 -1.934,0.409 0.456,3.33 3.111,5.052 6.266,3.972 6.733,-2.304 13.445,-4.666 20.171,-6.991 0.577,-0.2 1.189,-0.299 1.785,-0.444 1.844,-0.936 3.807,-1.525 5.813,-1.988 0.961,-0.738 2.157,-0.901 3.255,-1.283 C -9.867,3.33 -4.93,1.675 0,0"
         style="fill:#84d1f2;fill-opacity:1;fill-rule:nonzero;stroke:none"
         id="path3713" />
    </g>
    <g
       id="g3715"
       transform="matrix(0.35277777,0,0,-0.35277777,132.14181,133.45225)"
       style="display:inline">
      <path
         d="m 0,0 c -4.93,1.675 -9.867,3.33 -14.784,5.041 -1.098,0.382 -2.294,0.545 -3.255,1.283 1.771,1.287 3.719,2.375 4.876,4.351 0.254,-0.119 0.528,-0.208 0.759,-0.362 4.208,-2.811 8.766,-3.99 13.821,-3.136 1.161,0.196 1.269,0.491 0.622,1.411 -2.023,2.878 -3.94,5.834 -6.017,8.672 -0.978,1.336 -1.7,2.862 -2.919,4.022 1.946,1.146 4.1,1.512 6.308,1.676 0.604,-1.436 1.308,-2.816 2.238,-4.073 0.413,-0.557 0.819,-0.806 1.527,-0.374 2.167,1.323 4.37,2.588 6.559,3.876 2.572,-0.095 3.41,-1.316 2.558,-3.726 C 10.106,17.33 7.931,15.978 5.724,14.681 5.19,14.367 4.906,14.201 5.382,13.56 6.429,12.153 7.412,10.698 8.374,9.232 8.712,8.717 9.022,8.65 9.527,8.955 c 2.066,1.248 4.144,2.476 6.217,3.711 0.526,-0.015 0.833,0.423 1.262,0.613 1.211,0.535 2.464,0.186 3.102,-0.89 C 20.781,11.25 20.278,10.08 18.611,8.908 16.505,7.705 14.403,6.493 12.289,5.305 11.663,4.953 11.58,4.619 12.018,4.005 c 0.907,-1.27 1.728,-2.6 2.584,-3.906 L 13.739,0 C 9.159,0 4.58,0 0,0"
         style="fill:#e49730;fill-opacity:1;fill-rule:nonzero;stroke:none"
         id="path3717" />
    </g>
    <g
       id="g3719"
       transform="matrix(0.35277777,0,0,-0.35277777,138.70753,130.30967)"
       style="display:inline">
      <path
         d="M 0,0 C 1.667,1.172 2.17,2.342 1.496,3.48 0.859,4.557 -0.394,4.906 -1.605,4.37 -2.034,4.181 -2.342,3.743 -2.867,3.758 c -0.85,2.172 -2.356,3.965 -3.452,5.995 0.853,2.41 0.015,3.63 -2.557,3.726 -1.987,4.021 -4.415,7.775 -6.944,11.468 0.233,0.265 0.465,0.53 0.697,0.795 1.896,0.928 3.785,1.875 5.973,1.862 2.592,-0.066 4.963,-0.739 6.934,-2.513 -1.495,-0.836 -3.014,-1.627 -4.47,-2.523 -0.881,-0.542 -1.531,-1.3 -1.21,-2.489 0.45,-1.672 2.123,-2.282 3.754,-1.344 1.56,0.897 3.015,1.986 4.745,2.566 C 1.57,19.274 2.538,17.247 3.505,15.22 1.98,14.36 0.434,13.535 -1.064,12.632 -2.577,11.72 -2.645,9.928 -1.261,8.846 -0.409,8.18 0.456,8.202 1.382,8.723 2.739,9.487 4.015,10.402 5.478,10.973 7.117,7.527 8.755,4.082 10.393,0.636 8.451,-0.147 6.874,-1.615 4.879,-2.298 3.006,-2.055 1.251,-1.564 0,0"
         style="fill:#f8e00a;fill-opacity:1;fill-rule:nonzero;stroke:none"
         id="path3721" />
    </g>
    <g
       id="g3723"
       transform="matrix(0.35277777,0,0,-0.35277777,136.98859,133.45218)"
       style="display:inline">
      <path
         d="M 0,0 0.863,0.099 19.742,0.087 c 1.237,-0.001 2.474,-0.003 3.711,-0.004 1.434,0.004 2.868,0.008 4.301,0.013 4.875,-0.004 9.75,-0.007 14.625,-0.01 C 48.225,0.073 54.07,0.069 59.915,0.043 62.605,0.032 64.313,-1.544 64.646,-4.262 51.027,-4.254 37.406,-4.349 23.788,-4.199 15.847,-4.112 8.032,-2.914 0.496,-0.254 0.322,-0.192 0.165,-0.086 0,0"
         style="fill:#84d1f2;fill-opacity:1;fill-rule:nonzero;stroke:none"
         id="path3725" />
    </g>
    <g
       id="g3727"
       transform="matrix(0.35277777,0,0,-0.35277777,137.59127,138.284)"
       style="display:inline">
      <path
         d="M 0,0 C 1.037,1.219 2.311,2.3 2.332,4.104 2.336,4.455 2.627,4.56 2.937,4.573 3.175,4.582 3.414,4.584 3.652,4.584 20.382,4.581 37.112,4.577 53.842,4.574 53.627,3.026 53.518,1.462 53.084,-0.049 51.893,-0.032 50.701,0.001 49.51,0.001 33.006,0.003 16.503,0.001 0,0"
         style="fill:#4891d2;fill-opacity:1;fill-rule:nonzero;stroke:none"
         id="path3729" />
    </g>
    <g
       id="g3731"
       transform="matrix(0.35277777,0,0,-0.35277777,151.93906,133.42198)"
       style="display:inline">
      <path
         d="m 0,0 c -4.875,0.003 -9.75,0.007 -14.625,0.01 0.031,0.614 0.036,1.216 0.187,1.833 0.786,3.236 1.194,6.493 0.415,9.808 -0.421,1.794 -0.743,3.612 -1.104,5.42 -0.065,0.325 -0.173,0.691 0.051,0.965 0.3,0.369 0.606,0.004 0.884,-0.104 1.433,-0.555 2.909,-0.842 4.448,-0.788 0.705,-3.242 1.41,-6.485 2.175,-10.007 1.18,2.461 2.227,4.648 3.275,6.835 2.388,-1.93 4.984,-3.108 8.149,-2.306 0.365,0.092 0.767,0.09 1.039,-0.279 L 4.795,10.59 C 3.658,8.992 3.13,7.102 2.307,5.353 1.48,3.596 0.764,1.787 0,0"
         style="fill:#c3f136;fill-opacity:1;fill-rule:nonzero;stroke:none"
         id="path3733" />
    </g>
    <g
       id="g3735"
       transform="matrix(0.35277777,0,0,-0.35277777,153.63067,129.68596)"
       style="display:inline">
      <path
         d="m 0,0 c 0.033,0.266 0.066,0.531 0.098,0.797 0.987,1.523 1.504,3.265 2.261,4.895 2.91,1.262 5.422,3.092 5.953,6.359 0.308,1.892 1.307,2.695 2.73,3.43 1.07,0.553 1.783,1.551 2.75,2.233 2.476,-1.357 3.769,-3.464 3.696,-6.269 C 17.414,8.633 15.984,6.599 13.445,5.394 12.888,5.13 12.737,4.903 12.82,4.236 13.246,0.836 11.326,-2.169 8.172,-3.21 4.988,-4.262 1.862,-3.034 0,0"
         style="fill:#5ca008;fill-opacity:1;fill-rule:nonzero;stroke:none"
         id="path3737" />
    </g>
    <g
       id="g3739"
       transform="matrix(0.35277777,0,0,-0.35277777,148.50156,127.37382)"
       style="display:inline">
      <path
         d="M 0,0 C -1.539,-0.055 -3.015,0.232 -4.448,0.788 -4.726,0.895 -5.032,1.26 -5.332,0.892 -5.556,0.618 -5.448,0.251 -5.383,-0.073 c 0.361,-1.808 0.683,-3.626 1.104,-5.42 0.779,-3.316 0.371,-6.572 -0.415,-9.808 -0.151,-0.618 -0.156,-1.219 -0.187,-1.833 -1.434,-0.005 -2.867,-0.009 -4.301,-0.013 1.853,4.303 0.515,8.516 -0.401,12.727 -0.379,1.745 -0.485,3.558 -1.212,5.222 -0.42,2.495 -0.839,4.99 -1.259,7.485 1.605,-0.142 3.095,0.32 4.489,1.019 0.58,0.291 0.852,0.364 1.223,-0.227 1.304,-2.077 3.16,-3.463 5.489,-4.22 C -0.571,3.239 -0.036,1.663 0,0"
         style="fill:#a1d41d;fill-opacity:1;fill-rule:nonzero;stroke:none"
         id="path3741" />
    </g>
    <g
       id="g3743"
       transform="matrix(0.35277777,0,0,-0.35277777,129.7086,125.94447)"
       style="display:inline">
      <path
         d="m 0,0 c 1.219,-1.16 1.941,-2.686 2.919,-4.022 2.078,-2.838 3.994,-5.794 6.017,-8.672 0.647,-0.92 0.54,-1.215 -0.622,-1.411 -5.055,-0.854 -9.613,0.325 -13.821,3.136 -0.231,0.154 -0.505,0.243 -0.759,0.362 0.39,1.039 0.781,2.078 1.171,3.117 0.237,0.003 0.474,0.02 0.71,0.004 1.156,-0.08 2.061,0.306 2.517,1.425 0.455,1.117 0.038,2.017 -0.78,2.806 -0.373,0.359 -0.704,0.763 -1.054,1.146 C -2.521,-1.312 -1.391,-0.427 0,0"
         style="fill:#fbbb05;fill-opacity:1;fill-rule:nonzero;stroke:none"
         id="path3745" />
    </g>
    <g
       id="g3747"
       transform="matrix(0.35277777,0,0,-0.35277777,143.95316,133.42135)"
       style="display:inline">
      <path
         d="m 0,0 -18.879,0.012 c -0.856,1.305 -1.677,2.636 -2.584,3.905 -0.438,0.614 -0.355,0.948 0.271,1.3 2.114,1.188 4.216,2.401 6.322,3.604 1.251,-1.564 3.007,-2.055 4.879,-2.299 C -11.247,5 -11.415,4.009 -10.59,2.998 -9.81,2.042 -8.318,1.977 -6.823,2.857 -5.398,3.695 -3.986,4.554 -2.568,5.404 -1.586,3.662 -0.759,1.847 0,0"
         style="fill:#fbbb05;fill-opacity:1;fill-rule:nonzero;stroke:none"
         id="path3749" />
    </g>
    <g
       id="g3751"
       transform="matrix(0.35277777,0,0,-0.35277777,133.12655,121.50875)"
       style="display:inline">
      <path
         d="m 0,0 c 2.529,-3.693 4.957,-7.447 6.944,-11.468 -2.189,-1.288 -4.392,-2.554 -6.56,-3.877 -0.707,-0.432 -1.113,-0.183 -1.526,0.374 -0.931,1.258 -1.635,2.637 -2.239,4.073 -0.597,2.98 -0.334,5.844 1.15,8.545 C -1.516,-1.542 -0.939,-0.599 0,0"
         style="fill:#fbbb05;fill-opacity:1;fill-rule:nonzero;stroke:none"
         id="path3753" />
    </g>
    <g
       id="g3755"
       transform="matrix(0.35277777,0,0,-0.35277777,144.24935,124.45017)"
       style="display:inline">
      <path
         d="m 0,0 c 0.419,-2.495 0.839,-4.99 1.259,-7.485 -3.052,-2.222 -7.064,-1.692 -9.387,1.24 -2.309,2.913 -1.907,6.895 0.951,9.429 C -6.06,2.316 -5.003,1.348 -3.708,0.757 -2.544,0.226 -1.315,-0.136 0,0"
         style="fill:#5ca008;fill-opacity:1;fill-rule:nonzero;stroke:none"
         id="path3757" />
    </g>
    <g
       id="g3759"
       transform="matrix(0.35277777,0,0,-0.35277777,120.63991,133.45017)"
       style="display:inline">
      <path
         d="m 0,0 c 3.702,-1.332 7.404,-2.664 11.132,-4.005 -0.149,-0.419 -0.486,-0.228 -0.703,-0.229 -7.156,-0.013 -14.312,-0.02 -21.468,-0.007 -3.087,0.006 -5.047,1.583 -5.331,4.228 C -10.913,-0.009 -5.457,-0.004 0,0"
         style="fill:#84d1f2;fill-opacity:1;fill-rule:nonzero;stroke:none"
         id="path3761" />
    </g>
    <g
       id="g3763"
       transform="matrix(0.35277777,0,0,-0.35277777,135.47972,120.57142)"
       style="display:inline">
      <path
         d="m 0,0 c -2.188,0.012 -4.078,-0.935 -5.973,-1.862 -0.282,0.158 -0.271,0.454 -0.368,0.713 -0.519,1.387 -0.593,2.925 -1.428,4.203 -0.194,2.409 -1.137,4.634 -1.788,6.923 -0.37,1.3 -0.297,1.972 1.146,2.169 0.694,0.096 1.373,0.31 2.059,0.47 C -5.884,10.975 -5.444,9.325 -4.94,7.695 -4.222,5.374 -2.65,3.928 -0.298,3.328 0.159,2.251 -0.133,1.106 0,0"
         style="fill:#7ab92d;fill-opacity:1;fill-rule:nonzero;stroke:none"
         id="path3765" />
    </g>
    <g
       id="g3767"
       transform="matrix(0.35277777,0,0,-0.35277777,132.73896,119.49407)"
       style="display:inline">
      <path
         d="M 0,0 C 0.835,-1.278 0.909,-2.816 1.428,-4.203 1.525,-4.462 1.514,-4.758 1.796,-4.916 1.564,-5.181 1.331,-5.446 1.099,-5.711 0.16,-6.31 -0.417,-7.253 -1.132,-8.064 c -3.703,2.425 -7.4,4.859 -11.115,7.266 -0.586,0.379 -0.727,0.668 -0.117,1.139 0.712,0.55 1.19,1.371 2.034,1.773 2.115,-1.755 4.398,-3.259 6.846,-4.505 0.603,-0.307 1.373,-0.447 1.884,0.004 0.433,0.381 -0.187,0.949 -0.198,1.449 C -1.824,0.154 -2.908,1.085 -2.28,2.271 -1.52,1.514 -0.76,0.757 0,0"
         style="fill:#5ca008;fill-opacity:1;fill-rule:nonzero;stroke:none"
         id="path3769" />
    </g>
    <g
       id="g3771"
       transform="matrix(0.35277777,0,0,-0.35277777,128.40268,126.68837)"
       style="display:inline">
      <path
         d="m 0,0 c 0.35,-0.384 0.68,-0.787 1.054,-1.147 0.817,-0.788 1.234,-1.688 0.779,-2.806 -0.455,-1.118 -1.361,-1.504 -2.517,-1.424 -0.235,0.016 -0.473,-0.002 -0.709,-0.004 -0.386,0.58 -0.859,1.071 -1.46,1.432 -0.449,0.679 -1.03,1.229 -1.686,1.704 -1.118,1.487 -2.568,2.656 -3.839,3.997 -1.244,1.313 -1.38,2.606 -0.343,3.623 1.029,1.01 2.315,0.869 3.621,-0.403 C -3.399,3.316 -1.7,1.657 0,0"
         style="fill:#a1d41d;fill-opacity:1;fill-rule:nonzero;stroke:none"
         id="path3773" />
    </g>
    <g
       id="g3775"
       transform="matrix(0.35277777,0,0,-0.35277777,155.35452,144.76594)"
       style="display:inline">
      <path
         d="M 0,0 C -1.063,-0.61 -2.103,0.109 -3.158,0.057 -3.956,0.018 -4.755,0.021 -5.554,0.005 -5.939,1.757 -5.303,3.249 -4.366,4.665 -3.089,4.656 -1.799,4.523 -0.539,4.662 2.549,5.003 5.183,6.165 6.626,9.168 8.126,9.23 8.293,9.076 7.971,7.63 7.013,3.324 4.253,0.875 0,0"
         style="fill:#7ab92d;fill-opacity:1;fill-rule:nonzero;stroke:none"
         id="path3777" />
    </g>
    <g
       id="g3779"
       transform="matrix(0.35277777,0,0,-0.35277777,127.39621,128.08156)"
       style="display:inline">
      <path
         d="M 0,0 C 0.601,-0.361 1.074,-0.852 1.46,-1.432 1.069,-2.471 0.679,-3.511 0.289,-4.55 -0.867,-6.525 -2.816,-7.613 -4.587,-8.9 c -2.006,0.463 -3.969,1.052 -5.813,1.988 0.314,0.777 0.627,1.554 0.941,2.332 0.566,0 1.133,-0.023 1.698,0.003 C -4.366,-4.426 -1.725,-2.987 0,0"
         style="fill:#5ca008;fill-opacity:1;fill-rule:nonzero;stroke:none"
         id="path3781" />
    </g>
    <g
       id="g3783"
       transform="matrix(0.35277777,0,0,-0.35277777,135.3746,119.39737)"
       style="display:inline">
      <path
         d="m 0,0 c -2.352,0.6 -3.924,2.046 -4.642,4.367 -0.504,1.63 -0.944,3.28 -1.412,4.921 1.771,0.523 3.543,1.046 5.504,1.625 C -0.363,7.194 -0.181,3.597 0,0"
         style="fill:#a1d41d;fill-opacity:1;fill-rule:nonzero;stroke:none"
         id="path3785" />
    </g>
    <g
       id="g3787"
       transform="matrix(0.35277777,0,0,-0.35277777,131.93448,118.69273)"
       style="display:inline">
      <path
         d="m 0,0 c -0.628,-1.186 0.456,-2.117 0.482,-3.21 0.012,-0.5 0.631,-1.067 0.199,-1.448 -0.512,-0.451 -1.281,-0.311 -1.884,-0.004 -2.448,1.245 -4.731,2.749 -6.846,4.505 1.233,1.231 2.479,2.451 3.694,3.702 0.42,0.433 0.689,0.276 1.027,-0.082 C -2.229,2.299 -1.111,1.153 0,0"
         style="fill:#7ab92d;fill-opacity:1;fill-rule:nonzero;stroke:none"
         id="path3789" />
    </g>
    <g
       id="g3791"
       transform="matrix(0.35277777,0,0,-0.35277777,143.04712,131.51511)"
       style="display:inline">
      <path
         d="m 0,0 c -1.418,-0.85 -2.83,-1.708 -4.255,-2.547 -1.494,-0.88 -2.986,-0.815 -3.766,0.141 -0.826,1.011 -0.658,2.003 0.598,3.525 1.996,0.683 3.573,2.151 5.515,2.934 C -1.101,2.783 -0.473,1.428 0,0"
         style="fill:#e49730;fill-opacity:1;fill-rule:nonzero;stroke:none"
         id="path3793" />
    </g>
    <g
       id="g3795"
       transform="matrix(0.35277777,0,0,-0.35277777,138.92026,122.79501)"
       style="display:inline">
      <path
         d="m 0,0 c -1.73,-0.58 -3.185,-1.669 -4.745,-2.566 -1.631,-0.938 -3.304,-0.328 -3.754,1.344 -0.321,1.188 0.329,1.947 1.21,2.489 1.456,0.895 2.975,1.687 4.47,2.522 C -1.486,2.818 -0.482,1.603 0,0"
         style="fill:#e49730;fill-opacity:1;fill-rule:nonzero;stroke:none"
         id="path3797" />
    </g>
    <g
       id="g3799"
       transform="matrix(0.35277777,0,0,-0.35277777,127.39621,128.08156)"
       style="display:inline">
      <path
         d="M 0,0 C -1.725,-2.987 -4.366,-4.426 -7.761,-4.577 -8.326,-4.603 -8.893,-4.58 -9.459,-4.58 -8.174,-0.869 -5.465,1.079 -1.686,1.704 -1.03,1.229 -0.449,0.68 0,0"
         style="fill:#7ab92d;fill-opacity:1;fill-rule:nonzero;stroke:none"
         id="path3801" />
    </g>
    <g
       id="g3803"
       transform="matrix(0.35277777,0,0,-0.35277777,140.64019,126.43875)"
       style="display:inline">
      <path
         d="m 0,0 c -1.464,-0.57 -2.739,-1.486 -4.097,-2.25 -0.925,-0.521 -1.791,-0.543 -2.642,0.123 -1.384,1.083 -1.316,2.875 0.196,3.786 1.499,0.903 3.044,1.728 4.569,2.588 C -1.173,2.898 -0.465,1.505 0,0"
         style="fill:#e49730;fill-opacity:1;fill-rule:nonzero;stroke:none"
         id="path3805" />
    </g>
    <g
       id="g3807"
       transform="matrix(0.35277777,0,0,-0.35277777,157.69199,141.53164)"
       style="display:inline">
      <path
         d="m 0,0 c -1.443,-3.003 -4.077,-4.166 -7.165,-4.506 -1.26,-0.139 -2.55,-0.006 -3.827,0.003 1.253,2.397 3.355,3.657 5.861,4.376 C -3.427,0.146 -1.713,0.064 0,0"
         style="fill:#a1d41d;fill-opacity:1;fill-rule:nonzero;stroke:none"
         id="path3809" />
    </g>
    <g
       id="g3811"
       transform="matrix(0.35277777,0,0,-0.35277777,134.75462,152.61503)"
       style="display:inline">
      <path
         d="m 0,0 c 0.01,7.388 0.015,14.776 0.035,22.164 0.005,2.125 1.132,3.771 2.978,4.43 1.934,0.69 3.777,0.195 5.147,-1.403 C 8.941,24.279 9.198,23.199 9.197,22.013 9.191,14.482 9.203,6.951 9.21,-0.58 9.203,-2.147 9.22,-3.715 9.185,-5.281 9.129,-7.754 7.054,-9.762 4.599,-9.757 2.075,-9.751 0.091,-7.818 0.037,-5.27 -0.001,-3.514 0.01,-1.757 0,0"
         style="fill:#2d72bb;fill-opacity:1;fill-rule:nonzero;stroke:none"
         id="path3813" />
    </g>
    <g
       id="g3815"
       transform="matrix(0.35277777,0,0,-0.35277777,128.29844,149.89286)"
       style="display:inline">
      <path
         d="m 0,0 c 0.004,4.719 0.006,9.438 0.014,14.157 0.005,2.986 1.92,5.046 4.65,5.011 C 7.318,19.135 9.167,17.085 9.171,14.157 9.181,7.722 9.185,1.287 9.192,-5.148 9.185,-7.667 9.186,-10.187 9.171,-12.706 9.154,-15.425 7.169,-17.479 4.58,-17.473 1.952,-17.467 0.025,-15.461 0.015,-12.693 0.001,-8.462 0.004,-4.231 0,0"
         style="fill:#2d72bb;fill-opacity:1;fill-rule:nonzero;stroke:none"
         id="path3817" />
    </g>
    <g
       id="g3819"
       transform="matrix(0.35277777,0,0,-0.35277777,122.65763,143.31518)"
       style="display:inline">
      <path
         d="m 0,0 c 2.065,0.826 3.972,0.78 5.612,-0.953 0.868,-0.916 1.231,-1.998 1.233,-3.238 0.004,-2.236 0.023,-4.472 0.037,-6.708 -0.013,-6.716 -0.026,-13.433 -0.039,-20.15 -0.006,-2.962 -1.92,-5.075 -4.592,-5.069 -2.726,0.005 -4.567,2.049 -4.567,5.08 -0.002,8.718 0.036,17.436 -0.028,26.154 C -2.359,-2.795 -1.73,-1.173 0,0"
         style="fill:#2d72bb;fill-opacity:1;fill-rule:nonzero;stroke:none"
         id="path3821" />
    </g>
    <g
       id="g3823"
       transform="matrix(0.35277777,0,0,-0.35277777,144.46652,147.37833)"
       style="display:inline">
      <path
         d="m 0,0 c -3.52,-6.047 -2.55,-12.194 -0.417,-18.369 0.154,-0.444 0.271,-0.9 0.406,-1.35 -0.083,-2.865 -1.995,-4.891 -4.608,-4.882 -2.716,0.01 -4.554,2.047 -4.561,5.052 -0.003,1.374 -0.012,2.749 -0.019,4.124 0.007,7.584 0.007,15.167 0.024,22.75 0.004,2.124 1.137,3.77 2.986,4.427 1.935,0.687 3.783,0.187 5.147,-1.414 C -0.3,9.465 -0.012,8.435 -0.016,7.297 -0.024,4.865 -0.007,2.432 0,0"
         style="fill:#2d72bb;fill-opacity:1;fill-rule:nonzero;stroke:none"
         id="path3825" />
    </g>
    <g
       id="g3827"
       transform="matrix(0.35277777,0,0,-0.35277777,152.75109,144.91795)"
       style="display:inline">
      <path
         d="m 0,0 c -0.11,-0.653 -0.201,-1.31 -0.335,-1.958 -0.257,-1.246 -1.274,-2.116 -2.491,-2.131 -1.381,-0.016 -2.218,0.746 -2.6,1.998 -0.205,0.672 -0.246,1.395 -0.362,2.094 -0.338,2.714 -0.613,5.439 -1.032,8.141 -0.463,2.978 0.076,4.514 2.214,5.697 0.381,-3.038 0.756,-6.076 1.145,-9.112 0.359,-2.793 0.634,-4.28 3.385,-4.236 C -0.051,0.329 -0.025,0.164 0,0"
         style="fill:#7ab92d;fill-opacity:1;fill-rule:nonzero;stroke:none"
         id="path3829" />
    </g>
    <g
       id="g3831"
       transform="matrix(0.35277777,0,0,-0.35277777,152.72431,144.744)"
       style="display:inline">
      <path
         d="M 0,0 C -2.751,-0.044 -3.026,1.443 -3.385,4.235 -3.774,7.272 -4.149,10.31 -4.53,13.348 -1.23,14.495 1.471,12.492 1.154,9.002 0.88,5.992 0.393,3 0,0"
         style="fill:#a1d41d;fill-opacity:1;fill-rule:nonzero;stroke:none"
         id="path3833" />
    </g>
    <g
       id="g3835"
       transform="matrix(0.35277777,0,0,-0.35277777,157.08838,149.69449)"
       style="display:inline">
      <path
         d="m 0,0 c 0.094,-1.291 -0.694,-1.957 -1.782,-2.218 -1.112,-0.266 -2.025,0.335 -2.435,1.309 -0.673,1.598 -1.652,2.8 -3.177,3.672 -0.954,0.545 -1.415,1.485 -0.94,2.68 0.521,1.311 1.535,1.629 2.767,1.395 C -3.354,6.417 0.017,2.229 0,0"
         style="fill:#f79a8b;fill-opacity:1;fill-rule:nonzero;stroke:none"
         id="path3837" />
    </g>
    <g
       id="g3839"
       transform="matrix(0.35277777,0,0,-0.35277777,148.50156,127.37382)"
       style="display:inline">
      <path
         d="M 0,0 C -0.036,1.663 -0.571,3.239 -0.853,4.859 0.983,4.382 2.781,4.525 4.556,5.168 4.829,5.267 5.23,5.582 5.382,5.073 5.795,3.689 6.811,2.662 7.457,1.42 6.982,-0.196 5.862,-1.53 5.45,-3.173 4.402,-5.36 3.355,-7.546 2.175,-10.008 1.41,-6.485 0.705,-3.243 0,0"
         style="fill:#5ca008;fill-opacity:1;fill-rule:nonzero;stroke:none"
         id="path3841" />
    </g>
    <g
       id="g3843"
       transform="matrix(0.35277777,0,0,-0.35277777,150.42431,128.49308)"
       style="display:inline">
      <path
         d="M 0,0 C 0.412,1.643 1.532,2.977 2.006,4.592 3.33,4.078 4.318,3.01 5.692,2.518 7.628,1.824 9.521,2.088 11.448,2.31 10.69,0.68 10.174,-1.061 9.187,-2.585 8.916,-2.216 8.513,-2.214 8.149,-2.306 4.983,-3.108 2.387,-1.93 0,0"
         style="fill:#a1d41d;fill-opacity:1;fill-rule:nonzero;stroke:none"
         id="path3845" />
    </g>
    <g
       id="g3847"
       transform="matrix(0.35277777,0,0,-0.35277777,136.4784,126.86892)"
       style="display:inline">
      <path
         d="m 0,0 c 1.096,-2.03 2.602,-3.824 3.451,-5.995 -2.073,-1.235 -4.15,-2.464 -6.217,-3.711 -0.505,-0.305 -0.815,-0.239 -1.153,0.276 -0.962,1.466 -1.945,2.922 -2.991,4.328 -0.477,0.641 -0.192,0.807 0.342,1.121 C -4.362,-2.683 -2.187,-1.332 0,0"
         style="fill:#fbbb05;fill-opacity:1;fill-rule:nonzero;stroke:none"
         id="path3849" />
    </g>
  </g>
</svg>
