<svg id="Layer_16" data-name="Layer 16" xmlns="http://www.w3.org/2000/svg" viewBox="0 0 895 511.11"><defs><style>.cls-1{fill:#fff;}.cls-2{fill:none;stroke:#1d1d1b;stroke-miterlimit:10;stroke-width:5px;}</style></defs><path class="cls-1" d="M616.16,143.09s-22.58-20.25-64,33.15S502.21,290.68,443,331.52s-102.49,69.41-169.83,31.31,21.21,66.93,116.56,57,158.1-66,189-114.29S662.43,182.9,616.16,143.09Z"/><path class="cls-2" d="M616.16,143.09s-22.58-20.25-64,33.15S502.21,290.68,443,331.52s-102.49,69.41-169.83,31.31,21.21,66.93,116.56,57,158.1-66,189-114.29S662.43,182.9,616.16,143.09Z"/><path class="cls-1" d="M610,133.2s-22.58-20.2-64,33.16S496,280.79,436.79,321.64,334.3,391,267,352.94s21.21,66.93,116.57,57,158.09-66,189-114.3S656.25,173,610,133.2Z"/><path class="cls-2" d="M610,133.2s-22.58-20.2-64,33.16S496,280.79,436.79,321.64,334.3,391,267,352.94s21.21,66.93,116.57,57,158.09-66,189-114.3S656.25,173,610,133.2Z"/><path class="cls-1" d="M591.91,133.85s26.74-2.88,32.16-22.31S646.86,82,651.66,100.05c0,0-12.15-.45-13.48,17.57s-12.46,5.11-6.08,32.43Z"/><path class="cls-2" d="M591.91,133.85s26.74-2.88,32.16-22.31S646.86,82,651.66,100.05c0,0-12.15-.45-13.48,17.57s-12.46,5.11-6.08,32.43Z"/><path class="cls-1" d="M536.82,162.33s19.71,5,29-2.3,12.43.6,16.81,10,12.55,9.18,19.71,7.46,15.16-8.36,17.06-1.51c4.29,15.44.11,17.65,11.09,29.08,12.15,12.64,2.5-3.34,4.36-14.54s10.42-27.46-4.78-46.6-14.92-11.43-30.54-14.31c-9.08-1.67-20.18,3.18-32.88,11.3C557.51,146.73,556.73,153.6,536.82,162.33Z"/><path class="cls-2" d="M536.82,162.33s19.71,5,29-2.3,12.43.6,16.81,10,12.55,9.18,19.71,7.46,15.16-8.36,17.06-1.51c4.29,15.44.11,17.65,11.09,29.08,12.15,12.64,2.5-3.34,4.36-14.54s10.42-27.46-4.78-46.6-14.92-11.43-30.54-14.31c-9.08-1.67-20.18,3.18-32.88,11.3C557.51,146.73,556.73,153.6,536.82,162.33Z"/></svg>