<svg id="Layer_49" data-name="Layer 49" xmlns="http://www.w3.org/2000/svg" viewBox="0 0 895 511.11"><defs><style>.cls-1{fill:#fff;}.cls-2{fill:#1d1d1b;}</style></defs><path class="cls-1" d="M652.55,255.59s5.13,2.26,2.71,7.37-12,5.06-19.65,10-38.48,39.27-56.93,42.93c-19.33-5.18-21.31-19.33-21.31-19.33S633,248.7,652.55,255.59Z"/><path class="cls-2" d="M578.68,317a1.36,1.36,0,0,1-.29,0c-19.81-5.31-22-19.64-22.11-20.25a1.1,1.1,0,0,1,.5-1.09c2.7-1.7,66.37-41.79,91.11-41.79a15.33,15.33,0,0,1,5,.74,7.49,7.49,0,0,1,3.75,3.84,6.36,6.36,0,0,1-.41,5.06c-1.6,3.34-5.57,4.65-10.16,6.17a43.29,43.29,0,0,0-9.89,4.25c-2.13,1.37-6.23,5.21-11.43,10.07-12.93,12.09-32.46,30.35-45.89,33A.75.75,0,0,1,578.68,317Zm-20.07-19.9c.66,2.82,4.17,13.29,20.1,17.66,12.81-2.72,31.9-20.57,44.55-32.41,5.28-4.94,9.46-8.84,11.76-10.31a44.75,44.75,0,0,1,10.38-4.49c4.12-1.36,7.67-2.54,8.86-5a4.19,4.19,0,0,0,.33-3.34,5.24,5.24,0,0,0-2.49-2.55,13.06,13.06,0,0,0-4.21-.58C625.08,256,565.47,292.78,558.61,297.06Z"/><path class="cls-1" d="M517.77,256.27S544.5,277,571.36,269.56c21.35-5.93,53.59-21.69,66.94-21s20.14,9.28,12.71,10.66-14.36.27-29.91,7.05c-25.53,11.12-35.51,28.32-60.57,37.36C533.4,298.81,517.77,256.27,517.77,256.27Z"/><path class="cls-2" d="M560.53,304.72l-.2,0c-27.43-4.86-43-46.28-43.6-48.05a1.1,1.1,0,0,1,1.71-1.25c.19.14,19.18,14.67,40.74,14.67a44.32,44.32,0,0,0,11.89-1.58c8.08-2.24,17.9-6,27.39-9.57,16.16-6.13,31.37-11.89,39.9-11.49,9.74.49,16.56,5,16.82,9,.05.73-.09,3.17-4,3.89-2,.36-3.89.56-5.92.76-5.81.59-12.39,1.25-23.76,6.22-12.06,5.25-20.68,11.93-29,18.39-9.44,7.3-18.35,14.21-31.62,19A1,1,0,0,1,560.53,304.72Zm-40.3-45.36c4.38,10.11,18.69,39.06,40.2,43.11,12.79-4.67,21.5-11.42,30.73-18.57,8.45-6.54,17.18-13.3,29.49-18.66a71.68,71.68,0,0,1,24.43-6.39c2-.2,3.85-.39,5.73-.74.84-.16,2.23-.57,2.16-1.56-.14-2.1-5.46-6.44-14.72-6.91-8.07-.43-23.79,5.58-39,11.35-9.54,3.62-19.4,7.36-27.58,9.64a46.64,46.64,0,0,1-12.48,1.65C541.89,272.28,526.61,263.58,520.23,259.36Z"/><path class="cls-1" d="M604.27,391.15s-5.72,5.52-13.83,3.93-19-17.88-22.8-27.91-23-28.73-67.12-37.46c-2.38-8,.29-13.26.29-13.26s49.66-3.13,70,18.82S604.27,391.15,604.27,391.15Z"/><path class="cls-2" d="M593.38,396.48a16.73,16.73,0,0,1-3.15-.31c-8.43-1.67-19.62-18.06-23.63-28.61-3.36-8.84-21.56-27.91-66.29-36.76a1.11,1.11,0,0,1-.85-.78c-2.48-8.36.24-13.85.36-14.08a1.13,1.13,0,0,1,.92-.6c.1,0,2.52-.15,6.52-.15,14,0,48.19,1.88,64.38,19.32,20.26,21.83,33.54,55.9,33.67,56.25A1.1,1.1,0,0,1,605,392,18,18,0,0,1,593.38,396.48Zm-92-67.72c45.11,9.08,63.51,28.14,67.27,38s14.41,25.73,22,27.23a14.66,14.66,0,0,0,2.72.26,15.93,15.93,0,0,0,9.57-3.43c-2-5-14.6-35.06-32.94-54.81-15.59-16.81-49.07-18.62-62.75-18.62-2.71,0-4.72.07-5.7.12A18.94,18.94,0,0,0,501.4,328.76Z"/><path class="cls-1" d="M454.78,355.94s-3.31,22.78,18.45,33.17,37.65,5.63,48,15,12.78,23.08,16.89,24.9,6.93-.74,8.37-4c.15-15.19-5-38.8-25.92-44.33S456.56,372.68,454.78,355.94Z"/><path class="cls-2" d="M540.74,430.78h0a7.43,7.43,0,0,1-3.09-.72c-2.12-.94-3.6-3.95-5.65-8.12-2.57-5.23-5.77-11.74-11.53-17-5.07-4.62-11.58-5.66-19.82-7-8-1.29-17.18-2.76-27.9-7.88-22.23-10.62-19.1-34.09-19.07-34.32a1.11,1.11,0,0,1,1.1-1h0a1.1,1.1,0,0,1,1.08,1c1.26,11.83,26.37,16.4,46.55,20.07,6.82,1.24,13.27,2.42,18.41,3.77,20,5.29,26.93,26.92,26.75,45.41a1.13,1.13,0,0,1-.1.44C546,428.86,543.54,430.78,540.74,430.78Zm-85-69.33c.42,7.15,3.38,19.7,18,26.66,10.43,5,19.39,6.42,27.29,7.69,8.27,1.33,15.4,2.47,21,7.53,6.07,5.51,9.52,12.52,12,17.63,1.71,3.47,3.18,6.46,4.57,7.08a5.28,5.28,0,0,0,2.18.52c2.47,0,3.94-2.25,4.64-3.74,0-6.61-1.17-36.68-25.1-43-5.06-1.33-11.47-2.49-18.25-3.73C483.27,374.67,462.37,370.87,455.75,361.45Z"/><path class="cls-1" d="M456.71,355.63s-26.2,16.79-33.07,30.14-6.42,38.76,11.76,47.45c-9.64,8-32.5-11.07-28.65-35.58,3.66-24.35,34.54-62.49,50.59-57.66C456.92,344.4,456.71,355.63,456.71,355.63Z"/><path class="cls-2" d="M430,436.19c-5.11,0-11.05-3.37-15.89-9a36.89,36.89,0,0,1-8.44-29.7c3.37-22.42,31.13-59,48.72-59a11.59,11.59,0,0,1,3.27.46,1.12,1.12,0,0,1,.79,1.17c-.41,4.33-.62,15.46-.62,15.57a1.12,1.12,0,0,1-.51.91c-.26.17-26,16.78-32.68,29.72-3.69,7.14-5.75,19.29-2,30.33,2.42,7.22,7,12.62,13.28,15.61a1.11,1.11,0,0,1,.62.86,1.1,1.1,0,0,1-.39,1A9.28,9.28,0,0,1,430,436.19Zm24.39-95.52c-15.6,0-43,33.64-46.53,57.14a34.64,34.64,0,0,0,7.94,27.92c5.51,6.45,12.88,9.68,17.41,7.59a28.17,28.17,0,0,1-12.7-16c-3.4-10.08-2.53-23,2.16-32.05,6.47-12.59,29.18-27.78,33-30.24,0-2.21.22-10,.53-14.19A9.18,9.18,0,0,0,454.38,340.67Z"/><path class="cls-1" d="M395.44,357.6s-18.67,21.83-36,28.74-40.81,7-52.6,3.51-35.61-14-49.38-6.88c9.92-14.53,80.21-16.43,80.21-16.43s57.39-33.07,65.73-26.53S395.44,357.6,395.44,357.6Z"/><path class="cls-2" d="M326.08,393.24a71.77,71.77,0,0,1-19.54-2.33c-2-.59-4.3-1.38-6.85-2.25-8.7-3-20.62-7-30.65-7A24,24,0,0,0,258,384a1.11,1.11,0,0,1-1.43-1.6c9.91-14.51,75.27-16.74,80.82-16.9,4.1-2.36,48.11-27.41,62.67-27.41a6.37,6.37,0,0,1,4.05,1.1,6.52,6.52,0,0,1,2.8,5.5c-.21,6.28-9.47,12.93-10.71,13.8-1.63,1.88-19.41,22.18-36.32,28.93C350.41,391.16,338.41,393.24,326.08,393.24Zm-57-13.81c10.4,0,22.52,4.12,31.36,7.13,2.52.86,4.81,1.64,6.77,2.23A69.64,69.64,0,0,0,326.08,391c11.88,0,23.89-2.08,33-5.72,16.86-6.73,35.36-28.21,35.55-28.43a1,1,0,0,1,.22-.19c2.69-1.83,9.72-7.58,9.86-12.12a4.34,4.34,0,0,0-1.95-3.69,4.46,4.46,0,0,0-2.68-.62c-14.37,0-61.33,27-61.8,27.24a1,1,0,0,1-.53.15c-.63,0-57.83,1.69-75.36,12.44A31.79,31.79,0,0,1,269,379.43Z"/><path class="cls-1" d="M349.63,332.71s-20.25,6.64-47.15,1.7-51.2-29.07-44-57.79c40.78,17,109.48,32.49,109.48,32.49Z"/><path class="cls-2" d="M322.61,337.35a112.31,112.31,0,0,1-20.33-1.85c-16.21-3-30.84-12.48-39.15-25.38a42.21,42.21,0,0,1-5.75-33.77,1.13,1.13,0,0,1,.58-.72,1.1,1.1,0,0,1,.92,0c40.23,16.78,108.62,32.27,109.3,32.43a1.09,1.09,0,0,1,.8.7,1.12,1.12,0,0,1-.16,1.06l-18.32,23.6a1.11,1.11,0,0,1-.53.37C349.53,333.91,338.86,337.35,322.61,337.35Zm-63.37-59.21A40,40,0,0,0,265,308.92c8,12.4,22.07,21.53,37.68,24.4a110.59,110.59,0,0,0,19.93,1.81A96.84,96.84,0,0,0,349,331.75l17-21.95C355.27,307.31,296.18,293.32,259.24,278.14Z"/><path class="cls-1" d="M242.12,229.35s-7.36-7.64,1.64-10.91,20.63,5.26,27.82,20.35,30.36,45,51.51,46.61c29,2.19,45.12-17.9,36.54-43.84s-39.92-68.08-20-124.57,90.27-72.63,129.56-63.28S550.28,88,550.79,147.47,519.13,233.7,522,251.59s17.72,39.19,46.73,50.8,31.47,41.45,31.74,50.54-2.15,23.56,4.22,28.73.05,13.52-6.65,9.79S585,376,580.4,359.2s-27.53-39.89-77.57-37.44c-.46,8.92-5,29.72,13.89,42.89s36.62,28.29,35.94,41.67-5.74,22.78-9,20.59-3.89-27.28-14.32-35c-20-14.76-35.84-5.21-53.06-12.36s-25.27-18.4-21.72-36.42c-17.07,9.41-52.09,36.42-43.71,66.34,7.07,25.26,25,22.35,42.17,26.48s33,15.87,29.4,21.86-10.6-3.08-27.27-.71-48.31,1-64.13-15.93-26.33-35.83,7-92c-21.09,10.05-29.86,14.34-40.24,18.83s-33.39,10.76-55.05,6.78-42.4,2.81-48.54,12-11.71,10.55-14.15,6.27-1.76-29.68,21.18-40,67.95,1.91,93-31.7c-21.08,3.65-56.88,3.77-75.8-12.77a73.64,73.64,0,0,1-24.65-46.6C252.76,252.71,243,230.64,242.12,229.35Z"/><path class="cls-2" d="M478.88,461a21.08,21.08,0,0,1-5.43-1.1,43.4,43.4,0,0,0-12.67-2.09,39.38,39.38,0,0,0-5.47.4,101.44,101.44,0,0,1-13.82.9c-10.6,0-36.83-1.67-51.28-17.18-15.91-17.1-26.48-35.76,5-90.21L388.34,355c-13.9,6.64-21.56,10.3-30.11,14a111.7,111.7,0,0,1-40.94,8.13,82.06,82.06,0,0,1-14.75-1.28,69.36,69.36,0,0,0-12.64-1.16c-15.49,0-29.79,5.22-34.78,12.69-3.93,5.86-8,9.09-11.42,9.09a5.25,5.25,0,0,1-4.61-2.88c-1.55-2.71-1.67-10.47.86-18.27A37.73,37.73,0,0,1,260.77,352c8-3.62,18.59-4.55,29.83-5.53,21-1.84,44.8-3.91,61-23.62a145.22,145.22,0,0,1-21.35,1.56c-13.21,0-37.6-2-52.57-15a75.34,75.34,0,0,1-25-47.32c-1-9.16-10.74-31-11.46-32.11h0s-3.77-3.93-2.87-7.8c.49-2.1,2.19-3.7,5.06-4.74a12.51,12.51,0,0,1,4.4-.78c8.78,0,18.52,8.52,24.8,21.7,7.06,14.77,29.86,44.41,50.59,46,14.27,1.08,26-3.38,32.44-12.29,5.72-7.91,6.77-18.6,3-30.1a197,197,0,0,0-7.69-18.32c-11.9-26.12-28.2-61.9-12.33-107,16.17-45.94,65.71-66.5,107.63-66.5a100.87,100.87,0,0,1,23.23,2.51c37.33,8.91,81.94,32.58,82.47,94.83.31,36.88-11.74,61.06-20.54,78.71-5.22,10.46-9.33,18.72-8.3,25.25,2.58,16.27,16,37.93,46,50,28.23,11.31,32.09,39.8,32.44,51.53.06,2.1,0,4.45-.1,6.93-.28,8.12-.59,17.32,3.9,21,2.69,2.18,3.7,5.18,2.69,8a7,7,0,0,1-6.64,4.66,8,8,0,0,1-3.93-1.07c-6.93-3.84-13.37-15.54-18.12-32.93-3.73-13.67-22.52-36.8-69.26-36.8-2,0-4.11,0-6.2.13-.06.81-.14,1.7-.23,2.65-.91,10.1-2.45,27,13.71,38.27,16,11.13,37.18,27.66,36.42,42.63-.61,11.91-4.78,22-9.11,22a2.85,2.85,0,0,1-1.62-.51c-1.48-1-2.2-4-3.56-10.13-1.88-8.53-4.47-20.21-10.8-24.9-11.53-8.53-21.77-8.74-31.66-8.94-6.86-.15-14-.29-21.17-3.28-17.71-7.37-25.18-18.94-22.78-35.33-18.65,10.9-48.79,36.66-41.16,63.92,5.52,19.69,17.48,21.6,31.33,23.82,3.29.53,6.68,1.07,10,1.88,13.74,3.32,27.28,11.61,30.19,18.5a5.37,5.37,0,0,1-.09,5A4.93,4.93,0,0,1,478.88,461Zm-18.1-5.4a45.89,45.89,0,0,1,13.28,2.17,20.13,20.13,0,0,0,4.82,1,2.68,2.68,0,0,0,2.59-1.54,3.2,3.2,0,0,0,0-3c-2.34-5.53-14.41-13.76-28.67-17.2-3.27-.79-6.63-1.33-9.87-1.85-14-2.24-27.21-4.36-33.11-25.41C401.5,380.16,435.1,352.6,454,342.16a1.12,1.12,0,0,1,1.19.08,1.08,1.08,0,0,1,.43,1.11c-3.28,16.66,3.41,27.84,21.06,35.18,6.83,2.83,13.4,3,20.36,3.11,10.25.21,20.84.43,32.94,9.38,7,5.18,9.68,17.33,11.65,26.2.81,3.66,1.81,8.22,2.64,8.78a.62.62,0,0,0,.37.12c2.08,0,6.27-7.54,6.9-19.86.7-13.87-19.91-29.87-35.47-40.7-17.22-12-15.55-30.4-14.65-40.29.12-1.33.23-2.53.28-3.56a1.1,1.1,0,0,1,1-1c2.46-.12,4.92-.19,7.3-.19,48.07,0,67.5,24.16,71.4,38.44,4.52,16.56,10.74,28.07,17.06,31.58a5.06,5.06,0,0,0,7.4-2.4c.69-2,0-4-2-5.57-5.35-4.34-5-14.13-4.73-22.76.08-2.45.16-4.77.1-6.8-.33-11.29-4-38.71-31-49.54-30.86-12.36-44.72-34.79-47.4-51.65-1.14-7.23,2.9-15.35,8.51-26.59,8.69-17.45,20.61-41.35,20.31-77.7-.52-60.81-44.21-84-80.77-92.69a98.65,98.65,0,0,0-22.72-2.46c-41.14,0-89.73,20.11-105.54,65-15.57,44.21.51,79.52,12.26,105.3a197.31,197.31,0,0,1,7.77,18.55c4,12.19,2.87,23.58-3.27,32.09-6.9,9.55-19.34,14.34-34.41,13.2-21.62-1.63-45.17-32.07-52.42-47.23-5.82-12.22-15-20.43-22.8-20.43a10.33,10.33,0,0,0-3.64.64c-2.12.77-3.36,1.83-3.66,3.16-.52,2.25,1.58,5.05,2.44,5.94,1.18,1.81,10.94,24,11.93,33.23a73,73,0,0,0,24.28,45.89c14.42,12.6,38.21,14.48,51.11,14.48a141.27,141.27,0,0,0,23.77-2,1.11,1.11,0,0,1,1.08,1.75c-16.79,22.56-42,24.76-64.3,26.71-11,1-21.47,1.87-29.11,5.34a35.57,35.57,0,0,0-19.62,22c-2.65,8.17-2,14.87-1.05,16.49a3,3,0,0,0,2.69,1.76c1.25,0,4.67-.79,9.58-8.1,5.38-8,20.44-13.67,36.62-13.67a71.88,71.88,0,0,1,13,1.19,79.44,79.44,0,0,0,14.35,1.25,109.21,109.21,0,0,0,40.06-8c8.51-3.68,16.16-7.33,30-14l10.17-4.85a1.11,1.11,0,0,1,1.43,1.57c-33,55.55-22.75,73.94-7.16,90.69,13.85,14.87,39.35,16.48,49.66,16.48A100.1,100.1,0,0,0,455,456,40.66,40.66,0,0,1,460.78,455.59Z"/><path class="cls-1" d="M285.54,326.58c-1.2,2.05-3.1,2.05-7.93-.89-2.72-1.66-10.1-4.27-10.67-6.13a4.2,4.2,0,0,1,1.05-3.67c1.59-1.82,6-1.05,10.87,1.9S286.68,324.65,285.54,326.58Z"/><path class="cls-2" d="M283.26,329.13c-1.49,0-3.35-.75-6.23-2.49a40.58,40.58,0,0,0-3.75-1.87c-4.27-2-6.91-3.29-7.39-4.88a5.25,5.25,0,0,1,1.25-4.7,4.44,4.44,0,0,1,3.58-1.39c2.4,0,5.5,1.08,8.71,3.05,4.81,2.91,8.79,7.38,7.06,10.3A3.56,3.56,0,0,1,283.26,329.13ZM270.72,316a2.58,2.58,0,0,0-1.89.59,3.21,3.21,0,0,0-.83,2.62c.36.83,4.17,2.59,6.21,3.53a44,44,0,0,1,4,2c2.41,1.45,4.07,2.16,5.08,2.16.49,0,.89-.15,1.32-.89.62-1-1.53-4.39-6.3-7.28C275.45,317,272.69,316,270.72,316Z"/><path class="cls-1" d="M282,327.75c-.54.9-4.18-.35-8.13-2.74s-6.7-5.07-6.15-5.95,4.17.32,8.1,2.72S282.56,326.84,282,327.75Z"/><path class="cls-2" d="M281.24,329.15c-1.94,0-5.36-1.65-7.91-3.19-2.82-1.71-6.26-4.35-6.7-6.18a1.6,1.6,0,0,1,.18-1.3,1.82,1.82,0,0,1,1.72-.82c2,0,5.38,1.64,7.9,3.17s7.9,5.18,6.55,7.48A1.85,1.85,0,0,1,281.24,329.15Zm-12-9.18a22.57,22.57,0,0,0,5.22,4.1,23.27,23.27,0,0,0,6.06,2.76,23.55,23.55,0,0,0-5.26-4.11A23,23,0,0,0,269.25,320Z"/><path class="cls-1" d="M321.53,334.31c-.45,2.34-3.41,5.16-9,4-3.11-.65-9.77-2.83-10.91-4.38a4,4,0,0,1-.24-3.81c.86-2.26,5.31-3,10.87-1.86S322,332.14,321.53,334.31Z"/><path class="cls-2" d="M315,339.69a13.42,13.42,0,0,1-2.68-.28c-2.09-.44-10-2.67-11.57-4.81a5.09,5.09,0,0,1-.38-4.89c.76-2,3.27-3.08,7.08-3.08a25.06,25.06,0,0,1,5,.56c5.51,1.15,10.75,4,10.11,7.33C322.14,337,319.55,339.69,315,339.69Zm-7.55-10.84c-2.66,0-4.63.65-5,1.67a3.08,3.08,0,0,0,.09,2.75c.79,1.07,6.63,3.21,10.25,4a11.16,11.16,0,0,0,2.23.24c3.28,0,5.11-1.76,5.43-3.38.22-1.14-3-3.62-8.39-4.75A23.45,23.45,0,0,0,307.47,328.85Z"/><path class="cls-1" d="M318.2,338.44c-.2,1-4,1.08-8.56.15s-8-2.55-7.79-3.56,4-1.09,8.57-.13S318.43,337.43,318.2,338.44Z"/><path class="cls-2" d="M315.29,340.36a30.69,30.69,0,0,1-5.88-.68c-1.18-.25-7.1-1.6-8.39-3.61a1.65,1.65,0,0,1-.25-1.28c.3-1.5,2.43-1.67,4-1.67a29.57,29.57,0,0,1,5.88.69c3.22.67,7.35,2,8.37,3.59a1.61,1.61,0,0,1,.26,1.28C319,340.18,316.87,340.36,315.29,340.36Zm-11.72-5a23.1,23.1,0,0,0,6.3,2.12,28.3,28.3,0,0,0,5.42.64,8.81,8.81,0,0,0,1.19-.07,22.77,22.77,0,0,0-6.29-2.1,27.36,27.36,0,0,0-5.42-.65A11.54,11.54,0,0,0,303.57,335.39Z"/><path class="cls-1" d="M303,388.11c-.45,2.33-3.4,5.15-9,4-3.1-.66-9.75-2.83-10.92-4.36a4.12,4.12,0,0,1-.21-3.84c.84-2.25,5.3-3,10.86-1.85S303.39,385.92,303,388.11Z"/><path class="cls-2" d="M296.47,393.48a13.25,13.25,0,0,1-2.67-.28c-2.1-.45-10-2.68-11.58-4.78a5.17,5.17,0,0,1-.36-4.92c.74-2,3.25-3.08,7.06-3.08A25.16,25.16,0,0,1,294,381c5.5,1.15,10.73,4,10.09,7.34C303.58,390.81,301,393.48,296.47,393.48Zm-7.55-10.84c-2.66,0-4.62.65-5,1.66a3,3,0,0,0,.06,2.78c.79,1.05,6.64,3.18,10.26,3.95a11,11,0,0,0,2.22.24c3.49,0,5.15-2,5.41-3.37.23-1.18-2.91-3.61-8.36-4.75A22.86,22.86,0,0,0,288.92,382.64Z"/><path class="cls-1" d="M300.05,391.59c-.21,1-4.05,1.06-8.57.14s-8-2.52-7.8-3.57,4.05-1.06,8.57-.13S300.25,390.56,300.05,391.59Z"/><path class="cls-2" d="M297.15,393.49a30.88,30.88,0,0,1-5.9-.68,29.16,29.16,0,0,1-5.9-1.81c-1.33-.61-3.06-1.58-2.75-3.06s2.42-1.68,4-1.68a30.78,30.78,0,0,1,5.89.68c2.17.45,9.21,2.12,8.67,4.87C300.82,393.32,298.71,393.49,297.15,393.49Zm-11.77-5a21.89,21.89,0,0,0,6.32,2.11,28.68,28.68,0,0,0,5.45.64,8.87,8.87,0,0,0,1.17-.06,22.66,22.66,0,0,0-6.3-2.11,28.49,28.49,0,0,0-5.44-.64A11.7,11.7,0,0,0,285.38,388.53Z"/><path class="cls-1" d="M347,390.74c.36,2.39-1.45,6-7.09,6.82-3.12.42-10.12.63-11.74-.46a4.1,4.1,0,0,1-1.51-3.52c0-2.41,4-4.6,9.61-5.4S346.68,388.55,347,390.74Z"/><path class="cls-2" d="M334.11,399c-5.06,0-6.17-.74-6.54-1a5.28,5.28,0,0,1-2-4.48c.05-3,4.2-5.56,10.56-6.46a26.16,26.16,0,0,1,3.59-.26c4.82,0,8,1.44,8.4,3.74a6.19,6.19,0,0,1-1.25,4.52c-1,1.33-3,3-6.78,3.57A48.18,48.18,0,0,1,334.11,399Zm5.61-10a24.8,24.8,0,0,0-3.28.23c-5.38.77-8.63,2.8-8.65,4.32a3,3,0,0,0,1,2.58c.1.07,1,.61,5.31.61a47.12,47.12,0,0,0,5.67-.33c3.05-.42,4.57-1.7,5.31-2.69a4,4,0,0,0,.84-2.86C345.81,390.16,343.75,389.05,339.72,389.05Z"/><path class="cls-1" d="M345.72,394.77c.15,1-3.44,2.36-8,3s-8.38.29-8.52-.72,3.45-2.38,8-3S345.59,393.72,345.72,394.77Z"/><path class="cls-2" d="M333.39,399.21c-3.44,0-5.13-.64-5.32-2-.36-2.67,6.15-3.88,9-4.27a33.74,33.74,0,0,1,4.52-.34c3.41,0,5.09.64,5.26,2a1.62,1.62,0,0,1-.35,1.22c-1.42,1.92-7.43,2.86-8.62,3A32.46,32.46,0,0,1,333.39,399.21Zm-2.48-2.4a24.59,24.59,0,0,0,6.63-.13A23.21,23.21,0,0,0,344,395a25.09,25.09,0,0,0-6.64.13A22.8,22.8,0,0,0,330.91,396.81Z"/><path class="cls-1" d="M375.68,374.39c1.17,2.07.77,6.12-4.2,8.85-2.76,1.53-9.23,4.23-11.12,3.8a4.14,4.14,0,0,1-2.67-2.77c-.82-2.26,2.08-5.72,7-8.47S374.58,372.43,375.68,374.39Z"/><path class="cls-2" d="M360.84,388.19a2.77,2.77,0,0,1-.73-.08,5.17,5.17,0,0,1-3.47-3.48c-1-2.84,1.93-6.69,7.55-9.8a19.39,19.39,0,0,1,8.68-2.69c2.33,0,3.34.93,3.77,1.7a6.08,6.08,0,0,1,.43,4.64c-.45,1.6-1.7,3.88-5.06,5.73C369.44,385.64,363.51,388.19,360.84,388.19Zm12-13.83a17.45,17.45,0,0,0-7.61,2.41c-4.75,2.63-7.05,5.69-6.53,7.12A3,3,0,0,0,360.6,386a.9.9,0,0,0,.24,0c2,0,7.48-2.24,10.1-3.7s3.67-3.21,4-4.39a4,4,0,0,0-.22-2.95C374.51,374.57,373.82,374.36,372.87,374.36Z"/><path class="cls-1" d="M375.32,378.81c.52.91-2.36,3.46-6.4,5.7s-7.72,3.27-8.23,2.36,2.37-3.45,6.41-5.68S374.83,377.9,375.32,378.81Z"/><path class="cls-2" d="M361.59,388.3a1.94,1.94,0,0,1-1.87-.89,1.66,1.66,0,0,1-.12-1.3c.65-2.31,5.92-5.32,7-5.89,3.18-1.75,6.19-2.84,7.87-2.84a1.94,1.94,0,0,1,1.86.9,1.71,1.71,0,0,1,.12,1.29c-.65,2.31-5.91,5.33-7,5.91C366.28,387.22,363.27,388.3,361.59,388.3Zm12.17-8.6a21.6,21.6,0,0,0-6.12,2.46,22.89,22.89,0,0,0-5.42,3.86,22.66,22.66,0,0,0,6.17-2.48A23.44,23.44,0,0,0,373.76,379.7Z"/><path class="cls-1" d="M445.68,363.11c1.65,1.75,2.24,5.78-1.9,9.62-2.32,2.16-7.95,6.33-9.88,6.38a4.22,4.22,0,0,1-3.26-2c-1.32-2,.64-6.09,4.79-10S444.16,361.5,445.68,363.11Z"/><path class="cls-2" d="M433.84,380.22a5.41,5.41,0,0,1-4.11-2.49c-1.69-2.56.25-7,4.94-11.39,3.28-3,6.87-4.93,9.36-4.93a3.24,3.24,0,0,1,2.46.94,6.17,6.17,0,0,1,1.54,4.43c0,1.65-.7,4.17-3.49,6.77-1.57,1.45-7.93,6.59-10.61,6.66ZM444,363.63c-1.58,0-4.62,1.34-7.85,4.33-4,3.7-5.46,7.24-4.61,8.53a3.27,3.27,0,0,0,2.27,1.51v1.11l0-1.11c1.33,0,6.45-3.56,9.16-6.08,2.23-2.07,2.75-4,2.79-5.21a4.06,4.06,0,0,0-.94-2.84A1.25,1.25,0,0,0,444,363.63Z"/><path class="cls-1" d="M447.13,368.21c.71.75-1.45,3.93-4.84,7.06s-6.69,5.07-7.4,4.31,1.44-3.93,4.83-7.07S446.42,367.45,447.13,368.21Z"/><path class="cls-2" d="M435.36,380.85a1.63,1.63,0,0,1-1.72-1.76c.07-1.88,2.8-5,5.33-7.39s5.8-4.76,7.68-4.76a1.68,1.68,0,0,1,1.29.52,1.64,1.64,0,0,1,.43,1.23c-.06,1.88-2.91,5.16-5.33,7.4S437.23,380.85,435.36,380.85Zm0-2.21v0Zm10.48-9.24a22.87,22.87,0,0,0-5.37,3.92,22.6,22.6,0,0,0-4.32,5.08,23.13,23.13,0,0,0,5.39-3.94A22.72,22.72,0,0,0,445.84,369.4Z"/><path class="cls-1" d="M496.73,396.65c-.61,2.29-3.72,4.92-9.19,3.44-3.05-.84-9.57-3.41-10.63-5a4.1,4.1,0,0,1,0-3.83c1-2.19,5.5-2.69,11-1.21S497.28,394.47,496.73,396.65Z"/><path class="cls-2" d="M490.57,401.63a12.84,12.84,0,0,1-3.32-.47c-2.41-.67-9.84-3.32-11.26-5.49-1.28-1.92-.39-4.23-.08-4.89.78-1.74,3-2.7,6.22-2.7a23.23,23.23,0,0,1,6,.89c5.42,1.49,10.47,4.7,9.64,7.95C497.2,399.19,494.69,401.63,490.57,401.63Zm-8.44-11.34c-2.2,0-3.82.54-4.21,1.41a3.13,3.13,0,0,0-.08,2.75c.71,1.09,6.41,3.58,10,4.57a10.56,10.56,0,0,0,2.74.4c2.94,0,4.7-1.58,5.09-3.05.29-1.16-2.71-3.79-8.08-5.27A21.36,21.36,0,0,0,482.13,390.29Z"/><path class="cls-1" d="M493.26,399.52c-.27,1-4.09.85-8.57-.37s-7.83-3-7.56-4,4.1-.85,8.56.39S493.54,398.55,493.26,399.52Z"/><path class="cls-2" d="M491.09,401.3a27.75,27.75,0,0,1-6.69-1.08c-2.74-.75-9-2.77-8.34-5.37.41-1.47,2.54-1.47,3.24-1.47a26.91,26.91,0,0,1,6.68,1.08c3.18.85,7.23,2.43,8.16,4.08a1.6,1.6,0,0,1,.18,1.28C494,401.3,491.8,401.3,491.09,401.3Zm-12.26-5.7a23,23,0,0,0,6.15,2.48,25.16,25.16,0,0,0,6.11,1h.47a22.55,22.55,0,0,0-6.16-2.47,24.88,24.88,0,0,0-6.1-1Z"/><path class="cls-1" d="M534.07,421.81c-2.07,1.21-6.13.89-8.94-4.08-1.55-2.75-4.32-9.15-3.93-11.06a4.25,4.25,0,0,1,2.71-2.72c2.26-.84,5.8,2,8.58,7S536,420.7,534.07,421.81Z"/><path class="cls-2" d="M531.75,423.51c-2.94,0-5.7-1.91-7.58-5.23-1-1.86-4.58-9.23-4.06-11.83a5.36,5.36,0,0,1,3.4-3.53c3-1.09,6.86,2,9.94,7.46,2.73,4.75,4.07,10.71,1.18,12.39A5.77,5.77,0,0,1,531.75,423.51Zm-7-18.59a1.33,1.33,0,0,0-.45.07c-.4.16-1.77.78-2,1.92s2,7.06,3.82,10.28c1.47,2.61,3.53,4.1,5.65,4.1a3.62,3.62,0,0,0,1.77-.43c1-.59.73-4.64-2-9.39C529,407,526.24,404.92,524.75,404.92Z"/><path class="cls-1" d="M529.47,421.52c-.89.52-3.49-2.33-5.75-6.34s-3.41-7.66-2.5-8.18,3.5,2.31,5.76,6.31S530.38,421,529.47,421.52Z"/><path class="cls-2" d="M529.22,422.69c-2.42,0-5.81-5.81-6.46-7-1.1-1.91-4.5-8.29-2.1-9.68a1.63,1.63,0,0,1,.81-.21c2.42,0,5.82,5.77,6.48,6.93,1.71,3,3.36,6.87,2.85,8.67a1.6,1.6,0,0,1-.79,1.05A1.55,1.55,0,0,1,529.22,422.69Zm-7.14-14.19a28.93,28.93,0,0,0,6.53,11.5,22.16,22.16,0,0,0-2.59-6.14A22.39,22.39,0,0,0,522.08,408.5Z"/><path class="cls-1" d="M528,337.36c-.78,2.25-4.12,4.59-9.44,2.63-3-1.08-9.23-4.23-10.15-5.92a4.13,4.13,0,0,1,.34-3.83c1.16-2.08,5.69-2.17,11-.21S528.72,335.27,528,337.36Z"/><path class="cls-2" d="M522.32,341.83a12.09,12.09,0,0,1-4.16-.8c-2.57-.93-9.54-4.21-10.74-6.43a5.19,5.19,0,0,1,.35-4.91c.55-1,1.9-2.18,5.13-2.18a21.5,21.5,0,0,1,7.22,1.48c5.28,1.94,10,5.56,8.91,8.74C528.32,339.77,526,341.83,522.32,341.83Zm-9.42-12.11c-1.64,0-2.83.4-3.21,1.06a3.1,3.1,0,0,0-.32,2.77c.63,1.16,6.14,4.17,9.55,5.4a10,10,0,0,0,3.4.67c2.56,0,4.16-1.32,4.61-2.62.4-1.11-2.43-4-7.57-5.94A19.82,19.82,0,0,0,512.9,329.72Z"/><path class="cls-1" d="M524.22,340.34c-.38,1-4.17.49-8.5-1.09s-7.56-3.7-7.19-4.69,4.15-.44,8.49,1.14S524.57,339.38,524.22,340.34Z"/><path class="cls-2" d="M522.69,342a24,24,0,0,1-7.35-1.67c-1.13-.42-6.79-2.63-7.77-4.8a1.64,1.64,0,0,1-.07-1.31c.29-.79,1.12-1.2,2.48-1.2a24.64,24.64,0,0,1,7.42,1.69c3.1,1.14,7,3.06,7.77,4.76a1.63,1.63,0,0,1,.08,1.3C524.94,341.54,524.08,342,522.69,342Zm-12.5-6.76a27.76,27.76,0,0,0,12.36,4.55,22.88,22.88,0,0,0-5.91-3A24.2,24.2,0,0,0,510.19,335.19Z"/><path class="cls-1" d="M559.91,352.47c-1.23,2-5,3.7-9.79.7-2.69-1.69-8.2-6-8.77-7.83a4.18,4.18,0,0,1,1.11-3.7c1.57-1.8,6-1,10.83,2S561,350.57,559.91,352.47Z"/><path class="cls-2" d="M555.23,355.92a10.83,10.83,0,0,1-5.7-1.81c-2.11-1.33-8.48-6-9.23-8.45-.68-2.19.84-4.18,1.32-4.74a4.36,4.36,0,0,1,3.49-1.34c2.41,0,5.52,1.1,8.76,3.1,4.78,3,8.71,7.48,7,10.36A6.45,6.45,0,0,1,555.23,355.92ZM545.11,341.8a2.49,2.49,0,0,0-1.82.57c-.2.24-1.22,1.5-.88,2.64s5.08,5.19,8.3,7.22a8.6,8.6,0,0,0,4.52,1.47,4.28,4.28,0,0,0,3.73-1.8c.59-1-1.59-4.44-6.25-7.34C549.86,342.81,547.09,341.8,545.11,341.8Z"/><path class="cls-1" d="M556,354.42c-.52.87-4.16-.39-8.09-2.81s-6.66-5.14-6.11-6,4.17.36,8.1,2.8S556.53,353.53,556,354.42Z"/><path class="cls-2" d="M555.23,355.81c-2,0-5.38-1.69-7.94-3.26a29.52,29.52,0,0,1-4.92-3.74c-1-1-2.33-2.53-1.54-3.8a1.84,1.84,0,0,1,1.7-.8c1.66,0,4.7,1.24,7.92,3.25,1.89,1.17,7.94,5.18,6.47,7.55A1.83,1.83,0,0,1,555.23,355.81Zm-12-9.28a23.07,23.07,0,0,0,5.19,4.14,23.83,23.83,0,0,0,6,2.81,28.32,28.32,0,0,0-11.21-7Z"/><path class="cls-1" d="M576.22,381.79c-2,1.21-6.12.88-8.93-4.05-1.58-2.75-4.39-9.16-4-11.05A4.08,4.08,0,0,1,566,364c2.26-.87,5.79,2,8.59,6.9S578.14,380.68,576.22,381.79Z"/><path class="cls-2" d="M573.9,383.49c-1.39,0-4.9-.51-7.57-5.2-1.07-1.85-4.66-9.24-4.11-11.83.44-2.25,2.7-3.26,3.39-3.52,2.74-1.06,6.83,1.92,9.95,7.39,2.25,3.9,3.29,8,2.65,10.39a3.18,3.18,0,0,1-1.44,2A5.65,5.65,0,0,1,573.9,383.49Zm-7-18.56a1.4,1.4,0,0,0-.47.08,3.06,3.06,0,0,0-2,1.9c-.27,1.29,2,7.07,3.86,10.28,2.1,3.68,4.65,4.08,5.65,4.08a3.39,3.39,0,0,0,1.75-.44,1.09,1.09,0,0,0,.42-.68c.4-1.48-.2-4.84-2.43-8.72C571.09,367,568.34,364.93,566.86,364.93Z"/><path class="cls-1" d="M571.6,381.41c-.91.54-3.49-2.29-5.8-6.29s-3.43-7.67-2.52-8.21,3.48,2.33,5.79,6.32S572.49,380.89,571.6,381.41Z"/><path class="cls-2" d="M571.34,382.59c-2.33,0-5.56-5.3-6.5-6.92-1.1-1.92-4.52-8.29-2.13-9.72a1.69,1.69,0,0,1,.81-.21c2.32,0,5.57,5.31,6.51,6.94,1.41,2.46,4.44,8.33,2.13,9.69A1.65,1.65,0,0,1,571.34,382.59Zm-7.2-14.15a28.36,28.36,0,0,0,6.59,11.47,22.85,22.85,0,0,0-2.62-6.13A23.2,23.2,0,0,0,564.14,368.44Z"/><path class="cls-1" d="M606.75,298.2c1.39,1.94,1.48,6-3.16,9.31-2.58,1.85-8.7,5.24-10.61,5a4.12,4.12,0,0,1-3-2.39c-1.06-2.18,1.42-6,6-9.25S605.43,296.42,606.75,298.2Z"/><path class="cls-2" d="M593.17,313.65l-.32,0c-2.25-.22-3.5-2.34-3.83-3-1.36-2.77,1.15-6.95,6.38-10.65,3.3-2.33,6.74-3.72,9.21-3.72a3.51,3.51,0,0,1,3,1.27,6.24,6.24,0,0,1,1,4.63c-.28,1.63-1.26,4-4.37,6.24C602.17,309.9,595.83,313.65,593.17,313.65Zm11.44-15.16c-2,0-5.08,1.3-7.93,3.31-4.43,3.13-6.37,6.45-5.68,7.85.13.27.9,1.66,2.09,1.78l.08,1.11v-1.11c1.67,0,7.19-3,9.77-4.82s3.27-3.59,3.47-4.81a4,4,0,0,0-.56-3A1.65,1.65,0,0,0,604.61,298.49Z"/><path class="cls-1" d="M607,302.91c.59.85-2,3.71-5.72,6.37s-7.31,4.17-7.9,3.32,2-3.71,5.71-6.37S606.42,302.05,607,302.91Z"/><path class="cls-2" d="M594.06,314a1.79,1.79,0,0,1-1.56-.71c-1.53-2.22,3.67-6.27,6-7.91,2.56-1.82,6-3.77,7.91-3.77a1.76,1.76,0,0,1,1.55.71c1.59,2.29-4.18,6.64-6,7.91C599.54,311.92,596,314,594.06,314Zm11.52-10a23.16,23.16,0,0,0-5.82,3.2,22.9,22.9,0,0,0-4.93,4.46,22.82,22.82,0,0,0,5.83-3.21A22.5,22.5,0,0,0,605.58,303.93Z"/><path class="cls-1" d="M631.84,275.17c1.41,1.93,1.47,6-3.16,9.3-2.58,1.82-8.69,5.23-10.61,5a4.16,4.16,0,0,1-3-2.42c-1.06-2.16,1.41-6,6-9.23S630.53,273.38,631.84,275.17Z"/><path class="cls-2" d="M618.24,290.61l-.29,0a5.32,5.32,0,0,1-3.84-3c-1.35-2.75,1.16-6.92,6.39-10.63,3.26-2.32,6.68-3.7,9.17-3.7a3.56,3.56,0,0,1,3.07,1.29,6.09,6.09,0,0,1,1,4.54c-.26,1.64-1.24,4.07-4.38,6.31C627.14,286.91,620.86,290.61,618.24,290.61Zm11.43-15.17c-2,0-5.08,1.3-7.89,3.3-4.43,3.14-6.37,6.45-5.69,7.84.14.27.9,1.68,2.1,1.81h0c1.64,0,7.1-2.92,9.8-4.83,2.51-1.79,3.28-3.63,3.47-4.85a3.88,3.88,0,0,0-.56-2.88A1.62,1.62,0,0,0,629.67,275.44Z"/><path class="cls-1" d="M632.11,279.67c.62.82-2,3.69-5.72,6.37s-7.28,4.15-7.89,3.3,2-3.71,5.72-6.38S631.5,278.8,632.11,279.67Z"/><path class="cls-2" d="M619.15,290.69a1.82,1.82,0,0,1-1.55-.69,1.7,1.7,0,0,1-.27-1.29c.3-1.85,3.56-4.74,6.25-6.65,2.54-1.81,5.94-3.75,7.87-3.75A1.79,1.79,0,0,1,633,279a1.67,1.67,0,0,1,.27,1.25c-.37,2.38-5.28,6-6.26,6.66C624.49,288.75,621.08,290.69,619.15,290.69Zm11.53-10a28.28,28.28,0,0,0-10.75,7.64,23.23,23.23,0,0,0,5.82-3.19A24,24,0,0,0,630.68,280.69Z"/><path class="cls-1" d="M421.92,202.09s28.76,5.48,64.53-.93c.91,3.47,1.2,40.4-31.79,41.1C421.4,242.92,421.92,202.09,421.92,202.09Z"/><path class="cls-2" d="M453.86,243.38c-8.71,0-15.91-2.83-21.41-8.4-11.77-11.92-11.65-32.06-11.64-32.91a1.11,1.11,0,0,1,1.32-1.07,170.82,170.82,0,0,0,28.7,2.17,201.57,201.57,0,0,0,35.42-3.1,1.12,1.12,0,0,1,1.27.81c.69,2.63.88,19-7.83,30.55-5.79,7.69-14.21,11.71-25,11.94Zm-30.8-40c.18,4.62,1.51,20.45,11,30,5.07,5.12,11.74,7.72,19.83,7.72h.77c10.09-.21,17.93-3.93,23.29-11.06,7.33-9.73,8-23.4,7.61-27.64a204.57,204.57,0,0,1-34.7,2.93A182.09,182.09,0,0,1,423.06,203.4Z"/><path class="cls-1" d="M455.18,229.55c-11-4.41-19.31.25-21,5.55,4.76,4.39,11.33,7.34,20.47,7.16,10.28-.22,17.3-3.94,22.11-9C475.65,229.26,463.86,225.24,455.18,229.55Z"/><path class="cls-2" d="M453.89,243.38c-8.2,0-15.08-2.51-20.45-7.46a1.1,1.1,0,0,1-.31-1.15c1.24-3.89,6-8.08,13.53-8.08a23.83,23.83,0,0,1,8.47,1.65,20.39,20.39,0,0,1,8.49-1.75c6.73,0,13.24,2.89,14.21,6.32a1.12,1.12,0,0,1-.25,1.06c-5.69,6-13.39,9.2-22.9,9.4Zm-18.4-8.6c4.87,4.24,11.06,6.38,18.4,6.38h.74c8.61-.18,15.61-2.93,20.82-8.17-1.21-1.83-6-4.18-11.83-4.18a17.93,17.93,0,0,0-7.95,1.74,1.11,1.11,0,0,1-.91,0,21.87,21.87,0,0,0-8.1-1.67C440.68,228.9,436.8,231.84,435.49,234.78Z"/><path class="cls-1" d="M498.38,163.61a19.75,19.75,0,1,1-20.44-19A19.75,19.75,0,0,1,498.38,163.61Z"/><path class="cls-2" d="M478.69,185.16a20.85,20.85,0,0,1-.79-41.68h.75a20.85,20.85,0,0,1,.77,41.68Zm0-39.48H478a18.64,18.64,0,0,0,.71,37.26h.65a18.64,18.64,0,0,0-.69-37.26Z"/><path class="cls-2" d="M488.68,163.44A11.24,11.24,0,1,1,477,152.62,11.24,11.24,0,0,1,488.68,163.44Z"/><path class="cls-1" d="M475.44,158.65a4.49,4.49,0,1,1-4.66-4.31A4.51,4.51,0,0,1,475.44,158.65Z"/><path class="cls-1" d="M485.68,169.33a2.25,2.25,0,1,1-2.32-2.16A2.23,2.23,0,0,1,485.68,169.33Z"/><path class="cls-1" d="M445.64,168.59a19.74,19.74,0,1,1-20.45-19A19.76,19.76,0,0,1,445.64,168.59Z"/><path class="cls-2" d="M425.88,190.14a21,21,0,1,1,.78,0Zm0-39.48h-.64a18.7,18.7,0,1,0,.64,0Z"/><path class="cls-2" d="M435.94,168.42a11.25,11.25,0,1,1-11.64-10.83A11.28,11.28,0,0,1,435.94,168.42Z"/><path class="cls-1" d="M422.7,163.63A4.49,4.49,0,1,1,418,159.3,4.5,4.5,0,0,1,422.7,163.63Z"/><path class="cls-1" d="M432.94,174.31a2.25,2.25,0,1,1-2.33-2.16A2.26,2.26,0,0,1,432.94,174.31Z"/></svg>