<svg id="Layer_14" data-name="Layer 14" xmlns="http://www.w3.org/2000/svg" viewBox="0 0 895 511.11"><defs><style>.cls-1{fill:#fff;}.cls-2{fill:none;stroke:#000;stroke-miterlimit:10;stroke-width:5px;}</style></defs><path class="cls-1" d="M579.92,115.63S533.83,86.13,505,128.74s-51.6,96.16-85.88,108.11S271.47,276.52,268.69,339.23c-2.82,63.37,16.86,111,125.28,108S556.9,323.72,569,295.68c0,0,60-108.33,49.91-138.38S579.92,115.63,579.92,115.63Z"/><path class="cls-2" d="M579.92,115.63S533.83,86.13,505,128.74s-51.6,96.16-85.88,108.11S271.47,276.52,268.69,339.23c-2.82,63.37,16.86,111,125.28,108S556.9,323.72,569,295.68c0,0,60-108.33,49.91-138.38S579.92,115.63,579.92,115.63Z"/><path class="cls-1" d="M575.12,107.7s-47.07-26.7-85.25,26c-36.52,50.44-14.67,15.28,28.2,5.46,26.39-6,41.7-12.48,41.7-10.4Z"/><path class="cls-1" d="M573.32,131.74s18.27,6.43,22.45,49.21,4.17,38.38,15.65,49.79c9,9,5.21-28.06,14.08-66.05s-40.69-51.56-40.69-51.56Z"/><path class="cls-2" d="M575.12,107.7s-47.07-26.7-85.25,26c-36.52,50.44-14.67,15.28,28.2,5.46,26.39-6,41.7-12.48,41.7-10.4Z"/><path class="cls-2" d="M573.32,131.74s18.27,6.43,22.45,49.21,4.17,38.38,15.65,49.79c9,9,5.21-28.06,14.08-66.05s-40.69-51.56-40.69-51.56Z"/><path class="cls-1" d="M559.21,103S526.87,115,530,147.89s-1,48.93-6.26,56.55,32.34,5,48-16.9,34.43-53.22,25.56-63.91Z"/><path class="cls-2" d="M559.21,103S526.87,115,530,147.89s-1,48.93-6.26,56.55,32.34,5,48-16.9,34.43-53.22,25.56-63.91Z"/><path class="cls-1" d="M295.46,322s4.87,11.48,20.52,3.13,21.91-27.12,33.39-27.82,28.17-11.56,24.69-16.74-22.26-11.78-53.9,10.83S295.46,322,295.46,322Z"/><path class="cls-1" d="M379.63,269.46s8-11.07,20.17-9.71,14.6,13.54,4.52,15.62C404.32,275.37,383.45,287.2,379.63,269.46Z"/><path class="cls-2" d="M295.46,322s4.87,11.48,20.52,3.13,21.91-27.12,33.39-27.82,28.17-11.56,24.69-16.74-22.26-11.78-53.9,10.83S295.46,322,295.46,322Z"/><path class="cls-2" d="M379.63,269.46s8-11.07,20.17-9.71,14.6,13.54,4.52,15.62C404.32,275.37,383.45,287.2,379.63,269.46Z"/><path class="cls-1" d="M547.39,114s-7.94-10,11-11.49,35,10.41,39,19.77C603.41,136.16,558.43,130.18,547.39,114Z"/><path class="cls-2" d="M547.39,114s-7.94-10,11-11.49,35,10.41,39,19.77C603.41,136.16,558.43,130.18,547.39,114Z"/><path class="cls-1" d="M555.27,110.83s-.32-8.64,16.39-10.06S589.93,67,589.93,67s5.44-7.35,8.35,0c2,5.07-2.8,24.66-3.13,31.11-.52,10.1-3.06,12,.48,20.6C600.89,131.54,563.33,123.61,555.27,110.83Z"/><path class="cls-2" d="M555.27,110.83s-.32-8.64,16.39-10.06S589.93,67,589.93,67s5.44-7.35,8.35,0c2,5.07-2.8,24.66-3.13,31.11-.52,10.1-3.06,12,.48,20.6C600.89,131.54,563.33,123.61,555.27,110.83Z"/></svg>