<svg id="Layer_15" data-name="Layer 15" xmlns="http://www.w3.org/2000/svg" viewBox="0 0 895 511.11"><defs><style>.cls-1{fill:#fff;}.cls-2{fill:none;stroke:#1d1d1b;stroke-miterlimit:10;stroke-width:5px;}</style></defs><path class="cls-1" d="M442,116.49s-72.31-21.06-113.51,0-87.2,52.65-91.32,131.61,49.43,162.73,79.64,173,48.76,17.85,59.74,0S442,116.49,442,116.49Z"/><path class="cls-2" d="M442,116.49s-72.31-21.06-113.51,0-87.2,52.65-91.32,131.61,49.43,162.73,79.64,173,48.76,17.85,59.74,0S442,116.49,442,116.49Z"/><path class="cls-1" d="M439.26,131.12S389.82,114,365.1,135.24s-79.64,85.93-65.23,144.93,46.35,152.63,77.59,156.5c26.61,3.29,53.56,16,61.8-16.48Z"/><path class="cls-2" d="M439.26,131.12S389.82,114,365.1,135.24s-79.64,85.93-65.23,144.93,46.35,152.63,77.59,156.5c26.61,3.29,53.56,16,61.8-16.48Z"/><path class="cls-1" d="M453,114.84s72.31-21.07,113.51,0,87.2,52.65,91.32,131.61-49.43,162.73-79.64,173-48.76,17.85-59.74,0S453,114.84,453,114.84Z"/><path class="cls-2" d="M453,114.84s72.31-21.07,113.51,0,87.2,52.65,91.32,131.61-49.43,162.73-79.64,173-48.76,17.85-59.74,0S453,114.84,453,114.84Z"/><path class="cls-1" d="M455.74,129.46s49.44-17.16,74.16,4.12,79.64,85.94,65.23,144.93S548.78,431.14,517.54,435c-26.61,3.3-53.56,16-61.8-16.48Z"/><path class="cls-2" d="M455.74,129.46s49.44-17.16,74.16,4.12,79.64,85.94,65.23,144.93S548.78,431.14,517.54,435c-26.61,3.3-53.56,16-61.8-16.48Z"/><path class="cls-1" d="M413,122.92s10-40.59,20.51-46.08,31.13-2.75,33.87-9.15,16.48,44.55,11,55.23S414.77,122,413,122.92Z"/><path class="cls-2" d="M413,122.92s10-40.59,20.51-46.08,31.13-2.75,33.87-9.15,16.48,44.55,11,55.23S414.77,122,413,122.92Z"/><path class="cls-1" d="M444.58,127.48s.4-45.15,10.93-50.64,9.16-2.75,11.9-9.15,16.48,44.55,11,55.23S446.32,126.58,444.58,127.48Z"/><path class="cls-2" d="M444.58,127.48s.4-45.15,10.93-50.64,9.16-2.75,11.9-9.15,16.48,44.55,11,55.23S446.32,126.58,444.58,127.48Z"/><path class="cls-1" d="M497,163c-7.2-40.62-36.79-46-55.49-45.2-18.7-.82-48.28,4.58-55.49,45.2-10.73,60.49-27.32,93.67-7.8,151.23s24.39,84.89,27.32,95.63c2.67,9.82-1.88,31,30.95,33.81V444c1.79,0,3.37,0,5-.07s3.21.11,5,.07v-.34c32.83-2.79,28.28-24,31-33.81,2.92-10.74,7.8-38.06,27.32-95.63S507.73,223.45,497,163Z"/><path class="cls-2" d="M497,163c-7.2-40.62-36.79-46-55.49-45.2-18.7-.82-48.28,4.58-55.49,45.2-10.73,60.49-27.32,93.67-7.8,151.23s24.39,84.89,27.32,95.63c2.67,9.82-1.88,31,30.95,33.81V444c1.79,0,3.37,0,5-.07s3.21.11,5,.07v-.34c32.83-2.79,28.28-24,31-33.81,2.92-10.74,7.8-38.06,27.32-95.63S507.73,223.45,497,163Z"/></svg>