<svg id="Layer_22" data-name="Layer 22" xmlns="http://www.w3.org/2000/svg" viewBox="0 0 895 511.11"><defs><style>.cls-1{fill:#fff;}.cls-2{fill:none;stroke:#1d1d1b;stroke-miterlimit:10;stroke-width:5px;}</style></defs><path class="cls-1" d="M608.13,207c14.41,36.6,34.43,73,7.21,109.14-22.13,29.41-83.44,66-124.83,82.35-26.78,10.55-56.05,10.45-81.65,11.23-44,1.36-79.32,0-105.43-23.82-11-10.07-24-33.27-29.52-47.26-14.4-36.56-8.94-89.33,18.22-125.48,22.13-29.45,64.5-33.07,105.94-49.39,51.75-20.39,101.49-46,142.6-31.54C572.87,143.59,596.65,177.88,608.13,207Z"/><path class="cls-2" d="M608.13,207c14.41,36.6,34.43,73,7.21,109.14-22.13,29.41-83.44,66-124.83,82.35-26.78,10.55-56.05,10.45-81.65,11.23-44,1.36-79.32,0-105.43-23.82-11-10.07-24-33.27-29.52-47.26-14.4-36.56-8.94-89.33,18.22-125.48,22.13-29.45,64.5-33.07,105.94-49.39,51.75-20.39,101.49-46,142.6-31.54C572.87,143.59,596.65,177.88,608.13,207Z"/><path class="cls-1" d="M312.4,244.47c3.53,7.46,3.7,14.79.37,16.36s-8.88-3.2-12.41-10.67-3.7-14.8-.38-16.37S308.86,237,312.4,244.47Z"/><path class="cls-1" d="M373.23,279.43c3.53,7.47,3.7,14.8.38,16.37s-8.88-3.2-12.42-10.67-3.7-14.8-.37-16.37S369.7,272,373.23,279.43Z"/><path class="cls-1" d="M399.46,214.23c3.53,7.47,3.7,14.8.37,16.37s-8.88-3.21-12.41-10.68-3.7-14.79-.38-16.36S395.92,206.76,399.46,214.23Z"/><path class="cls-1" d="M408.24,336.26c3.53,7.47,3.7,14.8.38,16.37s-8.89-3.21-12.42-10.68-3.7-14.79-.37-16.36S404.71,328.79,408.24,336.26Z"/><path class="cls-1" d="M455.51,285.26c3.54,7.47,3.71,14.8.38,16.37S447,298.42,443.48,291s-3.7-14.8-.38-16.37S452,277.8,455.51,285.26Z"/><path class="cls-1" d="M464.3,230.65c3.53,7.46,3.7,14.79.37,16.36s-8.88-3.2-12.41-10.67-3.7-14.8-.38-16.37S460.76,223.18,464.3,230.65Z"/><path class="cls-1" d="M509.47,160.68c3.53,7.47,3.7,14.8.37,16.37s-8.88-3.21-12.41-10.67-3.7-14.8-.38-16.37S505.93,153.22,509.47,160.68Z"/><path class="cls-1" d="M536.06,233.49c3.53,7.47,3.7,14.8.37,16.37s-8.88-3.21-12.41-10.67-3.7-14.8-.38-16.37S532.53,226,536.06,233.49Z"/><path class="cls-1" d="M489.41,351.67c4.83,10.21,6.34,19.62,3.37,21s-9.3-5.73-14.13-15.94-6.34-19.63-3.36-21S484.58,341.46,489.41,351.67Z"/><path class="cls-1" d="M324.76,324.71c4.83,10.21,6.34,19.63,3.37,21S318.83,340,314,329.8s-6.33-19.63-3.36-21S319.93,314.5,324.76,324.71Z"/><path class="cls-1" d="M565.54,315.86c4.83,10.22,6.34,19.63,3.37,21s-9.3-5.73-14.13-15.94-6.33-19.63-3.36-21S560.71,305.65,565.54,315.86Z"/><path class="cls-1" d="M598,258.59c4.83,10.21,6.34,19.63,3.37,21s-9.3-5.73-14.13-15.94-6.33-19.63-3.36-21S593.13,248.38,598,258.59Z"/><path class="cls-2" d="M312.4,244.47c3.53,7.46,3.7,14.79.37,16.36s-8.88-3.2-12.41-10.67-3.7-14.8-.38-16.37S308.86,237,312.4,244.47Z"/><path class="cls-2" d="M373.23,279.43c3.53,7.47,3.7,14.8.38,16.37s-8.88-3.2-12.42-10.67-3.7-14.8-.37-16.37S369.7,272,373.23,279.43Z"/><path class="cls-2" d="M399.46,214.23c3.53,7.47,3.7,14.8.37,16.37s-8.88-3.21-12.41-10.68-3.7-14.79-.38-16.36S395.92,206.76,399.46,214.23Z"/><path class="cls-2" d="M408.24,336.26c3.53,7.47,3.7,14.8.38,16.37s-8.89-3.21-12.42-10.68-3.7-14.79-.37-16.36S404.71,328.79,408.24,336.26Z"/><path class="cls-2" d="M455.51,285.26c3.54,7.47,3.71,14.8.38,16.37S447,298.42,443.48,291s-3.7-14.8-.38-16.37S452,277.8,455.51,285.26Z"/><path class="cls-2" d="M464.3,230.65c3.53,7.46,3.7,14.79.37,16.36s-8.88-3.2-12.41-10.67-3.7-14.8-.38-16.37S460.76,223.18,464.3,230.65Z"/><path class="cls-2" d="M509.47,160.68c3.53,7.47,3.7,14.8.37,16.37s-8.88-3.21-12.41-10.67-3.7-14.8-.38-16.37S505.93,153.22,509.47,160.68Z"/><path class="cls-2" d="M536.06,233.49c3.53,7.47,3.7,14.8.37,16.37s-8.88-3.21-12.41-10.67-3.7-14.8-.38-16.37S532.53,226,536.06,233.49Z"/><path class="cls-2" d="M489.41,351.67c4.83,10.21,6.34,19.62,3.37,21s-9.3-5.73-14.13-15.94-6.34-19.63-3.36-21S484.58,341.46,489.41,351.67Z"/><path class="cls-2" d="M324.76,324.71c4.83,10.21,6.34,19.63,3.37,21S318.83,340,314,329.8s-6.33-19.63-3.36-21S319.93,314.5,324.76,324.71Z"/><path class="cls-2" d="M565.54,315.86c4.83,10.22,6.34,19.63,3.37,21s-9.3-5.73-14.13-15.94-6.33-19.63-3.36-21S560.71,305.65,565.54,315.86Z"/><path class="cls-2" d="M598,258.59c4.83,10.21,6.34,19.63,3.37,21s-9.3-5.73-14.13-15.94-6.33-19.63-3.36-21S593.13,248.38,598,258.59Z"/></svg>