<svg id="Layer_51" data-name="Layer 51" xmlns="http://www.w3.org/2000/svg" viewBox="0 0 895 511.11"><defs><style>.cls-1{fill:#fff;}.cls-2{fill:#1d1d1b;}</style></defs><path class="cls-1" d="M450.66,139.64c4.53-13.8,21.08-46.45,59.65-65.81,33.31-16.73,61.8,2.44,78.81,12.33,18.12,10.51,37.72,14.72,36.84,23.47-1,9.46-24.34,30.55-63.75,30.27-33.86-.23-77.9-9.68-87.67,13.56C462.7,151.28,450.66,139.64,450.66,139.64Z"/><path class="cls-2" d="M474.54,154.63a.75.75,0,0,1-.21,0c-12.05-2.22-24-13.64-24.49-14.13a1.16,1.16,0,0,1-.29-1.2c1.45-4.44,15.54-44.06,60.23-66.49a60.93,60.93,0,0,1,27.56-6.73c20,0,36.86,10,49.16,17.21,1.11.65,2.18,1.29,3.21,1.88A190.36,190.36,0,0,0,607.54,94c11.32,5.1,20.25,9.13,19.58,15.77-1,9.37-24,31.32-64.13,31.33h-.79c-7.46-.05-15.54-.55-23.35-1-8.27-.51-16.82-1-24.69-1-22.31,0-34.2,4.6-38.54,14.94A1.16,1.16,0,0,1,474.54,154.63ZM452,139.3c2.37,2.16,12.17,10.64,21.86,12.83,6.48-13.71,24.88-15.49,40.3-15.49,7.94,0,16.53.54,24.84,1.05,7.78.49,15.82,1,23.22,1H563c38.8,0,60.91-20.48,61.81-29.22.5-5-7.76-8.69-18.22-13.41a193.73,193.73,0,0,1-18.05-8.93l-3.22-1.89c-12.06-7.12-28.59-16.88-48-16.88a58.68,58.68,0,0,0-26.51,6.48C468.78,96,454.37,132.51,452,139.3Z"/><path class="cls-1" d="M598.85,112.53c-17-5.93-28.27-26.68-63.85-21.14s-56.38,30-67.34,42.14c23-12.17,39.7-15.06,73.29-10.91C565.37,125.61,582.65,122,598.85,112.53Z"/><path class="cls-2" d="M467.66,134.7a1.19,1.19,0,0,1-.92-.45,1.18,1.18,0,0,1,.06-1.5l1.17-1.3c11.22-12.51,32.11-35.78,66.85-41.21a75.65,75.65,0,0,1,11.62-.95c18,0,28.8,7.4,38.34,13.93,4.85,3.32,9.44,6.46,14.45,8.21a1.17,1.17,0,0,1,.78,1,1.18,1.18,0,0,1-.57,1.12c-13.15,7.69-26.72,11.28-42.7,11.28h0a131.41,131.41,0,0,1-15.92-1A204.48,204.48,0,0,0,516,122c-17.57,0-30.53,3.4-47.83,12.55A1.07,1.07,0,0,1,467.66,134.7Zm78.78-43.07a73.48,73.48,0,0,0-11.26.92c-31,4.85-50.86,24.41-62.45,37.11,15-7.23,27.27-10,43.31-10a207,207,0,0,1,25.05,1.79,128.8,128.8,0,0,0,15.64,1c14.7,0,27.29-3.11,39.41-9.75a79.52,79.52,0,0,1-12.68-7.58C574.2,98.81,563.7,91.63,546.44,91.63Z"/><path class="cls-1" d="M442.35,134.52s32.09-51.9,11-61.46-39.31,10.65-35.95,22,9.41,41.39,9.41,41.39Z"/><path class="cls-2" d="M426.85,137.56a1.16,1.16,0,0,1-1.14-.93c-.06-.31-6.09-30.22-9.39-41.29-1.25-4.22.19-9.67,3.85-14.59A27.15,27.15,0,0,1,453.87,72a12.5,12.5,0,0,1,7,8.13c5.38,17.67-16.58,53.49-17.51,55a1.15,1.15,0,0,1-.86.55L427,137.55Zm15.43-65.83c-9.19,0-16.48,5.38-20.23,10.42-3.23,4.33-4.53,9-3.49,12.52,3,10,8.11,35,9.22,40.44l13.87-1.68c2.61-4.34,21.74-37,17-52.62a10.11,10.11,0,0,0-5.73-6.68A25.51,25.51,0,0,0,442.28,71.73Z"/><path class="cls-1" d="M437.07,129.56s13.74-14.94,13.74-39.43c-6.31-3.75-20.06-10.07-23-15a25.59,25.59,0,0,1,25.56-2c21.05,9.56-11,61.46-11,61.46l-15.5,1.88s-.43-2.13-1.12-5.42Z"/><path class="cls-2" d="M426.85,137.56a1.16,1.16,0,0,1-1.14-.93l-1.12-5.41a1.16,1.16,0,0,1,1-1.4l10.89-1.37A61.51,61.51,0,0,0,449.64,90.8c-1.41-.82-3.13-1.75-5-2.75-6.88-3.7-15.45-8.31-17.83-12.37a1.16,1.16,0,0,1,.36-1.56A27,27,0,0,1,453.87,72a12.5,12.5,0,0,1,7,8.13c5.38,17.67-16.58,53.49-17.51,55a1.15,1.15,0,0,1-.86.55L427,137.55Zm.28-5.58c.28,1.33.5,2.4.65,3.13l13.87-1.68c2.61-4.34,21.74-37,17-52.62a10.11,10.11,0,0,0-5.73-6.68,24.55,24.55,0,0,0-23.41,1.28C432.33,78.77,440,82.9,445.76,86c2.14,1.15,4.12,2.21,5.65,3.12a1.17,1.17,0,0,1,.57,1c0,24.66-13.48,39.59-14.05,40.22a1.23,1.23,0,0,1-.71.37Z"/><path class="cls-1" d="M443.5,93.93s-.71,21.53-8,32.32A259.2,259.2,0,0,1,426.42,100Z"/><path class="cls-2" d="M435.49,127.42h-.11a1.17,1.17,0,0,1-1-.71,258.9,258.9,0,0,1-9.11-26.38,1.16,1.16,0,0,1,.73-1.41l17.07-6.08a1.18,1.18,0,0,1,1.08.15,1.17,1.17,0,0,1,.48,1c0,.89-.79,22-8.2,32.94A1.17,1.17,0,0,1,435.49,127.42Zm-7.64-26.68c.93,3.2,3.94,13.21,7.84,22.93,4.89-8.92,6.22-23.15,6.54-28Z"/><path class="cls-1" d="M430.09,73.53c-9-9.56-22.83-11.25-37.85-2.73s-25.47,39.31-32.21,53-25.32,24.89-9.59,31.88c12.64,5.6,44.83-5,59.81-29.51C422.94,105.29,450.76,89,454,89.31Z"/><path class="cls-2" d="M358.67,158.28a21.7,21.7,0,0,1-8.71-1.56c-3.85-1.71-6-3.8-6.66-6.4-1.11-4.61,2.91-9.6,7.56-15.38,3-3.73,6.11-7.59,8.13-11.68,1.38-2.82,2.9-6.3,4.66-10.34,6.66-15.29,15.79-36.23,28-43.14,14.91-8.45,29.59-7.34,39.29,3a1.17,1.17,0,0,1-.05,1.65,1.18,1.18,0,0,1-1.66,0c-8.89-9.46-22.52-10.4-36.43-2.51-11.54,6.52-20.49,27-27,42-1.77,4.07-3.3,7.58-4.71,10.44-2.13,4.33-5.46,8.46-8.4,12.11-4.09,5.08-7.95,9.88-7.1,13.38.44,1.83,2.19,3.41,5.33,4.81,12.33,5.45,44-5.64,58.35-29.06C422,104.64,449.57,88.14,454,88.14h.13a1.18,1.18,0,0,1,1.07,1.26,1.2,1.2,0,0,1-1.26,1.07h0c-3.22,0-30.22,15.81-42.67,36.27S374.37,158.28,358.67,158.28Z"/><path class="cls-1" d="M408.87,87.8S413,76.66,430.09,73.53Z"/><path class="cls-2" d="M408.87,89a1.18,1.18,0,0,1-1.09-1.58c.18-.48,4.61-11.79,22.1-15a1.18,1.18,0,0,1,1.36.94,1.16,1.16,0,0,1-.94,1.36C414.09,77.66,410,88.1,410,88.21A1.16,1.16,0,0,1,408.87,89Z"/><path class="cls-1" d="M481.69,347.27s7.59-15.66,13.76-9c10.95-16.14,24.22-5.69,18.52,2.34,20.9.49,22.32,26.63,8.08,21.86,12.82,16.17-4.74,22.8-12.82,11.4.95,12.83-16.61,6.67-16.61,6.67Z"/><path class="cls-2" d="M501,383.18a30,30,0,0,1-8.79-1.54,1.15,1.15,0,0,1-.72-.74l-10.92-33.26a1.14,1.14,0,0,1,.05-.87c.56-1.16,5.65-11.32,11.49-11.32a5.22,5.22,0,0,1,3.13,1.07c5-6.84,10-7.9,12.62-7.9a8.64,8.64,0,0,1,7.79,4.5,7.52,7.52,0,0,1,.21,6.44c11.63,1.14,16.79,10.11,16.71,16.49-.05,4.88-3,8.17-7.3,8.17h0l-.54,0c4,6.16,3.18,10.21,2.23,12.18a8.16,8.16,0,0,1-7.66,4.36,13.12,13.12,0,0,1-9-3.89,7.19,7.19,0,0,1-1.8,3.73C506.86,382.31,504.35,383.18,501,383.18Zm-7.48-3.57a27.56,27.56,0,0,0,7.48,1.24c2.66,0,4.59-.63,5.73-1.86s1.48-2.81,1.32-5a1.16,1.16,0,0,1,2.11-.76,11.53,11.53,0,0,0,9.13,5.22,5.89,5.89,0,0,0,5.56-3.05c1.42-2.94.06-7.38-3.74-12.17a1.17,1.17,0,0,1,1.29-1.83,9,9,0,0,0,2.86.52h0c3.61,0,4.93-3,5-5.86.06-5.75-5-14-16.32-14.24a1.17,1.17,0,0,1-.92-1.84,5.41,5.41,0,0,0,.57-5.75,6.31,6.31,0,0,0-5.71-3.23c-2.26,0-6.76,1-11.46,8a1.16,1.16,0,0,1-.88.51,1.14,1.14,0,0,1-.94-.37,3.37,3.37,0,0,0-2.47-1.27c-3.55,0-7.63,6.55-9.18,9.58Z"/><path class="cls-1" d="M483.58,402.37c7,3.79,23,7.84,33.24,22.09,7.13,9.94-1.18,15.16-4.9,13.36,1.58,4.18-6.5,9.4-15.27,4.41-3.09,7.38-19.17,2.45-31.32-6.88-11.18-8.54-18.22-20.63-15.66-32S483.58,402.37,483.58,402.37Z"/><path class="cls-2" d="M489.78,447c-6.72,0-16.83-4.3-25.16-10.69-12.4-9.47-18.56-22.21-16.09-33.22.91-4.14,4.92-6.24,11.94-6.24,10,0,22.94,4.26,23.48,4.44,1.69.9,3.66,1.74,5.94,2.71,7.86,3.37,19.76,8.46,27.88,19.81,4.11,5.72,3.12,9.68,2.17,11.53a7.32,7.32,0,0,1-6.67,4,5.09,5.09,0,0,1-.91,2.36c-2.59,3.75-9.46,4.92-15.23,2.11C496,445.43,493.91,447,489.78,447Zm-29.31-47.82c-5.77,0-9,1.49-9.66,4.41-2.27,10.13,3.57,21.95,15.23,30.87,7.95,6.1,17.49,10.2,23.74,10.2,3.05,0,5-1,5.79-2.85a1.18,1.18,0,0,1,.7-.65,1.15,1.15,0,0,1,1,.09,13.67,13.67,0,0,0,6.68,1.88c3.42,0,5.65-1.48,6.53-2.74a2.33,2.33,0,0,0,.39-2.13,1.16,1.16,0,0,1,1.6-1.46c1.34.65,4.16,0,5.44-2.53s.51-5.61-2-9.1c-7.74-10.81-18.82-15.56-26.9-19-2.33-1-4.35-1.86-6-2.73h0S470.08,399.15,460.47,399.15Z"/><path class="cls-2" d="M511.92,438.22a.38.38,0,0,0,.38-.4c.33-11.41-13-18.41-13.09-18.49a.46.46,0,0,0-.55.18.43.43,0,0,0,.16.53c.15.08,13,6.85,12.7,17.78a.41.41,0,0,0,.39.4Z"/><path class="cls-2" d="M511.92,438.8h0a1,1,0,0,1-1-1c.28-10.51-12.26-17.2-12.39-17.26a1,1,0,0,1-.44-1.26,1,1,0,0,1,1.3-.52c1.49.81,13.8,7.81,13.48,19.06A1,1,0,0,1,511.92,438.8Z"/><path class="cls-2" d="M496.65,442.65a.38.38,0,0,0,.39-.33c1.25-7.32-8.91-17.13-12.56-18.69a.39.39,0,1,0-.34.71c4,1.72,13.22,11.32,12.11,17.84a.38.38,0,0,0,.3.45C496.62,442.63,496.62,442.65,496.65,442.65Z"/><path class="cls-2" d="M496.65,443.23a.63.63,0,0,1-.19,0,.77.77,0,0,1-.57-.31,1.1,1.1,0,0,1-.22-.79c1.05-6.18-8-15.6-11.76-17.22a1,1,0,0,1-.51-.52,1,1,0,0,1,0-.8,1,1,0,0,1,1.3-.46c3.76,1.6,14.21,11.64,12.89,19.32A.94.94,0,0,1,496.65,443.23Z"/><path class="cls-1" d="M383.08,399c-6.58,3.61-21.8,7.45-31.46,20.94-6.74,9.38,1.14,14.39,4.64,12.63-1.48,4,6.15,8.93,14.48,4.23,2.91,6.95,18.15,2.3,29.66-6.54,10.56-8.09,17.25-19.54,14.85-30.34S383.08,399,383.08,399Z"/><path class="cls-2" d="M377.22,441.28h0c-3.89,0-5.91-1.44-7-3-5.48,2.61-12,1.5-14.45-2.05a5.06,5.06,0,0,1-.88-2.24h-.25a7.05,7.05,0,0,1-6.06-3.85c-.91-1.77-1.85-5.55,2.05-11,7.68-10.73,18.93-15.56,26.38-18.76,2.17-.93,4-1.74,5.47-2.52.71-.26,12.93-4.27,22.45-4.27,6.69,0,10.53,2,11.42,5.95,2.32,10.45-3.53,22.53-15.28,31.53C393.21,437.2,383.61,441.28,377.22,441.28Zm-6.48-5.69a1.31,1.31,0,0,1,.38.06,1.14,1.14,0,0,1,.69.65c.74,1.75,2.56,2.64,5.41,2.64,5.91,0,14.94-3.88,22.47-9.65,11-8.44,16.54-19.62,14.41-29.17-.61-2.74-3.68-4.12-9.13-4.12-9.14,0-21.4,4-21.52,4.06-1.33.75-3.25,1.58-5.48,2.53-7.64,3.28-18.1,7.78-25.41,18-2.35,3.28-3,6.31-1.86,8.55s3.83,3,5,2.36a1.15,1.15,0,0,1,1.3.17,1.17,1.17,0,0,1,.32,1.28,2.16,2.16,0,0,0,.37,2c.83,1.19,2.93,2.57,6.14,2.57a12.94,12.94,0,0,0,6.29-1.76A1.19,1.19,0,0,1,370.74,435.59Z"/><path class="cls-2" d="M356.26,433h0a.41.41,0,0,0,.41-.43c-.29-10.32,11.85-16.72,12-16.79a.43.43,0,0,0,.18-.54.41.41,0,0,0-.55-.16c-.12,0-12.74,6.69-12.43,17.52A.41.41,0,0,0,356.26,433Z"/><path class="cls-2" d="M356.26,433.53a1,1,0,0,1-1-.94c-.33-11.35,12.72-18.08,12.86-18.12a.67.67,0,0,1,.35-.07,1,1,0,0,1,.86.5,1,1,0,0,1-.45,1.36c-.09.05-11.93,6.3-11.66,16.24a1,1,0,0,1-.94,1Z"/><path class="cls-2" d="M370.74,437.14h0a.41.41,0,0,0,.34-.46c-1.05-6.14,7.7-15.23,11.46-16.87a.42.42,0,0,0,.21-.54.4.4,0,0,0-.52-.2c-3.5,1.52-13.14,10.78-11.93,17.73A.43.43,0,0,0,370.74,437.14Z"/><path class="cls-2" d="M370.78,437.72h0a1,1,0,0,1-1-.82c-1.28-7.36,8.58-16.76,12.28-18.37a1,1,0,0,1,1.27.47,1,1,0,0,1-.46,1.33c-3.58,1.55-12.14,10.46-11.15,16.26a.92.92,0,0,1-.14.67,1,1,0,0,1-.66.45Z"/><path class="cls-1" d="M451.3,278c12.8,9.77,26.12,25.19,25.67,57.45,28.45,16.61,30.56,55.92,12.31,67.91-16.61,10.93-36.07,6.19-47.47,1.9-7.12,5.72-27.53,4.29-33.71-.93-14.41,6.18-28.25-.82-35.59-10.46-10.93-14.25-10.47-52.72,19-61.24-6.15-27.08,2.87-47.72,23.26-58.42C424.71,269,441.34,270.37,451.3,278Z"/><path class="cls-2" d="M465.84,411.18A69.36,69.36,0,0,1,442,406.53c-3.22,2.25-8.71,3.53-15.24,3.53s-14.63-1.38-18.84-4.44A29.19,29.19,0,0,1,397,407.78c-9.6,0-19.1-5-25.42-13.26-6.92-9-8.81-25.92-4.41-39.32,2.72-8.27,8.9-18.94,22.94-23.43-5.62-26.31,3.12-47.64,24.09-58.64a32.1,32.1,0,0,1,14.8-3.24c8.54,0,17.14,2.67,23,7.13,11.37,8.68,26.41,24.1,26.14,57.72,17.19,10.35,23.71,28.08,24.06,41.33.33,12.4-4.27,22.95-12.29,28.22A43,43,0,0,1,465.84,411.18Zm-24-7.13a1.14,1.14,0,0,1,.41.07c18.08,6.8,34.23,6.24,46.42-1.79,7.34-4.82,11.54-14.62,11.24-26.2a47.86,47.86,0,0,0-23.5-39.72,1.18,1.18,0,0,1-.58-1c.46-32.67-13.23-47.37-25.21-56.52-5.47-4.16-13.55-6.64-21.59-6.64a29.88,29.88,0,0,0-13.72,3c-20.53,10.77-28.58,31.06-22.66,57.12a1.17,1.17,0,0,1-.81,1.38c-13.8,4-19.81,14.29-22.42,22.23-4.18,12.73-2.44,28.71,4,37.18,5.89,7.72,14.69,12.33,23.57,12.33a26.85,26.85,0,0,0,10.64-2.24,1.18,1.18,0,0,1,1.21.18c3,2.56,10.4,4.35,17.91,4.35,6.39,0,11.61-1.25,14.32-3.43A1.15,1.15,0,0,1,441.81,404.05Z"/><path class="cls-1" d="M417.28,283.66S398.91,277.33,384,290c-5.37-1.91-16.45-3.48-21.18-1.6-12.69-6.87-33.34-12.82-27.63-1.65-6.89-.23-8.57,7.13-2.38,10.21-5.23,2.63-1.4,7.84,6.41,9.74,8.65,2.09,17.26-.57,17.26-.57,4.74,3.49,9.06,9.43,26.8,10.67,10.13.72,27.95-6.55,27.95-6.55Z"/><path class="cls-2" d="M384.82,318h0c-.55,0-1.07,0-1.58-.05-15.44-1.08-21.14-5.78-25.3-9.21-.57-.46-1.12-.92-1.66-1.34a39.75,39.75,0,0,1-9.89,1.26,31.38,31.38,0,0,1-7.41-.84c-5.43-1.31-9.32-4.26-9.68-7.33a4,4,0,0,1,1.41-3.5,6.5,6.5,0,0,1-2.71-6.67,6.32,6.32,0,0,1,5.5-4.65,4.8,4.8,0,0,1,.12-4.2c.86-1.41,2.64-2.12,5.3-2.12,6.23,0,16.69,3.87,24,7.77a19.87,19.87,0,0,1,6-.74,53.92,53.92,0,0,1,14.88,2.29,35,35,0,0,1,22.44-7.77,38.06,38.06,0,0,1,11.43,1.65,1.15,1.15,0,0,1,.75,1.36l-6,26.59a1.14,1.14,0,0,1-.7.82C411,311.61,395.21,318,384.82,318Zm-28.3-13a1.14,1.14,0,0,1,.69.22c.73.54,1.45,1.13,2.21,1.76,4.14,3.41,9.29,7.66,24,8.68,8.78.66,23.78-5,26.86-6.24l5.63-24.92a38.41,38.41,0,0,0-9.66-1.23,32.11,32.11,0,0,0-21.44,7.65,1.2,1.2,0,0,1-1.15.21,50.12,50.12,0,0,0-14.73-2.38,16.28,16.28,0,0,0-5.63.77,1.15,1.15,0,0,1-1-.06c-7.1-3.84-17.41-7.73-23.38-7.73-1.74,0-2.91.35-3.31,1s-.17,1.9.66,3.52a1.18,1.18,0,0,1-.06,1.15,1.16,1.16,0,0,1-1,.55h-.27c-2.91,0-4.31,1.53-4.64,3-.45,1.9.76,3.89,3.09,5.05a1.16,1.16,0,0,1,0,2.08c-1.26.64-1.84,1.39-1.75,2.24.2,1.7,3,4.14,7.91,5.32a29.42,29.42,0,0,0,6.86.77,37.49,37.49,0,0,0,9.79-1.31A1,1,0,0,1,356.52,305Z"/><path class="cls-1" d="M420.31,283.85,413.84,289c-8.1-1.26-15.93-2.39-19.24-5.09C409.07,278.59,420.31,283.85,420.31,283.85Z"/><path class="cls-2" d="M413.84,290.2h-.18l-1-.16c-7.91-1.23-15.38-2.39-18.8-5.19a1.16,1.16,0,0,1-.41-1.09,1.14,1.14,0,0,1,.75-.9,39,39,0,0,1,13.63-2.48,32.88,32.88,0,0,1,13,2.42,1.17,1.17,0,0,1,.24,2l-6.47,5.18A1.12,1.12,0,0,1,413.84,290.2Zm-16.46-6c3.56,1.6,9.46,2.52,15.64,3.48l.49.08,4.46-3.57a33.74,33.74,0,0,0-10.14-1.52A36.56,36.56,0,0,0,397.38,284.24Z"/><path class="cls-2" d="M344.71,289.5a.36.36,0,0,0,.39-.35.35.35,0,0,0-.33-.41,91.73,91.73,0,0,1-9.42-2.36.39.39,0,1,0-.26.74,88.21,88.21,0,0,0,9.57,2.38Z"/><path class="cls-2" d="M344.71,290.09h0a69,69,0,0,1-9.48-2.34l-.24-.07a1,1,0,0,1-.69-1.15,1,1,0,0,1,1-.76l.2,0,.61.17a79.77,79.77,0,0,0,8.83,2.2.9.9,0,0,1,.65.37.88.88,0,0,1,.17.75A.94.94,0,0,1,344.71,290.09Z"/><path class="cls-2" d="M342.81,299a.37.37,0,0,0,.39-.32.39.39,0,0,0-.3-.46c-5.44-.93-9.95-1.65-10-1.65a.37.37,0,0,0-.44.31.36.36,0,0,0,.33.44s4.58.74,10,1.67Z"/><path class="cls-2" d="M342.81,299.59l-.17,0h0c-3.26-.56-6.21-1-8-1.34l-1.87-.32a.9.9,0,0,1-.65-.33A1,1,0,0,1,333,296h0c.12,0,5.76.93,10,1.65a1,1,0,0,1,.77,1.15A.94.94,0,0,1,342.81,299.59Z"/><path class="cls-1" d="M363.23,289.38c-2.21-4.32-5.85-13.72-10.45-13.55-5.69.24-2.82,9-2.82,9Z"/><path class="cls-2" d="M363.23,290.54a1.21,1.21,0,0,1-.38-.06l-13.27-4.54a1.19,1.19,0,0,1-.73-.74c-.19-.58-1.8-5.75.22-8.67a4.45,4.45,0,0,1,3.66-1.86h0c4.75,0,8,6.9,10.44,11.93.39.83.75,1.6,1.09,2.24a1.19,1.19,0,0,1-.16,1.3A1.17,1.17,0,0,1,363.23,290.54Zm-12.32-6.61,10,3.43c-1.9-4-5-10.36-8-10.36a2.17,2.17,0,0,0-1.92.86C350,279.33,350.49,282.36,350.91,283.93Z"/><path class="cls-1" d="M362.86,288.4c-2.24-4.27-5.48-12.74-10.08-12.57-5.69.24-2.82,9-2.82,9s-5.25,8.08,1.15,12.12Z"/><path class="cls-2" d="M351.11,298.13a1.17,1.17,0,0,1-.62-.18A7.52,7.52,0,0,1,347,293.1c-.78-3.51,1-7.13,1.74-8.42-.43-1.51-1.36-5.65.37-8.15a4.45,4.45,0,0,1,3.66-1.86h.19c4.55,0,7.62,6.34,9.87,11,.39.81.76,1.57,1.1,2.22a1.17,1.17,0,1,1-2.07,1.08c-.35-.67-.73-1.45-1.14-2.29-1.86-3.85-4.68-9.65-7.76-9.65h-.09a2.11,2.11,0,0,0-1.84.86c-1.16,1.67-.33,5.34.08,6.62a1.15,1.15,0,0,1-.13,1s-2.43,3.83-1.7,7.14a5.2,5.2,0,0,0,2.5,3.36,1.18,1.18,0,0,1,.36,1.62A1.16,1.16,0,0,1,351.11,298.13Z"/><path class="cls-1" d="M402.89,280.82c-14.73,7.14-16.49,14.08-12.67,16.92-5.38,3.65-4.89,11.1-1.11,11.88-2.36,8.08-2.36,18.66,0,23.4-9.5,16.17-12.82,52.25,19,71.26,10.92,7.6,25.65,6.65,33.71.93-4.27-9-13.76-49.4-2.36-67.91,3.32-5.69-2.87-15.17-2.87-15.17s10,.94,3.79-12.35c8.55,2.83,7.61-7.6,0-11.4,10-2.37,0-14.72,0-14.72Z"/><path class="cls-2" d="M426,410.91a32.78,32.78,0,0,1-18.59-5.68c-31-18.53-30.09-53.83-19.63-72.27-2.13-5-2.17-14.73-.1-22.63a5.33,5.33,0,0,1-2.49-3.74,9.73,9.73,0,0,1,3.24-8.95,5.19,5.19,0,0,1-1.1-3.84c.43-4.56,5.77-9.54,15-14a1.13,1.13,0,0,1,.6-.11l37.48,2.84a1.15,1.15,0,0,1,.82.43c.63.77,6.07,7.69,4.39,12.63a5.5,5.5,0,0,1-2.67,3.08c3.55,2.7,5.11,6.74,4.46,9.48a4.27,4.27,0,0,1-4.47,3.31h0l-.66,0c1.53,4,1.63,7.12.29,9.22a6,6,0,0,1-4.08,2.55c1.69,3.13,4.7,9.95,1.92,14.72-11.41,18.51-1.48,58.62,2.41,66.82a1.17,1.17,0,0,1-.39,1.46C438.24,409.18,432.23,410.91,426,410.91ZM403.12,282c-12,5.86-13.32,10.67-13.45,12a2.94,2.94,0,0,0,1.25,2.79,1.16,1.16,0,0,1,.47,1,1.17,1.17,0,0,1-.51.94,7.56,7.56,0,0,0-3.38,7.42c.13.62.55,2.08,1.85,2.35a1.14,1.14,0,0,1,.76.54,1.17,1.17,0,0,1,.12.93c-2.27,7.76-2.3,18.08-.08,22.55a1.17,1.17,0,0,1,0,1.12c-8,13.57-14.37,50,18.58,69.65a30.51,30.51,0,0,0,17.32,5.3,27.32,27.32,0,0,0,14.33-3.78c-4.23-10.18-13.36-49.49-1.9-68.1,2.91-5-2.79-13.84-2.85-13.93a1.18,1.18,0,0,1,0-1.24,1.2,1.2,0,0,1,1.11-.56c.1,0,2.82.18,4-1.6.76-1.2,1.15-3.74-1.33-9.09a1.16,1.16,0,0,1,1.42-1.6,7.36,7.36,0,0,0,2.25.43h0a2,2,0,0,0,2.2-1.52c.55-2.32-1.51-6.24-5.34-8.15a1.16,1.16,0,0,1,.26-2.18c1.84-.44,2.93-1.24,3.34-2.45,1-2.95-2.07-7.9-3.68-10Z"/><path class="cls-1" d="M457.24,311.6s1.67,1.25,1.67,4.64c-10.87-1.42-23.23.36-29.25,10-5.58,8.92-3.35,20.07,0,26.47,2.24,4.35,8.9,8.65,9.46,5.32,5.58,4.15,11.92.86,9.41-3.91,7,3.93,12.89-5.3,5.64-16.75,9.48,3.08,28.93-.9,30.37-11.13,1.67-11.68-8.78-31.88-27.05-44Z"/><path class="cls-2" d="M444.4,361.08a9.65,9.65,0,0,1-4.86-1.38,2.55,2.55,0,0,1-1.81.67c-2.74,0-7.25-3.53-9.11-7.13-3.91-7.46-5.41-18.91.05-27.63,5.67-9.07,16.07-11,23.79-11a50.61,50.61,0,0,1,5.17.27,4,4,0,0,0-1.11-2.39,1.26,1.26,0,0,1-.45-.93l.25-29.36a1.16,1.16,0,0,1,1.81-1c19.2,12.72,29.25,33.33,27.57,45.13-1.21,8.54-13.32,13.14-24.1,13.14a30.08,30.08,0,0,1-5.09-.41c2.9,5.82,2.46,10.7.91,13.51a6.45,6.45,0,0,1-7.16,3.4,4.44,4.44,0,0,1-.63,2.46A5.93,5.93,0,0,1,444.4,361.08Zm-5.18-4.17a1,1,0,0,1,.6.17,7.86,7.86,0,0,0,4.58,1.66,3.69,3.69,0,0,0,3.23-1.45,2.65,2.65,0,0,0-.14-2.63,1.17,1.17,0,0,1,.22-1.38,1.15,1.15,0,0,1,1.39-.18c2.52,1.42,5,.78,6.27-1.59,1.44-2.6,1.61-7.52-2.19-13.52a1.17,1.17,0,0,1,1.35-1.74,23.38,23.38,0,0,0,7.07,1c9.94,0,20.8-4.17,21.78-11.14,1.54-10.77-8-29.68-24.74-41.62l-.23,26.66a7.47,7.47,0,0,1,1.67,5.13,1.19,1.19,0,0,1-.4.88,1.15,1.15,0,0,1-.92.28,48.77,48.77,0,0,0-6.3-.42c-7.13,0-16.71,1.71-21.81,9.87-5,7.94-3.56,18.43,0,25.31,1.62,3.13,5.53,5.88,7,5.88a1.48,1.48,0,0,1,.84-1A1.71,1.71,0,0,1,439.22,356.91Z"/><path class="cls-2" d="M454.17,337.8a.51.51,0,0,0,.24-.09.42.42,0,0,0,.08-.57,29.59,29.59,0,0,0-4-4.2.35.35,0,0,0-.55,0,.39.39,0,0,0,0,.56,30.06,30.06,0,0,1,3.86,4.12A.35.35,0,0,0,454.17,337.8Z"/><path class="cls-2" d="M454.17,338.38a.94.94,0,0,1-.83-.49,30.25,30.25,0,0,0-3.72-3.95.94.94,0,0,1-.33-.65,1,1,0,0,1,.24-.74,1,1,0,0,1,1.44,0h0a30.51,30.51,0,0,1,4,4.25,1,1,0,0,1,.17.71,1,1,0,0,1-.39.67A1,1,0,0,1,454.17,338.38Z"/><path class="cls-2" d="M449,355.25a.38.38,0,0,0,.33-.18.38.38,0,0,0-.13-.55c-5.3-3.46-5.46-8.18-5.46-8.22a.38.38,0,0,0-.39-.39h0a.4.4,0,0,0-.4.39c0,.22.15,5.2,5.83,8.89A.49.49,0,0,0,449,355.25Z"/><path class="cls-2" d="M449,355.83a1,1,0,0,1-.53-.14c-6-3.93-6.11-9.34-6.11-9.39a1,1,0,0,1,1-1,1,1,0,0,1,1,1s.21,4.48,5.2,7.73a.93.93,0,0,1,.44.61,1,1,0,0,1-1,1.19Z"/><path class="cls-2" d="M439.12,358.39a.48.48,0,0,0,.29-.09.42.42,0,0,0,0-.57,21.89,21.89,0,0,1-5.47-9.82.38.38,0,0,0-.47-.33.4.4,0,0,0-.31.48,22.22,22.22,0,0,0,5.7,10.24A.37.37,0,0,0,439.12,358.39Z"/><path class="cls-2" d="M439.12,359a.93.93,0,0,1-.68-.27,22.57,22.57,0,0,1-5.86-10.55,1,1,0,0,1,.17-.75,1,1,0,0,1,.63-.41h.17a1,1,0,0,1,1,.81s0,.05,0,.06a21.05,21.05,0,0,0,5.3,9.45,1,1,0,0,1,.28.65,1.05,1.05,0,0,1-.26.74A1.2,1.2,0,0,1,439.12,359Z"/><path class="cls-1" d="M489.18,145.93c31.1,17.94,43,62.63,21,101.74S415.3,276,415.3,276s-54.25-24-46.19-73.83c8.6-52.92,40.86-75.59,74-71.33C466.41,133.84,475.09,137.83,489.18,145.93Z"/><path class="cls-2" d="M437.37,278.54a171.39,171.39,0,0,1-22.24-1.37l-.3-.09c-.55-.24-55-24.94-46.87-75.09,7.3-44.92,33.11-72.82,67.38-72.82a62.91,62.91,0,0,1,8,.52c23.33,3,32.08,6.95,46.47,15.23,33.11,19.1,42.73,65.45,21.43,103.33C497.1,273.29,463.27,278.54,437.37,278.54Zm-21.73-3.66a168.78,168.78,0,0,0,21.73,1.33c25.28,0,58.25-5,71.79-29.11,20.67-36.76,11.44-81.69-20.57-100.15C474.48,138.82,465.9,135,443,132a61.77,61.77,0,0,0-7.65-.49c-33,0-58,27.15-65.07,70.85C362.64,249.52,412.58,273.47,415.64,274.88Z"/><path class="cls-1" d="M368.6,207c0,.61-.84,1.09-1.81,1s-1.79-.54-1.77-1.16.83-1.08,1.83-1S368.63,206.36,368.6,207Z"/><path class="cls-2" d="M366.93,209.2h-.19a3.26,3.26,0,0,1-2.32-.92,1.93,1.93,0,0,1-.56-1.45c0-1.22,1.25-2.16,2.87-2.16a3.42,3.42,0,0,1,2.48.94,2,2,0,0,1,.56,1.44C369.73,208.27,368.51,209.2,366.93,209.2Z"/><path class="cls-1" d="M410.8,161.1c-9.17-3.66-31,8.17-33,29.61-1.95,20.47,21.68,25.28,32.5,15.06C419.75,196.83,429.46,168.51,410.8,161.1Z"/><path class="cls-2" d="M396.44,212.12h0a20.57,20.57,0,0,1-15.3-6.31c-3.52-3.88-5.08-9.14-4.5-15.21,1.78-19.13,19.16-31.33,30.33-31.33a11.49,11.49,0,0,1,4.26.74,17.2,17.2,0,0,1,10.91,13.37c2.18,11.37-4.06,26.65-11,33.24A21.41,21.41,0,0,1,396.44,212.12ZM407,161.61c-10.3,0-26.34,11.38-28,29.21-.51,5.4.84,10,3.91,13.42a18.22,18.22,0,0,0,13.57,5.55,19.11,19.11,0,0,0,13.06-4.87c5.77-5.45,12.49-19.92,10.35-31.1a14.81,14.81,0,0,0-9.48-11.64A9.24,9.24,0,0,0,407,161.61Z"/><path class="cls-2" d="M413.17,191.16c-2.11,3.37-6,4.74-8.69,3.05s-3.15-5.78-1.05-9.15,6-4.71,8.67-3S415.27,187.81,413.17,191.16Z"/><path class="cls-1" d="M408.72,184.34a1.88,1.88,0,1,1-.35-2.91A2.1,2.1,0,0,1,408.72,184.34Z"/><path class="cls-1" d="M409.16,193.54a1.09,1.09,0,0,1-1.42.5,1.11,1.11,0,0,1-.17-1.49,1,1,0,0,1,1.4-.47A1.06,1.06,0,0,1,409.16,193.54Z"/><path class="cls-1" d="M447.29,163.92c10.7,1.28,25.53,24,16.28,45.7-8.8,20.66-34,12.95-39.1-2.51C420.06,193.64,425.48,161.33,447.29,163.92Z"/><path class="cls-2" d="M445.92,223.34c-9.88,0-19.58-6.82-22.56-15.86-3.09-9.45-1.51-26.31,5.77-36.37,4.57-6.3,10.8-9.24,18.3-8.35,5,.61,10.68,5.35,14.75,12.39a39.34,39.34,0,0,1,2.47,34.93C461.06,218.51,454.23,223.34,445.92,223.34Zm-1.06-58.4c-5.56,0-10.21,2.54-13.84,7.55-6.76,9.33-8.29,25.54-5.44,34.26C428.25,214.88,437,221,445.92,221c7.44,0,13.33-4.21,16.58-11.85a37,37,0,0,0-2.34-32.84c-3.65-6.32-8.76-10.73-13-11.24A20.23,20.23,0,0,0,444.86,164.94Z"/><path class="cls-2" d="M438.86,194.16c.25,4.34,3.29,7.68,6.73,7.44s6.07-3.88,5.79-8.19-3.29-7.68-6.76-7.48S438.56,189.83,438.86,194.16Z"/><path class="cls-1" d="M446.68,189.94a2.27,2.27,0,0,0,2.14,2.36,2.3,2.3,0,0,0,1.85-2.6,2.33,2.33,0,0,0-2.16-2.39A2.3,2.3,0,0,0,446.68,189.94Z"/><path class="cls-1" d="M441.48,198.55a1.14,1.14,0,0,0,1.1,1.22,1.18,1.18,0,0,0,.92-1.34,1.13,1.13,0,0,0-1.1-1.19A1.09,1.09,0,0,0,441.48,198.55Z"/><path class="cls-1" d="M434.08,216.89c8.85-.47,39.39-4,66.34,11s31.2,39.72,19.56,36.15c7.1,18.9-10.42,17.34-14.32,12,1.51,8.93-49.22,18.46-84,12-6.14,5.57-18.09,3-20.91-5.55-32.72-14.23-45.26-40.86-47.78-49.34-11.86,2.4-11.83-13.26-2-18-15-8,16.33-25.65,44.27-8C411.49,195.32,434.08,216.89,434.08,216.89Z"/><path class="cls-2" d="M413.5,292.13c-5.22,0-11.37-2.73-13.64-8.82-34.49-15.2-45.69-43.19-47.65-48.88a11.66,11.66,0,0,1-1.53.1h0a7.45,7.45,0,0,1-7.73-6c-1-4.31,1-10.19,5.83-13.49-3-2.28-3-4.81-2.63-6.23,1.46-5.87,11.81-10.46,23.55-10.46a49,49,0,0,1,25.57,7.33,19.53,19.53,0,0,1,11-3.27c13,0,25.82,11.11,28.21,13.28l2-.13c3.32-.22,7.88-.53,13.44-.53,19.73,0,36.89,4,51,11.88,19.7,11,27.87,27.54,26,34.78a4.85,4.85,0,0,1-5.23,3.9c1.59,5.1,1.45,9.06-.44,11.78a8.49,8.49,0,0,1-7.3,3.4,13.16,13.16,0,0,1-7.66-2.43,6,6,0,0,1-.65.92c-5.52,6.53-32.21,12.05-58.29,12.05A143,143,0,0,1,422,289.25,13.44,13.44,0,0,1,413.5,292.13ZM353,232a1.17,1.17,0,0,1,1.12.83c.39,1.32,10,32.46,47.13,48.59a1.21,1.21,0,0,1,.64.71c1.75,5.33,7.09,7.72,11.6,7.71a11,11,0,0,0,7.41-2.65,1.12,1.12,0,0,1,1-.28A140.76,140.76,0,0,0,447.4,289c26.91,0,52-5.93,56.51-11.23.71-.84.63-1.35.6-1.51a1.17,1.17,0,0,1,2.1-.89c1.27,1.76,4.45,3.09,7.39,3.09,1.39,0,3.94-.31,5.38-2.4,1.63-2.35,1.46-6.35-.49-11.55a1.16,1.16,0,0,1,1.44-1.52c2.35.71,3.85.13,4.38-1.87,1.49-5.73-5.55-21.37-24.86-32.15-13.78-7.68-30.57-11.58-49.89-11.58-5.49,0-10,.3-13.28.52-1,.07-1.83.13-2.53.16a1.11,1.11,0,0,1-.87-.32c-.14-.13-13.78-13-27-13A17.18,17.18,0,0,0,396,208a1.16,1.16,0,0,1-1.31,0,46.72,46.72,0,0,0-25-7.39c-11.43,0-20.24,4.5-21.28,8.7-.55,2.18,1.42,3.75,3.17,4.68a1.15,1.15,0,0,1,.62,1.05,1.18,1.18,0,0,1-.66,1c-5.1,2.46-7.22,8-6.33,11.87a5.13,5.13,0,0,0,5.46,4.18h0a10.64,10.64,0,0,0,2.1-.22A.86.86,0,0,1,353,232Z"/><path class="cls-1" d="M422.71,213.91c-4.23-7-22.7-9.58-26-1.58-2.16,5.1,4.34,12.79,10.11,13.76C416.14,227.66,426.34,219.91,422.71,213.91Z"/><path class="cls-2" d="M409.29,227.46h0a15.92,15.92,0,0,1-2.69-.22c-3.78-.63-7.93-3.85-10.11-7.81-1.49-2.71-1.8-5.39-.89-7.56,1.5-3.58,5.69-5.64,11.5-5.64,6.12,0,13.79,2.43,16.61,7.07a6.54,6.54,0,0,1-.08,6.81C421.22,224.37,415.2,227.46,409.29,227.46Zm-2.19-18.89c-2.28,0-7.76.41-9.34,4.21-.64,1.49-.36,3.45.78,5.53,1.82,3.32,5.38,6.11,8.45,6.63a14.47,14.47,0,0,0,2.3.19h0c5,0,10.32-2.65,12.3-6.17a4.17,4.17,0,0,0,.12-4.45C419.69,211.18,413.27,208.57,407.1,208.57Z"/><path class="cls-1" d="M437.43,244.06s-18.94,5.77-30.35-6.62c-4.64,2.51-11.18-.22-14.54-3.44,2.43,7.38,5.13,12,6,21.46.78,8.55.9,14.44,9.3,17.17C416.65,275.49,431.69,263.52,437.43,244.06Z"/><path class="cls-2" d="M410.62,274.22h0a10.13,10.13,0,0,1-3.15-.48c-8.74-2.84-9.3-9.09-10-17l-.11-1.18c-.61-6.83-2.18-11-4-15.79-.65-1.71-1.3-3.46-1.95-5.41a1.17,1.17,0,0,1,1.92-1.21,15.05,15.05,0,0,0,9.61,4.09,7.55,7.55,0,0,0,3.57-.83,1.16,1.16,0,0,1,1.41.23c5.77,6.27,13.65,7.58,19.24,7.58a38.12,38.12,0,0,0,9.91-1.29,1.16,1.16,0,0,1,1.46,1.45C433.12,262.81,419.82,274.22,410.62,274.22Zm-15.71-37c.22.6.44,1.18.65,1.76a56.39,56.39,0,0,1,4.13,16.4l.11,1.18c.69,7.87,1.12,12.62,8.39,15a7.93,7.93,0,0,0,2.43.37c8.06,0,19.76-10.45,25.07-26.21a41.78,41.78,0,0,1-8.51.89c-5.87,0-14.09-1.36-20.36-7.71a9.94,9.94,0,0,1-3.86.73A16.42,16.42,0,0,1,394.91,237.2Z"/><path class="cls-1" d="M436.92,244.66h.15a14.8,14.8,0,0,0,4.43-3.34.4.4,0,0,0-.05-.55.41.41,0,0,0-.56,0,13.83,13.83,0,0,1-4.1,3.11.38.38,0,0,0-.22.52A.35.35,0,0,0,436.92,244.66Z"/><path class="cls-2" d="M436.92,245.54a1.24,1.24,0,0,1-1.2-.88,1.15,1.15,0,0,1,0-.89,1.24,1.24,0,0,1,.75-.7,13.22,13.22,0,0,0,3.7-2.83l.1-.11a1.32,1.32,0,0,1,1.8,0,1.26,1.26,0,0,1,.06,1.72,15.49,15.49,0,0,1-4.78,3.57A1.77,1.77,0,0,1,436.92,245.54Z"/><path class="cls-2" d="M393.8,235.39a.42.42,0,0,0,.19-.77c-.08,0-5.55-2.77-6.35-8.8a.36.36,0,0,0-.44-.32.38.38,0,0,0-.36.43c.89,6.43,6.54,9.3,6.78,9.41A.35.35,0,0,0,393.8,235.39Z"/><path class="cls-2" d="M393.8,236a.92.92,0,0,1-.48-.13,13.64,13.64,0,0,1-7.06-9.83,1.05,1.05,0,0,1,.26-.8.91.91,0,0,1,.63-.29l.14,0a1,1,0,0,1,.93.88c.75,5.64,6,8.29,6,8.31a1,1,0,0,1,.5.6.92.92,0,0,1-.08.74A.93.93,0,0,1,393.8,236Z"/><path class="cls-2" d="M446.1,252a.55.55,0,0,0,.4-.21,13.27,13.27,0,0,0-1.38-7.28c-1.52-3.11-4.87-7-12.32-7.9a.43.43,0,0,0-.45.36.41.41,0,0,0,.37.44c4.79.55,8.35,2.45,10.61,5.61a13.92,13.92,0,0,1,2.45,8.42.36.36,0,0,0,.12.51A.31.31,0,0,0,446.1,252Z"/><path class="cls-2" d="M446.1,252.6a.93.93,0,0,1-.47-.11,1,1,0,0,1-.42-1.19,13.44,13.44,0,0,0-2.36-7.92c-2.17-3-5.6-4.84-10.19-5.37a1,1,0,0,1-.89-1.09,1,1,0,0,1,1-.88c7.81.93,11.32,5,12.9,8.24,1.7,3.54,1.68,7.24,1.36,7.81A1.15,1.15,0,0,1,446.1,252.6Z"/><path class="cls-1" d="M407.83,272.63c-6.25-2-8-6.14-8.57-11.48,5.17-1.26,11.86.48,13.79,2.89,3.38-1.24,8.72,1.33,10.66,2.74C418.15,271.8,412.22,274.05,407.83,272.63Z"/><path class="cls-2" d="M410.61,274.22a10.07,10.07,0,0,1-3.14-.48c-7.31-2.38-8.84-7.63-9.38-12.46A1.18,1.18,0,0,1,399,260a17.14,17.14,0,0,1,4-.46c4.17,0,8.35,1.3,10.39,3.16a7.55,7.55,0,0,1,1.69-.18c3.49,0,7.56,2,9.31,3.3a1.15,1.15,0,0,1,.47.88,1.16,1.16,0,0,1-.38.93C419.8,271.89,414.87,274.22,410.61,274.22Zm-10.06-12.14c.66,4.43,2.36,7.72,7.64,9.44,3.58,1.16,8.7-.6,13.56-4.59-2.34-1.29-6.22-2.55-8.3-1.8a1.17,1.17,0,0,1-1.31-.36c-1.11-1.38-4.92-2.87-9.13-2.87A16.17,16.17,0,0,0,400.55,262.08Z"/><path class="cls-1" d="M407,237.24A25.52,25.52,0,0,0,422.58,245c-.88,4.77-2.7,13-4.66,14.06-2.54,1.37-7.45-.05-8.75-2.49-2.2,2.49-5.53.77-6.7-2.27-.86-2.24-1.28-11.14-1.61-15.76A9,9,0,0,0,407,237.24Z"/><path class="cls-2" d="M415.47,260.75a9.68,9.68,0,0,1-6.48-2.5,4.19,4.19,0,0,1-2.28.67c-2.19,0-4.38-1.73-5.33-4.21-.71-1.85-1.1-7.08-1.49-13.23l-.19-2.87a1.15,1.15,0,0,1,.37-.94,1.18,1.18,0,0,1,1-.3,9.44,9.44,0,0,0,1.28.1h0a8.58,8.58,0,0,0,4.17-1.27,1.19,1.19,0,0,1,1.41.24,24.13,24.13,0,0,0,14.85,7.39,1.2,1.2,0,0,1,.79.48,1.18,1.18,0,0,1,.2.89c-2.47,13.36-4.57,14.5-5.25,14.87A6.31,6.31,0,0,1,415.47,260.75Zm-6.3-5.35h.14a1.16,1.16,0,0,1,.89.6c.7,1.31,3.11,2.41,5.27,2.41a4,4,0,0,0,1.89-.4c.6-.32,2.14-3.28,3.85-12.06a26.27,26.27,0,0,1-14.42-7.29,10.1,10.1,0,0,1-4.48,1.14h-.19l.1,1.53c.28,4.33.7,10.88,1.34,12.54.89,2.33,3.28,3.55,4.74,1.92A1.16,1.16,0,0,1,409.17,255.4Z"/><path class="cls-1" d="M409.29,257.39l.15,0a.38.38,0,0,0,.19-.51c-2.27-5.51-1.55-18.44-1.55-18.58a.39.39,0,0,0-.38-.42.4.4,0,0,0-.4.39c0,.55-.74,13.24,1.61,18.92A.43.43,0,0,0,409.29,257.39Z"/><path class="cls-2" d="M409.29,258.27a1.3,1.3,0,0,1-1.18-.76c-2.5-6-1.69-19.2-1.69-19.34a1.28,1.28,0,0,1,1.25-1.19,1.3,1.3,0,0,1,1.29,1.35c-.3,6.39-.06,14.45,1.48,18.18a1.27,1.27,0,0,1-.63,1.65A4.82,4.82,0,0,1,409.29,258.27Z"/><path class="cls-2" d="M407.76,238.48a.4.4,0,0,0,.32-.18.37.37,0,0,0-.08-.55s-3.18-2.47-4.39-8.89a.39.39,0,0,0-.47-.31.39.39,0,0,0-.31.46c1.27,6.76,4.54,9.27,4.69,9.37A.43.43,0,0,0,407.76,238.48Z"/><path class="cls-2" d="M407.76,239.06a1,1,0,0,1-.53-.17c-.06,0-3.62-2.55-5-9.77a1,1,0,0,1,.8-1.15h.17a1,1,0,0,1,1,.79c1.06,5.63,3.66,8.1,4.17,8.54h0a1,1,0,0,1,.37.68.92.92,0,0,1-.21.69A1,1,0,0,1,407.76,239.06Z"/><path class="cls-1" d="M409.34,136.06l14,2.24s-12.36,7.08-7.31,23.54c4.8-5.72,14.49-12.38,14.49-12.38s-2.93,7.16,6,19.94c1.33-5.63,10.31-15.64,10.31-15.64s-.43,7.2,8,14.57a20.55,20.55,0,0,1,5.48-19.07,94.08,94.08,0,0,0,8.2,11.36c-.74-5.38-1.11-19.09,18.5-16.35-5.64-7.43-18.37-19.91-35.28-13.9C443.61,122.09,421.7,120.94,409.34,136.06Z"/><path class="cls-2" d="M436.43,170.57a1.17,1.17,0,0,1-.95-.5c-5.89-8.46-6.77-14.61-6.63-18-3.13,2.31-8.74,6.67-12,10.53a1.18,1.18,0,0,1-1.13.39,1.16,1.16,0,0,1-.88-.8c-3.85-12.55,2.06-20,5.56-23.15l-11.28-1.82a1.16,1.16,0,0,1-.72-1.89,33.43,33.43,0,0,1,26.05-12.13c7.08,0,13.55,2.17,17.49,5.84a27.85,27.85,0,0,1,8.6-1.41c13.08,0,22.56,9.75,27.14,15.73a1.15,1.15,0,0,1,.45.92,1.13,1.13,0,0,1-1.19,1.17l-.19,0c-7-1-12,.14-14.78,3.3s-2.88,7.91-2.44,11.43a1.1,1.1,0,0,1,.1.47,1.13,1.13,0,0,1-1.19,1.17,1.18,1.18,0,0,1-.89-.38,86.33,86.33,0,0,1-7.51-10.25,19.14,19.14,0,0,0-4.23,16.61,1.2,1.2,0,0,1,.15.56,1.17,1.17,0,0,1-1.17,1.17h-.05a1.19,1.19,0,0,1-.77-.29c-5.59-4.87-7.48-9.7-8.12-12.65-2.63,3.16-7.41,9.3-8.31,13.11a1.18,1.18,0,0,1-.92.88Zm-6-22.27a1.15,1.15,0,0,1,.73.25,1.18,1.18,0,0,1,.35,1.35c0,.06-2.23,6.12,4.57,16.91,2.6-5.82,9.42-13.46,9.75-13.83a1.16,1.16,0,0,1,2,.85s-.18,5.28,5.19,11.23a21.67,21.67,0,0,1,6.38-16.66,1.14,1.14,0,0,1,.95-.3,1.17,1.17,0,0,1,.83.55c0,.06,2.78,4.53,5.78,8.43,0-3.36.74-7.06,3.21-9.9,2.9-3.32,7.57-4.82,14.05-4.36-4.73-5.58-13-12.87-23.72-12.87a25.62,25.62,0,0,0-8.51,1.52,1.15,1.15,0,0,1-1.22-.28c-3.46-3.55-9.57-5.67-16.36-5.67a31.23,31.23,0,0,0-22.88,9.72l11.88,1.91a1.16,1.16,0,0,1,1,.94,1.17,1.17,0,0,1-.57,1.22c-.44.26-10.5,6.27-7.32,20.15a100.27,100.27,0,0,1,13.25-11A1.19,1.19,0,0,1,430.47,148.3Z"/></svg>