<svg id="Layer_45" data-name="Layer 45" xmlns="http://www.w3.org/2000/svg" xmlns:xlink="http://www.w3.org/1999/xlink" viewBox="0 0 895 511.11"><defs><style>.cls-1,.cls-2{fill:#fff;}.cls-1,.cls-4{stroke:#1d1d1b;stroke-miterlimit:10;}.cls-3{clip-path:url(#clip-path);}.cls-4{fill:none;}</style><clipPath id="clip-path"><path class="cls-1" d="M605.28,407.27v-.56h-286v.05c-17.22.52-31,14.86-31,32.52a31.39,31.39,0,0,0,31.68,31.83c2.2,0,4.25.1,6.73.08H604.67c-14.59-3-20.39-16.16-20.39-31.91C584.28,423.32,590.39,410.06,605.28,407.27Z"/></clipPath></defs><path class="cls-1" d="M321.57,471.14a7.15,7.15,0,0,1-1.2-.17c1.2.17-.62-13.18-.62-29.36s2.79-28.31.87-28.48c-.3,0,1.62.16,1.92.17L321.47,92.6l1,0V28.15c-.61,0-1.2-.08-1.81-.08-18,0-34.9,10.68-37.65,26-.61,3.43-.66,11.17-.61,13.88,0,0-.81,372.89-.81,374.45a31.39,31.39,0,0,0,.36,4.56v1h.17c2.94,16.91,19.05,29.84,38.54,29.84l.85,0Z"/><path class="cls-1" d="M605.28,407.27v-.56h-286v.05c-17.22.52-31,14.86-31,32.52a31.39,31.39,0,0,0,31.68,31.83c2.2,0,4.56.16,6.73.08H604.67c-14.59-3-20.39-16.16-20.39-31.91C584.28,423.32,590.39,410.06,605.28,407.27Z"/><path class="cls-2" d="M605.28,407.27v-.56h-286v.05c-17.22.52-31,14.86-31,32.52a31.39,31.39,0,0,0,31.68,31.83c2.2,0,4.25.1,6.73.08H604.67c-14.59-3-20.39-16.16-20.39-31.91C584.28,423.32,590.39,410.06,605.28,407.27Z"/><g class="cls-3"><rect class="cls-1" x="286.9" y="414.8" width="321.07" height="3.13"/><rect class="cls-1" x="286.9" y="430.59" width="321.07" height="3.13"/><rect class="cls-1" x="286.9" y="446.38" width="321.07" height="3.13"/><rect class="cls-1" x="286.9" y="454.28" width="321.07" height="3.13"/><rect class="cls-1" x="286.9" y="462.17" width="321.07" height="3.13"/><rect class="cls-1" x="286.9" y="438.49" width="321.07" height="3.12"/><rect class="cls-1" x="286.9" y="422.69" width="321.07" height="3.13"/></g><path class="cls-4" d="M605.28,407.27v-.56h-286v.05c-17.22.52-31,14.86-31,32.52a31.39,31.39,0,0,0,31.68,31.83c2.2,0,4.25.1,6.73.08H604.67c-14.59-3-20.39-16.16-20.39-31.91C584.28,423.32,590.39,410.06,605.28,407.27Z"/><path class="cls-1" d="M590,28.07H319.75c-.38,0-.76,0-1.14.05V413.37c.38,0,.76.06,1.14.06H590A23.08,23.08,0,0,0,613,390.49V51A23.07,23.07,0,0,0,590,28.07Z"/><path class="cls-1" d="M607.27,412s-25.14,33.52,1.53,59.59H300.2l-1.55-63.72Z"/><path class="cls-1" d="M298.65,447.4c4.12-3.11,52.06-39.38,302.52-24.78,0,0,.7-5.72,6.48-10.82l-304.8-7Z"/><path class="cls-1" d="M302.77,433.63v-8.29c0-14.73,11.35-13.54,11.35-13.54H613.45V394.88H311c-6.34,0-10.76,1.94-13.82,4.74h0c-.27.25-.52.5-.77.75a.71.71,0,0,1-.07.09c-.14.14-.29.29-.41.43-5.72,6.09-27.87,33.7-2.38,72.74,2.8,5.09,8,9.4,17.47,9.4H613.45V466.12H314.12s-11.35,1.2-11.35-13.53v-19Z"/><path class="cls-1" d="M314.12,466.12s-11.35,1.2-11.35-13.53V425.34c0-14.73,11.35-13.54,11.35-13.54h52.15V394.88H311c-6.34,0-10.76,1.94-13.82,4.74h0c-.27.25-.52.5-.77.75a.71.71,0,0,1-.07.09c-.14.14-.29.29-.41.43-5.72,6.09-27.87,33.7-2.38,72.74,2.8,5.09,8,9.4,17.47,9.4h55.25V466.12Z"/><path class="cls-1" d="M404,440.4c-11.21-2.25-25.3-1.19-25.3-1.19s15.95,10.7,15.18,34.27l12.18-16.1L422.88,469S417.6,445.48,404,440.4Z"/><rect class="cls-1" x="319.75" y="28.07" width="46.52" height="366.82"/><path class="cls-1" d="M425.92,206.26H383.63L376.35,245H340.93L384.46,64.83h41.46L469.44,245H433.2Zm-6-30.93L404.67,95.77l-15.21,79.56Z"/><rect class="cls-1" x="440.99" y="155.31" width="139.14" height="217.19"/><path class="cls-1" d="M559.14,290.39c0,33.69-21.86,43.08-51.6,43.08h-38.1V185.68h33.49c31.78,0,51.26,10,51.26,37.74,0,18.77-10.77,28.58-21.71,31.78C545.64,258.4,559.14,266.5,559.14,290.39Zm-61.68-80v34.33h10.43c11.61,0,17.76-5.55,17.76-17.92s-6.49-16.41-20-16.41Zm32.8,78.05c0-14.93-8.37-20.48-20.5-20.48h-12.3v40.1h10.26C520.87,308.09,530.26,304.68,530.26,288.47Z"/></svg>