<svg id="Layer_41" data-name="Layer 41" xmlns="http://www.w3.org/2000/svg" viewBox="0 0 895 511.11"><defs><style>.cls-1{fill:#fff;stroke:#1d1d1b;stroke-miterlimit:10;}</style></defs><path class="cls-1" d="M247.58,92.59c2.64,8.83,14.36,16.41,21,22.29,15.36,13.57,30.92,26.78,46.11,40.58,8,7.31,26.9,26.23,43.57,41.75,8.06,7.5,15.6,14.2,21.15,18.41a44.9,44.9,0,0,0,5.52,3.69c8.45,4.46,16.56,5.06,25.45,5.52,10.9.58,19.28,3.91,29.45,6.69,7.52,2,13.56-5.51,13.78-13.17.15-5.52-10.51-12.35-14.54-14.89-8.11-5.1-16.28-10.09-24.27-15.58-5-3.41-9.87-6.91-14.75-10.43C388.4,169,376.83,160.55,364.51,153c-6.93-4.25-19.93-13.34-34.66-23.74h0C298.53,107.12,259.38,79.12,254.1,79,247.61,78.88,246,87.38,247.58,92.59Z"/><path class="cls-1" d="M329.85,129.22c.81,3,2.55,6.59,3.35,9.22,2.65,8.74,7,16.9,10.65,25.25,4.2,9.47,7.3,19.25,12,28.62.82,1.63,1.6,3.27,2.39,4.9,8.06,7.5,15.6,14.2,21.15,18.41a61.12,61.12,0,0,0,10.85-1.49c9.51-1.94,11.43-5.1,13.41-14.84,1.8-8.9-.29-15.15-3.62-21.84C388.4,169,376.83,160.55,364.51,153,357.58,148.71,344.58,139.62,329.85,129.22Z"/><path class="cls-1" d="M438,204c-.49,1.14-.91,2.43-1.46,3.67-2.61,5.81-7.12,12.27-7,18.9.13,8.29,6.47,9.88,12,14.36,5.4,4.34,10.88,8.53,16.4,12.68,5.86,4.41,11.77,8.74,17.65,13.14,9.78,7.28,17,16.81,27.63,23.69s20.18,15.79,29.32,24.5c3,2.82,8.27,7.14,9.62,11.14,1.41,4.17-.61,5.07,2.31,9.51,2.47,3.77,6,7,8.62,10.75,1.46,2.09,4.3,9.62,6.41,10.66,3,1.48,8.66-1.94,12.2-2.14,4.86-.26,8.81,1.52,13.32,3.3,12.33,4.87,26.4,3,38.09-3h0a52.74,52.74,0,0,0,9-5.8c16.29-13,19.49-39.06,12.21-57.44-7.73-19.54-24.91-36.52-46.26-40-11.5-1.88-22.89-1-34.4-2.22-12.24-1.33-24.25-4.49-36.06-7.95a326.92,326.92,0,0,1-31.3-10.54c-8.19-3.32-18-7.2-25.37-11.93-5.18-3.32-10.76-5.78-16-9.23-3.33-2.16-7.73-8.93-11.68-9.57C440.16,200,438.93,201.73,438,204ZM600.27,343.23c-6.58.57-11.91-1.29-17.33-5.23-10.92-7.93-20.36-17.77-28.81-28.64-7.66-9.85-17.61-16.92-11-31,9-19.24,40.78-9.61,55.85-3.73,16.77,6.55,40.32,33.14,28.37,52.52C621.4,336.72,611.06,342.29,600.27,343.23Z"/><path class="cls-1" d="M413.23,221.45c1-8.85,1.69-16.95-1.36-26-4.75-14.07-73.43-114.29-84.35-131.63-4.73-7.51-10.33-20.3-18.62-24.33-4.89-2.37-13.53-2.17-14.45,4.25-1.09,7.7,19.06,42.37,23.27,51.54,10.59,23.08,22.29,45.82,32,69.33,7.81,19,17.66,36.77,26.37,55.26,4.13,8.77,7.74,17.64,11.48,26.46,1.85,4.39,6.88,16,12.35,16.76,7.6,1,16-3.74,15.21-11.49C414,241.1,412.05,232.29,413.23,221.45Z"/><path class="cls-1" d="M391.77,244.53c-1,.23-2,.39-2.91.55-2.9.54-5.32,1.21-5.43,4.69-.12,4,5.69,9.59,7.19,13.27,2.38,5.83,3.75,11.77,6,17.48,3.25,8.09,5.19,18.5,6.9,27.18A327.4,327.4,0,0,1,408,340.42c1.17,12.25,2,24.64,1,36.91-1,11.54-4,22.55-4.33,34.2-.62,21.62,12.81,41.7,30.53,53,14.88,9.49,37.3,11.93,53.23,2.74a35.67,35.67,0,0,0,5.49-3.85c12.52-10.69,20.69-28,17.57-44.56-.9-4.78-1.91-9-.73-13.7.86-3.44,5.3-8.36,4.42-11.59-.63-2.27-7.49-6.49-9.26-8.3-3.19-3.25-5.69-7.36-8.93-10.51-3.81-3.71-5.09-1.89-8.9-4.06s-6.92-8.12-9.12-11.55c-6.83-10.63-13.83-21.9-18.51-33.43-4.77-11.7-12.75-20.63-18.05-31.61-3.19-6.61-6.34-13.22-9.56-19.81-3-6.21-6.12-12.38-9.36-18.5-3.34-6.33-3.7-12.85-11.82-14.55C405.18,239.88,398,243.07,391.77,244.53Zm35,172.21c-2.92-15.91-6.38-49,14.22-54.14,15.12-3.8,20.17,7.3,28.41,16.69,9,10.34,16.94,21.48,22.67,33.7,2.84,6.07,3.66,11.65,1.86,18-3,10.42-10.4,19.52-21,23.54C451.64,462.6,430,434.44,426.72,416.74Z"/><path class="cls-1" d="M390.48,192.73a6,6,0,1,0,7,4.83A6,6,0,0,0,390.48,192.73Z"/><path class="cls-1" d="M390.7,192.69a4.81,4.81,0,1,0,5.61,3.84A4.81,4.81,0,0,0,390.7,192.69Z"/><path class="cls-1" d="M438,204c-.49,1.14-.91,2.43-1.46,3.67-2.61,5.81-7.12,12.27-7,18.9.13,8.29,6.47,9.88,12,14.36,5.4,4.34,10.88,8.53,16.4,12.68,5.86,4.41,11.77,8.74,17.65,13.14,9.78,7.28,17,16.81,27.63,23.69s20.18,15.79,29.32,24.5c3,2.82,8.27,7.14,9.62,11.14,1.41,4.17-.61,5.07,2.31,9.51,2.47,3.77,6,7,8.62,10.75,1.46,2.09,4.3,9.62,6.41,10.66,3,1.48,8.66-1.94,12.2-2.14,4.86-.26,8.81,1.52,13.32,3.3,12.33,4.87,26.4,3,38.09-3-1.31.4-2.55.74-3.68,1-10.32,2.49-20.14,2.55-30.13-.69-4.6-1.5-7.64-5.2-11.65-7.44-4.74-2.66-8.68-.2-13.47-2.25-3.92-1.67-7.31-7.85-9.74-11.06-1.47-1.93-2.94-3.25-3.76-5.46-1-2.68.16-5-.69-7.42-2.63-7.57-12.87-14.53-18.93-19.77-6.73-5.82-13.92-12-20.2-18.3-14.23-14.33-31.85-27.59-48.14-39.36-7.47-5.39-15.27-10-20.66-17-3.27-4.25-5.14-8.1-5.33-13.77C436.61,210.69,438.17,207.11,438,204Z"/><path class="cls-1" d="M388.86,245.08c-2.9.54-5.32,1.21-5.43,4.69-.12,4,5.69,9.59,7.19,13.27,2.38,5.83,3.75,11.77,6,17.48,3.25,8.09,5.19,18.5,6.9,27.18A327.4,327.4,0,0,1,408,340.42c1.17,12.25,2,24.64,1,36.91-1,11.54-4,22.55-4.33,34.2-.62,21.62,12.81,41.7,30.53,53,14.88,9.49,37.3,11.93,53.23,2.74a52.47,52.47,0,0,1-17.11,2.27c-10-.72-21.3-5.16-29.31-11-12.09-8.82-26.37-24.41-27.87-40.08-1.59-16.5.77-30.81,3.72-47.2,2.15-12,1.9-23.61.87-35.81-.53-6.1-2.4-12.15-3.18-17.89s-.07-11.33-1.12-16.93c-2-10.75-7.87-21.91-12.28-32-2.66-6.05-9.48-10.83-10.16-17.86a13.75,13.75,0,0,1-3.16-2.52C388.3,247.38,388.57,246.2,388.86,245.08Z"/><path class="cls-1" d="M640,299.9a129,129,0,0,0-9.46-16.71c-3.77-5.53-9.11-9.08-13.79-13.69a1,1,0,0,1,.83-1.65c14.21.8,20.38,20.19,24.46,31.06.51,1.34-1.4,2.33-2,1Z"/><path class="cls-1" d="M507.88,397.62c-3.82-2-6.45-5.79-9.34-8.93-3.18-3.47-6.94-7.14-8.76-11.54a.62.62,0,0,1,.76-.85c4.38,1.2,7.64,4.73,10.58,8,3.22,3.59,6.92,7.62,8.3,12.31.27.93-.88,1.36-1.54,1Z"/><path class="cls-1" d="M482.27,374.1a3.52,3.52,0,0,1-2.39-.53c-.85-.43-2.08-.95-2.17-2l.26.55-.4-.58a.91.91,0,0,1,1-1.44l.7.16-.61-.05c.9-.28,1.63.42,2.35.85a6.55,6.55,0,0,0,.8.38,3.2,3.2,0,0,1,1.16.76,1.19,1.19,0,0,1-.68,1.94Z"/><path class="cls-1" d="M609.74,268.66c-1.24-.27-2.39-.61-3.6-1l-.75-.2c.91.23-.88-.21-1.14-.29a5,5,0,0,1-2.25-1.87,3.3,3.3,0,0,1,1-5.06,5.17,5.17,0,0,1,2.89-.79,7.08,7.08,0,0,1,2.45.81,10,10,0,0,1,4.07,3.07,3.37,3.37,0,0,1,.59,3.19,3.21,3.21,0,0,1-3.3,2.13Z"/></svg>