<svg id="Layer_41" data-name="Layer 41" xmlns="http://www.w3.org/2000/svg" viewBox="0 0 895 511.11"><defs><style>.cls-1,.cls-2{fill:#fff;stroke:#1d1d1b;}.cls-1{stroke-miterlimit:10;}.cls-2{stroke-miterlimit:10.03;stroke-width:1px;}</style></defs><path class="cls-1" d="M604.91,341.68c-70.84-5.37-129.8-19.18-201.71-16-44.92,2.4-92.88,11.33-139.78,13.9C271.82,376,288.34,444.66,294.09,448c7.84,4.58,78.28,20.05,157.32,20.05,73.89,0,127.73-13.18,132.88-17.76,3.93-3.49,24.2-74.34,33.59-107.73C612.81,342.4,608.4,342.06,604.91,341.68Z"/><path class="cls-1" d="M389.34,465.15c19.3,1.79,40.36,3,62.07,3,13.19,0,25.73-.42,37.48-1.14V343.25H389.34Z"/><path class="cls-1" d="M488.89,343.25V467s3.8-.21,9.73-.67V333.88H380V464.23c3.06.32,6.18.63,9.34.92V343.25Z"/><path class="cls-1" d="M414,365.24v50.27h50.27V365.24Z"/><path class="cls-1" d="M424.26,46.69c-44.53,13.25-78.78,45.36-105.61,78.63-21.47,25.76-34.93,56.46-63.16,76.79-22.2,16-50.92,36.55-69.16,55.87-36.5,39.71-27.91,76.2,30,81.57,61.18,4.29,126.71-10.61,186.82-13.83,71.91-3.22,130.87,10.59,201.71,16,29,3.22,121.61,3.1,125.57-39.7,1.94-21-37.52-48-48.33-69.46-34.47-68.3-66.63-80.57-99.9-104.18C554.34,108,537.83,89.15,511.07,67.19,486.18,46.77,456.18,37.19,424.26,46.69Z"/><path class="cls-1" d="M444.51,189.36C411.85,189.36,415,270,415,270h59S476.37,189.36,444.51,189.36Z"/><path class="cls-1" d="M356.18,346.17h-42a5.29,5.29,0,0,0-5.29,5.29h0v77.81a5.29,5.29,0,0,0,5.28,5.3h42a5.29,5.29,0,0,0,5.29-5.29h0V351.47a5.29,5.29,0,0,0-5.28-5.3Z"/><path class="cls-1" d="M564.13,346.17h-42a5.3,5.3,0,0,0-5.3,5.3v77.81a5.3,5.3,0,0,0,5.3,5.3h42a5.3,5.3,0,0,0,5.3-5.3V351.47A5.3,5.3,0,0,0,564.13,346.17Z"/><path class="cls-1" d="M389.34,465.15c19.3,1.79,40.36,3,62.07,3,13.19,0,25.73-.42,37.48-1.14V343.25H389.34Z"/><path class="cls-1" d="M260.61,198.19c14.94-12.16,25.63-27.33,36.16-42.74V96a1.22,1.22,0,0,0-1.33-1H224v34.32h36.66Z"/><path class="cls-1" d="M224,130.73c0,5.85-4.25,10.59-9.49,10.59H203.07c-5.25,0-9.5-4.74-9.5-10.59V92.07c0-5.85,4.25-10.59,9.5-10.59h11.39c5.24,0,9.49,4.74,9.49,10.59Z"/><path class="cls-1" d="M444.51,189.36C411.85,189.36,415,270,415,270h59S476.37,189.36,444.51,189.36Zm20.76,37.72H447.1V196.26c10.27,2,15.51,16.08,18.17,30.82Zm-23.4-30.83v30.83H423.48c2.61-14.75,7.87-28.82,18.39-30.83Zm-19.2,36.05h19.2v31.07H421.05A204.25,204.25,0,0,1,422.67,232.3ZM468,263.37H447.1V232.3h19A209.66,209.66,0,0,1,468,263.37Z"/><path class="cls-1" d="M356.18,346.17h-42a5.29,5.29,0,0,0-5.29,5.29h0v77.81a5.29,5.29,0,0,0,5.28,5.3h42a5.29,5.29,0,0,0,5.29-5.29h0V351.47a5.29,5.29,0,0,0-5.28-5.3Zm-1.76,11.32V387H338.63V353h11.92c2.14,0,3.87,2,3.87,4.49ZM319.84,353h11.92v34H316V357.49A4.22,4.22,0,0,1,319.84,353ZM316,423.26V393.88h15.8v33.85h-12A4.21,4.21,0,0,1,316,423.26Zm34.59,4.47h-12V393.88h15.79v29.38c0,2.47-1.73,4.47-3.87,4.47Z"/><path class="cls-1" d="M564.13,346.17h-42a5.3,5.3,0,0,0-5.3,5.3v77.81a5.3,5.3,0,0,0,5.3,5.3h42a5.3,5.3,0,0,0,5.3-5.3V351.47A5.3,5.3,0,0,0,564.13,346.17Zm-1.76,11.32V387H546.58V353H558.5c2.14,0,3.87,2,3.87,4.49ZM527.79,353h11.92v34H523.92V357.49C523.92,355,525.65,353,527.79,353Zm-3.87,70.24V393.88h15.79v33.85H527.79c-2.14,0-3.87-2-3.87-4.47Zm34.58,4.47H546.58V393.88h15.79v29.38c0,2.47-1.73,4.47-3.87,4.47Z"/><path class="cls-1" d="M488.89,343.25V467s3.8-.21,9.73-.67V333.88H380V464.23c3.06.32,6.18.63,9.34.92V343.25Z"/><path class="cls-1" d="M414,365.24v50.27h50.27V365.24Zm44.12,21.7H442.74V371.58H458.1ZM435.9,371.58v15.36H420.52V371.58Zm-15.36,22.23H435.9v15.36H420.52Zm22.22,15.36V393.81H458.1v15.36Z"/><path class="cls-1" d="M289.34,220.53a53.24,53.24,0,0,0-14.23-36.32,120.27,120.27,0,0,1-19.62,17.9c-19.61,14.13-44.3,31.81-62.37,49.06a52.87,52.87,0,0,0,96.22-30.64Z"/><path class="cls-1" d="M335.19,273.77a41.11,41.11,0,0,0-34.93,62.77c24.83-2.64,49.66-6.1,73.89-8.52a41.15,41.15,0,0,0-39-54.25Z"/><circle class="cls-2" cx="565.96" cy="256.1" r="36.47"/><path class="cls-1" d="M664.69,202.12A75,75,0,0,0,683,337.9c24.77-5.41,45.67-16.08,47.5-35.92,1.94-21-37.52-48-48.33-69.46A301.23,301.23,0,0,0,664.69,202.12Z"/><circle class="cls-1" cx="380.25" cy="128.08" r="23.84"/><path class="cls-1" d="M582.25,128.34C554.34,108,537.83,89.15,511.07,67.19a125.4,125.4,0,0,0-10.56-7.79,61.42,61.42,0,1,0,94,77.3C590.45,134,586.36,131.26,582.25,128.34Z"/><path class="cls-1" d="M496.82,239.58a10.6,10.6,0,0,1-10.25-8,149.29,149.29,0,0,0-12-30C468,189.71,457.44,175.47,444,175.47c-14.13,0-24.75,14.38-31.16,26.44a141.65,141.65,0,0,0-11.42,29.54,10.59,10.59,0,1,1-20.6-4.93h0A163.13,163.13,0,0,1,394.1,192c16.56-31.14,36.25-37.67,49.86-37.67,11,0,21.33,4.28,30.7,12.74,6.79,6.13,13.08,14.49,18.69,24.86a168.92,168.92,0,0,1,13.74,34.46,10.6,10.6,0,0,1-7.61,12.9h0A11.27,11.27,0,0,1,496.82,239.58Z"/><path class="cls-1" d="M424.26,46.69c-44.53,13.25-78.78,45.36-105.61,78.63-21.47,25.76-34.93,56.46-63.16,76.79-22.2,16-50.92,36.55-69.16,55.87-36.5,39.71-27.91,76.2,30,81.57,61.18,4.29,126.71-10.61,186.82-13.83,71.91-3.22,130.87,10.59,201.71,16,29,3.22,121.61,3.1,125.57-39.7,1.94-21-37.52-48-48.33-69.46-34.47-68.3-66.63-80.57-99.9-104.18C554.34,108,537.83,89.15,511.07,67.19,486.18,46.77,456.18,37.19,424.26,46.69Z"/><path class="cls-1" d="M604.91,341.68c-70.84-5.37-129.8-19.18-201.71-16-44.92,2.4-92.88,11.33-139.78,13.9C271.82,376,288.34,444.66,294.09,448c7.84,4.58,78.28,20.05,157.32,20.05,73.89,0,127.73-13.18,132.88-17.76,3.93-3.49,24.2-74.34,33.59-107.73C612.81,342.4,608.4,342.06,604.91,341.68Z"/><path class="cls-1" d="M260.61,198.19c14.94-12.16,25.63-27.33,36.16-42.74V96a1.22,1.22,0,0,0-1.33-1H224v34.32h36.66Z"/><path class="cls-1" d="M224,130.73c0,5.85-4.25,10.59-9.49,10.59H203.07c-5.25,0-9.5-4.74-9.5-10.59V92.07c0-5.85,4.25-10.59,9.5-10.59h11.39c5.24,0,9.49,4.74,9.49,10.59Z"/><path class="cls-1" d="M289.34,220.53a53.24,53.24,0,0,0-14.23-36.32,120.27,120.27,0,0,1-19.62,17.9c-19.61,14.13-44.3,31.81-62.37,49.06a52.87,52.87,0,0,0,96.22-30.64Z"/><path class="cls-1" d="M335.19,273.77a41.11,41.11,0,0,0-34.93,62.77c24.83-2.64,49.66-6.1,73.89-8.52a41.15,41.15,0,0,0-39-54.25Z"/><circle class="cls-2" cx="565.96" cy="256.1" r="36.47"/><path class="cls-1" d="M664.69,202.12A75,75,0,0,0,683,337.9c24.77-5.41,45.67-16.08,47.5-35.92,1.94-21-37.52-48-48.33-69.46A301.23,301.23,0,0,0,664.69,202.12Z"/><circle class="cls-1" cx="380.25" cy="128.08" r="23.84"/><path class="cls-1" d="M582.25,128.34C554.34,108,537.83,89.15,511.07,67.19a125.4,125.4,0,0,0-10.56-7.79,61.42,61.42,0,1,0,94,77.3C590.45,134,586.36,131.26,582.25,128.34Z"/><path class="cls-1" d="M444.51,189.36C411.85,189.36,415,270,415,270h59S476.37,189.36,444.51,189.36Zm20.76,37.72H447.1V196.26c10.27,2,15.51,16.08,18.17,30.82Zm-23.4-30.83v30.83H423.48c2.61-14.75,7.87-28.82,18.39-30.83Zm-19.2,36.05h19.2v31.07H421.05A204.25,204.25,0,0,1,422.67,232.3ZM468,263.37H447.1V232.3h19A209.66,209.66,0,0,1,468,263.37Z"/><path class="cls-1" d="M496.82,239.58a10.6,10.6,0,0,1-10.25-8,149.29,149.29,0,0,0-12-30C468,189.71,457.44,175.47,444,175.47c-14.13,0-24.75,14.38-31.16,26.44a141.65,141.65,0,0,0-11.42,29.54,10.59,10.59,0,1,1-20.6-4.93h0A163.13,163.13,0,0,1,394.1,192c16.56-31.14,36.25-37.67,49.86-37.67,11,0,21.33,4.28,30.7,12.74,6.79,6.13,13.08,14.49,18.69,24.86a168.92,168.92,0,0,1,13.74,34.46,10.6,10.6,0,0,1-7.61,12.9h0A11.27,11.27,0,0,1,496.82,239.58Z"/><path class="cls-1" d="M356.18,346.17h-42a5.29,5.29,0,0,0-5.29,5.29h0v77.81a5.29,5.29,0,0,0,5.28,5.3h42a5.29,5.29,0,0,0,5.29-5.29h0V351.47a5.29,5.29,0,0,0-5.28-5.3Zm-1.76,11.32V387H338.63V353h11.92c2.14,0,3.87,2,3.87,4.49ZM319.84,353h11.92v34H316V357.49A4.22,4.22,0,0,1,319.84,353ZM316,423.26V393.88h15.8v33.85h-12A4.21,4.21,0,0,1,316,423.26Zm34.59,4.47h-12V393.88h15.79v29.38c0,2.47-1.73,4.47-3.87,4.47Z"/><path class="cls-1" d="M564.13,346.17h-42a5.3,5.3,0,0,0-5.3,5.3v77.81a5.3,5.3,0,0,0,5.3,5.3h42a5.3,5.3,0,0,0,5.3-5.3V351.47A5.3,5.3,0,0,0,564.13,346.17Zm-1.76,11.32V387H546.58V353H558.5c2.14,0,3.87,2,3.87,4.49ZM527.79,353h11.92v34H523.92V357.49C523.92,355,525.65,353,527.79,353Zm-3.87,70.24V393.88h15.79v33.85H527.79c-2.14,0-3.87-2-3.87-4.47Zm34.58,4.47H546.58V393.88h15.79v29.38c0,2.47-1.73,4.47-3.87,4.47Z"/><path class="cls-1" d="M414,365.24v50.27h50.27V365.24Zm44.12,21.7H442.74V371.58H458.1ZM435.9,371.58v15.36H420.52V371.58Zm-15.36,22.23H435.9v15.36H420.52Zm22.22,15.36V393.81H458.1v15.36Z"/></svg>