<svg id="Layer_1" data-name="Layer 1" xmlns="http://www.w3.org/2000/svg" viewBox="0 0 895 511.11"><defs><style>.cls-1,.cls-3{fill:#fff;}.cls-2{fill:none;}.cls-2,.cls-3{stroke:#000;stroke-miterlimit:10;stroke-width:5px;}</style></defs><path class="cls-1" d="M614.13,359.41c0-53.7-43.54-103-97.24-103s-97.23,49.35-97.23,103.05,43.53,91.42,97.23,91.42S614.13,413.11,614.13,359.41Z"/><g id="Layer_3" data-name="Layer 3"><path class="cls-1" d="M516.89,280c0,2.94-5.45,2.31-5.72-.68-.14-1.61-14.93-161-58.05-209.48a5.73,5.73,0,0,1,8.57-7.62C507.32,113.53,522,271.57,522.6,278.27c.28,3.16-2.56,2.54-5.71,2.82C516.71,281.11,516.9,276.54,516.89,280Z"/><path class="cls-2" d="M516.89,280c0,2.94-5.45,2.31-5.72-.68-.14-1.61-14.93-161-58.05-209.48a5.73,5.73,0,0,1,8.57-7.62C507.32,113.53,522,271.57,522.6,278.27c.28,3.16-2.56,2.54-5.71,2.82C516.71,281.11,516.9,276.54,516.89,280Z"/><path class="cls-2" d="M614.13,359.41c0-53.7-43.54-103-97.24-103s-97.23,49.35-97.23,103.05,43.53,91.42,97.23,91.42S614.13,413.11,614.13,359.41Z"/><path class="cls-3" d="M475.34,357c0-53.7-43.53-104-97.23-104s-97.24,50.28-97.24,104,43.54,90.49,97.24,90.49S475.34,410.67,475.34,357Z"/><path class="cls-2" d="M475.34,357c0-53.7-43.53-104-97.23-104s-97.24,50.28-97.24,104,43.54,90.49,97.24,90.49S475.34,410.67,475.34,357Z"/><path class="cls-1" d="M421.5,284.52a5.74,5.74,0,0,1-3.63-10.19c3.19-2.6,77.6-65.33,30.73-206.51a5.74,5.74,0,1,1,10.89-3.61c49.51,149.09-30.95,216.26-34.41,219A5.62,5.62,0,0,1,421.5,284.52Z"/><path class="cls-2" d="M421.5,284.52a5.74,5.74,0,0,1-3.63-10.19c3.19-2.6,77.6-65.33,30.73-206.51a5.74,5.74,0,1,1,10.89-3.61c49.51,149.09-30.95,216.26-34.41,219A5.62,5.62,0,0,1,421.5,284.52Z"/><path class="cls-1" d="M411.2,275.9s-3.37-2-11.78-3.55-12.35-.21.18,10.66,18.21,17,23.85,19.65c7.86,3.64,13.84-2.57,10.57-7.21S411.2,275.9,411.2,275.9Z"/><path class="cls-1" d="M503.45,269.28s-3.9.61-11.28,4.92-9.55,7.83,7,8,24.9,1.2,30.9-.46c8.35-2.3,8.88-10.91,3.39-12.33S503.45,269.28,503.45,269.28Z"/><path class="cls-2" d="M411.2,275.9s-3.37-2-11.78-3.55-12.35-.21.18,10.66,18.21,17,23.85,19.65c7.86,3.64,13.84-2.57,10.57-7.21S411.2,275.9,411.2,275.9Z"/><path class="cls-1" d="M423.92,268.42a20.86,20.86,0,0,1-5,4.56c-3.25,2.08-6.18.68-9.72.94a8.36,8.36,0,0,0-5.58,2.4c-2.19,2.36-1.6,5.18.29,7.44a66.49,66.49,0,0,0,15,13.8,8.49,8.49,0,0,0,3.35,1.46c4.51.6,5.24-6.56,5.66-9.58a42.22,42.22,0,0,1,1.52-7.38c.3-.94,3.68-9.38,5-8.78Z"/><path class="cls-2" d="M423.92,268.42a20.86,20.86,0,0,1-5,4.56c-3.25,2.08-6.18.68-9.72.94a8.36,8.36,0,0,0-5.58,2.4c-2.19,2.36-1.6,5.18.29,7.44a66.49,66.49,0,0,0,15,13.8,8.49,8.49,0,0,0,3.35,1.46c4.51.6,5.24-6.56,5.66-9.58a42.22,42.22,0,0,1,1.52-7.38c.3-.94,3.68-9.38,5-8.78Z"/><path class="cls-3" d="M367.42,231.1h0c76.27-6.55,124.69-71.51,108.14-145.1h0C399.28,92.54,350.86,157.51,367.42,231.1Z"/><path class="cls-2" d="M367.42,231.1h0c76.27-6.55,124.69-71.51,108.14-145.1h0C399.28,92.54,350.86,157.51,367.42,231.1Z"/><path class="cls-1" d="M372.77,227.92C449,221.36,492.1,161.59,475.55,88,475.55,88,452.63,157.29,372.77,227.92Z"/><path class="cls-2" d="M372.77,227.92C449,221.36,492.1,161.59,475.55,88,475.55,88,452.63,157.29,372.77,227.92Z"/><path class="cls-2" d="M503.45,269.28s-3.9.61-11.28,4.92-9.55,7.83,7,8,24.9,1.2,30.9-.46c8.35-2.3,8.88-10.91,3.39-12.33S503.45,269.28,503.45,269.28Z"/><path class="cls-1" d="M508.19,253.93a26.09,26.09,0,0,1-.75,8.12,18.45,18.45,0,0,1-5.42,8.38c-.94.92-2.3,1.37-3.19,2.31-1.34,1.41-1,3.72.09,5.18A6.06,6.06,0,0,0,503,280a80.12,80.12,0,0,0,22.41.56,8.77,8.77,0,0,0,4.84-2.47c2.84-3.56-3.59-6.76-5.23-9.34a42.69,42.69,0,0,1-3.61-6.61,99.53,99.53,0,0,1-1.87-9.92S508.08,252.51,508.19,253.93Z"/><path class="cls-2" d="M508.19,253.93a26.09,26.09,0,0,1-.75,8.12,18.45,18.45,0,0,1-5.42,8.38c-.94.92-2.3,1.37-3.19,2.31-1.34,1.41-1,3.72.09,5.18A6.06,6.06,0,0,0,503,280a80.12,80.12,0,0,0,22.41.56,8.77,8.77,0,0,0,4.84-2.47c2.84-3.56-3.59-6.76-5.23-9.34a42.69,42.69,0,0,1-3.61-6.61,99.53,99.53,0,0,1-1.87-9.92S508.08,252.51,508.19,253.93Z"/></g></svg>