<svg xmlns="http://www.w3.org/2000/svg" viewBox="0 0 895 511.11"><defs><style>.cls-1{isolation:isolate;}.cls-2,.cls-3,.cls-4{fill:#fff;stroke:#1d1d1b;stroke-miterlimit:10;stroke-width:2px;}.cls-3{mix-blend-mode:multiply;}.cls-4{opacity:0.5;mix-blend-mode:screen;}</style></defs><g class="cls-1"><g id="Layer_38" data-name="Layer 38"><path class="cls-2" d="M619.36,391.34H284.23c-25,0-45.24-21.47-45.24-47.95L208.12,178.15c0-32.24,23.19-58.38,51.8-58.38H643.67c28.61,0,51.8,26.14,51.8,58.38L664.6,343.39C664.6,369.87,644.34,391.34,619.36,391.34Z"/><path class="cls-3" d="M412,365.35c-47.89.95-89.3.4-128.09-26.53-36.52-25.36-53.63-62.27-61.75-85.49L239,343.39c0,26.48,20.25,47.95,45.24,47.95H619.36c23.52,0,42.83-19,45-43.34C562.84,359.79,477.41,364.05,412,365.35Z"/><rect class="cls-2" x="184.5" y="227.4" width="525.99" height="49.38" rx="17.16"/><polygon class="cls-2" points="469.38 323.78 421.08 323.78 405.63 273.52 482.92 273.52 469.38 323.78"/><rect class="cls-3" x="184.5" y="248.62" width="525.99" height="6.94"/><polygon class="cls-3" points="479.27 287.08 409.8 287.08 406.63 276.78 482.05 276.78 479.27 287.08"/><path class="cls-4" d="M702.84,233.7c2.44,3.49,2.48,7.69.08,9.37s-6.33.2-8.78-3.29-2.48-7.7-.07-9.38S700.4,230.2,702.84,233.7Z"/></g></g></svg>