<svg id="Layer_44" data-name="Layer 44" xmlns="http://www.w3.org/2000/svg" viewBox="0 0 895 511.11"><defs><style>.cls-1{fill:#fff;stroke:#1d1d1b;stroke-miterlimit:10;}</style></defs><path class="cls-1" d="M456.13,480.21c57.74-1.33,141.1-11.41,160.12-18.23,22.23-8,40.46-31.92,20.52-53C622.33,393.72,555.28,363.39,447,365.1S261.82,397,251.56,427.22s23.34,39.09,47.87,45C332.48,480.21,456.13,480.21,456.13,480.21Z"/><path class="cls-1" d="M441.38,139.5s33.88-23.87,76.23-18.48,93.95,39.27,97.8,94.71-30,114.74-60.07,151.7-45.43,49.28-45.43,49.28l-112.43-.77S315.09,379,286.6,314.3s-24.16-131,20.79-167.87C362.83,101,441.38,139.5,441.38,139.5Z"/><path class="cls-1" d="M352.21,144.55c-2.31-3.85-29.59,3-39.87,11.33S293.24,185,296.8,193.23s17.46,2.1,28.28-14.49,11.14-17,20.93-23S352.21,144.55,352.21,144.55Z"/><path class="cls-1" d="M400.67,419.24c-.32-.44-4.77,1.15-7.72-3.65-8.86-14.42-25.28-46-23.42-79.42,1.25-22.48,9.42-41.51,23.62-55,13.52-12.87,31.41-19.89,51.73-20.3h2.19c21.42,0,40.22,6.29,54.38,18.19,15.5,13,24.13,31.83,24.95,54.35,1.2,32.55-11.89,70.24-16.87,83.32-1,2.7-9.95,1.09-10.09,1.43Z"/><path class="cls-1" d="M407.51,417s-28.88-39.13-26.6-80.16,29.92-63.88,64.2-64.58c37.23-.76,68.38,20.14,69.9,61.54,1.37,37.2-17.85,83.2-17.85,83.2Z"/><path class="cls-1" d="M444.54,307.74s-6.93-5.46-11.77-1.9c-3.49,2.57-3.15,9.37.76,11.78,4.94,3,11,6.27,11,6.27s3.42-2.28,7-4.94,9.67-7.59,4.12-12.66C451,302,444.54,307.74,444.54,307.74Z"/><path class="cls-1" d="M552.47,169.55h.07a6.17,6.17,0,0,1,6.87,1.1,13.75,13.75,0,0,1,3.82,4.55c2,3.5,1,7.74-2.91,8.81-3.35.91-6-2.51-8.2-5.27C550.31,176.36,549,171.3,552.47,169.55Z"/><path class="cls-1" d="M521.45,149h0a4.68,4.68,0,0,1,5.27-.16,10.66,10.66,0,0,1,3.49,2.84c2,2.32,1.84,5.62-.92,7-2.36,1.15-4.84-1-6.85-2.75C520.81,154.41,519.11,150.83,521.45,149Z"/><path class="cls-1" d="M526.91,170.57h0a4.69,4.69,0,0,1,5.27-.16,10.49,10.49,0,0,1,3.49,2.85c2,2.31,1.85,5.61-.91,7-2.36,1.16-4.84-1-6.85-2.75C526.27,176,524.57,172.37,526.91,170.57Z"/><path class="cls-1" d="M298.9,281.49h0a4.11,4.11,0,0,1,4.5,1,9.11,9.11,0,0,1,2.38,3.12c1.2,2.37.42,5.13-2.2,5.72-2.23.49-3.89-1.84-5.24-3.73C297.26,285.92,296.55,282.54,298.9,281.49Z"/><path class="cls-1" d="M319.06,285.43h.05a4.08,4.08,0,0,1,4.5.94,9.21,9.21,0,0,1,2.38,3.12c1.21,2.37.42,5.14-2.2,5.72-2.23.5-3.89-1.84-5.24-3.73C317.42,289.86,316.71,286.48,319.06,285.43Z"/><path class="cls-1" d="M311,303h0a4.1,4.1,0,0,1,4.5.95,9.21,9.21,0,0,1,2.38,3.12c1.21,2.37.42,5.14-2.2,5.72-2.23.5-3.89-1.84-5.24-3.73C309.34,307.4,308.63,304,311,303Z"/><path class="cls-1" d="M574.69,233.9a29.26,29.26,0,1,1-29.27-29.25h0A29.26,29.26,0,0,1,574.69,233.9Z"/><path class="cls-1" d="M545.44,268.47c-20.36,0-35-11.25-34.57-34.57.4-23,12.12-34.57,34.57-34.57,21.62,0,34.57,11.54,34.57,34.57C580,256.46,566.49,268.47,545.44,268.47Zm0-62.87c-18.08,0-28.31,11.16-28.31,28.3,0,17.81,10.8,28.3,28.31,28.3,18.39,0,28.3-10.68,28.3-28.3S564.4,205.6,545.44,205.6Z"/><path class="cls-1" d="M376.4,233.9a29.26,29.26,0,1,1-29.27-29.25h0A29.26,29.26,0,0,1,376.4,233.9Z"/><path class="cls-1" d="M347.15,268.47c-20.36,0-35-11.25-34.57-34.57.4-23,12.12-34.57,34.57-34.57,21.62,0,34.57,11.54,34.57,34.57C381.72,256.46,368.2,268.47,347.15,268.47Zm0-62.87c-18.08,0-28.31,11.16-28.31,28.3,0,17.81,10.8,28.3,28.31,28.3,18.39,0,28.3-10.68,28.3-28.3S366.11,205.6,347.15,205.6Z"/><path class="cls-1" d="M494.5,341.36a11.21,11.21,0,1,0,11.2,11.22h0A11.21,11.21,0,0,0,494.5,341.36Zm0,19a7.79,7.79,0,1,1,7.79-7.79,7.79,7.79,0,0,1-7.79,7.79Z"/><path class="cls-1" d="M498.3,343.38c0,1.53-1.92,2.78-4.28,2.78s-4.27-1.25-4.27-2.78,1.91-2.78,4.27-2.78S498.3,341.85,498.3,343.38Z"/><path class="cls-1" d="M406.74,418.48l89.66-.38s16.87,11.51,23.17,23.17c10.26,19-7.79,35.9-7.79,35.9s-33.23,4-59.07,3.23l-25.83-.76-24.31-.38s28.49-19.9,27-34.38C427.26,423.23,406.74,418.48,406.74,418.48Z"/><path class="cls-1" d="M304.94,420.19S277.58,385.62,282,382s20.9,10.45,20.9,10.45-10.64-33-4.94-34.76,17.66,32.67,19.75,32.67-.16-38.54,7.6-37.8c4,.38,1.14,34.51,4.56,32.1,3.23-2.28,8.79-33.2,17.28-30,1.52.57-2.28,7.79-3.6,14S342,386,343.31,386.57s13.38-19.13,16.14-17.29c2.28,1.52-1.71,10.64-4.37,21.09S353.94,420,353.94,420s-29.82-1.9-24.88-1.62Z"/><path class="cls-1" d="M513.5,419.64c0,3.76-26.88,4.54-60,4.54s-60-.78-60-4.54,26.88-9.52,60-9.52S513.5,415.89,513.5,419.64Z"/><path class="cls-1" d="M520,425.51s-16.3-22.42-12.84-25.07,8.36,11,10.6,10.39,8.15-43.81,14.06-44.42.82,26.29,4.08,26.9,24.25-47.69,31.18-45.45-12.63,35.46-9,38.52,28.13-24.46,33.22-19.57-23.23,23.64-20.38,26.7,18.34-9.17,21-6.32-13.25,9.58-18.54,19.16-10.19,18.34-10.19,18.34-10-1.43-21.61-1.83A73.5,73.5,0,0,0,520,425.51Z"/><path class="cls-1" d="M603.66,447.51c0,2.13-4.31,3.85-9.63,3.85s-9.63-1.72-9.63-3.85,4.31-3.85,9.63-3.85S603.66,445.39,603.66,447.51Z"/><path class="cls-1" d="M358,462.51c0,2.13-3.45,3.85-7.7,3.85s-7.7-1.72-7.7-3.85,3.45-3.85,7.7-3.85S358,460.39,358,462.51Z"/><path class="cls-1" d="M417.31,437.5c0,2.13-3.45,3.85-7.71,3.85s-7.69-1.72-7.69-3.85,3.44-3.85,7.69-3.85S417.31,435.38,417.31,437.5Z"/><path class="cls-1" d="M300.77,451c0,1.71-2.93,3.09-6.55,3.09s-6.54-1.38-6.54-3.09,2.93-3.07,6.54-3.07S300.77,449.32,300.77,451Z"/><path class="cls-1" d="M542.28,439.61c0,2.13-3.45,3.85-7.7,3.85s-7.7-1.72-7.7-3.85,3.45-3.85,7.7-3.85S542.28,437.49,542.28,439.61Z"/><path class="cls-1" d="M639.52,431.89c0,1.91-2.42,3.46-5.39,3.46s-5.39-1.55-5.39-3.46,2.41-3.47,5.39-3.47S639.52,430,639.52,431.89Z"/><path class="cls-1" d="M354.7,30.61s-15.19,40.65-3,68.76c8.18,18.91,32.92,32.69,46.73,35.33,17.85,3.42,41.41,12.16,41.41,12.16S439,126,433.72,109.63s-16.34-38-33.81-49S375.22,50,366.1,43.91,354.7,30.61,354.7,30.61Z"/><path class="cls-1" d="M388.13,96.33C367.86,81.17,358.34,46.63,355,31.41c-.22-.51-.31-.8-.31-.8s-15.19,40.65-3,68.76c8.18,18.91,32.92,32.69,46.73,35.33,16.16,3.1,37,10.56,40.8,11.94C429.5,131.76,408.69,111.72,388.13,96.33Z"/><path class="cls-1" d="M438,145.6s-1.92-37.31,10.59-55.85a120.78,120.78,0,0,1,29.15-29.7s3.5-2.68,9.56,2.91c3.83,3.54,2.89,6.86,2.89,6.86s-24.51,13.29-34.74,28C446.81,110.23,439,145.74,439,145.74Z"/></svg>