<svg id="Layer_47" data-name="Layer 47" xmlns="http://www.w3.org/2000/svg" viewBox="0 0 895 511.11"><defs><style>.cls-1{fill:#fff;}.cls-2{fill:#1d1d1b;}</style></defs><path class="cls-1" d="M499.41,239.33c45.66-5,66.25-46.67,88.62-44.18,12.05,25.72,21.21,67.39,21.21,67.39S592.42,279.4,566.31,280s-35.74-4.47-40.94-2Z"/><path class="cls-2" d="M561.86,281.32a166.15,166.15,0,0,1-25.4-1.95c-5.29-.75-8.63-1.14-10.55-.22a1.25,1.25,0,0,1-1.58-.43l-26-38.69a1.25,1.25,0,0,1,.9-1.95c25-2.73,42.57-16.78,56.74-28.07,11.69-9.32,21.68-17.27,32.16-16.11a1.24,1.24,0,0,1,1,.72c12,25.55,21.21,67.23,21.3,67.65a1.23,1.23,0,0,1-.34,1.15,68,68,0,0,1-43.78,17.85C564.79,281.3,563.29,281.32,561.86,281.32Zm-32.79-5.24a60.42,60.42,0,0,1,7.75.81,163.15,163.15,0,0,0,29.46,1.87c22.85-.54,38.64-14,41.58-16.64-1.25-5.49-9.79-42.26-20.66-65.79-9.24-.62-18.64,6.88-29.63,15.64-14,11.18-31.4,25-56,28.36l24.26,36.16A11,11,0,0,1,529.07,276.08Z"/><path class="cls-1" d="M535.46,226.47c-10.14,6.21-21.89,11.29-36.05,12.86C513.49,237.9,525.26,232.78,535.46,226.47Z"/><path class="cls-2" d="M499.41,240.58a1.24,1.24,0,0,1-1.24-1.12,1.25,1.25,0,0,1,1.1-1.38c12.17-1.34,23.8-5.49,35.54-12.68a1.25,1.25,0,0,1,1.31,2.14c-12.15,7.51-24.12,11.77-36.58,13Z"/><path class="cls-1" d="M572.13,199.69a35.54,35.54,0,0,1,9.36-4.07h0A34.54,34.54,0,0,0,572.13,199.69Z"/><path class="cls-2" d="M572.13,200.94a1.25,1.25,0,0,1-.64-2.33,36,36,0,0,1,9.72-4.22,1.26,1.26,0,0,1,1.38.58,1.25,1.25,0,0,1-.17,1.49,1.31,1.31,0,0,1-.64.38,33.7,33.7,0,0,0-9,3.92h0A1.33,1.33,0,0,1,572.13,200.94Z"/><path class="cls-1" d="M583.85,194.7c-7.07,0-17.52,7.08-17.16,10.46.24,2.3,6,3.12,9.72,2.53C577.33,201.3,580,197.09,583.85,194.7Z"/><path class="cls-2" d="M573.91,209.12h0c-3.72,0-8.17-1-8.47-3.83-.12-1.18.49-2.52,1.82-4,3.41-3.79,10.86-7.84,16.51-7.84a1.3,1.3,0,0,1,1.25.91,1.23,1.23,0,0,1-.51,1.41c-3.73,2.28-6,6.35-6.86,12.09a1.23,1.23,0,0,1-1,1.06A16.3,16.3,0,0,1,573.91,209.12Zm5.71-12.45a25.73,25.73,0,0,0-10.5,6.3c-1.22,1.35-1.19,2-1.19,2.06.06.56,2.38,1.59,6,1.59h0q.74,0,1.41-.06A20.4,20.4,0,0,1,579.62,196.67Z"/><path class="cls-1" d="M576.41,207.69c-7.59-.4-14.8,8.53-14.22,11.49.92,4.43,11.54,3.28,14.91,1.3A35.71,35.71,0,0,1,576.41,207.69Z"/><path class="cls-2" d="M568.85,223.49h0c-4.53,0-7.33-1.44-7.88-4.06-.43-2.23,1.73-5.16,2.68-6.31,2.77-3.36,7.66-7,12.84-6.69a1.26,1.26,0,0,1,1.17,1.43,33.73,33.73,0,0,0,.61,12l.07.34a1.27,1.27,0,0,1-.59,1.32A19.88,19.88,0,0,1,568.85,223.49ZM575,209c-3.77.39-7.29,3.14-9.42,5.73-1.67,2-2.27,3.69-2.16,4.23.31,1.5,3,2,5.42,2a19.44,19.44,0,0,0,6.85-1.21A36,36,0,0,1,575,209Z"/><path class="cls-1" d="M577.15,223.71c-8.44,1.92-13.6,8.36-12.6,11.89,1.66,5.59,11.65,4.88,16.72,1.85A125.26,125.26,0,0,1,577.15,223.71Z"/><path class="cls-2" d="M572.31,241h0c-4.74,0-8-1.84-9-5.07a6.65,6.65,0,0,1,1-5.15c1.81-3.05,6-6.84,12.5-8.32a1.26,1.26,0,0,1,1.5,1,121.52,121.52,0,0,0,4,13.55,1.25,1.25,0,0,1-.52,1.54A19.78,19.78,0,0,1,572.31,241Zm3.92-15.78a16.93,16.93,0,0,0-9.69,6.83,4.43,4.43,0,0,0-.78,3.18c.87,2.95,4.87,3.27,6.55,3.27h0a17.68,17.68,0,0,0,7.4-1.66C578.87,234.48,577.3,229.59,576.23,225.24Z"/><path class="cls-1" d="M578.41,235.3c6.84,19.13,20.37,31.8,30.24,28.27s12.28-21.9,5.44-41-20.38-31.79-30.24-28.26S571.56,216.18,578.41,235.3Z"/><path class="cls-2" d="M605.19,265.42h0c-10.05,0-21.81-12.49-28-29.69-3.38-9.44-4.66-19-3.6-26.95,1.09-8.24,4.57-13.81,9.8-15.68a11.52,11.52,0,0,1,3.89-.66c10,0,21.8,12.48,27.95,29.68,7.18,20.09,4.46,38.81-6.2,42.63A11.51,11.51,0,0,1,605.19,265.42ZM587.32,195a9.12,9.12,0,0,0-3.05.51c-4.3,1.54-7.19,6.39-8.16,13.65-1,7.55.24,16.71,3.48,25.77,5.71,16,16.72,28,25.6,28h0a8.77,8.77,0,0,0,3-.52c9.19-3.29,11.29-21,4.69-39.42C607.2,207,596.2,195,587.32,195Z"/><path class="cls-1" d="M398.17,368.38s-19.7,9.62-29.74-8.54S349.69,332.56,335.61,340a2,2,0,0,0,.72,3.67c3-1.31,13.18-4.05,18.17,7.18,7.56,17,19.06,38.5,41.34,33.28C406.06,375.86,398.17,368.38,398.17,368.38Z"/><path class="cls-2" d="M389.22,386.18h0c-18,0-28.21-17.6-35.86-34.82-2.27-5.12-5.9-7.71-10.78-7.71a15.09,15.09,0,0,0-5.75,1.17,1.39,1.39,0,0,1-.64.09,3.13,3.13,0,0,1-2.73-2.37,3.31,3.31,0,0,1,1.43-3.56c15.24-8.11,24.59,2.07,34.64,20.25,3.83,6.93,9.55,10.45,17,10.44a28.41,28.41,0,0,0,11.09-2.41,1.24,1.24,0,0,1,1.41.21,11.31,11.31,0,0,1,3.29,8c-.13,3.41-2.05,6.63-5.7,9.58a1.24,1.24,0,0,1-.5.25A30.37,30.37,0,0,1,389.22,386.18Zm-46.64-45c4.09,0,9.69,1.6,13.07,9.2,7.32,16.48,17,33.33,33.57,33.33h0a27.36,27.36,0,0,0,6-.7c2.92-2.42,4.45-5,4.55-7.55a8.61,8.61,0,0,0-2-5.53,30.74,30.74,0,0,1-11.32,2.29c-5.8,0-13.84-2-19.2-11.74-7.22-13.08-13.82-21.79-22.51-21.79a18.52,18.52,0,0,0-8.63,2.46.79.79,0,0,0-.3.81.65.65,0,0,0,.34.43A17.68,17.68,0,0,1,342.58,341.14Z"/><path class="cls-1" d="M338.59,338.22c-18-6.06-36.25,14.83-26.34,36.16,4.78-13.2,15.61-8.64,24-15.57,5.86-4.87,6.45-14,4.75-17.27C337.87,340.84,338.59,338.22,338.59,338.22Z"/><path class="cls-2" d="M312.25,375.63a1.26,1.26,0,0,1-1.14-.72c-4.34-9.35-3.84-19.4,1.38-27.57,4.57-7.16,11.93-11.44,19.68-11.44A21.34,21.34,0,0,1,339,337a1.26,1.26,0,0,1,.81,1.52h0a1.48,1.48,0,0,0,.16,1,1.9,1.9,0,0,0,1.29.74,1.25,1.25,0,0,1,.83.64c1.89,3.6,1.4,13.47-5.05,18.82-3.44,2.85-7.16,3.85-10.76,4.82-5.44,1.46-10.13,2.72-12.84,10.22a1.27,1.27,0,0,1-1.13.82Zm19.92-37.22c-6.89,0-13.46,3.84-17.57,10.27a25.42,25.42,0,0,0-2.31,22.48c3.3-6.3,8.38-7.66,13.33-9,3.34-.9,6.79-1.83,9.81-4.33,5.21-4.32,5.74-12.25,4.64-15.26a4,4,0,0,1-2.27-1.73,3.77,3.77,0,0,1-.53-1.73A18.85,18.85,0,0,0,332.17,338.41Z"/><path class="cls-1" d="M414.43,258.67c3.36,9.91,8.38,25-1.89,41.84-13.05,21.4-24.05,38.52-22.52,72,1.29,27.63,4.71,35.94,19.61,41.66,10.56,4.05,27.37-3,35.77-10.22,5.89,1.77,11.8,4,22.87,4.07a128.88,128.88,0,0,0,15.78-.36s1.34,15-4.52,25-10.89,29.21,12.63,34.68,65.93-5.5,61.15-23.21-12.87-31.6-7.35-53.89c10.22-29.79,7.35-67.22-10.81-101.12s-31.42-46.47-30.23-69.86c-60.38-5.07-94.44,8.16-94.44,8.16S411.91,251.2,414.43,258.67Z"/><path class="cls-2" d="M506,470a62.1,62.1,0,0,1-14.08-1.46c-8.73-2-14.46-6.09-17-12.05-4.23-9.85,1.68-21.24,3.59-24.49,4.64-7.9,4.59-19.29,4.43-23a117.86,117.86,0,0,1-14.7.27,65.51,65.51,0,0,1-21.25-3.54l-1.25-.38c-6.89,5.67-18.85,11.26-29,11.26h0a21,21,0,0,1-7.51-1.27c-16-6.16-19.16-16.08-20.41-42.77-1.51-33,9.27-50.68,21.76-71.13l.94-1.55c10-16.48,5.06-31.11,1.77-40.79-2.54-7.54-3.95-30.61-4-31.59a1.25,1.25,0,0,1,.8-1.24c.24-.1,24.7-9.41,67.85-9.41,8.84,0,18,.39,27.14,1.16a1.25,1.25,0,0,1,1.15,1.31c-.84,16.6,5.65,27.43,16.41,45.39,4.07,6.78,8.68,14.48,13.67,23.81,17.54,32.74,21.61,70.92,10.89,102.13-4.21,17-.24,29.17,4,42,1.17,3.57,2.37,7.26,3.42,11.11a11.87,11.87,0,0,1-2.38,10.7C544.43,464.56,522.59,470,506,470Zm-21.9-63.62a1.24,1.24,0,0,1,1.24,1.14c.06.63,1.31,15.53-4.69,25.75-1.76,3-7.21,13.46-3.45,22.23,2.23,5.19,7.38,8.76,15.29,10.6A60,60,0,0,0,506,467.49c18.85,0,37.85-6.25,44.19-14.53a9.45,9.45,0,0,0,2-8.52c-1-3.79-2.23-7.45-3.38-11-4.32-13.22-8.39-25.7-4-43.53,10.53-30.67,6.51-68.1-10.7-100.23-5-9.29-9.56-16.95-13.61-23.71-10.38-17.32-17.31-28.9-16.81-45.59-8.71-.7-17.36-1-25.74-1-38.16,0-61.45,7.32-66.09,8.92.3,4.47,1.67,23.61,3.83,30,3.22,9.5,8.62,25.41-2,42.89l-.94,1.56c-12.78,20.92-22.87,37.45-21.4,69.71,1.29,27.59,4.81,35.16,18.81,40.54a18.5,18.5,0,0,0,6.61,1.1c9.8,0,21.45-5.59,27.89-11.1a1.27,1.27,0,0,1,1.18-.25l1.91.59a62.69,62.69,0,0,0,20.61,3.42c1.39.1,2.86.14,4.37.14,5.39,0,11.24-.48,11.3-.49Z"/><path class="cls-1" d="M394,399.3c5.16,7.51,2.11,16.4-7.18,31s-3.68,29.45,11.49,38.07,49.31,19.59,60.91-3.6c14.5-28.9-1-54,8.55-76.5Z"/><path class="cls-2" d="M434,480c-13.75,0-28.47-6-36.29-10.46-8.42-4.78-14.09-11.56-16-19.09-1.69-6.77-.29-13.95,4-20.74,9.78-15.4,11.66-23.16,7.2-29.65a1.27,1.27,0,0,1,.33-1.75,1.25,1.25,0,0,1,1.74.33c5.83,8.49,1.79,18.32-7.15,32.41-3.95,6.2-5.23,12.7-3.72,18.8,1.71,6.85,6.95,13.07,14.77,17.51,9.6,5.44,29.91,13.4,45.16,8.75a22.43,22.43,0,0,0,14-11.82c7.81-15.57,6.76-29.88,5.74-43.73-.84-11.45-1.63-22.26,2.77-32.69a1.25,1.25,0,0,1,2.31,1c-4.17,9.88-3.4,20.4-2.58,31.54,1,14.18,2.12,28.84-6,45a24.86,24.86,0,0,1-15.52,13.1A37.41,37.41,0,0,1,434,480Z"/><path class="cls-1" d="M463.48,446.41c-6.22,3.17-4,17.88-4,17.88s-4-16.82-12.75-13.22-8.2,17.71-8.2,17.71-3.65-10.54-9.17-7.2c-5.1,3.11-8,9.51-7.52,15.53,10,4.64,29.63-.3,39.14-5.36,9.77-5.21,10.19-14,4.46-25.48A2.47,2.47,0,0,0,463.48,446.41Z"/><path class="cls-2" d="M432.15,480.22h0a25.93,25.93,0,0,1-10.8-2,1.24,1.24,0,0,1-.72-1c-.51-6.72,2.75-13.43,8.11-16.7a5.47,5.47,0,0,1,2.82-.83c2.63,0,4.66,2.12,6.05,4.27.64-4.73,2.62-11.54,8.68-14a7.65,7.65,0,0,1,2.87-.6c4,0,6.85,3.54,8.73,7.14.23-4.4,1.37-9.3,5-11.16a3.74,3.74,0,0,1,3-.21,1.26,1.26,0,0,1,.71.63c6.5,13,4.87,21.89-5,27.14C454.73,476.51,442.41,480.22,432.15,480.22Zm-9.06-4a24.79,24.79,0,0,0,9.06,1.44h0c9.85,0,21.68-3.56,28.28-7.07,8.39-4.47,9.73-11.88,4.2-23.27a1.35,1.35,0,0,0-.57.15c-4.44,2.27-3.88,12.74-3.3,16.58a1.26,1.26,0,0,1-1,1.42,1.24,1.24,0,0,1-1.46-.94c-.86-3.55-4.18-12.76-9.15-12.76a5,5,0,0,0-1.91.41c-7.86,3.24-7.43,16.37-7.42,16.5a1.26,1.26,0,0,1-2.44.46c-.63-1.82-3.07-7-5.83-7a2.87,2.87,0,0,0-1.51.48C425.74,465.28,423,470.8,423.09,476.27Z"/><path class="cls-1" d="M532.4,378.91c-4.47,9.53-19.66,28.3-48.26,28.89Z"/><path class="cls-2" d="M484.14,409.06a1.26,1.26,0,0,1,0-2.51c27.06-.56,42.37-18,47.16-28.17a1.25,1.25,0,1,1,2.26,1.06c-5,10.73-21.08,29-49.37,29.62Z"/><path class="cls-1" d="M509.67,469.65h0a31.94,31.94,0,0,1-9.27-1.17.31.31,0,0,1-.18-.26,15.17,15.17,0,0,1,8.35-14.72,6.38,6.38,0,0,1,3-.79c3.88,0,6.49,4,7.5,5.94.26-3.3,1.64-12.81,10.28-16.08a9.82,9.82,0,0,1,3.41-.64c5.95,0,9.35,6.3,10.82,9.88-.3-4.11-.08-12.12,5.55-14.69a4,4,0,0,1,2.52-.27.3.3,0,0,1,.18.15c3.65,5.79,4.85,10.62,3.65,14.75-1.11,3.82-4.36,7-9.67,9.5C536.93,465.42,521.65,469.65,509.67,469.65Z"/><path class="cls-2" d="M509.67,470.9a32.94,32.94,0,0,1-9.64-1.23,1.57,1.57,0,0,1-1.06-1.33,16.4,16.4,0,0,1,9-15.95,7.65,7.65,0,0,1,3.55-.93c3,0,5.21,1.86,6.73,3.72,1-4.63,3.55-11.12,10.61-13.78a10.88,10.88,0,0,1,3.85-.72c4.41,0,7.53,2.95,9.6,6.1.41-4.22,1.92-8.83,6.25-10.8a5.2,5.2,0,0,1,3.32-.35,1.86,1.86,0,0,1,1,.81c3.8,6,5,11.17,3.73,15.66-1.22,4.19-4.7,7.64-10.34,10.28C537.33,466.61,521.86,470.9,509.67,470.9Zm-8.23-3.42a32.11,32.11,0,0,0,8.23.92c11.82,0,26.84-4.17,35.57-8.29,5-2.32,8-5.25,9-8.71,1.08-3.69,0-8.07-3.28-13.38a2.74,2.74,0,0,0-1.36.25c-5,2.29-5,10.17-4.81,13.45a1.24,1.24,0,0,1-1,1.31,1.26,1.26,0,0,1-1.45-.74c-1.38-3.4-4.49-9.11-9.65-9.11a8.48,8.48,0,0,0-3,.56c-7.71,2.92-9.19,11.47-9.47,15a1.25,1.25,0,0,1-2.36.48c-.64-1.23-3-5.26-6.39-5.26a5.17,5.17,0,0,0-2.39.64A13.93,13.93,0,0,0,501.44,467.48Z"/><path class="cls-1" d="M444.44,72.67c-2.86-34.05,59.45-62.25,110.71-17.15,55.54,48.9,61.83,126.31,3.59,136.83S448.65,123.19,444.44,72.67Z"/><path class="cls-2" d="M548.2,194.55c-54.13,0-101-73.87-105-121.77-.72-8.59,2.42-17,9.09-24.22,10.18-11.06,27.06-17.67,45.15-17.67,14.43,0,36.3,4.11,58.55,23.69,33.95,29.89,51.53,72.79,42.74,104.31-5.2,18.68-19.32,31-39.76,34.69A60.65,60.65,0,0,1,548.2,194.55ZM497.43,33.4c-17.4,0-33.59,6.3-43.3,16.86C448,57,445,64.7,445.69,72.57,449.6,119.56,495.39,192,548.2,192a57.66,57.66,0,0,0,10.32-.93c19.72-3.56,32.79-14.93,37.79-32.89,8.53-30.63-8.73-72.48-42-101.76C532.66,37.4,511.43,33.4,497.43,33.4Z"/><path class="cls-1" d="M475.68,148.18c-3.13-14.4-4.86-29.64-6-43.8C466.78,70.32,509,37.55,557.43,78.1c36.46,30.51,44.17,71.41,29.67,99.54-6.71,7.27-16.08,12.5-28.36,14.71C526.9,198.1,497,176.86,475.68,148.18Z"/><path class="cls-2" d="M548.22,194.54c-34.51,0-60.89-28.58-73.55-45.61a1.28,1.28,0,0,1-.22-.49c-2.66-12.23-4.58-26.2-6.06-43.95a42.44,42.44,0,0,1,11.24-32.13,44.52,44.52,0,0,1,33.25-14.29c14.75,0,30.44,6.59,45.35,19.07,33.77,28.26,46.1,69.82,30,101.07a1.26,1.26,0,0,1-.19.28c-7.23,7.84-17,12.92-29.06,15.09A60.5,60.5,0,0,1,548.22,194.54Zm-71.38-46.89C489.28,164.33,515,192,548.22,192a57.52,57.52,0,0,0,10.3-.93c11.43-2.06,20.7-6.83,27.54-14.2,15.46-30.18,3.37-70.39-29.43-97.84C542.16,67,527,60.58,512.88,60.58a42.06,42.06,0,0,0-31.41,13.48,39.92,39.92,0,0,0-10.58,30.22C472.34,121.79,474.24,135.58,476.84,147.65Z"/><path class="cls-1" d="M366.4,107.5c-22.92-25.41-86.92.85-89.63,69.23-3,74.1,49.28,131.71,97.51,96.31S400.41,145.2,366.4,107.5Z"/><path class="cls-2" d="M344.19,285h0c-13.93,0-27.45-6.41-39.1-18.54-19.94-20.75-31-54.31-29.58-89.78,2.17-54.54,41.5-79.95,67.41-79.95,10,0,18.64,3.52,24.41,9.93,24.13,26.75,39.39,75.54,35.49,113.5-2.44,23.72-12.05,42.36-27.8,53.89C365.13,281.32,354.75,285,344.19,285ZM342.92,99.23c-24.93,0-62.8,24.65-64.9,77.55-1.39,34.8,9.4,67.68,28.88,88,11.16,11.62,24.06,17.76,37.29,17.76h0c10,0,19.89-3.52,29.35-10.46,15.16-11.1,24.42-29.13,26.79-52.13,4.36-42.52-14.7-89.22-34.86-111.56C360.1,102.38,352.3,99.23,342.92,99.23Z"/><path class="cls-1" d="M399.83,182.06c-8.3-12.14-18.26-23.85-27.78-34.43-22.9-25.4-76.27-17-80.37,46.21-3.09,47.56,21.42,81.22,52.1,89.85,10,.11,20.36-3.16,30.5-10.65C400.68,253.71,406,217.28,399.83,182.06Z"/><path class="cls-2" d="M344.25,285h-.48a1.88,1.88,0,0,1-.33-.05c-34.08-9.59-55.87-47.06-53-91.14,2.72-42,27.5-60.74,50.85-60.74A42.61,42.61,0,0,1,373,146.79c7.61,8.46,18.77,21.24,27.89,34.57a1.24,1.24,0,0,1,.2.49c7.21,41.19-2.29,74.8-26.05,92.2C365.23,281.28,354.87,285,344.25,285Zm-.29-2.51h.29c10.08,0,19.93-3.5,29.29-10.41,22.91-16.78,32.06-49.39,25.11-89.48-9-13.13-20-25.73-27.53-34.08a40.09,40.09,0,0,0-29.84-12.94c-20.56,0-45.55,15.29-48.35,58.39C290.15,236.73,311.12,273.11,344,282.44Z"/><path class="cls-1" d="M414.69,255.13c-18.74,41.12-58.3,41.33-60.69,65,24,18.22,65.08,37,65.08,37s21.19-13.69,27.63-40.59,4.14-39.81,7.86-44.65Z"/><path class="cls-2" d="M419.08,358.38a1.31,1.31,0,0,1-.52-.11c-.42-.19-41.52-19-65.32-37.12a1.25,1.25,0,0,1-.49-1.12c1.18-11.65,11-18,22.28-25.28,12.77-8.26,28.67-18.52,38.52-40.14a1.25,1.25,0,0,1,2.28,1c-10.15,22.28-26.39,32.77-39.44,41.2-11,7.09-19.69,12.72-21.06,22.74,22,16.55,58.35,33.65,63.62,36.1,3.36-2.39,20.88-15.79,26.54-39.44a211.38,211.38,0,0,0,5-31.32c.67-7,1.07-11.2,3.07-13.8a1.25,1.25,0,1,1,2,1.52c-1.56,2-2,6.2-2.57,12.52a212.84,212.84,0,0,1-5.06,31.67,72.19,72.19,0,0,1-28.17,41.34A1.31,1.31,0,0,1,419.08,358.38Z"/><path class="cls-1" d="M354.46,315.75c1.5-7.34,11.21-16.55,14.64-15.47,2.33.77,1.89,7,.47,10.63C362.74,310.43,357.8,312.23,354.46,315.75Z"/><path class="cls-2" d="M354.46,317a1.3,1.3,0,0,1-.58-.14,1.25,1.25,0,0,1-.65-1.36c1.53-7.52,10.68-16.56,15.26-16.56a3.21,3.21,0,0,1,1,.15,3.12,3.12,0,0,1,1.86,1.75c1.18,2.5.61,7.4-.6,10.52a1.25,1.25,0,0,1-1.25.8c-6.18-.43-10.91,1.06-14.12,4.45A1.26,1.26,0,0,1,354.46,317Zm14.23-15.53c-2.71,0-8.55,5.19-11.46,10.53a21.09,21.09,0,0,1,11.47-2.4c.86-2.77,1.06-6.23.37-7.69a.84.84,0,0,0-.36-.44Z"/><path class="cls-1" d="M369.57,310.91c1.24-7.93,12.12-13.44,15-12.16,4.4,1.92.85,12.68-2,15.73A37.92,37.92,0,0,0,369.57,310.91Z"/><path class="cls-2" d="M382.65,315.73a1.15,1.15,0,0,1-.48-.1l-.46-.19a35.76,35.76,0,0,0-12.23-3.28,1.26,1.26,0,0,1-.89-.48,1.24,1.24,0,0,1-.25-1c1.2-7.74,10.71-13.4,15.2-13.4a4,4,0,0,1,1.57.29,4.67,4.67,0,0,1,2.64,3.56c.94,4.48-1.88,11.68-4.18,14.17A1.26,1.26,0,0,1,382.65,315.73Zm-11.53-5.93A38.65,38.65,0,0,1,382.26,313c1.76-2.52,3.7-8.09,3-11.27-.29-1.39-1-1.68-1.18-1.78a1.6,1.6,0,0,0-.57-.08C380.49,299.82,373,304,371.12,309.8Z"/><path class="cls-1" d="M382.76,313.66c3.85-8.31,11.69-12.24,15.1-10.38,5.42,2.93,2.45,13.15-1.79,17.67A133.26,133.26,0,0,0,382.76,313.66Z"/><path class="cls-2" d="M396.07,322.2a1.34,1.34,0,0,1-.69-.2,132.83,132.83,0,0,0-13.14-7.2,1.25,1.25,0,0,1-.62-1.67c3.48-7.5,9.93-11.55,14.24-11.55a5.4,5.4,0,0,1,2.6.6,6.87,6.87,0,0,1,3.45,5.19c.8,4.9-1.88,11.19-4.92,14.44A1.26,1.26,0,0,1,396.07,322.2Zm-11.62-9.13c4.29,2.07,9.09,4.84,11.37,6.24,2.3-2.91,4.22-7.81,3.61-11.54a4.36,4.36,0,0,0-2.17-3.38C395,303.15,388.39,305.67,384.45,313.07Z"/><path class="cls-1" d="M397.73,319.13c18.29,11.33,28.39,28.16,22.55,37.58s-25.42,7.87-43.71-3.47S348.19,325.06,354,315.65,379.45,307.77,397.73,319.13Z"/><path class="cls-2" d="M405.88,364.13c-9,0-19.91-3.58-30-9.82-19.16-11.89-29.25-29.16-23-39.32,2.72-4.36,8.21-6.76,15.48-6.76,9,0,19.9,3.59,30,9.83,19.17,11.88,29.25,29.15,23,39.31C418.64,361.73,413.14,364.13,405.88,364.13Zm-37.45-53.39c-6.37,0-11.11,2-13.34,5.57-5.46,8.82,4.47,24.91,22.14,35.87,9.68,6,20.12,9.44,28.65,9.44,6.36,0,11.1-2,13.34-5.57,5.46-8.81-4.48-24.9-22.15-35.86C387.4,314.18,377,310.74,368.43,310.74Z"/><path class="cls-1" d="M527.2,95.51c-23.88-7.7-50.32-58.83-105.4-39.18-3.92-3.85,2.86-11.2,8.52-8-5.63-7.4-19.32-4.14-20.9,13.39-.26.13-.53.27-.78.42-8.6-10.63-23-5.93-23.49.26,5.34-5.61,17.27-.58,12.23,6.42-36,25-33.82,62.89-28.16,94.79,2.74,15.46-20.35,39.09-5.25,64.94C381.25,258,433.71,268,477.34,243.89c14.85,7.75,44.16,1.77,52.18-23.83C611.43,140.92,551.89,103.46,527.2,95.51Z"/><path class="cls-2" d="M425.5,258.66c-27.95,0-51.95-11.3-62.61-29.49-9.83-16.81-3.91-32.91.85-45.84,2.79-7.59,5.2-14.14,4.24-19.51-5.93-33.45-7.17-71,28.5-95.91a3.56,3.56,0,0,0,.52-3.79c-.87-1.7-3.29-2.89-5.9-2.89a6.82,6.82,0,0,0-5,2,1.28,1.28,0,0,1-1.42.28,1.26,1.26,0,0,1-.74-1.24c.31-4.26,5.68-7.73,12-7.73a17.23,17.23,0,0,1,12.48,5.37c2.41-17.41,16.84-20,22.77-12.61a1.25,1.25,0,0,1,.49,1,1.29,1.29,0,0,1-1.28,1.26,1.23,1.23,0,0,1-.64-.17,4.69,4.69,0,0,0-2.32-.62,6,6,0,0,0-5.22,3.53,2.85,2.85,0,0,0,.06,2.54,73,73,0,0,1,23.83-4.24c25.52,0,44,15.61,58.83,28.16,8.43,7.12,15.71,13.28,22.71,15.53,16.91,5.45,38.52,19.8,43.75,42.32,5.62,24.21-8.08,52.5-40.72,84.11-6.12,19-24,27.56-39,27.56h0a32.82,32.82,0,0,1-14.28-3A108.68,108.68,0,0,1,425.5,258.66ZM391.1,58.73c3.56,0,6.83,1.71,8.14,4.25,1,2,.74,4.37-.84,6.57a1.64,1.64,0,0,1-.3.29c-34.7,24.11-33.45,60.81-27.65,93.54,1.07,6-1.45,12.89-4.36,20.82-4.81,13.08-10.27,27.91-1,43.7,10.22,17.43,33.38,28.25,60.45,28.25a106.24,106.24,0,0,0,51.23-13.35,1.26,1.26,0,0,1,1.19,0c14.1,7.36,42.68,1.55,50.4-23.1a1.29,1.29,0,0,1,.33-.52c32.13-31,45.67-58.62,40.25-82-5-21.5-25.79-35.25-42.08-40.5-7.47-2.41-14.92-8.71-23.56-16-14.52-12.28-32.6-27.57-57.21-27.57a71.21,71.21,0,0,0-23.83,4.39,1.22,1.22,0,0,1-1.29-.28,5.15,5.15,0,0,1-1.09-5.86,8.53,8.53,0,0,1,6.05-4.93c-5.76-2.32-14,2.18-15.22,15.39a1.25,1.25,0,0,1-.72,1,7,7,0,0,0-.66.35,1.25,1.25,0,0,1-1.63-.28,15,15,0,0,0-11.78-5.85A12.76,12.76,0,0,0,389,58.93,11,11,0,0,1,391.1,58.73Z"/><path class="cls-1" d="M505.42,233.07c-.44,0-.88,0-1.32,0-.16,0-.31,0-.48,0l-.17,0c-.34,0-.7-.08-1.07-.14-.09,0-.21,0-.3,0a1.67,1.67,0,0,0-.31,0,9.47,9.47,0,0,1-1.11-.26,2.44,2.44,0,0,1-.53-.12,10.33,10.33,0,0,1-1.47-.48,15.64,15.64,0,0,1-1.53-.63l-.47-.24-.9-.47a3.13,3.13,0,0,0-.3-.2l-.32-.18c-.19-.14-.37-.25-.55-.39l-.11-.07c-.11-.1-.23-.15-.34-.25l-.22-.16c-.14-.11-.26-.22-.41-.32l-.32-.28-.07-.05c-.11-.1-.23-.21-.35-.34l-.21-.16-.2-.2-.13-.16a7.73,7.73,0,0,1-.58-.56.86.86,0,0,1-.14-.18l-.13-.12-.39-.45-.21-.22-.18-.23c-4.85-5.8-6.17-13.89-6.18-14a.31.31,0,0,1,.21-.32c.13,0,13.27-4.73,23.83-4.73,4,0,7.24.69,9.52,2.05a8.54,8.54,0,0,1,4.07,7.81c0,8.07-4.13,12.06-7.58,14,0,0-.06,0-.07,0a17.85,17.85,0,0,1-5.48,1.87h-.1a2.63,2.63,0,0,1-.42.07c-.33.06-.69.1-1.06.14l-.71,0-.22,0-.73,0Z"/><path class="cls-2" d="M505.42,234.32c-.47,0-.93,0-1.39,0l-.41,0-.31,0c-.51-.05-.81-.09-1.13-.14l-.28,0c-.07,0-.32-.05-.39-.06-.53-.11-.87-.18-1.23-.29a1.34,1.34,0,0,1-.54-.13,11.61,11.61,0,0,1-1.55-.5,14.74,14.74,0,0,1-1.59-.67l-1.43-.74-.34-.21-.61-.39a3.39,3.39,0,0,1-.39-.27l.48-1.2-.7,1-.28-.2-.14-.1-.19-.15-.31-.24.5-1.23-.8,1a5,5,0,0,1-.55-.51h0a1.8,1.8,0,0,1-.2-.19,3.07,3.07,0,0,1-.25-.26c-.18-.17-.41-.4-.61-.61a4.19,4.19,0,0,1-.26-.33l-.27-.26s-.16-.19-.16-.19l-.19-.2.74-1.08-1,.8c-5.13-6.12-6.45-14.51-6.46-14.6a1.57,1.57,0,0,1,1-1.67c2.38-.83,14.37-4.8,24.25-4.8,4.28,0,7.7.75,10.16,2.23a9.83,9.83,0,0,1,4.68,8.88c0,8.68-4.46,13-8.21,15.07l-.1.06a19.25,19.25,0,0,1-5.86,2l-.6.1-.95.12c-.34,0-.55.05-.79.06l-.38-1.23.13,1.24c-.3,0-.59,0-.86,0h-.26Zm-12-7.11.12.09a3.62,3.62,0,0,0,.4.37l.31.27.34.27.29.22a5.11,5.11,0,0,1,.42.31l.79.51a4.17,4.17,0,0,1,.44.29l1.17.59a14.43,14.43,0,0,0,1.37.57,10.25,10.25,0,0,0,1.38.45l.39.09c.47.13.74.18,1,.24l.54.09,1,.13.24,1.29.12-1.25.44,0c.4,0,.81,0,1.22,0h.23c.24,0,.44,0,.65,0l.29,0,.65,0c.39,0,.68-.07,1-.12l.31,0,.28-.05a16.21,16.21,0,0,0,5-1.7,1.74,1.74,0,0,1,.27-.14c3-1.67,6.77-5.33,6.77-12.8,0-3.1-1.14-5.31-3.48-6.74-2.06-1.23-5-1.86-8.86-1.86-8.72,0-19.27,3.26-22.65,4.39.45,2.09,2,8.07,5.75,12.57l.79.9a2.09,2.09,0,0,1,.2.22,6.13,6.13,0,0,0,.51.51l.16.18Z"/><path class="cls-1" d="M498.75,231.62c6.5,2.47,16.68,1.27,21-6.36-8.08-15.57-23.22-8.36-29.63-.29C492.19,227.53,494.27,229.93,498.75,231.62Z"/><path class="cls-2" d="M505.39,234h0a20.23,20.23,0,0,1-7.09-1.24c-4.61-1.74-6.88-4.21-9.18-7a1.25,1.25,0,0,1,0-1.57c3.71-4.67,10.55-9.38,17.49-9.38,4.15,0,10,1.71,14.23,9.87a1.26,1.26,0,0,1,0,1.19C518,231,512.18,234,505.39,234ZM491.72,225a16.54,16.54,0,0,0,7.47,5.48,17.74,17.74,0,0,0,6.2,1.07c5.6,0,10.37-2.34,12.9-6.3-2.91-5.24-6.83-7.9-11.68-7.9C500.88,217.32,495.17,221.05,491.72,225Z"/><path class="cls-1" d="M418.09,179.63c5.56,8.31,17.58,10.05,26.86,3.87s12.3-18,6.73-26.3-17.57-10-26.87-3.87S412.54,171.29,418.09,179.63Z"/><path class="cls-2" d="M433,188.45h0a19,19,0,0,1-15.92-8.12c-5.92-8.9-2.75-21.47,7.07-28a22.91,22.91,0,0,1,12.7-3.92,18.92,18.92,0,0,1,15.9,8.13c5.93,8.88,2.76,21.46-7.08,28A22.81,22.81,0,0,1,433,188.45Zm3.85-37.57a20.39,20.39,0,0,0-11.31,3.5c-8.67,5.79-11.53,16.81-6.37,24.56A16.24,16.24,0,0,0,433,186h0a20.3,20.3,0,0,0,11.28-3.5c8.68-5.8,11.55-16.82,6.38-24.56A16.18,16.18,0,0,0,436.82,150.88Z"/><path class="cls-2" d="M420.36,174.66c3.87,5.78,12.08,7.09,18.35,2.93s8.2-12.26,4.34-18-12.06-7.11-18.34-2.94S416.52,168.87,420.36,174.66Z"/><path class="cls-1" d="M424.58,161.87a3.6,3.6,0,0,0,5,.81,3.48,3.48,0,1,0-5-.81Z"/><path class="cls-1" d="M422.4,175.79a2,2,0,1,0,.62-2.6A1.9,1.9,0,0,0,422.4,175.79Z"/><path class="cls-1" d="M499.11,130.05c3.75,8.89,14.79,12.72,24.67,8.54s14.88-14.71,11.16-23.6-14.8-12.68-24.68-8.53S495.37,121.18,499.11,130.05Z"/><path class="cls-2" d="M515.56,141.54h0c-7.87,0-14.78-4.32-17.59-11-4-9.49,1.31-20.81,11.82-25.23a22.41,22.41,0,0,1,8.72-1.78c7.87,0,14.78,4.31,17.6,11,4,9.52-1.34,20.84-11.83,25.25A22.23,22.23,0,0,1,515.56,141.54ZM518.5,106a19.94,19.94,0,0,0-7.75,1.59c-9.24,3.89-13.94,13.73-10.48,21.95,2.42,5.75,8.42,9.46,15.28,9.46h0a19.75,19.75,0,0,0,7.74-1.59c9.22-3.88,13.93-13.73,10.49-22C531.36,109.74,525.36,106,518.5,106Z"/><path class="cls-2" d="M501.53,126.72c2.6,6.16,10.06,8.88,16.69,6.08s9.95-10,7.37-16.18-10.09-8.86-16.72-6.06S499,120.59,501.53,126.72Z"/><path class="cls-1" d="M507.57,115.18a3.51,3.51,0,0,0,4.64,1.69,3.36,3.36,0,1,0-2.59-6.18A3.52,3.52,0,0,0,507.57,115.18Z"/><path class="cls-1" d="M505.52,128.48a1.89,1.89,0,1,0,1.05-2.35A1.8,1.8,0,0,0,505.52,128.48Z"/><path class="cls-1" d="M468.89,152c11.28-11.28,21.64-16.34,51.89-3.38,29.11,12.48,56.81.86,58.6-25.9C569.31,103.94,577,98,584.94,99c6.55.83,10.22,5.15,17.28,3.46,13.9-3.37,23,11,9.59,23.85-3.49,47.54-69.2,111.2-127.63,85.47Z"/><path class="cls-2" d="M512.31,218.9a70.57,70.57,0,0,1-28.64-6,1.25,1.25,0,0,1,1-2.29c22.17,9.76,47.78,7.08,72.11-7.55,29.17-17.54,51.79-49.86,53.77-76.86a1.24,1.24,0,0,1,.38-.81c6.89-6.63,7.09-13.11,5-17-2.36-4.3-7.62-6.18-13.39-4.78-4.73,1.14-8.11-.22-11.38-1.53a25,25,0,0,0-6.36-1.9c-3.4-.42-6.21.56-7.68,2.71-2.5,3.64-1.3,10.46,3.38,19.2a1.35,1.35,0,0,1,.15.68c-.76,11.44-6.25,20.84-15.44,26.47-11.88,7.28-28.67,7.46-44.9.5-30.81-13.19-40.37-7-50.52,3.12a1.25,1.25,0,0,1-1.77-1.77c12.56-12.56,23.73-16.31,53.27-3.65,15.49,6.64,31.42,6.51,42.61-.34,8.38-5.13,13.43-13.7,14.22-24.14-6.4-12.11-5.21-18.37-3.07-21.49,2-2.94,5.69-4.32,10.07-3.77a27.3,27.3,0,0,1,7,2.05c3.17,1.27,5.91,2.37,9.86,1.43,6.91-1.68,13.26.68,16.18,6,2.52,4.6,2.48,12.14-5.09,19.64-2.26,27.65-25.29,60.53-54.94,78.35C543,214.3,527.35,218.9,512.31,218.9Z"/><path class="cls-1" d="M493.67,141.78c-4.77.89-23.53,11-21.74,30.09Z"/><path class="cls-2" d="M471.92,173.12a1.25,1.25,0,0,1-1.24-1.14c-1.86-19.73,17.62-30.47,22.76-31.44a1.24,1.24,0,0,1,1.46,1,1.26,1.26,0,0,1-1,1.47c-4.68.88-22.42,10.69-20.73,28.74a1.24,1.24,0,0,1-1.13,1.36Z"/><path class="cls-1" d="M549.08,153.4s-1.49,12.51,7.45,19.66Z"/><path class="cls-2" d="M556.53,174.31a1.25,1.25,0,0,1-.78-.27c-9.38-7.5-8-20.25-7.91-20.79a1.25,1.25,0,1,1,2.49.29c0,.12-1.29,11.93,7,18.54a1.25,1.25,0,0,1-.78,2.23Z"/><path class="cls-1" d="M579.38,122.73a23.81,23.81,0,0,0,9.32,3.86Z"/><path class="cls-2" d="M588.71,127.84l-.21,0a24.77,24.77,0,0,1-9.87-4.09,1.25,1.25,0,1,1,1.5-2,22.53,22.53,0,0,0,8.78,3.63,1.25,1.25,0,0,1-.2,2.49Z"/><path class="cls-1" d="M611.81,126.29s-4,3.87-9.1,1.79Z"/><path class="cls-2" d="M605.78,130a9.35,9.35,0,0,1-3.55-.71,1.25,1.25,0,0,1,.95-2.32c4.22,1.74,7.63-1.4,7.77-1.54a1.26,1.26,0,0,1,1.73,1.82A10.83,10.83,0,0,1,605.78,130Z"/><path class="cls-1" d="M596.83,108.53c-5,0-13.7-6.55-14.4-2.46s9,9.46,17.14,9.28c9.83-.21,12.15-6.34,8.38-7.38S600.41,108.55,596.83,108.53Z"/><path class="cls-2" d="M599.17,116.61c-6.13,0-13.39-2.91-16.54-6.63a5,5,0,0,1-1.44-4.12,2.74,2.74,0,0,1,2.94-2.39c1.62,0,3.67.83,6,1.8s4.87,2,6.67,2h0a24.31,24.31,0,0,0,3.9-.42,18.45,18.45,0,0,1,7.54-.09,3.28,3.28,0,0,1,2.6,3.66c-.35,2.87-4,6-11.28,6.18Zm-15-10.64c-.42,0-.42,0-.47.31a2.85,2.85,0,0,0,.89,2.08c2.34,2.77,8.78,5.74,14.62,5.74h.37c6.33-.14,8.7-2.75,8.86-4,0-.19.08-.69-.79-.93a16.14,16.14,0,0,0-6.47.14,26,26,0,0,1-4.24.46c-2.36,0-5.06-1.12-7.68-2.19C587.27,106.8,585.26,106,584.13,106Z"/><path class="cls-1" d="M488.31,201.66c-.59,4.17-3.58,16.68-17.57,20.85Z"/><path class="cls-2" d="M470.74,223.76a1.26,1.26,0,0,1-.36-2.46c13.42-4,16.17-16.18,16.69-19.82a1.27,1.27,0,0,1,1.42-1.06,1.25,1.25,0,0,1,1.06,1.42c-.57,4-3.6,17.45-18.46,21.87A1.48,1.48,0,0,1,470.74,223.76Z"/></svg>