<svg id="Layer_53" data-name="Layer 53" xmlns="http://www.w3.org/2000/svg" viewBox="0 0 895 511.11"><defs><style>.cls-1{fill:#fff;}.cls-2{fill:#1d1d1b;}</style></defs><path class="cls-1" d="M539.35,246.42c-1.56-37.63,55.5-140.71,107-109,30.25,18.61,4,79.27-33.68,105,52.38,21.4,63.27,67.31,43.59,89.17C620.62,371.27,541.34,294,539.35,246.42Z"/><path class="cls-2" d="M631.66,343.92c-40.67,0-92.09-59.85-93.66-97.44-.89-21.43,16.87-64.85,43.77-92.9,14.74-15.36,30.06-23.48,44.33-23.48a39.6,39.6,0,0,1,21,6.18c8.75,5.38,13.52,14.54,13.81,26.5.62,25.56-19.59,60.65-45.43,79.39,26.79,11.56,45,30.74,50,52.88,3.29,14.38.3,28-8.21,37.49A33.16,33.16,0,0,1,631.66,343.92ZM626.1,132.8c-13.51,0-28.17,7.83-42.38,22.65-25.67,26.77-43.88,70.07-43,90.92,1.52,36.59,51.45,94.85,90.95,94.85a30.57,30.57,0,0,0,23.62-10.48c7.91-8.79,10.68-21.58,7.59-35.09-5-21.89-23.49-40.82-50.7-51.93a1.38,1.38,0,0,1-.83-1.11,1.36,1.36,0,0,1,.58-1.26c26.13-17.88,46.89-53.1,46.27-78.5-.27-11-4.6-19.4-12.52-24.27A37,37,0,0,0,626.1,132.8Z"/><path class="cls-1" d="M561.62,206s24.31-50.26,49.08-37.87-2.22,61.07-16.63,75.49c26.75,17.34,45.87,48.86,25.56,62.73s-49.56-22.79-49.56-22.79Z"/><path class="cls-2" d="M609.4,310.86c-19.09,0-39.52-25.36-40.38-26.44a1.37,1.37,0,0,1-.29-.69l-8.46-77.56a1.44,1.44,0,0,1,.13-.74c.8-1.66,19.89-40.6,42.2-40.6a19.34,19.34,0,0,1,8.71,2.11c5.81,2.9,9.32,7.84,10.43,14.67,3.21,19.78-14.38,49.79-25.57,61.8,19.51,13.1,33.13,32.16,33.31,46.8a19.88,19.88,0,0,1-9.09,17.28A19.19,19.19,0,0,1,609.4,310.86Zm-38-27.82c2.36,2.85,21.3,25.11,38,25.11a16.48,16.48,0,0,0,9.46-2.89,17.07,17.07,0,0,0,7.92-15c-.17-13.9-14.24-33-33.45-45.46a1.38,1.38,0,0,1-.61-1,1.36,1.36,0,0,1,.39-1.1c10.46-10.46,29.1-41.35,26-60.65-1-5.92-4-10.19-9-12.69a16.65,16.65,0,0,0-7.5-1.82c-19.59,0-37.66,34.88-39.6,38.73Z"/><path class="cls-1" d="M387.65,382.46s22.77,53,72.35,55.48c38.64,2,36.66-52.51,2-64.4C435.22,379.49,387.65,382.46,387.65,382.46Z"/><path class="cls-2" d="M462,439.35h0c-.69,0-1.39,0-2.11-.06-49.84-2.55-73.29-55.76-73.52-56.3a1.35,1.35,0,0,1,1.16-1.88c.47,0,47.77-3,74.12-8.89a1.3,1.3,0,0,1,.73,0c20.35,7,29.68,28.11,26.94,44.51C487,430.91,476.79,439.35,462,439.35Zm-72.32-55.68c4.48,9.11,27.28,50.72,70.35,52.92.67,0,1.33.05,2,.05h0c13.32,0,22.54-7.59,24.66-20.3,2.54-15.2-6.05-34.76-24.8-41.4C438.4,380.1,399,383,389.72,383.67Z"/><path class="cls-1" d="M387.33,129.65s36.16-61,97.06-56.27c47.47,3.7,33,68.08-7.76,78.91C444.9,140.81,387.33,129.65,387.33,129.65Z"/><path class="cls-2" d="M476.63,153.64a1.21,1.21,0,0,1-.46-.08c-31.26-11.31-88.52-22.47-89.09-22.59a1.33,1.33,0,0,1-1-.77,1.36,1.36,0,0,1,.07-1.24c.34-.57,34.55-57.2,91.49-57.2,2.26,0,4.56.09,6.83.27,18.09,1.41,29.32,11.63,30.82,28,1.86,20.44-13.1,46.83-38.34,53.54A1.32,1.32,0,0,1,476.63,153.64Zm-87.1-24.93c10.28,2,58.91,12,87.16,22.17,23.67-6.53,37.68-31.34,35.93-50.57-1.37-15-11.7-24.29-28.34-25.59-2.2-.17-4.43-.25-6.62-.25C427.66,74.47,395.57,119.49,389.53,128.71Z"/><path class="cls-1" d="M432.16,135.61c-2.41,1.74-8.13,3.81-10.75,1.22-1.16-1.16-1.23-3-1.23-4.62,0-3,3.9-7.39,5.57-10a110.82,110.82,0,0,1,24.8-26.88c2.63-2,5.44-4,8.67-4.76,5.72-1.42,9.82,2.85,6.93,8.19-3.69,6.81-9.14,12.68-14.39,18.31C445.63,123.7,439.45,130.34,432.16,135.61Z"/><path class="cls-2" d="M424.9,139.4a6.07,6.07,0,0,1-4.44-1.61c-1.63-1.63-1.63-4.1-1.63-5.58,0-2.77,2.43-6.05,4.36-8.69.55-.74,1.05-1.42,1.43-2a109,109,0,0,1,7.35-10A110.9,110.9,0,0,1,449.73,94.3c2.73-2.1,5.73-4.17,9.17-5,3.63-.89,7.14.29,8.69,2.89a7.28,7.28,0,0,1-.25,7.26c-3.77,7-9.27,12.88-14.59,18.59-6.1,6.56-12.4,13.33-19.8,18.67A15.25,15.25,0,0,1,424.9,139.4Zm36.48-47.71a7.48,7.48,0,0,0-1.84.23c-2.79.68-5.28,2.3-8.16,4.52a108.42,108.42,0,0,0-17.32,16.81,106.94,106.94,0,0,0-7.18,9.74c-.4.62-.93,1.35-1.51,2.13-1.61,2.2-3.82,5.22-3.84,7.11,0,1.41.06,2.87.83,3.64a3.51,3.51,0,0,0,2.54.83,12.68,12.68,0,0,0,6.47-2.19c7.18-5.19,13.39-11.86,19.4-18.31,5.21-5.6,10.59-11.38,14.19-18a4.57,4.57,0,0,0,.31-4.58A4.33,4.33,0,0,0,461.38,91.69Z"/><path class="cls-1" d="M415.49,378.24c-1.76-1.65-6.16-3.92-8.54-2.1-1.05.81-1.31,2.27-1.46,3.58-.31,2.46,2.35,6.37,3.44,8.62a90.11,90.11,0,0,0,17.18,24.25,19.86,19.86,0,0,0,6.49,4.75c4.46,1.73,8.2-1.27,6.44-5.88-2.27-5.87-6.05-11.18-9.68-16.26C425.11,389.25,420.82,383.26,415.49,378.24Z"/><path class="cls-2" d="M435.09,419.19h0a8.23,8.23,0,0,1-3-.59,21.2,21.2,0,0,1-7-5.06,89.69,89.69,0,0,1-12.54-15.78,88.14,88.14,0,0,1-4.9-8.84c-.23-.49-.56-1.08-.91-1.71-1.31-2.37-2.94-5.33-2.65-7.66.13-1.13.38-3.26,2-4.48a4.89,4.89,0,0,1,3-.95,12,12,0,0,1,7.25,3.14c5.47,5.14,9.83,11.25,14,17.15,3.68,5.16,7.49,10.49,9.84,16.56a6.22,6.22,0,0,1-.41,5.87A5.67,5.67,0,0,1,435.09,419.19Zm-25.93-42.37a2.24,2.24,0,0,0-1.38.39,4.11,4.11,0,0,0-.95,2.67c-.18,1.46,1.33,4.21,2.34,6,.37.68.72,1.31,1,1.85a84.66,84.66,0,0,0,4.74,8.57,87.42,87.42,0,0,0,12.17,15.31,19,19,0,0,0,6,4.46c1.89.73,3.77.4,4.58-.78a3.6,3.6,0,0,0,.11-3.37c-2.23-5.74-5.94-10.93-9.52-15.95-4.14-5.81-8.43-11.81-13.7-16.76A9.41,9.41,0,0,0,409.16,376.82Z"/><path class="cls-1" d="M443.18,374.92c-1.81-1.63-6.23-3.8-8.58-1.94-1,.83-1.25,2.3-1.39,3.62-.26,2.46,2.49,6.32,3.62,8.54a87.86,87.86,0,0,0,5,8.6A88.85,88.85,0,0,0,454.5,409a19.44,19.44,0,0,0,6.58,4.61c4.51,1.64,8.19-1.44,6.32-6-2.39-5.84-6.27-11.05-10-16.06C453,385.71,448.61,379.82,443.18,374.92Z"/><path class="cls-2" d="M463.47,415.44h0a8.33,8.33,0,0,1-2.85-.53,20.77,20.77,0,0,1-7.06-4.91,89.63,89.63,0,0,1-12.86-15.52,88.32,88.32,0,0,1-5.07-8.73c-.26-.5-.61-1.1-1-1.74-1.35-2.33-3-5.24-2.79-7.55.15-1.32.37-3.32,1.9-4.53a4.92,4.92,0,0,1,3.14-1,12.2,12.2,0,0,1,7.18,3c5.55,5,10,11,14.39,16.86,3.61,4.83,7.71,10.31,10.18,16.36a6.16,6.16,0,0,1-.3,5.9A5.71,5.71,0,0,1,463.47,415.44ZM436.9,373.62a2.32,2.32,0,0,0-1.46.42c-.59.48-.76,1.56-.89,2.71-.15,1.43,1.35,4,2.44,5.9.4.7.77,1.33,1,1.88A90.76,90.76,0,0,0,443,393a87.64,87.64,0,0,0,12.49,15.05,18.34,18.34,0,0,0,6.1,4.32c1.92.7,3.78.33,4.57-.85a3.57,3.57,0,0,0,0-3.37c-2.34-5.73-6.16-10.83-9.85-15.76-4.26-5.73-8.68-11.65-14-16.47A9.49,9.49,0,0,0,436.9,373.62Z"/><path class="cls-1" d="M465.42,144.05c-2.45,1.7-8.19,3.65-10.79,1-1.12-1.18-1.14-3-1.11-4.63.09-3,4-7.32,5.78-9.85a109,109,0,0,1,7.44-9.71,110.65,110.65,0,0,1,17.89-16.65c2.68-2,5.53-3.87,8.77-4.59,5.77-1.29,9.76,3.06,6.75,8.33-3.82,6.74-9.38,12.49-14.76,18C479.14,132.43,472.81,138.92,465.42,144.05Z"/><path class="cls-2" d="M458.29,147.7a6.26,6.26,0,0,1-4.62-1.71c-1.58-1.65-1.53-4-1.5-5.6.08-2.79,2.57-6,4.57-8.64.54-.71,1.05-1.37,1.44-1.94a113.57,113.57,0,0,1,7.53-9.83,112.1,112.1,0,0,1,18.12-16.86c2.6-1.91,5.66-4,9.27-4.82s7.1.41,8.61,3c1.21,2.09,1.07,4.75-.38,7.3-3.95,7-9.81,13-15,18.29-5.85,6.05-12.49,12.92-20.17,18.25A15.36,15.36,0,0,1,458.29,147.7Zm37.1-47a7.8,7.8,0,0,0-1.7.2c-3.1.69-5.88,2.61-8.26,4.35a108.49,108.49,0,0,0-25,26c-.41.61-1,1.31-1.53,2.06-1.67,2.18-3.95,5.16-4,7.07,0,1.48,0,2.88.74,3.66a3.65,3.65,0,0,0,2.68.88,12.73,12.73,0,0,0,6.36-2.06c7.47-5.18,14-11.95,19.77-17.91,5.05-5.2,10.78-11.07,14.56-17.75,1-1.72,1.12-3.35.4-4.6A4.46,4.46,0,0,0,495.39,100.74Z"/><path class="cls-1" d="M259.6,275.49S229.15,174.09,331.38,135c38.48-14.37,198-21.31,255.47,109.49C573,313.8,494.36,415.14,345.27,376,283.86,359.82,263.56,323.7,259.6,275.49Z"/><path class="cls-2" d="M409.15,386a253.47,253.47,0,0,1-64.22-8.78c-55.32-14.53-82.05-45.85-86.67-101.53-1.24-4.41-27.8-103.59,72.63-142,9.78-3.66,29.72-7.55,56.36-7.55,44.83,0,154.14,11.47,200.84,117.76a1.37,1.37,0,0,1,.09.8C576.82,301.52,519.77,386,409.15,386Zm-21.9-257.2c-26.28,0-45.85,3.81-55.4,7.37-99.83,38.23-71.26,137.89-71,138.89a1.27,1.27,0,0,1,.06.28c4.47,54.44,30.58,85.06,84.67,99.27a251.26,251.26,0,0,0,63.53,8.69c108.72,0,164.91-82.81,176.29-138.75C539.29,140.12,431.49,128.84,387.25,128.84Z"/><path class="cls-1" d="M259.6,275.49a1,1,0,0,0,0-.16s0-.05,0-.09a.29.29,0,0,1-.05-.13.13.13,0,0,0,0-.06,1.91,1.91,0,0,1-.06-.21s0-.09,0-.14a.09.09,0,0,0,0-.05s0-.09,0-.14a.16.16,0,0,0,0-.09c0-.15-.08-.32-.11-.48a.27.27,0,0,1,0-.12.76.76,0,0,0,0-.11h0c-.07-.26-.13-.54-.2-.85a.16.16,0,0,1,0-.09c0-.1-.05-.21-.07-.32s-.09-.35-.14-.55-.07-.36-.12-.54v0c0-.15-.07-.31-.11-.47a2.84,2.84,0,0,1-.08-.42c0-.07,0-.13-.06-.19l0-.18c-.07-.34-.15-.69-.22-1.06,0-.12-.05-.24-.07-.36l-.06-.29a2.34,2.34,0,0,1,0-.26c-.06-.3-.12-.6-.18-.92,0-.12,0-.24-.08-.37s0-.22-.05-.34q-.09-.44-.15-.87l-.12-.6c0-.1,0-.2-.05-.3,0-.35-.1-.7-.17-1.07s-.07-.5-.12-.76c-.07-.46-.13-.94-.21-1.43,0-.21-.06-.42-.08-.63s-.06-.44-.09-.65c-.06-.43-.11-.87-.17-1.31,0-.28-.07-.57-.11-.85-.05-.45-.1-.91-.14-1.38,0-.31-.08-.64-.1-1s-.1-.93-.13-1.4-.07-.66-.09-1c0-.58-.1-1.17-.14-1.77,0-.19,0-.36,0-.55s0-.31,0-.46v0c0-.68-.08-1.39-.12-2.09v-.13c0-.15,0-.32,0-.49s0-.29,0-.43c0-.53,0-1.06-.06-1.59v-.33c0-.32,0-.62,0-.94,0-.49,0-1,0-1.51,0-.29,0-.59,0-.9v-.34c0-.68,0-1.38,0-2.07v-.32c0-.22,0-.45,0-.69,0-.83,0-1.68.08-2.53,0-.42.05-.86.06-1.28,0-.59.06-1.19.11-1.79,0-.41.05-.81.07-1.22,0-.64.11-1.28.16-1.92,0-.24,0-.49.08-.73,0-.08,0-.16,0-.23s0-.2,0-.3c.08-.76.15-1.52.25-2.28,0-.05,0-.1,0-.15s0-.32.06-.46a.58.58,0,0,1,0-.19c.13-1,.26-2,.42-3.08.05-.35.11-.7.16-1,.11-.7.23-1.41.35-2.11.07-.41.15-.82.23-1.24,0,0,0-.08,0-.12.13-.7.27-1.39.42-2.1.07-.39.15-.77.24-1.17.2-.87.39-1.75.61-2.64h0c.05-.23.11-.48.17-.72.27-1.07.55-2.15.87-3.24.07-.31.17-.62.27-.94.22-.78.46-1.56.71-2.35.13-.44.28-.87.42-1.31l.77-2.25c.14-.36.26-.72.4-1.09q.5-1.37,1.05-2.76c.07-.17.13-.34.2-.52h0c.16-.38.33-.77.49-1.16l.6-1.42c.2-.44.39-.89.6-1.33l.6-1.29.61-1.3c.32-.64.65-1.28,1-1.92a.52.52,0,0,1,.06-.13c.25-.47.49-.94.75-1.41a2,2,0,0,0,.13-.25c.22-.39.44-.81.66-1.2l.7-1.23c.17-.29.35-.6.53-.89l.31-.53.7-1.16c.1-.15.19-.31.3-.47l1.2-1.89.62-.92c.37-.55.75-1.09,1.13-1.63.24-.35.5-.71.76-1.06.38-.53.77-1.06,1.17-1.58.24-.34.49-.65.74-1,.61-.79,1.23-1.58,1.88-2.36.18-.23.38-.45.57-.68.51-.61,1-1.22,1.57-1.83.25-.3.52-.59.79-.89.5-.56,1-1.12,1.54-1.67l.77-.82,1.14-1.15,1.16-1.18.51-.48.08-.07c.63-.61,1.28-1.22,1.94-1.82l.89-.81c.61-.54,1.22-1.08,1.86-1.62l.85-.73c.91-.76,1.84-1.52,2.78-2.26l.39-.3c.28-.23.59-.44.87-.66.56-.42,1.11-.85,1.69-1.27.31-.24.64-.46,1-.7.73-.53,1.49-1.05,2.25-1.58l1-.64c1-.71,2.11-1.41,3.21-2.1l.22-.14c1-.65,2.13-1.3,3.21-1.94.35-.2.7-.4,1.06-.59s.53-.31.8-.46l1.82-1,1.06-.57.81-.42c1-.5,1.92-1,2.92-1.5l.14-.07c.8-.39,1.62-.77,2.43-1.15l1.32-.63,1.18-.53.75-.33,2.26-1,1.21-.51c1.4-.57,2.79-1.14,4.25-1.69.82-.31,1.71-.6,2.6-.89a105.43,105.43,0,0,1,12.82-3.16h0C418.62,185.7,416.16,314,345.27,376,283.86,359.82,263.56,323.7,259.6,275.49Z"/><path class="cls-2" d="M345.27,377.3a1.32,1.32,0,0,1-.34,0c-55.33-14.53-82.06-45.86-86.67-101.57a1.16,1.16,0,0,1-.08-.26l0-.07a1.48,1.48,0,0,0-.07-.26s0-.06,0-.08a.36.36,0,0,1-.05-.2h0l-.07-.26-.08-.32a.07.07,0,0,1,0-.05l0-.1h0c-.06-.2-.11-.42-.16-.64l-.07-.27s0-.05,0-.08h0l-.2-.85c-.05-.23-.08-.38-.12-.52a1,1,0,0,1,0-.17l-.08-.36a5.13,5.13,0,0,1-.1-.51s-.09-.42-.1-.44l-.21-1,1.26-.63-1.33.23,1.27-.52-1.33.24s-.05-.32-.05-.35l-.24-1.13s0-.28-.05-.31c-.07-.38-.12-.69-.17-1l-.09-.49,1.26-.61-1.33.18c-.05-.33-.11-.67-.17-1l-.33-2.22,0-.3-.57-4.59c0-.31-.07-.65-.1-1s-.1-.93-.13-1.42c0-.28-.07-.64-.09-1l0-.32c0-.48-.08-1-.1-1.47l0-.45s0-.33,0-.36,0-.25,0-.27l-.12-2v-.38s0-.3,0-.32l0-.43c0-.48,0-1-.06-1.56v-.36c0-.3,0-.61,0-.94s0-1,0-1.51V241.7c0-.69,0-1.38,0-2.08v-.31c0-.25,0-.5,0-.76,0-.79,0-1.65.07-2.52l.17-3.11c0-.22,0-.49,0-.76l.27-3.14s0-.36,0-.38l.05-.55c.07-.64.13-1.29.22-1.93l0-.36s0-.23,0-.3c0,.08,0,0,0-.24.13-1,.27-2,.42-3l.15-1c.1-.62.2-1.22.31-1.83l.05-.32c0-.25.09-.53.15-.81l.08-.43a2.47,2.47,0,0,1,.06-.29c.1-.56.24-1.27.39-2,.06-.37.15-.78.24-1.19l.11-.48c.16-.73.33-1.45.51-2.19l.14-.59c.31-1.23.59-2.32.91-3.43.05-.22.15-.53.24-.83.25-.88.5-1.68.75-2.48.1-.33.21-.66.32-1l.11-.33q.38-1.14.78-2.28l.4-1.1c.33-.92.69-1.86,1.06-2.79l.71-1.73q.28-.69.6-1.41l.15-.34c.16-.35.31-.7.47-1s.4-.86.61-1.3l.6-1.29c.27-.54.53-1.06.8-1.58l.2-.38c.32-.62.56-1.09.82-1.56l.14-.27,1.36-2.43c.18-.32.38-.64.57-.94l2.51-4.07.16-.23.49-.73c.36-.54.75-1.09,1.14-1.64.24-.35.51-.73.78-1.09.36-.52.77-1.06,1.18-1.6l.66-.87c.7-.91,1.33-1.7,2-2.5l.58-.69c.5-.61,1-1.24,1.59-1.86l.79-.89c.51-.57,1-1.14,1.57-1.7l3.62-3.67c.72-.7,1.38-1.31,2.05-1.92l.91-.82c.61-.55,1.23-1.1,1.88-1.64L292,156c.91-.76,1.85-1.53,2.8-2.28l.23-.17c.33-.27.52-.4.7-.54l3-2.24c.57-.42,1.16-.83,1.74-1.24l1.53-1c1-.71,2.12-1.42,3.23-2.11l.26-.16c1-.64,2.11-1.29,3.2-1.94l1.1-.62.67-.38,4.16-2.26c.87-.45,1.74-.91,2.64-1.36l1.85-.88,1.18-.55c.29-.15.59-.29.9-.43l1.91-.86c.8-.35,1.54-.68,2.31-1l1.2-.51c1.47-.61,2.85-1.17,4.3-1.72.79-.29,1.64-.58,2.5-.86a107.31,107.31,0,0,1,13.1-3.23,1.34,1.34,0,0,1,1.14.24c32.22,24.59,51.6,65.72,53.17,112.84,1.75,52.64-18.67,102.85-54.65,134.3A1.33,1.33,0,0,1,345.27,377.3ZM260.8,274.79a2.56,2.56,0,0,1,.13.49c4.47,54.31,30.38,84.9,84,99.18,35-30.95,54.91-80.12,53.19-131.7-1.53-46.08-20.35-86.3-51.66-110.44a106.75,106.75,0,0,0-12.05,3c-1,.32-1.79.59-2.54.87-1.43.54-2.79,1.09-4.15,1.65l-1.25.54-2.22,1-4,1.84-1.68.79c-1,.5-1.86.95-2.7,1.39l-4,2.16c-.35.2-.56.31-.75.43l-1.08.6c-1.08.64-2.14,1.28-3.19,1.93-1.3.81-2.35,1.51-3.39,2.21l-1.48,1c-.57.4-1.13.79-1.69,1.2l-3.46,2.58-.27.21c-1.06.83-2,1.59-2.88,2.33l-.84.72c-.64.54-1.24,1.07-1.84,1.61l-.87.79c-.66.6-1.3,1.2-1.93,1.8a2.31,2.31,0,0,1-.24.2l-3.37,3.46c-.52.54-1,1.09-1.51,1.64l-.78.87c-.54.61-1.05,1.21-1.55,1.81l-.56.66c-.65.79-1.26,1.56-1.86,2.35l-.72.94c-.41.54-.79,1.05-1.15,1.57s-.52.71-.76,1.05c-.38.54-.76,1.07-1.11,1.61L271.53,184c-.2.32-.38.61-.54.89l-1.35,2.42-1.31-.41,1.19.65c-.26.46-.5.92-.74,1.38l-1.61,3.29c-.23.45-.42.87-.61,1.28l-.6,1.34-.58,1.37-.71,1.72c-.34.86-.69,1.77-1,2.68l-.39,1.09c-.25.73-.51,1.47-.75,2.21l-.12.34-.3.93c-.25.79-.49,1.56-.7,2.32-.12.41-.2.65-.25.88-.33,1.15-.61,2.21-.88,3.27l-.16.67c-.19.76-.34,1.47-.51,2.18l-.1.48c-.08.37-.16.73-.23,1.11-.15.74-.29,1.43-.42,2.12l-.11.56c-.05.25-.09.5-.13.74l-.06.36c-.1.58-.2,1.17-.29,1.75l-.16,1c-.15,1-.28,2-.41,2.94a2.33,2.33,0,0,1,0,.37l-.06.46c-.08.71-.14,1.33-.21,1.94l0,.39-1.37.17,1.34.22-.27,3.22c0,.23,0,.46,0,.7l-.17,3.08c0,.85-.06,1.68-.07,2.5,0,.27,0,.47,0,.67v.32c0,.72,0,1.4,0,2.07v1.24c0,.5,0,1,0,1.48,0,.32,0,.6,0,.89v.41c0,.49,0,1,.06,1.52l0,.33v.36s0,.28,0,.3l.12,2.16-1.32.54,1.34-.17c0,.19,0,.36,0,.53,0,.58.08,1.05.12,1.51l0,.34c0,.33.05.63.09.93,0,.53.09,1,.13,1.43s.06.66.1.95l.8,6.21q.06.38.12.78c.06.34.12.71.17,1.07l.15.82c.06.34.1.6.15.86l.31,1.63.05.3.06.3-1.29.43,1.36-.08.21,1a3.27,3.27,0,0,1,.1.45,2.11,2.11,0,0,0,.06.29l.11.47s0,.06,0,.1.09.37.13.54l.06.28-1.24.62,1.32-.32s0,.12,0,.21,0-.08,0-.12l.06.24a1.31,1.31,0,0,1,0,.23.81.81,0,0,0,0-.16l.07.23c0,.17.08.34.12.49l0,.13s0,.05,0,.08l.09.34a3.77,3.77,0,0,1,.1.4h0a1.85,1.85,0,0,1,.06.26.86.86,0,0,1,0,.13,1,1,0,0,1,.1.27v0a1.16,1.16,0,0,0-.06-.17Z"/><path class="cls-1" d="M254.26,244.62c18.83,9.91,32.21,53,15.85,75.31-28.73,14.86-41.41-25.19-14.65-31.15C210.86,271,233,238.18,254.26,244.62Z"/><path class="cls-2" d="M258,324.56c-10.93,0-17.57-8.47-18.49-16.83-.75-6.78,2.07-15.4,12-19.17-16.61-7.55-25.15-18.59-23-30,1.77-9.21,10.44-16.15,20.17-16.15a20.43,20.43,0,0,1,6,.89c9.91,5.19,18.58,18.93,22.31,35.11,3.84,16.65,1.74,32.06-5.76,42.29a1.39,1.39,0,0,1-.47.4A27.8,27.8,0,0,1,258,324.56Zm-9.31-79.41c-8.45,0-16,6-17.51,14-2.08,10.77,7.18,21.4,24.77,28.43a1.35,1.35,0,0,1-.21,2.57c-11.13,2.48-14.26,10.89-13.55,17.33.79,7.17,6.48,14.43,15.81,14.43a24.88,24.88,0,0,0,11.2-3c6.88-9.59,8.75-24.08,5.12-39.82-3.57-15.45-11.69-28.49-20.7-33.23A18.19,18.19,0,0,0,248.7,245.15Z"/><path class="cls-1" d="M399.53,250.7s63.41-13.87,83.23,15.86c14.75,22.12-8.1,77.71-37.66,65.39C397.54,312.13,399.53,250.7,399.53,250.7Z"/><path class="cls-2" d="M453.56,335.06a23.33,23.33,0,0,1-9-1.86c-47.88-19.95-46.43-81.92-46.41-82.55a1.34,1.34,0,0,1,1.06-1.27,171.55,171.55,0,0,1,32.57-3.26c17.76,0,41.22,3.41,52.08,19.69,8.38,12.58,4.87,33.93-2.94,48.51C473.9,327.5,463.91,335.06,453.56,335.06ZM400.87,251.8c.05,8.18,2,61.09,44.75,78.9a20.6,20.6,0,0,0,7.94,1.66c9.32,0,18.44-7,25-19.32,8.66-16.17,9.95-35.41,3.07-45.73-10.19-15.28-32.73-18.49-49.83-18.49A172.48,172.48,0,0,0,400.87,251.8Z"/><path class="cls-1" d="M437.41,148.78c13.95,0,24.78,12.19,24.78,24.78s-14.79,20.31-28.75,20.31-25.26-7.23-25.26-19.82S423.46,148.78,437.41,148.78ZM467,207.32c-1.1,7.19,4.74,12.31,12.71,13.52s17.1-1.91,18.19-9.11a14.61,14.61,0,0,0-12-16.3C477.9,194.21,468.07,200.13,467,207.32Zm14.8-35.73c-.72,4.76,3.14,8.15,8.42,8.95s11.32-1.26,12.06-6a9.7,9.7,0,0,0-7.95-10.8C489,162.91,482.51,166.82,481.77,171.59Z"/><path class="cls-2" d="M483.09,222.45h0a24,24,0,0,1-3.61-.27c-5.15-.79-9.32-3-11.76-6.36a11.45,11.45,0,0,1-2.08-8.71c1.07-7,9.52-13.19,18.08-13.19a16.7,16.7,0,0,1,2.36.17,15.43,15.43,0,0,1,10.3,6.47,15.83,15.83,0,0,1,2.82,11.38C498.11,219.2,490.32,222.45,483.09,222.45Zm.63-25.83c-7.07,0-14.56,5.3-15.41,10.9a8.65,8.65,0,0,0,1.59,6.7c2,2.7,5.62,4.62,10,5.29a21.38,21.38,0,0,0,3.21.24h0c5.88,0,12.59-2.57,13.44-8.22a13,13,0,0,0-2.36-9.41,12.71,12.71,0,0,0-8.49-5.36A14.13,14.13,0,0,0,483.72,196.62Zm-50.28-1.4c-15.67,0-26.61-8.7-26.61-21.17,0-13.19,15.43-26.62,30.58-26.62,13.92,0,26.13,12.21,26.13,26.13C463.54,187.12,448.24,195.22,433.44,195.22Zm4-45.09c-13.55,0-27.88,12.3-27.88,23.92,0,12.76,12,18.47,23.91,18.47,13.18,0,27.4-7.25,27.4-19C460.84,161.08,449.89,150.13,437.41,150.13Zm55,31.93h0a15.5,15.5,0,0,1-2.46-.19c-6.41-1-10.34-5.28-9.55-10.49s7.83-9.95,14.06-9a11,11,0,0,1,9.08,12.33C502.8,179.79,497.43,182.06,492.45,182.06Zm.42-17.1c-4.48,0-9.22,3.32-9.76,6.83-.65,4.26,3.19,6.79,7.29,7.42a14,14,0,0,0,2.05.15h0c3.7,0,7.93-1.58,8.46-5.06a8.35,8.35,0,0,0-6.82-9.25A8.15,8.15,0,0,0,492.87,165Z"/><path class="cls-1" d="M402,255.16s50.55-5.2,51.28,24.52S416.12,299.75,402,255.16Z"/><path class="cls-2" d="M440.47,298.1c-13.06,0-30.91-14.61-39.76-42.53a1.37,1.37,0,0,1,.16-1.15,1.35,1.35,0,0,1,1-.61c.14,0,3.52-.35,8.58-.35,13.09,0,43.61,2.55,44.19,26.18.16,6.36-1.41,11.42-4.54,14.64A13.08,13.08,0,0,1,440.47,298.1Zm-36.65-41.73c8.53,25.37,25.11,39,36.65,39a10.27,10.27,0,0,0,7.68-3c2.61-2.68,3.92-7.06,3.77-12.68-.5-20.49-26.2-23.55-41.48-23.55C407.6,256.16,405.28,256.27,403.82,256.37Z"/><path class="cls-1" d="M289.61,129.55c14.31,5.32,21.4,34.73,4.82,59.2-15.83,23.31-41.74,8.52-42.74-11.45C250.56,154.6,266.41,120.92,289.61,129.55Z"/><path class="cls-2" d="M274.9,202c-12.64,0-23.89-11.28-24.56-24.63-.74-14.79,5.43-32.58,14.67-42.29,7.3-7.67,16.2-10.1,25.07-6.79,5.81,2.15,10.63,8,13.22,16.13,3.54,11.05,3.36,28.69-7.76,45.09C290.08,197.56,282.74,202,274.9,202Zm7.36-72.48c-5.46,0-10.61,2.5-15.29,7.42-8.78,9.23-14.64,26.17-13.93,40.29.6,12,10.61,22.07,21.86,22.07,4.89,0,12.06-2,18.41-11.31,10.57-15.59,10.76-32.31,7.42-42.75-2.34-7.3-6.56-12.55-11.59-14.42A19.78,19.78,0,0,0,282.26,129.52Z"/><path class="cls-2" d="M275.85,159.76c-1.09,7.05,2.6,13.46,8.24,14.33s11.08-4.15,12.17-11.19-2.62-13.45-8.25-14.32S276.92,152.71,275.85,159.76Z"/><path class="cls-1" d="M289.51,156.1c-.33,2.2.82,4.21,2.57,4.46s3.46-1.28,3.79-3.48-.81-4.2-2.56-4.47S289.85,153.9,289.51,156.1Z"/><path class="cls-1" d="M278.36,167.87a1.9,1.9,0,0,0,1.32,2.28,2.1,2.1,0,0,0,.63-4.05A1.89,1.89,0,0,0,278.36,167.87Z"/><path class="cls-1" d="M345,142.93c19.29,6.66,37.51,54.52,11.76,90.85-24.54,34.61-68.19,10.31-71.14-20.29C282.31,178.7,305.85,129.4,345,142.93Z"/><path class="cls-2" d="M326.78,252.08c-20.65,0-40.49-18-42.47-38.46-2-21.14,5.73-46,18.87-60.47,11.6-12.78,26.63-16.9,42.3-11.49,8.8,3,17.14,13.84,21.75,28.19,7.14,22.21,3.65,46.4-9.33,64.71C347.64,249,335.31,252.08,326.78,252.08ZM332.06,142c-9.88,0-19.18,4.49-26.89,13C292.51,168.91,285,192.92,287,213.36c1.85,19.19,20.44,36,39.78,36,7.9,0,19.32-2.84,28.92-16.37,12.49-17.62,15.84-40.92,9-62.32-4.29-13.36-12.17-23.75-20.06-26.47A38.51,38.51,0,0,0,332.06,142Z"/><path class="cls-2" d="M332.7,184.87c-1.57,10.21,3.79,19.52,11.95,20.77s16.07-6,17.64-16.22-3.79-19.52-12-20.77S334.27,174.66,332.7,184.87Z"/><path class="cls-1" d="M352.51,179.56c-.48,3.19,1.2,6.1,3.74,6.48s5-1.87,5.49-5.06-1.18-6.08-3.72-6.47S353,176.38,352.51,179.56Z"/><path class="cls-1" d="M336.36,196.63a2.44,2.44,0,1,0,4.71.73c.25-1.64-.6-3.1-1.89-3.3A2.73,2.73,0,0,0,336.36,196.63Z"/></svg>