<svg id="Layer_172" data-name="Layer 172" xmlns="http://www.w3.org/2000/svg" viewBox="0 0 895 511.11"><defs><style>.cls-1{fill:#fff;}.cls-2{fill:#1e1e1e;}</style></defs><g id="train3"><g id="color"><g id="_6" data-name="6"><path class="cls-1" d="M360.78,290.77H347.54v1.07a5.52,5.52,0,0,1-.53,2.37h14.3a5.52,5.52,0,0,1-.53-2.37Z"/><path class="cls-1" d="M523,290.77H509.79v1.07a5.52,5.52,0,0,1-.53,2.37h14.31a5.53,5.53,0,0,1-.54-2.37Z"/><path class="cls-1" d="M198.53,290.77H185.29v1.07a5.52,5.52,0,0,1-.53,2.37h14.3a5.52,5.52,0,0,1-.53-2.37Z"/><path class="cls-1" d="M672.05,291.84a5.67,5.67,0,0,1-.53,2.37h7.86v-3.44h-7.33Z"/></g><g id="_5" data-name="5"><path class="cls-1" d="M143.3,310.84a4.89,4.89,0,1,0,4.88,4.89A4.89,4.89,0,0,0,143.3,310.84Z"/><path class="cls-1" d="M78.27,302A13.72,13.72,0,1,0,92,315.73,13.73,13.73,0,0,0,78.27,302Zm0,21.86a8.14,8.14,0,1,1,8.14-8.14A8.15,8.15,0,0,1,78.27,323.87Z"/><path class="cls-1" d="M47.59,300.18a7.77,7.77,0,0,0,7.76,7.76H63.2a16.94,16.94,0,0,1,30.13,0h34.9a16.94,16.94,0,0,1,30.13,0h7.85a7.78,7.78,0,0,0,7.77-7.76v-2.71H47.59Z"/><path class="cls-1" d="M143.3,302A13.72,13.72,0,1,0,157,315.73,13.73,13.73,0,0,0,143.3,302Zm0,21.86a8.14,8.14,0,1,1,8.13-8.14A8.16,8.16,0,0,1,143.3,323.87Z"/><path class="cls-1" d="M78.27,310.84a4.89,4.89,0,1,0,4.89,4.89A4.89,4.89,0,0,0,78.27,310.84Z"/><rect class="cls-1" x="33.94" y="217.62" width="153.69" height="14.6" rx="2.66"/><path class="cls-1" d="M110.78,287.66a22.61,22.61,0,1,0-22.6-22.61A22.63,22.63,0,0,0,110.78,287.66ZM94.93,260.48a16,16,0,0,1,31.69,0c.14,1.17,0,4-4.55,5.12-.65.16-1.36.3-2.12.43v9a8.57,8.57,0,0,1-8.66,8.44h-1a8.56,8.56,0,0,1-8.66-8.44v-9c-.76-.13-1.48-.26-2.14-.41C94.63,264.54,94.88,260.89,94.93,260.48Z"/><path class="cls-1" d="M104.88,266.46v8.63a5.3,5.3,0,0,0,5.4,5.18h1a5.3,5.3,0,0,0,5.4-5.18v-8.63c-1.85.17-3.86.27-5.92.27S106.75,266.63,104.88,266.46Z"/><path class="cls-1" d="M100.2,262.48a51.06,51.06,0,0,0,10.57,1,47.56,47.56,0,0,0,10.52-1c2.22-.54,2.13-1.32,2.1-1.58a12.75,12.75,0,0,0-25.22,0C98.15,261,98.16,262,100.2,262.48Z"/><path class="cls-1" d="M39.53,291.84a2.38,2.38,0,0,0,2.37,2.37H179.66a2.37,2.37,0,0,0,2.37-2.37V235.47H39.53Zm71.25-52.65a25.87,25.87,0,1,1-25.86,25.86A25.9,25.9,0,0,1,110.78,239.19Z"/></g><g id="_4" data-name="4"><path class="cls-1" d="M201.79,291.84a2.37,2.37,0,0,0,2.37,2.37H341.91a2.38,2.38,0,0,0,2.38-2.37V235.47H201.79ZM273,239.19a25.87,25.87,0,1,1-25.87,25.86A25.89,25.89,0,0,1,273,239.19Z"/><path class="cls-1" d="M273,287.66a22.61,22.61,0,1,0-22.61-22.61A22.63,22.63,0,0,0,273,287.66ZM255.13,260.9a9.72,9.72,0,0,1,9.78-9.65,9.11,9.11,0,0,1,8.14,4.4,9,9,0,0,1,8.16-4.4A9.71,9.71,0,0,1,291,260.9a16.07,16.07,0,0,1-1.54,6.63c-1.87,4.27-11.56,14.39-16.35,14.39-5.1,0-14.64-10.48-16.4-14.4A16.77,16.77,0,0,1,255.13,260.9Z"/><path class="cls-1" d="M273.06,278.66c2.86,0,11.68-8.6,13.38-12.46a12.9,12.9,0,0,0,1.25-5.3,6.44,6.44,0,0,0-6.48-6.39c-3.12,0-4.74,1.24-6.7,5.1a1.63,1.63,0,0,1-1.44.9h0a1.63,1.63,0,0,1-1.45-.88c-2-3.88-3.63-5.12-6.7-5.12a6.46,6.46,0,0,0-6.53,6.39,13.47,13.47,0,0,0,1.26,5.31C261.36,270.05,270.23,278.66,273.06,278.66Z"/><rect class="cls-1" x="196.19" y="217.62" width="153.69" height="14.6" rx="2.66"/><path class="cls-1" d="M305.55,310.84a4.89,4.89,0,1,0,4.88,4.89A4.89,4.89,0,0,0,305.55,310.84Z"/><path class="cls-1" d="M240.52,310.84a4.89,4.89,0,1,0,4.89,4.89A4.89,4.89,0,0,0,240.52,310.84Z"/><path class="cls-1" d="M240.52,302a13.72,13.72,0,1,0,13.72,13.72A13.74,13.74,0,0,0,240.52,302Zm0,21.86a8.14,8.14,0,1,1,8.14-8.14A8.15,8.15,0,0,1,240.52,323.87Z"/><path class="cls-1" d="M305.55,302a13.72,13.72,0,1,0,13.72,13.72A13.73,13.73,0,0,0,305.55,302Zm0,21.86a8.14,8.14,0,1,1,8.14-8.14A8.15,8.15,0,0,1,305.55,323.87Z"/><path class="cls-1" d="M209.84,300.18a7.77,7.77,0,0,0,7.76,7.76h7.86a16.94,16.94,0,0,1,30.13,0h34.89a16.94,16.94,0,0,1,30.13,0h7.85a7.77,7.77,0,0,0,7.77-7.76v-2.71H209.84Z"/></g><g id="_3" data-name="3"><path class="cls-1" d="M402.77,302a13.72,13.72,0,1,0,13.72,13.72A13.73,13.73,0,0,0,402.77,302Zm0,21.86a8.14,8.14,0,1,1,8.15-8.14A8.15,8.15,0,0,1,402.77,323.87Z"/><path class="cls-1" d="M372.09,300.18a7.77,7.77,0,0,0,7.76,7.76h7.86a16.94,16.94,0,0,1,30.13,0h34.89a17,17,0,0,1,30.14,0h7.85a7.77,7.77,0,0,0,7.76-7.76v-2.71H372.09Z"/><path class="cls-1" d="M467.8,302a13.72,13.72,0,1,0,13.72,13.72A13.74,13.74,0,0,0,467.8,302Zm0,21.86a8.14,8.14,0,1,1,8.14-8.14A8.15,8.15,0,0,1,467.8,323.87Z"/><path class="cls-1" d="M402.77,310.84a4.89,4.89,0,1,0,4.89,4.89A4.89,4.89,0,0,0,402.77,310.84Z"/><path class="cls-1" d="M364,291.84a2.37,2.37,0,0,0,2.37,2.37H504.17a2.38,2.38,0,0,0,2.37-2.37V235.47H364Zm71.25-52.65a25.87,25.87,0,1,1-25.86,25.86A25.89,25.89,0,0,1,435.29,239.19Z"/><path class="cls-1" d="M443.62,258.31a9.63,9.63,0,0,0-5.83-2.63,1.63,1.63,0,0,1-1.41-1.61v-4.59a1.1,1.1,0,1,0-2.19,0v4.59a1.63,1.63,0,0,1-1.4,1.61,9.69,9.69,0,0,0-5.84,2.63c1,.63,3.82,1.57,8.34,1.57S442.64,258.94,443.62,258.31Z"/><path class="cls-1" d="M435.1,280.54h.37c4.77-.41,10.21-8.56,10.4-15.58a11,11,0,0,0-.56-3.9c-2.23,1.41-6.13,2.08-10,2.08s-7.8-.67-10-2.08a10.85,10.85,0,0,0-.56,3.9C424.9,272,430.34,280.13,435.1,280.54Z"/><path class="cls-1" d="M435.29,287.66a22.61,22.61,0,1,0-22.61-22.61A22.63,22.63,0,0,0,435.29,287.66Zm-4.36-35v-3.23a4.36,4.36,0,1,1,8.71,0v3.23c6.22,1.37,9.66,5.8,9.48,12.34-.21,7.85-6.28,17.91-13.14,18.71a1.65,1.65,0,0,1-.32,0h-.73l-.25,0c-6.89-.72-13-10.84-13.23-18.72C421.28,258.51,424.71,254.08,430.93,252.71Z"/><path class="cls-1" d="M467.8,310.84a4.89,4.89,0,1,0,4.88,4.89A4.9,4.9,0,0,0,467.8,310.84Z"/><rect class="cls-1" x="358.44" y="217.62" width="153.69" height="14.6" rx="2.66"/></g><g id="_2" data-name="2"><rect class="cls-1" x="520.7" y="217.62" width="153.69" height="14.6" rx="2.66"/><path class="cls-1" d="M630.05,302a13.72,13.72,0,1,0,13.72,13.72A13.74,13.74,0,0,0,630.05,302Zm0,21.86a8.14,8.14,0,1,1,8.14-8.14A8.15,8.15,0,0,1,630.05,323.87Z"/><path class="cls-1" d="M565,302a13.72,13.72,0,1,0,13.71,13.72A13.73,13.73,0,0,0,565,302Zm0,21.86a8.14,8.14,0,1,1,8.15-8.14A8.15,8.15,0,0,1,565,323.87Z"/><path class="cls-1" d="M565,310.84a4.89,4.89,0,1,0,4.89,4.89A4.89,4.89,0,0,0,565,310.84Z"/><path class="cls-1" d="M630.05,310.84a4.89,4.89,0,1,0,4.89,4.89A4.89,4.89,0,0,0,630.05,310.84Z"/><path class="cls-1" d="M534.35,300.18a7.77,7.77,0,0,0,7.76,7.76H550a16.94,16.94,0,0,1,30.13,0H615a16.94,16.94,0,0,1,30.13,0H653a7.77,7.77,0,0,0,7.76-7.76v-2.71H534.35Z"/><path class="cls-1" d="M597.54,268a3.41,3.41,0,1,0-3.4-3.41A3.41,3.41,0,0,0,597.54,268Z"/><path class="cls-1" d="M597.54,287.66a22.61,22.61,0,1,0-22.6-22.61A22.63,22.63,0,0,0,597.54,287.66ZM580,259.17a7.94,7.94,0,0,1,7.56-5.5,7.7,7.7,0,0,1,2,.27,7.91,7.91,0,0,1,7.9-7.48,8,8,0,0,1,8,7.48,8,8,0,0,1,2-.26,7.95,7.95,0,0,1,2.9,15.35,8,8,0,0,1-12.85,9.32A7.94,7.94,0,0,1,584.71,269a8,8,0,0,1-4.69-9.85Z"/><path class="cls-1" d="M586.14,266.07a4.63,4.63,0,0,0,1.83.22,1.64,1.64,0,0,1,1.69,1.12,1.62,1.62,0,0,1-.7,1.89,4.77,4.77,0,0,0-2.2,4.76,4.6,4.6,0,0,0,1.87,3.05,4.68,4.68,0,0,0,6.55-1,4.47,4.47,0,0,0,.78-1.67,1.63,1.63,0,0,1,1.57-1.27h0a1.65,1.65,0,0,1,1.59,1.25,4.7,4.7,0,0,0,7.34,2.73,4.73,4.73,0,0,0,1-6.56,4.6,4.6,0,0,0-1.35-1.23,1.63,1.63,0,0,1,1-3,4.85,4.85,0,0,0,1.87-.22,4.69,4.69,0,0,0-1.48-9.14,4.78,4.78,0,0,0-1.45.23,5,5,0,0,0-1.62.92,1.63,1.63,0,0,1-2.55-1.89,4.63,4.63,0,0,0,.37-1.8,4.71,4.71,0,0,0-8-3.31,4.61,4.61,0,0,0-1.35,3.28,4.48,4.48,0,0,0,.36,1.84,1.63,1.63,0,0,1-2.57,1.85,4.83,4.83,0,0,0-1.62-.9,4.78,4.78,0,0,0-1.45-.23,4.67,4.67,0,0,0-4.46,3.24,4.58,4.58,0,0,0,.29,3.57A4.63,4.63,0,0,0,586.14,266.07Zm11.4-8.18a6.67,6.67,0,1,1-6.66,6.66A6.66,6.66,0,0,1,597.54,257.89Z"/><path class="cls-1" d="M526.29,291.84a2.37,2.37,0,0,0,2.37,2.37H666.42a2.37,2.37,0,0,0,2.37-2.37V235.47H526.29Zm71.25-52.65a25.87,25.87,0,1,1-25.86,25.86A25.89,25.89,0,0,1,597.54,239.19Z"/></g><g id="_1" data-name="1"><path class="cls-1" d="M740.85,219.67H731.3v34.19h9.55a1.8,1.8,0,0,0,1.76-1.82V221.5A1.8,1.8,0,0,0,740.85,219.67Z"/><path class="cls-1" d="M806.27,282.17H700.13a3.73,3.73,0,0,0-3.72,3.72v1.73a3.73,3.73,0,0,0,3.72,3.72H806.27Z"/><path class="cls-1" d="M776.69,302a13.72,13.72,0,1,0,13.72,13.72A13.74,13.74,0,0,0,776.69,302Zm0,21.86a8.14,8.14,0,1,1,8.14-8.14A8.15,8.15,0,0,1,776.69,323.87Z"/><path class="cls-1" d="M776.69,310.84a4.89,4.89,0,1,0,4.89,4.89A4.89,4.89,0,0,0,776.69,310.84Z"/><path class="cls-1" d="M709.49,294.6a18.73,18.73,0,1,0,34.65,0h-10a10.18,10.18,0,1,1-14.54,0Z"/><circle class="cls-1" cx="726.82" cy="301.7" r="6.92"/><path class="cls-1" d="M819.51,226.57a20.62,20.62,0,0,0,9.38-12.86H789.12a20.57,20.57,0,0,0,9.37,12.86Z"/><rect class="cls-1" x="799.92" y="229.83" width="18.17" height="11.64"/><path class="cls-1" d="M768.22,278.92h38V278a6.48,6.48,0,0,1,6.47-6.48H830V244.72H768.22Z"/><path class="cls-1" d="M778.51,198.55v-10a6.84,6.84,0,0,0-6.81-6.84H681.94a6.83,6.83,0,0,0-6.81,6.84v10a1.82,1.82,0,0,0,1.81,1.82h99.75A1.83,1.83,0,0,0,778.51,198.55Z"/><path class="cls-1" d="M742.19,213.29H711.44a6.69,6.69,0,0,0-6.6,6.76v33.44a6.7,6.7,0,0,0,6.6,6.77h30.75a6.7,6.7,0,0,0,6.61-6.77V220.05A6.7,6.7,0,0,0,742.19,213.29ZM745.87,252a5.06,5.06,0,0,1-5,5.08H712.78a5.06,5.06,0,0,1-5-5.08V221.5a5.06,5.06,0,0,1,5-5.08h28.07a5.06,5.06,0,0,1,5,5.08Z"/><path class="cls-1" d="M711,221.5V252a1.8,1.8,0,0,0,1.76,1.82h9.56V219.67h-9.56A1.8,1.8,0,0,0,711,221.5Z"/><path class="cls-1" d="M696.87,293.78a7,7,0,0,1-3.72-6.16v-1.73a5.25,5.25,0,0,1,0-.56h-5.25a5.29,5.29,0,0,0-5.29,5.29v17.94a5.3,5.3,0,0,0,5.29,5.3h10.38a30.72,30.72,0,0,1-1.44-20.08Z"/><path class="cls-1" d="M711,278.92h31.63a27.74,27.74,0,0,0-31.63,0Z"/><rect class="cls-1" x="725.59" y="219.67" width="2.45" height="34.19"/><path class="cls-1" d="M747.62,294.6a22,22,0,1,1-41.61,0h-6a27.74,27.74,0,1,0,53.6,0Z"/><path class="cls-1" d="M787.45,206.31h43.12a.88.88,0,0,1,.88.88v2.39a.88.88,0,0,1-.88.88H787.44a.87.87,0,0,1-.87-.87v-2.39A.88.88,0,0,1,787.45,206.31Z"/><path class="cls-1" d="M815.64,310.84a4.89,4.89,0,1,0,4.88,4.89A4.9,4.9,0,0,0,815.64,310.84Z"/><path class="cls-1" d="M845.31,285.33V295.5a6.48,6.48,0,0,1-6.48,6.48H825.56a17,17,0,0,1,7,11.88h14.74c5.71,0,12.4-.29,13.57-2.53,1.6-3-4.69-12.17-14.23-26Z"/><path class="cls-1" d="M815.64,302a13.72,13.72,0,1,0,13.72,13.72A13.74,13.74,0,0,0,815.64,302Zm0,21.86a8.14,8.14,0,1,1,8.14-8.14A8.15,8.15,0,0,1,815.64,323.87Z"/><path class="cls-1" d="M842,272.39V251.77a7.06,7.06,0,0,0-7-7.05h-1.7v26.81h5.54A6.47,6.47,0,0,1,842,272.39Z"/><path class="cls-1" d="M765,278.92v-75.3H688.67v78.45h5.5l.12,0a7,7,0,0,1,5.84-3.17h5.68a31,31,0,0,1,42,0Zm-53.52-15.4a10,10,0,0,1-9.86-10V220.05a10,10,0,0,1,9.86-10h30.75a10,10,0,0,1,9.86,10v33.44a10,10,0,0,1-9.86,10Z"/><path class="cls-1" d="M808.47,300.36a6.45,6.45,0,0,1-2.2-4.86v-.9H757a31,31,0,0,1-1.65,19.26h4.5a17,17,0,0,1,33.73,0h5.22A17,17,0,0,1,808.47,300.36Z"/><path class="cls-1" d="M846.64,282.07c2.56-3.37,4-8.27,4-13.56,0-6.26-2.12-12-5.37-15.12v28.68Z"/><path class="cls-1" d="M838.83,274.78H812.74a3.23,3.23,0,0,0-3.22,3.23V295.5a3.22,3.22,0,0,0,3.22,3.22h26.09a3.22,3.22,0,0,0,3.22-3.22V288s0-.05,0-.08v-9.94A3.23,3.23,0,0,0,838.83,274.78Z"/></g></g><g id="line"><path class="cls-2" d="M853.93,268.51c0-8.7-3.59-16.38-9-19.42a10.32,10.32,0,0,0-9.94-7.62H821.35v-12.2a23.9,23.9,0,0,0,10.94-15.94,4.13,4.13,0,0,0,2.41-3.74v-2.39a4.14,4.14,0,0,0-4.14-4.14H787.44a4.13,4.13,0,0,0-4.13,4.14v2.39a4.13,4.13,0,0,0,2.41,3.74,23.81,23.81,0,0,0,10.94,15.94v12.2H768.22V203.62h8.47a5.08,5.08,0,0,0,5.07-5.07v-10a10.09,10.09,0,0,0-10.06-10.1H681.94a10.1,10.1,0,0,0-10.07,10.1v10a5.08,5.08,0,0,0,5.07,5.07h8.48v78.83a8.58,8.58,0,0,0-5.45,5.07h-7.92V235.46a5.92,5.92,0,0,0,5.59-5.9v-9.28a5.92,5.92,0,0,0-5.91-5.92H523.36a5.93,5.93,0,0,0-5.92,5.92v9.28a5.92,5.92,0,0,0,5.59,5.9v52.06H509.79V235.46a5.93,5.93,0,0,0,5.6-5.9v-9.28a5.93,5.93,0,0,0-5.92-5.92H361.1a5.92,5.92,0,0,0-5.91,5.92v9.28a5.92,5.92,0,0,0,5.59,5.9v52.06H347.54V235.46a5.93,5.93,0,0,0,5.6-5.9v-9.28a5.93,5.93,0,0,0-5.92-5.92H198.85a5.92,5.92,0,0,0-5.91,5.92v9.28a5.92,5.92,0,0,0,5.59,5.9v52.06H185.29V235.46a5.92,5.92,0,0,0,5.59-5.9v-9.28a5.92,5.92,0,0,0-5.91-5.92H36.6a5.93,5.93,0,0,0-5.92,5.92v9.28a5.92,5.92,0,0,0,5.6,5.9v56.38a5.63,5.63,0,0,0,5.62,5.63h2.43v2.71a11,11,0,0,0,11,11h6.58a17,17,0,1,0,32.68,0H127a17,17,0,1,0,32.69,0h6.57a11,11,0,0,0,11-11v-2.71h29.36v2.71a11,11,0,0,0,11,11h6.58a17,17,0,1,0,32.68,0h32.35a16.53,16.53,0,0,0-.64,4.53,17,17,0,1,0,33.32-4.53h6.57a11,11,0,0,0,11-11v-2.71h29.35v2.71a11,11,0,0,0,11,11h6.58a17,17,0,1,0,33.32,4.53,16.53,16.53,0,0,0-.64-4.53h32.35a17,17,0,1,0,32.68,0h6.58a11,11,0,0,0,11-11v-2.71h29.35v2.71a11,11,0,0,0,11,11h6.58a16.53,16.53,0,0,0-.64,4.53,17,17,0,1,0,33.32-4.53h32.34a17,17,0,1,0,32.69,0H653a11,11,0,0,0,11-11v-2.71h15.39v11.09a8.56,8.56,0,0,0,8.55,8.55h12a31,31,0,0,0,53.75,0h6.1a17,17,0,0,0,33.81,0h5.14a17,17,0,0,0,33.81,0h14.7c9,0,14.58-.7,16.46-4.26,2.49-4.76-2.75-12.43-14.26-29.11A26.25,26.25,0,0,0,853.93,268.51ZM520.7,229.56v-9.28a2.66,2.66,0,0,1,2.66-2.66H671.73a2.66,2.66,0,0,1,2.65,2.66v9.28a2.66,2.66,0,0,1-2.65,2.66H523.36A2.66,2.66,0,0,1,520.7,229.56Zm-162.26,0v-9.28a2.67,2.67,0,0,1,2.66-2.66H509.47a2.66,2.66,0,0,1,2.66,2.66v9.28a2.66,2.66,0,0,1-2.66,2.66H361.1A2.67,2.67,0,0,1,358.44,229.56Zm-162.25,0v-9.28a2.67,2.67,0,0,1,2.66-2.66H347.22a2.66,2.66,0,0,1,2.66,2.66v9.28a2.66,2.66,0,0,1-2.66,2.66H198.85A2.67,2.67,0,0,1,196.19,229.56ZM36.6,232.22a2.66,2.66,0,0,1-2.66-2.66v-9.28a2.66,2.66,0,0,1,2.66-2.66H185a2.66,2.66,0,0,1,2.66,2.66v9.28a2.66,2.66,0,0,1-2.66,2.66Zm41.67,97.22A13.72,13.72,0,1,1,92,315.73,13.73,13.73,0,0,1,78.27,329.44Zm65,0A13.72,13.72,0,1,1,157,315.73,13.73,13.73,0,0,1,143.3,329.44ZM174,300.18a7.78,7.78,0,0,1-7.77,7.76h-7.85a16.94,16.94,0,0,0-30.13,0H93.33a16.94,16.94,0,0,0-30.13,0H55.35a7.77,7.77,0,0,1-7.76-7.76v-2.71H174Zm8.05-8.34a2.37,2.37,0,0,1-2.37,2.37H41.9a2.38,2.38,0,0,1-2.37-2.37V235.47H182Zm2.73,2.37a5.52,5.52,0,0,0,.53-2.37v-1.07h13.24v1.07a5.52,5.52,0,0,0,.53,2.37Zm55.76,35.23a13.72,13.72,0,1,1,13.72-13.71A13.73,13.73,0,0,1,240.52,329.44Zm65,0a13.72,13.72,0,1,1,13.72-13.71A13.73,13.73,0,0,1,305.55,329.44Zm30.68-29.26a7.77,7.77,0,0,1-7.77,7.76h-7.85a16.94,16.94,0,0,0-30.13,0H255.59a16.94,16.94,0,0,0-30.13,0H217.6a7.77,7.77,0,0,1-7.76-7.76v-2.71H336.23Zm8.06-8.34a2.38,2.38,0,0,1-2.38,2.37H204.16a2.37,2.37,0,0,1-2.37-2.37V235.47h142.5Zm2.72,2.37a5.52,5.52,0,0,0,.53-2.37v-1.07h13.24v1.07a5.52,5.52,0,0,0,.53,2.37Zm55.76,35.23a13.72,13.72,0,1,1,13.72-13.71A13.73,13.73,0,0,1,402.77,329.44Zm65,0a13.72,13.72,0,1,1,13.72-13.71A13.73,13.73,0,0,1,467.8,329.44Zm30.68-29.26a7.77,7.77,0,0,1-7.76,7.76h-7.85a17,17,0,0,0-30.14,0H417.84a16.94,16.94,0,0,0-30.13,0h-7.86a7.77,7.77,0,0,1-7.76-7.76v-2.71H498.48Zm8.06-8.34a2.38,2.38,0,0,1-2.37,2.37H366.41a2.37,2.37,0,0,1-2.37-2.37V235.47h142.5Zm2.72,2.37a5.52,5.52,0,0,0,.53-2.37v-1.07H523v1.07a5.53,5.53,0,0,0,.54,2.37ZM565,329.44a13.72,13.72,0,1,1,13.71-13.71A13.73,13.73,0,0,1,565,329.44Zm65,0a13.72,13.72,0,1,1,13.72-13.71A13.73,13.73,0,0,1,630.05,329.44Zm30.68-29.26a7.77,7.77,0,0,1-7.76,7.76h-7.85a16.94,16.94,0,0,0-30.13,0h-34.9a16.94,16.94,0,0,0-30.13,0h-7.85a7.77,7.77,0,0,1-7.76-7.76v-2.71H660.73Zm8.06-8.34a2.37,2.37,0,0,1-2.37,2.37H528.66a2.37,2.37,0,0,1-2.37-2.37V235.47h142.5Zm10.59,2.37h-7.86a5.67,5.67,0,0,0,.53-2.37v-1.07h7.33Zm171.29-25.7c0,5.29-1.47,10.19-4,13.56h-1.33V253.39C848.55,256.51,850.67,262.25,850.67,268.51ZM842.05,288v7.55a3.22,3.22,0,0,1-3.22,3.22H812.74a3.22,3.22,0,0,1-3.22-3.22V278a3.23,3.23,0,0,1,3.22-3.23h26.09a3.23,3.23,0,0,1,3.21,3.15v9.94S842.05,287.92,842.05,288Zm-8.76-43.23H835a7.06,7.06,0,0,1,7,7.05v20.62a6.47,6.47,0,0,0-3.21-.86h-5.54Zm-46.72-35.14v-2.39a.87.87,0,0,1,.87-.88h43.12a.87.87,0,0,1,.88.88v2.39a.87.87,0,0,1-.88.87H787.44A.87.87,0,0,1,786.57,209.58Zm2.55,4.13h39.77a20.62,20.62,0,0,1-9.38,12.86h-21A20.57,20.57,0,0,1,789.12,213.71Zm29,16.12v11.63H799.92V229.83ZM830,244.72v26.81H812.74a6.48,6.48,0,0,0-6.47,6.48v.91h-38v-34.2ZM726.82,311.88a10.16,10.16,0,0,0,7.27-17.28h10a18.51,18.51,0,0,1,1.4,7.11,18.72,18.72,0,1,1-36-7.11h10.06a10.16,10.16,0,0,0,7.27,17.28ZM719.9,301.7a6.92,6.92,0,1,1,6.92,6.92A6.93,6.93,0,0,1,719.9,301.7Zm-19.77-10.36a3.73,3.73,0,0,1-3.72-3.72v-1.73a3.73,3.73,0,0,1,3.72-3.72H806.27v9.17Zm26.69-20.63a30.9,30.9,0,0,0-21,8.21h-5.68a7,7,0,0,0-5.84,3.17l-.12,0h-5.5V203.62H765v75.3H747.82A30.88,30.88,0,0,0,726.82,270.71Zm15.81,8.21H711a27.74,27.74,0,0,1,31.63,0Zm-65.69-78.55a1.82,1.82,0,0,1-1.81-1.82v-10a6.83,6.83,0,0,1,6.81-6.84H771.7a6.84,6.84,0,0,1,6.81,6.84v10a1.83,1.83,0,0,1-1.82,1.82Zm11,113.49a5.3,5.3,0,0,1-5.29-5.3V290.62a5.29,5.29,0,0,1,5.29-5.29h5.25a5.25,5.25,0,0,0,0,.56v1.73a7,7,0,0,0,3.72,6.16,30.72,30.72,0,0,0,1.44,20.08Zm38.89,15.58A27.7,27.7,0,0,1,700,294.59h6a21.77,21.77,0,0,0-1.17,7.11,22,22,0,1,0,42.78-7.11h6a27.69,27.69,0,0,1-26.8,34.84Zm49.87,0a13.72,13.72,0,1,1,13.72-13.71A13.73,13.73,0,0,1,776.69,329.44Zm16.87-15.58a17,17,0,0,0-33.73,0h-4.5A31,31,0,0,0,757,294.6h49.29v.9a6.45,6.45,0,0,0,2.2,4.86,17,17,0,0,0-9.69,13.5Zm22.08,15.58a13.72,13.72,0,1,1,13.72-13.71A13.73,13.73,0,0,1,815.64,329.44Zm45.18-18.11c-1.17,2.24-7.86,2.53-13.57,2.53H832.51a17,17,0,0,0-7-11.88h13.27a6.48,6.48,0,0,0,6.48-6.48V285.33h1.28C856.13,299.16,862.42,308.29,860.82,311.33Z"/><path class="cls-2" d="M740.85,216.42H712.78a5.06,5.06,0,0,0-5,5.08V252a5.06,5.06,0,0,0,5,5.08h28.07a5.06,5.06,0,0,0,5-5.08V221.5A5.06,5.06,0,0,0,740.85,216.42Zm-18.51,37.44h-9.56A1.8,1.8,0,0,1,711,252V221.5a1.8,1.8,0,0,1,1.76-1.83h9.56Zm5.7,0h-2.45V219.67H728ZM742.61,252a1.8,1.8,0,0,1-1.76,1.82H731.3V219.67h9.55a1.8,1.8,0,0,1,1.76,1.83Z"/><path class="cls-2" d="M752.05,253.49V220.05a10,10,0,0,0-9.86-10H711.44a10,10,0,0,0-9.86,10v33.44a10,10,0,0,0,9.86,10h30.75A10,10,0,0,0,752.05,253.49Zm-3.25,0a6.7,6.7,0,0,1-6.61,6.77H711.44a6.7,6.7,0,0,1-6.6-6.77V220.05a6.69,6.69,0,0,1,6.6-6.76h30.75a6.7,6.7,0,0,1,6.61,6.76Z"/><path class="cls-2" d="M815.64,307.59a8.14,8.14,0,1,0,8.14,8.14A8.15,8.15,0,0,0,815.64,307.59Zm0,13a4.89,4.89,0,1,1,4.88-4.88A4.9,4.9,0,0,1,815.64,320.61Z"/><path class="cls-2" d="M776.69,307.59a8.14,8.14,0,1,0,8.14,8.14A8.15,8.15,0,0,0,776.69,307.59Zm0,13a4.89,4.89,0,1,1,4.89-4.88A4.89,4.89,0,0,1,776.69,320.61Z"/><path class="cls-2" d="M630.05,307.59a8.14,8.14,0,1,0,8.14,8.14A8.15,8.15,0,0,0,630.05,307.59Zm0,13a4.89,4.89,0,1,1,4.89-4.88A4.89,4.89,0,0,1,630.05,320.61Z"/><path class="cls-2" d="M565,307.59a8.14,8.14,0,1,0,8.15,8.14A8.15,8.15,0,0,0,565,307.59Zm0,13a4.89,4.89,0,1,1,4.89-4.88A4.89,4.89,0,0,1,565,320.61Z"/><path class="cls-2" d="M597.54,290.92a25.87,25.87,0,1,0-25.86-25.87A25.9,25.9,0,0,0,597.54,290.92Zm0-48.47a22.61,22.61,0,1,1-22.6,22.6A22.63,22.63,0,0,1,597.54,242.45Z"/><path class="cls-2" d="M584.71,269a7.94,7.94,0,0,0,12.83,9.33A7.95,7.95,0,0,0,610.39,269a7.95,7.95,0,0,0-2.9-15.35,8,8,0,0,0-2,.26,8,8,0,0,0-8-7.48,7.91,7.91,0,0,0-7.9,7.48,7.7,7.7,0,0,0-2-.27,7.94,7.94,0,0,0-7.56,5.5,8,8,0,0,0,4.69,9.85Zm-1.59-8.85a4.67,4.67,0,0,1,4.46-3.24,4.78,4.78,0,0,1,1.45.23,4.83,4.83,0,0,1,1.62.9,1.63,1.63,0,0,0,2.57-1.85,4.48,4.48,0,0,1-.36-1.84,4.61,4.61,0,0,1,1.35-3.28,4.69,4.69,0,0,1,7.66,5.11,1.63,1.63,0,0,0,2.55,1.89,5,5,0,0,1,1.62-.92,4.78,4.78,0,0,1,1.45-.23,4.69,4.69,0,0,1,1.48,9.14,4.85,4.85,0,0,1-1.87.22,1.63,1.63,0,0,0-1,3,4.6,4.6,0,0,1,1.35,1.23,4.7,4.7,0,1,1-7.6,5.52,4.66,4.66,0,0,1-.77-1.69,1.65,1.65,0,0,0-1.59-1.25h0a1.63,1.63,0,0,0-1.57,1.27,4.47,4.47,0,0,1-.78,1.67,4.68,4.68,0,0,1-6.55,1,4.67,4.67,0,0,1-1-6.55A4.65,4.65,0,0,1,589,269.3a1.62,1.62,0,0,0,.7-1.89,1.64,1.64,0,0,0-1.69-1.12,4.72,4.72,0,0,1-4.56-2.55A4.58,4.58,0,0,1,583.12,260.17Z"/><path class="cls-2" d="M597.54,271.22a6.67,6.67,0,1,0-6.66-6.67A6.67,6.67,0,0,0,597.54,271.22Zm0-10.07a3.41,3.41,0,1,1-3.4,3.4A3.41,3.41,0,0,1,597.54,261.15Z"/><path class="cls-2" d="M467.8,307.59a8.14,8.14,0,1,0,8.14,8.14A8.15,8.15,0,0,0,467.8,307.59Zm0,13a4.89,4.89,0,1,1,4.88-4.88A4.9,4.9,0,0,1,467.8,320.61Z"/><path class="cls-2" d="M402.77,307.59a8.14,8.14,0,1,0,8.15,8.14A8.15,8.15,0,0,0,402.77,307.59Zm0,13a4.89,4.89,0,1,1,4.89-4.88A4.89,4.89,0,0,1,402.77,320.61Z"/><path class="cls-2" d="M435.29,290.92a25.87,25.87,0,1,0-25.86-25.87A25.9,25.9,0,0,0,435.29,290.92Zm0-48.47a22.61,22.61,0,1,1-22.61,22.6A22.63,22.63,0,0,1,435.29,242.45Z"/><path class="cls-2" d="M434.68,283.77l.25,0h.73a1.65,1.65,0,0,0,.32,0c6.86-.8,12.93-10.86,13.14-18.71.18-6.54-3.26-11-9.48-12.34v-3.23a4.36,4.36,0,1,0-8.71,0v3.23c-6.22,1.37-9.65,5.8-9.48,12.34C421.67,272.93,427.79,283.05,434.68,283.77Zm-1.89-28.09a1.63,1.63,0,0,0,1.4-1.61v-4.59a1.1,1.1,0,1,1,2.19,0v4.59a1.63,1.63,0,0,0,1.41,1.61,9.63,9.63,0,0,1,5.83,2.63c-1,.63-3.81,1.57-8.33,1.57s-7.35-.94-8.34-1.57A9.69,9.69,0,0,1,432.79,255.68Zm-7.52,5.38c2.22,1.41,6.13,2.08,10,2.08s7.79-.67,10-2.08a11,11,0,0,1,.56,3.9c-.19,7-5.63,15.17-10.4,15.58h-.37c-4.76-.41-10.2-8.56-10.39-15.58A10.85,10.85,0,0,1,425.27,261.06Z"/><path class="cls-2" d="M305.55,307.59a8.14,8.14,0,1,0,8.14,8.14A8.15,8.15,0,0,0,305.55,307.59Zm0,13a4.89,4.89,0,1,1,4.88-4.88A4.89,4.89,0,0,1,305.55,320.61Z"/><path class="cls-2" d="M240.52,307.59a8.14,8.14,0,1,0,8.14,8.14A8.15,8.15,0,0,0,240.52,307.59Zm0,13a4.89,4.89,0,1,1,4.89-4.88A4.89,4.89,0,0,1,240.52,320.61Z"/><path class="cls-2" d="M273,290.92a25.87,25.87,0,1,0-25.87-25.87A25.9,25.9,0,0,0,273,290.92Zm0-48.47a22.61,22.61,0,1,1-22.61,22.6A22.63,22.63,0,0,1,273,242.45Z"/><path class="cls-2" d="M273.06,281.92c4.79,0,14.48-10.12,16.35-14.39A16.07,16.07,0,0,0,291,260.9a9.71,9.71,0,0,0-9.74-9.65,9,9,0,0,0-8.16,4.4,9.11,9.11,0,0,0-8.14-4.4,9.72,9.72,0,0,0-9.78,9.65,16.77,16.77,0,0,0,1.53,6.62C258.42,271.44,268,281.92,273.06,281.92Zm-14.68-21a6.46,6.46,0,0,1,6.53-6.39c3.07,0,4.7,1.24,6.7,5.12a1.63,1.63,0,0,0,1.45.88h0a1.63,1.63,0,0,0,1.44-.9c2-3.86,3.58-5.1,6.7-5.1a6.44,6.44,0,0,1,6.48,6.39,12.9,12.9,0,0,1-1.25,5.3c-1.7,3.86-10.52,12.46-13.38,12.46s-11.7-8.61-13.42-12.45A13.47,13.47,0,0,1,258.38,260.9Z"/><path class="cls-2" d="M143.3,307.59a8.14,8.14,0,1,0,8.13,8.14A8.16,8.16,0,0,0,143.3,307.59Zm0,13a4.89,4.89,0,1,1,4.88-4.88A4.89,4.89,0,0,1,143.3,320.61Z"/><path class="cls-2" d="M78.27,307.59a8.14,8.14,0,1,0,8.14,8.14A8.15,8.15,0,0,0,78.27,307.59Zm0,13a4.89,4.89,0,1,1,4.89-4.88A4.89,4.89,0,0,1,78.27,320.61Z"/><path class="cls-2" d="M110.78,290.92a25.87,25.87,0,1,0-25.86-25.87A25.91,25.91,0,0,0,110.78,290.92Zm0-48.47a22.61,22.61,0,1,1-22.6,22.6A22.63,22.63,0,0,1,110.78,242.45Z"/><path class="cls-2" d="M99.48,265.65c.66.15,1.38.28,2.14.41v9a8.56,8.56,0,0,0,8.66,8.44h1a8.57,8.57,0,0,0,8.66-8.44v-9c.76-.13,1.47-.27,2.12-.43,4.53-1.11,4.69-3.95,4.55-5.12a16,16,0,0,0-31.69,0C94.88,260.89,94.63,264.54,99.48,265.65Zm17.21,9.44a5.3,5.3,0,0,1-5.4,5.18h-1a5.3,5.3,0,0,1-5.4-5.18v-8.63c1.87.17,3.88.27,5.89.27s4.07-.1,5.92-.27ZM98.17,260.84a12.75,12.75,0,0,1,25.22,0c0,.26.12,1-2.1,1.58a47.56,47.56,0,0,1-10.52,1,51.06,51.06,0,0,1-10.57-1C98.16,262,98.15,261,98.17,260.84Z"/></g></g></svg>