<svg id="Layer_1" data-name="Layer 1" xmlns="http://www.w3.org/2000/svg" viewBox="0 0 895 511.11"><defs><style>.cls-1,.cls-2{fill:#fff;}.cls-1,.cls-3,.cls-4{stroke:#000;}.cls-1,.cls-3{stroke-miterlimit:10;stroke-width:5px;}.cls-3,.cls-4{fill:none;}.cls-4{stroke-miterlimit:10.01;stroke-width:5.01px;}</style></defs><g id="Layer_10" data-name="Layer 10"><path class="cls-1" d="M455.92,469.8l-7.87-13a2.33,2.33,0,0,0-1-.89,2.21,2.21,0,0,0-1.85-.88,2.35,2.35,0,0,0-2.29,2.41h0v.14l-7.4,12.26a2.4,2.4,0,0,0,.77,3.26,2.3,2.3,0,0,0,3.18-.74l0,0,3.57-5.92.1,6.33a2.37,2.37,0,0,0,2.34,2.33h0a2.35,2.35,0,0,0,2.29-2.41l-.12-7.3,4.2,7a2.31,2.31,0,0,0,3.17.81l0,0a2.39,2.39,0,0,0,.87-3.28Z"/><path class="cls-2" d="M449.1,140.51a3.38,3.38,0,0,1-.45,0,3.56,3.56,0,0,1-3.08-4v0h0c0-.29,3.43-29.23-13.06-48.19a3.56,3.56,0,0,1,5.37-4.67c18.61,21.4,14.91,52.45,14.74,53.76A3.57,3.57,0,0,1,449.1,140.51Z"/><path class="cls-3" d="M449.1,140.51a3.38,3.38,0,0,1-.45,0,3.56,3.56,0,0,1-3.08-4v0h0c0-.29,3.43-29.23-13.06-48.19a3.56,3.56,0,0,1,5.37-4.67c18.61,21.4,14.91,52.45,14.74,53.76A3.57,3.57,0,0,1,449.1,140.51Z"/><ellipse class="cls-2" cx="481.94" cy="76.31" rx="51.26" ry="26.41" transform="translate(115.2 398.16) rotate(-50.27)"/><ellipse class="cls-4" cx="481.94" cy="76.31" rx="51.26" ry="26.41" transform="translate(115.2 398.16) rotate(-50.27)"/><path class="cls-2" d="M550.12,272.18a58.64,58.64,0,0,1-14.19-38.39v-.26c0-59.39-39.59-107.54-88.43-107.54s-88.43,48.15-88.43,107.54v.26a58.68,58.68,0,0,1-14.2,38.4c-19.06,22.24-27.2,59.18-18.83,98.71,12.56,59.37,57.34,100.43,100.55,95.42,6.52-.75,12-.79,17.31-2.79a10.23,10.23,0,0,1,7.19,0c5.35,2,11.73,2.53,17.32,2.79,43.45,2.08,88-36.05,100.55-95.42C577.33,331.37,569.19,294.42,550.12,272.18Z"/><path class="cls-3" d="M550.12,272.18a58.64,58.64,0,0,1-14.19-38.39v-.26c0-59.39-39.59-107.54-88.43-107.54s-88.43,48.15-88.43,107.54v.26a58.68,58.68,0,0,1-14.2,38.4c-19.06,22.24-27.2,59.18-18.83,98.71,12.56,59.37,57.34,100.43,100.55,95.42,6.52-.75,12-.79,17.31-2.79a10.23,10.23,0,0,1,7.19,0c5.35,2,11.73,2.53,17.32,2.79,43.45,2.08,88-36.05,100.55-95.42C577.33,331.37,569.19,294.42,550.12,272.18Z"/></g></svg>