<svg id="Layer_17" data-name="Layer 17" xmlns="http://www.w3.org/2000/svg" viewBox="0 0 895 511.11"><defs><style>.cls-1{fill:#fff;}.cls-2{fill:none;stroke:#1d1d1b;stroke-miterlimit:10;stroke-width:5px;}</style></defs><path class="cls-1" d="M346.14,153.17s14.36-25.23,45.39-30.1,93.73-3.77,93,8.39S459.66,191,459.66,191Z"/><path class="cls-2" d="M346.14,153.17s14.36-25.23,45.39-30.1,93.73-3.77,93,8.39S459.66,191,459.66,191Z"/><path class="cls-1" d="M460.88,143.26s44.72-32.8,80.93-15.76,36.26,47.84,36.26,47.84S494.55,228.49,460.88,143.26Z"/><path class="cls-2" d="M460.88,143.26s44.72-32.8,80.93-15.76,36.26,47.84,36.26,47.84S494.55,228.49,460.88,143.26Z"/><path class="cls-1" d="M434.65,189.29s-25.37-73.14-108.24-31.38C295.68,173.4,304,217.26,304,217.26s3.71,226.56,66.26,221.4,63.75-21.11,80.57-48.24S434.65,189.29,434.65,189.29Z"/><path class="cls-2" d="M434.65,189.29s-25.37-73.14-108.24-31.38C295.68,173.4,304,217.26,304,217.26s3.71,226.56,66.26,221.4,63.75-21.11,80.57-48.24S434.65,189.29,434.65,189.29Z"/><path class="cls-1" d="M382.75,171.93s10.59-18.44,43.92-26.86S427.79,87,414.3,76.77s15.79-26.53,19.18-21,22,28.76,28,53.53,25.38,46.56,41.86,41.5S472.48,216,382.75,171.93Z"/><path class="cls-2" d="M382.75,171.93s10.59-18.44,43.92-26.86S427.79,87,414.3,76.77s15.79-26.53,19.18-21,22,28.76,28,53.53,25.38,46.56,41.86,41.5S472.48,216,382.75,171.93Z"/><path class="cls-1" d="M465.33,395.75c-3.58,33.73,44.39,52.56,72.08,48.62S583.53,365.14,590.72,304s10.15-127.29-40-153.27c-25.59-13.27-48.84,1.05-66.31,9.11a105,105,0,0,0-31.73,22.87Z"/><path class="cls-2" d="M465.33,395.75c-3.58,33.73,44.39,52.56,72.08,48.62S583.53,365.14,590.72,304s10.15-127.29-40-153.27c-25.59-13.27-48.84,1.05-66.31,9.11a105,105,0,0,0-31.73,22.87Z"/><path class="cls-1" d="M366.83,169.47s70.93,8.66,113.67-11.39c26.56-12.46,77.75,50.66,42.17,173.06S478.28,443.23,448,444.77s-76.63-53.54-93-100.95-5.14-62.55-22.25-94.27S337.67,172.78,366.83,169.47Z"/><path class="cls-2" d="M366.83,169.47s70.93,8.66,113.67-11.39c26.56-12.46,77.75,50.66,42.17,173.06S478.28,443.23,448,444.77s-76.63-53.54-93-100.95-5.14-62.55-22.25-94.27S337.67,172.78,366.83,169.47Z"/></svg>