<svg id="Layer_1" data-name="Layer 1" xmlns="http://www.w3.org/2000/svg" viewBox="0 0 895 511.11"><defs><style>.cls-1,.cls-3{fill:#fff;}.cls-1,.cls-2{stroke:#000;stroke-miterlimit:10;stroke-width:5px;}.cls-2{fill:none;}</style></defs><g id="Layer_5" data-name="Layer 5"><path class="cls-1" d="M618.7,291a174.72,174.72,0,0,0-17.06-71.77c-7.76-16.35-16.85-31.23-29.21-44.08-70.53-73.35-185.63-68.1-252.5,8.08a179.26,179.26,0,0,0-36.09,65.52c-29.65,97.42,31.07,186.82,126.64,209.93,42.29,10.22,82.83,2.45,120.56-16.21C588.68,413.93,619.63,354.14,618.7,291Z"/><path class="cls-2" d="M618.7,291a174.72,174.72,0,0,0-17.06-71.77c-7.76-16.35-16.85-31.23-29.21-44.08-70.53-73.35-185.63-68.1-252.5,8.08a179.26,179.26,0,0,0-36.09,65.52c-29.65,97.42,31.07,186.82,126.64,209.93,42.29,10.22,82.83,2.45,120.56-16.21C588.68,413.93,619.63,354.14,618.7,291Z"/><ellipse class="cls-3" cx="479.87" cy="156.85" rx="23.15" ry="7.43"/><ellipse class="cls-2" cx="479.87" cy="156.85" rx="23.15" ry="7.43"/><path class="cls-3" d="M483.47,157.76s-58.71,11.69-94.29-18-34.54-89.56-34.54-89.56,58.71-11.69,94.29,18S483.47,157.76,483.47,157.76Z"/><path class="cls-2" d="M483.47,157.76s-58.71,11.69-94.29-18-34.54-89.56-34.54-89.56,58.71-11.69,94.29,18S483.47,157.76,483.47,157.76Z"/><path class="cls-3" d="M389.18,139.74c35.58,29.71,92,16.16,92,16.16-34.67-48.73-75.3-80.13-126.51-103.12C354.67,52.78,353.61,110,389.18,139.74Z"/><path class="cls-2" d="M389.18,139.74c35.58,29.71,92,16.16,92,16.16-34.67-48.73-75.3-80.13-126.51-103.12C354.67,52.78,353.61,110,389.18,139.74Z"/><path class="cls-3" d="M481.39,159.46c-1.12-1.12,0-6.57.08-7.89a72.84,72.84,0,0,1,2.65-13.71,92.16,92.16,0,0,1,12-25.23l.32-.46a126.13,126.13,0,0,1,28.46-29.68,157,157,0,0,1,40.7-22.1c4.41-1.62,15.76-7.24,20.26-5.31,6.58,2.84,8.06,15.16,6.83,21.27-1.65,8.25-9,8.89-16.26,10.64a127.88,127.88,0,0,0-23.46,8,154.58,154.58,0,0,0-58.05,46.33q-3.66,4.78-6.95,9.83-1.61,2.47-3.11,5c-.52.89-1,1.78-1.55,2.66-.33.55-1.15,1.19-1.8.8Z"/><path class="cls-2" d="M481.39,159.46c-1.12-1.12,0-6.57.08-7.89a72.84,72.84,0,0,1,2.65-13.71,92.16,92.16,0,0,1,12-25.23l.32-.46a126.13,126.13,0,0,1,28.46-29.68,157,157,0,0,1,40.7-22.1c4.41-1.62,15.76-7.24,20.26-5.31,6.58,2.84,8.06,15.16,6.83,21.27-1.65,8.25-9,8.89-16.26,10.64a127.88,127.88,0,0,0-23.46,8,154.58,154.58,0,0,0-58.05,46.33q-3.66,4.78-6.95,9.83-1.61,2.47-3.11,5c-.52.89-1,1.78-1.55,2.66-.33.55-1.15,1.19-1.8.8Z"/></g></svg>