<svg id="Layer_171" data-name="Layer 171" xmlns="http://www.w3.org/2000/svg" viewBox="0 0 895 511.11"><defs><style>.cls-1{fill:#fff;}</style></defs><g id="Airship"><path class="cls-1" d="M579.22,415.91c4,6.81,8.8,14.08,8,21.67-.52,4.61-4.56,17.49-10.62,11.12-5.4-5.67-4.53-17.62-1.52-24.32C576.26,421.69,578.07,418.86,579.22,415.91Z"/><path class="cls-1" d="M585.28,371.39c4.89,4.56.75,14.2-1.13,19.46-1.42,4-2.78,9.95-5.32,14.2-1.79-5.68-4.55-11.06-5.61-17C572.2,382.46,575.46,362.27,585.28,371.39Z"/><path class="cls-1" d="M489.1,402.11c8.67.19,18,7.11,12.89,16.33-3.52,6.33-12.19,9.38-18.19,4.54a13.91,13.91,0,0,1-3.57-17A10.42,10.42,0,0,1,489.1,402.11Z"/><path class="cls-1" d="M438.6,402.11c8.68.19,18,7.11,12.88,16.33-3.5,6.33-12.19,9.38-18.19,4.54a13.89,13.89,0,0,1-3.55-17A10.42,10.42,0,0,1,438.6,402.11Z"/><path class="cls-1" d="M390.66,402.11c8.67.19,18,7.11,12.87,16.33-3.49,6.33-12.19,9.38-18.18,4.54a13.92,13.92,0,0,1-3.56-17A10.44,10.44,0,0,1,390.66,402.11Z"/><path class="cls-1" d="M342.71,402.11c8.68.19,18,7.11,12.9,16.33-3.52,6.33-12.19,9.38-18.19,4.54a13.91,13.91,0,0,1-3.57-17A10.42,10.42,0,0,1,342.71,402.11Z"/><path class="cls-1" d="M809.52,231.75c.18,7.21.2,14.41,0,21.57-.22,6.55-.55,15.23-2.25,23.43-11.19,8.13-27.41,1.42-38.9-4.73-9.26-5-16.79-12.19-24.1-19.63-5.51-5.61-11.29-12.32-17.84-17.11,7.7-2.66,25-1.71,28.79-1.7,8.16,0,16.32-.21,24.48-.44,5.91-.17,11.84-.26,17.73-.66C801.46,232.21,805.51,231.53,809.52,231.75Z"/><path class="cls-1" d="M809.35,225.78c-3.61-.13-7.21.29-10.93.53-7.12.46-14.31.61-21.45.82-9.22.29-18.41.36-27.62.52-4,0-21.64-.2-27,5a.45.45,0,0,0-.67,0l-.2.24a.94.94,0,0,0-.33.41c-5.34,6.58-1.83,14.17,3.06,20,.91,1.07,1.84,2.1,2.77,3.12,1.26,1.69,2.63,3.34,4.06,4.92a118,118,0,0,0,7.23,10.24c-13.88-3.5-29.13-2.77-42.88-.36a57.12,57.12,0,0,0-19.71,7.47c1-1.76,2-3.57,2.83-5.39,5.46-11.71,7.92-24.64,8.53-37.49a185,185,0,0,0-2.59-42.17,110.15,110.15,0,0,0-3.68-15,66.23,66.23,0,0,0,5.71,5.14c1,.89,2.08,1.77,3.17,2.6l-.1-.27c.92.64,1.87,1.27,2.83,1.88,12.34,7.71,28.42,11.86,42.56,6.94,12.16-4.25,19.41-14.24,26.48-24.35,7.64-10.92,17-20.53,31.62-16.22,15.32,4.47,14.11,26.74,14.74,39.22C808.38,204.2,809,215,809.35,225.78Z"/><path class="cls-1" d="M139.2,212.57c-.19,2.47-.29,5-.29,7.46,0,2.11.08,4.2.21,6.3-9.12-2.67-19.43-1.05-28.81-1.69-6.39-.46-19.75.35-24.32-5.08-2.61-3.08,1.12-2.94,4-3.33,3.17-.43,6.41-.3,9.61-.43C112.78,215.3,126.07,213.85,139.2,212.57Z"/><path class="cls-1" d="M804.72,285.54c-3.1,8-8.28,14.34-17.07,16a14.32,14.32,0,0,1-5.92,0c-5.59-4.83-11.43-9.35-16.69-14.57S755,275.85,749.36,270.84c-4.39-3.91-9.26-7.61-13.92-11.51a34.73,34.73,0,0,0-2.4-2.87c-3.63-3.84-6.78-7.06-8.17-12.36-.61-2.36-1-4.76-1.39-7.16h0a243.84,243.84,0,0,0,21.74,24.15c7.83,7.8,16.39,14.29,26.5,18.81C780.24,283.69,794.48,288.61,804.72,285.54Z"/><path class="cls-1" d="M653.4,293.43a181.23,181.23,0,0,0,15.44-53.31,170.84,170.84,0,0,0-2.31-58.62c-2.07-9.48-4.31-19.32-8.12-28.27a55.09,55.09,0,0,0-5.24-9.34,138,138,0,0,1,19.75,26.29l.59.6c1.76,5.48,3.7,11,4.73,16.57a209.41,209.41,0,0,1,3.69,43.05c-.3,13.45-2.08,27-7.63,39.37-3.23,7.18-8,13.18-12.81,19.2-2.92,2.38-5.88,4.86-9,7.34a3,3,0,0,0-1.09,1.81c-.17.14-.34.27-.51.42C651.8,296.83,652.62,295.12,653.4,293.43Z"/><path class="cls-1" d="M530.18,372.12c-.37,4.16.16,9,.12,12.18-.12,8.11.1,16.23-.29,24.35-.66,13.7-2.06,29.74-14.57,37.37-32.63-.17-65.27-.1-97.89-.11l-48.74,0c-13.81,0-27.67-.33-41.41,1a24.51,24.51,0,0,1-8.54-2.29c-1-.72-1.92-1.46-2.75-2.11s-1.39-1.1-2.07-1.69a17.05,17.05,0,0,1-2.12-4,5.32,5.32,0,0,0-.05-.79c-3.42-20.91-.29-41,0-61.91a447.07,447.07,0,0,0,105.28,12.23C456.73,386.33,495.06,381.43,530.18,372.12Zm-21.65,44.27c2-13.32-11.95-20.68-23.72-18.15-6,1.27-9.86,6.34-10.79,12.16a15.7,15.7,0,0,0,.88,8.57,16.37,16.37,0,0,0,7.2,10.12C492.48,435.58,506.79,428.08,508.53,416.39Zm-50.51,0c2-13.32-11.95-20.68-23.72-18.15-6,1.27-9.84,6.34-10.79,12.16a15.7,15.7,0,0,0,.89,8.57,16.33,16.33,0,0,0,7.2,10.12C442,435.58,456.28,428.08,458,416.39Zm-47.95,0c2-13.32-11.93-20.68-23.72-18.15-6,1.27-9.83,6.34-10.78,12.16a15.89,15.89,0,0,0,.89,8.57,16.37,16.37,0,0,0,7.2,10.12C394,435.58,408.34,428.08,410.07,416.39Zm-47.92,0c2-13.32-11.95-20.68-23.72-18.15-6,1.27-9.86,6.34-10.79,12.16a15.61,15.61,0,0,0,.88,8.57,16.39,16.39,0,0,0,7.19,10.12C346.1,435.58,360.41,428.08,362.15,416.39Z"/><path class="cls-1" d="M492.11,107.27q2.52,4.47,4.77,9c-21.41-3.65-42.88-7.22-64.59-8.51-22.93-1.35-46.12.12-69,2.3a457.14,457.14,0,0,0-67.51,11.3c-10.05-13.53-23.42-25.36-40.2-27.57,45.05-19.77,101-31.51,161.5-31.51,12.06,0,23.95.46,35.6,1.37a40.9,40.9,0,0,1,3.94,2.46A118.7,118.7,0,0,1,471.34,79.4,133.3,133.3,0,0,1,492.11,107.27Z"/><path class="cls-1" d="M160.32,172c3.86,1.55,6.53,5.51,8.42,9.68-7.22,5.88-14.54,12.82-19.52,20.58A103.64,103.64,0,0,1,160.32,172Z"/><path class="cls-1" d="M173.93,220.72a110.69,110.69,0,0,1-4.46,23.65c-8.78-5.79-16.74-12.81-21.91-21.57,0-.92-.05-1.85-.05-2.77,0-1.27,0-2.54.09-3.8C155.67,219.31,165.48,219.73,173.93,220.72Z"/><path class="cls-1" d="M300.15,137.71c11.86,23,15.09,49.61,14.61,75.18-.07,3.57-.2,7.16-.4,10.73-18.69.31-37.36.47-56,0-22.23-.59-44.56-1.89-66.69-4-4.11-.4-8.23-.89-12.33-1.38.08-1.72.17-3.43.2-5.05.16-6.69-1-20-5.24-30.21,3.32-2.64,6.72-5.17,10.23-7.53,16-10.79,33.39-19.11,50.83-27.22a349.45,349.45,0,0,1,58.69-21C296.32,130.69,298.37,134.26,300.15,137.71Z"/><path class="cls-1" d="M300.13,298.35a175.86,175.86,0,0,1-11.73,27.74c-5.09,9.39-11.48,19.66-21.57,24.2a2.21,2.21,0,0,0-.56.38c-49.27-19.54-87-48.35-105.69-82.12,5.33-4.32,9.18-10.3,12-17l2.36,1.5c16.89,10.62,35.82,18.48,54.52,25.32A507.14,507.14,0,0,0,300.13,298.35Z"/><path class="cls-1" d="M485.47,226.36q14.91-.12,29.81,0c-2.23,27.54-8.37,54.87-16.43,81.19-38,1.56-76.59.17-114.33-2.9A679.74,679.74,0,0,1,307.13,294a279.81,279.81,0,0,0,10.2-46.63c.85-6.32,1.55-12.77,2.05-19.3,13.55-.22,27.09-.52,40.64-.72C401.83,226.69,443.65,226.7,485.47,226.36Z"/><path class="cls-1" d="M651.86,284.38c-.43,1-.84,2.05-1.28,3.06-4.15,9.35-8.71,17.89-15.13,25C595.39,344.72,535,367.8,465.35,375.19c13.69-9.95,23.29-25.6,29.58-41,2.88-7.05,5.48-14.28,7.85-21.61,44.11-1.55,87.45-10.61,129.83-22.52Q642.21,287.4,651.86,284.38Z"/><path class="cls-1" d="M661.32,178.64a173.67,173.67,0,0,1,4.15,43c-14.35.31-28.7.34-43.07.47-33.95.32-67.87-.4-101.81-.52,2.14-33.74-1.66-67.61-15.32-98.75,15.69,2.71,31.34,5.67,46.76,9.59,18.91,4.82,37.33,11.54,55.42,18.81a354.12,354.12,0,0,1,53.66,26.46Z"/><path class="cls-1" d="M665.22,226.8c-.17,2.75-.4,5.52-.72,8.29a182.09,182.09,0,0,1-10.31,43.38c-3.44,1.12-6.9,2.21-10.38,3.24-40.94,12.22-83.09,21.82-125.82,24.77-4.49.32-9,.56-13.52.79a421.25,421.25,0,0,0,12.09-51.7c1.65-9.67,2.91-19.42,3.68-29.2,29.79.2,59.58.73,89.37.55C628,226.79,646.59,227.09,665.22,226.8Z"/><path class="cls-1" d="M654.25,152.24a125,125,0,0,1,5.32,18.47,357.11,357.11,0,0,0-38.46-19.2,503.13,503.13,0,0,0-54.9-20.39c-20.78-6.19-42.12-10.13-63.46-13.79-.85-1.75-1.71-3.5-2.61-5.22-5.91-11.25-12.94-22-21.86-31.13a141.92,141.92,0,0,0-15.11-13.57,38,38,0,0,0-5-3.24c79.06,7.1,146.91,34.33,187.7,72.45C648.92,141.7,652.07,146.72,654.25,152.24Z"/><path class="cls-1" d="M497.2,312.81c-.17.53-.33,1.06-.5,1.57-7.56,23.55-18.81,50.54-42.48,61.84-12.14,1-24.51,1.51-37.09,1.51-53.11,0-102.65-9-144.45-24.6,12.78-7.11,20.57-23.44,26-36.09q3.69-8.7,6.71-17.63c17.94,3.59,36,6.34,54.15,8.43C405.17,313.09,451.29,314,497.2,312.81Z"/><path class="cls-1" d="M514,171.6a249.4,249.4,0,0,1,1.59,50c-4.81,0-9.63,0-14.43,0-40.47.23-80.94.72-121.41.93-20,.1-40.06.62-60.09,1,2.06-33.86-1.78-69.37-20.7-97.65a432.52,432.52,0,0,1,59.19-10.27c20.85-2.18,42.06-3.68,63-3.22,22.87.5,45.49,3.91,68,7.71l10.3,1.75A178.12,178.12,0,0,1,514,171.6Z"/><path class="cls-1" d="M168,248.43a43,43,0,0,1-9.91,15.41A99,99,0,0,1,147.79,227C152.78,235.56,160,242.53,168,248.43Z"/><path class="cls-1" d="M171.48,189.15a77.15,77.15,0,0,1,2.72,28.44c-2.87-.31-5.73-.63-8.62-.87-5.78-.49-12.14-.7-17.88-2.42.06-1.07.14-2.11.24-3.17,3.06-6.34,8.22-11.71,13.18-16.61,3-3,6.13-5.77,9.34-8.48C170.83,187.13,171.18,188.18,171.48,189.15Z"/><path class="cls-1" d="M314.09,228.09A281,281,0,0,1,302,292.61l-.09.28c-15.67-3.27-31.23-7.16-46.58-11.75a423.33,423.33,0,0,1-66.79-26c-4.7-2.34-9.58-4.91-14.37-7.78a106.05,106.05,0,0,0,4.92-25.9c18.75,2.8,37.76,4.16,56.65,5.37C261.84,228.45,288,228.46,314.09,228.09Z"/><path class="cls-1" d="M252.49,95.23c15.73,2.13,28.87,14.09,38.47,27.42a319.66,319.66,0,0,0-51.35,18.23c-21.06,9.65-42.58,19.59-61.28,33.42-1.9,1.42-3.93,2.94-6,4.53-2.6-4.69-6.07-8.25-10.61-9.38C179,139.78,210.93,114,252.49,95.23Z"/><path d="M484.81,398.24c-6,1.27-9.86,6.34-10.79,12.16a15.7,15.7,0,0,0,.88,8.57,16.37,16.37,0,0,0,7.2,10.12c10.38,6.49,24.69-1,26.43-12.7C510.49,403.07,496.58,395.71,484.81,398.24ZM502,418.44c-3.52,6.33-12.19,9.38-18.19,4.54a13.91,13.91,0,0,1-3.57-17,10.42,10.42,0,0,1,8.87-3.87C497.77,402.3,507.08,409.22,502,418.44Z"/><path d="M434.3,398.24c-6,1.27-9.84,6.34-10.79,12.16a15.7,15.7,0,0,0,.89,8.57,16.33,16.33,0,0,0,7.2,10.12c10.38,6.49,24.68-1,26.42-12.7C460,403.07,446.07,395.71,434.3,398.24Zm17.18,20.2c-3.5,6.33-12.19,9.38-18.19,4.54a13.89,13.89,0,0,1-3.55-17,10.42,10.42,0,0,1,8.86-3.87C447.28,402.3,456.58,409.22,451.48,418.44Z"/><path d="M386.35,398.24c-6,1.27-9.83,6.34-10.78,12.16a15.89,15.89,0,0,0,.89,8.57,16.37,16.37,0,0,0,7.2,10.12c10.38,6.49,24.68-1,26.41-12.7C412.05,403.07,398.14,395.71,386.35,398.24Zm17.19,20.2c-3.5,6.33-12.2,9.38-18.19,4.54a13.92,13.92,0,0,1-3.56-17,10.44,10.44,0,0,1,8.87-3.87C399.33,402.3,408.64,409.22,403.54,418.44Z"/><path d="M338.43,398.24c-6,1.27-9.86,6.34-10.79,12.16a15.61,15.61,0,0,0,.88,8.57,16.39,16.39,0,0,0,7.19,10.12c10.39,6.49,24.7-1,26.44-12.7C364.11,403.07,350.2,395.71,338.43,398.24Zm17.18,20.2c-3.52,6.33-12.19,9.38-18.19,4.54a13.91,13.91,0,0,1-3.57-17,10.42,10.42,0,0,1,8.86-3.87C351.39,402.3,360.7,409.22,355.61,418.44Z"/><path d="M817.53,210c-.48-15.86.83-34.61-5.87-49.45-5.38-11.92-17.95-17-30.56-15.16-11.86,1.73-19.43,10.28-26.14,19.47-4.24,5.8-8.28,11.95-13.9,16.53-8.32,6.72-19.19,7.83-29.3,5.26-10.6-2.7-19.56-8.78-27.16-16.49-5.5-5.58-8.9-13.18-14-19.06-13.81-18.19-33.19-34.88-57.63-49.34-52.38-31-121.94-48-195.87-48s-143.5,17.07-195.89,48c-47.67,28.2-76.09,64.94-81.41,104.62-15.23-1.26-30.68.69-45.92,1.29-6.63.28-18.53,1.37-17.52,10.72,1.12,10.25,14,12.49,22.13,13.51,13,1.62,27-.49,39.69,2.41a4.38,4.38,0,0,0,1.72.05c5.55,39.41,33.93,75.88,81.31,103.92,24.68,14.59,53.17,26.09,84.11,34.18-1.42,10.94-3.09,21.94-3.91,32.94-.79,10.55-1.45,22.73,2.48,32.78a4.93,4.93,0,0,0,.46.92c1.05,8.16,11.11,15.56,18.74,15.2a3.18,3.18,0,0,0,.55-.07c14.48,1.71,29.11,1.36,43.71,1.35l50.17,0c32.05,0,64.1.06,96.16-.12,2.13-.54,4.25-1.14,6.36-1.83,0-.07.12-.13.16-.2,13.28-6.43,17.08-23.84,18.37-37.35.09-.81.15-1.63.2-2.46a185.19,185.19,0,0,0,35,1.26c-1.78,3.21-4.48,6.48-5.52,9.16-1.71,4.38-1.88,9.48-1.77,14.13.2,7.46,4,19.72,13.54,19.22,7.65-.4,11.73-9.57,13-16,2.25-11.65-4.42-21.44-10.2-31.11,4.35-5.67,6.63-14.3,8.65-20.35,2.71-8.1,5.31-20.08-3.73-25.28s-17.54.74-20.49,9.55c-3.83,11.33,1,21.78,5.49,32a184,184,0,0,0-33.66,1.26c.19-6.44,0-12.91-.44-19.33-.27-4.16-.7-8.29-1.05-12.45-.14-1.72-.07-3.69-.27-5.57,27.68-7.91,53.23-18.61,75.63-31.85,20.77-12.28,37.85-26.19,51-41.23,4.31-3.31,8.57-6.73,13.09-9.71,8-5.26,16.8-7.51,26.17-8.62,17.67-2.08,38.58-1.33,52.26,11.45l.62.55c10.57,10.24,18.76,23.7,35.8,18.58,16.5-4.95,22.27-21.07,24.79-36.49C820.14,252,818.14,230.93,817.53,210ZM139.12,226.33c-9.12-2.67-19.43-1.05-28.81-1.69-6.39-.46-19.75.35-24.32-5.08-2.61-3.08,1.12-2.94,4-3.33,3.17-.43,6.41-.3,9.61-.43,13.17-.5,26.46-2,39.59-3.23-.19,2.47-.29,5-.29,7.46C138.91,222.14,139,224.23,139.12,226.33ZM587.18,437.58c-.52,4.61-4.56,17.49-10.62,11.12-5.4-5.67-4.53-17.62-1.52-24.32,1.22-2.69,3-5.52,4.18-8.47C583.19,422.72,588,430,587.18,437.58Zm-1.9-66.19c4.89,4.56.75,14.2-1.13,19.46-1.42,4-2.78,9.95-5.32,14.2-1.79-5.68-4.55-11.06-5.61-17C572.2,382.46,575.46,362.27,585.28,371.39Zm60.57-234.77c3.07,5.08,6.22,10.1,8.4,15.62a125,125,0,0,1,5.32,18.47,357.11,357.11,0,0,0-38.46-19.2,503.13,503.13,0,0,0-54.9-20.39c-20.78-6.19-42.12-10.13-63.46-13.79-.85-1.75-1.71-3.5-2.61-5.22-5.91-11.25-12.94-22-21.86-31.13a141.92,141.92,0,0,0-15.11-13.57,38,38,0,0,0-5-3.24C537.21,71.27,605.06,98.5,645.85,136.62ZM299,125.88a432.52,432.52,0,0,1,59.19-10.27c20.85-2.18,42.06-3.68,63-3.22,22.87.5,45.49,3.91,68,7.71l10.3,1.75A177.77,177.77,0,0,1,514,171.6a248.66,248.66,0,0,1,1.6,50c-4.81,0-9.63,0-14.43,0-40.47.23-80.94.72-121.41.93-20,.1-40.06.62-60.09,1C321.76,189.67,317.92,154.16,299,125.88Zm1.15,11.83c11.86,23,15.09,49.61,14.61,75.18-.07,3.57-.2,7.16-.4,10.73-18.69.31-37.36.47-56,0-22.23-.59-44.56-1.89-66.69-4-4.11-.4-8.23-.89-12.33-1.38.08-1.72.17-3.43.2-5.05.16-6.69-1-20-5.24-30.21,3.32-2.64,6.72-5.17,10.23-7.53,16-10.79,33.39-19.11,50.83-27.22a349.45,349.45,0,0,1,58.69-21C296.32,130.69,298.37,134.26,300.15,137.71Zm-64.41,89.08c26.1,1.66,52.22,1.67,78.35,1.3A281,281,0,0,1,302,292.61l-.09.28c-15.67-3.27-31.23-7.16-46.58-11.75a423.33,423.33,0,0,1-66.79-26c-4.7-2.34-9.58-4.91-14.37-7.78a106.05,106.05,0,0,0,4.92-25.9C197.84,224.22,216.85,225.58,235.74,226.79Zm81.59,20.53c.85-6.32,1.55-12.77,2.05-19.3,13.55-.22,27.09-.52,40.64-.72,41.81-.61,83.63-.6,125.45-.94q14.91-.12,29.81,0c-2.23,27.54-8.37,54.87-16.43,81.19-38,1.56-76.59.17-114.33-2.9A679.74,679.74,0,0,1,307.13,294,279.81,279.81,0,0,0,317.33,247.32Zm199.23,8.25c1.65-9.67,2.91-19.42,3.68-29.2,29.79.2,59.58.73,89.37.55,18.35-.13,37,.17,55.61-.12-.17,2.75-.4,5.52-.72,8.29a182.09,182.09,0,0,1-10.31,43.38c-3.44,1.12-6.9,2.21-10.38,3.24-40.94,12.22-83.09,21.82-125.82,24.77-4.49.32-9,.56-13.52.79A421.25,421.25,0,0,0,516.56,255.57ZM622.4,222.11c-33.95.32-67.87-.4-101.81-.52,2.14-33.74-1.66-67.61-15.32-98.75,15.69,2.71,31.34,5.67,46.76,9.59,18.91,4.82,37.33,11.54,55.42,18.81a354.12,354.12,0,0,1,53.66,26.46l.21.94a173.67,173.67,0,0,1,4.15,43C651.12,222,636.77,222,622.4,222.11ZM417.13,62.33c12.06,0,23.95.46,35.6,1.37a40.9,40.9,0,0,1,3.94,2.46A118.7,118.7,0,0,1,471.34,79.4a133.3,133.3,0,0,1,20.77,27.87q2.52,4.47,4.77,9c-21.41-3.65-42.88-7.22-64.59-8.51-22.93-1.35-46.12.12-69,2.3a457.14,457.14,0,0,0-67.51,11.3c-10.05-13.53-23.42-25.36-40.2-27.57C300.68,74.07,356.6,62.33,417.13,62.33ZM252.49,95.23c15.73,2.13,28.87,14.09,38.47,27.42a319.66,319.66,0,0,0-51.35,18.23c-21.06,9.65-42.58,19.59-61.28,33.42-1.9,1.42-3.93,2.94-6,4.53-2.6-4.69-6.07-8.25-10.61-9.38C179,139.78,210.93,114,252.49,95.23ZM160.32,172c3.86,1.55,6.53,5.51,8.42,9.68-7.22,5.88-14.54,12.82-19.52,20.58A103.92,103.92,0,0,1,160.32,172Zm-12.38,39.13c3.06-6.34,8.22-11.71,13.18-16.61,3-3,6.13-5.77,9.34-8.48.37,1.09.72,2.14,1,3.11a77.15,77.15,0,0,1,2.72,28.44c-2.87-.31-5.73-.63-8.62-.87-5.78-.49-12.14-.7-17.88-2.42C147.76,213.23,147.84,212.19,147.94,211.13Zm-.43,8.9c0-1.27,0-2.54.09-3.8,8.07,3.08,17.88,3.5,26.33,4.49a110.69,110.69,0,0,1-4.46,23.65c-8.78-5.79-16.74-12.81-21.91-21.57C147.53,221.88,147.51,221,147.51,220Zm.28,7c5,8.56,12.16,15.53,20.23,21.43a43,43,0,0,1-9.91,15.41A99,99,0,0,1,147.79,227ZM266.27,350.67c-49.27-19.54-87-48.35-105.69-82.12,5.33-4.32,9.18-10.3,12-17l2.36,1.5c16.89,10.62,35.82,18.48,54.52,25.32a508.51,508.51,0,0,0,70.7,20,175.86,175.86,0,0,1-11.73,27.74c-5.09,9.39-11.48,19.66-21.57,24.2A2.21,2.21,0,0,0,266.27,350.67Zm6.41,2.46c12.78-7.11,20.57-23.44,26-36.09q3.69-8.7,6.71-17.63c17.94,3.59,36,6.34,54.15,8.43,45.65,5.25,91.77,6.18,137.68,5-.17.53-.33,1.06-.5,1.57-7.56,23.55-18.81,50.54-42.48,61.84-12.14,1-24.51,1.51-37.09,1.51C364,377.73,314.48,368.69,272.68,353.13ZM530,408.65c-.66,13.7-2.06,29.74-14.57,37.37-32.63-.17-65.27-.1-97.89-.11l-48.74,0c-13.81,0-27.67-.33-41.41,1a24.51,24.51,0,0,1-8.54-2.29c-1-.72-1.92-1.46-2.75-2.11s-1.39-1.1-2.07-1.69a17.05,17.05,0,0,1-2.12-4,5.32,5.32,0,0,0-.05-.79c-3.42-20.91-.29-41,0-61.91a447.07,447.07,0,0,0,105.28,12.23c39.6,0,77.93-4.9,113-14.21-.37,4.16.16,9,.12,12.18C530.18,392.41,530.4,400.53,530,408.65Zm105.44-96.2C595.39,344.72,535,367.8,465.35,375.19c13.69-9.95,23.29-25.6,29.58-41,2.88-7.05,5.48-14.28,7.85-21.61,44.11-1.55,87.45-10.61,129.83-22.52q9.6-2.7,19.25-5.72c-.43,1-.84,2.05-1.28,3.06C646.43,296.79,641.87,305.33,635.45,312.45Zm26-23.48c-2.92,2.38-5.88,4.86-9,7.34a3,3,0,0,0-1.09,1.81c-.17.14-.34.27-.51.42.86-1.71,1.68-3.42,2.46-5.11a181.23,181.23,0,0,0,15.44-53.31,170.84,170.84,0,0,0-2.31-58.62c-2.07-9.48-4.31-19.32-8.12-28.27a55.09,55.09,0,0,0-5.24-9.34,138,138,0,0,1,19.75,26.29l.59.6c1.76,5.48,3.7,11,4.73,16.57a209.41,209.41,0,0,1,3.69,43.05c-.3,13.45-2.08,27-7.63,39.37C671.07,277,666.28,283,661.49,289Zm34-17.8a57.12,57.12,0,0,0-19.71,7.47c1-1.76,2-3.57,2.83-5.39,5.46-11.71,7.92-24.64,8.53-37.49a185,185,0,0,0-2.59-42.17,110.15,110.15,0,0,0-3.68-15,67.75,67.75,0,0,0,5.71,5.14c1,.89,2.08,1.77,3.17,2.6l-.1-.27c.92.64,1.87,1.27,2.83,1.88,12.34,7.71,28.42,11.86,42.56,6.94,12.16-4.25,19.41-14.24,26.48-24.35,7.64-10.92,17-20.53,31.62-16.22,15.32,4.47,14.11,26.74,14.74,39.22.55,10.67,1.16,21.47,1.52,32.25-3.61-.13-7.21.29-10.93.53-7.12.46-14.31.61-21.45.82-9.22.29-18.42.36-27.62.52-4,0-21.64-.2-27,5a.45.45,0,0,0-.67,0l-.2.24a.94.94,0,0,0-.33.41c-5.34,6.58-1.83,14.16,3.06,20,.91,1.07,1.84,2.1,2.77,3.12,1.26,1.69,2.63,3.34,4.06,4.92a118,118,0,0,0,7.23,10.24C724.44,268,709.19,268.76,695.44,271.17Zm92.21,30.36a14.32,14.32,0,0,1-5.92,0c-5.59-4.83-11.43-9.35-16.69-14.57S755,275.85,749.36,270.84c-4.39-3.91-9.26-7.61-13.92-11.51a34.73,34.73,0,0,0-2.4-2.87c-3.63-3.84-6.78-7.06-8.17-12.36-.61-2.36-1-4.76-1.39-7.16h0a243.84,243.84,0,0,0,21.74,24.15c7.83,7.8,16.39,14.29,26.5,18.81,8.51,3.8,22.75,8.72,33,5.65C801.62,293.52,796.44,299.88,787.65,301.53Zm21.86-48.21c-.22,6.55-.54,15.23-2.25,23.43-11.19,8.13-27.41,1.42-38.9-4.73-9.26-5-16.79-12.19-24.1-19.63-5.51-5.61-11.29-12.32-17.84-17.11,7.7-2.66,25-1.71,28.79-1.7,8.16,0,16.32-.21,24.48-.44,5.91-.17,11.84-.26,17.73-.66,4-.27,8.09-.95,12.1-.73C809.7,239,809.73,246.16,809.51,253.32Z"/></g></svg>