<svg id="Layer_20" data-name="Layer 20" xmlns="http://www.w3.org/2000/svg" viewBox="0 0 895 511.11"><defs><style>.cls-1{fill:#fff;}.cls-2{fill:none;stroke:#1d1d1b;stroke-miterlimit:10;stroke-width:5px;}</style></defs><path class="cls-1" d="M400,278.94s39,55-17.8,80.74c-36.8,16.67,25.4,60.81,62.09,58.77,23.33-1.3,37-12.17,38.62-22.64s5.86-84.69,1.74-108.76S400,278.94,400,278.94Z"/><path class="cls-2" d="M400,278.94s39,55-17.8,80.74c-36.8,16.67,25.4,60.81,62.09,58.77,23.33-1.3,37-12.17,38.62-22.64s5.86-84.69,1.74-108.76S400,278.94,400,278.94Z"/><path class="cls-1" d="M388.19,264.15s26,63.44-8.84,83.89,29.84,57.5,53.13,55.62,37-12.16,38.63-22.64,5.85-84.69,1.73-108.76S388.19,264.15,388.19,264.15Z"/><path class="cls-2" d="M388.19,264.15s26,63.44-8.84,83.89,29.84,57.5,53.13,55.62,37-12.16,38.63-22.64,5.85-84.69,1.73-108.76S388.19,264.15,388.19,264.15Z"/><path class="cls-1" d="M442.93,109.21S347.57,114,312.43,200,433.8,304.49,433.8,304.49s76.27,15.88,128.64-21.67,32.9-86.72,24.85-99.41S523.39,97.93,442.93,109.21Z"/><path class="cls-2" d="M442.93,109.21S347.57,114,312.43,200,433.8,304.49,433.8,304.49s76.27,15.88,128.64-21.67,32.9-86.72,24.85-99.41S523.39,97.93,442.93,109.21Z"/><path class="cls-1" d="M433.07,93.78s-95.36,4.75-130.5,90.74S423.94,289.06,423.94,289.06s76.27,15.88,128.64-21.67,32.9-86.72,24.85-99.41S513.53,82.5,433.07,93.78Z"/><path class="cls-2" d="M433.07,93.78s-95.36,4.75-130.5,90.74S423.94,289.06,423.94,289.06s76.27,15.88,128.64-21.67,32.9-86.72,24.85-99.41S513.53,82.5,433.07,93.78Z"/><path class="cls-1" d="M423.86,103.63s-62.71,3.13-85.82,59.68,79.82,68.75,79.82,68.75,50.16,10.44,84.6-14.25,21.64-57,16.34-65.38S476.78,96.21,423.86,103.63Z"/><path class="cls-2" d="M423.86,103.63s-62.71,3.13-85.82,59.68,79.82,68.75,79.82,68.75,50.16,10.44,84.6-14.25,21.64-57,16.34-65.38S476.78,96.21,423.86,103.63Z"/></svg>