<svg id="Layer_40" data-name="Layer 40" xmlns="http://www.w3.org/2000/svg" viewBox="0 0 895 511.11"><defs><style>.cls-1{fill:#fff;stroke:#1d1d1b;stroke-miterlimit:10;}</style></defs><polygon class="cls-1" points="417.45 107.4 558.52 237.48 597.56 346.44 520.94 323.05 417.45 107.4"/><path class="cls-1" d="M240.52,302.28a15.79,15.79,0,0,0-.65,21.19c21,24.78,72.64,82,102.48,82.48,30.59.5,130.18,64.21,168.17,89.25A15.8,15.8,0,0,0,533.4,489c16.21-32.86,52.39-106.37,63.47-130.22,14.43-31.05-75.58-65-52.16-95.79,16.17-21.26,79-54.51,116.32-73.06a15.82,15.82,0,0,0,.23-28.23c-40.94-21.1-115.41-59.1-145.91-72.19C472.24,71,397.72,21.33,368.06,13.3c0,0-40.11,78.05-42.38,144.4C323.88,210.59,264.52,277.37,240.52,302.28Z"/><path class="cls-1" d="M519.19,494.35a12.28,12.28,0,0,1-6.76-2c-40.71-26.84-138.78-89.32-170-89.83-19.71-.32-57.06-30.69-99.88-81.25a12.29,12.29,0,0,1,.5-16.54c25.28-26.25,84.29-93.1,86.13-146.87,2-58.16,33.89-126.38,40.72-140.37,16.3,5.3,43.93,21,73.08,37.59,25.25,14.35,51.36,29.2,71,37.64,30.32,13,104.3,50.75,145.69,72.08a12.35,12.35,0,0,1-.18,22c-44.88,22.3-101.7,53.25-117.54,74.07-14.12,18.55,5.93,36.81,25.33,54.46,15.87,14.45,32.29,29.4,26.44,42-11.11,23.92-48.06,99-63.43,130.15a12.31,12.31,0,0,1-11.1,6.9Z"/><path class="cls-1" d="M379.43,64c21-13.77,58-5.41,79.86-3.73-35.48-20-72.4-41.91-91.23-47,0,0-25,48.57-36.61,101.65C345.85,100.68,362.79,74.94,379.43,64Z"/><path class="cls-1" d="M331.45,115c17.32-17.53,35-45.42,52.93-53.59a57.76,57.76,0,0,1,18.29-4.6,127.25,127.25,0,0,1,18.93-.24c12.62.63,25.1,2.72,37.68,3.8L459.16,62c-17.81-1.53-37.6-5.36-56.31-3.55a55.83,55.83,0,0,0-17.74,4.45c-17.37,7.88-35.18,35.77-52.44,53.25Z"/><path class="cls-1" d="M370,27.61S358.62,62.73,359.49,64s10.84-18.22,31.65-16.48S395.77,34.55,370,27.61Z"/></svg>