<svg id="Layer_35" data-name="Layer 35" xmlns="http://www.w3.org/2000/svg" viewBox="0 0 895 511.11"><defs><style>.cls-1{fill:#fff;stroke:#1d1d1b;stroke-miterlimit:10;}.cls-2{opacity:0.7;}</style></defs><path class="cls-1" d="M288.71,376.61a71.29,71.29,0,0,1,24.56,9.72,578.91,578.91,0,0,0-25.85-56.49,139.34,139.34,0,0,1,74.23,35.46,154.09,154.09,0,0,0-16.59-40.66,77.56,77.56,0,0,1,22.72,18.26,591.13,591.13,0,0,1-13.33-98.14c64.23-6.48,47.8,35.52,67,58.15a320.64,320.64,0,0,1,37.13-62.12c-2.25,17.66-4.31,36.49,3.52,52.47,17.49-31.86,12.8-62.81,71.38-81.26a205.25,205.25,0,0,0-28.19,63.18,98,98,0,0,1,72-29.22c-29.72,19-43.58,54.46-55.6,87.59,12.78-15.25,34.75-18.14,54.57-19.95a136.08,136.08,0,0,0-41,56.51,42.44,42.44,0,0,1,37.28-8.62A114.09,114.09,0,0,0,539,400.79,51.6,51.6,0,0,1,572.68,395a132.73,132.73,0,0,0-29.53,42.46c-1.51,3.47-2.95,7.12-5.69,9.73s-6.61,3.93-10.33,5c-38.17,10.73-78.82,5.83-118-.16-23.39-3.58-46.74-7.47-70-11.82-10.57-2-10.37-5.27-13.8-14.62a108.6,108.6,0,0,0-36.6-49Z"/><path class="cls-1" d="M515.13,284.47a131.73,131.73,0,0,0-18.95,62.58,127.26,127.26,0,0,1,67.53-57.51c-24.08,27.53-46,59.6-49,96a55.72,55.72,0,0,1,10.48-7.71q-2.94,7.11-5.87,14.23a102.55,102.55,0,0,1,19.86-9.34l-10.73,33c-.93,2.87-1.9,5.81-3.85,8.12-4.79,5.68-14.18,5.4-20.31,1.19s-9.64-11.26-12.31-18.2c-7.75-20.1-13.14-46.38-9.35-67.92,1.83-10.39,7.3-21.1,12.7-30S509.86,293.14,515.13,284.47Z"/><path class="cls-1" d="M318.17,399.49a35.77,35.77,0,0,1,19.91,9.21,170.21,170.21,0,0,0-22.62-36.49,105.8,105.8,0,0,1,41,24.48l-36.67-81.84c19.58,17.67,39.5,35.75,52.59,58.64,4.77,8.35,8.62,17.45,9.33,27s-2.06,19.75-9,26.45c-7.27,7.08-21.65,10.12-29.69,2.73-4.18-3.82-6.81-9.82-10.22-14.3C330.35,412.18,322.38,400,318.17,399.49Z"/><path class="cls-1" d="M409.6,402.79c44.6-5.55,91.88-4.69,131.83,15.93,6.93,3.57,14.06,8.3,16.55,15.69,4.13,12.26-6.48,24.59-17.63,31.17-21,12.37-46.09,15.52-70.43,15.7-48.35.37-96.08-9.8-143.35-19.93-35.87-7.68.47-32.51,16.68-40.63C363.84,410.4,386.89,405.62,409.6,402.79Z"/><path class="cls-1" d="M558,434.41c-2.5-7.39-9.62-12.12-16.55-15.69-2.2-1.14-4.43-2.21-6.67-3.23a18.59,18.59,0,0,1,2.56,4.92c4.13,12.27-6.48,24.6-17.63,31.18-21,12.37-46.09,15.51-70.43,15.7-46.45.36-92.34-9-137.8-18.75-1.1,5.4,2.64,10.14,15.11,12.81,47.27,10.13,95,20.3,143.35,19.93,24.34-.18,49.47-3.33,70.43-15.7C551.49,459,562.11,446.67,558,434.41Z"/><path class="cls-1" d="M517.2,64.13a4.45,4.45,0,0,0,2.91,1.09c7,.74,14,0,20.93-1,8.17-1.2,16.54-2.83,23.45-7.35A15.12,15.12,0,0,0,569,52.69c.83-1.27,1.27-3.16.14-4.16A3.71,3.71,0,0,0,568,48c-7.74-3.08-16.39-2.45-24.66-1.57-5.27.56-10.71,1.26-15.26,4a26.65,26.65,0,0,0-7.25,6.79c-1,1.26-1.77,2.85-2.86,4C517.2,62,516.05,62.86,517.2,64.13Z"/><path class="cls-1" d="M285,222.52c0-12.76,5.31-25,12.12-35.77,30.69-48.6,89.7-70.73,130.42-111.3,3-3,6.71-6.27,10.74-5.18a12.2,12.2,0,0,1,4.11,2.42c25.28,19.55,56.57,29.21,86,41.64s64,29.59,79.18,57.72c3,5.66,3.44,16.51-1.28,25.91-3.46,6.9-5.8,6.35-12.62,10s-14.59,4.95-22.24,6c-80.62,11.36-165.48,1.1-241.4,30.5-8,3.09-21.68,11.14-30.53,7.82C289.11,248.39,284.94,232.26,285,222.52Z"/><path class="cls-1" d="M318.91,261.23c-7.92-2.16-16.16-5.36-20.89-12.08-5.55-7.9-4.69-19,0-27.48S310.5,207,318.6,201.73c35.77-23.17,79.14-31.27,121.56-35.41,47-4.58,95-4.85,141,6.24,5.8,1.39,11.66,3,16.66,6.26s9.09,8.4,9.69,14.33c.64,6.34-2.81,12.55-7.64,16.71S589,216.42,583,218.5c-35.48,12.2-73.17,14.89-110,20.59-18.13,2.8-36.59,6-53.94,12.2-11.73,4.16-22,10.24-34.43,12.6A147,147,0,0,1,318.91,261.23Z"/><path class="cls-1" d="M371.17,407.85c-8.15-24.1-8-50.46-2.83-75.37s15.16-48.56,26.4-71.38c6.34-12.87,13.3-26.58,11.41-40.8-.63-4.75-2.25-9.49-1.5-14.22C406,197.41,414.71,191.93,423,189a82.78,82.78,0,0,1,41.8-3.63c13,2.24,26.41,8.54,32.18,20.41,3.16,6.48,3.69,13.9,3.9,21.11a286.1,286.1,0,0,1-3.7,54.68c-3.75,22.68-10.25,45.77-5.62,68.28,2.48,12,8,23.21,11.37,35s4.18,25.27-2.28,35.72c-5.36,8.67-14.87,13.87-24.4,17.49a124.31,124.31,0,0,1-70.13,5.27C388.78,439.59,376.68,424.17,371.17,407.85Z"/><path class="cls-1" d="M491.54,349.59c-4.63-22.51,1.87-45.6,5.62-68.28a286.1,286.1,0,0,0,3.7-54.68c-.21-7.21-.74-14.63-3.9-21.11-5.77-11.87-19.17-18.17-32.18-20.41-2.54-.43-5.1-.75-7.66-.94,10.52,6.7,17.56,18.86,19.9,31.36,2.9,15.56-.3,31.6-4.6,46.84s-9.73,30.3-11.38,46c-1.83,17.48,1.06,35.07,3.95,52.41s5.76,34.92,3.91,52.4a76.72,76.72,0,0,1-9.13,29.58,122.46,122.46,0,0,0,16.46-5c9.53-3.62,19-8.82,24.4-17.49,6.46-10.45,5.61-23.9,2.28-35.72S494,361.63,491.54,349.59Z"/><path class="cls-1" d="M474.85,363.26c-3-9.47-9.83-18.07-19.21-21.33-7.09-2.46-14.94-1.73-22.15.35-14.28,4.14-27.25,14-33.24,27.59-2.71,6.14-3.95,12.83-4.76,19.49a162.56,162.56,0,0,0,1.91,50.95,38.29,38.29,0,0,0,8.7,3A124.6,124.6,0,0,0,463.92,442a98.61,98.61,0,0,1,3.61-20.59c2.58-9.58,5.88-19,7.82-28.72S477.81,372.73,474.85,363.26Z"/><path class="cls-1" d="M437,356.41c-6.59.37-13.37,2-18.42,6.26s-8,10.89-10,17.34c-6.33,20-7.29,41.3-5.35,62.19a36.1,36.1,0,0,0,4.1,1.15,124.41,124.41,0,0,0,51.84.09,72.82,72.82,0,0,0-.32-10.23c-1-16.4,2.81-32.68,3.69-49.09.4-7.5-.08-15.75-5.13-21.31S444.34,356,437,356.41Z"/><path class="cls-1" d="M415.79,388.15c2-6.45,4.82-13,10-17.34s11.83-5.89,18.42-6.26c5.56-.32,11.53.38,16.26,3.09a17.72,17.72,0,0,0-3.08-4.83c-5-5.46-13.05-6.81-20.41-6.4-6.59.37-13.37,2-18.42,6.26s-8,10.89-10,17.34c-6.33,20-7.29,41.3-5.35,62.19a36.1,36.1,0,0,0,4.1,1.15c.87.19,1.75.36,2.63.53C408.76,425.07,410.11,406.06,415.79,388.15Z"/><path class="cls-1" d="M389.05,333.8c-.3-1.2-2.91-22.78,0-33.45,3.89-14.28,11.4-20.48,21.7-17.18,15.67,5,9,46.11,9,46.11Z"/><path class="cls-1" d="M410.63,285.11c-5.23-.19-10.77,2.1-13.42,6.82a21.9,21.9,0,0,0-2.16,6.73,75.84,75.84,0,0,0,1.3,34h0l23.42-3.44s5.31-32.89-4.79-43.42A15.63,15.63,0,0,0,410.63,285.11Z"/><path class="cls-1" d="M482.69,223.54c-9.85-6.31-23.23-8.67-28.79,12.13-2.08,7.78-2.27,41.17-3,42.43l33.34,12.12S492.54,229.86,482.69,223.54Z"/><path class="cls-1" d="M450.87,278.1l24.95,9.07c2.32-14.26,4.35-28.64,3.42-43-.38-5.85-1.67-12.39-6.55-15.65-3.7-2.48-8.89-2.67-13.18-2.16a9.75,9.75,0,0,0-2,.42,34.76,34.76,0,0,0-3.6,8.93C451.82,243.45,451.63,276.84,450.87,278.1Z"/><path class="cls-1" d="M313.86,182.37a12.44,12.44,0,0,0,5.72-.32A70.84,70.84,0,0,0,349,167.47c2.4-2,4.85-5.29,3.17-7.92a5.93,5.93,0,0,0-3.86-2.22c-5.83-1.37-12-.34-17.58,1.9C327.22,160.65,299.93,178.9,313.86,182.37Z"/><path class="cls-1" d="M389.56,141.85c-1,2.2-1.61,4.84-.55,7,1.39,2.85,4.91,3.82,8,4.38,6.38,1.14,12.93,1.85,19.34.9s12.72-3.71,17-8.59a7.51,7.51,0,0,0,2.21-4.68c0-2.93-2.73-5.06-5.35-6.39C418.84,128.72,396.12,128.09,389.56,141.85Z"/><path class="cls-1" d="M522.23,135.47c-2.8.33-5.69,1-7.89,2.78s-3.54,4.88-2.52,7.52c1.2,3.11,4.88,4.32,8.11,5.14,11.59,3,23.32,6,35.28,6,3.21,0,7.19-.79,8-3.89C566.47,140.86,528.82,134.68,522.23,135.47Z"/><path class="cls-1" d="M449.68,104.55c-1.88,2.91-3.18,6.79-1.37,9.75,1.39,2.25,4.17,3.22,6.78,3.65a29.31,29.31,0,0,0,20.15-4,17.45,17.45,0,0,0,6.33-6.27,9.84,9.84,0,0,0,.56-8.67,10.67,10.67,0,0,0-6.69-5.29C465.23,90.58,455.29,95.87,449.68,104.55Z"/><path class="cls-1" d="M406.88,113.14c5.51-.62,10.9-4.31,12.25-9.68,1.28-5.07-1.31-10.58-5.43-13.8a10.27,10.27,0,0,0-1-.7c-7.78,6.47-16,12.54-24.28,18.44C393.8,111.55,401.41,113.75,406.88,113.14Z"/><path class="cls-1" d="M598.16,178.83c-5-3.25-10.86-4.87-16.66-6.27-45.94-11.08-93.94-10.82-141-6.23-42.42,4.13-85.79,12.23-121.56,35.41-8.1,5.25-15.94,11.47-20.61,19.93a31,31,0,0,0-3.22,8.78l.51-.15a7.36,7.36,0,0,0,2.23-1.64c21.2-19.94,48.18-33,76.15-41s57.08-11.36,86.08-13.79c22-1.85,44.33-3.2,66.09.62,9.16,1.61,18.46,4.28,25.65,10.18s11.82,15.67,9.41,24.66c-2,7.36-8.13,12.87-14.67,16.77-1.89,1.13-3.83,2.16-5.79,3.16a289.52,289.52,0,0,0,42.52-10.71c6-2.07,12.08-4.48,16.9-8.64s8.28-10.37,7.64-16.7C607.25,187.22,603.16,182.08,598.16,178.83Z"/><path class="cls-1" d="M535,109.5q-3.62-23.37-5.53-47a2.12,2.12,0,0,1,.08-1,2,2,0,0,1,.93-.84A45.87,45.87,0,0,1,559.91,55l2.64,52.39a4.91,4.91,0,0,1-2.33,5.19q-8.22,7-16.91,13.42a6.36,6.36,0,0,1-2.08,1.16,6.12,6.12,0,0,1-3-.23,90.35,90.35,0,0,1-17.09-6.24c-1.54-.74-4.42-2.08-5.09-3.82-1-2.67,1.66-2.6,3.83-3.18C521.17,113.34,535.07,109.84,535,109.5Z"/><path class="cls-1" d="M562.55,107.43,559.91,55a45,45,0,0,0-7.51-.47l2.34,46.33a6.77,6.77,0,0,1-.25,2.76,6.59,6.59,0,0,1-2.08,2.43q-8.26,6.92-16.91,13.36a6.2,6.2,0,0,1-2.08,1.17,6.12,6.12,0,0,1-3-.23,89.91,89.91,0,0,1-14.52-5,2.21,2.21,0,0,0,.15,1.52c.67,1.74,3.55,3.08,5.09,3.82a90.35,90.35,0,0,0,17.09,6.24,6.12,6.12,0,0,0,3,.23,6.36,6.36,0,0,0,2.08-1.16q8.64-6.45,16.91-13.37a4.91,4.91,0,0,0,2.33-5.19Z"/><path class="cls-1" d="M517.11,62.24a57.84,57.84,0,0,1,51.83-14,0,0,0,0,0,0,0q-15.87-9.39-32-18.32s0,0,0,0c.3,1.11-8.06,15.61-8.93,16.94-3.33,5.35-7.48,10-10.89,15.4C517.07,62.24,517.09,62.26,517.11,62.24Z"/><g class="cls-2"><path class="cls-1" d="M414.21,217.59a58.09,58.09,0,0,1-6,32.44c-1.72,3.35-3.79,6.61-4.53,10.3s.23,8.07,3.44,10,7.56.85,10.34-1.65,4.31-6.09,5.57-9.61A112.58,112.58,0,0,0,429.6,224c.12-4.47-.07-9.14-2.21-13.07-1.78-3.28-6.37-7.3-10.28-5.16S413.83,214,414.21,217.59Z"/></g></svg>