<svg id="Layer_48" data-name="Layer 48" xmlns="http://www.w3.org/2000/svg" viewBox="0 0 895 511.11"><defs><style>.cls-1{fill:#fff;}.cls-2{fill:#1d1d1b;}</style></defs><path class="cls-1" d="M530.12,293.51c11.26-.22,63.85,37,75.9,66.91s-3.54,55.76-34.4,61.62-29.11-37-35.73-58.66-19.25-34.31-19.25-34.31Z"/><path class="cls-2" d="M566.13,423.81c-20.06,0-24.14-22.84-27.73-43a158.14,158.14,0,0,0-3.67-17.09c-6.51-21.13-18.83-33.68-19-33.81a1.19,1.19,0,0,1-.28-1.28L529,293.08a1.22,1.22,0,0,1,1.12-.79c11.89,0,64.59,36.76,77,67.67,5.79,14.41,5.49,28.71-.84,40.27-6.48,11.85-18.72,20-34.45,23A30.74,30.74,0,0,1,566.13,423.81Zm-48.08-95a91.88,91.88,0,0,1,19,34.24,157,157,0,0,1,3.74,17.38c3.43,19.21,7.31,41,25.34,41a27.55,27.55,0,0,0,5.26-.54c15-2.84,26.65-10.58,32.78-21.78,6-10.91,6.23-24.47.72-38.19-11.61-28.82-61.51-64.66-73.95-66.11Z"/><path class="cls-1" d="M554.74,410.19a43,43,0,0,1-6.69.74c4.56,8.31,11.62,13.4,23.57,11.11,29.7-5.67,45.23-29.84,35.59-58.34C602.37,387.1,583.22,404.74,554.74,410.19Z"/><path class="cls-2" d="M566.17,423.8h0c-8.37,0-14.65-4-19.18-12.29a1.21,1.21,0,0,1,0-1.18,1.24,1.24,0,0,1,1-.62,40.41,40.41,0,0,0,6.5-.71c27.45-5.25,46.7-22.27,51.51-45.54a1.21,1.21,0,0,1,2.34-.15c4.6,13.63,3.68,27.07-2.61,37.85-6.61,11.32-18.65,19.16-33.9,22.07A30.29,30.29,0,0,1,566.17,423.8ZM550.11,412c4,6.28,9.24,9.34,16.06,9.34h0a27.92,27.92,0,0,0,5.22-.53c14.56-2.77,26-10.2,32.26-20.9,5.37-9.2,6.61-20.06,3.66-31.62-6.4,22-25.64,38-52.35,43.06A40.7,40.7,0,0,1,550.11,412Z"/><path class="cls-1" d="M400.62,280.91c10.18,4.75,41.08,61.28,38.73,93.45s-27.66,48.56-57.94,40.27-9.91-46-6.35-68.43-2.22-39.27-2.22-39.27Z"/><path class="cls-2" d="M396.61,418a59,59,0,0,1-15.52-2.18c-6.7-1.82-11.49-5.23-14.26-10.13-6.2-11-1.41-27.8,2.82-42.63a157.18,157.18,0,0,0,4.21-17c3.45-21.84-2.11-38.53-2.16-38.69A1.22,1.22,0,0,1,372,306l27.78-26a1.24,1.24,0,0,1,1.35-.22c10.33,4.84,41.81,61.87,39.42,94.64C438.68,400.89,421.43,418,396.61,418ZM374.23,307.29a91.44,91.44,0,0,1,2,39.1A156.12,156.12,0,0,1,372,363.7c-4.09,14.38-8.73,30.68-3,40.78,2.46,4.37,6.65,7.31,12.78,9a56.73,56.73,0,0,0,14.88,2.09c23.44,0,39.75-16.21,41.53-41.28,2.22-30.43-26.92-85.14-37.34-91.87Z"/><path class="cls-1" d="M371.46,396.57a41.21,41.21,0,0,1-6.36-2.3c.45,9.49,4.58,17.19,16.31,20.36,29.18,8,53.75-6.95,57.59-36.81C424.38,396.74,399.43,404.21,371.46,396.57Z"/><path class="cls-2" d="M396.6,418a59,59,0,0,1-15.51-2.17c-11-3-16.66-10-17.2-21.47a1.21,1.21,0,0,1,1.72-1.16,40.85,40.85,0,0,0,6.17,2.23,79.4,79.4,0,0,0,20.83,2.91c18.71,0,34.84-7.54,45.43-21.23a1.22,1.22,0,0,1,2.17.89C437.08,402.27,420,418,396.6,418Zm-30.13-21.79c1,9.23,5.88,14.75,15.26,17.28a56.64,56.64,0,0,0,14.87,2.08c20.64,0,36.12-13,40.46-33.51-11,12.1-26.61,18.71-44.45,18.71a81.7,81.7,0,0,1-21.47-3A44.08,44.08,0,0,1,366.47,396.18Z"/><path class="cls-1" d="M372.4,410.31A99,99,0,0,1,381,398.58q-3.67-.57-7.4-1.53c-.29,6.34-.66,11.31-1.2,13.26Z"/><path class="cls-2" d="M372.4,411.52h0a1.22,1.22,0,0,1-1.17-1.54c.45-1.62.83-5.86,1.16-13a1.16,1.16,0,0,1,.49-.92,1.19,1.19,0,0,1,1-.2c2.42.62,4.87,1.12,7.29,1.5a1.22,1.22,0,0,1,.74,2A96.18,96.18,0,0,0,373.43,411,1.2,1.2,0,0,1,372.4,411.52Zm2.33-12.93c-.13,2.66-.27,4.85-.42,6.64q2.1-3,4.4-5.81C377.38,399.18,376.05,398.9,374.73,398.59Z"/><path class="cls-1" d="M280.91,279.2s-16.91,6-28.89.55c-25.56-11.63-34.8-8-28,10.43,13.63,37.08,65.48,55.1,96.7,37.74C300.53,304,280.91,279.2,280.91,279.2Z"/><path class="cls-2" d="M293.1,335.79h0c-26.63,0-59.3-15.52-70.21-45.19-2.7-7.33-3-12.4-.79-15.52,3.67-5.26,13.47-4.15,30.42,3.56a27.7,27.7,0,0,0,11.5,2.18,56.09,56.09,0,0,0,16.48-2.77,1.23,1.23,0,0,1,1.36.39c.19.25,19.84,25,39.79,48.69a1.19,1.19,0,0,1,.27,1,1.23,1.23,0,0,1-.6.85A58.2,58.2,0,0,1,293.1,335.79Zm-63.31-61.51c-2.8,0-4.67.72-5.7,2.19-1.66,2.38-1.29,6.85,1.08,13.29,10.52,28.62,42.14,43.6,67.93,43.6a56.25,56.25,0,0,0,25.73-5.81c-17.81-21.17-35.14-42.89-38.35-46.93A57.84,57.84,0,0,1,264,283.25a29.94,29.94,0,0,1-12.5-2.4C241.93,276.49,234.62,274.28,229.79,274.28Z"/><path class="cls-1" d="M549.07,284.1s30,0,13.62-43.62S510.93,174,537.09,139.66c-1.64-34.41,11.3-47.91,35.86-55.21,26.26-7.81,62.81-1.84,56.53,36.61,27.53,5.18,46.42,24.63,43.33,48.59-3.27,25.26-26.21,40.08-49.65,35.16-7.11,7.65-24.46,17.18-34.85,13.87,28.92,37.62,44.55,71.95,33.79,99.21-12.46,31.72-40.33,42.54-72.47,39.24s-52.34-40.32-52.34-40.32Z"/><path class="cls-2" d="M560.41,358.91a107.55,107.55,0,0,1-10.91-.57c-32.42-3.28-52.44-39.42-53.28-40.95a1.22,1.22,0,0,1,.42-1.61l51.78-32.7a1.23,1.23,0,0,1,.65-.19c.09,0,9-.12,13.91-7.28s4.5-18.9-1.43-34.7c-5.11-13.64-12.24-25.44-18.52-35.86-14.07-23.32-25.21-41.76-7.17-65.77-1.4-31.59,9.27-47.83,36.75-56a72.93,72.93,0,0,1,20.57-3c13.7,0,24.84,4.23,31.36,11.9,5.87,6.91,8,16.3,6.31,27.94,28.51,5.81,46.21,26.12,43.16,49.72-2.79,21.52-20.4,37.15-41.88,37.15a45.14,45.14,0,0,1-8.56-.83c-7.29,7.51-22.28,15.27-32.36,14.36,31.21,41.32,41.69,73.35,32,97.85C612.8,344.88,591.08,358.91,560.41,358.91Zm-61.49-41.7c3.48,5.85,22.6,35.85,50.83,38.72a105.54,105.54,0,0,0,10.66.56c20.63,0,47.89-6.78,60.56-39,9.53-24.14-1.47-56.2-33.62-98a1.2,1.2,0,0,1,0-1.44,1.23,1.23,0,0,1,1.36-.46,14.39,14.39,0,0,0,4.36.62c9.48,0,23-7.46,29.23-14.16a1.22,1.22,0,0,1,1.13-.36,42.37,42.37,0,0,0,8.73.91c20.24,0,36.84-14.73,39.47-35,2.92-22.57-14.5-42-42.35-47.24a1.2,1.2,0,0,1-1-1.39c1.87-11.44,0-20.57-5.59-27.13-6.05-7.13-16.53-11-29.51-11a70.69,70.69,0,0,0-19.88,2.94c-22.24,6.6-36.7,18.31-35,54a1.24,1.24,0,0,1-.25.79c-17.41,22.87-6.62,40.76,7.05,63.41,6.34,10.5,13.52,22.41,18.72,36.25,6.23,16.62,6.61,29.05,1.13,37-5.14,7.42-13.63,8.21-15.52,8.29Z"/><path class="cls-1" d="M618.73,134.42c0,.78-1.5,1.4-3.39,1.4s-3.38-.62-3.38-1.4,1.51-1.4,3.38-1.4S618.73,133.64,618.73,134.42Z"/><path class="cls-2" d="M615.34,137c-2.75,0-4.6-1.06-4.6-2.62s1.89-2.62,4.6-2.62,4.61,1,4.61,2.62S618.1,137,615.34,137Zm-1.54-2.62a7.89,7.89,0,0,0,3.1,0A7.71,7.71,0,0,0,613.8,134.42Z"/><path class="cls-1" d="M635.3,134.35c0,1-2.08,1.93-4.65,1.93s-4.65-.89-4.65-1.93,2.08-1.94,4.65-1.94S635.3,133.26,635.3,134.35Z"/><path class="cls-2" d="M630.65,137.49c-2.92,0-5.87-1.08-5.87-3.14,0-1.86,2.41-3.16,5.87-3.16s5.87,1.3,5.87,3.16C636.52,136.41,633.56,137.49,630.65,137.49Zm-3.3-3.16a7.82,7.82,0,0,0,6.6,0,8,8,0,0,0-6.6,0Z"/><path class="cls-1" d="M575.41,175.12s18,22.29,40.3,25.72C590.85,221.4,561.7,212.84,575.41,175.12Z"/><path class="cls-2" d="M589.86,212.94c-6.7,0-12.22-2.61-15.54-7.36s-6.15-14.11-.06-30.87a1.22,1.22,0,0,1,2.09-.35c.18.22,18,22,39.55,25.28a1.22,1.22,0,0,1,.58,2.14C607.78,209,598.32,212.94,589.86,212.94Zm-14-35.42c-3.78,11.42-3.64,20.84.45,26.67,2.9,4.13,7.58,6.32,13.55,6.32,7.13,0,15.4-3.24,23-9C594.88,197.59,580.33,182.57,575.86,177.52Z"/><path class="cls-1" d="M572,194.52c1,14.46,12.37,19.79,26,16C596.62,195.53,585.2,190.39,572,194.52Z"/><path class="cls-2" d="M589.88,212.93h0c-11.17,0-18.3-6.85-19.09-18.32a1.22,1.22,0,0,1,.84-1.25,29.85,29.85,0,0,1,8.78-1.43c10.71,0,17.72,6.92,18.76,18.51a1.21,1.21,0,0,1-.89,1.27A31.36,31.36,0,0,1,589.88,212.93Zm-16.59-17.52c1,9.6,7,15.09,16.59,15.09h0a28.18,28.18,0,0,0,6.76-.87c-1.22-9.72-7.08-15.27-16.23-15.27A26.18,26.18,0,0,0,573.29,195.41Z"/><path class="cls-1" d="M512.56,312.08c11.45,6,39.79,66,32.16,97.59s-40.35,44.68-75.22,32.69-4.91-46.85,2.73-68.66,3.25-39.25,3.25-39.25Z"/><path class="cls-2" d="M494.62,448a78.26,78.26,0,0,1-25.51-4.47c-8.35-2.86-13.57-7.12-15.93-13-4.69-11.62,3.29-27.16,10.32-40.87a141.22,141.22,0,0,0,7.58-16.33c7.4-21.2,3.26-38.39,3.22-38.56a1.2,1.2,0,0,1,.55-1.33L511.93,311a1.2,1.2,0,0,1,1.19,0c11.6,6.09,40.56,66.69,32.78,98.95C540.24,433.4,520.59,448,494.62,448ZM476.85,335c.79,3.87,3.3,19.66-3.47,39.07a143.7,143.7,0,0,1-7.72,16.64C458.87,404,451.16,419,455.43,429.6c2.09,5.18,6.82,9,14.47,11.61a76.13,76.13,0,0,0,24.72,4.33c24.79,0,43.54-13.85,48.92-36.15,7.25-30.05-19.68-88.46-31-95.89Z"/><path class="cls-1" d="M460.31,423.2a53.73,53.73,0,0,1-7.19-3.09c-.92,9.48,2.84,17.62,16.38,22.25,33.59,11.56,65.17-.16,74.26-29.29C523.46,430,492.55,434.28,460.31,423.2Z"/><path class="cls-2" d="M494.62,448a78.26,78.26,0,0,1-25.51-4.47c-12.69-4.33-18.32-12-17.2-23.51a1.23,1.23,0,0,1,.63-.95,1.21,1.21,0,0,1,1.14,0,53,53,0,0,0,7,3,106.84,106.84,0,0,0,34.66,6.07c18.62,0,35.09-5.53,47.62-16a1.22,1.22,0,0,1,1.94,1.29C538.27,434.74,519,448,494.62,448Zm-40.41-26c-.29,9.33,4.74,15.46,15.69,19.19a75.88,75.88,0,0,0,24.72,4.34c22.09,0,39.21-10.73,46.59-28.94-12.5,9.14-28.25,13.94-45.85,13.94a109,109,0,0,1-35.45-6.2A55.15,55.15,0,0,1,454.21,422Z"/><path class="cls-1" d="M355.28,309.77c10.82,7,33.4,69.39,22.82,100.14s-44.36,40.72-78,25.49-.46-47.14,9.2-68.12,6.94-38.76,6.94-38.76Z"/><path class="cls-2" d="M330.82,443.65a75.44,75.44,0,0,1-31.19-7.14c-8.05-3.65-12.84-8.39-14.64-14.47-3.57-12,5.84-26.75,14.15-39.74a140.68,140.68,0,0,0,9.08-15.52c9.38-20.43,6.87-37.91,6.85-38.08a1.2,1.2,0,0,1,.67-1.27l39-18.75a1.19,1.19,0,0,1,1.18.07c11,7.14,34.11,70.16,23.31,101.56C372.08,431.18,354,443.65,330.82,443.65ZM317.58,329.24c.42,3.92,1.42,19.88-7.15,38.55a141.84,141.84,0,0,1-9.25,15.82c-8,12.55-17.11,26.78-13.86,37.74,1.59,5.37,5.94,9.6,13.31,12.95a73.14,73.14,0,0,0,30.19,6.92c22.07,0,39.32-11.85,46.14-31.7,10.05-29.25-11.25-89.9-21.8-98.34Z"/><path class="cls-1" d="M292.81,415.43a52.84,52.84,0,0,1-6.9-3.7c-1.77,9.35,1.18,17.76,14.22,23.67,32.35,14.68,64.89,6,76.71-22.16C355,428.16,323.86,429.49,292.81,415.43Z"/><path class="cls-2" d="M330.81,443.66a76.5,76.5,0,0,1-31.18-7.15c-12.18-5.52-17.06-13.7-14.91-25a1.18,1.18,0,0,1,.71-.88,1.22,1.22,0,0,1,1.14.09,53.93,53.93,0,0,0,6.74,3.62c14.22,6.44,28.46,9.7,42.34,9.7,15.21,0,29.21-4.08,40.5-11.79a1.22,1.22,0,0,1,1.81,1.47C370.08,432.46,352.46,443.66,330.81,443.66Zm-44-29.94c-1.13,9.25,3.29,15.81,13.8,20.58a74.07,74.07,0,0,0,30.18,6.93c19.46,0,35-9,43.16-24.72-11,6.52-24.18,9.95-38.32,9.95s-28.8-3.34-43.34-9.92A57.5,57.5,0,0,1,286.83,413.72Z"/><path class="cls-1" d="M289.08,279.2c17.44-4.89,56.14-26.15,84.49-54.5s56.69-43.06,83.94-28.9c28.09,14.61,44.15,51.78,90.49,74.68-31.08,33.26-60.5,85.81-127.56,85C325.59,354.42,289.08,279.2,289.08,279.2Z"/><path class="cls-2" d="M421.89,356.75h-1.47c-94.51-1.1-132.06-76.25-132.43-77a1.21,1.21,0,0,1,.76-1.7c17.34-4.86,56.17-26.4,84-54.19,23.35-23.35,44-34.71,63-34.71a48,48,0,0,1,22.3,5.59c12.32,6.41,22.09,16.8,33.4,28.84,14.5,15.43,30.94,32.92,57.07,45.83a1.23,1.23,0,0,1,.66.87,1.25,1.25,0,0,1-.31,1.05c-5.52,5.9-10.91,12.33-16.63,19.14C506.19,321.53,476.64,356.75,421.89,356.75Zm-131-76.81c5.38,9.86,43.42,73.37,129.6,74.37h1.44c53.62,0,82.78-34.76,108.51-65.43,5.36-6.38,10.44-12.43,15.61-18.05-25.68-13-41.93-30.32-56.31-45.61-11.16-11.88-20.8-22.14-32.75-28.35a45.58,45.58,0,0,0-21.18-5.32c-18.4,0-38.46,11.12-61.34,34C345.87,254.12,308.45,274.48,290.85,279.94Z"/><path class="cls-1" d="M342.36,295.5c12.79,6.14,31.32-10.17,25.16-25.18-5-12.2-14.09-22-17.33-25.32a283.5,283.5,0,0,1-24.42,16.64C326.68,275.8,331.11,290.07,342.36,295.5Z"/><path class="cls-2" d="M348.34,298h0a14.91,14.91,0,0,1-6.5-1.45c-10-4.83-16.14-17.22-17.27-34.87a1.21,1.21,0,0,1,.58-1.12A281.07,281.07,0,0,0,349.45,244a1.21,1.21,0,0,1,1.6.12c3.62,3.67,12.59,13.53,17.59,25.7,2.33,5.67,1.5,12.13-2.26,17.74C362.12,293.94,355,298,348.34,298ZM327,262.29c.72,9.81,3.77,26.28,15.85,32.11a12.39,12.39,0,0,0,5.45,1.21h0c5.82,0,12.26-3.76,16-9.37,3.35-5,4.07-10.49,2-15.46-4.52-11-12.44-20.11-16.33-24.17C342.61,252.24,334.87,257.51,327,262.29Z"/><path class="cls-1" d="M444.78,309.17c-4.42-11.91-23.69-10.79-37.09-8.82-15,2.2-17.21,14.15-4.41,21.63S449.18,321.12,444.78,309.17Z"/><path class="cls-2" d="M416.54,326h0c-5.71,0-10.51-1-13.88-3-6.48-3.79-9.77-9-8.8-14.06s6.09-8.71,13.66-9.82a103.68,103.68,0,0,1,15-1.25c12.85,0,20.73,3.65,23.4,10.85a7.45,7.45,0,0,1-1.05,7.1C440.26,322.47,426.83,326,416.54,326Zm6-25.71a101.65,101.65,0,0,0-14.65,1.22c-6.5.95-10.85,3.9-11.62,7.88s2.09,8.25,7.64,11.51c3,1.74,7.37,2.67,12.65,2.67,11,0,22.83-4.1,26.34-9.15a5,5,0,0,0,.76-4.87C441.36,303.44,434.25,300.33,422.52,300.33Z"/><path class="cls-1" d="M527.27,258.09a179.18,179.18,0,0,1-21-17.63c-8.18,6.19-34.15,32.45-24.35,43.13C491.54,294.07,517.23,268.54,527.27,258.09Z"/><path class="cls-2" d="M487.82,287.28h0a8.94,8.94,0,0,1-6.84-2.87,10,10,0,0,1-2.44-8c1.22-13.48,21.36-32.65,26.95-36.87a1.2,1.2,0,0,1,1.57.09A176.63,176.63,0,0,0,528,257.09a1.22,1.22,0,0,1,.51.88,1.26,1.26,0,0,1-.33,1C510.08,277.74,496.51,287.28,487.82,287.28Zm18.32-45.21C498.68,248,482,265.32,481,276.6a7.58,7.58,0,0,0,1.81,6.16,6.46,6.46,0,0,0,5.05,2.09h0c5.42,0,16.33-4.65,37.6-26.59A178.12,178.12,0,0,1,506.14,242.07Z"/><path class="cls-1" d="M479.82,213.19c-7.11-7.08-14.2-13.17-22.31-17.39-22.29-11.6-45.32-3.86-68.46,14.86-5.63,12.86,5.25,34.56,23.94,40.68C442.56,261,488,235.42,479.82,213.19Z"/><path class="cls-2" d="M427.09,254.66h0a46.48,46.48,0,0,1-14.48-2.17A39.81,39.81,0,0,1,389.28,231c-3.36-7.52-3.86-15.12-1.35-20.85a1.28,1.28,0,0,1,.35-.45c17.14-13.86,32.67-20.6,47.47-20.6a48,48,0,0,1,22.32,5.6c7.22,3.75,14,9,22.61,17.61a1.07,1.07,0,0,1,.28.44c2.15,5.8,1,12.15-3.34,18.37C468.28,244.55,446.56,254.66,427.09,254.66Zm-37-43.25c-2.1,5.08-1.57,11.84,1.46,18.62a37.31,37.31,0,0,0,21.87,20.15,44,44,0,0,0,13.72,2c18.43,0,39.75-9.87,48.54-22.48,3.79-5.44,4.88-10.93,3.14-15.89-8.35-8.3-14.89-13.38-21.82-17a45.55,45.55,0,0,0-21.2-5.33C421.59,191.55,406.64,198.05,390,211.41Z"/><path class="cls-2" d="M423.17,278.87c-24,0-57.2-32.94-61.17-43.22a1.22,1.22,0,1,1,2.27-.87c3.82,9.9,35.82,41.66,58.9,41.66,38.4,0,71.73-45,72.06-45.45a1.21,1.21,0,0,1,2,1.4C496.88,232.85,462.69,278.87,423.17,278.87Z"/><path class="cls-1" d="M350.34,331.27c17.08-6,27-25.26,35-40.77,5.57-10.82,10-19.38,15.25-20.28Z"/><path class="cls-2" d="M350.34,332.48a1.2,1.2,0,0,1-1.14-.81,1.22,1.22,0,0,1,.74-1.55c16.62-5.82,26.42-24.87,34.3-40.17C390,278.82,394.49,270,400.37,269a1.21,1.21,0,1,1,.41,2.39c-4.68.8-9.18,9.54-14.38,19.65-8.07,15.69-18.12,35.21-35.65,41.35A1.18,1.18,0,0,1,350.34,332.48Z"/><path class="cls-1" d="M448.06,271.49c4,0,6.81,7.87,10.38,17.84,5.39,15,12.75,35.52,27.64,36.83Z"/><path class="cls-2" d="M486.08,327.37H486C470.31,326,462.79,305,457.3,289.75c-3.14-8.77-6.1-17.05-9.24-17.05a1.21,1.21,0,0,1,0-2.42c4.85,0,7.65,7.82,11.52,18.64,5.27,14.68,12.5,34.79,26.61,36a1.21,1.21,0,0,1,1.1,1.31A1.22,1.22,0,0,1,486.08,327.37Z"/><path class="cls-1" d="M277.14,287.15c-6.2-9.53-5-15.51,5-20.5s21.06,6.65,27.72,18.86,38.89,52.35,95.9,57.63c47.68,4.46,85.92-22.7,106.42-51s34.94-37.69,49.37-30.5c11.28,5.66,3.31,18.86-5,22.18-13.39,5.34-28.29,24.39-44.9,42.13S459,368.11,405.75,365.33,297.68,318.79,277.14,287.15Z"/><path class="cls-2" d="M414.05,366.76c-2.76,0-5.57-.08-8.36-.22-55.4-2.88-110.06-48.68-129.57-78.73-3.48-5.36-4.64-9.56-3.65-13.21s3.86-6.41,9.12-9a12.19,12.19,0,0,1,5.49-1.31c11.65,0,21.19,15.83,23.84,20.68,7.73,14.13,39.86,51.9,94.94,57,3.39.32,6.82.48,10.19.48,54,0,86.47-39,95.14-51,17-23.35,29.24-33.32,41.06-33.32a21.7,21.7,0,0,1,9.83,2.44c4.2,2.11,6.42,5.53,6.25,9.64-.27,6.42-6.09,12.66-11.33,14.76-10.31,4.11-21.92,17-34.2,30.59-3.35,3.71-6.77,7.5-10.26,11.24C503.73,336.17,470.63,366.76,414.05,366.76Zm-127-100.08a9.64,9.64,0,0,0-4.4,1.06c-4.54,2.26-7.11,4.72-7.87,7.49-.8,2.94.27,6.52,3.35,11.26,19.23,29.63,73.1,74.79,127.65,77.62,2.75.15,5.52.22,8.24.22,55.6,0,88.08-30,96.71-39.19,3.49-3.73,6.9-7.51,10.23-11.2,12.48-13.84,24.27-26.91,35.11-31.23,5.11-2,9.6-7.82,9.8-12.6.14-3.19-1.52-5.67-4.91-7.37a19.24,19.24,0,0,0-8.74-2.18c-10.81,0-22.86,10-39.09,32.32-8.84,12.19-42,52-97.11,52-3.45,0-6.95-.17-10.41-.49-56.14-5.19-88.95-43.81-96.85-58.26C303.66,276.71,295.27,266.68,287.08,266.68Z"/><path class="cls-1" d="M576.45,65c6.45-2.82,9.51,4.48,5.61,5.55-9.75,2.75-12.76,10.56-13.83,10.21C566.1,80.09,570.51,67.58,576.45,65Z"/><path class="cls-2" d="M568.3,82a1.69,1.69,0,0,1-.45-.07c-.47-.15-1.29-.64-1.37-2.2-.2-3.77,4.07-13.47,9.49-15.83a8.31,8.31,0,0,1,3.3-.74,5.57,5.57,0,0,1,5.69,4.6,3.44,3.44,0,0,1-2.58,4A22,22,0,0,0,570.77,80C569.76,81.28,569.21,82,568.3,82Zm11-16.41a5.85,5.85,0,0,0-2.33.54c-4.14,1.8-7.28,8.9-7.94,12.23a24.05,24.05,0,0,1,12.73-9,1.07,1.07,0,0,0,.83-1.32A3.15,3.15,0,0,0,579.27,65.57Z"/><path class="cls-1" d="M612.47,65.49c-6.4.19-6.05,7.36-2.42,6.74,9-1.55,14.51,3.69,15.25,3C626.79,73.83,618.35,65.28,612.47,65.49Z"/><path class="cls-2" d="M625.11,76.51h0a5.53,5.53,0,0,1-2.2-.81,20.67,20.67,0,0,0-9.51-2.54,18.47,18.47,0,0,0-3.13.27c-2.32.39-4-1.28-4-3.65,0-2.64,2.08-5.38,6.19-5.51h.24c5.5,0,12.52,6.23,13.78,9.41a2,2,0,0,1-.32,2.43A1.85,1.85,0,0,1,625.11,76.51Zm-11.72-5.78a22.35,22.35,0,0,1,9.94,2.48c-2-2.46-6.83-6.51-10.66-6.51-3.23.09-4,2-4,3,0,.14.05,1.32,1,1.32A22.91,22.91,0,0,1,613.39,70.73Z"/><path class="cls-1" d="M619.63,83.45c-7.14,5.11-8.8,27.11,6.29,38.94,14.38,11.3,29.33-4.09,26.87-17.08C650.7,94,634.18,73.06,619.63,83.45Z"/><path class="cls-2" d="M636.3,127.53h0a17.84,17.84,0,0,1-11.12-4.19,32.23,32.23,0,0,1-12-26.06c.15-6.69,2.37-12.37,5.78-14.81a15.42,15.42,0,0,1,9.08-3c13.19,0,24.32,16.62,26,25.67a19.54,19.54,0,0,1-4.45,15.79A17.39,17.39,0,0,1,636.3,127.53ZM628,81.85a13,13,0,0,0-7.66,2.59c-2.77,2-4.64,7-4.77,12.9a29.78,29.78,0,0,0,11.1,24.09,15.44,15.44,0,0,0,9.63,3.67h0a15,15,0,0,0,11.37-5.77,17.09,17.09,0,0,0,3.93-13.79C649.88,96.22,639,81.85,628,81.85Z"/><path class="cls-2" d="M630.74,101c1.51,3.18.67,6.74-1.89,8s-5.86-.41-7.35-3.6-.66-6.73,1.89-7.93S629.24,97.81,630.74,101Z"/><path class="cls-1" d="M623.51,101.06a1.89,1.89,0,0,1-.61,2.53,2.09,2.09,0,1,1,.61-2.53Z"/><path class="cls-1" d="M630.59,105.15a.92.92,0,0,1-.31,1.27.94.94,0,0,1-1.18-.55.85.85,0,1,1,1.49-.72Z"/><path class="cls-1" d="M589,84.34c-10,.75-24.64,21.23-16.91,41.72,7.33,19.5,31,13.35,36.31-.79C613,113,609.27,82.78,589,84.34Z"/><path class="cls-2" d="M588.7,139.62h0c-8.17,0-14.65-4.78-17.79-13.14a36.64,36.64,0,0,1,3.67-32.41c4.08-6.39,9.55-10.58,14.29-10.95,6.81-.5,12.45,2.31,16.46,8.11,6.55,9.49,7.46,25.78,4.17,34.47C606.47,133.77,597.72,139.62,588.7,139.62Zm1.75-54.13c-.46,0-.92,0-1.4.06-3.93.3-8.81,4.15-12.42,9.83a34.21,34.21,0,0,0-3.45,30.25c3.79,10.06,11.35,11.57,15.52,11.57,8,0,15.84-5.2,18.53-12.36,3.07-8.12,2.23-23.36-3.9-32.23C600.07,87.89,595.74,85.49,590.45,85.49Z"/><path class="cls-2" d="M591.1,111.06c-.43,4-3.36,6.94-6.54,6.62s-5.48-3.86-5-7.88,3.34-6.93,6.55-6.61S591.52,107,591.1,111.06Z"/><path class="cls-1" d="M584,106.82a1.9,1.9,0,1,1-3.68-.4,1.9,1.9,0,1,1,3.68.4Z"/><path class="cls-1" d="M588.49,115a1.11,1.11,0,0,1-1.06,1.1,1.21,1.21,0,0,1,.25-2.35A1,1,0,0,1,588.49,115Z"/></svg>