<svg id="Layer_43" data-name="Layer 43" xmlns="http://www.w3.org/2000/svg" viewBox="0 0 895 511.11"><defs><style>.cls-1{fill:#fff;stroke:#1d1d1b;stroke-miterlimit:10;}</style></defs><path class="cls-1" d="M454.34,476.41c-43.12-.41-190.08-9.24-190.52-59-.36-40,126.71-53.56,173.36-55,57.2-1.76,201.61,8.38,202.85,58.52C641.35,474.66,500.54,476.86,454.34,476.41Z"/><path class="cls-1" d="M402.42,400.51s29.25,10.06,36.08,34.76c5.72,20.68-14.74,40.27-14.74,40.27s34.54,1.53,59.62.66,46-2.31,46-2.31,13.86-15.73-1.53-39.94c-13.71-21.53-49.29-37-49.29-37Z"/><path class="cls-1" d="M396.92,46.52s15.84,22,12.76,35.65-11.58,18.53-38.28,28.6-51.95,18.11-75.68,38.28c-29.12,24.73-55.87,97.87-30.8,150.48,22.32,46.84,48.9,62.93,72.16,76.56,25.52,15,60.23,27.72,109.12,27.72,52.36,0,127.61-15.71,159.29-69.52,32.12-54.56,36.65-104.58,15.4-149.16-18-37.84-61.28-61.53-96.37-70-34.76-8.35-53-9.16-55-28.16-1.35-13.15,19.36-36.52,19.36-36.52s-9.68.45-14.52,5.28-13.64,18.92-13.64,18.92-2.2-10.56,0-20.24a102,102,0,0,1,4.84-15.84s-6.16,5.28-12.32,11.88S439.6,73.8,439.6,73.8A134.94,134.94,0,0,0,433.88,54c-3.31-9.26-7.48-19.36-7.48-19.36s-2.64,12.76-3.08,17.6S422,72.92,422,72.92s-2.2-4.84-8.36-13.2S396.92,46.52,396.92,46.52Z"/><path class="cls-1" d="M319.6,146c12.9-9.69,37.78-17,43.75-10.9,7.65,7.82-13.78,17.81-32.69,28.28-15.35,8.5-28.56,27.15-36.9,23C281.94,180.58,306.7,155.7,319.6,146Z"/><path class="cls-1" d="M285.21,199.83c10.54.7,7.26,23.1-3.3,22.44C272.25,221.66,275.31,199.17,285.21,199.83Z"/><path class="cls-1" d="M404.29,401.28c-.14-.34-16.37-4.88-16.37-4.88s-.72-2.17-1.11-3.37A344.57,344.57,0,0,1,376,350.85c-7.73-41.51-4.55-73.22,9.44-94.24,11.85-17.82,30.6-27.21,55.73-27.92,1.29,0,2.59-.05,3.86-.05,30.07,0,52.4,10.18,66.36,30.26,14.84,21.35,19.11,52.72,12.68,93.23a311.73,311.73,0,0,1-8.81,38.64c-.39,1.34-1.45,4.9-1.45,4.9s-15,3.26-15.18,3.63Z"/><path class="cls-1" d="M403.3,400.29s-60-155.62,38.28-158.4c116.82-3.3,56.76,158.4,56.76,158.4Z"/><path class="cls-1" d="M528.38,222.67c0-17.46,15-27.67,31.48-28.13,17.44-.48,30.56,9.7,31,27.16.48,19.4-10.66,28.13-31.48,28.61C539.5,250.78,528.38,242.07,528.38,222.67Z"/><path class="cls-1" d="M594.05,221.11c-.24-9.35-3.76-17.27-10.19-22.93-6.08-5.34-14.2-8.16-23.5-8.16H559.1c-20.29.56-35,14.07-35,32.11,0,10.35,3.06,18.39,9.11,23.87,5.73,5.2,13.9,7.83,24.3,7.83H559c12.46-.29,21.43-3.49,27.43-9.78C591.73,238.49,594.29,230.77,594.05,221.11Zm-35.2,26.12c-18.06.42-28.16-7.48-28.16-25.08,0-15.84,13.62-25.1,28.6-25.52,15.84-.44,27.76,8.8,28.16,24.64C587.89,238.87,577.77,246.79,558.85,247.23Z"/><path class="cls-1" d="M308.37,222.67c0-17.46,15-27.67,31.48-28.13,17.44-.48,30.56,9.7,31,27.16.49,19.4-10.66,28.13-31.48,28.61C319.49,250.78,308.37,242.07,308.37,222.67Z"/><path class="cls-1" d="M374,221.11c-.23-9.35-3.76-17.27-10.19-22.93-6.08-5.34-14.2-8.16-23.49-8.16h-1.26c-20.29.56-35,14.07-35,32.11,0,10.35,3.07,18.39,9.12,23.87,5.72,5.2,13.89,7.83,24.29,7.83H339c12.47-.29,21.44-3.49,27.43-9.78C371.72,238.49,374.28,230.77,374,221.11Zm-35.2,26.12c-18.06.42-28.16-7.48-28.16-25.08,0-15.84,13.62-25.1,28.6-25.52,15.84-.44,27.76,8.8,28.16,24.64.48,17.6-9.64,25.52-28.56,26Z"/><path class="cls-1" d="M393,404.25c-2-5.72,37-10.87,57.91-10.56,28.95.44,59.43,4.41,60.45,9.68S481.85,410,457,410.85,395,410,393,404.25Z"/><path class="cls-1" d="M445.36,274.42s-8-6.32-13.64-2.2c-4.05,3-3.65,10.86.88,13.64,5.72,3.52,12.76,7.26,12.76,7.26s4-2.64,8.14-5.72,11.2-8.78,4.77-14.66C452.84,267.77,445.36,274.42,445.36,274.42Z"/><path class="cls-1" d="M489.79,318.14a13,13,0,1,0,13,13,13,13,0,0,0-13-13Zm0,22a9,9,0,1,1,9-9A9,9,0,0,1,489.79,340.14Z"/><path class="cls-1" d="M494.19,320.48c0,1.77-2.21,3.21-4.95,3.21s-4.95-1.44-4.95-3.21,2.22-3.22,4.95-3.22S494.19,318.7,494.19,320.48Z"/><path class="cls-1" d="M370.85,454c-1.6-3.29,4.72-6.82,11.06-7.72s16.64,3.21,16.35,5.91-5.62,3.41-11.5,3.58S372.46,457.28,370.85,454Z"/><path class="cls-1" d="M295.65,434.7c-1.37-2.8,4-5.8,9.39-6.57s14.15,2.72,13.91,5-4.78,2.9-9.77,3S297,437.5,295.65,434.7Z"/><path class="cls-1" d="M393.67,421.71c-.21-2.53,5.39-6.16,10.54-5.93,6.19.28,10.1,4.1,10.08,5.68-.06,3.55-2.7,4.37-9.4,4.21S394.08,426.52,393.67,421.71Z"/><path class="cls-1" d="M546.14,431c-.18-2.15,4.57-5.23,8.93-5,5.25.24,8.57,3.47,8.55,4.81,0,3-2.28,3.71-8,3.57S546.49,435,546.14,431Z"/><path class="cls-1" d="M578.32,450.28c-.27-1.86,4.89-4.07,8.07-3.89s9.29,1.62,9.05,4.39-4.51,2.33-8.28,2.45S578.58,452.14,578.32,450.28Z"/><path class="cls-1" d="M548.31,400.43s-18.89-26-14.87-29,9.67,12.75,12.27,12,7.7-52.93,14.55-53.64S562.2,359,566,359.72s28.83-51.82,36.86-49.22-10.75,41.72-6.5,45.26S617.3,325,623.2,330.68s-19.2,29.15-15.88,32.69,19.39-8.72,22.46-5.41-13.49,9.19-19.63,20.28-11.8,21.25-11.8,21.25-11.57-1.65-25-2.13A85.39,85.39,0,0,0,548.31,400.43Z"/><path class="cls-1" d="M282.13,400.43s-31.68-40-26.62-44.22,24.2,12.1,24.2,12.1S267.39,330,274,328.05s20.46,37.84,22.88,37.84-.19-44.64,8.8-43.78c4.62.44,1.33,40,5.28,37.18,3.74-2.64,10.18-38.45,20-34.76,1.76.66-2.64,9-4.18,16.28s-1.76,20-.22,20.68,15.5-22.15,18.7-20c2.64,1.76-2,12.32-5.06,24.42s-1.32,34.32-1.32,34.32-34.54-2.2-28.82-1.87Z"/></svg>