<svg id="Layer_36" data-name="Layer 36" xmlns="http://www.w3.org/2000/svg" viewBox="0 0 895 511.11"><defs><style>.cls-1{fill:#fff;stroke:#1d1d1b;stroke-miterlimit:10;}</style></defs><path class="cls-1" d="M304.65,402.48c21.5-9.62,45.42-14.37,69.27-17.81,61.78-8.9,125.88-9.45,186.34,4.73C584,395,608.18,403.45,623.77,420c1.92,2,3.75,4.3,4.29,6.9,1.75,8.33-9.45,13.86-18.75,16.38-66.22,18-136.4,21.61-205.76,21.77-39.09.08-75.86-2.53-112.86-14-12.14-3.77-30-7.56-23.06-22.19C273.07,417.36,292.6,407.87,304.65,402.48Z"/><path class="cls-1" d="M382.26,140.31c-36.3-5.43-77.66,1.1-101.08,29.36-8.78,10.59-14.4,23.5-18.11,36.75-17.72,63.44,11.59,137,68.09,170.85,21.38,12.81,45.61,20.17,70,25.09,21.16,4.26,42.72,6.79,64.3,6.48,54.69-.78,109.93-21,148.19-60.12s57.48-97.59,44.4-150.7c-5.89-23.89-18.83-47.12-39.87-59.88-14.83-9-32.46-12.14-49.76-13.24a239.28,239.28,0,0,0-98.9,14.71C438.23,151.41,415.1,145.21,382.26,140.31Z"/><path class="cls-1" d="M658.1,198c-5.89-23.89-18.83-47.12-39.87-59.88a84.49,84.49,0,0,0-23.29-9.41c12.7,13,21,30.49,25.42,48.33,13.08,53.1-6.13,111.61-44.39,150.7s-93.5,59.34-148.19,60.12c-21.58.31-43.15-2.22-64.3-6.48a263.54,263.54,0,0,1-45.32-13,136.46,136.46,0,0,0,13,8.85c21.38,12.81,45.61,20.17,70,25.09,21.16,4.26,42.72,6.79,64.3,6.48,54.69-.78,109.93-21,148.19-60.12S671.18,251.13,658.1,198Z"/><path class="cls-1" d="M482,46.93a15.88,15.88,0,0,1,6.56-.79,13.21,13.21,0,0,1,7.2,4.25,28.44,28.44,0,0,1,8,18.66,35,35,0,0,0-34.9,47.83,18.88,18.88,0,0,0,5.7,8.19c4.33,3.29,11,4.05,13.26,9,2.19,4.68-1.41,10.42-6.17,12.43s-10.17,1.35-15.29.65a28,28,0,0,1-37.92,11.41,28.54,28.54,0,0,1-4.52-3c-6.11,3.9-14.46,5.07-20.54,1.13-11.19-7.24-3.13-22.61-.23-32.1A115.72,115.72,0,0,1,420.3,90.39C435.38,69.71,457.22,53.76,482,46.93Z"/><path class="cls-1" d="M468.46,74.77a37.61,37.61,0,0,0-9.8,16.16c-4.13,14.27,2,31.31,15.12,38.35,3.76,2,8.55,4,9.13,8.22.31,2.26-.8,4.49-2.22,6.28a14.27,14.27,0,0,1-4.94,3.95,17.37,17.37,0,0,0,5.86-1.29c4.76-2,8.36-7.75,6.17-12.43-2.3-4.93-8.93-5.69-13.26-9a18.86,18.86,0,0,1-5.7-8.2A35,35,0,0,1,503.72,69a28.13,28.13,0,0,0-1.07-6.7h-1.17C489.2,62,477.29,66,468.46,74.77Z"/><path class="cls-1" d="M466.15,147.38c-2.55-1.84-3.92-5-5.13-7.94q-2.88-7.08-5.77-14.15c-.33,4.28.63,8.54,1,12.82s0,8.89-2.55,12.32c-4.17,5.58-12.42,5.95-19.23,4.52-1.64-.34-3.39-.84-4.43-2.15a7.72,7.72,0,0,1-1.23-4.43,207.4,207.4,0,0,1,0-25.91,242.26,242.26,0,0,1-6.21,24.62c-.74,2.43-1.64,5-3.66,6.52a10.51,10.51,0,0,1-6.24,1.67,32.76,32.76,0,0,1-13.22-2.53,12.43,12.43,0,0,0,3.88,3.86c6.08,3.94,14.43,2.77,20.54-1.13a28,28,0,0,0,42.27-8.09Z"/><path class="cls-1" d="M560.17,221.05s16.59,0,24.22,20.49a137.06,137.06,0,0,1,7.44,33.94l-49.27,3.37s1.94-23.92-4.95-35.77c-9.67-16.65-23.1-16.91-23.1-16.91Z"/><path class="cls-1" d="M470.78,375.79c-.36-1.42-8.33-94.55-6.12-104.86s11.51-27.14,31.71-26,22.16-13.28,29.74-.06.48,126.61.48,126.61Z"/><path class="cls-1" d="M509.41,246.69a23.9,23.9,0,0,0-1.85-2.81,33.77,33.77,0,0,1-11.19,1.1,29.91,29.91,0,0,0-3.28,0A31.92,31.92,0,0,1,484,246.8c-11.75,4.51-17.62,16.25-19.31,24.16-2.21,10.31,5.76,103.44,6.12,104.86l39.13-3C510.41,364.63,516.7,259.39,509.41,246.69Z"/><path class="cls-1" d="M441.38,291.39l62.34-3.26s4.74-41.46,24.3-55.44c17-12.17,32.15-11.64,32.15-11.64l-75.47,2.29a40.41,40.41,0,0,0-29.35,21C443.24,266.65,441.38,291.39,441.38,291.39Z"/><polygon class="cls-1" points="470.78 375.79 471.85 377.7 504.75 434.95 522.91 436.41 478.19 363.76 470.18 369.67 470.78 375.79"/><polygon class="cls-1" points="512.9 368.79 552.23 430.58 570.38 432.04 525.66 359.39 512.9 368.79"/><path class="cls-1" d="M492.06,382.79c.37,0,46.46-4.48,46.46-4.48l3.87,4.48-43.55,7.26Z"/><path class="cls-1" d="M504.45,402.27c.36,0,46.46-4.48,46.46-4.48l3.87,4.48-43.56,7.25Z"/><path class="cls-1" d="M516.48,422.71c.36,0,46.46-4.47,46.46-4.47l3.87,4.47L523.25,430Z"/><polygon class="cls-1" points="492.94 378.98 517.36 375.79 538.52 378.31 495.18 382.5 492.94 378.98"/><polygon class="cls-1" points="507.6 401.97 549.39 397.94 528.93 393.98 504.18 396.61 507.6 401.97"/><polygon class="cls-1" points="520.59 422.33 561.95 418.33 541.64 413.95 517.23 417.06 520.59 422.33"/><polygon class="cls-1" points="478.19 363.76 483.23 363.76 528.45 434.66 522.91 436.41 478.19 363.76"/><polygon class="cls-1" points="525.66 359.39 530.7 359.39 575.92 430.29 570.38 432.04 525.66 359.39"/><path class="cls-1" d="M404.56,256.22c0,30.9-25.25,57.84-52.86,55.95-29.13-2-52.87-25.05-52.87-55.95s23.67-56,52.87-56S404.56,225.32,404.56,256.22Z"/><path class="cls-1" d="M372.85,205.22c-26.66,2.86-47.46,26.69-47.46,55.66,0,22.94,13,42.65,31.7,51.29,26.66-2.86,47.47-26.69,47.47-55.67C404.56,233.57,391.51,213.85,372.85,205.22Z"/><path class="cls-1" d="M609,236.13c-1.45,29.07,8.64,55,21.16,53.82,13.19-1.22,25-22.38,26.4-51.45s-8-53.16-21.15-53.82S610.49,207.06,609,236.13Z"/><path class="cls-1" d="M625.7,188.87c11.86,3.29,20.1,26.17,18.74,53.42-1.08,21.58-7.87,39.83-16.67,47.54-11.86-3.29-20.1-26.18-18.74-53.43C610.1,214.82,616.9,196.57,625.7,188.87Z"/><path class="cls-1" d="M275,219c-4.23,16.56-4.43,33.94-2.43,50.91.64,5.46,1.58,11.09,4.62,15.68,1.07,1.6,2.6,3.16,4.53,3.24,3.62.13,5.16-4.52,5.48-8.13,1.18-13,1.24-26.16,2.86-39.15s4.9-26,12-37.05a61.31,61.31,0,0,1,42-27.23c2.62-.39,5.35-.64,7.67-1.93s4.1-4,3.36-6.56a6.52,6.52,0,0,0-2.52-3.24c-3.94-2.92-9.2-3.25-14.09-3-14.75.78-31,5.33-41.48,16C286.09,189.69,278.84,204,275,219Z"/><path class="cls-1" d="M362.45,181.07a12.19,12.19,0,0,0-1.59,5.19,5.28,5.28,0,0,0,2.3,4.68,9.59,9.59,0,0,0,4.42.85A28.36,28.36,0,0,1,377,194a9.85,9.85,0,0,0,4,1.14c2.93-.09,4.8-3,6.47-5.44a34.65,34.65,0,0,1,14.82-12.09c2.46-1.05,5.22-2,6.73-4.16,8-11.69-14-12.47-19.84-11.16C377.94,164.77,367.91,170.49,362.45,181.07Z"/><path class="cls-1" d="M496.69,154.71c6.86.57,13.58-1.82,20.06-4.15,9.74-3.49,19.6-6.93,29.88-8.2s21.1-.25,30.16,4.76c4.53,2.5,8.93,6.07,14.1,6a6,6,0,0,0,3.2-.83c2.36-1.54,2.48-5.18,1-7.56s-4.14-3.77-6.7-4.94c-29.72-13.69-63.94-11.44-92.73,3.33C489.27,146.37,487.09,153.9,496.69,154.71Z"/><path class="cls-1" d="M421.1,178.57c-1.19,5.06-.2,10.35.58,15.49a184.45,184.45,0,0,1,1.88,35.22c-.32,7.34-1.06,14.81.71,21.93.77,3.09,2.58,6.52,5.74,6.82,4.13.4,6.44-4.58,7.27-8.64,3.33-16.29,3.18-33.28,8.14-49.14,2.4-7.68,6-16.09,2.54-23.37C442.35,164.92,424.33,164.86,421.1,178.57Z"/><path class="cls-1" d="M475.1,402.27c-.52-4.2-.84-20-4.93-18.93-25,6.71-39.81,5.37-47.52-13.29-2.65-6.42-3-20.26-9.23-17.25-8.47,4.08-6,17.95-13.12,24.14-5.06,4.42-12.88,3.11-19.09.54-13-5.4-23.78-15-34.27-24.42-1-.92-2.22-1.91-3.59-1.79-2.43.22-3.16,3.53-2.55,5.89s1.87,4.82,1,7.11c-.8,2.1-3.26,3.21-5.51,3.1a14.33,14.33,0,0,1-6.28-2.32c-12.25-7.09-22.44-17.3-31.36-28.29-2.74-3.38-7.19-7.2-10.79-4.77a4.79,4.79,0,0,0-1.78,2.31,146.31,146.31,0,0,0,45.16,43c21.38,12.81,45.62,20.17,70.05,25.09,21.16,4.26,42.72,6.79,64.3,6.48,2.24,0,4.47-.1,6.71-.19C474.16,406.9,475.4,404.73,475.1,402.27Z"/></svg>