<svg id="Layer_166" data-name="Layer 166" xmlns="http://www.w3.org/2000/svg" viewBox="0 0 895 511.11"><defs><style>.cls-1{fill:#fff;}</style></defs><g id="Helicopter"><path class="cls-1" d="M709.81,362.29c10.26,15.28-6.39,29.38-21.47,28-10.78-1-21.28-6.05-30.83-12.16a60.78,60.78,0,0,1-15.35-8.09,8.91,8.91,0,0,0,2.37-2.51,10.66,10.66,0,0,0,.71-9.33c7-1.29,13.9-2.75,20.83-3.59q5.8-.88,11.67-1.25C688,352.77,703.27,352.55,709.81,362.29Z"/><path class="cls-1" d="M656.18,337.43a56.87,56.87,0,0,1,8,9.54c-6.66,1.37-12.86,3-17.86,4.53a192,192,0,0,0,2.93-20.06C651.42,333.54,654.05,335.36,656.18,337.43Z"/><path class="cls-1" d="M651.09,383.62c-1.69,1.26-3.32,2.83-4.92,3.79A52,52,0,0,1,641,389.8c.54-4.72.88-9.17,1.08-13C645,379.05,648,381.36,651.09,383.62Z"/><path class="cls-1" d="M640.73,331.92c.33,7.22-.12,14.53-.36,21.77a16.26,16.26,0,0,0-2.76-.77,10.52,10.52,0,0,0-3.72-.51,8.61,8.61,0,0,0-7.6,5.78c-6.94-9.57-14.66-19-19.13-29.77-4.87-8.69-9.92-20.29-4.88-29.38,8.89-16.11,29-7.75,34.74,6.26C640.32,313.46,641.11,322.69,640.73,331.92Z"/><path class="cls-1" d="M639.92,359.05c.79,1.3.35,3.27-.26,4.52-1.46,3-6,2.94-7.68.05-2.76-4.87,3.1-7.15,6.34-6.07A5.27,5.27,0,0,1,639.92,359.05Z"/><path class="cls-1" d="M636.65,371.84a.13.13,0,0,1,0,.08c-.06,0-.15.05-.22.1-.54,1.77-1,3.53-1.5,5.31A158.63,158.63,0,0,1,629.81,405c-2.87,9.89-7.79,24.32-19.16,27.2-17.84,4.53-25.52-15.89-19.19-29.64,6.93-15,22.63-26.13,36.09-35A11,11,0,0,0,636.65,371.84Z"/><path class="cls-1" d="M622.61,361.39a3.15,3.15,0,0,0,.29.22c-11.59,7.26-25.17,15.79-34,27.14-9.95.11-19.93.54-29.77,1.4-34.13-.2-68.27-.13-102.4-.06,2-10.37,8.89-19.08,14.69-27.69,6.12-9.09,11.83-18.33,18.4-27.12,12.5-16.72,28.24-34.61,32.28-55.74,1.65-8.57,1.13-18-3.34-25.64-5-8.61-13.83-13.48-15.68-23.94-2.92-16.45,4.16-34.64,11.88-49.79a194.74,194.74,0,0,1,21.43,44.11,226.48,226.48,0,0,1,10.88,50.21c1.74,17.25,1.91,35.35,6.77,52.11,3.64,12.54,12.46,23.18,23.59,30.4a30.32,30.32,0,0,0,19-.12,22.09,22.09,0,0,0,3.78-1.72c.43-.24.87-.47,1.29-.74.14-.09.29-.15.41-.24h0a32.64,32.64,0,0,0,7.6-7.24C614.29,352.56,618.91,357.55,622.61,361.39Z"/><path class="cls-1" d="M587.25,70.35c1,11.81-16.71,13.56-25.09,14.19-26.43,2-52.58-2.19-78.48-7.1-25.69-4.85-52-7.88-77.25-14.64a4.34,4.34,0,0,0-2.56,0c-.08-2.51-.15-5-.2-7.55.05-.08.08-.17.13-.25,13.89-.89,27.48-4.94,41.23-6.91,14.78-2.1,29.69-3,44.56-4,23.17-1.51,47.45-2.71,69.81,4.76C568.21,51.78,586.34,59.18,587.25,70.35Z"/><path class="cls-1" d="M528.84,447.44c5.35,4.45,4.11,14,3.35,21.73-42.7-1.85-85.79-.27-128.52-.23-39.83,0-79.59.43-119.39,1.82-.74-.14-1.5-.26-2.24-.37-7.6.15-15.12-.8-21.65-4v.07c-8.58-2.67-17.14-7.15-22.11-14.64-3-4.54-4.75-10.86-3.42-16.26,1-4.18,4.52-9.4,9.81-7.4a5.69,5.69,0,0,1,1.83,1.25c3.78,9.16,16.63,12.53,26,14.18H508c3.89.14,7.78.19,11.67.17,3.12,1,6.1,2.23,9.14,3.39Z"/><path class="cls-1" d="M512.91,257.34c3.34,5.52,4.1,12.4,3.41,18.7-2.58,23.74-23.3,44.51-36.65,63-6.27,8.67-11.88,17.84-17.89,26.7-5.16,7.63-9.67,15.32-11.37,24.31q-23.16.06-46.3.07c-9.51,0-19,0-28.5,0,3.39-10.75,9.15-20.15,15.45-29.75q12.35-18.74,24.84-37.37c12.15-18,30.78-40.5,30.09-63.57-.44-14.49-12.2-18.1-23.84-22.17-7.46-2.61-13.56-6.41-15.5-14.59-2.56-10.8-.39-22.85,2.59-33.33,6.12-21.45,18.35-43.79,35.49-59,1.14-1,2.31-2,3.49-2.95,17.35,6.2,33.61,15.5,46.85,28.43a146.06,146.06,0,0,1,18.08,21.61c-8.59,13.37-15.7,28.85-16.77,44.6-.55,8.19,1.07,16,5.95,22.71C505.55,249.2,510.08,252.64,512.91,257.34Z"/><path class="cls-1" d="M470.56,401l26,0c-.59,12-1.79,24.15-1.89,36.16-7.39-.35-14.79-.72-22.2-.88C472.29,424.54,471.15,412.71,470.56,401Z"/><path class="cls-1" d="M445.4,126.47c-.77.58-1.55,1.17-2.31,1.79-13.93,11-24.41,26.72-31.89,42.53-7.6,16.1-16.09,39.74-9,57.48,5.69,14.19,20.52,13.16,31.71,20,9.1,5.61,6.69,17.31,3.74,25.9-4.5,13.19-12.59,25-20.2,36.54-10.08,15.28-20.42,30.36-30.33,45.75-6.69,10.41-12.79,20.67-16.19,32.35-.14.45-.27.91-.39,1.36q-22.47,0-44.92,0c-17.27.05-34.66-.12-52,.35-11.17-.25-22.27.8-33.22-2.47-5.61-1.67-10.87-4.13-16.34-6.13-.53-.19-1.07-.38-1.6-.54-11.75-8.38-21.28-20.64-27.72-33.47,34.12,5,68.69,10.35,103.15,5.92,25.45-3.27,49-12.44,64.58-33.72,13.21-18,17.94-41.58,11.91-63.19-6.89-24.74-27.43-46.17-48.58-59.78-27.8-17.88-61.12-21.16-93.49-20.05.29-.31.57-.63.86-.93,18.87-19.34,43.4-32.58,68.19-42.74,41.8-17.12,90.73-21.7,134.53-9.91Q440.72,124.9,445.4,126.47Z"/><path class="cls-1" d="M396.73,58c-.11,4.35-.26,8.72-.41,13.08a120.8,120.8,0,0,0-20.76,1.23c0-4.89-.05-9.76-.2-14.61a.57.57,0,0,0,0-.13A103.63,103.63,0,0,0,396.73,58Z"/><path class="cls-1" d="M375.55,75.36a122.75,122.75,0,0,0,20.57,1.23c-.35,9.9-.69,19.81-.59,29.73-7-.32-14-.32-21,0C375.13,96.06,375.48,85.68,375.55,75.36Z"/><path class="cls-1" d="M366.7,55.64l.41.12a4.84,4.84,0,0,0-.48,1.92c-.05,1.69-.05,3.39-.08,5.09a1,1,0,0,1-.19,0c-25.25,6.76-51.55,9.79-77.25,14.64-25.89,4.91-52,9.1-78.48,7.1-8.37-.63-26-2.38-25.08-14.19.89-11.17,19-18.57,27.85-21.51,22.34-7.47,46.63-6.27,69.8-4.76,14.88,1,29.79,1.93,44.56,4,12.54,1.79,24.94,5.34,37.56,6.62A3,3,0,0,0,366.7,55.64Z"/><path class="cls-1" d="M364.55,249.11a67.7,67.7,0,0,1-4.6,62.6c-13.33,21.53-35.55,31.15-59.77,34.82-36,5.48-72.39-.81-108.26-4.68-.93-2.23-1.79-4.45-2.53-6.64-9.13-27.19-5.09-55.67,2.76-82.66,7.48-25.73,19.5-52.4,37.62-72.6,28.12.59,57.46,2.92,82.63,16.16C333.78,207.35,354.69,226.74,364.55,249.11Z"/><path class="cls-1" d="M325.64,400.75h.69c-.55,11.44-1.67,23-1.87,34.41q-11.15.09-22.24.6c-.18-11.64-1.31-23.37-1.87-35C308.79,400.75,317.22,400.73,325.64,400.75Z"/><path d="M673.53,345.35c-5.78-9.47-13.09-17.89-23.91-21.33.07-9.85-1.58-19.46-6.74-27.65-9.36-14.89-28.15-20.94-42.42-9.14-17.71,14.62-7.84,36.71,5.14,54.33-6.25,4-15.64,4.82-22.82,4.77a51.4,51.4,0,0,1-6.53-4.8c-12.34-10.87-13.68-29.13-15.22-44.4-3.2-31.89-6.89-62.32-19.86-92-10.65-24.36-26.29-48.31-47.23-65-18.19-14.54-40-24-62.61-29a208.93,208.93,0,0,0-26.4-4.08c.14-11.83-.35-23.64-.77-35.47,17,5.43,34.91,7.06,52.36,10.16,17.68,3.14,35.23,7,53,9.52,15.28,2.21,30.64,3.57,46.09,2.87,9.79-.46,20.48-1,29.32-5.66,8.54-4.49,13.8-13.43,10.31-23-3.79-10.3-14.5-17.12-24-21.5-24.14-11.15-51.81-10.65-77.79-9.06-15,.9-30,1.93-44.93,3.9-15.74,2.06-30.85,7.35-46.51,9.34a5.89,5.89,0,0,0-2.66-.86c-8.71-.78-19.12-1-28.12,1l-.25-.07c-15.74-1.95-30.92-7.29-46.74-9.37-14.91-2-29.94-3-44.93-3.9-26-1.59-53.65-2.09-77.79,9.06-9.49,4.38-20.21,11.2-24,21.5-3.48,9.52,1.77,18.46,10.31,23,8.85,4.63,19.53,5.2,29.32,5.66,15.45.7,30.82-.66,46.1-2.87,17.77-2.57,35.31-6.38,53-9.52,16.73-3,33.88-4.61,50.19-9.52,0,11.56.39,23.15,1,34.64a240.46,240.46,0,0,0-77.07,19.45c-25.62,11.22-50.75,25.69-69.45,46.9-19.46,22.09-32.46,51-40.28,79.18-8.54,30.79-11.71,62.89.94,93.05,10.45,24.92,36,56.51,66.17,53.75,15.26,1.18,30.64,1.53,46,1.6-.58,11.69-1.71,23.45-1.89,35.13a80.82,80.82,0,0,0-14.15-1c-4.15-.6-8.38-1-12.37-2-4.31-2.51-8.07-5.91-12.22-9.92s-9.6-5.78-15.23-4c-13.54,4.31-14.91,21.74-10.17,32.87,5.1,12,16.71,19.43,28.59,23.67.82.29,1.67.53,2.49.8,1.28.23,2.56.5,3.84.75H536.4c1.26-.6,2.59-1.21,3.81-1.93a16.27,16.27,0,0,0,2-3c.92-10.88,2.44-24.73-6.34-32.24-8.12-7-20.64-5.28-31-3.88,0-1.82-.08-3.65-.15-5.47.24-10.37-.13-20.85-.84-31.17h78.72a37.62,37.62,0,0,0-1.74,5c-4.46,17,4,34.86,22.34,37.2C627,444.66,636.19,420.3,639.88,398a44.29,44.29,0,0,0,11.73-4c2.61-1.26,5.61-2.66,7.77-4.76,10.58,6.6,22.14,11.45,34.23,10.41,17.53-1.53,31.49-15.49,27.53-33.56C716.46,344.7,694.3,342.51,673.53,345.35ZM366.63,57.68c-.05,1.69-.05,3.39-.08,5.09a1,1,0,0,1-.19,0c-25.25,6.76-51.55,9.79-77.25,14.64-25.89,4.91-52,9.1-78.48,7.1-8.37-.63-26-2.38-25.08-14.19.89-11.17,19-18.57,27.85-21.51,22.34-7.47,46.63-6.27,69.8-4.76,14.88,1,29.79,1.93,44.57,4,12.53,1.79,24.93,5.34,37.55,6.62a3,3,0,0,0,1.38.91l.41.12A4.84,4.84,0,0,0,366.63,57.68ZM649.25,331.44c2.17,2.1,4.8,3.92,6.93,6a56.87,56.87,0,0,1,8,9.54c-6.66,1.36-12.86,3-17.86,4.53A192,192,0,0,0,649.25,331.44ZM495.07,155.86a146.06,146.06,0,0,1,18.08,21.61c-8.59,13.37-15.7,28.85-16.77,44.6-.55,8.19,1.07,16,5.95,22.71,3.22,4.42,7.75,7.86,10.58,12.56,3.34,5.52,4.1,12.4,3.41,18.7-2.58,23.74-23.3,44.51-36.65,63-6.27,8.67-11.88,17.84-17.89,26.7-5.16,7.63-9.67,15.32-11.37,24.31q-23.16.06-46.3.07c-9.51,0-19,0-28.5,0,3.39-10.75,9.15-20.15,15.46-29.75q12.33-18.74,24.83-37.37c12.15-18,30.78-40.5,30.09-63.57-.44-14.49-12.2-18.1-23.84-22.17-7.46-2.61-13.56-6.41-15.5-14.59-2.56-10.8-.39-22.85,2.59-33.33,6.12-21.45,18.35-43.79,35.49-59,1.14-1,2.31-2,3.49-2.95C465.57,133.63,481.83,142.93,495.07,155.86ZM464,401c-.57,11.65-1.7,23.39-1.87,35-21.88-.47-43.8-.2-65.69-.2-13.14,0-26.94-.76-40.54-.44-7.06-.12-14.12-.22-21.18-.22-.2-11.42-1.29-22.93-1.85-34.35q35.61.08,71.24.08Q434.05,400.88,464,401ZM403.8,55c13.89-.89,27.48-4.94,41.23-6.91,14.78-2.1,29.69-3,44.57-4,23.16-1.51,47.44-2.71,69.8,4.76,8.81,2.94,26.94,10.34,27.85,21.51,1,11.81-16.71,13.56-25.09,14.19-26.43,2-52.58-2.19-78.48-7.1-25.69-4.85-52-7.88-77.25-14.64a4.34,4.34,0,0,0-2.56,0c-.08-2.51-.15-5-.2-7.55C403.72,55.19,403.75,55.1,403.8,55Zm-7.07,3c-.11,4.35-.26,8.72-.41,13.08a120.8,120.8,0,0,0-20.76,1.23c0-4.89-.05-9.76-.2-14.61a.57.57,0,0,0,0-.13A103.63,103.63,0,0,0,396.73,58ZM375.55,75.36a122.75,122.75,0,0,0,20.57,1.23c-.35,9.9-.69,19.81-.59,29.73-7-.32-14-.32-21,0C375.13,96.06,375.48,85.68,375.55,75.36ZM189.39,335.21c-9.13-27.19-5.09-55.67,2.76-82.66,7.48-25.73,19.49-52.4,37.62-72.6,28.12.59,57.46,2.92,82.63,16.16,21.38,11.24,42.29,30.63,52.15,53a67.7,67.7,0,0,1-4.6,62.6c-13.33,21.53-35.55,31.15-59.77,34.82-36,5.48-72.39-.81-108.26-4.68C191,339.62,190.13,337.4,189.39,335.21Zm84.27,55.41c-11.17-.25-22.27.8-33.22-2.47-5.61-1.67-10.87-4.13-16.34-6.13-.53-.19-1.07-.38-1.6-.54-11.75-8.38-21.28-20.64-27.72-33.47,34.12,5,68.69,10.35,103.15,5.92,25.45-3.27,49-12.44,64.58-33.72,13.21-18,17.94-41.58,11.91-63.19-6.89-24.74-27.43-46.17-48.58-59.78-27.8-17.88-61.12-21.16-93.49-20.05.29-.31.57-.63.86-.93,18.87-19.34,43.4-32.58,68.19-42.74,41.8-17.12,90.73-21.7,134.53-9.91q4.79,1.29,9.47,2.86c-.77.58-1.55,1.17-2.31,1.79-13.93,11-24.41,26.72-31.89,42.53-7.6,16.1-16.09,39.74-9,57.48,5.69,14.19,20.52,13.16,31.71,20,9.1,5.61,6.69,17.31,3.74,25.9-4.5,13.19-12.59,25-20.2,36.54-10.08,15.28-20.42,30.36-30.33,45.75-6.69,10.41-12.79,20.67-16.19,32.35-.14.45-.27.91-.39,1.36q-22.47,0-44.92,0C308.37,390.32,291,390.15,273.66,390.62Zm52.67,10.13c-.55,11.44-1.67,23-1.87,34.41q-11.15.09-22.24.6c-.18-11.64-1.31-23.37-1.87-35,8.44,0,16.87,0,25.29,0ZM508,443.61c3.89.14,7.78.19,11.67.17,3.12,1,6.1,2.23,9.14,3.39v.27c5.35,4.45,4.11,14,3.35,21.73-42.7-1.85-85.79-.27-128.52-.23-39.83,0-79.6.43-119.39,1.82-.74-.14-1.5-.26-2.24-.37-7.6.15-15.12-.8-21.65-4v.07c-8.58-2.67-17.14-7.15-22.11-14.64-3-4.54-4.75-10.86-3.42-16.26,1-4.18,4.52-9.4,9.81-7.4a5.69,5.69,0,0,1,1.83,1.25c3.78,9.16,16.63,12.53,26,14.18ZM470.56,401l26,0c-.59,12-1.79,24.15-1.89,36.16-7.39-.35-14.79-.72-22.2-.88C472.29,424.54,471.15,412.71,470.56,401Zm88.6-10.82c-34.13-.2-68.27-.13-102.4-.06,2-10.37,8.89-19.08,14.69-27.69,6.12-9.09,11.83-18.33,18.4-27.12,12.5-16.72,28.24-34.61,32.28-55.74,1.65-8.57,1.13-18-3.34-25.64-5-8.61-13.83-13.48-15.68-23.94-2.92-16.45,4.16-34.64,11.88-49.79a194.74,194.74,0,0,1,21.43,44.11,226.48,226.48,0,0,1,10.88,50.21c1.74,17.25,1.9,35.35,6.77,52.11,3.64,12.54,12.46,23.18,23.59,30.4a30.32,30.32,0,0,0,19-.12,21.64,21.64,0,0,0,3.77-1.72c.44-.24.88-.47,1.3-.74.14-.09.29-.15.41-.24h0a32.64,32.64,0,0,0,7.6-7.24c4.55,5.62,9.17,10.61,12.87,14.45a3.15,3.15,0,0,0,.29.22c-11.59,7.26-25.17,15.79-34,27.14C579,388.86,569,389.29,559.16,390.15ZM636.46,372c-.54,1.77-1,3.53-1.5,5.31A158.63,158.63,0,0,1,629.81,405c-2.87,9.89-7.79,24.32-19.16,27.2-17.84,4.53-25.52-15.89-19.19-29.64,6.93-15,22.63-26.13,36.09-35a11,11,0,0,0,9.1,4.23.13.13,0,0,1,0,.08A2.14,2.14,0,0,0,636.46,372Zm3.2-8.45c-1.46,3-6,2.94-7.68.05-2.76-4.87,3.1-7.15,6.34-6.07a5.27,5.27,0,0,1,1.6,1.5C640.71,360.35,640.27,362.32,639.66,363.57Zm.71-9.88a16.26,16.26,0,0,0-2.76-.77,10.52,10.52,0,0,0-3.72-.51,8.61,8.61,0,0,0-7.6,5.78c-6.94-9.57-14.66-19-19.13-29.77-4.87-8.69-9.92-20.29-4.88-29.38,8.89-16.11,29-7.75,34.74,6.26,3.3,8.16,4.09,17.39,3.71,26.62C641.06,339.14,640.61,346.45,640.37,353.69Zm5.8,33.72A52,52,0,0,1,641,389.8c.54-4.72.88-9.17,1.08-13,2.88,2.26,5.88,4.57,9,6.83C649.4,384.88,647.77,386.45,646.17,387.41Zm42.17,2.91c-10.78-1-21.28-6.05-30.83-12.16a60.78,60.78,0,0,1-15.35-8.09,8.91,8.91,0,0,0,2.37-2.51,10.66,10.66,0,0,0,.71-9.33c7-1.29,13.9-2.75,20.83-3.59q5.8-.88,11.67-1.25c10.3-.62,25.53-.84,32.07,8.9C720.07,377.57,703.42,391.67,688.34,390.32Z"/></g></svg>