<svg id="Layer_19" data-name="Layer 19" xmlns="http://www.w3.org/2000/svg" viewBox="0 0 895 511.11"><defs><style>.cls-1{fill:#fff;stroke:#1d1d1b;stroke-miterlimit:10;stroke-width:5px;}</style></defs><path class="cls-1" d="M435.75,86.39s-47.19,90.93-96.93,125.69-94.16,73.1-63.52,124.64c32.34,54.39,137.23,63.94,146.21,63.73S453.79,88,453.79,88Z"/><path class="cls-1" d="M411.07,399.43s-13.49,8.05-18.88,9.12,4.49,6.6,10.79,2.78,12-3.71,12.28,1.33,6.29,19.91,6.89,10.56,3-16.52,6.29-10.38,12.29,7.93,11.09,13.4,8.89.38,7-5.57,13.28-9.34,13.78-3,5,11.14,8.59,10.88-3-6.63-2.1-10.88,11.39-12.48,16.48-3.69,17.08,0,17.08,0-9.29-1.86-10.19-5.46-5.69-6.51-5.69-6.51Z"/><path class="cls-1" d="M459.25,87.22s47.19,90.93,96.93,125.68S650.34,286,619.7,337.54c-32.34,54.39-137.23,63.94-146.21,63.73S441.21,88.86,441.21,88.86Z"/><path class="cls-1" d="M453,89.17s33.66,95.46,76.22,127.21c32.44,24.19,67.2,68.44,44.43,119.19s-66.64,65.32-94.19,65.7S446.52,93.65,446.52,93.65Z"/><path class="cls-1" d="M442.3,87.22s-35.36,87.48-73.71,124.64-77.3,63.52-54.53,115.05,76.75,72.33,104.29,72.72S451.29,87.22,451.29,87.22Z"/><path class="cls-1" d="M444.41,91.52h0c0,.71-9.58,104.12-41.64,136-32.2,32-62.32,83.27-28.16,131.69s52.73,46.06,77.3,46.65,61.71-17.88,75.58-67c19.26-68.25-36.63-89.2-49.21-124.94-15.31-43.47-27-120.36-27-122.72Z"/><path class="cls-1" d="M451.29,187.32c9.68,27.92,72.16,101.77,57.32,155.09-10.67,38.36-39.27,52.79-58.18,52.33s-35.25,2.72-59.52-36.45c-37.92-61.19,35.58-145.94,60.38-171Z"/></svg>