<svg id="Layer_170" data-name="Layer 170" xmlns="http://www.w3.org/2000/svg" viewBox="0 0 895 511.11"><defs><style>.cls-1{fill:#fff;}.cls-2{fill:#424e54;}</style></defs><g id="Sailing_ship" data-name="Sailing ship"><path class="cls-1" d="M640.11,332.07c.19,3-.37,6.17-.54,9.16-.38,6.21-1.12,12.6-2,18.8-2.06-.07-4.13-.16-6.2-.16a16.49,16.49,0,0,0-3.91.29c1.11-10.17,1-23,8.61-30.65a8.09,8.09,0,0,1,1.79-1.33C639.82,327.05,640.05,331.15,640.11,332.07Z"/><path class="cls-1" d="M611.89,333c.19,3-.37,6.17-.55,9.16-.37,6.21-1.11,12.6-2,18.8-2.06-.07-4.12-.15-6.19-.15a15.55,15.55,0,0,0-3.92.29c1.12-10.19,1-23,8.62-30.66a8.27,8.27,0,0,1,1.78-1.33C611.6,328,611.83,332.09,611.89,333Z"/><path class="cls-1" d="M555.67,55.22c1,6.56-.21,13.4-1.44,19.9-4.86.15-9.7.59-14.55.72-4.69.13-9.29-.66-14-.79a9.81,9.81,0,0,0-1.88.15c.49-2.32,1-4.64,1.37-7,.51-3.16,1.2-7.45.11-10.77V57.4a33.14,33.14,0,0,0,7.67.94C540.64,58.15,548.07,56,555.67,55.22Z"/><path class="cls-1" d="M543.68,402.41c1,2.66-.31,5.57-3.36,5.66a3.57,3.57,0,0,1-2-.62l0-.05a4.65,4.65,0,0,1-1.58-4.53,11.16,11.16,0,0,1,1.37-2.33C540,398.65,542.8,400.06,543.68,402.41Z"/><path class="cls-1" d="M540,149.27c-2.14,4.5-4.08,9.11-5.83,13.78-7.52,4-15.46,6.7-23.58,9.26-9.29,2.94-18.47,6.19-27.7,9.33-9.92,3.38-19.82,6.82-29.54,10.77a56.87,56.87,0,0,0-9.82,4.64c-1,.67-4.35,3.24-6.66,3.74a121.43,121.43,0,0,1,15.68-31.92c2.22-.11,4.43-1.22,6.44-2.25a175.08,175.08,0,0,1,18.17-7.69c5.9-2.22,11.61-4.94,17.51-7.15,4.8-1.81,9.7-3.48,14.14-6.05C519.14,147.06,529.54,148.2,540,149.27Z"/><path class="cls-1" d="M527.39,279.51c1.77,5,3.67,9.92,5,15-15-1-30-2.34-44.88-4.58q-6.21-.93-12.36-2.13l.95-.26c5.61-1.56,11-4.1,16.23-6.55,4.78-2.23,9.48-4.79,14.54-6.32,5.82-1.76,12-2.74,17.62-5.12A96.82,96.82,0,0,0,527.39,279.51Z"/><path class="cls-1" d="M524.1,206c-.5,4-1,8-1.39,12a204.07,204.07,0,0,0-1.26,21.12c-6.86,3.3-14.13,5.56-21.42,7.75-8.23,2.48-16.32,5.28-24.43,8.1-8.53,2.95-17.06,5.9-25.48,9.14a99,99,0,0,0-9.08,4,25.78,25.78,0,0,1-8.25,3,156.77,156.77,0,0,1-2.46-30.61c3.15-1,6.05-2.7,9.21-3.83,5-1.8,9.85-4.21,14.82-6.15,10-3.9,20.09-7.4,30.19-10.95,8-2.8,15.88-5.57,24.08-7.79C513.83,210.36,519.43,208.88,524.1,206Z"/><path class="cls-2" d="M511.1,407.93c1,2.67-.3,5.58-3.36,5.66a3.5,3.5,0,0,1-2-.62s0,0,0-.05a4.61,4.61,0,0,1-1.59-4.53,12.11,12.11,0,0,1,1.37-2.32C507.47,404.17,510.22,405.6,511.1,407.93Z"/><path class="cls-1" d="M632.05,250.1a56.57,56.57,0,0,0,6.59-3.34c4.7-2.7,9.2-5.7,13.78-8.58,9.93-6.22,22.42-8.16,31.69-15.32-12.6-37-21.16-75.33-29.09-113.58a81.25,81.25,0,0,1-11,4.31c-4.81,1.69-9.61,3.37-14.26,5.48-8.77,4-17.65,8.7-27.32,9.9,4.35,41.73,13.17,82.51,27.68,121.91C630.89,250.62,631.61,250.29,632.05,250.1Z"/><path class="cls-1" d="M453.89,228.81c9.56-3.73,19.24-7.14,28.92-10.55,7.78-2.74,15.43-5.59,23.4-7.74,6.08-1.64,12.95-3.15,18.2-6.9a192.86,192.86,0,0,1,4.92-25.68c1.12-4.15,2.42-8.24,3.85-12.27-7.63,4.07-16.19,6.49-24.36,9.07-10.63,3.36-21.16,7.11-31.71,10.75-5.78,2-11.55,4-17.27,6.23-4.74,1.83-10.06,3.4-14.37,6.13-1.61,1-6.09,4.53-9.2,4.68a137.86,137.86,0,0,0-5.91,36.37c3.75-1.3,7.41-3.35,11-4.89Q447.56,231.3,453.89,228.81Z"/><path class="cls-1" d="M471.48,287.1a38.58,38.58,0,0,0,7.79-2.38c5.39-2,10.6-4.51,15.8-7a75.45,75.45,0,0,1,12.27-5.1c5.56-1.54,11.4-2.63,16.71-4.95q-.85-4-1.39-8a150.85,150.85,0,0,1-1.2-18.51,152,152,0,0,1-21,7.48c-8.66,2.59-17.17,5.55-25.71,8.49-9.24,3.18-18.57,6.25-27.63,9.93-4.59,1.86-9.14,5-14.09,5.51.23,1.24.48,2.49.74,3.72l.74.11a40.39,40.39,0,0,1,6.75,2.22c4.93,1.83,9.93,3.47,15,4.87S466.38,286,471.48,287.1Z"/><path class="cls-1" d="M462.64,154.64q-1.53,2.46-3.07,4.91a1.07,1.07,0,0,0-.09.19c-2.1,2.49-4.06,5-5.91,7.63,3.59-.67,7.51-3.84,10.28-5.14,4.9-2.32,10.27-3.84,15.32-5.84,5.4-2.13,10.65-4.6,16.1-6.62a106.86,106.86,0,0,0,10.67-4.41q-6.88-.9-13.73-1.94c-9.31-1.44-18.78-3-28.16-4.94A108,108,0,0,1,452.49,144a52.75,52.75,0,0,1-8.07,2.71q8.63,2,17.26,3.81A20.61,20.61,0,0,1,462.64,154.64Z"/><path class="cls-1" d="M482.29,411.34c1,2.67-.31,5.58-3.36,5.67a3.55,3.55,0,0,1-2-.62l0-.06a4.64,4.64,0,0,1-1.58-4.53,11.31,11.31,0,0,1,1.36-2.32C478.65,407.59,481.4,409,482.29,411.34Z"/><path class="cls-1" d="M461.29,137.9c-2.52,1.33-5,2.68-7.63,3.86-3.87,1.75-8.41,3.76-12.84,4.08q-6.58-1.54-13.15-3.19c2.58-3.82,3.91-8.39,5.43-12.81A208.65,208.65,0,0,0,461.29,137.9Z"/><path class="cls-1" d="M451.59,412.75c1,2.67-.3,5.58-3.36,5.67a3.6,3.6,0,0,1-2-.62l0-.06a4.64,4.64,0,0,1-1.59-4.53,11.73,11.73,0,0,1,1.37-2.31C448,409,450.71,410.42,451.59,412.75Z"/><path class="cls-1" d="M456.62,155.11a123.17,123.17,0,0,0-18.29,27.52,137,137,0,0,1-25.67-3.69l-7.37-1.79a197.53,197.53,0,0,1,17.57-30.26C434,149.89,445.3,152.6,456.62,155.11Z"/><path class="cls-1" d="M412.13,180.89c8.1,2,16.79,4,25.24,3.75a138.25,138.25,0,0,0-11.92,43.09,343.43,343.43,0,0,1-36.6-3.45c.69-2.71,1.39-5.41,2.13-8.09A245.34,245.34,0,0,1,404.41,179Z"/><path class="cls-1" d="M426.47,269.63a161.79,161.79,0,0,0,7.76,30.05c-17.81-2.47-35.51-5.81-53.1-9.62a91.92,91.92,0,0,1-.33-23.26c3.15.39,6.3.8,9.44,1.27C401.66,269.75,414.87,272.27,426.47,269.63Z"/><path class="cls-1" d="M425.24,229.71a157.16,157.16,0,0,0,.92,37.77c-11.66,2-23.77.27-35.37-1.42-3.25-.48-6.51-.89-9.78-1.3.47-4.07,1.1-8.12,1.8-12.14,1.53-8.81,3.4-17.61,5.54-26.32A273.94,273.94,0,0,0,425.24,229.71Z"/><path class="cls-1" d="M421.35,146.49a168.75,168.75,0,0,0-18,30.18c-4.66-1.15-9.32-2.29-14-3.38-5.48-1.29-11.21-2.63-16.86-4.32.39-.65.79-1.32,1.19-2,2.22-3.6,4.85-7,7.32-10.39,3-4.19,6-8.41,8.77-12.79.94-1.51,2.52-3.7,3.05-5.8C402.27,141.11,411.78,143.9,421.35,146.49Z"/><path class="cls-1" d="M402.49,178.55a255.82,255.82,0,0,0-13.34,37.13Q388,219.81,387,224c-4.85-.8-9.65-1.74-14.41-2.87-7.75-1.83-15.39-4.08-23.05-6.24,3.87-8.84,8-17.54,12.43-26.09,3.11-6.07,6.21-12.26,9.64-18.18,5,1.6,10.12,2.9,15.24,4.13Z"/><path class="cls-1" d="M391.42,137.55c-.65,2.49-3.15,5.45-4.27,7.17-2.87,4.39-6,8.62-9.1,12.85-2.58,3.54-5,7.18-7.21,10.9-7.57-2.37-14.93-5.42-21.26-9.89,5-10.27,9.94-20.56,14.53-31Q377.61,133,391.42,137.55Z"/><path class="cls-1" d="M386.45,226c-2.32,9.43-4.27,19-5.88,28.52-.56,3.31-1.06,6.65-1.45,10-5.22-.65-10.44-1.28-15.65-2a160.07,160.07,0,0,1-29-6.42c1.43-5.6,3.33-11.13,5.22-16.52,2.71-7.74,5.75-15.4,9-23,6.88,1.94,13.73,4,20.66,5.76C375,223.8,380.69,225,386.45,226Z"/><path class="cls-1" d="M378.9,266.56a88.76,88.76,0,0,0,.31,23.09q-5.18-1.14-10.33-2.31c-12.76-2.93-25.45-6.15-38.14-9.37a.72.72,0,0,0,.22-.29c1.88-4.28,1.23-9.92,2-14.48.29-1.74.66-3.47,1.07-5.2,8.81,3.08,18,4.84,27.25,6.24C367.15,265.13,373,265.82,378.9,266.56Z"/><path class="cls-1" d="M363.57,400.59c1.55,4.07-5.54,3.65-7.6,3.29a1.52,1.52,0,0,0-1.63.81h-.11v.26a1.45,1.45,0,0,0,0,1.12c0,.27,0,.55,0,.81,0,1.24,0,2.47,0,3.7,0,3.13.16,6.36.1,9.54l1-.24c.58-.2,1.18-.38,1.78-.54h.08c2.25-1.25,3.54-4.62,3.94-7.25,2.89.77.8,4.44-.3,6.37a30,30,0,0,1-4.67,6.8v0a11.06,11.06,0,0,1-1.52,1.26l-.24.14a4.8,4.8,0,0,1-.48.3,1,1,0,0,1-.28.1l-.24.12c-1.58.65-3.39,0-5.12-1.37a4.48,4.48,0,0,1-1.72-1.6c-3.53-3.78-6.09-9.74-4.34-11.29.95,2.8,2,5.94,5,7.05V420a22.73,22.73,0,0,0,2.61,0c.25-4.61,0-9.25-.23-13.87,0-.85-.07-1.7-.1-2.55l-.55,0a20.06,20.06,0,0,1-4.76.2l-1.24,0a1.06,1.06,0,0,1-1-.78,4.05,4.05,0,0,1-.12-.47,1,1,0,0,1,.28-1l.52-.14a11.13,11.13,0,0,1,2.3-.16,21.91,21.91,0,0,0,3.8,0,1.16,1.16,0,0,0,.92-1.52s0-.07,0-.12a31.45,31.45,0,0,0,0-3.76c0-.68,0-1.47-.07-2.21a1.14,1.14,0,0,1,.61-.47,10.44,10.44,0,0,1,2.05-.39h.1a.87.87,0,0,1,.78.47,50,50,0,0,0,.18,6.24,1.34,1.34,0,0,0,1.29,1c.75,0,3.84-.46,6.17-.52.8.05,1.59.14,2.39.27A.66.66,0,0,1,363.57,400.59Z"/><path class="cls-1" d="M349,159.88a79.16,79.16,0,0,0,20.94,10.17c-4.11,6.93-7.79,14.09-11.45,21.31q-5.73,11.29-10.81,23l-.88-.25c-6.37-1.78-13.9-2.85-19.25-7.06q1.83-4.41,3.67-8.8C336.66,185.25,342.81,172.57,349,159.88Z"/><path class="cls-1" d="M342.2,214.81c1.56.41,3.12.84,4.69,1.28q-4.62,10.74-8.6,21.71c-2.11,5.82-3.92,11.72-5.49,17.7-7.62-2.74-15.53-6.87-19.67-14.06,4.8-10.89,9.24-22,13.77-33C331.27,212,336.76,213.37,342.2,214.81Z"/><path class="cls-1" d="M332.33,257.38c-.38,1.5-.75,3-1.1,4.52-1.11,4.84-.23,10.44-1.93,15.08a.76.76,0,0,0,.05.63l-9.13-2.31c-5.88-1.48-11.83-2.88-17.74-4.45l.11-.09H301a1,1,0,0,1-.91-.54l-.93-.25c4.84-8.72,9.15-17.69,13.2-26.8,3.64,6.27,10.4,10.3,16.95,13C330.32,256.61,331.32,257,332.33,257.38Z"/><path class="cls-1" d="M651.94,268.63a41.22,41.22,0,0,0-5.49-.7,157.48,157.48,0,0,0-16.26-.4A154.05,154.05,0,0,0,613,268.66l-.57.09c0,.43,0,.86,0,1.3.17,4.28,0,8.57.25,12.84.32,5.39-3.86,7.66-8.82,6.39s-5-6.22-4.48-10.54c.28-2.43.7-4.94,1.07-7.45-.83.19-1.66.38-2.49.55,0,0,0-.08,0-.12-12.23,2.44-24.15,6.32-36.42,8.52a127.41,127.41,0,0,0,32.78,26.31l.2.14c5.85.57,12.16-.48,18-1.1,10-1.08,20-2.57,29.93-4.63,9.19-1.92,18.71-4.12,27.22-8.2,3.32-1.58,8.25-4.05,9.36-7.77C676.47,275.36,662.48,270.05,651.94,268.63Z"/><path class="cls-1" d="M548.54,307.77a3.05,3.05,0,0,1-.94-.69,41.28,41.28,0,0,1-8.66,5c-2.22.95-4.5,1.76-6.81,2.51q-9.4,19.59-18.83,39.16a39.82,39.82,0,0,1,3.64,3.84c2.59-1.1,5.78-1,8.55-1,7.39,0,14-1.76,21.17-3.6,11-2.83,22.42-6.44,31.53-13.47a37.81,37.81,0,0,0,5.74-5.46c-6.84-6.37-16-9.85-23.18-15.95C556.8,314.7,553.11,310.11,548.54,307.77Z"/><path class="cls-1" d="M497.63,115.94a74.5,74.5,0,0,0,13.85,2c1.88.14,4,.28,6,.25.7,0,1.39-.06,2.09-.08a15.49,15.49,0,0,0,8.27-2.68c1.5-3.39,1.67-7.6,2-11.16.2-2.22,1-5.49.67-8.19-4.72,3-13.53,2.82-17.56,2.68-5.65-.2-15.91-.65-19.13-6.38h-.14C492.38,99.19,491.41,112.18,497.63,115.94Z"/><path class="cls-1" d="M519.5,318.11c.58.65,1.16,1.31,1.73,2s-.34,1.41-.83.83c-.71-.83-1.43-1.66-2.17-2.47-1.81.49-3.62,1-5.41,1.53l-1.23.38c-2.19,3.79-4.38,7.57-6.48,11.38a.6.6,0,0,1-1-.6c1.89-3.44,3.82-6.85,5.74-10.26A151.78,151.78,0,0,1,492,325.25c-.44.75-.89,1.5-1.35,2.24s-1.36.05-1-.57.58-.95.86-1.44a72,72,0,0,1-9.3.82c0,.21-.07.41-.1.62,5.21,6.31,11.94,11.27,18.44,16.15,4,3,8.48,6,12.42,9.43l17.85-37.22C526.39,316.3,522.93,317.19,519.5,318.11Z"/><path class="cls-1" d="M477.39,362.09c-1.33-1.24-2.6-2.57-3.92-3.83-.46,2.94-.87,5.88-1.21,8.84-.31.39-.62.78-.95,1.15a14.5,14.5,0,0,1-2.29,1.38c-.66.29-1.32.59-2,.91a16.34,16.34,0,0,1-9.46-1.2,7,7,0,0,1-3.61-5.16c.35-1.9.7-3.81,1-5.71-8.58,2.5-17.74,2.69-26.6,3.36a149.4,149.4,0,0,1-17.06.43c-2-.07-4.49.26-6.41-.48a47,47,0,0,0,3.73,10.77c5.56,11.19,14.8,17,27.28,17.93a167.76,167.76,0,0,0,20.55-.31c7.12-.37,14.23-.56,21.28-1.71a149.86,149.86,0,0,0,15.79-3.79,51.59,51.59,0,0,0,7.93-2.42c-7.6-7.19-16.6-12.79-24.15-20Z"/><path class="cls-1" d="M389.72,345.26c.09,4.06-.93,8.09-1.52,12.1l.2,0c3.35-.65,8.69-1.27,11.57-3.53a1.26,1.26,0,0,1,1-.81l.07,0a52.16,52.16,0,0,1,.54-10.23Q395.74,344.23,389.72,345.26Z"/><path class="cls-1" d="M339.52,340.56c7.53,4.4,16.73,4.05,25.22,3.89a189.6,189.6,0,0,0,33.2-4,2.88,2.88,0,0,0-.22-.27,7.14,7.14,0,0,1-.71-.4,22.6,22.6,0,0,1-5.36-5.15c-3-3.9-6.9-8.17-8.1-13v0a46.35,46.35,0,0,1-2.18-4.27l-.28-.07a1.69,1.69,0,0,1-.27-.12,11.43,11.43,0,0,0-2.55,0,1.35,1.35,0,0,1-.57,0c-.05,1-.09,2.07-.17,3.11-.4,6.16-.84,15.51-6.19,19.75a9.39,9.39,0,0,1-8.28,1.72c-3.95-.92-5.76-2.55-5.47-6.73.41-5.7,1.45-11.31,2.2-17-7.75,1.57-15.74,1.37-23.55,2.55-3.83.58-7.85,1.32-11.3,3.17a11.3,11.3,0,0,1-2.52,1.16c.5.72,1,1.41,1.56,2.06A58.23,58.23,0,0,0,339.52,340.56Z"/><path class="cls-1" d="M385.45,357.82c.34-4.11,1.62-8.05,1.86-12.16-4,.63-8.1,1.09-12.17,1.41-.08,3.84.49,7.86-.24,11.64A100.73,100.73,0,0,0,385.45,357.82Z"/><path class="cls-1" d="M359.24,358.52c4.31.24,8.63.36,12.94.27.8-3.79.46-7.71.68-11.56-4.05.25-8.1.35-12.12.27h-.85a13.68,13.68,0,0,1,.17,4.69A44.18,44.18,0,0,1,359.24,358.52Z"/><path class="cls-1" d="M344.41,357.23q6.07.67,12.19,1.12c.2-1.87.69-3.71.89-5.58.14-1.18.7-3.89.18-5.3-4.54,0-9.46-.07-13.6-1.44l-.58-.21,0,.09c.37,3.49.49,7.75-.63,11.15Z"/><path class="cls-1" d="M335.67,341.69c-1.74-1.18-3.46-2.46-5.12-3.82-.69,5.15-1.05,10.33-1.75,15.47a41.1,41.1,0,0,0,11.48,3.34,1.62,1.62,0,0,1,0-.19c1.14-3.18,1-7.26.75-10.58a1,1,0,0,1,.35-.93A36.7,36.7,0,0,1,335.67,341.69Z"/><path class="cls-1" d="M321.55,348.3a25.51,25.51,0,0,0,4.74,3.68c.59-5.3,1.07-10.66,2.17-15.87a51.06,51.06,0,0,1-6.64-7.08c-.52,5.28-3.18,10.1-3.62,15.38A32.83,32.83,0,0,0,321.55,348.3Z"/><path class="cls-1" d="M313.17,337.11c1,1.39,1.92,2.83,2.88,4.27,1-4.63,3.3-9,3.58-13.82a1.11,1.11,0,0,1,.5-.9c-.32-.48-.63-1-.92-1.48a28.29,28.29,0,0,1-1.39-2.69c-1.38,4.6-3.86,8.87-5.47,13.42C312.62,336.31,312.88,336.71,313.17,337.11Z"/><path class="cls-1" d="M316.52,318.67a14.25,14.25,0,0,1-.33-2.56,22.64,22.64,0,0,0-6.75,6.88c-.8,1.27-1.58,2.51-2.38,3.7a58.89,58.89,0,0,0,3.52,6.49C312.41,328.29,315.55,323.86,316.52,318.67Z"/><path class="cls-1" d="M701.91,208.65a53.18,53.18,0,0,0-10,3,17.53,17.53,0,0,1-5.25,1.69c.55,1.71,1.12,3.4,1.68,5.1a69.1,69.1,0,0,1,10.5-4.21c1-.33,5-.92,4.38-2.65A26.44,26.44,0,0,0,701.91,208.65Z"/><path class="cls-1" d="M595.17,309a38.84,38.84,0,0,1-7.69,25.35,1.63,1.63,0,0,1-.86,1.07,36.53,36.53,0,0,1-4.09,4.17c-8.71,7.54-19.68,11.87-30.67,14.94-6.92,1.94-14.37,4.69-21.61,4.88-4.81.12-12-1.51-14.85,3.33-2.5,4.2-4.07,8.88-5.83,13.41-.62,1.59-1.5,5.39-3.31,6.55l-.12.09a46,46,0,0,0-4,2.34,55.13,55.13,0,0,1-5.45,1.74,139.39,139.39,0,0,1-18.13,4.45c-7.72,1.16-15.46,1.45-23.25,1.87s-15.3.84-22.92-.16c-12.18-1.6-21.66-8.59-26.61-19.87a57.36,57.36,0,0,1-4.45-16.67c-3,2.1-7.68,2.85-11,3.5a98.36,98.36,0,0,1-15.4,1.72,199.14,199.14,0,0,1-33-1.84c-5.86-.79-11.69-2.15-16.7-5.05a.94.94,0,0,1-.91.37c-12.93-1.66-25.87-.16-38.81-1.54-1.36-.15-1.39-2.29,0-2.16,11.87,1.12,24.18-1.21,36,.71a23.11,23.11,0,0,1-2.68-2.57A99.47,99.47,0,0,1,310,337.55a61.52,61.52,0,0,1-4.78-8.35,18.73,18.73,0,0,1-8.26,6.29,74.39,74.39,0,0,1-20.14,4.32q-3.64,5.69-7.28,11.37c.43.13.87.25,1.3.39,11.66,3.55,23.26,9.15,30.79,19.06,10.22,13.44,12.09,31.13,17.67,46.6,5.12,14.2,13.88,26.1,28.41,31.54,16.32,6.11,34.9,6.51,52.11,6.69,22.94.23,45.84-1.64,68.62-4.29,11.34-1.31,22.65-2.79,34-4.29,10.75-1.41,21.56-2.27,32.34-3.43,20.28-2.19,39.68-6.92,57-18.14,14.56-9.44,26.89-22.08,37.14-36a275.55,275.55,0,0,0,26.67-45.4c8.26-17.44,14.93-35.57,23.54-52.85.08-.35.12-.69.17-1C665.63,303.79,608.81,309.92,595.17,309ZM356.27,409.2q.12,3.65.14,7.29A10.35,10.35,0,0,0,359,411a.24.24,0,0,0,0-.08,1.25,1.25,0,0,1,1.25-1.62c5.11.11,6.26,4,4.26,8.29s-6.08,12.35-11.51,12.55c-6,.22-10.64-5.84-12.86-10.82-1.36-3.07-2.6-8.29,2-9a1.27,1.27,0,0,1,1.14.37.93.93,0,0,1,.74.55c.92,2,1.7,4,3.28,5.42.12-3.46.22-6.91.25-10.36-2,0-4,0-6-.1a1.34,1.34,0,0,1-1.28-1,7.51,7.51,0,0,1-.36-4.23,1,1,0,0,1,.14-.65c1.15-1.93,4.3-1.91,6.73-1.74,0-1,0-2.09.09-3.1a8.1,8.1,0,0,1,.48-3.4.92.92,0,0,1,.39-.39,1.09,1.09,0,0,1,.87-.36c1.21,0,2.43-.22,3.64-.3a11.29,11.29,0,0,1,1.3,0,1.27,1.27,0,0,1,.73.24,1.32,1.32,0,0,1,1,.44,1.17,1.17,0,0,1,.66.76,21.19,21.19,0,0,1,.08,3.09c.08.66.25,1.45.3,2.21,2.7-.27,6.61-.87,8.66.46a1,1,0,0,1,.88.88,3.6,3.6,0,0,1,.49,2.16c-.1,2.13-.77,4.15-3,4.89a17.22,17.22,0,0,1-7.28.71C356.2,407.63,356.24,408.42,356.27,409.2Zm97.15,10.14a6.93,6.93,0,0,1-6.62,2.05,7,7,0,0,1-5.26-5.65,5.11,5.11,0,0,1,0-1,6.76,6.76,0,0,1,3-6.69c4.14-2.81,9.53,0,10.37,4.77C455.29,415,455.09,417.61,453.42,419.34Zm30.69-1.41A6.91,6.91,0,0,1,477.5,420a7,7,0,0,1-5.27-5.65,7.17,7.17,0,0,1,0-1,6.77,6.77,0,0,1,3-6.69c4.14-2.81,9.53,0,10.37,4.77C486,413.63,485.79,416.2,484.11,417.93Zm28.82-3.41a6.88,6.88,0,0,1-6.62,2,7,7,0,0,1-5.26-5.64,6,6,0,0,1,0-1,6.79,6.79,0,0,1,3-6.7c4.14-2.8,9.53,0,10.37,4.78C514.8,410.22,514.6,412.79,512.93,414.52ZM545.51,409a7,7,0,0,1-6.62,2,7.05,7.05,0,0,1-5.27-5.65,6,6,0,0,1,0-1,6.78,6.78,0,0,1,3-6.69c4.14-2.81,9.53,0,10.37,4.77C547.38,404.69,547.18,407.26,545.51,409Zm79.56-47.8c.94-8.35.78-17.14,3.65-25.15,1.35-3.77,4.26-9.56,8.53-10.7,6.28-1.66,5.77,7.66,5.46,11.29-.38,4.41-.85,8.79-1.27,13.18s-.54,8.58-1.53,12.75c-4.1,0-8.2-.07-12.29.07l-1.38-.14-1-.45c0-.05,0-.1,0-.14A1,1,0,0,1,625.07,361.2Zm-16-34.9c6.27-1.68,5.77,7.65,5.46,11.28-.38,4.4-.85,8.79-1.28,13.18s-.53,8.58-1.53,12.75c-4.1,0-8.19-.08-12.28.07l-1.39-.14-1-.45v-.14a1,1,0,0,1-.18-.71c.95-8.35.78-17.14,3.66-25.15C601.84,333.22,604.75,327.43,609,326.3Z"/><path class="cls-1" d="M611.45,249.88c1.37,2.89,4.27,1.79,6.63.33a21.63,21.63,0,0,0,5.24-1.89l.07,0c-.85-2.23-1.68-4.48-2.48-6.73-.91.47-1.84.88-2.79,1.26-2,.33-4.14.64-5.75,1.87A4.17,4.17,0,0,0,611.45,249.88Z"/><path class="cls-1" d="M614.55,120.26c-.41-9.37-.48-18.74-.81-28.11-1.75.08-3.5.2-5.25.28.18,10-.14,20.14-.42,30.19A66.08,66.08,0,0,0,614.55,120.26Z"/><path class="cls-1" d="M609.06,283.72c-.16-2.8-.1-5.6-.15-8.41s.07-5.85.26-8.74l-.06-.59c0-.49.09-1,.12-1.46h0c0-.1,0-.2,0-.29.08-1,.15-2.06.19-3.09.14-2.33.3-4.67.46-7a8.7,8.7,0,0,1-2.17-3.11,11.4,11.4,0,0,1-1.38-4.9,4.53,4.53,0,0,1,1.48-3.13,11.18,11.18,0,0,1,3-2c.62-8.47,1.18-16.95,1.41-25.41a2.77,2.77,0,0,1,.18-.9q-2.75-9.9-5-19.93c0,.32,0,.64-.08,1-.94,10.23-1.1,20.34-1.35,30.6-.16,6.59-.36,13.18-.69,19.75-.23,4.47-.51,8.93-.9,13.39a40.23,40.23,0,0,1,0,6.21,66.88,66.88,0,0,1-.59,7.51c0,.12,0,.23,0,.34-.18,3.78,0,7.55-.37,11.32C604.59,286.68,609.2,286.37,609.06,283.72Z"/><path class="cls-1" d="M558.21,312.25a92.08,92.08,0,0,0,10.18,8.21c5.76,3.72,12.26,6.66,17.34,11.33a39.59,39.59,0,0,0,7.27-22.7l-.12,0c-12.28-5.47-23.8-15.29-32.27-25.88a30.83,30.83,0,0,1-10.19,21.56.91.91,0,0,1-.27,1C551.21,304.82,557.48,311.63,558.21,312.25Z"/><path class="cls-1" d="M520.38,89.27c-.46,1.91-1,3.8-1.6,5.64,0,.28,0,.57,0,.86,3.82-.15,8-.77,10.61-2.81-1.78-2-6.05-2.66-8.38-3.41A2.55,2.55,0,0,1,520.38,89.27Z"/><path class="cls-1" d="M515.94,95.81l.1-.34c-.28-6.24,1.16-12.68,2.46-18.72.82-3.81,1.72-7.6,2.53-11.41.44-2.87.94-5.73,1.44-8.54a28.91,28.91,0,0,0-7.15-.75l-1.11,5.41c-1,11.46-3.93,22.68-5.67,34,1.48.15,3,.24,4.46.27C513.88,95.79,514.88,95.81,515.94,95.81Z"/><path class="cls-1" d="M478.5,329.51c-1.41,6.3-2.23,12.68-3.38,19q-.53,2.91-1,5.8a1.71,1.71,0,0,1,.11.14q.24.4.51.78l.34.42a1.3,1.3,0,0,1,.21.31c1.4,1.77,3.13,3.31,4.54,5.08,7.68,7,16.71,12.43,24.08,19.76a6.19,6.19,0,0,0,1.09-1.08c.36-.87,1.11-2.57,1.32-3.1.77-2,1.51-4,2.29-5.95,1.47-3.73,2.89-7.89,5.45-11a6,6,0,0,1,.48-.52c-5.9-5.26-11.89-10.17-18.17-15-2.26-1.74-4.48-3.5-6.64-5.33a.55.55,0,0,1-.18.06,13.46,13.46,0,0,0-1.51-1.32c-1.69-2-3.91-3.22-5.86-5a33.34,33.34,0,0,1-3.52-3.75A.89.89,0,0,0,478.5,329.51Z"/><path class="cls-1" d="M510.07,140.28c1.2-5.4,2.58-10.79,2.86-16.33a2.76,2.76,0,0,1-1.36-1.8c-.72,0-1.44,0-2.16-.09h-.13c-1-.06-2-.13-2.93-.24a1.48,1.48,0,0,1-.49-.15l-.15,0c-.32,6-1.77,11.82-2.8,17.72Q506.48,139.84,510.07,140.28Z"/><path class="cls-1" d="M504.63,94.92c.13-.63.25-1.26.37-1.89.06-.83.14-1.66.22-2.5a39.89,39.89,0,0,1-8.45,1.6,16.17,16.17,0,0,0,5.47,2.24C503,94.59,503.84,94.76,504.63,94.92Z"/><path class="cls-1" d="M464.49,367.91c2.94-.06,5.76-1.29,5.19-3.2.22-2,.42-4.07.65-6.1.65-5.82,2.21-11.6,3.13-17.38.55-3.42,1.14-6.78,1.84-10.12A19,19,0,0,1,476,326l0-.05c1.7-10.4,3.3-20.83,4.08-31.36,0-.09,0-.18.05-.26-2.78-.48-5.55-1-8.31-1.55-3,11.52-5.45,23.15-7.88,34.78a2.46,2.46,0,0,1,0,1.32c-.36,1.31-.73,2.61-1.09,3.91-.6,2.87-1.2,5.75-1.81,8.61-.11,4.9-1.87,9.53-2.65,14.44-.54,3.37-1,6.79-1.55,10.2A15.75,15.75,0,0,0,464.49,367.91Z"/><path class="cls-1" d="M412.38,106c1.35-9.35,4.85-19.15,3-28.66-4.48-.34-5.48,16.21-5.91,19.15-.95,6.53-2.31,13.12-3.72,19.56s-3,13-6.27,18.7q4.78,1.47,9.61,2.85C410.71,127.14,410.86,116.51,412.38,106Z"/><path class="cls-1" d="M361.29,338.05a10.29,10.29,0,0,0,5,1c2.64-.27,4.41-2.25,5.47-4.54,2.82-6.06,2.92-13.36,3.05-19.92.06-3,0-6.08.12-9.13.11-3.59,1-7.09,1.55-10.62-3.24-.73-6.47-1.46-9.7-2.21a29.31,29.31,0,0,1-1.23,7.45c-.54,2.11-1,4.24-1.38,6.38H364c-.4,2.95-.65,5.93-1,8.94-.56,5.54-1.74,11-2.25,16.57C360.73,333.2,359.73,337.33,361.29,338.05Z"/><path class="cls-1" d="M256.16,340c-12.72-.57-25.49-1.29-38.22-.67-5.62.27-11.38.64-16.84,2.09a28.73,28.73,0,0,0-4.84,1.63c24,2,48.52,1.17,71.91,7.7q3.42-5.41,6.82-10.83A166.75,166.75,0,0,1,256.16,340Z"/><path d="M277.39,360.05a50.34,50.34,0,0,1,16.67,10.7c6.29,6.26,9.61,15.12,12.28,23.39,5.21,16.14,8,33.23,19.39,46.48,9.17,10.67,22.75,15.6,36.26,17.89,20.07,3.4,40.94,3.28,61.21,2.38,22.91-1,45.69-3.77,68.42-6.72,11-1.43,21.93-2.84,33-3.87a300.89,300.89,0,0,0,31.08-4.05c34.25-6.86,61-29.62,80.77-57.41,9.79-13.73,17.9-28.62,25.07-43.86,7.61-16.18,13.94-32.91,21.64-49a2.91,2.91,0,0,0,.69-1c.22-.54.41-1.08.59-1.61l.13-.26a3.09,3.09,0,0,0,.31-1.31c4.31-17.77-19.4-26.88-33.73-28.71-6-.78-12.33-.3-18.41-.13s-11.85.5-17.76,1.05c.2-2.91.4-5.81.62-8.71a25.21,25.21,0,0,0,9.18-2.91c.21.58.43,1.15.67,1.72s.53,1.2.8,1.79c3.48,1.37,7.93-.9,10.95-2.36a152.79,152.79,0,0,0,15.62-9.31,88.41,88.41,0,0,1,15.35-7.84c7-2.73,14.92-5.15,20.45-10.41,0,0,0,0,0,0a2.31,2.31,0,0,0,1.24-3c-.05-.16-.1-.32-.16-.48,4.93-2.5,10.39-3.61,15.3-6s1.41-7.76-.19-11a2,2,0,0,0-2.29-.94c-1.46.27-2.89.63-4.3,1-.07-.12-.13-.24-.19-.36a505.18,505.18,0,0,1-27.5-60.26q-2.7-7.22-5.13-14.57a.73.73,0,0,0-.53-.51q-2.9-12.91-5.74-25.84c-.56-2.52-3.66-2.22-4.67-.43-7.58,4.26-16.28,6.32-24.27,9.7-3.54,1.5-7,3.22-10.58,4.86-.37-9.5-.42-19-.85-28.49A2.58,2.58,0,0,0,616.2,87c-3.46,0-6.9.44-10.36.51a2.5,2.5,0,0,0-2.34,3.2,2.76,2.76,0,0,0-.29,1.2c-.24,10.64-.65,21.37-.47,32-.68.12-1.38.22-2.07.31a2.59,2.59,0,0,0-1.8,1,2.12,2.12,0,0,0-1.71,2.4c.56,6.8,1.26,13.63,2.11,20.45q-17.4,25.36-34.71,50.81l-.14-.1c-.44-.29-.8.38-.41.68l.1.08q-18.23,26.8-36.39,53.64a182.18,182.18,0,0,1,.44-32.7c2.15-23.85,6.5-47.07,16.45-68.75a1,1,0,0,1,.11-.65c.63-1.25,1.29-2.48,2-3.71a6.44,6.44,0,0,0,.07-1.8c-.14-1.05-1-1.59-2-1.84h-2a1.09,1.09,0,0,0-.08.15l-1.43-.15h-1.7a1,1,0,0,1-.68-.25c-7.84-.8-15.67-1.64-23.5-2.57,1.33-5.68,2.79-11.5,2.83-17.33,4.52-.39,9.13.29,12.94-3s3.79-11.74,4.21-16.31,1.39-9.7-1.08-13.76c-2.15-3.53-6.87-4.48-10.72-5.45a14.32,14.32,0,0,1,.92-4.54c.14-.27,3.12,0,3.93,0A115.64,115.64,0,0,0,541,81.2c5.16-.14,10.3-.7,15.47-.76a2.69,2.69,0,0,0,2.59-2c1.62-8.78,3.39-18,1.4-26.83a2.65,2.65,0,0,0-2.58-2c-8.79.55-17.31,3.12-26.14,3.33-4,.1-7.62-1.58-11.48-2.22-2.21-.37-6.15-.65-8.22.52a3.48,3.48,0,0,0-1.42,1.6,117.83,117.83,0,0,1-3.24,17.65q-.66,3.71-1.28,7.43a25,25,0,0,1-1.57,7.62,2.56,2.56,0,0,0-.46.11c-4,1.34-8.34,1.25-12.52,1.58a2.74,2.74,0,0,0-2.58,2c-2.7,10.63-3.33,31.58,11.52,33.07h.13c-.54,5.49-2.05,10.83-2.93,16.28l-4-.56A411.17,411.17,0,0,1,435,124.84c.05-.12.11-.24.15-.36-1.8,0-3.6.13-5.41.31-.82,2.25-1.75,4.46-2.69,6.67a1,1,0,0,1-.26.35,38.08,38.08,0,0,1-4.41,9.47c-2.71-.71-5.4-1.44-8.1-2.19,1.65-10.94,1.84-22,3.39-33C419.1,96,422.54,86,420.2,75.74A2.4,2.4,0,0,0,419,73.16c-10.64-6.5-13.19,11.22-14,17.75-.8,6.14-2,12.19-3.11,18.28-1.52,8.12-3.23,16.37-7,23.78a2.08,2.08,0,0,0-.12.3c-9.34-3-18.58-6.26-27.69-9.89a18.18,18.18,0,0,0-4.81-.38c-.36.16-.73.31-1.1.45-.46.77-.91,1.56-1.33,2.36a1.1,1.1,0,0,1-.41.42c-.57,1-1.12,2.07-1.68,3.11-10.34,22.07-21.79,43.62-31.42,66-.78,1.81-1.56,3.62-2.32,5.44q-33,34.56-66.13,69.12Q224.16,305,190.57,340.24a.68.68,0,0,0-.16.3,11.65,11.65,0,0,0-2.7,4c-.86,2.13,1.72,3.76,3.51,3.16.13,0,.27.07.41.09C220.16,351.33,250.25,349.1,277.39,360.05ZM525.21,68.22c.51-3.16,1.2-7.45.11-10.77V57.4a33.14,33.14,0,0,0,7.67.94c7.65-.19,15.08-2.35,22.68-3.12,1,6.56-.21,13.4-1.44,19.9-4.86.15-9.7.59-14.55.72-4.69.13-9.29-.66-14-.79a9.81,9.81,0,0,0-1.88.15C524.33,72.88,524.83,70.56,525.21,68.22Zm-329,274.86a28.73,28.73,0,0,1,4.84-1.63c5.46-1.45,11.22-1.82,16.84-2.09,12.73-.62,25.5.1,38.22.67A166.75,166.75,0,0,0,275,340q-3.4,5.42-6.82,10.83C244.78,344.25,220.28,345.12,196.26,343.08Zm308.43-40q1.71-2.51,3.67-4.84c4.31.45,8.64.85,13,1.2-2.19,4.5-4.53,8.91-6.94,13.29C511.18,309.46,507.89,306.3,504.69,303.06Zm9.13,10.67c-.07.11-.13.23-.2.35-1.17.33-2.36.67-3.53,1-4.86,1.47-9.75,2.9-14.69,4,2.8-5.18,5.49-10.39,8.75-15.27C507.34,307.19,510.62,310.42,513.82,313.73ZM503.67,302l-.52-.54c-.41-.42-1,.22-.65.64l.62.66c-3.63,5.16-6.44,11.05-9.37,16.71a89,89,0,0,1-9.9,1.56q8.08-11.88,16.16-23.78c2.3.28,4.6.55,6.91.79A44.13,44.13,0,0,0,503.67,302Zm-21.58,18.49c1.29-8.39,2.46-16.79,3-25.31,4.3.69,8.62,1.28,12.94,1.83Zm8.4,5c-.28.49-.56,1-.86,1.44s.6,1.18,1,.57.91-1.49,1.35-2.24a151.78,151.78,0,0,0,17.85-4.37c-1.92,3.41-3.85,6.82-5.74,10.26a.6.6,0,0,0,1,.6c2.1-3.81,4.29-7.59,6.48-11.38l1.23-.38c1.79-.53,3.6-1,5.41-1.53.74.81,1.46,1.64,2.17,2.47.49.58,1.33-.26.83-.83s-1.15-1.33-1.73-2c3.43-.92,6.89-1.81,10.3-2.83L512,352.5c-3.94-3.43-8.42-6.42-12.42-9.43-6.5-4.88-13.23-9.84-18.44-16.15,0-.21.06-.41.1-.62A72,72,0,0,0,490.49,325.48Zm59.93-20.75a30.83,30.83,0,0,0,10.19-21.56c8.47,10.59,20,20.41,32.27,25.88l.12,0a39.59,39.59,0,0,1-7.27,22.7c-5.08-4.67-11.58-7.61-17.34-11.33a92.08,92.08,0,0,1-10.18-8.21c-.73-.62-7-7.43-8.06-6.52A.91.91,0,0,0,550.42,304.73Zm6.73-29.15a2.2,2.2,0,0,0-1.87,2.8,2.72,2.72,0,0,0-.1.72c-.06,6.86-1.07,13.35-5.49,18.84-3.65,4.53-8.86,7.52-14.21,9.64q28-58.45,56-116.95,5.06-10.59,10.13-21.17c2.29,8.92,1.23,18.38.39,27.43-1,10.27-1.07,20.46-1.34,30.76-.27,11.06-.69,22.1-1.68,33.12l-.48,5.37C584.59,268.75,571.08,273.08,557.15,275.58Zm-18.21,36.47a41.28,41.28,0,0,0,8.66-5,3.05,3.05,0,0,0,.94.69c4.57,2.34,8.26,6.93,12.21,10.33,7.13,6.1,16.34,9.58,23.18,15.95a37.81,37.81,0,0,1-5.74,5.46c-9.11,7-20.53,10.64-31.53,13.47-7.13,1.84-13.78,3.63-21.17,3.6-2.77,0-6-.12-8.55,1a39.82,39.82,0,0,0-3.64-3.84q9.44-19.58,18.83-39.16C534.44,313.81,536.72,313,538.94,312.05Zm-56.77,20.47c1.95,1.81,4.17,3,5.86,5a13.46,13.46,0,0,1,1.51,1.32.55.55,0,0,0,.18-.06c2.16,1.83,4.38,3.59,6.64,5.33,6.28,4.84,12.27,9.75,18.17,15a6,6,0,0,0-.48.52c-2.56,3.13-4,7.29-5.45,11-.78,2-1.52,4-2.29,5.95-.21.53-1,2.23-1.32,3.1a6.19,6.19,0,0,1-1.09,1.08c-7.37-7.33-16.4-12.76-24.08-19.76-1.41-1.77-3.14-3.31-4.54-5.08a1.3,1.3,0,0,0-.21-.31l-.34-.42q-.27-.37-.51-.78a1.71,1.71,0,0,0-.11-.14q.48-2.9,1-5.8c1.15-6.34,2-12.72,3.38-19a.89.89,0,0,1,.15-.74A33.34,33.34,0,0,0,482.17,332.52ZM401.05,353l-.07,0a1.26,1.26,0,0,0-1,.81c-2.88,2.26-8.22,2.88-11.57,3.53l-.2,0c.59-4,1.61-8,1.52-12.1q6-1,11.87-2.53A52.16,52.16,0,0,0,401.05,353Zm-25.91-5.89c4.07-.32,8.14-.78,12.17-1.41-.24,4.11-1.52,8-1.86,12.16a100.73,100.73,0,0,1-10.55.89C375.63,354.93,375.06,350.91,375.14,347.07Zm-10.4-2.62c-8.49.16-17.69.51-25.22-3.89A58.23,58.23,0,0,1,324,327c-.54-.65-1.06-1.34-1.56-2.06a11.3,11.3,0,0,0,2.52-1.16c3.45-1.85,7.47-2.59,11.3-3.17,7.81-1.18,15.8-1,23.55-2.55-.75,5.64-1.79,11.25-2.2,17-.29,4.18,1.52,5.81,5.47,6.73a9.39,9.39,0,0,0,8.28-1.72c5.35-4.24,5.79-13.59,6.19-19.75.08-1,.12-2.07.17-3.11a1.35,1.35,0,0,0,.57,0,11.43,11.43,0,0,1,2.55,0,1.69,1.69,0,0,0,.27.12l.28.07a46.35,46.35,0,0,0,2.18,4.27v0c1.2,4.88,5.09,9.15,8.1,13A22.6,22.6,0,0,0,397,339.8a7.14,7.14,0,0,0,.71.4,2.88,2.88,0,0,1,.22.27A189.6,189.6,0,0,1,364.74,344.45Zm-4.85,3h.85c4,.08,8.07,0,12.12-.27-.22,3.85.12,7.77-.68,11.56-4.31.09-8.63,0-12.94-.27a44.18,44.18,0,0,0,.82-6.34A13.68,13.68,0,0,0,359.89,347.49Zm-16.37-1.58,0-.09.58.21c4.14,1.37,9.06,1.42,13.6,1.44.52,1.41,0,4.12-.18,5.3-.2,1.87-.69,3.71-.89,5.58q-6.11-.44-12.19-1.12l-1.52-.17C344,353.66,343.89,349.4,343.52,345.91Zm-3.2,10.58a1.62,1.62,0,0,0,0,.19,41.1,41.1,0,0,1-11.48-3.34c.7-5.14,1.06-10.32,1.75-15.47,1.66,1.36,3.38,2.64,5.12,3.82a36.7,36.7,0,0,0,5.75,3.29,1,1,0,0,0-.35.93C341.36,349.23,341.46,353.31,340.32,356.49Zm20.52-24.55c.51-5.56,1.69-11,2.25-16.57.3-3,.55-6,1-8.94h.13c.4-2.14.84-4.27,1.38-6.38a29.31,29.31,0,0,0,1.23-7.45c3.23.75,6.46,1.48,9.7,2.21-.56,3.53-1.44,7-1.55,10.62-.08,3.05-.06,6.09-.12,9.13-.13,6.56-.23,13.86-3.05,19.92-1.06,2.29-2.83,4.27-5.47,4.54a10.29,10.29,0,0,1-5-1C359.73,337.33,360.73,333.2,360.84,331.94Zm-.59-17.67c0,.35-.07.69-.12,1a1.34,1.34,0,0,0-.56,0c-1,.21-2,.39-3,.55-.62-2.37-.53-5.27-1.45-7.61l.84-.11a.83.83,0,0,1,.53-.31c1.55-.25,3.07-.57,4.6-.88C360.72,309.39,360.5,311.86,360.25,314.27Zm-.08-14.58c-.19.72-.36,1.46-.52,2.18-7.62.85-15.21,1.82-22.84,2.57-8,.8-16.12,2.12-23.15,6.28a27.86,27.86,0,0,0-8.09,7.62c-2.05,2.76-3.45,6-5.74,8.57-2.08,2.35-5.14,3.32-8.07,4.19A72.86,72.86,0,0,1,281,333.28q17.14-26.83,34.22-53.68l1.23.31c15.06,3.79,30,7.82,45.13,11.44A31.45,31.45,0,0,1,360.17,299.69ZM354,316.23c-3.5.42-7,.63-10.55.92a24,24,0,0,1-.78-7.51c1.42-.12,2.83-.24,4.23-.38,2-.19,4-.43,5.94-.7a13.55,13.55,0,0,1,.58,3.89A15.58,15.58,0,0,0,354,316.23Zm-13.17,1.14c-.64.06-1.29.12-1.92.2a61.64,61.64,0,0,0-8.44,1.51c-1-2.46-.56-5.27-1-7.89l1-.19c3.3-.58,6.64-.9,10-1.19C340.41,312.25,340,315.05,340.8,317.37ZM328,319.83c-2,.86-6.17,2.83-6.33,2.61a1.06,1.06,0,0,0-1.06-.47,12.1,12.1,0,0,1-1.52-7.51,38.37,38.37,0,0,1,8-2.78C327.43,314.32,326.74,317.49,328,319.83ZM309.44,323a22.64,22.64,0,0,1,6.75-6.88,14.25,14.25,0,0,0,.33,2.56c-1,5.19-4.11,9.62-5.94,14.51a58.89,58.89,0,0,1-3.52-6.49C307.86,325.5,308.64,324.26,309.44,323Zm8.38-.5a28.29,28.29,0,0,0,1.39,2.69c.29.5.6,1,.92,1.48a1.11,1.11,0,0,0-.5.9c-.28,4.8-2.59,9.19-3.58,13.82-1-1.44-1.91-2.88-2.88-4.27-.29-.4-.55-.8-.82-1.2C314,331.36,316.44,327.09,317.82,322.49Zm4,6.54a51.06,51.06,0,0,0,6.64,7.08c-1.1,5.21-1.58,10.57-2.17,15.87a25.51,25.51,0,0,1-4.74-3.68,32.83,32.83,0,0,1-3.35-3.89C318.64,339.13,321.3,334.31,321.82,329Zm104.34-61.55c-11.66,2-23.77.27-35.37-1.42-3.25-.48-6.51-.89-9.78-1.3.47-4.07,1.1-8.12,1.8-12.14,1.53-8.81,3.4-17.61,5.54-26.32a273.94,273.94,0,0,0,36.89,3.41A157.16,157.16,0,0,0,426.16,267.48Zm-35.92.59c11.42,1.68,24.63,4.2,36.23,1.56a161.79,161.79,0,0,0,7.76,30.05c-17.81-2.47-35.51-5.81-53.1-9.62a91.92,91.92,0,0,1-.33-23.26C384,267.19,387.1,267.6,390.24,268.07Zm-4.72,39.12c.38,2.51-.53,4.95-1,7.41a14.43,14.43,0,0,1-2.18,0l-.17,0-.22,0h-.12a1.81,1.81,0,0,0-.4,0,19.48,19.48,0,0,0-3.66.06c.05-2.17.06-4.36.09-6.53q0-1.1,0-2.19c.4.06.78.13,1.17.21A28,28,0,0,1,385.52,307.19Zm13.45,27c-2.09-1.65-3.57-4-5.09-6.19s-3.62-4.33-4.57-7,.86-5.7,1.66-8.2a12.24,12.24,0,0,0,0-8.54,2.91,2.91,0,0,0-3-1.77c-1.7-.37-3.41-.64-5.06-.87.08-1.79.15-3.58.17-5.38,17.73,3.84,35.59,7.15,53.56,9.57v0q1.25,0,2.49.15a6.51,6.51,0,0,0,2.5-3.29c-.17-.7-.31-1.39-.45-2.09l-.15,0A163.36,163.36,0,0,1,435.14,282c.21.05.42.1.64.17,5.3,1.45,10.46,4,15.76,5.62,5,1.52,10.1,2.82,15.22,4-2.74,10.43-5.06,20.95-7.31,31.49-.93,4.32-1.93,8.65-2.9,13-1.82,5.68-3.72,11.33-5.34,17.08-7.11,1.66-14.46,2-21.73,2.55s-14.78,1.24-22,.71c-.44-4.74.7-9.58-.1-14.31C406.51,337.13,402.45,336.92,399,334.18Zm12.36,28.08a149.4,149.4,0,0,0,17.06-.43c8.86-.67,18-.86,26.6-3.36-.31,1.9-.66,3.81-1,5.71a7,7,0,0,0,3.61,5.16,16.34,16.34,0,0,0,9.46,1.2c.65-.32,1.31-.62,2-.91a14.5,14.5,0,0,0,2.29-1.38c.33-.37.64-.76.95-1.15.34-3,.75-5.9,1.21-8.84,1.32,1.26,2.59,2.59,3.92,3.83l-.06.12c7.55,7.25,16.55,12.85,24.15,20a51.59,51.59,0,0,1-7.93,2.42,149.86,149.86,0,0,1-15.79,3.79c-7.05,1.15-14.16,1.34-21.28,1.71a167.76,167.76,0,0,1-20.55.31c-12.48-.9-21.72-6.74-27.28-17.93a47,47,0,0,1-3.73-10.77C406.84,362.52,409.3,362.19,411.33,362.26Zm68.74-67.63c-.78,10.53-2.38,21-4.08,31.36l0,.05a19,19,0,0,0-.73,5.07c-.7,3.34-1.29,6.7-1.84,10.12-.92,5.78-2.48,11.56-3.13,17.38-.23,2-.43,4.07-.65,6.1.57,1.91-2.25,3.14-5.19,3.2a15.75,15.75,0,0,1-7.66-1.83c.55-3.41,1-6.83,1.55-10.2.78-4.91,2.54-9.54,2.65-14.44.61-2.86,1.21-5.74,1.81-8.61.36-1.3.73-2.6,1.09-3.91a2.46,2.46,0,0,0,0-1.32c2.43-11.63,4.91-23.26,7.88-34.78,2.76.56,5.53,1.07,8.31,1.55C480.11,294.45,480.08,294.54,480.07,294.63Zm-8.59-7.53c-5.1-1.06-10.16-2.26-15.18-3.64s-10.08-3-15-4.87a40.39,40.39,0,0,0-6.75-2.22l-.74-.11c-.26-1.23-.51-2.48-.74-3.72,4.95-.51,9.5-3.65,14.09-5.51,9.06-3.68,18.39-6.75,27.63-9.93,8.54-2.94,17.05-5.9,25.71-8.49a152,152,0,0,0,21-7.48,150.85,150.85,0,0,0,1.2,18.51q.54,4.07,1.39,8c-5.31,2.32-11.15,3.41-16.71,4.95a75.45,75.45,0,0,0-12.27,5.1c-5.2,2.49-10.41,5-15.8,7A38.58,38.58,0,0,1,471.48,287.1ZM522.71,218a204.07,204.07,0,0,0-1.26,21.12c-6.86,3.3-14.13,5.56-21.42,7.75-8.23,2.48-16.32,5.28-24.43,8.1-8.53,2.95-17.06,5.9-25.48,9.14a99,99,0,0,0-9.08,4,25.78,25.78,0,0,1-8.25,3,156.77,156.77,0,0,1-2.46-30.61c3.15-1,6.05-2.7,9.21-3.83,5-1.8,9.85-4.21,14.82-6.15,10-3.9,20.09-7.4,30.19-10.95,8-2.8,15.88-5.57,24.08-7.79,5.2-1.4,10.8-2.88,15.47-5.75C523.6,210,523.15,214,522.71,218Zm-97.26,9.69a343.43,343.43,0,0,1-36.6-3.45c.69-2.71,1.39-5.41,2.13-8.09A245.34,245.34,0,0,1,404.41,179l7.72,1.87c8.1,2,16.79,4,25.24,3.75A138.25,138.25,0,0,0,425.45,227.73Zm-36.3-12Q388,219.81,387,224c-4.85-.8-9.65-1.74-14.41-2.87-7.75-1.83-15.39-4.08-23.05-6.24,3.87-8.84,8-17.54,12.43-26.09,3.11-6.07,6.21-12.26,9.64-18.18,5,1.6,10.12,2.9,15.24,4.13l15.68,3.82A255.82,255.82,0,0,0,389.15,215.68Zm-19.74,6.69c5.58,1.43,11.28,2.62,17,3.61-2.32,9.43-4.27,19-5.88,28.52-.56,3.31-1.06,6.65-1.45,10-5.22-.65-10.44-1.28-15.65-2a160.07,160.07,0,0,1-29-6.42c1.43-5.6,3.33-11.13,5.22-16.52,2.71-7.74,5.75-15.4,9-23C355.63,218.55,362.48,220.61,369.41,222.37Zm-8.12,41.87c5.86.89,11.74,1.58,17.61,2.32a88.76,88.76,0,0,0,.31,23.09q-5.18-1.14-10.33-2.31c-12.76-2.93-25.45-6.15-38.14-9.37a.72.72,0,0,0,.22-.29c1.88-4.28,1.23-9.92,2-14.48.29-1.74.66-3.47,1.07-5.2C342.85,261.08,352.09,262.84,361.29,264.24Zm-30.06-2.34c-1.11,4.84-.23,10.44-1.93,15.08a.76.76,0,0,0,.05.63l-9.13-2.31c-5.88-1.48-11.83-2.88-17.74-4.45l.11-.09H301a1,1,0,0,1-.91-.54l-.93-.25c4.84-8.72,9.15-17.69,13.2-26.8,3.64,6.27,10.4,10.3,16.95,13,1,.41,2,.8,3,1.18C332,258.88,331.58,260.39,331.23,261.9Zm-17.75,17.25Q296.25,306.33,279,333.53c-1.32.16-2.63.3-3.95.44-10.86,1.18-21.72.14-32.62-.26-5.22-.19-10.49-.35-15.75-.33,13.39-11.65,27.71-22.35,41.46-33.54,8.89-7.24,17.77-14.51,26.47-22l3.25-2.83C303.05,276.51,308.27,277.84,313.48,279.15Zm365.62,11.9c-8.61,17.28-15.28,35.41-23.54,52.85a275.55,275.55,0,0,1-26.67,45.4c-10.25,13.93-22.58,26.57-37.14,36-17.29,11.22-36.69,15.95-57,18.14-10.78,1.16-21.59,2-32.34,3.43-11.32,1.5-22.63,3-34,4.29-22.78,2.65-45.68,4.52-68.62,4.29-17.21-.18-35.79-.58-52.11-6.69-14.53-5.44-23.29-17.34-28.41-31.54-5.58-15.47-7.45-33.16-17.67-46.6-7.53-9.91-19.13-15.51-30.79-19.06-.43-.14-.87-.26-1.3-.39q3.65-5.67,7.28-11.37A74.39,74.39,0,0,0,297,335.49a18.73,18.73,0,0,0,8.26-6.29,61.52,61.52,0,0,0,4.78,8.35,99.47,99.47,0,0,0,8.75,12.12,23.11,23.11,0,0,0,2.68,2.57c-11.8-1.92-24.11.41-36-.71-1.39-.13-1.36,2,0,2.16,12.94,1.38,25.88-.12,38.81,1.54a.94.94,0,0,0,.91-.37c5,2.9,10.84,4.26,16.7,5.05a199.14,199.14,0,0,0,33,1.84,98.36,98.36,0,0,0,15.4-1.72c3.33-.65,8-1.4,11-3.5a57.36,57.36,0,0,0,4.45,16.67c5,11.28,14.43,18.27,26.61,19.87,7.62,1,15.28.58,22.92.16s15.53-.71,23.25-1.87a139.39,139.39,0,0,0,18.13-4.45,55.13,55.13,0,0,0,5.45-1.74,46,46,0,0,1,4-2.34l.12-.09c1.81-1.16,2.69-5,3.31-6.55,1.76-4.53,3.33-9.21,5.83-13.41,2.87-4.84,10-3.21,14.85-3.33,7.24-.19,14.69-2.94,21.61-4.88,11-3.07,22-7.4,30.67-14.94a36.53,36.53,0,0,0,4.09-4.17,1.63,1.63,0,0,0,.86-1.07A38.84,38.84,0,0,0,595.17,309c13.64.88,70.46-5.25,84.1-19C679.22,290.36,679.18,290.7,679.1,291.05Zm-48.91-23.52a157.48,157.48,0,0,1,16.26.4,41.22,41.22,0,0,1,5.49.7c10.54,1.42,24.53,6.73,27.07,16.36-1.11,3.72-6,6.19-9.36,7.77-8.51,4.08-18,6.28-27.22,8.2-9.88,2.06-19.9,3.55-29.93,4.63-5.79.62-12.1,1.67-18,1.1l-.2-.14a127.41,127.41,0,0,1-32.78-26.31c12.27-2.2,24.19-6.08,36.42-8.52,0,0,0,.08,0,.12.83-.17,1.66-.36,2.49-.55-.37,2.51-.79,5-1.07,7.45-.49,4.32-.45,9.27,4.48,10.54s9.14-1,8.82-6.39c-.25-4.27-.08-8.56-.25-12.84,0-.44,0-.87,0-1.3l.57-.09A154.05,154.05,0,0,1,630.19,267.53Zm-25.81-8c.39-4.46.67-8.92.9-13.39.33-6.57.53-13.16.69-19.75.25-10.26.41-20.37,1.35-30.6,0-.33.06-.65.08-1q2.28,10,5,19.93a2.77,2.77,0,0,0-.18.9c-.23,8.46-.79,16.94-1.41,25.41a11.18,11.18,0,0,0-3,2,4.53,4.53,0,0,0-1.48,3.13,11.4,11.4,0,0,0,1.38,4.9,8.7,8.7,0,0,0,2.17,3.11c-.16,2.32-.32,4.66-.46,7,0,1-.11,2.06-.19,3.09,0,.09,0,.19,0,.29h0c0,.48-.08,1-.12,1.46l.06.59c-.19,2.89-.3,5.78-.26,8.74s0,5.61.15,8.41c.14,2.65-4.47,3-5.73,1.14.38-3.77.19-7.54.37-11.32,0-.11,0-.22,0-.34a66.88,66.88,0,0,0,.59-7.51A40.23,40.23,0,0,0,604.38,259.48Zm18.94-11.16a21.63,21.63,0,0,1-5.24,1.89c-2.36,1.46-5.26,2.56-6.63-.33a4.17,4.17,0,0,1,.92-5.18c1.61-1.23,3.77-1.54,5.75-1.87,1-.38,1.88-.79,2.79-1.26.8,2.25,1.63,4.5,2.48,6.73ZM616.71,239c.17-2.84.32-5.69.43-8.53.81,2.5,1.65,5,2.5,7.48A29.63,29.63,0,0,1,616.71,239Zm85.2-30.32a26.44,26.44,0,0,1,1.33,2.92c.61,1.73-3.35,2.32-4.38,2.65a69.1,69.1,0,0,0-10.5,4.21c-.56-1.7-1.13-3.39-1.68-5.1a17.53,17.53,0,0,0,5.25-1.69A53.18,53.18,0,0,1,701.91,208.65Zm-33.14-63.22A379.71,379.71,0,0,0,696.24,206c-1.19.36-2.39.73-3.6,1.08-2.41.7-4.59,2.38-7.14,2.54-7-22.07-12.55-44.51-17.73-67.05C668.1,143.52,668.43,144.47,668.77,145.43Zm-60.28-53c1.75-.08,3.5-.2,5.25-.28.33,9.37.4,18.74.81,28.11a66.08,66.08,0,0,1-6.48,2.36C608.35,112.57,608.67,102.47,608.49,92.43Zm21.28,26.64c4.65-2.11,9.45-3.79,14.26-5.48a81.25,81.25,0,0,0,11-4.31c7.93,38.25,16.49,76.57,29.09,113.58-9.27,7.16-21.76,9.1-31.69,15.32-4.58,2.88-9.08,5.88-13.78,8.58a56.57,56.57,0,0,1-6.59,3.34c-.44.19-1.16.52-1.92.78C615.62,211.48,606.8,170.7,602.45,129,612.12,127.77,621,123,629.77,119.07Zm-48.9,58.82q9.33-13.81,18.68-27.6,1,7.65,2.2,15.3-11.6,23.91-23.12,47.85a20.32,20.32,0,0,0-4-5.44c.79-1.58,1.57-3.16,2.37-4.73.29-.59-.59-1.1-.89-.52q-1.12,2.22-2.23,4.46l-1.27-1.28q-1.22-1.27-2.52-2.49a310.51,310.51,0,0,1,19.82-27.3c.34-.41-.26-1-.6-.59a305.44,305.44,0,0,0-20,27.18c-1.09-1-2.22-1.95-3.39-2.83Zm-19.78,39.89q4.14-6.83,8.48-13.52c1.32,1.29,2.59,2.63,3.77,4q-3.81,7.62-7.56,15.27C564.35,221.54,562.65,219.7,561.09,217.78Zm4.15,6.88c-3.5,7.12-7,14.26-10.54,21.35a62.69,62.69,0,0,1-4.4-9.94q5.06-8.76,10.27-17.43C562.14,220.63,563.8,222.56,565.24,224.66Zm.23-24c1.13.92,2.25,1.9,3.34,2.92q-4.32,6.6-8.44,13.34l-.07-.09c-.31-.41-1,.14-.72.56l.29.36c-3.43,5.62-6.77,11.3-10.07,17-.22-.62-.45-1.23-.68-1.85s-1.06-.3-.86.24c.32.87.63,1.75.94,2.64-2.81,4.87-5.59,9.74-8.39,14.61a.54.54,0,0,0,.93.54q4-6.87,7.94-13.77a49.52,49.52,0,0,0,4.43,10.07c-2.62,5.2-5.27,10.37-8,15.52-.32.6.59,1.13.92.53,2.67-5,5.25-9.95,7.78-15,.4.57.82,1.13,1.28,1.67s1.16-.16.8-.62c-.54-.72-1-1.45-1.51-2.19,3.58-7.11,7-14.28,10.54-21.43.11.17.22.33.32.5a.52.52,0,0,0,.89-.52c-.21-.38-.43-.74-.66-1.1q3.76-7.74,7.59-15.43a41.3,41.3,0,0,1,3.75,5.45.59.59,0,0,0,.17.18q-16,33.22-31.91,66.5c-3.89-3.54-6.06-8.54-8.26-13.24-.26-.57-1.08-.08-.82.48,2.07,4.53,4.3,10.74,8.58,13.81l-7.35,15.34-5.16,10.79c-5.75,2-11.74,3.5-17.65,5.11,2.53-4.6,4.94-9.26,7-14.07,4.07.33,8.14.62,12.21.9h0a7.24,7.24,0,0,0,3.11-3,5.7,5.7,0,0,0,.66-2.51h-.09a92.19,92.19,0,0,0-4.46-14.74,102.17,102.17,0,0,1-5.13-18.9q-.43-2.64-.74-5.32Zm-38.08,78.88c1.77,5,3.67,9.92,5,15-15-1-30-2.34-44.88-4.58q-6.21-.93-12.36-2.13l.95-.26c5.61-1.56,11-4.1,16.23-6.55,4.78-2.23,9.48-4.79,14.54-6.32,5.82-1.76,12-2.74,17.62-5.12A96.82,96.82,0,0,0,527.39,279.51Zm1.94-101.57a192.86,192.86,0,0,0-4.92,25.68c-5.25,3.75-12.12,5.26-18.2,6.9-8,2.15-15.62,5-23.4,7.74-9.68,3.41-19.36,6.82-28.92,10.55q-6.33,2.48-12.57,5.2c-3.55,1.54-7.21,3.59-11,4.89a137.86,137.86,0,0,1,5.91-36.37c3.11-.15,7.59-3.66,9.2-4.68,4.31-2.73,9.63-4.3,14.37-6.13,5.72-2.19,11.49-4.23,17.27-6.23,10.55-3.64,21.08-7.39,31.71-10.75,8.17-2.58,16.73-5,24.36-9.07C531.75,169.7,530.45,173.79,529.33,177.94ZM540,149.27c-2.14,4.5-4.08,9.11-5.83,13.78-7.52,4-15.46,6.7-23.58,9.26-9.29,2.94-18.47,6.19-27.7,9.33-9.92,3.38-19.82,6.82-29.54,10.77a56.87,56.87,0,0,0-9.82,4.64c-1,.67-4.35,3.24-6.66,3.74a121.43,121.43,0,0,1,15.68-31.92c2.22-.11,4.43-1.22,6.44-2.25a175.08,175.08,0,0,1,18.17-7.69c5.9-2.22,11.61-4.94,17.51-7.15,4.8-1.81,9.7-3.48,14.14-6.05C519.14,147.06,529.54,148.2,540,149.27Zm-37-9.91c1-5.9,2.48-11.73,2.8-17.72l.15,0a1.48,1.48,0,0,0,.49.15c1,.11,1.95.18,2.93.24h.13c.72,0,1.44.07,2.16.09a2.76,2.76,0,0,0,1.36,1.8c-.28,5.54-1.66,10.93-2.86,16.33Q506.49,139.85,502.91,139.36ZM529.36,93c-2.66,2-6.79,2.66-10.61,2.81,0-.29,0-.58,0-.86.62-1.84,1.14-3.73,1.6-5.64a2.55,2.55,0,0,0,.6.28C523.31,90.3,527.58,90.92,529.36,93Zm-15.15-31.5,1.11-5.41a28.91,28.91,0,0,1,7.15.75c-.5,2.81-1,5.67-1.44,8.54-.81,3.81-1.71,7.6-2.53,11.41-1.3,6-2.74,12.48-2.46,18.72l-.1.34c-1.06,0-2.06,0-2.94,0-1.49,0-3-.12-4.46-.27C510.28,84.14,513.25,72.92,514.21,61.46Zm-9,29.07c-.08.84-.16,1.67-.22,2.5-.12.63-.24,1.26-.37,1.89-.79-.16-1.59-.33-2.39-.55a16.17,16.17,0,0,1-5.47-2.24A39.89,39.89,0,0,0,505.22,90.53Zm-7.59,25.41c-6.22-3.76-5.25-16.75-3.9-23.51h.14c3.22,5.73,13.48,6.18,19.13,6.38,4,.14,12.84.31,17.56-2.68.29,2.7-.47,6-.67,8.19-.33,3.56-.5,7.77-2,11.16a15.49,15.49,0,0,1-8.27,2.68c-.7,0-1.39,0-2.09.08-2.09,0-4.17-.11-6-.25A74.5,74.5,0,0,1,497.63,115.94Zm-5.42,27.48q6.84,1,13.73,1.94a106.86,106.86,0,0,1-10.67,4.41c-5.45,2-10.7,4.49-16.1,6.62-5.05,2-10.42,3.52-15.32,5.84-2.77,1.3-6.69,4.47-10.28,5.14,1.85-2.59,3.81-5.14,5.91-7.63a1.07,1.07,0,0,1,.09-.19q1.55-2.45,3.07-4.91a20.61,20.61,0,0,0-1-4.13q-8.64-1.83-17.26-3.81a52.75,52.75,0,0,0,8.07-2.71,108,108,0,0,0,11.56-5.51C473.43,140.45,482.9,142,492.21,143.42ZM433.1,129.84a208.65,208.65,0,0,0,28.19,8.06c-2.52,1.33-5,2.68-7.63,3.86-3.87,1.75-8.41,3.76-12.84,4.08q-6.58-1.54-13.15-3.19C430.25,138.83,431.58,134.26,433.1,129.84Zm-10.24,17c11.18,3,22.44,5.71,33.76,8.22a123.17,123.17,0,0,0-18.29,27.52,137,137,0,0,1-25.67-3.69l-7.37-1.79A197.53,197.53,0,0,1,422.86,146.89Zm-17.08-30.82c1.41-6.44,2.77-13,3.72-19.56.43-2.94,1.43-19.49,5.91-19.15,1.82,9.51-1.68,19.31-3,28.66-1.52,10.49-1.67,21.12-3.26,31.6q-4.81-1.38-9.61-2.85C402.74,129,404.39,122.44,405.78,116.07Zm15.57,30.42a168.75,168.75,0,0,0-18,30.18c-4.66-1.15-9.32-2.29-14-3.38-5.48-1.29-11.21-2.63-16.86-4.32.39-.65.79-1.32,1.19-2,2.22-3.6,4.85-7,7.32-10.39,3-4.19,6-8.41,8.77-12.79.94-1.51,2.52-3.7,3.05-5.8C402.27,141.11,411.78,143.9,421.35,146.49Zm-57.24-18.92q13.5,5.44,27.31,10c-.65,2.49-3.15,5.45-4.27,7.17-2.87,4.39-6,8.62-9.1,12.85-2.58,3.54-5,7.18-7.21,10.9-7.57-2.37-14.93-5.42-21.26-9.89C354.56,148.31,359.52,138,364.11,127.57Zm-32.94,70.66c5.49-13,11.64-25.66,17.78-38.35a79.16,79.16,0,0,0,20.94,10.17c-4.11,6.93-7.79,14.09-11.45,21.31q-5.73,11.29-10.81,23l-.88-.25c-6.37-1.78-13.9-2.85-19.25-7.06Q329.33,202.62,331.17,198.23Zm-4.27,10.24c4.37,3.51,9.86,4.9,15.3,6.34,1.56.41,3.12.84,4.69,1.28q-4.62,10.74-8.6,21.71c-2.11,5.82-3.92,11.72-5.49,17.7-7.62-2.74-15.53-6.87-19.67-14.06C317.93,230.55,322.37,219.48,326.9,208.47Zm-4.9-3c-8.83,21.1-17.22,42.36-28.22,62.47-.2.79-.41,1.57-.63,2.36.17.63.31,1.26.46,1.89a9.11,9.11,0,0,0,1.53,2l1.27.37-2.68,2.35c-8.68,7.51-17.55,14.78-26.42,22-14,11.45-28.62,22.41-42.18,34.41a145.47,145.47,0,0,0-17.34,1.11c-3.93.5-8.68,1.2-12.67,3Q258.81,271.72,322,205.48Z"/><path d="M625.25,362.05l1,.45,1.38.14c4.09-.14,8.19-.11,12.29-.07,1-4.17,1.12-8.49,1.53-12.75s.89-8.77,1.27-13.18c.31-3.63.82-12.95-5.46-11.29-4.27,1.14-7.18,6.93-8.53,10.7-2.87,8-2.71,16.8-3.65,25.15a1,1,0,0,0,.17.71S625.25,362,625.25,362.05Zm10.8-32.54a8.09,8.09,0,0,1,1.79-1.33c2-1.13,2.21,3,2.27,3.89.19,3-.37,6.17-.54,9.16-.38,6.21-1.12,12.6-2,18.8-2.06-.07-4.13-.16-6.2-.16a16.49,16.49,0,0,0-3.91.29C628.55,350,628.48,337.15,636.05,329.51Z"/><path d="M597,362.85V363l1,.45,1.39.14c4.09-.15,8.18-.11,12.28-.07,1-4.17,1.12-8.49,1.53-12.75s.9-8.78,1.28-13.18c.31-3.63.81-13-5.46-11.28-4.28,1.13-7.19,6.92-8.53,10.69-2.88,8-2.71,16.8-3.66,25.15A1,1,0,0,0,597,362.85Zm10.81-32.4a8.27,8.27,0,0,1,1.78-1.33c2-1.13,2.22,3,2.28,3.89.19,3-.37,6.17-.55,9.16-.37,6.21-1.11,12.6-2,18.8-2.06-.07-4.12-.15-6.19-.15a15.55,15.55,0,0,0-3.92.29C600.33,350.92,600.26,338.09,607.83,330.45Z"/><path d="M536.61,397.67a6.78,6.78,0,0,0-3,6.69,6,6,0,0,0,0,1,7.05,7.05,0,0,0,5.27,5.65,7,7,0,0,0,6.62-2c1.67-1.74,1.87-4.31,1.47-6.56C546.14,397.65,540.75,394.86,536.61,397.67Zm3.71,10.4a3.57,3.57,0,0,1-2-.62l0-.05a4.65,4.65,0,0,1-1.58-4.53,11.16,11.16,0,0,1,1.37-2.33c2-1.89,4.77-.48,5.65,1.87C544.69,405.07,543.37,408,540.32,408.07Z"/><path class="cls-1" d="M504,403.19a6.79,6.79,0,0,0-3,6.7,6,6,0,0,0,0,1,7,7,0,0,0,5.26,5.64,6.88,6.88,0,0,0,6.62-2c1.67-1.73,1.87-4.3,1.47-6.55C513.56,403.18,508.17,400.39,504,403.19Zm3.71,10.4a3.5,3.5,0,0,1-2-.62s0,0,0-.05a4.61,4.61,0,0,1-1.59-4.53,12.11,12.11,0,0,1,1.37-2.32c2-1.9,4.77-.47,5.65,1.86C512.11,410.6,510.8,413.51,507.74,413.59Z"/><path d="M475.22,406.61a6.77,6.77,0,0,0-3,6.69,7.17,7.17,0,0,0,0,1A7,7,0,0,0,477.5,420a6.91,6.91,0,0,0,6.61-2.05c1.68-1.73,1.87-4.3,1.48-6.55C484.75,406.59,479.36,403.8,475.22,406.61Zm3.71,10.4a3.55,3.55,0,0,1-2-.62l0-.06a4.64,4.64,0,0,1-1.58-4.53,11.31,11.31,0,0,1,1.36-2.32c2-1.89,4.77-.47,5.66,1.86C483.3,414,482,416.92,478.93,417Z"/><path d="M444.52,408a6.76,6.76,0,0,0-3,6.69,5.11,5.11,0,0,0,0,1,7,7,0,0,0,5.26,5.65,6.93,6.93,0,0,0,6.62-2.05c1.67-1.73,1.87-4.3,1.47-6.55C454.05,408,448.66,405.21,444.52,408Zm3.71,10.4a3.6,3.6,0,0,1-2-.62l0-.06a4.64,4.64,0,0,1-1.59-4.53,11.73,11.73,0,0,1,1.37-2.31c2-1.9,4.77-.48,5.65,1.85C452.6,415.42,451.29,418.33,448.23,418.42Z"/><path d="M363.42,406.13c2.21-.74,2.88-2.76,3-4.89a3.6,3.6,0,0,0-.49-2.16,1,1,0,0,0-.88-.88c-2-1.33-6-.73-8.66-.46-.05-.76-.22-1.55-.3-2.21a21.19,21.19,0,0,0-.08-3.09,1.17,1.17,0,0,0-.66-.76,1.32,1.32,0,0,0-1-.44,1.27,1.27,0,0,0-.73-.24,11.29,11.29,0,0,0-1.3,0c-1.21.08-2.43.3-3.64.3a1.09,1.09,0,0,0-.87.36.92.92,0,0,0-.39.39,8.1,8.1,0,0,0-.48,3.4c0,1-.11,2.06-.09,3.1-2.43-.17-5.58-.19-6.73,1.74a1,1,0,0,0-.14.65,7.51,7.51,0,0,0,.36,4.23,1.34,1.34,0,0,0,1.28,1c2,.07,4,.09,6,.1,0,3.45-.13,6.9-.25,10.36-1.58-1.41-2.36-3.43-3.28-5.42a.93.93,0,0,0-.74-.55,1.27,1.27,0,0,0-1.14-.37c-4.64.71-3.4,5.93-2,9,2.22,5,6.82,11,12.86,10.82,5.43-.2,9.58-8.41,11.51-12.55s.85-8.18-4.26-8.29a1.25,1.25,0,0,0-1.25,1.62.24.24,0,0,1,0,.08,10.35,10.35,0,0,1-2.6,5.54q0-3.64-.14-7.29c0-.78-.07-1.57-.13-2.36A17.22,17.22,0,0,0,363.42,406.13ZM356,403.88a1.52,1.52,0,0,0-1.63.81h-.11v.26a1.45,1.45,0,0,0,0,1.12c0,.27,0,.55,0,.81,0,1.24,0,2.47,0,3.7,0,3.13.16,6.36.1,9.54l1-.24c.58-.2,1.18-.38,1.78-.54h.08c2.25-1.25,3.54-4.62,3.94-7.25,2.89.77.8,4.44-.3,6.37a30,30,0,0,1-4.67,6.8v0a11.06,11.06,0,0,1-1.52,1.26l-.24.14a4.8,4.8,0,0,1-.48.3,1,1,0,0,1-.28.1l-.24.12c-1.58.65-3.39,0-5.12-1.37a4.48,4.48,0,0,1-1.72-1.6c-3.53-3.78-6.09-9.74-4.34-11.29.95,2.8,2,5.94,5,7.05V420a22.73,22.73,0,0,0,2.61,0c.25-4.61,0-9.25-.23-13.87,0-.85-.07-1.7-.1-2.55l-.55,0a20.06,20.06,0,0,1-4.76.2l-1.24,0a1.06,1.06,0,0,1-1-.78,4.05,4.05,0,0,1-.12-.47,1,1,0,0,1,.28-1l.52-.14a11.13,11.13,0,0,1,2.3-.16,21.91,21.91,0,0,0,3.8,0,1.16,1.16,0,0,0,.92-1.52s0-.07,0-.12a31.45,31.45,0,0,0,0-3.76c0-.68,0-1.47-.07-2.21a1.14,1.14,0,0,1,.61-.47,10.44,10.44,0,0,1,2.05-.39h.1a.87.87,0,0,1,.78.47,50,50,0,0,0,.18,6.24,1.34,1.34,0,0,0,1.29,1c.75,0,3.84-.46,6.17-.52.8.05,1.59.14,2.39.27a.66.66,0,0,1,.37.32C365.12,404.66,358,404.24,356,403.88Z"/></g></svg>