<svg id="Layer_37" data-name="Layer 37" xmlns="http://www.w3.org/2000/svg" viewBox="0 0 895 511.11"><defs><style>.cls-1{fill:#fff;stroke:#1d1d1b;stroke-miterlimit:10;}</style></defs><path class="cls-1" d="M304.87,419.31a111.26,111.26,0,0,1,24.39,5.26A284.88,284.88,0,0,0,303.59,394c27.41,2.18,53.41,9,73.71,19.2a70.22,70.22,0,0,0-16.48-22,86.58,86.58,0,0,1,22.56,9.87A186,186,0,0,1,370.15,348c63.77-3.5,47.46,19.21,66.54,31.44a195,195,0,0,1,36.87-33.58c-2.23,9.54-4.28,19.73,3.49,28.37,17.37-17.23,12.71-34,70.88-43.94-12.79,10.42-22.3,22-28,34.16,18.46-10.32,45-16.2,71.48-15.8-29.5,10.25-43.26,29.45-55.2,47.36,12.69-8.24,34.5-9.8,54.18-10.78-18.16,8-32.36,18.67-40.74,30.55,10-4.64,24.26-6.43,37-4.66-13.87,5.57-25.34,12.91-33.24,21.25a89.35,89.35,0,0,1,33.41-3.11c-12.41,6.51-22.44,14.36-29.32,23-1.51,1.87-2.94,3.84-5.65,5.26s-6.57,2.12-10.26,2.69c-37.9,5.8-78.26,3.15-117.18-.09q-34.83-2.89-69.51-6.39c-10.49-1.07-10.29-2.85-13.7-7.9a59.34,59.34,0,0,0-13.42-13.74A99.54,99.54,0,0,0,304.87,419.31Z"/><path class="cls-1" d="M529.69,369.49c-11.36,10.18-17.9,21.94-18.82,33.84,14.53-14.29,38.82-25.56,67-31.09-23.9,14.88-45.62,32.22-48.64,51.92a66.79,66.79,0,0,1,10.4-4.17l-5.82,7.7a151.89,151.89,0,0,1,19.71-5.05l-10.65,17.85a11.81,11.81,0,0,1-3.82,4.39c-4.76,3.08-14.08,2.92-20.16.64a25.28,25.28,0,0,1-12.23-9.83c-7.69-10.87-13-25.08-9.28-36.73,1.81-5.62,7.25-11.4,12.61-16.24S524.46,374.18,529.69,369.49Z"/><path class="cls-1" d="M334.12,431.68a52.6,52.6,0,0,1,19.77,5,107,107,0,0,0-22.45-19.74c15.17,2.65,29.2,7.22,40.67,13.24L335.7,385.92c19.44,9.55,39.22,19.33,52.22,31.71,4.74,4.51,8.56,9.43,9.27,14.62s-2.06,10.68-8.9,14.3c-7.22,3.82-21.5,5.47-29.49,1.48-4.14-2.07-6.76-5.31-10.14-7.74C346.22,438.54,338.3,432,334.12,431.68Z"/><path class="cls-1" d="M424.9,433.47c44.29-3,91.24-2.54,130.9,8.61,6.88,1.93,14,4.49,16.43,8.48,4.1,6.63-6.44,13.3-17.5,16.86-20.81,6.69-45.77,8.39-69.94,8.49-48,.2-95.39-5.3-142.33-10.78-35.61-4.15.47-17.58,16.57-22C379.47,437.58,402.36,435,424.9,433.47Z"/><path class="cls-1" d="M572.23,450.56c-2.48-4-9.55-6.55-16.43-8.48q-3.28-.91-6.63-1.74a9.93,9.93,0,0,1,2.55,2.66c4.1,6.63-6.44,13.29-17.5,16.85-20.81,6.69-45.77,8.39-69.94,8.49-46.12.2-91.68-4.88-136.82-10.13-1.09,2.91,2.62,5.48,15,6.92,46.94,5.48,94.33,11,142.33,10.78,24.17-.1,49.13-1.8,69.94-8.49C565.79,463.86,576.33,457.19,572.23,450.56Z"/><path class="cls-1" d="M570.3,237.2s-94.24,2.2-118,.71v-.71a7.13,7.13,0,0,1-5.26,0v.71c-23.8,1.49-118-.71-118-.71s-.63,58,11.16,121.55,26.95,87,26.95,87H532.2s15.16-23.48,26.95-87S570.3,237.2,570.3,237.2Z"/><path class="cls-1" d="M474,358.35c-13-9.63-33.73-9.31-46.38.67A47.55,47.55,0,0,0,416,373.21a78.36,78.36,0,0,0-2,72.55h67.7a62.13,62.13,0,0,0,3.76-6.21c8.71-16.45,9.71-35.68,5.2-53.44C488,375.67,483.13,365.16,474,358.35Z"/><path class="cls-1" d="M477.4,384c-7.53-6.38-20.61-8.25-31.43-5.56a39.6,39.6,0,0,0-24.12,17.05c-4.78,7.7-6.13,16.36-5.8,24.83a69.18,69.18,0,0,0,5.15,23.52,16.49,16.49,0,0,0,.9,1.9h50.73c7.57-14.3,14-29.11,12.72-44.32C485,395.19,483,388.73,477.4,384Z"/><path class="cls-1" d="M425.28,430.45c-.33-8.47,1-17.14,5.8-24.84a39.7,39.7,0,0,1,24.12-17.05c9.34-2.31,20.35-1.24,28,3.19a21.69,21.69,0,0,0-5.78-7.73c-7.53-6.38-20.61-8.25-31.43-5.56a39.6,39.6,0,0,0-24.12,17.05c-4.78,7.7-6.13,16.36-5.8,24.83a69.18,69.18,0,0,0,5.15,23.52,15,15,0,0,0,.91,1.9h5.49A68.33,68.33,0,0,1,425.28,430.45Z"/><path class="cls-1" d="M361.2,385.15c-.72,2,.54,4.12,2.59,5.55a21.62,21.62,0,0,0,7.52,2.9,68.13,68.13,0,0,0,9.09,1.4c3.37.3,7.39.14,9.31-1.84,1.69-1.77.84-4.3-1.19-5.87s-4.95-2.4-7.81-3.09C375.81,383.06,363.35,379.25,361.2,385.15Z"/><path class="cls-1" d="M407.5,380.43a7.93,7.93,0,0,0,3.93-4,3.56,3.56,0,0,0-2.2-4.36,10.09,10.09,0,0,0-3.35-.67c-5.57-.41-22.64,1.15-21.76,7.25C385.17,385.94,402.61,383.22,407.5,380.43Z"/><path class="cls-1" d="M369.48,371.71a5.9,5.9,0,0,0,2.7-1.29c1.15-1.18.39-2.92-1.17-3.84a13.48,13.48,0,0,0-5.68-1.36c-4-.3-17.56-1.15-15.52,3.35S364.77,373,369.48,371.71Z"/><path class="cls-1" d="M541.51,317.91a21.19,21.19,0,0,0,7.71-1.45c2.26-1,3.94-2.89,3.59-4.78-.28-1.51-1.8-2.8-3.63-3.59a22.78,22.78,0,0,0-6.09-1.42c-5.63-.71-22.63-1-23.73,5.05S536.22,318.13,541.51,317.91Z"/><path class="cls-1" d="M508.42,316.5a16,16,0,0,0-9.2.91,5.93,5.93,0,0,0-2.88,2.22,2.09,2.09,0,0,0,.72,2.85,7,7,0,0,0,2.83.83,69.76,69.76,0,0,0,11.37.64c2.74-.08,6-.59,7-2.42.84-1.63-.82-3.48-3-4.24A41.28,41.28,0,0,0,508.42,316.5Z"/><path class="cls-1" d="M511.12,298.6c-1.13.36-2,1.24-1.74,2.1.37,1.2,2.46,1.6,4.18,1.73a88.66,88.66,0,0,0,13.24,0,9.26,9.26,0,0,0,3.16-.63c.92-.42,1.57-1.24,1.25-2-.42-.95-2-1.28-3.43-1.44A99,99,0,0,0,511.12,298.6Z"/><path class="cls-1" d="M468.38,423c-1.18,3.8-3.3,7.57-2.68,11.48a2.84,2.84,0,0,0,2,2.56c1.59.31,2.77-1.33,3.14-2.76.5-1.89.49-3.85.82-5.77.68-4,6.41-12.36,1.87-15.53-1.39-1-3.23-1.52-4,.1-.54,1.1.07,3.62,0,4.88A24.92,24.92,0,0,1,468.38,423Z"/><path class="cls-1" d="M355.24,352.94c1-1-5.5-55.07,2.32-66.8s18.9-12.71,23.46-11.4,15,3.91,17.79,26.07,0,55.11,0,55.11Z"/><path class="cls-1" d="M398.81,355.92s2.74-33,0-55.11c-1.71-13.79-6.41-20-10.81-23.05a26.88,26.88,0,0,0-11.13,9.84c-7.65,11.48-1.58,63.5-2.27,66.67Z"/><path class="cls-1" d="M351,331.9a7.78,7.78,0,0,1-5.84-.71,1.79,1.79,0,0,1-.85-1,1.49,1.49,0,0,1,.92-1.56,4.54,4.54,0,0,1,1.93-.25,14.83,14.83,0,0,0-3-.83,2.88,2.88,0,0,1-2.21-1.93,2.43,2.43,0,0,1,2-2.55,7.06,7.06,0,0,1,3.55.5,9,9,0,0,1-3.12-2.53,3.08,3.08,0,0,1,0-3.75c1.15-1.17,3.14-.74,4.57.07,2.69,1.54,4.71,4.1,7.51,5.43,1.23.58,3.17.56,3.42-.77.22-1.16-1.09-1.93-2.11-2.53a10.15,10.15,0,0,1-4.89-7.67c-.07-.67,0-1.47.59-1.8a1.72,1.72,0,0,1,1.75.33,6.62,6.62,0,0,1,2.39,3.06c.12-1.1.25-2.2.37-3.3.08-.74.3-1.64,1-1.8s1.2.42,1.58,1a13.6,13.6,0,0,1,2.09,4.54c.7-1.72,1.92-3.76,3.76-3.52,1.27.17,2.1,1.42,2.55,2.61,1.26,3.32.94,7,.37,10.51-.1.62-.12,1.43.46,1.68a1.3,1.3,0,0,0,1.3-.4c3-2.59,3-7.23,4.52-10.92.71-1.67,2.29-3.39,4-2.91a3.07,3.07,0,0,1,1.94,3.23,8.9,8.9,0,0,1-1.46,3.77,5.76,5.76,0,0,1,2-2.89c.65-.5,1.77-.76,2.16,0a1.5,1.5,0,0,1,.08.89,10.51,10.51,0,0,1-2,4.94,4.11,4.11,0,0,1,1.44-1.43,1.36,1.36,0,0,1,1.78.47,1.56,1.56,0,0,1,.06,1,4.15,4.15,0,0,1-3,3.2c2.22.13,3.67-2.18,5.27-3.74a9.49,9.49,0,0,1,6.41-2.68,3.59,3.59,0,0,1,3.23,1.35c.74,1.24,0,2.95-1.22,3.74a8.64,8.64,0,0,1-4.17,1,6.74,6.74,0,0,1,9.1,2.79s0,.11.08.16a2.31,2.31,0,0,1-.08,2.44,2.65,2.65,0,0,1-1.43.65,24.83,24.83,0,0,1-5.43.54,3.22,3.22,0,0,1,4.35,1.39l.06.12a3.8,3.8,0,0,1-1.57,4.57,4.61,4.61,0,0,1-5-.35c-1.17-.87-2-2.27-3.39-2.72-2.31-.75-4.39,1.46-6.35,2.91-2.86,2.13-6.51,2.83-10.06,3.24-4.47.52-9.12.29-12.06-3.57S356.06,330.82,351,331.9Z"/><path class="cls-1" d="M386.79,332.31a51.12,51.12,0,0,1-17.28,3c-3.85,0-7.89-.49-11.07-2.67.16,7.47,1.11,15.55,6.25,21l19,1.32c2.12-1.85,3-4.71,3.52-7.48A37.64,37.64,0,0,0,386.79,332.31Z"/><path class="cls-1" d="M502.43,352.76c-5,14.42,2.38,31.11,15.58,34.72,13.92,3.81,28.75-3.09,33.78-17.52s-1.95-30-15.58-34.72S507.46,338.33,502.43,352.76Z"/><path class="cls-1" d="M525.53,334.11c12,5.67,17.82,20.18,13.1,33.71a27.74,27.74,0,0,1-23.14,18.78c-12-5.67-17.82-20.18-13.1-33.71A27.72,27.72,0,0,1,525.53,334.11Z"/><path class="cls-1" d="M448.37,84.93C254,85.45,313.84,244.69,313.84,244.69S341.91,259,445.08,262.86,581,240.61,581,240.61,633.34,84.43,448.37,84.93Z"/><path class="cls-1" d="M549.24,216.31q-7.69,5.34-15.45,10.59a388,388,0,0,1-34.49-27.19q21.65-12.44,42.47-26.25,4.66-3.11,9.28-6.31a253,253,0,0,0,36,12.42q-.3-2.88-.75-5.81a247.57,247.57,0,0,1-30-10.21h-.09q11.37-8,22.4-16.51c-.74-1.67-1.53-3.33-2.37-5q-12.69,9.83-25.86,19c-1.06-.47-2.12-.95-3.17-1.44q-4.71-2.19-9.33-4.56-9.36-4.8-18.29-10.35-5.28-3.28-10.39-6.8,20-13.39,39.23-27.84c-1.52-1.09-3.1-2.16-4.73-3.19q-16.63,12.44-33.85,24.07-2.69,1.81-5.39,3.61c-.69-.5-1.38-1-2.06-1.51-5.37-4-10.53-8.09-15.86-12.72q-3.18-2.78-6.27-5.65c11.68-6.83,23.27-13.82,34.83-20.85-2.28-.72-4.64-1.41-7.06-2q-14.19,8.59-28.47,17l-3.4,2Q468,102.92,460.6,94.32l6.67-3.43q4.49-2.31,8.93-4.64c-3.31-.33-6.73-.59-10.24-.78L457.07,90q-1.51-1.84-3-3.7L453,85h-6.79c1.33,1.74,2.67,3.47,4,5.18.63.8,1.27,1.59,1.91,2.38Q440.63,98.37,429,104c-2.3,1.11-4.61,2.2-6.93,3.29q-5.88-9.78-11.17-19.9c-1.93.26-3.82.53-5.68.83Q410.9,99,417.2,109.51c-9.76,4.53-19.6,8.91-29.54,13q-6.62,2.74-13.3,5.36-7.56-12.87-14.68-26.1c-1.65.8-3.26,1.63-4.81,2.48q7,12.93,14.36,25.64-12,4.56-24.11,8.59c-7.25,2.39-14.56,4.65-21.92,6.69l-.87.24q-1.8-3.56-3.52-7.16c-1.15,1.93-2.2,3.88-3.18,5.85.45.9.89,1.8,1.34,2.69-1,.24-1.94.45-2.91.66q-1.32,3-2.42,6c2.27-.4,4.52-.88,6.76-1.41l1.11-.28c2,3.82,4,7.62,6.16,11.37q3.81,6.72,7.9,13.3-11.19,3.28-22.57,5.88c-1.59-2.22-3.16-4.45-4.74-6.68a129.12,129.12,0,0,0-1.07,13.47l3.49-.73q2.79,3.88,5.6,7.76,8,10.94,16.35,21.55c1.39,1.74,2.79,3.48,4.2,5.2q-12.29,4.8-24.73,9.24c.49,1.94,1,3.7,1.4,5.24q13.56-4.85,27-10.11,4.59,5.42,9.38,10.66a259.56,259.56,0,0,0,18.64,18.45l.35.31q5.5.74,11.71,1.45l5.17-2.14q4.92-2.05,9.81-4.16c2.92,2.92,5.89,5.8,8.92,8.6,2.86.23,5.8.45,8.84.66l-1-.88q-5.85-5.16-11.39-10.67,19.89-8.61,39.46-17.92l4-2a363.44,363.44,0,0,0,31,28.89q2.67,2.19,5.37,4.33l-.32.2c3.73-.1,7.33-.25,10.81-.43q13.58-8.64,27-17.49,8.79-5.79,17.51-11.69,13.08,9,26.86,16.9c2.43-.86,4.62-1.7,6.59-2.51q-13.65-7.61-26.65-16.32l-2-1.34q4.79-3.25,9.55-6.53,15.89-10.95,31.56-22.22,4.08-2.92,8.14-5.89c0-2.16,0-4.37-.09-6.61l-7,5.08Q565.09,205.33,549.24,216.31Zm-44.82-75.24q4.05,2.85,8.21,5.55a258.23,258.23,0,0,0,32.63,18l-.6.4Q520.49,181.45,495,195.9a398.91,398.91,0,0,1-30-30.3q20.07-11.76,39.42-24.53Zm-29-23.59c1.17,1.09,2.35,2.17,3.54,3.26a264.81,264.81,0,0,0,20.73,16.94Q480.9,150,461.45,161.44c-.29-.34-.59-.67-.88-1-6.69-7.79-13-15.76-19-24,11.43-6.12,22.67-12.44,33.87-19ZM394.1,159.73c12.65-5.6,25.12-11.64,37.4-18,1.75-.9,3.5-1.82,5.24-2.73q7.51,10.32,15.69,20.17c1.4,1.69,2.83,3.38,4.26,5.05q-21.17,12.24-43,23.32-1.4-1.84-2.78-3.7Q402.2,172,394.1,159.73ZM408.81,190l-.8.41q-21.57,10.76-43.7,20.34c-3.05-3.85-5.9-7.59-8.95-11.75q-7-9.52-13.38-19.45c14.53-4.54,28.81-9.88,42.84-15.8l4.24-1.82c4.39,6.65,8.89,13.22,13.56,19.67Q405.67,185.83,408.81,190Zm17.33-78.71q14.89-7,29.56-14.53,7.46,8.76,15.66,16.81c-10.9,6.31-21.89,12.48-33,18.42q-5-7.13-9.82-14.53c-1.2-1.86-2.38-3.74-3.56-5.63ZM383.69,130q18.38-7.47,36.34-15.86l.57.92q6.18,9.93,12.94,19.47c-13.92,7.33-28.05,14.27-42.44,20.62q-5.49-8.47-10.72-17.11-1.63-2.72-3.25-5.43Q380.42,131.33,383.69,130Zm-51,34.43q-4.05-7-7.8-14.09c5.27-1.44,10.51-3.06,15.72-4.71q15.86-5,31.39-11c.12.19.23.38.34.57q6.66,11.22,13.74,22.18a468,468,0,0,1-44.84,16.74l-2.28.71c-2.14-3.45-4.24-6.9-6.27-10.39Zm3.88,52q-2.08-2.58-4.15-5.21l-2-2.59-.21-.27-.45-.59-1.08-1.41q-4-5.24-7.9-10.55-3.19-4.37-6.35-8.77,11.18-2.59,22.17-5.88,5.53,8.64,11.51,17,5.38,7.51,11.1,14.79l-4.64,2q-7.19,3-14.43,5.88-1.8-2.18-3.57-4.37Zm51.79,31.71q-7.77,3.3-15.58,6.5l-.2-.18a253.26,253.26,0,0,1-18.85-18.22q-5.1-5.44-10-11.13l5.91-2.39q6.5-2.67,13-5.43,5.7,7.07,11.67,13.9c4.91,5.6,9.95,11.11,15.15,16.47Zm6.45-2.76c-4.66-4.77-9.19-9.67-13.62-14.62q-6.88-7.68-13.39-15.69,18.27-7.94,36.19-16.67,4.1-2,8.16-4.05c7.63,9.9,15.63,19.5,24.07,28.71l2.25,2.44q-21.62,10.44-43.66,19.91Zm22.25-53.5q20-10.19,39.51-21.36l3.75-2.17a401.43,401.43,0,0,0,29.3,29.91l.46.42Q467.21,211.54,443.59,223c-9.35-9.91-18.17-20.33-26.53-31.11Zm100.37,46q-16.08,10.68-32.37,21l-1.45.92-1.94-1.53a355.91,355.91,0,0,1-34.17-31.13q22.13-10.84,43.66-22.83c1.06-.59,2.11-1.19,3.16-1.79A402.43,402.43,0,0,0,529,230.13l-11.57,7.75Z"/><path class="cls-1" d="M467.75,35.64a5.28,5.28,0,0,1,2.91-.35,5.49,5.49,0,0,1,2.3,1.59l7.55,7.43c-7.1,1.8-12.75,7.84-14.88,14.85s-.95,14.78,2.39,21.3c1.6,3.11,3.74,6.35,3.09,9.78-.94,5-6.85,6.94-11.79,8-5.88,1.24-11.92,2.48-17.86,1.57-19-2.93-12.84-21.6-6.92-34.09C441.09,51.87,453.15,40.5,467.75,35.64Z"/><path class="cls-1" d="M446.73,67.54a58.56,58.56,0,0,1,27.71-27.86l-2.85-2.8a5.49,5.49,0,0,0-2.3-1.59,5.28,5.28,0,0,0-2.91.35c-14.59,4.86-26.66,16.23-33.21,30.06-5.92,12.49-12.07,31.16,6.92,34.09a32.06,32.06,0,0,0,7.77.15C436.13,94.31,441.52,78.53,446.73,67.54Z"/></svg>