<svg id="Layer_39" data-name="Layer 39" xmlns="http://www.w3.org/2000/svg" viewBox="0 0 895 511.11"><defs><style>.cls-1{fill:#fff;stroke:#1d1d1b;stroke-miterlimit:10;}</style></defs><rect class="cls-1" x="427.65" y="46.45" width="40.28" height="22.98"/><path class="cls-1" d="M512,194.57l-129.46.29A33.76,33.76,0,0,0,368.92,222V435.3a33.81,33.81,0,0,0,33.81,33.81h89.53a33.81,33.81,0,0,0,33.82-33.8h0V222A33.75,33.75,0,0,0,512,194.57Z"/><polygon class="cls-1" points="508.57 76.73 387.08 76.73 387.15 68.01 508.57 68.01 508.57 76.73"/><path class="cls-1" d="M516.21,97.06c0-11-1.79-19.9-4-20.29H383.55c-2.27.22-4.1,9.22-4.1,20.31s1.79,19.9,4,20.29H512.17C514.42,117,516.21,108,516.21,97.06Z"/><path class="cls-1" d="M387.15,68s70.1,13,121.42,0v8.72H387.08Z"/><rect class="cls-1" x="422.46" y="42.04" width="49.86" height="9.45" rx="1.28"/><rect class="cls-1" x="383.1" y="174.97" width="129.46" height="19.62"/><rect class="cls-1" x="371.29" y="117.39" width="152.41" height="57.56" rx="15.34"/></svg>