<svg id="Layer_168" data-name="Layer 168" xmlns="http://www.w3.org/2000/svg" viewBox="0 0 895 511.11"><defs><style>.cls-1{fill:#fff;}</style></defs><g id="Scooter"><path class="cls-1" d="M765.22,250.52c4.55,9.92,2.07,23.09.81,33.54-.95,7.92-1.63,15.85-2.48,23.79-1.45,13.68-2.87,31.91-12,43.46a97.57,97.57,0,0,0-187.83-3.2,128.58,128.58,0,0,1-23.83,2.42c-11.86,0-23.5-2-35.38-.83a4.79,4.79,0,0,0-5.81,2.71A38.87,38.87,0,0,0,495,364.56c-17.25.14-34.49.41-51.7.51-19.68.11-39.35.17-59,.33-10.47.09-21.08-.06-31.68.09-9.71-8.85-16.26-21.62-21.16-34.49v0c-2.44-6.4-4.46-12.83-6.26-18.82-8.16-27-9.14-54-4.51-81.74,3.89-23.08,11.08-45.32,16.54-68,3.65-15.23,6.26-34.49-4.2-47.61a1.34,1.34,0,0,0-.25-.23,58.44,58.44,0,0,0,11.29-19.78,29.31,29.31,0,0,0,18.64,22.3,3.69,3.69,0,0,0-.33,1c-2.73,16.41-8.15,32.2-10.79,48.61-2.75,17.15-4.75,34.6-6.41,51.89-1.59,16.85-2.23,33.79-2.46,50.7-.1,8.43.64,16.72.85,25.11.06,1.9,0,3.78,0,5.64.19.62.41,1.22.62,1.84-3.62,11.14,3.16,21.08,15.27,25.44,14.94,5.35,31.81,4,47.37,3.84,29.39-.25,59-1.47,88.35-3.37,12.11-.78,25.66-4.73,27.9-15.64,10.64-2,20-13.43,27.69-20.69,16.84-15.95,35.13-30.34,55.72-41.16,21.24-11.19,44.65-18.38,68.17-22.94,12.4-2.42,25.22-4.28,37.88-3.93,10.36.29,20,3.06,29.52,6.41C750.16,236.67,760.82,240.89,765.22,250.52Z"/><path class="cls-1" d="M742.55,145.54c1.53,3.41,1.55,7.89,1.08,12.27-.4,1.3-.77,2.59-1.2,3.85-.15,2-.39,3.9-.66,5.76a14.3,14.3,0,0,1-5.46,2.05c-.68.1-1.36.21-2.06.27-3.5.35-7.2.14-10.34.18a149.07,149.07,0,0,0-29,3.17c-20.94,4.5-33.13,19.3-51,29.44-39.86,22.65-89.46,17.8-133.71,19.08.81-6.06,2.25-12,5.56-17.36,6.24-10.27,17-15.42,28.31-18.15,25.34-6.11,52.1-2.6,77.52-8.47,11.62-2.71,20.23-8,28.85-16.14,11.18-10.5,22.78-17,38.09-19.47,13.45-2.17,27.32-1.61,40.88-1.24C734.58,140.93,740.16,140.14,742.55,145.54Z"/><path class="cls-1" d="M741.68,365.53A85.21,85.21,0,0,1,576.5,403.7c11.08,1.94,22.17,3.68,33.42,3.78,21.74.21,43.13-.78,64.56-4.48,5.56-.95,11.12-2,16.66-3a2.89,2.89,0,0,0,3.8-.68,4.65,4.65,0,0,1,.58-.1,4.35,4.35,0,0,0,3.61-1.49c12.13-13.64,10.34-33.25,9.45-50.35-.35-6.71-2.11-21.67-9.55-24.61-.87-.19-1.76-.33-2.65-.47a7.19,7.19,0,0,0-1,0l-.12-.19h-9c-11.82,1.69-23.56,4-35.24,6.45-24.45,5.21-48.85,10.52-73.14,16.43a85.19,85.19,0,0,1,163.39,17.36A7.1,7.1,0,0,0,741.68,365.53Z"/><path class="cls-1" d="M740.51,174.1c0,.08,0,.18-.07.29-3.34,14.22-13.18,30.89-6.46,45.5.12.25.27.48.39.73-14.78-3.7-29.45-4.32-45.57-2.21a271.28,271.28,0,0,0-68.67,18.22,220.16,220.16,0,0,0-52.89,31.71c-8.66,6.9-16.88,14.32-24.82,22.05-5.43,5.27-10.33,10.08-16.12,13.24a51.33,51.33,0,0,0-.6-15.79c-1.82-14.44-12.54-30.17-16.14-42a26.53,26.53,0,0,1-1.07-5.54c.56-5,.76-10,1.24-15,23.87,4.94,50.3,2.81,74.19.33,22.71-2.38,46.25-6.91,66-19,9.65-5.93,17.54-14.19,27.11-20.21,12.46-7.81,28.09-10.1,42.53-10.74,4.15-.19,9.88.1,15.27-.48.77-.08,1.53-.16,2.28-.31A25.43,25.43,0,0,0,740.51,174.1Z"/><path class="cls-1" d="M698.1,353.69c.08,12,1.07,23.37-4.53,33.83h-.06l-2.93.51c-3.83-8.68-2.79-20-2.61-29,.13-6.84-.68-19.84,3.91-26.91.93-.08,1.86-.2,2.79-.29C699,336.89,698,347.8,698.1,353.69Z"/><path class="cls-1" d="M687,332.67c-3.78,6.74-4.58,16.72-5,22.94-.68,9.82-2.33,23.33,1.37,33.68-20,3.48-40.63,6.62-61.09,6.95-8.48-14.61-7.9-34.64-2.92-50.86C641.78,340.17,664.27,335.36,687,332.67Z"/><path class="cls-1" d="M599.29,350.15c5-1.2,10-2.37,14.93-3.55-6.56,14.67-7.49,35.17-.71,49.6a169.18,169.18,0,0,1-25.77-2.57c-4.69-.84-9.36-1.65-14-2.39-11.59-1.86-23.17-3.37-34.86-4.59-6.76-7.48-7.8-18.12-3.74-27.2a99.74,99.74,0,0,0,17.64.23,174.51,174.51,0,0,0,22.39-3.7C583.24,354.18,591.26,352.05,599.29,350.15Z"/><path class="cls-1" d="M530.7,359c-4.69,7.38-4.58,18.74-.51,26.86-7.44-.26-17.57,0-21.6-5.86a13.53,13.53,0,0,1-1.18-2.15c-2.48-5.85-1.42-14.53,1.16-19.68a6.69,6.69,0,0,0,.5-1.42C516.34,357.18,523.51,358.23,530.7,359Z"/><path class="cls-1" d="M514.23,312.81c-4.79,8.76-21.66,7.46-31.6,7.73-25.29.72-50.52,2.64-75.84,2.81-12.05.06-24.28.68-36.21-1.32-6-1-12.73-2.48-17.25-6.82a14.67,14.67,0,0,1-3.85-6.51c1.37.95,2.75,1.84,4.2,2.68a4.19,4.19,0,0,0,.47-.14c27.82,3.78,57.52,1.57,85.42,1.63C464.45,312.93,489.35,313,514.23,312.81Z"/><path class="cls-1" d="M452.94,102.37c.08,9.19-5.44,11.65-12.18,11.86-3.34-3.23-3.9-8.6-2.68-13.52.56-2.17,1.82-6.74,3.78-9.73C448,92.53,452.87,95.59,452.94,102.37Z"/><path class="cls-1" d="M437.54,90.13a37.21,37.21,0,0,0-4.05,7.13,25.08,25.08,0,0,0-1,16.45c-2.75-.35-5.42-.76-7.73-1-16.12-1.55-32.47-1.63-48.71-1.65a4.36,4.36,0,0,0-1.82-.5c-11.86-.64-21.84-7.09-22.67-19.88-.6-9.34,4.65-15.17,12.09-18.17A35.51,35.51,0,0,1,370.81,75c17.09,5.73,34.41,10.73,52.24,13.58C426.9,89.2,432.33,89.35,437.54,90.13Z"/><path class="cls-1" d="M356.9,68.37a20.08,20.08,0,0,0-9.55,7.89c.13-8.41-1.73-16.49-5.93-23.1A57.51,57.51,0,0,1,356.9,68.37Z"/><path class="cls-1" d="M335.3,49.67c13.52,20.89,5.36,60.38-17.95,70a32.1,32.1,0,0,0,.8-3.35,4.08,4.08,0,0,0-.56-.2l-.24-.11c10.41-7.62,15.62-25.62,16.59-36.62.83-9.17-.91-21.28-7.58-28.23a17.23,17.23,0,0,0-6.31-4.27,32.44,32.44,0,0,1,5.67-.71A53.43,53.43,0,0,1,335.3,49.67Z"/><path class="cls-1" d="M326.27,333c4.07,10.52,9.06,23.54,16.91,32.73-5.29.17-10.56.46-15.81.91,0-.88-.1-1.77-.13-2.66h-.08A97,97,0,0,0,317,331.37a3.41,3.41,0,0,0-.1-3c-3.64-7.4-5.25-15.31-9.47-22.5A114.5,114.5,0,0,0,294,288a150.18,150.18,0,0,0-36.91-30.4c-13.53-7.79-29.43-14.45-44.78-17.26a50.81,50.81,0,0,0-6.59-.78,38.46,38.46,0,0,0,1.57-5c2-7.63,3.14-15.44,5.14-23.06,8-30.36,29.35-61.47,60.78-71.39,9.22-2.91,28.38-1.36,38.34-8.08a37,37,0,0,0,3.33-5.72,37,37,0,0,0,15.6-9.42c11.22,18.84.35,43-5,62.32-7.13,25.88-13.91,52.21-14.18,79.22-.25,24.86,5.11,49.35,14.16,72.41C325.74,331.59,326,332.28,326.27,333Z"/><path class="cls-1" d="M310.63,50.51c14-1.44,19.2,21.08,16.18,34.95-2.15,10-6.76,23.64-17,27.42-12.46-6.79-18.16-19.79-16.1-35.17C295.29,66.18,301.39,56,310.63,50.51Z"/><path class="cls-1" d="M299.61,326.66a85.22,85.22,0,1,1-138.71.16c3.23-.06,6.45-.12,9.61-.1,18.44.06,36.87,0,55.33,0Q262.73,326.74,299.61,326.66ZM270.7,374.13a40.38,40.38,0,1,0-40.38,40.38A40.43,40.43,0,0,0,270.7,374.13Z"/><path class="cls-1" d="M303,312.75c.54,1,1,2.11,1.47,3.18q-39.3-.12-78.61-.08c-17.78,0-35.53,0-53.28,0-15.32.06-31.68-1.24-47,.82,1.41-15.25,10.83-29.05,20.36-40.54,9.34-11.2,21-23.73,35.3-28.25,5-1.57,11.59-.21,16.9-1.55a67.78,67.78,0,0,1,15.81,2,156.17,156.17,0,0,1,40.8,16.88,150.41,150.41,0,0,1,34.16,28A94.77,94.77,0,0,1,303,312.75Z"/><path class="cls-1" d="M230.32,339.94a34.19,34.19,0,1,1-34.18,34.19A34.22,34.22,0,0,1,230.32,339.94Zm25.73,34.19a25.73,25.73,0,1,0-25.73,25.73A25.74,25.74,0,0,0,256.05,374.13Z"/><circle class="cls-1" cx="230.32" cy="374.13" r="19.53" transform="translate(-197.09 272.44) rotate(-45)"/><path d="M760.16,229c-8.78-5.81-17.92-12-16.06-23.81,1.68-10.64,6.68-20.73,8.79-31.35.37-1.86.68-3.78,1-5.72,3.94-9.78,3.45-24.72-2.65-32.55A15,15,0,0,0,749,133.3a1.94,1.94,0,0,0-.17-.31c0,.06,0,.11,0,.15-8.28-6.86-22.61-5-32.38-5.07-15.69-.18-32,.44-46.89,5.94A68.17,68.17,0,0,0,650,145c-6.08,4.85-11.1,11.26-17.75,15.35-16.12,9.94-39.5,8.33-57.81,9.57-13,.87-26.37,1.61-38.87,5.52S511.79,186.5,505.06,198a45.31,45.31,0,0,0-5.56,16.18,48,48,0,0,0-2.28,14.45c-.28,1.42-.53,2.85-.7,4.25-1.38,11.18,3.35,21.68,7.9,31.62,4.77,10.4,13.84,24.26,7.79,35.67l-.06.15c-24.2-.17-48.4-.07-72.58,0-27.16.06-56-2-83.14,1.34-.85-4.61-.09-10.6-.36-14.92-.45-7.75-.49-15.44-.37-23.19.29-16.32.85-32.71,2.19-49s2.4-33.17,4.76-49.49c2-14.24,6.38-28.21,7.46-42.58,22.48.07,44.72,1.57,67.12,2.63,13.76.64,24.41-5.25,25.94-19.84C464.76,89.92,454,82,440.06,79.49c-23.48-4.16-46.95-7.92-70.3-13a1.1,1.1,0,0,0-.25,0C360.37,51.77,346,37.74,328,38.16c-49.83-9.84-63.59,69.31-23.81,86.34-7.36,2.6-19.9,2.52-24.12,3.06-11.42,1.46-21.7,6.26-31.22,12.69-25.34,17.11-40.84,42.36-48.13,71.67-1.53,6.18-1.6,16.65-4.9,21.92a8.59,8.59,0,0,0-.7,1.26,2.47,2.47,0,0,0-.75.17c-1.73.6-5.06-.17-6.94,0-12.77.87-24.33,8.1-33.73,16.39-16.62,14.61-34.37,36.27-38.19,59.12a40.35,40.35,0,0,0,.78,7,17.66,17.66,0,0,0,3.43,7.13c.19.06.36.16.56.21A136.48,136.48,0,0,0,146,327.05a96.74,96.74,0,0,0-12.52,36.62h-.14c-.19,4.75-.52,9.48-1,14.24h.33a97.6,97.6,0,0,0,195.18,0H328c0-.5-.06-1-.1-1.47,18.64,1.61,37.73,1.05,56.35,1.2q29.52.21,59,.33c17.4.1,34.86.37,52.32.52a24.75,24.75,0,0,0,4.69,9.73c9.78,12,33.36,9.4,47,10.89,5.19.56,10.33,1.34,15.5,2.23A97.59,97.59,0,0,0,754.7,377.89h.13c-.29-4.61-.64-9.22-.79-13.83,11.08-10.15,15.75-25.69,18.6-40a424.27,424.27,0,0,0,6.62-51.83C780.64,252.94,776.4,239.73,760.16,229ZM515.7,204.25c6.24-10.27,17-15.42,28.31-18.15,25.34-6.11,52.1-2.6,77.52-8.47,11.62-2.71,20.23-8,28.85-16.14,11.18-10.5,22.78-17,38.09-19.47,13.45-2.17,27.32-1.61,40.88-1.24,5.23.15,10.81-.64,13.2,4.76,1.53,3.41,1.55,7.89,1.08,12.27-.39,1.3-.77,2.59-1.2,3.85-.15,2-.39,3.9-.66,5.76a14.3,14.3,0,0,1-5.46,2.05c-.68.1-1.36.21-2.06.27-3.5.35-7.2.14-10.34.18a149.83,149.83,0,0,0-29,3.16c-20.94,4.51-33.13,19.31-51,29.45-39.86,22.65-89.46,17.8-133.71,19.08C511,215.55,512.39,209.66,515.7,204.25Zm-6.14,41.58a26.53,26.53,0,0,1-1.07-5.54c.56-5,.76-10,1.24-15,23.87,4.94,50.3,2.81,74.19.33,22.71-2.38,46.25-6.91,66-19,9.65-5.93,17.54-14.19,27.11-20.21,12.46-7.81,28.09-10.1,42.53-10.74,4.15-.19,9.88.1,15.27-.48.77-.08,1.53-.16,2.28-.31a25.43,25.43,0,0,0,3.43-.72c0,.08,0,.18-.07.29-3.34,14.22-13.18,30.89-6.46,45.5.12.25.27.48.39.73-14.78-3.7-29.45-4.32-45.57-2.21a271.28,271.28,0,0,0-68.67,18.22,220.16,220.16,0,0,0-52.89,31.71c-8.66,6.9-16.88,14.32-24.82,22.05-5.43,5.27-10.33,10.08-16.12,13.24a51.33,51.33,0,0,0-.6-15.79C523.88,273.4,513.16,257.67,509.56,245.83Zm-70,67c24.88.06,49.78.15,74.66-.06-4.79,8.76-21.66,7.46-31.6,7.73-25.29.72-50.52,2.64-75.84,2.81-12.05.06-24.28.68-36.21-1.32-6-1-12.73-2.48-17.25-6.82a14.67,14.67,0,0,1-3.85-6.51c1.37.95,2.75,1.84,4.2,2.68a4.19,4.19,0,0,0,.47-.14C382,315,411.67,312.81,439.57,312.87ZM441.86,91c6.12,1.55,11,4.61,11.08,11.39.08,9.19-5.44,11.65-12.18,11.86-3.34-3.23-3.9-8.6-2.68-13.52C438.64,98.54,439.9,94,441.86,91Zm-78.2-18.46A35.51,35.51,0,0,1,370.81,75c17.09,5.73,34.41,10.73,52.24,13.58,3.85.62,9.28.77,14.49,1.55a37.21,37.21,0,0,0-4.05,7.13,25.08,25.08,0,0,0-1,16.45c-2.75-.35-5.42-.76-7.73-1-16.12-1.55-32.47-1.63-48.71-1.65a4.36,4.36,0,0,0-1.82-.5c-11.86-.64-21.84-7.09-22.67-19.88C351,81.35,356.22,75.52,363.66,72.52Zm-6.76-4.15a20.08,20.08,0,0,0-9.55,7.89c.13-8.41-1.73-16.49-5.93-23.1A57.51,57.51,0,0,1,356.9,68.37ZM325.72,46.13a53.43,53.43,0,0,1,9.58,3.54c13.52,20.89,5.36,60.38-17.95,70a32.1,32.1,0,0,0,.8-3.35,4.08,4.08,0,0,0-.56-.2l-.24-.11c10.41-7.62,15.62-25.62,16.59-36.62.83-9.17-.91-21.28-7.58-28.23a17.23,17.23,0,0,0-6.31-4.27A32.44,32.44,0,0,1,325.72,46.13Zm-32,31.58c1.55-11.53,7.64-21.68,16.88-27.2,14-1.44,19.2,21.08,16.18,34.95-2.15,10-6.76,23.64-17,27.42C297.38,106.09,291.68,93.09,293.75,77.71Zm-168.19,239c1.41-15.25,10.83-29.05,20.36-40.54,9.34-11.2,21-23.73,35.3-28.25,5-1.57,11.59-.21,16.9-1.55a67.78,67.78,0,0,1,15.81,2,156.17,156.17,0,0,1,40.8,16.88,150.41,150.41,0,0,1,34.16,28A94.77,94.77,0,0,1,303,312.75c.54,1,1,2.11,1.47,3.18q-39.3-.12-78.61-.08c-17.78,0-35.53,0-53.28,0C157.24,315.91,140.88,314.61,125.56,316.67ZM230.32,461.4A85.16,85.16,0,0,1,160.9,326.82c3.23-.06,6.45-.12,9.61-.1,18.44.06,36.87,0,55.33,0q36.89,0,73.77-.08A85.14,85.14,0,0,1,230.32,461.4Zm97.05-94.78c0-.88-.1-1.77-.13-2.66h-.08A97,97,0,0,0,317,331.37a3.41,3.41,0,0,0-.1-3c-3.64-7.4-5.25-15.31-9.47-22.5A114.5,114.5,0,0,0,294,288a150.18,150.18,0,0,0-36.91-30.4c-13.53-7.79-29.43-14.45-44.78-17.26a50.81,50.81,0,0,0-6.59-.78,38.46,38.46,0,0,0,1.57-5c2-7.63,3.14-15.44,5.14-23.06,8-30.36,29.35-61.47,60.78-71.39,9.22-2.91,28.38-1.36,38.34-8.08a37,37,0,0,0,3.33-5.72,37,37,0,0,0,15.6-9.42c11.22,18.84.35,43-5,62.32-7.13,25.88-13.91,52.21-14.18,79.22-.25,24.86,5.11,49.35,14.16,72.41.27.68.53,1.37.8,2.07,4.07,10.52,9.06,23.54,16.91,32.73C337.89,365.88,332.62,366.17,327.37,366.62Zm202.82,19.26c-7.44-.26-17.57,0-21.6-5.86a13.53,13.53,0,0,1-1.18-2.15c-2.48-5.85-1.42-14.53,1.16-19.68a6.69,6.69,0,0,0,.5-1.42c7.27.41,14.44,1.46,21.63,2.25C526,366.4,526.12,377.76,530.19,385.88Zm8.66.77c-6.76-7.48-7.79-18.12-3.74-27.2a99.74,99.74,0,0,0,17.64.23,174.51,174.51,0,0,0,22.39-3.7c8.1-1.8,16.12-3.93,24.15-5.83,5-1.2,10-2.37,14.93-3.55-6.56,14.67-7.49,35.17-.71,49.6a169.18,169.18,0,0,1-25.77-2.57c-4.69-.84-9.36-1.65-14-2.39C562.12,389.38,550.54,387.87,538.85,386.65ZM657.12,461.4a85.3,85.3,0,0,1-80.62-57.7c11.08,1.94,22.17,3.68,33.42,3.78,21.74.21,43.13-.78,64.56-4.48,5.56-.95,11.12-2,16.66-3a2.89,2.89,0,0,0,3.8-.68,4.65,4.65,0,0,1,.58-.1,4.35,4.35,0,0,0,3.61-1.49c12.13-13.64,10.34-33.25,9.45-50.35-.35-6.71-2.11-21.67-9.55-24.61-.87-.19-1.76-.33-2.65-.47a7.19,7.19,0,0,0-1,0l-.12-.19h-9c-11.82,1.69-23.56,4-35.24,6.45-24.45,5.21-48.85,10.52-73.14,16.43a85.19,85.19,0,0,1,163.39,17.36,7,7,0,0,0,.48,3.14,87.09,87.09,0,0,1,.66,10.64A85.33,85.33,0,0,1,657.12,461.4Zm26.29-72.11c-20,3.48-40.63,6.62-61.09,6.95-8.48-14.61-7.9-34.64-2.92-50.86,22.38-5.21,44.87-10,67.64-12.71-3.78,6.74-4.58,16.72-5,22.94C681.36,365.43,679.71,378.94,683.41,389.29Zm8.47-57.16c.93-.08,1.86-.2,2.79-.29,4.36,5.05,3.37,16,3.43,21.85.08,12,1.07,23.37-4.53,33.83h-.06l-2.93.51c-3.83-8.68-2.79-20-2.61-29C688.1,352.2,687.29,339.2,691.88,332.13ZM766,284.06c-.95,7.92-1.63,15.85-2.48,23.79-1.45,13.68-2.87,31.91-12,43.46a97.57,97.57,0,0,0-187.83-3.2,128.58,128.58,0,0,1-23.83,2.42c-11.86,0-23.5-2-35.38-.83a4.79,4.79,0,0,0-5.81,2.71A38.87,38.87,0,0,0,495,364.56c-17.25.14-34.49.41-51.7.51-19.68.11-39.35.17-59,.33-10.47.09-21.08-.06-31.68.09-9.71-8.85-16.26-21.62-21.16-34.49v0c-2.44-6.4-4.46-12.83-6.26-18.82-8.16-27-9.14-54-4.51-81.74,3.89-23.08,11.08-45.32,16.54-68,3.65-15.23,6.26-34.49-4.2-47.61a1.34,1.34,0,0,0-.25-.23,58.44,58.44,0,0,0,11.29-19.78,29.31,29.31,0,0,0,18.64,22.3,3.69,3.69,0,0,0-.33,1c-2.73,16.41-8.15,32.2-10.79,48.61-2.75,17.15-4.75,34.6-6.41,51.89-1.59,16.85-2.23,33.79-2.46,50.7-.1,8.43.64,16.72.85,25.11.06,1.9,0,3.78,0,5.64.19.62.41,1.22.62,1.84-3.62,11.14,3.16,21.08,15.27,25.44,14.94,5.35,31.81,4,47.37,3.84,29.39-.25,59-1.47,88.35-3.37,12.11-.78,25.66-4.73,27.9-15.64,10.64-2,20-13.43,27.69-20.69,16.84-15.95,35.13-30.34,55.72-41.16,21.24-11.19,44.65-18.38,68.17-22.94,12.4-2.42,25.22-4.28,37.88-3.93,10.36.29,20,3.06,29.52,6.41,8.14,6.79,18.8,11,23.2,20.64C769.77,260.44,767.29,273.61,766,284.06Z"/><path d="M230.32,333.74a40.39,40.39,0,1,0,40.38,40.39A40.44,40.44,0,0,0,230.32,333.74Zm0,74.57a34.19,34.19,0,1,1,34.18-34.18A34.22,34.22,0,0,1,230.32,408.31Z"/><path d="M230.32,348.4a25.73,25.73,0,1,0,25.73,25.73A25.76,25.76,0,0,0,230.32,348.4Zm0,45.26a19.53,19.53,0,1,1,19.53-19.53A19.56,19.56,0,0,1,230.32,393.66Z"/></g></svg>