<svg id="Layer_18" data-name="Layer 18" xmlns="http://www.w3.org/2000/svg" viewBox="0 0 895 511.11"><defs><style>.cls-1{fill:#fff;}.cls-2,.cls-3,.cls-4,.cls-5,.cls-6{fill:none;stroke:#1d1d1b;}.cls-2{stroke-miterlimit:10;stroke-width:5px;}.cls-3{stroke-miterlimit:10;stroke-width:5px;}.cls-4{stroke-miterlimit:10;stroke-width:5px;}.cls-5{stroke-miterlimit:10;stroke-width:5px;}.cls-6{stroke-miterlimit:10;stroke-width:5px;}</style></defs><rect class="cls-1" x="474.22" y="76.96" width="89.33" height="16.25" transform="translate(288.6 557.79) rotate(-73.34)"/><rect class="cls-1" x="496.56" y="98.93" width="96.97" height="18.77" transform="translate(51.5 363.71) rotate(-38.6)"/><rect class="cls-2" x="474.22" y="76.96" width="89.33" height="16.25" transform="translate(288.6 557.79) rotate(-73.34)"/><rect class="cls-1" x="491.84" y="34.41" width="16.25" height="89.33" transform="translate(-0.37 2.36) rotate(-0.27)"/><rect class="cls-3" x="491.84" y="34.41" width="16.25" height="89.33" transform="translate(-0.37 2.36) rotate(-0.27)"/><rect class="cls-4" x="496.56" y="98.93" width="96.97" height="18.77" transform="translate(51.5 363.71) rotate(-38.6)"/><rect class="cls-1" x="484.78" y="77.62" width="106.14" height="16.47" transform="translate(198.05 511.52) rotate(-60.47)"/><rect class="cls-5" x="484.78" y="77.62" width="106.14" height="16.47" transform="translate(198.05 511.52) rotate(-60.47)"/><path class="cls-1" d="M541.27,139.28c-26.94-19.53-28.68-19.59-28.68-19.59l-.48-.56c-4-1.89-12.71-5.57-31.13-12.75-45.45-17.69-69.13,81.2-130.13,232.67C318,420.58,308.24,457.71,306.2,474.65h0C309.61,487,361.68,442.78,415,372.76,513.81,242.8,580.76,167.91,541.27,139.28Z"/><path class="cls-6" d="M541.27,139.28c-26.94-19.53-28.68-19.59-28.68-19.59l-.48-.56c-4-1.89-12.71-5.57-31.13-12.75-45.45-17.69-69.13,81.2-130.13,232.67C318,420.58,308.24,457.71,306.2,474.65h0C309.61,487,361.68,442.78,415,372.76,513.81,242.8,580.76,167.91,541.27,139.28Z"/></svg>