<?xml version="1.0" encoding="UTF-8" standalone="no"?>
<!-- Created with Inkscape (http://www.inkscape.org/) -->

<svg
   width="40.145077mm"
   height="40.157654mm"
   viewBox="0 0 40.145077 40.157654"
   version="1.1"
   id="svg4202"
   inkscape:version="1.1.1 (c3084ef, 2021-09-22)"
   sodipodi:docname="cat_4.svg"
   xmlns:inkscape="http://www.inkscape.org/namespaces/inkscape"
   xmlns:sodipodi="http://sodipodi.sourceforge.net/DTD/sodipodi-0.dtd"
   xmlns="http://www.w3.org/2000/svg"
   xmlns:svg="http://www.w3.org/2000/svg">
  <sodipodi:namedview
     id="namedview4204"
     pagecolor="#ffffff"
     bordercolor="#666666"
     borderopacity="1.0"
     inkscape:pageshadow="2"
     inkscape:pageopacity="0.0"
     inkscape:pagecheckerboard="0"
     inkscape:document-units="mm"
     showgrid="false"
     inkscape:zoom="0.52382155"
     inkscape:cx="-189.95018"
     inkscape:cy="129.8152"
     inkscape:window-width="1312"
     inkscape:window-height="810"
     inkscape:window-x="0"
     inkscape:window-y="25"
     inkscape:window-maximized="0"
     inkscape:current-layer="layer1" />
  <defs
     id="defs4199" />
  <g
     inkscape:label="Layer 1"
     inkscape:groupmode="layer"
     id="layer1"
     transform="translate(-155.19787,-114.27831)">
    <g
       id="g3851"
       transform="matrix(0.35277777,0,0,-0.35277777,174.64552,114.27831)">
      <path
         d="m 0,0 h 3.112 c 2.766,-0.761 4.586,-2.808 6.5,-4.745 3.017,-3.053 6.062,-6.079 9.102,-9.11 3.746,-3.736 7.499,-7.466 11.249,-11.199 0.136,-0.174 0.256,-0.366 0.411,-0.521 3.971,-3.979 7.944,-7.956 11.925,-11.925 0.204,-0.203 0.479,-0.333 0.721,-0.497 0.283,-0.338 0.542,-0.7 0.853,-1.011 4.023,-4.035 8.056,-8.06 12.08,-12.094 0.443,-0.445 0.872,-0.91 1.255,-1.406 2.744,-3.553 1.471,-9.12 -2.531,-11.145 -2.275,-1.152 -4.566,-0.98 -6.873,-0.122 -1.225,0.777 -2.299,1.73 -3.323,2.755 -13.844,13.856 -27.696,27.705 -41.547,41.555 -1.155,1.155 -1.156,1.155 -2.299,0.012 -13.746,-13.745 -27.495,-27.487 -41.231,-41.243 -1.368,-1.369 -2.766,-2.673 -4.551,-3.486 -0.327,-0.047 -0.657,-0.077 -0.981,-0.142 -3.857,-0.766 -7.351,1.264 -8.625,5.005 -0.078,0.229 -0.075,0.527 -0.374,0.635 v 0.889 c 0.193,0.223 0.193,0.445 0,0.667 v 0.222 c 0.193,0.223 0.193,0.445 0,0.667 v 0.889 c 1.21,3.479 4.106,5.608 6.55,8.073 13.533,13.649 27.095,27.271 40.677,40.871 2.401,2.405 4.479,5.244 7.9,6.406"
         style="fill:#f2705a;fill-opacity:1;fill-rule:nonzero;stroke:none"
         id="path3853" />
    </g>
    <g
       id="g3855"
       transform="matrix(0.35277777,0,0,-0.35277777,155.19787,134.11808)">
      <path
         d="M 0,0 C 0.193,-0.222 0.193,-0.445 0,-0.667 Z"
         style="fill:#f2705a;fill-opacity:1;fill-rule:nonzero;stroke:none"
         id="path3857" />
    </g>
    <g
       id="g3859"
       transform="matrix(0.35277777,0,0,-0.35277777,155.19787,134.43177)">
      <path
         d="M 0,0 C 0.193,-0.222 0.193,-0.445 0,-0.667 Z"
         style="fill:#f2705a;fill-opacity:1;fill-rule:nonzero;stroke:none"
         id="path3861" />
    </g>
    <g
       id="g3863"
       transform="matrix(0.35277777,0,0,-0.35277777,191.5096,136.77675)">
      <path
         d="m 0,0 c -0.017,-2.743 -0.035,-5.487 -0.052,-8.23 -0.38,0.351 -0.773,0.691 -1.139,1.057 -14.716,14.712 -29.43,29.427 -44.144,44.141 -1.138,1.137 -1.139,1.137 -2.306,-0.029 -14.635,-14.636 -29.27,-29.273 -43.91,-43.904 -0.412,-0.412 -0.752,-0.934 -1.385,-1.066 -0.004,2.541 -0.009,5.082 -0.014,7.623 1.784,0.814 3.183,2.118 4.55,3.487 13.736,13.756 27.485,27.498 41.231,41.243 1.143,1.143 1.144,1.143 2.3,-0.012 C -31.019,30.46 -17.167,16.611 -3.323,2.755 -2.299,1.73 -1.225,0.777 0,0"
         style="fill:#f6b54c;fill-opacity:1;fill-rule:nonzero;stroke:none"
         id="path3865" />
    </g>
    <g
       id="g3867"
       transform="matrix(0.35277777,0,0,-0.35277777,185.21587,123.1167)">
      <path
         d="M 0,0 C 0.01,2.645 0.021,5.289 0.032,7.934 4.391,7.938 8.751,7.942 13.111,7.946 13.102,1.538 13.094,-4.87 13.084,-11.278 c -10e-4,-0.555 -0.018,-1.11 -0.027,-1.665 -0.242,0.164 -0.517,0.294 -0.721,0.497 C 8.355,-8.477 4.382,-4.5 0.411,-0.521 0.256,-0.366 0.136,-0.175 0,0"
         style="fill:#ef5540;fill-opacity:1;fill-rule:nonzero;stroke:none"
         id="path3869" />
    </g>
    <g
       id="g3871"
       transform="matrix(0.35277777,0,0,-0.35277777,181.5769,139.78369)">
      <path
         d="m 0,0 c -5.738,0 -11.477,-0.015 -17.215,0.017 -0.835,0.004 -1.141,-0.168 -1.138,-1.087 0.035,-9.959 0.035,-19.918 0,-29.876 -0.003,-0.913 0.298,-1.086 1.131,-1.084 11.44,0.024 22.88,0.023 34.32,0 0.785,-10e-4 1.084,0.143 1.081,1.022 -0.033,9.995 -0.032,19.991 -10e-4,29.987 0.002,0.86 -0.271,1.042 -1.074,1.038 C 11.403,-0.015 5.701,0 0,0 m -64.78,0.493 c 0.633,0.132 0.973,0.654 1.385,1.065 14.64,14.632 29.274,29.269 43.91,43.904 1.167,1.167 1.168,1.167 2.306,0.03 C -2.465,30.777 12.249,16.063 26.965,1.35 c 0.366,-0.366 0.758,-0.705 1.139,-1.057 0.011,-5.477 0.028,-10.954 0.032,-16.431 0.005,-8.068 -0.006,-16.137 0.012,-24.205 0.002,-0.768 -0.063,-1.193 -1.044,-1.191 -17.766,0.031 -35.531,0.024 -53.297,0.026 -0.147,0 -0.294,0.022 -0.442,0.033 0.001,6.74 0.009,13.479 -0.002,20.219 -0.005,2.776 0.056,5.558 -0.099,8.328 -0.404,7.212 -6.785,13.046 -14.007,12.912 -7.434,-0.137 -13.673,-5.978 -13.792,-13.245 -0.153,-9.403 -0.058,-18.81 -0.07,-28.215 -3.11,-0.012 -6.22,0.007 -9.329,-0.052 -1.061,-0.02 -0.859,0.656 -0.859,1.252 -0.005,9.22 -0.005,18.441 -0.003,27.661 0.001,4.37 0.011,8.739 0.016,13.108"
         style="fill:#fed05c;fill-opacity:1;fill-rule:nonzero;stroke:none"
         id="path3873" />
    </g>
    <g
       id="g3875"
       transform="matrix(0.35277777,0,0,-0.35277777,162.31358,154.41554)">
      <path
         d="m 0,0 c 0.012,9.405 -0.084,18.812 0.07,28.215 0.118,7.267 6.357,13.108 13.791,13.246 7.222,0.133 13.603,-5.701 14.007,-12.913 0.155,-2.77 0.095,-5.552 0.099,-8.328 C 27.978,13.48 27.97,6.741 27.97,0.001 21.31,-0.011 14.65,-0.029 7.99,-0.034 5.327,-0.036 2.663,-0.012 0,0"
         style="fill:#415a6b;fill-opacity:1;fill-rule:nonzero;stroke:none"
         id="path3877" />
    </g>
    <g
       id="g3879"
       transform="matrix(0.35277777,0,0,-0.35277777,189.84107,120.31357)">
      <path
         d="m 0,0 c -4.36,-0.004 -8.719,-0.008 -13.079,-0.012 -1.332,0.01 -2.664,0.05 -3.994,0.016 -0.689,-0.017 -0.996,0.156 -0.99,0.917 0.031,3.514 0.03,7.029 10e-4,10.543 -0.007,0.752 0.289,0.932 0.985,0.93 7.028,-0.019 14.056,-0.019 21.085,10e-4 C 4.715,12.397 4.965,12.208 4.957,11.46 4.919,7.946 4.919,4.432 4.956,0.918 4.965,0.158 4.689,-0.017 3.994,0.003 2.664,0.043 1.332,0.005 0,0"
         style="fill:#f2705a;fill-opacity:1;fill-rule:nonzero;stroke:none"
         id="path3881" />
    </g>
    <g
       id="g3883"
       transform="matrix(0.35277777,0,0,-0.35277777,186.64554,145.45036)">
      <path
         d="m 0,0 c 0,3.74 -0.025,7.479 0.019,11.218 0.01,0.847 -0.258,1.065 -1.072,1.056 -3.48,-0.039 -6.961,-0.04 -10.441,0 -0.84,0.01 -1.068,-0.277 -1.066,-1.087 0.025,-7.442 0.029,-14.884 -0.004,-22.326 -0.004,-0.873 0.316,-1.037 1.1,-1.03 3.48,0.036 6.961,0.043 10.441,-0.004 0.846,-0.012 1.051,0.25 1.042,1.066 C -0.024,-7.405 0,-3.703 0,0 m -28.909,-0.002 c 0,-3.703 0.024,-7.406 -0.018,-11.108 -0.01,-0.819 0.201,-1.074 1.044,-1.063 3.48,0.047 6.961,0.04 10.441,0.004 0.787,-0.008 1.1,0.163 1.097,1.032 -0.032,7.442 -0.029,14.884 -0.004,22.326 0.003,0.813 -0.231,1.094 -1.068,1.085 -3.48,-0.04 -6.961,-0.04 -10.441,0 -0.818,0.01 -1.08,-0.215 -1.07,-1.058 0.044,-3.739 0.019,-7.479 0.019,-11.218 m 14.541,16.065 c 5.701,0 11.403,-0.015 17.104,0.017 C 3.539,16.084 3.813,15.902 3.81,15.042 3.779,5.046 3.778,-4.95 3.811,-14.946 c 0.003,-0.878 -0.295,-1.022 -1.081,-1.021 -11.44,0.023 -22.88,0.024 -34.319,-10e-4 -0.834,-10e-4 -1.135,0.172 -1.132,1.085 0.035,9.958 0.035,19.917 0,29.876 -0.003,0.919 0.304,1.091 1.138,1.087 5.738,-0.032 11.477,-0.017 17.215,-0.017"
         style="fill:#364c60;fill-opacity:1;fill-rule:nonzero;stroke:none"
         id="path3885" />
    </g>
    <g
       id="g3887"
       transform="matrix(0.35277777,0,0,-0.35277777,176.44716,145.45113)">
      <path
         d="m 0,0 c 0,3.74 0.025,7.479 -0.019,11.218 -0.01,0.844 0.252,1.068 1.07,1.058 3.48,-0.039 6.961,-0.04 10.441,0 0.837,0.01 1.07,-0.271 1.068,-1.085 -0.025,-7.441 -0.029,-14.884 0.004,-22.326 0.003,-0.869 -0.311,-1.04 -1.098,-1.031 -3.48,0.036 -6.961,0.042 -10.44,-0.005 -0.843,-0.011 -1.054,0.244 -1.045,1.064 C 0.024,-7.405 0,-3.703 0,0"
         style="fill:#89d6f6;fill-opacity:1;fill-rule:nonzero;stroke:none"
         id="path3889" />
    </g>
    <g
       id="g3891"
       transform="matrix(0.35277777,0,0,-0.35277777,186.64554,145.45036)">
      <path
         d="m 0,0 c 0,-3.703 -0.024,-7.405 0.019,-11.107 0.009,-0.816 -0.196,-1.078 -1.042,-1.066 -3.48,0.047 -6.961,0.04 -10.441,0.004 -0.784,-0.007 -1.104,0.157 -1.1,1.03 0.033,7.442 0.029,14.884 0.004,22.326 -0.002,0.81 0.226,1.097 1.066,1.087 3.48,-0.04 6.961,-0.039 10.441,0 0.814,0.009 1.082,-0.209 1.072,-1.056 C -0.025,7.479 0,3.74 0,0"
         style="fill:#89d6f6;fill-opacity:1;fill-rule:nonzero;stroke:none"
         id="path3893" />
    </g>
  </g>
</svg>
