<svg id="Layer_42" data-name="Layer 42" xmlns="http://www.w3.org/2000/svg" viewBox="0 0 895 511.11"><defs><style>.cls-1{fill:#fff;stroke:#1d1d1b;stroke-miterlimit:10;}</style></defs><path class="cls-1" d="M534.86,433.87s5.88-77.32,16.1-102.34c11.5-28.17,42.54-64.39,59.21-59.79s-2.87,58.64-10.63,71.58S590.63,358,590.63,358s-23.86,30.18-32.49,44.84-20.69,36.51-20.69,36.51Z"/><path class="cls-1" d="M541.57,441.82s32.39-27.38,50.78-34.4c31.62-12.07,68.71-44,60.08-60.66-9.13-17.64-38.81-4.88-54,5.47-12.7,8.62-34.38,39.33-41.68,50.88C548.46,416.14,541.57,441.82,541.57,441.82Z"/><path class="cls-1" d="M541.76,445s23-34.21,52-42c19.8-5.29,24.24-1.48,26.45,3.74,3.16,7.47-6,18.4-20.41,21-11.94,2.15-18.69,2-29.33,7.48s-22.13,12.07-22.13,12.07Z"/><path class="cls-1" d="M364.86,436.25l-6.52-3.06S309.28,403.67,291.65,373s-20.7-80.87-3.07-85.86,33,24.15,39.1,41.78,18.39,43.7,24.14,60.94S364.86,436.25,364.86,436.25Z"/><path class="cls-1" d="M349.52,437.4s-42.16-60.56-67.84-73.59c-22.64-11.49-33-10.73-38.33-6.13-3.29,2.82-3.83,22.23,7.67,36.8,12.91,16.35,34.49,29.12,53.66,34.49s42.54,8.81,42.54,8.81Z"/><path class="cls-1" d="M332.28,447.37s-22.23-19.93-42.17-27.22c-14.11-5.15-31-11.5-36.79-.76-3.5,6.52,5.36,21.85,18.78,23.76,11.24,1.61,27.6,4.6,38.33,4.6S332.28,447.37,332.28,447.37Z"/><path class="cls-1" d="M441.26,489.57c29.51-.28,138.09.59,154.81-4.3,31.5-9.22,23.33-31.11,8.63-46C598,432.48,584,423.12,544.4,411c-30.4-9.33-95.9-8.41-122-8.17S330.1,411.92,291.62,437c-25.58,16.66-28.19,35.3-12.25,43.42C299.44,490.53,441.26,489.57,441.26,489.57Z"/><path class="cls-1" d="M408.66,432s11.76,14.2,13.8,26.83-19,30.65-19,30.65,32.39.08,43.89,0l35.26-.33s13.9-15.77,10.33-28.77-18.78-29.13-18.78-29.13Z"/><path class="cls-1" d="M450.86,431.05c-25.64.78-66.12,3.88-104.11-29.52-42.92-37.73-55-88.31-37.29-134.41,18.52-48.2,48.17-67.6,56.71-94s19.1-87.9,46.32-106C436.34,51.3,450.31,52,466.4,56.57c20.83,6,34.14,26.91,40.4,44.28,9.18,25.5-4.62,71.5,6.21,97.12,7.47,17.68,53.08,58.5,59.83,94,5.23,27.55,5.14,81.2-21.76,108.77C520,432.61,476.5,430.28,450.86,431.05Z"/><path class="cls-1" d="M373.4,200.14c8-1.24,12.65,2.68,10.73,9.19s-8.43,9.2-18.4,18.4-10,26.79-21.46,25.3c-8.82-1.15-9.2-8.82-6.52-16.86S358.45,202.44,373.4,200.14Z"/><path class="cls-1" d="M421.69,74.42c-3.2-3.84-11.21,3.06-16.1,9.58a84.54,84.54,0,0,0-11.11,21.08c-1.92,5.75-1.54,9.58,2.3,10.35s6.68-5.58,8.43-12.27c2.3-8.81,7.28-13,13-18.78S423.61,76.72,421.69,74.42Z"/><path class="cls-1" d="M392.18,123.48c-3.84,3.06-8.43,15.33-3.45,16.1s4.74-1.23,6.9-8.05C397.93,124.24,396,120.41,392.18,123.48Z"/><path class="cls-1" d="M338.52,259.93c-4.6-1.92-11.12,4.6-13.8,9.58s-3.07,10,2.68,12.27,6.9-3.84,9.58-9.2S343.12,261.84,338.52,259.93Z"/><path class="cls-1" d="M410.19,430.68l-19-4c-.77-.62-9.73-3.86-9.73-3.86s-1.17-1.4-1.76-2.13C366,403.64,350.09,376.16,353.89,343c2.91-25.42,13.91-46.5,31.81-60.94A90.09,90.09,0,0,1,436,262.63c1.35-.08,2.73-.12,4.11-.12,22.55,0,45.92,10,62.51,26.69,16.21,16.33,24.68,37.65,24.51,61.65a132.56,132.56,0,0,1-22,73.14c-.59.89-1.75,2.55-1.75,2.55s-19.39,3.85-19.93,4.34l-9.58.38-26.45,1.53Z"/><path class="cls-1" d="M290.76,466.39c-1.15-2.11,1.82-5.27,6.71-6.71s11.12-.76,11.69,1.54-2.59,2.58-7.48,4S291.91,468.5,290.76,466.39Z"/><path class="cls-1" d="M391.53,467.27c-1.24-1.7,2.62-3,6.22-3.5s8,0,8.48,2.11-.37,2.95-4.77,3S392.76,469,391.53,467.27Z"/><path class="cls-1" d="M344.77,450c4.89,0,5.75,1.15,5.75,2.3s-.57,2-4,2-8.53,1.24-8.53-.77S344.77,450,344.77,450Z"/><path class="cls-1" d="M545,474.49c-.83-1.53,3.42-3.84,6.54-3.61s7.77,1.21,7.35,2.75-2.06,2.36-5.21,2.44S545.87,476,545,474.49Z"/><path class="cls-1" d="M532.72,449.55c-1.06-3.4,5.31-5.18,9.06-5.05s11.13,1.35,11.66,4.31-4.26,2.7-9.15,2.43S533.78,453,532.72,449.55Z"/><path class="cls-1" d="M585.6,466.22c-.19-2.68,2.88-3.73,5.75-3.73s6.9,2.87,5.75,4.6-4.31,1.72-7.76,1.43S585.6,466.22,585.6,466.22Z"/><path class="cls-1" d="M405.21,430.49S359.66,394,365.35,344.25c5.75-50.21,44.1-68.56,71.29-70.14,33-1.91,79.34,24.15,79,76.66S483.79,432,483.79,432l-34.5,3.06Z"/><path class="cls-1" d="M441.42,436.57c12.21.28-49.11,3.29-52.77-4.1-3.17-6.39,27.16-11.41,47.89-12,26.85-.82,55.89,3.17,56.44,10.4C493.59,438.76,441.42,436.57,441.42,436.57Z"/><path class="cls-1" d="M443.83,436.57c-13.13.25-52.61,1-55.18-4.1-3.22-6.44,28.4-11.41,50.08-12,28.06-.82,58.69,3.15,59,10.4C498,436.24,457,436.33,443.83,436.57Z"/><path class="cls-1" d="M496.69,428.75c-2.76,6.4-45.91,5.6-53.15,6,7.08-.36-46.38,1.78-54.85-4.14a1.9,1.9,0,0,0,0,1.9c3.7,7.14,42.41,5.86,55.27,5.69s54.4,0,53.81-7.33A3.48,3.48,0,0,0,496.69,428.75Z"/><path class="cls-1" d="M414.7,128.14c0-15.21,13.06-24.1,27.42-24.5,15.19-.42,26.62,8.45,27,23.66.42,16.9-9.28,24.5-27.42,24.92C424.38,152.63,414.7,145,414.7,128.14Z"/><path class="cls-1" d="M471.9,126.78c-.2-8.13-3.27-15-8.88-20-5.29-4.65-12.36-7.11-20.46-7.11h-1.1c-17.67.49-30.5,12.25-30.5,28,0,9,2.67,16,7.94,20.8,5,4.52,12.11,6.81,21.16,6.81h1.31c10.86-.25,18.67-3,23.9-8.52C469.88,141.93,472.11,135.2,471.9,126.78Zm-30.66,22.76c-15.73.37-24.53-6.51-24.53-21.85,0-13.8,11.86-21.86,24.91-22.23,13.8-.38,24.19,7.67,24.53,21.47C466.54,142.26,457.72,149.16,441.24,149.54Z"/><path class="cls-1" d="M439.83,307.91s-7-5.51-11.88-1.91c-3.52,2.58-3.18,9.45.77,11.88,5,3.07,11.11,6.32,11.11,6.32s3.45-2.3,7.1-5,9.75-7.65,4.15-12.77C446.35,302.12,439.83,307.91,439.83,307.91Z"/><path class="cls-1" d="M490.52,348a11.31,11.31,0,1,0,11.3,11.32h0A11.32,11.32,0,0,0,490.52,348Zm0,19.17a7.86,7.86,0,1,1,7.85-7.87h0a7.86,7.86,0,0,1-7.85,7.87Z"/><path class="cls-1" d="M494.35,350c0,1.55-1.93,2.8-4.31,2.8s-4.31-1.25-4.31-2.8,1.93-2.8,4.31-2.8S494.35,348.49,494.35,350Z"/><path class="cls-1" d="M447.85,55.06A72.46,72.46,0,0,0,456.76,39a48.14,48.14,0,0,0,3.45-17.25,13.72,13.72,0,0,1,6.9.58c5.46,1.72,6,4.31,6,4.31a44.52,44.52,0,0,0-8.63,15.24c-1.91,6.38-.86,17-.86,17s-3.45,2-9.2,0A22.43,22.43,0,0,1,447.85,55.06Z"/><path class="cls-1" d="M515.12,111.12S539.55,90.42,535,72.88c-5.12-19.52-28.17-31.62-46.57-31C464.82,42.57,460.21,60,460.21,60s2.59,11.16,12.65,12c9.84.85,26.16-2.14,34.78,3.16C526.33,86.68,515.12,111.12,515.12,111.12Z"/><path class="cls-1" d="M515.26,110.79c5.1-7,12.43-18.4,11.93-26.12-.86-13.51-9.56-23-23.57-28.17-13.62-5-32.35-.44-43.31,3.14-.07.19-.1.31-.1.31s2.59,11.21,12.65,12c9.84.85,26.16-2.14,34.78,3.16C525.07,85.91,516.5,107.87,515.26,110.79Z"/></svg>