<svg id="Layer_167" data-name="Layer 167" xmlns="http://www.w3.org/2000/svg" viewBox="0 0 895 511.11"><defs><style>.cls-1{fill:#fff;}</style></defs><g id="Pickup"><path class="cls-1" d="M804.87,191.63a16,16,0,0,1-.5,4.74c-1.27,4.41-4.28,3.73-8.27,4.54a31.27,31.27,0,0,0-8.77,3c-55.07-1.65-110.43-.14-165.48-.08-57.08.08-114.78-1.63-171.78,2.22q-.12-7-.34-14L647.48,192C699.86,191.93,752.51,193.44,804.87,191.63Z"/><path class="cls-1" d="M780.1,256.12c.08,3.17.32,14.71.2,29.2-9.73-.18-21.41-.16-27.77,6.44-7.51,7.79-5.58,21.94-5.3,31.69.28,9.07-3.33,20.94,1.68,29.2s16.06,6.89,25.19,4.8c-1.92,6.16-4.41,9.61-7.64,8.69a6.13,6.13,0,0,0-3.76.06c-.22,0-.44-.08-.68-.08-8.29-.18-16.6-.3-24.89-.42a94.11,94.11,0,0,0-180.81.14q-25.26.12-50.51.16-25.68,0-51.38,0c.76-10.64-1.35-22.7-1.73-32.77-.72-19-1.34-37.94-1.69-56.92-.42-22.28-.46-44.52-.86-66.75,57,3.85,114.64,2.14,171.7,2.22,52.73.06,105.77,1.45,158.55.12-2.12,5.56-1.6,12.17-1.26,17.95C779.68,238.62,779.92,247.33,780.1,256.12Z"/><path class="cls-1" d="M780.26,289.8c-.26,19.7-1.24,43.53-4.17,59.3-4.18.95-8.51,2.23-12.64,2.13-7.13-.18-9.26-3.53-9.36-10.08-.08-7,.79-13.92.56-21-.3-7.85-1.88-20.07,5.68-24.87C766,291.74,773.34,291.06,780.26,289.8Z"/><path class="cls-1" d="M646.74,309.75A82.2,82.2,0,1,1,564.55,392,82.3,82.3,0,0,1,646.74,309.75Zm39,80.23a38.95,38.95,0,1,0-39,38.94A39,39,0,0,0,685.69,390Z"/><path class="cls-1" d="M646.74,357a33,33,0,1,1-33,33A33,33,0,0,1,646.74,357Zm0,57.78A24.82,24.82,0,1,0,621.93,390,24.86,24.86,0,0,0,646.74,414.79Z"/><circle class="cls-1" cx="646.74" cy="389.98" r="18.83"/><path class="cls-1" d="M444,329.31c.42,11.84,2.41,24.63,2,36.69l-27.8,0c-.2-5.14.36-10.48.28-15.47-.14-8.61-.54-17.18-1-25.77-1-17.64-2.07-35.27-3.13-52.91-.91-14.95-1.35-30.34-5.12-44.93-1.29-4.94-2.63-10.54-5.88-14.61-4.78-6-10.3-7-12-15.66-3.07-15.53,1.34-33,1.78-48.67.48-17.94-.42-35.88-1.32-53.77-.76-14.89,1.38-31.15-2.85-45.62-1.21-4.17-2.75-6.7-4.66-8.39,13.71-.06,27.4-.24,41.07-.66a5.44,5.44,0,0,0,.6-.08c5.26,4.4,7.52,12.81,9.07,18.83,2.45,9.59,3.59,19.39,4.76,29.18,1.92,16.16,3.37,32.21,4.07,48.49.38,8.59-.34,18.66.36,28.18.28,2.24.54,4.45.76,6.68a3.69,3.69,0,0,0,.1.5c-2,34.34-3.09,68.6-2.56,103C442.77,292.67,443.33,311,444,329.31Z"/><path class="cls-1" d="M412.12,335.88c.16,9.41-1.2,20.21-.46,30.14q-45.37,0-90.72,0A94.23,94.23,0,0,0,213,299.41c.12-23.8.95-47.59,1.43-71.37.24-10.64.38-21.29.36-31.91,8-1.17,16.54.7,24.71.18,8.69-.54,14.95-4.48,18.48-10.36,3.29,0,6.58-.06,9.84-.06,33.61,0,67.33.85,100.91-.24a3.93,3.93,0,0,0,1.6-.38,3.21,3.21,0,0,0,3.23-3.31q0-35.31-.1-70.57c-.06-10.35-.08-20.69-.18-31-.06-6.3.77-13.6-2.36-19.16a11.6,11.6,0,0,0-1-1.55,3.19,3.19,0,0,0-3.23-2.89c-23.7-.26-47.4,0-71.09.14-17.52.14-35.42-.44-53.08.44-.58.35-1.15.71-1.71,1.09-1.24,1.46-2.51,2.85-3.83,4.21l.82.06c-8.19,13.35-13,28.94-17.1,43.9-4.51,16.33-8.63,32.81-12,49.41-8.71,3.89-15.15,11.42-20,20.09l-2.39-1.37q1.26-2.64,2.31-5.44c5.38-14.41,10.56-28.78,15.19-43.45,5.26-16.69,10.9-33.21,17.44-49.43,2-4.9,3.84-9.81,5.86-14.59h.06c.47-1.18,1-2.33,1.57-3.49h-.12c3.45-7.61,7.51-14.79,13.45-20.88,44.79,1.37,89.79,2.83,134.67,2.79,4.09,2.67,6.46,6.33,7.8,13,1.51,7.65,1.21,15.59,1.25,23.36,0,16.1,1.42,32.21,1.78,48.31a465.15,465.15,0,0,1-1.66,47.81c-.79,9.89-3.27,25,2.81,33.88,2.73,4,7.38,5.74,10.59,9.25,5.28,5.8,6.67,14.59,7.87,22.07,2.57,16.1,3,32.78,3.63,49S411.8,319.58,412.12,335.88Zm-21.94-94.29c4.7-3.76,3.43-9.82-1-13.29a18.11,18.11,0,0,0-3.21-1.93c-7.65-6.36-24.29-3.91-32.13-2.16-4.4,1-13,2.87-14.27,8.19s4.91,7.78,8.79,9.15C359.15,245.4,380.35,249.45,390.18,241.59Z"/><path class="cls-1" d="M387.59,233.92a1.31,1.31,0,0,0,.49.6,3.91,3.91,0,0,1-1.87,2.93c-1.93,1.51-5.92,1.53-8.21,1.71a77.75,77.75,0,0,1-23.5-1.93,31.63,31.63,0,0,1-6-1.74c-3.09-1.43-3.54-.87-1.25-3.09s8.25-2.81,11.26-3.34c5.48-1,16.62-2.85,23.62-.1.29.12.61.28.95.42s.74.35,1.08.55a0,0,0,0,0,0,0A8.52,8.52,0,0,1,387.59,233.92Z"/><path class="cls-1" d="M366.56,63.55c-.76,17.6.28,35.72.18,53.32-.1,20.45-.06,40.9-.08,61.34-32.89-1-65.91-.22-98.82-.2-2.31,0-4.62,0-6.95-.06a31.39,31.39,0,0,0-.66-13.11c-1.83-7.17-6.18-12.26-13.69-13.25-5.18-.68-10.54.57-15.73,1s-10.3.3-15.36,1.32c11.64-29.12,15.26-61.51,26.27-91,17.93.93,36.11.37,53.91.49C319.26,63.59,342.92,63.81,366.56,63.55Z"/><path class="cls-1" d="M230.45,309.75A82.2,82.2,0,1,1,148.26,392,82.31,82.31,0,0,1,230.45,309.75ZM269.4,390a38.94,38.94,0,1,0-38.95,38.94A39,39,0,0,0,269.4,390Z"/><path class="cls-1" d="M230.45,357a33,33,0,1,1-32.94,33A33,33,0,0,1,230.45,357Zm0,57.78A24.82,24.82,0,1,0,205.64,390,24.86,24.86,0,0,0,230.45,414.79Z"/><path class="cls-1" d="M254.05,171.08c.54,8.07-1.83,15.74-10.52,17.7-7,1.57-14.53,0-21.63-.12-5.78-.12-11.58.4-16.84,3-7.65,3.8-12.47,12.35-21.56,10.86a30.38,30.38,0,0,1,2.67-10.62c5.8-10.41,12.46-21.25,21.84-27.45,8.29-5.48,19-4.5,28.52-5.42C246.84,158.06,253.31,159.66,254.05,171.08Z"/><path class="cls-1" d="M230.45,371.14A18.84,18.84,0,1,1,211.62,390,18.86,18.86,0,0,1,230.45,371.14Z"/><path class="cls-1" d="M209,197.63c.26,10.1.18,20.21,0,30.29-.54,24.3-2,48.57-2.11,72.91a94.48,94.48,0,0,0-67.29,66.86l-22.46.52-.2-.06c-9-2-18.81-3.55-24.31-10.24v-.24c4.36.28,8.92-.72,13.19-1.22s8.61-.44,11.54-3.9c2.19-2.58,2.27-6.08,2.55-9.27.5-5.68,1.36-11.18,2.17-16.82,1.24-8.51,3.57-20.39-1.35-28.28-5.84-9.37-18.86-4.35-27.92-4.53l-.06-11c-.06-8-.08-16-.14-24a4.25,4.25,0,0,0,1.41-.36c15.93-6.91,27.8-26,16.54-42.55a17.43,17.43,0,0,0-17.87-7.49c-.5.1-1,.24-1.48.38-.1-1.76-.18-3.51-.3-5.26.3-3.23.92-6.48,3.25-8.87l.2-.18a15.84,15.84,0,0,1,4.36-1.54,86.67,86.67,0,0,1,17-2.17c10.74.44,21.5.72,32.28.92A96.33,96.33,0,0,0,163,189.87c9.21-1.89,16.06-7.05,22.28-13.39.34-.58.68-1.14,1-1.73l2.39,1.37c-1.18,2.11-2.27,4.29-3.27,6.5-4.8,6.58-8.19,14.07-8.13,22.36a3.2,3.2,0,0,0,2.29,3c11.78,4.17,16.33-2.81,25.71-8.55A21.23,21.23,0,0,1,209,197.63Z"/><path class="cls-1" d="M112.15,300.93c5.66,4.34,3.45,15.84,2.71,22.2-.7,6-1.8,11.86-2.19,17.86s-3.47,8-9.29,8.53a74.13,74.13,0,0,1-10.72.69c.27-17.44.21-34.89.1-52.33C99,299.51,107.14,297.1,112.15,300.93Z"/><path class="cls-1" d="M98.75,215.92c5.72,2.61,7.44,9.39,7.2,15.15-.38,9.15-6.1,14.89-13.53,18.83-.14-11.64-.4-23.27-1-34.89A12.3,12.3,0,0,1,98.75,215.92Z"/><path d="M812.14,182.12a6.13,6.13,0,0,0-5.58-3.53c-46.29-1.65-92.87-.34-139.19-.36l-139.19-.08-69.12-.06a6.48,6.48,0,0,0,.06-1.87c-2.75-20-1.9-40.48-3.19-60.61-.88-13.75-2.31-27.58-3.91-41.27-1.47-12.6-5.84-44.75-22.14-46.8a6.72,6.72,0,0,0-4.57-1.81c-62.18-1.88-124.76.31-186.92,2.19A4.51,4.51,0,0,0,234.58,30c-6.86,3.25-11.22,10.27-14.67,17.42A458.24,458.24,0,0,0,200.34,96c-5.6,16.16-9.89,32.71-15.35,48.91-3.11,9.23-7.77,31.41-19.25,33.16a7.3,7.3,0,0,0-1,.26c-21.22.22-42.41.76-63.57,1.92-.48.2-1,.42-1.46.61-8.51,1.52-15.6,5.25-16.68,12.88a24.76,24.76,0,0,0-1.34,3.53c0,3.17,0,6.34-.08,9.5a2.5,2.5,0,0,0,.16.24c-1.49,25.16-1.43,50.51-1.59,75.66-.12,23.56-.42,47.21,0,70.81A42.45,42.45,0,0,0,91.64,372a2,2,0,0,0,.16-.36,31.65,31.65,0,0,0,20.67,5.64q12.5.3,24.95.52c-.1.7-.22,1.37-.3,2.07H137c-.18,4.6-.48,9.17-.92,13.75h.32a94.12,94.12,0,0,0,188.21,0h.12c-.28-4.48-.62-9-.76-13.43h-.08a1.75,1.75,0,0,0,0-.32c76.53.24,153.08,0,229.6-.16,0,.06,0,.12,0,.18h-.14c-.18,4.6-.5,9.17-.94,13.75h.32a94.12,94.12,0,0,0,188.22,0H741c-.3-4.48-.63-9-.77-13.43h-.06l-.06-.36q11-.12,21.94-.32a7.27,7.27,0,0,0,2.27-.44c13.69,2.51,19.43-13,22-24.13,5.42-23.38,6.05-47.68,5.87-71.57-.08-12.06-.41-24.12-.45-36.2,0-8.51-3.17-20.54-.56-28.68,2.75-8.61,15.32-4,20.83-10.36s2.17-16.22,1.25-23.44A4.92,4.92,0,0,0,812.14,182.12ZM91.46,215a12.3,12.3,0,0,1,7.29.91c5.72,2.61,7.44,9.39,7.2,15.15-.38,9.15-6.1,14.89-13.53,18.83C92.28,238.26,92,226.63,91.46,215Zm139,259.13A82.2,82.2,0,1,1,312.67,392,82.3,82.3,0,0,1,230.45,474.14ZM411.66,366q-45.37,0-90.72,0A94.23,94.23,0,0,0,213,299.41c.12-23.8.95-47.59,1.43-71.37.24-10.64.38-21.29.36-31.91,8-1.17,16.54.7,24.71.18,8.69-.54,14.95-4.48,18.48-10.36,3.29,0,6.58-.06,9.84-.06,33.61,0,67.33.85,100.91-.24a3.93,3.93,0,0,0,1.6-.38,3.21,3.21,0,0,0,3.23-3.31q0-35.31-.1-70.57c-.06-10.35-.08-20.69-.18-31-.06-6.3.77-13.6-2.36-19.16a11.6,11.6,0,0,0-1-1.55,3.19,3.19,0,0,0-3.23-2.89c-23.7-.26-47.4,0-71.09.14-17.52.14-35.42-.44-53.08.44-.58.35-1.15.71-1.71,1.09-1.24,1.46-2.51,2.85-3.83,4.21l.82.06c-8.19,13.35-13,28.94-17.1,43.9-4.51,16.33-8.63,32.81-12,49.41-8.71,3.89-15.15,11.42-20,20.09-1.18,2.11-2.27,4.29-3.27,6.5-4.8,6.58-8.19,14.07-8.13,22.36a3.2,3.2,0,0,0,2.29,3c11.78,4.17,16.33-2.81,25.71-8.55a21.23,21.23,0,0,1,3.65-1.79c.26,10.1.18,20.21,0,30.29-.54,24.3-2,48.57-2.11,72.91a94.48,94.48,0,0,0-67.29,66.86l-22.46.52-.2-.06c-9-2-18.81-3.55-24.31-10.24v-.24c4.36.28,8.92-.72,13.19-1.22s8.61-.44,11.54-3.9c2.19-2.58,2.27-6.08,2.55-9.27.5-5.68,1.36-11.18,2.17-16.82,1.24-8.51,3.57-20.39-1.35-28.28-5.84-9.37-18.86-4.35-27.92-4.53l-.06-11c-.06-8-.08-16-.14-24a4.25,4.25,0,0,0,1.41-.36c15.93-6.91,27.8-26,16.54-42.55a17.43,17.43,0,0,0-17.87-7.49c-.5.1-1,.24-1.48.38-.1-1.76-.18-3.51-.3-5.26.3-3.23.92-6.48,3.25-8.87l.2-.18a15.84,15.84,0,0,1,4.36-1.54,86.76,86.76,0,0,1,17-2.17c10.74.44,21.5.72,32.28.92A96.33,96.33,0,0,0,163,189.87c9.21-1.89,16.06-7.05,22.28-13.39.34-.58.68-1.14,1-1.73q1.26-2.64,2.31-5.44c5.38-14.41,10.56-28.78,15.19-43.45,5.26-16.69,10.9-33.21,17.44-49.43,2-4.9,3.84-9.81,5.86-14.59h.06c.47-1.18,1-2.33,1.57-3.49h-.12c3.45-7.61,7.51-14.79,13.45-20.88,44.79,1.37,89.79,2.83,134.67,2.79,4.09,2.67,6.46,6.33,7.8,13,1.51,7.65,1.21,15.59,1.25,23.36,0,16.1,1.42,32.21,1.78,48.31a465.15,465.15,0,0,1-1.66,47.81c-.8,9.89-3.27,25,2.81,33.88,2.73,4,7.38,5.74,10.59,9.25,5.28,5.8,6.67,14.59,7.87,22.07,2.57,16.1,3,32.78,3.63,49s1,32.61,1.31,48.91C412.28,345.29,410.93,356.09,411.66,366ZM366.74,116.87c-.1,20.45-.06,40.9-.08,61.34-32.89-1-65.91-.22-98.82-.2-2.31,0-4.62,0-6.95-.06a31.39,31.39,0,0,0-.66-13.11c-1.83-7.17-6.18-12.26-13.69-13.25-5.18-.68-10.54.57-15.73,1s-10.3.3-15.36,1.32c11.64-29.12,15.26-61.51,26.27-91,17.93.93,36.11.37,53.91.49,23.63.18,47.29.4,70.93.14C365.8,81.15,366.84,99.27,366.74,116.87ZM236.53,159.06c10.31-1,16.79.6,17.52,12,.54,8.07-1.83,15.74-10.52,17.7-7,1.57-14.53,0-21.63-.12-5.78-.12-11.58.4-16.84,3-7.65,3.8-12.47,12.35-21.56,10.86a30.38,30.38,0,0,1,2.67-10.62c5.8-10.41,12.46-21.25,21.84-27.45C216.3,159,227.05,160,236.53,159.06ZM92.76,297.88c6.25,1.63,14.38-.78,19.39,3.05,5.66,4.34,3.45,15.84,2.71,22.2-.7,6-1.8,11.86-2.19,17.86s-3.47,8-9.29,8.53a74.13,74.13,0,0,1-10.72.69C92.93,332.77,92.87,315.32,92.76,297.88ZM446,366l-27.8,0c-.2-5.14.36-10.48.28-15.47-.14-8.61-.54-17.18-1-25.77-1-17.64-2.07-35.27-3.13-52.91-.91-14.95-1.35-30.34-5.12-44.93-1.29-4.94-2.63-10.54-5.88-14.61-4.78-6-10.3-7-12-15.66-3.07-15.53,1.34-33,1.78-48.67.48-17.94-.42-35.88-1.32-53.77-.76-14.89,1.38-31.15-2.85-45.62-1.21-4.17-2.75-6.7-4.66-8.39,13.71-.06,27.4-.24,41.07-.66a5.44,5.44,0,0,0,.6-.08c5.26,4.4,7.52,12.81,9.07,18.83,2.45,9.59,3.59,19.39,4.76,29.18,1.92,16.16,3.37,32.21,4.07,48.49.38,8.59-.34,18.66.36,28.18.28,2.24.54,4.45.76,6.68a3.69,3.69,0,0,0,.1.5c-2,34.34-3.09,68.6-2.56,103,.3,18.29.86,36.61,1.5,54.93C444.39,341.15,446.38,353.94,446,366ZM646.74,474.14A82.2,82.2,0,1,1,728.94,392,82.28,82.28,0,0,1,646.74,474.14Zm129.35-125c-4.18.95-8.51,2.23-12.64,2.13-7.13-.18-9.26-3.53-9.36-10.08-.08-7,.79-13.92.56-21-.3-7.85-1.88-20.07,5.68-24.87,5.62-3.57,13-4.25,19.93-5.51C780,309.5,779,333.33,776.09,349.1Zm3-119.25c.54,8.77.78,17.48,1,26.27.08,3.17.32,14.71.2,29.2-9.73-.18-21.41-.16-27.77,6.44-7.51,7.79-5.58,21.94-5.3,31.69.28,9.07-3.33,20.94,1.68,29.2s16.06,6.89,25.19,4.8c-1.92,6.16-4.41,9.61-7.64,8.69a6.13,6.13,0,0,0-3.76.06c-.22,0-.44-.08-.68-.08-8.29-.18-16.6-.3-24.89-.42a94.11,94.11,0,0,0-180.81.14q-25.26.12-50.51.16-25.68,0-51.38,0c.76-10.64-1.35-22.7-1.73-32.77-.72-19-1.34-37.94-1.69-56.92-.42-22.28-.46-44.52-.86-66.75,57,3.85,114.64,2.14,171.7,2.22,52.73.06,105.77,1.45,158.55.12C778.28,217.46,778.8,224.07,779.14,229.85Zm25.23-33.48c-1.27,4.41-4.28,3.73-8.27,4.54a31.27,31.27,0,0,0-8.77,3c-55.07-1.65-110.43-.14-165.48-.08-57.08.08-114.78-1.63-171.78,2.22q-.12-7-.34-14L647.48,192c52.38,0,105,1.47,157.39-.34A16,16,0,0,1,804.37,196.37Z"/><path d="M646.74,351a38.95,38.95,0,1,0,39,39A39,39,0,0,0,646.74,351Zm0,71.91a33,33,0,1,1,33-33A33,33,0,0,1,646.74,422.94Z"/><path d="M646.74,365.16A24.82,24.82,0,1,0,671.56,390,24.83,24.83,0,0,0,646.74,365.16Zm0,43.65A18.84,18.84,0,1,1,665.58,390,18.86,18.86,0,0,1,646.74,408.81Z"/><path d="M389.16,228.3a18.11,18.11,0,0,0-3.21-1.93c-7.65-6.36-24.29-3.91-32.13-2.16-4.4,1-13,2.87-14.27,8.19s4.91,7.78,8.79,9.15c10.81,3.85,32,7.9,41.84,0C394.88,237.83,393.61,231.77,389.16,228.3Zm-3,9.15c-1.93,1.51-5.92,1.53-8.21,1.71a77.75,77.75,0,0,1-23.5-1.93,31.63,31.63,0,0,1-6-1.74c-3.09-1.43-3.54-.87-1.25-3.09s8.25-2.81,11.26-3.34c5.48-1,16.62-2.85,23.62-.1.29.12.61.28.95.42s.74.35,1.08.55a0,0,0,0,0,0,0,8.52,8.52,0,0,1,3.43,4,1.31,1.31,0,0,0,.49.6A3.91,3.91,0,0,1,386.21,237.45Z"/><path d="M230.45,351a38.95,38.95,0,1,0,38.95,39A39,39,0,0,0,230.45,351Zm0,71.91a33,33,0,1,1,33-33A33,33,0,0,1,230.45,422.94Z"/><path d="M230.45,365.16A24.82,24.82,0,1,0,255.29,390,24.84,24.84,0,0,0,230.45,365.16Zm0,43.65A18.84,18.84,0,1,1,249.31,390,18.86,18.86,0,0,1,230.45,408.81Z"/></g></svg>