<svg id="Layer_38" data-name="Layer 38" xmlns="http://www.w3.org/2000/svg" viewBox="0 0 895 511.11"><defs><style>.cls-1{fill:#fff;stroke:#1d1d1b;stroke-miterlimit:10;}</style></defs><path class="cls-1" d="M294.92,406.37a98.63,98.63,0,0,1,25.6,6.75,357.27,357.27,0,0,0-26.95-39.2c28.72,2.76,56.09,11.47,77.37,24.6a91.37,91.37,0,0,0-17.29-28.21A83.79,83.79,0,0,1,377.33,383a283.23,283.23,0,0,1-13.89-68.09c66.94-4.5,49.82,24.64,69.85,40.34A227.31,227.31,0,0,1,472,312.14c-2.34,12.24-4.49,25.31,3.67,36.4,18.22-22.11,13.33-43.58,74.4-56.38-13.43,13.36-23.41,28.25-29.39,43.83,19.38-13.25,47.27-20.78,75-20.27-31,13.15-45.41,37.78-57.94,60.78,13.32-10.59,36.21-12.59,56.87-13.85-19.06,10.29-34,24-42.77,39.21,10.53-5.95,25.47-8.25,38.85-6-14.55,7.15-26.6,16.56-34.89,27.27a77.58,77.58,0,0,1,35.07-4c-13,8.35-23.55,18.42-30.78,29.46-1.58,2.4-3.08,4.93-5.93,6.75s-6.89,2.73-10.76,3.45c-39.79,7.45-82.16,4-123-.11q-36.57-3.72-73-8.2c-11-1.37-10.81-3.66-14.39-10.14a71.41,71.41,0,0,0-14-17.6A101.71,101.71,0,0,0,294.92,406.37Z"/><path class="cls-1" d="M530.91,342.44c-11.93,13.06-18.79,28.15-19.76,43.42,15.26-18.34,40.76-32.8,70.39-39.9-25.09,19.1-47.89,41.35-51.06,66.63a63.48,63.48,0,0,1,10.92-5.35l-6.11,9.88A136.59,136.59,0,0,1,556,410.63l-11.2,22.92a14.79,14.79,0,0,1-4,5.63c-5,3.95-14.78,3.75-21.17.82s-10.05-7.8-12.83-12.62c-8.07-13.94-13.69-32.18-9.74-47.12,1.9-7.22,7.61-14.64,13.23-20.85S525.42,348.45,530.91,342.44Z"/><path class="cls-1" d="M325.63,422.24a47.42,47.42,0,0,1,20.75,6.4,123.22,123.22,0,0,0-23.57-25.33c15.92,3.41,30.65,9.27,42.69,17l-38.22-56.78c20.41,12.26,41.17,24.8,54.82,40.69,5,5.79,9,12.1,9.72,18.76s-2.15,13.7-9.34,18.35c-7.58,4.91-22.56,7-31,1.9-4.35-2.66-7.09-6.82-10.64-9.93C338.32,431.05,330,422.59,325.63,422.24Z"/><path class="cls-1" d="M420.92,424.54c46.48-3.86,95.76-3.26,137.4,11,7.22,2.49,14.65,5.76,17.24,10.89,4.31,8.51-6.75,17.06-18.37,21.63-21.84,8.59-48,10.77-73.41,10.9-50.38.25-100.13-6.81-149.4-13.83-37.38-5.34.49-22.56,17.39-28.2C373.23,429.81,397.25,426.5,420.92,424.54Z"/><path class="cls-1" d="M575.56,446.47c-2.59-5.13-10-8.4-17.24-10.89-2.3-.78-4.62-1.53-7-2.23a12.12,12.12,0,0,1,2.67,3.41c4.31,8.51-6.75,17.07-18.37,21.63-21.84,8.59-48,10.77-73.41,10.9-48.41.24-96.24-6.27-143.61-13-1.16,3.74,2.74,7,15.74,8.89,49.27,7,99,14.08,149.4,13.83,25.37-.13,51.57-2.31,73.41-10.9C568.81,463.53,579.87,455,575.56,446.47Z"/><path class="cls-1" d="M551,179.11s-85.72,2.83-107.37.92v-.92a4.72,4.72,0,0,1-4.78,0V180c-21.65,1.91-107.38-.92-107.38-.92s-.58,74.45,10.15,156,24.51,111.66,24.51,111.66H516.36s13.79-30.13,24.52-111.66S551,179.11,551,179.11Z"/><path class="cls-1" d="M443.65,180v-.92a4.72,4.72,0,0,1-4.78,0V180c-21.65,1.91-107.38-.92-107.38-.92S331.4,190.8,332,210c7.91,6.19,19.52,9,28,7,1.41,11,11.09,19.67,21.84,22.22S404,239,413.91,234.1a52.31,52.31,0,0,0,70.87,9.66c12.85,10.44,32.86,10.83,46.11.89,1.44-1.08,2.93-2.31,4.72-2.44s3.21.75,4.72,1.44a25.92,25.92,0,0,0,8.77,2.25c2.21-39.55,2-66.78,2-66.78S465.3,181.94,443.65,180Z"/><path class="cls-1" d="M374.46,133.31c21.65-19,40.71-40.85,62.46-59.77s47-35.17,75.38-40.08,60.34,3.47,78,26.29c9.21,11.92,14,28.05,9.44,42.42-6,18.92-29,30.4-47.74,23.78-5.47-1.94-10.91-5.78-12.08-11.47a8.19,8.19,0,0,1,0-3.12,5.18,5.18,0,0,1,10-.74,13.92,13.92,0,0,0,12.08,9c7.61.27,14.45-5.17,18.3-11.74,2.31-3.95,3.81-8.77,2.27-13.08-2.78-7.78-14.33-9.06-20.9-4s-9.08,13.7-10.19,21.89a105.82,105.82,0,0,0,27.94,85.94,5.12,5.12,0,0,1,.51,6.44A25.25,25.25,0,0,1,564,214.88c-7.68,1.45-15.75-.12-23.15-2.8l0,0a5.06,5.06,0,0,0-6.3,1.8l-.35.51c-9.11,13.2-29.71,15.86-42.49,6.66a5.2,5.2,0,0,0-7.08,1.1,37.76,37.76,0,0,1-62-4.25,5.17,5.17,0,0,0-6.57-2c-8.23,3.72-17.15,6.23-25.91,4.69-7.62-1.34-14.89-6.71-17.78-13.63a5.18,5.18,0,0,0-7.46-2.4,21.91,21.91,0,0,1-31.37-10.31,5.19,5.19,0,0,0-4.93-3.11c-7.86.15-26.29-5.11-28.58-7.85-7.22-8.66,2.83-9.54,10.7-12C334.71,163.84,355.58,149.89,374.46,133.31Z"/><path class="cls-1" d="M551.9,125.87a34,34,0,0,0,12.92,1.84L560,122.16c9.94,1,20.32-4.3,25.73-12.8,7.4-11.59,3.87-28.79-7.5-36.53-5.84-4-13-5.5-20.11-5.9-11.45-.65-24,1.95-31.45,10.62C522,82.9,519.84,90,518.92,97c-2.53,19.21,3.77,38.8,14.08,55.21s24.43,30,38.87,43c2.87,2.56,5.86,5.17,9.5,6.39l.26.09c.08-.17.15-.34.22-.51-20.15-19.61-31.6-47.73-31.42-75.8C550.92,125.53,551.41,125.69,551.9,125.87Zm9.62-35.23c6.57-5,18.12-3.73,20.9,4,1.54,4.31,0,9.13-2.27,13.08-3.85,6.57-10.7,12-18.3,11.74a13.92,13.92,0,0,1-10.63-6.11,6.47,6.47,0,0,1,.11-.87C552.44,104.34,554.94,95.64,561.52,90.64Z"/><path class="cls-1" d="M478.81,227.68a36.85,36.85,0,0,0,8.8-10.18c-2.12-19.36-7.6-54.27-5.44-81.42C480.17,161.28,482,205,478.81,227.68Z"/><path class="cls-1" d="M391.42,220.72c9.6,1.21,19.28-2.21,28-6.58,1.89-9.25,5.91-18,9.89-26.59l32.79-70.83a713,713,0,0,1-52.55,83.46C404.17,207.57,398.47,215,391.42,220.72Z"/><path class="cls-1" d="M536.94,211.51a3.46,3.46,0,0,1,1.69-.1l-1-2.25q-21.9-51.3-40.5-103.93c3.34,40,30,76.34,29.81,116a26.08,26.08,0,0,0,7.09-6.92C534.85,213.19,535.65,211.93,536.94,211.51Z"/><path class="cls-1" d="M342,204.08a21.24,21.24,0,0,0,6.37,2.76,22.47,22.47,0,0,0,21.79-7c1.69-3.09,3.67-6.07,5.62-9l34-50.81A270.74,270.74,0,0,1,342,204.08Z"/><path class="cls-1" d="M360,163.18c-16.24,11-34.47,19.53-53.66,23.28,8.1,2.88,21.14,5.71,24.75,4.26l2.16-1.42a318.26,318.26,0,0,0,80.15-74.6C397.17,132.51,380,149.67,360,163.18Z"/><path class="cls-1" d="M463.37,358.44c-11.81-9.73-30.68-9.4-42.19.68a47.43,47.43,0,0,0-10.54,14.34c-11.5,22.5-12,50.19-1.85,73.29h61.59a68.06,68.06,0,0,0,3.42-6.28c7.92-16.61,8.83-36,4.73-54C476.12,375.93,471.72,365.32,463.37,358.44Z"/><path class="cls-1" d="M466.51,384.37c-6.85-6.44-18.75-8.33-28.6-5.62A36.52,36.52,0,0,0,416,396c-4.34,7.78-5.57,16.53-5.27,25.09a76.57,76.57,0,0,0,4.68,23.76,14.83,14.83,0,0,0,.83,1.92h46.15c6.88-14.45,12.77-29.41,11.57-44.78C473.44,395.66,471.57,389.13,466.51,384.37Z"/><path class="cls-1" d="M419.1,431.28c-.3-8.56.93-17.31,5.27-25.09A36.52,36.52,0,0,1,446.32,389c8.49-2.34,18.5-1.25,25.49,3.22a21.8,21.8,0,0,0-5.25-7.81c-6.85-6.44-18.75-8.33-28.6-5.62A36.48,36.48,0,0,0,416,396c-4.35,7.78-5.57,16.53-5.28,25.09a76.58,76.58,0,0,0,4.69,23.76,14.83,14.83,0,0,0,.83,1.92h5A75,75,0,0,1,419.1,431.28Z"/><path class="cls-1" d="M423.2,281c0,20.31-16.6,38-34.75,36.78-19.15-1.34-34.75-16.5-34.75-36.78s15.56-36.79,34.75-36.79S423.2,260.65,423.2,281Z"/><path class="cls-1" d="M402.36,247.44C384.83,249.32,371.15,265,371.15,284c0,15.08,8.58,28,20.85,33.72,17.52-1.88,31.2-17.55,31.2-36.59C423.2,266.08,414.62,253.12,402.36,247.44Z"/><path class="cls-1" d="M476.64,317.22c-4.79,13.77,2.27,29.69,14.87,33.14,13.29,3.63,27.45-2.95,32.25-16.72S521.9,305,508.89,300.49,481.44,303.45,476.64,317.22Z"/><path class="cls-1" d="M498.69,299.41c11.44,5.42,17,19.27,12.51,32.18a26.51,26.51,0,0,1-22.1,17.93c-11.43-5.42-17-19.27-12.5-32.18A26.53,26.53,0,0,1,498.69,299.41Z"/><path class="cls-1" d="M360.81,369a7.68,7.68,0,0,0,2.35,7.13,16.85,16.85,0,0,0,6.84,3.73,44.93,44.93,0,0,0,8.27,1.84c3.07.38,6.72.18,8.47-2.36,1.54-2.26.76-5.52-1.09-7.54s-4.5-3.07-7.09-3.95C374.1,366.29,362.76,361.4,360.81,369Z"/><path class="cls-1" d="M402.93,362.91a9.63,9.63,0,0,0,3.57-5.1,5.25,5.25,0,0,0-2-5.6,7.09,7.09,0,0,0-3.05-.86c-5.07-.52-20.6,1.47-19.79,9.3C382.61,370,398.47,366.5,402.93,362.91Z"/><path class="cls-1" d="M368.34,351.72a5,5,0,0,0,2.46-1.65c1-1.52.35-3.75-1.07-4.93a9.4,9.4,0,0,0-5.17-1.74c-3.66-.38-16-1.48-14.12,4.29C352.35,353.62,364.06,353.33,368.34,351.72Z"/><path class="cls-1" d="M524.83,282.69a14.46,14.46,0,0,0,7-1.87,6,6,0,0,0,0-10.74,15.79,15.79,0,0,0-5.54-1.82c-5.12-.91-20.58-1.33-21.58,6.48S520,283,524.83,282.69Z"/><path class="cls-1" d="M494.73,280.87a10.69,10.69,0,0,0-8.37,1.17,6.14,6.14,0,0,0-2.62,2.85,3.39,3.39,0,0,0,.66,3.66,5,5,0,0,0,2.57,1.06,44.26,44.26,0,0,0,10.34.82c2.5-.09,5.47-.76,6.33-3.11.76-2.09-.75-4.45-2.75-5.43S494.73,280.87,494.73,280.87Z"/><path class="cls-1" d="M497.18,257.9a2.59,2.59,0,0,0-1.58,2.7c.34,1.54,2.24,2.06,3.81,2.22a57.3,57.3,0,0,0,12,0,6.54,6.54,0,0,0,2.87-.8,2.4,2.4,0,0,0,1.14-2.56c-.38-1.22-1.86-1.65-3.12-1.85C508,256.92,498.24,257.5,497.18,257.9Z"/><path class="cls-1" d="M541.52,104.49c-3-3.63-8.3-6.25-12.39-3.92-3.47,2-4.46,6.63-3.8,10.56,1.41,8.35,8.59,14.91,16.64,17.55s16.83,1.94,25.12.22c7.26-1.5,14.89-4.11,19.2-10.15-4.53-2.59-10.28,1.07-14.75,2.14-3.5.84-7.94,1.88-11.56,1.27C550.12,120.49,547.09,111.21,541.52,104.49Z"/><path class="cls-1" d="M458.31,423.72c-1.08,3.83-3,7.65-2.44,11.59.16,1.11.69,2.35,1.78,2.59,1.45.31,2.52-1.35,2.86-2.78.45-1.92.44-3.9.74-5.84.62-4.08,5.84-12.49,1.71-15.69-1.27-1-2.94-1.54-3.68.11-.5,1.1.07,3.65,0,4.92A27.65,27.65,0,0,1,458.31,423.72Z"/></svg>