<svg id="Layer_1" data-name="Layer 1" xmlns="http://www.w3.org/2000/svg" viewBox="0 0 895 511.11"><defs><style>.cls-1{fill:#fff;}.cls-2{fill:none;stroke:#000;stroke-miterlimit:10;stroke-width:5px;}</style></defs><g id="Layer_7" data-name="Layer 7"><path class="cls-1" d="M561.86,132.71c13,25.4,18.93,54.07,22.35,82.51,10.48,87-45.15,153.41-108.1,206.41-17.27,14.54-35.43,29-56.91,35.92s-47.24,5-63.72-10.43c-18.92-17.72-20.47-46.53-23.77-72.24-5.83-45.47-20.91-89.28-28.1-134.56s-5.57-94.52,19.31-133c27.22-42.13,78.48-59.43,126.64-53.61,40.6,4.9,87.81,36.65,108.26,71.64C559.24,127.76,560.58,130.22,561.86,132.71Z"/><path class="cls-2" d="M561.86,132.71c13,25.4,18.93,54.07,22.35,82.51,10.48,87-45.15,153.41-108.1,206.41-17.27,14.54-35.43,29-56.91,35.92s-47.24,5-63.72-10.43c-18.92-17.72-20.47-46.53-23.77-72.24-5.83-45.47-20.91-89.28-28.1-134.56s-5.57-94.52,19.31-133c27.22-42.13,78.48-59.43,126.64-53.61,40.6,4.9,87.81,36.65,108.26,71.64C559.24,127.76,560.58,130.22,561.86,132.71Z"/><path class="cls-1" d="M474.75,65c-.76-5.36,5.08-16.48,11.87-15.16A7.16,7.16,0,0,1,489,51a10.68,10.68,0,0,1,4,3.83c2,4-4.33,9.55-5.67,13.19A5.11,5.11,0,0,1,486.2,70a4,4,0,0,1-3.28.72C477.39,70,475.15,67.8,474.75,65Z"/><path class="cls-2" d="M474.75,65c-.76-5.36,5.08-16.48,11.87-15.16A7.16,7.16,0,0,1,489,51a10.68,10.68,0,0,1,4,3.83c2,4-4.33,9.55-5.67,13.19A5.11,5.11,0,0,1,486.2,70a4,4,0,0,1-3.28.72C477.39,70,475.15,67.8,474.75,65Z"/><path class="cls-1" d="M487.29,101.16c12.78,34.85,37.56,64.59,67.42,86.65s64.64,36.78,100.4,46.73c-30.4-27.44-49.88-64.58-73.64-97.94-16.22-22.78-35.58-44.7-60-58.84-6.28-3.63-29.16-17.35-36.34-12.56C476.78,70.76,484.8,94.37,487.29,101.16Z"/><path class="cls-2" d="M487.29,101.16c12.78,34.85,37.56,64.59,67.42,86.65s64.64,36.78,100.4,46.73c-30.4-27.44-49.88-64.58-73.64-97.94-16.22-22.78-35.58-44.7-60-58.84-6.28-3.63-29.16-17.35-36.34-12.56C476.78,70.76,484.8,94.37,487.29,101.16Z"/><path class="cls-1" d="M485.13,65.32c-9.68,1.77.38,31,2.16,35.84,12.78,34.85,37.56,64.59,67.42,86.65,29.28,21.64,64.3,37.56,99.58,46.47-7.66-1.94-12.94-8.57-19.32-12.73-7.45-4.84-14.87-9.75-22.12-14.89-33.9-24.07-62.27-56.33-85.45-90.85-6.12-9.1-11.78-18.52-18.32-27.34a119.74,119.74,0,0,0-11-13C496,73.32,488.7,64.93,485.5,65.26Z"/><path class="cls-2" d="M485.13,65.32c-9.68,1.77.38,31,2.16,35.84,12.78,34.85,37.56,64.59,67.42,86.65,29.28,21.64,64.3,37.56,99.58,46.47-7.66-1.94-12.94-8.57-19.32-12.73-7.45-4.84-14.87-9.75-22.12-14.89-33.9-24.07-62.27-56.33-85.45-90.85-6.12-9.1-11.78-18.52-18.32-27.34a119.74,119.74,0,0,0-11-13C496,73.32,488.7,64.93,485.5,65.26Z"/></g></svg>