<svg id="Layer_1" data-name="Layer 1" xmlns="http://www.w3.org/2000/svg" viewBox="0 0 895 511.11"><defs><style>.cls-1{fill:#fff;}.cls-2{fill:none;stroke:#000;stroke-miterlimit:10;stroke-width:5px;}</style></defs><g id="Layer_6" data-name="Layer 6"><path class="cls-1" d="M592.38,49.3h0c-79.7-19.31-151,30.19-159.23,110.57h0C512.85,179.18,584.14,129.68,592.38,49.3Z"/><path class="cls-2" d="M592.38,49.3h0c-79.7-19.31-151,30.19-159.23,110.57h0C512.85,179.18,584.14,129.68,592.38,49.3Z"/><path class="cls-1" d="M589.32,52.87C477.15,82.16,430.09,163.44,430.09,163.44h0C509.79,182.75,581.08,133.25,589.32,52.87Z"/><path class="cls-2" d="M589.32,52.87C477.15,82.16,430.09,163.44,430.09,163.44h0C509.79,182.75,581.08,133.25,589.32,52.87Z"/><path class="cls-1" d="M615.18,292c0,2.89,0,5.62-.16,8.51,0,2-.17,4.08-.35,6.29-.33,4.77-.84,9.7-1.36,14.28-4.08,28.41-15,54.26-36.56,75.52-21.09,21.08-48,35.54-74.66,47.78-4.25,1.88-8.33,3.75-12.41,5.61-4.76,2-9.87,4.77-15.31,7.49-1.87.85-3.57,1.7-5.44,2.55a34.74,34.74,0,0,1-5.27,2.21l-.17.17c-5.78,2.22-11.74,3.74-17.35,3.57-15-.34-34.69-10-48.64-15.3C327.44,423.11,279.82,370.57,279.82,292c0-82.65,53.57-149.82,119.72-149.82a97.56,97.56,0,0,1,33.51,6.12,37.15,37.15,0,0,0,8.5,2,41.8,41.8,0,0,0,20.41-2,97.51,97.51,0,0,1,33.67-6.12C561.61,142.17,615.18,209.35,615.18,292Z"/><path class="cls-2" d="M615.18,292c0,2.89,0,5.62-.16,8.51,0,2-.17,4.08-.35,6.29-.33,4.77-.84,9.7-1.36,14.28-4.08,28.41-15,54.26-36.56,75.52-21.09,21.08-48,35.54-74.66,47.78-4.25,1.88-8.33,3.75-12.41,5.61-4.76,2-9.87,4.77-15.31,7.49-1.87.85-3.57,1.7-5.44,2.55a34.74,34.74,0,0,1-5.27,2.21l-.17.17c-5.78,2.22-11.74,3.74-17.35,3.57-15-.34-34.69-10-48.64-15.3C327.44,423.11,279.82,370.57,279.82,292c0-82.65,53.57-149.82,119.72-149.82a97.56,97.56,0,0,1,33.51,6.12,37.15,37.15,0,0,0,8.5,2,41.8,41.8,0,0,0,20.41-2,97.51,97.51,0,0,1,33.67-6.12C561.61,142.17,615.18,209.35,615.18,292Z"/></g></svg>