<svg id="Layer_52" data-name="Layer 52" xmlns="http://www.w3.org/2000/svg" viewBox="0 0 895 511.11"><defs><style>.cls-1{fill:#fff;}.cls-2{fill:#1d1d1b;}</style></defs><path class="cls-1" d="M507.27,243.86c13.14-1.68,26.8,8.85,62.06,5.94,20.51-1.69,20.46,6.46,11.39,17.83-6.43,8.07-50.3,37.55-90.73,27.3C471.63,290.27,492.2,245.79,507.27,243.86Z"/><path class="cls-2" d="M507.7,298.16a73.37,73.37,0,0,1-18-2.17c-5.64-1.43-8.49-6.48-8-14.22.91-14.88,14.21-37.56,25.43-39a25.94,25.94,0,0,1,3.1-.19c4.4,0,9,1.09,14.4,2.36,8.1,1.9,18.18,4.28,32.65,4.28,3.85,0,7.87-.18,12-.51,10.14-.84,15.93.62,17.79,4.47,1.68,3.48-.11,8.43-5.45,15.13C575.85,275.51,542.74,298.16,507.7,298.16Zm2.53-53.38a21.47,21.47,0,0,0-2.82.17c-9.42,1.2-22.61,21.93-23.52,37-.28,4.64.6,10.49,6.37,12A71.39,71.39,0,0,0,507.7,296c34.3,0,66.59-22,72.16-29,4.64-5.81,6.43-10.24,5.2-12.81-1.37-2.82-6.81-4-15.64-3.24-4.15.34-8.24.52-12.14.52-14.73,0-24.95-2.41-33.15-4.34C518.89,245.84,514.37,244.78,510.23,244.78Z"/><path class="cls-1" d="M566.6,256.34c-35.46,10.24-58,4.87-71.89-1.94-.24-.12-.49-.21-.72-.3-11.94,14-18.36,37.1-4,40.83,40.36,10.47,84.3-19.23,90.73-27.3,3.51-4.42,5.68-8.37,5.78-11.43C584.49,253.31,577.77,253.11,566.6,256.34Z"/><path class="cls-2" d="M507.9,298.24h0A72.36,72.36,0,0,1,489.72,296a11.28,11.28,0,0,1-8.3-7.84c-3.14-10,3.71-25.37,11.74-34.76a1.1,1.1,0,0,1,1.22-.31,6.82,6.82,0,0,1,.82.34c19,9.33,43.1,10,71.1,1.86,11.34-3.28,18.68-3.19,21.1.3a1.11,1.11,0,0,1,.19.66c-.1,3.16-2.07,7.1-6,12.07C575.84,275.52,542.76,298.24,507.9,298.24Zm-13.59-42.81c-8.52,10.29-13.25,24.24-10.79,32.06a9.06,9.06,0,0,0,6.75,6.38A70.35,70.35,0,0,0,507.89,296h0c34.12,0,66.38-22.08,72-29.1,3.42-4.3,5.27-7.79,5.52-10.38-2-2.18-8.86-1.95-18.47.83C538.41,265.61,513.81,265,494.31,255.43Z"/><path class="cls-1" d="M372.08,98.13s-29.16-6-47.72,6.62-11.92,22.51-7.28,23.18,20.53,6,23.19,21.86C352.84,131.23,372.08,98.13,372.08,98.13Z"/><path class="cls-2" d="M340.27,150.89l-.24,0a1.09,1.09,0,0,1-.84-.89c-2.49-14.89-17.28-20.25-22.26-21a7.61,7.61,0,0,1-5.81-5.94c-.79-3.44-.21-10.52,12.63-19.23,10-6.8,23-8.22,32.2-8.22a89.43,89.43,0,0,1,16.35,1.43,1.09,1.09,0,0,1,.78.63,1.07,1.07,0,0,1-.05,1c-.19.33-19.4,33.35-31.85,51.73A1.12,1.12,0,0,1,340.27,150.89ZM356,97.81c-8.85,0-21.41,1.36-31,7.84-12.19,8.28-12.26,14.59-11.72,16.93a5.44,5.44,0,0,0,4,4.26c5.1.72,19.69,6,23.55,20.21,10.9-16.38,25.95-42,29.55-48.12A94,94,0,0,0,356,97.81Z"/><path class="cls-1" d="M524.22,244s41.7,4,25.82-41.71c13.92-28.81,23.87-72-5-109.29S436.81,42.32,383.65,84.54s-64.35,109.72-39.4,164.6c25.49,56.11,64.9,106,74.67,146.87-21.37,4.46-50.12,17.91-61.27,39.38-11.25,21.7,5.71,18.79,16.23,13.6,13.75-6.8,51.16.67,64.9-20.7,14.56,19.38,37.76,16.06,52.33,17.4S517.6,456.94,513,438.4,475.56,401,446.38,397c-9.92-41.06,6-70.87,23.21-93.39S510.82,257.41,524.22,244Z"/><path class="cls-2" d="M360.67,453.79c-4.12,0-6-1.67-6.86-3.08-1.94-3.19-1-8.36,2.87-15.82,10.69-20.6,38.08-34.69,60.91-39.71C411.73,371.82,396,345,379.46,316.71c-12.54-21.42-25.51-43.56-36.21-67.11-26.84-59-10.88-125.72,39.72-165.92,21.41-17,49.21-26.36,78.28-26.36,35,0,68.25,13.73,84.69,35,31.14,40.23,16.79,86,5.28,110,4.89,14.28,4.69,25.28-.59,32.7-6.5,9.14-18.93,10.13-24,10.13-.89,0-1.58,0-2-.06l-2,2c-13.46,13.45-36,36-52.19,57.17-16,20.86-33,50.1-23.18,91.74,27.76,4,61.77,22.15,66.75,42.12,1.41,5.65,1.39,9,0,10.85a4.69,4.69,0,0,1-4,1.63h0a34.23,34.23,0,0,1-7.88-1.55A65.25,65.25,0,0,0,491,446.79c-2.55-.24-5.38-.33-8.39-.43-14.08-.45-31.52-1-43.78-16.21-9.61,13.28-28.68,14.9-44.1,16.22-8.13.69-15.81,1.35-20.37,3.6C369.52,452.37,364.39,453.79,360.67,453.79ZM461.25,59.51c-28.58,0-55.89,9.19-76.92,25.89-49.79,39.56-65.5,105.18-39.08,163.29,10.65,23.45,23.59,45.54,36.1,66.91,16.93,28.92,32.92,56.23,38.64,80.16a1.09,1.09,0,0,1-.84,1.32c-22.54,4.7-50,18.53-60.53,38.82-4.28,8.25-3.95,12-2.93,13.67.82,1.35,2.49,2,5,2,3.4,0,8.17-1.34,12.73-3.59,4.93-2.44,12.45-3.08,21.15-3.83,16.22-1.38,34.61-2.95,43.31-16.48a1.09,1.09,0,0,1,.88-.51,1.11,1.11,0,0,1,.92.44c11.66,15.53,29.06,16.09,43,16.54,3,.1,5.9.19,8.51.43A67.59,67.59,0,0,1,502.69,447a33.27,33.27,0,0,0,7.31,1.48h0c1.46,0,2-.45,2.25-.79,1-1.22.83-4.24-.35-9-4.27-17.13-35.57-36.48-65.66-40.59a1.1,1.1,0,0,1-.92-.83c-10.38-42.92,7.05-72.94,23.39-94.3s38.89-43.9,52.39-57.39l2.34-2.34a1.18,1.18,0,0,1,.88-.32s.91.08,2.34.08c4.7,0,16.27-.89,22.18-9.2,4.9-6.89,4.95-17.36.17-31.14a1.11,1.11,0,0,1,0-.84c11.32-23.42,25.75-68.61-4.84-108.14C528.16,72.91,495.6,59.51,461.25,59.51Z"/><path class="cls-1" d="M469.59,303.61c-8.09,10.56-15.87,22.7-20.84,36.88-1.54,4.42-5.51,19.53-14.46,20.57-11.23,1.33-46.34-62.93-50.1-87.25-14.78-16.07-1.05-28.65,10.38-32.63-.89-9,4.64-21.84,29.14-16.56-23.19-15.22,4.77-30.63,18.55-31.29,7.95,2,27.81,1.5,33.79-3.48,3.95,13.91,27.33,18.39,31.78,10,0,0,6.45,10.43,15.39,11.9s33.79,29.82,1,32.29C510.82,257.41,486.8,281.09,469.59,303.61Z"/><path class="cls-2" d="M433.94,362.17c-13.23,0-47-65-50.78-87.87-5.5-6.07-7.54-12.15-6.05-18.07,2-7.87,9.83-13.33,16.3-15.79a16.9,16.9,0,0,1,4.08-12.35c4.44-4.9,11.84-6.74,21.91-5.35-5.83-5.12-6.19-9.89-5.29-13.2,2.65-9.72,18.67-16.86,28.1-17.31a1.12,1.12,0,0,1,.32,0,50.94,50.94,0,0,0,11.41,1.06c9.86,0,18.26-1.69,21.41-4.31a1.11,1.11,0,0,1,1.76.54c2.38,8.4,12.56,13.42,21,13.42,4.31,0,7.49-1.34,8.72-3.68a1.11,1.11,0,0,1,.93-.59,1.18,1.18,0,0,1,1,.52c.07.1,6.3,10,14.64,11.4,6.06,1,18.81,13.19,18.35,23-.21,4.58-3.35,10.25-17,11.39l-2.06,2.05c-13.46,13.45-36,36-52.19,57.17-9.87,12.88-16.44,24.5-20.68,36.58-.15.42-.32,1-.52,1.57-2,6.07-6.08,18.7-14.84,19.72ZM413.28,224.49c-6.35,0-11.11,1.7-14.17,5.07a14.9,14.9,0,0,0-3.45,11.52,1.1,1.1,0,0,1-.73,1.14c-6.09,2.12-13.85,7.2-15.69,14.55-1.32,5.23.62,10.71,5.76,16.29a1.19,1.19,0,0,1,.27.58c3.87,25,38.43,86.34,48.67,86.34h.23c7.36-.86,11.31-13,13-18.22l.54-1.62c4.32-12.3,11-24.12,21-37.18,16.3-21.32,38.89-43.9,52.39-57.39l2.34-2.34a1.11,1.11,0,0,1,.7-.32c6.86-.52,15.11-2.56,15.42-9.33.4-8.52-11.35-19.92-16.52-20.79-7.43-1.22-13.09-8.09-15.23-11.05-1.95,2.2-5.37,3.43-9.67,3.43-8.8,0-19.32-5-22.66-13.57-4.81,2.87-14,3.92-21.54,3.92a54.42,54.42,0,0,1-11.78-1.08c-8.91.5-23.63,7.25-25.94,15.69-1.27,4.66,1.45,9.23,8.09,13.58a1.1,1.1,0,0,1-.83,2A49.07,49.07,0,0,0,413.28,224.49Z"/><path class="cls-1" d="M510.82,200.05a16.71,16.71,0,0,0-5,14.15c1.24,8.69-8.93,11.92-18.38,5.21s-13.4-15.15-11.41-29.56C484.23,193.33,496.16,199.05,510.82,200.05Z"/><path class="cls-2" d="M497.59,224.1a19.1,19.1,0,0,1-10.77-3.8C476.55,213,473,203.86,475,189.7a1.06,1.06,0,0,1,.54-.8,1.11,1.11,0,0,1,1-.06l2.48,1.07c8,3.44,18.88,8.16,31.93,9.05a1.1,1.1,0,0,1,.65,1.92,15.72,15.72,0,0,0-4.62,13.17,8.49,8.49,0,0,1-1.81,7A9.68,9.68,0,0,1,497.59,224.1ZM477,191.44c-1.44,12.57,1.84,20.48,11.13,27.07a16.9,16.9,0,0,0,9.5,3.4,7.61,7.61,0,0,0,5.87-2.29,6.38,6.38,0,0,0,1.29-5.26A17.45,17.45,0,0,1,508.5,201c-12.43-1.26-22.75-5.73-30.41-9Z"/><path class="cls-1" d="M489.43,209.81c-4.35-2.6-8.72-3.28-12.05-2.5,1.92,4.85,5.29,8.71,10.08,12.1s10,4.28,13.61,3C498.85,217.07,495,213.1,489.43,209.81Z"/><path class="cls-2" d="M497.56,224.09h0a19,19,0,0,1-10.74-3.79c-5.12-3.63-8.54-7.75-10.46-12.58a1.1,1.1,0,0,1,.05-.92,1.08,1.08,0,0,1,.72-.56c3.83-.9,8.56.06,12.87,2.63,6,3.59,9.86,7.76,12.08,13.14a1.1,1.1,0,0,1,0,.87,1.16,1.16,0,0,1-.64.59A11.81,11.81,0,0,1,497.56,224.09Zm-18.62-15.93a26.32,26.32,0,0,0,9.15,10.35,16.82,16.82,0,0,0,9.47,3.39h0a10.66,10.66,0,0,0,2-.19c-2.1-4.38-5.52-7.89-10.68-11A16.57,16.57,0,0,0,478.94,208.16Z"/><path class="cls-2" d="M493.87,240.35c-7.78,0-16.75-3.14-26.66-9.34a1.1,1.1,0,0,1,1.16-1.86c14.05,8.78,26.06,11.24,35,6.93,5.3-2.58,8-7.14,8.38-10.52a13.11,13.11,0,0,0-6.43-12.89l1.05-1.93a15.36,15.36,0,0,1,7.56,15c-.41,4-3.54,9.31-9.6,12.27A24,24,0,0,1,493.87,240.35Z"/><path class="cls-2" d="M440.34,227.79h0c-30.28-.7-47.73-15.64-50.44-26-3.71-14.25,9.87-25.95,12.63-28.15a1.11,1.11,0,0,1,1.55.17,1.1,1.1,0,0,1-.18,1.54c-2.57,2.06-15.25,13-11.88,25.88,2.47,9.45,19.55,23.73,48.37,24.39a1.1,1.1,0,0,1,0,2.2Z"/><path class="cls-1" d="M469.55,175.59a92,92,0,0,0-44.13-6.45c-6.88-15.91-3.23-47,16.56-49.85C462.83,116.33,473.87,153.78,469.55,175.59Z"/><path class="cls-2" d="M469.55,176.69a1,1,0,0,1-.45-.1,92,92,0,0,0-34.58-6.86,80.54,80.54,0,0,0-9,.5,1.13,1.13,0,0,1-1.13-.66c-4.39-10.15-4.9-27.86,1.85-39.92,3.67-6.56,9.06-10.52,15.57-11.45s12.69,1.88,17.75,8c9.27,11.28,14.22,33.52,11.05,49.57a1.1,1.1,0,0,1-.58.76A1.08,1.08,0,0,1,469.55,176.69Zm-35-9.15a94.53,94.53,0,0,1,34.2,6.5c2.55-15.36-2.18-35.87-10.84-46.41-4.62-5.62-9.94-8.08-15.74-7.26s-10.59,4.32-14,10.35c-6.25,11.18-5.94,27.47-2.05,37.24A83.18,83.18,0,0,1,434.52,167.54Z"/><path class="cls-2" d="M436.69,126c8.4-.69,16.05,8.79,17.1,21.21.84,10-2.88,18.81-8.73,22.23a93,93,0,0,0-12.28-.75c-4.95-3.45-8.7-10.52-9.42-18.94C422.34,137.3,428.29,126.68,436.69,126Z"/><path class="cls-1" d="M425.35,141.75c.35,4.29,3,7.56,5.89,7.32s5-3.93,4.59-8.19-3-7.57-5.89-7.31S425,137.47,425.35,141.75Z"/><path class="cls-1" d="M445.89,161.72c.15,1.71,1.18,3,2.35,2.93s2-1.57,1.83-3.28-1.2-3-2.36-2.92S445.74,160,445.89,161.72Z"/><path class="cls-1" d="M429.72,100.19a17.68,17.68,0,0,1,14.6-5.51c5.31.39,10.38,2.77,12.55,5.94Z"/><path class="cls-2" d="M456.87,101.72a1.1,1.1,0,0,1-.91-.48c-1.95-2.86-6.77-5.1-11.72-5.46a16.56,16.56,0,0,0-13.72,5.16,1.1,1.1,0,1,1-1.61-1.49,18.75,18.75,0,0,1,15.49-5.86c5.66.41,11,3,13.37,6.41a1.09,1.09,0,0,1-.9,1.72Z"/><path class="cls-1" d="M542.32,197.16a73.49,73.49,0,0,0-32-15.67c-1.37-13.76,9-36.53,24.75-33.85C551.66,150.46,550.93,181.62,542.32,197.16Z"/><path class="cls-2" d="M542.32,198.26a1.06,1.06,0,0,1-.74-.29,72.9,72.9,0,0,0-31.45-15.4,1.09,1.09,0,0,1-.87-1c-.93-9.32,3.12-21.29,9.63-28.47,4.76-5.26,10.53-7.57,16.39-6.58,4.77.82,8.58,3.93,11,9,5.65,11.77,3,31.3-3,42.15a1.13,1.13,0,0,1-.79.55Zm-31-17.67A74.78,74.78,0,0,1,542,195.43c5.3-10.56,7.48-28.2,2.32-38.94-2.14-4.46-5.3-7.07-9.39-7.77-5.13-.87-10.15,1.18-14.41,5.88C514.67,161.05,510.83,172.07,511.37,180.59Z"/><path class="cls-1" d="M502.47,180c25.59,1.48,43.34,19.55,43.5,19.74Z"/><path class="cls-2" d="M546,200.87a1.07,1.07,0,0,1-.86-.42c-.12-.12-17.62-17.87-42.71-19.32a1.1,1.1,0,0,1-1-1.16,1.07,1.07,0,0,1,1.16-1c26.2,1.51,44.16,20,44.3,20.16a1.1,1.1,0,0,1-.18,1.54A1.14,1.14,0,0,1,546,200.87Z"/><path class="cls-2" d="M529.35,151.65c6.57,1.52,10.07,10.6,7.85,20.29-1.8,7.79-6.76,13.61-12.06,14.77a73,73,0,0,0-9.13-3.55c-2.94-3.84-4.07-10.12-2.55-16.7C515.68,156.77,522.82,150.16,529.35,151.65Z"/><path class="cls-1" d="M516.2,161.08c-.77,3.34.45,6.47,2.71,7s4.7-1.75,5.48-5.1-.45-6.48-2.7-7S517,157.74,516.2,161.08Z"/><path class="cls-1" d="M527,180.48c-.3,1.34.18,2.59,1.08,2.8s1.87-.71,2.19-2.05-.18-2.58-1.08-2.8S527.33,179.14,527,180.48Z"/><path class="cls-1" d="M530.07,128.43A16.9,16.9,0,0,1,545.23,131c3.34,2.45,5.51,5.94,5.51,8.87Z"/><path class="cls-2" d="M550.74,140.94a1.1,1.1,0,0,1-1.1-1.1c0-2.55-2-5.76-5.06-8a15.81,15.81,0,0,0-14.19-2.37,1.1,1.1,0,0,1-.64-2.1,18,18,0,0,1,16.13,2.71c3.62,2.66,6,6.49,6,9.75A1.09,1.09,0,0,1,550.74,140.94Z"/><path class="cls-1" d="M507.34,176.94s17.38-4.47,22.82,7.45-9.42,27.31-54.11,5.46c-9.94,8-33.3,8-47.7-3.46Z"/><path class="cls-2" d="M513.47,201.92c-8.21,0-20.18-2.5-37.29-10.78-10.38,7.64-33.92,7.68-48.51-3.89a1.1,1.1,0,1,1,1.37-1.72c14.09,11.18,36.87,11,46.33,3.47a1.07,1.07,0,0,1,1.16-.13c35.65,17.43,48,9.48,50.87,6.64a9.07,9.07,0,0,0,1.76-10.66c-5-11-21.38-6.89-21.55-6.84a1.1,1.1,0,0,1-.54-2.13c.18,0,18.34-4.56,24.08,8.06a11.17,11.17,0,0,1-2.22,13.14C527.25,198.72,522.76,201.92,513.47,201.92Z"/><path class="cls-1" d="M415.48,170.55c31.06-8,59.09,6.74,59.38,6.89Z"/><path class="cls-2" d="M474.85,178.53a1,1,0,0,1-.47-.11c-3-1.52-29.31-14.38-58.63-6.81a1.09,1.09,0,0,1-1.33-.79,1.1,1.1,0,0,1,.79-1.34c30.11-7.77,57.14,5.43,60.12,7a1.12,1.12,0,0,1,.5,1.48A1.1,1.1,0,0,1,474.85,178.53Z"/><path class="cls-1" d="M523.22,211.7a19,19,0,0,0,10.17-2Z"/><path class="cls-2" d="M524.73,212.88a7.17,7.17,0,0,1-2-.19,1.1,1.1,0,0,1,.69-2.07,18.23,18.23,0,0,0,9.44-1.88,1.1,1.1,0,1,1,1,1.94A20.37,20.37,0,0,1,524.73,212.88Z"/><path class="cls-1" d="M385.85,220.82c-11.05-7.32-27.94-3.9-58.28-22.08-17.67-10.61-21.2-3.25-18.1,10.95,2.18,10.1,28.54,55.91,69.3,64.59C397.32,278.21,398.53,229.22,385.85,220.82Z"/><path class="cls-2" d="M380.83,275.6h0a11.43,11.43,0,0,1-2.29-.24c-42.72-9.1-68.2-56.46-70.15-65.44-1.61-7.41-1.33-12.33.85-15,3-3.77,9.21-2.9,18.89,2.92,18.21,10.9,31.77,14,41.67,16.31,6.77,1.56,12.13,2.79,16.66,5.8,8.84,5.85,11.1,28.49,6.76,42.92C390.74,271.07,386.34,275.6,380.83,275.6Zm-66.37-80.8a4.2,4.2,0,0,0-3.51,1.46c-1.18,1.46-2.21,4.94-.41,13.19,2.28,10.58,28.91,55.34,68.46,63.76a9,9,0,0,0,1.83.2h0c6,0,9-7,10.29-11.22,4-13.31,1.88-35.32-5.87-40.46-4.2-2.78-9.39-4-15.95-5.48-10-2.32-23.79-5.49-42.3-16.57C321.62,196.44,317.4,194.8,314.46,194.8Z"/><path class="cls-1" d="M327.13,205.8c27.29,24.86,49.89,30,65.34,30a6.23,6.23,0,0,1,.77,0c4.56,17.81.1,41.4-14.47,38.4-40.81-8.45-67.12-54.49-69.3-64.59-1.21-5.53-1.4-10-.14-12.81C312.41,195.19,318.53,198,327.13,205.8Z"/><path class="cls-2" d="M381.22,275.64a13.85,13.85,0,0,1-2.67-.28c-42.67-8.84-68.2-56.4-70.16-65.44-1.34-6.18-1.37-10.6-.06-13.49a1.08,1.08,0,0,1,.47-.52c3.73-2,10.27,1.07,19.07,9.08,21.66,19.73,43.39,29.74,64.6,29.74a6.52,6.52,0,0,1,.91.06,1.09,1.09,0,0,1,.92.82c3.38,13.2,1.78,28-3.8,35.19A11.54,11.54,0,0,1,381.22,275.64Zm-71-77.95c-.93,2.46-.81,6.41.36,11.76,2.3,10.65,29,55.58,68.45,63.76a9.29,9.29,0,0,0,9.78-3.76c5-6.45,6.52-20.31,3.6-32.53-21.74,0-43.94-10.23-66-30.31-8.7-7.93-13.15-9.11-15-9.11A3.34,3.34,0,0,0,310.18,197.69Z"/><path class="cls-1" d="M327.13,205.8c27.29,24.86,49.89,30,65.34,30a6.23,6.23,0,0,1,.77,0c4.56,17.81.1,41.4-14.47,38.4-40.81-8.45-67.12-54.49-69.3-64.59-1.21-5.53-1.4-10-.14-12.81C312.41,195.19,318.53,198,327.13,205.8Z"/><path class="cls-2" d="M381.22,275.64a13.85,13.85,0,0,1-2.67-.28c-42.67-8.84-68.2-56.4-70.16-65.44-1.34-6.18-1.37-10.6-.06-13.49a1.08,1.08,0,0,1,.47-.52c3.73-2,10.27,1.07,19.07,9.08,21.66,19.73,43.39,29.74,64.6,29.74a6.52,6.52,0,0,1,.91.06,1.09,1.09,0,0,1,.92.82c3.38,13.2,1.78,28-3.8,35.19A11.54,11.54,0,0,1,381.22,275.64Zm-71-77.95c-.93,2.46-.81,6.41.36,11.76,2.3,10.65,29,55.58,68.45,63.76a9.29,9.29,0,0,0,9.78-3.76c5-6.45,6.52-20.31,3.6-32.53-21.74,0-43.94-10.23-66-30.31-8.7-7.93-13.15-9.11-15-9.11A3.34,3.34,0,0,0,310.18,197.69Z"/></svg>