<svg id="Layer_1" data-name="Layer 1" xmlns="http://www.w3.org/2000/svg" viewBox="0 0 895 511.11"><defs><style>.cls-1{fill:#fff;}.cls-2,.cls-3{fill:none;stroke:#000;stroke-miterlimit:10;}.cls-2{stroke-width:5px;}.cls-3{stroke-width:3px;}</style></defs><path class="cls-1" d="M447.39,241.3h-.54a8.07,8.07,0,0,1-7.52-8.57c0-.64,3.6-64.27-39.56-87.57a8.07,8.07,0,0,1,7.67-14.2c52.33,28.26,48.18,99.8,48,102.83A8.05,8.05,0,0,1,447.39,241.3Z"/><path class="cls-2" d="M447.39,241.3h-.54a8.07,8.07,0,0,1-7.52-8.57c0-.64,3.6-64.27-39.56-87.57a8.07,8.07,0,0,1,7.67-14.2c52.33,28.26,48.18,99.8,48,102.83A8.05,8.05,0,0,1,447.39,241.3Z"/><path class="cls-1" d="M522.13,178.13c-11.15,1.59-22,5.29-32.72,9a131.85,131.85,0,0,1-71.62,4.23c-36.18-7.64-67.61-19.55-97.24,11.59-15.46,16.24-23.61,38.33-26.73,60.53-9.59,68.18,13,149,76.59,184.64,13.23,7.42,29.37,9.7,44,5.36,13.14-3.89,27.4-17.89,42-13,7.53,2.52,13.89,8.66,21.76,11.27A65.78,65.78,0,0,0,504,454.9c67.32-5.26,95.2-105.81,98.71-159.91a242.73,242.73,0,0,0-.16-34.85c-3.07-38.73-27.58-84.29-72-82.77A81.78,81.78,0,0,0,522.13,178.13Z"/><g id="Layer_2" data-name="Layer 2"><path class="cls-1" d="M548.88,55.49h0c-71.48,6.13-116.86,67-101.35,136h0C519,185.33,564.39,124.45,548.88,55.49Z"/><path class="cls-2" d="M548.88,55.49h0c-71.48,6.13-116.86,67-101.35,136h0C519,185.33,564.39,124.45,548.88,55.49Z"/><path class="cls-1" d="M548.26,58.72,447.53,191.46C519,185.33,563.76,127.69,548.26,58.72Z"/><path class="cls-2" d="M548.26,58.72,447.53,191.46C519,185.33,563.76,127.69,548.26,58.72Z"/><path class="cls-1" d="M484.11,145.07a2.68,2.68,0,0,1-2.57-1.9l-6.39-21a2.69,2.69,0,1,1,5.15-1.57h0l5.78,19.07,19.68-.66h.09a2.69,2.69,0,0,1,.09,5.38l-21.73.72Z"/><path class="cls-1" d="M504.75,117.39a2.7,2.7,0,0,1-2.58-1.9l-6.39-21a2.69,2.69,0,0,1,5.15-1.57L506.71,112l19.68-.66h.09a2.69,2.69,0,1,1,.09,5.38h0l-21.73.72Z"/><path class="cls-1" d="M463.48,172.75a2.68,2.68,0,0,1-2.57-1.9l-6.39-21a2.69,2.69,0,1,1,5.07-1.8,1.55,1.55,0,0,1,.07.23l5.79,19.07,19.67-.66h.1a2.69,2.69,0,1,1,.09,5.38h0l-21.74.72Z"/><path class="cls-3" d="M484.11,145.07a2.68,2.68,0,0,1-2.57-1.9l-6.39-21a2.69,2.69,0,1,1,5.15-1.57h0l5.78,19.07,19.68-.66h.09a2.69,2.69,0,0,1,.09,5.38l-21.73.72Z"/><path class="cls-3" d="M504.75,117.39a2.7,2.7,0,0,1-2.58-1.9l-6.39-21a2.69,2.69,0,0,1,5.15-1.57L506.71,112l19.68-.66h.09a2.69,2.69,0,1,1,.09,5.38h0l-21.73.72Z"/><path class="cls-3" d="M463.48,172.75a2.68,2.68,0,0,1-2.57-1.9l-6.39-21a2.69,2.69,0,1,1,5.07-1.8,1.55,1.55,0,0,1,.07.23l5.79,19.07,19.67-.66h.1a2.69,2.69,0,1,1,.09,5.38h0l-21.74.72Z"/><path class="cls-2" d="M522.13,178.13c-11.15,1.59-22,5.29-32.72,9a131.85,131.85,0,0,1-71.62,4.23c-36.18-7.64-67.61-19.55-97.24,11.59-15.46,16.24-23.61,38.33-26.73,60.53-9.59,68.18,13,149,76.59,184.64,13.23,7.42,29.37,9.7,44,5.36,13.14-3.89,27.4-17.89,42-13,7.53,2.52,13.89,8.66,21.76,11.27A65.78,65.78,0,0,0,504,454.9c67.32-5.26,95.2-105.81,98.71-159.91a242.73,242.73,0,0,0-.16-34.85c-3.07-38.73-27.58-84.29-72-82.77A81.78,81.78,0,0,0,522.13,178.13Z"/></g></svg>