<svg id="ab187b34-cf62-4081-b3b7-d693f869e877" data-name="Layer 1" xmlns="http://www.w3.org/2000/svg" viewBox="0 0 322 57"><path d="M315.14,49c-4.75-3.52-18.24-13.61-18.24-13.61a2.76,2.76,0,0,1,0-4.39s18.81-13,20.44-14.71a4,4,0,0,0,1-1.53l3.27-6.41-5.82.29s-1.14,1.22-1.75,1.94C310.37,10.36,241.44,7,160,7h0C102.56,7,51.34,8.65,24.86,9.72c-5.37-1.36-10.4-2.58-10.4-2.58H.08L1.6,14.4h0a3.68,3.68,0,0,0,1.06,1.86c1.47,1.52,17,12.32,20,14.37L.05,47.07l1.41,6.21c0,2,2,3.68,4.37,3.68,0,0,70.48-3.59,154.17-3.59S314.17,57,314.17,57a4.36,4.36,0,0,0,4.08-2.44l3.12-5.64Z" style="fill:#3f1a0b"/><path d="M319.91,43.72C317.55,42,300,28.87,300,28.87a2.81,2.81,0,0,1,0-4.46s19.09-13.22,20.75-14.93,1-3.1,1-3.1a4.39,4.39,0,0,0-4.23-2.69S246,0,161,0h0C76,0,4.48,3.69,4.48,3.69A4.39,4.39,0,0,0,.25,6.38s-.65,1.38,1,3.1S22,24.41,22,24.41a2.81,2.81,0,0,1,0,4.46S4.45,42,2.09,43.72s-2,3.35-2,3.35c0,2.06,2,3.73,4.43,3.73,0,0,71.56-3.65,156.52-3.65S317.52,50.8,317.52,50.8c2.44,0,4.41-1.67,4.43-3.73C322,47.07,322.28,45.43,319.91,43.72Z" style="fill:#542a0e"/></svg>