<svg id="a545671e-b6d4-44d4-8f94-81857cebaf77" data-name="Layer 2" xmlns="http://www.w3.org/2000/svg" xmlns:xlink="http://www.w3.org/1999/xlink" viewBox="0 0 84 86"><defs><linearGradient id="ae4b8812-4a20-4aad-af92-fb75ab64c535" x1="29.05" y1="19.68" x2="29.05" y2="67.44" gradientTransform="translate(3.11)" gradientUnits="userSpaceOnUse"><stop offset="0" stop-color="#ffd79d"/><stop offset="1" stop-color="#ffb454"/></linearGradient><linearGradient id="f1ab8d9b-14a5-4183-bde2-b28abdf253a9" x1="40.9" y1="7.73" x2="40.03" y2="71.47" gradientTransform="translate(3.11)" gradientUnits="userSpaceOnUse"><stop offset="0" stop-color="#ffb8b3"/><stop offset="0.58" stop-color="#ff9a92"/><stop offset="1" stop-color="#f67f73"/></linearGradient><linearGradient id="eb6901c8-2666-4b8a-8598-b50d74984993" x1="42.65" y1="4.49" x2="55.1" y2="69.45" gradientTransform="translate(3.11)" gradientUnits="userSpaceOnUse"><stop offset="0" stop-color="#f9e6c6"/><stop offset="0.5" stop-color="#e8bc8b"/><stop offset="1" stop-color="#f0b563"/></linearGradient><linearGradient id="a858406d-0c7d-4bd7-809d-e65ef0353264" x1="50.48" y1="19.68" x2="50.48" y2="67.44" xlink:href="#ae4b8812-4a20-4aad-af92-fb75ab64c535"/></defs><polygon points="0.34 47.59 83.92 46.3 70.51 73.9 11.69 66.67 0.34 47.59" style="fill:#db9092"/><path d="M33.76,10c-15.47-.33-25.42,15.51-27,29.61-2,18.3,11.54,38.93,26.3,38.51,14.56-.42,26.4-21.21,24.44-38.9C56.14,26.75,47.37,10.31,33.76,10Z" style="fill:url(#ae4b8812-4a20-4aad-af92-fb75ab64c535)"/><path d="M38.51,14.18c-1.58.79-18.41,4.5-21.1,27.91C15.47,58.93,27.66,78,40.48,77.79c11.42-.18,21.67-15.6,22.11-29.59S53.56,20.43,38.51,14.18Z" style="fill:#b36016;opacity:0.30000000000000004"/><path d="M45.39,9c-15.56,1.07-25,17.47-25.84,33.94-.87,17.72,10.78,38.2,24,38.19S68,60.27,67.5,42.68C67.05,27.83,60.25,8,45.39,9Z" style="fill:url(#f1ab8d9b-14a5-4183-bde2-b28abdf253a9)"/><path d="M43.93,13.62c-19.75,7-17.07,35.51-20.83,36.27-1.35.27-2.91-2.93-3.59-4.52.14,10.27,4.23,21.08,10.2,28.09L53,77.51a30.54,30.54,0,0,0,6.65-7.4C60.11,51.28,59.42,8.13,43.93,13.62Z" style="fill:#f65a4a;opacity:0.5"/><path d="M50.36,10.45C36.79,12,29.1,30.26,28.51,43.52,27.8,59.71,37.2,79.07,50,80.47,64.38,82,80.63,60.62,78.51,40.79,76.89,25.6,64.21,8.89,50.36,10.45Z" style="fill:url(#eb6901c8-2666-4b8a-8598-b50d74984993)"/><path d="M50.36,10.45C36.79,12,29.1,30.26,28.51,43.52,27.8,59.71,37.2,79.07,50,80.47,64.38,82,80.63,60.62,78.51,40.79,76.89,25.6,64.21,8.89,50.36,10.45Z" style="fill:url(#a858406d-0c7d-4bd7-809d-e65ef0353264)"/><path d="M78.47,40.79c-1-9.41-6.25-19.39-13.39-25.26-12.52-.24-24,9.72-24.27,28.71C40.64,57.68,46.06,70,58,79.12,69.74,74.14,80.2,56.94,78.47,40.79Z" style="fill:#d69a58;opacity:0.2"/><path d="M70.85,49.74c-1.94.39-5.19,6.48-5.19,6.48s-4.53-4.28-6.74-3.76S51.4,58,51.4,58,46.34,52.33,43.88,53s-7.52,5.71-7.52,5.71-4.93-6.1-7.13-6S21.32,57,21.32,57s-4.41-6.48-6.49-6.35c-1.28.08-4.47,2-6.7,3.37C10.4,61.92,15,69.1,20.59,73.53l45.33.29A42.71,42.71,0,0,0,77.26,54.58C76.23,52,72.65,49.38,70.85,49.74Z" style="fill:#e25947;opacity:0.30000000000000004"/><path d="M71.85,44a1.82,1.82,0,0,0-1.22.51,1.73,1.73,0,0,0,1.22,3,1.78,1.78,0,0,0,1.23-.51,1.74,1.74,0,0,0,.5-1.22A1.76,1.76,0,0,0,71.85,44Z" style="fill:#eaa25d"/><path d="M75.25,40a.82.82,0,0,0-.7-.61.86.86,0,0,0-1,.84.87.87,0,0,0,.85.85A.85.85,0,0,0,75.25,40Z" style="fill:#eaa25d"/><path d="M71.08,36a.93.93,0,1,0,0,1.85.93.93,0,0,0,0-1.85Z" style="fill:#eaa25d"/><path d="M61.63,47.52a.75.75,0,0,0-.73.73.73.73,0,1,0,.73-.73Z" style="fill:#eaa25d"/><path d="M58.07,46.27a.87.87,0,1,0,.87.87A.88.88,0,0,0,58.07,46.27Z" style="fill:#eaa25d"/><path d="M61.38,42.75a1.26,1.26,0,0,0-.86.36,1.19,1.19,0,0,0-.35.86,1.23,1.23,0,0,0,1.21,1.21,1.26,1.26,0,0,0,.86-.36,1.19,1.19,0,0,0,.35-.85A1.24,1.24,0,0,0,61.38,42.75Z" style="fill:#eaa25d"/><path d="M60.47,18.83a.83.83,0,1,0,1.16.19A.85.85,0,0,0,60.47,18.83Z" style="fill:#eaa25d"/><path d="M59,21.45a1.31,1.31,0,0,0-.83-.07c-1.76.41-1.16,3.33.66,2.9a1.25,1.25,0,0,0,.84-.61A1.6,1.6,0,0,0,59,21.45Z" style="fill:#eaa25d"/><path d="M62.19,22.61a.64.64,0,0,0,.75,1,.65.65,0,0,0,.15-.9A.66.66,0,0,0,62.19,22.61Z" style="fill:#eaa25d"/><path d="M83.92,46.3c-.77-1-8.1,10.56-8.1,10.56S73,51.58,71,52.19s-5.68,7.71-5.68,7.71S61,54.83,58.58,55s-7.31,6.9-7.31,6.9-4.64-6.28-7.3-6.09c-2.84.2-7.5,6.49-7.5,6.49s-4.67-6.69-6.7-6.69c-3.05,0-7.5,5.27-7.5,5.27S17.2,53,15.17,53c-2.67,0-5.89,4.06-5.89,4.06S1.1,46.57.08,47.59s14,34.12,14,34.12l54.06.17S85,47.59,83.92,46.3Z" style="fill:#ffe8a4"/><path d="M48,58.14c-1.34-1.28-2.84-2.38-4-2.3-2.84.2-7.5,6.49-7.5,6.49s-4.67-6.69-6.7-6.69c-3.05,0-7.5,5.27-7.5,5.27S17.2,53,15.17,53c-2.67,0-5.89,4.06-5.89,4.06s4.9-3.39,5.91-3.22S22.43,62,22.43,62s5.73-5.56,7.33-5.39,6.91,7.16,6.91,7.16,5.14-7.24,7.24-7.33C45,56.41,46.67,57.3,48,58.14Z" style="fill:#fff5ff"/><path d="M54.41,10.52a16.28,16.28,0,0,0-1.7-.16A14.43,14.43,0,0,0,45.35,9a22.28,22.28,0,0,0-7.22,1.73A16.39,16.39,0,0,0,33.72,10c-8.94-.19-16,5-20.74,12.19a32.2,32.2,0,0,0,10.91,3.38C37,27.22,49.11,20.82,54.41,10.52Z" style="fill:#f9e6c6;opacity:0.30000000000000004"/></svg>