<svg xmlns="http://www.w3.org/2000/svg" xmlns:xlink="http://www.w3.org/1999/xlink" viewBox="0 0 1920 900"><defs><clipPath id="ab33e112-b229-440d-8037-ccf0ec1fcfdb"><rect x="0.89" y="-1135.06" width="1919.11" height="899.83" style="fill:none"/></clipPath><clipPath id="ba1480e6-524b-4853-98fd-e6b1dfc2f164"><rect x="2385.88" y="-1135.06" width="1920" height="900" style="fill:none"/></clipPath><clipPath id="a20c1299-4851-4e22-a8fe-d1f761c7d28b"><rect x="2386.77" y="-1135.06" width="1919.11" height="899.83" style="fill:none"/></clipPath><clipPath id="ad7d856f-ae00-492e-965c-816bf6ff1b52"><rect width="1920" height="900" style="fill:none"/></clipPath><clipPath id="bfc22733-fce1-4fbb-85c7-27a6ad6e8e93"><rect x="0.89" width="1919.11" height="899.83" style="fill:none"/></clipPath></defs><g id="b97e2b74-3ef5-485a-a083-294aab0c27b7" data-name="Layer 16"><g style="clip-path:url(#ab33e112-b229-440d-8037-ccf0ec1fcfdb)"><ellipse cx="90.73" cy="101.16" rx="573.22" ry="1392.9" transform="matrix(0.15, -0.99, 0.99, 0.15, -23.25, 175.16)" style="fill:#2a818a"/></g></g><g id="ff02f3ad-7385-4a86-a94c-58927da9dbdb" data-name="Layer 15"><g style="clip-path:url(#ba1480e6-524b-4853-98fd-e6b1dfc2f164)"><g style="clip-path:url(#a20c1299-4851-4e22-a8fe-d1f761c7d28b)"><ellipse cx="2476.62" cy="101.16" rx="573.22" ry="1392.9" transform="matrix(0.15, -0.99, 0.99, 0.15, 1993.61, 2532.33)" style="fill:#2a818a"/></g></g></g><g id="ac076ec4-1981-4124-a503-20b9e30923b6" data-name="Layer 19"><g style="clip-path:url(#ad7d856f-ae00-492e-965c-816bf6ff1b52)"><rect width="1919.11" height="899.83" style="fill:#6ce1f2"/><g style="opacity:0.5700000000000001"><path d="M1356.38,638.87h562.81V-39.44s-126-20.66-147.89,106.07c0,0-183.49-45.81-194.45,148.64,0,0-56.14,1.37-60.25,52,0,0-63-47.92-128.72,8.22,0,0-50.67,31.5-31.5,109.55Z" style="fill:#fdfffe;opacity:0.52"/><path d="M1920,238.33s-39.56-25.88-75.79,0c0,0-174.29-94.9-207.07,91.46,0,0-15.53,0-17.26,12.08,0,0-117.34-65.57-157,63.84,0,0-139.78-81.1-229.51,75.07L1920,638.26V238.33" style="fill:#fdfffe"/></g><g style="opacity:0.61"><path d="M478.53,643.87V400.25c16.27-66.27-26.74-93-26.74-93-55.81-47.67-109.29-7-109.29-7-3.49-43-51.16-44.18-51.16-44.18C282,91,126.25,129.88,126.25,129.88,107.65,22.28.68,39.83.68,39.83v604Z" style="fill:#fdfffe;opacity:0.67"/><path d="M0,275.66s33.58-22,64.35,0c0,0,148-80.58,175.81,77.65,0,0,13.18,0,14.65,10.26,0,0,99.62-55.68,133.32,54.2,0,0,118.67-68.85,194.85,63.73L0,615.21V275.66" style="fill:#fdfffe"/></g><path d="M160.7,352.82S210.08,394.3,238,342c0,0,78.74,4.57,47.75-59.1,0,0,40.16-14.76,15.85-58.61,0,0-13.4-27.84-43-26.93,0,0,6.16-55.71-64.57-52,0,0,26.4-63.45-41.34-60.83,0,0-24.77-20-47.83,4.13,0,0-35.28-21.53-56.68,20.44,0,0-69.68-16.47-94.79,29.26s15.67,57.25,15.67,57.25-57.79,7.89-66.83,59.69c0,0,5.19,27.78,21.64,26.49,0,0-54.44,66.65,10.84,46.3,0,0-7.53,46,45.67,27.51,0,0-26.63,59.25,49.58,45.58,6.77-1.22,35.47-4.1,61.2-31.74,0,0,41.59,28.54,63.17,10.7Z" style="fill:#183f6a"/><path d="M113.66,370s.43,85.78-16.4,121.1l52.6.94,6.26-147.89Z" style="fill:#2f2922"/><g style="opacity:0.54"><path d="M12.17,224.7A2,2,0,0,1,10,226.37a2,2,0,0,1-2.18-1.65c0-.92,1-1.67,2.18-1.68S12.19,223.77,12.17,224.7Z" style="fill:#8adee0"/><path d="M3.18,305.39c.21,1.81-.32,3.4-1.2,3.51s-1.82-1.15-2.19-3,.13-3.42,1.15-3.57S3,303.57,3.18,305.39Z" style="fill:#8adee0"/><path d="M58.14,278.19c-.45,1.8-2.37,2.61-4.34,1.91a4,4,0,0,1-.69-.31,3.32,3.32,0,0,1-.47-.37,3.21,3.21,0,0,1-.67-1,3.49,3.49,0,0,1-.08-2.51,3.15,3.15,0,0,1,4-2.07A3.7,3.7,0,0,1,58.14,278.19Z" style="fill:#8adee0"/><path d="M23.84,265.77a1.65,1.65,0,1,1-3.28-.37,1.65,1.65,0,1,1,3.28.37Z" style="fill:#8adee0"/><path d="M72.38,233.41c.77,2.31,1.18,4.09.93,4s-.85-2-1.35-4.17c-.23-1-.44-1.9-.64-2.79-.1-.39-.19-.77-.29-1.17.13.42.25.8.37,1.21C71.72,231.41,72,232.37,72.38,233.41Z" style="fill:#8adee0"/><path d="M87.32,273.22c.88,2.35.47,3.91-.89,3.36s-2.93-2.89-3.54-5.12-.25-3.64.83-3.2S86.43,270.88,87.32,273.22Z" style="fill:#8adee0"/><path d="M90.28,304.14c.24.92-.36,1.5-1.33,1.28a3,3,0,0,1-2.12-2.11A1,1,0,0,1,88.16,302,3.28,3.28,0,0,1,90.28,304.14Z" style="fill:#8adee0"/><path d="M77.1,236.41a6.7,6.7,0,0,1,1.38,2c0,.17-.75-.53-1.53-1.55a11,11,0,0,1-1.37-2A7.37,7.37,0,0,1,77.1,236.41Z" style="fill:#8adee0"/><path d="M123.53,323.59a2.72,2.72,0,0,1-.23,2.73,5.82,5.82,0,0,1-2.87,2.42c-2.63,1.09-5.3.38-6-1.35s.6-3.66,3.08-4.62a8.21,8.21,0,0,1,3.61-.57A3.08,3.08,0,0,1,123.53,323.59Z" style="fill:#8adee0"/><path d="M123.63,229.94a3,3,0,1,1-2,5.55,3,3,0,1,1,2-5.55Z" style="fill:#8adee0"/><path d="M65.08,263.65c-.2,1.16-1,1.83-1.86,1.51a2.11,2.11,0,0,1-1-2.59c.3-1.12,1.13-1.81,1.86-1.54S65.27,262.49,65.08,263.65Z" style="fill:#8adee0"/><path d="M114,265.15a4,4,0,0,1,1.38,3c-.11,1-.84,1.13-1.64.39a4.44,4.44,0,0,1-1.34-3C112.39,264.62,113.1,264.44,114,265.15Z" style="fill:#8adee0"/><path d="M107.3,171.13c1.3,1.32.77,3.8-.94,5.72s-4.25,2.5-5.64,1.33-1-3.8.8-5.83S106.05,169.84,107.3,171.13Z" style="fill:#8adee0"/><path d="M131.74,190.62a3.6,3.6,0,0,1-5.07,5.06,3.59,3.59,0,0,1,5.07-5.06Z" style="fill:#8adee0"/><path d="M147.28,216.56a1.17,1.17,0,1,1-1.46,1.71,1.19,1.19,0,1,1,1.46-1.71Z" style="fill:#8adee0"/><path d="M144.12,150.26c.37.84-.28,2-1.45,2.48s-2.44.32-2.85-.49.22-2,1.44-2.53S143.75,149.41,144.12,150.26Z" style="fill:#8adee0"/><path d="M171.21,226.64c1,1.53,1.35,3,.83,3.44s-1.88-.42-3-1.83-1.54-2.95-.89-3.48S170.21,225.14,171.21,226.64Z" style="fill:#8adee0"/><path d="M206.45,185.6a2.92,2.92,0,1,1-5.7-1.12,2.94,2.94,0,1,1,5.7,1.12Z" style="fill:#8adee0"/><path d="M110.55,219.73a2.25,2.25,0,0,1-1.8,4.11,2.25,2.25,0,0,1,1.8-4.11Z" style="fill:#8adee0"/><path d="M171.87,183a1.64,1.64,0,1,1-3.15.9,1.65,1.65,0,1,1,3.15-.9Z" style="fill:#8adee0"/><path d="M262.36,161.61c-1.12,1.44-3.6,1.4-5.57-.06s-3-3.76-2-5.3,3.66-1.61,5.8-.09S263.48,160.17,262.36,161.61Z" style="fill:#8adee0"/><path d="M246.32,188.37a3.52,3.52,0,0,1-5.59-4.27,3.52,3.52,0,0,1,5.59,4.27Z" style="fill:#8adee0"/><path d="M222.64,207.22a1.45,1.45,0,0,1-1.82.67,1.39,1.39,0,0,1-.11-1.91,1.37,1.37,0,0,1,1.81-.66A1.34,1.34,0,0,1,222.64,207.22Z" style="fill:#8adee0"/><path d="M286.49,190.65a1.87,1.87,0,0,1-2.56-.52,1.9,1.9,0,0,1,0-2.63,1.84,1.84,0,0,1,2.56.52A1.88,1.88,0,0,1,286.49,190.65Z" style="fill:#8adee0"/><path d="M217.57,233.68c-1.31,1.28-2.95,1.73-3.67,1a1.65,1.65,0,0,1-.27-1.57A5.07,5.07,0,0,1,214.8,231c1.2-1.33,2.87-2,3.67-1.13S218.87,232.4,217.57,233.68Z" style="fill:#8adee0"/><path d="M278.32,261.72c-1.08,1.81-2.71,1.85-3.65.09a6.4,6.4,0,0,1,.56-6.25c1.25-1.61,2.89-1.61,3.67,0A7.46,7.46,0,0,1,278.32,261.72Z" style="fill:#8adee0"/><path d="M214.66,171.22a2.14,2.14,0,0,1-2.73,1.33,2.1,2.1,0,1,1,1.1-4A2.26,2.26,0,0,1,214.66,171.22Z" style="fill:#8adee0"/><path d="M262.25,225.58a1.69,1.69,0,0,1-2.36-.39,1.73,1.73,0,0,1,.5-2.36,1.71,1.71,0,0,1,2.41.37A1.74,1.74,0,0,1,262.25,225.58Z" style="fill:#8adee0"/><path d="M29.86,178.37a3.19,3.19,0,0,1,1.22,4.13c-1,1.8-3,2.41-4.5,1.3a3.78,3.78,0,0,1-1.1-4.82A3,3,0,0,1,29.86,178.37Z" style="fill:#8adee0"/><path d="M10.61,210.21a3.81,3.81,0,0,1-.14,3.24c-.55.79-1.33.61-1.71-.38A3.94,3.94,0,0,1,9,209.88C9.44,209.08,10.17,209.23,10.61,210.21Z" style="fill:#8adee0"/><path d="M47.49,117.73c.21,1.83-2.08,3.57-5.2,4.23s-6.07,0-6.58-1.83a2.79,2.79,0,0,1,1.16-2.71,8.68,8.68,0,0,1,4.1-1.94C44.38,114.77,47.26,115.93,47.49,117.73Z" style="fill:#8adee0"/><path d="M55.45,148.05a3.68,3.68,0,0,1-3.37,3.67,3.72,3.72,0,0,1-4.26-2.63c-.38-1.77,1.13-3.63,3.38-3.92S55.34,146.24,55.45,148.05Z" style="fill:#8adee0"/><path d="M52.71,178c.19.83,0,1.59-.42,1.69s-.95-.42-1.21-1.23-.1-1.6.38-1.74S52.51,177.18,52.71,178Z" style="fill:#8adee0"/><path d="M93.43,126.47c-.32.86-1.62,1.18-2.92.74s-2.15-1.47-1.89-2.35,1.59-1.25,2.95-.82S93.74,125.6,93.43,126.47Z" style="fill:#8adee0"/><path d="M61.8,200.88c-.26,1.78-.76,3.25-1.11,3.19s-.56-1.51-.54-3.32.45-3.28,1-3.27S62,199.05,61.8,200.88Z" style="fill:#8adee0"/><path d="M112.27,196.85a3,3,0,1,1-3.28-5,3,3,0,1,1,3.28,5Z" style="fill:#8adee0"/><path d="M19.85,165.1a2.36,2.36,0,0,1,0,3.24,2.33,2.33,0,0,1-3.13.7,2.3,2.3,0,0,1-.17-3.28A2.32,2.32,0,0,1,19.85,165.1Z" style="fill:#8adee0"/><path d="M90.69,169.44a1.63,1.63,0,1,1-2.83-1.61,1.63,1.63,0,1,1,2.83,1.61Z" style="fill:#8adee0"/><path d="M222.45,166.63c-.19,1.83-2.64,3.07-5.69,2.88s-5.52-1.76-5.43-3.6,2.78-3.21,5.86-3S222.58,164.83,222.45,166.63Z" style="fill:#8adee0"/><path d="M224.55,198c-.19,1.81-2.45,3.07-5.05,2.84s-4.66-1.84-4.55-3.66,2.42-3.16,5.11-2.93S224.75,196.15,224.55,198Z" style="fill:#8adee0"/><path d="M210.81,226.24a2,2,0,0,1-3.83-.15,1.74,1.74,0,0,1,2-1.48A1.76,1.76,0,0,1,210.81,226.24Z" style="fill:#8adee0"/><path d="M265.26,175.67c-.14.91-1.38,1.47-2.75,1.25s-2.38-1.11-2.24-2,1.34-1.49,2.74-1.27S265.41,174.76,265.26,175.67Z" style="fill:#8adee0"/><path d="M234,252.32c-.23,1.81-2.41,3-4.87,2.71s-4.15-2-3.92-3.81,2.31-3,4.74-2.74S234.21,250.51,234,252.32Z" style="fill:#8adee0"/><path d="M173.85,200.48c.3,1.1-.86,2.42-2.58,3s-3.42.24-3.84-.85.68-2.56,2.53-3.12S173.53,199.35,173.85,200.48Z" style="fill:#8adee0"/><path d="M276.87,218.69c-.21.95-1.44,1.49-2.75,1.21s-2.22-1.28-2-2.23,1.43-1.5,2.76-1.22S277.08,217.74,276.87,218.69Z" style="fill:#8adee0"/></g><g style="opacity:0.54"><path d="M3.76,300.88a2,2,0,0,1-2.18,1.67A2,2,0,0,1-.6,300.9c0-.92,1-1.67,2.18-1.68S3.78,300,3.76,300.88Z" style="fill:#8adee0"/><path d="M49.73,354.37c-.45,1.8-2.37,2.61-4.34,1.91a4,4,0,0,1-.69-.31,3.32,3.32,0,0,1-.47-.37,3.21,3.21,0,0,1-.67-1,3.49,3.49,0,0,1-.08-2.51,3.15,3.15,0,0,1,4-2.07A3.7,3.7,0,0,1,49.73,354.37Z" style="fill:#8adee0"/><path d="M15.43,342a1.73,1.73,0,0,1-1.84,1.56,1.73,1.73,0,0,1-1.44-1.93,1.65,1.65,0,1,1,3.28.37Z" style="fill:#8adee0"/><path d="M64,309.59c.77,2.31,1.18,4.09.93,4s-.85-2-1.35-4.17c-.23-1-.44-1.9-.64-2.79-.1-.39-.19-.77-.29-1.17.13.42.25.8.37,1.21C63.31,307.59,63.62,308.55,64,309.59Z" style="fill:#8adee0"/><path d="M78.91,349.4c.88,2.35.47,3.91-.89,3.35s-2.93-2.88-3.54-5.11-.25-3.64.83-3.2S78,347.06,78.91,349.4Z" style="fill:#8adee0"/><path d="M81.87,380.32c.24.92-.36,1.49-1.33,1.28a3,3,0,0,1-2.12-2.11,1,1,0,0,1,1.33-1.28A3.26,3.26,0,0,1,81.87,380.32Z" style="fill:#8adee0"/><path d="M68.69,312.59a6.7,6.7,0,0,1,1.38,2c0,.17-.75-.53-1.53-1.55a11.41,11.41,0,0,1-1.37-2A7.37,7.37,0,0,1,68.69,312.59Z" style="fill:#8adee0"/><path d="M115.12,399.77a2.72,2.72,0,0,1-.23,2.73,5.82,5.82,0,0,1-2.87,2.42c-2.63,1.09-5.3.37-6-1.35s.6-3.66,3.08-4.62a8.21,8.21,0,0,1,3.61-.57A3.08,3.08,0,0,1,115.12,399.77Z" style="fill:#8adee0"/><path d="M115.22,306.12a3,3,0,1,1-2,5.55,3,3,0,1,1,2-5.55Z" style="fill:#8adee0"/><path d="M56.67,339.83c-.2,1.16-1,1.83-1.86,1.51a2.11,2.11,0,0,1-1-2.59c.3-1.12,1.13-1.81,1.86-1.54S56.86,338.67,56.67,339.83Z" style="fill:#8adee0"/><path d="M105.54,341.33a4,4,0,0,1,1.38,3c-.11,1-.84,1.13-1.64.39a4.44,4.44,0,0,1-1.34-3C104,340.8,104.69,340.62,105.54,341.33Z" style="fill:#8adee0"/><path d="M98.89,247.31c1.3,1.32.77,3.79-.94,5.72s-4.25,2.5-5.64,1.33-1-3.8.8-5.83S97.64,246,98.89,247.31Z" style="fill:#8adee0"/><path d="M123.33,266.8a3.6,3.6,0,0,1-5.07,5.06,3.59,3.59,0,0,1,5.07-5.06Z" style="fill:#8adee0"/><path d="M138.87,292.73c.64.57.82,1.39.41,1.84a1.35,1.35,0,0,1-1.87-.12,1.19,1.19,0,1,1,1.46-1.72Z" style="fill:#8adee0"/><path d="M135.71,226.44c.37.84-.28,1.95-1.45,2.48s-2.44.32-2.85-.5.22-2,1.44-2.52S135.34,225.59,135.71,226.44Z" style="fill:#8adee0"/><path d="M162.8,302.82c1,1.53,1.35,3,.84,3.44s-1.89-.42-3-1.83-1.54-2.95-.89-3.48S161.8,301.32,162.8,302.82Z" style="fill:#8adee0"/><path d="M198,261.78a2.92,2.92,0,1,1-5.7-1.12,2.94,2.94,0,1,1,5.7,1.12Z" style="fill:#8adee0"/><path d="M102.14,295.91a2.25,2.25,0,0,1-1.8,4.11,2.25,2.25,0,0,1,1.8-4.11Z" style="fill:#8adee0"/><path d="M163.46,259.14a1.64,1.64,0,1,1-3.15.9,1.65,1.65,0,1,1,3.15-.9Z" style="fill:#8adee0"/><path d="M254,237.79c-1.12,1.44-3.6,1.4-5.57-.06s-3-3.76-2-5.3,3.66-1.61,5.8-.09S255.07,236.35,254,237.79Z" style="fill:#8adee0"/><path d="M237.91,264.54a3.52,3.52,0,0,1-5.59-4.26,3.52,3.52,0,0,1,5.59,4.26Z" style="fill:#8adee0"/><path d="M214.23,283.4a1.45,1.45,0,0,1-1.82.67,1.39,1.39,0,0,1-.11-1.91,1.37,1.37,0,0,1,1.81-.66A1.34,1.34,0,0,1,214.23,283.4Z" style="fill:#8adee0"/><path d="M278.08,266.83a1.87,1.87,0,0,1-2.56-.52,1.9,1.9,0,0,1,0-2.63,1.84,1.84,0,0,1,2.56.52A1.88,1.88,0,0,1,278.08,266.83Z" style="fill:#8adee0"/><path d="M209.16,309.86c-1.31,1.27-2.95,1.73-3.67,1a1.65,1.65,0,0,1-.27-1.57,5.07,5.07,0,0,1,1.17-2.08c1.2-1.33,2.87-2,3.67-1.13S210.46,308.58,209.16,309.86Z" style="fill:#8adee0"/><path d="M269.91,337.9c-1.08,1.81-2.71,1.85-3.65.09a6.4,6.4,0,0,1,.56-6.25c1.25-1.61,2.89-1.61,3.67,0A7.46,7.46,0,0,1,269.91,337.9Z" style="fill:#8adee0"/><path d="M206.25,247.4a2.14,2.14,0,0,1-2.73,1.33,2.1,2.1,0,1,1,1.1-4A2.25,2.25,0,0,1,206.25,247.4Z" style="fill:#8adee0"/><path d="M253.84,301.76a1.69,1.69,0,0,1-2.36-.39A1.73,1.73,0,0,1,252,299a1.71,1.71,0,0,1,2.41.37A1.74,1.74,0,0,1,253.84,301.76Z" style="fill:#8adee0"/><path d="M21.45,254.55a3.19,3.19,0,0,1,1.22,4.13c-1,1.8-3,2.41-4.5,1.3a3.78,3.78,0,0,1-1.1-4.82A3,3,0,0,1,21.45,254.55Z" style="fill:#8adee0"/><path d="M2.2,286.39a3.81,3.81,0,0,1-.14,3.24c-.55.79-1.33.61-1.71-.38a4,4,0,0,1,.22-3.19C1,285.26,1.76,285.41,2.2,286.39Z" style="fill:#8adee0"/><path d="M39.08,193.91c.21,1.82-2.08,3.57-5.2,4.23s-6.07,0-6.58-1.83a2.79,2.79,0,0,1,1.16-2.71,8.68,8.68,0,0,1,4.1-1.94C36,190.94,38.85,192.11,39.08,193.91Z" style="fill:#8adee0"/><path d="M47,224.23a3.68,3.68,0,0,1-3.37,3.67,3.72,3.72,0,0,1-4.26-2.63c-.38-1.77,1.13-3.63,3.38-3.92S46.93,222.42,47,224.23Z" style="fill:#8adee0"/><path d="M44.3,254.19c.19.83,0,1.59-.42,1.69s-1-.42-1.21-1.23-.1-1.6.38-1.74S44.1,253.36,44.3,254.19Z" style="fill:#8adee0"/><path d="M85,202.65c-.32.86-1.62,1.18-2.92.74S80,201.92,80.21,201s1.59-1.25,3-.82S85.33,201.78,85,202.65Z" style="fill:#8adee0"/><path d="M53.39,277.06c-.26,1.78-.76,3.25-1.11,3.19s-.56-1.51-.54-3.32.45-3.28,1-3.27S53.63,275.23,53.39,277.06Z" style="fill:#8adee0"/><path d="M103.86,273a3,3,0,1,1-3.28-5,3,3,0,1,1,3.28,5Z" style="fill:#8adee0"/><path d="M11.44,241.28a2.36,2.36,0,0,1,0,3.24,2.33,2.33,0,0,1-3.13.7,2.3,2.3,0,0,1-.17-3.28A2.32,2.32,0,0,1,11.44,241.28Z" style="fill:#8adee0"/><path d="M82.28,245.62A1.63,1.63,0,1,1,79.45,244a1.63,1.63,0,1,1,2.83,1.61Z" style="fill:#8adee0"/><path d="M214,242.81c-.19,1.83-2.64,3.07-5.69,2.88s-5.52-1.76-5.43-3.6,2.78-3.21,5.86-3S214.17,241,214,242.81Z" style="fill:#8adee0"/><path d="M216.14,274.14c-.19,1.82-2.45,3.08-5,2.85s-4.66-1.84-4.55-3.66,2.42-3.16,5.11-2.93S216.34,272.33,216.14,274.14Z" style="fill:#8adee0"/><path d="M202.4,302.42a2,2,0,0,1-3.83-.15,1.74,1.74,0,0,1,2-1.48A1.76,1.76,0,0,1,202.4,302.42Z" style="fill:#8adee0"/><path d="M256.85,251.85c-.14.91-1.38,1.47-2.75,1.25s-2.38-1.11-2.24-2,1.34-1.49,2.74-1.27S257,250.94,256.85,251.85Z" style="fill:#8adee0"/><path d="M225.57,328.5c-.23,1.81-2.41,3-4.87,2.71s-4.15-2-3.92-3.81,2.31-3,4.74-2.74S225.8,326.69,225.57,328.5Z" style="fill:#8adee0"/><path d="M165.44,276.66c.3,1.1-.86,2.42-2.58,3s-3.42.24-3.84-.85.68-2.56,2.53-3.12S165.12,275.53,165.44,276.66Z" style="fill:#8adee0"/><path d="M268.46,294.87c-.21.95-1.44,1.49-2.75,1.21s-2.22-1.28-2-2.23,1.43-1.51,2.76-1.22S268.67,293.92,268.46,294.87Z" style="fill:#8adee0"/></g><path d="M113.66,370s-7.52-43.9-15.25-51.63l9.79-2.57s16,42.76,21.13,45.85l10.3-4.12,14.43-45.86,10.3,1-8.24,31.45-18,31.93Z" style="fill:#2f2922"/><polygon points="1672.45 341.42 1682.07 466.67 1864.91 494.65 1907.56 360.12 1789.43 178.92 1667.39 324.33 1672.45 341.42" style="fill:#fae5d0"/><path d="M1854.74,492.13l47.41-140.52,110.12,1.5-22.81,149.08S1852.58,493.72,1854.74,492.13Z" style="fill:#d8b698"/><path d="M1783.73,172.29S1636.6,330.05,1635.08,336.41c-.34,1.44,38,13.38,38,13.38l124-170.76Z" style="fill:#311224"/><path d="M1783.33,192.14s100,155.39,149,217.59l72-6.26,17.79-116.27-21.22-24.35s-181.28-63.24-210.72-84.06Z" style="fill:#311224"/><path d="M1626.23,327s83.72-81.06,160.13-157.17l8.48,5.59L1635,336.78Z" style="fill:#b2326f"/><path d="M1783.6,185.7s100,155.4,149,217.59l72-6.26,17.79-116.26-21.22-24.36s-181.28-63.24-210.72-84.06Z" style="fill:#b2326f"/><polygon points="1726.53 472.26 1728.15 342.32 1794.48 334.21 1777.18 478.42 1726.53 472.26" style="fill:#fff"/><polygon points="1734.28 473.44 1734.42 348.04 1784.53 342.21 1767.34 475.33 1734.28 473.44" style="fill:#03658c"/><polygon points="1806.73 323.86 1854.2 325.51 1853.2 339.39 1806.41 340.65 1806.73 323.86" style="fill:#dbada0"/><polygon points="1823.84 347.81 1868.73 347.94 1864.82 362.5 1822.72 366.16 1823.84 347.81" style="fill:#dbada0"/><polygon points="1798.54 414.11 1853.01 414.02 1851.46 427.82 1795.6 433.31 1798.54 414.11" style="fill:#dbada0"/><polygon points="1726.18 393.31 1725.89 409.83 1698.21 409.42 1699.17 392.17 1726.18 393.31" style="fill:#dbada0"/><polygon points="1783.56 460.65 1782.27 480.1 1834.04 482.97 1836.59 462.59 1783.56 460.65" style="fill:#dbada0"/><polygon points="1756.42 293.15 1757.28 309.56 1804.1 304.37 1804.72 289.31 1756.42 293.15" style="fill:#dbada0"/><polygon points="1782.44 280.85 1736.63 286.75 1739.19 266.37 1785 267.77 1782.44 280.85" style="fill:#dbada0"/><polygon points="1736.38 295.69 1736.1 308.56 1700.12 312.6 1712.51 295.45 1736.38 295.69" style="fill:#dbada0"/><g style="clip-path:url(#bfc22733-fce1-4fbb-85c7-27a6ad6e8e93)"><path d="M1532.44,413.36a16.55,16.55,0,0,1,.86,5.18c0,30.79-88.83,55.74-198.41,55.74s-198.42-24.95-198.42-55.74c0-13.26,16.48-25.43,44-35-71.26-3.16-144.64-4.81-219.57-4.81-76.69,0-151.74,1.73-224.58,5,43.41,10.23,71,25.57,71,42.73,0,30.79-88.83,55.75-198.42,55.75s-198.41-25-198.41-55.75c0-5.91,3.29-11.61,9.36-16.95-412.64,49.83-697,154.9-697,276.45,0,169.7,554.3,307.27,1238.07,307.27S2199,855.7,2199,686C2199,567.47,1928.52,464.61,1532.44,413.36Z" style="fill:#2a818a"/><path d="M410.5,426.5c0,30.79,88.83,55.75,198.41,55.75s198.42-25,198.42-55.75c0-17.16-27.61-32.5-71-42.73-111.41,5.07-217.61,13.84-316.45,25.78C413.79,414.89,410.5,420.59,410.5,426.5Z" style="fill:#1f696d"/><path d="M1136.47,418.54c0,30.79,88.83,55.74,198.42,55.74s198.41-24.95,198.41-55.74a16.55,16.55,0,0,0-.86-5.18c-108.84-14.08-227.16-24.27-352-29.82C1153,393.11,1136.47,405.28,1136.47,418.54Z" style="fill:#1f696d"/><rect x="-7.56" y="782.19" width="1937.69" height="122.1" style="fill:#2a818a"/><ellipse cx="90.73" cy="1236.22" rx="573.22" ry="1392.9" transform="matrix(0.15, -0.99, 0.99, 0.15, -1144.65, 1134.66)" style="fill:#2a818a"/><polyline points="-18.18 694.6 1598.33 723.79 1701.85 758.3 133.12 898.98 -17.69 900 -18.18 694.6" style="fill:#1f696d"/><path d="M560.07,867.15s-14.89,2.12-9.37-22.56C550.7,844.59,570.85,857.58,560.07,867.15Z" style="fill:#2a818a"/><path d="M557.94,869.27s-12-9,9.33-22.58C567.27,846.69,572.33,870.13,557.94,869.27Z" style="fill:#2a818a"/><path d="M575.73,871.72s-14.39-4.35,1-24.41C576.74,847.31,589.54,867.59,575.73,871.72Z" style="fill:#2a818a"/><path d="M578.91,868.18s-9.61-11.58,14.3-19.8C593.21,848.38,592.7,872.35,578.91,868.18Z" style="fill:#2a818a"/><path d="M591.52,869.74s-9.61-11.58,14.3-19.8C605.82,849.94,605.31,873.91,591.52,869.74Z" style="fill:#2a818a"/><path d="M622.77,871.33S608.83,877,608.23,851.7C608.23,851.7,630.92,859.44,622.77,871.33Z" style="fill:#2a818a"/><path d="M626.34,868.58s-15,1.28-8.1-23.05C618.24,845.53,637.63,859.63,626.34,868.58Z" style="fill:#2a818a"/><path d="M631.59,864.69s-14.29-4.69,1.58-24.38C633.17,840.31,645.49,860.88,631.59,864.69Z" style="fill:#2a818a"/><path d="M642.42,867.94s-14.29-4.7,1.58-24.38C644,843.56,656.32,864.13,642.42,867.94Z" style="fill:#2a818a"/><path d="M537.33,869.87s-12-9,9.32-22.58C546.65,847.29,551.71,870.72,537.33,869.87Z" style="fill:#2a818a"/><path d="M658.32,860.75s-12-9,9.32-22.58C667.64,838.17,672.7,861.61,658.32,860.75Z" style="fill:#2a818a"/><path d="M669.85,861.11s-12-9,9.32-22.58C679.17,838.53,684.24,862,669.85,861.11Z" style="fill:#2a818a"/><path d="M705.14,856.78s-14.89,2.12-9.37-22.55C695.77,834.23,715.92,847.22,705.14,856.78Z" style="fill:#2a818a"/><path d="M703,858.9s-12-9,9.33-22.58C712.34,836.32,717.4,859.76,703,858.9Z" style="fill:#2a818a"/><path d="M720.8,861.35s-14.39-4.35,1-24.41C721.81,836.94,734.61,857.22,720.8,861.35Z" style="fill:#2a818a"/><path d="M724,857.81s-9.61-11.57,14.3-19.8C738.28,838,737.77,862,724,857.81Z" style="fill:#2a818a"/><path d="M736.59,859.37s-9.61-11.57,14.3-19.8C750.89,839.57,750.38,863.54,736.59,859.37Z" style="fill:#2a818a"/><path d="M767.84,861s-13.94,5.65-14.54-19.63C753.3,841.33,776,849.07,767.84,861Z" style="fill:#2a818a"/><path d="M771.41,858.21s-15,1.28-8.1-23.05C763.31,835.16,782.7,849.27,771.41,858.21Z" style="fill:#2a818a"/><path d="M776.66,854.32s-14.29-4.69,1.58-24.37C778.24,830,790.56,850.52,776.66,854.32Z" style="fill:#2a818a"/><path d="M787.49,857.57s-14.29-4.69,1.58-24.38C789.07,833.19,801.39,853.77,787.49,857.57Z" style="fill:#2a818a"/><path d="M682.4,859.5s-12-9,9.32-22.58C691.72,836.92,696.78,860.36,682.4,859.5Z" style="fill:#2a818a"/><path d="M803.39,850.38s-12-9,9.32-22.58C812.71,827.8,817.77,851.24,803.39,850.38Z" style="fill:#2a818a"/><path d="M814.92,850.74s-12-9,9.32-22.58C824.24,828.16,829.31,851.59,814.92,850.74Z" style="fill:#2a818a"/><path d="M841.77,846.25s-14.89,2.12-9.38-22.56C832.39,823.69,852.54,836.68,841.77,846.25Z" style="fill:#2a818a"/><path d="M839.64,848.37s-12-9,9.32-22.58C849,825.79,854,849.22,839.64,848.37Z" style="fill:#2a818a"/><path d="M857.43,850.82s-14.4-4.36,1-24.41C858.43,826.41,871.24,846.68,857.43,850.82Z" style="fill:#2a818a"/><path d="M860.6,847.27s-9.6-11.57,14.31-19.8C874.91,827.47,874.4,851.44,860.6,847.27Z" style="fill:#2a818a"/><path d="M873.21,848.84s-9.6-11.58,14.31-19.81C887.52,829,887,853,873.21,848.84Z" style="fill:#2a818a"/><path d="M904.47,850.42s-13.94,5.65-14.55-19.62C889.92,830.8,912.62,838.54,904.47,850.42Z" style="fill:#2a818a"/><path d="M908,847.68s-15,1.27-8.09-23C899.94,824.63,919.33,838.73,908,847.68Z" style="fill:#2a818a"/><path d="M913.29,843.79s-14.29-4.7,1.58-24.38C914.87,819.41,927.19,840,913.29,843.79Z" style="fill:#2a818a"/><path d="M924.11,847s-14.29-4.69,1.59-24.37C925.7,822.66,938,843.23,924.11,847Z" style="fill:#2a818a"/><path d="M819,849s-12-9,9.32-22.58C828.34,826.38,833.41,849.82,819,849Z" style="fill:#2a818a"/><path d="M940,839.85s-12-9,9.32-22.58C949.33,817.27,954.4,840.7,940,839.85Z" style="fill:#2a818a"/><path d="M951.55,840.2s-12-9,9.32-22.58C960.87,817.62,965.93,841.06,951.55,840.2Z" style="fill:#2a818a"/><path d="M986.84,835.88S972,838,977.46,813.32C977.46,813.32,997.61,826.31,986.84,835.88Z" style="fill:#2a818a"/><path d="M984.71,838s-12-9,9.32-22.58C994,815.42,999.09,838.86,984.71,838Z" style="fill:#2a818a"/><path d="M1002.5,840.45s-14.4-4.35,1-24.41C1003.5,816,1016.3,836.31,1002.5,840.45Z" style="fill:#2a818a"/><path d="M1005.67,836.91s-9.6-11.58,14.31-19.8C1020,817.11,1019.46,841.08,1005.67,836.91Z" style="fill:#2a818a"/><path d="M1018.28,838.47s-9.6-11.58,14.31-19.8C1032.59,818.67,1032.08,842.64,1018.28,838.47Z" style="fill:#2a818a"/><path d="M1049.54,840.06s-13.94,5.65-14.55-19.63C1035,820.43,1057.69,828.17,1049.54,840.06Z" style="fill:#2a818a"/><path d="M1053.1,837.31s-15,1.28-8.09-23C1045,814.26,1064.4,828.36,1053.1,837.31Z" style="fill:#2a818a"/><path d="M1058.36,833.42s-14.29-4.69,1.58-24.38C1059.94,809,1072.25,829.61,1058.36,833.42Z" style="fill:#2a818a"/><path d="M1069.18,836.67s-14.29-4.7,1.59-24.38C1070.77,812.29,1083.08,832.86,1069.18,836.67Z" style="fill:#2a818a"/><path d="M964.09,838.6s-12-9,9.32-22.58C973.41,816,978.48,839.45,964.09,838.6Z" style="fill:#2a818a"/><path d="M1085.08,829.48s-12-9,9.32-22.58C1094.4,806.9,1099.47,830.34,1085.08,829.48Z" style="fill:#2a818a"/><path d="M1096.62,829.84s-12-9,9.32-22.58C1105.94,807.26,1111,830.69,1096.62,829.84Z" style="fill:#2a818a"/><path d="M1478.82,785.53s-14.89,2.12-9.38-22.56C1469.44,763,1489.59,776,1478.82,785.53Z" style="fill:#2a818a"/><path d="M1476.69,787.65s-12-9,9.32-22.58C1486,765.07,1491.07,788.51,1476.69,787.65Z" style="fill:#2a818a"/><path d="M1494.48,790.1s-14.4-4.36,1-24.41C1495.48,765.69,1508.28,786,1494.48,790.1Z" style="fill:#2a818a"/><path d="M1497.65,786.56s-9.6-11.58,14.31-19.81C1512,766.75,1511.44,790.73,1497.65,786.56Z" style="fill:#2a818a"/><path d="M1510.26,788.12s-9.6-11.58,14.31-19.8C1524.57,768.32,1524.06,792.29,1510.26,788.12Z" style="fill:#2a818a"/><path d="M1541.52,789.7s-13.94,5.65-14.55-19.62C1527,770.08,1549.67,777.82,1541.52,789.7Z" style="fill:#2a818a"/><path d="M1545.08,787s-15,1.27-8.09-23.05C1537,763.91,1556.38,778,1545.08,787Z" style="fill:#2a818a"/><path d="M1550.34,783.07s-14.29-4.7,1.58-24.38C1551.92,758.69,1564.23,779.26,1550.34,783.07Z" style="fill:#2a818a"/><path d="M1561.16,786.32s-14.29-4.7,1.59-24.38C1562.75,761.94,1575.06,782.51,1561.16,786.32Z" style="fill:#2a818a"/><path d="M1456.07,788.24s-12-9,9.32-22.58C1465.39,765.66,1470.46,789.1,1456.07,788.24Z" style="fill:#2a818a"/><path d="M1577.06,779.13s-12-9,9.32-22.58C1586.38,756.55,1591.45,780,1577.06,779.13Z" style="fill:#2a818a"/><path d="M1588.6,779.48s-12-9,9.32-22.58C1597.92,756.9,1603,780.34,1588.6,779.48Z" style="fill:#2a818a"/><path d="M1623.89,775.16s-14.89,2.12-9.38-22.56C1614.51,752.6,1634.66,765.6,1623.89,775.16Z" style="fill:#2a818a"/><path d="M1621.76,777.28s-12-9,9.32-22.58C1631.08,754.7,1636.14,778.14,1621.76,777.28Z" style="fill:#2a818a"/><path d="M1639.55,779.73s-14.4-4.35,1-24.41C1640.55,755.32,1653.35,775.6,1639.55,779.73Z" style="fill:#2a818a"/><path d="M1642.72,776.19s-9.6-11.58,14.31-19.8C1657,756.39,1656.51,780.36,1642.72,776.19Z" style="fill:#2a818a"/><path d="M1655.33,777.75s-9.6-11.57,14.31-19.8C1669.64,758,1669.13,781.92,1655.33,777.75Z" style="fill:#2a818a"/><path d="M1686.59,779.34S1672.65,785,1672,759.71C1672,759.71,1694.74,767.45,1686.59,779.34Z" style="fill:#2a818a"/><path d="M1690.15,776.59s-15,1.28-8.09-23.05C1682.06,753.54,1701.45,767.64,1690.15,776.59Z" style="fill:#2a818a"/><path d="M1695.4,772.7s-14.28-4.69,1.59-24.38C1697,748.32,1709.3,768.9,1695.4,772.7Z" style="fill:#2a818a"/><path d="M1706.23,776s-14.29-4.7,1.59-24.38C1707.82,751.57,1720.13,772.14,1706.23,776Z" style="fill:#2a818a"/><path d="M1601.14,777.88s-12-9,9.32-22.58C1610.46,755.3,1615.53,778.73,1601.14,777.88Z" style="fill:#2a818a"/><path d="M1722.13,768.76s-12-9,9.32-22.58C1731.45,746.18,1736.52,769.62,1722.13,768.76Z" style="fill:#2a818a"/><path d="M1733.67,769.12s-12-9,9.32-22.58C1743,746.54,1748.05,770,1733.67,769.12Z" style="fill:#2a818a"/><path d="M378.63,708.47s-15,.55-7-23.41C371.67,685.06,390.35,700.08,378.63,708.47Z" style="fill:#1f696d"/><path d="M376.29,710.36s-11-10.24,11.64-21.48C387.93,688.88,390.51,712.71,376.29,710.36Z" style="fill:#1f696d"/><path d="M393.73,714.65s-13.86-5.83,3.55-24.17C397.28,690.48,407.89,712,393.73,714.65Z" style="fill:#1f696d"/><path d="M397.26,711.46s-8.34-12.51,16.29-18.19C413.55,693.27,410.54,717.05,397.26,711.46Z" style="fill:#1f696d"/><path d="M409.63,714.34s-8.34-12.52,16.3-18.2C425.93,696.14,422.92,719.93,409.63,714.34Z" style="fill:#1f696d"/><path d="M440.55,719.18s-14.45,4.17-12.41-21C428.14,698.14,449.9,708.22,440.55,719.18Z" style="fill:#1f696d"/><path d="M444.38,716.82s-15-.29-5.63-23.76C438.75,693.06,456.56,709.11,444.38,716.82Z" style="fill:#1f696d"/><path d="M450,713.51s-13.72-6.17,4.12-24.08C454.14,689.43,464.24,711.18,450,713.51Z" style="fill:#1f696d"/><path d="M460.44,717.87s-13.72-6.16,4.13-24.08C464.57,693.79,474.67,715.54,460.44,717.87Z" style="fill:#1f696d"/><path d="M355.73,708.79s-11-10.24,11.63-21.48C367.36,687.31,370,711.15,355.73,708.79Z" style="fill:#1f696d"/><path d="M477,712.39s-11-10.24,11.63-21.48C488.64,690.91,491.22,714.74,477,712.39Z" style="fill:#1f696d"/><path d="M488.44,714s-11-10.24,11.63-21.48C500.07,692.47,502.66,716.3,488.44,714Z" style="fill:#1f696d"/><path d="M524,713.34s-15,.55-7-23.41C517,689.93,535.71,705,524,713.34Z" style="fill:#1f696d"/><path d="M521.65,715.23s-11-10.24,11.64-21.48C533.29,693.75,535.87,717.58,521.65,715.23Z" style="fill:#1f696d"/><path d="M539.09,719.52s-13.86-5.83,3.55-24.16C542.64,695.36,553.25,716.86,539.09,719.52Z" style="fill:#1f696d"/><path d="M542.61,716.33s-8.34-12.51,16.3-18.19C558.91,698.14,555.9,721.92,542.61,716.33Z" style="fill:#1f696d"/><path d="M555,719.21s-8.34-12.52,16.3-18.2C571.29,701,568.27,724.8,555,719.21Z" style="fill:#1f696d"/><path d="M585.91,724.06s-14.45,4.16-12.41-21C573.5,703,595.26,713.09,585.91,724.06Z" style="fill:#1f696d"/><path d="M589.74,721.7s-15-.3-5.64-23.77C584.1,697.93,601.91,714,589.74,721.7Z" style="fill:#1f696d"/><path d="M595.37,718.38s-13.72-6.17,4.13-24.08C599.5,694.3,609.59,716.05,595.37,718.38Z" style="fill:#1f696d"/><path d="M605.8,722.74s-13.72-6.16,4.13-24.08C609.93,698.66,620,720.41,605.8,722.74Z" style="fill:#1f696d"/><path d="M501.09,713.66s-11-10.24,11.63-21.48C512.72,692.18,515.3,716,501.09,713.66Z" style="fill:#1f696d"/><path d="M622.37,717.26S611.35,707,634,695.78C634,695.78,636.58,719.61,622.37,717.26Z" style="fill:#1f696d"/><path d="M633.8,718.82s-11-10.24,11.63-21.48C645.43,697.34,648,721.17,633.8,718.82Z" style="fill:#1f696d"/><path d="M634.45,716.43s-15,.55-7-23.41C627.48,693,646.17,708.05,634.45,716.43Z" style="fill:#1f696d"/><path d="M632.11,718.32s-11-10.24,11.63-21.48C643.74,696.84,646.33,720.68,632.11,718.32Z" style="fill:#1f696d"/><path d="M649.55,722.62s-13.87-5.84,3.55-24.17C653.1,698.45,663.71,720,649.55,722.62Z" style="fill:#1f696d"/><path d="M653.07,719.43s-8.34-12.52,16.3-18.2C669.37,701.23,666.35,725,653.07,719.43Z" style="fill:#1f696d"/><path d="M665.45,722.3s-8.34-12.52,16.3-18.2C681.75,704.1,678.73,727.89,665.45,722.3Z" style="fill:#1f696d"/><path d="M696.37,727.15s-14.46,4.16-12.41-21C684,706.11,705.71,716.18,696.37,727.15Z" style="fill:#1f696d"/><path d="M700.2,724.79s-15-.3-5.64-23.77C694.56,701,712.37,717.07,700.2,724.79Z" style="fill:#1f696d"/><path d="M705.83,721.47s-13.72-6.16,4.13-24.08C710,697.39,720.05,719.14,705.83,721.47Z" style="fill:#1f696d"/><path d="M716.26,725.83s-13.72-6.16,4.12-24.07C720.38,701.76,730.48,723.5,716.26,725.83Z" style="fill:#1f696d"/><path d="M611.54,716.75s-11-10.24,11.64-21.48C623.18,695.27,625.76,719.11,611.54,716.75Z" style="fill:#1f696d"/><path d="M732.82,720.35s-11-10.24,11.64-21.48C744.46,698.87,747,722.71,732.82,720.35Z" style="fill:#1f696d"/><path d="M744.26,721.91s-11-10.24,11.63-21.48C755.89,700.43,758.47,724.27,744.26,721.91Z" style="fill:#1f696d"/><path d="M779.81,721.3s-15,.55-7-23.41C772.84,697.89,791.53,712.92,779.81,721.3Z" style="fill:#1f696d"/><path d="M777.47,723.19s-11-10.24,11.63-21.48C789.1,701.71,791.68,725.55,777.47,723.19Z" style="fill:#1f696d"/><path d="M794.9,727.49s-13.86-5.84,3.56-24.17C798.46,703.32,809.07,724.82,794.9,727.49Z" style="fill:#1f696d"/><path d="M798.43,724.3s-8.34-12.52,16.3-18.2C814.73,706.1,811.71,729.89,798.43,724.3Z" style="fill:#1f696d"/><path d="M810.81,727.17s-8.34-12.52,16.3-18.2C827.11,709,824.09,732.76,810.81,727.17Z" style="fill:#1f696d"/><path d="M841.72,732s-14.45,4.16-12.41-21C829.31,711,851.07,721.05,841.72,732Z" style="fill:#1f696d"/><path d="M845.56,729.66s-15-.3-5.64-23.77C839.92,705.89,857.73,721.94,845.56,729.66Z" style="fill:#1f696d"/><path d="M851.19,726.34s-13.72-6.16,4.12-24.08C855.31,702.26,865.41,724,851.19,726.34Z" style="fill:#1f696d"/><path d="M861.62,730.7s-13.72-6.16,4.12-24.07C865.74,706.63,875.84,728.38,861.62,730.7Z" style="fill:#1f696d"/><path d="M756.9,721.63s-11-10.24,11.64-21.49C768.54,700.14,771.12,724,756.9,721.63Z" style="fill:#1f696d"/><path d="M878.18,725.22s-11-10.24,11.63-21.48C889.81,703.74,892.4,727.58,878.18,725.22Z" style="fill:#1f696d"/><path d="M889.61,726.78s-11-10.24,11.64-21.48C901.25,705.3,903.83,729.14,889.61,726.78Z" style="fill:#1f696d"/></g><path d="M1820.93,854.17a55.21,55.21,0,0,0-56-6,55.23,55.23,0,0,0-82.22-18.28,75.24,75.24,0,0,0-140.83,19.28,55.23,55.23,0,0,0-79.9,55h358.94Z" style="fill:#183f6a"/><path d="M1512.14,895.36l-.26-.44c-.16-.26-3.76-6.36-1.53-13.24,1.64-5.07,6-9.15,13-12.11l.6-.26.28.59c.16.36,4,8.81.6,16.25-2,4.35-6.11,7.41-12.16,9.07Zm11.08-24.27c-6.21,2.77-10.11,6.47-11.58,11-1.71,5.27.41,10.2,1.15,11.69,5.37-1.58,9-4.33,10.77-8.18C1526.23,879.82,1524,873.11,1523.22,871.09Z" style="fill:#6da597"/><path d="M1504,887.81l-.48-.18c-.28-.11-6.89-2.68-9.4-9.46-1.84-5-.94-10.9,2.7-17.54l.31-.57.59.29c.35.18,8.62,4.43,10.52,12.39,1.12,4.67-.21,9.6-3.94,14.66Zm-6.31-25.93c-3.17,6-3.94,11.34-2.3,15.81,1.91,5.2,6.63,7.76,8.14,8.47,3.23-4.57,4.38-9,3.4-13.09C1505.49,866.88,1499.6,863,1497.73,861.88Z" style="fill:#6da597"/><g style="opacity:0.6000000000000001"><path d="M1601.14,850.31l-.27-.44c-.15-.26-3.76-6.37-1.53-13.24,1.65-5.07,6-9.15,13-12.11l.6-.26.28.59c.16.36,4,8.81.59,16.25-2,4.35-6.1,7.41-12.16,9.07ZM1612.22,826c-6.21,2.77-10.11,6.47-11.58,11-1.72,5.27.4,10.2,1.15,11.69,5.37-1.58,9-4.33,10.77-8.18C1615.23,834.76,1613,828.06,1612.22,826Z" style="fill:#6da597"/><path d="M1593,842.76l-.49-.18c-.28-.11-6.89-2.68-9.39-9.46-1.85-5-.94-10.9,2.7-17.54l.31-.57.59.29c.35.18,8.62,4.42,10.52,12.39,1.11,4.67-.21,9.6-3.94,14.66Zm-6.32-25.93c-3.16,6-3.94,11.34-2.29,15.81,1.91,5.2,6.63,7.76,8.13,8.47,3.24-4.57,4.38-9,3.4-13.1C1594.49,821.83,1588.6,817.93,1586.72,816.83Z" style="fill:#6da597"/></g><g style="opacity:0.6000000000000001"><path d="M1742.61,868.52l-.27-.44a14.52,14.52,0,0,1-1.28-11.11c1.37-4.25,5-7.66,10.85-10.14l.61-.26.27.59c.14.3,3.38,7.38.5,13.61-1.69,3.66-5.12,6.22-10.19,7.62Zm9.21-20.17c-5.08,2.29-8.26,5.32-9.47,9a13.2,13.2,0,0,0,.91,9.55c4.38-1.31,7.34-3.57,8.8-6.72C1754.22,855.55,1752.5,850.14,1751.82,848.35Z" style="fill:#6da597"/><path d="M1736,862.25l-.48-.18a14.53,14.53,0,0,1-7.88-7.94c-1.55-4.19-.8-9.14,2.25-14.69l.31-.57.59.29c.29.15,7.21,3.71,8.81,10.39.93,3.91-.18,8.05-3.3,12.28Zm-5.25-21.55c-2.57,4.93-3.19,9.29-1.85,12.95a13.18,13.18,0,0,0,6.63,6.94c2.63-3.74,3.56-7.35,2.75-10.73C1737,844.86,1732.36,841.68,1730.71,840.7Z" style="fill:#6da597"/></g><path d="M1598.17,882.17l-.26-.44c-.16-.26-3.76-6.37-1.53-13.24,1.64-5.07,6-9.15,13-12.11l.6-.26.28.59c.16.36,4,8.81.6,16.25-2,4.35-6.11,7.41-12.16,9.07Zm11.08-24.27c-6.21,2.77-10.11,6.47-11.58,11-1.71,5.27.41,10.2,1.15,11.69,5.37-1.58,9-4.33,10.77-8.18C1612.26,866.62,1610.05,859.92,1609.25,857.9Z" style="fill:#6da597"/><path d="M1590.07,874.62l-.48-.18c-.28-.11-6.89-2.68-9.4-9.46-1.84-5-.94-10.9,2.7-17.54l.31-.57.59.29c.35.18,8.62,4.42,10.52,12.39,1.12,4.67-.21,9.6-3.94,14.66Zm-6.31-25.93c-3.17,6-3.94,11.34-2.3,15.81,1.91,5.2,6.63,7.76,8.14,8.47,3.23-4.57,4.38-9,3.4-13.1C1591.52,853.69,1585.63,849.79,1583.76,848.69Z" style="fill:#6da597"/><path d="M1580.52,887.55a16,16,0,0,1-8.76-2.45c-4.48-2.89-7.3-8.15-8.39-15.65l-.09-.64.65-.12c.38-.07,9.54-1.64,15.85,3.58,3.7,3.06,5.6,7.8,5.66,14.08v.52l-.49.14A17.25,17.25,0,0,1,1580.52,887.55Zm-15.7-17.61c1.09,6.71,3.66,11.43,7.66,14,4.66,3,10,2.22,11.59,1.88-.15-5.59-1.88-9.8-5.15-12.51C1574,869.26,1567,869.69,1564.82,869.94Z" style="fill:#6da597"/><path d="M1716.42,842.42l-.27-.44c-.15-.26-3.75-6.37-1.53-13.24,1.65-5.08,6-9.15,13-12.12l.6-.25.28.59c.16.36,4,8.81.6,16.24-2,4.36-6.11,7.41-12.17,9.08Zm11.08-24.28c-6.21,2.78-10.11,6.47-11.58,11-1.72,5.27.4,10.2,1.15,11.69,5.37-1.59,9-4.34,10.78-8.19C1730.52,826.85,1728.3,820.17,1727.5,818.14Z" style="fill:#6da597"/><path d="M1708.32,834.87l-.48-.18c-.28-.11-6.89-2.68-9.4-9.46-1.85-5-.94-10.91,2.7-17.54l.31-.58.59.3c.35.17,8.62,4.42,10.52,12.39,1.11,4.66-.21,9.59-3.94,14.65ZM1702,808.94c-3.16,6-3.94,11.34-2.29,15.81,1.91,5.2,6.63,7.76,8.14,8.46,3.23-4.56,4.38-9,3.39-13.09C1709.77,813.93,1703.88,810,1702,808.94Z" style="fill:#6da597"/><path d="M1698.77,847.8a16.11,16.11,0,0,1-8.76-2.45c-4.48-2.89-7.31-8.16-8.39-15.65l-.09-.65.64-.11c.39-.07,9.55-1.64,15.86,3.58,3.69,3.06,5.6,7.8,5.66,14.08v.52l-.49.14A17.43,17.43,0,0,1,1698.77,847.8Zm-15.7-17.62c1.09,6.72,3.66,11.43,7.66,14,4.65,3,10,2.22,11.59,1.88-.15-5.6-1.88-9.8-5.15-12.51C1692.28,829.51,1685.23,829.94,1683.07,830.18Z" style="fill:#6da597"/><g style="opacity:0.26"><path d="M1499.63,854.43c.26.9-.55,1.92-1.79,2.32s-2.51.09-2.85-.79.46-2,1.79-2.43S1499.38,853.53,1499.63,854.43Z" style="fill:#a2cc21"/><path d="M1505.81,869.23a1.83,1.83,0,0,1-3.5,1,1.82,1.82,0,0,1,3.5-1Z" style="fill:#a2cc21"/><path d="M1506.41,884.71a.73.73,0,0,1-.27.94.74.74,0,0,1-.82-.54c-.16-.4,0-.84.26-.94A.72.72,0,0,1,1506.41,884.71Z" style="fill:#a2cc21"/><path d="M1519.94,853.6a1,1,0,0,1-1.12.85,1,1,0,0,1-1.12-.84c0-.47.49-.86,1.12-.87A1,1,0,0,1,1519.94,853.6Z" style="fill:#a2cc21"/><path d="M1515.32,895c.11.93-.16,1.74-.61,1.8s-.93-.59-1.12-1.52.06-1.75.58-1.83S1515.21,894,1515.32,895Z" style="fill:#a2cc21"/><path d="M1543.51,881a1.6,1.6,0,0,1-2.23,1,1.87,1.87,0,0,1-.35-.16,1.12,1.12,0,0,1-.24-.19,1.61,1.61,0,0,1-.35-.5,1.84,1.84,0,0,1,0-1.29,1.62,1.62,0,0,1,2.07-1.06A1.9,1.9,0,0,1,1543.51,881Z" style="fill:#a2cc21"/><path d="M1489,877.39a1.2,1.2,0,0,1-1.81,1.55,1.1,1.1,0,0,1,.2-1.59A1.12,1.12,0,0,1,1489,877.39Z" style="fill:#a2cc21"/><path d="M1525.92,874.65a.85.85,0,1,1-1.68-.19.85.85,0,1,1,1.68.19Z" style="fill:#a2cc21"/><path d="M1550.81,858.06c.39,1.18.61,2.1.48,2a7.26,7.26,0,0,1-.7-2.13c-.11-.51-.22-1-.33-1.44l-.14-.6c.06.22.12.42.19.62C1550.47,857,1550.63,857.53,1550.81,858.06Z" style="fill:#a2cc21"/><path d="M1558.47,878.48c.45,1.2.24,2-.46,1.71a4.29,4.29,0,0,1-1.81-2.62c-.31-1.14-.13-1.86.43-1.64A5.12,5.12,0,0,1,1558.47,878.48Z" style="fill:#a2cc21"/><path d="M1560,894.33c.12.47-.18.77-.68.65a1.53,1.53,0,0,1-1.09-1.08c-.1-.48.2-.77.68-.65A1.68,1.68,0,0,1,1560,894.33Z" style="fill:#a2cc21"/><path d="M1553.23,859.6a3.56,3.56,0,0,1,.71,1c0,.09-.39-.27-.79-.8a6,6,0,0,1-.7-1A4.38,4.38,0,0,1,1553.23,859.6Z" style="fill:#a2cc21"/><path d="M1577.09,856.28a1.52,1.52,0,1,1-1,2.85,1.53,1.53,0,1,1,1-2.85Z" style="fill:#a2cc21"/><path d="M1547.06,873.57c-.09.59-.52.94-1,.77a1.08,1.08,0,0,1-.49-1.33c.15-.57.58-.92,1-.78A1.23,1.23,0,0,1,1547.06,873.57Z" style="fill:#a2cc21"/><path d="M1572.13,874.33a2.05,2.05,0,0,1,.7,1.55c0,.49-.43.58-.83.2a2.24,2.24,0,0,1-.69-1.54C1571.33,874.07,1571.69,874,1572.13,874.33Z" style="fill:#a2cc21"/><path d="M1568.72,826.12c.66.68.39,2-.48,2.94s-2.18,1.28-2.9.68-.54-2,.41-3S1568.07,825.46,1568.72,826.12Z" style="fill:#a2cc21"/><path d="M1581.25,836.12a1.85,1.85,0,0,1-2.6,2.6,1.84,1.84,0,0,1,2.6-2.6Z" style="fill:#a2cc21"/><path d="M1589.22,849.42c.32.29.42.71.21.94a.7.7,0,0,1-1-.06.61.61,0,1,1,.75-.88Z" style="fill:#a2cc21"/><path d="M1587.6,815.42c.19.43-.15,1-.75,1.28a1.12,1.12,0,0,1-1.46-.26c-.21-.43.12-1,.74-1.29S1587.41,815,1587.6,815.42Z" style="fill:#a2cc21"/><path d="M1601.49,854.59c.52.79.69,1.55.43,1.76s-1-.21-1.56-.93-.8-1.52-.46-1.79S1601,853.82,1601.49,854.59Z" style="fill:#a2cc21"/><path d="M1619.56,833.55a1.5,1.5,0,1,1-2.93-.58,1.51,1.51,0,1,1,2.93.58Z" style="fill:#a2cc21"/><path d="M1570.38,851.05a1.15,1.15,0,0,1-.92,2.1,1.15,1.15,0,0,1,.92-2.1Z" style="fill:#a2cc21"/><path d="M1601.83,832.19a.84.84,0,1,1-1.62.47.85.85,0,1,1,1.62-.47Z" style="fill:#a2cc21"/><path d="M1648.23,821.24a2.1,2.1,0,0,1-2.86,0c-1-.74-1.52-1.92-1-2.71s1.87-.83,3,0S1648.8,820.5,1648.23,821.24Z" style="fill:#a2cc21"/><path d="M1640,835a1.81,1.81,0,0,1-2.87-2.18A1.81,1.81,0,0,1,1640,835Z" style="fill:#a2cc21"/><path d="M1627.86,844.63c-.25.36-.67.52-.93.35a.72.72,0,0,1-.06-1,.7.7,0,0,1,.93-.34A.68.68,0,0,1,1627.86,844.63Z" style="fill:#a2cc21"/><path d="M1660.6,836.14a1,1,0,0,1-1.31-.27,1,1,0,0,1,0-1.35,1.06,1.06,0,0,1,1.3,1.62Z" style="fill:#a2cc21"/><path d="M1625.26,858.2c-.67.65-1.51.88-1.88.51a.86.86,0,0,1-.14-.81,2.56,2.56,0,0,1,.6-1.06c.62-.69,1.47-1,1.88-.58S1625.93,857.54,1625.26,858.2Z" style="fill:#a2cc21"/><path d="M1656.41,872.58c-.55.92-1.39.95-1.87,0a3.28,3.28,0,0,1,.29-3.21c.64-.83,1.48-.83,1.88,0A3.86,3.86,0,0,1,1656.41,872.58Z" style="fill:#a2cc21"/><path d="M1623.77,826.17a1.09,1.09,0,0,1-1.4.68,1.13,1.13,0,0,1-.87-1.31,1.14,1.14,0,0,1,1.43-.76A1.16,1.16,0,0,1,1623.77,826.17Z" style="fill:#a2cc21"/><path d="M1648.17,854a.86.86,0,0,1-1.21-.2.88.88,0,0,1,.26-1.2.86.86,0,0,1,1.23.18A.88.88,0,0,1,1648.17,854Z" style="fill:#a2cc21"/><path d="M1671.73,849.37a6.94,6.94,0,0,1-.53,2.56,8.54,8.54,0,0,1,.33-2.68c.13-.64.26-1.22.38-1.8,0-.24.09-.48.14-.75,0,.27-.07.52-.1.78C1671.88,848.09,1671.81,848.7,1671.73,849.37Z" style="fill:#a2cc21"/><path d="M1669.87,874.78a3.93,3.93,0,0,1-.51,1.81c-.27.43-.63.64-1,.48-.69-.29-1-1.79-.76-3.23s.85-2.33,1.41-2.1a1.63,1.63,0,0,1,.66,1A6,6,0,0,1,1669.87,874.78Z" style="fill:#a2cc21"/><path d="M1663.75,891.56a.6.6,0,0,1-1,.38,1.31,1.31,0,0,1-.58-1.29.55.55,0,0,1,.91-.33A1.29,1.29,0,0,1,1663.75,891.56Z" style="fill:#a2cc21"/><path d="M1673.35,851.73a3.77,3.77,0,0,1,.2,1.31c-.06.06-.24-.46-.39-1.15a6.06,6.06,0,0,1-.19-1.31A4.9,4.9,0,0,1,1673.35,851.73Z" style="fill:#a2cc21"/><path d="M1694.74,859.22a1.64,1.64,0,0,1,.63,2.12,1.56,1.56,0,0,1-2.31.66,1.94,1.94,0,0,1-.56-2.47A1.54,1.54,0,0,1,1694.74,859.22Z" style="fill:#a2cc21"/><path d="M1662,865.77c-.33.64-.76.83-1,.41a2.29,2.29,0,0,1,.31-1.82c.36-.59.79-.78,1-.42A2.63,2.63,0,0,1,1662,865.77Z" style="fill:#a2cc21"/><path d="M1684.87,875.54a1.94,1.94,0,0,1-.07,1.67c-.28.4-.68.31-.88-.2a2,2,0,0,1,.12-1.63C1684.27,875,1684.65,875,1684.87,875.54Z" style="fill:#a2cc21"/><path d="M1703.78,828.12c.11.94-1.06,1.83-2.66,2.17s-3.12,0-3.37-.93a1.42,1.42,0,0,1,.59-1.4,4.43,4.43,0,0,1,2.1-1C1702.19,826.6,1703.66,827.2,1703.78,828.12Z" style="fill:#a2cc21"/><path d="M1707.87,843.67a2,2,0,0,1-3.91.54,2,2,0,0,1,3.91-.54Z" style="fill:#a2cc21"/><path d="M1706.46,859c.1.43,0,.82-.22.87s-.48-.21-.62-.63,0-.82.2-.89S1706.36,858.61,1706.46,859Z" style="fill:#a2cc21"/><path d="M1727.34,832.6c-.16.45-.83.61-1.5.38s-1.1-.75-1-1.2.81-.64,1.51-.42S1727.5,832.16,1727.34,832.6Z" style="fill:#a2cc21"/><path d="M1711.12,870.76c-.13.92-.39,1.67-.57,1.64s-.28-.78-.27-1.7.23-1.69.52-1.68S1711.25,869.82,1711.12,870.76Z" style="fill:#a2cc21"/><path d="M1737,868.7a1.54,1.54,0,1,1-1.68-2.56,1.58,1.58,0,0,1,2.27.34A1.59,1.59,0,0,1,1737,868.7Z" style="fill:#a2cc21"/><path d="M1689.61,852.41a1.21,1.21,0,0,1,0,1.66,1.19,1.19,0,0,1-1.6.37,1.18,1.18,0,0,1-.09-1.69A1.2,1.2,0,0,1,1689.61,852.41Z" style="fill:#a2cc21"/><path d="M1725.93,854.64a.84.84,0,1,1-1.45-.83.87.87,0,0,1,1.18-.38A.86.86,0,0,1,1725.93,854.64Z" style="fill:#a2cc21"/><path d="M1793.5,853.2c-.1.94-1.35,1.57-2.92,1.48s-2.83-.91-2.79-1.85,1.43-1.65,3-1.53S1793.57,852.27,1793.5,853.2Z" style="fill:#a2cc21"/><path d="M1794.58,869.27c-.1.93-1.26,1.57-2.6,1.45s-2.38-.94-2.33-1.87,1.25-1.62,2.63-1.5S1794.68,868.34,1794.58,869.27Z" style="fill:#a2cc21"/><path d="M1787.53,883.77a1,1,0,0,1-2-.08.89.89,0,0,1,1-.76A.9.9,0,0,1,1787.53,883.77Z" style="fill:#a2cc21"/><path d="M1815.45,857.83c-.07.47-.7.76-1.41.65s-1.22-.58-1.15-1,.69-.77,1.41-.65S1815.53,857.37,1815.45,857.83Z" style="fill:#a2cc21"/><path d="M1799.41,897.14a2.07,2.07,0,0,1-2.5,1.39c-1.23-.15-2.12-1-2-1.95a2,2,0,0,1,2.44-1.41C1798.6,895.33,1799.53,896.21,1799.41,897.14Z" style="fill:#a2cc21"/><path d="M1768.58,870.56c.15.56-.44,1.24-1.32,1.53s-1.76.13-2-.43.36-1.31,1.3-1.6S1768.42,870,1768.58,870.56Z" style="fill:#a2cc21"/><path d="M1821.41,879.89a1.14,1.14,0,0,1-1.42.63c-.67-.15-1.13-.66-1-1.15s.74-.77,1.42-.62S1821.51,879.41,1821.41,879.89Z" style="fill:#a2cc21"/></g><path d="M1718,905.51s-1.35-25.59,19.52-28.28a15,15,0,0,1,14.14,0s-8.75-53.86,72-33c0,0-6.06-36.36,15.49-43.09s33.66,12.12,33.66,17.51-6.73-57.23,31.64-60.6c0,0,31.65,0,38.38,37,0,0,19.9-82.81,96.8-47.8V905.51Z" style="fill:#72b220"/><path d="M1960.34,886.3a7,7,0,0,1-3.84-1.1c-2.63-1.69-4-5.21-3.58-9,.4-3.27,2-6.27,3.44-8.91,2.45-4.54,4.94-9.14,7.69-13.58a24.47,24.47,0,0,0-6.24-6.19c-2.2-1.49-5.56-3.15-9.08-2.63a16.36,16.36,0,0,0-5.14,2,64.94,64.94,0,0,0-23.94,22.44l-1.38,2.19V869a130.1,130.1,0,0,0-3.18-28.29,17.77,17.77,0,0,0-2.21-6c-2.31-3.44-7.14-5.1-11.72-4-4,.92-7.75,3.71-10.65,7.87s-4.64,9.08-6.2,13.46c-.46,1.3-1,2.73-1.34,4.22a25.61,25.61,0,0,1,8.53,5.6,5.06,5.06,0,0,1,1.54,2.43c.43,2-1.22,3.86-3,4.43a5.94,5.94,0,0,1-4.79-.62,8.74,8.74,0,0,1-4-5.54,13.3,13.3,0,0,1,0-5.37,36,36,0,0,0-15.46-1.77c-6.61.6-12,2.54-16.16,5.76a19.52,19.52,0,0,0-5.16,6.06,13,13,0,0,1,3.6,8.8c0,2.2-1.16,4.59-3.3,4.69s-3.61-2.27-3.79-4.69a17,17,0,0,1,1.66-8.49,20.15,20.15,0,0,0-7.51-4.57c-14.58-5-30.25,3.27-40.83,11l-.89-1.21c10.87-8,27-16.4,42.21-11.24a21.71,21.71,0,0,1,7.75,4.57,21.28,21.28,0,0,1,5.34-6.14c4.34-3.4,10-5.44,16.94-6.06a37.45,37.45,0,0,1,15.93,1.79c.38-1.49.88-2.9,1.34-4.18,1.59-4.48,3.39-9.54,6.38-13.82,3.11-4.46,7.21-7.47,11.54-8.47,5.18-1.21,10.65.71,13.31,4.66a19,19,0,0,1,2.42,6.53,132.33,132.33,0,0,1,3.19,26.16,66.23,66.23,0,0,1,23.15-20.89,17.39,17.39,0,0,1,5.62-2.15c4-.61,7.73,1.23,10.15,2.86a25.93,25.93,0,0,1,6.26,6.07,76,76,0,0,1,12.67-15.58c10.37-9.47,23.68-13.49,34.73-10.47l-.39,1.44c-12.63-3.43-25.5,3-33.33,10.14a75.48,75.48,0,0,0-12.75,15.8,32.48,32.48,0,0,1,5.14,17.92c0,4.79-1.14,8.55-3.33,11.17A9.92,9.92,0,0,1,1960.34,886.3Zm4.62-31.17c-2.59,4.24-5,8.61-7.28,12.92-1.43,2.65-2.91,5.39-3.27,8.38-.3,2.41.29,5.83,2.9,7.51,3,1.92,7.1.41,9.19-2.09,2-2.34,3-5.78,3-10.22A31.13,31.13,0,0,0,1965,855.13Zm-121.25,13.52a15.32,15.32,0,0,0-1.26,7.18c.1,1.41.86,3.38,2.21,3.31s1.88-1.91,1.88-3.2A11.34,11.34,0,0,0,1843.71,868.65Zm38.94-11a11.69,11.69,0,0,0,0,4.49,7.32,7.32,0,0,0,3.34,4.56,4.44,4.44,0,0,0,3.58.49c1.15-.37,2.23-1.54,2-2.69a3.82,3.82,0,0,0-1.13-1.69A24.31,24.31,0,0,0,1882.65,857.65Z" style="fill:#a2cc21"/><path d="M1792,863.28c-1.9,0-3.79-.15-5.64-.3l-1-.08.32-.92a34.76,34.76,0,0,1,4.83-9.08,12.73,12.73,0,0,1,4.62-4.17c2.19-1,4.64-.94,6.8-.88l8.32.24,0,1.5-1.53-.05c-.94,4.62-2.5,7.79-4.87,10a15.17,15.17,0,0,1-8.46,3.58A27.47,27.47,0,0,1,1792,863.28Zm-4.53-1.72a38.31,38.31,0,0,0,7.72,0,13.91,13.91,0,0,0,7.64-3.2c2.08-1.91,3.48-4.75,4.36-8.9l-5.28-.15c-2-.06-4.25-.12-6.12.74a11.34,11.34,0,0,0-4,3.7A32.73,32.73,0,0,0,1787.43,861.56Z" style="fill:#a2cc21"/><path d="M1829.22,853.57h-.29a1.78,1.78,0,0,1-1.39-.61,1.88,1.88,0,0,1-.25-1.41l1-7.36a22.54,22.54,0,0,1,1.44-6.19,12,12,0,0,1,10.61-7v.06l.21-.09c2.4,5.74-.21,12-2.82,16.32C1835.19,851.4,1832.26,853.57,1829.22,853.57Zm-.45-1.52.23,0c3.26.14,5.83-3,7.43-5.57,2.27-3.72,4.56-9.06,3.08-14a10.52,10.52,0,0,0-8.43,6.06,21.23,21.23,0,0,0-1.32,5.78l-1,7.36a2.74,2.74,0,0,0,0,.31Z" style="fill:#a2cc21"/><path d="M1862.77,830.54a22.88,22.88,0,0,1-5-.53,13.69,13.69,0,0,1-7.13-3.61c-2.26-2.34-3.17-5.54-4-8.36l1.44-.41c.76,2.65,1.61,5.66,3.61,7.73a12.31,12.31,0,0,0,6.37,3.19,22,22,0,0,0,9.1,0,24.88,24.88,0,0,0-20.48-11.52v-1.5a26.39,26.39,0,0,1,21.82,12.35,1.51,1.51,0,0,1,.26,1.06c-.07.38-.35.87-1.28,1.07A23.34,23.34,0,0,1,1862.77,830.54Z" style="fill:#a2cc21"/><path d="M1884.89,802.34a46.09,46.09,0,0,1-4.88-.29l-.81-.08.15-.8c.57-3.09,2.85-5.49,4.68-7.42s4-4.19,6.67-5.43c3.5-1.63,7.45-1.42,10.94-1.24l-.08,1.5h0c.76,5-2.85,9.7-6.9,11.75A21.6,21.6,0,0,1,1884.89,802.34Zm-3.87-1.69c4,.36,8.88.4,13-1.66,3.69-1.87,6.85-6.23,6-10.49-2.9-.11-6-.07-8.69,1.18-2.44,1.13-4.35,3.15-6.21,5.1C1883.6,796.38,1881.74,798.34,1881,800.65Z" style="fill:#a2cc21"/><path d="M1901.41,782.35a35.81,35.81,0,0,1-4.76-.4c-3.2-.45-6.54-1.06-9.1-3.21a2.57,2.57,0,0,1-.92-1.3c-.25-1,.42-2.05,1.83-2.79a29.6,29.6,0,0,1,22.66-1.7l-.35,1,1.07-.11c.35,3.62-2.56,6.64-5.62,7.74A13.88,13.88,0,0,1,1901.41,782.35Zm.46-9.4a27.85,27.85,0,0,0-12.72,3c-.59.3-1.14.76-1.06,1.09a1.28,1.28,0,0,0,.43.51c2.25,1.9,5.35,2.46,8.34,2.87s6.07.72,8.85-.28c2.37-.85,4.75-3.19,4.65-5.9A27.35,27.35,0,0,0,1901.87,773Z" style="fill:#a2cc21"/><path d="M1913.07,806c-1.29,0-2.57-.06-3.85-.18l.13-1.34-1.23-.09c.3-4,3.05-8,7.18-10.38s8.64-2.9,12.23-3.17a1.9,1.9,0,0,1,1.38.29,2,2,0,0,1,.64,1.53c.2,3.3.23,6.74-1.82,9.23-1.77,2.14-4.59,2.92-6.84,3.36A41.11,41.11,0,0,1,1913.07,806Zm-3.44-1.64a40,40,0,0,0,11-.58c2-.39,4.5-1.07,6-2.85,1.7-2.07,1.67-5,1.48-8.18a1,1,0,0,0-.07-.44l-.34,0c-3.43.27-7.84.84-11.59,3S1910,800.82,1909.63,804.32Z" style="fill:#a2cc21"/><path d="M1884.38,822.49l-.13-.85c-.56-3.58.89-7.07,2.42-10.34a24.58,24.58,0,0,1,4.1-6.67,9.55,9.55,0,0,1,6.89-3.23l1-.53a17.42,17.42,0,0,1,2.41,6.75c.25,3.63-1.81,7.51-5.38,10.11-3.16,2.3-7,3.48-10.47,4.51Zm13.19-19.59a8.15,8.15,0,0,0-5.71,2.76,23.1,23.1,0,0,0-3.83,6.28c-1.3,2.78-2.54,5.72-2.39,8.6a30,30,0,0,0,9.15-4c2.48-1.8,5-5.06,4.77-8.79a13,13,0,0,0-1.56-4.84v0A3.1,3.1,0,0,0,1897.57,802.9Z" style="fill:#a2cc21"/><path d="M1913.09,827.47v-1c-.07-3.91.14-9,2.39-13.42s6.48-7.47,10.77-7.66c0-.21.1-.41.16-.62l1.43.47a8.17,8.17,0,0,0-.15,3.13l.36,4.69a12.49,12.49,0,0,1-.4,5.43c-1,2.53-3.3,4.12-5.24,5.21a37.66,37.66,0,0,1-8.37,3.48Zm13-20.54c-3.68.25-7.29,2.88-9.29,6.83-1.92,3.79-2.25,8.15-2.24,11.73a36,36,0,0,0,7.1-3.06c1.71-1,3.77-2.36,4.57-4.45a11.29,11.29,0,0,0,.3-4.77l-.36-4.69C1926.15,808,1926.1,807.47,1926.1,806.93Z" style="fill:#a2cc21"/><g style="opacity:0.8200000000000001"><path d="M1772,854a2.55,2.55,0,0,1-1.77,2.74,2,2,0,0,1-2.82-.92,2.59,2.59,0,0,1,1.77-2.88C1770.45,852.39,1771.71,852.9,1772,854Z" style="fill:#a2cc21"/><path d="M1778.08,871.48a2.17,2.17,0,0,1-1.28,2.48,1.73,1.73,0,0,1-2.19-1.29,2.12,2.12,0,0,1,1.26-2.56A1.69,1.69,0,0,1,1778.08,871.48Z" style="fill:#a2cc21"/><path d="M1778.67,889.81c.14.49,0,1-.27,1.11s-.64-.15-.8-.63-.06-1,.25-1.12S1778.53,889.33,1778.67,889.81Z" style="fill:#a2cc21"/><path d="M1792.06,853a1.08,1.08,0,0,1-1.1,1,1,1,0,1,1,0-2A1,1,0,0,1,1792.06,853Z" style="fill:#a2cc21"/><path d="M1815.4,885.45a1.54,1.54,0,0,1-2.21,1.16,2,2,0,0,1-.35-.19,2.55,2.55,0,0,1-.24-.23,2,2,0,0,1-.34-.6,2.53,2.53,0,0,1,0-1.52,1.57,1.57,0,0,1,2-1.26A2.39,2.39,0,0,1,1815.4,885.45Z" style="fill:#a2cc21"/><path d="M1761.45,881.14a1.56,1.56,0,0,1-.2,1.88,1,1,0,0,1-1.59,0,1.49,1.49,0,0,1,.2-1.88A1,1,0,0,1,1761.45,881.14Z" style="fill:#a2cc21"/><path d="M1798,877.9c-.06.59-.48,1-.93,1a1,1,0,0,1-.73-1.17c0-.59.47-1,.93-.95A1,1,0,0,1,1798,877.9Z" style="fill:#a2cc21"/><path d="M1803.67,845.34a6.93,6.93,0,0,1,.47,2.42,10,10,0,0,1-.69-2.53c-.11-.6-.22-1.15-.32-1.7l-.15-.71.19.73C1803.33,844.13,1803.49,844.71,1803.67,845.34Z" style="fill:#a2cc21"/><path d="M1811.25,869.51c.45,1.43.24,2.37-.45,2a5.18,5.18,0,0,1-1.8-3.11c-.31-1.35-.12-2.21.42-1.94A6,6,0,0,1,1811.25,869.51Z" style="fill:#a2cc21"/><path d="M1812.75,888.28c.12.56-.18.91-.67.78a1.69,1.69,0,0,1-1.08-1.28c-.1-.57.2-.92.67-.78A1.83,1.83,0,0,1,1812.75,888.28Z" style="fill:#a2cc21"/><path d="M1806.06,847.16a3.88,3.88,0,0,1,.7,1.23c0,.1-.38-.33-.77-.95a6.67,6.67,0,0,1-.7-1.22A4.36,4.36,0,0,1,1806.06,847.16Z" style="fill:#a2cc21"/><path d="M1829.63,900.09a1.93,1.93,0,0,1-.12,1.66,3.15,3.15,0,0,1-1.46,1.47c-1.33.66-2.68.23-3.06-.82a2.36,2.36,0,0,1,1.56-2.8,3.41,3.41,0,0,1,1.84-.35A1.54,1.54,0,0,1,1829.63,900.09Z" style="fill:#a2cc21"/><path d="M1829.68,843.24a2.07,2.07,0,0,1,1,2.37,1.56,1.56,0,0,1-2.07,1,2,2,0,0,1-1.08-2.39A1.48,1.48,0,0,1,1829.68,843.24Z" style="fill:#a2cc21"/><path d="M1800,863.7c-.1.71-.52,1.11-.94.92a1.4,1.4,0,0,1-.49-1.58c.15-.68.58-1.09.94-.93S1800.06,863,1800,863.7Z" style="fill:#a2cc21"/><path d="M1824.77,864.61a2.69,2.69,0,0,1,.7,1.83c-.06.58-.43.69-.83.24a3,3,0,0,1-.69-1.83C1824,864.29,1824.34,864.18,1824.77,864.61Z" style="fill:#a2cc21"/><path d="M1836.25,818.59c.66.8.38,2.31-.48,3.47s-2.16,1.53-2.86.81-.54-2.3.4-3.53S1835.61,817.81,1836.25,818.59Z" style="fill:#a2cc21"/><path d="M1848.65,830.42a2.47,2.47,0,0,1-.13,2.94,1.58,1.58,0,0,1-2.44.14,2.33,2.33,0,0,1,.08-3A1.53,1.53,0,0,1,1848.65,830.42Z" style="fill:#a2cc21"/><path d="M1856.54,846.17a.93.93,0,0,1,.21,1.11c-.19.29-.62.26-1-.07a1,1,0,0,1-.24-1.14C1855.78,845.78,1856.22,845.83,1856.54,846.17Z" style="fill:#a2cc21"/><path d="M1854.93,805.92a1.34,1.34,0,0,1-.73,1.51c-.6.31-1.24.19-1.45-.3a1.31,1.31,0,0,1,.73-1.53C1854.09,805.26,1854.75,805.41,1854.93,805.92Z" style="fill:#a2cc21"/><path d="M1868.68,852.29c.53.93.69,1.85.43,2.09s-1-.25-1.54-1.11-.79-1.79-.46-2.11S1868.18,851.38,1868.68,852.29Z" style="fill:#a2cc21"/><path d="M1886.57,827.38c-.22,1.08-1,1.76-1.76,1.58s-1.26-1.16-1.13-2.26.92-1.85,1.78-1.68A1.93,1.93,0,0,1,1886.57,827.38Z" style="fill:#a2cc21"/><path d="M1837.9,848.1a1.46,1.46,0,0,1,.51,1.75,1.06,1.06,0,0,1-1.43.74,1.42,1.42,0,0,1-.52-1.75C1836.72,848.13,1837.36,847.8,1837.9,848.1Z" style="fill:#a2cc21"/><path d="M1869,825.78a1.06,1.06,0,0,1-.56,1.27c-.42.16-.89-.16-1-.73A1.1,1.1,0,0,1,1868,825,.88.88,0,0,1,1869,825.78Z" style="fill:#a2cc21"/><path d="M1900.1,801.75c-.57.88-1.83.85-2.83,0a2.81,2.81,0,0,1-1-3.21c.5-.93,1.86-1,3,0S1900.66,800.88,1900.1,801.75Z" style="fill:#a2cc21"/><path d="M1892,818a1.58,1.58,0,0,1-2.43.29,2.4,2.4,0,0,1-.41-2.88,1.51,1.51,0,0,1,2.44-.3A2.26,2.26,0,0,1,1892,818Z" style="fill:#a2cc21"/><path d="M1879.93,829.44c-.24.43-.65.61-.92.41a1,1,0,0,1-.06-1.16c.23-.44.64-.62.92-.4A.91.91,0,0,1,1879.93,829.44Z" style="fill:#a2cc21"/><path d="M1912.34,819.38c-.37.35-.95.21-1.3-.32a1.31,1.31,0,0,1,0-1.59c.36-.36.94-.22,1.3.32A1.28,1.28,0,0,1,1912.34,819.38Z" style="fill:#a2cc21"/><path d="M1877.36,845.51c-.66.77-1.5,1-1.86.6a1.16,1.16,0,0,1-.14-1,3.25,3.25,0,0,1,.59-1.26c.62-.81,1.46-1.19,1.87-.68A2,2,0,0,1,1877.36,845.51Z" style="fill:#a2cc21"/><path d="M1908.19,862.53c-.54,1.1-1.37,1.12-1.85.06a4.58,4.58,0,0,1,.29-3.8c.63-1,1.47-1,1.86,0A5.31,5.31,0,0,1,1908.19,862.53Z" style="fill:#a2cc21"/><path d="M1875.88,807.59a1,1,0,0,1-1.38.8,1.35,1.35,0,0,1-.86-1.56,1.12,1.12,0,0,1,1.42-.89A1.41,1.41,0,0,1,1875.88,807.59Z" style="fill:#a2cc21"/><path d="M1900,840.59a.78.78,0,0,1-1.2-.24,1.18,1.18,0,0,1,.26-1.43.78.78,0,0,1,1.22.22A1.19,1.19,0,0,1,1900,840.59Z" style="fill:#a2cc21"/><path d="M1921.52,865.14a5.46,5.46,0,0,1-.51,2.14c-.27.51-.62.76-1,.57-.69-.34-1-2.12-.76-3.83s.84-2.76,1.39-2.49a1.93,1.93,0,0,1,.66,1.24A8.31,8.31,0,0,1,1921.52,865.14Z" style="fill:#a2cc21"/><path d="M1915.46,885a.58.58,0,0,1-.94.45,1.66,1.66,0,0,1-.57-1.52c.1-.53.5-.7.9-.39A1.62,1.62,0,0,1,1915.46,885Z" style="fill:#a2cc21"/><path d="M1913.75,854.46c-.33.77-.75,1-.94.5a3.15,3.15,0,0,1,.31-2.16c.36-.7.78-.92.94-.5A3.56,3.56,0,0,1,1913.75,854.46Z" style="fill:#a2cc21"/></g><path d="M-.67,850.94a55.21,55.21,0,0,1,56-6.05,55.23,55.23,0,0,1,82.22-18.28,75.24,75.24,0,0,1,140.83,19.27,55.23,55.23,0,0,1,79.9,55H-.67Z" style="fill:#72b220"/><path d="M307.62,892c-6.06-1.67-10.15-4.72-12.16-9.07-3.44-7.44.43-15.89.6-16.25l.28-.59.6.25c7,3,11.33,7,13,12.12,2.23,6.87-1.37,13-1.53,13.24l-.26.44Zm-10.93-9.64c1.78,3.85,5.41,6.6,10.77,8.19.75-1.49,2.87-6.42,1.16-11.69-1.48-4.53-5.37-8.22-11.59-11C296.24,869.88,294,876.58,296.69,882.35Z" style="fill:#bef495"/><path d="M315.91,884.16c-3.72-5-5.05-10-3.93-14.65,1.9-8,10.17-12.21,10.52-12.39l.58-.3.32.58c3.63,6.64,4.54,12.54,2.69,17.54-2.5,6.78-9.11,9.35-9.39,9.46l-.48.18Zm-2.62-14.33c-1,4.13.16,8.53,3.4,13.09,1.51-.7,6.22-3.26,8.14-8.46,1.64-4.47.87-9.79-2.3-15.81C320.65,859.75,314.77,863.65,313.29,869.83Z" style="fill:#bef495"/><g style="opacity:0.6000000000000001"><path d="M218.62,846.94c-6.05-1.67-10.15-4.72-12.16-9.08-3.43-7.43.44-15.88.6-16.24l.28-.59.6.25c7,3,11.33,7,13,12.12,2.23,6.87-1.37,13-1.53,13.24l-.26.44ZM207.7,837.3c1.78,3.85,5.4,6.6,10.77,8.19.74-1.49,2.86-6.42,1.15-11.69-1.47-4.53-5.37-8.22-11.58-11C207.24,824.83,205,831.53,207.7,837.3Z" style="fill:#bef495"/><path d="M226.92,839.11c-3.73-5.06-5.06-10-3.94-14.65,1.9-8,10.17-12.22,10.52-12.39l.58-.3.32.58c3.64,6.64,4.54,12.54,2.7,17.54-2.51,6.78-9.12,9.35-9.4,9.46l-.48.18Zm-2.63-14.33c-1,4.13.16,8.53,3.4,13.09,1.51-.7,6.23-3.26,8.14-8.46,1.64-4.47.87-9.79-2.3-15.81C231.66,814.7,225.77,818.59,224.29,824.78Z" style="fill:#bef495"/></g><g style="opacity:0.6000000000000001"><path d="M77.16,865.15c-5.08-1.39-8.51-3.95-10.2-7.61-2.87-6.23.36-13.31.5-13.61l.28-.59.6.25c5.83,2.48,9.48,5.9,10.86,10.15a14.52,14.52,0,0,1-1.28,11.11l-.27.44Zm-9-8.17c1.46,3.15,4.41,5.41,8.79,6.72a13.21,13.21,0,0,0,.92-9.55c-1.21-3.71-4.39-6.75-9.47-9C67.75,846.91,66,852.32,68.2,857Z" style="fill:#bef495"/><path d="M84,858.6c-3.12-4.24-4.23-8.37-3.29-12.29,1.59-6.68,8.52-10.23,8.81-10.38l.59-.3.31.58c3,5.55,3.8,10.49,2.25,14.69a14.52,14.52,0,0,1-7.88,7.93l-.48.18Zm-2-12c-.81,3.38.12,7,2.75,10.73a13.29,13.29,0,0,0,6.63-6.94c1.34-3.66.72-8-1.86-13C87.9,838.45,83.21,841.62,82,846.63Z" style="fill:#bef495"/></g><path d="M221.59,878.8c-6.06-1.67-10.15-4.72-12.16-9.08-3.43-7.43.43-15.88.6-16.24l.28-.59.6.25c7,3,11.33,7,13,12.12,2.23,6.87-1.37,13-1.53,13.24l-.26.44Zm-10.93-9.64c1.78,3.85,5.41,6.6,10.77,8.19.75-1.49,2.87-6.42,1.16-11.69-1.48-4.53-5.37-8.23-11.59-11C210.21,856.69,208,863.39,210.66,869.16Z" style="fill:#bef495"/><path d="M229.88,871c-3.72-5.06-5-10-3.93-14.65,1.9-8,10.17-12.22,10.52-12.39l.58-.3.32.58c3.63,6.63,4.54,12.54,2.69,17.54-2.5,6.78-9.11,9.35-9.39,9.46l-.48.18Zm-2.62-14.33c-1,4.13.16,8.53,3.4,13.09,1.51-.7,6.22-3.26,8.14-8.46,1.64-4.47.87-9.79-2.3-15.81C234.62,846.56,228.74,850.45,227.26,856.64Z" style="fill:#bef495"/><path d="M235.31,883.78l-.5-.14v-.52c.06-6.28,2-11,5.66-14.08,6.3-5.22,15.46-3.65,15.85-3.58l.65.11-.1.65c-1.08,7.49-3.9,12.76-8.38,15.65a16.14,16.14,0,0,1-8.77,2.45A17.22,17.22,0,0,1,235.31,883.78Zm6-13.69c-3.26,2.71-5,6.91-5.15,12.51,1.63.34,6.94,1.12,11.59-1.88,4-2.59,6.58-7.3,7.67-14C253.28,866.46,246.23,866,241.33,870.09Z" style="fill:#bef495"/><path d="M103.34,839.05c-6.06-1.67-10.15-4.72-12.16-9.08-3.43-7.44.43-15.89.6-16.24l.28-.6.6.26c7,3,11.33,7,13,12.11,2.23,6.88-1.37,13-1.53,13.24l-.26.44ZM92.41,829.4c1.78,3.86,5.4,6.61,10.77,8.19.75-1.48,2.87-6.41,1.16-11.68-1.47-4.53-5.37-8.23-11.59-11C92,816.93,89.74,823.62,92.41,829.4Z" style="fill:#bef495"/><path d="M111.64,831.22c-3.73-5.06-5.06-10-3.94-14.65,1.9-8,10.17-12.22,10.52-12.4l.58-.29.32.57c3.64,6.64,4.54,12.54,2.69,17.55-2.5,6.78-9.11,9.35-9.39,9.45l-.48.18ZM109,816.89c-1,4.12.16,8.53,3.4,13.09,1.51-.71,6.23-3.27,8.14-8.47,1.64-4.46.87-9.78-2.3-15.8C116.38,806.81,110.49,810.7,109,816.89Z" style="fill:#bef495"/><path d="M117.06,844l-.5-.15v-.51c.06-6.28,2-11,5.66-14.08,6.3-5.23,15.47-3.65,15.85-3.59l.65.12-.1.65c-1.08,7.49-3.9,12.75-8.38,15.64a16.06,16.06,0,0,1-8.76,2.46A17.25,17.25,0,0,1,117.06,844Zm6-13.69c-3.27,2.7-5,6.91-5.16,12.5,1.63.34,6.94,1.13,11.6-1.87,4-2.59,6.57-7.3,7.66-14C135,826.7,128,826.28,123.09,830.34Z" style="fill:#bef495"/><g style="opacity:0.86"><path d="M320.63,851.2c-.26.9.54,1.91,1.78,2.31s2.52.09,2.86-.78-.47-2-1.79-2.43S320.88,850.3,320.63,851.2Z" style="fill:#a2cc21"/><path d="M314.45,866a1.83,1.83,0,0,0,3.5,1,1.82,1.82,0,0,0-3.5-1Z" style="fill:#a2cc21"/><path d="M313.85,881.48c-.14.41,0,.83.27.93a.72.72,0,0,0,.81-.53c.16-.41.06-.84-.26-1S314,881.07,313.85,881.48Z" style="fill:#a2cc21"/><path d="M300.32,850.36a1,1,0,0,0,1.12.86,1,1,0,0,0,1.12-.85c0-.47-.49-.86-1.12-.86S300.31,849.89,300.32,850.36Z" style="fill:#a2cc21"/><path d="M304.93,891.74c-.11.92.17,1.74.62,1.8s.93-.59,1.12-1.52-.07-1.75-.59-1.83S305,890.81,304.93,891.74Z" style="fill:#a2cc21"/><path d="M276.75,877.79a1.6,1.6,0,0,0,2.22,1,1.7,1.7,0,0,0,.36-.16,2,2,0,0,0,.24-.19,1.52,1.52,0,0,0,.34-.51,1.71,1.71,0,0,0,0-1.28,1.61,1.61,0,0,0-2.06-1.07A1.9,1.9,0,0,0,276.75,877.79Z" style="fill:#a2cc21"/><path d="M331.24,874.15a1.21,1.21,0,0,0,1.82,1.56,1.21,1.21,0,0,0-1.82-1.56Z" style="fill:#a2cc21"/><path d="M294.34,871.42a.89.89,0,0,0,.94.8.88.88,0,0,0,.74-1,.85.85,0,1,0-1.68.19Z" style="fill:#a2cc21"/><path d="M269.45,854.83c-.4,1.18-.61,2.1-.48,2a7.06,7.06,0,0,0,.69-2.14c.12-.51.23-1,.33-1.43l.15-.6c-.07.21-.13.41-.19.62Z" style="fill:#a2cc21"/><path d="M261.79,875.24c-.46,1.21-.24,2,.45,1.72a4.32,4.32,0,0,0,1.82-2.62c.31-1.15.13-1.87-.43-1.64A5,5,0,0,0,261.79,875.24Z" style="fill:#a2cc21"/><path d="M260.27,891.1c-.12.47.18.76.68.65a1.53,1.53,0,0,0,1.09-1.08c.1-.48-.21-.78-.68-.65A1.64,1.64,0,0,0,260.27,891.1Z" style="fill:#a2cc21"/><path d="M267,856.37a3.12,3.12,0,0,0-.71,1c0,.08.38-.28.79-.8a6,6,0,0,0,.7-1C267.79,855.52,267.44,855.88,267,856.37Z" style="fill:#a2cc21"/><path d="M243.17,853.05a1.52,1.52,0,1,0,1,2.85,1.53,1.53,0,1,0-1-2.85Z" style="fill:#a2cc21"/><path d="M273.19,870.33c.1.6.53.94.95.78a1.1,1.1,0,0,0,.5-1.33c-.16-.57-.59-.93-1-.79A1.23,1.23,0,0,0,273.19,870.33Z" style="fill:#a2cc21"/><path d="M248.13,871.1a2.08,2.08,0,0,0-.71,1.55c.06.49.43.58.84.2a2.24,2.24,0,0,0,.69-1.54C248.93,870.83,248.57,870.74,248.13,871.1Z" style="fill:#a2cc21"/><path d="M251.54,822.89c-.67.68-.39,2,.48,2.93s2.18,1.29,2.89.69.54-2-.41-3S252.18,822.23,251.54,822.89Z" style="fill:#a2cc21"/><path d="M239,832.88a1.85,1.85,0,0,0,2.6,2.6,1.84,1.84,0,0,0-2.6-2.6Z" style="fill:#a2cc21"/><path d="M231,846.18c-.33.3-.42.72-.21.94s.62.22,1-.06a.61.61,0,1,0-.75-.88Z" style="fill:#a2cc21"/><path d="M232.66,812.19c-.19.43.15,1,.74,1.27s1.25.17,1.46-.25-.11-1-.73-1.3S232.85,811.76,232.66,812.19Z" style="fill:#a2cc21"/><path d="M218.77,851.36c-.53.78-.7,1.55-.43,1.76s1-.21,1.56-.94.79-1.51.46-1.78S219.28,850.59,218.77,851.36Z" style="fill:#a2cc21"/><path d="M200.7,830.31a1.5,1.5,0,1,0,2.92-.57,1.51,1.51,0,1,0-2.92.57Z" style="fill:#a2cc21"/><path d="M249.87,847.81a1.16,1.16,0,0,0,.93,2.11,1.16,1.16,0,0,0-.93-2.11Z" style="fill:#a2cc21"/><path d="M218.43,829a.84.84,0,1,0,1.06-.66A.89.89,0,0,0,218.43,829Z" style="fill:#a2cc21"/><path d="M172,818a2.08,2.08,0,0,0,2.85,0c1-.74,1.53-1.93,1-2.72s-1.88-.83-3,0S171.46,817.27,172,818Z" style="fill:#a2cc21"/><path d="M180.26,831.73a1.8,1.8,0,0,0,2.86-2.18,1.8,1.8,0,0,0-2.86,2.18Z" style="fill:#a2cc21"/><path d="M192.4,841.4a.73.73,0,0,0,.93.34.73.73,0,0,0,.06-1,.71.71,0,0,0-.93-.34A.69.69,0,0,0,192.4,841.4Z" style="fill:#a2cc21"/><path d="M159.66,832.9a1.05,1.05,0,0,0,1.29-1.61.93.93,0,0,0-1.31.26A1,1,0,0,0,159.66,832.9Z" style="fill:#a2cc21"/><path d="M195,855c.67.65,1.51.88,1.88.5a.84.84,0,0,0,.14-.8,2.59,2.59,0,0,0-.6-1.07c-.62-.68-1.47-1-1.88-.58S194.33,854.31,195,855Z" style="fill:#a2cc21"/><path d="M163.85,869.34c.55.93,1.39.95,1.87,0a3.27,3.27,0,0,0-.29-3.2c-.64-.83-1.48-.83-1.88,0A3.79,3.79,0,0,0,163.85,869.34Z" style="fill:#a2cc21"/><path d="M196.49,822.94a1.1,1.1,0,0,0,1.4.68,1.08,1.08,0,1,0-.57-2.07A1.16,1.16,0,0,0,196.49,822.94Z" style="fill:#a2cc21"/><path d="M172.08,850.81a.87.87,0,0,0,1.22-.2.89.89,0,0,0-.26-1.21.87.87,0,0,0-1.23.19A.88.88,0,0,0,172.08,850.81Z" style="fill:#a2cc21"/><path d="M148.53,846.14a6.77,6.77,0,0,0,.53,2.56,8.6,8.6,0,0,0-.33-2.69c-.14-.63-.26-1.21-.38-1.79,0-.25-.09-.49-.14-.75,0,.27.06.52.1.78C148.38,844.85,148.45,845.47,148.53,846.14Z" style="fill:#a2cc21"/><path d="M150.38,871.55a4,4,0,0,0,.52,1.81c.27.43.63.64,1,.48.7-.29,1-1.79.76-3.23s-.85-2.34-1.4-2.11a1.58,1.58,0,0,0-.66,1A5.91,5.91,0,0,0,150.38,871.55Z" style="fill:#a2cc21"/><path d="M156.51,888.32a.6.6,0,0,0,1,.38,1.27,1.27,0,0,0,.57-1.28.54.54,0,0,0-.9-.33A1.28,1.28,0,0,0,156.51,888.32Z" style="fill:#a2cc21"/><path d="M146.91,848.49a3.36,3.36,0,0,0-.2,1.32c.06.06.24-.46.38-1.15a5.72,5.72,0,0,0,.2-1.32A4.14,4.14,0,0,0,146.91,848.49Z" style="fill:#a2cc21"/><path d="M125.51,856a1.62,1.62,0,0,0-.62,2.11,1.55,1.55,0,0,0,2.3.67,1.94,1.94,0,0,0,.57-2.47A1.54,1.54,0,0,0,125.51,856Z" style="fill:#a2cc21"/><path d="M158.23,862.53c.34.65.76.83,1,.42a2.31,2.31,0,0,0-.31-1.83c-.36-.59-.78-.77-1-.41A2.64,2.64,0,0,0,158.23,862.53Z" style="fill:#a2cc21"/><path d="M135.38,872.31a2,2,0,0,0,.07,1.66c.29.41.69.32.88-.19a2,2,0,0,0-.11-1.64C136,871.73,135.61,871.81,135.38,872.31Z" style="fill:#a2cc21"/><path d="M116.47,824.89c-.11.94,1.07,1.83,2.67,2.17s3.11,0,3.37-.94a1.42,1.42,0,0,0-.59-1.39,4.43,4.43,0,0,0-2.1-1C118.07,823.37,116.59,824,116.47,824.89Z" style="fill:#a2cc21"/><path d="M112.39,840.44a1.88,1.88,0,0,0,1.73,1.88A1.91,1.91,0,0,0,116.3,841a2,2,0,0,0-3.91-.53Z" style="fill:#a2cc21"/><path d="M113.8,855.8c-.1.43,0,.82.21.87s.49-.22.62-.64.05-.81-.19-.88S113.9,855.38,113.8,855.8Z" style="fill:#a2cc21"/><path d="M92.92,829.37c.16.44.83.61,1.49.38s1.11-.75,1-1.2-.81-.65-1.51-.42S92.76,828.93,92.92,829.37Z" style="fill:#a2cc21"/><path d="M109.14,867.53c.13.91.38,1.66.57,1.64s.28-.78.27-1.71-.23-1.68-.52-1.67S109,866.59,109.14,867.53Z" style="fill:#a2cc21"/><path d="M83.26,865.46a1.53,1.53,0,1,0,1.68-2.55,1.54,1.54,0,1,0-1.68,2.55Z" style="fill:#a2cc21"/><path d="M130.65,849.18a1.31,1.31,0,0,0,1.58,2,1.17,1.17,0,0,0,.09-1.68A1.2,1.2,0,0,0,130.65,849.18Z" style="fill:#a2cc21"/><path d="M94.32,851.41a.84.84,0,1,0,1.45-.83.86.86,0,0,0-1.17-.38A.87.87,0,0,0,94.32,851.41Z" style="fill:#a2cc21"/><path d="M26.76,850c.09.93,1.35,1.57,2.91,1.47s2.84-.9,2.79-1.84-1.42-1.65-3-1.54S26.69,849,26.76,850Z" style="fill:#a2cc21"/><path d="M25.68,866c.1.93,1.25,1.58,2.59,1.46s2.39-.94,2.33-1.87S29.36,864,28,864.11,25.58,865.1,25.68,866Z" style="fill:#a2cc21"/><path d="M32.72,880.53a.92.92,0,0,0,1,.75.9.9,0,0,0,.95-.82.89.89,0,0,0-1-.76A.91.91,0,0,0,32.72,880.53Z" style="fill:#a2cc21"/><path d="M4.8,854.6c.08.47.71.75,1.42.64s1.22-.57,1.15-1-.69-.77-1.41-.66S4.73,854.13,4.8,854.6Z" style="fill:#a2cc21"/><path d="M20.84,893.91a2.07,2.07,0,0,0,2.5,1.39c1.24-.16,2.13-1,2-2s-1.18-1.56-2.43-1.4S20.72,893,20.84,893.91Z" style="fill:#a2cc21"/><path d="M51.68,867.33c-.16.56.44,1.24,1.32,1.53s1.75.12,2-.44-.35-1.31-1.29-1.6S51.84,866.74,51.68,867.33Z" style="fill:#a2cc21"/><path d="M-1.15,876.66a1.12,1.12,0,0,0,1.41.62c.67-.14,1.14-.65,1-1.14s-.73-.77-1.41-.63S-1.26,876.17-1.15,876.66Z" style="fill:#a2cc21"/></g><path d="M488.55,480.74s-15,.27-6.52-23.54C482,457.2,500.43,472.57,488.55,480.74Z" style="fill:#2a818a"/><path d="M486.18,482.58s-10.82-10.44,12-21.26C498.21,461.32,500.35,485.2,486.18,482.58Z" style="fill:#2a818a"/><path d="M503.53,487.2s-13.75-6.09,4-24.1C507.53,463.1,517.74,484.8,503.53,487.2Z" style="fill:#2a818a"/><path d="M507.12,484.08s-8.11-12.67,16.63-17.89C523.75,466.19,520.29,489.91,507.12,484.08Z" style="fill:#2a818a"/><path d="M519.44,487.18s-8.11-12.67,16.63-17.89C536.07,469.29,532.61,493,519.44,487.18Z" style="fill:#2a818a"/><path d="M550.26,492.61s-14.53,3.89-12-21.27C538.24,471.34,559.81,481.81,550.26,492.61Z" style="fill:#2a818a"/><path d="M554.14,490.32s-15-.58-5.2-23.87C548.94,466.45,566.45,482.83,554.14,490.32Z" style="fill:#2a818a"/><path d="M559.83,487.11s-13.6-6.42,4.57-24C564.4,463.11,574.09,485,559.83,487.11Z" style="fill:#2a818a"/><path d="M570.17,491.66s-13.6-6.42,4.58-24C574.75,467.67,584.44,489.6,570.17,491.66Z" style="fill:#2a818a"/><path d="M465.65,480.63s-10.83-10.44,12-21.26C477.68,459.37,479.82,483.25,465.65,480.63Z" style="fill:#2a818a"/><path d="M586.84,486.49S576,476,598.87,465.23C598.87,465.23,601,489.11,586.84,486.49Z" style="fill:#2a818a"/><path d="M598.24,488.26s-10.82-10.44,12-21.26C610.27,467,612.41,490.88,598.24,488.26Z" style="fill:#2a818a"/><path d="M401.83,446.92s-8.11-12.67,16.63-17.89C418.46,429,415,452.75,401.83,446.92Z" style="fill:#2a818a"/><path d="M414.15,450s-8.11-12.67,16.63-17.89C430.78,432.13,427.32,455.86,414.15,450Z" style="fill:#2a818a"/><path d="M437.45,468.72s-14.53,3.89-12-21.27C425.43,447.45,447,457.93,437.45,468.72Z" style="fill:#2a818a"/><path d="M441.32,466.43s-15-.58-5.19-23.87C436.13,442.56,453.64,458.94,441.32,466.43Z" style="fill:#2a818a"/><path d="M447,463.22s-13.6-6.42,4.57-24C451.59,439.22,461.28,461.15,447,463.22Z" style="fill:#2a818a"/><path d="M457.36,467.77s-13.6-6.42,4.58-24C461.94,443.78,471.62,465.71,457.36,467.77Z" style="fill:#2a818a"/><path d="M632.1,485.09s-14.89,2.12-9.37-22.56C622.73,462.53,642.88,475.52,632.1,485.09Z" style="fill:#2a818a"/><path d="M630,487.21s-12-9,9.32-22.58C639.3,464.63,644.36,488.07,630,487.21Z" style="fill:#2a818a"/><path d="M647.77,489.66s-14.4-4.35,1-24.41C648.77,465.25,661.57,485.53,647.77,489.66Z" style="fill:#2a818a"/><path d="M650.94,486.12s-9.61-11.58,14.3-19.8C665.24,466.32,664.73,490.29,650.94,486.12Z" style="fill:#2a818a"/><path d="M663.55,487.68s-9.6-11.57,14.3-19.8C677.85,467.88,677.34,491.85,663.55,487.68Z" style="fill:#2a818a"/><path d="M694.8,489.27s-13.94,5.65-14.54-19.63C680.26,469.64,703,477.38,694.8,489.27Z" style="fill:#2a818a"/><path d="M698.37,486.52s-15,1.28-8.09-23C690.28,463.47,709.67,477.57,698.37,486.52Z" style="fill:#2a818a"/><path d="M703.62,482.63s-14.29-4.69,1.59-24.38C705.21,458.25,717.52,478.83,703.62,482.63Z" style="fill:#2a818a"/><path d="M714.45,485.88s-14.29-4.7,1.58-24.38C716,461.5,728.35,482.07,714.45,485.88Z" style="fill:#2a818a"/><path d="M774.43,468s-13.93,5.65-14.54-19.63C759.89,448.4,782.58,456.15,774.43,468Z" style="fill:#2a818a"/><path d="M778,465.28s-15,1.28-8.09-23C769.91,442.24,789.3,456.34,778,465.28Z" style="fill:#2a818a"/><path d="M783.25,461.4S769,456.7,784.84,437C784.84,437,797.15,457.59,783.25,461.4Z" style="fill:#2a818a"/><path d="M794.08,464.64s-14.29-4.69,1.58-24.37C795.66,440.27,808,460.84,794.08,464.64Z" style="fill:#2a818a"/><path d="M609.36,487.81s-12-9,9.32-22.58C618.68,465.23,623.74,488.66,609.36,487.81Z" style="fill:#2a818a"/><path d="M730.35,478.69s-12-9,9.32-22.58C739.67,456.11,744.73,479.55,730.35,478.69Z" style="fill:#2a818a"/><path d="M741.88,479.05s-12-9,9.32-22.58C751.2,456.47,756.27,479.9,741.88,479.05Z" style="fill:#2a818a"/><path d="M774.15,413.66s-12-9,9.32-22.58C783.47,391.08,788.53,414.51,774.15,413.66Z" style="fill:#1f696d"/><path d="M785.68,414s-12-9,9.32-22.58C795,391.43,800.06,414.87,785.68,414Z" style="fill:#1f696d"/><path d="M1246.83,482.47s-15,1-7.74-23.18C1239.09,459.29,1258.26,473.7,1246.83,482.47Z" style="fill:#2a818a"/><path d="M1244.55,484.43s-11.35-9.87,10.92-21.85C1255.47,462.58,1258.84,486.31,1244.55,484.43Z" style="fill:#2a818a"/><path d="M1262.12,488.15s-14-5.38,2.75-24.28C1264.87,463.87,1276.19,485,1262.12,488.15Z" style="fill:#2a818a"/><path d="M1265.54,484.84s-8.75-12.23,15.69-18.72C1281.23,466.12,1279,490,1265.54,484.84Z" style="fill:#2a818a"/><path d="M1278,487.3s-8.74-12.23,15.69-18.72C1293.69,468.58,1291.46,492.45,1278,487.3Z" style="fill:#2a818a"/><path d="M1309.06,491.13s-14.31,4.64-13.09-20.62C1296,470.51,1318,479.86,1309.06,491.13Z" style="fill:#2a818a"/><path d="M1312.82,488.65s-15,.2-6.42-23.57C1306.4,465.08,1324.73,480.54,1312.82,488.65Z" style="fill:#2a818a"/><path d="M1318.34,485.15s-13.92-5.71,3.33-24.21C1321.67,460.94,1332.47,482.35,1318.34,485.15Z" style="fill:#2a818a"/><path d="M1328.9,489.16s-13.91-5.71,3.33-24.2C1332.23,465,1343,486.37,1328.9,489.16Z" style="fill:#2a818a"/><path d="M1223.94,483.54s-11.34-9.87,10.92-21.85C1234.86,461.69,1238.23,485.43,1223.94,483.54Z" style="fill:#2a818a"/><path d="M1345.28,483.13s-11.35-9.87,10.91-21.85C1356.19,461.28,1359.56,485,1345.28,483.13Z" style="fill:#2a818a"/><path d="M1356.75,484.32s-11.34-9.87,10.92-21.86C1367.67,462.46,1371,486.2,1356.75,484.32Z" style="fill:#2a818a"/><path d="M1161,456.38s-11.52-9.67,10.52-22.05C1171.49,434.33,1175.29,458,1161,456.38Z" style="fill:#2a818a"/><path d="M1173.66,455.65s-11.53-9.66,10.52-22C1184.18,433.6,1188,457.27,1173.66,455.65Z" style="fill:#2a818a"/><path d="M1195.17,473.1s-14.31,4.63-13.1-20.63C1182.07,452.47,1204.15,461.83,1195.17,473.1Z" style="fill:#2a818a"/><path d="M1198.92,470.61s-15,.2-6.41-23.57C1192.51,447,1210.83,462.5,1198.92,470.61Z" style="fill:#2a818a"/><path d="M1204.44,467.11s-13.91-5.71,3.33-24.2C1207.77,442.91,1218.58,464.31,1204.44,467.11Z" style="fill:#2a818a"/><path d="M1215,471.13s-13.92-5.71,3.33-24.2C1218.34,446.93,1229.15,468.33,1215,471.13Z" style="fill:#2a818a"/><path d="M1140.75,418.68s-14.3,4.64-13.09-20.62C1127.66,398.06,1149.74,407.41,1140.75,418.68Z" style="fill:#1f696d"/><path d="M1144.51,416.2s-15,.2-6.42-23.57C1138.09,392.63,1156.42,408.08,1144.51,416.2Z" style="fill:#1f696d"/><path d="M1150,412.69s-13.92-5.7,3.33-24.2C1153.36,388.49,1164.16,409.9,1150,412.69Z" style="fill:#1f696d"/><path d="M1160.59,416.71s-13.91-5.71,3.33-24.2C1163.92,392.51,1174.73,413.91,1160.59,416.71Z" style="fill:#1f696d"/><path d="M1390.41,479.4s-14.76,2.89-10.53-22C1379.88,457.36,1400.68,469.29,1390.41,479.4Z" style="fill:#2a818a"/><path d="M1388.4,481.63s-12.48-8.4,8.14-23C1396.54,458.6,1402.81,481.75,1388.4,481.63Z" style="fill:#2a818a"/><path d="M1406.29,483.16s-14.6-3.61-.26-24.43C1406,458.73,1419.86,478.32,1406.29,483.16Z" style="fill:#2a818a"/><path d="M1409.27,479.46s-10.19-11.07,13.27-20.51C1422.54,459,1423.26,482.91,1409.27,479.46Z" style="fill:#2a818a"/><path d="M1525.45,448.44s-13.82,5.93-14.93-19.33C1510.52,429.11,1533.36,436.39,1525.45,448.44Z" style="fill:#2a818a"/><path d="M1525.6,443.69s-14.8-2.68-1.79-24.37C1523.81,419.32,1538.85,438,1525.6,443.69Z" style="fill:#2a818a"/><path d="M1422,480.37s-10.19-11.07,13.26-20.52C1435.21,459.85,1435.94,483.82,1422,480.37Z" style="fill:#2a818a"/><path d="M1452.58,476.36S1439,482.72,1437,457.51C1437,457.51,1460.1,464.07,1452.58,476.36Z" style="fill:#2a818a"/><path d="M1456,473.43s-14.9,2.05-9.27-22.6C1446.73,450.83,1466.82,463.91,1456,473.43Z" style="fill:#2a818a"/><path d="M1461,469.27s-14.51-3.95.33-24.42C1461.37,444.85,1474.73,464.76,1461,469.27Z" style="fill:#2a818a"/><path d="M1472,472s-14.51-3.95.33-24.43C1472.35,447.53,1485.71,467.44,1472,472Z" style="fill:#2a818a"/><path d="M1367.84,483.29s-12.48-8.4,8.14-23C1376,460.26,1382.25,483.4,1367.84,483.29Z" style="fill:#2a818a"/><path d="M1489.14,466.16s-14.31-4.63,1.48-24.38C1490.62,441.78,1503,462.3,1489.14,466.16Z" style="fill:#2a818a"/><path d="M1500.16,462.76s-14.31-4.64,1.49-24.39C1501.65,438.37,1514.05,458.9,1500.16,462.76Z" style="fill:#2a818a"/><g style="opacity:0.52"><path d="M1713.34,569s-3.32-19.33-7.77-23.78-4.27.18-2.56,3.77,8.38,15.74,8.55,19.33S1713.34,569,1713.34,569Z" style="fill:#8ff1f9"/><path d="M1710,570.49s-8.6-.83-17.45-9.36-1-5.9,0-5.26,11.4,7.8,13,8.72,4.17.77,5,2.5,1.43,2.81,1.43,2.81S1711.77,570.49,1710,570.49Z" style="fill:#77dde0"/><path d="M1710.71,570.07s-10.61-13.43-15.4-17.88-5.13-6.67-3.59-7.19,16.35,11,19,17.45c0,0,2.09,4.84,1.9,6.38S1710.71,570.07,1710.71,570.07Z" style="fill:#6ce1f2"/></g><g style="opacity:0.52"><path d="M1358.53,673.58s-3.32-19.34-7.77-23.78-4.27.17-2.56,3.76,8.38,15.74,8.55,19.33S1358.53,673.58,1358.53,673.58Z" style="fill:#8ff1f9"/><path d="M1355.17,675.12s-8.6-.84-17.45-9.37-1-5.9,0-5.26,11.4,7.8,13,8.72,4.17.77,5,2.51,1.43,2.8,1.43,2.8S1357,675.12,1355.17,675.12Z" style="fill:#77dde0"/><path d="M1355.9,674.69s-10.61-13.43-15.4-17.88-5.13-6.67-3.59-7.18,16.35,10.94,19,17.45c0,0,2.09,4.83,1.9,6.37S1355.9,674.69,1355.9,674.69Z" style="fill:#6ce1f2"/></g><g style="opacity:0.52"><path d="M805.87,508.36s-3-17.21-6.92-21.17-3.81.15-2.28,3.35,7.46,14,7.61,17.21S805.87,508.36,805.87,508.36Z" style="fill:#8ff1f9"/><path d="M803.52,509.35s-9.44-12-13.71-15.91-4.57-5.94-3.2-6.4,14.56,9.75,16.91,15.53c0,0,1.87,4.31,1.69,5.68S803.52,509.35,803.52,509.35Z" style="fill:#6ce1f2"/></g><g style="opacity:0.52"><path d="M1818.78,566.34s-3-17.21-6.92-21.17-3.81.15-2.28,3.35,7.46,14,7.61,17.21S1818.78,566.34,1818.78,566.34Z" style="fill:#8ff1f9"/><path d="M1816.43,567.33s-9.44-12-13.71-15.92-4.57-5.94-3.2-6.39,14.56,9.74,16.91,15.53c0,0,1.86,4.3,1.69,5.67S1816.43,567.33,1816.43,567.33Z" style="fill:#6ce1f2"/></g><g style="opacity:0.52"><path d="M308.17,654.35s-2.95-17.21-6.91-21.17-3.81.15-2.29,3.35,7.46,14,7.62,17.21S308.17,654.35,308.17,654.35Z" style="fill:#8ff1f9"/><path d="M305.83,655.34s-9.45-12-13.71-15.91-4.57-5.94-3.2-6.4,14.56,9.75,16.91,15.54c0,0,1.86,4.3,1.69,5.67S305.83,655.34,305.83,655.34Z" style="fill:#6ce1f2"/></g><g style="opacity:0.48"><path d="M448.89,571.55s10.11-10.11,6.32-17.27-13.27,8.63-13.27,8.63,1.9-17.06-9.9-15.8,0,17.49,0,17.49,4.42,4.84,6.32,6.95S444.61,577,448.89,571.55Z" style="fill:#6ce1f2"/><path d="M423.4,566.49s-1.33-15.37-9-13.69-.28,11.8,2.67,13.69S422.56,570.07,423.4,566.49Z" style="fill:#6ce1f2"/></g><g style="opacity:0.48"><path d="M1263.7,631.72s.77-1.08,2.63-3.5,7.15-9.1,5.39-12-6.9.95-8.34,3.11c0,0,2.24-12.47-3.21-13.56s-1.75,14-1.75,14-5.53-7.08-9.12-4.26,3.12,8.45,3.12,8.45,5.24,4.34,7.21,5.13A16.64,16.64,0,0,1,1263.7,631.72Z" style="fill:#6ce1f2"/><path d="M1265.42,632.21s2-7.11,6-8.42-.09,5.46-1.24,6.13S1265.68,634.65,1265.42,632.21Z" style="fill:#6ce1f2"/><path d="M1261.32,631.52a15.13,15.13,0,0,0-7.67-4.23c-4.81-1-1.48,2.54-.39,3.43a12.15,12.15,0,0,0,5.6,1.92C1260.44,632.66,1262.12,633.14,1261.32,631.52Z" style="fill:#6ce1f2"/></g><g style="opacity:0.48"><path d="M139.57,680.83s.78-1.08,2.63-3.5,7.15-9.1,5.4-12-6.91,1-8.34,3.11c0,0,2.23-12.46-3.22-13.55s-1.74,14-1.74,14-5.53-7.09-9.12-4.26,3.11,8.45,3.11,8.45,5.24,4.34,7.22,5.13A16.71,16.71,0,0,1,139.57,680.83Z" style="fill:#6ce1f2"/><path d="M141.29,681.31s2-7.1,6-8.41-.09,5.45-1.24,6.13S141.56,683.75,141.29,681.31Z" style="fill:#6ce1f2"/><path d="M137.19,680.62a15.07,15.07,0,0,0-7.66-4.22c-4.82-1-1.49,2.54-.39,3.43a12.26,12.26,0,0,0,5.6,1.91C136.31,681.76,138,682.25,137.19,680.62Z" style="fill:#6ce1f2"/></g><g style="opacity:0.48"><path d="M50.65,564s.77-1.09,2.63-3.51,7.15-9.09,5.4-12-6.91,1-8.35,3.11c0,0,2.24-12.47-3.21-13.56s-1.74,14-1.74,14-5.54-7.08-9.13-4.25,3.12,8.45,3.12,8.45,5.24,4.33,7.22,5.12A16.94,16.94,0,0,1,50.65,564Z" style="fill:#6ce1f2"/><path d="M52.37,564.52s2-7.11,6-8.42-.09,5.46-1.24,6.14S52.64,567,52.37,564.52Z" style="fill:#6ce1f2"/><path d="M48.27,563.83a15.13,15.13,0,0,0-7.66-4.23c-4.82-1-1.49,2.55-.39,3.43a12.08,12.08,0,0,0,5.6,1.92C47.39,565,49.07,565.46,48.27,563.83Z" style="fill:#6ce1f2"/></g><ellipse cx="1203.92" cy="671.52" rx="5.96" ry="3.83" style="fill:#6ce1f2;opacity:0.38"/><ellipse cx="984.96" cy="686.96" rx="4.66" ry="2.99" style="fill:#6ce1f2;opacity:0.38"/><ellipse cx="1490.2" cy="486.61" rx="7.44" ry="4.78" style="fill:#6ce1f2;opacity:0.38"/><ellipse cx="1696.34" cy="667.03" rx="9.29" ry="5.97" style="fill:#6ce1f2;opacity:0.38"/><ellipse cx="299.33" cy="483.35" rx="9.29" ry="5.97" style="fill:#6ce1f2;opacity:0.38"/><path d="M412.62,157.79h168s15.68-24.64-32.48-31.36c0,0,18.54-30.54-2-50s-45.29,6.39-44.74,13.34c0,0-30.84-7.18-30.28,23.78,0,0-62.53,3.17-31.13,37.63Z" style="fill:#fff"/><path d="M1140.5,159s4-10.42,15.29-6.25c0,0,4.17-12.09,20.43-12.5,0,0,3.75-11.26,16.25-5.84,0,0-6.67-19.59,21.26-20s28.34,25.85,27.09,34.18c0,0,11.26.42,9.17,10.42Z" style="fill:#fff"/></g></g></svg>