<svg id="Layer_15" data-name="Layer 15" xmlns="http://www.w3.org/2000/svg" viewBox="0 0 204.9 219"><defs><style>.cls-1{fill:#87888b;}.cls-2{fill:#404143;}.cls-3{fill:#ce00b1;}.cls-4{opacity:0.24;}.cls-4,.cls-8{isolation:isolate;}.cls-5{fill:#9b9da0;}.cls-6{fill:#848689;}.cls-7{fill:none;}.cls-8{fill:#fff;opacity:0.6;}</style></defs><path class="cls-1" d="M89.17,26.18c0,1.32,6,2.39,13.41,2.39S116,27.5,116,26.18V18.94H89.17Z"/><ellipse class="cls-2" cx="102.27" cy="192.19" rx="26.57" ry="11.04"/><path class="cls-3" d="M128.84,191.19V57.42C126.4,41.56,109.4,39.68,109.4,39.68H95.5s-17,1.88-19.44,17.74V191.19s-.25,6.23,6.22,6.23h40.34C129.09,197.37,128.84,191.19,128.84,191.19Z"/><path class="cls-2" d="M129.21,191.19a7,7,0,0,1-1.77,4.8,6.37,6.37,0,0,1-4.82,1.75H82.28a6.35,6.35,0,0,1-4.82-1.8,7.07,7.07,0,0,1-1.77-4.81V57.42c2.46-16,19.6-18.08,19.77-18.1H109.4c.21,0,17.35,2.09,19.81,18M95.5,40.05c-.12,0-16.71,2-19.08,17.42V191.19A6.45,6.45,0,0,0,78,195.43,5.66,5.66,0,0,0,82.28,197h40.34a5.64,5.64,0,0,0,4.29-1.57,6.46,6.46,0,0,0,1.56-4.27V57.42c-2.36-15.35-19-17.35-19.11-17.37Z"/><ellipse class="cls-3" cx="102.43" cy="191.77" rx="26.01" ry="10.62"/><path class="cls-4" d="M128.84,191.19V57.42C126.4,41.56,109.4,39.68,109.4,39.68H95.5s-17,1.88-19.44,17.74V191.19a6.64,6.64,0,0,0,2,4.83c3.76,4,13.2,6.79,24.26,6.79,10.43,0,19.43-2.51,23.57-6.13C129,195,128.84,191.19,128.84,191.19ZM79.17,183.7l.18-123c.49-11.88,12.37-15,12.37-15a76.71,76.71,0,0,1,15,0A17.65,17.65,0,0,1,120,61.7V187.27a8.43,8.43,0,0,1-1,3.26c-2.32,4.27-7.57,4.92-8.3,5a92.08,92.08,0,0,1-26.95-1.91,8.4,8.4,0,0,1-4.58-10Z"/><path class="cls-4" d="M77.48,54.34A19.34,19.34,0,0,1,85,46.93a33.31,33.31,0,0,1,23.83-2.79c7.74,2,15,6,19.35,12.85.22.35.42.71.63,1.07v-.61C126.4,41.56,109.4,39.68,109.4,39.68H95.5S79.14,41.5,76.22,56.55C76.64,55.79,77.08,55.05,77.48,54.34Z"/><path class="cls-5" d="M89.54,19.75h26.12V40.86a46.81,46.81,0,0,1-13.93,1.84,46.74,46.74,0,0,1-12.19-1.84Z"/><path class="cls-6" d="M115.66,41.19a46.77,46.77,0,0,1-12.59,1.86,46.49,46.49,0,0,1-13.53-1.86c-.24-.16-.37-.33-.37-.5h0V19.17c0-.29.17-.52.37-.53h26.12c.19,0,.33.26.34.53V40.68a.42.42,0,0,1-.09.36A.36.36,0,0,1,115.66,41.19Z"/><path class="cls-4" d="M89.79,19.48l25.87-.05V40.06a1,1,0,0,1-.77,1,48.26,48.26,0,0,1-12.13,1.6,48.18,48.18,0,0,1-12.45-1.6,1,1,0,0,1-.77-1V19.73A.25.25,0,0,1,89.79,19.48Z"/><path class="cls-4" d="M89.54,18.94h3V41.58A13.32,13.32,0,0,1,91,41.32c-.33-.08-.63-.17-.92-.26a.82.82,0,0,1-.56-.77Z"/><path class="cls-4" d="M107.3,18.94h8.35V40.21a.81.81,0,0,1-.63.8c-1.07.25-2.19.49-3.36.71-1.52.29-3,.51-4.36.69Z"/><path class="cls-7" d="M106.49,47.08a39.55,39.55,0,0,0-14.8-1.3s-11.88,3.09-12.37,15V184.39s-1.3,7.81,4.4,9.27h26s9.93,1.14,10.25-6.34V61.73S119.83,52.45,106.49,47.08Z"/><path class="cls-8" d="M92.49,46.78s-11.62,4-11.74,16.15,0,119.07,0,119.07L83.52,65.19S83.74,52.71,92.49,46.78Z"/><path class="cls-5" d="M116,18.94c0,1.75-6,3.17-13.41,3.17s-13.42-1.42-13.42-3.17,6-3.17,13.42-3.17S116,17.18,116,18.94Z"/></svg>