<svg id="Layer_2" data-name="Layer 2" xmlns="http://www.w3.org/2000/svg" viewBox="0 0 204.9 219"><defs><style>.cls-1{fill:#f43a1c;}.cls-2{fill:#d32b1a;}.cls-3{fill:#ececec;}.cls-4{fill:#c6c6c6;}.cls-5{opacity:0.18;}.cls-6{fill:#fff;}</style></defs><circle class="cls-1" cx="101.99" cy="109.5" r="66.17" transform="translate(-47.56 104.19) rotate(-45)"/><path class="cls-2" d="M136.41,53a66.17,66.17,0,0,1-85.12,99,66.17,66.17,0,1,0,85.12-99Z"/><path class="cls-3" d="M150.92,64.93a66.09,66.09,0,0,0-9.09-8.28c-3.29,5.44-19.42,29.77-49.35,37.13-34,8.38-52.67-7-52.68-7a65.62,65.62,0,0,0-3.39,13.76c.13.08,23.79,16.1,63.05,6.11C138.26,96.82,150.58,65.81,150.92,64.93Z"/><path class="cls-3" d="M120.68,150.18c-24.41,10.54-63.65,4.89-67.17,4.24a66.33,66.33,0,0,0,12.16,10.31c5.15,2.26,33.38,5.52,59.55-4.24,24.71-9.22,39.43-29.58,39.43-29.58h0a65.92,65.92,0,0,0,3.52-19.51C167.46,112.56,152.33,136.49,120.68,150.18Z"/><path class="cls-4" d="M126.76,147.31a66.21,66.21,0,0,1-70.18,7.54c-1.54-.2-2.75-.4-3.2-.49a68,68,0,0,0,12.23,10.47c5.15,2.26,33.45,5.39,59.63-4.37,24.25-9,38.87-28.82,39.41-29.55a66.17,66.17,0,0,0,3.52-19.5C167.22,112.94,154,133.56,126.76,147.31Z"/><g class="cls-5"><path class="cls-6" d="M62.6,68.18C55.51,75.72,51,85.9,51.3,96.24c.18,5.55,1.87,11.26,5.81,15.17s10.41,5.5,15.25,2.78c2.89-1.63,4.85-4.5,6.5-7.38,3.27-5.73,5.79-12,10.23-16.9,6.54-7.22,16.57-10.62,22.78-18.12,2.59-3.13,4.44-7.45,2.91-11.2C111.7,53,96.15,51.9,89.31,52.83,79.62,54.16,69.15,61.22,62.6,68.18Z"/></g><path class="cls-6" d="M76.88,109.92a36.43,36.43,0,0,0,2-3.12C81,103,82.86,99,85.14,95.26c-14.74,2.36-26.1.22-33.77-2.49a33.43,33.43,0,0,0-.07,3.47,24.94,24.94,0,0,0,3,11.42A86.36,86.36,0,0,0,76.88,109.92Z"/></svg>