<svg id="Layer_3" data-name="Layer 3" xmlns="http://www.w3.org/2000/svg" viewBox="0 0 204.9 219"><defs><style>.cls-1{fill:#ff922d;}.cls-2{fill:#ff801a;}.cls-3{fill:#ff5c13;}.cls-4{opacity:0.21;}.cls-5{fill:#fff;}.cls-6{fill:#7a9906;}.cls-7{fill:#9dc74e;}.cls-8{fill:#cbe076;}</style></defs><path class="cls-1" d="M157.69,115.37c-1.89,30.22-29,50.63-59.24,48.73-24.32-1.53-43.92-20.95-49.66-44.25A57.74,57.74,0,0,1,47.13,108a53.31,53.31,0,0,1,.07-5.51C49.09,72.23,77.9,53,108.12,54.9c17.67,1.11,32.29,11.27,41,25.57a57.22,57.22,0,0,1,3.21,6A60,60,0,0,1,157.69,115.37Z"/><path class="cls-2" d="M157.69,115.37c-1.89,30.22-29,50.63-59.24,48.73-24.32-1.53-43.92-20.95-49.66-44.25A57.74,57.74,0,0,1,47.13,108a49.11,49.11,0,0,0,22.34,22c12.1,6,26.27,7.17,39.55,4.66a48.68,48.68,0,0,0,18.5-7.11,45.56,45.56,0,0,0,13.84-15.91,63.12,63.12,0,0,0,7.74-31.13,57.22,57.22,0,0,1,3.21,6A60,60,0,0,1,157.69,115.37Z"/><path class="cls-3" d="M157.69,115.37c-1.9,30.22-29,50.63-59.24,48.73-24.32-1.53-43.92-21-49.66-44.24A52.86,52.86,0,0,0,78,146.26c14.1,5.2,30.19,4.32,44-1.68a51.84,51.84,0,0,0,20.5-15.48c6.25-8.13,9.46-18.34,10.2-28.57a75.37,75.37,0,0,0-.34-14A60.21,60.21,0,0,1,157.69,115.37Z"/><path class="cls-3" d="M77.48,114.27a.61.61,0,0,0-.07,1.22A.61.61,0,0,0,77.48,114.27Z"/><path class="cls-3" d="M82.3,107.54a1.22,1.22,0,0,0-.15,2.44A1.22,1.22,0,0,0,82.3,107.54Z"/><path class="cls-3" d="M88.33,115.08a1.86,1.86,0,0,0-.42-.84l-.32-.36a1.36,1.36,0,0,0-.56-.42,1.5,1.5,0,0,0-.7-.2,1.32,1.32,0,0,0-.71.12,1.41,1.41,0,0,0-.62.34l-.31.35a1.86,1.86,0,0,0-.3.91l0,.49a1.86,1.86,0,0,0,.42.84l.32.36a1.34,1.34,0,0,0,.56.41,1.69,1.69,0,0,0,1.41.09,1.35,1.35,0,0,0,.62-.34l.31-.35a2,2,0,0,0,.31-.91C88.35,115.4,88.34,115.24,88.33,115.08Z"/><path class="cls-3" d="M95.16,123.28a1.83,1.83,0,0,0-.23,3.66A1.83,1.83,0,0,0,95.16,123.28Z"/><path class="cls-3" d="M98.87,118a1.23,1.23,0,0,0-.15,2.45A1.23,1.23,0,0,0,98.87,118Z"/><path class="cls-3" d="M106.07,121.81A.61.61,0,0,0,106,123,.61.61,0,0,0,106.07,121.81Z"/><path class="cls-3" d="M104.33,95.68a.61.61,0,0,0-.07,1.22A.61.61,0,0,0,104.33,95.68Z"/><path class="cls-3" d="M114,97.7a1.23,1.23,0,0,0-.15,2.45A1.23,1.23,0,0,0,114,97.7Z"/><path class="cls-3" d="M117.18,90.13a1.23,1.23,0,0,0-.15,2.45A1.23,1.23,0,0,0,117.18,90.13Z"/><path class="cls-3" d="M109,85.29a1.84,1.84,0,0,0-.23,3.67A1.84,1.84,0,0,0,109,85.29Z"/><path class="cls-3" d="M142.29,110a1.83,1.83,0,0,0-.23,3.66A1.83,1.83,0,0,0,142.29,110Z"/><path class="cls-3" d="M136.26,103.83a1.23,1.23,0,0,0-.15,2.45A1.23,1.23,0,0,0,136.26,103.83Z"/><path class="cls-3" d="M134.47,110.75a.62.62,0,0,0-.07,1.23A.62.62,0,0,0,134.47,110.75Z"/><path class="cls-3" d="M126.77,125.81a.62.62,0,0,0-.08,1.23A.62.62,0,0,0,126.77,125.81Z"/><path class="cls-3" d="M117.11,118.17a1.23,1.23,0,0,0-.15,2.45A1.23,1.23,0,0,0,117.11,118.17Z"/><path class="cls-3" d="M120.05,125.12a1.22,1.22,0,0,0-.15,2.44A1.22,1.22,0,0,0,120.05,125.12Z"/><path class="cls-3" d="M105.54,135.63a.61.61,0,0,0-.08,1.22A.61.61,0,0,0,105.54,135.63Z"/><path class="cls-3" d="M80.68,133.39a.61.61,0,0,0-.08,1.22A.61.61,0,0,0,80.68,133.39Z"/><path class="cls-3" d="M88.29,136a1.22,1.22,0,0,0-.16,2.44A1.22,1.22,0,0,0,88.29,136Z"/><path class="cls-3" d="M86.73,128.43a1.22,1.22,0,0,0-.15,2.44A1.22,1.22,0,0,0,86.73,128.43Z"/><path class="cls-3" d="M73.84,118.56a1.83,1.83,0,0,0-.23,3.66A1.83,1.83,0,0,0,73.84,118.56Z"/><path class="cls-3" d="M73.47,102.93a1.22,1.22,0,0,0-.16,2.44A1.22,1.22,0,0,0,73.47,102.93Z"/><path class="cls-3" d="M83,96.1a1.22,1.22,0,0,0-.16,2.44A1.22,1.22,0,0,0,83,96.1Z"/><path class="cls-3" d="M68.38,92.47a1.23,1.23,0,0,0-.16,2.45A1.23,1.23,0,0,0,68.38,92.47Z"/><path class="cls-3" d="M119.17,69.31a1.22,1.22,0,0,0-.16,2.44A1.22,1.22,0,0,0,119.17,69.31Z"/><path class="cls-3" d="M117.54,79a1.23,1.23,0,0,0-.15,2.45A1.23,1.23,0,0,0,117.54,79Z"/><path class="cls-3" d="M129.39,78.67a.61.61,0,0,0-.08,1.22A.61.61,0,0,0,129.39,78.67Z"/><path class="cls-3" d="M142.62,83.22a.61.61,0,0,0-.07,1.22A.61.61,0,0,0,142.62,83.22Z"/><path class="cls-3" d="M143,92.71a.61.61,0,0,0-.08,1.22A.61.61,0,0,0,143,92.71Z"/><path class="cls-3" d="M132.46,89.06a1.23,1.23,0,0,0-.16,2.45A1.23,1.23,0,0,0,132.46,89.06Z"/><path class="cls-3" d="M136.65,124.47a1.22,1.22,0,0,0-.15,2.44A1.22,1.22,0,0,0,136.65,124.47Z"/><path class="cls-3" d="M134.13,121.55a.61.61,0,0,0-.07,1.22A.61.61,0,0,0,134.13,121.55Z"/><path class="cls-3" d="M123.07,104a.61.61,0,0,0-.07,1.22A.61.61,0,0,0,123.07,104Z"/><path class="cls-3" d="M98.8,86.89a.61.61,0,0,0-.07,1.22A.61.61,0,0,0,98.8,86.89Z"/><path class="cls-3" d="M100.27,101.17a.61.61,0,0,0-.08,1.22A.61.61,0,0,0,100.27,101.17Z"/><path class="cls-3" d="M119.31,136.9a1.22,1.22,0,0,0-.15,2.44A1.22,1.22,0,0,0,119.31,136.9Z"/><path class="cls-3" d="M67.1,128.89a1.22,1.22,0,0,0-.15,2.44A1.22,1.22,0,0,0,67.1,128.89Z"/><path class="cls-3" d="M73.1,135.68a1.23,1.23,0,0,0-.16,2.45A1.23,1.23,0,0,0,73.1,135.68Z"/><path class="cls-3" d="M57.74,84.37a1.22,1.22,0,0,0-.16,2.44A1.22,1.22,0,0,0,57.74,84.37Z"/><path class="cls-3" d="M128.82,66.2a1.22,1.22,0,0,0-.15,2.44A1.22,1.22,0,0,0,128.82,66.2Z"/><path class="cls-3" d="M137.78,74.19a1.23,1.23,0,0,0-.15,2.45A1.23,1.23,0,0,0,137.78,74.19Z"/><path class="cls-3" d="M90.39,78.22a1.22,1.22,0,0,0-.15,2.44A1.22,1.22,0,0,0,90.39,78.22Z"/><path class="cls-3" d="M80.61,71.77A.61.61,0,0,0,80.53,73,.61.61,0,0,0,80.61,71.77Z"/><path class="cls-3" d="M89,86.65A.61.61,0,0,0,89,87.87.61.61,0,0,0,89,86.65Z"/><path class="cls-3" d="M99,77.3a1.23,1.23,0,0,0-.15,2.45A1.23,1.23,0,0,0,99,77.3Z"/><path class="cls-3" d="M95.74,72.52A1.23,1.23,0,0,0,95.59,75,1.23,1.23,0,0,0,95.74,72.52Z"/><path class="cls-3" d="M105.41,64.39a1.23,1.23,0,0,0-.16,2.45A1.23,1.23,0,0,0,105.41,64.39Z"/><path class="cls-3" d="M87,63.25a1.83,1.83,0,0,0-.23,3.66C89.09,67.06,89.33,63.39,87,63.25Z"/><path class="cls-3" d="M83,76.3a1.22,1.22,0,0,0-.16,2.44A1.22,1.22,0,0,0,83,76.3Z"/><path class="cls-3" d="M66.84,79a1.22,1.22,0,0,0-.16,2.44A1.22,1.22,0,0,0,66.84,79Z"/><path class="cls-3" d="M72.39,83.32a.61.61,0,0,0-.07,1.22A.61.61,0,0,0,72.39,83.32Z"/><path class="cls-3" d="M56.24,102.06a.62.62,0,0,0-.08,1.23A.62.62,0,0,0,56.24,102.06Z"/><path class="cls-3" d="M57.75,107.79a1.22,1.22,0,0,0-.15,2.44A1.22,1.22,0,0,0,57.75,107.79Z"/><path class="cls-3" d="M64.52,105.92a1.23,1.23,0,0,0-.15,2.45A1.23,1.23,0,0,0,64.52,105.92Z"/><path class="cls-3" d="M64.72,112.79a.61.61,0,0,0-.08,1.22A.61.61,0,0,0,64.72,112.79Z"/><path class="cls-3" d="M106.4,108.13a.61.61,0,0,0-.07,1.22A.61.61,0,0,0,106.4,108.13Z"/><path class="cls-3" d="M112.11,109.94a.61.61,0,0,0-.07,1.22A.61.61,0,0,0,112.11,109.94Z"/><path class="cls-3" d="M95.71,139.28a.61.61,0,0,0-.08,1.22A.61.61,0,0,0,95.71,139.28Z"/><path class="cls-3" d="M106.39,141.42a1.22,1.22,0,0,0-.15,2.44A1.22,1.22,0,0,0,106.39,141.42Z"/><path class="cls-3" d="M126.46,110a1.23,1.23,0,0,0-.15,2.45A1.23,1.23,0,0,0,126.46,110Z"/><path class="cls-3" d="M151.55,98.08a1.22,1.22,0,0,0-.16,2.44A1.22,1.22,0,0,0,151.55,98.08Z"/><path class="cls-3" d="M147.47,100.1a.61.61,0,0,0-.08,1.22A.61.61,0,0,0,147.47,100.1Z"/><path class="cls-3" d="M149.8,109.4a.61.61,0,0,0-.08,1.22A.61.61,0,0,0,149.8,109.4Z"/><path class="cls-3" d="M149.06,117.88a.61.61,0,0,0-.08,1.22A.61.61,0,0,0,149.06,117.88Z"/><path class="cls-3" d="M143.59,118.79a1.23,1.23,0,0,0-.15,2.45A1.23,1.23,0,0,0,143.59,118.79Z"/><path class="cls-3" d="M91.76,106.18a1.22,1.22,0,0,0-.16,2.44A1.22,1.22,0,0,0,91.76,106.18Z"/><path class="cls-3" d="M59.18,118.07a1.22,1.22,0,0,0-.15,2.44A1.22,1.22,0,0,0,59.18,118.07Z"/><path class="cls-3" d="M59.27,123.26a.62.62,0,0,0-.07,1.23A.62.62,0,0,0,59.27,123.26Z"/><path class="cls-3" d="M98.2,60a.61.61,0,0,0-.08,1.22A.61.61,0,0,0,98.2,60Z"/><path class="cls-3" d="M104.31,58.71a1.22,1.22,0,0,0-.16,2.44A1.22,1.22,0,0,0,104.31,58.71Z"/><path class="cls-3" d="M117.06,61a1.22,1.22,0,0,0-.15,2.44A1.22,1.22,0,0,0,117.06,61Z"/><path class="cls-3" d="M114.52,65a.61.61,0,0,0-.07,1.22A.61.61,0,0,0,114.52,65Z"/><path class="cls-3" d="M140.4,96.74a.61.61,0,0,0-.08,1.22A.61.61,0,0,0,140.4,96.74Z"/><path class="cls-3" d="M147.12,89.06a1.23,1.23,0,0,0-.15,2.45A1.23,1.23,0,0,0,147.12,89.06Z"/><g class="cls-4"><path class="cls-5" d="M96.2,66.74C98.85,71,92.78,77.68,84,83.16s-17,7.66-19.63,3.41S66.69,74.43,75.49,69,93.55,62.49,96.2,66.74Z"/><path class="cls-5" d="M61,92.59c3.1.45,3.85,6.06,2.92,12.48s-3.2,11.23-6.3,10.78-4.87-6-3.93-12.44S57.92,92.14,61,92.59Z"/></g><path class="cls-6" d="M108.29,62.18a9,9,0,0,0,.19,9.74,10.14,10.14,0,0,0,8.93,4.2A7.13,7.13,0,0,0,120.89,75a7.53,7.53,0,0,0,2.69-2.94A22.84,22.84,0,0,0,125,68.28a25.87,25.87,0,0,1-9.73-.45A11.91,11.91,0,0,1,108.29,62.18Z"/><path class="cls-7" d="M125.5,67a6.88,6.88,0,0,0-.78-.55,2.69,2.69,0,0,0-2.61,0,10,10,0,0,1-7.81.47,8.68,8.68,0,0,1-5.36-6.43,9.42,9.42,0,0,0,.34,9.87,9.13,9.13,0,0,0,8.93,3.84C121.59,73.58,124.64,70.29,125.5,67Z"/><path class="cls-8" d="M119.66,68.66a7,7,0,0,1-4.42.15,2,2,0,0,0-.67-.17A.56.56,0,0,0,114,69c-.1.27.11.55.32.75a5.86,5.86,0,0,0,5.58,1.36,5.54,5.54,0,0,0,3.55-3c.3-.89-.42-1-1.08-.69A19.88,19.88,0,0,1,119.66,68.66Z"/></svg>