<svg xmlns="http://www.w3.org/2000/svg" xmlns:xlink="http://www.w3.org/1999/xlink" viewBox="0 0 204.9 219"><defs><style>.cls-1{isolation:isolate;}.cls-2{fill:url(#linear-gradient);}.cls-3{mix-blend-mode:multiply;}.cls-4{fill:#e0e0e0;}.cls-5{fill:url(#linear-gradient-2);}.cls-6{fill:url(#linear-gradient-3);}.cls-7{fill:url(#linear-gradient-4);}.cls-8{fill:url(#linear-gradient-5);}.cls-9{fill:url(#linear-gradient-6);}.cls-10{fill:url(#linear-gradient-7);}.cls-11{fill:url(#linear-gradient-8);}.cls-12{fill:url(#linear-gradient-9);}.cls-13{fill:url(#linear-gradient-10);}.cls-14{fill:url(#linear-gradient-11);}.cls-15{fill:url(#linear-gradient-12);}.cls-16{fill:url(#linear-gradient-13);}.cls-17{fill:url(#linear-gradient-14);}.cls-18{fill:url(#linear-gradient-15);}.cls-19{fill:url(#linear-gradient-16);}.cls-20{fill:url(#linear-gradient-17);}.cls-21{fill:url(#linear-gradient-18);}.cls-22{fill:url(#linear-gradient-19);}.cls-23{fill:url(#linear-gradient-20);}.cls-24{fill:url(#linear-gradient-21);}.cls-25{fill:url(#linear-gradient-22);}.cls-26{fill:url(#linear-gradient-23);}.cls-27{fill:url(#linear-gradient-24);}.cls-28{fill:url(#linear-gradient-25);}.cls-29{fill:url(#linear-gradient-26);}.cls-30{fill:url(#linear-gradient-27);}.cls-31{fill:url(#linear-gradient-28);}.cls-32{fill:url(#linear-gradient-29);}.cls-33{fill:url(#linear-gradient-30);}.cls-34{fill:url(#linear-gradient-31);}.cls-35{fill:url(#linear-gradient-32);}.cls-36{fill:url(#linear-gradient-33);}.cls-37{fill:url(#linear-gradient-34);}.cls-38{fill:url(#linear-gradient-35);}.cls-39{fill:url(#linear-gradient-36);}.cls-40{fill:url(#linear-gradient-37);}.cls-41{fill:url(#linear-gradient-38);}.cls-42{fill:url(#linear-gradient-39);}.cls-43{fill:url(#linear-gradient-40);}.cls-44{fill:url(#linear-gradient-41);}.cls-45{fill:url(#linear-gradient-42);}.cls-46{fill:url(#linear-gradient-43);}.cls-47{fill:url(#linear-gradient-44);}.cls-48{fill:url(#linear-gradient-45);}.cls-49{fill:url(#linear-gradient-46);}.cls-50{fill:url(#linear-gradient-47);}.cls-51{fill:url(#linear-gradient-48);}.cls-52{fill:url(#linear-gradient-49);}.cls-53{fill:url(#linear-gradient-50);}.cls-54{fill:url(#linear-gradient-51);}.cls-55{fill:url(#linear-gradient-52);}.cls-56{fill:url(#linear-gradient-53);}.cls-57{fill:url(#linear-gradient-54);}.cls-58{fill:url(#linear-gradient-55);}.cls-59{fill:url(#linear-gradient-56);}.cls-60{fill:url(#linear-gradient-57);}.cls-61{fill:url(#linear-gradient-58);}.cls-62{fill:url(#linear-gradient-59);}.cls-63{fill:url(#linear-gradient-60);}.cls-64{fill:url(#linear-gradient-61);}.cls-65{fill:url(#linear-gradient-62);}.cls-66{fill:url(#linear-gradient-63);}.cls-67{fill:url(#linear-gradient-64);}.cls-68{fill:url(#linear-gradient-65);}.cls-69{fill:url(#linear-gradient-66);}.cls-70{fill:url(#linear-gradient-67);}.cls-71{fill:url(#linear-gradient-68);}.cls-72{fill:url(#linear-gradient-69);}.cls-73{fill:url(#linear-gradient-70);}.cls-74{fill:url(#linear-gradient-71);}.cls-75{fill:url(#linear-gradient-72);}.cls-76{fill:url(#linear-gradient-73);}.cls-77{fill:url(#linear-gradient-74);}.cls-78{fill:url(#linear-gradient-75);}.cls-79{fill:url(#linear-gradient-76);}.cls-80{fill:url(#linear-gradient-77);}.cls-81{fill:url(#linear-gradient-78);}.cls-82{fill:url(#linear-gradient-79);}.cls-83{fill:url(#linear-gradient-80);}.cls-84{fill:url(#linear-gradient-81);}.cls-85{fill:url(#linear-gradient-82);}.cls-86{fill:url(#linear-gradient-83);}.cls-87{fill:url(#linear-gradient-84);}.cls-88{fill:#07090a;opacity:0.05;}</style><linearGradient id="linear-gradient" x1="37.18" y1="44.23" x2="170.22" y2="177.27" gradientUnits="userSpaceOnUse"><stop offset="0" stop-color="#29b6f6"/><stop offset="0.42" stop-color="#1e88e5"/><stop offset="1" stop-color="#01579b"/></linearGradient><linearGradient id="linear-gradient-2" x1="82.09" y1="-7.18" x2="218.28" y2="129.01" gradientUnits="userSpaceOnUse"><stop offset="0" stop-color="#ffeb3b"/><stop offset="1" stop-color="#7cb342"/></linearGradient><linearGradient id="linear-gradient-3" x1="79.92" y1="-5.01" x2="216.11" y2="131.18" xlink:href="#linear-gradient-2"/><linearGradient id="linear-gradient-4" x1="80.84" y1="-5.93" x2="217.03" y2="130.26" xlink:href="#linear-gradient-2"/><linearGradient id="linear-gradient-5" x1="59.89" y1="15.02" x2="196.08" y2="151.21" xlink:href="#linear-gradient-2"/><linearGradient id="linear-gradient-6" x1="5.11" y1="69.8" x2="141.3" y2="205.99" xlink:href="#linear-gradient-2"/><linearGradient id="linear-gradient-7" x1="62.92" y1="11.99" x2="199.11" y2="148.18" xlink:href="#linear-gradient-2"/><linearGradient id="linear-gradient-8" x1="57.19" y1="17.72" x2="193.38" y2="153.91" xlink:href="#linear-gradient-2"/><linearGradient id="linear-gradient-9" x1="16.83" y1="58.08" x2="153.02" y2="194.27" xlink:href="#linear-gradient-2"/><linearGradient id="linear-gradient-10" x1="48.05" y1="26.85" x2="184.24" y2="163.05" xlink:href="#linear-gradient-2"/><linearGradient id="linear-gradient-11" x1="45.25" y1="29.66" x2="181.44" y2="165.85" xlink:href="#linear-gradient-2"/><linearGradient id="linear-gradient-12" x1="67.38" y1="7.54" x2="203.57" y2="143.72" xlink:href="#linear-gradient-2"/><linearGradient id="linear-gradient-13" x1="65.43" y1="9.49" x2="201.62" y2="145.67" xlink:href="#linear-gradient-2"/><linearGradient id="linear-gradient-14" x1="66.31" y1="8.59" x2="202.5" y2="144.79" xlink:href="#linear-gradient-2"/><linearGradient id="linear-gradient-15" x1="90.62" y1="-15.71" x2="226.81" y2="120.48" xlink:href="#linear-gradient-2"/><linearGradient id="linear-gradient-16" x1="88.71" y1="-13.8" x2="224.9" y2="122.39" xlink:href="#linear-gradient-2"/><linearGradient id="linear-gradient-17" x1="97.04" y1="-22.12" x2="233.22" y2="114.06" xlink:href="#linear-gradient-2"/><linearGradient id="linear-gradient-18" x1="86.43" y1="-11.52" x2="222.62" y2="124.67" xlink:href="#linear-gradient-2"/><linearGradient id="linear-gradient-19" x1="94.81" y1="-19.9" x2="231" y2="116.29" xlink:href="#linear-gradient-2"/><linearGradient id="linear-gradient-20" x1="93.9" y1="-18.99" x2="230.09" y2="117.2" xlink:href="#linear-gradient-2"/><linearGradient id="linear-gradient-21" x1="94.39" y1="-19.46" x2="230.54" y2="116.69" xlink:href="#linear-gradient-2"/><linearGradient id="linear-gradient-22" x1="89.26" y1="-14.35" x2="225.45" y2="121.84" xlink:href="#linear-gradient-2"/><linearGradient id="linear-gradient-23" x1="92.73" y1="-17.82" x2="228.92" y2="118.37" xlink:href="#linear-gradient-2"/><linearGradient id="linear-gradient-24" x1="-23.6" y1="98.51" x2="112.59" y2="234.7" xlink:href="#linear-gradient-2"/><linearGradient id="linear-gradient-25" x1="60.17" y1="14.74" x2="196.36" y2="150.94" xlink:href="#linear-gradient-2"/><linearGradient id="linear-gradient-26" x1="-6.51" y1="81.42" x2="129.68" y2="217.61" xlink:href="#linear-gradient-2"/><linearGradient id="linear-gradient-27" x1="15.73" y1="59.18" x2="151.92" y2="195.37" xlink:href="#linear-gradient-2"/><linearGradient id="linear-gradient-28" x1="-28.03" y1="102.94" x2="108.16" y2="239.13" xlink:href="#linear-gradient-2"/><linearGradient id="linear-gradient-29" x1="-18.5" y1="93.41" x2="117.69" y2="229.6" xlink:href="#linear-gradient-2"/><linearGradient id="linear-gradient-30" x1="-20.54" y1="95.45" x2="115.65" y2="231.64" xlink:href="#linear-gradient-2"/><linearGradient id="linear-gradient-31" x1="82.4" y1="-7.49" x2="218.59" y2="128.7" xlink:href="#linear-gradient-2"/><linearGradient id="linear-gradient-32" x1="83.26" y1="-8.35" x2="219.45" y2="127.85" xlink:href="#linear-gradient-2"/><linearGradient id="linear-gradient-33" x1="83.28" y1="-8.37" x2="219.47" y2="127.82" xlink:href="#linear-gradient-2"/><linearGradient id="linear-gradient-34" x1="83.59" y1="-8.68" x2="219.77" y2="127.51" xlink:href="#linear-gradient-2"/><linearGradient id="linear-gradient-35" x1="82.75" y1="-7.84" x2="218.94" y2="128.35" xlink:href="#linear-gradient-2"/><linearGradient id="linear-gradient-36" x1="82.61" y1="-7.7" x2="218.8" y2="128.49" xlink:href="#linear-gradient-2"/><linearGradient id="linear-gradient-37" x1="83.22" y1="-8.31" x2="219.42" y2="127.88" xlink:href="#linear-gradient-2"/><linearGradient id="linear-gradient-38" x1="82.3" y1="-7.39" x2="218.49" y2="128.8" xlink:href="#linear-gradient-2"/><linearGradient id="linear-gradient-39" x1="84.03" y1="-9.12" x2="220.22" y2="127.07" xlink:href="#linear-gradient-2"/><linearGradient id="linear-gradient-40" x1="86.3" y1="-11.39" x2="222.49" y2="124.8" xlink:href="#linear-gradient-2"/><linearGradient id="linear-gradient-41" x1="87.59" y1="-12.68" x2="223.78" y2="123.51" xlink:href="#linear-gradient-2"/><linearGradient id="linear-gradient-42" x1="54.8" y1="20.11" x2="190.99" y2="156.3" xlink:href="#linear-gradient-2"/><linearGradient id="linear-gradient-43" x1="19.53" y1="55.38" x2="155.72" y2="191.57" xlink:href="#linear-gradient-2"/><linearGradient id="linear-gradient-44" x1="59.05" y1="15.86" x2="195.24" y2="152.05" xlink:href="#linear-gradient-2"/><linearGradient id="linear-gradient-45" x1="90.39" y1="-15.48" x2="226.58" y2="120.7" xlink:href="#linear-gradient-2"/><linearGradient id="linear-gradient-46" x1="89.79" y1="-14.88" x2="225.98" y2="121.31" xlink:href="#linear-gradient-2"/><linearGradient id="linear-gradient-47" x1="90.6" y1="-15.69" x2="226.8" y2="120.51" xlink:href="#linear-gradient-2"/><linearGradient id="linear-gradient-48" x1="56.03" y1="18.91" x2="192.2" y2="155.09" xlink:href="#linear-gradient-2"/><linearGradient id="linear-gradient-49" x1="47.06" y1="27.85" x2="183.25" y2="164.04" xlink:href="#linear-gradient-2"/><linearGradient id="linear-gradient-50" x1="65.73" y1="9.11" x2="201.96" y2="145.34" xlink:href="#linear-gradient-2"/><linearGradient id="linear-gradient-51" x1="66.28" y1="8.64" x2="202.46" y2="144.83" xlink:href="#linear-gradient-2"/><linearGradient id="linear-gradient-52" x1="59.45" y1="15.46" x2="195.64" y2="151.65" xlink:href="#linear-gradient-2"/><linearGradient id="linear-gradient-53" x1="53.2" y1="21.71" x2="189.39" y2="157.9" xlink:href="#linear-gradient-2"/><linearGradient id="linear-gradient-54" x1="47.27" y1="27.64" x2="183.46" y2="163.83" xlink:href="#linear-gradient-2"/><linearGradient id="linear-gradient-55" x1="47.46" y1="27.45" x2="183.66" y2="163.64" xlink:href="#linear-gradient-2"/><linearGradient id="linear-gradient-56" x1="45.25" y1="29.66" x2="181.44" y2="165.85" xlink:href="#linear-gradient-2"/><linearGradient id="linear-gradient-57" x1="40.08" y1="34.83" x2="176.27" y2="171.02" xlink:href="#linear-gradient-2"/><linearGradient id="linear-gradient-58" x1="49.98" y1="24.93" x2="186.17" y2="161.12" xlink:href="#linear-gradient-2"/><linearGradient id="linear-gradient-59" x1="52.59" y1="22.32" x2="188.78" y2="158.52" xlink:href="#linear-gradient-2"/><linearGradient id="linear-gradient-60" x1="58.09" y1="16.82" x2="194.27" y2="153.01" xlink:href="#linear-gradient-2"/><linearGradient id="linear-gradient-61" x1="46.5" y1="28.41" x2="182.69" y2="164.6" xlink:href="#linear-gradient-2"/><linearGradient id="linear-gradient-62" x1="61.54" y1="13.37" x2="197.73" y2="149.56" xlink:href="#linear-gradient-2"/><linearGradient id="linear-gradient-63" x1="67.22" y1="7.69" x2="203.42" y2="143.88" xlink:href="#linear-gradient-2"/><linearGradient id="linear-gradient-64" x1="70.31" y1="4.59" x2="206.51" y2="140.79" xlink:href="#linear-gradient-2"/><linearGradient id="linear-gradient-65" x1="87.03" y1="-12.12" x2="223.22" y2="124.07" xlink:href="#linear-gradient-2"/><linearGradient id="linear-gradient-66" x1="88.34" y1="-13.42" x2="224.53" y2="122.76" xlink:href="#linear-gradient-2"/><linearGradient id="linear-gradient-67" x1="91.12" y1="-16.2" x2="227.3" y2="119.98" xlink:href="#linear-gradient-2"/><linearGradient id="linear-gradient-68" x1="92.58" y1="-17.67" x2="228.77" y2="118.53" xlink:href="#linear-gradient-2"/><linearGradient id="linear-gradient-69" x1="-15.76" y1="90.68" x2="120.42" y2="226.86" xlink:href="#linear-gradient-2"/><linearGradient id="linear-gradient-70" x1="-15.56" y1="90.47" x2="120.63" y2="226.66" xlink:href="#linear-gradient-2"/><linearGradient id="linear-gradient-71" x1="-12.86" y1="87.77" x2="123.33" y2="223.96" xlink:href="#linear-gradient-2"/><linearGradient id="linear-gradient-72" x1="-20.81" y1="95.73" x2="115.37" y2="231.91" xlink:href="#linear-gradient-2"/><linearGradient id="linear-gradient-73" x1="-16.58" y1="91.49" x2="119.61" y2="227.69" xlink:href="#linear-gradient-2"/><linearGradient id="linear-gradient-74" x1="-16.75" y1="91.66" x2="119.44" y2="227.85" xlink:href="#linear-gradient-2"/><linearGradient id="linear-gradient-75" x1="-16.28" y1="91.19" x2="119.91" y2="227.38" xlink:href="#linear-gradient-2"/><linearGradient id="linear-gradient-76" x1="45.21" y1="29.7" x2="181.4" y2="165.89" xlink:href="#linear-gradient-2"/><linearGradient id="linear-gradient-77" x1="17.37" y1="57.54" x2="153.56" y2="193.73" xlink:href="#linear-gradient-2"/><linearGradient id="linear-gradient-78" x1="19.06" y1="55.85" x2="155.25" y2="192.04" xlink:href="#linear-gradient-2"/><linearGradient id="linear-gradient-79" x1="58.41" y1="16.5" x2="194.6" y2="152.69" xlink:href="#linear-gradient-2"/><linearGradient id="linear-gradient-80" x1="52.36" y1="22.55" x2="188.55" y2="158.74" xlink:href="#linear-gradient-2"/><linearGradient id="linear-gradient-81" x1="55.1" y1="19.82" x2="191.28" y2="156.01" xlink:href="#linear-gradient-2"/><linearGradient id="linear-gradient-82" x1="78.15" y1="-3.23" x2="214.33" y2="132.95" xlink:href="#linear-gradient-2"/><linearGradient id="linear-gradient-83" x1="79.33" y1="-4.42" x2="215.52" y2="131.77" xlink:href="#linear-gradient-2"/><linearGradient id="linear-gradient-84" x1="80.09" y1="-5.18" x2="216.28" y2="131.01" xlink:href="#linear-gradient-2"/></defs><g class="cls-1"><g id="Layer_4" data-name="Layer 4"><circle class="cls-2" cx="102.45" cy="109.5" r="90.98"/><g class="cls-3"><path class="cls-4" d="M106.07,19.68c1.23.05,2.46.12,3.67.22C108.53,19.8,107.3,19.73,106.07,19.68Z"/><path class="cls-4" d="M102.36,19.6h0c.74,0,1.47,0,2.21,0C103.82,19.63,103.1,19.6,102.36,19.6Z"/><path class="cls-4" d="M104.56,19.64c.5,0,1,0,1.51,0C105.57,19.65,105.06,19.66,104.56,19.64Z"/><path class="cls-4" d="M186.45,141.85c.15-.4.31-.81.46-1.22-.36,1-.74,1.94-1.14,2.9C186,143,186.23,142.42,186.45,141.85Z"/><path class="cls-4" d="M127.45,195.91c1.14-.33,2.26-.68,3.38-1s2.23-.76,3.33-1.18c-1.1.42-2.21.81-3.33,1.18S128.59,195.58,127.45,195.91Z"/><path class="cls-4" d="M187.44,139.13c.14-.39.29-.78.42-1.18.19-.57.36-1.15.54-1.72-.18.58-.35,1.15-.54,1.72C187.73,138.35,187.58,138.74,187.44,139.13Z"/><path class="cls-4" d="M184.29,147c.31-.67.62-1.35.91-2l.48-1.15c-.58,1.4-1.19,2.79-1.83,4.15C184,147.6,184.14,147.27,184.29,147Z"/><path class="cls-4" d="M140.63,191c1.05-.49,2.1-1,3.13-1.54a89.67,89.67,0,0,0,9-5.32,89.67,89.67,0,0,1-9,5.32C142.73,189.94,141.68,190.46,140.63,191Z"/><path class="cls-4" d="M178,158.34c.5-.78,1-1.56,1.48-2.36h0c-.67,1.1-1.36,2.18-2.06,3.25Z"/><path class="cls-4" d="M175.07,162.63c.82-1.11,1.6-2.24,2.37-3.4l-.1.15C176.61,160.48,175.85,161.57,175.07,162.63Z"/><path class="cls-4" d="M189.71,131.62c.1-.4.19-.8.29-1.19l.18-.82c-.19.82-.39,1.64-.59,2.45Z"/><path class="cls-4" d="M189.12,133.8c.08-.27.15-.55.22-.82-.16.61-.32,1.23-.5,1.84C188.94,134.48,189,134.14,189.12,133.8Z"/><path class="cls-4" d="M189.59,132.06c-.08.31-.17.62-.25.92C189.42,132.67,189.51,132.37,189.59,132.06Z"/><path class="cls-4" d="M187.86,81.1c.56,1.68,1.07,3.37,1.53,5.09C188.93,84.47,188.42,82.78,187.86,81.1Z"/><path class="cls-4" d="M189.39,86.19c.46,1.72.87,3.45,1.23,5.21C190.26,89.64,189.85,87.91,189.39,86.19Z"/><path class="cls-4" d="M152.91,35.08c-.32-.22-.65-.42-1-.63.32.21.65.41,1,.63Z"/><path class="cls-4" d="M118.22,21,117,20.78l1.25.23Z"/><path class="cls-4" d="M140.43,28h0c1.12.52,2.22,1.06,3.31,1.63C142.65,29.06,141.55,28.53,140.43,28Z"/><path class="cls-4" d="M139.32,27.51c-.76-.34-1.52-.68-2.29-1,1.13.47,2.25,1,3.35,1.47Z"/><path class="cls-4" d="M140.38,28l.05,0Z"/><path class="cls-4" d="M124.58,22.37l-1-.26,2.29.59C125.42,22.59,125,22.47,124.58,22.37Z"/><path class="cls-4" d="M136,26.1c-.82-.33-1.64-.65-2.46-1,.83.3,1.64.62,2.46,1Z"/><path class="cls-4" d="M88.9,198.44l-.56-.09-1.13-.19-1.47-.28-1.51-.31-.72-.14-1.32-.29L81,196.85l-.81-.22-.17-.06-.8-.22-1.45-.42-.93-.29-.26-.09-.34-.11-.58-.19.55.16-.44-.16-.66-.22-.18-.05.36.14-.46-.13-1.13-.38-1.06-.38-.31-.11.29.07.25.05.19,0-.59-.25-.94-.35-.42-.18-.3-.13-.72-.28-.52-.24h.28l-.19-.21-.41-.26-.89-.46-1-.56-.56-.28-.42-.16-.51-.21-.69-.38-.49-.26-.44-.16-.6-.22-.47-.27v0l.35.14.24,0,.69.25,0-.06.25,0-.09-.17-1-.68-.72-.58-1-.71-.83-.58-.71-.59-.75-.54,0-.18.54.37,1.07.89-.53-.57-1-.82-1-.88-.32-.45-.58-.55-1.14-.91-1.16-.93-.9-.94-.06-.29L54.2,180l.06-.56,0-.49-.19-.41,1,0,.23-.29-.45-.47.31-.23-.66-.71-.28-.68-.38-.67-.45-.53v-.36l-.78-1.08-.31-.56v-.26l-.7-.92-.61-1-1.63-2.22-.57-1-.17-.53-.26-.2-.09-.34.62.24-.07-.48-.57-1.93.32-.38.08-1-.27-1.51-.82-1.84-1-1.54L45.64,157h-.72l-.82-.31-.8-.53-1-.88L41,154.21l-1.37-.28-.5.16-1.39-.6-.2-.09-.57.88L36.46,153l-1.33-1.19L33.86,151l-.86-.25,0,.47.29.81-.28-.13v.89l-.32-.47-.08-1.24-.09-.36-1-.78-.64,0,.14.83-.05.26-.35-.47L30.3,150l.32-.1-.2-1.69-.54-.89L28.75,146l-1-2.16-1.32-1.77-.77-.36-.81-.55-.78.17-.41-.47-.17.26-.93-1.19-.34-.35-.47-1-.64-.79-.55-.52-.45-.06L19.81,136l-.87-.85-.26-.71.08-.14-.29-.46-.55,1.14-.78-.9-.12.36-.3-.39-.33-1.07-.18-.36-.15-.08-.34-.82.19,1,0,.37.1.83.65,2v.4l-.27-.66-.51-2-.31-1.08,0-.3-.06-.52-.15-.45,0,.58,0,.47.1.57,0,.45c0,.17.09.33.13.5l-.07-.21c.09.33.17.66.26,1,.33,1.13.68,2.26,1.05,3.38s.77,2.22,1.19,3.32.85,2.18,1.3,3.26c.91,2.15,1.91,4.26,3,6.32a91.39,91.39,0,0,0,5.33,9c.65,1,1.31,1.9,2,2.83a88.36,88.36,0,0,0,6.28,7.63c.89,1,1.79,1.92,2.72,2.85-.93-.93-1.83-1.88-2.72-2.85l.38.39,1.44,1.3.69.67,1.12,1,2,1.92,1.94,1.76,1.73,1.52.62.47.55.49L48,181l2.35,1.78.91.66L52,184l.69.5,1.61,1,.93.6,1.22.75,2.22,1.28.4.23.83.46,1,.54,1.79.92,1.87.9c.88.41,1.77.81,2.67,1.19,1.08.46,2.17.89,3.27,1.3s2.2.81,3.32,1.18,2.25.72,3.39,1,2.28.64,3.44.92q3.47.85,7,1.44l1.17.17c.76.11,1.52.23,2.28.32l.14,0,.5.05-.64-.07C90.42,198.67,89.66,198.55,88.9,198.44Z"/><path class="cls-4" d="M70.72,25.3l-.74.29-.15.06.89-.35Z"/><path class="cls-4" d="M13,97.77c-.18,1.33-.33,2.67-.44,4C12.7,100.44,12.85,99.1,13,97.77Z"/><path class="cls-4" d="M16.15,83.34l.26-.76.22-.71c0-.1.07-.2.1-.3l.1-.14.11-.11.17-.27.1-.22.06-.23-.18.18,0,0,.15-.34.24-.37.12-.12.27-.66-.07.33,0,.06.21-.39c.08-.21.15-.42.23-.62l.06-.35,0-.14.2-.42.24-.63.32-.71.15-.3.15-.21.12-.21.12-.23.09-.07.2-.36.28-.53.15-.24,0,.12v.24l.17-.19.54-.82.57-.63.19-.16.6-.86.21-.33,0,.19-.15.33-.15.22-.12.3.27.23-.17.22-.28,0-.18,0-.57.88-.56,1-.13.35-.08.57.15,0,.42-.54.33-.55.23-.4.21-.24.27-.1,1.21-1a2.55,2.55,0,0,0,.13-.29l.09-.27.18-.22.58-.37.27-.34.14-.3h-.1l-.14-.09.47-.92,0-.21-.34.41-.24.36-.15.26-.43.56-.24.49-.2.11-.25.1-.23-.17,0-.19.1-.35,0-.57.07-.34.17-.42.28-.74.27-.46.31-.54,0-.17h0l-.22.24-.14.15,0-.13.14-.26.24-.32.36-.34.28-.32.32-.53.34-.81,0-.21H25.2l-.68.49-.76.78-.29.37L22.7,68.7l-.6,1-.2.27,0-.09.66-1,.31-.5.26-.49v0l.36-.49.69-1,.42-.51h.16l.33-.55.66-.88.34-.24,1-.19H28.2l.54-.42.45-.43.56-.63.39-.41.22-.12h.28l.27-.07.42-.34.56-.59.43-.46,0-.2,0-.29.19-.12.21-.16.72-1,.09-.43.1-.44-.25.15-.28.23-.11.05,0-.15.53-.69.07-.23-.1-.08h-.2l-.68.61-.27.23-.32.15-.33.31h-.07l.26-.41.32-.33.17-.07.44-.49H33l.22-.1c.73-.41.73-.41,1-.77L34.3,56l-.17-.06H34l.18-.59-.2.1.07-.26-.19.12h-.09l.14-.33.39-.68.25-.57.13-.38.08-.42.15-.21.13-.05v.14l.21-.14.47-.47L36,51.8l0-.14.12-.21.44-.55.19-.34.17-.3.17-.23.16-.26.2-.28.15-.19.14-.2.16-.22.2-.26.14-.17.34-.47.29-.39.19-.23.18-.22.25-.31.4-.49.17-.22-.26.22-.51.5-.34.3-.37.34-.15.19-.19.22-.32.27-.19.18-.39.45-.1,0-.36.36-.06,0,.13-.21-.09,0-.13.12-.32.34-.29.26L35.8,50l0,0,.2-.27.13-.21v0l.39-.5,0,0,.06-.12.48-.54.31-.4.34-.34,1-1.05.45-.46.52-.47.16-.18h0l-.22.17.23-.27,0,0v-.06l.19-.23.4-.4.19-.21.37-.39.15-.16.36-.36.06-.07.2-.2.13-.14h0l-.6.52c-.84.79-1.67,1.58-2.49,2.4q-2.45,2.43-4.7,5.06c-.93,1.08-1.82,2.19-2.7,3.32-.54.69-1.08,1.39-1.6,2.1A88.51,88.51,0,0,0,22.31,68.2,87.58,87.58,0,0,0,18,77.78c-.42,1.1-.81,2.2-1.19,3.32-.24.74-.47,1.49-.69,2.24a89.35,89.35,0,0,0-2.72,11.6c-.15.94-.28,1.88-.4,2.83.12-1,.25-1.89.4-2.83A89.35,89.35,0,0,1,16.15,83.34Z"/><path class="cls-4" d="M52,184.09a88.55,88.55,0,0,0,9,5.32c1,.53,2.07,1.05,3.13,1.54-1.06-.49-2.1-1-3.13-1.54A88.55,88.55,0,0,1,52,184.09Z"/><path class="cls-4" d="M13,121.23c.12,1,.25,1.93.41,2.88s.35,2,.55,3c-.2-1-.39-2-.55-3S13.14,122.2,13,121.23Z"/><path class="cls-4" d="M14,127.1c.27,1.35.56,2.7.89,4C14.54,129.8,14.25,128.45,14,127.1Z"/><path class="cls-4" d="M108.89,20.05l-.52-.06h0a.65.65,0,0,0,.2,0l.14,0h0a5.93,5.93,0,0,0,.59.07l-.36-.07a.27.27,0,0,0,.09,0Z"/><path class="cls-4" d="M110.44,20.2a4.92,4.92,0,0,0,.77.11s0,0-.47-.1l-.65-.08h0c.12,0,.25,0,.36.06Z"/><path class="cls-4" d="M111.59,20.44a3.3,3.3,0,0,0-.47-.11,10.92,10.92,0,0,0-1.11-.15h0c.07,0,1.41.28,1.59.27Z"/><path class="cls-4" d="M112.24,20.69h0c-.11-.09-.27,0-.38-.12h0l-.06,0a5.84,5.84,0,0,0-.78-.11h0a3.2,3.2,0,0,1,.33.07s0,0-.07,0A3.79,3.79,0,0,0,112.24,20.69Z"/><path class="cls-4" d="M108.88,20.11l.54.09.33.08h0l.15,0a2.2,2.2,0,0,0,.49.05h0a2.65,2.65,0,0,0-.49-.12c-.54-.09-1-.11-1.07-.12Z"/><path class="cls-4" d="M109.66,20.49a.19.19,0,0,0,.09,0,2.1,2.1,0,0,0,.6.1h0a1.87,1.87,0,0,0-.22-.07h0a.67.67,0,0,0-.19-.05c-.3-.07-.33-.1-.34-.11h0l-.08,0c-.15,0-.73-.13-.84-.13h0a3.55,3.55,0,0,0,.51.12.5.5,0,0,1,.18.05h0Z"/><path class="cls-4" d="M110.67,20.49h0a1.31,1.31,0,0,0,.53.1l-.17-.05C110.89,20.53,110.74,20.49,110.67,20.49Z"/><path class="cls-4" d="M109.23,20.44h0s0,0-.17-.06l-.14,0,0,0a.33.33,0,0,1,.1,0s.06,0,.09,0l-.06,0h0a2.29,2.29,0,0,0-.4-.06h0s.07,0,.1,0-.06,0-.08,0A3.47,3.47,0,0,0,109.23,20.44Z"/><path class="cls-4" d="M112.09,20.15l-.43,0h0l.9.1Z"/><path class="cls-4" d="M117.57,20.94l2.15.38c1.32.28,2.65.59,4,.85l-.65-.16c-.92-.22-1.84-.42-2.77-.61l-.9-.18-.43-.08-.52-.09.22,0-.85-.15-1.4-.23.65.11c-.41-.07-.81-.14-1.21-.19l.34.06c-.62-.1-1.41-.22-2.36-.35-.43-.05-1.48-.18-2.13-.24l-.26,0c1.67.18,2.66.32,3.19.4C115.61,20.61,116.58,20.86,117.57,20.94Z"/><path class="cls-4" d="M120.13,21.37l.15,0,.45.09Z"/><path class="cls-4" d="M185.44,142.55a5.21,5.21,0,0,1,.09-.69,17,17,0,0,0-1,3,51.82,51.82,0,0,1-4.68,10.33c.84-1.42,1.65-2.86,2.41-4.32l.62-1.21a32.79,32.79,0,0,0,2.63-7Z"/><path class="cls-4" d="M133.36,180.6c2.34-2.47,5.37-5.84,7.6-8.41l.88-1.26c.18-.32.36-.64.53-1l.21.54.51-.42.29-.63.44-1.34.27-.67.22-1-.06-.58-.51.35-.56.86-.83.53h-.49l-.25.53-.63,1.23-.77.12-1.73.81-1.36.28-.43.42-.71,1.08-.45.59-.48,1.4-.51,1.28-.92.89-1.15,1.18-1.3,3.12.53.52.59-.09Z"/><polygon class="cls-4" points="180.7 139.15 180.24 141.36 181.79 139.24 181.98 135.7 180.7 139.15"/><path class="cls-4" d="M127.66,23.23l-.24-.07.78.23-.4-.12Z"/><path class="cls-4" d="M126.44,22.88l-.28-.08-.9-.24-.27-.07-.1,0c.85.22,1.69.46,2.53.7l-.28-.08Z"/><path class="cls-4" d="M128.57,23.51l-.24-.08-.13,0,.38.12h0Z"/><path class="cls-4" d="M184.07,147.23l0,0c-.07.14-.13.29-.2.44Z"/><path class="cls-4" d="M191.17,94.94a89.68,89.68,0,0,0-3.41-13.84,88.07,88.07,0,0,0-5.47-12.9,90.39,90.39,0,0,0-38.63-38.56,90.44,90.44,0,0,0-12.93-5.46l-2.15-.67h0l.31.1.63.19.23.07-.41-.12.08,0,.27.09.26.09-.1,0,.07,0-.16,0-.5-.17-.29-.09.17.07.35.12-.31-.09.48.17-.08,0,.1.05.67.2.15.1.22.08,0,.07.41.16.13.06.23.11.46.19-.22-.06-.12,0,.12.06L132,25l.25.1h0l.3.13.13,0,.42.16,0,0-.18-.05h0l.38.14.14,0,.23.07.33.12-.06,0,.5.17.16.06.51.19.49.23.22.1-.14-.05-.33-.09.39.21h-.29l-.08.12,0,.11.66.33.83.37.59.3,1,.41.36.11.54.23.67.34.22.16-.68-.24-.89-.36-.73-.23-.38-.06L137,28h-.15l.38.27.3.07.3.17.5.17.35.16-.5-.11-.31-.08.27.24,1.23.57.8.26.38.18.43.18.12.13-1.24-.48h-.33l-.24-.07-.69-.4-.48-.22-.73-.46-.74-.42-.92-.43h-.14l.62.31,1,.6.28.36.31.21.26.21,2,1,.49.28,1.3,1,.56.37.92.62h.33l.08-.23.75.28,1,.46,1.05.66.39.39.39.28,1.11.52-.51-.08-.92-.55L146,33.53l-1.31-.65-.07.34,1.91,1.32.67.79.38.3.35.76.5.55-.68-.23-.33.13-.59-.26-.15.05-.36-.13-.44-.45.15,0,.57.31v-.23l.61.35-.11-.22h.23l-.44-.33v-.18l-.46-.41V35.3l-.3-.27-.11-.3-.22-.23-.47-.33-.54-.45-.11-.16-1.37-.73L142,32l-.59-.44-.91-.55-.9-.65-.48-.28-1.31-.6-.27-.14-.49-.41-.52-.33-1.37-.77-.88-.27h-.39l-.43,0,2.39,1.62.32.51.4.33.59.31h.16l.85.6.51.37.2.22.41.31,1.15.41,1.11.67.48.19.65.52.16.3-1.61-.8-.68-.26-1.23-.45-.83-.3-1-.35-1.62-.2-.6-.31-.94-.36-.24,0,.55.41.52.2.38.17.58.12.74.52.87.5.3.29-.19.08-.12.09.44.37-.14.05-.5-.2-.25-.35-.87-.36,0,.62-.65,0-.39.09.1.52h-.51l-.59-.19-.17-.13.4-.05-.43-.31-.28-.44-.47.33.37.47h-.07l-.44-.24-.89.42v.28l-.22.3.06.18-.51.2.57.82-.16.29-1,0-.73-.5-.44-.23-.41-.45.13-.17.28-.2.6.09-.9-.63-.44-.34-.42-.15h-.51l-.38,0-.7-.17,0,.09.75.38.66.79.39.92.46,0,.21.13.37.4.29.42.07.3.11.31-.34-.1h-.11l-.32-.28-.63-.14-.52,0-.09.44-.54.28-.17.38-.11.37.16.29.74.58.49.54-.45.16-.62-.24-.41-.17L127,39l-.41-.17-.93-.48-.24.54.56.56.55.29.66.12.23.53-.36.21-.43-.17-.65-.16-.18-.2-.35-.21-.56-.1-.48-.16-.32-.53-.33-.39-.53-.68.1-.27-.78-.86-.8-.31-.33-.21-.62-.29-.57-.44-.44-.29,1.3.52,1,.22,1,.31,1.49.34,1.42.19,1-.36.47-.84-.32-.44-.61-.6-.58-.28-.72-.4-.43-.09-.56-.31-.35-.05-2.49-1.09-1-.24-.2.07-.43-.23-.44.14-.46-.1-.48,0-.28-.2.49-.21-1-.3,0,.37-1.07-.29-.2.18-.34-.27-.57-.34.58.14.26-.25.36-.13-.7-.45-.72-.12L114.7,30l-.23.64-.34-.49.15-.12-.16-.22-.57-.12-.15.22.15.24-.2.51-.4-.73L112.32,31l-.25-.25.2-.45.2-.35,0-.15-.26-.13L112,30l-.54-.06v.28l.08.11-.07.09-.36-.18-.29.56L111,31l-.09.19-.31-.3-.09-.33.18-.3.07-.24-.22-.06-.14.24H110l-.14.06,0,.15.5.45h-.9l.55.39-.38-.05-.23,0-.26-.23-.31.06.35.27,0,.44-.23-.13-.18-.29-.32.11-.29-.53-.64.19.19.47-.34.05-.09.32-.42-.2-.32.16-.35.55.53,0,.16.29.1.22h-.15l-.3-.13-.13.18-.52-.24-.32.24.12-.68-.59.51-.36.28-.42.55-.75.34-.32.32,1.87-.78.23.08.28-.16.22-.15.31.12,0,.44.06.14h-.29l-.25-.23-.26.28-.41.25-.14.52-.32.27-.23.49-.72.84v.23l-.09.36h-.65l0,.68-.17.33.1.49-.63.09-.11.11-.6.1.57.6-.17.24-.16-.1-1.19.52-.2.35-.44.21-.34.65-.55-.43-.29.12.16.58-.43.09-.41.24-.89.38.55.29h-.93l-.62.37-.57.24.06.38-.67,0-.36.47.35.55-.17.39.11.17-.45.4.1.35-.16.67.57.19.85-.3.18.35-.66.46-.45-.12-.43.33-.17.68,1.3,0-.35.45-.52.36.87.85,1.7.47,2.35-1.59.85-.17.32-.82.48.62.3,1L102,50l.44,1.22.64,1.08.28.91.36.56,0,1,1.42-.15,0-.6.39-.39.67-.19.79.11.3-.57.46.18.73-1.5-.55.43-.07-.83.25-2.13,1.2-.58.21-.63.58-.91L109,45.91l-.83-.21-.25-1.23.31-1,.2-.8.45-.48.2-.65,1.31-.7,1.34-1.15-.33-.58.24-1.13.5-.49.6-.08h.86l1.23.63.09.75h-.29l-.26.93-.6.49-.77.59-.13.42-.64.34-.45.9.25.35.24.73.42.8-.12,1.53,1.11.41.74.36,1.28.27,1.84-.46,1.85-.36.76-1,.11.77.89.72,1,.22-.78.17-1,.77-.85.1-1.11-.21L116,48l-.57.66.37.73.37.34.76.12-.15.82.15,1.08-1.18,0-.91-1-1.07.52-.35,1-.24.45.25.76.36,1.86-.32.68-.18.36-.77-.57-.57.56-.67.36-.68-.78-2.79.78-2,.68-.37.28-.91-.57.1-.73-1.18.3-2,.9-.15-.56-1-.18-1.08-1.46,1.62.12-.46-.77-.59-.08.38-.76.84-.42-.61-.57V52l.15-1-.47,0-.43.86H98.8l0,.54L98.13,52l-.74,1.3.42,2,.38,1.15,0,.35.37.74-.69.86-.9-.48-1,.15-.41.39-1.34,0-.48.25-.14.65-.64,0-.26-.13-.37.44-.6.74-.22.65-1.09.9-1.47.53-.49.14L87.91,64l-.27.43-1.49.33-.72.91h-.85l-.78-.58L83.15,65l-.2.6.23.57-.24.9L81.76,67l-.27,0L81,66.57h-.48l-1.32.17-.46.63,0,.86,1.71.6.69.21.83.46.41,1.23.86.54-.16,1.51-.46,2-.78,1.69-7.67-.32-1.06-.44-.92.7-1,.35.41,1.31-.21,1.31v1.13l-1.57,3.73.67.75.2,1-.27,1.64,1.06.3,1.17-.24.76.06,1.62,1.81.38-.52.85,0,.63-.34,1.1-.23,2-.1.69-.51,1.7-1.17.15-.77,1.18-1.18-.14-1,.31-1.25,1.07-1,.6-.92L88.84,79l.09-1.23.29-1,1-.48,1.87.27,1.43.45,1.5-1,1.38-.52,1.55-.9,1.86,1.2,1.3,2.07,1.78,1.43,2.23,1.23,1.75,1.15,1,.83.52,1.65-.37,1.14.26.79.88-1.55.75-.64-.74-1.2.29-.69.64-.15,1.6.65.09-.39-2.06-1.61-1.75-1.44-.45,0-1.41-.69-1-1.69L103,74.65l0-1.46,1.61-.94.55,1,1.15.48,1.39,2,1.22.63.5.48L113,78.51l.57.86-.34,2.24,1.29,1.62.67.5.4,1.24,1,0,1.39.5-1.61.14.37,1.3.18.72,1.09.5,1,.56-.35-1.57,1,0-.73-.62.09-.38.88.21.64-.26.06-.73-.62-.53-.62.07-.62,0,.44-.81-1.32-1.72v-.49l.39-.13,1,.49.61-.12,0-.9.58-.32.58.37,1.06-.56,1.91.92,1.27-.87,1-.08.24-.72-.53-.31-1.07-2.25,1.25-1.58.45-2,.6-.85,1.43-2.52,1.44-.23.29.92,2.2.35-1.58,1.06,1.44.66.24,1.11,3.88-1.16-1.37-.38-1.27-1.17,1.41-1.13,3.71-.9-1.32,1,.65.8-1.44,1.78c1.95,1.34,4.57,3.11,6.51,4.46l.77,1.55-1.77,1.42-8.6-1.73-3.36,1.44-3.07.18-.61,1.16L123.51,83l.64.43.39,3,2.55,1.66,1.52,1.22,2.44-1.17,2,1.25,2.67-1.2,2.13,0-.12,4-2.16,6.28-5-.58-2.19,1c-3.18-1.07-7.43-2.48-10.62-3.53l-3.45,1.84.4,1.45-1.18,1.21-5.7-2.08-.53-1.3-5.65-1.29-2.58-1.77.81-.88.78-.84c-.19-3.8-.19-3.8-5.48-3.86l-9.64,1-5.45,2.85-5.55-1.39-1.81,3.24-2.28,1.16-2.06,2.91c0,.82-.07,1.65-.11,2.48l-1.79,2.7-3.15,2.23-2.66,4.59c-.81,2-1.92,4.73-2.69,6.77l1.28,4.49-.52,5.85.76,3.5c1.59,1.92,3.7,4.51,5.32,6.41L66.54,139c2.09,1.3,4.86,3,6.95,4.32l4-.95,3.87.57c1.92-.75,4.47-1.76,6.4-2.5l3.29.27,2.36,2.78,3.77-.56L99,144c-.34,2.13-.81,5-1.14,7.1,1.39,1.71,3.25,4,4.63,5.69l1.69,4.3.51,4c-.81,2.16-1.89,5-2.67,7.18.84,1.75,2,4.07,2.75,5.83.11,1.41.28,3.28.37,4.68.63,1.46,1.46,3.41,2,4.9l-.25.25-.22.32.17.5.06.44.27.18.31.31.3.09.47-.26.3-.17.52.07.3-.14.94-.3.88.21.32-.12.51-.1.09-.23.81,0,1.18-.58,2.07-1.45L118,185l.92-.69.92-.7,1.14-1.86-.4-.21,1.39-.78,1.49-.55.66-.45.54-1.05.42-.74.33-1.33v-.92l.07-.7.42-.1,1.15-1.08.88-.26.81-.82L130,172l1.39-.19,1.44-1.13,1.42-1.51.34-1.39,1.38-4.17-.44-.55.09-.6-.09-.63.2-.82.06-.61.62-1.29-.41-.79,3-5.23,1-.44.48-.34c1.58-1.46,3.69-3.4,5.24-4.89l1.64-.93,2.94-2.67,1.89-2.41.88-1.65,2.53-3.84,1-2.79.21-1.22-.35-.28-.78.71-2.39.56-1.33.16-.7.41-1.25.17-1.47.68-.74-.22-.38-.93-.43-.39-.89-.35.24-.42.86-.33.21-.55L145,127.64l-1.13-.66-.49-.59-.52-.66-.55-1.65-.19-1.28-1.3-1.91-.63-1.32-.07-2.1-.39-2.39-.61-.84-1.18-1.6-.07-1.3-2.12-4.65-.71-1.69-.46-1-1.57-2.43.24-1.39.8,1.29.78,1.77,1,1.23h.52l.32-2.31L137,104c2.4,3,2.4,3,3,5l.84,1.8,1.27.64.24,1.14.68,1,.38,3.54,1.33,1.17,1,2.28,1.09,2v1l.63,1.3-.52,1.46.68,1.7-.1,2.31,1.85-.11,1.32-.93.88.09,1-.61.85-.7.85.22,1.37-1.31,3-1.09.36-1.23,1-.57,2.07-.71.62,0-.08-.71.59-.67,1,0,.33-.81.52-.68.72-.53.07-.81.46-1.39.61-.42.32-.51.5-1,.62-1.63-.59-.74-.44-1.18L166,111.7l-.78-1.33-.47-2.89-1.89,3.16-1.25.62-1-.05-.72.53-.55-.58-.15-1,.17-1.6L159,108l-.88,1.65-.66-1.81.08-.36-.37-1-1.22-1.55-.55-1.51-.7-2.07,1.08-1.19.38.26.85,0,1.82,3.94,1.11.5.65.67c1.64,1.17,1.64,1.17,2.45,1.4l1.39-1,1.05.29.43,2.2,4.19,1,.53-.21,1.76.39.26-.58.58.19.41.21.66-.1.43-.13.44-.32.29.71.41.92.16,1.14.39.37.5.44.74,1.41.36-.07.51-.4,0,.57-.33.52-.87.26.77,2,.82.86.72-.79.22-.92,0-.47.32-.39.08,1.32.19.88-.29,1-.26,6,.11,4-.18,3.42.11,1,0,.83-.1,1.42-.27.95-.07,2.4.33-.1.53-.84,1-1.42.26-.9.48-.49.57-2,.5-1.23.32-1.18.16-1.21.4-1.65.44-1.32.66-1.21,1.56-2.58.76-1.89L188,119l.5-1.49.13-1.33.35-.49.51,0,.26-.31.32-.63.08-.85.17,0,0,2.25.05,1.73.15,1-.11,2.37-.26,2.26-.31,1.38.11.69.18-.42.32-1.11.18-.88-.16,1.79-.31,1.87-.39,2.16-.19,1.17-.43,1.71-.38,1.5-1.35,4.36-.1.49-.64,2.19-.7,1.88-.74,1.92-.73,1.81-.48,1.14c.67-1.45,1.31-2.92,1.9-4.41l.07-.17.29-.76.11-.28.15-.44.27-.76.12-.45.25-.82.3-.9.3-1,.24-.82.16-.79,1.49-5.17.2-.86H190l-.27,1.26.06-.09-.23,1.06c.64-2.53,1.19-5.09,1.61-7.69a90.73,90.73,0,0,0,0-29.17Zm-33.76-5.88-.57-1-1.24-.83-1.13-.46-.6-1.37,0-.91.33-1.48L154,81.22l-3.31-4.34-.37-1.27-1.13-1.82.91-1.73,1.46-1,.82-1h1.17l1.77.42.77,2.11-.93.39-1.18.64.06.81-.43.48,1.1,1,.64,1.12.94.62.7.75.78,1.81.35-1.28,1.15,1.37.71.89-1,.32h-1l.49,1.25.25,1,1,.9c.22,1.18.44,2.38.63,3.58ZM164,75.35h-.72l-1-2.69.27,2.1-.71-.62-.14-1.86.24-.64h.81l1.07,1,.57,1.72Z"/><path class="cls-4" d="M189.14,133.39l.05-.17,0,.09Z"/><path class="cls-4" d="M189.52,132l0-.15c-.12.47-.24.95-.37,1.42Z"/><path class="cls-4" d="M133.67,90.79l-.89.76.89.53,1.33-.66c0-.3-.05-.59-.07-.89l.7-.42Z"/><path class="cls-4" d="M124,90.84l-.93-.08h-1.91l-.71-.38-.7.5,1.3.43,1,.18Z"/><path class="cls-4" d="M106.52,85.86l-1,.17-.92-.17L104,86l-.76.52L106,87.9l.78.56.42-.25c0-.37,0-.73,0-1.1l.64-1.16Z"/><path class="cls-4" d="M98.44,77.06l-1,.79-.26.4v.41l.45,1,.41.18.42-.67.12-1.07Z"/><polygon class="cls-4" points="96.38 81 96.93 82.5 96.88 83.98 97.1 84.48 97.54 84.42 97.81 84.2 98.64 83.76 98.79 83.23 98.82 82.3 98.93 81.29 98.79 80.77 98.24 80.53 97.51 80.73 97.15 80.9 96.38 81"/><polygon class="cls-4" points="88.89 82.73 87.95 82.92 87.52 83.47 88.17 83.72 88.79 83.47 88.79 83.47 88.89 82.73"/><path class="cls-4" d="M88.22,60.5l.31-.54-.44-.62-.84-.05-.18.17h-.23l-.22-.25.08-.71-.49-1c0-.18.06-.35.08-.53l-.39-.64-.38-.19-.33-.54-.06-.9-.19-.3-.51-.32-.32-.23-.73.05-.14-.21,1-.75.64-.93.48-1L85,50.88l-.87,0-.71.06L83,51l-.33-.09.2-.33.59-.38.51-.59.29-.39,0-.3-.62.46-.37.11-.85-.09-.33.06-.63.93-.65.63-.07.17-.1.3-.27,0-.26-.34-.36.08-.14.2.32.36.45.14.06.15-.71.74,0,.25.24.15.23.25-.81.48-.35.28L80,54l0,.28,0,.41.26.06.4-.22L81,54l.2-.23-.09.49,0,.52-.54.79-.17.31.71.19.58-.11.68-.39h.23l-.18.51-.22.55.43.3.18.22-.26.57-.17.77-1,.18-.26-.13-.29,0-.18.44-.25.28-.24.34.39.25.26.25-.18.28-1.21.61-.32.26.51.35.4-.14.22.16.65.23.69.12.69-.12-.35.39-.49.2h-1l-.81.6-.66.6-.55.91,1-.56.53-.15.41.34.68-.59.07-.18.8-.19.9.1.42-.39.88.48L84.9,63l1.34,0,1-.4.5-.49-.61,0-.22-.23.41-.55Z"/><path class="cls-4" d="M80.45,50.06c0-.12.07-.25.11-.37l-.77.51-.28.53.43-.17Z"/><polygon class="cls-4" points="87.48 46.17 87.44 45.84 86.87 46.49 86.79 47.01 87.16 46.73 87.48 46.17"/><path class="cls-4" d="M74.56,61.65,75.77,61l.9-.44h.49l.65-.07.46-.76.23-1.57v-.86l.57-.34.5-.28h0l.19-.31L79,55.13l-1.27.4-.55-.14-.56.06-.28.31.41.6-.13.21-1,.31-.19.21-.34,0-.73-.17-.12,1-.2.32.61.76,0,.31-.56.42-.34.61-.78.44-.07.24.57.69Z"/><polygon class="cls-4" points="102.79 54.19 102.35 53.9 101.75 54.04 101.38 54.48 101.56 55.01 102 55.38 101.63 55.71 101.98 56.27 102.35 56.16 102.89 55.47 102.89 55.47 103.23 53.9 102.79 54.19"/><polygon class="cls-4" points="110.49 50.63 110 50.94 109.81 52.18 110.2 51.87 110.5 51.41 110.49 50.63"/><polygon class="cls-4" points="114.5 49.26 114.26 49.4 114.19 50.28 114.69 49.77 115.28 49.49 114.5 49.26"/><polygon class="cls-4" points="130.03 32.07 129.63 32.2 129.8 32.58 130.25 32.9 130.82 33.12 131.06 32.89 131.12 32.59 130.67 32.28 130.03 32.07"/><path class="cls-4" d="M125.8,25.42l-.06-.24-.41-.31-.38-.59-.09-.29-.54-.45-.64-.26-.4-.13-.39-.08,0,.15.33.2.12.09-.09.09.09.14h-.17l-.46-.1.16.19,0,.05.08.13-.11.06.26.23.24.25.25.15h-.24l0,.1.81.37.23.26.23.14.31.23.19.21-.07.14.2.16.62.24,0,.12.22.17,0,.28.28.23-.18.12.84.41.26.4-.19.24.15.21.69.38.37,0,.77.53.33.1-.67-.55.58.23.47.25.13.14.93.45,1,.16.77-.09-1.88-.88-1.62-.92-.64-.44-.13-.29-.68-.48,0-.12-.7-.61v-.12l-.64-.36.14-.07-.37-.26-.4-.21.06-.08Z"/><polygon class="cls-4" points="133.37 27.35 133.43 27.13 132.46 26.85 132.82 27.1 133.37 27.35"/><path class="cls-4" d="M136.24,27.43l-.28-.11.53.32h.2Z"/><path class="cls-4" d="M93.59,199l-.72-.08.25,0,.63.07.88.09-.16,0Z"/><polygon class="cls-4" points="94.24 199.05 94.24 199.05 93.73 199 93.58 198.99 94.11 199.04 94.82 199.11 94.72 199.1 94.24 199.05"/><polygon class="cls-4" points="99.72 199.39 100.03 199.4 100.03 199.4 99.92 199.4 99.72 199.39"/><polygon class="cls-4" points="18.95 134.21 19.16 134.93 19.45 134.78 19.18 133.89 18.95 134.21"/><path class="cls-4" d="M14.52,121l0,.65.15.42h.28l.08-.42-.12-.41Z"/><path class="cls-4" d="M13,121.33l.17.7,0-.2.1-.08.16.44.12-.72.14-.14.2.16,0-.67-.09-.49-.33-.89-.29-.46-.17,0-.18-.46h-.09l.08.76.26,1.49L13,121Z"/><path class="cls-4" d="M12.7,118.29l0-.32c0-.36-.08-.71-.11-1.07,0,.36.08.71.11,1.07,0,.12,0,.24,0,.35.09,1,.2,2,.32,2.91-.12-1-.23-1.93-.32-2.91Z"/><path class="cls-4" d="M41.79,44l.62-.55,1.53-1.67.55-.64.26-.18-.3.45-.44.57.11.08.69-.46.62-.52.25-.33.8-.71.57-.51.4-.45V38.9l.48-.49.69-.56.35-.26.84-.61.58-.41.22-.11-.43.39L50,37.1l-.75.67-.9.91.85-.59,1-.54.75-.53L52,36.36l.47-.34.2-.22-.08-.08-.12,0a14.14,14.14,0,0,0,1.62-1.32l0-.13-.18,0,.6-.47.1-.14.4-.33.82-.54.38-.2.24-.06.38-.3.21-.16.42-.23.67-.37.39-.24.44-.3-.76.41,0-.05.67-.36.39-.21.54-.33-.18,0,.07-.06.66-.36-.1,0L60,30.2h0l.52-.28.16-.05.59-.29.36-.19.38-.21-.22.08-.33.16-.35.17.12-.06-.21.11c-1,.53-2.06,1.09-3.07,1.66s-2,1.16-3,1.77l-1,.67-.85.58L52,35l-1.24.84-.11.12.43-.24.1,0-.26.27-1,.72-.62.38h-.06l.55-.42.52-.44h-.11c-.36.25-.72.49-1.07.75-1.14.83-2.25,1.7-3.34,2.58l.06,0-.46.4-.67.6-.2.2-1.26,1.11-.18.24h.13l-.5.54-.67.8-.37.55Z"/><path class="cls-4" d="M26.17,64.85l-.19,2h0a4.57,4.57,0,0,0,.47-.79A2.11,2.11,0,0,0,26.17,64.85Z"/><path class="cls-4" d="M30.49,63.17l.37-.48.35-.37.28-.45L30,63.17l-.93,1.21-.69,1.14L28,66.3l-.14-.1-.3.1-.38.72c-.06.12-.12.24-.19.36l-.52.72-.26.61h.24l.36,0,.28,0,.3,0,.58-.46.06.21.11.25-.59,1L28,69.4l.25-.24.32,0-.24.73.26.19.46-.35c.09-.19.17-.39.26-.58l.05-.67-.24.25.27-.61.29-.38.24-.35-.32,0-.1-.05.26-.52.55-.78.08-.45L30,65.8l-.3.27-.08-.15,0-.37.06-.48.14-.32,0-.27-.43.31-.14,0,.71-.92Z"/><path class="cls-4" d="M62.07,31.68l-.64.43-.57.34-1.17.8-.44,0-.67.23-1,.63-1.65,1-.52.45-.12.31-.44.3-.88.51-.6.6L53,38l-.36.44-1.51,1.33,0,.21-.71.76-.26.39-.33.45-.36.61-1.13,1.48-.25.6-.46.8.11.46h.18l.08.32.26.06,0,.49.44.76,1.15-.85.74-.72c.25-.31.51-.62.77-.92l.6-.39,1-1.35,0-.15.47-.31.63-.13.84-.64,1-.78.42-.33.46-.65.5-.2.6-.6v-.25l.37-.33.17.23.22-.08.28-.31.58-.43.71-.17.5-.22.65-.55.46-.31.1,0-.56.54-.27.27.58-.21.85-.13,1.56-.64,1.44-.88,1.17-.78.88-.4.62-.57.47-.07.22.2.37-.23.61-.1.54-.18.34-.06L72.75,33l.6-.22.87-.41,1.58-.59,1.59-.72-1,.25-.49-.23-.4-.25-.87.3.15-.17,1-.51.47-.24.72-.66.2,0-.07.5v.54l.42.07.68-.23.57-.58.45-.38.11-.54,0-.64.13-.28L80,27.9l.09.31.18,0,.65-.34.52-.38-.21-.2-.51.1-.83.23-.13-.17.53-.32.74-.24.45-.35.28.35L82,27l.57-.07.85-.32.1-.35,0-.26.43-.15h1l.72-.38-.38,0-.26-.1.18-.26.31-.21.43-.12h.38l.58-.23.58-.39.33-.32-.49,0,.15-.2.13-.15.19-.23h.44l.52-.14L89,23l.27.07h.2l.33-.13.34-.26,0-.06-.25,0h-.34l.33-.19.33-.12h.36l.2-.17-.1-.11-.58.17-.47.11.23-.14.76-.22,1.22-.46.4-.12.9-.21.67-.22.5-.13.37,0,.31-.08.24-.11c-.27,0-.53.08-.8.12l.31-.1.51-.09.31,0,.6-.08.19-.06,0,0H96l.33-.06.32,0,.48-.07.26,0,.45-.08.32,0,.73-.13.2-.06.13,0v0l-.35,0-.33.05-.67.11.07,0,0,0-.31,0,.48-.09h-.07l-.9.13-.82.12-1,.17c1-.19,1.68-.32,3.12-.51l.36,0h0l-.29,0-.6.08-.71.07-.66.07L97,20l.9-.1.29,0,.13,0H98.1l-.32,0-.76.07-.24,0c.74-.09,1-.1,1.84-.16h.31l.58,0,.28,0,.27,0,.43,0h.36l-1.34,0h-.39l-.45,0-.39,0L97,19.81l-.82.08-.28,0,.57-.05.75-.07.28,0,.62-.05.61,0h-.08l-.48,0-.79.06-.73.05-.41,0,.25,0,.63,0,.72-.05c.38,0,.75-.05,1.13-.06h-.4l-.38,0-.57,0-.78,0-.5,0H96.1l-.48,0-.19,0,.51-.05h0l-.37,0,.18,0h0l-.32,0-.22,0h-.46l-1,.1L93,20.1l1-.1-.59.06-.61.07h0l.42-.05-.79.08.25,0-.83.08-.3,0-.66.08-1.22.17h0l1-.12-1.42.19-.16,0-.3.05h0l-.18,0-.58.1L86.81,21l-1.1.2-.37.06h-.07l-.08,0c.84-.17,1.69-.34,2.55-.48-.86.14-1.71.31-2.56.48l-.25,0-.7.14-.51.09h0c-.53.11-1,.24-1.57.36s-.82.17-1.23.27l-.22.05.22-.05-.15.05-.72.19-.26.09.32-.07.33-.07-.47.14-.54.14-.32.07.07,0-.22.05-.33.07-.12,0-.27.07-.22.06L77.7,23l-.15.06-.16.06-1.13.34-.9.31-.43.16-.05,0,.76-.25.12,0-.25.09-.05,0,.34-.1.21,0,.15,0,.4-.11-.89.44-.32.15-.51.23-.93.35-.46.19-.63.32-.7.34-.8.36-.89.39-.67.36-.91.43-.42.26-.59.29-1.11.5-.57.3-1,.53-.37.28.42-.13.85-.33-.78.46-.62.5-.16.25-.56.47-.26.15h-.2l.26-.37-.64.07-.35.3-.44.57.17.11ZM97.76,19.73l-.47,0,.33,0Zm-1.06.07.47,0-1,.08Zm-1.18.1-.42,0-.72.07.55-.06Zm-11.3,1.54h0l-.41.08C83.92,21.49,84.07,21.47,84.22,21.44Z"/><polygon class="cls-4" points="60.3 32.05 59.97 32.45 60.4 32.37 61.22 31.97 61.54 31.68 61.85 31.39 62.11 31.17 62.21 30.98 62.06 30.94 60.56 31.78 60.3 32.05"/><path class="cls-4" d="M69.09,40.63l.15.12.92-.16.52.16.76.64.87-.12.64-.35.78-.27.55-.15.81-.37,1-.27.67-.5,1.07-.72v-.78l-.27-.16.31-.88-.58,0-.49-.42-.66.85L75.87,37l-.37.32,0-.31-.51.09-.3-.17-.82.43-.18-.2-.56.29-.41.44-.71.28,0-.35.37-.41v-.62L72,36.52l-.14-.08-.16.6-.25,0-.67.23-.87.63v.23h.55L71.1,38l.27.14-.49.47-.25.28-1.46.29h.69l.42,0,0,.36v.33l-.23.34Z"/><polygon class="cls-4" points="102.08 21.78 102.24 21.89 102.01 21.59 101.8 21.42 101.87 21.64 102.08 21.78"/><path class="cls-4" d="M102,21.21h.08l.11-.06.1,0,.06,0-.12.11-.12.13v.1l.11.13.19.14.18.1.2,0,.19,0,.06-.13,0-.12.11,0,0-.06v-.1h.11l0,.09v.18c.11,0,.19-.06.28-.08l.09-.07.08.12,0,.13-.26.11-.09.11-.2,0-.24.05-.09.08v.08l.16,0,.26,0,.42,0h.36v.08l-.22.05h-.21l-.23.07,0,.1h-.12l-.19,0-.08.08.18.17.3.16.1.05.2-.05h.14L104,23l-.24.1.26.12.19.15h.13l.12-.06,0-.18,0-.22.11-.34.17-.13,0-.06,0-.1-.07-.14.07-.08,0-.06-.07-.08v-.11l.08-.16.21,0,.13,0h.09l.05.08h-.08l0,.08.21.16.19.08a.21.21,0,0,0,0,.06l.12,0,.11.14v.18l0,.12.1.08.34-.07.08-.08.1,0,.09.13.1.11.12,0,.11-.05.08-.15,0-.13.07-.07,0-.1-.07-.05-.19,0-.12,0h-.17l-.11,0,0-.13-.08-.06-.43-.06v-.08l-.08-.07-.19-.08-.13,0-.21-.22-.29-.11,0,0-.11,0,0,0,0,0-.1-.07-.22-.06h-.14l-.11-.12-.15-.1-.06.06-.06.05,0-.08v-.12l0,0-.14-.07-.15,0,0,0-.17-.13v.13l-.05.06a1.55,1.55,0,0,1,.43.5l-.3-.18-.15-.16-.12-.15-.11-.05,0,0,0,.07,0,.08,0,.11,0,.05-.06,0-.06-.08-.11,0-.11-.06.12,0,.13,0,0,0-.08,0h-.1l-.23,0-.19,0-.1,0a.39.39,0,0,0-.21.15l.06.19Z"/><path class="cls-4" d="M104.57,20.88l-.09,0,0,.05.49.1h.24V21l.19.08.27.07h.07l.09-.06.07,0,.17,0V21l-.06-.07v-.06l0-.08,0-.05-.09-.07-.14-.05-.13,0h-.17l-.16,0-.17,0-.19,0,0,0,.07.08-.11,0-.19-.12-.1,0h0v0l.21.15v.05l-.13-.05-.1,0-.06,0h-.16l-.12-.07-.11,0-.17,0h0l.07.06,0,0h0l-.13,0h0l.06.06.06.07-.05,0-.18-.09,0,0,0,0v0l0,0,.07,0,.11,0,.08.05,0,0,0,0,.09,0,.11,0,.23,0,.18,0,.22,0h.12l.05,0-.11,0Z"/></g><path class="cls-5" d="M106.11,18.59c1.25.05,2.49.13,3.72.23C108.6,18.72,107.36,18.64,106.11,18.59Z"/><path class="cls-6" d="M102.36,18.52h0c.75,0,1.49,0,2.23,0C103.84,18.54,103.1,18.52,102.36,18.52Z"/><path class="cls-7" d="M104.58,18.56c.51,0,1,0,1.53,0C105.61,18.57,105.09,18.57,104.58,18.56Z"/><path class="cls-8" d="M187.46,142.24c.16-.41.31-.82.46-1.23-.36,1-.75,2-1.14,2.93C187,143.38,187.24,142.81,187.46,142.24Z"/><path class="cls-9" d="M127.75,197c1.15-.33,2.29-.68,3.42-1.06s2.26-.77,3.37-1.19c-1.11.42-2.23.81-3.37,1.19S128.9,196.62,127.75,197Z"/><path class="cls-10" d="M188.46,139.49c.14-.4.3-.8.43-1.2.19-.57.36-1.16.54-1.73-.18.57-.35,1.16-.54,1.73C188.76,138.69,188.61,139.09,188.46,139.49Z"/><path class="cls-11" d="M185.28,147.4c.31-.68.62-1.36.91-2.05.17-.39.33-.78.49-1.17q-.87,2.13-1.85,4.2Z"/><path class="cls-12" d="M141.09,191.94c1.07-.51,2.12-1,3.17-1.57a90.69,90.69,0,0,0,9.08-5.38,90.69,90.69,0,0,1-9.08,5.38C143.21,190.91,142.16,191.43,141.09,191.94Z"/><path class="cls-13" d="M178.93,158.93c.51-.79,1-1.58,1.5-2.39h0c-.68,1.11-1.37,2.21-2.09,3.29Z"/><path class="cls-14" d="M176,163.27c.82-1.12,1.62-2.27,2.39-3.44l-.1.15C177.5,161.09,176.74,162.19,176,163.27Z"/><path class="cls-15" d="M190.76,131.88c.1-.4.19-.8.29-1.2s.12-.55.19-.83c-.19.83-.39,1.66-.6,2.48C190.68,132.18,190.72,132,190.76,131.88Z"/><path class="cls-16" d="M190.16,134.09c.08-.27.15-.55.23-.83-.17.62-.33,1.25-.51,1.86C190,134.78,190.07,134.44,190.16,134.09Z"/><path class="cls-17" d="M190.64,132.33c-.08.32-.17.62-.25.93C190.47,133,190.56,132.65,190.64,132.33Z"/><path class="cls-18" d="M188.89,80.76c.57,1.69,1.08,3.41,1.55,5.15C190,84.17,189.46,82.45,188.89,80.76Z"/><path class="cls-19" d="M190.44,85.91c.47,1.74.88,3.5,1.25,5.27C191.32,89.41,190.91,87.65,190.44,85.91Z"/><path class="cls-20" d="M153.51,34.18c-.32-.22-.65-.42-1-.64.33.22.66.42,1,.64Z"/><path class="cls-21" d="M118.41,19.94l-1.27-.23,1.27.23Z"/><path class="cls-22" d="M140.89,27h0c1.13.53,2.24,1.07,3.35,1.64C143.14,28.09,142,27.55,140.89,27Z"/><path class="cls-23" d="M139.77,26.52c-.77-.34-1.54-.69-2.32-1,1.14.47,2.27,1,3.39,1.49Z"/><path class="cls-24" d="M140.84,27l0,0Z"/><path class="cls-25" d="M124.85,21.32l-1-.26c.78.19,1.55.39,2.32.6Z"/><path class="cls-26" d="M136.41,25.1c-.82-.34-1.65-.66-2.49-1,.84.31,1.67.63,2.49,1Z"/><path class="cls-27" d="M88.74,199.51l-.57-.09-1.15-.2-1.48-.28L84,198.63l-.73-.14L82,198.2l-1.2-.3-.81-.22-.18-.06L79,197.4,77.49,197l-.95-.29-.26-.1-.34-.1-.59-.2.55.16-.44-.16-.67-.22-.18-.05.36.14-.46-.13-1.14-.39-1.08-.38-.31-.12.29.08.25.06.2,0-.61-.25-.94-.36-.43-.18-.3-.13-.73-.28-.52-.24h.08l.2,0-.2-.21-.41-.26-.91-.46-1-.57-.57-.28-.43-.17-.51-.21-.7-.39-.5-.26-.44-.16-.61-.23-.48-.27v0l.35.14.24.05.7.25,0-.06.25,0-.09-.17-1-.69-.73-.59-1-.72L60.6,188l-.72-.59-.76-.55,0-.19.54.38,1.08.9-.53-.57-1-.83-1-.89-.33-.46-.59-.56-1.15-.91-1.18-1-.91-.95,0-.29-.37-.64.06-.57,0-.49-.19-.42,1,0,.23-.29-.46-.48.32-.23-.67-.72-.29-.69-.38-.67-.45-.54v-.36l-.8-1.09-.31-.58,0-.26-.71-.93-.62-1-1.65-2.25-.58-1-.16-.53-.27-.2-.1-.35.63.24L48.1,167l-.59-2,.33-.39.08-1-.28-1.53-.82-1.86-1-1.56L45,157.57h-.73l-.82-.31-.81-.54-1-.89-1.35-1.07-1.39-.29-.5.17L36.92,154l-.2-.09-.58.89-.47-1.32-1.35-1.21L33,151.51l-.87-.26,0,.49.29.81-.29-.13v.9l-.32-.47-.08-1.26-.09-.36-1-.79-.65,0,.15.84-.05.26-.36-.48-.25-.65.33-.1-.21-1.71-.55-.91-1.14-1.27-1.05-2.19-1.34-1.78-.77-.38-.82-.55-.8.18-.41-.48-.17.26-.95-1.2-.34-.36-.47-1-.65-.8-.56-.53-.45-.05-.26-1.26-.88-.86-.27-.72.08-.15-.29-.46-.56,1.16-.79-.91-.12.36-.3-.4-.34-1.08-.18-.36-.15-.08-.35-.84.2,1,0,.38.11.83.65,2v.4l-.27-.67-.52-2-.31-1.09,0-.31-.05-.53-.16-.45,0,.59,0,.48.09.58,0,.44c0,.17.09.34.14.51l-.08-.21c.09.33.17.67.27,1,.33,1.15.69,2.29,1.06,3.42s.78,2.25,1.2,3.36.86,2.21,1.32,3.3c.92,2.18,1.93,4.31,3,6.4a91.7,91.7,0,0,0,5.4,9.06c.65,1,1.33,1.92,2,2.86A92.25,92.25,0,0,0,35.12,171c.9,1,1.81,1.94,2.75,2.88-.94-.94-1.85-1.91-2.75-2.88l.38.38L37,172.71l.7.67,1.13,1,2.05,1.94,2,1.78,1.75,1.55.62.47.57.5,1.61,1.27,2.37,1.79.92.67.78.54.7.5,1.63,1,.94.61,1.24.75,2.24,1.3.41.23.84.46,1,.56,1.81.92,1.89.91c.9.42,1.8.82,2.71,1.21q1.64.69,3.3,1.32c1.11.42,2.24.81,3.37,1.19s2.27.73,3.43,1.06,2.31.65,3.48.94c2.34.57,4.71,1.06,7.12,1.45l1.19.17c.76.11,1.53.23,2.3.33l.14,0,.51,0-.65-.07C90.28,199.74,89.51,199.62,88.74,199.51Z"/><path class="cls-28" d="M70.34,24.29l-.75.29-.15.06c.3-.12.59-.24.9-.35Z"/><path class="cls-29" d="M12,97.63c-.18,1.35-.33,2.7-.44,4.06C11.62,100.33,11.77,99,12,97.63Z"/><path class="cls-30" d="M15.11,83l.26-.76.23-.72.1-.31.1-.14.11-.11.17-.27.11-.23,0-.23-.17.19-.05,0,.15-.35.25-.38.12-.12.27-.66-.07.33,0,.06.22-.39c.07-.21.15-.42.22-.64l.06-.34,0-.15.2-.43.24-.63.32-.72.16-.3.15-.22.12-.2.12-.24.09-.07.21-.36.27-.54.16-.25,0,.12v.25l.17-.2.55-.82.58-.64.19-.17.61-.86.21-.34,0,.2-.15.32-.16.23-.12.31.27.22-.16.23-.29,0-.18,0-.58.89-.56,1-.14.36-.08.57.16,0,.41-.55.34-.55.24-.41.21-.24.27-.11,1.23-1c0-.1.08-.2.13-.3l.09-.27.18-.23.59-.38.27-.34a2.92,2.92,0,0,0,.14-.31h-.09l-.15-.08.47-.94,0-.21-.34.42-.24.36-.15.26-.44.58-.24.49-.2.12-.26.1-.23-.18,0-.19.1-.36,0-.57.06-.35.17-.42.28-.75.28-.47.32-.55,0-.17h0l-.22.25-.15.15,0-.13.14-.27.25-.32.36-.34.28-.33.33-.53.35-.82,0-.22h-.19l-.69.49-.77.79-.29.38-.78,1.15-.61,1-.21.28,0-.1.67-1.06.31-.51.26-.49v0l.36-.5.7-1,.42-.52h.16l.34-.55.67-.89.34-.25,1-.19h1.07l.54-.42.46-.44.56-.63.4-.42.22-.12h.28l.28-.07.42-.35.57-.59.44-.47,0-.2,0-.3.19-.11.21-.17.73-1,.09-.44.1-.45-.25.16-.28.24-.12,0,0-.15.54-.7.07-.23-.1-.08h-.2l-.69.61-.28.23-.32.16-.33.32h-.07L31,57.4l.32-.34.18-.07L32,56.5h.19l.21-.1c.74-.42.74-.42,1-.78l.09-.29-.18-.06h-.15l.18-.6-.21.1.08-.27-.19.13h-.1l.15-.33.39-.69L33.7,53l.13-.39.08-.42.15-.22.13,0v.14L34.4,52l.48-.48.27-.38,0-.15.12-.21.45-.55.19-.35.17-.3.17-.24.16-.26.21-.29.15-.19.14-.2.16-.22.21-.26.14-.18.34-.47.29-.4.2-.23.18-.22.25-.32.4-.49.18-.22-.27.22-.51.5-.34.31-.38.34-.16.19-.18.23-.33.27-.19.18-.39.45-.1,0-.37.37-.06,0,.13-.21-.09,0-.13.12-.33.34-.29.27-.29.21,0,0,.2-.27.13-.22h0l.4-.51,0-.05.07-.13.48-.54.31-.4.35-.35,1-1.06.46-.46.52-.48.17-.19h0l-.22.18.23-.28h0v-.06l.19-.24.4-.4.19-.22.38-.39.15-.16.37-.36.06-.07.19-.21.14-.15h0c-.19.19-.4.36-.6.54-.85.79-1.69,1.6-2.52,2.42-1.65,1.65-3.23,3.36-4.76,5.13-.94,1.09-1.84,2.22-2.73,3.35-.55.71-1.09,1.41-1.62,2.13A90.65,90.65,0,0,0,21.34,67.7,91.76,91.76,0,0,0,17,77.4q-.63,1.66-1.2,3.36c-.25.75-.47,1.51-.7,2.26a89.86,89.86,0,0,0-2.75,11.74c-.16.95-.29,1.91-.41,2.87.12-1,.25-1.92.41-2.87A89.86,89.86,0,0,1,15.11,83Z"/><path class="cls-31" d="M51.37,185a90.69,90.69,0,0,0,9.08,5.38c1,.54,2.1,1.06,3.17,1.57-1.07-.51-2.13-1-3.17-1.57A90.69,90.69,0,0,1,51.37,185Z"/><path class="cls-32" d="M11.94,121.37c.12,1,.26,1.95.42,2.92s.36,2,.56,3c-.2-1-.4-2-.56-3S12.06,122.35,11.94,121.37Z"/><path class="cls-33" d="M12.92,127.31c.27,1.37.56,2.74.9,4.08C13.48,130.05,13.19,128.68,12.92,127.31Z"/><path class="cls-34" d="M109,19l-.53-.06h0a.75.75,0,0,0,.2,0l.14,0h0s.57.07.6.06L109,19a.14.14,0,0,0,.09,0Z"/><path class="cls-35" d="M110.53,19.12a5.42,5.42,0,0,0,.78.11s0,0-.48-.09l-.65-.09h0c.12,0,.25,0,.37.07Z"/><path class="cls-36" d="M111.7,19.37a3,3,0,0,0-.48-.12c-.19,0-.94-.14-1.12-.15h0c.07,0,1.43.28,1.61.27Z"/><path class="cls-37" d="M112.36,19.62h0c-.12-.09-.28,0-.39-.12h0l-.07,0a6.07,6.07,0,0,0-.78-.11h0a1.37,1.37,0,0,1,.34.07h-.07A4.38,4.38,0,0,0,112.36,19.62Z"/><path class="cls-38" d="M109,19c.18,0,.37,0,.55.09l.32.08h0l.15,0a3,3,0,0,0,.5,0h0a2.44,2.44,0,0,0-.49-.11A10.61,10.61,0,0,0,109,19Z"/><path class="cls-39" d="M109.75,19.42l.09,0a2.14,2.14,0,0,0,.61.1h0c-.07,0-.15,0-.22-.08h0a.59.59,0,0,0-.19-.05,1.71,1.71,0,0,1-.35-.11l0,0-.08,0c-.15,0-.73-.13-.85-.14h0a3.23,3.23,0,0,0,.51.12l.18,0v0Z"/><path class="cls-40" d="M110.77,19.42h0a1.34,1.34,0,0,0,.53.1l-.16-.05C111,19.46,110.84,19.42,110.77,19.42Z"/><path class="cls-41" d="M109.31,19.37h0l-.17-.06-.14,0s0,0,0,0a.17.17,0,0,1,.1,0,.27.27,0,0,0,.09,0l-.06,0h0a2.68,2.68,0,0,0-.4-.05s0,0,0,0,.07,0,.09,0,0,0-.08,0A3.78,3.78,0,0,0,109.31,19.37Z"/><path class="cls-42" d="M112.2,19.07l-.43,0h0l.91.1Z"/><path class="cls-43" d="M117.76,19.87l2.16.39c1.35.28,2.69.6,4,.86L123.3,21c-.93-.22-1.87-.42-2.81-.61l-.91-.18-.43-.08-.53-.1.23.05-.87-.16-1.41-.23.65.11c-.4-.07-.81-.14-1.22-.19l.35.06c-.63-.1-1.44-.23-2.4-.35L111.8,19l-.27,0c1.7.19,2.7.33,3.24.41C115.77,19.54,116.75,19.8,117.76,19.87Z"/><path class="cls-44" d="M120.34,20.31l.15,0,.46.09Z"/><path class="cls-45" d="M186.44,143a5.36,5.36,0,0,1,.09-.7,17,17,0,0,0-1,3,52.26,52.26,0,0,1-4.74,10.46c.85-1.44,1.67-2.89,2.44-4.37.22-.41.42-.82.63-1.23a33,33,0,0,0,2.66-7.13Z"/><path class="cls-46" d="M133.73,181.46c2.37-2.5,5.43-5.91,7.69-8.51l.89-1.28c.19-.33.37-.65.54-1l.21.54.52-.42.3-.63.44-1.37.27-.68.22-1-.05-.58-.52.36-.57.86-.83.54h-.5l-.26.53-.64,1.25-.78.12-1.75.83-1.37.27-.44.43-.72,1.1-.45.59-.49,1.42-.51,1.29-.93.91-1.17,1.18-1.31,3.17.53.52.59-.09Z"/><polygon class="cls-47" points="181.65 139.51 181.18 141.75 182.75 139.6 182.94 136.01 181.65 139.51"/><path class="cls-48" d="M128,22.19l-.24-.07.79.23-.41-.12Z"/><path class="cls-49" d="M126.73,21.84l-.28-.08-.92-.25-.26-.07-.11,0c.86.22,1.71.46,2.56.7l-.28-.08Z"/><path class="cls-50" d="M128.89,22.47l-.25-.08-.13,0c.13,0,.25.09.38.12h0Z"/><path class="cls-51" d="M185.05,147.69l0-.06-.2.45Z"/><path class="cls-52" d="M192.24,94.76a90.62,90.62,0,0,0-3.46-14,89.13,89.13,0,0,0-5.53-13.06,90.58,90.58,0,0,0-7.41-11.92,91.73,91.73,0,0,0-31.69-27.11,90.38,90.38,0,0,0-13.08-5.51c-.72-.24-1.45-.46-2.18-.69h0l.31.1.64.2.23.07-.42-.12.09,0,.26.09.27.09-.1,0,.07,0-.16-.05-.51-.17-.3-.09.18.06.36.12-.32-.09.49.18-.09,0,.11.05.68.21.15.09.22.09,0,.06.42.16.13.07.23.11.46.19-.22-.06-.12,0,.13.06.25.08.25.1h-.05l.31.13.13,0,.43.16,0,0-.18-.05h0l.38.14.15,0,.23.07.33.12-.06,0,.5.17.16.06.52.2.5.23.22.1-.14-.05-.33-.1.39.22h-.29l-.08.12,0,.12.66.33.84.37.6.31,1.05.41.37.11.54.23.68.35.23.16-.7-.24-.89-.37-.74-.23-.39-.06-.47-.2h-.15l.39.27.31.07.3.17.51.17.35.17-.51-.11-.31-.09.28.25,1.23.57.81.27.39.18.43.19.13.12-1.26-.48H140l-.24-.06-.7-.41-.48-.22-.74-.47-.75-.42-.93-.43H136l.63.31,1,.61L138,28l.32.21.25.21,2.05,1,.5.29,1.31,1,.57.36.93.63.33,0,.09-.24.76.29,1.05.46,1.06.67.39.39.4.28,1.12.54-.51-.08-.93-.56-1.15-.86L145.18,32l-.07.34L147,33.64l.68.79.39.31.35.76.51.57-.7-.24-.33.13-.59-.25-.16,0-.36-.13-.45-.46.15,0,.58.31v-.23l.62.35-.12-.22h.24l-.45-.33v-.19l-.46-.41v-.07l-.31-.28-.11-.3-.21-.24-.49-.33-.54-.45-.11-.16-1.39-.74-1.28-.84-.59-.44-.92-.56-.91-.65-.49-.29-1.32-.61-.27-.14-.5-.41-.53-.34-1.38-.77-.9-.28h-.39l-.43,0,2.41,1.64.33.52L137,29l.59.32h.16l.86.6.52.37.19.23.42.31,1.17.42L142,32l.48.19.67.52.16.31-1.64-.81-.68-.27-1.25-.45-.84-.3-1-.36-1.64-.2-.61-.32-1-.36-.24,0,.56.42.52.2.39.17.58.13.76.52.87.51.31.29-.2.09-.11.09.44.37-.14,0L138,32.6l-.25-.36-.88-.37,0,.63-.66,0-.39.09.1.53h-.51l-.61-.19-.17-.13.41-.06-.43-.3-.29-.45-.48.33.37.48h-.07l-.44-.24-.9.42v.28l-.22.3.06.18-.52.21.58.83-.17.29h-1l-.73-.51-.45-.24-.42-.45.14-.17.28-.21.6.09-.9-.63-.44-.35-.43-.15h-.52l-.39,0-.7-.16.05.09.76.38.67.8.39.92.47.06.21.13.37.41.29.42.08.31.11.31-.35-.1h-.11l-.32-.28-.64-.14-.52,0-.1.44-.54.28-.17.39-.12.38.16.29.75.59.5.54-.45.17-.63-.24-.41-.18-.62,0-.41-.18-1-.49-.24.55.57.57.55.29.67.12.23.54-.37.21-.43-.17-.66-.17-.18-.19-.35-.22-.57-.1-.49-.16-.32-.54-.34-.39-.53-.7.1-.27-.79-.87-.81-.31-.33-.21-.63-.3-.58-.44-.44-.3,1.31.53,1,.23,1,.31,1.51.35,1.44.19,1-.37.47-.85-.33-.45-.61-.61-.59-.28-.73-.4-.43-.09-.57-.32-.35,0-2.53-1.11-1-.24-.2.07-.44-.23-.44.14-.48-.1-.48,0-.28-.2.49-.21-1-.31,0,.38-1.09-.29-.21.18-.33-.28-.58-.34.58.14.26-.25.37-.13-.71-.45-.73-.13-.44-.22-.24.65-.34-.5.15-.12-.16-.22-.58-.13-.14.23.14.24-.19.52-.41-.74L112.44,30l-.26-.25.21-.45.21-.36,0-.15-.26-.13-.25.32-.55-.06v.28l.09.12-.07.09-.36-.18-.3.56.17.25-.09.2L110.7,30l-.09-.33.18-.3.07-.25-.22-.05-.14.24h-.45l-.14.06,0,.15.51.45h-.92l.56.39-.38,0-.23,0L109.2,30l-.31.06.35.27,0,.45-.23-.13-.18-.3-.33.12-.29-.54-.65.19.2.48-.35.05-.09.33-.43-.21-.32.17-.35.55.53,0,.16.3.11.22h-.15l-.31-.14-.13.19-.53-.25-.32.25.12-.69-.6.51-.37.29-.42.56-.75.34-.33.33,1.89-.8.23.08.29-.15.22-.15.31.11,0,.45.06.14H106l-.25-.23-.27.28-.41.25-.14.53-.32.27-.24.5-.73.85,0,.24-.09.35h-.67l0,.69-.18.34.1.5-.64.08-.11.12-.61.1.58.61-.16.24-.17-.11-1.2.53-.2.36-.45.21-.34.66L98.88,40l-.29.12.17.59-.44.1-.42.24-.89.38.55.29h-.94l-.63.38-.57.24,0,.38-.68,0-.36.47.36.55-.18.4.12.18-.46.4.11.36-.17.68.58.18.86-.3.18.35-.66.47-.46-.12-.44.34-.17.68,1.31,0-.34.46-.54.36.89.86,1.71.48,2.39-1.61.86-.18.32-.83.48.63.31,1,.52.85.45,1.24.65,1.09.28.92.37.56,0,1,1.44-.15.05-.6.39-.4.67-.19.81.11.3-.58.46.18.74-1.51-.55.43-.07-.84.25-2.16,1.22-.58.21-.64.59-.92-1.23-1.19-.84-.21L108,43.69l.31-1,.2-.82.45-.48.21-.66,1.33-.71,1.35-1.16-.34-.59.25-1.14.5-.5.61-.07h.88l1.24.64.09.76h-.29l-.27.94-.6.49-.78.6-.13.42-.65.35-.45.91.25.36.24.74.42.81-.12,1.55,1.13.41.75.37,1.29.26,1.86-.46,1.87-.36.77-1,.12.77.89.73,1,.22-.78.18-1.06.78-.85.09-1.12-.2-2.45.43-.57.67.37.74.37.34.78.12-.15.83.15,1.1-1.2,0L115,50l-1.08.53-.36,1-.24.45.25.77.37,1.89-.33.69-.18.36-.78-.57-.58.56-.68.36-.69-.79-2.81.79-2,.69-.37.29-.93-.58.1-.74-1.18.3-2.07.91-.16-.57-1-.17-1.09-1.48,1.64.11-.46-.77-.61-.08.39-.77.85-.42-.61-.58,0-.85.15-1-.47,0-.43.87h-.8l0,.54-.72-.36-.75,1.31.43,2.07.38,1.16,0,.35.37.75-.69.87-.92-.48-1,.15-.41.4-1.36,0-.49.25-.14.65-.64.05-.27-.14-.38.45-.6.75-.22.66-1.1.91-1.5.54-.49.14-.49,1.26-.28.43-1.5.34-.74.92h-.86l-.78-.59-.66-.07-.2.61.23.57-.24.91-1.2-.07-.27.06-.49-.47h-.48l-1.34.17-.47.63,0,.87,1.73.61.69.21.84.46.42,1.25.86.55-.15,1.53-.47,2-.79,1.71-7.76-.32-1.07-.45-.93.71-1,.36.42,1.32L71.05,79l0,1.14L69.44,84l.68.77.21,1-.28,1.66,1.08.3,1.18-.25.77.06,1.64,1.84.39-.52.85,0,.64-.35,1.12-.23,2-.09.7-.52,1.71-1.19.16-.77,1.2-1.2-.15-1,.31-1.27,1.08-1,.62-.93,3.33-1.56.1-1.24.29-1,1-.48,1.9.27,1.45.46,1.51-1,1.4-.52,1.57-.91,1.88,1.21,1.31,2.1L102.93,79l2.26,1.24L107,81.36l1.07.85.52,1.66L108.17,85l.26.81.89-1.57.76-.65-.75-1.21.3-.7.64-.15,1.63.66.08-.4-2.09-1.63-1.76-1.46-.45,0-1.44-.69-1-1.71-2.18-2.13V72.75l1.64-1,.55,1.06,1.17.48,1.4,2.07,1.24.64.51.48,3.52,1.6.59.88-.35,2.27,1.3,1.64.68.5.41,1.25,1,0,1.4.51-1.63.14.39,1.32.17.72,1.11.52,1,.56-.35-1.59,1.07,0-.74-.62.09-.39.89.21.65-.27.06-.73-.63-.54-.63.08-.63,0,.45-.82-1.33-1.74,0-.49.4-.13,1,.5.62-.13,0-.91.59-.32.58.37,1.08-.57,1.93.93,1.28-.88,1-.07.23-.74-.53-.31-1.08-2.28,1.26-1.6.46-2,.61-.87,1.45-2.54,1.45-.23.29.93,2.23.35L131.27,72l1.46.67.25,1.13,3.93-1.18-1.39-.38-1.29-1.19,1.42-1.14,3.76-.92-1.34,1,.66.81-1.46,1.8c2,1.35,4.63,3.15,6.6,4.52l.77,1.56-1.79,1.44-8.7-1.75-3.41,1.45-3.1.19L127,81.24l-3.26,1.41.65.44.39,3.09,2.59,1.68,1.54,1.22,2.46-1.18,2.07,1.27L136.17,88l2.16,0-.12,4L136,98.29l-5-.58-2.21,1c-3.23-1.08-7.52-2.51-10.75-3.57L114.55,97l.41,1.47-1.2,1.23L108,97.56l-.54-1.31L101.74,95l-2.61-1.79.82-.89.79-.86c-.2-3.84-.2-3.84-5.54-3.91l-9.76,1-5.52,2.88L74.3,90l-1.82,3.28L70.17,94.4l-2.08,2.95C68,98.18,68,99,68,99.86l-1.81,2.72L63,104.84l-2.7,4.65c-.81,2.06-1.93,4.78-2.71,6.85l1.29,4.55-.53,5.92.77,3.53c1.61,2,3.75,4.57,5.39,6.5l1.63,2.49c2.11,1.31,4.91,3.07,7,4.37l4-1,3.92.57c1.94-.76,4.52-1.78,6.47-2.52l3.34.27,2.38,2.81,3.82-.57,1.84,1.07c-.35,2.15-.82,5-1.15,7.18,1.4,1.73,3.29,4,4.68,5.76l1.71,4.35.52,4c-.82,2.18-1.91,5.08-2.7,7.27.84,1.76,2,4.11,2.78,5.9.11,1.42.28,3.31.37,4.74.64,1.47,1.48,3.44,2,5l-.25.26-.22.31.17.51.06.45.27.19.33.31.29.09.48-.27.3-.17.53.07.3-.14.95-.3.89.21.33-.12.51-.1.09-.24.82,0,1.2-.58,2.1-1.47,1.88-1.58.93-.7.93-.7,1.16-1.89-.4-.21,1.41-.79,1.5-.56.67-.45.55-1.07.42-.75.33-1.34v-.93l.07-.71.42-.1,1.17-1.09.89-.27.82-.82,1.23-.77,1.41-.2,1.45-1.14,1.44-1.53.35-1.4,1.4-4.23-.45-.56.09-.6-.09-.64.2-.83.06-.62.63-1.3-.41-.8,3-5.3,1-.44.49-.34c1.6-1.48,3.73-3.45,5.31-4.95l1.65-1,3-2.7,1.91-2.43.89-1.67,2.56-3.89,1-2.83c.07-.4.13-.81.2-1.23l-.35-.28-.79.72-2.42.57-1.34.16-.71.41-1.27.17-1.48.69-.76-.22-.38-.95-.43-.39-.91-.35.25-.42.87-.34.21-.55-2.33-3.56-1.15-.67-.5-.6-.52-.67-.56-1.66-.19-1.3L141.33,121l-.65-1.34-.07-2.12-.39-2.42-.61-.86-1.2-1.61-.07-1.32-2.15-4.7-.72-1.72-.46-1-1.59-2.46.24-1.4.81,1.31.79,1.78,1,1.25h.52l.33-2.33.3,1.93c2.44,3,2.44,3,3,5.11l.85,1.81,1.29.66.24,1.15.69,1,.39,3.58,1.34,1.18,1,2.31,1.1,2v1.06l.65,1.31-.54,1.49.69,1.72-.1,2.33,1.88-.11,1.33-.94.89.09,1-.62.86-.71.87.22,1.38-1.31,3.08-1.11.36-1.24,1-.58,2.1-.72.62,0-.08-.72.6-.68,1.06,0,.34-.81.52-.7.74-.54.07-.81.46-1.41.61-.43.33-.51.51-1,.62-1.65-.59-.75-.44-1.19-1.44-.69-.79-1.35-.48-2.92-1.92,3.19-1.26.63-1.05,0-.73.54-.55-.59-.16-1.06.17-1.62-.32-.56-.89,1.67-.67-1.83.08-.36-.37-1.07-1.23-1.57-.56-1.52-.71-2.1,1.09-1.21.39.27.86,0,1.84,4,1.12.5.66.68c1.66,1.18,1.66,1.18,2.48,1.42l1.4-1,1.07.3.43,2.23,4.24,1,.54-.21,1.78.39.26-.59.59.19.41.22.68-.1.43-.14.45-.32.29.72.41.93.17,1.15.39.38.51.44.75,1.43.36-.07.51-.4,0,.57-.34.53-.87.27.77,2,.83.87.73-.79.23-.93,0-.48.33-.39.08,1.33.19.89-.29,1-.27,6,.11,4-.17,3.46.1,1,0,.83-.1,1.44-.27,1-.07,2.44.33-.11.54-.84,1-1.44.26-.92.49-.49.58-2,.5-1.25.32-1.2.17-1.22.4-1.67.45-1.34.66-1.22,1.59-2.61.77-1.92.58-1.13.51-1.5.13-1.35.36-.49.5,0,.28-.31.32-.64.07-.86.18,0,0,2.28.05,1.75.15,1-.11,2.4-.26,2.29-.31,1.39.11.7.18-.42.33-1.12.17-.9-.16,1.82-.31,1.89-.4,2.19-.19,1.18-.43,1.73-.39,1.52-1.36,4.41-.11.5-.65,2.21-.7,1.91-.75,1.93-.74,1.84-.49,1.15c.68-1.47,1.33-2.95,1.93-4.46l.07-.17.29-.77.11-.29.16-.44.27-.77.12-.46.25-.83.3-.9.31-1,.24-.84.17-.79,1.5-5.24.2-.87h.07l-.28,1.28.07-.09-.24,1.07c.65-2.56,1.2-5.15,1.63-7.78a92.19,92.19,0,0,0,0-29.53Zm-34.16-5.94-.58-1-1.26-.84-1.14-.47-.61-1.38,0-.93.33-1.49-.24-1.79-3.35-4.39-.37-1.29-1.15-1.84.93-1.75,1.47-1,.83-1h1.19L156,70l.78,2.14-.94.39-1.18.65,0,.82-.44.48,1.12,1,.65,1.14.95.62.7.76.79,1.84.36-1.3L160,79.93l.72.9-1,.32h-1l.5,1.27.26,1,1,.91c.23,1.2.44,2.4.64,3.62Zm6.61-13.88H164l-1-2.73.27,2.13-.72-.63-.13-1.88.24-.65h.82l1.08,1c.2.58.39,1.17.57,1.75Z"/><path class="cls-53" d="M190.19,133.68c0-.06,0-.12,0-.18l0,.09Z"/><path class="cls-54" d="M190.57,132.22l0-.15c-.13.48-.25,1-.38,1.43Z"/><path class="cls-55" d="M134,90.56l-.9.77.91.54,1.34-.67c0-.3,0-.6-.07-.9l.71-.43Z"/><path class="cls-56" d="M124.27,90.61l-1-.07h-1.93l-.71-.39-.71.51,1.32.43,1,.18Z"/><path class="cls-57" d="M106.57,85.57l-1,.18-.94-.18-.58.1-.77.53L106,87.64l.79.57.43-.26c0-.37,0-.74,0-1.11l.64-1.17Z"/><path class="cls-58" d="M98.4,76.67l-1,.8-.26.4c0,.14,0,.28,0,.42l.46,1,.42.18.42-.68.12-1.08Z"/><polygon class="cls-59" points="96.3 80.65 96.86 82.17 96.81 83.67 97.04 84.18 97.48 84.12 97.76 83.9 98.6 83.45 98.75 82.92 98.78 81.97 98.89 80.95 98.75 80.42 98.19 80.18 97.45 80.38 97.08 80.56 96.3 80.65"/><polygon class="cls-60" points="88.73 82.41 87.78 82.6 87.34 83.16 88 83.41 88.62 83.16 88.62 83.16 88.73 82.41"/><path class="cls-61" d="M88.05,59.91l.31-.55-.45-.62-.85-.06-.18.18h-.22l-.23-.26.08-.71-.49-1c0-.18,0-.35.08-.53l-.4-.65-.39-.19L85,55l-.06-.91-.19-.31-.51-.32-.33-.23-.74.05L83,53.07l1-.76.65-.94.49-1-.33-.18-.88,0-.72.06-.4.1-.33-.09.21-.33.59-.38.52-.61.29-.39.05-.3-.62.47-.38.11-.86-.09-.34,0-.63.94-.66.64-.07.18-.11.3-.27,0-.26-.34-.36.08-.14.2.32.36.46.15.06.15-.73.75,0,.25.25.15.23.25-.82.5-.35.28.92-.32,0,.28,0,.42.26.06.41-.22.32-.53.19-.23-.08.49,0,.53-.54.8-.18.31.72.19.59-.11.69-.39h.23l-.18.52L82,56l.43.3.19.23-.27.57-.17.78L81.1,58l-.26-.13-.29,0-.18.45-.25.28-.25.34.4.26.26.25-.18.29-1.23.61-.32.26.52.36.4-.14.22.17.66.22.7.12.7-.12-.36.4-.49.2h-1l-.82.61-.66.61-.56.92,1.07-.57.53-.16.42.36.68-.61.07-.18.82-.19.9.11.43-.4.89.48.77-.37,1.35,0L87,62l.5-.49-.62,0-.22-.24.42-.55Z"/><path class="cls-62" d="M80.19,49.34l.1-.37-.77.52-.28.53.43-.17Z"/><polygon class="cls-63" points="87.3 45.41 87.26 45.08 86.68 45.73 86.61 46.26 86.97 45.98 87.3 45.41"/><path class="cls-64" d="M74.23,61.07l1.21-.65.92-.44h.5l.65-.07.47-.77.23-1.59v-.87l.58-.34.51-.28h0l.18-.32-.81-1.26-1.29.4-.55-.14-.58.06-.27.32.4.6-.12.21-1,.32-.2.21-.34,0L74,56.27l-.13,1-.21.32.63.78,0,.31-.57.41-.35.63-.78.44-.08.24.58.7Z"/><polygon class="cls-65" points="102.8 53.52 102.35 53.23 101.75 53.37 101.36 53.82 101.55 54.36 102 54.73 101.62 55.06 101.97 55.63 102.35 55.52 102.89 54.82 102.89 54.82 103.24 53.23 102.8 53.52"/><polygon class="cls-66" points="110.58 49.92 110.09 50.23 109.9 51.49 110.29 51.17 110.59 50.71 110.58 49.92"/><polygon class="cls-67" points="114.64 48.54 114.4 48.67 114.34 49.57 114.83 49.05 115.43 48.76 114.64 48.54"/><polygon class="cls-68" points="130.37 31.13 129.96 31.27 130.13 31.65 130.58 31.98 131.16 32.2 131.4 31.97 131.47 31.66 131.01 31.35 130.37 31.13"/><path class="cls-69" d="M126.08,24.41l-.06-.24-.42-.32-.37-.59-.1-.3-.55-.45-.65-.27-.39-.13-.41-.08.05.15.33.2.12.1-.09.09.09.14h-.17l-.47-.11.17.2,0,.05.08.13-.12.06.27.24.24.24.25.16h-.23l0,.1.82.37.23.27.24.14.32.24.18.2-.07.14.2.17.63.24,0,.13.22.16,0,.28.29.24-.18.13.84.41.27.4-.19.25.15.2.69.39.38,0,.78.54.33.1-.68-.55.6.23.47.25.14.14.94.46,1,.16.77-.09-1.9-.9-1.64-.93-.65-.45-.13-.28-.68-.49,0-.12-.72-.62v-.12l-.64-.37.14-.06-.37-.26-.41-.22.06-.08Z"/><polygon class="cls-70" points="133.74 26.36 133.8 26.13 132.82 25.85 133.19 26.11 133.74 26.36"/><path class="cls-71" d="M136.65,26.44l-.29-.11.54.32h.2Z"/><path class="cls-72" d="M93.48,200.07l-.72-.08.24,0,.64.07.89.09-.16,0Z"/><polygon class="cls-73" points="94.14 200.13 94.14 200.13 93.62 200.07 93.47 200.06 94.01 200.12 94.73 200.19 94.63 200.18 94.14 200.13"/><polygon class="cls-74" points="99.69 200.47 100 200.48 100 200.48 99.89 200.48 99.69 200.47"/><polygon class="cls-75" points="17.95 134.5 18.16 135.24 18.45 135.09 18.18 134.18 17.95 134.5"/><path class="cls-76" d="M13.46,121.1l-.05.66.15.43h.29l.08-.43-.12-.42Z"/><path class="cls-77" d="M12,121.47l.17.72,0-.21.09-.08.16.44.13-.73.14-.14.2.17,0-.68-.1-.5-.33-.9-.3-.47-.17,0-.18-.46h-.09l.08.77.26,1.51-.13.21Z"/><path class="cls-78" d="M11.62,118.39l0-.31c0-.37-.08-.73-.11-1.09,0,.36.07.72.11,1.09l0,.35c.1,1,.21,2,.33,2.94-.12-1-.23-2-.33-2.94Z"/><path class="cls-79" d="M41.06,43.16l.63-.56,1.54-1.69.56-.64.26-.18-.3.45-.44.57.11.08.7-.46.63-.52.24-.34.82-.72.57-.51.41-.46v-.13l.49-.5L48,37l.36-.27.84-.62.59-.41.22-.11-.43.39-.21.26-.77.68-.9.92.86-.6,1-.55.76-.54,1.14-.66.47-.35.21-.22L52,34.83l-.11,0a13.5,13.5,0,0,0,1.64-1.33l0-.14-.18,0,.6-.48.1-.14.4-.33.84-.55.38-.2.24-.06.39-.3.21-.17.43-.23.68-.37.39-.25.45-.3-.78.41.05,0,.68-.37.39-.21.55-.33-.18,0,.06-.07.68-.35-.11,0-.37.17h0L60,29l.16-.05.59-.3.36-.18.39-.22-.22.08-.33.17-.36.17.13-.06-.22.1c-1.05.55-2.08,1.11-3.11,1.69s-2,1.17-3,1.79c-.36.22-.7.46-1,.68l-.86.58-1,.69L50.14,35l-.1.12.43-.24.1,0-.27.27-1,.73-.62.38h-.06l.56-.43.53-.44h-.12c-.36.25-.73.5-1.08.76-1.15.84-2.28,1.71-3.38,2.61l.05,0-.46.41-.68.61-.2.2L42.56,41l-.18.24h.13l-.51.55-.68.81-.37.56Z"/><path class="cls-80" d="M25.25,64.31l-.19,2h0c.47-.76.47-.76.47-.8A2.07,2.07,0,0,0,25.25,64.31Z"/><path class="cls-81" d="M29.62,62.61l.38-.48.35-.38.28-.45-1.47,1.31-.95,1.23L27.52,65c-.14.26-.28.52-.41.79l-.15-.1-.3.1-.39.72-.18.38-.54.73-.26.61h.24l.36,0,.29,0,.3,0,.59-.46.06.22.11.24-.59,1,.44-.26.26-.24h.32l-.25.74.27.19.47-.35c.08-.2.17-.39.26-.59l0-.68-.25.26.28-.62.29-.38L29,66.9l-.32,0-.11,0,.26-.53.56-.79.08-.46-.38.17-.31.28-.07-.15,0-.38.07-.48.13-.33,0-.27-.43.31-.15,0,.72-.93Z"/><path class="cls-82" d="M61.58,30.75l-.65.43-.57.34-1.18.81-.45.05-.67.23-1,.64-1.67,1-.52.46-.13.32-.45.3-.89.51-.6.61-.45.65-.37.44-1.53,1.35,0,.21-.72.77-.26.39-.33.46-.37.62-1.14,1.5-.25.61-.47.81.11.45h.18l.08.33.26.06,0,.5.45.77,1.17-.87.74-.72.78-.93.61-.4,1.05-1.36L52.22,42l.47-.3.65-.13.84-.66,1-.79.42-.33.47-.66.51-.2.6-.61V38l.37-.33.18.23.22-.09.29-.31.58-.43.72-.17.5-.22.67-.56.46-.32.1,0-.56.54-.29.27.6-.21.86-.14,1.58-.64,1.45-.89L66.09,34l.89-.4L67.6,33l.48-.07.22.2.38-.23.61-.1.55-.18.35-.06,2.2-.46.61-.23.88-.41,1.59-.6,1.61-.72-1,.25-.5-.23-.4-.26-.89.31.16-.17,1-.53.48-.23.73-.67.21,0-.08.52v.54l.43.07.69-.23L78.4,29l.46-.4L79,28l0-.65.13-.28.56-.19.09.31.18,0,.66-.34.53-.38-.22-.21-.51.1-.84.24-.13-.18.54-.32.75-.24.45-.36.28.36.26.05.58-.08.86-.32.1-.35,0-.27.44-.14h.46l.52,0,.73-.39h-.38l-.27-.1L85,24l.3-.21.44-.12h.39l.58-.23.59-.4.33-.32-.5,0,.16-.21.14-.14.18-.24h.45l.52-.14.27,0,.28.07h.21l.32-.14.35-.26,0-.06-.25,0h-.35l.34-.19.34-.12h.35l.21-.17-.1-.12-.59.18-.48.11.24-.14.77-.22,1.23-.47.41-.12.91-.21.68-.23.5-.12.38,0,.31-.08.24-.11c-.27,0-.54.08-.8.12l.31-.1.52-.1.3,0,.61-.07.2-.06,0,0h-.35l.34-.06.32,0,.49-.07.26,0,.45-.08.33,0,.73-.13.21-.06.13-.05v0l-.36,0-.33,0-.67.11.07,0,0,0-.32,0,.48-.09H98L97.1,19l-.83.12-1,.17c1-.18,1.71-.32,3.16-.51l.37,0h0l-.3,0-.61.08-.72.07-.66.07.36-.05.92-.1.29,0,.13,0H98l-.32,0-.77.07-.24,0c.75-.09,1-.11,1.86-.16h.32l.58,0,.29,0,.27,0,.44,0h.36l-1.35,0h-.4l-.45,0-.4,0-1.31.09-.82.08-.28,0,.57-.06.75-.07.29,0,.63,0,.61,0h-.08l-.48,0-.8.06-.74,0-.41,0,.25,0,.64-.05.72-.05,1.15-.06h-.41l-.38,0-.58,0-.79,0-.51,0H96l-.5,0-.19,0,.52,0h0l-.38,0,.19,0h0l-.32,0-.23,0h-.46l-1,.11-.74.07,1-.09-.59.05-.62.07h0l.43-.05-.8.08.25,0-.84.09-.31,0-.66.08-1.23.18h0c.33-.05.66-.08,1-.12l-1.44.18-.16,0-.3.05h0l-.17,0-.6.1-1.25.22-1.11.2-.38.06H85c.86-.16,1.71-.34,2.58-.48-.87.14-1.72.32-2.58.48l-.26,0-.71.14-.52.09h0l-1.58.36-1.25.28-.22.05.22-.05-.15.05-.73.19-.27.09.33-.07.33-.07-.47.14-.54.15-.33.06.07,0-.22,0-.33.08-.13,0-.27.07-.22.06L77.4,22l-.15.06-.16.06-1.15.34-.9.31-.44.17,0,0,.76-.25.12,0-.25.1-.05,0,.35-.1.21,0,.15,0,.41-.11-.91.45-.32.15-.51.23-1,.36-.46.19-.64.33-.71.34-.81.36-.9.4-.68.36-.91.44-.43.26-.6.3-1.13.5-.57.3-1,.54-.38.28.44-.12.85-.35-.78.47-.64.51-.16.25-.56.47-.26.16H63l.27-.38-.66.08-.35.3-.44.58.17.11ZM97.7,18.65l-.47,0,.33,0Zm-1.07.07.47,0-1,.08Zm-1.2.1-.42,0-.72.07.55-.06ZM84,20.38h0l-.42.08C83.69,20.43,83.85,20.41,84,20.38Z"/><polygon class="cls-83" points="59.79 31.11 59.46 31.52 59.89 31.44 60.72 31.04 61.05 30.75 61.36 30.45 61.63 30.23 61.73 30.03 61.57 29.99 60.06 30.85 59.79 31.11"/><path class="cls-84" d="M68.69,39.8l.15.13.93-.17.52.17.78.64.87-.12.66-.36.79-.27.55-.15.82-.38,1-.27.68-.51,1.08-.72,0-.8-.28-.16.31-.89L77,36l-.5-.43-.67.86-.31-.25-.38.32,0-.31-.51.08-.3-.16-.83.43-.18-.2-.57.3-.42.43-.72.29,0-.35.38-.42V36l-.43-.32-.14-.08-.16.61-.26,0-.67.23-.88.64v.23h.55l.67-.15.28.15-.5.47-.26.29-1.47.29h.69l.43,0,0,.37V39l-.23.33Z"/><polygon class="cls-85" points="102.08 20.72 102.24 20.83 102.01 20.53 101.79 20.36 101.86 20.59 102.08 20.72"/><path class="cls-86" d="M102,20.14l.08,0,.1-.07.1,0,.07,0-.12.1-.12.14,0,.1.12.13.19.14.19.11h.2l.19-.05.06-.13,0-.12.11,0,0-.06v-.1h.11l0,.09v.19c.11,0,.19-.07.29-.09l.09-.07.07.12,0,.14-.27.1-.09.11-.2,0L103,21l-.09.07v.09l.16,0,.26,0,.42,0h.37v.08l-.22.05h-.22l-.22.07,0,.1h-.12l-.19,0-.08.08.18.18.3.16.1.05.21-.05H104l.06.11-.24.1.26.12.19.16h.13l.12-.06v-.42l.12-.34.17-.13,0-.06,0-.1-.08-.14.08-.08,0-.06-.07-.08v-.12l.08-.16.21,0,.13-.05h.09l.06.08-.08,0,0,.07.22.16.18.08,0,.06.12,0,.11.14v.18l0,.12.1.08.35-.07.07-.08.1,0,.1.14.1.11.12,0,.11-.06.08-.15,0-.13.07-.07.06-.1-.07,0-.2,0-.12,0h-.17l-.11,0,0-.14-.08-.06-.44-.06v-.08l-.08-.06-.19-.09-.14,0-.21-.22-.29-.11,0,0-.12,0,0,0,0,0-.1-.07-.23-.07h-.14l-.11-.12-.15-.11-.06.06-.07.06,0-.09v-.11l0,0-.14-.07-.16,0,0,0-.17-.13v.13l0,.06a1.7,1.7,0,0,1,.43.51l-.3-.19-.16-.15-.11-.16L103,19.7l0,0,0,.07,0,.08,0,.11,0,.05-.07,0-.06-.07-.11-.05-.11-.06.12,0,.13,0,0,0-.08,0h-.1l-.23,0-.19,0-.11,0a.51.51,0,0,0-.2.16l.06.19Z"/><path class="cls-87" d="M104.59,19.81l-.08,0,0,0,.5.11h.24V20l.2.09.27.06h.07l.09-.05.07,0,.17-.06v-.07l-.06-.07v-.14l0-.05-.1-.07-.14,0-.14,0h-.17l-.15,0-.18,0-.19,0,0,0,.07.09-.11,0-.19-.12-.11,0h0v0l.22.15v.05l-.13-.05-.11,0-.06,0h-.16l-.11-.06-.12-.05-.17-.05h0l.07.06.05,0h0l-.13-.05h0l0,.07.07.06h0l-.18-.1h0l0,0v0l0,0,.07,0,.1,0,.09.05,0,0,0,0,.09,0,.12,0h.23l.18,0,.22,0h.13l.05,0-.11,0Z"/><path class="cls-88" d="M142.92,28A91,91,0,0,1,32,167.08,91,91,0,1,0,142.92,28Z"/></g></g></svg>