<svg id="Layer_4" data-name="Layer 4" xmlns="http://www.w3.org/2000/svg" viewBox="0 0 204.9 219"><defs><style>.cls-1,.cls-5{fill:#007a89;}.cls-2{fill:#0094a3;}.cls-3,.cls-6{fill:#fff;isolation:isolate;}.cls-3{opacity:0.21;}.cls-4{fill:#008aa2;}.cls-5{opacity:0.48;}.cls-6{opacity:0.08;}.cls-7{fill:#f6b92b;}.cls-8{fill:#ce0000;}</style></defs><path class="cls-1" d="M174.7,170.39c0,13.18-25.13,21.2-69.9,21.2-42.66,0-69.89-8-69.89-21.2,0-1.4.15-6,.15-6,6.95-8.29,36.37-12.3,69.74-12.3s62.68,4.64,69.74,12.39C174.54,164.44,174.7,169.12,174.7,170.39Z"/><path class="cls-2" d="M174.7,165.58c0,13.19-25.13,21.21-69.9,21.21-42.66,0-69.89-8-69.89-21.21,0-10.3,31.29-18.34,69.89-18.34S174.7,156.41,174.7,165.58Z"/><path class="cls-3" d="M42.86,172.69a41.76,41.76,0,0,0,24.57,8.53c1.22,0,2.82-.21,3-1.2s-1.13-1.71-2.3-2c-4.27-1.2-8.88-1.55-13.07-2.94a15.3,15.3,0,0,1-6.61-4c-1.51-1.71-1.07-4.82-2.77-6a3.89,3.89,0,0,0-5.55,1.28C38.79,168.76,40.74,171,42.86,172.69Z"/><path class="cls-4" d="M155.32,156.6,121,72a6,6,0,0,1,2.36-7.34l2-1.24a5.45,5.45,0,0,1,7.31,1.35l14.52,19.57a1.51,1.51,0,0,0,2.68-1.24L140.8,43.83a3,3,0,0,0-3.6-2.24h-.15l-37,10.78v0l-9.67,2.84a5.19,5.19,0,0,0-3.47,3.16L50.78,156.6H96.53v.13Z"/><path class="cls-5" d="M173.09,162.17c-2.62-2.86-5.19-4.26-9.4-6a71.57,71.57,0,0,0-9.86-3.25l-32.6-80.36L121,72a6.31,6.31,0,0,1-.43-2.61c.18-.64-.33-2.72,3.57-5.27,2.35-1.54,4-1.66,5.13-1.46a5,5,0,0,1,2.5,1.2,20.23,20.23,0,0,1,1.85,2.27c5.17,7,9.44,12.48,13.57,18.21L134.29,57.1a3.4,3.4,0,0,0-4.58-1.56l-7,3.52L117,61.89a4.38,4.38,0,0,0-2.36,4.71L130.32,156l27.87,24.59v4.8s7.62-2.74,10.53-5.09c6.46-5.19,5.87-9.1,5.87-9.1S175.72,165,173.09,162.17Z"/><path class="cls-6" d="M140.8,43.83a3.09,3.09,0,0,0-1.19-1.76,3.15,3.15,0,0,0-2.41-.48L90.38,55.25a5.21,5.21,0,0,0-3.47,3.16l-2.34,6.37h0l-.49,1.33v0h0L53.26,150l12.63-1L91.47,63a4.44,4.44,0,0,1,2.21-2.65c5.63-2.93,9.7-4.27,17.41-7.33A205.73,205.73,0,0,1,140.8,43.83Z"/><path class="cls-7" d="M52.92,145.2c-3.8,0-5,1.85-5,4.13v3.14c0,2.28,1.19,4.13,5,4.13h50.56V145.2Z"/><path class="cls-7" d="M152.15,145.2H103.48v11.4h48.67c3.8,0,5-1.85,5-4.13v-3.14C157.13,147.05,156,145.2,152.15,145.2Z"/><path class="cls-8" d="M114.23,140.82H93.68c-3.37,0-6.1,1.69-6.1,3.77V157.3c0,2.08,2.73,3.78,6.1,3.78h20.55c3.38,0,6.11-1.7,6.11-3.78V144.59C120.34,142.51,117.61,140.82,114.23,140.82Zm1.56,13.75c0,1.19-2,2.16-4.41,2.16H96.53c-2.43,0-4.41-1-4.41-2.16v-7.25c0-1.19,2-2.15,4.41-2.15h14.85c2.44,0,4.41,1,4.41,2.15Z"/></svg>