<svg id="Layer_1" data-name="Layer 1" xmlns="http://www.w3.org/2000/svg" viewBox="0 0 132 132"><circle cx="66.06" cy="66.41" r="65" fill="#fff"/><circle cx="66.06" cy="66.41" r="58.23" fill="#f975a8"/><circle cx="64.05" cy="68.42" r="56.22" fill="#d8256a"/><circle cx="65.23" cy="67.24" r="55.04" fill="#f92d74"/><path d="M88.75,65c-1.38-3.3-8.87-9.91-18.74-16.27-9.28-6-17.89-10-21.86-10.32l-.34,0H47.6l-.21,0H47.3a4.84,4.84,0,0,0-3.09,8.31c1.07.65,2.15,1.32,3.25,2,9.86,6.36,17.35,13,18.73,16.27a5.93,5.93,0,0,1-.85,6.58c-2.55,3.58-9.32,9.28-17.88,14.8q-1.65,1.06-3.27,2a4.85,4.85,0,0,0,3.05,8.29l.25,0h.18l.4,0h0c3.94-.34,12.59-4.32,21.9-10.33,8.56-5.52,15.34-11.22,17.88-14.8A5.91,5.91,0,0,0,88.75,65Z" fill="#d8d8d8"/><path d="M88.75,62.76C87.37,59.45,79.88,52.84,70,46.49c-9.28-6-17.89-10-21.86-10.33l-.34,0H47.3a4.84,4.84,0,0,0-3.09,8.31c1.07.64,2.15,1.32,3.25,2,9.86,6.35,17.35,13,18.73,16.27a5.93,5.93,0,0,1-.85,6.58c-2.55,3.57-9.32,9.28-17.88,14.8-1.1.71-2.19,1.38-3.27,2a4.85,4.85,0,0,0,3.05,8.3h.43l.4,0h0c3.94-.33,12.59-4.32,21.9-10.32,8.56-5.52,15.34-11.23,17.88-14.8a5.91,5.91,0,0,0,.86-6.58Z" fill="#fbfcfa"/></svg>