<svg id="Layer_3" data-name="Layer 3" xmlns="http://www.w3.org/2000/svg" viewBox="0 0 204.9 219"><defs><style>.cls-1{fill:#680000;}.cls-2{fill:#900;}.cls-3{fill:#bf0000;}.cls-4{fill:#f7f7f7;}.cls-5{opacity:0.48;}.cls-6{fill:#e2e2e2;opacity:0.69;isolation:isolate;}.cls-7{opacity:0.59;}.cls-8{fill:#7f0012;}.cls-9{fill:#e5e5e5;}.cls-10{fill:#fff;}</style></defs><path class="cls-1" d="M67.94,152.28l-3.25,4.24-7.56-28.59,8.26.44,2.89,22.75A1.47,1.47,0,0,1,67.94,152.28Z"/><path class="cls-2" d="M60.81,127.93l-13.09.81,3.93,26.19a2.78,2.78,0,0,0,2.91,1.9l8.17,0h.76A1.34,1.34,0,0,0,65,156a.21.21,0,0,0,0-.11Z"/><path class="cls-3" d="M54.72,91.5,30.13,99.06a8.62,8.62,0,0,0-6.19,5.75l-.19.61a28,28,0,0,0,1.67,21.09l.07.15a8.59,8.59,0,0,0,6.85,4.69L57,135.58Z"/><path class="cls-4" d="M168.29,109.56v-.31L166.54,45.5c-28.14,26.81-99,43.35-111.07,45.66A2.59,2.59,0,0,0,53.62,93a32.74,32.74,0,0,0-.8,4.49,103.42,103.42,0,0,0,1.1,31.94A32.07,32.07,0,0,0,55,133.88a2.59,2.59,0,0,0,2,1.7c12.22,1.5,84.05,13.11,114,37.92l-2.7-63.73Z"/><g class="cls-5"><path class="cls-2" d="M28.86,107.16h0a1.47,1.47,0,0,0-1.47-1.47H23.67c-.3,1-.54,2-.74,3h4.46a1.48,1.48,0,0,0,1.47-1.49v0Z"/><path class="cls-2" d="M28.89,111.16h0a1.47,1.47,0,0,0-1.44-1.5H22.76a25.19,25.19,0,0,0-.3,3h5a1.46,1.46,0,0,0,1.43-1.49h0Z"/><path class="cls-2" d="M28.92,115.16h0a1.46,1.46,0,0,0-1.48-1.46h-5a21.52,21.52,0,0,0,.14,3h4.87a1.48,1.48,0,0,0,1.48-1.48h0Z"/><path class="cls-2" d="M28.94,119.21h0a1.49,1.49,0,0,0-1.48-1.47H22.7q.21,1.5.57,3h4.21a1.47,1.47,0,0,0,1.46-1.48h0Z"/><path class="cls-2" d="M29,123.22h0a1.47,1.47,0,0,0-1.47-1.47h-4c.29,1,.62,2,1,3h2.91a1.48,1.48,0,0,0,1.46-1.5h0Z"/></g><path class="cls-6" d="M163.81,163.35c-30.6-18.45-83.62-28.84-103.95-31.62a1.73,1.73,0,0,1-1.44-1.33c-.11-.48-.23-1.07-.38-1.79-.34-1.79-.64-3.61-.89-5.44a1.75,1.75,0,0,1,1.42-2h.27c36.58-.26,81,13.71,105.75,22.68a1.69,1.69,0,0,1,1.13,1.55l.69,16.36a1.71,1.71,0,0,1-1.58,1.83h0A1.77,1.77,0,0,1,163.81,163.35Z"/><path class="cls-3" d="M182.42,109.3c.5,35.33-3.36,64.08-11,64.19s-16.23-28.47-16.74-63.8,3.89-64.08,11.56-64.19S181.92,74,182.42,109.3Z"/><path class="cls-2" d="M179.36,109.34c.45,31.61-2.21,57.32-7.65,57.4s-11.58-25.51-12-57.12,2.59-57.32,8-57.39S178.91,77.74,179.36,109.34Z"/><g class="cls-7"><path class="cls-2" d="M159.65,106.88v2.74l.06,3c0-1,0-2-.05-3.09S159.66,107.75,159.65,106.88Z"/><path class="cls-8" d="M172,109.78c-.38-26.77-4.94-40.35-9.52-46.55-1.93,9.94-2.92,25.73-2.78,43.65v2.67c0,.91,0,2.07.05,3.09.52,20.09,3.32,37.42,6.68,46.75l.08.1C170.15,152.46,172.32,135.78,172,109.78Z"/></g><path class="cls-9" d="M166.7,111.28v-3.12l-.7-15-6.23-1.3c-.17,5.6-.22,11.58-.13,17.78s.41,12.38.9,18l6.89-1.46Z"/><path class="cls-10" d="M170.32,109.63c.15,9.13-.84,16.56-2.85,16.58s-4.27-7.36-4.42-16.49S164,93.16,166,93.16,170.17,100.5,170.32,109.63Z"/></svg>