<svg xmlns="http://www.w3.org/2000/svg" viewBox="0 0 204.9 219"><defs><style>.cls-1{isolation:isolate;}.cls-2,.cls-3,.cls-4,.cls-5,.cls-7,.cls-9{fill:#bbbabe;}.cls-13,.cls-18,.cls-20,.cls-3,.cls-4,.cls-7{mix-blend-mode:screen;}.cls-4{opacity:0.35;}.cls-11,.cls-12,.cls-16,.cls-5,.cls-9{mix-blend-mode:multiply;}.cls-12,.cls-6,.cls-9{opacity:0.5;}.cls-18,.cls-7{opacity:0.75;}.cls-8{fill:#a3a2a5;}.cls-10,.cls-11,.cls-12{fill:#817a8b;}.cls-13{fill:#e9e8e8;}.cls-14{fill:#565164;}.cls-15,.cls-16{fill:#d9d9d9;}.cls-17{fill:#211e27;}.cls-18,.cls-19,.cls-20{fill:#363140;}</style></defs><g class="cls-1"><g id="Layer_15" data-name="Layer 15"><rect class="cls-2" x="13.91" y="38.84" width="165.06" height="153.31" rx="4.54"/><path class="cls-3" d="M14.7,188.4,16.5,45.92a4.55,4.55,0,0,1,4.55-4.54s155.49-2.15,154.5-2.4a4.22,4.22,0,0,0-1.13-.14h-156a4.54,4.54,0,0,0-4.54,4.54V187.6a4.54,4.54,0,0,0,1.75,3.58A4.5,4.5,0,0,1,14.7,188.4Z"/><path class="cls-4" d="M19.24,190.41l9.84-4.59H160.82c10.54,0,11.56-3.21,11.56-11.57V52.53L177,46.68v137a6.68,6.68,0,0,1-6.67,6.68Z"/><path class="cls-5" d="M28.8,183.66a6.42,6.42,0,0,1-6.41-6.41V53.73a6.41,6.41,0,0,1,6.41-6.41H164.07a6.41,6.41,0,0,1,6.41,6.41l-1.07,122.34a6.42,6.42,0,0,1-6.41,6.41Z"/><rect class="cls-2" x="24.88" y="49.81" width="143.1" height="131.35" rx="3.92"/><g class="cls-6"><polygon class="cls-7" points="161.03 49.81 126.69 49.81 78.14 181.16 112.48 181.16 161.03 49.81"/><polygon class="cls-7" points="37.86 181.16 54.84 181.16 103.39 49.81 86.41 49.81 37.86 181.16"/></g><path class="cls-7" d="M25.88,178.25l1-122.36A3.91,3.91,0,0,1,30.81,52l134.26-1.17a3.88,3.88,0,0,1,2.22.7,3.89,3.89,0,0,0-3.22-1.7H28.8a3.93,3.93,0,0,0-3.92,3.92V177.25a3.91,3.91,0,0,0,1.7,3.22A3.88,3.88,0,0,1,25.88,178.25Z"/><path class="cls-8" d="M190.94,35.24c0-1.1.12-2.51,0-3.84-.19-2.37-1.08-4.54-4.55-4.54H33.27a14.86,14.86,0,0,0-4.1.25A18.51,18.51,0,0,0,25,30.5c-2.71,2.83-9,8.9-9.76,9.66a4.54,4.54,0,0,1,3.21-1.32h156a4.5,4.5,0,0,1,1.11.14h0a4.54,4.54,0,0,1,3.42,4.4h0V187.6a4.53,4.53,0,0,1-1,2.81c2.28-2.27,9-8.92,11.6-11.56,1.63-1.75,1.34-2.95,1.35-5C191,151.57,190.94,42.19,190.94,35.24Z"/><path class="cls-7" d="M18.45,38.84h156a4.5,4.5,0,0,1,1.11.14L186.4,26.86H33.27a14.86,14.86,0,0,0-4.1.25A18.51,18.51,0,0,0,25,30.5c-2.72,2.83-9,8.9-9.76,9.66A4.54,4.54,0,0,1,18.45,38.84Z"/><path class="cls-7" d="M21.5,36.84c1.81-1.79,3.72-3.69,4.94-5A16.67,16.67,0,0,1,30,29a17.87,17.87,0,0,1,2.4-.1H181.93Z"/><path class="cls-9" d="M191,31.4l-12,12h0V187.6a4.53,4.53,0,0,1-1,2.81c2.28-2.27,9-8.92,11.6-11.56,1.63-1.75,1.34-2.95,1.35-5,.1-22.27,0-131.65,0-138.6C190.94,34.14,191.06,32.73,191,31.4Z"/><rect class="cls-3" x="33.69" y="89.13" width="127.49" height="54.71" rx="2.34"/><rect class="cls-10" x="32.69" y="88.13" width="127.49" height="54.71" rx="2.34"/><path class="cls-11" d="M33.69,141.5l.8-49a2.34,2.34,0,0,1,2.34-2.34l122-1.06a2.39,2.39,0,0,1,1.07.27,2.33,2.33,0,0,0-2.07-1.27H35a2.34,2.34,0,0,0-2.34,2.34v50A2.32,2.32,0,0,0,34,142.57,2.26,2.26,0,0,1,33.69,141.5Z"/><path class="cls-12" d="M104.35,102.19a1.41,1.41,0,0,1-1.45-1.37V95a1.42,1.42,0,0,1,1.45-1.38h10.19A1.43,1.43,0,0,1,116,95v5.84a1.42,1.42,0,0,1-1.46,1.37Z"/><path class="cls-13" d="M104.35,101.38a.57.57,0,0,1-.59-.56V95a.57.57,0,0,1,.59-.55h10.19a.57.57,0,0,1,.59.55v5.85a.57.57,0,0,1-.59.56Z"/><polygon class="cls-14" points="108.52 96.41 108.52 97.09 109.53 96.78 109.53 100.02 110.37 100.02 110.37 95.78 110.28 95.78 108.52 96.41"/><path class="cls-12" d="M122.69,102.19a1.41,1.41,0,0,1-1.45-1.37V95a1.42,1.42,0,0,1,1.45-1.38h10.19A1.42,1.42,0,0,1,134.34,95v5.84a1.41,1.41,0,0,1-1.46,1.37Z"/><path class="cls-13" d="M122.69,101.38a.58.58,0,0,1-.59-.56V95a.58.58,0,0,1,.59-.55h10.19a.58.58,0,0,1,.6.55v5.85a.58.58,0,0,1-.6.56Z"/><path class="cls-14" d="M128.42,98.35a3.37,3.37,0,0,0,.56-.76,1.38,1.38,0,0,0,.16-.64,1.1,1.1,0,0,0-.36-.88,1.49,1.49,0,0,0-1-.32,1.62,1.62,0,0,0-.77.18,1.34,1.34,0,0,0-.52.51,1.38,1.38,0,0,0-.18.7h.84a.76.76,0,0,1,.16-.51.56.56,0,0,1,.45-.2.51.51,0,0,1,.41.16.68.68,0,0,1,.14.44.85.85,0,0,1-.13.44,3.66,3.66,0,0,1-.42.54l-1.37,1.46V100h2.9v-.68h-1.82Z"/><path class="cls-12" d="M141,102.19a1.42,1.42,0,0,1-1.46-1.37V95A1.43,1.43,0,0,1,141,93.6h10.19A1.42,1.42,0,0,1,152.68,95v5.84a1.41,1.41,0,0,1-1.45,1.37Z"/><path class="cls-13" d="M141,101.38a.58.58,0,0,1-.6-.56V95a.58.58,0,0,1,.6-.55h10.19a.57.57,0,0,1,.59.55v5.85a.57.57,0,0,1-.59.56Z"/><path class="cls-14" d="M146.89,97.84a1.17,1.17,0,0,0,.47-.38.86.86,0,0,0,.17-.53,1.06,1.06,0,0,0-.38-.88,1.54,1.54,0,0,0-1.05-.33,1.67,1.67,0,0,0-.71.15,1.27,1.27,0,0,0-.5.41,1.13,1.13,0,0,0-.17.6h.84a.43.43,0,0,1,.16-.35.66.66,0,0,1,.4-.13.61.61,0,0,1,.42.14.54.54,0,0,1,.15.4.61.61,0,0,1-.15.43.65.65,0,0,1-.47.16h-.45v.65h.44c.47,0,.7.21.7.64a.57.57,0,0,1-.17.42.68.68,0,0,1-.47.15.67.67,0,0,1-.44-.15.48.48,0,0,1-.18-.39h-.84a1.11,1.11,0,0,0,.41.89,1.55,1.55,0,0,0,1,.33,1.64,1.64,0,0,0,1.09-.34,1.13,1.13,0,0,0,.41-.9,1.09,1.09,0,0,0-.17-.61A1,1,0,0,0,146.89,97.84Z"/><path class="cls-12" d="M104.35,113.92a1.42,1.42,0,0,1-1.45-1.37V106.7a1.42,1.42,0,0,1,1.45-1.37h10.19A1.43,1.43,0,0,1,116,106.7v5.85a1.43,1.43,0,0,1-1.46,1.37Z"/><path class="cls-13" d="M104.35,113.11a.57.57,0,0,1-.59-.56V106.7a.57.57,0,0,1,.59-.56h10.19a.57.57,0,0,1,.59.56v5.85a.57.57,0,0,1-.59.56Z"/><path class="cls-14" d="M110.51,107.51h-.85l-1.76,2.79,0,.53h1.73v.91h.84v-.91H111v-.68h-.48Zm-.84,2.64h-.93l.88-1.4,0-.1Z"/><path class="cls-12" d="M122.69,113.92a1.42,1.42,0,0,1-1.45-1.37V106.7a1.42,1.42,0,0,1,1.45-1.37h10.19a1.42,1.42,0,0,1,1.46,1.37v5.85a1.42,1.42,0,0,1-1.46,1.37Z"/><path class="cls-13" d="M122.69,113.11a.58.58,0,0,1-.59-.56V106.7a.58.58,0,0,1,.59-.56h10.19a.58.58,0,0,1,.6.56v5.85a.58.58,0,0,1-.6.56Z"/><path class="cls-14" d="M127.93,108.93a1.32,1.32,0,0,0-.64.16l.11-.91h1.68v-.7h-2.37l-.24,2.15.66.17.08-.08a.78.78,0,0,1,.49-.16.64.64,0,0,1,.5.2.76.76,0,0,1,.18.55,1,1,0,0,1-.15.58.54.54,0,0,1-.44.2.64.64,0,0,1-.42-.14.68.68,0,0,1-.18-.42h-.83a1.22,1.22,0,0,0,.2.65,1.3,1.3,0,0,0,.52.43,1.54,1.54,0,0,0,.71.16,1.53,1.53,0,0,0,.76-.18,1.27,1.27,0,0,0,.5-.5,1.61,1.61,0,0,0,.17-.74,1.48,1.48,0,0,0-.34-1A1.23,1.23,0,0,0,127.93,108.93Z"/><path class="cls-12" d="M141,113.92a1.43,1.43,0,0,1-1.46-1.37V106.7a1.43,1.43,0,0,1,1.46-1.37h10.19a1.42,1.42,0,0,1,1.45,1.37v5.85a1.42,1.42,0,0,1-1.45,1.37Z"/><path class="cls-13" d="M141,113.11a.58.58,0,0,1-.6-.56V106.7a.58.58,0,0,1,.6-.56h10.19a.57.57,0,0,1,.59.56v5.85a.57.57,0,0,1-.59.56Z"/><path class="cls-14" d="M146.39,108.9a1.12,1.12,0,0,0-.85.35,1.18,1.18,0,0,1,.41-.8,1.47,1.47,0,0,1,.92-.3H147v-.69h-.14a2.21,2.21,0,0,0-1.13.29,1.9,1.9,0,0,0-.74.82,2.6,2.6,0,0,0-.26,1.21v.31a1.79,1.79,0,0,0,.41,1.24,1.36,1.36,0,0,0,1.08.46,1.53,1.53,0,0,0,.74-.18,1.39,1.39,0,0,0,.5-.52,1.6,1.6,0,0,0,.18-.75,1.56,1.56,0,0,0-.33-1A1,1,0,0,0,146.39,108.9Zm.2,2a.55.55,0,0,1-.44.21.53.53,0,0,1-.47-.23,1.15,1.15,0,0,1-.16-.66V110a.6.6,0,0,1,.24-.28.7.7,0,0,1,.37-.11.54.54,0,0,1,.45.21.83.83,0,0,1,.17.56A.88.88,0,0,1,146.59,110.9Z"/><path class="cls-12" d="M104.35,125.65a1.42,1.42,0,0,1-1.45-1.37v-5.85a1.41,1.41,0,0,1,1.45-1.37h10.19a1.42,1.42,0,0,1,1.46,1.37v5.85a1.43,1.43,0,0,1-1.46,1.37Z"/><path class="cls-13" d="M104.35,124.84a.58.58,0,0,1-.59-.56v-5.85a.57.57,0,0,1,.59-.56h10.19a.57.57,0,0,1,.59.56v5.85a.58.58,0,0,1-.59.56Z"/><polygon class="cls-14" points="107.95 119.92 110.06 119.92 108.42 123.47 109.3 123.47 110.94 119.71 110.94 119.24 107.95 119.24 107.95 119.92"/><path class="cls-12" d="M122.69,125.65a1.42,1.42,0,0,1-1.45-1.37v-5.85a1.41,1.41,0,0,1,1.45-1.37h10.19a1.41,1.41,0,0,1,1.46,1.37v5.85a1.42,1.42,0,0,1-1.46,1.37Z"/><path class="cls-13" d="M122.69,124.84a.59.59,0,0,1-.59-.56v-5.85a.58.58,0,0,1,.59-.56h10.19a.58.58,0,0,1,.6.56v5.85a.59.59,0,0,1-.6.56Z"/><path class="cls-14" d="M128.55,121.29a1.11,1.11,0,0,0,.42-.38.94.94,0,0,0,.16-.55,1.09,1.09,0,0,0-.36-.86,1.66,1.66,0,0,0-2,0,1.09,1.09,0,0,0-.36.86,1,1,0,0,0,.15.55,1.11,1.11,0,0,0,.42.38,1.2,1.2,0,0,0-.48.41,1,1,0,0,0-.18.61,1.11,1.11,0,0,0,.39.89,1.8,1.8,0,0,0,2.08,0,1.11,1.11,0,0,0,.39-.89,1,1,0,0,0-.18-.61A1.16,1.16,0,0,0,128.55,121.29ZM127.42,120a.46.46,0,0,1,.37-.14.47.47,0,0,1,.37.15.61.61,0,0,1,.13.39.59.59,0,0,1-.13.41.53.53,0,0,1-.74,0,.65.65,0,0,1-.13-.41A.62.62,0,0,1,127.42,120Zm.8,2.69a.56.56,0,0,1-.43.16.56.56,0,0,1-.43-.17.57.57,0,0,1-.16-.43.61.61,0,0,1,.16-.45.61.61,0,0,1,.43-.16.58.58,0,0,1,.43.17.68.68,0,0,1,0,.88Z"/><path class="cls-12" d="M141,125.65a1.43,1.43,0,0,1-1.46-1.37v-5.85a1.42,1.42,0,0,1,1.46-1.37h10.19a1.41,1.41,0,0,1,1.45,1.37v5.85a1.42,1.42,0,0,1-1.45,1.37Z"/><path class="cls-13" d="M141,124.84a.59.59,0,0,1-.6-.56v-5.85a.58.58,0,0,1,.6-.56h10.19a.57.57,0,0,1,.59.56v5.85a.58.58,0,0,1-.59.56Z"/><path class="cls-14" d="M146.87,119.4a1.33,1.33,0,0,0-.74-.21,1.43,1.43,0,0,0-.74.19,1.37,1.37,0,0,0-.5.54,1.64,1.64,0,0,0-.18.76,1.53,1.53,0,0,0,.33,1,1.14,1.14,0,0,0,.9.39,1.09,1.09,0,0,0,.77-.32c-.06.65-.46,1-1.19,1h-.18v.7h.2a2,2,0,0,0,1.49-.64,2.45,2.45,0,0,0,.53-1.66v-.31a2.13,2.13,0,0,0-.18-.9A1.37,1.37,0,0,0,146.87,119.4Zm-.15,1.71a.75.75,0,0,1-.22.25.61.61,0,0,1-.35.11.53.53,0,0,1-.45-.23,1.07,1.07,0,0,1,0-1.14.46.46,0,0,1,.41-.23.5.5,0,0,1,.44.23,1.15,1.15,0,0,1,.16.66Z"/><path class="cls-12" d="M122.69,137.38a1.42,1.42,0,0,1-1.45-1.38v-5.84a1.42,1.42,0,0,1,1.45-1.38h10.19a1.42,1.42,0,0,1,1.46,1.38V136a1.42,1.42,0,0,1-1.46,1.38Z"/><path class="cls-13" d="M122.69,136.56a.58.58,0,0,1-.59-.56v-5.84a.58.58,0,0,1,.59-.56h10.19a.58.58,0,0,1,.6.56V136a.58.58,0,0,1-.6.56Z"/><path class="cls-14" d="M128.84,131.36a1.27,1.27,0,0,0-1-.45,1.25,1.25,0,0,0-1.06.46,2.06,2.06,0,0,0-.37,1.34v.78a2.15,2.15,0,0,0,.37,1.31,1.3,1.3,0,0,0,1.06.45,1.28,1.28,0,0,0,1.07-.46,2.16,2.16,0,0,0,.36-1.34v-.78A2.08,2.08,0,0,0,128.84,131.36Zm-.46,2.24a1.73,1.73,0,0,1-.14.74.47.47,0,0,1-.45.24.48.48,0,0,1-.45-.25,1.7,1.7,0,0,1-.14-.77v-1a1.33,1.33,0,0,1,.15-.72.48.48,0,0,1,.44-.23.47.47,0,0,1,.44.24,1.51,1.51,0,0,1,.15.77Z"/><path class="cls-12" d="M104.35,137.38A1.42,1.42,0,0,1,102.9,136v-5.84a1.42,1.42,0,0,1,1.45-1.38h10.19a1.43,1.43,0,0,1,1.46,1.38V136a1.43,1.43,0,0,1-1.46,1.38Z"/><path class="cls-13" d="M104.35,136.56a.57.57,0,0,1-.59-.56v-5.84a.57.57,0,0,1,.59-.56h10.19a.57.57,0,0,1,.59.56V136a.57.57,0,0,1-.59.56Z"/><path class="cls-12" d="M141,137.38a1.43,1.43,0,0,1-1.46-1.38v-5.84a1.43,1.43,0,0,1,1.46-1.38h10.19a1.42,1.42,0,0,1,1.45,1.38V136a1.42,1.42,0,0,1-1.45,1.38Z"/><path class="cls-13" d="M141,136.56a.58.58,0,0,1-.6-.56v-5.84a.58.58,0,0,1,.6-.56h10.19a.57.57,0,0,1,.59.56V136a.57.57,0,0,1-.59.56Z"/><circle class="cls-15" cx="56.01" cy="115.49" r="15.67" transform="translate(-72.12 123.04) rotate(-67.5)"/><path class="cls-16" d="M69.58,123.32,56,115.49l6.08,14.45A15.79,15.79,0,0,0,69.58,123.32Z"/><path class="cls-13" d="M67.33,104.66a15.67,15.67,0,1,0-22.15,22.15,15.62,15.62,0,0,1-2.76-17.68L56,115.49l-6.3-13.62a14.79,14.79,0,0,1,2.88-1.06L56,115.49l-2.15-14.95a16.43,16.43,0,0,1,2.65-.22A15.59,15.59,0,0,1,67.33,104.66Z"/><circle class="cls-17" cx="56.01" cy="115.49" r="7.91" transform="translate(-72.12 123.04) rotate(-67.5)"/><path class="cls-18" d="M48.68,116a7.91,7.91,0,0,1,7.91-7.91,7.8,7.8,0,0,1,4.84,1.67,7.9,7.9,0,1,0-10.27,12A7.9,7.9,0,0,1,48.68,116Z"/><path class="cls-19" d="M58.83,117.6l3.39,39.87a6.24,6.24,0,1,1-12.43,0l3.39-39.87a2.84,2.84,0,0,1,5.65,0Z"/><path class="cls-20" d="M54.51,117.72l-3.39,39.86a5.89,5.89,0,0,0,0,.84A4.94,4.94,0,0,0,56,162.9V116.35A1.51,1.51,0,0,0,54.51,117.72Z"/><circle class="cls-19" cx="56" cy="115.49" r="4.7" transform="translate(-39.93 30.22) rotate(-22.5)"/><path class="cls-20" d="M54.77,111.69a2.47,2.47,0,1,0,2.47,2.47A2.47,2.47,0,0,0,54.77,111.69Z"/></g></g></svg>