<svg viewBox="0 0 200 200" xmlns="http://www.w3.org/2000/svg"><path d="m134.06 163.78h-68.12a7 7 0 0 1 -7.1-6.85l.12 1.24 1.63 5.41c.9 2.78 3.66 7 6.8 7h65.52c3.27 0 6.12-4.4 6.9-7.33l1.23-5.1.12-1.24a7 7 0 0 1 -7.1 6.87z" fill="#67645d"/><path d="m134.06 130.19h-68.12a5.24 5.24 0 0 1 -5.33-5.14c-1 0-1.68 1.7-1.68 2.64l1.22 34.23c.68 3 3.55 7 6.88 7h66.17c3.43 0 6.36-4.07 6.94-7.22l.93-34c0-.94-.7-2.64-1.68-2.64a5.24 5.24 0 0 1 -5.33 5.13z" fill="#67645d"/><path d="m134.06 96.59h-68.12a3.5 3.5 0 0 1 -3.57-3.42c-1.95 0-3.47 2.16-3.47 4l.82 63.05c.45 3.28 3.42 6.93 7 6.93h66.82c3.59 0 6.6-3.73 7-7.09l.62-62.89c0-1.89-1.52-4-3.47-4a3.5 3.5 0 0 1 -3.63 3.42z" fill="#9b978c"/><path d="m134.06 63h-68.12a1.76 1.76 0 0 1 -1.8-1.71 5.48 5.48 0 0 0 -5.27 5.45l.41 91.86c.22 3.54 3.3 6.9 7 6.9h67.47a7.44 7.44 0 0 0 7-7l.31-91.78a5.48 5.48 0 0 0 -5.27-5.45 1.76 1.76 0 0 1 -1.73 1.73z" fill="#aeac9f"/><path d="m134.09 29.4h-68.19a7 7 0 0 0 -7.06 6.85v120.68a7 7 0 0 0 7.1 6.85h68.12a7 7 0 0 0 7.1-6.85v-120.68a7 7 0 0 0 -7.07-6.85z" fill="#b36642"/><path d="m134.09 29.4h-68.19a7 7 0 0 0 -7.06 6.85v120.68a7 7 0 0 0 7.1 6.85h68.12a7 7 0 0 0 7.1-6.85v-120.68a7 7 0 0 0 -7.07-6.85z" fill="#9a5436"/><path d="m134.09 29.4h-68.19a7 7 0 0 0 -7.06 6.85v120.68a7 7 0 0 0 7.1 6.85h68.12a7 7 0 0 0 7.1-6.85v-120.68a7 7 0 0 0 -7.07-6.85z" fill="#82422a"/><path d="m134.09 29.4h-68.19a7 7 0 0 0 -7.06 6.85v120.68a7 7 0 0 0 7.1 6.85h68.12a7 7 0 0 0 7.1-6.85v-120.68a7 7 0 0 0 -7.07-6.85z" fill="#6a2f1e"/><path d="m134.09 29.4h-68.19a7 7 0 0 0 -7.06 6.85v120.68a7 7 0 0 0 7.1 6.85h68.12a7 7 0 0 0 7.1-6.85v-120.68a7 7 0 0 0 -7.07-6.85z" fill="#c4c1b2"/><path d="m132 33.63h-63.95a6.54 6.54 0 0 0 -6.62 6.42v113.08a6.54 6.54 0 0 0 6.65 6.42h63.84a6.54 6.54 0 0 0 6.65-6.42v-113.08a6.53 6.53 0 0 0 -6.57-6.42z" fill="#d6d9ca"/><path d="m129.8 37.86h-59.61a6.09 6.09 0 0 0 -6.17 6v105.47a6.1 6.1 0 0 0 6.21 6h59.54a6.1 6.1 0 0 0 6.21-6v-105.48a6.1 6.1 0 0 0 -6.18-5.99z" fill="#e0ded0"/><path d="m127.66 42.09h-55.32a5.65 5.65 0 0 0 -5.72 5.56v97.88a5.66 5.66 0 0 0 5.75 5.56h55.26a5.66 5.66 0 0 0 5.75-5.56v-97.88a5.65 5.65 0 0 0 -5.72-5.56z" fill="#e3e1d3"/><path d="m125.51 46.32h-51a5.22 5.22 0 0 0 -5.28 5.13v90.28a5.21 5.21 0 0 0 5.31 5.13h51a5.21 5.21 0 0 0 5.31-5.13v-90.28a5.22 5.22 0 0 0 -5.34-5.13z" fill="#f7f5e6"/><path d="m91.46 51.27q5.33 2.52 9.62 4.64a57.41 57.41 0 0 0 10.18-8.06 1.37 1.37 0 0 1 1.89 0 1.26 1.26 0 0 1 0 1.83 61.89 61.89 0 0 1 -9.33 7.59c1.58.77 3 1.5 4.41 2.18l3.1 1.55 2.9-1.55c2.84-1.53 8.13-4.37 11.46-1.73a8.08 8.08 0 0 1 2.58 5.72 5.64 5.64 0 0 1 -1.27 4.35c-2.25 2.26-5.65 1-15.58-3.9-5.25 2.79-9.7 5.1-13.5 7 4.89 2.49 9.14 4.77 12.82 6.77l1.8-.94c7.21-3.71 12.65-6.11 16.91-3.34 3.13 2 4.84 6.37 5.13 9.75.23 2.52-.31 4.53-1.5 5.65-2.81 2.62-7.42.08-18.55-6.06l-3.82-2.1c-6.38 3.38-11.4 6.38-15.39 8.86 3.33 2.28 6.12 4.57 8.62 6.64a39.93 39.93 0 0 1 15.29-3.05c4.1 0 15.93 1 16.41 5.34a3.91 3.91 0 0 1 -1.26 3c-2.29 2.56-7.88 5.39-13.72 5.58-7 .23-11.63-3.28-17.21-7.88a64.14 64.14 0 0 0 -12.45 7.66c5.3 2.66 9.75 5.18 13.63 7.44a41.64 41.64 0 0 1 12-4.33c2.53-.48 15.26-2.65 17.45 2.71 1.44 3.53-2.1 9.65-6.9 11.9l-.26.12a5.56 5.56 0 0 1 4.1 2.44c1.09 1.84.94 4.9-.38 8.18-1.73 4.28-4.77 7.46-8.14 8.5-5.41 1.69-9.91-2.47-15.13-7.28-.71-.65-1.44-1.33-2.21-2l-.09.07a32.8 32.8 0 0 1 -7.48 4.83c-5.9 2.66-12.76 3.33-20.38 2a1.29 1.29 0 0 1 -1.07-1.51 1.34 1.34 0 0 1 1.56-1c7.06 1.24 13.37.64 18.76-1.8a29.64 29.64 0 0 0 6.71-4.3 46.84 46.84 0 0 0 -10-6.74c-.72.66-1.42 1.3-2.09 1.93-5.86 5.42-10.49 9.7-15.83 7.58-4.79-1.9-7.77-8.22-6.49-11.54 1.9-5 12.35-3.85 15.51-3.39a34.7 34.7 0 0 1 8.4 2.33 69.46 69.46 0 0 1 9.31-7.13c-3.81-2.2-8.16-4.63-13.3-7.17-1.18.93-2.32 1.86-3.42 2.76-6.8 5.53-12.16 9.9-16.87 7-2.45-1.51-4.2-4.88-4.67-9-.35-3 0-7 2.15-9 3.18-3.11 9.1-.84 16.5 2.46 2.1.93 4.09 1.86 6 2.77a71.68 71.68 0 0 1 12.85-8.17 98.36 98.36 0 0 0 -8.34-6.43c-8.37 5.22-12.6 7.83-17.52 5.85-4.2-1.69-7.26-6.34-8.43-10.2-.46-1.53-1-4.35.2-6.09 2.31-3.23 9-.58 14 1.35a70.85 70.85 0 0 1 11.84 6c3.87-2.42 8.77-5.42 15-8.79-3.75-2-8.06-4.31-13-6.79-15.61 7.56-18.57 7.2-20.82 5.67-2-1.39-3.38-4.18-3.69-7.47-.28-3 .4-5.66 1.83-7.09 3.32-3.35 9.88-.2 16.23 2.85 2.25 1.08 4.4 2.14 6.44 3.16 3.75-1.84 8.21-4.13 13.53-7l-1.49-.71c-1.76-.87-3.7-1.84-5.83-2.88-6.59 3.63-12.45 4.34-16.51 1.71a14.58 14.58 0 0 1 -5.75-8.69 3.82 3.82 0 0 1 .54-3.13 2.68 2.68 0 0 1 2-1c2.21-.19 5.55 1.4 10.01 3.52zm6.81 6.17c-2.44-1.19-5.1-2.47-8-3.85s-7.78-3.71-8.69-3.28c-.6.9 1.24 5.94 4.58 8.11a8.2 8.2 0 0 0 5.16 1.12 19.65 19.65 0 0 0 6.95-2.1zm26.73 8.56a3.46 3.46 0 0 0 .57-2.44 5.71 5.71 0 0 0 -1.57-3.88c-1.92-1.53-6.33.85-8.48 2l-1.29.7c6.3 3.06 9.89 4.54 10.77 3.62zm-33 4.86-4.68-2.28c-4.7-2.26-11.15-5.36-13.1-3.38-.85.86-1.29 2.89-1.09 5 .24 2.52 1.23 4.67 2.58 5.61a3.08 3.08 0 0 0 2 .37c2.29-.13 6.43-1.57 14.29-5.32zm23.81 9.6c8.43 4.65 14 7.72 15.36 6.45.45-.42.87-1.58.69-3.56-.24-2.77-1.68-6.34-4-7.83-2.77-1.81-6.77-.32-14.15 3.48l-.3.15zm-25.38 9a68.63 68.63 0 0 0 -10.37-5.13c-2.39-.94-9.64-3.79-10.72-2.28-.34.47-.43 1.89.17 3.89.95 3.16 3.52 7.18 6.89 8.54a5.89 5.89 0 0 0 2.75.42c2.74-.22 6-2.15 11.28-5.45zm30.15 15c4.8-.18 9.72-2.47 11.71-4.61a2.27 2.27 0 0 0 .69-1.09c-.25-1.16-6.65-3-13.77-3a36.76 36.76 0 0 0 -13 2.33c4.85 3.83 8.79 6.5 14.37 6.32zm-37 4.92 2.52-2c-1.54-.73-3.14-1.47-4.82-2.22-7.19-3.2-11.7-4.72-13.47-3-1.17 1.15-1.73 3.94-1.39 6.94.37 3.27 1.73 6.06 3.45 7.12a3.49 3.49 0 0 0 2.11.48c2.95-.32 6.89-3.52 11.61-7.37zm24.18 6.72c9 5.27 13.89 8.18 18.28 6.12 3.94-1.85 6.35-6.73 5.58-8.62-.92-2.24-8.21-2.33-14.45-1.13a39.34 39.34 0 0 0 -9.88 3.35zm-2.45 15a29 29 0 0 1 7.65-4.19 45.31 45.31 0 0 1 6.77-1.87c-3.69-1-7.9-3.48-13.37-6.7l-1.76-1a61.23 61.23 0 0 0 -9.28 6.84 50.09 50.09 0 0 1 10 6.82zm-16-5 1.29-1.19a31.7 31.7 0 0 0 -6.66-1.73c-4.37-.64-11.64-.74-12.59 1.72-.75 2 1.49 6.86 5 8.25a4.71 4.71 0 0 0 2.15.33c2.88-.32 6.07-3.12 10.78-7.48zm20 8.58c4.79 4.42 8.57 7.91 12.45 6.69 3.07-1 5.35-4.23 6.46-7s1.1-5 .55-6c-1.37-2.34-8.76-1.35-14.81.9a26.24 26.24 0 0 0 -6.6 3.55z" fill="#5b3114"/><path d="m91 52.14c3.77 1.79 7.13 3.42 10.14 4.89a58 58 0 0 0 10.86-8.5.34.34 0 0 1 .48 0 .32.32 0 0 1 0 .46 59.22 59.22 0 0 1 -10.61 8.38l5.93 2.93 3.57 1.76 3.38-1.8c2.63-1.42 7.52-4 10.33-1.83a7.12 7.12 0 0 1 2.22 5 4.82 4.82 0 0 1 -1 3.66c-1.8 1.81-5.33.36-14.88-4.32-6.28 3.34-11.43 6-15.67 8.07 5.83 2.94 10.8 5.6 15 7.89.75-.4 1.51-.79 2.29-1.19 6.9-3.55 12.08-5.87 15.87-3.39 2.85 1.85 4.43 6 4.7 9 .2 2.2-.24 4-1.2 4.87-2.26 2.11-7-.49-17.35-6.2l-4.31-2.37c-7.29 3.85-12.87 7.28-17.16 10a106.46 106.46 0 0 1 10 7.59 2.43 2.43 0 0 1 .25.2 39.13 39.13 0 0 1 15.38-3.24c5.21 0 15.07 1.36 15.42 4.48a3.06 3.06 0 0 1 -1 2.26c-2.16 2.41-7.46 5-13 5.25-6.78.22-11.35-3.37-17-8a67.86 67.86 0 0 0 -14.46 9.01c6.12 3 11.13 5.87 15.44 8.38a41.12 41.12 0 0 1 12.24-4.49c5.32-1 14.75-1.74 16.32 2.11 1.13 2.74-1.83 8.52-6.4 10.67-5.21 2.46-10.42-.62-19.88-6.19l-2.29-1.34a64.14 64.14 0 0 0 -11 8.21 49 49 0 0 1 11.71 8 28.56 28.56 0 0 1 8-4.56c4.82-1.79 14.54-4.14 16.87-.2.92 1.57.75 4.38-.45 7.35s-3.88 6.8-7.51 7.93c-4.83 1.5-8.93-2.27-14.12-7.06-.92-.84-1.87-1.72-2.86-2.61l-.77.62a32.41 32.41 0 0 1 -7.27 4.69c-5.71 2.57-12.37 3.22-19.78 1.92a.32.32 0 0 1 -.27-.37.33.33 0 0 1 .4-.26c7.27 1.27 13.78.64 19.37-1.88a31.64 31.64 0 0 0 7.12-4.6l.7-.56a48 48 0 0 0 -11.75-7.98c-.9.81-1.77 1.61-2.61 2.39-5.59 5.17-10 9.26-14.74 7.38-4.26-1.69-7-7.42-5.94-10.31 1.72-4.49 13.12-2.95 14.41-2.76a34 34 0 0 1 8.8 2.52 66.13 66.13 0 0 1 11-8.29c-4.29-2.5-9.28-5.33-15.36-8.31-1.38 1.08-2.69 2.15-3.94 3.17-6.44 5.27-11.56 9.43-15.62 6.93-2.2-1.35-3.77-4.46-4.21-8.31-.41-3.57.3-6.73 1.86-8.26 2.49-2.43 7.13-1 15.36 2.66 2.31 1 4.48 2 6.53 3a69.82 69.82 0 0 1 14.56-9.09 108.19 108.19 0 0 0 -10.18-7.7l-.42.26c-8.19 5.14-12.29 7.7-16.75 5.94-3.9-1.57-6.75-6-7.85-9.58-.7-2.32-.68-4.24.06-5.27 1.85-2.59 8.4 0 12.73 1.7a69 69 0 0 1 12.22 6.25c4.26-2.66 9.81-6.09 17.07-9.95-4.22-2.29-9.2-5-15-7.89-15.38 7.51-18.31 7.26-20.21 6s-3-3.76-3.27-6.77c-.25-2.69.35-5.11 1.55-6.33 2.61-2.62 8.12-.28 15.06 3q3.59 1.71 6.89 3.35c4.21-2.06 9.36-4.7 15.68-8.07l-3.16-1.56-6.31-3.12c-6.43 3.68-12.1 4.49-15.94 2a13.46 13.46 0 0 1 -5.32-8 3 3 0 0 1 .34-2.38 1.79 1.79 0 0 1 1.31-.63c1.78-.18 4.96 1.25 9.4 3.39zm9.46 5.29c-2.91-1.43-6.15-3-9.75-4.71-4.6-2.18-8.94-4.25-10-3a2.53 2.53 0 0 0 -.21 1.88 12.93 12.93 0 0 0 5 7.61 9.17 9.17 0 0 0 5.84 1.31 22.86 22.86 0 0 0 9.13-3.09zm25.28 9.24a4.2 4.2 0 0 0 .85-3.17 6.61 6.61 0 0 0 -2-4.57c-2.45-1.94-7.09.55-9.61 1.91l-3 1.58c8.76 4.26 12.31 5.71 13.77 4.25zm-31.53 4.2c-2-1-4.2-2.08-6.45-3.16-6.69-3.21-12-5.49-14.27-3.18-1.08 1.08-1.6 3.31-1.37 5.81.26 2.8 1.41 5.21 3 6.31a3.68 3.68 0 0 0 2.6.58c2.46-.18 6.97-1.72 16.5-6.36zm21.1 10.43c9.76 5.38 14.65 8.07 16.55 6.31.82-.76 1.18-2.35 1-4.35-.25-2.9-1.74-6.81-4.41-8.55-3.48-2.27-8.49 0-15.18 3.43l-1.91 1zm-23.2 8.26.18-.11a69.07 69.07 0 0 0 -11.85-6c-3.89-1.53-10.39-4.09-11.93-1.93-.61.85-.6 2.62 0 4.71 1.06 3.49 3.78 7.68 7.47 9.17a6.92 6.92 0 0 0 3.22.5c3.19-.27 6.8-2.54 12.91-6.34zm28.5 15.82c5.16-.18 10.41-2.69 12.51-5a2.61 2.61 0 0 0 .88-1.78c-.25-2.17-8.14-3.88-14.77-3.91a38.26 38.26 0 0 0 -14.88 3c5.39 4.49 9.84 7.9 16.26 7.69zm-36.38 4.69q1.77-1.44 3.72-3-2.94-1.42-6.24-2.9c-7.78-3.46-12.41-4.93-14.6-2.8-1.4 1.37-2.06 4.41-1.68 7.74.41 3.6 1.91 6.6 3.91 7.83a4.41 4.41 0 0 0 2.7.63c3.28-.24 7.34-3.57 12.19-7.5zm23 6.81c9.26 5.45 14.36 8.45 19.24 6.16 4.2-2 7.07-7.4 6.07-9.85-1.41-3.46-10.8-2.64-15.57-1.72a40 40 0 0 0 -11.71 4.25zm-17.23 9.82 2.41-2.22a33.2 33.2 0 0 0 -8.32-2.36c-.49-.07-12.12-1.73-13.68 2.35-1 2.6 1.71 7.95 5.57 9.48a5.63 5.63 0 0 0 2.6.4c3.42-.26 6.9-3.49 11.42-7.65zm18.6 8.58c5 4.64 9 8.3 13.46 6.92 3.4-1.06 5.89-4.6 7.09-7.55 1.12-2.79 1.31-5.4.49-6.8-2-3.3-10.67-1.52-16.05.49a27.62 27.62 0 0 0 -7.78 4.39q1.43 1.27 2.76 2.55z" fill="#fff" opacity=".25"/></svg>