<svg viewBox="0 0 200 200" xmlns="http://www.w3.org/2000/svg" xmlns:xlink="http://www.w3.org/1999/xlink"><clipPath id="a"><path d="m116.75 44.81-.3-.09-.28-.08-.29-.09a53.52 53.52 0 0 0 -31.76 0l-.29.09-.28.08-.3.09a57.74 57.74 0 0 0 -40.41 55.26c0 31.92 25.59 57.79 57.16 57.79s57.16-25.87 57.16-57.79a57.74 57.74 0 0 0 -40.41-55.26z"/></clipPath><ellipse cx="100" cy="100.07" fill="#290e0a" rx="57.16" ry="57.79"/><ellipse cx="100" cy="98.89" fill="#33120c" rx="56.17" ry="56.64"/><ellipse cx="100" cy="97.71" fill="#3d160e" rx="55.18" ry="55.5"/><ellipse cx="100" cy="96.53" fill="#511d12" rx="54.19" ry="54.35"/><circle cx="100" cy="95.34" fill="#623833" r="53.2"/><circle cx="100" cy="95.34" fill="#6b4543" r="51.68"/><circle cx="100" cy="95.34" fill="#745253" r="50.15"/><circle cx="100" cy="95.34" fill="#785556" r="48.62"/><circle cx="100" cy="95.34" fill="#745253" r="47.1"/><g clip-path="url(#a)"><path d="m41.43 58.92a117.09 117.09 0 0 0 24.85 9.66 99.8 99.8 0 0 0 26.35 3.11 104.56 104.56 0 0 0 26.17-4.1c8.55-2.37 16.8-5.69 25.16-8.89a118.81 118.81 0 0 1 12.85-4.3 34.48 34.48 0 0 1 6.85-1.1 18.27 18.27 0 0 1 7.11.93 17.68 17.68 0 0 1 10 10c1.83 4.34 2.51 9.45.59 14.14a16.22 16.22 0 0 1 -4.4 5.82 28.71 28.71 0 0 1 -5.96 3.81 55.65 55.65 0 0 1 -13.07 4.2 118.9 118.9 0 0 1 -27 2 154.61 154.61 0 0 1 -52.59-11c-8.34-3.39-16.34-7.53-24.34-11.47-4-1.91-8-3.82-12.3-4.73a11.75 11.75 0 0 0 -6.29.27 10.45 10.45 0 0 0 -4.82 4 20.12 20.12 0 0 0 -3.18 12.41 16.73 16.73 0 0 0 1.59 6.24 12.15 12.15 0 0 0 4.28 4.69c3.71 2.28 8.16 3.22 12.5 4 2.18.42 4.39.67 6.6.93s4.43.44 6.65.63c8.89.69 17.82 1 26.74 1 4.47 0 8.93.08 13.39 0s8.93 0 13.4-.11c8.93-.08 17.86-.31 26.79-.49l26.8-.73a112.11 112.11 0 0 1 13.56.37 30.14 30.14 0 0 1 3.45.55 11.85 11.85 0 0 1 3.55 1.31 4.22 4.22 0 0 1 1.68 1.72 3.63 3.63 0 0 1 .2 2.63 8.53 8.53 0 0 1 -2.13 3.37c-3.4 3.46-7.35 5.72-11.32 7.93a107.6 107.6 0 0 1 -12.36 5.65 83.8 83.8 0 0 1 -26.64 5.42 110.37 110.37 0 0 1 -27-2.4c-17.77-3.6-34.39-10.86-51-17.19a110.33 110.33 0 0 0 -12.55-4.05 32.16 32.16 0 0 0 -6.29-1 11.79 11.79 0 0 0 -5.75 1c-3.4 1.56-4.87 5.77-4.83 9.85a23.67 23.67 0 0 0 .83 6.19 19.92 19.92 0 0 0 2.45 5.75 23.85 23.85 0 0 0 9.49 8.06 52.21 52.21 0 0 0 12.28 4.26 128 128 0 0 0 26.34 2.59c17.77.07 35.57-1.75 53.21-4.34s35.22-5.93 52.64-9.91l.07.32c-17.32 4.39-34.8 8.26-52.45 11.21s-35.48 5.14-53.47 5.25a130.82 130.82 0 0 1 -26.95-2.36 55.73 55.73 0 0 1 -13-4.36 26.91 26.91 0 0 1 -10.73-9.05 23.18 23.18 0 0 1 -2.91-6.54 25.64 25.64 0 0 1 -1-7 17.68 17.68 0 0 1 1.39-7.2 11 11 0 0 1 5.25-5.59 15.06 15.06 0 0 1 7.29-1.28 36.64 36.64 0 0 1 6.94 1 115.62 115.62 0 0 1 13 4.14c8.42 3.15 16.65 6.56 25 9.55a199.89 199.89 0 0 0 25.48 7.46 107.21 107.21 0 0 0 26.21 2.5 80.25 80.25 0 0 0 25.69-5.07 99.93 99.93 0 0 0 12-5.41c1.94-1 3.84-2.13 5.66-3.32a30.73 30.73 0 0 0 5-3.94 6.15 6.15 0 0 0 1.5-2.18.79.79 0 0 0 0-.63 1.61 1.61 0 0 0 -.65-.63 16.2 16.2 0 0 0 -5.85-1.55 111.37 111.37 0 0 0 -13.22-.53l-26.8.38c-8.93.06-17.87.17-26.81.14-17.88-.07-35.77-.23-53.63-1.61-2.23-.2-4.47-.34-6.69-.66s-4.45-.54-6.66-1c-4.39-.8-8.9-1.75-12.85-4.2a13.47 13.47 0 0 1 -4.62-5.09 17.81 17.81 0 0 1 -1.78-6.62 21.14 21.14 0 0 1 3.29-13.11 11.46 11.46 0 0 1 5.34-4.42 13 13 0 0 1 6.93-.38c4.51.91 8.61 2.86 12.68 4.71 8.1 3.82 16.08 7.79 24.4 11a153.65 153.65 0 0 0 52 10 115.43 115.43 0 0 0 26.34-2.09 52.73 52.73 0 0 0 12.37-4 27.53 27.53 0 0 0 5.28-3.44 13.39 13.39 0 0 0 3.66-4.75c1.56-3.64 1.09-8.13-.51-11.94a15 15 0 0 0 -8.33-8.56c-3.82-1.39-8.24-.85-12.44.17a116.21 116.21 0 0 0 -12.54 4.08 249.37 249.37 0 0 1 -25.48 8.63 107.11 107.11 0 0 1 -26.71 3.73c-18.08.07-35.86-5.33-51.37-14.18z" fill="#ffd7bd"/><path d="m41.38 59a115.09 115.09 0 0 0 24.79 10 99.41 99.41 0 0 0 26.47 3.34 105.69 105.69 0 0 0 26.36-3.95c8.62-2.33 16.94-5.6 25.28-8.79a120.37 120.37 0 0 1 12.72-4.24c4.32-1 9-1.72 13.38-.17a16.6 16.6 0 0 1 9.34 9.43c1.75 4.14 2.36 9 .57 13.31a15.22 15.22 0 0 1 -4.11 5.42 28.05 28.05 0 0 1 -5.67 3.65 54.29 54.29 0 0 1 -12.81 4.13 117.61 117.61 0 0 1 -26.74 2 154.48 154.48 0 0 1 -52.37-10.6c-8.34-3.27-16.31-7.35-24.35-11.24-4-1.88-8.1-3.81-12.46-4.71a12.13 12.13 0 0 0 -6.52.31 10.78 10.78 0 0 0 -5 4.13 20.4 20.4 0 0 0 -3.26 12.67 17.06 17.06 0 0 0 1.68 6.39 12.53 12.53 0 0 0 4.41 4.84c3.8 2.34 8.27 3.28 12.63 4.06 2.19.43 4.41.68 6.63.94s4.44.44 6.66.64c8.9.69 17.83 1 26.76 1.12 4.47.08 8.94.13 13.4.12s8.94 0 13.4 0c8.94 0 17.87-.22 26.8-.36l26.8-.59a113.71 113.71 0 0 1 13.43.43 17.55 17.55 0 0 1 6.58 1.75 3.32 3.32 0 0 1 1.29 1.31 2.56 2.56 0 0 1 .12 1.88 7.52 7.52 0 0 1 -1.9 2.93c-3.22 3.25-7.15 5.52-11.07 7.67a103.65 103.65 0 0 1 -12.24 5.56 82.61 82.61 0 0 1 -26.28 5.27 108.93 108.93 0 0 1 -26.71-2.45 192.88 192.88 0 0 1 -25.76-7.52c-8.43-3-16.69-6.45-25-9.59a114.52 114.52 0 0 0 -12.72-4.09 33.79 33.79 0 0 0 -6.54-1 13 13 0 0 0 -6.37 1.1 9 9 0 0 0 -4.28 4.59 15.68 15.68 0 0 0 -1.22 6.37 24 24 0 0 0 .9 6.51 20.77 20.77 0 0 0 2.61 6 25 25 0 0 0 9.99 8.43 53.44 53.44 0 0 0 12.56 4.31 128.58 128.58 0 0 0 26.57 2.52c17.86 0 35.67-2 53.32-4.67s35.17-6.3 52.55-10.45v.08c-17.36 4.22-34.88 7.85-52.53 10.67s-35.47 4.9-53.36 4.95a128.79 128.79 0 0 1 -26.71-2.41 53.77 53.77 0 0 1 -12.74-4.31 25.66 25.66 0 0 1 -10.26-8.69 22 22 0 0 1 -2.74-6.22 24.61 24.61 0 0 1 -.94-6.72 16.3 16.3 0 0 1 1.3-6.7 9.75 9.75 0 0 1 4.66-5 13.84 13.84 0 0 1 6.72-1.18 34.76 34.76 0 0 1 6.69 1 112.84 112.84 0 0 1 12.8 4.1c8.38 3.15 16.63 6.58 25 9.59a191.58 191.58 0 0 0 25.65 7.51 108.63 108.63 0 0 0 26.53 2.45 81.5 81.5 0 0 0 26.05-5.22 102.88 102.88 0 0 0 12.16-5.5c3.88-2.13 7.79-4.41 10.89-7.52a7 7 0 0 0 1.74-2.63 2 2 0 0 0 -1.1-2.41 17 17 0 0 0 -6.29-1.66 111.86 111.86 0 0 0 -13.34-.47l-26.8.51c-8.93.12-17.87.27-26.81.28-4.46 0-8.93 0-13.4 0s-8.94-.07-13.4-.16c-8.94-.16-17.88-.48-26.79-1.2-2.22-.2-4.46-.34-6.67-.66s-4.44-.52-6.64-1c-4.37-.79-8.86-1.74-12.72-4.13a12.89 12.89 0 0 1 -4.49-5 17.38 17.38 0 0 1 -1.73-6.48 20.81 20.81 0 0 1 3.27-12.72 11.2 11.2 0 0 1 5.15-4.27 12.51 12.51 0 0 1 6.7-.34c4.42.9 8.51 2.83 12.56 4.71 8.05 3.87 16 7.91 24.35 11.14a153.77 153.77 0 0 0 52.24 10.43 116.69 116.69 0 0 0 26.59-2.08 54 54 0 0 0 12.63-4.11 28 28 0 0 0 5.56-3.54 14.46 14.46 0 0 0 3.94-5.15c1.7-4 1.15-8.76-.54-12.77a16 16 0 0 0 -8.94-9.1c-4.16-1.49-8.75-.88-13 .15a122.32 122.32 0 0 0 -12.69 4.19c-8.35 3.17-16.7 6.42-25.35 8.74a106.17 106.17 0 0 1 -26.51 3.88c-18 .22-35.69-5-51.3-13.64z" fill="#fff" opacity=".25"/></g><circle cx="99.05" cy="99.32" fill="#5b1a14" opacity=".41" r="14.79"/><circle cx="100.95" cy="96.09" fill="#5b3114" r="14.79"/><circle cx="99.05" cy="94.99" fill="#fff" opacity=".1" r="10.46"/><circle cx="97.43" cy="90.52" fill="#d9a273" opacity=".22" r="5.99"/></svg>