<svg viewBox="0 0 156 156" xmlns="http://www.w3.org/2000/svg" xmlns:xlink="http://www.w3.org/1999/xlink"><clipPath id="a"><path d="m133.57 124.78-25.84-52.45-25.84-52.44a4.14 4.14 0 0 0 -7.43 0l-25.84 52.44-25.85 52.45a4.07 4.07 0 0 0 -.28 2.79 3.8 3.8 0 0 0 .25 1.23l3.05 7.2a4 4 0 0 0 3.7 2.38h98.51a4 4 0 0 0 3.84-2.77l2.06-7a3.6 3.6 0 0 0 .1-1.53 4 4 0 0 0 -.43-2.3z"/></clipPath><path d="m74.26 25.81-25.86 50-25.87 49.9a3.64 3.64 0 0 0 -.12 3.09l3 7.24a4 4 0 0 0 3.7 2.38h98.47a4 4 0 0 0 3.84-2.77l2.06-7a3.64 3.64 0 0 0 -.26-2.69l-25.89-50.09-25.92-50.06a4.08 4.08 0 0 0 -7.15 0z" fill="#4a4d40"/><path d="m81.44 24.33 25.91 50.67 25.71 50.27a5.41 5.41 0 0 1 .5 1.6 4.78 4.78 0 0 1 0 1.07c.11.61-1.9 6.5-2.57 6.5-.36 1.22-2.72 2.07-4.06 2.07h-97.43c-1.22 0-3.42-.7-3.87-1.78-.77 0-3.56-6.24-3.22-6.93a4.63 4.63 0 0 1 .44-3l25.52-49.9 25.86-50.57a4.09 4.09 0 0 1 7.21 0z" fill="#67645d"/><path d="m81.48 22.85 25.88 51.25 25.51 50.5a9.87 9.87 0 0 1 .58 1.57c.05.36.08.71.11 1.07.08 1.24-1.73 6-3.07 6-.24.82-3.41 1.39-4.3 1.39h-96.35c-.81 0-3.73-.47-4-1.19-1.53 0-4.06-5.24-3.38-6.61-.21-.5.5-2.45.75-2.94l25.17-49.8 25.85-51.2a4.11 4.11 0 0 1 7.25-.04z" fill="#9b978c"/><path d="m81.51 21.37 25.87 51.85 25.3 50.71c.07.13.64 1.4.66 1.54.07.37.19.72.24 1.08.24 1.85-1.58 5.45-3.58 5.45-.12.41-4.08.69-4.53.69h-95.28c-.41 0-4.06-.24-4.21-.6-2.3 0-4.57-4.22-3.55-6.29a13.53 13.53 0 0 1 1.06-2.85l24.82-49.76 25.85-51.82a4.11 4.11 0 0 1 7.35 0z" fill="#aeac9f"/><path d="m129.52 130.75h-103.37a4.14 4.14 0 0 1 -3.71-6l25.84-52.42 25.84-52.44a4.14 4.14 0 0 1 7.43 0l25.84 52.44 25.84 52.45a4.14 4.14 0 0 1 -3.71 5.97z" fill="#c4c1b2"/><path d="m126.3 127.23h-96.93a3.89 3.89 0 0 1 -3.49-5.6l48.47-98.36a3.89 3.89 0 0 1 7 0l48.47 98.36a3.89 3.89 0 0 1 -3.52 5.6z" fill="#d6d9ca"/><path d="m123.09 123.71h-90.51a3.62 3.62 0 0 1 -3.25-5.23l45.25-91.84a3.63 3.63 0 0 1 6.51 0l45.25 91.84a3.62 3.62 0 0 1 -3.25 5.23z" fill="#dbdecf"/><path d="m119.88 120.19h-84.09a3.37 3.37 0 0 1 -3-4.85l42.02-85.34a3.37 3.37 0 0 1 6 0l42 85.32a3.37 3.37 0 0 1 -2.93 4.87z" fill="#dde6d5"/><path d="m116.66 116.68h-77.66a3.11 3.11 0 0 1 -2.79-4.49l38.79-78.8a3.12 3.12 0 0 1 5.59 0l38.82 78.8a3.11 3.11 0 0 1 -2.75 4.49z" fill="#ebf5e3"/><g clip-path="url(#a)"><path d="m32.79 30a101.65 101.65 0 0 0 18.46 5.65 91.86 91.86 0 0 0 19.13 1.75 93.85 93.85 0 0 0 19.02-2.4c6.25-1.4 12.36-3.4 18.54-5.34 3.1-1 6.2-2 9.44-2.69a26.33 26.33 0 0 1 10.18-.72 12.66 12.66 0 0 1 8.79 5.95 12 12 0 0 1 1.76 5.21 8.71 8.71 0 0 1 -1.38 5.59 12.46 12.46 0 0 1 -4.1 3.66 27 27 0 0 1 -4.69 2.14 56.54 56.54 0 0 1 -9.72 2.26 113.28 113.28 0 0 1 -19.63.94 136.7 136.7 0 0 1 -38.43-6.88c-6.16-2.01-12.16-4.57-18.16-7.01a46.24 46.24 0 0 0 -9.1-2.84 10.6 10.6 0 0 0 -4.53.16 3.82 3.82 0 0 0 -1 .41 5.11 5.11 0 0 0 -1 .52 8.52 8.52 0 0 0 -1.65 1.53 10.09 10.09 0 0 0 -1.95 8.62 7.48 7.48 0 0 0 2.32 3.8 8.84 8.84 0 0 0 1.91 1.26 23.09 23.09 0 0 0 2.19.85 51.75 51.75 0 0 0 9.41 1.76c3.21.34 6.42.55 9.65.74 12.9.64 25.84.44 38.77.27s25.85-.67 38.82-.95c3.26-.05 6.52-.07 9.85.2a16.58 16.58 0 0 1 5.26 1.12 3.54 3.54 0 0 1 1.57 1.35 2.64 2.64 0 0 1 .34 1.42 3 3 0 0 1 -.3 1.16 7.21 7.21 0 0 1 -2.05 2.34 41 41 0 0 1 -8.85 4.87 89.57 89.57 0 0 1 -9.29 3.38c-12.74 3.86-26.37 3.85-39.24 1.68s-25.37-6.49-37.64-10.31c-3.07-.94-6.14-1.83-9.21-2.46s-6.2-1-8.72-.3a5.08 5.08 0 0 0 -2.82 2.06 6.65 6.65 0 0 0 -.84 3.67 11.87 11.87 0 0 0 .93 4.06 7.35 7.35 0 0 0 1 1.78 8.24 8.24 0 0 0 1.37 1.59 21.15 21.15 0 0 0 7.8 4.37 55.55 55.55 0 0 0 9.16 2.17 125.44 125.44 0 0 0 19.12 1.28 342 342 0 0 0 38.59-2.5c12.83-1.49 25.64-3.32 38.39-5.58l.06.35c-12.66 2.71-25.39 5.16-38.22 7a318.13 318.13 0 0 1 -38.8 3.48 126.22 126.22 0 0 1 -19.59-1 57.32 57.32 0 0 1 -9.71-2.14 24.15 24.15 0 0 1 -9.07-5 10.85 10.85 0 0 1 -1.82-2 10.21 10.21 0 0 1 -1.42-2.37 14.33 14.33 0 0 1 -1.28-5.34 10 10 0 0 1 1.34-5.65 8.71 8.71 0 0 1 4.78-3.6c3.78-1 7.23-.43 10.49.17s6.4 1.51 9.53 2.51c12.45 3.84 24.59 8 37.19 10.14s25.51 2.33 37.68-1.24a83.74 83.74 0 0 0 9-3.17 40.06 40.06 0 0 0 8.19-4.34 4.73 4.73 0 0 0 1.2-1.21c.05-.16 0 .1.09.26s0-.06-.28-.17a14.09 14.09 0 0 0 -4.19-.89c-3.11-.31-6.33-.34-9.55-.35-12.91.13-25.88.17-38.83.09s-25.9-.31-38.85-1c-3.24-.22-6.48-.45-9.71-.83a52.44 52.44 0 0 1 -9.62-1.88c-.79-.23-1.55-.62-2.32-.92a11.57 11.57 0 0 1 -2.13-1.41 8.6 8.6 0 0 1 -2.7-4.33 11.22 11.22 0 0 1 2.09-9.67 9.08 9.08 0 0 1 1.88-1.78 6.68 6.68 0 0 1 1.14-.64 5.48 5.48 0 0 1 1.17-.45 12.2 12.2 0 0 1 5.1-.21 50.32 50.32 0 0 1 9.43 2.8c6.08 2.29 12.07 4.67 18.23 6.53a136.51 136.51 0 0 0 37.91 5.84 110.55 110.55 0 0 0 19.09-1.08 53.21 53.21 0 0 0 9.14-2.2c2.84-1.05 5.78-2.41 7.27-4.56s1.08-5.15-.38-7.53a9.72 9.72 0 0 0 -6.74-4.65 23.82 23.82 0 0 0 -9.06.6c-3.08.67-6.16 1.62-9.25 2.54a186.83 186.83 0 0 1 -18.86 5 95.18 95.18 0 0 1 -19.49 2 90.15 90.15 0 0 1 -37.74-8.91z" fill="#5b3114"/><path d="m32.73 30.13a92.62 92.62 0 0 0 37.65 8 94.59 94.59 0 0 0 19.2-2.21c6.32-1.35 12.5-3.28 18.67-5.22 3.09-1 6.19-1.92 9.36-2.64a25.21 25.21 0 0 1 9.75-.68 11.57 11.57 0 0 1 8 5.44 10.82 10.82 0 0 1 1.64 4.69 7.59 7.59 0 0 1 -1.2 4.86c-2 2.82-5.2 4.21-8.22 5.34a55.65 55.65 0 0 1 -9.58 2.23 112.63 112.63 0 0 1 -19.42 1 137.12 137.12 0 0 1 -38.24-6.45c-6.14-1.99-12.13-4.49-18.14-6.86a47.88 47.88 0 0 0 -9.2-2.83 11.24 11.24 0 0 0 -4.73.19 4.52 4.52 0 0 0 -1.1.44 5.22 5.22 0 0 0 -1 .56 8.58 8.58 0 0 0 -1.73 1.62 10.49 10.49 0 0 0 -2 9 7.87 7.87 0 0 0 2.45 4 9.83 9.83 0 0 0 2 1.32c.75.28 1.47.66 2.24.87a51.72 51.72 0 0 0 9.5 1.8c3.21.35 6.43.57 9.66.77 12.84.63 25.79.63 38.71.54s25.87-.38 38.82-.62c3.24 0 6.48 0 9.74.26a15.43 15.43 0 0 1 4.85 1 2.49 2.49 0 0 1 1.09.9 1.63 1.63 0 0 1 0 1.52 6 6 0 0 1 -1.73 1.91 39.87 39.87 0 0 1 -8.6 4.67 88 88 0 0 1 -9.18 3.3c-12.51 3.74-25.88 3.68-38.63 1.48s-25.14-6.33-37.47-10.21c-3.09-.93-6.19-1.83-9.34-2.47s-6.4-1.09-9.39-.24a6.38 6.38 0 0 0 -3.56 2.64 7.89 7.89 0 0 0 -1 4.41 12.71 12.71 0 0 0 1.04 4.54 8.42 8.42 0 0 0 1.18 2 9.17 9.17 0 0 0 1.53 1.76 22.39 22.39 0 0 0 8.25 4.62 57.63 57.63 0 0 0 9.4 2.18 125.69 125.69 0 0 0 19.3 1.19 329.31 329.31 0 0 0 38.7-2.86c12.84-1.62 25.61-3.72 38.32-6.17v.09c-12.7 2.53-25.46 4.71-38.3 6.41a329.65 329.65 0 0 1 -38.71 3.11 124.9 124.9 0 0 1 -19.41-1.08 56.9 56.9 0 0 1 -9.52-2.13 23.37 23.37 0 0 1 -8.58-4.74 10.25 10.25 0 0 1 -1.65-1.88 9.33 9.33 0 0 1 -1.28-2.15 13.3 13.3 0 0 1 -1.17-4.85 8.69 8.69 0 0 1 1.16-4.91 7.25 7.25 0 0 1 4-3c3.3-.93 6.65-.39 9.83.22s6.31 1.56 9.41 2.5c12.36 3.85 24.61 8.13 37.37 10.24s25.89 2.25 38.27-1.43a89.45 89.45 0 0 0 9.09-3.26 41.16 41.16 0 0 0 8.43-4.54 5.46 5.46 0 0 0 1.52-1.64.87.87 0 0 0 .05-.81 1.8 1.8 0 0 0 -.77-.61 15.33 15.33 0 0 0 -4.59-1c-3.2-.3-6.44-.31-9.67-.3-12.93.17-25.88.4-38.82.42s-25.89 0-38.83-.68c-3.23-.21-6.46-.43-9.68-.8a52.54 52.54 0 0 1 -9.47-1.83c-.79-.22-1.52-.61-2.28-.9a9.93 9.93 0 0 1 -2-1.36 8.15 8.15 0 0 1 -2.56-4.12 10.82 10.82 0 0 1 2-9.29 8.75 8.75 0 0 1 1.8-1.69 5.42 5.42 0 0 1 1.08-.6 4.77 4.77 0 0 1 1.15-.46 11.65 11.65 0 0 1 4.81-.22 47.71 47.71 0 0 1 9.32 2.81c6 2.35 12 4.81 18.18 6.74a136.14 136.14 0 0 0 38.11 6.27 111 111 0 0 0 19.29-1 54.27 54.27 0 0 0 9.39-2.25c3-1.1 6-2.47 7.85-5s1.24-6.16-.38-8.78a10.84 10.84 0 0 0 -7.52-5.22 24.82 24.82 0 0 0 -9.49.64c-3.14.69-6.23 1.65-9.32 2.59-6.18 1.91-12.38 3.83-18.74 5.15a94.26 94.26 0 0 1 -19.31 2.14 91.56 91.56 0 0 1 -37.68-8.31z" fill="#fff" opacity=".25"/><path d="m26.61 81.23a101 101 0 0 0 18.47 5.65 91.09 91.09 0 0 0 19.12 1.74 93.66 93.66 0 0 0 19-2.38c6.26-1.4 12.37-3.4 18.55-5.34 3.09-1 6.2-2 9.43-2.7a26.54 26.54 0 0 1 10.18-.72 12.74 12.74 0 0 1 8.8 6 12 12 0 0 1 1.76 5.22 8.69 8.69 0 0 1 -1.39 5.6 12.42 12.42 0 0 1 -4.09 3.66 25.92 25.92 0 0 1 -4.69 2.14 55.52 55.52 0 0 1 -9.73 2.26 113.24 113.24 0 0 1 -19.63 1 136.42 136.42 0 0 1 -38.39-6.98c-6.19-2-12.17-4.61-18.14-7a46.16 46.16 0 0 0 -9.11-2.85 10.93 10.93 0 0 0 -4.53.16 4.34 4.34 0 0 0 -1 .41 4.57 4.57 0 0 0 -1 .53 7.67 7.67 0 0 0 -1.65 1.52 10 10 0 0 0 -1.95 8.62 7.49 7.49 0 0 0 2.31 3.81 9.5 9.5 0 0 0 1.9 1.26c.74.27 1.43.63 2.19.84a50.35 50.35 0 0 0 9.42 1.76c3.2.35 6.42.56 9.64.75 12.9.64 25.85.43 38.78.27s25.85-.67 38.82-1c3.25 0 6.51-.07 9.85.21a16.22 16.22 0 0 1 5.25 1.11 3.59 3.59 0 0 1 1.58 1.36 2.7 2.7 0 0 1 .34 1.41 3.12 3.12 0 0 1 -.31 1.17 6.93 6.93 0 0 1 -2 2.33 41 41 0 0 1 -8.85 4.87 86 86 0 0 1 -9.29 3.38c-12.79 3.87-26.39 3.86-39.25 1.7s-25.36-6.49-37.63-10.31c-3.07-.93-6.15-1.82-9.21-2.46s-6.2-1-8.72-.29a5.06 5.06 0 0 0 -2.88 2.06 6.51 6.51 0 0 0 -.83 3.66 11.59 11.59 0 0 0 .93 4.06 6.93 6.93 0 0 0 1 1.79 8.13 8.13 0 0 0 1.36 1.58 21.19 21.19 0 0 0 7.76 4.38 55.65 55.65 0 0 0 9.22 2.14 124.1 124.1 0 0 0 19.12 1.28 339.45 339.45 0 0 0 38.58-2.49c12.84-1.5 25.65-3.33 38.39-5.58l.07.34c-12.66 2.72-25.39 5.17-38.23 7a318.15 318.15 0 0 1 -38.79 3.48 127.59 127.59 0 0 1 -19.6-1 58.52 58.52 0 0 1 -9.74-2.14 24.5 24.5 0 0 1 -9.07-5 11.67 11.67 0 0 1 -1.82-2.06 10.35 10.35 0 0 1 -1.42-2.37 14.68 14.68 0 0 1 -1.28-5.33 10.17 10.17 0 0 1 1.34-5.65 8.6 8.6 0 0 1 4.79-3.6c3.77-1 7.22-.44 10.49.17s6.43 1.57 9.55 2.51c12.42 3.87 24.6 8 37.2 10.16s25.51 2.33 37.68-1.23a86 86 0 0 0 9-3.17 40.21 40.21 0 0 0 8.18-4.34 4.82 4.82 0 0 0 1.21-1.22c0-.16 0 .1.09.26s0-.06-.28-.16a14.47 14.47 0 0 0 -4.19-.9c-3.12-.31-6.34-.34-9.55-.35-12.91.13-25.89.18-38.83.09s-25.89-.31-38.89-.93c-3.23-.21-6.47-.45-9.7-.82a51.48 51.48 0 0 1 -9.62-1.89 23 23 0 0 1 -2.33-.92 11.4 11.4 0 0 1 -2.13-1.41 8.56 8.56 0 0 1 -2.7-4.34 11.23 11.23 0 0 1 2.08-9.68 9.36 9.36 0 0 1 1.89-1.77 5.3 5.3 0 0 1 1.14-.64 4.88 4.88 0 0 1 1.21-.49 11.87 11.87 0 0 1 5.09-.25 49.81 49.81 0 0 1 9.43 2.83c6.07 2.29 12.07 4.67 18.22 6.53a136.92 136.92 0 0 0 37.91 5.83 110.43 110.43 0 0 0 19.09-1.08 52.61 52.61 0 0 0 9.15-2.19c2.83-1.06 5.78-2.41 7.27-4.56s1.08-5.15-.38-7.54a9.74 9.74 0 0 0 -6.75-4.65 23.76 23.76 0 0 0 -9.05.6c-3.09.67-6.17 1.62-9.26 2.55a189.33 189.33 0 0 1 -18.85 5 95.28 95.28 0 0 1 -19.5 2 90 90 0 0 1 -37.74-8.92z" fill="#5b3114"/><path d="m26.56 81.35a92.29 92.29 0 0 0 37.65 8 94 94 0 0 0 19.2-2.2c6.32-1.35 12.49-3.28 18.67-5.22 3.09-1 6.18-1.93 9.36-2.65a25.59 25.59 0 0 1 9.75-.68 11.57 11.57 0 0 1 8 5.45 10.93 10.93 0 0 1 1.58 4.72 7.5 7.5 0 0 1 -1.2 4.86c-2 2.82-5.19 4.21-8.21 5.33a54 54 0 0 1 -9.51 2.23 111.8 111.8 0 0 1 -19.43 1 136.52 136.52 0 0 1 -38.22-6.5c-6.2-1.97-12.2-4.46-18.2-6.83a47.19 47.19 0 0 0 -9.2-2.86 11.24 11.24 0 0 0 -4.73.18 4.3 4.3 0 0 0 -1.09.44 5 5 0 0 0 -1 .57 8.56 8.56 0 0 0 -1.74 1.61 10.51 10.51 0 0 0 -2 9 8 8 0 0 0 2.45 4 9.93 9.93 0 0 0 2 1.31c.75.29 1.46.66 2.24.88a51.44 51.44 0 0 0 9.49 1.79c3.21.36 6.44.58 9.67.77 12.92.63 25.86.63 38.8.55s25.88-.38 38.82-.62c3.24 0 6.49 0 9.74.25a15.85 15.85 0 0 1 4.86 1 2.42 2.42 0 0 1 1.08.9 1.61 1.61 0 0 1 0 1.51 6.07 6.07 0 0 1 -1.73 1.92 40.3 40.3 0 0 1 -8.6 4.67 87 87 0 0 1 -9.17 3.29c-12.52 3.74-25.88 3.68-38.64 1.48s-25.14-6.4-37.47-10.23c-3.09-.94-6.2-1.83-9.34-2.47s-6.4-1.1-9.39-.25a6.4 6.4 0 0 0 -3.56 2.65 7.87 7.87 0 0 0 -1 4.41 13 13 0 0 0 1.06 4.54 8.52 8.52 0 0 0 1.19 2 9.48 9.48 0 0 0 1.44 1.85 22.43 22.43 0 0 0 8.25 4.61 55.51 55.51 0 0 0 9.38 2.17 125.75 125.75 0 0 0 19.31 1.22 329.64 329.64 0 0 0 38.67-2.87c12.83-1.62 25.61-3.72 38.32-6.16v.03c-12.69 2.53-25.46 4.71-38.29 6.41a327.69 327.69 0 0 1 -38.71 3.12 126 126 0 0 1 -19.41-1.08 57.82 57.82 0 0 1 -9.53-2.14 23 23 0 0 1 -8.57-4.74 10.15 10.15 0 0 1 -1.6-1.84 8.73 8.73 0 0 1 -1.28-2.16 13.27 13.27 0 0 1 -1.16-4.85 8.83 8.83 0 0 1 1.16-4.9 7.3 7.3 0 0 1 4.05-3c3.3-.92 6.64-.39 9.82.23s6.32 1.56 9.42 2.5c12.36 3.85 24.61 8.13 37.36 10.23s25.9 2.26 38.27-1.43a87.69 87.69 0 0 0 9.09-3.25 40.72 40.72 0 0 0 8.43-4.55 5.46 5.46 0 0 0 1.53-1.63.87.87 0 0 0 0-.81 1.68 1.68 0 0 0 -.77-.61 15 15 0 0 0 -4.59-1c-3.19-.29-6.43-.31-9.66-.3-12.93.18-25.88.41-38.82.43s-25.9 0-38.83-.68c-3.23-.21-6.46-.44-9.68-.81a51.8 51.8 0 0 1 -9.55-1.84 24.33 24.33 0 0 1 -2.27-.9 10.68 10.68 0 0 1 -2.05-1.4 8.2 8.2 0 0 1 -2.55-4.13 10.76 10.76 0 0 1 2-9.29 8.92 8.92 0 0 1 1.79-1.68 5 5 0 0 1 1.09-.6 4.73 4.73 0 0 1 1.2-.43 11.69 11.69 0 0 1 4.89-.22 48.33 48.33 0 0 1 9.31 2.82c6 2.35 12 4.8 18.19 6.74a136.49 136.49 0 0 0 38.1 6.27 111.14 111.14 0 0 0 19.3-1.06 53.36 53.36 0 0 0 9.36-2.23c2.94-1.1 6-2.46 7.84-5s1.25-6.15-.37-8.78a10.88 10.88 0 0 0 -7.52-5.15 24.79 24.79 0 0 0 -9.49.64c-3.14.7-6.23 1.66-9.33 2.6-6.17 1.91-12.38 3.82-18.73 5.15a95 95 0 0 1 -19.31 2.14 91.49 91.49 0 0 1 -37.69-8.34z" fill="#fff" opacity=".25"/></g><path d="m79.74 32.3c0 1.66-.95 3-2.11 3s-2.11-1.34-2.11-3 2.11-3 2.11-3 2.11 1.34 2.11 3z" fill="#78401b"/><path d="m79.23 31.57c0 1.25-.72 2.27-1.6 2.27s-1.6-1-1.6-2.27 1.6-2.27 1.6-2.27 1.6 1.02 1.6 2.27z" fill="#d9a273" opacity=".32"/><path d="m78.8 31.1c0 .92-.52 1.66-1.17 1.66s-1.17-.76-1.17-1.66 1.17-1.67 1.17-1.67 1.17.75 1.17 1.67z" fill="#d9a273" opacity=".32"/><path d="m81.18 94.08c0 1.84-1 3.33-2.33 3.33s-2.34-1.49-2.34-3.33 2.34-3.32 2.34-3.32 2.33 1.49 2.33 3.32z" fill="#78401b"/><path d="m80.62 93.27c0 1.39-.8 2.52-1.77 2.52s-1.77-1.13-1.77-2.52 1.77-2.51 1.77-2.51 1.77 1.12 1.77 2.51z" fill="#d9a273" opacity=".32"/><path d="m80.14 92.75c0 1-.58 1.84-1.29 1.84s-1.3-.82-1.3-1.84 1.3-1.85 1.3-1.85 1.29.83 1.29 1.85z" fill="#d9a273" opacity=".32"/><path d="m114.89 114.05c0 2.19-1.25 4-2.79 4s-2.78-1.77-2.78-4 2.78-4 2.78-4 2.79 1.81 2.79 4z" fill="#78401b"/><path d="m114.21 113.08c0 1.66-.94 3-2.11 3s-2.1-1.34-2.1-3 2.1-3 2.1-3 2.11 1.35 2.11 3z" fill="#d9a273" opacity=".32"/><path d="m113.65 112.46c0 1.21-.69 2.2-1.55 2.2s-1.54-1-1.54-2.2 1.54-2.2 1.54-2.2 1.55.98 1.55 2.2z" fill="#d9a273" opacity=".32"/><path d="m93.48 92.16c-1.1-1.47-1.16-3.29-.12-4.07s2.76-.2 3.86 1.27.12 4.06.12 4.06-2.77.21-3.86-1.26z" fill="#78401b"/><path d="m94.42 92.46c-.84-1.11-.88-2.48-.09-3.07s2.09-.16 2.92 1 .09 3.07.09 3.07-2.09.12-2.92-1z" fill="#d9a273" opacity=".32"/><path d="m95.11 92.6c-.61-.82-.64-1.83-.07-2.25s1.53-.12 2.14.7.07 2.25.07 2.25-1.53.12-2.14-.7z" fill="#d9a273" opacity=".32"/><path d="m74.92 61.43c-.67 1.9-2.29 3.05-3.63 2.58s-1.86-2.39-1.19-4.29 3.63-2.57 3.63-2.57 1.86 2.39 1.19 4.28z" fill="#78401b"/><path d="m74.63 60.39c-.51 1.43-1.74 2.31-2.74 2s-1.42-1.81-.91-3.25 2.75-1.94 2.75-1.94 1.41 1.8.9 3.19z" fill="#d9a273" opacity=".32"/><path d="m74.34 59.68c-.38 1-1.28 1.69-2 1.43s-1-1.33-.66-2.38 2-1.43 2-1.43 1.03 1.33.66 2.38z" fill="#d9a273" opacity=".32"/><path d="m87.2 44.52c-.7 2-2.4 3.19-3.8 2.7s-2-2.5-1.25-4.49 3.85-2.73 3.85-2.73 1.91 2.54 1.2 4.52z" fill="#78401b"/><path d="m86.9 43.43c-.53 1.5-1.82 2.41-2.88 2s-1.48-1.89-.94-3.4 2.92-2.03 2.92-2.03 1.43 1.93.9 3.43z" fill="#d9a273" opacity=".32"/><path d="m86.59 42.68c-.39 1.11-1.33 1.78-2.11 1.5s-1.08-1.39-.69-2.49 2.11-1.5 2.11-1.5 1.1 1.39.69 2.49z" fill="#d9a273" opacity=".32"/><path d="m88 64c.67 1.87 2.27 3 3.59 2.55s1.85-2.37 1.18-4.24-3.58-2.55-3.58-2.55-1.9 2.32-1.19 4.24z" fill="#78401b"/><path d="m88.24 62.92c.5 1.42 1.72 2.28 2.72 1.93s1.39-1.79.89-3.21-2.71-1.93-2.71-1.93-1.4 1.79-.9 3.21z" fill="#d9a273" opacity=".32"/><path d="m88.53 62.22c.37 1 1.26 1.67 2 1.41s1-1.31.66-2.35-2-1.42-2-1.42-1.02 1.32-.66 2.36z" fill="#d9a273" opacity=".32"/><path d="m43 118.38c-.59 1.62-2 2.62-3.1 2.19s-1.58-2-1-3.64 3.1-2.18 3.1-2.18 1.55 2.03 1 3.63z" fill="#78401b"/><path d="m42.73 117.5c-.43 1.21-1.47 2-2.32 1.65s-1.2-1.53-.77-2.75 2.36-1.65 2.36-1.65 1.17 1.53.73 2.75z" fill="#d9a273" opacity=".32"/><path d="m42.48 116.89c-.31.9-1.08 1.44-1.7 1.22s-.88-1.13-.57-2 1.71-1.21 1.71-1.21.88 1.1.56 1.99z" fill="#d9a273" opacity=".32"/><path d="m55.58 104.47c-2.14.48-4.14-.35-4.48-1.86s1.13-3.1 3.26-3.58 4.48 1.86 4.48 1.86-1.13 3.11-3.26 3.58z" fill="#78401b"/><path d="m56.37 103.6c-1.62.36-3.13-.27-3.38-1.41s.85-2.35 2.46-2.71 3.39 1.41 3.39 1.41-.84 2.35-2.47 2.71z" fill="#d9a273" opacity=".32"/><path d="m56.86 102.91c-1.19.27-2.3-.19-2.49-1s.63-1.72 1.81-2 2.49 1 2.49 1-.67 1.74-1.81 2z" fill="#d9a273" opacity=".32"/><path d="m63.6 71.27c1.49.94 2.17 2.54 1.51 3.59s-2.4 1.14-3.89.2-1.51-3.59-1.51-3.59 2.4-1.14 3.89-.2z" fill="#78401b"/><path d="m62.66 71.32c1.12.71 1.63 1.92 1.13 2.72s-1.81.85-2.94.15-1.14-2.72-1.14-2.72 1.82-.86 2.95-.15z" fill="#d9a273" opacity=".32"/><path d="m62 71.43c.83.52 1.2 1.42.84 2a1.58 1.58 0 0 1 -2.16.11c-.83-.52-.84-2-.84-2s1.33-.63 2.16-.11z" fill="#d9a273" opacity=".32"/><path d="m81.47 110.55c1.85 1.16 2.69 3.16 1.87 4.47s-3 1.41-4.84.24-1.87-4.47-1.87-4.47 2.99-1.41 4.84-.24z" fill="#78401b"/><g fill="#d9a273"><path d="m80.29 110.61c1.4.88 2 2.39 1.42 3.38s-2.26 1.07-3.66.18-1.42-3.38-1.42-3.38 2.26-1.06 3.66-.18z" opacity=".32"/><path d="m79.47 110.75c1 .65 1.49 1.76 1 2.48s-1.66.78-2.69.14-1-2.48-1-2.48 1.66-.79 2.69-.14z" opacity=".32"/></g></svg>