<svg viewBox="0 0 156 156" xmlns="http://www.w3.org/2000/svg" xmlns:xlink="http://www.w3.org/1999/xlink"><clipPath id="a"><path d="m110.71 63.17-29.32-39.17-.84-1.18a3 3 0 0 0 -5.1 0l-.85 1.18-29.31 39.17a5.8 5.8 0 0 0 -1.07 3.27v7.91a6 6 0 0 0 1 3.47l30.23 42.18a3 3 0 0 0 5.1 0l30.21-42.23a6 6 0 0 0 1-3.49v-5.79a6.84 6.84 0 0 0 -.07-.91 6.06 6.06 0 0 0 -.98-4.41z"/></clipPath><path d="m81.75 6.58c-2.06-2.88-5.44-2.88-7.5 0l-45.94 64.12v11.62a8.84 8.84 0 0 0 1.53 5.11l44.4 62c2.07 2.89 5.45 2.89 7.51 0l44.41-62.09a8.91 8.91 0 0 0 1.53-5.13v-8.53a8.87 8.87 0 0 0 -1.53-5.11z" fill="#4a4d40"/><path d="m81.78 6.64 42.66 59a10.28 10.28 0 0 1 1.81 4.72l1 7.77a8.84 8.84 0 0 1 -.75 5.17 31.18 31.18 0 0 1 -2.63 4.38l-42.13 58.2c-2.08 2.88-5.48 2.88-7.56 0l-42.08-58.14a31.7 31.7 0 0 1 -2.65-4.38 8.88 8.88 0 0 1 -.74-5.16l1.45-10.64 43.22-59.75c.09-.12 1-1.37 1.12-1.46 2.36-2.35 5.28-2.47 7.28.29z" fill="#67645d"/><path d="m81.81 6.69 40.91 56c.49.69 2.09 3.37 2.09 4.33l2.08 7a11.37 11.37 0 0 1 0 5.22 21 21 0 0 1 -2.3 4.59l-42.78 58.48c-2.1 2.87-5.52 2.87-7.62 0l-42.82-58.43a20.33 20.33 0 0 1 -2.3-4.59 11.28 11.28 0 0 1 0-5.2l2.93-9.68 41.64-56.94c.17-.23.93-1.18 1.12-1.35 2.24-2.07 5.12-2.06 7.05.57z" fill="#9b978c"/><path d="m81.83 6.75 39.17 53c.24.34 2.37 3.45 2.37 3.93l3.12 6.3a9.8 9.8 0 0 1 .82 5.26 12.17 12.17 0 0 1 -2 4.79l-43.48 58.73c-2.11 2.86-5.55 2.86-7.66 0l-43.53-58.76a12.21 12.21 0 0 1 -1.95-4.8 9.67 9.67 0 0 1 .82-5.2l4.35-8.71 40-54.12a10.67 10.67 0 0 1 1.14-1.29 4.43 4.43 0 0 1 6.83.87z" fill="#aeac9f"/><path d="m126.09 76.16-44.23 59.05a4.55 4.55 0 0 1 -7.72 0l-44.23-59.05a9.12 9.12 0 0 1 0-10.31l44.23-59a4.56 4.56 0 0 1 7.72 0l44.23 59.05a9.12 9.12 0 0 1 0 10.26z" fill="#c4c1b2"/><path d="m123.07 75.84-41.45 55.34a4.27 4.27 0 0 1 -7.24 0l-41.45-55.34a8.53 8.53 0 0 1 0-9.66l41.45-55.35a4.27 4.27 0 0 1 7.24 0l41.45 55.35a8.53 8.53 0 0 1 0 9.66z" fill="#d6d9ca"/><path d="m120.06 75.51-38.68 51.64a4 4 0 0 1 -6.75 0l-38.69-51.64a8 8 0 0 1 0-9l38.69-51.65a4 4 0 0 1 6.75 0l38.68 51.64a8 8 0 0 1 0 9.01z" fill="#e0ded0"/><path d="m117 75.19-35.87 47.94a3.69 3.69 0 0 1 -6.26 0l-35.87-47.94a7.4 7.4 0 0 1 0-8.37l35.87-47.93a3.69 3.69 0 0 1 6.26 0l35.87 47.93a7.4 7.4 0 0 1 0 8.37z" fill="#f7f5e6"/><path d="m114 74.87-33.11 44.23a3.41 3.41 0 0 1 -5.78 0l-33.11-44.23a6.81 6.81 0 0 1 0-7.72l33.11-44.24a3.41 3.41 0 0 1 5.78 0l33.11 44.24a6.81 6.81 0 0 1 0 7.72z" fill="#e3e1d3"/><g clip-path="url(#a)"><path d="m16.94 123.59a1 1 0 0 1 -1-1v-106.59a1 1 0 0 1 2.06 0v106.55a1 1 0 0 1 -1.06 1.04z" fill="#5b3114"/><path d="m16.68 16.04h.52v106.51h-.52z" fill="#fff" opacity=".25"/><path d="m28.72 123.59a1 1 0 0 1 -1-1v-106.59a1 1 0 0 1 2.09 0v106.55a1 1 0 0 1 -1.09 1.04z" fill="#5b3114"/><path d="m28.46 16.04h.52v106.51h-.52z" fill="#fff" opacity=".25"/><path d="m52.28 123.59a1 1 0 0 1 -1.05-1v-106.59a1 1 0 0 1 2.09 0v106.55a1 1 0 0 1 -1.04 1.04z" fill="#5b3114"/><path d="m52.02 16.04h.52v106.51h-.52z" fill="#fff" opacity=".25"/><path d="m87.62 123.59a1 1 0 0 1 -1.05-1v-106.59a1 1 0 0 1 2.09 0v106.55a1 1 0 0 1 -1.04 1.04z" fill="#5b3114"/><path d="m87.36 16.04h.52v106.51h-.52z" fill="#fff" opacity=".25"/><path d="m99.4 123.59a1 1 0 0 1 -1.05-1v-106.59a1 1 0 0 1 2.09 0v106.55a1 1 0 0 1 -1.04 1.04z" fill="#5b3114"/><path d="m99.14 16.04h.52v106.51h-.52z" fill="#fff" opacity=".25"/><path d="m64.06 123.59a1 1 0 0 1 -1.05-1v-106.59a1 1 0 0 1 2.09 0v106.55a1 1 0 0 1 -1.04 1.04z" fill="#5b3114"/><path d="m63.8 16.04h.52v106.51h-.52z" fill="#fff" opacity=".25"/><path d="m111.18 123.59a1 1 0 0 1 -1.05-1v-106.59a1 1 0 0 1 2.09 0v106.55a1 1 0 0 1 -1.04 1.04z" fill="#5b3114"/><path d="m110.92 16.04h.52v106.51h-.52z" fill="#fff" opacity=".25"/><path d="m40.5 123.59a1 1 0 0 1 -1-1v-106.59a1.05 1.05 0 0 1 2.1 0v106.55a1 1 0 0 1 -1.1 1.04z" fill="#5b3114"/><path d="m40.24 16.04h.52v106.51h-.52z" fill="#fff" opacity=".25"/><path d="m75.84 123.59a1 1 0 0 1 -1-1v-106.59a1 1 0 0 1 2.09 0v106.55a1 1 0 0 1 -1.09 1.04z" fill="#5b3114"/><path d="m75.58 16.04h.52v106.51h-.52z" fill="#fff" opacity=".25"/><path d="m134.74 123.59a1 1 0 0 1 -1.05-1v-106.59a1 1 0 0 1 2.09 0v106.55a1 1 0 0 1 -1.04 1.04z" fill="#5b3114"/><path d="m134.47 16.04h.52v106.51h-.52z" fill="#fff" opacity=".25"/><path d="m123 123.59a1 1 0 0 1 -1-1v-106.59a1 1 0 0 1 2 0v106.55a1 1 0 0 1 -1 1.04z" fill="#5b3114"/><path d="m122.69 16.04h.52v106.51h-.52z" fill="#fff" opacity=".25"/><path d="m146.51 123.59a1 1 0 0 1 -1-1v-106.59a1 1 0 0 1 2.09 0v106.55a1 1 0 0 1 -1.09 1.04z" fill="#5b3114"/><path d="m146.25 16.04h.52v106.51h-.52z" fill="#fff" opacity=".25"/></g></svg>