<svg viewBox="0 0 156 156" xmlns="http://www.w3.org/2000/svg" xmlns:xlink="http://www.w3.org/1999/xlink"><clipPath id="a"><path d="m147.12 63.39a7.4 7.4 0 0 0 -.74-2.72 7 7 0 0 0 -.75-2.73 6.7 6.7 0 0 0 -.74-2.72 6.74 6.74 0 0 0 -7-6.31h-35.56a7 7 0 0 1 -6.67-4.5l-10.99-31.41c-2.1-6-11.24-6-13.34 0l-11 31.37a7 7 0 0 1 -6.67 4.5h-35.54a6.74 6.74 0 0 0 -7 6.31 6.7 6.7 0 0 0 -.74 2.72 7 7 0 0 0 -.75 2.73 7.4 7.4 0 0 0 -.74 2.72 7.23 7.23 0 0 0 2.25 9.22l30.04 21.88a6.84 6.84 0 0 1 1.23 1.17l-8.09 23.1a6 6 0 0 0 -.11 3.71l-.38 1.1a6.28 6.28 0 0 0 -.13 3.75l-.36 1.06a6.64 6.64 0 0 0 -.16 3.83l-.33 1a6.93 6.93 0 0 0 -.18 3.86l-.31.95a7.33 7.33 0 0 0 11.28 8.19l30.05-21.83a7.32 7.32 0 0 1 8.62 0l30.05 21.83a7.33 7.33 0 0 0 11.28-8.17l-.31-.95a6.93 6.93 0 0 0 -.18-3.86l-.33-1a6.64 6.64 0 0 0 -.16-3.83l-.36-1.06a6.28 6.28 0 0 0 -.13-3.75l-.38-1.1a6 6 0 0 0 -.11-3.71l-8.09-23.1a6.84 6.84 0 0 1 1.23-1.17l30.05-21.84a7.23 7.23 0 0 0 2.25-9.24z"/></clipPath><path d="m85 18.82 11.45 35.33a7.32 7.32 0 0 0 7 5.06h37.15a7.33 7.33 0 0 1 4.3 13.26l-30.08 21.83a7.34 7.34 0 0 0 -2.66 8.2l11.48 35.33a7.33 7.33 0 0 1 -11.28 8.17l-30-21.83a7.32 7.32 0 0 0 -8.62 0l-30.1 21.83a7.33 7.33 0 0 1 -11.28-8.19l11.48-35.31a7.34 7.34 0 0 0 -2.66-8.2l-30-21.83a7.33 7.33 0 0 1 4.3-13.26h37.1a7.32 7.32 0 0 0 7-5.06l11.42-35.33a7.33 7.33 0 0 1 14 0z" fill="#732119"/><path d="m84.9 17.34 11.35 34.34a7.25 7.25 0 0 0 6.9 4.92h36.74a7.11 7.11 0 0 1 4.27 12.89l-29.73 21.22a7.05 7.05 0 0 0 -2.64 8l11.36 34.29c2.17 6.57-5.48 12-11.16 8l-29.73-21.24a7.33 7.33 0 0 0 -8.52 0l-29.74 21.24c-5.68 4.05-13.33-1.4-11.16-8l11.37-34.33a7.05 7.05 0 0 0 -2.64-8l-29.73-21.18a7.11 7.11 0 0 1 4.27-12.89h36.74a7.25 7.25 0 0 0 6.9-4.92l11.35-34.34a7.3 7.3 0 0 1 13.8 0z" fill="#91312b"/><path d="m84.82 15.86 11.23 33.35a7.16 7.16 0 0 0 6.82 4.79h36.35c6.95 0 9.84 8.58 4.22 12.52l-29.44 20.6a6.78 6.78 0 0 0 -2.6 7.73l11.23 33.35c2.14 6.38-5.42 11.68-11 7.74l-29.4-20.61a7.37 7.37 0 0 0 -8.44 0l-29.4 20.61c-5.62 3.94-13.18-1.36-11-7.74l11.18-33.35a6.78 6.78 0 0 0 -2.57-7.73l-29.44-20.61c-5.62-3.94-2.73-12.51 4.22-12.51h36.35a7.16 7.16 0 0 0 6.87-4.79l11.18-33.35c2.15-6.37 11.49-6.37 13.64 0z" fill="#b0423c"/><path d="m84.75 14.38 11.1 32.36a7.07 7.07 0 0 0 6.75 4.64h36c6.87 0 9.73 8.32 4.17 12.14l-29.09 20a6.52 6.52 0 0 0 -2.62 7.48l11.11 32.36c2.12 6.18-5.36 11.33-10.92 7.5l-29.08-20a7.46 7.46 0 0 0 -8.34 0l-29.08 20c-5.56 3.83-13-1.32-10.92-7.5l11.11-32.36a6.52 6.52 0 0 0 -2.57-7.51l-29.09-20c-5.56-3.82-2.7-12.14 4.17-12.14h36a7.07 7.07 0 0 0 6.75-4.64l11.1-32.36c2.08-6.15 11.32-6.15 13.45.03z" fill="#ce524e"/><path d="m84.67 12.9 11 31.37a7 7 0 0 0 6.67 4.5h35.55c6.79 0 9.62 8.07 4.12 11.77l-28.77 19.39a6.25 6.25 0 0 0 -2.55 7.28l11 31.37c2.1 6-5.3 11-10.8 7.27l-28.77-19.39a7.48 7.48 0 0 0 -8.24 0l-28.76 19.39c-5.5 3.71-12.9-1.28-10.8-7.27l11-31.37a6.25 6.25 0 0 0 -2.55-7.28l-28.77-19.39c-5.5-3.7-2.67-11.77 4.12-11.77h35.55a7 7 0 0 0 6.67-4.5l11-31.37c2.09-5.99 11.23-5.99 13.33 0z" fill="#ec625f"/><path d="m84.17 16.27 10.16 29.44a6.47 6.47 0 0 0 6.17 4.23h32.88c6.29 0 8.9 7.57 3.82 11.05l-26.6 18.19a5.91 5.91 0 0 0 -2.36 6.82l10.16 29.45c1.94 5.62-4.9 10.3-10 6.82l-26.59-18.18a6.79 6.79 0 0 0 -7.62 0l-26.61 18.19c-5.08 3.48-11.92-1.2-10-6.82l10.18-29.46a5.91 5.91 0 0 0 -2.36-6.83l-26.6-18.17c-5.08-3.48-2.47-11.05 3.82-11.05h32.88a6.47 6.47 0 0 0 6.17-4.23l10.16-29.45c1.94-5.63 10.4-5.63 12.34 0z" fill="#eb8179"/><path d="m83.67 19.64 9.33 27.52a5.94 5.94 0 0 0 5.67 3.94h30.21a5.68 5.68 0 0 1 3.51 10.33l-24.39 17.01a5.56 5.56 0 0 0 -2.16 6.38l9.33 27.52c1.79 5.25-4.5 9.63-9.17 6.38l-24.45-17a6.18 6.18 0 0 0 -7 0l-24.45 17c-4.67 3.25-11-1.13-9.17-6.38l9.33-27.52a5.56 5.56 0 0 0 -2.16-6.38l-24.45-17a5.68 5.68 0 0 1 3.46-10.34h30.21a5.94 5.94 0 0 0 5.68-3.94l9.34-27.52c1.77-5.26 9.55-5.26 11.33 0z" fill="#ea9f93"/><path d="m83.17 23 8.51 25.6a5.43 5.43 0 0 0 5.17 3.67h27.55a5.29 5.29 0 0 1 3.2 9.6l-22.29 15.82a5.24 5.24 0 0 0 -2 5.93l8.52 25.59c1.62 4.9-4.11 9-8.37 5.94l-22.27-15.82a5.53 5.53 0 0 0 -6.38 0l-22.29 15.82c-4.26 3-10-1-8.37-5.94l8.52-25.59a5.24 5.24 0 0 0 -2-5.93l-22.27-15.82a5.29 5.29 0 0 1 3.2-9.6h27.55a5.43 5.43 0 0 0 5.17-3.67l8.51-25.6a5.48 5.48 0 0 1 10.34 0z" fill="#e9beac"/><path d="m82.67 26.38 7.69 23.62a4.9 4.9 0 0 0 4.64 3.43h24.88a4.91 4.91 0 0 1 2.88 8.89l-20.1 14.62a4.91 4.91 0 0 0 -1.78 5.49l7.69 23.66a4.91 4.91 0 0 1 -7.55 5.49l-20.13-14.58a4.92 4.92 0 0 0 -5.78 0l-20.11 14.58a4.91 4.91 0 0 1 -7.55-5.49l7.69-23.66a4.91 4.91 0 0 0 -1.78-5.49l-20.15-14.62a4.91 4.91 0 0 1 2.88-8.89h24.91a4.9 4.9 0 0 0 4.64-3.43l7.69-23.66a4.91 4.91 0 0 1 9.34.04z" fill="#e8dcc6"/><path d="m82.52 27.73 7.48 22.89a4.75 4.75 0 0 0 4.52 3.28h24.07a4.75 4.75 0 0 1 2.79 8.59l-19.52 14.15a4.77 4.77 0 0 0 -1.73 5.36l7.44 22.89a4.75 4.75 0 0 1 -7.31 5.31l-19.47-14.2a4.74 4.74 0 0 0 -5.58 0l-19.47 14.15a4.75 4.75 0 0 1 -7.31-5.31l7.44-22.84a4.77 4.77 0 0 0 -1.73-5.31l-19.47-14.2a4.75 4.75 0 0 1 2.79-8.59h24.07a4.75 4.75 0 0 0 4.52-3.28l7.43-22.89a4.75 4.75 0 0 1 9.04 0z" fill="#eac0af"/><path d="m82.36 29.08 7.19 22.12a4.6 4.6 0 0 0 4.37 3.17h23.25a4.59 4.59 0 0 1 2.7 8.3l-18.81 13.67a4.58 4.58 0 0 0 -1.67 5.13l7.19 22.12a4.59 4.59 0 0 1 -7.07 5.13l-18.81-13.67a4.59 4.59 0 0 0 -5.4 0l-18.81 13.67a4.59 4.59 0 0 1 -7.07-5.13l7.19-22.12a4.58 4.58 0 0 0 -1.67-5.13l-18.81-13.67a4.59 4.59 0 0 1 2.7-8.3h23.25a4.6 4.6 0 0 0 4.37-3.17l7.19-22.12a4.58 4.58 0 0 1 8.72 0z" fill="#eca598"/><path d="m82.21 30.43 6.94 21.35a4.43 4.43 0 0 0 4.21 3.06h22.45a4.43 4.43 0 0 1 2.6 8l-18.16 13.16a4.44 4.44 0 0 0 -1.61 5l6.94 21.35a4.43 4.43 0 0 1 -6.82 5l-18.16-13.25a4.41 4.41 0 0 0 -5.2 0l-18.16 13.19a4.43 4.43 0 0 1 -6.82-5l6.94-21.29a4.44 4.44 0 0 0 -1.61-5l-18.16-13.15a4.43 4.43 0 0 1 2.6-8h22.45a4.43 4.43 0 0 0 4.21-3.06l6.94-21.35a4.43 4.43 0 0 1 8.42-.01z" fill="#ee8980"/><path d="m82.06 31.78 6.69 20.58a4.28 4.28 0 0 0 4 3h21.64a4.27 4.27 0 0 1 2.61 7.64l-17.55 12.74a4.28 4.28 0 0 0 -1.56 4.78l6.69 20.57a4.27 4.27 0 0 1 -6.58 4.77l-17.49-12.71a4.26 4.26 0 0 0 -5 0l-17.51 12.71a4.27 4.27 0 0 1 -6.57-4.77l6.69-20.57a4.28 4.28 0 0 0 -1.56-4.78l-17.51-12.74a4.27 4.27 0 0 1 2.51-7.72h21.64a4.28 4.28 0 0 0 4-3l6.69-20.58a4.27 4.27 0 0 1 8.17.08z" fill="#f06d69"/><path d="m85 77.47c0 2.14-1.21 3.87-2.71 3.87s-2.72-1.73-2.72-3.87 2.72-3.86 2.72-3.86 2.71 1.73 2.71 3.86z" fill="#78401b"/><g fill="#d9a273"><path d="m84.3 76.53c0 1.62-.92 2.93-2 2.93s-2.06-1.31-2.06-2.93 2.06-2.92 2.06-2.92 2 1.31 2 2.92z" opacity=".32"/><path d="m83.76 75.93c0 1.18-.68 2.14-1.51 2.14s-1.51-1-1.51-2.14 1.51-2.15 1.51-2.15 1.51.96 1.51 2.15z" opacity=".32"/><path d="m82.79 74.8c0 .5-.28.9-.63.9s-.62-.4-.62-.9.62-.89.62-.89.63.4.63.89z" opacity=".32"/></g><path d="m52.64 62.57c-1.7 1.28-3.82 1.36-4.72.16s-.26-3.21 1.44-4.5 4.72-.16 4.72-.16.26 3.21-1.44 4.5z" fill="#78401b"/><path d="m53 61.47c-1.29 1-2.89 1-3.57.13s-.2-2.43 1.09-3.41 3.57-.12 3.57-.12.19 2.43-1.09 3.4z" fill="#d9a273" opacity=".32"/><path d="m53.14 60.67a1.92 1.92 0 0 1 -2.62.09c-.5-.66-.14-1.78.81-2.5s2.61-.09 2.61-.09.15 1.83-.8 2.5z" fill="#d9a273" opacity=".32"/><path d="m53.46 59.22a.79.79 0 0 1 -1.09 0c-.21-.28-.06-.74.33-1s1.1 0 1.1 0 .06.7-.34 1z" fill="#d9a273" opacity=".32"/><path d="m79.1 34.3c-1.88-1-2.82-2.9-2.11-4.22s2.81-1.57 4.69-.56 2.11 4.23 2.11 4.23-2.79 1.57-4.69.55z" fill="#78401b"/><path d="m80.24 34.17c-1.42-.77-2.13-2.2-1.59-3.2s2.13-1.19 3.55-.42 1.59 3.2 1.59 3.2-2.13 1.18-3.55.42z" fill="#d9a273" opacity=".32"/><path d="m81 34c-1-.56-1.57-1.61-1.17-2.34s1.56-.87 2.6-.31 1.17 2.35 1.17 2.35-1.52.84-2.6.3z" fill="#d9a273" opacity=".32"/><path d="m82.48 33.66c-.43-.23-.65-.67-.48-1a.8.8 0 0 1 1.08-.13c.44.24.49 1 .49 1s-.65.37-1.09.13z" fill="#d9a273" opacity=".32"/><path d="m125.72 57.24c1.31-1.68 3.33-2.3 4.52-1.38s1.08 3-.23 4.72-4.52 1.42-4.52 1.42-1.08-3.08.23-4.76z" fill="#78401b"/><path d="m125.67 58.39c1-1.28 2.52-1.74 3.41-1s.82 2.3-.17 3.57-3.42 1.04-3.42 1.04-.81-2.34.18-3.61z" fill="#d9a273" opacity=".32"/><path d="m125.73 59.2a1.91 1.91 0 0 1 2.5-.76c.66.51.6 1.68-.13 2.62s-2.5.76-2.5.76-.6-1.68.13-2.62z" fill="#d9a273" opacity=".32"/><path d="m125.79 60.68c.31-.39.78-.53 1-.32a.82.82 0 0 1 0 1.1c-.31.39-1.05.32-1.05.32s-.25-.71.05-1.1z" fill="#d9a273" opacity=".32"/><path d="m47.23 111.93c1.68.75 2.61 2.32 2.09 3.5s-2.32 1.54-4 .79-2.09-3.51-2.09-3.51 2.31-1.53 4-.78z" fill="#78401b"/><path d="m46.25 112.12c1.27.57 2 1.76 1.58 2.65s-1.75 1.16-3 .59-1.58-2.65-1.58-2.65 1.75-1.16 3-.59z" fill="#d9a273" opacity=".32"/><path d="m45.58 112.34c.93.42 1.45 1.29 1.16 1.94s-1.29.85-2.22.44-1.16-2-1.16-2 1.29-.8 2.22-.38z" fill="#d9a273" opacity=".32"/><path d="m44.35 112.7c.39.18.61.54.49.81s-.54.36-.93.19-.48-.82-.48-.82.57-.35.92-.18z" fill="#d9a273" opacity=".32"/><path d="m86.76 53.39c1.43 1.58 1.69 3.68.58 4.68s-3.17.55-4.61-1-.58-4.68-.58-4.68 3.17-.58 4.61 1z" fill="#78401b"/><path d="m85.64 53.13c1.08 1.2 1.28 2.79.44 3.55s-2.4.41-3.49-.79-.44-3.54-.44-3.54 2.4-.41 3.49.78z" fill="#d9a273" opacity=".32"/><path d="m84.82 53.05c.8.88.94 2 .33 2.6s-1.77.3-2.56-.57-.32-2.61-.32-2.61 1.73-.3 2.55.58z" fill="#d9a273" opacity=".32"/><path d="m83.35 52.86c.34.37.4.86.14 1.09a.8.8 0 0 1 -1.07-.24c-.33-.37-.13-1.09-.13-1.09s.71-.12 1.06.24z" fill="#d9a273" opacity=".32"/><path d="m103.68 97.75c1.43 1.58 1.69 3.68.58 4.68s-3.18.54-4.61-1-.58-4.68-.58-4.68 3.17-.58 4.61 1z" fill="#78401b"/><path d="m102.55 97.49c1.09 1.2 1.29 2.79.44 3.55s-2.4.41-3.48-.79-.44-3.54-.44-3.54 2.4-.41 3.48.78z" fill="#d9a273" opacity=".32"/><path d="m101.74 97.41c.8.88.94 2 .32 2.6s-1.76.3-2.55-.57-.33-2.61-.33-2.61 1.82-.3 2.56.58z" fill="#d9a273" opacity=".32"/><path d="m100.27 97.22a.67.67 0 1 1 -.93.85 1.39 1.39 0 0 1 -.14-1.07s.74-.14 1.07.22z" fill="#d9a273" opacity=".32"/><path d="m63.83 89.67c1.43 1.58 1.69 3.68.58 4.69s-3.17.54-4.61-1-.58-4.69-.58-4.69 3.17-.58 4.61 1z" fill="#78401b"/><path d="m62.71 89.42c1.08 1.2 1.28 2.78.44 3.55s-2.4.41-3.49-.79-.44-3.55-.44-3.55 2.4-.41 3.49.79z" fill="#d9a273" opacity=".32"/><path d="m61.89 89.34c.8.88.94 2 .33 2.6s-1.77.3-2.56-.58-.32-2.6-.32-2.6 1.76-.3 2.55.58z" fill="#d9a273" opacity=".32"/><path d="m60.42 89.15c.34.37.4.85.14 1.09a.81.81 0 0 1 -1.07-.24c-.33-.37-.13-1.09-.13-1.09s.73-.13 1.06.24z" fill="#d9a273" opacity=".32"/><path d="m117.15 116.84c-1.05 1.54-2.77 2.19-3.85 1.45s-1.1-2.57-.06-4.11 3.85-1.44 3.85-1.44 1.1 2.57.06 4.1z" fill="#78401b"/><path d="m117.13 115.84c-.79 1.16-2.09 1.65-2.91 1.1s-.83-2 0-3.11 2.91-1.09 2.91-1.09.79 1.94 0 3.1z" fill="#d9a273" opacity=".32"/><path d="m117 115.14c-.58.85-1.54 1.21-2.14.8a1.66 1.66 0 0 1 0-2.28c.58-.85 2.13-.8 2.13-.8s.63 1.43.01 2.28z" fill="#d9a273" opacity=".32"/><path d="m116.9 113.86c-.24.35-.64.5-.89.33a.69.69 0 0 1 0-1c.24-.35.89-.33.89-.33s.24.64 0 1z" fill="#d9a273" opacity=".32"/><path d="m21.29 52.09c.86 1.64.62 3.47-.54 4.07s-2.75-.23-3.65-1.88.53-4.07.53-4.07 2.79.23 3.66 1.88z" fill="#78401b"/><path d="m20.4 51.63c.65 1.24.47 2.62-.41 3.08s-2.11-.17-2.76-1.42.4-3.08.4-3.08 2.11.18 2.77 1.42z" fill="#d9a273" opacity=".32"/><path d="m19.73 51.38c.48.92.35 1.93-.3 2.27s-1.55-.13-2-1 .29-2.26.29-2.26 1.53.08 2.01.99z" fill="#d9a273" opacity=".32"/><path d="m18.53 50.91c.2.38.15.8-.12.94s-.65-.05-.85-.44.13-.94.13-.94.64.05.84.44z" fill="#d9a273" opacity=".32"/><g clip-path="url(#a)"><path d="m29.15 25.91a74.72 74.72 0 0 0 18.48 10.17 53.68 53.68 0 0 0 19.58 3.26 57.57 57.57 0 0 0 19.46-4.34c6.35-2.5 12.48-6 18.7-9.36a72.39 72.39 0 0 1 9.55-4.53 19.39 19.39 0 0 1 5.08-1.11 10 10 0 0 1 5.29 1c3.48 1.76 6 5.94 7.4 10.51a26.87 26.87 0 0 1 .44 14.87 17.86 17.86 0 0 1 -3.27 6.12 21.87 21.87 0 0 1 -4.41 4 33.49 33.49 0 0 1 -9.71 4.42 63.12 63.12 0 0 1 -20.06 2.08 86.9 86.9 0 0 1 -39.09-11.59c-6.2-3.52-12.13-7.88-18.07-12-3-2-6-4-9.17-5a6.24 6.24 0 0 0 -4.67.29 9 9 0 0 0 -3.59 4.18 28.14 28.14 0 0 0 -2.36 13 23.31 23.31 0 0 0 1.21 6.58 12.11 12.11 0 0 0 3.18 4.93c2.76 2.41 6.07 3.4 9.29 4.2a46.35 46.35 0 0 0 4.91 1c1.64.32 3.29.46 4.94.67 6.61.72 13.25 1 19.88 1.08 3.32.06 6.64.08 10 0s6.63 0 10-.11c6.64-.09 13.28-.33 19.92-.52l19.83-.71a59.9 59.9 0 0 1 10.08.39 16.33 16.33 0 0 1 2.57.58 7.32 7.32 0 0 1 2.64 1.38 4.25 4.25 0 0 1 1.25 1.81 5.25 5.25 0 0 1 .14 2.76 10.18 10.18 0 0 1 -1.57 3.58 38.26 38.26 0 0 1 -8.41 8.33 70 70 0 0 1 -9.19 5.94 46.85 46.85 0 0 1 -19.81 5.72 59 59 0 0 1 -20.1-2.49c-13.21-3.83-25.56-11.47-37.89-18.13a67.49 67.49 0 0 0 -9.34-4.26 18 18 0 0 0 -4.67-1 6.54 6.54 0 0 0 -4.28 1c-2.52 1.64-3.62 6.07-3.59 10.36a35.56 35.56 0 0 0 .62 6.52 26.24 26.24 0 0 0 1.82 6 21.28 21.28 0 0 0 7 8.52 32.31 32.31 0 0 0 9.14 4.47 68.07 68.07 0 0 0 19.57 2.73c13.21.08 26.44-1.84 39.56-4.57a386.28 386.28 0 0 0 39.16-10.44v.33a363.16 363.16 0 0 1 -39 11.8c-13.12 3-26.38 5.4-39.75 5.52a69.26 69.26 0 0 1 -20-2.49 33.64 33.64 0 0 1 -9.68-4.58 23.81 23.81 0 0 1 -8-9.52 30.81 30.81 0 0 1 -2.16-6.88 37.77 37.77 0 0 1 -.69-7.38 25.33 25.33 0 0 1 1-7.57 11 11 0 0 1 3.9-5.89 8.42 8.42 0 0 1 5.44-1.38 19.16 19.16 0 0 1 5.15 1.1 68.13 68.13 0 0 1 9.63 4.35c6.26 3.31 12.38 6.9 18.61 10a117.48 117.48 0 0 0 18.96 7.87 57.64 57.64 0 0 0 19.49 2.63 45 45 0 0 0 19.1-5.34 66.87 66.87 0 0 0 8.94-5.69 51.23 51.23 0 0 0 4.21-3.49 25.72 25.72 0 0 0 3.71-4.15 7.1 7.1 0 0 0 1.12-2.29 1.36 1.36 0 0 0 0-.67 1.68 1.68 0 0 0 -.49-.66 9.59 9.59 0 0 0 -4.35-1.63 59.41 59.41 0 0 0 -9.83-.55l-19.9.36c-6.65.07-13.29.18-19.94.15-13.29-.08-26.59-.24-39.87-1.69-1.65-.22-3.31-.37-5-.7a47.83 47.83 0 0 1 -4.95-1c-3.26-.85-6.62-1.84-9.55-4.42a13.41 13.41 0 0 1 -3.4-5.34 24.61 24.61 0 0 1 -1.29-7 29.69 29.69 0 0 1 2.45-13.79 10.06 10.06 0 0 1 4-4.66 6.91 6.91 0 0 1 5.15-.4c3.36.95 6.4 3 9.43 4.95 6 4 11.95 8.2 18.13 11.52a85.71 85.71 0 0 0 38.57 10.56 61.87 61.87 0 0 0 19.59-2.18 32 32 0 0 0 9.19-4.25 21.06 21.06 0 0 0 4-3.56 14.58 14.58 0 0 0 2.72-5 22.9 22.9 0 0 0 -.38-12.56c-1.18-4-3.36-7.56-6.19-9s-6.12-.9-9.24.17a72.08 72.08 0 0 0 -9.42 4.32 150.72 150.72 0 0 1 -18.94 9.09 58 58 0 0 1 -19.85 3.92c-13.43.08-26.64-5.61-38.21-14.92z" fill="#5b3114"/><path d="m29.11 26a73.23 73.23 0 0 0 18.43 10.5 53.35 53.35 0 0 0 19.68 3.5 57.44 57.44 0 0 0 19.61-4.14c6.4-2.46 12.59-5.89 18.79-9.25a74 74 0 0 1 9.47-4.47c3.21-1.1 6.71-1.81 10-.18s5.65 5.56 6.94 9.93a25.32 25.32 0 0 1 .42 14 16.71 16.71 0 0 1 -3.05 5.7 21.67 21.67 0 0 1 -4.25 3.83 32.73 32.73 0 0 1 -9.52 4.35 62.39 62.39 0 0 1 -19.93 2.14 86.24 86.24 0 0 1 -38.93-11.16c-6.19-3.44-12.12-7.75-18.1-11.81-3-2-6-4-9.26-5a6.54 6.54 0 0 0 -4.84.32 9.47 9.47 0 0 0 -3.73 4.35 28.89 28.89 0 0 0 -2.4 13.39 23.89 23.89 0 0 0 1.26 6.72 12.59 12.59 0 0 0 3.3 5.06c2.82 2.47 6.15 3.46 9.39 4.27a46.79 46.79 0 0 0 4.93 1c1.64.32 3.3.46 5 .67 6.62.72 13.26 1 19.9 1.17 3.32.09 6.64.14 10 .13s6.64 0 10 0c6.64 0 13.28-.23 19.92-.38l19.76-.64a59.58 59.58 0 0 1 10 .46 10.17 10.17 0 0 1 4.89 1.84 3.1 3.1 0 0 1 1 1.38 3.71 3.71 0 0 1 .09 2 8.92 8.92 0 0 1 -1.41 3.08 37.57 37.57 0 0 1 -8.23 8.07 69.68 69.68 0 0 1 -9.1 5.84 46.16 46.16 0 0 1 -19.53 5.55 58.52 58.52 0 0 1 -19.86-2.58 113.16 113.16 0 0 1 -19.15-7.92c-6.26-3.17-12.4-6.78-18.61-10.08a68.55 68.55 0 0 0 -9.45-4.28 18.55 18.55 0 0 0 -4.86-1 7.31 7.31 0 0 0 -4.71 1.16 8.88 8.88 0 0 0 -3.19 4.83 22.46 22.46 0 0 0 -.9 6.7 35.51 35.51 0 0 0 .66 6.85 27.79 27.79 0 0 0 1.95 6.33 22.17 22.17 0 0 0 7.38 8.9 33 33 0 0 0 9.34 4.53 68.85 68.85 0 0 0 19.75 2.66c13.28 0 26.52-2.09 39.64-4.93a373.93 373.93 0 0 0 39.07-11v.08a376.91 376.91 0 0 1 -39.05 11.23c-13.12 2.91-26.36 5.1-39.67 5.16a69.2 69.2 0 0 1 -19.85-2.55 33 33 0 0 1 -9.48-4.54 22.68 22.68 0 0 1 -7.62-9.19 28.32 28.32 0 0 1 -2-6.54 35.25 35.25 0 0 1 -.7-7.07 23.34 23.34 0 0 1 1-7 9.69 9.69 0 0 1 3.47-5.25 7.74 7.74 0 0 1 5-1.24 19.19 19.19 0 0 1 5 1.07 69.08 69.08 0 0 1 9.51 4.32c6.23 3.32 12.36 6.93 18.61 10.09a112.05 112.05 0 0 0 19.06 7.9 57.84 57.84 0 0 0 19.58 2.54 45.64 45.64 0 0 0 19.36-5.49 69.33 69.33 0 0 0 9-5.79 37.84 37.84 0 0 0 8.1-7.91 8.23 8.23 0 0 0 1.29-2.76 2.44 2.44 0 0 0 -.82-2.54 9.86 9.86 0 0 0 -4.67-1.76 59.8 59.8 0 0 0 -9.92-.49l-19.87.54c-6.65.12-13.29.28-19.93.3-3.32 0-6.64 0-10 0s-6.64-.06-10-.16c-6.64-.17-13.29-.51-19.91-1.26-1.66-.21-3.31-.36-5-.69a50.36 50.36 0 0 1 -4.94-1c-3.25-.83-6.59-1.83-9.45-4.35a13 13 0 0 1 -3.34-5.2 24.31 24.31 0 0 1 -1.18-6.84 29 29 0 0 1 2.41-13.53 9.79 9.79 0 0 1 3.82-4.47 6.73 6.73 0 0 1 5-.36c3.29 1 6.33 3 9.34 5 6 4.07 11.91 8.32 18.1 11.73a86.07 86.07 0 0 0 38.81 11 62.24 62.24 0 0 0 19.77-2.19 32.31 32.31 0 0 0 9.38-4.32 21.58 21.58 0 0 0 4.12-3.86 15.82 15.82 0 0 0 2.93-5.41 24.48 24.48 0 0 0 -.4-13.44c-1.25-4.24-3.57-8-6.65-9.58s-6.5-.92-9.68.17a71.12 71.12 0 0 0 -9.43 4.41c-6.21 3.33-12.42 6.75-18.85 9.19a57.85 57.85 0 0 1 -19.7 4.08c-13.35.23-26.53-5.27-38.14-14.35z" fill="#fff" opacity=".25"/></g></svg>