<svg viewBox="0 0 156 156" xmlns="http://www.w3.org/2000/svg" xmlns:xlink="http://www.w3.org/1999/xlink"><clipPath id="a"><path d="m133 29c.3-5.71-4.64-10.35-10.36-10.35h-89.31a10.35 10.35 0 0 0 -10.33 10.35v89.3a10.66 10.66 0 0 0 .84 4.07 10.34 10.34 0 0 0 9.52 6.29h89.29a10.77 10.77 0 0 0 10.14-8.24c.48-1.84.08-89.36.21-91.42z"/></clipPath><clipPath id="b"><path d="m134 29.43c.3-5.71-4.64-10.36-10.36-10.36h-89.32a10.36 10.36 0 0 0 -10.32 10.36v89.3a10.65 10.65 0 0 0 .83 4.07 10.34 10.34 0 0 0 9.53 6.29h89.29a10.78 10.78 0 0 0 10.14-8.24c.47-1.85.07-89.37.21-91.42z"/></clipPath><path d="m126.59 131.44-.07.1h-95.86a11 11 0 0 1 -10.08-6.65 42.24 42.24 0 0 0 3.73 6.65l3.57 4.93c3.7 5.1 9.86 4.19 15.4 4.19h20.53 41c7.76 0 16.8 1.62 22.9-4.25a24.89 24.89 0 0 0 2.55-2.88c1-1.36 2-2.81 2.89-4.26 1-1.66 2.73-4.34 2.73-6.48a11 11 0 0 1 -9.29 8.65z" fill="#1b1500"/><path d="m20.58 98.43c1 2.39 1.45 19.17 1.45 19.17l2.47 13.45a5.84 5.84 0 0 0 .49 1.46 10.73 10.73 0 0 0 8.54 4.9h.57 45.06 40.34c4.82 0 8.73-1.56 11.71-5.16.73-.87.91-4.39 1.69-8.43.66-3.44 1.64-7.3 2.21-11.16 1-6.76.07-14 0-15.88-.72 2.19-2.35 3.78-7.08 3.9 0 0-.08.08-.09.07s-1.2 0-1.32-.07h-1.43-92.84c-.33 0-3.31 0-3.6.16-4.55.44-6.89-.63-8.17-2.41z" fill="#251e0e"/><path d="m20.58 72.53c.66 1.6 0 31.72 0 31.72l1.65 22.47a7.57 7.57 0 0 0 .63 2.46 11 11 0 0 0 8.71 5.52 7.89 7.89 0 0 0 .84.05h47.28 42.27a13.38 13.38 0 0 0 11.72-6.25c.52-.81.48-6.59 1-13.71.43-5.47 1.11-11.85 1.46-18.06.69-12-1.78-23.68-1.8-25.29-.49-.25-.95-.63-5.69-1 0 0-.08 0-.1 0-.22-.06-1.11-.1-1.34-.14-.25 0-1.21-.05-1.47-.05h-94.51a20.23 20.23 0 0 0 -3.68.33c-4.49.84-6.11 1.52-6.97 1.95z" fill="#30261b"/><path d="m20 49.67c.32.78.93 43.05.93 43.05l.81 30.62a9.43 9.43 0 0 0 .74 3.36 10.84 10.84 0 0 0 8.61 6 9.81 9.81 0 0 0 1.09.07h48 42.88c5 0 10.12-2.48 12.13-6.87.33-.71 2.12-8.19-.4-18.73-1.7-7.1.54-15.92.7-24.27.31-16.66.61-32.44.65-33.73-.23-2.63-3.7-4.93-8.31-5.75h-.11c-.32-.09-1-.16-1.31-.21a14.32 14.32 0 0 0 -1.47-.08h-93.38a14.08 14.08 0 0 0 -3.64.48c-4.31 1.12-7.55 3.47-7.92 6.06z" fill="#3b2f29"/><path d="m125.19 15.09h-94.53a11 11 0 0 0 -11 11v94.53a11.33 11.33 0 0 0 .88 4.31 11 11 0 0 0 10.08 6.65h94.53a11 11 0 0 0 10.73-8.71c.67-1.93 0-94.62.23-96.78a11 11 0 0 0 -10.92-11z" fill="#453736"/><path d="m123 17.83h-90.11a10.45 10.45 0 0 0 -10.45 10.45v90.07a10.87 10.87 0 0 0 .85 4.11 10.42 10.42 0 0 0 9.6 6.34h90.11a10.86 10.86 0 0 0 10.22-8.31c.52-1.87.12-90.14.23-92.21.26-5.76-4.72-10.45-10.45-10.45z" fill="#4a3b39"/><path d="m120.73 20.58h-85.61a9.94 9.94 0 0 0 -9.93 9.93v85.61a10.2 10.2 0 0 0 .81 3.88 9.92 9.92 0 0 0 9.13 6h85.61a10.32 10.32 0 0 0 9.72-7.89c.49-1.78.11-85.69.21-87.65.33-5.46-4.45-9.88-9.94-9.88z" fill="#4e3f3c"/><path d="m118.51 23.33h-81.16a9.41 9.41 0 0 0 -9.41 9.41v81.15a9.76 9.76 0 0 0 .76 3.71 9.39 9.39 0 0 0 8.65 5.71h81.16a9.81 9.81 0 0 0 9.21-7.49c.46-1.69.1-81.22.2-83.08.27-5.19-4.22-9.41-9.41-9.41z" fill="#52423f"/><path d="m116.28 26.07h-76.7a8.89 8.89 0 0 0 -8.89 8.93v76.69a9.23 9.23 0 0 0 .71 3.5 8.89 8.89 0 0 0 8.18 5.4h76.7a9 9 0 0 0 8.71-7.07c.54-1.56 0-76.77.18-78.53a8.89 8.89 0 0 0 -8.89-8.92z" fill="#574642"/><rect fill="#feffe0" height="92.62" opacity=".05" rx="6.86" stroke="#fff" stroke-miterlimit="10" stroke-width="2" width="92.62" x="32.68" y="27.04"/><g clip-path="url(#a)" fill="#b36642"><g opacity=".45"><path d="m8.06 56.34-2.47 9.32-9.32 2.47-2.47 9.32.01.01-9.32 2.46.73.73 9.32-2.47 2.46-9.32 9.32-2.47 2.47-9.32z"/><path d="m10.14 58.42-2.47 9.32-9.32 2.47-2.47 9.32h.01l-9.32 2.47.73.73 9.32-2.47 2.46-9.32 9.32-2.47 2.47-9.32z"/><path d="m12.22 60.5-2.47 9.32-9.32 2.47-2.47 9.32h.01l-9.32 2.47.73.73 9.31-2.47 2.47-9.33 9.31-2.46h.01l2.46-9.32z"/><path d="m31.63 32.77-2.47 9.32-9.31 2.47-2.47 9.32-9.31 2.47.72.73 9.32-2.47 2.46-9.33 9.32-2.47.01.01 2.46-9.32z"/><path d="m33.71 34.85-2.47 9.32-9.31 2.47-2.47 9.31v.01l-9.32 2.47.73.73 9.32-2.47 2.46-9.33 9.32-2.47.01.01 2.46-9.32z"/><path d="m35.79 36.93-2.47 9.31-9.32 2.47-2.46 9.32v.01l-9.32 2.47.73.72 9.32-2.46 2.46-9.33 9.32-2.47v.01l2.47-9.33z"/><path d="m55.21 9.2-2.47 9.32-9.32 2.46-2.47 9.32.01.01-9.32 2.47.73.72 9.32-2.47 2.46-9.32 9.32-2.47v.01l2.46-9.33z"/><path d="m57.29 11.28-2.47 9.31-9.32 2.47-2.47 9.32.01.01-9.32 2.46.73.73 9.31-2.47 2.47-9.32 9.31-2.47h.01l2.46-9.32z"/><path d="m59.37 13.35-2.47 9.32-9.32 2.47-2.47 9.32h.01l-9.32 2.47.72.73 9.32-2.47 2.46-9.32 9.32-2.47h.01l2.46-9.32z"/><path d="m78.78-14.38-2.47 9.32-9.31 2.47-2.47 9.32-9.32 2.47.73.73 9.32-2.47 2.46-9.32 9.32-2.47h.01l2.46-9.32z"/><path d="m80.86-12.3-2.47 9.32-9.32 2.47-2.46 9.32-9.32 2.47.73.73 9.32-2.47 2.46-9.33 9.32-2.46 2.47-9.32z"/><path d="m82.94-10.22-2.47 9.32-9.32 2.47-2.47 9.31.01.01-9.32 2.47.73.73 9.32-2.47 2.46-9.33 9.32-2.47v.01l2.47-9.32z"/><path d="m-.23 95.2-2.47 9.32-9.32 2.47-2.46 9.32-9.32 2.47.73.73 9.32-2.47 2.46-9.32 9.32-2.47h.01l2.46-9.32z"/><path d="m1.85 97.28-2.47 9.32-9.32 2.47-2.46 9.32-9.32 2.47.73.73 9.32-2.47 2.46-9.32 9.32-2.47 2.47-9.32z"/><path d="m21.27 69.55-2.47 9.32-9.32 2.47-2.47 9.32h.01l-9.32 2.47.73.73 9.31-2.47 2.47-9.33 9.31-2.46h.01l2.46-9.32z"/><path d="m23.35 71.63-2.47 9.32-9.32 2.47-2.47 9.31.01.01-9.32 2.47.72.73 9.32-2.47 2.47-9.33 9.31-2.47.01.01 2.46-9.32z"/><path d="m25.42 73.71-2.46 9.32-9.32 2.47-2.47 9.31.01.01-9.32 2.47.72.73 9.32-2.47 2.46-9.33 9.32-2.47.01.01 2.46-9.32z"/><path d="m44.84 45.98-2.47 9.32-9.32 2.46-2.46 9.32v.01l-9.32 2.47.73.72 9.32-2.47 2.46-9.32 9.32-2.47v.01l2.47-9.33z"/><path d="m46.92 48.06-2.47 9.31-9.32 2.47-2.47 9.32.01.01-9.32 2.47.73.72 9.32-2.47 2.46-9.32 9.32-2.47v.01l2.47-9.33z"/><path d="m49 50.13-2.47 9.32-9.32 2.47-2.47 9.32.01.01-9.32 2.46.73.73 9.32-2.47 2.46-9.32 9.32-2.47v.01l2.47-9.33z"/><path d="m68.42 22.4-2.47 9.32-9.32 2.47-2.47 9.32.01.01-9.32 2.46.72.73 9.32-2.47 2.46-9.32 9.32-2.47h.01l2.46-9.32z"/><path d="m70.49 24.48-2.46 9.32-9.32 2.47-2.47 9.32-9.31 2.47.72.73 9.32-2.47 2.46-9.33 9.32-2.46h.01l2.46-9.32z"/><path d="m72.57 26.56-2.47 9.32-9.32 2.47-2.46 9.32-9.32 2.47.73.73 9.32-2.47 2.46-9.33 9.32-2.47.01.01 2.46-9.32z"/><path d="m91.99-1.17-2.47 9.32-9.32 2.47-2.47 9.31.01.01-9.32 2.47.73.73 9.32-2.47 2.46-9.33 9.32-2.47v.01l2.47-9.32z"/><path d="m94.07.91-2.47 9.32-9.32 2.47-2.47 9.31.01.01-9.32 2.47.73.72 9.31-2.46 2.47-9.33 9.32-2.47v.01l2.46-9.33z"/><path d="m96.15 2.99-2.47 9.31-9.32 2.47-2.47 9.32.01.01-9.32 2.47.73.72 9.31-2.47 2.47-9.32 9.31-2.47.01.01 2.46-9.33z"/><path d="m117.64-22.67-2.47 9.32-9.31 2.47-2.47 9.32v.01l-9.32 2.46.73.73 9.32-2.47 2.46-9.32 9.32-2.47h.01l2.46-9.32z"/><path d="m119.72-20.59-2.47 9.32-9.32 2.47-2.47 9.32h.01l-9.32 2.47.73.73 9.32-2.47 2.46-9.32 9.32-2.47 2.47-9.32z"/><path d="m10.9 106.33-2.47 9.32-9.32 2.47-2.46 9.32-9.32 2.47.73.73 9.32-2.47 2.46-9.32 9.32-2.47 2.47-9.32z"/><path d="m12.98 108.41-2.47 9.32-9.32 2.47-2.47 9.32h.01l-9.32 2.47.73.73 9.32-2.47 2.46-9.33 9.32-2.47v.01l2.47-9.32z"/><path d="m15.06 110.49-2.47 9.32-9.32 2.47-2.47 9.31.01.01-9.32 2.47.73.73 9.31-2.47 2.47-9.33 9.31-2.47.01.01 2.46-9.32z"/><path d="m34.47 82.76-2.46 9.32-9.32 2.47-2.47 9.31.01.01-9.32 2.47.72.72 9.32-2.46 2.46-9.33 9.32-2.47.01.01 2.46-9.33z"/><path d="m36.55 84.84-2.47 9.32-9.31 2.46-2.47 9.32v.01l-9.32 2.47.73.72 9.32-2.47 2.46-9.32 9.32-2.47.01.01 2.46-9.33z"/><path d="m38.63 86.92-2.47 9.31-9.32 2.47-2.46 9.32v.01l-9.32 2.47.73.72 9.32-2.47 2.46-9.32 9.32-2.47.01.01 2.46-9.33z"/><path d="m58.05 59.18-2.47 9.32-9.32 2.47-2.47 9.32.01.01-9.32 2.47.73.72 9.31-2.47 2.47-9.32 9.32-2.47 2.46-9.32z"/><path d="m60.13 61.26-2.47 9.32-9.32 2.47-2.47 9.32h.01l-9.32 2.47.72.73 9.32-2.47 2.47-9.32 9.31-2.47h.01l2.46-9.32z"/><path d="m62.2 63.34-2.46 9.32-9.32 2.47-2.47 9.32h.01l-9.32 2.47.72.73 9.32-2.47 2.47-9.32 9.31-2.47h.01l2.46-9.32z"/><path d="m81.62 35.61-2.47 9.32-9.32 2.47-2.46 9.32-9.32 2.47.73.73 9.32-2.47 2.46-9.33 9.32-2.46h.01l2.46-9.32z"/><path d="m83.7 37.69-2.47 9.32-9.32 2.47-2.47 9.31.01.01-9.32 2.47.73.72 9.32-2.46 2.46-9.33 9.32-2.47.01.01 2.46-9.33z"/><path d="m85.78 39.77-2.47 9.32-9.32 2.46-2.47 9.32.01.01-9.32 2.47.73.72 9.32-2.47 2.46-9.32 9.32-2.47v.01l2.47-9.33z"/><path d="m105.2 12.04-2.47 9.32-9.32 2.46-2.47 9.32.01.01-9.32 2.47.73.72 9.31-2.47 2.47-9.32 9.31-2.47.01.01 2.46-9.33z"/><path d="m107.28 14.12-2.47 9.31-9.32 2.47-2.47 9.32.01.01-9.32 2.47.72.72 9.32-2.47 2.46-9.32 9.32-2.47.01.01 2.46-9.33z"/><path d="m109.35 16.19-2.46 9.32-9.32 2.47-2.47 9.32-9.32 2.47.73.73 9.32-2.47 2.46-9.32 9.32-2.47h.01l2.46-9.32z"/><path d="m128.77-11.54-2.47 9.32-9.32 2.47-2.46 9.32-9.32 2.47.73.73 9.32-2.47 2.46-9.32 9.32-2.47 2.47-9.32z"/><path d="m130.85-9.46-2.47 9.32-9.32 2.47-2.47 9.32h.01l-9.32 2.47.73.73 9.32-2.47 2.46-9.33 9.32-2.46 2.46-9.32z"/><path d="m132.93-7.38-2.47 9.32-9.32 2.47-2.47 9.31.01.01-9.32 2.47.73.73 9.31-2.47 2.47-9.33 9.32-2.47v.01l2.46-9.32z"/><path d="m.53 143.11-2.47 9.32-9.31 2.47-2.47 9.32-9.31 2.47.72.73 9.32-2.47 2.46-9.32 9.32-2.47h.01l2.46-9.32z"/><path d="m2.61 145.19-2.47 9.32-9.32 2.47-2.46 9.32-9.32 2.47.73.73 9.32-2.47 2.46-9.32 9.32-2.47h.01l2.46-9.32z"/><path d="m4.69 147.27-2.47 9.32-9.32 2.47-2.46 9.32-9.32 2.47.73.73 9.32-2.47 2.46-9.33 9.32-2.47v.01l2.47-9.32z"/><path d="m24.11 119.54-2.47 9.32-9.32 2.47-2.47 9.32h.01l-9.32 2.47.73.73 9.32-2.47 2.46-9.33 9.31-2.47.01.01 2.46-9.32z"/><path d="m26.19 121.62-2.47 9.32-9.32 2.47-2.47 9.31.01.01-9.32 2.47.73.73 9.31-2.47 2.47-9.33 9.31-2.47.01.01 2.46-9.33z"/><path d="m28.27 123.7-2.47 9.31-9.32 2.47-2.47 9.32.01.01-9.32 2.47.72.72 9.32-2.47 2.46-9.32 9.32-2.47.01.01 2.46-9.33z"/><path d="m47.68 95.97-2.47 9.31-9.31 2.47-2.47 9.32v.01l-9.32 2.47.73.72 9.32-2.47 2.46-9.32 9.32-2.47.01.01 2.46-9.33z"/><path d="m49.76 98.04-2.47 9.32-9.32 2.47-2.46 9.32v.01l-9.32 2.46.73.73 9.32-2.47 2.46-9.32 9.32-2.47 2.47-9.32z"/><path d="m51.84 100.12-2.47 9.32-9.32 2.47-2.47 9.32h.01l-9.32 2.47.73.73 9.31-2.47 2.47-9.32 9.32-2.47 2.46-9.32z"/><path d="m71.26 72.39-2.47 9.32-9.32 2.47-2.47 9.32h.01l-9.32 2.47.72.73 9.32-2.47 2.47-9.32 9.31-2.47h.01l2.46-9.32z"/><path d="m73.33 74.47-2.47 9.32-9.31 2.47-2.47 9.32h.01l-9.32 2.47.72.73 9.32-2.47 2.46-9.33 9.32-2.46h.01l2.46-9.32z"/><path d="m75.41 76.55-2.47 9.32-9.31 2.47-2.47 9.31v.01l-9.32 2.47.73.73 9.32-2.47 2.46-9.33 9.32-2.47.01.01 2.46-9.32z"/><path d="m94.83 48.82-2.47 9.32-9.32 2.46-2.47 9.32.01.01-9.32 2.47.73.72 9.32-2.46 2.46-9.33 9.32-2.47v.01l2.47-9.33z"/><path d="m96.91 50.9-2.47 9.32-9.32 2.46-2.47 9.32.01.01-9.32 2.47.73.72 9.32-2.47 2.46-9.32 9.32-2.47v.01l2.46-9.33z"/><path d="m98.99 52.98-2.47 9.31-9.32 2.47-2.47 9.32.01.01-9.32 2.47.72.72 9.32-2.47 2.47-9.32 9.31-2.47h.01l2.46-9.32z"/><path d="m118.4 25.24-2.46 9.32-9.32 2.47-2.47 9.32-9.31 2.47.72.73 9.32-2.47 2.46-9.32 9.32-2.47.01.01 2.46-9.33z"/><path d="m120.48 27.32-2.47 9.32-9.32 2.47-2.46 9.32-9.32 2.47.73.73 9.32-2.47 2.46-9.32 9.32-2.47h.01l2.46-9.32z"/><path d="m122.56 29.4-2.47 9.32-9.32 2.47-2.46 9.32-9.32 2.47.73.73 9.32-2.47 2.46-9.33 9.32-2.46 2.47-9.32z"/><path d="m141.98 1.67-2.47 9.32-9.32 2.47-2.47 9.31.01.01-9.32 2.47.73.73 9.31-2.47 2.47-9.33 9.32-2.47v.01l2.46-9.32z"/><path d="m144.06 3.75-2.47 9.32-9.32 2.47-2.47 9.31.01.01-9.32 2.47.73.72 9.31-2.46 2.47-9.33 9.31-2.47.01.01 2.46-9.33z"/><path d="m146.13 5.83-2.46 9.31-9.32 2.47-2.47 9.32v.01l-9.31 2.47.72.72 9.32-2.47 2.46-9.32 9.32-2.47.01.01 2.46-9.33z"/><path d="m165.55-21.9-2.47 9.31-9.32 2.47-2.46 9.32v.01l-9.32 2.47.73.72 9.32-2.47 2.46-9.32 9.32-2.47v.01l2.47-9.33z"/><path d="m167.63-19.83-2.47 9.32-9.32 2.47-2.47 9.32.01.01-9.32 2.46.73.73 9.32-2.47 2.46-9.32 9.32-2.47 2.47-9.32z"/><path d="m169.71-17.75-2.47 9.32-9.32 2.47-2.47 9.32h.01l-9.32 2.47.73.73 9.32-2.47 2.46-9.32 9.32-2.47 2.47-9.32z"/><path d="m37.31 132.75-2.46 9.31-9.32 2.47-2.47 9.32.01.01-9.32 2.47.72.72 9.32-2.46 2.46-9.33 9.32-2.47.01.01 2.46-9.33z"/><path d="m39.39 134.82-2.47 9.32-9.31 2.47-2.47 9.32v.01l-9.31 2.47.72.72 9.32-2.47 2.46-9.32 9.32-2.47.01.01 2.46-9.33z"/><path d="m41.47 136.9-2.47 9.32-9.32 2.47-2.46 9.32-9.32 2.47.73.73 9.32-2.47 2.46-9.32 9.32-2.47h.01l2.46-9.32z"/><path d="m60.89 109.17-2.47 9.32-9.32 2.47-2.47 9.32h.01l-9.32 2.47.73.73 9.32-2.47 2.46-9.32 9.32-2.47 2.47-9.32z"/><path d="m62.97 111.25-2.47 9.32-9.32 2.47-2.47 9.32h.01l-9.32 2.47.73.73 9.31-2.47 2.47-9.32 9.32-2.47 2.46-9.32z"/><path d="m65.05 113.33-2.47 9.32-9.32 2.47-2.47 9.32h.01l-9.32 2.47.72.73 9.32-2.47 2.46-9.33 9.32-2.47.01.01 2.46-9.32z"/><path d="m84.46 85.6-2.47 9.32-9.31 2.47-2.47 9.31v.01l-9.31 2.47.72.73 9.32-2.47 2.46-9.33 9.32-2.47.01.01 2.46-9.32z"/><path d="m86.54 87.68-2.47 9.32-9.32 2.46-2.46 9.32v.01l-9.32 2.47.73.72 9.32-2.46 2.46-9.33 9.32-2.47.01.01 2.46-9.33z"/><path d="m88.62 89.76-2.47 9.31-9.32 2.47-2.47 9.32.01.01-9.32 2.47.73.72 9.32-2.47 2.46-9.32 9.32-2.47v.01l2.47-9.33z"/><path d="m108.04 62.02-2.47 9.32-9.32 2.47-2.47 9.32.01.01-9.32 2.47.72.72 9.32-2.47 2.47-9.32 9.31-2.47.01.01 2.46-9.33z"/><path d="m110.11 64.1-2.46 9.32-9.32 2.47-2.47 9.32.01.01-9.32 2.46.72.73 9.32-2.47 2.47-9.32 9.31-2.47h.01l2.46-9.32z"/><path d="m112.19 66.18-2.47 9.32-9.31 2.47-2.47 9.32-9.31 2.47.72.73 9.32-2.47 2.46-9.33 9.32-2.46h.01l2.46-9.32z"/><path d="m131.61 38.45-2.47 9.32-9.32 2.47-2.46 9.32-9.32 2.47.73.73 9.32-2.47 2.46-9.33 9.32-2.46 2.47-9.32z"/><path d="m133.69 40.53-2.47 9.32-9.32 2.47-2.47 9.31.01.01-9.32 2.47.73.73 9.32-2.47 2.46-9.33 9.32-2.47v.01l2.47-9.32z"/><path d="m135.77 42.61-2.47 9.32-9.32 2.47-2.47 9.31.01.01-9.32 2.47.73.72 9.31-2.46 2.47-9.33 9.32-2.47v.01l2.46-9.33z"/><path d="m155.19 14.88-2.47 9.32-9.32 2.46-2.47 9.32.01.01-9.32 2.47.72.72 9.32-2.46 2.46-9.33 9.32-2.47.01.01 2.46-9.33z"/><path d="m157.26 16.95-2.47 9.32-9.31 2.47-2.47 9.32v.01l-9.32 2.47.73.72 9.32-2.47 2.46-9.32 9.32-2.47.01.01 2.46-9.33z"/><path d="m159.34 19.03-2.47 9.32-9.31 2.47-2.47 9.32v.01l-9.32 2.46.73.73 9.32-2.47 2.46-9.32 9.32-2.47v.01l2.47-9.33z"/><path d="m178.76-8.7-2.47 9.32-9.32 2.47-2.47 9.32h.01l-9.32 2.47.73.73 9.32-2.47 2.46-9.32 9.32-2.47 2.47-9.32z"/></g><g opacity=".45"><path d="m48.84 144.27-2.47 9.32-9.32 2.47-2.47 9.32h.01l-9.32 2.47.73.73 9.31-2.47 2.47-9.33 9.32-2.47v.01l2.46-9.32z"/><path d="m50.92 146.35-2.47 9.32-9.32 2.46-2.47 9.32.01.01-9.32 2.47.72.73 9.32-2.47 2.47-9.33 9.31-2.47.01.01 2.46-9.33z"/><path d="m52.99 148.43-2.46 9.32-9.32 2.46-2.47 9.32v.01l-9.31 2.47.72.72 9.32-2.47 2.46-9.32 9.32-2.47.01.01 2.46-9.33z"/><path d="m72.41 120.7-2.47 9.31-9.31 2.47-2.47 9.32v.01l-9.32 2.47.73.72 9.32-2.47 2.46-9.32 9.32-2.47.01.01 2.46-9.33z"/><path d="m74.49 122.77-2.47 9.32-9.32 2.47-2.47 9.32.01.01-9.32 2.46.73.73 9.32-2.47 2.46-9.32 9.32-2.47 2.47-9.32z"/><path d="m76.57 124.85-2.47 9.32-9.32 2.47-2.47 9.32h.01l-9.32 2.47.73.73 9.32-2.47 2.46-9.32 9.32-2.47 2.47-9.32z"/><path d="m95.99 97.12-2.47 9.32-9.32 2.47-2.47 9.32h.01l-9.32 2.47.72.73 9.32-2.47 2.46-9.32 9.32-2.47h.01l2.46-9.32z"/><path d="m98.06 99.2-2.46 9.32-9.32 2.47-2.47 9.32-9.31 2.47.72.73 9.32-2.47 2.46-9.33 9.32-2.46h.01l2.46-9.32z"/><path d="m100.14 101.28-2.47 9.32-9.31 2.47-2.47 9.31v.01l-9.31 2.47.72.72 9.32-2.46 2.46-9.33 9.32-2.47.01.01 2.46-9.33z"/><path d="m119.56 73.55-2.47 9.32-9.32 2.46-2.47 9.32.01.01-9.32 2.47.73.72 9.32-2.46 2.46-9.33 9.32-2.47v.01l2.47-9.33z"/><path d="m121.64 75.63-2.47 9.31-9.32 2.47-2.47 9.32.01.01-9.32 2.47.73.72 9.31-2.47 2.47-9.32 9.32-2.47v.01l2.46-9.33z"/><path d="m123.72 77.7-2.47 9.32-9.32 2.47-2.47 9.32.01.01-9.32 2.46.73.73 9.31-2.47 2.47-9.32 9.31-2.47.01.01 2.46-9.33z"/><path d="m143.13 49.97-2.47 9.32-9.31 2.47-2.47 9.32-9.31 2.47.72.73 9.32-2.47 2.46-9.32 9.32-2.47h.01l2.46-9.32z"/><path d="m145.21 52.05-2.47 9.32-9.31 2.47-2.47 9.32-9.32 2.47.73.73 9.32-2.47 2.46-9.32 9.32-2.47h.01l2.46-9.32z"/><path d="m147.29 54.13-2.47 9.32-9.32 2.47-2.47 9.32h.01l-9.32 2.47.73.73 9.32-2.47 2.46-9.33 9.32-2.46 2.47-9.32z"/><path d="m166.71 26.4-2.47 9.32-9.32 2.47-2.47 9.32h.01l-9.32 2.47.73.73 9.31-2.47 2.47-9.33 9.32-2.46 2.46-9.32z"/><path d="m168.79 28.48-2.47 9.32-9.32 2.47-2.47 9.31.01.01-9.32 2.47.72.72 9.32-2.46 2.47-9.33 9.31-2.47.01.01 2.46-9.33z"/><path d="m170.87 30.56-2.47 9.32-9.32 2.46-2.47 9.32.01.01-9.32 2.47.72.72 9.32-2.46 2.46-9.33 9.32-2.47.01.01 2.46-9.33z"/><path d="m85.62 133.9-2.47 9.32-9.32 2.47-2.47 9.32h.01l-9.32 2.47.73.73 9.32-2.47 2.46-9.32 9.32-2.47 2.46-9.32z"/><path d="m87.7 135.98-2.47 9.32-9.32 2.47-2.47 9.32h.01l-9.32 2.47.73.73 9.31-2.47 2.47-9.32 9.31-2.47h.01l2.46-9.32z"/><path d="m89.78 138.06-2.47 9.32-9.32 2.47-2.47 9.31.01.01-9.32 2.47.72.73 9.32-2.47 2.47-9.33 9.31-2.47.01.01 2.46-9.32z"/><path d="m109.19 110.33-2.47 9.32-9.31 2.47-2.47 9.31v.01l-9.31 2.47.72.72 9.32-2.46 2.46-9.33 9.32-2.47.01.01 2.46-9.32z"/><path d="m111.27 112.41-2.47 9.32-9.32 2.46-2.46 9.32v.01l-9.32 2.47.73.72 9.32-2.46 2.46-9.33 9.32-2.47v.01l2.47-9.33z"/><path d="m113.35 114.49-2.47 9.31-9.32 2.47-2.47 9.32.01.01-9.32 2.47.73.72 9.32-2.47 2.46-9.32 9.32-2.47v.01l2.47-9.33z"/><path d="m132.77 86.75-2.47 9.32-9.32 2.47-2.47 9.32.01.01-9.32 2.46.72.73 9.32-2.47 2.47-9.32 9.32-2.47v.01l2.46-9.33z"/><path d="m134.84 88.83-2.46 9.32-9.32 2.47-2.47 9.32h.01l-9.32 2.47.72.73 9.32-2.47 2.46-9.32 9.32-2.47h.01l2.46-9.32z"/><path d="m136.92 90.91-2.46 9.32-9.32 2.47-2.47 9.32-9.31 2.47.72.73 9.32-2.47 2.46-9.33 9.32-2.46h.01l2.46-9.32z"/><path d="m156.34 63.18-2.47 9.32-9.32 2.47-2.46 9.32-9.32 2.47.73.73 9.32-2.47 2.46-9.33 9.32-2.46 2.47-9.32z"/><path d="m158.42 65.26-2.47 9.32-9.32 2.47-2.47 9.31.01.01-9.32 2.47.73.73 9.32-2.47 2.46-9.33 9.32-2.47v.01l2.47-9.32z"/><path d="m160.5 67.34-2.47 9.32-9.32 2.47-2.47 9.31.01.01-9.32 2.47.73.72 9.31-2.46 2.47-9.33 9.31-2.47.01.01 2.46-9.33z"/><path d="m98.83 147.11-2.47 9.32-9.32 2.47-2.47 9.32h.01l-9.32 2.47.72.73 9.32-2.47 2.47-9.33 9.31-2.46h.01l2.46-9.32z"/><path d="m100.91 149.19-2.47 9.32-9.32 2.47-2.47 9.31.01.01-9.32 2.47.72.73 9.32-2.47 2.46-9.33 9.32-2.47.01.01 2.46-9.33z"/><path d="m102.98 151.27-2.47 9.32-9.31 2.46-2.47 9.32v.01l-9.31 2.47.72.72 9.32-2.47 2.46-9.32 9.32-2.47.01.01 2.46-9.33z"/><path d="m122.4 123.54-2.47 9.31-9.32 2.47-2.47 9.32.01.01-9.32 2.47.73.72 9.32-2.47 2.46-9.32 9.32-2.47v.01l2.47-9.33z"/><path d="m124.48 125.61-2.47 9.32-9.32 2.47-2.47 9.32.01.01-9.32 2.46.73.73 9.31-2.47 2.47-9.32 9.32-2.47 2.46-9.32z"/><path d="m126.56 127.69-2.47 9.32-9.32 2.47-2.47 9.32.01.01-9.32 2.46.73.73 9.31-2.47 2.47-9.32 9.31-2.47h.01l2.46-9.32z"/><path d="m145.97 99.96-2.47 9.32-9.31 2.47-2.47 9.32-9.31 2.47.72.73 9.32-2.47 2.46-9.32 9.32-2.47h.01l2.46-9.32z"/><path d="m148.05 102.04-2.47 9.32-9.31 2.47-2.47 9.32-9.32 2.47.73.73 9.32-2.47 2.46-9.33 9.32-2.47.01.01 2.46-9.32z"/><path d="m150.13 104.12-2.47 9.32-9.32 2.47-2.46 9.31v.01l-9.32 2.47.73.73 9.32-2.47 2.46-9.33 9.32-2.47.01.01 2.46-9.32z"/><path d="m169.55 76.39-2.47 9.32-9.32 2.46-2.47 9.32.01.01-9.32 2.47.73.72 9.32-2.46 2.46-9.33 9.32-2.47v.01l2.46-9.33z"/><path d="m171.63 78.47-2.47 9.31-9.32 2.47-2.47 9.32.01.01-9.32 2.47.72.72 9.32-2.46 2.47-9.33 9.31-2.47.01.01 2.46-9.33z"/><path d="m173.71 80.55-2.47 9.31-9.32 2.47-2.47 9.32.01.01-9.32 2.47.72.72 9.32-2.47 2.46-9.32 9.32-2.47.01.01 2.46-9.33z"/><path d="m135.61 136.74-2.47 9.32-9.32 2.47-2.47 9.32h.01l-9.32 2.47.73.73 9.31-2.47 2.47-9.32 9.32-2.47 2.46-9.32z"/><path d="m137.69 138.82-2.47 9.32-9.32 2.47-2.47 9.32h.01l-9.32 2.47.72.73 9.32-2.47 2.47-9.32 9.31-2.47h.01l2.46-9.32z"/><path d="m139.76 140.9-2.46 9.32-9.32 2.47-2.47 9.32h.01l-9.32 2.47.72.73 9.32-2.47 2.46-9.33 9.32-2.47.01.01 2.46-9.32z"/><path d="m159.18 113.17-2.47 9.32-9.32 2.47-2.46 9.32-9.32 2.47.73.73 9.32-2.47 2.46-9.33 9.32-2.47v.01l2.47-9.32z"/><path d="m161.26 115.25-2.47 9.32-9.32 2.46-2.47 9.32.01.01-9.32 2.47.73.72 9.32-2.46 2.46-9.33 9.32-2.47v.01l2.47-9.33z"/><path d="m163.34 117.33-2.47 9.31-9.32 2.47-2.47 9.32.01.01-9.32 2.47.73.72 9.31-2.47 2.47-9.32 9.32-2.47v.01l2.46-9.33z"/><path d="m148.81 149.95-2.46 9.32-9.32 2.47-2.47 9.32-9.31 2.47.72.73 9.32-2.47 2.46-9.33 9.32-2.46h.01l2.46-9.32z"/><path d="m150.89 152.03-2.47 9.32-9.31 2.47-2.47 9.31v.01l-9.31 2.47.72.73 9.32-2.47 2.46-9.33 9.32-2.47.01.01 2.46-9.33z"/><path d="m152.97 154.11-2.47 9.32-9.31 2.47-2.47 9.31v.01l-9.32 2.47.73.72 9.32-2.47 2.46-9.32 9.32-2.47.01.01 2.46-9.33z"/><path d="m172.39 126.38-2.47 9.31-9.32 2.47-2.47 9.32.01.01-9.32 2.47.73.72 9.32-2.47 2.46-9.32 9.32-2.47v.01l2.47-9.33z"/><path d="m174.47 128.46-2.47 9.31-9.32 2.47-2.47 9.32.01.01-9.32 2.46.73.73 9.31-2.47 2.47-9.32 9.31-2.47.01.01 2.46-9.33z"/><path d="m176.54 130.53-2.46 9.32-9.32 2.47-2.47 9.32.01.01-9.32 2.46.72.73 9.32-2.47 2.47-9.32 9.31-2.47h.01l2.46-9.32z"/></g></g><g clip-path="url(#b)"><path d="m9.05 56.76-2.47 9.32-9.32 2.47-2.47 9.32.01.01-9.32 2.46.73.73 9.31-2.47 2.47-9.32 9.31-2.47h.01l2.46-9.32z" fill="#feffe0"/><path d="m11.13 58.84-2.47 9.32-9.32 2.47-2.47 9.32-9.31 2.47.72.73 9.32-2.47 2.46-9.32 9.32-2.47h.01l2.46-9.32z" fill="#feffe0"/><path d="m13.2 60.92-2.47 9.32-9.31 2.47-2.47 9.32-9.31 2.47.72.73 9.32-2.47 2.46-9.33 9.32-2.46h.01l2.46-9.32z" fill="#feffe0"/><path d="m32.62 33.19-2.47 9.32-9.32 2.47-2.47 9.32h.01l-9.32 2.47.73.73 9.32-2.47 2.46-9.33 9.32-2.47v.01l2.47-9.32z" fill="#feffe0"/><path d="m34.7 35.27-2.47 9.32-9.32 2.46-2.47 9.32.01.01-9.32 2.47.73.72 9.32-2.47 2.46-9.32 9.32-2.47v.01l2.46-9.33z" fill="#feffe0"/><path d="m36.78 37.35-2.47 9.31-9.32 2.47-2.47 9.32.01.01-9.32 2.47.73.72 9.31-2.47 2.47-9.32 9.31-2.47.01.01 2.46-9.33z" fill="#feffe0"/><path d="m56.19 9.62-2.46 9.31-9.32 2.47-2.47 9.32.01.01-9.32 2.47.72.72 9.32-2.47 2.46-9.32 9.32-2.47.01.01 2.46-9.33z" fill="#feffe0"/><path d="m58.27 11.69-2.47 9.32-9.31 2.47-2.47 9.32-9.32 2.47.73.73 9.32-2.47 2.46-9.32 9.32-2.47h.01l2.46-9.32z" fill="#feffe0"/><path d="m60.35 13.77-2.47 9.32-9.32 2.47-2.46 9.32-9.32 2.47.73.73 9.32-2.47 2.46-9.32 9.32-2.47h.01l2.46-9.32z" fill="#feffe0"/><path d="m79.77-13.96-2.47 9.32-9.32 2.47-2.47 9.32h.01l-9.32 2.47.73.73 9.32-2.47 2.46-9.33 9.32-2.46 2.47-9.32z" fill="#feffe0"/><path d="m81.85-11.88-2.47 9.32-9.32 2.47-2.47 9.31.01.01-9.32 2.47.73.73 9.31-2.47 2.47-9.33 9.31-2.47.01.01 2.46-9.32z" fill="#feffe0"/><path d="m83.92-9.8-2.46 9.32-9.32 2.47-2.47 9.31.01.01-9.32 2.47.72.73 9.32-2.47 2.46-9.33 9.32-2.47.01.01 2.46-9.32z" fill="#feffe0"/><path d="m.76 95.62-2.47 9.32-9.32 2.47-2.47 9.32h.01l-9.32 2.47.73.73 9.31-2.47 2.47-9.32 9.32-2.47 2.47-9.32z" fill="#ede6d6"/><path d="m2.84 97.7-2.47 9.32-9.32 2.47-2.47 9.32h.01l-9.32 2.47.73.73 9.31-2.47 2.47-9.33 9.31-2.46h.01l2.46-9.32z" fill="#ede6d6"/><path d="m22.25 69.97-2.46 9.32-9.32 2.47-2.47 9.32-9.31 2.47.72.73 9.32-2.47 2.46-9.33 9.32-2.46h.01l2.46-9.32z" fill="#ede6d6"/><path d="m24.33 72.05-2.47 9.32-9.32 2.47-2.46 9.31v.01l-9.32 2.47.73.73 9.32-2.47 2.46-9.33 9.32-2.47.01.01 2.46-9.32z" fill="#ede6d6"/><path d="m26.41 74.13-2.47 9.32-9.32 2.46-2.47 9.32.01.01-9.32 2.47.73.72 9.32-2.46 2.46-9.33 9.32-2.47v.01l2.47-9.33z" fill="#ede6d6"/><path d="m45.83 46.4-2.47 9.32-9.32 2.46-2.47 9.32.01.01-9.32 2.47.73.72 9.31-2.47 2.47-9.32 9.32-2.47v.01l2.46-9.33z" fill="#ede6d6"/><path d="m47.91 48.48-2.47 9.31-9.32 2.47-2.47 9.32.01.01-9.32 2.47.73.72 9.31-2.47 2.46-9.32 9.32-2.47.01.01 2.46-9.33z" fill="#ede6d6"/><path d="m49.98 50.55-2.46 9.32-9.32 2.47-2.47 9.32v.01l-9.31 2.46.72.73 9.32-2.47 2.46-9.32 9.32-2.47h.01l2.46-9.32z" fill="#ede6d6"/><path d="m69.4 22.82-2.47 9.32-9.31 2.47-2.47 9.32-9.32 2.47.73.73 9.32-2.47 2.46-9.32 9.32-2.47h.01l2.46-9.32z" fill="#ede6d6"/><path d="m71.48 24.9-2.47 9.32-9.32 2.47-2.47 9.32h.01l-9.32 2.47.73.73 9.32-2.47 2.46-9.33 9.32-2.46 2.47-9.32z" fill="#ede6d6"/><path d="m73.56 26.98-2.47 9.32-9.32 2.47-2.47 9.32h.01l-9.32 2.47.73.73 9.31-2.47 2.47-9.33 9.32-2.47v.01l2.46-9.32z" fill="#ede6d6"/><path d="m92.97-.75-2.46 9.32-9.32 2.47-2.47 9.31.01.01-9.32 2.47.72.72 9.32-2.46 2.47-9.33 9.31-2.47.01.01 2.46-9.33z" fill="#ede6d6"/><path d="m95.05 1.33-2.47 9.31-9.31 2.47-2.47 9.32v.01l-9.31 2.47.72.72 9.32-2.47 2.46-9.32 9.32-2.47.01.01 2.46-9.33z" fill="#ede6d6"/><path d="m97.13 3.4-2.47 9.32-9.32 2.47-2.46 9.32v.01l-9.32 2.46.73.73 9.32-2.47 2.46-9.32 9.32-2.47.01.01 2.46-9.33z" fill="#ede6d6"/><path d="m118.63-22.25-2.47 9.32-9.32 2.47-2.47 9.32h.01l-9.32 2.47.73.73 9.32-2.47 2.46-9.32 9.32-2.47 2.46-9.32z" fill="#ede6d6"/><path d="m120.71-20.17-2.47 9.32-9.32 2.47-2.47 9.32h.01l-9.32 2.47.72.73 9.32-2.47 2.47-9.33 9.31-2.46h.01l2.46-9.32z" fill="#ede6d6"/><path d="m11.89 106.75-2.47 9.32-9.32 2.47-2.47 9.32h.01l-9.32 2.47.72.73 9.32-2.47 2.47-9.32 9.31-2.47h.01l2.46-9.32z" fill="#78401b"/><path d="m13.96 108.83-2.46 9.32-9.32 2.47-2.47 9.32h.01l-9.32 2.47.72.73 9.32-2.47 2.46-9.33 9.32-2.47.01.01 2.46-9.32z" fill="#78401b"/><path d="m16.04 110.91-2.47 9.32-9.31 2.46-2.47 9.32v.01l-9.31 2.47.72.73 9.32-2.47 2.46-9.33 9.32-2.47.01.01 2.46-9.32z" fill="#78401b"/><path d="m35.46 83.18-2.47 9.32-9.32 2.46-2.47 9.32.01.01-9.32 2.47.73.72 9.32-2.46 2.46-9.33 9.32-2.47.01.01 2.46-9.33z" fill="#78401b"/><path d="m37.54 85.26-2.47 9.31-9.32 2.47-2.47 9.32.01.01-9.32 2.47.73.72 9.32-2.47 2.46-9.32 9.32-2.47v.01l2.47-9.33z" fill="#78401b"/><path d="m39.62 87.33-2.47 9.32-9.32 2.47-2.47 9.32.01.01-9.32 2.47.73.72 9.31-2.47 2.47-9.32 9.32-2.47v.01l2.46-9.33z" fill="#78401b"/><path d="m59.03 59.6-2.46 9.32-9.32 2.47-2.47 9.32v.01l-9.31 2.46.72.73 9.32-2.47 2.46-9.32 9.32-2.47h.01l2.46-9.32z" fill="#78401b"/><path d="m61.11 61.68-2.46 9.32-9.32 2.47-2.47 9.32-9.31 2.47.72.73 9.32-2.47 2.46-9.33 9.32-2.46h.01l2.46-9.32z" fill="#78401b"/><path d="m63.19 63.76-2.47 9.32-9.31 2.47-2.47 9.32-9.32 2.47.73.73 9.32-2.47 2.46-9.33 9.32-2.46 2.47-9.32z" fill="#78401b"/><path d="m82.61 36.03-2.47 9.32-9.32 2.47-2.47 9.31.01.01-9.32 2.47.73.73 9.32-2.47 2.46-9.33 9.32-2.47v.01l2.46-9.32z" fill="#78401b"/><path d="m84.69 38.11-2.47 9.32-9.32 2.47-2.47 9.31.01.01-9.32 2.47.73.72 9.31-2.46 2.47-9.33 9.31-2.47.01.01 2.46-9.33z" fill="#78401b"/><path d="m86.77 40.19-2.47 9.32-9.32 2.46-2.47 9.32.01.01-9.32 2.47.72.72 9.32-2.47 2.46-9.32 9.32-2.47.01.01 2.46-9.33z" fill="#78401b"/><path d="m106.18 12.46-2.47 9.31-9.31 2.47-2.47 9.32v.01l-9.32 2.47.73.72 9.32-2.47 2.46-9.32 9.32-2.47.01.01 2.46-9.33z" fill="#78401b"/><path d="m108.26 14.53-2.47 9.32-9.32 2.47-2.46 9.32v.01l-9.32 2.46.73.73 9.32-2.47 2.46-9.32 9.32-2.47.01.01 2.46-9.33z" fill="#78401b"/><path d="m110.34 16.61-2.47 9.32-9.32 2.47-2.47 9.32h.01l-9.32 2.47.73.73 9.32-2.47 2.46-9.32 9.32-2.47 2.47-9.32z" fill="#78401b"/><path d="m129.76-11.12-2.47 9.32-9.32 2.47-2.47 9.32h.01l-9.32 2.47.73.73 9.31-2.47 2.47-9.32 9.31-2.47h.01l2.46-9.32z" fill="#78401b"/><path d="m131.84-9.04-2.47 9.32-9.32 2.47-2.47 9.32-9.31 2.47.72.73 9.32-2.47 2.46-9.33 9.32-2.47.01.01 2.46-9.32z" fill="#78401b"/><path d="m133.91-6.96-2.47 9.32-9.31 2.47-2.47 9.31v.01l-9.31 2.47.72.72 9.32-2.46 2.46-9.33 9.32-2.47.01.01 2.46-9.33z" fill="#78401b"/><g fill="#ede6d6"><path d="m1.52 143.53-2.47 9.32-9.32 2.47-2.47 9.32h.01l-9.32 2.47.73.73 9.32-2.47 2.46-9.32 9.32-2.47 2.47-9.32z"/><path d="m3.6 145.61-2.47 9.32-9.32 2.47-2.47 9.32h.01l-9.32 2.47.73.73 9.31-2.47 2.47-9.33 9.32-2.46 2.47-9.32z"/><path d="m5.68 147.69-2.47 9.32-9.32 2.47-2.47 9.31.01.01-9.32 2.47.73.73 9.31-2.47 2.47-9.33 9.32-2.47v.01l2.46-9.32z"/><path d="m25.09 119.96-2.46 9.32-9.32 2.47-2.47 9.31.01.01-9.32 2.47.72.72 9.32-2.46 2.46-9.33 9.32-2.47.01.01 2.46-9.32z"/><path d="m27.17 122.04-2.47 9.31-9.31 2.47-2.47 9.32v.01l-9.32 2.47.73.72 9.32-2.46 2.46-9.33 9.32-2.47.01.01 2.46-9.33z"/><path d="m29.25 124.12-2.47 9.31-9.32 2.47-2.47 9.32.01.01-9.32 2.47.73.72 9.32-2.47 2.46-9.32 9.32-2.47.01.01 2.46-9.33z"/><path d="m48.67 96.39-2.47 9.31-9.32 2.47-2.47 9.32.01.01-9.32 2.47.73.72 9.32-2.47 2.46-9.32 9.32-2.47v.01l2.46-9.33z"/><path d="m50.75 98.46-2.47 9.32-9.32 2.47-2.47 9.32.01.01-9.32 2.46.73.73 9.31-2.47 2.47-9.32 9.31-2.47h.01l2.46-9.32z"/><path d="m52.83 100.54-2.47 9.32-9.32 2.47-2.47 9.32h.01l-9.32 2.47.72.73 9.32-2.47 2.46-9.32 9.32-2.47h.01l2.46-9.32z"/><path d="m72.24 72.81-2.47 9.32-9.32 2.47-2.46 9.32-9.32 2.47.73.73 9.32-2.47 2.46-9.33 9.32-2.46h.01l2.46-9.32z"/><path d="m74.32 74.89-2.47 9.32-9.32 2.47-2.47 9.32h.01l-9.32 2.47.73.73 9.32-2.47 2.46-9.33 9.32-2.47v.01l2.47-9.32z"/><path d="m76.4 76.97-2.47 9.32-9.32 2.46-2.47 9.32.01.01-9.32 2.47.73.72 9.32-2.46 2.46-9.33 9.32-2.47v.01l2.47-9.33z"/><path d="m95.82 49.24-2.47 9.31-9.32 2.47-2.47 9.32.01.01-9.32 2.47.72.72 9.32-2.46 2.46-9.33 9.32-2.47.01.01 2.46-9.33z"/><path d="m97.89 51.31-2.46 9.32-9.32 2.47-2.47 9.32v.01l-9.31 2.46.72.73 9.32-2.47 2.46-9.32 9.32-2.47.01.01 2.46-9.33z"/><path d="m99.97 53.39-2.47 9.32-9.31 2.47-2.47 9.32-9.31 2.47.72.73 9.32-2.47 2.46-9.32 9.32-2.47h.01l2.46-9.32z"/><path d="m119.39 25.66-2.47 9.32-9.32 2.47-2.47 9.32h.01l-9.32 2.47.73.73 9.32-2.47 2.46-9.32 9.32-2.47 2.47-9.32z"/><path d="m121.47 27.74-2.47 9.32-9.32 2.47-2.47 9.32h.01l-9.32 2.47.73.73 9.31-2.47 2.47-9.32 9.32-2.47 2.46-9.32z"/><path d="m123.55 29.82-2.47 9.32-9.32 2.47-2.47 9.31.01.01-9.32 2.47.72.73 9.32-2.47 2.47-9.33 9.31-2.47.01.01 2.46-9.32z"/><path d="m142.96 2.09-2.46 9.32-9.32 2.47-2.47 9.31v.01l-9.31 2.47.72.72 9.32-2.46 2.46-9.33 9.32-2.47.01.01 2.46-9.33z"/><path d="m145.04 4.17-2.47 9.32-9.32 2.46-2.46 9.32v.01l-9.32 2.47.73.72 9.32-2.47 2.46-9.32 9.32-2.47.01.01 2.46-9.33z"/><path d="m147.12 6.25-2.47 9.31-9.32 2.47-2.46 9.32v.01l-9.32 2.47.73.72 9.32-2.47 2.46-9.32 9.32-2.47v.01l2.47-9.33z"/><path d="m166.54-21.48-2.47 9.31-9.32 2.47-2.47 9.32.01.01-9.32 2.47.73.72 9.31-2.47 2.47-9.32 9.31-2.47.01.01 2.46-9.33z"/><path d="m168.62-19.41-2.47 9.32-9.32 2.47-2.47 9.32.01.01-9.32 2.46.73.73 9.31-2.47 2.47-9.32 9.31-2.47h.01l2.46-9.32z"/><path d="m170.69-17.33-2.46 9.32-9.32 2.47-2.47 9.32-9.31 2.47.72.73 9.32-2.47 2.46-9.33 9.32-2.46h.01l2.46-9.32z"/></g><path d="m38.3 133.17-2.47 9.31-9.32 2.47-2.46 9.32v.01l-9.32 2.47.73.72 9.32-2.47 2.46-9.32 9.32-2.47v.01l2.47-9.33z" fill="#feffe0"/><path d="m40.38 135.24-2.47 9.32-9.32 2.47-2.47 9.32.01.01-9.32 2.46.73.73 9.32-2.47 2.46-9.32 9.32-2.47 2.47-9.32z" fill="#feffe0"/><path d="m42.46 137.32-2.47 9.32-9.32 2.47-2.47 9.32h.01l-9.32 2.47.73.73 9.31-2.47 2.47-9.32 9.32-2.47 2.47-9.32z" fill="#feffe0"/><path d="m61.88 109.59-2.47 9.32-9.32 2.47-2.47 9.32h.01l-9.32 2.47.72.73 9.32-2.47 2.46-9.32 9.32-2.47h.01l2.46-9.32z" fill="#feffe0"/><path d="m63.95 111.67-2.47 9.32-9.31 2.47-2.47 9.32-9.31 2.47.72.73 9.32-2.47 2.46-9.33 9.32-2.46h.01l2.46-9.32z" fill="#feffe0"/><path d="m66.03 113.75-2.47 9.32-9.32 2.47-2.46 9.31v.01l-9.32 2.47.73.73 9.32-2.47 2.46-9.33 9.32-2.47.01.01 2.46-9.33z" fill="#feffe0"/><path d="m85.45 86.02-2.47 9.32-9.32 2.47-2.47 9.31.01.01-9.32 2.47.73.72 9.32-2.46 2.46-9.33 9.32-2.47v.01l2.47-9.33z" fill="#feffe0"/><path d="m87.53 88.1-2.47 9.32-9.32 2.46-2.47 9.32.01.01-9.32 2.47.73.72 9.31-2.47 2.47-9.32 9.31-2.47.01.01 2.46-9.33z" fill="#feffe0"/><path d="m89.61 90.17-2.47 9.32-9.32 2.47-2.47 9.32.01.01-9.32 2.46.73.73 9.31-2.47 2.47-9.32 9.31-2.47.01.01 2.46-9.33z" fill="#feffe0"/><path d="m109.02 62.44-2.47 9.32-9.31 2.47-2.47 9.32v.01l-9.32 2.46.73.73 9.32-2.47 2.46-9.32 9.32-2.47.01.01 2.46-9.33z" fill="#feffe0"/><path d="m111.1 64.52-2.47 9.32-9.32 2.47-2.46 9.32-9.32 2.47.73.73 9.32-2.47 2.46-9.32 9.32-2.47 2.47-9.32z" fill="#feffe0"/><path d="m113.18 66.6-2.47 9.32-9.32 2.47-2.47 9.32h.01l-9.32 2.47.73.73 9.32-2.47 2.46-9.33 9.32-2.46 2.47-9.32z" fill="#feffe0"/><path d="m132.6 38.87-2.47 9.32-9.32 2.47-2.47 9.32h.01l-9.32 2.47.73.73 9.31-2.47 2.47-9.33 9.31-2.47.01.01 2.46-9.32z" fill="#feffe0"/><path d="m134.68 40.95-2.47 9.32-9.32 2.46-2.47 9.32.01.01-9.32 2.47.72.72 9.32-2.46 2.46-9.33 9.32-2.47.01.01 2.46-9.33z" fill="#feffe0"/><path d="m136.75 43.03-2.47 9.31-9.31 2.47-2.47 9.32v.01l-9.31 2.47.72.72 9.32-2.47 2.46-9.32 9.32-2.47.01.01 2.46-9.33z" fill="#feffe0"/><path d="m156.17 15.3-2.47 9.31-9.32 2.47-2.47 9.32.01.01-9.32 2.47.73.72 9.32-2.47 2.46-9.32 9.32-2.47.01.01 2.46-9.33z" fill="#feffe0"/><path d="m158.25 17.38-2.47 9.31-9.32 2.47-2.47 9.32.01.01-9.32 2.46.73.73 9.32-2.47 2.46-9.32 9.32-2.47v.01l2.47-9.33z" fill="#feffe0"/><path d="m160.33 19.45-2.47 9.32-9.32 2.47-2.47 9.32h.01l-9.32 2.47.73.73 9.32-2.47 2.46-9.32 9.32-2.47 2.46-9.32z" fill="#feffe0"/><path d="m49.82 144.69-2.46 9.32-9.32 2.47-2.47 9.31.01.01-9.32 2.47.72.73 9.32-2.47 2.46-9.33 9.32-2.47.01.01 2.46-9.33z" fill="#78401b"/><path d="m51.9 146.77-2.47 9.32-9.31 2.46-2.47 9.32v.01l-9.31 2.47.72.72 9.32-2.47 2.46-9.32 9.32-2.47.01.01 2.46-9.33z" fill="#78401b"/><path d="m53.98 148.85-2.47 9.31-9.32 2.47-2.46 9.32v.01l-9.32 2.47.73.72 9.32-2.47 2.46-9.32 9.32-2.47v.01l2.47-9.33z" fill="#78401b"/><path d="m73.4 121.11-2.47 9.32-9.32 2.47-2.47 9.32.01.01-9.32 2.46.73.73 9.32-2.47 2.46-9.32 9.32-2.47v.01l2.47-9.33z" fill="#78401b"/><path d="m75.48 123.19-2.47 9.32-9.32 2.47-2.47 9.32.01.01-9.32 2.46.72.73 9.32-2.47 2.47-9.32 9.31-2.47h.01l2.46-9.32z" fill="#78401b"/><path d="m77.56 125.27-2.47 9.32-9.32 2.47-2.47 9.32-9.31 2.47.72.73 9.32-2.47 2.47-9.33 9.31-2.46h.01l2.46-9.32z" fill="#78401b"/><path d="m96.97 97.54-2.47 9.32-9.31 2.47-2.47 9.32-9.32 2.47.73.73 9.32-2.47 2.46-9.33 9.32-2.46h.01l2.46-9.32z" fill="#78401b"/><path d="m99.05 99.62-2.47 9.32-9.32 2.47-2.46 9.31v.01l-9.32 2.47.73.73 9.32-2.47 2.46-9.33 9.32-2.47v.01l2.47-9.32z" fill="#78401b"/><path d="m101.13 101.7-2.47 9.32-9.32 2.46-2.47 9.32.01.01-9.32 2.47.73.72 9.32-2.46 2.46-9.33 9.32-2.47v.01l2.47-9.33z" fill="#78401b"/><path d="m120.55 73.97-2.47 9.31-9.32 2.47-2.47 9.32.01.01-9.32 2.47.72.72 9.32-2.46 2.47-9.33 9.31-2.47.01.01 2.46-9.33z" fill="#78401b"/><path d="m122.62 76.05-2.46 9.31-9.32 2.47-2.47 9.32.01.01-9.32 2.47.72.72 9.32-2.47 2.46-9.32 9.32-2.47.01.01 2.46-9.33z" fill="#78401b"/><path d="m124.7 78.12-2.47 9.32-9.31 2.47-2.47 9.32-9.31 2.47.72.73 9.32-2.47 2.46-9.32 9.32-2.47h.01l2.46-9.32z" fill="#78401b"/><path d="m144.12 50.39-2.47 9.32-9.32 2.47-2.47 9.32h.01l-9.32 2.47.73.73 9.32-2.47 2.46-9.32 9.32-2.47 2.47-9.32z" fill="#78401b"/><path d="m146.2 52.47-2.47 9.32-9.32 2.47-2.47 9.32h.01l-9.32 2.47.73.73 9.32-2.47 2.46-9.33 9.32-2.46 2.47-9.32z" fill="#78401b"/><path d="m148.28 54.55-2.47 9.32-9.32 2.47-2.47 9.32h.01l-9.32 2.47.73.73 9.31-2.47 2.47-9.33 9.31-2.47.01.01 2.46-9.32z" fill="#78401b"/><path d="m167.69 26.82-2.47 9.32-9.31 2.47-2.47 9.31v.01l-9.31 2.47.72.73 9.32-2.47 2.46-9.33 9.32-2.47.01.01 2.46-9.32z" fill="#78401b"/><path d="m169.77 28.9-2.47 9.32-9.31 2.46-2.47 9.32v.01l-9.31 2.47.72.72 9.32-2.47 2.46-9.32 9.32-2.47.01.01 2.46-9.33z" fill="#78401b"/><path d="m171.85 30.98-2.47 9.31-9.32 2.47-2.47 9.32.01.01-9.32 2.47.73.72 9.32-2.47 2.46-9.32 9.32-2.47.01.01 2.46-9.33z" fill="#78401b"/><path d="m86.61 134.32-2.47 9.32-9.32 2.47-2.47 9.32h.01l-9.32 2.47.72.73 9.32-2.47 2.47-9.32 9.31-2.47h.01l2.46-9.32z" fill="#ede6d6"/><path d="m88.68 136.4-2.46 9.32-9.32 2.47-2.47 9.32-9.31 2.47.72.73 9.32-2.47 2.46-9.33 9.32-2.47.01.01 2.46-9.32z" fill="#ede6d6"/><path d="m90.76 138.48-2.47 9.32-9.32 2.47-2.46 9.31v.01l-9.32 2.47.73.72 9.32-2.46 2.46-9.33 9.32-2.47.01.01 2.46-9.32z" fill="#ede6d6"/><path d="m110.18 110.75-2.47 9.32-9.32 2.46-2.47 9.32.01.01-9.32 2.47.73.73 9.32-2.47 2.46-9.33 9.32-2.47v.01l2.47-9.33z" fill="#ede6d6"/><path d="m112.26 112.83-2.47 9.31-9.32 2.47-2.47 9.32.01.01-9.32 2.47.73.72 9.31-2.47 2.47-9.32 9.32-2.47v.01l2.46-9.33z" fill="#ede6d6"/><path d="m114.34 114.91-2.47 9.31-9.32 2.47-2.47 9.32.01.01-9.32 2.47.73.72 9.31-2.47 2.47-9.32 9.31-2.47.01.01 2.46-9.33z" fill="#ede6d6"/><path d="m133.75 87.17-2.47 9.32-9.31 2.47-2.47 9.32-9.31 2.47.72.73 9.32-2.47 2.46-9.32 9.32-2.47h.01l2.46-9.32z" fill="#ede6d6"/><path d="m135.83 89.25-2.47 9.32-9.31 2.47-2.47 9.32-9.32 2.47.73.73 9.32-2.47 2.46-9.32 9.32-2.47 2.47-9.32z" fill="#ede6d6"/><path d="m137.91 91.33-2.47 9.32-9.32 2.47-2.46 9.32-9.32 2.47.73.73 9.32-2.47 2.46-9.33 9.32-2.46 2.47-9.32z" fill="#ede6d6"/><path d="m157.33 63.6-2.47 9.32-9.32 2.47-2.47 9.31.01.01-9.32 2.47.73.73 9.31-2.47 2.47-9.33 9.32-2.47v.01l2.46-9.32z" fill="#ede6d6"/><path d="m159.41 65.68-2.47 9.32-9.32 2.47-2.47 9.31.01.01-9.32 2.47.72.72 9.32-2.46 2.46-9.33 9.32-2.47.01.01 2.46-9.32z" fill="#ede6d6"/><path d="m161.48 67.76-2.47 9.32-9.31 2.46-2.47 9.32v.01l-9.31 2.47.72.72 9.32-2.47 2.46-9.32 9.32-2.47.01.01 2.46-9.33z" fill="#ede6d6"/><path d="m99.81 147.53-2.47 9.32-9.31 2.47-2.47 9.31v.01l-9.31 2.47.72.73 9.32-2.47 2.46-9.33 9.32-2.47.01.01 2.46-9.32z" fill="#feffe0"/><path d="m101.89 149.61-2.47 9.32-9.32 2.47-2.46 9.31v.01l-9.32 2.47.73.72 9.32-2.47 2.46-9.32 9.32-2.47.01.01 2.46-9.33z" fill="#feffe0"/><path d="m103.97 151.69-2.47 9.31-9.32 2.47-2.47 9.32.01.01-9.32 2.47.73.72 9.32-2.47 2.46-9.32 9.32-2.47v.01l2.47-9.33z" fill="#feffe0"/><path d="m123.39 123.95-2.47 9.32-9.32 2.47-2.47 9.32.01.01-9.32 2.46.73.73 9.31-2.47 2.47-9.32 9.31-2.47.01.01 2.46-9.33z" fill="#feffe0"/><path d="m125.47 126.03-2.47 9.32-9.32 2.47-2.47 9.32.01.01-9.32 2.46.72.73 9.32-2.47 2.46-9.32 9.32-2.47.01.01 2.46-9.33z" fill="#feffe0"/><path d="m127.54 128.11-2.46 9.32-9.32 2.47-2.47 9.32-9.31 2.47.72.73 9.32-2.47 2.46-9.32 9.32-2.47h.01l2.46-9.32z" fill="#feffe0"/><path d="m146.96 100.38-2.47 9.32-9.32 2.47-2.46 9.32-9.32 2.47.73.73 9.32-2.47 2.46-9.33 9.32-2.46 2.47-9.32z" fill="#feffe0"/><path d="m149.04 102.46-2.47 9.32-9.32 2.47-2.47 9.31.01.01-9.32 2.47.73.73 9.32-2.47 2.46-9.33 9.32-2.47v.01l2.46-9.32z" fill="#feffe0"/><path d="m151.12 104.54-2.47 9.32-9.32 2.47-2.47 9.31.01.01-9.32 2.47.73.72 9.31-2.46 2.47-9.33 9.32-2.47v.01l2.46-9.32z" fill="#feffe0"/><path d="m170.53 76.81-2.46 9.32-9.32 2.46-2.47 9.32v.01l-9.31 2.47.72.72 9.32-2.47 2.46-9.32 9.32-2.47.01.01 2.46-9.33z" fill="#feffe0"/><path d="m172.61 78.89-2.47 9.31-9.31 2.47-2.47 9.32v.01l-9.32 2.47.73.72 9.32-2.47 2.46-9.32 9.32-2.47.01.01 2.46-9.33z" fill="#feffe0"/><path d="m174.69 80.96-2.47 9.32-9.32 2.47-2.46 9.32v.01l-9.32 2.46.73.73 9.32-2.47 2.46-9.32 9.32-2.47.01.01 2.46-9.33z" fill="#feffe0"/><path d="m136.59 137.16-2.46 9.32-9.32 2.47-2.47 9.32-9.31 2.47.72.73 9.32-2.47 2.46-9.32 9.32-2.47h.01l2.46-9.32z" fill="#ede6d6"/><path d="m138.67 139.24-2.47 9.32-9.31 2.47-2.47 9.32-9.32 2.47.73.73 9.32-2.47 2.46-9.33 9.32-2.46h.01l2.46-9.32z" fill="#ede6d6"/><path d="m140.75 141.32-2.47 9.32-9.32 2.47-2.46 9.32-9.32 2.47.73.73 9.32-2.47 2.46-9.33 9.32-2.47v.01l2.47-9.32z" fill="#ede6d6"/><path d="m160.17 113.59-2.47 9.32-9.32 2.47-2.47 9.31.01.01-9.32 2.47.73.73 9.31-2.47 2.47-9.33 9.32-2.47v.01l2.46-9.33z" fill="#ede6d6"/><path d="m162.25 115.67-2.47 9.31-9.32 2.47-2.47 9.32.01.01-9.32 2.47.73.72 9.31-2.47 2.47-9.32 9.31-2.47.01.01 2.46-9.33z" fill="#ede6d6"/><path d="m164.32 117.75-2.46 9.31-9.32 2.47-2.47 9.32v.01l-9.31 2.46.72.73 9.32-2.47 2.46-9.32 9.32-2.47.01.01 2.46-9.33z" fill="#ede6d6"/><path d="m149.8 150.37-2.47 9.32-9.32 2.47-2.47 9.31.01.01-9.32 2.47.73.73 9.32-2.47 2.46-9.33 9.32-2.47v.01l2.47-9.32z" fill="#feffe0"/><path d="m151.88 152.45-2.47 9.32-9.32 2.47-2.47 9.31.01.01-9.32 2.47.73.72 9.32-2.46 2.46-9.33 9.32-2.47v.01l2.47-9.33z" fill="#feffe0"/><path d="m153.96 154.53-2.47 9.31-9.32 2.47-2.47 9.32.01.01-9.32 2.47.73.72 9.31-2.47 2.47-9.32 9.32-2.47v.01l2.46-9.33z" fill="#feffe0"/><path d="m173.38 126.8-2.47 9.31-9.32 2.47-2.47 9.32.01.01-9.32 2.47.72.72 9.32-2.47 2.46-9.32 9.32-2.47.01.01 2.46-9.33z" fill="#feffe0"/><path d="m175.45 128.87-2.46 9.32-9.32 2.47-2.47 9.32v.01l-9.32 2.46.73.73 9.32-2.47 2.46-9.32 9.32-2.47.01.01 2.46-9.33z" fill="#feffe0"/><path d="m177.53 130.95-2.47 9.32-9.31 2.47-2.47 9.32-9.32 2.47.73.73 9.32-2.47 2.46-9.32 9.32-2.47 2.47-9.32z" fill="#feffe0"/></g></svg>