<svg viewBox="0 0 200 200" xmlns="http://www.w3.org/2000/svg"><path d="m100 27.46h-4.73q-3.48.25-6.84.84h-.37a3 3 0 0 0 .53 6 3.29 3.29 0 0 0 .54 0 60.69 60.69 0 0 1 10.87-1 3 3 0 0 0 0-6zm-22.52 4a3.08 3.08 0 0 0 -1 .17h-.6l-.24.09h-.18a71.94 71.94 0 0 0 -7.46 3.54l-.35.18h-.31c-.51.26-1 .54-1.52.82a3 3 0 1 0 2.92 5.24 65.91 65.91 0 0 1 10-4.5 3 3 0 0 0 -1-5.83zm-20 11.11a3 3 0 0 0 -1.87.65c-1.68 1.34-3.3 2.76-4.85 4.24l-.35.33-.21.21-.11.11-.25.27c-.43.45-.86.91-1.27 1.38a3 3 0 1 0 4.46 4 67 67 0 0 1 8-7.55 3 3 0 0 0 -1.87-5.34zm-15.29 17a3 3 0 0 0 -2.54 1.43c-1.24 2-2.39 4-3.45 6.05l-.12.26v.36l-.21.44c-.29.62-.56 1.25-.83 1.88a3 3 0 1 0 4.57 4.01 66.25 66.25 0 0 1 5.1-9.73 3 3 0 0 0 -2.53-4.61zm-8.93 21.14a3 3 0 0 0 -2.92 2.29c-.18.75-.35 1.51-.5 2.27v.05.08.08.08.08.08.08 1.2.08.08.51.12.08.31.45.08.13.22.22.22.13.37.36 1.18.13.28.19.05c0 .43-.08.86-.11 1.28a3 3 0 0 0 2.79 3.21h.21a3 3 0 0 0 3-2.79 67.32 67.32 0 0 1 1.67-10.87 3 3 0 0 0 -3.4-2.23 3.42 3.42 0 0 0 -.7-.08zm-1.62 22.87h-.28a3 3 0 0 0 -2.71 3.25c.17 1.89.41 3.75.73 5.6v.08.07.39.08.08.22.08.09.09.14c.28 1.43.61 2.85 1 4.26a3 3 0 0 0 2.9 2.24 2.89 2.89 0 0 0 .76-.1 3 3 0 0 0 2.14-3.66 68.11 68.11 0 0 1 -1.9-10.84 3 3 0 0 0 -3-2.72zm5.79 22.16a2.94 2.94 0 0 0 -1.22.26 3 3 0 0 0 -1.52 4 72.33 72.33 0 0 0 5.8 10.5 3 3 0 0 0 2.51 1.3 3 3 0 0 0 1.65-.5 3 3 0 0 0 .84-4.16 66.84 66.84 0 0 1 -5.31-9.63 3 3 0 0 0 -2.74-1.77zm12.68 19.07a3 3 0 0 0 -2.19 5.05l.05.06.09.1.13.13c.82.86 1.67 1.7 2.53 2.51a2.39 2.39 0 0 0 .23.22l.06.05h.06l.06.05.11.09.11.09c1.13 1 2.29 1.93 3.49 2.85a3 3 0 0 0 3.64-4.77 67 67 0 0 1 -8.15-7.38 3 3 0 0 0 -2.19-.95zm18.19 13.9a3 3 0 0 0 -1.41 5.65c1.18.62 2.38 1.21 3.59 1.77l.12.06h.07.06.07.29.22.69.19.13.14.54.14.09.09.09.1.1.1.09.09.09.74.07.06l2.12.73a2.89 2.89 0 0 0 .92.14 3 3 0 0 0 .93-5.85 64.82 64.82 0 0 1 -10.1-4.28 2.94 2.94 0 0 0 -1.4-.35zm21.7 7.11a3 3 0 0 0 -.44 6q3.25.48 6.6.66h4.38 1a3 3 0 0 0 -.07-6h-1.47a65.66 65.66 0 0 1 -9.52-.69h-.44zm34-3.63a3 3 0 0 0 -1.06.2 64.47 64.47 0 0 1 -10.56 3 3 3 0 0 0 .57 5.95 2.74 2.74 0 0 0 .56-.06c.93-.18 1.84-.37 2.76-.59h.05.08.06.08 1.35.09.09.18q2.74-.73 5.4-1.67l.13-.05h.08.08.59.08a3 3 0 0 0 -1.06-5.81zm19.75-11.55a3 3 0 0 0 -1.92.7 66.43 66.43 0 0 1 -9 6.32 3 3 0 0 0 1.52 5.59 3 3 0 0 0 1.51-.41q2.64-1.54 5.13-3.3l.3-.22.16-.1.11-.08.11-.08.07-.05h.08l.07-.06.07-.05.11-.09.86-.71a3 3 0 0 0 -1.92-5.31zm14.91-17.38a3 3 0 0 0 -2.57 1.44 66.47 66.47 0 0 1 -6.44 8.92 3 3 0 1 0 4.55 3.9l.05-.07.09-.11q2.16-2.9 4-6a3 3 0 0 0 -2.57-4.55zm8.42-21.26a3 3 0 0 0 -2.93 2.37 66.48 66.48 0 0 1 -3.2 10.52 3 3 0 0 0 1.68 3.89 2.89 2.89 0 0 0 1.11.22 3 3 0 0 0 2.78-1.89c.33-.82.64-1.64.93-2.47v-.08-.05-.12-.32-.08-.08-.09-.13q1.05-3.25 1.8-6.63v-.09-.09a3 3 0 0 0 -2.3-3.56 2.7 2.7 0 0 0 -.63-.07zm1.13-22.9h-.34a3 3 0 0 0 -2.64 3.32 70 70 0 0 1 .43 7.68c0 1.11 0 2.23-.08 3.34a3 3 0 0 0 2.85 3.14h.15a3 3 0 0 0 3-2.85c0-.22 0-.46 0-.69 0-.59 0-1.19 0-1.78v-1.26-.09-.08-.83-.23-.18-.87-.15-.06-.08-.06-.37-.2-.05-.06-.09-.06-.06-.09-.39-.08-.09-.06-.06-.12-.18-.35-.18-.88-.09-.09c0-.65-.12-1.29-.19-1.93a3 3 0 0 0 -3-2.66zm-6.29-22a2.92 2.92 0 0 0 -1.28.29 3 3 0 0 0 -1.43 4 66 66 0 0 1 3.88 10.28 3 3 0 0 0 2.91 2.13 3.3 3.3 0 0 0 .82-.11 3 3 0 0 0 2.07-3.7 72.1 72.1 0 0 0 -4.24-11.23 3 3 0 0 0 -2.71-1.71zm-13.1-18.79a3 3 0 0 0 -2.14 5.1 66.78 66.78 0 0 1 7 8.47 3 3 0 0 0 4.92-3.43 74.11 74.11 0 0 0 -5.6-7.14c-.41-.43-.81-.86-1.23-1.28a3 3 0 0 0 -2.14-.9zm-18.49-13.54a3 3 0 0 0 -1.33 5.68 65.59 65.59 0 0 1 9.38 5.71 3 3 0 0 0 1.77.58 3 3 0 0 0 1.77-5.42c-.57-.42-1.16-.83-1.74-1.24l-.21-.15h-.06-.05-.06-.06-.06-.07l-.31-.2c-2-1.3-4.18-2.5-6.37-3.6a3.05 3.05 0 0 0 -1.34-.31zm-21.89-6.77a3 3 0 0 0 -.39 6 60.77 60.77 0 0 1 10.1 2.23l.27.08h.08l.29.09h.06a2.92 2.92 0 0 0 .83.12 3 3 0 0 0 2.89-2.17 3 3 0 0 0 -2-3.69l-.24-.07h-.06l-.2-.06-.16-.05h-.28-.08-.21-.13-.16-.18a67.08 67.08 0 0 0 -10-2.1 2.56 2.56 0 0 0 -.39 0z" fill="#351a10"/></svg>