<svg viewBox="0 0 156 156" xmlns="http://www.w3.org/2000/svg"><ellipse cx="78" cy="78.09" fill="#732119" rx="49.6" ry="70.98"/><ellipse cx="78" cy="76.64" fill="#91312b" rx="48.74" ry="69.57"/><ellipse cx="78" cy="75.18" fill="#b0423c" rx="47.89" ry="68.16"/><ellipse cx="78" cy="73.73" fill="#ce524e" rx="47.03" ry="66.75"/><ellipse cx="78" cy="72.28" fill="#ec625f" rx="46.17" ry="65.35"/><ellipse cx="78" cy="72.28" fill="#f06d69" rx="44.85" ry="63.47"/><ellipse cx="78" cy="72.28" fill="#f37873" rx="43.52" ry="61.6"/><ellipse cx="78" cy="72.28" fill="#f7837d" rx="42.2" ry="59.72"/><ellipse cx="78" cy="72.28" fill="#fb8e87" rx="40.87" ry="57.84"/><g opacity=".2"><ellipse cx="78.7" cy="72.21" fill="#ffdec2" rx="41.59" ry="57.84"/><path d="m78.7 130.92c-23.33 0-42.32-26.27-42.32-58.57s19-58.58 42.32-58.58 42.3 26.28 42.3 58.58-19 58.57-42.3 58.57zm0-115.68c-22.53 0-40.86 25.62-40.86 57.11s18.33 57.11 40.86 57.11 40.86-25.62 40.86-57.11-18.33-57.11-40.86-57.11z" fill="#fff"/></g><path d="m62.21 129.29a2.88 2.88 0 0 1 -2.27-1 4.48 4.48 0 0 1 -.86-3.48 16.6 16.6 0 0 1 5.51-10.28c4.19-3.31 10.62-3 18.09.49q3.33-2 6.09-3.74l1.55-1c-6-2.71-11.06-4.9-15.28-6.65-2.14 1.32-4.38 2.69-6.74 4.11-6.63 4-13.49 8.09-17.39 4.61-1.67-1.49-2.64-4.41-2.59-7.82.06-3.73 1.32-7 3.37-8.72 2.31-2 5.51-2.61 23.06 4.55 5.15-3.22 9.64-6.16 13.54-8.77-7.05-3.25-12.64-6.21-17.05-8.59a76.22 76.22 0 0 1 -12.36 7.75c-5.17 2.61-12.25 6.17-15 2.74-1.51-1.86-1.11-5.08-.74-6.84.94-4.45 3.87-10 8.29-12.21 5.18-2.66 10-.09 19.53 5.07a108.86 108.86 0 0 0 8.56-7.82 76.83 76.83 0 0 1 -14.66-8.09q-3 1.79-6.26 3.65c-7.76 4.35-14 7.41-17.72 4.19-2.47-2.14-3.22-6.57-3.11-10 .16-4.7 1.78-8.64 4.31-10.55 4.87-3.67 11.07.78 18.93 6.43 1.27.91 2.59 1.86 4 2.8 5.37-3.3 9.89-6.41 13.84-9.22a74.78 74.78 0 0 1 -10.72-7.22 37.51 37.51 0 0 1 -8.93 3.36c-3.39.79-14.65 3-17.14-2.48-1.67-3.63 1-11 6.07-13.55 5.62-2.85 11 1.57 17.84 7.17l2.43 2a50.61 50.61 0 0 0 10.2-8.38 32.22 32.22 0 0 0 -7.6-4.27c-6.07-2.27-13-2.41-20.55-.4a1.46 1.46 0 0 1 -.74-2.83c8.16-2.16 15.67-2 22.31.49a36.16 36.16 0 0 1 8.54 4.78l.11.08 2.22-2.47c5.26-5.86 9.8-10.93 15.82-9.5 3.74.89 7.32 4.2 9.56 8.87 1.72 3.58 2.14 7 1.12 9.17a6.08 6.08 0 0 1 -4.25 3.1l.29.11c5.41 2.12 9.78 8.7 8.51 12.8-1.94 6.27-15.94 4.88-18.77 4.55a44.24 44.24 0 0 1 -13.44-3.82c-4 2.88-8.63 6.1-14.17 9.55a69.71 69.71 0 0 0 14.16 7.53c5.68-5.66 10.44-10 18-10.35 6.36-.29 12.67 2.41 15.38 5.09a4.51 4.51 0 0 1 1.62 3.27c-.15 4.89-12.92 7.06-17.37 7.44a42.21 42.21 0 0 1 -16.88-2.11c-2.54 2.54-5.37 5.36-8.79 8.21 4.54 2.44 10.25 5.42 17.41 8.67l4-2.7c11.57-7.87 16.37-11.13 19.63-8.42 1.4 1.15 2.15 3.36 2.12 6.23 0 3.83-1.52 8.84-4.75 11.41-4.39 3.49-10.5 1.25-18.65-2.3l-2-.89c-3.83 2.57-8.25 5.5-13.36 8.72 4.3 1.8 9.33 4 15.27 6.7 10.38-6.34 14-8.08 16.6-5.74a6.48 6.48 0 0 1 1.81 4.83 9.34 9.34 0 0 1 -2.33 6.67c-3.39 3.25-9.37.51-12.59-1l-3.29-1.5-3.22 2-4.6 2.83a68 68 0 0 1 10.78 7.73 1.46 1.46 0 0 1 -1.91 2.22 62.06 62.06 0 0 0 -11.75-8.19c-3 1.83-6.34 3.85-10 6-4.72 2.84-8.23 4.93-10.64 4.93zm9.71-14.15a8.65 8.65 0 0 0 -5.51 1.71c-3.45 2.73-5 8.56-4.29 9.52 1 .4 6.12-2.64 9.16-4.44s5.81-3.48 8.37-5a21 21 0 0 0 -7.73-1.79zm24.63-5.14 1.46.67c2.43 1.11 7.42 3.4 9.38 1.52a6.57 6.57 0 0 0 1.43-4.51 3.94 3.94 0 0 0 -.82-2.68c-1.08-1-4.85 1-11.45 5zm-40.85-12.46a3.25 3.25 0 0 0 -2.13.58c-1.39 1.18-2.28 3.68-2.32 6.54 0 2.45.61 4.7 1.61 5.59 2.29 2.06 9-2 13.94-4.94q2.53-1.52 4.89-3c-8.85-3.51-13.5-4.77-15.99-4.77zm38.58-6.38.34.15c8.35 3.62 12.82 5 15.67 2.68 2.36-1.87 3.62-6 3.65-9.15 0-2.25-.53-3.51-1.06-4-1.57-1.31-7.37 2.63-16.13 8.59zm-38.6-14.76a6.2 6.2 0 0 0 -2.94.72c-3.55 1.82-6 6.57-6.77 10.21-.48 2.3-.26 3.89.15 4.39 1.3 1.61 8.94-2.23 11.45-3.5a73.31 73.31 0 0 0 10.84-6.67c-6.03-3.25-9.73-5.15-12.73-5.15zm29.15-5.82a39 39 0 0 0 14.31 1.5c7.74-.66 14.54-3.31 14.7-4.62 0-.1-.15-.53-.84-1.18-2.34-2.23-7.88-4.39-13.11-4.17-6.09.27-10.14 3.62-15.06 8.47zm-38.78-18a3.61 3.61 0 0 0 -2.24.71c-1.78 1.34-3 4.61-3.15 8.32-.11 3.41.73 6.5 2.11 7.69 2.06 1.79 6.83-.31 14.37-4.53 1.76-1 3.44-2 5.06-2.92l-2.93-2.09c-5.45-3.91-10-7.17-13.22-7.17zm38.45-2.11a40.9 40.9 0 0 0 11 2.91c6.87.82 14.79.09 15.59-2.51.68-2.2-2.35-7.48-6.79-9.22-4.94-1.94-10 1.76-19.34 8.47zm-13.72-8.29a66.68 66.68 0 0 0 10.66 6.89l1.83-1.32c5.67-4.1 10-7.25 14-8.7a49 49 0 0 1 -7.51-1.51 31 31 0 0 1 -8.66-4.06 56.09 56.09 0 0 1 -10.32 8.7zm-19.11-9a5 5 0 0 0 -2.3.56c-3.7 1.87-5.72 7.59-4.74 9.72 1.24 2.69 9.13 1.95 13.82.85a33.91 33.91 0 0 0 7.09-2.52l-1.54-1.27c-5.45-4.52-9.15-7.38-12.33-7.38zm31.4-1.83a27.48 27.48 0 0 0 7.47 3.42c6.77 2 14.87 2.49 16.17-.26.51-1.09.37-3.57-1.11-6.66s-4.19-6.48-7.61-7.29c-4.32-1-8.13 3.23-13 8.61z" fill="#5b3114"/><path d="m62.23 128.17a1.85 1.85 0 0 1 -1.48-.59 3.52 3.52 0 0 1 -.58-2.65 15.42 15.42 0 0 1 5.1-9.51c4-3.13 10.2-2.72 17.49.87l6.59-4.05 3.3-2c-7.15-3.24-13-5.77-17.72-7.73-2.27 1.42-4.66 2.88-7.19 4.4-7.26 4.35-13 7.46-16.1 4.74-1.41-1.27-2.27-4-2.22-7 0-3.42 1.16-6.38 3-7.9s5.12-2.18 22.47 4.94c6.11-3.83 11.25-7.25 15.63-10.2-8.21-3.72-14.54-7.1-19.39-9.72a75.59 75.59 0 0 1 -12.74 8.09c-4.56 2.29-11.46 5.77-13.69 3-.89-1.09-1.08-3.25-.51-5.92.88-4.19 3.61-9.35 7.71-11.46 4.69-2.4 9.37.12 18.67 5.15l.48.26a118.7 118.7 0 0 0 10.4-9.54 74.64 74.64 0 0 1 -16.59-9q-3.21 1.95-6.84 4c-8.64 4.84-13.55 6.84-16.46 4.32-1.82-1.58-2.87-5.08-2.73-9.14.15-4.36 1.6-8 3.87-9.71 4.22-3.18 10.14 1.07 17.63 6.45 1.44 1 3 2.12 4.55 3.22 6.35-3.88 11.54-7.49 16-10.68a72 72 0 0 1 -12.71-8.38 36.3 36.3 0 0 1 -9.29 3.6c-1.39.32-13.65 3-15.9-1.87-1.45-3.15 1.1-9.84 5.58-12.11 5-2.52 10.13 1.69 16.64 7 1 .81 2 1.63 3 2.47a52.25 52.25 0 0 0 12-9.94l-.81-.56a33.72 33.72 0 0 0 -8.13-4.56c-6.28-2.36-13.42-2.5-21.21-.44a.36.36 0 0 1 -.44-.26.37.37 0 0 1 .26-.45c7.94-2.1 15.22-1.94 21.65.46a34.61 34.61 0 0 1 8.29 4.65l.89.62c1-1.08 2-2.15 2.89-3.18 5.31-5.78 9.41-10.39 14.82-9.12 4 1 7.21 4.91 8.84 8.28s2 6.39 1.11 8.23c-2.19 4.64-13 2.84-18.34 1.24a30.55 30.55 0 0 1 -9.13-4.44 53.94 53.94 0 0 1 -12 10 68.9 68.9 0 0 0 12.7 8.28l2.36-1.7c9.81-7.09 15.21-11 21.08-8.69 5.14 2 8.85 8.27 7.87 11.46-1.39 4.47-11.69 4.48-17.56 3.79a43.53 43.53 0 0 1 -13.68-4c-4.51 3.21-9.66 6.81-16.11 10.81a72.57 72.57 0 0 0 16.45 8.77c5.72-5.71 10.38-10.15 17.77-10.48 6-.26 12 2.25 14.56 4.77a3.58 3.58 0 0 1 1.3 2.46c-.12 3.54-10.72 5.9-16.38 6.38a41.4 41.4 0 0 1 -17.07-2.28 3 3 0 0 1 -.25.25 120.28 120.28 0 0 1 -10.22 9.41c4.93 2.64 11.29 6.02 19.53 9.72l4.48-3c10.77-7.32 15.69-10.66 18.32-8.48 1.12.93 1.75 2.89 1.73 5.38 0 3.45-1.41 8.23-4.34 10.56-3.91 3.12-9.73 1-17.54-2.44l-2.58-1.14c-4.31 2.9-9.54 6.32-15.62 10.12 4.78 2 10.6 4.51 17.72 7.74 10-6.11 13.68-8 15.79-6.16a5.52 5.52 0 0 1 1.44 4 8.24 8.24 0 0 1 -2 5.86c-2.86 2.74-8.41.2-11.38-1.17l-3.82-1.74-3.73 2.29-6.2 3.82a64.45 64.45 0 0 1 12.24 8.51.37.37 0 0 1 -.48.56 63.54 63.54 0 0 0 -12.48-8.64c-3.14 1.92-6.66 4-10.59 6.39-4.65 2.81-7.98 4.71-9.97 4.71zm9.77-14.17a9.79 9.79 0 0 0 -6.23 2 14.77 14.77 0 0 0 -4.83 9 2.93 2.93 0 0 0 .4 2.1c1.19 1.33 5.73-1.37 10.54-4.23q5.66-3.36 10.19-6.14a24.05 24.05 0 0 0 -10.07-2.73zm22.25-3.91 3.34 1.52c2.85 1.31 8.1 3.72 10.6 1.32a7.57 7.57 0 0 0 1.76-5.32 4.81 4.81 0 0 0 -1.19-3.49c-1.76-1.5-5.48.44-14.55 5.99zm-38.61-13.69a3.86 3.86 0 0 0 -2.77.89c-1.63 1.37-2.67 4.18-2.72 7.35 0 2.84.72 5.3 2 6.43 2.68 2.4 8.24-.63 15.23-4.82 2.36-1.41 4.6-2.78 6.74-4.11-10.77-4.4-15.8-5.74-18.48-5.74zm36.38-5 2.16 1c7.57 3.29 13.2 5.4 16.79 2.54 2.75-2.18 4-6.72 4.07-10 0-2.27-.51-4-1.46-4.8-2.22-1.83-7.31 1.63-17.45 8.52zm-36.33-16.11a7.43 7.43 0 0 0 -3.45.85c-3.89 2-6.49 6.94-7.34 11-.51 2.42-.37 4.4.37 5.32 1.85 2.28 8.7-1.16 12.79-3.22a74.19 74.19 0 0 0 12.37-7.81l-.21-.1c-6.94-3.8-11.08-6.04-14.53-6.04zm27.11-4.29a40.51 40.51 0 0 0 16.43 2.13c7.2-.61 15.63-3.22 15.71-5.68a3 3 0 0 0 -1.08-1.91c-2.48-2.44-8.4-4.81-14-4.56-7.02.35-11.56 4.58-17.06 10.02zm-36.8-19.51a4.67 4.67 0 0 0 -2.87.93c-2.07 1.56-3.44 5.07-3.58 9.16-.13 3.78.84 7.14 2.48 8.56 2.56 2.22 7.47.16 15.62-4.41q3.46-1.94 6.54-3.8c-1.5-1-2.94-2.07-4.3-3-5.58-4.07-10.27-7.44-13.89-7.44zm36.3-.79a42.59 42.59 0 0 0 13.09 3.77c5.26.62 15.52.74 16.77-3.28.88-2.85-2.7-8.7-7.44-10.56-5.5-2.16-10.78 1.66-20.38 8.6zm-30.62-18.7a6.18 6.18 0 0 0 -2.8.68c-4.06 2.06-6.55 8.31-5.24 11.16 2 4.45 14.53 1.58 15.06 1.46a35.09 35.09 0 0 0 8.84-3.3c-1-.77-1.9-1.54-2.81-2.28-5.23-4.34-9.3-7.72-13.05-7.72zm29.71-.53a30.08 30.08 0 0 0 8.84 4.28c6 1.78 15.63 3 17.47-.85.78-1.65.35-4.56-1.11-7.6-1.55-3.22-4.56-7-8.34-7.89-5-1.17-9 3.3-14 9-.94 1-1.88 2.04-2.86 3.1z" fill="#fff" opacity=".25"/></svg>