<svg viewBox="0 0 156 156" xmlns="http://www.w3.org/2000/svg" xmlns:xlink="http://www.w3.org/1999/xlink"><clipPath id="a"><path d="m129.89 31.08c.29-5.4-4.38-9.78-9.78-9.78h-84.36a9.78 9.78 0 0 0 -9.75 9.78v84.36a10.08 10.08 0 0 0 .79 3.85 9.76 9.76 0 0 0 9 5.94h84.36a10.17 10.17 0 0 0 9.57-7.78c.44-1.75.07-84.45.17-86.37z"/></clipPath><clipPath id="b"><path d="m130.82 31.47c.29-5.39-4.38-9.78-9.78-9.78h-84.36a9.79 9.79 0 0 0 -9.79 9.79v84.36a10.12 10.12 0 0 0 .79 3.85 9.77 9.77 0 0 0 9 5.93h84.32a10.18 10.18 0 0 0 9.58-7.77c.52-1.76.14-84.44.24-86.38z"/></clipPath><path d="m127.15 132.06-.07.1h-97a11.11 11.11 0 0 1 -10.2-6.73 43.39 43.39 0 0 0 3.78 6.73l3.61 5c3.74 5.15 10 4.24 15.58 4.24h20.75 41.52c7.84 0 17 1.64 23.16-4.3a25.44 25.44 0 0 0 2.58-2.91c1.06-1.38 2-2.84 2.93-4.32 1-1.67 2.75-4.38 2.75-6.55a11.09 11.09 0 0 1 -9.39 8.74z" fill="#732119"/><path d="m19.92 98.67c1 2.41 1.47 19.39 1.47 19.39l2.5 13.6a5.72 5.72 0 0 0 .49 1.48 10.87 10.87 0 0 0 8.64 5h.58 45.57 40.8c4.88 0 8.83-1.57 11.85-5.22.74-.88.92-4.44 1.71-8.52.66-3.48 1.66-7.39 2.23-11.29 1-6.84.08-14.15 0-16.06-.73 2.21-2.38 3.82-7.17 4 0 0-.08.07-.09.06s-1.21 0-1.33-.07h-1.45-93.89c-.33 0-3.35.06-3.65.16-4.6.34-6.96-.73-8.26-2.53z" fill="#91312b"/><path d="m19.92 72.47c.67 1.62 0 32.08 0 32.08l1.67 22.73a7.39 7.39 0 0 0 .64 2.48 11 11 0 0 0 8.8 5.59 8.27 8.27 0 0 0 .86.05h47.82 42.76a13.55 13.55 0 0 0 11.85-6.32c.52-.82.48-6.67 1.05-13.87.43-5.53 1.12-12 1.48-18.27.69-12.09-1.8-24-1.83-25.57-.49-.26-1-.64-5.75-1h-.1c-.22-.06-1.12-.11-1.35-.14-.26 0-1.23 0-1.49 0h-95.63a21.65 21.65 0 0 0 -3.73.33c-4.54.79-6.18 1.44-7.05 1.91z" fill="#b0423c"/><path d="m19.28 49.35c.33.79.94 43.54.94 43.54l.82 31a9.35 9.35 0 0 0 .76 3.39 10.9 10.9 0 0 0 8.7 6.05 10 10 0 0 0 1.1.06h48.58 43.37c5.07 0 10.25-2.51 12.28-6.95.33-.72 2.14-8.29-.41-18.94-1.72-7.19.55-16.11.71-24.55.31-16.85.62-32.82.66-34.12-.24-2.66-3.74-5-8.41-5.82h-.11c-.33-.09-1-.16-1.32-.21h-.06a14.36 14.36 0 0 0 -1.48-.08h-94.41a13.91 13.91 0 0 0 -3.68.49c-4.32 1.14-7.62 3.52-8.04 6.14z" fill="#ce524e"/><path d="m125.73 14.37h-95.61a11.08 11.08 0 0 0 -11.12 11.09v95.61a11.59 11.59 0 0 0 .89 4.36 11.11 11.11 0 0 0 10.2 6.73h95.61a11.15 11.15 0 0 0 10.85-8.82c.68-2 0-95.7.24-97.89a11.09 11.09 0 0 0 -11.06-11.08z" fill="#ec625f"/><path d="m123.47 17.14h-91.1a10.57 10.57 0 0 0 -10.56 10.57v91.1a10.93 10.93 0 0 0 .85 4.16 10.54 10.54 0 0 0 9.71 6.41h91.1a11 11 0 0 0 10.35-8.4c.52-1.9.11-91.18.22-93.27.31-5.83-4.73-10.57-10.57-10.57z" fill="#f06d69"/><path d="m121.22 19.92h-86.59a10 10 0 0 0 -10 10v86.59a10.26 10.26 0 0 0 .81 4 10 10 0 0 0 9.23 6.09h86.59a10.43 10.43 0 0 0 9.83-8c.5-1.8.11-86.67.22-88.66.25-5.51-4.54-10.02-10.09-10.02z" fill="#f37873"/><path d="m119 22.7h-82.11a9.52 9.52 0 0 0 -9.52 9.52v82.08a10 10 0 0 0 .76 3.75 9.5 9.5 0 0 0 8.76 5.77h82.11a9.9 9.9 0 0 0 9.32-7.56c.47-1.71.1-82.16.2-84 .25-5.26-4.29-9.56-9.52-9.56z" fill="#f7837d"/><path d="m116.72 25.48h-77.58a9 9 0 0 0 -9 9v77.58a9.49 9.49 0 0 0 .73 3.54 9 9 0 0 0 8.27 5.46h77.58a9 9 0 0 0 8.8-7.16c.55-1.57 0-77.64.2-79.42a9 9 0 0 0 -9-9z" fill="#fb8e87"/><rect fill="#fb8e87" height="87.5" rx="6.86" width="87.5" x="35.13" y="31.3"/><g clip-path="url(#a)" fill="#b36642"><g opacity=".45"><path d="m11.87 56.9-2.33 8.8-8.8 2.34-2.34 8.8.01.01-8.8 2.33.68.68 8.81-2.33 2.32-8.81 8.81-2.33v.01l2.33-8.81z"/><path d="m13.84 58.87-2.34 8.8-8.8 2.33-2.33 8.81-8.8 2.33.69.69 8.8-2.33 2.33-8.81 8.8-2.33h.01l2.32-8.81z"/><path d="m15.8 60.83-2.33 8.8-8.81 2.34-2.33 8.8h.01l-8.81 2.34.69.68 8.8-2.33 2.33-8.81 8.8-2.33.01.01 2.32-8.81z"/><path d="m34.14 34.63-2.33 8.8-8.8 2.34-2.33 8.8v.01l-8.8 2.33.68.68 8.81-2.33 2.32-8.81 8.81-2.33v.01l2.33-8.81z"/><path d="m36.11 36.59-2.34 8.81-8.8 2.33-2.33 8.8v.01l-8.8 2.33.69.69 8.8-2.33 2.33-8.81 8.8-2.34.01.01 2.32-8.81z"/><path d="m38.07 38.56-2.33 8.8-8.81 2.33-2.33 8.81h.01l-8.81 2.34.69.68 8.81-2.33 2.32-8.81 8.8-2.33h.01l2.33-8.81z"/><path d="m56.41 12.36-2.33 8.8-8.8 2.33-2.33 8.81-8.8 2.34.69.68 8.8-2.33 2.33-8.81 8.8-2.33 2.33-8.81z"/><path d="m58.38 14.32-2.33 8.81-8.81 2.33-2.33 8.8.01.01-8.81 2.33.69.69 8.8-2.34 2.33-8.81 8.8-2.33.01.01 2.32-8.81z"/><path d="m60.34 16.29-2.33 8.8-8.8 2.33-2.34 8.81h.01l-8.8 2.33.68.69 8.81-2.33 2.32-8.81 8.81-2.33 2.33-8.81z"/><path d="m78.69-9.91-2.34 8.8-8.8 2.33-2.33 8.81-8.8 2.34.69.68 8.8-2.33 2.33-8.81 8.8-2.33h.01l2.32-8.81z"/><path d="m80.65-7.95-2.33 8.8-8.81 2.34-2.33 8.8.01.01-8.81 2.33.69.68 8.8-2.33 2.33-8.81 8.8-2.33.01.01 2.33-8.81z"/><path d="m82.61-5.99-2.33 8.81-8.8 2.33-2.33 8.8v.01l-8.8 2.33.68.69 8.81-2.33 2.32-8.81 8.81-2.34v.01l2.33-8.81z"/><path d="m2.08 91.65-2.33 8.8-8.81 2.34-2.33 8.8.01.01-8.81 2.33.69.68 8.8-2.33 2.33-8.81 8.8-2.33.01.01 2.32-8.81z"/><path d="m4.04 93.61-2.33 8.81-8.8 2.33-2.34 8.8.01.01-8.8 2.33.68.69 8.81-2.33 2.32-8.81 8.81-2.34v.01l2.33-8.81z"/><path d="m6 95.58-2.33 8.8-8.8 2.33-2.33 8.81-8.8 2.34.69.68 8.8-2.33 2.33-8.81 8.8-2.33h.01l2.32-8.81z"/><path d="m24.35 69.38-2.33 8.8-8.81 2.34-2.33 8.8h.01l-8.81 2.34.69.68 8.8-2.33 2.33-8.81 8.8-2.33.01.01 2.33-8.81z"/><path d="m26.31 71.34-2.33 8.81-8.8 2.33-2.33 8.8v.01l-8.8 2.33.68.69 8.81-2.34 2.32-8.8 8.81-2.34v.01l2.33-8.81z"/><path d="m28.28 73.31-2.34 8.8-8.8 2.33-2.33 8.81-8.8 2.33.69.69 8.8-2.33 2.33-8.81 8.8-2.33h.01l2.32-8.81z"/><path d="m46.62 47.11-2.33 8.8-8.81 2.33-2.33 8.81h.01l-8.8 2.34.68.68 8.8-2.33 2.33-8.81 8.81-2.33 2.33-8.81z"/><path d="m48.59 49.07-2.34 8.81-8.8 2.33-2.33 8.8v.01l-8.8 2.33.68.68 8.81-2.33 2.32-8.81 8.81-2.33v.01l2.33-8.81z"/><path d="m50.55 51.03-2.33 8.81-8.81 2.33-2.33 8.8.01.01-8.81 2.33.69.69 8.8-2.33 2.33-8.81 8.8-2.34.01.01 2.32-8.81z"/><path d="m68.89 24.84-2.33 8.8-8.8 2.33-2.34 8.81h.01l-8.8 2.33.68.69 8.81-2.33 2.32-8.81 8.81-2.33 2.33-8.81z"/><path d="m70.86 26.8-2.34 8.8-8.8 2.34-2.33 8.8-8.8 2.34.69.68 8.8-2.33 2.33-8.81 8.8-2.33.01.01 2.32-8.81z"/><path d="m72.82 28.76-2.33 8.81-8.81 2.33-2.33 8.8.01.01-8.81 2.33.69.69 8.8-2.33 2.33-8.81 8.8-2.34.01.01 2.33-8.81z"/><path d="m91.16 2.56-2.33 8.81-8.8 2.33-2.33 8.8v.01l-8.8 2.33.68.69 8.81-2.33 2.33-8.81 8.8-2.34v.01l2.33-8.81z"/><path d="m93.13 4.53-2.33 8.8-8.81 2.33-2.33 8.81h.01l-8.81 2.34.69.68 8.8-2.33 2.33-8.81 8.8-2.33h.01l2.32-8.81z"/><path d="m95.09 6.49-2.33 8.8-8.8 2.34-2.34 8.8.01.01-8.8 2.33.68.69 8.8-2.34 2.33-8.81 8.8-2.33.01.01 2.33-8.81z"/><path d="m113.44-19.71-2.34 8.81-8.8 2.33-2.33 8.8v.01l-8.8 2.33.69.69 8.8-2.34 2.33-8.8 8.8-2.34.01.01 2.32-8.81z"/><path d="m115.4-17.74-2.33 8.8-8.81 2.33-2.33 8.81h.01l-8.81 2.33.69.69 8.8-2.33 2.33-8.81 8.8-2.33h.01l2.33-8.81z"/><path d="m117.36-15.78-2.33 8.8-8.8 2.34-2.34 8.8.01.01-8.8 2.33.68.68 8.81-2.33 2.32-8.81 8.81-2.33v.01l2.33-8.81z"/><path d="m14.55 104.13-2.33 8.8-8.8 2.33-2.33 8.81-8.8 2.34.69.68 8.8-2.33 2.33-8.81 8.8-2.33 2.33-8.81z"/><path d="m16.52 106.09-2.33 8.81-8.81 2.33-2.33 8.8.01.01-8.81 2.33.69.69 8.8-2.34 2.33-8.81 8.8-2.33.01.01 2.32-8.81z"/><path d="m18.48 108.06-2.33 8.8-8.8 2.33-2.34 8.81h.01l-8.8 2.33.68.69 8.81-2.33 2.32-8.81 8.81-2.33 2.33-8.81z"/><path d="m36.83 81.86-2.34 8.8-8.8 2.33-2.33 8.81-8.8 2.33.69.69 8.8-2.33 2.33-8.81 8.8-2.33h.01l2.32-8.81z"/><path d="m38.79 83.82-2.33 8.8-8.8 2.34-2.34 8.8.01.01-8.81 2.33.69.68 8.81-2.33 2.32-8.81 8.81-2.33v.01l2.33-8.81z"/><path d="m40.75 85.78-2.33 8.81-8.8 2.33-2.33 8.8v.01l-8.8 2.33.69.69 8.8-2.33 2.32-8.81 8.81-2.34v.01l2.33-8.81z"/><path d="m59.1 59.59-2.33 8.8-8.81 2.33-2.33 8.81h.01l-8.81 2.33.69.69 8.8-2.33 2.33-8.81 8.8-2.33h.01l2.32-8.81z"/><path d="m61.06 61.55-2.33 8.8-8.8 2.34-2.34 8.8h.01l-8.8 2.34.68.68 8.81-2.33 2.32-8.81 8.81-2.33 2.33-8.81z"/><path d="m63.03 63.51-2.34 8.81-8.8 2.33-2.33 8.8v.01l-8.8 2.33.69.69 8.8-2.34 2.33-8.81 8.8-2.33v.01l2.33-8.81z"/><path d="m81.37 37.31-2.33 8.81-8.81 2.33-2.33 8.8.01.01-8.81 2.33.69.69 8.8-2.33 2.33-8.81 8.8-2.34.01.01 2.33-8.81z"/><path d="m83.33 39.28-2.33 8.8-8.8 2.33-2.33 8.81-8.8 2.33.68.69 8.81-2.33 2.32-8.81 8.81-2.33 2.33-8.81z"/><path d="m85.3 41.24-2.33 8.81-8.81 2.33-2.33 8.8v.01l-8.8 2.33.69.68 8.8-2.33 2.33-8.81 8.8-2.33.01.01 2.32-8.81z"/><path d="m103.64 15.04-2.33 8.81-8.8 2.33-2.34 8.8.01.01-8.8 2.33.68.69 8.81-2.34 2.32-8.81 8.81-2.33v.01l2.33-8.81z"/><path d="m105.61 17.01-2.34 8.8-8.8 2.33-2.33 8.81-8.8 2.33.69.69 8.8-2.33 2.33-8.81 8.8-2.33h.01l2.32-8.81z"/><path d="m107.57 18.97-2.33 8.8-8.81 2.34-2.33 8.8h.01l-8.81 2.34.69.68 8.8-2.33 2.33-8.81 8.8-2.33h.01l2.32-8.8z"/><path d="m125.91-7.23-2.33 8.8-8.8 2.34-2.34 8.8.01.01-8.8 2.33.68.68 8.81-2.33 2.32-8.81 8.81-2.33v.01l2.33-8.81z"/><path d="m127.88-5.27-2.33 8.81-8.81 2.33-2.33 8.8.01.01-8.81 2.33.69.69 8.8-2.33 2.33-8.81 8.8-2.34.01.01 2.32-8.81z"/><path d="m129.84-3.3-2.33 8.8-8.81 2.33-2.33 8.81h.01l-8.8 2.34.68.68 8.8-2.33 2.33-8.81 8.8-2.33h.01l2.33-8.81z"/><path d="m4.76 138.88-2.33 8.8-8.8 2.33-2.34 8.81h.01l-8.8 2.34.68.68 8.8-2.33 2.33-8.81 8.81-2.33 2.33-8.81z"/><path d="m6.72 140.84-2.33 8.81-8.8 2.33-2.33 8.8v.01l-8.8 2.33.69.69 8.8-2.34 2.33-8.81 8.8-2.33v.01l2.33-8.81z"/><path d="m8.69 142.81-2.33 8.8-8.81 2.33-2.33 8.8.01.01-8.81 2.33.69.69 8.8-2.33 2.33-8.81 8.8-2.34.01.01 2.33-8.81z"/><path d="m27.03 116.61-2.33 8.8-8.8 2.33-2.34 8.8.01.01-8.8 2.33.68.69 8.81-2.33 2.32-8.81 8.81-2.33 2.33-8.81z"/><path d="m29 118.57-2.34 8.8-8.8 2.34-2.33 8.8-8.8 2.34.69.68 8.8-2.33 2.33-8.81 8.8-2.33h.01l2.32-8.8z"/><path d="m30.96 120.53-2.33 8.81-8.81 2.33-2.33 8.8.01.01-8.81 2.33.69.69 8.8-2.34 2.33-8.81 8.8-2.33.01.01 2.33-8.81z"/><path d="m49.3 94.33-2.33 8.81-8.8 2.33-2.33 8.8v.01l-8.8 2.33.69.69 8.8-2.33 2.32-8.81 8.81-2.34v.01l2.33-8.81z"/><path d="m51.27 96.3-2.33 8.8-8.81 2.33-2.33 8.81h.01l-8.81 2.34.69.68 8.8-2.33 2.33-8.81 8.8-2.33h.01l2.32-8.81z"/><path d="m53.23 98.26-2.33 8.8-8.8 2.34-2.34 8.8.01.01-8.8 2.33.68.68 8.81-2.33 2.32-8.81 8.81-2.33v.01l2.33-8.81z"/><path d="m71.58 72.06-2.34 8.81-8.8 2.33-2.33 8.8v.01l-8.8 2.33.69.69 8.8-2.34 2.33-8.8 8.8-2.34.01.01 2.32-8.81z"/><path d="m73.54 74.03-2.33 8.8-8.81 2.33-2.33 8.81h.01l-8.81 2.33.69.69 8.8-2.33 2.33-8.81 8.8-2.33h.01l2.33-8.81z"/><path d="m75.5 75.99-2.33 8.8-8.8 2.34-2.34 8.8.01.01-8.8 2.33.68.68 8.81-2.33 2.32-8.81 8.81-2.33v.01l2.33-8.81z"/><path d="m93.85 49.79-2.33 8.8-8.81 2.34-2.33 8.8.01.01-8.81 2.33.69.68 8.8-2.33 2.33-8.81 8.8-2.33.01.01 2.32-8.81z"/><path d="m95.81 51.76-2.33 8.8-8.8 2.33-2.34 8.8.01.01-8.8 2.33.68.69 8.8-2.33 2.33-8.81 8.81-2.34v.01l2.33-8.81z"/><path d="m97.78 53.72-2.34 8.8-8.8 2.33-2.33 8.81-8.8 2.34.68.68 8.81-2.33 2.33-8.81 8.8-2.33h.01l2.32-8.8z"/><path d="m116.12 27.52-2.33 8.8-8.81 2.34-2.33 8.8.01.01-8.81 2.33.69.68 8.8-2.33 2.33-8.81 8.8-2.33.01.01 2.33-8.81z"/><path d="m118.08 29.48-2.33 8.81-8.8 2.33-2.34 8.8.01.01-8.8 2.33.68.69 8.81-2.33 2.32-8.82 8.81-2.33v.01l2.33-8.81z"/><path d="m120.05 31.45-2.34 8.8-8.8 2.33-2.33 8.81-8.8 2.33.69.69 8.8-2.33 2.33-8.81 8.8-2.33h.01l2.32-8.81z"/><path d="m138.39 5.25-2.33 8.8-8.81 2.33-2.33 8.81h.01l-8.8 2.34.68.68 8.8-2.33 2.33-8.81 8.81-2.33 2.33-8.81z"/><path d="m140.35 7.21-2.33 8.81-8.8 2.33-2.33 8.8v.01l-8.8 2.33.69.69 8.8-2.34 2.33-8.81 8.8-2.33v.01l2.33-8.81z"/><path d="m142.32 9.18-2.33 8.8-8.81 2.33-2.33 8.8.01.01-8.81 2.33.69.69 8.8-2.33 2.33-8.81 8.8-2.34.01.01 2.32-8.81z"/><path d="m160.66-17.02-2.33 8.8-8.8 2.33-2.34 8.81h.01l-8.8 2.33.68.69 8.81-2.33 2.32-8.81 8.81-2.33 2.33-8.81z"/><path d="m162.63-15.06-2.34 8.8-8.8 2.34-2.33 8.8-8.8 2.34.69.68 8.8-2.33 2.33-8.81 8.8-2.33.01.01 2.32-8.81z"/><path d="m164.59-13.1-2.33 8.81-8.81 2.33-2.33 8.8.01.01-8.81 2.33.69.69 8.8-2.33 2.33-8.81 8.8-2.34.01.01 2.33-8.81z"/><path d="m17.24 151.35-2.33 8.81-8.81 2.33-2.33 8.8.01.01-8.81 2.33.69.69 8.8-2.33 2.33-8.81 8.8-2.34.01.01 2.33-8.81z"/><path d="m19.2 153.32-2.33 8.8-8.8 2.33-2.33 8.81-8.8 2.34.68.68 8.81-2.33 2.32-8.81 8.81-2.33 2.33-8.81z"/><path d="m21.17 155.28-2.34 8.81-8.8 2.33-2.33 8.8v.01l-8.8 2.33.69.69 8.8-2.34 2.33-8.81 8.8-2.33.01.01 2.32-8.81z"/><path d="m39.51 129.08-2.33 8.81-8.8 2.33-2.34 8.8.01.01-8.8 2.33.68.69 8.8-2.33 2.33-8.81 8.8-2.34.01.01 2.33-8.81z"/><path d="m41.47 131.05-2.33 8.8-8.8 2.33-2.33 8.81-8.8 2.33.68.69 8.81-2.33 2.32-8.81 8.81-2.33 2.33-8.81z"/><path d="m43.44 133.01-2.33 8.8-8.81 2.34-2.33 8.8.01.01-8.81 2.33.69.68 8.8-2.33 2.33-8.81 8.8-2.33.01.01 2.32-8.81z"/><path d="m61.78 106.81-2.33 8.8-8.8 2.34-2.34 8.8.01.01-8.8 2.33.68.69 8.81-2.34 2.32-8.81 8.81-2.33v.01l2.33-8.81z"/><path d="m63.75 108.78-2.34 8.8-8.8 2.33-2.33 8.81-8.8 2.33.69.69 8.8-2.33 2.33-8.81 8.8-2.33 2.33-8.81z"/><path d="m65.71 110.74-2.33 8.8-8.81 2.34-2.33 8.8h.01l-8.81 2.34.69.68 8.8-2.33 2.33-8.81 8.8-2.33h.01l2.33-8.81z"/><path d="m84.05 84.54-2.33 8.8-8.8 2.34-2.34 8.8h.01l-8.8 2.34.68.68 8.81-2.33 2.32-8.81 8.81-2.33v.01l2.33-8.81z"/><path d="m86.02 86.5-2.33 8.81-8.81 2.33-2.33 8.8.01.01-8.81 2.33.69.69 8.8-2.33 2.33-8.81 8.8-2.34.01.01 2.32-8.81z"/><path d="m87.98 88.47-2.33 8.8-8.81 2.33-2.33 8.81h.01l-8.8 2.34.68.68 8.8-2.33 2.33-8.81 8.8-2.33h.01l2.33-8.81z"/><path d="m106.33 62.27-2.34 8.8-8.8 2.34-2.33 8.8-8.8 2.34.69.68 8.8-2.33 2.33-8.81 8.8-2.33h.01l2.32-8.81z"/><path d="m108.29 64.23-2.33 8.81-8.81 2.33-2.33 8.8.01.01-8.81 2.33.69.69 8.8-2.34 2.33-8.81 8.8-2.33.01.01 2.32-8.81z"/><path d="m110.25 66.2-2.33 8.8-8.8 2.33-2.34 8.81h.01l-8.8 2.33.68.69 8.81-2.33 2.32-8.81 8.81-2.33 2.33-8.81z"/><path d="m128.6 40-2.34 8.8-8.8 2.33-2.33 8.81-8.8 2.33.69.69 8.8-2.33 2.33-8.81 8.8-2.33h.01l2.32-8.81z"/><path d="m130.56 41.96-2.33 8.8-8.81 2.34-2.33 8.8.01.01-8.8 2.33.68.68 8.8-2.33 2.33-8.81 8.8-2.33.01.01 2.33-8.81z"/><path d="m132.52 43.92-2.33 8.81-8.8 2.33-2.33 8.8v.01l-8.8 2.33.68.69 8.81-2.33 2.32-8.81 8.81-2.34v.01l2.33-8.81z"/><path d="m150.87 17.73-2.33 8.8-8.81 2.33-2.33 8.8.01.01-8.81 2.33.69.69 8.8-2.33 2.33-8.81 8.8-2.34.01.01 2.33-8.81z"/><path d="m152.83 19.69-2.33 8.8-8.8 2.33-2.34 8.81h.01l-8.8 2.34.68.68 8.81-2.33 2.32-8.81 8.81-2.33 2.33-8.8z"/><path d="m154.8 21.65-2.34 8.81-8.8 2.33-2.33 8.8v.01l-8.8 2.33.69.69 8.8-2.34 2.33-8.8 8.8-2.34.01.01 2.32-8.81z"/><path d="m173.14-4.55-2.33 8.81-8.81 2.33-2.33 8.8.01.01-8.81 2.33.69.69 8.8-2.33 2.33-8.81 8.8-2.34.01.01 2.33-8.81z"/><path d="m175.1-2.58-2.33 8.8-8.8 2.33-2.34 8.81h.01l-8.8 2.34.68.68 8.81-2.33 2.32-8.81 8.81-2.33 2.33-8.81z"/><path d="m177.07-.62-2.33 8.81-8.81 2.33-2.33 8.8v.01l-8.8 2.33.69.68 8.8-2.33 2.33-8.81 8.8-2.33.01.01 2.32-8.81z"/></g><g opacity=".45"><path d="m50.4 139.97-2.34 8.8-8.8 2.34-2.33 8.8h.01l-8.81 2.34.69.68 8.8-2.33 2.33-8.81 8.8-2.33.01.01 2.32-8.81z"/><path d="m52.36 141.93-2.33 8.81-8.8 2.33-2.34 8.8.01.01-8.81 2.33.69.69 8.8-2.34 2.33-8.81 8.8-2.33.01.01 2.33-8.81z"/><path d="m54.32 143.9-2.33 8.8-8.8 2.33-2.33 8.81-8.8 2.33.68.69 8.81-2.33 2.33-8.81 8.8-2.33 2.33-8.81z"/><path d="m72.67 117.7-2.33 8.8-8.81 2.33-2.33 8.81h.01l-8.81 2.34.69.68 8.8-2.33 2.33-8.81 8.8-2.33h.01l2.33-8.8z"/><path d="m74.63 119.66-2.33 8.81-8.8 2.33-2.34 8.8.01.01-8.8 2.33.68.69 8.81-2.34 2.32-8.81 8.81-2.33v.01l2.33-8.81z"/><path d="m76.6 121.63-2.34 8.8-8.8 2.33-2.33 8.8v.01l-8.8 2.33.69.69 8.8-2.33 2.33-8.81 8.8-2.33 2.33-8.81z"/><path d="m94.94 95.43-2.33 8.8-8.81 2.33-2.33 8.81h.01l-8.81 2.33.69.69 8.8-2.33 2.33-8.81 8.8-2.33h.01l2.33-8.81z"/><path d="m96.9 97.39-2.33 8.8-8.8 2.34-2.33 8.8-8.8 2.34.68.68 8.81-2.33 2.32-8.81 8.81-2.33v.01l2.33-8.81z"/><path d="m98.87 99.35-2.34 8.81-8.8 2.33-2.33 8.8.01.01-8.81 2.33.69.69 8.8-2.34 2.33-8.8 8.8-2.34.01.01 2.32-8.81z"/><path d="m117.21 73.16-2.33 8.8-8.8 2.33-2.34 8.8.01.01-8.8 2.33.68.69 8.81-2.33 2.32-8.81 8.8-2.34.01.01 2.33-8.81z"/><path d="m119.17 75.12-2.33 8.8-8.8 2.33-2.33 8.81-8.8 2.34.69.68 8.8-2.33 2.33-8.81 8.8-2.33 2.33-8.8z"/><path d="m121.14 77.08-2.33 8.81-8.81 2.33-2.33 8.8.01.01-8.81 2.33.69.69 8.8-2.34 2.33-8.81 8.8-2.33.01.01 2.33-8.81z"/><path d="m139.48 50.88-2.33 8.81-8.8 2.33-2.33 8.8v.01l-8.8 2.33.68.69 8.81-2.33 2.32-8.81 8.81-2.34v.01l2.33-8.81z"/><path d="m141.45 52.85-2.34 8.8-8.8 2.33-2.33 8.81-8.8 2.34.69.68 8.8-2.33 2.33-8.81 8.8-2.33h.01l2.32-8.81z"/><path d="m143.41 54.81-2.33 8.8-8.8 2.34-2.34 8.8.01.01-8.81 2.33.69.68 8.8-2.33 2.33-8.81 8.8-2.33.01.01 2.33-8.81z"/><path d="m161.75 28.61-2.33 8.81-8.8 2.33-2.33 8.8v.01l-8.8 2.33.69.69 8.8-2.34 2.33-8.81 8.8-2.33v.01l2.33-8.81z"/><path d="m163.72 30.58-2.33 8.8-8.81 2.33-2.33 8.81h.01l-8.81 2.33.69.69 8.8-2.33 2.33-8.81 8.8-2.34.01.01 2.33-8.81z"/><path d="m165.68 32.54-2.33 8.8-8.8 2.33-2.34 8.81h.01l-8.8 2.34.68.68 8.81-2.33 2.32-8.81 8.81-2.33 2.33-8.8z"/><path d="m62.87 152.45-2.33 8.8-8.8 2.33-2.33 8.81-8.8 2.33.69.69 8.8-2.33 2.32-8.81 8.81-2.33 2.33-8.81z"/><path d="m64.84 154.41-2.33 8.81-8.81 2.33-2.33 8.8.01.01-8.81 2.33.69.69 8.8-2.34 2.33-8.81 8.8-2.33.01.01 2.32-8.81z"/><path d="m85.15 130.18-2.34 8.8-8.8 2.33-2.33 8.81-8.8 2.33.69.69 8.8-2.33 2.33-8.81 8.8-2.33h.01l2.32-8.81z"/><path d="m87.11 132.14-2.33 8.8-8.81 2.34-2.33 8.8.01.01-8.81 2.33.69.68 8.8-2.33 2.33-8.81 8.8-2.33h.01l2.33-8.8z"/><path d="m89.07 134.1-2.33 8.81-8.8 2.33-2.33 8.8v.01l-8.8 2.33.68.69 8.81-2.34 2.32-8.8 8.81-2.34v.01l2.33-8.81z"/><path d="m107.42 107.9-2.34 8.81-8.8 2.33-2.33 8.8v.01l-8.8 2.33.69.69 8.8-2.33 2.33-8.81 8.8-2.34.01.01 2.32-8.81z"/><path d="m109.38 109.87-2.33 8.8-8.8 2.33-2.34 8.81h.01l-8.81 2.34.69.68 8.81-2.33 2.32-8.81 8.8-2.33h.01l2.33-8.81z"/><path d="m111.34 111.83-2.33 8.81-8.8 2.33-2.33 8.8v.01l-8.8 2.33.69.68 8.8-2.33 2.32-8.81 8.81-2.33v.01l2.33-8.81z"/><path d="m129.69 85.63-2.33 8.81-8.81 2.33-2.33 8.8.01.01-8.81 2.33.69.69 8.8-2.34 2.33-8.81 8.8-2.33.01.01 2.33-8.81z"/><path d="m131.65 87.6-2.33 8.8-8.8 2.33-2.33 8.81-8.8 2.33.68.69 8.81-2.33 2.32-8.81 8.81-2.33 2.33-8.81z"/><path d="m133.62 89.56-2.34 8.8-8.8 2.34-2.33 8.8-8.8 2.34.69.68 8.8-2.33 2.33-8.81 8.8-2.33.01.01 2.32-8.81z"/><path d="m151.96 63.36-2.33 8.81-8.81 2.33-2.33 8.8.01.01-8.81 2.33.69.69 8.81-2.34 2.32-8.81 8.8-2.33.01.01 2.33-8.81z"/><path d="m153.92 65.33-2.33 8.8-8.8 2.33-2.33 8.8v.01l-8.8 2.33.68.69 8.81-2.33 2.32-8.81 8.81-2.34v.01l2.33-8.81z"/><path d="m155.89 67.29-2.33 8.8-8.81 2.33-2.33 8.81h.01l-8.81 2.34.69.68 8.8-2.33 2.33-8.81 8.8-2.33h.01l2.32-8.81z"/><path d="m174.23 41.09-2.33 8.8-8.8 2.34-2.34 8.8h.01l-8.8 2.34.68.68 8.81-2.33 2.32-8.81 8.81-2.33v.01l2.33-8.81z"/><path d="m176.2 43.05-2.34 8.81-8.8 2.33-2.33 8.8v.01l-8.8 2.33.69.69 8.8-2.33 2.33-8.81 8.8-2.34.01.01 2.32-8.81z"/><path d="m178.16 45.02-2.33 8.8-8.81 2.33-2.33 8.81h.01l-8.81 2.33.69.69 8.8-2.33 2.33-8.81 8.8-2.33h.01l2.33-8.81z"/><path d="m97.62 142.65-2.33 8.81-8.8 2.33-2.33 8.8v.01l-8.8 2.33.68.69 8.81-2.34 2.32-8.81 8.81-2.33v.01l2.33-8.81z"/><path d="m99.59 144.62-2.34 8.8-8.8 2.33-2.33 8.81h.01l-8.81 2.33.69.69 8.8-2.33 2.33-8.81 8.8-2.33h.01l2.32-8.81z"/><path d="m101.55 146.58-2.33 8.8-8.8 2.34-2.34 8.8.01.01-8.81 2.33.69.68 8.81-2.33 2.32-8.81 8.81-2.33v.01l2.33-8.81z"/><path d="m119.89 120.38-2.33 8.81-8.8 2.33-2.33 8.8v.01l-8.8 2.33.68.68 8.81-2.33 2.33-8.81 8.8-2.33v.01l2.33-8.81z"/><path d="m121.86 122.34-2.33 8.81-8.81 2.33-2.33 8.8.01.01-8.81 2.33.69.69 8.8-2.33 2.33-8.81 8.8-2.33h.01l2.33-8.81z"/><path d="m123.82 124.31-2.33 8.8-8.8 2.33-2.34 8.81h.01l-8.8 2.34.68.68 8.81-2.33 2.32-8.81 8.81-2.33v.01l2.33-8.81z"/><path d="m142.17 98.11-2.34 8.8-8.8 2.34-2.33 8.8v.01l-8.8 2.33.69.68 8.8-2.33 2.33-8.81 8.8-2.33.01.01 2.32-8.81z"/><path d="m144.13 100.07-2.33 8.81-8.81 2.33-2.33 8.8.01.01-8.81 2.33.69.69 8.8-2.34 2.33-8.8 8.8-2.34.01.01 2.33-8.81z"/><path d="m146.09 102.04-2.33 8.8-8.8 2.33-2.33 8.81-8.8 2.33.68.69 8.81-2.33 2.32-8.81 8.81-2.33 2.33-8.81z"/><path d="m164.44 75.84-2.33 8.8-8.81 2.33-2.33 8.81h.01l-8.81 2.34.69.68 8.8-2.33 2.33-8.81 8.8-2.33h.01l2.32-8.8z"/><path d="m166.4 77.8-2.33 8.81-8.8 2.33-2.34 8.8.01.01-8.8 2.33.68.69 8.81-2.34 2.32-8.81 8.81-2.33v.01l2.33-8.81z"/><path d="m168.37 79.77-2.34 8.8-8.8 2.33-2.33 8.8v.01l-8.8 2.33.69.69 8.8-2.33 2.33-8.81 8.8-2.33 2.33-8.81z"/><path d="m110.1 155.13-2.33 8.8-8.8 2.34-2.34 8.8.01.01-8.81 2.33.69.68 8.81-2.33 2.32-8.81 8.8-2.33.01.01 2.33-8.81z"/><path d="m132.37 132.86-2.33 8.8-8.8 2.34-2.34 8.8h.01l-8.8 2.34.68.68 8.81-2.33 2.32-8.81 8.81-2.33 2.33-8.8z"/><path d="m134.34 134.82-2.34 8.81-8.8 2.33-2.33 8.8v.01l-8.8 2.33.69.69 8.8-2.34 2.33-8.8 8.8-2.34.01.01 2.32-8.81z"/><path d="m136.3 136.79-2.33 8.8-8.81 2.33-2.33 8.81h.01l-8.81 2.33.69.69 8.8-2.33 2.33-8.81 8.8-2.33h.01l2.33-8.81z"/><path d="m154.64 110.59-2.33 8.8-8.8 2.33-2.33 8.81-8.8 2.34.68.68 8.81-2.33 2.32-8.81 8.81-2.33 2.33-8.81z"/><path d="m156.61 112.55-2.33 8.81-8.81 2.33-2.33 8.8.01.01-8.81 2.33.69.68 8.8-2.33 2.33-8.81 8.8-2.33.01.01 2.32-8.81z"/><path d="m158.57 114.52-2.33 8.8-8.8 2.33-2.34 8.8.01.01-8.8 2.33.68.69 8.8-2.33 2.33-8.81 8.81-2.34v.01l2.33-8.81z"/><path d="m176.92 88.32-2.34 8.8-8.8 2.33-2.33 8.8v.01l-8.8 2.33.69.69 8.8-2.33 2.33-8.81 8.8-2.33h.01l2.32-8.81z"/><path d="m144.85 145.34-2.33 8.8-8.81 2.33-2.33 8.81h.01l-8.81 2.33.69.69 8.8-2.33 2.33-8.81 8.8-2.33h.01l2.33-8.81z"/><path d="m146.81 147.3-2.33 8.8-8.8 2.34-2.33 8.8v.01l-8.8 2.33.68.68 8.81-2.33 2.32-8.81 8.81-2.33v.01l2.33-8.81z"/><path d="m148.78 149.26-2.34 8.81-8.8 2.33-2.33 8.8v.01l-8.8 2.33.69.69 8.8-2.33 2.33-8.81 8.8-2.34.01.01 2.32-8.81z"/><path d="m167.12 123.06-2.33 8.81-8.8 2.33-2.34 8.8.01.01-8.8 2.33.68.69 8.81-2.33 2.32-8.81 8.81-2.33 2.33-8.81z"/><path d="m169.09 125.03-2.34 8.8-8.8 2.33-2.33 8.81-8.8 2.34.69.68 8.8-2.33 2.33-8.81 8.8-2.33 2.33-8.8z"/><path d="m171.05 126.99-2.33 8.81-8.81 2.33-2.33 8.8.01.01-8.81 2.33.69.69 8.8-2.34 2.33-8.81 8.8-2.33.01.01 2.33-8.81z"/></g></g><g clip-path="url(#b)"><path d="m12.8 57.3-2.33 8.8-8.8 2.33-2.33 8.81-8.8 2.34.68.68 8.81-2.33 2.32-8.81 8.81-2.33 2.33-8.81z" fill="#feffe0"/><path d="m14.77 59.26-2.33 8.8-8.81 2.34-2.33 8.8v.01l-8.8 2.33.69.68 8.8-2.33 2.33-8.81 8.8-2.33.01.01 2.32-8.81z" fill="#feffe0"/><path d="m16.73 61.23-2.33 8.8-8.81 2.33-2.33 8.8.01.01-8.81 2.33.69.69 8.81-2.33 2.32-8.81 8.81-2.33 2.33-8.81z" fill="#feffe0"/><path d="m35.08 35.03-2.34 8.8-8.8 2.33-2.33 8.81-8.8 2.33.69.69 8.8-2.33 2.33-8.81 8.8-2.33h.01l2.32-8.81z" fill="#feffe0"/><path d="m37.04 36.99-2.33 8.8-8.81 2.34-2.33 8.8.01.01-8.81 2.33.69.68 8.8-2.33 2.33-8.81 8.8-2.33h.01l2.33-8.8z" fill="#feffe0"/><path d="m39 38.95-2.33 8.81-8.8 2.33-2.34 8.8.01.01-8.8 2.33.68.69 8.81-2.33 2.32-8.82 8.81-2.33v.01l2.33-8.81z" fill="#feffe0"/><path d="m57.35 12.76-2.33 8.8-8.81 2.33-2.33 8.8v.01l-8.8 2.33.69.69 8.8-2.33 2.33-8.81 8.8-2.34.01.01 2.32-8.81z" fill="#feffe0"/><path d="m59.31 14.72-2.33 8.8-8.81 2.33-2.33 8.81h.01l-8.8 2.34.68.68 8.8-2.33 2.33-8.81 8.8-2.33h.01l2.33-8.81z" fill="#feffe0"/><path d="m61.27 16.68-2.33 8.8-8.8 2.34-2.33 8.8v.01l-8.8 2.33.69.69 8.8-2.34 2.33-8.81 8.8-2.33v.01l2.33-8.81z" fill="#feffe0"/><path d="m79.62-9.52-2.33 8.81-8.81 2.33-2.33 8.8.01.01-8.81 2.33.69.69 8.8-2.34 2.33-8.8 8.8-2.34.01.01 2.33-8.81z" fill="#feffe0"/><path d="m81.58-7.55-2.33 8.8-8.8 2.33-2.34 8.81h.01l-8.8 2.33.68.69 8.81-2.33 2.32-8.81 8.81-2.33 2.33-8.81z" fill="#feffe0"/><path d="m83.55-5.59-2.34 8.8-8.8 2.34-2.33 8.8v.01l-8.8 2.33.69.68 8.8-2.33 2.33-8.81 8.8-2.33.01.01 2.32-8.81z" fill="#feffe0"/><path d="m3.01 92.05-2.33 8.8-8.81 2.33-2.33 8.81h.01l-8.81 2.33.69.69 8.8-2.33 2.33-8.81 8.8-2.33h.01l2.33-8.81z" fill="#ede6d6"/><path d="m4.97 94.01-2.33 8.8-8.8 2.34-2.33 8.8-8.8 2.34.68.68 8.81-2.33 2.32-8.81 8.81-2.33v.01l2.33-8.81z" fill="#ede6d6"/><path d="m6.94 95.97-2.33 8.81-8.81 2.33-2.33 8.8v.01l-8.8 2.33.69.69 8.8-2.33 2.33-8.81 8.8-2.34.01.01 2.32-8.81z" fill="#ede6d6"/><path d="m25.28 69.78-2.33 8.8-8.8 2.33-2.34 8.81h.01l-8.8 2.33.68.69 8.81-2.33 2.32-8.81 8.81-2.33 2.33-8.81z" fill="#ede6d6"/><path d="m27.25 71.74-2.34 8.8-8.8 2.34-2.33 8.8-8.8 2.34.69.68 8.8-2.33 2.33-8.81 8.8-2.33h.01l2.32-8.81z" fill="#ede6d6"/><path d="m29.21 73.7-2.33 8.81-8.81 2.33-2.33 8.8.01.01-8.81 2.33.69.69 8.8-2.34 2.33-8.8 8.8-2.34.01.01 2.32-8.81z" fill="#ede6d6"/><path d="m47.55 47.5-2.33 8.81-8.8 2.33-2.33 8.8v.01l-8.8 2.33.68.69 8.81-2.33 2.32-8.81 8.81-2.34v.01l2.33-8.81z" fill="#ede6d6"/><path d="m49.52 49.47-2.34 8.8-8.8 2.33-2.33 8.81-8.8 2.34.69.68 8.8-2.33 2.33-8.81 8.8-2.33h.01l2.32-8.81z" fill="#ede6d6"/><path d="m51.48 51.43-2.33 8.8-8.81 2.34-2.33 8.8.01.01-8.81 2.33.69.68 8.8-2.33 2.33-8.81 8.8-2.33.01.01 2.33-8.81z" fill="#ede6d6"/><path d="m69.82 25.23-2.33 8.81-8.8 2.33-2.33 8.8v.01l-8.8 2.33.68.69 8.81-2.34 2.33-8.81 8.8-2.33v.01l2.33-8.81z" fill="#ede6d6"/><path d="m71.79 27.2-2.33 8.8-8.81 2.33-2.33 8.8.01.01-8.81 2.33.69.69 8.8-2.33 2.33-8.81 8.8-2.33h.01l2.32-8.81z" fill="#ede6d6"/><path d="m73.75 29.16-2.33 8.8-8.8 2.34-2.34 8.8h.01l-8.8 2.34.68.68 8.81-2.33 2.32-8.81 8.81-2.33v.01l2.33-8.81z" fill="#ede6d6"/><path d="m92.1 2.96-2.34 8.8-8.8 2.34-2.33 8.8v.01l-8.8 2.33.69.68 8.8-2.33 2.33-8.81 8.8-2.33.01.01 2.32-8.81z" fill="#ede6d6"/><path d="m94.06 4.92-2.33 8.81-8.81 2.33-2.33 8.8.01.01-8.81 2.33.69.69 8.8-2.33 2.33-8.81 8.8-2.34.01.01 2.33-8.81z" fill="#ede6d6"/><path d="m96.02 6.89-2.33 8.8-8.8 2.33-2.33 8.81-8.8 2.33.68.69 8.81-2.33 2.32-8.81 8.81-2.33 2.33-8.81z" fill="#ede6d6"/><path d="m114.37-19.31-2.34 8.8-8.8 2.33-2.33 8.81h.01l-8.81 2.34.69.68 8.8-2.33 2.33-8.81 8.8-2.33h.01l2.32-8.81z" fill="#ede6d6"/><path d="m116.33-17.35-2.33 8.81-8.81 2.33-2.33 8.8.01.01-8.81 2.33.69.69 8.81-2.34 2.32-8.81 8.81-2.33v.01l2.33-8.81z" fill="#ede6d6"/><path d="m118.3-15.38-2.34 8.8-8.8 2.33-2.33 8.81-8.8 2.33.69.69 8.8-2.33 2.32-8.81 8.81-2.33 2.33-8.81z" fill="#ede6d6"/><path d="m15.49 104.52-2.34 8.81-8.8 2.33-2.33 8.8v.01l-8.8 2.33.69.69 8.8-2.33 2.33-8.81 8.8-2.34.01.01 2.32-8.81z" fill="#78401b"/><path d="m17.45 106.49-2.33 8.8-8.8 2.33-2.34 8.81h.01l-8.81 2.33.69.69 8.8-2.33 2.33-8.81 8.8-2.33h.01l2.33-8.81z" fill="#78401b"/><path d="m19.41 108.45-2.33 8.8-8.8 2.34-2.33 8.8v.01l-8.8 2.33.68.68 8.81-2.33 2.32-8.81 8.81-2.33v.01l2.33-8.81z" fill="#78401b"/><path d="m37.76 82.25-2.33 8.81-8.81 2.33-2.33 8.8.01.01-8.81 2.33.69.69 8.8-2.34 2.33-8.8 8.8-2.34.01.01 2.33-8.81z" fill="#78401b"/><path d="m39.72 84.22-2.33 8.8-8.8 2.33-2.34 8.81h.01l-8.8 2.33.68.69 8.81-2.33 2.32-8.81 8.81-2.33 2.33-8.81z" fill="#78401b"/><path d="m41.69 86.18-2.34 8.8-8.8 2.34-2.33 8.8v.01l-8.8 2.33.69.68 8.8-2.33 2.33-8.81 8.8-2.33h.01l2.32-8.8z" fill="#78401b"/><path d="m60.03 59.98-2.33 8.8-8.8 2.34-2.34 8.8.01.01-8.8 2.33.68.68 8.8-2.33 2.33-8.81 8.8-2.33.01.01 2.33-8.81z" fill="#78401b"/><path d="m61.99 61.95-2.33 8.8-8.8 2.33-2.33 8.8v.01l-8.8 2.33.68.69 8.81-2.33 2.32-8.81 8.81-2.33 2.33-8.81z" fill="#78401b"/><path d="m63.96 63.91-2.33 8.8-8.81 2.33-2.33 8.81-8.8 2.34.69.68 8.8-2.33 2.33-8.81 8.8-2.33h.01l2.32-8.81z" fill="#78401b"/><path d="m82.3 37.71-2.33 8.8-8.8 2.33-2.34 8.81.01.01-8.8 2.33.68.68 8.81-2.33 2.32-8.81 8.81-2.33 2.33-8.8z" fill="#78401b"/><path d="m84.27 39.67-2.34 8.81-8.8 2.33-2.33 8.8v.01l-8.8 2.33.69.69 8.8-2.34 2.33-8.81 8.8-2.33.01.01 2.32-8.81z" fill="#78401b"/><path d="m86.23 41.64-2.33 8.8-8.81 2.33-2.33 8.81h.01l-8.81 2.33.69.69 8.8-2.33 2.33-8.81 8.8-2.33h.01l2.33-8.81z" fill="#78401b"/><path d="m104.57 15.44-2.33 8.8-8.8 2.33-2.33 8.81-8.8 2.34.68.68 8.81-2.33 2.32-8.81 8.81-2.33 2.33-8.81z" fill="#78401b"/><path d="m106.54 17.4-2.34 8.8-8.8 2.34-2.33 8.8.01.01-8.81 2.33.69.69 8.8-2.34 2.33-8.81 8.8-2.33.01.01 2.32-8.81z" fill="#78401b"/><path d="m108.5 19.36-2.33 8.81-8.81 2.33-2.33 8.8.01.01-8.81 2.33.69.69 8.8-2.33 2.33-8.81 8.81-2.33 2.33-8.81z" fill="#78401b"/><path d="m126.84-6.83-2.33 8.8-8.8 2.33-2.33 8.81-8.8 2.33.69.69 8.8-2.33 2.33-8.81 8.8-2.33 2.33-8.81z" fill="#78401b"/><path d="m128.81-4.87-2.33 8.8-8.81 2.34-2.33 8.8h.01l-8.81 2.34.69.68 8.8-2.33 2.33-8.81 8.8-2.33.01.01 2.33-8.81z" fill="#78401b"/><path d="m130.77-2.91-2.33 8.81-8.8 2.33-2.34 8.8.01.01-8.8 2.33.68.69 8.81-2.33 2.32-8.81 8.81-2.34v.01l2.33-8.81z" fill="#78401b"/><path d="m5.69 139.27-2.33 8.81-8.8 2.33-2.34 8.8.01.01-8.8 2.33.68.69 8.81-2.33 2.32-8.82 8.81-2.33v.01l2.33-8.81z" fill="#ede6d6"/><path d="m7.66 141.24-2.33 8.8-8.81 2.33-2.33 8.81h.01l-8.81 2.33.69.69 8.8-2.33 2.33-8.81 8.8-2.33h.01l2.32-8.81z" fill="#ede6d6"/><path d="m9.62 143.2-2.33 8.8-8.8 2.34-2.34 8.8.01.01-8.8 2.33.68.68 8.8-2.33 2.33-8.81 8.8-2.33.01.01 2.33-8.81z" fill="#ede6d6"/><path d="m27.96 117-2.33 8.81-8.8 2.33-2.33 8.8v.01l-8.8 2.33.68.69 8.81-2.34 2.33-8.81 8.8-2.33v.01l2.33-8.81z" fill="#ede6d6"/><path d="m29.93 118.97-2.33 8.8-8.81 2.33-2.33 8.81h.01l-8.81 2.33.69.69 8.8-2.33 2.33-8.81 8.8-2.33h.01l2.32-8.81z" fill="#ede6d6"/><path d="m31.89 120.93-2.33 8.8-8.8 2.33-2.34 8.81h.01l-8.8 2.34.68.68 8.81-2.33 2.32-8.81 8.81-2.33v.01l2.33-8.82z" fill="#ede6d6"/><path d="m50.24 94.73-2.34 8.8-8.8 2.34-2.33 8.8-8.8 2.34.69.68 8.8-2.33 2.33-8.81 8.8-2.33.01.01 2.32-8.81z" fill="#ede6d6"/><path d="m52.2 96.69-2.33 8.81-8.81 2.33-2.33 8.8.01.01-8.81 2.33.69.69 8.8-2.33 2.33-8.81 8.8-2.34.01.01 2.33-8.81z" fill="#ede6d6"/><path d="m54.16 98.66-2.33 8.8-8.8 2.33-2.33 8.81-8.8 2.34.68.68 8.81-2.33 2.32-8.81 8.81-2.33 2.33-8.81z" fill="#ede6d6"/><path d="m72.51 72.46-2.33 8.8-8.81 2.33-2.33 8.81h.01l-8.81 2.34.69.68 8.8-2.33 2.33-8.81 8.8-2.33h.01l2.32-8.81z" fill="#ede6d6"/><path d="m74.47 74.42-2.33 8.81-8.8 2.33-2.34 8.8.01.01-8.8 2.33.68.69 8.81-2.34 2.32-8.81 8.81-2.33v.01l2.33-8.81z" fill="#ede6d6"/><path d="m76.44 76.39-2.34 8.8-8.8 2.33-2.33 8.81-8.8 2.33.69.69 8.8-2.33 2.33-8.81 8.8-2.33h.01l2.32-8.81z" fill="#ede6d6"/><path d="m94.78 50.19-2.33 8.8-8.81 2.33-2.33 8.81h.01l-8.81 2.34.69.68 8.8-2.33 2.33-8.81 8.8-2.33h.01l2.33-8.81z" fill="#ede6d6"/><path d="m96.74 52.15-2.33 8.8-8.8 2.34-2.33 8.8v.01l-8.8 2.33.68.68 8.81-2.33 2.32-8.81 8.81-2.33v.01l2.33-8.81z" fill="#ede6d6"/><path d="m98.71 54.11-2.34 8.81-8.8 2.33-2.33 8.8v.01l-8.8 2.33.69.69 8.8-2.33 2.33-8.81 8.8-2.34.01.01 2.32-8.81z" fill="#ede6d6"/><path d="m117.05 27.92-2.33 8.8-8.8 2.33-2.34 8.8.01.01-8.81 2.33.69.69 8.81-2.33 2.32-8.81 8.81-2.33 2.33-8.81z" fill="#ede6d6"/><path d="m119.02 29.88-2.34 8.8-8.8 2.34-2.33 8.8-8.8 2.34.69.68 8.8-2.33 2.32-8.81 8.81-2.33v.01l2.33-8.81z" fill="#ede6d6"/><path d="m120.98 31.84-2.33 8.81-8.81 2.33-2.33 8.8.01.01-8.81 2.33.69.69 8.8-2.34 2.33-8.81 8.8-2.33.01.01 2.33-8.81z" fill="#ede6d6"/><path d="m139.32 5.64-2.33 8.81-8.8 2.33-2.34 8.8.01.01-8.8 2.33.68.69 8.81-2.34 2.32-8.8 8.81-2.34v.01l2.33-8.81z" fill="#ede6d6"/><path d="m141.29 7.61-2.34 8.8-8.8 2.33-2.33 8.81-8.8 2.34.69.68 8.8-2.33 2.33-8.81 8.8-2.33h.01l2.32-8.81z" fill="#ede6d6"/><path d="m143.25 9.57-2.33 8.81-8.81 2.33-2.33 8.8.01.01-8.81 2.33.69.68 8.8-2.33 2.33-8.81 8.8-2.33.01.01 2.33-8.81z" fill="#ede6d6"/><path d="m161.59-16.63-2.33 8.81-8.8 2.33-2.33 8.8v.01l-8.8 2.33.68.69 8.81-2.34 2.33-8.8 8.8-2.34v.01l2.33-8.81z" fill="#ede6d6"/><path d="m163.56-14.66-2.33 8.8-8.81 2.33-2.33 8.81-8.8 2.33.69.69 8.8-2.33 2.33-8.81 8.8-2.33h.01l2.32-8.81z" fill="#ede6d6"/><path d="m165.52-12.7-2.33 8.8-8.8 2.34-2.34 8.8.01.01-8.8 2.33.68.68 8.81-2.33 2.32-8.81 8.81-2.33 2.33-8.8z" fill="#ede6d6"/><g fill="#feffe0"><path d="m18.17 151.75-2.33 8.8-8.8 2.34-2.34 8.8.01.01-8.8 2.33.68.69 8.8-2.34 2.33-8.81 8.8-2.33.01.01 2.33-8.81z"/><path d="m20.13 153.72-2.33 8.8-8.8 2.33-2.33 8.8v.01l-8.8 2.33.68.69 8.81-2.33 2.33-8.81 8.8-2.34v.01l2.33-8.81z"/><path d="m22.1 155.68-2.33 8.8-8.81 2.33-2.33 8.81h.01l-8.81 2.34.69.68 8.8-2.33 2.33-8.81 8.8-2.33h.01l2.32-8.81z"/><path d="m40.44 129.48-2.33 8.8-8.8 2.34-2.34 8.8h.01l-8.8 2.34.68.68 8.81-2.33 2.32-8.81 8.81-2.33 2.33-8.8z"/><path d="m42.41 131.44-2.34 8.81-8.8 2.33-2.33 8.8v.01l-8.8 2.33.69.69 8.8-2.34 2.33-8.81 8.8-2.33.01.01 2.32-8.81z"/><path d="m44.37 133.41-2.33 8.8-8.81 2.33-2.33 8.81h.01l-8.81 2.33.69.69 8.8-2.33 2.33-8.81 8.8-2.33h.01l2.33-8.81z"/><path d="m62.71 107.21-2.33 8.8-8.8 2.33-2.33 8.81-8.8 2.34.68.68 8.81-2.33 2.32-8.81 8.81-2.33 2.33-8.81z"/><path d="m64.68 109.17-2.34 8.8-8.8 2.34-2.33 8.8.01.01-8.81 2.33.69.68 8.8-2.33 2.33-8.81 8.8-2.33.01.01 2.32-8.81z"/><path d="m66.64 111.14-2.33 8.8-8.8 2.33-2.34 8.8.01.01-8.8 2.33.68.69 8.81-2.33 2.32-8.81 8.81-2.33 2.33-8.81z"/><path d="m84.98 84.94-2.33 8.8-8.8 2.33-2.33 8.81-8.8 2.33.69.69 8.8-2.33 2.33-8.81 8.8-2.33 2.33-8.81z"/><path d="m86.95 86.9-2.33 8.8-8.81 2.34-2.33 8.8h.01l-8.81 2.34.69.68 8.8-2.33 2.33-8.81 8.8-2.33h.01l2.33-8.8z"/><path d="m88.91 88.86-2.33 8.81-8.8 2.33-2.34 8.8.01.01-8.8 2.33.68.69 8.81-2.33 2.32-8.81 8.81-2.34v.01l2.33-8.81z"/><path d="m107.26 62.66-2.34 8.81-8.8 2.33-2.33 8.8.01.01-8.81 2.33.69.69 8.8-2.33 2.33-8.81 8.8-2.34.01.01 2.32-8.81z"/><path d="m109.22 64.63-2.33 8.8-8.81 2.33-2.33 8.81h.01l-8.81 2.34.69.68 8.8-2.33 2.33-8.81 8.81-2.33 2.33-8.81z"/><path d="m111.18 66.59-2.33 8.8-8.8 2.34-2.33 8.8v.01l-8.8 2.33.69.69 8.8-2.34 2.32-8.81 8.81-2.33v.01l2.33-8.81z"/><path d="m129.53 40.39-2.33 8.81-8.81 2.33-2.33 8.8.01.01-8.81 2.33.69.69 8.8-2.34 2.33-8.8 8.8-2.34.01.01 2.33-8.81z"/><path d="m131.49 42.36-2.33 8.8-8.8 2.33-2.34 8.81h.01l-8.8 2.33.68.69 8.81-2.33 2.32-8.81 8.81-2.33 2.33-8.81z"/><path d="m133.46 44.32-2.34 8.8-8.8 2.34-2.33 8.8v.01l-8.8 2.33.69.68 8.8-2.33 2.33-8.81 8.8-2.33v.01l2.33-8.81z"/><path d="m151.8 18.12-2.33 8.81-8.81 2.33-2.33 8.8.01.01-8.81 2.33.69.69 8.8-2.34 2.33-8.81 8.8-2.33.01.01 2.33-8.81z"/><path d="m153.76 20.09-2.33 8.8-8.8 2.33-2.33 8.8v.01l-8.8 2.33.68.69 8.81-2.33 2.32-8.81 8.81-2.34v.01l2.33-8.81z"/><path d="m155.73 22.05-2.33 8.8-8.81 2.34-2.33 8.8-8.8 2.34.69.68 8.8-2.33 2.33-8.81 8.8-2.33h.01l2.32-8.81z"/><path d="m174.07-4.15-2.33 8.8-8.8 2.34-2.34 8.8h.01l-8.8 2.34.68.68 8.81-2.33 2.32-8.81 8.81-2.33v.01l2.33-8.81z"/><path d="m176.03-2.19-2.33 8.81-8.8 2.33-2.33 8.8v.01l-8.8 2.33.69.69 8.8-2.33 2.33-8.81 8.8-2.34.01.01 2.32-8.81z"/><path d="m178-.22-2.33 8.8-8.81 2.33-2.33 8.81h.01l-8.81 2.33.69.69 8.8-2.33 2.33-8.81 8.8-2.33h.01l2.33-8.81z"/></g><path d="m51.33 140.37-2.33 8.8-8.81 2.33-2.33 8.81h.01l-8.81 2.33.69.69 8.8-2.33 2.33-8.81 8.8-2.34.01.01 2.33-8.81z" fill="#78401b"/><path d="m53.29 142.33-2.33 8.8-8.8 2.34-2.34 8.8h.01l-8.8 2.34.68.68 8.81-2.33 2.32-8.81 8.81-2.33 2.33-8.8z" fill="#78401b"/><path d="m55.26 144.29-2.34 8.81-8.8 2.33-2.33 8.8v.01l-8.8 2.33.69.69 8.8-2.34 2.33-8.8 8.8-2.34.01.01 2.32-8.81z" fill="#78401b"/><path d="m73.6 118.09-2.33 8.81-8.81 2.33-2.33 8.8.01.01-8.8 2.33.68.69 8.8-2.34 2.33-8.8 8.8-2.34.01.01 2.33-8.81z" fill="#78401b"/><path d="m75.56 120.06-2.33 8.8-8.8 2.33-2.33 8.81-8.8 2.34.68.68 8.81-2.33 2.32-8.81 8.81-2.33 2.33-8.81z" fill="#78401b"/><path d="m77.53 122.02-2.34 8.8-8.8 2.34-2.33 8.8v.01l-8.8 2.33.69.69 8.8-2.34 2.33-8.81 8.8-2.33.01.01 2.32-8.81z" fill="#78401b"/><path d="m95.87 95.82-2.33 8.81-8.8 2.33-2.34 8.8.01.01-8.8 2.33.68.69 8.81-2.34 2.32-8.81 8.81-2.33v.01l2.33-8.81z" fill="#78401b"/><path d="m97.83 97.79-2.33 8.8-8.8 2.33-2.33 8.81-8.8 2.33.69.69 8.8-2.33 2.33-8.81 8.8-2.33 2.33-8.81z" fill="#78401b"/><path d="m99.8 99.75-2.33 8.8-8.81 2.34-2.33 8.8h.01l-8.81 2.34.69.68 8.8-2.33 2.33-8.81 8.8-2.33.01.01 2.32-8.81z" fill="#78401b"/><path d="m118.14 73.55-2.33 8.81-8.8 2.33-2.34 8.8.01.01-8.8 2.33.68.69 8.81-2.34 2.32-8.81 8.81-2.33v.01l2.33-8.81z" fill="#78401b"/><path d="m120.11 75.52-2.33 8.8-8.81 2.33-2.33 8.8v.01l-8.8 2.33.69.69 8.8-2.33 2.33-8.81 8.8-2.34.01.01 2.32-8.81z" fill="#78401b"/><path d="m122.07 77.48-2.33 8.8-8.8 2.33-2.34 8.81h.01l-8.8 2.34.68.68 8.81-2.33 2.32-8.81 8.8-2.33h.01l2.33-8.8z" fill="#78401b"/><path d="m140.41 51.28-2.33 8.8-8.8 2.33-2.33 8.81-8.8 2.34.68.68 8.81-2.33 2.33-8.81 8.8-2.33h.01l2.32-8.8z" fill="#78401b"/><path d="m142.38 53.24-2.33 8.81-8.81 2.33-2.33 8.8.01.01-8.81 2.33.69.69 8.8-2.34 2.33-8.81 8.8-2.33.01.01 2.32-8.81z" fill="#78401b"/><path d="m144.34 55.21-2.33 8.8-8.8 2.33-2.34 8.81h.01l-8.8 2.33.68.69 8.81-2.33 2.32-8.81 8.81-2.33 2.33-8.81z" fill="#78401b"/><path d="m162.69 29.01-2.34 8.8-8.8 2.33-2.33 8.81-8.8 2.33.69.69 8.8-2.33 2.33-8.81 8.8-2.33h.01l2.32-8.81z" fill="#78401b"/><path d="m164.65 30.97-2.33 8.8-8.81 2.34-2.33 8.8.01.01-8.81 2.33.69.69 8.8-2.34 2.33-8.81 8.8-2.33.01.01 2.33-8.81z" fill="#78401b"/><path d="m166.61 32.94-2.33 8.8-8.8 2.33-2.33 8.81-8.8 2.33.68.69 8.81-2.33 2.32-8.81 8.81-2.34v.01l2.33-8.81z" fill="#78401b"/><path d="m63.81 152.84-2.34 8.81-8.8 2.33-2.33 8.8v.01l-8.8 2.33.69.69 8.8-2.34 2.33-8.81 8.8-2.33.01.01 2.32-8.81z" fill="#ede6d6"/><path d="m65.77 154.81-2.33 8.8-8.81 2.33-2.33 8.81h.01l-8.81 2.33.69.69 8.8-2.33 2.33-8.81 8.8-2.33h.01l2.33-8.81z" fill="#ede6d6"/><path d="m86.08 130.57-2.33 8.81-8.81 2.33-2.33 8.8v.01l-8.8 2.33.69.68 8.8-2.33 2.33-8.81 8.8-2.33.01.01 2.32-8.81z" fill="#ede6d6"/><path d="m88.04 132.53-2.33 8.81-8.8 2.33-2.34 8.8.01.01-8.8 2.33.68.69 8.81-2.33 2.32-8.81 8.8-2.33h.01l2.33-8.81z" fill="#ede6d6"/><path d="m90 134.5-2.33 8.8-8.8 2.33-2.33 8.81-8.8 2.34.68.68 8.81-2.33 2.33-8.81 8.8-2.33 2.33-8.8z" fill="#ede6d6"/><path d="m108.35 108.3-2.33 8.8-8.81 2.34-2.33 8.8.01.01-8.81 2.33.69.68 8.8-2.33 2.33-8.81 8.8-2.33.01.01 2.33-8.81z" fill="#ede6d6"/><path d="m110.31 110.26-2.33 8.81-8.8 2.33-2.34 8.8.01.01-8.8 2.33.68.69 8.81-2.33 2.32-8.81 8.81-2.34v.01l2.33-8.81z" fill="#ede6d6"/><path d="m112.28 112.23-2.34 8.8-8.8 2.33-2.33 8.81-8.8 2.33.69.69 8.8-2.33 2.33-8.81 8.8-2.33h.01l2.32-8.81z" fill="#ede6d6"/><path d="m130.62 86.03-2.33 8.8-8.81 2.33-2.33 8.81h.01l-8.8 2.34.68.68 8.8-2.33 2.33-8.81 8.8-2.33h.01l2.33-8.8z" fill="#ede6d6"/><path d="m132.58 87.99-2.33 8.81-8.8 2.33-2.33 8.8v.01l-8.8 2.33.68.69 8.81-2.34 2.33-8.81 8.8-2.33v.01l2.33-8.81z" fill="#ede6d6"/><path d="m134.55 89.96-2.33 8.8-8.81 2.33-2.33 8.8.01.01-8.81 2.33.69.69 8.8-2.33 2.33-8.81 8.8-2.33h.01l2.32-8.81z" fill="#ede6d6"/><path d="m152.89 63.76-2.33 8.8-8.8 2.33-2.34 8.81h.01l-8.8 2.33.68.69 8.81-2.33 2.32-8.81 8.81-2.33 2.33-8.81z" fill="#ede6d6"/><path d="m154.86 65.72-2.34 8.8-8.8 2.34-2.33 8.8v.01l-8.8 2.33.69.68 8.8-2.33 2.33-8.81 8.8-2.33.01.01 2.32-8.81z" fill="#ede6d6"/><path d="m156.82 67.68-2.33 8.81-8.81 2.33-2.33 8.8.01.01-8.81 2.33.69.69 8.8-2.33 2.33-8.81 8.8-2.34.01.01 2.33-8.81z" fill="#ede6d6"/><path d="m175.16 41.48-2.33 8.81-8.8 2.33-2.33 8.8v.01l-8.8 2.33.68.69 8.81-2.33 2.33-8.81 8.8-2.33 2.33-8.81z" fill="#ede6d6"/><path d="m177.13 43.45-2.34 8.8-8.8 2.34-2.33 8.8-8.8 2.34.69.68 8.8-2.33 2.33-8.81 8.8-2.33.01.01 2.32-8.82z" fill="#ede6d6"/><path d="m98.56 143.05-2.34 8.8-8.8 2.34-2.33 8.8-8.8 2.34.69.68 8.8-2.33 2.33-8.81 8.8-2.33h.01l2.32-8.8z" fill="#feffe0"/><path d="m100.52 145.01-2.33 8.81-8.81 2.33-2.33 8.8.01.01-8.81 2.33.69.69 8.8-2.34 2.33-8.8 8.8-2.34.01.01 2.32-8.81z" fill="#feffe0"/><path d="m102.48 146.98-2.33 8.8-8.8 2.33-2.34 8.81h.01l-8.8 2.33.68.69 8.81-2.33 2.32-8.81 8.81-2.33 2.33-8.81z" fill="#feffe0"/><path d="m120.83 120.78-2.33 8.8-8.81 2.33-2.33 8.81-8.8 2.34.69.68 8.8-2.33 2.33-8.81 8.8-2.33h.01l2.32-8.81z" fill="#feffe0"/><path d="m122.79 122.74-2.33 8.8-8.8 2.34-2.34 8.8.01.01-8.8 2.33.68.69 8.8-2.34 2.33-8.81 8.8-2.33.01.01 2.33-8.81z" fill="#feffe0"/><path d="m124.75 124.7-2.33 8.81-8.8 2.33-2.33 8.8v.01l-8.8 2.33.68.69 8.81-2.33 2.33-8.81 8.8-2.34v.01l2.33-8.81z" fill="#feffe0"/><path d="m143.1 98.51-2.33 8.8-8.81 2.33-2.33 8.8.01.01-8.81 2.33.69.69 8.8-2.33 2.33-8.81 8.8-2.33h.01l2.32-8.81z" fill="#feffe0"/><path d="m145.06 100.47-2.33 8.8-8.8 2.34-2.34 8.8.01.01-8.8 2.33.68.68 8.81-2.33 2.32-8.81 8.81-2.33v.01l2.33-8.81z" fill="#feffe0"/><path d="m147.03 102.43-2.34 8.81-8.8 2.33-2.33 8.8v.01l-8.8 2.33.69.69 8.8-2.34 2.33-8.81 8.8-2.33v.01l2.33-8.81z" fill="#feffe0"/><path d="m165.37 76.23-2.33 8.81-8.81 2.33-2.33 8.8.01.01-8.81 2.33.69.69 8.8-2.33 2.33-8.81 8.8-2.34.01.01 2.33-8.81z" fill="#feffe0"/><path d="m167.33 78.2-2.33 8.8-8.8 2.33-2.33 8.81-8.8 2.34.68.68 8.81-2.33 2.32-8.81 8.81-2.33 2.33-8.81z" fill="#feffe0"/><path d="m169.3 80.16-2.33 8.81-8.81 2.33-2.33 8.8.01.01-8.81 2.33.69.69 8.8-2.34 2.33-8.81 8.8-2.33.01.01 2.32-8.81z" fill="#feffe0"/><path d="m111.03 155.53-2.33 8.8-8.8 2.33-2.34 8.81h.01l-8.8 2.33.68.69 8.81-2.33 2.32-8.81 8.81-2.33 2.33-8.81z" fill="#ede6d6"/><path d="m133.3 133.25-2.33 8.81-8.8 2.33-2.33 8.8v.01l-8.8 2.33.68.69 8.81-2.33 2.33-8.81 8.8-2.33 2.33-8.81z" fill="#ede6d6"/><path d="m135.27 135.22-2.33 8.8-8.81 2.33-2.33 8.81h.01l-8.81 2.34.69.68 8.8-2.33 2.33-8.81 8.8-2.33h.01l2.32-8.8z" fill="#ede6d6"/><path d="m137.23 137.18-2.33 8.81-8.8 2.33-2.34 8.8.01.01-8.8 2.33.68.69 8.8-2.34 2.33-8.81 8.81-2.33v.01l2.33-8.81z" fill="#ede6d6"/><path d="m155.58 110.98-2.34 8.81-8.8 2.33-2.33 8.8v.01l-8.8 2.33.69.69 8.8-2.33 2.33-8.81 8.8-2.34.01.01 2.32-8.81z" fill="#ede6d6"/><path d="m157.54 112.95-2.33 8.8-8.81 2.33-2.33 8.81h.01l-8.81 2.33.69.69 8.8-2.33 2.33-8.81 8.8-2.33h.01l2.33-8.81z" fill="#ede6d6"/><path d="m159.5 114.91-2.33 8.8-8.8 2.34-2.34 8.8.01.01-8.8 2.33.68.68 8.81-2.33 2.32-8.81 8.81-2.33v.01l2.33-8.81z" fill="#ede6d6"/><path d="m177.85 88.71-2.34 8.81-8.8 2.33-2.33 8.8v.01l-8.8 2.33.69.69 8.8-2.34 2.33-8.81 8.8-2.33.01.01 2.32-8.81z" fill="#ede6d6"/><path d="m145.78 145.73-2.33 8.81-8.8 2.33-2.34 8.8.01.01-8.8 2.33.68.69 8.81-2.34 2.32-8.8 8.81-2.34v.01l2.33-8.81z" fill="#feffe0"/><path d="m147.75 147.7-2.34 8.8-8.8 2.33-2.33 8.81-8.8 2.33.69.69 8.8-2.33 2.33-8.81 8.8-2.33 2.33-8.81z" fill="#feffe0"/><path d="m149.71 149.66-2.33 8.8-8.81 2.34-2.33 8.8h.01l-8.81 2.34.69.68 8.8-2.33 2.33-8.81 8.8-2.33.01.01 2.33-8.81z" fill="#feffe0"/><path d="m168.05 123.46-2.33 8.8-8.8 2.34-2.33 8.8v.01l-8.8 2.33.68.69 8.81-2.34 2.32-8.81 8.81-2.33v.01l2.33-8.81z" fill="#feffe0"/><path d="m170.02 125.42-2.33 8.81-8.81 2.33-2.33 8.8.01.01-8.81 2.33.69.69 8.8-2.33 2.33-8.81 8.8-2.34.01.01 2.32-8.81z" fill="#feffe0"/><path d="m171.98 127.39-2.33 8.8-8.81 2.33-2.33 8.81h.01l-8.8 2.34.68.68 8.81-2.33 2.32-8.81 8.81-2.33 2.33-8.81z" fill="#feffe0"/></g></svg>