<svg viewBox="0 0 200 200" xmlns="http://www.w3.org/2000/svg"><path d="m89.55 16.15a3 3 0 0 0 -2.87 2.14c-.19.61-.37 1.24-.56 1.89-.78 2.66-1.62 5.56-2.52 8.54v.15c-.1.31-.19.61-.28.92a3 3 0 0 0 2 3.74 2.91 2.91 0 0 0 .87.13 3 3 0 0 0 2.81-2.12c.74-2.44 1.44-4.82 2.11-7.11.45-1.54.88-3 1.3-4.42a3 3 0 0 0 -2-3.74 3.19 3.19 0 0 0 -.86-.12zm-7.23 23.08a3 3 0 0 0 -2.81 2c-.37 1-.75 2-1.13 2.9v.07a57.67 57.67 0 0 1 -3.74 7.74 3 3 0 0 0 1 4.11 3 3 0 0 0 1.54.42 3 3 0 0 0 2.58-1.46 73.9 73.9 0 0 0 5.44-11.89 3 3 0 0 0 -1.77-3.86 3.18 3.18 0 0 0 -1-.19zm-16.94 19.67a21.56 21.56 0 0 1 -6.1.62h-.52c-1.53 0-3.22-.08-5-.17h-.37a3 3 0 0 0 -.16 6c2.47.13 4.4.19 6.08.19a25.81 25.81 0 0 0 8-.92l-.16-.5a3 3 0 0 0 .85-1.81 3 3 0 0 0 -2.56-3.4zm-35.84-.82a3 3 0 0 0 0 6c4.16 0 8.41.26 11.65.46h.19a3 3 0 0 0 .18-6c-3.95-.24-8-.45-12-.47zm-11.49.67a3.4 3.4 0 0 0 -.45 0c-4.64.71-8.54 2-11 4.31a3 3 0 0 0 -.18 4.24 3 3 0 0 0 2.21 1 3 3 0 0 0 2-.78c1-.88 3.1-2.08 7.88-2.81a3 3 0 0 0 -.45-6zm-13.24 13.25a3 3 0 0 0 -2.81 2v.1c-.14.4-.29.79-.45 1.18v.07h-.32-.23v.06.06.06.06.06a12.77 12.77 0 0 0 .45 8.34 3 3 0 0 0 2.79 1.9 3.08 3.08 0 0 0 1.11-.21 3 3 0 0 0 1.59-2.28 6.63 6.63 0 0 1 -.09-5.34c.27-.67.53-1.35.79-2.08a3 3 0 0 0 -1.84-3.83 3.12 3.12 0 0 0 -1-.17zm5.62 18.15a3 3 0 0 0 -2.13.85 3 3 0 0 0 0 4.24c1 1 2 1.92 3.13 2.86l.07.06.1.09.07.06.07.06.07.05q2 1.58 4.07 3.11a3 3 0 0 0 3.53-4.86 75.64 75.64 0 0 1 -6.87-5.67 3 3 0 0 0 -2.11-.87zm18.69 14a3 3 0 0 0 -1.62 5.53q1.16.75 2.31 1.47l3.86 2.45c1.35.86 2.66 1.69 3.91 2.5a3 3 0 0 0 1.63.48 3 3 0 0 0 1.64-5.51c-1.76-1.15-3.61-2.31-5.56-3.55-1.5-1-3-1.92-4.59-2.92a3 3 0 0 0 -1.62-.48zm20.23 14.1a3 3 0 0 0 -2.16 5.08l.13.13.26.28c.38 2.79-.25 6.44-1.39 10.56a3 3 0 0 0 2.09 3.69 2.8 2.8 0 0 0 .8.11 3 3 0 0 0 2.89-2.19c1.7-6.14 2.12-10.48 1.36-14.08l-.19-.83-1-1.19-.57-.62a3 3 0 0 0 -2.17-.92zm-4 26.15a3 3 0 0 0 -2.82 2c-1.1 3.07-2.22 6.2-3.25 9.29v.05c-.21.65-.41 1.29-.62 1.92a3 3 0 0 0 2 3.77 3.19 3.19 0 0 0 .91.14 3 3 0 0 0 2.86-2.1c1-3.22 2.22-6.61 3.39-9.89l.45-1.25a3 3 0 0 0 -1.82-3.83 3 3 0 0 0 -1-.18zm-6.56 22.37a3 3 0 0 0 -3 2.63c-.07.56-.13 1.11-.17 1.65v.95.05 1.9a.66.66 0 0 1 0 .14v.11.05h.38l-.21 1v.06c-.18.87-.34 1.7-.48 2.5a3 3 0 0 0 2.45 3.47 2.92 2.92 0 0 0 .51 0 3 3 0 0 0 3-2.49c.19-1.1.43-2.28.7-3.5l.34-1.51-.31 1.97a14.41 14.41 0 0 1 -.15-5.63 3 3 0 0 0 -2.6-3.35 2.34 2.34 0 0 0 -.38 0zm-.69 22.66a3.2 3.2 0 0 0 -.75.09 3 3 0 0 0 -2.15 3.66c0 .17.09.34.14.51v.05h.08v.07.07.07.06.06.07h.22a6.55 6.55 0 0 0 .57.76 5.73 5.73 0 0 0 2 1.45h.34a7.18 7.18 0 0 0 2 .41h2.45l.69-.08h.52l.31-.06a3 3 0 0 0 -.56-6 2.76 2.76 0 0 0 -.57.06 7.51 7.51 0 0 1 -1.39.15 2.81 2.81 0 0 1 -.59-.05 3.39 3.39 0 0 1 -.33-.89 3 3 0 0 0 -2.91-2.25zm25.8-7.53a3 3 0 0 0 -1.71.54c-3.63 2.54-6.78 4.54-9.62 6.14a3 3 0 1 0 2.93 5.23c3.26-1.83 6.69-4.05 10.12-6.44a3 3 0 0 0 -1.72-5.47zm19-14.36a3 3 0 0 0 -1.84.63l-2.49 1.94c-2.23 1.74-4.53 3.53-7 5.38a3 3 0 0 0 1.82 5.39 3 3 0 0 0 1.82-.62l.33-.25c2.32-1.77 4.55-3.51 6.63-5.14l1.77-1.38.72-.56a3 3 0 0 0 -1.66-5.42zm15.29-8.89a11.94 11.94 0 0 0 -7.36 2.35 3 3 0 1 0 3.64 4.77h7.18.35 2 .05.13.07c.5.2 1 .42 1.52.65a3 3 0 0 0 2.51-5.45 24.58 24.58 0 0 0 -10.13-2.63zm19.65 8.7a3 3 0 0 0 -1.71 5.47c3.16 2.17 6.41 4.61 9.58 7.08a3 3 0 0 0 3.7-4.73c-3.76-2.93-7-5.34-10-7.35a3 3 0 0 0 -1.69-.53zm19.2 14.77a3 3 0 0 0 -1.89 5.33l4 3.19h.1c1.54 1.22 3 2.33 4.25 3.29h.06l.94.68a3 3 0 0 0 3.49-4.88c-2.38-1.71-5.43-4.16-9.17-7.18a3 3 0 0 0 -1.89-.67zm24.9 6.56a3 3 0 0 0 -2.85 2.08c-.54 1.69-1.07 2.08-2.84 2.08h-.42a3 3 0 0 0 -.12 6h3.8.14a7.69 7.69 0 0 0 4.42-4h.06v-.05-.09a1.59 1.59 0 0 0 .07-.2 3 3 0 0 0 -2.86-3.91zm-1.52-22.15a3 3 0 0 0 -2.92 3.67 94.89 94.89 0 0 1 1.94 11.11 3 3 0 0 0 3 2.69h.32a3 3 0 0 0 2.67-3.3 102.06 102.06 0 0 0 -2.06-11.81 3 3 0 0 0 -2.93-2.34zm-6.3-22.95a3.12 3.12 0 0 0 -.85.12 3 3 0 0 0 -2 3.73l.41 1.4c1 3.26 2 6.63 2.92 10a3 3 0 0 0 2.89 2.19 2.82 2.82 0 0 0 .81-.11 3 3 0 0 0 2.08-3.7c-.62-2.21-1.26-4.4-1.89-6.54v-.07l-1.13-3.84c-.11-.36-.21-.71-.32-1.06a3 3 0 0 0 -2.87-2.15zm-2.92-26a3 3 0 0 0 -2.1.86 12.79 12.79 0 0 0 -1.66 1.93l-.6.86-.27 1c-.75 2.87-.37 6.63 1.35 13.42a3 3 0 0 0 2.91 2.27 3.18 3.18 0 0 0 .74-.09 3 3 0 0 0 2.17-3.65c-.05-.17-.09-.34-.13-.5v-.06-.05-.05-.52-.05-.05l-.06-.27c-.27-1.14-.49-2.2-.67-3.18a2.93 2.93 0 0 1 -.05-.29v-.14-.15-.09-.15-.09-.05h.15a7.31 7.31 0 0 1 .78-.9.57.57 0 0 0 .11-.11 3 3 0 0 0 0-4.24 3 3 0 0 0 -2.14-.89zm20.27-13.89a3 3 0 0 0 -1.63.48c-1.94 1.26-3.85 2.48-5.69 3.66-1.53 1-3 1.92-4.4 2.83a3 3 0 0 0 1.63 5.51 3 3 0 0 0 1.63-.48c3.07-2 6.55-4.18 10.1-6.49a3 3 0 0 0 -1.64-5.51zm18.92-13.99a3 3 0 0 0 -2.06.81 88.46 88.46 0 0 1 -8.74 7 3 3 0 1 0 3.51 4.87c1.81-1.31 3.56-2.63 5.2-4h.14c1.41-1.14 2.73-2.28 3.94-3.41a3 3 0 0 0 -2.06-5.18zm5.08-18.86a3 3 0 0 0 -3 3.41 15.23 15.23 0 0 1 .12 2.75 15.18 15.18 0 0 0 1 6.18 1.05 1.05 0 0 1 -.06.5 3 3 0 0 0 2.11 3.69 3.06 3.06 0 0 0 .79.1 3 3 0 0 0 2.89-2.2 7.63 7.63 0 0 0 .28-2.14 6.37 6.37 0 0 0 -.29-1.26h-.06a9.18 9.18 0 0 1 -.62-3.36c0-.12 0-.25 0-.37v-.06-1.08-.1a21.44 21.44 0 0 0 -.19-3.47 3 3 0 0 0 -3-2.59zm-14.57-11.76a3 3 0 0 0 -.53 6 21 21 0 0 1 8.63 3.14 3 3 0 0 0 4.19-.66 3 3 0 0 0 -.65-4.19c-.42-.3-.85-.58-1.29-.85l-.1-.06-.09-.05h-.06-.07-.06-.06-.06-.06-.08-.06-.06-.05-.06-.05-.06-.06-.08-.08-.07-.07a32.58 32.58 0 0 0 -7.81-2.31 2.94 2.94 0 0 0 -.51-.05zm-12.51-.91h-1.26c-3.22 0-6.48.17-9.66.34a3 3 0 0 0 .17 6h.17c2.93-.16 6.78-.34 10.58-.34h1.06a3 3 0 0 0 0-6h-1.1zm-35.15.69a3 3 0 0 0 -.28 6c.41 0 .84.06 1.26.06h.06a48.79 48.79 0 0 0 6.57.38c1.43 0 3 0 4.9-.12a3 3 0 0 0 -.12-6h-.12c-1.24 0-2.44.08-3.59.1h-1.07a40.25 40.25 0 0 1 -6.2-.39h-1.41zm-15.82-20.68a2.8 2.8 0 0 0 -.94.15 3 3 0 0 0 -1.91 3.78 71.59 71.59 0 0 0 5 12.1 3 3 0 0 0 5.26-2.87c-.51-.94-1-2-1.48-3l-.06-.12h-.07v-.06c-.9-2.05-1.74-4.3-2.53-6.66v-.1c-.08-.22-.15-.43-.22-.65a3 3 0 0 0 -2.85-2.06zm-7-22.94a3 3 0 0 0 -2.84 4c1.13 3.33 2.17 6.9 3.42 11.21a3 3 0 0 0 2.88 2.17 3 3 0 0 0 .83-.12 3 3 0 0 0 2-3.71v-.18-.07c-1.12-3.87-2.24-7.71-3.44-11.23a3 3 0 0 0 -2.83-2zm-9.37-14c-2.62 0-5.66 1.57-9.27 5.24h-.1l-.57.61a3 3 0 0 0 4.38 4.09c3.8-4.07 5.56-4.12 5.64-4.12.19 0 1.05.44 2.31 2.39a3 3 0 0 0 5-3.24c-.09-.15-.18-.28-.28-.42h-.16c-1.55-2.2-3.3-3.69-5.31-4.19h-1.59z" fill="#351a10"/></svg>