<svg viewBox="0 0 156 156" xmlns="http://www.w3.org/2000/svg" xmlns:xlink="http://www.w3.org/1999/xlink"><clipPath id="a"><path d="m147.12 63.22c-1.81-5.3-1.27-14.38-9.24-14.48h-35.55a7 7 0 0 1 -6.67-4.49l-11-31.37c-2.1-6-11.24-6-13.34 0-16.32 46.66-5.6 34.27-53.2 35.86-7.93.09-7.49 9.19-9.24 14.48a7.23 7.23 0 0 0 2.25 9.22l30.05 21.84a2.49 2.49 0 0 1 .89 2.58l-9.71 40.94c0 8.1 5.54 12.37 11.28 8.2 42.5-30.11 26.32-30 68.72 0 5.74 4.17 11.28-.4 11.28-8.2l-9.72-40.93a2.49 2.49 0 0 1 .89-2.58l30.05-21.84a7.23 7.23 0 0 0 2.26-9.23z"/></clipPath><path d="m147.12 63.22c-1.81-5.3-1.27-14.38-9.24-14.48h-35.55a7 7 0 0 1 -6.67-4.49l-11-31.37c-2.1-6-11.24-6-13.34 0-16.32 46.66-5.6 34.27-53.2 35.86-7.93.09-7.49 9.19-9.24 14.48a7.23 7.23 0 0 0 2.25 9.22l30.05 21.84a6.84 6.84 0 0 1 1.23 1.17s-10 30.7-10 42.35c0 7.1 5.54 12.37 11.28 8.2 42.5-30.11 26.32-30 68.72 0 5.74 4.17 11.78-1.12 11.28-8.2-1.18-16.75-10-42.35-10-42.35a6.84 6.84 0 0 1 1.23-1.17l30.05-21.84a7.23 7.23 0 0 0 2.15-9.22z"/><g clip-path="url(#a)"><path d="m147.12 84.81c-1.81-5.3-1.27-14.38-9.24-14.48h-35.55a7 7 0 0 1 -6.67-4.5l-11-31.37c-2.1-6-11.24-6-13.34 0-16.32 46.66-5.6 34.28-53.2 35.87-7.93.09-7.49 9.18-9.24 14.48a7.24 7.24 0 0 0 2.25 9.19s9.61 20.3 19.7 21.83c.58.09-.79.75-.42 1.17l-1.36 23.8c-.46 1.32 3.31 18.59 3.31 18.59a7.33 7.33 0 0 0 11.28 8.19c42.5-30.1 26.32-30 68.72 0a7.33 7.33 0 0 0 11.28-8.19s2-17.94 1.49-19.25l-.57-23.14c.37-.42-3.47-.83-3-1.17l23.31-21.83a7.24 7.24 0 0 0 2.25-9.19z" fill="#051c21"/></g></svg>