<svg viewBox="0 0 200 200" xmlns="http://www.w3.org/2000/svg" xmlns:xlink="http://www.w3.org/1999/xlink"><clipPath id="a"><path d="m171.33 88.13a7.67 7.67 0 0 0 -.78-2.85 7.3 7.3 0 0 0 -.78-2.85 6.78 6.78 0 0 0 -.78-2.85 7 7 0 0 0 -7.34-6.58h-37.23a7.3 7.3 0 0 1 -7-4.71l-11.49-32.88c-2.2-6.28-11.77-6.28-14 0l-11.47 32.85a7.33 7.33 0 0 1 -7 4.71h-37.22a7 7 0 0 0 -7.34 6.61 6.78 6.78 0 0 0 -.78 2.85 7.3 7.3 0 0 0 -.78 2.85 7.67 7.67 0 0 0 -.78 2.85 7.61 7.61 0 0 0 2.35 9.66l31.47 22.86a7.25 7.25 0 0 1 1.3 1.23l-8.47 24.19a6.24 6.24 0 0 0 -.12 3.88l-.4 1.16a6.64 6.64 0 0 0 -.14 3.93l-.37 1.11a6.92 6.92 0 0 0 -.17 4l-.34 1a7.25 7.25 0 0 0 -.2 4.05l-.32 1a7.67 7.67 0 0 0 11.85 8.61l31.43-22.81a7.67 7.67 0 0 1 9 0l31.47 22.86a7.67 7.67 0 0 0 11.81-8.58l-.32-1a7.33 7.33 0 0 0 -.19-4.05l-.35-1a6.92 6.92 0 0 0 -.17-4l-.37-1.11a6.64 6.64 0 0 0 -.14-3.93l-.4-1.16a6.17 6.17 0 0 0 -.12-3.88l-8.47-24.19a7.6 7.6 0 0 1 1.3-1.23l31.52-22.94a7.61 7.61 0 0 0 2.33-9.66z"/></clipPath><path d="m106.24 41.45 12 37a7.66 7.66 0 0 0 7.3 5.3h38.9a7.68 7.68 0 0 1 4.56 13.89l-31.49 22.86a7.68 7.68 0 0 0 -2.79 8.59l12 37a7.67 7.67 0 0 1 -11.81 8.58l-31.45-22.87a7.67 7.67 0 0 0 -9 0l-31.46 22.86a7.67 7.67 0 0 1 -11.81-8.58l12-37a7.68 7.68 0 0 0 -2.79-8.59l-31.49-22.85a7.68 7.68 0 0 1 4.51-13.89h38.91a7.66 7.66 0 0 0 7.29-5.3l12-37a7.67 7.67 0 0 1 14.62 0z" fill="#1b1500"/><path d="m106.17 39.91 11.89 36a7.57 7.57 0 0 0 7.22 5.09h38.48a7.44 7.44 0 0 1 4.46 13.5l-31.13 22.22a7.4 7.4 0 0 0 -2.76 8.34l11.9 36c2.27 6.88-5.74 12.59-11.69 8.34l-31.13-22.22a7.71 7.71 0 0 0 -8.93 0l-31.13 22.2c-6 4.25-14-1.46-11.68-8.34l11.89-36a7.4 7.4 0 0 0 -2.76-8.34l-31.13-22.18a7.44 7.44 0 0 1 4.46-13.52h38.48a7.57 7.57 0 0 0 7.22-5.15l11.89-36a7.64 7.64 0 0 1 14.45.06z" fill="#231c0a"/><path d="m106.09 38.36 11.76 34.92a7.49 7.49 0 0 0 7.14 5h38.07c7.27 0 10.3 9 4.41 13.1l-30.79 21.62a7.08 7.08 0 0 0 -2.73 8.1l11.76 34.9c2.25 6.68-5.67 12.23-11.56 8.1l-30.79-21.58a7.72 7.72 0 0 0 -8.83 0l-30.79 21.58c-5.89 4.13-13.81-1.42-11.56-8.1l11.76-34.92a7.08 7.08 0 0 0 -2.73-8.1l-30.79-21.59c-5.89-4.12-2.86-13.1 4.41-13.1h38.07a7.49 7.49 0 0 0 7.14-5l11.76-34.93c2.25-6.68 12.04-6.68 14.29 0z" fill="#2b2215"/><path d="m106 36.81 11.64 33.89a7.41 7.41 0 0 0 7.07 4.85h37.64c7.2 0 10.19 8.72 4.37 12.72l-30.46 20.94a6.85 6.85 0 0 0 -2.7 7.87l11.64 33.92c2.22 6.48-5.61 11.87-11.43 7.86l-30.46-20.94a7.77 7.77 0 0 0 -8.73 0l-30.46 20.9c-5.82 4-13.65-1.38-11.43-7.86l11.64-33.88a6.85 6.85 0 0 0 -2.7-7.87l-30.46-20.94c-5.82-4-2.83-12.72 4.37-12.72h37.64a7.41 7.41 0 0 0 7.07-4.85l11.63-33.89c2.22-6.48 11.91-6.48 14.12 0z" fill="#33291f"/><path d="m105.93 35.26 11.51 32.85a7.3 7.3 0 0 0 7 4.71h37.23c7.11 0 10.07 8.45 4.32 12.33l-30.12 20.3a6.55 6.55 0 0 0 -2.67 7.62l11.5 32.85c2.2 6.28-5.54 11.5-11.3 7.62l-30.12-20.3a7.79 7.79 0 0 0 -8.63 0l-30.12 20.3c-5.76 3.88-13.5-1.34-11.3-7.62l11.5-32.85a6.55 6.55 0 0 0 -2.73-7.62l-30.08-20.3c-5.75-3.88-2.79-12.33 4.32-12.33h37.23a7.33 7.33 0 0 0 7-4.71l11.53-32.85c2.16-6.26 11.73-6.26 13.93 0z" fill="#3b2f29"/><path d="m105.41 38.79 10.64 30.83a6.76 6.76 0 0 0 6.46 4.38h34.43c6.59 0 9.32 7.93 4 11.57l-27.86 19.06a6.19 6.19 0 0 0 -2.47 7.15l10.64 30.84c2 5.89-5.13 10.79-10.45 7.15l-27.86-19.06a7.14 7.14 0 0 0 -8 0l-27.85 19.1c-5.32 3.64-12.49-1.26-10.45-7.15l10.64-30.84a6.19 6.19 0 0 0 -2.47-7.15l-27.81-19.06c-5.37-3.61-2.64-11.61 4-11.61h34.38a6.76 6.76 0 0 0 6.46-4.42l10.64-30.79c2.04-5.9 10.89-5.9 12.93 0z" fill="#665a50"/><path d="m104.88 42.32 9.78 28.81a6.22 6.22 0 0 0 5.94 4.13h31.64a6 6 0 0 1 3.67 10.82l-25.6 17.81a5.84 5.84 0 0 0 -2.27 6.68l9.78 28.82c1.87 5.51-4.71 10.09-9.61 6.68l-25.6-17.81a6.46 6.46 0 0 0 -7.33 0l-25.6 17.81c-4.9 3.41-11.48-1.17-9.61-6.68l9.78-28.82a5.84 5.84 0 0 0 -2.27-6.68l-25.58-17.81a6 6 0 0 1 3.67-10.82h31.62a6.22 6.22 0 0 0 5.94-4.13l9.77-28.81c1.88-5.51 10-5.51 11.88 0z" fill="#928678"/><path d="m104.36 45.84 8.91 26.8a5.69 5.69 0 0 0 5.42 3.84h28.85a5.54 5.54 0 0 1 3.34 10.06l-23.34 16.56a5.49 5.49 0 0 0 -2.06 6.22l8.91 26.8c1.7 5.12-4.3 9.38-8.76 6.22l-23.34-16.57a5.82 5.82 0 0 0 -6.69 0l-23.34 16.57c-4.46 3.16-10.46-1.1-8.76-6.22l8.92-26.8a5.51 5.51 0 0 0 -2.07-6.22l-23.35-16.56a5.54 5.54 0 0 1 3.34-10.06h28.86a5.69 5.69 0 0 0 5.42-3.84l8.91-26.8a5.74 5.74 0 0 1 10.83 0z" fill="#bdb19f"/><path d="m103.83 49.37 8.06 24.78a5.15 5.15 0 0 0 4.89 3.56h26.05a5.14 5.14 0 0 1 3 9.3l-21.09 15.31a5.14 5.14 0 0 0 -1.86 5.75l8.12 24.78a5.14 5.14 0 0 1 -7.91 5.75l-21.09-15.32a5.15 5.15 0 0 0 -6 0l-21.16 15.32a5.14 5.14 0 0 1 -7.91-5.75l8-24.78a5.14 5.14 0 0 0 -1.86-5.75l-21.07-15.32a5.14 5.14 0 0 1 3-9.3h26.11a5.14 5.14 0 0 0 4.89-3.55l8.06-24.78a5.14 5.14 0 0 1 9.77 0z" fill="#e8dcc6"/><path d="m103.68 50.79 7.78 24a5 5 0 0 0 4.73 3.44h25.21a5 5 0 0 1 2.92 9l-20.39 14.77a5 5 0 0 0 -1.8 5.56l7.78 24a5 5 0 0 1 -7.65 5.56l-20.39-14.81a5 5 0 0 0 -5.85 0l-20.39 14.79a5 5 0 0 1 -7.63-5.56l7.79-24a5 5 0 0 0 -1.79-5.54l-20.43-14.81a5 5 0 0 1 2.92-9h25.21a5 5 0 0 0 4.73-3.44l7.79-24a5 5 0 0 1 9.46.04z" fill="#c4b7a5"/><path d="m103.52 52.2 7.48 23.16a4.82 4.82 0 0 0 4.57 3.33h24.43a4.8 4.8 0 0 1 2.82 8.69l-19.7 14.32a4.8 4.8 0 0 0 -1.75 5.37l7.53 23.16a4.81 4.81 0 0 1 -7.4 5.38l-19.7-14.32a4.82 4.82 0 0 0 -5.65 0l-19.7 14.32a4.81 4.81 0 0 1 -7.4-5.38l7.53-23.16a4.8 4.8 0 0 0 -1.75-5.37l-19.73-14.32a4.8 4.8 0 0 1 2.82-8.69h24.36a4.81 4.81 0 0 0 4.57-3.33l7.52-23.16a4.81 4.81 0 0 1 9.15 0z" fill="#a09184"/><path d="m103.36 53.61 7.26 22.39a4.64 4.64 0 0 0 4.38 3.18h23.51a4.64 4.64 0 0 1 2.72 8.39l-19 13.81a4.64 4.64 0 0 0 -1.69 5.19l7.27 22.35a4.64 4.64 0 0 1 -7.14 5.19l-19-13.82a4.64 4.64 0 0 0 -5.45 0l-19 13.82a4.64 4.64 0 0 1 -7.13-5.19l7.26-22.35a4.64 4.64 0 0 0 -1.69-5.19l-19-13.81a4.64 4.64 0 0 1 2.72-8.39h23.48a4.64 4.64 0 0 0 4.41-3.18l7.26-22.36a4.64 4.64 0 0 1 8.83-.03z" fill="#7b6c63"/><path d="m103.2 55 7 21.55a4.46 4.46 0 0 0 4.25 3.08h22.66a4.47 4.47 0 0 1 2.62 8.09l-18.33 13.35a4.48 4.48 0 0 0 -1.62 5l7 21.54a4.47 4.47 0 0 1 -6.88 5l-18.33-13.32a4.49 4.49 0 0 0 -5.25 0l-18.32 13.32a4.47 4.47 0 0 1 -6.88-5l7-21.54a4.48 4.48 0 0 0 -1.62-5l-18.34-13.32a4.47 4.47 0 0 1 2.63-8.09h22.65a4.46 4.46 0 0 0 4.25-3.08l7-21.55a4.47 4.47 0 0 1 8.51-.03z" fill="#574642"/><path d="m106.24 102.88c0 2.24-1.27 4.05-2.85 4.05s-2.84-1.81-2.84-4.05 2.84-4 2.84-4 2.85 1.77 2.85 4z" fill="#78401b"/><g fill="#d9a273"><path d="m105.55 101.9c0 1.69-1 3.06-2.16 3.06s-2.15-1.37-2.15-3.06 2.15-3.07 2.15-3.07 2.16 1.38 2.16 3.07z" opacity=".32"/><path d="m105 101.26c0 1.24-.7 2.25-1.58 2.25s-1.57-1-1.57-2.25 1.54-2.26 1.54-2.26 1.61 1 1.61 2.26z" opacity=".32"/><path d="m104 100.08c0 .52-.3.94-.66.94s-.66-.42-.66-.94.66-.94.66-.94.66.42.66.94z" opacity=".32"/></g><path d="m72.39 87.27c-1.79 1.35-4 1.42-5 .17s-.27-3.36 1.51-4.71 5-.17 5-.17.27 3.36-1.51 4.71z" fill="#78401b"/><path d="m72.75 86.12c-1.34 1-3 1.08-3.73.13s-.21-2.54 1.14-3.56 3.74-.13 3.74-.13.2 2.54-1.15 3.56z" fill="#d9a273" opacity=".32"/><path d="m72.92 85.28c-1 .75-2.22.79-2.75.1s-.17-1.87.83-2.62 2.74-.09 2.74-.09.16 1.86-.82 2.61z" fill="#d9a273" opacity=".32"/><path d="m73.25 83.77c-.42.31-.93.33-1.15 0s-.06-.78.35-1.09 1.15 0 1.15 0 .06.77-.35 1.09z" fill="#d9a273" opacity=".32"/><path d="m100.1 57.67c-2-1.06-3-3-2.21-4.43s3-1.64 4.91-.58 2.2 4.43 2.2 4.43-2.94 1.64-4.9.58z" fill="#78401b"/><path d="m101.29 57.53c-1.48-.81-2.23-2.3-1.67-3.35s2.23-1.24 3.72-.44 1.66 3.35 1.66 3.35-2.22 1.24-3.71.44z" fill="#d9a273" opacity=".32"/><path d="m102.13 57.33c-1.09-.59-1.64-1.69-1.23-2.46s1.64-.91 2.73-.32 1.22 2.45 1.22 2.45-1.63.91-2.72.33z" fill="#d9a273" opacity=".32"/><path d="m103.64 57c-.45-.25-.68-.71-.51-1s.68-.38 1.14-.13.51 1 .51 1-.68.38-1.14.13z" fill="#d9a273" opacity=".32"/><path d="m148.92 81.69c1.37-1.76 3.49-2.41 4.73-1.45s1.13 3.18-.24 4.94-4.73 1.45-4.73 1.45-1.13-3.17.24-4.94z" fill="#78401b"/><path d="m148.86 82.89c1-1.33 2.64-1.82 3.58-1.09s.86 2.4-.18 3.74-3.58 1.09-3.58 1.09-.86-2.4.18-3.74z" fill="#d9a273" opacity=".32"/><path d="m148.92 83.75c.77-1 1.94-1.34 2.63-.81s.63 1.77-.13 2.75-2.63.8-2.63.8-.63-1.76.13-2.74z" fill="#d9a273" opacity=".32"/><path d="m149 85.3a.83.83 0 0 1 1.09-.34c.29.22.26.74-.05 1.15s-1.1.33-1.1.33-.26-.73.06-1.14z" fill="#d9a273" opacity=".32"/><path d="m66.72 139c1.76.78 2.74 2.42 2.19 3.66s-2.43 1.61-4.19.82-2.19-3.67-2.19-3.67 2.47-1.63 4.19-.81z" fill="#78401b"/><path d="m65.7 139.17c1.33.59 2.07 1.83 1.65 2.77s-1.83 1.21-3.17.62-1.65-2.78-1.65-2.78 1.83-1.21 3.17-.61z" fill="#d9a273" opacity=".32"/><path d="m65 139.39c1 .44 1.53 1.35 1.22 2s-1.35.89-2.33.45-1.21-2-1.21-2 1.32-.84 2.32-.45z" fill="#d9a273" opacity=".32"/><path d="m63.71 139.77c.41.18.64.57.51.85a.72.72 0 0 1 -1 .19c-.41-.18-.51-.85-.51-.85s.59-.37 1-.19z" fill="#d9a273" opacity=".32"/><path d="m108.12 77.66c1.5 1.65 1.77 3.85.61 4.9s-3.33.57-4.83-1.08-.61-4.91-.61-4.91 3.33-.57 4.83 1.09z" fill="#78401b"/><path d="m106.94 77.39c1.14 1.25 1.34 2.92.46 3.71s-2.51.43-3.65-.82-.46-3.71-.46-3.71 2.52-.43 3.65.82z" fill="#d9a273" opacity=".32"/><path d="m106.09 77.3c.83.92 1 2.14.34 2.73s-1.85.31-2.68-.61-.34-2.72-.34-2.72 1.85-.31 2.68.6z" fill="#d9a273" opacity=".32"/><path d="m104.55 77.11a.84.84 0 0 1 .14 1.14.83.83 0 0 1 -1.11-.26c-.35-.38-.15-1.13-.15-1.13s.77-.14 1.12.25z" fill="#d9a273" opacity=".32"/><path d="m125.83 124.11c1.5 1.66 1.78 3.85.61 4.91s-3.32.57-4.82-1.09-.62-4.93-.62-4.93 3.33-.55 4.83 1.11z" fill="#78401b"/><path d="m124.66 123.84c1.13 1.26 1.34 2.92.46 3.72s-2.51.43-3.65-.83-.47-3.73-.47-3.73 2.52-.41 3.66.84z" fill="#d9a273" opacity=".32"/><path d="m123.81 123.76c.83.92 1 2.14.34 2.72s-1.85.32-2.68-.6-.34-2.73-.34-2.73 1.87-.31 2.68.61z" fill="#d9a273" opacity=".32"/><path d="m122.27 123.56c.35.39.41.9.14 1.14a.85.85 0 0 1 -1.12-.25c-.35-.39-.14-1.14-.14-1.14s.77-.13 1.12.25z" fill="#d9a273" opacity=".32"/><path d="m84.1 115.66c1.5 1.65 1.78 3.85.61 4.9s-3.32.57-4.82-1.08-.61-4.91-.61-4.91 3.32-.57 4.82 1.09z" fill="#78401b"/><path d="m82.93 115.39c1.13 1.25 1.34 2.92.46 3.71s-2.51.43-3.65-.82-.46-3.71-.46-3.71 2.51-.43 3.65.82z" fill="#d9a273" opacity=".32"/><path d="m82.08 115.3c.83.92 1 2.14.34 2.73s-1.85.31-2.68-.61-.34-2.72-.34-2.72 1.84-.31 2.68.6z" fill="#d9a273" opacity=".32"/><path d="m80.54 115.11a.7.7 0 1 1 -1 .88c-.34-.38-.14-1.13-.14-1.13s.79-.14 1.14.25z" fill="#d9a273" opacity=".32"/><path d="m139.94 144.11c-1.09 1.61-2.9 2.28-4 1.51s-1.15-2.69-.06-4.3 4-1.51 4-1.51 1.12 2.69.06 4.3z" fill="#78401b"/><path d="m139.93 143.06c-.83 1.22-2.2 1.73-3.05 1.15s-.88-2 0-3.26 3-1.14 3-1.14.88 2.04.05 3.25z" fill="#d9a273" opacity=".32"/><path d="m139.83 142.32c-.61.9-1.61 1.27-2.24.84s-.64-1.49 0-2.38 2.23-.84 2.23-.84.61 1.49.01 2.38z" fill="#d9a273" opacity=".32"/><path d="m139.68 141c-.25.37-.67.53-.93.35s-.27-.62 0-1 .94-.35.94-.35.24.61-.01 1z" fill="#d9a273" opacity=".32"/><path d="m39.55 76.3c.91 1.72.66 3.63-.55 4.26s-2.93-.24-3.83-2 .56-4.27.56-4.27 2.92.28 3.82 2.01z" fill="#78401b"/><path d="m38.62 75.82c.68 1.3.5 2.74-.42 3.23s-2.21-.19-2.89-1.49.42-3.23.42-3.23 2.21.18 2.89 1.49z" fill="#d9a273" opacity=".32"/><path d="m37.92 75.56a1.74 1.74 0 0 1 -.31 2.37c-.67.35-1.62-.14-2.12-1.1s.31-2.36.31-2.36 1.62.13 2.12 1.09z" fill="#d9a273" opacity=".32"/><path d="m36.67 75.06a.73.73 0 0 1 -.13 1c-.28.14-.68-.06-.89-.46s.13-1 .13-1 .68.06.89.46z" fill="#d9a273" opacity=".32"/><g clip-path="url(#a)"><path d="m47.79 48.89a78.08 78.08 0 0 0 19.35 10.64 56.42 56.42 0 0 0 20.51 3.47 60 60 0 0 0 20.35-4.56c6.66-2.62 13.08-6.28 19.59-9.8a76.66 76.66 0 0 1 10-4.74 19.92 19.92 0 0 1 5.33-1.21 10.48 10.48 0 0 1 5.54 1c3.65 1.84 6.32 6.22 7.75 11a28.28 28.28 0 0 1 .46 15.58 18.82 18.82 0 0 1 -3.42 6.41 23.06 23.06 0 0 1 -4.63 4.18 35 35 0 0 1 -10.17 4.64 65.81 65.81 0 0 1 -21 2.2 90.82 90.82 0 0 1 -40.93-12.12c-6.52-3.68-12.7-8.24-18.92-12.58-3.11-2.11-6.28-4.22-9.6-5.2a6.59 6.59 0 0 0 -4.9.3 9.51 9.51 0 0 0 -3.75 4.38 29.58 29.58 0 0 0 -2.48 13.67 24.66 24.66 0 0 0 1.27 6.85 12.84 12.84 0 0 0 3.34 5.17c2.88 2.52 6.35 3.55 9.73 4.39a47.22 47.22 0 0 0 5.14 1c1.71.34 3.44.48 5.17.7 6.92.75 13.87 1.06 20.82 1.13 3.47.06 7 .09 10.42 0s6.95 0 10.43-.12c7-.1 13.9-.34 20.85-.55l20.87-.8a62.31 62.31 0 0 1 10.55.4 17.63 17.63 0 0 1 2.69.61 7.65 7.65 0 0 1 2.77 1.45 4.32 4.32 0 0 1 1.3 1.89 5.48 5.48 0 0 1 .16 2.9 10.65 10.65 0 0 1 -1.66 3.72 39.93 39.93 0 0 1 -8.81 8.73 74.22 74.22 0 0 1 -9.62 6.22 49.09 49.09 0 0 1 -20.74 6 61.78 61.78 0 0 1 -21-2.65c-13.84-4-26.78-12-39.69-18.94a71.38 71.38 0 0 0 -9.77-4.46 18.57 18.57 0 0 0 -4.9-1.06 6.86 6.86 0 0 0 -4.47 1.06c-2.65 1.72-3.8 6.35-3.76 10.86a35.32 35.32 0 0 0 .65 6.81 27 27 0 0 0 1.9 6.27 22.23 22.23 0 0 0 7.36 8.92 33.6 33.6 0 0 0 9.57 4.68 71.34 71.34 0 0 0 20.5 2.86c13.83.08 27.69-1.93 41.42-4.78a409 409 0 0 0 41-10.91l.06.34a378 378 0 0 1 -40.84 12.35c-13.74 3.18-27.62 5.67-41.62 5.79a73 73 0 0 1 -21-2.6 35.24 35.24 0 0 1 -10.13-4.81 24.8 24.8 0 0 1 -8.36-10 31.8 31.8 0 0 1 -2.26-7.2 39 39 0 0 1 -.78-7.76 26.44 26.44 0 0 1 1.08-7.93 11.52 11.52 0 0 1 4.08-6.16 8.8 8.8 0 0 1 5.7-1.45 20.64 20.64 0 0 1 5.4 1.15 72.22 72.22 0 0 1 10.08 4.55c6.55 3.47 13 7.23 19.48 10.52a122.8 122.8 0 0 0 19.75 8.35 60.27 60.27 0 0 0 20.41 2.76 47.21 47.21 0 0 0 20-5.59 71.27 71.27 0 0 0 9.37-6 54 54 0 0 0 4.4-3.66 27.3 27.3 0 0 0 3.89-4.35 7.31 7.31 0 0 0 1.17-2.39 1.4 1.4 0 0 0 0-.71 1.64 1.64 0 0 0 -.51-.68 9.92 9.92 0 0 0 -4.56-1.71 61.71 61.71 0 0 0 -10.29-.58l-20.86.41c-6.95.07-13.91.19-20.87.15-13.92-.07-27.85-.25-41.75-1.76-1.74-.23-3.48-.39-5.21-.74a49.67 49.67 0 0 1 -5.18-1.08c-3.42-.88-6.93-1.93-10-4.62a14.2 14.2 0 0 1 -3.6-5.61 26.24 26.24 0 0 1 -1.39-7.29 31.26 31.26 0 0 1 2.56-14.45 10.63 10.63 0 0 1 4.15-4.88 7.24 7.24 0 0 1 5.39-.41c3.52 1 6.71 3.15 9.88 5.18 6.3 4.21 12.52 8.58 19 12.07a89.84 89.84 0 0 0 40.48 11 65 65 0 0 0 20.5-2.3 33.11 33.11 0 0 0 9.67-4.4 22.07 22.07 0 0 0 4.15-3.73 15.26 15.26 0 0 0 2.85-5.22 24 24 0 0 0 -.4-13.16c-1.23-4.23-3.52-7.92-6.48-9.43s-6.41-.94-9.68.18a74.93 74.93 0 0 0 -9.8 4.55c-6.48 3.48-13 7-19.83 9.51a60.85 60.85 0 0 1 -20.8 4.11c-14.08.09-27.91-5.87-40-15.62z" fill="#5b3114"/><path d="m47.75 49a76.85 76.85 0 0 0 19.3 11 55.81 55.81 0 0 0 20.6 3.69 60.16 60.16 0 0 0 20.54-4.34c6.71-2.57 13.19-6.17 19.68-9.69a76.3 76.3 0 0 1 9.92-4.66c3.36-1.16 7-1.9 10.42-.19s5.91 5.82 7.27 10.39a26.55 26.55 0 0 1 .44 14.66 17.41 17.41 0 0 1 -3.2 6 23.17 23.17 0 0 1 -4.45 4 34.22 34.22 0 0 1 -10 4.55 65.4 65.4 0 0 1 -20.82 2.22 90.41 90.41 0 0 1 -40.73-11.73c-6.49-3.6-12.7-8.09-19-12.37-3.14-2.08-6.31-4.21-9.7-5.2a6.81 6.81 0 0 0 -5.07.34 9.83 9.83 0 0 0 -3.9 4.56 30 30 0 0 0 -2.51 14 25 25 0 0 0 1.31 7 13 13 0 0 0 3.43 5.33c3 2.58 6.44 3.62 9.83 4.47a48.59 48.59 0 0 0 5.16 1c1.72.34 3.46.49 5.19.71 6.93.76 13.88 1.09 20.83 1.23 3.48.09 7 .15 10.43.13s7 0 10.43 0c7 0 13.91-.24 20.87-.39l20.9-.71a63.07 63.07 0 0 1 10.45.48 10.67 10.67 0 0 1 5.12 1.93 3.38 3.38 0 0 1 1 1.44 3.88 3.88 0 0 1 .09 2.08 9.28 9.28 0 0 1 -1.47 3.22 39.3 39.3 0 0 1 -8.62 8.45 72.12 72.12 0 0 1 -9.53 6.12 48.42 48.42 0 0 1 -20.46 5.82 61.08 61.08 0 0 1 -20.8-2.71 118.5 118.5 0 0 1 -20-8.29c-6.56-3.32-13-7.1-19.49-10.55a70.28 70.28 0 0 0 -9.89-4.49 19.08 19.08 0 0 0 -5.09-1.09 7.61 7.61 0 0 0 -4.94 1.2 9.32 9.32 0 0 0 -3.33 5.07 23.47 23.47 0 0 0 -1 7 36.57 36.57 0 0 0 .7 7.18 29.16 29.16 0 0 0 2 6.62 23.3 23.3 0 0 0 7.73 9.32 34.11 34.11 0 0 0 9.78 4.74 71.84 71.84 0 0 0 20.69 2.79c13.9 0 27.77-2.19 41.5-5.16a390.81 390.81 0 0 0 40.92-11.5v.08a391.21 391.21 0 0 1 -40.89 11.76c-13.74 3.05-27.6 5.35-41.54 5.41a71.84 71.84 0 0 1 -20.79-2.68 34.46 34.46 0 0 1 -9.92-4.74 23.83 23.83 0 0 1 -8-9.57 29.64 29.64 0 0 1 -2.13-6.84 38 38 0 0 1 -.73-7.41 24.49 24.49 0 0 1 1-7.37 10.14 10.14 0 0 1 3.72-5.45 8 8 0 0 1 5.23-1.29 19.63 19.63 0 0 1 5.21 1.11 72.18 72.18 0 0 1 10 4.53c6.52 3.47 12.94 7.25 19.49 10.57a118.79 118.79 0 0 0 20 8.27 60.71 60.71 0 0 0 20.65 2.7 47.88 47.88 0 0 0 20.19-5.75 71.39 71.39 0 0 0 9.46-6.07 39 39 0 0 0 8.48-8.28 8.33 8.33 0 0 0 1.35-2.89 2.57 2.57 0 0 0 -.85-2.66 10.46 10.46 0 0 0 -4.9-1.84 62.11 62.11 0 0 0 -10.39-.51l-20.86.56c-7 .13-13.91.3-20.86.31-3.48 0-7 0-10.44 0s-7-.07-10.43-.18c-7-.17-13.92-.53-20.85-1.32-1.74-.22-3.48-.37-5.2-.72a48.91 48.91 0 0 1 -5.17-1.07c-3.4-.87-6.9-1.91-9.9-4.55a13.5 13.5 0 0 1 -3.49-5.45 25.38 25.38 0 0 1 -1.35-7.13 30.47 30.47 0 0 1 2.52-14.2 10.26 10.26 0 0 1 4-4.71 7 7 0 0 1 5.22-.29c3.45 1 6.63 3.12 9.78 5.18 6.27 4.27 12.48 8.72 19 12.28a90.06 90.06 0 0 0 40.61 11.45 65.1 65.1 0 0 0 20.69-2.29 34 34 0 0 0 9.81-4.53 22.58 22.58 0 0 0 4.33-3.9 16.54 16.54 0 0 0 3.07-5.67 25.61 25.61 0 0 0 -.4-14.07c-1.3-4.44-3.74-8.4-7-10s-6.81-1-10.14.17a75.87 75.87 0 0 0 -9.86 4.59c-6.5 3.48-13 7.07-19.74 9.62a60.38 60.38 0 0 1 -20.63 4.28c-14 .24-27.79-5.53-39.94-15z" fill="#fff" opacity=".25"/></g></svg>