<svg viewBox="0 0 156 156" xmlns="http://www.w3.org/2000/svg" xmlns:xlink="http://www.w3.org/1999/xlink"><clipPath id="a"><path d="m140.72 102.73c.07-.18.12-.34.16-.47s.1-.31.15-.47a5.65 5.65 0 0 0 .38-2.57 63.26 63.26 0 0 0 -6.55-22.62 63.73 63.73 0 0 0 -113.72 0 63.26 63.26 0 0 0 -6.55 22.62 5.62 5.62 0 0 0 .73 3.33c0 .08.06.17.1.26l.09.24a3.39 3.39 0 0 0 .15.45l3.42 7.68a5.48 5.48 0 0 0 5.05 3.17h108.87a5.46 5.46 0 0 0 5.26-3.72l2.28-7.38c.1-.25.15-.41.18-.52z"/></clipPath><path d="m78 43.25a64.51 64.51 0 0 0 -44 17 59.24 59.24 0 0 0 -13.53 18.49 56.21 56.21 0 0 0 -5.25 22.68 4.86 4.86 0 0 0 .44 2.08l3.42 7.68a5.48 5.48 0 0 0 5.05 3.17h108.87a5.46 5.46 0 0 0 5.26-3.72l2.28-7.38a4.66 4.66 0 0 0 .23-1.53 56.2 56.2 0 0 0 -5.16-22.79 59.3 59.3 0 0 0 -13.5-18.58 64.54 64.54 0 0 0 -44.11-17.1z" fill="#290e0a"/><path d="m34.24 59.77a65 65 0 0 1 87.59.07 60.44 60.44 0 0 1 13.6 18.51 57.86 57.86 0 0 1 5.51 22.75 5.7 5.7 0 0 1 -.19 1.54c-.15.64-2.4 6.67-3.08 6.67-.51 1.65-3.74 2.79-5.57 2.79h-107.48c-1.66 0-4.64-.94-5.28-2.38-.72 0-3.79-6.32-3.95-7a11.67 11.67 0 0 1 -.27-1.17 7.07 7.07 0 0 1 0-.92 57.79 57.79 0 0 1 5.52-22.43 60.43 60.43 0 0 1 13.6-18.43z" fill="#33120c"/><path d="m34.51 59.29a64.59 64.59 0 0 1 87 0 61.7 61.7 0 0 1 13.7 18.43 59.58 59.58 0 0 1 5.85 22.71 5.41 5.41 0 0 1 -.15 1.56c-.28 1.27-2.5 6-3.87 6-.34 1.1-4.65 1.86-5.87 1.86h-106.06c-1.1 0-5.08-.63-5.51-1.59-1.44 0-4.2-5-4.47-6.31a7.5 7.5 0 0 1 -.18-1.17 7.06 7.06 0 0 1 0-.92 59.16 59.16 0 0 1 5.85-22.19 61.24 61.24 0 0 1 13.71-18.38z" fill="#3d160e"/><path d="m34.77 58.8a64.14 64.14 0 0 1 86.48 0 62.62 62.62 0 0 1 13.8 18.35 61.46 61.46 0 0 1 6.2 22.67 5.93 5.93 0 0 1 -.11 1.58c-.4 1.91-2.61 5.24-4.67 5.24-.17.55-5.57.93-6.17.93h-104.7c-.55 0-5.52-.32-5.73-.8-2.17 0-4.68-3.57-5-5.62a6.64 6.64 0 0 1 -.1-1.18c0-.3 0-.61.05-.91a61.44 61.44 0 0 1 6.15-22 63 63 0 0 1 13.8-18.26z" fill="#511d12"/><path d="m135.87 105.34h-115.74a5.58 5.58 0 0 1 -5.54-6.12 63.7 63.7 0 0 1 106.41-40.9 63.92 63.92 0 0 1 13.9 18.28 63.26 63.26 0 0 1 6.55 22.62 5.58 5.58 0 0 1 -5.58 6.12z" fill="#5a2a22"/><path d="m133.74 104.17h-111.48a5.37 5.37 0 0 1 -5.33-5.9 61.35 61.35 0 0 1 122.14 0 5.37 5.37 0 0 1 -5.33 5.9z" fill="#6b4543"/><path d="m131.6 103h-107.2a5.16 5.16 0 0 1 -5.13-5.67 59 59 0 0 1 117.46 0 5.16 5.16 0 0 1 -5.13 5.67z" fill="#623833"/><path d="m129.47 101.82h-102.94a5 5 0 0 1 -4.92-5.45 56.65 56.65 0 0 1 112.78 0 5 5 0 0 1 -4.92 5.45z" fill="#6b4543"/><path d="m127.33 100.65h-98.66a4.75 4.75 0 0 1 -4.67-5.22 54.3 54.3 0 0 1 108.1 0 4.75 4.75 0 0 1 -4.77 5.22z" fill="#745253"/><g clip-path="url(#a)"><path d="m29.74 207.17a1.6 1.6 0 0 1 -1.11-.46l-78.54-78.54a1.58 1.58 0 0 1 0-2.22 1.58 1.58 0 0 1 2.22 0l78.54 78.54a1.56 1.56 0 0 1 0 2.22 1.58 1.58 0 0 1 -1.11.46z" fill="#ffe2cf"/><path d="m-9.92 110.79h.78v111.07h-.78z" fill="#ffe2cf" opacity=".25" transform="matrix(.70710678 -.70710678 .70710678 .70710678 -120.4 41.98)"/><path d="m42.25 194.66a1.56 1.56 0 0 1 -1.11-.46l-78.54-78.54a1.58 1.58 0 0 1 0-2.22 1.58 1.58 0 0 1 2.22 0l78.54 78.56a1.58 1.58 0 0 1 0 2.22 1.56 1.56 0 0 1 -1.11.44z" fill="#ffe2cf"/><path d="m2.59 98.29h.78v111.07h-.78z" fill="#ffe2cf" opacity=".25" transform="matrix(.70710678 -.70710678 .70710678 .70710678 -107.9 47.16)"/><path d="m67.26 169.65a1.57 1.57 0 0 1 -1.11-.45l-78.54-78.54a1.56 1.56 0 0 1 0-2.22 1.55 1.55 0 0 1 2.21 0l78.55 78.56a1.58 1.58 0 0 1 0 2.22 1.59 1.59 0 0 1 -1.11.43z" fill="#ffe2cf"/><path d="m27.59 73.28h.78v111.07h-.78z" fill="#ffe2cf" opacity=".25" transform="matrix(.70710678 -.70710678 .70710678 .70710678 -82.89 57.52)"/><path d="m104.77 132.14a1.56 1.56 0 0 1 -1.11-.46l-78.54-78.54a1.57 1.57 0 0 1 2.22-2.22l78.54 78.54a1.58 1.58 0 0 1 0 2.22 1.56 1.56 0 0 1 -1.11.46z" fill="#ffe2cf"/><path d="m65.11 35.77h.78v111.07h-.78z" fill="#fff" opacity=".25" transform="matrix(.70710678 -.70710678 .70710678 .70710678 -45.38 73.06)"/><path d="m117.27 119.64a1.56 1.56 0 0 1 -1.11-.46l-78.54-78.54a1.57 1.57 0 0 1 2.22-2.22l78.54 78.58a1.57 1.57 0 0 1 -1.11 2.68z" fill="#ffe2cf"/><path d="m77.61 23.26h.78v111.07h-.78z" fill="#fff" opacity=".25" transform="matrix(.70710678 -.70710678 .70710678 .70710678 -32.87 78.24)"/><path d="m79.76 157.15a1.56 1.56 0 0 1 -1.11-.46l-78.54-78.54a1.57 1.57 0 0 1 2.22-2.22l78.54 78.54a1.58 1.58 0 0 1 0 2.22 1.56 1.56 0 0 1 -1.11.46z" fill="#ffe2cf"/><path d="m40.1 60.78h.78v111.07h-.78z" fill="#fff" opacity=".25" transform="matrix(.70710678 -.70710678 .70710678 .70710678 -70.39 62.7)"/><path d="m129.78 107.13a1.53 1.53 0 0 1 -1.11-.46l-78.54-78.54a1.57 1.57 0 1 1 2.22-2.21l78.54 78.54a1.57 1.57 0 0 1 -1.11 2.67z" fill="#ffe2cf"/><path d="m90.11 10.76h.78v111.07h-.78z" fill="#fff" opacity=".25" transform="matrix(.70710678 -.70710678 .70710678 .70710678 -20.37 83.41)"/><path d="m54.75 182.16a1.6 1.6 0 0 1 -1.11-.46l-78.54-78.54a1.58 1.58 0 0 1 0-2.22 1.58 1.58 0 0 1 2.22 0l78.54 78.54a1.57 1.57 0 0 1 -1.11 2.68z" fill="#ffe2cf"/><path d="m15.09 85.78h.78v111.07h-.78z" fill="#ffe2cf" opacity=".25" transform="matrix(.70710678 -.70710678 .70710678 .70710678 -95.39 52.34)"/><path d="m92.26 144.65a1.6 1.6 0 0 1 -1.11-.46l-78.54-78.54a1.58 1.58 0 0 1 0-2.22 1.56 1.56 0 0 1 2.22 0l78.54 78.57a1.57 1.57 0 0 1 -1.11 2.68z" fill="#ffe2cf"/><path d="m52.6 48.27h.78v111.07h-.78z" fill="#fff" opacity=".25" transform="matrix(.70710678 -.70710678 .70710678 .70710678 -57.88 67.88)"/><path d="m154.79 82.13a1.57 1.57 0 0 1 -1.11-.46l-78.54-78.54a1.56 1.56 0 0 1 0-2.22 1.55 1.55 0 0 1 2.21 0l78.54 78.54a1.57 1.57 0 0 1 -1.1 2.68z" fill="#ffe2cf"/><path d="m115.12-14.25h.78v111.07h-.78z" fill="#ffe2cf" opacity=".25" transform="matrix(.70710678 -.70710678 .70710678 .70710678 4.64 93.77)"/><path d="m142.28 94.63a1.56 1.56 0 0 1 -1.11-.46l-78.54-78.54a1.57 1.57 0 1 1 2.22-2.22l78.54 78.59a1.58 1.58 0 0 1 0 2.22 1.56 1.56 0 0 1 -1.11.41z" fill="#ffe2cf"/><path d="m102.62-1.75h.78v111.07h-.78z" fill="#fff" opacity=".25" transform="matrix(.70710678 -.70710678 .70710678 .70710678 -7.86 88.59)"/><g fill="#ffe2cf"><path d="m167.29 69.62a1.56 1.56 0 0 1 -1.11-.46l-78.54-78.54a1.58 1.58 0 0 1 0-2.22 1.58 1.58 0 0 1 2.22 0l78.54 78.54a1.58 1.58 0 0 1 0 2.22 1.56 1.56 0 0 1 -1.11.46z"/><path d="m127.63-26.75h.78v111.07h-.78z" opacity=".25" transform="matrix(.70710678 -.70710678 .70710678 .70710678 17.14 98.95)"/><path d="m179.79 57.12a1.6 1.6 0 0 1 -1.11-.46l-78.54-78.54a1.58 1.58 0 0 1 0-2.22 1.58 1.58 0 0 1 2.22 0l78.54 78.54a1.57 1.57 0 0 1 -1.11 2.68z"/><path d="m140.13-39.26h.78v111.07h-.78z" opacity=".25" transform="matrix(.70710678 -.70710678 .70710678 .70710678 29.65 104.13)"/><path d="m192.3 44.61a1.54 1.54 0 0 1 -1.11-.46l-78.54-78.54a1.56 1.56 0 0 1 0-2.22 1.58 1.58 0 0 1 2.22 0l78.54 78.54a1.58 1.58 0 0 1 0 2.22 1.56 1.56 0 0 1 -1.11.46z"/><path d="m152.63-51.76h.78v111.07h-.78z" opacity=".25" transform="matrix(.70710678 -.70710678 .70710678 .70710678 42.15 109.31)"/><path d="m204.8 32.11a1.56 1.56 0 0 1 -1.11-.46l-78.54-78.54a1.58 1.58 0 0 1 0-2.22 1.58 1.58 0 0 1 2.22 0l78.54 78.54a1.58 1.58 0 0 1 0 2.22 1.56 1.56 0 0 1 -1.11.46z"/><path d="m165.14-64.27h.78v111.07h-.78z" opacity=".25" transform="matrix(.70710678 -.70710678 .70710678 .70710678 54.65 114.49)"/><path d="m126.26 207.17a1.6 1.6 0 0 1 -1.11-.46 1.58 1.58 0 0 1 0-2.22l78.54-78.49a1.57 1.57 0 1 1 2.22 2.22l-78.54 78.54a1.6 1.6 0 0 1 -1.11.41z"/><path d="m110 165.94h111.07v.78h-111.07z" opacity=".25" transform="matrix(.70710678 -.70710678 .70710678 .70710678 -69.13 165.76)"/><path d="m113.76 194.66a1.57 1.57 0 0 1 -1.11-2.68l78.54-78.54a1.57 1.57 0 1 1 2.22 2.22l-78.54 78.54a1.56 1.56 0 0 1 -1.11.46z"/><path d="m97.49 153.43h111.07v.78h-111.07z" opacity=".25" transform="matrix(.70710678 -.70710678 .70710678 .70710678 -63.95 153.26)"/><path d="m88.75 169.65a1.56 1.56 0 0 1 -1.11-2.65l78.54-78.54a1.56 1.56 0 0 1 2.22 0 1.58 1.58 0 0 1 0 2.22l-78.54 78.52a1.59 1.59 0 0 1 -1.11.45z"/><path d="m72.48 128.42h111.07v.78h-111.07z" opacity=".25" transform="matrix(.70710678 -.70710678 .70710678 .70710678 -53.59 128.25)"/><path d="m51.24 132.14a1.53 1.53 0 0 1 -1.11-.46 1.56 1.56 0 0 1 0-2.22l78.54-78.54a1.57 1.57 0 0 1 2.22 2.22l-78.54 78.54a1.56 1.56 0 0 1 -1.11.46z"/></g><path d="m34.97 90.91h111.07v.78h-111.07z" fill="#fff" opacity=".25" transform="matrix(.70710678 -.70710678 .70710678 .70710678 -38.05 90.74)"/><path d="m38.73 119.64a1.56 1.56 0 0 1 -1.11-.46 1.58 1.58 0 0 1 0-2.22l78.54-78.54a1.58 1.58 0 0 1 2.22 0 1.56 1.56 0 0 1 0 2.22l-78.54 78.54a1.56 1.56 0 0 1 -1.11.46z" fill="#ffe2cf"/><path d="m22.47 78.41h111.07v.78h-111.07z" fill="#fff" opacity=".25" transform="matrix(.70710678 -.70710678 .70710678 .70710678 -32.87 78.24)"/><path d="m76.24 157.15a1.52 1.52 0 0 1 -1.1-.46 1.56 1.56 0 0 1 0-2.22l78.54-78.54a1.57 1.57 0 0 1 2.21 2.22l-78.54 78.54a1.53 1.53 0 0 1 -1.11.46z" fill="#ffe2cf"/><path d="m59.98 115.92h111.07v.78h-111.07z" fill="#fff" opacity=".25" transform="matrix(.70710678 -.70710678 .70710678 .70710678 -48.41 115.75)"/><path d="m26.23 107.13a1.57 1.57 0 0 1 -1.11-2.67l78.54-78.54a1.57 1.57 0 1 1 2.22 2.21l-78.54 78.54a1.56 1.56 0 0 1 -1.11.46z" fill="#ffe2cf"/><path d="m9.96 65.9h111.07v.78h-111.07z" fill="#fff" opacity=".25" transform="matrix(.70710678 -.70710678 .70710678 .70710678 -27.69 65.73)"/><path d="m101.25 182.16a1.6 1.6 0 0 1 -1.11-.46 1.58 1.58 0 0 1 0-2.22l78.54-78.54a1.57 1.57 0 1 1 2.22 2.22l-78.54 78.54a1.58 1.58 0 0 1 -1.11.46z" fill="#ffe2cf"/><path d="m84.99 140.93h111.07v.78h-111.07z" fill="#ffe2cf" opacity=".25" transform="matrix(.70710678 -.70710678 .70710678 .70710678 -58.77 140.76)"/><path d="m63.74 144.65a1.6 1.6 0 0 1 -1.11-.46 1.58 1.58 0 0 1 0-2.22l78.54-78.54a1.56 1.56 0 0 1 2.22 0 1.58 1.58 0 0 1 0 2.22l-78.54 78.54a1.6 1.6 0 0 1 -1.11.46z" fill="#ffe2cf"/><path d="m47.47 103.41h111.07v.78h-111.07z" fill="#fff" opacity=".25" transform="matrix(.70710678 -.70710678 .70710678 .70710678 -43.23 103.24)"/><path d="m1.22 82.13a1.6 1.6 0 0 1 -1.11-.46 1.58 1.58 0 0 1 0-2.22l78.54-78.54a1.56 1.56 0 0 1 2.22 0 1.58 1.58 0 0 1 0 2.22l-78.54 78.54a1.6 1.6 0 0 1 -1.11.46z" fill="#ffe2cf"/><path d="m-15.05 40.89h111.07v.78h-111.07z" fill="#ffe2cf" opacity=".25" transform="matrix(.70710678 -.70710678 .70710678 .70710678 -17.34 40.72)"/><path d="m13.72 94.63a1.56 1.56 0 0 1 -1.11-.46 1.58 1.58 0 0 1 0-2.22l78.54-78.54a1.58 1.58 0 0 1 2.22 0 1.56 1.56 0 0 1 0 2.22l-78.54 78.54a1.53 1.53 0 0 1 -1.11.46z" fill="#ffe2cf"/><path d="m-2.54 53.4h111.07v.78h-111.07z" fill="#fff" opacity=".25" transform="matrix(.70710678 -.70710678 .70710678 .70710678 -22.51 53.23)"/><path d="m-11.28 69.62a1.53 1.53 0 0 1 -1.11-.46 1.56 1.56 0 0 1 0-2.22l78.54-78.54a1.58 1.58 0 0 1 2.22 0 1.58 1.58 0 0 1 0 2.22l-78.55 78.54a1.52 1.52 0 0 1 -1.1.46z" fill="#ffe2cf"/><path d="m-27.55 28.39h111.07v.78h-111.07z" fill="#ffe2cf" opacity=".25" transform="matrix(.70710678 -.70710678 .70710678 .70710678 -12.16 28.22)"/><path d="m-23.79 57.12a1.6 1.6 0 0 1 -1.11-.46 1.58 1.58 0 0 1 0-2.22l78.54-78.54a1.58 1.58 0 0 1 2.22 0 1.58 1.58 0 0 1 0 2.22l-78.54 78.54a1.58 1.58 0 0 1 -1.11.46z" fill="#ffe2cf"/><path d="m-40.05 15.89h111.07v.78h-111.07z" fill="#ffe2cf" opacity=".25" transform="matrix(.70710678 -.70710678 .70710678 .70710678 -6.98 15.72)"/><path d="m-36.29 44.61a1.54 1.54 0 0 1 -1.11-.46 1.58 1.58 0 0 1 0-2.22l78.54-78.54a1.58 1.58 0 0 1 2.22 0 1.58 1.58 0 0 1 0 2.22l-78.54 78.54a1.56 1.56 0 0 1 -1.11.46z" fill="#ffe2cf"/><path d="m-52.56 3.38h111.07v.78h-111.07z" fill="#ffe2cf" opacity=".25" transform="matrix(.70710678 -.70710678 .70710678 .70710678 -1.8 3.21)"/><path d="m-48.8 32.11a1.56 1.56 0 0 1 -1.11-.46 1.58 1.58 0 0 1 0-2.22l78.54-78.54a1.58 1.58 0 0 1 2.22 0 1.56 1.56 0 0 1 0 2.22l-78.54 78.54a1.54 1.54 0 0 1 -1.11.46z" fill="#ffe2cf"/><path d="m-65.06-9.12h111.07v.78h-111.07z" fill="#ffe2cf" opacity=".25" transform="matrix(.70710678 -.70710678 .70710678 .70710678 3.38 -9.29)"/></g></svg>