<svg viewBox="0 0 156 156" xmlns="http://www.w3.org/2000/svg"><path d="m114.29 146h-72.58a7.44 7.44 0 0 1 -7.57-7.3l.13 1.32 1.73 5.73c1 3 3.91 7.48 7.25 7.48h69.82c3.49 0 6.52-4.68 7.35-7.81l1.31-5.43.13-1.32a7.44 7.44 0 0 1 -7.57 7.33z" fill="#290e0a"/><path d="m114.29 110.17h-72.58a5.59 5.59 0 0 1 -5.71-5.48c-1 0-1.79 1.81-1.79 2.82l1.33 36.49c.72 3.23 3.77 7.44 7.32 7.44h70.52c3.65 0 6.78-4.34 7.4-7.69l1-36.22c0-1-.75-2.81-1.79-2.82a5.59 5.59 0 0 1 -5.7 5.46z" fill="#33120c"/><path d="m114.29 74.37h-72.58a3.75 3.75 0 0 1 -3.81-3.65c-2.08 0-3.7 2.3-3.7 4.31l.87 67.18c.48 3.5 3.65 7.39 7.41 7.39h71.2c3.83 0 7-4 7.46-7.56l.66-67c0-2-1.63-4.3-3.7-4.31a3.75 3.75 0 0 1 -3.81 3.64z" fill="#3d160e"/><path d="m114.29 38.57h-72.58a1.89 1.89 0 0 1 -1.93-1.83 5.84 5.84 0 0 0 -5.61 5.81l.44 97.89c.24 3.76 3.51 7.34 7.48 7.34h71.91c4 0 7.3-3.62 7.51-7.43l.33-97.8a5.84 5.84 0 0 0 -5.62-5.81 1.88 1.88 0 0 1 -1.93 1.83z" fill="#471a10"/><path d="m114.33 2.77h-72.67a7.44 7.44 0 0 0 -7.52 7.3v128.6a7.44 7.44 0 0 0 7.57 7.3h72.58a7.44 7.44 0 0 0 7.57-7.3v-128.6a7.44 7.44 0 0 0 -7.53-7.3z" fill="#b36642"/><path d="m114.33 2.77h-72.67a7.43 7.43 0 0 0 -7.52 7.3v128.6a7.44 7.44 0 0 0 7.57 7.3h72.58a7.44 7.44 0 0 0 7.57-7.3v-128.6a7.43 7.43 0 0 0 -7.53-7.3z" fill="#9a5436"/><path d="m114.33 2.77h-72.67a7.43 7.43 0 0 0 -7.52 7.3v128.6a7.44 7.44 0 0 0 7.57 7.3h72.58a7.44 7.44 0 0 0 7.57-7.3v-128.6a7.43 7.43 0 0 0 -7.53-7.3z" fill="#82422a"/><path d="m114.33 2.77h-72.67a7.43 7.43 0 0 0 -7.52 7.3v128.6a7.44 7.44 0 0 0 7.57 7.3h72.58a7.44 7.44 0 0 0 7.57-7.3v-128.6a7.43 7.43 0 0 0 -7.53-7.3z" fill="#6a2f1e"/><path d="m114.33 2.77h-72.67a7.44 7.44 0 0 0 -7.52 7.3v128.6a7.44 7.44 0 0 0 7.57 7.3h72.58a7.44 7.44 0 0 0 7.57-7.3v-128.6a7.44 7.44 0 0 0 -7.53-7.3z" fill="#511d12"/><path d="m112 7.28h-68a7 7 0 0 0 -7.05 6.84v120.5a7 7 0 0 0 7.05 6.84h68a7 7 0 0 0 7.09-6.84v-120.5a7 7 0 0 0 -7.09-6.84z" fill="#5a2a22"/><path d="m109.76 11.79h-63.52a6.49 6.49 0 0 0 -6.58 6.37v112.41a6.5 6.5 0 0 0 6.62 6.43h63.44a6.5 6.5 0 0 0 6.62-6.38v-112.46a6.49 6.49 0 0 0 -6.58-6.37z" fill="#623833"/><path d="m107.47 16.29h-58.94a6 6 0 0 0 -6.1 5.92v104.31a6 6 0 0 0 6.13 5.92h58.88a6 6 0 0 0 6.13-5.92v-104.31a6 6 0 0 0 -6.1-5.92z" fill="#6b4543"/><path d="m105.18 20.8h-54.37a5.55 5.55 0 0 0 -5.62 5.46v96.21a5.57 5.57 0 0 0 5.66 5.47h54.3a5.57 5.57 0 0 0 5.66-5.47v-96.21a5.56 5.56 0 0 0 -5.63-5.46z" fill="#745253"/><path d="m68.9 26.07q5.67 2.7 10.25 4.95a61.55 61.55 0 0 0 10.85-8.59 1.46 1.46 0 0 1 2 0 1.34 1.34 0 0 1 0 1.95 65.49 65.49 0 0 1 -9.94 8.08c1.68.83 3.24 1.61 4.7 2.32l3.29 1.63 3.09-1.65c3-1.63 8.66-4.66 12.21-1.85a8.67 8.67 0 0 1 2.76 6.1 6 6 0 0 1 -1.41 4.68c-2.4 2.4-6 1-16.61-4.16-5.56 2.97-10.31 5.47-14.37 7.47 5.22 2.65 9.75 5.08 13.67 7.21l1.92-1c7.69-4 13.48-6.51 18-3.56 3.35 2.18 5.16 6.79 5.48 10.39.24 2.69-.33 4.83-1.61 6-3 2.79-7.9.08-19.76-6.45l-4.08-2.24c-6.73 3.57-12.07 6.81-16.34 9.44 3.55 2.43 6.51 4.87 9.18 7.07a42.59 42.59 0 0 1 16.29-3.24c4.37 0 17 1.1 17.49 5.69a4.22 4.22 0 0 1 -1.34 3.2c-2.45 2.73-8.4 5.74-14.62 5.94-7.43.25-12.39-3.48-18.35-8.38a68 68 0 0 0 -13.24 8.15c5.64 2.83 10.38 5.51 14.51 7.92a44.79 44.79 0 0 1 12.82-4.61c2.7-.51 16.26-2.82 18.6 2.88 1.54 3.77-2.24 10.29-7.35 12.69l-.28.13a5.91 5.91 0 0 1 4.37 2.59c1.16 2 1 5.22-.41 8.72-1.84 4.56-5.09 7.95-8.67 9.06-5.76 1.8-10.56-2.63-16.12-7.75-.76-.71-1.54-1.43-2.35-2.16l-.1.08a35.55 35.55 0 0 1 -8 5.14c-6.3 2.84-13.61 3.55-21.72 2.13a1.38 1.38 0 0 1 -1.15-1.6 1.44 1.44 0 0 1 1.67-1.11c7.52 1.32 14.25.67 20-1.92a32 32 0 0 0 7.14-4.59 49.35 49.35 0 0 0 -10.65-7.17l-2.23 2c-6.24 5.78-11.17 10.34-16.86 8.08-5.1-2-8.28-8.75-6.92-12.29 2-5.31 13.17-4.11 16.53-3.62a37.58 37.58 0 0 1 9 2.49 73.59 73.59 0 0 1 9.91-7.6c-4-2.34-8.69-4.93-14.17-7.64q-1.89 1.5-3.64 2.94c-7.25 5.9-13 10.55-18 7.47-2.62-1.61-4.48-5.2-5-9.61-.37-3.22 0-7.44 2.29-9.64 3.39-3.31 9.7-.9 17.58 2.62 2.24 1 4.37 2 6.38 3a77.26 77.26 0 0 1 13.69-8.71 106 106 0 0 0 -8.92-6.71c-8.87 5.57-13.36 8.34-18.61 6.23-4.48-1.81-7.74-6.76-9-10.88-.49-1.62-1.11-4.63.22-6.49 2.46-3.43 9.63-.61 14.86 1.45a76.22 76.22 0 0 1 12.61 6.37c4.13-2.57 9.36-5.77 16-9.36-4-2.16-8.59-4.59-13.84-7.24-16.59 8.06-19.75 7.67-22.15 6-2.13-1.47-3.6-4.45-3.92-8-.3-3.2.42-6 1.94-7.55 3.54-3.57 10.53-.21 17.3 3q3.6 1.73 6.86 3.36c4-2 8.75-4.4 14.41-7.4l-1.58-.78-6.21-3.07c-7.03 3.93-13.25 4.72-17.6 1.93a15.52 15.52 0 0 1 -6.13-9.26 4.14 4.14 0 0 1 .58-3.34 2.89 2.89 0 0 1 2.14-1.08c2.35-.2 5.92 1.5 10.66 3.75zm7.26 6.58c-2.61-1.27-5.44-2.64-8.53-4.1s-8.29-3.95-9.26-3.5c-.64 1 1.32 6.33 4.88 8.64a8.68 8.68 0 0 0 5.5 1.19 21.15 21.15 0 0 0 7.41-2.23zm28.51 9.12a3.68 3.68 0 0 0 .61-2.6 6 6 0 0 0 -1.73-4.17c-2-1.63-6.75.9-9 2.13l-1.38.74c6.71 3.3 10.53 4.88 11.5 3.9zm-35.2 5.23-5-2.43c-5-2.4-11.88-5.71-14-3.61-.91.92-1.38 3.09-1.16 5.39.25 2.69 1.31 5 2.75 6a3.26 3.26 0 0 0 2.12.39c2.49-.26 6.92-1.8 15.29-5.74zm25.38 10.18c9 5 14.92 8.22 16.36 6.87.48-.45.93-1.68.74-3.8-.26-2.94-1.79-6.75-4.23-8.34-3-1.92-7.21-.33-15.08 3.71l-.32.16zm-27 9.58a73.54 73.54 0 0 0 -11.06-5.47c-2.54-1-10.27-4-11.42-2.43-.37.5-.46 2 .18 4.14 1 3.37 3.75 7.66 7.35 9.11a6.34 6.34 0 0 0 2.92.45c2.88-.23 6.35-2.29 11.99-5.8zm32.08 15.94c5.12-.19 10.36-2.63 12.48-4.91.62-.66.74-1.08.73-1.17-.26-1.23-7.08-3.21-14.67-3.25a39.32 39.32 0 0 0 -13.84 2.49c5.15 4.19 9.37 7.04 15.3 6.84zm-39.42 5.24 2.69-2.18q-2.46-1.17-5.14-2.37c-7.66-3.41-12.47-5-14.35-3.19-1.25 1.23-1.85 4.2-1.48 7.4.4 3.48 1.84 6.46 3.68 7.59a3.67 3.67 0 0 0 2.24.51c3.14-.25 7.33-3.7 12.36-7.76zm25.77 7.16c9.55 5.62 14.81 8.72 19.48 6.52 4.2-2 6.76-7.17 5.94-9.18-1-2.39-8.74-2.49-15.39-1.2a41 41 0 0 0 -10.53 3.57zm-2.61 16a30.76 30.76 0 0 1 8.15-4.47 48.64 48.64 0 0 1 7.21-2c-3.93-1.06-8.41-3.7-14.24-7.13l-1.88-1.11a65.24 65.24 0 0 0 -9.91 7.25 53.72 53.72 0 0 1 10.67 7.42zm-17.1-5.35 1.43-1.31a34.18 34.18 0 0 0 -7.1-1.85c-4.65-.68-12.4-.78-13.41 1.84-.8 2.07 1.59 7.3 5.34 8.79a5 5 0 0 0 2.28.35c3.05-.23 6.44-3.22 11.46-7.86zm21.31 9.14c5.1 4.7 9.13 8.42 13.27 7.13 3.27-1 5.7-4.51 6.88-7.43s1.17-5.36.59-6.35c-1.47-2.49-9.34-1.44-15.79 1a27.47 27.47 0 0 0 -7 3.79z" fill="#ffd7bd"/><path d="m68.42 27c4 1.9 7.6 3.64 10.81 5.21a61.69 61.69 0 0 0 11.53-9.06.37.37 0 0 1 .5 0 .34.34 0 0 1 0 .49 62.71 62.71 0 0 1 -11.26 8.93l6.32 3.13 3.81 1.87 3.59-1.92c2.8-1.51 8-4.31 11-1.95a7.61 7.61 0 0 1 2.37 5.36 5.1 5.1 0 0 1 -1.09 3.94c-1.92 1.93-5.68.39-15.85-4.61-6.75 3.53-12.24 6.35-16.76 8.61 6.22 3.13 11.51 6 16 8.4l2.44-1.27c7.36-3.77 12.87-6.24 16.91-3.61 3 2 4.73 6.37 5 9.62.21 2.34-.26 4.23-1.28 5.19-2.46 2.21-7.46-.57-18.46-6.65l-4.59-2.53c-7.77 4.11-13.71 7.77-18.28 10.62a114.61 114.61 0 0 1 10.65 8.08l.27.22a41.45 41.45 0 0 1 16.47-3.42c5.55 0 16.06 1.45 16.44 4.78a3.32 3.32 0 0 1 -1.09 2.4c-2.3 2.57-8 5.38-13.85 5.59-7.22.24-12.1-3.59-18.09-8.54a71.85 71.85 0 0 0 -15.42 9.53c6.52 3.21 11.87 6.25 16.45 8.93a43.52 43.52 0 0 1 13-4.79c5.67-1.1 15.71-1.85 17.39 2.25 1.2 2.92-2 9.08-6.82 11.37-5.55 2.62-11.11-.66-21.19-6.6l-2.43-1.43a68.45 68.45 0 0 0 -11.77 8.75 52.14 52.14 0 0 1 12.47 8.52 30.49 30.49 0 0 1 8.58-4.86c5.13-1.91 15.49-4.41 18-.21 1 1.66.8 4.67-.48 7.83s-4.13 7.25-8 8.45c-5.15 1.6-9.52-2.42-15-7.52-1-.9-2-1.84-3-2.78l-.82.65a34.07 34.07 0 0 1 -7.89 5.03c-6.09 2.74-13.18 3.44-21.08 2a.34.34 0 0 1 -.28-.4.36.36 0 0 1 .41-.28c7.75 1.36 14.7.69 20.65-2a33.53 33.53 0 0 0 7.59-4.9l.74-.59a51.08 51.08 0 0 0 -12.48-8.45c-1 .87-1.88 1.72-2.78 2.55-5.95 5.51-10.66 9.87-15.71 7.87-4.53-1.8-7.5-7.91-6.33-11 1.84-4.78 14-3.15 15.37-2.94a35.66 35.66 0 0 1 9.32 2.69 70.21 70.21 0 0 1 11.77-8.84c-4.57-2.67-9.89-5.68-16.36-8.85-1.45 1.14-2.83 2.32-4.17 3.4-6.91 5.62-12.37 10.06-16.66 7.39-2.35-1.44-4-4.75-4.5-8.85-.43-3.81.33-7.18 2-8.81 2.64-2.59 7.58-1.07 16.36 2.84 2.46 1.09 4.77 2.17 7 3.24a73.9 73.9 0 0 1 15.52-9.69 115.43 115.43 0 0 0 -10.85-8.21l-.45.28c-8.7 5.44-13.07 8.16-17.82 6.25-4.26-1.7-7.26-6.33-8.47-10.21-.74-2.47-.72-4.51.07-5.61 2-2.76 9 0 13.57 1.82a73.5 73.5 0 0 1 13 6.65c4.54-2.83 10.46-6.48 18.2-10.6-4.5-2.44-9.81-5.28-16-8.4-16.39 8-19.51 7.72-21.53 6.33s-3.19-4-3.49-7.22c-.27-2.86.37-5.44 1.65-6.74 2.78-2.79 8.65-.3 16.05 3.26 2.57 1.23 5 2.43 7.33 3.6 4.49-2.2 10-5 16.71-8.6l-3.35-1.67-6.76-3.31c-6.85 3.92-12.89 4.79-17 2.13a14.34 14.34 0 0 1 -5.67-8.57 3.22 3.22 0 0 1 .43-2.56 1.89 1.89 0 0 1 1.39-.66c1.9-.14 5.28 1.4 10.03 3.66zm10.08 5.63c-3.1-1.52-6.55-3.19-10.39-5-4.9-2.33-9.53-4.53-10.6-3.19a2.7 2.7 0 0 0 -.23 2 13.89 13.89 0 0 0 5.37 8.11 9.86 9.86 0 0 0 6.23 1.39 24.15 24.15 0 0 0 9.62-3.31zm26.94 9.86a4.54 4.54 0 0 0 .91-3.39 7.07 7.07 0 0 0 -2.11-4.87c-2.62-2.07-7.56.59-10.24 2l-3.15 1.77c9.26 4.49 13.03 6 14.59 4.49zm-33.6 4.51q-3.27-1.67-6.84-3.41c-7.13-3.42-12.78-5.84-15.21-3.39-1.15 1.16-1.71 3.53-1.46 6.2.28 3 1.51 5.55 3.19 6.72a4 4 0 0 0 2.78.62c2.58-.2 7.38-1.84 17.54-6.74zm22.48 11.08c10.39 5.73 15.61 8.6 17.63 6.71.87-.81 1.26-2.49 1.07-4.63-.27-3.09-1.86-7.25-4.7-9.11-3.71-2.42-9 0-16.18 3.65l-2 1.06zm-24.72 8.79.19-.11a73.43 73.43 0 0 0 -12.63-6.42c-4.16-1.63-11.07-4.34-12.72-2.07-.65.91-.64 2.79 0 5 1.12 3.72 4 8.18 8 9.76a7.42 7.42 0 0 0 3.43.54c3.36-.22 7.24-2.64 13.73-6.7zm30.4 16.86c5.5-.18 11.1-2.86 13.33-5.35a2.74 2.74 0 0 0 .92-1.88c-.26-2.3-8.67-4.13-15.74-4.16a40.8 40.8 0 0 0 -15.85 3.23c5.72 4.75 10.46 8.43 17.34 8.16zm-38.76 5c1.25-1 2.57-2.09 4-3.18q-3.24-1.55-6.73-3.1c-8.29-3.69-13.23-5.25-15.56-3-1.49 1.46-2.19 4.69-1.79 8.24.44 3.83 2 7 4.17 8.35a4.67 4.67 0 0 0 2.87.66c3.51-.24 7.8-3.76 13-7.97zm24.48 7.27c9.87 5.82 15.3 9 20.51 6.57 4.48-2.1 7.54-7.88 6.47-10.5-1.51-3.69-11.51-2.81-16.59-1.83a43 43 0 0 0 -12.49 4.53zm-18.41 10.45 2.57-2.36a35.58 35.58 0 0 0 -8.88-2.52c-.53-.08-12.92-1.84-14.59 2.5-1.06 2.78 1.83 8.48 5.94 10.11a6.15 6.15 0 0 0 2.78.43c3.67-.28 7.4-3.73 12.18-8.16zm19.82 9.15c5.36 4.94 9.6 8.84 14.35 7.36 3.62-1.13 6.27-4.89 7.55-8 1.2-3 1.4-5.75.52-7.24-2.08-3.52-11.36-1.62-17.1.52a29.79 29.79 0 0 0 -8.3 4.68c1.04.88 2.03 1.8 2.98 2.68z" fill="#fff" opacity=".25"/></svg>