<svg viewBox="0 0 156 156" xmlns="http://www.w3.org/2000/svg" xmlns:xlink="http://www.w3.org/1999/xlink"><clipPath id="a"><path d="m139.8 74.64-14.43 14.43-47.37 47.36-47.37-47.36-14.43-14.43c-11.37-11.38-10-31.2 3.09-44.28s32.9-14.46 44.28-3.09l14.43 14.43 14.43-14.43c11.38-11.37 31.2-10 44.29 3.09s14.46 32.9 3.08 44.28z"/></clipPath><path d="m139.8 74.64-14.43 14.43-43.75 43.74a5.13 5.13 0 0 1 -7.25 0l-43.74-43.74-14.43-14.43c-11.37-11.38-10-31.2 3.09-44.28s32.9-14.46 44.28-3.09l10.8 10.81a5.13 5.13 0 0 0 7.25 0l10.81-10.81c11.38-11.37 31.2-10 44.29 3.09s14.46 32.9 3.08 44.28z"/><g clip-path="url(#a)"><path d="m133.53 86.13-13 11.74-37.3 33.8a7.84 7.84 0 0 1 -10.52 0l-37.3-33.8-13-11.74c-10.21-9.26-9-25.4 2.78-36s29.62-11.82 39.81-2.56l7.7 7a7.86 7.86 0 0 0 10.53 0l7.7-7c10.23-9.26 28-8.14 39.8 2.51s13.02 26.79 2.8 36.05z" fill="#051c21"/></g></svg>