<svg viewBox="0 0 200 200" xmlns="http://www.w3.org/2000/svg"><path d="m100 2.94h-1a5.57 5.57 0 0 0 -1.6.6 6.17 6.17 0 0 0 -.93.64h-.2a3.83 3.83 0 0 0 -.29.28l-.07.07a9.73 9.73 0 0 0 -.7.84l-.07.1-.19.26-.26.36-.3.42-.3.42-.26.37-.35.7-.07.1-2 2.6a3 3 0 1 0 4.81 3.59l1.94-2.6v-.05l1.64-2.29a1.4 1.4 0 0 1 .38-.4l-2.54-4.86a3 3 0 0 1 2.36-1.15zm-13.33 16.14a3 3 0 0 0 -2.4 1.2l-4.84 6.46-2.31 3.07a3 3 0 1 0 4.81 3.59l7.19-9.6a3 3 0 0 0 -2.4-4.8zm-14.39 19.21a3 3 0 0 0 -2.4 1.2l-7.2 9.61a3 3 0 0 0 .61 4.19 3 3 0 0 0 1.8.6 3 3 0 0 0 2.4-1.2l7.19-9.6a3 3 0 0 0 -.6-4.2 3 3 0 0 0 -1.8-.6zm-14.38 19.21a3 3 0 0 0 -2.4 1.2l-7.2 9.6a3 3 0 0 0 .6 4.2 3 3 0 0 0 1.8.6 3 3 0 0 0 2.4-1.2l7.19-9.6a3 3 0 0 0 -.6-4.2 2.94 2.94 0 0 0 -1.79-.6zm-14.39 19.21a3 3 0 0 0 -2.41 1.2l-4.54 6.09h-.07a9.54 9.54 0 0 0 -.79 1.35v.05h-.08a10.41 10.41 0 0 0 -.3 1.13 3 3 0 0 0 2.28 3.57 2.81 2.81 0 0 0 .65.07 3 3 0 0 0 2.92-2.35 4.8 4.8 0 0 1 .73-1.71l4.55-6.06a3 3 0 0 0 -.61-4.2 2.94 2.94 0 0 0 -1.79-.6zm-6.06 20.29a3 3 0 0 0 -3 3v5.75.06.06.09.08.09.09a11.66 11.66 0 0 0 1.55 5.48 3 3 0 0 0 2.59 1.48 3 3 0 0 0 1.51-.4 3 3 0 0 0 1.09-4.1 6.08 6.08 0 0 1 -.72-3v-5.68a3 3 0 0 0 -3-3zm7.92 19.77a3 3 0 0 0 -2.44 4.75l7 9.75a3 3 0 0 0 4.88-3.49l-7-9.76a3 3 0 0 0 -2.44-1.25zm14 19.51a3 3 0 0 0 -2.46 4.72l1.42 2 .1.14v.05h.05l.07.1 5.23 7.29a3 3 0 0 0 4.87-3.49l-7-9.76a3 3 0 0 0 -2.44-1.25zm14 19.51a3 3 0 0 0 -1.74.56 3 3 0 0 0 -.7 4.19l3.54 4.93 3.44 4.8a3 3 0 0 0 4.87-3.5l-7-9.76a3 3 0 0 0 -2.44-1.25zm14 19.51a3 3 0 0 0 -2.51 4.7l4.57 6.38.11.15v.06.05.05l2.13 3a3 3 0 0 0 4.88-3.49l-7-9.76a3 3 0 0 0 -2.44-1.25zm15.15 20.82a3 3 0 0 1 -1.86 1 5.47 5.47 0 0 0 2-.67l-.16-.29zm3.92-12a3 3 0 0 0 -2.44 1.26l-3.86 5.39a1.56 1.56 0 0 1 -.38.41l2.76 4.95.16.29a7 7 0 0 0 2.1-1.83v-.06-.05l.09-.13v-.06l3.54-5a3 3 0 0 0 -.7-4.18 2.93 2.93 0 0 0 -1.74-.56zm14-19.52a3 3 0 0 0 -2.44 1.26l-7 9.76a3 3 0 0 0 .7 4.18 2.93 2.93 0 0 0 1.74.56 3 3 0 0 0 2.44-1.25l7-9.77a3 3 0 0 0 -2.45-4.74zm14-19.52a3 3 0 0 0 -2.45 1.26l-7 9.76a3 3 0 0 0 4.88 3.49l5.89-8.24.12-.16.8-1.1a3 3 0 0 0 -.7-4.19 3 3 0 0 0 -1.74-.56zm14-19.52a3 3 0 0 0 -2.44 1.26l-7 9.76a3 3 0 0 0 4.88 3.49l7-9.76a3 3 0 0 0 -2.44-4.75zm13.5-19.11a3 3 0 0 0 -2.73 1.76 4.09 4.09 0 0 1 -.38.66l-6.03 8.13a3 3 0 0 0 4.87 3.49l5.25-7.33.08-.16h.06.06v-.05-.07l.14-.2h.24v-.07a9.3 9.3 0 0 0 .62-1.17 3 3 0 0 0 -1.49-4 3.07 3.07 0 0 0 -1.24-.26zm.32-21.59a3.09 3.09 0 0 0 -1 .15 3 3 0 0 0 -1.9 3.8 6.65 6.65 0 0 1 .25 3l-.11.82.11.82a6.68 6.68 0 0 1 .07 1v4.46a3 3 0 0 0 6 0v-4.6a12.94 12.94 0 0 0 -.13-1.77 12.82 12.82 0 0 0 0-3v-.06a11.49 11.49 0 0 0 -.44-1.75 3 3 0 0 0 -2.84-2zm-13.66-18.7a3 3 0 0 0 -2.4 4.8l7.19 9.61a3 3 0 0 0 4.81-3.57l-7.2-9.64a3 3 0 0 0 -2.4-1.2zm-14.39-19.16a3 3 0 0 0 -2.4 4.8l7.19 9.56a3 3 0 0 0 4.8-3.6s-3.87-5.18-5.94-7.93l-.06-.09-.09-.12-1-1.39a3 3 0 0 0 -2.4-1.21zm-14.39-19.2a3 3 0 0 0 -1.8.6 3 3 0 0 0 -.6 4.19l7.19 9.61a3 3 0 0 0 2.41 1.2 2.94 2.94 0 0 0 1.79-.6 3 3 0 0 0 .61-4.2l-7.2-9.6a3 3 0 0 0 -2.4-1.2zm-14.39-19.26a3 3 0 0 0 -1.8.6 3 3 0 0 0 -.6 4.2l7.2 9.6a3 3 0 0 0 2.4 1.2 3 3 0 0 0 1.8-.6 3 3 0 0 0 .6-4.19l-4.86-6.5v-.06l-.08-.1-2.12-2.83a3 3 0 0 0 -2.4-1.2z" fill="#351a10"/></svg>