<svg viewBox="0 0 200 200" xmlns="http://www.w3.org/2000/svg" xmlns:xlink="http://www.w3.org/1999/xlink"><clipPath id="a"><path d="m134.26 84.47-30.71-41-.88-1.23a3.09 3.09 0 0 0 -5.34 0l-.89 1.23-30.7 41a6.16 6.16 0 0 0 -1.12 3.43v8.27a6.34 6.34 0 0 0 1.08 3.64l31.62 44.19a3.09 3.09 0 0 0 5.35 0l31.64-44.22a6.42 6.42 0 0 0 1.08-3.66v-6.12a7.46 7.46 0 0 0 -.06-1 6.39 6.39 0 0 0 -1.07-4.53z"/></clipPath><path d="m103.93 25.21c-2.16-3-5.7-3-7.86 0l-48.07 67.15v12.16a9.35 9.35 0 0 0 1.6 5.36l46.51 64.91c2.16 3 5.7 3 7.86 0l46.51-65a9.36 9.36 0 0 0 1.6-5.37v-8.94a9.32 9.32 0 0 0 -1.6-5.35z" fill="#732119"/><path d="m104 25.27 44.63 61.73a10.9 10.9 0 0 1 1.9 4.94l1.09 8.14a9.42 9.42 0 0 1 -.78 5.42 33.32 33.32 0 0 1 -2.77 4.59l-44.07 60.97c-2.18 3-5.74 3-7.92 0l-44.15-60.86a33.71 33.71 0 0 1 -2.77-4.59 9.34 9.34 0 0 1 -.78-5.4l1.52-11.15 45.26-62.56c.09-.13 1.08-1.44 1.18-1.53 2.46-2.42 5.53-2.59 7.66.3z" fill="#91312b"/><path d="m104 25.33 42.84 58.61c.51.71 2.19 3.53 2.19 4.53l2.18 7.37a11.85 11.85 0 0 1 0 5.46 21.55 21.55 0 0 1 -2.4 4.8l-44.81 61.25c-2.2 3-5.78 3-8 0l-44.83-61.19a21.44 21.44 0 0 1 -2.41-4.81 11.81 11.81 0 0 1 0-5.45l3-10.13 43.67-59.63c.18-.24 1-1.24 1.17-1.42 2.4-2.16 5.4-2.15 7.4.61z" fill="#b0423c"/><path d="m104 25.38 41 55.46c.25.36 2.48 3.62 2.48 4.12l3.27 6.6a10.22 10.22 0 0 1 .86 5.51 13 13 0 0 1 -2 5l-45.61 61.56c-2.21 3-5.81 3-8 0l-45.6-61.51a13 13 0 0 1 -2-5 10.2 10.2 0 0 1 .86-5.5l4.55-9.12 41.88-56.71a10.81 10.81 0 0 1 1.18-1.31 4.64 4.64 0 0 1 7.13.9z" fill="#ce524e"/><path d="m150.36 98.07-46.36 61.84c-2.23 3-5.85 3-8.08 0l-46.28-61.84a9.54 9.54 0 0 1 0-10.79l46.36-61.84c2.23-3 5.85-3 8.08 0l46.32 61.84a9.54 9.54 0 0 1 -.04 10.79z" fill="#ec625f"/><path d="m147.2 97.73-43.41 58a4.47 4.47 0 0 1 -7.58 0l-43.41-58a8.93 8.93 0 0 1 0-10.11l43.41-58a4.48 4.48 0 0 1 7.58 0l43.41 58a8.93 8.93 0 0 1 0 10.11z" fill="#f06d69"/><path d="m144 97.39-40.51 54.08a4.16 4.16 0 0 1 -7.06 0l-40.43-54.08a8.3 8.3 0 0 1 0-9.39l40.47-54.12a4.16 4.16 0 0 1 7.06 0l40.47 54.12a8.3 8.3 0 0 1 0 9.39z" fill="#f37873"/><path d="m140.88 97.06-37.6 50.2a3.87 3.87 0 0 1 -6.56 0l-37.6-50.2a7.71 7.71 0 0 1 0-8.76l37.6-50.2a3.87 3.87 0 0 1 6.56 0l37.6 50.2a7.71 7.71 0 0 1 0 8.76z" fill="#fb8e87"/><path d="m137.72 96.72-34.72 46.28a3.58 3.58 0 0 1 -6 0l-34.72-46.28a7.12 7.12 0 0 1 0-8.09l34.72-46.32a3.58 3.58 0 0 1 6.06 0l34.69 46.32a7.12 7.12 0 0 1 -.03 8.09z" fill="#f7837d"/><g clip-path="url(#a)"><path d="m36.06 147.75a1.1 1.1 0 0 1 -1.1-1.1v-111.53a1.1 1.1 0 1 1 2.19 0v111.53a1.09 1.09 0 0 1 -1.09 1.1z" fill="#5b3114"/><path d="m35.78 35.12h.55v111.54h-.55z" fill="#fff" opacity=".25"/><path d="m48.39 147.75a1.09 1.09 0 0 1 -1.09-1.1v-111.53a1.1 1.1 0 1 1 2.19 0v111.53a1.1 1.1 0 0 1 -1.1 1.1z" fill="#5b3114"/><path d="m48.12 35.12h.55v111.54h-.55z" fill="#fff" opacity=".25"/><path d="m73.07 147.75a1.1 1.1 0 0 1 -1.1-1.1v-111.53a1.1 1.1 0 1 1 2.19 0v111.53a1.09 1.09 0 0 1 -1.09 1.1z" fill="#5b3114"/><path d="m72.79 35.12h.55v111.54h-.55z" fill="#fff" opacity=".25"/><path d="m110.07 147.75a1.09 1.09 0 0 1 -1.09-1.1v-111.53a1.1 1.1 0 1 1 2.19 0v111.53a1.1 1.1 0 0 1 -1.1 1.1z" fill="#5b3114"/><path d="m109.8 35.12h.55v111.54h-.55z" fill="#fff" opacity=".25"/><path d="m122.41 147.75a1.1 1.1 0 0 1 -1.1-1.1v-111.53a1.1 1.1 0 1 1 2.19 0v111.53a1.09 1.09 0 0 1 -1.09 1.1z" fill="#5b3114"/><path d="m122.13 35.12h.55v111.54h-.55z" fill="#fff" opacity=".25"/><path d="m85.4 147.75a1.09 1.09 0 0 1 -1.09-1.1v-111.53a1.1 1.1 0 1 1 2.19 0v111.53a1.1 1.1 0 0 1 -1.1 1.1z" fill="#5b3114"/><path d="m85.13 35.12h.55v111.54h-.55z" fill="#fff" opacity=".25"/><path d="m134.74 147.75a1.09 1.09 0 0 1 -1.09-1.1v-111.53a1.1 1.1 0 1 1 2.19 0v111.53a1.1 1.1 0 0 1 -1.1 1.1z" fill="#5b3114"/><path d="m134.47 35.12h.55v111.54h-.55z" fill="#fff" opacity=".25"/><path d="m60.73 147.75a1.1 1.1 0 0 1 -1.1-1.1v-111.53a1.1 1.1 0 1 1 2.19 0v111.53a1.09 1.09 0 0 1 -1.09 1.1z" fill="#5b3114"/><path d="m60.46 35.12h.55v111.54h-.55z" fill="#fff" opacity=".25"/><path d="m97.74 147.75a1.1 1.1 0 0 1 -1.1-1.1v-111.53a1.1 1.1 0 1 1 2.19 0v111.53a1.09 1.09 0 0 1 -1.09 1.1z" fill="#5b3114"/><path d="m97.46 35.12h.55v111.54h-.55z" fill="#fff" opacity=".25"/><path d="m159.41 147.75a1.09 1.09 0 0 1 -1.09-1.1v-111.53a1.1 1.1 0 1 1 2.19 0v111.53a1.1 1.1 0 0 1 -1.1 1.1z" fill="#5b3114"/><path d="m159.14 35.12h.55v111.54h-.55z" fill="#fff" opacity=".25"/><path d="m147.08 147.75a1.1 1.1 0 0 1 -1.1-1.1v-111.53a1.1 1.1 0 1 1 2.19 0v111.53a1.09 1.09 0 0 1 -1.09 1.1z" fill="#5b3114"/><path d="m146.81 35.12h.55v111.54h-.55z" fill="#fff" opacity=".25"/><path d="m171.75 147.75a1.09 1.09 0 0 1 -1.09-1.1v-111.53a1.09 1.09 0 1 1 2.18 0v111.53a1.09 1.09 0 0 1 -1.09 1.1z" fill="#5b3114"/><path d="m171.48 35.12h.55v111.54h-.55z" fill="#fff" opacity=".25"/><path d="m184.09 147.75a1.1 1.1 0 0 1 -1.1-1.1v-111.53a1.1 1.1 0 1 1 2.19 0v111.53a1.09 1.09 0 0 1 -1.09 1.1z" fill="#5b3114"/><path d="m183.81 35.12h.55v111.54h-.55z" fill="#fff" opacity=".25"/><path d="m196.42 147.75a1.09 1.09 0 0 1 -1.09-1.1v-111.53a1.1 1.1 0 1 1 2.19 0v111.53a1.1 1.1 0 0 1 -1.1 1.1z" fill="#5b3114"/><path d="m196.15 35.12h.55v111.54h-.55z" fill="#fff" opacity=".25"/></g></svg>