<svg viewBox="0 0 156 156" xmlns="http://www.w3.org/2000/svg" xmlns:xlink="http://www.w3.org/1999/xlink"><clipPath id="a"><path d="m147.48 45.58a34.36 34.36 0 0 0 -1.26-5.38c-.26-.82-.56-1.64-.89-2.45-.05-.11-.1-.23-.14-.34-.33-.78-.68-1.56-1.07-2.32l-.08-.17c-.42-.83-.88-1.65-1.37-2.45l-.15-.24c0-.07-.09-.13-.13-.19a.57.57 0 0 0 -.08-.13l-.2-.31v-.06c-.08-.13-.16-.26-.25-.39-.2-.31-.41-.61-.62-.91l-.33-.46-.19-.24-.17-.24-.16-.21c-.28-.37-.58-.72-.88-1.08-.13-.16-.26-.33-.4-.49a1.47 1.47 0 0 1 -.1-.13l-.11-.12-.1-.11c-.55-.62-1.11-1.23-1.7-1.83-13.17-13.15-33.08-14.53-44.52-3.1l-7.6 7.6a9.77 9.77 0 0 1 -10.66 2.17 9.2 9.2 0 0 1 -1.7-.89 10 10 0 0 1 -1.53-1.25l-7.6-7.6a25.56 25.56 0 0 0 -7.22-5.08 28.13 28.13 0 0 0 -11.38-2.65c-1 0-2 0-3 .06a33.5 33.5 0 0 0 -6.05 1 37.15 37.15 0 0 0 -16.84 9.72c-.6.6-1.16 1.21-1.71 1.83l-.1.11-.1.12-.09.13c-.14.16-.26.33-.4.49-.3.36-.6.72-.88 1.08l-.15.21-.18.24-.18.24c-.12.15-.22.31-.33.46-.22.3-.43.6-.63.91l-.24.37v.06l-.2.31-.08.13-.12.18c0 .08-.11.16-.16.25-.49.8-.95 1.62-1.37 2.45 0 .05-.05.11-.08.16-.39.77-.74 1.54-1.07 2.33 0 .11-.09.22-.14.34-.33.81-.63 1.62-.89 2.44a34.51 34.51 0 0 0 -1.26 5.37c-2.19 9.74 2.66 31.32 9.3 38.18l14.06 14.51 39 40.35a9.77 9.77 0 0 0 14 0l39-40.35 14-14.51c6.7-6.86 11.55-28.44 9.48-38.12z"/></clipPath><path d="m147.48 45.58a36.6 36.6 0 0 0 -10.48-20.27c-13.16-13.15-33.07-14.53-44.51-3.1l-7.6 7.6a9.77 9.77 0 0 1 -13.81 0l-7.6-7.6c-11.43-11.43-31.35-10-44.5 3.1a36.66 36.66 0 0 0 -10.45 20.29c-2.08 9.66 2.77 31.24 9.41 38.1l14.06 14.51 39 40.35a9.77 9.77 0 0 0 14 0l39-40.35 14-14.51c6.7-6.86 11.55-28.44 9.48-38.12z" fill="#33120c"/><path d="m19 25.31c13.15-13.15 33.07-14.53 44.5-3.1l7.6 7.6a9.77 9.77 0 0 0 13.81 0l7.6-7.6c11.44-11.43 31.35-10 44.51 3.1a36.34 36.34 0 0 1 10.18 19.06c1.24 5.21.69 12.94-1.12 20.12-1.63 6.44-4.26 12.44-7.5 15.76l-14.15 14.49-39.43 40.43a9.76 9.76 0 0 1 -14 0l-39.41-40.41-14.16-14.53c-3.24-3.31-5.87-9.31-7.5-15.74-1.81-7.19-2.38-14.92-1.13-20.14a36.35 36.35 0 0 1 10.2-19.04z" fill="#3d1812"/><path d="m19 25.31c13.15-13.15 33.07-14.53 44.5-3.1l7.6 7.6a9.77 9.77 0 0 0 13.81 0l7.6-7.6c11.44-11.43 31.35-10 44.51 3.1a36.27 36.27 0 0 1 9.9 17.82c1.4 5.32 1.11 12.39-.52 18.93-1.45 5.86-4 11.31-7.31 14.7l-14.26 14.5-39.83 40.53a9.76 9.76 0 0 1 -13.92 0l-39.85-40.48-14.32-14.55c-3.33-3.39-5.86-8.83-7.31-14.69-1.6-6.55-1.92-13.62-.52-18.94a36.31 36.31 0 0 1 9.92-17.82z" fill="#471e17"/><path d="m19 25.31c13.15-13.15 33.07-14.53 44.5-3.1l7.6 7.6a9.77 9.77 0 0 0 13.81 0l7.6-7.6c11.44-11.43 31.35-10 44.51 3.1a36.69 36.69 0 0 1 9.63 16.59 35.61 35.61 0 0 1 .09 17.74 29.13 29.13 0 0 1 -7.13 13.64l-14.38 14.5-40.3 40.63a9.76 9.76 0 0 1 -13.86 0l-40.21-40.54-14.46-14.58a29.23 29.23 0 0 1 -7.13-13.63 35.68 35.68 0 0 1 .09-17.76 36.65 36.65 0 0 1 9.64-16.59z" fill="#50241d"/><path d="m147.06 57.24a26.05 26.05 0 0 1 -6.94 12.58l-14.51 14.5-40.71 40.68a9.76 9.76 0 0 1 -13.81 0l-55.2-55.2a26.15 26.15 0 0 1 -7-12.58c-2.51-10.52 1-22.85 10-31.93 13.15-13.15 33.07-14.53 44.5-3.1l7.6 7.6a9.77 9.77 0 0 0 13.81 0l7.6-7.6c11.44-11.43 31.35-10 44.51 3.1 9.19 9.1 12.65 21.43 10.15 31.95z" fill="#5a2a22"/><path d="m142.51 57.33a24.44 24.44 0 0 1 -6.51 11.75l-13.53 13.54-38 38a9.11 9.11 0 0 1 -12.89 0l-51.58-51.54a24.36 24.36 0 0 1 -6.5-11.75c-2.34-9.83.9-21.34 9.38-29.82 12.28-12.28 30.89-13.58 41.57-2.9l7.1 7.1a9.11 9.11 0 0 0 12.89 0l7.1-7.1c10.69-10.68 29.29-9.38 41.58 2.9 8.48 8.49 11.72 19.99 9.39 29.82z" fill="#61342e"/><path d="m138 57.42a22.73 22.73 0 0 1 -6 10.92l-12.67 12.58-35.33 35.34a8.49 8.49 0 0 1 -12 0l-47.91-47.92a22.65 22.65 0 0 1 -6-10.92c-2.18-9.14.84-19.83 8.72-27.71 11.38-11.42 28.67-12.62 38.6-2.71l6.59 6.61a8.48 8.48 0 0 0 12 0l6.58-6.61c9.94-9.92 27.22-8.72 38.65 2.7 7.88 7.89 10.88 18.58 8.77 27.72z" fill="#673e3b"/><path d="m133.39 57.51a21 21 0 0 1 -5.57 10.09l-11.63 11.63-32.66 32.64a7.82 7.82 0 0 1 -11.07 0l-44.27-44.27a21 21 0 0 1 -5.58-10.09c-2-8.44.78-18.33 8.06-25.61 10.55-10.54 26.53-11.66 35.7-2.49l6.09 6.1a7.82 7.82 0 0 0 11.07 0l6.1-6.1c9.18-9.17 25.15-8 35.7 2.49 7.28 7.28 10.06 17.17 8.06 25.61z" fill="#6e4847"/><path d="m128.83 57.6a19.19 19.19 0 0 1 -5.11 9.25l-10.72 10.68-30 30a7.19 7.19 0 0 1 -10.16 0l-40.56-40.68a19.27 19.27 0 0 1 -5.11-9.25c-1.84-7.75.71-16.82 7.4-23.5 9.67-9.68 24.34-10.7 32.75-2.29l5.6 5.6a7.19 7.19 0 0 0 10.16 0l5.59-5.6c8.43-8.41 23.08-7.39 32.77 2.29 6.68 6.68 9.23 15.75 7.39 23.5z" fill="#745253"/><g clip-path="url(#a)"><path d="m25 109.77a107.53 107.53 0 0 0 6.06-19.62 97.26 97.26 0 0 0 1.94-20.34 99.37 99.37 0 0 0 -2.51-20.25c-1.49-6.65-3.6-13.15-5.66-19.72-1-3.29-2.07-6.59-2.86-10a27.93 27.93 0 0 1 -.77-10.77 13.31 13.31 0 0 1 6.24-9.23 12.44 12.44 0 0 1 5.47-1.84 9.07 9.07 0 0 1 5.84 1.44 13.07 13.07 0 0 1 3.83 4.29 28.63 28.63 0 0 1 2.26 5 60.06 60.06 0 0 1 2.4 10.27 121.18 121.18 0 0 1 1 20.83 145.09 145.09 0 0 1 -7.24 40.8c-2.16 6.58-4.87 12.94-7.45 19.29a49.2 49.2 0 0 0 -3 9.7 13.62 13.62 0 0 0 -.16 2.46c0 .41 0 .82.06 1.22l.27 1.17a4.36 4.36 0 0 0 .44 1.1 4.64 4.64 0 0 0 .57 1.05 8.54 8.54 0 0 0 1.63 1.77 10.77 10.77 0 0 0 9.23 2.08 8 8 0 0 0 4.05-2.47 10.17 10.17 0 0 0 1.36-2c.29-.78.68-1.52.9-2.33a54.35 54.35 0 0 0 1.88-10c.37-3.41.59-6.83.8-10.25.68-13.72.49-27.48.32-41.22s-.67-27.48-1-41.26c0-3.46-.07-6.92.22-10.45a17.45 17.45 0 0 1 1.21-5.59 3.56 3.56 0 0 1 1.37-1.6 2.59 2.59 0 0 1 1.41-.3 3.12 3.12 0 0 1 1.16.31 7.47 7.47 0 0 1 2.42 2.12 43.75 43.75 0 0 1 5.14 9.37 92.8 92.8 0 0 1 3.58 9.86c4.09 13.49 4.07 27.9 1.76 41.6s-6.89 26.93-11 40c-1 3.26-1.94 6.53-2.61 9.8s-1.11 6.63-.31 9.38a5.62 5.62 0 0 0 2.28 3.12 7.31 7.31 0 0 0 4 .92 12.77 12.77 0 0 0 4.39-1 7.52 7.52 0 0 0 1.94-1.13 9.12 9.12 0 0 0 1.71-1.47 22.54 22.54 0 0 0 4.68-8.33 58.87 58.87 0 0 0 2.3-9.77 132.62 132.62 0 0 0 1.45-20.43 356.86 356.86 0 0 0 -2.71-41q-2.4-20.46-6-40.79l.33-.07c2.86 13.46 5.42 27 7.35 40.64a339.84 339.84 0 0 1 3.64 41.22 134.33 134.33 0 0 1 -1.07 20.8 62.07 62.07 0 0 1 -2.28 10.32 25.6 25.6 0 0 1 -5.26 9.53 12.41 12.41 0 0 1 -2.16 1.91 11 11 0 0 1 -2.49 1.48 15.23 15.23 0 0 1 -5.59 1.34 10.55 10.55 0 0 1 -5.89-1.39 9 9 0 0 1 -3.73-5c-1.1-3.94-.46-7.59.19-11s1.67-6.83 2.67-10.14c4.1-13.19 8.52-26.15 10.8-39.56s2.47-27.17-1.34-40.14a87.3 87.3 0 0 0 -3.46-9.5 42.48 42.48 0 0 0 -4.64-8.74 5.31 5.31 0 0 0 -1.36-1.38c-.19-.07 0 0 .11-.09a1.12 1.12 0 0 0 -.25.37 15.59 15.59 0 0 0 -1 4.52c-.33 3.32-.36 6.75-.37 10.17.15 13.73.23 27.51.15 41.27s-.28 27.53-1 41.29c-.23 3.44-.47 6.88-.87 10.31a56.28 56.28 0 0 1 -2 10.22c-.24.84-.66 1.64-1 2.46a12.36 12.36 0 0 1 -1.49 2.25 9.09 9.09 0 0 1 -4.56 2.84 11.85 11.85 0 0 1 -10.22-2.21 9.61 9.61 0 0 1 -1.88-2 6.13 6.13 0 0 1 -.67-1.2 5.46 5.46 0 0 1 -.52-1.28l-.32-1.34c-.06-.45-.06-.9-.09-1.35a17 17 0 0 1 .15-2.68 53.53 53.53 0 0 1 3-10c2.45-6.45 5-12.82 7-19.36a145.16 145.16 0 0 0 6.27-40.32 117.68 117.68 0 0 0 -1.14-20.32 56.68 56.68 0 0 0 -2.3-9.76c-1.13-3-2.57-6.18-4.92-7.81s-5.63-1.18-8.21.4a10.5 10.5 0 0 0 -5 7.29 25.48 25.48 0 0 0 .64 9.69c.72 3.29 1.73 6.56 2.72 9.84a201.45 201.45 0 0 1 5.36 20 101.24 101.24 0 0 1 2.13 20.72 96 96 0 0 1 -9.39 40.1z" fill="#ffe2cf"/><path d="m25.14 109.82a98.14 98.14 0 0 0 8.5-40 100.89 100.89 0 0 0 -2.34-20.43c-1.44-6.72-3.49-13.28-5.54-19.84-1-3.29-2.05-6.58-2.81-9.95a26.93 26.93 0 0 1 -.72-10.35 12.21 12.21 0 0 1 5.77-8.49 11.48 11.48 0 0 1 5-1.68 8 8 0 0 1 5.13 1.27 11.88 11.88 0 0 1 3.49 4 27.5 27.5 0 0 1 2.16 4.76 57.75 57.75 0 0 1 2.37 10.09 119.81 119.81 0 0 1 1.05 20.59 145.31 145.31 0 0 1 -6.85 40.64c-2.09 6.57-4.73 12.93-7.26 19.32a50.72 50.72 0 0 0 -3 9.81 14.34 14.34 0 0 0 -.16 2.53c0 .43 0 .85.07 1.27l.29 1.23a4.52 4.52 0 0 0 .46 1.17 5.62 5.62 0 0 0 .61 1.1 8.88 8.88 0 0 0 1.72 1.85 11.15 11.15 0 0 0 9.59 2.14 8.37 8.37 0 0 0 4.25-2.62 10.36 10.36 0 0 0 1.41-2.11 25.6 25.6 0 0 0 .92-2.39 54.63 54.63 0 0 0 1.92-10.09c.38-3.41.61-6.84.82-10.27.66-13.74.67-27.5.58-41.25s-.39-27.5-.64-41.26c0-3.44 0-6.89.27-10.34a17.07 17.07 0 0 1 1.09-5.15 2.61 2.61 0 0 1 1-1.13 1.67 1.67 0 0 1 1.57 0 6.43 6.43 0 0 1 2 1.82 43.09 43.09 0 0 1 5 9.14 93.36 93.36 0 0 1 3.42 9.8c4 13.3 3.91 27.49 1.57 41.05s-6.8 26.66-10.85 39.77c-1 3.28-1.94 6.58-2.63 9.93s-1.17 6.81-.25 10a6.85 6.85 0 0 0 2.83 3.81 8.41 8.41 0 0 0 4.72 1.09 13.58 13.58 0 0 0 4.84-1.13 8.86 8.86 0 0 0 2.14-1.26 10.16 10.16 0 0 0 1.88-1.64 23.65 23.65 0 0 0 4.91-8.79 59.23 59.23 0 0 0 2.3-10 132.68 132.68 0 0 0 1.26-20.49 351.32 351.32 0 0 0 -3.06-41.1c-1.75-13.64-3.94-27.24-6.59-40.73h.09c2.68 13.49 5 27.06 6.79 40.7a349.5 349.5 0 0 1 3.3 41.14 132.94 132.94 0 0 1 -1.16 20.65 60.32 60.32 0 0 1 -2.27 10.11 24.54 24.54 0 0 1 -5 9.1 10.41 10.41 0 0 1 -2 1.75 9.66 9.66 0 0 1 -2.27 1.35 14 14 0 0 1 -5.14 1.22 9.32 9.32 0 0 1 -5.19-1.22 7.69 7.69 0 0 1 -3.2-4.31c-1-3.49-.41-7 .24-10.41s1.66-6.71 2.66-10c4.09-13.13 8.63-26.16 10.88-39.72s2.39-27.53-1.53-40.69a93.41 93.41 0 0 0 -3.46-9.68 43.51 43.51 0 0 0 -4.84-9 5.72 5.72 0 0 0 -1.75-1.6 1 1 0 0 0 -.91-.05 2 2 0 0 0 -.66.84 16 16 0 0 0 -1 4.89c-.32 3.4-.33 6.84-.31 10.28.18 13.74.43 27.5.46 41.26s0 27.52-.72 41.27c-.22 3.43-.46 6.86-.85 10.29a55.89 55.89 0 0 1 -2 10.14c-.23.83-.64 1.6-1 2.41a11.2 11.2 0 0 1 -1.44 2.17 8.62 8.62 0 0 1 -4.37 2.71 11.46 11.46 0 0 1 -9.82-2.11 9.83 9.83 0 0 1 -1.79-1.91 5.34 5.34 0 0 1 -.63-1.15 4.88 4.88 0 0 1 -.49-1.21l-.31-1.28c-.06-.43-.05-.87-.08-1.31a16.2 16.2 0 0 1 .15-2.6 51.3 51.3 0 0 1 3-9.89c2.51-6.41 5.12-12.78 7.18-19.33a145.41 145.41 0 0 0 6.67-40.5 119.2 119.2 0 0 0 -1.12-20.52 57.51 57.51 0 0 0 -2.37-10c-1.18-3.13-2.63-6.43-5.36-8.36s-6.58-1.32-9.38.4a11.57 11.57 0 0 0 -5.49 8 26.36 26.36 0 0 0 .68 10.1c.74 3.35 1.76 6.63 2.76 9.92 2 6.56 4.07 13.16 5.48 19.9a100.47 100.47 0 0 1 2.28 20.54 97.43 97.43 0 0 1 -8.84 40.05z" fill="#fff" opacity=".25"/><path d="m79.47 116.33a107.67 107.67 0 0 0 6.06-19.61 96.75 96.75 0 0 0 1.89-20.35 99.36 99.36 0 0 0 -2.51-20.24c-1.48-6.66-3.6-13.13-5.66-19.73-1-3.29-2.07-6.59-2.85-10a27.72 27.72 0 0 1 -.76-10.75 13.33 13.33 0 0 1 6.24-9.25 12.57 12.57 0 0 1 5.47-1.84 9.07 9.07 0 0 1 5.84 1.44 13.15 13.15 0 0 1 3.81 4.3 28.15 28.15 0 0 1 2.25 4.95 59.35 59.35 0 0 1 2.4 10.3 120.25 120.25 0 0 1 1 20.84 145.21 145.21 0 0 1 -7.2 40.81c-2.17 6.57-4.88 12.93-7.46 19.29a49.11 49.11 0 0 0 -3 9.69 13.68 13.68 0 0 0 -.16 2.46c0 .41 0 .82.06 1.22l.27 1.17a4.43 4.43 0 0 0 .44 1.11 4.8 4.8 0 0 0 .57 1 8.82 8.82 0 0 0 1.61 1.86 10.77 10.77 0 0 0 9.22 2 7.94 7.94 0 0 0 4.07-2.48 9.76 9.76 0 0 0 1.35-2c.29-.78.68-1.52.9-2.33a54.19 54.19 0 0 0 1.88-10c.37-3.41.6-6.83.8-10.25.68-13.72.49-27.48.32-41.22s-.67-27.48-1-41.26c0-3.46-.07-6.92.23-10.45a17.21 17.21 0 0 1 1.17-5.52 3.61 3.61 0 0 1 1.37-1.6 2.58 2.58 0 0 1 1.41-.33 3 3 0 0 1 1.17.3 7.53 7.53 0 0 1 2.46 2.14 43.79 43.79 0 0 1 5.15 9.37 95.9 95.9 0 0 1 3.58 9.86c4.08 13.49 4.07 27.91 1.75 41.6s-6.88 26.93-10.94 40c-1 3.27-2 6.54-2.62 9.8s-1.1 6.63-.31 9.38a5.62 5.62 0 0 0 2.28 3.12 7.26 7.26 0 0 0 4 .92 12.7 12.7 0 0 0 4.39-1 8.14 8.14 0 0 0 1.94-1.13 8.87 8.87 0 0 0 1.71-1.48 22.54 22.54 0 0 0 4.68-8.33 58.87 58.87 0 0 0 2.3-9.77 131.29 131.29 0 0 0 1.35-20.35 361.57 361.57 0 0 0 -2.71-41c-1.61-13.64-3.59-27.25-6-40.79l.32-.2c2.86 13.46 5.43 27 7.35 40.64a340 340 0 0 1 3.65 41.25 135.59 135.59 0 0 1 -1.08 20.8 63.06 63.06 0 0 1 -2.27 10.31 25.76 25.76 0 0 1 -5.26 9.56 12 12 0 0 1 -2.16 1.91 10.58 10.58 0 0 1 -2.48 1.48 15.29 15.29 0 0 1 -5.6 1.35 10.61 10.61 0 0 1 -5.88-1.4 9 9 0 0 1 -3.74-5c-1.1-3.94-.46-7.59.19-11s1.67-6.81 2.67-10.13c4.1-13.19 8.52-26.14 10.81-39.56s2.47-27.17-1.34-40.14a92.53 92.53 0 0 0 -3.38-9.55 43 43 0 0 0 -4.65-8.74 5.16 5.16 0 0 0 -1.36-1.33c-.19-.06 0 0 .11-.09a1.39 1.39 0 0 0 -.25.38 15.44 15.44 0 0 0 -1 4.52c-.33 3.31-.33 6.74-.33 10.15.14 13.73.22 27.51.14 41.27s-.28 27.53-1 41.29c-.23 3.44-.48 6.88-.88 10.31a55.27 55.27 0 0 1 -2 10.22c-.24.84-.66 1.64-1 2.46a11.86 11.86 0 0 1 -1.49 2.25 9 9 0 0 1 -4.56 2.84 11.82 11.82 0 0 1 -10.22-2.21 9.56 9.56 0 0 1 -1.87-2 5.64 5.64 0 0 1 -.68-1.2 5 5 0 0 1 -.51-1.28l-.25-1.36c-.07-.45-.06-.9-.09-1.35a14.91 14.91 0 0 1 .15-2.68 52.77 52.77 0 0 1 3-10c2.45-6.44 5-12.81 7-19.36a145.52 145.52 0 0 0 6.26-40.3 117.68 117.68 0 0 0 -1.19-20.31 56.35 56.35 0 0 0 -2.34-9.75c-1.12-3-2.57-6.19-4.92-7.82s-5.63-1.18-8.2.4a10.48 10.48 0 0 0 -5 7.29 25.48 25.48 0 0 0 .65 9.68c.72 3.29 1.73 6.56 2.72 9.85a201.26 201.26 0 0 1 5.36 20 101.24 101.24 0 0 1 2.11 20.69 95.89 95.89 0 0 1 -9.38 40.11z" fill="#ffe2cf"/><path d="m79.59 116.38a98.12 98.12 0 0 0 8.49-40 100.2 100.2 0 0 0 -2.34-20.38c-1.43-6.72-3.48-13.28-5.54-19.84-1-3.29-2-6.58-2.81-9.95a26.9 26.9 0 0 1 -.72-10.35 12.23 12.23 0 0 1 5.77-8.49 11.48 11.48 0 0 1 5-1.68 8 8 0 0 1 5.13 1.27 12.13 12.13 0 0 1 3.5 3.95 29.48 29.48 0 0 1 2.16 4.76 58.53 58.53 0 0 1 2.36 10.1 118.72 118.72 0 0 1 1 20.64 145.31 145.31 0 0 1 -6.8 40.59c-2.09 6.56-4.73 12.93-7.25 19.32a51 51 0 0 0 -3 9.81 14.39 14.39 0 0 0 -.16 2.54c0 .42 0 .85.07 1.26l.29 1.23a4.55 4.55 0 0 0 .47 1.17 5.17 5.17 0 0 0 .6 1.11 9.43 9.43 0 0 0 1.72 1.85 11.18 11.18 0 0 0 9.59 2.13 8.49 8.49 0 0 0 4.26-2.61 10.81 10.81 0 0 0 1.4-2.12c.3-.8.7-1.56.93-2.38a54.72 54.72 0 0 0 1.91-10.1c.38-3.41.61-6.84.82-10.27.67-13.73.67-27.49.59-41.24s-.4-27.51-.65-41.27c0-3.44 0-6.89.27-10.34a16.67 16.67 0 0 1 1.1-5.14 2.54 2.54 0 0 1 .93-1.15 1.67 1.67 0 0 1 1.57 0 6.5 6.5 0 0 1 2 1.83 43 43 0 0 1 5 9.13 93.36 93.36 0 0 1 3.5 9.74c4 13.3 3.91 27.49 1.57 41.05s-6.8 26.71-10.88 39.82c-1 3.28-1.94 6.58-2.62 9.93s-1.17 6.81-.26 10a6.85 6.85 0 0 0 2.83 3.81 8.52 8.52 0 0 0 4.72 1.1 13.54 13.54 0 0 0 4.84-1.14 8.92 8.92 0 0 0 2.15-1.26 9.75 9.75 0 0 0 1.88-1.64 24 24 0 0 0 4.91-8.78 60.69 60.69 0 0 0 2.3-10 134.05 134.05 0 0 0 1.26-20.53 349.17 349.17 0 0 0 -3.06-41.1c-1.73-13.64-4-27.22-6.56-40.72h.08c2.68 13.49 5 27.06 6.8 40.7a349.49 349.49 0 0 1 3.29 41.16 134.38 134.38 0 0 1 -1.15 20.63 60.8 60.8 0 0 1 -2.28 10.11 24.3 24.3 0 0 1 -5 9.09 10.66 10.66 0 0 1 -2 1.75 9.76 9.76 0 0 1 -2.28 1.36 14.23 14.23 0 0 1 -5.14 1.22 9.19 9.19 0 0 1 -5.18-1.23 7.67 7.67 0 0 1 -3.19-4.27c-1-3.49-.41-7 .25-10.41s1.65-6.71 2.65-10c4.05-13.15 8.6-26.15 10.84-39.72s2.4-27.54-1.53-40.7a91.93 91.93 0 0 0 -3.46-9.67 43.73 43.73 0 0 0 -4.83-9 6 6 0 0 0 -1.76-1.63.94.94 0 0 0 -.9 0 1.84 1.84 0 0 0 -.67.83 16.4 16.4 0 0 0 -1.05 4.9c-.32 3.39-.32 6.84-.32 10.26.19 13.75.43 27.51.46 41.26s0 27.52-.71 41.27c-.23 3.43-.47 6.87-.86 10.29a54.7 54.7 0 0 1 -2 10.14c-.24.83-.64 1.61-1 2.41a10.91 10.91 0 0 1 -1.44 2.17 8.65 8.65 0 0 1 -4.38 2.71 11.44 11.44 0 0 1 -9.86-2.15 9.22 9.22 0 0 1 -1.78-1.91 5.55 5.55 0 0 1 -.64-1.14 5.11 5.11 0 0 1 -.49-1.22l-.3-1.28c-.06-.43-.06-.87-.08-1.3a14.08 14.08 0 0 1 .15-2.6 50.7 50.7 0 0 1 3-9.9c2.5-6.41 5.11-12.77 7.17-19.33a145 145 0 0 0 6.76-40.5 118.26 118.26 0 0 0 -1.1-20.52 58.11 58.11 0 0 0 -2.37-10c-1.18-3.14-2.63-6.44-5.36-8.36s-6.58-1.33-9.38.39a11.59 11.59 0 0 0 -5.49 8 26.38 26.38 0 0 0 .7 10.15c.74 3.34 1.76 6.62 2.76 9.91 2 6.56 4.07 13.16 5.48 19.91a100.38 100.38 0 0 1 2.26 20.54 97.24 97.24 0 0 1 -8.84 40.05z" fill="#fff" opacity=".25"/></g></svg>