<svg viewBox="0 0 156 156" xmlns="http://www.w3.org/2000/svg" xmlns:xlink="http://www.w3.org/1999/xlink"><clipPath id="a"><path d="m94 25.3-.28-.09-.27-.08-.28-.08a51.11 51.11 0 0 0 -30.32 0l-.28.08-.27.08-.3.09a55.13 55.13 0 0 0 -38.58 52.77c0 30.47 24.44 55.18 54.58 55.18s54.58-24.71 54.58-55.18a55.13 55.13 0 0 0 -38.58-52.77z"/></clipPath><ellipse cx="78" cy="78.07" fill="#732119" rx="54.58" ry="55.18"/><ellipse cx="78" cy="76.94" fill="#91312b" rx="53.64" ry="54.09"/><ellipse cx="78" cy="75.81" fill="#b0423c" rx="52.69" ry="52.99"/><ellipse cx="78" cy="74.68" fill="#ce524e" rx="51.75" ry="51.9"/><circle cx="78" cy="73.55" fill="#ec625f" r="50.8"/><circle cx="78" cy="73.55" fill="#f06d69" r="49.35"/><circle cx="78" cy="73.55" fill="#f7837d" r="47.89"/><circle cx="78" cy="73.55" fill="#fb8e87" r="46.43"/><circle cx="78" cy="73.55" fill="#fb8e87" r="44.97"/><g clip-path="url(#a)"><path d="m22.07 38.78a112.73 112.73 0 0 0 23.73 9.22 95.45 95.45 0 0 0 25.2 3 101 101 0 0 0 25-3.91c8.16-2.27 16-5.44 24-8.5a116 116 0 0 1 12.26-4.11 33.9 33.9 0 0 1 6.55-1.05 17.61 17.61 0 0 1 6.79.89 16.87 16.87 0 0 1 9.51 9.54c1.74 4.14 2.4 9 .56 13.49a15.49 15.49 0 0 1 -4.2 5.56 26.63 26.63 0 0 1 -5.67 3.63 52.88 52.88 0 0 1 -12.47 4 113.42 113.42 0 0 1 -25.78 1.92 147.43 147.43 0 0 1 -50.23-10.54c-8-3.2-15.58-7.15-23.21-10.91a53 53 0 0 0 -11.78-4.51 11.22 11.22 0 0 0 -6 .27 9.91 9.91 0 0 0 -4.6 3.79 19.18 19.18 0 0 0 -3 11.84 15.81 15.81 0 0 0 1.56 6 11.45 11.45 0 0 0 4.09 4.48c3.54 2.18 7.79 3.08 11.93 3.81 2.08.41 4.2.64 6.31.89s4.23.42 6.35.6c8.48.66 17 .92 25.53 1q6.39.09 12.79.05c4.26 0 8.53 0 12.79-.11 8.53-.08 17-.29 25.58-.47l25.6-.7a110.12 110.12 0 0 1 12.94.35 29.77 29.77 0 0 1 3.3.53 11.32 11.32 0 0 1 3.34 1.17 4.11 4.11 0 0 1 1.6 1.65 3.46 3.46 0 0 1 .19 2.51 8.29 8.29 0 0 1 -2 3.22c-3.25 3.3-7 5.46-10.81 7.57a102.81 102.81 0 0 1 -11.8 5.39 79.76 79.76 0 0 1 -25.44 5.18 104.89 104.89 0 0 1 -25.81-2.3c-17-3.43-32.84-10.37-48.68-16.41a107.08 107.08 0 0 0 -12-3.86 31.62 31.62 0 0 0 -6-.93 11.36 11.36 0 0 0 -5.49.92c-3.24 1.5-4.65 5.51-4.61 9.41a22.44 22.44 0 0 0 .8 5.91 18.93 18.93 0 0 0 2.33 5.43 22.71 22.71 0 0 0 9 7.73 49.5 49.5 0 0 0 11.73 4.06 122 122 0 0 0 25.15 2.52c17 .07 34-1.67 50.81-4.14s33.63-5.67 50.26-9.46l.07.3c-16.54 4.19-33.23 7.89-50.09 10.7s-33.88 4.91-51.06 5a124.46 124.46 0 0 1 -25.72-2.26 52.78 52.78 0 0 1 -12.43-4.14 25.67 25.67 0 0 1 -10.25-8.65 21.9 21.9 0 0 1 -2.77-6.25 24.15 24.15 0 0 1 -1-6.72 16.75 16.75 0 0 1 1.33-6.87 10.56 10.56 0 0 1 5-5.35 14.4 14.4 0 0 1 7-1.25 34.21 34.21 0 0 1 6.62 1 110.78 110.78 0 0 1 12.37 3.95c8 3 15.9 6.27 23.9 9.12a189.57 189.57 0 0 0 24.36 7.12 102.49 102.49 0 0 0 25 2.39 76.74 76.74 0 0 0 24.6-4.84 97.87 97.87 0 0 0 11.49-5.17c1.86-1 3.67-2 5.4-3.17a29 29 0 0 0 4.77-3.77 5.8 5.8 0 0 0 1.44-2.08.81.81 0 0 0 0-.6 1.65 1.65 0 0 0 -.63-.6 15.49 15.49 0 0 0 -5.59-1.48 107.63 107.63 0 0 0 -12.62-.51l-25.58.36c-8.54.07-17.07.17-25.61.14-17.07-.07-34.19-.22-51.24-1.53-2.13-.2-4.26-.34-6.39-.64s-4.25-.51-6.36-.94c-4.19-.76-8.5-1.67-12.27-4a12.74 12.74 0 0 1 -4.41-4.87 17 17 0 0 1 -1.7-6.31 20.2 20.2 0 0 1 3.14-12.48 11.05 11.05 0 0 1 5.09-4.23 12.35 12.35 0 0 1 6.62-.36c4.31.87 8.22 2.73 12.11 4.5 7.73 3.59 15.34 7.38 23.34 10.4a147 147 0 0 0 49.65 9.57 111.35 111.35 0 0 0 25.16-2 50.28 50.28 0 0 0 11.76-3.88 26.63 26.63 0 0 0 5.09-3.23 12.77 12.77 0 0 0 3.49-4.53c1.49-3.47 1-7.77-.48-11.4a14.29 14.29 0 0 0 -8-8.17c-3.65-1.33-7.86-.82-11.87.15a114 114 0 0 0 -12 3.94 238.32 238.32 0 0 1 -24.31 8.24 102.21 102.21 0 0 1 -25.49 3.59c-17.27.07-34.24-5.09-49.05-13.54z" fill="#5b3114"/><path d="m22 38.88a109.48 109.48 0 0 0 23.68 9.5 94.18 94.18 0 0 0 25.32 3.2 100.86 100.86 0 0 0 25.19-3.76 253.59 253.59 0 0 0 24.15-8.4 116.3 116.3 0 0 1 12.16-4.05c4.12-1 8.61-1.64 12.78-.16a15.88 15.88 0 0 1 8.92 9c1.66 4 2.24 8.6.54 12.7a14.42 14.42 0 0 1 -3.93 5.18 27.1 27.1 0 0 1 -5.45 3.48 52 52 0 0 1 -12.23 3.94 112.22 112.22 0 0 1 -25.54 1.93 147.21 147.21 0 0 1 -50-10.13c-7.99-3.11-15.59-7-23.28-10.71-3.85-1.8-7.74-3.65-11.9-4.5a11.55 11.55 0 0 0 -6.23.29 10.4 10.4 0 0 0 -4.78 4 19.51 19.51 0 0 0 -3.08 12.04 16.15 16.15 0 0 0 1.61 6.1 11.92 11.92 0 0 0 4.21 4.62c3.62 2.23 7.86 3.13 12.06 3.85 2.09.41 4.21.65 6.32.91s4.24.42 6.37.6c8.5.66 17 1 25.55 1.07 4.27.08 8.53.13 12.8.12s8.53 0 12.79 0c8.53 0 17.06-.21 25.59-.34l25.6-.57a107.76 107.76 0 0 1 12.78.41 16.58 16.58 0 0 1 6.28 1.67 3.09 3.09 0 0 1 1.23 1.25 2.45 2.45 0 0 1 .12 1.8 7.29 7.29 0 0 1 -1.81 2.79 45 45 0 0 1 -10.53 7.29 100.64 100.64 0 0 1 -11.69 5.3 79 79 0 0 1 -25.1 5 104.63 104.63 0 0 1 -25.5-2.3 184.24 184.24 0 0 1 -24.6-7.18c-8-2.88-15.93-6.16-23.91-9.15a106.93 106.93 0 0 0 -12.13-3.89 32.48 32.48 0 0 0 -6.24-1 12.59 12.59 0 0 0 -6.06 1 8.59 8.59 0 0 0 -4.06 4.52 14.8 14.8 0 0 0 -1.2 6.08 23.44 23.44 0 0 0 .85 6.22 20.55 20.55 0 0 0 2.5 5.74 23.88 23.88 0 0 0 9.49 8.08 51 51 0 0 0 12 4.11 123.35 123.35 0 0 0 25.36 2.41c17.05 0 34.06-1.89 50.91-4.47s33.59-6 50.19-10v.08c-16.59 4-33.31 7.49-50.17 10.19s-33.86 4.63-51 4.68a123.42 123.42 0 0 1 -25.5-2.31 52 52 0 0 1 -12.1-4.11 24.5 24.5 0 0 1 -9.79-8.29 20.84 20.84 0 0 1 -2.62-5.91 23.25 23.25 0 0 1 -.92-6.42 15.45 15.45 0 0 1 1.26-6.38 9.34 9.34 0 0 1 4.46-4.77 13.29 13.29 0 0 1 6.42-1.12 33.44 33.44 0 0 1 6.39 1 110.68 110.68 0 0 1 12.22 3.89c8 3 15.87 6.29 23.89 9.16a184.12 184.12 0 0 0 24.5 7.17 103.79 103.79 0 0 0 25.34 2.34 78.12 78.12 0 0 0 24.87-5 99.24 99.24 0 0 0 11.65-5.25 44.81 44.81 0 0 0 10.4-7.18 6.56 6.56 0 0 0 1.6-2.51 1.9 1.9 0 0 0 -1.05-2.3 16.25 16.25 0 0 0 -6-1.59 106 106 0 0 0 -12.74-.45l-25.59.49c-8.53.11-17.06.26-25.59.27-4.27 0-8.54 0-12.8 0s-8.54-.06-12.8-.16c-8.54-.14-17.07-.46-25.58-1.14-2.13-.19-4.26-.33-6.37-.63s-4.24-.5-6.34-.92c-4.14-.75-8.46-1.66-12.14-3.94a12.28 12.28 0 0 1 -4.29-4.73 16.42 16.42 0 0 1 -1.66-6.18 19.81 19.81 0 0 1 3.1-12.28 10.63 10.63 0 0 1 4.91-4.07 12 12 0 0 1 6.4-.33c4.23.86 8.13 2.71 12 4.49 7.7 3.7 15.31 7.56 23.26 10.65a147 147 0 0 0 49.86 10 112 112 0 0 0 25.39-2 51.18 51.18 0 0 0 12.03-3.91 26.87 26.87 0 0 0 5.31-3.38 13.66 13.66 0 0 0 3.76-4.92c1.63-3.85 1.1-8.36-.51-12.2a15.28 15.28 0 0 0 -8.56-8.73c-4-1.42-8.35-.84-12.43.15a113.79 113.79 0 0 0 -12.12 4 253.26 253.26 0 0 1 -24.21 8.34 101.21 101.21 0 0 1 -25.24 3.74c-17.15.21-34.07-4.79-49-13z" fill="#fff" opacity=".25"/></g><circle cx="77.09" cy="77.35" fill="#5b1a14" opacity=".41" r="14.13"/><circle cx="78.91" cy="74.27" fill="#5b3114" r="14.13"/><circle cx="77.09" cy="73.21" fill="#fff" opacity=".1" r="9.99"/><circle cx="75.55" cy="68.95" fill="#d9a273" opacity=".22" r="5.72"/></svg>