<svg id="Cashew" xmlns="http://www.w3.org/2000/svg" viewBox="0 0 370 330"><defs><style>.cls-1{fill:#769711;}.cls-2{fill:#a7b91d;}.cls-3{opacity:0.15;}.cls-19,.cls-4{fill:#182d04;}.cls-10,.cls-17,.cls-5,.cls-9{opacity:0.25;}.cls-19,.cls-6{opacity:0.37;}.cls-7{fill:#faca7e;}.cls-11,.cls-12,.cls-14,.cls-8,.cls-9{fill:#b6732e;}.cls-10,.cls-11,.cls-12,.cls-14,.cls-16,.cls-17,.cls-18,.cls-19,.cls-8,.cls-9{isolation:isolate;}.cls-8{opacity:0.2;}.cls-10,.cls-16{fill:#fff0cf;}.cls-11{opacity:0.3;}.cls-12,.cls-15,.cls-16{opacity:0.5;}.cls-13{fill:#fff;}.cls-14{opacity:0.49;}.cls-17{fill:#d59039;}.cls-18{fill:#e4ff71;opacity:0.4;}</style></defs><path class="cls-1" d="M123.14,211.65c3.43,1.34,7.14,2.31,10.79,1.77a23.82,23.82,0,0,0,11.71-6.17,13.72,13.72,0,0,0,1.31-1.44,10.06,10.06,0,0,0,1.76-3.17c.65-2.09,0-4.31-.33-6.4a76.26,76.26,0,0,0-2.12-10.37,27.31,27.31,0,0,0-12-15.36,49.1,49.1,0,0,0-31.15-7c-4,.45-6.45,1.34-8.16,5.33-1.34,3.14-1.09,6.73-.4,10.07C97.59,193.73,109.08,206.16,123.14,211.65Z"/><path class="cls-2" d="M139.54,200.87c.89.75,1.8,1.56,2.72,2.36-.46.37-.91.78-1.39,1.13a18,18,0,0,1-2.57,1.54,18.8,18.8,0,0,1-5.67,1.72,25.2,25.2,0,0,1-5.95.11c-1.88-.17-3.71-.71-5.58-.87-.24,0-.39.36-.15.47a20.18,20.18,0,0,0,5.83,1.39,25.93,25.93,0,0,0,6.1.09,20.63,20.63,0,0,0,6.22-1.67,12.54,12.54,0,0,0,4.37-2.89,29.83,29.83,0,0,0,2.95,2.17,14.92,14.92,0,0,0,1.31-1.44c-.92-.73-1.83-1.46-2.72-2.22a39.29,39.29,0,0,0,.94-9.67,44,44,0,0,0-1.39-9.81.4.4,0,0,0-.78.16,39.1,39.1,0,0,1,.84,9.59,44.12,44.12,0,0,1-.38,4.73,35.31,35.31,0,0,1-.76,3.68c-1.47-1.28-2.93-2.56-4.4-3.82l-.36-.31a10.13,10.13,0,0,0,.07-1.65c0-.81.15-1.63.2-2.45a44.87,44.87,0,0,0,.06-4.92,59.1,59.1,0,0,0-1.23-9.74.42.42,0,0,0-.51-.3.42.42,0,0,0-.31.48,49,49,0,0,1,.92,9.66c0,1.54-.07,3.07-.2,4.61a22.23,22.23,0,0,1-.3,2.57,4.77,4.77,0,0,1-.13.51l-7.64-6.53-.44-.36a5.37,5.37,0,0,1,.13-.92c.15-.89.32-1.78.45-2.68a34.65,34.65,0,0,0,.34-5.29,35.15,35.15,0,0,0-1.75-10.57c-.14-.43-.83-.29-.7.15a35.6,35.6,0,0,1,1.37,10.36,37,37,0,0,1-.44,5.15A21.47,21.47,0,0,1,128,188v.14c-1.29-1.06-2.6-2.09-3.91-3.12a15.66,15.66,0,0,1-3.4-2.83c-1.46-2.08-1-4.8-1-7.16a40.36,40.36,0,0,0-1.07-8.69c-.07-.28-.51-.19-.45.09a38,38,0,0,1,.68,9.76,19.93,19.93,0,0,0,.11,4.82l-7.48-5.85a3.07,3.07,0,0,1-.68-1.22,6.93,6.93,0,0,1-.17-1.57,14.37,14.37,0,0,0-.13-2.36,12,12,0,0,0-1.58-5,24.64,24.64,0,0,1,1.11,6.25,16,16,0,0,0,.13,2.85c-1.06-.82-2.13-1.63-3.2-2.43-.79-.59-1.8-1-2.18-2-.31-.76-1.25-3.3-1.43-4.11-.07-.32-.62-.39-.57-.07.09.64,1,3.23,1.16,3.85a30.41,30.41,0,0,0-3.75-2.53c-.25-.13-.56.18-.34.4a44.42,44.42,0,0,0,4.28,3.44c-1,.09-3.84-.29-4.79-.28-.28,0-1,.27,0,.49s5.08.5,5.26.54a6.4,6.4,0,0,1,2.24,1.34l1.78,1.42c.22.17,1.49,1.42,1.7,1.36-4.25,1.3-10.16.44-11.2.43-.21,0-.35.32-.13.43.92.47,7.76,1.3,12-.31.17-.07,1.29,1,1.46,1.18l1.65,1.37c.68.58,2.74,1.84,1.58,2.89a5.64,5.64,0,0,1-2.4.76c-.89.19-1.79.32-2.69.42a26.74,26.74,0,0,1-4,.12c-1.26,0-2.54-.32-3.78-.3a.34.34,0,0,0-.32.36.33.33,0,0,0,.2.29,13.21,13.21,0,0,0,4,.62,30.14,30.14,0,0,0,4.25,0,24.3,24.3,0,0,0,4.07-.56,7.8,7.8,0,0,0,3-1.22c2.58,2.26,5.13,4.55,7.69,6.82a6,6,0,0,1-1.5.37c-.73.15-1.47.31-2.21.45-1.47.27-3,.46-4.46.6s-3.23.23-4.85.28a38,38,0,0,0-4.27.15.27.27,0,0,0-.17.34.29.29,0,0,0,.17.17,21.17,21.17,0,0,0,5.21.3c1.65,0,3.3-.13,5-.28s3.54-.34,5.29-.62a6.38,6.38,0,0,0,2.89-.85c1.1,1,2.2,1.93,3.31,2.88l4.73,4.06a51.26,51.26,0,0,1-5.15,1.77,32.49,32.49,0,0,1-6.42,1.07,36.81,36.81,0,0,1-12.94-1.6c-.2-.06-.27.21-.09.3a29.57,29.57,0,0,0,13.25,2.47,27.38,27.38,0,0,0,12.41-3.11Z"/><g class="cls-3"><path class="cls-4" d="M134.24,170.51a49.1,49.1,0,0,0-31.15-7,11.49,11.49,0,0,0-5.32,1.59c3.12,1.42,40.54,32.5,48.81,41.11l.37-.44a10.06,10.06,0,0,0,1.76-3.17c.65-2.09,0-4.31-.33-6.4a76.26,76.26,0,0,0-2.12-10.37A27.31,27.31,0,0,0,134.24,170.51Z"/></g><g class="cls-3"><path class="cls-4" d="M104.49,165.47a.16.16,0,1,0-.16-.16A.16.16,0,0,0,104.49,165.47Z"/></g><g class="cls-5"><path class="cls-4" d="M148.38,196.24a76.26,76.26,0,0,0-2.12-10.37,27.31,27.31,0,0,0-12-15.36,47.77,47.77,0,0,0-10.11-4.73c.13,1.36.33,2.72.59,4.06a37.91,37.91,0,0,0,1.31,5c.51,1.47,1.13,2.89,1.67,4.34.83,2.22,1.7,4.8,1.11,7.19a4.83,4.83,0,0,1-3.12,3.19c-3.4,1.37-7.31,1-10.89.95-4.68-.06-9.42.13-13.88,1.68l-.89.34a48.16,48.16,0,0,0,23.11,19.12c3.43,1.34,7.14,2.31,10.79,1.77a23.82,23.82,0,0,0,11.71-6.17,13.72,13.72,0,0,0,1.31-1.44,10.06,10.06,0,0,0,1.76-3.17C149.36,200.55,148.75,198.33,148.38,196.24Z"/></g><g class="cls-6"><path class="cls-4" d="M148.38,196.23a76.26,76.26,0,0,0-2.12-10.37,27.31,27.31,0,0,0-12-15.36,47.68,47.68,0,0,0-9.43-4.49,38.47,38.47,0,0,0,1,5,54,54,0,0,0,3.12,8.25,52.54,52.54,0,0,1,2.7,6.49,15.7,15.7,0,0,1,.65,3.33,6.22,6.22,0,0,1-.25,2.71,4.12,4.12,0,0,1-3.11,2.29,27.21,27.21,0,0,1-3.24.48c-1.31.15-2.62.28-3.93.44-2.42.3-4.8.76-7.19,1.25-2.07.43-4.13.89-6.15,1.5A29.36,29.36,0,0,0,105,199a48.38,48.38,0,0,0,18.17,12.59c3.43,1.34,7.14,2.31,10.79,1.77a23.82,23.82,0,0,0,11.71-6.17,15.5,15.5,0,0,0,1.29-1.4,10.06,10.06,0,0,0,1.76-3.17C149.36,200.54,148.75,198.32,148.38,196.23Z"/></g><path class="cls-1" d="M145.7,201.41c3.43,3,7.34,5.7,11.81,6.59,4.31.86,11.09.1,16.21-2.26a19.74,19.74,0,0,0,2.13-1.13,12.27,12.27,0,0,0,3.38-3c1.64-2.16,1.85-5,2.3-7.58.75-4.32,1.73-8.55,1.89-13a33.77,33.77,0,0,0-7.55-22.91A60.76,60.76,0,0,0,142.55,137c-4.81-1.14-8.07-1.14-11.73,2.78-2.88,3.09-4.09,7.37-4.69,11.54C123.48,169.85,131.64,189.13,145.7,201.41Z"/><path class="cls-2" d="M169.31,195.76c.72,1.25,1.43,2.56,2.17,3.88-.7.24-1.39.53-2.09.73a22.54,22.54,0,0,1-3.64.72,23.37,23.37,0,0,1-7.32-.38,31.37,31.37,0,0,1-7-2.36c-2.11-1-4-2.4-6.12-3.37-.28-.12-.61.26-.38.49a24.5,24.5,0,0,0,6.2,4.06,31.84,31.84,0,0,0,7.06,2.66,25.25,25.25,0,0,0,7.94.68,15.49,15.49,0,0,0,6.3-1.53A38.39,38.39,0,0,0,175,205.1a19.74,19.74,0,0,0,2.13-1.13c-.76-1.23-1.52-2.46-2.24-3.72A47.82,47.82,0,0,0,180,189.4a54.07,54.07,0,0,0,2.51-12,.5.5,0,1,0-1-.13,48.22,48.22,0,0,1-3,11.5,54.71,54.71,0,0,1-2.42,5.35,41.87,41.87,0,0,1-2.44,4c-1.17-2.1-2.33-4.2-3.51-6.29-.1-.17-.19-.34-.29-.5a13,13,0,0,0,.78-1.89c.39-.94.85-1.84,1.25-2.77A57.66,57.66,0,0,0,174,181a71.57,71.57,0,0,0,2.64-11.84.51.51,0,0,0-.51-.51.5.5,0,0,0-.49.37,59.77,59.77,0,0,1-3,11.62c-.65,1.79-1.36,3.55-2.16,5.28a23.25,23.25,0,0,1-1.43,2.87,5.14,5.14,0,0,1-.37.54c-2-3.61-4.08-7.21-6.15-10.8l-.36-.61c.19-.35.36-.7.54-1,.55-1,1.12-1.93,1.65-2.92a43.34,43.34,0,0,0,5-19c0-.55-.83-.69-.87-.12a44.2,44.2,0,0,1-2.76,12.64,46.05,46.05,0,0,1-2.67,5.8A25.06,25.06,0,0,1,161.3,176a.76.76,0,0,1-.11.14c-2-3.34-4.1-6.61-6.19-9.9-.62-3,1-6,2-8.86a49,49,0,0,0,2.4-10.56.27.27,0,0,0-.25-.31.28.28,0,0,0-.31.24,47.54,47.54,0,0,1-3.3,11.63,24.54,24.54,0,0,0-1.89,5.65l-6.26-9.94a4,4,0,0,1-.28-1.7,9,9,0,0,1,.47-1.91c.31-.92.61-1.84.83-2.79a14.39,14.39,0,0,0,.25-6.46A30.17,30.17,0,0,1,147.3,149a19.93,19.93,0,0,0-1.05,3.37q-1.33-2.1-2.7-4.17c-.67-1-1.68-1.91-1.72-3.18a17.68,17.68,0,0,1,.13-3,.32.32,0,0,0-.31-.33.31.31,0,0,0-.32.24,19.25,19.25,0,0,0-.34,2.4,38.62,38.62,0,0,0-3.31-4.53c-.23-.26-.72,0-.55.32a52.76,52.76,0,0,0,3.53,5.8c-1.14-.29-2.26-.62-3.37-1-.55-.2-1.1-.44-1.64-.67s-1-.57-1.45-.44c0,.27.29.44.51.58a9.85,9.85,0,0,0,2,1.07c.35.13.72.22,1.08.33.62.19,1.14.55,1.73.79a5.84,5.84,0,0,1,1.36.44,7.75,7.75,0,0,1,2.05,2.5l1.48,2.39c.18.29,1.13,2.28,1.41,2.29a22.48,22.48,0,0,1-6.81-1.55c-1.16-.45-2.3-1-3.41-1.52a32.47,32.47,0,0,0-3.43-1.86c-.24-.09-.54.22-.33.44a13.41,13.41,0,0,0,3.25,2.18,26.63,26.63,0,0,0,3.86,1.82,22.47,22.47,0,0,0,7.43,1.42c1.67,2.74,3.27,5.53,4.84,8.33a25.09,25.09,0,0,1-8.09-.79,33.36,33.36,0,0,1-4.66-1.52c-1.44-.58-2.81-1.45-4.28-1.94a.41.41,0,0,0-.4.71,17.2,17.2,0,0,0,4.39,2.4,39.4,39.4,0,0,0,4.95,1.77,30.44,30.44,0,0,0,5,1,9.48,9.48,0,0,0,4-.17c2.06,3.71,4.06,7.44,6.1,11.16a7.14,7.14,0,0,1-1.9-.2c-.92-.13-1.85-.25-2.76-.4-1.83-.31-3.65-.71-5.45-1.17s-3.85-1.09-5.76-1.72a46.14,46.14,0,0,0-5-1.6.32.32,0,0,0-.36.27.31.31,0,0,0,.12.3,26.12,26.12,0,0,0,5.93,2.54c1.94.65,3.91,1.23,5.89,1.75s4.26,1.09,6.41,1.5a7.94,7.94,0,0,0,3.72.22q1.31,2.38,2.64,4.74c1.27,2.24,2.54,4.47,3.8,6.71a60.46,60.46,0,0,1-6.73-.1,40.17,40.17,0,0,1-7.92-1.45,45.89,45.89,0,0,1-14.39-7.29c-.2-.16-.4.13-.23.3A36.39,36.39,0,0,0,150.62,189c4.92,1.56,10.58,2.52,15.75,1.6Q167.78,193.12,169.31,195.76Z"/><g class="cls-5"><path class="cls-4" d="M180.27,171.47a34,34,0,0,0-2.37,4.2,8.7,8.7,0,0,1-2.2,3.1,7,7,0,0,1-3.76,1.37c-1.92.21-4-.44-5.84.34a12.29,12.29,0,0,0-4.13,3.59c-1.05,1.23-2.05,2.52-3.22,3.65a14.23,14.23,0,0,1-6.61,3.76,14.79,14.79,0,0,1-7.06-.2c-5.12-1.32-9.64-4.6-13.46-8.18a59.8,59.8,0,0,0,14.08,18.31c3.43,3,7.34,5.7,11.81,6.59,4.31.86,11.09.1,16.21-2.26a19.74,19.74,0,0,0,2.13-1.13,12.27,12.27,0,0,0,3.38-3c1.64-2.16,1.85-5,2.3-7.58.75-4.32,1.73-8.55,1.89-13a34.57,34.57,0,0,0-1.52-11.7A18.87,18.87,0,0,0,180.27,171.47Z"/></g><g class="cls-6"><path class="cls-4" d="M179.91,174.6c-.77,1.29-1.41,2.66-2.15,4a5,5,0,0,1-2.74,2.3,18.55,18.55,0,0,1-4.3.81,12,12,0,0,0-7.46,3.82,17.44,17.44,0,0,0-3.64,6.86A19.69,19.69,0,0,1,157.3,198a3.47,3.47,0,0,1-1.81,1.48c-1.15.3-1.81-.8-2.62-1.39a15.53,15.53,0,0,0-4.19-2,21.93,21.93,0,0,0-3-.75c-2.17-.42-4.37-.66-6.53-1.09l-.44-.1a57.79,57.79,0,0,0,7,7.25c3.43,3,7.34,5.7,11.81,6.59,4.31.86,11.09.1,16.21-2.26a19.74,19.74,0,0,0,2.13-1.13,12.27,12.27,0,0,0,3.38-3c1.64-2.16,1.85-5,2.3-7.58.75-4.32,1.73-8.55,1.89-13a35.26,35.26,0,0,0-1.08-10A39.9,39.9,0,0,0,179.91,174.6Z"/></g><g class="cls-3"><path class="cls-4" d="M175.87,158.21A60.75,60.75,0,0,0,142.55,137c-2.65-.63-4.82-.91-6.85-.38,3,3,33.52,54.82,39.54,68.31l.61-.36a12.27,12.27,0,0,0,3.38-3c1.64-2.16,1.85-5,2.3-7.58.75-4.32,1.73-8.55,1.89-13A33.76,33.76,0,0,0,175.87,158.21Z"/></g><g class="cls-3"><path class="cls-4" d="M143.44,139.87a.19.19,0,0,0,.15-.24.23.23,0,0,0-.15-.15.19.19,0,0,0-.15.24A.23.23,0,0,0,143.44,139.87Z"/></g><path class="cls-7" d="M221.93,230.07a12.3,12.3,0,0,0,1.21,3.38,5.29,5.29,0,0,0,.29.52,13.53,13.53,0,0,0,2.65,3.24,16,16,0,0,0,18.07,2.45c2.91-1.5,4.88-3.76,7.32-5.78,9.09-7.53,21.64-4,32.27-2.77,4.75.56,10.07.13,13.48-3.22s3.41-8,1.78-12.14a16.75,16.75,0,0,0-2.69-4.53,23,23,0,0,0-5.06-4.53,20.14,20.14,0,0,0-3.2-1.73,60.39,60.39,0,0,0-42.32-1.91c-6.58,2.06-12.53,5-17.59,9.79-.59.57-1.16,1.15-1.7,1.76a25.63,25.63,0,0,0-4.05,6C221,223.54,221.31,226.92,221.93,230.07Z"/><path class="cls-8" d="M221.4,225.46c1,3.88,3.19,8.25,7.49,9a13,13,0,0,0,6.73-.86c3.26-1.18,5.5-3.57,7.84-6a60.3,60.3,0,0,1,5.4-5.56c5.82-4.73,13.58-4.72,20.69-4.21,3.41.24,6.82.6,10.25.66a29.7,29.7,0,0,0,8.25-.64c2.67-.71,5.06-2.36,5.61-5.23a8.58,8.58,0,0,0-.43-4.46,24.14,24.14,0,0,1,3.08,3.07c3.83,4.6,5.62,12.05.91,16.67-3.41,3.35-8.73,3.78-13.48,3.22-10.63-1.25-23.18-4.76-32.27,2.77-2.44,2-4.41,4.28-7.32,5.78a16,16,0,0,1-18.07-2.45,13.49,13.49,0,0,1-3-3.76,12.28,12.28,0,0,1-1.2-3.38A23.91,23.91,0,0,1,221.4,225.46Z"/><path class="cls-9" d="M264.71,202.09c12.38-.89,24.26,3.46,31.84,11.61.18.19-.2.4-.38.21-7.33-7.69-19.65-12.13-31.44-11.4C264.41,202.53,264.39,202.12,264.71,202.09Z"/><path class="cls-9" d="M245.1,211.16c12.18-6.34,27.58-6.36,40.23-1.54A33.93,33.93,0,0,1,295,214.8a.19.19,0,0,1-.23.31c-2.76-1.5-5.4-3.11-8.31-4.36a48.76,48.76,0,0,0-9.36-2.9,51.8,51.8,0,0,0-20.68,0,63.82,63.82,0,0,0-11.22,3.45C245.08,211.33,245,211.2,245.1,211.16Z"/><path class="cls-9" d="M248.46,227.7c4.2-3.79,10.44-4.56,15.88-4.77a91.93,91.93,0,0,1,10.23.31,50.83,50.83,0,0,0,9.79.07,18.56,18.56,0,0,0,9.58-3.7c.22-.18.53.19.32.37-4.55,4-10.69,4.44-16.47,4.1-6.51-.37-13-1.16-19.48-.06a26.29,26.29,0,0,0-9.77,3.78C248.48,227.84,248.4,227.75,248.46,227.7Z"/><path class="cls-10" d="M279,210.7a2.8,2.8,0,0,0,.87.7,7.64,7.64,0,0,0,2.27.41c1.47.23,2.41,2,3.31,3a4,4,0,0,0,1,1,1.43,1.43,0,0,0,1.33.1c.78-.41.72-1.52.88-2.39.08-.41.34-.88.75-.85a1.17,1.17,0,0,1,.57.35,2.85,2.85,0,0,0,1.52.75A1.49,1.49,0,0,0,293,213a2.1,2.1,0,0,0,.12-1.26c-.57-4.53-4.83-6-8.6-7.37a60,60,0,0,0-10.12-2.63,60.73,60.73,0,0,0-20.66.16,64.52,64.52,0,0,0-8,2,45.74,45.74,0,0,0-15.59,8c-4.16,3.43-7.76,8.43-6.52,14.11a5,5,0,0,0,1.2,2.49,2.41,2.41,0,0,0,2.55.64c.79-.34,1.27-1.17,2.05-1.51,1.33-.58,2.75.45,4,1.1a8.36,8.36,0,0,0,2.44.77,2.55,2.55,0,0,0,1.42-.11,2,2,0,0,0,1-1.69,6.15,6.15,0,0,0-.31-2c-.22-.79-.38-1.77.23-2.32,1-.94,2.71.48,4,0,1-.37,1.32-1.8,1-2.87s-1.07-2-1.39-3a1.33,1.33,0,0,1,0-1c.41-.81,1.47,0,2,0a1,1,0,0,0,1.09-.56,1.4,1.4,0,0,0,.05-.54c0-.93-.32-2.1.86-2.18,1.42-.1,2.29.8,3.48,1.38,1.58.78,3,.53,3.35-1.32a3.9,3.9,0,0,1,.31-1.11.94.94,0,0,1,.94-.53c.5.1.69.7,1,1.12a2.08,2.08,0,0,0,2.06.8,2.59,2.59,0,0,0,1.78-1.37c.42-.82.56-2,1.42-2.27a1.79,1.79,0,0,1,1.78.65c.85.92,1.53,2.32,3,2.41s1.18-2.19,1.81-3.23a2.52,2.52,0,0,1,2.61-1.3c.93.25,1.56,1.17,2.49,1.41,1.7.44,3.36-1.6,5-1.08C277.89,209.07,278.39,210,279,210.7Z"/><path class="cls-10" d="M236.33,220.25a6.85,6.85,0,0,0,1.69-.67,2.62,2.62,0,0,0,.71-2.61c-.18-.93-.6-1.82-.69-2.76-.13-1.24.74-2.93,2.21-2.77,1.09.12,1.56,1.2,2.71.15.35-.33.57-.78.89-1.14,1.2-1.37,2.76.2,3.85.89.73.47,1.75.92,2.39.34s.28-1.7.33-2.6a2.53,2.53,0,0,1,2.81-2.22,2.31,2.31,0,0,1,.52.12c.43.17.84.48,1.3.41.95-.13,1-1.55,1.72-2.18a1.73,1.73,0,0,1,1.64-.25,5.24,5.24,0,0,1,1.48.87,9.88,9.88,0,0,1,2.44,2.3c.3.45,1.4,2.59,2,1.45a3.83,3.83,0,0,0,.47-1.65,6.27,6.27,0,0,1,.09-1.37,1.07,1.07,0,0,1,.93-.88c.54,0,.9.54,1.34.85a1.81,1.81,0,0,0,2.37-.35c.26-.34.43-.8.82-.94.65-.24,1.18.5,1.62,1,.75.9,2.24,1.38,3.09.56.43-.41.68-1.12,1.27-1.19s1.08.83,1.19,1.55a3.08,3.08,0,0,0,2.26,2.41,1.53,1.53,0,0,0,1.72-.63c.17-.32.28-.78.64-.8a.72.72,0,0,1,.52.3,24.39,24.39,0,0,1,3.18,4.11c.21.33.46.71.84.8.54.12,1-.4,1.15-.94a5.94,5.94,0,0,0-.1-1.63,1,1,0,0,1,.08-.62c.24-.46.94-.41,1.35-.1a12.35,12.35,0,0,1,1,1.17,1.08,1.08,0,0,0,1.39.23,1.11,1.11,0,0,0,.3-.8c0-1.86-2.08-3.22-3.53-4a29.94,29.94,0,0,0-4.12-1.53,60,60,0,0,0-10.12-2.63,60.73,60.73,0,0,0-20.66.16,64.52,64.52,0,0,0-8,2,56.17,56.17,0,0,0-7.69,3c-5.11,2.48-11,7.15-13,12.68a6.36,6.36,0,0,0-.08,4.81,1.33,1.33,0,0,0,.53.64c.55.3,1.23-.14,1.58-.66a5.87,5.87,0,0,1,1.06-1.54,2.48,2.48,0,0,1,2.55,0,20.85,20.85,0,0,0,2.37,1.29,2,2,0,0,0,2.39-.65c.56-1-.36-2.48.32-3.43A1.74,1.74,0,0,1,236.33,220.25Z"/><path class="cls-11" d="M251.15,229c-2.67-2.09-5.46-5.2-4.34-8.85,1-3.17,3.91-5.44,6.4-7.43s5.08-3.94,6.81-6.73a12.08,12.08,0,0,0,2-5.84A62.9,62.9,0,0,0,245.69,203c-6.58,2.06-12.53,5-17.59,9.79-.59.57-1.16,1.15-1.7,1.76a25.63,25.63,0,0,0-4.05,6c-1.41,2.94-1.08,6.32-.46,9.47a12.3,12.3,0,0,0,1.21,3.38,5.29,5.29,0,0,0,.29.52,13.53,13.53,0,0,0,2.65,3.24,16,16,0,0,0,18.07,2.45c2.91-1.5,4.88-3.76,7.32-5.78a19.47,19.47,0,0,1,3.69-2.4A18.87,18.87,0,0,1,251.15,229Z"/><path class="cls-12" d="M248.91,231.86a77.41,77.41,0,0,0-6.28-5.73c-1.23-1.07-2.49-2.09-3.62-3.26s-2.18-2.43-2.27-4c-.11-2,1.82-3,3.35-3.67,1.19-.54,2.42-1,3.61-1.51a28.71,28.71,0,0,0,3.6-2,39.48,39.48,0,0,0,6.79-5.5,26.83,26.83,0,0,0,4.3-5.74A63.48,63.48,0,0,0,245.74,203c-6.57,2.06-12.53,5-17.58,9.79-.6.56-1.16,1.15-1.71,1.76a26.27,26.27,0,0,0-4,6c-1.41,2.94-1.08,6.33-.46,9.48a12.64,12.64,0,0,0,1.21,3.38l.29.52a13.29,13.29,0,0,0,2.65,3.23,16,16,0,0,0,18.07,2.45c2.68-1.37,4.57-3.4,6.76-5.29A23.13,23.13,0,0,0,248.91,231.86Z"/><path class="cls-9" d="M264.58,215.12a29.56,29.56,0,0,0-20.32,5.37c-2.73,2-5.18,4.26-7.94,6.17a22,22,0,0,1-4.47,2.38c-1.84.71-3.94,1.37-5.87.65-.41-.15-.72.55-.3.73,3.17,1.35,6.57-.26,9.28-2,2.87-1.82,5.45-4,8.16-6.07a30.59,30.59,0,0,1,9.69-5.12,44.17,44.17,0,0,1,11.77-1.53.3.3,0,0,0,0-.58Z"/><path class="cls-9" d="M263.73,202.84a97.86,97.86,0,0,0-12.16,1.88,55.67,55.67,0,0,0-11.72,3.43,29.6,29.6,0,0,0-8.79,5.78,24.31,24.31,0,0,0-6,8.3c-.11.28.33.44.48.2a31.16,31.16,0,0,1,6.48-7.8,47.6,47.6,0,0,1,8.76-5.61,52.27,52.27,0,0,1,11.11-4c3.93-1,7.94-1.24,11.9-2C263.91,203.06,263.87,202.83,263.73,202.84Z"/><path class="cls-9" d="M243,214.65a14.36,14.36,0,0,0-4.12,1.68,37.77,37.77,0,0,0-4.07,2.4,32.93,32.93,0,0,0-6.77,6.14.11.11,0,0,0,0,.15.11.11,0,0,0,.11,0,61.31,61.31,0,0,1,7.27-5.56c1.22-.78,2.46-1.53,3.75-2.2a37.3,37.3,0,0,0,4-2,.32.32,0,0,0,.11-.45A.32.32,0,0,0,243,214.65Z"/><path class="cls-9" d="M283,214.58a16.31,16.31,0,0,0-4.54-1.21c-1.49-.27-3-.47-4.49-.61a46.18,46.18,0,0,0-10,.24c-.21,0-.22.35,0,.33a54.8,54.8,0,0,1,9.5,0,45.43,45.43,0,0,1,4.94.66,36.73,36.73,0,0,0,4.42.87.18.18,0,0,0,.16-.21A.14.14,0,0,0,283,214.58Z"/><path class="cls-13" d="M271.83,203.49a12.6,12.6,0,0,0-3.24-.21,26,26,0,0,0-3.64-.07c-.24,0-.36.43-.07.47a22.71,22.71,0,0,0,3.5.06,13.28,13.28,0,0,0,3.45-.09.1.1,0,0,0,0-.12A.08.08,0,0,0,271.83,203.49Z"/><path class="cls-13" d="M288.15,207.46c-.58-1-2-1.46-3-1.86a29.7,29.7,0,0,0-4.23-1.24.57.57,0,0,0-.64.49.56.56,0,0,0,.34.6c1.26.45,2.51,1,3.75,1.47,1,.42,2.37,1.24,3.5,1.09a.38.38,0,0,0,.33-.41A.58.58,0,0,0,288.15,207.46Z"/><path class="cls-9" d="M286.55,216.64c-2.07-.23-4.25.06-6.34,0s-4.23-.18-6.33-.28c-.21,0-.26.33-.05.37a35,35,0,0,0,6.38.61,22.78,22.78,0,0,0,6.38-.44.15.15,0,0,0,.06-.19A.14.14,0,0,0,286.55,216.64Z"/><path class="cls-9" d="M297.82,223a21.1,21.1,0,0,1-6.63,4.46,15.26,15.26,0,0,1-8.77,1.42c-1.52-.16-3-.42-4.55-.67s-3.05-.27-4.58-.49c-1.32-.18-2.64-.43-4-.56s-3-.29-4,.41a.29.29,0,0,0-.08.39.33.33,0,0,0,.15.11,5.6,5.6,0,0,0,2,0c.85,0,1.7-.08,2.54-.1a16.56,16.56,0,0,1,5,.55,40,40,0,0,0,9.28,1.53c2.94.14,6.2.24,9-.84,2.59-1,5-2.88,5.5-5.75C298.75,223,298.19,222.53,297.82,223Z"/><path class="cls-9" d="M261.93,227.54a5.57,5.57,0,0,0-2.81,0,23.45,23.45,0,0,0-3.41.8,11.23,11.23,0,0,0-5.45,3.3c-.42.48.12,1.3.7.92a40.9,40.9,0,0,1,5.23-3.07,13.6,13.6,0,0,1,3-.88,12.52,12.52,0,0,0,2.78-.46A.32.32,0,0,0,261.93,227.54Z"/><path class="cls-9" d="M298.92,216.88c-.31-.71-.67-1.38-1-2.07-.14-.27-.59-.08-.49.2.25.74.49,1.46.78,2.18a.43.43,0,0,0,.39.29.36.36,0,0,0,.34-.2A.41.41,0,0,0,298.92,216.88Z"/><path class="cls-7" d="M157.83,209a13.54,13.54,0,0,1,.84,3.82v.65a15.14,15.14,0,0,1-.58,4.54,17.49,17.49,0,0,1-15.33,12.72c-3.57.3-6.7-.65-10.14-1.11-12.78-1.72-22.38,8.79-31.5,16.1-4.08,3.27-9.26,5.95-14.36,4.82s-7.81-5.47-8.67-10.23a18.19,18.19,0,0,1-.13-5.75A24.94,24.94,0,0,1,80,227.43,21.66,21.66,0,0,1,82,224a66,66,0,0,1,38.12-26.26c7.29-1.89,14.48-2.65,22-1.1.87.18,1.74.4,2.59.65a28.2,28.2,0,0,1,7.23,3.21C154.93,202.41,156.58,205.74,157.83,209Z"/><path class="cls-8" d="M155.66,204.44c1.31,4.16,1.81,9.49-1.72,12.69a14.28,14.28,0,0,1-6.74,3.1c-3.71.78-7.17-.13-10.76-1.06a62.72,62.72,0,0,0-8.22-2c-8.13-1-15.32,3.47-21.62,8.06-3,2.2-6,4.5-9.11,6.54a32.66,32.66,0,0,1-8,4.19c-2.89.88-6.06.73-8.23-1.61a9.43,9.43,0,0,1-2.2-4.35A25.58,25.58,0,0,0,78,234.58c-.9,6.48,1.76,14.42,8.8,16,5.1,1.13,10.28-1.55,14.36-4.82,9.12-7.31,18.72-17.82,31.51-16.1,3.43.46,6.56,1.41,10.13,1.11A17.51,17.51,0,0,0,158.12,218a14.9,14.9,0,0,0,.55-5.19,13.61,13.61,0,0,0-.84-3.83A27,27,0,0,0,155.66,204.44Z"/><path class="cls-10" d="M141.22,203.05a6.31,6.31,0,0,0,2.12.18,2.21,2.21,0,0,0,.91-.25c.86-.5.84-1.8.41-2.7-1.16-2.42-3.77-2.45-6.13-2.76a34.9,34.9,0,0,0-8.36-.1,62,62,0,0,0-8.86,1.66,71.07,71.07,0,0,0-8.54,2.81A66.3,66.3,0,0,0,93.53,213.7a64.93,64.93,0,0,0-7.86,8.3l-2.82,3.6c-.62.8-1.73,2.09-1,3.21.43.63,1.42,0,1.75-.69s.72-1.6,1.48-1.53a2,2,0,0,1,1,.59,2.34,2.34,0,0,0,2.44.44c1.15-.58,1.21-2.17,1.17-3.45s.19-2.91,1.42-3.29c1.54-.47,3.39,1.5,4.61.45,1-.85.13-2.4,0-3.69a3.33,3.33,0,0,1,4.08-3.46c.64.19,1.35.57,1.9.2.85-.56.09-1.92.41-2.89a1.65,1.65,0,0,1,1.6-1,3.07,3.07,0,0,1,1.82.79,1.35,1.35,0,0,0,.8.45c.49,0,.81-.53.84-1a7.91,7.91,0,0,1,0-1.46c.2-1.25,1.8-1.78,3-1.48a22.74,22.74,0,0,1,3.4,1.66c1.16.51,2.71.58,3.5-.4s.4-2.38.48-3.62a3,3,0,0,1,2.45-2.91,6.1,6.1,0,0,1,2.71.9c.89.39,2.08.52,2.69-.23.25-.31.35-.73.61-1,.78-1,2.35-.46,3.38.25s2.28,1.57,3.41,1,1.38-2.2,2.51-2.74c1.37-.66,2.77.73,4.05,1.57A6.23,6.23,0,0,0,141.22,203.05Z"/><path class="cls-11" d="M158.7,213.5v-.66a13.54,13.54,0,0,0-.84-3.82c-1.25-3.28-2.9-6.61-5.9-8.52a26.7,26.7,0,0,0-5.29-2.58,15.74,15.74,0,0,1-4.45,10.74c-4.37,4.52-10.69,6.22-16.53,7.93-3,.88-6.19,1.72-8.81,3.43a13.8,13.8,0,0,0-4.45,4.85c-2.23,3.95-3,8.57-3.86,13q-.21,1-.45,2.1c7.15-6,15-11.59,24.56-10.29,3.44.46,6.57,1.41,10.14,1.11A17.49,17.49,0,0,0,158.12,218,14.88,14.88,0,0,0,158.7,213.5Z"/><path class="cls-12" d="M158.7,213.49v-.65a13.54,13.54,0,0,0-.84-3.82,23.86,23.86,0,0,0-2.72-5.41,18,18,0,0,1-4.72,5.52,23.24,23.24,0,0,1-5.21,3.2,50.08,50.08,0,0,1-7.17,2.25q-4.2,1.09-8.48,1.81a39,39,0,0,0-9.61,3,17.69,17.69,0,0,0-3.34,2c-2,1.58-4.51,4.26-5.12,6.81a30.94,30.94,0,0,0-1,4.87,20.52,20.52,0,0,0,0,2.48,14.25,14.25,0,0,1,.2,2.35c6.48-5.14,13.57-9.4,22.06-8.25,3.44.46,6.57,1.41,10.14,1.11A17.51,17.51,0,0,0,158.12,218,15,15,0,0,0,158.7,213.49Z"/><path class="cls-9" d="M83.37,246.32c2.83.83,5.84.57,8.73.3a16.77,16.77,0,0,0,9-3.75c1.32-1,2.57-2.15,3.83-3.26s2.66-2,4-3.1c1.12-.94,2.2-1.93,3.36-2.83s2.6-2,4-1.94a.3.3,0,0,1,.3.3.28.28,0,0,1-.08.2,5.91,5.91,0,0,1-1.84,1.2c-.81.44-1.61.91-2.41,1.38a18,18,0,0,0-4.31,3.4,43.41,43.41,0,0,1-7.73,6.78c-2.64,1.83-5.6,3.82-8.82,4.43-3,.57-6.32.24-8.42-2.15C82.53,246.9,82.78,246.15,83.37,246.32Z"/><path class="cls-9" d="M119.3,229.81a6,6,0,0,1,2.6-1.63,27.55,27.55,0,0,1,3.62-1.23,12.44,12.44,0,0,1,7-.09c.66.2.64,1.27-.13,1.26a45.72,45.72,0,0,0-6.62.18,14.79,14.79,0,0,0-3.32.94,13.88,13.88,0,0,1-2.84,1.19C119.22,230.48,119.14,230,119.3,229.81Z"/><path class="cls-9" d="M78.84,241.34c-.12-.84-.18-1.67-.25-2.52a.29.29,0,0,1,.27-.31.31.31,0,0,1,.3.22c.19.82.39,1.64.53,2.47a.45.45,0,0,1-.18.49c-.16.12-.26.08-.44,0A.43.43,0,0,1,78.84,241.34Z"/><path class="cls-9" d="M130.78,203.63a53.23,53.23,0,0,0-12.65,2.81,70.42,70.42,0,0,0-11.76,4.92,56.41,56.41,0,0,0-18.2,15.26,46.08,46.08,0,0,0-6.38,11.45c-.05.12.15.17.19.05,6.1-15.16,20.07-25.66,35.2-30.75,2.16-.73,4.36-1.36,6.57-1.9s4.74-.94,7.07-1.54A.15.15,0,0,0,130.78,203.63Z"/><path class="cls-9" d="M150.29,209.94c-2.69-1.11-6-1.14-8.92-1.2a58.89,58.89,0,0,0-9,.57,95,95,0,0,0-17.94,4.74c-.23.08-.13.45.11.38a114,114,0,0,1,17.79-3.86,62.52,62.52,0,0,1,8.86-.51,40.19,40.19,0,0,1,4.42.27c1.42.16,3,.51,4.58.55C150.74,210.89,150.75,210.13,150.29,209.94Z"/><path class="cls-9" d="M136.68,222.83c-7.29-1.4-15.12,0-21.88,2.92a40.19,40.19,0,0,0-9.71,5.91c-3.29,2.69-6.24,5.8-9.66,8.32a19.1,19.1,0,0,1-12.82,3.94c-.22,0-.22.28,0,.35,3.47,1.41,7.45.18,10.59-1.52,3.56-1.94,6.43-4.86,9.28-7.68a41.07,41.07,0,0,1,20.88-11.52,47.87,47.87,0,0,1,13.36-.58.07.07,0,0,0,0-.14Z"/><path class="cls-9" d="M117.53,217.35c-3,.19-6,2-8.34,3.82a78.21,78.21,0,0,0-7.58,7.32c-5.09,5.13-10.91,9.64-18.17,11-.24,0-.18.44.06.43,6.88-.4,12.52-4.83,17.23-9.49,2.5-2.48,4.82-5.15,7.47-7.48a25,25,0,0,1,4.28-3.08,23,23,0,0,1,5.14-1.91.33.33,0,0,0,.13-.45A.36.36,0,0,0,117.53,217.35Z"/><path class="cls-9" d="M155.62,213.05c-2.41,3.46-8,4-11.86,4.31-2.23.21-4.48.31-6.73.31s-4.81-.31-7.18-.14a.15.15,0,0,0,0,.29,49.91,49.91,0,0,0,7.43.55,52.12,52.12,0,0,0,8-.19c3.85-.42,8.77-1.14,10.86-4.85A.3.3,0,0,0,155.62,213.05Z"/><path class="cls-13" d="M119.46,200.49a57.24,57.24,0,0,0-11.7,4.63c-1.89.94-3.65,2.08-5.45,3.18a25.79,25.79,0,0,0-5,3.68.27.27,0,1,0,.33.43h0c1.79-1.09,3.48-2.34,5.28-3.4s3.63-1.87,5.47-2.76c3.71-1.81,7.65-3.25,11.21-5.35a.23.23,0,0,0-.14-.41Z"/><path class="cls-13" d="M139.42,198.84c-1-.89-3-.66-4.28-.67a19.7,19.7,0,0,0-5,.8.29.29,0,0,0-.2.36.29.29,0,0,0,.28.21c1.64-.06,3.29,0,4.94,0h2.37a3,3,0,0,0,1.86-.24.28.28,0,0,0,.1-.38A.27.27,0,0,0,139.42,198.84Z"/><path class="cls-13" d="M92.45,216.06a15.07,15.07,0,0,0-3.65,3c-1.18,1.2-2.27,2.49-3.33,3.8-.53.65.37,1.58.93.93,1.08-1.29,2.22-2.53,3.36-3.77a25.21,25.21,0,0,0,3.1-3.58.31.31,0,0,0-.2-.39A.3.3,0,0,0,92.45,216.06Z"/><path class="cls-7" d="M245.24,243.16a13.6,13.6,0,0,1-1.3,3.65l-.32.56a14.49,14.49,0,0,1-2.85,3.49,17.29,17.29,0,0,1-19.49,2.64c-3.14-1.61-5.27-4.05-7.9-6.23-9.8-8.12-23.34-4.34-34.79-3-5.12.61-10.86.14-14.54-3.47s-3.68-8.66-1.92-13.09a18.59,18.59,0,0,1,2.9-4.89,25.32,25.32,0,0,1,5.45-4.88,22.63,22.63,0,0,1,3.46-1.87A65.11,65.11,0,0,1,219.57,214c7.1,2.22,13.52,5.34,19,10.55.64.61,1.25,1.25,1.83,1.9a28,28,0,0,1,4.37,6.46C246.26,236.11,245.91,239.77,245.24,243.16Z"/><path class="cls-8" d="M245.81,238.19c-1.08,4.18-3.44,8.9-8.08,9.73a13.93,13.93,0,0,1-7.25-.93c-3.52-1.28-5.94-3.85-8.46-6.51a64.64,64.64,0,0,0-5.82-6c-6.28-5.1-14.65-5.09-22.31-4.54-3.68.26-7.36.64-11,.71A32.08,32.08,0,0,1,174,230c-2.89-.76-5.46-2.55-6.05-5.64a9.16,9.16,0,0,1,.46-4.81,26,26,0,0,0-3.32,3.31c-4.13,5-6.06,13-1,18,3.68,3.61,9.42,4.08,14.54,3.47,11.45-1.35,25-5.13,34.79,3,2.63,2.18,4.76,4.62,7.9,6.23a17.27,17.27,0,0,0,19.48-2.64,14.55,14.55,0,0,0,3.18-4,13.6,13.6,0,0,0,1.3-3.65A26.1,26.1,0,0,0,245.81,238.19Z"/><path class="cls-9" d="M239.61,240.56a1.54,1.54,0,0,0-1.3-.91,2.66,2.66,0,0,0-1.93.91,3.88,3.88,0,0,0-.95,2.43,2.21,2.21,0,0,0,1.48,2.18,2.24,2.24,0,0,0,2.51-.87,4.24,4.24,0,0,0,.51-2.81A2.78,2.78,0,0,0,239.61,240.56Z"/><path class="cls-9" d="M199.1,213c-13.34-1-26.15,3.73-34.33,12.51-.2.21.22.44.41.23,7.91-8.29,21.19-13.08,33.9-12.28a.23.23,0,0,0,0-.46Z"/><path class="cls-9" d="M220.26,222.77c-13.14-6.83-29.75-6.86-43.39-1.66a36.43,36.43,0,0,0-10.4,5.59c-.18.15,0,.45.26.33,3-1.62,5.81-3.36,9-4.71a52.38,52.38,0,0,1,10.09-3.12,55.82,55.82,0,0,1,22.3,0,69.11,69.11,0,0,1,12.1,3.73.08.08,0,0,0,0-.16Z"/><path class="cls-9" d="M216.63,240.61c-4.53-4.09-11.26-4.92-17.12-5.15a101,101,0,0,0-11,.33,54.69,54.69,0,0,1-10.55.08,20.18,20.18,0,0,1-10.34-4c-.23-.19-.57.2-.34.4,4.91,4.28,11.53,4.78,17.76,4.42,7-.4,14-1.25,21-.06a28.18,28.18,0,0,1,10.53,4.07C216.61,240.75,216.69,240.66,216.63,240.61Z"/><path class="cls-9" d="M236.47,246.64a15.23,15.23,0,0,1-2.31,2.63,10.16,10.16,0,0,1-3,1.67,13.68,13.68,0,0,1-8.11,0,.06.06,0,0,0,0,.08l0,0a12,12,0,0,0,8.6.38c2.07-.76,4.45-2.49,5.1-4.7a.16.16,0,0,0-.09-.19.15.15,0,0,0-.19.1Z"/><path class="cls-9" d="M244.2,235.12c-.57,2-2.32,3.06-3.41,4.67a.13.13,0,0,0,0,.18.12.12,0,0,0,.14,0,6.64,6.64,0,0,0,3.45-4.82C244.43,235,244.24,235,244.2,235.12Z"/><path class="cls-9" d="M240.5,246.23c-.1-.1-.31,0-.22.15.45.69.68,1.46,1.06,2.18a.15.15,0,0,0,.2.06.14.14,0,0,0,.08-.12A3.31,3.31,0,0,0,240.5,246.23Z"/><path class="cls-8" d="M211.56,230.25c-1.94-1.69-4.89-2.52-7.38-2.89A42.73,42.73,0,0,0,195,227c-3.05.22-6.09.67-9.12,1a24.12,24.12,0,0,1-9-.25c-.26-.06-.39.32-.13.4a31.69,31.69,0,0,0,9.08,1.35c3.19,0,6.37-.48,9.55-.79a47.24,47.24,0,0,1,9.21,0,21.37,21.37,0,0,1,7.22,2.32C212.55,231.23,211.81,230.47,211.56,230.25Z"/><path class="cls-14" d="M206.69,241.49a12.08,12.08,0,0,0-4.61-1.42,36.59,36.59,0,0,0-5.33-.42,102.6,102.6,0,0,0-10.52.65,87.47,87.47,0,0,1-10.73.7,32.53,32.53,0,0,1-10.29-1.91.53.53,0,0,0-.68.31.53.53,0,0,0,.22.64,16.26,16.26,0,0,0,4.7,2.14,30.79,30.79,0,0,0,4.86.8,51.08,51.08,0,0,0,10.63-.42c3.67-.45,7.29-1.17,11-1.36a37.18,37.18,0,0,1,5.17.07c1.82.15,3.59.66,5.41.79a.31.31,0,0,0,.17-.57Z"/><path class="cls-14" d="M230.56,252.81a14.09,14.09,0,0,0-2.74-.36,15.33,15.33,0,0,1-2.92-.62,15.77,15.77,0,0,1-5.28-2.9c-2.7-2.25-4.89-5.06-8.44-6a.32.32,0,0,0-.37.26.33.33,0,0,0,.17.34c3.65,1.25,5.52,5.36,8.48,7.62a15.46,15.46,0,0,0,5.29,2.6c1.8.49,4.14,1,5.9.15a.63.63,0,0,0,.16-.88A.64.64,0,0,0,230.56,252.81Z"/><path class="cls-10" d="M186.85,223.72a2.82,2.82,0,0,0,2.31,0c.74-.39,1.28-1.42,2.2-1.27.73.13,1.19,1.15,2,1a1.26,1.26,0,0,0,.53-.32c.48-.47.74-1.12,1.2-1.6a1.31,1.31,0,0,1,1.78-.25,1.17,1.17,0,0,1,.27.56c.16.73-.1,1.56.28,2.2a1.75,1.75,0,0,0,1.9.63,6.08,6.08,0,0,0,1.88-1,14,14,0,0,1,4.2-2c1.76-.45,1.53,1.21,3,1.65.94.29,1.62-.92,2.42.18a3.68,3.68,0,0,1,.52,1.5,2.39,2.39,0,0,0,.71,1.41,2,2,0,0,0,.7.32,4,4,0,0,0,2.87-.26c1.29-.63,2.23-1.6,3.75-1.49,1.27.09,1,1.35.93,2.35a1.42,1.42,0,0,0,.06.58,1.09,1.09,0,0,0,1.17.6,4.79,4.79,0,0,0,1.34-.44c1-.36,2.29-.34,2.77.58.39.74,0,1.65.11,2.48a3.85,3.85,0,0,0,.95,1.86,5.34,5.34,0,0,0,3.75,2.28,12.76,12.76,0,0,1,2.83-.13,14.87,14.87,0,0,1,3.39,1.62,3.67,3.67,0,0,0,2.36.48,2.06,2.06,0,0,0,1.46-2.09,5.74,5.74,0,0,0-.3-2.6c-.17-.43-.6-.82-.55-1.31.07-.72.94-1,1.18-1.7a2.53,2.53,0,0,0-.45-2.16c-.59-.66-1.2-1.29-1.84-1.9-5.45-5.21-11.87-8.34-19-10.56a70.66,70.66,0,0,0-8.61-2.11,65.43,65.43,0,0,0-22.29-.17,63,63,0,0,0-10.9,2.83c-4.07,1.45-8.67,3.06-9.29,8a2.19,2.19,0,0,0,.14,1.36,1.62,1.62,0,0,0,1.58.75,3,3,0,0,0,1.64-.81,1.2,1.2,0,0,1,.61-.37c.45,0,.73.47.82.91.17.94.1,2.13,1,2.58a1.54,1.54,0,0,0,1.43-.11,4.7,4.7,0,0,0,1.09-1l1.66-1.93a3.2,3.2,0,0,1,1.93-1.34,10,10,0,0,1,1.79.28c.86.07,1.54-.49,2.34-.75C185.68,222.56,185.8,223.3,186.85,223.72Z"/><path class="cls-10" d="M233.77,231.24c1.32.07,1.5-1.1,1.73-2.08a1.1,1.1,0,0,1,.19-.46c.33-.39,1-.14,1.46-.27a.41.41,0,0,0,.26-.17.45.45,0,0,0,0-.28c-.1-2.5-1.88-3.48-3.39-5.09A19.31,19.31,0,0,0,228.1,219a60.08,60.08,0,0,0-8.29-3.24,70.66,70.66,0,0,0-8.61-2.11,65.37,65.37,0,0,0-22.28-.17A63.39,63.39,0,0,0,178,216.31,31.81,31.81,0,0,0,173.6,218a7.08,7.08,0,0,0-2.17,1.63c-1,1.16.35,2.17,1.32,1a3,3,0,0,1,2.3-1.19.54.54,0,0,1,.42.12.56.56,0,0,1,.09.5c-.11.81-.21,1.62-.31,2.42a.82.82,0,0,0,0,.49.57.57,0,0,0,.69.21,1.37,1.37,0,0,0,.59-.5,16.4,16.4,0,0,1,2-2.7,2.16,2.16,0,0,1,1.49-.7c1,.07,1.27,1.49,2.56,1.07s1.79-1.89,3.17-2.18c1.1-.24,1.57.46,1.72,1.52a1.52,1.52,0,0,0,.34,1c.63.57,1.7-.3,2.12-.78a4.39,4.39,0,0,1,1.9-1.51,3.63,3.63,0,0,1,1.16-.31,1.31,1.31,0,0,1,1.09.41c.27.31.41.84.82.87a.86.86,0,0,0,.56-.26c1-.83,3.39-2.74,4.82-1.73a3.47,3.47,0,0,1,.59.62,2.68,2.68,0,0,0,1.54.88c1.22.21,2.11-1,3.26-1.42a1,1,0,0,1,1.3.34,4.19,4.19,0,0,0,1.49,1.44,4.24,4.24,0,0,0,1.66.16,3,3,0,0,1,2.89,1.44,8,8,0,0,1,.41,1.6,2,2,0,0,0,.85,1.37,2.19,2.19,0,0,0,2.12-.35c1.2-.75,3.78-2.91,5.14-1.36a13.09,13.09,0,0,0,1,1.23c1.24,1.14,1.75,0,2.93-.16s2,1.17,2.31,2.16a17.11,17.11,0,0,0,1.08,3.41,5.38,5.38,0,0,0,1.72,1.67A4.91,4.91,0,0,0,233.77,231.24Z"/><path class="cls-13" d="M233.9,225.25a9.44,9.44,0,0,0-1.57-1.77,11.52,11.52,0,0,0-3.31-2.22c-.29-.13-2.07-.93-2-.17a1,1,0,0,0,.4.51c1,.77,2.07,1.48,3.12,2.16a18.66,18.66,0,0,1,2.69,2.33,1.44,1.44,0,0,0,.46.31C234.61,226.7,234.09,225.55,233.9,225.25Z"/><path class="cls-13" d="M221.88,218.41a5.35,5.35,0,0,0-1.79-1l-2.45-1a32.34,32.34,0,0,0-5.2-1.63,39.68,39.68,0,0,0-10.48-.89.32.32,0,0,0-.26.37.32.32,0,0,0,.26.26,92.8,92.8,0,0,1,10.22,1.74l4.77,1.13c.86.21,1.7.48,2.53.76a7.61,7.61,0,0,0,2.23.65.27.27,0,0,0,.19-.33A.14.14,0,0,0,221.88,218.41Z"/><path class="cls-9" d="M232.19,243.38a14.07,14.07,0,0,1-3.88-2.16q-1.68-1.47-3.2-3.09a30.38,30.38,0,0,0-7.7-5.4c-.33-.17-.65.29-.33.49a53,53,0,0,1,7.85,6.57c1.93,1.85,4.27,4.26,7.13,4.3a.37.37,0,0,0,.35-.38A.36.36,0,0,0,232.19,243.38Z"/><path class="cls-10" d="M237.28,232.49a8.63,8.63,0,0,1,.24,1,9.66,9.66,0,0,0,.15,1.52.71.71,0,0,0,.87.51.7.7,0,0,0,.23-.11,3.13,3.13,0,0,0,.39-1.64c-.06-1.35-1.33-2.88-2.32-3.68a.72.72,0,0,0-.27-.15.22.22,0,0,0-.26.12.41.41,0,0,0,0,.22c.19.48.43.93.63,1.41A8,8,0,0,1,237.28,232.49Z"/><g class="cls-15"><path class="cls-13" d="M192.62,214.53c-4.76-.5-9.45.67-13.92,2.15-.49.17-.34.94.18.8,4.5-1.28,9.19-1.73,13.77-2.59a.18.18,0,0,0,.16-.19A.17.17,0,0,0,192.62,214.53Z"/></g><path class="cls-9" d="M233,245.67a21.93,21.93,0,0,0-2,1,.19.19,0,0,0,0,.28.22.22,0,0,0,.13.08,3.41,3.41,0,0,0,2.28-.56.44.44,0,0,0-.37-.8Z"/><path class="cls-9" d="M239.61,242.07a3,3,0,0,1-.48,1.87c-.22.32-1.18,1.18-1.39.41a1.65,1.65,0,0,1,0-.7,2.2,2.2,0,0,0-.1-1.27,2.38,2.38,0,0,1-.39-1.58.93.93,0,0,1,1-.77,1.36,1.36,0,0,1,.87.63A2.55,2.55,0,0,1,239.61,242.07Z"/><path class="cls-11" d="M203.32,211c-.49.14-1,.28-1.45.44a26.81,26.81,0,0,0-11.66,7.28,27.85,27.85,0,0,0-3.69,5.48,26.59,26.59,0,0,0-2.65,7,11,11,0,0,0,.27,6,10.27,10.27,0,0,0,2.78,3.92,18,18,0,0,0,2.26,1.72c-3.61.46-7.19,1.07-10.59,1.47-.73.09-1.47.15-2.21.19-4.5.22-9.17-.56-12.33-3.66-3.62-3.56-3.68-8.66-1.92-13.09a18.59,18.59,0,0,1,2.9-4.89,25.32,25.32,0,0,1,5.45-4.88,21.37,21.37,0,0,1,3.46-1.87A63.94,63.94,0,0,1,195.11,211,66.15,66.15,0,0,1,203.32,211Z"/><path class="cls-12" d="M180.44,231.14c1.36-1.89,2.71-3.78,4-5.69a26.36,26.36,0,0,0,2.62-4.2c1.14-2.53,1.72-5.35,3.23-7.7a11,11,0,0,1,2-2.3,63.45,63.45,0,0,0-18.36,4.83,21.37,21.37,0,0,0-3.46,1.87,25.32,25.32,0,0,0-5.45,4.88,18.59,18.59,0,0,0-2.9,4.89c-1.76,4.43-1.7,9.53,1.92,13.09,3.16,3.1,7.83,3.88,12.33,3.66-.13-.28-.25-.57-.35-.84a8.75,8.75,0,0,1,0-5.76c.55-1.88,1.91-3.34,3.06-4.92Z"/><path class="cls-9" d="M235.24,237.55A70.79,70.79,0,0,0,230.5,231a17,17,0,0,0-5.67-4.76.2.2,0,0,0-.26.12.19.19,0,0,0,.06.22,53.47,53.47,0,0,1,5.78,5.17c1.79,1.77,3.09,4,4.73,5.84a.06.06,0,0,0,.08,0Z"/><path class="cls-7" d="M205.4,212.14c-18.34-7.85-30.44-25.35-25.84-35.35.22-.48.46-.94.71-1.38,3.4-5.78,10-7.82,18.17-4,6.65,3.1,9.53,10,19.93,14.51,8.75,3.76,15.23-1.06,22.65-3.38,6-1.86,10.5.51,13,4.2s3,8.77,1,12.17C246.88,212.27,226.22,221.05,205.4,212.14Z"/><path class="cls-8" d="M255,198.92c2.63-4.32,1.11-11.33-3.46-14.85a20.47,20.47,0,0,1,1.25,5.56,12.9,12.9,0,0,1-1,5.85,22.51,22.51,0,0,1-8.62,10.16,25.22,25.22,0,0,1-10.45,3.83,36.91,36.91,0,0,1-11.25-.35A60.86,60.86,0,0,1,210,205.91a53.75,53.75,0,0,1-11.65-6.06,33.46,33.46,0,0,1-9-9.14,27,27,0,0,1-2.81-5.86,12.76,12.76,0,0,1,3.17-13.29,10.93,10.93,0,0,1,2.77-2,11.78,11.78,0,0,0-12.95,7.19c-4.6,10,7.5,27.5,25.84,35.35C226.22,221.05,246.88,212.27,255,198.92Z"/><path class="cls-9" d="M254.15,198.18c-.88,0-2,1.91-2.63,2.55a32.67,32.67,0,0,1-2.82,2.57,36.27,36.27,0,0,1-6.59,4.24,39.14,39.14,0,0,1-14.75,4c-10,.7-20.09-2.27-28.68-7.45-5.5-3.32-10.59-7.7-13.44-13.46-1.45-2.92-2.29-6.11-3.53-9.13a2.29,2.29,0,0,0-.93-1.27c-2.09-1.08-.79,3.9-.64,4.58,2.67,12.22,14.83,21.8,25.74,26.44a42.09,42.09,0,0,0,24.87,2.66,39.1,39.1,0,0,0,14-5.85,35.25,35.25,0,0,0,5.48-4.57C251.3,202.4,254.21,199.78,254.15,198.18Z"/><path class="cls-10" d="M244.7,182.31a10.65,10.65,0,0,0-4,1.23c-4,1.88-8.08,4-12.5,4.43-8.66.95-17.31-4.16-23.29-10l-.41-.41c-1.3-1.3-2.49-2.71-3.89-3.89a9.2,9.2,0,0,0-4.91-2.31,6.52,6.52,0,0,0-6.06,3.31,1.82,1.82,0,0,0,.75,2.45l.11,0c1,.28,2.12-.73,3.13-.38a1.78,1.78,0,0,1,.83,2.26,7.87,7.87,0,0,1-1.47,2.22,4.36,4.36,0,0,0-1,2.4,2.06,2.06,0,0,0,1.33,2.07c1.24.36,2.42-.82,3.71-.84a2.47,2.47,0,0,1,2.22,1.49,3.46,3.46,0,0,1,0,2.75c-.46,1.13-1.41,2.21-1.14,3.4a2.28,2.28,0,0,0,2.57,1.55,3.51,3.51,0,0,0,1.85-.93c.33-.29.72-1.09,1.16-1.16s.6.4.63.77c.08,1.1-1,3.54.52,4s2.83-1.76,3.8-2.64c.63-.59,1.6-1.25,1.91,0a16.67,16.67,0,0,1,.38,2.09,2,2,0,0,0,.6,1.51,1.36,1.36,0,0,0,1.59-.19c.44-.34.72-.76,1.38-.52,1.13.43.62,2.22.4,3.07s-.28,2.11.72,2.58,1.77-.48,2.26-1.31.7-2.15,1.45-2.94c1-1,2,.4,2.25,1.43.37,1.36-.15,3.07.86,4a1,1,0,0,0,.84.31,1.28,1.28,0,0,0,.73-.58c1.08-1.55,1.3-3.54,2-5.29.15-.36.41-.77.81-.78a1,1,0,0,1,.49.18,3.49,3.49,0,0,1,1.56,2.33,1.42,1.42,0,0,0,.27.8.86.86,0,0,0,1.2-.12v0a2.35,2.35,0,0,0,.4-1.31,3.07,3.07,0,0,1,.33-1.33.61.61,0,0,1,.43-.3.64.64,0,0,1,.4.15c1.15.81,1.37,2.39,1.41,3.79a3,3,0,0,0,.17,1.11,1,1,0,0,0,.86.62c1,0,1-1.66,1.23-2.36a15.77,15.77,0,0,0,.59-2.16,12.15,12.15,0,0,0-.28-2.55,1.25,1.25,0,0,1,.5-1.28c.48-.24,1.06.13,1.37.58a8,8,0,0,1,.79,1.88c.26.71,1.22,2.86,2.07,1.89.45-.52.38-1.94.31-2.59a11.22,11.22,0,0,0-1.16-3.61,1.85,1.85,0,0,1-.24-.86c.06-.89,1.37-1.13,2.13-.65s1.18,1.34,1.86,1.92,1.92.75,2.34,0-.16-1.46-.54-2.12-.51-1.73.2-2l2.19,2.5a1.64,1.64,0,0,0,.5.41c.78.32,1.36-.84,1.21-1.66s-.54-1.75-.07-2.45l1.26.67a6.55,6.55,0,0,0-1.23-3.87A5.79,5.79,0,0,0,244.7,182.31Z"/><path class="cls-16" d="M211,190.05a7,7,0,0,0,0-1.59c-.18-.94-.87-1.75-1.87-1.1-.62.4-1.1,2.16-2.08,1.8s0-1.53-.83-1.57a1.41,1.41,0,0,0-.66.23,8.86,8.86,0,0,0-1.67,1.31c-.37.37-.84.82-1.34.66s-.61-1-.45-1.62c.41-1.5,1.28-3,.74-4.51a1.16,1.16,0,0,0-.34-.53,1.26,1.26,0,0,0-1.3,0,6.58,6.58,0,0,1-1.22.6.92.92,0,0,1-1.13-.51c-.09-.33.11-.67.11-1,0-.82-1.1-1.19-1.89-1s-1.46.78-2.26.93a.53.53,0,0,1-.39,0c-.16-.12-.15-.35-.12-.55a5,5,0,0,1,.86-2.1,9.76,9.76,0,0,0,1-1.47,1.41,1.41,0,0,0-.22-1.66c-.36-.3-.92-.31-1.25-.65a1.18,1.18,0,0,1,.1-1.56c1.33-1.49,3.61-.43,5,.48a20.15,20.15,0,0,1,3,2.84,43.93,43.93,0,0,0,3.43,3.11,53.64,53.64,0,0,0,7.16,4.67A26.62,26.62,0,0,0,226,188.73c5.35.14,10.52-1.89,15.3-4.31a8.64,8.64,0,0,1,2.25-.91c1.95-.39,2.8.85,3.48,2.56a1,1,0,0,1,.09.6c-.13.59-1,.54-1.52.21s-1-.8-1.63-.62a1.23,1.23,0,0,0-.66,1.39c.06.55.3,1.07.31,1.63s-.31,1.19-.86,1.23a1.7,1.7,0,0,1-1.07-.56,3.92,3.92,0,0,0-2-1,1.7,1.7,0,0,0-1.82,1c-.31.9.43,1.8.65,2.73.12.47-.21,1.19-.65,1a.93.93,0,0,1-.3-.38,5.87,5.87,0,0,0-2.89-2.65.92.92,0,0,0-.54-.1c-.48.09-.57.74-.49,1.23.2,1.22.76,2.45.41,3.64a.89.89,0,0,1-.25.43c-.45.33-1-.29-1.2-.81-.43-1.06-.87-2.12-1.31-3.19-.21.73-.42,1.46-.64,2.19s-.66.85-1,.2c-.21-.4.07-1.74-.88-1.57-.65.11-.46,1.34-1.1,1.53-.42.13-.79-.35-.82-.79a1.61,1.61,0,0,0-.06-.44.31.31,0,0,0-.36-.21.32.32,0,0,0-.15.13,3.06,3.06,0,0,0-.51,1.6c-.09.58-.19,1.17-.3,1.74a2.11,2.11,0,0,1-.63,1.3,1.06,1.06,0,0,1-1,.15c-.74-.27-.76-1.41-1-2.06a5.29,5.29,0,0,0-2-2.52,1,1,0,0,0-.78-.25,1,1,0,0,0-.53.36,4.15,4.15,0,0,0-1,2.21c-.07.46-.19,1.06-.65,1.09a.58.58,0,0,1-.46-.22,1.77,1.77,0,0,1-.33-1.54,4.85,4.85,0,0,0,.16-1.61c-.09-.54-.57-1.07-1.1-1s-.82.9-1.23,1.39a2.1,2.1,0,0,1-3-.15l0,0a3.34,3.34,0,0,1-.72-1.32A6.55,6.55,0,0,1,211,190.05Z"/><path class="cls-14" d="M225.61,212.27a49.58,49.58,0,0,1-18.53-3,47.46,47.46,0,0,1-15.9-10,49,49,0,0,1-6.88-8.19c-.13-.2-.41,0-.3.2a40.89,40.89,0,0,0,13,14.14,45.29,45.29,0,0,0,17.8,7.32,37.3,37.3,0,0,0,10.86.34.42.42,0,0,0,.27-.53A.43.43,0,0,0,225.61,212.27Z"/><path class="cls-16" d="M253.4,187.49c.14-1-.81-2-1.46-2.59a12.11,12.11,0,0,0-3.08-1.86c-.16-.08-.33.17-.17.28a17.14,17.14,0,0,1,2.42,2.08,8,8,0,0,1,.91,1.17,3.77,3.77,0,0,0,.82,1.12.34.34,0,0,0,.49-.06A.27.27,0,0,0,253.4,187.49Z"/><path class="cls-10" d="M195.77,171.14a7,7,0,0,0-1.54-.6,16.7,16.7,0,0,0-1.71-.49,9.88,9.88,0,0,0-3.47-.19,13,13,0,0,0-6,2.77.1.1,0,0,0,0,.14.1.1,0,0,0,.1,0,14.14,14.14,0,0,1,5.93-2.41,11.14,11.14,0,0,1,3.26.07c.57.1,1.14.23,1.7.36a10.49,10.49,0,0,0,1.67.43C195.77,171.24,195.83,171.18,195.77,171.14Z"/><path class="cls-10" d="M245.83,185.09c-1.18-3.39-5.74-.94-7.87-.13-1.84.69-3.71,1.28-5.57,1.87s-3.73,1.47-5.62,1.53a21.15,21.15,0,0,1-5.5-.36,32.88,32.88,0,0,1-14.3-7.23c-2-1.72-3.75-3.67-5.77-5.34-2.34-2-6.12-3.7-8-.18a7.24,7.24,0,0,0-.55,4.4c.68,4.74,3.95,8.88,8.07,11.32a26.47,26.47,0,0,0,13.83,3.24,57.1,57.1,0,0,1,7.4,0c2.44.3,4.78,1.13,7.2,1.59a17.51,17.51,0,0,0,9.72-.76,11.81,11.81,0,0,0,6.78-6.79,7.08,7.08,0,0,0,.28-1A4,4,0,0,0,245.83,185.09Z"/><path class="cls-9" d="M255.39,194.15a3.11,3.11,0,0,0-.17-1.09.3.3,0,0,0-.39-.19.3.3,0,0,0-.2.39,2.09,2.09,0,0,1-.09,1.08c-.07.27-.08.77.34.73S255.38,194.48,255.39,194.15Z"/><path class="cls-9" d="M220.18,206.59a42.33,42.33,0,0,0,23.84-7c.23-.15.49.17.26.33a38.42,38.42,0,0,1-24.11,6.7S220.13,206.59,220.18,206.59Z"/><path class="cls-9" d="M229.17,199.68c.94-.23,2-.26,2.9-.43a28,28,0,0,0,3.14-.72,30.1,30.1,0,0,0,5.72-2.29,33,33,0,0,0,9.81-7.8.12.12,0,0,1,.19.15,28.36,28.36,0,0,1-9.56,8.26,30.19,30.19,0,0,1-6,2.4,17.9,17.9,0,0,1-6.24,1C228.83,200.24,228.86,199.76,229.17,199.68Z"/><path class="cls-9" d="M191.57,179.36c.64,1.36.89,2.87,1.56,4.23a28.4,28.4,0,0,0,2.6,4.16,37.52,37.52,0,0,0,6.65,6.91,49.24,49.24,0,0,0,17.29,8.71c.2.06.12.42-.09.38A44,44,0,0,1,201.45,195a37.87,37.87,0,0,1-6.85-7.29,26,26,0,0,1-2.35-3.93,8.55,8.55,0,0,1-1.13-4.36.25.25,0,0,1,.28-.19A.23.23,0,0,1,191.57,179.36Z"/><path class="cls-9" d="M185.09,174a15.65,15.65,0,0,0-1.09,9.11c.61,3.32,2.35,5.92,3.87,8.85.11.21-.19.35-.32.2a19.19,19.19,0,0,1-4.4-9.25,11.4,11.4,0,0,1,1.75-9,.11.11,0,0,1,.19.09Z"/><path class="cls-13" d="M241.09,186c-2.48.91-4.89,2-7.43,2.72a22,22,0,0,1-3.95.75c-1.27.12-2.59-.06-3.84.17a.35.35,0,0,0-.23.45.37.37,0,0,0,.15.2c2.24,1.07,5.49.27,7.77-.35a38.43,38.43,0,0,0,7.84-3.2A.41.41,0,0,0,241.09,186Z"/><path class="cls-13" d="M213.33,187a32.68,32.68,0,0,1-8.25-5.46c-2.19-2.07-3.82-5.26-6.72-6.45-.35-.15-.71.27-.61.6,1,3.15,4.51,5.11,7,7a24.53,24.53,0,0,0,8.46,4.66C213.39,187.45,213.53,187.14,213.33,187Z"/><path class="cls-7" d="M163,243.57c-20.66,10.29-45.15,7.84-50.53-3.7-.26-.56-.48-1.11-.68-1.67-2.54-7.32.58-14.65,10.09-19,7.73-3.54,16-.88,27.74-6.7,9.86-4.89,10.47-14.22,14-22.5,2.84-6.68,8.31-8.87,13.43-8.32s10,3.91,11.46,8.28C194.23,207.11,186.5,231.89,163,243.57Z"/><path class="cls-8" d="M188.54,190c-1.85-5.56-9.17-9.47-15.7-8.08a24,24,0,0,1,5.85,3.07,15,15,0,0,1,4.43,5.25,26.11,26.11,0,0,1,2.49,15.21,29.31,29.31,0,0,1-4.45,12.08,42.69,42.69,0,0,1-8.74,9.65,71,71,0,0,1-11.42,7.7,61.7,61.7,0,0,1-14.07,5.73,38.44,38.44,0,0,1-14.79,1.07,31.55,31.55,0,0,1-7.27-1.91A14.77,14.77,0,0,1,115.53,227a13.21,13.21,0,0,1,.35-3.91c-5.17,4.66-6.16,10.81-3.37,16.81,5.38,11.54,29.87,14,50.53,3.7C186.5,231.89,194.23,207.11,188.54,190Z"/><path class="cls-9" d="M187.26,190.14c-.64.79.18,3.19.27,4.22a38.33,38.33,0,0,1,.16,4.42,42.09,42.09,0,0,1-1.2,9,45.33,45.33,0,0,1-7.53,16c-6.88,9.34-17.05,16-28.05,19.69-7,2.37-14.72,3.57-21.94,1.78-3.66-.92-7.1-2.57-10.69-3.74a2.66,2.66,0,0,0-1.82-.13c-2.51,1,2.85,3.62,3.56,4,12.77,6.8,30.33,3.25,42.6-2.88a48.71,48.71,0,0,0,21-19.94A45,45,0,0,0,189,205.82a40.53,40.53,0,0,0,.08-8.24C188.84,195.81,188.71,191.29,187.26,190.14Z"/><path class="cls-9" d="M114.74,230.68a1.6,1.6,0,0,0-.61-1c-.67-.38-1.15.41-1.38.92a3.38,3.38,0,0,0-.24,2.32,1.52,1.52,0,0,0,.21.57c1,1.48,2.14-.76,2.17-1.66A3.71,3.71,0,0,0,114.74,230.68Z"/><path class="cls-9" d="M181.38,190c-.06-.2-.38-.16-.33.05a38.59,38.59,0,0,1,1.11,9.63,36.58,36.58,0,0,1-1.53,9.58,42.7,42.7,0,0,1-9.34,16.64A49.72,49.72,0,0,1,156,237.24c-6.25,3-13.24,5.19-20.24,5.1a27.79,27.79,0,0,1-10.6-2.17,25.07,25.07,0,0,1-8.4-6c-.27-.29-.73.08-.48.39,3.89,4.88,10.15,7.47,16.2,8.24,7.31.93,14.89-.7,21.6-3.58,12-5.15,22.43-14.79,26.51-27.4A41.44,41.44,0,0,0,182.54,201,33.2,33.2,0,0,0,181.38,190Z"/><path class="cls-9" d="M128.44,218.63a7.14,7.14,0,0,0-2.37.47,17.31,17.31,0,0,0-2.32.83,30.07,30.07,0,0,0-4.2,2.22,15.42,15.42,0,0,0-3.16,2.59,10.2,10.2,0,0,0-2,3.39c-.08.22.27.37.36.16a13.56,13.56,0,0,1,5.46-5.57,31,31,0,0,1,3.75-1.95c.77-.35,1.55-.69,2.34-1a14.36,14.36,0,0,0,2.21-.84.15.15,0,0,0,.06-.22A.13.13,0,0,0,128.44,218.63Z"/><path class="cls-17" d="M172.48,189.11a56.11,56.11,0,0,1-.78,7.09,38,38,0,0,1-2.09,6.84,36.41,36.41,0,0,1-7.76,11.83,37.4,37.4,0,0,1-12.07,8.07c-4.7,2-9.71,2.77-14.74,3.48a72,72,0,0,0-8.38,1.47,25.27,25.27,0,0,0-7.52,3.3c-.4.27.08.86.48.59,8.86-5.84,20.15-4.22,29.81-7.67a37.55,37.55,0,0,0,21-19.26,36.67,36.67,0,0,0,2.57-7.7,29.23,29.23,0,0,0,.78-8.07C173.73,188.34,172.53,188.38,172.48,189.11Z"/><path class="cls-10" d="M172.24,186.1c.23-.26.51-.5.4-.81a.72.72,0,0,0-.5-.36,5.31,5.31,0,0,0-6,1.65,12.41,12.41,0,0,0-1.87,4.41c-1.36,5-2.58,10.09-5.46,14.34-5.66,8.35-16.64,12.14-26.27,13l-.66.06c-2.12.16-4.26.15-6.35.5a10.57,10.57,0,0,0-5.71,2.61A7.37,7.37,0,0,0,126.18,234,4.9,4.9,0,0,0,129,232.6c.69-.76,1-1.87,1.76-2.56,1.15-1,2,0,3.29.1a2.18,2.18,0,0,0,1.7-.53c.5-.48.86-1.35,1.54-1.23a1.47,1.47,0,0,1,.74.56,8.43,8.43,0,0,0,1.48,1.32,1.75,1.75,0,0,0,.72.33,1.5,1.5,0,0,0,1.42-1,4.47,4.47,0,0,0,0-2.89c-.29-.94-.73-1.83-1-2.78a2,2,0,0,1,0-1.4,1.54,1.54,0,0,1,1.74-.7,4,4,0,0,1,1.73,1,26,26,0,0,1,2.47,2.45,8.54,8.54,0,0,0,2.47,2.32,2.47,2.47,0,0,0,3.33-1.08c.53-.91.26-2.08,1.21-2.73,1.29-.88,2.07-.4,2.92.56,1,1.17,3.29,4.39,5,2.61,1.28-1.31.62-3.5.08-5a18.13,18.13,0,0,0-1.28-2.8,2,2,0,0,1,1.08-.85c1-.34,1.67.64,2.51,1.12a1.47,1.47,0,0,0,1.72,0,1.62,1.62,0,0,0,.18-1.63,9,9,0,0,0-1.6-2.89,18,18,0,0,0-3.2-3.21,2,2,0,0,1-.72-.82,1.18,1.18,0,0,1,.59-1.33,2.62,2.62,0,0,1,1.53-.26,11.31,11.31,0,0,1,5,2.09c.75.48,6.59,4,6.35,1.23-.1-1.16-1.67-2.39-2.46-3.11s-2.41-1.83-2-3a1.1,1.1,0,0,1,1-.6,3.5,3.5,0,0,0,1.2-.18,1.6,1.6,0,0,0,.71-1.81c-.33-1.41-2.29-2.29-1.54-3.85.54-1.1,1.52-1.16,2.57-.93a3.72,3.72,0,0,0,2.54-.3c.72-.41,1.41-1.45.62-2.16a11.34,11.34,0,0,0-1.35-.79c-.43-.3-.73-.94-.4-1.34.12-.15.3-.24.4-.4a.71.71,0,0,0-.27-.9,2.07,2.07,0,0,0-1-.26l-5.33-.48a1,1,0,0,1-1-.51.81.81,0,0,1,.11-.59,4.07,4.07,0,0,1,3.19-1.87c1.27-.18,2.58-.09,3.82-.39a.9.9,0,0,0,.44-.21.68.68,0,0,0,0-.7,2,2,0,0,0-1.8-1,3.29,3.29,0,0,1-.83-.07.67.67,0,0,1-.51-.59A.9.9,0,0,1,172.24,186.1Z"/><path class="cls-16" d="M150.09,222.55a2.53,2.53,0,0,1-.46,1.24,1.87,1.87,0,0,1-2.35.18,7.93,7.93,0,0,1-1.78-1.83,5.27,5.27,0,0,0-3.41-2.12,3.32,3.32,0,0,0-2.74,1.14,3.23,3.23,0,0,0-.73,2.6c.14.77.54,1.49-.1,2.23-1.23.07-2.23-1.11-3.46-1.22a3.06,3.06,0,0,0-2.69,1.67,2.23,2.23,0,0,1-.62.81c-.66.43-1.5-.1-2.26-.34a3,3,0,0,0-2.91.69c-.4.38-.69.87-1.11,1.23a2.9,2.9,0,0,1-3.77-.33,4,4,0,0,1-.79-3.89,6.45,6.45,0,0,1,4.81-4.14,24.08,24.08,0,0,1,4.72-.49,47.78,47.78,0,0,0,5.32-.69,61.28,61.28,0,0,0,9.47-2.81,30.74,30.74,0,0,0,12.61-8.61c4.13-4.62,6.22-10.7,7.66-16.72a10.89,10.89,0,0,1,.89-2.67c.49-.88,1.05-1.65,2.12-1.63a.86.86,0,0,1,.62.18c.27.28,0,.76-.24,1.05a10.52,10.52,0,0,0-1.73,1.86,2.76,2.76,0,0,0,.32,3.09c.83,1,2.2,1.21,3.28,1.88a1.36,1.36,0,0,1,.74,1,1.12,1.12,0,0,1-.47.85,4.29,4.29,0,0,1-1.72.65,3.22,3.22,0,0,0-1.66.77c-.65.69-.24,1.72.08,2.48a4.41,4.41,0,0,1,.64,2.06.84.84,0,0,1-.32.6.93.93,0,0,1-.43.12c-.55,0-1-.29-1.53-.24a3,3,0,0,0-1.77.77c-1.84,1.9,2.5,3.47,2.82,5.12a.6.6,0,0,1-.09.52c-.2.21-.54.11-.79,0-.86-.4-1.66-.9-2.54-1.24a4.32,4.32,0,0,0-2.77-.24,2.33,2.33,0,0,0-1.7,2,3.51,3.51,0,0,0,1,2.15,4.55,4.55,0,0,1,1.2,2.08c.12.8-.45,1.76-1.26,1.7-.29,0-.59-.16-.86-.05a1,1,0,0,0-.47.56,5,5,0,0,0-.66,2.29,11.59,11.59,0,0,0,.37,1.75,1.83,1.83,0,0,1-.38,1.68c-.66.6-1.73.25-2.43-.3-1.29-1-1.94-2-3.75-1.62a2.4,2.4,0,0,0-1.68,1.24A3.82,3.82,0,0,0,150.09,222.55Z"/><path class="cls-14" d="M178.29,225.86a57.34,57.34,0,0,1-16.53,14.08,54.83,54.83,0,0,1-20.7,6.54,56.31,56.31,0,0,1-12.38-.08.22.22,0,0,0-.05.43,47.32,47.32,0,0,0,22.22-.88,52.46,52.46,0,0,0,19.78-10.21,42.54,42.54,0,0,0,8.44-9.32.48.48,0,1,0-.78-.56Z"/><path class="cls-10" d="M126.54,246.61c-.38-.56-1.22-.7-1.83-.91s-1.38-.48-2-.75c-1.37-.54-2.6-1.41-3.92-2-.22-.11-.44.21-.28.38a15,15,0,0,0,3.8,2.61,14.59,14.59,0,0,0,2,.94c.64.24,1.49.63,2.15.32a.35.35,0,0,0,.18-.46A.32.32,0,0,0,126.54,246.61Z"/><path class="cls-10" d="M114.41,239.34a11.88,11.88,0,0,1-.9-1.78,6.82,6.82,0,0,1-.36-2.24.21.21,0,1,0-.42,0,4.67,4.67,0,0,0,1.5,4.21C114.32,239.54,114.46,239.44,114.41,239.34Z"/><path class="cls-9" d="M148.37,234.12a63.78,63.78,0,0,1-11.46,2.23,41.86,41.86,0,0,1-11.76-.88c-1.09-.23-2.17-.52-3.24-.83s-2.2-.61-3.28-1a.09.09,0,1,0-.07.17h0c.91.43,1.81.86,2.76,1.2a29.55,29.55,0,0,0,2.88.84,37.75,37.75,0,0,0,5.89,1,42,42,0,0,0,12-.47,26.1,26.1,0,0,0,6.41-1.95C148.65,234.39,148.57,234.07,148.37,234.12Z"/><path class="cls-9" d="M126.86,222.41a10.4,10.4,0,0,0-3.09.87,22.48,22.48,0,0,0-3.13,1.5,18.43,18.43,0,0,0-5,4.09c-.07.07,0,.18.12.12a32.82,32.82,0,0,1,5.32-3.81,21.81,21.81,0,0,1,2.85-1.35c1-.4,2.1-.62,3.07-1.07a.19.19,0,0,0-.14-.35Z"/><path class="cls-16" d="M177.27,182.79c-.74-.84-2.35-.76-3.37-.65a13.83,13.83,0,0,0-4,1.32c-.19.08-.1.41.11.36a19.68,19.68,0,0,1,3.65-.58,9.9,9.9,0,0,1,1.72.07,4.31,4.31,0,0,0,1.6.12.4.4,0,0,0,.37-.43A.42.42,0,0,0,177.27,182.79Z"/><path class="cls-9" d="M178.79,195.2a76.08,76.08,0,0,1-1.14,8.89,31.44,31.44,0,0,1-2.68,7.78,40.58,40.58,0,0,1-10.26,12.66c-2.39,2-5,3.73-7.4,5.79a.41.41,0,0,0,0,.59.4.4,0,0,0,.44.11,24.65,24.65,0,0,0,7.42-4.59,42.71,42.71,0,0,0,6-6.1,37,37,0,0,0,7.15-14.61,52.62,52.62,0,0,0,1-10.47C179.29,194.94,178.82,194.88,178.79,195.2Z"/><path class="cls-9" d="M113.16,231c0-.07-.13-.06-.25.13a2,2,0,0,0-.26.72,2,2,0,0,0,.33,1.47.7.7,0,0,0,.28.26.32.32,0,0,0,.37,0,.4.4,0,0,0,0-.42,4.75,4.75,0,0,0-.31-.59,1.73,1.73,0,0,1-.16-1.14A.54.54,0,0,0,113.16,231Z"/><path class="cls-10" d="M119.68,221.34a7.58,7.58,0,0,0-1.68.91,15.07,15.07,0,0,0-1.72,1.14,11.65,11.65,0,0,0-2.77,2.92,15.12,15.12,0,0,0-2.05,7.36.12.12,0,0,0,.15.08.11.11,0,0,0,.08-.08,16,16,0,0,1,2.32-7,12.73,12.73,0,0,1,2.5-2.83,16.66,16.66,0,0,1,1.59-1.22,12.36,12.36,0,0,0,1.63-1.16S119.75,221.32,119.68,221.34Z"/><path class="cls-10" d="M175.23,184.86c-.68-.11-1.39-.08-2.1-.15-3.64-.37-5.56,1.11-7.35,4.17a33.64,33.64,0,0,0-2.31,5.63c-.77,2.13-1.65,4.22-2.53,6.31s-1.49,4.39-2.86,6.1a25,25,0,0,1-4.43,4.58,38.06,38.06,0,0,1-17.09,7.19c-3,.46-6,.55-9,1.07-2.39.43-5.65,1.51-6.72,3.93-.85,1.92-.11,4.2,1,5.88a14.17,14.17,0,0,0,7.41,5.38,22.39,22.39,0,0,0,20-2.93c3.63-2.61,6.38-6.24,9.7-9.22s7-5.19,10.58-7.64c4.13-2.82,9-6.22,10.63-11.13.92-2.74,2-5,1.9-8a14.45,14.45,0,0,0-2.4-7.64,10.17,10.17,0,0,0-3.22-3.21A3.39,3.39,0,0,0,175.23,184.86Z"/><path class="cls-13" d="M157.45,209.41a5.06,5.06,0,0,0-1.13,1.18,13.65,13.65,0,0,1-1.47,1.38c-1,.82-2,1.67-3,2.42a34.41,34.41,0,0,1-3.28,1.89,9.62,9.62,0,0,0-1.58.85c-.17.14-.55.5-.39.76s1.31.18,1.64.1a8.67,8.67,0,0,0,1.83-.84,25.15,25.15,0,0,0,2.54-1.53,13.08,13.08,0,0,0,3-2.7c.43-.55.81-1.16,1.21-1.74a4.05,4.05,0,0,0,.85-1.63.13.13,0,0,0-.11-.16A.14.14,0,0,0,157.45,209.41Z"/><path class="cls-13" d="M166,193.12a.28.28,0,0,0-.32-.07c-.61.33-.7,1.36-.81,2-.15.84-.29,1.67-.46,2.5a15.85,15.85,0,0,1-1.71,5c-.14.23.18.48.35.25a15.74,15.74,0,0,0,2.39-4.71,24.33,24.33,0,0,0,.61-2.52C166.19,194.93,166.53,193.66,166,193.12Z"/><path class="cls-13" d="M136.9,220.84c-1.29-.14-2.58,0-3.88-.06a15.85,15.85,0,0,0-3.82.46,31.47,31.47,0,0,0-3.66,1,5.36,5.36,0,0,0-2.92,1.79.36.36,0,0,0,.12.51.38.38,0,0,0,.33,0,43.24,43.24,0,0,1,6.71-1.93c1.16-.24,2.31-.46,3.45-.8s2.46-.44,3.68-.69a.16.16,0,0,0,0-.31Z"/><path class="cls-9" d="M184.63,186a3.42,3.42,0,0,0-1.09-.67c-.44-.17-.66.46-.26.67a2.67,2.67,0,0,1,.89.88c.18.28.62.66.89.26S184.91,186.28,184.63,186Z"/><g class="cls-15"><path class="cls-13" d="M159.24,223.7a20,20,0,0,0-2.76,1.69q-1.3.8-2.64,1.53a48,48,0,0,1-5.73,2.66,46.57,46.57,0,0,1-12.35,3.06c-.28,0-.21.45.07.43a45.31,45.31,0,0,0,12.65-2.66,41.94,41.94,0,0,0,5.93-2.75c.92-.52,1.82-1.07,2.7-1.67a10.54,10.54,0,0,0,2.43-1.93C159.7,223.86,159.46,223.61,159.24,223.7Z"/></g><path class="cls-18" d="M99.64,160l-.22-.09a.07.07,0,0,0-.1,0,.07.07,0,0,0,0,.09l.21.13C99.68,160.19,99.76,160,99.64,160Z"/><path class="cls-19" d="M139.81,194.05a17.08,17.08,0,0,0-1.48-2.37c-.54-.83-1.09-1.65-1.63-2.49l-3.15-4.86a.21.21,0,0,0-.28-.08.21.21,0,0,0-.07.28,35.94,35.94,0,0,0,3,5.39,17.89,17.89,0,0,0,3.45,4.34C139.74,194.36,139.86,194.17,139.81,194.05Z"/></svg>