<svg xmlns="http://www.w3.org/2000/svg" xmlns:xlink="http://www.w3.org/1999/xlink" viewBox="0 0 370 330"><defs><style>.cls-1,.cls-4{fill:none;}.cls-2{isolation:isolate;}.cls-3,.cls-5{fill:#812e1e;}.cls-4{stroke:#fff;stroke-linecap:round;stroke-miterlimit:10;stroke-width:4.16px;opacity:0.16;}.cls-10,.cls-12,.cls-5,.cls-8,.cls-9{mix-blend-mode:multiply;}.cls-5{opacity:0.55;}.cls-6{clip-path:url(#clip-path);}.cls-7,.cls-8{fill:#f6c277;}.cls-9{opacity:0.48;}.cls-10,.cls-12{opacity:0.4;}.cls-11{fill:#f9b938;}.cls-12{fill:#ff7b7b;}</style><clipPath id="clip-path"><polygon class="cls-1" points="72.67 246.52 84.06 274.9 134.87 252.13 124.3 225.81 72.67 246.52"/></clipPath></defs><g class="cls-2"><g id="Layer_56" data-name="Layer 56"><rect class="cls-3" x="160.91" y="133.05" width="78.25" height="158.46" rx="35.86" transform="translate(322.55 -52.42) rotate(68.14)"/><path class="cls-4" d="M263.27,180.75A30.79,30.79,0,0,0,242,166.34a35,35,0,0,0-19.42,2.11l-52.29,21"/><path class="cls-5" d="M273.5,212.06a39,39,0,0,1-16.05,12L183,253.9a39.14,39.14,0,0,1-50.89-21.75h0a39,39,0,0,1,.07-29.28,39.12,39.12,0,0,0-5.69,38.92h0a39.13,39.13,0,0,0,50.88,21.74l74.45-29.87A39,39,0,0,0,273.5,212.06Z"/><g class="cls-6"><rect class="cls-7" x="148.28" y="142.81" width="20.54" height="171.18" rx="9.41" transform="translate(311.47 -3.8) rotate(68.14)"/><path class="cls-8" d="M238,196.53a9,9,0,0,0-.41-.89,10.27,10.27,0,0,1-6,12.43l-139.8,56.1a10.27,10.27,0,0,1-12.95-4.82c.1.31.2.62.32.93A10.27,10.27,0,0,0,92.47,266l139.8-56.1A10.26,10.26,0,0,0,238,196.53Z"/></g><g class="cls-9"><rect x="235.41" y="167.28" width="2.11" height="6.85" rx="0.97" transform="translate(42.22 388.25) rotate(-84.06)"/><path class="cls-10" d="M239.35,170a.94.94,0,0,1,.05.44,1.06,1.06,0,0,1-1.16.94l-4.71-.49a1.1,1.1,0,0,1-.42-.14,1.06,1.06,0,0,0,.89.72l4.71.49a1.05,1.05,0,0,0,.64-2Z"/><rect x="239.24" y="179.45" width="2.11" height="6.85" rx="0.97" transform="translate(-2.52 3.37) rotate(-0.8)"/><path class="cls-10" d="M241.29,185.66a1,1,0,0,1-.43.1,1.06,1.06,0,0,1-1.07-1l-.06-4.74a1,1,0,0,1,.08-.43,1,1,0,0,0-.6,1l.06,4.74a1.05,1.05,0,0,0,1.07,1A1,1,0,0,0,241.29,185.66Z"/><rect x="229.43" y="194.09" width="2.11" height="6.85" rx="0.97" transform="translate(0.94 396.11) rotate(-81.46)"/><path class="cls-10" d="M233.4,197a1.08,1.08,0,0,1,0,.44,1.06,1.06,0,0,1-1.2.88l-4.69-.7a1,1,0,0,1-.41-.16,1,1,0,0,0,.85.76l4.69.7a1.05,1.05,0,0,0,1.2-.88A1.07,1.07,0,0,0,233.4,197Z"/><rect x="240" y="200.43" width="6.85" height="2.11" rx="0.97" transform="translate(-63.19 125.06) rotate(-25.62)"/><path class="cls-10" d="M241.31,203.56a1.06,1.06,0,0,1-.27-.35,1,1,0,0,1,.5-1.4l4.27-2.05a1,1,0,0,1,.43-.1,1.06,1.06,0,0,0-1.13-.15l-4.28,2.05a1.06,1.06,0,0,0-.49,1.41A1,1,0,0,0,241.31,203.56Z"/><rect x="269.04" y="206.82" width="2.11" height="6.85" rx="0.97" transform="matrix(0.53, -0.85, 0.85, 0.53, -51.45, 327.55)"/><path class="cls-10" d="M267.21,209.57a1,1,0,0,1,1.6-.75l4,2.51a1,1,0,0,1,.31.31,1,1,0,0,0-.48-1l-4-2.52a1.05,1.05,0,0,0-1.43,1.48Z"/><rect x="261.24" y="216.27" width="2.11" height="6.85" rx="0.97" transform="translate(-57.39 97.77) rotate(-19.07)"/><path class="cls-10" d="M260.47,217.36a1.05,1.05,0,0,1,1.72.42l1.55,4.48a1.13,1.13,0,0,1,.05.44,1.05,1.05,0,0,0,.27-1.11l-1.55-4.48a1.05,1.05,0,0,0-2,.25Z"/><rect x="268.65" y="179.57" width="2.11" height="6.85" rx="0.97" transform="translate(-54.62 215.31) rotate(-39.85)"/><path class="cls-10" d="M267.17,181.46a1,1,0,0,1,.27-.35,1.06,1.06,0,0,1,1.48.13l3,3.64a.91.91,0,0,1,.2.39,1,1,0,0,0-.13-1.13l-3-3.64a1.05,1.05,0,0,0-1.82,1Z"/><rect x="244.02" y="230.58" width="6.85" height="2.11" rx="0.97" transform="translate(-18.37 441.94) rotate(-81.46)"/><path class="cls-10" d="M246.91,228.72a1.08,1.08,0,0,1,.44,0,1.06,1.06,0,0,1,.89,1.2l-.71,4.69a1,1,0,0,1-.15.41,1,1,0,0,0,.75-.85l.71-4.69a1.06,1.06,0,0,0-.89-1.2A1.07,1.07,0,0,0,246.91,228.72Z"/><rect x="238.38" y="219.15" width="6.85" height="2.11" rx="0.97" transform="translate(-76.79 294.07) rotate(-55.38)"/><path class="cls-10" d="M242.6,217.35a1,1,0,0,1,.41.17,1,1,0,0,1,.27,1.46l-2.69,3.9a1.08,1.08,0,0,1-.33.31,1.06,1.06,0,0,0,1.06-.44l2.69-3.9a1.05,1.05,0,0,0-1.41-1.5Z"/><rect x="250.87" y="187.2" width="6.85" height="2.11" rx="0.97" transform="translate(-21.02 32.35) rotate(-6.99)"/><path class="cls-10" d="M251.63,189.55a1,1,0,0,1-.15-.42,1.05,1.05,0,0,1,.92-1.17l4.7-.58a1.08,1.08,0,0,1,.44,0,1.06,1.06,0,0,0-1-.5l-4.7.58a1.05,1.05,0,0,0-.18,2.05Z"/><rect x="265.04" y="196.27" width="6.85" height="2.11" rx="0.97" transform="translate(-22.02 34.14) rotate(-6.99)"/><path class="cls-10" d="M265.8,198.62a1.23,1.23,0,0,1-.14-.42,1,1,0,0,1,.91-1.17l4.71-.58a1.08,1.08,0,0,1,.44,0,1.06,1.06,0,0,0-1-.5l-4.7.58a1.05,1.05,0,0,0-.19,2.05Z"/><rect x="252.22" y="200.15" width="2.11" height="6.85" rx="0.97" transform="translate(-22.89 32.34) rotate(-6.99)"/><path class="cls-10" d="M252,200.91a1.23,1.23,0,0,1,.42-.14,1,1,0,0,1,1.17.91l.58,4.71a1.08,1.08,0,0,1,0,.44,1.06,1.06,0,0,0,.5-1l-.58-4.7a1.05,1.05,0,0,0-2.05-.19Z"/><rect x="251.27" y="163.65" width="2.11" height="6.85" rx="0.97" transform="translate(-18.46 31.95) rotate(-6.99)"/><path class="cls-10" d="M251,164.4a1.23,1.23,0,0,1,.42-.14,1.06,1.06,0,0,1,1.18.92l.57,4.7a1.08,1.08,0,0,1,0,.44,1.06,1.06,0,0,0,.5-1l-.58-4.7a1,1,0,0,0-1.17-.92A1.06,1.06,0,0,0,251,164.4Z"/><rect x="256.91" y="175.45" width="6.85" height="2.11" rx="0.97" transform="translate(-52.63 207.8) rotate(-39.85)"/><path class="cls-10" d="M261.87,174a1.17,1.17,0,0,1,.35.28,1,1,0,0,1-.14,1.48l-3.64,3a1,1,0,0,1-.39.2,1,1,0,0,0,1.13-.14l3.64-3a1.05,1.05,0,0,0-.95-1.83Z"/><rect x="230.19" y="158.77" width="6.85" height="2.11" rx="0.97" transform="translate(-48.15 186.81) rotate(-39.85)"/><path class="cls-10" d="M235.15,157.29a1.31,1.31,0,0,1,.35.27,1.06,1.06,0,0,1-.14,1.49l-3.64,3a1.2,1.2,0,0,1-.39.2,1.06,1.06,0,0,0,1.14-.14l3.63-3a1,1,0,0,0,.14-1.48A1.07,1.07,0,0,0,235.15,157.29Z"/><rect x="193.66" y="194.57" width="2.11" height="6.85" rx="0.97" transform="translate(-82.58 183.14) rotate(-42.41)"/><path class="cls-10" d="M197.31,199.42a1,1,0,0,1-.25.36,1.06,1.06,0,0,1-1.49-.07l-3.2-3.5a1.11,1.11,0,0,1-.22-.38,1.05,1.05,0,0,0,.19,1.13l3.2,3.5a1,1,0,0,0,1.49.06A1,1,0,0,0,197.31,199.42Z"/><rect x="201.64" y="182.94" width="2.11" height="6.85" rx="0.97" transform="translate(-72.65 185.47) rotate(-42.41)"/><path class="cls-10" d="M205.29,187.78a1,1,0,0,1-.25.37,1.06,1.06,0,0,1-1.49-.07l-3.2-3.5a1.34,1.34,0,0,1-.22-.38,1,1,0,0,0,.19,1.12l3.2,3.5a1,1,0,0,0,1.77-1Z"/><rect x="185.11" y="175.87" width="2.11" height="6.85" rx="0.97" transform="translate(-2.48 2.61) rotate(-0.8)"/><path class="cls-10" d="M187.16,182.08a1,1,0,0,1-1.5-.93l-.07-4.74a1.08,1.08,0,0,1,.09-.44,1.07,1.07,0,0,0-.61,1l.07,4.74a1.05,1.05,0,0,0,1.07,1A1.07,1.07,0,0,0,187.16,182.08Z"/><rect x="195.12" y="211.02" width="2.11" height="6.85" rx="0.97" transform="translate(-45.02 376.59) rotate(-81.46)"/><path class="cls-10" d="M199.08,213.91a.93.93,0,0,1,0,.44,1,1,0,0,1-1.19.89l-4.69-.71a1,1,0,0,1-.41-.16,1,1,0,0,0,.85.76l4.69.7a1,1,0,0,0,.72-1.92Z"/><rect x="178.62" y="199.4" width="2.11" height="6.85" rx="0.97" transform="translate(-88.23 162.23) rotate(-39.85)"/><path class="cls-10" d="M182.2,204.37a.89.89,0,0,1-.27.34,1,1,0,0,1-1.48-.13l-3-3.64a1,1,0,0,1-.2-.39,1,1,0,0,0,.13,1.13l3,3.64a1,1,0,0,0,1.82-.95Z"/><rect x="135.78" y="223.97" width="2.11" height="6.85" rx="0.97" transform="translate(-113.93 140.49) rotate(-39.85)"/><path class="cls-10" d="M139.36,228.93a1,1,0,0,1-.27.35,1,1,0,0,1-1.48-.13l-3-3.64a.91.91,0,0,1-.2-.39,1,1,0,0,0,.13,1.13l3,3.64A1,1,0,0,0,139,230,1.06,1.06,0,0,0,139.36,228.93Z"/><rect x="229.1" y="222.85" width="2.11" height="6.85" rx="0.97" transform="translate(-83.78 301.22) rotate(-57.94)"/><path class="cls-10" d="M227.27,225.59a.91.91,0,0,1,.14-.41,1.07,1.07,0,0,1,1.46-.34l4,2.52a1.05,1.05,0,0,1,.32.31,1,1,0,0,0-.48-1l-4-2.52a1.05,1.05,0,0,0-1.45.33A1,1,0,0,0,227.27,225.59Z"/><rect x="223.84" y="233.39" width="2.11" height="6.85" rx="0.97" transform="translate(-65.04 86.49) rotate(-19.07)"/><path class="cls-10" d="M223.07,234.48a1.05,1.05,0,0,1,1.72.42l1.55,4.48a1.09,1.09,0,0,1,0,.44,1.06,1.06,0,0,0,.27-1.11l-1.55-4.48a1.05,1.05,0,0,0-2,.25Z"/><rect x="221.41" y="172.18" width="2.11" height="6.85" rx="0.97" transform="translate(-60.85 183.33) rotate(-39.85)"/><path class="cls-10" d="M219.93,174.06a1.31,1.31,0,0,1,.27-.35,1.06,1.06,0,0,1,1.49.14l3,3.64a1.06,1.06,0,0,1,.21.39,1.06,1.06,0,0,0-.14-1.14l-3-3.63a1,1,0,0,0-1.48-.14A1.07,1.07,0,0,0,219.93,174.06Z"/><rect x="209.69" y="231.71" width="6.85" height="2.11" rx="0.97" transform="translate(-102.41 226.48) rotate(-46.38)"/><path class="cls-10" d="M214.35,230.08a1,1,0,0,1,.38.22,1.06,1.06,0,0,1,0,1.49l-3.27,3.44a1,1,0,0,1-.37.24,1,1,0,0,0,1.11-.26l3.27-3.43a1.06,1.06,0,0,0,0-1.49A1,1,0,0,0,214.35,230.08Z"/><rect x="165.72" y="211.05" width="2.11" height="6.85" rx="0.97" transform="translate(-103.51 241.97) rotate(-57.94)"/><path class="cls-10" d="M169.66,215.15a1.06,1.06,0,0,1-1.6.75l-4-2.52a1,1,0,0,1-.31-.31,1.05,1.05,0,0,0,.48,1l4,2.51a1.05,1.05,0,0,0,1.45-.33A1.07,1.07,0,0,0,169.66,215.15Z"/><rect x="195.89" y="234.09" width="6.85" height="2.11" rx="0.97" transform="translate(-107.43 265.56) rotate(-55.38)"/><path class="cls-10" d="M200.12,232.29a1,1,0,0,1,.4.17,1,1,0,0,1,.27,1.46l-2.69,3.91a1.3,1.3,0,0,1-.32.3,1.05,1.05,0,0,0,1.05-.44l2.7-3.9a1.06,1.06,0,0,0-.27-1.47A1,1,0,0,0,200.12,232.29Z"/><rect x="132.29" y="212.18" width="6.85" height="2.11" rx="0.97" transform="translate(-116.87 203.76) rotate(-55.38)"/><path class="cls-10" d="M136.52,210.38a1.12,1.12,0,0,1,.41.17,1.07,1.07,0,0,1,.26,1.47l-2.69,3.9a1.3,1.3,0,0,1-.32.3,1.05,1.05,0,0,0,1-.44l2.7-3.9a1.05,1.05,0,0,0-1.41-1.5Z"/><rect x="212.01" y="200.69" width="6.85" height="2.11" rx="0.97" transform="translate(-22.95 27.72) rotate(-6.99)"/><path class="cls-10" d="M212.77,203a1.05,1.05,0,0,1,.77-1.6l4.7-.57a1.12,1.12,0,0,1,.45,0,1.07,1.07,0,0,0-1-.5L213,201a1,1,0,0,0-.91,1.17A1.06,1.06,0,0,0,212.77,203Z"/><rect x="204.53" y="168.91" width="6.85" height="2.11" rx="0.97" transform="translate(-19.14 26.57) rotate(-6.99)"/><path class="cls-10" d="M205.29,171.26a1.05,1.05,0,0,1,.77-1.6l4.7-.57a1.07,1.07,0,0,1,.44,0,1.05,1.05,0,0,0-1-.5l-4.71.58a1,1,0,0,0-.92,1.17A1.07,1.07,0,0,0,205.29,171.26Z"/><rect x="226.01" y="211.94" width="6.85" height="2.11" rx="0.97" transform="translate(-24.22 29.5) rotate(-6.99)"/><path class="cls-10" d="M226.77,214.28a1,1,0,0,1-.15-.42,1.05,1.05,0,0,1,.92-1.17l4.7-.58a1.05,1.05,0,0,1,.44,0,1,1,0,0,0-1-.5l-4.71.58a1.05,1.05,0,0,0-.18,2.05Z"/><rect x="212.64" y="211.82" width="2.11" height="6.85" rx="0.97" transform="translate(-24.61 27.61) rotate(-6.99)"/><path class="cls-10" d="M212.4,212.58a1,1,0,0,1,.41-.14,1.06,1.06,0,0,1,1.18.91l.58,4.71a1.09,1.09,0,0,1,0,.44,1,1,0,0,0,.5-1l-.57-4.7a1.05,1.05,0,0,0-2-.19Z"/><rect x="162.56" y="260.38" width="2.11" height="6.85" rx="0.97" transform="translate(-30.89 21.88) rotate(-6.99)"/><path class="cls-10" d="M162.32,261.14a1,1,0,0,1,.42-.15,1.05,1.05,0,0,1,1.17.92l.58,4.7a1.07,1.07,0,0,1-.05.44,1,1,0,0,0,.5-1l-.57-4.71a1.06,1.06,0,0,0-1.18-.92A1,1,0,0,0,162.32,261.14Z"/><rect x="217.32" y="187.12" width="6.85" height="2.11" rx="0.97" transform="translate(-69.3 185.14) rotate(-39.85)"/><path class="cls-10" d="M222.28,185.64a1.31,1.31,0,0,1,.35.27,1.07,1.07,0,0,1-.13,1.49l-3.64,3a1.2,1.2,0,0,1-.39.2,1,1,0,0,0,1.13-.14l3.64-3a1,1,0,0,0,.13-1.48A1.06,1.06,0,0,0,222.28,185.64Z"/><rect x="175.91" y="252.45" width="2.11" height="6.85" rx="0.97" transform="translate(-102.36 392.88) rotate(-81.46)"/><path class="cls-10" d="M179.88,255.34a1.12,1.12,0,0,1,0,.45,1.06,1.06,0,0,1-1.2.88L174,256a1.13,1.13,0,0,1-.41-.16,1.06,1.06,0,0,0,.85.76l4.69.7a1.05,1.05,0,0,0,1.2-.89A1.07,1.07,0,0,0,179.88,255.34Z"/><rect x="148.13" y="259.39" width="2.11" height="6.85" rx="0.97" transform="matrix(0.15, -0.99, 0.99, 0.15, -132.87, 371.31)"/><path class="cls-10" d="M152.09,262.28a.93.93,0,0,1,0,.44,1,1,0,0,1-1.2.88l-4.68-.7a1,1,0,0,1-.42-.16,1.05,1.05,0,0,0,.86.76l4.69.7a1.06,1.06,0,0,0,1.2-.88A1,1,0,0,0,152.09,262.28Z"/><rect x="179.38" y="243.73" width="6.85" height="2.11" rx="0.97" transform="translate(-87.87 103.1) rotate(-25.62)"/><path class="cls-10" d="M180.69,246.86a1.06,1.06,0,0,1-.27-.35,1,1,0,0,1,.5-1.4l4.27-2.05a1.14,1.14,0,0,1,.43-.11,1.05,1.05,0,0,0-1.13-.14l-4.28,2.05a1.05,1.05,0,0,0-.49,1.4A1,1,0,0,0,180.69,246.86Z"/><rect x="188.66" y="253.71" width="6.85" height="2.11" rx="0.97" transform="translate(-91.27 108.09) rotate(-25.62)"/><path class="cls-10" d="M190,256.84a.94.94,0,0,1-.27-.35,1,1,0,0,1,.49-1.4l4.27-2.05a1,1,0,0,1,.43-.1,1,1,0,0,0-1.13-.15l-4.27,2.05a1,1,0,0,0-.5,1.4A1.06,1.06,0,0,0,190,256.84Z"/><rect x="204.27" y="245.34" width="6.85" height="2.11" rx="0.97" transform="translate(-86.12 114.03) rotate(-25.62)"/><path class="cls-10" d="M205.58,248.47a1,1,0,0,1-.27-.35,1.06,1.06,0,0,1,.49-1.41l4.28-2.05a1.28,1.28,0,0,1,.43-.1,1,1,0,0,0-1.14-.14l-4.27,2.05a1,1,0,0,0-.5,1.4A1.06,1.06,0,0,0,205.58,248.47Z"/><rect x="163.19" y="239.25" width="6.85" height="2.11" rx="0.97" transform="translate(-28.01 22.06) rotate(-6.99)"/><path class="cls-10" d="M164,241.6a1.06,1.06,0,0,1-.15-.42,1,1,0,0,1,.92-1.17l4.71-.58a1.08,1.08,0,0,1,.44,0,1.07,1.07,0,0,0-1-.5l-4.71.58a1.05,1.05,0,0,0-.18,2Z"/><rect x="159.75" y="249.06" width="6.85" height="2.11" rx="0.97" transform="translate(-29.23 21.72) rotate(-6.99)"/><path class="cls-10" d="M160.51,251.41a1,1,0,0,1-.15-.42,1,1,0,0,1,.92-1.17l4.71-.58a1.08,1.08,0,0,1,.44,0,1.07,1.07,0,0,0-1-.5l-4.71.58a1.05,1.05,0,0,0-.18,2Z"/><rect x="140.5" y="248.36" width="6.85" height="2.11" rx="0.97" transform="translate(-29.28 19.37) rotate(-6.99)"/><path class="cls-10" d="M141.25,250.7a1.11,1.11,0,0,1-.14-.41,1.06,1.06,0,0,1,.92-1.18l4.7-.57a.93.93,0,0,1,.44,0,1,1,0,0,0-1-.5l-4.7.57a1.06,1.06,0,0,0-.92,1.18A1,1,0,0,0,141.25,250.7Z"/><rect x="168.5" y="225.68" width="6.85" height="2.11" rx="0.97" transform="translate(-105.35 162.82) rotate(-39.85)"/><path class="cls-10" d="M173.46,224.21a1,1,0,0,1,.35.27,1.06,1.06,0,0,1-.13,1.48L170,229a1,1,0,0,1-.39.2,1,1,0,0,0,1.13-.14l3.64-3a1.05,1.05,0,0,0,.13-1.49A1,1,0,0,0,173.46,224.21Z"/><rect x="147.44" y="236.24" width="6.85" height="2.11" rx="0.97" transform="translate(-117.01 151.78) rotate(-39.85)"/><path class="cls-10" d="M152.4,234.76a1.31,1.31,0,0,1,.35.27,1.05,1.05,0,0,1-.13,1.49l-3.64,3a1.2,1.2,0,0,1-.39.2,1,1,0,0,0,1.13-.14l3.64-3a1.06,1.06,0,0,0-1-1.83Z"/><rect x="146.7" y="223.89" width="6.85" height="2.11" rx="0.97" transform="translate(-109.27 148.44) rotate(-39.85)"/><path class="cls-10" d="M151.66,222.41a1.31,1.31,0,0,1,.35.27,1.05,1.05,0,0,1-.13,1.49l-3.64,3a1.06,1.06,0,0,1-.39.21,1,1,0,0,0,1.13-.14l3.64-3a1,1,0,0,0,.13-1.48A1.06,1.06,0,0,0,151.66,222.41Z"/><rect x="187.4" y="219.84" width="2.11" height="6.85" rx="0.97" transform="translate(-3.09 2.64) rotate(-0.8)"/><path class="cls-10" d="M187.45,220.48a1.05,1.05,0,0,1,1.5.94l.07,4.74a1,1,0,0,1-.09.43,1.07,1.07,0,0,0,.61-1l-.07-4.74a1.05,1.05,0,0,0-2-.4Z"/><rect x="157.13" y="187.26" width="2.11" height="6.85" rx="0.97" transform="translate(-53.88 318.8) rotate(-81.46)"/><path class="cls-10" d="M161.1,190.16a1.26,1.26,0,0,1,0,.44,1.06,1.06,0,0,1-1.2.88l-4.69-.7a1,1,0,0,1-.41-.16,1.06,1.06,0,0,0,.85.76l4.69.7a1,1,0,0,0,.73-1.92Z"/><rect x="155.53" y="201.8" width="6.85" height="2.11" rx="0.97" transform="translate(-98.29 218.4) rotate(-55.38)"/><path class="cls-10" d="M159.76,200a1,1,0,0,1,.4.17,1.06,1.06,0,0,1,.27,1.47l-2.69,3.9a1.3,1.3,0,0,1-.32.3,1.05,1.05,0,0,0,1.05-.44l2.7-3.9a1.05,1.05,0,0,0-1.41-1.5Z"/><rect x="143.96" y="198.28" width="2.11" height="6.85" rx="0.97" transform="translate(-2.79 2.04) rotate(-0.8)"/><path class="cls-10" d="M144,198.91a1,1,0,0,1,.43-.1,1.06,1.06,0,0,1,1.07,1l.06,4.74a1,1,0,0,1-.09.43,1,1,0,0,0,.61-1l-.07-4.74a1,1,0,0,0-2-.41Z"/></g><rect class="cls-11" x="234.72" y="166.59" width="2.11" height="6.85" rx="0.97" transform="translate(42.29 386.94) rotate(-84.06)"/><path class="cls-12" d="M238.66,169.35a1.24,1.24,0,0,1,.05.44,1.06,1.06,0,0,1-1.16.93l-4.72-.49a1,1,0,0,1-.42-.13,1.05,1.05,0,0,0,.89.71l4.72.49a1,1,0,0,0,.64-2Z"/><rect class="cls-11" x="238.55" y="178.75" width="2.11" height="6.85" rx="0.97" transform="translate(-2.52 3.36) rotate(-0.8)"/><path class="cls-12" d="M240.6,185a.94.94,0,0,1-.43.1,1,1,0,0,1-1.07-1l-.07-4.74a1.08,1.08,0,0,1,.09-.44,1.07,1.07,0,0,0-.61,1l.07,4.74a1.05,1.05,0,0,0,1.07,1A1.07,1.07,0,0,0,240.6,185Z"/><rect class="cls-11" x="228.74" y="193.39" width="2.11" height="6.85" rx="0.97" transform="translate(1.03 394.83) rotate(-81.46)"/><path class="cls-12" d="M232.7,196.28a1,1,0,0,1,0,.45,1,1,0,0,1-1.2.88l-4.68-.7a1.18,1.18,0,0,1-.42-.16,1.07,1.07,0,0,0,.86.76l4.69.7a1.05,1.05,0,0,0,.72-1.93Z"/><rect class="cls-11" x="239.31" y="199.74" width="6.85" height="2.11" rx="0.97" transform="translate(-62.96 124.69) rotate(-25.62)"/><path class="cls-12" d="M240.62,202.87a.94.94,0,0,1-.27-.35,1.07,1.07,0,0,1,.49-1.41l4.28-2a1.09,1.09,0,0,1,.43-.11,1.07,1.07,0,0,0-1.14-.14l-4.27,2.05a1.05,1.05,0,0,0,.48,2Z"/><rect class="cls-11" x="268.35" y="206.12" width="2.11" height="6.85" rx="0.97" transform="translate(-51.19 326.64) rotate(-57.94)"/><path class="cls-12" d="M266.51,208.87a1.07,1.07,0,0,1,.15-.41,1.06,1.06,0,0,1,1.46-.34l4,2.52a1.05,1.05,0,0,1,.32.31,1.07,1.07,0,0,0-.48-1l-4-2.51a1.05,1.05,0,0,0-1.44,1.47Z"/><rect class="cls-11" x="260.55" y="215.58" width="2.11" height="6.85" rx="0.97" transform="translate(-57.2 97.5) rotate(-19.07)"/><path class="cls-12" d="M259.78,216.67a1,1,0,0,1,.37-.23,1.05,1.05,0,0,1,1.34.65l1.55,4.48a.94.94,0,0,1,0,.44,1,1,0,0,0,.28-1.11l-1.55-4.48a1.05,1.05,0,0,0-2,.25Z"/><rect class="cls-11" x="267.95" y="178.88" width="2.11" height="6.85" rx="0.97" transform="matrix(0.77, -0.64, 0.64, 0.77, -54.33, 214.71)"/><path class="cls-12" d="M266.47,180.76a1.31,1.31,0,0,1,.27-.35,1.06,1.06,0,0,1,1.49.14l3,3.64a1.2,1.2,0,0,1,.2.39,1,1,0,0,0-.14-1.13l-3-3.64a1.05,1.05,0,0,0-1.83.95Z"/><rect class="cls-11" x="243.33" y="229.89" width="6.85" height="2.11" rx="0.97" transform="translate(-18.28 440.66) rotate(-81.46)"/><path class="cls-12" d="M246.22,228a1.08,1.08,0,0,1,.44,0,1.05,1.05,0,0,1,.88,1.2l-.7,4.69a1,1,0,0,1-.16.41,1,1,0,0,0,.76-.86l.7-4.68a1,1,0,0,0-1.92-.73Z"/><rect class="cls-11" x="237.68" y="218.45" width="6.85" height="2.11" rx="0.97" transform="translate(-76.52 293.2) rotate(-55.38)"/><path class="cls-12" d="M241.91,216.66a1.1,1.1,0,0,1,.41.16,1.06,1.06,0,0,1,.27,1.47l-2.7,3.9a.91.91,0,0,1-.32.3,1.06,1.06,0,0,0,1.06-.43l2.69-3.91a1,1,0,0,0-1.41-1.49Z"/><rect class="cls-11" x="250.17" y="186.51" width="6.85" height="2.11" rx="0.97" transform="translate(-20.94 32.26) rotate(-6.99)"/><path class="cls-12" d="M250.93,188.86a1.06,1.06,0,0,1,.77-1.59l4.71-.58a1.08,1.08,0,0,1,.44,0,1.06,1.06,0,0,0-1-.5l-4.7.58a1.05,1.05,0,0,0-.19,2.05Z"/><rect class="cls-11" x="264.35" y="195.58" width="6.85" height="2.11" rx="0.97" transform="translate(-21.94 34.05) rotate(-6.99)"/><path class="cls-12" d="M265.11,197.92a1,1,0,0,1-.15-.41,1.06,1.06,0,0,1,.92-1.18l4.71-.57a.93.93,0,0,1,.44,0,1,1,0,0,0-1-.5l-4.71.57a1.05,1.05,0,0,0-.18,2Z"/><rect class="cls-11" x="251.53" y="199.46" width="2.11" height="6.85" rx="0.97" transform="translate(-22.81 32.25) rotate(-6.99)"/><path class="cls-12" d="M251.29,200.22a1,1,0,0,1,.42-.15,1.05,1.05,0,0,1,1.17.92l.58,4.71a1.08,1.08,0,0,1,0,.44,1.07,1.07,0,0,0,.5-1l-.58-4.71a1.05,1.05,0,0,0-2.05-.18Z"/><rect class="cls-11" x="250.58" y="162.95" width="2.11" height="6.85" rx="0.97" transform="translate(-18.38 31.86) rotate(-6.99)"/><path class="cls-12" d="M250.34,163.71a1.11,1.11,0,0,1,.42-.15,1,1,0,0,1,1.17.92l.58,4.71a1.08,1.08,0,0,1,0,.44,1.07,1.07,0,0,0,.5-1l-.58-4.71a1.05,1.05,0,0,0-2-.18Z"/><rect class="cls-11" x="256.21" y="174.76" width="6.85" height="2.11" rx="0.97" transform="translate(-52.35 207.19) rotate(-39.85)"/><path class="cls-12" d="M261.17,173.28a1,1,0,0,1,.35.27,1.05,1.05,0,0,1-.13,1.49l-3.64,3a1.06,1.06,0,0,1-.39.21,1.06,1.06,0,0,0,1.13-.14l3.64-3a1.05,1.05,0,0,0-1-1.82Z"/><rect class="cls-11" x="229.49" y="158.08" width="6.85" height="2.11" rx="0.97" transform="translate(-47.87 186.2) rotate(-39.85)"/><path class="cls-12" d="M234.45,156.6a1,1,0,0,1,.35.27,1,1,0,0,1-.13,1.48l-3.64,3a1.06,1.06,0,0,1-.39.21,1.06,1.06,0,0,0,1.13-.14l3.64-3a1.05,1.05,0,0,0-1-1.82Z"/><rect class="cls-11" x="192.97" y="193.88" width="2.11" height="6.85" rx="0.97" transform="translate(-82.3 182.49) rotate(-42.41)"/><path class="cls-12" d="M196.62,198.72a1.15,1.15,0,0,1-.25.37,1.06,1.06,0,0,1-1.49-.07l-3.2-3.5a1.14,1.14,0,0,1-.22-.38,1,1,0,0,0,.19,1.12l3.19,3.5a1.06,1.06,0,0,0,1.49.07A1,1,0,0,0,196.62,198.72Z"/><rect class="cls-11" x="200.95" y="182.24" width="2.11" height="6.85" rx="0.97" transform="translate(-72.36 184.82) rotate(-42.41)"/><path class="cls-12" d="M204.6,187.09a1.11,1.11,0,0,1-.25.36,1.06,1.06,0,0,1-1.49-.07l-3.2-3.5a1,1,0,0,1-.22-.38,1.05,1.05,0,0,0,.19,1.13l3.19,3.5a1.05,1.05,0,0,0,1.78-1Z"/><rect class="cls-11" x="184.41" y="175.18" width="2.11" height="6.85" rx="0.97" transform="translate(-2.47 2.6) rotate(-0.8)"/><path class="cls-12" d="M186.46,181.39a1,1,0,0,1-.43.1,1.06,1.06,0,0,1-1.07-1l-.06-4.74a1,1,0,0,1,.09-.43,1,1,0,0,0-.61,1l.06,4.74a1.05,1.05,0,0,0,2,.4Z"/><rect class="cls-11" x="194.42" y="210.32" width="2.11" height="6.85" rx="0.97" transform="matrix(0.15, -0.99, 0.99, 0.15, -44.93, 375.32)"/><path class="cls-12" d="M198.39,213.21a1.12,1.12,0,0,1,0,.45,1.05,1.05,0,0,1-1.2.88l-4.69-.7a1.13,1.13,0,0,1-.41-.16,1.06,1.06,0,0,0,.86.76l4.69.7a1.05,1.05,0,0,0,.72-1.93Z"/><rect class="cls-11" x="177.92" y="198.71" width="2.11" height="6.85" rx="0.97" transform="translate(-87.95 161.63) rotate(-39.85)"/><path class="cls-12" d="M181.51,203.67a1,1,0,0,1-.27.35,1.07,1.07,0,0,1-1.49-.13l-3-3.64a1.15,1.15,0,0,1-.21-.39,1.06,1.06,0,0,0,.14,1.13l3,3.64a1.05,1.05,0,0,0,1.82-1Z"/><rect class="cls-11" x="135.08" y="223.28" width="2.11" height="6.85" rx="0.97" transform="translate(-113.64 139.88) rotate(-39.85)"/><path class="cls-12" d="M138.67,228.24a1,1,0,0,1-.27.35,1.07,1.07,0,0,1-1.49-.13l-3-3.64a1.1,1.1,0,0,1-.21-.4,1.08,1.08,0,0,0,.14,1.14l3,3.64a1.06,1.06,0,0,0,1.48.13A1,1,0,0,0,138.67,228.24Z"/><rect class="cls-11" x="228.4" y="222.15" width="2.11" height="6.85" rx="0.97" transform="matrix(0.53, -0.85, 0.85, 0.53, -83.51, 300.31)"/><path class="cls-12" d="M226.57,224.9a1.18,1.18,0,0,1,.15-.42,1.05,1.05,0,0,1,1.45-.33l4,2.52a1.05,1.05,0,0,1,.32.31,1.06,1.06,0,0,0-.49-1l-4-2.51a1.05,1.05,0,0,0-1.44,1.47Z"/><rect class="cls-11" x="223.15" y="232.69" width="2.11" height="6.85" rx="0.97" transform="translate(-64.85 86.22) rotate(-19.07)"/><path class="cls-12" d="M222.38,233.78a1,1,0,0,1,.37-.23,1.05,1.05,0,0,1,1.34.65l1.55,4.48a1.14,1.14,0,0,1,.06.44A1,1,0,0,0,226,238l-1.55-4.48a1.05,1.05,0,0,0-2,.25Z"/><rect class="cls-11" x="220.72" y="171.48" width="2.11" height="6.85" rx="0.97" transform="translate(-60.56 182.72) rotate(-39.85)"/><path class="cls-12" d="M219.24,173.37a1,1,0,0,1,.27-.35,1.06,1.06,0,0,1,1.48.13l3,3.64a.94.94,0,0,1,.2.4,1.06,1.06,0,0,0-.13-1.14l-3-3.64a1.05,1.05,0,0,0-1.82,1Z"/><rect class="cls-11" x="209" y="231.02" width="6.85" height="2.11" rx="0.97" transform="translate(-102.13 225.76) rotate(-46.38)"/><path class="cls-12" d="M213.66,229.38a1,1,0,0,1,.38.23,1,1,0,0,1,0,1.49l-3.27,3.43a1,1,0,0,1-.36.25,1.06,1.06,0,0,0,1.11-.27l3.27-3.43a1.05,1.05,0,0,0-1.16-1.7Z"/><rect class="cls-11" x="165.03" y="210.35" width="2.11" height="6.85" rx="0.97" transform="translate(-103.25 241.06) rotate(-57.94)"/><path class="cls-12" d="M169,214.45a1.05,1.05,0,0,1-1.61.75l-4-2.51a1.18,1.18,0,0,1-.32-.31,1.06,1.06,0,0,0,.48,1l4,2.52a1.06,1.06,0,0,0,1.44-1.48Z"/><rect class="cls-11" x="195.19" y="233.39" width="6.85" height="2.11" rx="0.97" transform="translate(-107.16 264.69) rotate(-55.38)"/><path class="cls-12" d="M199.42,231.6a1.1,1.1,0,0,1,.41.16,1.06,1.06,0,0,1,.27,1.47l-2.69,3.9a.94.94,0,0,1-.33.3,1.05,1.05,0,0,0,1.06-.43l2.69-3.9a1.05,1.05,0,0,0-1.41-1.5Z"/><rect class="cls-11" x="131.6" y="211.49" width="6.85" height="2.11" rx="0.97" transform="translate(-116.6 202.89) rotate(-55.38)"/><path class="cls-12" d="M135.82,209.69a.88.88,0,0,1,.41.17,1,1,0,0,1,.27,1.46l-2.69,3.9a.94.94,0,0,1-.33.3,1,1,0,0,0,1.06-.43l2.69-3.9a1.05,1.05,0,0,0-1.41-1.5Z"/><rect class="cls-11" x="211.32" y="200" width="6.85" height="2.11" rx="0.97" transform="translate(-22.87 27.63) rotate(-6.99)"/><path class="cls-12" d="M212.08,202.34a1,1,0,0,1-.15-.42,1.05,1.05,0,0,1,.92-1.17l4.7-.58a1.08,1.08,0,0,1,.44,0,1.06,1.06,0,0,0-1-.5l-4.7.58a1.06,1.06,0,0,0-.92,1.18A1,1,0,0,0,212.08,202.34Z"/><rect class="cls-11" x="203.83" y="168.22" width="6.85" height="2.11" rx="0.97" transform="translate(-19.06 26.48) rotate(-6.99)"/><path class="cls-12" d="M204.59,170.56a1.1,1.1,0,0,1-.14-.42,1.05,1.05,0,0,1,.91-1.17l4.71-.58a1.09,1.09,0,0,1,.44.05,1,1,0,0,0-1-.5l-4.7.57a1.05,1.05,0,0,0-.19,2.05Z"/><rect class="cls-11" x="225.32" y="211.24" width="6.85" height="2.11" rx="0.97" transform="translate(-24.14 29.42) rotate(-6.99)"/><path class="cls-12" d="M226.07,213.59a1.23,1.23,0,0,1-.14-.42,1,1,0,0,1,.91-1.17l4.71-.58a1.08,1.08,0,0,1,.44,0,1.06,1.06,0,0,0-1-.5l-4.7.58a1.05,1.05,0,0,0-.19,2.05Z"/><rect class="cls-11" x="211.94" y="211.13" width="2.11" height="6.85" rx="0.97" transform="translate(-24.53 27.52) rotate(-6.99)"/><path class="cls-12" d="M211.7,211.89a1.06,1.06,0,0,1,.42-.15,1,1,0,0,1,1.17.92l.58,4.7a1.05,1.05,0,0,1,0,.44,1,1,0,0,0,.5-1l-.58-4.71a1,1,0,0,0-1.17-.91A1.06,1.06,0,0,0,211.7,211.89Z"/><rect class="cls-11" x="161.86" y="259.68" width="2.11" height="6.85" rx="0.97" transform="translate(-30.81 21.79) rotate(-6.99)"/><path class="cls-12" d="M161.62,260.44a1,1,0,0,1,.42-.14,1.06,1.06,0,0,1,1.18.91l.57,4.71a1.08,1.08,0,0,1,0,.44,1.06,1.06,0,0,0,.5-1l-.58-4.7a1,1,0,0,0-1.17-.92A1.06,1.06,0,0,0,161.62,260.44Z"/><rect class="cls-11" x="216.63" y="186.43" width="6.85" height="2.11" rx="0.97" transform="translate(-69.02 184.54) rotate(-39.85)"/><path class="cls-12" d="M221.59,185a1,1,0,0,1,.35.27,1,1,0,0,1-.14,1.48l-3.64,3a1,1,0,0,1-.39.21,1.08,1.08,0,0,0,1.14-.14l3.64-3a1.06,1.06,0,0,0,.13-1.48A1,1,0,0,0,221.59,185Z"/><rect class="cls-11" x="175.22" y="251.76" width="2.11" height="6.85" rx="0.97" transform="translate(-102.26 391.6) rotate(-81.46)"/><path class="cls-12" d="M179.18,254.65a.93.93,0,0,1,0,.44,1.05,1.05,0,0,1-1.2.89l-4.68-.71a1.11,1.11,0,0,1-.42-.15,1.06,1.06,0,0,0,.86.75l4.69.71a1,1,0,0,0,1.19-.89A1,1,0,0,0,179.18,254.65Z"/><rect class="cls-11" x="147.43" y="258.69" width="2.11" height="6.85" rx="0.97" transform="translate(-132.77 370.03) rotate(-81.46)"/><path class="cls-12" d="M151.4,261.58a1.08,1.08,0,0,1,0,.44,1.05,1.05,0,0,1-1.2.89l-4.69-.7a1.13,1.13,0,0,1-.41-.16,1.07,1.07,0,0,0,.86.76l4.68.7a1.06,1.06,0,0,0,.73-1.93Z"/><rect class="cls-11" x="178.69" y="243.04" width="6.85" height="2.11" rx="0.97" transform="translate(-87.64 102.74) rotate(-25.62)"/><path class="cls-12" d="M180,246.17a1,1,0,0,1-.27-.35,1.06,1.06,0,0,1,.49-1.41l4.28-2a1,1,0,0,1,.43-.1,1,1,0,0,0-1.14-.14l-4.27,2a1,1,0,0,0-.5,1.4A1.06,1.06,0,0,0,180,246.17Z"/><rect class="cls-11" x="187.96" y="253.02" width="6.85" height="2.11" rx="0.97" transform="translate(-91.04 107.73) rotate(-25.62)"/><path class="cls-12" d="M189.27,256.15a1.17,1.17,0,0,1-.27-.35,1.06,1.06,0,0,1,.5-1.41l4.27-2a1.12,1.12,0,0,1,.43-.1,1,1,0,0,0-1.13-.14l-4.28,2.05a1.05,1.05,0,0,0-.49,1.4A1,1,0,0,0,189.27,256.15Z"/><rect class="cls-11" x="203.57" y="244.64" width="6.85" height="2.11" rx="0.97" transform="translate(-85.89 113.66) rotate(-25.62)"/><path class="cls-12" d="M204.89,247.77a1.08,1.08,0,0,1-.28-.35,1,1,0,0,1,.5-1.4l4.27-2.05a1,1,0,0,1,.43-.1,1.05,1.05,0,0,0-1.13-.15l-4.27,2.05a1,1,0,0,0,.48,2Z"/><rect class="cls-11" x="162.5" y="238.56" width="6.85" height="2.11" rx="0.97" transform="translate(-27.93 21.97) rotate(-6.99)"/><path class="cls-12" d="M163.26,240.9a1,1,0,0,1-.15-.41,1.06,1.06,0,0,1,.92-1.18l4.7-.57a.92.92,0,0,1,.44,0,1,1,0,0,0-1-.5l-4.7.57a1.06,1.06,0,0,0-.92,1.18A1,1,0,0,0,163.26,240.9Z"/><rect class="cls-11" x="159.06" y="248.37" width="6.85" height="2.11" rx="0.97" transform="translate(-29.15 21.63) rotate(-6.99)"/><path class="cls-12" d="M159.82,250.72a1.05,1.05,0,0,1,.77-1.6l4.7-.57a1.08,1.08,0,0,1,.44,0,1.06,1.06,0,0,0-1-.5l-4.7.58a1.05,1.05,0,0,0-.18,2.05Z"/><rect class="cls-11" x="139.8" y="247.66" width="6.85" height="2.11" rx="0.97" transform="translate(-29.2 19.28) rotate(-6.99)"/><path class="cls-12" d="M140.56,250a1.11,1.11,0,0,1-.15-.42,1.05,1.05,0,0,1,.92-1.17l4.71-.58a1.08,1.08,0,0,1,.44,0,1.07,1.07,0,0,0-1-.5l-4.71.58a1.05,1.05,0,0,0-.18,2Z"/><rect class="cls-11" x="167.81" y="224.99" width="6.85" height="2.11" rx="0.97" transform="translate(-105.07 162.22) rotate(-39.85)"/><path class="cls-12" d="M172.77,223.51a1,1,0,0,1,.35.27,1.06,1.06,0,0,1-.14,1.49l-3.64,3a1,1,0,0,1-.39.21,1.08,1.08,0,0,0,1.14-.14l3.64-3a1.06,1.06,0,0,0,.13-1.48A1,1,0,0,0,172.77,223.51Z"/><rect class="cls-11" x="146.75" y="235.55" width="6.85" height="2.11" rx="0.97" transform="translate(-116.72 151.17) rotate(-39.85)"/><path class="cls-12" d="M151.71,234.07a1,1,0,0,1,.35.27,1.06,1.06,0,0,1-.13,1.48l-3.64,3a1.1,1.1,0,0,1-.4.21,1.08,1.08,0,0,0,1.14-.14l3.64-3a1.06,1.06,0,0,0,.13-1.48A1,1,0,0,0,151.71,234.07Z"/><rect class="cls-11" x="146.01" y="223.2" width="6.85" height="2.11" rx="0.97" transform="translate(-108.98 147.83) rotate(-39.85)"/><path class="cls-12" d="M151,221.72a1,1,0,0,1,.35.27,1.06,1.06,0,0,1-.13,1.48l-3.64,3a1.1,1.1,0,0,1-.4.21,1.08,1.08,0,0,0,1.14-.14l3.64-3a1.06,1.06,0,0,0,.13-1.48A1,1,0,0,0,151,221.72Z"/><rect class="cls-11" x="186.7" y="219.15" width="2.11" height="6.85" rx="0.97" transform="translate(-3.08 2.63) rotate(-0.8)"/><path class="cls-12" d="M186.76,219.78a1.23,1.23,0,0,1,.43-.1,1.07,1.07,0,0,1,1.07,1l.06,4.74a1.08,1.08,0,0,1-.08.44,1,1,0,0,0,.6-1l-.06-4.74a1.05,1.05,0,0,0-2-.41Z"/><rect class="cls-11" x="156.43" y="186.57" width="2.11" height="6.85" rx="0.97" transform="translate(-53.79 317.52) rotate(-81.46)"/><path class="cls-12" d="M160.4,189.46a1.08,1.08,0,0,1,0,.44,1.06,1.06,0,0,1-1.2.89l-4.68-.71a1,1,0,0,1-.42-.15,1.06,1.06,0,0,0,.86.75l4.69.71a1,1,0,0,0,1.19-.89A1,1,0,0,0,160.4,189.46Z"/><rect class="cls-11" x="154.83" y="201.11" width="6.85" height="2.11" rx="0.97" transform="translate(-98.02 217.53) rotate(-55.38)"/><path class="cls-12" d="M159.06,199.31a1.12,1.12,0,0,1,.41.17,1,1,0,0,1,.27,1.46l-2.69,3.9a1.08,1.08,0,0,1-.33.31,1.06,1.06,0,0,0,1.06-.44l2.69-3.9a1.05,1.05,0,0,0-1.41-1.5Z"/><rect class="cls-11" x="143.27" y="197.58" width="2.11" height="6.85" rx="0.97" transform="translate(-2.78 2.03) rotate(-0.8)"/><path class="cls-12" d="M143.32,198.22a1.05,1.05,0,0,1,1.5.94l.07,4.74a1,1,0,0,1-.09.43,1.07,1.07,0,0,0,.61-1l-.07-4.74a1.05,1.05,0,0,0-2-.4Z"/></g></g></svg>