<svg id="Card" xmlns="http://www.w3.org/2000/svg" viewBox="0 0 370 330"><defs><style>.cls-1{fill:#458a1f;}.cls-2{opacity:0.3;}.cls-3{fill:#c1e589;}.cls-4{fill:#f6f7e9;}.cls-17,.cls-5{opacity:0.1;}.cls-6{fill:#dbdbcc;}.cls-12,.cls-19,.cls-7{fill:#fff;}.cls-10,.cls-12,.cls-8{opacity:0.3;}.cls-9{fill:#6cb213;}.cls-11{fill:#5f9b0b;}.cls-13,.cls-18{opacity:0.2;}.cls-14{opacity:0.4;}.cls-15{fill:#598c1e;}.cls-16{fill:#d60d06;}.cls-19,.cls-21{opacity:0.5;}.cls-20{fill:#edda01;}</style></defs><path class="cls-1" d="M123.49,168l10.2-11.56s-.51-1.36,4.25.68,21.25,8.33,25.67,9.86,17.33,6.12,21.07,7.31,14.79,4.93,17.85,6.29A127.72,127.72,0,0,0,215.45,185c3.57,1,14.11,3.91,17.67,5.1s13.26,3.23,15.81,4.25,5.44,1.87,13.94,3.06,17.17,3.22,20.4,3.05l1.19.34s-.34,3.91-2,6.29S260.66,235.65,259,237.52s-8.67,9.86-9.18,10.54-9.35,11.22-9.86,12.41-6.8,7.64-7.82,8.32-3.22,3.23-16.65,3.4-34.68-.34-64.76-10.88S96,236,92.9,233.78,69.44,220,68.59,219.5s-.85-1.53.68-1.87c0,0,9.52-7.65,12.58-9.69s18.36-16.65,19.55-17.67S119.41,171.91,123.49,168Z"/><g class="cls-2"><path class="cls-3" d="M103.18,239.9c-1.38-.89-2.72-1.82-4.07-2.75s-2.66-1.91-4-2.91q-1-.74-1.92-1.53c-.63-.53-1.25-1.07-1.84-1.65-1.17-1.15-2.35-2.27-3.55-3.39-2.37-2.25-4.79-4.45-7.19-6.68L77,217.67l-3.6-3.35c1.27,1,2.51,2.11,3.76,3.16l3.71,3.22c2.46,2.16,4.88,4.37,7.28,6.6Q90,229,91.71,230.73c1.14,1.14,2.42,2.17,3.68,3.21s2.56,2,3.87,3S101.87,238.92,103.18,239.9Z"/><path class="cls-3" d="M257,239.71c-3.32-.08-6.62-.27-9.93-.55s-6.59-.65-9.88-1.1c-.2,0-.41-.05-.61-.09l-.61-.13-1.22-.26c-.82-.16-1.62-.38-2.42-.57s-1.61-.4-2.41-.62-1.6-.42-2.4-.66c-3.19-.89-6.35-1.9-9.5-2.93-6.29-2.09-12.51-4.39-18.68-6.8s-12.31-4.92-18.4-7.54-12.13-5.34-18.13-8.16-12-5.72-17.78-8.88c-2.91-1.59-5.81-3.21-8.56-5.07l-4.09-2.83c-1.36-.94-2.74-1.86-4.11-2.79Q120,185.21,111.56,180q8.53,5.09,16.87,10.52c2.77,1.81,5.51,3.68,8.24,5.55s5.65,3.43,8.57,5,5.87,3,8.84,4.52,5.95,2.89,8.95,4.29q9,4.22,18.13,8.11t18.37,7.58q9.24,3.63,18.64,6.85c3.13,1.06,6.28,2.09,9.46,3,.79.24,1.59.45,2.39.67s1.59.44,2.4.63,1.6.42,2.41.59l1.21.26.6.14.61.1q4.91.74,9.86,1.21C250.4,239.36,253.71,239.59,257,239.71Z"/><path class="cls-3" d="M104.21,187.48a90.56,90.56,0,0,1,9.07,4.18c1.48.76,2.92,1.59,4.36,2.44s2.84,1.74,4.22,2.68l1,.71,1,.73c.34.25.68.48,1,.74l1,.76c.67.5,1.3,1,1.95,1.57s1.28,1.06,1.93,1.57a94,94,0,0,0,8.27,5.56c5.69,3.44,11.55,6.61,17.48,9.61s12,5.85,18,8.56c3,1.35,6.09,2.68,9.16,4s6.15,2.52,9.26,3.71c6.21,2.39,12.5,4.55,18.9,6.38s12.84,3.49,19.36,4.81c3.27.66,6.55,1.23,9.84,1.66.83.12,1.66.19,2.48.29s1.66.16,2.49.22a39.55,39.55,0,0,0,5,.11,39.73,39.73,0,0,1-5,0c-.83,0-1.66-.11-2.49-.19s-1.66-.15-2.48-.26c-3.31-.39-6.6-.92-9.87-1.53-6.54-1.27-13-2.85-19.43-4.68s-12.73-4-19-6.32q-4.66-1.78-9.28-3.7t-9.18-3.94q-9.12-4.09-18-8.61c-5.93-3-11.8-6.19-17.47-9.7a91.13,91.13,0,0,1-8.26-5.64c-.66-.51-1.3-1.06-1.94-1.58s-1.27-1.08-1.93-1.58l-1-.77-1-.74-1-.74-1-.71c-1.35-1-2.76-1.85-4.17-2.73s-2.85-1.71-4.32-2.49A90.58,90.58,0,0,0,104.21,187.48Z"/><path class="cls-3" d="M239.64,260.93c-3.37-.16-6.74-.52-10.09-.93s-6.69-.93-10-1.49-6.65-1.19-10-1.87-6.61-1.39-9.9-2.14a166.08,166.08,0,0,1-19.38-5.95l-4.73-1.81c-1.57-.62-3.13-1.28-4.7-1.91-.78-.33-1.56-.64-2.34-1l-2.32-1-2.32-1-1.16-.51-1.15-.53L157,238.64c-1.53-.72-3-1.48-4.56-2.22l-2.28-1.11-2.25-1.16L145.64,233l-1.13-.58-1.12-.59-4.46-2.4-4.42-2.48c-2.93-1.68-5.85-3.39-8.7-5.21s-5.66-3.69-8.39-5.69c-1.32-1.06-2.65-2.12-3.92-3.22-.64-.55-1.3-1.08-1.94-1.62l-2-1.58a155.9,155.9,0,0,0-16.72-11.4,154.25,154.25,0,0,1,16.87,11.21c.67.51,1.33,1,2,1.56l2,1.6c1.28,1.11,2.61,2.14,3.92,3.19,2.73,2,5.53,3.86,8.41,5.62,1.44.88,2.86,1.78,4.33,2.62l2.18,1.28c.73.42,1.46.85,2.2,1.26l4.41,2.46,4.47,2.38,1.12.6,1.12.57,2.26,1.15,2.25,1.15,2.27,1.11c1.52.74,3,1.49,4.56,2.21l4.59,2.13,1.15.53,1.16.51,2.31,1,2.32,1c.77.34,1.55.65,2.33,1,1.56.65,3.12,1.3,4.68,1.93l4.72,1.81a171.85,171.85,0,0,0,19.31,6c6.57,1.54,13.17,3,19.81,4.14q5,.92,10,1.61C232.91,260.33,236.27,260.72,239.64,260.93Z"/><path class="cls-3" d="M86.89,203.69c5.45,4.07,10.88,8.16,16.27,12.32q4,3.12,8,6.32c1.32,1.07,2.64,2.14,3.93,3.25.33.28.65.56,1,.82s.65.52,1,.76l1,.72,1.07.68c2.87,1.81,5.85,3.45,8.84,5.06s6,3.15,9.08,4.64q9.15,4.5,18.54,8.49A334.48,334.48,0,0,0,194,260.65a187.19,187.19,0,0,0,19.83,4.68A99.31,99.31,0,0,0,234.11,267a98.27,98.27,0,0,1-20.33-1.38,185.42,185.42,0,0,1-19.9-4.54c-6.56-1.84-13-4-19.42-6.3s-12.73-4.84-19-7.51-12.44-5.52-18.55-8.54q-4.57-2.25-9.08-4.67c-3-1.61-6-3.28-8.84-5.12l-1.07-.69c-.36-.24-.7-.49-1.05-.74s-.69-.51-1-.78-.66-.55-1-.83c-1.28-1.11-2.59-2.19-3.91-3.27-2.63-2.16-5.29-4.27-8-6.38Q95,209.89,86.89,203.69Z"/><path class="cls-3" d="M244.46,254.56a40,40,0,0,1-5,0c-1.67-.09-3.34-.22-5-.41-.83-.09-1.66-.18-2.49-.3s-1.66-.22-2.49-.36l-2.48-.39-2.47-.45c-.82-.14-1.64-.31-2.46-.48s-1.64-.33-2.46-.51l-2.45-.54-1.23-.28-1.22-.29c-1.62-.4-3.25-.78-4.87-1.22s-3.24-.84-4.85-1.3l-2.42-.68-1.21-.34-1.2-.36-4.8-1.48-4.77-1.59-1.19-.4-1.18-.42-2.36-.85q-9.45-3.45-18.64-7.5t-18.08-8.77c-3-1.55-5.89-3.18-8.79-4.86-.73-.41-1.44-.86-2.16-1.29s-1.44-.86-2.14-1.31c-1.41-.91-2.84-1.79-4.21-2.76l-1-.71c-.35-.24-.68-.5-1-.75-.68-.5-1.35-1-2-1.52l-1-.76-1-.75c-.66-.5-1.34-1-2-1.48-2.71-2-5.47-3.85-8.24-5.72q-8.32-5.61-16.82-11,8.55,5.25,17,10.75c2.79,1.85,5.56,3.73,8.29,5.67q1,.72,2,1.47l1,.74,1,.76,2,1.5c.34.24.67.5,1,.73l1,.71c1.37.95,2.79,1.82,4.2,2.72.71.44,1.43.86,2.15,1.3s1.42.87,2.15,1.27c2.9,1.68,5.82,3.3,8.79,4.84q8.88,4.67,18.06,8.71T186,241.49l2.36.85,1.18.43,1.19.41,4.75,1.59c3.2,1,6.38,2,9.6,2.9,1.61.48,3.23.9,4.84,1.33s3.24.84,4.86,1.25l1.21.31,1.23.28,2.44.56c.82.19,1.64.35,2.45.53s1.64.35,2.46.5l2.46.47,2.47.43c.83.15,1.66.26,2.48.38s1.66.23,2.49.34c1.66.21,3.32.36,5,.47A40,40,0,0,0,244.46,254.56Z"/><path class="cls-3" d="M92.86,198.22a154.25,154.25,0,0,1,16.87,11.21c.67.51,1.33,1,2,1.56s1.31,1.06,2,1.61c1.28,1.1,2.61,2.14,3.92,3.18q4.1,3,8.41,5.62c1.44.88,2.86,1.78,4.33,2.62l2.18,1.28c.73.42,1.46.85,2.2,1.26l4.41,2.46,4.47,2.38,1.12.6,1.12.57,2.26,1.15,2.25,1.15,2.27,1.12c1.52.73,3,1.48,4.56,2.2l4.59,2.13,1.15.53,1.16.51,2.31,1,2.32,1c.77.34,1.55.65,2.33,1,1.56.64,3.12,1.3,4.68,1.93l4.73,1.81a171,171,0,0,0,19.3,6c3.28.76,6.57,1.52,9.88,2.2s6.61,1.35,9.94,1.94,6.65,1.15,10,1.61,6.7.85,10.07,1.05h0a2.35,2.35,0,0,0,.28-.46,2.25,2.25,0,0,1-.28.47h0c-3.37-.16-6.74-.51-10.09-.93s-6.69-.93-10-1.49-6.65-1.19-10-1.87-6.61-1.39-9.9-2.14a164.18,164.18,0,0,1-19.38-5.95l-4.73-1.81c-1.57-.62-3.13-1.28-4.7-1.91-.78-.33-1.56-.64-2.34-1l-2.32-1-2.32-1-1.16-.51-1.15-.53L157,238.64c-1.53-.72-3-1.48-4.56-2.22l-2.27-1.11-2.26-1.16L145.64,233l-1.13-.58-1.12-.59-4.46-2.4-4.42-2.48c-2.93-1.68-5.85-3.4-8.7-5.21s-5.66-3.69-8.39-5.69c-1.32-1.06-2.65-2.12-3.92-3.23l-1.94-1.61-2-1.58A155.9,155.9,0,0,0,92.86,198.22Z"/><path class="cls-3" d="M234.11,267a87,87,0,0,1-15.8-.69,158,158,0,0,1-15.57-2.9l-1.93-.46-1-.23-1-.25-3.83-1-3.81-1.1c-1.27-.36-2.52-.77-3.79-1.16-5-1.58-10-3.28-15-5.12q-14.83-5.55-29.18-12.32c-4.76-2.26-9.49-4.62-14.15-7.1-2.32-1.27-4.63-2.54-6.89-3.9l-.86-.5-.84-.52c-.56-.35-1.12-.69-1.67-1.06s-1.11-.72-1.64-1.11c-.26-.2-.54-.38-.8-.59l-.77-.62.78.61c.26.21.54.38.81.57.54.38,1.1.73,1.65,1.09s1.12.69,1.69,1l.85.51.86.49c2.28,1.31,4.61,2.55,6.95,3.77q7,3.66,14.2,7c4.79,2.2,9.61,4.36,14.47,6.39s9.78,4,14.72,5.8,9.93,3.57,14.95,5.16c1.26.38,2.52.8,3.78,1.16l3.8,1.11,3.82,1,.95.26,1,.24,1.92.48c5.12,1.24,10.29,2.3,15.51,3A86.72,86.72,0,0,0,234.11,267Z"/><path class="cls-3" d="M80.18,209.13q7.74,6.28,15.61,12.39c2.63,2,5.26,4,7.94,6q2,1.47,4,2.9c1.36.95,2.75,1.86,4.14,2.76a303.67,303.67,0,0,0,34.89,19.15,238.17,238.17,0,0,0,37.24,14,159.58,159.58,0,0,0,19.46,4.14,113.74,113.74,0,0,0,19.86,1.25,114.08,114.08,0,0,1-19.89-1,158.38,158.38,0,0,1-19.53-4c-6.43-1.72-12.75-3.81-19-6.15s-12.36-4.93-18.38-7.74-12-5.85-17.77-9.06-11.56-6.58-17.12-10.22c-1.39-.91-2.78-1.84-4.13-2.8s-2.7-1.94-4-2.93c-2.67-2-5.3-4-7.9-6.08Q87.83,215.53,80.18,209.13Z"/><path class="cls-3" d="M249.78,248.06l.26-.33h0a43.9,43.9,0,0,1-5-.05c-.83-.05-1.66-.12-2.49-.19s-1.66-.16-2.48-.27c-3.31-.39-6.6-.92-9.87-1.53-6.54-1.27-13-2.85-19.43-4.68s-12.73-4-19-6.32q-4.66-1.78-9.28-3.7t-9.18-3.94q-9.12-4.09-18-8.61c-5.93-3-11.8-6.19-17.47-9.7a91.13,91.13,0,0,1-8.26-5.64c-.66-.51-1.3-1.06-1.94-1.58s-1.27-1.08-1.93-1.58l-1-.77-1-.74-1-.74-1-.71c-1.36-1-2.76-1.85-4.17-2.73s-2.85-1.71-4.32-2.49a90.58,90.58,0,0,0-9-4.29,90.56,90.56,0,0,1,9.07,4.18c1.48.76,2.92,1.59,4.36,2.44s2.84,1.74,4.22,2.68l1,.71,1,.73c.34.25.68.48,1,.74l1,.76c.67.5,1.3,1,1.95,1.57s1.28,1.06,1.93,1.57a94,94,0,0,0,8.27,5.56c5.69,3.44,11.55,6.61,17.48,9.61s12,5.85,18,8.56c3,1.35,6.09,2.68,9.15,4s6.16,2.52,9.27,3.71c6.21,2.39,12.5,4.55,18.9,6.38s12.84,3.49,19.36,4.81c3.27.66,6.55,1.22,9.84,1.66.83.11,1.66.19,2.48.29s1.66.16,2.49.22a41.52,41.52,0,0,0,5,.11h0Z"/><path class="cls-3" d="M98.68,192.79q8.55,5.25,17,10.75c2.79,1.85,5.56,3.73,8.29,5.67q1,.72,2,1.47l1,.74,1,.76,2,1.5c.34.24.67.5,1,.73l1,.71c1.37.95,2.79,1.82,4.2,2.72.71.44,1.43.86,2.15,1.3s1.42.87,2.15,1.27c2.9,1.68,5.82,3.3,8.79,4.84q8.88,4.67,18.06,8.71t18.6,7.53l2.35.85,1.18.43,1.19.4,4.75,1.6c3.2,1,6.38,2,9.6,2.9,1.61.48,3.23.9,4.84,1.33s3.24.84,4.86,1.25l1.21.31,1.23.28,2.44.56c.82.19,1.64.35,2.45.53s1.64.35,2.46.5l2.46.47,2.47.43c.83.15,1.66.25,2.48.38s1.66.23,2.49.34c1.66.21,3.32.36,5,.47a40,40,0,0,0,5,0,40,40,0,0,1-5,0c-1.67-.09-3.34-.22-5-.41-.83-.09-1.66-.18-2.49-.3s-1.66-.21-2.49-.35l-2.48-.4-2.47-.44c-.82-.15-1.64-.32-2.46-.49s-1.64-.33-2.46-.51l-2.45-.54-1.23-.28-1.22-.29c-1.62-.4-3.26-.78-4.87-1.22s-3.24-.84-4.85-1.3l-2.42-.68-1.21-.34-1.2-.36-4.8-1.47-4.77-1.6-1.19-.4-1.18-.42-2.36-.85q-9.45-3.45-18.64-7.5t-18.08-8.77c-3-1.55-5.89-3.18-8.79-4.86-.73-.41-1.44-.86-2.16-1.29s-1.44-.86-2.14-1.31c-1.41-.91-2.83-1.79-4.2-2.76l-1-.71c-.34-.24-.68-.5-1-.75-.67-.5-1.35-1-2-1.52l-1-.76-1-.75c-.67-.5-1.35-1-2-1.48-2.71-2-5.47-3.85-8.24-5.72Q107.18,198.13,98.68,192.79Z"/><path class="cls-3" d="M279.66,210.76l-7.55-1.51c-2.51-.51-5-1-7.53-1.58l-7.5-1.74c-.62-.15-1.25-.29-1.87-.45l-1.87-.49-3.72-1c-5-1.23-9.89-2.76-14.82-4.19-4.88-1.58-9.79-3.1-14.61-4.88a284.48,284.48,0,0,1-28.42-11.87l-3.45-1.7-3.41-1.78-1.71-.9c-.57-.3-1.12-.62-1.68-.93l-3.36-1.89c-4.43-2.6-8.77-5.34-12.94-8.34,4.22,2.93,8.6,5.6,13.06,8.13l3.38,1.84c.56.31,1.12.63,1.69.92l1.71.88,3.42,1.75,3.47,1.67a294.16,294.16,0,0,0,28.41,11.74c4.81,1.79,9.7,3.32,14.58,4.91s9.82,3,14.78,4.26l3.71,1,1.86.5c.62.17,1.25.31,1.87.46l7.48,1.81c2.48.65,5,1.16,7.5,1.71Z"/><path class="cls-3" d="M132,158.31q8.21,5.2,16.46,10.32c5.5,3.42,11,6.81,16.6,10.07q2.1,1.22,4.25,2.33c1.43.75,2.88,1.49,4.32,2.21q4.35,2.16,8.76,4.19,8.81,4.06,17.8,7.75c12,4.95,24.11,9.42,36.46,13.32,6.17,1.95,12.4,3.72,18.68,5.27s12.62,2.91,19,3.91c-6.42-.92-12.78-2.18-19.08-3.66s-12.55-3.24-18.74-5.14-12.33-4-18.42-6.21-12.13-4.55-18.12-7-11.92-5.07-17.8-7.8c-2.93-1.37-5.86-2.77-8.75-4.22s-5.78-2.94-8.58-4.59C153.77,172.41,142.89,165.39,132,158.31Z"/><path class="cls-3" d="M264,231.18a140.56,140.56,0,0,1-19.6-2.36c-6.47-1.23-12.87-2.83-19.2-4.66s-12.57-4-18.75-6.25-12.28-4.76-18.32-7.39-12-5.42-17.91-8.34-11.75-6-17.49-9.2c-2.87-1.61-5.73-3.26-8.52-5s-5.6-3.45-8.41-5.16q-8.43-5.16-16.91-10.21,8.53,5,17,10,4.23,2.53,8.45,5.11c2.8,1.72,5.66,3.34,8.54,4.94q17.29,9.51,35.41,17.41a325.66,325.66,0,0,0,37,13.73c6.31,1.88,12.69,3.52,19.14,4.8A139.92,139.92,0,0,0,264,231.18Z"/><path class="cls-3" d="M111.56,180q8.53,5.09,16.87,10.52c2.77,1.81,5.51,3.68,8.24,5.55s5.65,3.43,8.57,5,5.87,3.05,8.84,4.52,5.95,2.89,8.95,4.29q9,4.22,18.13,8.11t18.37,7.58q9.24,3.63,18.64,6.85c3.13,1.06,6.28,2.09,9.46,3,.79.25,1.59.46,2.39.68s1.59.44,2.4.63,1.6.42,2.41.59l1.21.26.6.14.61.1q4.91.74,9.86,1.21c3.29.33,6.6.56,9.91.68-3.32-.08-6.62-.27-9.93-.55s-6.59-.64-9.88-1.1c-.2,0-.41-.05-.61-.09l-.61-.13-1.22-.26c-.82-.16-1.62-.38-2.42-.57s-1.61-.4-2.41-.62-1.6-.42-2.4-.65c-3.19-.9-6.35-1.91-9.5-2.94-6.29-2.09-12.51-4.39-18.68-6.8s-12.31-4.92-18.4-7.54-12.13-5.34-18.13-8.16-12-5.73-17.78-8.89c-2.91-1.58-5.81-3.2-8.56-5.06l-4.09-2.83c-1.36-.94-2.74-1.86-4.11-2.79Q120,185.21,111.56,180Z"/><path class="cls-3" d="M282.42,207.09l-5.87-1-1.47-.26q-.74-.12-1.47-.27l-2.92-.59-2.92-.6-1.45-.31-1.46-.34-5.8-1.35q-11.56-2.9-22.9-6.65c-7.53-2.53-15-5.33-22.29-8.46-1.82-.8-3.65-1.57-5.45-2.41l-2.71-1.24L203,182.32c-3.57-1.74-7.13-3.52-10.6-5.45q5.29,2.74,10.71,5.23l2.7,1.24,2.72,1.21c1.81.81,3.65,1.56,5.48,2.34,7.33,3.05,14.76,5.85,22.3,8.34S251.47,200,259.15,202l5.79,1.42,1.44.35,1.46.33,2.9.63C274.61,205.63,278.52,206.3,282.42,207.09Z"/><path class="cls-3" d="M165.22,167.54c4.22,2.93,8.6,5.6,13.06,8.13l3.38,1.84c.56.31,1.11.63,1.69.92l1.71.88,3.42,1.75,3.47,1.67a294.16,294.16,0,0,0,28.41,11.74c4.81,1.78,9.7,3.32,14.58,4.91s9.82,3,14.78,4.26l3.71,1,1.86.5c.62.17,1.25.31,1.87.46l7.48,1.81c2.48.65,5,1.16,7.5,1.71l7.52,1.63-7.55-1.51c-2.51-.51-5-1-7.53-1.58l-7.5-1.74c-.62-.15-1.25-.28-1.87-.45l-1.87-.48-3.72-1c-5-1.23-9.89-2.76-14.82-4.19-4.88-1.58-9.79-3.1-14.61-4.88a284.48,284.48,0,0,1-28.42-11.87l-3.45-1.7-3.41-1.79-1.71-.89c-.57-.3-1.12-.62-1.68-.93l-3.36-1.89C173.73,173.28,169.39,170.54,165.22,167.54Z"/><path class="cls-3" d="M274.39,217.68c-6.42-.92-12.78-2.18-19.08-3.66s-12.55-3.24-18.74-5.14-12.33-4-18.42-6.21-12.13-4.55-18.12-7-11.92-5.07-17.8-7.8c-2.93-1.37-5.86-2.77-8.75-4.22s-5.78-2.94-8.58-4.59c-11.13-6.63-22-13.65-32.86-20.73q8.21,5.2,16.46,10.32c5.5,3.42,11,6.81,16.6,10.07q2.1,1.22,4.25,2.33c1.43.75,2.88,1.49,4.32,2.21q4.35,2.16,8.76,4.19,8.81,4.06,17.8,7.75c12,4.95,24.11,9.42,36.46,13.32,6.17,1.95,12.4,3.72,18.68,5.27S268,216.68,274.39,217.68Z"/><path class="cls-3" d="M125.51,165.71c5.71,3.16,11.37,6.42,16.91,9.88q2.09,1.31,4.12,2.67c.68.45,1.35.92,2,1.38s1.33,1,2,1.41c1.36.88,2.78,1.69,4.21,2.47.71.39,1.43.78,2.15,1.15s1.45.76,2.18,1.12c11.64,5.88,23.6,11.16,35.69,16.06s24.34,9.43,36.8,13.32c6.23,1.94,12.51,3.71,18.87,5.2a151.28,151.28,0,0,0,19.26,3.38,150.41,150.41,0,0,1-19.32-3.14c-6.37-1.44-12.68-3.17-18.93-5.06s-12.43-4-18.58-6.21-12.24-4.56-18.3-7-12.05-5-18-7.72c-3-1.35-6-2.7-8.89-4.12-1.48-.69-2.95-1.41-4.41-2.13s-2.93-1.46-4.37-2.22c-.73-.37-1.45-.75-2.17-1.14s-1.44-.77-2.16-1.17c-1.43-.79-2.84-1.61-4.21-2.52-.69-.46-1.33-.94-2-1.42s-1.33-.94-2-1.39c-1.34-.92-2.71-1.81-4.08-2.7C136.8,172.28,131.18,169,125.51,165.71Z"/><path class="cls-3" d="M269.72,223.75a150.41,150.41,0,0,1-19.32-3.14c-6.37-1.44-12.68-3.17-18.93-5.06s-12.43-4-18.58-6.21-12.24-4.56-18.3-7-12.05-5-18-7.72c-3-1.35-6-2.7-8.89-4.12-1.48-.69-2.95-1.41-4.41-2.13s-2.93-1.46-4.37-2.22c-.73-.37-1.45-.75-2.17-1.14s-1.44-.77-2.16-1.17c-1.43-.79-2.84-1.61-4.21-2.52-.69-.46-1.33-.94-2-1.42s-1.33-.94-2-1.39c-1.34-.92-2.71-1.81-4.08-2.69-5.49-3.53-11.11-6.86-16.78-10.1,5.71,3.16,11.37,6.42,16.91,9.88q2.09,1.31,4.12,2.67c.68.45,1.35.92,2,1.38s1.33,1,2,1.4c1.36.89,2.78,1.7,4.21,2.48.71.39,1.43.78,2.15,1.15s1.45.76,2.18,1.12c11.64,5.88,23.6,11.16,35.69,16.06s24.34,9.43,36.8,13.32c6.23,1.94,12.51,3.71,18.87,5.2A151.28,151.28,0,0,0,269.72,223.75Z"/><path class="cls-3" d="M118.87,172.6q8.53,5,17,10,4.23,2.53,8.45,5.11c2.8,1.72,5.66,3.34,8.54,4.94q17.29,9.51,35.41,17.41a325.66,325.66,0,0,0,37,13.73c6.31,1.88,12.69,3.52,19.14,4.8a139.92,139.92,0,0,0,19.55,2.6,140.56,140.56,0,0,1-19.6-2.36c-6.47-1.23-12.87-2.82-19.2-4.66s-12.57-4-18.75-6.24-12.28-4.77-18.32-7.4-12-5.42-17.91-8.35-11.75-6-17.49-9.19c-2.87-1.61-5.73-3.26-8.52-5s-5.6-3.45-8.41-5.17Q127.35,177.66,118.87,172.6Z"/></g><ellipse class="cls-4" cx="170.51" cy="184.5" rx="5.11" ry="10.86" transform="translate(-33.54 331.05) rotate(-82.94)"/><g class="cls-5"><ellipse cx="170.51" cy="184.5" rx="5.11" ry="10.86" transform="translate(-33.54 331.05) rotate(-82.94)"/></g><ellipse class="cls-4" cx="206.26" cy="189.92" rx="5.11" ry="10.86" transform="translate(-7.57 371.28) rotate(-82.94)"/><g class="cls-5"><ellipse cx="206.26" cy="189.92" rx="5.11" ry="10.86" transform="translate(-7.57 371.28) rotate(-82.94)"/></g><ellipse class="cls-4" cx="220.45" cy="203.35" rx="5.11" ry="10.86" transform="translate(-8.45 397.14) rotate(-82.94)"/><g class="cls-5"><ellipse cx="220.45" cy="203.35" rx="5.11" ry="10.86" transform="translate(-8.45 397.14) rotate(-82.94)"/></g><ellipse class="cls-4" cx="160.66" cy="193.33" rx="5.11" ry="10.86" transform="translate(-50.94 329.02) rotate(-82.94)"/><g class="cls-5"><ellipse cx="160.66" cy="193.33" rx="5.11" ry="10.86" transform="translate(-50.94 329.02) rotate(-82.94)"/></g><path class="cls-4" d="M242.44,222.15c2.21,15.87-23.15,16.65-26.56,18.68a44,44,0,0,1-17.75,6l-28.27,1.82c-20.81,1.15-36.06-14.56-37.39-24.06a10.13,10.13,0,0,1,.15-3.82c.33-1.33.84-2.12.76-2.69l0-.17c0-.12,0-.24,0-.36a20.67,20.67,0,0,1-.19-2.19c-.31-10.31,7.25-19.1,12.78-19.69,11.5-1.23,5.56,12.87,15.12,18.68,9.9,6,22.37,9.91,35.31,8.52,17.15-1.84,31.14-10.68,36.21-11.22C238.44,211,241.7,216.87,242.44,222.15Z"/><g class="cls-5"><path d="M145.73,195.65l.16,0c11.11-1.19,5.94,11.93,14.21,18.07a64.65,64.65,0,0,1-6.71-3.55C147.57,206.61,147.5,200,145.73,195.65Z"/><path d="M242.44,222.15c2.21,15.87-23.15,16.65-26.56,18.68a44,44,0,0,1-17.74,6l-28.28,1.82a39.35,39.35,0,0,1-24.7-7.09,38.85,38.85,0,0,0,17.08,2.92l28.27-1.82a44,44,0,0,0,17.75-6c3.41-2,28.77-2.82,26.56-18.69a16.72,16.72,0,0,0-2.23-6.38C238.46,211,241.7,216.89,242.44,222.15Z"/></g><path class="cls-6" d="M211.87,187.41c0,.33-.59,2.8-2.92,2.79h-.26c-1.29,0-1.21.34-2,.34a.86.86,0,0,1-.46-.14c-.85-.57-.78-2.74-2.7-2.91l-.49-.05a4.74,4.74,0,0,1-3.85-2.08C198,183.8,197,181.68,191,180c-.73-.2-1.55-.77-1.55-1.43a3.12,3.12,0,0,0-1.14-2.55c-1.08-.95-2.77-1.52-4.41-2.54a9,9,0,0,1-4.08-5.12l-.39-1.43-.95-3.48a3.67,3.67,0,0,1,2.4-2.4,2.06,2.06,0,0,1,.6-.08l.36,0a32.51,32.51,0,0,1-1.95-4.62h0c-2.3-8,15.91,14.36,16.34,15.09a5.12,5.12,0,0,0,1.09,1.49,2.55,2.55,0,0,0,.72.43,8.67,8.67,0,0,1,1.1.55,20.06,20.06,0,0,1,3.07,2.3c.71.63,1.42,1.32,2.13,2,.9.91,1.78,1.87,2.6,2.82.29.32.57.65.84,1h0c1.15,1.36,2.15,2.62,2.87,3.59l.44.58h0A7.52,7.52,0,0,1,211.87,187.41Z"/><path class="cls-4" d="M162.24,193.69v-.05c-.39-2.8-3.77-5.13-8.16-4.66-5.24.56-6.46,5.16-5.89,9.25.92,6.6,17.21,30.71,51.26,27.06,11-1.18,10.62-4,21.22-6.77,4.79-1.26,13.35-2.43,12.3-10-.66-4.76-2-7.74-7.75-7.13-7.49.8-19.05,7.21-19.72,7.28,0,0-.73-.55-24.52-1-9-.16-17.55-5.5-18.71-13.83Z"/><g class="cls-5"><path d="M169.63,204.48c-6.46-1.89-11.66-6.52-12.55-12.9l0-.23a4.55,4.55,0,0,0-1.17-2.41c3.49.23,6,2.29,6.37,4.7l0,.23A15,15,0,0,0,169.63,204.48Z"/><path d="M233,208.53c1.05,7.56-7.51,8.73-12.3,10-10.6,2.78-10.24,5.58-21.22,6.76-12.76,1.37-23-1.17-30.94-5.22A55.8,55.8,0,0,0,194.26,223c11-1.18,10.62-4,21.21-6.77,4.8-1.26,13.36-2.43,12.31-10a12.49,12.49,0,0,0-1.48-4.92C231.11,201.19,232.35,204.08,233,208.53Z"/></g><g class="cls-5"><path d="M162.21,234.38c-.33,0-.67,0-1,0a39.66,39.66,0,0,1-28.57-13.67c.33-1.33.84-2.12.76-2.69l0-.17c0-.12,0-.24,0-.36a20.67,20.67,0,0,1-.19-2.19,43.27,43.27,0,0,0,2.46,3.71A38.72,38.72,0,0,0,162.21,234.38Z"/></g><path class="cls-4" d="M172.61,185.23a9,9,0,0,1-2.67-4c-3.13-10,9.89-13.58,9.94-24.91,0,0,9.38,13,12.32,17.06a20.57,20.57,0,0,0,2.09,2.49c11.37,11.5,16.21,6.76,18,12.57,1.22,3.86-6.32,8.54-11,9.69-11.48,2.77-28-10.66-28.52-12.28-.05-.16,0-.35-.08-.49A.32.32,0,0,0,172.61,185.23Z"/><g class="cls-5"><path d="M187.89,170.77c-1.67-2.3-5.41-7.48-8.33-11.53a13.59,13.59,0,0,0,.31-2.91l12.33,17.06a19.69,19.69,0,0,0,2.09,2.49,44.81,44.81,0,0,0,5.18,4.53,34.57,34.57,0,0,1-9.49-7.16A20.33,20.33,0,0,1,187.89,170.77Z"/><path d="M212.33,188.44c1.22,3.87-6.32,8.55-11,9.7-7,1.69-15.87-2.64-21.85-6.65,5.48,3,12.08,5.34,17.53,4,4.73-1.14,12.27-5.83,11.05-9.69a7.27,7.27,0,0,0-.57-1.33C210,185.32,211.48,185.74,212.33,188.44Z"/></g><path class="cls-7" d="M179.6,166.52c-5.4,11.8-5.39,12.44-5.1,14.46.93,6.68,15.51,10.91,15.77,10.88a3.18,3.18,0,0,0,.33-.08,8.36,8.36,0,0,0,3.28.34c2.62-.28,7.12-2.28,6.8-4.62-.1-.66-16.63-7.92-17.11-11.37-.22-1.58.5-1.77.26-3.52-.28-2-1.89-3.67-3.57-5.22C180,167.15,179.65,166.93,179.6,166.52Z"/><path class="cls-7" d="M160.72,201.21c-6.51-3.75-4-7.28-6.69-7-.71.07-2.87,1.72-2.61,3.59,1,7.21,12.86,14.59,13.39,15.23,6.24,7.63,25.94,6.86,26.21,6.83l15.64-3.09c11.94-3.12,19.45-4,18.73-9.17a2,2,0,0,0-2.24-1.57c-1.67.18-3.2,2.18-4.63,3.22-1.06.77-9.71,3.1-14.06,3.56-6.39.69-16.4-.16-16.53-.14-1.11.11-2.11.49-3.21.6-2,.22-19.35-1.5-23.51-11.8C161.14,201.31,160.89,201.31,160.72,201.21Z"/><path class="cls-7" d="M232.33,223.53a1.61,1.61,0,0,1-.21-.59c-.11-.81.8-1.81.64-2.93a2.81,2.81,0,0,0-2.6-2.13s-11.19,3.75-11.68,4c-7.6,4.48-28.62,7.17-28.89,7.2-20.78,2.23-25.19-12.7-31.67-13.68-9.15-1.4-11.22-11.35-14.84-11-2.66.28-6.87,4.49-6.37,8.06.2,1.41,8.45,13.09,13.43,13.78,3,.41,13.45,4.76,13.9,8,.19,1.35-.47,2-1.78,2.16-11.18,1.2-23.79-6.33-23.79-6.33-.27,0-.72.94-.6,1.75.27,2,9.78,10.06,16.16,10,6.61,0,12.21,1.19,21.27.22,28.51-3.06,22.43-6.81,39.09-10C221.17,230.79,229.18,229.4,232.33,223.53Z"/><path class="cls-8" d="M208.77,184.67h0v.47c0,.15,0,.28,0,.4h0a3.54,3.54,0,0,0-.34-.48h0a.86.86,0,0,1-.07-.1.6.6,0,0,1-.08-.08l-.13-.15-.07-.06-.13-.14c0-.06-.11-.11-.17-.17l-.47-.41-.24-.19-.11-.07h0l-.25-.18-.32-.21h0l-.33-.2-.34-.18h0l-.34-.17h0l-.34-.14-.35-.13-.22-.06-.3-.08-.57-.09-.2,0h-.53l0,.25a2.17,2.17,0,0,0,0,.25v0a0,0,0,0,1,0,0l0,.35c0,.13,0,.26,0,.39h0c0,.09,0,.18,0,.26a2.35,2.35,0,0,0,0,.26.71.71,0,0,0,0,.14v0h0a.41.41,0,0,0,0,.11v.37c0,.11,0,.22,0,.32v.09c0,.09,0,.18,0,.27v0l0,.32h0s0,.05,0,.08,0,.14,0,.21v0h0a2.7,2.7,0,0,0,0,.28v0s0,.05,0,.08l0,.13v.08s0,.1,0,.14a.75.75,0,0,0,0,.16,1.55,1.55,0,0,0,.07.23s0,0,0,0v0s0,.08,0,.12a.14.14,0,0,1,0,.06s0,0,0,0l0,.05.06.15a.2.2,0,0,1,0,.08l.05.09a0,0,0,0,1,0,0c.05.08.09.16.14.23l.07.11,0,.06a.76.76,0,0,1,.08.11,1.31,1.31,0,0,0,.11.12l.07.08.13.14.21.22,0,0h0l0,0h-.42l-.35-.07h0l-.23,0c0,.07,0,.14,0,.21a5.52,5.52,0,0,1-.44,2.32c-.3.72-.63,1.42-1,2.12h0l-.23.43c-.14.26-.29.51-.44.76h0l-.2.32-.27.4a12.32,12.32,0,0,1-3,3h0a16.75,16.75,0,0,1-3.47,1.86c-5.86,2.34-13,1.92-15.22.53a3.28,3.28,0,0,1-.56-.42c-1.17-1.06-1.6-2.78-1.54-4.81v-.07a21.91,21.91,0,0,1,1-5.28v0c.14-.49.3-1,.47-1.46l.24-.66c.17-.46.35-.91.53-1.36.48-1.18,1-2.3,1.52-3.29s.89-1.65,1.3-2.29a15.09,15.09,0,0,1,2.84-3.43,7.51,7.51,0,0,1,3.63-1.8,7.67,7.67,0,0,1,3.27.16V176s0-.08,0-.12a9.19,9.19,0,0,0,.11-1c0-.15,0-.09.1.09h0a3.57,3.57,0,0,0,2.19,1.89h0a7.7,7.7,0,0,0,1.44.37l.34.05.21,0,.25,0h.21a5.43,5.43,0,0,0,.84,0,1.52,1.52,0,0,1-.06-.2.29.29,0,0,1,0-.09l0-.12,0-.13s0-.07,0-.11a.11.11,0,0,0,0,0v-.05l0-.16a.49.49,0,0,1,0-.12l0-.26s0-.08,0-.12a.49.49,0,0,0,0-.12v-.13h0v-.1h0c0-.1,0-.2,0-.3h0v-.18a2.18,2.18,0,0,1,0-.25h0v-.09l0-.29v-.08l.06-.42,0-.19a3.4,3.4,0,0,1,.09-.46.83.83,0,0,1,0-.15,1.16,1.16,0,0,1,0-.18,2.55,2.55,0,0,0,.72.43,8.67,8.67,0,0,1,1.1.55,8.53,8.53,0,0,0,.32,1.25c.06.19.13.38.2.55l.1.25a2.2,2.2,0,0,0,.09.21c.06.13.12.24.18.35a4.88,4.88,0,0,1,1.3-.24l.18,0,.13,0,.08,0,.08,0,.12,0h0l.2,0,0,0h0c.71.63,1.42,1.32,2.13,2a.75.75,0,0,0-.07.12.83.83,0,0,1-.07.13l-.06.14-.05.09a1.42,1.42,0,0,1-.08.18v0a1.54,1.54,0,0,0-.08.19.09.09,0,0,0,0,0,.5.5,0,0,0,0,.12h0l.07,0H204l.2.07h.05l.15.06h0l.11,0h0l.07,0h0l0,0h0l.18.08h0l.05,0,0,0,.05,0a.2.2,0,0,0,.08,0l.06,0,.14.07.08,0,.08.05.19.11s0,0,0,0l.18.13.12.08.13.09,0,0a.1.1,0,0,0,.05,0l.08.07.07.06.15.12,0,.05.25.23h0l.06.06.05.05.1.09.06.06,0,0,.06.06,0,.06.05.06h0a0,0,0,0,0,0,0,.39.39,0,0,1,.08.1,1.63,1.63,0,0,1,.17.2l.18.24h0a12.1,12.1,0,0,1,.73,1.18.54.54,0,0,1,.05.11h0a.25.25,0,0,0,0,.07l0,0h0v0l0,.11h0l.06.25v0a5.8,5.8,0,0,1,.06.6v.13h0Z"/><path class="cls-9" d="M196.84,178.1h0l0,0L197,178l0,0a.57.57,0,0,1,.13-.08l0,0,0,0h0l.18-.08.05,0,0,0,.06,0h0l.12,0h0l.14,0,.11,0H198l.2,0,.57,0h.52l.36,0,.37.05h0l.37.08h0l.36.09.37.11h0l.35.12.28.11h0l.12,0,.27.12a5.64,5.64,0,0,1,.55.29,1.13,1.13,0,0,1,.21.12l.17.1.06,0,.17.12.09.06a4.81,4.81,0,0,1,.53.45h0c0-.16-.06-.33-.1-.52s-.05-.22-.08-.32v0h0s0,0,0-.05h0l0-.1c0-.11-.07-.22-.11-.33a3.29,3.29,0,0,0-.23-.5.54.54,0,0,0-.07-.13h0l-.08-.11-.07-.09A10.54,10.54,0,0,0,202,176.1l-.22-.16-.12-.09-.06,0-.07-.05-.06,0,0,0-.32-.2-.37-.2-.17-.08-.23-.11h0l-.14-.06-.13,0-.21-.08h0l-.2-.07-.1,0-.3-.08-.18,0h-.11l-.18,0h0l-.13,0h0l-.12,0h-.48l-.3,0h-.15a.1.1,0,0,1-.08,0,0,0,0,0,1,0,0,3.34,3.34,0,0,0-.71,1l0,.07a2.85,2.85,0,0,0-.27,1.16A2.66,2.66,0,0,0,196.84,178.1Z"/><g class="cls-10"><path class="cls-7" d="M202.12,176.63a10.54,10.54,0,0,1,1.22,1.16,2.81,2.81,0,0,1,.44.81,3.61,3.61,0,0,0-.61-1.34A10.54,10.54,0,0,0,202,176.1a6.76,6.76,0,0,0-4.06-1.52C196.57,175.75,199,174.18,202.12,176.63Z"/></g><path class="cls-8" d="M196.84,178.1l0,0L197,178l0,0,.18-.11,0,0h0l.18-.08.05,0,0,0,.06,0,.11,0h0l.14,0,.13,0H198l.2,0,.57,0h.52l.36,0,.37.05h0l.37.08h0l.36.09.37.11h0l.35.12.28.11h0l.12,0,.27.12a5.64,5.64,0,0,1,.55.29,1.13,1.13,0,0,1,.21.12l.23.14.17.12.09.06a4.81,4.81,0,0,1,.53.45h0c0-.16-.06-.33-.1-.52s-.05-.22-.08-.32v0h0s0,0,0-.06l0-.1c0-.11-.07-.22-.11-.33l.06.26h0c0,.2.09.4.12.56a7.69,7.69,0,0,0-6-1.88,5.41,5.41,0,0,0-1.47-.38A2.66,2.66,0,0,0,196.84,178.1Z"/><path class="cls-11" d="M196.51,175.14l-.59.22c-.35.13-.66.23-.94.31a4.25,4.25,0,0,1-2,.26,3.94,3.94,0,0,1-1.64-1v-.05a.23.23,0,0,0,0-.09l0-.06-.08-.14,0-.05-.13-.21,0,0-.11-.19,0-.08-.06-.11-.06-.12,0-.1s0,0,0-.05,0,0,0,0,0-.1-.06-.15a.36.36,0,0,1,0-.11l-.09-.25a.36.36,0,0,1,0-.11s0-.08,0-.12l0-.12h0a.32.32,0,0,1,0-.09h0l-.08-.29h0l0-.11v-.06c0-.08,0-.16,0-.25h0s0-.06,0-.09,0-.18,0-.28a.17.17,0,0,0,0-.07h0c0-.14,0-.29,0-.43s0-.12,0-.19,0-.31,0-.47a.75.75,0,0,1,0-.15,1.77,1.77,0,0,1,0-.23c0-.06,0-.13,0-.2h0c0-.06,0-.11,0-.17s0-.11,0-.17v0l0-.19h0l0-.17c0-.05,0-.1,0-.15s0-.14,0-.21l.06-.14a.78.78,0,0,1,.05-.14l.06-.1h0l.06-.11a1.88,1.88,0,0,1,.16-.23.08.08,0,0,0,0,0l.06-.05a.12.12,0,0,1,.05,0l.06-.05.09-.06c2.32-1.41-1-.32,1.69,4,.11.18.22.34.32.49l.16.22.14.18a5.71,5.71,0,0,0,.8.82h0l.27.21c.17.13.34.24.51.35l.25.15a7.07,7.07,0,0,1,1,.71Z"/><g class="cls-10"><path class="cls-7" d="M196.05,174.8l.46.34-.59.22-.15-.1a5.61,5.61,0,0,0-.78-.58l-.57-.35c-.14-.09-.28-.18-.42-.29a5.49,5.49,0,0,1-1.16-1.16l-.06-.07-.16-.22c-.1-.15-.21-.31-.32-.49-2.66-4.28.63-5.37-1.69-4l-.12.09h0l-.17.16.06-.11.06-.11a1.88,1.88,0,0,1,.16-.23.08.08,0,0,0,0,0l.06-.05a.12.12,0,0,1,.05,0l.06-.05.09-.06c2.32-1.41-1-.32,1.69,4,.11.18.22.34.32.49l.16.22.14.18a5.71,5.71,0,0,0,.8.82h0l.27.21c.17.13.34.24.51.35l.25.15A7.07,7.07,0,0,1,196.05,174.8Z"/></g><path class="cls-8" d="M193,175.93a3.94,3.94,0,0,1-1.64-1v-.05a.23.23,0,0,0,0-.09l0-.06-.08-.14,0-.05-.13-.21,0,0-.11-.19,0-.08-.06-.11-.06-.12,0-.1s0,0,0-.05,0,0,0,0,0-.1-.06-.15a.36.36,0,0,1,0-.11l-.09-.25a.36.36,0,0,1,0-.11s0-.08,0-.12l0-.13a.32.32,0,0,1,0-.09h0l-.08-.29h0l0-.11v-.06c0-.08,0-.16,0-.25h0s0-.06,0-.09,0-.18,0-.28a.17.17,0,0,0,0-.07h0c0-.14,0-.29,0-.43s0-.12,0-.19,0-.31,0-.47a.75.75,0,0,1,0-.15,1.77,1.77,0,0,1,0-.23c0-.06,0-.13,0-.2h0c0-.06,0-.11,0-.17s0-.11,0-.17v0l0-.19h0l0-.17c0-.05,0-.1,0-.15s0-.14,0-.21l.06-.14a.78.78,0,0,1,.05-.14l.06-.1h0l.06-.11a1.88,1.88,0,0,1,.16-.23,2.47,2.47,0,0,0-.1.29,7.45,7.45,0,0,0,.08,3.74A10.07,10.07,0,0,1,193,175.93Z"/><g class="cls-10"><path class="cls-7" d="M196.05,174.8l.46.34-.59.22c-.35.13-.66.23-.94.31a1.15,1.15,0,0,1-.14-.19s-.16-.5-.42-1.15c-.11-.29-.24-.61-.4-1l.27.21c.17.13.34.24.51.35l.25.15A7.07,7.07,0,0,1,196.05,174.8Z"/></g><path class="cls-9" d="M202.75,164.62l0,.09,0,.16h0v0l0,.12,0,.13,0,.07h0l-.13.5h0v.05l0,.1h0l-.05.2,0,.12,0,.08h0s-.29-.11-.92.45l-.24.23-.1.11h0c-.05.06-.11.12-.16.19l-.06.07c-.12.14-.24.3-.37.47s-.27.4-.41.62h0l-.2.34a19.35,19.35,0,0,0-1,2.09c-.06.14-.12.28-.17.43a.87.87,0,0,0-.07.17h0l0,.09a.49.49,0,0,0,0,.11c-.06.14-.11.29-.16.43s0,.08,0,.13a13,13,0,0,0-.39,1.4,6.44,6.44,0,0,0-.17,1.06,1.67,1.67,0,0,1-.12.5.78.78,0,0,1-.32.35h0a1,1,0,0,1-.24.09l-.17,0h-.17a1.83,1.83,0,0,1-.4,0l-.15,0h0l-.11,0a4.33,4.33,0,0,1-.73-.31l-.05-.08h0l0-.06h0l-.08-.14-.09-.14-.09-.15-.4-.66-.07-.12,0,0-.28-.45-.08-.13,0,0-.16-.25.14-.08.12-.07a2.93,2.93,0,0,0,.56-.43h0l0,0h.06l.18-.09.1-.06h0l.17-.1,0,0,.07-.05.08-.06.05,0h0l.06,0h0a.39.39,0,0,1,.1-.08l.15-.14h0l.06-.06,0,0,.27-.27.07-.08.07-.08.08-.09.2-.25,0-.06,0,0,.09-.12a.83.83,0,0,1,.08-.12,1.43,1.43,0,0,0,.14-.2l0,0c.09-.12.17-.24.25-.37l.12-.17.23-.34v0l.2-.29,0-.06c.2-.29.39-.59.58-.88l.14-.2.1-.15.11-.15c.11-.17.23-.33.34-.48l.05-.07.09-.11a8,8,0,0,1,.57-.71l.1-.12c.1-.1.19-.2.29-.29l.08-.08.05,0,.07-.07.27-.22.11-.08h0l.14-.09,0,0c.11-.06.21-.13.32-.18l.05,0,0,0,.17-.07.07,0h0l.07,0,.15,0,.06,0h0l.07,0,.2,0h.36Z"/><path class="cls-12" d="M202.75,164.62l0,.09,0,.16h0v0l0,.09h0l-.2,0h-.15l-.15.05-.06,0H202l-.07,0-.17.08,0,0-.05,0-.32.19,0,0-.13.1h0l-.11.08-.26.23-.08.06-.05,0-.08.07-.28.3-.11.12c-.19.21-.38.45-.57.7l-.09.11-.05.07-.34.48-.11.15-.1.15-.13.21-.59.88,0,.05-.19.29v0l-.23.35-.12.17-.24.36,0,0-.13.2-.09.12-.09.12,0,0,0,.07c-.07.08-.13.17-.2.24l-.08.09a.27.27,0,0,1-.07.08l-.07.08-.27.27,0,0-.06.05h0l-.15.14-.1.08h0l-.06,0h0l-.05,0-.08.05-.07,0,0,0-.17.11h0l-.11.06a.76.76,0,0,1-.18.09h0l-.05,0h0a3,3,0,0,1-.56.44l-.12.07-.14.07.16.26,0,0,.08.12.28.46,0,0,.07.12.4.66.09.15.07.1,0,0-.05-.08h0l0-.06h0l-.08-.14-.09-.14-.09-.15-.4-.66-.07-.12,0,0-.28-.45-.08-.13,0,0-.16-.25.14-.08.12-.07a2.93,2.93,0,0,0,.56-.43h0l0,0h.06l.18-.09.1-.06h0l.17-.1,0,0,.07-.05.08-.06.05,0h0l.06,0h0a.39.39,0,0,1,.1-.08l.15-.14h0l.06-.06,0,0,.27-.27.07-.08.07-.08.08-.09.2-.25,0-.06,0,0,.09-.12a.83.83,0,0,1,.08-.12,1.43,1.43,0,0,0,.14-.2l0,0c.09-.12.17-.24.25-.37l.12-.17.23-.34v0l.2-.29,0-.06c.2-.29.39-.59.58-.88l.14-.2.1-.15.11-.15c.11-.17.23-.33.34-.48l.05-.07.09-.11a8,8,0,0,1,.57-.71l.1-.12c.1-.1.19-.2.29-.29l.08-.08.05,0,.07-.07.27-.22.11-.08h0l.14-.09,0,0c.11-.06.21-.13.32-.18l.05,0,0,0,.17-.07.07,0h0l.07,0,.15,0,.06,0h0l.07,0,.2,0h.36Z"/><g class="cls-5"><path class="cls-7" d="M202.59,165.23l-.07,0a3.71,3.71,0,0,0-.58.21,4.52,4.52,0,0,0-1.23.83,7.06,7.06,0,0,0-1.13,1.37,15.84,15.84,0,0,0-.93,1.68c-.29.58-.58,1.17-.9,1.75-.08.14-.16.28-.25.42l-.13.21-.13.21-.27.4-.15.18a1.39,1.39,0,0,1-.15.19,4.11,4.11,0,0,1-.62.63,2.81,2.81,0,0,1-.64.4,1.71,1.71,0,0,1-.7.14l-.2,0,0,0h.18a1.71,1.71,0,0,0,.75-.21,2.83,2.83,0,0,0,.62-.42,4.33,4.33,0,0,0,.58-.62,9.63,9.63,0,0,0,1-1.57c.31-.56.59-1.15.89-1.74l.45-.87.25-.43.26-.42a7.24,7.24,0,0,1,1.19-1.4,4.21,4.21,0,0,1,1.28-.8,3.14,3.14,0,0,1,.58-.16h.07Z"/><path class="cls-7" d="M202.45,165.78h-.07l-.22,0a1.27,1.27,0,0,0-.23.08,1.36,1.36,0,0,0-.25.11,1.2,1.2,0,0,0-.21.13l0,0-.24.18-.24.22-.23.25,0,0-.2.24-.12.14-.1.15a3.3,3.3,0,0,0-.22.3l-.21.31-.1.16-.1.16-.2.33-.2.34c-.06.11-.13.22-.19.34.05-.12.1-.24.16-.36a4,4,0,0,1,.17-.36l.15-.29,0-.06.09-.18.1-.17.21-.33.22-.32.11-.16.12-.15.24-.29a3.26,3.26,0,0,1,1-.82,1.58,1.58,0,0,1,.5-.12.65.65,0,0,1,.2,0h.06Z"/><path class="cls-7" d="M197.55,172.32a15,15,0,0,1-.84,1.33,8.17,8.17,0,0,1-1,1.12l-.27.23h0a1.33,1.33,0,0,1-.19.14l0-.08.14-.12h0c.11-.1.23-.2.34-.32a10.17,10.17,0,0,0,.91-1.11c.29-.4.57-.83.84-1.27s.54-.88.82-1.32C198.06,171.4,197.82,171.87,197.55,172.32Z"/><path class="cls-7" d="M196.32,172a4.05,4.05,0,0,1-.76.74,3.37,3.37,0,0,1-.78.43,3.17,3.17,0,0,1-.41.12l-.16,0-.1-.17.15-.05c.19,0,.37-.11.56-.18a7.15,7.15,0,0,0,.74-.36A6,6,0,0,0,196.32,172Z"/><path class="cls-7" d="M196.94,171.43a6.27,6.27,0,0,1,.3-.64c.1-.21.21-.42.33-.62s.24-.39.37-.58.26-.37.4-.54c-.1.22-.21.42-.32.63l-.34.59-.36.59C197.2,171.05,197.08,171.24,196.94,171.43Z"/><path class="cls-7" d="M202.64,165l-.07,0-.07,0a4.93,4.93,0,0,0-.67.24,7.17,7.17,0,0,0-.67.35l-.7.45a5.66,5.66,0,0,1,.7-.62,4.32,4.32,0,0,1,.7-.42l.31-.11.37-.09h.15l0,0Z"/><path class="cls-7" d="M198.84,170.43c-.09.16-.17.32-.25.49s-.16.33-.23.49-.13.33-.19.5l-.18.52c-.12.34-.25.69-.39,1s-.27.68-.43,1c.09-.35.2-.69.32-1s.23-.69.35-1,.25-.69.42-1c.08-.17.18-.34.27-.49A5.09,5.09,0,0,1,198.84,170.43Z"/><path class="cls-7" d="M196.35,175.31a2.2,2.2,0,0,1-.15.26l-.13,0,.14-.25c0-.06.07-.12.1-.19a7.31,7.31,0,0,0,.4-1,4.67,4.67,0,0,1,.23-.51,2,2,0,0,1,.31-.42,2.55,2.55,0,0,0-.25.46,3.39,3.39,0,0,0-.17.48l-.17.51c-.07.17-.15.34-.23.51S196.38,175.26,196.35,175.31Z"/><path class="cls-7" d="M197.09,175.63l-.17,0,.15-.32c.05-.12.11-.25.16-.38s.2-.55.3-.84a4.67,4.67,0,0,1-.19.85c0,.11-.07.22-.11.33S197.14,175.52,197.09,175.63Z"/><path class="cls-7" d="M198.36,170.54a1.42,1.42,0,0,1,0-.2,1.3,1.3,0,0,1,.08-.17.71.71,0,0,1,.1-.14.75.75,0,0,1,.12-.14.46.46,0,0,1,0,.2.89.89,0,0,1-.08.17,1.3,1.3,0,0,1-.1.15A.4.4,0,0,1,198.36,170.54Z"/><path class="cls-7" d="M202.38,166.08a1.66,1.66,0,0,0-.59.15,1.63,1.63,0,0,0-.34.19,2.86,2.86,0,0,0-.3.22,4.06,4.06,0,0,0-.62.67,3,3,0,0,1,.59-.82,2.54,2.54,0,0,1,.7-.5,1.39,1.39,0,0,1,.54-.12h.07Z"/></g><g class="cls-13"><path class="cls-7" d="M202.75,164.62l0,.09,0,.16h0v0h-.06l-.2,0h-.11l-.13,0h0c-1.91.4-3.28,2.9-4.77,5.12l-.31.45-.11.15a6.47,6.47,0,0,1-1.4,1.5,4.44,4.44,0,0,1-.46.3,2.65,2.65,0,0,1-.91.3,2.93,2.93,0,0,0,.56-.43h0l0,0,.06,0,.18-.09.1-.06h0l.17-.1,0,0,.07-.05.08-.06.05,0h0l.07-.05h0a.39.39,0,0,1,.1-.08l.15-.14h0l.1-.09.27-.27.07-.08.07-.08.08-.09.2-.25,0-.06,0,0,.09-.12a.83.83,0,0,1,.08-.12,1.43,1.43,0,0,0,.14-.2l0,0c.09-.12.17-.24.25-.37l.12-.17.23-.34.23-.37c.2-.29.39-.59.58-.88l.14-.2.1-.15.11-.15c.11-.17.23-.33.34-.48l.05-.07.09-.11a8,8,0,0,1,.57-.71l.1-.12c.1-.1.19-.2.29-.29l.08-.08.05,0,.07-.07.27-.22.11-.08h0l.07-.05,0,0,0,0,.15-.1,0,0,.2-.11,0,0,.17-.07.07,0h0l.07,0,.15,0,.08,0,.07,0,.2,0h.36Z"/></g><g class="cls-13"><path d="M202.75,164.62l0,.09,0,.16,0,0,0,.12,0,.13,0,.07h0l-.13.5h0v.05l0,.1h0l-.05.2,0,.12,0,.08h0s-.29-.11-.92.45l-.24.23-.1.11h0c-.05.06-.11.12-.16.19l-.06.07c-.12.14-.24.3-.37.48s-.27.39-.41.61h0l-.2.34a19.35,19.35,0,0,0-1,2.09c-.06.14-.12.28-.17.43a.87.87,0,0,0-.07.17h0l0,.09a.49.49,0,0,0,0,.11c-.06.14-.11.29-.16.43s0,.08,0,.13a13,13,0,0,0-.39,1.4,6.44,6.44,0,0,0-.17,1.06,1.67,1.67,0,0,1-.12.5.78.78,0,0,1-.32.35h0a1,1,0,0,1-.24.09l-.17,0h-.17a1.83,1.83,0,0,1-.4,0l-.15,0h0l-.11,0a4.33,4.33,0,0,1-.73-.31l-.05-.08h0l0-.06h0l-.08-.14-.09-.14-.09-.15-.4-.66-.07-.12,0,0-.28-.45-.08-.13,0,0-.16-.25.14-.08.17.28v0l.1.16.3.5,0,.05,0,0,.63,1h0l.06,0,0,0h0a6.37,6.37,0,0,0,.73.28h0l.09,0,.12,0a1.73,1.73,0,0,0,.6,0l.16,0a.72.72,0,0,0,.37-.32,1.18,1.18,0,0,0,.18-.59,7.81,7.81,0,0,1,.14-1,14.37,14.37,0,0,1,.41-1.47h0c0-.11.07-.23.11-.35l0-.06.09-.26h0a16.82,16.82,0,0,1,1.91-3.75,6.47,6.47,0,0,1,1-1.1,1.67,1.67,0,0,1,.67-.41h.06a.29.29,0,0,1,.15,0l0-.13,0-.08,0,0v0l.12-.47,0-.07,0-.12,0-.15v0l0-.12,0-.09h0v0Z"/></g><g class="cls-14"><path d="M197.09,175.63l-.17,0a2.24,2.24,0,0,1-.57,0l.12-.27a31.5,31.5,0,0,0,1.12-3.08c.06-.16.11-.32.17-.47a13.41,13.41,0,0,1,.88-2,16.79,16.79,0,0,1,.9-1.46,12.82,12.82,0,0,1,1.16-1.46,6.1,6.1,0,0,1,.77-.7,1.77,1.77,0,0,1,.93-.4h.06v.05l0,.1h0l-.05.2-.06.21h0s-.59-.21-1.85,1.53c-.14.18-.27.39-.41.61h0l-.2.34a20.12,20.12,0,0,0-1,2.08c-.06.15-.12.29-.17.44s-.1.24-.14.37-.11.29-.16.43,0,.08,0,.13a10.44,10.44,0,0,0-.56,2.46C197.72,175.28,197.44,175.55,197.09,175.63Z"/></g><path class="cls-15" d="M202.18,166.18l.12.1h0l.26-.13a.63.63,0,0,0,.27-.37l.19-.67c0-.16,0-.29-.06-.33l-.25-.16-.25.12a.64.64,0,0,0-.27.36l-.06.15a1.31,1.31,0,0,0-.07.5l0,.29A.26.26,0,0,0,202.18,166.18Z"/><g class="cls-10"><path class="cls-7" d="M202.32,166.28h0l-.12-.1a.26.26,0,0,1-.06-.14l0-.29a1.31,1.31,0,0,1,.07-.5l.06-.15a.64.64,0,0,1,.27-.36l.25-.12.25.16,0,0-.22-.13-.25.12a.69.69,0,0,0-.27.36l0,.15a1.14,1.14,0,0,0-.07.5l0,.28c0,.07,0,.12.06.14Z"/></g><g class="cls-10"><path d="M202.6,166.15l-.26.13h0l-.06,0h0l.26-.13a.56.56,0,0,0,.26-.37l.19-.67a.32.32,0,0,0,0-.31l0,0c.08,0,.1.17.06.33l-.19.67A.63.63,0,0,1,202.6,166.15Z"/></g><path class="cls-16" d="M198.74,190.74c-.05.16-.11.31-.16.47-3.11,8.41-15.8,11.7-19.35,10.56a3.52,3.52,0,0,1-.63-.27c-1.38-.75-2.21-2.32-2.64-4.3a25.43,25.43,0,0,1-.2-7.7,39.49,39.49,0,0,1,1.51-7.58c1.62-5.06,4.49-8.44,10.84-7a16.13,16.13,0,0,1,1.6.44c.3.09.59.2.88.31h0c.29.12.57.25.85.39a11.12,11.12,0,0,1,2.4,1.59l1.3,1.13c1.85,1.62,3.74,3.41,4.35,5.62a5.5,5.5,0,0,1,.14,2.37A24.86,24.86,0,0,1,198.74,190.74Z"/><path class="cls-17" d="M179.08,200.17c-.15.25-.36.41-.47.34s-.07-.32.08-.57.36-.4.46-.34S179.23,199.92,179.08,200.17Z"/><path class="cls-18" d="M179.21,199.72a.1.1,0,0,0,0-.05c-.11-.06-.32.09-.46.34a.77.77,0,0,0-.14.45.67.67,0,0,1,.12-.52c.15-.25.36-.4.46-.34A.13.13,0,0,1,179.21,199.72Z"/><path class="cls-19" d="M179.08,200.17c-.15.25-.36.41-.47.34a.17.17,0,0,1-.06-.11l0,0c.11.06.32-.09.47-.34a.85.85,0,0,0,.14-.46A.71.71,0,0,1,179.08,200.17Z"/><path class="cls-20" d="M179,200.13c-.08.13-.19.21-.24.17s0-.16,0-.29.19-.21.24-.18S179.05,200,179,200.13Z"/><g class="cls-10"><path class="cls-7" d="M179,200h0c-.06,0-.16,0-.24.17a.77.77,0,0,0-.06.15s0-.16.05-.28.19-.21.24-.18S179.05,199.91,179,200Z"/></g><path class="cls-17" d="M184,196c-.31.51-.73.81-.94.69s-.15-.65.16-1.15.72-.82.93-.69S184.26,195.52,184,196Z"/><path class="cls-18" d="M184.23,195.12a.24.24,0,0,0-.08-.11c-.22-.13-.64.18-.94.69a1.64,1.64,0,0,0-.28.91,1.36,1.36,0,0,1,.25-1c.3-.51.72-.82.93-.69A.3.3,0,0,1,184.23,195.12Z"/><path class="cls-19" d="M184,196c-.31.51-.73.81-.94.69a.31.31,0,0,1-.12-.24.18.18,0,0,0,.09.1c.21.13.63-.17.93-.68a1.65,1.65,0,0,0,.28-.92A1.4,1.4,0,0,1,184,196Z"/><path class="cls-20" d="M183.74,195.93c-.16.27-.37.43-.48.36s-.07-.32.09-.59.37-.42.48-.36S183.9,195.67,183.74,195.93Z"/><g class="cls-10"><path class="cls-7" d="M183.86,195.64l0,0c-.11-.06-.32.1-.48.36a1.82,1.82,0,0,0-.13.3c-.07-.09,0-.33.12-.57s.37-.42.48-.36S183.9,195.5,183.86,195.64Z"/></g><path class="cls-17" d="M191.26,182.26c-.2.34-.48.54-.62.45s-.1-.42.1-.76.48-.53.62-.45S191.46,181.93,191.26,182.26Z"/><path class="cls-18" d="M191.44,181.66a.11.11,0,0,0-.06-.07c-.14-.09-.42.12-.62.45a1.11,1.11,0,0,0-.18.61.94.94,0,0,1,.16-.7c.2-.33.48-.53.62-.45A.19.19,0,0,1,191.44,181.66Z"/><path class="cls-19" d="M191.26,182.26c-.2.34-.48.54-.62.45a.15.15,0,0,1-.08-.15.18.18,0,0,0,.05.07c.15.08.42-.12.62-.46a1.09,1.09,0,0,0,.19-.6A.91.91,0,0,1,191.26,182.26Z"/><path class="cls-20" d="M191.11,182.2c-.1.17-.24.28-.31.24s-.05-.22,0-.4.25-.28.32-.23S191.22,182,191.11,182.2Z"/><g class="cls-10"><path class="cls-7" d="M191.2,182s0,0,0,0-.22.07-.32.24a.64.64,0,0,0-.08.2c-.05-.06,0-.22.07-.38s.25-.28.32-.23S191.22,181.91,191.2,182Z"/></g><path class="cls-17" d="M198.19,187.56c-.28.46-.66.74-.86.62s-.13-.58.15-1.05.66-.74.85-.62S198.46,187.09,198.19,187.56Z"/><path class="cls-18" d="M198.44,186.72a.18.18,0,0,0-.08-.09c-.19-.12-.58.16-.85.62a1.53,1.53,0,0,0-.26.84,1.27,1.27,0,0,1,.23-1c.27-.46.66-.74.85-.62S198.43,186.62,198.44,186.72Z"/><path class="cls-19" d="M198.19,187.56c-.28.46-.66.74-.86.62a.26.26,0,0,1-.11-.21.24.24,0,0,0,.08.09c.2.12.58-.16.86-.62a1.51,1.51,0,0,0,.25-.84A1.25,1.25,0,0,1,198.19,187.56Z"/><path class="cls-20" d="M198,187.47c-.14.24-.34.39-.44.33s-.06-.3.08-.54.34-.39.44-.33S198.13,187.23,198,187.47Z"/><g class="cls-10"><path class="cls-7" d="M198.11,187.2l0,0c-.1,0-.29.09-.44.33a1.24,1.24,0,0,0-.11.28c-.07-.09,0-.31.1-.52s.34-.39.44-.33S198.14,187.07,198.11,187.2Z"/></g><path class="cls-17" d="M189.32,189.89c-.3.5-.71.81-.93.68s-.14-.64.16-1.14.71-.81.93-.68S189.62,189.39,189.32,189.89Z"/><path class="cls-18" d="M189.6,189a.18.18,0,0,0-.09-.1c-.21-.13-.63.18-.93.68a1.7,1.7,0,0,0-.28.91,1.35,1.35,0,0,1,.25-1c.3-.51.71-.81.93-.68A.28.28,0,0,1,189.6,189Z"/><path class="cls-19" d="M189.32,189.89c-.3.5-.72.81-.93.68a.29.29,0,0,1-.12-.23.22.22,0,0,0,.09.1c.21.13.63-.18.93-.68a1.73,1.73,0,0,0,.28-.91A1.35,1.35,0,0,1,189.32,189.89Z"/><path class="cls-20" d="M189.11,189.79c-.16.26-.37.42-.48.36s-.07-.33.09-.59.37-.42.47-.35S189.26,189.53,189.11,189.79Z"/><g class="cls-10"><path class="cls-7" d="M189.23,189.5l0,0c-.1-.06-.31.1-.47.36a1.51,1.51,0,0,0-.13.3c-.07-.09,0-.33.12-.57s.37-.42.47-.35S189.27,189.36,189.23,189.5Z"/></g><path class="cls-17" d="M188.15,182.34c-.27.45-.64.72-.83.6s-.13-.57.14-1,.64-.72.83-.6S188.42,181.89,188.15,182.34Z"/><path class="cls-18" d="M188.4,181.52a.18.18,0,0,0-.08-.09c-.19-.11-.56.16-.83.61a1.51,1.51,0,0,0-.25.81,1.23,1.23,0,0,1,.22-.93c.27-.45.64-.72.83-.6A.25.25,0,0,1,188.4,181.52Z"/><path class="cls-19" d="M188.15,182.34c-.27.45-.64.72-.83.6a.25.25,0,0,1-.11-.2.24.24,0,0,0,.08.09c.19.11.57-.16.83-.61a1.41,1.41,0,0,0,.25-.81A1.23,1.23,0,0,1,188.15,182.34Z"/><path class="cls-20" d="M188,182.25c-.14.23-.33.38-.42.32s-.06-.29.07-.52.33-.38.43-.32S188.1,182,188,182.25Z"/><g class="cls-10"><path class="cls-7" d="M188.07,182s0,0,0,0-.29.08-.43.32a1.12,1.12,0,0,0-.11.26c-.06-.08,0-.29.1-.5s.33-.38.43-.32S188.11,181.86,188.07,182Z"/></g><path class="cls-17" d="M180.91,186c-.23.39-.55.62-.72.52s-.11-.49.12-.88.56-.63.72-.53S181.14,185.6,180.91,186Z"/><path class="cls-18" d="M181.13,185.28a.27.27,0,0,0-.07-.08c-.17-.1-.49.14-.72.53a1.33,1.33,0,0,0-.22.7,1,1,0,0,1,.19-.8c.23-.39.56-.63.72-.53A.22.22,0,0,1,181.13,185.28Z"/><path class="cls-19" d="M180.91,186c-.23.39-.55.62-.72.52a.22.22,0,0,1-.09-.18.17.17,0,0,0,.06.08c.17.1.49-.13.73-.53a1.28,1.28,0,0,0,.21-.7A1.07,1.07,0,0,1,180.91,186Z"/><path class="cls-20" d="M180.74,185.91c-.12.2-.28.33-.36.28s-.06-.25.06-.46.29-.32.37-.27S180.86,185.71,180.74,185.91Z"/><g class="cls-10"><path class="cls-7" d="M180.84,185.68l0,0c-.08,0-.25.08-.37.28a.89.89,0,0,0-.1.23c0-.07,0-.25.09-.44s.29-.32.37-.27S180.87,185.57,180.84,185.68Z"/></g><path class="cls-17" d="M186.28,192.32c-.25.43-.61.69-.8.58s-.12-.55.14-1,.61-.69.8-.58S186.54,191.88,186.28,192.32Z"/><path class="cls-18" d="M186.52,191.54a.22.22,0,0,0-.07-.09c-.19-.11-.55.15-.8.58a1.4,1.4,0,0,0-.24.78,1.17,1.17,0,0,1,.21-.89c.26-.43.61-.69.8-.58A.23.23,0,0,1,186.52,191.54Z"/><path class="cls-19" d="M186.28,192.32c-.25.43-.61.69-.8.58a.23.23,0,0,1-.1-.2.18.18,0,0,0,.08.09c.18.11.54-.15.8-.59a1.41,1.41,0,0,0,.23-.78A1.18,1.18,0,0,1,186.28,192.32Z"/><path class="cls-20" d="M186.1,192.24c-.14.22-.32.36-.41.3s-.06-.28.08-.5.31-.37.4-.31S186.23,192,186.1,192.24Z"/><g class="cls-10"><path class="cls-7" d="M186.21,192l0,0c-.09-.05-.27.08-.41.31a1,1,0,0,0-.1.25c-.06-.08,0-.28.1-.48s.31-.36.4-.31S186.24,191.86,186.21,192Z"/></g><path class="cls-17" d="M193.44,196c-.19.3-.44.49-.57.41s-.09-.39.1-.69.43-.49.56-.42S193.62,195.64,193.44,196Z"/><path class="cls-18" d="M193.6,195.4a.18.18,0,0,0,0-.07c-.13-.07-.38.11-.56.42a1,1,0,0,0-.17.55.8.8,0,0,1,.15-.63c.18-.31.43-.49.56-.42A.18.18,0,0,1,193.6,195.4Z"/><path class="cls-19" d="M193.44,196c-.19.3-.44.49-.57.41a.19.19,0,0,1-.07-.14.1.1,0,0,0,0,.06c.13.08.38-.11.57-.41a1,1,0,0,0,.16-.55A.79.79,0,0,1,193.44,196Z"/><path class="cls-20" d="M193.31,195.89c-.1.16-.23.25-.29.22s0-.2,0-.36.22-.26.29-.22S193.4,195.73,193.31,195.89Z"/><g class="cls-10"><path class="cls-7" d="M193.38,195.71s0,0,0,0-.2.06-.29.22a.55.55,0,0,0-.08.18c0-.05,0-.2.07-.34s.22-.26.29-.22S193.4,195.62,193.38,195.71Z"/></g><path class="cls-17" d="M188.87,186c-.25.41-.59.67-.77.56s-.12-.53.13-.94.59-.67.77-.56S189.12,185.59,188.87,186Z"/><path class="cls-18" d="M189.1,185.26a.22.22,0,0,0-.07-.09c-.18-.1-.52.15-.77.57a1.33,1.33,0,0,0-.23.75,1.11,1.11,0,0,1,.2-.86c.25-.42.59-.67.77-.56A.22.22,0,0,1,189.1,185.26Z"/><path class="cls-19" d="M188.87,186c-.25.42-.59.67-.77.56a.25.25,0,0,1-.1-.19s0,.07.08.08.52-.14.76-.56a1.33,1.33,0,0,0,.23-.75A1.11,1.11,0,0,1,188.87,186Z"/><path class="cls-20" d="M188.69,185.93c-.13.22-.3.35-.39.3s-.05-.27.07-.49.31-.35.4-.3S188.82,185.71,188.69,185.93Z"/><g class="cls-10"><path class="cls-7" d="M188.8,185.69l0,0c-.08-.06-.26.08-.39.29a1,1,0,0,0-.1.25c-.06-.08,0-.28.09-.47s.31-.35.4-.29S188.83,185.57,188.8,185.69Z"/></g><path class="cls-17" d="M195.05,189.1c-.18.31-.45.51-.58.43s-.09-.41.1-.72.45-.51.58-.43S195.24,188.78,195.05,189.1Z"/><path class="cls-18" d="M195.23,188.53a.11.11,0,0,0-.06-.07c-.13-.08-.39.11-.58.43a1.06,1.06,0,0,0-.18.57.87.87,0,0,1,.16-.65c.19-.32.45-.51.58-.43S195.22,188.46,195.23,188.53Z"/><path class="cls-19" d="M195.05,189.1c-.18.32-.45.51-.58.43a.22.22,0,0,1-.08-.15s0,.05.06.06.4-.11.58-.42a1.09,1.09,0,0,0,.18-.58A.84.84,0,0,1,195.05,189.1Z"/><path class="cls-20" d="M194.92,189c-.1.16-.23.26-.3.22s0-.2.06-.37.23-.26.29-.22S195,188.87,194.92,189Z"/><g class="cls-10"><path class="cls-7" d="M195,188.85h0c-.07,0-.2.06-.3.22a1,1,0,0,0-.08.19c0-.06,0-.21.08-.36s.23-.26.29-.22S195,188.76,195,188.85Z"/></g><path class="cls-17" d="M179.62,190.68c-.16.28-.4.45-.51.37s-.08-.35.08-.63.4-.45.52-.38S179.79,190.4,179.62,190.68Z"/><path class="cls-18" d="M179.78,190.17l-.05-.06c-.12-.07-.35.1-.52.38a.88.88,0,0,0-.15.51.74.74,0,0,1,.13-.58c.17-.28.4-.45.52-.38A.17.17,0,0,1,179.78,190.17Z"/><path class="cls-19" d="M179.62,190.68c-.16.28-.4.45-.51.37a.13.13,0,0,1-.07-.13.1.1,0,0,0,.05.06c.12.07.35-.1.51-.38a.9.9,0,0,0,.16-.5A.76.76,0,0,1,179.62,190.68Z"/><path class="cls-20" d="M179.5,190.62c-.08.15-.2.24-.26.2s0-.18,0-.33.2-.23.26-.19S179.59,190.48,179.5,190.62Z"/><g class="cls-10"><path class="cls-7" d="M179.57,190.46s0,0,0,0-.18.06-.27.2,0,.12-.07.17,0-.18.07-.32.2-.23.26-.19S179.59,190.38,179.57,190.46Z"/></g><path class="cls-17" d="M180.68,179.43c-.22.36-.51.57-.67.48s-.1-.45.12-.81.5-.57.66-.48S180.89,179.07,180.68,179.43Z"/><path class="cls-18" d="M180.87,178.78a.11.11,0,0,0-.06-.07c-.15-.09-.45.13-.66.48a1.22,1.22,0,0,0-.2.65,1,1,0,0,1,.18-.74c.21-.36.5-.57.66-.48A.19.19,0,0,1,180.87,178.78Z"/><path class="cls-19" d="M180.68,179.43c-.22.36-.51.57-.67.48a.24.24,0,0,1-.08-.16.13.13,0,0,0,.06.07c.15.09.45-.13.66-.49a1.17,1.17,0,0,0,.2-.64A1,1,0,0,1,180.68,179.43Z"/><path class="cls-20" d="M180.52,179.36c-.11.19-.26.3-.34.25s0-.23.07-.41.26-.3.34-.26S180.63,179.17,180.52,179.36Z"/><g class="cls-10"><path class="cls-7" d="M180.61,179.15s0,0,0,0-.23.07-.34.26a1,1,0,0,0-.09.21c0-.07,0-.24.09-.4s.26-.3.33-.26S180.64,179.05,180.61,179.15Z"/></g><path class="cls-17" d="M196.92,192.06c-.3.51-.72.81-.94.68s-.14-.64.16-1.15.72-.81.94-.68S197.22,191.55,196.92,192.06Z"/><path class="cls-18" d="M197.2,191.14a.22.22,0,0,0-.09-.1c-.22-.13-.64.18-.94.69a1.7,1.7,0,0,0-.28.91,1.38,1.38,0,0,1,.25-1c.3-.51.72-.81.94-.68A.28.28,0,0,1,197.2,191.14Z"/><path class="cls-19" d="M196.92,192.06c-.3.51-.72.81-.94.68a.28.28,0,0,1-.12-.23.18.18,0,0,0,.09.1c.21.13.63-.18.94-.68a1.64,1.64,0,0,0,.27-.92A1.32,1.32,0,0,1,196.92,192.06Z"/><path class="cls-20" d="M196.7,192c-.16.27-.37.43-.48.36s-.07-.33.09-.59.37-.43.48-.36S196.86,191.7,196.7,192Z"/><g class="cls-10"><path class="cls-7" d="M196.83,191.66l0,0c-.11-.07-.32.1-.48.36a1.51,1.51,0,0,0-.13.3c-.07-.09,0-.33.12-.57s.37-.42.48-.36S196.87,191.52,196.83,191.66Z"/></g><path class="cls-17" d="M177.51,193.1c-.18.3-.42.47-.54.4s-.09-.37.09-.67.42-.47.54-.4S177.68,192.81,177.51,193.1Z"/><path class="cls-18" d="M177.67,192.57a.1.1,0,0,0,0-.06c-.12-.07-.37.1-.54.4a.9.9,0,0,0-.16.53.74.74,0,0,1,.14-.61c.17-.29.42-.47.54-.4A.21.21,0,0,1,177.67,192.57Z"/><path class="cls-19" d="M177.51,193.1c-.18.3-.42.47-.54.4a.16.16,0,0,1-.07-.14.1.1,0,0,0,0,.06c.12.08.37-.1.54-.4a.87.87,0,0,0,.16-.53A.78.78,0,0,1,177.51,193.1Z"/><path class="cls-20" d="M177.38,193.05c-.09.15-.21.24-.27.2s0-.19,0-.34.21-.24.28-.21S177.47,192.89,177.38,193.05Z"/><g class="cls-10"><path class="cls-7" d="M177.46,192.87h0c-.06,0-.19.06-.28.21a.77.77,0,0,0-.07.17c0-.05,0-.19.07-.33s.21-.24.27-.21S177.48,192.79,177.46,192.87Z"/></g><path class="cls-17" d="M179,183.5c-.3.5-.71.8-.92.68s-.15-.64.15-1.14.71-.8.93-.67S179.31,183,179,183.5Z"/><path class="cls-18" d="M179.28,182.6a.14.14,0,0,0-.08-.1c-.21-.13-.63.17-.93.67a1.68,1.68,0,0,0-.27.91,1.38,1.38,0,0,1,.24-1c.3-.5.71-.8.93-.67A.3.3,0,0,1,179.28,182.6Z"/><path class="cls-19" d="M179,183.5c-.3.5-.71.8-.92.68A.29.29,0,0,1,178,184a.27.27,0,0,0,.08.1c.22.12.63-.18.93-.68a1.67,1.67,0,0,0,.27-.9A1.36,1.36,0,0,1,179,183.5Z"/><path class="cls-20" d="M178.8,183.41c-.16.26-.37.42-.48.35s-.06-.32.09-.58.37-.42.47-.36S179,183.15,178.8,183.41Z"/><g class="cls-10"><path class="cls-7" d="M178.92,183.11l0,0c-.1-.06-.31.1-.47.36a1,1,0,0,0-.12.29c-.07-.09,0-.33.11-.56s.37-.42.47-.36S179,183,178.92,183.11Z"/></g><path class="cls-17" d="M177.77,188.24c-.16.27-.39.44-.51.37s-.07-.35.09-.62.39-.44.5-.37S177.93,188,177.77,188.24Z"/><path class="cls-18" d="M177.92,187.75a.1.1,0,0,0,0-.06c-.11-.07-.34.1-.5.37a.84.84,0,0,0-.15.49.74.74,0,0,1,.13-.56c.16-.27.39-.44.5-.37A.17.17,0,0,1,177.92,187.75Z"/><path class="cls-19" d="M177.77,188.24c-.16.27-.39.44-.51.37a.2.2,0,0,1-.06-.13.1.1,0,0,0,.05.06c.11.07.34-.1.5-.37a.93.93,0,0,0,.15-.49A.74.74,0,0,1,177.77,188.24Z"/><path class="cls-20" d="M177.65,188.19c-.08.14-.2.23-.26.19s0-.17.05-.32.2-.23.26-.19S177.74,188.05,177.65,188.19Z"/><g class="cls-10"><path class="cls-7" d="M177.72,188s0,0,0,0-.18.06-.26.2a.56.56,0,0,0-.07.16c0-.05,0-.18.06-.31s.2-.23.26-.19S177.74,188,177.72,188Z"/></g><path class="cls-17" d="M180.46,195c-.18.29-.42.47-.54.4s-.09-.37.09-.67.41-.47.54-.39S180.63,194.72,180.46,195Z"/><path class="cls-18" d="M180.62,194.48l-.05-.06c-.13-.07-.37.11-.54.4a.9.9,0,0,0-.16.53.74.74,0,0,1,.14-.61c.17-.29.41-.46.54-.39A.17.17,0,0,1,180.62,194.48Z"/><path class="cls-19" d="M180.46,195c-.18.29-.42.47-.54.4a.17.17,0,0,1-.07-.14s0,0,.05.06.36-.1.54-.39a1.08,1.08,0,0,0,.16-.53A.8.8,0,0,1,180.46,195Z"/><path class="cls-20" d="M180.33,195c-.09.15-.21.24-.28.2s0-.19.06-.34.21-.24.27-.2S180.42,194.8,180.33,195Z"/><g class="cls-10"><path class="cls-7" d="M180.4,194.78h0c-.06,0-.19.06-.28.21a.77.77,0,0,0-.07.17c0-.05,0-.19.07-.33s.21-.24.27-.2S180.42,194.7,180.4,194.78Z"/></g><path class="cls-17" d="M192.2,185.69c-.18.29-.42.47-.54.39s-.08-.36.09-.66.41-.46.54-.39S192.37,185.4,192.2,185.69Z"/><path class="cls-18" d="M192.36,185.17a.1.1,0,0,0-.05-.06c-.13-.08-.37.1-.54.39a1,1,0,0,0-.16.53.78.78,0,0,1,.14-.61c.17-.29.41-.46.54-.39S192.35,185.1,192.36,185.17Z"/><path class="cls-19" d="M192.2,185.69c-.18.29-.42.47-.54.39a.17.17,0,0,1-.07-.13.1.1,0,0,0,0,.06c.12.07.36-.1.54-.39a1,1,0,0,0,.16-.53A.8.8,0,0,1,192.2,185.69Z"/><path class="cls-20" d="M192.07,185.64c-.09.15-.21.24-.27.2s0-.19,0-.34.21-.24.27-.2S192.16,185.48,192.07,185.64Z"/><g class="cls-10"><path class="cls-7" d="M192.15,185.47l0,0c-.06,0-.19.06-.28.21s0,.12-.07.17,0-.19.07-.33.21-.24.27-.2S192.17,185.38,192.15,185.47Z"/></g><path class="cls-17" d="M185.81,188.44c-.15.27-.37.43-.48.36s-.08-.34.08-.6.37-.42.49-.36S186,188.18,185.81,188.44Z"/><path class="cls-18" d="M186,188a.1.1,0,0,0-.05-.06c-.11-.07-.33.09-.49.36a.94.94,0,0,0-.14.48.71.71,0,0,1,.13-.55c.16-.26.37-.42.49-.36A.2.2,0,0,1,186,188Z"/><path class="cls-19" d="M185.81,188.44c-.15.27-.37.43-.48.36a.16.16,0,0,1-.07-.12.12.12,0,0,0,.05,0c.11.07.33-.09.49-.36a.91.91,0,0,0,.14-.47A.68.68,0,0,1,185.81,188.44Z"/><path class="cls-20" d="M185.7,188.39c-.08.14-.19.22-.25.19s0-.17.05-.31.19-.22.25-.19S185.78,188.26,185.7,188.39Z"/><g class="cls-10"><path class="cls-7" d="M185.77,188.24l0,0c-.05,0-.16.06-.25.19a.64.64,0,0,0-.06.16s0-.18.06-.3.19-.22.25-.19S185.79,188.16,185.77,188.24Z"/></g><path class="cls-17" d="M187.18,198.81c-.19.32-.45.51-.59.43s-.09-.41.1-.73.45-.51.59-.43S187.37,198.49,187.18,198.81Z"/><path class="cls-18" d="M187.36,198.23a.2.2,0,0,0-.06-.07c-.13-.08-.4.12-.59.44a1.06,1.06,0,0,0-.18.57.85.85,0,0,1,.16-.66c.19-.32.45-.51.59-.43A.22.22,0,0,1,187.36,198.23Z"/><path class="cls-19" d="M187.18,198.81c-.19.32-.46.51-.59.43a.22.22,0,0,1-.08-.15.2.2,0,0,0,.06.07c.13.08.4-.12.59-.44a1.07,1.07,0,0,0,.18-.58A.87.87,0,0,1,187.18,198.81Z"/><path class="cls-20" d="M187,198.75c-.09.16-.23.26-.3.22s0-.2.06-.37.23-.27.3-.23S187.14,198.58,187,198.75Z"/><g class="cls-10"><path class="cls-7" d="M187.12,198.56s0,0,0,0-.21.06-.31.23-.06.13-.08.19,0-.21.08-.36.23-.27.3-.23S187.15,198.47,187.12,198.56Z"/></g><path class="cls-17" d="M190.94,178.31c-.2.34-.48.55-.63.47s-.1-.44.11-.78.48-.55.63-.46S191.15,178,190.94,178.31Z"/><path class="cls-18" d="M191.13,177.7a.09.09,0,0,0-.06-.07c-.14-.09-.43.12-.63.46a1.15,1.15,0,0,0-.19.62.93.93,0,0,1,.17-.71c.2-.34.49-.55.63-.46S191.12,177.62,191.13,177.7Z"/><path class="cls-19" d="M190.94,178.31c-.2.34-.48.55-.63.47a.24.24,0,0,1-.08-.16.13.13,0,0,0,.06.07c.14.08.43-.12.63-.47a1.06,1.06,0,0,0,.19-.61A.91.91,0,0,1,190.94,178.31Z"/><path class="cls-20" d="M190.8,178.25c-.11.18-.25.28-.33.24s0-.22.06-.4.26-.29.33-.24S190.9,178.07,190.8,178.25Z"/><g class="cls-10"><path class="cls-7" d="M190.88,178.05a0,0,0,0,0,0,0c-.07,0-.21.07-.32.24a.64.64,0,0,0-.08.2c-.05-.06,0-.22.07-.38s.25-.28.33-.24S190.91,178,190.88,178.05Z"/></g><path class="cls-17" d="M190.24,197.69c-.26.42-.6.68-.78.57s-.12-.54.13-1,.6-.67.78-.57S190.49,197.27,190.24,197.69Z"/><path class="cls-18" d="M190.47,196.93a.18.18,0,0,0-.08-.09c-.17-.1-.52.15-.78.57a1.38,1.38,0,0,0-.23.76,1.12,1.12,0,0,1,.21-.87c.25-.42.6-.67.78-.57A.3.3,0,0,1,190.47,196.93Z"/><path class="cls-19" d="M190.24,197.69c-.26.42-.61.68-.78.57a.24.24,0,0,1-.1-.2.16.16,0,0,0,.07.09c.18.11.53-.15.78-.57a1.38,1.38,0,0,0,.23-.76A1.14,1.14,0,0,1,190.24,197.69Z"/><path class="cls-20" d="M190.06,197.61c-.14.22-.31.35-.4.3s-.06-.27.07-.49.31-.36.4-.3S190.19,197.39,190.06,197.61Z"/><g class="cls-10"><path class="cls-7" d="M190.16,197.36l0,0c-.09-.05-.27.08-.4.3a1.06,1.06,0,0,0-.11.25c-.06-.08,0-.28.1-.47s.31-.36.4-.3S190.19,197.24,190.16,197.36Z"/></g><path class="cls-17" d="M182.82,182.27c-.28.47-.66.75-.86.63s-.13-.59.15-1.05.66-.75.85-.63S183.1,181.81,182.82,182.27Z"/><path class="cls-18" d="M183.08,181.43a.24.24,0,0,0-.08-.09c-.2-.12-.59.16-.87.63a1.57,1.57,0,0,0-.25.84,1.22,1.22,0,0,1,.23-1c.27-.47.66-.75.85-.63A.25.25,0,0,1,183.08,181.43Z"/><path class="cls-19" d="M182.82,182.27c-.28.47-.66.75-.86.63a.27.27,0,0,1-.11-.21.24.24,0,0,0,.08.09c.2.12.58-.16.86-.63a1.51,1.51,0,0,0,.26-.84A1.27,1.27,0,0,1,182.82,182.27Z"/><path class="cls-20" d="M182.62,182.18c-.14.25-.34.39-.44.33s-.06-.3.08-.54.34-.39.44-.33S182.77,181.94,182.62,182.18Z"/><g class="cls-10"><path class="cls-7" d="M182.74,181.91l0,0c-.1-.06-.29.09-.44.33a1.18,1.18,0,0,0-.11.27c-.07-.08,0-.3.1-.52s.34-.39.44-.33S182.77,181.78,182.74,181.91Z"/></g><path class="cls-17" d="M184.48,200c-.3.5-.72.81-.93.68s-.14-.64.16-1.14.71-.81.93-.69S184.78,199.45,184.48,200Z"/><path class="cls-18" d="M184.76,199.05a.24.24,0,0,0-.09-.11c-.21-.12-.63.18-.93.69a1.7,1.7,0,0,0-.28.91,1.35,1.35,0,0,1,.25-1c.3-.51.72-.81.93-.69A.31.31,0,0,1,184.76,199.05Z"/><path class="cls-19" d="M184.48,200c-.3.5-.72.81-.93.68a.28.28,0,0,1-.12-.23.22.22,0,0,0,.09.1c.21.13.63-.18.93-.68a1.73,1.73,0,0,0,.28-.91A1.35,1.35,0,0,1,184.48,200Z"/><path class="cls-20" d="M184.27,199.86c-.16.27-.37.43-.48.36s-.07-.33.09-.59.37-.42.47-.36S184.42,199.6,184.27,199.86Z"/><g class="cls-10"><path class="cls-7" d="M184.39,199.57l0,0c-.1-.06-.32.1-.47.36a1.51,1.51,0,0,0-.13.3c-.07-.09,0-.33.12-.57s.37-.42.47-.36S184.43,199.43,184.39,199.57Z"/></g><path class="cls-17" d="M192.22,189.45c-.21.36-.51.58-.67.48s-.1-.45.12-.81.51-.58.66-.49S192.44,189.09,192.22,189.45Z"/><path class="cls-18" d="M192.42,188.8a.17.17,0,0,0-.06-.08c-.16-.09-.46.13-.67.49a1.19,1.19,0,0,0-.2.65,1,1,0,0,1,.18-.74c.21-.36.51-.58.66-.49A.22.22,0,0,1,192.42,188.8Z"/><path class="cls-19" d="M192.22,189.45c-.21.36-.51.58-.67.48a.2.2,0,0,1-.08-.16.11.11,0,0,0,.06.07c.15.09.45-.13.67-.49a1.29,1.29,0,0,0,.2-.65A1,1,0,0,1,192.22,189.45Z"/><path class="cls-20" d="M192.07,189.38c-.11.19-.27.3-.34.26s0-.24.06-.43.26-.3.34-.25S192.18,189.19,192.07,189.38Z"/><g class="cls-10"><path class="cls-7" d="M192.16,189.17l0,0c-.08-.05-.23.07-.34.26a.48.48,0,0,0-.09.21c-.05-.07,0-.24.08-.41s.26-.3.34-.25S192.18,189.07,192.16,189.17Z"/></g><path class="cls-17" d="M181.53,199.45c-.27.47-.66.75-.86.63s-.13-.59.15-1.06.66-.75.86-.63S181.81,199,181.53,199.45Z"/><path class="cls-18" d="M181.79,198.61a.27.27,0,0,0-.08-.1c-.2-.11-.58.17-.86.63a1.56,1.56,0,0,0-.26.85,1.3,1.3,0,0,1,.23-1c.28-.46.66-.74.86-.63A.29.29,0,0,1,181.79,198.61Z"/><path class="cls-19" d="M181.53,199.45c-.27.47-.66.75-.86.63a.27.27,0,0,1-.11-.21.24.24,0,0,0,.08.09c.2.12.59-.16.86-.63a1.53,1.53,0,0,0,.26-.84A1.22,1.22,0,0,1,181.53,199.45Z"/><path class="cls-20" d="M181.34,199.36c-.15.24-.35.39-.45.33s-.06-.3.09-.54.34-.39.44-.33S181.48,199.12,181.34,199.36Z"/><g class="cls-10"><path class="cls-7" d="M181.45,199.09l0,0c-.1-.06-.3.09-.44.33a.9.9,0,0,0-.12.27c-.07-.08,0-.3.11-.52s.34-.39.44-.33S181.49,199,181.45,199.09Z"/></g><path class="cls-17" d="M183,192c-.33.55-.78.89-1,.75s-.16-.7.17-1.26.79-.88,1-.74S183.37,191.4,183,192Z"/><path class="cls-18" d="M183.35,191a.27.27,0,0,0-.1-.11c-.23-.14-.69.2-1,.75a1.8,1.8,0,0,0-.31,1,1.52,1.52,0,0,1,.27-1.15c.33-.55.79-.88,1-.74A.31.31,0,0,1,183.35,191Z"/><path class="cls-19" d="M183,192c-.33.55-.79.89-1,.75a.32.32,0,0,1-.13-.26.27.27,0,0,0,.09.12c.24.14.7-.2,1-.75a1.89,1.89,0,0,0,.3-1A1.49,1.49,0,0,1,183,192Z"/><path class="cls-20" d="M182.81,191.85c-.18.28-.41.46-.53.39s-.07-.36.1-.65.4-.46.52-.39S183,191.56,182.81,191.85Z"/><g class="cls-10"><path class="cls-7" d="M182.94,191.52l0,0c-.11-.06-.35.11-.52.4a1.25,1.25,0,0,0-.14.32c-.07-.1,0-.36.13-.62s.4-.46.52-.39S183,191.37,182.94,191.52Z"/></g><path class="cls-17" d="M187.62,176.89c-.22.36-.52.58-.67.49s-.1-.46.11-.83.52-.58.67-.49S187.84,176.52,187.62,176.89Z"/><path class="cls-18" d="M187.82,176.23a.22.22,0,0,0-.06-.07c-.16-.09-.46.13-.68.49a1.17,1.17,0,0,0-.19.65,1,1,0,0,1,.17-.75c.22-.36.52-.58.67-.49A.22.22,0,0,1,187.82,176.23Z"/><path class="cls-19" d="M187.62,176.89c-.22.36-.52.58-.67.49a.22.22,0,0,1-.09-.17.16.16,0,0,0,.07.07c.15.1.45-.12.67-.49a1.29,1.29,0,0,0,.2-.65A1,1,0,0,1,187.62,176.89Z"/><path class="cls-20" d="M187.46,176.82c-.11.19-.26.3-.34.26s-.05-.24.07-.43.26-.3.34-.26S187.58,176.63,187.46,176.82Z"/><g class="cls-10"><path class="cls-7" d="M187.55,176.61a0,0,0,0,0,0,0c-.07-.05-.23.07-.34.26a1,1,0,0,0-.09.21c0-.07,0-.24.09-.41s.26-.3.34-.26S187.58,176.5,187.55,176.61Z"/></g><path class="cls-17" d="M184.93,185.22c-.27.45-.65.72-.84.61s-.13-.58.14-1,.65-.73.84-.61S185.2,184.76,184.93,185.22Z"/><path class="cls-18" d="M185.18,184.4a.16.16,0,0,0-.08-.1c-.19-.11-.57.16-.84.62a1.49,1.49,0,0,0-.25.82,1.24,1.24,0,0,1,.22-.94c.27-.45.65-.73.84-.61A.26.26,0,0,1,185.18,184.4Z"/><path class="cls-19" d="M184.93,185.22c-.27.45-.65.72-.84.61a.27.27,0,0,1-.11-.21.24.24,0,0,0,.08.09c.19.12.57-.16.84-.61a1.54,1.54,0,0,0,.25-.82A1.25,1.25,0,0,1,184.93,185.22Z"/><path class="cls-20" d="M184.74,185.13c-.14.24-.34.38-.43.32s-.06-.29.08-.53.33-.38.43-.32S184.88,184.89,184.74,185.13Z"/><g class="cls-10"><path class="cls-7" d="M184.85,184.86l0,0c-.09-.06-.28.09-.42.32a1,1,0,0,0-.12.27c-.06-.08,0-.3.11-.51s.33-.38.43-.32S184.88,184.74,184.85,184.86Z"/></g><path class="cls-17" d="M197.56,183.44c-.17.27-.39.44-.51.37s-.08-.35.09-.62.39-.44.5-.37S197.72,183.16,197.56,183.44Z"/><path class="cls-18" d="M197.71,182.94l-.05-.05c-.12-.07-.34.09-.51.37a.9.9,0,0,0-.15.49.71.71,0,0,1,.14-.56c.16-.28.39-.44.5-.37A.15.15,0,0,1,197.71,182.94Z"/><path class="cls-19" d="M197.56,183.44c-.17.27-.39.44-.51.37a.14.14,0,0,1-.06-.13.13.13,0,0,0,0,.06c.12.07.35-.1.51-.37a1,1,0,0,0,.15-.5A.76.76,0,0,1,197.56,183.44Z"/><path class="cls-20" d="M197.44,183.39c-.08.14-.2.22-.26.19s0-.18,0-.32.2-.23.26-.19S197.53,183.24,197.44,183.39Z"/><g class="cls-10"><path class="cls-7" d="M197.51,183.22h0c-.05,0-.17,0-.26.2a.52.52,0,0,0-.06.16s0-.18.06-.31.2-.23.26-.19S197.53,183.15,197.51,183.22Z"/></g><path class="cls-17" d="M194.59,181.1c-.29.49-.7.79-.91.67s-.14-.63.15-1.12.7-.79.91-.67S194.88,180.61,194.59,181.1Z"/><path class="cls-18" d="M194.86,180.21a.27.27,0,0,0-.08-.1c-.21-.13-.62.17-.92.67a1.62,1.62,0,0,0-.27.89,1.33,1.33,0,0,1,.24-1c.3-.5.7-.79.91-.67A.28.28,0,0,1,194.86,180.21Z"/><path class="cls-19" d="M194.59,181.1c-.29.5-.7.79-.91.67a.28.28,0,0,1-.12-.23.22.22,0,0,0,.09.1c.2.13.61-.17.91-.67a1.62,1.62,0,0,0,.27-.89A1.33,1.33,0,0,1,194.59,181.1Z"/><path class="cls-20" d="M194.38,181c-.15.25-.36.41-.47.35s-.06-.32.09-.58.36-.41.47-.35S194.53,180.75,194.38,181Z"/><g class="cls-10"><path class="cls-7" d="M194.5,180.72s0,0,0,0-.31.1-.46.36a1.68,1.68,0,0,0-.13.28c-.06-.08,0-.32.12-.55s.36-.41.46-.35S194.54,180.58,194.5,180.72Z"/></g><path class="cls-17" d="M183.74,177c-.17.28-.41.46-.53.38s-.08-.36.09-.64.41-.46.53-.39S183.91,176.73,183.74,177Z"/><path class="cls-18" d="M183.9,176.5l-.05-.05c-.12-.08-.36.1-.53.38a1,1,0,0,0-.16.52.77.77,0,0,1,.14-.59c.17-.29.41-.46.53-.39A.19.19,0,0,1,183.9,176.5Z"/><path class="cls-19" d="M183.74,177c-.17.28-.41.46-.53.38a.14.14,0,0,1-.06-.13.09.09,0,0,0,0,.06c.13.07.36-.1.53-.39a.9.9,0,0,0,.16-.51A.77.77,0,0,1,183.74,177Z"/><path class="cls-20" d="M183.62,177c-.09.14-.21.23-.27.2s0-.19.05-.34.21-.23.27-.2S183.71,176.82,183.62,177Z"/><g class="cls-10"><path class="cls-7" d="M183.69,176.8l0,0c-.06,0-.18.06-.27.21a1.11,1.11,0,0,0-.07.16c0-.05,0-.18.07-.32s.21-.23.27-.2S183.71,176.72,183.69,176.8Z"/></g><path class="cls-17" d="M193.71,192.74c-.26.44-.63.72-.82.6s-.13-.57.13-1,.64-.72.83-.61S194,192.29,193.71,192.74Z"/><path class="cls-18" d="M194,191.93a.24.24,0,0,0-.08-.09c-.19-.12-.56.16-.83.6a1.48,1.48,0,0,0-.24.81,1.18,1.18,0,0,1,.21-.92c.27-.45.64-.72.83-.61A.27.27,0,0,1,194,191.93Z"/><path class="cls-19" d="M193.71,192.74c-.26.44-.63.71-.82.6s-.1-.11-.11-.21a.16.16,0,0,0,.08.1c.19.11.56-.16.82-.61a1.49,1.49,0,0,0,.25-.81A1.22,1.22,0,0,1,193.71,192.74Z"/><path class="cls-20" d="M193.52,192.65c-.14.23-.33.38-.42.32s-.06-.29.08-.52.32-.38.42-.32S193.66,192.42,193.52,192.65Z"/><g class="cls-10"><path class="cls-7" d="M193.63,192.39l0,0c-.1-.06-.29.08-.42.32a.85.85,0,0,0-.12.26c-.06-.08,0-.29.11-.5s.32-.38.42-.32S193.67,192.26,193.63,192.39Z"/></g><path class="cls-17" d="M187.14,195.4c-.15.25-.37.41-.47.34s-.08-.32.07-.58.37-.41.48-.34S187.29,195.14,187.14,195.4Z"/><path class="cls-18" d="M187.28,194.94s0,0-.05-.06-.32.09-.47.35a.88.88,0,0,0-.14.46.7.7,0,0,1,.12-.53c.16-.25.37-.41.48-.34A.17.17,0,0,1,187.28,194.94Z"/><path class="cls-19" d="M187.14,195.4c-.15.25-.37.41-.47.34a.15.15,0,0,1-.07-.12.1.1,0,0,0,.05.06c.11.06.32-.09.47-.35a.88.88,0,0,0,.14-.46A.69.69,0,0,1,187.14,195.4Z"/><path class="cls-20" d="M187,195.35c-.08.13-.19.21-.24.18s0-.17,0-.3.19-.21.24-.18S187.11,195.22,187,195.35Z"/><g class="cls-10"><path class="cls-7" d="M187.09,195.2h0c-.06,0-.16.05-.24.18a.51.51,0,0,0-.07.15.35.35,0,0,1,.06-.29c.08-.13.19-.21.24-.18S187.11,195.13,187.09,195.2Z"/></g><path class="cls-17" d="M182.33,188.45c-.18.31-.43.49-.56.41s-.09-.38.09-.69.44-.48.56-.41S182.51,188.15,182.33,188.45Z"/><path class="cls-18" d="M182.5,187.9a.17.17,0,0,0-.06-.06c-.12-.07-.38.11-.56.41a1,1,0,0,0-.16.55.79.79,0,0,1,.14-.63c.18-.3.44-.48.56-.41A.18.18,0,0,1,182.5,187.9Z"/><path class="cls-19" d="M182.33,188.45c-.18.31-.43.49-.56.41a.15.15,0,0,1-.07-.14.18.18,0,0,0,.05.07c.13.07.38-.11.56-.42a1,1,0,0,0,.17-.54A.83.83,0,0,1,182.33,188.45Z"/><path class="cls-20" d="M182.2,188.4c-.09.15-.22.25-.29.21s0-.2.06-.35.22-.26.28-.22S182.29,188.24,182.2,188.4Z"/><g class="cls-10"><path class="cls-7" d="M182.28,188.22l0,0c-.06,0-.19.06-.29.22a.67.67,0,0,0-.07.18c-.05-.06,0-.2.07-.34s.22-.26.28-.22S182.3,188.13,182.28,188.22Z"/></g><path class="cls-17" d="M178,197.19c-.18.3-.43.48-.56.41s-.08-.38.1-.68.42-.48.55-.41S178.21,196.89,178,197.19Z"/><path class="cls-18" d="M178.19,196.65a.1.1,0,0,0-.05-.06c-.13-.07-.38.11-.55.41a1,1,0,0,0-.17.54.81.81,0,0,1,.15-.62c.18-.3.42-.48.55-.41A.21.21,0,0,1,178.19,196.65Z"/><path class="cls-19" d="M178,197.19c-.18.3-.43.48-.56.41a.21.21,0,0,1-.07-.14.1.1,0,0,0,0,.06c.13.07.38-.11.56-.41a.91.91,0,0,0,.16-.54A.8.8,0,0,1,178,197.19Z"/><path class="cls-20" d="M177.9,197.14c-.09.15-.22.25-.28.21s0-.2,0-.35.22-.25.28-.21S178,197,177.9,197.14Z"/><g class="cls-10"><path class="cls-7" d="M178,197a0,0,0,0,0,0,0c-.07,0-.19.05-.28.21a.51.51,0,0,0-.08.17c0-.05,0-.19.07-.33s.22-.25.28-.21S178,196.88,178,197Z"/></g><path class="cls-17" d="M186,180.34c-.31.52-.74.83-1,.7s-.15-.66.16-1.17.74-.83,1-.7S186.34,179.82,186,180.34Z"/><path class="cls-18" d="M186.32,179.41a.24.24,0,0,0-.09-.11c-.22-.13-.65.19-1,.7a1.79,1.79,0,0,0-.28.93,1.4,1.4,0,0,1,.25-1.06c.31-.52.74-.83,1-.7A.3.3,0,0,1,186.32,179.41Z"/><path class="cls-19" d="M186,180.34c-.31.52-.74.83-1,.7a.3.3,0,0,1-.12-.24.24.24,0,0,0,.09.11c.22.13.64-.19.95-.7a1.73,1.73,0,0,0,.29-.94A1.42,1.42,0,0,1,186,180.34Z"/><path class="cls-20" d="M185.81,180.24c-.15.27-.37.44-.48.37s-.07-.34.09-.6.38-.44.49-.37S186,180,185.81,180.24Z"/><g class="cls-10"><path class="cls-7" d="M185.94,179.94l0,0c-.11-.06-.33.1-.49.37a1.24,1.24,0,0,0-.13.3c-.07-.09,0-.33.12-.57s.37-.44.48-.37S186,179.8,185.94,179.94Z"/></g><path class="cls-17" d="M190.27,193.62c-.28.47-.67.75-.87.64s-.13-.6.15-1.07.67-.75.87-.64S190.55,193.15,190.27,193.62Z"/><path class="cls-18" d="M190.53,192.77a.24.24,0,0,0-.08-.09c-.2-.12-.59.16-.87.63a1.56,1.56,0,0,0-.26.85,1.3,1.3,0,0,1,.23-1c.28-.47.67-.75.87-.64A.29.29,0,0,1,190.53,192.77Z"/><path class="cls-19" d="M190.27,193.62c-.28.47-.67.75-.87.64a.29.29,0,0,1-.11-.22.24.24,0,0,0,.08.09c.2.12.59-.16.87-.63a1.56,1.56,0,0,0,.26-.85A1.25,1.25,0,0,1,190.27,193.62Z"/><path class="cls-20" d="M190.07,193.53c-.14.24-.34.39-.44.33s-.07-.3.08-.54.34-.4.44-.34S190.22,193.29,190.07,193.53Z"/><g class="cls-10"><path class="cls-7" d="M190.19,193.26l0,0c-.1-.06-.3.09-.44.34a.9.9,0,0,0-.12.27c-.06-.08,0-.3.11-.52s.34-.4.44-.34S190.22,193.12,190.19,193.26Z"/></g><path class="cls-17" d="M195.34,185.38c-.25.42-.6.68-.78.57s-.12-.54.13-1,.61-.68.79-.57S195.6,185,195.34,185.38Z"/><path class="cls-18" d="M195.58,184.62a.18.18,0,0,0-.08-.09c-.18-.11-.53.15-.78.57a1.38,1.38,0,0,0-.23.76,1.14,1.14,0,0,1,.2-.87c.26-.42.61-.68.79-.57A.26.26,0,0,1,195.58,184.62Z"/><path class="cls-19" d="M195.34,185.38c-.25.42-.6.68-.78.57a.26.26,0,0,1-.1-.2.18.18,0,0,0,.08.09c.17.11.52-.15.78-.57a1.41,1.41,0,0,0,.23-.77A1.13,1.13,0,0,1,195.34,185.38Z"/><path class="cls-20" d="M195.16,185.3c-.13.22-.31.35-.4.3s0-.28.08-.5.31-.35.4-.3S195.29,185.08,195.16,185.3Z"/><g class="cls-10"><path class="cls-7" d="M195.27,185.05l0,0c-.09-.05-.27.08-.4.3a1.06,1.06,0,0,0-.11.25c-.06-.08,0-.28.1-.48s.31-.35.4-.3S195.3,184.93,195.27,185.05Z"/></g><g class="cls-13"><path d="M198.58,191.21c-3.11,8.41-15.8,11.7-19.35,10.56a3.52,3.52,0,0,1-.63-.27c5.41-1.07,13.64-5.23,16-12.57a30.23,30.23,0,0,0,1-4.38c.6-3.65-1.79-6.24-4.18-8.5a10.11,10.11,0,0,1,2.38,1.67c2.72,2.58,6.29,5.43,5.57,9.81A32.33,32.33,0,0,1,198.58,191.21Z"/></g><g class="cls-13"><path class="cls-7" d="M195.14,178.77c-.2.38-.46.8-.76,1.27h0a4,4,0,0,1-.22.34h0c-.13.2-.26.4-.41.6h0c-.05.07-.1.15-.16.22h0c-.59.85-1.32,1.83-2.19,3a27.53,27.53,0,0,0-2.41,1.6h0l-.14.12a4.49,4.49,0,0,0-.48.51s0,0,0,0h0a1.33,1.33,0,0,0-.12.16c-1,1.52-.14,2.73-1.62,4.64l-.14.18,0,0a3.63,3.63,0,0,1-.27.28,3.54,3.54,0,0,1-.47.41h0l-.18.13h0l-.09.06c-1.62,1-3.29.35-4.18,1.5-.61.78-.86,2-1.53,2.89-1,1.3-2.37,1.06-3.76.48a25.43,25.43,0,0,1-.2-7.7,39.49,39.49,0,0,1,1.51-7.58c1.62-5.06,4.49-8.44,10.84-7a16.13,16.13,0,0,1,1.6.44,11.38,11.38,0,0,1,1.73.7,11.12,11.12,0,0,1,2.4,1.59Z"/></g><g class="cls-13"><path class="cls-7" d="M187,181.33c-.16.5.2,1.28,0,2a.84.84,0,0,1-.84.62,1.69,1.69,0,0,0-1,.31l0,0a1.58,1.58,0,0,0-.28.3,1.81,1.81,0,0,0-.2.33,5.15,5.15,0,0,0-.23.54c0,.09-.07.18-.1.26a1.12,1.12,0,0,0-.05.13c-.16.38-.34.66-.7.69-1.53.12-4.9,2.48-5.11,2.41s-.6-.28-.9-.41l-.08,0-.11,0a.19.19,0,0,0-.1,0h0c-.52,0-.8.76-1.44,1.05a39.49,39.49,0,0,1,1.51-7.58c1.62-5.06,4.49-8.44,10.84-7a1.93,1.93,0,0,0-.33.51s1.37,2.87.87,4.4C188.39,180.65,187,181.12,187,181.33Z"/></g><g class="cls-21"><path class="cls-7" d="M179.5,181.42c0-.16.09-.32.15-.49.81-2.23,3.32-4.16,5.62-3.33.26.09.46.15.32.54-.28.77-1.07,1.07-1.73,1.47a40.64,40.64,0,0,0-3.37,2.95c-.19.2-.78.91-1.07.81,0,0-.1-.05-.1-.07A6.57,6.57,0,0,1,179.5,181.42Z"/></g><path class="cls-8" d="M199.49,184.39l-.12,0h0l-.08,0-.07,0h0l-.07,0-.13-.07h0l-.08,0-.07-.05,0,0h0l-.07-.05-.12-.1h0l-.13-.11,0,0-.13-.13,0,0h0s0,0,0,0a.27.27,0,0,0-.07-.08l0,0-.12-.14,0,0h0l-.12-.16v0l0,0,0,0h0l0,0h0l0,0h0a.21.21,0,0,1,0-.06h0v0c-.06-.09-.11-.18-.16-.27l0-.06c-.12-.21-.22-.42-.32-.63l-.06-.12a1.3,1.3,0,0,1-.08-.17l0,0-.13-.27h0l-.13-.23v0l0,0a1.08,1.08,0,0,0-.11-.18l0,0a1,1,0,0,0-.13-.16v0l0,0,0,0,0,0,0,0v0l-.05,0,0,0h0l0,0,0,0h0l-.1,0h-.3a.86.86,0,0,0-.23.06h0l-.2.07h0l-.06,0-.16.07,0,0h0l-.06,0-.12.08h0l-.12.08h0l-.24.18-.25.24-.1.12s0,0,0,0h0l-.05.06,0,0c-.06.08-.13.15-.19.24l0,0h0l-.13.2-.21.32,0,.06c-.08.13-.15.26-.22.4a.54.54,0,0,0-.05.11l-.15.32-.06.13-.16.42,0,.08c0,.12-.08.24-.11.36s0,.1-.05.15,0,.22-.08.32l0,.13c0,.12-.05.25-.08.37v0a0,0,0,0,0,0,0s0,.07,0,.1l0,.13h0s0,.08,0,.12v.08c0,.05,0,.1,0,.16a.08.08,0,0,1,0,0v.11a.81.81,0,0,0,0,.16v.12a3.29,3.29,0,0,0,0,.55h0s0,0-.06-.06l0,0s0,0,0,0l-.18-.22,0-.05c-.06-.08-.12-.17-.19-.25l0,0h0v0l0,0-.08-.12h0l0-.06,0-.05v0l0,0,0,0,0-.05h0l-.15-.26,0-.08v0l0-.06a.08.08,0,0,0,0-.05v0l0-.08v0a0,0,0,0,1,0,0l0-.1h0s0-.07,0-.1h0a.59.59,0,0,1,0-.14c0-.24-.08-.57-.1-.89s0-.46,0-.65a2.44,2.44,0,0,1,0-.27h0v-.09a.19.19,0,0,1,0-.08v-.05s0-.09,0-.13h0v0s0-.06,0-.08,0,0,0-.06v-.11a.5.5,0,0,1,0-.12v0s0-.1,0-.14v0s0,0,0-.07l0-.19v-.06l0-.13,0-.05c0-.13.06-.25.1-.37h0l.05-.16,0-.09,0-.09a1.34,1.34,0,0,0,.07-.18l0-.08c0-.05.05-.11.08-.17l0-.07a1,1,0,0,0,.07-.15l0-.09,0-.06h0v0h0l.06-.11a.41.41,0,0,0,.05-.09l.06-.09,0,0,0-.06c.1-.17.21-.32.29-.44h0c.16-.23.27-.38.26-.45h0l0,0h0a.23.23,0,0,0-.13,0h-.31l-.17,0h-.06l-.18,0h-1.22l-.15,0h0l-.09,0h0l-.24,0h0l-.1,0h0l-.28-.07h-.09l-.09,0-.23-.06h0a6.3,6.3,0,0,1-1-.39h0a5.91,5.91,0,0,1-.66-.36l-.11-.07-.15-.11h0l-.18-.14,0,0h0l0,0-.1-.08h0v0h0a2.13,2.13,0,0,1-.35-.39s0,0,0,0l0,0s0,0,0,0l-.09-.16h0v0h0l0-.06,0-.08,0-.07a.19.19,0,0,0,0-.08l0-.12c-.51-2.82-.58.8,4,0,.19,0,.36-.07.52-.11l.24-.06h0c.29.12.57.25.85.39a11.12,11.12,0,0,1,2.4,1.59l1.3,1.13C197,180.39,198.88,182.18,199.49,184.39Z"/><path class="cls-9" d="M200.45,184.05h0l0,0h-.36a4.49,4.49,0,0,1-.89,0l-.16,0-.37-.07-.2-.05-.09,0-.27-.1-.08,0-.16-.09a.56.56,0,0,1-.15-.1l-.08-.05-.07,0-.07-.05-.19-.18-.12-.12L197,183l-.1-.14-.15-.21h0a2.39,2.39,0,0,1-.13-.21l0-.07s0-.05,0-.08a.43.43,0,0,1,0-.07l0,0h0c-.12-.23-.22-.48-.32-.71l-.09-.23,0-.07-.06-.14-.09-.22c0-.07-.05-.13-.07-.19a.42.42,0,0,1,0-.1l0,0,0-.09h0l-.06-.12a2.59,2.59,0,0,0-.19-.33.31.31,0,0,0-.07-.09.61.61,0,0,0-.15-.17l0,0,0,0-.05,0,0,0h0l-.11,0h-.07a.54.54,0,0,0-.22,0h0l-.22,0h0l-.15,0h-.05a1.8,1.8,0,0,0-.38.16h0l-.12.06h0l-.22.14h0l-.1.07a3.92,3.92,0,0,0-.33.27,1.89,1.89,0,0,0-.2.2l-.24.25-.11.14a8.47,8.47,0,0,0-1.66,3.68c0,.08,0,.17,0,.26l0,.23c0,.2,0,.4,0,.59h0l-.08-.09c-.13-.18-.28-.4-.42-.63h0l-.1-.16a.41.41,0,0,0-.05-.09l0-.05s0,0,0,0a.21.21,0,0,1,0-.06l0,0h0a1.34,1.34,0,0,1-.12-.24.61.61,0,0,1-.05-.12.78.78,0,0,1,0-.14.74.74,0,0,1,0-.14,1,1,0,0,1,0-.14s0-.08,0-.11a10.44,10.44,0,0,1,0-1.69l0-.27h0a.78.78,0,0,1,0-.22.88.88,0,0,1,0-.16,2,2,0,0,1,0-.24c0-.13.05-.26.08-.38a1.8,1.8,0,0,0,.05-.19l.06-.18a2.6,2.6,0,0,1,.15-.42l.06-.17a7.38,7.38,0,0,1,.5-.94s0,0,0,0a5.65,5.65,0,0,1,.4-.55l.07-.1.08-.09,0-.05a3,3,0,0,0,.21-.26c.14-.18.13-.24-.13-.24l-.41,0h-.67l-.25,0h-.1l-.24,0-.12,0-.22,0h0l-.09,0h0l-.24-.06h0l-.1,0h0l-.27-.08h0l-.08,0-.31-.11h0l-.19-.08-.18-.08-.19-.08-.18-.09c-.18-.09-.36-.19-.52-.29l-.17-.11-.14-.1a3.55,3.55,0,0,1-.31-.23l-.14-.12-.11-.11h0l-.12-.12,0,0-.19-.24-.08-.1-.06-.11,0,0-.1-.21v0a.14.14,0,0,1,0-.06l0-.08s0-.05,0-.08,0-.05,0-.08a.45.45,0,0,1,0-.11c-.3-2.86-.65.75,4,.34l.54-.06.24-.05.21,0a4.31,4.31,0,0,0,1-.35h0c.78-.38,1.22-.87,2-1.21a5.26,5.26,0,0,1,1.4-.68l.17,0h1.26l.12,0,.11,0h.06l.27.07a1.54,1.54,0,0,1,.48.24l.18.17a1.77,1.77,0,0,1,.16.22l0,.06h0s0,0,0,0a.31.31,0,0,1,0,.1l0,.05a0,0,0,0,0,0,0v0h0a2.76,2.76,0,0,1,.14.55l0,.18c0,.06,0,.12,0,.19a.76.76,0,0,1,0,.15l0,.28v.16c0,.05,0,.1,0,.15v.26c0,.05,0,.09,0,.14s0,.29,0,.41h0a.86.86,0,0,1,0,.17h0a2.7,2.7,0,0,1-.09.36,3.58,3.58,0,0,0-.18.9v.17c0,.11,0,.22,0,.35l.06.53v0c0,.26.07.5.1.73h0a1.85,1.85,0,0,1,0,.23c0,.13,0,.26.08.39v0h0l.09.39c0,.14.06.27.1.4a1.33,1.33,0,0,0,0,.19c0,.06,0,.12.05.17l.11.33h0c0,.1.07.19.1.28l0,0a2,2,0,0,0,.11.26,0,0,0,0,0,0,0l.09.19,0,.08c.05.09.1.19.15.27l.12.21,0,0,0,.08,0,0,0,.06.05.07.07.09s0,0,0,0l0,.06v0l.09.1.09.11.21.2.08.07.06,0,.14.11.09.06.16.11.26.16.05,0,0,0Z"/><g class="cls-10"><path class="cls-7" d="M189.87,182.39a11.58,11.58,0,0,0,0,1.68,2.51,2.51,0,0,0,.3.87,3.44,3.44,0,0,1-.57-1.35,10.44,10.44,0,0,1,0-1.69,6.73,6.73,0,0,1,1.65-4C193,177.72,190.22,178.42,189.87,182.39Z"/><path class="cls-7" d="M195.69,180.39a24.64,24.64,0,0,1,1,2.3A16.6,16.6,0,0,1,195.69,180.39Z"/><path class="cls-7" d="M197.59,173.3h0l0,0,0,0a1.14,1.14,0,0,0-.11-.11h0a1.17,1.17,0,0,0-.26-.17,1.33,1.33,0,0,0-.24-.1,2.62,2.62,0,0,0-.62-.12l-.33,0h-.58l-.46,0h-.06a6.63,6.63,0,0,0-1.34.67,5.31,5.31,0,0,0-.78.45h0l-.52.36-.4.25a4.8,4.8,0,0,1-1.42.53l-.09,0-.24,0c-.17,0-.34.05-.53.06-4.62.41-4.27-3.2-4-.34a1.71,1.71,0,0,0,.1.4l-.08-.1-.06-.11,0,0-.1-.21v0a.14.14,0,0,1,0-.06l0-.08s0-.05,0-.08,0-.05,0-.08a.45.45,0,0,1,0-.11c-.3-2.86-.65.75,4,.34l.54-.06.24-.05.21,0a4.31,4.31,0,0,0,1-.35h0c.78-.38,1.22-.87,2-1.21a5.26,5.26,0,0,1,1.4-.68l.17,0h1.26l.12,0,.11,0h.06l.27.07a1.54,1.54,0,0,1,.48.24l.18.17a1.77,1.77,0,0,1,.16.22l0,.06h0s0,0,0,0a.31.31,0,0,1,0,.1l0,.05a0,0,0,0,0,0,0Z"/><path class="cls-7" d="M200.45,184.05s-.18.09-.3.1a4,4,0,0,1-1.29-1.57,4.49,4.49,0,0,0,1.58,1.46Z"/></g><path class="cls-8" d="M200.45,184.05c0,.07-.33.11-.4.11a3.24,3.24,0,0,1-3.6-2,3.19,3.19,0,0,0,3.33,1.48h.1c.25.18.45.27.56.37A0,0,0,0,0,200.45,184.05Z"/><path class="cls-8" d="M194.92,179.53h0l0,0,.05,0,0,0,.05,0,0,0,0,0,0,0,0,0,0,0,0,0a3.73,3.73,0,0,1,.49,1c0-1.77-.38-3.1-1.08-3.2s-1.2.67-1.68,1.88a7.71,7.71,0,0,0-2.7,5.66,8.74,8.74,0,0,1-.5-.72,8.19,8.19,0,0,0,.78,1.21,8,8,0,0,1,2.1-5.15h0a4,4,0,0,1,.87-.69h0l.2-.1.05,0,.18-.07,0,0,.2-.05h0l.24,0h.29Z"/><path class="cls-8" d="M193.36,176.7c-.19-.65-2.24-.64-4.61,0a6.59,6.59,0,0,1-3.38-2,4.8,4.8,0,0,0,2.75,2.16h0l.31.11.08,0c.1,0,.2.07.3.09l.1,0,.29.08.09,0,.23,0,.11,0,.25,0h.1l.25,0h.67c1.18-.12.47.1-.29,1.31C192.36,178.06,193.51,177.24,193.36,176.7Z"/><g class="cls-10"><path class="cls-7" d="M197.78,174.22c0,.21,0,.4,0,.57a6.71,6.71,0,0,0-2.72-.84,16.58,16.58,0,0,1-1.76.48s-.48-.09-1.13-.17c-.28,0-.6-.07-1-.09.78-.38,1.22-.87,2-1.21a5.26,5.26,0,0,1,1.4-.68l.17,0h1l.23,0,.12,0,.11,0a1.54,1.54,0,0,1,1.15.71l0,.07a1.63,1.63,0,0,1,.11.23h0A3.82,3.82,0,0,1,197.78,174.22Z"/></g><g class="cls-10"><path d="M198.56,182.06l0-.08-.09-.19,0,0c0-.08-.07-.17-.1-.26l0,0c0-.09-.06-.18-.1-.28h0c-.07-.21-.14-.43-.21-.67v0c-.07-.24-.13-.5-.19-.79h0c-.09-.43-.17-.89-.23-1.41v0c0-.17,0-.34-.06-.53-.13-1.33.39-1.27.32-2.92,0-.17,0-.37,0-.59a2.45,2.45,0,0,0-.47-1.4,3.6,3.6,0,0,1,.2.92,7.68,7.68,0,0,1,0,1.23,3.58,3.58,0,0,1-.52.47l0,.05c-.68.52-.65,1.75-.55,2.76.15,1.42.74,3.91,2.66,4.74A5.59,5.59,0,0,1,198.56,182.06Z"/></g><path class="cls-4" d="M217.06,190.07c1.33,1.76,7.26,4.28,7.82,8.36,1,7-11.66,10.72-19.17,11.53-15.56,1.66-44.27-1-46.89-19.8-.48-3.44-.42-8.54,3.51-9,1.2-.13,9.79,1,14.13,8,.92,1.48,4.09,2.2,6.28,2.29,5.3.22,6.66,4.62,16.77,3.54,8.11-.87,16.56-5.19,16.56-5.19a2,2,0,0,1,.49-.11c.1,0,.42.06.44.18A.44.44,0,0,0,217.06,190.07Z"/><g class="cls-5"><path d="M172.09,187.53a16.28,16.28,0,0,0-6.43-5.85,17.68,17.68,0,0,1,10.8,7.52,2.23,2.23,0,0,0,.41.47C174.93,189.39,172.81,188.69,172.09,187.53Z"/><path d="M224.88,198.43c1,7-11.66,10.72-19.17,11.53-9.32,1-23.36.44-33.68-4.21,9.66,3.1,21.25,3.4,29.31,2.54,7.51-.8,20.15-4.55,19.17-11.53-.39-2.78-3.26-4.83-5.47-6.42.66-.31,1-.5,1-.5a2,2,0,0,1,.49-.11c.09,0,.42.06.44.18a.31.31,0,0,0,.06.16C218.39,191.83,224.32,194.35,224.88,198.43Z"/></g><path class="cls-7" d="M214.38,197s0-.08,0-.13c-.1-.68-.78-1.24-2.59-1.05-5,.54-5.61,4.21-11.48,4.84-.27,0-22,.12-28.07-9.29-.14-.23-4.82-6.58-7.66-6.28a3,3,0,0,0-2.64,3.15c0,.23,3.08,8.78,5.5,9.93,18.72,8.94,12.66,3.15,18.17,5.59a21.34,21.34,0,0,0,10.66,2c2.74-.29,4.39-1.15,7.28-1.45.8-.09,1.59-.14,2.36-.23a12.37,12.37,0,0,0,2.82-.56C211.63,202.55,214.33,199.89,214.38,197Z"/></svg>