<svg id="Banana" xmlns="http://www.w3.org/2000/svg" viewBox="0 0 370 330"><defs><style>.cls-1{fill:#fecf4d;}.cls-2{fill:#fbb218;}.cls-3{fill:#ed9d14;}.cls-4{fill:#6d5145;}.cls-5{fill:#947266;}.cls-6{fill:#e1e56a;}.cls-7{fill:#fee070;}.cls-8{fill:#da7904;}.cls-9{fill:#d1d451;}.cls-10{fill:#b5bc32;}</style></defs><path class="cls-1" d="M241.29,173.35c-4.83,8.13-13.83,21.7-45.49,28.91s-63.24-2.44-84.55-16.95-29.53-33.62-26-47.24c1.62-6.15,5.1-10.66,8.81-14.39h0c4.51-4.54,9.37-7.93,11.64-11.74,4.15-7,4.55-11.45,4.55-11.45l3.16,1.28,3.33,1.33h0v0c-.27.82-4.54,14-4,20h0c0,.2,0,.4.08.59a22,22,0,0,0,.86,3.49,14.42,14.42,0,0,0,1.69,3.6s15.14,23.41,47.74,29.12,52.17-3.29,61.71-6.32,13.86-1.81,16.92.92S246.11,165.2,241.29,173.35Z"/><path class="cls-2" d="M241.29,173.34c-4.83,8.14-13.82,21.7-45.49,28.91s-63.24-2.44-84.55-16.95-29.53-33.61-26-47.24c2.54-9.69,9.74-15.31,15.18-20.25h0a27.9,27.9,0,0,0,5.3-5.88c4.14-7,4.54-11.44,4.54-11.44l3.16,1.27s-1.78,19.48-3,28.44c-1.06,8.12,9.16,22.63,24.73,33.45C154.91,177.3,208.9,187,241.8,154.52a7.34,7.34,0,0,1,1.84,2.87C245.1,161.15,244.93,167.19,241.29,173.34Z"/><path class="cls-3" d="M241.29,173.34c-4.83,8.14-13.82,21.7-45.49,28.91s-63.24-2.44-84.55-16.95-29.53-33.61-26-47.24c2.54-9.69,9.74-15.31,15.18-20.25-.27.37-9.09,9.66-6.06,26.16,3.09,16.76,8.76,32.42,43.05,45.31,43.29,16.27,105.25-6.85,106.18-31.89C245.1,161.15,244.93,167.19,241.29,173.34Z"/><path class="cls-4" d="M236.25,151.19A1.27,1.27,0,0,0,235,152.6c.12,1.21.65,4.68,1.21,5.34s6.32,3.73,7.4,3.65,1.36-1.24.94-3.16C244.09,156.36,241.11,151.41,236.25,151.19Z"/><path class="cls-5" d="M236.29,152.81a5,5,0,0,0,.67,2.24c.53.55,2.43-.78,2.59-1.35s-.7-1-1.62-1.3S236.27,152.22,236.29,152.81Z"/><path class="cls-6" d="M116.8,103.09h0v0c-.27.82-4.54,14-4,20h0c0,.2,0,.4.08.59a22,22,0,0,0,.86,3.49,11.76,11.76,0,0,0-10.34,3.1,11.35,11.35,0,0,0-11.64-4.12c4.3-5.17,11.73-10.45,14-14.26,4.15-7,4.55-11.45,4.55-11.45l3.16,1.28Z"/><path class="cls-7" d="M116.67,145.91s1.15,1.57,3.39,4.12a52.18,52.18,0,0,0,4.15,4.45,75,75,0,0,0,6.08,5.05,72.26,72.26,0,0,0,7.84,5.05,81.83,81.83,0,0,0,9.4,4.45,87.81,87.81,0,0,0,10.58,3.4,97.38,97.38,0,0,0,11.29,2.13,108.44,108.44,0,0,0,11.47.9,99.74,99.74,0,0,0,11.13-.27,97.32,97.32,0,0,0,10.34-1.35,89.48,89.48,0,0,0,9.1-2.19c2.77-.83,5.29-1.69,7.49-2.54s4.09-1.7,5.63-2.41,2.73-1.31,3.53-1.74l1.24-.64,0,0-1.2.72c-.78.48-1.94,1.15-3.44,1.95s-3.36,1.73-5.54,2.68a78.66,78.66,0,0,1-7.45,2.87,91.78,91.78,0,0,1-19.58,4.11,100,100,0,0,1-11.31.45,111.72,111.72,0,0,1-11.65-.86,90,90,0,0,1-11.49-2.19,78.34,78.34,0,0,1-10.75-3.59,69.73,69.73,0,0,1-9.47-4.75,70.94,70.94,0,0,1-7.81-5.39,59,59,0,0,1-5.94-5.36,55.26,55.26,0,0,1-4-4.68c-1.06-1.34-1.83-2.46-2.32-3.22S116.67,145.91,116.67,145.91Z"/><path class="cls-3" d="M110.93,137.23s2.9,8.49,6.9,14,16,19.63,39.78,27.63c21,7.06,46.34,6.36,63.6-1.31,15.92-7.07,20.15-13,21.74-16.06,0,0-.61,7.28-7.29,14.32s-34.4,26.22-83.32,15c0,0-23-10-32.93-24.49A47.42,47.42,0,0,1,110.93,137.23Z"/><path class="cls-1" d="M249,203.06a24,24,0,0,1-5.5,9.16c-7.43,8.1-15.36,14.87-35.49,19.53s-48.14,2.86-69.93-7-43-26.53-53.65-45.12-4-41.56,8.46-52.6c0,0,1.35-1.1,3-2.51a.1.1,0,0,0,0,0c1.77-1.51,3.87-3.35,5-4.54a8,8,0,0,0,.63-.72c1.31-1.8,7.58-20.61,7.58-20.61L113,99.72l4.6,1.29a172.44,172.44,0,0,0-6,22c-.22,1.16-.42,2.33-.6,3.48s-.29,2.6-.51,3.7a19.43,19.43,0,0,0,1,9.23c1.91,5.56,7.6,22.38,31.11,35.05,18.24,9.82,42,15.24,55.15,14.37s25.28-3,34.24-3,13.27,3.14,16.06,7.82c.1.16.2.33.28.49A11.54,11.54,0,0,1,249,203.06Z"/><path class="cls-2" d="M249.57,198c.37,4.06-1.46,8.93-5.58,14-7,8.52-16.29,15.17-36.43,19.83s-47.69,2.77-69.48-7.06-43-26.53-53.65-45.12-4-41.56,8.46-52.6c0,0,5.91-4.83,8.08-7.12l.22-.23a5.67,5.67,0,0,0,.38-.46c1.31-1.8,7.58-20.61,7.58-20.61L113,99.72s-11.62,32.95-9.78,46c2.48,17.55,14.16,38.18,42.59,51.15,29,13.24,72.39,14.59,102.6-2.64A9.87,9.87,0,0,1,249.57,198Z"/><path class="cls-3" d="M249.57,198c.37,4.06-1.46,8.93-5.58,14-7,8.52-16.29,15.17-36.43,19.83s-47.69,2.77-69.48-7.06-43-26.53-53.65-45.12-4-41.56,8.46-52.6c0,0,5.91-4.83,8.08-7.12-1.2,1.36,5.31,2.86,4.12,7.33a60.43,60.43,0,0,0-1.46,22.28C105.17,165.08,119,189,143.25,204c32,19.88,78.66,18.4,104.05-2.55Z"/><path class="cls-4" d="M246.14,189.89a1.09,1.09,0,0,0-1.56.61c-.7,1.56-2.05,4.43-1.85,5.54s5.07,6.41,6.08,6.46,2.48-4.57,2-7A9.27,9.27,0,0,0,246.14,189.89Z"/><path class="cls-5" d="M246,191.27a.72.72,0,0,0-.52.34c-.35.57-1.13,2.41-.7,2.81s3.62-.64,3.47-1.56A2.24,2.24,0,0,0,246,191.27Z"/><path class="cls-8" d="M249,203.06a24,24,0,0,1-5.5,9.16c-7.43,8.1-15.36,14.87-35.49,19.53s-48.14,2.86-69.93-7-43-26.53-53.65-45.12-4-41.56,8.46-52.6c0,0,1.35-1.1,3-2.51-1,1.08-17.74,18.52-14.51,40.51,0,0,2.48,16.49,19.3,31.78,12.14,11,27.61,24,54.12,31a116.84,116.84,0,0,0,55,1.48c6.79-1.49,13.71-3.66,19.23-6.84C245.61,213,249,203,249,203Z"/><path class="cls-6" d="M117.6,101a172.44,172.44,0,0,0-6,22l-1.06,6.88a5,5,0,0,0-5.48-2.62c-1-1.9-3.29-3.15-9.2-2.72.27-.28,5.53-5.1,5.68-5.3,1.31-1.8,7.58-20.61,7.58-20.61L113,99.72l.13,0Z"/><path class="cls-9" d="M105.09,127.27c-1.92-3.17-5.93-3-9.2-2.72.27-.28,5.53-5.1,5.68-5.3,1.31-1.8,7.58-20.61,7.58-20.61L113,99.72l.13,0C110.89,107.51,105.09,127.27,105.09,127.27Z"/><path class="cls-7" d="M104.64,152.54s.15.59.52,1.68,1,2.65,1.82,4.6a61.77,61.77,0,0,0,3.59,6.79,74.94,74.94,0,0,0,5.75,8.09,75.9,75.9,0,0,0,8.14,8.43A80.8,80.8,0,0,0,134.91,190a92.81,92.81,0,0,0,12.38,6.47,118.26,118.26,0,0,0,13.64,4.81A122.47,122.47,0,0,0,175,204.38,126.52,126.52,0,0,0,189,205.9c4.55.25,9,.28,13.13.09s8.12-.56,11.74-1.05,6.92-1.06,9.83-1.68,5.42-1.25,7.47-1.84,3.66-1.08,4.74-1.46,1.65-.59,1.65-.59l0,0s-.55.26-1.62.69-2.63,1.05-4.67,1.73-4.53,1.42-7.42,2.17-6.2,1.49-9.83,2.07-7.61,1.08-11.82,1.37a123.77,123.77,0,0,1-13.3.23,127.63,127.63,0,0,1-14.17-1.35,120,120,0,0,1-14.38-3.15,107.36,107.36,0,0,1-13.85-4.91,84.87,84.87,0,0,1-12.59-6.75,76.32,76.32,0,0,1-10.53-8.2,71,71,0,0,1-8-8.85,64.5,64.5,0,0,1-5.49-8.45,61.56,61.56,0,0,1-3.27-7,42.86,42.86,0,0,1-1.55-4.73c-.3-1.11-.4-1.71-.4-1.71Z"/><path class="cls-4" d="M109.15,98.64l8.19,3.12s3.06-4.14,3.57-7-.09-9-1.58-10.71c-1.07-1.18-7.14-3.53-10.5-4.77a1.8,1.8,0,0,0-2.41,1.57l-.52,8a8.2,8.2,0,0,0,.66,3.82Z"/><path class="cls-3" d="M128.61,193.6a87.92,87.92,0,0,1-8.9-12c-4.59-7.35-8.12-17-10-22.55a68,68,0,0,1-3.7-19.52s-.17-11.33,2.76-19.68c0,0-3.92,9.86-3.8,19.57.18,15.19,6.08,27.43,8.6,33.36S120.82,188.19,128.61,193.6Z"/><path class="cls-1" d="M227.39,240c2.17,11.11-13,20.6-13,20.6C157.16,298.3,78.86,234.22,64.75,196.51s3.57-57.91,11.82-66c4.67-4.54,8.05-7.12,11.05-9.88A42.91,42.91,0,0,0,94.26,113c5.22-7.66,7.13-17.75,7.13-17.75l8.68,3.61,3.72,1.55s-1.19,10.08-4.56,18a54.06,54.06,0,0,0-3.1,9.44c-1.88,8.32-2.25,19.92,3.44,35.25,8.29,22.36,17.34,34.36,38.05,47s53.34,15,61.32,15.8S225.21,228.88,227.39,240Z"/><path class="cls-2" d="M227.39,240a12.17,12.17,0,0,1-.38,6h0c-2.56,8.33-12.61,14.61-12.61,14.61C157.16,298.3,78.86,234.22,64.75,196.51s3.56-57.91,11.81-66S89,120.64,94.25,113s7.14-17.75,7.14-17.75l1.22.51,7.45,3.1a95.66,95.66,0,0,1-6.2,17.76,81.32,81.32,0,0,1-9,14.69c-3.22,4.55-12.42,20.92-8.74,40.32s16.92,42.76,38.52,56.92S188.09,255,227.39,240Z"/><path class="cls-3" d="M227,246a19.24,19.24,0,0,1-2.88,5.56h0a39.36,39.36,0,0,1-9.72,9C157.16,298.3,78.86,234.22,64.75,196.51s3.56-57.91,11.81-66c4.13-4,7.25-6.5,10-8.92l.4-.35A43.34,43.34,0,0,0,94.25,113c5.23-7.66,7.14-17.75,7.14-17.75l1.22.51s.33,11.5-13.64,28.78-18.54,25.44-17.75,44c.87,20.72,12.62,51.39,47.8,72.9S200.66,273.13,227,246Z"/><path class="cls-8" d="M224.11,251.55a39.36,39.36,0,0,1-9.72,9C157.16,298.3,78.86,234.22,64.75,196.51s3.56-57.91,11.81-66c4.13-4,7.25-6.5,10-8.92-3,2.7-20.44,19.53-23,41.27-2.85,24.11,8.67,47.72,25.62,64C107,244,128.4,261.22,160.74,267.49S214.88,260.62,224.11,251.55Z"/><path class="cls-4" d="M225.27,233.46a.26.26,0,0,0-.39.14A34.63,34.63,0,0,0,222.6,240c-.23,1.83,2.58,5.66,3.88,6.72s2.48-4,2.27-7A9.17,9.17,0,0,0,225.27,233.46Z"/><path class="cls-6" d="M113.79,100.4s-1.19,10.08-4.56,18a54.06,54.06,0,0,0-3.1,9.44c-5.3-2.24-8-1-8.13-.92,0,0,0,0,0,0-4.09-5.71-8.58-2.93-8.58-2.93a7.16,7.16,0,0,0-1.8-3.33A42.91,42.91,0,0,0,94.26,113c5.22-7.66,7.13-17.75,7.13-17.75l1.36.57,6,2.48,1.36.56Z"/><path class="cls-9" d="M108.71,98.29c-2.67,13-10.45,28.13-10.71,28.63,0,0,0,0,0,0-4.09-5.71-8.58-2.93-8.58-2.93a7.16,7.16,0,0,0-1.8-3.33A42.91,42.91,0,0,0,94.26,113c5.22-7.66,7.13-17.75,7.13-17.75Z"/><path class="cls-10" d="M102.75,95.81C99.78,114.5,89.42,124,89.42,124a7.16,7.16,0,0,0-1.8-3.33A42.91,42.91,0,0,0,94.26,113c5.22-7.66,7.13-17.75,7.13-17.75Z"/><path class="cls-3" d="M85.08,163.79s-.47,16.47,6.89,30.26,32.13,60.2,105.13,52.55c0,0-35.27,5.16-68.25-14.95,0,0-21.9-11.13-35.44-37.68C89.63,186.54,87,180.63,85.08,163.79Z"/><path class="cls-7" d="M90.15,139.91s-.34.7-.87,2.07A51.91,51.91,0,0,0,87.47,148a59.84,59.84,0,0,0-1.36,9.7,57.62,57.62,0,0,0,.67,12.63c.31,2.3.92,4.64,1.5,7.06.37,1.19.76,2.4,1.14,3.63l.3.92.36.91.74,1.83c.91,2.48,2.2,4.94,3.38,7.44s2.47,5.08,4,7.58a93.29,93.29,0,0,0,10.67,14.33,90.63,90.63,0,0,0,6.52,6.48,92,92,0,0,0,7.22,5.8,96.84,96.84,0,0,0,16,9.25,106.34,106.34,0,0,0,16.84,6.06A128.57,128.57,0,0,0,171.81,245c1.32.21,2.64.32,3.92.48s2.57.3,3.82.38l3.68.29c1.21,0,2.4,0,3.57,0a160,160,0,0,0,22.53-1.41c2.7-.4,4.8-.81,6.23-1.13l2.18-.54v0l-2.16.62c-1.41.38-3.51.87-6.2,1.37a160.14,160.14,0,0,1-22.57,2c-1.18,0-2.37.05-3.6.05s-2.47-.15-3.74-.23-2.55-.18-3.85-.32-2.63-.22-4-.42A124.21,124.21,0,0,1,155,243.1a106,106,0,0,1-17.14-6,91,91,0,0,1-16.25-9.39c-2.56-1.85-5-3.85-7.34-5.93s-4.55-4.31-6.62-6.63a95,95,0,0,1-10.8-14.61c-1.51-2.53-3-5-4.33-7.54-.63-1.27-1.25-2.56-1.78-3.82-.27-.64-.55-1.25-.8-1.91s-.47-1.29-.71-1.92-.47-1.27-.7-1.9l-.35-.94-.27-1c-.36-1.26-.71-2.51-1.06-3.74a67.29,67.29,0,0,1-1.31-7.27A59,59,0,0,1,87.11,148a52.38,52.38,0,0,1,2.08-6C89.78,140.6,90.15,139.91,90.15,139.91Z"/><path class="cls-4" d="M117.74,87.06v0l0,.68a45.69,45.69,0,0,1-.36,5.7c-.22,2.19-3.63,6.94-3.63,6.94L110,99.12l-1.37-.47-6-2.05,0,0-1.39-.46s-3.79-7.37-3.5-9a30.51,30.51,0,0,1,2.81-7.24c.67-1.17,1.39-2.06,2.06-2.2a1.2,1.2,0,0,1,.2,0c2.28-.18,10,3.18,13.1,4.86C117.13,83.16,117.61,85,117.74,87.06Z"/><path class="cls-5" d="M224.92,236.74s-.91,1.27-.77,1.92c.18.81,2.22.55,3-.08s-.5-2.1-1-2.46S225.23,236.14,224.92,236.74Z"/><path class="cls-5" d="M117.75,87.08a6.86,6.86,0,0,1-.92,2.87c-1.34,2.52-2.21,3.18-3.93,3.29-2.11.14-2-1.79-2.17-4.43-.37-5.54-3.87-6.34-3.91-3.88,0,2.13-1.24,4.82-4.2,3.39-3.47-1.68-2.53-6.37-2.53-6.37a8.81,8.81,0,0,1,.42-2.11c.67-1.17,1.39-2.06,2.06-2.2a1.2,1.2,0,0,1,.2,0c2.28-.18,10,2.84,13.15,4.52C117.18,82.82,117.78,85.26,117.75,87.08Z"/></svg>