<svg id="Layer_10" data-name="Layer 10" xmlns="http://www.w3.org/2000/svg" viewBox="0 0 370 330"><defs><style>.cls-1{fill:#6ba632;}.cls-14,.cls-2,.cls-4{fill:#004f0b;}.cls-2{opacity:0.49;}.cls-3{fill:#d1f55f;}.cls-4{opacity:0.27;}.cls-15,.cls-16,.cls-5{fill:#defd9e;}.cls-5{opacity:0.65;}.cls-6{fill:#e5c77d;}.cls-7{fill:#f7dd92;}.cls-8{fill:#ffe9b1;}.cls-9{fill:#fff2d2;}.cls-10{opacity:0.25;}.cls-11{fill:#9a4e0e;}.cls-12{opacity:0.29;}.cls-13{fill:#5a300f;}.cls-14{opacity:0.14;}.cls-15{opacity:0.22;}.cls-16{opacity:0.39;}.cls-17{fill:#fffbf3;opacity:0.79;}</style></defs><path class="cls-1" d="M290.82,140.45c-2.22.36-4.49,5.84-4.1,12.63.24,4-10,6.11-10.2,11.62s16.71,27.11,19.69,22.6S296.3,142,290.82,140.45Z"/><path class="cls-2" d="M290.52,140.67c-2.22.36-4.81,4.52-4.1,12.64.36,4-10,6.11-10.2,11.62s16.71,27.1,19.69,22.59S296,142.27,290.52,140.67Z"/><path class="cls-3" d="M155.85,160.7a33,33,0,0,1-8,6.45c-5.61,3.38-10.63,7.54-16.57,10.37-8.43,4-17.92,5.37-27.25,5.3-4.63,0-9.47-.47-13.4-2.93-8.65-5.41-5.28-17.26.07-23.87,1.33-1.64,2.91-3.19,3.45-5.22.35-1.29.24-2.66.47-4,.51-2.93,2.65-5.3,5-7.16s4.9-3.42,6.88-5.63c3.65-4,5.05-10.07,9.58-13.1,1.36-.91,3-1.52,4.08-2.71,2.8-3,4-10.21,10.43-8.56,1.63.42,2.4.34,3-.57A17.73,17.73,0,0,1,144.83,101a3.21,3.21,0,0,1,2.46.19c1.06.72,1,2.25,1,3.53a12,12,0,0,0,1.6,5.73,35.68,35.68,0,0,1,2.27,3.73c1.72,4-.11,7.1-1,10.9-1.11,4.75,1.73,5.63,3.75,9.19,1.82,3.23-1,6.56-.21,9.81.73,3.1,4.3,4.07,5.31,6.87.57,1.61-.08,3.38-.87,4.89A24.65,24.65,0,0,1,155.85,160.7Z"/><path class="cls-1" d="M157.86,160.54a32.78,32.78,0,0,1-8,6.46c-5.61,3.37-10.63,7.53-16.57,10.37-8.43,4-17.92,5.37-27.25,5.3-4.63,0-9.47-.47-13.4-2.93-8.65-5.42-5.28-17.27.07-23.88,1.33-1.63,2.91-3.18,3.45-5.21.35-1.29.24-2.66.47-4,.51-2.92,2.65-5.29,5-7.15s4.9-3.42,6.88-5.63c3.65-4.06,5-10.07,9.58-13.11,1.36-.91,3-1.51,4.08-2.7,2.8-3,2.66-10.07,8.83-7.51a4.05,4.05,0,0,0,1.46.48c1.08,0,1.8-1.06,2.38-2a19.43,19.43,0,0,1,12-8.26,3.16,3.16,0,0,1,2.46.19c1.06.71,1,2.25,1,3.53a12,12,0,0,0,1.6,5.72A36.89,36.89,0,0,1,154.2,114c1.72,4-.11,7.1-1,10.9-1.11,4.74,1.73,5.62,3.75,9.19,1.82,3.23-1,6.56-.21,9.8s4.3,4.07,5.31,6.88c.57,1.61-.08,3.38-.87,4.89A24.29,24.29,0,0,1,157.86,160.54Z"/><path class="cls-4" d="M162.05,150.78c-1-2.81-4.58-3.77-5.31-6.88s2-6.57.21-9.8c-2-3.57-4.86-4.45-3.75-9.19.89-3.8,2.72-6.9,1-10.9a13.33,13.33,0,0,0-1.31-2.25c-1.58-.08-3.1-.23-4.33-.27-7.46-.24-11.65,4.07-17.85,7.16-2.91,1.45-6.05,2.19-8.81,3.94s-5.29,4.29-8.11,6.23c-1.1.76-2.19,1.5-3.24,2.27a21,21,0,0,1-2,2.8,26,26,0,0,1-3.93,3.39,15.08,15.08,0,0,0-.8,1.61c-1.62,3.81-1.12,7.74-2,11.65-1,4.55-4,6.49-7.34,9.42a11.12,11.12,0,0,1-5.6,2.75c-2.36,6.14-2.27,13.19,3.85,17,3.93,2.46,8.77,2.9,13.4,2.93,9.33.07,18.82-1.29,27.25-5.3,5.94-2.84,11-7,16.57-10.37a32.78,32.78,0,0,0,8-6.46,24.29,24.29,0,0,0,3.32-4.87C162,154.16,162.62,152.39,162.05,150.78Z"/><path class="cls-4" d="M121.81,121.1c1.81-1.93,3.7-4.27,5.72-6a5.73,5.73,0,0,1,1.33-1c.33-.23.65-.46,1-.66a13.16,13.16,0,0,1,3.13-1,18.81,18.81,0,0,0,7.65-4.38l.09-.07a9,9,0,0,1,.73-.64c.13-.1.25-.17.38-.26,3-2.41,5.61-3.66,8.46-2.92,0-1.17-.08-2.42-1-3a3.23,3.23,0,0,0-2.47-.19,19.41,19.41,0,0,0-12,8.26c-.59.9-1.31,2-2.38,2a4.17,4.17,0,0,1-1.47-.48c-6.17-2.56-6,4.55-8.82,7.51-1.13,1.19-2.73,1.79-4.09,2.71-4.53,3-5.93,9.05-9.57,13.1-2,2.21-4.58,3.76-6.89,5.63s-4.45,4.23-5,7.15c-.23,1.32-.12,2.69-.46,4-.55,2-2.13,3.58-3.45,5.21a24.26,24.26,0,0,0-5.24,12.52,23.66,23.66,0,0,1,4.18-8c2.69-3.38,6-6.09,7.79-10.07,1.08-2.39,1.31-5.24,2.7-7.49a9.75,9.75,0,0,1,3.07-3.06c3.54-2.4,6.64-3.78,8.58-8s3-7.28,6.92-9.92Z"/><path class="cls-3" d="M124.18,130.93c.07-.3.14-.67.2-1Z"/><path class="cls-3" d="M156.28,148.61a36.26,36.26,0,0,1-4.4,6.78,16.15,16.15,0,0,1-2.93,2.85,9.19,9.19,0,0,1-3,1.52,29.32,29.32,0,0,1-5.57,5.84,20.21,20.21,0,0,1-3.42,2.16c-.32.59-.64,1.13-1,1.66a16.6,16.6,0,0,1-1.14,1.69,18.29,18.29,0,0,1-4,4.23,50.79,50.79,0,0,1-4.64,2.13c-.54.22-1.08.44-1.61.63a10.51,10.51,0,0,1-1.1.39c-.36.13-.69.23-1,.33-.63.21-1.28.39-1.93.6a.59.59,0,0,0-.17,0c-.59.16-1.18.29-1.74.45-.85.18-1.7.37-2.54.53l-1.75.3c-.29,0-.58.1-.87.13s-.64.09-1,.11a6,6,0,0,1-.7.12,5.86,5.86,0,0,1-.69.06,4.54,4.54,0,0,1-.63,0l-1.27.11c-.61.07-1.18.09-1.76.13l-2.2.06a7.66,7.66,0,0,1-.83,0h-.65a1,1,0,0,0-.29,0,1.51,1.51,0,0,0-.37,0c-.31,0-.62-.05-.93-.05-.71,0-1.42-.06-2.13-.11-1-.07-2-.16-3-.27s-1.66-.2-2.5-.33-1.5-.26-2.23-.41c-1.29-.2-2.57-.47-3.81-.79-.28-.06-.55-.15-.8-.21a.65.65,0,0,1,0-.29,8.68,8.68,0,0,1-.28-1.49,4.94,4.94,0,0,1-.14-.75c-.08-.58-.15-1.19-.17-1.76.72.2,1-.2,1-1.28,0-.17.06-.53.15-1a3.54,3.54,0,0,0,.06-1.53c-.32-.41-.64-.85-.93-1.28a8.28,8.28,0,0,1,.28-1.17c.27.38.57.73.87,1.08,0-.31.1-.62.14-.93.15-.78,1.59-8.37,1.52-7.58-1.41,16.55,4.6,17.83,4.68,17.87l.37,0a40.35,40.35,0,0,0,9.87-1.72,37.39,37.39,0,0,1-2.61-3.27l-.07-.1a41.1,41.1,0,0,1-3-4.88c-.25-.52-.51-1-.73-1.51a36.78,36.78,0,0,1-2.33-6.58c.66-.06,3,3.58,4.21,5.63,1.93,3.22,1.65-2.6,1.59-3.8a60.26,60.26,0,0,0-1.16-8.75,57,57,0,0,1,2,8.64c.12.87.24,1.77.31,2.66,0,.61.09,1.21.13,1.82a22.68,22.68,0,0,1-.08,2.33.25.25,0,0,1,0,.19c0,.34,0,.65-.09,1,.42.59.81,1.15,1.25,1.72s.92,1.13,1.4,1.64c.65.79,1.36,1.56,2.07,2.27a35.3,35.3,0,0,0,3.57-1.69c.42-.2.85-.44,1.28-.7a27.1,27.1,0,0,0,3.49-2.32,14.83,14.83,0,0,0,.66-2.86,14.41,14.41,0,0,0,.13-3.09,23.53,23.53,0,0,0-.45-3.39l0,.1c-1.61-1.55-3.32-3.07-4.92-4.68a36.65,36.65,0,0,1-3.52-4c-.12-.18-.24-.4-.38-.59l-.13.1a.69.69,0,0,1-.11-.52c-.24-.37-.48-.74-.67-1.11a13.7,13.7,0,0,1-1.25-2.66,5.45,5.45,0,0,1-.21-.65,16.24,16.24,0,0,1-.71-4.07,13.64,13.64,0,0,1-.06-1.92,15.89,15.89,0,0,0,.14,1.67,16.82,16.82,0,0,0,.6,2.69c.1.36.25,1,.48,1.69.32.95.74,2,1.25,2.2,1.78.86,2-3.14,2.11-4.06a20.08,20.08,0,0,0,.16-2.58,14.82,14.82,0,0,0-.48-3.87,13.3,13.3,0,0,1,.79,3.68,14.56,14.56,0,0,1,.06,2.8,25.32,25.32,0,0,1-.42,3.32l-.36,1.61-.17.78-.11.41,0,.17a.47.47,0,0,0-.11-.24l-.1.05.2.25c.05.09.12.21.19.31a34.42,34.42,0,0,0,3.91,3.82c1.09.93,2.21,1.83,3.33,2.76-.32-1.4-.74-2.88-1.12-4.32,0-.29-.13-.59-.21-.88s-.2-.71-.27-1.06a53.15,53.15,0,0,1-1.82-10.68,4.85,4.85,0,0,1,0-.66,39.21,39.21,0,0,1,.87-9.59c.09-.5.21-1,.33-1.53,0,.37,0,.74,0,1.11a55.37,55.37,0,0,0,.24,9.3,9.86,9.86,0,0,0,.11,1.23c.11.79.19,4.16,1.17,4.33.59.1.78-.56,1-1,.66-1.21,1.41-2.29,2.14-3.43a15.54,15.54,0,0,1,0-5.89,27.7,27.7,0,0,1,1.1-4.55c.11-.38.24-.77.37-1.15-.1.36-.17.72-.24,1.08a33,33,0,0,0-.73,4.68c-.06,1-.54,5.27,1.25,3.2a16.68,16.68,0,0,0,1.9-3.8,35.71,35.71,0,0,0,2-5.32,38.89,38.89,0,0,1-3.83,10.44c-1,1.79-2.07,3.54-2.91,5.3a13.88,13.88,0,0,0-1.33,4.77c.24.83.49,1.66.77,2.43,0,.15,0,.18.05.24.4,1.27.82,2.51,1.19,3.76.23.68.43,1.36.61,2.06a10,10,0,0,0,.38,1.79c.7,1.36,1.84-1.07,2.2-1.65a33.78,33.78,0,0,0,1.82-3.86c.32-.82.62-1.64.86-2.47s.5-1.54.7-2.31a33.44,33.44,0,0,0,.74-3.33,8,8,0,0,0,.19-1.61,14.56,14.56,0,0,1,0,1.48c-.09,1.19-.31,2.39-.51,3.53-.11.73-.25,1.43-.42,2.15-.23.94-.45,1.89-.73,2.82a33.35,33.35,0,0,1-1.88,4.8,16.28,16.28,0,0,1-2.39,3.51c0,.26.11.55.14.81.16,1.5.27,2.74,1.91,1.43a16.6,16.6,0,0,0,2.17-2.69l.1-.1a58.36,58.36,0,0,0,3.47-5,64.81,64.81,0,0,0,4.08-7.55c.61-1.3,1.2-2.63,1.72-4a24.67,24.67,0,0,1-2.17-6.47c-.05-.3-.1-.62-.14-.93a4.36,4.36,0,0,1-1.24-1.58,13.47,13.47,0,0,1-.87-2.32,33.85,33.85,0,0,1-.83-4.32l-.36-2.47-.29-1.88c-.15-.71-.23-1.46-.43-2.17a5.65,5.65,0,0,0-.59-1.49,5.62,5.62,0,0,1,.69,1.36c.25.75.39,1.53.59,2.27l.34,1.69.55,2.58a41.56,41.56,0,0,0,1,4.2,9.48,9.48,0,0,0,1,2.14l.13.27a1.42,1.42,0,0,1,0-.29,46.6,46.6,0,0,1-.25-6.56,55,55,0,0,1,.42-6s.13-1.1.13-1.1c-.61-1.35-1.12-2.75-1.61-4.18,0-.12-.06-.23-.1-.35a13.8,13.8,0,0,1-.81-4.26,11.7,11.7,0,0,0,1,3.48c.13.32.26.65.4.95.39,1,.86,1.9,1.31,2.84.48-3.34,1.19-6.62,2-9.86A82,82,0,0,0,132,123.47c-.1,2.07-.15,4.14-.1,6.2a26.76,26.76,0,0,0,3.59-6.79,39.37,39.37,0,0,0,1.69-6.07c.24-1,.42-2.06.57-3.1-.1,1-.25,2.06-.42,3.06a47.23,47.23,0,0,1-1.51,6.21,25.15,25.15,0,0,1-3.91,7.75c0,.37,0,.71,0,1.08a48.18,48.18,0,0,0,.68,6.3c.15.9.36,1.78.6,2.67s.48,3.16,1.75,2.08c.69-.6.78-1.84,1-2.64.5-1.54,1-3.11,1.41-4.65.65-2.41,1.28-4.81,1.79-7.23.22-.86.4-1.69.58-2.5.84-3.92,1.59-7.85,2.23-11.83.43-2.48.82-5,1.17-7.53.43,2.45.76,4.91,1,7.4.23,1.65.38,3.32.52,5,.14,2,.25,3.94.3,5.91,0,.74-.09,1.73-.12,2.72a6.92,6.92,0,0,0,.28,2.69,1.28,1.28,0,0,0,.59-.42,8.21,8.21,0,0,0,1.3-2.55c.11-.25.21-.55.32-.82a7.76,7.76,0,0,1-.64-4,31.13,31.13,0,0,1,.33-3.73,16.21,16.21,0,0,1,.25-1.68,41,41,0,0,1,.8-4.58c0-.37.14-.7.21-1.06,0,.37-.08.7-.1,1.07-.18,1.78-.3,3.56-.34,5.32l0,1c0,1.22,0,2.42.11,3.66a12.71,12.71,0,0,0,.24,1.8c.44-1.29.85-2.61,1.21-3.94.46-1.74.84-3.49,1.16-5.25a56.66,56.66,0,0,1-.79,6.46,46.72,46.72,0,0,1-1.42,6.17,34.46,34.46,0,0,1-1.64,4.51,22,22,0,0,1-1.87,3.48l0,.31c-.15,1.72-.82,4.21-.53,5.9a1.55,1.55,0,0,0,.07.35c1.59-.16,2.55-1.81,3.37-3.14a5.11,5.11,0,0,1,.35-.61c.39-.58.77-1.19,1.16-1.83a19.8,19.8,0,0,0,1.59-2.84c.12-.24.2-.49.32-.73a5,5,0,0,1-.27.8c-.32,1-.67,2-1.1,3a33.13,33.13,0,0,1-1.57,3.44c-.27.56-.57,1.13-.89,1.69a24.2,24.2,0,0,1-3.23,4.41,6,6,0,0,1-.48.42c-.36.39-.38,2.27-.5,2.82l-.58,2.7c-.4,1.75-.87,3.49-1.38,5.23-.13.35-.44,1.06-.76,1.79-.05.16-.12.33-.17.49-.33.9-.53,1.82-.23,2.2.69.88,2.13-1,2.69-1.51a41.92,41.92,0,0,0,3-3.41c.64-.81,1.25-1.65,1.81-2.52.41-.58.8-1.16,1.15-1.75a4.68,4.68,0,0,1,.07-.84,26.7,26.7,0,0,1,1.6-7c.14-.41.3-.82.46-1.23a55.65,55.65,0,0,1,2.77-6c.07-.1.11-.24.18-.35a3.73,3.73,0,0,1-.16.35,45.15,45.15,0,0,0-2.42,6.56,7.55,7.55,0,0,0-.28.88c-.34,1.21-1.32,3.69-.83,4.83a3.09,3.09,0,0,0,1.28-1.36c.47-.88.82-1.89,1.19-2.59.93-1.83,1.8-3.7,2.65-5.59a54.72,54.72,0,0,1-3.28,9.16c-.27.65-.61,1.3-.93,1.92-.43.92-.91,1.83-1.41,2.71s-1.91,2.4-1.69,3.48c1.29-.11,2.81-1.84,3.68-2.73A34.71,34.71,0,0,0,156.28,148.61Z"/><path class="cls-3" d="M143.2,169.62c.74-.32,1.48-.62,2.22-.92A50.54,50.54,0,0,0,153,157.14,51.54,51.54,0,0,1,143.2,169.62Z"/><path class="cls-5" d="M142.4,125.93s-4.28,45.77-33.82,53.86C133.18,173.18,142.4,125.93,142.4,125.93Z"/><path class="cls-5" d="M144,125.41s2.38,41.73-23.75,53.55C142,168.16,144,125.41,144,125.41Z"/><path class="cls-4" d="M92.39,180.4c-.65-.1-1.29-.23-1.9-.36s-.94-.2-1.42-.28l-.47-.12c-.3-.09-.61-.15-.91-.22a1,1,0,0,1-.07-.38,8.68,8.68,0,0,1-.28-1.49,4.94,4.94,0,0,1-.14-.75,18,18,0,0,1,1.52,1.12,28.84,28.84,0,0,0,3.56,2.41S92.36,180.37,92.39,180.4Z"/><path class="cls-6" d="M286,193a5.27,5.27,0,0,1-3.64-6.68,8.11,8.11,0,0,1-.57-1.1,6.33,6.33,0,0,1-2.46-.25,5.73,5.73,0,0,1-3.8-3.29,4.52,4.52,0,0,1-2.66-4.21,6.11,6.11,0,0,1-.34-1.84,6.7,6.7,0,0,1-5.05-3.61,5.09,5.09,0,0,1-.38-.95,8,8,0,0,1-4.45-2.05,6.31,6.31,0,0,1-.6-.55,18.19,18.19,0,0,1-6.85.25c-6.26-1.36-8.1-7.73-7.7-13.42.37-5.39,4-11,9.92-11a9.11,9.11,0,0,1,6,2.13c2.54-.43,5.46.72,8.17,2.35a5.77,5.77,0,0,1,.54-.37,4.28,4.28,0,0,1,5.46-2.81,4.19,4.19,0,0,1,2.37,1.65,4.58,4.58,0,0,1,.6,3.85,6.13,6.13,0,0,1,1,.18,4.85,4.85,0,0,1,3.12,6.75,7.2,7.2,0,0,1,1.05.19,5.73,5.73,0,0,1,4,5,6.62,6.62,0,0,1,2.41,8.34,7.13,7.13,0,0,1,1.47,6.46,6.9,6.9,0,0,1-.53,1.31,1.58,1.58,0,0,1,.17.45,6.89,6.89,0,0,1-.45,5.74C294.12,189.34,291,194.52,286,193Z"/><path class="cls-7" d="M293.32,179.79a3.43,3.43,0,0,1-2.4.07,3.39,3.39,0,0,1-2.53-3.51.35.35,0,0,1-.16.09,2.5,2.5,0,0,1-3.21,2.63c-2.29-.7-2.09-3.44-.62-4.53a3.53,3.53,0,0,1-.2-1.23,7.25,7.25,0,0,1-2.85-.06,3,3,0,0,1-3.84,2.33,3,3,0,0,1-1.72-4.46,10.77,10.77,0,0,1-2.34-.41,10,10,0,0,1-2.91-1.41,2,2,0,0,1-2.49,1,2.16,2.16,0,0,1-1.42-2.8c-2.48-.95-2-4.27.05-5.09,0,0,0-.07,0-.11a2.72,2.72,0,0,1-.12-3.68.76.76,0,0,1-.26-.24,2.26,2.26,0,0,1-1.12,0c-2.94-.89-1.54-5.48,1.39-4.59a2.18,2.18,0,0,1,1.64,2.17,7.18,7.18,0,0,1,.65-1,9.05,9.05,0,0,1,6.26-3.81c.09-2.38,2.07-4.71,4.93-3.91a3.69,3.69,0,0,1,.5,1,4.73,4.73,0,0,1,.1,2.86c.09,0,.16,0,.25.05a3,3,0,0,1,.76.13,5.31,5.31,0,0,1,1.32.6,4.86,4.86,0,0,1,1.8,6.15,7.2,7.2,0,0,1,1.05.19,5.73,5.73,0,0,1,4,5,6.62,6.62,0,0,1,2.41,8.34,7.05,7.05,0,0,1,1.68,5.12,9.08,9.08,0,0,1-.21,1.34,6.9,6.9,0,0,1-.53,1.31A1.58,1.58,0,0,1,293.32,179.79Z"/><path class="cls-7" d="M290.16,179.63a.56.56,0,0,0-.32,1.08A.56.56,0,0,0,290.16,179.63Z"/><path class="cls-8" d="M293.89,176.69a2.58,2.58,0,0,1-1.6,0,2.63,2.63,0,0,1-1.85-3.23A3.84,3.84,0,0,1,287,174a3.94,3.94,0,0,1-2.31-1.74,4.38,4.38,0,0,1-.49-1.35,1.73,1.73,0,0,1-1.13.63,1.61,1.61,0,0,1-1,0,2,2,0,0,1-1.39-2.56,2.37,2.37,0,0,1,.73-1.18,2.66,2.66,0,0,1-.52-.06,6.94,6.94,0,0,1-3-1.66,2.77,2.77,0,0,1-1.91,2.22,2.56,2.56,0,0,1-1.5,0,2.64,2.64,0,0,1-1.74-3.5,2.81,2.81,0,0,1,.41-.81h-.3a2.93,2.93,0,0,1-1-.14c-4-1.21-2.3-7.17,1.51-6.51a2.39,2.39,0,0,1,1.82-2,3.51,3.51,0,0,1,1.3-3.81c-1.08-1.73.37-4.63,2.87-3.87a2.45,2.45,0,0,1,1.1.67,2.56,2.56,0,0,1,.35,2.91.58.58,0,0,1-.13.22,1.69,1.69,0,0,1-.4.55,2.11,2.11,0,0,1,.37.41,8,8,0,0,1,1.62-.37,4.58,4.58,0,0,1,.62-.08,3.76,3.76,0,0,1,1.44,1.41,5,5,0,0,1,.36,4.74,7.2,7.2,0,0,1,1.05.19,5.73,5.73,0,0,1,4,5,6.62,6.62,0,0,1,2.41,8.34,5.53,5.53,0,0,1,1,1.49A7,7,0,0,1,293.89,176.69Z"/><path class="cls-8" d="M278.91,168.58a1.42,1.42,0,0,0-.83,2.72A1.42,1.42,0,0,0,278.91,168.58Z"/><path class="cls-8" d="M269.61,163.26c-2.67-.81-3.94,3.34-1.26,4.15S272.29,164.07,269.61,163.26Z"/><path class="cls-8" d="M268.46,156.84a1.43,1.43,0,0,0-.83,2.73A1.43,1.43,0,0,0,268.46,156.84Z"/><path class="cls-8" d="M272.52,152.27a.94.94,0,0,0-.54,1.79A.94.94,0,0,0,272.52,152.27Z"/><path class="cls-9" d="M293.16,173.06a2.78,2.78,0,0,1-2.31.24,2.85,2.85,0,0,1-2.11-2.85l-.09,0a3.48,3.48,0,0,1-3.95,1.8,1.27,1.27,0,0,1-.35-.07,4.23,4.23,0,0,1-1.27-.65,3.47,3.47,0,0,1-1.33-2.21,4.17,4.17,0,0,1-1.05-.39c-.07,0-.09,0-.15,0a4.87,4.87,0,0,1-2.78.12,5.16,5.16,0,0,1-1.73-.76,6,6,0,0,1-2.1-1.87,1.91,1.91,0,0,1-1.14-1.65,2.09,2.09,0,0,1,.11-.8,5.94,5.94,0,0,1-.06-1,2.18,2.18,0,0,1-.65-.06c-2.59-.79-1.35-4.79,1.22-4a1.94,1.94,0,0,1,1.2,1,4.67,4.67,0,0,1,.85-.48,1.85,1.85,0,0,1,2.06-2.74.84.84,0,0,1,.26.15l.39-.29a3,3,0,0,1-.68-2.5c-1.74-1.2-.54-4.47,1.84-3.75a1.94,1.94,0,0,1,1.3,1.13s.07,0,.1,0a2,2,0,0,1,.6.09,2.83,2.83,0,0,1,2,2,3.44,3.44,0,0,1,1.06-.21,5,5,0,0,1,.36,4.74,7.2,7.2,0,0,1,1.05.19,5.73,5.73,0,0,1,4,5,6.62,6.62,0,0,1,2.41,8.34A5.53,5.53,0,0,1,293.16,173.06Z"/><path class="cls-6" d="M158.22,116.49a9.15,9.15,0,0,0-7.66,0,2,2,0,0,0-.58.26,8.88,8.88,0,0,0-1.79-.56,9.5,9.5,0,0,0-8.41,2.63,10.46,10.46,0,0,0-1-.31,9.42,9.42,0,0,0-9.8,4.38,7.66,7.66,0,0,0-6.29,5.84,8.22,8.22,0,0,0-.13,1.41c-3.46-1.11-7.63.28-8.64,4.84a7.19,7.19,0,0,0-.12,1.37,6.1,6.1,0,0,0-5,1.2c-1.19,1-1.64,2.41-2.38,3.71a7.53,7.53,0,0,0-.86,5.29,14.87,14.87,0,0,1,.7,3.25c0,1.59-1,3-1.19,4.59-.18,1.89.87,3.66,1.89,5.27a4.1,4.1,0,0,0,.91,1.11,2.13,2.13,0,0,0,.65.34,12.61,12.61,0,0,0-1.28,6.69c.71,7.9,8.49,12.09,15.69,12,7.58-.07,15.84-3.18,17-11.62.4-3-.32-6.08-1.06-9.07a7.17,7.17,0,0,0,.67-.85,10.68,10.68,0,0,0,2.26-6.12,8.1,8.1,0,0,0,1.22-.6,8.93,8.93,0,0,0,4.25-7.08,8.19,8.19,0,0,0,2.4-.64,6,6,0,0,0,5.31-4,7.68,7.68,0,0,0,4-5.4,8.17,8.17,0,0,0,.07-3.29,9.8,9.8,0,0,0,1.41-.86c3.57.6,7.48-1,8.48-5.54C170.34,118,163.15,114.44,158.22,116.49Z"/><path class="cls-7" d="M150.56,116.5a4.83,4.83,0,0,1-4,6.9s.11.11.13.2a3.32,3.32,0,0,1,3.82,4c-.68,3.11-4.34,3.13-5.94,1.3a4.48,4.48,0,0,1-1.61.39,9.63,9.63,0,0,1,.22,3.79,4,4,0,0,1,3.5,4.86c-.66,3-3.55,3.66-5.74,2.74a14.78,14.78,0,0,1-.3,3.16,13.32,13.32,0,0,1-1.58,4,2.69,2.69,0,0,1,1.65,3.19,2.86,2.86,0,0,1-3.57,2.18c-1,3.39-5.46,3.06-6.76.47-.05,0-.09,0-.14.06a3.61,3.61,0,0,1-4.86.54,1.39,1.39,0,0,1-.3.37,3.07,3.07,0,0,1,.06,1.49c-.87,4-7.1,2.62-6.22-1.37a2.88,2.88,0,0,1,2.7-2.4,9.84,9.84,0,0,1-1.44-.76c-2.85-1.71-8.56,1.57-7.84-4.65-3.16.13-7-4.65-3.57-9.38a4.69,4.69,0,0,1,1.25-.77,6.39,6.39,0,0,1,3.8-.43c0-.13,0-.22,0-.34a4.11,4.11,0,0,1,.09-1,7.19,7.19,0,0,1,.66-1.81,6.48,6.48,0,0,1,8-3,8.22,8.22,0,0,1,.13-1.41A7.66,7.66,0,0,1,129,122.9a9.42,9.42,0,0,1,9.8-4.38,10.46,10.46,0,0,1,1,.31,9.38,9.38,0,0,1,6.61-2.77,12.34,12.34,0,0,1,1.8.14,8.88,8.88,0,0,1,1.79.56A2,2,0,0,1,150.56,116.5Z"/><path class="cls-7" d="M150.68,120.7a.75.75,0,0,0,1.46.32A.75.75,0,0,0,150.68,120.7Z"/><path class="cls-8" d="M146.39,116.06a3.42,3.42,0,0,1,.14,2.12,3.51,3.51,0,0,1-4.09,2.8,5.05,5.05,0,0,1,1.05,4.5,5.2,5.2,0,0,1-2.06,3.25,5.72,5.72,0,0,1-1.74.79,2.25,2.25,0,0,1,.95,1.42,2,2,0,0,1,.06,1.32,2.66,2.66,0,0,1-3.25,2.12,3.23,3.23,0,0,1-1.64-.84c0,.26,0,.48,0,.69a9.27,9.27,0,0,1-1.91,4.11,3.64,3.64,0,0,1,3.15,2.3,3.37,3.37,0,0,1,.13,2,3.51,3.51,0,0,1-4.46,2.67,3.68,3.68,0,0,1-1.12-.46c0,.13,0,.27,0,.4a4.35,4.35,0,0,1-.08,1.33c-1.19,5.44-9.27,3.8-8.8-1.32a3.19,3.19,0,0,1-2.91-2.21,4.68,4.68,0,0,1-5.2-1.31c-2.18,1.61-6.17,0-5.43-3.42a3.31,3.31,0,0,1,.77-1.52,3.42,3.42,0,0,1,3.83-.77.69.69,0,0,1,.31.15,2.13,2.13,0,0,1,.77.48,2.57,2.57,0,0,1,.51-.54,10.36,10.36,0,0,1-.67-2.11,6.3,6.3,0,0,1-.17-.82,5.07,5.07,0,0,1,1.72-2.06,6.7,6.7,0,0,1,6.26-1,8.22,8.22,0,0,1,.13-1.41A7.66,7.66,0,0,1,129,122.9a9.42,9.42,0,0,1,9.8-4.38,10.46,10.46,0,0,1,1,.31,6.77,6.77,0,0,1,1.87-1.41A9.2,9.2,0,0,1,146.39,116.06Z"/><path class="cls-8" d="M137.2,136.79a1.89,1.89,0,0,0,3.7.81A1.89,1.89,0,0,0,137.2,136.79Z"/><path class="cls-8" d="M131.11,149.69c-.79,3.63,4.85,4.87,5.65,1.24S131.91,146.05,131.11,149.69Z"/><path class="cls-8" d="M122.72,151.89a1.9,1.9,0,0,0,3.7.81A1.9,1.9,0,0,0,122.72,151.89Z"/><path class="cls-8" d="M116.23,147a1.24,1.24,0,0,0,2.43.53A1.24,1.24,0,0,0,116.23,147Z"/><path class="cls-9" d="M141.65,117.42a3.69,3.69,0,0,1,.56,3,3.78,3.78,0,0,1-3.56,3.1l0,.12a4.63,4.63,0,0,1,2.8,5.06,1.32,1.32,0,0,1-.06.46,4.94,4.94,0,0,1-.73,1.75,4.5,4.5,0,0,1-2.79,2,6,6,0,0,1-.4,1.44c0,.09,0,.12,0,.21a6.38,6.38,0,0,1,.46,3.66,7.15,7.15,0,0,1-.83,2.39,8,8,0,0,1-2.26,3,2.54,2.54,0,0,1-2.07,1.68,2.82,2.82,0,0,1-1.07-.06,7.16,7.16,0,0,1-1.35.18,2.34,2.34,0,0,1,0,.87c-.77,3.53-6.2,2.29-5.43-1.2a2.56,2.56,0,0,1,1.2-1.69,6.3,6.3,0,0,1-.73-1.07c-1.54,1.09-4.39,0-3.85-2.46a1.23,1.23,0,0,1,.16-.35l-.41-.49a4,4,0,0,1-3.26,1.16c-1.4,2.43-5.87,1.19-5.16-2.05a2.54,2.54,0,0,1,1.36-1.83s0-.1,0-.14a2.72,2.72,0,0,1,0-.81,3.81,3.81,0,0,1,.56-1.36,3.59,3.59,0,0,1,1.94-1.49,4.43,4.43,0,0,1-.39-1.39,6.7,6.7,0,0,1,6.26-1,8.22,8.22,0,0,1,.13-1.41A7.66,7.66,0,0,1,129,122.9a9.42,9.42,0,0,1,9.8-4.38,10.46,10.46,0,0,1,1,.31A6.77,6.77,0,0,1,141.65,117.42Z"/><path class="cls-6" d="M287.27,219.8c-5,7.52-13.17,18.83-22.63,21-7.6,1.73-12.21-3.41-15.43-9.29-5.07.53-9.93-3.35-12.81-7.6-3.89-5.75-8.82-12.72-7.69-20,.13-1,2-5.32,1.92-6-.2-.89-1.25-1.18-1.89-1.91-1.86-2.13-3.11-4-3.13-7.06a8.7,8.7,0,0,1,6-8.65c.07-.12.1-.24.17-.35a19,19,0,0,1,7.32-6.62,31.2,31.2,0,0,1,3.74-1.77c.33-.1,1.3-.44,1.83-.64a5.14,5.14,0,0,1,.44-.47,4.66,4.66,0,0,1,5.15-1,4.21,4.21,0,0,1,4.25-2.44,5,5,0,0,1,5.12-1.72l.1,0a4.66,4.66,0,0,1,1.46.78,4.41,4.41,0,0,1,4.1,2,4.51,4.51,0,0,1,.58-.15,3,3,0,0,1,1.12-.06,2.82,2.82,0,0,1,.76.13,4.09,4.09,0,0,1,2.46,2.21,3.77,3.77,0,0,1,.39,2.36,22.38,22.38,0,0,1,6.82,3.81,14.29,14.29,0,0,1,4.3,6.81,3,3,0,0,1,.81.75,4.32,4.32,0,0,1,3-.22,4.42,4.42,0,0,1,1,.48.42.42,0,0,1,.21.17,4.64,4.64,0,0,1,1.84,2.76l.58.17a11.29,11.29,0,0,1,2.66,1.35,3.4,3.4,0,0,1,1.7,1.11,3.27,3.27,0,0,1,.5.86,10.44,10.44,0,0,1,1.32,2C299.59,201.22,291.8,213,287.27,219.8Z"/><path class="cls-7" d="M287.38,203a2.72,2.72,0,0,1-.12.73,4.62,4.62,0,0,1-3.21,3.2,4.69,4.69,0,0,1-.42,3.91c1.64,3-.84,7.72-5,6.45a4,4,0,0,1-3-4,10.57,10.57,0,0,1-1.7,1.32c4.17,2,1.76,9-3.07,7.58a3.78,3.78,0,0,1-2.18-1.6,2.39,2.39,0,0,1-2.86,1.17,2.53,2.53,0,0,1-.8-.44,7,7,0,0,1-.58.92c2.73,1.23,1.24,5.79-1.84,4.85a2.54,2.54,0,0,1-1.42-3.8,1.37,1.37,0,0,1-.29,0,3.55,3.55,0,0,1-1.8-1.22,3.4,3.4,0,0,1-1,.73c1.95,1.36.58,5-2.08,4.2a2.37,2.37,0,0,1-.81-4,3.78,3.78,0,0,1-2.34-1.94,4.29,4.29,0,0,1-4.76,1.39c-4.71-1.43-3.83-7.51-.29-8.94a3.32,3.32,0,0,1-.12-2.57c-.11-.07-.22-.06-.33-.13a1.84,1.84,0,1,1-3.45-.82,4.46,4.46,0,0,1-1.65-.2,5.39,5.39,0,0,1-3.53-6.61,4.86,4.86,0,0,1,2.65-3.1,3.61,3.61,0,0,1-.36-1.78,4.93,4.93,0,0,1-2.2-.13c-5-1.52-4-8.12-.09-9.48a1.81,1.81,0,0,1-.14-.41,4.63,4.63,0,0,1-1.21-.2c-4.71-1.43-3.44-7.92.49-8.66a4.16,4.16,0,0,1,5.29-2.66,4,4,0,0,1,1.36.68c.13-2.4,1.88-4.77,4.59-4.68,0-2.1,1.77-4.27,4.39-3.47a3.43,3.43,0,0,1,1.35.74,4.2,4.2,0,0,1,4.52-4.13,4.76,4.76,0,0,1,.28-.49l.1,0a4.66,4.66,0,0,1,1.46.78,4.41,4.41,0,0,1,4.1,2,4.51,4.51,0,0,1,.58-.15,6.3,6.3,0,0,1,1,0,.48.48,0,0,1,.16-.08,2.82,2.82,0,0,1,.76.13,4.29,4.29,0,0,1,2.85,4.57,22.38,22.38,0,0,1,6.82,3.81,14.29,14.29,0,0,1,4.3,6.81,3,3,0,0,1,.81.75,4.32,4.32,0,0,1,3-.22,4.42,4.42,0,0,1,1,.48s0,.1,0,.14a.4.4,0,0,1,.19,0,4.64,4.64,0,0,1,1.84,2.76,9.7,9.7,0,0,1,3.24,1.52,3.4,3.4,0,0,1,1.7,1.11,4.37,4.37,0,0,1-3.21,4.17,5.24,5.24,0,0,1,1.83,5.43A5,5,0,0,1,287.38,203Z"/><path class="cls-8" d="M247.56,195.25l-.54-.2c-1.13-.43-1.9,1.08-1.19,1.9l.39.45C247.56,199,249.71,196.06,247.56,195.25Z"/><path class="cls-8" d="M278.16,211.56a4.34,4.34,0,0,1-2.84-2.43,6.43,6.43,0,0,1-4.28,2,4.1,4.1,0,0,1,.86.47.94.94,0,0,1,1.19-.61,1,1,0,0,1,0,1.91c1.89,3.21-.78,8.5-5.37,7.11a4.39,4.39,0,0,1-3.25-4.23,1.76,1.76,0,0,1-.38.06,1.83,1.83,0,0,1-2.3,1.2,1.8,1.8,0,0,1-1.09-2.57,4.56,4.56,0,0,1,.1-5.94,3.76,3.76,0,0,1-1.75-2.6,4.07,4.07,0,0,1-1.47-1,3.78,3.78,0,0,1-2.15-.06,3.65,3.65,0,0,1-1.21-.63,3.06,3.06,0,0,1-1.36,2.62s.05.05,0,.08a3.33,3.33,0,0,1,3.64-1c4.55,1.38,2.4,8.47-2.15,7.08a3.26,3.26,0,0,1-2.35-2.38,2.53,2.53,0,0,1-2.51.47c-2.78-.84-2.38-4.36-.37-5.38a2.85,2.85,0,0,1,2-4c-.06,0-.1,0-.16,0a2.25,2.25,0,0,1-1.36-3.22c-1.91-2.38,0-6.71,3.52-6.07a10.56,10.56,0,0,1-.92-3.25,4.86,4.86,0,1,1-3.12-6.42,4.79,4.79,0,0,1,3.2,3.21c.05-.39.09-.74.17-1.12s.23-.53.3-.77a3.31,3.31,0,0,1-.61-.06,2,2,0,0,1-1.42-2.47,4.7,4.7,0,0,1-.55-1.4,2.64,2.64,0,0,1-3,.93c-3.61-1.09-1.91-6.68,1.7-5.59a2.71,2.71,0,0,1,1.77,1.54,4.63,4.63,0,0,1,5.24-2.11,3.87,3.87,0,0,1,.62.29,8.06,8.06,0,0,1,.14-.93A5.07,5.07,0,0,1,263,171a4.12,4.12,0,0,1,.79.38,5.07,5.07,0,0,1,4.9-1.22,4.34,4.34,0,0,1,.83.36,4.6,4.6,0,0,1,.74-.25,3.77,3.77,0,0,1,.39,2.36,22.38,22.38,0,0,1,6.82,3.81,14.29,14.29,0,0,1,4.3,6.81,3,3,0,0,1,.81.75,4.32,4.32,0,0,1,3-.22,4.42,4.42,0,0,1,1,.48.42.42,0,0,1,.21.17,4.64,4.64,0,0,1,1.84,2.76l.58.17a2.57,2.57,0,0,1-2.31,2.87,8.55,8.55,0,0,1-.18,1.25,6.22,6.22,0,0,1-3.52,4,5,5,0,0,1-1,1.65c2.8,1.45,2.65,5.14.74,7C285.5,207.15,282.86,213,278.16,211.56Z"/><path class="cls-8" d="M245.07,203.41a1.46,1.46,0,0,0-.85,2.79A1.46,1.46,0,0,0,245.07,203.41Z"/><path class="cls-8" d="M238.83,181a1.31,1.31,0,0,0-.76,2.51A1.31,1.31,0,0,0,238.83,181Z"/><path class="cls-8" d="M292.71,196.66a.83.83,0,0,0-.48,1.58A.83.83,0,0,0,292.71,196.66Z"/><path class="cls-8" d="M287.07,195.39c-2.85-.87-4.21,3.57-1.35,4.44S289.94,196.26,287.07,195.39Z"/><path class="cls-8" d="M256,215.09a1.91,1.91,0,0,0-1.11,3.66A1.91,1.91,0,0,0,256,215.09Z"/><path class="cls-9" d="M252.88,183.65c-3.5-1.06-5.16,4.38-1.65,5.44S256.39,184.72,252.88,183.65Z"/><path class="cls-9" d="M283.12,185.92a3.51,3.51,0,0,0-2.2,0,4.45,4.45,0,0,0-.5,0c2.09-1.34,2.44-5.1-.67-6a3.28,3.28,0,0,0-1.3-.12,8.85,8.85,0,0,0-5.67-4.68,8.64,8.64,0,0,0-9.09,2.16,3.12,3.12,0,0,0-.87-.46c-2.6-.79-4.23,1.65-3.88,3.7-3.13-.65-4.81,3.15-3.21,5.27a4.54,4.54,0,0,0-.83,1.55,4.78,4.78,0,0,0,3.14,5.88,4.67,4.67,0,0,0,2.72,0,2.82,2.82,0,0,0-.19.48,3.35,3.35,0,0,0-.07.44,1.84,1.84,0,0,0-.28-.15,1.34,1.34,0,0,0-1.09,2.41,3.22,3.22,0,0,0-.56.61,2.6,2.6,0,0,0-1.66-1.37c-3.5-1.06-5.16,4.38-1.66,5.44a2.57,2.57,0,0,0,2.91-.89,3,3,0,0,0,2,1.85,3.1,3.1,0,0,0,4-2.14,5.12,5.12,0,0,0,5.28-2.05,3.75,3.75,0,0,0,.4.21.78.78,0,0,0,.21,0,4.13,4.13,0,0,0-.36,3.06,5,5,0,0,0-1.38-.69,5.2,5.2,0,1,0,3.46,6.49,5.58,5.58,0,0,0-.36-3.81,3.88,3.88,0,0,0,.61.33,3.37,3.37,0,0,0,4-1.44,3.12,3.12,0,0,0,1.1.59c3.1.94,4.78-3,3-4.87a5,5,0,0,0,.41-4.89,4.86,4.86,0,0,0,.51.28C285.53,194.39,287.69,187.3,283.12,185.92Z"/><path class="cls-9" d="M277.44,204c-2.81-.85-4.14,3.52-1.32,4.37S280.26,204.81,277.44,204Z"/><path class="cls-9" d="M262.59,173.53a.94.94,0,0,0-.55,1.79A.94.94,0,0,0,262.59,173.53Z"/><path class="cls-9" d="M258.13,175.83c-3.82-1.17-5.63,4.78-1.8,5.94S262,177,258.13,175.83Z"/><path class="cls-9" d="M284.15,197.08c-2.9-.89-4.28,3.62-1.37,4.51S287.06,198,284.15,197.08Z"/><path class="cls-9" d="M288.93,190.61c-2.53-.77-3.74,3.16-1.2,3.93S291.47,191.38,288.93,190.61Z"/><path class="cls-9" d="M267.85,211.74c-3.69-1.12-5.44,4.61-1.74,5.73S271.54,212.86,267.85,211.74Z"/><path class="cls-6" d="M276.3,139.74a7.61,7.61,0,0,0-.26-.86,7.26,7.26,0,0,0-4.1-4,5.15,5.15,0,0,0-1.29-.43,5.38,5.38,0,0,0,.88-4.08.31.31,0,0,0,0-.18,4.31,4.31,0,0,0-.24-.85,6.87,6.87,0,0,0-5.65-4.15.86.86,0,0,0,0-.16,4.59,4.59,0,0,1-5-.82,3.1,3.1,0,0,1-.84-.93,3.6,3.6,0,0,1-2.71-1.69,2.3,2.3,0,0,1-.86-1.31,4.74,4.74,0,0,1-.55,0,3.73,3.73,0,0,1-1.28-.28,3,3,0,0,1-1.22.42,3.37,3.37,0,0,1-3.58-2.61l-.85-.17c-2.47.33-5.09.76-6.32.52A21.86,21.86,0,0,1,237,116a6.54,6.54,0,0,1-1.48-1.1,19.52,19.52,0,0,0-4.95,1.23,17.34,17.34,0,0,0-4,2.2c-.32.21-.61.44-.92.67a2.86,2.86,0,0,0-.54.5.78.78,0,0,0,0-.26,5.8,5.8,0,0,0-.29-.61,3.44,3.44,0,0,0-3.55-1.58,3.47,3.47,0,0,0-1.66.57,5.87,5.87,0,0,0-3.35.1,5.59,5.59,0,0,0-3.63,7.27,5.85,5.85,0,0,0,1.66,2.31l-.13,0a5,5,0,0,0-3.27,6.54,5.32,5.32,0,0,0,.82,1.41,4.71,4.71,0,0,0-.2,4.12c1.6,4.19,6.49,4.36,9.19,2.25a6.67,6.67,0,0,0,5,.3,7.46,7.46,0,0,0,1.85-1,5.73,5.73,0,0,0,9.55.39c4.79.81,8.61,6.83,13.46,7.32,1.14,2.79,5.12,4.66,8.32,4.55a2.51,2.51,0,0,0,.14.81,2.57,2.57,0,0,0,3,1.59,2.54,2.54,0,0,0,.17.67c1.61,4.24,8.47,2.11,6.85-2.14a3.47,3.47,0,0,0-1.74-1.93,6.06,6.06,0,0,0,2.15-1.25,4.62,4.62,0,0,0,1.6-3.5,5,5,0,0,0,.9-.19,7.36,7.36,0,0,0,1.54-.76,6.41,6.41,0,0,0,1.42-1.22A6.17,6.17,0,0,0,276.3,139.74Z"/><path class="cls-7" d="M276,138.88a7.56,7.56,0,0,0-5.39-4.43,5.47,5.47,0,0,0,.6-5.11,6.87,6.87,0,0,0-5.65-4.15.86.86,0,0,0,0-.16,4.59,4.59,0,0,1-5-.82,3.1,3.1,0,0,1-.84-.93,3.6,3.6,0,0,1-2.71-1.69,2.3,2.3,0,0,1-.86-1.31,4.74,4.74,0,0,1-.55,0,3.73,3.73,0,0,1-1.28-.28,3,3,0,0,1-1.22.42,3.37,3.37,0,0,1-3.58-2.61l-.85-.17c-2.47.33-5.09.76-6.32.52A21.86,21.86,0,0,1,237,116a6.34,6.34,0,0,1-1.49-1.11,19.85,19.85,0,0,0-9.89,4.11,2.86,2.86,0,0,0-.54.5.78.78,0,0,0,0-.26,3.4,3.4,0,0,0-3.84-2.19,2.21,2.21,0,0,0-1.46,2.48c-.93-2.29-4.67-1.1-3.78,1.23a1.89,1.89,0,0,0,1.66,1.26,2.91,2.91,0,0,0-.28,2.84,3.25,3.25,0,0,0,2.21,2.08c.05.13,0,.22.06.32s.12.16.15.23a2.6,2.6,0,0,0-1.37,3.18c-1.32-.37-3,.64-2.44,2.25.77,2,3.79,1.29,3.75-.5a3.42,3.42,0,0,0,2.48.37,4.78,4.78,0,0,0,1.43,1.86,1,1,0,0,0,0,.72,1.29,1.29,0,0,0,2.16.35,4.35,4.35,0,0,0,2.5-.11,4.67,4.67,0,0,0,2.38-1.88,2.9,2.9,0,0,0,.1,1.91c1.48,3.9,7.79,1.93,6.31-2a3.11,3.11,0,0,0-.68-1.1,2.92,2.92,0,0,0,.64-.89l.42-.05a2.56,2.56,0,0,0,.13.49,4.34,4.34,0,0,0,4.44,2.64,5.66,5.66,0,0,0,.3,1.32c1.55,4.07,6.27,4.24,8.91,2.2a3.43,3.43,0,0,0,.14.51,6.51,6.51,0,0,0,4.58,3.82,2.87,2.87,0,0,0,.16,1.5c1,2.63,4.23,2.52,5.69.95a2.42,2.42,0,0,0,.65.13,2.23,2.23,0,0,0-.25,2.16,2.5,2.5,0,0,0,2.16,1.63,4.88,4.88,0,0,0,5,2c2.23-.39,4.17-2,4-4.45a4.12,4.12,0,0,0-.15-1,3.83,3.83,0,0,0,1.57-.21A6.17,6.17,0,0,0,276,138.88Z"/><path class="cls-7" d="M266.42,151.8c-.63-1.64-3.3-.82-2.67.83S267,153.45,266.42,151.8Z"/><path class="cls-8" d="M228,127.45c-.87-2.28-4.57-1.14-3.7,1.15S228.88,129.74,228,127.45Z"/><path class="cls-8" d="M272.37,148.86c-.87-2.29-4.57-1.14-3.7,1.15S273.24,151.15,272.37,148.86Z"/><path class="cls-8" d="M276.3,139.74a7,7,0,0,0-5.65-5.29,5.47,5.47,0,0,0,.6-5.11,6.87,6.87,0,0,0-5.65-4.15.86.86,0,0,0,0-.16,4.59,4.59,0,0,1-5-.82,3.1,3.1,0,0,1-.84-.93,3.6,3.6,0,0,1-2.71-1.69,2.3,2.3,0,0,1-.86-1.31,4.74,4.74,0,0,1-.55,0,3.73,3.73,0,0,1-1.28-.28,3,3,0,0,1-1.22.42,3.37,3.37,0,0,1-3.58-2.61l-.85-.17c-2.47.33-5.09.76-6.32.52A21.86,21.86,0,0,1,237,116c-.61-.35.51.74.14.36-1-4.16-5.84-2.87-6.57-.23a2.77,2.77,0,0,0-.19,2.25,4,4,0,0,0-2.88-.21,4.54,4.54,0,0,0-.61.24.69.69,0,0,0-.35-.08,2.38,2.38,0,0,0-1.79.3,1.81,1.81,0,0,0-.8,2.31,2.16,2.16,0,0,0,1,1.09,5.84,5.84,0,0,0,.22.87,4.19,4.19,0,0,0,4,2.57,3.88,3.88,0,0,0,.24,1.56,4.57,4.57,0,0,0,2,2.26,1.68,1.68,0,0,0-1,2.26c.9,2.36,4.73,1.16,3.83-1.2a3.23,3.23,0,0,0-.27-.41,4.23,4.23,0,0,0,1.13-.21,4.29,4.29,0,0,0,1.53-.92,4.77,4.77,0,0,0,3.81.42,3.35,3.35,0,0,0,.66-.32,2.27,2.27,0,0,0-.35,2.36,2.75,2.75,0,0,0,1.67,1.65,4.6,4.6,0,0,0,5.21,1.45,2.89,2.89,0,0,0,.13.49A5.15,5.15,0,0,0,253,138a2.53,2.53,0,0,0,.07.34,5.23,5.23,0,0,0,1.4,2.07,2.28,2.28,0,0,0-.68,2.71c.91,2.4,4,2.16,5.1.55a4.57,4.57,0,0,0,5.09,1.74,4.38,4.38,0,0,0,1.61-1,5.25,5.25,0,0,0,5.33,1.39,4.65,4.65,0,0,0,3.14-5.61A2.23,2.23,0,0,0,276.3,139.74Z"/><path class="cls-8" d="M248,137.45c-1.24-3.26-6.51-1.62-5.27,1.64S249.2,140.71,248,137.45Z"/><path class="cls-9" d="M232.31,120.19a2.18,2.18,0,0,0-1.09-1.21,2.06,2.06,0,0,0,.5-2.35c-1.15-3-6.06-1.51-4.91,1.53a2.43,2.43,0,0,0,1.38,1.44,1.87,1.87,0,0,0-.3,2C228.93,124.3,233.35,122.92,232.31,120.19Z"/><path class="cls-9" d="M236,124.33c-1-2.58-5.17-1.29-4.19,1.3S237,126.92,236,124.33Z"/><path class="cls-9" d="M223.81,123.46c-.7-1.84-3.67-.91-3,.92S224.51,125.29,223.81,123.46Z"/><path class="cls-9" d="M275.41,141a2,2,0,0,0-2.87-.94,2.09,2.09,0,0,0,.16-1.93,2.4,2.4,0,0,0-2.2-1.6,2.94,2.94,0,0,0,1.44-1.69,5.15,5.15,0,0,0-1.29-.43,5.38,5.38,0,0,0,.88-4.08.35.35,0,0,0-.17-.06l.13-.12a4.31,4.31,0,0,0-.24-.85,6.87,6.87,0,0,0-5.65-4.15.86.86,0,0,0,0-.16,3.57,3.57,0,0,1-.46.16,5.22,5.22,0,0,0-2.43-1.69,3.89,3.89,0,0,0-1.68-.13,4.83,4.83,0,0,0-4.16-3,4.46,4.46,0,0,0-2.39-3.57,5.6,5.6,0,0,0-6.1.44,3.37,3.37,0,0,0-3.63-.65,4.85,4.85,0,0,0-4.58-3c-2.48-.11-4.62,2.24-4.08,4.41-1.57.26-2.93,1.58-2.22,3.47a2.82,2.82,0,0,0,3.19,1.78s0,.11,0,.18a6,6,0,0,0,7.28,3.45,6.26,6.26,0,0,0,1.15-.61,1.61,1.61,0,0,0,1.51-1.3,5.92,5.92,0,0,0,.57,1c-2,.14-3.85,1.75-3,4.08a3.33,3.33,0,0,0,4.49,1.85,4,4,0,0,0,4.15,2.54s0,.06,0,.11a1.24,1.24,0,0,0,1.67.67,7.49,7.49,0,0,0,2.41,1.17,1.59,1.59,0,0,0,.18.3,2.09,2.09,0,0,0-1.76,2.83c1,2.55,4.81,1.55,4.58-.79a4.11,4.11,0,0,0,2-.09,3.59,3.59,0,0,0,2.35-4.7,4.2,4.2,0,0,0-.34-.67c.14-.3.26-.61.37-.92l.54,0a2.94,2.94,0,0,0-.14,2.6,3.42,3.42,0,0,0,3.41,2.21,2,2,0,0,0-.76,2.18c-2.38-1.23-6.09.65-4.9,3.77,1.5,3.95,7.87,2,6.46-2a2.91,2.91,0,0,0,2.44-.29,1.53,1.53,0,0,0-.07,1.35C272.58,144.48,276.29,143.35,275.41,141Z"/><path class="cls-9" d="M227.9,128.42c-.94-2.47-4.94-1.23-4,1.25S228.84,130.89,227.9,128.42Z"/><path class="cls-6" d="M154.66,150.09a3.5,3.5,0,0,0,4-1.56,10.49,10.49,0,0,0,1.94,2.25,10.25,10.25,0,0,0,2.09,1.32,7.69,7.69,0,0,0,1.93,3.63,7.86,7.86,0,0,0,8.78,1.61,7.18,7.18,0,0,0,4,2.25c1.23,3.91,4.21,7.3,8.84,7a5.66,5.66,0,0,0,3.52-1.49c3.69.64,7.3-.68,8.76-4,3.45.38,6.95-.63,8.8-3.48a6.47,6.47,0,0,0,2.91-.72,5.89,5.89,0,0,0,3.51-4.94,9.58,9.58,0,0,0-.21-1.9,7.9,7.9,0,0,0,5.7-1.93,7.83,7.83,0,0,0,7-2.92,6.48,6.48,0,0,0,.46-6.94,6.54,6.54,0,0,0,1.72-8.21,6.91,6.91,0,0,0-3.37-3.09c.11-2.71-.54-5.39-3.13-7.06a5.67,5.67,0,0,0-3.89-.93c0-.39-.07-.78-.12-1.16a9.17,9.17,0,0,0-5.16-7,8.12,8.12,0,0,0-7.37.36,6.83,6.83,0,0,0-4.85-4.73,9.21,9.21,0,0,0-7.38,1.28,6,6,0,0,0-2.87-2.12c-2.58-1-6.59-.92-8.24,1.65a1.32,1.32,0,0,0-.22.83,14.52,14.52,0,0,0-3.07,1.24c-2.48-3.41-7.38-5.46-11.33-3.29a7.22,7.22,0,0,0-3.14,3.38,6,6,0,0,0-.56,1.82,4.71,4.71,0,0,0-.15,1.21c-3.22.45-6.22,1.78-7.54,5.11a6.33,6.33,0,0,0-.4,2.92,5.87,5.87,0,0,0-1.19.91,8.76,8.76,0,0,0-2.6,8.33,8.22,8.22,0,0,0,.85,8.61c.11.12.25.23.38.35a5.5,5.5,0,0,0-2.06,1.9A6.52,6.52,0,0,0,154.66,150.09Z"/><path class="cls-7" d="M156.51,142.53a1.81,1.81,0,0,0,.52-.22,6.33,6.33,0,0,0-.07,1.62c0,.11,0,.22,0,.33.27,2.89,3.56,4.45,6.12,4.05a4.5,4.5,0,0,0,2.55-1.44,3.32,3.32,0,0,0,.37-.38c.14.17.26.34.4.48a3.27,3.27,0,0,0-.11.56c-.4,2.46,1.41,5.36,4.6,4.72a3.73,3.73,0,0,0,2.14-1.22,4.27,4.27,0,0,0,0,.87,5.1,5.1,0,0,0,5.9,3.93,4.87,4.87,0,0,0,1.71-.71,5.06,5.06,0,0,0,.62.15,2.82,2.82,0,0,0,.76.13,2.34,2.34,0,0,0,.09.46c.58,2.89,3,5.38,6.71,4.64a5.3,5.3,0,0,0,4.34-4,4.39,4.39,0,0,0,1.22-.5c-.63,1.73.55,4.13,2.9,3.66,3.4-.68,2.32-5.91-1-5.23a2.48,2.48,0,0,0-.65.27,4.07,4.07,0,0,0,.43-2.2,6.71,6.71,0,0,0,5.23,1.29,6.56,6.56,0,0,0,5.05-7.59,4.06,4.06,0,0,0-.34-1.14,1.62,1.62,0,0,0,.41.37,3,3,0,0,0,4.1-.82,1.61,1.61,0,0,0,.17-.43,3.24,3.24,0,0,0,2.87.72,3.34,3.34,0,0,0,2.76-3.73,4.53,4.53,0,0,0,3.74,1,4.41,4.41,0,0,0,3.51-4.35c2.81-.85,1.83-5.34-1.17-4.74a2.33,2.33,0,0,0-1.33.8c-.19-.1-.4-.17-.58-.25a.7.7,0,0,0,.17-.14,2.42,2.42,0,0,0,.81-2.38,1.46,1.46,0,0,0,.7-.71c2.3-.71,2.26-3.57.73-4.77,1.52-1.26.56-4.33-1.81-3.85a3,3,0,0,0-.55.22,3.41,3.41,0,0,0-3.11-2.52,10.2,10.2,0,0,0,.49-1.73,9.17,9.17,0,0,0-5.16-7,8,8,0,0,0-7.37.36,6.83,6.83,0,0,0-4.85-4.73,9.21,9.21,0,0,0-7.38,1.28,6,6,0,0,0-2.87-2.12c-2.58-1-6.59-.92-8.24,1.65a1.32,1.32,0,0,0-.22.83,14.52,14.52,0,0,0-3.07,1.24c-2.48-3.41-7.38-5.46-11.33-3.29a7.22,7.22,0,0,0-3.14,3.38.22.22,0,0,0,0,.14c-.08.6-.09,1.25-.11,1.85l-.45-.17a3.39,3.39,0,0,0-.12.93.92.92,0,0,0,0,.28,10.62,10.62,0,0,0-5.34,2.11,7,7,0,0,0-2.2,3,6.33,6.33,0,0,0-.4,2.92,5.87,5.87,0,0,0-1.19.91,7.12,7.12,0,0,0,2.85,3.05c.1,0,.17.11.26.14a2,2,0,0,0-.33.21,4.57,4.57,0,0,0-1.67,5.36,5,5,0,0,0-1.15,4.11,4.61,4.61,0,0,0,2.58,3.33,4,4,0,0,0,1,.35,4.15,4.15,0,0,0,2,.1,4.79,4.79,0,0,0,2.38-1.27.38.38,0,0,1,.18,0,.31.31,0,0,0-.08.15,3.08,3.08,0,0,1-.09.3,4.69,4.69,0,0,0-.09.64,6.79,6.79,0,0,0-1.35,0,4.43,4.43,0,0,0-2.64,1.4,2.45,2.45,0,0,0-.47-.94,2,2,0,0,0-.91-.77,2.47,2.47,0,0,0-1.52-.15C152.19,138.06,153.22,143.19,156.51,142.53Z"/><path class="cls-7" d="M208.22,150.06c3.05-.61,4,4.13.95,4.75S205.16,150.68,208.22,150.06Z"/><path class="cls-8" d="M157.83,140.41a5.16,5.16,0,0,0,6,4,5.36,5.36,0,0,0,.67-.19,1.42,1.42,0,0,0,0,.19,4.44,4.44,0,0,0,1.17,2.46,4.12,4.12,0,0,0,.66.66,5.79,5.79,0,0,0,4.78,1.28,5.6,5.6,0,0,0,4.42-5.09,5.77,5.77,0,0,0,1.69,2.66,4.43,4.43,0,0,0,3.86,2.29,5,5,0,0,0-1.18,4.08,4.12,4.12,0,0,0,1.43,2.52,2.89,2.89,0,0,0,.85.59,4.6,4.6,0,0,0,6.95-4,1.35,1.35,0,0,0,.35-.47h.23a6.23,6.23,0,0,0,1.49-.55,5.46,5.46,0,0,0,3.28.43,5.3,5.3,0,0,0,4.19-4.74,4.23,4.23,0,0,0,3.25.78,4.29,4.29,0,0,0,3.3-5,4.15,4.15,0,0,0-3.63-3.28,8.16,8.16,0,0,0,.52-1.43,6.43,6.43,0,0,0,2-.74,3.39,3.39,0,0,0,4.09,3.17,3.3,3.3,0,0,0,2.73-3.63,2.31,2.31,0,0,0,2.67,1.29,2.47,2.47,0,0,0,1.78-3.42C219.15,132,218.49,126,215,124c2.15-1.33,1.07-5.35-1.9-4.76a7.43,7.43,0,0,0-1.65-8.93,8.22,8.22,0,0,0-6,.84,6.83,6.83,0,0,0-4.85-4.73,9.21,9.21,0,0,0-7.38,1.28,6,6,0,0,0-2.87-2.12c-2.58-1-6.59-.92-8.24,1.65a1.32,1.32,0,0,0-.22.83,14.52,14.52,0,0,0-3.07,1.24c-2.48-3.41-7.38-5.46-11.33-3.29a7.22,7.22,0,0,0-3.14,3.38,11.31,11.31,0,0,0-.93,2.23,6.07,6.07,0,0,0-5.12,2.91,6.49,6.49,0,0,0,.42,7.39,5.35,5.35,0,0,0-1.36,2.49,2.41,2.41,0,0,0-.07.35,5.74,5.74,0,0,0,0,1.94,5.39,5.39,0,0,0,5.68,4.26,2.94,2.94,0,0,0,0,.42,4.52,4.52,0,0,0-3.41,4.25A5,5,0,0,0,158,137.9a2.21,2.21,0,0,0-.12.42A5.07,5.07,0,0,0,157.83,140.41Z"/><path class="cls-8" d="M175,149.48c3.3-.66,4.33,4.46,1,5.13S171.66,150.14,175,149.48Z"/><path class="cls-8" d="M221.82,135c2.64-.53,3.47,3.58.82,4.11S219.17,135.56,221.82,135Z"/><path class="cls-8" d="M219.48,122.06c2.49-.5,3.27,3.36.78,3.86S217,122.56,219.48,122.06Z"/><path class="cls-8" d="M207.67,142.79c2.81-.57,3.69,3.8.88,4.36S204.86,143.35,207.67,142.79Z"/><path class="cls-8" d="M215.45,137.77c3.13-.63,4.12,4.24,1,4.87S212.31,138.4,215.45,137.77Z"/><path class="cls-8" d="M155.49,129.37c3.06-.62,4,4.13,1,4.74S152.44,130,155.49,129.37Z"/><path class="cls-9" d="M180.72,143.17c2.61-.52,3.42,3.53.81,4.05S178.11,143.69,180.72,143.17Z"/><path class="cls-9" d="M160.41,116.78a3.63,3.63,0,0,1,1.18,0,2.93,2.93,0,0,1,1.49-1.31,3.5,3.5,0,0,1,2.85-4,4.61,4.61,0,0,1,.72-.07c-.94-1.8-.44-4.4,2.15-4.92,3.22-.64,4.77,3,3.52,5.14a5.66,5.66,0,0,1,3.58.49c.13,0,.24-.08.38-.11a4.74,4.74,0,0,1,1-.09,1.6,1.6,0,0,1,.35-.15,1.46,1.46,0,0,1,1.26.31,2.69,2.69,0,0,1,2.1-1.74,2.76,2.76,0,0,1,2.2.43,2.74,2.74,0,0,1,1.39-.7,2.66,2.66,0,0,1,2.15-2.87,2.71,2.71,0,0,1,3.07,3.5,3.22,3.22,0,0,1,1.31,1.94,7.2,7.2,0,0,1,1.39-.07,3.14,3.14,0,0,1,2.64-3.19,3.11,3.11,0,0,1,2.32.39.93.93,0,0,1,.7-1.23,1,1,0,0,1,.38,1.9,1,1,0,0,1-.3,0,4.31,4.31,0,0,1,.32.4,2.62,2.62,0,0,1,4.69.88,3.94,3.94,0,0,1,1.14,2.33,6,6,0,0,1,4.59,3,2.08,2.08,0,0,1,1.42-3c2.73-.55,3.58,3.69.85,4.24a1.93,1.93,0,0,1-2.08-.84,5.32,5.32,0,0,1,.38,1.25,6.54,6.54,0,0,1-.12,2.5,2.42,2.42,0,0,1,.75-.31c3.33-.67,4.38,4.51,1,5.18a2.43,2.43,0,0,1-1,0,4,4,0,0,1-.16,1.15c2.47-.27,3.2,3.6.62,4.11a2,2,0,0,1-2.41-2.08,4.53,4.53,0,0,1-.9.3,3.79,3.79,0,0,1-1.54,0,6.22,6.22,0,0,1-.63,1.2c3.06.37,3.76,5.37.21,6.08a3.06,3.06,0,0,1-3.55-3.7c-.13,0-.23.1-.35.12a5.59,5.59,0,0,1-2.66-.19,5.53,5.53,0,0,1,1.33,2.77,6.43,6.43,0,0,1-5,7.44,5.88,5.88,0,0,1-1.39.09,1.9,1.9,0,0,1-.57.28,4.18,4.18,0,0,1-8.24,1.4,4.46,4.46,0,0,1,1-3.54,5.11,5.11,0,0,1-1,.32,5.39,5.39,0,0,1-6.27-4.17,6.28,6.28,0,0,1,0-.75,2.9,2.9,0,0,1-2.83-1.9A7.08,7.08,0,0,1,173,140.4c2.12,1.77,2,6-1.51,6.71s-5.25-3.18-4-5.63a6.72,6.72,0,0,1-5.19-5.27,7.07,7.07,0,0,1,3.74-7.47,5.47,5.47,0,0,1-4.95-4.35c0-.17,0-.34,0-.51C157.16,123.93,156.14,117.64,160.41,116.78Z"/><path class="cls-9" d="M213.63,129a1.19,1.19,0,0,1,.47,2.34A1.19,1.19,0,0,1,213.63,129Z"/><path class="cls-9" d="M219.17,122.59a1.52,1.52,0,0,1,.59,3A1.52,1.52,0,0,1,219.17,122.59Z"/><path class="cls-9" d="M158.52,138a1.87,1.87,0,0,1,.73,3.67A1.87,1.87,0,0,1,158.52,138Z"/><path class="cls-9" d="M157.28,123.89c3.26-.65,4.28,4.41,1,5.07S154,124.55,157.28,123.89Z"/><path class="cls-6" d="M270.35,171.09a5.49,5.49,0,0,1-5.35,3.85,5.4,5.4,0,0,1-3-1.09,4.46,4.46,0,0,1-.18,1.52,5.11,5.11,0,0,1-6.3,3.34,4.79,4.79,0,0,1-2-1.23,6.21,6.21,0,0,1-6.05,4.28,9,9,0,0,1-7.32,6.1c-.9,2.73-5.28,4.08-7,.78-.07-.13-.12-.21-.18-.34a3.66,3.66,0,0,1-.35-2.5,10.63,10.63,0,0,1-1.77-2.18,1.18,1.18,0,0,1-.25.1c-5.05,1.58-11.2-1.94-15.46-6.05-.07,0-.16.05-.27.06a9.09,9.09,0,0,1-9-3.43,7.46,7.46,0,0,1-4.84.28,7.55,7.55,0,0,1-4.94-9.26,5.56,5.56,0,0,1,.57-1.4,5.09,5.09,0,0,1-1.35-5.09,4.8,4.8,0,0,1,1.32-2.1c-3.4-1.39-2.48-6.19.5-7a3.91,3.91,0,0,1,.53-2.31.8.8,0,0,0,.14-.24c1.19-2,4.15-2.25,5.9-.93a8.86,8.86,0,0,1,4.68-3.19,9.36,9.36,0,0,1,1.16-.29,2.28,2.28,0,0,1-.39-.37c-3-3.28-.08-10.07,5.29-8.44a5.14,5.14,0,0,1,2,1.14c0-.13,0-.28.06-.41,1.08-3.57,4.93-4.47,8-3,.16.08.32.13.44.2s.3.2.45.28a5.64,5.64,0,0,1,9.33,1.19,11.74,11.74,0,0,1,5.64-1.15,9.21,9.21,0,0,1,5.56,2.16,6.21,6.21,0,0,1,1.47.23,4.72,4.72,0,0,1,3.16,6.18,6,6,0,0,1,3.37,0,5.89,5.89,0,0,1,4.09,4.64,6,6,0,0,1,2-.36,6.72,6.72,0,0,1,2.52.27,6.54,6.54,0,0,1,2,.95,7.73,7.73,0,0,1,3.42,7.08c.25.12.5.23.75.37,3.15,1.64,4.54,5.75,4,9a10.13,10.13,0,0,1-2.45,4.9,5.85,5.85,0,0,1,.19,3.13A.57.57,0,0,0,270.35,171.09Z"/><path class="cls-7" d="M266.15,162.23a5.56,5.56,0,0,1-.72,3.9c-.06.09-.08.15-.15.24a5.69,5.69,0,0,1-6.88,2.2c-.51,2.38-2.65,4.45-5.62,3.54a4.21,4.21,0,0,1-2.55-2,3.69,3.69,0,0,1-4.6,2.32c.86,2.94-1.53,6.82-5.33,5.67a4,4,0,0,1-2.91-3.14,6.14,6.14,0,0,1-5.5,1.16,5.76,5.76,0,0,1-2.66-1.71,8.28,8.28,0,0,1-9.11,3.38,8.17,8.17,0,0,1-5.35-10,3.27,3.27,0,0,1,.22-.51,4.87,4.87,0,0,1-2.1-2.14,4.29,4.29,0,0,1-4.22.83,4.24,4.24,0,0,1-3.1-3.2,2.85,2.85,0,0,1-3.54,1.65c-3.83-1.17-2-7,1.79-5.9a2.8,2.8,0,0,1,1.88,1.69,5.1,5.1,0,0,1,.77-1.59,3.19,3.19,0,0,1-1.7-1.45,5.06,5.06,0,0,1-2.66-.09c-6.28-1.91-3.28-11.66,3-9.76.13,0,.22.11.35.15a4.05,4.05,0,0,1,2.27-.17,3.94,3.94,0,0,1,2.07-3.3,5.48,5.48,0,0,1,0-1.28,2.29,2.29,0,0,1-.67-.28c-3-3.28-.08-10.07,5.29-8.44a5.14,5.14,0,0,1,2,1.14c0-.13,0-.28.06-.41,1.08-3.57,4.93-4.47,8-3,.16.08.32.13.44.2s.3.2.45.28a5.64,5.64,0,0,1,9.33,1.19,11.74,11.74,0,0,1,5.64-1.15,9.21,9.21,0,0,1,5.56,2.16,6.21,6.21,0,0,1,1.47.23,4.72,4.72,0,0,1,3.16,6.18,6,6,0,0,1,3.37,0,5.89,5.89,0,0,1,4.09,4.64,7.46,7.46,0,0,1,4.53-.09,6.54,6.54,0,0,1,2,.95,6.61,6.61,0,0,1-.56,4.88c.14,0,.28,0,.41.08,2.65.81,2.54,3.88,1,5.3a2.65,2.65,0,0,1,1.23.09C269.52,157.61,268.71,161.8,266.15,162.23Z"/><path class="cls-7" d="M235.76,176.63c-3.94-1.2-5.82,4.94-1.86,6.14S239.72,177.83,235.76,176.63Z"/><path class="cls-7" d="M242.72,181.82a.72.72,0,0,0-.42,1.38A.72.72,0,0,0,242.72,181.82Z"/><path class="cls-8" d="M225.74,170.63c-3-.9-4.37,3.7-1.4,4.6S228.7,171.53,225.74,170.63Z"/><path class="cls-8" d="M260.37,162.41a.55.55,0,0,1-.23.07,4.23,4.23,0,0,1-3.09-.19c-.3,2.38-2.32,4.59-5.24,3.7a3.8,3.8,0,0,1-2.84-3.47,3.62,3.62,0,0,1-3.75,1.29,4,4,0,0,1-.63,1.71c.81,3-1.65,6.86-5.51,5.68a4.11,4.11,0,0,1-2.57-2,4.43,4.43,0,1,1-8.49-2.54c-.06,0-.12-.07-.21-.1a3.78,3.78,0,0,1-3.09,1.45,2.7,2.7,0,0,1-2.41,2.53,1.24,1.24,0,0,1-1.6,1,1.22,1.22,0,0,1-.63-1.91,2.81,2.81,0,0,1-.23-3.25,3.24,3.24,0,0,1-.85-.15,4.54,4.54,0,0,1-3.35-3.55,4.28,4.28,0,0,1-1-.12,3.22,3.22,0,0,1-1.5-5.17,6,6,0,0,1-.7-.75,2.56,2.56,0,0,1-3.32,2.21c-3.3-1-1.74-6.15,1.56-5.14a2.17,2.17,0,0,1,.77.41,5.37,5.37,0,0,1,1.3-3.79,2.49,2.49,0,0,1-.53-.05,2.11,2.11,0,0,1-1.32-2.94,3.07,3.07,0,0,1-.85-1.9s-.09-.07-.12-.08a5.71,5.71,0,0,1-1.61-2.24,9.36,9.36,0,0,1,1.16-.29,2.28,2.28,0,0,1-.39-.37c-3-3.28-.08-10.07,5.29-8.44a5.14,5.14,0,0,1,2,1.14c0-.13,0-.28.06-.41,1.08-3.57,4.93-4.47,8-3,.16.08.32.13.44.2s.3.2.45.28a5.64,5.64,0,0,1,9.33,1.19,11.74,11.74,0,0,1,5.64-1.15,9.21,9.21,0,0,1,5.56,2.16,6.21,6.21,0,0,1,1.47.23,4.72,4.72,0,0,1,3.16,6.18,6,6,0,0,1,3.37,0,5.89,5.89,0,0,1,4.09,4.64,6,6,0,0,1,2-.36c2.47,1.75,2.15,5.37.17,7.2a7.64,7.64,0,0,1,2.62,1.48l.17.16C266.08,156.67,263.65,161.4,260.37,162.41Z"/><path class="cls-8" d="M261.45,163.08c-3.7-1.13-5.45,4.62-1.74,5.75S265.16,164.2,261.45,163.08Z"/><path class="cls-8" d="M248.74,167.46c-2.36-.72-3.49,3-1.11,3.68S251.12,168.18,248.74,167.46Z"/><path class="cls-9" d="M255.62,151.07c-.12,0-.24,0-.36-.08A3.7,3.7,0,0,0,254,148.7a2.32,2.32,0,0,0-.74-4,2.09,2.09,0,0,0-2.35.71c-.06-.16-.16-.31-.22-.47,2-.73,2.51-4.06-.06-4.84a2.32,2.32,0,0,0-2.58.76A5.38,5.38,0,0,0,245.3,139a5.16,5.16,0,0,0-5.75,1.69,6.51,6.51,0,0,0-1.44-.65,6.11,6.11,0,0,0-2-.25,3.9,3.9,0,0,0-2.52-5.3c-2.75-.84-4.65,1.08-5.08,3.27a3.33,3.33,0,0,0-2.06-1.62,3.24,3.24,0,0,0-3.53,1,3.34,3.34,0,0,0-1.64-1.1c-3.4-1-5.44,2.71-4.27,5.18-1.83,1-2.18,4.3.43,5.1a2.9,2.9,0,0,0,.41.06,5.79,5.79,0,0,0,.34,1.45,2.91,2.91,0,0,0,1.43,4.57,2.7,2.7,0,0,0,1.81-.07A5.69,5.69,0,0,0,222.8,154a4.61,4.61,0,0,0-.94,1,2.17,2.17,0,0,0-1.62-2.23c-3-.9-4.37,3.7-1.4,4.6a2.15,2.15,0,0,0,2.27-.58,4.82,4.82,0,0,0,.42,3,1.54,1.54,0,0,0,.56,1c-2.56,1.17-3.17,5.6.31,6.66,3.31,1,5.3-2.62,4.2-5a5,5,0,0,0,2.36-1.07,5.82,5.82,0,0,0,4.09,5.38c.19,0,.39.07.58.11a3.19,3.19,0,0,0,2.3,3.7c3.67,1.11,5.65-3.58,3.47-5.79a4.89,4.89,0,0,0,1-1.95,6.27,6.27,0,0,0,.17-2.19,3.34,3.34,0,0,0,1.48-.67,3.49,3.49,0,0,0,2.39,4.43c4.25,1.29,6.35-4.67,3-6.68a4.1,4.1,0,0,0,2.13-2.43l.47.25a4,4,0,0,0,3,3.89C258.49,161.15,261.06,152.72,255.62,151.07Z"/><path class="cls-9" d="M241.46,133.7c-3.5-1.07-5.16,4.38-1.65,5.45S245,134.77,241.46,133.7Z"/><path class="cls-9" d="M214.85,160.42a.84.84,0,0,0-.49,1.61A.84.84,0,0,0,214.85,160.42Z"/><path class="cls-9" d="M214.41,145.49a.48.48,0,0,0-.28.92A.48.48,0,0,0,214.41,145.49Z"/><path class="cls-9" d="M212.92,139.46c-3.25-1-4.8,4.07-1.53,5.06S216.19,140.45,212.92,139.46Z"/><path class="cls-9" d="M212.2,150.42c-2.37-.72-3.49,3-1.12,3.69S214.57,151.15,212.2,150.42Z"/><path class="cls-9" d="M260.05,146.64c-3-.91-4.44,3.76-1.42,4.68S263.06,147.56,260.05,146.64Z"/><path class="cls-6" d="M125.79,154.9a5.14,5.14,0,0,1,2.34,5.69,4.92,4.92,0,0,1-1.64,2.48,4.16,4.16,0,0,1,1.35.49,4.78,4.78,0,0,1,1.67,6.45,4.4,4.4,0,0,1-1.55,1.57,5.81,5.81,0,0,1,2.58,6.42,8.39,8.39,0,0,1,4,8c2.29,1.41,2.57,5.68-.79,6.49l-.35.09a3.38,3.38,0,0,1-2.34-.22,10,10,0,0,1-2.37,1.14.78.78,0,0,1,0,.24c.34,4.93-4.18,9.77-8.84,12.74a1.12,1.12,0,0,1,0,.26,8.5,8.5,0,0,1-5.06,7.47,6.83,6.83,0,0,1-10.27,6.95,5.28,5.28,0,0,1-1.15-.81,4.76,4.76,0,0,1-4.91.12,4.52,4.52,0,0,1-1.63-1.65c-2,2.79-6.16.92-6.21-2a3.62,3.62,0,0,1-2-1,.47.47,0,0,0-.19-.18,3.87,3.87,0,0,1,.43-5.56A8.3,8.3,0,0,1,87,205.18a7,7,0,0,1,0-1.12,2,2,0,0,1-.42.27c-3.64,2.06-9.17-2.09-6.53-6.61a4.65,4.65,0,0,1,1.46-1.55c-.11-.07-.25-.08-.36-.14-3-1.76-3-5.45-1-7.92.11-.12.19-.26.28-.36s.25-.22.35-.34a5.27,5.27,0,0,1,3.1-8.22,11,11,0,0,1,.17-5.37,8.57,8.57,0,0,1,3.16-4.59,5.84,5.84,0,0,1,.52-1.28,4.41,4.41,0,0,1,6.3-1.54,5.58,5.58,0,0,1,.71-3.06,5.5,5.5,0,0,1,5.1-2.72,5.77,5.77,0,0,1,.11-1.9,6.25,6.25,0,0,1,.79-2.24,5.8,5.8,0,0,1,1.29-1.57,7.18,7.18,0,0,1,7.17-1.59,6.77,6.77,0,0,1,.49-.6c2.17-2.5,6.2-2.89,9.06-1.7a9.47,9.47,0,0,1,3.92,3.28,5.48,5.48,0,0,1,2.89.51A.5.5,0,0,0,125.79,154.9Z"/><path class="cls-7" d="M116.84,156.81a5.15,5.15,0,0,1,3.38,1.5c.06.07.12.1.19.18a5.32,5.32,0,0,1,.51,6.73c2,1,3.47,3.36,2,5.87a4,4,0,0,1-2.36,1.88,3.43,3.43,0,0,1,1.12,4.68c2.86-.15,5.87,2.87,4,6.07a3.71,3.71,0,0,1-3.47,2,5.72,5.72,0,0,1-.14,5.25,5.35,5.35,0,0,1-2.12,2,7.74,7.74,0,0,1,1.11,9,7.65,7.65,0,0,1-10.27,2.7,2.45,2.45,0,0,1-.41-.31,4.55,4.55,0,0,1-2.39,1.45,4,4,0,0,1-.16,4,4,4,0,0,1-3.58,2.13,2.64,2.64,0,0,1,.73,3.57c-1.88,3.22-6.83.3-5-2.9a2.6,2.6,0,0,1,1.93-1.35,4.76,4.76,0,0,1-1.28-1A3,3,0,0,1,99,211.48a4.74,4.74,0,0,1-.65,2.39c-3.09,5.29-11.3.47-8.22-4.8.06-.11.14-.17.2-.29a3.8,3.8,0,0,1,.34-2.09,3.72,3.72,0,0,1-2.56-2.6,4.64,4.64,0,0,1-1.15-.3,2.15,2.15,0,0,1-.39.54c-3.64,2.06-9.17-2.09-6.53-6.61a4.65,4.65,0,0,1,1.46-1.55c-.11-.07-.25-.08-.36-.14-3-1.76-3-5.45-1-7.92.11-.12.19-.26.28-.36s.25-.22.35-.34a5.27,5.27,0,0,1,3.1-8.22,11,11,0,0,1,.17-5.37,8.57,8.57,0,0,1,3.16-4.59,5.84,5.84,0,0,1,.52-1.28,4.41,4.41,0,0,1,6.3-1.54,5.58,5.58,0,0,1,.71-3.06,5.5,5.5,0,0,1,5.1-2.72,7,7,0,0,1,.9-4.14,5.8,5.8,0,0,1,1.29-1.57,6.1,6.1,0,0,1,4.3,1.55c.07-.11.11-.24.17-.35,1.3-2.23,4.07-1.47,5,.27a2.45,2.45,0,0,1,.34-1.1C113.36,152.75,117,154.39,116.84,156.81Z"/><path class="cls-7" d="M123.36,187.52c-1.94,3.32,3.23,6.35,5.17,3S125.31,184.18,123.36,187.52Z"/><path class="cls-7" d="M129.57,182.31a.68.68,0,0,0,1.17.68A.68.68,0,0,0,129.57,182.31Z"/><path class="cls-8" d="M115.75,195.33c-1.46,2.5,2.42,4.76,3.88,2.26S117.21,192.83,115.75,195.33Z"/><path class="cls-8" d="M115.75,162.1a.9.9,0,0,1,0,.23,4,4,0,0,1-.84,2.76c2.1.78,3.66,3.1,2.23,5.55a3.55,3.55,0,0,1-3.77,1.84,3.38,3.38,0,0,1,.37,3.68,3.88,3.88,0,0,1,1.41.94c2.9-.09,5.88,3,4,6.24a3.88,3.88,0,0,1-2.4,1.89,4.14,4.14,0,1,1-4.14,7.16c0,.06-.09.09-.14.18a3.51,3.51,0,0,1,.66,3.12,2.52,2.52,0,0,1,1.77,2.73,1.16,1.16,0,0,1,.58,1.67,1.14,1.14,0,0,1-1.87.16,2.65,2.65,0,0,1-3-.49,3,3,0,0,1-.32.74,4.27,4.27,0,0,1-4,2.28,3.68,3.68,0,0,1-.31.85,3,3,0,0,1-5,.25,5,5,0,0,1-.83.47,2.38,2.38,0,0,1,1.29,3.49c-1.62,2.79-6,.26-4.33-2.52a2,2,0,0,1,.54-.61,5.08,5.08,0,0,1-3.16-2,1.87,1.87,0,0,1-.16.47,2,2,0,0,1-3,.56,2.89,2.89,0,0,1-1.92.37s-.07.06-.09.09a5.37,5.37,0,0,1-2.38,1,7,7,0,0,1,0-1.12,2,2,0,0,1-.42.27c-3.64,2.06-9.17-2.09-6.53-6.61a4.65,4.65,0,0,1,1.46-1.55c-.11-.07-.25-.08-.36-.14-3-1.76-3-5.45-1-7.92.11-.12.19-.26.28-.36s.25-.22.35-.34a5.27,5.27,0,0,1,3.1-8.22,11,11,0,0,1,.17-5.37,8.57,8.57,0,0,1,3.16-4.59,5.84,5.84,0,0,1,.52-1.28,4.41,4.41,0,0,1,6.3-1.54,5.58,5.58,0,0,1,.71-3.06,5.5,5.5,0,0,1,5.1-2.72,5.77,5.77,0,0,1,.11-1.9c2.12-1.87,5.35-.8,6.58,1.4a7,7,0,0,1,1.91-2.07l.17-.12C111.77,155.67,115.54,158.91,115.75,162.1Z"/><path class="cls-8" d="M116.59,161.26c-1.82,3.12,3,6,4.85,2.83S118.41,158.13,116.59,161.26Z"/><path class="cls-8" d="M117.83,173.75a1.8,1.8,0,0,0,3.1,1.81A1.8,1.8,0,0,0,117.83,173.75Z"/><path class="cls-9" d="M104.42,164a2.92,2.92,0,0,0-.14.31,3.45,3.45,0,0,0-2.35.62,2.16,2.16,0,0,0-3.78-.18,2,2,0,0,0,.13,2.29c-.16,0-.31.07-.47.09-.23-1.95-3.15-3.15-4.42-1a2.19,2.19,0,0,0,.14,2.51,5,5,0,0,0-2.29,2.12,4.82,4.82,0,0,0,.29,5.59,6.18,6.18,0,0,0-.9,1.16,5.93,5.93,0,0,0-.65,1.73,3.7,3.7,0,1,0-3.48,6.46,3.15,3.15,0,0,0-1.92,1.52,3,3,0,0,0,.1,3.41,3.23,3.23,0,0,0-1.35,1.26c-1.67,2.86,1.29,5.52,3.79,5,.55,1.88,3.44,2.9,4.72.7a2.75,2.75,0,0,0,.15-.36,5,5,0,0,0,1.39,0,2.71,2.71,0,0,0,4.46-.31,2.5,2.5,0,0,0,.32-1.66,5.14,5.14,0,0,0,1.88-.82,4.7,4.7,0,0,0,.74,1.08,2,2,0,0,0-2.38,1c-1.45,2.5,2.42,4.76,3.88,2.26a2,2,0,0,0,0-2.19,4.56,4.56,0,0,0,2.84.28,1.47,1.47,0,0,0,1-.3c.51,2.59,4.4,4.09,6.11,1.16s-1.23-5.38-3.67-4.9a4.71,4.71,0,0,0-.46-2.37,5.45,5.45,0,0,0,5.76-2.57,4.52,4.52,0,0,0,.23-.5,3,3,0,0,0,3.85-1.28c1.81-3.1-2-5.91-4.5-4.41a4.79,4.79,0,0,0-1.56-1.33,5.77,5.77,0,0,0-2-.62,3.11,3.11,0,0,0-.29-1.49,3.25,3.25,0,0,0,4.54-1.22c2.08-3.58-2.88-6.77-5.42-4.17a3.87,3.87,0,0,0-1.75-2.46l.33-.37a3.75,3.75,0,0,0,4.18-1.9C114.2,163.54,107.1,159.38,104.42,164Z"/><path class="cls-9" d="M85.59,173.09c-1.72,2.95,2.87,5.63,4.59,2.67S87.32,170.13,85.59,173.09Z"/><path class="cls-9" d="M104.13,203a.79.79,0,0,0,1.36.79A.79.79,0,0,0,104.13,203Z"/><path class="cls-9" d="M90.47,200.2a.45.45,0,0,0,.78.45A.45.45,0,0,0,90.47,200.2Z"/><path class="cls-9" d="M84.67,200.25c-1.6,2.75,2.67,5.24,4.27,2.49S86.28,197.5,84.67,200.25Z"/><path class="cls-9" d="M94.48,203.27a1.8,1.8,0,0,0,3.1,1.81A1.8,1.8,0,0,0,94.48,203.27Z"/><path class="cls-9" d="M101.36,159c-1.48,2.54,2.46,4.84,3.94,2.3S102.84,156.45,101.36,159Z"/><path class="cls-6" d="M184.36,167.11a3.83,3.83,0,0,1-.77-.34,2.83,2.83,0,0,1-3.56,1.72,3,3,0,0,1-.89-.47c-2,3.13-6.49,5.54-10,4.58-3.69,4.25-12.13,3.46-16.1,7.42a7.33,7.33,0,0,1,.18,4.13,6.64,6.64,0,0,1-6.9,4.68,9.13,9.13,0,0,1-.25,2.49,7.29,7.29,0,0,1-3.61,4.51c.28,4.13-3.13,8.66-8.3,7.1a6.06,6.06,0,0,1-3.89-3.22,6.31,6.31,0,0,1-6.16-8.18l0-.16a6.64,6.64,0,0,1-3.37-.12,7.16,7.16,0,0,1-4.7-8.8,6.5,6.5,0,0,1,2.12-3.26,4.26,4.26,0,0,1,.55-2A3.77,3.77,0,0,1,122.7,175a6.5,6.5,0,0,1,.78.17,2,2,0,0,1,.29.15,3.67,3.67,0,0,1-.14-.87c0-.48,0-.92,0-1.39a20.6,20.6,0,0,1,.53-5.44,22.88,22.88,0,0,1,2.9-7.26c.22-.4.47-.76.72-1.16s.82-1,1.25-1.58a6.25,6.25,0,0,1-1.94-1,6,6,0,0,1-2.54-5,6.15,6.15,0,0,1,3.22-5.22,4.45,4.45,0,0,1,.88-.37,6.56,6.56,0,0,1,5.26.6c.11.06.26.11.38.18s.08.06.14.07a1,1,0,0,1,.23.14,4.25,4.25,0,0,1,1.25,1.25l.53-.44c-.45-2.78,1.75-6.08,5.3-5a3.64,3.64,0,0,1,1.1.54,4.47,4.47,0,0,1,5.42-2.66,3.93,3.93,0,0,1,1.49.78,4,4,0,0,1,4.69-1.71,4.23,4.23,0,0,1,1.86,1.13,7.68,7.68,0,0,1,7.82-2.33,7,7,0,0,1,1,.4.47.47,0,0,1,.2.1,7,7,0,0,1,3.41,3.84,6,6,0,0,1,1.28-.92,8.23,8.23,0,0,1,6.63-1c.37.11.69.24,1,.37a8.45,8.45,0,0,1,4.71,7.78,8.38,8.38,0,0,1-.27,2,7.61,7.61,0,0,1-.41,1,6,6,0,0,1,2.36,4.09,7.5,7.5,0,0,1-.2,3,3.9,3.9,0,0,1,3-.24C192.05,160.6,189.59,168.69,184.36,167.11Z"/><path class="cls-7" d="M184,156.28a5.36,5.36,0,0,1-5.28,3.33,2.79,2.79,0,0,1-3,.85,2.89,2.89,0,0,1-1.95-1.83,2.82,2.82,0,0,1-.56.53c.56,2.54-1.47,5.7-4.71,4.71a3.82,3.82,0,0,1-1.58-.94,7.29,7.29,0,0,1-6.77,1.54,3.66,3.66,0,0,1-.6-.25c.25,4-3.05,8.39-8.06,6.87a6.61,6.61,0,0,1-1.49-.69,4.81,4.81,0,0,1-5.53,2.29,3.76,3.76,0,0,1-.57-.24c-.07.15-.15.29-.23.43a3.64,3.64,0,0,1,.45,1.27,3.89,3.89,0,0,1,1.52.16c4.8,1.46,2.53,8.92-2.26,7.46a3.76,3.76,0,0,1-1.94-1.32,5.7,5.7,0,0,1,.26,3.65,4.8,4.8,0,0,1-1.55,2.46,1.44,1.44,0,0,1-1.78,1.8,1.34,1.34,0,0,1-.71-.52,5.65,5.65,0,0,1-2.77,0,3.73,3.73,0,0,1-2,2.09c1.78,1.28.5,4.69-2,3.93-2-.6-1.83-3-.59-4a3.35,3.35,0,0,1-2.2-3.64c-.09,0-.2,0-.32,0s-.2-.13-.35-.17a3.68,3.68,0,0,1-3.51.56,3.76,3.76,0,0,1-2.59-2.35,2.13,2.13,0,0,1-2.34.66c-2.87-.88-1.55-5.31,1.31-4.51a2.83,2.83,0,0,1-1.46-3.22,3.77,3.77,0,0,1,4.69-2,2,2,0,0,1,.29.15,3.67,3.67,0,0,1-.14-.87,23.69,23.69,0,0,1,4.1-15.25c.4-.54.82-1,1.25-1.58a6.24,6.24,0,0,1-4.48-6,6.15,6.15,0,0,1,3.22-5.22,6.33,6.33,0,0,1,6.14.23c.11.06.26.11.38.18a4,4,0,0,1,1.62,1.46l.53-.44c-.45-2.78,1.75-6.08,5.3-5a3.64,3.64,0,0,1,1.1.54,4.47,4.47,0,0,1,5.42-2.66,3.93,3.93,0,0,1,1.49.78,4,4,0,0,1,4.69-1.71,4.23,4.23,0,0,1,1.86,1.13,7.68,7.68,0,0,1,7.82-2.33,7.08,7.08,0,0,1,4.59,4.34,8.44,8.44,0,0,1,7.91-1.87,8,8,0,0,1,5.48,5.9,4.29,4.29,0,0,1-.83,1.65,4.65,4.65,0,0,1,1.08.6A5.6,5.6,0,0,1,184,156.28Z"/><path class="cls-7" d="M182.84,159.68a1.65,1.65,0,0,0-1,3.15A1.65,1.65,0,0,0,182.84,159.68Z"/><path class="cls-8" d="M133.51,178.32c-2.81-.86-4.14,3.51-1.33,4.37S136.33,179.17,133.51,178.32Z"/><path class="cls-8" d="M183.91,151.84c-2.81-.85-4.15,3.52-1.33,4.37S186.72,152.7,183.91,151.84Z"/><path class="cls-8" d="M175.05,155a5.33,5.33,0,0,1-.09,2.28,5,5,0,0,1-5.09,3.56c.86,2.23-1,5.35-3.92,4.44a3,3,0,0,1-2.2-2.63,6.19,6.19,0,0,1-2.95-.2,1.81,1.81,0,0,1-.38-.18,5.72,5.72,0,0,1-6.55,2.68,3.33,3.33,0,0,1-.57-.24,5,5,0,0,1-4.88,3.89,3.1,3.1,0,0,1-2.72.38,2.93,2.93,0,0,1-2.07-2.07,4.68,4.68,0,0,1-.13.86,5.21,5.21,0,0,1-2.95,3.32,5.13,5.13,0,0,1-.11,2.13,4.65,4.65,0,0,1-.54,1.24,2.93,2.93,0,0,1,.58,0c2.91.88,1.53,5.41-1.37,4.52a2.13,2.13,0,0,1-1.54-2.6,5.36,5.36,0,0,1-3.55.26,5.3,5.3,0,0,1-1.69-.92,4.67,4.67,0,0,1-5.21,2,6.44,6.44,0,0,1-1-.44,2.38,2.38,0,0,1-1.7.12A2.33,2.33,0,0,1,122.7,175a2.71,2.71,0,0,1,.88-1.94.94.94,0,0,1,.32-.27,6.69,6.69,0,0,1,.16-.75,4.48,4.48,0,0,1,2.12-2.59,3.61,3.61,0,0,1-2.07-1.83,23.81,23.81,0,0,1,3.62-8.42c.4-.54.82-1,1.25-1.58a6.24,6.24,0,0,1-4.48-6,6.15,6.15,0,0,1,3.22-5.22,6.33,6.33,0,0,1,6.14.23c.11.06.26.11.38.18a4,4,0,0,1,1.62,1.46l.53-.44c-.45-2.78,1.75-6.08,5.3-5a3.64,3.64,0,0,1,1.1.54,4.47,4.47,0,0,1,5.42-2.66,3.93,3.93,0,0,1,1.49.78,4,4,0,0,1,4.69-1.71,4.23,4.23,0,0,1,1.86,1.13,7.68,7.68,0,0,1,7.82-2.33,7.08,7.08,0,0,1,4.59,4.34,8.44,8.44,0,0,1,7.91-1.87c.37.11.69.24,1,.37a2.56,2.56,0,0,1-1.05,2.49A6,6,0,0,1,180,151,5.73,5.73,0,0,1,175.05,155Z"/><path class="cls-8" d="M156.54,166.68c-4-1.22-5.91,5-1.9,6.23S160.55,167.9,156.54,166.68Z"/><path class="cls-9" d="M129.26,168.87a2.48,2.48,0,0,0-1.9.16,2.7,2.7,0,0,0-2-2.21c-3.74-1.13-5.5,4.67-1.77,5.8a2.78,2.78,0,0,0,2.33-.25,2.45,2.45,0,0,0,1.72,1.73C131,175.12,132.63,169.9,129.26,168.87Z"/><path class="cls-9" d="M135.78,168.39c-3.18-1-4.69,4-1.5,4.94S139,169.35,135.78,168.39Z"/><path class="cls-9" d="M126.82,179.38a1.84,1.84,0,0,0-1.07,3.51C128,183.57,129.08,180.06,126.82,179.38Z"/><path class="cls-9" d="M172,156.63c-3.85-1.17-3.23-6.09-.44-7.45a2.59,2.59,0,0,1-1.63-2.33,4,4,0,0,1-6.88-.42c-.13.2-.21.37-.33.54a9.93,9.93,0,0,1,.65,1,3.58,3.58,0,0,1,.89.17,4.6,4.6,0,0,1,3,5.69A4.38,4.38,0,0,1,166,155.8c2.44,1.51.87,5.9-2.28,4.95a2.65,2.65,0,0,1-1.59-3.76,2,2,0,0,1-.42-.06,7.92,7.92,0,0,1-2.74,1.44,1.38,1.38,0,0,1-1.77,1.1c-.06,0-.08-.06-.11-.07a4.48,4.48,0,0,1-5.24,2.08,3.68,3.68,0,0,1-4.79,2.91c-2.87-.87-3.2-3.84-2-5.82a6.82,6.82,0,0,1-1.4-.23,2,2,0,0,1,.27,2.39,7,7,0,0,1-.17,1.55c-.87,3.44-4.9,5.39-8.2,4.38a1.09,1.09,0,0,1-.21-.09,3.13,3.13,0,0,1-3.86,1.73c-3.3-1-2.76-5.21-.34-6.35,0-.21,0-.44-.07-.65a3.29,3.29,0,0,1-4.08-1,3.34,3.34,0,0,1,0-3.73,2.6,2.6,0,0,1,1.12-1.13c-3.34-1-2.83-5.1-.52-6.33a4.06,4.06,0,0,1,1-3.15,6.56,6.56,0,0,1,5.26.6c.11.06.26.11.38.18s.08.06.14.07a2.09,2.09,0,0,1,.21.64,2.05,2.05,0,0,1,0-.5,4.25,4.25,0,0,1,1.25,1.25l.53-.44c-.45-2.78,1.75-6.08,5.3-5a3.64,3.64,0,0,1,1.1.54,4.47,4.47,0,0,1,5.42-2.66,3.93,3.93,0,0,1,1.49.78,4,4,0,0,1,4.69-1.71,4.23,4.23,0,0,1,1.86,1.13,7.68,7.68,0,0,1,7.82-2.33,7,7,0,0,1,1,.4l0,.21a.29.29,0,0,1,.16-.11,7,7,0,0,1,3.41,3.84,6,6,0,0,1,1.28-.92,3.9,3.9,0,0,1,.71,2.62,2.66,2.66,0,0,1,3-.92,2.71,2.71,0,0,1,1.79,1.58,2.19,2.19,0,0,1,2.83-2c2.84.86,1.48,5.22-1.33,4.36a2,2,0,0,1-1.28-1.05,3.29,3.29,0,0,1-1.34,2.53C179.13,150.6,176.82,158.1,172,156.63Z"/><path class="cls-9" d="M134.39,179.14c-3-.93-4.49,3.8-1.44,4.72S137.43,180.06,134.39,179.14Z"/><path class="cls-6" d="M234.64,212.79a7,7,0,0,0-2.35-2.63,3.53,3.53,0,0,0,.52-.39,10.34,10.34,0,0,0,2.12-10.68,11,11,0,0,0-2.23-10.74,7.39,7.39,0,0,0-1.39-1.29,8,8,0,0,0-.14-3.7c-1.26-4.33-4.84-6.36-8.82-7.32a6.09,6.09,0,0,0,0-1.53,7.94,7.94,0,0,0-.48-2.35,9.1,9.1,0,0,0-3.52-4.62c-4.68-3.19-11.06-1.23-14.59,2.74a18.43,18.43,0,0,0-3.68-1.92,1.66,1.66,0,0,0-.19-1.07c-1.74-3.43-6.75-4-10.1-3.07a7.46,7.46,0,0,0-3.85,2.3,11.61,11.61,0,0,0-9.09-2.5,8.57,8.57,0,0,0-6.65,5.32A10.2,10.2,0,0,0,161,168a11.47,11.47,0,0,0-7.32,8.13c-.11.47-.22,1-.29,1.43a7.24,7.24,0,0,0-5,.69c-3.44,1.78-4.58,5.06-4.78,8.47a8.76,8.76,0,0,0-4.6,3.45,8.23,8.23,0,0,0,1.16,10.49,8.14,8.14,0,0,0-.27,8.75c2,3.17,5.09,4.34,8.4,4.51A10,10,0,0,0,155.2,217a11.49,11.49,0,0,0-.5,2.35,7.42,7.42,0,0,0,3.78,6.62,8.4,8.4,0,0,0,3.57,1.26c2,3.78,6.22,5.47,10.58,5.42,1.42,4.38,5.79,6.47,10.49,6.12a7.22,7.22,0,0,0,4.22,2.3c5.76,1,9.91-2.93,11.93-7.67a9.06,9.06,0,0,0,5.3-2.33,9.89,9.89,0,0,0,11.19-.95,9.72,9.72,0,0,0,2.86-4.31,12.94,12.94,0,0,0,2.78-1.4,13.27,13.27,0,0,0,2.7-2.58,4.42,4.42,0,0,0,4.83,2.45C234.05,223.44,236.94,217.37,234.64,212.79Z"/><path class="cls-7" d="M227.54,214.62a2.42,2.42,0,0,1-.63-.34,8,8,0,0,1-.11,2c0,.13,0,.28-.08.41-.7,3.59-5,5.14-8.16,4.33a5.62,5.62,0,0,1-3-2.11,3.42,3.42,0,0,1-.41-.53c-.21.19-.38.39-.57.55a3.29,3.29,0,0,1,.07.71c.21,3.14-2.42,6.54-6.33,5.35a4.61,4.61,0,0,1-2.53-1.78,6,6,0,0,1-.15,1.08,6.4,6.4,0,0,1-7.86,4.2,6.16,6.16,0,0,1-2.06-1.1,7.74,7.74,0,0,1-.8.12,3.82,3.82,0,0,1-1,.07,3.31,3.31,0,0,1-.17.56c-1.08,3.55-4.4,6.38-9,5a6.69,6.69,0,0,1-5-5.52,6.14,6.14,0,0,1-1.47-.77c.59,2.24-1.19,5.1-4.07,4.22-4.17-1.26-2.19-7.68,1.95-6.42a3.6,3.6,0,0,1,.78.41,5.14,5.14,0,0,1-.27-2.8,8.38,8.38,0,0,1-6.7,1,8.25,8.25,0,0,1-5.4-10.11,5.28,5.28,0,0,1,.57-1.38,2.31,2.31,0,0,1-.56.41,3.8,3.8,0,0,1-5-1.53,2.58,2.58,0,0,1-.16-.56,4.1,4.1,0,0,1-3.67.55,4.19,4.19,0,0,1-3-5,5.72,5.72,0,0,1-4.81.81,5.55,5.55,0,0,1-3.86-5.87c-3.41-1.4-1.63-6.91,2.05-5.79a2.87,2.87,0,0,1,1.56,1.16c.25-.1.52-.16.76-.24a.92.92,0,0,1-.19-.2,3.07,3.07,0,0,1-.73-3.08,1.85,1.85,0,0,1-.79-1c-2.79-1.17-2.39-4.74-.33-6.07-1.74-1.76-.18-5.48,2.74-4.6a5.11,5.11,0,0,1,.66.35,4.3,4.3,0,0,1,4.21-2.78,11.69,11.69,0,0,1-.41-2.22A11.47,11.47,0,0,1,161,168a9.25,9.25,0,0,1,1.76-.44,10.42,10.42,0,0,1,7.42,1.78,8.57,8.57,0,0,1,6.65-5.32,11.61,11.61,0,0,1,9.09,2.5,7.46,7.46,0,0,1,3.85-2.3c3.35-.9,8.36-.36,10.1,3.07a1.66,1.66,0,0,1,.19,1.07,18.43,18.43,0,0,1,3.68,1.92c3.53-4,9.91-5.93,14.59-2.74a9.1,9.1,0,0,1,3.52,4.62.32.32,0,0,1,0,.17c0,.77,0,1.58-.09,2.33l.59-.15a4.22,4.22,0,0,1,0,1.17,1.09,1.09,0,0,1,0,.36,13.21,13.21,0,0,1,6.42,3.3,8.74,8.74,0,0,1,2.4,4,8,8,0,0,1,.14,3.7,7.39,7.39,0,0,1,1.39,1.29,9,9,0,0,1-4,3.47c-.11,0-.21.11-.33.15a2.55,2.55,0,0,1,.38.29,5.74,5.74,0,0,1,1.44,6.92,6.34,6.34,0,0,1,.93,5.28,5.75,5.75,0,0,1-3.63,3.86,5.38,5.38,0,0,1-1.33.32,5.29,5.29,0,0,1-2.56-.13,6.11,6.11,0,0,1-2.84-1.88.56.56,0,0,0-.22,0,.75.75,0,0,1,.09.2c0,.11,0,.23.06.39a7.34,7.34,0,0,1,.05.81,7.7,7.7,0,0,1,1.68.18,5.5,5.5,0,0,1,3.13,2.08,3.27,3.27,0,0,1,.7-1.13,2.57,2.57,0,0,1,1.24-.85,3.14,3.14,0,0,1,1.92,0C233.49,209.55,231.58,215.84,227.54,214.62Z"/><path class="cls-7" d="M161.88,217.73c-3.75-1.13-5.53,4.69-1.77,5.83S165.63,218.88,161.88,217.73Z"/><path class="cls-8" d="M226.15,211.8a6.48,6.48,0,0,1-8,4.27,5.94,5.94,0,0,1-.81-.32c0,.07,0,.15,0,.25a5.77,5.77,0,0,1-1.77,2.94,5.49,5.49,0,0,1-.91.73,7.27,7.27,0,0,1-6.14,1,7,7,0,0,1-4.92-6.92,7.32,7.32,0,0,1-2.43,3.13A5.55,5.55,0,0,1,196,219.3a6.27,6.27,0,0,1,1,5.26,5.14,5.14,0,0,1-2.1,3,3.81,3.81,0,0,1-1.13.63,5.78,5.78,0,0,1-8.21-5.86,1.76,1.76,0,0,1-.39-.62c-.1,0-.18,0-.28-.05a6.78,6.78,0,0,1-1.79-.87,6.76,6.76,0,0,1-4.17.14,6.68,6.68,0,0,1-4.67-6.45,5.33,5.33,0,0,1-4.16.59,5.4,5.4,0,0,1-3.53-6.62,5.25,5.25,0,0,1,5-3.67,8.84,8.84,0,0,1-.49-1.85,8.21,8.21,0,0,1-2.4-1.16c-.49,2.31-2.56,4.36-5.51,3.47a4.14,4.14,0,0,1-3-4.89,2.92,2.92,0,0,1-3.51,1.29,3.11,3.11,0,0,1-1.82-4.5c-4.44-3.37-2.89-10.72,1.77-12.85-2.53-1.93-.67-6.83,3-5.72l.1,0a9.22,9.22,0,0,1,3.06-11,10.42,10.42,0,0,1,7.42,1.78,8.57,8.57,0,0,1,6.65-5.32,11.61,11.61,0,0,1,9.09,2.5,7.46,7.46,0,0,1,3.85-2.3c3.35-.9,8.36-.36,10.1,3.07a1.66,1.66,0,0,1,.19,1.07,18.43,18.43,0,0,1,3.68,1.92c3.53-4,9.91-5.93,14.59-2.74a9.1,9.1,0,0,1,3.52,4.62,14.57,14.57,0,0,1,.9,2.91,7.58,7.58,0,0,1,6,4.27,8.13,8.13,0,0,1-1.42,9.19,6.72,6.72,0,0,1,1.39,3.29,1.7,1.7,0,0,1,0,.44,6.93,6.93,0,0,1-.2,2.44,6.75,6.75,0,0,1-7.63,4.63,4.53,4.53,0,0,1-.05.53,5.7,5.7,0,0,1,3.76,5.74,6.28,6.28,0,0,1,1.53,3,2.45,2.45,0,0,1,.09.53A6.5,6.5,0,0,1,226.15,211.8Z"/><path class="cls-8" d="M203.59,221.07c-4.05-1.23-6,5.06-1.91,6.29S207.65,222.3,203.59,221.07Z"/><path class="cls-8" d="M146.69,197.25c-3.25-1-4.79,4.06-1.54,5.05S149.94,198.24,146.69,197.25Z"/><path class="cls-8" d="M151.19,181.3c-3.05-.93-4.49,3.81-1.44,4.73S154.24,182.22,151.19,181.3Z"/><path class="cls-8" d="M163.45,208.69c-3.45-1.05-5.09,4.31-1.63,5.36S166.9,209.74,163.45,208.69Z"/><path class="cls-8" d="M154.32,201.46c-3.85-1.17-5.67,4.81-1.81,6S158.18,202.63,154.32,201.46Z"/><path class="cls-8" d="M230.42,198.26c-3.75-1.14-5.53,4.68-1.77,5.82S234.17,199.4,230.42,198.26Z"/><path class="cls-9" d="M197.15,212.46c-3.2-1-4.72,4-1.51,5S200.35,213.44,197.15,212.46Z"/><path class="cls-9" d="M225.8,181.9a4.89,4.89,0,0,0-1.48-.19,3.66,3.66,0,0,0-1.7-1.81,4.39,4.39,0,0,0-3.08-5.39,5,5,0,0,0-.89-.18c1.4-2.14,1.09-5.46-2.09-6.43-3.95-1.19-6.33,3.12-5,6a7.13,7.13,0,0,0-4.54.18c-.16-.06-.29-.14-.46-.19a6.16,6.16,0,0,0-1.2-.23,2.18,2.18,0,0,0-.43-.23,1.8,1.8,0,0,0-1.61.24,3.41,3.41,0,0,0-2.41-2.45,3.49,3.49,0,0,0-2.82.28,3.4,3.4,0,0,0-1.64-1h-.11a3.18,3.18,0,0,0-2.24-3.85c-2.83-.86-4.61,1.77-4.28,4a4.07,4.07,0,0,0-1.87,2.26,9.14,9.14,0,0,0-1.73-.25,4.13,4.13,0,0,0-5.87-4.11,1.16,1.16,0,0,0-.72-1.62,1.22,1.22,0,0,0-.71,2.33,1.27,1.27,0,0,0,.38,0,4.89,4.89,0,0,0-.45.46,3.31,3.31,0,0,0-6,.53,5,5,0,0,0-1.71,2.78,7.56,7.56,0,0,0-6.1,3.17,2.62,2.62,0,0,0-1.41-4c-3.35-1-4.94,4.18-1.58,5.2a2.44,2.44,0,0,0,2.71-.79,5.74,5.74,0,0,0-.63,1.51,8,8,0,0,0-.16,3.15,3.22,3.22,0,0,0-.9-.49c-4.1-1.24-6,5.12-1.93,6.37a3.21,3.21,0,0,0,1.25.1,5.1,5.1,0,0,0,.07,1.46c-3.06-.65-4.45,4.11-1.28,5.07a2.52,2.52,0,0,0,3.27-2.32,5.54,5.54,0,0,0,1.1.49,4.83,4.83,0,0,0,1.92.19,8.08,8.08,0,0,0,.65,1.58c-3.88.08-5.36,6.26-1,7.58,3,.93,5.06-1.74,4.9-4.19.15,0,.27.14.42.19a7.15,7.15,0,0,0,3.35.09,7,7,0,0,0-2,3.29,8.09,8.09,0,0,0,5.3,9.93,7.73,7.73,0,0,0,1.73.29,2.7,2.7,0,0,0,.68.42,5.26,5.26,0,0,0,10.14,2.75,5.56,5.56,0,0,0-.78-4.55,6.69,6.69,0,0,0,1.19.52c3.35,1,7.46-1,8.35-4.46a6,6,0,0,0,.15-.93,3.66,3.66,0,0,0,3.78-2,8.85,8.85,0,0,0,2.86,7.31c-2.87,2-3.26,7.26,1.07,8.58s7-3.34,5.66-6.56a8.45,8.45,0,0,0,7.14-6,8.89,8.89,0,0,0-3.76-9.82,6.85,6.85,0,0,0,6.72-4.84c.06-.21.07-.42.11-.63C229,191.25,231,183.5,225.8,181.9Z"/><path class="cls-9" d="M157.67,190.75a1.51,1.51,0,0,0-.88,2.88A1.51,1.51,0,0,0,157.67,190.75Z"/><path class="cls-9" d="M151.52,182a1.91,1.91,0,0,0-1.11,3.66A1.91,1.91,0,0,0,151.52,182Z"/><path class="cls-9" d="M225.57,208.74c-2.9-.89-4.27,3.62-1.37,4.5S228.48,209.62,225.57,208.74Z"/><path class="cls-9" d="M228.85,191.19c-4-1.22-5.89,5-1.89,6.21S232.85,192.41,228.85,191.19Z"/><path class="cls-6" d="M252.25,239.43c3.35-3.08,3.48-9.74-2.22-11.47a6.26,6.26,0,0,0-1.16-.23,12.86,12.86,0,0,0-2.84-5c-2.67-2.88-6.83-4.73-10.71-3.83-2.44-2.44-6.35-3.53-9.5-1.78a7,7,0,0,0-2.17,1.91,8,8,0,0,0-5.11,1.21,14,14,0,0,0-6,8.29,10.85,10.85,0,0,0-3.35.51,13.5,13.5,0,0,0-3.43,1.74,9.67,9.67,0,0,0-6.84.35,10,10,0,0,0-4.47,4.79,4.67,4.67,0,0,0-.51-.23,7.45,7.45,0,0,0-6.57,1.32,6.4,6.4,0,0,0-3.57-2.71,6.74,6.74,0,0,0-4.45.26,3.55,3.55,0,0,0-3.31-2.08,5,5,0,0,0-3.19-1.16,3,3,0,0,0-2.64-3.26,5.46,5.46,0,0,0-2.44.6c-.16.05-.33.08-.5.12a3.09,3.09,0,0,0-4.18,1.84,2.86,2.86,0,0,0,.28,2.27,2.88,2.88,0,0,0,1.26,4.69,2.65,2.65,0,0,0,2.29-.29,3.67,3.67,0,0,0,1.29,1.52,2.94,2.94,0,0,0,1.59,1.15,3.44,3.44,0,0,0,1,.14,4,4,0,0,0,2.78,3.17c-3,3.27-2.84,9.48,2.66,11.15a6.47,6.47,0,0,0,3.63.11,4.86,4.86,0,0,0,3.17,6,4.42,4.42,0,0,0,1.81.16,6.34,6.34,0,0,0,2.36,1.32,5.94,5.94,0,0,0,.94.15,4.72,4.72,0,0,0,.81,3.39c1.05,1.42,3.21,2.58,5,1.92l1-.35a9.86,9.86,0,0,0,1.35-.62,6.07,6.07,0,0,0,3.39,2.59,6.66,6.66,0,0,0,6.76-2,6.66,6.66,0,0,0,2.19,1.16,7.2,7.2,0,0,0,6.73-1.59,5.79,5.79,0,0,0,2.34.67l.77.05c3.87.22,6.59-3.4,6.23-6.92l.56,0a5,5,0,0,0,1.48.75,4.68,4.68,0,0,0,5.84-2.66,7.41,7.41,0,0,0,2.94-.86,10.47,10.47,0,0,0,4.62-5.23A11.15,11.15,0,0,0,251.6,247,9.12,9.12,0,0,0,252.25,239.43Z"/><path class="cls-7" d="M217.94,232c-17.51-5.32-25.81,21.88-8.27,27.21S235.47,237.35,217.94,232Z"/><path class="cls-7" d="M208.55,259.28c-8.44-3.12-10.25-11.27-8.28-17.75,2-6.74,8.49-12.71,17.78-9.89,5.09,1.55,8.5,5.05,9.62,9.88A16.41,16.41,0,0,1,223,256.75a13.31,13.31,0,0,1-13.48,2.87C209.21,259.51,208.87,259.4,208.55,259.28Zm9.27-26.88c-8.77-2.66-14.85,3-16.78,9.36s-.06,14.42,8.74,17.09a12.56,12.56,0,0,0,12.71-2.68,15.58,15.58,0,0,0,4.4-14.47,12.55,12.55,0,0,0-9.07-9.3Z"/><path class="cls-7" d="M242.7,239.92a5.58,5.58,0,0,0-1.52-.21,4,4,0,0,0-2.29-2.68,4.48,4.48,0,0,0,2-8.72,4.33,4.33,0,0,0-3.13.27,3.75,3.75,0,0,0-.47-.05,4.06,4.06,0,0,0,0-1.93c2.25-.67,2.9-4.42.07-5.28a2.68,2.68,0,0,0-3.46,2.57c-3.54-.14-5.08,4.91-2.07,6.79l-.3.07a2.39,2.39,0,0,0-.28-.13,3.52,3.52,0,0,0-2.18,0,4.51,4.51,0,0,0-7.56-2.37,3.07,3.07,0,0,0-1.43.08,2.26,2.26,0,0,0-1.68-2.43c-3.09-.94-4.55,3.86-1.46,4.8a2.64,2.64,0,0,0,.95.09,3,3,0,0,0,2.11,3.73,3.22,3.22,0,0,0,1.25.11,5,5,0,0,0,3.53,1.48,4.62,4.62,0,0,0-.78,3c-1.75,2.81-1.28,7.12,2.84,8.37a5.14,5.14,0,0,0,3.9-.24,4.17,4.17,0,0,0,.41.53,3.39,3.39,0,0,0-4.32,3.44c-4-.21-5.63,6.07-1.26,7.4,3,.9,4.94-1.68,4.81-4.06,2.65-.12,4-3.39,2.61-5.43l.12.07a3.71,3.71,0,0,0,3.21-.39,5.6,5.6,0,0,0,3,2.25,5.8,5.8,0,1,0,3.37-11.1Z"/><path class="cls-7" d="M211,245.76a9.54,9.54,0,0,0-5.4,0,2.63,2.63,0,0,0-1.79-3.35,3.42,3.42,0,0,0-.44,0c1.42-1.3,1.51-4.08-.9-4.81a2,2,0,0,0-.34,0,3,3,0,0,0-2.21-3.13c-4.06-1.23-6,5.07-1.92,6.3a3.13,3.13,0,0,0,1,.09,2.57,2.57,0,0,0,.33.94,7.31,7.31,0,0,0-3.59.35,4.56,4.56,0,0,0-2.78-2.46,4.64,4.64,0,0,0-5.7,3,5.84,5.84,0,1,0,1.91,10.62,3.48,3.48,0,0,0,2.11,5,3.44,3.44,0,0,0,2,0,2.84,2.84,0,0,0,2.15,2.64,3.06,3.06,0,0,0,4-2.72c.11.31.29.59.43.89-1.5,1.48-1.55,4.5,1.09,5.3a2.83,2.83,0,0,0,3.16-.94,8.28,8.28,0,0,0,1.39.62c4.79,1.46,10.67-1.36,12-6.38A9.74,9.74,0,0,0,211,245.76Z"/><path class="cls-7" d="M226.12,219c-3-.91-4.41,3.74-1.41,4.65S229.12,219.87,226.12,219Z"/><path class="cls-7" d="M247.78,226.28c-3.5-1.06-5.16,4.38-1.65,5.45S251.29,227.35,247.78,226.28Z"/><path class="cls-8" d="M196.35,246.8c-3.14-1-4.62,3.91-1.48,4.87S199.49,247.75,196.35,246.8Z"/><path class="cls-8" d="M204,237.82c-6-1.82-8.8,7.47-2.82,9.28S210,239.64,204,237.82Z"/><path class="cls-8" d="M224.9,246.4a4.8,4.8,0,0,0,4.44-3.31,4.72,4.72,0,0,0-.77-4.17c2-.69,2.54-4,0-4.82a2.28,2.28,0,0,0-2.5.67,3,3,0,0,0-1.41-.92c-2.85-.87-4.59,2.07-3.87,4.24a8,8,0,0,0-4.42-3.18c-5.2-1.58-9,1.62-10.29,5.64a4.86,4.86,0,0,0-4.9,3.35,4.73,4.73,0,0,0,.59,3.92c-3.85-.51-5.51,5.48-1.43,6.72a3.47,3.47,0,0,0,1.41.11,4.53,4.53,0,0,0,2.12,2.16c-1.51,1.29-1.65,4.19.83,4.95,3.06.92,4.71-3.1,2.75-4.85a4.74,4.74,0,0,0,.86-.46,4.92,4.92,0,0,0,2.24,1.47,5.15,5.15,0,0,0,6.3-3.26,1.78,1.78,0,0,0,2.29-1,4.69,4.69,0,0,0,5.78-7.27Z"/><path class="cls-8" d="M217.7,255.91a.49.49,0,0,0-.28.93A.49.49,0,0,0,217.7,255.91Z"/><path class="cls-8" d="M234.2,237.84c-4.33-1.31-6.38,5.42-2,6.74S238.54,239.16,234.2,237.84Z"/><path class="cls-8" d="M236.27,234.11a1.87,1.87,0,0,0-1.09,3.58A1.87,1.87,0,0,0,236.27,234.11Z"/><path class="cls-8" d="M240.77,242.42c-4.05-1.23-6,5.07-1.91,6.3S244.83,243.65,240.77,242.42Z"/><path class="cls-8" d="M232.12,247.75c-4.05-1.23-6,5.07-1.91,6.31S236.19,249,232.12,247.75Z"/><path class="cls-8" d="M242.39,229.4c-4-1.2-5.85,5-1.88,6.16S246.35,230.61,242.39,229.4Z"/><path class="cls-8" d="M211.23,230.06c-5.86-1.78-8.64,7.33-2.77,9.11S217.1,231.85,211.23,230.06Z"/><path class="cls-8" d="M187.55,245.69c-3-.9-4.34,3.68-1.39,4.58S190.51,246.59,187.55,245.69Z"/><path class="cls-8" d="M226.3,226.86a1.87,1.87,0,0,0-1.09,3.58A1.87,1.87,0,0,0,226.3,226.86Z"/><path class="cls-9" d="M229,239.44a2.5,2.5,0,0,0-3.15,1.51,4.85,4.85,0,0,0-1.33-.65,4.29,4.29,0,0,0-5.36,2.44,2.82,2.82,0,0,0-.86-.46,2.74,2.74,0,0,0-.69-.07,1.74,1.74,0,0,0-1.2-2.19,1.8,1.8,0,0,0-2.32,1.65,4.84,4.84,0,0,0-5.81,3.23,5.23,5.23,0,0,0,.13,3,2.09,2.09,0,0,0-1.63,1.13c-.63-2-3.72-2.4-4.4-.05-.81,2.79,3,3.78,4.17,2a2,2,0,0,0,1.43,1.39,2.17,2.17,0,0,0,2.81-1.76,4.09,4.09,0,0,0,.68.29,4.84,4.84,0,0,0,3.14-.18,2.64,2.64,0,0,0,2,2.59c3.37,1,5-3.77,2.25-5.28a2.94,2.94,0,0,0,.62-.42,4.5,4.5,0,0,0,2.36,1.6c3.42,1,5.74-1.73,5.84-4.49C230.88,245.35,232.31,240.43,229,239.44Z"/><g class="cls-10"><path class="cls-11" d="M199.42,268.9c-16.18,7.22-48,7.07-69.73-18-3.9-4.51-21.13-16.66-22.25-22.74-.68-3.71-4.94-12.13-1.24-13.8,1.35-.6,2.87-.83,4.1-1.63,4.53-2.95,2.54-11.29,7.23-14,2.79-1.6,5.88-1.07,7.25-4.42,1.63-4,3.08-8,6-11.26.77-.87,1.6-1.68,2.34-2.57,1.33-1.62,2.31-3.5,3.68-5.09a4,4,0,0,1,3.23-1.72,3.53,3.53,0,0,1,2.53,2.17c.5,1,.73,2.2,1.23,3.24,2,4.15,7.7,5.52,9.6,9.71,1.74,3.85-.33,8.84,2,12.33,1.27,1.88,3.51,2.8,5.5,3.89s4,2.74,4.18,5c.1,1.35-.49,2.69-.36,4,.28,2.83,3.42,4.33,6.15,5.11a3.94,3.94,0,0,1,1.57.71c1.21,1.09-2,2.84-1.56,4.41.18.7,2.92.63,3.17,1.3.75,2-2.56,4-1.2,5.7.52.63,2.74,1.55,3.47,1.92,4.81,2.51,10.72,4.17,13.16,9,2.64,5.26.48,11.33,4.75,16A37.53,37.53,0,0,0,206.4,267C205.58,268.77,202,269.85,199.42,268.9Z"/></g><g class="cls-12"><path class="cls-13" d="M198,269.4c-16.18,7.22-48,7.07-69.73-18-3.9-4.51-21.12-16.65-22.25-22.74-.68-3.71-4.94-12.12-1.24-13.79,1.35-.61,2.87-.83,4.1-1.64,4.53-3,2.54-11.28,7.23-14,2.79-1.6,5.88-1.08,7.25-4.43,1.63-4,3.08-8,6-11.25.77-.88,1.61-1.68,2.34-2.58,1.33-1.61,2.31-3.5,3.68-5.08a4,4,0,0,1,3.23-1.72c1.15.13,2.23.45,2.32,1.61.14,1.87,0,3.61.47,4.66,2,4.15,8.19,4.6,10.08,8.79,1.74,3.85.2,10,2.57,13.53,1.27,1.88,3.29,2.31,5.28,3.4s4.18,2.09,4.35,4.35c.1,1.35-.49,2.69-.36,4,.28,2.82,3.42,4.33,6.15,5.11a3.81,3.81,0,0,1,1.57.71c1.21,1.08-1.92,3.62-1.51,5.19.18.7,2.87-.16,3.12.52.75,2-1.43,4.55-1,6.67s11.28,4.45,14.24,10.77c2.49,5.33-1.12,11.88,3.15,16.52,3.21,3.48,11.63,5.64,16,7.48C204.19,269.26,200.59,270.34,198,269.4Z"/></g><path class="cls-3" d="M199.48,269.19c-16.18,7.22-54.51,9.58-76.23-15.5-3.9-4.52-21.13-16.66-22.25-22.75-.68-3.71-5-12.12-1.24-13.79,1.35-.6,2.87-.83,4.1-1.64,4.53-2.95,2.54-11.28,7.22-14,1.46-.83,3.26-.88,4.72-1.69,2.47-1.38,3.32-4.5,3.52-7.32.42-6,.66-13,8-14.55a3.33,3.33,0,0,0,1.28-.42c1.35-.94.68-2.73,1.58-3.94.64-.87,1.31-1.72,2-2.56a3.5,3.5,0,0,1,1-.91,3.72,3.72,0,0,1,1.44-.31c2.06-.14,3.91-.34,4.83,1.69s.72,4.66.81,6.86a5.11,5.11,0,0,0,.32,1.87,5.68,5.68,0,0,0,2.28,2.28,28.76,28.76,0,0,1,6.42,5.25c3,3.72,2.51,9.16,2.89,13.67a6.8,6.8,0,0,0,.23,1.49A5.61,5.61,0,0,0,155.7,206c3.65,1.63,7.86,2.88,7.45,7.67-.11,1.26-.43,2.49-.65,3.74a2.13,2.13,0,0,0,.23,1.74c1.27,1.49,5,.44,6.29,2.29.9,1.25-.33,3.07.21,4.51.3.79,1.28,1.18,1.53,1.91a4.91,4.91,0,0,1-.6,3.28,7,7,0,0,0-.61,1.27,1.35,1.35,0,0,0,.24,1.32,1.83,1.83,0,0,0,.63.38c3.38,1.46,5.77,3.59,8.75,5.75a17.24,17.24,0,0,1,4.35,4c2.45,3.66,1,10.38,2.48,14.54,1.16,3.3,4.57,4.17,7.78,5.51C197.25,265.43,198.53,264.4,199.48,269.19Z"/><path class="cls-1" d="M199.49,269.2c-6.73,4.71-17.87,7.23-30.07,6.72-1,0-1.87-.11-2.79-.16-15.34-1.18-31.93-7.09-43.79-19.25,0,0,0-.05-.08-.09-.71-.72-1.38-1.47-2.05-2.24-1.57-1.82-5.31-4.88-9.28-8.27-.68-.61-1.37-1.19-2.06-1.77-5.24-4.58-10.31-9.49-10.92-12.72-.66-3.71-4.93-12.1-1.23-13.81a27.49,27.49,0,0,0,4.1-1.61,7.56,7.56,0,0,0,2.85-4.36c1.09-3.55,1.27-7.83,4.36-9.62,1.46-.82,3.28-.87,4.73-1.69a5.71,5.71,0,0,0,2.36-2.55,13.42,13.42,0,0,0,1.16-4.75c.42-6.05.66-13,8-14.57a3.71,3.71,0,0,0,1.27-.41,3.36,3.36,0,0,0,1-1.7,10.09,10.09,0,0,1,6.89-6,2.9,2.9,0,0,1,2.35.19c3.22,2.33,1.08,9.28,4.44,12.49,1.94,1.83,4.38,3.12,6,5.23,4.26,5.49,2,14.86,7.69,18.87,2,1.42,4.8,2,6,4.15,1.55,3-.65,7.85,2.37,9.32,1.2.57,2.89.28,3.66,1.36.89,1.24-.34,3.07.22,4.51.38,1,1.61,1.6,1.92,2.66.44,1.37-.84,2.82-.54,4.24a4.05,4.05,0,0,0,1.76,2.09c.91.64,1.83,1.33,2.74,2l4,2.95a17.27,17.27,0,0,1,4.37,4c2.44,3.69,1.7,8.61,3.19,12.77a8.56,8.56,0,0,0,1,2,12.63,12.63,0,0,0,6.08,5.31C194.71,265.93,198.53,264.4,199.49,269.2Z"/><path class="cls-3" d="M194.69,268.33a18.11,18.11,0,0,1-9.07,3.92,28.53,28.53,0,0,1-9.17-.15,40.87,40.87,0,0,1-7.19,3c-.47.12-1,.2-1.44.33.59.14,1.18.29,1.78.4-1,0-1.87-.1-2.82-.15-15.31-1.12-31.93-7-43.83-19.09,0,0,0-.05-.07-.09-1.79-2.35-3.16-5.87-4-10.3a25.85,25.85,0,0,1-2.92-3.49,33,33,0,0,1-3.94-8.21,10.09,10.09,0,0,1-2.72-2.69,18.53,18.53,0,0,1-2.17-4.07,42.51,42.51,0,0,1-2.37-8.79,40.2,40.2,0,0,0,2.91,8.56c.62,1.28,1.66,3.67,3,4.22.62-1.07-.37-3.2-.6-4.32-.39-1.92-.71-3.85-.91-5.79a64.78,64.78,0,0,1-.35-11c.26,2.31.57,4.63.94,6.93.23,1.45.08,4.05,1.25,5.09.93-1.08.74-4.06.8-5.48a63.47,63.47,0,0,0-.36-9.35,59.41,59.41,0,0,1,1,9.35,28.62,28.62,0,0,1-.94,9,51,51,0,0,0,1.71,5.59,46.66,46.66,0,0,0,2,4.71c.4.79,1.32,3.27,2.38,2.56s.3-4.21.32-5.22q0-3,.32-6.08c.08-1,.19-2.07.31-3.1.07-.63.7-2.67.42-3.19-.1-.2-.24-.41-.34-.64a25.24,25.24,0,0,1-1.93-5.83,52.07,52.07,0,0,1-1-11.89c-.06,2.5.81,5.39,1.45,7.8.46,1.75.77,4.48,2.67,5.31,1.12-1.73,1.23-5.16,1.77-7.22a33.67,33.67,0,0,1-1-9.78,64.05,64.05,0,0,1,2-14.31,67.81,67.81,0,0,0-.63,10.66,16.38,16.38,0,0,0,.89-1.84c.52-1.27,1-2.58,1.38-3.88.81-2.66,1.46-5.36,2-8.09-.27,2.79-.65,5.55-1.18,8.29a35.52,35.52,0,0,1-.95,4.11,8.82,8.82,0,0,1-2.05,4c0,.34,0,.68.06,1,.15,1.18-.09,3,1,3.83,1.08-1.22,1.48-4.15,2-5.75q1.13-3.13,2.39-6.21,2.69-6.53,6-12.77c-1.25,7.28-2.35,14.59-3.09,21.95-.38,3.75-.67,7.5-.82,11.27-.07,1.82-.12,3.65-.13,5.47,0,1-.35,2.31.19,3.19,1,1.62,2-.68,2.59-1.62a46,46,0,0,0,4.49-9.18c.15-.38.26-.75.42-1.14a28.85,28.85,0,0,1-1.54-9.68A52.34,52.34,0,0,1,136.8,188a49.75,49.75,0,0,0-.75,10.61,30,30,0,0,0,1.51,8.54A101.76,101.76,0,0,0,142,189.2c-.27,3.76-.68,7.5-1.32,11.25.83-.85,1.65-1.67,2.42-2.57a16.31,16.31,0,0,0,3-4.3,17.08,17.08,0,0,1-2.58,4.62c-1,1.36-2.05,2.68-3.17,4a72.51,72.51,0,0,1-1.87,7.8,51.09,51.09,0,0,1-2.66,7.24,14.16,14.16,0,0,0,2-2.2,45.45,45.45,0,0,0,2.6-4.15l2.43-4.27a10.72,10.72,0,0,1,3.1-3.83,10.66,10.66,0,0,0-2.84,3.95l-2.21,4.43a36.79,36.79,0,0,1-2.39,4.35,8.25,8.25,0,0,1-3.6,3.48c-.16.32-.32.63-.48.92a28.15,28.15,0,0,1-4.59,6.22,83.38,83.38,0,0,0,2.21,14.3,59.05,59.05,0,0,0,2.1,6.74,18.45,18.45,0,0,0,1.39,3.65c1.29,2,1.84.68,2.55-.86.12-.3.3-.58.42-.84a19,19,0,0,1-1.34-4.61,35.23,35.23,0,0,1-.34-5.78,49.55,49.55,0,0,1,.47-5.73,27.74,27.74,0,0,1,1.15-5.56,27.67,27.67,0,0,0-.69,5.6,42.91,42.91,0,0,0,0,5.67,37.27,37.27,0,0,0,.61,4.8c.17.75.56,3.74,1.77,2.5a9.51,9.51,0,0,0,1-1.75c.44-.7.91-1.36,1.38-2,.88-1.26,1.79-2.49,2.68-3.76.57-.79,1.15-1.61,1.71-2.45a15.53,15.53,0,0,0,.22-5.57c-.27-2.18-.85-4.43-1.27-6.69a45.27,45.27,0,0,1-.4-13.74,34.42,34.42,0,0,0,.22,7.59,17.17,17.17,0,0,0,.72,4.74c1.18,2.83,2.17-1.88,2.44-3a38.7,38.7,0,0,0,1-6.51,39.71,39.71,0,0,1-.41,6.62,17.27,17.27,0,0,1-2,6.37c.4,1.45.83,2.88,1.1,4.4.09.5.07,1.28.74,1.38,1.12.17,2.38-3.43,2.77-4.25A69.34,69.34,0,0,0,156.37,215a46.36,46.36,0,0,1-2.8,13,63,63,0,0,1-6.31,11.86c-1.08,1.71-2.21,3.44-3.25,5.12a61,61,0,0,0,10.06-4.55,2,2,0,0,0,.3-.24c.09-.08.21-.14.3-.21l-.07-.09a.45.45,0,0,0-.21.24l0-.2,0-.45.08-.94.16-1.86a25.2,25.2,0,0,1,.72-3.68,17.92,17.92,0,0,1,3.17-6.68,18.6,18.6,0,0,0-2.58,6.82c-.18,1-1.36,5.41.85,5.09,1.06-.14,2.64-2.75,3.2-3.57a20.29,20.29,0,0,0,2.31-4.43,22.11,22.11,0,0,1-2.9,6.16,20.71,20.71,0,0,1-3.78,4.35,37.76,37.76,0,0,1-5.9,3.45c-.66.34-7.3,3.21-7.25,3.52l0-.14a25.35,25.35,0,0,0-1.65,3.46,17.56,17.56,0,0,0-1.23,6.67,42.37,42.37,0,0,0,7.32,8,56.06,56.06,0,0,0,5.09-3c.67-.47,1.28-.95,1.93-1.42a24.26,24.26,0,0,1,1-3.83,45.11,45.11,0,0,1,2-4.66,66.75,66.75,0,0,1,5.15-8.58,68.35,68.35,0,0,0-4.27,9c-.48,1.26-2.8,7.42.37,4.61a46.6,46.6,0,0,0,5.41-5.83,60.51,60.51,0,0,0,4.53-6.67,31.87,31.87,0,0,1-2.27,5.92c.84-.55,1.68-1.12,2.47-1.75a14.16,14.16,0,0,0,3.89-4.33,14.1,14.1,0,0,1-3.52,4.77,36,36,0,0,1-4,3.32,39.44,39.44,0,0,1-4.8,6.25,49.15,49.15,0,0,1-6.2,5.59c-1.3,1-2.66,1.83-4,2.68a47.19,47.19,0,0,0,10.4,5.43c1.2-.14,2.43-.23,3.66-.42a8.42,8.42,0,0,0,3-3.3,26.21,26.21,0,0,0,2-5.47c1-3.86,2-8.07,4.69-11.16-2.24,3.42-2.61,7.48-3.12,11.47-.07.34-.11.7-.18,1a29,29,0,0,0,5.18-4,18.34,18.34,0,0,0,4.61-6.95,19,19,0,0,1-4.18,7.38,29.61,29.61,0,0,1-5.84,5.07c-.32.21-.53,2.34-.66,2.78-.45,1.49,0,1.93,1.5,1.64a31.66,31.66,0,0,0,5.79-2,40,40,0,0,0,7.52-4.22,19.21,19.21,0,0,1-5.42,5.66,26.51,26.51,0,0,0,5.77.56,25.29,25.29,0,0,1,5.86-4.56,22.23,22.23,0,0,0-4.27,4.5A17.49,17.49,0,0,0,194.69,268.33Z"/><path class="cls-3" d="M111.51,246.06c-.69-.61-1.38-1.18-2.07-1.76a57.1,57.1,0,0,1-4.08-15A58.22,58.22,0,0,0,111.51,246.06Z"/><path class="cls-5" d="M127.53,199.45s-11.3,50.6,17.59,69.54C121,253.36,127.53,199.45,127.53,199.45Z"/><path class="cls-5" d="M126.05,198.35s-17,44,6.89,65.72C113.28,244.9,126.05,198.35,126.05,198.35Z"/><path class="cls-14" d="M199.49,269.2c-16.1,11.25-57.05,10-78.78-15-3.92-4.51-21.13-16.66-22.26-22.76-.66-3.71-4.93-12.1-1.23-13.81a27.49,27.49,0,0,0,4.1-1.61,7.56,7.56,0,0,0,2.85-4.36c1.09-3.55,1.27-7.83,4.36-9.62,1.46-.82,3.28-.87,4.73-1.69a5.71,5.71,0,0,0,2.36-2.55c2.81,25.6,16.41,48.83,57,39.65l4,2.95a17.27,17.27,0,0,1,4.37,4c2.44,3.69,1.7,8.61,3.19,12.77a8.56,8.56,0,0,0,1,2,12.63,12.63,0,0,0,6.08,5.31C194.71,265.93,198.53,264.4,199.49,269.2Z"/><path class="cls-14" d="M199.49,269.2c-16.1,11.25-57.05,10-78.78-15-3.92-4.51-21.13-16.66-22.26-22.76-.66-3.71-4.93-12.1-1.23-13.81a27.49,27.49,0,0,0,4.1-1.61,7.56,7.56,0,0,0,2.85-4.36c9.91,31.51,44.54,58.61,81,47.5a12.63,12.63,0,0,0,6.08,5.31C194.71,265.93,198.53,264.4,199.49,269.2Z"/><path class="cls-4" d="M191.22,264.45a12.63,12.63,0,0,1-6.08-5.31,8.56,8.56,0,0,1-1-2c-1.49-4.16-.75-9.08-3.19-12.77a17.27,17.27,0,0,0-4.37-4l-4-2.95c-.91-.64-1.83-1.33-2.74-2a4.07,4.07,0,0,1-1.76-2.08c-.3-1.43,1-2.88.54-4.25-.31-1.06-1.54-1.64-1.92-2.66-.56-1.44.67-3.27-.22-4.51-.77-1.08-2.46-.79-3.66-1.36-3-1.47-.82-6.34-2.37-9.32-1.18-2.17-4-2.73-6-4.15-5.65-4-3.43-13.38-7.69-18.87-1.66-2.11-4.1-3.4-6-5.23-3.36-3.21-1.22-10.16-4.44-12.49a2.9,2.9,0,0,0-2.35-.19,10.09,10.09,0,0,0-6.89,6,3.36,3.36,0,0,1-1,1.7,3.73,3.73,0,0,1-1.26.41c-7.37,1.57-7.61,8.52-8,14.57a13.42,13.42,0,0,1-1.16,4.75,5.71,5.71,0,0,1-2.36,2.55c-1.45.82-3.27.87-4.73,1.69-1.87,1.08-2.67,3.08-3.25,5.27.28-1,8.34-1.27,9.55-1.78a8.37,8.37,0,0,0,4.65-6.12c.4-2,.36-4.21,1.15-6.14,1.36-3.33,4.82-5.22,8-6.85a4,4,0,0,1,1.58-.53,2.71,2.71,0,0,1,2.42,1.76,7.92,7.92,0,0,1,.42,3.14,3.63,3.63,0,0,1,3.88,1.31,9.49,9.49,0,0,1,1.7,4,64,64,0,0,1,1.26,6.43,14.2,14.2,0,0,0,1.13,4.58c1.26,2.44,3.88,3.8,6.22,5.24s4.75,3.44,5,6.18c.19,2.18-1,4.44-.28,6.48.53,1.43,1.9,2.34,3,3.37a12.79,12.79,0,0,1,4,9.56,5.3,5.3,0,0,0,.18,2.18,3.74,3.74,0,0,0,1.16,1.37c2.58,2.13,5.83,3.28,8.55,5.23s5,5.28,4,8.49c-.51,1.81-2,3.67-1.1,5.34.69,1.33,2.53,1.68,3.35,2.93,1,1.5,0,3.65-1.61,4.48a8.87,8.87,0,0,1-5.26.49,94.28,94.28,0,0,1-17.29-4.08c-2.89-.94-5.73-2.12-8.65-3-2.21-.66-4.25-.24-6.51.36-4,0-5.62-.88-9.23-2.49-.47-.21-1-.42-1.55-.63,11.66,10.72,27.11,16.06,41.52,17.17.92.05,1.83.13,2.79.16,12.2.51,23.34-2,30.07-6.72C198.53,264.4,194.71,265.93,191.22,264.45Z"/><path class="cls-4" d="M191.22,264.45a12.63,12.63,0,0,1-6.08-5.31,8.56,8.56,0,0,1-1-2c-1.49-4.16-.75-9.08-3.19-12.77a17.27,17.27,0,0,0-4.37-4l-4-2.95c-.91-.64-1.83-1.33-2.74-2a4.07,4.07,0,0,1-1.76-2.08c-.3-1.43,1-2.88.54-4.25-.31-1.06-1.54-1.64-1.92-2.66-.56-1.44.67-3.27-.22-4.51-.77-1.08-2.46-.79-3.66-1.36-3-1.47-.82-6.34-2.37-9.32-1.18-2.17-4-2.73-6-4.15-5.65-4-3.43-13.38-7.69-18.87-1.66-2.11-4.1-3.4-6-5.23-3.36-3.21-1.22-10.16-4.44-12.49a2.9,2.9,0,0,0-2.35-.19,10.09,10.09,0,0,0-6.89,6,3.36,3.36,0,0,1-1,1.7,3.73,3.73,0,0,1-1.26.41c-7,1.49-7.56,7.75-8,13.53,1.23-2.4,2.19-4.83,3.39-7.17a3.9,3.9,0,0,1,2.58-2.15,5.8,5.8,0,0,1,2.19.14l3.07.6a1.29,1.29,0,0,0,.55,0c1.11-.22,2.2-10.36,6.24-6,2.23,2.42-1.32,7.41,2.69,9.57,1.3.7,2.93.53,4.24,1.23,2.53,1.35,2.45,4.95,2.11,7.81a21.87,21.87,0,0,0,0,7.22,8.37,8.37,0,0,0,4,5.75c1.83.93,4.1,1,5.66,2.3,1.9,1.6,2,4.29,3,6.43s1.06,5.22,3.62,5.91c1,.26,2.09,0,2.81.71,1.38,1.28-.58,3.73.28,5.41.54,1.06,2,1.36,2.63,2.39,1.46,2.46-1.62,4.87,1.37,7a18.05,18.05,0,0,0,4.12,1.73,12.17,12.17,0,0,1,7.71,9.68c.21,2-.14,4.07,0,6.1s.85,4.21,2.6,5.25c1,.59,2.25.78,3,1.63a3.18,3.18,0,0,1,.29,3.51,7.08,7.08,0,0,1-2.64,2.6,19.5,19.5,0,0,1-9.77,2.81c-3.55.15-6.75,2.07-10.33,2.73,1.44.19,2.87.37,4.33.49.92.05,1.83.13,2.79.16,12.2.51,23.34-2,30.07-6.72C198.53,264.4,194.71,265.93,191.22,264.45Z"/><path class="cls-15" d="M156.46,257a4.15,4.15,0,0,0-2.66-2.91c-.87-.34-1.94-.56-2.31-1.41-.52-1.2.82-2.34,2-3l-7.91-10.51c-1.26-1.67-2.58-3.6-2.22-5.66a1.9,1.9,0,0,0,0-1.31c-.27-.44-.88-.48-1.39-.55a5.55,5.55,0,0,1-4.57-4.16c-.43-1.87.16-3.8.33-5.72s-.28-4.17-2-5c-.56-.29-1.2-.4-1.74-.71a4.84,4.84,0,0,1-1.81-3,50.06,50.06,0,0,1-1.88-9.31c-.29-2.71-.53-5.78-2.65-7.49l-8,9.81c-.91,1.12-1.94,2.31-3.35,2.56-1.26.22-2.51-.35-3.78-.44s-2.84.76-2.64,2a3.08,3.08,0,0,0-3.77,1.1c-1.41,1.87-1.56,4.2-1.92,6.4s-1.28,2.55-2.53,4.17c-1.52,1.95-.68,4.94,1,6.73s4.07,2.77,6.16,4.09a6.44,6.44,0,0,1,2.21,2c1.09,1.81.49,4.14.87,6.22.49,2.63,2.56,4.72,4.85,6.11s4.88,2.22,7.27,3.44c5.2,2.67,9.31,7.07,14.32,10.09,2.8,1.69,6.38,2.93,9.27,1.4a1.76,1.76,0,0,0,1-1c.23-1-.95-1.64-1.92-1.83s-2.18-.45-2.42-1.41l8.34,2.21a4.45,4.45,0,0,0,1.94.22A2.73,2.73,0,0,0,156.46,257Z"/><path class="cls-16" d="M135.14,244.33c-.18-2.06-2.36-3.22-4-4.53-2.54-2.09-4-5.25-4.83-8.43s-1.24-6.47-2.13-9.64c-.73-2.59-1.81-5.17-1.61-7.86.11-1.49.49-3.31-.7-4.22a2.71,2.71,0,0,0-3.29.49c-.9.8-1.48,1.9-2.31,2.77a19,19,0,0,1-3.41,2.46,6.58,6.58,0,0,0-2.75,3.09,3.35,3.35,0,0,0,0,2,4.52,4.52,0,0,0,1,4.33c.91.92,2.25,1.4,2.94,2.49,1,1.56.26,3.66.83,5.41.9,2.75,4.46,3.55,6.21,5.85,1,1.25,1.29,2.84,2,4.25a9.63,9.63,0,0,0,5.58,4.88,6,6,0,0,0,4.24,0A3.55,3.55,0,0,0,135.14,244.33Z"/><g class="cls-10"><path class="cls-11" d="M292.25,189.36c.38-5.22.53-10.47.45-15.71q-.09-5.84-.6-11.66a6.33,6.33,0,0,1-1.11-.25c-2.71-.85-2.6-3.44-6.24-3.75-2.11,1.91-1.29,6.74,1.5,11.16,1.05,1.68-5.44,3.28-6.08,5.16-.89,2.58,1.71,5,3.33,7.24,6.37,8.64-1.88,9.12-3.86,15-1.74,5.21,1.74,11.58-3.09,14.92-4.45,3.08-15.19,3.95-17,9.78-.83,2.63,1.18,6.46-.55,8.61-3.18,4-12.23,2.79-15,7.08-1.32,2.07.74,6.17-1.05,7.85-1.6,1.49-8.44.46-10.55,1-9.7,2.49-4.57,12.62-11.81,12.08-3.94-.3-.11,7.84-5.29,8.71a7,7,0,0,0,5.05.46c19.9-1.27,38.6-14.27,50.69-25.09C284,230.43,290.17,217.42,292.25,189.36Z"/></g><g class="cls-12"><path class="cls-13" d="M292.25,189.36c.38-5.22.53-10.47.45-15.71q-.09-5.84-.6-11.66a6.33,6.33,0,0,1-1.11-.25c-1.69-.53-2.29-1.74-3.38-2.65-2.17,2.07-3.05,6-.27,10.41,1.06,1.68-3.57,3.66-4.21,5.53-.89,2.59.57,5.09,2.19,7.29,6.37,8.64-2.08,8.44-4.06,14.34-1.74,5.21.88,11.77-3.95,15.11-4.45,3.08-14,3.59-15.85,9.41-.83,2.64,1,6.74-.74,8.89-3.19,4-12,2.74-14.72,7-1.32,2.06-.47,6.33-2.26,8-1.6,1.49-8.61.71-10.73,1.25-9.69,2.49-4.37,12.67-11.62,12.14-3.94-.3.84,9.11-6.07,8.1a7,7,0,0,0,5.05.46c19.9-1.27,38.6-14.27,50.69-25.09C284,230.43,290.17,217.42,292.25,189.36Z"/></g><path class="cls-3" d="M222.87,259.3c-3.92.46-2,6.78-2.5,7.76,20.85-.06,43-13.28,55.74-24.67,12.9-11.54,19.11-24.55,21.19-52.61.38-5.22.53-10.47.45-15.71A141.49,141.49,0,0,0,296.28,155a67.6,67.6,0,0,0-1.45-7.18c-.61-2.29-1.69-6.55-4-7.37-2.63-.92-4.6,5-4.73,7.42-.09,1.51.28,4.16-1.7,5.38a5.67,5.67,0,0,1,.8,3.18c1.07-.55,2.46-1.85,2.24-3-1.32-7.18,1.19-10.55,2.14-11.62.67-.74,3-1.47,3.7,8.31.37,5-10.51,11.1-5,19.77,1,1.68-3,2.63-3.68,4.5a8.88,8.88,0,0,0,1.45,7.87c6.37,8.64-2.27,8.59-4.24,14.48-1.74,5.21.22,12.25-4.6,15.58-4.46,3.08-13,3.52-14.81,9.35-.83,2.63.93,6.67-.8,8.82-3.19,4-12,2.85-14.7,7.14-1.31,2.07-.54,5.56-1.47,7.83-1.28,3.14-14-1.53-16.93,7.43C227.66,255.23,227.55,258.76,222.87,259.3Z"/><path class="cls-1" d="M279.16,243.84q-2,1.8-4.39,3.57c-13.57,10.16-35.72,19.59-54.4,19.65,2.24-.66-1.17-5.59,4.3-6.67,2.31-.47,3.4-2.07,4.29-3.7.47-.76.83-1.52,1.3-2.18a17.58,17.58,0,0,1,10.25-6.83c2.11-.46,4.49-.6,6.09-2.12,1.8-1.66,2-4.44,3.28-6.51,2.73-4.28,9.38-4.3,12.56-8.27,1.75-2.14,2.1-5.07,2.93-7.68,1.84-5.82,7.19-6.3,11.62-9.36,4.82-3.34,6.06-10.37,7.8-15.55.9-2.76,2.51-4.64,3.66-6.56,1.33-2.17,2.06-4.35.58-7.94-1-2.52-2.34-5.28-1.45-7.88.64-1.88,2.38-3.42,2.27-5.38a10.88,10.88,0,0,0-.57-2.28c-1.42-5.34,3.14-10.23,4.48-15.09a14.47,14.47,0,0,0-2.94-12.61c2.66.7,6,9.12,8,20.81a123.9,123.9,0,0,1,1.54,30C298.26,219.31,292,232.3,279.16,243.84Z"/><path class="cls-3" d="M285.81,213.59c0,.39,0,4.4-1.3,2.58a10,10,0,0,1-.18-2.24,36.77,36.77,0,0,1-.36-8,36.86,36.86,0,0,0-.28,8.07,15.81,15.81,0,0,0,.84,4,6.29,6.29,0,0,0,1.93,2.85,26.38,26.38,0,0,0,1.08,4.17,62.6,62.6,0,0,1-10,12.47c-.92.88-4.06,4.64-5.32,3.65a5.41,5.41,0,0,1-.54-3.59l.3-.41c.22-.31.39-.63.59-.95a19.26,19.26,0,0,0,1-2,24.7,24.7,0,0,0,1.45-4.1,38.18,38.18,0,0,0,1.19-8.48c-.79,2.74-1.52,5.46-2.52,8.06-.34.86-2.18,5.46-2.35,2.25-.05-1.17.13-2.46.2-3.65.15-2.62.44-5.23.85-7.82a81.18,81.18,0,0,0-2.3,11q-.14-.94-.3-1.89c-.33-2.2-.6-4.43-1-6.67a43.91,43.91,0,0,0-.38,6.78,26.33,26.33,0,0,0,.24,3.42,16.36,16.36,0,0,0,.29,1.75,7.08,7.08,0,0,0,.29.94l.23.51a.79.79,0,0,0,.12.15c.37.36,0,3.7,0,4.36.08,1.07.26,2.58-.49,3.48s-2.37,1.44-3.29,2a68.13,68.13,0,0,1-8.48,4.19c-1.09.44-5.54,2.77-6.36,1.73-.46-.59.13-1.95.38-2.55a6.06,6.06,0,0,1,1.74-2.3c.93-.75,2.06-1.27,3-2a16,16,0,0,0,2.59-3.2,29.45,29.45,0,0,0,2.08-3.51c.59-1.19,1-2.45,1.52-3.64a27.31,27.31,0,0,1-9.31,11,87.74,87.74,0,0,1,4.13-8.92c-1.11,2.07-2.54,4-3.69,6-.59,1.06-1.16,2.14-1.73,3.22a13.81,13.81,0,0,0-1.49,3.07,6.39,6.39,0,0,1-3.44,4.36,27,27,0,0,1-6.54,1.49A103.51,103.51,0,0,1,229,256.69c-.89,1.63-2,3.24-4.29,3.7-5.47,1.08-2.07,6-4.3,6.67,18.68-.06,40.83-9.48,54.4-19.65,1.59-1.18,3.06-2.37,4.39-3.57,12.88-11.54,19.1-24.53,21.16-52.61.25-3.33.33-6.67.29-10a6.16,6.16,0,0,0,0-1.3,123.44,123.44,0,0,0-1.81-18.71.78.78,0,0,0-.18-.09c.36.11.51,4.12.54,4.46.34,3.62,1.06,7.94.43,11.51,0,0-.83-.84-.9-.92A4.63,4.63,0,0,1,298,175a11.08,11.08,0,0,1-.89-2.92c-.09-.58-.13-1.16-.23-1.74-.33-1.85-.85-3.68-1.22-5.53s-.71-3.86-1-5.8c.35,2.3.46,4.64.78,6.95a20.42,20.42,0,0,1,.57,3.6c0,.84.48,2.3-.35,1.93-1.86-.83-3.13-6.8-3.73-8.56.28.81.4,1.71.63,2.54s.5,1.72.8,2.57a24.3,24.3,0,0,0,2.2,4.81c.94,1.49,1.23,3.28,2,4.85a15.44,15.44,0,0,0,1,1.7,7,7,0,0,1,.47.73c.1.18.5.65.49.83a110.46,110.46,0,0,1-2,17.75,47.1,47.1,0,0,1-3.14-9.39,79.29,79.29,0,0,1-1.77-12.29,78.69,78.69,0,0,0,.95,12.44,44.75,44.75,0,0,0,3.4,11.81,88.75,88.75,0,0,1-2.71,9.5,6.12,6.12,0,0,1-1.12-1.7,15.28,15.28,0,0,1-1.09-3.75,36.77,36.77,0,0,1-.35-8,36.25,36.25,0,0,0-.29,8.07,16,16,0,0,0,.84,4,6.83,6.83,0,0,0,1.57,2.53,74.31,74.31,0,0,1-4.63,10.21,38.82,38.82,0,0,1-2-8.74,81,81,0,0,1-.38-13.59A81.1,81.1,0,0,0,285.81,213.59Z"/><path class="cls-4" d="M274.77,247.41c-13.57,10.16-35.72,19.58-54.4,19.65,2.24-.66-1.17-5.6,4.3-6.67,3.41-.67,4.14-3.85,5.59-5.88a17.58,17.58,0,0,1,10.25-6.83c2.11-.46,4.49-.6,6.09-2.12,1.8-1.66,2-4.44,3.28-6.51,2.73-4.28,9.38-4.3,12.56-8.27,1.75-2.14,2.1-5.07,2.93-7.69,1.84-5.81,7.19-6.29,11.62-9.35,4.82-3.34,6.06-10.37,7.8-15.55.9-2.76,2.51-4.64,3.66-6.56-.83,15.9-4.49,29.17-20.34,44.41C259.67,244.16,265.65,248,274.77,247.41Z"/><path class="cls-4" d="M220.37,267.06c1,0,2-.05,3-.11,1.6-3.65,4.9-5.3,7.52-9.39,3.2-5,4.67-5.84,10.26-7.37,8.14-2.22,8-10.15,15.21-13.17,4.49-1.89,7.73-2.6,10.37-7.51,1.24-2.3,1.14-5.13,2.56-7.42s3.64-3.75,5.87-5.23c5.68-3.77,8.14-7.44,10.14-13.92a39.34,39.34,0,0,1,3.69-8.59c1.82-3.16,2.72-5.31,2.42-9.36-.09-1.23-.71-2.48-.85-3.75-.68-5.9,1.6-13.19,2.94-18.94a15.93,15.93,0,0,1,1.14-3.25,9,9,0,0,1,0-2.43,12.4,12.4,0,0,1,2-5.13c-1.82-6.37-4-10.57-5.78-11a14.5,14.5,0,0,1,2.95,12.61c-1.34,4.86-5.91,9.76-4.48,15.1a11.25,11.25,0,0,1,.57,2.25c.1,2-1.65,3.54-2.29,5.41-.88,2.58.41,5.34,1.45,7.87,2.79,6.75-2.26,8.59-4.24,14.48-1.74,5.21-2.95,12.23-7.78,15.56-4.46,3.08-9.79,3.54-11.62,9.37-.83,2.63-1.2,5.53-2.93,7.68-3.19,4-9.84,4-12.57,8.28-1.32,2.07-1.49,4.84-3.27,6.51-1.6,1.5-4,1.64-6.11,2.12a17.61,17.61,0,0,0-10.25,6.81c-1.45,2-2.19,5.23-5.59,5.9C219.22,261.47,222.62,266.4,220.37,267.06Z"/><path class="cls-4" d="M220.37,267.06a64.75,64.75,0,0,0,7.53-.5c.85-.72,1.92-1.41,3.16-2.34,3.57-2.69,4.07-6.43,7-9.24,1.81-1.73,4.24-2.19,6.49-3,5.94-2.09,6.21-4.75,9.85-9.16,2-2.38,3.77-2.73,6.41-4.05,4.65-2.33,7.79-4.9,9.94-9.71,1.26-2.83,1.77-5,3.87-7.41a18.3,18.3,0,0,1,3.87-3.16c3.69-2.52,4.62-4.59,6.29-9,1.18-3.09,1.79-5.35,3.88-8,4.07-5.18,6.65-8.88,6.1-15.93-.24-3.07-.93-6.24-.45-9.33.69-4.5,2.89-7.51,1.63-12.23-.73-2.73-1.76-4.47-1.34-7.41a12.4,12.4,0,0,1,2-5.13c-1.82-6.37-4-10.57-5.78-11a14.5,14.5,0,0,1,2.95,12.61c-1.34,4.86-5.91,9.76-4.48,15.1a11.25,11.25,0,0,1,.57,2.25c.1,2-1.65,3.54-2.29,5.41-.88,2.58.41,5.34,1.45,7.87,2.79,6.75-2.26,8.59-4.24,14.48-1.74,5.21-2.95,12.23-7.78,15.56-4.46,3.08-9.79,3.54-11.62,9.37-.83,2.63-1.2,5.53-2.93,7.68-3.19,4-9.84,4-12.57,8.28-1.32,2.07-1.49,4.84-3.27,6.51-1.6,1.5-4,1.64-6.11,2.12a17.61,17.61,0,0,0-10.25,6.81c-1.45,2-2.19,5.23-5.59,5.9C219.22,261.47,222.62,266.4,220.37,267.06Z"/><path class="cls-15" d="M297,187.72a22.77,22.77,0,0,1-5,14,16.91,16.91,0,0,0-1.46,2.18,15.2,15.2,0,0,0-1.08,3.17c-.91,3.47-2.68,5.92-3.88,9.22-1.29,3.55-2.19,7.23-4.53,10.29a40.48,40.48,0,0,0-2.85,3.43c-1,1.51-1.38,3.31-2.31,4.84-.75,1.24-1.88,2.53-1.49,3.92a2.69,2.69,0,0,0,3.06,1.64,6.43,6.43,0,0,0,3.22-1.92c4.33-4.13,7.52-10,9.64-15.58,1.09-2.83.68-6.11,2.31-8.77,1-1.6,2.71-3,2.58-4.89-.06-1-.62-1.9-.65-2.86,0-1.3.86-2.37,1.58-3.44,1.92-2.72,1.94-5,1.6-8-.41-3.74.56-8,.9-11.74.09-1.07,0-2.46-1-2.81-.86,2.17-.61,4.59-.64,6.92Z"/><path class="cls-17" d="M177.76,179.6a2.52,2.52,0,0,1,.77,0,1.84,1.84,0,0,1,.95-.84,2.24,2.24,0,0,1,1.84-2.59,2.45,2.45,0,0,1,.46,0,2.1,2.1,0,0,1,1.38-3.17,2.21,2.21,0,0,1,2.26,3.31,3.67,3.67,0,0,1,2.31.31l.24-.07a3.42,3.42,0,0,1,.62-.06,1.23,1.23,0,0,1,.23-.09.92.92,0,0,1,.81.2,1.75,1.75,0,0,1,1.35-1.13,1.82,1.82,0,0,1,1.42.28,1.67,1.67,0,0,1,.88-.44,1.72,1.72,0,0,1,1.39-1.85,1.74,1.74,0,0,1,2,2.25,2.08,2.08,0,0,1,.85,1.24,5.26,5.26,0,0,1,.89,0,2.12,2.12,0,0,1,3.19-1.8.59.59,0,0,1,.44-.79.62.62,0,0,1,.25,1.22.41.41,0,0,1-.19,0,1.64,1.64,0,0,1,.2.26,1.62,1.62,0,0,1,1.07-.69,1.61,1.61,0,0,1,1.95,1.26,2.49,2.49,0,0,1,.73,1.49,3.85,3.85,0,0,1,2.95,1.92,1.34,1.34,0,0,1,.92-2,1.39,1.39,0,0,1,.54,2.72,1.25,1.25,0,0,1-1.34-.54,2.82,2.82,0,0,1,.25.81,4.08,4.08,0,0,1-.08,1.6,1.73,1.73,0,0,1,.48-.2,1.7,1.7,0,1,1,0,3.32,2.55,2.55,0,0,1-.11.74,1.34,1.34,0,0,1,.4,2.65,1.3,1.3,0,0,1-1.55-1.35,2.32,2.32,0,0,1-.58.2,2.53,2.53,0,0,1-1,0,3.75,3.75,0,0,1-.4.77c2,.24,2.41,3.45.13,3.91a2,2,0,0,1-2.28-2.38l-.23.08a3.68,3.68,0,0,1-1.71-.12,3.43,3.43,0,0,1,.86,1.77,4.14,4.14,0,0,1-3.19,4.79,3.77,3.77,0,0,1-.89.06,1.28,1.28,0,0,1-.37.18,2.69,2.69,0,0,1-5.3.9,2.88,2.88,0,0,1,.63-2.28,4.23,4.23,0,0,1-.63.21,3.46,3.46,0,0,1-4-2.69,2.58,2.58,0,0,1,0-.48,1.85,1.85,0,0,1-1.82-1.22,4.54,4.54,0,0,1-1.82,3.58c1.36,1.14,1.3,3.85-1,4.31s-3.38-2-2.55-3.61A4.35,4.35,0,0,1,179,192.1a4.56,4.56,0,0,1,2.4-4.81,3.5,3.5,0,0,1-3.18-2.79c0-.11,0-.22,0-.33C175.68,184.2,175,180.16,177.76,179.6Z"/><path class="cls-17" d="M171.88,128.6c2.48-1.74.88-5.11-1.43-5.43a2,2,0,0,0,.61-2,2.87,2.87,0,0,0,3.56.12,2.93,2.93,0,0,0,1.27-2l.36.3a9.12,9.12,0,0,0-.23.9,3.42,3.42,0,0,0-.59.32,3.48,3.48,0,0,0-.83,4.8,3.32,3.32,0,0,0,1.32,1.09c-1.39,1.66.77,4.43,2.79,3a2,2,0,0,0,.26-3.06,1.59,1.59,0,0,0,.29-.15,5.79,5.79,0,0,0,2.29.39,1,1,0,0,0,1.53.37s0-.06.06-.08a3.37,3.37,0,0,0,4.24.26,2.79,2.79,0,0,0,4.11,1,2.88,2.88,0,0,0,.09-4.65,5.71,5.71,0,0,0,.95-.49,1.48,1.48,0,0,0,.36,1.77,5.65,5.65,0,0,0,.49,1.07,5,5,0,0,0,6.9,1.2,1.56,1.56,0,0,0,.12-.11,2.37,2.37,0,0,0,3.18.32c2.12-1.49.74-4.37-1.25-4.62,0-.16-.09-.32-.11-.48a2.36,2.36,0,0,0,1.77-.42,2.3,2.3,0,0,0,.92-1.24A2.49,2.49,0,0,0,204,118a2,2,0,0,0-1.06-.54c2.14-1.51.82-4.31-1.13-4.65a3,3,0,0,0-1.42-2,4.92,4.92,0,0,0-3.62,1.67,2.39,2.39,0,0,0-.23.22s-.05.06-.09.08a2.09,2.09,0,0,0,0,.5,2.48,2.48,0,0,0-.13-.35,3.34,3.34,0,0,0-.6,1.19l-.48-.18c-.33-2.1-2.68-3.94-5-2.34a2.91,2.91,0,0,0-.66.65,3.36,3.36,0,0,0-4.5-.63,3.08,3.08,0,0,0-.89.91,3,3,0,0,0-3.76-.12,3.32,3.32,0,0,0-1.06,1.25,5.77,5.77,0,0,0-6.14.18,4.23,4.23,0,0,0-.61.51l0,.16a.28.28,0,0,0-.15,0A5.25,5.25,0,0,0,171,118a4.15,4.15,0,0,0-1.13-.36,2.88,2.88,0,0,0,.12,2,2,2,0,0,0-2.38,0,2.06,2.06,0,0,0-.91,1.56,1.65,1.65,0,0,0-2.5-.8,1.72,1.72,0,0,0,2,2.81,1.53,1.53,0,0,0,.67-1.06,2.43,2.43,0,0,0,1.55,1.5C165.33,126,168.75,130.8,171.88,128.6Z"/></svg>