<svg xmlns="http://www.w3.org/2000/svg" viewBox="0 0 370 330"><defs><style>.cls-1{fill:#a34f1e;}.cls-2{fill:#9f562f;}.cls-3{fill:#8b4620;}.cls-4{fill:#f2983f;}.cls-5{fill:#f5ae41;}.cls-6{fill:#de6e33;}.cls-7{fill:#f7c045;}.cls-8{fill:#f9d75c;}.cls-9{fill:#f28b3b;}</style></defs><g id="Layer_28" data-name="Layer 28"><path class="cls-1" d="M296.84,219.39c-1.6,1.54-3.6,2.52-5.34,3.88-3.56,2.79-6.53,6-8.17,10.31a10.45,10.45,0,0,1-4.58,5.19,1.76,1.76,0,0,0-1,1.43c-.21,1.42-1.36,2.27-2.44,3.1-.59.46-1.2.89-1.79,1.34a2,2,0,0,0-1.2.4,32,32,0,0,1-4.28,1.89,117.84,117.84,0,0,1-15.2,4.5,67.85,67.85,0,0,1-12.38,1.82c-1.14.05-2.44-.18-3.47.68-3.39,2.79-6.31,5.93-7.89,10.14a9,9,0,0,1-3.29,4.24c-1.14.79-2.43,1.45-2.52,3.11,0,.39-.43.64-.69.93a8.22,8.22,0,0,0-1.29,1.41c-8.06,4.78-17,6.91-26.05,8.88a70.41,70.41,0,0,1-18.39,1.1c-4-.2-8.08-.59-12.1-1.05-3.19-.36-6.23-1.45-9.34-2.2a36.84,36.84,0,0,0-6.65-1.44c-.19-.59-.78-.46-1.17-.56-5.54-1.39-11.1-2.71-16.63-4.11-5.88-1.5-10.46-4.58-12.6-10.55-.12-.35-.36-.46-.66-.62a20.34,20.34,0,0,1-6.47-5.6,35.53,35.53,0,0,1-5.41-10.46,1.9,1.9,0,0,0-1.49-1.44q-12.56-3.09-25.09-6.23c-5.47-1.38-10.08-3.95-12.45-9.41a4.45,4.45,0,0,0-2.17-2.44c-1.89-.93-3.16-2.62-4.71-4a40.28,40.28,0,0,1-7.41-15.51c-.07-.29,0-.68-.41-.79,0-.21.11-.41.16-.61.42-.43-.07-1.08.38-1.5A43.06,43.06,0,0,0,55,213.55c1.87,4.67,4.28,9,8.25,12.25A14.72,14.72,0,0,0,74.72,229a23.93,23.93,0,0,1,7.41-.14,12.9,12.9,0,0,1,8,4.4c3.29,4.13,7.78,5.49,12.76,5.86.76.06,1-.22,1-1,0-1.28-.33-2.53-.19-3.83.23-2.25.45-4.51.83-6.74.25-.81.52-1.61.74-2.42.51-2,1.41-3.77,2.05-5.68l1.65-3a41.79,41.79,0,0,1,11.07-13c5.78-4.48,12.38-7.38,19.22-9.79s13.73-4.43,20.66-6.42c2-.21,3.61-.92,4.31-3a1.11,1.11,0,0,1,.17-.27l2.61-4a3.45,3.45,0,0,0,1.29-1.65c.43-.06.65-.42.91-.69a51.42,51.42,0,0,1,5.08-4.71l.41-.22c.34,0,.86,0,.28.49-.81.73-1.71,1.36-2.48,2.12-1.26,1.26-2.82,2.25-3.58,4-.77.3-.53,1.41-1.34,1.68-.36-.19-.33.09-.36.31h0a18,18,0,0,0-3.22,4.9l0,.1.06-.08h.41c.22,0,.47,0,.65-.16a51.25,51.25,0,0,1,7.92-.53c1.59.14,3.18.31,4.75.6,3.6.68,7,1.92,10.6,2.77a147.55,147.55,0,0,0,15,2.94,52.16,52.16,0,0,1,6.81,2.13A60.24,60.24,0,0,1,216,197c4.63,2.88,8.91,6.11,12,10.71a118.21,118.21,0,0,0,8,10.37c2.17,2.63,4.32,5.26,6.51,7.87.51.61.81,1.42,1.59,1.79a2.34,2.34,0,0,0,.37,1,18.17,18.17,0,0,1,2.43,8.73c.05,1,.31,1.19,1.23,1.16a104.54,104.54,0,0,1,13,.44c4.12.41,8.22,1.16,12.39.62s7.42-2.42,9.07-6.35a25.76,25.76,0,0,1,8.09-10.4c2-1.56,4.21-2.77,6.12-4.43ZM126.47,200.32h0a3.25,3.25,0,0,0-1.64.7,43.75,43.75,0,0,0-7.15,5.31c-.88.81-2.05,1.45-2.33,2.79l-.42.42a1.25,1.25,0,0,0-1.08,1.28h0c-.46,0-.64.38-.88.7a45.51,45.51,0,0,0-5.76,10.07,36.71,36.71,0,0,0-2.77,12.09,34.82,34.82,0,0,0,2.61,14.79c1.9,4.76,4.33,9.21,8.46,12.49a14.21,14.21,0,0,0,10.26,3.11,36.83,36.83,0,0,1,7.19-.39,13.32,13.32,0,0,1,9.49,4.88,12.11,12.11,0,0,0,2,1.94c3.33,2.62,7.26,3.53,11.37,3.64a65.38,65.38,0,0,0,10-.8,102.53,102.53,0,0,0,10.59-1.75A90.37,90.37,0,0,1,193,269.07a88.12,88.12,0,0,1,12.79.44,94,94,0,0,0,12.43.81c4.65-.2,8.7-2.41,10.53-7.17a21.12,21.12,0,0,1,4.39-6.63,34.31,34.31,0,0,1,6.71-5.41,13.09,13.09,0,0,0,3.82-3.37,15.78,15.78,0,0,0,2.54-11.15,19.3,19.3,0,0,0-4.71-10.86c-3.36-3.9-6.66-7.86-9.84-11.91-.53-.68-.84-1.59-1.74-1.94l-1.31-1.9a1,1,0,0,0-.64-.86h0a19.56,19.56,0,0,0-3.48-4.65,43.56,43.56,0,0,0-10-7.5,35.38,35.38,0,0,0-11.28-4.35c-4.11-.73-8.24-1.39-12.3-2.37-3.21-.76-6.38-1.66-9.57-2.49a58.16,58.16,0,0,0-6.58-1.21,33.89,33.89,0,0,0-9.75.22,123.41,123.41,0,0,0-15.9,4.47c-7.23,2.36-14.46,4.72-21.24,8.25C127.25,199.63,126.69,199.71,126.47,200.32Zm120.31,41.55a14.6,14.6,0,0,1-2.61,6.39c-1.28,1.82-3.24,2.86-5.12,4.32a53.26,53.26,0,0,0,10.6-1.18,115.77,115.77,0,0,0,17-4.73,35,35,0,0,0,7.89-3.73,5.84,5.84,0,0,0,2.35-2.4c.08-.21.29-.47.1-.7s-.46,0-.68,0a17,17,0,0,1-3.66.67,56.55,56.55,0,0,1-9.47-.46,109.45,109.45,0,0,0-14.13-.81c-.64,0-1.37-.22-1.88.13s-.11,1.07-.26,1.62A7.58,7.58,0,0,0,246.78,241.87ZM119.37,264l-.17.22c.52,1,1,2,1.57,2.89,2.31,3.56,5.84,5.36,9.76,6.44q6.72,1.85,13.54,3.34c8.34,1.81,16.38,5,25,5.55,3.5.24,7,.58,10.51.73a69.46,69.46,0,0,0,16.31-1.33A118.21,118.21,0,0,0,213,277a33.06,33.06,0,0,0,8-4,5.58,5.58,0,0,0,1.7-2,.56.56,0,0,0,0-.61c-.14-.19-.34,0-.49,0-4,1.3-8.16.73-12.25.35-3-.27-6-.67-9-.77-2.7-.09-5.38-.23-8.09-.08a65.48,65.48,0,0,0-9.3,1c-7,1.38-13.94,2.94-21.06,3.61a38.43,38.43,0,0,1-11.13-.08c-3.53-.7-6.8-2.11-9.12-4.94a13.43,13.43,0,0,0-10.66-5.11c-1.79,0-3.54.32-5.31.41A15.63,15.63,0,0,1,119.37,264ZM105,244.87c-.29-1.35-.58-2.45-.76-3.57-.23-1.47-.29-1.54-1.81-1.58a18.09,18.09,0,0,1-10.51-3.62c-1.4-1-2.27-2.55-3.6-3.63a13.89,13.89,0,0,0-10.43-3.12c-3.34.28-6.69,1-10-.21-.2-.07-.42-.18-.58,0s0,.34,0,.5A14.5,14.5,0,0,0,71,234.74a20.48,20.48,0,0,0,8.7,4.12c6.85,1.71,13.74,3.27,20.56,5.11,1.34.36,2.69.68,4,1C104.6,245.06,105,245.22,105,244.87Z"/><path class="cls-2" d="M52.64,205.26c-.45.42,0,1.07-.38,1.5a32.47,32.47,0,0,1,1-17c3.8-11.88,11.38-20.55,22.45-26.24a119.42,119.42,0,0,1,20-7.66c5-1.55,10-3.17,15.19-4.36a36.19,36.19,0,0,1,18.9.63,164,164,0,0,0,20.52,4.61c7.19,1.2,13.32,4.67,19,9.06a26.61,26.61,0,0,1,5.7,5.76c.26.38.44.54.9.21,7.36-5.18,15.73-8.12,24.2-10.78,5.44-1.71,10.86-3.44,16.4-4.8a36.46,36.46,0,0,1,19.63.45,154.55,154.55,0,0,0,20.42,4.59c5.89.94,11.09,3.53,16,6.8A37.35,37.35,0,0,1,282.77,178c4.27,6.16,9.25,11.77,14,17.55,4.42,5.36,5.42,11.47,3.72,18.09a12.89,12.89,0,0,1-3.25,5.57l-.4.23v-.85a15,15,0,0,0,1.18-1.37c2.34-3.42,2.74-7.27,2.41-11.25-.39-4.8-2.79-8.62-5.93-12.11-2.64-2.93-5.07-6-7.54-9.11a8.4,8.4,0,0,0-2.3-2.56h0c0-.31,0-.61-.44-.65-.29-.35-.28-.92-.83-1.07,0-.3,0-.61-.45-.64l-.2-.21c0-.44-.12-.81-.65-.86h0a1.19,1.19,0,0,0-.26-.79,33.33,33.33,0,0,0-3-3.85,42.36,42.36,0,0,0-8.65-6.72c-4.08-2.44-8.33-4.53-13.08-5.3a167.39,167.39,0,0,1-20.55-4.54c-.3-.08-.59-.33-.89,0a18,18,0,0,0-4.29-1.1,36.63,36.63,0,0,0-14.78.44c-7,1.74-13.76,4.1-20.56,6.38a76.51,76.51,0,0,0-16.74,7.59c-.42.27-.81.74-1.42.6,0-.13,0-.27-.2-.28a.18.18,0,0,0-.12.12c0,.17.15.18.28.2-.24.75-1,.95-1.52,1.39-1.1.92-2.44,1.58-3.19,2.88-.29.26-.62.45-.92.69a25.44,25.44,0,0,1-3.31,2.91c.76-1.71,2.32-2.7,3.58-4,.77-.76,1.67-1.39,2.48-2.12.58-.51.06-.47-.28-.49-.18-1.27-1.16-2-1.93-2.85a42.55,42.55,0,0,0-9.93-7.67,36,36,0,0,0-11.86-4.65c-4.19-.74-8.39-1.43-12.53-2.41-3.21-.76-6.38-1.66-9.57-2.5-1.86-.46-3.76-.71-5.65-1a33.82,33.82,0,0,0-13,.64c-7.46,1.81-14.66,4.48-22,6.78-.44,0-.91,0-1.14.55-1.59.56-3.24,1-4.77,1.73a52.56,52.56,0,0,0-5.24,2.38c-.79.3-1.67.45-2.16,1.26h0a2.23,2.23,0,0,0-1.7.87h0a2.34,2.34,0,0,0-1,.48,42.42,42.42,0,0,0-6.77,5.15c-.85.79-2,1.41-2.25,2.72l-.41.42a.94.94,0,0,0-.88,1.06l-.2.21c-.46,0-.64.38-.88.7a48.2,48.2,0,0,0-5.25,9,37.34,37.34,0,0,0-3.25,14.44C52.22,201.8,52.51,203.53,52.64,205.26Zm123.19-32.8-.18-.07c0,.06-.08.13-.06.17a.16.16,0,0,0,.16.07C175.8,172.62,175.81,172.52,175.83,172.46Zm.65-.43c-.06,0-.14-.08-.18-.06a.16.16,0,0,0-.07.16.15.15,0,0,0,.16.07C176.44,172.19,176.45,172.09,176.48,172Z"/><path class="cls-3" d="M70.07,273.34l.35.21A.24.24,0,0,1,70.07,273.34Z"/><path class="cls-3" d="M70.4,273.54a.37.37,0,0,1,.44.23C70.6,273.88,70.46,273.79,70.4,273.54Z"/><path class="cls-3" d="M70.83,273.75c.13,0,.23.06.22.22C70.92,274,70.74,274,70.83,273.75Z"/><path class="cls-3" d="M262.6,276.7l.24-.17Z"/><path class="cls-4" d="M228.56,210c.44.63.88,1.26,1.31,1.9.43,1.2,1.35,2.16,1.72,3.4s.13,1.58-1.15,1.54a4.61,4.61,0,0,1-.83-.12,54,54,0,0,1-12-4.86,14.57,14.57,0,0,0-2.47-1.22,3.89,3.89,0,0,0,1,1.51c1.75,1.83,3.56,3.59,5.29,5.44,2.69,2.88,5.54,5.63,8.15,8.6a50.23,50.23,0,0,1,5.55,7.14c1.58,2.66,2.22,4.06-1.57,5.8a22,22,0,0,0-7.65,6.19,70.91,70.91,0,0,0-4,6,11.6,11.6,0,0,1-8,4.88,82,82,0,0,1-10.49.78c-3.19.17-6.38.33-9.56.67a63.37,63.37,0,0,0-12.05,2.49c-4.16,1.31-8.21,3-12.63,3.37a34.37,34.37,0,0,1-10.81-.46c-4.86-1.17-9.7-2.4-14.6-3.4-4.65-.94-9.34-1.73-14-2.76a64.51,64.51,0,0,1-18-7.08,12,12,0,0,1-5.69-6.4c-1.19-3.31-.89-6.74-.86-10.14a.62.62,0,0,1,.52.31,14.86,14.86,0,0,0,3.8,4.4,8.33,8.33,0,0,0,5.52,1.89,15.08,15.08,0,0,0,4.71-1.25c1.36-.51,2.7-1.2,4.2-1,2.44.3,3.68,1.9,4.31,4.13.57,2,.8,4,1.48,6a5,5,0,0,0,6.72,3.21c2.51-.91,4.76-2.38,7.25-3.35,4.5-1.77,8.79-.82,11.75,3a14.32,14.32,0,0,0,8.78,5.58,19.17,19.17,0,0,0,10.89-.63,10.69,10.69,0,0,0,6.68-6.29,26.57,26.57,0,0,0,1-6,7.82,7.82,0,0,1,6.06-6.77,24.72,24.72,0,0,1,7.63.07,24,24,0,0,0,8.24-.08A18.24,18.24,0,0,0,215.84,229a3.85,3.85,0,0,0-1.34-5.76,26.5,26.5,0,0,0-4.15-1.93c-3-1.19-6.14-2.21-8.91-4-3.06-2-4.66-5.78-3.11-9a5,5,0,0,0,.47-2.81,10,10,0,0,0-2.74-5.64c-3.14-3.33-7.16-5.19-11.35-6.71a59.8,59.8,0,0,0-12-2.9c-3-.43-6-.63-9-.77-1.06,0-2.12.16-3.19.18a23.42,23.42,0,0,0-6.16,1c-3.33,1-6.62,2.11-9.91,3.21A112.71,112.71,0,0,0,130,199.49a27.12,27.12,0,0,0-5.48,3.21l-4.94,3a1.2,1.2,0,0,1,.59-.85c1-.74,2-1.45,3-2.21a31,31,0,0,0,3.28-2.29h0c.54-.11,1.1-.19,1.31-.83,6.78-3.53,14-5.89,21.24-8.25a123.41,123.41,0,0,1,15.9-4.47,33.89,33.89,0,0,1,9.75-.22,58.16,58.16,0,0,1,6.58,1.21c.05.34.33.44.59.54a71.7,71.7,0,0,0,8.69,2.84,92.9,92.9,0,0,0,12.41,2.2,29.35,29.35,0,0,1,12.7,4.89,55.36,55.36,0,0,1,11,9.86c.36.41.66.95,1.3,1h0C227.9,209.58,228,209.94,228.56,210Z"/><path class="cls-5" d="M159.86,187.27c-6.93,2-13.86,4-20.66,6.42S125.76,199,120,203.48a41.79,41.79,0,0,0-11.07,13l-1.65,3a28.85,28.85,0,0,1-4.33-4.23,8.6,8.6,0,0,0-7.5-3.52,14,14,0,0,0-5.2,1.41c-2.12,1-4.1,2.27-6.39,2.91-2.46.7-4.31.1-5.67-2.05A14.46,14.46,0,0,1,76.62,209a14.66,14.66,0,0,0-1.15-3.75,4.48,4.48,0,0,0-5.62-2.41c-1.52.48-3,1.06-4.54,1.55a8.26,8.26,0,0,1-4.19.28c-3.32-.67-5.43-2.89-7.22-5.53-.22-.32-.31-.75-.8-.76a13.67,13.67,0,0,1,0-1.92,40.53,40.53,0,0,1,4.7-14.28c.4-.71.65-1.59,1.47-2a4.14,4.14,0,0,1-.1,1.16,13,13,0,0,0,1.29,9.49c1.56,2.71,3.48,3.43,6.3,1.73a16.4,16.4,0,0,1,2.29-1.16,5.36,5.36,0,0,1,6.33,1.34,22.62,22.62,0,0,1,1.94,2.53c1.43,1.94,2.73,4,4.68,5.49a19.38,19.38,0,0,0,9.76,3.9,16.87,16.87,0,0,0,8.88-1c2-.85,3.75-2.42,3-5.05a10.41,10.41,0,0,1-.48-3.78,28.32,28.32,0,0,1,1.77-8.49,9.86,9.86,0,0,1,3.77-4.65,16.38,16.38,0,0,1,8.13-2.11,51.66,51.66,0,0,1,8,.4,4.1,4.1,0,0,0,1.78-.3c.53-.19.68-.57.18-1.05a7.56,7.56,0,0,0-1.46-1.06c-2.6-1.55-5.24-3-7.77-4.67a67.68,67.68,0,0,1-6.49-5,19.92,19.92,0,0,0-13.27-4.36c-2.9,0-5.8.29-8.7.54s-5.77.6-8.63,1.1a53.15,53.15,0,0,0-7.23,2.15c0-.3.22-.41.44-.54a79.73,79.73,0,0,1,16-7.11c3.27-1.14,6.59-2.17,9.88-3.27a31.16,31.16,0,0,1,8.59-1.87,64.31,64.31,0,0,1,8.21.13,69.34,69.34,0,0,1,10,1.55c5.66,1.36,11.14,3.18,15.79,6.84,3.56,2.81,5.71,6.33,3.83,11.25-1.06,2.76.19,5.09,2.12,6.89,2.33,2.18,5.34,3.3,8.33,4.36C157.58,186,158.91,186.26,159.86,187.27Z"/><path class="cls-5" d="M236,218.12a118.21,118.21,0,0,1-8-10.37c-3.13-4.6-7.41-7.83-12-10.71a60.24,60.24,0,0,0-5.85-3.07,1.75,1.75,0,0,0,.51-1c.8-2.63,1.88-5.12,4.32-6.64,3.45-2.14,7.31-2.31,11.21-2.15,2,.08,4,.4,6,.31.39,0,.91,0,1.05-.55s-.16-.87-.6-1.13c-1.92-1.14-3.82-2.31-5.75-3.44a54.63,54.63,0,0,1-7.74-5.43,25.93,25.93,0,0,0-5.38-3.78c-4.62-2.25-9.54-2.19-14.47-1.86-2.68.18-5.35.53-8,.81a44.57,44.57,0,0,0-8,1.52c-1.32.39-2.52,1.17-3.93,1.26.12-.13.21-.3.35-.38a72.21,72.21,0,0,1,13-6c3.82-1.32,7.63-2.66,11.46-4A40.11,40.11,0,0,1,215,159.05a61.23,61.23,0,0,1,13.79.91,54.39,54.39,0,0,1,14.4,4.44c3.11,1.52,6.06,3.3,8.11,6.19a7.33,7.33,0,0,1,1.14,7.43c-1.62,4,.74,7.23,3.48,9a36.29,36.29,0,0,0,7.95,3.53,18.72,18.72,0,0,1,4.91,2.32A4.92,4.92,0,0,1,270.7,195a4.12,4.12,0,0,1-1,4.26,19.5,19.5,0,0,1-9.56,6.47c-4.12,1.19-8.24.42-12.35.05a12.77,12.77,0,0,0-5.47.46c-3.52,1.26-5,4-5.43,7.57C236.72,215.25,236.82,216.78,236,218.12Z"/><path class="cls-4" d="M236,218.12c.78-1.34.68-2.87.84-4.32.4-3.58,1.91-6.31,5.43-7.57a12.77,12.77,0,0,1,5.47-.46c4.11.37,8.23,1.14,12.35-.05a19.5,19.5,0,0,0,9.56-6.47,4.12,4.12,0,0,0,1-4.26,4.92,4.92,0,0,0-1.89-2.12,18.72,18.72,0,0,0-4.91-2.32A36.29,36.29,0,0,1,256,187c-2.74-1.77-5.1-5-3.48-9a7.33,7.33,0,0,0-1.14-7.43c-2.05-2.89-5-4.67-8.11-6.19a54.39,54.39,0,0,0-14.4-4.44,61.23,61.23,0,0,0-13.79-.91,40.11,40.11,0,0,0-10.85,2.46c-3.83,1.29-7.64,2.63-11.46,4a72.21,72.21,0,0,0-13,6c-.14.08-.23.25-.35.38h0a.4.4,0,0,0-.44.42,6.68,6.68,0,0,0-1.88,1c-1.37.74-2.51,1.83-3.94,2.45.75-1.3,2.09-2,3.19-2.88.53-.44,1.28-.64,1.52-1.39l0,0c.61.14,1-.33,1.42-.6A76.51,76.51,0,0,1,196,163.21c6.8-2.28,13.58-4.64,20.56-6.38a36.63,36.63,0,0,1,14.78-.44,18,18,0,0,1,4.29,1.1c.13.32.47.3.72.4,2.05.79,4.11,1.56,6.23,2.16a67.62,67.62,0,0,0,12.88,2.6,30.78,30.78,0,0,1,13.94,4.79,54.56,54.56,0,0,1,9.67,8.14,32,32,0,0,0,3,3.14h0a.89.89,0,0,0,.65.86l.2.21a.57.57,0,0,0,.45.64c.55.15.54.72.83,1.07a.59.59,0,0,0,.44.65h0c.36.76.75,1.51,1.09,2.28a1.6,1.6,0,0,1,0,1.71c-.4.48-1,.32-1.6.17a49.9,49.9,0,0,1-11-4.34,23.37,23.37,0,0,0-3.64-1.74l-.1,0,.09,0a1.09,1.09,0,0,0,.32.65c1.89,2.42,4.22,4.43,6.32,6.65,3.54,3.74,7.17,7.4,10.44,11.39a25.32,25.32,0,0,1,3.68,5.58c.88,2,0,2.8-1.34,3.57-.37.21-.75.39-1.14.57a22.39,22.39,0,0,0-5.86,4.21,27.35,27.35,0,0,0-4.83,6.59,11.87,11.87,0,0,1-8.24,6.17,56,56,0,0,1-8.46.79c-3,.17-5.95.25-8.92.45a57.11,57.11,0,0,0-7.27.93c-.78-.37-1.08-1.18-1.59-1.79C240.36,223.38,238.21,220.75,236,218.12Z"/><path class="cls-6" d="M105.13,233.29c0,3.4-.33,6.83.86,10.14a12,12,0,0,0,5.69,6.4,64.51,64.51,0,0,0,18,7.08c4.63,1,9.32,1.82,14,2.76,4.9,1,9.74,2.23,14.6,3.4a34.37,34.37,0,0,0,10.81.46c4.42-.35,8.47-2.06,12.63-3.37a63.37,63.37,0,0,1,12.05-2.49c3.18-.34,6.37-.5,9.56-.67a82,82,0,0,0,10.49-.78,11.6,11.6,0,0,0,8-4.88,70.91,70.91,0,0,1,4-6,22,22,0,0,1,7.65-6.19c3.79-1.74,3.15-3.14,1.57-5.8a50.23,50.23,0,0,0-5.55-7.14c-2.61-3-5.46-5.72-8.15-8.6-1.73-1.85-3.54-3.61-5.29-5.44a3.89,3.89,0,0,1-1-1.51,14.57,14.57,0,0,1,2.47,1.22,54,54,0,0,0,12,4.86,4.61,4.61,0,0,0,.83.12c1.28,0,1.51-.31,1.15-1.54s-1.29-2.2-1.72-3.4c.9.35,1.21,1.26,1.74,1.94,3.18,4.05,6.48,8,9.84,11.91a19.3,19.3,0,0,1,4.71,10.86,15.78,15.78,0,0,1-2.54,11.15,13.09,13.09,0,0,1-3.82,3.37,34.31,34.31,0,0,0-6.71,5.41,21.12,21.12,0,0,0-4.39,6.63c-1.83,4.76-5.88,7-10.53,7.17a94,94,0,0,1-12.43-.81,88.12,88.12,0,0,0-12.79-.44,90.37,90.37,0,0,0-16.59,2.52,102.53,102.53,0,0,1-10.59,1.75,65.38,65.38,0,0,1-10,.8c-4.11-.11-8-1-11.37-3.64a12.11,12.11,0,0,1-2-1.94,13.32,13.32,0,0,0-9.49-4.88,36.83,36.83,0,0,0-7.19.39A14.21,14.21,0,0,1,115.51,261c-4.13-3.28-6.56-7.73-8.46-12.49a34.82,34.82,0,0,1-2.61-14.79,36.71,36.71,0,0,1,2.77-12.09A45.51,45.51,0,0,1,113,211.52c.24-.32.42-.68.88-.7,0,.27-.16.44-.31.64a34.9,34.9,0,0,0-2.23,3.65c-.13.12-.31.21-.39.35a41.07,41.07,0,0,0-4.45,10A29.68,29.68,0,0,0,105.13,233.29Z"/><path class="cls-7" d="M111.31,215.11a34.9,34.9,0,0,1,2.23-3.65c.15-.2.33-.37.31-.64h0a2.06,2.06,0,0,0,1.08-1.28l.42-.42c.82-.2,1.15-1,1.77-1.43.87-.63,1.36-1.73,2.5-2l4.94-3a1.66,1.66,0,0,0,.82-.2,32.63,32.63,0,0,1,9.07-2.61c2.84-.41,5.69-.66,8.56-.86a56.07,56.07,0,0,1,9.87-.22,19.45,19.45,0,0,1,11,4.8,69.2,69.2,0,0,0,11.68,7.93c1,.57,2,1.21,3,1.85.31.21.65.51.53,1s-.55.52-.95.53a36.24,36.24,0,0,1-4.17,0,29.69,29.69,0,0,0-9.22.28,9.25,9.25,0,0,0-5.85,3.25c-3.31,4.53-4.11,9.66-3.2,15.09a4.44,4.44,0,0,1-2.81,5.19,17.77,17.77,0,0,1-10.54.79,17.52,17.52,0,0,1-10.19-5.55c-1.45-1.69-2.65-3.59-4-5.37a5.62,5.62,0,0,0-4.88-2.55,9,9,0,0,0-4.43,1.62c-2,1.24-3.8,1.16-5.35-.58-2.32-2.61-2.74-5.81-2.53-9.16C111,216.94,111.62,216.08,111.31,215.11ZM129,219.83a42.1,42.1,0,0,0,6.43-.76,1.48,1.48,0,0,1,1.44.39c.32.41-.05.88-.26,1.27a6.37,6.37,0,0,1-.7.94c-1.4,1.71-3,3.2-4.56,4.79a7.14,7.14,0,0,0-1,1.38c-.35.61-.26,1.08.58,1.2a6,6,0,0,0,2.5-.22,61.67,61.67,0,0,0,15.3-6.67c3.83-2.3,4.87-5,3.36-9.25a13,13,0,0,0-7.49-7.89c-2.66-1.1-5.28-1.27-7.82.46a14.23,14.23,0,0,1-10.48,2.2,8,8,0,0,0-2.73-.18,6.21,6.21,0,0,0-4.6,3.75c-1.34,3-.72,5.34,2.31,6.84A18.2,18.2,0,0,0,129,219.83Z"/><path class="cls-6" d="M244.14,227.78a57.11,57.11,0,0,1,7.27-.93c3-.2,6-.28,8.92-.45a56,56,0,0,0,8.46-.79,11.87,11.87,0,0,0,8.24-6.17,27.35,27.35,0,0,1,4.83-6.59,22.39,22.39,0,0,1,5.86-4.21c.39-.18.77-.36,1.14-.57,1.36-.77,2.22-1.61,1.34-3.57a25.32,25.32,0,0,0-3.68-5.58c-3.27-4-6.9-7.65-10.44-11.39-2.1-2.22-4.43-4.23-6.32-6.65a1.09,1.09,0,0,1-.32-.65h0a23.37,23.37,0,0,1,3.64,1.74,49.9,49.9,0,0,0,11,4.34c.58.15,1.2.31,1.6-.17a1.6,1.6,0,0,0,0-1.71c-.34-.77-.73-1.52-1.09-2.28a8.4,8.4,0,0,1,2.3,2.56c2.47,3.08,4.9,6.18,7.54,9.11,3.14,3.49,5.54,7.31,5.93,12.11.33,4-.07,7.83-2.41,11.25a15,15,0,0,1-1.18,1.37c-1.91,1.66-4.14,2.87-6.12,4.43a25.76,25.76,0,0,0-8.09,10.4c-1.65,3.93-4.95,5.81-9.07,6.35s-8.27-.21-12.39-.62a104.54,104.54,0,0,0-13-.44c-.92,0-1.18-.2-1.23-1.16a18.17,18.17,0,0,0-2.43-8.73A2.34,2.34,0,0,1,244.14,227.78Z"/><path class="cls-4" d="M159.86,187.27c-1-1-2.28-1.23-3.49-1.66-3-1.06-6-2.18-8.33-4.36-1.93-1.8-3.18-4.13-2.12-6.89,1.88-4.92-.27-8.44-3.83-11.25-4.65-3.66-10.13-5.48-15.79-6.84a69.34,69.34,0,0,0-10-1.55,64.31,64.31,0,0,0-8.21-.13,31.16,31.16,0,0,0-8.59,1.87c-3.29,1.1-6.61,2.13-9.88,3.27a79.73,79.73,0,0,0-16,7.11c-.22.13-.44.24-.44.54a12.72,12.72,0,0,0-2.41,1.3c-1,.67-2.11,1.27-3.17,1.9.47-1.18,1.71-1.52,2.54-2.31s2.29-1.25,3-2.38h0a2.09,2.09,0,0,0,1.7-.87h0c.8-.29,1.67-.44,2.16-1.27a52.56,52.56,0,0,1,5.24-2.38c1.53-.7,3.18-1.17,4.77-1.73.45,0,.92,0,1.14-.55,7.31-2.3,14.51-5,22-6.78a33.82,33.82,0,0,1,13-.64c1.89.28,3.79.53,5.65,1,.07.38.4.47.7.58a87.92,87.92,0,0,0,10,3.2,70.94,70.94,0,0,0,8.57,1.56,37.47,37.47,0,0,1,7.39,1.39c7.57,2.41,13.25,7.46,18.52,13.09a1.48,1.48,0,0,1,.2.48,51.42,51.42,0,0,0-5.08,4.71c-.26.27-.48.63-.91.69a53.5,53.5,0,0,0-5.26-2.74,19.15,19.15,0,0,0,4,4.39l-2.61,4a1.11,1.11,0,0,0-.17.27C163.47,186.35,161.84,187.06,159.86,187.27Z"/><path class="cls-4" d="M53.1,198.41c.49,0,.58.44.8.76,1.79,2.64,3.9,4.86,7.22,5.53a8.26,8.26,0,0,0,4.19-.28c1.52-.49,3-1.07,4.54-1.55a4.48,4.48,0,0,1,5.62,2.41A14.66,14.66,0,0,1,76.62,209,14.46,14.46,0,0,0,78.17,214c1.36,2.15,3.21,2.75,5.67,2.05,2.29-.64,4.27-1.93,6.39-2.91a14,14,0,0,1,5.2-1.41,8.6,8.6,0,0,1,7.5,3.52,28.85,28.85,0,0,0,4.33,4.23c-.64,1.91-1.54,3.72-2.05,5.68-.22.81-.49,1.61-.74,2.42a5.2,5.2,0,0,1-1.46-.25c-4-1.13-8-1.9-12-2.75-4.3-.9-8.64-1.6-12.93-2.53a68.76,68.76,0,0,1-17.78-6.76c-3.5-1.86-6.11-4.53-6.91-8.59A38.68,38.68,0,0,1,53.1,198.41Z"/><path class="cls-7" d="M173.09,175.71c1.43-.62,2.57-1.71,3.94-2.45a6.68,6.68,0,0,1,1.88-1,.39.39,0,0,0,.44-.42h0c1.41-.09,2.61-.87,3.93-1.26a44.57,44.57,0,0,1,8-1.52c2.67-.28,5.34-.63,8-.81,4.93-.33,9.85-.39,14.47,1.86a25.93,25.93,0,0,1,5.38,3.78,54.63,54.63,0,0,0,7.74,5.43c1.93,1.13,3.83,2.3,5.75,3.44.44.26.74.61.6,1.13s-.66.54-1.05.55c-2,.09-4-.23-6-.31-3.9-.16-7.76,0-11.21,2.15-2.44,1.52-3.52,4-4.32,6.64a1.75,1.75,0,0,1-.51,1,52.16,52.16,0,0,0-6.81-2.13c0-.43.32-.58.6-.8,3.13-2.54,3.68-5.06,2.54-8.29a13.24,13.24,0,0,0-6.12-7.49c-3-1.66-6.13-2.36-9.35-.23a14.49,14.49,0,0,1-11,2.05,5.54,5.54,0,0,0-6,2.36c-1.3,1.9-2,3.84-1.07,6.09a51.25,51.25,0,0,0-7.92.53c0-.25,0-.49,0-.73l.4-.63c.59,0,.64-.46.65-.91.27-.87,1.15-1.47,1.11-2.48h0c.21,0,.36-.07.36-.31.81-.27.57-1.38,1.34-1.68a25.44,25.44,0,0,0,3.31-2.91C172.47,176.16,172.8,176,173.09,175.71Z"/><path class="cls-6" d="M119.37,264a15.63,15.63,0,0,0,6.94.78c1.77-.09,3.52-.45,5.31-.41a13.43,13.43,0,0,1,10.66,5.11c2.32,2.83,5.59,4.24,9.12,4.94a38.43,38.43,0,0,0,11.13.08c7.12-.67,14.07-2.23,21.06-3.61a65.48,65.48,0,0,1,9.3-1c2.71-.15,5.39,0,8.09.08,3,.1,6,.5,9,.77,4.09.38,8.2.95,12.25-.35.15-.05.35-.2.49,0a.56.56,0,0,1,0,.61,5.58,5.58,0,0,1-1.7,2,33.06,33.06,0,0,1-8,4,118.21,118.21,0,0,1-17.11,4.84,69.46,69.46,0,0,1-16.31,1.33c-3.51-.15-7-.49-10.51-.73-8.63-.58-16.67-3.74-25-5.55q-6.81-1.48-13.54-3.34c-3.92-1.08-7.45-2.88-9.76-6.44-.59-.92-1-1.92-1.57-2.89ZM178.2,281a23.86,23.86,0,0,0,4.47-.6,58.74,58.74,0,0,1,12.38-1.82c1.63-.05,3.28,0,4.9-.2a52.8,52.8,0,0,0,9.56-1.94,20.05,20.05,0,0,0,5.21-2.13c.24-.15.53-.31.5-.64s-.38-.4-.65-.44a19.63,19.63,0,0,0-2.62-.36c-3.34-.09-6.67-.22-10-.44-2.27-.14-4.54,0-6.82-.18a45.7,45.7,0,0,0-10,.66c-3.71.52-7.4,1.2-11.08,1.88a66,66,0,0,0-8.11,1.71c-.34.11-.77.18-.85.55a.88.88,0,0,0,.56.94,20,20,0,0,0,1.87,1A32.85,32.85,0,0,0,178.2,281Z"/><path class="cls-6" d="M53.1,198.41a38.68,38.68,0,0,0,.27,8.26c.8,4.06,3.41,6.73,6.91,8.59A68.76,68.76,0,0,0,78.06,222c4.29.93,8.63,1.63,12.93,2.53,4,.85,8.06,1.62,12,2.75a5.2,5.2,0,0,0,1.46.25c-.38,2.23-.6,4.49-.83,6.74-.14,1.3.22,2.55.19,3.83,0,.74-.22,1-1,1-5-.37-9.47-1.73-12.76-5.86a12.9,12.9,0,0,0-8-4.4,23.93,23.93,0,0,0-7.41.14,14.72,14.72,0,0,1-11.5-3.16c-4-3.27-6.38-7.58-8.25-12.25a43.06,43.06,0,0,1-2.33-8.29c-.13-1.73-.42-3.46-.38-5.19a37.34,37.34,0,0,1,3.25-14.44,48.2,48.2,0,0,1,5.25-9c.24-.32.42-.67.88-.7l-2.37,4.27c-.82.42-1.07,1.3-1.47,2a40.53,40.53,0,0,0-4.7,14.28A13.67,13.67,0,0,0,53.1,198.41Z"/><path class="cls-8" d="M172.93,185.53c-.89-2.25-.23-4.19,1.07-6.09a5.54,5.54,0,0,1,6-2.36A14.49,14.49,0,0,0,191,175c3.22-2.13,6.32-1.43,9.35.23a13.24,13.24,0,0,1,6.12,7.49c1.14,3.23.59,5.75-2.54,8.29-.28.22-.61.37-.6.8a147.55,147.55,0,0,1-15-2.94c-3.55-.85-7-2.09-10.6-2.77C176.11,185.84,174.52,185.67,172.93,185.53Z"/><path class="cls-6" d="M105,244.87c0,.35-.4.19-.73.11-1.34-.33-2.69-.65-4-1-6.82-1.84-13.71-3.4-20.56-5.11a20.48,20.48,0,0,1-8.7-4.12,14.5,14.5,0,0,1-3.65-5.07c-.08-.16-.16-.35,0-.5s.38-.1.58,0c3.32,1.18,6.67.49,10,.21a13.89,13.89,0,0,1,10.43,3.12c1.33,1.08,2.2,2.6,3.6,3.63a18.09,18.09,0,0,0,10.51,3.62c1.52,0,1.58.11,1.81,1.58C104.42,242.42,104.71,243.52,105,244.87Z"/><path class="cls-6" d="M246.78,241.87a7.58,7.58,0,0,1,.15-.83c.15-.55-.24-1.28.26-1.62s1.24-.11,1.88-.13a109.45,109.45,0,0,1,14.13.81,56.55,56.55,0,0,0,9.47.46,17,17,0,0,0,3.66-.67c.22-.07.47-.29.68,0s0,.49-.1.7a5.84,5.84,0,0,1-2.35,2.4,35,35,0,0,1-7.89,3.73,115.77,115.77,0,0,1-17,4.73,53.26,53.26,0,0,1-10.6,1.18c1.88-1.46,3.84-2.5,5.12-4.32.32.36.72.23,1.1.19a32.76,32.76,0,0,1,3.8-.36,45.91,45.91,0,0,0,12.62-1.55,29.14,29.14,0,0,0,7-2.49c.34-.2.75-.39.7-.84s-.53-.44-.91-.51a59.16,59.16,0,0,0-8.91-.56C255.32,242,251.06,241.69,246.78,241.87Z"/><path class="cls-9" d="M246.78,241.87c4.28-.18,8.54.14,12.8.27a59.16,59.16,0,0,1,8.91.56c.38.07.86,0,.91.51s-.36.64-.7.84a29.14,29.14,0,0,1-7,2.49,45.91,45.91,0,0,1-12.62,1.55,32.76,32.76,0,0,0-3.8.36c-.38,0-.78.17-1.1-.19A14.6,14.6,0,0,0,246.78,241.87Z"/><path class="cls-6" d="M227.92,209.12c-.64-.08-.94-.62-1.3-1a55.36,55.36,0,0,0-11-9.86,29.35,29.35,0,0,0-12.7-4.89,92.9,92.9,0,0,1-12.41-2.2,71.7,71.7,0,0,1-8.69-2.84c-.26-.1-.54-.2-.59-.54,3.19.83,6.36,1.73,9.57,2.49,4.06,1,8.19,1.64,12.3,2.37A35.38,35.38,0,0,1,214.4,197a43.56,43.56,0,0,1,10,7.5A19.56,19.56,0,0,1,227.92,209.12Z"/><path class="cls-6" d="M174.23,173a1.48,1.48,0,0,0-.2-.48c-5.27-5.63-10.95-10.68-18.52-13.09a37.47,37.47,0,0,0-7.39-1.39,70.94,70.94,0,0,1-8.57-1.56,87.92,87.92,0,0,1-10-3.2c-.3-.11-.63-.2-.7-.58,3.19.84,6.36,1.74,9.57,2.5,4.14,1,8.34,1.67,12.53,2.41a36,36,0,0,1,11.86,4.65,42.55,42.55,0,0,1,9.93,7.67c.77.83,1.75,1.58,1.93,2.85Z"/><path class="cls-6" d="M167,180a19.15,19.15,0,0,1-4-4.39,53.5,53.5,0,0,1,5.26,2.74A3.45,3.45,0,0,1,167,180Z"/><path class="cls-6" d="M119.62,205.67c-1.14.29-1.63,1.39-2.5,2-.62.44-1,1.23-1.77,1.43.28-1.34,1.45-2,2.33-2.79a43.75,43.75,0,0,1,7.15-5.31,3.25,3.25,0,0,1,1.64-.7,31,31,0,0,1-3.28,2.29c-1,.76-2,1.47-3,2.21A1.2,1.2,0,0,0,119.62,205.67Z"/><path class="cls-2" d="M165.39,184.7c-.13.21-.26.42-.4.63-.37.18-.47.55-.63.89H164l0,0a18,18,0,0,1,3.22-4.9c0,1-.84,1.61-1.11,2.48C165.6,183.94,165.48,184.31,165.39,184.7Z"/><path class="cls-6" d="M114.93,209.54a2.06,2.06,0,0,1-1.08,1.28A1.25,1.25,0,0,1,114.93,209.54Z"/><path class="cls-6" d="M127.78,199.49c-.21.64-.77.72-1.31.83C126.69,199.71,127.25,199.63,127.78,199.49Z"/><path class="cls-4" d="M164.36,186.22c.16-.34.26-.71.63-.89,0,.24,0,.48,0,.73C164.83,186.26,164.58,186.19,164.36,186.22Z"/><path class="cls-6" d="M228.56,210c-.54,0-.66-.4-.64-.86A1,1,0,0,1,228.56,210Z"/><path class="cls-2" d="M167.52,181c0,.24-.15.3-.36.31C167.19,181.08,167.16,180.8,167.52,181Z"/><path class="cls-2" d="M164,186.23l-.06.08,0-.1Z"/><path class="cls-7" d="M59.27,180.2l2.37-4.27.2-.21a1.52,1.52,0,0,0,.88-1.06l.41-.42c.7-.59,1.38-1.22,2.12-1.77s1.27-1.65,2.37-1.89c1.06-.63,2.14-1.23,3.17-1.9a12.72,12.72,0,0,1,2.41-1.3,53.15,53.15,0,0,1,7.23-2.15c2.86-.5,5.74-.84,8.63-1.1s5.8-.54,8.7-.54A19.92,19.92,0,0,1,111,168a67.68,67.68,0,0,0,6.49,5c2.53,1.64,5.17,3.12,7.77,4.67a7.56,7.56,0,0,1,1.46,1.06c.5.48.35.86-.18,1.05a4.1,4.1,0,0,1-1.78.3,51.66,51.66,0,0,0-8-.4,16.38,16.38,0,0,0-8.13,2.11,9.86,9.86,0,0,0-3.77,4.65,28.32,28.32,0,0,0-1.77,8.49,10.41,10.41,0,0,0,.48,3.78c.75,2.63-1,4.2-3,5.05a16.87,16.87,0,0,1-8.88,1,19.38,19.38,0,0,1-9.76-3.9c-2-1.49-3.25-3.55-4.68-5.49a22.62,22.62,0,0,0-1.94-2.53,5.36,5.36,0,0,0-6.33-1.34,16.4,16.4,0,0,0-2.29,1.16c-2.82,1.7-4.74,1-6.3-1.73a13,13,0,0,1-1.29-9.49A4.14,4.14,0,0,0,59.27,180.2Zm41.32.55a6.4,6.4,0,0,0-.11-.95,13.64,13.64,0,0,0-7.27-9.44c-3-1.52-6-1.68-9,.34a13.33,13.33,0,0,1-10,2c-3.33-.58-5.5.31-7.2,3.18-1.49,2.5-.92,5.59,1.36,6.85a16.36,16.36,0,0,0,7.52,2,27,27,0,0,0,6.77-.58c.63-.14,1.56-.43,2,.28s-.2,1.46-.69,2.08c-.06.08-.15.15-.22.23-1.47,1.88-3.37,3.34-4.92,5.14-.44.51-1,1.07-.75,1.75.35.84,1.23.45,1.91.49a1.18,1.18,0,0,0,.31-.08A41.28,41.28,0,0,0,89.1,191a61.23,61.23,0,0,0,7.56-3.88C98.86,185.7,100.58,183.92,100.59,180.75Z"/><path class="cls-6" d="M282.09,178.72a32,32,0,0,1-3-3.14,54.56,54.56,0,0,0-9.67-8.14,30.78,30.78,0,0,0-13.94-4.79,67.62,67.62,0,0,1-12.88-2.6c-2.12-.6-4.18-1.37-6.23-2.16-.25-.1-.59-.08-.72-.4.3-.3.59-.05.89,0a167.39,167.39,0,0,0,20.55,4.54c4.75.77,9,2.86,13.08,5.3a42.36,42.36,0,0,1,8.65,6.72,33.33,33.33,0,0,1,3,3.85A1.19,1.19,0,0,1,282.09,178.72Z"/><path class="cls-6" d="M67.62,170.58c-1.1.24-1.56,1.29-2.37,1.89s-1.42,1.18-2.12,1.77c.26-1.31,1.4-1.93,2.25-2.72a42.42,42.42,0,0,1,6.77-5.15,2.34,2.34,0,0,1,1-.48c-.75,1.13-2.11,1.48-3,2.38S68.09,169.4,67.62,170.58Z"/><path class="cls-6" d="M77.06,163.75c-.49.83-1.36,1-2.16,1.27C75.39,164.2,76.27,164.05,77.06,163.75Z"/><path class="cls-6" d="M74.9,165a2.09,2.09,0,0,1-1.7.87A2.23,2.23,0,0,1,74.9,165Z"/><path class="cls-6" d="M62.72,174.66a1.52,1.52,0,0,1-.88,1.06A.94.94,0,0,1,62.72,174.66Z"/><path class="cls-6" d="M88.21,159.09c-.22.51-.69.5-1.14.55C87.3,159.14,87.77,159.14,88.21,159.09Z"/><path class="cls-6" d="M282.74,179.57a.89.89,0,0,1-.65-.86C282.62,178.76,282.73,179.13,282.74,179.57Z"/><path class="cls-6" d="M283.39,180.42a.57.57,0,0,1-.45-.64C283.35,179.81,283.37,180.12,283.39,180.42Z"/><path class="cls-6" d="M284.66,182.14a.59.59,0,0,1-.44-.65C284.63,181.53,284.66,181.83,284.66,182.14Z"/><path class="cls-1" d="M175.83,172.46c0,.06,0,.16-.08.17a.16.16,0,0,1-.16-.07s0-.11.06-.17Z"/><path class="cls-1" d="M176.48,172c0,.06,0,.16-.09.17a.15.15,0,0,1-.16-.07.16.16,0,0,1,.07-.16S176.42,172,176.48,172Z"/><path class="cls-1" d="M177.8,171.44c-.13,0-.27,0-.28-.2a.18.18,0,0,1,.12-.12c.17,0,.18.15.2.28Z"/><path class="cls-5" d="M111.31,215.11c.31,1-.28,1.83-.33,2.76-.21,3.35.21,6.55,2.53,9.16,1.55,1.74,3.32,1.82,5.35.58a9,9,0,0,1,4.43-1.62,5.62,5.62,0,0,1,4.88,2.55c1.35,1.78,2.55,3.68,4,5.37a17.52,17.52,0,0,0,10.19,5.55,17.77,17.77,0,0,0,10.54-.79,4.44,4.44,0,0,0,2.81-5.19c-.91-5.43-.11-10.56,3.2-15.09a9.25,9.25,0,0,1,5.85-3.25,29.69,29.69,0,0,1,9.22-.28,36.24,36.24,0,0,0,4.17,0c.4,0,.83-.07.95-.53s-.22-.76-.53-1c-1-.64-2-1.28-3-1.85a69.2,69.2,0,0,1-11.68-7.93,19.45,19.45,0,0,0-11-4.8A56.07,56.07,0,0,0,143,199c-2.87.2-5.72.45-8.56.86a32.63,32.63,0,0,0-9.07,2.61,1.66,1.66,0,0,1-.82.2,27.12,27.12,0,0,1,5.48-3.21,112.71,112.71,0,0,1,14.46-5.63c3.29-1.1,6.58-2.22,9.91-3.21a23.42,23.42,0,0,1,6.16-1c1.07,0,2.13-.23,3.19-.18,3,.14,6,.34,9,.77a59.8,59.8,0,0,1,12,2.9c4.19,1.52,8.21,3.38,11.35,6.71a10,10,0,0,1,2.74,5.64,5,5,0,0,1-.47,2.81c-1.55,3.24,0,7,3.11,9,2.77,1.82,5.87,2.84,8.91,4a26.5,26.5,0,0,1,4.15,1.93,3.85,3.85,0,0,1,1.34,5.76,18.24,18.24,0,0,1-11.15,7.49,24,24,0,0,1-8.24.08,24.72,24.72,0,0,0-7.63-.07,7.82,7.82,0,0,0-6.06,6.77,26.57,26.57,0,0,1-1,6,10.69,10.69,0,0,1-6.68,6.29,19.17,19.17,0,0,1-10.89.63,14.32,14.32,0,0,1-8.78-5.58c-3-3.81-7.25-4.76-11.75-3-2.49,1-4.74,2.44-7.25,3.35a5,5,0,0,1-6.72-3.21c-.68-2-.91-4-1.48-6-.63-2.23-1.87-3.83-4.31-4.13-1.5-.18-2.84.51-4.2,1a15.08,15.08,0,0,1-4.71,1.25,8.33,8.33,0,0,1-5.52-1.89,14.86,14.86,0,0,1-3.8-4.4.62.62,0,0,0-.52-.31,29.68,29.68,0,0,1,1.34-7.83,41.07,41.07,0,0,1,4.45-10C111,215.32,111.18,215.23,111.31,215.11Z"/><path class="cls-5" d="M179.35,171.88a.39.39,0,0,1-.44.42A.4.4,0,0,1,179.35,171.88Z"/><path class="cls-6" d="M269.44,180.23l-.09,0,.1,0Z"/><path class="cls-8" d="M129,219.83a18.2,18.2,0,0,1-7.72-1.75c-3-1.5-3.65-3.87-2.31-6.84a6.21,6.21,0,0,1,4.6-3.75,8,8,0,0,1,2.73.18,14.23,14.23,0,0,0,10.48-2.2c2.54-1.73,5.16-1.56,7.82-.46a13,13,0,0,1,7.49,7.89c1.51,4.25.47,6.95-3.36,9.25a61.67,61.67,0,0,1-15.3,6.67,6,6,0,0,1-2.5.22c-.84-.12-.93-.59-.58-1.2a7.14,7.14,0,0,1,1-1.38c1.53-1.59,3.16-3.08,4.56-4.79a6.37,6.37,0,0,0,.7-.94c.21-.39.58-.86.26-1.27a1.48,1.48,0,0,0-1.44-.39A42.1,42.1,0,0,1,129,219.83Z"/><path class="cls-4" d="M165.39,184.7c.09-.39.21-.76.65-.91C166,184.24,166,184.66,165.39,184.7Z"/><path class="cls-9" d="M178.2,281a32.85,32.85,0,0,1-10.66-2,20,20,0,0,1-1.87-1,.88.88,0,0,1-.56-.94c.08-.37.51-.44.85-.55a66,66,0,0,1,8.11-1.71c3.68-.68,7.37-1.36,11.08-1.88a45.7,45.7,0,0,1,10-.66c2.28.18,4.55,0,6.82.18,3.34.22,6.67.35,10,.44a19.63,19.63,0,0,1,2.62.36c.27,0,.61.08.65.44s-.26.49-.5.64a20.05,20.05,0,0,1-5.21,2.13,52.8,52.8,0,0,1-9.56,1.94c-1.62.18-3.27.15-4.9.2a58.74,58.74,0,0,0-12.38,1.82A23.86,23.86,0,0,1,178.2,281Z"/><path class="cls-8" d="M100.59,180.75c0,3.17-1.73,4.95-3.93,6.35A61.23,61.23,0,0,1,89.1,191,41.28,41.28,0,0,1,80.26,194a1.18,1.18,0,0,1-.31.08c-.68,0-1.56.35-1.91-.49-.29-.68.31-1.24.75-1.75,1.55-1.8,3.45-3.26,4.92-5.14.07-.08.16-.15.22-.23.49-.62,1.14-1.31.69-2.08s-1.34-.42-2-.28a27,27,0,0,1-6.77.58,16.36,16.36,0,0,1-7.52-2c-2.28-1.26-2.85-4.35-1.36-6.85,1.7-2.87,3.87-3.76,7.2-3.18a13.33,13.33,0,0,0,10-2c3-2,6-1.86,9-.34a13.64,13.64,0,0,1,7.27,9.44A6.4,6.4,0,0,1,100.59,180.75Z"/><path class="cls-1" d="M296.84,219.39c-1.6,1.54-3.6,2.52-5.34,3.88-3.56,2.79-6.53,6-8.17,10.31a10.45,10.45,0,0,1-4.58,5.19,1.76,1.76,0,0,0-1,1.43c-.21,1.42-1.36,2.27-2.44,3.1-.59.46-1.2.89-1.79,1.34a2,2,0,0,0-1.2.4,32,32,0,0,1-4.28,1.89,117.84,117.84,0,0,1-15.2,4.5,67.85,67.85,0,0,1-12.38,1.82c-1.14.05-2.44-.18-3.47.68-3.39,2.79-6.31,5.93-7.89,10.14a9,9,0,0,1-3.29,4.24c-1.14.79-2.43,1.45-2.52,3.11,0,.39-.43.64-.69.93a8.22,8.22,0,0,0-1.29,1.41c-8.06,4.78-17,6.91-26.05,8.88a70.41,70.41,0,0,1-18.39,1.1c-4-.2-8.08-.59-12.1-1.05-3.19-.36-6.23-1.45-9.34-2.2a36.84,36.84,0,0,0-6.65-1.44c-.19-.59-.78-.46-1.17-.56-5.54-1.39-11.1-2.71-16.63-4.11-5.88-1.5-10.46-4.58-12.6-10.55-.12-.35-.36-.46-.66-.62a20.34,20.34,0,0,1-6.47-5.6,35.53,35.53,0,0,1-5.41-10.46,1.9,1.9,0,0,0-1.49-1.44q-12.56-3.09-25.09-6.23c-5.47-1.38-10.08-3.95-12.45-9.41a4.45,4.45,0,0,0-2.17-2.44c-1.89-.93-3.16-2.62-4.71-4a40.28,40.28,0,0,1-7.41-15.51c-.07-.29,0-.68-.41-.79,0-.21.11-.41.16-.61.42-.43-.07-1.08.38-1.5A43.06,43.06,0,0,0,55,213.55c1.87,4.67,4.28,9,8.25,12.25A14.72,14.72,0,0,0,74.72,229a23.93,23.93,0,0,1,7.41-.14,12.9,12.9,0,0,1,8,4.4c3.29,4.13,7.78,5.49,12.76,5.86.76.06,1-.22,1-1,0-1.28-.33-2.53-.19-3.83.23-2.25.45-4.51.83-6.74.25-.81.52-1.61.74-2.42.51-2,1.41-3.77,2.05-5.68l1.65-3a41.79,41.79,0,0,1,11.07-13c5.78-4.48,12.38-7.38,19.22-9.79s13.73-4.43,20.66-6.42c2-.21,3.61-.92,4.31-3a1.11,1.11,0,0,1,.17-.27l2.61-4a3.45,3.45,0,0,0,1.29-1.65c.43-.06.65-.42.91-.69a51.42,51.42,0,0,1,5.08-4.71l.41-.22c.34,0,.86,0,.28.49-.81.73-1.71,1.36-2.48,2.12-1.26,1.26-2.82,2.25-3.58,4-.77.3-.53,1.41-1.34,1.68-.36-.19-.33.09-.36.31h0a18,18,0,0,0-3.22,4.9l0,.1.06-.08h.41c.22,0,.47,0,.65-.16a51.25,51.25,0,0,1,7.92-.53c1.59.14,3.18.31,4.75.6,3.6.68,7,1.92,10.6,2.77a147.55,147.55,0,0,0,15,2.94,52.16,52.16,0,0,1,6.81,2.13A60.24,60.24,0,0,1,216,197c4.63,2.88,8.91,6.11,12,10.71a118.21,118.21,0,0,0,8,10.37c2.17,2.63,4.32,5.26,6.51,7.87.51.61.81,1.42,1.59,1.79a2.34,2.34,0,0,0,.37,1,18.17,18.17,0,0,1,2.43,8.73c.05,1,.31,1.19,1.23,1.16a104.54,104.54,0,0,1,13,.44c4.12.41,8.22,1.16,12.39.62s7.42-2.42,9.07-6.35a25.76,25.76,0,0,1,8.09-10.4c2-1.56,4.21-2.77,6.12-4.43ZM126.47,200.32h0a3.25,3.25,0,0,0-1.64.7,43.75,43.75,0,0,0-7.15,5.31c-.88.81-2.05,1.45-2.33,2.79l-.42.42a1.25,1.25,0,0,0-1.08,1.28h0c-.46,0-.64.38-.88.7a45.51,45.51,0,0,0-5.76,10.07,36.71,36.71,0,0,0-2.77,12.09,34.82,34.82,0,0,0,2.61,14.79c1.9,4.76,4.33,9.21,8.46,12.49a14.21,14.21,0,0,0,10.26,3.11,36.83,36.83,0,0,1,7.19-.39,13.32,13.32,0,0,1,9.49,4.88,12.11,12.11,0,0,0,2,1.94c3.33,2.62,7.26,3.53,11.37,3.64a65.38,65.38,0,0,0,10-.8,102.53,102.53,0,0,0,10.59-1.75A90.37,90.37,0,0,1,193,269.07a88.12,88.12,0,0,1,12.79.44,94,94,0,0,0,12.43.81c4.65-.2,8.7-2.41,10.53-7.17a21.12,21.12,0,0,1,4.39-6.63,34.31,34.31,0,0,1,6.71-5.41,13.09,13.09,0,0,0,3.82-3.37,15.78,15.78,0,0,0,2.54-11.15,19.3,19.3,0,0,0-4.71-10.86c-3.36-3.9-6.66-7.86-9.84-11.91-.53-.68-.84-1.59-1.74-1.94l-1.31-1.9a1,1,0,0,0-.64-.86h0a19.56,19.56,0,0,0-3.48-4.65,43.56,43.56,0,0,0-10-7.5,35.38,35.38,0,0,0-11.28-4.35c-4.11-.73-8.24-1.39-12.3-2.37-3.21-.76-6.38-1.66-9.57-2.49a58.16,58.16,0,0,0-6.58-1.21,33.89,33.89,0,0,0-9.75.22,123.41,123.41,0,0,0-15.9,4.47c-7.23,2.36-14.46,4.72-21.24,8.25C127.25,199.63,126.69,199.71,126.47,200.32Zm120.31,41.55a14.6,14.6,0,0,1-2.61,6.39c-1.28,1.82-3.24,2.86-5.12,4.32a53.26,53.26,0,0,0,10.6-1.18,115.77,115.77,0,0,0,17-4.73,35,35,0,0,0,7.89-3.73,5.84,5.84,0,0,0,2.35-2.4c.08-.21.29-.47.1-.7s-.46,0-.68,0a17,17,0,0,1-3.66.67,56.55,56.55,0,0,1-9.47-.46,109.45,109.45,0,0,0-14.13-.81c-.64,0-1.37-.22-1.88.13s-.11,1.07-.26,1.62A7.58,7.58,0,0,0,246.78,241.87ZM119.37,264l-.17.22c.52,1,1,2,1.57,2.89,2.31,3.56,5.84,5.36,9.76,6.44q6.72,1.85,13.54,3.34c8.34,1.81,16.38,5,25,5.55,3.5.24,7,.58,10.51.73a69.46,69.46,0,0,0,16.31-1.33A118.21,118.21,0,0,0,213,277a33.06,33.06,0,0,0,8-4,5.58,5.58,0,0,0,1.7-2,.56.56,0,0,0,0-.61c-.14-.19-.34,0-.49,0-4,1.3-8.16.73-12.25.35-3-.27-6-.67-9-.77-2.7-.09-5.38-.23-8.09-.08a65.48,65.48,0,0,0-9.3,1c-7,1.38-13.94,2.94-21.06,3.61a38.43,38.43,0,0,1-11.13-.08c-3.53-.7-6.8-2.11-9.12-4.94a13.43,13.43,0,0,0-10.66-5.11c-1.79,0-3.54.32-5.31.41A15.63,15.63,0,0,1,119.37,264ZM105,244.87c-.29-1.35-.58-2.45-.76-3.57-.23-1.47-.29-1.54-1.81-1.58a18.09,18.09,0,0,1-10.51-3.62c-1.4-1-2.27-2.55-3.6-3.63a13.89,13.89,0,0,0-10.43-3.12c-3.34.28-6.69,1-10-.21-.2-.07-.42-.18-.58,0s0,.34,0,.5A14.5,14.5,0,0,0,71,234.74a20.48,20.48,0,0,0,8.7,4.12c6.85,1.71,13.74,3.27,20.56,5.11,1.34.36,2.69.68,4,1C104.6,245.06,105,245.22,105,244.87Z"/><path class="cls-2" d="M52.64,205.26c-.45.42,0,1.07-.38,1.5a32.47,32.47,0,0,1,1-17c3.8-11.88,11.38-20.55,22.45-26.24a119.42,119.42,0,0,1,20-7.66c5-1.55,10-3.17,15.19-4.36a36.19,36.19,0,0,1,18.9.63,164,164,0,0,0,20.52,4.61c7.19,1.2,13.32,4.67,19,9.06a26.61,26.61,0,0,1,5.7,5.76c.26.38.44.54.9.21,7.36-5.18,15.73-8.12,24.2-10.78,5.44-1.71,10.86-3.44,16.4-4.8a36.46,36.46,0,0,1,19.63.45,154.55,154.55,0,0,0,20.42,4.59c5.89.94,11.09,3.53,16,6.8A37.35,37.35,0,0,1,282.77,178c4.27,6.16,9.25,11.77,14,17.55,4.42,5.36,5.42,11.47,3.72,18.09a12.89,12.89,0,0,1-3.25,5.57l-.4.23v-.85a15,15,0,0,0,1.18-1.37c2.34-3.42,2.74-7.27,2.41-11.25-.39-4.8-2.79-8.62-5.93-12.11-2.64-2.93-5.07-6-7.54-9.11a8.4,8.4,0,0,0-2.3-2.56h0c0-.31,0-.61-.44-.65-.29-.35-.28-.92-.83-1.07,0-.3,0-.61-.45-.64l-.2-.21c0-.44-.12-.81-.65-.86h0a1.19,1.19,0,0,0-.26-.79,33.33,33.33,0,0,0-3-3.85,42.36,42.36,0,0,0-8.65-6.72c-4.08-2.44-8.33-4.53-13.08-5.3a167.39,167.39,0,0,1-20.55-4.54c-.3-.08-.59-.33-.89,0a18,18,0,0,0-4.29-1.1,36.63,36.63,0,0,0-14.78.44c-7,1.74-13.76,4.1-20.56,6.38a76.51,76.51,0,0,0-16.74,7.59c-.42.27-.81.74-1.42.6,0-.13,0-.27-.2-.28a.18.18,0,0,0-.12.12c0,.17.15.18.28.2-.24.75-1,.95-1.52,1.39-1.1.92-2.44,1.58-3.19,2.88-.29.26-.62.45-.92.69a25.44,25.44,0,0,1-3.31,2.91c.76-1.71,2.32-2.7,3.58-4,.77-.76,1.67-1.39,2.48-2.12.58-.51.06-.47-.28-.49-.18-1.27-1.16-2-1.93-2.85a42.55,42.55,0,0,0-9.93-7.67,36,36,0,0,0-11.86-4.65c-4.19-.74-8.39-1.43-12.53-2.41-3.21-.76-6.38-1.66-9.57-2.5-1.86-.46-3.76-.71-5.65-1a33.82,33.82,0,0,0-13,.64c-7.46,1.81-14.66,4.48-22,6.78-.44,0-.91,0-1.14.55-1.59.56-3.24,1-4.77,1.73a52.56,52.56,0,0,0-5.24,2.38c-.79.3-1.67.45-2.16,1.26h0a2.23,2.23,0,0,0-1.7.87h0a2.34,2.34,0,0,0-1,.48,42.42,42.42,0,0,0-6.77,5.15c-.85.79-2,1.41-2.25,2.72l-.41.42a.94.94,0,0,0-.88,1.06l-.2.21c-.46,0-.64.38-.88.7a48.2,48.2,0,0,0-5.25,9,37.34,37.34,0,0,0-3.25,14.44C52.22,201.8,52.51,203.53,52.64,205.26Zm123.19-32.8-.18-.07c0,.06-.08.13-.06.17a.16.16,0,0,0,.16.07C175.8,172.62,175.81,172.52,175.83,172.46Zm.65-.43c-.06,0-.14-.08-.18-.06a.16.16,0,0,0-.07.16.15.15,0,0,0,.16.07C176.44,172.19,176.45,172.09,176.48,172Z"/><path class="cls-3" d="M70.07,273.34l.35.21A.24.24,0,0,1,70.07,273.34Z"/><path class="cls-3" d="M70.4,273.54a.37.37,0,0,1,.44.23C70.6,273.88,70.46,273.79,70.4,273.54Z"/><path class="cls-3" d="M70.83,273.75c.13,0,.23.06.22.22C70.92,274,70.74,274,70.83,273.75Z"/><path class="cls-3" d="M262.6,276.7l.24-.17Z"/><path class="cls-4" d="M228.56,210c.44.63.88,1.26,1.31,1.9.43,1.2,1.35,2.16,1.72,3.4s.13,1.58-1.15,1.54a4.61,4.61,0,0,1-.83-.12,54,54,0,0,1-12-4.86,14.57,14.57,0,0,0-2.47-1.22,3.89,3.89,0,0,0,1,1.51c1.75,1.83,3.56,3.59,5.29,5.44,2.69,2.88,5.54,5.63,8.15,8.6a50.23,50.23,0,0,1,5.55,7.14c1.58,2.66,2.22,4.06-1.57,5.8a22,22,0,0,0-7.65,6.19,70.91,70.91,0,0,0-4,6,11.6,11.6,0,0,1-8,4.88,82,82,0,0,1-10.49.78c-3.19.17-6.38.33-9.56.67a63.37,63.37,0,0,0-12.05,2.49c-4.16,1.31-8.21,3-12.63,3.37a34.37,34.37,0,0,1-10.81-.46c-4.86-1.17-9.7-2.4-14.6-3.4-4.65-.94-9.34-1.73-14-2.76a64.51,64.51,0,0,1-18-7.08,12,12,0,0,1-5.69-6.4c-1.19-3.31-.89-6.74-.86-10.14a.62.62,0,0,1,.52.31,14.86,14.86,0,0,0,3.8,4.4,8.33,8.33,0,0,0,5.52,1.89,15.08,15.08,0,0,0,4.71-1.25c1.36-.51,2.7-1.2,4.2-1,2.44.3,3.68,1.9,4.31,4.13.57,2,.8,4,1.48,6a5,5,0,0,0,6.72,3.21c2.51-.91,4.76-2.38,7.25-3.35,4.5-1.77,8.79-.82,11.75,3a14.32,14.32,0,0,0,8.78,5.58,19.17,19.17,0,0,0,10.89-.63,10.69,10.69,0,0,0,6.68-6.29,26.57,26.57,0,0,0,1-6,7.82,7.82,0,0,1,6.06-6.77,24.72,24.72,0,0,1,7.63.07,24,24,0,0,0,8.24-.08A18.24,18.24,0,0,0,215.84,229a3.85,3.85,0,0,0-1.34-5.76,26.5,26.5,0,0,0-4.15-1.93c-3-1.19-6.14-2.21-8.91-4-3.06-2-4.66-5.78-3.11-9a5,5,0,0,0,.47-2.81,10,10,0,0,0-2.74-5.64c-3.14-3.33-7.16-5.19-11.35-6.71a59.8,59.8,0,0,0-12-2.9c-3-.43-6-.63-9-.77-1.06,0-2.12.16-3.19.18a23.42,23.42,0,0,0-6.16,1c-3.33,1-6.62,2.11-9.91,3.21A112.71,112.71,0,0,0,130,199.49a27.12,27.12,0,0,0-5.48,3.21l-4.94,3a1.2,1.2,0,0,1,.59-.85c1-.74,2-1.45,3-2.21a31,31,0,0,0,3.28-2.29h0c.54-.11,1.1-.19,1.31-.83,6.78-3.53,14-5.89,21.24-8.25a123.41,123.41,0,0,1,15.9-4.47,33.89,33.89,0,0,1,9.75-.22,58.16,58.16,0,0,1,6.58,1.21c.05.34.33.44.59.54a71.7,71.7,0,0,0,8.69,2.84,92.9,92.9,0,0,0,12.41,2.2,29.35,29.35,0,0,1,12.7,4.89,55.36,55.36,0,0,1,11,9.86c.36.41.66.95,1.3,1h0C227.9,209.58,228,209.94,228.56,210Z"/><path class="cls-5" d="M159.86,187.27c-6.93,2-13.86,4-20.66,6.42S125.76,199,120,203.48a41.79,41.79,0,0,0-11.07,13l-1.65,3a28.85,28.85,0,0,1-4.33-4.23,8.6,8.6,0,0,0-7.5-3.52,14,14,0,0,0-5.2,1.41c-2.12,1-4.1,2.27-6.39,2.91-2.46.7-4.31.1-5.67-2.05A14.46,14.46,0,0,1,76.62,209a14.66,14.66,0,0,0-1.15-3.75,4.48,4.48,0,0,0-5.62-2.41c-1.52.48-3,1.06-4.54,1.55a8.26,8.26,0,0,1-4.19.28c-3.32-.67-5.43-2.89-7.22-5.53-.22-.32-.31-.75-.8-.76a13.67,13.67,0,0,1,0-1.92,40.53,40.53,0,0,1,4.7-14.28c.4-.71.65-1.59,1.47-2a4.14,4.14,0,0,1-.1,1.16,13,13,0,0,0,1.29,9.49c1.56,2.71,3.48,3.43,6.3,1.73a16.4,16.4,0,0,1,2.29-1.16,5.36,5.36,0,0,1,6.33,1.34,22.62,22.62,0,0,1,1.94,2.53c1.43,1.94,2.73,4,4.68,5.49a19.38,19.38,0,0,0,9.76,3.9,16.87,16.87,0,0,0,8.88-1c2-.85,3.75-2.42,3-5.05a10.41,10.41,0,0,1-.48-3.78,28.32,28.32,0,0,1,1.77-8.49,9.86,9.86,0,0,1,3.77-4.65,16.38,16.38,0,0,1,8.13-2.11,51.66,51.66,0,0,1,8,.4,4.1,4.1,0,0,0,1.78-.3c.53-.19.68-.57.18-1.05a7.56,7.56,0,0,0-1.46-1.06c-2.6-1.55-5.24-3-7.77-4.67a67.68,67.68,0,0,1-6.49-5,19.92,19.92,0,0,0-13.27-4.36c-2.9,0-5.8.29-8.7.54s-5.77.6-8.63,1.1a53.15,53.15,0,0,0-7.23,2.15c0-.3.22-.41.44-.54a79.73,79.73,0,0,1,16-7.11c3.27-1.14,6.59-2.17,9.88-3.27a31.16,31.16,0,0,1,8.59-1.87,64.31,64.31,0,0,1,8.21.13,69.34,69.34,0,0,1,10,1.55c5.66,1.36,11.14,3.18,15.79,6.84,3.56,2.81,5.71,6.33,3.83,11.25-1.06,2.76.19,5.09,2.12,6.89,2.33,2.18,5.34,3.3,8.33,4.36C157.58,186,158.91,186.26,159.86,187.27Z"/><path class="cls-5" d="M236,218.12a118.21,118.21,0,0,1-8-10.37c-3.13-4.6-7.41-7.83-12-10.71a60.24,60.24,0,0,0-5.85-3.07,1.75,1.75,0,0,0,.51-1c.8-2.63,1.88-5.12,4.32-6.64,3.45-2.14,7.31-2.31,11.21-2.15,2,.08,4,.4,6,.31.39,0,.91,0,1.05-.55s-.16-.87-.6-1.13c-1.92-1.14-3.82-2.31-5.75-3.44a54.63,54.63,0,0,1-7.74-5.43,25.93,25.93,0,0,0-5.38-3.78c-4.62-2.25-9.54-2.19-14.47-1.86-2.68.18-5.35.53-8,.81a44.57,44.57,0,0,0-8,1.52c-1.32.39-2.52,1.17-3.93,1.26.12-.13.21-.3.35-.38a72.21,72.21,0,0,1,13-6c3.82-1.32,7.63-2.66,11.46-4A40.11,40.11,0,0,1,215,159.05a61.23,61.23,0,0,1,13.79.91,54.39,54.39,0,0,1,14.4,4.44c3.11,1.52,6.06,3.3,8.11,6.19a7.33,7.33,0,0,1,1.14,7.43c-1.62,4,.74,7.23,3.48,9a36.29,36.29,0,0,0,7.95,3.53,18.72,18.72,0,0,1,4.91,2.32A4.92,4.92,0,0,1,270.7,195a4.12,4.12,0,0,1-1,4.26,19.5,19.5,0,0,1-9.56,6.47c-4.12,1.19-8.24.42-12.35.05a12.77,12.77,0,0,0-5.47.46c-3.52,1.26-5,4-5.43,7.57C236.72,215.25,236.82,216.78,236,218.12Z"/><path class="cls-4" d="M236,218.12c.78-1.34.68-2.87.84-4.32.4-3.58,1.91-6.31,5.43-7.57a12.77,12.77,0,0,1,5.47-.46c4.11.37,8.23,1.14,12.35-.05a19.5,19.5,0,0,0,9.56-6.47,4.12,4.12,0,0,0,1-4.26,4.92,4.92,0,0,0-1.89-2.12,18.72,18.72,0,0,0-4.91-2.32A36.29,36.29,0,0,1,256,187c-2.74-1.77-5.1-5-3.48-9a7.33,7.33,0,0,0-1.14-7.43c-2.05-2.89-5-4.67-8.11-6.19a54.39,54.39,0,0,0-14.4-4.44,61.23,61.23,0,0,0-13.79-.91,40.11,40.11,0,0,0-10.85,2.46c-3.83,1.29-7.64,2.63-11.46,4a72.21,72.21,0,0,0-13,6c-.14.08-.23.25-.35.38h0a.4.4,0,0,0-.44.42,6.68,6.68,0,0,0-1.88,1c-1.37.74-2.51,1.83-3.94,2.45.75-1.3,2.09-2,3.19-2.88.53-.44,1.28-.64,1.52-1.39l0,0c.61.14,1-.33,1.42-.6A76.51,76.51,0,0,1,196,163.21c6.8-2.28,13.58-4.64,20.56-6.38a36.63,36.63,0,0,1,14.78-.44,18,18,0,0,1,4.29,1.1c.13.32.47.3.72.4,2.05.79,4.11,1.56,6.23,2.16a67.62,67.62,0,0,0,12.88,2.6,30.78,30.78,0,0,1,13.94,4.79,54.56,54.56,0,0,1,9.67,8.14,32,32,0,0,0,3,3.14h0a.89.89,0,0,0,.65.86l.2.21a.57.57,0,0,0,.45.64c.55.15.54.72.83,1.07a.59.59,0,0,0,.44.65h0c.36.76.75,1.51,1.09,2.28a1.6,1.6,0,0,1,0,1.71c-.4.48-1,.32-1.6.17a49.9,49.9,0,0,1-11-4.34,23.37,23.37,0,0,0-3.64-1.74l-.1,0,.09,0a1.09,1.09,0,0,0,.32.65c1.89,2.42,4.22,4.43,6.32,6.65,3.54,3.74,7.17,7.4,10.44,11.39a25.32,25.32,0,0,1,3.68,5.58c.88,2,0,2.8-1.34,3.57-.37.21-.75.39-1.14.57a22.39,22.39,0,0,0-5.86,4.21,27.35,27.35,0,0,0-4.83,6.59,11.87,11.87,0,0,1-8.24,6.17,56,56,0,0,1-8.46.79c-3,.17-5.95.25-8.92.45a57.11,57.11,0,0,0-7.27.93c-.78-.37-1.08-1.18-1.59-1.79C240.36,223.38,238.21,220.75,236,218.12Z"/><path class="cls-6" d="M105.13,233.29c0,3.4-.33,6.83.86,10.14a12,12,0,0,0,5.69,6.4,64.51,64.51,0,0,0,18,7.08c4.63,1,9.32,1.82,14,2.76,4.9,1,9.74,2.23,14.6,3.4a34.37,34.37,0,0,0,10.81.46c4.42-.35,8.47-2.06,12.63-3.37a63.37,63.37,0,0,1,12.05-2.49c3.18-.34,6.37-.5,9.56-.67a82,82,0,0,0,10.49-.78,11.6,11.6,0,0,0,8-4.88,70.91,70.91,0,0,1,4-6,22,22,0,0,1,7.65-6.19c3.79-1.74,3.15-3.14,1.57-5.8a50.23,50.23,0,0,0-5.55-7.14c-2.61-3-5.46-5.72-8.15-8.6-1.73-1.85-3.54-3.61-5.29-5.44a3.89,3.89,0,0,1-1-1.51,14.57,14.57,0,0,1,2.47,1.22,54,54,0,0,0,12,4.86,4.61,4.61,0,0,0,.83.12c1.28,0,1.51-.31,1.15-1.54s-1.29-2.2-1.72-3.4c.9.35,1.21,1.26,1.74,1.94,3.18,4.05,6.48,8,9.84,11.91a19.3,19.3,0,0,1,4.71,10.86,15.78,15.78,0,0,1-2.54,11.15,13.09,13.09,0,0,1-3.82,3.37,34.31,34.31,0,0,0-6.71,5.41,21.12,21.12,0,0,0-4.39,6.63c-1.83,4.76-5.88,7-10.53,7.17a94,94,0,0,1-12.43-.81,88.12,88.12,0,0,0-12.79-.44,90.37,90.37,0,0,0-16.59,2.52,102.53,102.53,0,0,1-10.59,1.75,65.38,65.38,0,0,1-10,.8c-4.11-.11-8-1-11.37-3.64a12.11,12.11,0,0,1-2-1.94,13.32,13.32,0,0,0-9.49-4.88,36.83,36.83,0,0,0-7.19.39A14.21,14.21,0,0,1,115.51,261c-4.13-3.28-6.56-7.73-8.46-12.49a34.82,34.82,0,0,1-2.61-14.79,36.71,36.71,0,0,1,2.77-12.09A45.51,45.51,0,0,1,113,211.52c.24-.32.42-.68.88-.7,0,.27-.16.44-.31.64a34.9,34.9,0,0,0-2.23,3.65c-.13.12-.31.21-.39.35a41.07,41.07,0,0,0-4.45,10A29.68,29.68,0,0,0,105.13,233.29Z"/><path class="cls-7" d="M111.31,215.11a34.9,34.9,0,0,1,2.23-3.65c.15-.2.33-.37.31-.64h0a2.06,2.06,0,0,0,1.08-1.28l.42-.42c.82-.2,1.15-1,1.77-1.43.87-.63,1.36-1.73,2.5-2l4.94-3a1.66,1.66,0,0,0,.82-.2,32.63,32.63,0,0,1,9.07-2.61c2.84-.41,5.69-.66,8.56-.86a56.07,56.07,0,0,1,9.87-.22,19.45,19.45,0,0,1,11,4.8,69.2,69.2,0,0,0,11.68,7.93c1,.57,2,1.21,3,1.85.31.21.65.51.53,1s-.55.52-.95.53a36.24,36.24,0,0,1-4.17,0,29.69,29.69,0,0,0-9.22.28,9.25,9.25,0,0,0-5.85,3.25c-3.31,4.53-4.11,9.66-3.2,15.09a4.44,4.44,0,0,1-2.81,5.19,17.77,17.77,0,0,1-10.54.79,17.52,17.52,0,0,1-10.19-5.55c-1.45-1.69-2.65-3.59-4-5.37a5.62,5.62,0,0,0-4.88-2.55,9,9,0,0,0-4.43,1.62c-2,1.24-3.8,1.16-5.35-.58-2.32-2.61-2.74-5.81-2.53-9.16C111,216.94,111.62,216.08,111.31,215.11ZM129,219.83a42.1,42.1,0,0,0,6.43-.76,1.48,1.48,0,0,1,1.44.39c.32.41-.05.88-.26,1.27a6.37,6.37,0,0,1-.7.94c-1.4,1.71-3,3.2-4.56,4.79a7.14,7.14,0,0,0-1,1.38c-.35.61-.26,1.08.58,1.2a6,6,0,0,0,2.5-.22,61.67,61.67,0,0,0,15.3-6.67c3.83-2.3,4.87-5,3.36-9.25a13,13,0,0,0-7.49-7.89c-2.66-1.1-5.28-1.27-7.82.46a14.23,14.23,0,0,1-10.48,2.2,8,8,0,0,0-2.73-.18,6.21,6.21,0,0,0-4.6,3.75c-1.34,3-.72,5.34,2.31,6.84A18.2,18.2,0,0,0,129,219.83Z"/><path class="cls-6" d="M244.14,227.78a57.11,57.11,0,0,1,7.27-.93c3-.2,6-.28,8.92-.45a56,56,0,0,0,8.46-.79,11.87,11.87,0,0,0,8.24-6.17,27.35,27.35,0,0,1,4.83-6.59,22.39,22.39,0,0,1,5.86-4.21c.39-.18.77-.36,1.14-.57,1.36-.77,2.22-1.61,1.34-3.57a25.32,25.32,0,0,0-3.68-5.58c-3.27-4-6.9-7.65-10.44-11.39-2.1-2.22-4.43-4.23-6.32-6.65a1.09,1.09,0,0,1-.32-.65h0a23.37,23.37,0,0,1,3.64,1.74,49.9,49.9,0,0,0,11,4.34c.58.15,1.2.31,1.6-.17a1.6,1.6,0,0,0,0-1.71c-.34-.77-.73-1.52-1.09-2.28a8.4,8.4,0,0,1,2.3,2.56c2.47,3.08,4.9,6.18,7.54,9.11,3.14,3.49,5.54,7.31,5.93,12.11.33,4-.07,7.83-2.41,11.25a15,15,0,0,1-1.18,1.37c-1.91,1.66-4.14,2.87-6.12,4.43a25.76,25.76,0,0,0-8.09,10.4c-1.65,3.93-4.95,5.81-9.07,6.35s-8.27-.21-12.39-.62a104.54,104.54,0,0,0-13-.44c-.92,0-1.18-.2-1.23-1.16a18.17,18.17,0,0,0-2.43-8.73A2.34,2.34,0,0,1,244.14,227.78Z"/><path class="cls-4" d="M159.86,187.27c-1-1-2.28-1.23-3.49-1.66-3-1.06-6-2.18-8.33-4.36-1.93-1.8-3.18-4.13-2.12-6.89,1.88-4.92-.27-8.44-3.83-11.25-4.65-3.66-10.13-5.48-15.79-6.84a69.34,69.34,0,0,0-10-1.55,64.31,64.31,0,0,0-8.21-.13,31.16,31.16,0,0,0-8.59,1.87c-3.29,1.1-6.61,2.13-9.88,3.27a79.73,79.73,0,0,0-16,7.11c-.22.13-.44.24-.44.54a12.72,12.72,0,0,0-2.41,1.3c-1,.67-2.11,1.27-3.17,1.9.47-1.18,1.71-1.52,2.54-2.31s2.29-1.25,3-2.38h0a2.09,2.09,0,0,0,1.7-.87h0c.8-.29,1.67-.44,2.16-1.27a52.56,52.56,0,0,1,5.24-2.38c1.53-.7,3.18-1.17,4.77-1.73.45,0,.92,0,1.14-.55,7.31-2.3,14.51-5,22-6.78a33.82,33.82,0,0,1,13-.64c1.89.28,3.79.53,5.65,1,.07.38.4.47.7.58a87.92,87.92,0,0,0,10,3.2,70.94,70.94,0,0,0,8.57,1.56,37.47,37.47,0,0,1,7.39,1.39c7.57,2.41,13.25,7.46,18.52,13.09a1.48,1.48,0,0,1,.2.48,51.42,51.42,0,0,0-5.08,4.71c-.26.27-.48.63-.91.69a53.5,53.5,0,0,0-5.26-2.74,19.15,19.15,0,0,0,4,4.39l-2.61,4a1.11,1.11,0,0,0-.17.27C163.47,186.35,161.84,187.06,159.86,187.27Z"/><path class="cls-4" d="M53.1,198.41c.49,0,.58.44.8.76,1.79,2.64,3.9,4.86,7.22,5.53a8.26,8.26,0,0,0,4.19-.28c1.52-.49,3-1.07,4.54-1.55a4.48,4.48,0,0,1,5.62,2.41A14.66,14.66,0,0,1,76.62,209,14.46,14.46,0,0,0,78.17,214c1.36,2.15,3.21,2.75,5.67,2.05,2.29-.64,4.27-1.93,6.39-2.91a14,14,0,0,1,5.2-1.41,8.6,8.6,0,0,1,7.5,3.52,28.85,28.85,0,0,0,4.33,4.23c-.64,1.91-1.54,3.72-2.05,5.68-.22.81-.49,1.61-.74,2.42a5.2,5.2,0,0,1-1.46-.25c-4-1.13-8-1.9-12-2.75-4.3-.9-8.64-1.6-12.93-2.53a68.76,68.76,0,0,1-17.78-6.76c-3.5-1.86-6.11-4.53-6.91-8.59A38.68,38.68,0,0,1,53.1,198.41Z"/><path class="cls-7" d="M173.09,175.71c1.43-.62,2.57-1.71,3.94-2.45a6.68,6.68,0,0,1,1.88-1,.39.39,0,0,0,.44-.42h0c1.41-.09,2.61-.87,3.93-1.26a44.57,44.57,0,0,1,8-1.52c2.67-.28,5.34-.63,8-.81,4.93-.33,9.85-.39,14.47,1.86a25.93,25.93,0,0,1,5.38,3.78,54.63,54.63,0,0,0,7.74,5.43c1.93,1.13,3.83,2.3,5.75,3.44.44.26.74.61.6,1.13s-.66.54-1.05.55c-2,.09-4-.23-6-.31-3.9-.16-7.76,0-11.21,2.15-2.44,1.52-3.52,4-4.32,6.64a1.75,1.75,0,0,1-.51,1,52.16,52.16,0,0,0-6.81-2.13c0-.43.32-.58.6-.8,3.13-2.54,3.68-5.06,2.54-8.29a13.24,13.24,0,0,0-6.12-7.49c-3-1.66-6.13-2.36-9.35-.23a14.49,14.49,0,0,1-11,2.05,5.54,5.54,0,0,0-6,2.36c-1.3,1.9-2,3.84-1.07,6.09a51.25,51.25,0,0,0-7.92.53c0-.25,0-.49,0-.73l.4-.63c.59,0,.64-.46.65-.91.27-.87,1.15-1.47,1.11-2.48h0c.21,0,.36-.07.36-.31.81-.27.57-1.38,1.34-1.68a25.44,25.44,0,0,0,3.31-2.91C172.47,176.16,172.8,176,173.09,175.71Z"/><path class="cls-6" d="M119.37,264a15.63,15.63,0,0,0,6.94.78c1.77-.09,3.52-.45,5.31-.41a13.43,13.43,0,0,1,10.66,5.11c2.32,2.83,5.59,4.24,9.12,4.94a38.43,38.43,0,0,0,11.13.08c7.12-.67,14.07-2.23,21.06-3.61a65.48,65.48,0,0,1,9.3-1c2.71-.15,5.39,0,8.09.08,3,.1,6,.5,9,.77,4.09.38,8.2.95,12.25-.35.15-.05.35-.2.49,0a.56.56,0,0,1,0,.61,5.58,5.58,0,0,1-1.7,2,33.06,33.06,0,0,1-8,4,118.21,118.21,0,0,1-17.11,4.84,69.46,69.46,0,0,1-16.31,1.33c-3.51-.15-7-.49-10.51-.73-8.63-.58-16.67-3.74-25-5.55q-6.81-1.48-13.54-3.34c-3.92-1.08-7.45-2.88-9.76-6.44-.59-.92-1-1.92-1.57-2.89ZM178.2,281a23.86,23.86,0,0,0,4.47-.6,58.74,58.74,0,0,1,12.38-1.82c1.63-.05,3.28,0,4.9-.2a52.8,52.8,0,0,0,9.56-1.94,20.05,20.05,0,0,0,5.21-2.13c.24-.15.53-.31.5-.64s-.38-.4-.65-.44a19.63,19.63,0,0,0-2.62-.36c-3.34-.09-6.67-.22-10-.44-2.27-.14-4.54,0-6.82-.18a45.7,45.7,0,0,0-10,.66c-3.71.52-7.4,1.2-11.08,1.88a66,66,0,0,0-8.11,1.71c-.34.11-.77.18-.85.55a.88.88,0,0,0,.56.94,20,20,0,0,0,1.87,1A32.85,32.85,0,0,0,178.2,281Z"/><path class="cls-6" d="M53.1,198.41a38.68,38.68,0,0,0,.27,8.26c.8,4.06,3.41,6.73,6.91,8.59A68.76,68.76,0,0,0,78.06,222c4.29.93,8.63,1.63,12.93,2.53,4,.85,8.06,1.62,12,2.75a5.2,5.2,0,0,0,1.46.25c-.38,2.23-.6,4.49-.83,6.74-.14,1.3.22,2.55.19,3.83,0,.74-.22,1-1,1-5-.37-9.47-1.73-12.76-5.86a12.9,12.9,0,0,0-8-4.4,23.93,23.93,0,0,0-7.41.14,14.72,14.72,0,0,1-11.5-3.16c-4-3.27-6.38-7.58-8.25-12.25a43.06,43.06,0,0,1-2.33-8.29c-.13-1.73-.42-3.46-.38-5.19a37.34,37.34,0,0,1,3.25-14.44,48.2,48.2,0,0,1,5.25-9c.24-.32.42-.67.88-.7l-2.37,4.27c-.82.42-1.07,1.3-1.47,2a40.53,40.53,0,0,0-4.7,14.28A13.67,13.67,0,0,0,53.1,198.41Z"/><path class="cls-8" d="M172.93,185.53c-.89-2.25-.23-4.19,1.07-6.09a5.54,5.54,0,0,1,6-2.36A14.49,14.49,0,0,0,191,175c3.22-2.13,6.32-1.43,9.35.23a13.24,13.24,0,0,1,6.12,7.49c1.14,3.23.59,5.75-2.54,8.29-.28.22-.61.37-.6.8a147.55,147.55,0,0,1-15-2.94c-3.55-.85-7-2.09-10.6-2.77C176.11,185.84,174.52,185.67,172.93,185.53Z"/><path class="cls-6" d="M105,244.87c0,.35-.4.19-.73.11-1.34-.33-2.69-.65-4-1-6.82-1.84-13.71-3.4-20.56-5.11a20.48,20.48,0,0,1-8.7-4.12,14.5,14.5,0,0,1-3.65-5.07c-.08-.16-.16-.35,0-.5s.38-.1.58,0c3.32,1.18,6.67.49,10,.21a13.89,13.89,0,0,1,10.43,3.12c1.33,1.08,2.2,2.6,3.6,3.63a18.09,18.09,0,0,0,10.51,3.62c1.52,0,1.58.11,1.81,1.58C104.42,242.42,104.71,243.52,105,244.87Z"/><path class="cls-6" d="M246.78,241.87a7.58,7.58,0,0,1,.15-.83c.15-.55-.24-1.28.26-1.62s1.24-.11,1.88-.13a109.45,109.45,0,0,1,14.13.81,56.55,56.55,0,0,0,9.47.46,17,17,0,0,0,3.66-.67c.22-.07.47-.29.68,0s0,.49-.1.7a5.84,5.84,0,0,1-2.35,2.4,35,35,0,0,1-7.89,3.73,115.77,115.77,0,0,1-17,4.73,53.26,53.26,0,0,1-10.6,1.18c1.88-1.46,3.84-2.5,5.12-4.32.32.36.72.23,1.1.19a32.76,32.76,0,0,1,3.8-.36,45.91,45.91,0,0,0,12.62-1.55,29.14,29.14,0,0,0,7-2.49c.34-.2.75-.39.7-.84s-.53-.44-.91-.51a59.16,59.16,0,0,0-8.91-.56C255.32,242,251.06,241.69,246.78,241.87Z"/><path class="cls-9" d="M246.78,241.87c4.28-.18,8.54.14,12.8.27a59.16,59.16,0,0,1,8.91.56c.38.07.86,0,.91.51s-.36.64-.7.84a29.14,29.14,0,0,1-7,2.49,45.91,45.91,0,0,1-12.62,1.55,32.76,32.76,0,0,0-3.8.36c-.38,0-.78.17-1.1-.19A14.6,14.6,0,0,0,246.78,241.87Z"/><path class="cls-6" d="M227.92,209.12c-.64-.08-.94-.62-1.3-1a55.36,55.36,0,0,0-11-9.86,29.35,29.35,0,0,0-12.7-4.89,92.9,92.9,0,0,1-12.41-2.2,71.7,71.7,0,0,1-8.69-2.84c-.26-.1-.54-.2-.59-.54,3.19.83,6.36,1.73,9.57,2.49,4.06,1,8.19,1.64,12.3,2.37A35.38,35.38,0,0,1,214.4,197a43.56,43.56,0,0,1,10,7.5A19.56,19.56,0,0,1,227.92,209.12Z"/><path class="cls-6" d="M174.23,173a1.48,1.48,0,0,0-.2-.48c-5.27-5.63-10.95-10.68-18.52-13.09a37.47,37.47,0,0,0-7.39-1.39,70.94,70.94,0,0,1-8.57-1.56,87.92,87.92,0,0,1-10-3.2c-.3-.11-.63-.2-.7-.58,3.19.84,6.36,1.74,9.57,2.5,4.14,1,8.34,1.67,12.53,2.41a36,36,0,0,1,11.86,4.65,42.55,42.55,0,0,1,9.93,7.67c.77.83,1.75,1.58,1.93,2.85Z"/><path class="cls-6" d="M167,180a19.15,19.15,0,0,1-4-4.39,53.5,53.5,0,0,1,5.26,2.74A3.45,3.45,0,0,1,167,180Z"/><path class="cls-6" d="M119.62,205.67c-1.14.29-1.63,1.39-2.5,2-.62.44-1,1.23-1.77,1.43.28-1.34,1.45-2,2.33-2.79a43.75,43.75,0,0,1,7.15-5.31,3.25,3.25,0,0,1,1.64-.7,31,31,0,0,1-3.28,2.29c-1,.76-2,1.47-3,2.21A1.2,1.2,0,0,0,119.62,205.67Z"/><path class="cls-2" d="M165.39,184.7c-.13.21-.26.42-.4.63-.37.18-.47.55-.63.89H164l0,0a18,18,0,0,1,3.22-4.9c0,1-.84,1.61-1.11,2.48C165.6,183.94,165.48,184.31,165.39,184.7Z"/><path class="cls-6" d="M114.93,209.54a2.06,2.06,0,0,1-1.08,1.28A1.25,1.25,0,0,1,114.93,209.54Z"/><path class="cls-6" d="M127.78,199.49c-.21.64-.77.72-1.31.83C126.69,199.71,127.25,199.63,127.78,199.49Z"/><path class="cls-4" d="M164.36,186.22c.16-.34.26-.71.63-.89,0,.24,0,.48,0,.73C164.83,186.26,164.58,186.19,164.36,186.22Z"/><path class="cls-6" d="M228.56,210c-.54,0-.66-.4-.64-.86A1,1,0,0,1,228.56,210Z"/><path class="cls-2" d="M167.52,181c0,.24-.15.3-.36.31C167.19,181.08,167.16,180.8,167.52,181Z"/><path class="cls-2" d="M164,186.23l-.06.08,0-.1Z"/><path class="cls-7" d="M59.27,180.2l2.37-4.27.2-.21a1.52,1.52,0,0,0,.88-1.06l.41-.42c.7-.59,1.38-1.22,2.12-1.77s1.27-1.65,2.37-1.89c1.06-.63,2.14-1.23,3.17-1.9a12.72,12.72,0,0,1,2.41-1.3,53.15,53.15,0,0,1,7.23-2.15c2.86-.5,5.74-.84,8.63-1.1s5.8-.54,8.7-.54A19.92,19.92,0,0,1,111,168a67.68,67.68,0,0,0,6.49,5c2.53,1.64,5.17,3.12,7.77,4.67a7.56,7.56,0,0,1,1.46,1.06c.5.48.35.86-.18,1.05a4.1,4.1,0,0,1-1.78.3,51.66,51.66,0,0,0-8-.4,16.38,16.38,0,0,0-8.13,2.11,9.86,9.86,0,0,0-3.77,4.65,28.32,28.32,0,0,0-1.77,8.49,10.41,10.41,0,0,0,.48,3.78c.75,2.63-1,4.2-3,5.05a16.87,16.87,0,0,1-8.88,1,19.38,19.38,0,0,1-9.76-3.9c-2-1.49-3.25-3.55-4.68-5.49a22.62,22.62,0,0,0-1.94-2.53,5.36,5.36,0,0,0-6.33-1.34,16.4,16.4,0,0,0-2.29,1.16c-2.82,1.7-4.74,1-6.3-1.73a13,13,0,0,1-1.29-9.49A4.14,4.14,0,0,0,59.27,180.2Zm41.32.55a6.4,6.4,0,0,0-.11-.95,13.64,13.64,0,0,0-7.27-9.44c-3-1.52-6-1.68-9,.34a13.33,13.33,0,0,1-10,2c-3.33-.58-5.5.31-7.2,3.18-1.49,2.5-.92,5.59,1.36,6.85a16.36,16.36,0,0,0,7.52,2,27,27,0,0,0,6.77-.58c.63-.14,1.56-.43,2,.28s-.2,1.46-.69,2.08c-.06.08-.15.15-.22.23-1.47,1.88-3.37,3.34-4.92,5.14-.44.51-1,1.07-.75,1.75.35.84,1.23.45,1.91.49a1.18,1.18,0,0,0,.31-.08A41.28,41.28,0,0,0,89.1,191a61.23,61.23,0,0,0,7.56-3.88C98.86,185.7,100.58,183.92,100.59,180.75Z"/><path class="cls-6" d="M282.09,178.72a32,32,0,0,1-3-3.14,54.56,54.56,0,0,0-9.67-8.14,30.78,30.78,0,0,0-13.94-4.79,67.62,67.62,0,0,1-12.88-2.6c-2.12-.6-4.18-1.37-6.23-2.16-.25-.1-.59-.08-.72-.4.3-.3.59-.05.89,0a167.39,167.39,0,0,0,20.55,4.54c4.75.77,9,2.86,13.08,5.3a42.36,42.36,0,0,1,8.65,6.72,33.33,33.33,0,0,1,3,3.85A1.19,1.19,0,0,1,282.09,178.72Z"/><path class="cls-6" d="M67.62,170.58c-1.1.24-1.56,1.29-2.37,1.89s-1.42,1.18-2.12,1.77c.26-1.31,1.4-1.93,2.25-2.72a42.42,42.42,0,0,1,6.77-5.15,2.34,2.34,0,0,1,1-.48c-.75,1.13-2.11,1.48-3,2.38S68.09,169.4,67.62,170.58Z"/><path class="cls-6" d="M77.06,163.75c-.49.83-1.36,1-2.16,1.27C75.39,164.2,76.27,164.05,77.06,163.75Z"/><path class="cls-6" d="M74.9,165a2.09,2.09,0,0,1-1.7.87A2.23,2.23,0,0,1,74.9,165Z"/><path class="cls-6" d="M62.72,174.66a1.52,1.52,0,0,1-.88,1.06A.94.94,0,0,1,62.72,174.66Z"/><path class="cls-6" d="M88.21,159.09c-.22.51-.69.5-1.14.55C87.3,159.14,87.77,159.14,88.21,159.09Z"/><path class="cls-6" d="M282.74,179.57a.89.89,0,0,1-.65-.86C282.62,178.76,282.73,179.13,282.74,179.57Z"/><path class="cls-6" d="M283.39,180.42a.57.57,0,0,1-.45-.64C283.35,179.81,283.37,180.12,283.39,180.42Z"/><path class="cls-6" d="M284.66,182.14a.59.59,0,0,1-.44-.65C284.63,181.53,284.66,181.83,284.66,182.14Z"/><path class="cls-1" d="M175.83,172.46c0,.06,0,.16-.08.17a.16.16,0,0,1-.16-.07s0-.11.06-.17Z"/><path class="cls-1" d="M176.48,172c0,.06,0,.16-.09.17a.15.15,0,0,1-.16-.07.16.16,0,0,1,.07-.16S176.42,172,176.48,172Z"/><path class="cls-1" d="M177.8,171.44c-.13,0-.27,0-.28-.2a.18.18,0,0,1,.12-.12c.17,0,.18.15.2.28Z"/><path class="cls-5" d="M111.31,215.11c.31,1-.28,1.83-.33,2.76-.21,3.35.21,6.55,2.53,9.16,1.55,1.74,3.32,1.82,5.35.58a9,9,0,0,1,4.43-1.62,5.62,5.62,0,0,1,4.88,2.55c1.35,1.78,2.55,3.68,4,5.37a17.52,17.52,0,0,0,10.19,5.55,17.77,17.77,0,0,0,10.54-.79,4.44,4.44,0,0,0,2.81-5.19c-.91-5.43-.11-10.56,3.2-15.09a9.25,9.25,0,0,1,5.85-3.25,29.69,29.69,0,0,1,9.22-.28,36.24,36.24,0,0,0,4.17,0c.4,0,.83-.07.95-.53s-.22-.76-.53-1c-1-.64-2-1.28-3-1.85a69.2,69.2,0,0,1-11.68-7.93,19.45,19.45,0,0,0-11-4.8A56.07,56.07,0,0,0,143,199c-2.87.2-5.72.45-8.56.86a32.63,32.63,0,0,0-9.07,2.61,1.66,1.66,0,0,1-.82.2,27.12,27.12,0,0,1,5.48-3.21,112.71,112.71,0,0,1,14.46-5.63c3.29-1.1,6.58-2.22,9.91-3.21a23.42,23.42,0,0,1,6.16-1c1.07,0,2.13-.23,3.19-.18,3,.14,6,.34,9,.77a59.8,59.8,0,0,1,12,2.9c4.19,1.52,8.21,3.38,11.35,6.71a10,10,0,0,1,2.74,5.64,5,5,0,0,1-.47,2.81c-1.55,3.24,0,7,3.11,9,2.77,1.82,5.87,2.84,8.91,4a26.5,26.5,0,0,1,4.15,1.93,3.85,3.85,0,0,1,1.34,5.76,18.24,18.24,0,0,1-11.15,7.49,24,24,0,0,1-8.24.08,24.72,24.72,0,0,0-7.63-.07,7.82,7.82,0,0,0-6.06,6.77,26.57,26.57,0,0,1-1,6,10.69,10.69,0,0,1-6.68,6.29,19.17,19.17,0,0,1-10.89.63,14.32,14.32,0,0,1-8.78-5.58c-3-3.81-7.25-4.76-11.75-3-2.49,1-4.74,2.44-7.25,3.35a5,5,0,0,1-6.72-3.21c-.68-2-.91-4-1.48-6-.63-2.23-1.87-3.83-4.31-4.13-1.5-.18-2.84.51-4.2,1a15.08,15.08,0,0,1-4.71,1.25,8.33,8.33,0,0,1-5.52-1.89,14.86,14.86,0,0,1-3.8-4.4.62.62,0,0,0-.52-.31,29.68,29.68,0,0,1,1.34-7.83,41.07,41.07,0,0,1,4.45-10C111,215.32,111.18,215.23,111.31,215.11Z"/><path class="cls-5" d="M179.35,171.88a.39.39,0,0,1-.44.42A.4.4,0,0,1,179.35,171.88Z"/><path class="cls-6" d="M269.44,180.23l-.09,0,.1,0Z"/><path class="cls-8" d="M129,219.83a18.2,18.2,0,0,1-7.72-1.75c-3-1.5-3.65-3.87-2.31-6.84a6.21,6.21,0,0,1,4.6-3.75,8,8,0,0,1,2.73.18,14.23,14.23,0,0,0,10.48-2.2c2.54-1.73,5.16-1.56,7.82-.46a13,13,0,0,1,7.49,7.89c1.51,4.25.47,6.95-3.36,9.25a61.67,61.67,0,0,1-15.3,6.67,6,6,0,0,1-2.5.22c-.84-.12-.93-.59-.58-1.2a7.14,7.14,0,0,1,1-1.38c1.53-1.59,3.16-3.08,4.56-4.79a6.37,6.37,0,0,0,.7-.94c.21-.39.58-.86.26-1.27a1.48,1.48,0,0,0-1.44-.39A42.1,42.1,0,0,1,129,219.83Z"/><path class="cls-4" d="M165.39,184.7c.09-.39.21-.76.65-.91C166,184.24,166,184.66,165.39,184.7Z"/><path class="cls-9" d="M178.2,281a32.85,32.85,0,0,1-10.66-2,20,20,0,0,1-1.87-1,.88.88,0,0,1-.56-.94c.08-.37.51-.44.85-.55a66,66,0,0,1,8.11-1.71c3.68-.68,7.37-1.36,11.08-1.88a45.7,45.7,0,0,1,10-.66c2.28.18,4.55,0,6.82.18,3.34.22,6.67.35,10,.44a19.63,19.63,0,0,1,2.62.36c.27,0,.61.08.65.44s-.26.49-.5.64a20.05,20.05,0,0,1-5.21,2.13,52.8,52.8,0,0,1-9.56,1.94c-1.62.18-3.27.15-4.9.2a58.74,58.74,0,0,0-12.38,1.82A23.86,23.86,0,0,1,178.2,281Z"/><path class="cls-8" d="M100.59,180.75c0,3.17-1.73,4.95-3.93,6.35A61.23,61.23,0,0,1,89.1,191,41.28,41.28,0,0,1,80.26,194a1.18,1.18,0,0,1-.31.08c-.68,0-1.56.35-1.91-.49-.29-.68.31-1.24.75-1.75,1.55-1.8,3.45-3.26,4.92-5.14.07-.08.16-.15.22-.23.49-.62,1.14-1.31.69-2.08s-1.34-.42-2-.28a27,27,0,0,1-6.77.58,16.36,16.36,0,0,1-7.52-2c-2.28-1.26-2.85-4.35-1.36-6.85,1.7-2.87,3.87-3.76,7.2-3.18a13.33,13.33,0,0,0,10-2c3-2,6-1.86,9-.34a13.64,13.64,0,0,1,7.27,9.44A6.4,6.4,0,0,1,100.59,180.75Z"/></g></svg>