<svg id="Layer_38" data-name="Layer 38" xmlns="http://www.w3.org/2000/svg" xmlns:xlink="http://www.w3.org/1999/xlink" viewBox="0 0 370 330"><defs><style>.cls-1{fill:#fdc818;}.cls-2{fill:url(#radial-gradient);}.cls-3{fill:#703527;}.cls-4{fill:#934632;}.cls-5{opacity:0.6;}.cls-6{fill:#fdc417;}.cls-7{opacity:0.7;}.cls-8{fill:#ffce36;}.cls-10,.cls-9{fill:#fff3db;}.cls-9{opacity:0.1;}.cls-10{opacity:0.05;}.cls-11{fill:none;stroke:#52271c;stroke-miterlimit:10;}.cls-12{fill:#a97c50;opacity:0.19;}.cls-13{fill:#e8a705;}.cls-14{fill:#fbdc25;}.cls-15{fill:#ffb217;}.cls-16{fill:#fae573;}.cls-17{fill:url(#linear-gradient);}.cls-18{fill:url(#radial-gradient-2);}.cls-19{fill:url(#radial-gradient-3);}.cls-20{fill:url(#radial-gradient-4);}.cls-21{fill:url(#linear-gradient-2);}.cls-22{fill:url(#radial-gradient-5);}.cls-23{fill:url(#radial-gradient-6);}.cls-24{fill:url(#radial-gradient-7);}</style><radialGradient id="radial-gradient" cx="174.92" cy="400.74" r="142.94" gradientTransform="translate(-280.18 64.37) rotate(-51.42)" gradientUnits="userSpaceOnUse"><stop offset="0" stop-color="#f36f03"/><stop offset="0.01" stop-color="#f36f03" stop-opacity="0.97"/><stop offset="0.13" stop-color="#f36f03" stop-opacity="0.77"/><stop offset="0.23" stop-color="#f36f03" stop-opacity="0.62"/><stop offset="0.32" stop-color="#f36f03" stop-opacity="0.53"/><stop offset="0.37" stop-color="#f36f03" stop-opacity="0.5"/><stop offset="0.5" stop-color="#f36f03" stop-opacity="0.39"/><stop offset="0.84" stop-color="#f36f03" stop-opacity="0.11"/><stop offset="1" stop-color="#f36f03" stop-opacity="0"/></radialGradient><linearGradient id="linear-gradient" x1="1908.57" y1="1636.62" x2="1892.17" y2="1642.89" gradientTransform="matrix(0.78, -0.4, -0.36, -0.95, -683.41, 2576.51)" gradientUnits="userSpaceOnUse"><stop offset="0" stop-color="#ffde17"/><stop offset="1" stop-color="#f6b022"/></linearGradient><radialGradient id="radial-gradient-2" cx="3994.17" cy="3508.16" r="12.29" gradientTransform="matrix(0.37, -0.2, -0.17, -0.43, -656.53, 2569.4)" gradientUnits="userSpaceOnUse"><stop offset="0" stop-color="#fff"/><stop offset="1" stop-color="#fae126"/></radialGradient><radialGradient id="radial-gradient-3" cx="3754.32" cy="2855.55" r="7.67" gradientTransform="matrix(0.39, -0.22, -0.21, -0.52, -661.98, 2564.01)" gradientUnits="userSpaceOnUse"><stop offset="0" stop-color="#f2e208"/><stop offset="0.09" stop-color="#f2e310"/><stop offset="0.22" stop-color="#f4e525"/><stop offset="0.39" stop-color="#f5e948"/><stop offset="0.57" stop-color="#f8ef78"/><stop offset="0.78" stop-color="#fbf6b6"/><stop offset="1" stop-color="#fff"/></radialGradient><radialGradient id="radial-gradient-4" cx="3742.39" cy="2850.19" r="6.65" xlink:href="#radial-gradient-3"/><linearGradient id="linear-gradient-2" x1="2375.5" y1="-927.99" x2="2367.41" y2="-924.9" gradientTransform="matrix(0.06, -1.05, -0.83, -0.14, -729.47, 2634.46)" xlink:href="#linear-gradient"/><radialGradient id="radial-gradient-5" cx="10673.17" cy="-2151.14" r="12.29" gradientTransform="matrix(0.03, -0.22, -0.28, -0.02, -721.15, 2591.13)" xlink:href="#radial-gradient-2"/><radialGradient id="radial-gradient-6" cx="10013.85" cy="-1786.39" r="7.67" gradientTransform="matrix(0.03, -0.24, -0.34, -0.03, -726.57, 2593.08)" xlink:href="#radial-gradient-3"/><radialGradient id="radial-gradient-7" cx="10001.91" cy="-1791.74" r="6.65" gradientTransform="matrix(0.03, -0.24, -0.34, -0.03, -726.57, 2593.08)" xlink:href="#radial-gradient-3"/></defs><path class="cls-1" d="M223.81,132.76c29.84,23.81,69.91,55.05,48.6,81.76-38.1,47.76-95.91,38.76-125.75,15S109.9,164.73,131.21,138,194,109,223.81,132.76Z"/><path class="cls-2" d="M223.81,132.76c29.84,23.81,69.91,55.05,48.6,81.76-38.1,47.76-95.91,38.76-125.75,15S109.9,164.73,131.21,138,194,109,223.81,132.76Z"/><path class="cls-3" d="M121.49,137.12c3.12.77,9.7,6.59,9.7,6.59-.24,2.11-2.67,3.35-2.67,3.35C122,141.87,118,141.51,118,141.51Z"/><path class="cls-4" d="M118,141.51a5.62,5.62,0,0,0,3.5-4.39s-.73,0-1.74,1.28A15,15,0,0,0,118,141.51Z"/><g class="cls-5"><path class="cls-6" d="M186.63,134.32c.78.34,1.22,1.08,1,1.65a1.39,1.39,0,0,1-1.87.41c-.78-.35-1.22-1.09-1-1.65A1.39,1.39,0,0,1,186.63,134.32Z"/><path class="cls-6" d="M169.25,178.36c.78.35,1.21,1.09,1,1.65a1.39,1.39,0,0,1-1.87.41c-.78-.34-1.21-1.08-1-1.65A1.39,1.39,0,0,1,169.25,178.36Z"/><path class="cls-6" d="M186.23,172.6c.79.34,1.22,1.08,1,1.65a1.39,1.39,0,0,1-1.87.41c-.78-.35-1.22-1.09-1-1.65A1.39,1.39,0,0,1,186.23,172.6Z"/><path class="cls-6" d="M151.9,173c.79.34,1.22,1.08,1,1.65a1.39,1.39,0,0,1-1.87.4c-.78-.34-1.22-1.08-1-1.65A1.39,1.39,0,0,1,151.9,173Z"/><path class="cls-6" d="M139.63,195.22c.79.35,1.22,1.09,1,1.65a1.39,1.39,0,0,1-1.87.41c-.78-.34-1.21-1.08-1-1.65A1.38,1.38,0,0,1,139.63,195.22Z"/><path class="cls-6" d="M204.87,173.12c.79.35,1.22,1.08,1,1.65a1.63,1.63,0,1,1-1-1.65Z"/><path class="cls-6" d="M204.26,137.06c.79.35,1.22,1.09,1,1.65a1.39,1.39,0,0,1-1.87.41c-.78-.34-1.21-1.08-1-1.65A1.38,1.38,0,0,1,204.26,137.06Z"/><path class="cls-6" d="M150.08,140.41c.79.35,1.22,1.08,1,1.65a1.39,1.39,0,0,1-1.87.41c-.78-.34-1.21-1.08-1-1.65A1.38,1.38,0,0,1,150.08,140.41Z"/><path class="cls-6" d="M166,137c.78.34,1.21,1.08,1,1.65a1.38,1.38,0,0,1-1.86.4c-.79-.34-1.22-1.08-1-1.65A1.39,1.39,0,0,1,166,137Z"/><path class="cls-6" d="M170.77,122.39c.78.34,1.22,1.08,1,1.64a1.39,1.39,0,0,1-1.87.41c-.78-.34-1.22-1.08-1-1.65A1.38,1.38,0,0,1,170.77,122.39Z"/><path class="cls-6" d="M140.74,152.12c.79.34,1.22,1.08,1,1.65a1.39,1.39,0,0,1-1.87.41c-.78-.35-1.21-1.09-1-1.65A1.38,1.38,0,0,1,140.74,152.12Z"/><path class="cls-6" d="M129.94,171.12c.78.34,1.22,1.08,1,1.65a1.39,1.39,0,0,1-1.87.41c-.78-.35-1.22-1.09-1-1.65A1.39,1.39,0,0,1,129.94,171.12Z"/><path class="cls-6" d="M154.71,160.83c.78.34,1.22,1.08,1,1.64a1.39,1.39,0,0,1-1.87.41c-.78-.34-1.22-1.08-1-1.65A1.38,1.38,0,0,1,154.71,160.83Z"/><path class="cls-6" d="M200.89,197.84c.78.34,1.22,1.08,1,1.65a1.39,1.39,0,0,1-1.87.41c-.78-.35-1.22-1.09-1-1.65A1.39,1.39,0,0,1,200.89,197.84Z"/><path class="cls-6" d="M161.86,216.26c.78.34,1.22,1.08,1,1.65a1.39,1.39,0,0,1-1.87.4c-.78-.34-1.22-1.08-1-1.65A1.39,1.39,0,0,1,161.86,216.26Z"/><path class="cls-6" d="M161.42,196.23c.78.34,1.21,1.08,1,1.65a1.39,1.39,0,0,1-1.87.41c-.78-.35-1.21-1.09-1-1.65A1.39,1.39,0,0,1,161.42,196.23Z"/><path class="cls-6" d="M144.67,211.76c.78.34,1.22,1.08,1,1.65a1.39,1.39,0,0,1-1.87.41c-.78-.35-1.22-1.08-1-1.65A1.39,1.39,0,0,1,144.67,211.76Z"/><path class="cls-6" d="M156.07,230.72c.78.34,1.21,1.08,1,1.64a1.39,1.39,0,0,1-1.87.41c-.79-.34-1.22-1.08-1-1.65A1.38,1.38,0,0,1,156.07,230.72Z"/><path class="cls-6" d="M173.55,229.4a1.18,1.18,0,1,1-.9,2c-.79-.34-1.22-1.08-1-1.65A1.39,1.39,0,0,1,173.55,229.4Z"/><path class="cls-6" d="M190.66,235.93c.79.35,1.22,1.08,1,1.65a1.39,1.39,0,0,1-1.87.41c-.78-.34-1.22-1.08-1-1.65A1.39,1.39,0,0,1,190.66,235.93Z"/><path class="cls-6" d="M180.44,193.74c.78.34,1.21,1.08,1,1.65a1.38,1.38,0,0,1-1.86.41c-.79-.35-1.22-1.09-1-1.65A1.39,1.39,0,0,1,180.44,193.74Z"/><path class="cls-6" d="M193.59,155.81c.78.34,1.22,1.08,1,1.65a1.39,1.39,0,0,1-1.87.4c-.78-.34-1.22-1.08-1-1.65A1.39,1.39,0,0,1,193.59,155.81Z"/><path class="cls-6" d="M174,154.41c.78.34,1.21,1.08,1,1.65a1.37,1.37,0,0,1-1.86.4c-.79-.34-1.22-1.08-1-1.64A1.39,1.39,0,0,1,174,154.41Z"/><path class="cls-6" d="M183.58,216.83c.78.34,1.21,1.08,1,1.65a1.38,1.38,0,0,1-1.87.4c-.78-.34-1.21-1.08-1-1.65A1.39,1.39,0,0,1,183.58,216.83Z"/></g><g class="cls-7"><path class="cls-8" d="M270.54,206.76c.78.34,1.22,1.08,1,1.65a1.39,1.39,0,0,1-1.87.4c-.78-.34-1.22-1.08-1-1.65A1.39,1.39,0,0,1,270.54,206.76Z"/><path class="cls-8" d="M255.24,221.66c.78.34,1.21,1.08,1,1.65a1.38,1.38,0,0,1-1.86.4c-.79-.34-1.22-1.08-1-1.65A1.39,1.39,0,0,1,255.24,221.66Z"/><path class="cls-8" d="M233,195.68c.78.35,1.21,1.09,1,1.65a1.38,1.38,0,0,1-1.86.41c-.79-.34-1.22-1.08-1-1.65A1.39,1.39,0,0,1,233,195.68Z"/><path class="cls-8" d="M236.38,174.73c.78.34,1.21,1.08,1,1.65a1.38,1.38,0,0,1-1.86.4c-.79-.34-1.22-1.08-1-1.65A1.38,1.38,0,0,1,236.38,174.73Z"/><path class="cls-8" d="M253.61,178.39c.78.34,1.22,1.08,1,1.64a1.39,1.39,0,0,1-1.87.41c-.79-.34-1.22-1.08-1-1.65A1.38,1.38,0,0,1,253.61,178.39Z"/><path class="cls-8" d="M265.8,191.58c.78.34,1.22,1.08,1,1.65a1.39,1.39,0,0,1-1.87.4c-.78-.34-1.22-1.08-1-1.65A1.39,1.39,0,0,1,265.8,191.58Z"/><path class="cls-8" d="M266,177.55c.79.34,1.22,1.08,1,1.65a1.39,1.39,0,0,1-1.87.4c-.78-.34-1.21-1.08-1-1.65A1.38,1.38,0,0,1,266,177.55Z"/><path class="cls-8" d="M249,196.45c.79.34,1.22,1.08,1,1.65a1.39,1.39,0,0,1-1.87.41c-.78-.35-1.21-1.08-1-1.65A1.39,1.39,0,0,1,249,196.45Z"/><path class="cls-8" d="M226.41,224.71c.78.35,1.21,1.08,1,1.65a1.38,1.38,0,0,1-1.86.41c-.79-.34-1.22-1.08-1-1.65A1.39,1.39,0,0,1,226.41,224.71Z"/><path class="cls-8" d="M240,230.67c.78.34,1.22,1.08,1,1.64a1.39,1.39,0,0,1-1.87.41c-.78-.34-1.22-1.08-1-1.65A1.38,1.38,0,0,1,240,230.67Z"/><path class="cls-8" d="M213.18,221.34c.78.34,1.21,1.08,1,1.65a1.38,1.38,0,0,1-1.86.4c-.79-.34-1.22-1.08-1-1.65A1.39,1.39,0,0,1,213.18,221.34Z"/><path class="cls-8" d="M248.2,159.91c.78.34,1.21,1.08,1,1.65a1.38,1.38,0,0,1-1.86.41c-.79-.35-1.22-1.09-1-1.65A1.39,1.39,0,0,1,248.2,159.91Z"/><path class="cls-8" d="M242.25,211.3c.79.34,1.22,1.08,1,1.65a1.39,1.39,0,0,1-1.87.41c-.78-.35-1.21-1.09-1-1.65A1.39,1.39,0,0,1,242.25,211.3Z"/><path class="cls-8" d="M205.66,238.49c.78.34,1.22,1.08,1,1.65a1.38,1.38,0,0,1-1.87.4c-.78-.34-1.22-1.08-1-1.64A1.39,1.39,0,0,1,205.66,238.49Z"/><path class="cls-8" d="M215.17,204.38c.79.34,1.22,1.08,1,1.65a1.39,1.39,0,0,1-1.87.41c-.78-.35-1.21-1.08-1-1.65A1.38,1.38,0,0,1,215.17,204.38Z"/><path class="cls-8" d="M221.69,138.77c.79.34,1.22,1.08,1,1.64a1.63,1.63,0,1,1-1-1.64Z"/><path class="cls-8" d="M223.74,177.82c.79.34,1.22,1.08,1,1.65a1.39,1.39,0,0,1-1.87.41c-.78-.35-1.21-1.09-1-1.65A1.38,1.38,0,0,1,223.74,177.82Z"/><path class="cls-8" d="M231.53,156.72c.78.35,1.21,1.09,1,1.65a1.39,1.39,0,0,1-1.87.41c-.78-.34-1.21-1.08-1-1.65A1.39,1.39,0,0,1,231.53,156.72Z"/><path class="cls-8" d="M212.27,160.27c.78.34,1.22,1.08,1,1.65a1.38,1.38,0,0,1-1.87.4c-.78-.34-1.22-1.08-1-1.65A1.4,1.4,0,0,1,212.27,160.27Z"/></g><ellipse class="cls-9" cx="181.4" cy="169.99" rx="44.38" ry="51.52" transform="translate(-55.16 246.4) rotate(-61.04)"/><ellipse class="cls-10" cx="185.56" cy="153.19" rx="21.19" ry="28.46" transform="translate(-22.1 274.76) rotate(-69.89)"/><path class="cls-11" d="M126.34,148.46a8.11,8.11,0,0,0,5.22-7.35"/><path class="cls-12" d="M230.86,245.62c-3.9,10-9,15.23-15.86,21.35-24.33-6.72-53.34-22.57-72.23-41.06l56-5,38.39-3.43A90.49,90.49,0,0,1,230.86,245.62Z"/><path class="cls-13" d="M233,223.64c-.06.44-.13.92-.21,1.42a.36.36,0,0,1,0,.11c-2.59,16.27-15.45,55.47-79.17,56.16-70.06-2.65-77-46.72-77-46.72l1.86-.18,5-.51.71-.06,79-7.86.73-.07,65.63-6.53h.13c.73,0,1.37-.11,1.92-.14.83-.07,1.45-.11,1.81-.13h0C233.36,220,233.26,221.59,233,223.64Z"/><path class="cls-14" d="M233.72,219.1c-.21,1.55-.45,3.06-.73,4.54,0,.12-.05.24-.08.37-3.66,18.9-12.95,31.77-25,40.25l-.12.09C180,283.88,137.61,280,116.29,272.89c-30.52-10.21-37.52-37-37.87-38.46v-.06c1.47-.13,3.16-.27,5-.45l.71-.06c5.5-.5,12.5-1.17,20.44-2,17-1.67,38.3-3.83,58.56-5.91l.73-.07c18.06-1.86,35.23-3.63,47.67-4.93,7.19-.75,13.85-1.29,18-1.6h.13c.73,0,1.37-.11,1.92-.14.83-.07,1.45-.11,1.81-.13h0Z"/><path class="cls-15" d="M233.36,219.12c-.11,1.68-.25,3.3-.45,4.89,0,.35-.08.7-.13,1.05a.36.36,0,0,1,0,.11c-8.22,61-79.17,56.16-79.17,56.16,25.51-1.55,42.68-8.38,54.23-17l.12-.09c23.94-17.89,23.66-43.37,23.61-45C232.38,219.18,233,219.14,233.36,219.12Z"/><path class="cls-16" d="M211.54,221c-6.86,15.37-27.57,33.46-57,33.6-23.46.12-41.92-14.88-49.93-22.69C136.94,228.74,185,223.76,211.54,221Z"/><g class="cls-7"><path class="cls-17" d="M208.4,255.38c-1.12-2.93-5.43-3.56-9.63-1.41s-6.7,6.28-5.58,9.21,5.42,3.55,9.62,1.39S209.51,258.3,208.4,255.38Z"/><path class="cls-18" d="M208.66,256c-1.06-2.62-4.82-3.14-8.38-1.16s-5.6,5.72-4.53,8.34,4.81,3.14,8.37,1.16S209.72,258.66,208.66,256Z"/><path class="cls-19" d="M207.64,256.31a2.58,2.58,0,0,0-3.8-1,3.47,3.47,0,0,0-1.72,4.1,2.57,2.57,0,0,0,3.8,1A3.45,3.45,0,0,0,207.64,256.31Z"/><path class="cls-20" d="M202.85,262.68c-.31-.77-1.37-.93-2.38-.37a2.16,2.16,0,0,0-1.27,2.39c.31.76,1.38.93,2.39.37A2.16,2.16,0,0,0,202.85,262.68Z"/></g><g class="cls-7"><path class="cls-21" d="M189,262.16c-1.88-.19-3.75,1.69-4.17,4.19s.75,4.7,2.62,4.89,3.74-1.68,4.16-4.19S190.87,262.35,189,262.16Z"/><path class="cls-22" d="M189.44,262.2c-1.71-.14-3.32,1.5-3.6,3.66s.86,4,2.56,4.18,3.31-1.5,3.6-3.66S191.13,262.34,189.44,262.2Z"/><path class="cls-23" d="M189.2,262.74a1.79,1.79,0,0,0-1.88,1.54,1.59,1.59,0,0,0,1.44,1.82,1.77,1.77,0,0,0,1.88-1.54A1.58,1.58,0,0,0,189.2,262.74Z"/><path class="cls-24" d="M190.68,266.57a1.08,1.08,0,0,0-1,1,1,1,0,0,0,.75,1.18,1.09,1.09,0,0,0,1-1A1,1,0,0,0,190.68,266.57Z"/></g></svg>