<svg xmlns="http://www.w3.org/2000/svg" viewBox="0 0 370 330"><defs><style>.cls-1{isolation:isolate;}.cls-2{fill:#307518;}.cls-10,.cls-11,.cls-12,.cls-13,.cls-14,.cls-15,.cls-16,.cls-17,.cls-18,.cls-19,.cls-2,.cls-20,.cls-21,.cls-22,.cls-23,.cls-24,.cls-25,.cls-26,.cls-27,.cls-28,.cls-29,.cls-3,.cls-30,.cls-31,.cls-32,.cls-33,.cls-34,.cls-4,.cls-5,.cls-6,.cls-7,.cls-8,.cls-9{fill-rule:evenodd;}.cls-3{fill:#045900;}.cls-4{fill:#247a00;}.cls-5{fill:#004200;}.cls-6{fill:#309b00;}.cls-7{fill:#4c8c0e;}.cls-8{fill:#306300;}.cls-9{fill:#55a800;}.cls-10{fill:#3e8221;}.cls-11{fill:#599e16;}.cls-12{fill:#3c7207;}.cls-13{fill:#5fbc07;}.cls-14{fill:#449d20;}.cls-15{fill:#65c111;}.cls-16{fill:#428400;}.cls-17{fill:#70e700;}.cls-18{fill:#90ea01;}.cls-19{fill:#693500;}.cls-20{fill:#fcce47;}.cls-21{fill:#f9e15c;}.cls-22{fill:#bf6004;}.cls-23{fill:#ea8301;}.cls-24{fill:#8f3b00;}.cls-25{fill:#b55c01;}.cls-26{fill:#812500;}.cls-27{fill:#a84900;}.cls-28{fill:#ad4700;}.cls-29{fill:#dc7000;}.cls-30{fill:#964000;}.cls-31{fill:#fdf5cc;}.cls-32{fill:#692c00;}.cls-33{fill:#fff;}.cls-34{fill:#fdd096;}.cls-35{fill:#fabb13;}.cls-36,.cls-38,.cls-40{fill:#ffdb2d;}.cls-36,.cls-40{mix-blend-mode:multiply;}.cls-37{fill:#854004;}.cls-39{fill:#fafd96;opacity:0.4;}.cls-40{opacity:0.5;}.cls-41{fill:#9a4b05;}</style></defs><g class="cls-1"><g id="Layer_47" data-name="Layer 47"><path class="cls-2" d="M83.34,128.17c8.35,10.38,16.41,30.45,20.18,38.35,8.65,18.13,15.08,23.67,19.43,16.72a128.25,128.25,0,0,0-11.34-24.75C105.69,148.73,96.16,133.86,83.34,128.17Z"/><path class="cls-3" d="M58.77,209.81c9.21-6.05,26.34-10.29,33.13-12.5,15.58-5.09,20.67-10.14,15.37-15.28A91,91,0,0,0,86,188.55C77.53,192.46,64.54,198.88,58.77,209.81Z"/><path class="cls-4" d="M108.49,183.48a9.12,9.12,0,0,0-1.22-1.45A91,91,0,0,0,86,188.55c-8,3.7-20.11,9.65-26.28,19.55C64.82,202.4,73,198,80.46,194.24,89.63,189.64,99.22,187.52,108.49,183.48Z"/><path class="cls-5" d="M102,187.28a143.25,143.25,0,0,0-16.27,5.83,86.94,86.94,0,0,0-18.53,10.48,114.58,114.58,0,0,1,19.58-8.31C91.26,193.82,100,190.88,102,187.28Z"/><path class="cls-6" d="M99.23,186.67c-3.85,1-13.51,4.14-17.06,5.67-5.75,2.48-13.63,7-17.65,11.19,4.73-2.63,12-8.14,18-10.13A146.89,146.89,0,0,0,99.23,186.67Z"/><path class="cls-2" d="M64.76,131.57c11.33,8.54,24.61,26.65,30.47,33.66,13.44,16.09,21.6,20.26,24.63,12.59A132.6,132.6,0,0,0,102,155.76C93.41,147.34,79.78,134.63,64.76,131.57Z"/><path class="cls-7" d="M118.88,179.66a8.37,8.37,0,0,0,1-1.84A132.6,132.6,0,0,0,102,155.76c-8.13-8-20.78-19.79-34.84-23.62C76,136.07,85,144,92.91,151.25,102.6,160.19,109.75,170.42,118.88,179.66Z"/><path class="cls-8" d="M111.41,173.51A209.78,209.78,0,0,0,96.8,156.88a130.74,130.74,0,0,0-20.91-17.71,169.86,169.86,0,0,1,19,19.6C98.78,163.39,106.41,172.4,111.41,173.51Z"/><path class="cls-9" d="M110.7,170.16c-3-4.06-11.35-14-14.83-17.58-5.64-5.75-14.59-13.25-21.26-16.48,5.29,4.53,15,11,20.28,17.27A217.62,217.62,0,0,0,110.7,170.16Z"/><path class="cls-3" d="M45.24,204.51C57.31,198.72,80,195,88.91,193c20.56-4.64,27.18-9.55,20-14.86a145.89,145.89,0,0,0-28,5.91C69.68,187.67,52.6,193.72,45.24,204.51Z"/><path class="cls-4" d="M110.55,179.57a10.36,10.36,0,0,0-1.66-1.48,145.89,145.89,0,0,0-28,5.91c-10.59,3.47-26.46,9.08-34.36,18.83,6.57-5.57,17.35-9.77,27.12-13.29C85.67,185.19,98.35,183.35,110.55,179.57Z"/><path class="cls-5" d="M102.05,183.2c-6,1.05-16,3.68-21.45,5.36-8.9,2.73-17.62,6.11-24.33,10a175,175,0,0,1,25.79-7.75C88,189.43,99.51,186.75,102.05,183.2Z"/><path class="cls-6" d="M98.35,182.5c-5.1.9-17.84,3.75-22.51,5.18-7.58,2.32-17.91,6.62-23.13,10.7,6.2-2.5,15.69-7.81,23.68-9.62A227.32,227.32,0,0,0,98.35,182.5Z"/><path class="cls-3" d="M93.53,182.09c4.55-.67,14.2-2.26,9.93-8.26-.85-1.18-7-1-8.46-1.11-27.1-1.3-48.5,5.06-70.68,18.1A77.18,77.18,0,0,0,13,199.18C39.56,189.7,65.35,186.21,93.53,182.09Z"/><path class="cls-4" d="M99.53,175.23c2.09,0,5.8.81,4.2-1.17-2.83-3.47-33.52-.56-38.62.54-17.78,4.08-36.19,11.82-49.86,22.61,19.72-11.56,45-20.7,69.06-21.7C89.37,175.3,94.46,175.27,99.53,175.23Z"/><path class="cls-5" d="M85.31,178.42a32.63,32.63,0,0,0,5.9-1.85c-21,0-31.45,2.48-50.32,10.1-2.2.89-20.28,8.63-7.36,3.79C51.78,183.61,66.39,182.23,85.31,178.42Z"/><path class="cls-6" d="M85.9,175.46c3.58-.46-14.39.15-18.15.73-13.74,2.33-31.59,8.57-43,15.61,3.45-1.11,10-4,13.67-5.52C57.93,178.08,65.21,178.08,85.9,175.46Z"/><path class="cls-2" d="M3.59,140.18c18,5.23,43.17,19.18,53.78,24.39,24.36,12,36.31,13.81,36.09,5.6a221,221,0,0,0-32.71-16.54C46.13,147.8,23.26,139.15,3.59,140.18Z"/><path class="cls-7" d="M93.2,172.21a5.88,5.88,0,0,0,.26-2,221,221,0,0,0-32.71-16.54c-13.84-5.52-35.08-13.57-54-13.54,12.68,1.45,27.58,6.69,40.73,11.6C63.71,157.75,77.52,165.72,93.2,172.21Z"/><path class="cls-8" d="M81.09,168.26c-6.74-3.65-19-9.22-26-12.16a229.74,229.74,0,0,0-34.2-11.55,292.61,292.61,0,0,1,32.87,13.87C60.72,161.84,74.49,168.51,81.09,168.26Z"/><path class="cls-9" d="M78.53,165.22c-5.73-3.11-20.8-10.53-26.79-13-9.71-4-24.31-8.92-34-10.27,8.68,3,23.71,6.65,33.2,11.29C56.91,156.13,70.72,162.37,78.53,165.22Z"/><path class="cls-10" d="M8.51,170c18.81-.11,47.55,6.06,59.42,8,27.25,4.49,39.15,2.88,36-4.89a233.14,233.14,0,0,0-36.76-6.51C51.27,165.2,26.62,163.44,8.51,170Z"/><path class="cls-11" d="M104.39,175.15a6.09,6.09,0,0,0-.5-2,233.14,233.14,0,0,0-36.76-6.51c-15-1.34-37.9-3-55.66,2.4,12.44-2.22,28.34-1.44,42.5-.49C71.42,169.71,87.29,173.4,104.39,175.15Z"/><path class="cls-12" d="M91.57,174.82c-7.66-1.57-21.22-3.42-28.9-4.22a233.74,233.74,0,0,0-36.34-1.32,304.92,304.92,0,0,1,35.94,3.9C70.09,174.47,85.46,176.92,91.57,174.82Z"/><path class="cls-13" d="M98.66,174.17c-5.14-3.43-25.76-5.76-32.3-6.44-10.59-1.11-34.31-1.53-43.89-.08,9.23.37,34,1.38,46.05,2.67C75.24,171,90.28,173.67,98.66,174.17Z"/><path class="cls-14" d="M36.16,132.12c13.33,6,30.08,20.64,37.33,26.17,16.64,12.7,26,15.21,28.17,7.57a129.07,129.07,0,0,0-22.21-17.51C69.07,142,52.7,132.44,36.16,132.12Z"/><path class="cls-15" d="M100.85,167.74a7.89,7.89,0,0,0,.81-1.88,129.07,129.07,0,0,0-22.21-17.51c-9.82-6-25-14.9-40.64-16.1,10,2.17,20.82,8,30.26,13.44C80.7,152.37,89.79,160.68,100.85,167.74Z"/><path class="cls-16" d="M92,163.28a206.77,206.77,0,0,0-18-13,137.64,137.64,0,0,0-24.87-13,172.43,172.43,0,0,1,23.11,15C77,156,86.48,163.08,92,163.28Z"/><path class="cls-17" d="M97.36,165c-1.66-4.59-14.86-13.29-19.08-16-6.84-4.39-23.33-12.48-30.93-14.36,6.31,3.32,23.17,12.23,31,17.27C82.64,154.74,91.74,161.88,97.36,165Z"/><path class="cls-18" d="M26.12,167c8-.82,16.91-.49,24.93,0,7.75.49,18.66,1.4,26.14,3.4a124.77,124.77,0,0,0-15.64-2.36c.24.07-8.39-.7-11.94-.94-1.39-.08-2.8-.15-4.19-.24a151.55,151.55,0,0,0-19.3.12Zm52.28,3c-10-3.08-32.39-4.55-43.06-4.24a97.6,97.6,0,0,0-10.82.68c14.39-1.71,31.65.23,46.11,2A68.18,68.18,0,0,1,78.4,170Zm-.78,0c-10.16-2.85-28.81-4-39.49-4a113.22,113.22,0,0,0-12.5.57,117,117,0,0,1,11.7-.46c3.16.06,6.29.13,9.44.28,7.37.41,16.21,1.85,22.57,2.08A79.51,79.51,0,0,1,77.62,170Zm.33.4c-10.12-3-32.5-4.5-43.24-4.11-3.27.08-6.47.22-9.7.62,15-1.68,31,.32,45.95,2.06C73.27,169.4,75.69,169.82,78,170.44Z"/><path class="cls-18" d="M28.26,171.19c4.12.64,8.25,1.22,12.38,1.81,3.71.58,7.38,1.17,11.08,1.82,9.08,1.5,19.66,3.48,28.82,3.68a135.42,135.42,0,0,1-18.63-1.84c.36.13-8.12-1.27-11.53-1.88-1.25-.21-2.51-.42-3.75-.66q-3-.52-6-1c-4.13-.63-8.25-1.24-12.36-1.94Zm53.82,6.61c-12.45,0-28.61-3.79-41.32-5.59-.93-.13-1.86-.26-2.79-.35-3.79-.53-7.57-1.06-11.34-1.66,4.69.8,9.4,1.47,14.11,2.16,9.33,1.43,22,4.25,31.06,4.84a86.31,86.31,0,0,0,10.28.6ZM81,178c-12.69-.22-27.46-3.81-40.27-5.55l-.18,0c-4.23-.59-8.46-1.17-12.68-1.82,4,.66,7.94,1.24,11.92,1.82.3.05.62.09.92.15q3.61.56,7.21,1.16c5.14.89,17.71,3.41,22.42,3.5A100,100,0,0,0,81,178Zm.67.31c-12.51-.08-28.27-3.78-41-5.61-1.13-.15-2.29-.32-3.42-.43-3.43-.48-6.84-1-10.26-1.49,4.54.76,9.1,1.41,13.65,2.08,9.05,1.39,23,4.46,31.6,4.89A89.66,89.66,0,0,0,81.66,178.35Z"/><path class="cls-18" d="M52,140.32c4.39,3.31,8.7,6.85,13,10.27,5,3.88,10.89,8.6,16.36,11.92A110.89,110.89,0,0,1,71,155.42c.21.28-5-3.81-6.93-5.32-.77-.61-1.56-1.23-2.3-1.86-3.25-2.64-6.47-5.31-9.75-7.92Zm30.55,22.05c-8.43-4.9-17.46-13.17-25.43-19.05-1.74-1.36-3.49-2.74-5.28-4,7.87,6,17.19,14.48,25.3,19.62a63.1,63.1,0,0,0,5.41,3.48Zm-.68-.11c-7.73-4.68-16.27-12.07-23.5-17.63-2.05-1.61-4.11-3.24-6.22-4.81,1.93,1.5,3.83,3,5.73,4.57,1.63,1.36,3.33,2.7,5,4,2.34,1.87,10.94,8.91,13.27,10.09,1.84,1.3,3.74,2.61,5.71,3.75Zm.14.44c-8.7-5.14-17.42-13.23-25.63-19.24-1.57-1.23-3.14-2.46-4.75-3.64,7.62,5.86,17.62,14.87,25.41,19.68C78.66,160.62,80.3,161.73,82,162.7Z"/><path class="cls-19" d="M208.35,206.49c.57-1.57.78-2.25,2.35-2.79,1.2-.42.72-1.54.41-2.45-.78-2.3-.65-2.85-.1-5.36a66,66,0,0,0,1.45-11.75c0-1,.07-1.92.08-2.88V181a5.7,5.7,0,0,1,1.06-3.77c.39-.65.19-.76-.22-1.28-1.44-1.84-1.31-3.42-1.67-5.73a65.89,65.89,0,0,0-2.44-10.2,7.2,7.2,0,0,1-.48-3.84c.15-1.23-.36-.89-1.17-1.61-1.1-1-2.27-3.68-3.12-5.12a51.9,51.9,0,0,0-5.3-7.44,40.64,40.64,0,0,0-11.2-8.36,4.44,4.44,0,0,1-2.52-2.46c-.31-.63-.34-.53-1-.24-1.89.82-3.61,0-5.42-.38s-5.55-1.21-7.18-.84c-.59.14-2.08.85-2.35.85a12.64,12.64,0,0,1-3.09-1.4c-.35-.19-.68-.37-1-.55-7.49-3.43-14.13-5.34-22-.44-2.31,1.43-1.92,1.26-4.39.06-2.78-1.35-4.23-1.85-7.32-.38s-4.14,3-6.45,5.58c-2.35,2.09-5.13,2.35-7.87,4-3.26,2-3.36,2.39-5.9,5.25-5.1,5.47-8.74,1.21-14.14,12.19-3,5.48-7.71,4.36-9.68,13.28a20.7,20.7,0,0,0-.46,5.48c.37,5.18,1.47,3.92-.64,9.72l-.4,1.11c-1.69,5.58-.46,9.27,2.82,13.31,5.94,7.42-2.44,9.37,8.06,15.48,1.64,1,4.8,5.6,7.41,7.87-.19-.18,5.47,6.71,7.17,7.71,5.6,3.31,3-.32,9,6,3.49,3.72,8.51.51,13.17,3.75,7.78,5.4,12.23,1.58,18,3.16,4.42,1.21,4.19,1,9.26,1.36,2.94.23,4,.77,6.58,1.46,3.43.91,8.81-.23,11.93-2.4,2.26-1.57,2-1.86,4.65-2.36,3.41-.64,6.91-4.17,9.26-6.89,1.87-2.18,2-3.34,3.34-5.55,1-1.69,2.83-2.91,4.19-4.95,1-1.47,1.68-2.74,2.72-4.2s1.25-2.9,1.95-4.68C206.56,211.15,207.47,208.89,208.35,206.49Z"/><path class="cls-20" d="M137.84,167c-1.94,2.88-1.56,5.41-1.76,8.72-.06,1-.15,1.82-.29,2.77a59.17,59.17,0,0,1-3.55,13.41c-2.51,6.63,2.57,6.15,2.9,12.33a34.7,34.7,0,0,0,.3,5.68l.05.28c.63,3.38,3.75,4.17,5.32,10.18,2.42,9.23,9.18,11.67,12.29,18,1.82,3.72,7.86,3.47,11.55,4.27,3.52.73,8.79,1,12.16-1.09,2.72-1.72,3.14-2.6,6.4-3.83s4.21-2.2,6.79-4.85c2.8-2.9,2.45-3.63,4.34-6.69,1.75-2.82,4-3.49,6-6.87a76.19,76.19,0,0,0,9.78-38.55c0-1.13.07-2,.12-3.08a23.72,23.72,0,0,0-.56-4,69.34,69.34,0,0,0-2.84-13.18,32.89,32.89,0,0,0-1.92-5.15,73,73,0,0,0-4.06-7.49,47.81,47.81,0,0,0-3-4.15,32.07,32.07,0,0,0-12.2-9.42c-1.78-.77-3.11.45-5.14.28a6.11,6.11,0,0,1-3.09-1.23c-2-1.4-3.92-2.35-6.45-1.32-3.07,1.25-4.91,3.44-7.83,5-.9.49-1.83.92-2.76,1.34a15.52,15.52,0,0,0-3.7,2.42c-1.68,1.43-3.36,2.76-5,4.17-1.32,1.26-1.49,2.54-2.28,4.18-2.11,4.34-1.94,6-5.18,10.07-1.46,1.87-2.87,3.6-4.43,5.38A22.77,22.77,0,0,0,137.84,167Z"/><path class="cls-21" d="M189.58,152.51c.6-1.32,3.63-10.31,5-9.85,1.78.6-1.07,7.42,1.75,8.08l.54.07c1.83.06,2.23.54,2.23,2.62,0,1.71-.47,4.13.32,5.61,1.32,2,4.38-.93,4.93,2.38.33,1.94-.66,4.81-.91,6.93-.18,1.47-.4,2.77.27,4.07.61,1,1.24,1.71,1.89,2.81,1,1.75,2.14,3.5,1.53,5.74a34.32,34.32,0,0,0-1.11,4.28l0,.17c-.34,2.31-.56,4.57-.87,6.88-.47,3.4.56,4.31-1.21,7.93a27.93,27.93,0,0,0-1.58,3.94c-.75,2.3-1,5.66-1.5,8.08-.36,1.84-1,2.08-2.19,3.27s-1.64.94-2.79,2.64-1.83,1.3-3.49,1.08-1.85,1.43-2.14,2.77c-.71,3.45-.88,5.87-4,7.86-5.83,1.78-5.5-8.36-8,3-1,4.42-5.78,5.94-8,2.41-4.29-6.71-4,5.12-9.44-.12-3.18-3.1-.78-7.64-5.35-6.56-1.35.32-2.81-1.7-4.69-2.66-5.49-2.8,8-24.72-2.2-12.76-2.91,3.42-6.32,6.26-7.2.2-.76-5.15,5.62-4.23-1-8.64-2.07-1.37-2.27-4.9.18-6.83,5-4,.21-2.55-2.46-5.65-3.07-3.56,5.58-3.81,3.76-7s-2.8-4,2.58-4.1a23.41,23.41,0,0,0,6.54-.63c4.46-1.14,7.06-.33,2.13-5-2.58-2.44-7.11-5.72-6.41-10.07,1.2-4.28,5.3,0,5.1-6.3-.09-2.76.26-4.92,3.31-3.54,3.24,1.48,7.43,7.53,8.84,7.77.31,0,.22-.3.17-.65-.24-1.52-2-5.16-2.6-7-.23-.69-.44-1.39-.65-2.09-.6-2-2.48-8.11-.7-9.52,2.14-1.24,5.78,8.47,6.62,10.09,1.42,2.71,4.39,7.26,3.2.28-.29-1.68-2.65-15.33,1-14.56,2.53.53,2.95,8.17,6.94,7.94l1.07-.2c1.6-.56,1.64-3.64,1.93-5.33s1.81-9.89,3.67-4.5a28.78,28.78,0,0,1,1.17,7.79c0,1.4-.67,14.43,3,8.41.31-.5.56-1,.82-1.57Zm-16.75,54.34a40.91,40.91,0,0,0-3.72,10.55c-1.1,5,.59,10.86,6,6.82,3.21-2.39,12.35.06,3-13.13-1-1.4-3.24-6.21-5.31-4.24Zm21.64-25c-1.52.78-5.23,2.6-5.64,4.5-.59,2.69,4.77.27,5.45,0,3.33-1.22,2.71.18,2.31,2.74-.72,4.66,6-3.78,5-7.13-.91-3-5.32-1-7.12-.13Zm-32.95-6.46c2,2.07,4.79,4.24,7.56,4.8,3.18.63,5.53-2,4.72-5.36-.49-2-1.67-3.07-3.62-3-2.59.15-4-.68-6.18-2-1.06-.62-4.89-3.59-5.52-1.17S160.18,173.9,161.52,175.41Z"/><path class="cls-22" d="M157.73,137.88c1.87-1.06,7.14-3.52,7.92-5.6.87-2.35-3.46-3.92-4.92-4.46-5-1.67-11.69-2.12-16.29,1.73-3.39,2.84-.49,6.37,1.33,8.84,2.53,3.43,4.64,5.44,8.71,2A25.65,25.65,0,0,1,157.73,137.88Z"/><path class="cls-23" d="M161.72,129.66c-3.86-2.48-9.86-3.61-13.52.51-2.72,3.08,1.72,8,5.84,6.65,1.77-.59,9.05-3.5,8.43-6.13l-.16-.38-.29-.39Z"/><path class="cls-22" d="M145.78,150.12c3.32-5.61,1-7.13-4.16-7.68-2.93-.26-9.32,0-11.61,2.42-1.89,2-3,5.07-2.22,7.71a9.37,9.37,0,0,0,.61,1.41c1.13,1.8,2.21,2.68,3.32,4.72,1.21,2.24,3.17,5.39,5.81,2.78C141.9,157.16,142.65,155.19,145.78,150.12Z"/><path class="cls-23" d="M143.7,143.6a14.7,14.7,0,0,0-10.21.9c-4.32,2.54-.6,5.74,1.14,8.06,2.75,3.68,3.87,2.48,6.69-.75,1.18-1.34,4-4.23,4.23-5.82a1.74,1.74,0,0,0-.37-1.51A3.22,3.22,0,0,0,143.7,143.6Z"/><path class="cls-22" d="M141.71,134.06c-1.82-3.85-3.72-7.82-8.57-6.29-4.66,2.31-10.93,8.75-5.81,13.64,2.32,2.21,5.81.78,8.76.38a45.49,45.49,0,0,1,5-.14c4.12-.23,2.89-2.91,1.59-5.64Z"/><path class="cls-23" d="M139.68,133.17c-1.29-3.93-3.34-6.55-7.34-3.52-1.92,1.79-4.57,5.25-2.7,7.87,1.37,1.92,5.61.84,7.76.64a7.29,7.29,0,0,0,2.61-.6C141,136.7,140,134.18,139.68,133.17Z"/><path class="cls-22" d="M126.82,147.49c.85-1.23,2.32-3,1.24-4.29a30.45,30.45,0,0,1-2.3-2.65c-2.12-3.17-2.24-5.12-6.4-2.85-2.16,1.19-5.46,3.15-6.62,5.54-1.39,2.86-1.55,7.92.74,9.93,1.23,1.08,3.45.51,5.17.71,3,.34,4.42.36,6.19-2.81A32.63,32.63,0,0,1,126.82,147.49Z"/><path class="cls-23" d="M125.48,146.56c2.37-3,1-3.48-.64-6.19-2.64-4.12-3.91-3-7.36,0-2.28,2-4.16,4.35-2.41,7.36,1.19,2,6.05,2.88,8,1.65A12.54,12.54,0,0,0,125.48,146.56Z"/><path class="cls-24" d="M131.85,161.6a14.85,14.85,0,0,1-3.44-4.86c-.85-1.74-1.63-2.46-3.54-2.25a38.46,38.46,0,0,1-5.26.54c-4.27.32-4.86,2.49-5.28,6.65-.21,1.55-1,2.87-1.11,4s1.06,2.38,1.65,3.37,1.38,2.94,2.27,3.64c1.78,1.4,4.17.15,6.22-.31.61-.12,1.21-.25,1.83-.36,2.85-.48,6.94-1.16,8.5-4.39C134.79,165.3,133.15,163.13,131.85,161.6Z"/><path class="cls-25" d="M125.25,155.56c-.84.06-2.35.37-3.28.5-5,.72-5.06,3.19-4.26,7.85a5.35,5.35,0,0,0,2.66,3.79,4.16,4.16,0,0,0,1.4.48,17.91,17.91,0,0,0,5.16-.17c2.32-.3,5.71-1.24,4.28-4.59-.92-1.73-2-2.93-2.93-4.92C127.53,157,127.07,155.62,125.25,155.56Z"/><path class="cls-22" d="M125.39,174.35a33,33,0,0,1-6.1,1.37,7.79,7.79,0,0,0-5.9,4.17c-2.08,4,.49,5.05,2.84,8.8,3,4.73,4,5.16,9.28,5.65,4.83.45,5.47-8.1,6.45-12.07C133.94,174.25,133.13,172.12,125.39,174.35Z"/><path class="cls-23" d="M126.22,174.76c-1.93.74-3.8,1.47-5.74,2.19-1.51.58-3.39,1.59-3.63,3.54.05,1.47,7.24,14.78,11.46,5.83,1.64-3.47,6.9-13.26.26-12.21l-2,.52Z"/><path class="cls-22" d="M99.8,165.51c1.83.64,4.79,0,6.94.12,4,.34,3.67-.25,5.05-4.29,2-6,.49-4.81-1.18-9.15-1-2.71-.68-7-4.89-4.88-4.48,2.26-8.82,7.82-9,13.26C96.61,163.23,97.64,164.61,99.8,165.51Z"/><path class="cls-23" d="M103.27,150.65c-3.76,4.86-5.1,11.74,2.43,11,4.07-.41,5.18-4.75,4.4-8.41-.95-4.47-2.23-7.88-6.4-3.07Z"/><path class="cls-22" d="M109.79,180.36c1.66-2.56,3.68-3.14,4.91-4.93,1.28-2.07-.08-3.14-1.38-4.48a6.66,6.66,0,0,1-1.86-3c-.73-1.67-2-1.14-3.52-.93a10.18,10.18,0,0,1-4.22.06c-2.51-.48-3.56.16-5.26,2.34-1.87,2.4-4,4.87-3.34,8.17a14.93,14.93,0,0,0,3.08,5.81l.45.6c2.12,2.89,3,2.71,6.09,1,2.45-1.39,3-1.47,4.7-4.07Z"/><path class="cls-23" d="M110.34,176.27c2.16-1.34,3.86-2.33,2.27-5.05-.4-.7-1.49-3.05-2-3.35-.93-.58-3.54.13-4.62.36-1.29.28-2.58,0-3.55.25-1.6.49-2.81,3.23-2.86,4.9a9.41,9.41,0,0,0,1.34,5.17c1.43,1.88,3.42,1.29,5.3.34C107.65,178.13,109,177.13,110.34,176.27Z"/><path class="cls-26" d="M111.19,186.08c-2.39-2.32-4,.17-6.71.73-1.36.28-3.7.35-4.3,2-.76,2.91-.5,10,1.13,12.4,5.78,8.54,21.45-1.09,14.71-9-2.16-2.52-2.41-3.1-4.52-5.8Z"/><path class="cls-27" d="M109.72,185.78c-1.35-.12-3.45,1.38-4.61,2.24-4.24,3.94-.1,16.74,8.24,10.17,4.19-3.3.57-6.3-1.53-10.08A4.38,4.38,0,0,0,109.72,185.78Z"/><path class="cls-28" d="M129.54,213.05c6.11-.83,2.7-7.74,1.67-11.94-1.14-4.67-3.13-3.62-7.37-5.4-3.82-1.6-4.61,2.76-7.32,6.59-4.28,6,2.68,12.55,10.15,11.07A21.54,21.54,0,0,1,129.54,213.05Z"/><path class="cls-29" d="M129.78,207.17c1.39-3.23,1.19-8.7-2.94-9.6-5.46-1.18-5.53-2.7-7.45,6.08C118.3,208.6,127.27,211.08,129.78,207.17Z"/><path class="cls-28" d="M131.36,214.06c-5.55,1.26-10.65,0-10.26,8.29.27,5.58,7,6.87,11.23,6.83,5.41-.06,9.12-3.23,6.7-9.41C137.28,215.31,136.45,212.78,131.36,214.06Z"/><path class="cls-29" d="M128.07,215.94c-6.66,2.56-2.88,9.05,2.38,9.26,11.48.46,6.47-10.76,3-10.78C132.15,214.42,129.4,215.49,128.07,215.94Z"/><path class="cls-30" d="M100.37,213.43c-1,1.79,2,4.4,3.3,5.84,3.35,3.77,6.48,1.78,10.85.69,2.7-.68,8.85-3.05,4.41-6.26-5.11-3.7-4.63-6.78-6.52-8-1-.62-6.27,0-7.25,1.76C101.81,213.52,103.3,210,100.37,213.43Z"/><path class="cls-29" d="M114.68,210.86c-1.48-3.63-2.82-6.31-7-3.39-1.22.85-4,5.61-2.12,7.5,3.35,3.33,3.66,2.85,8.71,1.65C118.51,215.62,115.5,212.71,114.68,210.86Z"/><path class="cls-28" d="M140.19,240.74c3.46.42,14.79,0,8.84-6.35-2.2-2.37-6.36-8.43-9.85-6.81-5.25,2.43-10.68,6.81-3.48,11.45A12.05,12.05,0,0,0,140.19,240.74Z"/><path class="cls-29" d="M147.21,234.48c-2-4.27-7-10-10.84-2.86C133.07,237.79,149.17,240,147.21,234.48Z"/><path class="cls-28" d="M109.52,226.42c2.39,2.54,12.32,7.27,10.06-.61-1.91-6.67.37-5.3-7.63-4C108.77,222.28,107.18,223.27,109.52,226.42Z"/><path class="cls-29" d="M113.14,226.45c7.79,4.12,5.47-4.86,4.51-5.14C117.27,221.2,108.44,223,113.14,226.45Z"/><path class="cls-26" d="M131.9,231.8c.33-2.59-4.83-2.82-7.62-3.82-7.56-2.71-5.14,11.43,3.8,8.16C130.06,235.41,131.09,233.78,131.9,231.8Z"/><path class="cls-27" d="M123.7,233.34c4.36,2.5,13-3.54.17-4.73C121.19,228.37,121.7,231.79,123.7,233.34Z"/><path class="cls-28" d="M97.28,183.4c-1.7-1.72-2.29-3.9-3.55-5.13-2.92-2.89-6.74,4.76-7.27,7.45-1.2,12.4,12.74,20.3,12,11.64-.27-3.1-.61-3.21.13-6.57C99.48,187.25,99.77,186,97.28,183.4Z"/><path class="cls-29" d="M98.23,186.5c-.45-2.11-1.77-3-3.06-4.43-1.66-1.9-2.76-2.14-4.19.56a10,10,0,0,0,2.33,12c1.63,1.2,2.35,1,3.19-1.1C97.19,191.56,98.39,188.52,98.23,186.5Z"/><path class="cls-26" d="M98.81,211.91c2.77-1.19,8.48-5.33,3.85-8-3.91-2.22-1-4.6-7.59-2S93.17,213.44,98.81,211.91Z"/><path class="cls-27" d="M95.78,203.48c-4.2,6.54,6.19,6.69,6.72,2.11,0-.45-2.33-4.78-4.19-4A10.29,10.29,0,0,0,95.78,203.48Z"/><path class="cls-24" d="M95.34,162.22c-.86-2.22-1.71-3.34-3.84-1.28-3.16,3.8-3.38,8-3.4,12.7.08,4.39.89,3.53,4.33,2.85,2.31-.45,1-1.94,2.48-4.21,1-1.57,3.63-3.41,3.38-5.19-.12-.84-1.51-2.3-2-3.09l-.09-.14A9.34,9.34,0,0,1,95.34,162.22Z"/><path class="cls-25" d="M96.6,166.11c-.59-1.28-1.16-2.36-1.73-3.68-.87-1.93-1.75-1.9-3-.07-1.31,2.28-2.69,6.3-1.53,8.74,1.27,1.75,2.78.09,4.09-1s2.35-2,2.25-3.75Z"/><path class="cls-31" d="M169.62,140.29c1.95,11,2.94,22.21,3.9,33.41-.85-11.62-1.79-23.66-3.84-35l-.06,1.6ZM175.21,178v.13c-.47-4.86-.82-9.79-1.27-14.67-.83-9.15-1.93-19.51-4.1-28.26a15.34,15.34,0,0,1-.21-2.16,57.82,57.82,0,0,1,1.57,6.64c2.34,12.25,3.1,25.71,4,38.32Zm-5.44-41.37c0-.24,0-.48,0-.71,0-1-.17-1.71.16-.23,2.93,13.09,3.81,28,4.79,41.59-1.16-13.36-2.17-27.72-4.94-40.65Zm-.05,1.87c0-.56,0-1.12,0-1.67,2.43,12,3.42,25.57,4.31,38C173,162.79,172,150.29,169.72,138.53Z"/><path class="cls-31" d="M168.81,197.87c-1.92,3.33-20.18,32.93-17.07,26-.06,0,10.55-15.33,11.58-17,2.11-3.39,4.11-6.8,6.16-10.22l-.67,1.18Zm3.62-3.59.6-1.08c-5,8.3-9.47,16.3-15,24.28-2.84,4.08-7.09,8.67-9.21,12.31,9.49-10.51,16.58-23.13,23.64-35.51Zm-.9.69.63-1.12c-4.14,6.92-8,13.65-12.47,20.36-2.9,4.34-8,10.29-10,14,8.78-10.5,15.08-21.36,21.88-33.28Zm-1.74,2.09.68-1.21c-3.38,5.66-6.58,11.16-10.21,16.67-2.61,4-8.1,10.72-9.75,14.06C158.08,217,163.69,207.7,169.79,197.06Z"/><path class="cls-31" d="M198.76,157c-6.24,7.72-11.69,16-17.1,24.24,5.48-8.62,11.22-17.53,17.69-25.5-.2.42-.4.84-.59,1.26Zm2.12-4.27c.26-.46.52-.9.79-1.35-1,1-2,2.12-3,3.23-7.5,8.66-14.23,19.7-20.44,29.49,6.81-10.28,14.24-22.33,22.62-31.37Zm-.79,1.42c.25-.46.5-.91.76-1.36-7.92,8.75-15.41,20.8-21.75,30.78,6.48-9.84,13.22-20.51,21-29.42Zm-.71,1.45.66-1.29c-7.09,8.35-13.49,18.4-19.34,27.61C186.53,173.05,192.53,163.83,199.38,155.62Z"/><path class="cls-31" d="M176.2,201.83c.48,3.85,4.63,33.28,4.7,27.24,0-.09-3.68-20.15-4.08-23-.26-1.84-.51-3.68-.77-5.52l.15,1.31Zm-1.85-4.08-.14-1.23c1.15,7.83,2,15.56,3.47,23.34.91,4.79,3,11,3.41,15-3.89-11.82-5.26-24.58-6.74-37.15Zm.54.89-.14-1.28c1,6.75,1.77,13.43,2.95,20.13.83,4.74,3,11.91,3.26,15.82-3.29-11.47-4.64-22.69-6.07-34.67Zm.74,2.2-.15-1.34c.53,3.71,1,7.43,1.56,11.13.36,2.39,3.9,19.84,3.82,19.83C181,238,176.08,204.5,175.63,200.84Z"/><path class="cls-31" d="M199.11,202.53c-5.81-2.64-11.21-6.24-16.58-9.85,5.5,3.88,11.23,7.84,17.25,10.55-.23-.23-.45-.46-.67-.7Zm2.33,2.29c.27.23.54.44.82.65-7.29-1.93-16.18-8.55-22.6-13.09,6.74,4.45,14.27,10,21.78,12.44Zm-.83-.71.8.68c-7.15-2.47-14.72-8-21.08-12.49,6.42,4.29,13.2,9.11,20.28,11.81Zm-.79-.78.72.68c-6.51-2.65-12.92-7.16-18.79-11.31C187.53,196.59,193.51,200.65,199.82,203.33Z"/><path class="cls-20" d="M144,137.85a9.56,9.56,0,0,1-1.34-.62,11.75,11.75,0,0,1-3.6-3.46,30,30,0,0,1-3.39-6.89,30.93,30.93,0,0,0,3.24,7,12.07,12.07,0,0,0,3.59,3.63,8.78,8.78,0,0,0,2,.92,7.45,7.45,0,0,1-.52-.6Zm2.34,1.91a9.74,9.74,0,0,0,1.21.46,9.9,9.9,0,0,1-5.74-1.42,13.1,13.1,0,0,1-4-4,39.77,39.77,0,0,1-4.55-10.8A39.88,39.88,0,0,0,138,134.68a12.72,12.72,0,0,0,4,3.8,9.52,9.52,0,0,0,4.36,1.28Zm-1-.57a10,10,0,0,0,1,.54,9.3,9.3,0,0,1-4.25-1.36,12.77,12.77,0,0,1-3.86-3.85,37.7,37.7,0,0,1-4.21-9.75,36.92,36.92,0,0,0,4.38,9.61,12.42,12.42,0,0,0,3.85,3.69,9,9,0,0,0,3.14,1.12Zm-.78-.66a6.23,6.23,0,0,0,.7.57,9.11,9.11,0,0,1-3-1.16,12.18,12.18,0,0,1-3.72-3.74,32.18,32.18,0,0,1-3.56-7.84,31.91,31.91,0,0,0,3.71,7.71,11.87,11.87,0,0,0,3.72,3.58A9.21,9.21,0,0,0,144.57,138.53Z"/><path class="cls-20" d="M138.2,146.14a49.08,49.08,0,0,0-6.09,1,18.56,18.56,0,0,0-4.89,1.78,9.52,9.52,0,0,0-1,.68,8.61,8.61,0,0,1,1-.65,18.53,18.53,0,0,1,4.9-1.61,43.3,43.3,0,0,1,6.58-.8l-.52-.36Zm1.61,1.28a3.41,3.41,0,0,1,.39.45,41,41,0,0,0-7.87.84,17.7,17.7,0,0,0-4.53,1.49,6.26,6.26,0,0,0-1.51,1.11,2.88,2.88,0,0,0-.74,1.33,2.84,2.84,0,0,1,.71-1.36,6,6,0,0,1,1.5-1.17,17.73,17.73,0,0,1,4.53-1.64,49.65,49.65,0,0,1,7.52-1.05Zm-.49-.42a5.71,5.71,0,0,1,.47.39,43.88,43.88,0,0,0-7.53.86,18,18,0,0,0-4.64,1.54A6.16,6.16,0,0,0,126,151a4.05,4.05,0,0,0-.61.86A3.57,3.57,0,0,1,126,151a6.64,6.64,0,0,1,1.63-1.27,18,18,0,0,1,4.65-1.68,47.58,47.58,0,0,1,7.08-1Zm-.56-.43a4.54,4.54,0,0,1,.5.36,43.56,43.56,0,0,0-7.06.83,18.51,18.51,0,0,0-4.78,1.58,7.49,7.49,0,0,0-1.45,1,8.16,8.16,0,0,1,1.44-1.05,18.52,18.52,0,0,1,4.76-1.73A46.62,46.62,0,0,1,138.76,146.57Z"/><path class="cls-20" d="M127.8,168.23a20.28,20.28,0,0,1-2.07-.33,9.58,9.58,0,0,1-3.82-1.68,24.91,24.91,0,0,1-4.53-5.2,26.48,26.48,0,0,0,4.42,5.37,9.57,9.57,0,0,0,3.85,1.82,20.67,20.67,0,0,0,2.83.49l-.68-.47Zm2.83,1.61c.44.18.88.34,1.33.5a33.72,33.72,0,0,1-6.67-.73,10.66,10.66,0,0,1-4.31-2c-2.75-2.31-5.27-6.46-7.42-9.49,2.18,3,4.76,7.06,7.56,9.29a10.61,10.61,0,0,0,4.26,1.88,30.56,30.56,0,0,0,5.25.56Zm-1.15-.52c.36.18.73.34,1.1.49a29.74,29.74,0,0,1-5.17-.67,10.37,10.37,0,0,1-4.16-1.93c-2.5-2.1-4.6-5.53-6.52-8.27,2,2.69,4.1,6.06,6.64,8.08a10.3,10.3,0,0,0,4.12,1.81,25.29,25.29,0,0,0,4,.49Zm-.94-.54.84.47a25,25,0,0,1-3.85-.59,9.94,9.94,0,0,1-4-1.87,30.17,30.17,0,0,1-5-6.18,28.87,28.87,0,0,0,5.13,6,9.83,9.83,0,0,0,4,1.74A23.76,23.76,0,0,0,128.54,168.78Z"/><path class="cls-20" d="M114.78,195.17a13.65,13.65,0,0,0-1.21,1,12.44,12.44,0,0,0-2.7,3.4,37,37,0,0,0-2.4,6,35.91,35.91,0,0,1,2.56-5.9,12.39,12.39,0,0,1,2.72-3.25,13.45,13.45,0,0,1,1.73-1.21Zm2.58,0,1,0a14.25,14.25,0,0,0-3.85,2.2,10.49,10.49,0,0,0-2.36,2.84,60.51,60.51,0,0,0-3.59,8.89,66.1,66.1,0,0,1,3.39-9,11,11,0,0,1,2.37-3,13.75,13.75,0,0,1,3-2Zm-.93,0c.29,0,.59,0,.89,0a14,14,0,0,0-3,1.88,11.36,11.36,0,0,0-2.48,3,52.13,52.13,0,0,0-3.28,8,55,55,0,0,1,3.11-8.15,11.39,11.39,0,0,1,2.47-3.12,13.27,13.27,0,0,1,2.34-1.63Zm-.87,0h.77a13.56,13.56,0,0,0-2.33,1.53,11.92,11.92,0,0,0-2.6,3.12,38.52,38.52,0,0,0-2.73,6.45,39.92,39.92,0,0,1,2.57-6.55,12,12,0,0,1,2.59-3.26A13.4,13.4,0,0,1,115.56,195.19Z"/><path class="cls-20" d="M122.51,180.26a20.66,20.66,0,0,1-4.35.4,7.33,7.33,0,0,1-2.93-.62,3.39,3.39,0,0,1-.65-.41,3.59,3.59,0,0,0,.63.45,7,7,0,0,0,2.93.77,21.14,21.14,0,0,0,4.82-.28l-.45-.31Zm1.58,1.06.54.34a24.91,24.91,0,0,1-6.64.64,8.49,8.49,0,0,1-3.43-.87,4.29,4.29,0,0,1-1.29-1,3.87,3.87,0,0,1-.77-1.56,3.78,3.78,0,0,0,.81,1.52,4.13,4.13,0,0,0,1.3,1,8.46,8.46,0,0,0,3.41.74,23.26,23.26,0,0,0,6.07-.75Zm-.55-.33.53.31a24.09,24.09,0,0,1-6,.53,8.19,8.19,0,0,1-3.27-.83,4.11,4.11,0,0,1-1.17-.95,3.56,3.56,0,0,1-.49-.82,3.28,3.28,0,0,0,.52.79,3.64,3.64,0,0,0,1.18.89,7.88,7.88,0,0,0,3.25.7,22.16,22.16,0,0,0,5.48-.62Zm-.54-.36.48.3a22.79,22.79,0,0,1-5.39.4,7.65,7.65,0,0,1-3.09-.8,3.63,3.63,0,0,1-1-.77,3.91,3.91,0,0,0,1,.72,7.78,7.78,0,0,0,3.09.65A20.78,20.78,0,0,0,123,180.63Z"/><path class="cls-20" d="M104.05,169.51a11.9,11.9,0,0,0-4.51,1.16,8.66,8.66,0,0,0-2.91,2.46,11,11,0,0,0-1,1.54,9.6,9.6,0,0,1,1-1.5,8.27,8.27,0,0,1,2.93-2.32,11.94,11.94,0,0,1,5-1c-.16-.13-.33-.25-.51-.37Zm1.84,1.34.69.49a13.58,13.58,0,0,0-6.47.81,6.89,6.89,0,0,0-2.41,1.9,10.41,10.41,0,0,0-1.8,3.54A10.76,10.76,0,0,1,97.61,174a6.93,6.93,0,0,1,2.42-2,12.61,12.61,0,0,1,5.86-1.09Zm-.67-.45.64.43a12.72,12.72,0,0,0-5.91.9,7,7,0,0,0-2.58,2,10.33,10.33,0,0,0-1.65,3,10.62,10.62,0,0,1,1.57-3.07,7.55,7.55,0,0,1,2.58-2.17,12.15,12.15,0,0,1,5.35-1.13Zm-.61-.45.55.38a12.29,12.29,0,0,0-5.38.95A7.64,7.64,0,0,0,97,173.46a9.76,9.76,0,0,0-1.2,1.89A10.73,10.73,0,0,1,97,173.41a8.12,8.12,0,0,1,2.75-2.31A11.8,11.8,0,0,1,104.61,170Z"/><path class="cls-20" d="M103.84,154.27a19.73,19.73,0,0,1-3.51.19,11.74,11.74,0,0,1-3.17-.57,5.78,5.78,0,0,1-2.38-1.44l-1.27-1.63c.42.58.84,1.17,1.27,1.73a5.82,5.82,0,0,0,2.32,1.5,11.56,11.56,0,0,0,3.2.68,19,19,0,0,0,4.19-.17l-.65-.29Zm2.4.92.91.22a20.92,20.92,0,0,1-7,.75,12.81,12.81,0,0,1-3.53-.72,7.22,7.22,0,0,1-2.86-1.84c-1.07-1.41-2.08-2.81-3.1-4.18l3.15,4a7,7,0,0,0,2.88,1.78,12.86,12.86,0,0,0,3.49.62,20.88,20.88,0,0,0,6.07-.67Zm-.87-.25.83.23a20.72,20.72,0,0,1-6,.52,12.39,12.39,0,0,1-3.42-.7,6.68,6.68,0,0,1-2.7-1.75c-.88-1.16-1.73-2.34-2.59-3.49l2.66,3.4a6.51,6.51,0,0,0,2.69,1.65,12.21,12.21,0,0,0,3.39.61,20.43,20.43,0,0,0,5.15-.47Zm-.82-.32.73.27a20.3,20.3,0,0,1-5,.31,12,12,0,0,1-3.31-.69,6.32,6.32,0,0,1-2.53-1.65c-.54-.71-1.08-1.47-1.63-2.21.57.72,1.7,2.18,1.7,2.18A6.37,6.37,0,0,0,97,154.35a12,12,0,0,0,3.28.58A19.86,19.86,0,0,0,104.55,154.62Z"/><path class="cls-20" d="M115.44,151.66a15.44,15.44,0,0,1-4.48-4.45,11.09,11.09,0,0,1-1.62-4.54,14.23,14.23,0,0,1-.07-2.17,13.2,13.2,0,0,0,0,2.18,11.06,11.06,0,0,0,1.52,4.65,15.92,15.92,0,0,0,5,5.07l-.4-.74Zm1.68,2.65q.38.48.78.93c-3.42-1.79-6-3.63-8.22-7a12.57,12.57,0,0,1-1.74-5.21,16.3,16.3,0,0,1,.72-6.41,16.12,16.12,0,0,0-.61,6.38,12.24,12.24,0,0,0,1.82,5.1,18.35,18.35,0,0,0,7.25,6.25Zm-.7-.91.67.87a18.37,18.37,0,0,1-7-6.36,12,12,0,0,1-1.68-5,15.3,15.3,0,0,1,.41-5.12,14.86,14.86,0,0,0-.31,5.09,11.84,11.84,0,0,0,1.75,4.92,17.28,17.28,0,0,0,6.2,5.62Zm-.55-.9c.16.27.33.53.5.79a17,17,0,0,1-5.93-5.68,11.56,11.56,0,0,1-1.6-4.83,14.45,14.45,0,0,1,0-3,13.67,13.67,0,0,0,0,3,11.28,11.28,0,0,0,1.68,4.72A16.18,16.18,0,0,0,115.87,152.5Z"/><path class="cls-20" d="M124.63,205.86a30.15,30.15,0,0,1-1.81,5.54,13.8,13.8,0,0,1-2,3.33c-.15.17-.29.33-.45.48.17-.15.32-.3.47-.46a13.42,13.42,0,0,0,2.11-3.28,30.54,30.54,0,0,0,2.14-6.06l-.47.45Zm1.62-1.65c.17-.22.34-.43.52-.64a31.48,31.48,0,0,1-2.61,8.45,15.39,15.39,0,0,1-2.34,3.69,6.51,6.51,0,0,1-1.42,1.21,3.53,3.53,0,0,1-1.57.55,3.52,3.52,0,0,0,1.55-.59,6.39,6.39,0,0,0,1.37-1.23,15.51,15.51,0,0,0,2.23-3.71,31,31,0,0,0,2.27-7.73Zm-.52.6c.16-.19.33-.38.49-.58a31.46,31.46,0,0,1-2.45,7.61,15.14,15.14,0,0,1-2.26,3.56,6.32,6.32,0,0,1-1.31,1.12,3.72,3.72,0,0,1-.76.35,3.74,3.74,0,0,0,.75-.37,6.25,6.25,0,0,0,1.26-1.15,15.14,15.14,0,0,0,2.15-3.58,31.1,31.1,0,0,0,2.13-7Zm-.55.56c.16-.16.31-.33.47-.5a31.86,31.86,0,0,1-2.29,6.78,14.55,14.55,0,0,1-2.19,3.42,6,6,0,0,1-.87.8,6,6,0,0,0,.84-.83,14.56,14.56,0,0,0,2.07-3.46A30.73,30.73,0,0,0,125.18,205.37Z"/><path class="cls-20" d="M107.77,216.61a54.16,54.16,0,0,0-3.51,5.31,16.09,16.09,0,0,0-2,6.56,15.87,15.87,0,0,1,2.17-6.47,65.05,65.05,0,0,1,4.07-5.77c-.23.13-.47.25-.71.37Zm2.63-1.49,1-.72c-1.92,2.72-4.17,5.43-5.85,8.27a14.58,14.58,0,0,0-2,8.82.43.43,0,0,0-.09-.21.4.4,0,0,0-.18-.1.43.43,0,0,0-.22,0,.49.49,0,0,0-.15.17,1.28,1.28,0,0,1,.11-.2l-.11.21a.38.38,0,0,1,.16-.17.29.29,0,0,1,.2,0,.25.25,0,0,1,.18.1.3.3,0,0,1,.08.2,15,15,0,0,1,1.83-8.93c1.45-2.6,3.33-5,5-7.44Zm-.94.61.89-.59c-1.74,2.4-3.66,4.75-5.17,7.31a15.05,15.05,0,0,0-2.09,8.66,15.33,15.33,0,0,1,1.92-8.76,74.28,74.28,0,0,1,4.45-6.62Zm-.88.5.77-.46a78.88,78.88,0,0,0-4.56,6.45,15.46,15.46,0,0,0-2.16,7,15.62,15.62,0,0,1,2-7.1A60,60,0,0,1,108.58,216.23Z"/><path class="cls-20" d="M130.78,220.74a21.57,21.57,0,0,1-5.49.25,10.71,10.71,0,0,1-3.93-1.08,7.82,7.82,0,0,1-1.15-.75,7.44,7.44,0,0,0,1.13.8,10.76,10.76,0,0,0,3.92,1.23,22.37,22.37,0,0,0,6.11-.15l-.59-.3Zm2.15,1,.79.27a24.8,24.8,0,0,1-8.68.65,11.94,11.94,0,0,1-4.37-1.33,7.52,7.52,0,0,1-3.15-3.26,7.48,7.48,0,0,0,3.2,3.15,11.76,11.76,0,0,0,4.36,1.2,24,24,0,0,0,7.85-.68Zm-.77-.28.74.26a24.1,24.1,0,0,1-7.79.47,11.53,11.53,0,0,1-4.22-1.3,7.11,7.11,0,0,1-2.6-2.4,7.13,7.13,0,0,0,2.64,2.31,11.4,11.4,0,0,0,4.22,1.17,23.41,23.41,0,0,0,7-.51Zm-.73-.33.65.27a23.15,23.15,0,0,1-6.89.29,11.16,11.16,0,0,1-4.07-1.26,7.19,7.19,0,0,1-1.59-1.21,7,7,0,0,0,1.62,1.15,11,11,0,0,0,4.07,1.12A22,22,0,0,0,131.43,221.1Z"/><path class="cls-20" d="M139,232.65l-.78.19a20,20,0,0,0-4.46,1.89,21.36,21.36,0,0,0-4.12,3c-.42.4-.8.8-1.18,1.24.39-.43.78-.82,1.21-1.21a21.34,21.34,0,0,1,4.17-2.87,19.43,19.43,0,0,1,4.44-1.72,11.62,11.62,0,0,1,1.41-.26,6.65,6.65,0,0,0-.69-.28Zm2.2,1.18a2.81,2.81,0,0,1,.54.55,7.1,7.1,0,0,0-3.23.18,18.1,18.1,0,0,0-4.12,1.62,19.83,19.83,0,0,0-3.87,2.68,11.17,11.17,0,0,0-2.6,3.29,11.27,11.27,0,0,1,2.53-3.37,20.56,20.56,0,0,1,3.85-2.82,18.62,18.62,0,0,1,4.15-1.76,9.21,9.21,0,0,1,2.75-.37Zm-.69-.45a5.74,5.74,0,0,1,.66.43,8.8,8.8,0,0,0-2.74.29,18.51,18.51,0,0,0-4.22,1.66,20.49,20.49,0,0,0-4,2.75,12.32,12.32,0,0,0-2.37,2.81,12.66,12.66,0,0,1,2.31-2.88,21,21,0,0,1,3.93-2.88,19.23,19.23,0,0,1,4.25-1.8,11.31,11.31,0,0,1,2.14-.38Zm-.76-.39a4.83,4.83,0,0,1,.69.33,10.66,10.66,0,0,0-2.09.31,19.44,19.44,0,0,0-4.33,1.69,21.15,21.15,0,0,0-4.07,2.82,15.55,15.55,0,0,0-1.58,1.66,13.9,13.9,0,0,1,1.55-1.7,20.93,20.93,0,0,1,4-3,20,20,0,0,1,4.36-1.84A12.07,12.07,0,0,1,139.79,233Z"/><path class="cls-20" d="M93,187.35a3.56,3.56,0,0,1-.83.56,4.53,4.53,0,0,1-2.06.44,4.74,4.74,0,0,1-1.59-.27,4.49,4.49,0,0,0,1.58.4,4.64,4.64,0,0,0,2.17-.3,3.93,3.93,0,0,0,1.15-.71,3.31,3.31,0,0,1-.42-.12Zm1.64.08a5.92,5.92,0,0,0,.66-.25,5.49,5.49,0,0,1-2.56,2.29,5.91,5.91,0,0,1-2.76.47,5.6,5.6,0,0,1-2.17-.54,2.39,2.39,0,0,1-.7-.47,1.09,1.09,0,0,1-.23-.33.75.75,0,0,1-.07-.47.83.83,0,0,0,.08.47,1,1,0,0,0,.24.31,2.81,2.81,0,0,0,.7.43,6.07,6.07,0,0,0,4.81-.16,5.16,5.16,0,0,0,2-1.75Zm-.6.1a2.84,2.84,0,0,0,.57-.1,4.94,4.94,0,0,1-2,1.61,5.43,5.43,0,0,1-2.56.42,5.18,5.18,0,0,1-2-.5,2.16,2.16,0,0,1-.59-.41,2,2,0,0,0,.6.36,5.15,5.15,0,0,0,2,.39,5.36,5.36,0,0,0,2.46-.53A4.83,4.83,0,0,0,94,187.53Zm-.56,0a2.57,2.57,0,0,0,.48,0,4.31,4.31,0,0,1-1.54,1.08A5.07,5.07,0,0,1,90,189a4.8,4.8,0,0,1-1.86-.49,5.38,5.38,0,0,0,4.13-.13A4.1,4.1,0,0,0,93.43,187.5Z"/><path class="cls-32" d="M107.07,205.71c0-.41.06-.78.13-1.19a13.69,13.69,0,0,1,1.55-4.46,15.51,15.51,0,0,1,3-3.88,14.66,14.66,0,0,1,1.45-1.18,16.18,16.18,0,0,0-1.48,1.14,15.71,15.71,0,0,0-3.15,3.82,14.22,14.22,0,0,0-1.71,4.53,12.23,12.23,0,0,0-.19,1.9c.12-.23.25-.46.38-.68ZM106,208.43c-.07.4-.13.79-.16,1.19a11.64,11.64,0,0,1-.22-5.26,15.63,15.63,0,0,1,1.88-5.06,17.12,17.12,0,0,1,3.44-4.25,14.44,14.44,0,0,1,4.55-2.79,14.33,14.33,0,0,0-4.48,2.89,16.9,16.9,0,0,0-3.32,4.26,15.29,15.29,0,0,0-1.74,5,11.59,11.59,0,0,0,0,4Zm.28-1.06c-.1.34-.19.67-.26,1a11.52,11.52,0,0,1,0-4,15,15,0,0,1,1.81-4.89,16.5,16.5,0,0,1,3.34-4.11,14.26,14.26,0,0,1,3.62-2.38,14.49,14.49,0,0,0-3.56,2.45,16.52,16.52,0,0,0-3.22,4.14,14.49,14.49,0,0,0-1.68,4.82,11.52,11.52,0,0,0-.09,2.93Zm.39-.91q-.18.39-.33.81a11.62,11.62,0,0,1,.16-2.82,14.6,14.6,0,0,1,1.76-4.7,16,16,0,0,1,3.24-4,15.31,15.31,0,0,1,2.08-1.54,15.53,15.53,0,0,0-2,1.59,16.08,16.08,0,0,0-3.12,4,14.25,14.25,0,0,0-1.62,4.64A12,12,0,0,0,106.63,206.46Z"/><path class="cls-28" d="M100.88,175.27a23.82,23.82,0,0,1,4.88-2.18,6.21,6.21,0,0,1,2.9-.14,6.7,6.7,0,0,1,1.06.3,6.81,6.81,0,0,0-1-.35,6.35,6.35,0,0,0-2.94,0,25.11,25.11,0,0,0-5.55,2.29l.7.06Zm-2.66-.08-1.08.08c2.65-1.37,5.55-3,8.37-3.76a7.54,7.54,0,0,1,3.5-.06,10.48,10.48,0,0,1,3.62,1.71,10.2,10.2,0,0,0-3.65-1.6,7.44,7.44,0,0,0-3.44.16,37.9,37.9,0,0,0-7.32,3.47Zm1,0-.95,0a35.42,35.42,0,0,1,7.32-3.23,7.17,7.17,0,0,1,3.32-.05,9.26,9.26,0,0,1,2.83,1.23,9.26,9.26,0,0,0-2.85-1.14,7.12,7.12,0,0,0-3.27.15,32.3,32.3,0,0,0-6.4,3Zm.89,0h-.79a29.18,29.18,0,0,1,6.35-2.71,6.72,6.72,0,0,1,3.12,0,8.4,8.4,0,0,1,1.55.55,7.64,7.64,0,0,0-1.56-.49,6.57,6.57,0,0,0-3.08.15A27,27,0,0,0,100.1,175.18Z"/><path class="cls-32" d="M113,224.3a10.56,10.56,0,0,1-4.21,1.17,5.58,5.58,0,0,1-2.78-.92,15.06,15.06,0,0,1-1.6-1.15,16.76,16.76,0,0,0,1.56,1.22,5.79,5.79,0,0,0,2.8,1,11.2,11.2,0,0,0,5-1.27q-.36,0-.72-.09Zm2.83.15,1.23-.1c-2.66,1.25-5.55,2.82-8.43,2.76a6.8,6.8,0,0,1-3.39-1.2,27.51,27.51,0,0,1-3.91-3.34,26.09,26.09,0,0,0,4,3.22,6.65,6.65,0,0,0,3.35,1.08c2.49,0,4.87-1.3,7.17-2.42Zm-1.08,0c.34,0,.69,0,1-.05-2.27,1.06-4.65,2.26-7.1,2.2a6.53,6.53,0,0,1-3.21-1.15,23.92,23.92,0,0,1-3.2-2.68,22.4,22.4,0,0,0,3.26,2.58,6.37,6.37,0,0,0,3.17,1c2.13,0,4.07-1,6-1.93Zm-1-.06.84,0c-1.94.86-3.85,1.74-5.92,1.67a6.2,6.2,0,0,1-3-1.09,18.39,18.39,0,0,1-2-1.61,16.65,16.65,0,0,0,2.07,1.52,5.93,5.93,0,0,0,3,1A12.18,12.18,0,0,0,113.78,224.43Z"/><path class="cls-28" d="M106.32,155.45c-3.6,1.22-4.75.8-8.28-.21a16.81,16.81,0,0,1-1.73-.6,17.74,17.74,0,0,0,1.71.66c4,1.24,4.89,1.61,9,.33l-.66-.18Zm2.71.48c.42,0,.84,0,1.27,0-6.25,2-6.52,2.64-12.73.75a9.78,9.78,0,0,1-4.23-2.34,9.72,9.72,0,0,0,4.27,2.21c5.54,1.58,5.93,1.28,11.42-.67Zm-1.07-.09,1,.08c-5.47,1.81-5.86,2-11.28.34a10.83,10.83,0,0,1-3.51-1.72,10.79,10.79,0,0,0,3.55,1.62c4.79,1.37,5.42,1.4,10.21-.32Zm-.9-.17c.26.05.53.1.8.13-4.71,1.55-5.37,1.4-10,0a13.8,13.8,0,0,1-2.25-.92,15.1,15.1,0,0,0,2.27.85C102,156.87,102.91,157.14,107.06,155.67Z"/><path class="cls-28" d="M125.32,165.26c-.42-.13-.83-.25-1.24-.4a6.84,6.84,0,0,1-3.51-2.94,18.66,18.66,0,0,1-1.17-2.74l-.19-.58c.05.19.11.39.17.59.34,1,.67,1.85,1.08,2.82a7.38,7.38,0,0,0,3.5,3.16c.1.09,1.49.54,1.73.62-.13-.17-.25-.35-.37-.53Zm1.31,2a7.37,7.37,0,0,1,.43.78,18,18,0,0,0-3.61-1.5,8.52,8.52,0,0,1-4.1-3.6,22,22,0,0,1-1.25-3.13,14.88,14.88,0,0,1-.51-2,4.69,4.69,0,0,1-.09-.84,2.33,2.33,0,0,1,0-.38,1.24,1.24,0,0,1,.14-.38,1.24,1.24,0,0,0-.14.38,1.59,1.59,0,0,0,0,.38,3.85,3.85,0,0,0,.1.83,16.44,16.44,0,0,0,.56,2,19.25,19.25,0,0,0,1.32,3,8,8,0,0,0,4.07,3.39c1,.37,2.05.58,3.06,1.05Zm-.47-.7a7.66,7.66,0,0,1,.45.66c-1-.49-2-.73-3-1.13a8.22,8.22,0,0,1-3.91-3.45,22,22,0,0,1-1.19-3,12.72,12.72,0,0,1-.5-1.93,3.45,3.45,0,0,1-.07-.55,3.2,3.2,0,0,0,.08.54,15.48,15.48,0,0,0,.55,1.91,19.27,19.27,0,0,0,1.26,2.94,7.65,7.65,0,0,0,3.9,3.24c.8.29,1.62.49,2.42.79Zm-.45-.67.41.57c-.77-.3-1.56-.53-2.33-.84a7.75,7.75,0,0,1-3.69-3.3,22.38,22.38,0,0,1-1.14-2.92c-.12-.37-.23-.74-.32-1.13.1.38.22.75.35,1.12a18,18,0,0,0,1.22,2.84,7.24,7.24,0,0,0,3.7,3.09C124.5,165.53,125.11,165.69,125.71,165.88Z"/><path class="cls-28" d="M135.18,147.83a20.44,20.44,0,0,0-4.72,1.92,11.31,11.31,0,0,0-3,2.53,13.23,13.23,0,0,0-1,1.37,13.46,13.46,0,0,1,1-1.33,11,11,0,0,1,3-2.41,22,22,0,0,1,5.25-1.85l-.61-.23Zm2.27.78.92.24a30.55,30.55,0,0,0-7.26,2.32,9.72,9.72,0,0,0-2.59,2.08,13.69,13.69,0,0,0-2.17,3.5,13.72,13.72,0,0,1,2.09-3.57A9.69,9.69,0,0,1,131,151a26.76,26.76,0,0,1,6.43-2.36Zm-.84-.23.81.22a26.84,26.84,0,0,0-6.5,2.16A10.17,10.17,0,0,0,128.2,153a13.54,13.54,0,0,0-1.91,2.91,14.67,14.67,0,0,1,1.84-3,10.4,10.4,0,0,1,2.71-2.3,23.42,23.42,0,0,1,5.77-2.2Zm-.76-.27.68.22a23.81,23.81,0,0,0-5.81,2,10.46,10.46,0,0,0-2.86,2.3,13.67,13.67,0,0,0-1.28,1.74,13,13,0,0,1,1.24-1.79,10.87,10.87,0,0,1,2.83-2.42A22,22,0,0,1,135.85,148.11Z"/><path class="cls-32" d="M105.91,191.24a8.14,8.14,0,0,1-1,.53,7,7,0,0,1-3.4.63,25.38,25.38,0,0,1-6.64-1.78,25.89,25.89,0,0,0,6.61,2,7.09,7.09,0,0,0,3.53-.54,8.86,8.86,0,0,0,1.53-.85,5.17,5.17,0,0,1-.68,0Zm2.67-.51a11.61,11.61,0,0,0,1.11-.57,12.31,12.31,0,0,1-4.19,3.23,8.53,8.53,0,0,1-4.14.68c-3-.33-5.65-1.55-8.44-2.59a.61.61,0,0,1-.18-.12.41.41,0,0,1-.12-.17.59.59,0,0,1-.05-.22.93.93,0,0,1,0-.24.33.33,0,0,0,0,.17c0,.06-.07,0-.1,0a2.81,2.81,0,0,1-.69-.8,2.79,2.79,0,0,0,.71.78l.13.13a.36.36,0,0,1,0-.23.57.57,0,0,0,0,.22.72.72,0,0,0,.05.21.46.46,0,0,0,.11.16.38.38,0,0,0,.18.11c2.78,1,5.47,2.12,8.45,2.36a8.13,8.13,0,0,0,4-.74,11.43,11.43,0,0,0,3.19-2.33Zm-1,.37a9.36,9.36,0,0,0,1-.36,10.59,10.59,0,0,1-3.18,2.21,7.93,7.93,0,0,1-3.93.64c-2.93-.32-5.6-1.55-8.33-2.57-.16-.42-.23-.49-.3-.55s.18.15.21.2,0,.07,0,.09a.16.16,0,0,1,0,.1c2.79,1.09,5.49,2.25,8.42,2.49a7.81,7.81,0,0,0,3.8-.71,10.07,10.07,0,0,0,2.32-1.54Zm-.9.15a5.49,5.49,0,0,0,.79-.15,9.7,9.7,0,0,1-2.26,1.41,7.52,7.52,0,0,1-3.72.58,29.23,29.23,0,0,1-7.37-2.25,28.86,28.86,0,0,0,7.39,2,7.32,7.32,0,0,0,3.6-.67A8.76,8.76,0,0,0,106.67,191.25Z"/><path class="cls-33" d="M193,226.5a77,77,0,0,0,10.77-20.81A82.7,82.7,0,0,0,208,181.55c0-1,0-1.91,0-2.87a60.19,60.19,0,0,0-6.55-26.8c-4.11-7.37-8.69-13-16-16.75,7.34,3.66,12,9.27,16.16,16.62A57.3,57.3,0,0,1,206,162.63l0-.14a77.54,77.54,0,0,1,2.39,16.16c0,1.85,0,3.66-.14,5.51a71.76,71.76,0,0,1-.78,7.59,81,81,0,0,1-3.4,14,76.5,76.5,0,0,1-11,20.75Zm-11.1-91.56c8.56,3.27,13.83,9.45,18.43,17.65a58.59,58.59,0,0,1,6.28,26.22,82.93,82.93,0,0,1-4,26.5c-.41,1.25-.85,2.48-1.29,3.72A76,76,0,0,1,190,228.63a75.18,75.18,0,0,0,12.85-23.25A80.78,80.78,0,0,0,207,178.77c-.26-10-2.08-17.88-6.39-26.34a35,35,0,0,0-3.35-5.31c-4.35-5.69-8.74-9.74-15.31-12.18Zm2.32.53c7.56,3.6,12.26,9.35,16.46,16.88a58.89,58.89,0,0,1,6.35,26.42,84.83,84.83,0,0,1-3.65,25.56l-.36,1.12a75.8,75.8,0,0,1-11.18,21.37,75.29,75.29,0,0,0,11.25-21.06s.07-.23.09-.26a76.43,76.43,0,0,0,3.62-16.19,89.42,89.42,0,0,0,.57-10.58c-.26-10-2.08-18.07-6.44-26.54A31.19,31.19,0,0,0,199,149c-4.08-6.08-8.31-10.57-14.78-13.57Zm-1.08-1.07c8.31,3.49,13.44,9.6,18,17.68a59.32,59.32,0,0,1,6.39,26.64,83.69,83.69,0,0,1-4.09,26.85c-.55,1.68-1.14,3.28-1.76,4.94a77.67,77.67,0,0,1-10.42,17.93,76.24,76.24,0,0,0,12.41-22.8,81.84,81.84,0,0,0,4.2-26.95c-.26-10.13-2.12-18.16-6.49-26.77a38,38,0,0,0-4-6.17C193.25,140.57,189.17,136.86,183.17,134.4Z"/><path class="cls-34" d="M156.48,128.41c-.74-.06-6.38-.45-3.36,1.43,1.28.8,2,.57,3.41,1.77,1.06.91,2,1.34,3.35.3a1.42,1.42,0,0,0-.2-2.41A7.62,7.62,0,0,0,156.48,128.41Z"/><path class="cls-34" d="M124.68,141c1,1.39,1.54,2.24.41,3.91-1,1.39-1.41-.48-2-1.28-1.84-2.18-4.21-1.41-4.82-2.26-.85-1.17,2.6-2.86,3.38-3,1.3-.21,2,1.29,2.76,2.25Z"/><path class="cls-20" d="M124.19,146.47c-.12,0-.26,0-.38.05a13.53,13.53,0,0,1-2.77,0,12.15,12.15,0,0,1-3.5-1,11.91,11.91,0,0,0,3.46,1.18,12,12,0,0,0,2.82.1l.77-.07-.4-.34Zm1.52,1.09a1.6,1.6,0,0,0,.31.1,2.09,2.09,0,0,0,.36,0,1,1,0,0,0,.43-.35,1.22,1.22,0,0,1-.38.43,2.27,2.27,0,0,1-.34.19,4.88,4.88,0,0,1-.65.2,14.7,14.7,0,0,1-1.59.2,12.58,12.58,0,0,1-3.13-.08,10.23,10.23,0,0,1-5.32-2.34,10.09,10.09,0,0,0,5.36,2.1,13.82,13.82,0,0,0,3.08-.05,11.79,11.79,0,0,0,1.54-.26l.33-.1Zm-.6-.3.23.15a2.18,2.18,0,0,0,.34.14c-.09,0-.22.06-.31.07a13.35,13.35,0,0,1-1.53.2,12.77,12.77,0,0,1-3-.08,10.59,10.59,0,0,1-4.76-1.93,10.48,10.48,0,0,0,4.8,1.71,13.53,13.53,0,0,0,3-.06c.43-.05.85-.11,1.28-.2Zm-.48-.38.43.32c-.42.07-.82.1-1.23.13a11.85,11.85,0,0,1-2.92-.08,11.7,11.7,0,0,1-3.88-1.38A11.69,11.69,0,0,0,121,147a13.14,13.14,0,0,0,2.87,0Z"/><path class="cls-23" d="M122.21,158.91c-.78-.34-1.19-.93-.56-1.85.79-1.16,2.92-1.29,3.91-.79,1.25.7,1.7,2,2.4,3.29a29,29,0,0,0,2.1,3.31c1,1.41,1.07,2.15-1,1.83-1.66-.26-1.95-2-2.93-3.13A9.81,9.81,0,0,0,122.21,158.91Z"/><polygon class="cls-35" points="233.81 159.96 203.01 221.87 202.55 222.52 201.21 226.25 203.21 235.78 203.72 234.51 208.71 233.95 233.81 159.96"/><path class="cls-36" d="M206.08,219.68c0-1.36.57-2.68.44-4.06,0,.39-.39.81-1,1.2L203,221.87l-.46.65-1.34,3.73,2,9.52.51-1.26,1.51-.17a9.24,9.24,0,0,0,1.59-3.29c1.22-4.78,2.85-9.6,2.92-14.67C208.94,217.45,207.5,219.87,206.08,219.68Z"/><polygon class="cls-37" points="201.6 225.14 201.21 226.25 203.21 235.78 203.58 234.85 201.6 225.14"/><polygon class="cls-37" points="204.1 233.51 203.75 234.5 208.71 233.95 209.05 232.96 204.1 233.51"/><path class="cls-38" d="M275.6,223.92l-41.79-64-28.6,70.85-2,5a77,77,0,0,0,75.32-7.37Z"/><path class="cls-39" d="M243.33,177.66c.56-.42-.22-1.66.17-2.14a.77.77,0,0,1,.33-.22l-10-15.34-5.61,13.9c.57,1.25,1.59,2.68,2.52.91,0,.63-.14,2.36.52,2.73s1.46-.49,2.15-.44c.92.08,1.37,1.2,2.26,1.23,1.21.05,1.24-.86,2-1.55.33.36,1.25,1.27,1.85,1.25.88,0,.74-.9,1.53-1.08C241.64,176.76,242.53,178.26,243.33,177.66Z"/><path class="cls-36" d="M275.6,223.92l-1-1.55c-3.31-1.1-13.26-9.86-16.6-13,1.36,1.76,6.8,13.53,6.84,16.6,0,2.8-1.86,2.27-3.8,1-2.9-1.83-4.42-4.88-5.23-8.12-.12,4-.9,7.92-1,11.89-.06,2-1.31,6.67-3.9,4.9-2.31-1.58-4-7.77-4.95-10.44s-.74-6.31-1.76-8.68c-1.68,6.16-3.75,11.06-7.87,16.05-1.64,2-5.28,7.13-8.48,6.43-6.12-1.33-4.07-12-4.73-15.9-1.4,2.65-4.05,11.83-8,11.26a24.06,24.06,0,0,1,.26-6.72c.35-2.47,1.87-5.34,1.76-7.72a35.53,35.53,0,0,1-4.88,7.79c-1.9,2.27-3.75,5-6.56,6.2-.63.27-1.32.5-2,.73l-.45,1.11a77,77,0,0,0,75.32-7.37Z"/><path class="cls-36" d="M210.9,238.69c.06-.57.15-1.15.24-1.73.39-2.47,2.05-5.34,1.93-7.72a35.14,35.14,0,0,1-5.36,7.79c-.13.14-.25.28-.39.42C208.5,237.9,209.69,238.31,210.9,238.69Z"/><path class="cls-36" d="M219.62,232.42c-.85,1.47-2.13,5-3.83,7.66,1.37.34,2.75.65,4.15.91C219.63,237.76,220,234.3,219.62,232.42Z"/><path class="cls-36" d="M270.08,232.42a2.38,2.38,0,0,1-.43,1.35,75.91,75.91,0,0,0,8.88-5.37l-.68-1a148.68,148.68,0,0,1-15.27-11.55C264.06,217.58,270,229.34,270.08,232.42Z"/><path class="cls-36" d="M256.82,227.78c-.14,3.86-.93,7.69-1.1,11.53a76,76,0,0,0,8.59-3,3.64,3.64,0,0,1-1.76-.37A12.79,12.79,0,0,1,256.82,227.78Z"/><path class="cls-36" d="M241.84,242c1.85-.18,3.69-.43,5.5-.74-1.15-2.35-2.05-5.14-2.65-6.71-1-2.7-.82-6.31-1.94-8.68-1.84,6.16-4.11,11.06-8.63,16l-.4.45A76.68,76.68,0,0,0,241.84,242Z"/><path class="cls-39" d="M243.17,182.13a66,66,0,0,0,5.33,11.66,52.41,52.41,0,0,0,2.84,4.87c.63.88,1.6,2.76,2.54,3.08-.16-2.28-1.45-4.84-2.54-6.84-1.18-2.16-1.55-4.5-2.65-6.64-.94-1.82-2.94-7.36-5.07-8a4.75,4.75,0,0,0,.62,4Z"/><path class="cls-39" d="M223.88,198.2c-.1.64-1,3.24-.31,3.68,1.17.78,2.61-2.68,2.92-3.3a30.19,30.19,0,0,0,2.6-8.36c.18-1.06,1.51-8.07.44-8.59C227.74,180.75,224.17,196.48,223.88,198.2Z"/><path class="cls-39" d="M235.93,187.74c-.06.6-.1,1.15-.12,1.54,0-.44.06-.89.08-1.33-.52,6.3-1.54,13-1.49,19.5,0,3.82,1.19-.28,1.47-1.6a87.61,87.61,0,0,0,1.18-9.64c.28-2.91.56-6,.58-9,0-1.11,0-3-.6-3.14S236.1,186,235.93,187.74Z"/><path class="cls-40" d="M275.6,223.92,265,207.76a17.52,17.52,0,0,1-3-.12c-3.11-.52-5.27-2.06-7.95-3.42-.13,2.87,1.84,12.12-2.08,12.88-6.66,1.3-6.49-10.46-10.9-12.45-3.18-1.44-1.61,5.37-1.64,7.1-.05,2.83-.59,5.65-3,7.39-4.8,3.41-5.38-5.94-5.51-8.53-2.26,2-7.93,8.6-11.21,6.7-2.39-1.38-2.65-5.08-2.65-7.31-1.91,2.17-4.06,4.45-6.15,6.58l-5.75,14.23-2,5a77,77,0,0,0,75.32-7.37Z"/><path class="cls-41" d="M241.63,240.85a32.81,32.81,0,0,1-6.56.51,6.48,6.48,0,0,0-.77-.1c-2.12-.14-4.51.5-6.64-.26l-1-.1c-3.09.43-5.54-.18-8.77-1.39l-1-.22-.95-.23-1-.25c-3.09-.54-6.15-1.16-8.65-2.8l-.93-.37c-.62-.25-1.24-.51-1.85-.78l-.37.91c.61.28,1.24.55,1.86.8l.94.38a18.88,18.88,0,0,0,8.72,2.87l1,.26,1,.23,1,.22c2.86.8,5.93,2,8.86,1.42l1,.11c2.54,1,4.77.61,7.4.51l.9,0a42.53,42.53,0,0,0,5.5.18c1-.12,1.82-1.06,2.78-.88.29,0,.58.08.88.15l.89,0a9.87,9.87,0,0,0,1.91-.34,4.64,4.64,0,0,0,.77-.32,5.05,5.05,0,0,0,.73-.44l1-.2.78-.17.78-.17c3.61.39,6.06-1.45,8.94-2.6l.77-.31c.25-.1.51-.22.76-.34l1-.38.9-.36a13.29,13.29,0,0,0,4.09-1.57l.76-.43c2.37-1.59,5.44-2.21,7.39-4.52l.7-.47,1.38-.95-.49-.74-1.36.93-.7.45a58,58,0,0,1-7.2,4.44l-.8.38a32.53,32.53,0,0,1-4.09,1.53l-.9.36-.94.37-.88.29-.87.29c-2.37,1.57-5.44,1.57-8.39,2.54l-.57.13-1.15.25-1,.2c-.28,0-.56.09-.83.15l-.82.2a11,11,0,0,1-2.07.41l-.68.06-.66.05c-.89,0-1.5,0-2,.07Z"/><polygon class="cls-35" points="259.64 159.97 222.25 235.14 221.68 235.94 220.05 240.46 222.48 252.03 223.1 250.49 229.17 249.82 259.64 159.97"/><path class="cls-36" d="M226,232.49c0-1.65.7-3.26.54-4.94.05.49-.48,1-1.21,1.46l-3.05,6.13-.57.8-1.63,4.52L222.48,252l.62-1.54,1.84-.2a11.1,11.1,0,0,0,1.93-4c1.48-5.8,3.45-11.65,3.55-17.81C229.44,229.78,227.7,232.72,226,232.49Z"/><polygon class="cls-37" points="220.53 239.12 220.05 240.46 222.48 252.03 222.94 250.9 220.53 239.12"/><polygon class="cls-37" points="223.57 249.28 223.14 250.49 229.17 249.82 229.58 248.61 223.57 249.28"/><path class="cls-38" d="M310.39,237.64,259.64,160l-34.72,86-2.44,6A93.56,93.56,0,0,0,314,243.08Z"/><path class="cls-39" d="M271.21,181.46c.68-.51-.28-2,.2-2.59a1,1,0,0,1,.4-.28L259.64,160l-6.81,16.88c.69,1.52,1.93,3.25,3.06,1.11,0,.76-.17,2.85.63,3.31s1.78-.6,2.61-.53c1.13.09,1.66,1.45,2.75,1.49,1.47.06,1.5-1,2.42-1.88.4.43,1.51,1.54,2.24,1.52,1.07,0,.9-1.1,1.86-1.32C269.15,180.37,270.23,182.19,271.21,181.46Z"/><path class="cls-36" d="M310.39,237.64l-1.23-1.88c-4-1.34-16.11-12-20.15-15.82,1.64,2.15,8.25,16.43,8.3,20.16,0,3.4-2.26,2.75-4.62,1.26-3.51-2.21-5.36-5.93-6.34-9.86-.15,4.82-1.09,9.62-1.24,14.44-.08,2.48-1.59,8.1-4.74,5.95-2.8-1.91-4.88-9.43-6-12.68s-.9-7.65-2.14-10.54c-2,7.48-4.55,13.43-9.55,19.5-2,2.41-6.41,8.65-10.3,7.81-7.43-1.62-4.94-14.58-5.74-19.32-1.71,3.22-4.92,14.37-9.71,13.68a29,29,0,0,1,.32-8.16c.42-3,2.27-6.48,2.14-9.38a43.21,43.21,0,0,1-5.93,9.46c-2.31,2.76-4.55,6.06-8,7.53-.77.33-1.61.61-2.46.89l-.55,1.35A93.56,93.56,0,0,0,314,243.08Z"/><path class="cls-36" d="M231.82,255.57c.08-.69.19-1.39.3-2.1.46-3,2.49-6.48,2.34-9.37a43.14,43.14,0,0,1-6.5,9.45l-.48.52C228.91,254.61,230.36,255.1,231.82,255.57Z"/><path class="cls-36" d="M242.41,248c-1,1.78-2.58,6-4.65,9.3q2.49.62,5,1.11C242.43,254.45,242.84,250.24,242.41,248Z"/><path class="cls-36" d="M303.68,248a2.93,2.93,0,0,1-.52,1.65A93.42,93.42,0,0,0,314,243.08l-.83-1.27c-5.8-3.53-15-10.95-18.54-14C296.38,229.94,303.63,244.22,303.68,248Z"/><path class="cls-36" d="M287.58,242.33c-.16,4.68-1.13,9.33-1.34,14a91.33,91.33,0,0,0,10.43-3.69,4.15,4.15,0,0,1-2.13-.45C290.69,250,288.66,246.26,287.58,242.33Z"/><path class="cls-36" d="M269.39,259.56c2.25-.22,4.48-.53,6.68-.9-1.4-2.86-2.49-6.24-3.22-8.15-1.25-3.28-1-7.66-2.35-10.55-2.23,7.48-5,13.43-10.48,19.5l-.48.54A96.22,96.22,0,0,0,269.39,259.56Z"/><path class="cls-39" d="M271,186.89a81.13,81.13,0,0,0,6.47,14.16,67.15,67.15,0,0,0,3.45,5.92c.76,1.06,1.94,3.34,3.08,3.73-.18-2.76-1.75-5.87-3.08-8.31-1.43-2.61-1.88-5.45-3.22-8.06-1.14-2.21-3.56-8.93-6.15-9.66a5.78,5.78,0,0,0,.75,4.82Z"/><path class="cls-39" d="M247.59,206.4c-.13.78-1.17,3.94-.38,4.47,1.42.95,3.17-3.25,3.54-4a36.74,36.74,0,0,0,3.16-10.15c.22-1.28,1.83-9.8.53-10.43C252.27,185.22,247.93,204.31,247.59,206.4Z"/><path class="cls-39" d="M262.22,193.7c-.08.73-.13,1.4-.15,1.87,0-.54.07-1.07.1-1.61-.63,7.64-1.88,15.79-1.81,23.68,0,4.63,1.44-.34,1.79-1.94A108.57,108.57,0,0,0,263.58,204c.34-3.53.68-7.28.7-10.94,0-1.34,0-3.68-.72-3.81S262.43,191.64,262.22,193.7Z"/><path class="cls-40" d="M310.39,237.64,297.57,218a21.82,21.82,0,0,1-3.59-.15c-3.77-.63-6.4-2.51-9.65-4.15-.16,3.48,2.23,14.71-2.53,15.64-8.09,1.58-7.87-12.71-13.23-15.13-3.86-1.74-2,6.53-2,8.63-.05,3.43-.71,6.85-3.69,9-5.83,4.14-6.52-7.21-6.68-10.35-2.75,2.42-9.63,10.43-13.62,8.13-2.9-1.68-3.21-6.17-3.21-8.88-2.33,2.64-4.93,5.4-7.47,8l-7,17.28-2.44,6A93.56,93.56,0,0,0,314,243.08Z"/><path class="cls-41" d="M269.14,258.19a38.8,38.8,0,0,1-8,.62c-.31-.05-.63-.09-.95-.11-2.56-.17-5.46.6-8.05-.32l-1.21-.13c-3.75.53-6.73-.21-10.65-1.69l-1.16-.26L238,256c-.4-.09-.79-.2-1.19-.3-3.74-.66-7.47-1.41-10.5-3.4l-1.13-.45c-.76-.31-1.51-.62-2.25-1l-.45,1.11c.75.33,1.51.66,2.27,1l1.14.46a22.81,22.81,0,0,0,10.59,3.48l1.21.31,1.16.29,1.18.26c3.46,1,7.19,2.47,10.75,1.74l1.22.12c3.07,1.22,5.79.74,9,.63.36,0,.72,0,1.09,0,2,0,4.44.48,6.68.22,1.22-.15,2.21-1.29,3.37-1.07a10,10,0,0,1,1.07.18c.36,0,.72,0,1.09,0a12.73,12.73,0,0,0,2.31-.4,8.47,8.47,0,0,0,.94-.39,6.4,6.4,0,0,0,.89-.54l1.26-.24.95-.21.94-.21c4.38.48,7.36-1.76,10.86-3.15l.93-.38c.31-.13.62-.26.93-.41l1.17-.46,1.1-.45a16.21,16.21,0,0,0,5-1.89c.31-.18.62-.35.92-.54,2.87-1.93,6.6-2.67,9-5.48l.85-.57,1.68-1.15-.59-.9c-.55.38-1.11.75-1.67,1.12-.27.19-.56.37-.83.55a70.76,70.76,0,0,1-8.75,5.39l-1,.47a39.12,39.12,0,0,1-5,1.85l-1.09.44-1.15.45-1.06.35-1.06.36c-2.88,1.9-6.6,1.9-10.19,3.08l-.69.16c-.47.11-.93.21-1.4.3l-1.25.25c-.34,0-.68.1-1,.17l-1,.25a14.12,14.12,0,0,1-2.51.5c-.28,0-.56.06-.83.07l-.8.06c-1.08,0-1.83,0-2.41.09Z"/></g></g></svg>