<svg id="Layer_59" data-name="Layer 59" xmlns="http://www.w3.org/2000/svg" xmlns:xlink="http://www.w3.org/1999/xlink" viewBox="0 0 370 330"><defs><style>.cls-1{fill:url(#linear-gradient);}.cls-12,.cls-2{fill:#c18706;}.cls-2{opacity:0.67;}.cls-10,.cls-3{fill:#b77a32;}.cls-4{fill:#cc9640;}.cls-5{fill:#ffe7c0;}.cls-6{fill:url(#linear-gradient-2);}.cls-14,.cls-7{fill:#bf8c0d;}.cls-7{opacity:0.39;}.cls-8{fill:#ffe2ae;}.cls-9{fill:#ffdda6;}.cls-10{opacity:0.21;}.cls-11{fill:url(#linear-gradient-3);}.cls-12{opacity:0.63;}.cls-13{fill:url(#linear-gradient-4);}.cls-14{opacity:0.42;}</style><linearGradient id="linear-gradient" x1="89.47" y1="179.42" x2="241.07" y2="179.42" gradientUnits="userSpaceOnUse"><stop offset="0" stop-color="#ffdc94"/><stop offset="0.41" stop-color="#e8b356"/><stop offset="0.63" stop-color="#e3a944"/><stop offset="0.99" stop-color="#f6cc7c"/></linearGradient><linearGradient id="linear-gradient-2" x1="89.47" y1="179.69" x2="188.4" y2="179.69" gradientUnits="userSpaceOnUse"><stop offset="0" stop-color="#ffdc94"/><stop offset="0.53" stop-color="#f5be53"/></linearGradient><linearGradient id="linear-gradient-3" x1="144.73" y1="199.63" x2="296.33" y2="199.63" xlink:href="#linear-gradient"/><linearGradient id="linear-gradient-4" x1="144.73" y1="199.89" x2="243.66" y2="199.89" xlink:href="#linear-gradient-2"/></defs><path class="cls-1" d="M239.71,211c-5.69-.62-11.83-1.13-16.69,1.94-2,1.25-3.66,3.06-5.83,3.93a17.45,17.45,0,0,1-6.12.8c-9.9.28-19.56,3-29.12,5.66s-19.13,5.41-27.14,11.26c-7,5.12-13,12.58-21.36,14.37a24.31,24.31,0,0,1-6.6.35h0a9.07,9.07,0,0,1-2.44,0c-8.71-.44-17.42-.83-26.14-1.27-1.86-.09-3.82-.19-5.41-1.23a6.41,6.41,0,0,1-2.28-2.71,14.51,14.51,0,0,1-1.1-6.12c.17-15.66,11-29.39,11.53-45,.09-2.72-.14-5.45-.1-8.16.11-6.6,1.83-13,3.28-19.44a240.9,240.9,0,0,0,5.89-50.18c.19-3.14,5-6.46,7.84-5.55a7.61,7.61,0,0,1,1.74.79,18,18,0,0,1,5,5.29A113,113,0,0,1,133,129.81a14.21,14.21,0,0,0,2.38,3.79,12.9,12.9,0,0,0,3.55,2.28c5.33,2.61,10.74,5.41,15.65,8.45h0c6.28,3.8,12.69,7.84,18.73,12.22a36.7,36.7,0,0,1,7.39,6.52c1.61,2,2.85,4.35,4.28,6.51.63.93,1.28,1.84,2,2.72a94.51,94.51,0,0,0,8.39,8.94l0,0a11.25,11.25,0,0,0,2.63,2.1,14,14,0,0,0,3.56,1,48.48,48.48,0,0,1,10.92,4.17l7.15,3.41c6,2.85,12,5.74,17.35,9.82a10.77,10.77,0,0,1,3.64,4.12C241.4,207.61,241.17,209.91,239.71,211Z"/><path class="cls-2" d="M195.38,181.25c-4.08,4.18-8.24,8.39-13.23,11.28a15.32,15.32,0,0,1-7.1,2.36,10.6,10.6,0,0,1-1.38,0c-.38-.3-.75-.61-1.11-.95a15.78,15.78,0,0,1-2.35-3c-.68-1.06-1.28-2.17-1.89-3.28-1-1.9-2.12-3.78-3.22-5.65l0,0,0-.06c-.67-1.15-1.36-2.29-2.06-3.42a220.75,220.75,0,0,0-27.15-35.55c.35-1.55,1-3,2.36-3.56,2-.79,4.1,1,5.33,2.83a19.27,19.27,0,0,1,2.41,5.35,9.81,9.81,0,0,0,1.11,3.07c1.22,1.77,3.53,2.11,5.56,2.64a20,20,0,0,1,7.47,3.79c2.08,1.67,3.83,3.73,5.76,5.58a35.42,35.42,0,0,0,17.44,9.1c1.24.25,2.48.42,3.74.58A93.23,93.23,0,0,0,195.38,181.25Z"/><path class="cls-3" d="M168.17,218.18h0c-9.43.26-19.06,10.86-37.24,23.15,0,0,0,0,0,0-18.18,12.29-40.32,2.83-40.32,2.83A14.72,14.72,0,0,1,89.47,238c.17-15.66,11-29.4,11.54-45.05.08-2.72-.15-5.44-.11-8.16.11-6.6,1.83-13,3.28-19.44a240.9,240.9,0,0,0,5.89-50.18c.16-2.73,3.79-5.6,6.64-5.7l1,1.27c-4.29,4.45-2.62,8.29,15.64,26.27,16.42,16.16,23.31,30.69,29.59,41.47.69,1.19,1.37,2.34,2.06,3.43l0,0,0,.06a57.27,57.27,0,0,0,17.46,17.08h0s5.75,5.56,8.16,7.6S177.51,217.31,168.17,218.18Z"/><path class="cls-4" d="M239.71,211c-5.69-.62-11.83-1.13-16.69,1.94-2,1.25-3.66,3.06-5.83,3.93a17.45,17.45,0,0,1-6.12.8c-9.9.28-19.56,3-29.12,5.66s-19.13,5.41-27.14,11.26c-7,5.12-12.94,12.67-21.35,14.47a27.86,27.86,0,0,1-6.58.44c1.62-.5,12.24-3.93,18.42-10.53,6.72-7.16,28-18.5,44.3-19.72s28.4-4.36,31.74-7.42,18.61-1.53,16.67-5-11.92-12.34-32.5-19.71-24.1-21.61-30.78-28-17-8.87-20-14.83q9.6,5.64,18.68,12.23a36.32,36.32,0,0,1,7.37,6.52c1.61,2,2.84,4.35,4.27,6.51,2.91,4.38,6.67,8,10.4,11.69a11,11,0,0,0,2.63,2.09,13.56,13.56,0,0,0,3.55,1,48.3,48.3,0,0,1,10.92,4.17l7.15,3.41c6,2.85,12,5.74,17.35,9.82a10.77,10.77,0,0,1,3.64,4.12C241.4,207.61,241.17,209.91,239.71,211Z"/><path class="cls-5" d="M190.72,206.6c-.79.22-1.58.45-2.35.72a42.19,42.19,0,0,0-11,5.59c-.35.24-.7.5-1,.75A30,30,0,0,1,172,216.5a32.74,32.74,0,0,1-3.81,1.5c-.67.24-1.33.49-2,.79a35,35,0,0,0-6.68,4.36c-9,6.84-18.44,13.35-28.58,18.09h0a88.08,88.08,0,0,1-11.21,4.35c-1.27.39-2.57.74-3.89,1a32.49,32.49,0,0,1-6.7.83A18.34,18.34,0,0,1,99,244.92c-1.47-.91-2.84-2.09-4.5-2.49a3.44,3.44,0,0,0-3.92,1.67,14.51,14.51,0,0,1-1.1-6.12c.06-5.84,1.62-11.4,3.56-16.9,3.27-9.26,7.66-18.33,8-28.14.09-2.72-.14-5.44-.1-8.16.11-6.6,1.83-13,3.28-19.44a240.9,240.9,0,0,0,5.89-50.18,5.38,5.38,0,0,1,1.73-3.3,7.94,7.94,0,0,1,4.91-2.4,3.39,3.39,0,0,1,1.2.15,7.61,7.61,0,0,1,1.74.79c-.64.11-1.29.2-1.91.33-2.07.4-4.13,1.1-4.87,3-.11.29.09.56-.43.93h0a18.1,18.1,0,0,0,1.18,4.22c.13.28.38.54.53.81,2.88,5.38,7.62,9.47,12,13.62q5,4.65,9.61,9.61A221.19,221.19,0,0,1,163,178.48c.7,1.13,1.4,2.27,2.07,3.42l0,.06,0,0c1.1,1.87,2.18,3.75,3.22,5.65.61,1.11,1.21,2.22,1.89,3.28a15.78,15.78,0,0,0,2.35,3c.36.34.73.65,1.11.95,2.52,1.92,5.63,2.89,8.57,4.11l.32.13h0C186,200.56,189.62,202.86,190.72,206.6Z"/><path class="cls-6" d="M188.37,207.32a.94.94,0,0,1-.52,1.09,93.11,93.11,0,0,1-11.56,5.25c-5.54,2.15-11.42,4-14,3.58-4.92-.78-29.32,24.77-46.5,29.4C110,247.92,104,248,99,244.92c-1.47-.91-2.84-2.09-4.5-2.49a3.44,3.44,0,0,0-3.92,1.67,14.51,14.51,0,0,1-1.1-6.12c.17-15.66,11-29.4,11.53-45,.09-2.72-.14-5.44-.1-8.16.11-6.6,1.83-13,3.28-19.44a240.9,240.9,0,0,0,5.89-50.18,5,5,0,0,1,1.52-3.26l.85,2.76h0a23.18,23.18,0,0,0,1.6,5c1.72,4.12,5.66,10.49,14.22,18.21,15.27,13.79,28,33.22,31.71,38.92s3.53,16.19,10.71,19.86C176.87,199.87,187.67,204.68,188.37,207.32Z"/><path class="cls-7" d="M182.24,199c.58,3.38-.76,7.14-3.58,8.89s-6.32,1.37-9.56,1c-6-.74-12.31-1.37-18.08.6a37.41,37.41,0,0,0-9.63,5.46,152.88,152.88,0,0,0-13.09,10.65c-2,1.77-4,4.25-3.24,6.83.71,2.33,3.58,3.67,3.66,6.1a3.9,3.9,0,0,1-2.43,3.46,13,13,0,0,1-4.29.79,24.08,24.08,0,0,0-10.26,2.95,31.6,31.6,0,0,0-2.64,1.81A18.34,18.34,0,0,1,99,244.92c-1.47-.91-2.84-2.09-4.5-2.49a3.44,3.44,0,0,0-3.92,1.67,14.51,14.51,0,0,1-1.1-6.12c.06-5.84,1.62-11.4,3.56-16.9a17.3,17.3,0,0,1,6.91-.08c3.72.84,6.84,3.52,10.44,4.86a15.43,15.43,0,0,0,10.32.19,3.63,3.63,0,0,0,1.57-.9,5,5,0,0,0,.83-1.88A16.57,16.57,0,0,1,132,213c2.17-1,4.56-1.46,6.52-2.83,2.46-1.72,3.92-4.63,4.7-7.61s1-6.09,1.47-9.14a47.4,47.4,0,0,1,2.28-8.74,9,9,0,0,1,1.7-3.11c1.91-2,5.18-1.85,7.58-.52s4.22,3.56,6.15,5.57,4.22,3.92,6.92,4.24a6.55,6.55,0,0,0,.89.05,15.78,15.78,0,0,0,2.35,3C175.24,196.48,178.86,197.55,182.24,199Z"/><path class="cls-8" d="M123.93,177.67a7.72,7.72,0,0,0-2-.18,2.74,2.74,0,0,0-1.83.81,4.62,4.62,0,0,1-.86.95c-.1.07-.22.12-.27.23a.48.48,0,0,0,0,.29l.19,2a1.8,1.8,0,0,0,.13.61,1.84,1.84,0,0,0,.62.68,5.29,5.29,0,0,0,1.32.8,1.62,1.62,0,0,0,1.47-.14,5.78,5.78,0,0,0,.5-.49,11.42,11.42,0,0,1,2-1.18,1.8,1.8,0,0,0,.92-2,2.06,2.06,0,0,0-.39-.6c-.54-.64-.49-.94-1.1-1.52Z"/><path class="cls-8" d="M123.34,197.27a8.67,8.67,0,0,0-2-.18,2.77,2.77,0,0,0-1.84.82c-.29.31-.49.73-.85,1a.71.71,0,0,0-.28.23.57.57,0,0,0,0,.29l.19,2a2.07,2.07,0,0,0,.12.61,1.76,1.76,0,0,0,.63.67,4.89,4.89,0,0,0,1.32.81,1.6,1.6,0,0,0,1.46-.15,3.86,3.86,0,0,0,.5-.49,11.9,11.9,0,0,1,2-1.18,1.8,1.8,0,0,0,.92-2,2.57,2.57,0,0,0-.39-.6c-.54-.64-.49-.94-1.1-1.52Z"/><path class="cls-8" d="M110.28,199.17a5.33,5.33,0,0,0-1.37-.12,1.82,1.82,0,0,0-1.24.55c-.2.21-.33.49-.58.64a.38.38,0,0,0-.18.15.34.34,0,0,0,0,.2c0,.46.09.91.13,1.37a1.36,1.36,0,0,0,.08.41,1.26,1.26,0,0,0,.43.46,3.26,3.26,0,0,0,.89.54,1.06,1.06,0,0,0,1-.1,2.65,2.65,0,0,0,.34-.33,7.65,7.65,0,0,1,1.33-.79,1.22,1.22,0,0,0,.62-1.33,1.77,1.77,0,0,0-.26-.41c-.37-.43-.33-.63-.74-1Z"/><path class="cls-8" d="M116.91,155.53a7.72,7.72,0,0,0-2-.18,2.76,2.76,0,0,0-1.84.81,4.65,4.65,0,0,1-.86,1c-.1.06-.22.11-.27.22a.57.57,0,0,0,0,.29c.06.68.12,1.36.19,2.05a2.13,2.13,0,0,0,.12.61,1.92,1.92,0,0,0,.63.67,5,5,0,0,0,1.32.8,1.6,1.6,0,0,0,1.46-.14,4.64,4.64,0,0,0,.5-.49,11.9,11.9,0,0,1,2-1.18,1.81,1.81,0,0,0,.92-2,2.22,2.22,0,0,0-.39-.6c-.54-.65-.49-.95-1.1-1.52Z"/><path class="cls-8" d="M152.45,176.32a9.48,9.48,0,0,0-2.43-.21,3.28,3.28,0,0,0-2.19,1,5.58,5.58,0,0,1-1,1.14.79.79,0,0,0-.33.27.65.65,0,0,0,0,.34l.23,2.44a2.26,2.26,0,0,0,.15.73,2.32,2.32,0,0,0,.75.81,5.93,5.93,0,0,0,1.58.95,1.88,1.88,0,0,0,1.74-.17,5.48,5.48,0,0,0,.6-.58,13.55,13.55,0,0,1,2.35-1.41,2.15,2.15,0,0,0,1.11-2.36,2.83,2.83,0,0,0-.47-.71c-.64-.77-.59-1.13-1.31-1.82Z"/><path class="cls-9" d="M201.84,196.61a8.06,8.06,0,0,0-1.56-1.36,2.69,2.69,0,0,0-1.94-.44,4.75,4.75,0,0,1-1.22.26.65.65,0,0,0-.34,0,.48.48,0,0,0-.18.22l-1,1.76a2.2,2.2,0,0,0-.23.57,2.11,2.11,0,0,0,.14.92,5.58,5.58,0,0,0,.64,1.43,1.65,1.65,0,0,0,1.27.76,4.92,4.92,0,0,0,.67-.1,11.45,11.45,0,0,1,2.25.23,1.68,1.68,0,0,0,1.84-1,2.48,2.48,0,0,0,0-.72,14.71,14.71,0,0,0-.06-1.88Z"/><path class="cls-9" d="M188.34,179.29a8.31,8.31,0,0,0-1.55-1.36,2.77,2.77,0,0,0-1.94-.45,4.1,4.1,0,0,1-1.22.26.59.59,0,0,0-.35,0,.56.56,0,0,0-.18.22l-1,1.76a2,2,0,0,0-.24.56,1.94,1.94,0,0,0,.15.92,5.3,5.3,0,0,0,.63,1.44,1.66,1.66,0,0,0,1.27.76,4.92,4.92,0,0,0,.67-.1,11.63,11.63,0,0,1,2.26.23,1.67,1.67,0,0,0,1.83-1,2.41,2.41,0,0,0,0-.71,13,13,0,0,0-.06-1.88Z"/><path class="cls-8" d="M136.82,203.93a8.31,8.31,0,0,0-1.55-1.36,2.72,2.72,0,0,0-1.94-.44,4.42,4.42,0,0,1-1.22.25.68.68,0,0,0-.35,0,.65.65,0,0,0-.18.22l-1,1.76a2,2,0,0,0-.24.56,1.94,1.94,0,0,0,.15.92,5.3,5.3,0,0,0,.63,1.44,1.66,1.66,0,0,0,1.27.76,5.31,5.31,0,0,0,.68-.1,11.61,11.61,0,0,1,2.25.23,1.67,1.67,0,0,0,1.83-1,2.41,2.41,0,0,0,0-.71,13,13,0,0,0-.06-1.88Z"/><path class="cls-9" d="M116.48,237.39a11.48,11.48,0,0,0-1.61-1.24,3.53,3.53,0,0,0-1.88-.56,4.82,4.82,0,0,1-1.14.07.75.75,0,0,0-.33,0,.26.26,0,0,0-.14.15l-.75,1.29a1,1,0,0,0-.16.42,1.5,1.5,0,0,0,.22.74,5.29,5.29,0,0,0,.75,1.21,2.19,2.19,0,0,0,1.28.74c.21,0,.42,0,.63,0a14.23,14.23,0,0,1,2.16.43c.72.12,1.54,0,1.63-.62a1.41,1.41,0,0,0-.06-.57c-.16-.67,0-.82-.24-1.49Z"/><path class="cls-9" d="M101.54,234.14a10.35,10.35,0,0,0-1.61-1.25,3.48,3.48,0,0,0-1.88-.56,4.25,4.25,0,0,1-1.13.07.76.76,0,0,0-.33,0,.36.36,0,0,0-.15.15l-.74,1.29a1.08,1.08,0,0,0-.17.43,1.59,1.59,0,0,0,.23.74,5.06,5.06,0,0,0,.74,1.2,2.19,2.19,0,0,0,1.28.74,4.42,4.42,0,0,0,.63,0,14.18,14.18,0,0,1,2.16.42c.72.12,1.54,0,1.64-.62a1.43,1.43,0,0,0-.06-.57c-.16-.67,0-.82-.24-1.49Z"/><path class="cls-9" d="M202.11,213.69a7.9,7.9,0,0,0-1.13-.87,2.45,2.45,0,0,0-1.32-.4,2.59,2.59,0,0,1-.79.05c-.08,0-.17,0-.23,0a.23.23,0,0,0-.11.11c-.17.3-.34.6-.52.9a.73.73,0,0,0-.11.29,1,1,0,0,0,.16.52,3.6,3.6,0,0,0,.52.85,1.52,1.52,0,0,0,.89.52c.16,0,.3,0,.45,0a10.61,10.61,0,0,1,1.51.3c.51.09,1.08,0,1.15-.43a.92.92,0,0,0-.05-.4c-.11-.47,0-.58-.17-1.05Z"/><path class="cls-8" d="M110.6,184.74a7.54,7.54,0,0,0-.79,1.2,2.69,2.69,0,0,0-.33,1.39,3.17,3.17,0,0,1,.08.82.48.48,0,0,0,0,.24.22.22,0,0,0,.1.11l.89.52a.61.61,0,0,0,.28.11.94.94,0,0,0,.5-.17,3.46,3.46,0,0,0,.78-.57,1.56,1.56,0,0,0,.46-.95,3.62,3.62,0,0,0,0-.46,12.54,12.54,0,0,1,.23-1.58c.06-.53-.07-1.13-.46-1.19a.85.85,0,0,0-.38,0c-.45.13-.55,0-1,.2Z"/><path class="cls-9" d="M195.61,205.65a6.91,6.91,0,0,0-.79,1.2,2.65,2.65,0,0,0-.33,1.38,3.29,3.29,0,0,1,.08.83.66.66,0,0,0,0,.24c0,.06.07.08.11.11l.89.52a.61.61,0,0,0,.28.11,1,1,0,0,0,.49-.17,3.3,3.3,0,0,0,.79-.57,1.58,1.58,0,0,0,.46-1,3.54,3.54,0,0,0,0-.46,11.29,11.29,0,0,1,.23-1.59c.06-.53-.07-1.12-.46-1.18a.85.85,0,0,0-.38,0c-.45.13-.55,0-1,.2Z"/><path class="cls-8" d="M141,190.54a8.88,8.88,0,0,0-.79,1.2,2.82,2.82,0,0,0-.33,1.39,3.25,3.25,0,0,1,.08.83.49.49,0,0,0,0,.24.19.19,0,0,0,.1.1l.89.53a.73.73,0,0,0,.29.11.9.9,0,0,0,.49-.18,3.2,3.2,0,0,0,.78-.56,1.65,1.65,0,0,0,.47-.95c0-.16,0-.31,0-.46a11.24,11.24,0,0,1,.22-1.59c.06-.53-.06-1.13-.46-1.19a1,1,0,0,0-.38.06c-.45.13-.55,0-1,.2Z"/><path class="cls-8" d="M124.42,189.36a8.66,8.66,0,0,0,.5,1.37,2.53,2.53,0,0,0,.91,1.07,3.56,3.56,0,0,1,.7.41.73.73,0,0,0,.18.14.25.25,0,0,0,.15,0l.9-.46a.67.67,0,0,0,.25-.18,1.13,1.13,0,0,0,.14-.53,3.72,3.72,0,0,0,0-1,1.62,1.62,0,0,0-.49-.94c-.12-.1-.25-.16-.38-.25a10.53,10.53,0,0,1-1.12-1.1c-.39-.36-.93-.59-1.2-.28a1.14,1.14,0,0,0-.17.35c-.15.46-.3.48-.4,1Z"/><path class="cls-8" d="M138.4,182.43a3.34,3.34,0,0,0,.19.83,1,1,0,0,0,.61.55,1.86,1.86,0,0,1,.54.13s.08.07.14.06A.24.24,0,0,0,140,184l.89-.49a1.1,1.1,0,0,0,.26-.18,1,1,0,0,0,.21-.38,2.22,2.22,0,0,0,.18-.68.54.54,0,0,0-.26-.54,2.31,2.31,0,0,0-.28-.1,3.86,3.86,0,0,1-.79-.52.87.87,0,0,0-1,0,1.14,1.14,0,0,0-.21.28,7.33,7.33,0,0,0-.54.74Z"/><path class="cls-8" d="M149.49,172.47a3.34,3.34,0,0,0,.19.83,1,1,0,0,0,.61.55,1.86,1.86,0,0,1,.54.13s.08.07.14.06a.21.21,0,0,0,.13,0l.89-.49a1.1,1.1,0,0,0,.26-.18,1,1,0,0,0,.21-.38,2.22,2.22,0,0,0,.18-.68.54.54,0,0,0-.26-.54,2.31,2.31,0,0,0-.28-.1,3.86,3.86,0,0,1-.79-.52.87.87,0,0,0-1,0,1.14,1.14,0,0,0-.21.28,7.33,7.33,0,0,0-.54.74Z"/><path class="cls-9" d="M206.67,191.67a3.19,3.19,0,0,0,.23,1,1.1,1.1,0,0,0,.72.66,2.21,2.21,0,0,1,.65.16.33.33,0,0,0,.16.07.31.31,0,0,0,.16-.06l1.06-.59a1,1,0,0,0,.56-.66,2.8,2.8,0,0,0,.22-.81.67.67,0,0,0-.31-.65c-.11-.05-.23-.07-.34-.11a5.05,5.05,0,0,1-.95-.63,1,1,0,0,0-1.19.06,1.19,1.19,0,0,0-.26.33,8.41,8.41,0,0,0-.63.88Z"/><path class="cls-9" d="M162,155.47a3.58,3.58,0,0,0,.23,1,1.13,1.13,0,0,0,.73.65,2.15,2.15,0,0,1,.64.17.33.33,0,0,0,.17.07.35.35,0,0,0,.16-.06l1.05-.59a1.3,1.3,0,0,0,.31-.21,1.24,1.24,0,0,0,.26-.46,2.69,2.69,0,0,0,.21-.81.66.66,0,0,0-.31-.64,1.69,1.69,0,0,0-.34-.11,5.32,5.32,0,0,1-.94-.63,1,1,0,0,0-1.2,0,1.91,1.91,0,0,0-.25.33,7.67,7.67,0,0,0-.64.89Z"/><path class="cls-9" d="M112.68,229.44a3.32,3.32,0,0,0,.23,1,1.09,1.09,0,0,0,.72.65,2.58,2.58,0,0,1,.65.16s.09.08.16.07a.49.49,0,0,0,.16-.05c.35-.2.7-.4,1.06-.59a2,2,0,0,0,.3-.21,1.24,1.24,0,0,0,.26-.46,3.06,3.06,0,0,0,.22-.81.69.69,0,0,0-.31-.65c-.11,0-.23-.07-.34-.11a5,5,0,0,1-1-.62,1,1,0,0,0-1.19.05,1.35,1.35,0,0,0-.26.33,8.53,8.53,0,0,0-.64.88Z"/><path class="cls-9" d="M174,179.49a8.31,8.31,0,0,0,.5,1.37,2.63,2.63,0,0,0,.91,1.08,3.08,3.08,0,0,1,.7.4c.06.06.12.13.18.14a.16.16,0,0,0,.15,0l.9-.46a.58.58,0,0,0,.25-.18,1.07,1.07,0,0,0,.14-.53,3.72,3.72,0,0,0,0-1,1.68,1.68,0,0,0-.49-.94,3,3,0,0,0-.38-.24,10.65,10.65,0,0,1-1.12-1.11c-.39-.35-.93-.59-1.2-.28a1.09,1.09,0,0,0-.17.36c-.15.46-.3.47-.4,1Z"/><path class="cls-8" d="M119.49,171.8a6.21,6.21,0,0,0,.94,1.11,2,2,0,0,0,1.3.51,3.2,3.2,0,0,1,.87,0,.43.43,0,0,0,.25,0,.35.35,0,0,0,.14-.13l.85-1.11a1.36,1.36,0,0,0,.21-.37,1.43,1.43,0,0,0,0-.65,4.05,4.05,0,0,0-.3-1.06,1.2,1.2,0,0,0-.81-.67,3.84,3.84,0,0,0-.48,0,8.52,8.52,0,0,1-1.54-.4,1.14,1.14,0,0,0-1.37.52,1.57,1.57,0,0,0-.08.49,9.71,9.71,0,0,0-.14,1.31Z"/><path class="cls-8" d="M130.45,157.23a7.87,7.87,0,0,0,.24,1.44,2.61,2.61,0,0,0,.69,1.24,3.42,3.42,0,0,1,.61.54.45.45,0,0,0,.15.18.26.26,0,0,0,.15,0l1-.27a.58.58,0,0,0,.28-.12,1,1,0,0,0,.23-.49,3.87,3.87,0,0,0,.19-1,1.66,1.66,0,0,0-.31-1c-.1-.12-.21-.21-.32-.32a11.55,11.55,0,0,1-.89-1.31c-.31-.43-.8-.77-1.12-.52a1,1,0,0,0-.24.31c-.23.42-.38.4-.57.87Z"/><path class="cls-10" d="M135.94,246.78s3.68-119,29.65-95.63S267.28,208.12,135.94,246.78Z"/><path class="cls-11" d="M295,231.2c-5.68-.62-11.82-1.13-16.69,1.94-2,1.25-3.65,3.06-5.82,3.93a17.51,17.51,0,0,1-6.12.8c-9.9.28-19.57,3-29.12,5.66s-19.13,5.41-27.14,11.26c-7,5.12-13,12.58-21.37,14.37a24.29,24.29,0,0,1-6.6.35h0a9.07,9.07,0,0,1-2.44,0c-8.72-.43-17.43-.83-26.15-1.27a10.55,10.55,0,0,1-5.4-1.23,6.34,6.34,0,0,1-2.28-2.71,14.48,14.48,0,0,1-1.1-6.12c.17-15.65,11-29.39,11.53-45,.09-2.72-.15-5.44-.1-8.16.1-6.6,1.82-13,3.27-19.44a240.22,240.22,0,0,0,5.9-50.17c.19-3.15,4.95-6.47,7.84-5.56a7.81,7.81,0,0,1,1.74.79,18.12,18.12,0,0,1,5,5.29A111.89,111.89,0,0,1,188.3,150a14.42,14.42,0,0,0,2.38,3.8,13.1,13.1,0,0,0,3.55,2.27c5.32,2.61,10.74,5.41,15.64,8.45h0c6.28,3.8,12.69,7.85,18.73,12.22a36.7,36.7,0,0,1,7.39,6.52c1.61,2,2.85,4.35,4.28,6.51.62.93,1.28,1.84,2,2.72a94.51,94.51,0,0,0,8.39,8.94l0,0a11.26,11.26,0,0,0,2.63,2.09,13.54,13.54,0,0,0,3.55,1,49.34,49.34,0,0,1,10.93,4.17l7.15,3.41c6,2.86,12,5.74,17.35,9.82a10.77,10.77,0,0,1,3.64,4.12C296.65,227.81,296.42,230.11,295,231.2Z"/><path class="cls-12" d="M250.63,201.45c-4.08,4.18-8.23,8.39-13.23,11.28a15.41,15.41,0,0,1-7.1,2.37,12.46,12.46,0,0,1-1.37,0,11,11,0,0,1-1.11-.94,15.76,15.76,0,0,1-2.35-3c-.68-1.06-1.29-2.17-1.89-3.28q-1.58-2.85-3.23-5.65a.13.13,0,0,0,0-.05l0-.06c-.67-1.15-1.37-2.29-2.06-3.42a222.35,222.35,0,0,0-27.15-35.55c.35-1.55,1-3,2.36-3.55,2-.8,4.1,1,5.33,2.82a19,19,0,0,1,2.4,5.35,10.08,10.08,0,0,0,1.12,3.07c1.22,1.77,3.53,2.11,5.56,2.64a20.11,20.11,0,0,1,7.47,3.79c2.07,1.67,3.82,3.73,5.76,5.58a35.53,35.53,0,0,0,17.43,9.11c1.24.24,2.49.41,3.74.57A94.59,94.59,0,0,0,250.63,201.45Z"/><path class="cls-3" d="M223.42,238.38h0c-9.43.26-19.06,10.86-37.23,23.15,0,0,0,0,0,0-18.19,12.29-40.33,2.83-40.33,2.83a14.52,14.52,0,0,1-1.1-6.13c.17-15.66,11-29.4,11.53-45.05.09-2.71-.15-5.44-.1-8.16.1-6.6,1.82-13,3.27-19.44a240.22,240.22,0,0,0,5.9-50.17c.16-2.74,3.79-5.61,6.63-5.71l1,1.27c-4.29,4.45-2.62,8.3,15.64,26.27,16.42,16.16,23.31,30.69,29.59,41.48.69,1.18,1.37,2.33,2.05,3.42a.21.21,0,0,1,0,.06.07.07,0,0,1,0,.05,57.11,57.11,0,0,0,17.47,17.08h0s5.75,5.56,8.16,7.6S232.77,237.51,223.42,238.38Z"/><path class="cls-4" d="M295,231.2c-5.68-.62-11.82-1.13-16.69,1.94-2,1.25-3.65,3.06-5.82,3.93a17.51,17.51,0,0,1-6.12.8c-9.9.28-19.57,3-29.12,5.66s-19.13,5.41-27.14,11.26c-7,5.12-12.94,12.67-21.35,14.47a27.34,27.34,0,0,1-6.58.44c1.62-.5,12.23-3.93,18.42-10.53,6.71-7.16,28-18.5,44.29-19.71s28.41-4.37,31.74-7.43,18.61-1.52,16.68-5-11.92-12.33-32.5-19.71-24.1-21.61-30.78-28-17-8.86-20-14.83q9.61,5.64,18.69,12.23a36.59,36.59,0,0,1,7.37,6.52c1.61,2,2.84,4.35,4.27,6.51,2.91,4.38,6.67,8.06,10.4,11.69a11.2,11.2,0,0,0,2.62,2.1,13.61,13.61,0,0,0,3.56,1,49.45,49.45,0,0,1,10.92,4.17l7.15,3.41c6,2.86,12,5.74,17.35,9.82a10.77,10.77,0,0,1,3.64,4.12C296.65,227.81,296.42,230.11,295,231.2Z"/><path class="cls-5" d="M246,226.81c-.79.21-1.57.44-2.35.71a42.29,42.29,0,0,0-11,5.59l-1.05.75a31.39,31.39,0,0,1-4.33,2.85,37.64,37.64,0,0,1-3.81,1.5c-.67.23-1.33.49-2,.78a35.4,35.4,0,0,0-6.69,4.36c-9,6.84-18.43,13.35-28.57,18.09h0A86.48,86.48,0,0,1,175,265.8c-1.27.39-2.57.74-3.89,1a32.67,32.67,0,0,1-6.71.83,18.3,18.3,0,0,1-10.1-2.55c-1.47-.91-2.84-2.09-4.5-2.49a3.43,3.43,0,0,0-3.92,1.67,14.51,14.51,0,0,1-1.1-6.12c.06-5.84,1.61-11.4,3.55-16.9,3.28-9.26,7.67-18.33,8-28.14.09-2.72-.15-5.44-.1-8.16.1-6.6,1.82-13,3.27-19.44a240.22,240.22,0,0,0,5.9-50.17,5.44,5.44,0,0,1,1.72-3.31,7.94,7.94,0,0,1,4.91-2.4,3.41,3.41,0,0,1,1.21.15,7.81,7.81,0,0,1,1.74.79c-.64.11-1.29.21-1.91.33-2.08.4-4.13,1.11-4.87,3-.11.29.09.56-.44.94h0a18.35,18.35,0,0,0,1.19,4.23c.13.28.38.53.52.8,2.89,5.38,7.63,9.47,12,13.62q5,4.65,9.61,9.61a221.77,221.77,0,0,1,27.15,35.55c.7,1.13,1.39,2.27,2.06,3.42,0,0,0,0,0,.06a.09.09,0,0,1,0,.05q1.65,2.81,3.23,5.65c.6,1.11,1.21,2.22,1.89,3.29a16,16,0,0,0,2.35,3,11,11,0,0,0,1.11.94c2.52,1.92,5.63,2.89,8.56,4.11l.33.13h0C241.3,220.76,244.87,223.06,246,226.81Z"/><path class="cls-13" d="M243.62,227.52a.92.92,0,0,1-.51,1.09,92.73,92.73,0,0,1-11.57,5.25c-5.53,2.15-11.42,4-14,3.58-4.92-.78-29.32,24.77-46.5,29.4-5.76,1.28-11.82,1.38-16.81-1.72-1.47-.91-2.84-2.09-4.5-2.49a3.43,3.43,0,0,0-3.92,1.67,14.51,14.51,0,0,1-1.1-6.12c.17-15.66,11-29.4,11.53-45,.09-2.72-.15-5.44-.1-8.16.1-6.6,1.82-13,3.27-19.44a240.22,240.22,0,0,0,5.9-50.17,5,5,0,0,1,1.52-3.27l.84,2.77h0a23,23,0,0,0,1.61,5C171,144,175,150.41,183.52,158.13c15.27,13.79,28,33.22,31.71,38.92s3.53,16.19,10.71,19.86C232.12,220.07,242.92,224.88,243.62,227.52Z"/><path class="cls-14" d="M237.49,219.16c.59,3.38-.75,7.14-3.57,8.89s-6.32,1.37-9.57,1c-6-.74-12.31-1.37-18.07.6a37.41,37.41,0,0,0-9.63,5.46,152.88,152.88,0,0,0-13.09,10.65c-1.95,1.77-4.05,4.25-3.24,6.83.71,2.33,3.57,3.67,3.66,6.1a3.87,3.87,0,0,1-2.44,3.46,12.88,12.88,0,0,1-4.28.79A24.22,24.22,0,0,0,167,265.86a31.76,31.76,0,0,0-2.65,1.81,18.3,18.3,0,0,1-10.1-2.55c-1.47-.91-2.84-2.09-4.5-2.49a3.43,3.43,0,0,0-3.92,1.67,14.51,14.51,0,0,1-1.1-6.12c.06-5.84,1.61-11.4,3.55-16.9a17.3,17.3,0,0,1,6.91-.08c3.73.85,6.85,3.52,10.44,4.87a15.49,15.49,0,0,0,10.32.18,3.58,3.58,0,0,0,1.57-.9,5.09,5.09,0,0,0,.84-1.88,16.61,16.61,0,0,1,8.89-10.24c2.17-1,4.57-1.46,6.53-2.83,2.45-1.72,3.91-4.63,4.69-7.61a90.12,90.12,0,0,0,1.47-9.14,47.63,47.63,0,0,1,2.29-8.74,8.94,8.94,0,0,1,1.69-3.11c1.91-2,5.18-1.85,7.59-.52s4.22,3.57,6.15,5.57,4.21,3.92,6.92,4.24a6.55,6.55,0,0,0,.89,0,15.76,15.76,0,0,0,2.35,3C230.5,216.68,234.11,217.75,237.49,219.16Z"/><path class="cls-8" d="M179.19,197.87a7.72,7.72,0,0,0-2-.18,2.76,2.76,0,0,0-1.84.81,4.91,4.91,0,0,1-.85,1,.67.67,0,0,0-.28.22.57.57,0,0,0,0,.29l.19,2a2.07,2.07,0,0,0,.12.61,2,2,0,0,0,.63.68,5.12,5.12,0,0,0,1.32.8,1.62,1.62,0,0,0,1.47-.14,5.66,5.66,0,0,0,.49-.49,11.9,11.9,0,0,1,2-1.18,1.81,1.81,0,0,0,.92-2,2,2,0,0,0-.39-.6c-.54-.65-.49-.95-1.1-1.52Z"/><path class="cls-8" d="M178.6,217.48a8.3,8.3,0,0,0-2-.19,2.77,2.77,0,0,0-1.83.82,4.89,4.89,0,0,1-.86.95c-.1.07-.22.12-.27.23a.57.57,0,0,0,0,.29l.19,2a1.8,1.8,0,0,0,.13.61,1.87,1.87,0,0,0,.63.68,5,5,0,0,0,1.32.8,1.6,1.6,0,0,0,1.46-.15,4.52,4.52,0,0,0,.5-.48,11.6,11.6,0,0,1,2-1.19,1.8,1.8,0,0,0,.93-2,2.57,2.57,0,0,0-.39-.6c-.54-.64-.5-.94-1.1-1.52Z"/><path class="cls-8" d="M165.53,219.37a5.26,5.26,0,0,0-1.37-.12,1.84,1.84,0,0,0-1.23.55,3.57,3.57,0,0,1-.58.64.47.47,0,0,0-.19.15.44.44,0,0,0,0,.2c0,.46.08.92.13,1.38a1.19,1.19,0,0,0,.08.41,1.39,1.39,0,0,0,.42.45,3.42,3.42,0,0,0,.89.54,1.08,1.08,0,0,0,1-.1,3.51,3.51,0,0,0,.34-.33,7.65,7.65,0,0,1,1.33-.79A1.22,1.22,0,0,0,167,221a1.34,1.34,0,0,0-.27-.4c-.36-.44-.33-.64-.74-1Z"/><path class="cls-8" d="M172.17,175.73a8.29,8.29,0,0,0-2-.18,2.74,2.74,0,0,0-1.83.81,5,5,0,0,1-.86,1c-.1.06-.22.11-.27.22a.49.49,0,0,0,0,.29c.07.68.13,1.37.19,2a1.85,1.85,0,0,0,.13.61,1.83,1.83,0,0,0,.63.67,4.71,4.71,0,0,0,1.32.8,1.6,1.6,0,0,0,1.46-.14,5.78,5.78,0,0,0,.5-.49,12.23,12.23,0,0,1,2-1.18,1.79,1.79,0,0,0,.92-2,1.83,1.83,0,0,0-.39-.6c-.53-.65-.49-.94-1.09-1.52Z"/><path class="cls-8" d="M207.71,196.52a9.52,9.52,0,0,0-2.43-.21,3.28,3.28,0,0,0-2.19,1,5.89,5.89,0,0,1-1,1.14.87.87,0,0,0-.33.27.68.68,0,0,0,0,.35l.23,2.43a2.21,2.21,0,0,0,.15.73,2.16,2.16,0,0,0,.75.81,5.88,5.88,0,0,0,1.57,1,1.9,1.9,0,0,0,1.75-.17,6.55,6.55,0,0,0,.6-.58,13.55,13.55,0,0,1,2.35-1.41,2.14,2.14,0,0,0,1.1-2.35,2.6,2.6,0,0,0-.46-.72c-.65-.77-.59-1.13-1.31-1.81Z"/><path class="cls-9" d="M257.1,216.81a9.12,9.12,0,0,0-1.56-1.36,2.75,2.75,0,0,0-1.94-.44,4.75,4.75,0,0,1-1.22.26.59.59,0,0,0-.35,0,.53.53,0,0,0-.18.21l-1,1.76a1.67,1.67,0,0,0-.23.57,1.84,1.84,0,0,0,.14.92,4.86,4.86,0,0,0,.64,1.43,1.62,1.62,0,0,0,1.27.76,5.37,5.37,0,0,0,.67-.09,11.44,11.44,0,0,1,2.25.22,1.67,1.67,0,0,0,1.83-1,1.94,1.94,0,0,0,0-.72,11.78,11.78,0,0,0-.06-1.88Z"/><path class="cls-9" d="M243.6,199.49a8.7,8.7,0,0,0-1.56-1.36,2.69,2.69,0,0,0-1.94-.44,4.35,4.35,0,0,1-1.22.25.65.65,0,0,0-.34,0,.48.48,0,0,0-.18.22l-1,1.76a2.28,2.28,0,0,0-.23.56,2.07,2.07,0,0,0,.14.92,5.65,5.65,0,0,0,.64,1.44,1.65,1.65,0,0,0,1.27.76,4.92,4.92,0,0,0,.67-.1,11.45,11.45,0,0,1,2.25.23,1.66,1.66,0,0,0,1.83-1,2.11,2.11,0,0,0,0-.71,13,13,0,0,0-.07-1.88Z"/><path class="cls-8" d="M192.08,224.13a8.06,8.06,0,0,0-1.56-1.36,2.69,2.69,0,0,0-1.94-.44,4.35,4.35,0,0,1-1.22.25.65.65,0,0,0-.34,0,.48.48,0,0,0-.18.22l-1,1.76a2.2,2.2,0,0,0-.23.57,2,2,0,0,0,.14.91,5.65,5.65,0,0,0,.64,1.44,1.65,1.65,0,0,0,1.27.76,4.92,4.92,0,0,0,.67-.1,11.45,11.45,0,0,1,2.25.23,1.68,1.68,0,0,0,1.84-1,2.48,2.48,0,0,0,0-.72,14.71,14.71,0,0,0-.06-1.88Z"/><path class="cls-9" d="M171.74,257.6a11.38,11.38,0,0,0-1.61-1.25,3.54,3.54,0,0,0-1.89-.56,4.25,4.25,0,0,1-1.13.07.76.76,0,0,0-.33,0,.36.36,0,0,0-.15.15l-.74,1.29a1.08,1.08,0,0,0-.16.42,1.47,1.47,0,0,0,.22.75,5.8,5.8,0,0,0,.74,1.2,2.22,2.22,0,0,0,1.28.74c.22,0,.42,0,.63,0a14.18,14.18,0,0,1,2.16.42c.73.12,1.54,0,1.64-.62a1.41,1.41,0,0,0-.06-.57c-.16-.67,0-.82-.24-1.49Z"/><path class="cls-9" d="M156.8,254.34a10.84,10.84,0,0,0-1.61-1.25,3.53,3.53,0,0,0-1.88-.56,4.79,4.79,0,0,1-1.14.08.73.73,0,0,0-.32,0,.26.26,0,0,0-.15.16c-.25.43-.5.85-.74,1.28a1,1,0,0,0-.17.43,1.48,1.48,0,0,0,.23.74,5.06,5.06,0,0,0,.74,1.2,2.13,2.13,0,0,0,1.28.74,4.42,4.42,0,0,0,.63,0,14.18,14.18,0,0,1,2.16.42c.72.12,1.54,0,1.64-.62a1.81,1.81,0,0,0-.06-.56,9.78,9.78,0,0,0-.25-1.5Z"/><path class="cls-9" d="M257.37,233.89a7.9,7.9,0,0,0-1.13-.87,2.35,2.35,0,0,0-1.32-.39,3.5,3.5,0,0,1-.79.05.47.47,0,0,0-.23,0c-.06,0-.08.06-.11.11-.17.3-.34.6-.52.9a.77.77,0,0,0-.11.3,1.09,1.09,0,0,0,.15.52,3.9,3.9,0,0,0,.52.84,1.54,1.54,0,0,0,.9.52c.15,0,.3,0,.44,0a10.68,10.68,0,0,1,1.52.29c.5.09,1.08,0,1.14-.43a1.09,1.09,0,0,0,0-.4c-.11-.47,0-.58-.17-1.05Z"/><path class="cls-8" d="M165.86,204.94a7.59,7.59,0,0,0-.8,1.2,2.8,2.8,0,0,0-.32,1.39,3.68,3.68,0,0,1,.08.82.67.67,0,0,0,0,.24.2.2,0,0,0,.11.11l.88.52a.81.81,0,0,0,.29.12,1,1,0,0,0,.49-.18,3.51,3.51,0,0,0,.79-.57,1.53,1.53,0,0,0,.46-1,3.62,3.62,0,0,0,0-.46,11.15,11.15,0,0,1,.23-1.58c.06-.53-.07-1.13-.46-1.19a1,1,0,0,0-.38.05c-.45.13-.55,0-1,.21Z"/><path class="cls-9" d="M250.86,225.85a8.29,8.29,0,0,0-.79,1.2,2.68,2.68,0,0,0-.32,1.39,3.68,3.68,0,0,1,.08.82.67.67,0,0,0,0,.24c0,.06.07.08.11.11l.88.52a.61.61,0,0,0,.29.11.88.88,0,0,0,.49-.17,3.51,3.51,0,0,0,.79-.57,1.61,1.61,0,0,0,.46-.95,3.62,3.62,0,0,0,0-.46,11.15,11.15,0,0,1,.23-1.58c.06-.53-.07-1.13-.47-1.19a.79.79,0,0,0-.37.05c-.45.13-.55,0-1,.21Z"/><path class="cls-8" d="M196.22,210.75a6.83,6.83,0,0,0-.79,1.19,2.71,2.71,0,0,0-.33,1.39,3.29,3.29,0,0,1,.08.83.66.66,0,0,0,0,.24.29.29,0,0,0,.11.11l.89.52a.69.69,0,0,0,.28.11.9.9,0,0,0,.49-.18,3,3,0,0,0,.79-.56,1.58,1.58,0,0,0,.46-1,3.46,3.46,0,0,0,0-.46,11.29,11.29,0,0,1,.23-1.59c.06-.53-.07-1.12-.46-1.18a.85.85,0,0,0-.38.05c-.45.13-.55,0-1,.2Z"/><path class="cls-8" d="M179.67,209.56a8.66,8.66,0,0,0,.5,1.37,2.63,2.63,0,0,0,.92,1.07,3.49,3.49,0,0,1,.69.41.49.49,0,0,0,.19.14.17.17,0,0,0,.14,0l.91-.46a.76.76,0,0,0,.25-.18,1.1,1.1,0,0,0,.14-.53,3.73,3.73,0,0,0,0-1,1.6,1.6,0,0,0-.49-.94c-.11-.1-.25-.16-.37-.25a9.72,9.72,0,0,1-1.13-1.1c-.38-.36-.92-.59-1.19-.28a1,1,0,0,0-.17.35c-.15.46-.3.48-.4,1Z"/><path class="cls-8" d="M193.66,202.63a2.52,2.52,0,0,0,.19.83,1,1,0,0,0,.61.55,2.25,2.25,0,0,1,.54.13s.08.07.14.06a.33.33,0,0,0,.13,0l.89-.5a1.1,1.1,0,0,0,.25-.17,1,1,0,0,0,.22-.39,2.08,2.08,0,0,0,.18-.68.56.56,0,0,0-.26-.54c-.09,0-.19-.06-.28-.09a4.27,4.27,0,0,1-.8-.53.84.84,0,0,0-1,.05,1.13,1.13,0,0,0-.22.27c-.21.35-.35.39-.53.74Z"/><path class="cls-8" d="M204.75,192.67a2.52,2.52,0,0,0,.19.83,1,1,0,0,0,.61.55,2.25,2.25,0,0,1,.54.13.23.23,0,0,0,.14.07l.13-.05.89-.5a1.1,1.1,0,0,0,.25-.17,1,1,0,0,0,.22-.39,2.08,2.08,0,0,0,.18-.68.56.56,0,0,0-.26-.54,2.29,2.29,0,0,0-.28-.09,4.27,4.27,0,0,1-.8-.53.84.84,0,0,0-1,0,1.44,1.44,0,0,0-.22.27c-.21.35-.35.39-.53.74Z"/><path class="cls-9" d="M261.93,211.88a3.5,3.5,0,0,0,.22,1,1.12,1.12,0,0,0,.73.66,2.29,2.29,0,0,1,.65.16.29.29,0,0,0,.16.07.35.35,0,0,0,.16-.06l1-.59a1.65,1.65,0,0,0,.31-.2,1.24,1.24,0,0,0,.26-.46,2.77,2.77,0,0,0,.21-.81.65.65,0,0,0-.31-.65,2.72,2.72,0,0,0-.34-.11,4.83,4.83,0,0,1-.94-.63,1.06,1.06,0,0,0-1.2.06,1.37,1.37,0,0,0-.25.33,8.53,8.53,0,0,0-.64.88Z"/><path class="cls-9" d="M217.25,175.67a3.58,3.58,0,0,0,.23,1,1.14,1.14,0,0,0,.72.65,2.22,2.22,0,0,1,.65.17.33.33,0,0,0,.16.07.31.31,0,0,0,.16-.06l1.06-.59a1.3,1.3,0,0,0,.31-.21,1.22,1.22,0,0,0,.25-.46,2.4,2.4,0,0,0,.22-.8.67.67,0,0,0-.31-.65,3.38,3.38,0,0,0-.34-.11,4.68,4.68,0,0,1-.94-.63,1,1,0,0,0-1.2.06,1.59,1.59,0,0,0-.26.32,7.58,7.58,0,0,0-.63.89Z"/><path class="cls-9" d="M167.93,249.64a3.58,3.58,0,0,0,.23,1,1.13,1.13,0,0,0,.73.65,2.5,2.5,0,0,1,.64.16.27.27,0,0,0,.17.08.52.52,0,0,0,.16-.06l1-.59a1.3,1.3,0,0,0,.31-.21,1.24,1.24,0,0,0,.26-.46,2.69,2.69,0,0,0,.21-.81.65.65,0,0,0-.31-.64,1.7,1.7,0,0,0-.34-.12,5.27,5.27,0,0,1-.94-.62,1,1,0,0,0-1.2.05,1.91,1.91,0,0,0-.25.33,7.67,7.67,0,0,0-.64.89Z"/><path class="cls-9" d="M229.26,199.7a8.55,8.55,0,0,0,.5,1.36,2.72,2.72,0,0,0,.92,1.08,3.43,3.43,0,0,1,.69.4.53.53,0,0,0,.19.15.22.22,0,0,0,.14,0l.91-.47a.56.56,0,0,0,.25-.18,1.06,1.06,0,0,0,.14-.52,3.72,3.72,0,0,0,0-1,1.57,1.57,0,0,0-.49-.94,3,3,0,0,0-.37-.25,10.72,10.72,0,0,1-1.13-1.11c-.38-.35-.92-.58-1.19-.28a1,1,0,0,0-.17.36c-.15.46-.3.48-.4,1Z"/><path class="cls-8" d="M174.74,192a6,6,0,0,0,.95,1.11,2,2,0,0,0,1.3.52,2.85,2.85,0,0,1,.87,0,.4.4,0,0,0,.24,0,.27.27,0,0,0,.15-.13l.84-1.11a1.17,1.17,0,0,0,.22-.37,1.3,1.3,0,0,0,0-.65,3.57,3.57,0,0,0-.3-1.06,1.16,1.16,0,0,0-.8-.67,3.84,3.84,0,0,0-.48,0,8.52,8.52,0,0,1-1.54-.4,1.15,1.15,0,0,0-1.37.52,1.57,1.57,0,0,0-.08.49,7.29,7.29,0,0,0-.14,1.31Z"/><path class="cls-8" d="M185.71,177.43a8.81,8.81,0,0,0,.23,1.44,2.71,2.71,0,0,0,.7,1.24,3.41,3.41,0,0,1,.6.54.57.57,0,0,0,.16.18.2.2,0,0,0,.15,0l1-.26a.72.72,0,0,0,.28-.13A1,1,0,0,0,189,180a3.41,3.41,0,0,0,.18-1,1.59,1.59,0,0,0-.3-1c-.1-.12-.21-.21-.32-.32a9.75,9.75,0,0,1-.9-1.31c-.31-.43-.79-.77-1.12-.52a1.09,1.09,0,0,0-.23.31c-.23.42-.39.41-.58.87Z"/></svg>