<svg id="Chocolate" xmlns="http://www.w3.org/2000/svg" viewBox="0 0 370 330"><defs><style>.cls-1{fill:#754f42;}.cls-2{fill:#5e382a;}.cls-3{fill:#4a2c20;}.cls-4{fill:#29150e;opacity:0.3;}.cls-5{fill:#a3725d;}.cls-6{fill:#855c4c;}</style></defs><path class="cls-1" d="M125.11,233.81c-5,4.82-18.38,17.92-19.3,20.45s-2.52,14.47-1.83,15.62,6.66,1.84,11,3.67,7.36,2.3,16.78,3.91,17.92,2.76,21.13,3.22,15.4,4.13,20.45,6,10.57,3.91,12.87,2.53A51,51,0,0,0,200.7,277c6.89-8,15.85-19.3,19.07-24.58s16.31-20.22,20-27.34,15.62-21.37,15.62-21.37S148.55,221.86,125.11,233.81Z"/><path class="cls-2" d="M122.12,236.7l-2.56,2.51c.49-.1.94-.19,1.25-.23,1.2-.17,30.49,6.72,32.91,7.06S142,260.69,139.07,262.93l-.17,3.62s15-14.13,17.06-15.85a4.21,4.21,0,0,0,1.55-4.83C157.19,244.44,126.87,237.74,122.12,236.7Z"/><path class="cls-2" d="M157.68,226.23c4-.18,13.44,1.89,13.27,2.58s-10.34,11.2-10.34,11.72-1.38,2.41-.52,2.93,17.06-14.82,16.2-16-13.1-4.3-13.1-4.3Z"/><path class="cls-2" d="M202.65,255.69c-.17-2.07-2.93-4.48-2.24-5.17s9.82-12.75,9.82-12.75l-30.32-6.89-.69-3.27L218,237.08s-1.38,6.21-1.9,6.89S202.65,255.69,202.65,255.69Z"/><path class="cls-2" d="M162.79,246.45c.06.63.4,3.56,1.44,3.38s30,8.79,30,9.31-9.48,12.23-9.3,12.92-.18,4.31.51,4.48,15.85-17.92,15-18.44S164.63,245.07,162.79,246.45Z"/><path class="cls-2" d="M220.06,235.53c0-1.2-1.21-5.17-.86-5.68s10-11.38,9.82-11.89-23.44-2.76-23.44-2.76l8.27-2.24,22.21,3.77-3.6,7.26Z"/><path class="cls-3" d="M238.26,217.27c.52.34.81-1.61,1.15-2s-19.29-3.22-25.25-4c-3.59.7-7.3,1.43-11.08,2.19C214,214.13,237.86,217,238.26,217.27Z"/><path class="cls-3" d="M179.05,229c1.2-.51,35.84,7.41,37.9,8.27s5.52,3.11,5.52,1.9-1-3.62-1.55-3.79-39.12-7.24-38.08-8.79c.84-1.26,9-8.43,13-11.63-2.32.47-4.66,1-7,1.45-4.49,3.81-10.58,9-11.33,9.49-1.21.86-16-3.1-16-3.1s-9.3,2.24-6.2,2.07,19.47,2.93,19.47,2.93-12.06,15.51-14.65,15.68-36.36-8.27-36.36-8.27l-.13.07c-.69.67-1.46,1.41-2.27,2.21,5.79.69,35.86,7.76,36.18,8.4s-14,15.11-18.27,20c1.38,1.89,1.38,4.13,2.76,2.76s19.59-21.49,20.79-22.17,35.38,11.48,36.24,12.17,3.62,2.93,4.14,2.24.34-5.51.34-5.51-38.42-9.31-37.39-10.86S177.84,229.5,179.05,229Z"/><path class="cls-2" d="M238,211.41c-1,1.38-.32,3.21-1,4.42s-2.21.81-3.59,1.15-10.91,14.93-12.46,16.48-.35,4.31-.86,5-1.9-1.55-3.11-1.21S204.38,253.11,202.83,255s-.23,3.62-.92,4.83-.81-1-2.88-1.21-10.85,15.16-13.09,16-13.79-3.79-17.92-5-21.54-4.83-22.92-4.48-1.89,2.76-2.93,2.76-2.41-4.14-3.1-5-27.27-7.35-33.45-8c-.93,3.45-2.29,13.92-1.64,15s6.66,1.84,11,3.67,7.36,2.3,16.78,3.91,17.92,2.76,21.13,3.22,15.4,4.13,20.45,6,10.57,3.91,12.87,2.53A51,51,0,0,0,200.7,277c6.89-8,15.85-19.3,19.07-24.58s16.31-20.22,20-27.34,15.62-21.37,15.62-21.37-5.25.89-13.66,2.41C240.85,207.37,238.78,210.33,238,211.41Z"/><path class="cls-3" d="M255.38,203.71s-3.11.53-8.39,1.47c-6.44,5.51-7.35,9.12-7.81,10.82s-1.72.46-2.87.69S226,229.21,223,232.66s-2.82,5-3.28,5.23-1.89-.75-4.19,1.43S202.46,255,201.77,255.85s.65,1.16.08,3-.8-.57-1.44-.75-3.73,5-4.76,7.07-6.32,8.85-9.42,11-1.5,1.49-1.38,5.05c.09,3,.11,5.67.32,8.3a3.09,3.09,0,0,0,1.06-.37A51,51,0,0,0,200.7,277c6.89-8,15.85-19.3,19.07-24.58s16.31-20.22,20-27.34S255.38,203.71,255.38,203.71Z"/><path class="cls-4" d="M255.38,203.71s-3.11.53-8.39,1.47c-6.44,5.51-7.35,9.12-7.81,10.82s-1.72.46-2.87.69S226,229.21,223,232.66s-2.82,5-3.28,5.23-1.89-.75-4.19,1.43S202.46,255,201.77,255.85s.65,1.16.08,3-.8-.57-1.44-.75-3.73,5-4.76,7.07a91.4,91.4,0,0,1-6.11,10.23c-1.38,1.9-1.73,4.83-2.42,7.41-.77,2.9-2.16,4.11-2,6.74a3.09,3.09,0,0,0,1.06-.37A51,51,0,0,0,200.7,277c6.89-8,15.85-19.3,19.07-24.58s16.31-20.22,20-27.34S255.38,203.71,255.38,203.71Z"/><path class="cls-5" d="M109.72,251.38c2.07,0,28.14,6.09,28.6,5.86s9.24-8.48,9.54-8.84c1-1.27,3.1-3.1,2.87-2.18s-11.37,11.14-11.37,11.94,0,4.25-.35,4.14-.57-3.45-1.72-3.91S110.87,252.76,109.72,251.38Z"/><path class="cls-5" d="M147.05,264.37a28.36,28.36,0,0,1,5.4-1.73c.58,0,30,7.47,30.9,7.47s2.53-.69,1.5-.69-22.52-5.51-23.9-5.51-6.89-1.61-6.89-2.42,9.42-11.14,9.42-11.6-1.84.92-5.17,4.6-6,7.23-6,7.23S147.05,263.56,147.05,264.37Z"/><path class="cls-5" d="M137.29,234c2.07.23,20,4.94,20.79,4.82s10.57-9.65,10.34-8.84-8.84,9-9.19,9.76a27.91,27.91,0,0,0-.8,3.56s-.12-3.33-1-3.44S136.26,235,137.29,234Z"/><path class="cls-5" d="M179.79,231.74c-1.38,1.26-10.22,11-8.5,11.14s28.38,7.13,28.26,7.47S172.44,243.92,172,244s-5.51.69-5.17.69a8.4,8.4,0,0,0,3-1.61C170,242.65,177.73,232,179.79,231.74Z"/><path class="cls-5" d="M190.13,224.62c2.18,0,25.73,4.59,26.88,4.36s10.46-11.14,10.34-10.68-8.73,10.57-8.84,11,1.37,4.82.91,4.94-1.72-3.68-2.18-3.79-1.26-.46-1.84-.58S188.64,226.11,190.13,224.62Z"/><path class="cls-2" d="M189.9,281.94c-.38,0-.57-2.33-.15-5.12a12.83,12.83,0,0,1,1-3.54,2.44,2.44,0,0,1,.73-1,.56.56,0,0,1,.39-.12c.09,0,.13.07.14.11s-.11.16-.15.35a8.59,8.59,0,0,0-.23.94c-.16.85-.33,2.08-.54,3.44C190.64,279.74,190.25,282,189.9,281.94Z"/><path class="cls-2" d="M193.69,272.75c-.38,0-.53-1.09-.21-2.17s.55-1.78.9-1.85c.18,0,.38.21.47.63a3.4,3.4,0,0,1-.09,1.56C194.43,272,194.05,272.75,193.69,272.75Z"/><path class="cls-2" d="M203.8,266.43c-.19,0-.32-.31-.49-.74l-.67-1.66a8.41,8.41,0,0,1-.59-1.84c-.09-.52,0-.87.14-.93.34-.08,1,.84,1.67,2.27a4.52,4.52,0,0,1,.38,2.05C204.18,266.14,204,266.45,203.8,266.43Z"/><path class="cls-2" d="M201.85,266.09c-.34.12-.79-.28-.92-.89s.1-1.12.46-1.18.72.37.83.91S202.19,266,201.85,266.09Z"/><path class="cls-2" d="M230.68,234c-.35-.07-.34-2.33-.43-5.16s.17-5.19.55-5.18.69,2.28.77,5.16S231.05,234.11,230.68,234Z"/><path class="cls-2" d="M228.62,232c-.37,0-.58-1-.49-2.18s.47-2.1.83-2.07.58,1,.49,2.18S229,232,228.62,232Z"/><path class="cls-2" d="M242.74,216.81c-.17,0-.4-.31-.53-.86a11.74,11.74,0,0,1-.25-2.1c0-.8-.07-1.48-.13-1.93s-.19-.67-.12-.86.6-.1,1,.49a4.51,4.51,0,0,1,.6,2.23,9.42,9.42,0,0,1-.14,2.14C243,216.45,242.93,216.77,242.74,216.81Z"/><path class="cls-2" d="M244.35,212.44c-.35.08-.79-.49-1-1.29s-.06-1.5.29-1.59.8.49,1,1.29S244.71,212.35,244.35,212.44Z"/><path class="cls-2" d="M246.54,209.57c-.37,0-.66-.23-.67-.4s.21-.39.55-.52a.53.53,0,0,1,.76.39C247.21,209.38,246.9,209.57,246.54,209.57Z"/><path class="cls-1" d="M143,273.9c-.18-.3,1-1.56,2.72-3.07a10.38,10.38,0,0,1,2.44-1.65c.7-.32,1.2-.38,1.28-.22.14.33-1.22,1.38-2.86,2.87S143.24,274.23,143,273.9Z"/><path class="cls-1" d="M143.72,270.22c-.2-.29.07-.87.79-1.18s1.43,0,1.4.38-.43.64-.91.85S143.93,270.53,143.72,270.22Z"/><path class="cls-1" d="M128.67,268.39c0-.18.22-.45.69-.78a11.1,11.1,0,0,1,2-1.13,5.45,5.45,0,0,1,2.38-.47c.65,0,1,.25,1,.42s-.37.32-.89.5-1.2.44-2,.77a13.35,13.35,0,0,1-2.14.76C129.14,268.59,128.73,268.56,128.67,268.39Z"/><path class="cls-1" d="M125.92,266.09c-.23-.28.18-1,1.09-1.31s1.69,0,1.66.39-.59.64-1.23.86S126.14,266.38,125.92,266.09Z"/><path class="cls-6" d="M202.88,245.64c.3.2.09,1.09-.59,2s-1.59,1.3-1.82,1,.17-1,.78-1.82S202.58,245.44,202.88,245.64Z"/><path class="cls-6" d="M204.86,243a.73.73,0,0,1,0,1,.71.71,0,0,1-1,.13.72.72,0,0,1,0-1A.73.73,0,0,1,204.86,243Z"/><path class="cls-6" d="M160.61,262.76c-.06.37-1.34.35-2.63-.17s-2.22-1-2.2-1.33,1.34-.44,2.66.09S160.66,262.41,160.61,262.76Z"/><path class="cls-6" d="M164.4,263.91a.64.64,0,0,1-.82.57.67.67,0,0,1-.56-.8.71.71,0,0,1,.81-.5A.76.76,0,0,1,164.4,263.91Z"/><path class="cls-6" d="M133,254.83c0,.18-.48.36-1.27.39a12,12,0,0,1-3-.34c-1.13-.26-2.11-.52-2.82-.7s-1.17-.31-1.18-.5.46-.38,1.27-.42a11.23,11.23,0,0,1,3,.33c1.13.25,2.1.51,2.82.71S133,254.64,133,254.83Z"/><path class="cls-6" d="M135.8,255.41a.48.48,0,0,1-.14.53,1,1,0,0,1-.8.23c-.65-.08-.93-.56-.79-.88a.93.93,0,0,1,.93-.43A1.09,1.09,0,0,1,135.8,255.41Z"/><path class="cls-6" d="M216.32,228.3c-.11.35-1.41.18-2.86-.2s-2.6-.59-2.65-.95,1.36-.76,3-.33S216.43,228,216.32,228.3Z"/><path class="cls-6" d="M218.28,226.46c.26.23.22.76-.33,1a.78.78,0,0,1-.75-.05.44.44,0,0,1-.19-.49,1.52,1.52,0,0,1,.23-.44c.07-.12.12-.2.21-.24A.92.92,0,0,1,218.28,226.46Z"/><path class="cls-4" d="M242.23,221l.27-.4.41-.61q.18-.28.39-.57c.06-.1.13-.19.19-.28l.43-.62c4.9-7,11.46-14.78,11.46-14.78s-106.83,18.15-130.27,30.1L123.93,235l2.54,2.54c6.66-.45,8-3.21,11.26-3.9,4.82-1.15,25.53-4.35,30.79-5.4,1.14-.23,2.15,1.92,13.95-1,2.76-.69,4.37-3,7.58-4,6.29-1.79,32.49-6.56,38.77-5.17,2,.45,3.61.77,5.24,1.16l4.26,8.36c.56-.89,1.05-1.72,1.44-2.46a40.89,40.89,0,0,1,2.15-3.62Z"/><path class="cls-1" d="M86.52,181.77c-1.73,3.1-2.93,10.51-2.76,12.41s5,13.09,8.79,20.5,10.16,22.75,12.06,23.44,21.54-1.38,29.64-4.14,18.95-8.1,27.22-8.27,23.95-4.14,32.22-6.2,21.89-3.62,34.29-7.41,31.88-8.1,34.81-9.48,13.1-1.9,13.44-2.93-3.62-12.23-5.17-15.51-10.74-15.39-11.66-16.08-2.18.92-2.64-.11-.58-3-1.38-4.6-12.23-15.11-13.27-15.22-20.62,3.27-21.42,3.73-2.64,2.87-4.37,3.33-2.41-2.18-3.67-1.72-23.44,4.94-24.82,5.86-1.72,3-3.67,3-4.25-1.5-5.52-1.38-17.69,5.4-22.86,5.4c-1.37.69-3,2.41-3.9,2.52s-4.48-1.26-6.55-1.26-20.1,4.83-20.91,5.51-2,2.53-3.9,3.11-5.4-2.3-6.78-2.3-23.2,4.82-23.78,5.28S86.52,181.77,86.52,181.77Z"/><path class="cls-2" d="M114.69,174.21c1,3.55,5.9,16,4.91,16.41-1.15.46-20.33,4.71-22.06,5.51s-1.83,2.53-2.87,4.36c1.15.23,30.33-7.12,31.13-7.35.61-.17-4.29-11.22-7-17C117.39,175.69,115.82,174.68,114.69,174.21Z"/><path class="cls-2" d="M229.19,173.61c.18-.81-8.49-13-12.5-18.5a2.65,2.65,0,0,1-.37.12c-1.51.41-2.23-1.58-3.23-1.76,1.65,3.15,11.25,16.87,11,17.27s-24.82,5.17-25.85,5.63-2.41,2.64-2.87,3C196.45,181,229,174.65,229.19,173.61Z"/><path class="cls-2" d="M256.38,166.7a14.45,14.45,0,0,0-1-3.31l0-.09c-3.34.85-22.19,5.06-23,5.37s-1.72,2.42-1.95,3.8C232,172.77,251.79,168,256.38,166.7Z"/><path class="cls-2" d="M177.38,207.39c.23-1,.23-2.41,1-2.76s22.86-4.59,22.86-5.4-11-16.2-10.34-16.88,1.72-1.61,2.29-.81,11.26,18.73,11.38,20.1S182.21,208.42,177.38,207.39Z"/><path class="cls-2" d="M152.2,168.81a1.41,1.41,0,0,1-.32.09,17.9,17.9,0,0,1-3.53-.76c2,3.79,8.28,16.12,7.78,16.62s-24.47,4.59-26,5.17-1.5,1.95-2,2.7c0,0,31.48-3.85,33.66-5.35C162.24,186.83,155.13,174,152.2,168.81Z"/><path class="cls-2" d="M105.13,223.36c.68-.81,2.18-3.34,3.1-3.68s25.38-4.6,25-5.51-9.53-18.38-9.53-18.38l2.87-.35S139.24,219,138.9,219.33,113.05,222.67,105.13,223.36Z"/><path class="cls-2" d="M140.05,217.5c.92-1.27,2.87-5.06,3.67-5.4s22.29-4.71,23.44-5.52-9-17.8-8.27-17.69,1.49-.46,2.06-.11,9.77,19.87,9.54,20.22S142,217.27,140.05,217.5Z"/><path class="cls-2" d="M211.1,200c.05-.23.86-2.3,2-2.88s24.58-5.4,24.7-6.31-10-15.51-10-15.51l2.3-.81s13.32,19.19,13,20.51S211.1,200,211.1,200Z"/><path class="cls-3" d="M259.4,168.1c-.92-.69-2.18.92-2.64-.11a10.8,10.8,0,0,1-.51-1.88c-5.61,1.33-24.65,5.84-25.68,5.84s-9-13.53-12.71-17.32l-1.54.6a1.3,1.3,0,0,1-.58,0c2.7,3.61,12.6,16.94,11.55,17.54s-30.67,6.55-31.87,6.55c-1,0-7.93-13-10.16-17.28a2.21,2.21,0,0,1-1.1.28l-.34,0c1.5,2.85,8.49,16.14,8.49,17.37,0,1.38-26.19,5.69-28.43,6.21-2,.46-6-11.2-10.08-18.1-.09,0-.17-.09-.26-.08s-1.92,1.18-2.1,1.15c1.64,3.65,8.93,17.27,8.48,17.72s-29.81,5.85-31.71,6c-1.58.14-5-10.77-7.53-16.43a.76.76,0,0,0-.16.06,3.43,3.43,0,0,1-2-.24c1.55,4.23,6.47,16.07,5.77,16.78-.86.86-27.57,6.37-30.15,7.58l.51,3.45s29.64-7.93,31.19-8.1,13.1,23.6,13.1,23.6,2.07-.34,2.24-.86S129.77,195.73,130.63,195s29.29-5.86,29.81-6,11.2,21.54,11.2,22.23,3.62,0,3.62,0-11.38-22.58-10.69-23.09,27.92-5.86,28.61-5.86,11.71,20.67,12.57,21.36,3.45-.51,3.45-.51-12.58-20.34-12.41-20.85,31.37-6.72,32.23-6.72S243.15,195,243.15,195l1.89-.86S233,175.91,232.29,175.05,259.4,168.1,259.4,168.1Z"/><path class="cls-2" d="M161.47,225.71c8.27-.17,23.95-4.14,32.22-6.2s21.89-3.62,34.29-7.41,31.88-8.1,34.81-9.48,13.1-1.9,13.44-2.93c.28-.85-2.34-8.56-4.15-13.1-6,1.17-26.48,5-27.38,5.95s-.69,2.28-1.55,2.5c-1.55.38-2.07-2.07-3.62-1.72S212.3,199.17,211.1,200s-2.24,2.41-4.14,2.92-2.24-2.06-3.79-1.72-24.81,5.17-25.85,5.69-1.55,2.58-3.1,3.44-2.93-2.06-4.31-1.72-26.53,6.55-27.22,6.89-1.9,1.73-3.1,2.42-3.62-1.21-4.66-1.21-28.25,6.55-29.46,6.2-7.93-17.23-8.79-18.78-1-.34-2.07-.34.87-2.93.18-4.31-4.84-13.41-8.06-17.9l-.21.15c-1.73,3.1-2.93,10.51-2.76,12.41s5,13.09,8.79,20.5,10.16,22.75,12.06,23.44,21.54-1.38,29.64-4.14S153.2,225.88,161.47,225.71Z"/><path class="cls-2" d="M271.06,184.18c-.09-.2-.22-.44-.37-.7-3.93.75-23.31,5.56-24.15,6s-1.61,2.41-2.42,3.9c0,0,25.28-1.61,26.08-1.84a12.6,12.6,0,0,0,2.86-2.39C272.29,187.07,271.55,185.22,271.06,184.18Z"/><path class="cls-3" d="M193.69,219.51c8.27-2.07,21.89-3.62,34.29-7.41s31.88-8.1,34.81-9.48,13.1-1.9,13.44-2.93c.27-.81-2.12-7.9-3.91-12.49-1.39.42-3.18,1-5.45,1.58-7,1.95-16.89,1.84-19.76,2.53s-2.53,1.14-3.68,2.64-3-.12-3.9,0-8.16,2.64-10.46,3.33-16.77,2.76-17.57,3-1.49,1-3.1,1.83c-1,.92-2.3.69-3.45,0s-25,5.75-26.88,6.09-2.53,2.41-3.45,2.41-2.18-1.14-2.87-1.72-3.33.69-4.13,1.26-9.65,2.07-17.35,3.45-9.19,3.22-9.88,3.22-.69.11-1.72.46-.81,1.26-2.53.92-4-.23-7.7,0-16.54,3.1-20.21,3.9-3,1.72-3.33,2.53a92.08,92.08,0,0,0-1,12.82,2,2,0,0,0,.73.68c1.89.69,21.54-1.38,29.64-4.14s18.95-8.1,27.22-8.27S185.42,221.57,193.69,219.51Z"/><path class="cls-4" d="M276.23,199.69c.27-.81-2.12-7.9-3.91-12.49-1.39.42-3.18,1-5.45,1.58-5.17,1.44-11.89,1.75-16.22,2.1a32.29,32.29,0,0,0-3,1.64,14.06,14.06,0,0,1-4,1.13l-.22.3c-.82,1.07-2,.54-2.94.2l-3.09.41c-2.58.82-6.69,2.23-8.33,2.72-2.29.69-16.77,2.76-17.57,3s-1.49,1-3.1,1.83c-1,.92-2.3.69-3.45,0s-25,5.75-26.88,6.09-2.53,2.41-3.45,2.41-2.13-1.1-2.83-1.69c-.73.1-1.52.19-2.35.28a10.47,10.47,0,0,0-1.82.95c-.81.58-9.65,2.07-17.35,3.45s-9.19,3.22-9.88,3.22-.69.11-1.72.46-.81,1.26-2.53.92a23,23,0,0,0-5.54-.13c-4.37.53-9.85,1.5-10.85,2.38a40.62,40.62,0,0,0-5.17,6,95.65,95.65,0,0,1-10.29,11.43,1.08,1.08,0,0,0,.32.22c1.89.69,21.54-1.38,29.64-4.14s18.95-8.1,27.22-8.27,23.95-4.14,32.22-6.2,21.89-3.62,34.29-7.41,31.88-8.1,34.81-9.48S275.89,200.72,276.23,199.69Z"/><path class="cls-2" d="M180.68,161.46c2.27,4.12,8.78,16,8.3,16.52s-23.55,4.82-24.35,5.05-.57,2.3-.75,2.88c6.26,0,28.78-5.17,29-5.75s-6.79-13.32-9.26-17.85A14,14,0,0,1,180.68,161.46Z"/><path class="cls-5" d="M124,174.76c.92,1.38,6,13.07,6.41,13s22.2-4,22.08-3.54-22.17,4.71-22.63,4.94-1.84,2.41-1.95,2.07,1-2.53.57-3.45S123.5,175.45,124,174.76Z"/><path class="cls-5" d="M133.73,195.44c.92,2.07,7.58,15.05,7.58,15.62s-1.15,4.25-.57,4.14,1.83-3.22,2.87-3.56,21.94-5.29,22.74-5.52-1.15-.45-4.59.58-18.84,3.67-19.19,3.22S134.07,194.18,133.73,195.44Z"/><path class="cls-5" d="M156.13,167.81c.57,2,6.89,13.76,6.89,14.22s-.34,2.5,0,2.5S164.51,182,165,182s23.09-3.91,22.75-4.25-23.58,3.65-23.92,3.42S156.24,167,156.13,167.81Z"/><path class="cls-5" d="M167.16,189.7c1.15,1.49,8.15,13.9,8.38,14.36s-.92,3.9-.34,3.9,1.15-3,1.84-3.21,7.92-1.5,10-2.07,11.26-2.64,10.22-2.76-7.69,1.72-11.6,2.41-8.15,1.44-8.84,1S167.16,188.66,167.16,189.7Z"/><path class="cls-5" d="M201.85,182.69c.69,1.26,8.62,13,9.42,13.1s25-5.86,25.16-5.52-6.67,2.3-10.46,3.1-13.44,3-14.24,3.45-1.5,2.87-1.84,2.53.34-2.53-.34-3.45S200.59,183.49,201.85,182.69Z"/><path class="cls-5" d="M188,160.63c1.49.92,8,12.64,8.38,13.44s-1,3-.68,3.56,1.83-1.37,2.75-1.95,20.34-3.9,21.71-4.48-2.06-.23-6.89.69-14.93,2.76-15.28,2.64-6.43-11.48-8-12.86S187.6,160.06,188,160.63Z"/><path class="cls-5" d="M221.61,153.51c1.49,1.61,8.84,13.56,9.53,13.56s18-3.91,18-3.56-17.69,4-17.92,4.82a9,9,0,0,1-1.38,2.18,20.48,20.48,0,0,0,.11-2.87C229.88,167.3,219.77,154.32,221.61,153.51Z"/><path class="cls-5" d="M235.16,174.88c1.38,2.07,9.65,12.17,9.65,13.09s-1,3-.46,2.88,1.5-2.19,2-2.42,20-4.94,21.39-5.63c-1.61-.91-17.4,4.08-21.54,3.62C245.36,186.19,235.62,174.3,235.16,174.88Z"/><path class="cls-5" d="M90.19,180.28c.92,2.18,5.29,14.59,6.32,14.7s8.73-1.72,10.68-2.3,10-2.06,10.11-1.72-11.37,2.3-12.75,3.1-7.93,1.61-8.16,2S95,199,95,198.2s.91-2.41.23-3.1-3.57-7.59-4.94-12.07C89.5,181,90.08,180.28,90.19,180.28Z"/><path class="cls-5" d="M99.38,203.83c.69,1.95,0,4.25,6.32,13.21.94,1.33,1.38,1.49.92,2s-1.84,2.64-1.27,2.3,2.07-2,2.88-2.07,23.89-4.48,24.46-5.17c-2.29-.34-19.87,3.68-24.12,4.14C106.27,218.07,99.84,202.45,99.38,203.83Z"/><path class="cls-2" d="M106.42,231.48c-.29-.19,1-2.8,2.78-5.91a26.92,26.92,0,0,1,2.67-3.8,4.63,4.63,0,0,1,1-1.05c.34-.2.57-.17.6-.09s-.1.22-.25.47-.29.62-.59,1.2l-2.31,3.94C108.52,229.33,106.74,231.7,106.42,231.48Z"/><path class="cls-2" d="M107.62,224.68c-.32-.16-.09-1.29.79-2.31s1.93-1.43,2.14-1.14-.38,1.11-1.14,2S108,224.84,107.62,224.68Z"/><path class="cls-2" d="M121.15,223c-.35,0-.56-1-.22-2.18s1.13-1.91,1.43-1.69.11,1-.17,2.06S121.52,223,121.15,223Z"/><path class="cls-1" d="M97.37,209.86c-.15.09-.48-.13-.8-.61a12.33,12.33,0,0,1-.89-1.85,4.61,4.61,0,0,0-.9-1.46c-.3-.29-.61-.45-.6-.65s.39-.36,1-.17a2.38,2.38,0,0,1,1,.64,4.2,4.2,0,0,1,.7,1.1,8.09,8.09,0,0,1,.56,2C97.51,209.42,97.53,209.76,97.37,209.86Z"/><path class="cls-1" d="M98.83,215.11c-.32.17-.84-.27-1.16-1s-.29-1.38,0-1.52.86.31,1.17,1S99.16,215,98.83,215.11Z"/><path class="cls-2" d="M152.77,221.66c-.13-.14.19-.6.57-1.34a15.49,15.49,0,0,0,1.15-3l.45-1.8a6.22,6.22,0,0,0,.17-.76c0-.25.09-.5.14-.72a3.24,3.24,0,0,1,.42-1.08.71.71,0,0,1,.28-.25c.1,0,.15,0,.18,0s0,.18,0,.39l0,1,0,.72a5.47,5.47,0,0,1-.06.89,14.11,14.11,0,0,1-.38,1.92,7.74,7.74,0,0,1-1.66,3.25C153.45,221.56,152.88,221.79,152.77,221.66Z"/><path class="cls-2" d="M151.82,217.18c-.35-.15-.13-1.16.29-2.16s.66-1.7,1-1.8c.18,0,.39.21.47.66a3.13,3.13,0,0,1-.25,1.64C152.84,216.67,152.14,217.32,151.82,217.18Z"/><path class="cls-2" d="M169.4,215.46c-.38-.1-.25-1.25.16-2.4s.6-2,1-2.08c.17,0,.38.23.47.71a3.57,3.57,0,0,1-.18,1.78C170.36,214.75,169.73,215.54,169.4,215.46Z"/><path class="cls-2" d="M228.84,205.29c-.2-.31,1.68-1.91,3.38-4.43.87-1.25,1.63-2.44,2.26-3.26s1.1-1.28,1.26-1.18,0,.72-.46,1.66a22.86,22.86,0,0,1-2,3.53,12.69,12.69,0,0,1-2.85,3C229.58,205.21,228.94,205.43,228.84,205.29Z"/><path class="cls-2" d="M228.59,200.29c-.22-.29.45-1.12,1.45-1.83s1.92-1.11,2.16-.84-.36,1.18-1.39,1.91S228.8,200.59,228.59,200.29Z"/><path class="cls-2" d="M271.66,194.78c.1.35-2.24,1.38-4.56,3.49s-3.72,4.24-4.05,4.09c-.16-.07,0-.76.48-1.74a12.21,12.21,0,0,1,2.7-3.33,11.72,11.72,0,0,1,3.64-2.26C270.91,194.64,271.62,194.62,271.66,194.78Z"/><path class="cls-2" d="M269.42,199.17c.22.31-.42,1-1.27,1.62s-1.52,1-1.83.8.09-1.22,1.07-1.87S269.22,198.89,269.42,199.17Z"/><path class="cls-6" d="M207.82,188.89c-.28.24-1.09-.31-1.63-1.29s-.64-1.88-.32-2,1,.49,1.47,1.39S208.1,188.66,207.82,188.89Z"/><path class="cls-6" d="M209.43,191.88a.57.57,0,0,1-.85,0,.54.54,0,0,1,.16-.82.7.7,0,0,1,.86,0A.67.67,0,0,1,209.43,191.88Z"/><path class="cls-6" d="M260.78,182.92c0,.35-.74.8-1.85,1.08s-2.16.09-2.17-.28.79-.72,1.86-1S260.73,182.55,260.78,182.92Z"/><path class="cls-6" d="M264.92,182c.11.35,0,.7-.15.78s-.49-.11-.66-.43a.55.55,0,0,1,.15-.79C264.51,181.46,264.81,181.65,264.92,182Z"/><path class="cls-6" d="M229.19,162.93c-.27.26-1.25-.48-1.84-1.71s-.76-2.24-.46-2.42,1.09.67,1.64,1.83S229.46,162.68,229.19,162.93Z"/><path class="cls-6" d="M231,164.43a.59.59,0,1,1-1-.46.87.87,0,0,1,.75-.27A1,1,0,0,1,231,164.43Z"/><path class="cls-6" d="M198.75,172.81c-.29.19-1.13-.37-1.81-1.5a3.38,3.38,0,0,1-.49-1.65c0-.47.17-.75.34-.75.37,0,.71.79,1.29,1.74S199.06,172.6,198.75,172.81Z"/><path class="cls-6" d="M161.07,174.42c-.34.11-.83-.33-1.17-1s-.33-1.49,0-1.6.83.33,1.17,1S161.42,174.3,161.07,174.42Z"/><path class="cls-6" d="M163.71,178.67a.73.73,0,0,1-.92-.33.79.79,0,0,1,.12-.93.65.65,0,0,1,1,.26A.69.69,0,0,1,163.71,178.67Z"/><path class="cls-6" d="M182,167.87c-.35.14-1-1-1.75-2.31-.36-.67-.68-1.25-.92-1.66s-.41-.69-.32-.85.49-.14,1,.2a4.85,4.85,0,0,1,1.41,1.68C182.17,166.41,182.3,167.75,182,167.87Z"/><path class="cls-6" d="M183.93,171.55a.65.65,0,0,1-1-.28.66.66,0,0,1,.32-1,.79.79,0,0,1,.84.37A.83.83,0,0,1,183.93,171.55Z"/><path class="cls-6" d="M149.7,175.45c-.36.15-1.18-1.34-2.1-3.09a24.51,24.51,0,0,0-1.27-2.12c-.34-.52-.62-.81-.54-1s.58-.12,1.2.32a6.43,6.43,0,0,1,1.76,2.17C149.75,173.64,150,175.33,149.7,175.45Z"/><path class="cls-6" d="M150.62,178.67c-.37.06-.72-.31-.83-.78a.9.9,0,0,1,.37-1.06c.33-.15.79.19.92.76S151,178.61,150.62,178.67Z"/><path class="cls-6" d="M116.15,184.41c-.37.08-1-1.91-1.79-4.3s-1.59-4.21-1.31-4.43.59.25,1.1,1a11.73,11.73,0,0,1,1.46,3C116.42,182.21,116.5,184.35,116.15,184.41Z"/><path class="cls-6" d="M125.46,204.52c-.34.17-1.25-1.21-1.91-3s-1.23-3.1-1-3.33.52.11,1,.63a8.39,8.39,0,0,1,1.23,2.22C125.46,202.87,125.76,204.35,125.46,204.52Z"/><path class="cls-6" d="M126.26,207.5c-.36,0-.65-.15-.71-.36a.64.64,0,0,1,.48-.67.58.58,0,0,1,.8.35A.55.55,0,0,1,126.26,207.5Z"/><path class="cls-6" d="M159.46,194.06c-.33.22-1.09-.69-1.71-1.75-.32-.52-.59-.95-.81-1.24s-.39-.5-.35-.68.39-.29.9-.08a3.23,3.23,0,0,1,1.38,1.31C159.59,192.84,159.74,193.88,159.46,194.06Z"/><path class="cls-6" d="M155.9,190.73c.09.36-.63.8-1.49,1s-1.56.16-1.73-.17.5-.94,1.45-1.12S155.81,190.38,155.9,190.73Z"/></svg>