<svg xmlns="http://www.w3.org/2000/svg" viewBox="0 0 370 330"><defs><style>.cls-1{isolation:isolate;}.cls-2{fill:#407e1f;}.cls-3{fill:#55931f;}.cls-4{fill:#b3b3b3;mix-blend-mode:multiply;}.cls-5{fill:#1a3e14;}.cls-6{fill:#396e19;}.cls-7{fill:#96cf31;}.cls-8{fill:#b1dd5e;}.cls-9{fill:#8cc12e;}.cls-10{fill:#a3cb57;}</style></defs><g class="cls-1"><g id="Layer_54" data-name="Layer 54"><path class="cls-2" d="M129.24,177.67c0,7.49,8.46,13.41,61.66,15.3,33.81,0,60.78-7.81,60.78-15.3s-27.12-20.26-60.93-20.26S129.24,170.18,129.24,177.67Z"/><path class="cls-3" d="M130.41,180.44c0,7.48,28,12.68,61.8,12.68s60.64-5.2,60.64-12.68-27.12-20.26-60.93-20.26S130.41,173,130.41,180.44Z"/><path class="cls-4" d="M129.24,177.67c0-6.23,19.16-16.11,45-19.26-5.57,4.48-11.86,9.13-18.67,13.75-7.25,4.93-14.37,9.34-21,13.07C130.41,183,129.24,180.45,129.24,177.67Z"/><path class="cls-2" d="M189,185.09c25.32-2.74,46.38-8,54.89-13.59,5.67,3.11,8.94,6.34,8.94,8.94,0,7.48-26.83,12.68-60.64,12.68-27.92,0-51.86-3.55-59.36-9C143.28,187.33,164.79,187.72,189,185.09Z"/><path class="cls-5" d="M231,163.86c-1.55-6.13.54-8.2,2.93-8.13-.06,6.56,2.87,4.92,6,10.05,1.82,3,6.95,4.22,10.94,4.8a24.54,24.54,0,0,1,4.44.53c.44,0,.71.11.72.16v0c4.1,1.05,7,3.13,7.45,5.6l.11-.06a14.49,14.49,0,0,0,4.72-4.36,10.89,10.89,0,0,0,1.45-3.17c.16-.57.73-2.7.42-3.24a1.23,1.23,0,0,1,0-.17,3,3,0,0,1,3.18-3,3.34,3.34,0,0,1,2.53,3.79s0,.11-.07.33a16.63,16.63,0,0,1-2.26,5.12,14.75,14.75,0,0,1-2.36,2.88,13.46,13.46,0,0,1-7.67,3.51c-.3,2.59-2.39,8.8-17,13.12-5.78,1.18-11.52-1.67-13.44-2-.87-3,7.77.14,10.26-8.79-5.39-3.5-11.39-4.37-11.39-7.33a24.41,24.41,0,0,0,6.77-1.05C235.05,169.65,231.55,166.16,231,163.86Z"/><path class="cls-2" d="M225.84,201.12c0,7.48-8.46,13.41-61.66,15.3-33.81,0-60.78-7.82-60.78-15.3s27.12-20.26,60.93-20.26S225.84,193.63,225.84,201.12Z"/><path class="cls-3" d="M224.67,203.89c0,7.48-28,12.68-61.8,12.68s-60.64-5.2-60.64-12.68,27.12-20.26,60.93-20.26S224.67,196.4,224.67,203.89Z"/><path class="cls-4" d="M225.84,201.12c0-6.23-19.16-16.11-45.05-19.26,5.56,4.47,11.86,9.12,18.67,13.75,7.25,4.92,14.37,9.34,21,13.07C224.66,206.46,225.84,203.89,225.84,201.12Z"/><path class="cls-2" d="M166.05,208.54c-25.32-2.75-46.37-8-54.88-13.6-5.67,3.12-8.94,6.35-8.94,8.95,0,7.48,26.83,12.68,60.64,12.68,27.92,0,51.86-3.55,59.35-9C211.8,210.78,190.29,211.16,166.05,208.54Z"/><path class="cls-5" d="M124.12,187.3c1.55-6.13-.54-8.2-2.93-8.12.06,6.56-2.88,4.91-6,10-1.81,3-6.94,4.21-10.93,4.8a24.76,24.76,0,0,0-4.45.53c-.43.05-.7.1-.71.16h0c-4.09,1.05-7,3.14-7.44,5.6l-.11-.05a14.65,14.65,0,0,1-4.73-4.37,11.14,11.14,0,0,1-1.44-3.17c-.16-.57-.74-2.69-.43-3.23a.62.62,0,0,0,0-.17,3,3,0,0,0-3.18-3,3.33,3.33,0,0,0-2.53,3.78s0,.12.07.33a16.58,16.58,0,0,0,2.26,5.13A15.32,15.32,0,0,0,84,198.44,13.41,13.41,0,0,0,91.63,202c.3,2.59,2.39,8.8,17,13.12,5.78,1.17,11.52-1.68,13.43-2,.88-3-7.76.13-10.25-8.79,5.39-3.51,11.39-4.37,11.39-7.33a24.41,24.41,0,0,1-6.77-1.05C120,193.1,123.53,189.61,124.12,187.3Z"/><path class="cls-3" d="M260.21,217.35c-4.21,6.19-30.28-5.24-58.25-24.24s-47.24-38.36-43-44.55S192.74,147,220.71,166,264.41,211.15,260.21,217.35Z"/><path class="cls-6" d="M261.06,216.09C258.54,219.8,240.2,196,212.23,177s-55-25.94-52.45-29.65,33-.27,60.93,18.73S263.58,212.38,261.06,216.09Z"/><path class="cls-7" d="M183.43,156c1.87-5-1.06-9.62-6.09-11.5s-10.25-.32-12.12,4.71a9.09,9.09,0,0,0-.53,2.49c3.82,2,9.59,4.46,16.5,7.75A9.58,9.58,0,0,0,183.43,156Z"/><path class="cls-7" d="M201.7,163.59c2.2-4.9-.41-9.68-5.31-11.88s-10.21-1-12.41,3.89a9.69,9.69,0,0,0-.78,4.85c4.48,2.17,9.38,4.66,14.49,7.54A9.65,9.65,0,0,0,201.7,163.59Z"/><path class="cls-7" d="M213.91,178.11A9.63,9.63,0,0,0,219,173.2c2.2-4.9-.41-9.68-5.31-11.88s-10.2-1-12.41,3.89a9.47,9.47,0,0,0-.81,4.34c3.86,2.24,7.82,4.7,11.8,7.4C212.8,177.33,213.35,177.72,213.91,178.11Z"/><path class="cls-7" d="M235.36,184.33c2.2-4.89-.42-9.67-5.31-11.87s-10.21-1-12.41,3.89a9.68,9.68,0,0,0-.86,3.8c4.35,3.14,8.44,6.36,12.24,9.53A9.67,9.67,0,0,0,235.36,184.33Z"/><path class="cls-7" d="M250.9,196.47c2.2-4.89-.41-9.67-5.31-11.87s-10.21-1-12.41,3.89a9.62,9.62,0,0,0-.84,4c3.93,3.38,7.51,6.64,10.72,9.62A9.7,9.7,0,0,0,250.9,196.47Z"/><path class="cls-7" d="M259.23,216.17A9.72,9.72,0,0,0,263,211.9c2.2-4.89-.42-9.67-5.31-11.88s-10.21-1-12.41,3.9a1.27,1.27,0,0,0-.06.18C251.88,210.35,256.68,215,259.23,216.17Z"/><path class="cls-8" d="M182.72,152.09c-.73,1.07-3.65.34-6.54-1.62s-4.64-4.41-3.91-5.48,3.65-.34,6.53,1.62S183.44,151,182.72,152.09Z"/><path class="cls-8" d="M201.25,159.61c-.79,1-3.66.1-6.41-2.05s-4.34-4.71-3.54-5.73,3.66-.09,6.41,2S202,158.59,201.25,159.61Z"/><path class="cls-8" d="M218.51,169.22c-.79,1-3.66.09-6.41-2.05s-4.34-4.71-3.54-5.73,3.66-.1,6.41,2.05S219.3,168.2,218.51,169.22Z"/><path class="cls-8" d="M234.91,180.36c-.79,1-3.66.09-6.41-2.06s-4.34-4.7-3.55-5.72,3.67-.1,6.42,2S235.7,179.34,234.91,180.36Z"/><path class="cls-8" d="M250.45,192.5c-.79,1-3.66.09-6.41-2.05s-4.34-4.71-3.54-5.73,3.66-.1,6.41,2.05S251.24,191.48,250.45,192.5Z"/><path class="cls-8" d="M262.53,207.92c-.8,1-3.67.1-6.42-2s-4.33-4.71-3.54-5.72,3.67-.1,6.41,2S263.32,206.91,262.53,207.92Z"/><path class="cls-2" d="M203.38,191c-26.41-17.93-45-36.19-43.52-43.39a3.78,3.78,0,0,0-.94.93c-4.2,6.19,15.07,25.56,43,44.55s54,30.43,58.25,24.24a4.13,4.13,0,0,0,.51-1.23C254.51,220.15,229.79,209,203.38,191Z"/><path class="cls-5" d="M180.88,156.19c-5.24,1.37-12.07-5.94-15.45-10.1.61-.05,1.24-.08,1.91-.08,2.5-2.36,6.3-2.86,10-1.48a13.83,13.83,0,0,1,1.65.76c4.59-6.38,4.66-13.61,2.15-9.29-3.4,5.84-19.19,4.3-22.62,3.89-5.28-2.49-10-2.67-12.52-1.3a13.86,13.86,0,0,1-2.11-5,10.94,10.94,0,0,1-.1-3.48c.07-.59.37-2.77.86-3.15a1.32,1.32,0,0,0,.08-.14,3,3,0,0,0-1.76-4,3.32,3.32,0,0,0-3.8,2.5s0,.12-.06.33a16.42,16.42,0,0,0,.09,5.6,15,15,0,0,0,1.05,3.57,12.79,12.79,0,0,0,4.22,5.15,1.56,1.56,0,0,0-.16.2c-1.15,2.12,2,7.44,6.5,12h0s10.58,16.21,5.89,22.18c-3.73,4.75,6.82-.21,10-10q-1.93-2.1-3.45-4C175,164.27,187.5,154.47,180.88,156.19Z"/><path class="cls-7" d="M200.1,217.46a11.28,11.28,0,1,1-11.27-11.27A11.28,11.28,0,0,1,200.1,217.46Z"/><path class="cls-8" d="M197.79,214.89c-.66,1.86-4.25,2.3-8,1s-6.29-3.92-5.63-5.79,4.24-2.3,8-1S198.45,213,197.79,214.89Z"/><path class="cls-7" d="M247,243.56a11.27,11.27,0,1,1-11.27-11.27A11.27,11.27,0,0,1,247,243.56Z"/><path class="cls-8" d="M244.68,241c-.65,1.86-4.24,2.3-8,1s-6.3-3.92-5.64-5.78,4.25-2.31,8-1S245.34,239.12,244.68,241Z"/><path class="cls-9" d="M216.47,211.53a8.66,8.66,0,1,1-8.66-8.66A8.66,8.66,0,0,1,216.47,211.53Z"/><path class="cls-10" d="M214.7,209.55c-.51,1.43-3.26,1.77-6.16.75s-4.84-3-4.33-4.45,3.26-1.77,6.16-.74S215.2,208.12,214.7,209.55Z"/><path class="cls-9" d="M131.77,240.3a8.66,8.66,0,1,1-8.66-8.66A8.66,8.66,0,0,1,131.77,240.3Z"/><path class="cls-10" d="M130,238.32c-.51,1.44-3.26,1.77-6.16.75s-4.84-3-4.33-4.45,3.26-1.76,6.16-.74S130.5,236.89,130,238.32Z"/><path class="cls-7" d="M224.66,223a9.49,9.49,0,1,1-9.49-9.49A9.49,9.49,0,0,1,224.66,223Z"/><path class="cls-8" d="M222.72,220.87c-.56,1.57-3.58,1.94-6.75.82s-5.3-3.3-4.75-4.87,3.58-1.94,6.75-.82S223.27,219.3,222.72,220.87Z"/><path class="cls-7" d="M279.08,228.35a9.5,9.5,0,1,1-9.5-9.49A9.49,9.49,0,0,1,279.08,228.35Z"/><path class="cls-8" d="M277.13,226.18c-.55,1.57-3.57,1.94-6.75.82s-5.3-3.3-4.75-4.87,3.58-1.94,6.75-.82S277.68,224.61,277.13,226.18Z"/><path class="cls-7" d="M141.05,218.62a9.5,9.5,0,1,1-9.49-9.5A9.49,9.49,0,0,1,141.05,218.62Z"/><path class="cls-8" d="M139.1,216.45c-.55,1.57-3.57,1.93-6.75.81s-5.3-3.3-4.74-4.87,3.57-1.93,6.75-.81S139.66,214.87,139.1,216.45Z"/><path class="cls-7" d="M166.71,253.57a9.5,9.5,0,1,1-9.49-9.5A9.49,9.49,0,0,1,166.71,253.57Z"/><path class="cls-8" d="M164.76,251.39c-.55,1.58-3.57,1.94-6.75.82s-5.3-3.3-4.74-4.87,3.57-1.93,6.75-.82S165.32,249.82,164.76,251.39Z"/><path class="cls-7" d="M166.48,229.85a11.28,11.28,0,1,1-11.27-11.27A11.27,11.27,0,0,1,166.48,229.85Z"/><path class="cls-8" d="M164.17,227.27c-.66,1.87-4.25,2.3-8,1s-6.29-3.91-5.64-5.78,4.25-2.3,8-1S164.83,225.41,164.17,227.27Z"/><path class="cls-9" d="M186.93,226a10.7,10.7,0,1,1-10.7-10.7A10.7,10.7,0,0,1,186.93,226Z"/><path class="cls-10" d="M184.74,223.51c-.63,1.77-4,2.18-7.61.92s-6-3.72-5.35-5.49,4-2.18,7.61-.92S185.36,221.74,184.74,223.51Z"/><path class="cls-7" d="M197,240.17a11.73,11.73,0,1,1-11.72-11.72A11.73,11.73,0,0,1,197,240.17Z"/><path class="cls-8" d="M194.64,237.49c-.69,1.94-4.42,2.39-8.34,1s-6.55-4.07-5.86-6,4.41-2.4,8.34-1S195.32,235.55,194.64,237.49Z"/></g></g></svg>