<svg xmlns="http://www.w3.org/2000/svg" xmlns:xlink="http://www.w3.org/1999/xlink" viewBox="0 0 370 330"><defs><style>.cls-1{fill:#f8a532;}.cls-2{fill:#9a6213;}.cls-3{fill:#a61814;}.cls-4{fill:#669e32;}.cls-5{fill:#598b2c;}.cls-6{isolation:isolate;}.cls-7{fill:#efa948;}.cls-8{clip-path:url(#clip-path);}.cls-10,.cls-12,.cls-13,.cls-16,.cls-17,.cls-27,.cls-28,.cls-30,.cls-31,.cls-9{mix-blend-mode:overlay;}.cls-16,.cls-9{opacity:0.5;}.cls-10{opacity:0.3;}.cls-11{clip-path:url(#clip-path-2);}.cls-12,.cls-30{opacity:0.2;}.cls-13,.cls-16,.cls-17,.cls-29,.cls-30,.cls-31{fill:#fff;}.cls-13{opacity:0.1;}.cls-14{fill:#e59213;}.cls-15{fill:#fbb63b;}.cls-17{opacity:0.6;}.cls-18{clip-path:url(#clip-path-3);}.cls-19{fill:#be1a16;}.cls-20{fill:#ef3631;}.cls-21{fill:#5d690f;}.cls-22{fill:#9aae1a;}.cls-23{fill:#705c6d;}.cls-24{fill:#ba98b4;}.cls-25{fill:#476f23;}.cls-26{clip-path:url(#clip-path-4);}.cls-27,.cls-28,.cls-31{opacity:0.15;}.cls-32{fill:#73b239;}.cls-33{clip-path:url(#clip-path-5);}.cls-34{clip-path:url(#clip-path-6);}.cls-35{clip-path:url(#clip-path-7);}.cls-36{fill:#97d062;}.cls-37{fill:#90b86a;}.cls-38{fill:#f9c41c;}.cls-39{fill:#fbd544;}.cls-40{fill:#ffeb31;}.cls-41{fill:#f9e638;}.cls-42{fill:#f7ab14;}</style><clipPath id="clip-path"><path class="cls-1" d="M217,208.18c-3.31-40.07-57.43-47.53-90.56-40.28-59.76,11.45-61.65,74.74-.38,86.21C160.56,261.59,218.63,250.46,217,208.18Z"/></clipPath><clipPath id="clip-path-2"><path class="cls-2" d="M83.8,181.62C81.14,240.2,208.4,246,214,189.25,216.68,129.53,89.37,123.61,83.8,181.62Z"/></clipPath><clipPath id="clip-path-3"><path class="cls-3" d="M188.39,166.7l0,7.65c0,5.6-3.7,11.2-11.05,15.47-14.81,8.61-38.89,8.61-53.79,0-7.5-4.33-11.25-10-11.23-15.69l0-7.64c0,5.67,3.73,11.36,11.23,15.69,14.9,8.6,39,8.6,53.79,0C184.7,177.9,188.38,172.31,188.39,166.7Z"/></clipPath><clipPath id="clip-path-4"><path class="cls-1" d="M216.93,137.64C223.35,67.08,81.43,63,81.41,134.83c4.82,30.13,51.17,35.42,79.8,33.24C182.87,165.72,211.09,158.32,216.93,137.64Z"/></clipPath><clipPath id="clip-path-5"><path class="cls-4" d="M126.27,168.5l-.84,1.55-2,3.94,2.68,1.23-.68,3.56,3.43,1.46,4.72-3.68,1.62.53.58,3.49,2.43,1.31,3.34-.25.24-4.86,3.38-1.43,3,4.61,2.42.63,4.94-5.87,2.43,1,2.44,5.31,6.68-.44L166,176.72l.75-1.75,9.77,2.21,1.44-1.83-5.42-5.07.19-2.66A148.86,148.86,0,0,1,126.27,168.5Z"/></clipPath><clipPath id="clip-path-6"><path class="cls-5" d="M87.67,155l1.4-5.43,3.33-2.39,6,2.2,1.74,3-6.75,4.73,2.34,1.78L99,156.65l4.27,1-1.13,5.58.94.73,4.4-1.76,4.84.61.36,6.74h2.91l.94-1.31.23-6.28,4.12-.79,2.67,2.43,1.88,6.47-2.58,4.31S92.35,167.47,87.67,155Z"/></clipPath><clipPath id="clip-path-7"><path class="cls-5" d="M175.7,173.3l-3.52-3.65,2.25-5.71,3.5-2.93h3.25l1,2.46-.31,3.54.78,2,2.34-.54v-5.08l4.57-2,4.18.91,2.85,1.6,1.19-1.74-1.33-4.51,1.33-1.33,4.29.43,2.46,1.62,2.46-.72-.91-1.67-5.63-4,1.34-1.6,5.2-1.4,3.65,1.4,2.18,4.43S206.69,168.88,175.7,173.3Z"/></clipPath></defs><g class="cls-6"><g id="Burger"><path class="cls-7" d="M194.12,175.31h0l-.33-.17.76.41Z"/><path class="cls-1" d="M217,208.18c-3.31-40.07-57.43-47.53-90.56-40.28-59.76,11.45-61.65,74.74-.38,86.21C160.56,261.59,218.63,250.46,217,208.18Z"/><g class="cls-8"><path class="cls-9" d="M192.66,173.87c-12-6.35-27.6-9.35-43.13-9.06s-31,3.86-42.65,10.65S89.49,191,89.7,199.58,96,216.69,108.05,223s27.6,9.34,43.13,9.05,31-3.86,42.65-10.65,17.39-15.5,17.18-24.12S204.67,180.22,192.66,173.87Z"/><path class="cls-10" d="M217,210.86c-.72,61.21-135.19,61-136.14,0C86.29,263,211.83,263.28,217,210.86Z"/></g><g class="cls-6"><path class="cls-2" d="M83.8,181.62C81.14,240.2,208.4,246,214,189.25,216.68,129.53,89.37,123.61,83.8,181.62Z"/><g class="cls-11"><path class="cls-9" d="M82.44,192.47s3.6-7,6.82-7.48,20.08,11.64,24.33,13.43,13.16,4.49,16.23,7.09c2.05,1.74,11.31,9.57,14.72,15.86a1.9,1.9,0,0,0,3.11.35c4.41-5,15.25-15.34,27.47-20.5,15.85-6.69,26.3-16.92,31.26-18.13s8.87,6.38,8.87,6.38l1.21-12.88-22.19-24.53-70.1,4.39L76.67,164Z"/><path class="cls-12" d="M214.79,187.17c0-.5-.75-4.38-.75-4.89-6.14,53.09-118.65,58.43-130.28,1C83.88,244.73,212.67,247.8,214.79,187.17Z"/></g><path class="cls-13" d="M190.89,150.43c-22.51-14.56-59.78-16-83.26-3.11-45.52,26.31,5.53,64.33,39.71,61.6C181.45,214.23,234.54,179.85,190.89,150.43Z"/></g><path class="cls-14" d="M220.1,175.68c-2.29-4.63-8.13-8.76-12.75-11.34L179.9,149c-6.67-3.6-20.7-5.92-28.35-5.82l-12.5.15a41.54,41.54,0,0,0-19.14,4.9l-19.63,10.53c-10.18,6.52-19.41,16.74-22.52,24.46l.74,3.06a.66.66,0,0,0,1.06.4L83.22,184c3.13-2.33,6.38-3.12,10-1.64l21.81,14.09a26,26,0,0,0,6.27,3c3.3,1,8.58,3.07,12,6.31,4.12,4,10.06,9.1,12.05,11.67a1,1,0,0,0,1.59,0c2.43-2.84,9.77-8.62,18.5-13.18,10.72-5.59,36.07-21.56,36.07-21.56,6.18-6,16.61-3.18,17.74-2.79h0a1,1,0,0,0,1.31-1.08Z"/><path class="cls-15" d="M217.88,171A25.83,25.83,0,0,0,207.28,160L179.83,144.6c-6.67-3.6-20.7-5.92-28.35-5.82l-12.5.15a41.54,41.54,0,0,0-19.14,4.9l-13.61,8c-10.18,6.51-19.74,7.7-25.87,23.56l-2.62,7.51a.38.38,0,0,0,.61.43l3.39-2.78.25-.19a11.87,11.87,0,0,1,11.67-1.13l5.47,2.58L117.25,194c7.27,4.81,14.16,5.2,20,10.75a108.16,108.16,0,0,1,8,8.27,1.24,1.24,0,0,0,1.88,0c2.56-3,9.7-8.75,18.23-13.2,10.73-5.6,32-18.4,32-18.4l4.1-3.17c4.77-3.68,10.12-4.72,15.86-2.61h0l1.57.75a.82.82,0,0,0,1.13-1Z"/><path class="cls-16" d="M114.71,190.09A38.42,38.42,0,0,0,126.89,197c10.88,3.41,20.07,15.54,17.83,11.93-8.07-13,7.79-5.66,15.48-8.09,7.06-2.23,9-4.15,9-4.15l-5.78,2a24.33,24.33,0,0,1-7.6,1.13,47.36,47.36,0,0,1-14.36-1.82C134,195.47,120.28,193.12,114.71,190.09Z"/><path class="cls-17" d="M91.12,177.68s-4-.82-6.8.34a27.12,27.12,0,0,0-5.28,3.6c-.49-.31,3-8.57,4-10.23C84.72,174.23,85.6,175.35,91.12,177.68Z"/><path class="cls-17" d="M211.11,173.58c4.82-.21,4.66.53,7.74,2a.37.37,0,0,0,.5-.5l-3.47-6.26C216.26,171.12,213.53,173.47,211.11,173.58Z"/><g class="cls-6"><g class="cls-6"><path class="cls-3" d="M188.39,166.7l0,7.65c0,5.6-3.7,11.2-11.05,15.47-14.81,8.61-38.89,8.61-53.79,0-7.5-4.33-11.25-10-11.23-15.69l0-7.64c0,5.67,3.73,11.36,11.23,15.69,14.9,8.6,39,8.6,53.79,0C184.7,177.9,188.38,172.31,188.39,166.7Z"/><g class="cls-18"><path class="cls-19" d="M188.39,167c-1.06,14.1-19.35,20.09-31.44,21.27-15.44,1.86-43.52-3.67-44.63-21.82-.6,9.64.15,17.17,11.21,23.33,13.62,7.5,30.74,8.18,45.45,3.67,7.63-2.57,15.45-6.83,18.52-14.48,1.41-2.95.72-9.14.89-12.31Z"/></g></g><path class="cls-20" d="M177.17,151.08c14.9,8.7,15,22.8.17,31.49-15.65,9.2-38,9.19-53.79,0-14.91-8.69-15-22.79-.18-31.49S162.26,142.39,177.17,151.08Z"/></g><g class="cls-6"><path class="cls-21" d="M147.65,157.11c-.66,9.37-10.5,14.42-18.54,16.73A55.19,55.19,0,0,1,105.88,175c-9.77-1.2-24.43-8.28-24.09-18.46-1.21,11,4.09,17.21,15.52,21.5A52.91,52.91,0,0,0,135,177c5.08-2.32,10.18-5.91,12.07-11.39.94-2.23.5-6.46.61-8.83Z"/><path class="cls-22" d="M137.85,143.31c12.9,7.45,13,19.53.15,27s-33.67,7.45-46.57,0-13-19.53-.15-27S125,135.86,137.85,143.31Z"/></g><g class="cls-6"><path class="cls-23" d="M217.55,154.9c-1,12.65-18.28,17.85-29,18.48a53.9,53.9,0,0,1-19.92-2.28c-7.9-2.51-17-8.27-17-16.76-1.25,11.35,4.49,17.52,16.18,21.73,12.11,4,25.9,3.68,37.58-1.59,4.85-2.32,9.68-5.85,11.49-11.12.94-2.23.51-6.46.62-8.83C217.56,154.65,217.55,154.78,217.55,154.9Z"/><path class="cls-24" d="M207.83,141.15c12.91,7.45,13,19.53.16,27s-33.67,7.45-46.58,0-13-19.53-.15-27S194.93,133.7,207.83,141.15Z"/></g><ellipse class="cls-25" cx="150.34" cy="144.67" rx="66.12" ry="30.68"/><path class="cls-1" d="M216.93,137.64C223.35,67.08,81.43,63,81.41,134.83c4.82,30.13,51.17,35.42,79.8,33.24C182.87,165.72,211.09,158.32,216.93,137.64Z"/><g class="cls-26"><path class="cls-27" d="M96.51,160.15c-19-10.19-21.74-22.22-16.41-38.47C83.15,113.25,87,108,92.63,102.19A68.66,68.66,0,0,1,120.4,86.37c20.75-6.06,43.89-7.32,63.13,2.76-1.76-.94-3.46,1.18-5.55.81-94.22-21.5-90.73,78.22-12.52,79.19-23.7,3.84-50.6.81-68.95-9"/></g><g class="cls-28"><ellipse class="cls-29" cx="151.32" cy="99.26" rx="17.33" ry="10.04" transform="translate(-0.28 0.43) rotate(-0.16)"/></g><ellipse class="cls-29" cx="129.89" cy="89.13" rx="1.2" ry="2.77" transform="translate(-6.21 168.44) rotate(-64.69)"/><ellipse class="cls-29" cx="140.74" cy="100.41" rx="1.2" ry="2.77" transform="translate(-10.2 184.71) rotate(-64.69)"/><ellipse class="cls-29" cx="158.86" cy="110.44" rx="2.77" ry="1.2" transform="translate(-33.93 94.23) rotate(-30)"/><path class="cls-29" d="M120.06,96.67c.26.61-.67,1.58-2.09,2.17s-2.77.56-3,0,.68-1.58,2.09-2.17S119.8,96.06,120.06,96.67Z"/><ellipse class="cls-29" cx="101.61" cy="103.93" rx="1.2" ry="2.77" transform="translate(-35.78 151.36) rotate(-64.69)"/><ellipse class="cls-29" cx="127.33" cy="108.83" rx="1.2" ry="2.77" transform="translate(-25.49 177.41) rotate(-64.69)"/><path class="cls-29" d="M158.75,94.05c.39.54-.31,1.69-1.56,2.57s-2.58,1.16-3,.62.31-1.69,1.56-2.57S158.36,93.51,158.75,94.05Z"/><path class="cls-29" d="M148.27,88.91c-.4.53-1.7.19-2.91-.75S143.5,86,143.9,85.49s1.71-.19,2.92.75S148.67,88.38,148.27,88.91Z"/><ellipse class="cls-29" cx="176.37" cy="107.53" rx="1.2" ry="2.77" transform="translate(-17.17 179.73) rotate(-51.83)"/><ellipse class="cls-29" cx="189.05" cy="97.73" rx="2.77" ry="1.2" transform="translate(-13.73 162.3) rotate(-45)"/><ellipse class="cls-29" cx="172.44" cy="90.41" rx="2.77" ry="1.2" transform="translate(-13.43 148.41) rotate(-45)"/><ellipse class="cls-29" cx="202.3" cy="107.53" rx="2.77" ry="1.2" transform="translate(-16.78 174.55) rotate(-45)"/><path class="cls-30" d="M133.58,236.83c51.34,4.16,76.43-15.16,78.53-36.15,9.09,12.26-10.87,50.55-61.58,42.19-9-1.47-9-1.47-19.74-6.26l2.79.22"/><path class="cls-31" d="M196,110c13.95,13,7.81,41.34-20.07,42.06-17.8.47-36.85-18.49-25.55-30.31a14.85,14.85,0,0,1,3.47-3l1.13-.56,26.31-11.89A14.93,14.93,0,0,1,196,110"/><path class="cls-32" d="M79.67,137.88s-4.4,1.36-2.15,4.6c1.51,2.19,1.4,2.82,1.4,2.82l-2.33,1.37s-1.75,5.89,3.41,6.86c2.94.55,2.73-.58,2.73-.58l-2.55,3a5.5,5.5,0,0,0,6.48,3.1c4.68-1.17,1.89-8.74,1.89-8.74l-7.49-11.81Z"/><path class="cls-4" d="M177,173.3l-3-.77-45.17-1.41-3.93,5.65S123.57,182,129,181.9c3,0,3.37-2.89,4-1.9s.84,3.24,5,3.24c6,0,4-4.64,4-4.64l-.79-1.76,3.87-1.49,1.42.75-.14,2.59s.49,5.5,4.85,3.89c3.5-1.3,6.06-6,6.06-6l.34,2.89s2.5,5.48,8.38,3.31c3.9-1.44,3.35-3.87,2.37-5.83,1.74.67,5.45,4.34,9.16,1.24C181.05,175.35,177,173.3,177,173.3Z"/><path class="cls-4" d="M126.27,168.5l-.84,1.55-2,3.94,2.68,1.23-.68,3.56,3.43,1.46,4.72-3.68,1.62.53.58,3.49,2.43,1.31,3.34-.25.24-4.86,3.38-1.43,3,4.61,2.42.63,4.94-5.87,2.43,1,2.44,5.31,6.68-.44L166,176.72l.75-1.75,9.77,2.21,1.44-1.83-5.42-5.07.19-2.66A148.86,148.86,0,0,1,126.27,168.5Z"/><g class="cls-33"><path class="cls-10" d="M170.65,171.12c-1-1.87,2.26-4.16,2.47-4.92-5.3.45-12.52,1.57-17.83,1.22-7.21-.43-13.77-.21-21.43-.41-4.58-.11-5.41-1.94-5.9.35-.19.9.89,7.29,2.9,5.95,7.45-5,7,4,11.51-1,3.56-3.92,4.92,6.52,9.17.47,1.07-1.77,3.77-2.11,5.7-1.46,2.44,2.07,4.74,5.52,6.22-.23C164.66,168.21,172.9,175.54,170.65,171.12Z"/></g><path class="cls-32" d="M95,146.89s7.47.15,8,4.28-4,5.24-4,5.24l2.23-.25s5.26-.67,4,2.32,1,1.54,1,1.54a6,6,0,0,1,5.88-.19,4,4,0,0,1,2.48,3.33.9.9,0,0,0,1.36.72,3.51,3.51,0,0,0,1-1c1.3-1.93.92-2.73.92-2.73s8.76-2,10.61,3.84a13.38,13.38,0,0,1-1.35,10.65l-3.65-.6-4.23-3.92-7.1.49L95.44,162.2,90.81,156Z"/><path class="cls-5" d="M87.67,155l1.4-5.43,3.33-2.39,6,2.2,1.74,3-6.75,4.73,2.34,1.78L99,156.65l4.27,1-1.13,5.58.94.73,4.4-1.76,4.84.61.36,6.74h2.91l.94-1.31.23-6.28,4.12-.79,2.67,2.43,1.88,6.47-2.58,4.31S92.35,167.47,87.67,155Z"/><g class="cls-34"><path class="cls-10" d="M89.84,154.13c2.09-4.11,7.31-3.64,5.09-.87-1.7,1-3.42,2.27-3.66,4.44-.57,1.94,2.62,4.35,4.31,3.76a6,6,0,0,0,1.7-1.32c1.82-1.52,2.87-.15,2.75,1.86a4.28,4.28,0,0,0,4,4.32c1.19.31,2.31-.73,3.19-1.54a1.46,1.46,0,0,1,2.11-.21c.48.28.29,1.45.28,1.69a4.68,4.68,0,0,0,6.47,4.52c1.44-.82,1.69-3,2.64-4.2,3.87-3.28,3.66,5.59,1,7.66-.74.94-1.69.72-2.51,0a9.18,9.18,0,0,0-2-.93c-8.91-3.08-18.54-5.2-24.84-12.62C88.14,158.81,88.65,156.49,89.84,154.13Z"/></g><path class="cls-5" d="M82.14,138.16l-2,.12A9.34,9.34,0,0,0,79,139.45l.38,1,1.44,1.5.81,1.22-.81,1.12L77,146.53,78.67,150l1.73.33L83,149.2l.51,1.17L80,154.54l1.38,2.06,4.62.52,1.5-1.46,1.14-5.75C86.05,146,83.66,142.39,82.14,138.16Z"/><path class="cls-5" d="M209.72,149.57l3.15,3.71,1.48,3.79h2.11l2.17-2.32-3.58-3.65,1.12-1.06,3.23,1.06,1.19-1.06-.49-3.23-3.64-1.62.68-1.26,1.64-1.88-.31-1.53-2.53-.5C214.06,144,212.08,147.57,209.72,149.57Z"/><path class="cls-32" d="M177.93,160.44s5.08-2.67,7-.56a16.44,16.44,0,0,1,2,2.46l-.58-1.16s4.08-4.45,6.86-2.67,3.56-.1,3.56-.1l-.63-1.65a3.05,3.05,0,0,1,4.33-2.27s2.2.68.52-1.43l-1.59-1.3a6.7,6.7,0,0,1,6.27-6.26c6.61-.57,7.83,8.25,7.83,8.25l-5.7,6.27-12.51,7.56-16,3.94-5.58-6.42Z"/><path class="cls-5" d="M175.7,173.3l-3.52-3.65,2.25-5.71,3.5-2.93h3.25l1,2.46-.31,3.54.78,2,2.34-.54v-5.08l4.57-2,4.18.91,2.85,1.6,1.19-1.74-1.33-4.51,1.33-1.33,4.29.43,2.46,1.62,2.46-.72-.91-1.67-5.63-4,1.34-1.6,5.2-1.4,3.65,1.4,2.18,4.43S206.69,168.88,175.7,173.3Z"/><g class="cls-35"><path class="cls-10" d="M176.2,167.38c-.07-1.21.37-2.72,1.56-2.88a2.17,2.17,0,0,1,2.06,1.6c.34.87.39,1.84.79,2.69a3.63,3.63,0,0,0,6.54.08c.55-1.1.54-2.47,1.33-3.41a3.19,3.19,0,0,1,2.58-1,6.87,6.87,0,0,1,2.73.8,15.63,15.63,0,0,0,1.87.83,5.21,5.21,0,0,0,2,.25,2.61,2.61,0,0,0,2.25-1.26c.45-1-.13-2.11-.2-3.19a1.61,1.61,0,0,1,.15-.89,1.49,1.49,0,0,1,1.35-.6,10,10,0,0,1,1.52.32,5.32,5.32,0,0,0,4.78-1.37c1-1,1.55-2.69.65-3.77a4.72,4.72,0,0,0-1.28-.93,2.39,2.39,0,0,1-1.09-1.13,1,1,0,0,1,.57-1.29,1.19,1.19,0,0,1,.53,0,4.77,4.77,0,0,1,3,2.32,8.87,8.87,0,0,1,1.08,3.77A5.44,5.44,0,0,1,211,160a6.41,6.41,0,0,1-2.69,3.43,51.28,51.28,0,0,1-16.12,8.44c-.77.24-1.54.46-2.33.66-2.8.69-6.8,1.6-9.65.8C177.71,172.61,176.33,169.8,176.2,167.38Z"/></g><path class="cls-36" d="M217.62,145.14c-.82-1.41,1.65-1.19,1.67-3.5s-3.22-2-3.22-2c-.08.26-.32.68-.43,1a6.65,6.65,0,0,1,2.23.29c2.09.73-2.05,2.31-2.08,3.81s1.56,1.51,3,2c1.94.63,1.47,4.86-.36,3.63s-3.53-1-3.79.72,3.66,2.8,2.8,4.35c-1,1.76-2.2,1-2.81.24-1.79-1.67-2.09-9.72-12.17-6.2-9.13,3.2,5.05,6.94,3.45,8.11-1.84,1.35-2.22-2.9-7.51-2.07s-.33,5.83-1.63,7-2.15-2.92-8.67-1.86-1.71,7.61-4.37,7.63c-2.91,0,2.58-8.59-4.61-8.08-5.76.42-11,10.43-5.17,13.79,0,0,1.1.43.94,1.06-.87,2.74-13.74-8.62-9.84,2.36.48,1.39-3.5,1.81-4.84.55s-2.58-9.9-7.93-1.35c-1.35,1.8-1.48,1.81-3.25,1.66s-1.22-5.67-6.83-3.18a2.57,2.57,0,0,0-1.53,2.33c-.08,3.49-2.44,3.1-4,1.81-1.55-.92,1.14-4.21-2.6-4.06-2.42.18-3.57,3.17-5.3,2.89-3.59-.57-1.14-2-1.67-3.47-.24-.68-1.74-.73-2.84-.81,4.86-4.38.17-13.44-4.86-13.8-6.67-.48-.69,9.13-4.58,9.26s2.28-6.41-3.76-7.52-6.93,2.22-8.17,1.16,3.58-5.81-1.31-6.67-4.89,3.55-7,1.22c-1.34-1.46,12.52-4.61,3.5-9.28-7.94-4.11-10.07.55-10.35,4,0,0-.87,7.25-6.37,3.28-2.28-1.65,3.1-3.23,2.7-5.14s-1.1-2.22-3.2-.93c-1.57,1-4.35-2.7-2-3.15,1.69-.31,3.26-1.34,3.12-3s-4-3.29-1.75-4.25a5.22,5.22,0,0,1,2.07-.35,8.38,8.38,0,0,0-.3-1.1s-3.49-.26-3.31,2.32,2.92,2.16,2.1,3.79-5.87.53-3.56,5.28,5.22.23,5.7,1.2c.81,1.63-4.78,2.62-2.7,5.91,2,3.13,7.7,2.21,8.08-.85,0,0,.67-9.84,8.85-5.79,6.27,3.1-8.15,6.67-3.38,9.81,4.14,2.74,2.93-2.5,6.9-1.75,4.88.92-.77,4.36,1.31,6.66s2.08-1.93,8.17-1.15c4.76.6-1.83,8.07,4.44,7.59,3.88-.29,1.67-6.73,3.54-8,4.65-3.12,8.31,5.79,4.71,10.61-1.34,1.79.79,2,1.85,2.22,1.82.32-1.74,2.07,2.1,4,5.2,2.66,3.55-.84,6.91-1.55,3-.64-1.41,3.15,4.61,3.77,6.73.69,1.3-4.78,6.17-5.24,2.49-.24.31,2.66,4.17,3.67,4.1,1.08,4.86-3.37,7.11-4.28,3.21-1.31-2.38,6.62,8.34,4.29,3.78-.82,1.81-3.25,2.93-4.5s2.46,1.16,5.39,1.75c3.38.68,4.84-.55,5.25-1.89a2,2,0,0,0-1.56-2.57,3.3,3.3,0,0,1-1.82-1.29c-3.45-4.28,2.79-11.44,6.14-10,2.07.86-.59,7.82,3.59,7.89s-1.5-5.68,5-6.75,6,3.37,8.88,1.31-3.79-5.46,1.49-6.28,3.28,3.38,7.29.91c5-3.09-9.15-5.34-3.23-8.05,7.53-3.45,8.53,5.67,10.07,7s4.17.68,5.28-1.36c1.68-3.06-3.39-3.63-2.41-4.94.63-.83,2.91,2.79,4.71-1.58S218.44,146.55,217.62,145.14Z"/><path class="cls-37" d="M89.81,151.49h0Z"/><path class="cls-38" d="M165.11,210.59l1.61,5.81s24.44,6.1,39.45,7.49c16.09,1.5,37.36.91,37.36.91l2.78-3.62-5.59-1Z"/><path class="cls-39" d="M170.51,205.78c.7.13,27.65,8,43.5,9.34a278.38,278.38,0,0,0,28.64.95l3.66,5.11s-25.48.18-35.62-.89-45.58-9.7-45.58-9.7Z"/><path class="cls-38" d="M204,269.66l4.73,3.74s23.34-9.46,36.3-17.18C258.92,248,275.77,235,275.77,235l.11-4.56-5.09,2.5Z"/><path class="cls-39" d="M205.56,262.59c.64-.31,27-9.83,40.65-18.08a276.82,276.82,0,0,0,23.71-16.09l6,2s-20.48,15.15-29.3,20.26-42.56,19-42.56,19Z"/><path class="cls-38" d="M177.74,243.37l2.92,5.27s25.18.29,40.11-1.82c16-2.26,36.56-7.75,36.56-7.75l1.87-4.16-5.67.33Z"/><path class="cls-39" d="M181.89,237.44c.71,0,28.75,1.38,44.48-1a276,276,0,0,0,28.08-5.69l4.75,4.13s-24.75,6.06-34.86,7.36-46.6,1.1-46.6,1.1Z"/><path class="cls-38" d="M171.94,230.3l2.87,6s27.89,2.05,44.59.73c17.88-1.4,41-6.08,41-6.08l2.36-4.48-6.3,0Z"/><path class="cls-39" d="M177,224c.78,0,31.76,3.51,49.36,2a308.57,308.57,0,0,0,31.53-4.38l5,4.9s-27.85,5-39.14,5.77-51.73-2-51.73-2Z"/><path class="cls-40" d="M191.55,200.44c-.22-.2.18-9.21.18-9.21l6.91-2.49,3.67,8.27-4.39,3.59Z"/><path class="cls-38" d="M198.93,195.82l-.29-7.08a108.18,108.18,0,0,0,28.74,19.64c17.28,8,44.67,13,44.67,13l2.53,3.75-22.85-.79-40.12-15Z"/><path class="cls-39" d="M272,230.87c2-.9,2.46-3.54,2.61-5.76-8.18.13-32.95-3.06-56.32-15.82a91.92,91.92,0,0,1-19.33-13.47,16,16,0,0,1-7.38,4.62c3.52,2.65,14,9,17.14,10.71C253.35,235.24,271.15,231.24,272,230.87Z"/><path class="cls-40" d="M165.75,262.77c-.29,0-5-7.75-5-7.75l4.34-5.92,7.66,4.81-1.64,5.43Z"/><path class="cls-38" d="M169.3,254.82l-4.19-5.72a108.08,108.08,0,0,0,34.81.26c18.8-3,44.31-14.16,44.31-14.16l4.19,1.7L229,249l-41.67,10Z"/><path class="cls-39" d="M249.47,243.14c1.18-1.88.07-4.31-1.05-6.24-6.71,4.68-29,15.85-55.56,18.3a92.18,92.18,0,0,1-23.56-.38,15.94,15.94,0,0,1-3.55,7.95c4.41.23,16.65-.33,20.21-.68C236.46,257.15,249,243.9,249.47,243.14Z"/><path class="cls-38" d="M195.58,250l7.36.38s17.58-14,29.87-17.73c21.59-6.51,41.1,2.71,41.1,2.71L275,228.4l-1.36-3.59-41.55,1.47-31.44,14.43Z"/><path class="cls-39" d="M195.18,240.46a125.68,125.68,0,0,1,37.06-16.35c21.55-5.49,41.44.7,41.44.7L272,230.62s-24.5-6.87-41.16-1.51C210.94,235.52,195.58,250,195.58,250Z"/><polygon class="cls-40" points="191.14 213.96 186.25 222.4 191.99 228.79 198.36 223.32 200.17 217.23 191.14 213.96"/><path class="cls-38" d="M196,220.31l-4,8.48s34.91-4.8,52.25-8.57S293,209.71,293,209.71l2.63-6-35.74,5.85-59.07,7Z"/><path class="cls-39" d="M191.14,214s42.85-2.21,63.16-7.55,34.61-8.35,34.61-8.35l6.74,5.65s-66.88,13.81-78.33,15.3a163.77,163.77,0,0,1-21.37,1.3Z"/><polygon class="cls-40" points="198.5 215.47 193.75 222.43 198.28 228.3 204.13 224.01 206.07 218.87 198.5 215.47"/><path class="cls-38" d="M202.24,221.26l-4,7s30.39-1.89,45.58-4,42.7-5.92,42.7-5.92l2.65-5-31.16,2.75-51.35,2.23Z"/><path class="cls-39" d="M198.5,215.47s37.07.85,54.91-2.44,30.36-5,30.36-5l5.44,5.29S230.7,221,220.74,221.5a140.84,140.84,0,0,1-18.5-.24Z"/><polygon class="cls-40" points="192.85 231.69 188.1 238.65 192.63 244.52 198.48 240.23 200.42 235.09 192.85 231.69"/><path class="cls-38" d="M196.59,237.48l-4,7s30.39-1.89,45.58-4,42.7-5.92,42.7-5.92l2.65-5-31.16,2.75L201,234.55Z"/><path class="cls-39" d="M192.85,231.69s37.07.85,54.91-2.44,30.36-5,30.36-5l5.44,5.3s-58.51,7.61-68.47,8.15a140.84,140.84,0,0,1-18.5-.24Z"/><polygon class="cls-40" points="216.35 244.13 212.34 251.54 217.45 256.92 222.82 252.04 224.23 246.74 216.35 244.13"/><path class="cls-38" d="M220.66,249.5l-3.21,7.42s30-5,44.92-8.69S304.24,238,304.24,238l2.12-5.25-30.72,5.93-50.85,7.5Z"/><path class="cls-39" d="M216.35,244.13s37-3,54.37-8.08S300.4,228,300.4,228l6,4.72s-57.42,13.58-67.27,15.15a141.66,141.66,0,0,1-18.43,1.65Z"/><path class="cls-40" d="M238.14,246.51c-.21.2.45,9.2.45,9.2l7,2.29,3.43-8.37-4.49-3.46Z"/><path class="cls-38" d="M245.66,250.91l-.09,7.09a108,108,0,0,1,28.17-20.46c17-8.49,44.27-14.27,44.27-14.27l2.42-3.82-22.82,1.45-39.67,16.15Z"/><path class="cls-41" d="M317.65,213.77c2.06.84,2.57,3.47,2.78,5.68-8.18.1-32.85,4-55.84,17.44a91.85,91.85,0,0,0-18.93,14,16,16,0,0,0-7.52-4.4c3.45-2.75,13.74-9.42,16.83-11.21C298.92,209.94,316.82,213.43,317.65,213.77Z"/><polygon class="cls-40" points="219.99 211.01 214.02 216.96 217.38 223.57 223.92 220.44 226.79 215.76 219.99 211.01"/><path class="cls-38" d="M222.58,217.39l-5.21,6.18s30.21,3.83,45.53,4.57S306,230.3,306,230.3l3.54-4.42-31.13-3.12-50.87-7.41Z"/><path class="cls-41" d="M220,211s36.26,7.76,54.4,7.86,30.75.79,30.75.79l4.36,6.22s-58.9-3.46-68.79-4.79a141.83,141.83,0,0,1-18.13-3.7Z"/><path class="cls-42" d="M256.07,227.69,238.69,226l-21.32,5.59s12.82-.56,20.23-.85S256.07,227.69,256.07,227.69Z"/><polygon class="cls-42" points="243.39 239.9 239.85 241.78 198.28 244.13 243.39 239.9"/><polygon class="cls-42" points="212.34 251.54 195.58 249.95 199.91 247.07 214.76 247.07 212.34 251.54"/></g></g></svg>