<svg xmlns="http://www.w3.org/2000/svg" xmlns:xlink="http://www.w3.org/1999/xlink" viewBox="0 0 370 330"><defs><style>.cls-1{isolation:isolate;}.cls-2{fill:#dedfe0;}.cls-3{fill:#a0a2a4;}.cls-14,.cls-4{mix-blend-mode:multiply;}.cls-5{fill:#b3b5b6;}.cls-6{fill:#47b649;}.cls-7{fill:#196a26;}.cls-8{fill:#fff;}.cls-9{fill:#9cfafb;}.cls-17,.cls-9{mix-blend-mode:screen;}.cls-10{fill:#d44028;}.cls-11,.cls-12{fill:#076d10;}.cls-11{opacity:0.33;}.cls-12{opacity:0.31;}.cls-13{fill:#959899;}.cls-14{fill:#b3b3b3;}.cls-14,.cls-18{opacity:0.6;}.cls-15{fill:url(#linear-gradient);}.cls-16{fill:#6b686c;}.cls-17{fill:url(#linear-gradient-2);}.cls-18{fill:#78cab5;mix-blend-mode:color-dodge;}</style><linearGradient id="linear-gradient" x1="137.42" y1="33.63" x2="162.18" y2="43.2" gradientUnits="userSpaceOnUse"><stop offset="0" stop-color="#737473"/><stop offset="0.01" stop-color="#797a79"/><stop offset="0.03" stop-color="#8a8b8a"/><stop offset="0.05" stop-color="#a7a7a7"/><stop offset="0.05" stop-color="#afafaf"/><stop offset="0.07" stop-color="#b5b5b5"/><stop offset="0.1" stop-color="#c6c6c6"/><stop offset="0.13" stop-color="#e3e3e3"/><stop offset="0.16" stop-color="#fff"/><stop offset="0.45" stop-color="#919291"/><stop offset="0.68" stop-color="#d7d5d7"/><stop offset="0.77" stop-color="#fff"/><stop offset="0.94" stop-color="#9c979c"/><stop offset="1" stop-color="#737473"/></linearGradient><linearGradient id="linear-gradient-2" x1="141.28" y1="34.93" x2="154.38" y2="39.99" xlink:href="#linear-gradient"/></defs><g class="cls-1"><g id="Layer_31" data-name="Layer 31"><path class="cls-2" d="M124.79,235.11s3.38,6,6.21,10.34c2.63,4.33,25.93,10.34,42.85,10.34h20.49c16.92,0,40.23-6,42.86-10.34,2.82-4.32,6.21-10.34,6.21-10.34Z"/><path class="cls-3" d="M194.34,256.29H173.85c-16.53,0-40.4-5.83-43.28-10.58-2.79-4.28-6.18-10.29-6.22-10.35a.52.52,0,0,1,0-.5.5.5,0,0,1,.43-.25H243.41a.5.5,0,0,1,.43.25.5.5,0,0,1,0,.5c0,.06-3.42,6.07-6.22,10.36C234.74,250.46,210.87,256.29,194.34,256.29Zm-68.69-20.68c1,1.75,3.57,6.2,5.76,9.57,2.49,4.09,25.27,10.11,42.44,10.11h20.49c17.18,0,39.95-6,42.44-10.1,2.2-3.38,4.77-7.83,5.77-9.58Z"/><g class="cls-4"><path class="cls-5" d="M124.79,235.11s3.38,6,6.21,10.34c1.3,2.13,7.64,4.68,15.78,6.72,0-1.73.43-3.22,2.24-2.36,3.64,1.75,43.26,6.41,67,1.31,7.2-1.61,8.38-1.47,8.5.22,6.61-1.86,11.55-4,12.68-5.89,2.82-4.32,6.21-10.34,6.21-10.34Z"/></g><path class="cls-6" d="M233.92,41s6.45,12.12,9.55,17.28,3.61,8,3.61,15.48V228.66c0,5.81-3.4,10.58-15.4,16-12.34,5.61-31.12,7.31-44.94,6.89h-6.25c-9.49,0-32.73-2.87-45.13-7.36s-16.31-9.75-16.31-15.56V73.73c0-7.48.51-10.32,3.61-15.48S132.2,41,132.2,41Z"/><path class="cls-7" d="M190.75,252.14c-1.38,0-2.73,0-4-.06h-6.23c-9.9,0-33-2.94-45.3-7.39-11.35-4.11-16.64-9.2-16.64-16V73.73c0-7.43.48-10.4,3.68-15.73,3-5.09,9.47-17.14,9.53-17.26a.5.5,0,0,1,.44-.27H233.92a.48.48,0,0,1,.44.27c.07.12,6.48,12.17,9.53,17.26,3.2,5.33,3.69,8.29,3.69,15.73V228.66c0,6.65-4.55,11.42-15.69,16.48C222.24,249.53,206.86,252.14,190.75,252.14ZM132.5,41.47c-1,1.81-6.6,12.35-9.41,17-3.08,5.13-3.54,8-3.54,15.22V228.66c0,6.35,5.08,11.15,16,15.09,12.18,4.41,35.13,7.33,45,7.33h6.25c1.3,0,2.64.06,4,.06,16,0,31.2-2.58,40.72-6.91,13.28-6,15.11-11,15.11-15.57V73.73c0-7.34-.44-10.06-3.54-15.22-2.82-4.69-8.45-15.23-9.42-17Z"/><path class="cls-8" d="M220.35,119.57c-8.78,22.81-17,23.06-37.85,16.79-23.06-7.27-37.6,3.26-48.62,19.8-6.64,10-11.73,24.87-14.73,35.2v22.12c3.15-7.66,8.79-18.19,16.16-18.78,11.66-.95,17.49,24.06,41.74,21.62s30.64-22,42.29-39.3c10.46-15.51,20.92-14.37,27.16-4.88V91.35C237,93.18,227.44,101.11,220.35,119.57Z"/><path class="cls-9" d="M130.61,66.68S193,84,239.27,65.55C239.27,65.55,200.55,88.11,130.61,66.68Z"/><path class="cls-10" d="M193.66,199.52c-3,3.57-7.39,4.87-9.72,2.89s-1.75-6.48,1.3-10.06,7.39-4.86,9.71-2.88S196.7,196,193.66,199.52Z"/><path class="cls-10" d="M139,178.62c-.52,1.92-2,3.2-3.21,2.86s-1.84-2.18-1.31-4.1,2-3.2,3.21-2.86S139.5,176.7,139,178.62Z"/><path class="cls-10" d="M142.82,161.25c-.27,1-1,1.66-1.67,1.48s-1-1.13-.68-2.13,1-1.67,1.67-1.49S143.1,160.24,142.82,161.25Z"/><path class="cls-10" d="M128.29,188.31c-.28,1-1,1.67-1.68,1.49s-1-1.13-.68-2.14,1-1.66,1.67-1.48S128.56,187.31,128.29,188.31Z"/><path class="cls-10" d="M203.48,185.31c-.28,1-1,1.66-1.68,1.48s-1-1.13-.68-2.13,1-1.67,1.68-1.49S203.75,184.31,203.48,185.31Z"/><path class="cls-10" d="M231.55,121.89c-.27,1-1,1.67-1.67,1.49s-1-1.13-.68-2.13,1-1.67,1.67-1.49S231.82,120.89,231.55,121.89Z"/><path class="cls-10" d="M236.06,113.62c-.27,1-1,1.67-1.67,1.49s-1-1.13-.68-2.13,1-1.67,1.67-1.49S236.34,112.62,236.06,113.62Z"/><path class="cls-10" d="M238.74,122.05c-.2.72-.74,1.2-1.21,1.07s-.68-.81-.48-1.53.73-1.2,1.2-1.07S238.93,121.34,238.74,122.05Z"/><path class="cls-10" d="M147.25,166.92c-.19.72-.73,1.19-1.2,1.07s-.68-.82-.49-1.54.74-1.19,1.21-1.07S147.45,166.2,147.25,166.92Z"/><path class="cls-10" d="M132.66,186.25c-.17.61-.62,1-1,.9s-.58-.69-.41-1.3.62-1,1-.9S132.83,185.64,132.66,186.25Z"/><path class="cls-10" d="M184,141.07c-.17.6-.62,1-1,.9s-.58-.69-.42-1.3.63-1,1-.9S184.14,140.46,184,141.07Z"/><path class="cls-10" d="M156.83,181.55s-4.65,6.78.63,10.55,14.57.88,13.69-10.43-11.77-13.14-15.58-15c-8.16-4.15-10.42-9.93-6.91-17.59s15-8.54,18.72-3.89,1.38,9.42-.88,9.92a3.35,3.35,0,0,1-4.27-3c-.38-2.25-4.52-1.39-3.77,1.88s3.15,5,7.79,6.53c9.69,3.19,16.65,13.34,13.83,27.25s-12.79,17.64-21.39,15.39-14.85-11.66-13.91-19.37,5.83-10.52,10.15-9.2S157.69,180.1,156.83,181.55Z"/><path class="cls-10" d="M196.37,164.18c-.39-7.46-4.64-13.29-9.48-13s-8.45,6.5-8,13.95,4.63,13.28,9.47,13S196.76,171.62,196.37,164.18ZM188,166.8c-1.51.08-2.84-1.75-3-4.07s1-4.28,2.52-4.36,2.83,1.74,3,4.07-1,4.28-2.52,4.36Z"/><path class="cls-10" d="M213.83,155.62c-2.13.79-4.23,1.67-6.29,2.61v-1.87c0-1.61.1-3.23.25-4.84a12.24,12.24,0,0,1,.22-2c-.07-1.66,1-2.33,3.29-2,2.52,2.94,6.74-1.33,4.25-4.25-5.47-6.39-12.66-.91-13.55,5.84a81.43,81.43,0,0,0-.62,12.19l-1.53.85c-3,1.7-1,5.92,1.86,5.57a139.42,139.42,0,0,0,2.42,16.4c.63,3.06,4.94,2.64,5.79,0,.08-.27.17-.54.26-.81a2.6,2.6,0,0,0-.64-2.78,113.68,113.68,0,0,1-1.85-15.72,78.69,78.69,0,0,1,7.77-3.39C219,160.08,217.46,154.28,213.83,155.62Z"/><path class="cls-10" d="M231,153.34a15,15,0,0,1-1.81,2.58c-2.21-.15-3.37-1.19-3.46-3.13-1-2-.81-4.95-1-7.15v-.78a25.58,25.58,0,0,1,4.2-1.81,3,3,0,0,0-1.6-5.79c-1,.33-2,.71-2.94,1.12-.06-2.14-.1-4.29-.1-6.45,0-3.86-6-3.86-6,0,0,8.25-1,20.42,3.71,27.72,4.27,6.56,11.27,1.51,14.21-3.28C238.22,153.07,233,150.05,231,153.34Z"/><path class="cls-11" d="M243.47,58.25c-3.1-5.16-9.55-17.28-9.55-17.28H132.2s-6.45,12.12-9.54,17.28-3.61,8-3.61,15.48V228.66c0,5.81,3.92,11.08,16.31,15.56s35.64,7.36,45.13,7.36h6.25c13.82.42,32.6-1.28,44.94-6.89,12-5.45,15.4-10.22,15.4-16V73.73C247.08,66.25,246.56,63.41,243.47,58.25Zm-51.8,22.89V230.59c-6.7,18.75-39.91,12.06-55,6.43s-12.27-14.73-12.27-14.73V74.18c0-8.3,2.67-11.78,2.67-11.78l8.31-11.13C155,61,183.46,60,183.46,60a40.27,40.27,0,0,1,6,9.1C191.78,74.18,191.67,81.14,191.67,81.14Z"/><path class="cls-12" d="M243.47,58.25c-3.1-5.16-9.55-17.28-9.55-17.28H141.11c6.06,4,13.45,6.61,20,8.36a139.81,139.81,0,0,0,18,3.62c6.68.91,13.58.1,20.3.31s15.73.4,20.94,5.35c5.88,5.58,8.36,13.44,9.21,21.33,1,9,.29,17.93,0,26.9l0,1c-.33,13.18,0,65.91.06,79.09,0,6.64-.09,13.3.11,19.94.17,5.44.64,10.91.4,16.35-.41,9.31-3.06,16.93-9.92,23.44-.87.82-1.78,1.62-2.72,2.4a68.5,68.5,0,0,0,14.19-4.38c12-5.45,15.4-10.22,15.4-16V73.73C247.08,66.25,246.56,63.41,243.47,58.25Z"/><path class="cls-2" d="M235.89,42.13c0,6.91-23.8,12.52-53.15,12.52S129.59,49,129.59,42.13s23.79-12.52,53.15-12.52S235.89,35.21,235.89,42.13Z"/><path class="cls-3" d="M182.74,55.15c-30.09,0-53.65-5.72-53.65-13s23.56-13,53.65-13,53.65,5.72,53.65,13S212.82,55.15,182.74,55.15Zm0-25c-28.54,0-52.65,5.5-52.65,12s24.11,12,52.65,12,52.65-5.51,52.65-12S211.28,30.11,182.74,30.11Z"/><path class="cls-2" d="M235.89,39.61c0,6.44-23.8,11.66-53.15,11.66s-53.15-5.22-53.15-11.66,23.79-11,53.15-11S235.89,33.17,235.89,39.61Z"/><path class="cls-3" d="M182.74,51.77c-26.37,0-53.65-4.55-53.65-12.16s27-11.53,53.65-11.53,53.65,4,53.65,11.53S209.11,51.77,182.74,51.77Zm0-22.69c-29.52,0-52.65,4.63-52.65,10.53,0,5.39,21.15,11.16,52.65,11.16S235.39,45,235.39,39.61C235.39,33.71,212.26,29.08,182.74,29.08Z"/><path class="cls-13" d="M182.56,33c24.8,0,45.33,3.26,48.82,7.52a2.07,2.07,0,0,0,.53-1.29c0-4.86-22.09-8.81-49.35-8.81s-49.35,3.95-49.35,8.81a2.07,2.07,0,0,0,.53,1.29C137.23,36.26,157.76,33,182.56,33Z"/><path class="cls-3" d="M133.74,41a.49.49,0,0,1-.38-.18,2.52,2.52,0,0,1-.65-1.61c0-4.51,17.47-9.31,49.85-9.31s49.85,4.8,49.85,9.31a2.56,2.56,0,0,1-.64,1.61.53.53,0,0,1-.39.18h0a.53.53,0,0,1-.39-.18c-3.43-4.19-24.25-7.34-48.43-7.34s-45,3.15-48.43,7.34a.53.53,0,0,1-.39.18Zm48.82-8.52c23.95,0,44,3,48.74,7.22a1.28,1.28,0,0,0,.11-.49c0-4-19.63-8.31-48.85-8.31s-48.85,4.3-48.85,8.31a1.28,1.28,0,0,0,.11.49C138.53,35.51,158.62,32.5,182.56,32.5Z"/><path class="cls-2" d="M182.56,48.05c24.8,0,45.33-3.27,48.82-7.53-3.49-4.26-24-7.52-48.82-7.52s-45.33,3.26-48.82,7.52C137.23,44.78,157.76,48.05,182.56,48.05Z"/><path class="cls-3" d="M182.56,48.55c-24.84,0-45.54-3.25-49.21-7.71a.51.51,0,0,1,0-.64c3.67-4.46,24.36-7.7,49.21-7.7s45.54,3.24,49.21,7.7a.51.51,0,0,1,0,.64C228.1,45.3,207.41,48.55,182.56,48.55Zm-48.14-8c4.2,4,24.58,7,48.14,7s43.94-3,48.14-7c-4.2-4-24.57-7-48.14-7S138.62,36.5,134.42,40.52Z"/><path class="cls-14" d="M142.69,39.05s-2.23.64.1,2.34,8.6,5.3,30.79,5.62c22.61.74,26-4.46,18.68-4.67S160.1,47.75,142.69,39.05Z"/><path class="cls-2" d="M163.61,42.68c-13-.43-18.65-3.31-21.08-5.76-.73,1.6.7,3.89,5.11,5.76,7.06,3,17.13,3.29,30.58,3.39,10.81.08,15.24-3,16-6.52C191,42.59,181.8,43.28,163.61,42.68Z"/><path class="cls-3" d="M178.61,46.57h-.4c-13.51-.1-23.63-.4-30.76-3.43-2.91-1.23-4.78-2.73-5.39-4.32a2.62,2.62,0,0,1,0-2.11.5.5,0,0,1,.81-.14c2.3,2.32,7.77,5.18,20.74,5.61,4,.14,7.45.2,10.46.2,11.49,0,17.41-1,19.8-3.2a.5.5,0,0,1,.83.48C194.15,42.24,191.3,46.57,178.61,46.57Zm-35.76-8.68a2.37,2.37,0,0,0,.14.57c.29.76,1.32,2.26,4.85,3.76,7,3,17,3.25,30.38,3.35h.39c7.58,0,12.73-1.67,14.53-4.65-3.14,1.71-9.06,2.46-19,2.46-3,0-6.45-.07-10.5-.2C151.4,42.78,145.61,40.21,142.85,37.89Z"/><path class="cls-8" d="M194.18,37c-1.06-4.35-7.83-4.54-23.8-3.87S146,35,146,35c-1.82.21-3,.92-3.47,1.88,2.43,2.45,8.06,5.33,21.08,5.76,18.19.6,27.37-.09,30.62-3.13A5.63,5.63,0,0,0,194.18,37Zm-34.05,2.62c-4.16,0-7.73-.59-9.26-1.42,1.53-.83,5.1-1.41,9.26-1.41s7.72.58,9.25,1.41C167.85,39,164.28,39.59,160.13,39.59Zm23.33.32c-3.21,0-6-.64-7.28-1.58,1.23-1,4.1-1.69,7.43-1.69s6,.64,7.29,1.58C189.66,39.22,186.8,39.91,183.46,39.91Z"/><path class="cls-3" d="M174.09,43.38h0c-3,0-6.45-.07-10.5-.2-13.3-.44-19-3.46-21.41-5.91a.49.49,0,0,1-.1-.56c.52-1.15,1.93-1.94,3.86-2.17.07,0,8.61-1.27,24.42-1.94,4.86-.2,8.06-.29,10.69-.29,7.92,0,12.69.74,13.62,4.54a6.22,6.22,0,0,1,.05,2.81.64.64,0,0,1-.15.25C192,42.38,186,43.38,174.09,43.38Zm-30.93-6.55c2.45,2.27,8,4.94,20.47,5.35,4,.14,7.45.2,10.46.2,11.31,0,17.22-.93,19.68-3.09a5.14,5.14,0,0,0-.07-2.2c-.68-2.76-4.1-3.78-12.65-3.78-2.61,0-5.8.09-10.65.29-15.75.67-24.24,1.92-24.33,1.93A4.19,4.19,0,0,0,143.16,36.83Zm40.3,3.58c-3.23,0-6.13-.64-7.57-1.67a.5.5,0,0,1-.21-.4.49.49,0,0,1,.18-.4c1.37-1.1,4.41-1.8,7.75-1.8s6.14.64,7.58,1.68a.5.5,0,0,1,.21.39.51.51,0,0,1-.19.4C189.83,39.72,186.86,40.41,183.46,40.41Zm-6.32-2.1a15.9,15.9,0,0,0,6.32,1.1,15.6,15.6,0,0,0,6.48-1.17,16,16,0,0,0-6.33-1.1A15.55,15.55,0,0,0,177.14,38.31Zm-17,1.78c-4.12,0-7.84-.58-9.5-1.48a.49.49,0,0,1-.26-.44.51.51,0,0,1,.26-.44c1.66-.89,5.38-1.47,9.5-1.47s7.84.58,9.49,1.47a.51.51,0,0,1,.26.44.49.49,0,0,1-.26.44C168,39.51,164.24,40.09,160.13,40.09Zm-7.92-1.92a34.51,34.51,0,0,0,15.83,0,34.88,34.88,0,0,0-15.83,0Z"/><path class="cls-2" d="M169.38,38.17c.52-.27.81-.58.81-.91,0-1.28-4.51-2.32-10.06-2.32s-10.07,1-10.07,2.32c0,.33.29.64.81.91,1.53-.83,5.1-1.41,9.26-1.41S167.85,37.34,169.38,38.17Z"/><path class="cls-3" d="M150.87,38.67a.5.5,0,0,1-.24-.06c-.71-.38-1.07-.83-1.07-1.35,0-2.23,6.91-2.82,10.57-2.82s10.56.59,10.56,2.82c0,.52-.36,1-1.07,1.35a.51.51,0,0,1-.48,0c-1.49-.8-5.12-1.35-9-1.35s-7.53.55-9,1.35A.46.46,0,0,1,150.87,38.67Zm9.26-2.41c3.91,0,7.47.53,9.23,1.34.26-.17.33-.3.33-.34,0-.54-3.26-1.82-9.56-1.82s-9.57,1.28-9.57,1.82c0,0,.07.17.33.34C152.65,36.79,156.21,36.26,160.13,36.26Z"/><path class="cls-2" d="M190.9,38.22a1.47,1.47,0,0,0,.65-1.1c0-1.54-3.62-2.79-8.09-2.79s-8.09,1.25-8.09,2.79a1.61,1.61,0,0,0,.81,1.21c1.23-1,4.1-1.69,7.43-1.69S189.59,37.28,190.9,38.22Z"/><path class="cls-3" d="M176.18,38.83a.48.48,0,0,1-.29-.09,2,2,0,0,1-1-1.62c0-2.14,4.43-3.29,8.59-3.29s8.59,1.15,8.59,3.29a1.92,1.92,0,0,1-.84,1.49.5.5,0,0,1-.6,0c-1.27-.91-4-1.49-7-1.49s-5.94.63-7.12,1.58A.51.51,0,0,1,176.18,38.83Zm7.28-4c-4.7,0-7.59,1.33-7.59,2.29a.87.87,0,0,0,.33.58c1.48-1,4.32-1.56,7.41-1.56a15.47,15.47,0,0,1,7.23,1.45.75.75,0,0,0,.21-.47C191.05,36.16,188.17,34.83,183.46,34.83Z"/><path class="cls-15" d="M148.41,37c0,.52-1,.94-2.18.94S144,37.55,144,37s1-.94,2.19-.94S148.41,36.51,148.41,37Z"/><path class="cls-16" d="M148.23,37.05c-.19,1.2-3.8,1.24-4,0-.16-1.07,3.79-1.29,4,0,0,.11.39.07.38,0-.23-1.46-4.53-1.44-4.76,0-.2,1.27,4.52,1.51,4.76,0C148.62,36.93,148.24,36.93,148.23,37.05Z"/><path class="cls-17" d="M147.09,36.73c0,.28-.51.5-1.15.5s-1.16-.22-1.16-.5.52-.49,1.16-.49S147.09,36.46,147.09,36.73Z"/><path class="cls-8" d="M143,33.13s-7.7,1.56-10.09,4.47,3.22,6.55,18.41,9.15c-7.39.73-21.53-3.85-20.49-8.42C131.85,34.79,143,33.13,143,33.13Z"/><path class="cls-18" d="M141.73,55.9s-8.84,6.17-9.78,14.84,0,155.7,0,155.7-.69,5.69,8.42,8.67V74.18a44.14,44.14,0,0,1,2.16-9.44,84.23,84.23,0,0,1,3.41-7.84Z"/><path class="cls-8" d="M215.51,198.76a3.11,3.11,0,0,1-2.72.7,27.25,27.25,0,0,0,.09-5.64c1.86-.11,3.42.31,3.6,1.79A3.59,3.59,0,0,1,215.51,198.76Zm-1.5-3.45s0,1.61.1,2.94c.82-.11,1.15-1.09,1.11-1.84S214.9,195.33,214,195.31Z"/><path class="cls-8" d="M219,199.93a2.86,2.86,0,0,0-.9-2.55,20.61,20.61,0,0,0,.31,2.17c-.84,0-1.6.16-1.6.16a16.56,16.56,0,0,0-.21-5.83c1.3-.35,3.39-.59,3.69,1.1a1.85,1.85,0,0,1-1.23,2,3.51,3.51,0,0,1,1.41,2.49A5.82,5.82,0,0,0,219,199.93Zm-1-4.81c0,.33,0,.75,0,1.21a1.06,1.06,0,0,0,1-.72C219.11,195.13,218.61,195,218,195.12Z"/><path class="cls-8" d="M221.34,194.35a.73.73,0,1,1,.07-1.46.76.76,0,0,1,.77.82A.7.7,0,0,1,221.34,194.35Zm-.65,5.27a27.67,27.67,0,0,0,0-4.89,5.28,5.28,0,0,0,1.37-.1,23,23,0,0,0,.11,4.82S221.41,199.57,220.69,199.62Z"/><path class="cls-8" d="M226.35,199.53a10.28,10.28,0,0,0-1.51.14,9.55,9.55,0,0,0-1-3,18.15,18.15,0,0,0,.28,3.14c-.71,0-1.53,0-1.53,0a19.4,19.4,0,0,0-.1-5.88,9.77,9.77,0,0,0,1.55-.1,10.06,10.06,0,0,0,1,3.55,21.36,21.36,0,0,0-.25-3.85c.85,0,1.59.11,1.59.11A29.86,29.86,0,0,0,226.35,199.53Z"/><path class="cls-8" d="M228.89,199.75a2.8,2.8,0,0,0-1-2.61,20.69,20.69,0,0,0,.2,2.35,7,7,0,0,0-1.47.1,26.7,26.7,0,0,0-.05-5.71c.79,0,1.58-.12,1.58-.12a11.52,11.52,0,0,0-.26,2.26,2.42,2.42,0,0,0,.94-2.17,6.12,6.12,0,0,0,1.55-.14,3.72,3.72,0,0,1-1.65,2.87,3.33,3.33,0,0,1,1.65,2.68A5.54,5.54,0,0,0,228.89,199.75Z"/><path class="cls-8" d="M232.56,199.6a2.51,2.51,0,0,1-2.17-1.13,12.43,12.43,0,0,1,.86-1.23c.4.77,1.35,1.13,1.67.77s0-.75-.83-1.13-1.59-.78-1.61-1.74a1.42,1.42,0,0,1,1.4-1.49,2.33,2.33,0,0,1,2.3,1.42,9.93,9.93,0,0,0-1.22.75.91.91,0,0,0-.76-.65.31.31,0,0,0-.33.38c0,.37.39.5,1,.73.92.33,1.46.91,1.47,1.62A1.69,1.69,0,0,1,232.56,199.6Z"/></g></g></svg>