<svg id="Layer_50" data-name="Layer 50" xmlns="http://www.w3.org/2000/svg" xmlns:xlink="http://www.w3.org/1999/xlink" viewBox="0 0 370 330"><defs><style>.cls-1{fill:#9b047e;}.cls-2{fill:#ac60fc;}.cls-3{fill:#e1a2fc;opacity:0.25;}.cls-4{fill:#8d1ce5;}.cls-5{fill:#7b0bd3;}.cls-6{fill:#4b0693;}.cls-7{fill:#bd75fc;}.cls-8{fill:#d197ff;}.cls-9{fill:#f42cca;}.cls-10{fill:#f462df;}.cls-11{fill:#ffc5ef;}.cls-12{fill:#ff88e9;}.cls-13{fill:#dd10b6;}.cls-14{fill:#bf049c;}.cls-15{fill:#8c0660;}.cls-16{fill:#e0b0ff;}.cls-17{fill:#3b0384;}.cls-18{fill:#5c08a5;}.cls-19{fill:#570393;}.cls-20{fill:url(#radial-gradient);}.cls-21{fill:url(#linear-gradient);}.cls-22{fill:#c459ef;}.cls-23{fill:#fcf8ff;}.cls-23,.cls-29{opacity:0.44;}.cls-24,.cls-25{fill:#9e05d8;}.cls-24,.cls-30{opacity:0.18;}.cls-25,.cls-31{opacity:0.31;}.cls-26{fill:url(#radial-gradient-2);}.cls-27{fill:url(#linear-gradient-2);}.cls-28{fill:#ef5996;}.cls-29{fill:#fff5fa;}.cls-30,.cls-31{fill:#d80556;}.cls-32{fill:#8bd105;}.cls-33{fill:#c2fc22;}.cls-34{fill:#77c606;}.cls-35{fill:#53bc0f;}.cls-36{fill:#a5ea0f;}.cls-37{fill:#46aa05;}.cls-38{fill:#268c04;}.cls-39{fill:#f3ffc2;}.cls-40{fill:#faffe3;}.cls-41{fill:#b4e548;}.cls-42{fill:#3da004;}.cls-43{fill:#3e9307;}.cls-44{fill:#166802;}.cls-45{fill:#defc8b;}.cls-46{fill:#fefdff;}.cls-47{fill:#f3fcd2;}.cls-48{fill:#ff7900;}.cls-49{fill:#ffc043;}.cls-50{fill:#ff5d03;}.cls-51{fill:#f45b06;}.cls-52{fill:#fca11d;}.cls-53{fill:#e55200;}.cls-54{fill:#d84a03;}.cls-55{fill:#f9f07d;}.cls-56{fill:#fcf3a2;}.cls-57{fill:#ffb206;}.cls-58{fill:#ef4503;}.cls-59{fill:#ce3000;}.cls-60{fill:#c92f05;}.cls-61{fill:#fddf51;}.cls-62{fill:#fcf5d0;}.cls-63{fill:#fceb72;}</style><radialGradient id="radial-gradient" cx="229.64" cy="182.27" fy="167.45836052657344" r="31.06" gradientUnits="userSpaceOnUse"><stop offset="0.05" stop-color="#eab2fe"/><stop offset="1" stop-color="#cf64f5"/></radialGradient><linearGradient id="linear-gradient" x1="229.84" y1="211.29" x2="229.84" y2="190.04" gradientUnits="userSpaceOnUse"><stop offset="0" stop-color="#aa03e5"/><stop offset="0.95" stop-color="#df8dfc"/></linearGradient><radialGradient id="radial-gradient-2" cx="188.16" cy="202.15" fy="187.3347573778984" r="31.06" gradientUnits="userSpaceOnUse"><stop offset="0.05" stop-color="#feb2cd"/><stop offset="1" stop-color="#f56498"/></radialGradient><linearGradient id="linear-gradient-2" x1="188.37" y1="231.16" x2="188.37" y2="209.92" gradientUnits="userSpaceOnUse"><stop offset="0" stop-color="#e50354"/><stop offset="0.95" stop-color="#fc8db5"/></linearGradient></defs><path class="cls-1" d="M160.1,128.12c-2.34.62-18.76,4.08-21.54,5.06-1.75.61-5.8,1.31-7.18,2.49,12.62,10.84,24.06,1.14,27.73-1.82C159.74,133.34,170.54,125.34,160.1,128.12Z"/><path class="cls-2" d="M104.75,188.73c-6.55,21.05,15.89,27,33.09,25.28,12.64-1.22,45-2,47.93-17.33,2.75-14.63-16.15-38.78-25.43-48.79-2.26-2.44-5.39-4.09-7.79-6,2.88-7.51,8.32-15,11.23-22.84,3.42-9.26,2.79-10.28-5.13-16.9-.86,1.51-3.12,3.3-3.71,4.52-8.78-11.3-14.08-26-29.77-10.4a137.83,137.83,0,0,0,9.06,11.12c-6.78,2.27-13.59,3.68-19.35,8.27,5.56,5,24.16,26.25,26.37,26.24v2.28C128.88,154.77,109.76,172.65,104.75,188.73Z"/><path class="cls-3" d="M146.76,138.36Q151,137,155.23,136c2.87-5.56,6.4-11.15,8.55-17,3.42-9.26,2.79-10.28-5.13-16.9-.86,1.51-3.12,3.3-3.71,4.52C146.56,95.89,141.35,82,127.29,94.3c10.34-5.91,16.69-.75,20.26,12.73,1.7,6.45,10,10.38,5.89,16.21C150.33,127.69,148.62,133.11,146.76,138.36Z"/><path class="cls-4" d="M139.43,137.77c4.77-.15,9.56.22,14.35.53l.37-.08c2.63-5.5,6.15-11,8.63-16.72a6.17,6.17,0,0,1-2.64-.13,14.35,14.35,0,0,1-6.51,7.43,7.09,7.09,0,0,1-10.54-6c-.25-4.71,4.63-11.2.85-14.94-2.11-2.09-5.34-3-7.92-4.59-3.51-2.12-7.11-5.82-7.84-9.68-1,.78-2,1.68-3,2.72a124.61,124.61,0,0,0,8.09,10,6.86,6.86,0,0,1,2.39,1.09c6.19,4.32,5.55,13.07,5,19.76C140.31,130.61,140,134.22,139.43,137.77Z"/><path class="cls-4" d="M146.68,139.84c2.35-.23,4.69-.49,7-.72,3-6.58,7.51-13.16,10.06-20.07,3.42-9.26,2.79-10.28-5.13-16.9-.85,1.5-3.09,3.28-3.69,4.49,1.19,2.46,6.13,3.73,7,6.57,1.11,3.65-3.35,8.29-5.38,11.12C153,129.31,150.12,134.77,146.68,139.84Z"/><path class="cls-5" d="M161.16,110.87c-2.55-2.33-2.8-5.39-2.28-8.52l-.23-.2c-.85,1.5-3.09,3.28-3.69,4.49,1.19,2.46,6.13,3.73,7,6.57C161.85,110.63,162.74,112.32,161.16,110.87Z"/><path class="cls-5" d="M162,113.21a14.9,14.9,0,0,1-.34,3.61A5.52,5.52,0,0,0,162,113.21Z"/><path class="cls-5" d="M146.68,139.84l2.42-.25c4.15-6.84,10.09-13.31,12.09-20.92.16-.62.31-1.24.43-1.85-1.09,2.75-3.64,5.56-5,7.51C153,129.31,150.12,134.77,146.68,139.84Z"/><path class="cls-4" d="M124.2,169.76a95.67,95.67,0,0,0,8.74-18.19c-11.33,10.49-24.21,24.39-28.19,37.16-6.55,21.05,15.89,27,33.09,25.28,12.64-1.22,45-2,47.93-17.33,2.75-14.63-16.15-38.78-25.43-48.79a24.56,24.56,0,0,0-4.05-3.34,8.48,8.48,0,0,0-3.09,2.67c-1.22,2.4,2,9.25,2.6,11.76,1.88,7.51,4.08,15.75,3.82,23.56-.41,12.67-8.9,27.17-23.32,26.55-11.17-.47-26-8.74-23.06-22.16C114.84,179.73,120.41,175.66,124.2,169.76Z"/><path class="cls-5" d="M135.57,150.19a8.32,8.32,0,0,1,.68-.53c.07-.43.13-.86.2-1.28-12,10.74-27.3,26.23-31.7,40.35-6.55,21.05,15.89,27,33.09,25.28,12.64-1.22,45-2,47.93-17.33,2.47-13.14-12.5-33.93-22.31-45.29,0,.45,5.21,10.71,6.33,14.2,1.56,4.11,10.58,21.94.16,33.22-5.32,5.76-12.37,8.87-21,9.05-3.49.69-7,1.08-10.12,1.38-7,.65-17.85,1.37-23.46-3.19-7.76-3.81-6.6-16.06-3.76-23.91C116.32,169.18,125.24,159.18,135.57,150.19Z"/><path class="cls-4" d="M132.91,157.07c-1.24,1.91-3.21,3.2-3.33,5.61-.12,2.56,1.27,4.83,4.1,4.85,3.21,0,4.7-1.72,4.84-4.69.1-2,.32-3.71.6-5.62.23-1.52,1-3.16,1-4.67-1.62,0-2.37-2.46-3.92-1.54C136.11,152.81,133.91,155.52,132.91,157.07Z"/><path class="cls-5" d="M133.19,159c-1.38,1.35-3,3.12-.41,3.94,5.93,1.86,5.9-6.52,5.3-10C135.82,154.13,135.08,157.14,133.19,159Z"/><path class="cls-3" d="M125.23,167.56c-1.31,2.22-3.56,3.63-4.93,5.72-1.65,2.52-2.49,6.42-3.4,9.29-1.49,4.7-2.34,9.72-.65,14.51,1.1,3.13,3,3.88,5.27,5.89,2.25-4,2.67-8.68,5.64-12.6,1.78-2.35,4-4.27,5.65-6.75.59-.89,1.33-1.48,2-2.3a21.14,21.14,0,0,0,1.45-3.22A37,37,0,0,0,140,169c.54-2.41,1.72-6,.76-8.43a32.45,32.45,0,0,1-3.21,7.52c-.68,1.09-1.63,2.45-2.86,2.39a11.35,11.35,0,0,1-2.72-1.17c-1.93-.93-3.8-3.21-3.79-5.46,0-2.52,2.42-4.24,3.64-6.21C128.2,159.6,127.25,164.14,125.23,167.56Z"/><path class="cls-5" d="M148.38,152.83c.34,1,.84,11.13,4.35,7.68,2.38-2.32-2.24-7.67-4.81-7.83Z"/><path class="cls-6" d="M142,157.53a1.43,1.43,0,0,0,2.27,1.37c1.63-.85.45-5-1.06-5.16l.15-.46A21.64,21.64,0,0,0,142,157.53Z"/><path class="cls-5" d="M138.46,139.89c2.17-9.75,4.58-19.54,7.32-29.08.33-1.11-1.3-4-2.45-4.2a93.6,93.6,0,0,0-10.54-.87l1.44,1.65c-1.54.52-3.08,1-4.61,1.46,6.8,6.5,8.78,20.07,6.61,28.91C137.05,138.56,137.8,139.29,138.46,139.89Z"/><path class="cls-7" d="M137.81,139.3c.39-2.78.72-5.57.91-8.37.24-3.54,2.2-23-3.59-23.63a6.4,6.4,0,0,1-1.21-.27l.31.36c-6.78,2.27-13.59,3.68-19.35,8.27C119.24,119.54,131.6,133.47,137.81,139.3Z"/><path class="cls-8" d="M136,137.5a35,35,0,0,1-2.41-4.33c-2.18-4.45-5.21-7.95-8.66-11.52a7.08,7.08,0,0,1,1.42-11,34.56,34.56,0,0,1,9.14-3.27,1.77,1.77,0,0,0-.33-.08,6.4,6.4,0,0,1-1.21-.27l.31.36c-6.78,2.27-13.59,3.68-19.35,8.27C118.84,119.19,129.41,131,136,137.5Z"/><path class="cls-9" d="M188.48,127.19c-8.37-3-25.2-4.34-28.69,1.94-2.75,7.32-22.34,8.59-28.41,6.54,2,6.37.63,11.09-1,16.18,6.93,3.89,21.69,2.35,28.05-1.88,4.45-3,4.75-5.62,10.72-6.92,4.77-1,10.93-.32,15.91.89-.93-3.09-5.36-8-7.53-10.09C181.47,129.68,184.31,129.63,188.48,127.19Z"/><path class="cls-10" d="M188.48,127.19a46.77,46.77,0,0,0-9.86-2.14c-5,5.1-8.54,9.9-11.24,16.75-.27.68-.54,1.36-.8,2a15.11,15.11,0,0,1,2.61-.79c4.77-1,10.93-.32,15.91.89-.93-3.09-5.36-8-7.53-10.09C181.47,129.68,184.31,129.63,188.48,127.19Z"/><path class="cls-11" d="M169.19,143.05a24.56,24.56,0,0,1,5-.49c-.11-6.23,2-12.91,6.14-17.27l-.58-.09c-5.26,5.1-8.52,11.28-11.15,18C168.82,143.14,169,143.09,169.19,143.05Z"/><path class="cls-12" d="M137.93,153.91a40.45,40.45,0,0,0,9.74-.32q.6-2.43,1.13-4.87c1-4.76,1.77-9.4,3-14a46.33,46.33,0,0,1-13,1.79,24.42,24.42,0,0,1,.17,13.91C138.68,151.58,138.31,152.74,137.93,153.91Z"/><path class="cls-11" d="M139.93,154c1.06,0,2.13,0,3.22,0,.07-.28.13-.56.21-.81,1.63-5.7,3.44-11.42,4.17-17.32a.51.51,0,0,1,0-.13c-1.58.28-3.2.49-4.79.62A71.21,71.21,0,0,1,139.93,154Z"/><path class="cls-13" d="M131.84,152.53c.55-2.61,1.38-5.13,2.08-7.85a26.35,26.35,0,0,0,.5-8.38,16.08,16.08,0,0,1-3-.63c2,6.37.63,11.09-1,16.18A11.65,11.65,0,0,0,131.84,152.53Z"/><path class="cls-13" d="M159.79,129.13c-.8,2.14-3,3.75-5.95,4.93a58.17,58.17,0,0,1-2.34,12.86c-.45,2.12-1,4.2-1.56,6.26a25.47,25.47,0,0,0,8.53-3.21c2.61-1.74,3.8-3.38,5.55-4.69,1.52-7.59,6.13-14.92,11.58-20.49C168.67,124.39,161.87,125.39,159.79,129.13Z"/><path class="cls-14" d="M157.18,132.27c-.19,6.73-2.29,13.09-3.17,19.8a19.68,19.68,0,0,0,4.46-2.1,27.3,27.3,0,0,0,3.94-3.31c0-5,2.4-10.41,4.67-14.39a26.48,26.48,0,0,1,6.3-7.56c-6.11-.07-11.74,1.09-13.59,4.42A7.11,7.11,0,0,1,157.18,132.27Z"/><path class="cls-15" d="M158,147.27l-.21,3.1.66-.4c.29-.2.55-.39.81-.59a9.62,9.62,0,0,1,.05-1.36,49.91,49.91,0,0,1,2.29-10.17,92.62,92.62,0,0,1,4.78-12.54,12.63,12.63,0,0,0-5,2,8.37,8.37,0,0,1-.15,1.29C160,135,158.4,140.73,158,147.27Z"/><path class="cls-16" d="M128.38,161.31v-.21c-3.13,3.91-6.07,8-9.42,11.58a24.92,24.92,0,0,0-4.64,8.21c-2.31,6.57-.77,12.14,4,17.39-1.46-5.78.7-15.5,4-20.35C125.44,173.26,129.38,167.09,128.38,161.31Z"/><path class="cls-3" d="M150.47,163.43c-2.5-.82-2.05-4.69-2.73-6.75v.21a30.14,30.14,0,0,0-1.48,7.58c0,2.32,1.33,7.1,4.22,7.37,1.61.15,4.93-2.91,5.63-4.22.88-1.66,0-4.59-.76-6.72C155.35,162.78,152.1,164,150.47,163.43Z"/><path class="cls-3" d="M155.35,160.9a2.06,2.06,0,0,0-.42-1.2Z"/><path class="cls-17" d="M158.26,148.27v.42c0,2.32-.82,11.62,3.84,9.1C167.08,155.1,158.65,151,158.26,148.27Z"/><path class="cls-16" d="M137.08,91.86a.87.87,0,0,0-.07-.17C136.9,91.63,137,91.76,137.08,91.86Z"/><path class="cls-16" d="M161,113.14c-2.78-2.43-6-2.78-9.74-3-1.64-3.82-2.33-7.66-4.06-11.39-1.47-3.18-6.07-9.28-10.22-7.48l.24.71a.51.51,0,0,1-.18-.09c.08.16.13.34.22.51,6.51.67,9.75,9.16,10.93,14.74,1.4,6.69.93,14.4-2.77,20.7C149.36,121.51,152.86,113.46,161,113.14Z"/><path class="cls-16" d="M147.53,158.24v.46c-.74,1.33-.33,5-.71,6.77-.47,2.23-.82,4.61-1.39,6.77a52.34,52.34,0,0,1-6.56,14.85,141.21,141.21,0,0,1,10.13-13c2.63-3.08,4.64-2.42,6.21-6.26-1.94.06-4.37.3-6.24-.32A25.61,25.61,0,0,1,147.53,158.24Z"/><path class="cls-16" d="M128,185.31a90.83,90.83,0,0,0-5,9.79c-1.57,3.49-2.15,7.18.92,10.11s11.95,3.92,15.65,2.69c1.48-.49,2.48-1.7,3.89-2.29-3.29,1-8-.44-11.18-1.1-3.58-.76-6.93-1.37-7.19-5.89-.22-3.75,2.15-7.63,3.52-11a42.64,42.64,0,0,1,4.71-8.57c.64-.89,3.78-4.59,2.75-4.49l.23-.7C133.7,177.75,130.47,181.17,128,185.31Z"/><path class="cls-18" d="M160.89,195.63c-1.83,3.52-3.95,6.7-6.13,10.06-1.68,2.59-4.1,4.15-5.83,6.47,4.77-3.09,17.76-1.48,18.68-8.87a40.77,40.77,0,0,0-.19-11c-.84-5.23-.84-7.56-2.79-12.63C163.7,184.88,163.13,191.32,160.89,195.63Z"/><path class="cls-19" d="M180.2,196.52c1.76-7-5.91-23-8.16-29,3.56,17.08,2.19,30.87-4.44,39C172.92,204,178.64,202.74,180.2,196.52Z"/><path class="cls-20" d="M196.66,200.05c0,6.2,14.76,11.24,33,11.24s33-5,33-11.24-14.77-46.8-33-46.8S196.66,193.84,196.66,200.05Z"/><path class="cls-21" d="M229.84,211.29c18.11,0,32.78-4.76,32.78-10.63S248,190,229.84,190s-32.77,4.76-32.77,10.62S211.74,211.29,229.84,211.29Z"/><path class="cls-22" d="M197.33,202c5-8.49,18.11-9.23,27-9.67,12.47-.63,27.67-.55,38.17,7.34-1.58-5.39-15.58-9.61-32.63-9.61-18.1,0-32.77,4.76-32.77,10.62A3.57,3.57,0,0,0,197.33,202Z"/><path class="cls-23" d="M200.21,203.07a34.06,34.06,0,0,0,13.27,5.58c.46-22.52,4.81-39.45,14.19-53.43-12.6,3.7-18.95,17.69-22.72,29.32A170.6,170.6,0,0,0,200.21,203.07Z"/><path class="cls-24" d="M238.7,209.08c6.11-.43,13.24-1.65,19.21-5.2a84.76,84.76,0,0,0-4.06-19.32C250,173.1,244.51,160.4,233,155.17c4.46,5.77,10.94,22.5,6.77,46.86C239.4,203.85,239.17,206.35,238.7,209.08Z"/><path class="cls-23" d="M204.29,200.23c3.09,3.16,6.18-10.81,7.73-15.93,1-3.31,3.77-12,5.25-15.38,2.16-4.94,6.33-10.3,5.47-10.3C207.53,169.23,204,193.05,204.29,200.23Z"/><path class="cls-25" d="M254.67,200.83c-4.14-32.28-18.76-42.82-18.06-42.05,12.33,13.59,10,46.72,10,46.72C255.81,204.75,254.67,200.83,254.67,200.83Z"/><path class="cls-26" d="M155.18,219.92c0,6.21,14.77,11.24,33,11.24s33-5,33-11.24-14.76-46.79-33-46.79S155.18,213.72,155.18,219.92Z"/><path class="cls-27" d="M188.37,231.16c18.1,0,32.77-4.75,32.77-10.62s-14.67-10.62-32.77-10.62-32.78,4.75-32.78,10.62S170.27,231.16,188.37,231.16Z"/><path class="cls-28" d="M155.85,221.86c5-8.5,18.11-9.23,27-9.68,12.48-.62,27.68-.54,38.17,7.35-1.58-5.39-15.58-9.61-32.62-9.61-18.1,0-32.78,4.75-32.78,10.62A3.78,3.78,0,0,0,155.85,221.86Z"/><path class="cls-29" d="M158.73,223A34.34,34.34,0,0,0,172,228.53c.46-22.52,4.81-39.46,14.19-53.43-12.6,3.7-18.95,17.69-22.71,29.32A167.8,167.8,0,0,0,158.73,223Z"/><path class="cls-30" d="M197.22,229c6.12-.42,13.25-1.64,19.21-5.19a83.6,83.6,0,0,0-4.06-19.32c-3.82-11.47-9.34-24.16-20.9-29.39,4.46,5.77,10.95,22.49,6.77,46.86C197.93,223.73,197.7,226.23,197.22,229Z"/><path class="cls-29" d="M162.81,220.11c3.09,3.15,6.18-10.81,7.73-15.93,1-3.31,3.78-12,5.25-15.38,2.17-4.94,6.34-10.3,5.48-10.3C166.06,189.11,162.48,212.93,162.81,220.11Z"/><path class="cls-31" d="M213.19,220.7c-4.13-32.28-18.76-42.81-18.06-42,12.34,13.59,10,46.72,10,46.72C214.33,224.63,213.19,220.7,213.19,220.7Z"/><path class="cls-32" d="M105.42,222.67c-1.89,6-.77,12.29-.2,15.9,2,12.6,14.73,21.48,32.91,21.48s31.15-9.75,32.9-21.48c.57-3.83,1.29-10.51,0-15.32-2.82-10.57-17.14-6.17-32.9-6.17C122.69,217.08,108.43,213.12,105.42,222.67Z"/><path class="cls-33" d="M116.53,238.12c.14,4,.93,8,1.42,11.85q.38,2.91.69,5.82c.61.31,1.23.61,1.87.89,0-.83-.05-1.63-.1-2.38-.27-4.93-1.74-9.82-1.61-14.73A24.27,24.27,0,0,1,116.53,238.12Z"/><path class="cls-34" d="M171,238.57c.57-3.83,1.29-10.51,0-15.32-2.67-10-15.59-6.61-30.29-6.21-.83,10.28-.49,20.61-.74,30.9-.1,4-.33,8.07-.63,12.09C156.89,259.6,169.32,250,171,238.57Z"/><path class="cls-35" d="M105.6,224a.18.18,0,0,0,0-.07,4.38,4.38,0,0,1-.31-.61c-1.62,5.8-.56,11.77,0,15.25a21.28,21.28,0,0,0,2.85,7.77c0-.3,0-.6,0-.91a73.4,73.4,0,0,1-1.7-10.31,70.32,70.32,0,0,1-.07-9.63A12.94,12.94,0,0,1,105.6,224Z"/><path class="cls-35" d="M171,223.25a10.19,10.19,0,0,0-.68-1.84c-3.22,6.85-8.13,12.86-15.18,15.64a11.46,11.46,0,0,1-2.57,1.48,2,2,0,0,1-.75.14c0,2.2-.07,4.39-.25,6.56-.35,4.45-.94,8.87-1.56,13.29,11.75-3.18,19.65-11,21-19.95C171.6,234.74,172.32,228.06,171,223.25Z"/><path class="cls-36" d="M107.93,218.86s0,.1,0,.15c-1.51,8.13.81,16.61,1,24.8q0,2,.06,3.93a25.52,25.52,0,0,0,7.3,6.71c-.2-2.62-.4-5.25-.63-7.88-.86-10.08-1.69-20.2,0-30.19C112.49,216.62,109.81,217.31,107.93,218.86Z"/><path class="cls-33" d="M111.22,235.77c.06.43.11.87.16,1.3.59,4.86.81,9.75,1.22,14.62a27.38,27.38,0,0,0,3.7,2.76c-.2-2.62-.4-5.25-.63-7.88s-.44-5.27-.62-7.91A16.92,16.92,0,0,1,111.22,235.77Z"/><path class="cls-36" d="M121.18,216.31c-2.09,10.65-.83,21.54,0,32.26l.69,8.68A39.26,39.26,0,0,0,128,259q-.23-6.31-.36-12.65c-.14-6.06-.53-12.12-.53-18.19,0-3.64-.21-7.75.43-11.53C125.31,216.51,123.18,216.38,121.18,216.31Z"/><path class="cls-37" d="M170,238.2a90.68,90.68,0,0,0-.34-9.76c-2.09,3.38-5.31,6.19-8.71,6.78-.15,4.67-.53,9.31-.88,14-.13,1.73-.26,3.46-.37,5.19a25,25,0,0,0,10-11.22C169.85,241.51,169.94,239.86,170,238.2Z"/><path class="cls-38" d="M168.14,243.27a96,96,0,0,0-.54-12.11,14.83,14.83,0,0,1-3.86,3.07c-.64,5-.11,10.16-.75,15.16-.12,1-.26,2-.4,2.94a25.38,25.38,0,0,0,5.28-5.73C168,245.49,168.08,244.38,168.14,243.27Z"/><path class="cls-39" d="M105.22,225c0,11.87,14.73,21.48,32.91,21.48S171,236.89,171,225s-14.73-21.48-32.9-21.48S105.22,213.15,105.22,225Z"/><path class="cls-40" d="M116.61,220.25c-.83,1-1.82,2.37-1.46,3.72.91,3.43,5.12,5.54,8,7a62.68,62.68,0,0,0,11.92,4.26c5.24,1.33,11,1.52,16-.87,3.2-1.53,6.49-3.8,8.32-6.93,2.17-3.68.07-6.62-3.25-8.71a44,44,0,0,0-14.57-5.57A43.94,43.94,0,0,0,126,214.82C122.54,215.93,119,217.47,116.61,220.25Z"/><path class="cls-41" d="M128.74,210.7c.38,2.05,6.62,8.57,7.89,9.53,0,0,6.74-4.57,9.34-6.59,5.25-4.09-1.54-6.12-5.48-6.12C137.57,207.52,128,206.72,128.74,210.7Z"/><path class="cls-41" d="M136.16,223.56s-7.3,9.36-8,11.85c-1.37,4.83,7.17,5.05,9.72,5.43,3.45.49,9.76-1.17,5.9-6.89C141.85,231.13,137.82,223.47,136.16,223.56Z"/><path class="cls-41" d="M118,225.34c-1.43.32-5.74.84-6.48,2.27-1.18,2.28,2.22,4,3.78,5.21,4,3,6.72,4.37,10.33.26,1.62-1.84,10.24-9.83,8.48-10.41C134.11,222.67,122.11,224.4,118,225.34Z"/><path class="cls-41" d="M164.73,218.71c-2.29-3.27-8.18-6.78-11.81-6.24-3.94.59-13.75,7.4-13.83,8.3C139,222.5,170.72,227.25,164.73,218.71Z"/><path class="cls-41" d="M121,211.23c-4.47.36-13,6.62-10,11.39,7.9.4,23.82-1.84,23.82-1.84C134.21,217.85,124.74,210.94,121,211.23Z"/><path class="cls-41" d="M150.63,237.13c2.9,1.34,12.47-5.6,11.92-9.16-.39-1.14-7.56-1.39-11.11-2.09s-11.39-3.21-12.43-2.57c0,0,3.64,4.79,5.35,7C145.53,231.81,149,236.36,150.63,237.13Z"/><path class="cls-42" d="M105.22,225c0,11.87,14.73,21.48,32.91,21.48S171,236.89,171,225s-14.73-21.48-32.9-21.48S105.22,213.15,105.22,225Zm18.61-17.41a50.6,50.6,0,0,1,20.23-1.24c7.91,1.11,19.34,4,22.05,12.77,3.3,10.62-6.9,19.44-16.11,21.91-10.14,2.72-21.68,2-31-3.07a24,24,0,0,1-10.35-10.59C104.37,217.94,117.51,209.25,123.83,207.61Z"/><path class="cls-43" d="M105.35,224l-.08,0c0,.34,0,.68,0,1,0,11.87,14.73,21.48,32.91,21.48,17.66,0,32.06-9.08,32.86-20.48-1.23,2.34-4.87,14.06-23.11,18-9.31,2-16.85.39-25.28-1.9C111.07,238.94,105.3,227.66,105.35,224Z"/><path class="cls-44" d="M169.61,228.46a26.64,26.64,0,0,1-.79,4.31A15.17,15.17,0,0,0,171,225c0-11.87-14.73-21.48-32.9-21.48s-32.91,9.61-32.91,21.48A14.88,14.88,0,0,0,107,232a16.28,16.28,0,0,1,2.66-16.61c10-12.07,33.59-12.79,44.5-8.54,5.43,2.12,15.06,7.84,15.58,17.12a16.24,16.24,0,0,1-.11,4.4S169.61,228.42,169.61,228.46Z"/><path class="cls-45" d="M112.42,219.72a3.75,3.75,0,0,0,.67,0h-.5v-.05Z"/><path class="cls-46" d="M120.77,215c1.69.26,3.44,2.78,5.23,3.43s3.67.46,5.35,1.07c-3.09-2-5.2-5.43-8.89-6.65-3.27-1.07-9.84,3-9.87,6.83C115.21,219,118.2,214.6,120.77,215Z"/><path class="cls-45" d="M116.74,230.45c2.65,1.76,5.81-2.34,7-4.48a6.74,6.74,0,0,0-1.46.2C120.15,226.32,112.49,227.62,116.74,230.45Z"/><path class="cls-47" d="M138.85,209.1c-2-.1-4.82-.48-6.62.25-.56,2.43,1.86,5.92,3.42,7.65h.5c.19-1.83-1.37-3.07-.49-5C136.37,210.49,138.19,210.55,138.85,209.1Z"/><path class="cls-45" d="M161.66,218.19c-4.86-5.63-13.92-3.69-18.81,1l.49-.25c3.14-.2,6.29-2,9.37-2.54C156.12,215.87,158.42,217.36,161.66,218.19Z"/><path class="cls-48" d="M176.2,231.66c-1.89,6-.76,12.29-.19,15.9,2,12.6,14.73,21.48,32.9,21.48s31.15-9.75,32.91-21.48c.57-3.82,1.28-10.51,0-15.31-2.83-10.58-17.15-6.18-32.91-6.18C193.48,226.07,179.22,222.11,176.2,231.66Z"/><path class="cls-49" d="M187.31,247.11c.14,4,.94,8,1.43,11.85q.36,2.91.69,5.82c.6.31,1.22.61,1.86.89,0-.83,0-1.63-.09-2.38-.27-4.93-1.74-9.82-1.62-14.73A24.27,24.27,0,0,1,187.31,247.11Z"/><path class="cls-50" d="M241.82,247.56c.57-3.82,1.28-10.51,0-15.31-2.67-10-15.6-6.62-30.3-6.22-.83,10.28-.48,20.61-.73,30.91-.1,4-.33,8.06-.64,12.08C227.67,268.59,240.1,259,241.82,247.56Z"/><path class="cls-51" d="M176.39,233l0-.07a4,4,0,0,1-.32-.61c-1.62,5.8-.56,11.77,0,15.25a21.28,21.28,0,0,0,2.85,7.77c0-.3,0-.6-.05-.9a64.08,64.08,0,0,1-1.78-20A11.33,11.33,0,0,1,176.39,233Z"/><path class="cls-51" d="M241.82,232.25a10.3,10.3,0,0,0-.68-1.85C237.91,237.25,233,243.27,226,246a11.39,11.39,0,0,1-2.56,1.48,2.54,2.54,0,0,1-.76.14c0,2.2-.07,4.39-.24,6.56-.36,4.45-.95,8.87-1.57,13.29,11.76-3.18,19.66-11,21-19.95C242.39,243.74,243.1,237.05,241.82,232.25Z"/><path class="cls-52" d="M178.71,227.85c0,.05,0,.1,0,.15-1.5,8.14.81,16.61,1,24.8,0,1.3.05,2.61.07,3.93a25.5,25.5,0,0,0,7.29,6.72c-.2-2.63-.4-5.26-.62-7.89-.86-10.08-1.69-20.2,0-30.19C183.28,225.61,180.6,226.3,178.71,227.85Z"/><path class="cls-49" d="M182,244.76c.05.43.11.87.16,1.3.58,4.85.81,9.75,1.21,14.62a29,29,0,0,0,3.7,2.77c-.2-2.63-.4-5.26-.62-7.89s-.45-5.27-.62-7.91A16.42,16.42,0,0,1,182,244.76Z"/><path class="cls-52" d="M192,225.31c-2.1,10.64-.83,21.53,0,32.25.24,2.89.46,5.78.69,8.68a39.06,39.06,0,0,0,6.07,1.77c-.16-4.21-.27-8.43-.37-12.65-.13-6.06-.52-12.12-.53-18.19,0-3.64-.21-7.75.44-11.53C196.1,225.5,194,225.37,192,225.31Z"/><path class="cls-53" d="M240.78,247.19a93.34,93.34,0,0,0-.34-9.76c-2.09,3.38-5.31,6.19-8.72,6.78-.15,4.67-.52,9.31-.88,14-.13,1.73-.25,3.46-.37,5.19a24.86,24.86,0,0,0,10-11.22C240.64,250.5,240.72,248.85,240.78,247.19Z"/><path class="cls-54" d="M238.92,252.26a94.14,94.14,0,0,0-.54-12.11,14.51,14.51,0,0,1-3.86,3.07c-.63,5-.1,10.16-.74,15.16-.13,1-.26,2-.41,2.94a25.15,25.15,0,0,0,5.28-5.73C238.77,254.48,238.87,253.37,238.92,252.26Z"/><path class="cls-55" d="M176,234c0,11.87,14.73,21.48,32.9,21.48s32.91-9.61,32.91-21.48-14.73-21.48-32.91-21.48S176,222.14,176,234Z"/><path class="cls-56" d="M187.39,229.24c-.83,1-1.81,2.38-1.45,3.72.91,3.43,5.12,5.54,8,7a63.18,63.18,0,0,0,11.92,4.26c5.25,1.33,11,1.52,16-.87,3.19-1.53,6.48-3.8,8.32-6.93,2.17-3.68.07-6.63-3.26-8.71a43.79,43.79,0,0,0-14.57-5.57,44,44,0,0,0-15.63,1.71C193.32,224.93,189.79,226.46,187.39,229.24Z"/><path class="cls-57" d="M199.52,219.69c.39,2.05,6.62,8.57,7.9,9.53,0,0,6.73-4.57,9.33-6.59,5.25-4.08-1.54-6.12-5.48-6.12C208.35,216.51,198.77,215.71,199.52,219.69Z"/><path class="cls-57" d="M206.94,232.55s-7.3,9.36-8,11.85c-1.37,4.83,7.16,5.06,9.72,5.43,3.45.49,9.76-1.17,5.89-6.89C212.64,240.12,208.61,232.46,206.94,232.55Z"/><path class="cls-57" d="M188.78,234.33c-1.43.32-5.73.84-6.48,2.28-1.17,2.27,2.22,4,3.79,5.2,4,3,6.71,4.37,10.33.26,1.61-1.84,10.23-9.82,8.47-10.41C204.89,231.66,192.89,233.39,188.78,234.33Z"/><path class="cls-57" d="M235.52,227.7c-2.3-3.27-8.19-6.78-11.82-6.24-3.93.59-13.74,7.41-13.82,8.31C209.74,231.49,241.51,236.24,235.52,227.7Z"/><path class="cls-57" d="M191.78,220.22c-4.46.36-13,6.62-10,11.39,7.89.41,23.82-1.84,23.82-1.84C205,226.84,195.52,219.93,191.78,220.22Z"/><path class="cls-57" d="M221.42,246.12c2.89,1.34,12.47-5.6,11.92-9.16-.39-1.14-7.56-1.39-11.12-2.09s-11.38-3.21-12.42-2.57c0,0,3.63,4.79,5.35,7C216.32,240.8,219.75,245.35,221.42,246.12Z"/><path class="cls-58" d="M176,234c0,11.87,14.73,21.48,32.9,21.48s32.91-9.61,32.91-21.48-14.73-21.48-32.91-21.48S176,222.14,176,234Zm18.6-17.41a50.83,50.83,0,0,1,20.24-1.24c7.91,1.11,19.33,4,22.05,12.77,3.3,10.62-6.91,19.44-16.12,21.91-10.14,2.73-21.68,2-31-3.07a24,24,0,0,1-10.35-10.59C175.15,226.93,188.3,218.24,194.61,216.6Z"/><path class="cls-59" d="M176.14,233l-.09,0c0,.34,0,.68,0,1,0,11.87,14.73,21.48,32.9,21.48,17.66,0,32.07-9.08,32.87-20.48-1.15,3.8-4.87,14.06-23.11,18-9.31,2-16.86.4-25.29-1.9C181.85,247.93,176.08,236.65,176.14,233Z"/><path class="cls-60" d="M239.41,227a22.57,22.57,0,0,1,2.38,6.43c-.45-11.61-15-20.92-32.88-20.92s-32.43,9.32-32.88,20.93a18.82,18.82,0,0,1,1.38-4.8,15.35,15.35,0,0,1,2.75-4.43c10-12.07,33.87-12.68,44.78-8.43C228.69,217.27,233.79,219.51,239.41,227Z"/><path class="cls-61" d="M183.2,228.71a3.75,3.75,0,0,0,.67,0h-.49v-.05Z"/><path class="cls-62" d="M191.56,224c1.68.26,3.43,2.78,5.22,3.42s3.68.47,5.35,1.08c-3.09-2-5.19-5.43-8.89-6.65-3.26-1.07-9.83,3-9.86,6.83C186,228,189,223.59,191.56,224Z"/><path class="cls-63" d="M187.53,239.44c2.64,1.76,5.81-2.34,7-4.48a6.66,6.66,0,0,0-1.46.2C190.94,235.31,183.28,236.61,187.53,239.44Z"/><path class="cls-46" d="M209.64,218.09c-2-.1-4.82-.48-6.63.25-.56,2.43,1.86,5.92,3.43,7.65h.49c.2-1.83-1.37-3.07-.49-5C207.15,219.49,209,219.54,209.64,218.09Z"/><path class="cls-63" d="M232.45,227.18c-4.87-5.63-13.92-3.69-18.82,1l.49-.25c3.15-.2,6.29-2,9.37-2.54C226.9,224.86,229.21,226.35,232.45,227.18Z"/></svg>