<svg id="Beetroot" xmlns="http://www.w3.org/2000/svg" viewBox="0 0 370 330"><defs><style>.cls-1{fill:#dd688c;}.cls-2{fill:#f4b8c8;}.cls-3{fill:#c62c51;}.cls-4{fill:#af1541;}.cls-5{fill:#8c001e;}.cls-6{fill:#6b001c;}.cls-7{fill:#e23965;}.cls-8{fill:#ef5685;}.cls-9{fill:#7c6350;}.cls-10,.cls-11,.cls-12{fill:#70001d;}.cls-10{opacity:0.46;}.cls-11{opacity:0.76;}.cls-12{opacity:0.8;}.cls-13{fill:#af8562;}.cls-14{fill:#c19778;}.cls-15{fill:#490017;}.cls-16{fill:#fff;stroke:#000;stroke-miterlimit:10;}.cls-17{fill:#7fc63c;}.cls-18{fill:#9ad852;}.cls-19{fill:#559929;}.cls-20{fill:#afea63;}.cls-21{fill:#a80024;}.cls-22{fill:#d3203e;}.cls-23{fill:#ff556a;}</style></defs><path class="cls-1" d="M142.11,157s-12.1-26.85-16.38-38.15S119,98.18,119,98.18s-3.92-3.78-6.76-.12c0,0,7.08,39.07,24,60.05C136.26,158.11,141,161.72,142.11,157Z"/><path class="cls-1" d="M140.21,165.6s-48.27-37.29-59.86-50.28c0,0-3.89-1.94-5-.71S78,119.08,78,119.08c-2.23-1.89,40,37.14,59.16,50.34Z"/><path class="cls-2" d="M140,169.38s-11.15-6.29-27.28-22.85-23.23-26.89-23.23-26.89-2.35-3.64-.58-6.76,7.72,2.25,8.49,3.76,28.49,30.5,46.41,43.73C143.78,160.37,146.06,166.85,140,169.38Z"/><path class="cls-2" d="M148.71,163.38s3.67-13.18,2.87-31.73-4.09-24.51-4.09-24.51-5.86-5.36-10,.79c0,0,2.85,20.15,1.19,37.82s-4.47,22.46-4.47,22.46,1.81,1.53,7.7-.16S148.71,163.38,148.71,163.38Z"/><path class="cls-3" d="M220.44,285.45s.9-9.55-10.95-13.72-16.32-14.27-13.56-25.54,16.46-20.37,16.4-45.6-28-47.09-62.5-36.47-44.3,52.76-26.62,71.62c15.19,16.19,33.15,14.87,45.49,18.44s12.73,12.54,25.88,16.9S218.43,274.93,220.44,285.45Z"/><path class="cls-4" d="M220.2,282.67s-.78-5.47-9.41-9-14.33-8-17.41-13.14-6.6-17.72-16.71-22-25.16.23-38.86-9.39-14.14-51.33,13.3-65.36c0,0-17.9,4.92-26.24,20.66s-10.19,42.29,7.3,54.87,30.79,7.15,39,11.83,10.53,11.69,19.15,16.55S216.57,273.73,220.2,282.67Z"/><path class="cls-5" d="M220.2,282.67a19.67,19.67,0,0,1,.18,3.17c-.14.51-.16-2.21-1.7-4.9s-5.74-4.91-12.75-6.73-12.41-2.27-19.79-7.54-4.9-6.26-13.17-10.84-39.65-2.23-53.51-25.09c-14-23.1,1.82-58.94,31.65-67a43.52,43.52,0,0,0-26.49,25C118.06,205,120,223.5,131,234.32s37.73,7.35,44.76,11.6,7.68,11.55,14.05,17.84C197.13,271,217.08,272.79,220.2,282.67Z"/><path class="cls-6" d="M197.22,272.05s-8.95-1.85-14.88-7.85-7.64-8-11.84-9.37-20.4-2.68-33.93-9S113.39,227.89,114,212s8.55-30,15.91-36c0,0-16.06,15.3-13.47,38.48s20.62,29.17,24.28,30.62,16.83,4,24.17,4.18,9.76-.33,14.77,7.39S184.85,267.81,197.22,272.05Z"/><path class="cls-7" d="M150.92,165.21c9.9-4.11,37.53-4.52,51.2,13.17s6.51,36.92,1.24,47.48-34.83,9.11-52.85-10.12S143.47,168.31,150.92,165.21Z"/><path class="cls-8" d="M152.09,168.08c5.77-5.63,25.95-5.33,39.65,3.16s9,29-13.3,28.28S144.39,175.58,152.09,168.08Z"/><path class="cls-9" d="M160.7,161.78s-13,2.43-32.7,15.9c0,0,8.23-8.16,16.5-11.62A61.94,61.94,0,0,1,160.7,161.78Z"/><path class="cls-2" d="M159.1,162.17s-2.83.91-1.27-4.14,5.6-25,6.57-44.77c0,0-2.59-1.28-4.51.22,0,0-3.81,27.31-7.07,35.79s-4.41,12.81-6.27,14.59a9.47,9.47,0,0,0-2.42,3.52s.8.33,3.69-1,3.92-2.91,5.89-3.41S156.44,163.67,159.1,162.17Z"/><path class="cls-2" d="M128,177.68s1.2-2.38.55-3.68-16-7.5-30-21.54-18.68-21.71-18.68-21.71,2.82-5.55,7.5-.86,7.86,9.31,25,22.62c14.67,11.4,22,14.7,25.11,14.47s6.93-.68,7.19.42a13.22,13.22,0,0,1-7,3.25C133.77,171,134.45,174.19,128,177.68Z"/><path class="cls-4" d="M146.89,106.66s3.15,8.19,3.73,24.77A127.6,127.6,0,0,1,147.84,162a23.51,23.51,0,0,1-1.59,2.11,269.17,269.17,0,0,0,3.19-28.31,82.35,82.35,0,0,0-3.71-29.91Z"/><path class="cls-4" d="M144,105.19a82.45,82.45,0,0,1,4,26.47c-.09,15.52-3.27,34.66-3.27,34.66l-.11.77-1.67-.38a240,240,0,0,0,4-35.15c.5-17.65-3.7-26.49-3.7-26.49Z"/><path class="cls-4" d="M142.64,105s2.42,9.41,2.75,24.45-3.91,37.28-3.91,37.28l-1.37.07s3.69-20,4.23-31.1S141.69,105,141.69,105Z"/><path class="cls-4" d="M140.61,105.28s2.24,17.3,2.2,30-4.19,31.65-4.19,31.65l-1.11.08s4.49-19.24,4-36.5-1.94-24.68-1.94-24.68Z"/><path class="cls-4" d="M138.29,106.92A167.32,167.32,0,0,1,140,141c-1.1,18-3.89,25.94-3.89,25.94l-1.3-.2s2-6,3.53-19.07.23-32.52-.78-39.74Z"/><path class="cls-4" d="M163.75,113a165.62,165.62,0,0,1-2.08,21.74c-1.9,11.33-4.59,23.48-5.24,25.17a2.73,2.73,0,0,0,.9,2.94,6,6,0,0,1-.64.07,2.15,2.15,0,0,1-1.1-2.25c.32-1.24,4.06-16.47,5.8-29.36s1.47-18.52,1.47-18.52Z"/><path class="cls-4" d="M162.17,112.75s-.5,7-1.56,16.67a271.37,271.37,0,0,1-5.12,27.78c-.69,2.55-1.63,4.84-.73,5.61l-.92.1s-.72-.36.18-3.36,3.34-14.3,4.88-22.57,2.67-24.19,2.67-24.19Z"/><path class="cls-4" d="M160.64,113a183.67,183.67,0,0,1-1.95,20,266.78,266.78,0,0,1-6,26.78,22.6,22.6,0,0,1-2.22,4.93l-.91.62-1.1.74s2.73-2,5.57-14.25,4.4-21.45,4.88-28.2,1-10.21,1-10.21Z"/><path class="cls-4" d="M80.2,130.29a227.76,227.76,0,0,0,19.5,22.34C110,162.72,127.78,172,128.77,172.51s.59,4.37.59,4.37l1.23-.84s.43-3.53-1.61-4.89-16.59-7.92-29-19.83a174.53,174.53,0,0,1-19.36-21.58Z"/><path class="cls-4" d="M81.3,129s9.69,12.66,19.16,21.25,26.07,18.12,29.47,19.82,2.26,4.6,2.26,4.6l1.25-1.3s.88-2.37-2.95-4.27-19.75-11.73-28.34-19.06-20.28-21.47-20.28-21.47Z"/><path class="cls-4" d="M83.24,128.05a152.51,152.51,0,0,0,18.47,20.08c10.83,9.76,25.71,17.54,28.24,18.85,2.31,1.19,4.71,3.49,4.74,4.77a.72.72,0,0,1-.05.33c-.46,1.17.86-.71.86-.71s.47-2.49-5.34-5.39-22.46-13.75-28.07-18.65A171,171,0,0,1,83.67,128Z"/><path class="cls-4" d="M141.86,169.36s-3.27.45-12-4.12-24.68-17.05-30.79-22.4-13.16-14.17-13.16-14.17a4,4,0,0,1,1.85,1.56,152.45,152.45,0,0,0,19.93,18.93c9.14,7,21.13,16.07,27.76,18s9.07,0,9.07,0S144.24,168.4,141.86,169.36Z"/><path class="cls-4" d="M93.92,113.34a192.16,192.16,0,0,0,22.21,24.09c14.1,13.08,20.84,18.71,20.84,18.71l-.14,1s-14.19-12.48-23.47-21S93.2,113.63,92.88,112.67Z"/><path class="cls-4" d="M136.62,159a347.27,347.27,0,0,1-26.68-24.87,204.64,204.64,0,0,1-18.16-22L91,112a208.25,208.25,0,0,0,18.47,22.88A276.08,276.08,0,0,0,136.4,159.9Z"/><path class="cls-4" d="M136,161.72S118.33,145.3,107,133.11s-16.74-21.17-16.74-21.17l-.32.08s3.27,7.28,19,24.19a369.12,369.12,0,0,0,26.89,26.37Z"/><path class="cls-4" d="M135.15,164.14s-21.65-20.68-31.26-31.88a146,146,0,0,1-14.6-19.9,3.54,3.54,0,0,0-.69,1.1s3.33,5.3,15.52,20.28S135.15,164.14,135.15,164.14Z"/><path class="cls-4" d="M135.23,165.07a207.92,207.92,0,0,1-29-27.23c-12.91-15.13-18-23-18-23a6.81,6.81,0,0,0,0,1c0,.44,10.74,14.46,17.88,22.84s21.94,23.28,29,27.32Z"/><path class="cls-4" d="M118.35,97.67a154.11,154.11,0,0,0,7,22.27c5,12.91,12.75,29.47,12.75,29.47l-.17,1.3a247.53,247.53,0,0,1-13.56-30.42c-6.46-17.53-6.48-23-6.48-23Z"/><path class="cls-4" d="M116.74,96.73s1.33,9.15,6.44,23.8,14.45,32.1,14.45,32.1l-.15,1s-7.95-12.17-15.13-33.3S116,96.61,116,96.61Z"/><path class="cls-4" d="M114.89,96.57A133.55,133.55,0,0,0,122.26,124c5.69,14.73,15,31.23,15,31.23L135.82,154s-6.9-10.32-14.39-30.3-7.24-27.14-7.24-27.14Z"/><path class="cls-4" d="M113.41,97s1.06,11.26,7.89,29.42,11.76,25.3,11.76,25.3l-1.65-1.43a164.8,164.8,0,0,1-11-24.6c-5.19-14.55-7.46-26.31-7.61-28.24Z"/><path class="cls-10" d="M151.69,137.43a97.22,97.22,0,0,1-.5,10.45c-.59,5.49-1,8.55-1,8.55s-1.77,5.49-3.9,7.72-1.73,2.94-1.73,2.94a12.42,12.42,0,0,0-4.41-.31,16,16,0,0,1-5.34-.11s1.72-4.37,3.11-15.66A130.12,130.12,0,0,0,139,132.45s.24,8.8-.51,18.9.85,10.73,2.6,12.34,4.53-1.05,6.84-8.48A134,134,0,0,0,151.69,137.43Z"/><path class="cls-10" d="M103.21,136.4s9.18,10,12.77,13.43,15.08,13.91,19.15,16.21c0,0,1.89-9.66,2.11-10.81,0,0-8.76-7.34-15.48-13.79,0,0,11.89,12.47,11.67,12.93s-2.18,1.91-12.1-4A105.93,105.93,0,0,1,103.21,136.4Z"/><path class="cls-11" d="M133.09,136.55s5.15,11.25,5.11,11.65-1,7-1,7l-7.47-6.46a171.94,171.94,0,0,1-8.46-18.56c-2.73-7.78-3-8.67-3-8.67s4.48,11,7.86,17.35,8.3,9,8.93,8.81S135.42,142,133.09,136.55Z"/><path class="cls-4" d="M103.73,137A199.27,199.27,0,0,1,88.3,124c-7-6.64-8.32-8.85-8.32-8.85l-1.59-.61a100.79,100.79,0,0,0,12.27,13,144.16,144.16,0,0,0,16.24,12.89Z"/><path class="cls-4" d="M111.22,145a159.91,159.91,0,0,1-19.65-15.75c-10-9.45-14.13-14.8-14.13-14.8l-1.12-.17A212,212,0,0,0,91.39,130a208.06,208.06,0,0,0,21.77,17Z"/><path class="cls-4" d="M116.71,150.52A179.13,179.13,0,0,1,93,132.27c-11.77-10.83-17.28-17.91-17.28-17.91a.64.64,0,0,0-.53.71S85.3,126,93.53,133.24s17,14.95,27.65,21.53Z"/><path class="cls-12" d="M101.11,134S113.19,147,120.65,154A169.7,169.7,0,0,0,135.13,166l-.36.63a30.71,30.71,0,0,1-6-3.49c-2.55-2-26.31-22.05-26.31-22.05s3.36,1.62,3-.22S86,122.1,83.35,119.09a20.67,20.67,0,0,1-3-3.77A229,229,0,0,0,101.11,134Z"/><path class="cls-13" d="M163.07,161.55s-5.62.12-24,11.59-18.48,14.78-18.48,14.78,4.22-6.84,5.87-8.61c2.4-2.6,9.22-6.48,17.44-10.52S159.43,162,159.43,162Z"/><path class="cls-13" d="M143.8,173.37s-14.05,5.87-24.16,16.43c0,0-1.53,3.22-2.18,5.11,0,0,1.25-3.6,10.1-9a.89.89,0,0,0,.39-.81c0-.54,1.06-2,3.74-3.55s2.84-2,3.06-2.51S144,174.12,143.8,173.37Z"/><path class="cls-14" d="M151.67,168.52s-2.92.07-7.91,3.68c0,0-.55-.41,1.28-1.83S151.66,167.4,151.67,168.52Z"/><path class="cls-14" d="M139.21,174.67a16.58,16.58,0,0,1-3.1,1.86C135.82,176.52,138.53,174.37,139.21,174.67Z"/><path class="cls-14" d="M166.5,161.38a33.69,33.69,0,0,0-10.68,3.72s-.57-.31,1.12-1.17a37.71,37.71,0,0,1,6.42-2.48A13.49,13.49,0,0,1,166.5,161.38Z"/><path class="cls-14" d="M138.13,179.62s-3.67,2.09-7.55,4.87a1.66,1.66,0,0,1,.84-1.32C132.31,182.56,136.71,180,138.13,179.62Z"/><path class="cls-6" d="M180.2,238.2s-7.95,3.54-10.42,11.09c0,0-.2-3.11,2.88-6.53A17,17,0,0,1,180.2,238.2Z"/><path class="cls-6" d="M185,247.6s-5.8,2.58-7.59,8.08a7.06,7.06,0,0,1,2.09-4.75A12.4,12.4,0,0,1,185,247.6Z"/><path class="cls-15" d="M164.48,238.55s-4.1,7.4-3.17,14.45l-1.87-.35S161.21,242.64,164.48,238.55Z"/><path class="cls-5" d="M167.3,229a37.54,37.54,0,0,0-8.19,14.77s-.41-2.13,2.85-8.35S167.3,229,167.3,229Z"/><path class="cls-15" d="M158.39,237.1a39.11,39.11,0,0,0-2.78,11s-1.22.15,0-4.84S158.39,237.1,158.39,237.1Z"/><path class="cls-5" d="M155.94,222a44.66,44.66,0,0,0-10.31,24.24s-.67-3.51,2.69-12.4S155.94,222,155.94,222Z"/><path class="cls-15" d="M143,230s-3.91,8.55-2.73,17.43l-1.38-.65S139.43,236.05,143,230Z"/><path class="cls-6" d="M143.85,222s-4.42,3.39-7.35,16.69c0,0-.77-1.51,1-6.88A28.75,28.75,0,0,1,143.85,222Z"/><path class="cls-15" d="M136.57,221.71a65.35,65.35,0,0,0-9.33,18.45l-.92-.76S133.13,224.73,136.57,221.71Z"/><path class="cls-4" d="M139,212.36a25.44,25.44,0,0,0-6.4,6.16,9.84,9.84,0,0,1,2.79-4.05A8.22,8.22,0,0,1,139,212.36Z"/><path class="cls-15" d="M128.39,215.8s-7.71,5.09-11.39,11.6l-.44-1S122.79,219,128.39,215.8Z"/><path class="cls-16" d="M127.75,224.37s-1.68,1.94-3.88,4.94A16.21,16.21,0,0,1,127.75,224.37Z"/><path class="cls-6" d="M136.62,198.12s-5.5,1.16-14.46,6.44c0,0,1.7-1.65,6.85-4.4S136.62,198.12,136.62,198.12Z"/><path class="cls-15" d="M123.75,209.58a27.09,27.09,0,0,0-6.17,3.8A11.06,11.06,0,0,1,123.75,209.58Z"/><path class="cls-15" d="M127.6,194.22a51.92,51.92,0,0,0-12.28,7.89l.35-1.16A42.15,42.15,0,0,1,127.6,194.22Z"/><path class="cls-15" d="M191.28,262.54s-.26,2-4.11,5.42l-.73-.46S188.06,267.43,191.28,262.54Z"/><path class="cls-15" d="M198.43,269.82a3.11,3.11,0,0,1-1.2,2.12l-.58-.09A7.92,7.92,0,0,0,198.43,269.82Z"/><path class="cls-16" d="M196.49,266.34a8.8,8.8,0,0,1-2.22,3.47Z"/><path class="cls-15" d="M207.67,272.67a2,2,0,0,1-.7,1.82l-1-.28S207.43,273.84,207.67,272.67Z"/><path class="cls-6" d="M188.91,254.11a14.93,14.93,0,0,1-4.58,5.34Z"/><path class="cls-15" d="M181.76,256.34s-2.08,2.76-2.1,5.14l-.82-.81A7.62,7.62,0,0,1,181.76,256.34Z"/><path class="cls-15" d="M174.72,249.47s-1.3,1.2-1.95,4.69c0,0-.4-.83.46-3S174.72,249.47,174.72,249.47Z"/><path class="cls-6" d="M193.06,275.93a2.61,2.61,0,0,1-2.38-2.72,9.29,9.29,0,0,0-1.77-4.72l1.8.94a5.82,5.82,0,0,1,.38,2.61C190.92,273.37,190.61,275.67,193.06,275.93Z"/><path class="cls-3" d="M217.07,272.72s-1.43-1.53-2.82-.69a1.1,1.1,0,0,0-.28,1.87l-2.2-1.24S214.43,270,217.07,272.72Z"/><path class="cls-3" d="M203.35,268.61a5.43,5.43,0,0,0,3.54,1.19c2.1-.07,1.69-2.23,3.5-1,0,0-.42-.94-1.75-.5s-1.28,1.43-3.41.62a26.44,26.44,0,0,1-4-2A5.39,5.39,0,0,0,203.35,268.61Z"/><path class="cls-5" d="M208.55,278.65s2-2-.65-3.9l-.93-.26S210,276.17,208.55,278.65Z"/><path class="cls-5" d="M200.52,272.81a3.22,3.22,0,0,0,2.39,2.33c2.18.75,2.92-.29,2.92-.29s-.91,1.29-3.1.61a6.16,6.16,0,0,1-3.27-2.81S199.45,272.15,200.52,272.81Z"/><path class="cls-5" d="M217.23,281a2.05,2.05,0,0,1-2.2-.9c-.61-.87.55-2.26.55-2.26s.76.29.71.51a1.73,1.73,0,0,0-.78,1.53C215.61,280.88,217.23,281,217.23,281Z"/><path class="cls-4" d="M197.68,238.49s-5.47-1.16-13.34,3C184.34,241.53,193.43,238.05,197.68,238.49Z"/><path class="cls-4" d="M182,224.27s-8.53,2.91-11.49,9.28C170.54,233.55,176.84,227,182,224.27Z"/><path class="cls-3" d="M149.51,198.21s-8,1.4-8,3Z"/><path class="cls-4" d="M142.88,184.62s-8.52,1.82-11.75,6.3Z"/><path class="cls-4" d="M139.76,203.13s-8.53,1.83-11.75,6.3Z"/><path class="cls-4" d="M148.61,209.48s-4.06,1.31-8.11,6.94C140.5,216.42,147.72,210.44,148.61,209.48Z"/><path class="cls-4" d="M206.48,224s-5.89-2.83-10.8.32A45.66,45.66,0,0,1,206.48,224Z"/><path class="cls-4" d="M195.84,246.59a12.8,12.8,0,0,0-7.05.79s1.77-1.26,6.92.11Z"/><path class="cls-3" d="M166.4,203.39s-9.1,2.47-12.82,9.92C153.58,213.31,160.58,206.39,166.4,203.39Z"/><path class="cls-3" d="M151.81,188.18s-5.51.46-7.19,2.44A24.81,24.81,0,0,0,151.81,188.18Z"/><path class="cls-3" d="M184.84,207.28s-10.53,4.53-14.22,6.7C170.62,214,178.43,207.1,184.84,207.28Z"/><path class="cls-4" d="M212.21,204.8s-3.34-1.62-15.59.48c0,0,13-1.65,15.46,1.27Z"/><path class="cls-4" d="M205.07,190.62s4.21,0,6,.9l.18.67A24.85,24.85,0,0,0,205.07,190.62Z"/><path class="cls-4" d="M200.05,175.94a11.15,11.15,0,0,1,2.58.39l.61.6A5.45,5.45,0,0,0,200.05,175.94Z"/><path class="cls-4" d="M178.7,162.58a9,9,0,0,0-2.93,1.31,10.53,10.53,0,0,1,4.95-.82S179.39,162.73,178.7,162.58Z"/><path class="cls-4" d="M171.49,161.52s-.82-.14-2.46,1.18c0,0,1-1.27,1.13-1.26Z"/><path class="cls-17" d="M178.37,126c2.43-.89,7.67-.56,9.2-4.29s-5.11-9.35-.49-12.59,10.92,1.5,13-.77,0-5.57-.85-6.91a3.92,3.92,0,0,1,.8-5.32c2.09-1.85,6-3.85,6.5-6.76s-2.95-5.47-2.52-7.17,2.47-3,.74-4.91,1.27-4.7,1-11.72a8.5,8.5,0,0,0-7.12-8.47c-.65,0,2.17-1.58-1.59-3.23s-7,1.26-7.94.58c-.32-.24-1.37-2-2.79-1.22A4.51,4.51,0,0,0,184.41,55s.21-.73-1.79-.32-2,1.58-2,1.58-.45,6.64-9.35,4.49-11.17,7-11.35,7.55-1.76.14-3,.16a1.67,1.67,0,0,0-1.61,2.35,5.21,5.21,0,0,0-2.51.59c-.62.57,0,1.32-.28,1.89s2.09,6.68-2.32,10.91-7.75,6.3-6,8.3c0,0-3.68,5.45.77,8.66s3.4,8.36,5.11,10.5,6.26,6,8.07,5.61,5.33-.5,6.67,2.45S172.65,128.1,178.37,126Z"/><path class="cls-18" d="M197.19,60.07c.65-.14,1.2-3.39-.29-3.37a2,2,0,0,0-2.13-2.47c-2.68,0-5,2-6.15,1.22s-.87-1.75-2.33-1.42A2.72,2.72,0,0,0,184.46,56s-1.3-1.67-2.83.23-.1,3.79-4.26,5-5.57-.21-8.78-.13-5.52,2.06-6.77,5.19-1.64,2.89-2.54,2.93-2.33-.51-3.13-.17.09,2.16.09,2.16-2-.68-2.87.13a1.32,1.32,0,0,0-.26,1.72s1.45,5.51-.18,8.72-7.68,7-8.13,8.17.93,1.73.93,1.73-2.54,3.23-.87,6.06,4.34,1.24,6.25,4.9.74,7,4.7,7,3.57-7.91,2.19-11.72,3.44-11.08,12.27-14.67,12.43-4.85,16.8-9.8S197.19,60.07,197.19,60.07Z"/><path class="cls-4" d="M164.83,119.69a84.76,84.76,0,0,1,1.74-9.46c1.36-5.61,3.6-12.63,13.42-26.5s12.56-15.49,16.64-21.3c0,0-8.86,10.28-11.47,13-2.91,3.06-10.85,12.33-14.08,17.4s-11,17.5-12,24.23C159.06,117.09,163.42,116.61,164.83,119.69Z"/><path class="cls-19" d="M164.83,119.69c-.23-.37.91-8.36,2.84-13.43s2.09-6.28,5-11.09,6.53-10.34,8.23-12.69,3.32-4.55,3.32-4.55l4.54-5.81a82.85,82.85,0,0,0-7.16,13.33c-2.55,6.47-8.26,17.74-7.23,21.58s4.18,4.84,6.09,2.9,1.7,1.7,3,3.84,4.8,4.53,2.78,7.7-8.66-.51-10-.47.3,4-2.13,3.9A11.64,11.64,0,0,1,164.83,119.69Z"/><path class="cls-4" d="M160.17,113.07c1-2.41,1.65-7.74.33-10.26s-8.2-6.9-9.14-13.31a17.37,17.37,0,0,0,3.89,6.57c2.92,3.06,5.35,4.54,6.51,7.37s.79,4.21.79,4.21a16.12,16.12,0,0,1-.77,3.36A9.17,9.17,0,0,1,160.17,113.07Z"/><path class="cls-4" d="M165,118.28a13,13,0,0,1,2.86-4.56c2.29-2.52,8.1-1.65,9.5,2.77s6.52,4.15,6.52,4.15-4.76-.28-6-4.56-6.15-5.64-9-4.68-3.19,2-3.19,2S163.09,116.61,165,118.28Z"/><path class="cls-4" d="M166.39,100.54a60,60,0,0,0,.12-7.65c-.21-4.08-7.29-7.13-8.21-13.14s.66-8.62.66-8.62-1.85,7.41,1,11.73,6.69,5.22,7.65,9.63.44,5.81.22,5.91A14.45,14.45,0,0,0,166.39,100.54Z"/><path class="cls-4" d="M175.51,87.18s-6.36-2.23-6.87-8.49a48.88,48.88,0,0,1,.94-12.79s-2.43,8.6-1.16,14.26,5.68,8.44,5.91,8.14S175,88.22,175.51,87.18Z"/><path class="cls-4" d="M181.49,79.56S176,71,179.93,64c0,0-2.88,3.38-1.22,10.77s2.16,6.27,2.16,6.27Z"/><path class="cls-4" d="M188.33,72.62s-3-6.5-.27-10.93c0,0-3.49,4-.54,11.18Z"/><path class="cls-4" d="M194.64,103.83S190,101,179.57,101.57s-11.74,4.2-11.74,4.2.16-3.42,1.52-4S186.27,98.17,194.64,103.83Z"/><path class="cls-4" d="M199.51,89.63s-3.42,4.54-12.25,4.35-12.79-1.92-12.79-1.92-.3-1.24.21-1.4.85-.3.85-.3,1.09,1.19,6.06,2.17S194.25,94.19,199.51,89.63Z"/><path class="cls-4" d="M199.33,78.15a14.48,14.48,0,0,0-9.12,4.08c-4.49,4.38-10.22,1.5-10.22,1.5s-.16-.76.89-1.25c0,0,1.74,1.39,5.69.42S194,77.26,199.33,78.15Z"/><path class="cls-4" d="M201.72,66s-3.8,6.67-11.5,4.35c0,0,.26-.89.92-1.09,0,0,1.24,1.35,4.05.84A10.15,10.15,0,0,0,201.72,66Z"/><path class="cls-17" d="M133.63,98c1.51-2,5.91-4.46,5.2-8.28s-9-4.89-7-9.92,9.61-4.48,10.1-7.39-2.93-4.49-4.3-5.15a3.75,3.75,0,0,1-2.13-4.71c.72-2.59,2.85-6.24,1.73-8.86s-5.24-2.88-5.77-4.48.42-3.73-2-4.35-1.43-4.46-5.28-10a8.18,8.18,0,0,0-10.18-3.13c-.51.37.94-2.41-3-1.78s-5,4.67-6.13,4.6c-.38,0-2.13-.88-2.89.47a4.44,4.44,0,0,0-.63,2.42s-.21-.7-1.61.67-.78,2.32-.78,2.32,3.1,5.6-5.21,8.5-5.38,11.5-5.24,12-1.35,1-2.37,1.71a1.6,1.6,0,0,0-.07,2.74s-1.52,1-1.72,1.79.64,1.09.75,1.68,5.18,4.3,3.82,10-3,9.14-.5,9.83c0,0-.14,6.33,5.14,6.61s7.1,5,9.6,5.81,8.21,1.61,9.45.34,4.06-3.19,6.67-1.5S130.1,102.62,133.63,98Z"/><path class="cls-18" d="M114.45,34.82c.46-.45-.79-3.36-2-2.57a1.87,1.87,0,0,0-3-.88c-2.16,1.41-3,4.22-4.34,4.19s-1.62-1-2.62.07a2.6,2.6,0,0,0-.48,2.51s-1.92-.67-2.17,1.66,1.9,3.12-.86,6.23-4.62,2.74-7.17,4.47-3.38,4.55-2.77,7.73.19,3.19-.52,3.7-2.15.79-2.62,1.49,1.2,1.69,1.2,1.69-2,.5-2.25,1.61a1.26,1.26,0,0,0,.69,1.52s4,3.7,4.4,7.15-2.53,9.71-2.31,10.85,1.66.91,1.66.91-.38,3.94,2.45,5.35,4.16-1.25,7.61.71,4.23,5.25,7.46,3.21-1.24-8.25-4.34-10.62-3-10.75,2.27-18.26,7.51-10.41,8.46-16.68S114.45,34.82,114.45,34.82Z"/><path class="cls-4" d="M119.39,99.91a81.78,81.78,0,0,1-3.52-8.56c-1.83-5.24-3.68-12.09-3-28.43S115,43.85,115.24,37c0,0-1.81,12.93-2.48,16.52-.76,4-2.35,15.63-2.3,21.41s.24,19.88,2.91,25.86C113.37,100.81,116.65,98.14,119.39,99.91Z"/><path class="cls-19" d="M119.39,99.91c-.38-.18-3.62-7.24-4.7-12.34S113.1,81.4,112.92,76s-.11-11.77,0-14.55.31-5.41.31-5.41l.64-7.07a79.9,79.9,0,0,0,1.16,14.52c1.32,6.56,2.58,18.64,5.42,21.21s5.9,1.74,6.44-.83,2.26.49,4.42,1.54,6.24,1.16,6.27,4.77-7.28,4.11-8.32,4.83,2.31,3.06.31,4.27A11.25,11.25,0,0,1,119.39,99.91Z"/><path class="cls-4" d="M112.18,97c-.48-2.45-2.71-7.12-5.09-8.46s-10.23-1.31-14.33-6a16.62,16.62,0,0,0,6.57,3.29c4,1,6.69.87,9.11,2.55s2.83,3,2.83,3a15.77,15.77,0,0,1,1.13,3.12A8.77,8.77,0,0,1,112.18,97Z"/><path class="cls-16" d="M118.81,98.67a12.37,12.37,0,0,1-.07-5.18c.53-3.23,5.69-5.55,9.13-2.72s7.43,0,7.43,0-4,2.26-7.2-.58-7.91-1.35-9.71.91-1.53,3.29-1.53,3.29S116.38,98.32,118.81,98.67Z"/><path class="cls-4" d="M110.67,83.61a59.94,59.94,0,0,0-3.9-6.25c-2.3-3.19-9.61-2-13.49-6.34s-4-7.31-4-7.31,2.37,6.95,6.92,9,8.13.74,11.21,3.8,3.38,4.47,3.25,4.66A14.42,14.42,0,0,0,110.67,83.61Z"/><path class="cls-4" d="M111.07,68.05s-6.3,1.52-10-3.28a47.08,47.08,0,0,1-5.91-10.83s2.52,8.22,6.5,12.14,9,3.86,9,3.49S111.2,69.16,111.07,68.05Z"/><path class="cls-4" d="M111.93,58.77s-8.88-4.08-9.35-11.73c0,0-.58,4.23,4.63,9.34s5,3.94,5,3.94Z"/><path class="cls-4" d="M113.84,49.59S108,45.9,107.92,40.9c0,0-.74,5,5.39,9.32Z"/><path class="cls-16" d="M135.23,71.53s-5.28.12-13.37,6-7.3,9.52-7.3,9.52-1.65-2.84-.86-4S125.5,71.32,135.23,71.53Z"/><path class="cls-4" d="M131.75,57.51s-.39,5.46-7.64,9.91-11.33,5.12-11.33,5.12-.9-.84-.56-1.24.52-.69.52-.69,1.5.39,6-1.4S129.88,64,131.75,57.51Z"/><path class="cls-16" d="M125.62,48.32a14,14,0,0,0-5.25,8.06c-1.35,5.88-7.48,6.54-7.48,6.54s-.52-.53.07-1.47c0,0,2.13.22,4.82-2.63S120.84,50.39,125.62,48.32Z"/><path class="cls-4" d="M121.21,37.24s.4,7.38-7,9.52a1.66,1.66,0,0,1,.18-1.36s1.7.44,3.7-1.43A9.8,9.8,0,0,0,121.21,37.24Z"/><path class="cls-4" d="M112.93,101.7A78.92,78.92,0,0,1,111,88.64c-.34-5.32-.46-8.63-.46-8.63s7.53,16.17,10.32,20.89c0,0-.83-1.22-4-1.18S112.93,101.7,112.93,101.7Z"/><path class="cls-17" d="M94.8,114.22c2.74,1.29,3.1.28,2.7-.56s.51-1.07,1.58-1,4-.93,4.13-4.8-2.7-3.33-3.14-6,4.42-3.54,4.17-6.45,1.31-8.64-3.57-12-7,.56-7,.56-.88-1.12-1.78-1-2,2.24-2.8,2,3.5-6.22.2-10.5a7.87,7.87,0,0,0-8-3.26c-.49.13.1-2-.78-2.77A5.08,5.08,0,0,0,77,67.53c-.35.2,0-8.22-6.8-9.45s-8.49-.16-10.53-2-4.42-1.74-5.38-.37c0,0,0-.9-1.43-1.08s-1.73,1.95-1.73,1.95-.88.85-3.07-.16-2.5-3.23-7-2.62-8.82,6-7,8,2.65,2.45,1.12,3-.94,2-.12,2.7A2.88,2.88,0,0,1,35,71.92c-1.9,1.49-7.1,6.16-4.77,11s5.66,3.9,5.66,3.9-2.08.72-1.77,2.18,2.67,1.29,2.67,1.29a2.92,2.92,0,0,1,.07,3.65c-1.35,2.2-1.91,2.74-1.25,4.28s1.6,2.93,2.65,2.39,1.45-.11,2.13.53a2.26,2.26,0,0,0,2.83.33c1.11-.67,1.54-1.08,1.64.79s-3.5,2.28-3.73,3.8,3.19,2.93,4.64,2.8,1.62,2.17.75,4.22-2.16,4.57-1,5.49a4.4,4.4,0,0,0,3,.61s-1.77,2,1.18,3.34,6.6-1.81,6.6-1.81,0,1.73,2.33.6,1.95-.69,1.95-.69-.44,2.93,5.66,3.18,5.89-3.69,5.89-3.69a2.51,2.51,0,0,0,3.16.68c1.89-1,2-1.76,2-1.76s-2.3,4.59-.18,5.63,4.39,2.05,5.31.48,1.66-.18,3.21-1.46.41-3.58,1.62-5.29,4.39.3,4.6-.57S94.8,114.22,94.8,114.22Z"/><path class="cls-18" d="M97,108.69c.44-2.91,6.13-.24,4.29-3.09s-4.09-3.4-2.17-6.17,3-1.64,3.69-4.52,1.29-9-3.14-11.3-6.52,2.76-6.52,2.76-.08-2.4-2-1.84-2.09,3.55-4.37,2.55,3.19-5.36,1.8-10-9.57-3.24-9.57-3.24,2.44-2.83,0-4.1a5.34,5.34,0,0,0-4.49-.31s2-3.45,0-6.5-3.91-3.84-9.26-4-6-2.64-8.05-3a3.37,3.37,0,0,0-3.19,1.2s-.54-1.89-1.5-1.49.84,1-1.86,1.9-4.32-1.74-7.15-2.69-7.7,1.56-7.82,3.54,12,16,20.26,17S68.08,78,69.76,82s6.13,18.82,13.1,24.65S96.67,110.93,97,108.69Z"/><path class="cls-4" d="M94.8,114.22S85,109.09,75.93,97,65.73,78.74,56.3,70s-18.81-9.19-18.81-9.19A39.77,39.77,0,0,1,57.38,74C66,84.57,70.06,95.53,72.71,100.87s17.5,19.82,17.5,19.82Z"/><path class="cls-17" d="M86.56,134.68c2.43,1.43,1.84,2.24,1,2.37s-.57.95,0,1.76,1.39,3.6-1.54,5.69-4-.35-6.26.7-.44,5.25-2.81,6.57-6,5.51-11.15,3.52-3.23-5.7-3.23-5.7-1.32-.1-1.69-.85.66-2.75.09-3.22-3,5.94-8,5.62a7.33,7.33,0,0,1-6.69-4.48c-.15-.45-1.48,1.11-2.54.84a4.73,4.73,0,0,1-2.43-2.22c0-.37-6.33,4.29-10.83-.32s-4.54-6.47-7-7.08-3.64-2.51-3.09-3.95c0,0-.68.48-1.58-.54s.61-2.35.61-2.35.19-1.12-1.73-2.29-3.78-.24-5.66-4,.05-9.93,2.56-9.57,3.27.76,2.88-.69,1.05-1.76,2-1.5a2.68,2.68,0,0,0,3.36-2.36c.16-2.23,1.05-8.67,6-9.38s6,2.33,6,2.33-.53-2,.76-2.5,2.39,1.39,2.39,1.39a2.73,2.73,0,0,0,2.85-1.85c1-2.19,1.11-2.9,2.64-3.19s3.09-.29,3.23.79.67,1.18,1.51,1.37a2.11,2.11,0,0,1,1.73,2c.06,1.21,0,1.75,1.46.86s-.06-3.89,1-4.86,3.92.93,4.58,2.12,2.51.12,3.64-1.61,2.4-4,3.72-3.64a4.06,4.06,0,0,1,2,2s.6-2.39,3.19-.83,2,6,2,6,1.31-.93,1.68,1.49.48,1.86.48,1.86,2-1.86,5.4,2.71.22,6.46.22,6.46a2.33,2.33,0,0,1,2.17,2.08c.21,2-.29,2.49-.29,2.49s2.34-4.16,4.24-3.07,3.87,2.31,3.14,3.85.73,1.37.54,3.23-2.55,2.18-3.23,4,2.52,3.23,1.95,3.85S86.56,134.68,86.56,134.68Z"/><path class="cls-4" d="M93.71,92s4.42,6.58,1.72,12.62-.63,9.58-.63,9.58a10.46,10.46,0,0,1-3.28-1.86,15.4,15.4,0,0,1,1.92-7.78C95.55,101.28,96.39,98.51,93.71,92Z"/><path class="cls-4" d="M86.23,78.2A22.94,22.94,0,0,0,83.47,93a85.53,85.53,0,0,0,4.26,16.34,3.87,3.87,0,0,1-3.31-2.4C83.47,104.58,79.14,88.65,86.23,78.2Z"/><path class="cls-4" d="M75.89,70.26s1.93,5.45-.48,9a15.38,15.38,0,0,0-1,15.52,8.58,8.58,0,0,1-3.4-5c-.84-3.44,2-8,3.85-10.5S76.34,73.9,75.89,70.26Z"/><path class="cls-4" d="M65.39,60.49s2.13,3,1.85,8.61S64.48,76,65.08,80.39c0,0-1.71.14-2.44-3.45,0,0,2.08-1.75,3.5-7A14.36,14.36,0,0,0,65.39,60.49Z"/><path class="cls-4" d="M51.85,59.11a10.57,10.57,0,0,1,5.53,4.6c1.89,3.46.49,7.81.49,7.81s-.95-.06-1.95-1.85c0,0,1.88-1.33,1-4.91S51.85,59.11,51.85,59.11Z"/><path class="cls-4" d="M68.25,91.33a16.85,16.85,0,0,0-9.35-6.64c-6.45-1.85-13.9,3-18.55,1.64s-4.61-2.72-4.61-2.72a8.33,8.33,0,0,0,5,3.86c3.37.82,12.62-3.54,17.23-2.06s11.84,9.13,11.77,9A33.72,33.72,0,0,0,68.25,91.33Z"/><path class="cls-4" d="M58.37,75.23s-2.87-3.44-9.69-4.41-11.13,1.57-11.19,1.61,6.23-2.54,11-.91,12.4,7.13,12.4,7.13S59.92,77.15,58.37,75.23Z"/><path class="cls-18" d="M85,126.36a17.62,17.62,0,0,0,2.75-2.66c.93-1.27-.75-1.3-.63-2.53s1.32-1.35.12-3.06a3.07,3.07,0,0,0-3.85-.82c-.45.3-2.34,2.83-2.82,2.92s.9-2.65,0-4.09a2.36,2.36,0,0,0-2.61-.93s2.7-1.53.9-5.2a5.42,5.42,0,0,0-5.77-2.88s-1.27-1.93-1.08-3-.06-2-.73-1.8-.3-3.49-1.74-5-3.73.51-3.73.51-.42-1.8-1.92-1.74-2.7,4.71-5.47,4.76-5-3.84-5.47-2.2,1.5,4.47-2.16,5.07-1.68-3.3-3-3.43-2,.25-2.16-1-2.22-1.36-3-.68-.9,2.54-2,3.41a6,6,0,0,1-2.7,1s-.85-1.49-1.63-1-.54,2.14-.54,2.14-3-2.89-6.09-2.14-5,5-5,8.61-1.5,4.32-3.12,3.67-2.8-1.38-3.43-.64,1.44,1.8.9,2.16-4-.54-4.75-.3-3.24,1.32-1.68,3.49,10.76,2.76,14-.18,6-8.48,8.05-7.94,2.52,4.7,6.49,4.37,14.55-5.52,16.17-3S82.55,122.83,85,126.36Z"/><path class="cls-19" d="M86.56,134.68s1.31,1.22.43,1.9-2.32,1.44-1.48,3.08,1.44,2.65-.72,3.29-5.57.12-6.65,1.12.44,4.6-.69,6.17-3,1.49-4.88,3.07-6.33,2.74-8.06.7a4.47,4.47,0,0,1-.64-4.61c.12-.48-2.48.72-2.4-1.48s.52-3.77-.6-4.25-2.18,5.09-5.44,5.93a4.48,4.48,0,0,1-5.4-5.49c.74-3.4,2.74-6.32,2.74-6.85s-.31.61-2.58-.86.7-3.87.62-4.83,1.44-3.44-4.57-4.09S27.73,126.2,23,120.87a41.93,41.93,0,0,0,16.79,2.61c10.1-.34,22-3.17,34.46,2.42S86.56,134.68,86.56,134.68Z"/><path class="cls-4" d="M87.82,130.61s-4.23-4.81-14.73-7.94-25.37,0-35.6,0S23,120.87,23,120.87A28.09,28.09,0,0,0,37.49,124c8.47-.39,16.88-1.9,27-.45s20.56,9,22.09,11.1A36.19,36.19,0,0,0,87.82,130.61Z"/><path class="cls-4" d="M82.56,118.32s3.06,5.28,2.45,9.88c0,0-2.42.3-2-1.32C83.09,126.46,84.42,124.87,82.56,118.32Z"/><path class="cls-4" d="M85.56,133.51s-5.44-1.32-8.46,2.74-.17,11-6.87,13.17c0,0,3.38-2.06,3.85-7.27s3.33-11.49,8.21-11.16S85.56,133.51,85.56,133.51Z"/><path class="cls-4" d="M74.22,126.48a21.46,21.46,0,0,0-13.82,4.07c-6.51,4.85-8.64,14.68-8.64,14.68a26.36,26.36,0,0,1,3.86-10.79c3.42-5.38,8.61-9.11,16.09-9.32S74.22,126.48,74.22,126.48Z"/><path class="cls-4" d="M70.23,122.25s1.72-4.11-2.78-10.08a36.73,36.73,0,0,0-10.72-9.28s7.11,4.9,10,9.67a11.29,11.29,0,0,1,1.24,9.11S68.4,122.67,70.23,122.25Z"/><path class="cls-4" d="M54.6,122.78s-11.31.67-13.21,6.91,1.13,11.27-5.74,14.59A8.39,8.39,0,0,0,40,137.81c.36-4.48-.57-8.36,2.55-11.91S54.6,122.78,54.6,122.78Z"/><path class="cls-4" d="M33.88,124a9.12,9.12,0,0,1-7.51,5.21c-5.53.42-7.94-2-7.94-2a7.22,7.22,0,0,0,7.72,1.47c4.84-1.71,6.29-5.07,6.29-5.07S33.69,122.85,33.88,124Z"/><path class="cls-4" d="M59.63,121.39a10.94,10.94,0,0,1-2.86-.63c-1.46-.52,1.63-2.65-.89-7.89s-11.14-3.55-14.31-7.67c0,0,0,1.36,3.08,2.9s9.12,2.48,10.25,5.45-.71,7.53-1.31,8.06S59.63,121.39,59.63,121.39Z"/><path class="cls-4" d="M44.24,122.35s1.89-2.41-.48-6-11.9-3.52-11.9-3.52,9.24.5,11,3.7-1.25,6.06-1.25,6.06A3.51,3.51,0,0,0,44.24,122.35Z"/><path class="cls-17" d="M162.7,107.55c2.14-2,7.71-3.94,7.67-8.48s-9.38-7.45-6-12.83,12-3.21,13.13-6.47S175,74,173.59,73a4.39,4.39,0,0,1-1.5-5.85c1.36-2.84,4.54-6.62,3.79-9.86s-5.44-4.38-5.74-6.33,1.24-4.21-1.38-5.41-.74-5.43-4-12.61a9.56,9.56,0,0,0-11.09-5.67c-.65.32,1.57-2.58-3-2.65s-6.71,4.36-8,4.06c-.44-.1-2.28-1.45-3.43,0A5.07,5.07,0,0,0,138,31.25s-.11-.85-2,.45-1.36,2.51-1.36,2.51S137,41.3,126.86,43s-8.53,12.15-8.48,12.78-1.77.92-3.07,1.49a1.87,1.87,0,0,0-.64,3.14s-2,.85-2.35,1.71.52,1.39.54,2.09,5.09,6,2.36,12.31-5.28,9.92-2.58,11.22c0,0-1.44,7.27,4.58,8.65s7.17,7.18,9.88,8.65,9.13,3.52,10.82,2.3,5.32-2.85,8-.37S157.68,112.22,162.7,107.55Z"/><path class="cls-18" d="M153.42,31c.62-.43-.23-4-1.77-3.37A2.19,2.19,0,0,0,148.37,26c-2.77,1.18-4.35,4.25-5.84,4s-1.68-1.44-3-.46a3.05,3.05,0,0,0-1.06,2.8s-2.07-1.16-2.84,1.47,1.56,4-2.24,7-5.88,2.21-9.17,3.7-4.82,4.54-4.76,8.33-.43,3.72-1.35,4.16-2.64.48-3.32,1.18,1,2.2,1,2.2-2.36.17-2.92,1.39a1.49,1.49,0,0,0,.48,1.9s3.92,5.08,3.62,9.11-4.88,10.68-4.85,12,1.72,1.38,1.72,1.38-1.24,4.46,1.74,6.66,5-.6,8.61,2.36,3.81,6.9,7.94,5.22.25-9.77-2.84-13.13-1.28-13,6.31-20.56,10.77-10.46,13.14-17.5S153.42,31,153.42,31Z"/><path class="cls-4" d="M145.91,106.92a94.07,94.07,0,0,1-2.33-10.58c-1-6.4-1.78-14.66,2.34-33.34s6.26-21.54,8-29.35c0,0-4.7,14.53-6.21,18.52-1.68,4.45-5.87,17.53-7,24.19s-3.75,23-1.89,30.38C138.79,106.74,143.1,104.33,145.91,106.92Z"/><path class="cls-19" d="M145.91,106.92c-.4-.28-2.71-9.07-2.92-15.17s-.58-7.42.31-13.67,2.26-13.58,3-16.75,1.46-6.17,1.46-6.17l2.17-8a93,93,0,0,0-1.61,16.95c.18,7.82-.81,22,1.93,25.53s6.45,3.2,7.59.35,2.5,1,4.78,2.67,6.95,2.61,6.25,6.77-9.21,3.25-10.56,3.87,2,4-.51,5A13.13,13.13,0,0,1,145.91,106.92Z"/><path class="cls-4" d="M138.19,102.08c-.05-2.92-1.67-8.74-4.14-10.78s-11.52-3.57-15.29-9.81a19.59,19.59,0,0,0,6.9,5.12c4.36,1.9,7.53,2.36,10,4.79s2.65,4,2.65,4a17.91,17.91,0,0,1,.67,3.82A10.34,10.34,0,0,1,138.19,102.08Z"/><path class="cls-4" d="M145.49,105.38a14.37,14.37,0,0,1,1-6c1.26-3.61,7.68-5.25,11.06-1.28s8.57,1.46,8.57,1.46-5.06,1.79-8.17-2.13-8.84-3.16-11.38-.93-2.43,3.48-2.43,3.48S142.76,104.48,145.49,105.38Z"/><path class="cls-4" d="M139.17,86.38a68.07,68.07,0,0,0-3.23-8c-2-4.14-10.66-4.2-14.25-10s-3.08-9.24-3.08-9.24,1.33,8.5,6.16,11.73,9.21,2.5,12.13,6.66,3,5.82,2.81,6A15.71,15.71,0,0,0,139.17,86.38Z"/><path class="cls-4" d="M142.78,68.54s-7.56.47-10.83-5.8a55.27,55.27,0,0,1-4.61-13.67s1.24,10,5,15.29,9.58,6.27,9.68,5.86S142.7,69.84,142.78,68.54Z"/><path class="cls-4" d="M145.66,58s-9.4-6.5-8.39-15.41c0,0-1.52,4.76,3.43,11.69s5,5.57,5,5.57Z"/><path class="cls-4" d="M149.72,47.85s-5.95-5.43-5.05-11.22c0,0-1.88,5.65,4.31,11.83Z"/><path class="cls-4" d="M169.9,77.45s-6.1-.93-16.62,4.24-10.34,9.48-10.34,9.48-1.32-3.62-.17-4.81S158.74,75.24,169.9,77.45Z"/><path class="cls-4" d="M168.74,60.6s-1.56,6.2-10.8,9.86-14.1,3.59-14.1,3.59-.86-1.15-.39-1.54.74-.68.74-.68,1.65.76,7.23-.39S165.28,67.63,168.74,60.6Z"/><path class="cls-4" d="M163.54,48.78a16.26,16.26,0,0,0-7.67,8.2c-2.75,6.51-10,6-10,6s-.49-.71.38-1.67c0,0,2.41.67,6.08-2.06S157.62,50.18,163.54,48.78Z"/><path class="cls-4" d="M160.71,35.12s-1,8.58-10,9.53a1.93,1.93,0,0,1,.48-1.53s1.86.86,4.56-.89S160.41,37.41,160.71,35.12Z"/><path class="cls-4" d="M148.21,108.89c.38.27-4.82-10.83-5.24-19.14s-.19-9.74-.19-9.74-3.87,15-4.71,21.27-.59,7.61-.59,7.61S142.09,104.36,148.21,108.89Z"/><path class="cls-4" d="M106.12,126.36s-9-11.07-11-12-7.39-5-7.39-5,.76,9.09,2.48,11.37,14.36,17.19,14.36,17.19-9.32-11.81-11.19-14.65,12,11.1,12,11.1S95,122.62,94.16,120.69s7.43,7.32,7.43,7.32-4.85-6-4.66-7.14S106.12,126.36,106.12,126.36Z"/><path class="cls-4" d="M125,116.88l-4.45-16.51s-7.19-2.44-7.84,1c0,0,4.79,16.92,6.49,22.91,0,0-3.58-13.21-3.29-15s2.94,7.19,2.94,7.19-.89-5.2-1.14-6.7,2.51,4.12,2.51,4.12-1.51-8.24-.84-8.55,3.37,10.49,3.37,10.49l-.23-4.77S124.82,116.37,125,116.88Z"/><path class="cls-4" d="M151.14,124.9a69.47,69.47,0,0,0-3.41-17.41,10.46,10.46,0,0,0-5.92-1.81,4.36,4.36,0,0,0-4.33,3.21s1.54,11.6,1.41,17.58a31.19,31.19,0,0,0,.31-6.78c-.12-5,.88-5.27,1.36-4s.74,8.37.74,8.37-.09-11.49.43-12.3,1.17,3.5,1.91,8.3,1.06,6.69,1.06,6.69-1.25-16.18-.57-16.66,2.81,12.61,2.81,12.61-.49-11.82.42-12.14,2.34,12.82,2.34,12.82S150.66,121.72,151.14,124.9Z"/><path class="cls-4" d="M162.6,132.58s1.89-10.86,2.23-12.89-3.11-4.38-5.77-2.6c0,0-1.23,9.81-1.87,13.33,0,0,1.33-7.43,1.73-7.71s.14,3.49.14,3.49.66-4.49,1.38-4.77.2,5,.2,5,1.28-4.36,1.72-4.48-.4,7.14-.4,7.14S163.31,127.6,162.6,132.58Z"/><path class="cls-20" d="M194.7,63a40.38,40.38,0,0,0,2.72-3.77c.43-.88-1-1.6-1.36-1.4s1.12-1.24-.32-2.2-2.92,0-4.29.64-2.32.68-3.28-.16S186.92,54.76,186,55s-1.2,1.72-1.2,1.72a3.15,3.15,0,0,0-1.8-.64c-.76.12-1,1.92-1.72,3.36A5.6,5.6,0,0,1,177.47,62a5.41,5.41,0,0,1-2.21,0s-1.6,1.84-1.56,3.24,3.57-.84,4.93-1.64,1.86-.4,1.35,1.84,4,1.09,4.26-2.2,2.3-4.65,3.09-4.17,2.56,2.41,4.6,1.29A1.93,1.93,0,0,1,194.7,63Z"/><path class="cls-18" d="M197.62,59.51s4.25-1.22,5.81,2.18.06,10.8,0,13.38,1.69,3,1.51,3.67-2.35,1.42-2.47,3,2.89,4.19,2.95,6.56-4.57,5-6.55,6.53-2.51,5.71-1,7.09-8.18-3.31-4.21-6.61,8.59-4.09,8.77-6.56-2.51-2.58-4.56-.84-9.74-.54-5.18-4.68,7.4-4.89,7.4-5.21-4.45.15-5.77-.93,2-2.76,2.76-3.18-.56-1.2.44-2.16,2.87-.18,3.47-2.65-.36-3.32-2.34-3.13-2-5.13-2-5.13Z"/><path class="cls-18" d="M153.13,29.78s0-2,4-1.59,5.42,2.24,7.65,7.87.95,9,2,9.92,2-.78,2.4,1.5-.24,3.7,1.21,5.55,6.12,2.45,5.07,6.27-3.81,5.79-5.13,8.68,1,4.69,2.46,6.49,3.85,2.52,2.82,4.84-5,.33-8.23,1.83-4.35,5.71-4.35,5.71-2-5.11,2.55-7.21S171,77.36,170.38,76s-4.25.54-6.78-1.32.55-4.21,1.2-4.69-.79-1.44.41-2.34,4.87-5.29,5.35-6.55-2.65-2.17-4.15.06-2.1,4.25-5.35,4.86-2.4-7-1.26-8.48S157.87,55,159.38,53s5.35-3.7,6.13-4-1.44-3-4.51-1.47-8.22,9.9-9.64,6.37,2.37-5.65,3-6-1.06-1.5,1.3-3.06,5.67-3.73,5.73-7.39-2.46-3.4-2.64-2.39-.61,4-2.41,4.25-1.68-4.27-1.68-4.93-1.06-2-2.18.68S153.13,29.78,153.13,29.78Z"/><path class="cls-20" d="M168.53,47.66c-.16-.62-.24.16-2-1s-.91-3.07-1.84-8.09-3-7.91-4.41-8.83-4.37-1.15-5-.23-.31,0-1.16-.16S153,30.79,152.46,31s1.13-1.8,0-2.32a1.41,1.41,0,0,0-1.78.6s.4-2.26-1-2.76-3.32,1.64-3.94,2.76a4.06,4.06,0,0,1-3.05,2.09c-1-.05-1.93-1.53-2.73-1.29s-1.24,2-.76,3.13c0,0-2.12-1.4-3,.08s1.42,2,.77,4.49-4.8,4.34-5.3,4.36.08,3.57,3,1.41,2.33-4,3.61-3.21,2.48.6,2.12-1.76.89-4.93,1.73-4.17,1.5,2.08,2.35-.12,3.3-2.19,2.94-.59-1.57,5.2.64,5,2.72-3.49,3.6-4.45.08.4,1.33-.2.92-2.28,2-1.88-1.4,4.4.62,4.12,1-4,2-4.4,1.37.78,2.37,1.85,1.48,0,2,.91-.72,1.8-.36,3,2.24,1.52,1.48,2.56-4.28,1.92-4.32,3.21,1.2,1.48-.36,2.88-1.41,3,.12,2.2,1.72-3,3.64-2.8,1.16,1.32,2.41,1.68,2.48-.52,2.32.72S168.89,49.08,168.53,47.66Z"/><path class="cls-18" d="M114.55,34a3.66,3.66,0,0,1,3.69-2c2.82.12,5.81,3.11,7,5.59A41.11,41.11,0,0,1,127,42s-.72-.94-3.4.55-2.82-1.11-1.86-2.19l1-1.08s1.54-1.82.69-2.26-.51,1.3-1.41-.66l-.9-2a1.75,1.75,0,0,0-1.41,0c-.69.33.15.84.15,3.58s-1.11,4-2.35,3.54-1.47-2.28-.87-3.27-.39-2.5-1.17-2.41-1.3,5.5-1.3,5.5-1.64-3.81-1.07-5.56S114.55,34,114.55,34Z"/><path class="cls-20" d="M125.66,39.31c.19-.16-2.5-5.29-5.17-6.28s-4.69-.39-5.44,1-1.29-.93-2-1.14a.7.7,0,0,0-.92.45s-.82-1.92-1.67-1.77-1,1-2.4,3.15-2.47,1.47-3.19,1.17-2-.72-2.3.45,1.55,1.9,1.55,1.9a5.51,5.51,0,0,0-1.74.42c-1.11.42.56,1.35.19,1.53s-2-.51-2.06.33.79,1.86.22,4a7,7,0,0,1-3.52,3.86c-.63.22-.21,1.88,1.35,1.25s1.77-2.89,3-3.34,1.71,1,2.34-1-1.93-2.89-1.31-3.58,2.93,1,3.44-.51-.75-1.74-.51-2.52,3.16.75,4.18-.3,1.52-3.64,2.55-3.07,1.33,3.47,1.75,2.35.39-3.46,2.25-3.25,1.26,3.86,2,2.86-.06-3,1.15-3.1,2.72,1.65,3,2.13.57,0,.69-.12,1.15.75.79,2.05A1.06,1.06,0,0,0,125.66,39.31Z"/><path class="cls-18" d="M35.81,58s-1.63,1-.07,3.07,1.77,3.48.92,3.76-2.11.36-1.6,1.25,2.65,1,2.77,2,.64,3.61-1.73,5-5.25,4.61-4.61,7,4.45,3.21,7.74,2.45,1.88-5.54-1.12-5.62,2.2-1.32,2.64-3-4.29-.68-4-1a7.88,7.88,0,0,1,2.49-2.17c1.32-.56,8.81-.12,8.93-.64s-4.6-4.77-6.89-6.77-4.89-3.69-4.65-5.05S35.81,58,35.81,58Z"/><path class="cls-18" d="M12,117.82a10.8,10.8,0,0,0,.86,6.08c1.44,2.78,3.85,4,4.43,3.87s3.15,1.66,2.89,2.6-2.21,2-.87,2.56a2.57,2.57,0,0,0,2.75-.62,2.59,2.59,0,0,0-.24,3.57c1.5,2.2,4.89,1,6.77,2.36s-.88,4.91,2.94,4.93,5.75-1.94,5.21-4.19-3.3-5.77-5.65-5.61.36-2-1.7-3-3.26-.44-4.91-.26-3.35-.84-3.11-1.39,3.78.76,4.2-1.14-5.1-3.93-5.22-4.9,3-2.23,3-2.23Z"/><path class="cls-20" d="M72.47,68.92c1.37.19,1.93-1.51,1.92-3.9s-3.67-4.67-5.83-4.91a44,44,0,0,1-6.76-1.3c-1.93-.57-3.12-2.37-5-2.4A2.38,2.38,0,0,0,54.4,58s-.75-1.71-1.56-1.23-.33,2.34-4.39,1.68-4.2-3.18-6.79-3.3-5.59,2.58-5.92,3.75,1.47,2.5,2,4-.27,2.25-1.09,2.39-.66,1.16.81,1.34,1.27,2.49,1.15,3.36,1.77.6,1.77-1.14-2.31-2.34-1.95-2.82,1.15.72,1.36-1.12-2.26-3.9-2.48-4.77,1.15.3,2.86,0,.9-1.75,1.71-1.78,4.08,4.21,7.28,4.9,2.73-2.84,3.45-2.8,1,3.49,1.77,3.19-1.2-4.24-1.2-4.24,4,.94,5.17,2.83,1.86,1.23,3.73-.15,2.55,2.31,3.69,2.88-.36-4-.36-4a5.2,5.2,0,0,1,2.92,3.54c.54,2.59,2.82,1.17,3.61,1.78S69.94,68.56,72.47,68.92Z"/><path class="cls-20" d="M35.74,74s-3,2-3.3,4.24,1.77,3.66,2.79,3.27-1-1.8-1.14-2.37,1.53.69,1.92-.6-2-2-1.35-2.38S37,74.11,35.74,74Z"/><path class="cls-20" d="M76.17,114.54c1.78,0,2.13-2.28,1.61-4.05s-3.41-2.88-4.41-2.48-1.65-.76-2-2.09.79-1.76.2-2.8-1.4.68-1.4.68.64-5-1-6-3.29,1.36-3.29,1.36-1-1.88-1.76-1.8-1,4.29-4.89,4.21-4.65-2.85-5.41-2.41.28,2.17-.36,4-4.12,2.28-5.24.68.11-2.56-.69-2.84-1.77.44-2.57.2,1-1.41-.51-2.17-1.89,1.61-2.49,2.69-3.28,2.2-3.54,2.2-1.43-1.19-1.87-1-.56,2-.56,2-2.82-2.52-5.33-2.32-4.48,3.53-4.24,7-1.61,6.08-4,5.75-3.57-2-3.93-1.08.68,1.9,1.77,2.5,4.2,2.09,6-.48,1.08-6.39,2.08-6.94,1.32,2.49,2.72-.31.61-5.29,2.09-3.29,1,4.33,2.88,3a3.49,3.49,0,0,0,1.61-3.09s.2,2.73,1.76,1.49.08-2.17,1.6-2.69,1.28,1.2,2.85,1.16,1.72-1.76,1.72-1.76S44.32,108,47,107.51s1.81-2,3.19-1.18.7,2.76,2.7,2.72,3.44-2.8,2.54-4.29.59,2.81,2.67,1,1.84-2.83,1.84-2.83,1.85,3.36,3.41,1.43a26.73,26.73,0,0,1,2.4-2.68s-1.51,2.88.39,2.76,1.38.24,1.34,1.52.76,4.63,1.84,3.4,1.23.72,1.24,1.37,2.42,1.56,3.15.54S74,114.54,76.17,114.54Z"/><path class="cls-20" d="M18.61,116.69s-2.85-1-4.87-.33-.93,5.85,0,6,2.11.74,1.63,1.83-.63,2.91,1,2.76,2.64-.6,2.76.15,1,1.59,1.48.51-1.51-2.76-2.65-3.57-.48-3,.84-4-2.48-2.34-2.14-2.77,5.65,2.09,8,.28-2.08-.46-3.73-1.69A10,10,0,0,1,18.8,114S16.87,114.5,18.61,116.69Z"/><path class="cls-4" d="M93.91,136.83a44.92,44.92,0,0,0-7.32-7.66c-4.93-4.21-12.86-6.4-12.86-6.4s11.92,10.53,12.83,11.91c0,0,1.53.51,1.66,1.72S92.88,142,92.88,142s-3-3.76-2.84-4.69,3.44,2.8,3.44,2.8-3.59-4.48-2.47-4.48A7.21,7.21,0,0,1,93.91,136.83Z"/><path class="cls-3" d="M293.49,221.94l-1,9.78S278.57,251,249.23,250.21s-39.89-15.51-39.89-15.51l-1.22-12Z"/><path class="cls-4" d="M232.54,244.44a11.65,11.65,0,0,0,5.06,4.63s-19.72-3.16-28.26-14.37l-1.11-11Z"/><path class="cls-5" d="M215.53,236.09a7.45,7.45,0,0,0,2.87,6.1s-5.8-2.6-9.06-7.49l-1.11-11.35Z"/><path class="cls-7" d="M293.49,221.19l-1,10.53a54.24,54.24,0,0,1-18,13.6C263.75,250,260.27,244,260.27,244Z"/><path class="cls-21" d="M253.2,199.54c31.48-2.83,40.2,13.25,40.44,20.86s-16.3,25.79-46.78,25.74-40.59-17.4-38.52-24.61S223,202.27,253.2,199.54Z"/><path class="cls-22" d="M252.89,200.44c29.73-2.68,38,12.5,38.19,19.69s-15.4,24.35-44.17,24.31S208.58,228,210.53,221.2,224.37,203,252.89,200.44Z"/><path class="cls-23" d="M253.08,201.3c28.08-2.53,35.86,11.82,36.08,18.61s-14.55,23-41.73,23-36.23-15.52-34.38-22S226.13,203.73,253.08,201.3Z"/><path class="cls-22" d="M252.92,203.53c23.43-2.11,29.92,9.86,30.09,15.52s-12.13,19.19-34.8,19.16-30.21-13-28.67-18.32S230.44,205.56,252.92,203.53Z"/><path class="cls-23" d="M253.33,205c21.33-1.93,27.24,9,27.4,14.13s-11,17.47-31.69,17.44-27.51-11.79-26.11-16.68S232.86,206.83,253.33,205Z"/><path class="cls-22" d="M254.14,207.57c16.55-1.49,21.14,7,21.26,11s-8.57,13.56-24.59,13.53-21.35-9.15-20.26-12.94S238.26,209,254.14,207.57Z"/><path class="cls-23" d="M254.67,208.77c14.77-1.33,18.87,6.22,19,9.79s-7.65,12.1-21.95,12.08-19-8.17-18.08-11.55S240.5,210.05,254.67,208.77Z"/><path class="cls-22" d="M253.69,211.74c10.16-.92,13,4.27,13.05,6.73s-5.26,8.32-15.1,8.31-13.1-5.62-12.43-7.95S243.94,212.62,253.69,211.74Z"/><path class="cls-23" d="M253.77,213.1c8.27-.74,10.56,3.49,10.63,5.49s-4.29,6.77-12.3,6.76-10.67-4.57-10.12-6.47S245.83,213.82,253.77,213.1Z"/><path class="cls-22" d="M252.34,216.24c3.35-.31,4.27,1.41,4.3,2.22s-1.73,2.74-5,2.73-4.31-1.85-4.09-2.62S249.13,216.53,252.34,216.24Z"/><path class="cls-3" d="M297.66,215.94l-1,9.79S282.74,245,253.4,244.21s-39.89-15.51-39.89-15.51l-1.21-12Z"/><path class="cls-4" d="M236.72,238.44a11.58,11.58,0,0,0,5.05,4.64s-19.72-3.17-28.26-14.38l-1.11-11Z"/><path class="cls-5" d="M219.7,230.09a7.48,7.48,0,0,0,2.87,6.11s-5.8-2.61-9.06-7.5l-1.11-11.34Z"/><path class="cls-7" d="M297.66,215.2l-1,10.53a54.31,54.31,0,0,1-18,13.59C267.92,244,264.44,238,264.44,238Z"/><path class="cls-21" d="M257.37,193.55c31.48-2.84,40.2,13.24,40.44,20.86s-16.3,25.78-46.77,25.73-40.6-17.4-38.53-24.61S227.16,196.27,257.37,193.55Z"/><path class="cls-22" d="M257.06,194.44c29.73-2.68,38,12.51,38.19,19.69s-15.39,24.35-44.17,24.31S212.75,222,214.71,215.2,228.54,197,257.06,194.44Z"/><path class="cls-23" d="M257.25,195.3c28.08-2.53,35.86,11.82,36.08,18.61s-14.55,23-41.73,23-36.22-15.52-34.37-22S230.3,197.73,257.25,195.3Z"/><path class="cls-22" d="M257.09,197.54c23.43-2.12,29.92,9.85,30.1,15.52s-12.13,19.18-34.81,19.15-30.21-13-28.67-18.31S234.62,199.56,257.09,197.54Z"/><path class="cls-23" d="M257.5,199c21.33-1.92,27.24,9,27.4,14.13s-11,17.47-31.69,17.44-27.51-11.79-26.1-16.67S237,200.83,257.5,199Z"/><path class="cls-22" d="M258.31,201.57c16.55-1.49,21.14,7,21.26,11S271,226.1,255,226.07s-21.34-9.14-20.25-12.94S242.43,203,258.31,201.57Z"/><path class="cls-23" d="M258.84,202.77c14.78-1.33,18.87,6.22,19,9.79s-7.65,12.1-21.95,12.08-19.05-8.17-18.08-11.55S244.67,204.05,258.84,202.77Z"/><path class="cls-22" d="M257.86,205.74c10.16-.91,13,4.28,13.05,6.73s-5.26,8.32-15.09,8.31-13.1-5.62-12.44-7.94S248.11,206.62,257.86,205.74Z"/><path class="cls-23" d="M257.94,207.11c8.27-.75,10.56,3.48,10.63,5.48s-4.29,6.78-12.3,6.76-10.67-4.57-10.12-6.47S250,207.82,257.94,207.11Z"/><path class="cls-22" d="M256.51,210.24c3.35-.3,4.28,1.41,4.3,2.22s-1.73,2.74-5,2.74-4.32-1.86-4.1-2.62S253.3,210.53,256.51,210.24Z"/><path class="cls-3" d="M306,201.08l-1,9.78s-13.95,19.27-43.28,18.49-39.9-15.51-39.9-15.51l-1.21-12Z"/><path class="cls-4" d="M245.06,223.58a11.58,11.58,0,0,0,5.06,4.63s-19.73-3.16-28.27-14.37l-1.11-11Z"/><path class="cls-5" d="M228.05,215.23a7.43,7.43,0,0,0,2.86,6.1s-5.8-2.6-9.06-7.49l-1.11-11.35Z"/><path class="cls-7" d="M306,200.33l-1,10.53a54.14,54.14,0,0,1-18,13.6c-10.76,4.72-14.23-1.28-14.23-1.28Z"/><path class="cls-21" d="M265.72,178.68c31.47-2.83,40.19,13.25,40.43,20.86s-16.3,25.79-46.77,25.74-40.6-17.4-38.52-24.61S235.51,181.41,265.72,178.68Z"/><path class="cls-22" d="M265.41,179.58c29.72-2.68,38,12.5,38.19,19.69s-15.4,24.35-44.17,24.31-38.34-16.44-36.38-23.24S236.89,182.15,265.41,179.58Z"/><path class="cls-23" d="M265.59,180.44c28.09-2.53,35.87,11.82,36.08,18.61s-14.54,23-41.73,23-36.22-15.52-34.37-22S238.64,182.87,265.59,180.44Z"/><path class="cls-22" d="M265.44,182.67c23.42-2.11,29.91,9.86,30.09,15.52s-12.13,19.19-34.81,19.16S230.51,204.4,232.06,199,243,184.7,265.44,182.67Z"/><path class="cls-23" d="M265.85,184.13c21.33-1.93,27.24,9,27.4,14.13s-11.05,17.47-31.7,17.44S234,203.91,235.45,199,245.38,186,265.85,184.13Z"/><path class="cls-22" d="M266.66,186.71c16.55-1.49,21.13,7,21.26,11s-8.57,13.56-24.59,13.53-21.35-9.15-20.26-12.94S250.77,188.14,266.66,186.71Z"/><path class="cls-23" d="M267.19,187.91c14.77-1.33,18.86,6.22,19,9.79s-7.65,12.1-21.95,12.08-19.06-8.17-18.08-11.55S253,189.19,267.19,187.91Z"/><path class="cls-22" d="M266.21,190.88c10.15-.92,13,4.27,13.05,6.73s-5.27,8.32-15.1,8.31-13.1-5.62-12.43-7.95S256.46,191.76,266.21,190.88Z"/><path class="cls-23" d="M266.28,192.24c8.28-.74,10.57,3.48,10.63,5.49s-4.28,6.77-12.29,6.76S254,199.92,254.49,198,258.34,193,266.28,192.24Z"/><path class="cls-22" d="M264.85,195.38c3.35-.31,4.28,1.41,4.31,2.21s-1.74,2.75-5,2.74-4.32-1.85-4.1-2.62S261.64,195.67,264.85,195.38Z"/></svg>