<svg id="Layer_53" data-name="Layer 53" xmlns="http://www.w3.org/2000/svg" viewBox="0 0 370 330"><defs><style>.cls-1{fill:#51872e;}.cls-2{opacity:0.3;}.cls-3{fill:#d9e021;}.cls-4{fill:#42210b;}.cls-5{fill:#4b1756;}.cls-6{fill:#652d72;}.cls-7{fill:#715399;}.cls-8{opacity:0.5;}.cls-9{fill:#191144;}.cls-10{opacity:0.4;}.cls-11{fill:#8e3f78;}.cls-12{fill:#662d91;}.cls-13{fill:#ce5b98;}.cls-14{opacity:0.1;}.cls-15{fill:#f9d006;}.cls-16{opacity:0.2;}.cls-17{fill:#fff;}.cls-18{opacity:0.7;}.cls-19{fill:#72166a;}.cls-20{fill:#4f1246;}.cls-21{fill:#542c12;}.cls-22{fill:#b8c950;}.cls-23{fill:#38701d;}.cls-24{fill:#cce87e;}.cls-25{fill:#345e1d;}.cls-26{fill:#529129;}.cls-27{fill:#f0f980;}</style></defs><g id="Layer_23" data-name="Layer 23"><path class="cls-1" d="M175.3,180c.08.06.18.09.25.15a3.14,3.14,0,0,0,.51.12Z"/><path class="cls-1" d="M196.18,179.94c-4-.52-7.74,1.83-11.72,2.35a13,13,0,0,1-8.92-2.14,5.29,5.29,0,0,1-3.43-3.14c-.74-1.64-1.1-3.46-2.11-5a8.3,8.3,0,0,0-6.2-3.38,14.37,14.37,0,0,0-7.07,1.47,22.88,22.88,0,0,0-11.87,13,.78.78,0,0,0,0,.71.31.31,0,0,0,.45,0l-.54,1.52,1.09.61-.18,1.19a2,2,0,0,1,2.19,1.28,4,4,0,0,1,2.83.27l-1.09.85c-1.9,1.48-3.87,3.05-4.77,5.29a13.54,13.54,0,0,0-.72,4.35q-.32,5.91-.65,11.8a1.22,1.22,0,0,1,.49,1.9l2.28-1.28.11,1.3a2.13,2.13,0,0,0,1.79-.39,2.32,2.32,0,0,0,2.6.73,6.88,6.88,0,0,0,2.4-1.6c.83,1.79-.93,3.69-1.14,5.66s1.29,3.9,2.6,5.54a44.42,44.42,0,0,1,8.09,15.8,2.19,2.19,0,0,1,1.65-1.77c.81-.27,1.69-.29,2.5-.57a10.1,10.1,0,0,0,3.45-2.71,22.57,22.57,0,0,1,7.66-5,9.78,9.78,0,0,0,7.85-11.06,22.06,22.06,0,0,0,11,6.45c.94.22,2.15.74,2,1.69a85.55,85.55,0,0,0,.4-13.39,1.15,1.15,0,0,1,1.06-.18c1.55-1.46-.06-5.09,2-5.67a2.42,2.42,0,0,1,1.38.13,14,14,0,0,1,6.7,4.52,3.58,3.58,0,0,1,1.43-3.47,103.24,103.24,0,0,0-2.16-13.77c0,.33.58.33.73,0a1.08,1.08,0,0,0-.11-.95A29.07,29.07,0,0,0,205,185.8C202.62,183.11,199.77,180.41,196.18,179.94Z"/><g class="cls-2"><path class="cls-3" d="M195.45,183a10.4,10.4,0,0,0-3-.28,32.08,32.08,0,0,0-10.57,2,1,1,0,0,0-.52.34c-.2.35.1.78.4,1.06,2.19,2,5.19,2.8,8.08,3.47,5.08,1.18,10.47,2.28,14.36,5.77a16.16,16.16,0,0,0-8.37-2.39,34.61,34.61,0,0,1,9.78,9.4l-7.36-5.87a41.81,41.81,0,0,1-3.21-2.74,10.55,10.55,0,0,0-1.54-1.37c-1.26-.81-2.84-.86-4.33-1.12a14.4,14.4,0,0,1-8.66-5.09c-.9,5.26,1.78,10.4,4.37,15.06L194,217.69c-3.22-3.05-5.43-7-7.58-10.87l-3.72-6.69a25.05,25.05,0,0,1-3.07-7.21,26.4,26.4,0,0,1-.3-4.95,3.76,3.76,0,0,0-1.81,2q-2,3.62-3.92,7.23a6.9,6.9,0,0,0-1,5.18,9.7,9.7,0,0,0,1.24,4.71,13,13,0,0,0,1.83,1.95,17.75,17.75,0,0,1,4.19,6.49l-6.43-7.12a5,5,0,0,1-1.26-1.93c-.29-1.09.18-2.32-.26-3.36a19.11,19.11,0,0,0-.21,7.68,17.4,17.4,0,0,1,.61,4.83,10.88,10.88,0,0,1-.68,2.56,47.15,47.15,0,0,1-7.94,13.78c1-3,3-5.65,4.27-8.59.5-1.18.87-2.39,1.25-3.61.75-2.42,1.5-5,1.05-7.44-2,1-3.25,3.07-4.57,4.9s-3.18,3.63-5.43,3.56c3.73-1.82,4.84-6.84,8.32-9.12a3.71,3.71,0,0,0,1.19-1,2.89,2.89,0,0,0,.27-1.52,26.87,26.87,0,0,1,1.15-9c1.47-4.21,4.68-7.72,5.66-12.07a44.44,44.44,0,0,0-5.43,4.33l2.43-1.72c-5.62,3.89-8.05,11-12.94,15.8-1.06,1-2.21,1.93-3.16,3a11.35,11.35,0,0,0-1.7,11.72c1,2.28,2.76,4.14,4.26,6.14s2.8,4.33,2.69,6.83c4.94-.07,7.83-6,12.59-7.3,1.38-.37,2.93-.37,4-1.26a5.69,5.69,0,0,0,1.62-2.85A41,41,0,0,0,182.8,216a4.52,4.52,0,0,1,.56-1.88,1.41,1.41,0,0,1,1.7-.58,2.27,2.27,0,0,1,.76.91,15.39,15.39,0,0,0,11.11,7.47c-.13-2.54-.25-5.08-.38-7.62a17,17,0,0,0-.61-4.51c-.58-1.86-1.79-3.62-1.63-5.56a1.64,1.64,0,0,1,.75-1.41,1.76,1.76,0,0,1,.94-.13,20.28,20.28,0,0,1,12.28,4.75L207,197.18a19.6,19.6,0,0,0-.93-4.44c-1.24-3.29-4.16-5.61-7-7.69A11.18,11.18,0,0,0,195.45,183Z"/></g><g class="cls-2"><path class="cls-3" d="M170.9,175.6a9.92,9.92,0,0,0-8.39-5.56,13.93,13.93,0,0,0-9.71,3.5,23.33,23.33,0,0,0-6,8.6l1.21.71-.78,1.31a8.74,8.74,0,0,0,4.28,2.51,2.06,2.06,0,0,1,1.27.61,1.31,1.31,0,0,1-.26,1.59,5.52,5.52,0,0,1-1.48.93,10.19,10.19,0,0,0-4.79,6.08,18.06,18.06,0,0,0-.42,7.88,14.24,14.24,0,0,1,.26,3,11.77,11.77,0,0,1-.49,2.43,1.55,1.55,0,0,1,2.75,1.32l2.19-.9c.69-.29,1.38-.57,2.06-.88a27.85,27.85,0,0,0,5.09-3,25.9,25.9,0,0,0,5.26-5.3c1.54-2.12,2.74-4.48,4.3-6.59a48,48,0,0,1,5.59-6,38,38,0,0,0-10.8,6.78,16.24,16.24,0,0,1-3.74,2.88c-.76.36-1.58.58-2.33,1-2.55,1.32-3.77,4.33-6.11,6a19.81,19.81,0,0,1,8.06-7.86c.92-.48,2.05-1.41,1.51-2.29-.33-.54-1.08-.57-1.72-.55-2.19.1-4.37.24-6.55.4a7.06,7.06,0,0,1,6.68-1.89,12.13,12.13,0,0,0,2.06.5,5.23,5.23,0,0,0,2.65-.7c3.48-1.74,6.5-4.94,10.39-5a15.25,15.25,0,0,1-3.74-3.05,10.76,10.76,0,0,0-1.95-2,7.49,7.49,0,0,0-2.26-.88,15.86,15.86,0,0,0-6.12-.56c-1.55.21-3,.78-4.58,1a5.05,5.05,0,0,1-4.36-1.17c3.69,1.15,7.69-2.11,11.37-1a5.9,5.9,0,0,0-7.17-3.49,3.68,3.68,0,0,1,3.86-1.54,5.51,5.51,0,0,1,3.45,2.58,6.6,6.6,0,0,0,1.25,1.73c.88.72,2.13.73,3.2,1.11a9.46,9.46,0,0,1,3.55,2.81,8.62,8.62,0,0,0,3.63,2.72c1.46.43,3.34-.16,3.79-1.62l-.13,0a9.39,9.39,0,0,1-3.36-2.11C171.91,180,171.77,177.58,170.9,175.6Z"/></g><path class="cls-4" d="M212.87,130.43c-.26,1.76,1.23,3.24,1.91,4.9a5.73,5.73,0,0,1-1,5.88,5.13,5.13,0,0,1-1.65,1.23,5.08,5.08,0,0,0-4.33-3.59,2.46,2.46,0,0,0-2.2,1,2.37,2.37,0,0,0,.07,2.36,4.72,4.72,0,0,0,4.21,2.33,5.29,5.29,0,0,0,.8-.09,8,8,0,0,1-2.91,6.43,6.56,6.56,0,0,1-1.2.76c-1.08-2.88-4.18-5-7.19-4.43-1.69.33-3.32,1.67-3.37,3.39a3.75,3.75,0,0,0,1.05,2.58,6.78,6.78,0,0,0,6.58,1.78,6.56,6.56,0,0,0,.94-.33,7.65,7.65,0,0,1-1.12,2.72,8.5,8.5,0,0,1-4.38,3.48,9.21,9.21,0,0,1-3.91.31c-3.08-.35-5.93-1.77-8.7-3.15l-6.82-3.42c-1.28-.65-2.67-1.39-3.27-2.69-.41-.88-.77-2.19-1.73-2s-.93,1.35-.77,2.22a65.78,65.78,0,0,0-5.18-14.73,1.16,1.16,0,0,0-.52-.61c-.46-.17-.9.3-1.17.72q-1.29,2-2.59,3.93a10.88,10.88,0,0,0-1.1,2,7.26,7.26,0,0,0,.73,6,15.36,15.36,0,0,0,2.2,2.88,16.89,16.89,0,0,0,4.22,4.43,36.19,36.19,0,0,1,7.92,9.59,18.65,18.65,0,0,1,2.53,6.93,9.48,9.48,0,0,1-1.8,7c-.32.38-.69.82-.59,1.3a1,1,0,0,0,1.37.58,2.57,2.57,0,0,0,1.17-1.18,15,15,0,0,0-.37-15.72c3.51,5.27,11.17,5.59,16.18,9.44a2.28,2.28,0,0,1,1,1.28c.17.93-.7,1.67-1.45,2.23-3.55,2.72-6.44,6.88-6,11.33,1.39-.74,1.6-2.6,2-4.13a11.56,11.56,0,0,1,5.64-7.38c.91-.49,2.16-.8,2.87,0a2.28,2.28,0,0,1,.49,1.23c.81,4.56-1.34,9.88,1.44,13.58.78-.36.9-1.4.92-2.27.07-5.07.06-10.45-2.66-14.73,1.88-1.4,4.52-.67,6.73.11l11.7,4.16a13.47,13.47,0,0,0-8.12-5.32,36.7,36.7,0,0,0-9.88-.68c.71-2.08,2.79-3.33,4.78-4.26a47.32,47.32,0,0,1,8.87-3.09c2-.48,4.15-.9,5.63-2.34a36.86,36.86,0,0,0-18.74,6.57,5.1,5.1,0,0,1-1.86,1,4.7,4.7,0,0,1-2.21-.3L193.21,170a24.84,24.84,0,0,1-5.28-2,22.29,22.29,0,0,1-3.84-3,77.3,77.3,0,0,1-8.73-9.63c3,1.47,5.86,3.28,8.85,4.83a27.78,27.78,0,0,0,9.49,3.25,13.46,13.46,0,0,0,9.58-2.25,9.16,9.16,0,0,0,3.72-7.88,14.08,14.08,0,0,0,2.56-2.31c1.71-1.94,3.06-4.37,2.94-6.95,0-.08,0-.15,0-.22a8.44,8.44,0,0,0,2-1.31,8.21,8.21,0,0,0,2.95-6.72A6.1,6.1,0,0,0,212.87,130.43Zm-14.24,20.39a1,1,0,0,1,.22-.51c1.33-1.71,4.36-1,5.39.88a3.73,3.73,0,0,1,.36,1.13,8,8,0,0,1-5.24-.62C199,151.52,198.61,151.23,198.63,150.82Zm9.48-7.86a1.85,1.85,0,0,1-1.26-.85c-.45-1,.83-2,1.84-1.69a3.08,3.08,0,0,1,1.83,2.38c0,.06,0,.12,0,.19A5.69,5.69,0,0,1,208.11,143Z"/><path class="cls-5" d="M264.38,164.24c.93-3.4,1.15-6.92-.61-9.31-5.21-7.06-14.84-11.05-22.21-4.79-7.95-6.68-27.74-7.21-27.32,11.74-.41,4.51,4.55,6.36,7.79,8.07a15.18,15.18,0,0,0-8.48,1.94s-11,9-.08,19a26.17,26.17,0,0,0,5.25,4.07,12.19,12.19,0,0,0-1.65.63c-3-4.88-12.59-8.37-12.59-8.37-4.45-1.12-7.59,1.17-9.29,5-1.87-2.78-4.4-4.5-7.39-4.19-4.26-3.17-11.21,8.88-11.76,12.91-.92,6.84,1.45,15.7,8.67,17.47-.57,10.86,12.95,24.56,23.69,19.75,4,8,16.79,15.34,23.83,9,3,11,23.08,15.3,26.13-.14,1.28-6.49-2.23-11.1-7.1-13.57a12.52,12.52,0,0,0,2.18-.42,22.09,22.09,0,0,0,7.4,8.25c-.15.42-.3.86-.42,1.33-4,9.44,22.56,29,32.16,12.13a10.49,10.49,0,0,0,1.05-3c4.26,6.2,11.9,9.89,18.47,4,8.95-8,2.29-20.64-6-24.82a16.09,16.09,0,0,0,3.13-6c2-6.81-1.3-12.21-6.44-15.38,6.45-7.3-8.24-22-18.42-22.25,2.53-1.87,4.3-4.9,4.68-9.29C290.15,164.76,274.23,160,264.38,164.24Zm28,71a10.52,10.52,0,0,0-2,5.61,22.26,22.26,0,0,0-5-4.2,19.37,19.37,0,0,0,.51-3.62,22.84,22.84,0,0,0,6.52,2.21Z"/><path class="cls-6" d="M197,214c3.48-6.66,1-16.79-3.45-22.3l2.5,2.62c.31-2.77-3.6-6.42-6.09-7-3.88-.95-7.12,2-9.28,4.82-4.37,5.73-5.44,15-1.26,21.18C183.28,219,193.36,221.05,197,214Z"/><path class="cls-6" d="M235.9,191.29c5.53-7.27,2-14.43-4.05-18.41a13.14,13.14,0,0,0,11.58-8.36c3.12-7.69-2.24-14.63-9.36-17-8.48-2.77-15,.21-18.92,8-.21,3.74-.74,7.15,1.82,10.43a17.76,17.76,0,0,0,4.28,3.72,10.66,10.66,0,0,0-8.39,4.05C201.29,181.19,223.2,208,235.9,191.29Z"/><path class="cls-7" d="M215.05,155.74a.93.93,0,0,0,.1-.2c0-.3,0-.61,0-.92Z"/><path class="cls-6" d="M277,163.88c-8-1.31-16.39.38-17.45,7.73l0-.55c-5.72,5,4.06,14.07,8.34,16.06,6.52,3,16.1-.07,19.33-6.68S283.69,165,277,163.88Z"/><path class="cls-6" d="M283.5,234.37c2.28-7.47-4.66-14.39-11-17.12a14.82,14.82,0,0,0-13.16,1.14c-1.5-6.19-8.06-10.75-14.25-10.88-7.56-.16-12.07,6-11.49,12.62-2.15,5.71,7.73,11.64,12,12.43a11.39,11.39,0,0,0,8.15-2,15.77,15.77,0,0,0,2.24,4,24.26,24.26,0,0,0,7.85,6C270.66,243.85,281,242.54,283.5,234.37Z"/><path class="cls-6" d="M273.11,193.82c-3.84,5.24-.75,10,2.09,14.94l-2.62-4.25c1,6.79,11.05,11.67,17.14,11.73,8.95.08,17.2-7.33,11.9-16.28-3.5-5.91-11.45-11.62-18.43-11.53A12.51,12.51,0,0,0,273.11,193.82Z"/><path class="cls-6" d="M296,233.78c-1.62-.07-3.17,4.9-3.54,6.36a13,13,0,0,0,1.35,10c3.2,5.34,11.15,8.75,16.81,5.21,6.1-3.82,3.93-12.69.37-17.57C308,233.64,299.88,229.47,296,233.78Z"/><g class="cls-8"><path class="cls-9" d="M262.92,165.71c-.9.87-1.65,1.58-2.4,2.2l-.18-.18c0,.11,0,.2,0,.31a14.17,14.17,0,0,1-5.38,2.69c-3.28,1-7,1.58-10.19.1a5.08,5.08,0,0,1-.52-.3,12.23,12.23,0,0,0,4.07,2c3.45,1,12,2.1,12.35-2.62.43,1.7,1,3.31.35,5.52-.51,1.68-7.06,8.76-4.2,9.12.79.1,4.34-1.85,4.89-2.4a20,20,0,0,0,3.36,3.26c2.31,1.71,6.78,3.34,9.44,3.28,1.42,0,12.7-2,7.81-4.23-3-1.32-8.73-.28-12.1-.82-1.72-.28-5.27-2.27-7.66-3.11a11.3,11.3,0,0,0,1.35-4.82,10,10,0,0,0-1.95-6.19c3.74.57,10.22-2.11,10.2-6C269.73,162.56,264.75,163.93,262.92,165.71Z"/></g><g class="cls-10"><path class="cls-9" d="M288.24,201.57c-6.14-3-8.67-9.51-15.93-8.22-3.38-1.48-7.3-2.58-10.67-1.67.21-9.17-6.68-14.56-15.39-14.67a13.13,13.13,0,0,0-10.82,5.51,16,16,0,0,0-1.93,3.4c3.28-4.21,8.54-5.72,14.34-5.61,7.17.13,9.92,6.46,13.23,11.55a8.28,8.28,0,0,0-3.85,2.78c-2.72,3.44-5.23,10-2.47,14-.34-4.23,1.24-7.6,4.16-11.43,2.26-3,5.15-3.85,8.33-4,2,1.7,7.82.77,10.62,2.24,4,2.09,4.82,5.3,6.81,8.87a12.23,12.23,0,0,0-.25,1.22c-.5,2.93-1.54,7.21-3.51,10.31,0-4.26-3.22-3.37-6.69-2.83-6.29,1-13.24,1.23-18.41-3.19a5.72,5.72,0,0,1-1.06-1.21,17.22,17.22,0,0,0,.67,3.52l-16.32-5.31a11.09,11.09,0,0,0,8.28,5c1.48.18,4.14-.48,5.39.14s1.58,2.78,2.14,3.89c2.27,4.48.5,4.13-1.87,7.88a8.19,8.19,0,0,0,1.6,10.13c.07-1.54-1.06-3.42-.88-5.34a10.21,10.21,0,0,1,2.71-6c3.26-3.64,8.72-3.25,12.49-.54,9.67,6.95-4.81,18.17-12.66,13a9.57,9.57,0,0,0,4.55,5.67c1.42-1.22,1.81-3.23,3.41-4.19,2.11-1.25,5.53-.57,7.81-.44.94.06,1.86,0,2.77.07,2.79,1.85,6.1,2.9,8.9,4.86,3,2.11,5,5.14,7.75,7.35,0-3.94-2.84-7.94-5.84-10.37-.17-.14-.36-.28-.58-.43-.14-2.14-.5-4.78,1.95-4.73,1.7,0,3.3,1.41,5,2a7.49,7.49,0,0,0-.33,3.59c-.93,4.25.46,10.59,3.62,11.43,0-3.71-2.75-8.14-2.08-11.83.8-4.34,6.22-3.46,9.43-2.46a23.42,23.42,0,0,1,8.71,4.76c3.37,3.26,2.28,6.68,2.6,10.6,6.76-6-4.6-15.58-8.63-19.09-4.26-3.72-4.87-2.93-9.53-.63a10,10,0,0,0-2.35,1.55c-3.29-3.06-8.7-4.38-11.74-7.66-2.53-2.74-1.05-5.44-.86-8.58,1.87-1.53,4.36-3.18,5.12-4.16,1-1.34,1.76-3.28,3.1-4.32s3-1.08,4.55-1.27c.22,0,.45.07.67.12a23.35,23.35,0,0,1,7.93,3.42C299,203.55,294.05,204.44,288.24,201.57Zm-17.52-7.83-3.24-.54a37.58,37.58,0,0,1,4.56.22A10.93,10.93,0,0,0,270.72,193.74Z"/></g><path class="cls-11" d="M201.52,211.54c-6-3.38-14,.15-15.57,6.69-4.31,3.81,6.52,15.47,9.66,17,7.24,3.51,15.21,2.27,15.85-6.78C212,221.18,207.82,215.06,201.52,211.54Z"/><path class="cls-11" d="M221.57,196.08c-19,3.17-12.65,30.2,4.71,30.18,9.44,0,15.13-7.89,11.86-16.72a23.55,23.55,0,0,0-6.46-9.41c-3.37-3-6.27-3-10.55-3.42Z"/><path class="cls-11" d="M246.6,233.47c-7.23-1.53-12.57,2-14.25,8.25a3,3,0,0,0-.43,2.09c-.06.52-.11,1.05-.13,1.58l.29-.82c1.18,4,7.28,9,9.48,9.89,6.22,2.56,13.5.43,14.9-6.65C257.74,241.23,253.07,234.86,246.6,233.47Z"/><path class="cls-11" d="M248.08,161.31c-7-1-14,4.42-13.5,11.35-1.69,6,7.21,12.37,12.15,13.08,6.83,1,14.66-3.74,15.15-11.25S254.53,162.24,248.08,161.31Z"/><path class="cls-11" d="M285.33,207.38c-3.56,1.71-5,3.81-5.49,6.65-2.48,2.49-1.54,8.58.1,11.17a20.12,20.12,0,0,0,8,7.1c7.3,3.46,16.11,1.09,19.71-6.42,3.52-7.33-3.74-15.71-10.11-18.43C293.93,205.88,288.92,205.65,285.33,207.38Z"/><path class="cls-11" d="M262.56,239.59c-1.79,1.48-1.95,5.51-1.38,7.23a18.31,18.31,0,0,0,6.83,8.87c5.89,4.5,16.36,8.45,22.24,1.83s-.46-16.57-6.24-21c-3.54-2.71-7.62-2.95-11.84-2.31C269,234.71,263.28,235.62,262.56,239.59Z"/><path class="cls-9" d="M259.9,167.33l.43.4s0-.07,0-.11Z"/><g class="cls-10"><path class="cls-9" d="M232.44,196.24c-1.63-.77-2.16-2.05-3.71-3-1.33-.8-3.37-.86-4.87-1.06a23.93,23.93,0,0,1-5.08-1c-1.48-.53-3.62-2.27-4.95-.74a1,1,0,0,0-.2.39l.36.27c1.34,1.07,2.6,2.08,3.87,3,1.54.66,3,1.13,3.31,1.23a4,4,0,0,1,2.48,1.79,16.9,16.9,0,0,0,3,.71c6.37.86,9.26,8,12.34,13,3.07-1.6,2.8-6.72,1.41-9.31C238.34,197.69,235.92,197.9,232.44,196.24Z"/><path class="cls-9" d="M217.86,194.1c-2.14-.91-4.47-2.17-4.23-3.26-2.83-2.16-6.95-4.25-10.51-3.38-1.93.47-3.41,1.67-5.14,2.5-1.42.69-3.27.95-4.52,2-5.69,4.55-3,14.23,1.66,18.36h0c2,4.07,5,5.13,8.11,8.17a10,10,0,0,1,3.22,5.65c.34,1.72,0,4.18,1.74,5.1.19-7.77,13.26-5,17.41-3,6.9,3.26,8.76,7.44,8.88,14.85,2.85-1.2,4.61-3.66,7.92-4.17,2.16-.34,7.51.32,8.85-1.68-3.18-2.56-13.42-17.71-17.72-9-.68-4.76-4-7-8.15-8.93-2-.9-4.53-1.9-6.76-1.49-1.81.33-3.44,1.63-5.19,2.1-2.37-2.49,3.17-5.69,4.73-7.23,2.61-2.57,4.42-4.72,5.37-8.3.53-2.06.85-3.88.12-5.21A20,20,0,0,1,217.86,194.1Z"/></g><g class="cls-8"><path class="cls-12" d="M220.92,197.48c5.52,1.25,11.37,5.57,13.39,11,3.11,8.33-1.59,13-9.29,14.3,2.69,2.93,7.17,1.51,9.68-.82,3-2.77,3.42-6.31,2.57-10.21-1.86-8.5-6.69-13.63-15.44-14.21Z"/><path class="cls-12" d="M257.91,171.87l-.09-.14c1,3.94.75,7.71-2.09,10.76,3.3-1.52,5.86-4.7,5.7-8.41C261.22,168.58,257.34,169.91,257.91,171.87Z"/><path class="cls-12" d="M237,236l.43-.63c.41,2,6.1,1.24,8,1.61a11,11,0,0,1,6.3,3.58c3.39,3.91,2.94,11.61-2.14,14,7-1.93,9-11.07,4.81-16.59a12.43,12.43,0,0,0-8.28-4.71C244.17,233.17,237.3,234.18,237,236Z"/></g><path class="cls-13" d="M214,219.22l1.47-1.56c-7.28,4.68-9,11.57-5.83,19.33,2.79,6.92,11.8,13.79,19.59,10.45,8.64-3.69,8-14.34,3.41-21C229.37,221.74,219.6,215.09,214,219.22Z"/><path class="cls-13" d="M195.77,191.05c-2.76,2.76-3.69,6.94-3.61,10.76.18,7.56,6.86,14.51,14.37,14.95,18.56,1.09,14.32-31.35-2.77-29.15C201.1,187.25,197.21,189.61,195.77,191.05Z"/><path class="cls-13" d="M238.5,164.08s2.87,8.4,14.7,7.6c6.89-.46,13-7.71,10.3-14.78C258,142.6,230.23,148.55,238.5,164.08Z"/><path class="cls-13" d="M261.45,194.92c-.18-6.32-5.3-13-11.34-14.35a17.24,17.24,0,0,0-12.4,2.28c-2.93,1.8-4.47,6.47-4.47,6.47-3.35,2.28-1,9.54,1,12.06a17.42,17.42,0,0,0,7.87,6,15.09,15.09,0,0,0,11.91-.71,16.25,16.25,0,0,0,7.63,10.43c6.84,3.49,15.87,4,21.05-2.74,4.88-6.32,1-15.85-5.83-19.12C273.28,193.49,266.69,193.23,261.45,194.92Z"/><g class="cls-14"><path class="cls-15" d="M185.61,212.82c2.81-2.84,1.71-9.65.7-12.93-.58-1.83-1.37-4.48-3.33-5.26a3.19,3.19,0,0,0-2.87.16l.14-.21-.16.23a3.41,3.41,0,0,0-1.55,2.28l.69-1a16.27,16.27,0,0,0-1.57,9.91C178.13,209.13,181.28,217.2,185.61,212.82Z"/><path class="cls-15" d="M195.23,215.33c-4.38-2.33-7.18.84-8,4.53l0-1.45c-4.57,7.63,12.27,21.48,13.31,10.16C201,224.85,198.85,217.26,195.23,215.33Z"/><path class="cls-15" d="M205.71,209.49c2.35-3.38-.36-10.2-2.48-13.06s-7.67-6.39-9.13-1C190.29,201.53,200.1,217.59,205.71,209.49Z"/><path class="cls-15" d="M224.8,235.77c-.68-4-4-9.66-7.67-11.69-5.27-3-7.65,1.49-7.58,5.91l-.08-.44C205.78,239.94,227.08,249.13,224.8,235.77Z"/><path class="cls-15" d="M238,223.44c-1.25,1.5-1.24,2.58.57,3.28,2.87,2.41,6.78,4.06,10.33,2.3,4.46-2.22,2.54-9.26.19-12.63-.8-1.17-3.25-4-5-3.41-1.57.54-1.65,3.93-2.15,5.32C241.07,220.88,239.59,221.57,238,223.44Z"/><path class="cls-15" d="M255.06,229.31c.15,1.67,3.36,9.65,6.09,7.9,1.66-1.08,1.49-8.79,1.49-10.49,0-2.61-.92-8.43-3.86-6.05C257,223.35,254.75,225.82,255.06,229.31Z"/><path class="cls-15" d="M244.48,246c-2.57.66-11.13.13-7.69,3.83,0,0,3.58,3.64,7.33,4s8.45-1.86,8.71-6.07C253.2,241.74,247.5,245.24,244.48,246Z"/><path class="cls-15" d="M247.2,202.38c2.45-3-1.2-10.33-3.33-12.87-2.64-3.18-8.84-6.25-10.91-.68C231,197.77,240.29,211,247.2,202.38Z"/><path class="cls-15" d="M224.18,214.73c3,1.08,7.73,3.93,8.63-.55.71-3.53-2.07-8.7-5.15-10.38-4.2-2.28-6.3-1-6.69,2.83C219.28,210.23,220.49,213.4,224.18,214.73Z"/><path class="cls-15" d="M223.29,186.37c7.3-4-4.69-16.75-10.79-11.38-4.13.37-1.83,7.4-.29,9.19A8.9,8.9,0,0,0,223.29,186.37Z"/><path class="cls-15" d="M234.8,168.61l.37-.23c-2.27,3.19-.1,14.56,7.81,9.35,3.67-2.43.91-4.77-1.42-7.33C239.86,168.52,236.15,163.83,234.8,168.61Z"/><path class="cls-15" d="M251.43,165.49c.24-2.45-5.22-5.06-6.89-6.2-1.47-1-7.4-3.53-6.52.07-.69,1.61,2.6,6.34,4.13,7.46C244.07,168.23,251.06,169.25,251.43,165.49Z"/><path class="cls-15" d="M228.57,154.8c-5.77-3.34-16.89,4.13-8.55,8.93l-1.45-1.91C221.88,166.58,235.52,158.84,228.57,154.8Z"/><path class="cls-15" d="M259.07,197.75c-4.23,2.44-4.52,6.66-2.84,10.29.87,3.41,5.16,6.92,7.86,7.56,1.88.46,6.6.73,7.15-1.9.44-2.06-3.45-5.36-4-7.45-.66-2.63,1.35-5.65-.08-8C265.53,195.46,261.4,196.4,259.07,197.75Z"/><path class="cls-15" d="M282.88,215.71a5.34,5.34,0,0,0-2.75,5.44c-.15,3.67,4.24,7.23,7.11,8.64,3.3,1.62,13.72,2.18,12.11-4.23-.59-2.36-3.45-2.76-5.35-3.66a15.91,15.91,0,0,1-5.29-4.38C286.89,215.48,285.62,214.1,282.88,215.71Z"/><path class="cls-15" d="M263.2,240.88l.27-.56c-4.09,3.9.3,10.68,3.79,13.33,2.55,1.94,12.63,6.15,14.51,1.67,1.81-4.29-4.92-9.76-7.46-12.21-1.95-1.88-3.43-3.44-6.2-3.71A6.68,6.68,0,0,0,263.2,240.88Z"/><path class="cls-15" d="M296.24,237.26v0c-6.94,3,.36,19,6.42,15.56,3.05-1.74,1.26-8.71.16-11.25S298.34,235.77,296.24,237.26Z"/><path class="cls-15" d="M280.22,192.85l-.22.77c2.11,1.44,4.2,3.86,6.5,4.78,1.59.64,7.91,1.94,9.3,1.25.22-2.52-3.59-5.15-5.63-6.09C286.91,192.05,283.63,192.18,280.22,192.85Z"/><path class="cls-15" d="M268.34,171.62c-5.36-.42-4.83,7.07-4.83,7.07a11.25,11.25,0,0,0,10,4.69c3.75-.27,8.72-3.55,5.7-7.43C276.76,172.84,272,171.9,268.34,171.62Z"/></g><g class="cls-16"><path class="cls-17" d="M177.38,200.59l1.43-2.1a8.67,8.67,0,0,0-1.35,6.78c.46,1.87,2.83,6.14,4.89,3.75,1.3-1.5,0-7.12-.57-8.8C180.81,197.06,177.64,196.85,177.38,200.59Z"/><path class="cls-17" d="M193.61,199.27a6.63,6.63,0,0,0-.06,1Z"/><path class="cls-17" d="M193.61,199.27a1.9,1.9,0,0,1,0-.25c0-.06,0-.12,0-.18Z"/><path class="cls-17" d="M201.66,205.51c.33-2.62-1.23-7.32-3.45-8.91-2.65-1.91-4.2-.1-4.57,2.42a11.59,11.59,0,0,0,2.73,6.57C198.28,207.87,201.17,209.49,201.66,205.51Z"/><path class="cls-17" d="M187,221.8c.37,5,8.61,10.49,9,5.2.19-2.67-2-6.87-4.12-8.36C189.32,216.86,185.82,218.78,187,221.8Z"/><path class="cls-17" d="M218.61,235.41c-.15-2.49-2.41-6.68-4.56-8.07-3.4-2.19-4.56.55-4.37,3.35C209.17,236.22,219,241.7,218.61,235.41Z"/><path class="cls-17" d="M227.9,210.81c-.23-6.27-8.84-4.41-6.2-.53v0C222.69,212.66,228.06,215.52,227.9,210.81Z"/><path class="cls-17" d="M239.61,194.37a40.1,40.1,0,0,1-1.89-4.65c-.59-1.33-.72-3.33-2.82-2.36-1,.48-1.25,2.25-1.25,2.25-1.53,2.62-.31,6.32,1.62,8.41,1.47,1.59,6.47,4,6.58.24C241.89,197,240.22,195.39,239.61,194.37Z"/><path class="cls-17" d="M220.14,181c-.46-3.89-7.6-4.23-7.36-1.91l-.09-.15C212.53,182.45,220.62,185.08,220.14,181Z"/><path class="cls-17" d="M235.2,172l-.07-.7c-.22,2.6,1.29,6,4.25,6-.08-1.07-.81-1.89-1.11-2.94-.34-1.23.16-3.74-.72-4.77C235.45,167.1,235.1,169.86,235.2,172Z"/><path class="cls-17" d="M256.38,204.65a7.56,7.56,0,0,0,2.71,6.57c1,.83,3.36,2.09,4.7,1.11s.52-1.61-.18-3.05-1.59-2.35-2-4c-.31-1.3,0-4-1.48-4.79C257.46,199.06,256.24,202.24,256.38,204.65Z"/><path class="cls-17" d="M247.73,218.88c-3.52-5.45-3.58,4.43-6,6.58l-.42-.28C245.94,229,250.86,223.75,247.73,218.88Z"/><path class="cls-17" d="M246,248.93a10.24,10.24,0,0,1-4.8.69c-1.26-.18-2.28-1.28-3.49-.67a3,3,0,0,0,.55,2.05c3.08,2,11.48,5.45,12.21-.84C250.88,246.45,247.77,248.29,246,248.93Z"/><path class="cls-17" d="M263.92,240.62c-7.14,6.44,6.64,17.47,8.73,14.26,1.22-1.89-1.47-2.73-2.45-4a14.07,14.07,0,0,1-2.22-5.39c-.26-1-.29-5.92-1.15-6.55C265.73,238.14,264.56,239.36,263.92,240.62Z"/><path class="cls-17" d="M281.17,219.83l-.12-.33c-2.33,7.89,12.32,11.64,12.17,6.92-.05-1.77-4.77-5.53-6.09-6.61C285.22,218.23,281.9,218.34,281.17,219.83Z"/><path class="cls-17" d="M295.44,241.91c1,3.5,4.69,8.31,5.39,3C301.46,240,295.3,236.21,295.44,241.91Z"/><path class="cls-17" d="M258,224.37s-2.44,9.48,1.78,11.3c.43-1.83-.09-3.91,0-5.83.09-1.64,1.61-4.59,1.27-6.05C260.51,221.39,259.1,222.48,258,224.37Z"/><path class="cls-17" d="M247.71,165.53a28.26,28.26,0,0,0-5.49-3.53c-2.17-1.21-3.35.18-3.35.18C239.89,164.34,246.34,170.55,247.71,165.53Z"/><path class="cls-17" d="M221.52,162l-1.26-.86c1.68,0,9.34-2,5.59-4.23C222.88,155.14,216.38,160.74,221.52,162Z"/><path class="cls-17" d="M265.22,177.09c1.07,4.75,11.87,4.55,7.85-.48C270.1,172.89,263.24,173.83,265.22,177.09Z"/><path class="cls-17" d="M283.5,194.79a1.8,1.8,0,0,1-.27-.28,3.6,3.6,0,0,0-.71-.09Z"/><path class="cls-17" d="M282.51,193.17a3.91,3.91,0,0,0,.72,1.34c2.58.54,8.9,3.85,9.12,1.36C292.64,192.57,284.07,191.82,282.51,193.17Z"/></g><g class="cls-18"><path class="cls-17" d="M176.89,200.86l.17-.16c-.54,2.44,1.19,6.47,2.89,7.21.52-1.23-.08-5-.08-6.72C179.86,198.12,178,197.77,176.89,200.86Z"/><path class="cls-17" d="M186.49,222.75l.06-.37a7.65,7.65,0,0,0,1.57,3.16c1,1.23,3.55,3.17,3.56.69,0-.84-2.38-5.31-2.89-5.95C186.59,217.54,186.06,220.44,186.49,222.75Z"/><path class="cls-17" d="M196,196.93c-3-1.56-1.87,1.6-1.87,1.6-.24,2.65,4.23,9.63,4.16,4.48C198.27,202.07,196.79,197.35,196,196.93Z"/><path class="cls-17" d="M209.23,229.77a3,3,0,0,0,.64,2.92l-.22-.26c1.24,2.11,4,5.17,6.64,4.62,0-1.9-2.77-5.87-4.18-7.11C211,229,210.1,228,209.23,229.77Z"/><path class="cls-17" d="M238.38,250s0,0,.1.23a2.15,2.15,0,0,0,.79.89c1.71,1.59,4.32,2.51,6.3,1.23-1.33-1.53-4.76-2.6-6.53-3.77A1.45,1.45,0,0,0,238.38,250Z"/><path class="cls-17" d="M233.64,189.8l0-.19a2.53,2.53,0,0,1-.13.22c-.55.29-.85,1.68-.29,3.37.46,2.36,2,4.84,3.71,5.11,0-1.77-1.33-4.44-1.82-6.32C234.69,190.28,234.1,189.68,233.64,189.8Z"/><path class="cls-17" d="M256,205.81l.07-.47c.36,3.08,2.44,6.86,5.05,5.5,0-1.18-.68-2.07-1.16-3.16-.61-1.37-.65-3-1.21-4.32C257.38,200.15,254.92,203.16,256,205.81Z"/><path class="cls-17" d="M240.05,164.14a2.8,2.8,0,0,0,.38.88s-.22-.19,0,0c.21.35,0,0,0,0a4.31,4.31,0,0,0,4.89.94C244.41,164.65,241.56,163.48,240.05,164.14Z"/><path class="cls-17" d="M263.08,241.87l.09-.21c-2.4,2.24-.18,8,2.81,8.51.69-1.34-.74-7.61-1.56-8.85A2.25,2.25,0,0,0,263.08,241.87Z"/><path class="cls-17" d="M282.7,222.45c-1.19,1.27,1.72,3.18,2.35,3.77l-.92-1c1.64,1.17,4,1.41,2.07-1.17C285.67,223.31,283.71,221.38,282.7,222.45Z"/><path class="cls-17" d="M296.46,244.14l0-.55a3.19,3.19,0,0,0,1.61,1.88c.71-1.69.11-5.27-2-5.58A3.48,3.48,0,0,0,296.46,244.14Z"/><path class="cls-17" d="M255.1,227.86s.69,2.73,2.35,3.69C259.07,228.8,258.41,223.55,255.1,227.86Z"/><path class="cls-17" d="M222.34,208.05c-.43.78,1.21,2.29,2.59,3.38a3.67,3.67,0,0,0,1.24,1.33c2.9,1.05,1.34-2.89.28-3.87C225.71,208.22,223.06,206.76,222.34,208.05Z"/><path class="cls-17" d="M266.4,177.27c1.31.72,5,1.77,3.82-.74C269.57,175.14,265.76,175.3,266.4,177.27Z"/><path class="cls-17" d="M234.64,170.64s0,3.37,1.61,3.87a7.64,7.64,0,0,0-.19-5C235.31,169.5,235,170,234.64,170.64Z"/></g><g class="cls-2"><path class="cls-19" d="M215.06,213.74c3.28-2.63,4-7.28,3.76-11.24-.58-8.93-8.87-15.77-17.55-13.52l.23.12c5.82-.77,12.3,6.09,13.51,11.71.71,3.34.41,7.62-1.61,10.57-2.22,3.22-6.21,2.84-9.64,3C206.43,217.31,212.28,216,215.06,213.74Z"/><path class="cls-19" d="M255.72,201c1.85-3.87,6.29-5,4.72-9.68-3-8.93-12.08-12.57-20.52-8.17l-.37.79c6.36-.86,13.4.08,16.57,6.73s-2.84,12.49-7.42,16.1c1.46,0,4.21,0,5.23-1C254.78,204.93,255.2,202.08,255.72,201Z"/><path class="cls-19" d="M243.21,152.25h0c3.9-1.38,11.69,1.11,14,3.08,5,4.23,3.39,11.14-1.61,14.24,2.69.51,5.8-2.61,7-4.85,1.66-3.09,1-7.49-.92-10.32C257.08,147.49,249.45,149.4,243.21,152.25Z"/><path class="cls-19" d="M280.19,198.54c-3.12-3.77-8.18-4.6-12.89-4.72-5.22-.13-8.57,2.21-10.57,6.93l.72-1c2.15-2.59,8.51-2.84,11.64-2.22a16,16,0,0,1,8.43,5.17c2.12,2.52,4.06,7.08,2.42,10.24-1.53,2.92-5.82,5.35-9,5.39C282.79,219.07,287.42,207.29,280.19,198.54Z"/><path class="cls-19" d="M213.29,220.8a.86.86,0,0,1,.07-.21c-.41-.1-.84-.22-1.26-.28Z"/><path class="cls-19" d="M225.12,221.89c-2-1.13-10.82-5-11.77-1.31,6.12,1.42,12.7,5.54,15.74,11,2,3.64,3.31,8.24.68,11.82-1.54,2.11-5.33,4.71-8.24,4,9.77,4,17.16-7.48,12.91-16.42C232.71,227.31,228.6,223.81,225.12,221.89Z"/><path class="cls-19" d="M207.55,227c.51-3.59,4.92-6.71.64-10-1.47-1.12-3.8-.76-5.54-1.33a18.39,18.39,0,0,1-4.67-2.58c-3.39-2.28-7.57-1.44-9.72,2.56l.28-.42c5-5,11.46-.83,14.6,4,2.06,3.17,2.68,6,3.06,9.68.33,3.2-1,4.76-1.31,7.73C210.75,235.68,207,231.22,207.55,227Z"/><path class="cls-19" d="M279.32,216.86c4.77-.55,5.82-4.81,9.43-6.83,10.58-1.3,18.4,13,15.66,16.52-2.24,2.93-4.1,4-6.94,5.83,11.26-.9,13.37-14.92,5.19-21.16-4-3.05-9.06-3.92-14-3.41C284.13,208.3,283.59,214.79,279.32,216.86Z"/><path class="cls-19" d="M263.84,238.43l.5-.27c6.89-1.54,16,1.24,20.13,7.13,5.39,7.68.38,13.44-7.57,14.87,4.85.31,10.29.26,13.37-4.31,2.8-4.16,1.4-10.54-1.55-14.1C282.55,234.3,271.4,232.64,263.84,238.43Z"/></g><g class="cls-10"><path class="cls-20" d="M230.28,150.53a15.6,15.6,0,0,1,7.66,4.16c4.15-3,.13-5.3-3.33-6.25-4.23-1.18-10-1.33-13,2.45l-1.14.76C224,151.22,226.6,149.73,230.28,150.53Z"/><path class="cls-20" d="M264.92,167l.7-.13c6.57-.84,13.28-.47,17.61,5.44a9.13,9.13,0,0,1,1.17,9.22c-1.47,3.76-3.69,4.08-7,5.63,3.39.59,8.53-2.46,10.35-5.17,2.41-3.6,1.54-8.11-1-11.45C282.05,164.38,271.37,162.49,264.92,167Z"/><path class="cls-20" d="M194.75,190.16c-.89-1.37-3.5-2-4.95-2.42,4.06,2.65,1.21,10.22.26,14.46-1.21,5.36-.83,12.17-6.57,13.52l.35-.06c-.58,1.23,1.92,1.8,2.91,1.1s1.37-3.53,2.45-4.5,5.46-1.23,5.9-2c0,0-1.58-2.84-2.11-4.09-1.56-3.61-1-9.23.88-12.55C194.88,191.81,195.93,192,194.75,190.16Z"/><path class="cls-20" d="M285.1,230.89c-.56-1.17-2.57-1.8-3.45-2.8-1.91-2.19-1.38-6.93-4.49-8.05-2.85-1-6.12,1-9.34-.21-3.4-1.29-8.28-3.41-8.2-3.19-2.68-1.17-3.48-5.2-6.38-6.72-2.72-1.42-5.11-1.16-7.66-.85a12.43,12.43,0,0,1,9.4,7.55c.93,2.61.41,6.61-.46,9.21-1.16,3.43-4,3.49-6.1,5.86,4.52.28,6.08-1,7-5.11.56-2.54,1.38-7.33,4.36-8.2,3.29-.95,5.07,3,7.31,4.35,2.69,1.67,7.37-.23,9.93,1.34,2.25,1.37,2.62,7.11.65,8.82-1.42,1.23-2.3.35-4.11.43s-3.55,1-5.28,1.5c5.26-1.4,11-.72,16.19.84C284.7,234.62,285.59,231.93,285.1,230.89Z"/><path class="cls-20" d="M278.44,190.69a26.9,26.9,0,0,1,10.79.92c3.33,1.35,10.89,6.61,10.29,10.8-.8,5.52-10.21.38-12.57-1.4-3.53-2.66-7.26-8.58-12.42-7.53,2.69.94,5.54,1.93,7.74,3.82a9.73,9.73,0,0,1,2.85,3.93c.51,1.19.57,4.4,1.58,5.11,0,0,6.25-.64,8.89,0,2.28.59,6.05,5,7.55,2.56s.22-8.3-1.23-10.27c-1.79-2.43-4.55-4.23-7-6a18,18,0,0,0-8.23-3.45C283.77,188.83,281.13,189.79,278.44,190.69Z"/><path class="cls-20" d="M298.91,234.61c5.27.63,8.73,4.39,11,9.14,1.28,2.66,2.17,5.9.95,8.76-1.47,3.44-3.86,2.76-6.74,3.77,2.78,2,7.23-.3,9.11-2.63,2.47-3.06,2.09-7.61.73-11.11a16.55,16.55,0,0,0-6.71-7.71C303.88,232.75,302.1,233.93,298.91,234.61Z"/><path class="cls-20" d="M237,159.59c-3,3.26-2.24,4.93-7.36,5.1-4,.13-8.1.52-12,1,.7,1.54,2.3,2.54,3.75,3.45l-3.27-2.84c2.27.63,4,3.32,6,4.39A21.89,21.89,0,0,0,227.8,172a25.58,25.58,0,0,0-11.08.46l-.28.42c4-2.76,13.84,2.81,15.63,6.54,1.43,3,.73,6.76-.34,9.73-1.28,3.57-5.59,5.11-8,7.14,1.18.62,6.4.17,7.51-.85s-1-2.68,1.95-6.44c1.19-1.51,1.47-3.24,2.78-4.63,1.63-1.75,4.12-1.33-.69-6.29-2.48-2.56,1.13-4-5.89-5.69a11.2,11.2,0,0,0,3,.39c2.64-.31,2.45-3.87,3.55-6C237.41,164,237.18,161.91,237,159.59Z"/></g><path class="cls-21" d="M206.89,158.08a9,9,0,0,0,.3,8,9.28,9.28,0,0,0,1.53,2.14,2.25,2.25,0,0,1-.12.21c-1.15,2.58-.76,5.61.2,8.26a15.23,15.23,0,0,0,1.68,3.38,10,10,0,0,0,.62,9.53A14.76,14.76,0,0,0,220,195.8a30.22,30.22,0,0,0,11,.51c3.66-.38,7.29-1.07,11-1.35a84.47,84.47,0,0,1-12.77,6.28,23.85,23.85,0,0,1-5.12,1.51,26.71,26.71,0,0,1-6.19-.06l-5.47-.47a5,5,0,0,1-2.37-.59,5.53,5.53,0,0,1-1.51-1.74A40.65,40.65,0,0,0,192,185.65c.91,2.06,2.93,3.35,4.78,4.64a52.57,52.57,0,0,1,7.78,6.73c1.66,1.75,3.27,3.86,3.14,6.27A39.19,39.19,0,0,0,197.39,200,14.74,14.74,0,0,0,187,202.13l13.6.48c2.56.09,5.56.42,6.9,2.6-4.49,3.25-6.68,8.74-8.64,13.92-.34.89-.63,2,0,2.68,4.34-2.65,4.28-8.92,6.94-13.25a2.59,2.59,0,0,1,1-1c1-.48,2.17.34,2.89,1.21a12.67,12.67,0,0,1,2.78,9.77c-.25,1.71-.79,3.68.33,5,2.23-4.35,1-9.75-1.55-13.95-.52-.88-1.1-2-.57-2.85a2.55,2.55,0,0,1,1.52-.92c6.66-1.9,14.59.87,20.29-3.08a16.44,16.44,0,0,0-6.71,15.86,2.82,2.82,0,0,0,.71,1.67,1.11,1.11,0,0,0,1.63,0,1.87,1.87,0,0,0-.08-1.56,10.3,10.3,0,0,1,1-7.85,20.19,20.19,0,0,1,5.36-6,39.38,39.38,0,0,1,11.94-6.57c2.12-.73,4.39-1.39,6.08-2.82a17,17,0,0,0,3.4-2.05,7.91,7.91,0,0,0,3.16-5.83,11.74,11.74,0,0,0-.32-2.45l-1-5.06c-.11-.53-.36-1.2-.91-1.2a1.25,1.25,0,0,0-.78.41,72.24,72.24,0,0,0-11.21,12.91c.52-.82,1-2.08.11-2.58s-1.81.65-2.57,1.38c-1.15,1.09-2.85,1.28-4.42,1.42l-8.33.74c-3.38.29-6.84.59-10.12-.3a10.1,10.1,0,0,1-3.86-1.89,9.29,9.29,0,0,1-3.06-5.32,8.45,8.45,0,0,1,0-3.21,9.06,9.06,0,0,0,.82.71,7.4,7.4,0,0,0,7.42.84,4.14,4.14,0,0,0,2.12-2.2c.64-1.77-.48-3.8-2.07-4.81-2.84-1.82-6.85-.9-9.11,1.61a8.64,8.64,0,0,1-.92-1.26,8.82,8.82,0,0,1-.37-7.73,5.3,5.3,0,0,0,.78.42,5.2,5.2,0,0,0,5.23-.67,2.32,2.32,0,0,0-.82-4.24,5.57,5.57,0,0,0-5.86,1.92,6.18,6.18,0,0,1-1.19-1.92,6.34,6.34,0,0,1,1.38-6.39c1.36-1.4,3.48-2.31,3.92-4.21A6.66,6.66,0,0,0,206.89,158.08Zm12,23.41a8.81,8.81,0,0,1-5.58-1.48,4.6,4.6,0,0,1,.83-1c1.81-1.51,5.18-1,5.84,1.28a1,1,0,0,1,0,.6C219.88,181.31,219.36,181.45,218.91,181.49ZM211,168.1a1.62,1.62,0,0,0,.1-.18,3.46,3.46,0,0,1,2.83-1.69c1.15.1,2,1.68,1.18,2.46a2,2,0,0,1-1.62.36A6,6,0,0,1,211,168.1Z"/><path class="cls-1" d="M117.57,173.32c-1.35,4.51-.79,8.21,1,11.06-10.19-3.77-30.57,5.07-27,14.85-6.34,1.13-11.73,5.18-12.44,12.73a17.51,17.51,0,0,0,.75,7.18C69.94,220,58.35,230,64.1,241.41c4.22,8.39,13.25,7.73,19.92,3.24a13,13,0,0,0-.14,3.39c2.17,25.34,40.25,7.89,35.57-.63l.08,0s8.81-2.88,11.72-5.5a13.81,13.81,0,0,0,2,1.27c-5.8.53-11.1,3.72-12.38,10.68-3.05,16.52,18.57,20.17,25.88,10.41,4.49,9.07,20,6.82,27.18.44,8.77,9,27.59.73,31.29-10.29,7.86,1.09,13.7-6.77,15.47-13.92,1-4.22-1.13-18.92-6.61-17.44-2.83-1.49-6-.78-9,1.25-.2-4.43-2.41-7.93-7.27-8.58l1.84.11c-6.48-1.22-12.74-.41-17.62,3.26a12.07,12.07,0,0,0-1.4-1.28,28.27,28.27,0,0,0,6.82-2c14.81-5.65,7.39-18.89,7.39-18.89a16.25,16.25,0,0,0-7.66-5.26c3.88-.42,9.54-.3,10.91-4.94,7.86-18.65-12-25.9-22.5-22.4-4.85-9.1-16-8.93-23.94-4-2.68,1.67-3.85,5.24-4.26,9C139.31,161.27,121.64,159.75,117.57,173.32ZM91.72,228.78a24.39,24.39,0,0,0,7.34.39,20.39,20.39,0,0,0-.92,3.79,22.85,22.85,0,0,0-6.61,2.19,11.31,11.31,0,0,0,.19-6.37Z"/><path class="cls-22" d="M196.17,245.87c-.85-8.18,5.77-17.5,12.52-21.31l-3.61,1.67c.81-2.95,6.27-5.09,9-4.71,4.33.59,6.45,4.9,7.5,8.65,2.15,7.61-.52,17.48-7.26,22.08C208.18,256.46,197.07,254.54,196.17,245.87Z"/><path class="cls-22" d="M165.76,207.06c-2.71-9.63,3.79-15.48,11.54-17.12a14.38,14.38,0,0,1-8.43-13.16c-.07-9.1,8.18-14,16.37-13.51,9.75.59,15.2,6.27,16,15.76-1.29,3.89-2.13,7.58-6.05,9.89a19.17,19.17,0,0,1-5.86,2.06,11.67,11.67,0,0,1,6.91,7.51C205.06,210.74,172,229.16,165.76,207.06Z"/><path class="cls-22" d="M201.31,179.27l0-.24.33-1Z"/><path class="cls-22" d="M135,162.58c8.66,1.9,16.53,7,14.65,14.91l.25-.55c3.83,7.38-9.81,12.7-15,13-7.87.46-16.38-6.57-17-14.6S127.71,161,135,162.58Z"/><path class="cls-22" d="M117.39,246.09a26.51,26.51,0,0,0,10.42-3,17.48,17.48,0,0,0,3.92-3.2,12.4,12.4,0,0,0,7.5,5.29c4.69.93,17.15-1.13,17.27-7.81,3.27-6.53,1.15-14.6-6.62-17.49-6.35-2.36-14.86-.35-18.89,5.33a16.29,16.29,0,0,0-12.94-6.48c-7.58.23-17.44,4.48-18.13,13C99.15,241.07,109.16,246.58,117.39,246.09Zm12.77-8.94s0,0,0,0h0Z"/><path class="cls-22" d="M126.85,194.66c1.79,6.87-3.25,10.43-8.15,14.35l4.39-3.26c-3.78,6.49-16,7.43-22.18,5-9.15-3.52-14.56-14.4-5.55-21.38,6-4.61,16.34-7.23,23.42-4.31A13.75,13.75,0,0,1,126.85,194.66Z"/><path class="cls-22" d="M87.47,226.12c1.67.59,1.25,6.27,1,7.91a14.22,14.22,0,0,1-5.4,9.6c-5.4,4.14-14.88,4.41-19.21-1.49-4.67-6.35,1.11-14.51,6.7-18C75.3,221.14,85.21,220.15,87.47,226.12Z"/><g class="cls-8"><path class="cls-23" d="M148.72,171c.56,1.25,1,2.27,1.55,3.2l.26-.1-.15.31a15.45,15.45,0,0,0,4.39,4.9c2.95,2.31,6.44,4.42,10.34,4.21.22,0,.43-.07.65-.09a13.61,13.61,0,0,1-5,.44c-3.93-.33-13-2.7-11.52-7.65-1.12,1.56-2.37,3-2.58,5.48-.16,1.9,3.65,11.77.6,11-.84-.23-3.66-3.65-4-4.42a22.29,22.29,0,0,1-4.73,2c-3,.81-8.25.66-10.94-.47-1.43-.6-12.1-7.2-6.24-7.45,3.55-.15,9,3.23,12.65,4,1.86.41,6.29-.19,9-.08a12.55,12.55,0,0,1,.57-5.45,10.94,10.94,0,0,1,4.48-5.52c-4.05-.92-9.56-6.26-8-10.18C143,165.1,147.56,168.49,148.72,171Z"/></g><path class="cls-24" d="M192.61,241.55c7.5-1,14.21,5.82,13.15,13.09,2.83,5.62-12.88,13.13-16.7,13.43-8.78.65-16.41-3.82-13.4-13.3C178.07,247.16,184.76,242.59,192.61,241.55Z"/><path class="cls-24" d="M178.42,217.73c18.05,10.88.7,35.86-17,28.83-9.61-3.83-12.23-14.15-5.34-21.81a25.71,25.71,0,0,1,10.38-7c4.63-1.67,7.6-.57,12.12.76Z"/><path class="cls-24" d="M137.85,245.72c8,1.34,12,7.14,11.18,14.14a3.26,3.26,0,0,1-.4,2.29c-.14.55-.31,1.11-.5,1.67l0-.95c-2.8,3.57-11,6.2-13.63,6.23-7.37.1-13.93-5-12.49-12.76C123.38,249.12,130.7,244.51,137.85,245.72Z"/><path class="cls-24" d="M165.43,171.63c7.57,1.8,12.45,10.13,9.18,17-.68,6.75-12.33,9.68-17.65,8.41-7.35-1.76-13.42-9.72-10.89-17.57S158.49,170,165.43,171.63Z"/><path class="cls-24" d="M108.93,203.53c2.93,3.17,3.57,5.89,2.91,9,1.54,3.53-1.88,9.36-4.59,11.33a22.08,22.08,0,0,1-11,4c-8.83.58-16.84-5.39-17.48-14.49-.63-8.88,10.14-14.49,17.72-14.69C100.78,198.54,106,200.32,108.93,203.53Z"/><path class="cls-24" d="M119.13,245.51c1.22,2.22-.23,6.4-1.5,7.92-2.8,3.34-6.38,5.13-10.54,6.29-7.81,2.19-20.06,2-23.38-7.1-3.38-9.3,7.15-16.7,14.83-18.86,4.7-1.32,8.95.07,13,2.41C114.59,238,120,241.17,119.13,245.51Z"/><g class="cls-10"><path class="cls-25" d="M167.44,214.42c2-.14,3-1.22,5-1.54,1.67-.28,3.77.48,5.39.87a24.84,24.84,0,0,0,5.57,1c1.72.06,4.6-.86,5.33,1.25a1,1,0,0,1,0,.47l-.48.13c-1.79.55-3.47,1.07-5.14,1.48-1.83,0-3.5-.06-3.86-.09a4.34,4.34,0,0,0-3.25.84,20.86,20.86,0,0,1-3.36-.5c-6.85-1.69-12.65,4.37-17.83,8.31-2.48-2.86-.14-8,2.32-10C160.84,213.51,163.23,214.71,167.44,214.42Z"/><path class="cls-25" d="M183.15,218.12c2.55-.07,5.42-.41,5.61-1.61,3.76-1.06,8.8-1.53,12.07.79,1.78,1.26,2.8,3.08,4.22,4.63,1.18,1.27,2.95,2.29,3.82,3.82,4,6.93-2.73,15.68-9.09,18h0c-3.68,3.33-7.13,3.21-11.56,5a10.94,10.94,0,0,0-5.55,4.45c-1,1.62-1.67,4.26-3.83,4.49,2.94-8-11.48-10.45-16.49-10.13-8.35.53-11.94,4.05-15,11.55-2.41-2.38-3.2-5.58-6.37-7.45-2.07-1.22-7.78-2.7-8.34-5.28,4.26-1.32,20.8-12.62,21.65-2,2.62-4.58,6.91-5.57,11.91-5.81,2.38-.11,5.38-.11,7.49,1.21,1.71,1.07,2.84,3,4.43,4.23,3.41-1.58-.93-7.08-1.9-9.26-1.63-3.67-2.61-6.59-2.12-10.62.28-2.31.7-4.27,2-5.34A23.62,23.62,0,0,0,183.15,218.12Z"/></g><g class="cls-2"><path class="cls-26" d="M178.51,219.41c-6.12-.95-13.83,1.08-18,5.75-6.52,7.22-3.61,13.84,3.69,18.3-3.92,1.9-7.92-1.35-9.53-4.72-1.92-4-.94-7.81,1.5-11.44,5.32-7.91,12.3-11.18,21.45-8.25Z"/><path class="cls-26" d="M151.17,178.42l.14-.1c-2.64,3.59-3.88,7.55-2.21,11.79-2.76-2.87-4.08-7.14-2.42-10.87C149.13,173.74,152.54,176.65,151.17,178.42Z"/><path class="cls-26" d="M146.65,252.2l-.19-.81c-1.22,1.85-6.72-1.2-8.75-1.57a12.16,12.16,0,0,0-7.86,1.1c-5,2.61-7.68,10.64-3.47,15.15-6.34-4.78-4.73-14.92,1.79-18.83a13.62,13.62,0,0,1,10.34-1.45C140.45,246.38,147,250.18,146.65,252.2Z"/></g><g class="cls-10"><path class="cls-25" d="M90.71,200.52a25.44,25.44,0,0,1,9.45-.28c.24,0,.49.1.73.14,1.54.83,3.23,1.62,4.12,3.13s.91,3.87,1.43,5.65c.37,1.3,2.23,4,3.53,6.3-1.09,3.28-1.66,7.29-4.86,9.74-3.89,3-7.93,5.17-16.87,1.54-1.59-.71-9.63-6.55-10-6.46-3.07.62-15.1,3.78-15.82,16.86,1.91-3.86,2.18-7.8,6.93-9.75A25.69,25.69,0,0,1,80.11,226c3.66.28,9.54,1.57,8.6,6.31-.79,4-5.35,7.43-6.88,11.2,3.56.42,7.52-5.48,8.3-10.17a8.31,8.31,0,0,0,1.11-3.79c2,.13,4.15-.64,5.9,0,2.52.94,1.08,3.48.07,5.61l-.75.22c-4,1.27-8.53,4.21-10.14,8.2,3.7-1.15,6.91-3.43,10.86-4.36,3.64-.86,7.43-.59,11-1.36.94.35,1.88.72,2.86,1.05,2.37.8,6.16,4.22,7.8,6.36,1.25,1.61,8-.7,8.68-1.06-10.07,2.06-20.28-15.21-7.63-18.38,4.94-1.24,10.65.56,12.51,5.58a11.19,11.19,0,0,1,.35,7.18c-.6,2-2.5,3.48-3,5.08a9,9,0,0,0,5.71-9.68c-.89-4.77-2.84-5.12,1.28-8.78,1-.91,2.3-3,3.75-3.11s4,1.63,5.53,2a12.14,12.14,0,0,0,10.43-1.71l-18.76-1.18a19,19,0,0,0,2.11-3.31,6.7,6.7,0,0,1-1.58.8c-7.05,2.42-14-.66-20-4.18-3.32-1.94-6.21-4.13-8,.2-.76-4-.1-8.73.58-11.91.11-.54.19-1,.24-1.34,3.46-2.83,5.61-5.78,10.51-6.29,3.45-.36,9,2.93,11.71,2,3.2,1.4,5.79,3.46,6.89,7.4,1.43,5.08,1.68,9.15-.38,13.32,4.41-3,4.49-10.61,3.1-15.22a9.07,9.07,0,0,0-2.8-4.38c5.43-3.86,10.78-9.21,18.14-6.44,5.94,2.23,10.69,5.89,12.33,11.5a16.61,16.61,0,0,0-.59-4.24,14.4,14.4,0,0,0-8.79-10c-8.92-3.4-18.11-.68-21.6,8.74-3.06-2.29-7.49-2.75-11.54-2.6-6.86-4.25-12,1.31-19.53,1.94C101.39,197.93,96.7,195,90.71,200.52Zm37.53-5a44.45,44.45,0,0,1,4.73,1.62l-3.52-.75A11.82,11.82,0,0,0,128.24,195.57Zm-21.61,42.28a6.14,6.14,0,0,0,1.06-.1l.25.09Z"/></g><path class="cls-27" d="M176.84,244.37l-.87-2.18c5.52,7.69,4.46,15.39-1.86,22-5.64,5.93-17.57,9.28-24.15,2.75-7.31-7.25-2.33-17.82,5-22.76C160.13,240.71,172.76,237.88,176.84,244.37Z"/><path class="cls-27" d="M206.72,223c1.69,3.92,1,8.56-.68,12.41-3.22,7.64-12.83,12-20.66,9.44-19.33-6.38-1.94-37.69,14.57-28.56C202.82,217,205.83,221,206.72,223Z"/><path class="cls-27" d="M174.07,178.31s-6.3,7.39-18,1.81c-6.83-3.24-10.14-13.1-4.53-19.2C162.88,148.58,188.76,165.83,174.07,178.31Z"/><path class="cls-27" d="M138.28,200.47c2.72-6.37,10.62-11.09,17.33-10.05a18.89,18.89,0,0,1,11.71,7.32,10,10,0,0,1,1.7,9l.23-.57c2.49,3.67-2.88,10.09-5.87,11.88a19,19,0,0,1-10.42,2.9,16.51,16.51,0,0,1-11.85-5.52c-2.66,4.06-7.8,7.15-12,7.55-8.37.8-17.77-2.37-20.33-11.28-2.42-8.4,5.39-16.53,13.65-17.13C126.8,194.24,133.61,196.63,138.28,200.47Z"/><g class="cls-2"><path class="cls-17" d="M208.27,249.27c-1.72-4,2.15-10.52,4.52-13.45,1.32-1.64,3.2-4,5.51-4a3.5,3.5,0,0,1,2.85,1.33l-.06-.28c0,.1,0,.21.07.3a3.73,3.73,0,0,1,.66,3l-.3-1.31a17.8,17.8,0,0,1-2.4,10.73C217.39,248.53,210.92,255.48,208.27,249.27Z"/><path class="cls-17" d="M197.47,248c5.4-.62,7,3.74,6.28,7.82l.55-1.49c1.58,9.62-21.14,16.93-17.65,5C187.8,255.33,193,248.46,197.47,248Z"/><path class="cls-17" d="M189.15,237.78c-1-4.39,4.47-10.24,7.8-12.3s10.4-3.42,9.7,2.66l-.51-1C209.17,236.61,191.48,247.64,189.15,237.78Z"/><path class="cls-17" d="M159.12,256.84c2.31-3.8,8-8.21,12.53-8.82,6.56-.88,7.18,4.61,5.33,9.08l.26-.42C176.82,268.76,151.41,269.52,159.12,256.84Z"/><path class="cls-17" d="M150.61,239c.67,2,.22,3.13-1.89,3.12-3.9,1.3-8.55,1.4-11.45-1.82-3.65-4.06,1.15-10.45,4.9-12.95,1.29-.86,4.92-2.77,6.44-1.47,1.37,1.19.09,4.66,0,6.29C148.56,235.12,149.78,236.41,150.61,239Z"/><path class="cls-17" d="M130.58,227.66l.08.19,0-.11A.22.22,0,0,1,130.58,227.66Z"/><path class="cls-17" d="M130.9,238.06c-.82,1.63-7.31,8.46-9.38,5.58-1.27-1.77,2-9.56,2.7-11.29,1-2.65,4.34-8.21,6.37-4.6C131.39,231.23,132.63,234.63,130.9,238.06Z"/><path class="cls-17" d="M130.66,227.86a7.29,7.29,0,0,1,.56,1.37Z"/><path class="cls-17" d="M134.94,259.34c2.35,1.71,11.29,4.62,6.28,7l2.16-.88c-3.59,1.7-7.27,3.14-11.22,2s-7.84-5.3-6.41-9.68C127.8,251.46,132.18,257.33,134.94,259.34Z"/><path class="cls-17" d="M149.77,213.8c-1.43-4,5.39-10,8.58-11.77,4-2.17,11.52-2.8,11.38,3.71l-1.36-2.25C174.59,213.05,153.51,224.31,149.77,213.8Z"/><path class="cls-17" d="M168.23,235.67c-3.45-.1-9.45.89-8.55-4,.7-3.88,5.61-8,9.43-8.48,5.19-.64,6.81,1.5,5.67,5.57C175,233.06,172.52,235.8,168.23,235.67Z"/><path class="cls-17" d="M180.58,207.14c-5.84-7,11.52-15.17,15.57-7.24,4,2-1.12,8.27-3.4,9.47A9.75,9.75,0,0,1,180.58,207.14Z"/><path class="cls-17" d="M176,184.41l-.28-.39c1,4.17-5.78,14.87-11.72,6.37-2.77-4,1-5.22,4.4-6.9C170.9,182.28,176.58,179,176,184.41Z"/><path class="cls-17" d="M160.34,174.54c.75-2.61,7.36-3.06,9.52-3.53,1.9-.42,9-.61,6.61,2.7.05,1.92-5.21,5.4-7.22,5.93C166.74,180.29,159.2,178.52,160.34,174.54Z"/><path class="cls-17" d="M187.92,172.88c7.22-1.08,15.54,11,5.1,12.54l2.26-1.36C190,187.57,179.22,174.18,187.92,172.88Z"/><path class="cls-17" d="M139.55,204.3c3.33,4.19,1.91,8.6-1.25,11.63-2.27,3.11-8,4.95-11.05,4.52-2.09-.29-7-1.91-6.51-4.82.39-2.27,5.67-4.07,7.05-6,1.74-2.42.91-6.3,3.31-8.14C133.9,199.37,137.72,202,139.55,204.3Z"/><path class="cls-17" d="M108.06,213a5.84,5.84,0,0,1,.62,6.64c-1.33,3.81-7.23,5.66-10.72,5.94-4,.33-14.85-3.32-10.63-9.18,1.56-2.17,4.63-1.43,6.92-1.57,2.81-.19,4.69-1.12,7.15-2.35C104.07,211.14,105.93,210.24,108.06,213Z"/><path class="cls-17" d="M118,246.57l0-.68c2.6,5.63-4.61,10.76-9.23,12.05-3.38.95-15.34,1.16-15.45-4.16-.1-5.09,9-7.95,12.53-9.42,2.75-1.13,4.88-2.12,7.82-1.29A7.34,7.34,0,0,1,118,246.57Z"/><path class="cls-17" d="M85.77,229.55v0c5.85,5.89-8,19.23-12.8,13.26-2.41-3,2.22-9.38,4.37-11.53S84.23,227.19,85.77,229.55Z"/><path class="cls-17" d="M120,190.79l-.08.87c-2.73.62-5.84,2.24-8.54,2.25-1.88,0-8.83-1.21-10-2.48.79-2.66,5.75-3.8,8.19-3.94C113.5,187.27,116.79,188.73,120,190.79Z"/><path class="cls-17" d="M140.65,174c5.63,1.74,1.88,5.25,2.79,9.84l-.72-.69a12.37,12.37,0,0,1-12.07.74c-3.7-1.78-7.43-7.13-2.8-9.85C131.59,171.8,136.78,172.76,140.65,174Z"/></g><g class="cls-10"><path class="cls-17" d="M221.59,240.13l-.61-2.7a9.36,9.36,0,0,1-1.35,7.44c-1.22,1.71-5.35,5.11-6.5,1.86-.72-2.06,2.93-7.23,4.13-8.73C219.52,235.15,222.83,236.22,221.59,240.13Z"/><path class="cls-17" d="M205.75,231.8l.52-1.58A8.86,8.86,0,0,1,205.75,231.8Z"/><path class="cls-17" d="M205.6,232.24a8.76,8.76,0,0,1-.35,1.06Z"/><path class="cls-17" d="M205.6,232.24a1.22,1.22,0,0,0,.06-.26l.09-.18Z"/><path class="cls-17" d="M194.88,235.36c.73-2.81,4.21-7,7.12-7.69,3.47-.87,4.3,1.6,3.67,4.31a12.84,12.84,0,0,1-5.42,5.59C197.37,239.12,193.77,239.61,194.88,235.36Z"/><path class="cls-17" d="M203.21,257.85c-2.41,5-13,7.21-11.26,1.65.88-2.79,4.76-6.2,7.57-6.84C202.88,251.89,205.67,255.26,203.21,257.85Z"/><path class="cls-17" d="M165.56,259c1.16-2.48,5.15-5.84,7.91-6.39,4.34-.86,4.42,2.4,3.09,5.17C174.86,263.6,162.64,265.21,165.56,259Z"/><path class="cls-17" d="M166,230.17c2.76-6.29,10.77-.93,6.53,2v0C170.58,234.16,164,234.9,166,230.17Z"/><path class="cls-17" d="M160.73,208.71c1.54-1.19,2.46-2.65,3.8-4,1.14-1.12,2.08-3.11,3.82-1.28.86.91.59,2.17.12,3.28l.24-.49c.51,3.28-2.22,6.56-5,7.91-2.14,1-8.2,1.45-6.8-2.41C157.33,210.49,159.7,209.5,160.73,208.71Z"/><path class="cls-17" d="M185.93,203c2-3.78,9.44-1.24,8.27,1l.15-.13C193.12,207.49,183.81,206.91,185.93,203Z"/><path class="cls-17" d="M174.25,187.69l.36-.69c-.82,2.75-3.75,5.63-6.74,4.38.52-1.07,1.59-1.59,2.32-2.55.85-1.12,1.35-3.88,2.66-4.57C176,182.63,175.2,185.57,174.25,187.69Z"/><path class="cls-17" d="M139.51,212.41a8.27,8.27,0,0,1-5.41,5.6c-1.38.44-4.27.77-5.24-.77s.12-1.85,1.42-3,2.56-1.76,3.65-3.28c.84-1.19,1.58-4.09,3.43-4.29C140.66,206.29,140.63,210,139.51,212.41Z"/><path class="cls-17" d="M142.58,230.41c5.78-4.14,1.86,5.94,3.49,9.12l.54-.12C140.31,241.43,137.43,234.09,142.58,230.41Z"/><path class="cls-17" d="M132.26,261.7a11.17,11.17,0,0,0,4.6,2.63c1.37.33,2.84-.38,3.83.73a3.31,3.31,0,0,1-1.39,1.87c-3.93.75-13.89.92-12.1-5.78C128.27,257.19,130.67,260.33,132.26,261.7Z"/><path class="cls-17" d="M139.17,267a.4.4,0,0,0,.13-.07l.4-.07Z"/><path class="cls-17" d="M135.44,268.1l3.73-1.09A7.12,7.12,0,0,1,135.44,268.1Z"/><path class="cls-17" d="M117.32,246c4.68,9.44-13.8,15.11-14.64,11-.49-2.43,2.6-2.19,4.11-3.07a15.61,15.61,0,0,0,4.42-4.59c.7-1,2.68-5.92,3.81-6.21C116.48,242.74,117.18,244.46,117.32,246Z"/><path class="cls-17" d="M108.15,217.88l.24-.29c-.79,9-17.23,6.88-15.18,2.14.77-1.78,7.09-3.71,8.86-4.28C104.67,214.61,108,216.06,108.15,217.88Z"/><path class="cls-17" d="M84.08,235.88a11.64,11.64,0,0,0,.64-1.27,2.78,2.78,0,0,0,.21-.27Z"/><path class="cls-17" d="M84.93,234.34l.76-1.38A5.84,5.84,0,0,1,84.93,234.34Z"/><path class="cls-17" d="M84.71,234.6c-2.46,3.16-8.12,6.58-6.69.87C79.34,230.23,87.15,228.86,84.71,234.6Z"/><path class="cls-17" d="M129.9,231.85l.06-.63c1.2,4.11-1.39,11.26-6.43,11.41.3-2,1.67-3.95,2.35-5.94.57-1.72.22-5.32,1.15-6.68C128.56,227.79,129.55,229.47,129.9,231.85Z"/><path class="cls-17" d="M164.11,176.08a30.52,30.52,0,0,1,7-1.37c2.69-.36,5.06,1,1.73,3.3l1.59-1.78C172.56,178,163.48,181.74,164.11,176.08Z"/><path class="cls-17" d="M192.21,183l1.63-.37c-1.71-.66-8.71-5.79-4-6.56C193.6,175.5,198,183.84,192.21,183Z"/><path class="cls-17" d="M141.63,180.8c-3,4.4-13.91-.16-7.81-3.66C138.35,174.54,145,178.26,141.63,180.8Z"/><path class="cls-17" d="M115.87,191.44l.4-.18a3.28,3.28,0,0,1,.75.21Z"/><path class="cls-17" d="M117.52,190.19a4,4,0,0,1-1.26,1.07c-2.85-.48-10.62.35-9.83-2.29C107.46,185.49,116.5,188.19,117.52,190.19Z"/></g><path class="cls-17" d="M222,240.62l-.1-.24c-.43,2.69-3.82,6.1-5.85,6.19,0-1.47,2.13-5.12,2.79-6.82C220.06,236.62,222.12,237,222,240.62Z"/><path class="cls-17" d="M203.38,259l.1-.41a8.35,8.35,0,0,1-2.88,2.6c-1.54.84-4.89,1.8-3.91-.75.34-.86,4.58-4.44,5.35-4.89C205.37,253.68,204.75,256.86,203.38,259Z"/><path class="cls-17" d="M204.11,228.9c3.65-.4,1.73,4.09.24,5.45l1-3.08c-.82,2.8-8.18,8.11-6,2.9C199.72,233.2,203.12,229,204.11,228.9Z"/><path class="cls-17" d="M177.4,257c.08,1.07-.77,2-1.83,2.71l.33-.17c-2.11,1.64-6.12,3.67-8.62,2,.74-1.95,5.19-4.85,7.12-5.54C175.89,255.48,177.22,254.86,177.4,257Z"/><path class="cls-17" d="M139.54,265.87l.47-.22a7.14,7.14,0,0,1-.65.41,2.47,2.47,0,0,1-1.18.58c-2.38.93-5.41.82-6.91-1.29,2-1,5.9-.73,8.17-1.2A1.59,1.59,0,0,1,139.54,265.87Z"/><path class="cls-17" d="M168.66,206.45l.05-.19a2.5,2.5,0,0,1,0,.29c.44.51.18,2-1,3.55-1.43,2.21-3.94,4.14-5.84,3.71.75-1.78,3.15-4,4.4-5.71S168.23,206.16,168.66,206.45Z"/><path class="cls-17" d="M139.39,213.73l.12-.5c-1.62,3-5.27,6-7.37,3.56.48-1.2,1.53-1.82,2.46-2.75,1.17-1.15,1.88-2.84,3-3.92C140.3,207.43,141.59,211.48,139.39,213.73Z"/><path class="cls-17" d="M172.47,177.76a3.63,3.63,0,0,1-.73.74l.85-.43a4.32,4.32,0,0,1-.86.43,3.22,3.22,0,0,1-1.18.6l1.17-.59c-1.81.72-4.13.52-5.35-1C167.84,176.52,171.21,176.47,172.47,177.76Z"/><path class="cls-17" d="M117.67,247.62v-.26c1.54,3.25-3,8.17-6.3,7.53-.15-1.64,3.83-7.45,5.16-8.38A2.41,2.41,0,0,1,117.67,247.62Z"/><path class="cls-17" d="M105.53,219.93c.7,1.77-3,2.55-3.93,2.89l1.36-.68c-2.13.53-4.66-.19-1.63-2C102.16,219.61,104.94,218.43,105.53,219.93Z"/><path class="cls-17" d="M82.78,236.46l.24-.55a3.54,3.54,0,0,1-2.39,1.27c0-2,2-5.41,4.28-4.89A3.82,3.82,0,0,1,82.78,236.46Z"/><path class="cls-17" d="M131.45,236.58l-1.36-2.26c1.34,1.8-.44,4.75-2.51,5.07C127,235.91,129.83,230.84,131.45,236.58Z"/><path class="cls-17" d="M172.8,229.61c.13,1-2.16,1.83-4,2.39a4.08,4.08,0,0,1-1.8.86c-3.39-.09-.21-3.47,1.26-4C169.31,228.42,172.58,228,172.8,229.61Z"/><path class="cls-17" d="M139.94,180.89a2,2,0,0,0,.41-.4l.34-.05Z"/><path class="cls-17" d="M140.36,180.49c-1.63.2-5.81-.21-3.59-2.29C138,177.05,141.8,178.74,140.36,180.49Z"/><path class="cls-17" d="M175.37,186.55l-.79-1c1.17,1.6-.54,4.41-2.41,4.26a8.39,8.39,0,0,1,2.21-5C175.14,185.13,175.24,185.72,175.37,186.55Z"/><g class="cls-8"><path class="cls-3" d="M177.92,238.32c-2.29-4-1.17-9,.7-13,4.19-8.85,15.38-12.48,23.33-6.69l.24,1.08c-5.73-5.39-15.5.19-19,5.42-2.08,3.11-3.49,7.59-2.62,11.41,1,4.18,5.18,5.39,8.61,6.91C185.27,245.45,179.86,241.71,177.92,238.32Z"/><path class="cls-3" d="M165.05,198.84l0-.74c.12.07.24.13.36.21A.37.37,0,0,1,165.05,198.84Z"/><path class="cls-3" d="M141.66,209c-.32-4.69-4.39-7.64-.91-11.75,6.67-7.89,17.37-7.93,24.19,0l.06,1c-6.14-3.44-13.68-5.32-19.59.17s-2.14,13.87,1.06,19.38c-1.46-.61-4.27-1.72-4.9-3.13C141,213.35,141.75,210.28,141.66,209Z"/><path class="cls-3" d="M174.05,164.37h0c-3.41-3-12.35-3.59-15.5-2.52-6.76,2.3-7.95,10-4.1,15.16-3-.58-4.86-5-5.18-7.77-.43-3.82,2-8,5.1-10.14C161.86,153.93,168.84,158.94,174.05,164.37Z"/><path class="cls-3" d="M174.06,164.39a3.72,3.72,0,0,1,1.3,2Z"/><path class="cls-3" d="M117.74,196.59c4.69-2.59,10.17-1.38,15,.39,5.36,2,7.84,5.71,8,11.32l-.31-1.36c-1.15-3.51-7.54-6.32-11-6.94a17.61,17.61,0,0,0-10.67,1.85c-3.18,1.72-7,5.58-6.58,9.47.38,3.57,3.76,7.78,7,9.11C106.81,216.44,106.84,202.58,117.74,196.59Z"/><path class="cls-3" d="M157.77,270c.41,0,.8,0,1.22,0A3.58,3.58,0,0,1,157.77,270Z"/><path class="cls-3" d="M176.88,246.24a2.11,2.11,0,0,0,0-.25c.47.08.95.12,1.4.22Z"/><path class="cls-3" d="M164.39,242.57c2.54-.32,13-.68,12.51,3.42-6.8-1-15.16.52-20.46,4.85-3.53,2.9-6.69,7.06-5.46,11.77.72,2.78,3.53,6.94,6.79,7.35-11.54.09-14.45-14.54-6.52-21.92C154.47,245,160.07,243.13,164.39,242.57Z"/><path class="cls-3" d="M180.21,254.87c.92-3.86-2.29-8.81,3.37-10.42,1.94-.55,4.18.76,6.17.89a20.42,20.42,0,0,0,5.81-.75c4.37-1,8.28,1.59,8.87,6.52l-.12-.54c-3.06-7.08-11.33-5.47-16.49-1.81-3.37,2.4-5.14,5-7,8.62-1.64,3.13-.93,5.24-1.78,8.41C173.47,262.41,179.13,259.4,180.21,254.87Z"/><path class="cls-3" d="M111.24,215.59c-4.64-2.47-4-7.23-6.86-10.75l.94.36a4.29,4.29,0,0,0,1,0c-4.39-3.57-14.78-1.07-19,1.66-3.15,2-5.57,4.51-5.57,8.51s2.55,5.77,4.72,8.74c-11.1-5.46-7.61-20.59,3.25-23.63,5.31-1.49,10.8-.35,15.6,2.16C109.79,204.94,107.72,211.78,111.24,215.59Z"/><path class="cls-3" d="M118.29,243.81l-.39-.48c-6.4-4.34-16.79-5.19-23.37-.85-8.59,5.66-5.82,13.54,1.72,18.2-5.07-1.64-10.59-3.89-11.88-9.78-1.17-5.36,2.82-11.3,7.25-13.74C100.9,232.06,112.93,234.86,118.29,243.81Z"/></g><g class="cls-2"><path class="cls-25" d="M189,168a17,17,0,0,0-9.48,1.15c-3-4.73,2-5.46,5.9-5,4.78.52,10.69,2.67,12.28,7.76l.85,1.23C195.08,171.2,193,168.64,189,168Z"/><path class="cls-25" d="M147.05,170.75l-.67-.41c-6.35-3.51-13.32-5.83-20.12-1.57a10,10,0,0,0-4.9,8.92c0,4.42,2.1,5.65,4.83,8.56-3.68-.77-7.69-6-8.45-9.45-1-4.63,1.71-8.88,5.65-11.24C130.65,161.19,142.3,163.58,147.05,170.75Z"/><path class="cls-25" d="M209.16,222.65c1.47-1,4.36-.62,6-.47-5.2,1-8,10.43-8.75,15.12-.93,5.95-1.41,12.22,3.89,15.91L210,253c.09,1.48-2.69,1.06-3.41-.06s0-4.14-.68-5.57-5.07-3.46-5.23-4.37c-.3-1.73,1.69-2,2.75-3.06,3-3,5.05-9.1,4.83-13.31C208.13,224.35,207.23,224,209.16,222.65Z"/><path class="cls-25" d="M154.4,223.82a.46.46,0,0,1-.38.55l-.85-1.23a32.92,32.92,0,0,1-3.41-1.73A9.66,9.66,0,0,1,154.4,223.82Z"/><path class="cls-25" d="M100.73,227.7c1-1,3.34-.8,4.63-1.47,2.83-1.46,4.21-6.5,7.82-6.39,3.32.11,5.84,3.49,9.6,3.55,4,.07,9.81-.14,9.64.07,3.21-.11,5.64-3.9,9.19-4.28,3.34-.35,5.69.88,8.15,2.23a13.64,13.64,0,0,0-12.61,3.89c-2,2.3-3.09,6.57-3.24,9.58-.21,4,2.68,5.17,3.84,8.42-4.71-1.54-5.78-3.47-5-8,.47-2.81,1.57-8-1.12-10.1-3-2.3-6.36,1-9.2,1.48-3.42.62-7.42-3.2-10.66-2.64-2.85.5-5.54,6.19-4.23,8.72,1,1.83,2.2,1.28,4,2.09s3.23,2.42,4.77,3.66c-4.8-3.56-11-5.19-16.83-5.67C99.63,231.64,99.81,228.55,100.73,227.7Z"/><path class="cls-25" d="M125.42,192.13a1.64,1.64,0,0,0-.47-1.65c.48.39,1,.78,1.48,1.14Z"/><path class="cls-25" d="M123.72,189.45a5.44,5.44,0,0,1,1.23,1Z"/><path class="cls-25" d="M123.72,189.45c-3.11-2-9.46-3.44-11.35-3.42-3.94,0-13.75,2.34-14.83,6.85-1.42,6,10.24,4.5,13.35,3.64,4.67-1.28,10.86-5.81,15.68-2.66-3.11-.14-6.41-.27-9.42.76a10.76,10.76,0,0,0-4.49,2.85c-1,1-2.35,4.26-3.66,4.58-2.66.62-7.18-3.59-10.13-4-2.56-.31-7.64,2-8.19-1s3.65-7.54,5.93-9c2.8-1.76,6.34-2.47,9.51-3.28a19.87,19.87,0,0,1,9.78-.19C119,185.41,121.35,187.44,123.72,189.45Z"/><path class="cls-25" d="M86.24,226.57c-.39-.22-.74-.44-1.07-.66.23.05.45.11.68.18Z"/><path class="cls-25" d="M85.17,225.91c-5.62-1.49-10.65,1-14.91,4.86-2.38,2.19-4.59,5.12-4.5,8.52.1,4.11,2.82,4.37,5.34,6.56-3.62.91-7.23-3.2-8.2-6.33-1.29-4.13.93-8.6,3.73-11.61a18,18,0,0,1,9.93-5.15C80.85,222,82.19,223.94,85.17,225.91Z"/><path class="cls-25" d="M178.23,174c1.74,4.53.49,6.36,5.63,8.59,4,1.75,8,3.8,11.83,5.9-1.34,1.29-3.37,1.66-5.21,2L195,189c-2.56-.25-5.37,1.8-7.93,2.05a25.71,25.71,0,0,1-4.2-.21,28,28,0,0,1,11.1,4.94l.12.53c-3-4.42-15.22-2.72-18.55.35-2.66,2.44-3.47,6.58-3.58,10-.13,4.15,1.75,5.28,3.4,8.33-1.45.16-5.18-.56-5.9-2.05s.94-4.62,1.06-6.24a16,16,0,0,0-.93-6.62c-1-2.43-2.44-2.43-.54-4.73a13.4,13.4,0,0,1,12.07-4.8,12.4,12.4,0,0,1-3.26-.83c-2.56-1.38-1.35-4.78-1.62-7.35C175.84,179,175.3,176.58,178.23,174Z"/></g></g></svg>