<svg id="Apple" xmlns="http://www.w3.org/2000/svg" viewBox="0 0 370 330"><defs><style>.cls-1{fill:#ad2b1b;}.cls-2{fill:#c83725;}.cls-3{fill:#d13a26;}.cls-4{fill:#db4633;}.cls-5{fill:#729b31;}.cls-6{fill:#e36f5b;}.cls-7{fill:#f5a593;}.cls-8{fill:#ba301f;}.cls-9{fill:#ae2a19;}.cls-10{fill:#b52718;}.cls-11{fill:#a11b0e;}.cls-12{fill:#df4b2d;}.cls-13{fill:#83b33c;}.cls-14{fill:#a9d357;}.cls-15{fill:#658827;}.cls-16{fill:#f28977;}.cls-17{fill:#946447;}.cls-18{fill:#ae7d5c;}.cls-19,.cls-39{fill:#fff;}.cls-20{fill:#b72f1e;}.cls-21{fill:#e17e43;}.cls-22{fill:#e16543;}.cls-23{fill:#e48b6c;}.cls-24{fill:#de704a;}.cls-25{fill:#d05843;}.cls-26{fill:#a62615;}.cls-27{fill:#855a40;}.cls-28{fill:#587721;}.cls-29{fill:#d76d35;}.cls-30{fill:#c88945;}.cls-31{fill:#f7e7be;}.cls-31,.cls-32,.cls-33,.cls-35,.cls-38,.cls-39,.cls-40,.cls-41{fill-rule:evenodd;}.cls-32{fill:#fbf2d9;}.cls-33{fill:#fef8e7;}.cls-34{fill:#961e0f;}.cls-35{fill:#ddc7aa;}.cls-36{fill:#5f4545;}.cls-37{fill:#8d7373;}.cls-38{fill:#ecdfc3;}.cls-40{fill:#fffaeb;}.cls-41{fill:#ebd9b8;}.cls-42{fill:#ce4b3b;}.cls-43{fill:#facac0;}</style></defs><path class="cls-1" d="M100.7,126.12c7.8-9.53,27.88-15.49,38.26-8.65,7.33-2.59,19.09-.62,26.36,1.71,2.53.81,10.29-.28,17,2.23,10.2,3.81,18.17,9.24,22.35,19.64,12.36,30.76-2.23,65-26.41,85.84-4.37,3.76-9.57,4.26-15,3.48a9.29,9.29,0,0,1-3.2-1.08l-3.18,1.54c-8.56,3-12.61-1-12.86-.89a32.06,32.06,0,0,1-7.9,1.55,23.33,23.33,0,0,1-11.52-1.65c-11-4.74-20.37-20.76-25.39-31.63-9.68-21-14.06-53.14,1.44-72.09Z"/><path class="cls-2" d="M101.69,127c7.51-9.19,25.82-15.16,35.84-8.56C144.6,116,157,118.1,164,120.35c2.43.77,6.81.88,13.32,3.3,9.84,3.67,6.18,11,10.2,21.08,11.93,29.66-1.07,48.76-24.4,68.84-4.22,3.63,4.17,14.79-1.06,14a9.16,9.16,0,0,1-3.1-1.05l-3,1.49c-8.26,2.85-12.17-.94-12.41-.86a31.27,31.27,0,0,1-7.63,1.5,22.56,22.56,0,0,1-11.11-1.6c-10.6-4.57-19.64-20-24.48-30.51C91,176.35,86.73,145.32,101.69,127Z"/><path class="cls-3" d="M102.35,129c.79-.89,1.37-2.44,2.46-3.27.69-.53,1.28-1.49,2.55-2.46a42.22,42.22,0,0,1,9.41-5.06c2.67-.78,6.68,1.75,6.81,3.74.08,1.09-2.54,2.25-1.49,2.29,6.58.28,20.71,4.28,24.15,5.29.49.15,3.47.54,4.49.06a27.13,27.13,0,0,1,13.94-2c3.53.41,6.61,1.25,8.18,4.84,2,4.49-4.06,3.83-4.41,8.48-.3,4.11-30.42,6.92-31.71,10.84-1,3.06,5,7.87,12.06,12.77,8.59,6,1.64,26.23-1.69,28.86-3.07,2.44-6.73,2.77-10.54,2.26-8.7-1.14-12.93,2.08-18.1,0-7.73-3.06-13.83-13.55-17.35-20.58-3.23-6.45-4.35-9-5.46-16.33a46.46,46.46,0,0,1,.24-16A28,28,0,0,1,102.35,129Z"/><path class="cls-4" d="M158.5,135.4c-2-.09-2.11,4.37-6.71,5.34-4,.85-3.27,1.39-8.32,1.55-3.35.11-1.95,1.84-5.24,1.55-1.31-.12-3.73.6-4.32,2.11s-4.46-.74-6.65,2.38c-1.68,2.37-4.17.93-7.34,1.27a27,27,0,0,1-9.48-1.27s-2.41,1.63-3.17,1.93c-6.13,2.4-2.62-2.09-3.71-5.22a55,55,0,0,1-1.33-6.38c0-5.09,3.48-2.93,4.91-7.39,1.17-3.66-5-2.83,1.31-4,3.84-.7,1.86.14,3.06-3.49.78-2.35,4.24-4.73,6.37-5.62,4.89-2,9.6-1.41,14.9-1.13,3.11.17,8.48,4.29,6.5,5-.92.34-3.25-.06-4.32,0s-15.78.71-15.32,1.45c1.25,2,9.32,2.11,12.2,2.83,4.53,1.13,5.72,2.46,11.12,3.14a26.84,26.84,0,0,0,5.93.54c3,0,9.54-.54,12.16-1.31,1.42-.41,9.06-.3,9.48.86,1,2.7-3.69,6.22-6.5,6.63-6.1.88-3.28-.64-5.53-.75Z"/><path class="cls-5" d="M169.52,105.9c1.75-.64,3.33-.19,4.85-.57a17.22,17.22,0,0,0,6.31-2.83l3.57-2.66c1.61-1.37,8.9-8.36,9.71-9.77l2.81-4c2.92-5.3,4.94-11,7.39-16.53,1.17-2.63,2.59-4.77,1.14-4l-1.83.45c-5.43,2.07-8.28,3.82-14.32,5.28L172.94,74a44.72,44.72,0,0,0-10.69,3.48c-13.86,8.68-13.05,11.6-19,25.39a1.7,1.7,0,0,0,.93,1.74c6.46,1.76,12,3,18.8,2.84a26,26,0,0,0,6.5-1.58Z"/><path class="cls-6" d="M152.73,136.67c-.5,2.76-4.29,5.1-10.15,5.92-2.39.33-5.72-1.07-8.37-.48-2.46.55-4.45,3.87-7.08,5.19a17.89,17.89,0,0,1-6.85,1.45c-2.78-.21-4.94-.23-7.08-.58-1.82-.3-3-2.22-4.35-2.14-1.07.07-2.61,2.91-3.12,3.12-.79.32-.74-2.82-.54-3.93.24-1.31,1.62-8.59,2.59-10.06s1.9-2.9,3.87-3.3,3.64.68,6,.58c2.61-.11,5.73-.95,8.21-.71A24.4,24.4,0,0,1,132.7,134c1,.51,3,.12,6.21,0,1.36-.07,3.62.69,5.14.77,4.92.25,9.09-.3,8.68,2Z"/><path class="cls-7" d="M122.58,141.7c-2.54-.21-11.77,1.91-13.84,1.42-1.71-.39-1.72-1.93-1.43-3.77a6.89,6.89,0,0,1,1.21-3c1-1.2,1-2.57,2.62-3,1.26-.3,2.77.36,5.39.53,2.43.16,5.67-.9,8.13-.5a61.52,61.52,0,0,1,8,2.08c.91.21-1.09,1.79-.69,2.13a1,1,0,0,1,.4.84c0,1-2.45.79-3.4,1.4-1.25.8-1.56,2.24-6.42,1.83Zm23.15-6.49c7.54,1.83-1.5,2.87-2.83,2.54-5.7-1.38.19-3.18,2.83-2.54Z"/><path class="cls-4" d="M148.85,121.77c-1.59,0-5.11.59-6.43.48-2.88-.23.17-2.12,2.6-2.45a19.59,19.59,0,0,1,5.57-.31c4,.37,5.36,2.4-1.74,2.28Z"/><path class="cls-6" d="M128.67,121.31c-2.5,0-7.82.89-9.91.72-1.6.4-1.51,1.56-2.47,1.67-3.41.41-4.55-1.67-.92-3.32,1.62-.74,4.81-1.26,7.28-2.19,4.11-.58,5.49-.78,8.77-.48,6.29.57,8.44,3.78-2.75,3.6Z"/><path class="cls-8" d="M165.67,183.38c-1.13,2.09-1.63,9.9-4.4,12.44-.53.48-11.87,11.17-13,11.81-5.84,3.29-14,1.57-20.16,3-2.47.6-12.53.16-18-4.61-5.22-4.58-8.77-10.76-10.15-10.55-1.38,0,3.71,8,7.23,14.34,1.68,3.05,4.14,5.49,4.3,6.08,3.36,6.91,8.22,9.5,13.92,11.65,6.88,2.59,11.6,3.81,18.73.4,5,3.29,12.16,3.66,16.47-.58,6.25,2.71,3.74-6.09,5.77-7.43,19.27-12.71,28.43-38.67,28.9-61.14.1-4.79-3.84-10-7.22-13.35-.93-.93,6.94-4.1,6.63-9.32-.21-3.35-10.16-9.24-13.13-11.31-4.18-2.91-11.09-3.95-11.68-3.7-.15.06-9.6-2.68-17.63-3.66-6.21-.76-11.62.12-10.86.49.22.11,7.79-.1,12.87.69a76.77,76.77,0,0,1,14.3,3.77c3.44,1.13,8.11,2.64,8.88,3.54.49.58,5,4,6.05,7s-1.18,5.66-1.35,5.85c-7.52,8.52-12.5,2.42-13.32,21-.57,12.64,0,17.81-3.15,23.55Z"/><path class="cls-9" d="M181.91,159.18c.8,9.57-1.22,23.77-2.2,26.22-2.05,5.1-6.41,11.78-10.59,16.72-6.05,7.15-11.05,9.41-14.86,11.73-7.4,4.5-11.26,3.71-15.48,5.62-1.2,0-2.7.1-4.35.19-3.23.19-7,.43-10.07-.18-2.33-.45-4.23-2.08-6.19-3.5-4.52-3.25-6.57-1.58-2.89,3.14,3.39,4.35,6.79,9.49,12.56,9.72,13.65.53,9.32,2.36,21.49-1.18,20.16-5.86,13.26,1.21,33.08-17.1,4.08-3.77,3.59-4.9,7.49-11.16,9.68-15.51,14.69-38.78,3.73-56.36-2.52-4-5.36,2.28-7.38,4.45-3.15,3.38-4.84,5.62-4.34,11.69Z"/><path class="cls-10" d="M129.65,122.54c3.58-.29,8.91-.65,12.2,1.18,9.33,5.2,2.5,1.39,6.4-.24,4.56-1.92,15.91.35,19.37,3.3,0,0,.75.68-.32.44a62.29,62.29,0,0,0-10.11.12c-18,1.45-3.72,2.69-21.74-2-1.72-.44-3.93-.85-5.79-1.12-5.3-.77-9.78-.93,0-1.72Z"/><path class="cls-11" d="M164,126c-.61-.52-6.39-2.35-10.88-2.41a10.42,10.42,0,0,0-5.31,1.67c-.26.11-.77,1.6-1.72,1.5-2.14-.22-7.1-2.41-7.12-1.3,0,.28,3.77,1.47,6,2.36,2.07.83,2.07.89,4.31-.06a10.46,10.46,0,0,1,2.62-1.13,50.54,50.54,0,0,1,11.75.07c.85.19.33-.7.33-.7Z"/><path class="cls-12" d="M125.63,163.67c.48,0,.79,3,1.11,7s1,6.5.54,6.53-2-2.36-2.29-6.39.15-7.11.64-7.15Z"/><path class="cls-12" d="M120.76,171.74c.59,0,.45,2.86.79,5.48.23,1.81.69,3.56.77,4.16.15,1.08.21,1.68,0,1.7s-.63-.48-1-1.42a22.92,22.92,0,0,1-1.06-4.71c-.31-2.52,0-5.19.53-5.21Z"/><path class="cls-2" d="M142,171.62c.34,0,.33,1.78.51,2.47.65,2.48.77,8.09.8,9.38s0,1.9-.28,1.92-.22-.6-.65-1.66a31.53,31.53,0,0,1-.91-9.66c.1-.83.22-2.44.53-2.45Z"/><path class="cls-12" d="M109.82,163.62c.58,0,.52,2.59.91,5,.27,1.65.76,3.25.86,3.79.17,1,.25,1.53,0,1.54s-.64-.45-1-1.31a19.38,19.38,0,0,1-1.16-4.29c-.38-2.28-.09-4.69.4-4.7Z"/><path class="cls-12" d="M103.6,145c.56.13-.14,2.64-.33,5-.14,1.66,0,3.33-.09,3.88-.07,1-.13,1.54-.35,1.5s-.51-.6-.69-1.53a19.2,19.2,0,0,1-.08-4.43c.2-2.32,1.06-4.58,1.54-4.47Z"/><path class="cls-13" d="M195.44,77.58c-12.31,10.13-4.83,6-19.06,13.51-.91.48,7.56.49,7.32,1.24-.08.26-8.25,1.49-8.59,1.66-4,2-9.88,2.92-4.56,4.05,2.84.59,6.35.53,5.78.73-2.21.8-16,4.16-18.23,2.4-1.54-1.22-6.47-.27-6.33-.59a26.83,26.83,0,0,1,4.43-4,51,51,0,0,1,6.47-3.29c4-1.64,10.48-4.33,14.34-6.35A105.78,105.78,0,0,0,194.5,75.83c3.42-3,6.18-6,7.6-6.45,1.2-.39-.19.41-1.54,2-1.83,2.14-4.14,5.4-5.12,6.2Z"/><path class="cls-14" d="M194.46,76.78c-3.06,3.07-8.37,6.41-13.27,9.48-1.22.77-2.67,1.39-3.89,2-2.49,1.29-4.76,2.43-7.27,3.44-2.29.91-10.95,5-12.52,5.14-.77.09-.17-.48,2.62-1.66,5.45-2.3,11-4.71,16.33-7.51a175.84,175.84,0,0,0,18-10.92Z"/><path class="cls-15" d="M155.55,103.14c.58-.59,3.9,1,8.24.9,5.61-.13,12.71-2.07,15.41-4.55,2.24-2-1.61-3.55.93-6,.28-.28,4.41-.47,4.73-.76.91-.85-1.86-1.83-.73-2.75.25-.2,6.44,1.53,6.69,1.33,1.32-1.06-.79-2.78-.49-4.14.51-2.33,2.91-4.35,4.23-5.54,2.82-2.56,4-5.2,4.74-5.2,1.51,0,1,.3-1.4,5.68a38.27,38.27,0,0,1-5,8.11,60.8,60.8,0,0,1-6.4,6.51c-2.69,2.51-5.5,5.53-9.64,7-3.82,1.34-5.49.93-11.27,2.43a28,28,0,0,1-5.24.38c-1.89-.07-4,.13-5.22-.06-2.5-.39-2.28-.62.39-3.29Zm-4.27-4.63c6.59-5.46,20.13-9.72,30.49-15.49A144.36,144.36,0,0,0,195,74.27c.2-.88-6.11,1.63-9.41,2.13-3.14.48-5.26-.71-10.28,7.86-.67,1.14-.53,1.37-.43.09,0-.52,1.49-2.48,3-4.74a11.87,11.87,0,0,1,3-3.15c1.16-.65,2-.59,2.07-1,.31-1.28-5,.83-6.6,1.29-2.63.77-7.49,4.67-10.48,8.3a12.26,12.26,0,0,0-2.56,4.65c-.27,1.65-.67,1.73-.54.12s1.43-3.64,2.77-5.26c3.39-4.08,8.79-7.25,9-8.16.27-1.06-11.49,5-11.93,5.21-9.28,4.73-8.94,3.62-15,12.17-.5.72-3.8,8.94-3.53,9a49.35,49.35,0,0,0,7.14-4.31Z"/><path class="cls-6" d="M163.75,129.81c-6.36-.1-11.43,2.78-18.41,1.89-1.31-.16-8.82-.65-14.7-1.59-3.33-.53-10.18-1.13-12.62-1.59s-3.15-3-3.72-3.52,1.76-.94,3.07-.87c.95.05.72.65,2.17.7.71,0,1.48.35,2.24.34,9.34-.11,21,5.85,27.32,5.66,3.77-.11,4.94-2.16,8.32-2.63a21.83,21.83,0,0,1,6-.17c5.63.51,4.44,1.85.36,1.78Z"/><path class="cls-16" d="M160.76,128.76a25.86,25.86,0,0,0-3.23.27c-2.74.38-6.2,2.12-.54,1,1.34-.27,2.94-.37,4.22-.58,4.24-.7,3.54-.73-.45-.67Zm-28.43-1.27a38.43,38.43,0,0,0-10.57-1.77c-3.75,0-6.86,1.3-.92,2.41a29.6,29.6,0,0,0,3.88.35,44.17,44.17,0,0,1,4.74.44c2.93.47,10.71.78,2.87-1.43Z"/><path class="cls-12" d="M134.26,174c.42,4.59.52,14.95.8,17.33.32,2.8-.29,3.14-.82.49a116.58,116.58,0,0,1-1.1-17.78c.17-3.33.82-3.24,1.12,0Z"/><path class="cls-12" d="M104.28,168.64c.67,3.1,1.6,10.16,2,11.76.46,1.89.07,2.15-.51.38a79.23,79.23,0,0,1-2.23-12.05c-.17-2.28.29-2.25.76-.09Z"/><path class="cls-12" d="M140.15,168.3c.25,1.86,0,6.07.14,7,.21,1.13-.41,1.27-.83.2a19,19,0,0,1-.42-7.2c.29-1.35.94-1.32,1.11,0Z"/><path class="cls-12" d="M113.86,169.27c.21,1.44.24,4.69.39,5.44s-.17,1-.45.15a21.76,21.76,0,0,1-.55-5.58c.1-1,.46-1,.61,0Z"/><path class="cls-12" d="M105.87,162.39c.14,1,0,3.28.08,3.8s-.22.69-.45.11a10.21,10.21,0,0,1-.23-3.9c.16-.73.51-.71.6,0Z"/><path class="cls-12" d="M100.29,151.57c.13,1,0,3.28.07,3.8s-.22.69-.45.11a10.56,10.56,0,0,1-.23-3.89c.16-.74.52-.72.61,0Z"/><path class="cls-17" d="M148.12,127.4c-.44-11-1.42-20.72-8.18-32.64-1.3-2.28-2.41-4.84-5.29-3.34-.68.35-3,3.36-2.25,4.37,1.82,2.28,3.54,3.47,5.14,6.26,4.15,7.26,7,15.37,6.8,23.82,0,1.78-.22,1,.82,1.62a4.41,4.41,0,0,0,1.7.47c.79.12,1.26.19,1.26-.56Z"/><path class="cls-18" d="M145.57,125.56c-.26-2.73-.54-5.87-1.09-9.51-.62-4.09-2.43-8.88-3.71-12.43-.88-2.43-3.52-6-5.05-7.82-.21-.26-1.27-1.76-1.15-2,.82-1.67,1-2.35.58-2a5.36,5.36,0,0,0-.78.54c-.7.7-1.66,1.79-1.51,2.92l1.75,1.88a28.32,28.32,0,0,1,4.93,7.25,63.94,63.94,0,0,1,4,10.57c.08.37.16.74.21,1.1a49.38,49.38,0,0,1,1,9.52c-.11,2.18.92,1.62.77,0Z"/><path class="cls-19" d="M125,126.35c2.59.27,4.58.69,4.59,1.13s-2.54.54-5.13.27-3-.71-3-1.16,1-.52,3.57-.24Z"/><path class="cls-20" d="M156.71,155.38c-.58,0-.23,3.76-.36,7.2-.09,2.38-.4,4.71-.44,5.49-.07,1.41-.08,2.21.13,2.2s.59-.7.9-2a37,37,0,0,0,.69-6.22c.12-3.31-.42-6.74-.92-6.71Z"/><path class="cls-20" d="M159.88,154.41c-.35,0-.14,2.3-.22,4.41,0,1.46-.25,2.89-.27,3.37,0,.87,0,1.35.08,1.35s.37-.43.56-1.2a23.75,23.75,0,0,0,.42-3.82c.07-2-.26-4.13-.57-4.11Z"/><path class="cls-20" d="M153.24,152.66c-.35.09.31,2.29.63,4.38.23,1.44.31,2.88.38,3.35.13.86.22,1.34.35,1.32s.27-.5.31-1.29a23.1,23.1,0,0,0-.33-3.83c-.31-2-1.05-4-1.34-3.93Z"/><path class="cls-20" d="M162.7,147.24c-.35,0-.13,2.3-.22,4.41,0,1.46-.24,2.89-.27,3.37,0,.87-.05,1.35.09,1.35s.36-.43.55-1.2a23.75,23.75,0,0,0,.42-3.82c.07-2-.26-4.13-.57-4.11Z"/><path class="cls-20" d="M158,184.76c-.77,0-.3,5.05-.48,9.68-.12,3.19-.54,6.32-.59,7.37-.09,1.9-.12,3,.18,3s.79-.94,1.21-2.63a53.1,53.1,0,0,0,.92-8.37c.16-4.45-.57-9.05-1.24-9Z"/><path class="cls-20" d="M189.11,161.73c-.77,0-.3,5-.47,9.61-.13,3.17-.54,6.27-.59,7.32-.09,1.89-.11,2.94.18,2.94s.78-.93,1.2-2.62a51.22,51.22,0,0,0,.91-8.3c.16-4.42-.56-9-1.23-9Z"/><path class="cls-20" d="M154.55,181c-.48,0-.22,3.1-.37,5.93-.1,2-.38,3.88-.41,4.52-.07,1.17-.09,1.82.09,1.82s.49-.57.76-1.61a31.34,31.34,0,0,0,.62-5.12c.13-2.73-.28-5.56-.69-5.54Z"/><path class="cls-21" d="M117.31,161.16c-.09-1.46,1.91-1.82,2-.58.14,2.34-1.85,2.91-2,.58ZM112.15,180c-.09-1.46,2-1.34,2.1-.1.14,2.34-2,2.43-2.1.1Zm-3.94-15.47c-.1-1.46,2-1.35,2.09-.11.15,2.34-2,2.43-2.09.11Zm18.61,5.7c-.09-1.46,2-1.35,2.1-.11.14,2.34-2,2.44-2.1.11Zm-6-8c-.1-1.47,2-1.35,2.09-.11.15,2.34-2,2.43-2.09.11Zm15.12,7a1.16,1.16,0,0,0,2.31-.24c-.08-1-.55-1.6-1.08-1.73-.77-.19-1.51.52-1.23,2ZM125,152.92c0-1.57,1.94-1.63,1.93-.3s-.31,1.75-.78,1.85-1.16-.27-1.15-1.55Zm-5,23.93c.35-2.66,1.83-2.15,1.54.1-.18,1.44-1.9,2.71-1.54-.1Zm-12.7-4.64c-.1-2,1.72-1.67,1.84,0,.13,2-1.79,1.12-1.84,0Zm6.77-.41c-.19-2.39,1.41-2.56,1.55-.53.1,1.37-1.45,1.84-1.55.53Zm5.87-2.74c-.24-1.76,1.77-1.83,2-.83.46,2.39-1.67,2.93-2,.83Z"/><path class="cls-22" d="M139.23,180.3c-.08-1.3,1.7-1.62,1.77-.52.13,2.08-1.64,2.58-1.77.52Zm-29.62-28.54c-.08-1.3,1.79-1.2,1.86-.1.13,2.08-1.73,2.17-1.86.1ZM126.2,180.7c-.08-1.3,1.8-1.2,1.87-.1.13,2.08-1.74,2.16-1.87.1Zm21.49,7.61c-.08-1.3,1.8-1.19,1.87-.09.12,2.08-1.74,2.16-1.87.09Zm14-55c-.09-1.3,1.79-1.2,1.86-.1.13,2.08-1.74,2.17-1.86.1Zm-17.5,33.94a1,1,0,0,0,2.06-.21c-.06-.91-.49-1.42-1-1.54-.68-.16-1.34.46-1.1,1.75ZM145.47,144c0-1.4,1.72-1.45,1.71-.27s-.27,1.56-.69,1.65-1-.24-1-1.38Zm-45.61-5.78c.26-2.37,1.68-2.39,1.59-.37,0,.33-1.82,2.54-1.59.37Zm30.45,51.93c0-1.61,1.56-1.35,1.64,0,.16,2.79-1.6,1.73-1.64,0Zm6-.37c-.14-2.12,1.25-2.27,1.38-.47s-1.26,2.46-1.38.47Zm5.22-2.44c-.13-2.76,1.66-3.07,1.74-.73.1,2.64-1.66,2.55-1.74.73Z"/><path class="cls-23" d="M114.81,129.8c.3-1.43,1.78-1.13,1.32,0s-1.62,1.38-1.32,0ZM111,151.18c-.1-1.46,2-1.34,2.09-.11.15,2.34-2,2.44-2.09.11Zm-1.14-20.65c0-1.47,1.43-1.62,1.39-.38,0,1.07-1.39,1.69-1.39.38Zm23,26.64a1.05,1.05,0,0,1,2.1-.11c.06,1.82-2.08,1.67-2.1.11Zm-30.75-4.87c.23-1.45,1.26-1.15,1.06.07-.24,1.44-1.3,1.37-1.06-.07ZM153,135.12a.74.74,0,0,0,1.46-.15c0-1.54-2-2.45-1.46.15ZM104.59,135c.07-1.15,1.44-1.13,1.38-.12-.11,1.9-1.45,1.14-1.38.12Zm13.54,15.66c.19-1.61,1.87-1.24,1.8-.42-.24,2.58-2.06,2.7-1.8.42ZM98.7,148.14c.25-.8,1-.36.78.28-.28.93-1.07.64-.78-.28Zm32.45,2.28c.09-2.4,1.63-2.56,1.55-.54-.07,1.58-1.59,1.34-1.55.54Zm1.46-17.8c.74-1.61,2-1,1.6,0-.47,1.27-2.08,1.06-1.6,0Z"/><path class="cls-3" d="M165.53,163.61c-.09-1.46,1.91-1.82,2-.59.14,2.34-1.85,2.92-2,.59Zm-5.16,18.79c-.09-1.46,2-1.35,2.1-.11.15,2.34-1.95,2.44-2.1.11Zm-3.94-15.47c-.09-1.47,2-1.35,2.1-.11.14,2.34-2,2.43-2.1.11Zm18.61,5.7c-.09-1.46,2-1.35,2.1-.11.14,2.34-1.95,2.43-2.1.11Zm-6-8c-.09-1.46,2-1.34,2.1-.11.14,2.34-2,2.44-2.1.11Zm9.56-14.76c.3,1.55,1.45,1.13,1.35-.22-.15-2-1.72-1.74-1.35.22Zm-5.32,5.54c0-1.57,1.93-1.63,1.92-.29s-.31,1.74-.78,1.85-1.16-.27-1.14-1.56Zm-5,23.93c.34-2.66,1.82-2.14,1.53.11-.18,1.44-1.9,2.71-1.53-.11Zm-12.71-4.63c-.1-2,1.73-1.67,1.84,0,.13,2-1.79,1.12-1.84,0Zm6.77-.41c-.19-2.39,1.41-2.56,1.55-.53.1,1.36-1.44,1.84-1.55.53Zm5.87-2.75c-.24-1.75,1.77-1.83,2-.83.46,2.4-1.67,2.94-2,.83Z"/><path class="cls-24" d="M123.42,190.9c0-1.24-1.65-1.51-1.7-.46-.08,2,1.62,2.44,1.7.46Zm4.72,15.83c.05-1.24-1.74-1.1-1.78,0-.08,2,1.7,2,1.78,0Zm3.05-13.19c.05-1.24-1.73-1.1-1.78,0-.08,2,1.7,2,1.78,0Zm-15.66,5.18c0-1.24-1.74-1.1-1.78-.05-.08,2,1.7,2,1.78.05Zm5-6.93c0-1.24-1.74-1.1-1.78,0-.08,2,1.7,2,1.78,0ZM107.81,198a1,1,0,0,1-2-.15c0-.87.43-1.37.88-1.49.65-.17,1.29.41,1.08,1.64Zm8.93-13.95c0-1.33-1.68-1.35-1.64-.22s.29,1.48.69,1.56,1-.25.95-1.34Zm4.7,20.18c-.34-2.25-1.59-1.78-1.3.12.18,1.22,1.66,2.26,1.3-.12Zm10.69-4.16c0-1.71-1.5-1.39-1.56,0-.08,1.67,1.53.91,1.56,0Zm-5.75-.22c.11-2-1.24-2.14-1.33-.42-.06,1.16,1.26,1.53,1.33.42Zm-5-2.22c.17-1.49-1.53-1.52-1.68-.66-.34,2,1.47,2.45,1.68.66Z"/><path class="cls-25" d="M199.12,186.25c-.9,2.94-2.94,8.74-3.65,11.11-1.17,3.92-3.84,10.94,1.1.1q1.91-4.17,4.11-9.5a66.85,66.85,0,0,0,3.84-18.06,87.6,87.6,0,0,0-.75-17.38,56.58,56.58,0,0,0-2.58-8.53c-2.05-5.11-3.22-6-.91,3,3,11.53,2,29-1.16,39.26Z"/><path class="cls-26" d="M126.09,221.47c-2.33-.45-4.88-1-6.85-2.38-4.51-3.25-5.11-4-1.42.75a17.41,17.41,0,0,0,13.71,6.87c3,.12,8.12-.62,10.38-2.56,3.68-3.14.58-1.33-4.91-1-3.23.18-7.85-1-10.91-1.66Z"/><path class="cls-27" d="M147.62,127.14c-.26-2.74-.41-8.4-1-12a66.72,66.72,0,0,0-3.45-12.1c-.87-2.43-3.54-8.06-5.06-9.91-.91-1.1-.6-.53-1.32-1.41s-1.67,1-1.22,1.6a25.35,25.35,0,0,0,1.93,2.45,30.63,30.63,0,0,1,4.75,7.92,59.13,59.13,0,0,1,3.27,11.75,67.46,67.46,0,0,1,.93,11.38c0,.9.25,1,.48,1s.73.35.65-.59Z"/><path class="cls-28" d="M151.28,94.52c-.44,1.88,3.1,0,5.81-1.21,1.52-.69,2.91-1.11,2.84-.71,0,.24-1.78,1-3.66,2.11-2.52,1.45-5.39,3.31-5.76,3.61-1.25,1.05-5.55,4.5-5.46,3.43.15-1.86,1.56-4.25,3.1-6.1,2.23-2.68,3.8-4,3.13-1.13Z"/><path class="cls-5" d="M166.88,77.82c-1.3,2.15-1.61,6.14-1.79,7.25-.22,1.31-.53,1.38-.43.1A29.48,29.48,0,0,1,165.91,79c.5-1.48,1.76-2.47,1-1.18Z"/><path class="cls-13" d="M178.43,90c.46.14,4-1.8,4.62-1.63,2.33.65,5.46,1.41,6.31,1.71,1.27.45,1.48.2.3-.33a55.63,55.63,0,0,0-8.18-2.39c-1.56-.27-4.51,2.16-3,2.64Z"/><path class="cls-5" d="M175.08,78.33c-.47.91.71,3.38.89,4s-.1,1.15-.39.48a15.87,15.87,0,0,1-1-4c0-.71.77-1,.49-.45Z"/><path class="cls-5" d="M158.91,82.27c-2.22,2.63-3.5,8-4,9.44-.57,1.74-1,1.76-.6.05a40.65,40.65,0,0,1,3-8.1c1-1.9,2.91-3,1.57-1.39Z"/><path class="cls-5" d="M170.56,76.77a11.32,11.32,0,0,0-1,3.76c-.13.74-.51,1.07-.46.35a16.62,16.62,0,0,1,.71-3.47c.28-.83,1.23-1.37.79-.64Z"/><path class="cls-14" d="M164.39,97.22a23.7,23.7,0,0,0,8.12,2c1.45.1,3.16-.1,5.14-.12,1.35,0,1.49.06-.15.21-5.29.51-7.28.63-13.41-1.61-4.64-1.69-3.25-1.68-1.64-1.27a10.39,10.39,0,0,1,1.94.78Z"/><path class="cls-14" d="M175.21,92.32c2.42-.08,5.64-.09,6.54-.18,1.34-.13,1.48.16.21.4a56,56,0,0,1-8.51.39c-7.91-.52,1.67-.61,1.76-.61Z"/><path class="cls-19" d="M113.58,134.09c.55-.11,1.59.34,3,.46,1.09.08,3.93-.25,4.93-.09,3.2.51,2.28.61,2,.95s-1.26.94-3.91,1.2c-1,.1-2.57.14-3.92.13-.92,0-2.34.48-2.74.44-2.58-.27-1.23-2.71.58-3.09Z"/><path class="cls-26" d="M189.17,149.11c-2.53,1.08-2.46,10.64-2.19,13.93.69,8.37-1.32,25.28-2.18,27.42a59.89,59.89,0,0,1-8.67,15.08c-5.25,6.2-11.9,12.61-20,15-13.31,4-4.64,3.25,3.74,1.21,6.81-1.65,13.64-4.47,23.34-13.43,3.57-3.3,3.12-4.31,6.56-9.77,5.51-8.75,9.64-41.07,6.48-51-1-3.19-4.06.22-7.12,1.52Z"/><path class="cls-20" d="M202,263.55c-15.88,2.29-27.78-1.22-38.1-8.11-10.47-7-19.26-17.5-22.41-32.52-1.24-5.9.89-9.92,4.29-14.23,3.75-4.05,6.78-4.46,6.62-8.42-.28-6-1.23-7.79.46-11.05,3.26-6.31,8.39-9.45,15-11.9,8.25-3.08,20.83-3.74,29.77-3.32a70.54,70.54,0,0,1,15.23,1.87c11.46,3.1,22.75,6.23,32.12,13.84,2.23,1.82,5.48,5.15,6.71,7.75,2.41,5.13,2.86,9,2.68,14.6-.09,2.85-1.29,5.43-.87,7,1,3.84,1.48,5.31.67,9.46C250,249.57,220.93,260.81,202,263.55Z"/><path class="cls-2" d="M201.63,260.58c-6.85,1-16.07,1.22-22.63-.54-3.54-.94-5.59-1.07-9.27-2.72-6.32-2.82-15.38-10.19-19.37-16.15-.37-.55-.79-1.23-1.25-2.07-1.86-3.36-4.47-7.14-5.69-11.15-.65-2.14-1.15-4-1.56-6-.65-3.13.69-7.33,2.13-10.14l2.62-3.33c3.66-3.94,6.5-3.56,6.35-7.42l-.12-2.54c-1.23-5.64-.34-8.59,3-12.84,3.08-3.87,6.94-6.18,12-8.07,8-3,21.43-3.45,30.13-3a77.52,77.52,0,0,1,15.67,2.06,149.34,149.34,0,0,1,15.72,5,57.41,57.41,0,0,1,15.11,8.35c2.17,1.77,4.45,5.48,5.64,8,2.35,5,2.79,8.75,2.61,14.21-.08,2.77-1.26,5.28-.85,6.78,1,3.73,1.45,5.17.65,9.21-2.1,10.68-8.22,16.78-17.47,22.07-10.17,5.81-23.16,8.87-33.48,10.37Z"/><path class="cls-29" d="M156.73,199c-.73,1.68,2.75,3.71,2.25,4.33-.79,1-5.45,3.28-5.3,3.86.48,1.86,4.72.67,6,.44,1-.17,6.76-1.16,7.14-2,1.68-3.69,1.36-3.51-2.54-6-.74-.48-3.92-2-4.71-1.45-.41.29-2.74.57-2.85.83Z"/><path class="cls-30" d="M157,208.1c1.1-.14,2.19-.41,2.74-.51,1-.17,6.76-1.16,7.14-2,1.68-3.69,1.36-3.51-2.54-6a13.8,13.8,0,0,0-2.16-1,15.88,15.88,0,0,0-2.59.71c-.73,1.68,2.76,3.71,2.25,4.33-.79,1-5.45,3.28-5.3,3.87a1.19,1.19,0,0,0,.46.65Z"/><path class="cls-31" d="M166.12,178.79a28.57,28.57,0,0,0-9.48,7.07,11.14,11.14,0,0,0-2.8,5.13c-.27,1.78-.59,5.63.4,7a10.52,10.52,0,0,0,6.59,4.68c.83.21,3.94-.11,3.77,1.42,0,.4-3.37.69-3.69.76-3.39.75-4.54.1-9,1.71a13.29,13.29,0,0,0-7.4,5.43c-2.62,3.45-1.93,7.8.2,11.37a12.17,12.17,0,0,0,3.62,4.13c2.66,2.32,7.21,4.8,10.41,6.66,3.78,2.2,12.88,6.1,17,6.58,1.45.17,3.28.9,6,1.11,9.6.73,16.27,0,26-1.43,5.66-.84,22.31-4.84,27.15-7,4.57-2,8.75-4.14,12.13-7.89,2.42-2.68,4.34-8.74.59-11.28-1.58-1.08-5.13-4-3-6.17,2.31-2.45,3-3.13,4.42-6.36,1.18-2.72-.05-3.4-.55-5.89-1.25-6.25-15.47-12.18-21.53-14.72-4.64-1.72-14.7-4.74-19.64-5.29-3.12-.34-6.23-.84-9.35-1.09-8.55-.71-23,.46-31.77,4Z"/><path class="cls-32" d="M167.49,181.81a24.38,24.38,0,0,0-8,6,9.3,9.3,0,0,0-2.37,4.35c-.24,1.51-.5,4.78.33,6,1.54,2.18,6.18,4.81,8.77,5.49.43.11,9.69.6,17,1.26,2.06.18,3.87-.75,6.65-2.36l6.8-3.92c4.75-2.75,15.19-3.82,17.51.2,2,3.55-1.79,6.62,3,6.68,6.07.07,12.73.77,17.34.61,3.68-.13,6-1,6.23-1.62,1.05-2.28,4.6-4.43,4.18-6.53-.75-3.79-12.77-11.13-16.22-12.11-1.4-.59-5,.09-6.4-.49-3.93-1.46-11-6.67-15.16-7.13-2.65-.3-5.29-.72-7.93-.94-7.26-.59-24.19,1.53-31.65,4.54Zm14.06,24.29a73.32,73.32,0,0,0-15.3-.63c-2.88.64-3.86.08-7.63,1.45-3.08,1.12-8.07,2.19-10,4.79a9.43,9.43,0,0,0-.65,10.23,10.26,10.26,0,0,0,3.07,3.51c2.26,2,6.8,3.26,8.84,5.65,1.18,1.4,5.49,3.43,10.52,4.68,1.94.48,2.9,2.2,4.91,2.37,2.65.22,6.33-1.26,8.57-1.9,1.44-.42.93,1.84,2.26,1.91s3.17,1.5,4.45,1.47c1.89,0,3.26-1.58,5.51-1.39,2.9.25,6.72,1.35,9.63.91,4.8-.71,17.87-4.79,22-6.6,3.87-1.7,10.38-4,13.24-7.19,2.7-3,1.88-4.7,2.37-5.94,2.93-7.39-2.32-7.73-6.69-8.84a59,59,0,0,0-19-1.22c-4.6.49-2.31.36-3.71,4.52-.78,2.31-.77,2.13-4,4-5.08,2.94-16.62.4-19.5-4.59-.89-1.52-5.76-6-6.64-6.6a5.69,5.69,0,0,0-2.18-.6Z"/><path class="cls-33" d="M195.59,197.89c4.25-2.45,16.84-3.12,19.32,1.16.7,1.22,7.54,5.91,10.1,5.8.1-.07.83-.07.87-.15s.1-.25.14-.37c3.67,1.5,8.4.3,8.52.36,1.13.48-1.85-2.24-4.59-5.25-1-1.12-1-2.43-2.16-3.42-1.85-1.53-3.52-.78-5.19-2.27-2.66-2.38-3.51-4.67-4.41-4.88-2.76-.66-3.11-2.74-5.34-2.56a3.65,3.65,0,0,1-1.29-.1c-1.82-2.08-3.67-4.16-5.57-4.37-2.27-.25-4.52-.61-6.78-.8-1.23-.1-3.64,2.85-5.54,4-.79-.56-1.86-1.15-2.29-.17-.3.67-1-1-2.39-.85-.93.11-1.44,1-1.72,2a15.4,15.4,0,0,1-4.84,0,7.21,7.21,0,0,0-4.93.63c-2.4,1-6.19,0-8.23,2.39a8,8,0,0,0-2,3.72c-.2,1.29-.43,4.08.29,5.1.37.52,4.92,4.77,9.41,4.73,2.33,0,8.06,3.41,10,1.11,2.44-2.86,4.38-3.41,8.62-5.86Zm-41.26,16.52a2.46,2.46,0,0,0-2.22,1.21c-.2.46,1.22,2.49,1.07,3-.45,1.49-.52,3,.54,3.73,1.38,1,3.16-.44,3.09.47-.17,2.28,4.49.53,4,1.11-1.74,1.9,3.31,1.26,4.81,2.5,2.09,1.71,2.23-1.11,3.12,1.88,1.34,4.44,4,.53,7.33,4.52,1,1.23,2.21-.78,4.89.94,2.31,1.49,3.9-.57,7.28.32,1.09.29,3.35-1.69,7.62-2.73,2.67-.65,4.05,1.13,7,.55,1.86-.38,2.57-1.83,4.33-2.46,2.88-1,5.79-1.87,7.28-2.41A90.28,90.28,0,0,0,226,223.63c3.31-1.45,6.35-3,8.8-5.72,2.31-2.56,1.6-4,2-5.07.35-.89-6.31-1.4-11-1.89-1.12-.12-1.22-.84-2.13-.87a4,4,0,0,0-2.72,1c-4.18-.19-5.11.16-6,2.15-.63,1.38-.55,3.89-4.49,6.17-5.35,3.09-20.43-.17-23.51-5.48-1.64-2.84-5-1.68-4.61-3.07.25-.82-1.61-2.25-3-3-4.2-.18-13.46-.49-13.72-.52-5.15-.64-9.83,4-11.35,7.12Zm24.56,13.48a13,13,0,0,1-1.85-.18,3.5,3.5,0,0,1-.69-.24l2.54.42Z"/><path class="cls-6" d="M164.23,239.78c-.16.51-2,.69-2.22,1.34-.29,1-.39,2.68-1,3.51-.45.66-1.41.51-1.63,1.06s.92,1.68.1,1.42c-10.42-3-16.18-22.25-14.05-21.72.31.07,6.82,6.33,8.83,7.58,1.67,1,3.07,3,5.17,4,.51.26,5,2.27,4.78,2.8Z"/><path class="cls-20" d="M253.78,227.66c.9,5.73-8.5,15.52-15.55,20-19.44,12.27-58.08,14.87-60.14,9.53-.36-.9,0-2.87-2.33-6-.66-.87-4.23-2.94-4.81-3.75-1-1.31-5.35-8-4-8.76.55-.3,7.77,3.94,17.88,4.24,14.85.46,33.31-2.74,41-5.57,4.77-1.76,14.68-5.28,20-9.77,2.41-2,3.11-6,4.41-6.64,2.79-1.32,3.42,6.43,3.47,6.75Z"/><path class="cls-1" d="M248.82,196.86c.25,2.66,0,5.66-.51,6.19a25.54,25.54,0,0,0-2,3.65c-.28.54-2.07,1.72-2.07,2.76s.95,2,1.76,2.83a23.71,23.71,0,0,0,2.33,2.11c.67.5,1.81,4.68,2.34,4.79.35.07.17-3.76.34-4,.32-.54.44-7.22,0-10.57-.07-.47-.27-2.13-.41-3.29a14.66,14.66,0,0,0-1.75-4.44Z"/><path class="cls-9" d="M249.58,225.77c.16,1-8.14,9.87-11.47,12.91-2,1.79-3.79,3.9-6.14,5.21-4.27,2.39-9.09,3.45-11.14,4.48-7.37,3.7-14,3.71-23.41,3-6.39-.48-15.29-.93-18.82-5.74-.81-1.1-5.29-3.21-4.13-3.86.46-.25,6.23,1.77,14.71,2,12.45.38,29.62-3.27,36.08-5.65,9.79-3.61,24.21-13,24.32-12.36Z"/><path class="cls-7" d="M154.87,241.36c-1.65-.48-6.57-6.37-6.05-7.76.12-.32-.38-3.28.06-3s3.62,2.44,4.26,2.78a26.09,26.09,0,0,1,5.08,3.85c1.78,2.11-1.36,4.73-3.35,4.16Z"/><path class="cls-34" d="M249.54,205c-.78.19-1.48,1.26-2.14,2.51-.19.37-2.48,1.55-2.48,2.25a2.86,2.86,0,0,0,1.3,2c.53.4,3.63,2.14,4,1.6s-.24-8.49-.64-8.4Z"/><path class="cls-6" d="M155.63,202.48a3,3,0,0,1-2-.58c-.43-.43,0-1,.13-1.22s-.58-2,.3-1.39a5.66,5.66,0,0,1,.87.79,6.14,6.14,0,0,0,2,1.66c.63.44.16.79-1.22.74Z"/><path class="cls-7" d="M155.23,201.58a1.26,1.26,0,0,1-.88-.25c-.18-.18,0-.43.06-.52s-.25-.85.12-.6a4.81,4.81,0,0,1,.82.87c.76.26.65.53-.12.5Z"/><path class="cls-35" d="M199.73,199.86c-2.35,1.2-6,1.22-7.64,3.4-1.43,1.92-9,1.46-1.53,7.33a13.21,13.21,0,0,1,2.55,1.35c3.19,2.5,5.91,4.49,10.17,4.19,1.87-.13,4.61-3.23,7.66-4.31,1.51-.55,2.94-2.68,1.48-4.39-.91-1.09-.84-3.44-2.1-5.14-1-1.35-2.52-3-3.51-3.15a47.65,47.65,0,0,0-7.08.72Z"/><path class="cls-36" d="M203.33,213.91c-5.13-.27-14.49-5.88-6-5.61,2.05.07,7.15,1.72,8.32,2.77.85.76.64,3.23-2.37,2.84Z"/><path class="cls-36" d="M205.75,203.47c-.5.15-2.17.6-3.86.93-6.51,1.27-6.46-2.42-1-3.91s9,1.7,4.87,3Z"/><path class="cls-37" d="M204.38,212.42c-.44-.33-5.78-2.34-5.82-1.59-.07,1.57,4.54,1.63,5.82,1.59Z"/><path class="cls-37" d="M196.89,210.59c1.3-.12-.33-1.93-.89-1.05-.33.5.53,1,.89,1.05Z"/><path class="cls-37" d="M201,202.31c-.85.18-.88,1.08.07.94,2.64-.38,1.27-1.2-.07-.94Z"/><path class="cls-32" d="M200.6,205.47c-14.68-1-4.77,2.43-.67,2.55,11.44.32,20,.64,23.2.6s2.62-.44-.85-1c-4.1-.65-12.05-1.49-21.68-2.17Z"/><path class="cls-38" d="M201.57,206.33c-11.77-.82-3.26.46,0,.55,9.17.26,14.72,1,17.29,1s2.71.11-.07-.33c-3.28-.52-9.53-.65-17.25-1.19Z"/><path class="cls-39" d="M178.37,208c-.66.21-5.89,1.17-5.91,1.15-1.54-1-7.54-1.08-8.08,0,0,.06-4.69.63-2.13,2.43,1.38,1,3.16-.43,3.1.47-.18,2.28,4.48.53,4,1.12-1.73,1.9,3.31,1.26,4.82,2.49,2.08,1.72,2.22-1.11,3.12,1.88,1.33,4.44,4,.54,7.32,4.53,1,1.22,2.22-.79,4.89.94,2.31,1.49,3.9-.57,7.28.32s-.41-2.33-4.7-2.59c-.52,0-2.43-2.84-6.46-3.77-3.42-.79-2.79-5.42-4.19-6.57-1.84-1.51-2,.13-1.84-1.62,0-.43-1.17-.83-1.17-.83Z"/><path class="cls-40" d="M151.59,213a.78.78,0,0,1,1.07.41c.12.32-.21.38-.77.59s-1,.27-1.09,0,.23-.74.79-1Z"/><path class="cls-40" d="M154.77,210.15a.57.57,0,0,1,.76.3c.08.22-.16.27-.55.42s-.69.19-.78,0,.17-.53.57-.68Z"/><path class="cls-41" d="M203.48,197.77a25.29,25.29,0,0,0-6.13,1.19,23.6,23.6,0,0,0-3.41,1.45,16.32,16.32,0,0,1,3.21-1.92,23.19,23.19,0,0,1,6.69-2,13.51,13.51,0,0,1,8.32,1.4c1.87,1.06,2.24,5.13,2.17,7-.67-.92-1.1-2.23-1.7-3.22-1.56-2.58-6.23-4.18-9.15-4Z"/><path class="cls-39" d="M205,192.11c-3.49-.48-3.39,1.92-8.17,2.58-1.47.2-1.28,1.34-4.3,2.26s-11.68,8.26-4.4,4.91c.13-.06,10-5.2,10.46-5.45,10.73-5.4,17.77,2.9,17.86,2.85,3.94-1.94-9.71-6.91-11.45-7.15Z"/><path class="cls-24" d="M164.83,249.08c-1.18,0-1.42-1.59-.42-1.62,1.88-.05,2.29,1.56.42,1.62Zm14.95,4.67c-1.18,0-1-1.66,0-1.69,1.88-.05,1.9,1.64,0,1.69Zm-10.45,1.68c-1.18,0-1.38-1.33-.39-1.36,1.89,0,2.26,1.31.39,1.36Zm15,2.07c-1.18,0-1-1.66,0-1.69,1.88-.05,1.9,1.64,0,1.69Zm-20.22-14.23c-1.18,0-1-1.66,0-1.69,1.89-.05,1.9,1.64,0,1.69Zm3.94,9a.94.94,0,0,0-.12-1.87c-.82,0-1.3.4-1.42.82-.17.61.37,1.23,1.54,1Zm-6.72-1.65c-1.26-.06-.69-1.11.38-1.07.88,0,1.17,1.14-.38,1.07Zm16.2-3.27c-2.13-.35-1.67-1.53.13-1.24,1.15.19,2.12,1.61-.13,1.24Zm-4.08,10.07c-1.62,0-1.3-1.43,0-1.47,1.58-.06.84,1.46,0,1.47Zm-.14-5.45c-1.93.09-2-1.2-.39-1.26,1.11,0,1.44,1.21.39,1.26Zm-2-4.79c-1.42.14-1.42-1.48-.61-1.6,1.94-.31,2.31,1.42.61,1.6Z"/><path class="cls-42" d="M191.63,257.58c-1.18,0-1.41-1.59-.41-1.62,1.88-.05,2.28,1.56.41,1.62Zm19.86-3c-1.18,0-1-1.66,0-1.69,1.88,0,1.9,1.64,0,1.69ZM201,256.28c-1.18,0-1.38-1.33-.38-1.36,1.88,0,2.25,1.31.38,1.36Zm16-1.57c-1.18,0-1-1.66,0-1.69,1.89-.05,1.9,1.64,0,1.69Zm-17.28-1.57a.94.94,0,0,0-.13-1.87c-.82,0-1.3.4-1.42.82-.17.61.38,1.23,1.55,1Zm-4.17,2.39c-1.27-.05-.69-1.11.38-1.06.88,0,1.17,1.13-.38,1.06Zm9.56,2.76c-1.62,0-1.3-1.43,0-1.48,1.59-.05.85,1.47,0,1.48Z"/><path class="cls-43" d="M152.14,236.53c-.8-.24-3.19-3.09-2.94-3.77.06-.15-.18-1.59,0-1.47s1.76,1.19,2.07,1.35a12.58,12.58,0,0,1,2.46,1.87c.87,1-.66,2.29-1.62,2Z"/><path class="cls-26" d="M242.27,231c.12.79-2.53,3.2-5,5.48-1.49,1.35-9.05,5.67-10.82,6.65-3.2,1.79-6.83,2.59-8.37,3.36-5.53,2.78-10.5,2.79-17.58,2.25-4.8-.36-11,.39-13.65-3.23-.61-.82-4.29-1.57-3.42-2.06.34-.19,4.51-.59,10.88-.4,9.35.28,22.25-2.46,27.11-4.25,2.12-.78,6-1.17,8.68-2.21,6.58-2.58,12.14-5.95,12.2-5.59Z"/></svg>