<svg id="Layer_43" data-name="Layer 43" xmlns="http://www.w3.org/2000/svg" viewBox="0 0 370 330"><defs><style>.cls-1{fill:#ff5777;}.cls-2{fill:#d67934;}.cls-3{fill:none;stroke:red;stroke-miterlimit:10;}.cls-4{fill:#ff97ad;}.cls-5{fill:#ff7190;}.cls-6{fill:#ffabbf;}.cls-7{fill:#af5320;}.cls-8{fill:#f93858;}.cls-9{fill:#773518;}.cls-10{fill:#99471d;}.cls-11{fill:#682c17;}.cls-12{fill:#e59a57;}.cls-13{fill:#ffb6ce;}.cls-14{fill:#ffc7e0;}.cls-15{fill:#dd1f48;}.cls-16{fill:#1d1d1b;opacity:0.3;}.cls-17{fill:#ffdb43;}.cls-18{fill:#edb435;}.cls-19{fill:#ffff7b;}.cls-20{fill:#fff0d7;}.cls-21{fill:#f9d7af;}.cls-22{fill:#fff;}.cls-23{fill:#55e5da;}.cls-24{fill:#64f2e1;}.cls-25{fill:#16938d;}.cls-26{fill:#35bab6;}.cls-27{fill:#79f7ea;}.cls-28{fill:#bbfff5;}.cls-29{fill:#60331d;}.cls-30{fill:#35180f;}.cls-31{fill:#ad6853;}.cls-32{fill:#325064;}.cls-33{fill:#edc5bc;}</style></defs><path class="cls-1" d="M199.47,193.72c2.4-7.51-.29-16.71-9.72-22.33-10.44-6.22-19.87-11.47-52.61-10.66-33.2.82-50.15,23.88-49.2,41.18.32,5.68,10.65,18.69,16.32,21.73s9.21,3.6,12.07,4.83,4.83,4.06,7.1,4.42,5.48-2.57,7.73-2.35,11.88,2.24,17.81,1.2,9.54-3.81,12.86-2.76,3.38,5.31,5.76,4.92-.64-12.2,4.18-13c4-.71,4.3,5.78,6.44,6s1.93-9.42,6.06-13.55C186.73,210.87,196.32,203.55,199.47,193.72Z"/><path class="cls-2" d="M200.29,187.82h0a17.48,17.48,0,0,1-.81,5.9c-3.15,9.83-12.74,17.15-15.2,19.62-4.13,4.13-3.92,13.8-6.06,13.55s-2.39-6.74-6.44-6c-4.82.84-1.79,12.66-4.18,13s-2.44-3.87-5.76-4.92-6.93,1.71-12.86,2.76-15.55-1-17.81-1.2-5.45,2.72-7.73,2.35-4.23-3.2-7.1-4.42-6.4-1.8-12.07-4.83C99.4,221,91.1,211.08,88.64,204.72c1.19,26.13,32.1,40.18,68.87,34.73C180,236.12,211.72,209.61,200.29,187.82Z"/><path class="cls-3" d="M154.77,189.12a2.41,2.41,0,0,0-.78,1.55,3.58,3.58,0,0,1,4.7,1.86,16.07,16.07,0,0,0,2-1.63C157.79,188.53,155.9,188.22,154.77,189.12Z"/><path class="cls-4" d="M192.62,173.39a27.41,27.41,0,0,0-2.87-2c-10.44-6.22-19.87-11.47-52.61-10.66-22.36.55-37.34,11.19-44.45,23.37-1.59,5.45-2.47,11.05-.09,15s8.53,3.64,10.75,6.36c.87,1.07,1.64,4.62,6.08,7.28,6.89,4.13,19.43,7.56,30.45,7.52C166.69,220.14,201.69,194.84,192.62,173.39Z"/><path class="cls-5" d="M104.35,203.38C102.87,202,95,199.53,94,198c-2-3-1.53-12.93.58-16.72-.66.94-1.28,1.89-1.84,2.86-1.59,5.45-2.47,11.05-.09,15s8.53,3.64,10.75,6.36c.87,1.07,1.64,4.62,6.08,7.28,6.89,4.13,19.43,7.56,30.45,7.52a50.14,50.14,0,0,0,9.31-1c-16.22.85-31.87-4.64-35.66-6.5C106.21,209.21,106.9,205.79,104.35,203.38Z"/><path class="cls-6" d="M173.3,173.17a13.36,13.36,0,0,0-4.74,5.77c-1.2,2.49-.23,8-1.29,10.47-3.82,8.89-10.28,8.57-11.92,11.5-1.4,2.48,2,7.05,6,7.59,7.08.95,18.87-7.52,24.55-15.26,2.86-3.9,5.36-7.9,4.77-13.62C190,172.77,181.64,168.21,173.3,173.17Z"/><path class="cls-5" d="M191.26,172.38c.47.33.93.67,1.36,1C192.19,173.05,191.74,172.7,191.26,172.38Z"/><path class="cls-5" d="M199.47,193.72c2.13-6.67.23-14.68-6.85-20.33,7.9,18.68-17.64,40.29-42.08,45.62-4.24,5.47-13,5.68-19.91,7.6-6.29,1.75-6.83,4.79-11.46,3.65,1.5,1.18,2.82,2.4,4.26,2.63,2.28.37,5.48-2.57,7.73-2.35s11.72,1.29,17.65.25,10-4.18,13.28-3.13,3.87,5.86,5.27,5.58c3.09-.61-.76-12.58,4.07-13.43,4-.71,5.65,6.25,6.73,6.16,2.14-.17,2-8.5,6.11-12.63C186.73,210.87,196.32,203.55,199.47,193.72Z"/><path class="cls-5" d="M139.38,179.53h0l1.15-.15c11.68-1.3,20.78,1.9,22.05,7,1,4.15-6.5,8.41-13.19,10.74h0c10.33-1.31,17.1-5.59,16.38-12.79C165.14,178.07,149.46,175.21,139.38,179.53Z"/><path class="cls-7" d="M140.53,179.38c-11.68,1.3-20.16,8.56-18.89,14.5S138,200,145.16,198.33s18.7-6.91,17.42-12S152.21,178.08,140.53,179.38Z"/><path class="cls-8" d="M140.53,179.38c-11.68,1.3-20.16,8.56-18.89,14.5.55,2.56,3.69,4.06,7.65,4.79-.88-1.82.68-4.55,3.2-5.16s5.46,3.14,7.48,2.34,3.11-6.75,5.94-6.31,3.81,3.3,4,7.38c1.21-.44,2.44-.94,3.63-1.48.55-2.8,0-5.32,1.27-6.32s3-.59,5.91,1.78c1.49-1.46,2.29-3,1.9-4.55C161.31,181.28,152.21,178.08,140.53,179.38Z"/><path class="cls-9" d="M154.86,189.06a4.47,4.47,0,0,1,4.38,3.07,14.92,14.92,0,0,0,1.44-1.23C157.86,188.59,156,188.24,154.86,189.06Z"/><path class="cls-9" d="M129.29,198.67h-.11Z"/><path class="cls-9" d="M145.91,189.54c-2.83-.44-3.92,5.5-5.94,6.31s-5-3-7.48-2.34-4.08,3.34-3.2,5.15l1,.17c-.71-2.38,1.33-5,3.44-4.4s4.25,4.33,6.35,4,2.91-2.9,3.6-4.89c.93-2.68,2.72-4.54,5.23-1.65A3.87,3.87,0,0,0,145.91,189.54Z"/><path class="cls-1" d="M140.53,179.38c-11.68,1.3-20.16,8.56-18.89,14.5a5.17,5.17,0,0,0,3.07,3.36c-1.32-5.68,7.24-11.1,16.65-12.16s18.28.43,19.87,5.24h0a4.41,4.41,0,0,0,1.35-4C161.31,181.28,152.21,178.08,140.53,179.38Z"/><path class="cls-10" d="M185.32,212.35c-.42.39-.78.72-1,1-4.13,4.13-3.92,13.8-6.06,13.55s-2.39-6.74-6.44-6c-2.38.41-2.85,3.5-3,6.56.29-1.46,1.54-3.6,3.87-3s2.21,5.85,5.2,5.86c2.27,0,3.33-3.85,4-8.28S183.26,215.14,185.32,212.35Z"/><path class="cls-10" d="M167.59,233.9c-2.38.39-2.44-3.87-5.76-4.92s-6.93,1.71-12.86,2.76-15.55-1-17.81-1.2-5.45,2.72-7.73,2.35-4.23-3.2-7.1-4.42-6.4-1.8-12.07-4.83C99.4,221,91.1,211.08,88.64,204.72a31.08,31.08,0,0,0,2.74,11.53c3.51,1.06,6.6,6.53,11.56,9.32,3.73,2.11,10,3,13,4.36s4.22,4.92,8.09,5,5.67-2.57,7.9-2.72,7.39,1.28,13.88,1.13c5.69-.13,12-3,14.61-2.17s1.77,5.36,4,6.57c.81-.26,1.62-.54,2.43-.85a14.28,14.28,0,0,0,.89-3.1A.58.58,0,0,1,167.59,233.9Z"/><path class="cls-7" d="M132.57,230.73c-.6-.09-1.08-.16-1.41-.19-2.25-.22-5.45,2.72-7.73,2.35s-4.23-3.2-7.1-4.42-6.4-1.8-12.07-4.83C99.4,221,91.1,211.08,88.64,204.72c.93,20.46,20.07,33.51,46,35.6A8.68,8.68,0,0,1,132.57,230.73Z"/><path class="cls-9" d="M132.17,230.67h0l-.3,0h-.08l-.24,0h-.08l-.26,0c-2.25-.22-5.45,2.72-7.73,2.35s-4.23-3.2-7.1-4.42-6.4-1.8-12.07-4.83C99.4,221,91.1,211.08,88.64,204.72c0,.59.08,1.17.13,1.74,0,.19,0,.38.07.57q.06.57.15,1.14c0,.22.07.43.11.65s.12.69.19,1,.09.44.14.66l.27,1.06.15.56c.15.5.3,1,.47,1.48.08.23.17.46.26.68s.21.56.32.84.2.49.31.73l.18.4c3.51,1.07,6.59,6.52,11.55,9.31,3.73,2.11,10,3,13,4.36s4.22,4.92,8.09,5,5.67-2.57,7.9-2.72h.18a12,12,0,0,1,.42-1.52Z"/><path class="cls-10" d="M111.16,226.66h0a47.26,47.26,0,0,1-6.9-3C99.4,221,91.1,211.08,88.64,204.72c.63,13.81,9.56,24.24,23.26,30.2C110.31,232,109.7,229.18,111.16,226.66Z"/><path class="cls-11" d="M111.16,226.66h0l-.71-.25-.1,0-.65-.24-.18-.07-.62-.25-.27-.11-.56-.23-.37-.16-.52-.23-.45-.21-.47-.22-.6-.3-.37-.18-1-.53C99.4,221,91.1,211.08,88.64,204.72c0,.57.08,1.13.13,1.69a1.1,1.1,0,0,0,0,.18c0,.15,0,.29,0,.44q.06.57.15,1.14c0,.22.07.43.11.65s.12.69.19,1,.09.43.14.65h0l.27,1.06.15.56c.14.48.29,1,.45,1.42,0,.07,0,.14.08.2s.13.36.2.54.21.56.32.84.2.49.31.73l.18.4c3.51,1.07,6.59,6.52,11.55,9.31a34.43,34.43,0,0,0,7.58,2.68,6.31,6.31,0,0,1,.64-1.59Z"/><path class="cls-4" d="M181,215.56c-.5-.57-2.57.7-3.27,2.7s-.29,4.38.55,4.28.6-1.88,1.14-3.22S181.49,216.14,181,215.56Z"/><path class="cls-12" d="M200.08,201.54c-1.18-.8-3.91,3.83-7.85,8.19s-6.63,7.78-4.56,9.63,4.62-1.91,7.46-5.4C198.44,209.9,201.26,202.34,200.08,201.54Z"/><path class="cls-4" d="M198.1,182.39c-1.45-.34-2.35,5.77-3.32,8.51s-4,7.34-2.7,8.12,4.66-3.09,5.9-7.36S199.54,182.73,198.1,182.39Z"/><path class="cls-13" d="M126.74,165.45c-12.89,3.62-17.53,7.94-19.84,13.1-1.76,3.95,3.35,7.86,6.62,4.65,2.32-2.27,5-7.14,14.18-9s37.44,2.79,38.48-4.53S140.11,161.69,126.74,165.45Z"/><path class="cls-14" d="M171.91,191.28c-2.36-1.33-4.2,1-6.35,3.59s-4.64,4.37-3.27,6.2,4.49,1.3,7.65-1.82S174.27,192.61,171.91,191.28Z"/><path class="cls-13" d="M150.63,204.83c-2.06-3.4-9.3,1.32-21.49-2.27s-12.47-12.72-15.84-10.4c-4.37,3,1.13,13.26,13.88,17.1C138.16,212.56,152.69,208.24,150.63,204.83Z"/><path class="cls-6" d="M102,176.81c-1.65-.61-4.25,5.27-4.78,10.59s1.71,12.6,4.33,11.78-.91-6-.69-11.61S103.6,177.42,102,176.81Z"/><path class="cls-1" d="M140.4,190.45c-1.09,1.78-1.6,3.94-.76,4s1.34-1.66,2.13-2.84,2.31-2.64,1.95-3.32S141.49,188.67,140.4,190.45Z"/><path class="cls-4" d="M173,210.58c15.84-9.64,25.63-20.77,21-35.45C197.39,189,188.19,200.35,173,210.58Z"/><path class="cls-8" d="M139.93,184.66c10.15-1.49,17.53-.31,21.38,4.24C158.09,183.18,150.44,182.34,139.93,184.66Z"/><path class="cls-1" d="M125.21,196.6c1.41-6.16,10.32-9.62,19.08-11.23C135,186.13,125,190.55,125.21,196.6Z"/><path class="cls-1" d="M120.89,191.76c1.33-9.06,13.18-13.68,25.73-13.13C133.57,177.18,121.7,182,120.89,191.76Z"/><path class="cls-5" d="M140,180.17c9-.63,17.53,1.11,22.12,6.38C159.64,181,149.48,178.6,140,180.17Z"/><path class="cls-5" d="M146.64,177.13c10.26-.55,17.27,1.23,19.67,6.29C164.64,177.87,157.9,175.9,146.64,177.13Z"/><path class="cls-4" d="M152.1,196.32c6.67-1.24,12.06-4.6,12.91-9.1C163.11,191.59,158.47,194.43,152.1,196.32Z"/><path class="cls-15" d="M129.84,194.47c2.46-2.27,4.72-1.62,6.92,0C134.73,191.75,131.78,191.14,129.84,194.47Z"/><path class="cls-15" d="M144.26,189.58c3.37-1.42,5.3,2.12,5.82,6.57C150.2,189.16,146.32,187.77,144.26,189.58Z"/><path class="cls-5" d="M130.05,217.15c16.2,3.88,30.86-.16,44.53-9.33C160.4,216.23,145.61,219.75,130.05,217.15Z"/><path class="cls-5" d="M106.16,204.17c2.76,5.58,6.67,9,21.24,12.34C117.21,213.22,109.76,210.47,106.16,204.17Z"/><path class="cls-5" d="M98.35,177c-4.48,4.34-5.83,10.32-5,17.44C93.27,187.94,94.71,182,98.35,177Z"/><path class="cls-5" d="M91.24,186.81c-2.35,7.54-1.73,13.28,4.07,15.87C90.42,199.86,89.85,194,91.24,186.81Z"/><path class="cls-5" d="M104.79,210.05c9.83,9.39,23.36,12.37,39.39,11C126,221.26,112.76,217.69,104.79,210.05Z"/><path class="cls-1" d="M97.64,202.19a12.7,12.7,0,0,1,5.38,2.33c1.17,1,1.37,2.18,2.3,3.55-.53-1.6-.79-3-1.9-3.88A10.74,10.74,0,0,0,97.64,202.19Z"/><path class="cls-8" d="M103.17,222.11C97,216.24,92,209.9,88.76,202.87,91,210.32,96.13,216.6,103.17,222.11Z"/><path class="cls-5" d="M113.31,226.27a88.69,88.69,0,0,1-14.41-9.54C102.4,221.34,107.43,224.26,113.31,226.27Z"/><path class="cls-5" d="M124.44,228.82c7.48-5,19.77-3.64,24.24-8.92C143.53,224.84,131.42,223.22,124.44,228.82Z"/><path class="cls-1" d="M148.8,230.3c5.86-.85,11.52-5.54,15.15-2.15C160.52,223.69,155,229,148.8,230.3Z"/><path class="cls-1" d="M170.78,219.38c3-.59,4.47,1.57,5.9,3.78C175.44,220.22,173.83,218.14,170.78,219.38Z"/><path class="cls-4" d="M150,229.13a117.66,117.66,0,0,1-19.26.48C138.33,230.67,144.82,230.59,150,229.13Z"/><path class="cls-6" d="M184,170.69c10.08,4.66,9.35,13.79,2.71,23C194.19,184.36,194.58,174.67,184,170.69Z"/><path class="cls-6" d="M167.4,180.5c1.95-6.56,6.59-9.91,13.84-10.14C173.48,169.89,168.93,173.19,167.4,180.5Z"/><path class="cls-6" d="M157.1,207.55c6.1,5.18,14.42.17,23.16-6.76C171.1,207.43,162.7,211.78,157.1,207.55Z"/><path class="cls-4" d="M162.7,196.49c4.33-3.14,6.31-6.86,5.48-11.28C168.42,189.43,166.44,193.15,162.7,196.49Z"/><path class="cls-4" d="M193.94,199.5c5-3.94,6.7-9.36,5.65-16C199.83,189.83,198.1,195.24,193.94,199.5Z"/><path class="cls-5" d="M192.11,197.94c1.42-2.67,3.47-5.09,3.56-8.78C195.17,192.05,193.14,195.09,192.11,197.94Z"/><path class="cls-4" d="M177,218.87c.55-2.28,2.5-3.91,5-5.32C179.17,214.51,177.12,216,177,218.87Z"/><path class="cls-6" d="M96.91,184.29c-2.25,6-2,10.88,1.84,14.06C96.23,194.22,95.82,189.47,96.91,184.29Z"/><path class="cls-6" d="M98.33,180.23c1.74-3.92,3.77-5.31,4.92-2.68C103.21,173.85,99.45,175.69,98.33,180.23Z"/><path class="cls-4" d="M100.77,191.26c-.84-3.24-.3-7,.92-11C99.75,183.9,99.08,187.56,100.77,191.26Z"/><path class="cls-13" d="M133.53,163.39c13.82-1.34,25-.93,31.41,2.72C158.33,161.44,146.94,161.43,133.53,163.39Z"/><path class="cls-13" d="M105.83,181c1-8.5,8.93-12.36,18.14-15.42C114.05,167.83,106.31,171.72,105.83,181Z"/><path class="cls-13" d="M116,181c5.17-4.07,11.49-6.27,18.8-6.85C127.72,174,121.26,175.75,116,181Z"/><path class="cls-4" d="M139.42,173.21c12.59.49,25.31,1,26.13-3.64C163.15,173.65,151.26,173.42,139.42,173.21Z"/><path class="cls-13" d="M118.85,195.38c4.48,6.11,13.15,8.58,25.55,7.81C132.68,203.19,123.85,200.84,118.85,195.38Z"/><path class="cls-13" d="M145.06,209.67a33.86,33.86,0,0,1-19.21-.32C132.78,212.12,139.15,212.06,145.06,209.67Z"/><path class="cls-4" d="M148.33,203.91c2.49,2.11.07,3.46-4.82,5.36C150,207.44,151.57,205.34,148.33,203.91Z"/><path class="cls-4" d="M112.39,196.15c2.71,8.09,10.38,12,20.63,13.74C123.47,207.62,116.06,203.51,112.39,196.15Z"/><path class="cls-14" d="M171.66,190.42c3.93,2.18,2,6.09-2.72,10.81C174.44,197.06,176.86,192.23,171.66,190.42Z"/><path class="cls-6" d="M162.21,200.31c1.5,2.57,5,1.23,8-1.84C166.63,201.53,163.62,201.9,162.21,200.31Z"/><path class="cls-6" d="M122.12,195.24c4.57,6.27,15.8,7.3,26.94,2C138.79,200.73,126.13,199.92,122.12,195.24Z"/><path class="cls-9" d="M130.46,198.72c.21-2.26,1.14-3.79,3.24-4C131.92,194.07,130,196.23,130.46,198.72Z"/><path class="cls-9" d="M143.45,195.1c1.48-3.89,3-4.74,5.1-3.21C146.28,189.64,144.63,191,143.45,195.1Z"/><path class="cls-9" d="M154.85,189.26a6.26,6.26,0,0,1,4.1,3A4.16,4.16,0,0,0,154.85,189.26Z"/><path class="cls-7" d="M139.27,197.94c2.33.33,3.28-2.21,4.15-4.9C142.35,195.52,141.16,197.67,139.27,197.94Z"/><path class="cls-10" d="M190,208c4.92-4,8.29-8.52,9.29-13.69C197.71,198.9,194.46,203.46,190,208Z"/><path class="cls-7" d="M132.56,232.49a7.29,7.29,0,0,0,2.51,7.57A12.85,12.85,0,0,1,132.56,232.49Z"/><path class="cls-10" d="M110.82,228.52c-.45,1.94.21,4,1.5,6.25A33.26,33.26,0,0,1,110.82,228.52Z"/><path class="cls-10" d="M91.93,215.86c4.39,1.57,7.57,9.28,16,11.14C99.53,224.37,97.72,217.6,91.93,215.86Z"/><path class="cls-7" d="M112,228.25c3.34.74,6,2,7.57,4.09C118.48,229.73,115.76,228.54,112,228.25Z"/><path class="cls-9" d="M121.25,234.46c3.08,2.32,6.16,1.24,9.24-1.43C127.36,235.15,124.26,236.25,121.25,234.46Z"/><path class="cls-10" d="M153,232.77c-5.16,1.77-11.66,1.42-18.85,0C141.49,234.91,148,235.35,153,232.77Z"/><path class="cls-2" d="M161.85,230.73c-1.24-.82-2.94-.42-5.54.24,2.51-.42,4-.63,5.25.31s1.32,2.77,2.41,5.08C163.23,233.74,163.21,231.64,161.85,230.73Z"/><path class="cls-2" d="M170,224.56c1.68-1,2.91-.9,3.89,0s1.18,2.23,2.21,3.87c-.82-1.87-1.13-3.48-2-4.31S171.75,223.11,170,224.56Z"/><path class="cls-2" d="M176.7,229.62c2.61,1.2,3.85-2.11,4.73-6.62C180.4,226.76,179.24,230.17,176.7,229.62Z"/><path class="cls-10" d="M187.63,210.7c-2.67,2-4.2,5.11-4.89,9.15A23.64,23.64,0,0,1,187.63,210.7Z"/><path class="cls-12" d="M186.68,219.12c-1.32-2.82,2.51-7.17,6.79-11.65C189.15,211.35,184.73,215.24,186.68,219.12Z"/><path class="cls-12" d="M194.16,215.9c4.67-5.05,7.48-9.92,6.47-14.44C201,205.77,198.23,210.7,194.16,215.9Z"/><path class="cls-2" d="M133.66,195.78c-1-.24-2.22,1.59-1.81,2.21.2.3,1.05.24,2,.29s2,.19,2.09-.21C136,197.28,134.71,196,133.66,195.78Z"/><path class="cls-16" d="M180.62,185.79a2.29,2.29,0,1,0,2.52,2A2.29,2.29,0,0,0,180.62,185.79Z"/><path class="cls-17" d="M181.44,184.84a2.29,2.29,0,1,0,2.52,2A2.29,2.29,0,0,0,181.44,184.84Z"/><path class="cls-18" d="M179.88,185.71a2.27,2.27,0,0,0-.48,1.65,2.29,2.29,0,0,0,3.78,1.49A2.77,2.77,0,0,1,179.88,185.71Z"/><path class="cls-18" d="M180.41,185.41c-.83,2,1.26,3.56,2.68,3.26A3.12,3.12,0,0,1,180.41,185.41Z"/><path class="cls-16" d="M166.6,192.46a3.87,3.87,0,1,0,4.26,3.44A3.87,3.87,0,0,0,166.6,192.46Z"/><path class="cls-17" d="M167.2,191.76a3.87,3.87,0,1,0,4.25,3.45A3.86,3.86,0,0,0,167.2,191.76Z"/><path class="cls-18" d="M164.56,193.23a3.86,3.86,0,0,0,5.57,5.3A4.68,4.68,0,0,1,164.56,193.23Z"/><path class="cls-18" d="M165.47,192.73c-1.4,3.31,2.11,6,4.52,5.5A5.26,5.26,0,0,1,165.47,192.73Z"/><path class="cls-19" d="M169.38,192.79a1.24,1.24,0,1,0,.19,2A1.45,1.45,0,0,0,169.38,192.79Z"/><path class="cls-16" d="M167.14,178.45a2.29,2.29,0,1,0,2.52,2A2.3,2.3,0,0,0,167.14,178.45Z"/><path class="cls-20" d="M168,177.5a2.29,2.29,0,1,0,2.52,2A2.29,2.29,0,0,0,168,177.5Z"/><path class="cls-21" d="M166.4,178.37a2.27,2.27,0,0,0-.48,1.65,2.29,2.29,0,0,0,3.78,1.49A2.77,2.77,0,0,1,166.4,178.37Z"/><path class="cls-21" d="M166.93,178.08c-.83,2,1.25,3.55,2.68,3.25A3.12,3.12,0,0,1,166.93,178.08Z"/><path class="cls-16" d="M172.06,167.61a3.87,3.87,0,1,0,4.25,3.44A3.85,3.85,0,0,0,172.06,167.61Z"/><path class="cls-20" d="M172.66,166.91a3.87,3.87,0,1,0,4.25,3.45A3.88,3.88,0,0,0,172.66,166.91Z"/><path class="cls-21" d="M170,168.39a3.81,3.81,0,0,0-.81,2.77,3.88,3.88,0,0,0,4.25,3.45,3.83,3.83,0,0,0,2.12-.92A4.68,4.68,0,0,1,170,168.39Z"/><path class="cls-21" d="M170.92,167.89c-1.4,3.31,2.12,6,4.53,5.5A5.28,5.28,0,0,1,170.92,167.89Z"/><path class="cls-22" d="M174.83,167.94a1.24,1.24,0,1,0,.2,2A1.46,1.46,0,0,0,174.83,167.94Z"/><path class="cls-16" d="M125.68,173.18a3.87,3.87,0,1,0,4.25,3.44A3.86,3.86,0,0,0,125.68,173.18Z"/><path class="cls-17" d="M126.28,172.48a3.87,3.87,0,1,0,4.25,3.45A3.88,3.88,0,0,0,126.28,172.48Z"/><path class="cls-18" d="M123.64,174a3.85,3.85,0,0,0,3.44,6.22,3.89,3.89,0,0,0,2.13-.92A4.69,4.69,0,0,1,123.64,174Z"/><path class="cls-18" d="M124.54,173.46c-1.4,3.31,2.12,6,4.53,5.5A5.28,5.28,0,0,1,124.54,173.46Z"/><path class="cls-19" d="M128.45,173.51a1.24,1.24,0,1,0,.2,2A1.46,1.46,0,0,0,128.45,173.51Z"/><path class="cls-16" d="M119.91,181.77a3.87,3.87,0,1,0,4.25,3.45A3.86,3.86,0,0,0,119.91,181.77Z"/><path class="cls-17" d="M120.51,181.08a3.87,3.87,0,1,0,4.25,3.44A3.87,3.87,0,0,0,120.51,181.08Z"/><path class="cls-18" d="M117.87,182.55a3.82,3.82,0,0,0-.81,2.78,3.87,3.87,0,0,0,4.25,3.44,3.76,3.76,0,0,0,2.12-.92A4.68,4.68,0,0,1,117.87,182.55Z"/><path class="cls-18" d="M118.77,182.05c-1.4,3.31,2.12,6,4.53,5.5A5.27,5.27,0,0,1,118.77,182.05Z"/><path class="cls-19" d="M122.68,182.11a1.24,1.24,0,1,0,.2,2A1.44,1.44,0,0,0,122.68,182.11Z"/><path class="cls-16" d="M148.21,204.77a3.87,3.87,0,1,0,4.25,3.44A3.87,3.87,0,0,0,148.21,204.77Z"/><path class="cls-20" d="M148.8,204.07a3.87,3.87,0,1,0,4.25,3.45A3.88,3.88,0,0,0,148.8,204.07Z"/><path class="cls-21" d="M146.16,205.54a3.87,3.87,0,0,0,3.45,6.23,3.93,3.93,0,0,0,2.12-.92A4.7,4.7,0,0,1,146.16,205.54Z"/><path class="cls-21" d="M147.07,205.05c-1.4,3.3,2.11,6,4.52,5.5A5.28,5.28,0,0,1,147.07,205.05Z"/><path class="cls-22" d="M151,205.1a1.25,1.25,0,1,0,.19,2A1.46,1.46,0,0,0,151,205.1Z"/><path class="cls-16" d="M138.24,202.19a3.87,3.87,0,1,0,4.25,3.44A3.86,3.86,0,0,0,138.24,202.19Z"/><path class="cls-20" d="M138.84,201.49a3.87,3.87,0,1,0,4.25,3.45A3.88,3.88,0,0,0,138.84,201.49Z"/><path class="cls-21" d="M136.2,203a3.86,3.86,0,0,0,5.57,5.3A4.68,4.68,0,0,1,136.2,203Z"/><path class="cls-21" d="M137.1,202.47c-1.4,3.3,2.12,6,4.53,5.5A5.28,5.28,0,0,1,137.1,202.47Z"/><path class="cls-22" d="M141,202.52a1.24,1.24,0,1,0,.2,2A1.46,1.46,0,0,0,141,202.52Z"/><path class="cls-16" d="M117.93,205.15a3.87,3.87,0,1,0,4.25,3.44A3.87,3.87,0,0,0,117.93,205.15Z"/><path class="cls-20" d="M118.52,204.46a3.87,3.87,0,1,0,4.25,3.44A3.87,3.87,0,0,0,118.52,204.46Z"/><path class="cls-21" d="M115.88,205.93a3.86,3.86,0,0,0,5.57,5.3A4.69,4.69,0,0,1,115.88,205.93Z"/><path class="cls-21" d="M116.79,205.43c-1.4,3.31,2.11,6,4.52,5.5A5.27,5.27,0,0,1,116.79,205.43Z"/><path class="cls-22" d="M120.7,205.48a1.24,1.24,0,1,0-1.77,1.59,1.25,1.25,0,1,0,1.77-1.59Z"/><path class="cls-16" d="M151.05,174.64a3.87,3.87,0,1,0,4.25,3.44A3.87,3.87,0,0,0,151.05,174.64Z"/><path class="cls-20" d="M151.64,173.94a3.87,3.87,0,1,0,4.25,3.45A3.87,3.87,0,0,0,151.64,173.94Z"/><path class="cls-21" d="M149,175.41a3.86,3.86,0,0,0,5.57,5.3A4.69,4.69,0,0,1,149,175.41Z"/><path class="cls-21" d="M149.91,174.92c-1.4,3.3,2.11,6,4.52,5.49A5.25,5.25,0,0,1,149.91,174.92Z"/><path class="cls-22" d="M153.82,175a1.24,1.24,0,1,0-1.77,1.58,1.24,1.24,0,1,0,1.77-1.58Z"/><path class="cls-16" d="M131.68,163.78a2.29,2.29,0,1,0,2.52,2A2.29,2.29,0,0,0,131.68,163.78Z"/><path class="cls-17" d="M132.5,162.83a2.29,2.29,0,1,0,2.52,2A2.28,2.28,0,0,0,132.5,162.83Z"/><path class="cls-18" d="M130.93,163.7a2.25,2.25,0,0,0-.47,1.64,2.29,2.29,0,0,0,3.77,1.5A2.78,2.78,0,0,1,130.93,163.7Z"/><path class="cls-18" d="M131.47,163.4c-.83,2,1.25,3.55,2.68,3.26A3.12,3.12,0,0,1,131.47,163.4Z"/><path class="cls-16" d="M134.38,166.62a2.29,2.29,0,1,0,2.52,2A2.3,2.3,0,0,0,134.38,166.62Z"/><path class="cls-17" d="M135.2,165.67a2.29,2.29,0,1,0,2.52,2A2.29,2.29,0,0,0,135.2,165.67Z"/><path class="cls-18" d="M133.64,166.54a2.29,2.29,0,0,0,2,3.69,2.26,2.26,0,0,0,1.26-.55A2.78,2.78,0,0,1,133.64,166.54Z"/><path class="cls-18" d="M134.18,166.24c-.83,2,1.25,3.56,2.68,3.26A3.11,3.11,0,0,1,134.18,166.24Z"/><path class="cls-16" d="M147,168.31a2.29,2.29,0,1,0,2.52,2A2.29,2.29,0,0,0,147,168.31Z"/><path class="cls-17" d="M147.77,167.36a2.29,2.29,0,1,0,2.52,2A2.29,2.29,0,0,0,147.77,167.36Z"/><path class="cls-18" d="M146.21,168.23a2.29,2.29,0,0,0,2,3.69,2.26,2.26,0,0,0,1.26-.55A2.78,2.78,0,0,1,146.21,168.23Z"/><path class="cls-18" d="M146.74,167.93c-.82,2,1.26,3.56,2.69,3.26A3.13,3.13,0,0,1,146.74,167.93Z"/><path class="cls-16" d="M106.62,187.22a2.29,2.29,0,1,0,2.52,2A2.28,2.28,0,0,0,106.62,187.22Z"/><path class="cls-17" d="M107.44,186.26a2.29,2.29,0,1,0,2.52,2A2.29,2.29,0,0,0,107.44,186.26Z"/><path class="cls-18" d="M105.87,187.13a2.26,2.26,0,0,0-.47,1.65,2.29,2.29,0,0,0,2.52,2,2.23,2.23,0,0,0,1.25-.55A2.78,2.78,0,0,1,105.87,187.13Z"/><path class="cls-18" d="M106.41,186.84c-.83,2,1.25,3.55,2.68,3.25A3.12,3.12,0,0,1,106.41,186.84Z"/><path class="cls-16" d="M140.13,208.47a2.29,2.29,0,1,0,2.52,2A2.28,2.28,0,0,0,140.13,208.47Z"/><path class="cls-17" d="M141,207.51a2.29,2.29,0,1,0,2.52,2A2.29,2.29,0,0,0,141,207.51Z"/><path class="cls-18" d="M139.38,208.38a2.26,2.26,0,0,0-.47,1.65,2.29,2.29,0,0,0,2.52,2,2.23,2.23,0,0,0,1.25-.55A2.78,2.78,0,0,1,139.38,208.38Z"/><path class="cls-18" d="M139.92,208.09c-.83,2,1.25,3.55,2.68,3.26A3.14,3.14,0,0,1,139.92,208.09Z"/><path class="cls-16" d="M172.05,179.84a2.29,2.29,0,1,0,2.52,2A2.29,2.29,0,0,0,172.05,179.84Z"/><path class="cls-17" d="M172.87,178.88a2.29,2.29,0,1,0,2.52,2A2.3,2.3,0,0,0,172.87,178.88Z"/><path class="cls-18" d="M171.31,179.76a2.26,2.26,0,0,0-.48,1.64,2.29,2.29,0,0,0,3.77,1.5A2.77,2.77,0,0,1,171.31,179.76Z"/><path class="cls-18" d="M171.84,179.46c-.83,2,1.25,3.55,2.68,3.26A3.12,3.12,0,0,1,171.84,179.46Z"/><path class="cls-16" d="M114,195.22a2.29,2.29,0,1,0,2.52,2A2.29,2.29,0,0,0,114,195.22Z"/><path class="cls-17" d="M114.81,194.26a2.29,2.29,0,1,0,2.52,2A2.3,2.3,0,0,0,114.81,194.26Z"/><path class="cls-18" d="M113.25,195.13a2.29,2.29,0,0,0,2,3.69,2.23,2.23,0,0,0,1.26-.55A2.78,2.78,0,0,1,113.25,195.13Z"/><path class="cls-18" d="M113.79,194.84c-.83,2,1.25,3.55,2.68,3.26A3.13,3.13,0,0,1,113.79,194.84Z"/><path class="cls-16" d="M162.17,211.53a2.29,2.29,0,1,0,2.52,2A2.3,2.3,0,0,0,162.17,211.53Z"/><path class="cls-17" d="M163,210.58a2.29,2.29,0,1,0,2.52,2A2.29,2.29,0,0,0,163,210.58Z"/><path class="cls-18" d="M161.43,211.45a2.29,2.29,0,0,0,2,3.69,2.23,2.23,0,0,0,1.26-.55A2.78,2.78,0,0,1,161.43,211.45Z"/><path class="cls-18" d="M162,211.15c-.83,2,1.25,3.56,2.68,3.26A3.11,3.11,0,0,1,162,211.15Z"/><path class="cls-16" d="M124.32,215a2.29,2.29,0,1,0,2.52,2A2.28,2.28,0,0,0,124.32,215Z"/><path class="cls-17" d="M125.14,214a2.29,2.29,0,1,0,2.52,2A2.29,2.29,0,0,0,125.14,214Z"/><path class="cls-18" d="M123.57,214.91a2.26,2.26,0,0,0-.47,1.65,2.29,2.29,0,0,0,2.52,2,2.23,2.23,0,0,0,1.25-.55A2.78,2.78,0,0,1,123.57,214.91Z"/><path class="cls-18" d="M124.11,214.62c-.83,2,1.25,3.55,2.68,3.25A3.12,3.12,0,0,1,124.11,214.62Z"/><path class="cls-16" d="M102.79,201.66a2.29,2.29,0,1,0,.47,4.56,2.29,2.29,0,0,0-.47-4.56Z"/><circle class="cls-17" cx="103.85" cy="202.99" r="2.29" transform="matrix(0.66, -0.75, 0.75, 0.66, -117.48, 148.18)"/><path class="cls-18" d="M102,201.58a2.26,2.26,0,0,0-.47,1.65,2.29,2.29,0,0,0,2.51,2,2.23,2.23,0,0,0,1.26-.55A2.78,2.78,0,0,1,102,201.58Z"/><path class="cls-18" d="M102.58,201.29c-.83,2,1.25,3.55,2.68,3.25A3.11,3.11,0,0,1,102.58,201.29Z"/><path class="cls-16" d="M160.14,162a2.29,2.29,0,1,0,2.51,2A2.28,2.28,0,0,0,160.14,162Z"/><path class="cls-20" d="M161,161a2.29,2.29,0,1,0,2.52,2A2.29,2.29,0,0,0,161,161Z"/><path class="cls-21" d="M159.39,161.91a2.25,2.25,0,0,0-.47,1.64,2.29,2.29,0,0,0,3.77,1.5A2.78,2.78,0,0,1,159.39,161.91Z"/><path class="cls-21" d="M159.93,161.61c-.83,2,1.25,3.55,2.68,3.26A3.13,3.13,0,0,1,159.93,161.61Z"/><path class="cls-16" d="M154.82,167.36a2.29,2.29,0,1,0,2.51,2A2.3,2.3,0,0,0,154.82,167.36Z"/><path class="cls-20" d="M155.64,166.4a2.29,2.29,0,1,0,2.51,2A2.28,2.28,0,0,0,155.64,166.4Z"/><path class="cls-21" d="M154.07,167.27a2.29,2.29,0,0,0,3.3,3.15A2.78,2.78,0,0,1,154.07,167.27Z"/><path class="cls-21" d="M154.61,167c-.83,2,1.25,3.55,2.68,3.26A3.12,3.12,0,0,1,154.61,167Z"/><path class="cls-16" d="M181.34,172.14a2.29,2.29,0,1,0,2.52,2A2.29,2.29,0,0,0,181.34,172.14Z"/><path class="cls-20" d="M182.16,171.19a2.29,2.29,0,1,0,2.52,2A2.3,2.3,0,0,0,182.16,171.19Z"/><path class="cls-21" d="M180.6,172.06a2.29,2.29,0,0,0,2,3.69,2.38,2.38,0,0,0,1.26-.55A2.78,2.78,0,0,1,180.6,172.06Z"/><path class="cls-21" d="M181.14,171.76c-.83,2,1.25,3.56,2.68,3.26A3.11,3.11,0,0,1,181.14,171.76Z"/><path class="cls-16" d="M192,179.59a2.29,2.29,0,1,0,2.52,2A2.29,2.29,0,0,0,192,179.59Z"/><path class="cls-20" d="M192.81,178.64a2.29,2.29,0,1,0,2.52,2A2.3,2.3,0,0,0,192.81,178.64Z"/><path class="cls-21" d="M191.25,179.51a2.29,2.29,0,0,0,2,3.69,2.23,2.23,0,0,0,1.26-.55A2.78,2.78,0,0,1,191.25,179.51Z"/><path class="cls-21" d="M191.79,179.21c-.83,2,1.25,3.56,2.68,3.26A3.11,3.11,0,0,1,191.79,179.21Z"/><path class="cls-16" d="M170.25,183.81a2.29,2.29,0,1,0,2.52,2A2.29,2.29,0,0,0,170.25,183.81Z"/><path class="cls-20" d="M171.07,182.85a2.29,2.29,0,1,0,2.52,2A2.29,2.29,0,0,0,171.07,182.85Z"/><path class="cls-21" d="M169.5,183.72a2.33,2.33,0,0,0-.47,1.65,2.29,2.29,0,0,0,3.77,1.5A2.78,2.78,0,0,1,169.5,183.72Z"/><path class="cls-21" d="M170,183.43c-.83,2,1.25,3.55,2.68,3.26A3.13,3.13,0,0,1,170,183.43Z"/><path class="cls-16" d="M179.7,194.4a2.29,2.29,0,1,0,2.52,2A2.29,2.29,0,0,0,179.7,194.4Z"/><path class="cls-20" d="M180.52,193.45a2.29,2.29,0,1,0,2.52,2A2.28,2.28,0,0,0,180.52,193.45Z"/><path class="cls-21" d="M179,194.32a2.26,2.26,0,0,0-.48,1.64,2.28,2.28,0,0,0,2.52,2,2.36,2.36,0,0,0,1.26-.54A2.77,2.77,0,0,1,179,194.32Z"/><path class="cls-21" d="M179.49,194c-.83,2,1.25,3.55,2.68,3.26A3.12,3.12,0,0,1,179.49,194Z"/><path class="cls-16" d="M154.32,193.66a2.29,2.29,0,1,0,2.52,2A2.29,2.29,0,0,0,154.32,193.66Z"/><path class="cls-20" d="M155.14,192.7a2.29,2.29,0,1,0,2.52,2A2.29,2.29,0,0,0,155.14,192.7Z"/><path class="cls-21" d="M153.57,193.57a2.29,2.29,0,0,0,2.05,3.69,2.23,2.23,0,0,0,1.25-.55A2.78,2.78,0,0,1,153.57,193.57Z"/><path class="cls-21" d="M154.11,193.28c-.83,2,1.25,3.55,2.68,3.26A3.14,3.14,0,0,1,154.11,193.28Z"/><path class="cls-16" d="M166.17,199.34a2.29,2.29,0,1,0,2.52,2A2.28,2.28,0,0,0,166.17,199.34Z"/><path class="cls-20" d="M167,198.39a2.29,2.29,0,1,0,2.52,2A2.29,2.29,0,0,0,167,198.39Z"/><path class="cls-21" d="M165.42,199.26a2.25,2.25,0,0,0-.47,1.64,2.29,2.29,0,0,0,3.77,1.5A2.78,2.78,0,0,1,165.42,199.26Z"/><path class="cls-21" d="M166,199c-.83,2,1.25,3.56,2.68,3.26A3.12,3.12,0,0,1,166,199Z"/><path class="cls-16" d="M154.12,200.15a2.29,2.29,0,1,0,2.52,2A2.29,2.29,0,0,0,154.12,200.15Z"/><path class="cls-20" d="M154.94,199.19a2.29,2.29,0,1,0,2.52,2A2.3,2.3,0,0,0,154.94,199.19Z"/><path class="cls-21" d="M153.38,200.07a2.26,2.26,0,0,0-.48,1.64,2.28,2.28,0,0,0,2.52,2,2.36,2.36,0,0,0,1.26-.54A2.77,2.77,0,0,1,153.38,200.07Z"/><path class="cls-21" d="M153.91,199.77c-.83,2,1.25,3.55,2.68,3.26A3.12,3.12,0,0,1,153.91,199.77Z"/><path class="cls-16" d="M147.53,211.46a2.29,2.29,0,1,0,2.51,2A2.3,2.3,0,0,0,147.53,211.46Z"/><path class="cls-20" d="M148.35,210.5a2.29,2.29,0,1,0,2.51,2A2.28,2.28,0,0,0,148.35,210.5Z"/><path class="cls-21" d="M146.78,211.37a2.29,2.29,0,0,0,2,3.69,2.23,2.23,0,0,0,1.26-.55A2.77,2.77,0,0,1,146.78,211.37Z"/><path class="cls-21" d="M147.32,211.08c-.83,2,1.25,3.55,2.68,3.26A3.12,3.12,0,0,1,147.32,211.08Z"/><path class="cls-16" d="M124.4,198.44a2.29,2.29,0,1,0,2.52,2A2.29,2.29,0,0,0,124.4,198.44Z"/><path class="cls-20" d="M125.22,197.48a2.29,2.29,0,1,0,2.52,2A2.29,2.29,0,0,0,125.22,197.48Z"/><path class="cls-21" d="M123.66,198.35a2.29,2.29,0,0,0,3.3,3.14A2.77,2.77,0,0,1,123.66,198.35Z"/><path class="cls-21" d="M124.19,198.06c-.83,2,1.26,3.55,2.68,3.26A3.14,3.14,0,0,1,124.19,198.06Z"/><path class="cls-16" d="M129.51,201.81a2.29,2.29,0,1,0,2.52,2A2.3,2.3,0,0,0,129.51,201.81Z"/><path class="cls-20" d="M130.33,200.86a2.29,2.29,0,1,0,2.52,2A2.29,2.29,0,0,0,130.33,200.86Z"/><path class="cls-21" d="M128.76,201.73a2.29,2.29,0,0,0,2.05,3.69,2.23,2.23,0,0,0,1.25-.55A2.78,2.78,0,0,1,128.76,201.73Z"/><path class="cls-21" d="M129.3,201.43c-.83,2,1.25,3.56,2.68,3.26A3.12,3.12,0,0,1,129.3,201.43Z"/><path class="cls-16" d="M127.23,204.93a2.29,2.29,0,1,0,2.52,2A2.3,2.3,0,0,0,127.23,204.93Z"/><path class="cls-20" d="M128.06,204a2.29,2.29,0,1,0,2.51,2A2.31,2.31,0,0,0,128.06,204Z"/><path class="cls-21" d="M126.49,204.85a2.29,2.29,0,0,0,3.3,3.14A2.78,2.78,0,0,1,126.49,204.85Z"/><path class="cls-21" d="M127,204.55c-.83,2,1.25,3.55,2.68,3.26A3.11,3.11,0,0,1,127,204.55Z"/><path class="cls-16" d="M120.58,191a2.29,2.29,0,1,0,2.52,2A2.28,2.28,0,0,0,120.58,191Z"/><path class="cls-20" d="M121.4,190a2.29,2.29,0,1,0,2.52,2A2.29,2.29,0,0,0,121.4,190Z"/><path class="cls-21" d="M119.84,190.89a2.27,2.27,0,0,0-.48,1.65,2.29,2.29,0,0,0,3.78,1.49A2.77,2.77,0,0,1,119.84,190.89Z"/><path class="cls-21" d="M120.37,190.6c-.83,2,1.25,3.55,2.68,3.25A3.12,3.12,0,0,1,120.37,190.6Z"/><path class="cls-16" d="M115.23,186.56a2.29,2.29,0,1,0,2.52,2A2.29,2.29,0,0,0,115.23,186.56Z"/><path class="cls-20" d="M116.05,185.61a2.29,2.29,0,1,0,2.52,2A2.29,2.29,0,0,0,116.05,185.61Z"/><path class="cls-21" d="M114.49,186.48a2.29,2.29,0,0,0,2,3.69,2.41,2.41,0,0,0,1.26-.55A2.78,2.78,0,0,1,114.49,186.48Z"/><path class="cls-21" d="M115,186.18c-.83,2,1.25,3.56,2.68,3.26A3.11,3.11,0,0,1,115,186.18Z"/><path class="cls-16" d="M131.2,174.49a2.29,2.29,0,1,0,2.52,2A2.29,2.29,0,0,0,131.2,174.49Z"/><path class="cls-20" d="M132,173.53a2.29,2.29,0,1,0,2.52,2A2.3,2.3,0,0,0,132,173.53Z"/><path class="cls-21" d="M130.46,174.4a2.34,2.34,0,0,0-.48,1.65,2.3,2.3,0,0,0,2.52,2,2.23,2.23,0,0,0,1.26-.55A2.77,2.77,0,0,1,130.46,174.4Z"/><path class="cls-21" d="M131,174.11c-.83,2,1.25,3.55,2.68,3.26A3.12,3.12,0,0,1,131,174.11Z"/><path class="cls-16" d="M140.39,172.45a2.29,2.29,0,1,0,2.52,2A2.28,2.28,0,0,0,140.39,172.45Z"/><path class="cls-20" d="M141.21,171.49a2.29,2.29,0,1,0,2.52,2A2.3,2.3,0,0,0,141.21,171.49Z"/><path class="cls-21" d="M139.64,172.37a2.25,2.25,0,0,0-.47,1.64,2.29,2.29,0,0,0,3.77,1.5A2.78,2.78,0,0,1,139.64,172.37Z"/><path class="cls-21" d="M140.18,172.07c-.83,2,1.25,3.55,2.68,3.26A3.12,3.12,0,0,1,140.18,172.07Z"/><path class="cls-16" d="M121.67,165.57a2.29,2.29,0,1,0,2.51,2A2.28,2.28,0,0,0,121.67,165.57Z"/><path class="cls-20" d="M122.49,164.62a2.29,2.29,0,1,0,2.51,2A2.28,2.28,0,0,0,122.49,164.62Z"/><path class="cls-21" d="M120.92,165.49a2.25,2.25,0,0,0-.47,1.64,2.29,2.29,0,0,0,3.77,1.5A2.78,2.78,0,0,1,120.92,165.49Z"/><path class="cls-21" d="M121.46,165.19c-.83,2,1.25,3.55,2.68,3.26A3.12,3.12,0,0,1,121.46,165.19Z"/><path class="cls-16" d="M112.88,179.48a2.29,2.29,0,1,0,2.52,2A2.29,2.29,0,0,0,112.88,179.48Z"/><path class="cls-20" d="M113.7,178.53a2.29,2.29,0,1,0,2.52,2A2.29,2.29,0,0,0,113.7,178.53Z"/><path class="cls-21" d="M112.14,179.4a2.27,2.27,0,0,0-.48,1.65,2.29,2.29,0,0,0,3.78,1.49A2.77,2.77,0,0,1,112.14,179.4Z"/><path class="cls-21" d="M112.67,179.1c-.83,2,1.25,3.56,2.68,3.26A3.12,3.12,0,0,1,112.67,179.1Z"/><path class="cls-16" d="M108.64,203.9a2.29,2.29,0,1,0,2.52,2A2.3,2.3,0,0,0,108.64,203.9Z"/><path class="cls-20" d="M109.46,203a2.29,2.29,0,1,0,2.52,2A2.29,2.29,0,0,0,109.46,203Z"/><path class="cls-21" d="M107.9,203.82a2.27,2.27,0,0,0-.48,1.65A2.29,2.29,0,0,0,111.2,207,2.77,2.77,0,0,1,107.9,203.82Z"/><path class="cls-21" d="M108.43,203.53c-.83,2,1.26,3.55,2.68,3.25A3.12,3.12,0,0,1,108.43,203.53Z"/><path class="cls-16" d="M102.69,189a2.29,2.29,0,1,0,2.52,2A2.29,2.29,0,0,0,102.69,189Z"/><path class="cls-20" d="M103.51,188.06a2.29,2.29,0,1,0,2.52,2A2.29,2.29,0,0,0,103.51,188.06Z"/><path class="cls-21" d="M102,188.93a2.29,2.29,0,0,0,3.3,3.14A2.78,2.78,0,0,1,102,188.93Z"/><path class="cls-21" d="M102.49,188.63c-.83,2,1.25,3.56,2.68,3.26A3.11,3.11,0,0,1,102.49,188.63Z"/><path class="cls-16" d="M146.2,197a2.29,2.29,0,1,0,2.52,2A2.3,2.3,0,0,0,146.2,197Z"/><path class="cls-20" d="M147,196.08a2.29,2.29,0,1,0,2.52,2A2.29,2.29,0,0,0,147,196.08Z"/><path class="cls-21" d="M145.46,197a2.29,2.29,0,0,0,2,3.69,2.26,2.26,0,0,0,1.26-.55A2.78,2.78,0,0,1,145.46,197Z"/><path class="cls-21" d="M146,196.65c-.82,2,1.26,3.56,2.69,3.26A3.13,3.13,0,0,1,146,196.65Z"/><path class="cls-16" d="M96.26,177.72a2.29,2.29,0,1,0,2.52,2A2.29,2.29,0,0,0,96.26,177.72Z"/><path class="cls-20" d="M97.08,176.76a2.29,2.29,0,1,0,2.52,2A2.3,2.3,0,0,0,97.08,176.76Z"/><path class="cls-21" d="M95.52,177.63a2.29,2.29,0,0,0,2,3.69,2.36,2.36,0,0,0,1.26-.54A2.78,2.78,0,0,1,95.52,177.63Z"/><path class="cls-21" d="M96.05,177.34c-.83,2,1.25,3.55,2.68,3.26A3.13,3.13,0,0,1,96.05,177.34Z"/><path class="cls-23" d="M249.23,166.68c-18.08-13-50.27-10.73-61.84-2.32s-21.57,21.08-23,30.1a31.56,31.56,0,0,0,5,23c4,5.64,7,9.51,8.2,12.05s1.63,6.34,3.11,7c2.42,1.09,3.88-1.59,6-.79s7,9.43,17.12,11.45c7,1.39,18.54-2.34,20.11-2.6s3.22,1.57,6.16.94c16.25-3.43,35-15.7,39.44-32.12C274.23,196.09,268.14,180.24,249.23,166.68Zm-32.73,47c-9.72-1-23.23-7.08-21.82-15.65,1.37-8.35,11.51-12,22.58-11.69s19.56,7.8,19.49,14.8S226.22,214.61,216.5,213.64Z"/><path class="cls-24" d="M225.82,158.18a76.29,76.29,0,0,0-15.79-.45c6.06,3.91,8.91,11.2,11.09,12a3.62,3.62,0,0,0,4.59-5C224.76,162.82,223.33,160.21,225.82,158.18Z"/><path class="cls-24" d="M249.23,166.68a40.58,40.58,0,0,0-4.44-2.73c16.34,14.57,19.18,34.27,19.8,39.89.32,2.93.78,9.86,5.1,5.52a6.53,6.53,0,0,0,.93-1.19C272.86,192.91,266.23,178.87,249.23,166.68Z"/><path class="cls-10" d="M217.26,186.3c-11.07-.26-21.21,3.34-22.58,11.69a7.85,7.85,0,0,0,1.12,5.41c10.59-8.65,31.95-7.26,40.58-.1a7.57,7.57,0,0,0,.37-2.2C236.82,194.1,228.34,186.55,217.26,186.3Z"/><path class="cls-9" d="M217.26,186.3a34.89,34.89,0,0,0-14.32,2.35c8.9,0,14.46,7.1,18.37,7.63,2.9.39,6.75-2,9.36-.57,1.79,1,2,3.19,1.49,5a20.16,20.16,0,0,1,4.22,2.61,7.57,7.57,0,0,0,.37-2.2C236.82,194.1,228.34,186.55,217.26,186.3Z"/><path class="cls-2" d="M202.3,188.93c-4.08,1.92-6.94,4.9-7.62,9.06a7.85,7.85,0,0,0,1.12,5.41,27.19,27.19,0,0,1,12-5.23C205.27,197.23,201.87,191.11,202.3,188.93Z"/><path class="cls-2" d="M230.09,245.47c-2.94.63-4.59-1.2-6.16-.94s-13.13,4-20.11,2.6c-10.14-2-15-10.65-17.12-11.45s-3.55,1.88-6,.79c-1.48-.66-1.92-4.46-3.11-7s-4.19-6.41-8.2-12.05a31.39,31.39,0,0,1-5.24-21.2h0c-4.58,16.39,10.18,40.11,23.18,47.95a58.13,58.13,0,0,0,56.27,2c14.76-7.31,25.38-20.53,25.77-32.38h0C264.7,230,246.18,242.07,230.09,245.47Z"/><path class="cls-25" d="M217.26,186.3c-5.73-.14-11.21.77-15.36,2.83,11.38-1.53,17.43,5.61,19.66,5.75s6.81-5.59,12.61-.69C230.85,189.87,224.64,186.47,217.26,186.3Z"/><path class="cls-7" d="M220.89,245.3h0c-4.28,1.1-11.92,2.86-17.07,1.83-10.14-2-15-10.65-17.12-11.45s-3.55,1.88-6,.79c-1.48-.66-1.92-4.46-3.11-7s-4.19-6.41-8.2-12.05a31.39,31.39,0,0,1-5.24-21.2h0c-4.58,16.39,10.18,40.11,23.18,47.95A57.57,57.57,0,0,0,224.44,252C221.17,251.6,219.46,248.48,220.89,245.3Z"/><path class="cls-26" d="M205.6,187.56l.11.1a38.08,38.08,0,0,1,11.55-1.36c11.08.25,19.56,7.8,19.49,14.8,0,3.48-2.64,6.83-6.43,9.21l.19.18a10.69,10.69,0,0,0,7.4-14.83C233.82,187,218.08,179.07,205.6,187.56Z"/><path class="cls-25" d="M207,239c-19.21-4.2-39.7-21.18-42.94-40.9a31.18,31.18,0,0,0,5.38,19.31c4,5.64,7,9.51,8.2,12.05s1.63,6.34,3.11,7c2.42,1.09,3.88-1.59,6-.79s7,9.43,17.12,11.45c7,1.39,18.54-2.34,20.11-2.6s3.22,1.57,6.16.94c16.25-3.43,35-15.7,39.44-32.12.25-.92.47-1.83.65-2.74C257.39,231.24,233.21,244.74,207,239Z"/><path class="cls-26" d="M173.32,177.64c-4.78,5.84-8.14,11.88-8.91,16.82a33.19,33.19,0,0,0-.37,3.65c3.24,19.72,23.73,36.7,42.94,40.9a56.08,56.08,0,0,0,18.66.93c-24.58-1.56-36.91-12-43.54-18C178.48,218.66,159.11,199.29,173.32,177.64Z"/><path class="cls-26" d="M229.57,239.33a22.16,22.16,0,0,1-3.9,5.5,7.24,7.24,0,0,0,4.42.64,58.46,58.46,0,0,0,9.72-3,16.33,16.33,0,0,1-1.64-5.51A55.47,55.47,0,0,1,229.57,239.33Z"/><path class="cls-26" d="M251.94,229.84a23.46,23.46,0,0,1-1.05,6.8c8.8-5.8,16.08-13.86,18.64-23.29.25-.92.47-1.83.65-2.74A65.1,65.1,0,0,1,251.94,229.84Z"/><path class="cls-10" d="M244.51,240.33c-.55.28-1.11.55-1.67.81l-.06,0q-2.66,1.23-5.36,2.21l-.27.09-1.43.49-.46.14-1.24.38-.54.15c-.41.12-.81.23-1.22.33l-.49.13c-.56.14-1.12.27-1.68.38-2.94.63-4.59-1.2-6.16-.94s-13.13,4-20.11,2.6c-10.14-2-15-10.65-17.12-11.45s-3.55,1.88-6,.79c-1.48-.66-1.92-4.46-3.11-7s-4.19-6.41-8.2-12.05c-.23-.32-.45-.65-.66-1-.08-.12-.15-.24-.22-.36l-.41-.66-.25-.46c-.11-.2-.23-.4-.34-.61s-.17-.35-.26-.53l-.29-.58c-.09-.19-.17-.38-.26-.58s-.17-.37-.25-.56-.17-.42-.26-.64-.14-.36-.2-.54-.17-.46-.25-.69-.12-.34-.17-.51-.16-.5-.24-.75-.09-.32-.14-.48-.15-.55-.22-.82-.07-.29-.1-.43l-.21-.9-.06-.33c-.07-.34-.13-.68-.19-1,0-.05,0-.1,0-.14a33.35,33.35,0,0,1-.38-6.53v-.21h0c0-.63.07-1.26.14-1.9h0c-3.65,13,5,30.73,15.18,41.35,2.83,2,5.47-.44,8.22,2s9.95,9.51,19.36,9.62c6.53.07,15.87-3.23,17.27-3.09s2.33.81,4.82.9c3.26.13,11.29-2,15.58-6.66h0Z"/><path class="cls-9" d="M220.88,245.3l-1.69.42-.12,0-.82.19-.12,0-.92.21-.19,0-.8.17-.21,0-1,.19-.22,0-.82.14-.25,0-1,.16-.22,0-.84.11-.27,0-1,.11h-.19l-.86.07-.27,0-1,0h-1.26c-.32,0-.64,0-1,0h-.07c-.29,0-.58,0-.86-.09l-.23,0c-.3,0-.6-.08-.89-.14-10.14-2-15-10.65-17.12-11.45s-3.55,1.88-6,.79c-1.48-.66-1.92-4.46-3.11-7s-4.19-6.41-8.2-12.05c-.23-.32-.45-.65-.66-1h0c-.08-.12-.15-.24-.22-.36h0l-.41-.66h0l-.25-.46h0l-.11-.19c-.17-.31-.33-.62-.49-.94h0l-.05-.09c-.17-.35-.34-.71-.5-1.07h0c-.08-.19-.17-.37-.25-.56h0c-.25-.61-.49-1.23-.71-1.87h0a1.72,1.72,0,0,1-.07-.21q-.22-.66-.42-1.35l-.06-.18h0c-.09-.33-.18-.65-.26-1l-.06-.27h0c-.07-.3-.14-.59-.21-.9h0l-.06-.33h0c-.07-.36-.14-.72-.2-1.08,0,0,0-.06,0-.08h0c-.08-.51-.15-1-.21-1.55v-.1c0-.5-.1-1-.13-1.51v-.1q0-.78-.06-1.56V200q0-.83,0-1.65h0v-.21h0c0-.63.07-1.26.14-1.9h0c-.13.46-.24.94-.34,1.42l-.09.45c-.06.34-.12.68-.17,1l-.06.52c-.05.35-.08.7-.11,1.05l0,.45c0,.5,0,1,0,1.51v.15c0,.46,0,.93,0,1.39,0,.18,0,.35,0,.52,0,.35,0,.7.08,1.06l.06.57c0,.36.09.72.14,1.08,0,.17,0,.34.07.51.08.52.18,1,.28,1.55,0,.13.06.25.08.38l.27,1.2c.06.22.11.43.17.64s.17.64.26,1,.13.46.19.69l.3.94.21.66c.16.47.33.94.5,1.4l.3.8.33.83.35.83.3.7.39.88c.1.2.2.4.29.61.54,1.12,1.1,2.23,1.7,3.32l.2.36.6,1,.21.37.65,1.06.12.19c1,1.64,2.11,3.23,3.25,4.74l.07.1a58.64,58.64,0,0,0,4.59,5.4c2.83,2,5.47-.44,8.22,2s9.95,9.51,19.36,9.62c4.31.05,9.84-1.37,13.5-2.31a6,6,0,0,1,.45-1.53h0Z"/><path class="cls-27" d="M196.59,178.74c.83,2.66,5.15,1.54,10.27.53a50.62,50.62,0,0,0-2.62-6.72C198.88,173.66,195.72,176,196.59,178.74Z"/><path class="cls-27" d="M209.64,171.86a24.22,24.22,0,0,1,2.25,6.62,22.82,22.82,0,0,1,5.84.09c-.48-2-2-6.06-2.14-6.56A39.88,39.88,0,0,0,209.64,171.86Z"/><path class="cls-27" d="M223.84,173.75a37.08,37.08,0,0,0-3.81-1s1.48,5.23,1.85,7c8.71,3.73,15.56,11.41,19.87,11.28-.7-2.72-3.53-8.1-4.91-10.92A54.86,54.86,0,0,0,223.84,173.75Z"/><path class="cls-27" d="M182.31,212.14c-3.75-5.51-7.08-11.39-9-12.76a27.74,27.74,0,0,0,.71,5.9c2.26,9.9,11.73,17.78,17.51,18.68A96.19,96.19,0,0,1,182.31,212.14Z"/><path class="cls-27" d="M176.64,186.83A20.75,20.75,0,0,0,173.8,194c7,5.19,16.21,23.86,22.39,26.84.62-4.62-5.64-10.92-7.19-17.34C186.29,199.17,178.41,191.15,176.64,186.83Z"/><path class="cls-27" d="M182.35,182.7a3.79,3.79,0,0,0-1.57.31c2,4,3.49,7.33,7,11.57C187.09,188.56,186.14,182.84,182.35,182.7Z"/><path class="cls-28" d="M239,170c-2.42,2.88,9.56,10.17,13.61,19.86,5.94,14.22-.35,21.14,3.26,23.19s4.66-11.38-.54-23.65S242.18,166.2,239,170Z"/><path class="cls-27" d="M198,210.44c-.4.55,3.22,4.05,8.81,7.34a42.13,42.13,0,0,0-2.23-4.81C200.55,211.25,198.3,210,198,210.44Z"/><path class="cls-27" d="M210.29,215.21c.61,1.17,2,3.88,2.77,5.71a40.64,40.64,0,0,0,5.22,1.8c-.22-1.29-2.87-5.56-3.35-6.18C213.33,216.17,211.77,215.71,210.29,215.21Z"/><path class="cls-27" d="M225.77,217.1a23.9,23.9,0,0,1-5.21.25,30,30,0,0,1,3.52,6.39,24.8,24.8,0,0,0,4.64,0,29,29,0,0,0,5.66-1.11,60.6,60.6,0,0,0-2.86-7.56A17.77,17.77,0,0,1,225.77,217.1Z"/><path class="cls-27" d="M234.33,213.21c1.5,2,3.56,5.57,3.95,7.91a24.67,24.67,0,0,0,9.28-7.52c-.43-3.41-1.07-9.47-1.39-11.41C243,203.42,239.62,209.17,234.33,213.21Z"/><path class="cls-27" d="M250.38,208.19c.6-2.28.35-4.24-.8-5.37A24,24,0,0,1,250.38,208.19Z"/><path class="cls-23" d="M222.57,191.69c-1.08.79-2.07,1.27-1.64,1.86s1.65.44,2.74-.35,1.61-1.9,1.18-2.49S223.66,190.91,222.57,191.69Z"/><path class="cls-23" d="M215.6,245.4a45.41,45.41,0,0,1-17.25-2.79C203.58,246.11,209.42,246.6,215.6,245.4Z"/><path class="cls-26" d="M208.54,185.09c10.16-4.35,19.88-.66,28,6.77C228.62,183.05,217.41,179.76,208.54,185.09Z"/><path class="cls-25" d="M203,188.11c11.22-4.07,21.21-3.22,29.74,3.43Q219.66,180.32,203,188.11Z"/><path class="cls-26" d="M264.52,217.08c-9.84,10.06-21.26,17.5-34.79,21.43C243.92,235.55,255.36,228.15,264.52,217.08Z"/><path class="cls-2" d="M193.89,199.63c0-4.44,2.24-8.12,7-11C195.81,190.73,193.36,194.32,193.89,199.63Z"/><path class="cls-29" d="M179.71,178.69c1.66-1.09,3.76-.53,7.15,2.75,7.07,6.81,9.46,14.78,10.75,13.67,2.1-1.8-6.48-14-11.4-17.85s-8.27-4.22-9.94-2.28c-3.61,4.18.75,12.32,7.51,20.39s17.05,24.22,13.54,26.68S182,203.6,176.54,197.9c-4.93-5.13-9.22-5.47-11-3.55s-1.5,9.89.67,9.79c1.66-.08-.34-5.35,1.32-7.66.85-1.2,2.52-2,7.2,2.7s19.51,33.21,25.41,26.5-8.86-24-14.77-32.51S178.05,179.78,179.71,178.69Z"/><path class="cls-30" d="M167,195.76c-1.07.91-.95,2.23-1.49,3.74a1.5,1.5,0,0,1-1.11,1c.19,2,.79,3.66,1.79,3.61,1.66-.08-.34-5.35,1.32-7.66.62-.87,1.67-1.53,4,0C169.61,195.09,168.14,194.79,167,195.76Z"/><path class="cls-30" d="M188.92,219.32c4.38,5.54,8.63,9.27,11.2,6.36a5.9,5.9,0,0,0,1.36-4.1C200.17,226.48,196.71,227.28,188.92,219.32Z"/><path class="cls-30" d="M182.31,178.32a11.81,11.81,0,0,1,4.55,3.12c5.76,5.54,8.41,11.86,9.9,13.42-1.19-3.64-3.52-6.86-6.09-10.39C189.21,182.47,185.16,178.47,182.31,178.32Z"/><path class="cls-31" d="M199.62,216.72c-2-7-8.05-14.93-14.86-23.07C190.89,202,196.23,209.86,199.62,216.72Z"/><path class="cls-31" d="M177.05,184.48c-1-4.89,2.25-10,7.21-8.1C176.81,171.22,173.43,177.25,177.05,184.48Z"/><path class="cls-31" d="M172.08,194.92c4.67,3.32,9.48,10,14.33,17.59C181.78,204.42,177.06,197.72,172.08,194.92Z"/><path class="cls-30" d="M166.48,195.88c1.84-1.88,4-.77,6.13,1.13C170.29,194.57,168.17,193.61,166.48,195.88Z"/><path class="cls-30" d="M186.74,215.84c-3.1-4.84-6.22-9.37-9.36-13.51C180.18,206.77,183.32,211.28,186.74,215.84Z"/><path class="cls-30" d="M188,217.74c4.37,4.87,8.34,8.13,11.23,6.91C195.84,224.87,192,221.8,188,217.74Z"/><path class="cls-30" d="M197.68,221.93c2.37-2.64-.78-7.59-3.91-12.54C196.37,214.31,199.29,219.41,197.68,221.93Z"/><path class="cls-30" d="M182,178c4.1.6,7.39,4.24,10.48,8.61C189.56,181.65,186.26,178,182,178Z"/><path class="cls-30" d="M179.08,181.58c-.64-2.59.5-3.63,2.84-3.62C179.16,177.47,178,179,179.08,181.58Z"/><path class="cls-29" d="M201.47,157.25c-6.17,3.86,2,11.11,4.68,16.27,4,7.72,3.28,15,4.67,14.91,2.13-.1.5-10.65-1.8-15.59s-6.84-10.23-4.73-12.09,8.3,4.2,11.74,10.73,3.58,18.5,5.51,18.34-.33-12.47-3.21-19.21C215.18,163.22,207,153.79,201.47,157.25Z"/><path class="cls-30" d="M202.8,168.47a47.69,47.69,0,0,1,3.35,5.05c4,7.72,3.28,15,4.67,14.91s1.21-3.72.49-7.73C210.22,180.54,207.68,173.15,202.8,168.47Z"/><path class="cls-30" d="M220.33,180.36a44.69,44.69,0,0,0-5.3-12c-3.78-5.82-9.09-10.51-11-7.38a1.79,1.79,0,0,1,.23-.25c2.1-1.86,8.3,4.2,11.74,10.73s3.58,18.5,5.51,18.34c1.05-.08.86-3.75,0-8.16A1.76,1.76,0,0,1,220.33,180.36Z"/><path class="cls-31" d="M201.35,158.19c4.37-2.13,10.17,3.21,15.21,9.69C212,160.45,206,154.86,201.35,158.19Z"/><path class="cls-30" d="M201.64,166.57a41.63,41.63,0,0,1,8,11.29A25.17,25.17,0,0,0,201.64,166.57Z"/><path class="cls-30" d="M203.61,161.47c.58-3,3.54-2.24,7.36,1.29C207.22,158.24,203.54,158.29,203.61,161.47Z"/><path class="cls-30" d="M220,178.41a30.65,30.65,0,0,0-6.87-13.2A42.63,42.63,0,0,1,220,178.41Z"/><path class="cls-29" d="M269.24,210.61c-.91-.11-.88,3.95-2,4.39-1.49.57-2.44-3.05-3-6.59S261,188.71,252.27,175c-5.6-8.81-21.61-21.61-26-16.23-1.65,2,1.87,6.47,3.72,9.33s10.49,14.93,14.79,27.16c5.82,16.52,5,41.63-.13,42.91s-3.92-15.27-11.48-25.47c-2.08-2.81-5.23-4-6.45-.55,1.51-1.21,3.33-.31,5,1.9,6.47,8.67,5.27,32.09,14.07,28.37s5.1-34.65.87-47.31c-4.55-13.66-15.56-29.52-14.12-31.54,2.69-3.75,13.06,6.27,17.8,13,6.35,9.07,10.89,27.27,11.81,32.85s2.67,8.63,5.33,7.61C269.82,216.16,270.61,210.78,269.24,210.61Z"/><path class="cls-30" d="M244.63,238.15c-1.29.32-2.18-.48-2.9-2-2.53-.15-3.43-3.7-4-6.24-.83-3.57-1.42-7.27-2.79-10.66-1.6-4-3.2-8.71-7.37-8.53a3.74,3.74,0,0,0-.85,1.44c1.51-1.21,3.33-.31,5,1.9,6.47,8.67,5.27,32.09,14.07,28.37,3.44-1.45,5-7.06,5.3-14.09.06-1.67-2-5.59-2.28-9.29C249.05,229.11,247.53,237.43,244.63,238.15Z"/><path class="cls-30" d="M267.6,216.15c-2.25,1.12-3.58-1.32-4.08-3.58-1.66-7.53-3.17-14.58-6.36-21.49a126.71,126.71,0,0,1,5,18.37c.92,5.58,2.67,8.63,5.33,7.61,1.49-.57,2.36-2.91,2.45-4.61A5.19,5.19,0,0,1,267.6,216.15Z"/><path class="cls-30" d="M231.54,162.24c-.95,1.09,1.79,5.26,2.26,5.87-1.12-2.36-1.69-4-1.29-4.56,2.43-3.38,11.08,4.42,16.23,10.95C239.05,160.38,232.73,160.87,231.54,162.24Z"/><path class="cls-31" d="M243.18,165.65c7.22,7.39,12.73,16.57,16.7,27.38C256.78,181.78,251.25,172.63,243.18,165.65Z"/><path class="cls-31" d="M230.85,167.67c-3.65-5.19-3-9,1.7-8.76C225,156.07,225.38,161.37,230.85,167.67Z"/><path class="cls-31" d="M247.57,201c-1.06-6.71-4.18-14.05-8.36-21.71A183.82,183.82,0,0,1,247.57,201Z"/><path class="cls-25" d="M242.61,242.15c4.46,1.5,7.18-3.19,8-10.94C249.41,239.08,246.18,242.66,242.61,242.15Z"/><path class="cls-31" d="M229.66,210.37c3,1.46,5.32,6.31,7.6,11.5C235.16,216.08,232.87,211.14,229.66,210.37Z"/><path class="cls-29" d="M227.65,210.88c2.6.09,4.49,2.5,6.12,5.8C232.35,213.52,230.75,210.73,227.65,210.88Z"/><path class="cls-30" d="M237.19,226.74c1,4,1.71,8.65,4.23,9.07C239.52,235.08,238.37,230.86,237.19,226.74Z"/><path class="cls-30" d="M250,223c-.83-2.88-.79-6.75-1.5-11C248.78,216.32,248.8,220.65,250,223Z"/><path class="cls-30" d="M231.2,162c2.5-2.55,8.25.9,13.2,6.41C238.68,161.24,232.55,158.91,231.2,162Z"/><path class="cls-30" d="M262.5,206.65a54.3,54.3,0,0,0-6.08-18A91.52,91.52,0,0,1,262.5,206.65Z"/><path class="cls-30" d="M265.4,215.83c1.85,1.3,3.92-.76,4.35-3.63C269,215.13,267.11,216.61,265.4,215.83Z"/><path class="cls-29" d="M213.31,213.16c5.71,5.78,11.93,20.3,6.79,21.15-4,.66-9.63-25.1-18.16-25.33,8,5.71,13.29,33.13,20.36,29.38C230.79,233.87,218,210.1,213.31,213.16Z"/><path class="cls-30" d="M213.31,213.16a37.41,37.41,0,0,1,8.4,15.6,26.26,26.26,0,0,0-4.84-12.4C216.14,215.42,214.27,213.26,213.31,213.16Z"/><path class="cls-30" d="M221.87,236.7c-2.71.87-5.32-2.8-6.42-4.88s-3.08-5.29-4.08-7c3.6,8.1,7,15.65,10.93,13.57a5.6,5.6,0,0,0,2.78-4.69A5.42,5.42,0,0,1,221.87,236.7Z"/><path class="cls-31" d="M214.87,213.34c3,2.37,5.65,7,8.22,12.14C221.16,220.19,218.8,215.56,214.87,213.34Z"/><path class="cls-31" d="M203.24,209.6c3.06,2.63,6.07,7.14,9,12.61C209.7,215.56,206.76,211,203.24,209.6Z"/><path class="cls-30" d="M211.12,223.38c3.85,6.76,6.54,13,10.13,13.12C217.35,235,214.93,229.41,211.12,223.38Z"/><path class="cls-26" d="M166.41,207.65c4.59,12.55,14.67,22,29.74,28.59C182.41,229.38,172.07,220.15,166.41,207.65Z"/><path class="cls-25" d="M202.13,237.28c8.69,2.38,16.81,3.52,23.66,2C218.59,239.89,210.56,239,202.13,237.28Z"/><path class="cls-26" d="M217.58,238.43A81.57,81.57,0,0,1,180.83,220C192,230.83,204.29,236.66,217.58,238.43Z"/><path class="cls-23" d="M167.8,197.07c-.2,9.87,5.12,18.59,14.93,26.37C173.38,215,168.73,206.14,167.8,197.07Z"/><path class="cls-26" d="M174.27,176.85a30.16,30.16,0,0,0-5.66,16A54,54,0,0,1,174.27,176.85Z"/><path class="cls-25" d="M180.06,178.77c4-.5,9.09,6.21,14.07,12.37C190.08,185.09,184.15,176.83,180.06,178.77Z"/><path class="cls-25" d="M189.74,220.76c3.92,5.55,7.79,8.8,10.48,5.05C198.08,228.35,194.45,226.23,189.74,220.76Z"/><path class="cls-25" d="M221.9,232.41c0-6-2.75-11.74-7-17.38C218.48,220.76,221,226.54,221.9,232.41Z"/><path class="cls-25" d="M213.43,230c2.21,5.64,4.69,9.93,8.19,8.88C219,239.27,216.26,235.92,213.43,230Z"/><path class="cls-25" d="M209,219.55a31.88,31.88,0,0,0-6.64-10.26A103,103,0,0,1,209,219.55Z"/><path class="cls-25" d="M232.51,163.55c2.64-1.33,7.83,3,12.88,7.06C240,165.34,234.94,160.89,232.51,163.55Z"/><path class="cls-25" d="M204,161.14c2.54-.83,7.7,4,11.6,9.58C212.69,165.5,206.71,158.72,204,161.14Z"/><path class="cls-23" d="M184.56,220.06c-5.61-5.69-9.25-12-10.82-18.87C174.63,208.84,178.45,215,184.56,220.06Z"/><path class="cls-27" d="M180.07,217.12c3.37,4.33,7.22,6.89,11.68,7.32C187.7,223.59,183.81,221.13,180.07,217.12Z"/><path class="cls-27" d="M176.31,186.76a10.19,10.19,0,0,0-2.9,7.05A21.1,21.1,0,0,1,176.31,186.76Z"/><path class="cls-27" d="M180.9,182.57c3.86-1.23,5.7,2.13,6.54,7.19C187.2,184.15,185,180.52,180.9,182.57Z"/><path class="cls-23" d="M195.48,220.24c.43-3.88-5.06-9.84-7.23-16.55C189.82,211,195.35,216,195.48,220.24Z"/><path class="cls-24" d="M178.71,172.74c6.56-5.72,13-9.89,19.41-12C192,161.21,185.53,165.38,178.71,172.74Z"/><path class="cls-27" d="M196.88,180.33c-2.65-3.19.51-6.76,6.93-8.2C196.36,172.59,193.6,177.62,196.88,180.33Z"/><path class="cls-27" d="M209.41,171.41a38.16,38.16,0,0,1,5.85.12A8.66,8.66,0,0,0,209.41,171.41Z"/><path class="cls-27" d="M236.48,179.37a37.05,37.05,0,0,0-16.4-7.16A61.43,61.43,0,0,1,236.48,179.37Z"/><path class="cls-23" d="M197.24,179c1.23,1.77,5.08.71,8.76-.15C202.34,179.53,198.85,180.06,197.24,179Z"/><path class="cls-23" d="M233.12,186.27a23.6,23.6,0,0,0-11-6.76A52.45,52.45,0,0,1,233.12,186.27Z"/><path class="cls-26" d="M232.82,210.39c7-2.62,9.83-9.74,4.74-17.54C241.36,200.62,239.07,207.38,232.82,210.39Z"/><path class="cls-23" d="M210.86,157.92a28.7,28.7,0,0,1,8.37,9.26C217.26,162.9,214.56,159.69,210.86,157.92Z"/><path class="cls-23" d="M225.24,158.37c-2.31,1.43-1.94,3.8.14,6.24C223.86,162.12,223.52,160,225.24,158.37Z"/><path class="cls-24" d="M221.6,170.2c2.77.91,6.8-1.67,4.42-5.8C227.41,168.27,224.61,170.57,221.6,170.2Z"/><path class="cls-32" d="M219,193.23a15.67,15.67,0,0,0-11-4.45A26,26,0,0,1,219,193.23Z"/><path class="cls-32" d="M208.1,246.69a33.21,33.21,0,0,1-16.21-6.89C197.89,245.81,203.13,247.07,208.1,246.69Z"/><path class="cls-32" d="M179.36,233.42c.69,2.85,2.22,3.56,4.54,2.26A3.54,3.54,0,0,1,179.36,233.42Z"/><path class="cls-23" d="M263.57,194.72c-1.55-10.55-6.91-19.84-15.23-28.17A63.63,63.63,0,0,1,263.57,194.72Z"/><path class="cls-23" d="M264.52,201.58c1.07,7.63,1.74,10.92,5.32,7.21C266.23,211.4,266.08,209.51,264.52,201.58Z"/><path class="cls-28" d="M239.08,169.34c-3.42,1.84.49,5.31,5,9.46C240.15,174.53,236.62,171.22,239.08,169.34Z"/><path class="cls-28" d="M256.4,213.85c3.25.41,4.05-6.72,2.05-15.52C259.7,205.92,259.77,213,256.4,213.85Z"/><path class="cls-23" d="M255.42,206.89c1.5-9.51-.57-17.56-6.68-23.94C254.35,189.56,256.33,197.64,255.42,206.89Z"/><path class="cls-27" d="M238.47,221.5a15.58,15.58,0,0,0,9.28-7.32A25.32,25.32,0,0,1,238.47,221.5Z"/><path class="cls-27" d="M249.63,202.46c1.41,1.25,1.79,3.24.88,6.15C251.66,205.7,251.6,203.52,249.63,202.46Z"/><path class="cls-27" d="M224.2,224.13a15.07,15.07,0,0,0,10.32-1A27.39,27.39,0,0,1,224.2,224.13Z"/><path class="cls-27" d="M218.24,223a44.76,44.76,0,0,1-5.11-1.79A11.53,11.53,0,0,0,218.24,223Z"/><path class="cls-27" d="M206.68,218.11a35.79,35.79,0,0,1-8.25-6.24C200.21,214.63,203.11,216.61,206.68,218.11Z"/><path class="cls-23" d="M234.79,213.39c3.65-1.54,6.49-6.53,10.67-10.38C241.62,206,237.4,211.94,234.79,213.39Z"/><path class="cls-23" d="M221.18,217.73a12,12,0,0,0,10.18-2.09A18.61,18.61,0,0,1,221.18,217.73Z"/><path class="cls-25" d="M229.7,239.5a18.84,18.84,0,0,1-3.6,5.31A8.52,8.52,0,0,0,229.7,239.5Z"/><path class="cls-25" d="M226.52,245c2.08,1.07,5.06.29,8.23-.88A24.54,24.54,0,0,1,226.52,245Z"/><path class="cls-10" d="M201.81,189.51c-.58,3.65.88,6.56,5,8.53A12.53,12.53,0,0,1,201.81,189.51Z"/><path class="cls-10" d="M216.81,193.49c3.31,2.46,4.57,3.17,9.4,1.67C222.29,195.8,220.8,196.07,216.81,193.49Z"/><path class="cls-9" d="M226.9,195.81c3.48-.12,5,1.53,4.89,4.59C232.69,197.88,231.07,194.91,226.9,195.81Z"/><path class="cls-11" d="M225.58,193.15c3.75-1,7,0,9.84,3C233,192.54,229.87,191.31,225.58,193.15Z"/><path class="cls-7" d="M257.71,231.39c5.42-4.14,9.11-8.8,10.56-14.15A42.25,42.25,0,0,1,257.71,231.39Z"/><path class="cls-25" d="M253.2,234.78a43.31,43.31,0,0,0,14-15.8A95.26,95.26,0,0,1,253.2,234.78Z"/><path class="cls-10" d="M226.93,247.07c4.88,1.58,9.9-.47,15-4C236.53,246.28,231.45,248,226.93,247.07Z"/><path class="cls-10" d="M242.76,242.55c2.09,1.32,4.49.36,5.79-2.76C247.24,242,245.06,243.36,242.76,242.55Z"/><path class="cls-7" d="M220.73,246.93c-.49,2,1.39,5.14,5.13,4.79Q221.3,251,220.73,246.93Z"/><path class="cls-7" d="M198.6,246.81c5,2.49,10.53,2.48,16.36,1C209.31,248.82,203.81,248.76,198.6,246.81Z"/><path class="cls-7" d="M187,238.07a4,4,0,0,0-3.77-.12,5.33,5.33,0,0,1,3.64.56c1.78.87,2.83,2.56,5.41,4.53C189.94,240.84,188.8,238.9,187,238.07Z"/><path class="cls-24" d="M224.45,237.81c3.64-3.77,2.93-8.11.21-12.72C226.5,229.84,226.94,234.21,224.45,237.81Z"/><path class="cls-33" d="M230.24,158.48c-3.32-.07-3.81,1.73-2.1,5C227.07,160.7,227.59,158.92,230.24,158.48Z"/><path class="cls-33" d="M257.39,186.26a46.35,46.35,0,0,0-6.52-11.89A87.93,87.93,0,0,1,257.39,186.26Z"/><path class="cls-33" d="M176.19,180.93c-.06-3.36,1.46-5.23,4.2-5.93C177.87,174.72,175.23,176.32,176.19,180.93Z"/><path class="cls-33" d="M205,210.85a40.71,40.71,0,0,1,5.38,7.27C208.91,215.11,207.23,212.5,205,210.85Z"/></svg>