<svg id="Layer_49" data-name="Layer 49" xmlns="http://www.w3.org/2000/svg" viewBox="0 0 370 330"><defs><style>.cls-1{fill:#5a773e;}.cls-2{fill:#ef4b4b;}.cls-3{fill:#f75454;}.cls-4{fill:#f76b6b;}.cls-5{fill:#d82b2b;}.cls-6{fill:#c42727;}.cls-7{fill:#eaa93f;}.cls-15,.cls-8{fill:#b22424;}.cls-8{opacity:0.38;}.cls-9{fill:#fff;opacity:0.2;}.cls-10{fill:#629130;}.cls-11{fill:#ea2626;}.cls-12{fill:#f44545;}.cls-13{fill:#e0883f;}.cls-14{fill:#78ad3b;}.cls-15{opacity:0.54;}.cls-16{fill:#ba2424;opacity:0.25;}</style></defs><path class="cls-1" d="M175.22,197.53l-2.84-1.59a98.44,98.44,0,0,1-1,12.46l-1.19-1.57a41.63,41.63,0,0,1-3.1,10.35l-1.16-2.45a26.67,26.67,0,0,1-8.65,9.27l.26-1.53a32.33,32.33,0,0,1-10.86,6.28,1.86,1.86,0,0,0,.44-1.54,64.75,64.75,0,0,1-10.42,4.53,9.48,9.48,0,0,0,.19-3.05,40.37,40.37,0,0,1-11,2.55A4.34,4.34,0,0,0,127,228.9a57.13,57.13,0,0,1-10.5,1.17,14,14,0,0,0,1.49-3.13,34.38,34.38,0,0,1-10.08-.29A10.12,10.12,0,0,0,110.5,224a17.7,17.7,0,0,1-6.07.26,18.63,18.63,0,0,0,4.22-5.89l-3,.4a25.89,25.89,0,0,1,4.23-7.69,10.59,10.59,0,0,1-3.4.62,33.16,33.16,0,0,1,6-10.43l-4.45.56a45.53,45.53,0,0,1,6.69-8.29l-3.3.12a52.87,52.87,0,0,1,6.21-6.59l-3.52.12,6.74-5.64-4.3-.13a21.38,21.38,0,0,1,8.23-5.05l-3.58-.75,7.5-4.15-3.26-1.77,7.73-3.09a15.17,15.17,0,0,1-2.39-2.75A17.49,17.49,0,0,1,139,162l-1.9-2.09a19.56,19.56,0,0,1,7.28.57l-2.16-2.7a16,16,0,0,1,6.92,2.19l-1.08-4.07a41.57,41.57,0,0,1,7.07,5.2l-.34-3.54c0,.49,2.77,2.11,3.28,2.56a30.46,30.46,0,0,1,3.18,3.35,29.85,29.85,0,0,1,4.57,7.63,28.38,28.38,0,0,1,2.07,8.55,9.1,9.1,0,0,0,.45,3.34c.66,1.38,2.1,2.63,2.93,4A27.49,27.49,0,0,1,175.22,197.53Z"/><path class="cls-1" d="M156.56,157.47a10.41,10.41,0,0,1,2.75-4.69,1.36,1.36,0,0,1,.66-.37,1.55,1.55,0,0,1,.73.13l3.17,1.13c.18.07.4.17.43.36a.52.52,0,0,1-.17.41c-1,1.22-2.26,2.17-3.26,3.38a11.46,11.46,0,0,0-2.49,6.9,18.26,18.26,0,0,0,1.36,7.29C152.06,174.63,155.46,160.76,156.56,157.47Z"/><path class="cls-1" d="M124.28,183.21a23,23,0,0,1,11.11-5.84A42,42,0,0,1,148,176.7a18.21,18.21,0,0,1-2.47-15.42,15.66,15.66,0,0,0,12.35,8.29l9.14-10.2a10.67,10.67,0,0,0,2.38-3.45,18.06,18.06,0,0,1,5.33,8.49,12,12,0,0,1,6.38-2.61,30.31,30.31,0,0,1,13.12.88c-2.3.24-4.07,2.19-5,4.28s-1.35,4.42-2.22,6.56c-2.13,5.29-6.93,9-11.78,12-8.29,5.12-17.71,9.06-27.46,8.79-5.12-.13-9.48-1.83-12.72-5.88A13.11,13.11,0,0,0,124.28,183.21Z"/><path class="cls-2" d="M152.82,235.94a49.75,49.75,0,0,1-21.35-42.77,23.74,23.74,0,0,1,2.73-10.92c7.39-12.62,22.57-18.3,32.55-19.66s20.83,1.55,27.63,9c4.1,4.48,6.51,10.26,8,16.15a61.85,61.85,0,0,1,.42,27.93,34.07,34.07,0,0,1-4.73,12c-7,10.31-22.4,16.72-34.48,13.39A36.44,36.44,0,0,1,152.82,235.94Z"/><path class="cls-3" d="M150.1,172.11c-2.43,2.08-4.83,4.17-7.23,6.28a24.75,24.75,0,0,0-4.16,4.34,17.38,17.38,0,0,0-2.71,9,19,19,0,0,0,1.79,9.85,11.5,11.5,0,0,0,7.63,6.14c4.36.89,8.79-1.39,12.07-4.39a29.82,29.82,0,0,1,3.1-2.73,36.57,36.57,0,0,1,5-2.46,35.7,35.7,0,0,0,8-5.6,100.87,100.87,0,0,0,8.69-8.61c2.2-2.46,4.41-5.49,3.87-8.74-.51-3.09-3.39-5.25-6.3-6.42-6.94-2.79-14.77-1.78-22.14-.44A16.38,16.38,0,0,0,150.1,172.11Z"/><path class="cls-4" d="M145.42,180.18a15,15,0,0,0-4.23,11c.15,2.14,1.05,4.43,3,5.4,2.58,1.31,5.65-.26,8-2,4.95-3.68,9.25-8.26,14.6-11.32a71.46,71.46,0,0,1,9.56-4.21,8.24,8.24,0,0,0,2.7-1.47,2.91,2.91,0,0,0,1-2.76c-.38-1.47-2.09-2.09-3.58-2.39C166.05,170.32,152.87,172.05,145.42,180.18Z"/><path class="cls-5" d="M134.39,185.87a6.62,6.62,0,0,1-.21-2.92,4.63,4.63,0,0,1,.4-1.5,3.17,3.17,0,0,1,1.12-1.25,2.82,2.82,0,0,1,1.83-.48,1.77,1.77,0,0,1,.94.35,2.6,2.6,0,0,1,.83,2,7.22,7.22,0,0,1-.42,2.37,7.12,7.12,0,0,1-1,2.12c-.45.58-1.24,1.22-1.89,1.07A2.6,2.6,0,0,1,134.39,185.87Z"/><path class="cls-6" d="M135.83,181.39a2.46,2.46,0,0,0-.42,1.17,9.63,9.63,0,0,0,.34,3.87c.12.41.33.88.7.83a10.77,10.77,0,0,0,1.58-4.52,2.62,2.62,0,0,0,0-1A1.33,1.33,0,0,0,135.83,181.39Z"/><path class="cls-7" d="M136.08,182.16a3,3,0,0,0-.23,1.15,6.4,6.4,0,0,0,.55,3,9.62,9.62,0,0,0,1.07-3.55,1.62,1.62,0,0,0-.07-.88C137.09,181.18,136.38,181.53,136.08,182.16Z"/><path class="cls-5" d="M146.75,174.23a3,3,0,0,1-1.49-1.35,1.28,1.28,0,0,1-.19-.87,1.91,1.91,0,0,1,.77-1,5.29,5.29,0,0,1,1.9-.87A4.71,4.71,0,0,1,149,170a2.54,2.54,0,0,1,1.8.67,2,2,0,0,1,.53,1.3,2.15,2.15,0,0,1-.3,1.39,2.74,2.74,0,0,1-1.72,1.18A4.59,4.59,0,0,1,146.75,174.23Z"/><path class="cls-6" d="M146.49,171.55a.69.69,0,0,0,0,.71,4.6,4.6,0,0,0,2.05,1.77,1.48,1.48,0,0,0,1.16.16,3.05,3.05,0,0,0-.1-2.75,1.17,1.17,0,0,0-.48-.48A3,3,0,0,0,146.49,171.55Z"/><path class="cls-7" d="M147.12,171.83a.85.85,0,0,0,.21.65,3.91,3.91,0,0,0,1.92,1.25,2.68,2.68,0,0,0-.28-2.09.76.76,0,0,0-.46-.41A1.09,1.09,0,0,0,147.12,171.83Z"/><path class="cls-5" d="M144,191.39a5.88,5.88,0,0,1-1.67-2.51,3.84,3.84,0,0,1-.29-1.52,3,3,0,0,1,.65-1.65,3.83,3.83,0,0,1,1.84-1.28,2.91,2.91,0,0,1,1.24-.12,2.81,2.81,0,0,1,1.92,1.38,5.64,5.64,0,0,1,.69,2.31,6,6,0,0,1-.14,2.38c-.23.72-.81,1.67-1.62,1.83A3.45,3.45,0,0,1,144,191.39Z"/><path class="cls-6" d="M143.44,186.72a2,2,0,0,0,.1,1.24,8.58,8.58,0,0,0,2.3,3.3c.33.31.81.63,1.2.41a8.82,8.82,0,0,0-.43-4.77,2.25,2.25,0,0,0-.54-.89A1.89,1.89,0,0,0,143.44,186.72Z"/><path class="cls-7" d="M144.11,187.28a2.38,2.38,0,0,0,.29,1.14,6,6,0,0,0,2.11,2.41,8.08,8.08,0,0,0-.54-3.67,1.61,1.61,0,0,0-.51-.76C144.77,185.94,144.13,186.59,144.11,187.28Z"/><path class="cls-5" d="M157.27,183.88a5.78,5.78,0,0,1-1.68-2.51,3.77,3.77,0,0,1-.29-1.52,3,3,0,0,1,.66-1.64,3.83,3.83,0,0,1,1.84-1.28,2.75,2.75,0,0,1,1.24-.13,2.83,2.83,0,0,1,1.91,1.38,6.77,6.77,0,0,1,.55,4.69,2.61,2.61,0,0,1-1.61,1.84A3.41,3.41,0,0,1,157.27,183.88Z"/><path class="cls-6" d="M156.69,179.21a2.12,2.12,0,0,0,.1,1.24,8.61,8.61,0,0,0,2.31,3.3c.33.32.8.64,1.2.42a8.73,8.73,0,0,0-.44-4.77,2,2,0,0,0-.54-.89A1.89,1.89,0,0,0,156.69,179.21Z"/><path class="cls-7" d="M157.36,179.78a2.55,2.55,0,0,0,.3,1.14,6.06,6.06,0,0,0,2.11,2.41,8.08,8.08,0,0,0-.54-3.67,1.51,1.51,0,0,0-.52-.76C158,178.44,157.39,179.09,157.36,179.78Z"/><path class="cls-5" d="M171,179.07a5.7,5.7,0,0,1-1.68-2.51,3.81,3.81,0,0,1-.29-1.52,3,3,0,0,1,.66-1.65,3.72,3.72,0,0,1,1.84-1.27,2.7,2.7,0,0,1,1.23-.13,2.8,2.8,0,0,1,1.92,1.38,5.64,5.64,0,0,1,.69,2.32,5.73,5.73,0,0,1-.14,2.37,2.67,2.67,0,0,1-1.61,1.84A3.41,3.41,0,0,1,171,179.07Z"/><path class="cls-6" d="M170.45,174.4a2,2,0,0,0,.1,1.24,8.69,8.69,0,0,0,2.3,3.3c.33.31.81.64,1.21.41a8.92,8.92,0,0,0-.44-4.77,2.4,2.4,0,0,0-.54-.89A1.9,1.9,0,0,0,170.45,174.4Z"/><path class="cls-7" d="M171.12,175a2.44,2.44,0,0,0,.29,1.14,6,6,0,0,0,2.11,2.4,8,8,0,0,0-.53-3.66,1.58,1.58,0,0,0-.52-.76C171.78,173.63,171.14,174.27,171.12,175Z"/><path class="cls-5" d="M184,180a5.88,5.88,0,0,1-1.67-2.51A3.67,3.67,0,0,1,182,176a3,3,0,0,1,.65-1.65,3.83,3.83,0,0,1,1.84-1.28,2.89,2.89,0,0,1,1.24-.12,2.77,2.77,0,0,1,1.91,1.38,5.5,5.5,0,0,1,.7,2.31,6,6,0,0,1-.14,2.38c-.23.72-.81,1.67-1.62,1.83A3.44,3.44,0,0,1,184,180Z"/><path class="cls-6" d="M183.42,175.31a2,2,0,0,0,.11,1.24,8.58,8.58,0,0,0,2.3,3.3c.33.31.8.63,1.2.41a8.82,8.82,0,0,0-.43-4.77,2.25,2.25,0,0,0-.54-.89A1.9,1.9,0,0,0,183.42,175.31Z"/><path class="cls-7" d="M184.09,175.87a2.51,2.51,0,0,0,.3,1.14,6,6,0,0,0,2.11,2.41,8.08,8.08,0,0,0-.54-3.67,1.61,1.61,0,0,0-.51-.76C184.76,174.53,184.12,175.18,184.09,175.87Z"/><path class="cls-5" d="M195.21,184.9a5.7,5.7,0,0,1-1.68-2.51,3.77,3.77,0,0,1-.29-1.52,2.93,2.93,0,0,1,.66-1.64,3.83,3.83,0,0,1,1.84-1.28,2.72,2.72,0,0,1,1.23-.13,2.83,2.83,0,0,1,1.92,1.38,6.92,6.92,0,0,1,.55,4.69,2.61,2.61,0,0,1-1.61,1.84A3.41,3.41,0,0,1,195.21,184.9Z"/><path class="cls-6" d="M194.63,180.23a2,2,0,0,0,.1,1.24,8.61,8.61,0,0,0,2.31,3.3c.33.32.8.64,1.2.42a8.82,8.82,0,0,0-.44-4.77,2.24,2.24,0,0,0-.54-.9A1.9,1.9,0,0,0,194.63,180.23Z"/><path class="cls-7" d="M195.3,180.8a2.42,2.42,0,0,0,.3,1.14,6,6,0,0,0,2.1,2.41,8.05,8.05,0,0,0-.53-3.67,1.58,1.58,0,0,0-.52-.76C196,179.46,195.32,180.11,195.3,180.8Z"/><path class="cls-5" d="M134.61,205.64a5.7,5.7,0,0,1-1.68-2.51,3.81,3.81,0,0,1-.29-1.52,3,3,0,0,1,.66-1.65,3.72,3.72,0,0,1,1.84-1.27,2.7,2.7,0,0,1,1.23-.13,2.8,2.8,0,0,1,1.92,1.38,5.64,5.64,0,0,1,.69,2.32,5.73,5.73,0,0,1-.14,2.37c-.23.73-.81,1.68-1.61,1.84A3.41,3.41,0,0,1,134.61,205.64Z"/><path class="cls-6" d="M134,201a2,2,0,0,0,.1,1.24,8.69,8.69,0,0,0,2.3,3.3c.33.31.81.64,1.21.41a8.92,8.92,0,0,0-.44-4.77,2.4,2.4,0,0,0-.54-.89A1.9,1.9,0,0,0,134,201Z"/><path class="cls-7" d="M134.7,201.54a2.44,2.44,0,0,0,.29,1.14,6,6,0,0,0,2.11,2.4,8,8,0,0,0-.53-3.66,1.58,1.58,0,0,0-.52-.76C135.36,200.2,134.72,200.84,134.7,201.54Z"/><path class="cls-5" d="M147,208.54a5.81,5.81,0,0,1-2.09-2.17,3.89,3.89,0,0,1-.55-1.45,3,3,0,0,1,.36-1.74,3.84,3.84,0,0,1,1.59-1.58,3,3,0,0,1,1.19-.34,2.79,2.79,0,0,1,2.13,1,5.59,5.59,0,0,1,1.09,2.16,5.74,5.74,0,0,1,.27,2.36,2.61,2.61,0,0,1-1.26,2.09A3.45,3.45,0,0,1,147,208.54Z"/><path class="cls-6" d="M145.59,204a2,2,0,0,0,.31,1.21,8.6,8.6,0,0,0,2.85,2.84c.38.26.9.49,1.25.2a8.78,8.78,0,0,0-1.26-4.62,2.17,2.17,0,0,0-.69-.78A1.89,1.89,0,0,0,145.59,204Z"/><path class="cls-7" d="M146.35,204.49a2.37,2.37,0,0,0,.49,1.07,6.09,6.09,0,0,0,2.49,2,8,8,0,0,0-1.17-3.52,1.57,1.57,0,0,0-.64-.66C146.76,203.05,146.25,203.8,146.35,204.49Z"/><path class="cls-5" d="M153.66,224.32a5.82,5.82,0,0,1-2.57-1.57,3.87,3.87,0,0,1-.91-1.26,3,3,0,0,1-.1-1.77,3.77,3.77,0,0,1,1.13-1.93,2.86,2.86,0,0,1,1.07-.64,2.8,2.8,0,0,1,2.32.45,5.8,5.8,0,0,1,1.61,1.8,6.06,6.06,0,0,1,.87,2.22,2.61,2.61,0,0,1-.69,2.34A3.39,3.39,0,0,1,153.66,224.32Z"/><path class="cls-6" d="M151.17,220.33a2,2,0,0,0,.62,1.08,8.56,8.56,0,0,0,3.48,2c.43.15,1,.24,1.26-.13a8.81,8.81,0,0,0-2.4-4.14,2.32,2.32,0,0,0-.87-.59A1.92,1.92,0,0,0,151.17,220.33Z"/><path class="cls-7" d="M152,220.56a2.51,2.51,0,0,0,.75.91,6,6,0,0,0,2.92,1.29,8,8,0,0,0-2-3.1,1.57,1.57,0,0,0-.79-.47C152.05,219.06,151.75,219.92,152,220.56Z"/><path class="cls-5" d="M162.38,214.89a5.82,5.82,0,0,1-2.58-1.57,3.64,3.64,0,0,1-.9-1.26,3,3,0,0,1-.1-1.76,3.8,3.8,0,0,1,1.13-1.94,2.58,2.58,0,0,1,3.39-.19,5.58,5.58,0,0,1,1.6,1.81,5.8,5.8,0,0,1,.88,2.21,2.64,2.64,0,0,1-.69,2.35A3.43,3.43,0,0,1,162.38,214.89Z"/><path class="cls-6" d="M159.89,210.9a2,2,0,0,0,.61,1.08,8.55,8.55,0,0,0,3.49,2c.43.15,1,.24,1.26-.13a8.79,8.79,0,0,0-2.41-4.14,2.26,2.26,0,0,0-.86-.58A1.9,1.9,0,0,0,159.89,210.9Z"/><path class="cls-7" d="M160.74,211.13a2.42,2.42,0,0,0,.74.91,6.13,6.13,0,0,0,2.93,1.3,8,8,0,0,0-2-3.11,1.61,1.61,0,0,0-.79-.47C160.77,209.64,160.47,210.49,160.74,211.13Z"/><path class="cls-5" d="M166.74,238.57a5.84,5.84,0,0,1-3-.29,3.81,3.81,0,0,1-1.36-.73,3,3,0,0,1-.86-1.55,3.81,3.81,0,0,1,.17-2.24,2.73,2.73,0,0,1,.68-1,2.82,2.82,0,0,1,2.28-.62,5.61,5.61,0,0,1,2.23.93,5.77,5.77,0,0,1,1.76,1.61,2.65,2.65,0,0,1,.4,2.41A3.43,3.43,0,0,1,166.74,238.57Z"/><path class="cls-6" d="M162.75,236.06a2,2,0,0,0,1,.71,8.66,8.66,0,0,0,4,.3c.45-.06,1-.22,1.08-.67a8.89,8.89,0,0,0-4-2.68,2.14,2.14,0,0,0-1-.14A1.89,1.89,0,0,0,162.75,236.06Z"/><path class="cls-7" d="M163.61,235.9a2.38,2.38,0,0,0,1.07.49,6,6,0,0,0,3.2-.11,8,8,0,0,0-3.18-1.9,1.62,1.62,0,0,0-.92-.08C163,234.54,163.09,235.45,163.61,235.9Z"/><path class="cls-5" d="M171.09,207.63a5.67,5.67,0,0,1-2-2.22,3.71,3.71,0,0,1-.52-1.46,2.94,2.94,0,0,1,.4-1.73,3.71,3.71,0,0,1,1.62-1.54,2.64,2.64,0,0,1,1.2-.31,2.79,2.79,0,0,1,2.1,1.06,5.61,5.61,0,0,1,1,2.19,6,6,0,0,1,.23,2.37,2.64,2.64,0,0,1-1.32,2.06A3.41,3.41,0,0,1,171.09,207.63Z"/><path class="cls-6" d="M169.8,203.1a2,2,0,0,0,.29,1.21,8.5,8.5,0,0,0,2.78,2.91c.38.26.9.51,1.25.23A8.72,8.72,0,0,0,173,202.8a2.25,2.25,0,0,0-.67-.8A1.9,1.9,0,0,0,169.8,203.1Z"/><path class="cls-7" d="M170.55,203.56a2.38,2.38,0,0,0,.47,1.08,6,6,0,0,0,2.45,2.06,8.05,8.05,0,0,0-1.09-3.54,1.57,1.57,0,0,0-.63-.67C171,202.14,170.47,202.88,170.55,203.56Z"/><path class="cls-5" d="M143.32,220.27a7.36,7.36,0,0,1-2.62-1.18,6,6,0,0,1-1.18-1,3.49,3.49,0,0,1-.74-1.46,2.33,2.33,0,0,1,.16-1.65,1.28,1.28,0,0,1,.6-.57,2.55,2.55,0,0,1,2,.26,10,10,0,0,1,3.46,3.22c.36.61.68,1.53.34,2A2.17,2.17,0,0,1,143.32,220.27Z"/><path class="cls-6" d="M139.86,217.08a3.08,3.08,0,0,0,.89.87,10.84,10.84,0,0,0,3.5,1.51c.39.11.87.16.94-.16a13.1,13.1,0,0,0-3.44-3.32,3,3,0,0,0-.9-.44A1,1,0,0,0,139.86,217.08Z"/><path class="cls-7" d="M140.61,217.24a3.76,3.76,0,0,0,.93.71,7,7,0,0,0,2.79.94,12,12,0,0,0-2.76-2.47,1.87,1.87,0,0,0-.8-.35C140.08,216,140.16,216.72,140.61,217.24Z"/><path class="cls-5" d="M153.15,234.29a7.32,7.32,0,0,1-2.61-1.18,5.68,5.68,0,0,1-1.18-1,3.52,3.52,0,0,1-.75-1.46,2.33,2.33,0,0,1,.17-1.65,1.23,1.23,0,0,1,.6-.57,2.56,2.56,0,0,1,2,.26,8.26,8.26,0,0,1,1.94,1.42,8.5,8.5,0,0,1,1.51,1.8c.37.61.68,1.53.34,2A2.16,2.16,0,0,1,153.15,234.29Z"/><path class="cls-6" d="M149.7,231.1a3,3,0,0,0,.89.87,10.79,10.79,0,0,0,3.49,1.51c.39.11.87.16.95-.16a13.14,13.14,0,0,0-3.45-3.32,3,3,0,0,0-.9-.44A1,1,0,0,0,149.7,231.1Z"/><path class="cls-7" d="M150.45,231.26a3.59,3.59,0,0,0,.93.71,6.9,6.9,0,0,0,2.79.94,12.09,12.09,0,0,0-2.77-2.47,1.79,1.79,0,0,0-.79-.35C149.92,230,150,230.74,150.45,231.26Z"/><path class="cls-5" d="M157.67,199.94a5.76,5.76,0,0,1-1.67-2.51,3.77,3.77,0,0,1-.29-1.52,3,3,0,0,1,.65-1.64A3.83,3.83,0,0,1,158.2,193a2.76,2.76,0,0,1,1.24-.13,2.85,2.85,0,0,1,1.92,1.38,6.92,6.92,0,0,1,.55,4.69c-.23.73-.81,1.68-1.62,1.84A3.42,3.42,0,0,1,157.67,199.94Z"/><path class="cls-6" d="M157.1,195.27a2,2,0,0,0,.1,1.24,8.58,8.58,0,0,0,2.3,3.3c.33.32.81.64,1.2.42a8.82,8.82,0,0,0-.43-4.77,2.25,2.25,0,0,0-.54-.89A1.89,1.89,0,0,0,157.1,195.27Z"/><path class="cls-7" d="M157.77,195.84a2.41,2.41,0,0,0,.29,1.14,6.14,6.14,0,0,0,2.11,2.41,8.06,8.06,0,0,0-.54-3.67,1.49,1.49,0,0,0-.51-.76C158.43,194.5,157.79,195.15,157.77,195.84Z"/><path class="cls-5" d="M170.59,193.32a5.81,5.81,0,0,1-1.68-2.51,3.81,3.81,0,0,1-.29-1.52,3,3,0,0,1,.66-1.65,3.76,3.76,0,0,1,1.83-1.28,2.91,2.91,0,0,1,1.24-.12,2.8,2.8,0,0,1,1.92,1.38,5.64,5.64,0,0,1,.69,2.31,5.77,5.77,0,0,1-.14,2.38c-.23.72-.81,1.67-1.62,1.83A3.43,3.43,0,0,1,170.59,193.32Z"/><path class="cls-6" d="M170,188.65a2,2,0,0,0,.1,1.24,8.69,8.69,0,0,0,2.3,3.3c.33.31.81.63,1.2.41a8.82,8.82,0,0,0-.43-4.77,2.25,2.25,0,0,0-.54-.89A1.89,1.89,0,0,0,170,188.65Z"/><path class="cls-7" d="M170.68,189.21a2.38,2.38,0,0,0,.29,1.14,6,6,0,0,0,2.11,2.41,8.07,8.07,0,0,0-.53-3.67,1.62,1.62,0,0,0-.52-.76C171.34,187.87,170.7,188.52,170.68,189.21Z"/><path class="cls-5" d="M183.66,191.9a5.81,5.81,0,0,1-1.68-2.51,3.81,3.81,0,0,1-.29-1.52,3,3,0,0,1,.66-1.65,3.83,3.83,0,0,1,1.84-1.28,2.86,2.86,0,0,1,1.23-.12,2.8,2.8,0,0,1,1.92,1.38,5.64,5.64,0,0,1,.69,2.31,5.77,5.77,0,0,1-.14,2.38,2.61,2.61,0,0,1-1.61,1.83A3.44,3.44,0,0,1,183.66,191.9Z"/><path class="cls-6" d="M183.08,187.23a2,2,0,0,0,.1,1.24,8.61,8.61,0,0,0,2.31,3.3c.33.31.8.63,1.2.41a8.82,8.82,0,0,0-.44-4.77,2.14,2.14,0,0,0-.54-.89A1.89,1.89,0,0,0,183.08,187.23Z"/><path class="cls-7" d="M183.75,187.79a2.39,2.39,0,0,0,.3,1.14,5.9,5.9,0,0,0,2.1,2.41,8.07,8.07,0,0,0-.53-3.67,1.62,1.62,0,0,0-.52-.76C184.41,186.45,183.77,187.1,183.75,187.79Z"/><path class="cls-5" d="M159,169.87a3.63,3.63,0,0,1-1.54-1.65,1.9,1.9,0,0,1-.21-1A2.07,2.07,0,0,1,158,166a4.72,4.72,0,0,1,1.89-1,4.27,4.27,0,0,1,1.23-.14,2.54,2.54,0,0,1,1.83.85,2.79,2.79,0,0,1,.57,1.57,3,3,0,0,1-.26,1.65,2.66,2.66,0,0,1-1.69,1.35A4.15,4.15,0,0,1,159,169.87Z"/><path class="cls-6" d="M158.7,166.67a1,1,0,0,0,0,.85,5.35,5.35,0,0,0,2.12,2.16,1.29,1.29,0,0,0,1.17.23,4.21,4.21,0,0,0-.19-3.27,1.38,1.38,0,0,0-.49-.59A2.53,2.53,0,0,0,158.7,166.67Z"/><path class="cls-7" d="M159.34,167a1.16,1.16,0,0,0,.23.77,4.35,4.35,0,0,0,2,1.56,3.75,3.75,0,0,0-.34-2.51,1,1,0,0,0-1.86.18Z"/><path class="cls-5" d="M172.86,167.24a3.08,3.08,0,0,1-1.5-1.4,1.38,1.38,0,0,1-.18-.9,1.9,1.9,0,0,1,.75-1,5.36,5.36,0,0,1,1.91-.89,4.66,4.66,0,0,1,1.23-.15,2.59,2.59,0,0,1,1.8.7,2.13,2.13,0,0,1,.54,1.36,2.35,2.35,0,0,1-.29,1.44,2.73,2.73,0,0,1-1.72,1.21A4.46,4.46,0,0,1,172.86,167.24Z"/><path class="cls-6" d="M172.59,164.46a.75.75,0,0,0,0,.74,4.74,4.74,0,0,0,2.07,1.85,1.4,1.4,0,0,0,1.16.17,3.23,3.23,0,0,0-.12-2.85,1.23,1.23,0,0,0-.48-.51A2.89,2.89,0,0,0,172.59,164.46Z"/><path class="cls-7" d="M173.22,164.76a.91.91,0,0,0,.22.67,3.91,3.91,0,0,0,1.93,1.32,2.86,2.86,0,0,0-.3-2.18.82.82,0,0,0-.46-.43A1.07,1.07,0,0,0,173.22,164.76Z"/><path class="cls-5" d="M186.63,171.18a4.1,4.1,0,0,1-1.55-1.38,2.86,2.86,0,0,1-.47-1,2.09,2.09,0,0,1,.11-1.21,2.5,2.5,0,0,1,.93-1.17,1.86,1.86,0,0,1,.77-.29,1.91,1.91,0,0,1,1.49.59,5,5,0,0,1,1.24,3,1.76,1.76,0,0,1-.68,1.5A2.2,2.2,0,0,1,186.63,171.18Z"/><path class="cls-6" d="M185.38,168.18a1.37,1.37,0,0,0,.3.8,5.89,5.89,0,0,0,2.1,1.8c.27.16.63.29.84.07a6.38,6.38,0,0,0-1.18-3.1,1.62,1.62,0,0,0-.51-.5A1.22,1.22,0,0,0,185.38,168.18Z"/><path class="cls-7" d="M185.91,168.44a1.78,1.78,0,0,0,.41.7,4.06,4.06,0,0,0,1.8,1.24,5.79,5.79,0,0,0-1-2.34,1.08,1.08,0,0,0-.48-.42C186.09,167.43,185.8,168,185.91,168.44Z"/><path class="cls-8" d="M185.23,238.5A40.8,40.8,0,0,0,182,224c-5.09,2.37-.65,1.27-6.26,1.5s-12.18.78-20.48-2c-3.13-1.07-10.16-4.07-12.26-6.62-2.9-3.5-5.78-7.08-7.69-11.2a31.13,31.13,0,0,1-2.43-16.8,37.42,37.42,0,0,1,1.4-6.53l-.09.15a23.7,23.7,0,0,0-2.73,10.91,49.74,49.74,0,0,0,21.35,42.77,36.44,36.44,0,0,0,10.75,5.08C170.43,243.08,178.37,241.83,185.23,238.5Z"/><path class="cls-8" d="M186.64,194.44a93.26,93.26,0,0,1-5,9.27c5-1.92,10.29-3.35,15-5.91a25.84,25.84,0,0,0,6.82-5.19c-.27-1.65-.6-3.28-1-4.9-1.47-5.89-3.88-11.68-8-16.15-5.48-6-13.59-9.05-21.76-9.29,2.88,1.42,7.18,2.58,8.15,3.13a16.17,16.17,0,0,1,7.59,8.72,24.38,24.38,0,0,1,.88,6.26,31.55,31.55,0,0,1-.11,6.59A27.49,27.49,0,0,1,186.64,194.44Z"/><path class="cls-9" d="M149.71,180.22c-4.86,3.47-9.28,8.32-9.94,14.25a5.8,5.8,0,0,0,.27,2.87,2.7,2.7,0,0,0,2.16,1.73,3.65,3.65,0,0,0,2.84-1.55c2.86-3.27,3.94-7.81,6.82-11.06,2.41-2.7,5.82-4.24,9-6a3.58,3.58,0,0,0,1.76-1.69c1.18-3.32-4.15-3.11-5.9-2.59C154.21,176.9,151.79,178.73,149.71,180.22Z"/><path class="cls-1" d="M235,173.42a39.33,39.33,0,0,1,5.45,14.81,8.4,8.4,0,0,1,3.55-.43q-1.37,6.34-2.47,12.75a30.89,30.89,0,0,1,18.19,12.08,19.51,19.51,0,0,0-7.93,2,19.92,19.92,0,0,1,6.31,19.1,13.24,13.24,0,0,0-5.84-3.58,6.8,6.8,0,0,1-2.13-.83,4.91,4.91,0,0,1-1.15-1.41c-1.26-2.14-2.14-4.48-3.41-6.62-2.84-4.81-7.44-8.29-10.87-12.7a31.43,31.43,0,0,1-6.16-14.43c-.64-4-1.26-10,1.7-13.25A27.2,27.2,0,0,0,235,173.42Z"/><path class="cls-10" d="M250,188.43c.22-.09,0,.21.24.31a2.61,2.61,0,0,1,1,1.06,37.25,37.25,0,0,0,5.53,6c-6.19-2.21-12,.07-14.62,5.08a22.74,22.74,0,0,1-2.62-.56c-.82-.32-1.13-.13-1.28-1.27-.19-1.47,2.17-3.47,2.89-4.28A25.72,25.72,0,0,1,250,188.43Z"/><path class="cls-11" d="M209.65,184.9a33.65,33.65,0,0,0-9.17,1.41c-15.85,4.09-29.95,25.82-31.8,38.73-.84,5.84-1,11.87,1.08,17.39,2.64,6.95,6.76,11.58,17.22,12.64,19.33,1.95,32.86-2.77,38.73-5.18a37,37,0,0,0,12.35-8.44,21.54,21.54,0,0,0,4.77-7c2-5.24.9-11.24-1.47-16.34-3-6.35-7.68-11.62-10.57-18a26.92,26.92,0,0,0-11.9-12.79A21.48,21.48,0,0,0,209.65,184.9Z"/><path class="cls-12" d="M190.15,194.35c-4.37,3.52-7.39,8.4-10.32,13.18-1.6,2.62-3.23,5.32-3.7,8.34a11.93,11.93,0,0,0,4.29,11c2.18,1.72,4.9,2.61,7.29,4,1.82,1.08,3.44,2.47,5.25,3.57a19.67,19.67,0,0,0,14.26,2.37c2.34-.51,4.56-1.45,6.9-2,4-.93,8.44-.64,12.18-2.47a14.85,14.85,0,0,0,4.16-3.15,16.14,16.14,0,0,0,2.43-3.21,12.24,12.24,0,0,0,.88-10.16c-1-2.76-3.11-5-4.59-7.54-1.72-3-2.61-6.35-3.94-9.52-2.1-5-5.26-8.39-10.56-9.47a32.46,32.46,0,0,0-16.43.71A25.42,25.42,0,0,0,190.15,194.35Z"/><path class="cls-3" d="M217.67,192a17.7,17.7,0,0,0-4.31-.27c-5.75,0-11.73-1.34-17.1.73a23.07,23.07,0,0,0-6.42,4.12,29,29,0,0,0-7.36,8.71,14.38,14.38,0,0,0-1.08,11.11,9.06,9.06,0,0,0,2.8,4.06,15,15,0,0,0,5.68,2.32l6.59,1.66a25.4,25.4,0,0,0,5.39,1,25.36,25.36,0,0,0,6.57-1l13.88-3.33c2.56-.61,5.4-1.44,6.67-3.74a7.73,7.73,0,0,0,.35-5.47c-1.08-4.66-4.36-8-5.91-12.31C222.22,196.29,221.72,193.05,217.67,192Z"/><path class="cls-5" d="M187.1,255c19.32,2,32.85-2.76,38.72-5.17a36.65,36.65,0,0,0,12.35-8.45,21.18,21.18,0,0,0,4.77-7,18.63,18.63,0,0,0,.24-11.7C243.51,229,240,235,235,238.78s-11.57,5.64-18,6.42A62.91,62.91,0,0,1,194.6,244c-7.32-1.76-14.5-5.13-19.35-10.89A22.51,22.51,0,0,1,170,220a31.06,31.06,0,0,0-1.18,5c-.84,5.85-1,11.88,1.08,17.4C172.51,249.34,176.63,254,187.1,255Z"/><path class="cls-5" d="M212.35,197.85a5.79,5.79,0,0,1,2.38-1.86,3.79,3.79,0,0,1,1.5-.39,3,3,0,0,1,1.69.53,3.76,3.76,0,0,1,1.4,1.75,2.72,2.72,0,0,1,.22,1.22,2.83,2.83,0,0,1-1.24,2A5.65,5.65,0,0,1,216,202a6,6,0,0,1-2.38,0,2.65,2.65,0,0,1-1.95-1.48A3.41,3.41,0,0,1,212.35,197.85Z"/><path class="cls-6" d="M217,196.94a2,2,0,0,0-1.23.19,8.61,8.61,0,0,0-3.13,2.53c-.29.35-.58.85-.33,1.23a8.84,8.84,0,0,0,4.73-.78,2.23,2.23,0,0,0,.85-.6A1.89,1.89,0,0,0,217,196.94Z"/><path class="cls-7" d="M216.45,197.64a2.53,2.53,0,0,0-1.12.38,6.08,6.08,0,0,0-2.25,2.28,8.08,8.08,0,0,0,3.62-.8,1.57,1.57,0,0,0,.72-.57C217.83,198.21,217.14,197.62,216.45,197.64Z"/><path class="cls-5" d="M193.46,207.38a5.73,5.73,0,0,1,2.38-1.86,3.79,3.79,0,0,1,1.5-.39,3,3,0,0,1,1.69.53,3.82,3.82,0,0,1,1.4,1.75,2.72,2.72,0,0,1,.22,1.22,2.83,2.83,0,0,1-1.24,2,5.77,5.77,0,0,1-2.26.86,6,6,0,0,1-2.38,0,2.65,2.65,0,0,1-2-1.48A3.41,3.41,0,0,1,193.46,207.38Z"/><path class="cls-6" d="M198.08,206.47a2,2,0,0,0-1.23.18,8.75,8.75,0,0,0-3.13,2.54c-.29.35-.58.85-.33,1.23a8.86,8.86,0,0,0,4.73-.78,2.23,2.23,0,0,0,.85-.6A1.89,1.89,0,0,0,198.08,206.47Z"/><path class="cls-7" d="M197.56,207.17a2.53,2.53,0,0,0-1.12.38,6.08,6.08,0,0,0-2.25,2.28,8.08,8.08,0,0,0,3.62-.8,1.57,1.57,0,0,0,.72-.57C198.94,207.74,198.25,207.15,197.56,207.17Z"/><path class="cls-5" d="M193.61,252.64a9.43,9.43,0,0,1,2.73-.65,8.92,8.92,0,0,1,1.55,0,4.38,4.38,0,0,1,1.53.43,1.83,1.83,0,0,1,1,1,.74.74,0,0,1-.07.61,2.68,2.68,0,0,1-1.66.83,11,11,0,0,1-2.39.19,11.66,11.66,0,0,1-2.33-.22c-.68-.16-1.53-.5-1.56-.9S193,252.94,193.61,252.64Z"/><path class="cls-6" d="M198.31,252.66a4.26,4.26,0,0,0-1.24,0,14,14,0,0,0-3.62.9c-.36.14-.75.35-.59.56a18.17,18.17,0,0,0,4.78.09,3.88,3.88,0,0,0,1-.2C199.31,253.69,199.13,252.85,198.31,252.66Z"/><path class="cls-13" d="M197.65,253a5,5,0,0,0-1.17.07,8.39,8.39,0,0,0-2.71.86,16.44,16.44,0,0,0,3.71,0,2.73,2.73,0,0,0,.83-.2C198.87,253.36,198.33,253,197.65,253Z"/><path class="cls-5" d="M208.09,251.19a8.52,8.52,0,0,1,2.62-1.07,6.68,6.68,0,0,1,1.53-.24,3.87,3.87,0,0,1,1.58.3,2,2,0,0,1,1.11,1,.91.91,0,0,1,0,.69,2.59,2.59,0,0,1-1.52,1.15,11.88,11.88,0,0,1-4.69.54c-.7-.09-1.59-.38-1.69-.82S207.48,251.61,208.09,251.19Z"/><path class="cls-6" d="M212.76,250.64a3.54,3.54,0,0,0-1.24.12,12.24,12.24,0,0,0-3.45,1.46c-.34.2-.7.49-.51.7a15.67,15.67,0,0,0,4.75-.47,3.4,3.4,0,0,0,.93-.35C213.9,251.68,213.6,250.75,212.76,250.64Z"/><path class="cls-13" d="M212.14,251.05a4.11,4.11,0,0,0-1.15.22,7.71,7.71,0,0,0-2.56,1.31,14.35,14.35,0,0,0,3.68-.48,2.38,2.38,0,0,0,.79-.33C213.41,251.36,212.82,251,212.14,251.05Z"/><path class="cls-5" d="M220.73,248.75a9.46,9.46,0,0,1,2.46-1.38,7.88,7.88,0,0,1,1.48-.45,4.24,4.24,0,0,1,1.59,0,1.85,1.85,0,0,1,1.21.7.76.76,0,0,1,.1.61,2.72,2.72,0,0,1-1.37,1.27,10.94,10.94,0,0,1-2.25.82,10.83,10.83,0,0,1-2.3.41c-.7,0-1.61-.08-1.76-.46S220.18,249.21,220.73,248.75Z"/><path class="cls-6" d="M225.27,247.51a3.78,3.78,0,0,0-1.2.3,13.65,13.65,0,0,0-3.24,1.85c-.31.24-.63.55-.42.71a17.26,17.26,0,0,0,4.63-1.19,4,4,0,0,0,.88-.46C226.52,248.25,226.11,247.47,225.27,247.51Z"/><path class="cls-13" d="M224.71,248a4.85,4.85,0,0,0-1.11.38,8.57,8.57,0,0,0-2.37,1.57,15.81,15.81,0,0,0,3.57-1,2.71,2.71,0,0,0,.74-.42C226,248,225.38,247.84,224.71,248Z"/><path class="cls-5" d="M237.3,238.34a9.45,9.45,0,0,1,1.29-2.24,7.43,7.43,0,0,1,.94-1.08,4.14,4.14,0,0,1,1.22-.79,1.6,1.6,0,0,1,1.23-.1.58.58,0,0,1,.34.4,2.61,2.61,0,0,1-.5,1.61,10.76,10.76,0,0,1-1.38,1.74,11.36,11.36,0,0,1-1.59,1.46c-.52.37-1.27.75-1.54.54S237.08,239,237.3,238.34Z"/><path class="cls-6" d="M240.24,235.15a3.91,3.91,0,0,0-.79.83,13.43,13.43,0,0,0-1.68,3c-.14.33-.25.72,0,.73a17.13,17.13,0,0,0,3-3.2,3.54,3.54,0,0,0,.47-.77C241.52,235.07,240.87,234.7,240.24,235.15Z"/><path class="cls-13" d="M240,235.77a4.55,4.55,0,0,0-.68.84,8.36,8.36,0,0,0-1.14,2.34,15.73,15.73,0,0,0,2.29-2.53,2.44,2.44,0,0,0,.39-.69C241,235.18,240.47,235.34,240,235.77Z"/><path class="cls-9" d="M207.13,194.76A20.86,20.86,0,0,0,194.7,201a10,10,0,0,0-2.68,4.39,5,5,0,0,0,1.2,4.81c2.05,1.9,5.34,1.11,7.85-.1,4.51-2.17,9-5.43,13.93-5a31.1,31.1,0,0,0,3.7.44,3.41,3.41,0,0,0,3.1-1.71c1-2.29-1.54-6.28-3.56-7.34A19.67,19.67,0,0,0,207.13,194.76Z"/><path class="cls-9" d="M189.07,210.64a3.85,3.85,0,0,0-2.5.58,7.19,7.19,0,0,0-2.84,2.92,4.09,4.09,0,0,0-.5,2.81,2.22,2.22,0,0,0,2,1.76,2.93,2.93,0,0,0,1.15-.3,8.3,8.3,0,0,0,3.29-2.26C190.9,214.68,191.71,211.08,189.07,210.64Z"/><path class="cls-10" d="M224.44,183.3c.73-4.64,2.88-9.48,1.09-13.83a31,31,0,0,1,9,13c1.68,5.07,1.45,10.91-1.37,15.45,2.45-2.69,6.69-2.89,10.16-1.78s6.48,3.25,9.8,4.73a2,2,0,0,0-1.89,1,10.16,10.16,0,0,0-.91,2c-1.54,3.76-5.42,6-9.22,7.42,1.37-.27,2.41,1,3.61,1.67,6.28,3.75,6.75,10,11.63,16a12.23,12.23,0,0,1-7.22-2.76c.53,2.37,1.93,4.44,3,6.61s1.91,4.7,1.17,7a60.32,60.32,0,0,0-4.43-10.48,22.86,22.86,0,0,0-3.65-5.29c-1.45-1.47-3.2-2.61-4.74-4-3.47-3.07-5.82-7.18-8-11.26C228.27,201,223,192.58,224.44,183.3Z"/><path class="cls-14" d="M240.19,195.44a9.78,9.78,0,0,0-2.23,0,7.26,7.26,0,0,0-4.85,2.88,8,8,0,0,0-1.49,5.47,11.74,11.74,0,0,1,4.32-2.58,10,10,0,0,1,3-.17c3.08.19,6.19.84,9.24.36,1.06-.17,2.1-.47,3.16-.58a4.51,4.51,0,0,1,1.83.07c-.29,0-1.59-1.15-2.36-1.58a36.87,36.87,0,0,0-6.72-3A19.24,19.24,0,0,0,240.19,195.44Z"/><path class="cls-14" d="M249.15,216.7c2.77,3.34,4.63,7.33,6.84,11.06a3.85,3.85,0,0,0,1.39,1.57c-3.38-1.33-5.41-4.7-7.49-7.68a34.89,34.89,0,0,0-6.75-7.44,19.63,19.63,0,0,0-9-4.1C240.12,210.23,245.2,211.91,249.15,216.7Z"/><path class="cls-14" d="M225.94,173a29.4,29.4,0,0,1-.85,4.72,32.78,32.78,0,0,0-.35,12,12,12,0,0,1,1.2-5.1,22.82,22.82,0,0,0,1.85-9c-.12-2.87-1.35-6.45-4-8C225.12,169.38,226,170.73,225.94,173Z"/><path class="cls-14" d="M256.65,194.67a12.68,12.68,0,0,0-4.57-5.83,2.85,2.85,0,0,0-1.28-.57,1.14,1.14,0,0,0-1.19.58,1.53,1.53,0,0,0,.11,1.16,10.1,10.1,0,0,0,2.75,3.3,18.5,18.5,0,0,0,1.66,1.39,9.1,9.1,0,0,0,2,1.09C257.13,196.13,256.91,195.35,256.65,194.67Z"/><path class="cls-15" d="M238.07,241.46a21.44,21.44,0,0,0,4.77-7,17.92,17.92,0,0,0,.64-10,16,16,0,0,1-1.06,5.87,21.39,21.39,0,0,1-4.77,7,36.75,36.75,0,0,1-12.35,8.45c-5.87,2.41-19.4,7.13-38.73,5.17-10.46-1.06-14.58-5.69-17.22-12.63a24.52,24.52,0,0,1-1.23-4.55,27.29,27.29,0,0,0,1.64,8.66c2.64,7,6.77,11.57,17.23,12.63,19.33,2,32.86-2.76,38.73-5.17A36.85,36.85,0,0,0,238.07,241.46Z"/><path class="cls-16" d="M209.65,184.9a33.65,33.65,0,0,0-9.17,1.41c-15.85,4.09-29.95,25.82-31.8,38.73-.84,5.84-1,11.87,1.08,17.39,2.64,6.95,6.76,11.58,17.22,12.64,19.33,1.95,32.86-2.77,38.73-5.18a37,37,0,0,0,12.35-8.44,21.54,21.54,0,0,0,4.77-7c2-5.24.9-11.24-1.47-16.34-3-6.35-7.68-11.62-10.57-18a26.92,26.92,0,0,0-11.9-12.79A21.48,21.48,0,0,0,209.65,184.9Z"/><path class="cls-5" d="M208.13,187.57a6.66,6.66,0,0,1,2.82-.75,4.69,4.69,0,0,1,1.54.09,3.19,3.19,0,0,1,1.46.82,2.71,2.71,0,0,1,.85,1.62,1.69,1.69,0,0,1-.15.94,2.54,2.54,0,0,1-1.76,1.15,8.77,8.77,0,0,1-4.7-.52c-.65-.31-1.45-.94-1.43-1.57A2.48,2.48,0,0,1,208.13,187.57Z"/><path class="cls-6" d="M212.81,188.07a2.42,2.42,0,0,0-1.23-.17,9.7,9.7,0,0,0-3.72,1.06c-.38.18-.79.47-.66.81a11.49,11.49,0,0,0,4.74.62,2.87,2.87,0,0,0,1-.22A1.25,1.25,0,0,0,212.81,188.07Z"/><path class="cls-7" d="M212.11,188.45a3.07,3.07,0,0,0-1.17,0,6.4,6.4,0,0,0-2.81,1.09,10.67,10.67,0,0,0,3.69.33,1.84,1.84,0,0,0,.86-.24C213.27,189.21,212.78,188.61,212.11,188.45Z"/><path class="cls-5" d="M194.73,189.07a13.9,13.9,0,0,1,2.5-1.2,11,11,0,0,1,1.48-.46,5.93,5.93,0,0,1,1.54-.17,1.64,1.64,0,0,1,1.11.35.34.34,0,0,1,0,.41,3.21,3.21,0,0,1-1.43,1,17.36,17.36,0,0,1-2.27.81,16.75,16.75,0,0,1-2.27.52c-.68.09-1.55.11-1.66-.14S194.15,189.45,194.73,189.07Z"/><path class="cls-6" d="M199.24,187.75a5.52,5.52,0,0,0-1.2.33,19.89,19.89,0,0,0-3.3,1.61c-.32.19-.65.44-.46.53a26.72,26.72,0,0,0,4.59-1.3,5.73,5.73,0,0,0,.89-.41C200.39,188.12,200.06,187.64,199.24,187.75Z"/><path class="cls-7" d="M198.65,188.12a7.15,7.15,0,0,0-1.1.38,11.22,11.22,0,0,0-2.44,1.33,24.57,24.57,0,0,0,3.55-1.07,3.85,3.85,0,0,0,.76-.37C199.9,188,199.32,188,198.65,188.12Z"/><path class="cls-5" d="M172.05,215.07a13.09,13.09,0,0,1,1.09-2.55,12.1,12.1,0,0,1,.81-1.33,5.82,5.82,0,0,1,1.05-1.13,1.6,1.6,0,0,1,1.07-.47.33.33,0,0,1,.3.27,3.28,3.28,0,0,1-.41,1.71,16.27,16.27,0,0,1-1.18,2.09,17.63,17.63,0,0,1-1.36,1.89c-.45.51-1.1,1.11-1.34,1S171.86,215.73,172.05,215.07Z"/><path class="cls-6" d="M174.57,211.1a6,6,0,0,0-.68,1,19.15,19.15,0,0,0-1.42,3.38c-.12.36-.21.76,0,.71a26.82,26.82,0,0,0,2.61-4,5.23,5.23,0,0,0,.4-.89C175.69,210.63,175.12,210.48,174.57,211.1Z"/><path class="cls-7" d="M174.38,211.77a6.83,6.83,0,0,0-.59,1,12,12,0,0,0-1,2.6,24.72,24.72,0,0,0,2-3.14,3.76,3.76,0,0,0,.33-.78C175.26,210.88,174.77,211.21,174.38,211.77Z"/><path class="cls-5" d="M199.75,196.21a5.82,5.82,0,0,1,2.39-1.85,3.89,3.89,0,0,1,1.49-.4,3,3,0,0,1,1.69.54,3.79,3.79,0,0,1,1.41,1.75,2.56,2.56,0,0,1-1,3.23,5.65,5.65,0,0,1-2.26.86,5.79,5.79,0,0,1-2.38,0,2.6,2.6,0,0,1-1.95-1.48A3.42,3.42,0,0,1,199.75,196.21Z"/><path class="cls-6" d="M204.37,195.3a2,2,0,0,0-1.23.19A8.64,8.64,0,0,0,200,198c-.29.35-.58.84-.32,1.22a8.72,8.72,0,0,0,4.72-.77,2.16,2.16,0,0,0,.85-.6A1.91,1.91,0,0,0,204.37,195.3Z"/><path class="cls-7" d="M203.85,196a2.5,2.5,0,0,0-1.11.38,6,6,0,0,0-2.25,2.27,8.13,8.13,0,0,0,3.62-.79,1.63,1.63,0,0,0,.72-.57C205.24,196.58,204.54,196,203.85,196Z"/><path class="cls-5" d="M187.82,197.8a5.76,5.76,0,0,1,1.85-2.39,3.83,3.83,0,0,1,1.35-.76,3,3,0,0,1,1.77.1,3.79,3.79,0,0,1,1.79,1.34,2.69,2.69,0,0,1,.51,1.13,2.81,2.81,0,0,1-.69,2.26,6.93,6.93,0,0,1-4.27,2,2.62,2.62,0,0,1-2.26-.94A3.42,3.42,0,0,1,187.82,197.8Z"/><path class="cls-6" d="M192.06,195.77a2,2,0,0,0-1.14.49,8.64,8.64,0,0,0-2.39,3.23c-.2.41-.35,1,0,1.27a8.82,8.82,0,0,0,4.38-1.93,2.21,2.21,0,0,0,.67-.79A1.89,1.89,0,0,0,192.06,195.77Z"/><path class="cls-7" d="M191.74,196.58a2.56,2.56,0,0,0-1,.64,6.17,6.17,0,0,0-1.61,2.77,8,8,0,0,0,3.31-1.68,1.52,1.52,0,0,0,.55-.73C193.22,196.78,192.4,196.38,191.74,196.58Z"/><path class="cls-5" d="M180.24,210.53a5.76,5.76,0,0,1,1.85-2.39,3.77,3.77,0,0,1,1.35-.76,3,3,0,0,1,1.77.1,3.77,3.77,0,0,1,1.79,1.33,2.88,2.88,0,0,1,.52,1.14,2.8,2.8,0,0,1-.7,2.25,6.87,6.87,0,0,1-4.27,2,2.63,2.63,0,0,1-2.26-.95A3.43,3.43,0,0,1,180.24,210.53Z"/><path class="cls-6" d="M184.49,208.49a2.11,2.11,0,0,0-1.15.49,8.67,8.67,0,0,0-2.39,3.24c-.19.41-.35,1,0,1.27a8.78,8.78,0,0,0,4.38-1.93,2.36,2.36,0,0,0,.68-.8A1.91,1.91,0,0,0,184.49,208.49Z"/><path class="cls-7" d="M184.16,209.31a2.35,2.35,0,0,0-1,.64,5.89,5.89,0,0,0-1.61,2.77,8.09,8.09,0,0,0,3.3-1.68,1.54,1.54,0,0,0,.56-.73C185.64,209.51,184.83,209.11,184.16,209.31Z"/><path class="cls-5" d="M205.9,208.34a5.82,5.82,0,0,1,2.39-1.85,3.76,3.76,0,0,1,1.5-.4,2.9,2.9,0,0,1,1.68.54,3.76,3.76,0,0,1,1.41,1.74,2.86,2.86,0,0,1,.21,1.22,2.8,2.8,0,0,1-1.24,2,5.65,5.65,0,0,1-2.26.86,5.78,5.78,0,0,1-2.38,0,2.63,2.63,0,0,1-1.94-1.48A3.41,3.41,0,0,1,205.9,208.34Z"/><path class="cls-6" d="M210.52,207.43a2,2,0,0,0-1.23.19,8.58,8.58,0,0,0-3.12,2.53c-.3.35-.58.85-.33,1.23a8.82,8.82,0,0,0,4.72-.78,2.27,2.27,0,0,0,.86-.6A1.9,1.9,0,0,0,210.52,207.43Z"/><path class="cls-7" d="M210,208.14a2.48,2.48,0,0,0-1.11.37,5.94,5.94,0,0,0-2.25,2.28,8.14,8.14,0,0,0,3.62-.8,1.56,1.56,0,0,0,.72-.57C211.39,208.7,210.7,208.11,210,208.14Z"/><path class="cls-5" d="M200.51,220.51a5.85,5.85,0,0,1,2.38-1.85,3.81,3.81,0,0,1,1.5-.4,3,3,0,0,1,1.69.54,3.73,3.73,0,0,1,1.4,1.74,2.74,2.74,0,0,1,.22,1.23,2.83,2.83,0,0,1-1.24,2,5.49,5.49,0,0,1-2.26.85,5.79,5.79,0,0,1-2.38,0,2.62,2.62,0,0,1-1.95-1.48A3.42,3.42,0,0,1,200.51,220.51Z"/><path class="cls-6" d="M205.13,219.6a2,2,0,0,0-1.23.19,8.61,8.61,0,0,0-3.13,2.53c-.29.36-.58.85-.33,1.23a8.84,8.84,0,0,0,4.73-.77,2.26,2.26,0,0,0,.85-.6A1.91,1.91,0,0,0,205.13,219.6Z"/><path class="cls-7" d="M204.61,220.31a2.42,2.42,0,0,0-1.12.38,6.05,6.05,0,0,0-2.25,2.27,8,8,0,0,0,3.62-.8,1.51,1.51,0,0,0,.72-.57C206,220.88,205.3,220.28,204.61,220.31Z"/><path class="cls-5" d="M187.25,220.67a5.73,5.73,0,0,1,2.16-2.1,3.82,3.82,0,0,1,1.44-.57,3,3,0,0,1,1.74.35,3.84,3.84,0,0,1,1.59,1.58,2.74,2.74,0,0,1,.35,1.19,2.8,2.8,0,0,1-1,2.13,5.65,5.65,0,0,1-2.15,1.11,5.75,5.75,0,0,1-2.36.29,2.64,2.64,0,0,1-2.1-1.25A3.4,3.4,0,0,1,187.25,220.67Z"/><path class="cls-6" d="M191.73,219.25a2,2,0,0,0-1.2.33,8.42,8.42,0,0,0-2.82,2.87c-.25.38-.48.9-.19,1.25a8.73,8.73,0,0,0,4.61-1.3,2.17,2.17,0,0,0,.78-.69A1.9,1.9,0,0,0,191.73,219.25Z"/><path class="cls-7" d="M191.3,220a2.57,2.57,0,0,0-1.07.5,6,6,0,0,0-2,2.52,8.16,8.16,0,0,0,3.51-1.2,1.57,1.57,0,0,0,.65-.65C192.74,220.42,192,219.91,191.3,220Z"/><path class="cls-5" d="M174.62,222.94a5.79,5.79,0,0,1,1.38-2.68,3.65,3.65,0,0,1,1.19-1,3,3,0,0,1,1.76-.22,3.83,3.83,0,0,1,2,1,2.89,2.89,0,0,1,.71,1,2.84,2.84,0,0,1-.28,2.34,5.69,5.69,0,0,1-1.69,1.73,5.78,5.78,0,0,1-2.15,1,2.63,2.63,0,0,1-2.39-.53A3.41,3.41,0,0,1,174.62,222.94Z"/><path class="cls-6" d="M178.42,220.18a2,2,0,0,0-1,.68,8.53,8.53,0,0,0-1.77,3.62c-.12.44-.17,1,.21,1.25a8.83,8.83,0,0,0,4-2.69,2.33,2.33,0,0,0,.52-.9A1.91,1.91,0,0,0,178.42,220.18Z"/><path class="cls-7" d="M178.25,221a2.44,2.44,0,0,0-.85.81,6,6,0,0,0-1.09,3,8,8,0,0,0,2.95-2.25,1.58,1.58,0,0,0,.42-.82C179.75,221,178.87,220.72,178.25,221Z"/><path class="cls-5" d="M181.82,233.26a5.73,5.73,0,0,1,2.1-2.16,3.81,3.81,0,0,1,1.42-.61,3,3,0,0,1,1.75.3,3.84,3.84,0,0,1,1.64,1.53,2.88,2.88,0,0,1,.38,1.18,2.78,2.78,0,0,1-1,2.16,5.58,5.58,0,0,1-2.12,1.17,5.88,5.88,0,0,1-2.35.36,2.63,2.63,0,0,1-2.13-1.19A3.38,3.38,0,0,1,181.82,233.26Z"/><path class="cls-6" d="M186.26,231.72a2,2,0,0,0-1.19.35,8.62,8.62,0,0,0-2.74,3c-.24.39-.46.92-.15,1.26a8.79,8.79,0,0,0,4.57-1.43,2.35,2.35,0,0,0,.76-.71A1.9,1.9,0,0,0,186.26,231.72Z"/><path class="cls-7" d="M185.85,232.49a2.49,2.49,0,0,0-1,.53,5.94,5.94,0,0,0-1.91,2.57,8.24,8.24,0,0,0,3.47-1.3,1.51,1.51,0,0,0,.63-.67C187.3,232.86,186.53,232.37,185.85,232.49Z"/><path class="cls-5" d="M170.58,235.09a5.84,5.84,0,0,1,1-2.86,4,4,0,0,1,1-1.16,2.91,2.91,0,0,1,1.7-.48,3.79,3.79,0,0,1,2.14.67,2.56,2.56,0,0,1,.93,3.26,5.68,5.68,0,0,1-1.4,2,6,6,0,0,1-2,1.34,2.63,2.63,0,0,1-2.44-.16A3.45,3.45,0,0,1,170.58,235.09Z"/><path class="cls-6" d="M173.92,231.78a2.07,2.07,0,0,0-.92.84,8.7,8.7,0,0,0-1.2,3.84c0,.45,0,1,.41,1.2a8.81,8.81,0,0,0,3.51-3.26,2.18,2.18,0,0,0,.37-1A1.9,1.9,0,0,0,173.92,231.78Z"/><path class="cls-13" d="M173.88,232.66a2.46,2.46,0,0,0-.72.93,6.06,6.06,0,0,0-.61,3.14,8,8,0,0,0,2.57-2.67,1.56,1.56,0,0,0,.29-.87C175.35,232.36,174.45,232.25,173.88,232.66Z"/><path class="cls-5" d="M176.57,243.07a5.69,5.69,0,0,1,2.64-1.46,3.83,3.83,0,0,1,1.54-.16,3,3,0,0,1,1.58.79,3.82,3.82,0,0,1,1.12,1.94,2.56,2.56,0,0,1-1.51,3,6.86,6.86,0,0,1-4.72.16c-.71-.29-1.6-.95-1.7-1.77A3.42,3.42,0,0,1,176.57,243.07Z"/><path class="cls-6" d="M181.27,242.89a2,2,0,0,0-1.25,0,8.57,8.57,0,0,0-3.48,2c-.34.3-.7.74-.51,1.16a8.76,8.76,0,0,0,4.79,0,2.14,2.14,0,0,0,.93-.46A1.9,1.9,0,0,0,181.27,242.89Z"/><path class="cls-13" d="M180.65,243.51a2.44,2.44,0,0,0-1.16.2,6,6,0,0,0-2.58,1.9,8.12,8.12,0,0,0,3.7-.23,1.55,1.55,0,0,0,.8-.45C181.93,244.28,181.33,243.59,180.65,243.51Z"/><path class="cls-5" d="M188.79,243.53a5.72,5.72,0,0,1,2.6-1.52,3.68,3.68,0,0,1,1.54-.2,2.93,2.93,0,0,1,1.61.75,3.83,3.83,0,0,1,1.16,1.91,2.74,2.74,0,0,1,.05,1.24,2.78,2.78,0,0,1-1.49,1.83,5.6,5.6,0,0,1-2.35.56,5.86,5.86,0,0,1-2.36-.28c-.71-.27-1.63-.91-1.74-1.72A3.4,3.4,0,0,1,188.79,243.53Z"/><path class="cls-6" d="M193.49,243.23a2,2,0,0,0-1.25,0,8.62,8.62,0,0,0-3.43,2.1c-.33.31-.68.77-.48,1.18a8.82,8.82,0,0,0,4.78-.15,2.25,2.25,0,0,0,.93-.49A1.9,1.9,0,0,0,193.49,243.23Z"/><path class="cls-13" d="M192.88,243.87a2.41,2.41,0,0,0-1.15.22,6,6,0,0,0-2.53,2,8.1,8.1,0,0,0,3.69-.32,1.63,1.63,0,0,0,.79-.47C194.18,244.61,193.57,243.93,192.88,243.87Z"/><path class="cls-5" d="M194.94,232.16a5.76,5.76,0,0,1,2.55-1.62,3.63,3.63,0,0,1,1.52-.25,3,3,0,0,1,1.64.69,3.82,3.82,0,0,1,1.23,1.87,2.74,2.74,0,0,1,.1,1.24,2.84,2.84,0,0,1-1.42,1.88,5.56,5.56,0,0,1-2.33.64,5.89,5.89,0,0,1-2.37-.19c-.72-.25-1.66-.85-1.8-1.66A3.39,3.39,0,0,1,194.94,232.16Z"/><path class="cls-6" d="M199.62,231.69a2,2,0,0,0-1.24.07A8.66,8.66,0,0,0,195,234c-.32.32-.65.79-.44,1.19a8.84,8.84,0,0,0,4.78-.32,2.31,2.31,0,0,0,.9-.52A1.9,1.9,0,0,0,199.62,231.69Z"/><path class="cls-7" d="M199,232.35a2.28,2.28,0,0,0-1.14.27,5.91,5.91,0,0,0-2.46,2,8.09,8.09,0,0,0,3.68-.45,1.62,1.62,0,0,0,.77-.5C200.37,233,199.73,232.39,199,232.35Z"/><path class="cls-5" d="M202.23,242.56a5.7,5.7,0,0,1,2.54-1.62,3.86,3.86,0,0,1,1.53-.26,3,3,0,0,1,1.63.69,3.77,3.77,0,0,1,1.24,1.87,2.75,2.75,0,0,1,.1,1.24,2.86,2.86,0,0,1-1.42,1.89,5.92,5.92,0,0,1-2.34.64,5.75,5.75,0,0,1-2.37-.2,2.62,2.62,0,0,1-1.8-1.65A3.42,3.42,0,0,1,202.23,242.56Z"/><path class="cls-6" d="M206.91,242.08a2,2,0,0,0-1.24.08,8.55,8.55,0,0,0-3.35,2.23c-.32.32-.66.79-.44,1.19a8.81,8.81,0,0,0,4.77-.33,2.23,2.23,0,0,0,.91-.52A1.9,1.9,0,0,0,206.91,242.08Z"/><path class="cls-13" d="M206.33,242.74a2.56,2.56,0,0,0-1.15.27,6.1,6.1,0,0,0-2.45,2.05,8,8,0,0,0,3.68-.45,1.55,1.55,0,0,0,.77-.5C207.65,243.43,207,242.78,206.33,242.74Z"/><path class="cls-5" d="M208.2,233.13a5.79,5.79,0,0,1,2.38-1.85,4,4,0,0,1,1.5-.4,3,3,0,0,1,1.69.54,3.79,3.79,0,0,1,1.4,1.74,2.74,2.74,0,0,1,.22,1.23,2.83,2.83,0,0,1-1.24,2,6.79,6.79,0,0,1-4.64.88,2.62,2.62,0,0,1-1.95-1.48A3.42,3.42,0,0,1,208.2,233.13Z"/><path class="cls-6" d="M212.82,232.22a2,2,0,0,0-1.23.19,8.54,8.54,0,0,0-3.13,2.54c-.29.35-.58.84-.33,1.22a8.76,8.76,0,0,0,4.73-.77,2.35,2.35,0,0,0,.85-.6A1.91,1.91,0,0,0,212.82,232.22Z"/><path class="cls-7" d="M212.3,232.93a2.53,2.53,0,0,0-1.12.38,6.05,6.05,0,0,0-2.25,2.27,8.07,8.07,0,0,0,3.62-.79,1.57,1.57,0,0,0,.72-.57C213.68,233.5,213,232.91,212.3,232.93Z"/><path class="cls-5" d="M214.62,242.29a5.81,5.81,0,0,1,2.2-2.06,3.85,3.85,0,0,1,1.46-.54,2.94,2.94,0,0,1,1.73.38,3.85,3.85,0,0,1,1.56,1.61,2.78,2.78,0,0,1,.32,1.19,2.81,2.81,0,0,1-1,2.12,5.61,5.61,0,0,1-2.18,1.06,5.73,5.73,0,0,1-2.36.25,2.61,2.61,0,0,1-2.08-1.29A3.43,3.43,0,0,1,214.62,242.29Z"/><path class="cls-6" d="M219.13,241a2,2,0,0,0-1.2.3,8.6,8.6,0,0,0-2.88,2.81c-.26.38-.5.9-.21,1.26a8.86,8.86,0,0,0,4.63-1.21,2.36,2.36,0,0,0,.79-.68A1.9,1.9,0,0,0,219.13,241Z"/><path class="cls-13" d="M218.68,241.71a2.41,2.41,0,0,0-1.07.48,6,6,0,0,0-2,2.47,7.94,7.94,0,0,0,3.53-1.13,1.55,1.55,0,0,0,.66-.63C220.11,242.15,219.37,241.62,218.68,241.71Z"/><path class="cls-5" d="M213.24,221.71a5.77,5.77,0,0,1,1.87-2.37,3.85,3.85,0,0,1,1.36-.74,3,3,0,0,1,1.77.12,3.8,3.8,0,0,1,1.78,1.36,2.55,2.55,0,0,1-.22,3.38,5.5,5.5,0,0,1-2,1.37,5.86,5.86,0,0,1-2.31.6,2.63,2.63,0,0,1-2.24-1A3.42,3.42,0,0,1,213.24,221.71Z"/><path class="cls-6" d="M217.51,219.72a2.1,2.1,0,0,0-1.15.48,8.59,8.59,0,0,0-2.43,3.21c-.2.41-.36,1,0,1.27a8.76,8.76,0,0,0,4.41-1.88A2.24,2.24,0,0,0,219,222,1.91,1.91,0,0,0,217.51,219.72Z"/><path class="cls-7" d="M217.17,220.54a2.43,2.43,0,0,0-1,.63,6,6,0,0,0-1.64,2.75,8.15,8.15,0,0,0,3.32-1.64,1.62,1.62,0,0,0,.57-.73C218.65,220.76,217.84,220.35,217.17,220.54Z"/><path class="cls-5" d="M220.22,231.8a5.85,5.85,0,0,1,1.87-2.37,3.85,3.85,0,0,1,1.36-.74,2.9,2.9,0,0,1,1.77.12,3.72,3.72,0,0,1,1.78,1.35,2.71,2.71,0,0,1,.5,1.14,2.81,2.81,0,0,1-.72,2.25,5.63,5.63,0,0,1-2,1.37,5.82,5.82,0,0,1-2.3.6,2.66,2.66,0,0,1-2.25-1A3.39,3.39,0,0,1,220.22,231.8Z"/><path class="cls-6" d="M224.49,229.81a2,2,0,0,0-1.15.48,8.59,8.59,0,0,0-2.43,3.21c-.2.41-.36,1,0,1.27a8.94,8.94,0,0,0,4.4-1.88,2.33,2.33,0,0,0,.68-.79A1.89,1.89,0,0,0,224.49,229.81Z"/><path class="cls-7" d="M224.16,230.62a2.5,2.5,0,0,0-1,.63,6.11,6.11,0,0,0-1.64,2.75,8,8,0,0,0,3.33-1.64,1.58,1.58,0,0,0,.56-.72C225.64,230.84,224.82,230.43,224.16,230.62Z"/><path class="cls-5" d="M227.42,241.4a7.61,7.61,0,0,1,1.83-2.2,5.94,5.94,0,0,1,1.28-.88,3.48,3.48,0,0,1,1.59-.35,2.25,2.25,0,0,1,1.52.54,1.16,1.16,0,0,1,.38.71,2.52,2.52,0,0,1-.79,1.82,10.41,10.41,0,0,1-4,2.51c-.68.2-1.64.27-2-.15A2.08,2.08,0,0,1,227.42,241.4Z"/><path class="cls-6" d="M231.39,238.89a2.9,2.9,0,0,0-1.06.63,11,11,0,0,0-2.4,2.95c-.2.35-.38.79-.1.93a13.36,13.36,0,0,0,4.1-2.47,3,3,0,0,0,.66-.74A1,1,0,0,0,231.39,238.89Z"/><path class="cls-7" d="M231,239.56a3.82,3.82,0,0,0-.93.71,7,7,0,0,0-1.65,2.42,12.66,12.66,0,0,0,3.1-2,1.9,1.9,0,0,0,.55-.67C232.37,239.35,231.66,239.26,231,239.56Z"/><path class="cls-5" d="M218.2,209.76a5.76,5.76,0,0,1,2.19-2.08,3.81,3.81,0,0,1,1.45-.54,2.93,2.93,0,0,1,1.73.37,3.82,3.82,0,0,1,1.57,1.59,2.57,2.57,0,0,1-.7,3.32,5.61,5.61,0,0,1-2.17,1.08,5.73,5.73,0,0,1-2.36.26,2.6,2.6,0,0,1-2.08-1.28A3.39,3.39,0,0,1,218.2,209.76Z"/><path class="cls-6" d="M222.7,208.4a2,2,0,0,0-1.2.31,8.6,8.6,0,0,0-2.86,2.83c-.26.38-.5.9-.21,1.25a8.85,8.85,0,0,0,4.63-1.23,2.28,2.28,0,0,0,.79-.69A1.9,1.9,0,0,0,222.7,208.4Z"/><path class="cls-7" d="M222.26,209.16a2.36,2.36,0,0,0-1.07.48,6.05,6.05,0,0,0-2,2.49,8.14,8.14,0,0,0,3.52-1.15,1.57,1.57,0,0,0,.66-.64C223.69,209.58,222.94,209.06,222.26,209.16Z"/><path class="cls-5" d="M225.48,221.2a5.75,5.75,0,0,1,1.86-2.37,3.72,3.72,0,0,1,1.36-.75,3,3,0,0,1,1.77.11,3.85,3.85,0,0,1,1.78,1.35,2.55,2.55,0,0,1-.21,3.39,5.65,5.65,0,0,1-2,1.38,5.77,5.77,0,0,1-2.3.6,2.61,2.61,0,0,1-2.24-1A3.38,3.38,0,0,1,225.48,221.2Z"/><path class="cls-6" d="M229.74,219.2a2,2,0,0,0-1.15.48,8.68,8.68,0,0,0-2.42,3.22c-.2.41-.36,1,0,1.27a8.88,8.88,0,0,0,4.4-1.9,2.24,2.24,0,0,0,.68-.79A1.9,1.9,0,0,0,229.74,219.2Z"/><path class="cls-7" d="M229.41,220a2.39,2.39,0,0,0-1,.64,6.11,6.11,0,0,0-1.64,2.75,8,8,0,0,0,3.32-1.65,1.54,1.54,0,0,0,.56-.73C230.89,220.23,230.07,219.82,229.41,220Z"/><path class="cls-5" d="M231.88,231.14a5.66,5.66,0,0,1,1.6-2.56,4,4,0,0,1,1.27-.89,3,3,0,0,1,1.77-.07,3.8,3.8,0,0,1,1.92,1.15,2.57,2.57,0,0,1,.15,3.39,5.68,5.68,0,0,1-1.83,1.58,5.9,5.9,0,0,1-2.23.85,2.63,2.63,0,0,1-2.33-.72A3.39,3.39,0,0,1,231.88,231.14Z"/><path class="cls-6" d="M235.9,228.7a2,2,0,0,0-1.09.6,8.49,8.49,0,0,0-2.06,3.45c-.16.43-.26,1,.11,1.27a8.82,8.82,0,0,0,4.17-2.35,2.31,2.31,0,0,0,.6-.86A1.9,1.9,0,0,0,235.9,228.7Z"/><path class="cls-7" d="M235.66,229.54a2.44,2.44,0,0,0-.92.74,6,6,0,0,0-1.33,2.91,8.1,8.1,0,0,0,3.12-2,1.65,1.65,0,0,0,.49-.79C237.15,229.6,236.3,229.28,235.66,229.54Z"/></svg>