<svg xmlns="http://www.w3.org/2000/svg" xmlns:xlink="http://www.w3.org/1999/xlink" viewBox="0 0 370 330"><defs><style>.cls-1{isolation:isolate;}.cls-2{fill:url(#linear-gradient);}.cls-3{fill:url(#linear-gradient-2);}.cls-4{fill:#fff;mix-blend-mode:multiply;}.cls-4,.cls-8{opacity:0.5;}.cls-5{fill:url(#linear-gradient-3);}.cls-12,.cls-6{fill:#e9ff00;}.cls-15,.cls-18,.cls-19,.cls-20,.cls-21,.cls-22,.cls-23,.cls-24,.cls-25,.cls-34,.cls-35,.cls-36,.cls-37,.cls-38,.cls-39,.cls-40,.cls-6{opacity:0.3;}.cls-7{fill:url(#linear-gradient-4);}.cls-10,.cls-13,.cls-8{fill:#214907;}.cls-9{fill:url(#linear-gradient-5);}.cls-10{opacity:0.29;}.cls-11{fill:url(#linear-gradient-6);}.cls-12,.cls-17,.cls-33{opacity:0.4;}.cls-13{opacity:0.25;}.cls-14{fill:url(#linear-gradient-7);}.cls-15{fill:#ffe38b;}.cls-16{fill:#d14c02;opacity:0.58;}.cls-17{fill:url(#linear-gradient-8);}.cls-18{fill:#a81405;}.cls-19{fill:url(#linear-gradient-9);}.cls-20{fill:url(#linear-gradient-10);}.cls-21{fill:url(#linear-gradient-11);}.cls-22{fill:url(#linear-gradient-12);}.cls-23{fill:url(#linear-gradient-13);}.cls-24{fill:url(#linear-gradient-14);}.cls-25{fill:url(#linear-gradient-15);}.cls-26{fill:url(#linear-gradient-16);}.cls-27{fill:url(#linear-gradient-17);}.cls-28{fill:url(#linear-gradient-18);}.cls-29{fill:url(#linear-gradient-19);}.cls-30{fill:url(#linear-gradient-20);}.cls-31{fill:url(#linear-gradient-21);}.cls-32{fill:url(#linear-gradient-22);}.cls-33{fill:url(#linear-gradient-23);}.cls-34{fill:url(#linear-gradient-24);}.cls-35{fill:url(#linear-gradient-25);}.cls-36{fill:url(#linear-gradient-26);}.cls-37{fill:url(#linear-gradient-27);}.cls-38{fill:url(#linear-gradient-28);}.cls-39{fill:url(#linear-gradient-29);}.cls-40{fill:url(#linear-gradient-30);}</style><linearGradient id="linear-gradient" x1="-119.72" y1="372.8" x2="-141.33" y2="359.41" gradientTransform="translate(415.06 418.45) rotate(112.59)" gradientUnits="userSpaceOnUse"><stop offset="0.3" stop-color="#729c00"/><stop offset="1" stop-color="#9dd600"/></linearGradient><linearGradient id="linear-gradient-2" x1="-124.64" y1="175.2" x2="-146.24" y2="161.81" gradientTransform="matrix(0.1, 1, -1, 0.1, 300.03, 283.62)" xlink:href="#linear-gradient"/><linearGradient id="linear-gradient-3" x1="-121.07" y1="369.78" x2="-133.87" y2="367.82" xlink:href="#linear-gradient"/><linearGradient id="linear-gradient-4" x1="-113.55" y1="170.05" x2="-126.35" y2="168.09" gradientTransform="translate(294.88 283) rotate(84.22)" xlink:href="#linear-gradient"/><linearGradient id="linear-gradient-5" x1="-106.83" y1="118.86" x2="-119.63" y2="116.9" gradientTransform="translate(264.39 262.15) rotate(78.02)" xlink:href="#linear-gradient"/><linearGradient id="linear-gradient-6" x1="-129.19" y1="196.95" x2="-141.99" y2="194.99" gradientTransform="translate(319.04 298.52) rotate(88.13)" xlink:href="#linear-gradient"/><linearGradient id="linear-gradient-7" x1="-84.04" y1="276.51" x2="-191.32" y2="282.85" gradientTransform="translate(415.06 418.45) rotate(112.59)" gradientUnits="userSpaceOnUse"><stop offset="0" stop-color="#fc7300"/><stop offset="1" stop-color="#fc5100"/></linearGradient><linearGradient id="linear-gradient-8" x1="-122.08" y1="277.96" x2="-100.26" y2="275.45" gradientTransform="translate(415.06 418.45) rotate(112.59)" gradientUnits="userSpaceOnUse"><stop offset="0" stop-color="#fc7300"/><stop offset="1" stop-color="#ffae88"/></linearGradient><linearGradient id="linear-gradient-9" x1="-135.51" y1="338.9" x2="-133.52" y2="347.93" xlink:href="#linear-gradient-8"/><linearGradient id="linear-gradient-10" x1="-117.64" y1="275.68" x2="-116.1" y2="282.66" gradientTransform="translate(392.11 381.96) rotate(105.69)" xlink:href="#linear-gradient-8"/><linearGradient id="linear-gradient-11" x1="-126.92" y1="305.46" x2="-125.38" y2="312.44" gradientTransform="translate(420.13 427.25) rotate(114.58)" xlink:href="#linear-gradient-8"/><linearGradient id="linear-gradient-12" x1="-287.64" y1="225.88" x2="-286.1" y2="232.85" gradientTransform="matrix(-0.22, 0.66, -0.95, -0.31, 373.34, 476.2)" xlink:href="#linear-gradient-8"/><linearGradient id="linear-gradient-13" x1="-427.58" y1="223.28" x2="-426.03" y2="230.25" gradientTransform="matrix(-0.22, 0.52, -0.92, -0.39, 369.31, 528.63)" xlink:href="#linear-gradient-8"/><linearGradient id="linear-gradient-14" x1="-719.5" y1="316.01" x2="-717.96" y2="322.99" gradientTransform="matrix(-0.16, 0.37, -0.5, -0.21, 266.05, 530.75)" xlink:href="#linear-gradient-8"/><linearGradient id="linear-gradient-15" x1="-662" y1="278.52" x2="-660.46" y2="285.5" gradientTransform="matrix(-0.1, 0.39, -0.53, -0.13, 255.88, 507.29)" xlink:href="#linear-gradient-8"/><linearGradient id="linear-gradient-16" x1="-62.44" y1="384.31" x2="-84.05" y2="370.92" gradientTransform="translate(420.4 358.84) rotate(105.48)" xlink:href="#linear-gradient"/><linearGradient id="linear-gradient-17" x1="-79.61" y1="212.43" x2="-101.21" y2="199.04" gradientTransform="translate(289.56 239.29) rotate(77.26)" xlink:href="#linear-gradient"/><linearGradient id="linear-gradient-18" x1="-63.79" y1="381.29" x2="-76.59" y2="379.33" gradientTransform="translate(420.4 358.84) rotate(105.48)" xlink:href="#linear-gradient"/><linearGradient id="linear-gradient-19" x1="-68.62" y1="207.4" x2="-81.42" y2="205.44" gradientTransform="translate(284.37 239.31) rotate(77.11)" xlink:href="#linear-gradient"/><linearGradient id="linear-gradient-20" x1="-66.19" y1="160.85" x2="-78.99" y2="158.88" gradientTransform="translate(251.53 222.4) rotate(70.91)" xlink:href="#linear-gradient"/><linearGradient id="linear-gradient-21" x1="-81.82" y1="231.14" x2="-94.62" y2="229.18" gradientTransform="translate(310.27 251.72) rotate(81.02)" xlink:href="#linear-gradient"/><linearGradient id="linear-gradient-22" x1="-26.76" y1="288.02" x2="-134.04" y2="294.36" gradientTransform="translate(420.4 358.84) rotate(105.48)" xlink:href="#linear-gradient-7"/><linearGradient id="linear-gradient-23" x1="-64.8" y1="289.47" x2="-42.98" y2="286.95" gradientTransform="translate(420.4 358.84) rotate(105.48)" xlink:href="#linear-gradient-8"/><linearGradient id="linear-gradient-24" x1="-78.23" y1="350.41" x2="-76.23" y2="359.44" gradientTransform="translate(420.4 358.84) rotate(105.48)" xlink:href="#linear-gradient-8"/><linearGradient id="linear-gradient-25" x1="-62.16" y1="293.99" x2="-60.62" y2="300.97" gradientTransform="matrix(-0.15, 0.99, -0.99, -0.15, 393.1, 325.47)" xlink:href="#linear-gradient-8"/><linearGradient id="linear-gradient-26" x1="-69.27" y1="314.98" x2="-67.73" y2="321.95" gradientTransform="translate(426.52 366.95) rotate(107.47)" xlink:href="#linear-gradient-8"/><linearGradient id="linear-gradient-27" x1="-206.55" y1="241.79" x2="-205.01" y2="248.76" gradientTransform="matrix(-0.13, 0.68, -0.98, -0.19, 386.15, 421.32)" xlink:href="#linear-gradient-8"/><linearGradient id="linear-gradient-28" x1="-326.08" y1="234.4" x2="-324.53" y2="241.38" gradientTransform="matrix(-0.15, 0.54, -0.96, -0.27, 388.65, 473.84)" xlink:href="#linear-gradient-8"/><linearGradient id="linear-gradient-29" x1="-578.23" y1="336.29" x2="-576.69" y2="343.26" gradientTransform="matrix(-0.11, 0.39, -0.53, -0.15, 286.44, 488.73)" xlink:href="#linear-gradient-8"/><linearGradient id="linear-gradient-30" x1="-526.51" y1="314.46" x2="-524.97" y2="321.44" gradientTransform="matrix(-0.05, 0.4, -0.54, -0.07, 273.44, 466.71)" xlink:href="#linear-gradient-8"/></defs><g class="cls-1"><g id="Carrot"><path class="cls-2" d="M133.93,159.72c-3.51-2.15-5.34-9.35-9-11.45s-7.36,3-4,7.74,10.26,10.81,10.26,10.81S140.34,163.65,133.93,159.72Z"/><path class="cls-3" d="M126.13,164.33c-4.11-.24-9.12-5.72-13.33-5.85s-5.08,6.11.16,8.7,14.15,4.68,14.15,4.68S133.65,164.75,126.13,164.33Z"/><path class="cls-4" d="M121,156c3.38,4.76,10.26,10.81,10.26,10.81s3.39-1.19,4.58-3a4.09,4.09,0,0,0-1.46-1.15c-6.7-2.89-11.27-8.65-14.18-12.74A5.93,5.93,0,0,0,121,156Z"/><path class="cls-5" d="M133.63,163.46c-9.28-4-14.52-13.6-16.85-16.47s-10.07,5.66-5.71,10.77S126.9,168,132,169.55,137.23,165,133.63,163.46Z"/><path class="cls-6" d="M117.13,148.87c2.33,2.87,7.57,12.45,16.86,16.46a4,4,0,0,1,2.07,2.11,4.08,4.08,0,0,0-2.43-4c-9.28-4-14.52-13.6-16.85-16.47-2.1-2.58-8.55,4.07-6.64,9.15C110.07,151.47,115.29,146.59,117.13,148.87Z"/><path class="cls-7" d="M125.56,179.74c-10.08.88-19.24-5.06-22.66-6.48s-6.17,9.76.1,12.18,18.77,1.45,24,.44S129.47,179.39,125.56,179.74Z"/><path class="cls-6" d="M103.77,174.62c3.41,1.42,12.57,7.36,22.65,6.47a4.17,4.17,0,0,1,3.31,1.27,4.1,4.1,0,0,0-4.17-2.62c-10.08.88-19.24-5.06-22.66-6.48-2.91-1.21-5.33,6.75-2.07,10.62C99,179.78,101.16,173.54,103.77,174.62Z"/><path class="cls-8" d="M113.68,182.49c4.09,1.09,10.5.57,16-.36a4.13,4.13,0,0,0-4.08-2.39c-6.14.54-11.93-1.46-16.3-3.42C109.49,179,110.77,181.71,113.68,182.49Z"/><path class="cls-9" d="M136.38,173.74c-9.92,2-19.67-3-23.22-4s-5.08,10.36,1.41,12.1,18.82-.59,23.92-2.16S140.23,173,136.38,173.74Z"/><path class="cls-10" d="M129.67,167.45c-8.53,0-16-4.73-20-7.07-.91,2-.07,5.15,3.27,6.8,5.23,2.6,14.15,4.68,14.15,4.68A11.77,11.77,0,0,0,129.67,167.45Z"/><path class="cls-11" d="M129.75,169.19c-10.11.19-18.85-6.36-22.15-8s-6.83,9.31-.74,12.16,18.62,2.72,23.92,2.07S133.68,169.11,129.75,169.19Z"/><path class="cls-12" d="M108.85,162.75c3.3,1.65,12,8.2,22.16,8a4.12,4.12,0,0,1,2.55.85,4.13,4.13,0,0,0-3.81-2.41c-10.11.19-18.85-6.36-22.15-8-3-1.52-6.24,7.62-2,11.31C103.38,168.29,106.18,161.42,108.85,162.75Z"/><path class="cls-13" d="M127,185.88c3-.58,3.37-2.64,2.38-4.21a70,70,0,0,0,9.1-2c5.1-1.57,1.74-6.71-2.11-5.95a22.72,22.72,0,0,1-2.93.35c1.28-1.87-.79-5-3.7-4.9-.24,0-.48,0-.73-.05a5.6,5.6,0,0,0,.27-.55c1,.38,1.94.72,2.7,1,4.22,1.33,5-2.63,3.11-4.93,1.39-1.27,1.94-3-1.17-4.9-2.51-1.53-4.16-5.62-6.23-8.62A102.48,102.48,0,0,0,114,186.94,75.6,75.6,0,0,0,127,185.88Z"/><path class="cls-14" d="M283.38,235.52c3.91-9.12-122.69-94.68-132.67-96.82C130.46,134.37,106.85,202.05,122,210,140.85,219.94,280.63,242,283.38,235.52Z"/><path class="cls-15" d="M151.21,143.31c9.14,1.95,115.86,73.72,131,92.91.67-.17,1.08-.41,1.2-.7,3.91-9.12-122.69-94.68-132.67-96.82-17.29-3.7-37,45.09-33,64.38C117,181.63,135.17,139.87,151.21,143.31Z"/><path class="cls-16" d="M151,162.76c24.11,4.08,105.44,51.08,131.33,73.41.57-.17.94-.38,1.05-.65,3.91-9.12-122.69-94.68-132.67-96.82-17.89-3.83-38.38,48.51-32.51,66.26C120.59,184.79,133.91,159.87,151,162.76Z"/><path class="cls-17" d="M274.76,233.29c1.1-.27-132.94-43.74-139.58-45.82s-14.43,18.84-4,21.2S267.84,235,274.76,233.29Z"/><path class="cls-18" d="M152.75,146.77a29.71,29.71,0,0,0-10.17,12.42,40.87,40.87,0,0,0-3.25,16.41A84.79,84.79,0,0,1,152.75,146.77Z"/><path class="cls-19" d="M153.13,147.49a113.58,113.58,0,0,0-7.61,13.17,45.66,45.66,0,0,0-4.86,15.49Z"/><path class="cls-18" d="M155.84,181.71a23,23,0,0,0-6.65,10.47,31.7,31.7,0,0,0-1,12.9A65.58,65.58,0,0,1,155.84,181.71Z"/><path class="cls-20" d="M156.2,182.23A86.83,86.83,0,0,0,151.58,193a35.38,35.38,0,0,0-2.28,12.34Z"/><path class="cls-18" d="M194.44,172.07a23,23,0,0,0-8.19,9.33A31.55,31.55,0,0,0,183.3,194,65.51,65.51,0,0,1,194.44,172.07Z"/><path class="cls-21" d="M194.72,172.65a87,87,0,0,0-6.24,10,35.34,35.34,0,0,0-4.16,11.85Z"/><path class="cls-18" d="M217.63,207.1a13.09,13.09,0,0,0-6,6.72,16.59,16.59,0,0,0-.31,9.15A31.8,31.8,0,0,1,217.63,207.1Z"/><path class="cls-22" d="M218,207.52a43.64,43.64,0,0,0-4,7.21,17.44,17.44,0,0,0-1.62,8.59Z"/><path class="cls-18" d="M255.12,210.83s-4.25,1.19-5.91,4.79a11.93,11.93,0,0,0-.45,7.59A21.36,21.36,0,0,1,255.12,210.83Z"/><path class="cls-23" d="M255.48,211.23a29.62,29.62,0,0,0-4,5.47,12,12,0,0,0-1.71,7Z"/><path class="cls-18" d="M219.47,188.73a7.86,7.86,0,0,0-3.68,3.68,10.22,10.22,0,0,0-.72,5.29A19.87,19.87,0,0,1,219.47,188.73Z"/><path class="cls-24" d="M219.66,189a26.3,26.3,0,0,0-2.62,4,10.83,10.83,0,0,0-1.41,4.91Z"/><path class="cls-18" d="M172.07,204a7.91,7.91,0,0,0-3.09,4.19,10.25,10.25,0,0,0,.09,5.34A20,20,0,0,1,172.07,204Z"/><path class="cls-25" d="M172.29,204.2a26.43,26.43,0,0,0-2,4.39,10.8,10.8,0,0,0-.64,5.07Z"/><path class="cls-26" d="M83,189.05c-3.75-1.7-6.45-8.62-10.34-10.25s-6.93,3.86-3,8.17,11.52,9.45,11.52,9.45S89.86,192.15,83,189.05Z"/><path class="cls-27" d="M75.85,194.58c-4.11.28-9.76-4.54-14-4.14s-4.28,6.68,1.23,8.61,14.63,2.88,14.63,2.88S83.35,194.08,75.85,194.58Z"/><path class="cls-4" d="M69.69,187c4,4.3,11.52,9.45,11.52,9.45s3.22-1.59,4.17-3.54a3.78,3.78,0,0,0-1.59-1c-7-2-12.25-7.2-15.65-10.89A6,6,0,0,0,69.69,187Z"/><path class="cls-28" d="M83.18,192.79c-9.71-2.82-16.1-11.69-18.76-14.25s-9.29,6.86-4.34,11.39,17,8.15,22.23,9.11S87,193.89,83.18,192.79Z"/><path class="cls-6" d="M65,180.36c2.67,2.56,9.06,11.42,18.77,14.25a4.09,4.09,0,0,1,2.32,1.83,4.13,4.13,0,0,0-2.91-3.65c-9.71-2.82-16.1-11.69-18.76-14.25-2.4-2.3-8,5.09-5.46,9.9C58.31,183.82,62.89,178.33,65,180.36Z"/><path class="cls-29" d="M77.18,210c-9.88,2.12-19.72-2.64-23.28-3.62S49,216.77,55.5,218.4s18.81-.89,23.88-2.54S81,209.12,77.18,210Z"/><path class="cls-6" d="M54.92,207.57c3.57,1,13.4,5.74,23.29,3.62a4.15,4.15,0,0,1,3.44.84A4.11,4.11,0,0,0,77.18,210c-9.88,2.12-19.72-2.64-23.28-3.62-3-.85-4.46,7.36-.75,10.79C50.79,213.28,52.21,206.81,54.92,207.57Z"/><path class="cls-8" d="M65.74,214.15c4.2.58,10.49-.74,15.79-2.33A4.12,4.12,0,0,0,77.18,210c-6,1.29-12,0-16.59-1.38C61.14,211.19,62.76,213.73,65.74,214.15Z"/><path class="cls-30" d="M87.18,202.66c-9.6,3.18-19.89-.49-23.53-1.09s-3.76,10.92,2.89,11.83,18.6-2.91,23.47-5.1S90.91,201.42,87.18,202.66Z"/><path class="cls-10" d="M79.74,197.25c-8.47,1-16.47-2.72-20.7-4.54-.65,2.12.56,5.11,4.08,6.34,5.52,1.93,14.63,2.88,14.63,2.88A11.75,11.75,0,0,0,79.74,197.25Z"/><path class="cls-31" d="M80,199c-10,1.44-19.49-4-23-5.2s-5.62,10.08.77,12.16,18.83.39,24-.91S83.92,198.4,80,199Z"/><path class="cls-12" d="M58.5,195.16c3.48,1.22,13,6.65,23,5.2a4.13,4.13,0,0,1,2.64.52A4.14,4.14,0,0,0,80,199c-10,1.44-19.49-4-23-5.2-3.2-1.13-5.25,8.33-.59,11.47C53.76,201.33,55.69,194.17,58.5,195.16Z"/><path class="cls-13" d="M79.38,215.86c2.92-1,3-3,1.85-4.47A72.19,72.19,0,0,0,90,208.3c4.87-2.19.9-6.88-2.83-5.64a24.48,24.48,0,0,1-2.87.7c1-2-1.39-4.82-4.27-4.4-.24,0-.48,0-.73,0,.07-.19.14-.38.2-.58,1,.26,2,.48,2.8.62,4.35.8,4.63-3.23,2.47-5.27,1.22-1.44,1.56-3.21-1.77-4.72-2.68-1.21-4.83-5.07-7.25-7.78a102.52,102.52,0,0,0-9.16,37.25A74.4,74.4,0,0,0,79.38,215.86Z"/><path class="cls-32" d="M240.7,245.76c2.75-9.54-133.47-78.76-143.64-79.65-20.63-1.79-35.68,68.29-19.71,74.31C97.34,247.94,238.77,252.48,240.7,245.76Z"/><path class="cls-15" d="M98.13,170.62c9.31.81,124.09,58.81,141.47,76,.63-.26,1-.54,1.1-.84,2.75-9.54-133.47-78.76-143.64-79.65-17.62-1.53-31.15,49.33-24.78,68C69,212.88,81.79,169.2,98.13,170.62Z"/><path class="cls-16" d="M100.32,190c24.43,1.07,111,37.63,139.42,56.59.54-.24.88-.5,1-.78,2.75-9.54-133.47-78.76-143.64-79.65C78.84,164.53,65,219,73,235.88,72.88,215.58,83,189.2,100.32,190Z"/><path class="cls-33" d="M231.87,244.61c1.06-.4-137.34-26.94-144.18-28.18S75.7,236.91,86.3,238,225.2,247.11,231.87,244.61Z"/><path class="cls-18" d="M100.08,173.86a29.72,29.72,0,0,0-8.55,13.59,40.66,40.66,0,0,0-1.19,16.68A84.67,84.67,0,0,1,100.08,173.86Z"/><path class="cls-34" d="M100.55,174.54a111.41,111.41,0,0,0-5.92,14,45.55,45.55,0,0,0-2.9,16Z"/><path class="cls-18" d="M107.48,208.15a22.93,22.93,0,0,0-5.3,11.22,31.58,31.58,0,0,0,.63,12.92A65.51,65.51,0,0,1,107.48,208.15Z"/><path class="cls-35" d="M107.9,208.62a86.64,86.64,0,0,0-3.24,11.31,35.31,35.31,0,0,0-.75,12.53Z"/><path class="cls-18" d="M144.59,193.81a23,23,0,0,0-7,10.27,31.43,31.43,0,0,0-1.37,12.86A65.39,65.39,0,0,1,144.59,193.81Z"/><path class="cls-36" d="M144.93,194.35A86,86,0,0,0,140,205a35.37,35.37,0,0,0-2.67,12.27Z"/><path class="cls-18" d="M171.93,225.7a13.09,13.09,0,0,0-5.08,7.4,16.6,16.6,0,0,0,.82,9.12A31.84,31.84,0,0,1,171.93,225.7Z"/><path class="cls-37" d="M172.35,226.07a43.39,43.39,0,0,0-3,7.64,17.48,17.48,0,0,0-.54,8.73Z"/><path class="cls-18" d="M209.6,224.76s-4.07,1.7-5.27,5.48a11.88,11.88,0,0,0,.49,7.59A21.37,21.37,0,0,1,209.6,224.76Z"/><path class="cls-38" d="M210,225.11a29.64,29.64,0,0,0-3.26,5.92,12,12,0,0,0-.84,7.11Z"/><path class="cls-18" d="M171.49,207.24a7.9,7.9,0,0,0-3.2,4.11,10.18,10.18,0,0,0-.06,5.33A19.87,19.87,0,0,1,171.49,207.24Z"/><path class="cls-39" d="M171.7,207.47a27.13,27.13,0,0,0-2.09,4.33,10.86,10.86,0,0,0-.79,5Z"/><path class="cls-18" d="M126.34,228.24a7.91,7.91,0,0,0-2.54,4.55,10.15,10.15,0,0,0,.75,5.28A19.89,19.89,0,0,1,126.34,228.24Z"/><path class="cls-40" d="M126.58,228.44a26.94,26.94,0,0,0-1.41,4.59,10.82,10.82,0,0,0,0,5.12Z"/></g></g></svg>