<svg id="Layer_45" data-name="Layer 45" xmlns="http://www.w3.org/2000/svg" viewBox="0 0 370 330"><defs><style>.cls-1{fill:#7d8e3f;}.cls-1,.cls-10,.cls-11,.cls-2,.cls-3,.cls-4,.cls-5,.cls-6,.cls-7,.cls-8,.cls-9{fill-rule:evenodd;}.cls-2{fill:#737e3d;}.cls-3{fill:#fbae49;}.cls-4{fill:#726835;}.cls-5{fill:#f15f22;}.cls-6{fill:#fbb03b;}.cls-7{fill:#f6cd2b;}.cls-8{fill:#e78625;}.cls-9{fill:#2e2113;}.cls-10{fill:#231f20;}.cls-11{fill:#fff;}</style></defs><path class="cls-1" d="M29.75,174.21s-7.4,20.14,11.2,21.67c12.35,1,30.57,21.34,45.67,36.32,41.13,40.77,117.51,45.53,164.09-3.61,11.83-12.48,15.2-10.81,17-17.94a3.63,3.63,0,0,0,.08-.73c-1.51,4.06-5.21,3.51-15.13,11.85-42.49,35.78-118.12,28.29-161.52-5.35-16-12.34-35.36-29-47.59-30.4-11.78-1.35-13.62-8.05-13.41-12.69l-.38.91Zm238.33,33.6a4.06,4.06,0,0,0,.85-1.35l-.43-.08a4.3,4.3,0,0,1-.76.59A3.79,3.79,0,0,1,268.08,207.81Z"/><path class="cls-2" d="M29.5,189c1.56,3.48,4.88,6.34,11.45,6.87,12.35,1,30.57,21.34,45.67,36.32,39.66,39.31,112.16,45.14,159.06,1.37-40,30.83-99.37,25.67-138.62,1.94-18.8-11.35-33.36-28.21-48.89-39-8.31-5.75-14.68-5.36-22.89-6.14a20.41,20.41,0,0,1-5.76-1.4Z"/><path class="cls-3" d="M53.91,165.81s-9.43-1.82-13.38.89-5,8.21-5.29,10.06,3.48,0,5.66-4,6.25-5.06,11.21-5.58S53.91,165.81,53.91,165.81Z"/><path class="cls-4" d="M34.28,169.54A24.12,24.12,0,0,0,24.84,168c-6.9.15.79-1.66-.12-4.85s.44-3,6.75-2.16c1.69.2,3.45.45,5.11.71l-.78,4.51Z"/><path class="cls-2" d="M30.81,169.28l-.37-.05a26.76,26.76,0,0,0-5.67-.47c-2.79.07-3.68-.34-3.63-1.16,0-.57.54-1,1.16-1.53.8-.69,1.93-1.65,1.65-2.65-.57-2-.38-3,1-3.48,1.1-.37,3-.14,6.17.26l.41.05c.79.09,1.61.2,2.44.31l.49.07,0,.27-.5,1.15-.25,0-2.42-.31-.41,0c-2.95-.35-4.72-.58-5.46-.33-.29.09-.25.57,0,1.58.56,1.93-1,3.26-2.17,4.22a2.24,2.24,0,0,1-.6.4,7.3,7.3,0,0,1,2.18-.29,27.23,27.23,0,0,1,6,.5l.47.1-.35.79A5.33,5.33,0,0,0,30.81,169.28Z"/><path class="cls-5" d="M31,168.66S25.09,183.93,43.56,186c12.22,1.4,31.63,18.06,47.55,30.42,43.39,33.64,119,41.13,161.53,5.35,10.79-9.07,14.24-7.63,15.49-13a2.49,2.49,0,0,0-.36-1.79,3.11,3.11,0,0,0,1.35-1.45c2-5.28-1.88-5.28-6.2-17.34-17-47.53-88.34-69.09-146.22-55.42-21.24,5-48,12.56-59.68,9.23-17.56-5-21.13,10.72-21.13,10.72l-1.4,8.19Z"/><path class="cls-6" d="M31,168.66s-4.53,11.69,6.69,16h0A24.43,24.43,0,0,0,43.56,186c12.23,1.4,31.64,18.06,47.56,30.41,43.39,33.65,119,41.14,161.52,5.36,10.79-9.07,14.24-7.63,15.49-13.05a2.47,2.47,0,0,0-.35-1.79,3.16,3.16,0,0,0,1.34-1.46c2-5.28-1.88-5.27-6.19-17.33-17-47.54-88.35-69.09-146.23-55.42-21.24,5-48,12.55-59.67,9.23-4.63-1.3-8.25-1.2-11.12-.31h0c-8.08,2.47-10,11-10,11l-1.4,8.19ZM39.62,182a13.14,13.14,0,0,1-2.14-10.59c1.45-6.14,6.84-8.18,14.13-6.25s15.24,4.34,38,17.24,65.38,33.59,92.84,31,43.27-27.93,18-41.22-62.2-16.43-81.08-15.18-63,6.8-69.72,2.27c-5.47-3.72-6.37-10.63-.62-16.76,2.57.67,5.9,1.45,10.11,2.32,12.82,2.65,33.83-3.33,41.51-5.2s25.93-8.24,54.44-8.57,52.44,9.69,65,14.73,31.79,22.74,35.62,33.89S262,193.64,264.8,199s-1.32,7.23-1.32,7.23,1.66-.5.82,2.55-.14.09-12.84,9.06S225,238.38,188.15,242.12s-71.28-12.89-85.54-21.51S75,199.64,65,191.49,39.62,182,39.62,182Z"/><path class="cls-7" d="M42.2,165.37s4.88-6.61,28.37,4.94c12.87,6.35,26.3,15.86,46.41,25,19.91,9,46.52,17.65,62.32,16.87,16.72-.83,27.29-8.38,30.52-16.62s1.34-20.43-23.59-28.09-44.2-9.63-51-9.65-56.65,3.85-60.57,4-17,.68-22.5-.92c-4-1.17-5.62-3.18-6.29-6.1a10.33,10.33,0,0,0,3.83,4.52c6.68,4.54,50.81-1,69.73-2.26s55.84,1.91,81.09,15.2,9.44,38.6-18,41.22-70.07-18.07-92.84-31-30.73-15.33-38-17.26c-3.73-1-7-.93-9.43.17Z"/><path class="cls-2" d="M30.87,173.42c-.15,4.47,1.68,10.77,12.79,12,10.78,1.24,26.69,13.79,41.12,25.19L91.67,216c1.89,1.46,3.83,2.87,5.81,4.2,21.09,14.34,48.37,23,75.49,24.35s54-4.67,74.51-19.61q2.39-1.74,4.6-3.6a70.87,70.87,0,0,1,10.31-7.3c3-1.77,4.33-2.58,5-5.48a1.9,1.9,0,0,0,0-.41l-.14-.62a2.86,2.86,0,0,0-.21-.43l-.25-.38.42-.28a3.55,3.55,0,0,0,.71-.57,1.84,1.84,0,0,0,.4-.61c1.08-2.82.34-4-1.26-6.72a51.4,51.4,0,0,1-4.93-10.31c-.6-1.66-1.26-3.3-2-4.91-9.49-20.88-29.92-36.22-54.71-45.13a161,161,0,0,0-80.92-6.57c-2.54.47-5.08,1-7.6,1.58-3.12.74-6.14,1.48-9.21,2.23-19.35,4.74-40.71,9.92-51,7-16.72-4.76-20.12,10.26-20.14,10.3L35.22,161a71.62,71.62,0,0,0-3.12,7.15c-.68,2-.56,3.62-1.23,5.25Zm-1.18,3.67c1,4.12,4.4,8.39,13.77,9.45,10.24,1.18,26,13.58,40.25,24.81,2.38,1.88,4.76,3.76,6.89,5.42,1.9,1.46,3.88,2.9,5.91,4.28,21.34,14.52,49,23.29,76.44,24.64s54.85-4.72,75.61-19.9c1.59-1.17,3.15-2.38,4.68-3.67a70.53,70.53,0,0,1,10.13-7.18c1-.59,1.81-1.07,2.54-1.6-1,1.79-2.34,2.86-4.51,4.57a90.48,90.48,0,0,0-11.27,10.23c-1.62,1.72-3.3,3.38-5,5-22.21,20.72-50.22,30.23-77.71,30.27-28-.06-54.4-9.45-74.69-26.62-1.9-1.62-3.76-3.32-5.55-5.1-2.21-2.19-4.34-4.35-6.52-6.55-13.63-13.84-28.71-29.06-39.56-30C27.54,194,28.49,182.48,29.69,177.09ZM269.34,206.5c.44.13.4.38-.34,1.38l-.11.07a2.48,2.48,0,0,1,0,.9,11.77,11.77,0,0,1-.33,1.16,3.69,3.69,0,0,1-.12.74c-1.08,4.35-2.68,5.61-6.19,8.34a90.32,90.32,0,0,0-11,10q-2.5,2.64-5.09,5.06c-22.56,21-51,30.7-78.86,30.72-28.37-.06-55.07-9.57-75.62-26.94-1.94-1.67-3.82-3.39-5.62-5.17-2-2-4.26-4.27-6.53-6.56C66,212.5,51.13,197.46,40.78,196.57,21.31,195,29,174.09,29.05,174.06l.34-.82a16.46,16.46,0,0,1,.92-4.72l3.46-7.76,1.4-8.16s3.71-16.36,22.09-11.15c9.75,2.75,30.83-2.36,49.95-7,3.24-.8,6.39-1.56,9.24-2.23q3.8-.88,7.7-1.65a162.79,162.79,0,0,1,81.95,6.64c25.12,9,45.89,24.61,55.53,45.81.74,1.62,1.41,3.28,2,5a51,51,0,0,0,4.84,10.14c1.76,2.93,2.58,4.28,1.34,7.5A2.6,2.6,0,0,1,269.34,206.5Z"/><path class="cls-8" d="M77.74,167.44c36.09-1.56,49.3-2.62,69.85,1.51,8.44,1.69,16.94.77,30.6,6.52,43.26,18.22,8.67,36.71-15.44,28.54C137.61,195.5,107.83,180.38,77.74,167.44Z"/><path class="cls-9" d="M182.68,190.17c.36-1.49,2.26-2.45,4.25-2.14s3.33,1.79,3,3.29-2.26,2.45-4.25,2.13S182.33,191.66,182.68,190.17Z"/><path class="cls-10" d="M182.43,190.13a2.93,2.93,0,0,1,1.62-1.86,4.82,4.82,0,0,1,2.93-.41,4.34,4.34,0,0,1,2.53,1.28,2.44,2.44,0,0,1,.65,2.21,2.9,2.9,0,0,1-1.62,1.87,4.84,4.84,0,0,1-5.45-.86,2.45,2.45,0,0,1-.66-2.23Zm1.9-1.55a2.5,2.5,0,0,0-1.42,1.64,2.08,2.08,0,0,0,.56,1.93,4.2,4.2,0,0,0,4.77.77,2.57,2.57,0,0,0,1.42-1.64,2.09,2.09,0,0,0-.56-1.93,4.21,4.21,0,0,0-4.76-.76Z"/><path class="cls-11" d="M183.49,189.85a2.33,2.33,0,0,1,1.35-1.19c1-.29,1.59,0,1.58.19s-.68.05-1.33.24a1.93,1.93,0,0,0-1,.63C183.74,190.37,183.5,190.17,183.49,189.85Z"/><path class="cls-9" d="M178.17,182.42c.29-1.34,2-2.15,3.72-1.87s2.89,1.54,2.6,2.88-2,2.13-3.72,1.86S177.84,183.7,178.17,182.42Z"/><path class="cls-10" d="M177.93,182.36a2.51,2.51,0,0,1,1.43-1.64,4.15,4.15,0,0,1,2.56-.36,3.69,3.69,0,0,1,2.22,1.11,2.17,2.17,0,0,1,.56,1.93,2.57,2.57,0,0,1-1.43,1.63,4.27,4.27,0,0,1-2.57.36,3.68,3.68,0,0,1-2.2-1.12,2.12,2.12,0,0,1-.56-1.93Zm1.63-1.34a2.2,2.2,0,0,0-1.23,1.42,1.82,1.82,0,0,0,.49,1.7,3.32,3.32,0,0,0,1.93,1,3.71,3.71,0,0,0,2.28-.35,2.24,2.24,0,0,0,1.23-1.43,1.8,1.8,0,0,0-.49-1.69,3.27,3.27,0,0,0-1.93-1,3.68,3.68,0,0,0-2.25.34Z"/><path class="cls-11" d="M178.85,182.11a2.13,2.13,0,0,1,1.2-1.06c.84-.24,1.38,0,1.36.17s-.59.06-1.12.2a1.73,1.73,0,0,0-.87.58C179.12,182.54,178.86,182.38,178.85,182.11Z"/><path class="cls-9" d="M171.71,192.52c.34-1.38,2.09-2.27,3.94-2s3.09,1.65,2.76,3-2.1,2.28-3.95,2S171.38,193.91,171.71,192.52Z"/><path class="cls-10" d="M171.48,192.48a2.7,2.7,0,0,1,1.5-1.72,4.57,4.57,0,0,1,2.71-.39,4.06,4.06,0,0,1,2.34,1.19,2.27,2.27,0,0,1,.61,2.06,2.73,2.73,0,0,1-1.51,1.73,4.56,4.56,0,0,1-2.71.38,4,4,0,0,1-2.34-1.18,2.29,2.29,0,0,1-.6-2.07Zm1.76-1.43a2.31,2.31,0,0,0-1.31,1.51,2,2,0,0,0,.53,1.8,3.58,3.58,0,0,0,2,1,4,4,0,0,0,2.38-.34,2.45,2.45,0,0,0,1.31-1.51,2,2,0,0,0-.53-1.8,3.52,3.52,0,0,0-2-1A3.91,3.91,0,0,0,173.24,191.05Z"/><path class="cls-11" d="M172.43,192.24a2.19,2.19,0,0,1,1.26-1.11c.9-.26,1.46,0,1.46.18s-.63.07-1.22.24a1.8,1.8,0,0,0-.88.58C172.72,192.69,172.47,192.51,172.43,192.24Z"/><path class="cls-9" d="M176.49,188.62c.25-1.09,1.65-1.79,3.11-1.56s2.44,1.31,2.18,2.4a2.65,2.65,0,0,1-3.11,1.57C177.21,190.79,176.22,189.72,176.49,188.62Z"/><path class="cls-10" d="M176.3,188.6a2.17,2.17,0,0,1,1.18-1.37,3.54,3.54,0,0,1,4,.64,1.81,1.81,0,0,1,.47,1.63,2.17,2.17,0,0,1-1.18,1.37,3.68,3.68,0,0,1-2.16.28,3.27,3.27,0,0,1-1.87-.93,1.79,1.79,0,0,1-.47-1.63Zm1.39-1.14a1.93,1.93,0,0,0-1,1.2,1.59,1.59,0,0,0,.42,1.42,2.75,2.75,0,0,0,1.61.82,3.11,3.11,0,0,0,1.89-.27,1.9,1.9,0,0,0,1-1.19,1.57,1.57,0,0,0-.42-1.42,2.67,2.67,0,0,0-1.61-.82,3.12,3.12,0,0,0-1.87.26Z"/><path class="cls-11" d="M177.07,188.39a1.71,1.71,0,0,1,1-.87c.7-.21,1.15,0,1.14.13s-.49,0-1,.19a1.25,1.25,0,0,0-.69.46C177.3,188.75,177.09,188.62,177.07,188.39Z"/><path class="cls-9" d="M180.31,198.62a2.64,2.64,0,0,1,3.1-1.56c1.46.24,2.44,1.31,2.18,2.41s-1.64,1.78-3.1,1.55S180.05,199.71,180.31,198.62Z"/><path class="cls-10" d="M180.13,198.6a2.14,2.14,0,0,1,1.18-1.37,3.6,3.6,0,0,1,2.16-.27,3.2,3.2,0,0,1,1.86.92,1.83,1.83,0,0,1,.47,1.62,2.17,2.17,0,0,1-1.18,1.37,3.6,3.6,0,0,1-2.16.27,3.2,3.2,0,0,1-1.86-.92A1.77,1.77,0,0,1,180.13,198.6Zm1.38-1.14a1.85,1.85,0,0,0-1,1.19,1.59,1.59,0,0,0,.41,1.42,2.8,2.8,0,0,0,1.62.82,3.12,3.12,0,0,0,1.87-.27,1.82,1.82,0,0,0,1-1.19A1.59,1.59,0,0,0,185,198a2.76,2.76,0,0,0-1.61-.81A3.15,3.15,0,0,0,181.51,197.46Z"/><path class="cls-11" d="M180.89,198.38a1.77,1.77,0,0,1,1-.86c.7-.21,1.17,0,1.15.14s-.5,0-1,.17a1.46,1.46,0,0,0-.7.47C181.11,198.75,180.91,198.61,180.89,198.38Z"/><path class="cls-9" d="M183.86,204.49c.26-1.09,1.66-1.79,3.11-1.56s2.44,1.31,2.18,2.4-1.65,1.79-3.11,1.56S183.61,205.58,183.86,204.49Z"/><path class="cls-10" d="M183.7,204.46a2.11,2.11,0,0,1,1.17-1.36,3.49,3.49,0,0,1,2.15-.27,3,3,0,0,1,1.86.92,1.77,1.77,0,0,1,.47,1.62,2.08,2.08,0,0,1-1.17,1.36A3.42,3.42,0,0,1,186,207a3.13,3.13,0,0,1-1.87-.91A1.82,1.82,0,0,1,183.7,204.46Zm1.38-1.13a1.8,1.8,0,0,0-1,1.19,1.54,1.54,0,0,0,.41,1.42,3.11,3.11,0,0,0,3.49.55,1.83,1.83,0,0,0,1-1.19,1.54,1.54,0,0,0-.41-1.42,2.81,2.81,0,0,0-1.61-.82A3.2,3.2,0,0,0,185.08,203.33Z"/><path class="cls-11" d="M184.45,204.26a1.77,1.77,0,0,1,1-.88c.71-.21,1.16,0,1.15.14s-.5,0-1,.18a1.35,1.35,0,0,0-.7.47C184.68,204.62,184.46,204.49,184.45,204.26Z"/><path class="cls-9" d="M183,199.61c.26-1.09,1.66-1.79,3.11-1.56s2.44,1.31,2.17,2.41a2.64,2.64,0,0,1-3.1,1.56C183.73,201.78,182.76,200.71,183,199.61Z"/><path class="cls-10" d="M182.84,199.59a2.1,2.1,0,0,1,1.18-1.36,3.49,3.49,0,0,1,2.15-.28,3.17,3.17,0,0,1,1.86.92,1.83,1.83,0,0,1,.48,1.63,2.22,2.22,0,0,1-1.19,1.36,3.49,3.49,0,0,1-2.15.27,3.08,3.08,0,0,1-1.86-.91,1.79,1.79,0,0,1-.47-1.63Zm1.38-1.13a1.85,1.85,0,0,0-1,1.19,1.54,1.54,0,0,0,.42,1.41,3.06,3.06,0,0,0,3.48.56,1.85,1.85,0,0,0,1-1.19,1.58,1.58,0,0,0-.41-1.42,2.8,2.8,0,0,0-1.62-.82A3.12,3.12,0,0,0,184.22,198.46Z"/><path class="cls-11" d="M183.6,199.39a1.75,1.75,0,0,1,1-.88c.71-.21,1.17,0,1.15.14s-.5,0-1,.18a1.37,1.37,0,0,0-.71.47C183.82,199.75,183.59,199.63,183.6,199.39Z"/><path class="cls-9" d="M189.73,186.92c.26-1.09,1.65-1.79,3.11-1.56s2.43,1.31,2.17,2.4-1.65,1.79-3.11,1.56S189.47,188,189.73,186.92Z"/><path class="cls-10" d="M189.55,186.89a2.11,2.11,0,0,1,1.18-1.35,3.53,3.53,0,0,1,2.16-.28,3.29,3.29,0,0,1,1.87.92,1.84,1.84,0,0,1,.47,1.62,2.12,2.12,0,0,1-1.18,1.37,3.53,3.53,0,0,1-2.16.28,3.2,3.2,0,0,1-1.86-.92,1.83,1.83,0,0,1-.47-1.63Zm1.39-1.13a1.85,1.85,0,0,0-1,1.19,1.56,1.56,0,0,0,.41,1.42,2.83,2.83,0,0,0,1.62.82,3.13,3.13,0,0,0,1.87-.27,1.86,1.86,0,0,0,1-1.19,1.52,1.52,0,0,0-.41-1.41,3.06,3.06,0,0,0-3.48-.56Z"/><path class="cls-11" d="M190.32,186.68a1.71,1.71,0,0,1,1-.86c.7-.22,1.15,0,1.14.13s-.5.05-1,.18a1.37,1.37,0,0,0-.71.47C190.54,187.05,190.32,186.92,190.32,186.68Z"/><path class="cls-9" d="M183.51,194.14c.3-1.28,1.93-2.1,3.64-1.82s2.87,1.55,2.55,2.81-1.93,2.09-3.64,1.83S183.2,195.42,183.51,194.14Z"/><path class="cls-10" d="M183.3,194.11a2.52,2.52,0,0,1,1.38-1.6,4.17,4.17,0,0,1,4.68.75,2.1,2.1,0,0,1,.57,1.92,2.51,2.51,0,0,1-1.39,1.6,4.2,4.2,0,0,1-2.51.36,3.65,3.65,0,0,1-2.16-1.11,2.1,2.1,0,0,1-.57-1.92Zm1.63-1.34a2.24,2.24,0,0,0-1.21,1.4,1.85,1.85,0,0,0,.49,1.67,3.28,3.28,0,0,0,1.89,1,3.56,3.56,0,0,0,2.19-.31,2.08,2.08,0,0,0,1.2-1.39,1.79,1.79,0,0,0-.47-1.66,3.22,3.22,0,0,0-1.89-1,3.69,3.69,0,0,0-2.21.3Z"/><path class="cls-11" d="M184.2,193.87a2,2,0,0,1,1.16-1c.82-.24,1.36,0,1.37.16s-.6.06-1.13.2a1.62,1.62,0,0,0-.82.54C184.45,194.29,184.21,194.13,184.2,193.87Z"/><path class="cls-9" d="M186.82,184.1c.25-1.09,1.64-1.79,3.1-1.56s2.43,1.31,2.18,2.4-1.65,1.79-3.11,1.56S186.58,185.17,186.82,184.1Z"/><path class="cls-10" d="M186.63,184.07a2.25,2.25,0,0,1,1.19-1.36,3.5,3.5,0,0,1,2.15-.27,3.14,3.14,0,0,1,1.87.92,1.83,1.83,0,0,1,.47,1.62,2.11,2.11,0,0,1-1.19,1.36,3.49,3.49,0,0,1-2.15.28,3.17,3.17,0,0,1-1.86-.92,1.83,1.83,0,0,1-.48-1.63Zm1.39-1.13a1.85,1.85,0,0,0-1,1.19,1.59,1.59,0,0,0,.41,1.42,2.83,2.83,0,0,0,1.62.82,3.2,3.2,0,0,0,1.87-.27,1.82,1.82,0,0,0,1-1.19,1.54,1.54,0,0,0-.42-1.41,3.06,3.06,0,0,0-3.48-.56Z"/><path class="cls-11" d="M187.4,183.86a1.71,1.71,0,0,1,1-.86c.7-.21,1.15,0,1.14.14s-.5,0-1,.17a1.37,1.37,0,0,0-.71.47C187.62,184.23,187.42,184.09,187.4,183.86Z"/><path class="cls-9" d="M179.16,193.84c.26-1.09,1.65-1.79,3.11-1.56s2.43,1.3,2.17,2.39-1.65,1.79-3.11,1.56S178.9,194.93,179.16,193.84Z"/><path class="cls-10" d="M179,193.8a2.11,2.11,0,0,1,1.18-1.35,3.53,3.53,0,0,1,2.16-.27,3.12,3.12,0,0,1,1.86.92,1.79,1.79,0,0,1,.47,1.63,2.11,2.11,0,0,1-1.17,1.36,3.55,3.55,0,0,1-4-.64,1.82,1.82,0,0,1-.48-1.63Zm1.38-1.12a1.87,1.87,0,0,0-1,1.18,1.55,1.55,0,0,0,.41,1.43,2.81,2.81,0,0,0,1.61.82,3.2,3.2,0,0,0,1.87-.27,1.85,1.85,0,0,0,1-1.19,1.54,1.54,0,0,0-.41-1.42,2.65,2.65,0,0,0-1.62-.81A3,3,0,0,0,180.36,192.68Z"/><path class="cls-11" d="M179.74,193.6a1.74,1.74,0,0,1,1-.87c.7-.21,1.15,0,1.14.13s-.5.06-1,.19a1.37,1.37,0,0,0-.7.46C180,194,179.76,193.83,179.74,193.6Z"/><path class="cls-9" d="M165.62,189.12c.36-1.49,2.26-2.45,4.26-2.14s3.33,1.79,3,3.29-2.26,2.45-4.26,2.13S165.27,190.62,165.62,189.12Z"/><path class="cls-10" d="M165.38,189.08a2.9,2.9,0,0,1,1.62-1.86,4.87,4.87,0,0,1,2.92-.42,4.28,4.28,0,0,1,2.53,1.28,2.45,2.45,0,0,1,.64,2.23,2.87,2.87,0,0,1-1.6,1.86,4.86,4.86,0,0,1-5.46-.87,2.42,2.42,0,0,1-.65-2.22Zm1.9-1.55a2.51,2.51,0,0,0-1.43,1.64,2.15,2.15,0,0,0,.56,1.94,3.75,3.75,0,0,0,2.22,1.11,4.16,4.16,0,0,0,2.56-.36,2.52,2.52,0,0,0,1.42-1.64,2.12,2.12,0,0,0-.56-1.93,3.72,3.72,0,0,0-2.2-1.11,4.18,4.18,0,0,0-2.57.35Z"/><path class="cls-11" d="M166.4,188.82a2.39,2.39,0,0,1,1.37-1.2c1-.28,1.59,0,1.57.19s-.69.06-1.32.24a1.85,1.85,0,0,0-1,.64C166.72,189.3,166.44,189.11,166.4,188.82Z"/><path class="cls-9" d="M161.09,181.34c.29-1.34,2-2.15,3.77-1.9s2.89,1.53,2.6,2.87-2,2.14-3.72,1.86S160.79,182.64,161.09,181.34Z"/><path class="cls-10" d="M160.88,181.3a2.53,2.53,0,0,1,1.43-1.64,4.22,4.22,0,0,1,2.56-.36,3.75,3.75,0,0,1,2.21,1.11,2.17,2.17,0,0,1,.55,1.94A2.52,2.52,0,0,1,166.2,184a4.22,4.22,0,0,1-2.56.36,3.71,3.71,0,0,1-2.18-1.1,2.1,2.1,0,0,1-.56-1.93Zm1.63-1.33a2.21,2.21,0,0,0-1.24,1.42,1.9,1.9,0,0,0,.49,1.7,3.35,3.35,0,0,0,1.93,1,3.64,3.64,0,0,0,2.28-.35,2.22,2.22,0,0,0,1.23-1.42,1.81,1.81,0,0,0-.49-1.7,3.23,3.23,0,0,0-1.94-1,3.69,3.69,0,0,0-2.23.32Z"/><path class="cls-11" d="M161.8,181.06A2.06,2.06,0,0,1,163,180c.84-.25,1.39,0,1.36.16s-.6.07-1.12.2a1.73,1.73,0,0,0-.87.58C162.06,181.49,161.81,181.32,161.8,181.06Z"/><path class="cls-9" d="M154.65,191.47c.34-1.38,2.1-2.27,3.95-2s3.08,1.66,2.75,3-2.09,2.26-3.94,2S154.32,192.86,154.65,191.47Z"/><path class="cls-10" d="M154.42,191.44a2.71,2.71,0,0,1,1.5-1.73,4.51,4.51,0,0,1,2.72-.39,4,4,0,0,1,2.34,1.19,2.27,2.27,0,0,1,.6,2.06,2.71,2.71,0,0,1-1.5,1.73,4.56,4.56,0,0,1-2.71.38A4,4,0,0,1,155,193.5a2.29,2.29,0,0,1-.61-2.06Zm1.76-1.44a2.32,2.32,0,0,0-1.31,1.51,2,2,0,0,0,.53,1.8,3.52,3.52,0,0,0,2,1,4.06,4.06,0,0,0,2.37-.34,2.39,2.39,0,0,0,1.31-1.51,2,2,0,0,0-.53-1.8,3.52,3.52,0,0,0-2-1,3.93,3.93,0,0,0-2.35.38Z"/><path class="cls-11" d="M155.4,191.17a2.19,2.19,0,0,1,1.26-1.11c.89-.25,1.47,0,1.46.19s-.63.06-1.23.23a1.73,1.73,0,0,0-.87.58C155.7,191.62,155.41,191.46,155.4,191.17Z"/><path class="cls-9" d="M159.44,187.57c.25-1.1,1.65-1.79,3.11-1.56s2.44,1.3,2.17,2.4-1.65,1.79-3.11,1.56S159.17,188.67,159.44,187.57Z"/><path class="cls-10" d="M159.27,187.53a2.17,2.17,0,0,1,1.18-1.37,3.71,3.71,0,0,1,2.17-.28,3.28,3.28,0,0,1,1.86.93,1.79,1.79,0,0,1,.48,1.63,2.17,2.17,0,0,1-1.18,1.37,3.71,3.71,0,0,1-2.17.28,3.28,3.28,0,0,1-1.86-.93A1.82,1.82,0,0,1,159.27,187.53Zm1.39-1.13a1.89,1.89,0,0,0-1,1.19A1.59,1.59,0,0,0,160,189a2.78,2.78,0,0,0,1.62.82,3.12,3.12,0,0,0,1.87-.26,1.9,1.9,0,0,0,1-1.2,1.59,1.59,0,0,0-.41-1.42,2.78,2.78,0,0,0-1.62-.82,3.15,3.15,0,0,0-1.9.28Z"/><path class="cls-11" d="M160,187.33a1.78,1.78,0,0,1,1-.87c.7-.21,1.15,0,1.14.13s-.5,0-1,.19a1.37,1.37,0,0,0-.71.47C160.24,187.71,160,187.57,160,187.33Z"/><path class="cls-9" d="M163.25,197.57a2.66,2.66,0,0,1,3.11-1.56c1.46.23,2.43,1.31,2.18,2.4s-1.66,1.79-3.11,1.56S163,198.66,163.25,197.57Z"/><path class="cls-10" d="M163.07,197.54a2.21,2.21,0,0,1,1.18-1.36,3.53,3.53,0,0,1,2.16-.28,3.2,3.2,0,0,1,1.87.92,1.84,1.84,0,0,1,.47,1.62,2.12,2.12,0,0,1-1.18,1.37,3.53,3.53,0,0,1-2.16.28,3.17,3.17,0,0,1-1.86-.92,1.83,1.83,0,0,1-.48-1.63Zm1.39-1.14a1.89,1.89,0,0,0-1,1.2,1.59,1.59,0,0,0,.41,1.42,2.83,2.83,0,0,0,1.62.82,3.2,3.2,0,0,0,1.87-.27,1.85,1.85,0,0,0,1-1.19,1.57,1.57,0,0,0-.42-1.42,2.87,2.87,0,0,0-1.61-.82A3.12,3.12,0,0,0,164.46,196.4Z"/><path class="cls-11" d="M163.84,197.33a1.76,1.76,0,0,1,1-.87c.7-.21,1.15,0,1.14.14s-.49.05-1,.18a1.37,1.37,0,0,0-.71.47C164.06,197.7,163.86,197.56,163.84,197.33Z"/><path class="cls-9" d="M166.81,203.44a2.64,2.64,0,0,1,3.11-1.56c1.46.23,2.44,1.31,2.18,2.4s-1.65,1.79-3.11,1.56S166.55,204.53,166.81,203.44Z"/><path class="cls-10" d="M166.63,203.42a2.12,2.12,0,0,1,1.18-1.37,3.46,3.46,0,0,1,2.16-.27,3.11,3.11,0,0,1,1.86.91,1.82,1.82,0,0,1,.47,1.63,2.13,2.13,0,0,1-1.17,1.36A3.53,3.53,0,0,1,169,206a3.2,3.2,0,0,1-1.87-.92,1.8,1.8,0,0,1-.47-1.62Zm1.39-1.14a1.85,1.85,0,0,0-1,1.19,1.54,1.54,0,0,0,.41,1.41,3.09,3.09,0,0,0,3.49.57,1.89,1.89,0,0,0,1-1.2,1.59,1.59,0,0,0-.41-1.42,2.87,2.87,0,0,0-1.62-.82A3.12,3.12,0,0,0,168,202.28Z"/><path class="cls-11" d="M167.4,203.21a1.74,1.74,0,0,1,1-.88c.69-.21,1.16,0,1.15.14s-.51.05-1,.18a1.35,1.35,0,0,0-.7.46C167.62,203.57,167.41,203.43,167.4,203.21Z"/><path class="cls-9" d="M166,198.55c.26-1.1,1.64-1.79,3.1-1.56s2.44,1.31,2.18,2.4-1.65,1.79-3.11,1.56S165.69,199.66,166,198.55Z"/><path class="cls-10" d="M165.78,198.54a2.17,2.17,0,0,1,1.18-1.37,3.6,3.6,0,0,1,2.16-.27,3.2,3.2,0,0,1,1.86.92,1.82,1.82,0,0,1,.48,1.63,2.25,2.25,0,0,1-1.19,1.36,3.5,3.5,0,0,1-2.15.27,3.2,3.2,0,0,1-1.87-.92,1.83,1.83,0,0,1-.47-1.62Zm1.39-1.13a1.84,1.84,0,0,0-1,1.19,1.55,1.55,0,0,0,.42,1.41,2.75,2.75,0,0,0,1.61.82,3.16,3.16,0,0,0,1.88-.26,1.86,1.86,0,0,0,1-1.2,1.57,1.57,0,0,0-.42-1.41,2.75,2.75,0,0,0-1.61-.82,3.12,3.12,0,0,0-1.87.27Z"/><path class="cls-11" d="M166.55,198.33a1.77,1.77,0,0,1,1-.87c.7-.21,1.16,0,1.15.14s-.5,0-1,.17a1.44,1.44,0,0,0-.71.47C166.77,198.7,166.56,198.56,166.55,198.33Z"/><path class="cls-9" d="M172.67,185.87c.26-1.09,1.66-1.79,3.11-1.56s2.43,1.3,2.18,2.4-1.66,1.78-3.11,1.55S172.42,187,172.67,185.87Z"/><path class="cls-10" d="M172.5,185.84a2.13,2.13,0,0,1,1.18-1.36,3.49,3.49,0,0,1,2.15-.27,3,3,0,0,1,1.86.92,1.77,1.77,0,0,1,.47,1.62,2.08,2.08,0,0,1-1.17,1.36,3.42,3.42,0,0,1-2.15.27,3.09,3.09,0,0,1-1.87-.92,1.8,1.8,0,0,1-.47-1.62Zm1.38-1.14a1.82,1.82,0,0,0-1,1.2,1.54,1.54,0,0,0,.41,1.42,2.76,2.76,0,0,0,1.61.81,3,3,0,0,0,1.87-.27,1.81,1.81,0,0,0,1-1.18,1.54,1.54,0,0,0-.41-1.42,3.09,3.09,0,0,0-3.49-.56Z"/><path class="cls-11" d="M173.27,185.66a1.74,1.74,0,0,1,1-.87c.7-.22,1.15,0,1.15.13s-.5.05-1,.19a1.37,1.37,0,0,0-.7.46C173.49,186,173.25,185.88,173.27,185.66Z"/><path class="cls-9" d="M166.45,193.09c.31-1.28,1.94-2.1,3.65-1.83s2.87,1.55,2.55,2.81-1.94,2.1-3.65,1.83S166.15,194.37,166.45,193.09Z"/><path class="cls-10" d="M166.25,193.06a2.5,2.5,0,0,1,1.38-1.6,4.22,4.22,0,0,1,2.51-.35,3.75,3.75,0,0,1,2.17,1.1,2.07,2.07,0,0,1,.56,1.92,2.48,2.48,0,0,1-1.38,1.59,4.07,4.07,0,0,1-2.51.36,3.63,3.63,0,0,1-2.16-1.1,2.08,2.08,0,0,1-.57-1.92Zm1.63-1.34a2.21,2.21,0,0,0-1.21,1.4,1.8,1.8,0,0,0,.48,1.66,3.28,3.28,0,0,0,1.89,1,3.59,3.59,0,0,0,2.2-.3,2.16,2.16,0,0,0,1.21-1.4,1.8,1.8,0,0,0-.48-1.66,3.6,3.6,0,0,0-4.09-.65Z"/><path class="cls-11" d="M167.14,192.81a2.07,2.07,0,0,1,1.17-1c.82-.24,1.36,0,1.36.16s-.58.05-1.12.2a1.65,1.65,0,0,0-.87.57C167.4,193.24,167.16,193.08,167.14,192.81Z"/><path class="cls-9" d="M169.76,183.05c.26-1.1,1.65-1.79,3.11-1.56s2.43,1.31,2.17,2.4-1.65,1.79-3.11,1.56S169.5,184.14,169.76,183.05Z"/><path class="cls-10" d="M169.58,183a2.13,2.13,0,0,1,1.18-1.36,3.53,3.53,0,0,1,2.16-.28,3.17,3.17,0,0,1,1.86.92,1.75,1.75,0,0,1,.48,1.62,2.13,2.13,0,0,1-1.18,1.36,3.42,3.42,0,0,1-2.15.28,3.09,3.09,0,0,1-1.86-.92,1.79,1.79,0,0,1-.48-1.63Zm1.39-1.14a1.84,1.84,0,0,0-1,1.2,1.54,1.54,0,0,0,.41,1.42,2.76,2.76,0,0,0,1.62.81,3.06,3.06,0,0,0,1.87-.27,1.82,1.82,0,0,0,1-1.18,1.54,1.54,0,0,0-.41-1.42,2.81,2.81,0,0,0-1.61-.82A3.19,3.19,0,0,0,171,181.88Z"/><path class="cls-11" d="M170.35,182.81a1.72,1.72,0,0,1,1-.87c.7-.21,1.15,0,1.14.14s-.5,0-1,.18a1.39,1.39,0,0,0-.7.47C170.57,183.18,170.35,183.05,170.35,182.81Z"/><path class="cls-9" d="M162.11,192.79c.25-1.09,1.65-1.8,3.11-1.57s2.43,1.31,2.17,2.4-1.65,1.79-3.11,1.56S161.85,193.88,162.11,192.79Z"/><path class="cls-10" d="M161.92,192.76a2.09,2.09,0,0,1,1.19-1.36,3.57,3.57,0,0,1,2.15-.28,3.18,3.18,0,0,1,1.87.93,1.8,1.8,0,0,1,.47,1.62,2.11,2.11,0,0,1-1.17,1.36,3.61,3.61,0,0,1-2.16.28,3.2,3.2,0,0,1-1.87-.92,1.81,1.81,0,0,1-.47-1.63Zm1.39-1.14a1.85,1.85,0,0,0-1,1.19,1.56,1.56,0,0,0,.42,1.42,2.75,2.75,0,0,0,1.61.82,3.13,3.13,0,0,0,1.87-.26,1.92,1.92,0,0,0,1-1.19,1.59,1.59,0,0,0-.41-1.42,2.72,2.72,0,0,0-1.62-.82,3.12,3.12,0,0,0-1.87.26Z"/><path class="cls-11" d="M162.69,192.55a1.71,1.71,0,0,1,1-.87c.69-.21,1.15,0,1.14.13s-.51.05-1,.19a1.32,1.32,0,0,0-.71.47C162.91,192.91,162.73,192.76,162.69,192.55Z"/><path class="cls-9" d="M155.71,175.18c.36-1.5,2.26-2.46,4.26-2.13s3.33,1.78,3,3.27-2.26,2.46-4.26,2.14S155.36,176.67,155.71,175.18Z"/><path class="cls-10" d="M155.47,175.13a2.92,2.92,0,0,1,1.61-1.86,4.9,4.9,0,0,1,2.93-.41,4.34,4.34,0,0,1,2.53,1.28,2.46,2.46,0,0,1,.65,2.22,3,3,0,0,1-1.62,1.87,4.79,4.79,0,0,1-2.92.41,4.28,4.28,0,0,1-2.53-1.28A2.48,2.48,0,0,1,155.47,175.13Zm1.89-1.55a2.56,2.56,0,0,0-1.42,1.65,2.1,2.1,0,0,0,.56,1.93,3.82,3.82,0,0,0,2.21,1.12,4.3,4.3,0,0,0,2.56-.36,2.52,2.52,0,0,0,1.42-1.64,2.11,2.11,0,0,0-.55-1.94,3.75,3.75,0,0,0-2.21-1.11A4.34,4.34,0,0,0,157.36,173.58Z"/><path class="cls-11" d="M156.53,174.88a2.36,2.36,0,0,1,1.37-1.2c1-.28,1.58,0,1.57.19s-.69.06-1.33.25a1.85,1.85,0,0,0-1,.63C156.82,175.35,156.53,175.16,156.53,174.88Z"/><path class="cls-9" d="M151.18,167.39c.29-1.34,2-2.14,3.77-1.89s2.89,1.54,2.61,2.87-2,2.15-3.77,1.9S150.87,168.7,151.18,167.39Z"/><path class="cls-10" d="M151,167.36a2.53,2.53,0,0,1,1.43-1.64,4.22,4.22,0,0,1,2.56-.36,3.74,3.74,0,0,1,2.21,1.12,2.14,2.14,0,0,1,.56,1.93,2.57,2.57,0,0,1-1.43,1.63,4.23,4.23,0,0,1-2.56.37,3.85,3.85,0,0,1-2.22-1.12,2.14,2.14,0,0,1-.55-1.94Zm1.63-1.34a2.21,2.21,0,0,0-1.23,1.43,1.8,1.8,0,0,0,.49,1.69,3.71,3.71,0,0,0,4.21.67,2.31,2.31,0,0,0,1.24-1.43,1.88,1.88,0,0,0-.52-1.71,3.39,3.39,0,0,0-1.93-1,3.79,3.79,0,0,0-2.28.36Z"/><path class="cls-11" d="M151.89,167.11a2,2,0,0,1,1.19-1c.84-.26,1.38,0,1.37.16s-.6.05-1.13.2a1.65,1.65,0,0,0-.87.57C152.15,167.54,151.9,167.39,151.89,167.11Z"/><path class="cls-9" d="M144.74,177.52c.34-1.37,2.09-2.26,3.94-2s3.09,1.65,2.76,3-2.1,2.27-3.95,2S144.41,178.91,144.74,177.52Z"/><path class="cls-10" d="M144.51,177.49a2.71,2.71,0,0,1,1.5-1.73,4.38,4.38,0,0,1,2.75-.34,4,4,0,0,1,2.34,1.17,2.29,2.29,0,0,1,.6,2.07,2.68,2.68,0,0,1-1.49,1.72,4.53,4.53,0,0,1-2.72.39,4,4,0,0,1-2.34-1.18,2.29,2.29,0,0,1-.6-2.07Zm1.76-1.44a2.37,2.37,0,0,0-1.31,1.51,2,2,0,0,0,.53,1.8,3.52,3.52,0,0,0,2,1,4,4,0,0,0,2.38-.34,2.37,2.37,0,0,0,1.31-1.51,2,2,0,0,0-.53-1.8,3.45,3.45,0,0,0-2.05-1A3.91,3.91,0,0,0,146.27,176.05Z"/><path class="cls-11" d="M145.48,177.23a2.24,2.24,0,0,1,1.27-1.11c.89-.26,1.47,0,1.46.18s-.64.06-1.23.23a1.73,1.73,0,0,0-.87.58C145.76,177.69,145.52,177.56,145.48,177.23Z"/><path class="cls-9" d="M149.52,173.63c.26-1.09,1.65-1.8,3.12-1.57s2.43,1.31,2.18,2.41-1.66,1.8-3.12,1.56S149.26,174.72,149.52,173.63Z"/><path class="cls-10" d="M149.34,173.6a2.13,2.13,0,0,1,1.18-1.36,3.53,3.53,0,0,1,2.16-.28,3.14,3.14,0,0,1,1.87.92,1.81,1.81,0,0,1,.47,1.63,2.17,2.17,0,0,1-1.18,1.37,3.56,3.56,0,0,1-2.15.27,3.21,3.21,0,0,1-1.87-.93,1.79,1.79,0,0,1-.47-1.63Zm1.39-1.14a1.86,1.86,0,0,0-1,1.2,1.54,1.54,0,0,0,.41,1.42,2.77,2.77,0,0,0,1.63.82,3.09,3.09,0,0,0,1.86-.27,1.86,1.86,0,0,0,1-1.19,1.56,1.56,0,0,0-.42-1.43,2.82,2.82,0,0,0-1.62-.81A3,3,0,0,0,150.73,172.46Z"/><path class="cls-11" d="M150.1,173.38a1.72,1.72,0,0,1,1-.87c.71-.21,1.17,0,1.15.14s-.5,0-1,.18a1.36,1.36,0,0,0-.71.46C150.33,173.76,150.09,173.64,150.1,173.38Z"/><path class="cls-9" d="M153.34,183.62c.26-1.09,1.65-1.79,3.11-1.56s2.43,1.31,2.18,2.4a2.65,2.65,0,0,1-3.11,1.56C154.06,185.79,153.08,184.71,153.34,183.62Z"/><path class="cls-10" d="M153.16,183.6a2.13,2.13,0,0,1,1.18-1.36,3.46,3.46,0,0,1,2.16-.28,3.12,3.12,0,0,1,1.86.92,1.79,1.79,0,0,1,.47,1.63,2.09,2.09,0,0,1-1.17,1.35,3.55,3.55,0,0,1-2.17.28,3.15,3.15,0,0,1-1.86-.92,1.81,1.81,0,0,1-.48-1.61Zm1.39-1.13a1.85,1.85,0,0,0-1,1.18,1.53,1.53,0,0,0,.41,1.42,3.08,3.08,0,0,0,3.48.56,1.84,1.84,0,0,0,1-1.2A1.52,1.52,0,0,0,158,183a2.78,2.78,0,0,0-1.62-.82,3,3,0,0,0-1.86.27Z"/><path class="cls-11" d="M153.93,183.39a1.81,1.81,0,0,1,1-.88c.69-.2,1.15,0,1.14.14s-.5,0-1,.19a1.31,1.31,0,0,0-.7.46C154.15,183.75,153.94,183.62,153.93,183.39Z"/><path class="cls-9" d="M156.9,189.49c.26-1.09,1.65-1.78,3.11-1.55s2.43,1.3,2.17,2.39a2.66,2.66,0,0,1-3.11,1.57C157.61,191.66,156.64,190.59,156.9,189.49Z"/><path class="cls-10" d="M156.77,189.44a2.11,2.11,0,0,1,1.17-1.36,3.53,3.53,0,0,1,2.16-.28,3.14,3.14,0,0,1,1.87.92,1.81,1.81,0,0,1,.47,1.63,2.1,2.1,0,0,1-1.19,1.35,3.49,3.49,0,0,1-2.15.28,3.21,3.21,0,0,1-1.87-.93,1.83,1.83,0,0,1-.47-1.62Zm1.38-1.14a1.87,1.87,0,0,0-1,1.19,1.55,1.55,0,0,0,.41,1.42,3.11,3.11,0,0,0,3.49.56,1.89,1.89,0,0,0,1-1.2,1.54,1.54,0,0,0-.42-1.41A2.75,2.75,0,0,0,160,188a3.1,3.1,0,0,0-1.91.29Z"/><path class="cls-11" d="M157.49,189.26a1.7,1.7,0,0,1,1-.87c.7-.21,1.16,0,1.15.14s-.5,0-1,.17a1.37,1.37,0,0,0-.71.47C157.71,189.62,157.51,189.49,157.49,189.26Z"/><path class="cls-9" d="M156.08,184.6c.26-1.1,1.65-1.79,3.11-1.56s2.43,1.3,2.17,2.39-1.65,1.8-3.11,1.57S155.79,185.72,156.08,184.6Z"/><path class="cls-10" d="M155.87,184.6a2.11,2.11,0,0,1,1.18-1.37,3.49,3.49,0,0,1,2.15-.27,3.06,3.06,0,0,1,1.86.92,1.82,1.82,0,0,1,.48,1.63,2.11,2.11,0,0,1-1.18,1.35,3.5,3.5,0,0,1-2.15.27,3.07,3.07,0,0,1-1.87-.93,1.78,1.78,0,0,1-.48-1.61Zm1.38-1.14a1.9,1.9,0,0,0-1,1.19,1.57,1.57,0,0,0,.42,1.42,2.72,2.72,0,0,0,1.61.82,3.13,3.13,0,0,0,1.87-.26,1.86,1.86,0,0,0,1-1.2,1.53,1.53,0,0,0-.41-1.42,2.87,2.87,0,0,0-1.62-.82A3.2,3.2,0,0,0,157.25,183.46Z"/><path class="cls-11" d="M156.63,184.39a1.74,1.74,0,0,1,1-.88c.71-.2,1.16,0,1.15.14s-.51,0-1,.18a1.39,1.39,0,0,0-.7.46C156.86,184.75,156.65,184.62,156.63,184.39Z"/><path class="cls-9" d="M162.76,171.91c.26-1.09,1.64-1.78,3.1-1.55s2.44,1.31,2.18,2.4a2.63,2.63,0,0,1-3.1,1.55C163.48,174.08,162.51,173,162.76,171.91Z"/><path class="cls-10" d="M162.59,171.9a2.17,2.17,0,0,1,1.18-1.37,3.56,3.56,0,0,1,2.15-.27,3.17,3.17,0,0,1,1.86.92,1.77,1.77,0,0,1,.47,1.62,2.17,2.17,0,0,1-1.18,1.37,3.56,3.56,0,0,1-2.15.27,3.15,3.15,0,0,1-1.86-.92A1.77,1.77,0,0,1,162.59,171.9Zm1.38-1.13a1.8,1.8,0,0,0-1,1.19,1.56,1.56,0,0,0,.42,1.41,3.07,3.07,0,0,0,3.48.56,1.86,1.86,0,0,0,1-1.2,1.6,1.6,0,0,0-.41-1.42,2.82,2.82,0,0,0-1.62-.81A3.12,3.12,0,0,0,164,170.77Z"/><path class="cls-11" d="M163.35,171.69a1.77,1.77,0,0,1,1-.87c.71-.21,1.17,0,1.15.14s-.5,0-1,.17a1.44,1.44,0,0,0-.71.47C163.57,172.06,163.36,171.92,163.35,171.69Z"/><path class="cls-9" d="M156.54,179.15c.3-1.28,1.94-2.11,3.65-1.84s2.86,1.56,2.55,2.81-1.94,2.11-3.65,1.84S156.24,180.43,156.54,179.15Z"/><path class="cls-10" d="M156.33,179.11a2.53,2.53,0,0,1,1.37-1.55,4.11,4.11,0,0,1,4.68.75,2.06,2.06,0,0,1-.06,3,2.35,2.35,0,0,1-.77.51,4.15,4.15,0,0,1-2.51.35,3.73,3.73,0,0,1-2.16-1.09,2.07,2.07,0,0,1-.57-1.93Zm1.63-1.33a2.26,2.26,0,0,0-1.2,1.39,1.79,1.79,0,0,0,.48,1.66,3.19,3.19,0,0,0,1.89,1,3.59,3.59,0,0,0,2.2-.3,2.24,2.24,0,0,0,1.22-1.39,1.91,1.91,0,0,0-.49-1.67,3.28,3.28,0,0,0-1.89-1,3.63,3.63,0,0,0-2.21.32Z"/><path class="cls-11" d="M157.23,178.87a2,2,0,0,1,1.17-1c.83-.25,1.36,0,1.35.15s-.59.06-1.12.2a1.64,1.64,0,0,0-.82.55C157.48,179.3,157.24,179.14,157.23,178.87Z"/><path class="cls-9" d="M159.85,169.1c.25-1.09,1.65-1.79,3.11-1.56s2.43,1.31,2.17,2.4-1.65,1.79-3.11,1.56S159.59,170.19,159.85,169.1Z"/><path class="cls-10" d="M159.64,169.1a2.14,2.14,0,0,1,1.18-1.37,3.53,3.53,0,0,1,2.16-.27,3.06,3.06,0,0,1,1.86.92,1.79,1.79,0,0,1,.47,1.63,2.12,2.12,0,0,1-1.17,1.35,3.55,3.55,0,0,1-2.17.28,3.2,3.2,0,0,1-1.86-.92,1.83,1.83,0,0,1-.47-1.62ZM161,168a1.85,1.85,0,0,0-1,1.19,1.54,1.54,0,0,0,.41,1.42,2.9,2.9,0,0,0,1.61.82,3.24,3.24,0,0,0,1.88-.26,1.85,1.85,0,0,0,1-1.2,1.54,1.54,0,0,0-.41-1.42,2.76,2.76,0,0,0-1.61-.81,3.06,3.06,0,0,0-1.85.25Z"/><path class="cls-11" d="M160.42,168.86a1.77,1.77,0,0,1,1-.88c.7-.21,1.16,0,1.15.14s-.51,0-1,.18a1.37,1.37,0,0,0-.71.47C160.66,169.23,160.44,169.1,160.42,168.86Z"/><path class="cls-9" d="M152.21,178.88a2.66,2.66,0,0,1,3.11-1.56c1.46.23,2.43,1.3,2.18,2.4s-1.66,1.79-3.11,1.56S151.93,179.93,152.21,178.88Z"/><path class="cls-10" d="M152,178.81a2.11,2.11,0,0,1,1.18-1.35,3.53,3.53,0,0,1,2.16-.28,3.2,3.2,0,0,1,1.87.92,1.83,1.83,0,0,1,.48,1.62,2.13,2.13,0,0,1-1.18,1.36,3.46,3.46,0,0,1-2.16.28,3.15,3.15,0,0,1-1.86-.92,1.81,1.81,0,0,1-.47-1.63Zm1.39-1.14a1.86,1.86,0,0,0-1,1.2,1.59,1.59,0,0,0,.41,1.42,2.83,2.83,0,0,0,1.62.82,3.12,3.12,0,0,0,1.87-.27,1.86,1.86,0,0,0,1-1.19,1.54,1.54,0,0,0-.41-1.42,3.09,3.09,0,0,0-3.48-.56Z"/><path class="cls-11" d="M152.78,178.6a1.76,1.76,0,0,1,1-.87c.7-.21,1.15,0,1.14.14s-.5,0-1,.18a1.32,1.32,0,0,0-.71.47C153,179,152.79,178.84,152.78,178.6Z"/><path class="cls-9" d="M145.1,193.11c.34-1.5,2.26-2.45,4.25-2.14s3.33,1.79,3,3.29-2.26,2.45-4.25,2.13S144.74,194.6,145.1,193.11Z"/><path class="cls-10" d="M144.85,193.07a3,3,0,0,1,1.61-1.87,4.84,4.84,0,0,1,5.46.88,2.39,2.39,0,0,1,.65,2.21,2.91,2.91,0,0,1-1.61,1.87,4.82,4.82,0,0,1-5.46-.87A2.4,2.4,0,0,1,144.85,193.07Zm1.9-1.55a2.51,2.51,0,0,0-1.43,1.64,2.13,2.13,0,0,0,.56,1.93,4.23,4.23,0,0,0,4.77.75,2.57,2.57,0,0,0,1.43-1.63,2.14,2.14,0,0,0-.56-1.93A4.24,4.24,0,0,0,146.75,191.52Z"/><path class="cls-11" d="M145.9,192.78a2.31,2.31,0,0,1,1.36-1.18c1-.3,1.58,0,1.57.18s-.68.06-1.32.25a1.85,1.85,0,0,0-1,.63C146.2,193.29,145.91,193.11,145.9,192.78Z"/><path class="cls-9" d="M140.56,185.32c.29-1.34,2-2.14,3.72-1.86s2.9,1.53,2.61,2.88-2,2.14-3.72,1.86S140.25,186.63,140.56,185.32Z"/><path class="cls-10" d="M140.34,185.29a2.57,2.57,0,0,1,1.43-1.63,4.32,4.32,0,0,1,2.56-.37,3.82,3.82,0,0,1,2.21,1.12,2.13,2.13,0,0,1,.56,1.93,2.56,2.56,0,0,1-1.42,1.65,4.23,4.23,0,0,1-2.56.35,3.75,3.75,0,0,1-2.21-1.11,2.15,2.15,0,0,1-.56-1.93ZM142,184a2,2,0,0,0-1.16,2.5,1.61,1.61,0,0,0,.43.63,3.23,3.23,0,0,0,1.93,1,3.68,3.68,0,0,0,2.23-.32,2.21,2.21,0,0,0,1.23-1.43,1.8,1.8,0,0,0-.49-1.69,3.71,3.71,0,0,0-4.21-.67Z"/><path class="cls-11" d="M141.29,185A2.16,2.16,0,0,1,142.5,184c.84-.24,1.38,0,1.36.17s-.59.05-1.12.2a1.61,1.61,0,0,0-.87.58C141.57,185.44,141.28,185.32,141.29,185Z"/><path class="cls-9" d="M129.41,193.62c.34-1.37,2.09-2.28,3.94-2s3.09,1.66,2.76,3-2.09,2.28-3.94,2S129.07,195,129.41,193.62Z"/><path class="cls-10" d="M129.19,193.58a2.72,2.72,0,0,1,1.49-1.73,4.69,4.69,0,0,1,2.72-.39,4.11,4.11,0,0,1,2.35,1.19,2.3,2.3,0,0,1,.59,2.06,2.67,2.67,0,0,1-1.49,1.73,4.48,4.48,0,0,1-5.06-.81A2.24,2.24,0,0,1,129.19,193.58Zm1.75-1.44a2.36,2.36,0,0,0-1.31,1.52,2,2,0,0,0,.52,1.79,4,4,0,0,0,4.43.71,2.34,2.34,0,0,0,1.3-1.52,2,2,0,0,0-.52-1.79A3.9,3.9,0,0,0,130.94,192.14Z"/><path class="cls-11" d="M130.16,193.31a2.31,2.31,0,0,1,1.27-1.11c.88-.26,1.47,0,1.46.19s-.63.05-1.23.23a1.65,1.65,0,0,0-.88.58C130.44,193.78,130.18,193.61,130.16,193.31Z"/><path class="cls-9" d="M131.5,188a2.67,2.67,0,0,1,3.12-1.57c1.46.23,2.43,1.31,2.18,2.41s-1.65,1.79-3.12,1.56S131.21,189,131.5,188Z"/><path class="cls-10" d="M131.3,187.9a2.11,2.11,0,0,1,1.19-1.36,3.51,3.51,0,0,1,2.16-.28,3.2,3.2,0,0,1,1.86.92,1.79,1.79,0,0,1,.47,1.63,2.14,2.14,0,0,1-1.18,1.37,3.51,3.51,0,0,1-2.16.28,3.16,3.16,0,0,1-1.87-.93,1.81,1.81,0,0,1-.47-1.63Zm1.38-1.13a1.83,1.83,0,0,0-1,1.19,1.53,1.53,0,0,0,.41,1.42,2.85,2.85,0,0,0,1.62.83,3.2,3.2,0,0,0,1.87-.27,1.85,1.85,0,0,0,1-1.19,1.55,1.55,0,0,0-.41-1.43,2.84,2.84,0,0,0-1.61-.82A3.19,3.19,0,0,0,132.68,186.77Z"/><path class="cls-11" d="M132.07,187.69a1.69,1.69,0,0,1,1-.87c.7-.21,1.16,0,1.15.14s-.51,0-1,.18a1.44,1.44,0,0,0-.71.47C132.29,188.06,132.08,187.92,132.07,187.69Z"/><path class="cls-9" d="M142.73,201.56c.25-1.09,1.64-1.79,3.1-1.56s2.43,1.31,2.17,2.4-1.64,1.78-3.1,1.55S142.47,202.65,142.73,201.56Z"/><path class="cls-10" d="M142.54,201.53a2.17,2.17,0,0,1,1.19-1.36,3.57,3.57,0,0,1,2.15-.27,3.16,3.16,0,0,1,1.87.93,1.8,1.8,0,0,1,.47,1.62,2.13,2.13,0,0,1-1.18,1.36,3.57,3.57,0,0,1-2.15.28,3.2,3.2,0,0,1-1.87-.92,1.82,1.82,0,0,1-.47-1.63Zm1.41-1.09a1.9,1.9,0,0,0-1,1.19,1.57,1.57,0,0,0,.42,1.42,2.78,2.78,0,0,0,1.61.82,3.12,3.12,0,0,0,1.87-.27,1.89,1.89,0,0,0,1-1.19,1.65,1.65,0,0,0-.41-1.42,2.79,2.79,0,0,0-1.62-.81A3,3,0,0,0,144,200.44Z"/><path class="cls-11" d="M143.29,201.33a1.71,1.71,0,0,1,1-.86c.7-.21,1.15,0,1.14.13s-.49.05-1,.18a1.37,1.37,0,0,0-.71.47C143.52,201.69,143.32,201.55,143.29,201.33Z"/><path class="cls-9" d="M159.24,204.13c.26-1.09,1.65-1.79,3.11-1.56s2.43,1.3,2.17,2.39a2.66,2.66,0,0,1-3.11,1.57C160,206.29,159,205.22,159.24,204.13Z"/><path class="cls-10" d="M159.06,204.1a2.13,2.13,0,0,1,1.18-1.36,3.57,3.57,0,0,1,2.15-.27,3.13,3.13,0,0,1,1.87.93,1.8,1.8,0,0,1,.47,1.62,2.08,2.08,0,0,1-1.17,1.36,3.5,3.5,0,0,1-2.15.27,3.09,3.09,0,0,1-1.87-.92,1.8,1.8,0,0,1-.47-1.62Zm1.39-1.14a1.91,1.91,0,0,0-1,1.19,1.59,1.59,0,0,0,.42,1.43,2.83,2.83,0,0,0,1.62.82,3.2,3.2,0,0,0,1.87-.27,1.86,1.86,0,0,0,1-1.19,1.54,1.54,0,0,0-.41-1.42,2.75,2.75,0,0,0-1.61-.82A3.12,3.12,0,0,0,160.45,203Z"/><path class="cls-11" d="M159.82,203.9a1.76,1.76,0,0,1,1-.88c.7-.21,1.15,0,1.14.13s-.5.06-1,.2a1.31,1.31,0,0,0-.7.46C160.05,204.25,159.84,204.13,159.82,203.9Z"/><path class="cls-9" d="M175.94,176.34a2.62,2.62,0,0,1,3.1-1.55c1.46.23,2.44,1.31,2.18,2.4s-1.64,1.78-3.1,1.55S175.68,177.43,175.94,176.34Z"/><path class="cls-10" d="M175.73,176.34a2.13,2.13,0,0,1,1.18-1.36,3.5,3.5,0,0,1,2.15-.28,3.2,3.2,0,0,1,1.87.92,1.82,1.82,0,0,1,.47,1.63,2.11,2.11,0,0,1-1.19,1.36,3.49,3.49,0,0,1-2.15.27,3.12,3.12,0,0,1-1.86-.92,1.79,1.79,0,0,1-.47-1.62Zm1.38-1.13a1.85,1.85,0,0,0-1,1.19,1.56,1.56,0,0,0,.41,1.42,2.71,2.71,0,0,0,1.62.81,3.12,3.12,0,0,0,1.87-.26,1.85,1.85,0,0,0,1-1.19,1.57,1.57,0,0,0-.42-1.42,2.75,2.75,0,0,0-1.61-.82,3.06,3.06,0,0,0-1.83.25Z"/><path class="cls-11" d="M176.53,176.11a1.77,1.77,0,0,1,1-.87c.7-.21,1.16,0,1.15.14s-.5,0-1,.17a1.46,1.46,0,0,0-.7.47C176.74,176.47,176.54,176.34,176.53,176.11Z"/><path class="cls-9" d="M180.87,170c.26-1.09,1.66-1.78,3.12-1.55s2.43,1.3,2.17,2.39a2.64,2.64,0,0,1-3.11,1.56C181.59,172.18,180.62,171.11,180.87,170Z"/><path class="cls-10" d="M180.7,170a2.09,2.09,0,0,1,1.17-1.36,3.46,3.46,0,0,1,2.16-.28,3.12,3.12,0,0,1,1.86.92,1.79,1.79,0,0,1,.47,1.63,2.07,2.07,0,0,1-1.17,1.35,3.53,3.53,0,0,1-2.16.28,3.19,3.19,0,0,1-1.86-.93,1.77,1.77,0,0,1-.47-1.62Zm1.39-1.14a1.86,1.86,0,0,0-1,1.19,1.55,1.55,0,0,0,.41,1.42,3.14,3.14,0,0,0,3.5.56,1.88,1.88,0,0,0,1-1.2,1.57,1.57,0,0,0-.41-1.42,2.9,2.9,0,0,0-1.61-.82,3.23,3.23,0,0,0-1.88.28Z"/><path class="cls-11" d="M181.44,169.8a1.77,1.77,0,0,1,1-.88c.7-.21,1.16,0,1.15.14s-.5,0-1,.18a1.33,1.33,0,0,0-.7.46C181.68,170.15,181.47,170,181.44,169.8Z"/><path class="cls-9" d="M192.18,178.14c.26-1.09,1.65-1.79,3.11-1.56s2.43,1.31,2.18,2.4-1.66,1.79-3.11,1.56S191.92,179.23,192.18,178.14Z"/><path class="cls-10" d="M192,178.13a2.11,2.11,0,0,1,1.19-1.36,3.42,3.42,0,0,1,2.15-.27,3.08,3.08,0,0,1,1.86.91,1.82,1.82,0,0,1,.47,1.63,2.13,2.13,0,0,1-1.17,1.36,3.53,3.53,0,0,1-2.16.28,3.15,3.15,0,0,1-1.86-.92,1.81,1.81,0,0,1-.48-1.63Zm1.39-1.14a1.89,1.89,0,0,0-1,1.2,1.51,1.51,0,0,0,.42,1.41,2.82,2.82,0,0,0,1.61.83,3.17,3.17,0,0,0,1.86-.27,1.86,1.86,0,0,0,1-1.19,1.59,1.59,0,0,0-.41-1.42,2.78,2.78,0,0,0-1.62-.82,3.13,3.13,0,0,0-1.85.24Z"/><path class="cls-11" d="M192.76,177.9a1.81,1.81,0,0,1,1-.87c.69-.2,1.15,0,1.15.14s-.51.05-1,.18a1.46,1.46,0,0,0-.7.47C193,178.27,192.78,178.13,192.76,177.9Z"/><path class="cls-9" d="M191.87,193.17c.26-1.09,1.65-1.79,3.11-1.56s2.44,1.31,2.17,2.41a2.63,2.63,0,0,1-3.1,1.55C192.59,195.34,191.62,194.22,191.87,193.17Z"/><path class="cls-10" d="M191.72,193.13a2.13,2.13,0,0,1,1.18-1.36,3.53,3.53,0,0,1,2.16-.28,3.17,3.17,0,0,1,1.86.92,1.84,1.84,0,0,1,.47,1.62,2.16,2.16,0,0,1-1.17,1.37,3.55,3.55,0,0,1-2.17.27,3.25,3.25,0,0,1-1.86-.91,1.85,1.85,0,0,1-.47-1.63Zm1.39-1.13a1.86,1.86,0,0,0-1,1.19,1.57,1.57,0,0,0,.42,1.41,3.07,3.07,0,0,0,3.49.56,1.83,1.83,0,0,0,1-1.19,1.54,1.54,0,0,0-.41-1.42,2.78,2.78,0,0,0-1.62-.82,3.1,3.1,0,0,0-1.86.27Z"/><path class="cls-11" d="M192.49,192.93a1.74,1.74,0,0,1,1-.88c.69-.21,1.16,0,1.15.14s-.51,0-1,.18a1.39,1.39,0,0,0-.7.47C192.7,193.29,192.5,193.15,192.49,192.93Z"/><path class="cls-9" d="M191.66,199.69c.29-1.22,1.84-2,3.47-1.74s2.72,1.46,2.44,2.68-1.85,2-3.49,1.74S191.36,200.91,191.66,199.69Z"/><path class="cls-10" d="M191.47,199.66a2.33,2.33,0,0,1,1.31-1.52,4,4,0,0,1,2.39-.34,3.56,3.56,0,0,1,2.06,1,2,2,0,0,1,.53,1.81,2.32,2.32,0,0,1-1.32,1.52,3.86,3.86,0,0,1-2.38.33,3.5,3.5,0,0,1-2.07-1,2,2,0,0,1-.52-1.82Zm1.54-1.27a2.05,2.05,0,0,0-1.15,1.33,1.74,1.74,0,0,0,.46,1.59,3.11,3.11,0,0,0,1.84.89,3.45,3.45,0,0,0,2.09-.3,2.13,2.13,0,0,0,1.16-1.32,1.83,1.83,0,0,0-.47-1.59,3.11,3.11,0,0,0-1.85-.89,3.5,3.5,0,0,0-2.08.29Z"/><path class="cls-11" d="M192.32,199.43a2,2,0,0,1,1.11-1c.79-.23,1.26,0,1.28.16s-.56,0-1.11.22a1.45,1.45,0,0,0-.79.52C192.53,199.86,192.33,199.69,192.32,199.43Z"/><path class="cls-9" d="M173.33,199c.29-1.23,1.85-2,3.48-1.75s2.71,1.46,2.42,2.69-1.84,2-3.47,1.74S173,200.18,173.33,199Z"/><path class="cls-10" d="M173.1,199a2.33,2.33,0,0,1,1.31-1.52,4,4,0,0,1,2.47-.36,3.56,3.56,0,0,1,2.07,1.05,2,2,0,0,1,.52,1.81,2.37,2.37,0,0,1-1.31,1.53,4.06,4.06,0,0,1-2.39.33,3.47,3.47,0,0,1-2.07-1,2,2,0,0,1-.53-1.81Zm1.55-1.27a2.1,2.1,0,0,0-1.16,1.33,1.84,1.84,0,0,0,.47,1.59,3,3,0,0,0,1.84.88,3.52,3.52,0,0,0,2.09-.29,2,2,0,0,0,1.15-1.33,1.74,1.74,0,0,0-.46-1.59,3.08,3.08,0,0,0-1.84-.89,3.52,3.52,0,0,0-2.06.28Z"/><path class="cls-11" d="M174,198.7a2,2,0,0,1,1.12-1c.78-.22,1.26,0,1.29.16s-.57,0-1.11.22a1.57,1.57,0,0,0-.79.52C174.23,199.09,174,199,174,198.7Z"/><path class="cls-9" d="M174.81,205.7c.29-1.22,1.84-2,3.48-1.74s2.71,1.46,2.43,2.68-1.85,2-3.49,1.74S174.52,206.92,174.81,205.7Z"/><path class="cls-10" d="M174.61,205.66a2.36,2.36,0,0,1,1.32-1.51,4,4,0,0,1,2.39-.34,3.58,3.58,0,0,1,2.06,1,2,2,0,0,1,.53,1.82,2.37,2.37,0,0,1-1.32,1.52,3.89,3.89,0,0,1-2.39.33,3.48,3.48,0,0,1-2.06-1A2,2,0,0,1,174.61,205.66Zm1.55-1.26a1.88,1.88,0,0,0-1.09,2.34,1.65,1.65,0,0,0,.39.58,3.07,3.07,0,0,0,1.85.88,3.39,3.39,0,0,0,2.09-.29,2.08,2.08,0,0,0,1.15-1.33,1.74,1.74,0,0,0-.46-1.59,3.16,3.16,0,0,0-1.84-.88,3.4,3.4,0,0,0-2.07.32Z"/><path class="cls-11" d="M175.46,205.43a1.94,1.94,0,0,1,1.12-1c.79-.24,1.25,0,1.28.15s-.56,0-1.11.22a1.62,1.62,0,0,0-.79.52C175.73,205.88,175.48,205.7,175.46,205.43Z"/><path class="cls-9" d="M150.06,203.82c.29-1.22,1.85-2,3.48-1.74s2.72,1.46,2.42,2.68-1.84,2-3.47,1.74S149.77,205,150.06,203.82Z"/><path class="cls-10" d="M149.86,203.79a2.37,2.37,0,0,1,1.32-1.52,3.9,3.9,0,0,1,2.39-.33,3.48,3.48,0,0,1,2.06,1,2,2,0,0,1,.53,1.83,2.36,2.36,0,0,1-1.32,1.51,4,4,0,0,1-2.39.34,3.52,3.52,0,0,1-2-1A2,2,0,0,1,149.86,203.79Zm1.55-1.27a2.07,2.07,0,0,0-1.15,1.34,1.72,1.72,0,0,0,.46,1.58,3.09,3.09,0,0,0,1.8.91,3.39,3.39,0,0,0,2.12-.25,2.05,2.05,0,0,0,1.15-1.33,1.74,1.74,0,0,0-.46-1.59,3,3,0,0,0-1.84-.88,3.41,3.41,0,0,0-2.08.22Z"/><path class="cls-11" d="M150.71,203.56a2,2,0,0,1,1.13-1c.77-.23,1.25,0,1.28.16s-.57,0-1.11.22a1.55,1.55,0,0,0-.79.51C151,204,150.73,203.82,150.71,203.56Z"/><path class="cls-9" d="M134.43,199.61c.28-1.23,1.84-2,3.47-1.75s2.72,1.46,2.43,2.68-1.85,2-3.48,1.74S134.16,200.81,134.43,199.61Z"/><path class="cls-10" d="M134.23,199.57a2.35,2.35,0,0,1,1.32-1.52,4,4,0,0,1,2.39-.34,3.47,3.47,0,0,1,2.05,1,2,2,0,0,1,.54,1.81,2.37,2.37,0,0,1-1.32,1.52,4,4,0,0,1-2.39.34,3.41,3.41,0,0,1-2.06-1A2,2,0,0,1,134.23,199.57Zm1.55-1.27a2.07,2.07,0,0,0-1.15,1.34,1.7,1.7,0,0,0,.45,1.58,3.11,3.11,0,0,0,1.84.89,3.46,3.46,0,0,0,2.12-.25,2.07,2.07,0,0,0,1.15-1.34,1.72,1.72,0,0,0-.46-1.58,3.44,3.44,0,0,0-3.89-.62Z"/><path class="cls-11" d="M135.08,199.34a1.89,1.89,0,0,1,1.12-1c.78-.24,1.25,0,1.28.15s-.56,0-1.11.22a1.57,1.57,0,0,0-.79.52C135.33,199.75,135.09,199.6,135.08,199.34Z"/><path class="cls-9" d="M110.38,189.85c.29-1.21,1.84-2,3.48-1.73s2.72,1.45,2.43,2.67-1.85,2-3.48,1.74S110.13,191.05,110.38,189.85Z"/><path class="cls-10" d="M110.19,189.82a2.32,2.32,0,0,1,1.32-1.52,3.86,3.86,0,0,1,2.38-.33A3.41,3.41,0,0,1,116,189a1.92,1.92,0,0,1,0,2.78,2.28,2.28,0,0,1-.82.55,4,4,0,0,1-2.39.34,3.52,3.52,0,0,1-2.07-1,2,2,0,0,1-.52-1.82Zm1.54-1.27a2.11,2.11,0,0,0-1.15,1.33,1.74,1.74,0,0,0,.46,1.59,3.11,3.11,0,0,0,1.84.89,3.54,3.54,0,0,0,2.12-.25,2.07,2.07,0,0,0,1.15-1.34,1.79,1.79,0,0,0-.46-1.58,3.18,3.18,0,0,0-1.84-.9A3.62,3.62,0,0,0,111.73,188.55Z"/><path class="cls-11" d="M111,189.59a2,2,0,0,1,1.11-1c.79-.23,1.26,0,1.28.16s-.55,0-1.1.22a1.57,1.57,0,0,0-.79.52C111.29,190,111.05,189.85,111,189.59Z"/><path class="cls-9" d="M116.62,162.47c.29-1.23,1.84-2,3.47-1.74s2.72,1.45,2.44,2.67-1.85,2-3.48,1.75S116.32,163.69,116.62,162.47Z"/><path class="cls-10" d="M116.43,162.44a2.35,2.35,0,0,1,1.31-1.53,4,4,0,0,1,2.38-.33,3.53,3.53,0,0,1,2.06,1,2,2,0,0,1,.53,1.81A2.37,2.37,0,0,1,121.4,165a4,4,0,0,1-4.45-.72A2,2,0,0,1,116.43,162.44Zm1.54-1.28a2.07,2.07,0,0,0-1.15,1.34,1.72,1.72,0,0,0,.46,1.58,3.12,3.12,0,0,0,1.84.9,3.53,3.53,0,0,0,2.09-.3,2.12,2.12,0,0,0,1.16-1.33,1.84,1.84,0,0,0-.47-1.59,3.45,3.45,0,0,0-3.91-.61Z"/><path class="cls-11" d="M117.28,162.21a1.89,1.89,0,0,1,1.11-1c.79-.23,1.26,0,1.28.15s-.56.05-1.11.22a1.57,1.57,0,0,0-.79.52C117.52,162.61,117.29,162.46,117.28,162.21Z"/><path class="cls-9" d="M122.23,166.51c.29-1.23,1.85-2,3.48-1.75s2.72,1.46,2.43,2.69-1.85,2-3.47,1.74S121.93,167.71,122.23,166.51Z"/><path class="cls-10" d="M122,166.45a2.39,2.39,0,0,1,1.31-1.52,4.06,4.06,0,0,1,2.39-.34,3.5,3.5,0,0,1,2.07,1,2,2,0,0,1,.53,1.81A2.39,2.39,0,0,1,127,169a4,4,0,0,1-2.37.32,3.45,3.45,0,0,1-2.06-1.05,2,2,0,0,1-.53-1.81Zm1.55-1.26a2.07,2.07,0,0,0-1.16,1.33,1.81,1.81,0,0,0,.47,1.58,3.42,3.42,0,0,0,3.88.62,2,2,0,0,0,1.15-1.32,1.71,1.71,0,0,0-.46-1.59,3.11,3.11,0,0,0-1.84-.89A3.45,3.45,0,0,0,123.57,165.19Z"/><path class="cls-11" d="M122.87,166.22a2,2,0,0,1,1.12-1c.78-.23,1.26,0,1.28.15s-.56.06-1.1.23a1.51,1.51,0,0,0-.79.52C123.12,166.62,122.89,166.48,122.87,166.22Z"/><path class="cls-9" d="M84.9,166.32c.29-1.23,1.85-2,3.48-1.75s2.72,1.46,2.42,2.68-1.84,2-3.47,1.74S84.61,167.53,84.9,166.32Z"/><path class="cls-10" d="M84.7,166.29A2.39,2.39,0,0,1,86,164.76a4,4,0,0,1,2.39-.34,3.62,3.62,0,0,1,2.07,1.05,2,2,0,0,1,.52,1.82,2.37,2.37,0,0,1-1.32,1.52,4,4,0,0,1-2.39.33,3.58,3.58,0,0,1-2.06-1A2,2,0,0,1,84.7,166.29ZM86.25,165a2.07,2.07,0,0,0-1.15,1.34,1.75,1.75,0,0,0,.47,1.58,3.4,3.4,0,0,0,3.88.62,2.09,2.09,0,0,0,1.17-1.33,1.74,1.74,0,0,0-.47-1.59,3,3,0,0,0-1.84-.89,3.62,3.62,0,0,0-2.07.26Z"/><path class="cls-11" d="M85.55,166.06a1.94,1.94,0,0,1,1.13-1c.78-.23,1.26,0,1.29.15s-.57.05-1.11.23a1.45,1.45,0,0,0-.79.52C85.8,166.45,85.57,166.31,85.55,166.06Z"/><path class="cls-9" d="M82.23,171.82c.29-1.23,1.85-2,3.48-1.75s2.72,1.45,2.43,2.68-1.85,2-3.47,1.74S81.92,173.06,82.23,171.82Z"/><path class="cls-10" d="M82,171.78a2.35,2.35,0,0,1,1.31-1.52,3.94,3.94,0,0,1,2.4-.33,3.47,3.47,0,0,1,2.07,1,2,2,0,0,1,.54,1.82A2.41,2.41,0,0,1,87,174.33a4,4,0,0,1-2.39.34,3.59,3.59,0,0,1-2.07-1,2,2,0,0,1-.53-1.81Zm1.54-1.26a2,2,0,0,0-1.14,1.32,1.74,1.74,0,0,0,.46,1.59,3.44,3.44,0,0,0,3.9.62,2.07,2.07,0,0,0,1.14-1.33,1.72,1.72,0,0,0-.48-1.62,3.11,3.11,0,0,0-1.84-.89A3.46,3.46,0,0,0,83.58,170.52Z"/><path class="cls-11" d="M82.9,171.55a1.89,1.89,0,0,1,1.11-1c.79-.23,1.25,0,1.28.16s-.56,0-1.11.22a1.45,1.45,0,0,0-.78.52C83.14,172,82.9,171.81,82.9,171.55Z"/><path class="cls-9" d="M74.13,167.59c.29-1.23,1.85-2,3.48-1.74s2.72,1.45,2.43,2.68-1.85,2-3.47,1.74S73.84,168.81,74.13,167.59Z"/><path class="cls-10" d="M73.94,167.56A2.33,2.33,0,0,1,75.25,166a3.94,3.94,0,0,1,2.4-.35,3.51,3.51,0,0,1,2.06,1.06,2,2,0,0,1,.5,1.82,2.37,2.37,0,0,1-1.32,1.53,3.94,3.94,0,0,1-4.44-.75,2,2,0,0,1-.53-1.81Zm1.54-1.27a2.05,2.05,0,0,0-1.15,1.33,1.77,1.77,0,0,0,.46,1.58,3.17,3.17,0,0,0,1.81.93,3.54,3.54,0,0,0,2.09-.31,2,2,0,0,0,1.15-1.32,1.74,1.74,0,0,0-.46-1.59A3.47,3.47,0,0,0,75.48,166.29Z"/><path class="cls-11" d="M74.8,167.33a1.86,1.86,0,0,1,1.11-1c.78-.23,1.25,0,1.28.15s-.57.06-1.11.23a1.39,1.39,0,0,0-.78.52C75,167.73,74.8,167.59,74.8,167.33Z"/><path class="cls-9" d="M90.67,177c.29-1.21,1.84-2,3.48-1.74s2.71,1.47,2.42,2.68-1.84,2-3.47,1.75S90.38,178.26,90.67,177Z"/><path class="cls-10" d="M90.48,177a2.37,2.37,0,0,1,1.32-1.52,3.9,3.9,0,0,1,2.39-.33,3.56,3.56,0,0,1,2.06,1,2,2,0,0,1,.53,1.83,2.36,2.36,0,0,1-1.32,1.51,4,4,0,0,1-2.39.34,3.58,3.58,0,0,1-2.06-1A2,2,0,0,1,90.48,177ZM92,175.73a1.88,1.88,0,0,0-1.09,2.35,1.61,1.61,0,0,0,.39.57,3.14,3.14,0,0,0,1.84.89,3.39,3.39,0,0,0,2.12-.25,1.88,1.88,0,0,0,1.09-2.35,1.7,1.7,0,0,0-.39-.57,3.11,3.11,0,0,0-1.84-.89A3.46,3.46,0,0,0,92,175.73Z"/><path class="cls-11" d="M91.33,176.77a1.92,1.92,0,0,1,1.12-1c.78-.24,1.25,0,1.27.15s-.55.05-1.1.22a1.66,1.66,0,0,0-.8.53C91.58,177.18,91.35,177,91.33,176.77Z"/><path class="cls-9" d="M129.23,162.22c.28-1.22,1.84-2,3.46-1.74s2.72,1.45,2.44,2.68-1.85,2-3.48,1.74S128.93,163.45,129.23,162.22Z"/><path class="cls-10" d="M129,162.19a2.41,2.41,0,0,1,1.32-1.53,4.06,4.06,0,0,1,2.39-.33,3.42,3.42,0,0,1,2.06,1,2,2,0,0,1,.54,1.81,2.37,2.37,0,0,1-1.32,1.52,3.92,3.92,0,0,1-4.46-.71A2,2,0,0,1,129,162.19Zm1.56-1.27a2,2,0,0,0-1.16,1.33,1.74,1.74,0,0,0,.46,1.59,3.06,3.06,0,0,0,1.84.89,3.45,3.45,0,0,0,2.09-.3A2.07,2.07,0,0,0,135,163.1a1.81,1.81,0,0,0-.47-1.58,3.11,3.11,0,0,0-1.84-.89A3.5,3.5,0,0,0,130.58,160.92Z"/><path class="cls-11" d="M129.88,162a2,2,0,0,1,1.11-1c.79-.23,1.26,0,1.28.16s-.55,0-1.1.22a1.51,1.51,0,0,0-.79.52C130.1,162.38,129.89,162.22,129.88,162Z"/><path class="cls-9" d="M127.4,165.76c.29-1.21,1.84-2,3.48-1.74s2.71,1.46,2.42,2.68-1.84,2-3.47,1.75S127.11,167,127.4,165.76Z"/><path class="cls-10" d="M127.2,165.73a2.37,2.37,0,0,1,1.32-1.52,3.9,3.9,0,0,1,2.39-.33,3.59,3.59,0,0,1,2.07,1,2,2,0,0,1,.52,1.83,2.36,2.36,0,0,1-1.32,1.51,3.94,3.94,0,0,1-2.38.34,3.63,3.63,0,0,1-2.08-1A2,2,0,0,1,127.2,165.73Zm1.55-1.27a2.18,2.18,0,0,0-1.16,1.33,1.74,1.74,0,0,0,.47,1.59,3.11,3.11,0,0,0,1.84.89A3.4,3.4,0,0,0,132,168a1.87,1.87,0,0,0,1.08-2.34,1.53,1.53,0,0,0-.39-.58,3.11,3.11,0,0,0-1.84-.89,3.42,3.42,0,0,0-2.1.28Z"/><path class="cls-11" d="M128.05,165.5a2,2,0,0,1,1.12-1c.78-.24,1.3,0,1.28.15s-.56,0-1.11.22a1.59,1.59,0,0,0-.79.53C128.32,165.94,128.07,165.75,128.05,165.5Z"/><path class="cls-9" d="M140.68,163.36c.28-1.22,1.84-2,3.47-1.74s2.72,1.46,2.43,2.68-1.85,2-3.48,1.74S140.35,164.6,140.68,163.36Z"/><path class="cls-10" d="M140.48,163.33a2.37,2.37,0,0,1,1.32-1.52,3.94,3.94,0,0,1,2.38-.34,3.59,3.59,0,0,1,2.07,1.05,2,2,0,0,1,.53,1.81,2.35,2.35,0,0,1-1.32,1.52,4,4,0,0,1-2.39.34,3.57,3.57,0,0,1-2.07-1A2,2,0,0,1,140.48,163.33Zm1.54-1.27a2.13,2.13,0,0,0-1.15,1.34,1.73,1.73,0,0,0,.46,1.58,3.11,3.11,0,0,0,1.84.89,3.46,3.46,0,0,0,2.12-.25,2.12,2.12,0,0,0,1.16-1.33,1.84,1.84,0,0,0-.47-1.59,3.44,3.44,0,0,0-3.89-.62Z"/><path class="cls-11" d="M141.32,163.09a2,2,0,0,1,1.11-1c.79-.23,1.26,0,1.29.15s-.56.05-1.12.22a1.66,1.66,0,0,0-.78.52C141.57,163.51,141.34,163.36,141.32,163.09Z"/><path class="cls-9" d="M144,166.1c.28-1.23,1.84-2,3.47-1.74s2.72,1.45,2.43,2.67-1.85,2-3.47,1.75S143.7,167.32,144,166.1Z"/><path class="cls-10" d="M143.81,166a2.37,2.37,0,0,1,1.32-1.52,4,4,0,0,1,2.39-.34,3.53,3.53,0,0,1,2.06,1,2,2,0,0,1,.53,1.81,2.39,2.39,0,0,1-1.31,1.52,4,4,0,0,1-4.46-.7A2,2,0,0,1,143.81,166Zm1.55-1.26a2,2,0,0,0-1.15,1.32,1.74,1.74,0,0,0,.46,1.59,3.44,3.44,0,0,0,3.89.62,2.1,2.1,0,0,0,1.16-1.33,1.84,1.84,0,0,0-.47-1.59A3.42,3.42,0,0,0,145.36,164.78Z"/><path class="cls-11" d="M144.64,165.84a1.9,1.9,0,0,1,1.12-1c.78-.23,1.25,0,1.28.15s-.56.05-1.11.23a1.39,1.39,0,0,0-.78.52C144.89,166.24,144.65,166.09,144.64,165.84Z"/><path class="cls-9" d="M166.73,165.91c.3-1.23,1.85-2,3.48-1.75s2.72,1.46,2.44,2.68-1.85,2-3.48,1.74S166.47,167.16,166.73,165.91Z"/><path class="cls-10" d="M166.54,165.87a2.35,2.35,0,0,1,1.31-1.52,4,4,0,0,1,2.4-.34,3.45,3.45,0,0,1,2.06,1.05,2,2,0,0,1,.53,1.81,2.36,2.36,0,0,1-1.31,1.52,4.09,4.09,0,0,1-2.4.35,3.51,3.51,0,0,1-2.06-1.06A2,2,0,0,1,166.54,165.87Zm1.54-1.27a2,2,0,0,0-1.14,1.33,1.74,1.74,0,0,0,.46,1.59,3.11,3.11,0,0,0,1.84.89,3.57,3.57,0,0,0,2.1-.3,2,2,0,0,0,1.15-1.33,1.74,1.74,0,0,0-.47-1.59,3.48,3.48,0,0,0-3.9-.62Z"/><path class="cls-11" d="M167.4,165.64a1.92,1.92,0,0,1,1.11-1c.79-.23,1.25,0,1.28.16s-.56,0-1.11.22a1.48,1.48,0,0,0-.78.52C167.66,166,167.41,165.9,167.4,165.64Z"/><path class="cls-9" d="M157,163.61c.24-1.05,1.58-1.71,3-1.49a2.12,2.12,0,0,1,2.08,2.3,2.54,2.54,0,0,1-3,1.48A2.12,2.12,0,0,1,157,163.61Z"/><path class="cls-10" d="M156.78,163.59a2.05,2.05,0,0,1,1.12-1.31,3.47,3.47,0,0,1,2-.28,3,3,0,0,1,1.76.89,1.69,1.69,0,0,1,.45,1.55,2,2,0,0,1-1.12,1.3,3.38,3.38,0,0,1-2,.29,3,3,0,0,1-1.77-.89,1.69,1.69,0,0,1-.45-1.55Zm1.33-1.09a1.8,1.8,0,0,0-1,1.14,1.52,1.52,0,0,0,.4,1.36,2.64,2.64,0,0,0,1.54.77,2.93,2.93,0,0,0,1.79-.25,1.79,1.79,0,0,0,1-1.13,1.49,1.49,0,0,0-.4-1.36,2.6,2.6,0,0,0-1.55-.78A2.87,2.87,0,0,0,158.11,162.5Z"/><path class="cls-11" d="M157.51,163.39a1.66,1.66,0,0,1,1-.84c.66-.19,1.1,0,1.09.13s-.49,0-.93.18a1.32,1.32,0,0,0-.67.44C157.72,163.74,157.52,163.6,157.51,163.39Z"/><path class="cls-9" d="M200,187.22a2.23,2.23,0,0,1,2.64-1.34h0a1.9,1.9,0,0,1,1.85,2.05,2.21,2.21,0,0,1-2.63,1.34h0A1.88,1.88,0,0,1,200,187.22Z"/><path class="cls-10" d="M199.8,187.2a1.83,1.83,0,0,1,1-1.17,3.12,3.12,0,0,1,1.82-.26,2.82,2.82,0,0,1,1.58.8,1.53,1.53,0,0,1,.4,1.39,1.79,1.79,0,0,1-1,1.16,3,3,0,0,1-1.82.26,2.7,2.7,0,0,1-1.57-.8,1.51,1.51,0,0,1-.41-1.38Zm1.18-1a1.58,1.58,0,0,0-.88,1,1.36,1.36,0,0,0,.35,1.22,2.43,2.43,0,0,0,1.38.69,2.78,2.78,0,0,0,1.6-.22,1.62,1.62,0,0,0,.88-1,1.33,1.33,0,0,0-.35-1.21,2.28,2.28,0,0,0-1.38-.69A2.62,2.62,0,0,0,201,186.23Z"/><path class="cls-11" d="M200.46,187a1.44,1.44,0,0,1,.85-.75c.6-.18,1,0,1,.13s-.43,0-.82.15a1.19,1.19,0,0,0-.6.39C200.64,187.33,200.49,187.21,200.46,187Z"/><path class="cls-9" d="M199.33,194c.26-1.09,1.65-1.78,3.11-1.55s2.43,1.3,2.17,2.39-1.65,1.79-3.11,1.56S199.07,195.05,199.33,194Z"/><path class="cls-10" d="M199.16,193.94a2.1,2.1,0,0,1,1.17-1.37,3.6,3.6,0,0,1,2.16-.27,3.11,3.11,0,0,1,1.86.91,1.83,1.83,0,0,1,.48,1.63,2.14,2.14,0,0,1-1.19,1.36,3.57,3.57,0,0,1-2.15.28,3.18,3.18,0,0,1-1.87-.93,1.8,1.8,0,0,1-.47-1.62Zm1.38-1.14a1.85,1.85,0,0,0-1,1.19,1.54,1.54,0,0,0,.41,1.42,3.11,3.11,0,0,0,3.49.55,1.85,1.85,0,0,0,1-1.19,1.57,1.57,0,0,0-.42-1.42,2.9,2.9,0,0,0-1.61-.82,3.2,3.2,0,0,0-1.87.27Z"/><path class="cls-11" d="M199.92,193.73a1.75,1.75,0,0,1,1-.88c.7-.21,1.16,0,1.15.14s-.5,0-1,.18a1.37,1.37,0,0,0-.71.47C200.14,194.09,199.93,194,199.92,193.73Z"/><path class="cls-9" d="M194.84,190.88a1.94,1.94,0,0,1,2.27-1.14,1.63,1.63,0,0,1,1.59,1.75,1.94,1.94,0,0,1-2.27,1.15A1.62,1.62,0,0,1,194.84,190.88Z"/><path class="cls-10" d="M194.71,190.86a1.61,1.61,0,0,1,.86-1,2.6,2.6,0,0,1,1.57-.21,2.25,2.25,0,0,1,1.34.68,1.3,1.3,0,0,1,.35,1.19,1.57,1.57,0,0,1-.86,1,2.6,2.6,0,0,1-1.57.22,2.37,2.37,0,0,1-1.34-.68A1.3,1.3,0,0,1,194.71,190.86Zm1-.83a1.39,1.39,0,0,0-.76.87,1.19,1.19,0,0,0,.31,1,2.06,2.06,0,0,0,1.18.6,2.42,2.42,0,0,0,1.37-.19,1.37,1.37,0,0,0,.75-.88,1.11,1.11,0,0,0-.3-1,1.92,1.92,0,0,0-1.18-.6A2.18,2.18,0,0,0,195.72,190Z"/><path class="cls-11" d="M195.25,190.68A1.25,1.25,0,0,1,196,190c.51-.15.84,0,.83.1s-.37,0-.7.13a1,1,0,0,0-.52.34C195.44,191,195.28,190.88,195.25,190.68Z"/><path class="cls-9" d="M194.1,181.78c.34-1.38,2.11-2.28,4-2s3.11,1.67,2.77,3.06-2.1,2.29-4,2S193.77,183.18,194.1,181.78Z"/><path class="cls-10" d="M193.87,181.75a2.7,2.7,0,0,1,1.51-1.73,4.42,4.42,0,0,1,2.71-.42,4,4,0,0,1,2.36,1.19,2.26,2.26,0,0,1,.6,2.07,2.68,2.68,0,0,1-1.5,1.74,4.55,4.55,0,0,1-2.73.39,4,4,0,0,1-2.36-1.2,2.26,2.26,0,0,1-.6-2.07Zm1.77-1.45a2.45,2.45,0,0,0-1.32,1.52,2,2,0,0,0,.53,1.81,3.59,3.59,0,0,0,2.07,1.05,3.94,3.94,0,0,0,2.38-.34,2.11,2.11,0,0,0,1.3-2.59,1.73,1.73,0,0,0-.51-.74,3.53,3.53,0,0,0-2.06-1A4,4,0,0,0,195.64,180.3Z"/><path class="cls-11" d="M194.85,181.48a2.2,2.2,0,0,1,1.28-1.11c.89-.27,1.47,0,1.46.18s-.64.06-1.23.23a1.73,1.73,0,0,0-.87.58C195.13,182,194.84,181.75,194.85,181.48Z"/><path class="cls-9" d="M167.72,178.52c.26-1.09,1.65-1.79,3.11-1.56s2.43,1.3,2.17,2.39-1.65,1.8-3.11,1.57S167.46,179.61,167.72,178.52Z"/><path class="cls-10" d="M167.54,178.49a2.11,2.11,0,0,1,1.2-1.33,3.49,3.49,0,0,1,4,.64,1.8,1.8,0,0,1,.48,1.62,2.13,2.13,0,0,1-1.18,1.36,3.53,3.53,0,0,1-4-.64,1.83,1.83,0,0,1-.47-1.62Zm1.39-1.14a1.94,1.94,0,0,0-1,1.19,1.59,1.59,0,0,0,.41,1.42,2.72,2.72,0,0,0,1.62.82,3.16,3.16,0,0,0,1.88-.26,1.86,1.86,0,0,0,1-1.19,1.53,1.53,0,0,0-.41-1.42,2.75,2.75,0,0,0-1.61-.82A3.12,3.12,0,0,0,168.93,177.35Z"/><path class="cls-11" d="M168.31,178.28a1.67,1.67,0,0,1,1-.87c.71-.21,1.16,0,1.15.14s-.5,0-1,.18a1.39,1.39,0,0,0-.7.46C168.53,178.64,168.36,178.49,168.31,178.28Z"/><path class="cls-9" d="M163.29,175.44c.26-1.1,1.65-1.8,3.11-1.57s2.43,1.31,2.18,2.4-1.66,1.79-3.12,1.56S163,176.53,163.29,175.44Z"/><path class="cls-10" d="M163.11,175.41a2.1,2.1,0,0,1,1.18-1.36,3.61,3.61,0,0,1,2.16-.28,3.24,3.24,0,0,1,1.87.93,1.83,1.83,0,0,1,.47,1.62,2.13,2.13,0,0,1-1.18,1.36,3.52,3.52,0,0,1-2.16.28,3.2,3.2,0,0,1-1.86-.92,1.82,1.82,0,0,1-.48-1.63Zm1.38-1.14a1.88,1.88,0,0,0-1,1.19,1.55,1.55,0,0,0,.41,1.42,2.78,2.78,0,0,0,1.61.82,3.19,3.19,0,0,0,1.87-.26,1.89,1.89,0,0,0,1-1.19,1.58,1.58,0,0,0-.41-1.42,2.78,2.78,0,0,0-1.62-.82A3.16,3.16,0,0,0,164.49,174.27Z"/><path class="cls-11" d="M163.88,175.2a1.72,1.72,0,0,1,1-.87c.69-.21,1.15,0,1.15.14s-.51,0-1,.18a1.37,1.37,0,0,0-.71.47C164.13,175.6,163.89,175.43,163.88,175.2Z"/><path class="cls-9" d="M172.33,171.39a2.66,2.66,0,0,1,3.11-1.56c1.46.23,2.43,1.3,2.17,2.39a2.66,2.66,0,0,1-3.11,1.57C173,173.55,172.07,172.48,172.33,171.39Z"/><path class="cls-10" d="M172.16,171.36a2.11,2.11,0,0,1,1.17-1.36,3.62,3.62,0,0,1,2.17-.27,3.2,3.2,0,0,1,1.86.92,1.77,1.77,0,0,1,.47,1.62,2.12,2.12,0,0,1-1.18,1.37,3.54,3.54,0,0,1-4-.63,1.8,1.8,0,0,1-.47-1.63Zm1.38-1.14a1.89,1.89,0,0,0-1,1.19,1.58,1.58,0,0,0,.41,1.43,2.87,2.87,0,0,0,1.62.82,3.2,3.2,0,0,0,1.87-.27,1.9,1.9,0,0,0,1-1.19,1.57,1.57,0,0,0-.42-1.42,2.72,2.72,0,0,0-1.61-.82A3.13,3.13,0,0,0,173.54,170.22Z"/><path class="cls-11" d="M172.92,171.15a1.72,1.72,0,0,1,1-.87c.7-.21,1.15,0,1.14.14s-.49.05-1,.18a1.26,1.26,0,0,0-.7.47C173.14,171.51,172.93,171.39,172.92,171.15Z"/><path class="cls-9" d="M182.7,176.58c.35-1.37,2-2.21,3.84-1.92s3,1.61,2.68,3-2,2.21-3.84,1.93S182.39,177.93,182.7,176.58Z"/><path class="cls-10" d="M182.49,176.54a2.58,2.58,0,0,1,1.42-1.65,4.4,4.4,0,0,1,2.64-.37,3.91,3.91,0,0,1,2.27,1.15,2.19,2.19,0,0,1,.59,2,2.6,2.6,0,0,1-1.46,1.68,4.35,4.35,0,0,1-2.64.38,3.89,3.89,0,0,1-2.27-1.16,2.19,2.19,0,0,1-.59-2Zm1.7-1.39a2.33,2.33,0,0,0-1.27,1.46,1.94,1.94,0,0,0,.51,1.76,3.44,3.44,0,0,0,2,1,3.86,3.86,0,0,0,2.28-.36,2.2,2.2,0,0,0,1.27-1.46,1.9,1.9,0,0,0-.51-1.75,3.38,3.38,0,0,0-2-1A3.86,3.86,0,0,0,184.19,175.15Z"/><path class="cls-11" d="M183.43,176.29a2.15,2.15,0,0,1,1.23-1.08c.87-.25,1.43,0,1.4.22s-.61.07-1.19.23a1.75,1.75,0,0,0-.88.58C183.7,176.74,183.45,176.63,183.43,176.29Z"/><path class="cls-9" d="M153.83,198.78c.25-1.1,1.64-1.79,3.1-1.56s2.43,1.3,2.17,2.4-1.64,1.78-3.1,1.55S153.59,199.82,153.83,198.78Z"/><path class="cls-10" d="M153.64,198.75a2.14,2.14,0,0,1,1.19-1.36,3.57,3.57,0,0,1,2.15-.28,3.27,3.27,0,0,1,1.87.93,1.8,1.8,0,0,1,.47,1.62,2.14,2.14,0,0,1-1.18,1.37,3.5,3.5,0,0,1-2.15.27,3.14,3.14,0,0,1-1.87-.92,1.81,1.81,0,0,1-.47-1.63Zm1.39-1.14a1.86,1.86,0,0,0-1,1.2,1.54,1.54,0,0,0,.42,1.41A2.75,2.75,0,0,0,156,201a3.13,3.13,0,0,0,1.87-.26,1.87,1.87,0,0,0,1-1.19,1.59,1.59,0,0,0-.41-1.42,3.11,3.11,0,0,0-3.49-.56Z"/><path class="cls-11" d="M154.41,198.54a1.76,1.76,0,0,1,1-.87c.7-.21,1.16,0,1.14.14s-.5,0-1,.18a1.32,1.32,0,0,0-.71.47C154.63,198.91,154.43,198.77,154.41,198.54Z"/><path class="cls-9" d="M152.14,189.86a2.66,2.66,0,0,1,3.11-1.56c1.46.23,2.43,1.31,2.17,2.4s-1.65,1.79-3.11,1.56S151.88,191,152.14,189.86Z"/><path class="cls-10" d="M152,189.81a2.11,2.11,0,0,1,1.18-1.35,3.53,3.53,0,0,1,2.16-.28,3.21,3.21,0,0,1,1.87.93,1.8,1.8,0,0,1,.47,1.62,2.13,2.13,0,0,1-1.18,1.36,3.65,3.65,0,0,1-2.15.28,3.14,3.14,0,0,1-1.87-.92,1.81,1.81,0,0,1-.47-1.63Zm1.39-1.13a1.89,1.89,0,0,0-1,1.19,1.59,1.59,0,0,0,.42,1.42,2.78,2.78,0,0,0,1.62.82,3.12,3.12,0,0,0,1.87-.27,1.87,1.87,0,0,0,1-1.18,1.53,1.53,0,0,0-.41-1.42,2.75,2.75,0,0,0-1.61-.82,3.08,3.08,0,0,0-1.9.28Z"/><path class="cls-11" d="M152.73,189.62a1.67,1.67,0,0,1,1-.86c.7-.22,1.15,0,1.14.13s-.49.05-1,.18a1.26,1.26,0,0,0-.7.47C153,190,152.74,189.86,152.73,189.62Z"/><path class="cls-9" d="M145.93,197.08c.29-1.28,1.93-2.1,3.64-1.82s2.87,1.55,2.55,2.81-1.94,2.09-3.65,1.82S145.62,198.36,145.93,197.08Z"/><path class="cls-10" d="M145.71,197a2.52,2.52,0,0,1,1.39-1.59,4.1,4.1,0,0,1,2.5-.35,3.73,3.73,0,0,1,2.17,1.09,2.12,2.12,0,0,1,.57,1.93,2.52,2.52,0,0,1-1.39,1.59,4.08,4.08,0,0,1-4.7-.79,2.1,2.1,0,0,1-.57-1.92Zm1.64-1.33a2.21,2.21,0,0,0-1.21,1.4,1.88,1.88,0,0,0,.48,1.67,3.26,3.26,0,0,0,1.89.95,3.63,3.63,0,0,0,2.19-.3,2.12,2.12,0,0,0,1.2-1.4,1.78,1.78,0,0,0-.47-1.67,3.34,3.34,0,0,0-1.89-1,3.74,3.74,0,0,0-2.2.32Z"/><path class="cls-11" d="M146.59,196.82a2,2,0,0,1,1.16-1c.82-.24,1.36,0,1.36.15s-.59.06-1.12.21a1.62,1.62,0,0,0-.82.54C146.86,197.24,146.63,197.07,146.59,196.82Z"/><path class="cls-9" d="M149.23,187c.26-1.09,1.65-1.79,3.1-1.56s2.43,1.31,2.18,2.4-1.65,1.78-3.11,1.55S149,188.13,149.23,187Z"/><path class="cls-10" d="M149.05,187a2.11,2.11,0,0,1,1.19-1.36,3.56,3.56,0,0,1,2.15-.27,3.23,3.23,0,0,1,1.87.92,1.85,1.85,0,0,1,.47,1.63,2.13,2.13,0,0,1-1.18,1.36,3.68,3.68,0,0,1-2.16.28,3.2,3.2,0,0,1-1.86-.92,1.8,1.8,0,0,1-.47-1.63Zm1.38-1.13a1.9,1.9,0,0,0-1,1.19,1.59,1.59,0,0,0,.46,1.42,2.82,2.82,0,0,0,1.62.81,3,3,0,0,0,1.87-.27,1.87,1.87,0,0,0,1-1.19,1.55,1.55,0,0,0-.42-1.41,3.07,3.07,0,0,0-3.48-.56Z"/><path class="cls-11" d="M149.82,186.8a1.69,1.69,0,0,1,1-.86c.7-.21,1.15,0,1.14.13s-.49.05-.95.18a1.32,1.32,0,0,0-.71.47C150.06,187.21,149.83,187,149.82,186.8Z"/><path class="cls-9" d="M141.55,196.8c.25-1.1,1.65-1.8,3.11-1.56s2.43,1.3,2.17,2.39-1.65,1.79-3.11,1.56S141.32,197.87,141.55,196.8Z"/><path class="cls-10" d="M141.4,196.74a2.13,2.13,0,0,1,1.17-1.36,3.57,3.57,0,0,1,4,.64,1.81,1.81,0,0,1,.47,1.63,2.11,2.11,0,0,1-1.18,1.35,3.49,3.49,0,0,1-2.15.27,3.14,3.14,0,0,1-1.87-.92,1.85,1.85,0,0,1-.47-1.63Zm1.38-1.12a1.85,1.85,0,0,0-1,1.18,1.56,1.56,0,0,0,.41,1.42,2.75,2.75,0,0,0,1.61.82,3.12,3.12,0,0,0,1.87-.26,1.86,1.86,0,0,0,1-1.19,1.56,1.56,0,0,0-.42-1.43,2.82,2.82,0,0,0-1.62-.81A3,3,0,0,0,142.78,195.62Z"/><path class="cls-11" d="M142.16,196.54a1.74,1.74,0,0,1,1-.88c.71-.2,1.15,0,1.14.14s-.5,0-1,.18a1.58,1.58,0,0,0-.7.47C142.37,196.88,142.17,196.77,142.16,196.54Z"/><path class="cls-9" d="M137.1,176.94c.35-1.5,2.26-2.45,4.25-2.13s3.33,1.79,3,3.29-2.27,2.44-4.26,2.13S136.74,178.44,137.1,176.94Z"/><path class="cls-10" d="M136.85,176.91a2.91,2.91,0,0,1,1.61-1.87,4.86,4.86,0,0,1,5.46.86,2.42,2.42,0,0,1,.65,2.23A2.85,2.85,0,0,1,143,180a4.86,4.86,0,0,1-2.92.42,4.24,4.24,0,0,1-2.53-1.29A2.39,2.39,0,0,1,136.85,176.91Zm1.9-1.56a2.53,2.53,0,0,0-1.43,1.64,2.12,2.12,0,0,0,.56,1.93,4.24,4.24,0,0,0,4.77.76,2.54,2.54,0,0,0,1.42-1.65,2.1,2.1,0,0,0-.56-1.93,4.2,4.2,0,0,0-4.77-.75Z"/><path class="cls-11" d="M137.9,176.62a2.35,2.35,0,0,1,1.36-1.19c1-.29,1.59,0,1.57.18s-.68.06-1.32.25a1.81,1.81,0,0,0-1,.64C138.2,177.12,137.91,176.94,137.9,176.62Z"/><path class="cls-9" d="M132.56,169.15c.29-1.33,2-2.14,3.72-1.86s2.9,1.54,2.61,2.88-2,2.14-3.72,1.86S132.25,170.46,132.56,169.15Z"/><path class="cls-10" d="M132.35,169.12a2.57,2.57,0,0,1,1.42-1.64,4.38,4.38,0,0,1,2.56-.36,3.83,3.83,0,0,1,2.21,1.13,2.12,2.12,0,0,1,.56,1.93,2.57,2.57,0,0,1-1.42,1.64,4.3,4.3,0,0,1-2.56.36,3.71,3.71,0,0,1-2.21-1.12,2.17,2.17,0,0,1-.56-1.93Zm1.62-1.33a2,2,0,0,0-1.16,2.5,1.58,1.58,0,0,0,.43.62,3.24,3.24,0,0,0,1.93,1,3.79,3.79,0,0,0,2.28-.36,2.23,2.23,0,0,0,1.23-1.42,1.82,1.82,0,0,0-.5-1.7,3.18,3.18,0,0,0-1.93-1,3.72,3.72,0,0,0-2.24.32Z"/><path class="cls-11" d="M133.26,168.88a2.07,2.07,0,0,1,1.2-1c.85-.25,1.38,0,1.37.16s-.6,0-1.12.21a1.58,1.58,0,0,0-.88.57C133.53,169.31,133.31,169.13,133.26,168.88Z"/><path class="cls-9" d="M126.13,179.29c.34-1.37,2.08-2.27,3.93-2s3.09,1.66,2.76,3-2.09,2.28-3.94,2S125.8,180.67,126.13,179.29Z"/><path class="cls-10" d="M125.9,179.26a2.7,2.7,0,0,1,1.49-1.73,4.48,4.48,0,0,1,5.06.81,2.27,2.27,0,0,1,.6,2,2.73,2.73,0,0,1-1.5,1.74,4.51,4.51,0,0,1-5.06-.81A2.24,2.24,0,0,1,125.9,179.26Zm1.75-1.44a2.3,2.3,0,0,0-1.3,1.51,1.92,1.92,0,0,0,.52,1.79,3.91,3.91,0,0,0,4.42.71,2.36,2.36,0,0,0,1.31-1.51,2,2,0,0,0-.52-1.8,4,4,0,0,0-4.41-.66Z"/><path class="cls-11" d="M126.87,179a2.21,2.21,0,0,1,1.26-1.1c.89-.27,1.47,0,1.47.18s-.64.06-1.23.23a1.69,1.69,0,0,0-.88.57C127.15,179.46,126.89,179.29,126.87,179Z"/><path class="cls-9" d="M130.9,175.39c.26-1.09,1.65-1.79,3.12-1.55s2.44,1.3,2.17,2.4-1.65,1.79-3.11,1.56S130.64,176.49,130.9,175.39Z"/><path class="cls-10" d="M130.72,175.37A2.17,2.17,0,0,1,131.9,174a3.55,3.55,0,0,1,2.17-.28,3.18,3.18,0,0,1,1.87.93,1.81,1.81,0,0,1,.47,1.63,2.11,2.11,0,0,1-1.19,1.36,3.52,3.52,0,0,1-2.16.28,3.2,3.2,0,0,1-1.86-.92A1.82,1.82,0,0,1,130.72,175.37Zm1.4-1.14a1.84,1.84,0,0,0-1.05,1.2,1.62,1.62,0,0,0,.42,1.42,2.78,2.78,0,0,0,1.62.82,3.24,3.24,0,0,0,1.88-.27,1.86,1.86,0,0,0,1-1.2,1.6,1.6,0,0,0-.41-1.42A3.07,3.07,0,0,0,132.12,174.23Z"/><path class="cls-11" d="M131.49,175.16a1.74,1.74,0,0,1,1-.88c.7-.21,1.16,0,1.15.14s-.5,0-1,.18a1.31,1.31,0,0,0-.7.47C131.71,175.52,131.51,175.39,131.49,175.16Z"/><path class="cls-9" d="M134.73,185.39c.25-1.09,1.64-1.78,3.1-1.55s2.43,1.3,2.17,2.39a2.64,2.64,0,0,1-3.1,1.56C135.44,187.56,134.47,186.48,134.73,185.39Z"/><path class="cls-10" d="M134.54,185.36a2.18,2.18,0,0,1,1.2-1.34,3.54,3.54,0,0,1,4,.64,1.84,1.84,0,0,1,.47,1.62,2.12,2.12,0,0,1-1.18,1.37,3.52,3.52,0,0,1-4-.69,1.8,1.8,0,0,1-.47-1.62Zm1.39-1.13a1.89,1.89,0,0,0-1,1.19,1.65,1.65,0,0,0,.42,1.43,2.89,2.89,0,0,0,1.61.81,3.09,3.09,0,0,0,1.88-.27,1.87,1.87,0,0,0,1-1.19,1.58,1.58,0,0,0-.41-1.41,2.78,2.78,0,0,0-1.62-.82A3.12,3.12,0,0,0,135.93,184.23Z"/><path class="cls-11" d="M135.31,185.16a1.75,1.75,0,0,1,1-.88c.71-.2,1.17,0,1.15.14s-.5.05-1,.19a1.42,1.42,0,0,0-.71.46C135.53,185.52,135.35,185.43,135.31,185.16Z"/><path class="cls-9" d="M138.28,191.27c.26-1.1,1.65-1.8,3.11-1.57s2.43,1.31,2.17,2.4-1.65,1.79-3.11,1.56S138,192.36,138.28,191.27Z"/><path class="cls-10" d="M138.11,191.23a2,2,0,0,1,1.17-1.35,3.53,3.53,0,0,1,2.16-.28,3.18,3.18,0,0,1,1.87.93,1.8,1.8,0,0,1,.46,1.62,2.08,2.08,0,0,1-1.17,1.36,3.53,3.53,0,0,1-4-.63,1.79,1.79,0,0,1-.47-1.63Zm1.38-1.13a1.85,1.85,0,0,0-1,1.19,1.53,1.53,0,0,0,.41,1.42,2.8,2.8,0,0,0,1.62.82,3.12,3.12,0,0,0,1.87-.27,1.86,1.86,0,0,0,1.07-1.21,1.55,1.55,0,0,0-.41-1.42,2.75,2.75,0,0,0-1.61-.82A3.14,3.14,0,0,0,139.49,190.1Z"/><path class="cls-11" d="M138.86,191a1.71,1.71,0,0,1,1-.87c.7-.21,1.15,0,1.14.13s-.49.05-1,.19a1.24,1.24,0,0,0-.7.46C139.09,191.39,138.88,191.26,138.86,191Z"/><path class="cls-9" d="M137.41,186.37c.26-1.1,1.66-1.8,3.11-1.57s2.43,1.31,2.17,2.41-1.65,1.78-3.1,1.55S137.17,187.48,137.41,186.37Z"/><path class="cls-10" d="M137.25,186.36a2.13,2.13,0,0,1,1.18-1.36,3.6,3.6,0,0,1,2.16-.27,3.23,3.23,0,0,1,1.87.92,1.82,1.82,0,0,1,.46,1.63,2.1,2.1,0,0,1-1.18,1.36,3.64,3.64,0,0,1-2.15.28,3.17,3.17,0,0,1-1.86-.92,1.83,1.83,0,0,1-.48-1.63Zm1.38-1.13a1.85,1.85,0,0,0-1,1.19,1.59,1.59,0,0,0,.42,1.42,2.75,2.75,0,0,0,1.61.82,3.12,3.12,0,0,0,1.87-.27,1.89,1.89,0,0,0,1-1.19,1.57,1.57,0,0,0-.42-1.42,2.65,2.65,0,0,0-1.61-.81,3,3,0,0,0-1.88.26Z"/><path class="cls-11" d="M138,186.15a1.73,1.73,0,0,1,1-.82c.7-.22,1.16,0,1.14.13s-.5,0-1,.18a1.32,1.32,0,0,0-.71.47C138.23,186.52,138,186.38,138,186.15Z"/><path class="cls-9" d="M144.14,173.7c.26-1.11,1.65-1.8,3.11-1.56s2.43,1.3,2.17,2.39-1.65,1.79-3.11,1.56S143.88,174.79,144.14,173.7Z"/><path class="cls-10" d="M144,173.66a2.13,2.13,0,0,1,1.17-1.36,3.68,3.68,0,0,1,2.16-.28,3.27,3.27,0,0,1,1.87.93,1.8,1.8,0,0,1,.47,1.62,2.14,2.14,0,0,1-1.18,1.37,3.54,3.54,0,0,1-4-.64,1.84,1.84,0,0,1-.47-1.62Zm1.38-1.13a1.87,1.87,0,0,0-1,1.19,1.59,1.59,0,0,0,.41,1.42,2.71,2.71,0,0,0,1.62.81,3,3,0,0,0,1.87-.26,1.85,1.85,0,0,0,1-1.18,1.56,1.56,0,0,0-.42-1.43,2.74,2.74,0,0,0-1.6-.81A3.08,3.08,0,0,0,145.35,172.53Z"/><path class="cls-11" d="M144.75,173.47a1.67,1.67,0,0,1,1-.87c.7-.21,1.15,0,1.14.14s-.5,0-1,.17a1.61,1.61,0,0,0-.71.47C145,173.82,144.74,173.69,144.75,173.47Z"/><path class="cls-9" d="M137.93,180.91c.29-1.28,1.93-2.09,3.64-1.82s2.87,1.55,2.55,2.81-1.93,2.09-3.65,1.82S137.62,182.19,137.93,180.91Z"/><path class="cls-10" d="M137.72,180.88a2.47,2.47,0,0,1,1.38-1.6,4.18,4.18,0,0,1,2.5-.35,3.63,3.63,0,0,1,2.17,1.1,2.1,2.1,0,0,1,.57,1.92,2.47,2.47,0,0,1-1.39,1.59,4.13,4.13,0,0,1-4.67-.74A2.07,2.07,0,0,1,137.72,180.88Zm1.63-1.33a2.19,2.19,0,0,0-1.21,1.39,1.81,1.81,0,0,0,.48,1.67,3.34,3.34,0,0,0,1.89,1,3.66,3.66,0,0,0,2.2-.3,2.23,2.23,0,0,0,1.2-1.39,1.8,1.8,0,0,0-.48-1.68,3.28,3.28,0,0,0-1.89-1,3.67,3.67,0,0,0-2.2.31Z"/><path class="cls-11" d="M138.61,180.64a2,2,0,0,1,1.17-1c.82-.25,1.36,0,1.36.15s-.59,0-1.12.21a1.56,1.56,0,0,0-.82.54C138.87,181.07,138.62,181,138.61,180.64Z"/><path class="cls-9" d="M141.23,170.87c.26-1.09,1.65-1.78,3.1-1.55s2.43,1.3,2.18,2.39-1.65,1.79-3.11,1.56S141,172,141.23,170.87Z"/><path class="cls-10" d="M141.05,170.84a2.13,2.13,0,0,1,1.18-1.36,3.53,3.53,0,0,1,4,.64,1.83,1.83,0,0,1,.47,1.62,2.17,2.17,0,0,1-1.18,1.37,3.54,3.54,0,0,1-4-.64A1.85,1.85,0,0,1,141.05,170.84Zm1.39-1.13a1.89,1.89,0,0,0-1,1.19,1.59,1.59,0,0,0,.42,1.43,2.77,2.77,0,0,0,1.67.82,3.16,3.16,0,0,0,1.88-.26,1.9,1.9,0,0,0,1-1.19,1.59,1.59,0,0,0-.42-1.42,2.68,2.68,0,0,0-1.61-.81,3,3,0,0,0-1.91.22Z"/><path class="cls-11" d="M141.83,170.63a1.67,1.67,0,0,1,1-.87c.7-.21,1.15,0,1.14.14s-.5,0-1,.18a1.37,1.37,0,0,0-.71.47C142.06,171,141.83,170.87,141.83,170.63Z"/><path class="cls-9" d="M133.57,180.61c.26-1.1,1.66-1.79,3.12-1.56s2.43,1.3,2.17,2.4-1.65,1.79-3.11,1.56S133.32,181.7,133.57,180.61Z"/><path class="cls-10" d="M133.4,180.58a2.11,2.11,0,0,1,1.17-1.36,3.61,3.61,0,0,1,2.16-.28,3.17,3.17,0,0,1,1.86.92,1.8,1.8,0,0,1,.47,1.63,2.11,2.11,0,0,1-1.17,1.36,3.6,3.6,0,0,1-2.16.27,3.13,3.13,0,0,1-1.86-.93,1.77,1.77,0,0,1-.47-1.62Zm1.38-1.13a1.85,1.85,0,0,0-1,1.18,1.55,1.55,0,0,0,.41,1.42,3.07,3.07,0,0,0,3.49.56,1.8,1.8,0,0,0,1-1.19,1.5,1.5,0,0,0-.41-1.42,2.78,2.78,0,0,0-1.61-.82A3.12,3.12,0,0,0,134.78,179.45Z"/><path class="cls-11" d="M134.16,180.38a1.74,1.74,0,0,1,1-.88c.7-.21,1.16,0,1.15.14s-.51,0-1,.18a1.31,1.31,0,0,0-.69.46C134.38,180.73,134.17,180.61,134.16,180.38Z"/><path class="cls-9" d="M120.17,179.23c.35-1.5,2.26-2.46,4.25-2.13s3.34,1.78,3,3.27-2.25,2.46-4.26,2.14S119.83,180.74,120.17,179.23Z"/><path class="cls-10" d="M119.93,179.18a2.92,2.92,0,0,1,1.61-1.85,4.86,4.86,0,0,1,2.92-.42,4.28,4.28,0,0,1,2.53,1.28,2.46,2.46,0,0,1,.66,2.23,2.93,2.93,0,0,1-1.62,1.86,4.91,4.91,0,0,1-2.93.42,4.38,4.38,0,0,1-2.53-1.29,2.49,2.49,0,0,1-.65-2.23Zm1.89-1.54a2.51,2.51,0,0,0-1.43,1.64,2.14,2.14,0,0,0,.56,1.93,3.72,3.72,0,0,0,2.24,1.11,4.19,4.19,0,0,0,2.57-.36,2.52,2.52,0,0,0,1.42-1.64,2.09,2.09,0,0,0-.55-1.93,3.78,3.78,0,0,0-2.21-1.13A4.28,4.28,0,0,0,121.82,177.64Z"/><path class="cls-11" d="M121,178.92a2.34,2.34,0,0,1,1.37-1.19c1-.29,1.57,0,1.56.18s-.68.07-1.32.26a1.85,1.85,0,0,0-1,.63C121.27,179.41,121,179.22,121,178.92Z"/><path class="cls-9" d="M115.64,171.44c.28-1.34,2-2.14,3.77-1.89s2.89,1.54,2.6,2.88-2,2.14-3.77,1.89S115.32,172.75,115.64,171.44Z"/><path class="cls-10" d="M115.43,171.41a2.52,2.52,0,0,1,1.42-1.64,4.23,4.23,0,0,1,2.56-.36,3.75,3.75,0,0,1,2.21,1.11,2.12,2.12,0,0,1,.56,1.93,2.52,2.52,0,0,1-1.42,1.64,4.22,4.22,0,0,1-4.78-.76,2.12,2.12,0,0,1-.56-1.93Zm1.62-1.34a2.23,2.23,0,0,0-1.23,1.42,1.82,1.82,0,0,0,.5,1.7,3.29,3.29,0,0,0,1.93,1,3.74,3.74,0,0,0,2.27-.35,2.23,2.23,0,0,0,1.24-1.43,1.9,1.9,0,0,0-.49-1.7,3.32,3.32,0,0,0-1.93-1,3.71,3.71,0,0,0-2.26.34Z"/><path class="cls-11" d="M116.34,171.16a2,2,0,0,1,1.2-1c.83-.26,1.38,0,1.36.16s-.6.06-1.12.2a1.64,1.64,0,0,0-.88.57C116.61,171.6,116.35,171.44,116.34,171.16Z"/><path class="cls-9" d="M109.19,181.58c.35-1.38,2.1-2.27,4-2s3.08,1.65,2.76,3-2.1,2.27-4,2S108.87,183,109.19,181.58Z"/><path class="cls-10" d="M109,181.54a2.67,2.67,0,0,1,1.5-1.72,4.51,4.51,0,0,1,2.69-.42,4,4,0,0,1,2.35,1.19,2.28,2.28,0,0,1,.59,2,2.66,2.66,0,0,1-1.5,1.73,4.54,4.54,0,0,1-2.67.45,4.11,4.11,0,0,1-2.35-1.19,2.26,2.26,0,0,1-.59-2.07Zm1.76-1.44a2.37,2.37,0,0,0-1.31,1.51,2,2,0,0,0,.52,1.8,3.57,3.57,0,0,0,2.09,1,3.93,3.93,0,0,0,2.31-.3,2.36,2.36,0,0,0,1.32-1.51,2,2,0,0,0-.53-1.81,3.51,3.51,0,0,0-2-1A3.92,3.92,0,0,0,110.73,180.1Z"/><path class="cls-11" d="M110,181.27a2.16,2.16,0,0,1,1.27-1.1c.89-.27,1.46,0,1.46.18s-.64.07-1.23.24a1.66,1.66,0,0,0-.87.58C110.24,181.72,109.93,181.54,110,181.27Z"/><path class="cls-9" d="M114,177.7c.26-1.09,1.65-1.79,3.12-1.56s2.43,1.31,2.18,2.41-1.66,1.79-3.12,1.55S113.72,178.77,114,177.7Z"/><path class="cls-10" d="M113.82,177.63a2.11,2.11,0,0,1,1.18-1.35,3.41,3.41,0,0,1,2.17-.28,3.06,3.06,0,0,1,1.86.92,1.77,1.77,0,0,1,.47,1.62,2.07,2.07,0,0,1-1.18,1.37,3.42,3.42,0,0,1-2.15.27,3.14,3.14,0,0,1-1.87-.92A1.82,1.82,0,0,1,113.82,177.63Zm1.39-1.14a1.86,1.86,0,0,0-1,1.2,1.55,1.55,0,0,0,.41,1.42,2.83,2.83,0,0,0,1.63.82,3.06,3.06,0,0,0,1.87-.27,1.78,1.78,0,0,0,1-1.18,1.55,1.55,0,0,0-.42-1.43,2.84,2.84,0,0,0-1.61-.82,3.14,3.14,0,0,0-1.9.28Z"/><path class="cls-11" d="M114.57,177.44a1.73,1.73,0,0,1,1-.87c.71-.21,1.17,0,1.16.13s-.51.05-1,.19a1.36,1.36,0,0,0-.71.46C114.79,177.81,114.57,177.67,114.57,177.44Z"/><path class="cls-9" d="M117.79,187.68c.26-1.1,1.66-1.79,3.12-1.56s2.43,1.3,2.17,2.39-1.65,1.8-3.11,1.57S117.54,188.77,117.79,187.68Z"/><path class="cls-10" d="M117.62,187.65a2.13,2.13,0,0,1,1.18-1.36A3.49,3.49,0,0,1,121,186a3.15,3.15,0,0,1,1.86.92,1.81,1.81,0,0,1,.48,1.63,2.11,2.11,0,0,1-1.18,1.35,3.53,3.53,0,0,1-2.16.28,3.14,3.14,0,0,1-1.87-.92,1.83,1.83,0,0,1-.48-1.62Zm1.38-1.13a1.86,1.86,0,0,0-1,1.2,1.56,1.56,0,0,0,.41,1.42,3.09,3.09,0,0,0,3.52.58,1.85,1.85,0,0,0,1-1.19,1.58,1.58,0,0,0-.41-1.42,2.8,2.8,0,0,0-1.62-.82A3.06,3.06,0,0,0,119,186.52Z"/><path class="cls-11" d="M118.38,187.45a1.77,1.77,0,0,1,1-.88c.7-.21,1.16,0,1.15.14s-.51,0-1,.18a1.33,1.33,0,0,0-.7.46C118.61,187.8,118.4,187.68,118.38,187.45Z"/><path class="cls-9" d="M121.35,193.53c.26-1.1,1.65-1.78,3.1-1.55s2.43,1.3,2.18,2.39-1.66,1.79-3.11,1.56S121.1,194.64,121.35,193.53Z"/><path class="cls-10" d="M121.18,193.52a2.17,2.17,0,0,1,1.18-1.37,3.55,3.55,0,0,1,4,.64,1.78,1.78,0,0,1,.48,1.62,2.07,2.07,0,0,1-1.19,1.36,3.49,3.49,0,0,1-2.15.28,3.21,3.21,0,0,1-1.87-.93,1.83,1.83,0,0,1-.47-1.62Zm1.39-1.13a1.89,1.89,0,0,0-1,1.19,1.57,1.57,0,0,0,.41,1.41,2.72,2.72,0,0,0,1.62.82,3,3,0,0,0,1.87-.26,1.89,1.89,0,0,0,1-1.19,1.56,1.56,0,0,0-.43-1.42,2.72,2.72,0,0,0-1.61-.82A3,3,0,0,0,122.57,192.39Z"/><path class="cls-11" d="M122,193.31a1.71,1.71,0,0,1,1-.87c.71-.2,1.15,0,1.14.14s-.49,0-1,.17a1.44,1.44,0,0,0-.71.47C122.16,193.68,122,193.54,122,193.31Z"/><path class="cls-9" d="M120.5,188.68c.26-1.1,1.66-1.79,3.11-1.56s2.43,1.3,2.18,2.39-1.66,1.79-3.11,1.56S120.25,189.77,120.5,188.68Z"/><path class="cls-10" d="M120.33,188.64a2.11,2.11,0,0,1,1.17-1.36,3.55,3.55,0,0,1,4,.64,1.78,1.78,0,0,1,.48,1.62,2.1,2.1,0,0,1-1.18,1.36,3.49,3.49,0,0,1-2.15.27,3.1,3.1,0,0,1-1.87-.93,1.83,1.83,0,0,1-.47-1.62Zm1.38-1.12a1.83,1.83,0,0,0-1,1.18,1.56,1.56,0,0,0,.41,1.42,2.75,2.75,0,0,0,1.61.82,3.12,3.12,0,0,0,1.87-.26,1.89,1.89,0,0,0,1-1.19,1.56,1.56,0,0,0-.42-1.43,2.74,2.74,0,0,0-1.61-.81,3.1,3.1,0,0,0-1.86.29Z"/><path class="cls-11" d="M121.09,188.44a1.74,1.74,0,0,1,1-.88c.71-.2,1.15,0,1.14.14s-.5.05-1,.18a1.46,1.46,0,0,0-.7.47C121.31,188.8,121.11,188.67,121.09,188.44Z"/><path class="cls-9" d="M127.22,176c.26-1.09,1.66-1.78,3.12-1.55s2.43,1.3,2.16,2.4a2.64,2.64,0,0,1-3.1,1.55C127.94,178.14,127,177.07,127.22,176Z"/><path class="cls-10" d="M127.05,176a2.14,2.14,0,0,1,1.18-1.37,3.53,3.53,0,0,1,2.16-.27,3.15,3.15,0,0,1,1.86.92,1.79,1.79,0,0,1,.47,1.63,2.09,2.09,0,0,1-1.17,1.35,3.63,3.63,0,0,1-2.17.28,3.22,3.22,0,0,1-1.86-.93,1.77,1.77,0,0,1-.47-1.62Zm1.39-1.14a1.89,1.89,0,0,0-1,1.19,1.59,1.59,0,0,0,.42,1.42,2.75,2.75,0,0,0,1.61.82,3.16,3.16,0,0,0,1.88-.26,1.82,1.82,0,0,0,1-1.2,1.54,1.54,0,0,0-.41-1.42,2.76,2.76,0,0,0-1.61-.81,3.06,3.06,0,0,0-1.88.25Z"/><path class="cls-11" d="M127.81,175.74a1.74,1.74,0,0,1,1-.87c.7-.21,1.17,0,1.15.14s-.5,0-1,.18a1.37,1.37,0,0,0-.7.46C128,176.11,127.79,176,127.81,175.74Z"/><path class="cls-9" d="M121,183.2c.31-1.28,1.93-2.11,3.65-1.83s2.86,1.55,2.54,2.81-1.93,2.1-3.64,1.83S120.69,184.48,121,183.2Z"/><path class="cls-10" d="M120.79,183.17a2.5,2.5,0,0,1,1.38-1.6,4.15,4.15,0,0,1,2.51-.36,3.59,3.59,0,0,1,2.16,1.11,2,2,0,0,1,.57,1.92,2.52,2.52,0,0,1-1.38,1.6,4.26,4.26,0,0,1-2.5.35,3.74,3.74,0,0,1-2.17-1.1A2.05,2.05,0,0,1,120.79,183.17Zm1.63-1.33a2.11,2.11,0,0,0-1.2,1.39,1.8,1.8,0,0,0,.48,1.66,3.22,3.22,0,0,0,1.89,1,3.74,3.74,0,0,0,2.2-.31,2.22,2.22,0,0,0,1.21-1.39,1.84,1.84,0,0,0-.49-1.67,3.16,3.16,0,0,0-1.89-1,3.56,3.56,0,0,0-2.21.32Z"/><path class="cls-11" d="M121.7,183a2.07,2.07,0,0,1,1.18-1c.82-.25,1.35,0,1.35.15s-.59,0-1.12.2a1.49,1.49,0,0,0-.82.54C121.94,183.35,121.7,183.2,121.7,183Z"/><path class="cls-9" d="M124.32,173.18c.26-1.09,1.65-1.79,3.11-1.56s2.43,1.31,2.17,2.4-1.65,1.79-3.11,1.56S124.05,174.25,124.32,173.18Z"/><path class="cls-10" d="M124.12,173.13a2.13,2.13,0,0,1,1.18-1.36,3.53,3.53,0,0,1,2.16-.28,3.12,3.12,0,0,1,1.86.92,1.83,1.83,0,0,1,.48,1.63,2.11,2.11,0,0,1-1.18,1.35,3.53,3.53,0,0,1-2.16.28,3.2,3.2,0,0,1-1.87-.92,1.81,1.81,0,0,1-.48-1.62Zm1.39-1.13a1.85,1.85,0,0,0-1,1.18,1.55,1.55,0,0,0,.41,1.42,3.09,3.09,0,0,0,3.49.56,1.84,1.84,0,0,0,1-1.2,1.57,1.57,0,0,0-.41-1.41,2.8,2.8,0,0,0-1.62-.82A3.12,3.12,0,0,0,125.51,172Z"/><path class="cls-11" d="M124.89,172.93a1.74,1.74,0,0,1,1-.88c.69-.21,1.16,0,1.15.13s-.51,0-1,.19a1.36,1.36,0,0,0-.71.46C125.11,173.28,124.91,173.16,124.89,172.93Z"/><path class="cls-9" d="M116.62,182.86a2.66,2.66,0,0,1,3.11-1.56c1.46.23,2.44,1.31,2.18,2.4a2.64,2.64,0,0,1-3.11,1.56C117.34,185,116.38,184,116.62,182.86Z"/><path class="cls-10" d="M116.47,182.87a2.13,2.13,0,0,1,1.18-1.36,3.52,3.52,0,0,1,2.16-.28,3.2,3.2,0,0,1,1.86.92,1.8,1.8,0,0,1,.47,1.62,2.13,2.13,0,0,1-1.18,1.36,3.5,3.5,0,0,1-2.15.28,3.14,3.14,0,0,1-1.87-.92A1.83,1.83,0,0,1,116.47,182.87Zm1.38-1.14a1.8,1.8,0,0,0-1,1.19,1.54,1.54,0,0,0,.41,1.42,2.78,2.78,0,0,0,1.61.82,3.12,3.12,0,0,0,1.87-.27,1.8,1.8,0,0,0,1-1.18,1.53,1.53,0,0,0-.41-1.42A3.07,3.07,0,0,0,117.85,181.73Z"/><path class="cls-11" d="M117.24,182.65a1.72,1.72,0,0,1,1-.86c.7-.21,1.16,0,1.15.14s-.5,0-1,.17a1.37,1.37,0,0,0-.71.47C117.46,183,117.28,182.87,117.24,182.65Z"/><path class="cls-9" d="M103.62,170.34c.36-1.5,2.26-2.45,4.25-2.14s3.33,1.79,3,3.29-2.26,2.45-4.25,2.13S103.27,171.83,103.62,170.34Z"/><path class="cls-10" d="M103.38,170.3a2.88,2.88,0,0,1,1.61-1.87,4.84,4.84,0,0,1,5.45.87,2.43,2.43,0,0,1,.66,2.22,2.9,2.9,0,0,1-1.62,1.87,4.9,4.9,0,0,1-2.93.41,4.34,4.34,0,0,1-2.53-1.28A2.42,2.42,0,0,1,103.38,170.3Zm1.89-1.55a2.57,2.57,0,0,0-1.43,1.63,2.14,2.14,0,0,0,.56,1.93,4.22,4.22,0,0,0,4.77.76,2.51,2.51,0,0,0,1.43-1.64,2.14,2.14,0,0,0-.56-1.93,3.8,3.8,0,0,0-2.22-1.13A4.29,4.29,0,0,0,105.27,168.75Z"/><path class="cls-11" d="M104.43,170a2.33,2.33,0,0,1,1.36-1.19c1-.29,1.58,0,1.57.18s-.69.07-1.32.26a1.81,1.81,0,0,0-1,.63C104.72,170.52,104.44,170.34,104.43,170Z"/><path class="cls-9" d="M99.09,162.55c.28-1.34,2-2.15,3.72-1.86s2.89,1.53,2.6,2.88-2,2.14-3.72,1.85S98.78,163.86,99.09,162.55Z"/><path class="cls-10" d="M98.87,162.52a2.61,2.61,0,0,1,1.43-1.64,4.3,4.3,0,0,1,2.56-.36,3.85,3.85,0,0,1,2.21,1.12,2.14,2.14,0,0,1,.56,1.93,2.51,2.51,0,0,1-1.43,1.64,4.3,4.3,0,0,1-2.56.36,3.72,3.72,0,0,1-2.2-1.11,2.16,2.16,0,0,1-.56-1.93Zm1.63-1.34a2,2,0,0,0-1.17,2.5,1.81,1.81,0,0,0,.43.63,3.34,3.34,0,0,0,1.94,1A3.76,3.76,0,0,0,104,165a2.21,2.21,0,0,0,1.23-1.43,1.8,1.8,0,0,0-.49-1.69,3.24,3.24,0,0,0-1.93-1,3.68,3.68,0,0,0-2.25.33Z"/><path class="cls-11" d="M99.79,162.27a2,2,0,0,1,1.2-1.05c.84-.24,1.38,0,1.36.17s-.59.05-1.12.2a1.54,1.54,0,0,0-.87.58C100.06,162.7,99.8,162.55,99.79,162.27Z"/><path class="cls-9" d="M92.65,172.68c.34-1.38,2.09-2.27,3.94-2s3.09,1.66,2.76,3-2.1,2.28-3.95,2S92.32,174.07,92.65,172.68Z"/><path class="cls-10" d="M92.42,172.65a2.74,2.74,0,0,1,1.5-1.73,4.48,4.48,0,0,1,5,.81,2.25,2.25,0,0,1,.6,2.05,2.67,2.67,0,0,1-1.49,1.73,4.43,4.43,0,0,1-5-.82,2.27,2.27,0,0,1-.6-2.06Zm1.77-1.41a2.4,2.4,0,0,0-1.3,1.51,1.94,1.94,0,0,0,.53,1.8,3.9,3.9,0,0,0,4.42.71,2.36,2.36,0,0,0,1.31-1.52,2,2,0,0,0-.52-1.79A4,4,0,0,0,94.19,171.24Z"/><path class="cls-11" d="M93.39,172.38a2.26,2.26,0,0,1,1.27-1.1c.89-.26,1.46,0,1.46.18s-.64.06-1.23.23a1.73,1.73,0,0,0-.87.58C93.67,172.85,93.41,172.68,93.39,172.38Z"/><path class="cls-9" d="M97.43,168.79c.25-1.09,1.65-1.8,3.11-1.56s2.45,1.31,2.18,2.4a2.64,2.64,0,0,1-3.11,1.56C98.15,171,97.17,169.88,97.43,168.79Z"/><path class="cls-10" d="M97.25,168.76a2.13,2.13,0,0,1,1.18-1.36,3.53,3.53,0,0,1,2.16-.28,3.07,3.07,0,0,1,1.87.93,1.77,1.77,0,0,1,.47,1.62,2.1,2.1,0,0,1-1.18,1.36,3.53,3.53,0,0,1-2.16.28,3.12,3.12,0,0,1-1.87-.92A1.82,1.82,0,0,1,97.25,168.76Zm1.39-1.13a1.84,1.84,0,0,0-1,1.19,1.59,1.59,0,0,0,.42,1.42,3.09,3.09,0,0,0,3.5.56,1.92,1.92,0,0,0,1-1.2,1.57,1.57,0,0,0-.42-1.42A3.05,3.05,0,0,0,98.64,167.63Z"/><path class="cls-11" d="M98,168.56a1.71,1.71,0,0,1,1-.88c.7-.21,1.15,0,1.14.14s-.5,0-1,.18a1.44,1.44,0,0,0-.7.46C98.24,168.91,98,168.79,98,168.56Z"/><path class="cls-9" d="M101.25,178.79a2.64,2.64,0,0,1,3.1-1.56c1.46.23,2.43,1.31,2.17,2.4s-1.64,1.78-3.1,1.55S101,179.88,101.25,178.79Z"/><path class="cls-10" d="M101.07,178.76a2.17,2.17,0,0,1,1.18-1.37,3.55,3.55,0,0,1,4,.64,1.85,1.85,0,0,1,.47,1.63,2.13,2.13,0,0,1-1.18,1.36,3.53,3.53,0,0,1-4-.64A1.8,1.8,0,0,1,101.07,178.76Zm1.38-1.13a1.87,1.87,0,0,0-1,1.19,1.57,1.57,0,0,0,.42,1.42,2.74,2.74,0,0,0,1.61.81,3.12,3.12,0,0,0,1.87-.26,1.89,1.89,0,0,0,1-1.19,1.59,1.59,0,0,0-.42-1.43,2.81,2.81,0,0,0-1.61-.8,3,3,0,0,0-1.83.23Z"/><path class="cls-11" d="M101.86,178.53a1.77,1.77,0,0,1,1-.87c.71-.2,1.17,0,1.15.14s-.5,0-1,.18a1.48,1.48,0,0,0-.71.47C102.09,178.89,101.87,178.82,101.86,178.53Z"/><path class="cls-9" d="M104.81,184.66c.25-1.09,1.65-1.79,3.11-1.56s2.43,1.3,2.17,2.39-1.65,1.79-3.11,1.56S104.55,185.75,104.81,184.66Z"/><path class="cls-10" d="M104.63,184.63a2.1,2.1,0,0,1,1.18-1.36A3.49,3.49,0,0,1,108,183a3.07,3.07,0,0,1,1.87.93,1.8,1.8,0,0,1,.47,1.62,2.11,2.11,0,0,1-1.17,1.36,3.56,3.56,0,0,1-4-.63,1.81,1.81,0,0,1-.48-1.63Zm1.39-1.14a1.89,1.89,0,0,0-1,1.19,1.59,1.59,0,0,0,.42,1.43,2.76,2.76,0,0,0,1.62.81,3.06,3.06,0,0,0,1.87-.27,1.84,1.84,0,0,0,1-1.18,1.54,1.54,0,0,0-.41-1.42,2.75,2.75,0,0,0-1.61-.82A3.12,3.12,0,0,0,106,183.49Z"/><path class="cls-11" d="M105.39,184.42a1.74,1.74,0,0,1,1-.87c.7-.21,1.15,0,1.14.13s-.5,0-1,.19a1.29,1.29,0,0,0-.7.47C105.61,184.78,105.4,184.65,105.39,184.42Z"/><path class="cls-9" d="M103.93,179.76c.25-1.09,1.65-1.8,3.11-1.56s2.43,1.3,2.16,2.4a2.64,2.64,0,0,1-3.1,1.55C104.64,181.92,103.7,180.87,103.93,179.76Z"/><path class="cls-10" d="M103.77,179.76A2.14,2.14,0,0,1,105,178.4a3.5,3.5,0,0,1,2.15-.28,3.21,3.21,0,0,1,1.87.93,1.8,1.8,0,0,1,.47,1.62,2.11,2.11,0,0,1-1.17,1.36,3.53,3.53,0,0,1-2.16.28,3.2,3.2,0,0,1-1.87-.92,1.81,1.81,0,0,1-.47-1.63Zm1.39-1.14a1.91,1.91,0,0,0-1,1.19,1.56,1.56,0,0,0,.43,1.42,2.75,2.75,0,0,0,1.61.82,3.06,3.06,0,0,0,1.87-.27,1.87,1.87,0,0,0,1-1.19,1.57,1.57,0,0,0-.41-1.41,2.72,2.72,0,0,0-1.62-.82A3,3,0,0,0,105.16,178.62Z"/><path class="cls-11" d="M104.54,179.55a1.72,1.72,0,0,1,1-.87c.7-.21,1.16,0,1.14.13s-.5.05-1,.19a1.36,1.36,0,0,0-.71.46C104.75,179.91,104.55,179.78,104.54,179.55Z"/><path class="cls-9" d="M110.68,167.09c.25-1.1,1.64-1.79,3.1-1.56s2.43,1.3,2.17,2.39a2.66,2.66,0,0,1-3.11,1.57C111.38,169.25,110.41,168.18,110.68,167.09Z"/><path class="cls-10" d="M110.49,167.06a2.13,2.13,0,0,1,1.18-1.36,3.67,3.67,0,0,1,2.16-.28,3.29,3.29,0,0,1,1.87.92,1.85,1.85,0,0,1,.47,1.63,2.11,2.11,0,0,1-1.19,1.36,3.51,3.51,0,0,1-4-.64,1.77,1.77,0,0,1-.47-1.62Zm1.39-1.14a1.94,1.94,0,0,0-1,1.19,1.57,1.57,0,0,0,.42,1.42,2.67,2.67,0,0,0,1.61.82,3.16,3.16,0,0,0,1.88-.26,2,2,0,0,0,1-1.19,1.6,1.6,0,0,0-.43-1.44,2.74,2.74,0,0,0-1.61-.81A3.09,3.09,0,0,0,111.88,165.92Z"/><path class="cls-11" d="M111.27,166.86a1.69,1.69,0,0,1,1-.88c.7-.2,1.15,0,1.14.14s-.5,0-1,.18a1.53,1.53,0,0,0-.71.47C111.48,167.21,111.27,167.09,111.27,166.86Z"/><path class="cls-9" d="M104.45,174.31c.3-1.28,1.93-2.1,3.64-1.83s2.87,1.56,2.55,2.82-1.93,2.09-3.64,1.82S104.14,175.59,104.45,174.31Z"/><path class="cls-10" d="M104.24,174.27a2.5,2.5,0,0,1,1.38-1.59,4.12,4.12,0,0,1,2.53-.31,3.68,3.68,0,0,1,2.17,1.09,2.12,2.12,0,0,1,.57,1.93,2.5,2.5,0,0,1-1.38,1.59,4.07,4.07,0,0,1-2.51.34,3.55,3.55,0,0,1-2.16-1.08,2.07,2.07,0,0,1-.57-1.93Zm1.63-1.33a2.24,2.24,0,0,0-1.21,1.4,1.82,1.82,0,0,0,.48,1.66,3.27,3.27,0,0,0,1.9,1,3.59,3.59,0,0,0,2.2-.3,2.24,2.24,0,0,0,1.2-1.39,1.81,1.81,0,0,0-.48-1.67,3.25,3.25,0,0,0-1.89-1,3.55,3.55,0,0,0-2.21.31Z"/><path class="cls-11" d="M105.16,174a2,2,0,0,1,1.16-1c.82-.24,1.36,0,1.36.15s-.59.06-1.12.21a1.62,1.62,0,0,0-.82.54C105.43,174.44,105.17,174.33,105.16,174Z"/><path class="cls-9" d="M107.76,164.27a2.64,2.64,0,0,1,3.1-1.56c1.46.23,2.43,1.3,2.17,2.39s-1.64,1.79-3.1,1.56S107.5,165.36,107.76,164.27Z"/><path class="cls-10" d="M107.58,164.24a2.11,2.11,0,0,1,1.18-1.37,3.53,3.53,0,0,1,4,.64,1.77,1.77,0,0,1,.47,1.62A2.09,2.09,0,0,1,112,166.5a3.51,3.51,0,0,1-4-.64A1.77,1.77,0,0,1,107.58,164.24ZM109,163.1a1.89,1.89,0,0,0-1,1.19,1.58,1.58,0,0,0,.41,1.43,2.76,2.76,0,0,0,1.62.81,3.12,3.12,0,0,0,1.87-.26,1.87,1.87,0,0,0,1-1.19,1.56,1.56,0,0,0-.42-1.42,2.75,2.75,0,0,0-1.61-.82A3.12,3.12,0,0,0,109,163.1Z"/><path class="cls-11" d="M108.34,164a1.73,1.73,0,0,1,1-.87c.71-.21,1.16,0,1.15.14s-.5,0-1,.18a1.39,1.39,0,0,0-.7.47C108.56,164.39,108.36,164.26,108.34,164Z"/><path class="cls-9" d="M100.11,174c.26-1.09,1.66-1.79,3.12-1.55s2.43,1.3,2.17,2.39-1.65,1.79-3.11,1.56S99.84,175.1,100.11,174Z"/><path class="cls-10" d="M99.93,174a2.08,2.08,0,0,1,1.17-1.36,3.49,3.49,0,0,1,2.15-.27,3,3,0,0,1,1.86.92,1.79,1.79,0,0,1,.48,1.63,2.11,2.11,0,0,1-1.18,1.35,3.49,3.49,0,0,1-2.15.27,3.14,3.14,0,0,1-1.87-.92,1.83,1.83,0,0,1-.47-1.62Zm1.38-1.13a1.85,1.85,0,0,0-1,1.19,1.54,1.54,0,0,0,.41,1.42,3.11,3.11,0,0,0,3.48.56,1.86,1.86,0,0,0,1-1.2,1.53,1.53,0,0,0-.42-1.36,2.8,2.8,0,0,0-1.62-.82A3.11,3.11,0,0,0,101.31,172.84Z"/><path class="cls-11" d="M100.68,173.77a1.77,1.77,0,0,1,1-.88c.71-.21,1.16,0,1.15.14s-.5,0-1,.18a1.35,1.35,0,0,0-.7.47C100.91,174.13,100.7,174,100.68,173.77Z"/></svg>