<svg id="Layer_51" data-name="Layer 51" xmlns="http://www.w3.org/2000/svg" viewBox="0 0 370 330"><defs><style>.cls-1{fill:#e2110d;}.cls-1,.cls-10,.cls-11,.cls-12,.cls-2,.cls-3,.cls-4,.cls-5,.cls-6,.cls-7,.cls-8,.cls-9{fill-rule:evenodd;}.cls-2{fill:#ef110c;}.cls-3{fill:#d30e0e;}.cls-4{fill:#3e6c1c;}.cls-5{fill:#f16353;opacity:0.67;}.cls-6{fill:#698118;}.cls-7{fill:#f33817;}.cls-8{fill:#f28862;}.cls-9{fill:#df0f0c;}.cls-10{fill:#f3762c;}.cls-11{fill:#f4710d;}.cls-12{fill:#f79c12;}</style></defs><path class="cls-1" d="M164.35,149.91C96.18,127.55,91.1,239,169.84,238.49c66.44-.46,73.89-112.24-5.49-88.58"/><path class="cls-2" d="M164.35,149.91c-29.7-9.74-47.42,5.93-51.45,26.68-6.27,39.7,96.44,35.69,68.73-29.87a75.27,75.27,0,0,0-17.28,3.19"/><path class="cls-3" d="M118.28,210.79c8.39,15.61,25.31,27.88,51.56,27.7,56.12-.39,70.15-80.2,25.31-90.73,20.11,47-30.09,93.79-76.87,63"/><path class="cls-4" d="M164.07,153a130.81,130.81,0,0,1,1.24-16.16c2-12.66,3.55-11.33,6.89-10.44s.54,4.77-1.78,13.11A81.2,81.2,0,0,0,168.54,153Z"/><path class="cls-5" d="M137.19,154s-13,7.21-15.39,18c-5.63,25.13,27.53-6.59,19.4-18-1.2-1.69-4,0-4,0"/><path class="cls-4" d="M166.12,147.06s-12.25-3.47-18.17-3.47-10.69,3.34-13.42,4.46a11.42,11.42,0,0,1-4.74.95s2.57,1.5,9.2-.12,16.58.93,16.58.93-5.6,3.92-8,6.77-3.46,8.52-3.46,8.52a14.49,14.49,0,0,1,7.58-6.63,52.35,52.35,0,0,0,9.42-4.51s1.06,3.12,6.19,7.91a10.43,10.43,0,0,1,3.4,10.31,28.15,28.15,0,0,0,3.44-8.18,43.36,43.36,0,0,0,1-7.7s9.14,0,14.44,2.73,12.82,3.68,12.82,3.68a14.73,14.73,0,0,1-9.37-6c-4.07-5.47-12.75-6.12-12.75-6.12a8.79,8.79,0,0,1,4.22-3.47c2.85-1.06,7.64.56,11.43.22s4.52-.78,4.52-.78-2.68,1.23-11.15-1.73-23.15,2.25-23.15,2.25"/><path class="cls-1" d="M163.18,187.08h77.71c18.88,18.3,4.07,39.14-12.29,45.32-24.35,9.2-63.72-1.87-65.42-45.32"/><path class="cls-6" d="M236.65,190.87a4,4,0,0,0,2.53-3.79h-5.49l.16,1.68Z"/><path class="cls-7" d="M239,201.84c14.1,41.72-72.4,46.17-73.46-14.76h71.11A38.62,38.62,0,0,0,239,201.84"/><path class="cls-8" d="M181.27,211.41c-2.59-2.59-6-7-5.2-12.25-2,4.43,1.36,11.09,5.2,12.25m51.15-2.63s-.73,6.72-4.42,10.13a18.83,18.83,0,0,1-7.18,4.33s6.35,0,9.67-4.24S232.42,208.78,232.42,208.78Z"/><path class="cls-9" d="M225.79,192.23s11.1,20.52-1.68,27.24c-27.15,14.29-72.89-25.22-30.27-29.25-8.16,18,14.46,19.95,18.25,17.67,5.88-3.52,1.1-6.15,3.28-10.64,2.52-5.21,10.42-5,10.42-5"/><path class="cls-7" d="M200.62,202.91s-4.05,4-4,5.51-1.23,5.82-4.6,5-1.63-5.77,2-6.51,5.8-5.6,5.8-5.6Zm6.86,1.85s-1.26,5.55-.42,6.8,2.08,5.57-1.22,6.65-4.47-4-1.82-6.56,1.88-7.85,1.88-7.85Zm3.36-1.26s3.72,4.31,5.23,4.37,5.72,1.62,4.63,4.92-5.87,1.24-6.36-2.42-5.21-6.16-5.21-6.16Zm1.38-5.49s5.51,1.42,6.78.62,5.63-1.92,6.61,1.41-4.12,4.36-6.61,1.63-7.79-2.11-7.79-2.11Zm-15.29-.54s-5.65.68-6.54,1.9-4.54,3.84-6.67,1.09,2.24-5.56,5.56-3.92,8-.88,8-.88Z"/><path class="cls-10" d="M166.23,195.36a58.39,58.39,0,0,1-.72-8.28h71.12a32,32,0,0,0,0,3.79c-2.55-.39-6.11-.8-10.9-1.09-1.53-.09-3.26-.16-5.15-.2-2.56.28-5.5,1.15-6.77,3.55-2.49,4.7,1.38,10.93-2.42,12.54s-15.21.4-16.89-6.34a13,13,0,0,1,1.24-9.18,167.4,167.4,0,0,0-18.72,2,53.57,53.57,0,0,0-10.81,3.19"/><path class="cls-11" d="M214.74,208.54a4.35,4.35,0,0,0,1.53,4.07c1.78,1.72,3.47,1,3.86-.18.93-2.88-4.89-5-5.39-3.89m-9,2.49a4.35,4.35,0,0,0-2.51,3.54c-.44,2.44,1.1,3.44,2.31,3.1C208.47,216.83,206.94,210.85,205.77,211Zm-10.24-3.89a4.36,4.36,0,0,0-3.88,1.94c-1.54,1.95-.65,3.56.57,3.82C195.18,213.53,196.65,207.53,195.53,207.14Zm-5.17-9.27a4.32,4.32,0,0,0-4.23-1c-2.42.54-2.76,2.34-2,3.32C186,202.58,191,198.88,190.36,197.87Zm27.92,1.95a4.33,4.33,0,0,0,3.5,2.57c2.44.47,3.46-1.06,3.13-2.27C224.12,197.21,218.11,198.66,218.28,199.82Z"/><path class="cls-12" d="M192.06,212.62a2.23,2.23,0,0,0,1.88-.49,3.71,3.71,0,0,0,1-2.18,5.13,5.13,0,0,1-1.26,1.87,3.63,3.63,0,0,1-1.64.8m13.23,4.87a2.2,2.2,0,0,0,1.42-1.31,3.59,3.59,0,0,0-.12-2.4,5.1,5.1,0,0,1-.23,2.24A3.64,3.64,0,0,1,205.29,217.49Zm14.54-4.93a2.23,2.23,0,0,0-.29-1.92,3.67,3.67,0,0,0-2.06-1.24,5.16,5.16,0,0,1,1.73,1.45A3.62,3.62,0,0,1,219.83,212.56Zm4.9-12.16a2.17,2.17,0,0,0-1.29-1.44,3.64,3.64,0,0,0-2.4.08,5.07,5.07,0,0,1,2.24.27A3.6,3.6,0,0,1,224.73,200.4Zm-40.52-.51a2.17,2.17,0,0,0,1.75.82,3.69,3.69,0,0,0,2.18-1,5.1,5.1,0,0,1-2.16.64A3.56,3.56,0,0,1,184.21,199.89Z"/><path class="cls-1" d="M156.57,203.94l74.38,22s10.1,7.32,10.15,20.47c-.11.21-.23.42-.36.64a43.06,43.06,0,0,1-33.27,20.18c-26.49,1.95-61.81-20.29-50.9-63.29"/><path class="cls-6" d="M227.37,228.92a4.12,4.12,0,0,0,3.58-3l-5.38-1.59-.33,1.69Z"/><path class="cls-7" d="M226.48,240.33c1.72,44.91-84.22,24.22-67.62-35.71l69.59,20.58a39.42,39.42,0,0,0-2,15.13"/><path class="cls-8" d="M167.23,233c-1.79-3.29-3.84-8.64-1.54-13.5-3.26,3.75-1.88,11.25,1.54,13.5m50.82,12.23s-2.67,6.37-7.26,8.63a19.26,19.26,0,0,1-8.28,2.16s6.22,1.84,10.69-1.35S218.05,245.22,218.05,245.22Z"/><path class="cls-9" d="M216.35,227.11s4.92,23.29-9.53,26.17c-30.7,6.12-64-45.79-21.15-37.4-13.2,15.24,8.37,23.72,12.74,22.59,6.78-1.75,2.86-5.7,6.29-9.47,4-4.37,11.65-1.89,11.65-1.89"/><path class="cls-7" d="M188.63,230.27s-5.12,2.75-5.52,4.23-2.89,5.34-5.93,3.52.07-6.12,3.83-5.8,7.3-3.81,7.3-3.81Zm6.17,3.79s-2.84,5.07-2.37,6.54.42,6.05-3.12,6.15-3.23-5.2.12-6.95,4.1-7.13,4.1-7.13Zm3.65-.26s2.4,5.3,3.86,5.79,5.13,3.25,3.11,6.16-6.1-.48-5.53-4.21-3.31-7.54-3.31-7.54Zm3-5s5,3,6.46,2.57,6.06-.25,6,3.3-5.29,3.07-6.94-.33-7-4.32-7-4.32Zm-14.81-5s-5.73-1-7,0-5.55,2.44-6.84-.86,3.8-4.79,6.58-2.23,8.1,1.46,8.1,1.46Z"/><path class="cls-10" d="M157.17,212.93a59.06,59.06,0,0,1,1.69-8.32l69.59,20.59a33.73,33.73,0,0,0-1.08,3.72c-2.38-1.12-5.74-2.56-10.35-4.23-1.47-.53-3.14-1.09-5-1.68-2.58-.47-5.71-.47-7.65,1.51-3.81,3.88-1.81,11.09-6,11.57s-15-4-14.68-11.09a13.22,13.22,0,0,1,3.87-8.62,169.67,169.67,0,0,0-18.91-3.45,53.25,53.25,0,0,0-11.49,0"/><path class="cls-11" d="M200.82,239.87a4.44,4.44,0,0,0,.31,4.42c1.25,2.2,3.11,2,3.83.94,1.74-2.54-3.34-6.26-4.14-5.36m-9.5-.16c-.47-.06-2.35.46-3.48,2.73s.08,3.69,1.36,3.7C192.28,246.16,192.51,239.87,191.32,239.71Zm-8.9-6.77c-.38-.27-2.29-.7-4.36.77s-1.67,3.29-.54,3.9C180.23,239.08,183.4,233.64,182.42,232.94Zm-2.37-10.57a4.43,4.43,0,0,0-3.86-2.18c-2.53-.18-3.38,1.49-2.9,2.68C174.45,225.72,180.36,223.53,180.05,222.37Zm26.75,10a4.42,4.42,0,0,0,2.69,3.52c2.25,1.17,3.69,0,3.72-1.3C213.27,231.5,207,231.17,206.8,232.36Z"/><path class="cls-12" d="M177.44,237.29a2.28,2.28,0,0,0,2,.07,3.78,3.78,0,0,0,1.63-1.84,5.22,5.22,0,0,1-1.78,1.47,3.77,3.77,0,0,1-1.83.3m11.53,8.6a2.26,2.26,0,0,0,1.78-.87,3.78,3.78,0,0,0,.58-2.39,5.33,5.33,0,0,1-.88,2.13A3.72,3.72,0,0,1,189,245.89Zm15.66-.62a2.23,2.23,0,0,0,.27-2,3.71,3.71,0,0,0-1.66-1.81,5.23,5.23,0,0,1,1.28,1.92A3.71,3.71,0,0,1,204.63,245.27ZM213,234.79a2.22,2.22,0,0,0-.84-1.78,3.72,3.72,0,0,0-2.38-.61,5.26,5.26,0,0,1,2.11.9A3.67,3.67,0,0,1,213,234.79Zm-39.51-12.23a2.24,2.24,0,0,0,1.48,1.31,3.75,3.75,0,0,0,2.43-.38,5.21,5.21,0,0,1-2.3,0A3.77,3.77,0,0,1,173.44,222.56Z"/></svg>