<svg id="Layer_23" data-name="Layer 23" xmlns="http://www.w3.org/2000/svg" viewBox="0 0 370 330"><defs><style>.cls-1{fill:#3a1917;}.cls-2{fill:#cbb9b8;}.cls-3{fill:#f5f2f2;}.cls-4{fill:#ed074f;}.cls-5{fill:#f92d5e;}.cls-6{fill:#ff3162;}.cls-7{fill:#ff8da5;}.cls-8{fill:#ff93aa;}.cls-9{fill:#ffbdcb;}.cls-10{fill:#fff;}.cls-11{fill:#f89203;}.cls-12{fill:#f9be0d;}.cls-13{fill:#fbd153;}.cls-14{fill:#fbcf4c;}.cls-15{fill:#faeb65;}</style></defs><path class="cls-1" d="M129.17,212.8c15.58-3.26,31.17-6.44,46.71-9.85a1.2,1.2,0,0,0,.92-1.37c-.24-1.35-.53-2.63-.9-4s-.74-2.12-1-1.21c-13.64,1.92-30.51,5.45-44.8,8.43-7.46,1.56-34.32,8.7-41.75,10.4-2.16.5-9.49,1.57-9.06,5.08C80,226.39,126.08,213.45,129.17,212.8Z"/><path class="cls-2" d="M157.4,206.91q9.25-1.95,18.48-4a1.2,1.2,0,0,0,.92-1.37c-.24-1.35-.53-2.63-.9-4s-.74-2.12-1-1.21c-2.29.32-4.68.69-7.13,1.1A29.93,29.93,0,0,1,157.4,206.91Z"/><path class="cls-3" d="M157.77,202.34a.64.64,0,0,0-.25-1.25c-7.31,1.48-15.9,2.24-22.74,5.29a.34.34,0,0,0,.12.64C142.38,207,150.56,204.13,157.77,202.34Z"/><path class="cls-3" d="M129.75,207.46a12.58,12.58,0,0,0-2.11.55.3.3,0,0,0,.07.56,11.57,11.57,0,0,0,2,.07C130.66,208.65,130.54,207.28,129.75,207.46Z"/><path class="cls-3" d="M95.05,217.45c2.5-.6,5-.49,7.22-1.78.72-.41,0-1.52-.66-1.1-4.42,2.58-10.09,1.75-14.36,4.64-.18.11-.13.47.12.43C90,219.25,92.46,218.07,95.05,217.45Z"/><path class="cls-4" d="M235.26,216.57a31.76,31.76,0,0,0,8.53-43c-4.85-7.82-14.12-13.57-24.56-14.87C197.69,156,173.77,170.6,173,191c-.63,16.63,10.13,31.52,29.34,33C212.81,224.88,225.9,223.33,235.26,216.57Z"/><path class="cls-5" d="M215.27,179.44c1.2,6.77,2.48,13.79,6.18,19.74,4.33,7,12.06,11.66,20.31,11.23a31.74,31.74,0,0,0,2-36.85c-4.85-7.82-14.12-13.57-24.56-14.87-1.24-.15-2.49-.25-3.75-.29C213,164.91,214.11,172.87,215.27,179.44Z"/><path class="cls-5" d="M200.74,213.41c-.82-1.68-2.27-3.1-3.19-4.72-2.21-3.85-3.21-8.66-3.84-13-.79-5.42.72-30.18-10.52-21.57a41.67,41.67,0,0,0-9.12,10.35A27.35,27.35,0,0,0,173,191c-.37,9.77,3.21,18.91,10.1,25.12a21.92,21.92,0,0,0,11.35,3.94C199.36,220.28,203.21,218.52,200.74,213.41Z"/><path class="cls-6" d="M225.79,221.42c-4.82-6.57-10.4-21.95-12.28-30.4a109.44,109.44,0,0,1-2.62-27.22,19.27,19.27,0,0,1,1-5.38c-1.19-2.79-5.55-3.61-7.55-3.29a8.1,8.1,0,0,0-5.39,3c-1.61,2.15-2.45,6.34-2.58,9-.94,19.4,3.91,41.67,15.55,57,2.23,2.94,6.07,3,8.6,2.35C223.25,225.85,225.52,223.41,225.79,221.42Z"/><path class="cls-7" d="M212.43,206.62c2-2.89.68-5-.31-8.27a98.5,98.5,0,0,1-3.05-13.46c-1.35-8.67-.7-17.31-1.54-26a.91.91,0,0,0-1.3-.59c-6.49,3.26-4.11,17.85-3.6,23.61a90.29,90.29,0,0,0,3.11,16.68c1,3.49,1.51,7.35,5.41,8.46A1.17,1.17,0,0,0,212.43,206.62Z"/><path class="cls-7" d="M213.31,209a.79.79,0,0,0-1.54.32A.79.79,0,0,0,213.31,209Z"/><path class="cls-7" d="M216.28,213.43a1.22,1.22,0,0,0-2.39.5A1.22,1.22,0,0,0,216.28,213.43Z"/><path class="cls-7" d="M223.48,221.88a14.22,14.22,0,0,0-2.6-2.6,11.81,11.81,0,0,1-2.22-2.82c-.73-1.32-3-.61-2.59.91.71,2.72,2.05,6.25,4.94,7.35C222.64,225.33,224.42,223.36,223.48,221.88Z"/><path class="cls-8" d="M190.76,206.43a5.32,5.32,0,0,0,0-.56c-.46-5.34-.85-10.69-1.37-16-.37-3.76-.42-8.56-4.43-10.4s-6.19,3.44-7,6.47a28.75,28.75,0,0,0,.57,16.51c.89,2.44,2.29,4.94,4.77,6.14C186,209.86,190.62,209.91,190.76,206.43Z"/><path class="cls-8" d="M197.05,214.74a4,4,0,0,0-2-3.69,4,4,0,0,0-4.76.31,2.84,2.84,0,0,0-.75,3.06,3.28,3.28,0,0,0,.63,1h0c.1.18.85,1.22.22.32a3.61,3.61,0,0,0,2,1.5,5.12,5.12,0,0,0,1.55.24A3.06,3.06,0,0,0,197.05,214.74Z"/><path class="cls-6" d="M243,201c5.21-7,4-16.09,0-23.34-3.43-6.27-11.68-16.62-20.12-13.06-4.35,1.84-3.43,6.28-3,10.17A55.88,55.88,0,0,0,225,193.61C228.08,200,236.33,209.9,243,201Z"/><path class="cls-9" d="M241.79,182.7c-.27-4.51-3.45-8.79-7-11.58-2.59-2.05-7.21-4.45-10.16-1.76a1.77,1.77,0,0,0-.38,2.12c1.22,2.36,4.3,3.49,6.11,5.43,2.43,2.61,3.66,6,6.52,8.22C238.66,186.5,241.92,185,241.79,182.7Z"/><path class="cls-9" d="M242.9,191.72c-.56-2.57-4.64-1.72-4.08.85S243.47,194.29,242.9,191.72Z"/><path class="cls-9" d="M207.21,181.71c1-2.61-.06-5.54-.27-8.27-.26-3.4-.38-6.83-.6-10.23-.07-1.06-1.74-1.63-2.05-.39a34.46,34.46,0,0,0-1,10.66c.16,2.91,0,6.36,2,8.63A1.18,1.18,0,0,0,207.21,181.71Z"/><path class="cls-9" d="M207.24,187.78a6.52,6.52,0,0,0,.41-.94,1.41,1.41,0,0,0-1.64-1.78,1.38,1.38,0,0,0-.74,2.27,5.74,5.74,0,0,0,.78.7A.88.88,0,0,0,207.24,187.78Z"/><path class="cls-10" d="M239.32,178.22c.54-4.42-6.16-10-10.48-7.82a1.33,1.33,0,0,0-.57,1.8,15.74,15.74,0,0,0,3.47,3.73c1.38,1.31,2.1,3.1,3.66,4.23S239.1,179.94,239.32,178.22Z"/><path class="cls-10" d="M243.33,191.45l0-.14a1.3,1.3,0,0,0-1.57-1.31,1.26,1.26,0,0,0-.87,1.82l.08.12A1.26,1.26,0,0,0,243.33,191.45Z"/><path class="cls-10" d="M207.66,172.91c.19-3.21-.5-6.51-1-9.66-.24-1.49-2.42-1.18-2.59.19a29.76,29.76,0,0,0,0,9.74A1.86,1.86,0,0,0,207.66,172.91Z"/><path class="cls-10" d="M207.07,176.34a1.11,1.11,0,0,0-2.17.46A1.11,1.11,0,0,0,207.07,176.34Z"/><path class="cls-10" d="M182.36,191.67c2.49-2.54.11-6.73,3.18-9.16,1.35-1.06.11-3.65-1.62-3.06-2.5.84-4.57,2-5.66,4.51a7.47,7.47,0,0,0,.68,7.55A2.47,2.47,0,0,0,182.36,191.67Z"/><path class="cls-1" d="M124.42,228.11c15.63,2.67,31.26,5.43,46.92,8a1.18,1.18,0,0,0,1.34-.94,38.46,38.46,0,0,0,.62-4c.13-1.25.09-2.23-.52-1.5-13.35-3.22-30.29-6.12-44.64-8.58-7.48-1.28-35-4.5-42.51-5.63-2.19-.33-9.38-2-10.27,1.4C73.83,222.72,121.31,227.57,124.42,228.11Z"/><path class="cls-2" d="M152.75,233c6.19,1.05,12.39,2.1,18.59,3.1a1.18,1.18,0,0,0,1.34-.94,38.46,38.46,0,0,0,.62-4c.13-1.25.09-2.23-.52-1.5-2.24-.54-4.6-1.07-7-1.6A29.78,29.78,0,0,1,152.75,233Z"/><path class="cls-3" d="M154.76,228.87a.64.64,0,0,0,.23-1.25c-7.32-1.3-15.57-3.74-23-3.41a.33.33,0,0,0-.11.63C138.77,227.59,147.42,227.9,154.76,228.87Z"/><path class="cls-3" d="M126.9,223.37a13,13,0,0,0-2.15-.27.3.3,0,0,0-.14.55,12.31,12.31,0,0,0,1.86.81C127.32,224.81,127.71,223.49,126.9,223.37Z"/><path class="cls-3" d="M91.07,219.93c2.54.36,4.78,1.37,7.35,1a.64.64,0,0,0-.22-1.27c-5,.78-10-2.06-15-1-.21.05-.29.4,0,.46C85.73,219.75,88.44,219.56,91.07,219.93Z"/><path class="cls-11" d="M219.13,271.4a32.22,32.22,0,0,0,24.06-36.58c-1.4-9-7.6-17.78-16.54-22.84-18.46-10.46-45.62-5.83-54.1,12.76-6.89,15.12-2.83,32.87,14,41.38C195.68,270.76,208.1,274.18,219.13,271.4Z"/><path class="cls-12" d="M215.18,229.68c-1.49,6.7-3,13.66-1.93,20.54,1.27,8,6.47,15.24,14.1,17.9a32.3,32.3,0,0,0,15.84-33.3c-1.4-9-7.6-17.78-16.54-22.84-1.06-.6-2.16-1.15-3.28-1.65C218.61,215.4,216.63,223.19,215.18,229.68Z"/><path class="cls-12" d="M189.12,255.69c-.09-1.85-.86-3.7-1.08-5.54-.53-4.38.39-9.19,1.47-13.43,1.34-5.29,12.12-27.62-1.31-23.82A41.3,41.3,0,0,0,176,219.08a27.29,27.29,0,0,0-3.48,5.66c-4.05,8.88-4.28,18.65-.41,26.94a20.94,20.94,0,0,0,8.75,7.85C185.26,261.53,189.42,261.33,189.12,255.69Z"/><path class="cls-12" d="M208.72,272.38c-1.86-7.86-1.05-24.14.46-32.64a111.68,111.68,0,0,1,8-26.13,18.63,18.63,0,0,1,2.91-4.61c0-3-3.65-5.41-5.58-5.85a7.89,7.89,0,0,0-6,.81c-2.27,1.4-4.63,5-5.76,7.38-8.23,17.59-12.32,39.95-7.61,58.41.9,3.54,4.36,5,6.88,5.36C204.75,275.52,207.72,274.11,208.72,272.38Z"/><path class="cls-13" d="M202.28,253.75c2.86-1.94,2.52-4.41,2.86-7.76a100.68,100.68,0,0,1,2.36-13.56c2.07-8.51,6-16.26,8.49-24.59.17-.56-.43-1.08-1-1-7.1.61-10.5,15-12.23,20.48a91.89,91.89,0,0,0-3.53,16.57c-.43,3.59-1.43,7.35,1.67,9.82A1.14,1.14,0,0,0,202.28,253.75Z"/><path class="cls-13" d="M202.19,256.23a.77.77,0,0,0-1.52-.27A.77.77,0,0,0,202.19,256.23Z"/><path class="cls-13" d="M203.17,261.47a1.2,1.2,0,0,0-2.36-.42A1.2,1.2,0,0,0,203.17,261.47Z"/><path class="cls-13" d="M206.46,271.94a14.35,14.35,0,0,0-1.36-3.36,11.42,11.42,0,0,1-.93-3.43,1.37,1.37,0,0,0-2.7-.12c-.38,2.78-.52,6.54,1.68,8.62A2,2,0,0,0,206.46,271.94Z"/><path class="cls-14" d="M182.76,245.54c.07-.16.14-.33.2-.51,1.29-4.08,3.42-8.48,4.18-12.67a7.15,7.15,0,0,0,.55-2.78c1.58-3.56,2.81-8.16.08-11.13-3-3.27-6.9.89-8.79,3.38a29.38,29.38,0,0,0-5.77,15.47c-.12,2.59.2,5.41,2,7.44C177.11,246.93,181.31,248.7,182.76,245.54Z"/><path class="cls-14" d="M185.28,255.55a3.93,3.93,0,0,0-.43-4.16,3.87,3.87,0,0,0-4.42-1.47,2.87,2.87,0,0,0-1.84,2.55,3,3,0,0,0,.19,1.15h0c0,.2.31,1.45.08.38a3.51,3.51,0,0,0,1.22,2.12,4.72,4.72,0,0,0,1.31.79A3,3,0,0,0,185.28,255.55Z"/><path class="cls-14" d="M232.07,259.84c7.36-4.53,9.7-13.41,8.87-21.57-.71-7.07-4.23-19.68-13.22-19.52-4.63.08-5.49,4.53-6.62,8.26a57,57,0,0,0-2.53,19.36C218.93,253.46,222.63,265.64,232.07,259.84Z"/><path class="cls-15" d="M237.91,242.52c1.47-4.26.22-9.4-1.91-13.29-1.56-2.85-4.83-6.78-8.52-5.39a1.81,1.81,0,0,0-1.15,1.82c.21,2.64,2.57,4.82,3.46,7.28,1.2,3.31,1,6.91,2.77,10C233.64,244.88,237.17,244.66,237.91,242.52Z"/><path class="cls-15" d="M235.49,251.27c.46-2.58-3.55-3.31-4-.73S235,253.85,235.49,251.27Z"/><path class="cls-15" d="M207,228.79c1.92-2,2.06-5.14,2.91-7.73,1.05-3.24,2.24-6.45,3.34-9.68.34-1-1-2.15-1.71-1.12a35.54,35.54,0,0,0-5,9.46c-1,2.75-2.47,5.87-1.48,8.73A1.14,1.14,0,0,0,207,228.79Z"/><path class="cls-15" d="M204.75,234.42a6.21,6.21,0,0,0,.73-.72,1.38,1.38,0,1,0-2.34-.42,5.23,5.23,0,0,0,.44.93A.85.85,0,0,0,204.75,234.42Z"/><path class="cls-10" d="M237.38,237.46c2.17-3.88-1.77-11.5-6.49-11.1a1.36,1.36,0,0,0-1.21,1.45,15.54,15.54,0,0,0,1.72,4.73c.76,1.72.73,3.65,1.7,5.27S236.53,239,237.38,237.46Z"/><path class="cls-10" d="M236,251.17l.08-.12a1.26,1.26,0,1,0-2.4-.43l0,.14A1.22,1.22,0,0,0,236,251.17Z"/><path class="cls-10" d="M210.78,220.83c1.4-2.9,2-6.2,2.77-9.3.35-1.47-1.74-2-2.41-.78a30.34,30.34,0,0,0-3.75,9A1.8,1.8,0,0,0,210.78,220.83Z"/><path class="cls-10" d="M209,223.79a1.09,1.09,0,0,0-2.14-.39A1.09,1.09,0,0,0,209,223.79Z"/><path class="cls-10" d="M180.78,228.79c3.21-1.42,2.66-6.17,6.36-7.28,1.62-.48,1.49-3.33-.3-3.43-2.58-.15-4.9.18-6.83,2.07a7.61,7.61,0,0,0-2.27,7.23A2.38,2.38,0,0,0,180.78,228.79Z"/></svg>