<svg id="ac484422-62c6-4037-8375-7b5380caa474" data-name="Layer 1" xmlns="http://www.w3.org/2000/svg" viewBox="0 0 1920 510"><path d="M1330.24,27.07c-.52-1-12.9-2.4-20.9.26-6,2-14.81,8.79-12,15.15,2.87,6.53,15.68,4.47,23-1C1326.29,36.92,1329.79,29.53,1330.24,27.07Z" style="fill:#365647"/><path d="M1328.57,28c-5,2-9.88,4.25-14.74,6.53-2.43,1.15-4.9,2.22-7.3,3.45a57,57,0,0,0-7.15,4c-.35.26-.15,1,.33.78,2.48-1,4.81-2.37,7.19-3.57s4.66-2.48,7-3.61c4.9-2.36,10-4.57,14-6.66C1328.54,28.55,1329.26,27.67,1328.57,28Z" style="fill:#618140"/><path d="M665.47,130.75c-.53-1.05-12.9-2.41-20.9.26-6,2-14.81,8.78-12,15.15,2.87,6.53,15.68,4.47,23-1C661.52,140.6,665,133.21,665.47,130.75Z" style="fill:#365647"/><path d="M663.8,131.63c-5,2-9.88,4.24-14.74,6.53-2.44,1.14-4.9,2.21-7.3,3.45a56.31,56.31,0,0,0-7.15,4c-.35.26-.15,1,.33.77,2.48-1,4.81-2.36,7.19-3.57s4.66-2.47,7-3.61c4.91-2.35,10-4.57,14-6.65C663.77,132.23,664.49,131.35,663.8,131.63Z" style="fill:#618140"/><path d="M880.4,54c-.52-1-12.9-2.41-20.9.26-6,2-14.81,8.78-12,15.15,2.87,6.53,15.68,4.47,23-1C876.45,63.89,880,56.5,880.4,54Z" style="fill:#365647"/><path d="M878.73,54.92c-5,2-9.88,4.24-14.74,6.53-2.43,1.14-4.9,2.21-7.3,3.45a56.31,56.31,0,0,0-7.15,4c-.35.26-.15,1,.33.77,2.48-1,4.81-2.36,7.19-3.57s4.66-2.47,7-3.61c4.9-2.35,10-4.57,13.95-6.66C878.7,55.52,879.42,54.64,878.73,54.92Z" style="fill:#618140"/><path d="M832.23,116.21c-1,.66-.66,13.11,3,20.68,2.77,5.65,10.68,13.51,16.62,9.89,6.09-3.72,2.34-16.15-4.1-22.65C842.52,118.81,834.73,116.33,832.23,116.21Z" style="fill:#365647"/><path d="M833.32,117.75c2.66,4.66,5.53,9.22,8.44,13.73,1.46,2.27,2.85,4.57,4.39,6.78a56.52,56.52,0,0,0,5,6.55c.3.32,1,0,.72-.43-1.31-2.33-3-4.45-4.49-6.65s-3.07-4.29-4.52-6.49c-3-4.55-5.86-9.34-8.45-12.94C833.93,117.7,833,117.1,833.32,117.75Z" style="fill:#618140"/><path d="M1182.47,123.27c-1,.65-.66,13.1,3,20.67,2.77,5.66,10.68,13.51,16.61,9.89,6.09-3.72,2.34-16.14-4.1-22.64C1192.76,125.86,1185,123.38,1182.47,123.27Z" style="fill:#365647"/><path d="M1183.57,124.8c2.65,4.67,5.52,9.23,8.43,13.74,1.46,2.26,2.85,4.56,4.4,6.77a55.41,55.41,0,0,0,4.95,6.55c.3.32,1,0,.72-.42-1.32-2.33-3-4.46-4.5-6.66s-3.07-4.29-4.52-6.49c-3-4.55-5.86-9.33-8.45-12.94C1184.17,124.75,1183.2,124.15,1183.57,124.8Z" style="fill:#618140"/><path d="M1149.89,152.36c-.12,1.16,9.59,9,17.76,11,6.11,1.53,17.22.55,18.28-6.32,1.08-7.05-10.83-12.2-20-11.47C1158.51,146.17,1151.59,150.53,1149.89,152.36Z" style="fill:#365647"/><path d="M1151.77,152.52c5.28,1,10.61,1.72,15.94,2.41,2.67.34,5.32.76,8,1a57.63,57.63,0,0,0,8.2.44c.43,0,.65-.73.14-.83-2.63-.49-5.33-.59-8-.85s-5.26-.42-7.87-.74c-5.4-.65-10.92-1.54-15.34-1.88C1152.12,152,1151,152.38,1151.77,152.52Z" style="fill:#618140"/><path d="M239.46,422.27c-.52-1-12.9-2.41-20.89.26-6,2-14.82,8.78-12,15.15,2.87,6.53,15.69,4.47,23-1.05C235.52,432.12,239,424.73,239.46,422.27Z" style="fill:#365647"/><path d="M237.79,423.15c-5,2-9.88,4.24-14.73,6.53-2.44,1.14-4.91,2.21-7.3,3.45a57.13,57.13,0,0,0-7.16,4c-.35.26-.15,1,.33.77,2.48-1,4.81-2.36,7.2-3.57s4.65-2.47,7-3.61c4.9-2.35,10-4.56,14-6.65C237.76,423.75,238.49,422.87,237.79,423.15Z" style="fill:#618140"/><path d="M232.58,115.68c-.52-1.05-12.9-2.4-20.9.26-6,2-14.81,8.79-12,15.15,2.87,6.53,15.68,4.47,23-1C228.63,125.53,232.13,118.14,232.58,115.68Z" style="fill:#365647"/><path d="M230.91,116.56c-5,2-9.88,4.25-14.73,6.53-2.44,1.15-4.91,2.22-7.3,3.45a57.13,57.13,0,0,0-7.16,4c-.35.26-.15,1,.33.78,2.48-1,4.81-2.37,7.19-3.57s4.66-2.48,7-3.61c4.9-2.36,10-4.57,13.95-6.66C230.88,117.16,231.61,116.28,230.91,116.56Z" style="fill:#618140"/><path d="M133.17,37.29c-.53-1-12.9-2.41-20.9.26-6,2-14.82,8.78-12,15.15,2.88,6.53,15.69,4.47,23-1.05C129.22,47.14,132.72,39.75,133.17,37.29Z" style="fill:#365647"/><path d="M131.5,38.17c-5,2-9.88,4.24-14.74,6.53-2.44,1.14-4.9,2.21-7.3,3.45a56.31,56.31,0,0,0-7.15,4c-.36.26-.16,1,.32.77,2.49-1,4.82-2.36,7.2-3.57s4.66-2.47,7-3.61c4.91-2.35,10-4.57,14-6.66C131.47,38.77,132.19,37.89,131.5,38.17Z" style="fill:#618140"/><path d="M292.83,19.77c-1,.56-1.94,13,1,20.88,2.21,5.9,9.31,14.49,15.57,11.47,6.42-3.1,3.91-15.83-1.86-22.93C302.82,23.37,295.31,20.14,292.83,19.77Z" style="fill:#365647"/><path d="M293.77,21.41c2.19,4.9,4.6,9.72,7.05,14.5,1.23,2.39,2.39,4.82,3.71,7.17a56.34,56.34,0,0,0,4.28,7c.27.34,1,.12.76-.36-1.08-2.44-2.53-4.72-3.82-7.06s-2.64-4.57-3.86-6.9C299.37,31,297,25.9,294.74,22.06,294.37,21.42,293.47,20.73,293.77,21.41Z" style="fill:#618140"/><path d="M308.57,275.39c-.53-1-12.9-2.4-20.9.26-6,2-14.82,8.79-12,15.15,2.88,6.53,15.69,4.47,23-1C304.62,285.24,308.12,277.86,308.57,275.39Z" style="fill:#365647"/><path d="M306.9,276.27c-5,2-9.88,4.25-14.74,6.53-2.44,1.15-4.9,2.22-7.3,3.45a55.17,55.17,0,0,0-7.15,4c-.35.25-.16,1,.32.77,2.49-1,4.82-2.36,7.2-3.57s4.66-2.47,7-3.61c4.91-2.35,10-4.57,14-6.66C306.87,276.88,307.59,276,306.9,276.27Z" style="fill:#618140"/><path d="M106.66,402c.89.75,12.79-2.91,19.08-8.53,4.69-4.2,10.12-13.94,5-18.67s-16.17,2.12-20.69,10.07C106.37,391.4,106.09,399.57,106.66,402Z" style="fill:#365647"/><path d="M107.84,400.54c3.77-3.82,7.39-7.82,10.94-11.84,1.78-2,3.63-4,5.33-6.06a56,56,0,0,0,5-6.54c.23-.38-.24-1-.6-.58-1.89,1.89-3.49,4.08-5.19,6.13s-3.3,4.12-5,6.1c-3.57,4.11-7.4,8.17-10.17,11.64C107.63,400,107.31,401.07,107.84,400.54Z" style="fill:#618140"/><path d="M1330.14,30.55c-.8.36-2.16,9.61-.38,15.68,1.33,4.54,6.18,11.36,11,9.43s3.79-11.64-.14-17.27C1337.42,33.78,1332,31,1330.14,30.55Z" style="fill:#365647"/><path d="M1330.76,31.82c1.37,3.79,2.91,7.53,4.49,11.24.79,1.86,1.52,3.74,2.38,5.57a43,43,0,0,0,2.83,5.48c.18.27.72.14.59-.22-.68-1.89-1.64-3.68-2.48-5.5s-1.72-3.56-2.51-5.38c-1.63-3.74-3.15-7.65-4.61-10.65C1331.21,31.86,1330.57,31.3,1330.76,31.82Z" style="fill:#618140"/><path d="M44.1,295.29c-.53-1-12.9-2.4-20.9.26-6,2-14.82,8.79-12,15.15,2.88,6.53,15.69,4.47,23-1C40.15,305.14,43.65,297.75,44.1,295.29Z" style="fill:#365647"/><path d="M42.43,296.17c-5,2-9.88,4.25-14.74,6.53-2.44,1.15-4.9,2.22-7.3,3.45a55.17,55.17,0,0,0-7.15,4c-.36.25-.16,1,.32.77,2.49-1,4.82-2.36,7.2-3.57s4.66-2.47,7-3.61c4.91-2.36,10-4.57,14-6.66C42.4,296.77,43.12,295.89,42.43,296.17Z" style="fill:#618140"/><path d="M44,298.77c-.8.36-2.16,9.61-.38,15.68,1.33,4.54,6.18,11.36,11,9.44s3.79-11.65-.15-17.28C51.28,302,45.83,299.17,44,298.77Z" style="fill:#365647"/><path d="M44.61,300c1.37,3.79,2.92,7.53,4.49,11.24.8,1.86,1.53,3.74,2.39,5.57a41.13,41.13,0,0,0,2.83,5.48c.18.27.72.14.59-.22-.68-1.89-1.64-3.68-2.48-5.5s-1.73-3.56-2.52-5.38c-1.62-3.74-3.14-7.65-4.6-10.65C45.06,300.09,44.42,299.52,44.61,300Z" style="fill:#618140"/><path d="M146.3,272.85c1.08.44,11.26-6.73,15.49-14,3.16-5.45,5.3-16.39-1-19.31-6.48-3-14.72,7-16.55,16C142.74,262.86,145,270.71,146.3,272.85Z" style="fill:#365647"/><path d="M147,271.09c2.4-4.8,4.59-9.72,6.72-14.65,1.07-2.47,2.22-4.9,3.19-7.41a56.57,56.57,0,0,0,2.7-7.76c.09-.43-.52-.83-.76-.36-1.2,2.38-2,5-3,7.43s-1.86,4.94-2.88,7.36c-2.13,5-4.51,10.07-6.06,14.23C146.59,270.62,146.63,271.76,147,271.09Z" style="fill:#618140"/><path d="M187.16,248.43c.35-.8-4.86-8.56-10.26-11.86-4-2.46-12.22-4.25-14.51.44s5,11.16,11.72,12.68C179.6,250.94,185.53,249.37,187.16,248.43Z" style="fill:#365647"/><path d="M185.85,247.9c-3.56-1.88-7.22-3.61-10.88-5.29-1.84-.85-3.65-1.74-5.51-2.52a42.7,42.7,0,0,0-5.78-2.15c-.32-.08-.63.38-.29.56,1.78.94,3.69,1.62,5.54,2.4s3.67,1.48,5.47,2.29c3.73,1.67,7.48,3.54,10.58,4.78C185.49,248.17,186.35,248.16,185.85,247.9Z" style="fill:#618140"/><path d="M1551.7,290.67c1.08.44,11.26-6.73,15.49-14,3.16-5.45,5.3-16.39-1-19.31-6.48-3-14.72,7-16.54,16C1548.14,280.67,1550.41,288.52,1551.7,290.67Z" style="fill:#365647"/><path d="M1552.37,288.9c2.4-4.8,4.59-9.72,6.73-14.64,1.07-2.47,2.21-4.91,3.19-7.42a56.52,56.52,0,0,0,2.69-7.76c.1-.42-.52-.82-.75-.36-1.21,2.39-2,5-3,7.44s-1.86,4.93-2.88,7.36c-2.12,5-4.5,10.06-6.06,14.22C1552,288.43,1552,289.57,1552.37,288.9Z" style="fill:#618140"/><path d="M1592.56,266.25c.35-.81-4.86-8.57-10.26-11.87-4-2.46-12.21-4.24-14.51.44s5,11.17,11.73,12.69C1585,268.75,1590.93,267.18,1592.56,266.25Z" style="fill:#365647"/><path d="M1591.25,265.72c-3.56-1.89-7.22-3.62-10.88-5.3-1.84-.84-3.64-1.74-5.51-2.52a42.7,42.7,0,0,0-5.78-2.15c-.32-.08-.63.38-.28.56,1.77.95,3.68,1.62,5.53,2.4s3.67,1.48,5.47,2.29c3.73,1.68,7.48,3.55,10.58,4.78C1590.89,266,1591.75,266,1591.25,265.72Z" style="fill:#618140"/><path d="M403.28,131.16c-.28-1.13-12.07-5.15-20.45-4.28-6.27.65-16.37,5.36-15,12.18,1.38,7,14.34,7.77,22.66,4C397.29,139.92,402.31,133.47,403.28,131.16Z" style="fill:#365647"/><path d="M401.46,131.66c-5.3.88-10.56,2-15.8,3.17-2.63.59-5.27,1.1-7.88,1.79a55.17,55.17,0,0,0-7.86,2.38c-.4.17-.36.91.15.82,2.64-.43,5.22-1.26,7.8-1.92s5.09-1.4,7.65-2c5.3-1.23,10.79-2.28,15.07-3.46C401.3,132.24,402.2,131.54,401.46,131.66Z" style="fill:#618140"/><path d="M735.4,34.18c-.28-1.13-12.07-5.15-20.46-4.28-6.26.64-16.37,5.35-15,12.18,1.38,7,14.34,7.76,22.66,4C729.41,42.94,734.43,36.49,735.4,34.18Z" style="fill:#365647"/><path d="M733.58,34.68c-5.3.88-10.57,2-15.8,3.17-2.63.59-5.27,1.1-7.88,1.78A56.53,56.53,0,0,0,702,42c-.4.17-.36.9.15.82,2.64-.43,5.21-1.26,7.8-1.92s5.09-1.4,7.65-2c5.3-1.23,10.79-2.28,15.07-3.47C733.42,35.26,734.32,34.55,733.58,34.68Z" style="fill:#618140"/><path d="M1523.08,118.68c-1.16-.19-9.58,9-12.16,17-1.93,6-1.69,17.14,5.1,18.65,7,1.55,12.89-10,12.76-19.14C1528.68,127.69,1524.8,120.5,1523.08,118.68Z" style="fill:#365647"/><path d="M1522.8,120.55c-1.33,5.2-2.42,10.47-3.46,15.74-.52,2.64-1.12,5.27-1.54,7.93a56,56,0,0,0-1,8.15c0,.44.68.69.81.19.67-2.58.95-5.27,1.39-7.91s.76-5.22,1.25-7.8c1-5.35,2.25-10.8,2.89-15.19C1523.26,120.93,1523,119.82,1522.8,120.55Z" style="fill:#618140"/><path d="M1542.28,21.54c-1.15-.2-9.58,9-12.16,17-1.93,6-1.69,17.14,5.1,18.65,7,1.55,12.89-10,12.76-19.15C1547.88,30.55,1544,23.36,1542.28,21.54Z" style="fill:#365647"/><path d="M1542,23.4c-1.33,5.21-2.42,10.48-3.46,15.75-.52,2.64-1.12,5.26-1.54,7.92a56.1,56.1,0,0,0-1,8.16c0,.43.68.69.81.19.67-2.59,1-5.28,1.39-7.91s.76-5.22,1.25-7.81c1-5.34,2.26-10.79,2.89-15.18C1542.47,23.79,1542.18,22.68,1542,23.4Z" style="fill:#618140"/><path d="M1685.43,398.42c-1.16-.2-9.58,9-12.16,17-1.93,6-1.69,17.14,5.1,18.65,7,1.55,12.88-10,12.76-19.14C1691,407.42,1687.14,400.24,1685.43,398.42Z" style="fill:#365647"/><path d="M1685.15,400.28c-1.33,5.2-2.43,10.48-3.46,15.74-.52,2.65-1.12,5.27-1.54,7.93a54.61,54.61,0,0,0-1,8.15c0,.44.68.7.81.2.67-2.59,1-5.28,1.38-7.92s.77-5.21,1.26-7.8c1-5.35,2.25-10.79,2.89-15.19C1685.61,400.66,1685.33,399.56,1685.15,400.28Z" style="fill:#618140"/><path d="M1695.83,229.77c-1.15-.2-9.58,9-12.16,17-1.93,6-1.69,17.15,5.1,18.66,7,1.54,12.89-10,12.76-19.15C1701.43,238.78,1697.55,231.59,1695.83,229.77Z" style="fill:#365647"/><path d="M1695.55,231.63c-1.33,5.2-2.42,10.48-3.46,15.74-.52,2.65-1.12,5.27-1.54,7.93a56.13,56.13,0,0,0-1,8.15c0,.44.68.7.81.2.67-2.59.95-5.28,1.39-7.92s.76-5.21,1.25-7.8c1-5.35,2.26-10.79,2.89-15.19C1696,232,1695.73,230.91,1695.55,231.63Z" style="fill:#618140"/><path d="M1703.82,55.26c-.26.85,5.83,8,11.6,10.67,4.31,2,12.67,2.84,14.43-2.1s-6.3-10.56-13.16-11.31C1711.08,51.9,1705.34,54.15,1703.82,55.26Z" style="fill:#365647"/><path d="M1705.19,55.64c3.77,1.48,7.61,2.78,11.46,4,1.93.64,3.84,1.33,5.79,1.89a43.21,43.21,0,0,0,6,1.48c.33.05.59-.44.23-.59-1.88-.74-3.87-1.19-5.8-1.76s-3.84-1.05-5.73-1.66c-3.91-1.25-7.87-2.68-11.1-3.56C1705.52,55.33,1704.66,55.44,1705.19,55.64Z" style="fill:#618140"/><path d="M1823.32,113.49c-1.15-.2-9.58,9-12.16,17-1.93,6-1.69,17.14,5.1,18.65,7,1.55,12.89-10,12.76-19.14C1828.92,122.49,1825,115.3,1823.32,113.49Z" style="fill:#365647"/><path d="M1823,115.35c-1.33,5.2-2.42,10.48-3.46,15.74-.52,2.65-1.12,5.27-1.54,7.93a56,56,0,0,0-1,8.15c0,.44.69.7.81.2.68-2.59,1-5.28,1.39-7.92s.76-5.21,1.25-7.8c1-5.35,2.26-10.79,2.89-15.19C1823.51,115.73,1823.22,114.63,1823,115.35Z" style="fill:#618140"/><path d="M598,39.44c-1.15-.2-9.57,9-12.15,17-1.93,6-1.69,17.14,5.1,18.65,7,1.55,12.88-10,12.76-19.14C603.62,48.44,599.73,41.26,598,39.44Z" style="fill:#365647"/><path d="M597.74,41.3c-1.33,5.2-2.43,10.48-3.46,15.74-.52,2.65-1.12,5.27-1.54,7.93a54.61,54.61,0,0,0-1,8.15c0,.44.68.7.81.2.67-2.59.95-5.28,1.38-7.92s.77-5.21,1.25-7.8c1-5.35,2.26-10.79,2.9-15.19C598.2,41.68,597.92,40.58,597.74,41.3Z" style="fill:#618140"/><path d="M1428.8,103.56c-.88.77.9,13.09,5.49,20.17,3.42,5.28,12.21,12.14,17.67,7.84s.4-16.31-6.77-22C1439.32,104.91,1431.3,103.38,1428.8,103.56Z" style="fill:#365647"/><path d="M1430.07,105c3.19,4.31,6.59,8.5,10,12.63,1.72,2.07,3.37,4.19,5.17,6.2a56.94,56.94,0,0,0,5.7,5.92c.33.28,1-.09.66-.51-1.58-2.16-3.49-4.07-5.26-6.08s-3.56-3.89-5.25-5.9c-3.51-4.16-6.94-8.57-9.94-11.84C1430.66,104.84,1429.63,104.35,1430.07,105Z" style="fill:#618140"/><path d="M402.43,134.54c-.86.18-4.2,8.91-3.78,15.22.31,4.72,3.57,12.43,8.72,11.61s6.23-10.55,3.61-16.9C408.83,139.27,404.13,135.33,402.43,134.54Z" style="fill:#365647"/><path d="M402.75,135.91c.52,4,1.21,8,1.95,12,.36,2,.67,4,1.12,5.95a41,41,0,0,0,1.57,6c.11.3.67.29.62-.09-.25-2-.8-3.95-1.23-5.91s-.91-3.85-1.28-5.79c-.78-4-1.42-8.16-2.19-11.4C403.18,136.05,402.68,135.36,402.75,135.91Z" style="fill:#618140"/><path d="M488.76,259.13c.62,1,13.08,1.15,20.78-2.27,5.75-2.56,13.9-10.17,10.5-16.24-3.49-6.22-16-2.94-22.78,3.25C491.74,248.94,489,256.63,488.76,259.13Z" style="fill:#365647"/><path d="M490.34,258.09c4.76-2.48,9.42-5.18,14-7.91,2.32-1.38,4.67-2.68,6.94-4.14a57.07,57.07,0,0,0,6.73-4.7c.32-.29.06-1-.4-.74-2.38,1.23-4.57,2.81-6.82,4.24s-4.4,2.91-6.65,4.27c-4.66,2.82-9.55,5.51-13.25,8C490.31,257.49,489.68,258.44,490.34,258.09Z" style="fill:#618140"/><path d="M1082.83,58.92c.62,1,13.07,1.15,20.78-2.27,5.75-2.56,13.9-10.17,10.5-16.23-3.49-6.23-16-2.94-22.78,3.24C1085.81,48.74,1083,56.42,1082.83,58.92Z" style="fill:#365647"/><path d="M1084.41,57.88c4.76-2.48,9.42-5.17,14-7.91,2.32-1.38,4.67-2.68,6.93-4.14a56.37,56.37,0,0,0,6.74-4.7c.32-.29.06-1-.4-.74-2.38,1.23-4.57,2.81-6.82,4.25s-4.4,2.9-6.66,4.27c-4.65,2.81-9.54,5.51-13.24,8C1084.38,57.28,1083.74,58.23,1084.41,57.88Z" style="fill:#618140"/><path d="M471.8,40c.62,1,13.07,1.16,20.78-2.27,5.75-2.55,13.9-10.16,10.5-16.23-3.49-6.22-16-2.94-22.78,3.25C474.78,29.82,472,37.51,471.8,40Z" style="fill:#365647"/><path d="M473.38,39c4.76-2.48,9.42-5.18,14-7.92,2.32-1.37,4.67-2.67,6.93-4.14a55.13,55.13,0,0,0,6.73-4.7c.33-.29.07-1-.39-.73-2.38,1.22-4.57,2.81-6.82,4.24s-4.4,2.91-6.66,4.27c-4.65,2.81-9.54,5.51-13.24,8C473.35,38.37,472.71,39.31,473.38,39Z" style="fill:#618140"/><path d="M440.5,238.63c-.67.56.51,9.84,3.86,15.2,2.51,4,9,9.27,13.17,6.11s.51-12.23-4.8-16.59C448.38,239.78,442.38,238.52,440.5,238.63Z" style="fill:#365647"/><path d="M441.44,239.69c2.34,3.28,4.83,6.47,7.35,9.61,1.27,1.58,2.48,3.19,3.8,4.72a40.86,40.86,0,0,0,4.21,4.51c.24.22.73,0,.5-.37-1.16-1.64-2.57-3.1-3.87-4.63s-2.62-3-3.87-4.49c-2.58-3.17-5.1-6.52-7.31-9C441.88,239.61,441.11,239.24,441.44,239.69Z" style="fill:#618140"/><path d="M683.63,38c.76-.44,1.22-9.78-1.13-15.65-1.76-4.39-7.24-10.71-11.89-8.33S668,26,672.42,31.23C676.07,35.51,681.76,37.8,683.63,38Z" style="fill:#365647"/><path d="M682.89,36.82c-1.73-3.64-3.62-7.22-5.55-10.75-1-1.78-1.88-3.58-2.91-5.32a42,42,0,0,0-3.34-5.18c-.21-.26-.73-.07-.56.28.85,1.81,2,3.5,3,5.23s2.06,3.38,3,5.11c2,3.57,3.87,7.32,5.61,10.16C682.44,36.82,683.13,37.33,682.89,36.82Z" style="fill:#618140"/><path d="M827.73,46.91c.76-.44,1.22-9.77-1.13-15.65-1.76-4.38-7.24-10.71-11.89-8.33s-2.65,12,1.81,17.18C820.17,44.39,825.86,46.68,827.73,46.91Z" style="fill:#365647"/><path d="M827,45.7c-1.72-3.64-3.62-7.21-5.55-10.75-1-1.78-1.87-3.58-2.91-5.32a42,42,0,0,0-3.34-5.18c-.21-.25-.73-.07-.56.28.85,1.82,2,3.5,3,5.23s2.06,3.38,3,5.11c2,3.57,3.87,7.32,5.61,10.16C826.54,45.7,827.23,46.21,827,45.7Z" style="fill:#618140"/><path d="M1780.18,517c.76-.43,1.23-9.77-1.12-15.64-1.76-4.39-7.25-10.72-11.89-8.33s-2.65,11.95,1.8,17.18C1772.63,514.45,1778.32,516.74,1780.18,517Z" style="fill:#365647"/><path d="M1779.45,515.75c-1.73-3.64-3.62-7.21-5.55-10.75-1-1.78-1.88-3.58-2.91-5.32a44,44,0,0,0-3.34-5.18c-.21-.25-.73-.07-.57.28.86,1.82,2,3.5,3,5.24s2.06,3.38,3,5.11c2,3.57,3.87,7.31,5.61,10.15C1779,515.76,1779.69,516.26,1779.45,515.75Z" style="fill:#618140"/><path d="M1859.12,328c.76-.44,1.22-9.78-1.13-15.65-1.76-4.39-7.24-10.71-11.89-8.33s-2.65,11.95,1.81,17.18C1851.56,325.43,1857.25,327.72,1859.12,328Z" style="fill:#365647"/><path d="M1858.38,326.74c-1.72-3.64-3.62-7.22-5.55-10.76-1-1.77-1.87-3.57-2.91-5.31a40.82,40.82,0,0,0-3.34-5.18c-.21-.26-.73-.08-.56.28.85,1.81,2,3.5,3,5.23s2.06,3.38,3,5.11c2,3.57,3.87,7.31,5.61,10.16C1857.93,326.74,1858.62,327.24,1858.38,326.74Z" style="fill:#618140"/><path d="M989,124.77c-.8.37-2.16,9.62-.38,15.69,1.33,4.53,6.18,11.36,11,9.43s3.79-11.64-.15-17.27C996.27,128,990.83,125.18,989,124.77Z" style="fill:#365647"/><path d="M989.61,126.05c1.37,3.79,2.91,7.53,4.49,11.24.79,1.86,1.52,3.74,2.38,5.57a43,43,0,0,0,2.83,5.48c.18.27.72.14.59-.23-.68-1.89-1.64-3.67-2.48-5.49s-1.73-3.57-2.51-5.38c-1.63-3.74-3.15-7.65-4.61-10.65C990.06,126.09,989.42,125.52,989.61,126.05Z" style="fill:#618140"/><path d="M735.07,267.13c-.8.37-2.16,9.61-.38,15.69,1.32,4.53,6.18,11.35,11,9.43s3.78-11.64-.15-17.27C742.35,270.37,736.9,267.54,735.07,267.13Z" style="fill:#365647"/><path d="M735.68,268.41c1.37,3.79,2.91,7.53,4.49,11.23.8,1.87,1.53,3.75,2.39,5.58a41,41,0,0,0,2.83,5.47c.18.28.72.15.59-.22-.68-1.89-1.64-3.67-2.48-5.5s-1.73-3.56-2.52-5.37c-1.63-3.75-3.15-7.66-4.6-10.65C736.13,268.45,735.49,267.88,735.68,268.41Z" style="fill:#618140"/><path d="M313.94,406.29c-.8.36-2.16,9.61-.38,15.68,1.32,4.54,6.18,11.36,11,9.44s3.78-11.65-.15-17.28C321.22,409.52,315.77,406.69,313.94,406.29Z" style="fill:#365647"/><path d="M314.55,407.56c1.37,3.79,2.91,7.53,4.49,11.24.79,1.86,1.53,3.74,2.39,5.57a41.13,41.13,0,0,0,2.83,5.48c.18.27.72.14.58-.22-.67-1.89-1.63-3.68-2.47-5.5s-1.73-3.56-2.52-5.38c-1.63-3.74-3.15-7.65-4.61-10.65C315,407.61,314.36,407,314.55,407.56Z" style="fill:#618140"/><path d="M43,147.52c-.79-.37-8.69,4.64-12.12,9.95-2.57,4-4.57,12.09.05,14.51s11.29-4.73,13-11.39C45.31,155.14,43.9,149.17,43,147.52Z" style="fill:#365647"/><path d="M42.44,148.82c-2,3.51-3.8,7.12-5.58,10.73C36,161.37,35,163.15,34.2,165a41,41,0,0,0-2.31,5.72c-.08.31.37.63.56.3,1-1.75,1.71-3.64,2.54-5.47s1.58-3.63,2.43-5.41c1.78-3.68,3.75-7.39,5.06-10.45C42.7,149.18,42.71,148.33,42.44,148.82Z" style="fill:#618140"/></svg>