<svg id="e069efce-f5c4-457a-97b6-4a2cac5afb34" data-name="Layer 1" xmlns="http://www.w3.org/2000/svg" viewBox="0 0 748 150"><path d="M737.28,69.36s-58.12,31.5-147.35,43.78c-56.06,7.71-129.34,7.64-192.74-12,0,0-36.79,12.67-49.9,16.47,0,0,70.52,20.43,181.47,14.77C659,125.73,746.91,72.64,746.91,72.64Z" style="fill:#3a3704"/><path d="M418.41,106.91a284.64,284.64,0,0,1-23.1,20c6.78,1,14.21,1.89,22.26,2.73,8.17-6,15.86-12.05,22-18.41Q428.9,109.38,418.41,106.91Z" style="fill:#8c9094;opacity:0.30000000000000004"/><path d="M512.12,117.85a108.15,108.15,0,0,0-14.81,15.48q6.92-.08,14.09-.27a44.73,44.73,0,0,1,10.08-15.17C518.37,117.9,515.26,117.89,512.12,117.85Z" style="fill:#8c9094;opacity:0.30000000000000004"/><path d="M615.82,108.91a24.86,24.86,0,0,0-2.08,12.21q7.57-1.62,14.79-3.39a25.87,25.87,0,0,1-2.73-10.8C622.53,107.61,619.21,108.27,615.82,108.91Z" style="fill:#8c9094;opacity:0.30000000000000004"/><path d="M652.12,100.71a17.93,17.93,0,0,0,3.42,9.68c2-.59,4-1.2,5.9-1.8a23.78,23.78,0,0,1-4.16-9.26C655.58,99.79,653.86,100.26,652.12,100.71Z" style="fill:#8c9094;opacity:0.30000000000000004"/><path d="M669.75,95.74a58.75,58.75,0,0,0,6.61,8l3-1a71.6,71.6,0,0,1-6.42-7.88Z" style="fill:#8c9094;opacity:0.30000000000000004"/><path d="M535.39,117.65a53.1,53.1,0,0,0-8.23,14.8l1.6-.08c12.13-.62,23.89-1.64,35.25-3a26.29,26.29,0,0,1-3.18-13.12C552.56,116.92,544.06,117.39,535.39,117.65Z" style="fill:#8c9094;opacity:0.30000000000000004"/><path d="M471,115.56c-5.63,5.65-11.47,11.34-15.1,17q7.53.36,15.52.56a56.2,56.2,0,0,1,9.18-16.71Q475.8,116,471,115.56Z" style="fill:#8c9094;opacity:0.30000000000000004"/><path d="M557.87,1.29S521,30.25,459,58c-57.19,25.64-124.1,44.36-235.43,53.27-53.75,4.29-123.86,3.85-180-5.12L1.09,135s64,15.36,211.16,13c89.23-1.42,179.78-35.91,273.39-80.1,52.08-24.59,82.38-65,82.38-65Z" style="fill:#3a3704"/><path d="M76.26,110.32c-18.41,15.84-15.08,11.15-29.48,27.83a4.47,4.47,0,0,0-.88,3.59c10,1,22.61,2.48,32.26,2.95,4.58-16.72,4-15.12,17.06-32.78C88.84,111.46,82.5,110.93,76.26,110.32Z" style="fill:#8c9094;opacity:0.30000000000000004"/><path d="M176.06,113.68c-3.7.08-7.43.15-11.19.19-2.36,5.69-15.19,32.42-15.17,33.55a3,3,0,0,1,.22.28c6.57-.67,13.5,1.27,20.32.48C169.5,145.85,176.17,121.22,176.06,113.68Z" style="fill:#8c9094;opacity:0.30000000000000004"/><path d="M244.85,109.41q-10.36,1-21.27,1.88l-4.88.37c-1.32,4.55-4.66,11.93-8,21.54a67.65,67.65,0,0,0-3.53,15.51c1.68-.24,3.35-.59,5.05-.73,17.78-1.46,35.87-1.15,53.8-4.65-4.32-2.36-7.73-9.61-12.92-17.16A60.93,60.93,0,0,1,244.85,109.41Z" style="fill:#8c9094;opacity:0.30000000000000004"/><path d="M332.57,97.15q-8.22,1.59-16.88,3c-.18,2-1,7.85,1.63,13.32,2.93,6.16,6.34,9.81,7.54,12q10.83-2.78,21.72-5.84a34.33,34.33,0,0,1-8.85-9.35A39.49,39.49,0,0,1,332.57,97.15Z" style="fill:#8c9094;opacity:0.30000000000000004"/><path d="M394.14,82.19q-7.41,2.22-15.18,4.33c.31,3.68,18.24,14.37,23.92,15.35,2.25-.8,4.5-1.6,6.75-2.42C404.58,96.9,394.73,84.64,394.14,82.19Z" style="fill:#8c9094;opacity:0.30000000000000004"/><path d="M452.48,82.69a58.15,58.15,0,0,1-16.91-14.81q-6.42,2.52-13.06,4.93c2.42,6.44,8.21,11.54,15.66,15.76Q445.33,85.71,452.48,82.69Z" style="fill:#8c9094;opacity:0.30000000000000004"/><path d="M474.72,50.71q-4.11,2-8.4,4c2.59,2.47,6.35,4.76,12.49,8a34.91,34.91,0,0,0,10,3.65l4.3-2.09a63.15,63.15,0,0,1-7.87-4.3C480.54,56.91,476,53,474.72,50.71Z" style="fill:#8c9094;opacity:0.30000000000000004"/></svg>