<svg xmlns="http://www.w3.org/2000/svg" xmlns:xlink="http://www.w3.org/1999/xlink" viewBox="0 0 1920 900"><defs><clipPath id="af332cf9-2919-4203-a918-079dff5582af"><rect width="1920" height="900" style="fill:none"/></clipPath><clipPath id="e67b5450-af9c-4224-b54d-ef0cf4011f0b"><polygon points="393.78 910.18 137.37 910.18 157.37 434.39 373.78 434.39 393.78 910.18" style="fill:none"/></clipPath><clipPath id="b98e03a0-e7d2-40f7-91b0-a155d7427718"><polygon points="1884.92 904.96 1598.51 904.96 1638.51 429.16 1854.92 429.16 1884.92 904.96" style="fill:none"/></clipPath></defs><g id="a49a2695-bbc3-48c3-97a8-425a38d2ccdd" data-name="Layer 20"><g style="clip-path:url(#af332cf9-2919-4203-a918-079dff5582af)"><rect x="260" y="175" width="1400" height="725" style="fill:#0018f4;opacity:0.2"/><g style="opacity:0.2"><rect x="360" y="100" width="1200" height="800" style="fill:#f70000"/></g><rect width="1920" height="900" style="fill:#69b7e2"/><path d="M1850.29,635.67c-45.65,6.47-61,99.63-61,99.63s-31.83-33.32-68-21.38c-64.77,21.38-65.46,152.15-64.77,157.65-9.71-77.49-31.86-118.08-74.47-112.22-38.86,5.34-53.1,85.4-53.1,85.4s-7-21.1-26.43-19c-18.31,1.94-24.89,40.37-24.29,47.42-2.33-6.71-18.64-42.23-58.9-34.56-27.72,5.29-33.64,30.94-33.54,55.36-7.59-16.94-23.38-32.92-51.91-36-26.54-2.88-53.07,10.07-61.92,40.28,2.27-38.84-20-66.76-50.91-68.2-28.44-1.32-52.74,23.82-59.38,44-6.66-17.4-21.85-37-54.38-43-29.41-5.49-57.71,5.49-67.85,18.37-6.52-38.84-69.57-93.5-117.39-80.56C869.74,782.88,840.73,809,843,880.94c-6.64-13-19.91-64.74-53.07-59-32.55,5.64-47.4,51.46-56.24,81.67-11.06-40.28-26.94-122-83.11-122-43.18,0-60.45,83.72-58.29,126.47-8.63-30.28-21.58-58.78-47.49-49.87C525.13,865,512.37,913.43,509,942.79c-11.05-11.5-17.27-39.35-23-51.39s-16.76-55.06-38.87-53.62c-23.07,1.5-43.8,36-50.86,50.35-17.69,36-21.86,103.23-19.9,142.41,0,0,137.68-29.84,284.78-43.15,165.46-15,323.58-19.17,460.87-25.9,117.39-5.75,310,8,413.05,20.14,213,25.14,384.93,46,384.93,46V695S1902.2,628.31,1850.29,635.67Z" style="fill:#043937;opacity:0.38"/><polygon points="393.78 898.98 137.37 898.98 157.37 423.19 373.78 423.19 393.78 898.98" style="fill:#3a3704"/><polygon points="1884.92 904.96 1598.51 904.96 1638.51 429.16 1854.92 429.16 1884.92 904.96" style="fill:#3a3704"/><path d="M544.47,380.39c-3.62,37.51-10.8,82.21,22.59,93.09,12.27,4,32.09.84,43.38-7.23,15.82-11.3,19.19-22.27,25-31.75,5.59,11.59,20.14,22.55,31.92,16.39,14.36-7.52,10.85-26.67,7.68-41.13,12.2,15.37,26.13,12.31,30.25-9.45,2.29,11.71,17.66,35.62,33,36.11,14,.46,20.25-17.54,22.14-35.24,16.08,37.27,60.58,47,69.14,2.71,6.54,9.63,15.08,16.36,30.27,14.46,10.85-1.36,20.34-11.3,21.7-29.37,7.74,11.22,27.3,15.65,43.37,2.31,17.83-14.8,11.76-68.07,11.76-68.07H568.42S550.72,348.2,544.47,380.39Z" style="fill:#042b2e"/><path d="M839,300.31s-8.28,57.91-61.16,106.07c-33.22,30.26-88,58.37-157.12,60.56,0,0-13.33,28.45-18.88,37.78,0,0,75.35-4.05,151.79-53.11,89.76-57.59,96.2-151.3,96.2-151.3Z" style="fill:#3a3704"/><path d="M643,465.31a258.82,258.82,0,0,1,5.08,31.5c6.12-1.52,12.7-3.33,19.64-5.48a145.21,145.21,0,0,0-4.11-29.24C656.87,463.41,650,464.5,643,465.31Z" style="fill:#8c9094;opacity:0.30000000000000004"/><path d="M725,441.62a118.88,118.88,0,0,0,6.19,23.16q5.09-2.73,10.21-5.72a70.51,70.51,0,0,1-9.37-21Q728.59,439.89,725,441.62Z" style="fill:#8c9094;opacity:0.30000000000000004"/><path d="M792.4,391.66a69.36,69.36,0,0,0,12,14.58q3.84-4.75,7.26-9.52a83.85,83.85,0,0,1-14.06-11.14C796,387.61,794.22,389.63,792.4,391.66Z" style="fill:#8c9094;opacity:0.30000000000000004"/><path d="M810.35,368.45a57.59,57.59,0,0,0,13.32,9.61c.83-1.44,1.62-2.88,2.4-4.31a73.94,73.94,0,0,1-13.42-8.85C811.91,366.08,811.14,367.26,810.35,368.45Z" style="fill:#8c9094;opacity:0.30000000000000004"/><path d="M818,356.05a142.65,142.65,0,0,0,13.78,6.43c.36-.77.72-1.54,1.06-2.31-4.6-1.8-9-4.23-13.55-6.43Q818.62,354.9,818,356.05Z" style="fill:#8c9094;opacity:0.30000000000000004"/><path d="M742.15,432.45a96,96,0,0,0,10.34,19.87l1.1-.71a219.44,219.44,0,0,0,23-16.92,85.6,85.6,0,0,1-17-13.59C754.13,425,748.32,428.82,742.15,432.45Z" style="fill:#8c9094;opacity:0.30000000000000004"/><path d="M691.79,454.85c2.09,8.54,4.08,17.21,7.67,25q6-2.49,12.2-5.33a103.19,103.19,0,0,1-11.75-22.39C697.24,453.06,694.54,454,691.79,454.85Z" style="fill:#8c9094;opacity:0.30000000000000004"/><path d="M629.36,292.47s4.72,46.9-10.57,102c-14.11,50.93-43.16,97.79-116.28,150.64-35.31,25.53-88.1,52-139.93,63.43V700.5s87.88-29.18,172.32-109.57C586.12,542.17,629,481.28,649.63,395.4c11.46-47.77,7.58-102.93,7.58-102.93Z" style="fill:#3a3704"/><path d="M391.56,600.72c3.9,25,9.05,49.62,16.89,74,.59,1.79,2.28,2.47,3,4.1,7.28-3.76,15.17-8.07,23.53-12.95-11.09-23.36-20.44-46.15-27.53-70.62Q399.58,598.16,391.56,600.72Z" style="fill:#8c9094;opacity:0.30000000000000004"/><path d="M469.73,566.14q-4,2.28-8.14,4.51c4.59,7.34,34.13,51.18,35.41,52.45l.47.23q6.24-4.92,12.55-10.2C506.89,610.79,478.21,574.61,469.73,566.14Z" style="fill:#8c9094;opacity:0.30000000000000004"/><path d="M516.28,534.88q-6.61,5.1-13.77,10.28c-1.06.77-2.14,1.54-3.23,2.3,4.09,5.65,9.81,15.26,18,27.38A180.37,180.37,0,0,0,532,593.7c1-.91,2-1.84,2.94-2.77,10.26-9.77,20.19-20,29.67-30.87-5.85-1-11.17-2.94-23.46-9.46A186.93,186.93,0,0,1,516.28,534.88Z" style="fill:#8c9094;opacity:0.30000000000000004"/><path d="M568.06,487.3q-4.38,4.95-9.2,9.94c2.1,2.33,8,9.23,16,14.4,9,5.83,15.65,8.64,19,10.64q5-7.31,9.7-14.95a77.16,77.16,0,0,1-17-7.15A126.38,126.38,0,0,1,568.06,487.3Z" style="fill:#8c9094;opacity:0.30000000000000004"/><path d="M597.32,446.74q-3,5.37-6.5,10.72c4.33,4,29.6,9.21,34.93,8.13.79-1.76,1.57-3.54,2.34-5.32C621.49,459.34,600.48,449.28,597.32,446.74Z" style="fill:#8c9094;opacity:0.30000000000000004"/><path d="M641.39,424.87c-10-1.92-19.72-5.66-29.1-10.2q-2,5.29-4.26,10.57c9,6.34,19,9.88,29.24,11.77Q639.4,431,641.39,424.87Z" style="fill:#8c9094;opacity:0.30000000000000004"/><path d="M622.36,380.23c-.57,2.54-1.17,5.12-1.83,7.71,4.67,1.79,10,2.94,18.26,4.28a34.94,34.94,0,0,0,11.51.28c.3-1.33.59-2.67.87-4a88.06,88.06,0,0,1-10.65-1.83C633.61,385,625.83,382.31,622.36,380.23Z" style="fill:#8c9094;opacity:0.30000000000000004"/><path d="M1246,478.13s36.12,172.66,215.83,197.33c-4.4-9.69-7-15.86-15-39.64,0,0-140.07-15.86-185.88-160.33Z" style="fill:#3a3704"/><path d="M1298.51,548.39c-2.4-3.13-4.75-6.35-7-9.7a106.68,106.68,0,0,1-21,2.3c3.57,6.71,7.63,13.68,12.2,20.77A90.26,90.26,0,0,0,1298.51,548.39Z" style="fill:#8c9094;opacity:0.30000000000000004"/><path d="M1320.75,573.22q-3.64-3.51-7.24-7.28a153.43,153.43,0,0,1-16.14,16.41q4.14,5.28,8.69,10.51A65.48,65.48,0,0,0,1320.75,573.22Z" style="fill:#8c9094;opacity:0.30000000000000004"/><path d="M1356.78,601.4a84.5,84.5,0,0,1-1,13c-1.19,6.43-4.16,11.79-7.85,16.75q3.78,2.71,7.74,5.33A89.19,89.19,0,0,0,1367.87,608Q1362.37,604.92,1356.78,601.4Z" style="fill:#8c9094;opacity:0.30000000000000004"/><path d="M1410,626.72c-6.14-2.08-12.82-4.6-19.86-7.67A101.39,101.39,0,0,1,1376,648.48,241.26,241.26,0,0,0,1404,661a51.32,51.32,0,0,0,4-10.35C1410.42,642.54,1410.26,634.66,1410,626.72Z" style="fill:#8c9094;opacity:0.30000000000000004"/><path d="M1437.6,584.73S1427.26,744,1639.54,816V738.31S1481,741.42,1461,584.73Z" style="fill:#3a3704"/><path d="M1470.13,625.06c-.91-2.69-1.78-5.44-2.59-8.25a244.33,244.33,0,0,1-26.92,1.79c.57,3,1.24,6.23,2,9.56C1452,628.31,1461.36,627.84,1470.13,625.06Z" style="fill:#8c9094;opacity:0.30000000000000004"/><path d="M1477.41,646.85c.39-.39.82-.78,1.27-1.17-.63-1.29-1.26-2.59-1.87-3.92a23.44,23.44,0,0,0-2.58,1.9c-.64.64-2.55-.64-3.19,0a40.2,40.2,0,0,1-20.86,9.25q2.29,6.18,5.15,12.66A152.25,152.25,0,0,0,1477.41,646.85Z" style="fill:#8c9094;opacity:0.30000000000000004"/><path d="M1497.09,674.5a160.75,160.75,0,0,1-22.41,25.94,241.7,241.7,0,0,0,23.24,29.23c9.33-9.53,17-20.65,21.37-32.9A152.77,152.77,0,0,1,1497.09,674.5Z" style="fill:#8c9094;opacity:0.30000000000000004"/><path d="M1608.82,735.46a220.17,220.17,0,0,1-31.67-7.76,226.08,226.08,0,0,1-18,51.36q11.92,7.29,25.46,14.11c5.53-9.36,10.08-19.39,14.47-29.11A148.13,148.13,0,0,0,1608.82,735.46Z" style="fill:#8c9094;opacity:0.30000000000000004"/><path d="M1544.42,713.63c-2.78,14.75-11.48,27.89-22,39.24q4.75,4,9.88,7.87c9.66-13,18.71-26.4,23.15-41.54Q1549.94,716.65,1544.42,713.63Z" style="fill:#8c9094;opacity:0.30000000000000004"/><g style="clip-path:url(#e67b5450-af9c-4224-b54d-ef0cf4011f0b)"><path d="M154.41,477.53s155.24-27.31,223.42,14.69l1.27,48.39s-203.7-21.91-227,0Z" style="fill:#8c9094;opacity:0.30000000000000004"/><path d="M151,588s153,12.1,229.26,12.1l1.3,39.87s-192.81,15.4-233,0Z" style="fill:#8c9094;opacity:0.30000000000000004"/><path d="M140,867s173.8,27.31,250.13-14.69l1.42-36.47s-228,10-254.19-11.92Z" style="fill:#8c9094;opacity:0.30000000000000004"/><path d="M143.27,709.19s164,7.4,245.81,7.4l1.38,24.4s-206.72,9.42-249.78,0Z" style="fill:#8c9094;opacity:0.30000000000000004"/></g><g style="clip-path:url(#b98e03a0-e7d2-40f7-91b0-a155d7427718)"><path d="M1614.32,484.61s177.14-29.05,254.93,15.62l1.45,51.47s-232.42-23.31-259.08,0Z" style="fill:#8c9094;opacity:0.30000000000000004"/><path d="M1610.43,602.08S1785,615,1872,615l1.48,42.41s-220,16.38-265.83,0Z" style="fill:#8c9094;opacity:0.30000000000000004"/><path d="M1597.89,898.91S1796.2,928,1883.3,883.28l1.62-38.79s-260.21,10.63-290.05-12.68Z" style="fill:#8c9094;opacity:0.30000000000000004"/><path d="M1601.6,731s187.16,9.5,280.49,9.5l1.58,31.28s-235.88,12.08-285,0Z" style="fill:#8c9094;opacity:0.30000000000000004"/></g><path d="M1112,323.43h359.21V516s-36.58,41-97.14,20.49c0,0-8.47,27.79-30.33,25.06C1329.91,559.81,1321.48,548,1324,528c0,0-18.45,5.23-33.7-4.93-19.4-12.94-20.67-25.25-19.6-31.18,0,0-11.93,15.16-26.71,12.47-11.86-2.15-16.88-19.23-13.36-28.5-10.18,22.06-32.08,25.79-40.4,21.83-17-8.07-3.25-47.66-3.25-47.66s-21.4,17-39.18,6.24c-8.51-5.16-9.8-21.38-5.07-34.85-11.13,5.58-33.54,6.66-42.16-3-14.61-16.44,8.75-36.91,8.75-36.91s-20.37-.24-27.72-22.28C1076.53,344,1092,323.43,1112,323.43Z" style="fill:#042b2e"/><rect x="1005.33" y="86.67" width="514.67" height="241.33" style="fill:#042b2e"/><path d="M372.58,486.82c10.68,6.39,22.19,8.48,37.23,3C423,485,433,472.78,433.37,463c13.2,10.43,28.89,13.91,44.52,9.06,19.74-6.12,29.95-17,29.29-37.65,12.7,21.29,48.07,35.92,84.4,19.27,32.67-15,37.44-44.93,36.32-60.09,11.33,8.36,32.06,8,44.69.19,13.32-8.22,17.7-21.11,15.54-37.27C700.5,376.8,726,387.72,755,387.69c23.43,0,55.82-11.57,64.29-28.93,3.1,12.59,20.49,27.4,41.91,26.21,24.5-1.36,37.44-10.21,44.93-24.51,15.91,27,34,36.67,63.31,36.08,34-.68,53.1-17.7,59.53-30,13.31,20.43,55,17.2,69.81,2.73,17.57-17.2,17.32-30.11,17-46.09H372.58Z" style="fill:#043937"/><path d="M412.39,486.82c-10.69,6.39-22.2,8.48-37.24,3C362,485,352,472.78,351.6,463c-13.21,10.43-28.9,13.91-44.52,9.06-19.75-6.12-30-17-29.29-37.65-12.7,21.29-48.08,35.92-84.4,19.27-32.68-15-37.44-44.93-36.33-60.09-11.32,8.36-32,8-44.68.19-13.32-8.22-17.7-21.11-15.55-37.27C84.47,376.8,59,387.72,30,387.69c-23.44,0-55.82-11.57-64.29-28.93-3.11,12.59-20.49,27.4-41.91,26.21-24.51-1.36-37.44-10.21-44.93-24.51-15.91,27-34,36.67-63.31,36.08-34-.68-53.1-17.7-59.54-30-13.3,20.43-55,17.2-69.81,2.73-17.57-17.2-17.32-30.11-17-46.09H412.39Z" style="fill:#043937"/><path d="M1239.92,323.43H1647V601.3s-2.22,34-46.75,34c-42.79,0-46.26-40.4-46.26-40.4s-10.23,39.56-37.46,36.83c-30.22-3-25.83-45.42-25.83-45.42s-26.1,44.4-45.42,34.74c-26.72-13.36-8.91-54.33-8.91-54.33s-17,25.68-34.73,19.59c-7.14-2.45-13.85-15.82-2.68-35.62-27.42,29.45-59.39,1.35-30-36.5-76.6,33.85-42.88-38-42.88-38s-71.43,29.1-35.8-42.15c-36.52,8-64.36-15.17-64.13-23.15.72-25,61.52-37,61.52-37S1227.82,371.32,1239.92,323.43Z" style="fill:#043937"/><path d="M1960.4,322H1553.33V599.85s2.21,34,46.74,34c42.79,0,46.26-40.4,46.26-40.4s10.23,39.56,37.46,36.84c30.22-3,25.83-45.42,25.83-45.42s26.1,44.39,45.42,34.73c26.72-13.36,8.91-54.33,8.91-54.33s17,25.69,34.73,19.6c7.14-2.45,13.85-15.82,2.68-35.63,27.42,29.45,59.39,1.36,30-36.49,76.6,33.84,42.88-38,42.88-38s71.43,29.11,35.8-42.14c36.52,8,64.36-15.17,64.13-23.16-.72-25-61.52-37-61.52-37S1972.5,369.88,1960.4,322Z" style="fill:#043937"/><path d="M1432.17,494.74c-.52-1.05-12.9-2.41-20.9.26-6,2-14.81,8.78-12,15.15,2.87,6.53,15.69,4.47,23-1C1428.23,504.59,1431.72,497.2,1432.17,494.74Z" style="fill:#365647"/><path d="M1430.5,495.62c-5,2-9.88,4.24-14.73,6.53-2.44,1.14-4.91,2.21-7.3,3.45a57.13,57.13,0,0,0-7.16,4c-.35.26-.15,1,.33.77,2.48-1,4.81-2.36,7.2-3.57s4.65-2.47,7-3.61c4.9-2.35,10-4.57,14-6.66C1430.47,496.22,1431.2,495.34,1430.5,495.62Z" style="fill:#618140"/><path d="M1156,391.6c-.52-1-12.9-2.4-20.89.26-6,2-14.82,8.79-12,15.15,2.87,6.53,15.69,4.47,23-1C1152.1,401.45,1155.59,394.07,1156,391.6Z" style="fill:#365647"/><path d="M1154.37,392.48c-5,2-9.88,4.25-14.73,6.53-2.44,1.15-4.91,2.22-7.3,3.45a56,56,0,0,0-7.16,4c-.35.25-.15,1,.33.77,2.48-1,4.81-2.36,7.2-3.57s4.65-2.47,7-3.61c4.9-2.35,10-4.57,14-6.66C1154.34,393.08,1155.07,392.2,1154.37,392.48Z" style="fill:#618140"/><path d="M1157.61,394.3c-1,0-6.63,8.93-7.58,16-.71,5.29,1.17,14.56,7.07,14.8s9.24-10.29,7.76-17.9C1163.65,401,1159.32,395.56,1157.61,394.3Z" style="fill:#365647"/><path d="M1157.66,395.89c-.32,4.54-.44,9.11-.51,13.66,0,2.29-.14,4.56-.09,6.85a47.42,47.42,0,0,0,.41,7c.06.36.67.48.71,0,.17-2.26,0-4.55,0-6.81s-.15-4.47-.13-6.71c0-4.61.25-9.34.12-13.1C1158.11,396.14,1157.71,395.26,1157.66,395.89Z" style="fill:#618140"/><path d="M1318.92,393.24c-1,0-6.64,8.93-7.59,16-.7,5.29,1.18,14.56,7.07,14.8s9.25-10.29,7.76-17.9C1325,399.91,1320.63,394.5,1318.92,393.24Z" style="fill:#365647"/><path d="M1319,394.84c-.33,4.54-.45,9.1-.52,13.65,0,2.29-.14,4.56-.09,6.85a47.42,47.42,0,0,0,.41,7c.06.36.68.48.71,0,.17-2.26,0-4.55,0-6.81s-.15-4.47-.13-6.7c0-4.62.26-9.35.13-13.11C1319.41,395.08,1319,394.2,1319,394.84Z" style="fill:#618140"/><path d="M1547.93,539c-.36,2-.34,11.5,4.47,20.15,4.31,7.76,13.26,10.29,18.62,5.86,5-4.14,4.06-12.38-2.93-18.28C1559.29,539.31,1550.43,538.81,1547.93,539Z" style="fill:#365647"/><path d="M1549.2,540.38c3.2,4.31,6.6,8.49,10,12.62,1.73,2.07,3.38,4.19,5.18,6.19a55,55,0,0,0,5.71,5.91c.33.28,1-.09.66-.51-1.59-2.15-3.5-4.06-5.27-6.06s-3.56-3.89-5.26-5.9c-3.51-4.15-7-8.56-10-11.83C1549.79,540.26,1548.75,539.78,1549.2,540.38Z" style="fill:#618140"/><path d="M399.3,428.43c-.36,2.05-.34,11.5,4.47,20.15,4.31,7.76,13.26,10.29,18.62,5.86,5-4.14,4.06-12.38-2.93-18.27C410.66,428.75,401.8,428.25,399.3,428.43Z" style="fill:#365647"/><path d="M400.57,429.82c3.2,4.32,6.6,8.5,10,12.62,1.73,2.07,3.38,4.19,5.18,6.2a56.83,56.83,0,0,0,5.71,5.9c.33.28,1-.09.66-.51-1.58-2.15-3.5-4.06-5.27-6.06s-3.56-3.89-5.26-5.9c-3.51-4.15-6.95-8.56-10-11.82C401.16,429.7,400.13,429.22,400.57,429.82Z" style="fill:#618140"/><path d="M1511.33,579.78c-1.15-.21-9.67,8.87-12.33,16.86-2,6-1.88,17.13,4.9,18.71,6.94,1.62,13-9.86,13-19C1516.84,588.84,1513,581.61,1511.33,579.78Z" style="fill:#365647"/><path d="M1511,581.64c-1.39,5.19-2.54,10.45-3.63,15.7-.55,2.64-1.18,5.26-1.63,7.91a56.11,56.11,0,0,0-1.06,8.15c0,.43.67.7.81.2.7-2.58,1-5.27,1.46-7.9s.82-5.21,1.34-7.79c1.06-5.34,2.37-10.77,3.05-15.16C1511.5,582,1511.23,580.92,1511,581.64Z" style="fill:#618140"/><path d="M1435.82,502c-.8.36-2.16,9.61-.38,15.68,1.33,4.54,6.18,11.36,11,9.43s3.79-11.64-.15-17.27C1443.1,505.19,1437.65,502.36,1435.82,502Z" style="fill:#365647"/><path d="M1436.43,503.23c1.37,3.79,2.92,7.53,4.49,11.24.8,1.86,1.53,3.74,2.39,5.57a41.75,41.75,0,0,0,2.83,5.48c.18.27.72.14.59-.22-.68-1.89-1.64-3.68-2.48-5.5s-1.73-3.56-2.52-5.38c-1.63-3.74-3.15-7.65-4.6-10.65C1436.88,503.27,1436.24,502.71,1436.43,503.23Z" style="fill:#618140"/><path d="M1530.28,380.83c-.53-1-12.91-2.4-20.9.27-6,2-14.82,8.78-12,15.15,2.88,6.53,15.69,4.46,23-1.05C1526.33,390.68,1529.83,383.3,1530.28,380.83Z" style="fill:#365647"/><path d="M1528.61,381.71c-5,2-9.88,4.25-14.74,6.53-2.44,1.15-4.9,2.22-7.3,3.46a54,54,0,0,0-7.15,4c-.36.25-.16,1,.32.77,2.49-1,4.82-2.36,7.2-3.57s4.66-2.47,7-3.61c4.91-2.35,10-4.57,14-6.66C1528.57,382.32,1529.3,381.43,1528.61,381.71Z" style="fill:#618140"/><path d="M1533.92,388.06c-.79.36-2.16,9.61-.38,15.68,1.33,4.54,6.18,11.36,11,9.43s3.79-11.64-.14-17.27C1541.2,391.29,1535.76,388.46,1533.92,388.06Z" style="fill:#365647"/><path d="M1534.54,389.33c1.37,3.79,2.91,7.53,4.49,11.24.79,1.86,1.52,3.74,2.39,5.57a42.94,42.94,0,0,0,2.82,5.48c.18.27.72.14.59-.22-.67-1.9-1.64-3.68-2.48-5.5s-1.72-3.57-2.51-5.38c-1.63-3.74-3.15-7.65-4.61-10.65C1535,389.37,1534.35,388.8,1534.54,389.33Z" style="fill:#618140"/><path d="M1370.22,368.3c-.79.37-2.16,9.62-.38,15.69,1.33,4.53,6.18,11.36,11,9.43s3.79-11.64-.14-17.27C1377.5,371.54,1372.06,368.71,1370.22,368.3Z" style="fill:#365647"/><path d="M1370.84,369.58c1.37,3.79,2.91,7.53,4.49,11.24.79,1.86,1.52,3.74,2.39,5.57a42.94,42.94,0,0,0,2.82,5.48c.18.27.72.14.59-.23-.67-1.89-1.64-3.67-2.48-5.5s-1.72-3.56-2.51-5.37c-1.63-3.75-3.15-7.65-4.61-10.65C1371.29,369.62,1370.65,369.05,1370.84,369.58Z" style="fill:#618140"/><path d="M466.81,355.91c-.52-1-12.9-2.4-20.9.26-6,2-14.81,8.79-12,15.15,2.87,6.53,15.68,4.47,23-1C462.86,365.76,466.36,358.37,466.81,355.91Z" style="fill:#365647"/><path d="M465.14,356.79c-5,2-9.88,4.25-14.74,6.53-2.43,1.15-4.9,2.22-7.3,3.45a55.85,55.85,0,0,0-7.15,4c-.35.25-.15,1,.33.77,2.48-1,4.81-2.36,7.19-3.57s4.66-2.48,7-3.61c4.9-2.36,10-4.57,13.95-6.66C465.11,357.39,465.83,356.51,465.14,356.79Z" style="fill:#618140"/><path d="M571.33,388.93c-.88.77.93,13.09,5.52,20.16,3.43,5.28,12.23,12.12,17.69,7.81s.37-16.31-6.8-22C581.86,390.27,573.83,388.75,571.33,388.93Z" style="fill:#365647"/><path d="M572.6,390.32c3.2,4.31,6.6,8.49,10,12.62,1.72,2.07,3.38,4.19,5.18,6.2a55.73,55.73,0,0,0,5.7,5.9c.34.28,1-.09.66-.51-1.58-2.15-3.49-4.06-5.26-6.06s-3.57-3.89-5.27-5.9c-3.51-4.15-6.95-8.56-10-11.82C573.2,390.2,572.16,389.72,572.6,390.32Z" style="fill:#618140"/><path d="M571.46,382.47c.06.8,7.65,4.83,13.45,5.16,4.34.25,11.74-1.84,11.57-6.64s-8.91-6.86-15-5.19C576.5,377.16,572.37,381,571.46,382.47Z" style="fill:#365647"/><path d="M572.75,382.33c3.7,0,7.41-.2,11.11-.42,1.85-.11,3.71-.17,5.56-.35a37.82,37.82,0,0,0,5.61-.76c.29-.07.34-.58,0-.58-1.85,0-3.69.29-5.52.45s-3.62.4-5.43.52c-3.74.26-7.6.37-10.64.71C572.92,382,572.23,382.33,572.75,382.33Z" style="fill:#618140"/><path d="M658.51,344.65c-1.16.12-6.8,11.22-7.13,19.64-.25,6.29,3,17,9.93,16.59,7.12-.38,9.72-13.1,7.14-21.87C666.33,351.82,660.66,345.94,658.51,344.65Z" style="fill:#365647"/><path d="M658.75,346.52c.12,5.37.48,10.74.9,16.09.21,2.69.34,5.37.65,8.05a55.49,55.49,0,0,0,1.25,8.12c.11.42.84.48.83,0,0-2.67-.5-5.33-.79-8s-.67-5.23-.9-7.85c-.47-5.42-.73-11-1.3-15.41C659.3,346.76,658.73,345.77,658.75,346.52Z" style="fill:#618140"/><path d="M542.23,444.7c-1.15-.21-9.67,8.87-12.34,16.86-2,6-1.87,17.13,4.9,18.71,7,1.62,13-9.86,13-19C547.73,453.76,543.93,446.53,542.23,444.7Z" style="fill:#365647"/><path d="M541.93,446.56c-1.38,5.19-2.54,10.45-3.63,15.7-.55,2.64-1.17,5.26-1.62,7.91a54.82,54.82,0,0,0-1.07,8.14c0,.44.68.71.81.21.7-2.58,1-5.27,1.47-7.9s.82-5.21,1.33-7.79c1.07-5.34,2.38-10.77,3.06-15.16C542.39,447,542.12,445.84,541.93,446.56Z" style="fill:#618140"/><path d="M466.71,359.39c-.8.36-2.16,9.61-.38,15.68,1.33,4.54,6.18,11.36,11,9.43s3.79-11.64-.14-17.27C474,362.62,468.55,359.79,466.71,359.39Z" style="fill:#365647"/><path d="M467.33,360.66c1.37,3.79,2.91,7.53,4.49,11.24.79,1.86,1.52,3.74,2.38,5.57A43,43,0,0,0,477,383c.18.27.72.14.59-.22-.68-1.89-1.64-3.68-2.48-5.5s-1.72-3.56-2.51-5.38c-1.63-3.74-3.15-7.65-4.61-10.65C467.78,360.71,467.14,360.14,467.33,360.66Z" style="fill:#618140"/><path d="M888.05,371.68c-.53-1-12.9-2.4-20.9.26-6,2-14.81,8.79-12,15.15,2.87,6.53,15.68,4.47,23-1C884.1,381.53,887.6,374.15,888.05,371.68Z" style="fill:#365647"/><path d="M886.38,372.56c-5,2-9.88,4.25-14.74,6.53-2.44,1.15-4.9,2.22-7.3,3.45a55.17,55.17,0,0,0-7.15,4c-.35.25-.15,1,.33.77,2.48-1,4.81-2.36,7.19-3.57s4.66-2.47,7-3.61c4.91-2.35,10-4.57,14-6.66C886.35,373.17,887.07,372.28,886.38,372.56Z" style="fill:#618140"/><path d="M896.54,361.26c-.8.36-2.16,9.61-.38,15.68,1.33,4.54,6.18,11.36,11,9.43S911,374.73,907,369.1C903.82,364.49,898.38,361.66,896.54,361.26Z" style="fill:#365647"/><path d="M897.15,362.53c1.37,3.79,2.92,7.53,4.49,11.24.8,1.86,1.53,3.74,2.39,5.57a41.75,41.75,0,0,0,2.83,5.48c.18.27.72.14.59-.22-.68-1.89-1.64-3.68-2.48-5.5s-1.73-3.56-2.52-5.38c-1.62-3.74-3.14-7.65-4.6-10.65C897.6,362.57,897,362,897.15,362.53Z" style="fill:#618140"/><path d="M957.25,386.78c-.94-.52-11,4.87-15.66,11-3.48,4.6-6.64,14.33-1.22,17.69s14.18-4.77,16.83-12.72C959.38,396.27,958.19,388.87,957.25,386.78Z" style="fill:#365647"/><path d="M956.45,388.31c-2.72,4.1-5.27,8.33-7.75,12.58-1.25,2.13-2.56,4.22-3.73,6.4a52.25,52.25,0,0,0-3.32,6.76c-.13.38.39.81.65.41,1.36-2,2.41-4.28,3.59-6.43s2.24-4.29,3.44-6.38c2.49-4.32,5.22-8.66,7.09-12.27C956.74,388.78,956.83,387.74,956.45,388.31Z" style="fill:#618140"/><path d="M963.83,390.24c-.84.3-3.11,9.53-1.89,15.86.91,4.72,5.17,12.09,10.27,10.61s5-11.43,1.51-17.51C970.9,394.22,965.65,390.83,963.83,390.24Z" style="fill:#365647"/><path d="M964.33,391.6c1,4,2.23,7.9,3.47,11.81.63,2,1.19,3.94,1.89,5.87A41.36,41.36,0,0,0,972,415.1c.15.3.71.22.61-.17-.5-2-1.3-3.88-2-5.8s-1.41-3.78-2-5.69c-1.29-3.95-2.46-8.06-3.65-11.23C964.79,391.68,964.19,391,964.33,391.6Z" style="fill:#618140"/><path d="M1057.9,371.22c-1,.45-2.67,11.84-.48,19.32,1.64,5.59,7.62,14,13.59,11.62,6.14-2.43,4.67-14.34-.18-21.28C1066.86,375.2,1060.16,371.72,1057.9,371.22Z" style="fill:#365647"/><path d="M1058.65,372.79c1.69,4.67,3.59,9.28,5.53,13.84,1,2.3,1.88,4.61,2.94,6.87a52.4,52.4,0,0,0,3.49,6.74c.22.34.88.18.72-.27-.83-2.33-2-4.53-3-6.77s-2.13-4.39-3.1-6.62c-2-4.62-3.88-9.43-5.68-13.12C1059.21,372.84,1058.42,372.14,1058.65,372.79Z" style="fill:#618140"/><path d="M972.7,340.33c-1,.44-2.66,11.84-.47,19.32,1.64,5.58,7.61,14,13.59,11.62s4.67-14.35-.18-21.28C981.67,344.31,975,340.83,972.7,340.33Z" style="fill:#365647"/><path d="M973.46,341.9c1.69,4.67,3.59,9.27,5.53,13.84,1,2.29,1.88,4.61,2.94,6.86a52.46,52.46,0,0,0,3.48,6.75c.23.34.89.18.73-.27-.83-2.33-2-4.53-3-6.78s-2.13-4.38-3.1-6.62c-2-4.61-3.88-9.43-5.68-13.12C974,342,973.22,341.25,973.46,341.9Z" style="fill:#618140"/><path d="M766.44,373.26c-.8.37-2.16,9.62-.38,15.69,1.33,4.54,6.18,11.36,11,9.43s3.79-11.64-.15-17.27C773.72,376.5,768.28,373.67,766.44,373.26Z" style="fill:#365647"/><path d="M767.06,374.54c1.37,3.79,2.91,7.53,4.49,11.24.79,1.86,1.52,3.74,2.38,5.57a43,43,0,0,0,2.83,5.48c.18.27.72.14.59-.23-.68-1.89-1.64-3.67-2.48-5.49s-1.73-3.57-2.51-5.38c-1.63-3.74-3.15-7.65-4.61-10.65C767.51,374.58,766.86,374,767.06,374.54Z" style="fill:#618140"/><path d="M1105.7,323.22s40.5-2.43,28.56-40.92c0,0,63.7,4,47.77-61.05,0,0,33.18,26.55,58.4,0s2.65-53.09,2.65-53.09,31.86,38.49,73,1.33-6.64-71.67-6.64-71.67H0V330.08l1082.49,1.33Z" style="fill:#043937"/><path d="M1239.92,323.43s2.55-17.24,49-35.82c0,0-39.82-15.93-12-43.8s57.07-6.63,57.07-6.63-30.52-34.51,2.66-49.11c0,0-27.87-8-22.57-39.81s5.31-50.44,5.31-50.44L1930,100l-1.38,226.1Z" style="fill:#043937"/><rect width="1920" height="100" style="fill:#043937"/><circle cx="767.02" cy="251.9" r="55.31" style="fill:#043937"/><circle cx="362.58" cy="326.95" r="55.31" style="fill:#043937"/><path d="M707.67,119.79s-11.7,66-86.42,120.87c-47,34.48-144.3,68.51-242,71,0,0,1.16,30.42-6.69,41.05,0,0,106.49-4.62,214.52-60.52C713.88,226.57,723,119.79,723,119.79Z" style="fill:#3a3704"/><path d="M430.68,307.81a242.06,242.06,0,0,1,7.18,35.89c8.65-1.73,17.95-3.79,27.75-6.24-.76-11.24-2.24-22.44-5.8-33.31C450.36,305.65,440.64,306.89,430.68,307.81Z" style="fill:#8c9094;opacity:0.30000000000000004"/><path d="M546.65,280.82a115.61,115.61,0,0,0,8.74,26.39q7.18-3.12,14.43-6.52c-5.9-7.43-10.68-15.51-13.24-23.92Q551.71,278.84,546.65,280.82Z" style="fill:#8c9094;opacity:0.30000000000000004"/><path d="M641.88,223.88a85.55,85.55,0,0,0,17,16.62q5.43-5.42,10.26-10.85A117.94,117.94,0,0,1,649.28,217Q645.71,220.42,641.88,223.88Z" style="fill:#8c9094;opacity:0.30000000000000004"/><path d="M667.25,197.43a82.9,82.9,0,0,0,18.82,11c1.17-1.65,2.29-3.29,3.38-4.92a109.05,109.05,0,0,1-19-10.08Q668.91,195.4,667.25,197.43Z" style="fill:#8c9094;opacity:0.30000000000000004"/><path d="M678,183.31c6.37,2.58,12.54,5.2,19.47,7.33L699,188c-6.52-2-12.78-4.81-19.16-7.32Z" style="fill:#8c9094;opacity:0.30000000000000004"/><path d="M570.86,270.36c3.65,8.23,8.9,15.51,14.61,22.64l1.57-.8a316,316,0,0,0,32.45-19.28,120.43,120.43,0,0,1-24-15.48C587.8,261.9,579.58,266.23,570.86,270.36Z" style="fill:#8c9094;opacity:0.30000000000000004"/><path d="M499.71,295.89c3,9.73,5.75,19.61,10.83,28.48q8.51-2.83,17.24-6.08a111.48,111.48,0,0,1-16.61-25.51C507.4,293.86,503.59,294.9,499.71,295.89Z" style="fill:#8c9094;opacity:0.30000000000000004"/><path d="M127.63,657.34c22-3.7,40.83,2.27,51.87,4.33,3.8,10.18,6.47,25.63,7.84,42.2-7.87,7.65-17.06,14.15-25.31,21.72,9,.6,17.6-1.44,26.27-3.9a251.22,251.22,0,0,1-1.41,35.83c-6.75,7.29-24.33,18.54-38.76,22,12.34,1.6,28.33-2.56,40.61-2.41.3,10.25-6.63,23.84-10,34.3-15.23,8.48-20.81,11.48-40.4,12.38,6.82,3.16,26.59,6,33.16,4.11-3,6.47-9.65,20.78-17.6,29.21-14.11,8.53-35,7.08-60.17,4.51,20.07,7.63,27,7.56,48.2,10.55a152.8,152.8,0,0,1-17.14,17.19c-20-.11-40.12.15-60-2.5,12.77,7.08,30.42,11.81,45.28,14.56-5.7,7.28-19.53,16.85-41.2,25.66-18.58,7.55-40.47,11.71-68.7,2.12-9.78-7-24.2-28.13-24.87-55.47,9.42.45,19.18.29,27.4-2.7-14.22-1.81-21.21-3.6-30.09-7.48-5.18-15.91-3.85-40.64-1.56-49C-24.53,818-9.26,827.31.73,826.28c-16.18-3.41-23.69-28.83-25.59-34.11,2.35-11.12,15-37.75,21.53-44.89C4.29,761.79,24.21,781,33.14,783.79,15.68,769.57,11.91,757,5.19,736c7.72-20.24,15.88-29.76,29.7-40.58,2.28,13.18,14.19,32.86,27.54,45-10.65-22-15.9-40.17-15.66-51.93,7.26-5.3,13.92-8,21.73-11.87,9.43,14.63,20.58,35.41,29.28,47.14-3-23.78-9-39.63-8.56-58.18,2.68-.95,8.87-3.65,11.57-4.43a73.59,73.59,0,0,1,14.37-2.86c4,16.84,9.68,25.63,14.22,41.09C127.87,677.11,127.45,665.54,127.63,657.34Z" style="fill:#003b46"/><path d="M81.87,795.19c30.22-47,66.52-96.81,95.91-133.63,0,0-20.72,20.3-54.92,65.52a82.18,82.18,0,0,1-5.81-8.73,94.77,94.77,0,0,1-5.58-11.52,167.85,167.85,0,0,1-7.64-25c-1.12-4.77-2.13-9.56-3.25-14.33-.09-.4-.66-.22-.6.17a205.79,205.79,0,0,0,5.67,25.85,119,119,0,0,0,9.62,24.14A79.13,79.13,0,0,0,122,728.17C110.82,743,98.18,760.56,84.35,780.89c-51.81,76.23-97.84,158.3-97.84,158.3l8.17,3.38S32.58,871.87,81.87,795.19Z" style="fill:#4b6254"/><path d="M180.18,737c.47-.21.11-.86-.33-.77-1.78.35-3.54.84-5.31,1.23s-3.51.67-5.27.9a63.69,63.69,0,0,1-10.78.52,64.75,64.75,0,0,1-21.06-4.33,67.4,67.4,0,0,1-10.81-5.5c-.82-.51-1.51.77-.72,1.29a60.94,60.94,0,0,0,20.36,8.45,65.45,65.45,0,0,0,21.93,1.13,59.44,59.44,0,0,0,6.08-1.06A31,31,0,0,0,180.18,737Z" style="fill:#4b6254"/><path d="M74,795.44c-1.93-2.31-4.12-4.42-6.12-6.67s-4-4.57-5.85-6.92c-3.78-4.7-7.33-9.6-10.64-14.65a189.69,189.69,0,0,1-16.91-32c-2.58-6.28-4.87-12.7-6.83-19.2a.33.33,0,0,0-.64.18A171.6,171.6,0,0,0,39.9,750.33a185.1,185.1,0,0,0,19.46,30.73q3.18,4.05,6.56,7.93,1.69,1.93,3.44,3.83a49.85,49.85,0,0,0,3.6,3.67A.73.73,0,0,0,74,795.44Z" style="fill:#4b6254"/><path d="M166.5,800.81a.31.31,0,0,0-.16-.59,150.88,150.88,0,0,1-34.48,4.63,143,143,0,0,1-53-9.06c-1-.36-1.35,1.18-.4,1.54a141.8,141.8,0,0,0,68.9,7.67A131.84,131.84,0,0,0,166.5,800.81Z" style="fill:#4b6254"/><path d="M154.51,837.13c.42-.18.26-.84-.19-.7a69.28,69.28,0,0,1-21.13,2.9c-6.36,0-12.72-.22-19.07-.54-11.55-.58-23.25-1.72-34.27-5.44A62.06,62.06,0,0,1,63,824.7a.82.82,0,0,0-1.12.31.83.83,0,0,0,.32,1.11c9.36,6.93,20.67,10.49,32.07,12.29A167.22,167.22,0,0,0,112,840.15c6.26.31,12.54.49,18.8.51C138.79,840.68,147,840.19,154.51,837.13Z" style="fill:#4b6254"/><path d="M34.11,863.25c-.54-.46-1-1-1.53-1.46s-1.07-.93-1.59-1.41c-1-.91-2-1.83-2.93-2.8a69,69,0,0,1-5.42-6.28c-3.43-4.49-6.43-9.28-9.59-14-3.52-5.19-7-10.41-10.15-15.82S-3.25,810.64-5.88,805a124.76,124.76,0,0,1-7.35-19.7.27.27,0,0,0-.51.15c3,12.25,8.43,23.67,14.68,34.58,3.13,5.46,6.41,10.85,9.66,16.25,3,5,6.07,10,9.51,14.75a73.68,73.68,0,0,0,6,7.24,39,39,0,0,0,3.35,3.2q.91.75,1.86,1.44a20.21,20.21,0,0,0,2.15,1.27C34,864.48,34.61,863.68,34.11,863.25Z" style="fill:#4b6254"/><path d="M263.48,868.66c-1.48-17.84-4-34.37-8.84-45.95-10.79-3.07-28.25-6.43-46.56-4.83C196.84,825.82,193.62,840,190.32,846c-1.36-9.18,0-18.22,1.83-27.35a258.36,258.36,0,0,0-36.75,4.43c-5.88,13.8-12.23,27.49-14.55,42.62a325.26,325.26,0,0,1-5.33-37.64,299.25,299.25,0,0,0-32.87,11.2c-3.7,20-2.81,40.8-5.12,61-3.82-6.75-6.06-14.31-9.4-21.7-4-9.26-6.77-18.45-9.92-27.51a181,181,0,0,0-18.46,11.9c-4.56,25.76-2,52.89,2.76,78.53A297.52,297.52,0,0,1,41.2,878.83,157.77,157.77,0,0,0,24.94,897.9c1.78,20.62,3.17,41.29,7.56,61.52-8.35-12.56-15.76-26.71-19.83-41.77A19.45,19.45,0,0,1,11,920.89c-23.14,29-29.28,59.38-23.61,111.61,8,9.49,36.6,17.39,64.79,15.82,1.48-15.1,4-30.18,4.24-45.13,3,14.48,5.79,29.37,8.43,44,16.22-1.56,29.29-3.33,42-6.19-5.15-16.19-9.11-37.24-6.15-57,4.13,18.83,8.37,39.17,21.32,53.08a358.44,358.44,0,0,0,37.44-13.8q8.32-3.52,16-7.68c-4.7-3.33-37-22.22-47-47.33,3.68,5.35,37.16,33.48,70.71,32.15a173.31,173.31,0,0,0,28.46-27.12c-21.68-5.78-43-13.11-58.87-29,23.52,9.12,61.81,12.55,72.83,9.52a160.31,160.31,0,0,0,12.28-24.46c-20.39-7.47-40.8-14.65-62.65-16a284.33,284.33,0,0,1,68.37-1.25q1.14-4.24,2-8.51a131.74,131.74,0,0,0,2.52-19.61c-17.57-6.37-29.43-7.55-48.06-8.12C233.4,868.11,244.92,867.9,263.48,868.66Z" style="fill:#006a67"/><path d="M261.72,887c-3.19.64-6.31,1.58-9.53,2.15a76.67,76.67,0,0,1-9.8,1.07,139.38,139.38,0,0,1-19.49-.42c-12-1.07-24-3.84-34.58-9.74a58.15,58.15,0,0,1-13.69-10.47c48.48-32.15,80.27-45.16,80.27-45.16C224.55,836,195.15,852,167.6,870.2c-.1-.62-.19-1.23-.27-1.85a102.74,102.74,0,0,1-.72-16.73c.09-3.22.25-6.45.47-9.67s.32-6.44.68-9.64a.29.29,0,0,0-.57-.07c-.5,2.83-1.21,5.61-1.74,8.43s-1,5.64-1.38,8.48a87.93,87.93,0,0,0-.57,17c.1,1.41.24,2.82.44,4.22.1.66.21,1.31.32,2v.06c-104.55,70-181.76,169.74-181.76,169.74l5.32,2.46S39.76,973.81,113.9,914.16c18.72-15.06,36.33-28,52.33-38.88a1.65,1.65,0,0,0,1.09-.29,1.73,1.73,0,0,0,.64-.89l5-3.36c7.62,8.11,17.63,13.67,28.2,17,12.44,3.86,25.73,4.93,38.7,4.54a82,82,0,0,0,11.28-1.06c3.68-.62,7.56-1.42,10.84-3.27C262.39,887.67,262.27,886.93,261.72,887Z" style="fill:#57946b"/><path d="M118.93,846.76a91.26,91.26,0,0,0-2.49,22.41,110.31,110.31,0,0,0,2.36,22.49q.65,3,1.46,6c.29,1.09.59,2.18.92,3.26s.62,2.1,1.76,2.62a1.12,1.12,0,0,0,1.42-.61,3.17,3.17,0,0,0-.06-2.61c-.28-.94-.57-1.88-.85-2.83-.5-1.76-1-3.52-1.37-5.3-.84-3.6-1.47-7.24-2-10.89a125.46,125.46,0,0,1-1.24-22.08c.12-4.13.33-8.3.83-12.4A.36.36,0,0,0,118.93,846.76Z" style="fill:#57946b"/><path d="M89.34,931.5c-.87-2-2-3.84-3-5.77s-1.87-3.89-2.73-5.88a108.16,108.16,0,0,1-4.27-11.91,134.62,134.62,0,0,1-4.9-25.09c-.5-4.75-.9-9.55-1.1-14.33,0-.46-.77-.44-.81,0a87,87,0,0,0-.28,13,116.12,116.12,0,0,0,1.52,13,143.52,143.52,0,0,0,6.84,25c.85,2.3,1.73,4.6,2.69,6.86a49.31,49.31,0,0,0,3.21,6.77,1.64,1.64,0,0,0,2.15.37A1.65,1.65,0,0,0,89.34,931.5Z" style="fill:#57946b"/><path d="M232.59,936.8a149.62,149.62,0,0,1-21.89-.89,139,139,0,0,1-21.47-4.38,199.82,199.82,0,0,1-40.48-17c-7.16-3.92-14.49-8.41-19.95-14.56a1.35,1.35,0,1,0-1.86,1.93A95.36,95.36,0,0,0,145,915a221.85,221.85,0,0,0,20.19,10c13.64,6,28,10.83,42.81,12.83a114.06,114.06,0,0,0,12.25,1,70.28,70.28,0,0,0,12.55-.81C233.61,937.94,233.39,936.78,232.59,936.8Z" style="fill:#57946b"/><path d="M6.45,1075.49s18.2-98.35,71-175.9S198.91,794.43,206,798.24,176.11,912,129,967.93,25.31,1074.86,6.45,1075.49Z" style="fill:#1d5465"/><path d="M195.37,829.07a124.17,124.17,0,0,1-13.68,8.37,94.94,94.94,0,0,1-11.87,4.89c21.27-26.75,36.2-44.09,36.2-44.09s-18.21,18.47-40.58,43.65a204.55,204.55,0,0,1,2.3-25.77c0-.4-.59-.58-.7-.17a109.52,109.52,0,0,0-3.12,27.66c-5.53,6.24-11.29,12.88-17.08,19.73,0-.66,0-1.32.06-2,.11-2.58.25-5.16.44-7.74.39-5.15,1-10.29,1.63-15.41.38-2.91.77-5.82,1.19-8.73.06-.43-.56-.47-.65-.07a172.37,172.37,0,0,0-4.25,30.84c-.08,1.47-.15,2.94-.2,4.41l0,.82c-6.51,7.75-13,15.75-19.24,23.75-.19-4.24-.43-8.48-.53-12.72-.14-5.75-.12-11.49-.13-17.24,0-3.25,0-6.5,0-9.75,0-.47-.71-.58-.75-.09a323.38,323.38,0,0,0-.49,34.53c.07,2.43.15,4.86.29,7.29-6.8,8.82-13.22,17.61-18.86,26-.26-2.39-.69-4.78-1-7.16q-.48-4-.83-8.1c-.45-5.35-.75-10.72-.87-16.09-.07-3.06-.05-6.15-.32-9.19a.46.46,0,0,0-.91,0,60.87,60.87,0,0,0-.39,8.1c0,2.68.06,5.37.16,8.05.2,5.48.65,10.95,1.26,16.39a90.79,90.79,0,0,0,1.24,9.16.86.86,0,0,0,.45.61C99,926.82,93.48,935.23,87.72,944c-.22-.82-.54-1.63-.74-2.38-.38-1.38-.72-2.77-1-4.16-.64-2.84-1.19-5.7-1.63-8.58a146.75,146.75,0,0,1-1.56-17.51c-.11-3.38-.07-6.76.09-10.13,0-.43-.63-.51-.67-.08a117.81,117.81,0,0,0,2,35.49c.33,1.59.71,3.18,1.09,4.77.2.84.4,1.69.63,2.52a8.1,8.1,0,0,0,.64,1.87c-6.88,10.52-14,21.56-21.09,32.59,0-.14-.08-.29-.11-.44-.35-1.46-.67-2.93-1-4.4-.6-2.89-1.13-5.8-1.59-8.71-.93-5.89-1.49-11.81-2-17.75-.27-3.4-.46-6.8-.65-10.2,0-.39-.67-.38-.69,0-.64,12,.76,24.19,3.08,36,.32,1.63.66,3.25,1,4.87.19.86.39,1.72.61,2.57,0,0,0,0,0,0-4.49,7-8.94,14-13.27,20.85l-.36-.86c-.51-1.32-1-2.66-1.47-4-1-2.77-1.8-5.58-2.56-8.41a145.18,145.18,0,0,1-3.45-17.16c-.07-.47-.75-.35-.72.11a95.89,95.89,0,0,0,2.82,17.57c.71,2.82,1.57,5.6,2.51,8.35.48,1.39,1,2.78,1.51,4.15.24.61.47,1.23.71,1.85-5.67,9-11.12,17.68-16.13,25.79-.22-.74-.45-1.48-.65-2.22-.53-2-1-4-1.43-6a73.23,73.23,0,0,1-1.51-12.16c0-.29-.52-.29-.52,0a76.72,76.72,0,0,0,.81,12.49,61.69,61.69,0,0,0,1.26,6.16c.29,1.09.55,2.32.94,3.48-13.15,21.31-23.16,38.28-26.23,45.06,0,0,8.26-12.64,21.1-32a.52.52,0,0,0,.45.45,22,22,0,0,0,6.21-.22,63.54,63.54,0,0,0,6.29-.92,113.61,113.61,0,0,0,12-3.43c.24-.08.08-.43-.15-.35a74.61,74.61,0,0,1-12.22,2.5c-2,.27-4,.56-6,.75a40.8,40.8,0,0,0-6.17.59h0c3.4-5.12,7.1-10.7,11.06-16.64a5.53,5.53,0,0,0,2-.27l2-.44c1.46-.29,2.92-.56,4.38-.83,3-.54,6-1.07,8.93-1.66a62,62,0,0,0,16.72-5.51.2.2,0,0,0-.16-.36c-5.44,2.49-11.34,3.66-17.19,4.66-2.94.51-5.89.91-8.82,1.43-1.46.25-2.92.53-4.38.83-.72.15-1.59.24-2.39.46,3.62-5.44,7.44-11.15,11.4-17.06,1.35-.07,2.71-.34,4-.54s2.77-.44,4.15-.68c2.76-.49,5.52-1,8.26-1.57,5.4-1.13,10.72-2.55,16-4.19,1.48-.47,3-1,4.41-1.53.72-.28,1.43-.59,2.14-.91s1.47-.79,2.24-1.08c.18-.07.06-.34-.13-.28-1.32.46-2.78.64-4.13,1s-2.59.78-3.89,1.16c-2.68.8-5.35,1.61-8,2.33-5.32,1.41-10.67,2.72-16.09,3.71-1.48.27-3,.52-4.45.75-1.18.18-2.4.29-3.59.49,5.76-8.59,11.82-17.59,18-26.75,12.47-.37,24.72-4.47,36-9.54,3.46-1.55,6.88-3.18,10.28-4.85a.33.33,0,0,0-.27-.61c-11.9,5.11-23.86,10.71-36.73,12.86a69.85,69.85,0,0,1-8.42.88c7.16-10.57,14.51-21.34,21.83-32a66.51,66.51,0,0,0,8.9-.95q5.2-.68,10.37-1.61a124.61,124.61,0,0,0,20-5.15,72.59,72.59,0,0,0,10.8-4.85c.56-.31.18-1.24-.43-.94a97,97,0,0,1-19.41,7.16A183.8,183.8,0,0,1,103,943.59c-2,.27-3.91.52-5.86.77l-2.78.34-.23,0c4.08-5.93,8.16-11.8,12.17-17.56l4.23-6c2.38-.43,4.73-1,7.08-1.57,3.82-1,7.63-2,11.4-3.15A179.42,179.42,0,0,0,151.33,908c3.88-1.78,7.71-3.61,10.92-6.49a.3.3,0,0,0-.38-.46,56.17,56.17,0,0,1-10.12,5.26c-3.55,1.57-7.12,3.08-10.75,4.47a185.54,185.54,0,0,1-22.44,7.1c-2.27.56-4.55,1-6.82,1.54,7.33-10.35,14.7-20.46,21.9-30.13a58.57,58.57,0,0,0,6.35-.46c2.88-.3,5.75-.74,8.59-1.31a86.09,86.09,0,0,0,16.63-5.07A79.07,79.07,0,0,0,174,878c.39-.23.13-.86-.29-.65a102.32,102.32,0,0,1-32.63,10c-2.15.27-4.32.36-6.48.51,5.63-7.53,11.15-14.8,16.48-21.72,2.15-.35,4.29-.91,6.39-1.44q3.87-1,7.7-2.17a120.58,120.58,0,0,0,15.34-6,.3.3,0,0,0-.24-.54c-5,2.07-10.07,3.91-15.23,5.5q-3.9,1.2-7.88,2.16c-1.67.41-3.35.74-5,1.1,5.65-7.33,11.07-14.24,16.16-20.65a67,67,0,0,0,14.07-5.51,60,60,0,0,0,13.42-9.05A.37.37,0,0,0,195.37,829.07Z" style="fill:#79647e"/><path d="M1773.43,639.68c-21.86-4.82-41,.21-52.22,1.72-4.33,10-7.78,25.37-10,41.91,7.5,8.06,16.38,15,24.27,23.05-9,.14-17.56-2.33-26.13-5.24a252.88,252.88,0,0,0-.4,36c6.39,7.65,23.45,19.81,37.75,24-12.46,1-28.28-4-40.6-4.46-.81,10.25,5.45,24.22,8.28,34.88,14.84,9.27,20.28,12.56,39.87,14.45-7,2.82-27,4.62-33.45,2.44,2.68,6.65,8.62,21.32,16.17,30.17,13.71,9.27,34.77,8.87,60.08,7.57-20.5,6.63-27.47,6.21-48.84,8.14a153.51,153.51,0,0,0,16.31,18.1c20.1.89,40.2,2.18,60.26.52-13.16,6.45-31.09,10.31-46.12,12.31,5.34,7.59,18.72,17.87,40,27.8,18.24,8.51,40,13.79,68.75,5.6,10.16-6.5,25.68-27,27.75-54.35-9.47,0-19.25-.68-27.33-4.08,14.34-1.1,21.44-2.55,30.54-6,6-15.68,5.9-40.54,4-49.06-4.57,3.27-20.35,11.87-30.31,10.33,16.39-2.6,25.2-27.7,27.37-32.9-1.79-11.26-13.16-38.6-19.31-46.09-8.37,14.16-29.31,32.41-38.41,34.76,18.22-13.37,22.64-25.78,30.43-46.47-6.71-20.68-14.41-30.63-27.71-42.18-3,13.09-11.27,24.31-25.23,37.22,11.78-21.52,13.31-32.92,13.66-44.72-7-5.68-13.54-8.72-21.18-13-10.19,14.19-22.42,34.46-31.73,45.78,4.19-23.69,11-39.27,11.52-57.89-2.63-1.08-8.7-4.11-11.37-5a74.49,74.49,0,0,0-14.27-3.58c-4.82,16.67-11,25.19-16.33,40.46C1772.18,659.49,1773.19,647.91,1773.43,639.68Z" style="fill:#003b46"/><path d="M1812.33,780.18c-27.91-48.66-61.79-100.41-89.39-138.81,0,0,19.74,21.4,51.74,68.46a82.22,82.22,0,0,0,6.27-8.46,94.69,94.69,0,0,0,6.17-11.27,167.09,167.09,0,0,0,8.93-24.68c1.36-4.72,2.62-9.48,4-14.2.11-.4.67-.18.59.2a206.54,206.54,0,0,1-7,25.63,119.3,119.3,0,0,1-10.86,23.71,78.05,78.05,0,0,1-7.32,10.2c10.49,15.48,22.28,33.68,35.11,54.76,48.09,79,90.09,163.63,90.09,163.63l-8.37,3S1857.87,859.53,1812.33,780.18Z" style="fill:#4b6254"/><path d="M1716.72,716.88c-.45-.24-.06-.87.37-.76,1.77.44,3.5,1,5.27,1.5s3.47.85,5.23,1.18a64.9,64.9,0,0,0,32.11-2.22,67.4,67.4,0,0,0,11.11-5c.85-.47,1.48.85.67,1.34a61.48,61.48,0,0,1-20.84,7.43,65.55,65.55,0,0,1-22.05,0,59.27,59.27,0,0,1-6-1.37A30.92,30.92,0,0,1,1716.72,716.88Z" style="fill:#4b6254"/><path d="M1820.23,780.83c2.06-2.22,4.36-4.23,6.48-6.38s4.19-4.38,6.21-6.64c4-4.52,7.83-9.26,11.41-14.14a190.31,190.31,0,0,0,18.57-31.24c2.9-6.16,5.52-12.48,7.81-18.9a.33.33,0,0,1,.63.21,172.3,172.3,0,0,1-14.67,33.59,186,186,0,0,1-21.06,29.82q-3.39,3.9-7,7.62c-1.19,1.24-2.41,2.46-3.64,3.66a50.32,50.32,0,0,1-3.8,3.5A.73.73,0,0,1,1820.23,780.83Z" style="fill:#4b6254"/><path d="M1727.21,781.53a.31.31,0,0,1,.19-.58,151.88,151.88,0,0,0,34.33,6.39,143.8,143.8,0,0,0,53.6-6.41c1-.31,1.29,1.25.33,1.56a142.22,142.22,0,0,1-69.47,4.21A129.88,129.88,0,0,1,1727.21,781.53Z" style="fill:#4b6254"/><path d="M1737.39,818.54c-.41-.19-.21-.85.23-.68a69.8,69.8,0,0,0,21,4c6.36.36,12.76.43,19.14.43,11.61,0,23.39-.56,34.63-3.73a61.93,61.93,0,0,0,17.37-7.82.82.82,0,0,1,.73,1.47c-9.74,6.47-21.26,9.46-32.77,10.7a169.27,169.27,0,0,1-17.87.85c-6.29,0-12.6-.14-18.88-.45C1753,822.9,1744.75,822,1737.39,818.54Z" style="fill:#4b6254"/><path d="M1856.77,850.82c.56-.44,1-1,1.61-1.39s1.12-.88,1.66-1.33c1-.86,2.08-1.74,3.08-2.66a65.37,65.37,0,0,0,5.74-6c3.68-4.32,6.92-9,10.33-13.5,3.78-5,7.51-10.09,11-15.35s6.72-10.59,9.64-16.13a125.37,125.37,0,0,0,8.37-19.38c.1-.32.6-.15.5.17-3.62,12.13-9.66,23.31-16.46,33.92-3.42,5.33-7,10.56-10.51,15.81-3.27,4.87-6.59,9.73-10.29,14.3a73.18,73.18,0,0,1-6.33,7,39.14,39.14,0,0,1-3.52,3c-.63.47-1.28.92-1.94,1.35a21.21,21.21,0,0,1-2.22,1.16C1856.83,852.06,1856.24,851.22,1856.77,850.82Z" style="fill:#4b6254"/><path d="M1801.45,894.12a98.93,98.93,0,0,0,56.3.88c2.54-.71,5.06-1.53,7.53-2.46,1.23-.47,2.45-1,3.66-1.48a39.35,39.35,0,0,1,3.8-1.56c.51-.15.93.66.47,1a18.45,18.45,0,0,1-3.24,1.61c-1.12.48-2.26.93-3.4,1.37-2.23.84-4.48,1.61-6.75,2.29a98.61,98.61,0,0,1-42.91,3.1,92.87,92.87,0,0,1-15.77-3.79A.49.49,0,0,1,1801.45,894.12Z" style="fill:#4b6254"/><path d="M1683.62,819.32c-26,8.95-42.94,26.53-53.69,35.27,1.87,13.28,8.09,31.6,16.37,50.37,13,3.66,26.83,5.3,40.24,8.65-9.38,5.93-19.93,8.8-30.78,11.24a310,310,0,0,0,22.64,38c11.61,3.93,37.31,5.77,55,1-12.45,9-32.24,13.92-45.46,21.33,5.71,11.28,21.24,21.93,31,31.3,21.52.22,29.34.19,51.1-10.38-5.53,7.44-25.32,22.12-33.53,24,7.06,5.26,22.71,16.85,36.3,21.3,20.32.94,42.17-13,67.9-30.56-17.27,20.1-24.85,24.12-46,39.84a186.81,186.81,0,0,0,28.72,8.54c21.67-11.94,43.59-23.47,63.58-38.06-9.69,15.2-26,30.73-40.52,42.47,10.47,4.54,31.1,6.76,59.79,3.54,24.6-2.76,50.79-11.14,75.74-38.18,6.49-13.33,9.66-44.76-5.72-74.81-9.94,6-20.63,11.62-31.29,13.23,14.35-10.35,20.87-16.41,28.21-25.86-3.76-20.29-19.78-46.33-27.2-54.07-2.7,6.37-13.76,25.51-25.19,30.27,15.53-13.23,8.69-45.22,7.64-52.06-9.1-10.67-38.54-32.08-49.79-36,.28,20.22-10,52.78-18,61.08,10.55-25.71,7.23-41.55,2.16-68.26-20.3-17.41-34.75-22.92-56.12-26.5,5.29,15.63,4,44-3.31,65.07-1.42-30.13-6.44-52.92-13.63-65.53-11-1.47-19.8-.48-30.56-.07-1.6,21.42-1.44,50.53-4,68.37-10.79-27.54-13.58-48.28-25-68.13-3.46.55-11.76,1.27-15.15,2-8.17,1.78-10.32,2.72-17.27,5.38,5.62,20.59,4.6,33.48,8.79,52.93C1695,840.91,1688.64,828.11,1683.62,819.32Z" style="fill:#003b46"/><path d="M1814.48,941.83c-60.48-33.17-129.19-65.77-182.75-88.38,0,0,34.42,9.8,98.16,38.68a102.89,102.89,0,0,0,1.16-12.89,117.2,117.2,0,0,0-.75-15.78,206.84,206.84,0,0,0-6.44-31.62c-1.6-5.83-3.33-11.62-4.93-17.45-.13-.49.59-.63.75-.17a255,255,0,0,1,9.09,31.37,147.27,147.27,0,0,1,3.8,31.85,98,98,0,0,1-1.15,15.39c20.93,9.51,45,21.06,71.94,35,101.1,52.12,199.38,114,199.38,114l-6.87,8.48S1913.11,995.93,1814.48,941.83Z" style="fill:#4b6254"/><path d="M1673.58,936.67c-.63.05-.62-.87-.09-1,2.14-.67,4.33-1.17,6.48-1.8s4.19-1.34,6.25-2.13a78.73,78.73,0,0,0,12-5.78,79.66,79.66,0,0,0,20.28-17.11,82.05,82.05,0,0,0,8.48-12.34c.59-1,2.1-.06,1.55,1a75.34,75.34,0,0,1-17.1,21.15,80.61,80.61,0,0,1-23.12,14.16,72.87,72.87,0,0,1-7.22,2.43A37.7,37.7,0,0,1,1673.58,936.67Z" style="fill:#4b6254"/><path d="M1823.18,937.45c.74-3.65,1.87-7.22,2.71-10.85s1.6-7.28,2.26-10.94q2-11,2.92-22.16a233.94,233.94,0,0,0-.54-44.67c-.9-8.33-2.2-16.64-3.91-24.85a.41.41,0,0,1,.8-.18,212.34,212.34,0,0,1,6.13,44.66,228.5,228.5,0,0,1-3,44.79q-1,6.25-2.43,12.46-.7,3.09-1.48,6.17a61.64,61.64,0,0,1-1.74,6.11A.9.9,0,0,1,1823.18,937.45Z" style="fill:#4b6254"/><path d="M1906.37,987.48c.31-.82.5-1.66.8-2.48s.61-1.64.9-2.46c.54-1.58,1.06-3.17,1.52-4.77a83.23,83.23,0,0,0,2.17-10c1.08-6.89,1.5-13.86,2.18-20.79.75-7.7,1.42-15.4,1.68-23.14s.26-15.41-.22-23.11a155.84,155.84,0,0,0-3.64-25.69.33.33,0,0,1,.64-.14c4,15.05,4.8,30.65,4.45,46.15-.17,7.77-.55,15.54-.89,23.31-.31,7.21-.68,14.44-1.63,21.6a89.31,89.31,0,0,1-2.19,11.36,47.35,47.35,0,0,1-1.75,5.45c-.36.9-.75,1.78-1.16,2.66a28.42,28.42,0,0,1-1.59,2.64C1907.23,988.74,1906.08,988.25,1906.37,987.48Z" style="fill:#4b6254"/><path d="M1696.26,795.66a18.34,18.34,0,0,0-12.28.2c-5,1.87-10.87,9.21-4.26,12.54,5.15,2.59,13.66,1.11,17.35-3.31,2.76-3.3,2.85-6.23,1.12-8.12a2,2,0,0,0-.63-.65l.21.11a16.14,16.14,0,0,0-2.59-1.31Z" style="fill:#e19e5f"/><path d="M1775.26,854l.2.19c-3.56-1.73-15-1.19-24.2,5.6-7.76,5.7-14.24,21.22-1.21,23.72,10.14,1.94,24.09-4.77,28.3-14.21,2.06-4.59,2.21-8.37,1-11.1A14,14,0,0,0,1775.26,854Z" style="fill:#e19e5f"/><path d="M1798.29,879.28c-4.58-2.16-15.14-3.32-25.09,1-9.44,4.12-19.84,18.78-6.85,24.45,10.13,4.42,26.25.7,32.86-8.15,2.94-3.93,4.07-7.51,3.76-10.5A20.34,20.34,0,0,0,1798.29,879.28Z" style="fill:#e19e5f"/><path d="M1871,1017.45A400.42,400.42,0,0,0,1831.4,923a350.26,350.26,0,0,0-31-45.14c-38.32-47.19-93.23-81.06-109.66-87.23a1.16,1.16,0,1,0-.82,2.18c1.43.54,3.22,1.33,5.28,2.34a16.14,16.14,0,0,1,2.59,1.31,312.93,312.93,0,0,1,37.37,23.77A378.16,378.16,0,0,1,1775.26,854a14,14,0,0,1,4.07,4.2c0-.11-.09-.22-.14-.32a288.33,288.33,0,0,1,19.38,21.46l.18.22-.46-.23a20.34,20.34,0,0,1,4.68,6.82,8,8,0,0,0-.35-1.71c41.58,53.33,60,110.89,66.13,133.66a1.16,1.16,0,0,0,2.24-.6Z" style="fill:#637946"/><path d="M1775.81,849.67c-2.68-1.68-4.86-14.28.84-25.53,4.34-8.59,18.58-17.53,23.19-5.1,3.59,9.69-.74,24.55-9.36,30.26C1784.07,853.55,1778.82,853.13,1775.81,849.67Z" style="fill:#e19e5f"/><path d="M1797.66,873.69c-2.86-1.8-5.19-15.27.9-27.3,4.64-9.19,19.87-18.75,24.79-5.45,3.84,10.36-.79,26.25-10,32.35C1806.5,877.83,1800.89,877.39,1797.66,873.69Z" style="fill:#e19e5f"/><path d="M1818.66,899.82c-2.84-2-5-17,1.3-30.5,4.79-10.33,20.18-21.23,24.92-6.45,3.69,11.52-1.18,29.33-10.49,36.28C1827.45,904.32,1821.84,903.91,1818.66,899.82Z" style="fill:#e19e5f"/><path d="M1836.39,929.1c-2.84-2.38-3.62-18.64,4.44-32.47,6.16-10.56,23.7-20.67,27.28-4.39,2.79,12.68-4.2,31.23-14.85,37.72C1845.33,934.79,1839.37,933.79,1836.39,929.1Z" style="fill:#e19e5f"/><path d="M1754.74,831.18c-2.55-1.21-5.8-12.15-1.92-22.72,3-8.07,14.64-17.49,20-6.94,4.19,8.21,1.9,21.84-5.14,27.8C1762.47,833.75,1757.78,833.93,1754.74,831.18Z" style="fill:#e19e5f"/><path d="M1733.63,815.22c-2.2-1-5-10.49-1.66-19.63,2.55-7,12.65-15.1,17.3-6,3.62,7.1,1.65,18.87-4.43,24C1740.31,817.45,1736.25,817.6,1733.63,815.22Z" style="fill:#e19e5f"/><path d="M1715,802.53c-2-.62-5.7-8.45-4-16.8,1.31-6.37,9-14.73,14.22-7.43,4.06,5.68,3.87,16.13-.73,21.38C1721.11,803.59,1717.62,804.25,1715,802.53Z" style="fill:#e19e5f"/><path d="M1704.77,789c-2.35,3.59-5.12,4.54-7.43,3.43-1.75-.26-5.65-6.23-5.23-13.26.33-5.36,5.64-13.09,10.75-7.74C1706.84,775.63,1707.92,784.2,1704.77,789Z" style="fill:#e19e5f"/><path d="M1754.79,836c3.52,2.09,4.72,6.64,2,12.94-3.64,8.48-16,14.65-25.08,13-11.66-2.06-6.07-16,.78-21.18C1741.48,834,1752.89,833.91,1754.79,836Z" style="fill:#e19e5f"/><path d="M1734.68,820.64c3,1.81,4.08,5.73,1.74,11.18-3.15,7.32-13.82,12.65-21.67,11.26-10.07-1.78-5.25-13.81.67-18.3C1723.18,818.91,1733,818.83,1734.68,820.64Z" style="fill:#e19e5f"/><path d="M1716.07,807.77c2.4,2,2.78,5.5,0,9.92-3.68,5.94-13.62,9.17-20.24,6.95-8.5-2.85-2.75-12.65,3-15.77C1706.32,804.79,1714.88,806,1716.07,807.77Z" style="fill:#e19e5f"/><path d="M1686.91,791c-1,1.32-8,2.17-14.21-.91-4.77-2.36-9.68-9.71-2.73-11.79,5.41-1.62,13.66.84,16.8,5.3C1689.11,786.86,1688.85,789.5,1686.91,791Z" style="fill:#e19e5f"/></g></g></svg>