<svg xmlns="http://www.w3.org/2000/svg" xmlns:xlink="http://www.w3.org/1999/xlink" viewBox="0 0 85 136"><defs><radialGradient id="fc36e789-18c1-4a47-9455-78ceb3829d96" cx="-324.76" cy="476.41" r="0.61" gradientTransform="matrix(39.33, -15.21, -7.04, -18.62, 16184.66, 3956.6)" gradientUnits="userSpaceOnUse"><stop offset="0" stop-color="#8ab505"/><stop offset="1" stop-color="#1c8f07"/></radialGradient><radialGradient id="f0e383bc-6a0c-4c64-af11-f983d62e5abd" cx="-324.77" cy="476.41" r="0.62" xlink:href="#fc36e789-18c1-4a47-9455-78ceb3829d96"/><radialGradient id="a3c52e4d-f2e9-4745-858c-288f15df433b" cx="2567.24" cy="-1145.7" r="21.01" gradientTransform="matrix(-0.61, 0.73, 0.73, 0.6, 2425.04, -1172.18)" gradientUnits="userSpaceOnUse"><stop offset="0" stop-color="#dd8826"/><stop offset="1" stop-color="#9e5d26"/></radialGradient><radialGradient id="ac53d7f7-6b3b-4103-b0f7-9113840c30df" cx="-615.61" cy="-158.71" r="0.61" gradientTransform="matrix(3.45, -5.28, 2.29, 1.14, 2495.13, -3067.15)" xlink:href="#a3c52e4d-f2e9-4745-858c-288f15df433b"/><radialGradient id="ade6a416-7405-4f0d-be47-35f5c0589f48" cx="-615.61" cy="-158.71" r="0.61" gradientTransform="matrix(3.45, -5.28, 2.29, 1.14, 2495.13, -3067.15)" gradientUnits="userSpaceOnUse"><stop offset="0" stop-color="#d5740e"/><stop offset="1" stop-color="#984f0e"/></radialGradient><radialGradient id="a3907e33-09bd-4d30-b9b3-60e6b2121060" cx="-377.19" cy="450.03" r="0.61" gradientTransform="matrix(16.22, -15.61, 23.11, 23.92, -4256.95, -16631.05)" xlink:href="#ade6a416-7405-4f0d-be47-35f5c0589f48"/></defs><g style="isolation:isolate"><g id="e95ca565-5c8d-4a14-9ea0-45696f26a66c" data-name="Layer 1"><path d="M32.15,134a38.34,38.34,0,0,0,6.35-1.55A30,30,0,0,1,32.15,134Z" style="fill:#ed952f"/><path d="M75.34,17.07h.3c.54.39,1,.75,1.42,1.08A13.65,13.65,0,0,0,75.34,17.07Z" style="fill:url(#fc36e789-18c1-4a47-9455-78ceb3829d96)"/><path d="M74.79,16.78h.42l.43.3h-.3C75.16,17,75,16.87,74.79,16.78Z" style="fill:#507705"/><path d="M77.06,18.15a10.81,10.81,0,0,1,1.73,1.52A19.77,19.77,0,0,0,77.06,18.15Z" style="fill:url(#f0e383bc-6a0c-4c64-af11-f983d62e5abd)"/><path d="M5.78,128.55C11,133,19.85,135.92,29.9,134.91s21.29-6,31.38-17.5c.46-.54.92-1.06,1.37-1.6C74.17,102.13,80,87.54,80.75,74.49S77.14,50,68.31,42.51a36.06,36.06,0,0,0-13.09-6.94,42.37,42.37,0,0,0-16.68-.81c-7,1-14.73,4-20.4,10.7-4,4.78-7,11.5-8,20.75-1,9.83-.66,18.41-1.2,26.28s-2,15-6.7,22.09a8.47,8.47,0,0,0-1.16,7.22A14.15,14.15,0,0,0,5.78,128.55ZM37,40.32l0-.11c-.53-1.35-1.07-2.64-1.61-3.88L35.19,36c.94-.22,1.88-.41,2.81-.56a1.17,1.17,0,0,1,.09.24c.58,1.6.87,2.55.86,2.56l0,0,0,0a2.53,2.53,0,0,1-.56,1.2h0a2.27,2.27,0,0,1-1.32.78Z" style="fill:#ffba0d"/><path d="M22.37,41.08A37.68,37.68,0,0,1,34.9,35.33c.57,1.26,1.12,2.57,1.67,4l0,.11h.12a2.31,2.31,0,0,0,1.34-.8h0a2.73,2.73,0,0,0,.58-1.22V37.3s-.29-1-.88-2.62a37.79,37.79,0,0,1,23.66,3.37C82.75,48.39,80.48,71.74,80.15,77c-.73,11.87-7.72,26.62-17.57,38.31-7,8.33-15.46,15.09-24.15,18.16A40,40,0,0,1,31.94,135a25.12,25.12,0,0,1-3.66.21C4,134.88-.79,121.56,1,117.74s3.83-7.2,3.83-7.2c3.49,13.85,22.88,19.51,42.29-3.53.94-1.1,1.87-2.29,2.81-3.54,18.56-24.77,12.84-44.4,3.33-54.1C38,33.73,22.37,41.08,22.37,41.08Z" style="fill:#ffcb24;opacity:0.6000000000000001;mix-blend-mode:multiply"/><path d="M11.21,67.47C9.39,82.93,16.37,96.41,26.79,97.55c5.27.58,10.4-2.11,14.44-6.9a36.45,36.45,0,0,0,7.73-19c1.82-15.48-5.14-28.93-15.57-30.08C28.12,41,23,43.65,19,48.44A36.29,36.29,0,0,0,11.21,67.47Z" style="fill:#ffcb24;opacity:0.4;mix-blend-mode:screen"/><path d="M19.36,51.35c1.52-1.18,3-1.53,4-1,1.43.75,2,3.25,1,6.33a13.34,13.34,0,0,1-4.08,6.15c-1.34,1-2.76,1.47-4,.84-2.75-1.44-1.59-6.93,1.26-10.56A11.3,11.3,0,0,1,19.36,51.35Z" style="fill:#ffdd4d;mix-blend-mode:screen"/><path d="M14.48,65.66a2.12,2.12,0,0,1,1.8-.44,2.28,2.28,0,0,1,1.5,2.29A3.22,3.22,0,0,1,16.64,70a2,2,0,0,1-1.78.38c-1.62-.44-1.91-2.49-1-3.92A2.56,2.56,0,0,1,14.48,65.66Z" style="fill:#ffdd4d;mix-blend-mode:screen"/><path d="M38.55,38.37a1.78,1.78,0,0,1-.39.92,2.22,2.22,0,0,1-.9.62,16.33,16.33,0,0,0-1.4-3.07c.43,1,.87,2.07,1.28,3.15a2,2,0,0,0,1-.66h0a2.2,2.2,0,0,0,.49-1c0-.09-.13-.41-.27-.89A92.69,92.69,0,0,0,34.09,27C36.84,33.18,38.55,38.37,38.55,38.37ZM12.91,1.61a6.32,6.32,0,0,1-1,3.45,10.52,10.52,0,0,1-1.09,1.59A5.43,5.43,0,0,1,9.56,7.8l-.14.08c1.67.31,5.68,1.46,10.57,5.58,4.6,3.87,10,10.36,14.92,21.23a.67.67,0,0,0,.22-.19c2-2.37-8.4-17.77-11.39-21S15,2.57,12.17,6c-.11.13-.21.27-.31.41a5.9,5.9,0,0,1-.46.65c-.88,1-1.47.71-1.47.71.26-.28.5-.54.71-.8,2.7-3.21,2.47-5.26,2.47-5.26,1.11.64,2.27,1.4,3.41,2.21a33.38,33.38,0,0,0-3.65-2.47Z" style="fill:url(#a3c52e4d-f2e9-4745-858c-288f15df433b)"/><path d="M8.57,7.91l0-.14S13.53,8,20,13.46c5.3,4.47,11.66,12.45,17.2,26.64l-.13.06L37,40h0a1.94,1.94,0,0,0,1.11-.68,2.38,2.38,0,0,0,.5-1.06l.15,0-.15,0s-.08-.33-.28-.93C37,33.2,30.58,15.68,18.11,5.17a39.25,39.25,0,0,0-5.39-3.83l.06-.12.14.08L8.69,8l-.12-.07,0-.14,0,.14-.12-.08L12.75,1l.11.08A37.23,37.23,0,0,1,18.29,5C32.64,17,39,38.24,39,38.26l0,0,0,0a2.53,2.53,0,0,1-.56,1.2,2.27,2.27,0,0,1-1.32.78l-.12,0,0-.11C31.37,26.05,25.07,18.12,19.8,13.68a26.72,26.72,0,0,0-8-4.83,14.56,14.56,0,0,0-2.35-.67c-.29,0-.49-.09-.63-.1a.55.55,0,0,0-.17,0H8.31l.14-.22Z" style="fill:#9f4e23"/><path d="M10.27,2.4l.19-.24c.33-.24.64-.34.85-.24.53.21.36,1.49-.4,2.85a7.57,7.57,0,0,1-.77,1.12c-.58.7-1.2,1.1-1.57.94a.58.58,0,0,1-.29-.49,8.12,8.12,0,0,1,.92-2.4h0A10.4,10.4,0,0,1,10.27,2.4Z" style="fill:url(#ac53d7f7-6b3b-4103-b0f7-9113840c30df)"/><path d="M12.35,1l.06-.13.18.11a1.18,1.18,0,0,1,.32.66,6.32,6.32,0,0,1-1,3.45,10.52,10.52,0,0,1-1.09,1.59A5.43,5.43,0,0,1,9.56,7.8,1.23,1.23,0,0,1,8.45,8a.38.38,0,0,1-.18-.11A.91.91,0,0,1,8,7.26,6.25,6.25,0,0,1,9,3.8H9a9.27,9.27,0,0,1,1.1-1.59A4.73,4.73,0,0,1,11.3,1.08,1.23,1.23,0,0,1,12.41.84L12.35,1l0,.14a1,1,0,0,0-.85.21A4.94,4.94,0,0,0,10.27,2.4,10.4,10.4,0,0,0,9.2,3.94h0a7.8,7.8,0,0,0-.91,2.4,3,3,0,0,0,0,.87.71.71,0,0,0,.21.47l.12.06c.18.1.48,0,.85-.19A5.13,5.13,0,0,0,10.6,6.47a8.92,8.92,0,0,0,1.05-1.55,7.81,7.81,0,0,0,.93-2.4,2.61,2.61,0,0,0,0-.86.8.8,0,0,0-.22-.48l-.1-.07Z" style="fill:#9f4e23"/><path d="M10.46,2.16a5,5,0,0,1,1-.84,1,1,0,0,1,.85-.21l0-.14,0,.14.1.07a.8.8,0,0,1,.22.48,2.61,2.61,0,0,1,0,.86,7.81,7.81,0,0,1-.93,2.4A8.92,8.92,0,0,1,10.6,6.47h0A5.13,5.13,0,0,1,9.42,7.55c-.37.22-.67.29-.85.19l-.12-.06a.71.71,0,0,1-.21-.47,3,3,0,0,1,0-.87h0a.58.58,0,0,0,.29.49c.37.16,1-.24,1.57-.94a7.57,7.57,0,0,0,.77-1.12c.76-1.36.93-2.64.4-2.85C11.1,1.82,10.79,1.92,10.46,2.16Z" style="fill:url(#ade6a416-7405-4f0d-be47-35f5c0589f48)"/><path d="M10.17,2.3C11,1.32,11.84.76,12.35,1c.75.33.49,2.12-.56,4a10.84,10.84,0,0,1-1.07,1.58c-.84,1-1.7,1.53-2.21,1.33S8,6.69,8.37,5.46a2.41,2.41,0,0,0-.09.88h0a3,3,0,0,0,0,.87.71.71,0,0,0,.21.47l.12.06c.18.1.48,0,.85-.19A5.13,5.13,0,0,0,10.6,6.47h0a8.92,8.92,0,0,0,1.05-1.55,7.81,7.81,0,0,0,.93-2.4,2.61,2.61,0,0,0,0-.86.8.8,0,0,0-.22-.48l-.1-.07,0-.14,0,.14a1,1,0,0,0-.85.21,5,5,0,0,0-1,.84,4.64,4.64,0,0,0-.71.7A1.43,1.43,0,0,0,9.6,3,7.57,7.57,0,0,1,10.17,2.3Z" style="fill:#99420c"/><path d="M13.11,1.7c1.11.64,2.27,1.4,3.41,2.21q.81.62,1.59,1.26A60.65,60.65,0,0,1,30.9,21a7.83,7.83,0,0,0-.68.51l-.12.09.09.11a33,33,0,0,0,2.67,2.85c.43.82.85,1.64,1.23,2.43,2.75,6.21,4.46,11.4,4.46,11.4a1.78,1.78,0,0,1-.39.92,2.22,2.22,0,0,1-.9.62,16.33,16.33,0,0,0-1.4-3.07c-.32-.73-.63-1.45-1-2.15a.67.67,0,0,0,.22-.19c2-2.37-8.4-17.77-11.39-21S15,2.57,12.17,6c-.11.13-.21.27-.31.41a5.9,5.9,0,0,1-.46.65c-.88,1-1.47.71-1.47.71.26-.28.5-.54.71-.8C13.34,3.75,13.11,1.7,13.11,1.7Z" style="fill:url(#a3907e33-09bd-4d30-b9b3-60e6b2121060)"/><path d="M35.86,36.84c-.32-.73-.63-1.45-1-2.15l-.22.08S35.25,35.75,35.86,36.84ZM34.09,27c-.33-.73-.67-1.48-1-2.25l-.2-.18C33.29,25.36,33.71,26.18,34.09,27Zm-16-21.8A60.65,60.65,0,0,1,30.9,21l.22-.17a1.71,1.71,0,0,0-.14-.27A63.6,63.6,0,0,0,20.8,7.23C19.51,6.14,18,5,16.52,3.91Q17.33,4.53,18.11,5.17Z" style="fill:#99420c"/><path d="M51.17,17.5h0a13.08,13.08,0,0,0-1.43,2l0,0c-1.82,0-3.56.11-5.2.24-3.24.25-6.08.64-8.31,1,.07-.12.17-.29.31-.49a17.29,17.29,0,0,1,1.24-1.63h0a14.71,14.71,0,0,1,5.68-4.34l0-.09c5.4-2.19,11.86-3.75,18.17-2.69l.74.12a16.64,16.64,0,0,0-6.51,1.94A17.47,17.47,0,0,0,51.17,17.5Z" style="fill:#167003"/><path d="M30.71,21.86l-.2-.24.6-.45c.48-.34,1.15-.82,2-1.39a60.61,60.61,0,0,1,7.17-4.1l.73-.35a17.55,17.55,0,0,0-3.44,3.18,16.81,16.81,0,0,0-1.69,2.34l0,0c-3,.52-4.83,1-4.85,1l.08.26a2.29,2.29,0,0,0,.36-.07c.24-.07.59-.14,1-.24.9-.21,2.22-.47,3.88-.76s3.82-.58,6.17-.8h0a23.86,23.86,0,0,0,.86,2.53,25.79,25.79,0,0,0,5.86,9c.3.3.63.59,1,.87a18,18,0,0,0,5.08,3c-.59-.09-1.18-.2-1.75-.33a42.58,42.58,0,0,1-18.54-9.19A36.17,36.17,0,0,1,30.71,21.86Z" style="fill:#167003"/><path d="M50.49,32.4v0a25,25,0,0,1-6.91-10.14c-.29-.78-.48-1.39-.58-1.73a2.73,2.73,0,0,1-.07-.29l1.49-.13c1.65-.12,3.41-.22,5.26-.25,1.57,0,3.19,0,4.87.07a68.62,68.62,0,0,1,8,.79h0c1.46.23,2.94.52,4.41.88a17.56,17.56,0,0,0,5.4,8.3,15.7,15.7,0,0,0,5.34,3l.36.12a48.38,48.38,0,0,1-8.54,2.44c-.28-.08-.55-.17-.82-.27a19.6,19.6,0,0,1-6-3.49A24.94,24.94,0,0,1,55.3,20.27L55.22,20l-.29.08a25.05,25.05,0,0,0,7.55,11.84A20.41,20.41,0,0,0,68,35.18c.3.12.62.23.94.34a41.54,41.54,0,0,1-8.22.63c-1.32,0-2.6-.13-3.84-.29h0A17.69,17.69,0,0,1,50.49,32.4Z" style="fill:#167003"/><path d="M74.79,16.78a17.28,17.28,0,0,0-1.79.07,21.44,21.44,0,0,0-10.5,3.54,72.93,72.93,0,0,0-7.73-.76c-1.62-.08-3.18-.1-4.72-.08l0,0c.05-.1.13-.23.25-.42a16.5,16.5,0,0,1,1.06-1.41,16.28,16.28,0,0,1,5.3-4.14,16.52,16.52,0,0,1,6.87-1.62,40.85,40.85,0,0,1,4.54,1.2,30.15,30.15,0,0,1,7.61,3.66l-.5,0Z" style="fill:#167003"/><path d="M67.31,21.66A45.26,45.26,0,0,1,83.65,29.1l0,0,.17-.22c-.11-.09-.23-.19-.35-.27a47.86,47.86,0,0,0-20.6-8.17c.15-.11.36-.24.59-.38a19.3,19.3,0,0,1,2.71-1.35,22.89,22.89,0,0,1,7.49-1.65c.53,0,1.08,0,1.64,0a13.65,13.65,0,0,1,1.72,1.08c-.4-.33-.88-.69-1.42-1.08.17,0,.35,0,.52,0h0c.54.38,1,.77,1.47,1.15,6.07,5.12,6.66,11.1,6.7,11.91a60.1,60.1,0,0,1-5.8,2.65l-.37-.11a15.86,15.86,0,0,1-5.59-3A17.36,17.36,0,0,1,67.31,21.66Z" style="fill:#167003"/><path d="M56,35.87l.14,0,.68.25,0-.14a50.44,50.44,0,0,0,5.09.45H62c-.1,0-.58-.12-1.31-.3-1.32,0-2.6-.13-3.84-.29h0a17.65,17.65,0,0,1-3.49-1.46l-.23-.14c-.44-.25-.87-.52-1.29-.8-.26-.18-.49-.38-.74-.57s-.44-.32-.64-.5a25.21,25.21,0,0,1-7.12-10.73,4.11,4.11,0,0,0-.15-.42L43,20.51c0-.13-.06-.23-.07-.27,2.08-.2,4.33-.35,6.75-.4,1.75,0,3.61,0,5.51.14l-.25.06a25.05,25.05,0,0,0,7.55,11.84,20.09,20.09,0,0,0,2.25,1.6l.5.33a19.67,19.67,0,0,0,2.6,1.29l.16.08H68c.52.2,1,.41,1.6.58l.09-.29c-.56-.16-1.08-.37-1.6-.57-.25-.1-.51-.2-.75-.31s-.73-.34-1.08-.52l-.65-.35c-.36-.2-.73-.43-1.07-.66-.16-.11-.34-.21-.49-.32-.5-.35-1-.72-1.41-1.09A24.94,24.94,0,0,1,55.3,20.27a1.94,1.94,0,0,0-.08-.29l1.21.06c.6,0,1.19.07,1.79.13,1,.09,1.93.22,2.9.35.43.05.87.1,1.31.17.76.11,1.52.29,2.29.45s1.42.25,2.14.41l.12,0c0,.06,0,.14.1.3a.67.67,0,0,0,0,.19c.05.13.08.24.15.41s.09.27.16.43l.19.46c.08.19.18.4.27.6s.16.34.26.52.26.49.39.73.21.36.33.56a8.66,8.66,0,0,0,.54.8c.12.18.24.37.39.56s.48.61.75.91.26.32.41.48a15.1,15.1,0,0,0,1.41,1.35c.37.31.78.62,1.2.92.13.09.28.17.41.25.31.2.61.39,1,.58l.54.27c.32.17.64.32,1,.47l.64.24c.21.07.41.17.63.23h0c.25.08.46.18.71.25l.08-.29c-.44-.11-.82-.28-1.23-.41-.22-.08-.45-.15-.65-.24s-.67-.31-1-.47l-.54-.26c-.34-.18-.66-.39-1-.59l-.39-.24c-.43-.3-.83-.61-1.22-.93a15.75,15.75,0,0,1-1.25-1.19c-.13-.13-.23-.25-.34-.37-.25-.29-.51-.57-.73-.85s-.22-.32-.35-.49-.37-.49-.52-.73L69,25.47l-.36-.6c-.11-.2-.2-.39-.29-.58l-.25-.5c-.09-.18-.15-.33-.22-.5l-.18-.41c-.06-.16-.11-.28-.15-.41l-.12-.32a2.83,2.83,0,0,0-.09-.27c0-.07,0-.14-.05-.2.69.17,1.37.38,2.07.58s1.31.35,2,.57c.82.28,1.63.61,2.45.93.6.24,1.21.44,1.81.7.86.38,1.7.83,2.54,1.27.53.28,1.07.51,1.61.82a42.82,42.82,0,0,1,3.93,2.58l.17-.22a4.15,4.15,0,0,0-.34-.24.08.08,0,0,0,0,0,39.14,39.14,0,0,0-3.32-2.15c-.24-.15-.5-.28-.74-.43-1.21-.67-2.44-1.29-3.69-1.85L75.2,24c-1.19-.52-2.4-1-3.63-1.39l-.46-.16c-1.3-.41-2.6-.78-3.9-1.09-.27-.07-.53-.13-.81-.18-1.16-.27-2.32-.51-3.49-.7a5.15,5.15,0,0,1,.59-.38,19.3,19.3,0,0,1,2.71-1.35c.53-.22,1.13-.43,1.76-.62.2-.07.43-.13.64-.19.47-.13,1-.24,1.45-.35l.83-.16c.54-.09,1.11-.17,1.69-.22l.81-.08a23.12,23.12,0,0,1,2.77,0l0-.29a23.53,23.53,0,0,0-3.16,0h0a21.12,21.12,0,0,0-2.38.31L70,17.3a15.94,15.94,0,0,0-1.55.39l-.68.2c-.45.15-.88.29-1.28.45-.18.08-.35.13-.5.2-.52.22-1,.42-1.42.64l-.13.07-1,.53-.31.2a3.64,3.64,0,0,0-.4.25l-.22.14s0,0,0,0h-.06l-.81-.1c-1.13-.17-2.27-.31-3.37-.42l-1.42-.1c-.69,0-1.39-.12-2.07-.14h0c-1.6-.08-3.17-.11-4.69-.09,0,0,0,0,0,0s.13-.23.25-.42a16.11,16.11,0,0,1,6.8-5.74l.6-.25c.35-.15.73-.27,1.11-.39.23-.07.45-.15.68-.21.42-.11.87-.2,1.33-.29l.63-.12c.67-.08,1.36-.15,2.09-.18a45.46,45.46,0,0,1,4.53,1.21,32.61,32.61,0,0,0-4.43-1.27v-.23c-.31,0-.56.06-.84.07a.27.27,0,0,0-.13,0,34.39,34.39,0,0,0-18,1.8,43.32,43.32,0,0,0-4.18,1.81l-.32.13c-.42.2-.82.41-1.21.61a59.66,59.66,0,0,0-8.67,5.57S38.6,33.06,56,35.87ZM39.41,20.33c-.21,0-.42.07-.64.09l-2.15.32a.88.88,0,0,1-.27,0l-.08,0c.07-.12.17-.29.31-.49a17.29,17.29,0,0,1,1.24-1.63l.24-.26a18.3,18.3,0,0,1,2.17-2.12,12.26,12.26,0,0,1,3.28-2l0-.09c5.4-2.19,11.86-3.75,18.17-2.69l.74.12c-.2,0-.39.07-.59.09l-.86.13a11.25,11.25,0,0,0-1.21.26l-.72.18c-.48.14-.94.31-1.4.49l-.32.12a14.11,14.11,0,0,0-1.41.67h0a16.9,16.9,0,0,0-4.75,3.88,13.08,13.08,0,0,0-1.43,2l0,0c-1.84,0-3.57.13-5.23.26l0,0C42.7,19.93,41,20.12,39.41,20.33Zm14.21,15a42.58,42.58,0,0,1-18.54-9.19,36.17,36.17,0,0,1-4.37-4.27l-.2-.24.6-.45c.48-.34,1.15-.82,2-1.39a60.61,60.61,0,0,1,7.17-4.1l.73-.35-.38.32a15.91,15.91,0,0,0-1.26,1l-.47.43c-.49.49-1,1-1.33,1.42a16.81,16.81,0,0,0-1.69,2.34l0,0c-.4.05-.72.12-1.07.19s-.57.11-.81.14l-1.34.29-.23,0c-.89.2-1.4.34-1.4.34l.09.27.35-.08c.24-.07.59-.14,1-.24.9-.21,2.22-.47,3.88-.76.85-.14,1.78-.28,2.79-.41.32,0,.71-.08,1-.13.7-.08,1.38-.17,2.13-.24l.18,0a.48.48,0,0,1,0,.18,1.82,1.82,0,0,1,.1.29c0,.15.09.32.16.54l.11.31c.11.35.25.74.44,1.2h0a25.91,25.91,0,0,0,6,9.06s-.1,0-.15-.09c.3.3.63.59,1,.87a20.69,20.69,0,0,0,2.09,1.51l.44.27a19.71,19.71,0,0,0,2.39,1.19.56.56,0,0,1,.16.07C54.78,35.56,54.19,35.45,53.62,35.32Z" style="fill:#125e00"/><path d="M42.45,38.25A14.11,14.11,0,0,1,32.1,40.56l.09-.57a14,14,0,0,0,7.19-.75,13,13,0,0,0,2-1l.54-.34.13-.09,0,0Z" style="fill:#ef9f49"/></g></g></svg>