<svg id="fa82dccd-d50e-4440-9538-8685edd3a26a" data-name="Layer 11" xmlns="http://www.w3.org/2000/svg" viewBox="0 0 56 56"><path d="M19.24,52.83a26.33,26.33,0,0,1,.21-49.74c2.13.52,4.51,1.08,6.79,1.56a127.81,127.81,0,0,0,13,2c1.59.17,3.26.33,4.9.47A26.34,26.34,0,0,1,19.24,52.83Z" style="fill:#dd4e90;stroke:#dd4e90;stroke-linecap:round;stroke-linejoin:round;stroke-width:0.5669000000000001px;fill-rule:evenodd"/><path d="M3.12,36.61c-.26-.74-.49-1.5-.68-2.27C9,40.94,16.29,46,21.67,51.66l-1.59.26c-4.81-5-11.08-9.56-17-15.31Zm-1-13.7c0,.12-.05.24-.07.36,9.34,11.42,23,17.09,30.45,27L34,50.2C26.42,39,11.84,33.86,2.32,22.14a1.89,1.89,0,0,1,0,.23c0,.08,0,.16,0,.25l-.06.29ZM14.31,5.5l-.53.33c8.57,13.64,27.85,18.87,36.61,36,0-.09.11-.18.17-.27v0c.15-.24.29-.5.43-.75C42.12,24.06,23.31,18.24,14.9,5.15l-.36.21-.06,0h0l-.15.09Zm15.52-.15,2.28.39C38.73,12.54,47.63,19,54.33,28.52c0,.5,0,1-.07,1.51a.34.34,0,0,0,0,.1C47,19.34,36.91,12.77,29.83,5.35Zm15,42.94C37,31.81,16.83,27,7,12.1c-.24.32-.48.65-.7,1,10,15.11,30,19.71,37.57,35.93C44.18,48.78,44.48,48.54,44.78,48.29Z" style="fill:#efe9d9;stroke:#dd4e90;stroke-linecap:round;stroke-linejoin:round;stroke-width:0.5669000000000001px;fill-rule:evenodd"/><path d="M30,1.74A26.34,26.34,0,0,1,52.64,18.68,26.34,26.34,0,0,1,2.09,32.75,26.35,26.35,0,0,1,30,1.74Z" style="fill:#f46bb1;stroke:#f46bb1;stroke-linecap:round;stroke-linejoin:round;stroke-width:0.5669000000000001px;fill-rule:evenodd"/><path d="M30,1.74A26.25,26.25,0,0,1,46.1,8.87,23.6,23.6,0,1,1,2,23.87,26.34,26.34,0,0,1,30,1.74Z" style="fill:#f774b8;stroke:#f774b8;stroke-linecap:round;stroke-linejoin:round;stroke-width:0.5669000000000001px;fill-rule:evenodd"/><path d="M30,1.74c1,.08,1.94.21,2.88.38A16.81,16.81,0,1,1,4.75,15.62,26.35,26.35,0,0,1,30,1.74Z" style="fill:#fa8cc5;stroke:#fa8cc5;stroke-linecap:round;stroke-linejoin:round;stroke-width:0.5669000000000001px;fill-rule:evenodd"/><path d="M54.33,28.52c0,.5,0,1-.07,1.51a.34.34,0,0,0,0,.1C45.89,17.61,33.58,10.77,26.68,1.69c.61,0,1.22,0,1.83,0,6.65,8.46,17.81,15.44,25.82,26.85Zm-31,25.4c-.73-.13-1.47-.3-2.2-.5l-.28-.37c-.44-.56-.94-1.16-1.28-1.64C14.84,46.62,8.8,42.15,3.11,36.61c-.26-.75-.49-1.5-.68-2.27C8.71,40.66,18.55,47,23.34,53.92Zm12.42-.76c0-.08-.08-.17-.13-.27a29.74,29.74,0,0,0-1.7-3A13.27,13.27,0,0,0,32,47.47l-.18-.16C23.83,38.05,11,32.8,2.32,22.14c-.08.37-.16.75-.23,1.13C10.64,33.72,22.78,39.36,30.5,47.85c.06.09.18.24.39.51.4.52,1.15,1.5,1.75,2.42A22.09,22.09,0,0,1,34,53.19l.2.4c.52-.13,1-.27,1.55-.43ZM51,40.83C42.12,24.06,23.31,18.24,14.9,5.15c-.38.22-.75.45-1.12.68C22.35,19.47,41.63,24.7,50.39,41.88c.21-.35.42-.7.62-1.05Zm-6.23,7.46C37,31.81,16.83,27,7,12.1c-.24.32-.48.65-.7,1,10,15.11,30,19.71,37.57,35.93C44.18,48.78,44.48,48.54,44.78,48.29Z" style="fill:#f138b8;stroke:#f138b8;stroke-linecap:round;stroke-linejoin:round;stroke-width:0.5669000000000001px;fill-rule:evenodd"/><path d="M48.8,21.72v.06c0,.43-.08.85-.13,1.27C41.05,14.7,32.16,8.9,26.68,1.69h.17l.55,0h1.11C33.73,8.31,41.73,14,48.8,21.72ZM45.22,32.57C35.55,21.67,21.77,15.83,14.9,5.15l-.21.12-.18.11-.32.19L14,5.7l-.21.13C20.78,17,34.9,22.49,44.62,33.48c.2-.3.41-.6.6-.91Zm-6.61,6.86C29.14,29.41,14.81,23.93,7,12.1l-.34.47h0L6.32,13l0,0c7.92,11.92,22,17.3,31.31,27,.34-.21.67-.42,1-.65ZM28,43.41c-7.85-7-18.26-12.2-25.63-21.27,0,.16-.07.32-.1.48h0c-.05.21-.09.42-.13.64C9.12,31.86,18.58,37.2,26,43.55,26.67,43.53,27.31,43.49,28,43.41Z" style="fill:#fa4dc6;stroke:#fa4dc6;stroke-linecap:round;stroke-linejoin:round;stroke-width:0.5669000000000001px;fill-rule:evenodd"/><path d="M38.06,11.39a17.7,17.7,0,0,1,.23,1.8C33.9,9.34,29.75,5.74,26.68,1.69h1.83a82.83,82.83,0,0,0,9.55,9.72Zm-2.5,12.36C27.8,17.67,19.68,12.58,14.9,5.15l-.21.12-.12.07-.13.08-.24.15h0l-.13.08h0l0,0-.21.13C18.66,13.59,27,18.63,34.89,24.69c.24-.3.46-.62.67-.94Zm-8,6.46C20,24.86,12.11,19.84,7,12.1c-.24.32-.48.65-.7,1,5,7.58,12.57,12.52,19.78,17.6A14.93,14.93,0,0,0,27.51,30.21Z" style="fill:#fc6ad0;stroke:#fc6ad0;stroke-linecap:round;stroke-linejoin:round;stroke-width:0.5669000000000001px;fill-rule:evenodd"/><path d="M16.63,6.23a12.84,12.84,0,0,0-5.48,4.15c-1.1,1.61-1.05,3.13-.09,3.75s2.81.33,4.85-.56a15.55,15.55,0,0,0,5.42-3.85c1.18-1.45,1.33-2.87.4-3.59S18.76,5.39,16.63,6.23Z" style="fill:#fff;stroke:#fff;stroke-linecap:round;stroke-linejoin:round;stroke-width:0.5669000000000001px;fill-rule:evenodd"/><path d="M27.66,3.82a4.82,4.82,0,0,0-3.28.82c-.76.62-.9,1.53-.2,2a5.37,5.37,0,0,0,3.43,0c1.2-.34,2.07-.92,2.07-1.5S28.79,3.94,27.66,3.82Z" style="fill:#fff;stroke:#fff;stroke-linecap:round;stroke-linejoin:round;stroke-width:0.5669000000000001px;fill-rule:evenodd"/></svg>