<?xml version="1.0" encoding="utf-8"?>
<!-- Generator: Adobe Illustrator 25.0.1, SVG Export Plug-In . SVG Version: 6.00 Build 0)  -->
<svg version="1.1" id="be687ee5-80ed-4bb9-a713-197406f35618"
	 xmlns="http://www.w3.org/2000/svg" xmlns:xlink="http://www.w3.org/1999/xlink" x="0px" y="0px" viewBox="0 0 196 206"
	 style="enable-background:new 0 0 196 206;" xml:space="preserve">
<style type="text/css">
	.st0{fill:#9D82C6;}
	.st1{opacity:0.46;}
	.st2{fill:#FFFFFF;}
	.st3{fill:#C09FF2;}
	.st4{fill:#FAF6D1;stroke:#FAF6D1;stroke-width:0.5669;stroke-linecap:round;stroke-linejoin:round;}
	
		.st5{fill-rule:evenodd;clip-rule:evenodd;fill:#FFFBDB;stroke:#FFFBDB;stroke-width:0.5669;stroke-linecap:round;stroke-linejoin:round;}
	
		.st6{fill-rule:evenodd;clip-rule:evenodd;fill:#ED014B;stroke:#ED014B;stroke-width:0.5669;stroke-linecap:round;stroke-linejoin:round;}
	
		.st7{fill-rule:evenodd;clip-rule:evenodd;fill:#FF296D;stroke:#FF296D;stroke-width:0.5669;stroke-linecap:round;stroke-linejoin:round;}
	
		.st8{fill-rule:evenodd;clip-rule:evenodd;fill:#FFFFFF;stroke:#FFFFFF;stroke-width:0.5669;stroke-linecap:round;stroke-linejoin:round;}
	
		.st9{fill-rule:evenodd;clip-rule:evenodd;fill:#D10244;stroke:#D10244;stroke-width:0.5669;stroke-linecap:round;stroke-linejoin:round;}
	
		.st10{fill-rule:evenodd;clip-rule:evenodd;fill:#00ED52;stroke:#00ED52;stroke-width:0.5669;stroke-linecap:round;stroke-linejoin:round;}
	
		.st11{fill-rule:evenodd;clip-rule:evenodd;fill:#32FF78;stroke:#32FF78;stroke-width:0.5669;stroke-linecap:round;stroke-linejoin:round;}
	
		.st12{fill-rule:evenodd;clip-rule:evenodd;fill:#00D148;stroke:#00D148;stroke-width:0.5669;stroke-linecap:round;stroke-linejoin:round;}
	
		.st13{fill-rule:evenodd;clip-rule:evenodd;fill:#19D1ED;stroke:#19D1ED;stroke-width:0.5669;stroke-linecap:round;stroke-linejoin:round;}
	
		.st14{fill-rule:evenodd;clip-rule:evenodd;fill:#4BF1FF;stroke:#4BF1FF;stroke-width:0.5669;stroke-linecap:round;stroke-linejoin:round;}
	
		.st15{fill-rule:evenodd;clip-rule:evenodd;fill:#06BCD1;stroke:#06BCD1;stroke-width:0.5669;stroke-linecap:round;stroke-linejoin:round;}
	.st16{fill:#FEF8FC;}
	.st17{fill:#FF4891;}
	.st18{opacity:0.2;fill:#655A78;enable-background:new    ;}
	.st19{clip-path:url(#SVGID_2_);}
	.st20{opacity:0.2;fill:#B1D29E;enable-background:new    ;}
	.st21{fill:#FA5094;}
	.st22{fill:none;stroke:#FFFFFF;stroke-width:0.5;stroke-miterlimit:10;}
</style>
<ellipse class="st0" cx="92.9" cy="171.4" rx="84.4" ry="33.9"/>
<g class="st1">
	<path class="st2" d="M148.9,9.1c-23.6,0-50,1-68.7,0S3.6,1.7,3.6,1.7c-1,8.8,1.1,102.4,3,115.1s1.8,54.5,1.8,54.5
		c0,18.7,37.8,33.9,84.4,33.9s84.5-15.2,84.5-33.9L192.1,3.8C178,7.3,163.5,9.1,148.9,9.1z"/>
	<path class="st3" d="M148.9,9.1c-12.1,0-24.3,0.3-36.4,0.4S88.2,9.8,76.1,9S51.9,6.9,39.8,5.7S15.7,3.3,3.6,2l0.3-0.2L3.7,4.6
		l0,2.8c0,1.9,0,3.8,0,5.7c0,3.8,0,7.6,0.1,11.4C3.8,32.1,4,39.7,4.1,47.2c0.3,15.2,0.8,30.3,1.4,45.5c0.2,3.8,0.3,7.6,0.6,11.4
		c0.2,3.8,0.4,7.6,0.8,11.3c0.9,7.5,1.4,15.1,1.6,22.7c0.2,7.6,0.4,15.2,0.4,22.8v5.7v2.9c0,0.9,0,1.9,0.1,2.8
		c0.4,3.7,2,7.2,4.5,9.9c2.5,2.8,5.4,5.2,8.6,7.1c3.2,2,6.6,3.7,10.1,5.1c7,2.8,14.3,5,21.7,6.5c14.9,3,30,4.3,45.2,3.8
		c15.1-0.4,30.3-2.4,44.8-6.7c7.3-2.1,14.2-5.1,20.7-9.1c3.2-2,6.1-4.5,8.5-7.3c1.2-1.4,2.2-3,2.9-4.8c0.7-1.7,1.1-3.5,1.1-5.4l0,0
		l0,0L192,3.8l0.1,0.1c-3.5,0.9-7.1,1.7-10.7,2.3s-7.2,1.2-10.8,1.6c-3.6,0.4-7.2,0.8-10.9,1S152.5,9.1,148.9,9.1z M148.9,9.1
		c3.6,0,7.3-0.1,10.9-0.4s7.3-0.6,10.9-1s7.2-1,10.8-1.7s7.1-1.4,10.7-2.3h0.1v0.1l-14.5,167.6l0,0c0,1.9-0.4,3.9-1.1,5.7
		c-0.8,1.8-1.8,3.5-3,4.9c-2.5,2.9-5.3,5.4-8.6,7.4c-6.5,4-13.5,7.1-20.8,9.2c-14.6,4.4-29.8,6.4-45,6.9
		c-15.2,0.5-30.5-0.7-45.4-3.7c-7.5-1.5-14.8-3.7-21.9-6.6c-3.5-1.5-7-3.2-10.2-5.2c-3.3-2-6.3-4.5-8.9-7.3
		c-2.7-2.9-4.4-6.5-4.8-10.5c-0.1-1,0-1.9,0-2.9v-2.9V161c0-7.6-0.1-15.2-0.4-22.8c-0.1-7.6-0.6-15.1-1.5-22.7
		c-0.4-3.8-0.6-7.6-0.8-11.4S5,96.6,4.8,92.8c-0.6-15.2-1-30.3-1.3-45.5c-0.1-7.6-0.3-15.2-0.3-22.8c0-3.8,0-7.6,0-11.4
		c0-1.9,0-3.8,0-5.7l0.1-2.8l0.1-2.9V1.5h0.2c12.1,1.3,24.1,2.6,36.2,3.9C51.9,6.6,64,7.8,76.1,8.7s24.2,0.8,36.4,0.7
		S136.7,9.1,148.9,9.1z"/>
</g>
<circle class="st4" cx="49.3" cy="160.2" r="33.4"/>
<path class="st5" d="M43.1,127.3c2.7-0.5,5.4-0.7,8.1-0.5c0.8,0.8,0.7,1.9-0.7,2.9c-1.6,1.2-4.8,2.2-8,3.4c-3.5,1.2-6.7,3-9.5,5.4
	c-3.4,3-6,6.8-7.4,11.2c-1.4,4.5-1.6,9.4-0.5,14c1,4.2,2.9,7.6,3.9,10.4s0.9,5.2-0.7,6.5c-1.4,0.9-3.2,1.2-4.8,0.7
	c-11.6-14.4-9.4-35.4,5-47C32.6,130.7,37.7,128.3,43.1,127.3L43.1,127.3z"/>
<path class="st6" d="M43.1,127.3c1-0.2,2-0.3,3-0.4c-0.3,3.5-2.4,6.3-3.9,9.5c-4.1,8.6-4.6,17.6,5.4,22.4c3.4,1.6,1.6,1.4,4-2.6
	c5.6-9.3,15.6-6.2,23.2-2.1c3.2,1.7,4.8,2.8,7.9,2.9c-0.1-1-0.2-2.1-0.4-3.1s-0.5-2.2-0.8-3.2c-3.4,0.6-5.7-0.6-9.3-1.7
	c-9.6-2.8-19.1-2.3-22,9.2c-0.5,2.1,0.1,2.1-2.1-0.1c-9.1-8.9-3.1-17.8,4.2-24.7c2.1-2,3.8-3.4,4.9-5.8c2.1,0.5,4.1,1.2,6,2.1
	c-2,2.9-5,4.2-8.1,6.2c-7.9,5.3-13,12.8-6.7,21.9c1.6,2.4,1.6,2.1,2.2,5.1c2.3,11.1-7.1,15.9-16.1,18.1c-3.9,1-5.7,1.1-8.3,3.3
	c-1.6-1.5-3-3.1-4.2-4.8c3-1.7,4.9-1.4,8.8-1.7c10.9-0.6,20.2-4.2,19-17.3c-0.2-2-0.3,0.3-0.7,1.5c-3.3,11.8-14,11.4-23.5,8.7
	c-3.5-1-5.3-1.8-8.4-1.2c-0.3-1.1-0.6-2.1-0.8-3.2c-0.2-1-0.3-2-0.4-3.1c3.5,0.1,5.6,1.7,9,3.4c8.7,4.3,18.5,5.7,23.7-4.7
	c1.3-2.6,0.3-2.1,3.3-2.8c11.5-2.8,16,6.8,18.2,15.9c0.9,4,1,5.6,3.3,8.2c-1.5,1.5-3.1,3-4.8,4.2c-1.9-3.1-1.6-4.9-1.7-9.1
	c-0.4-9.8-3.6-19.5-15.6-18.6c-2.4,0.2-1.4,0.1-3.2,1.9c-8.9,8.9-18,3.2-25-4.1c-2.3-2.4-3.6-4-6.3-5.1c0.5-2.1,1.2-4.1,2.1-6
	c2.8,1.9,4,4.6,6.1,7.6c5.5,8.1,13.3,13.8,22.8,7.3c2.9-2,1.8-0.8,1.7-4.6c-0.4-11.7,9.9-14.2,19.2-14.6c3.3-0.1,5.3,0,7.9-1.3
	c-1.2-1.7-2.7-3.4-4.2-4.9c-2.8,2.1-6,2.3-9.6,3.3c-9.7,2.5-16.7,8-13.5,19.1c0.6,2,1.2,1.4-1.8,2.2c-12.4,3.4-17.3-6.2-19.7-16.2
	c-0.7-2.9-1-5-2.7-7.1c1.5-1.5,3.1-2.9,4.8-4.2c1.5,3.2,1.1,6.6,1.4,10.2c0.8,9.6,4.9,17.8,16.1,16.9c3.6-0.3,2-0.1,4.6-2.5
	c8.3-7.4,16.8-1.6,23,4.9c2.7,2.9,3.7,4.5,6.9,5.6c-0.5,2.1-1.2,4.1-2.1,6.1c-3.1-1.8-3.8-3.7-6-7.2c-5.3-8.3-12.8-14.8-22.7-8
	c-1.9,1.3-0.9,1.1-3.6,0.4c-12.4-3.2-11.8-13.8-8.9-23.6c0.8-2.8,1.7-4.9,1.3-7.5C40.9,127.9,42,127.6,43.1,127.3L43.1,127.3z
	 M58.7,192.3c0-0.2-0.1-0.4-0.1-0.6c-0.8-4.1,3.6-12.3,3.1-19.4c-0.6-7.6-5-10.9-11.9-12.5l0.5,0.6c7.7,10.6,0.8,18.4-8.2,24.2
	c-3.4,2.2-5,2.8-6.7,5.9c1.9,0.9,3.9,1.6,6,2.1c1.1-3.4,3.2-4.8,5.8-7.4c6.8-6.5,12.2-15.4,4.3-23.8c-0.9-1-2.8-2.2-1-1.4
	c11.9,5.5,9.7,15.6,4.8,25c-1.9,3.7-2.9,4.9-2.8,8.3c1-0.1,2.1-0.2,3.1-0.4S57.7,192.6,58.7,192.3z"/>
<path class="st7" d="M43.1,127.3c1-0.2,2-0.3,3-0.4c-0.2,2-0.9,3.8-1.9,5.5l-1.7,0.6c-1.2,0.5-2.5,1-3.7,1.6c0.7-2.3,1.3-4.2,1-6.5
	C40.8,127.8,41.9,127.5,43.1,127.3L43.1,127.3z M23.3,181.2c-0.4-0.5-0.9-1.1-1.3-1.7c2.6-1.5,4.4-1.5,7.4-1.6c-0.1,1-0.5,2-1.3,2.6
	C26.7,181.5,24.9,181.7,23.3,181.2z M27.8,171.4c-0.7-0.2-1.4-0.4-2.2-0.6c-3.5-1-5.3-1.8-8.4-1.2c-0.3-1.1-0.6-2.1-0.8-3.2
	c-0.2-1-0.3-2-0.4-3.1c3.5,0.1,5.6,1.7,9,3.4l1,0.5C26.6,168.7,27.2,170.1,27.8,171.4z M24.3,158.7c-0.4-0.4-0.8-0.8-1.2-1.2
	c-2.3-2.4-3.6-4-6.3-5.1c0.5-2.1,1.2-4.1,2.1-6c2.7,1.8,3.9,4.3,5.7,7.1C24.4,155.2,24.3,156.9,24.3,158.7L24.3,158.7z M27.8,144.6
	c0-0.1,0-0.2-0.1-0.3c-0.7-2.9-1-5-2.7-7.1c1.5-1.5,3.1-2.9,4.8-4.1c0.9,2.3,1.4,4.8,1.3,7.2C29.9,141.6,28.8,143,27.8,144.6
	L27.8,144.6z"/>
<path class="st8" d="M22,144.8c-1.1,2.1-2.1,4.3-2.8,6.6c-1,3.1-1.4,6.3-1.3,9.6c0.1,3.4,0.7,6.8,1.7,10c0.8,2.6,1.7,4.1,2.4,4.6
	s1,0.1,0.6-1.6c-0.8-2.7-1.5-5.4-2-8.2c-0.5-3.8-0.6-7.6-0.2-11.4c0.3-2.6,1-5.2,1.9-7.7c0.4-1,0.7-2,0.9-3.1
	C23.1,143.1,22.8,143.4,22,144.8z"/>
<path class="st8" d="M80.5,166.8c-0.4,2.1-1.1,4.1-1.9,6.1c-1,2.2-2.3,4.3-3.8,6.2c-1.3,1.8-2.8,3.5-4.3,5.1c-0.9,1-2,1.8-3.2,2.3
	c-0.7,0.2-0.8-0.1,0.3-1.4s3.5-3.7,5.5-6.3c1.8-2.4,3.5-4.9,4.8-7.6c1.1-2.2,1.7-3.8,2.1-4.6S80.7,165.6,80.5,166.8z"/>
<path class="st8" d="M25.2,139.4c-0.4,0.5-0.7,1-0.8,1.6c-0.1,0.4,0.1,0.5,0.4,0.3c0.5-0.5,0.9-1,1.3-1.5c0.4-0.6,0.8-1.2,1.1-1.8
	c0.1-0.4-0.1-0.5-0.5-0.1C26.1,138.2,25.6,138.8,25.2,139.4z"/>
<path class="st9" d="M39.8,142.9c-1.4,6.4,0.3,12.3,7.8,15.9c3.4,1.6,1.6,1.4,4-2.6c3.7-6.2,9.5-6.9,15.1-5.4
	c-0.6-1.1-1.3-2.2-2.2-3.2c-6.6-0.3-12.2,2.2-14.3,10.7c-0.5,2.1,0.1,2.1-2.1-0.1c-6.1-6-5.4-12-2-17.4c1.2-0.2,2.5-0.3,3.7-0.3
	c-4.3,4.7-5.9,10.6-1.3,17.4c1.6,2.4,1.6,2.1,2.2,5.1c1.6,7.9-2.7,12.7-8.6,15.5c-1.1-0.5-2.2-1-3.3-1.7c7.1-1.9,12.1-6.4,11.1-16.1
	c-0.2-2-0.3,0.3-0.7,1.5c-2.4,8.4-8.5,10.7-15.3,10.2c-0.8-1-1.4-2-2-3.1c6.6,1.6,13,0.4,16.9-7.3c1.3-2.6,0.3-2.1,3.3-2.8
	c8.1-1.9,12.8,2.3,15.6,8.2c-0.5,1.2-1,2.3-1.7,3.4c-1.7-6.6-5.7-11.7-14.6-11.1c-2.4,0.2-1.4,0.1-3.3,1.9
	c-6.2,6.2-12.6,5.3-18.2,1.6c-0.2-1.2-0.3-2.4-0.2-3.7c4.9,4.6,11,6.5,18.1,1.7c2.9-2,1.8-0.8,1.7-4.6c-0.3-7.9,4.2-11.6,10.1-13.3
	c-1.1-0.7-2.3-1.2-3.5-1.7c-5.9,3.1-9.2,8.3-6.8,16.6c0.6,2,1.1,1.4-1.8,2.2C39,162.8,34,159,31,153.2c0.4-1.1,1-2.2,1.6-3.3
	c2,6.3,6.5,10.8,14.8,10.1c3.6-0.3,2-0.1,4.6-2.5c5.8-5.2,11.7-3.9,16.8-0.5c0.2,1.3,0.3,2.5,0.2,3.8c-4.7-4.8-10.7-6.9-17.9-2
	c-1.9,1.3-0.9,1.1-3.7,0.4c-8.5-2.1-11-7.8-10.7-14.2C37.7,144.2,38.7,143.5,39.8,142.9L39.8,142.9z M61.5,175.6
	c0.1-1.1,0.1-2.2,0-3.3c-0.6-7.6-5-10.8-11.9-12.5l0.5,0.6c5.7,7.9,3.4,14.2-1.9,19.4c1.3,0.1,2.5,0,3.8-0.2
	c3.8-5.6,5.2-11.9-0.6-18.1c-0.9-1-2.8-2.2-1-1.4c8.7,4,9.8,10.6,7.8,17.5C59.4,177.1,60.5,176.4,61.5,175.6L61.5,175.6z"/>
<circle class="st4" cx="134.4" cy="161.7" r="33.4"/>
<path class="st5" d="M128.1,128.8c2.7-0.5,5.4-0.7,8.1-0.6c0.8,0.8,0.6,1.9-0.7,2.9c-1.6,1.1-4.8,2.2-8,3.4c-3.5,1.2-6.7,3-9.5,5.4
	c-3.4,3-6,6.9-7.4,11.2c-1.4,4.5-1.6,9.4-0.6,14c1,4.2,2.9,7.6,3.9,10.4s0.9,5.2-0.7,6.5c-1.4,0.9-3.2,1.2-4.8,0.7
	c-11.6-14.4-9.4-35.4,5-47C117.7,132.2,122.7,129.9,128.1,128.8L128.1,128.8z"/>
<path class="st6" d="M128.1,128.8c1-0.2,2-0.3,3-0.4c-0.3,3.4-2.4,6.2-3.9,9.5c-4.2,8.7-4.6,17.7,5.4,22.4c3.4,1.6,1.6,1.3,3.9-2.6
	c5.6-9.3,15.6-6.2,23.2-2.1c3.2,1.7,4.8,2.9,7.9,2.9c-0.1-1-0.2-2.1-0.4-3.1s-0.5-2.2-0.8-3.2c-3.4,0.5-5.7-0.6-9.3-1.7
	c-9.6-2.8-19.1-2.3-22,9.3c-0.5,2.1,0.1,2.1-2.1-0.1c-9.1-8.9-3.1-17.8,4.2-24.7c2.1-2,3.9-3.4,4.9-5.8c2.1,0.5,4.1,1.2,6,2.1
	c-2,2.9-5,4.2-8.1,6.2c-7.9,5.3-13,12.8-6.7,21.9c1.6,2.4,1.6,2.1,2.2,5.1c2.3,11.1-7.1,15.9-16.1,18.1c-3.8,1-5.7,1.1-8.3,3.3
	c-1.6-1.5-3-3.1-4.2-4.8c3-1.7,4.9-1.4,8.8-1.7c10.9-0.6,20.2-4.2,19-17.3c-0.2-2-0.3,0.3-0.7,1.6c-3.3,11.8-14,11.4-23.5,8.7
	c-3.5-1-5.3-1.8-8.4-1.3c-0.3-1-0.6-2.1-0.8-3.2c-0.2-1-0.3-2.1-0.4-3.1c3.5,0.1,5.6,1.7,9,3.4c8.7,4.3,18.5,5.7,23.7-4.7
	c1.3-2.6,0.3-2.1,3.3-2.8c11.5-2.8,16,6.8,18.2,15.9c0.9,4,1,5.6,3.3,8.2c-1.5,1.5-3.1,2.9-4.8,4.2c-1.9-3.1-1.6-4.9-1.7-9.1
	c-0.4-9.8-3.6-19.5-15.6-18.6c-2.4,0.2-1.4,0.1-3.2,1.9c-8.9,8.9-18,3.2-25-4.1c-2.3-2.3-3.6-4.1-6.3-5.1c0.5-2.1,1.2-4.1,2.1-6
	c2.8,1.9,4,4.6,6.1,7.6c5.4,8.1,13.3,13.8,22.8,7.3c2.9-1.9,1.8-0.8,1.7-4.6c-0.4-11.7,9.9-14.2,19.2-14.6c3.3-0.1,5.4,0,7.9-1.3
	c-1.2-1.7-2.7-3.4-4.2-4.9c-2.8,2.1-6,2.3-9.6,3.3c-9.7,2.5-16.7,8-13.5,19.1c0.6,2,1.1,1.4-1.8,2.2c-12.4,3.4-17.3-6.2-19.7-16.2
	c-0.7-2.9-1-5-2.7-7.1c1.5-1.5,3.1-2.9,4.8-4.2c1.5,3.2,1.1,6.6,1.4,10.2c0.8,9.6,4.9,17.7,16.1,16.9c3.6-0.3,2-0.1,4.6-2.5
	c8.3-7.4,16.8-1.6,22.9,4.9c2.7,2.9,3.7,4.5,6.9,5.6c-0.5,2.1-1.2,4.1-2.1,6c-3.1-1.8-3.8-3.7-6-7.2c-5.3-8.3-12.8-14.8-22.7-8
	c-1.9,1.3-0.9,1.1-3.6,0.4c-12.4-3.2-11.8-13.8-8.9-23.6c0.8-2.8,1.7-4.9,1.3-7.5C125.9,129.3,126.9,129.1,128.1,128.8L128.1,128.8z
	 M143.7,193.8c-0.1-0.2-0.1-0.4-0.1-0.6c-0.8-4.1,3.6-12.3,3.1-19.4c-0.6-7.6-5-10.9-11.9-12.5l0.5,0.7c7.6,10.6,0.8,18.4-8.2,24.2
	c-3.4,2.2-5,2.8-6.7,5.9c1.9,0.9,3.9,1.6,6,2.1c1.1-3.4,3.2-4.8,5.8-7.4c6.8-6.5,12.2-15.4,4.3-23.8c-0.9-1-2.8-2.2-1-1.4
	c11.9,5.5,9.7,15.6,4.8,25c-1.9,3.7-2.9,4.9-2.8,8.3c1-0.1,2.1-0.2,3.1-0.4C141.7,194.3,142.7,194.1,143.7,193.8L143.7,193.8z"/>
<path class="st7" d="M128.1,128.8c1-0.2,2-0.3,3-0.4c-0.2,2-0.9,3.8-1.9,5.6l-1.7,0.6c-1.2,0.5-2.5,1-3.7,1.6c0.7-2.3,1.3-4.2,1-6.6
	C125.8,129.3,126.9,129,128.1,128.8L128.1,128.8z M108.4,182.7c-0.4-0.5-0.9-1.1-1.3-1.7c2.6-1.5,4.4-1.5,7.4-1.6
	c-0.1,1-0.5,2-1.3,2.6C111.7,183,110,183.3,108.4,182.7L108.4,182.7z M112.8,173c-0.7-0.2-1.4-0.4-2.2-0.6c-3.5-1-5.3-1.8-8.4-1.3
	c-0.3-1-0.6-2.1-0.8-3.2c-0.2-1-0.3-2.1-0.4-3.1c3.5,0.1,5.6,1.7,9,3.4c0.3,0.2,0.7,0.3,1,0.5C111.6,170.3,112.3,171.7,112.8,173z
	 M109.4,160.2c-0.4-0.4-0.8-0.8-1.2-1.2c-2.3-2.3-3.6-4.1-6.3-5.1c0.5-2.1,1.2-4.1,2.1-6c2.7,1.8,3.9,4.3,5.7,7.1
	C109.4,156.7,109.3,158.5,109.4,160.2L109.4,160.2z M112.8,146.1c0-0.1,0-0.2-0.1-0.3c-0.7-2.9-1-5-2.7-7.1c1.5-1.5,3.1-2.9,4.8-4.2
	c0.9,2.3,1.4,4.8,1.3,7.2C114.9,143,113.8,144.5,112.8,146.1L112.8,146.1z"/>
<path class="st8" d="M107.1,146.3c-1.1,2.1-2.1,4.3-2.8,6.5c-1,3.1-1.4,6.3-1.3,9.6c0.1,3.4,0.7,6.8,1.7,10c0.8,2.6,1.7,4.1,2.3,4.6
	s0.9,0.1,0.6-1.6c-0.8-2.7-1.5-5.4-2-8.2c-0.5-3.8-0.6-7.6-0.2-11.4c0.3-2.6,1-5.2,1.9-7.7c0.4-1,0.7-2,0.9-3.1
	C108.2,144.7,107.8,144.9,107.1,146.3z"/>
<path class="st8" d="M165.6,168.4c-0.4,2.1-1.1,4.1-1.9,6.1c-1,2.2-2.3,4.3-3.8,6.2c-1.3,1.8-2.8,3.5-4.4,5.1c-0.9,1-2,1.8-3.2,2.3
	c-0.7,0.2-0.8-0.1,0.3-1.4s3.5-3.7,5.5-6.3c1.8-2.4,3.5-4.9,4.8-7.6c1.1-2.2,1.7-3.7,2.1-4.6S165.8,167.2,165.6,168.4z"/>
<path class="st8" d="M110.2,140.9c-0.4,0.5-0.7,1-0.8,1.6c-0.1,0.4,0.1,0.5,0.4,0.3c0.5-0.5,0.9-1,1.3-1.5c0.5-0.6,0.8-1.2,1.2-1.8
	c0.1-0.4-0.1-0.5-0.5-0.2C111.2,139.8,110.7,140.3,110.2,140.9z"/>
<path class="st9" d="M124.8,144.5c-1.4,6.4,0.3,12.3,7.8,15.9c3.4,1.6,1.6,1.3,4-2.6c3.7-6.2,9.5-6.9,15.1-5.4
	c-0.6-1.1-1.3-2.2-2.2-3.2c-6.6-0.4-12.2,2.2-14.4,10.7c-0.5,2.1,0.1,2.1-2.1-0.1c-6.1-6-5.4-12-2.1-17.4c1.2-0.2,2.5-0.3,3.7-0.3
	c-4.4,4.7-5.9,10.6-1.3,17.4c1.6,2.4,1.6,2.1,2.2,5.1c1.6,7.9-2.7,12.7-8.6,15.5c-1.1-0.5-2.2-1-3.3-1.7c7.1-1.9,12.1-6.4,11.1-16.1
	c-0.2-2-0.3,0.3-0.7,1.6c-2.4,8.4-8.5,10.7-15.3,10.2c-0.8-1-1.4-2-2-3.1c6.6,1.6,13,0.4,16.9-7.3c1.3-2.6,0.3-2.1,3.3-2.8
	c8.1-1.9,12.8,2.3,15.6,8.2c-0.5,1.2-1,2.3-1.7,3.4c-1.7-6.6-5.7-11.7-14.6-11c-2.4,0.2-1.4,0.1-3.3,1.9c-6.2,6.2-12.6,5.3-18.2,1.6
	c-0.2-1.2-0.3-2.4-0.2-3.7c4.9,4.6,11,6.5,18.1,1.7c2.9-2,1.8-0.8,1.7-4.6c-0.3-7.9,4.2-11.6,10.1-13.3c-1.1-0.7-2.3-1.2-3.5-1.7
	c-5.9,3.1-9.2,8.3-6.8,16.6c0.6,2,1.1,1.4-1.8,2.2c-8.5,2.3-13.5-1.5-16.5-7.3c0.4-1.1,1-2.2,1.6-3.3c2,6.3,6.4,10.8,14.8,10.1
	c3.6-0.3,2-0.1,4.6-2.5c5.8-5.2,11.6-3.9,16.8-0.5c0.2,1.3,0.3,2.5,0.2,3.8c-4.7-4.8-10.7-6.9-17.9-2c-1.9,1.3-0.9,1.1-3.6,0.4
	c-8.4-2.2-10.9-7.8-10.6-14.2C122.7,145.7,123.8,145,124.8,144.5L124.8,144.5z M146.6,177.1c0.1-1.1,0.1-2.2,0.1-3.3
	c-0.6-7.6-5-10.9-11.9-12.5l0.5,0.6c5.7,7.9,3.4,14.2-1.9,19.4c1.3,0.1,2.5,0,3.8-0.2c3.8-5.6,5.2-12-0.6-18.1c-0.9-1-2.8-2.2-1-1.4
	c8.7,4,9.8,10.6,7.9,17.5C144.5,178.6,145.6,177.9,146.6,177.1z"/>
<circle class="st4" cx="85.1" cy="164.6" r="33.4"/>
<path class="st5" d="M78.9,131.7c2.7-0.5,5.4-0.7,8.1-0.5c0.8,0.8,0.7,1.9-0.7,2.9c-1.6,1.2-4.8,2.2-8,3.4c-3.5,1.2-6.7,3-9.6,5.4
	c-3.4,3-6,6.8-7.5,11.1c-1.4,4.5-1.6,9.4-0.5,14c1,4.2,3,7.6,3.9,10.4s0.9,5.2-0.7,6.5c-1.4,0.9-3.2,1.2-4.8,0.7
	c-11.6-14.4-9.4-35.4,5-47C68.4,135.1,73.4,132.7,78.9,131.7L78.9,131.7z"/>
<path class="st10" d="M78.9,131.7c1-0.2,2-0.3,3-0.4c-0.3,3.4-2.4,6.2-3.9,9.5c-4.2,8.6-4.6,17.6,5.4,22.4c3.4,1.6,1.6,1.4,4-2.6
	c5.6-9.3,15.6-6.2,23.2-2.1c3.2,1.7,4.8,2.8,7.9,2.9c-0.1-1-0.2-2.1-0.4-3.1s-0.5-2.2-0.8-3.2c-3.4,0.6-5.7-0.6-9.3-1.7
	c-9.6-2.8-19-2.3-22,9.2c-0.5,2.1,0.1,2.1-2.1-0.1c-9.1-8.9-3.1-17.8,4.2-24.7c2.2-2,3.9-3.4,4.9-5.8c2.1,0.5,4.1,1.2,6,2.1
	c-2,2.9-5,4.2-8.1,6.2c-7.9,5.3-13,12.8-6.7,21.9c1.6,2.4,1.6,2.1,2.2,5.1c2.3,11.1-7.1,15.9-16.1,18.1c-3.8,1-5.7,1.1-8.3,3.3
	c-1.6-1.5-3-3.1-4.2-4.8c3-1.7,4.9-1.4,8.8-1.7c10.9-0.6,20.2-4.2,19-17.3c-0.2-2-0.3,0.3-0.7,1.5c-3.3,11.8-14,11.4-23.5,8.7
	c-3.5-1-5.3-1.8-8.4-1.3c-0.3-1-0.6-2.1-0.8-3.2s-0.3-2.1-0.4-3.1c3.5,0.1,5.6,1.7,9,3.4c8.7,4.3,18.5,5.7,23.7-4.7
	c1.3-2.6,0.3-2.1,3.3-2.8c11.5-2.8,16,6.8,18.2,15.9c0.9,4,1,5.6,3.3,8.2c-1.5,1.5-3.1,3-4.8,4.2c-1.9-3.1-1.5-4.9-1.7-9.1
	c-0.4-9.8-3.6-19.5-15.6-18.6c-2.4,0.2-1.4,0-3.3,1.9c-8.9,8.9-18,3.2-25-4.1c-2.3-2.4-3.6-4.1-6.3-5.1c0.5-2.1,1.2-4.1,2.1-6
	c2.8,1.9,4,4.6,6.1,7.6c5.5,8.1,13.2,13.8,22.8,7.3c2.9-1.9,1.8-0.8,1.7-4.6c-0.4-11.7,9.9-14.2,19.2-14.6c3.2-0.1,5.3,0,7.9-1.3
	c-1.2-1.7-2.7-3.4-4.2-4.9c-2.8,2.1-6,2.3-9.6,3.3c-9.7,2.5-16.7,8-13.5,19.1c0.6,2,1.1,1.4-1.8,2.2c-12.4,3.4-17.3-6.2-19.7-16.2
	c-0.7-2.9-1-5-2.7-7.1c1.5-1.5,3.1-3,4.8-4.2c1.5,3.2,1.1,6.6,1.4,10.2c0.8,9.6,4.9,17.8,16.1,16.9c3.6-0.3,2-0.1,4.6-2.5
	c8.3-7.4,16.8-1.6,22.9,4.9c2.7,2.9,3.7,4.5,6.9,5.6c-0.5,2.1-1.2,4.1-2.1,6.1c-3.1-1.8-3.8-3.7-6-7.2c-5.3-8.3-12.8-14.8-22.7-8
	c-1.9,1.3-0.9,1.1-3.6,0.4c-12.4-3.2-11.8-13.8-8.9-23.6c0.8-2.8,1.7-4.9,1.3-7.5C76.6,132.3,77.7,132,78.9,131.7L78.9,131.7z
	 M94.5,196.7c0-0.2-0.1-0.4-0.1-0.6c-0.8-4.2,3.7-12.3,3.1-19.5c-0.6-7.6-5-10.9-11.9-12.5l0.5,0.6c7.7,10.6,0.8,18.4-8.2,24.2
	c-3.4,2.2-5,2.8-6.7,5.9c1.9,0.9,3.9,1.6,6,2.1c1.1-3.4,3.2-4.8,5.8-7.4c6.8-6.5,12.2-15.4,4.3-23.8c-0.9-1-2.8-2.2-1-1.4
	c11.9,5.5,9.7,15.6,4.8,25c-1.9,3.7-2.9,4.9-2.8,8.3c1-0.1,2.1-0.2,3.1-0.4S93.5,197,94.5,196.7L94.5,196.7z"/>
<path class="st11" d="M78.9,131.7c1-0.2,2-0.3,3-0.4c-0.3,2-0.9,3.8-1.9,5.5l-1.7,0.6c-1.2,0.5-2.5,1-3.7,1.6c0.7-2.3,1.3-4.2,1-6.5
	C76.6,132.2,77.7,131.9,78.9,131.7L78.9,131.7z M59.1,185.6c-0.5-0.5-0.9-1.1-1.3-1.7c2.6-1.5,4.4-1.5,7.4-1.6c0,1-0.5,2-1.3,2.6
	C62.5,185.9,60.7,186.2,59.1,185.6L59.1,185.6z M63.6,175.9c-0.7-0.2-1.4-0.4-2.2-0.6c-3.5-1-5.3-1.8-8.4-1.3
	c-0.3-1-0.6-2.1-0.8-3.2s-0.3-2.1-0.4-3.1c3.5,0.1,5.6,1.7,9,3.4l1,0.5C62.4,173.1,63,174.6,63.6,175.9L63.6,175.9z M60.1,163.1
	c-0.4-0.4-0.8-0.8-1.2-1.2c-2.3-2.4-3.6-4.1-6.3-5.1c0.5-2.1,1.2-4.1,2.1-6c2.7,1.8,3.9,4.3,5.7,7.1C60.1,159.6,60,161.3,60.1,163.1
	L60.1,163.1z M63.6,149c0-0.1,0-0.2-0.1-0.3c-0.7-2.9-1-5-2.7-7.1c1.5-1.5,3.1-3,4.8-4.2c0.9,2.3,1.4,4.8,1.3,7.2
	C65.7,145.9,64.6,147.4,63.6,149z"/>
<path class="st8" d="M57.8,149.2c-1.2,2.1-2.1,4.3-2.8,6.6c-1,3.1-1.4,6.3-1.3,9.6c0.1,3.4,0.7,6.8,1.7,10c0.8,2.6,1.7,4.1,2.3,4.6
	s1,0.1,0.6-1.6c-0.8-2.7-1.5-5.4-2-8.2c-0.5-3.8-0.6-7.6-0.2-11.4c0.3-2.6,1-5.2,1.9-7.7c0.4-1,0.7-2,0.9-3.1
	C58.9,147.6,58.6,147.8,57.8,149.2z"/>
<path class="st8" d="M116.3,171.3c-0.4,2.1-1.1,4.1-1.9,6.1c-1,2.2-2.3,4.3-3.8,6.2c-1.3,1.8-2.8,3.5-4.3,5c-0.9,1-2,1.8-3.3,2.4
	c-0.7,0.2-0.8-0.1,0.3-1.4s3.5-3.7,5.5-6.3c1.8-2.4,3.4-4.9,4.8-7.6c1.1-2.2,1.7-3.8,2.1-4.6S116.5,170.1,116.3,171.3z"/>
<path class="st8" d="M61,143.8c-0.4,0.5-0.7,1-0.8,1.6c-0.1,0.4,0.1,0.5,0.4,0.3c0.5-0.4,0.9-1,1.3-1.5c0.4-0.6,0.8-1.2,1.2-1.8
	c0.1-0.4-0.1-0.5-0.5-0.1C61.9,142.6,61.4,143.2,61,143.8z"/>
<path class="st12" d="M75.6,147.4c-1.4,6.4,0.3,12.3,7.8,15.9c3.4,1.6,1.6,1.4,4-2.6c3.7-6.2,9.4-6.9,15.1-5.4
	c-0.6-1.1-1.3-2.2-2.2-3.2c-6.6-0.3-12.2,2.2-14.3,10.7c-0.5,2.1,0.1,2.1-2.1-0.1c-6.1-6-5.4-12-2-17.4c1.2-0.2,2.5-0.3,3.7-0.3
	c-4.3,4.7-5.9,10.6-1.3,17.4c1.6,2.4,1.6,2.1,2.2,5.1c1.6,7.9-2.7,12.7-8.6,15.5c-1.1-0.5-2.2-1-3.3-1.7c7.1-1.9,12.1-6.4,11.1-16.1
	c-0.2-2-0.3,0.3-0.7,1.5c-2.4,8.4-8.5,10.7-15.3,10.2c-0.8-1-1.4-2-2-3.1c6.6,1.6,13,0.4,16.8-7.3c1.3-2.6,0.3-2.1,3.3-2.8
	c8.1-2,12.8,2.3,15.6,8.2c-0.5,1.2-1,2.3-1.7,3.4c-1.7-6.6-5.7-11.7-14.6-11c-2.4,0.2-1.4,0-3.2,1.9c-6.2,6.2-12.6,5.3-18.2,1.6
	c-0.2-1.2-0.3-2.4-0.2-3.7c4.9,4.6,11,6.5,18.2,1.7c2.9-1.9,1.8-0.8,1.7-4.6c-0.3-7.9,4.2-11.6,10.1-13.3c-1.1-0.7-2.3-1.2-3.5-1.7
	c-5.9,3.1-9.2,8.3-6.8,16.6c0.6,2,1.2,1.4-1.8,2.2c-8.5,2.3-13.5-1.5-16.5-7.3c0.4-1.1,1-2.2,1.6-3.3c2,6.3,6.4,10.8,14.8,10.1
	c3.6-0.3,2-0.1,4.7-2.5c5.8-5.2,11.6-3.9,16.8-0.5c0.2,1.3,0.3,2.5,0.2,3.8c-4.7-4.8-10.7-6.9-17.9-1.9c-1.9,1.3-0.9,1.1-3.6,0.4
	c-8.4-2.2-10.9-7.8-10.7-14.3C73.5,148.7,74.5,148,75.6,147.4L75.6,147.4z M97.3,180c0.1-1.1,0.1-2.2,0.1-3.3
	c-0.6-7.6-5-10.8-11.9-12.5l0.5,0.6c5.7,7.9,3.4,14.2-1.9,19.4c1.3,0.1,2.5,0,3.8-0.2c3.8-5.6,5.2-11.9-0.7-18.1
	c-0.9-1-2.8-2.2-1-1.4c8.7,4,9.8,10.6,7.9,17.5C95.2,181.5,96.3,180.8,97.3,180z"/>
<circle class="st4" cx="58.6" cy="46" r="33.4"/>
<path class="st5" d="M52.3,13.1c2.7-0.5,5.4-0.7,8.1-0.5c0.8,0.8,0.7,1.9-0.7,2.9c-1.6,1.2-4.8,2.2-8,3.4c-3.5,1.2-6.7,3-9.6,5.4
	c-3.4,3-6,6.8-7.4,11.2c-1.4,4.5-1.6,9.4-0.5,14c1,4.2,2.9,7.6,3.9,10.4s0.9,5.2-0.7,6.5c-1.4,0.9-3.2,1.2-4.8,0.7
	c-11.6-14.4-9.4-35.4,5-47C41.9,16.5,46.9,14.1,52.3,13.1L52.3,13.1z"/>
<path class="st10" d="M52.3,13.1c1-0.2,2-0.3,3-0.4c-0.3,3.4-2.4,6.3-3.9,9.5c-4.2,8.6-4.6,17.7,5.4,22.4c3.4,1.6,1.6,1.3,4-2.6
	c5.6-9.3,15.6-6.2,23.2-2.1c3.2,1.7,4.8,2.8,7.9,2.9c-0.1-1-0.2-2.1-0.4-3.1c-0.2-1.1-0.5-2.2-0.8-3.2c-3.4,0.5-5.7-0.6-9.3-1.7
	c-9.6-2.8-19-2.3-22,9.2c-0.5,2.1,0.1,2.1-2.1-0.1c-9.1-9-3.1-17.8,4.3-24.7c2.1-2,3.9-3.4,4.9-5.8c2.1,0.5,4.1,1.2,6,2.1
	c-2,2.9-5,4.2-8.1,6.2c-7.9,5.3-13,12.8-6.7,21.9c1.6,2.4,1.6,2.1,2.2,5.1c2.3,11.1-7.1,15.9-16,18.1c-3.8,1-5.7,1.1-8.3,3.3
	c-1.6-1.5-3-3.1-4.2-4.8c2.9-1.7,4.9-1.5,8.8-1.7c10.9-0.6,20.2-4.2,19-17.3c-0.2-2-0.3,0.3-0.7,1.5c-3.3,11.8-14,11.5-23.5,8.7
	c-3.5-1-5.3-1.8-8.4-1.3c-0.3-1.1-0.6-2.1-0.8-3.2c-0.2-1-0.3-2-0.4-3.1c3.5,0.1,5.6,1.7,9,3.4c8.7,4.3,18.5,5.7,23.7-4.7
	c1.3-2.6,0.3-2.1,3.3-2.8c11.5-2.8,16,6.8,18.2,15.9c0.9,4,1,5.6,3.3,8.2c-1.5,1.6-3.1,3-4.8,4.2c-1.9-3.1-1.5-4.9-1.7-9.2
	c-0.4-9.8-3.6-19.5-15.6-18.6c-2.4,0.2-1.4,0-3.2,1.9c-8.9,8.9-18,3.2-25-4.1c-2.3-2.3-3.6-4-6.3-5.1c0.5-2.1,1.2-4.1,2.1-6
	c2.9,1.9,4,4.6,6.1,7.6C39.7,47.8,47.5,53.5,57,47c2.9-2,1.8-0.8,1.7-4.6c-0.4-11.7,9.9-14.3,19.2-14.6c3.2-0.1,5.3,0,7.9-1.3
	c-1.3-1.8-2.7-3.4-4.2-4.9C78.8,23.8,75.6,24,72,25c-9.7,2.5-16.7,8-13.5,19.1c0.6,2,1.2,1.4-1.8,2.2C44.3,49.7,39.4,40,37,30.1
	c-0.7-2.9-1-5-2.7-7.1c1.5-1.5,3.1-2.9,4.8-4.2c1.5,3.2,1.1,6.6,1.4,10.2c0.8,9.6,4.9,17.7,16.1,16.9c3.6-0.3,2-0.1,4.6-2.5
	c8.3-7.4,16.8-1.6,23,4.9c2.7,2.9,3.7,4.5,6.9,5.6c-0.5,2.1-1.2,4.1-2.1,6.1c-3.1-1.8-3.8-3.7-6-7.2c-5.3-8.3-12.8-14.8-22.7-8
	c-1.9,1.3-0.9,1.1-3.6,0.4c-12.4-3.2-11.8-13.8-8.9-23.6c0.8-2.8,1.7-4.9,1.3-7.5C50.1,13.6,51.2,13.3,52.3,13.1z M67.9,78.1
	c-0.1-0.2-0.1-0.4-0.1-0.6c-0.8-4.2,3.6-12.3,3.1-19.4c-0.6-7.6-5-10.8-11.9-12.5l0.5,0.7c7.7,10.6,0.8,18.5-8.2,24.2
	c-3.4,2.2-5,2.8-6.7,5.8c1.9,0.9,3.9,1.6,6,2.1c1.1-3.4,3.2-4.8,5.8-7.4c6.8-6.5,12.2-15.4,4.3-23.8c-0.9-1-2.8-2.2-1-1.3
	c11.9,5.5,9.7,15.6,4.8,25c-1.9,3.7-2.9,4.9-2.8,8.3c1-0.1,2.1-0.2,3.1-0.4C65.9,78.7,66.9,78.4,67.9,78.1L67.9,78.1z"/>
<path class="st11" d="M52.3,13.1c1-0.2,2-0.3,3-0.4c-0.2,2-0.9,3.8-1.9,5.6l-1.7,0.6c-1.2,0.5-2.5,1-3.7,1.6c0.7-2.3,1.3-4.2,1-6.5
	C50.1,13.6,51.1,13.3,52.3,13.1L52.3,13.1z M32.6,67c-0.4-0.5-0.9-1.1-1.3-1.7c2.6-1.5,4.4-1.5,7.4-1.6c-0.1,1-0.5,2-1.3,2.6
	C36,67.3,34.2,67.5,32.6,67z M37.1,57.2l-2.2-0.6c-3.5-1-5.3-1.8-8.4-1.3c-0.3-1.1-0.6-2.1-0.8-3.2c-0.2-1-0.3-2-0.4-3.1
	c3.5,0.1,5.6,1.7,9,3.4l1,0.5C35.8,54.5,36.5,55.9,37.1,57.2z M33.6,44.5c-0.4-0.4-0.8-0.8-1.2-1.2c-2.3-2.3-3.6-4-6.3-5.1
	c0.5-2.1,1.2-4.1,2.1-6c2.7,1.8,3.9,4.3,5.7,7.1C33.6,40.9,33.5,42.7,33.6,44.5L33.6,44.5z M37.1,30.4c0-0.1,0-0.2-0.1-0.3
	c-0.7-2.9-1-5-2.7-7.1c1.5-1.5,3.1-2.9,4.8-4.2c0.9,2.3,1.4,4.8,1.3,7.3C39.1,27.3,38,28.8,37.1,30.4L37.1,30.4z"/>
<path class="st8" d="M31.3,30.5c-1.1,2.1-2.1,4.3-2.8,6.5c-1,3.1-1.4,6.3-1.3,9.6c0.1,3.4,0.7,6.8,1.7,10c0.8,2.6,1.7,4.1,2.4,4.6
	s0.9,0.1,0.6-1.6c-0.8-2.7-1.5-5.4-2-8.2c-0.5-3.8-0.6-7.6-0.2-11.4c0.3-2.6,1-5.2,1.9-7.7c0.4-1,0.7-2,0.9-3.1
	C32.4,28.9,32,29.2,31.3,30.5z"/>
<path class="st8" d="M89.8,52.6c-0.4,2.1-1.1,4.1-1.9,6.1c-1,2.2-2.3,4.3-3.8,6.2c-1.3,1.8-2.8,3.5-4.4,5.1c-0.9,1-2,1.8-3.2,2.3
	c-0.7,0.2-0.8-0.1,0.3-1.4s3.5-3.7,5.5-6.3c1.8-2.4,3.4-4.9,4.8-7.6c1.1-2.2,1.7-3.8,2.1-4.6S90,51.4,89.8,52.6z"/>
<path class="st8" d="M34.5,25.2c-0.4,0.5-0.7,1-0.8,1.6c-0.1,0.4,0.1,0.5,0.4,0.3c0.5-0.4,0.9-1,1.3-1.5c0.5-0.6,0.8-1.2,1.2-1.8
	c0.1-0.4-0.1-0.5-0.5-0.1C35.4,24,34.9,24.6,34.5,25.2z"/>
<path class="st12" d="M49,28.7c-1.4,6.4,0.3,12.3,7.8,15.9c3.4,1.6,1.6,1.3,4-2.6c3.7-6.2,9.4-6.9,15.1-5.4
	c-0.6-1.1-1.3-2.2-2.2-3.2C67.1,33,61.5,35.6,59.4,44c-0.5,2.1,0.1,2.1-2.1-0.1c-6.1-6-5.4-12-2-17.4c1.2-0.2,2.5-0.3,3.7-0.3
	C54.6,31,53,36.9,57.6,43.7c1.6,2.4,1.6,2.1,2.2,5.1c1.6,8-2.7,12.7-8.6,15.5c-1.1-0.5-2.3-1-3.3-1.7c7-1.9,12-6.4,11-16.1
	c-0.2-2-0.3,0.3-0.7,1.5c-2.4,8.5-8.5,10.7-15.3,10.2c-0.8-1-1.4-2-2-3.1c6.6,1.6,13,0.4,16.9-7.3c1.3-2.6,0.3-2.1,3.3-2.8
	c8.1-2,12.8,2.3,15.6,8.2c-0.5,1.2-1,2.3-1.7,3.4c-1.7-6.6-5.7-11.7-14.6-11c-2.4,0.2-1.4,0-3.3,1.9c-6.3,6.2-12.6,5.2-18.2,1.6
	c-0.2-1.2-0.3-2.4-0.2-3.7c4.9,4.6,11,6.5,18.1,1.7c2.9-2,1.8-0.8,1.7-4.6c-0.3-7.9,4.2-11.6,10.1-13.3c-1.1-0.7-2.3-1.2-3.5-1.7
	c-5.9,3.1-9.2,8.3-6.8,16.6c0.6,2,1.1,1.4-1.8,2.2c-8.5,2.3-13.5-1.5-16.5-7.3c0.4-1.1,1-2.2,1.6-3.3c2,6.3,6.4,10.8,14.8,10.1
	c3.6-0.3,2-0.1,4.6-2.5c5.8-5.2,11.7-4,16.8-0.5c0.2,1.3,0.3,2.5,0.2,3.8c-4.7-4.8-10.7-6.9-17.9-2c-1.9,1.3-0.9,1.1-3.7,0.4
	c-8.5-2.1-10.9-7.8-10.7-14.2C46.9,30,47.9,29.3,49,28.7z M70.8,61.4c0.1-1.1,0.1-2.2,0.1-3.3c-0.6-7.6-5-10.8-11.9-12.5l0.5,0.7
	c5.7,7.9,3.4,14.2-1.9,19.4c1.3,0.1,2.5,0,3.8-0.2c3.8-5.5,5.2-12-0.6-18.1c-0.9-1-2.8-2.2-1-1.4c8.8,4,9.8,10.6,7.9,17.5
	C68.7,62.9,69.8,62.2,70.8,61.4z"/>
<circle class="st4" cx="55" cy="110.7" r="33.4"/>
<path class="st5" d="M48.7,77.9c2.7-0.5,5.4-0.7,8.1-0.5c0.8,0.8,0.7,1.9-0.7,2.9c-1.6,1.2-4.8,2.2-8,3.4c-3.5,1.2-6.8,3-9.6,5.3
	c-3.4,3-6,6.8-7.4,11.2c-1.4,4.5-1.6,9.4-0.5,14c1,4.2,2.9,7.6,3.9,10.4s0.9,5.2-0.7,6.5c-1.4,0.9-3.2,1.2-4.8,0.7
	c-11.6-14.4-9.4-35.4,5-47C38.3,81.3,43.3,78.9,48.7,77.9z"/>
<path class="st10" d="M48.7,77.9c1-0.2,2-0.3,3-0.4c-0.3,3.4-2.4,6.2-3.9,9.5c-4.2,8.7-4.6,17.7,5.4,22.4c3.4,1.6,1.6,1.3,4-2.6
	c5.6-9.3,15.6-6.2,23.2-2.1c3.2,1.7,4.8,2.8,7.9,2.9c-0.1-1-0.2-2.1-0.4-3.1s-0.5-2.2-0.8-3.2c-3.4,0.6-5.7-0.6-9.3-1.7
	c-9.6-2.8-19-2.3-22,9.2c-0.5,2.1,0.1,2.1-2.1-0.1C44.6,99.8,50.5,91,57.9,84c2.1-2,3.8-3.4,4.9-5.8c2.1,0.5,4.1,1.2,6,2.1
	c-2,2.9-5,4.2-8.1,6.2c-7.9,5.3-13,12.8-6.7,21.9c1.6,2.4,1.6,2.1,2.2,5.1c2.3,11.1-7.1,15.9-16,18.1c-3.9,1-5.7,1.1-8.3,3.3
	c-1.6-1.5-3-3.1-4.2-4.8c3-1.7,4.9-1.4,8.8-1.7c10.9-0.6,20.2-4.2,19-17.3c-0.2-2-0.3,0.3-0.7,1.5c-3.3,11.8-14,11.4-23.5,8.7
	c-3.5-1-5.3-1.8-8.4-1.3c-0.3-1-0.6-2.1-0.8-3.2s-0.3-2-0.4-3.1c3.5,0.1,5.6,1.7,9,3.4c8.7,4.3,18.5,5.7,23.7-4.7
	c1.3-2.6,0.3-2.1,3.3-2.8c11.5-2.8,16,6.8,18.2,15.9c0.9,4,1,5.6,3.3,8.2c-1.5,1.6-3.1,3-4.8,4.2c-1.9-3.1-1.5-4.9-1.7-9.1
	c-0.4-9.8-3.6-19.5-15.6-18.6c-2.4,0.2-1.4,0-3.3,1.9c-8.9,8.9-18,3.2-25-4.1c-2.3-2.3-3.6-4.1-6.3-5.1c0.5-2.1,1.2-4.1,2.1-6
	c2.9,1.9,4,4.6,6.1,7.6c5.5,8.1,13.2,13.8,22.8,7.3c2.9-2,1.8-0.8,1.7-4.6C54.7,95.5,65,93,74.3,92.6c3.2-0.1,5.3,0,7.9-1.3
	C81,89.6,79.6,88,78,86.5c-2.8,2.1-6,2.3-9.6,3.3c-9.7,2.5-16.7,8-13.5,19.1c0.6,2,1.1,1.4-1.8,2.2c-12.4,3.4-17.3-6.2-19.7-16.2
	c-0.7-2.9-1-5-2.7-7.1c1.5-1.5,3.1-3,4.8-4.2c1.5,3.2,1.1,6.6,1.4,10.2c0.8,9.6,4.9,17.8,16.1,16.9c3.6-0.3,2-0.1,4.6-2.5
	c8.3-7.4,16.8-1.6,22.9,4.9c2.7,2.8,3.7,4.5,6.9,5.6c-0.5,2.1-1.2,4.1-2.1,6.1c-3.1-1.8-3.8-3.7-6-7.2c-5.3-8.3-12.8-14.8-22.7-8
	c-1.9,1.3-0.9,1.1-3.7,0.4c-12.4-3.2-11.8-13.9-8.9-23.7c0.8-2.8,1.7-4.9,1.3-7.5C46.5,78.4,47.6,78.1,48.7,77.9z M64.3,142.9
	c0-0.2-0.1-0.4-0.1-0.6c-0.8-4.1,3.6-12.3,3.1-19.4c-0.6-7.6-5-10.8-11.9-12.5l0.5,0.7c7.7,10.6,0.8,18.5-8.2,24.3
	c-3.4,2.2-5,2.8-6.7,5.9c1.9,0.9,3.9,1.6,6,2.1c1.1-3.4,3.2-4.8,5.8-7.4c6.8-6.5,12.2-15.4,4.3-23.8c-0.9-1-2.8-2.2-1-1.3
	c11.9,5.5,9.7,15.6,4.8,25c-1.9,3.7-2.9,4.9-2.8,8.3c1-0.1,2.1-0.2,3.1-0.4S63.3,143.1,64.3,142.9z"/>
<path class="st11" d="M48.7,77.9c1-0.2,2-0.3,3-0.4c-0.2,1.9-0.9,3.8-1.9,5.5c-0.6,0.2-1.2,0.4-1.7,0.7c-1.2,0.5-2.5,1-3.7,1.6
	c0.7-2.3,1.3-4.2,1-6.5C46.5,78.4,47.6,78.1,48.7,77.9L48.7,77.9z M29,131.8c-0.4-0.5-0.9-1.1-1.3-1.7c2.6-1.5,4.4-1.5,7.4-1.6
	c-0.1,1-0.5,2-1.3,2.6C32.4,132.1,30.6,132.3,29,131.8z M33.5,122c-0.7-0.2-1.4-0.4-2.2-0.6c-3.5-1-5.3-1.8-8.4-1.3
	c-0.3-1-0.6-2.1-0.8-3.2s-0.3-2-0.4-3.1c3.5,0.1,5.6,1.7,9,3.4l1,0.5C32.3,119.3,32.9,120.7,33.5,122z M30,109.2
	c-0.4-0.4-0.8-0.8-1.2-1.2c-2.3-2.3-3.6-4.1-6.3-5.1c0.5-2.1,1.2-4.1,2.1-6c2.7,1.8,3.9,4.3,5.7,7.1C30,105.7,29.9,107.5,30,109.2
	L30,109.2z M33.5,95.2c0-0.1,0-0.2-0.1-0.3c-0.7-2.9-1-5-2.7-7.1c1.5-1.5,3.1-3,4.8-4.2c0.9,2.3,1.3,4.8,1.3,7.2
	C35.5,92.1,34.4,93.6,33.5,95.2L33.5,95.2z"/>
<path class="st8" d="M27.7,95.3c-1.1,2.1-2.1,4.3-2.8,6.6c-1,3.1-1.4,6.3-1.3,9.6c0.1,3.4,0.7,6.8,1.7,10c0.8,2.6,1.7,4.1,2.4,4.6
	s1,0.1,0.6-1.6c-0.8-2.7-1.5-5.4-2-8.2c-0.5-3.8-0.6-7.6-0.2-11.4c0.3-2.6,1-5.2,1.9-7.7c0.4-1,0.7-2,0.9-3.1
	C28.8,93.7,28.4,94,27.7,95.3z"/>
<path class="st8" d="M86.2,117.4c-0.4,2.1-1,4.1-1.9,6.1c-1,2.2-2.3,4.3-3.8,6.2c-1.3,1.8-2.8,3.5-4.4,5.1c-0.9,1-2,1.8-3.2,2.3
	c-0.7,0.2-0.8-0.1,0.3-1.4s3.5-3.7,5.5-6.3c1.8-2.4,3.4-4.9,4.8-7.6c1.1-2.2,1.7-3.8,2.1-4.6S86.4,116.2,86.2,117.4z"/>
<path class="st8" d="M30.9,90c-0.4,0.5-0.7,1-0.9,1.5c-0.1,0.4,0.1,0.5,0.4,0.3c0.5-0.4,0.9-1,1.3-1.5c0.5-0.6,0.8-1.2,1.2-1.8
	c0.1-0.4-0.1-0.5-0.5-0.2C31.8,88.8,31.3,89.4,30.9,90z"/>
<path class="st12" d="M45.4,93.5c-1.4,6.4,0.3,12.3,7.8,15.9c3.4,1.6,1.6,1.3,4-2.6c3.7-6.2,9.4-6.9,15.1-5.4
	c-0.6-1.1-1.3-2.2-2.2-3.2c-6.6-0.3-12.2,2.2-14.3,10.7c-0.5,2.1,0.1,2.1-2.1-0.1c-6.1-6-5.4-12-2-17.4c1.2-0.2,2.5-0.3,3.7-0.3
	c-4.3,4.7-5.9,10.6-1.3,17.4c1.6,2.4,1.6,2.1,2.2,5.1c1.6,7.9-2.7,12.7-8.6,15.5c-1.1-0.5-2.2-1-3.3-1.7c7.1-1.9,12-6.4,11.1-16.1
	c-0.2-2-0.3,0.3-0.7,1.5c-2.4,8.4-8.5,10.7-15.3,10.2c-0.8-1-1.4-2-2-3.1c6.6,1.6,13,0.4,16.8-7.3c1.3-2.6,0.3-2.1,3.3-2.8
	c8.1-2,12.8,2.3,15.6,8.2c-0.5,1.2-1,2.3-1.7,3.4c-1.7-6.6-5.7-11.7-14.6-11c-2.4,0.2-1.4,0-3.3,1.9c-6.2,6.2-12.6,5.3-18.2,1.6
	c-0.2-1.2-0.3-2.4-0.2-3.7c4.9,4.6,11,6.5,18.1,1.7c2.9-2,1.8-0.8,1.7-4.6c-0.3-7.9,4.2-11.6,10.1-13.3c-1.1-0.7-2.3-1.2-3.5-1.7
	c-5.9,3.1-9.2,8.3-6.8,16.6c0.6,2,1.1,1.4-1.8,2.2c-8.5,2.3-13.5-1.5-16.5-7.3c0.4-1.1,1-2.2,1.6-3.3c2,6.3,6.4,10.8,14.8,10.1
	c3.6-0.3,2-0.1,4.6-2.5c5.8-5.2,11.6-3.9,16.8-0.5c0.2,1.3,0.3,2.5,0.2,3.8c-4.7-4.8-10.7-6.9-17.9-2c-1.9,1.3-0.9,1.1-3.6,0.4
	c-8.4-2.2-10.9-7.8-10.7-14.3C43.4,94.8,44.4,94.1,45.4,93.5L45.4,93.5z M67.2,126.2c0.1-1.1,0.1-2.2,0.1-3.3
	c-0.6-7.6-5-10.8-11.9-12.5l0.5,0.7c5.7,7.9,3.4,14.2-1.9,19.4c1.3,0.1,2.5,0,3.8-0.2c3.8-5.6,5.2-11.9-0.7-18.2
	c-0.9-1-2.8-2.2-1-1.3c8.8,4,9.8,10.6,7.9,17.5C65.1,127.7,66.2,127,67.2,126.2z"/>
<circle class="st4" cx="131" cy="82.4" r="33.4"/>
<path class="st5" d="M124.7,49.5c2.7-0.5,5.4-0.7,8.1-0.5c0.8,0.8,0.7,1.9-0.7,2.9c-1.6,1.2-4.8,2.2-8,3.4c-3.5,1.2-6.7,3-9.6,5.4
	c-3.4,3-6,6.9-7.4,11.2c-1.4,4.5-1.6,9.4-0.6,14c1,4.2,2.9,7.6,3.9,10.4s0.9,5.2-0.7,6.5c-1.4,0.9-3.2,1.2-4.8,0.7
	c-11.6-14.4-9.4-35.4,5-47.1C114.3,52.9,119.3,50.5,124.7,49.5L124.7,49.5z"/>
<path class="st10" d="M124.7,49.5c1-0.2,2-0.3,3-0.4c-0.3,3.5-2.4,6.2-3.9,9.5c-4.2,8.6-4.6,17.7,5.4,22.4c3.4,1.6,1.6,1.3,4-2.6
	c5.6-9.3,15.6-6.2,23.2-2.1c3.2,1.7,4.8,2.8,7.9,2.9c-0.1-1-0.2-2.1-0.4-3.1s-0.5-2.2-0.8-3.2c-3.4,0.6-5.7-0.6-9.3-1.7
	c-9.6-2.8-19-2.3-21.9,9.3c-0.5,2.1,0.1,2.1-2.1-0.1c-9.1-8.9-3.1-17.8,4.2-24.7c2.1-2,3.9-3.4,4.9-5.8c2.1,0.5,4.1,1.2,6.1,2.1
	c-2,2.9-5,4.2-8.1,6.2c-7.9,5.3-13,12.8-6.7,21.9c1.6,2.4,1.6,2.1,2.2,5.1c2.3,11.1-7.1,15.9-16.1,18.1c-3.8,1-5.7,1.1-8.3,3.3
	c-1.5-1.5-2.9-3.1-4.2-4.8c3-1.7,4.9-1.4,8.8-1.7c10.9-0.6,20.2-4.2,19-17.3c-0.2-2-0.3,0.3-0.7,1.6c-3.3,11.8-14,11.4-23.5,8.7
	c-3.5-1-5.3-1.8-8.4-1.3c-0.3-1-0.6-2.1-0.8-3.2s-0.3-2.1-0.4-3.1c3.5,0.1,5.6,1.7,9,3.4c8.7,4.3,18.5,5.7,23.7-4.7
	c1.3-2.6,0.3-2.1,3.3-2.8c11.5-2.7,16,6.8,18.2,15.9c0.9,4,1,5.6,3.3,8.2c-1.5,1.6-3.1,3-4.8,4.2c-1.9-3.1-1.6-4.9-1.7-9.1
	C148.2,90.7,145,81,133,81.9c-2.4,0.2-1.4,0-3.2,1.9c-8.9,8.9-18,3.2-25-4.1c-2.2-2.3-3.6-4.1-6.3-5.1c0.5-2.1,1.2-4.1,2.1-6
	c2.8,1.9,4,4.6,6.1,7.6c5.5,8.1,13.3,13.8,22.8,7.3c2.9-1.9,1.8-0.8,1.7-4.6c-0.4-11.7,9.9-14.2,19.2-14.6c3.3-0.1,5.4,0,7.9-1.3
	c-1.3-1.8-2.7-3.4-4.2-4.9c-2.8,2.1-6,2.3-9.6,3.3c-9.7,2.5-16.7,8-13.5,19.1c0.6,2,1.1,1.4-1.8,2.2c-12.4,3.4-17.3-6.2-19.7-16.2
	c-0.7-2.9-1-5-2.7-7.1c1.5-1.5,3.1-3,4.8-4.2c1.5,3.2,1.1,6.6,1.4,10.2c0.8,9.6,4.9,17.7,16.1,16.9c3.6-0.3,2-0.1,4.6-2.5
	c8.3-7.4,16.8-1.6,22.9,4.9c2.7,2.9,3.7,4.5,6.9,5.6c-0.5,2.1-1.2,4.1-2.1,6c-3.1-1.8-3.8-3.7-6-7.2c-5.3-8.3-12.8-14.8-22.7-8
	c-1.9,1.3-0.9,1.1-3.6,0.4c-12.4-3.2-11.8-13.8-8.9-23.7c0.8-2.8,1.7-4.9,1.3-7.5C122.5,50,123.6,49.7,124.7,49.5L124.7,49.5z
	 M140.4,114.5c-0.1-0.2-0.1-0.4-0.1-0.6c-0.8-4.2,3.6-12.3,3.1-19.4c-0.6-7.6-5-10.8-11.9-12.5l0.5,0.7c7.6,10.6,0.8,18.5-8.2,24.3
	c-3.4,2.2-5,2.8-6.7,5.8c1.9,0.9,3.9,1.6,6,2.1c1.1-3.4,3.2-4.8,5.8-7.4c6.8-6.5,12.2-15.4,4.3-23.8c-0.9-1-2.8-2.2-1-1.4
	c11.9,5.5,9.7,15.6,4.8,25c-1.9,3.7-2.9,4.9-2.8,8.3c1-0.1,2.1-0.2,3.1-0.4S139.3,114.8,140.4,114.5z"/>
<path class="st11" d="M124.7,49.5c1-0.2,2-0.3,3-0.4c-0.2,2-0.9,3.8-1.8,5.5l-1.7,0.7c-1.2,0.5-2.5,1-3.7,1.6c0.7-2.3,1.3-4.2,1-6.5
	C122.5,50,123.6,49.7,124.7,49.5L124.7,49.5z M105,103.4c-0.4-0.6-0.9-1.1-1.3-1.7c2.6-1.5,4.4-1.5,7.4-1.6c-0.1,1-0.5,2-1.3,2.6
	C108.4,103.7,106.6,103.9,105,103.4z M109.5,93.6c-0.7-0.2-1.5-0.4-2.2-0.6c-3.5-1-5.3-1.8-8.4-1.3c-0.3-1-0.6-2.1-0.8-3.2
	s-0.3-2.1-0.4-3.1c3.5,0.1,5.6,1.7,9,3.4l1,0.5C108.3,90.9,108.9,92.3,109.5,93.6z M106,80.9c-0.4-0.4-0.8-0.8-1.2-1.2
	c-2.2-2.3-3.6-4.1-6.3-5.1c0.5-2.1,1.2-4.1,2.1-6c2.7,1.8,3.9,4.3,5.7,7.1C106,77.4,105.9,79.1,106,80.9L106,80.9z M109.5,66.8
	c0-0.1,0-0.2-0.1-0.3c-0.7-2.9-1-5-2.7-7.1c1.5-1.5,3.1-3,4.8-4.2c0.9,2.3,1.4,4.8,1.3,7.2C111.6,63.7,110.4,65.2,109.5,66.8
	L109.5,66.8z"/>
<path class="st8" d="M103.7,67c-1.1,2.1-2.1,4.3-2.8,6.5c-1,3.1-1.4,6.3-1.3,9.6c0.1,3.4,0.7,6.8,1.7,10c0.8,2.6,1.7,4.1,2.3,4.6
	s1,0.1,0.6-1.6c-0.8-2.7-1.5-5.4-2-8.2c-0.5-3.8-0.6-7.6-0.2-11.4c0.3-2.6,1-5.2,1.9-7.7c0.4-1,0.7-2,0.9-3.1
	C104.8,65.3,104.4,65.6,103.7,67z"/>
<path class="st8" d="M162.2,89c-0.4,2.1-1.1,4.1-1.9,6.1c-1,2.2-2.3,4.3-3.8,6.2c-1.3,1.8-2.8,3.5-4.4,5.1c-0.9,1-2,1.8-3.2,2.3
	c-0.7,0.2-0.8-0.1,0.3-1.4s3.5-3.7,5.5-6.3c1.8-2.4,3.4-4.9,4.8-7.6c1.1-2.2,1.7-3.7,2.1-4.6S162.4,87.8,162.2,89z"/>
<path class="st8" d="M106.9,61.6c-0.4,0.5-0.7,1-0.8,1.6c-0.1,0.4,0.1,0.5,0.4,0.3c0.5-0.4,0.9-0.9,1.3-1.5c0.4-0.6,0.8-1.2,1.2-1.8
	c0.2-0.4-0.1-0.5-0.5-0.2C107.8,60.4,107.3,61,106.9,61.6z"/>
<path class="st12" d="M121.4,65.1c-1.4,6.4,0.2,12.3,7.8,15.9c3.4,1.6,1.6,1.3,3.9-2.6c3.8-6.2,9.5-6.9,15.1-5.4
	c-0.6-1.1-1.3-2.2-2.2-3.2c-6.6-0.3-12.2,2.2-14.4,10.7c-0.5,2.1,0.1,2.1-2.1-0.1c-6.1-6-5.4-12-2-17.4c1.2-0.2,2.5-0.3,3.7-0.3
	c-4.3,4.7-5.9,10.6-1.3,17.4c1.6,2.4,1.6,2.1,2.2,5.1c1.6,7.9-2.7,12.7-8.6,15.5c-1.1-0.5-2.3-1-3.3-1.7c7.1-1.9,12.1-6.4,11.1-16.1
	c-0.2-2-0.3,0.3-0.7,1.6c-2.4,8.4-8.5,10.7-15.3,10.2c-0.8-1-1.4-2-2-3.1c6.6,1.6,13,0.4,16.9-7.3c1.3-2.6,0.3-2.1,3.3-2.8
	c8.1-1.9,12.8,2.3,15.6,8.2c-0.5,1.2-1,2.3-1.7,3.4c-1.7-6.6-5.7-11.7-14.6-11c-2.4,0.2-1.4,0-3.2,1.9c-6.3,6.2-12.6,5.2-18.3,1.6
	c-0.2-1.2-0.3-2.4-0.2-3.7c4.9,4.6,11,6.5,18.2,1.7c2.9-1.9,1.8-0.8,1.7-4.6c-0.3-7.9,4.2-11.6,10.1-13.3c-1.1-0.7-2.3-1.2-3.5-1.7
	c-5.9,3.1-9.2,8.3-6.8,16.6c0.6,2,1.1,1.4-1.8,2.2c-8.5,2.3-13.5-1.5-16.5-7.3c0.4-1.1,1-2.2,1.6-3.3c2,6.3,6.4,10.8,14.8,10.1
	c3.6-0.3,2-0.1,4.6-2.5c5.8-5.2,11.6-3.9,16.8-0.5c0.2,1.3,0.3,2.5,0.2,3.8c-4.7-4.8-10.7-6.9-17.9-2c-1.9,1.3-0.9,1.1-3.6,0.4
	c-8.4-2.2-10.9-7.8-10.7-14.2C119.3,66.4,120.3,65.7,121.4,65.1L121.4,65.1z M143.2,97.8c0.1-1.1,0.1-2.2,0.1-3.3
	c-0.6-7.6-5-10.8-11.9-12.5l0.5,0.7c5.7,7.9,3.4,14.2-1.9,19.4c1.3,0.1,2.5,0,3.8-0.2c3.8-5.6,5.2-12-0.6-18.2c-0.9-1-2.8-2.2-1-1.4
	c8.7,4,9.8,10.6,7.9,17.5C141.1,99.3,142.2,98.6,143.2,97.8z"/>
<circle class="st4" cx="126.5" cy="134.3" r="33.4"/>
<path class="st5" d="M120.3,101.4c2.7-0.5,5.4-0.7,8.1-0.6c0.8,0.8,0.6,1.9-0.7,2.9c-1.6,1.2-4.8,2.2-8,3.4c-3.5,1.2-6.7,3-9.6,5.4
	c-3.4,3-6,6.9-7.4,11.2c-1.4,4.5-1.6,9.4-0.6,14c1,4.3,3,7.6,3.9,10.4s0.9,5.2-0.7,6.5c-1.4,0.9-3.2,1.2-4.8,0.7
	c-11.6-14.4-9.4-35.4,4.9-47C109.8,104.8,114.9,102.5,120.3,101.4L120.3,101.4z"/>
<path class="st13" d="M120.3,101.4c1-0.2,2-0.3,3-0.4c-0.3,3.4-2.4,6.2-3.9,9.5c-4.2,8.7-4.6,17.7,5.4,22.5c3.4,1.6,1.6,1.3,4-2.6
	c5.6-9.3,15.6-6.2,23.2-2.1c3.2,1.7,4.8,2.9,7.9,2.9c-0.1-1-0.2-2.1-0.4-3.1s-0.5-2.2-0.8-3.2c-3.4,0.5-5.7-0.6-9.3-1.7
	c-9.6-2.8-19-2.3-21.9,9.3c-0.5,2,0.1,2.1-2.1-0.1c-9.1-9-3.2-17.8,4.2-24.7c2.1-2,3.9-3.4,4.9-5.8c2.1,0.5,4.1,1.2,6,2.1
	c-2,2.9-5,4.2-8.1,6.2c-7.9,5.3-13,12.8-6.7,21.9c1.6,2.4,1.6,2.1,2.2,5.1c2.3,11.1-7.1,15.9-16,18.1c-3.9,1-5.7,1.1-8.3,3.3
	c-1.5-1.5-3-3.1-4.2-4.8c3-1.7,4.9-1.4,8.8-1.7c10.9-0.6,20.2-4.2,19-17.3c-0.2-2-0.3,0.3-0.7,1.6c-3.3,11.8-14,11.4-23.5,8.7
	c-3.5-1-5.3-1.8-8.4-1.3c-0.3-1-0.6-2.1-0.8-3.2s-0.3-2.1-0.4-3.1c3.5,0.1,5.6,1.7,9,3.4c8.7,4.3,18.5,5.7,23.7-4.7
	c1.3-2.6,0.3-2.1,3.3-2.9c11.5-2.7,16.1,6.8,18.2,15.9c0.9,4,1,5.6,3.3,8.1c-1.5,1.6-3.1,3-4.8,4.2c-1.9-3.1-1.5-4.9-1.7-9.1
	c-0.4-9.8-3.6-19.5-15.6-18.6c-2.4,0.2-1.4,0.1-3.3,1.9c-8.9,8.9-18,3.2-25-4.1c-2.3-2.3-3.6-4-6.3-5.1c0.5-2.1,1.2-4.1,2.1-6
	c2.8,1.9,4,4.6,6.1,7.6c5.4,8.1,13.2,13.8,22.8,7.3c2.9-1.9,1.8-0.8,1.7-4.6c-0.4-11.7,9.9-14.2,19.2-14.6c3.2-0.1,5.4,0,7.9-1.3
	c-1.2-1.7-2.7-3.4-4.2-4.8c-2.8,2.1-6,2.3-9.6,3.3c-9.7,2.5-16.7,8-13.5,19.1c0.6,2,1.1,1.4-1.8,2.2c-12.4,3.4-17.3-6.2-19.7-16.2
	c-0.7-2.9-1-5-2.7-7.1c1.5-1.5,3.1-2.9,4.8-4.2c1.5,3.2,1.1,6.6,1.4,10.2c0.8,9.6,4.9,17.7,16.1,16.9c3.6-0.3,2-0.1,4.6-2.5
	c8.3-7.4,16.8-1.6,22.9,4.9c2.7,2.9,3.7,4.5,6.9,5.6c-0.5,2.1-1.2,4.1-2.1,6.1c-3.1-1.8-3.8-3.7-6-7.2c-5.3-8.3-12.8-14.8-22.7-8
	c-1.9,1.3-0.9,1.1-3.7,0.4c-12.4-3.2-11.8-13.8-8.9-23.7c0.8-2.8,1.7-4.9,1.3-7.5C118.2,102,119.3,101.7,120.3,101.4L120.3,101.4z
	 M135.9,166.4c0-0.2-0.1-0.4-0.1-0.6c-0.8-4.1,3.6-12.3,3.1-19.4c-0.6-7.6-5-10.8-11.9-12.5l0.5,0.7c7.7,10.6,0.8,18.4-8.2,24.2
	c-3.4,2.2-5,2.8-6.7,5.9c1.9,0.9,3.9,1.6,6,2.1c1.1-3.4,3.2-4.8,5.8-7.4c6.8-6.5,12.2-15.4,4.3-23.8c-0.9-1-2.8-2.2-1-1.4
	c11.9,5.5,9.6,15.6,4.8,25c-1.9,3.7-2.9,4.9-2.8,8.3c1-0.1,2.1-0.2,3.1-0.4C133.9,166.9,134.9,166.7,135.9,166.4z"/>
<path class="st14" d="M120.3,101.4c1-0.2,2-0.3,3-0.4c-0.2,2-0.9,3.8-1.9,5.6l-1.7,0.7c-1.2,0.5-2.5,1-3.7,1.6
	c0.7-2.3,1.3-4.2,1-6.6C118.1,101.9,119.1,101.6,120.3,101.4L120.3,101.4z M100.6,155.3c-0.4-0.6-0.9-1.1-1.3-1.7
	c2.6-1.5,4.4-1.5,7.4-1.6c-0.1,1-0.5,2-1.3,2.6C103.9,155.6,102.2,155.9,100.6,155.3L100.6,155.3z M105,145.6
	c-0.7-0.2-1.4-0.4-2.2-0.6c-3.5-1-5.3-1.8-8.4-1.3c-0.3-1-0.6-2.1-0.8-3.2s-0.3-2.1-0.4-3.1c3.5,0.1,5.6,1.7,9,3.4
	c0.3,0.2,0.7,0.3,1,0.5C103.8,142.8,104.5,144.2,105,145.6z M101.5,132.8c-0.4-0.4-0.8-0.8-1.2-1.2c-2.3-2.3-3.6-4-6.3-5.1
	c0.5-2.1,1.2-4.1,2.1-6c2.7,1.8,3.9,4.3,5.7,7.1C101.6,129.3,101.5,131,101.5,132.8L101.5,132.8z M105,118.7c0-0.1,0-0.2-0.1-0.3
	c-0.7-2.9-1-5-2.7-7.1c1.5-1.5,3.1-2.9,4.8-4.2c0.9,2.3,1.3,4.8,1.3,7.2C107.1,115.6,106,117.1,105,118.7z"/>
<path class="st8" d="M99.2,118.9c-1.1,2.1-2.1,4.3-2.8,6.5c-1,3.1-1.4,6.3-1.3,9.6c0.1,3.4,0.7,6.8,1.7,10c0.8,2.6,1.7,4.1,2.3,4.6
	s1,0.1,0.6-1.6c-0.8-2.7-1.5-5.4-2-8.2c-0.5-3.8-0.6-7.6-0.2-11.4c0.3-2.6,1-5.2,1.9-7.7c0.4-1,0.7-2,0.9-3.1
	C100.4,117.2,100,117.5,99.2,118.9z"/>
<path class="st8" d="M157.7,141c-0.4,2.1-1,4.2-1.9,6.1c-1,2.2-2.3,4.3-3.8,6.2c-1.3,1.8-2.8,3.5-4.4,5.1c-0.9,1-2,1.8-3.2,2.3
	c-0.7,0.2-0.8-0.1,0.3-1.4s3.5-3.7,5.5-6.3c1.8-2.4,3.4-4.9,4.8-7.6c1.1-2.2,1.7-3.7,2.1-4.6S157.9,139.8,157.7,141z"/>
<path class="st8" d="M102.4,113.5c-0.4,0.5-0.7,1-0.8,1.6c-0.1,0.4,0.1,0.5,0.4,0.3c0.5-0.4,0.9-0.9,1.3-1.5
	c0.4-0.6,0.8-1.2,1.2-1.8c0.1-0.4-0.1-0.5-0.5-0.2C103.4,112.3,102.9,112.9,102.4,113.5z"/>
<path class="st15" d="M117,117c-1.4,6.4,0.3,12.3,7.8,15.9c3.4,1.6,1.6,1.3,4-2.6c3.7-6.2,9.4-6.9,15.1-5.4
	c-0.6-1.1-1.3-2.2-2.2-3.2c-6.6-0.3-12.2,2.2-14.3,10.7c-0.5,2,0.1,2.1-2.1-0.1c-6.1-6-5.4-12-2-17.4c1.2-0.2,2.5-0.3,3.7-0.3
	c-4.3,4.7-5.9,10.6-1.3,17.4c1.6,2.4,1.6,2.1,2.2,5.1c1.6,7.9-2.7,12.7-8.6,15.5c-1.1-0.5-2.2-1-3.3-1.7c7.1-1.9,12-6.4,11.1-16.1
	c-0.2-2-0.3,0.3-0.7,1.6c-2.4,8.4-8.5,10.7-15.3,10.2c-0.8-1-1.4-2-2-3.1c6.6,1.6,13,0.4,16.8-7.3c1.3-2.6,0.3-2.1,3.3-2.8
	c8.1-1.9,12.8,2.3,15.6,8.2c-0.5,1.2-1,2.3-1.7,3.4c-1.7-6.6-5.7-11.7-14.6-11c-2.4,0.2-1.4,0.1-3.3,1.9c-6.2,6.2-12.6,5.3-18.2,1.6
	c-0.2-1.2-0.3-2.4-0.2-3.7c4.9,4.6,11,6.5,18.1,1.7c2.9-2,1.8-0.8,1.7-4.6c-0.3-7.9,4.2-11.6,10.1-13.3c-1.1-0.7-2.3-1.2-3.5-1.7
	c-5.9,3.1-9.2,8.3-6.8,16.6c0.6,2,1.1,1.4-1.8,2.2c-8.5,2.3-13.5-1.5-16.5-7.3c0.4-1.1,1-2.2,1.6-3.3c2,6.3,6.4,10.8,14.8,10.1
	c3.6-0.3,2-0.1,4.6-2.5c5.8-5.2,11.6-3.9,16.8-0.5c0.2,1.3,0.3,2.5,0.2,3.8c-4.7-4.8-10.7-6.9-17.9-1.9c-1.9,1.3-0.9,1.1-3.6,0.4
	c-8.4-2.2-10.9-7.8-10.7-14.2C115,118.3,116,117.6,117,117L117,117z M138.8,149.6c0.1-1.1,0.1-2.2,0.1-3.3
	c-0.6-7.6-5-10.9-11.9-12.5l0.5,0.7c5.7,7.9,3.4,14.2-1.9,19.4c1.3,0.1,2.5,0,3.8-0.2c3.8-5.6,5.2-12-0.6-18.1c-0.9-1-2.8-2.2-1-1.4
	c8.8,4,9.9,10.6,7.9,17.5C136.7,151.2,137.7,150.5,138.8,149.6L138.8,149.6z"/>
<circle class="st4" cx="115.4" cy="45.6" r="33.4"/>
<path class="st5" d="M109.2,12.8c2.7-0.5,5.4-0.7,8.1-0.5c0.8,0.8,0.7,1.9-0.7,2.9c-1.6,1.2-4.8,2.2-8,3.4c-3.5,1.2-6.8,3-9.6,5.4
	c-3.4,3-6,6.8-7.4,11.2c-1.4,4.5-1.6,9.4-0.6,14c1,4.3,3,7.6,4,10.4s0.9,5.2-0.7,6.5c-1.4,0.9-3.2,1.2-4.8,0.7
	c-11.6-14.4-9.4-35.4,5-47C98.7,16.1,103.8,13.8,109.2,12.8L109.2,12.8z"/>
<path class="st13" d="M109.2,12.8c1-0.2,2-0.3,3-0.4c-0.3,3.4-2.4,6.2-3.9,9.5c-4.2,8.6-4.6,17.6,5.4,22.4c3.4,1.6,1.6,1.3,3.9-2.6
	c5.6-9.3,15.6-6.2,23.2-2.1c3.2,1.7,4.8,2.8,7.9,2.9c-0.1-1-0.2-2.1-0.4-3.1s-0.5-2.2-0.8-3.2c-3.4,0.5-5.7-0.6-9.3-1.7
	c-9.6-2.8-19.1-2.3-22,9.2c-0.5,2.1,0.1,2.1-2.1-0.1c-9.1-8.9-3.1-17.8,4.3-24.7c2.1-2,3.8-3.4,4.9-5.8c2.1,0.5,4.1,1.2,6,2.1
	c-2,2.9-5,4.2-8.1,6.2c-7.9,5.3-13,12.8-6.7,21.9c1.6,2.4,1.6,2.1,2.2,5.1c2.3,11.1-7.1,15.9-16.1,18.1c-3.8,1-5.7,1.1-8.3,3.3
	c-1.5-1.5-2.9-3.1-4.1-4.8c2.9-1.7,4.9-1.5,8.8-1.7c10.9-0.6,20.2-4.2,19-17.3c-0.2-2-0.3,0.3-0.7,1.5c-3.3,11.8-14,11.5-23.5,8.7
	c-3.5-1-5.3-1.8-8.4-1.3c-0.3-1.1-0.6-2.1-0.8-3.2c-0.2-1-0.3-2-0.4-3.1c3.5,0.1,5.6,1.7,9,3.4c8.7,4.3,18.5,5.7,23.7-4.7
	c1.3-2.6,0.3-2.1,3.3-2.8c11.5-2.8,16,6.8,18.2,15.9c0.9,4,1,5.6,3.3,8.2c-1.5,1.5-3.1,3-4.8,4.2c-1.9-3.1-1.6-4.9-1.7-9.2
	c-0.4-9.8-3.6-19.5-15.6-18.6c-2.4,0.2-1.4,0-3.2,1.9c-8.9,8.9-18,3.2-25-4.1c-2.3-2.3-3.6-4-6.3-5.1c0.5-2.1,1.2-4.1,2.1-6
	c2.8,1.9,4,4.6,6.1,7.6c5.4,8.1,13.3,13.8,22.8,7.3c2.9-2,1.8-0.8,1.7-4.6c-0.4-11.7,9.9-14.3,19.2-14.6c3.3-0.1,5.4,0,7.9-1.3
	c-1.3-1.7-2.7-3.4-4.2-4.9c-2.8,2.1-5.9,2.3-9.6,3.3c-9.7,2.5-16.7,8-13.5,19.1c0.6,2,1.2,1.4-1.8,2.2c-12.4,3.4-17.3-6.2-19.7-16.2
	c-0.7-2.9-1-5-2.7-7.1c1.5-1.6,3-3,4.8-4.2c1.5,3.2,1.1,6.6,1.4,10.2c0.8,9.6,4.9,17.7,16.1,16.9c3.6-0.3,2-0.1,4.6-2.5
	c8.3-7.4,16.8-1.6,23,4.9c2.7,2.8,3.7,4.5,6.9,5.6c-0.5,2.1-1.2,4.1-2.1,6.1c-3.1-1.8-3.8-3.7-6-7.2c-5.3-8.3-12.8-14.8-22.7-8
	c-1.9,1.3-0.9,1.1-3.6,0.4c-12.4-3.2-11.8-13.8-8.9-23.6c0.8-2.8,1.7-4.9,1.3-7.5C107.1,13.3,108.2,13,109.2,12.8L109.2,12.8z
	 M124.8,77.7c0-0.2-0.1-0.4-0.1-0.6c-0.8-4.2,3.6-12.3,3.1-19.4c-0.6-7.6-5-10.8-11.9-12.5l0.5,0.7c7.7,10.6,0.8,18.4-8.2,24.2
	c-3.4,2.2-5,2.8-6.7,5.8c1.9,0.9,3.9,1.6,6,2.1c1.1-3.4,3.2-4.8,5.8-7.4c6.8-6.5,12.2-15.4,4.3-23.8c-0.9-1-2.8-2.2-1-1.3
	c11.9,5.5,9.7,15.6,4.8,25c-1.9,3.7-2.9,4.9-2.8,8.3c1-0.1,2.1-0.2,3.1-0.4C122.7,78.3,123.8,78,124.8,77.7z"/>
<path class="st14" d="M109.2,12.8c1-0.2,2-0.3,3-0.4c-0.2,2-0.9,3.8-1.9,5.5l-1.7,0.7c-1.2,0.5-2.5,1-3.7,1.6c0.7-2.3,1.3-4.2,1-6.5
	C106.9,13.2,108,13,109.2,12.8L109.2,12.8z M89.4,66.7c-0.4-0.5-0.9-1.1-1.3-1.7c2.6-1.5,4.4-1.5,7.4-1.6c-0.1,1-0.5,2-1.3,2.6
	C92.8,66.9,91.1,67.2,89.4,66.7z M93.9,56.9c-0.7-0.2-1.4-0.4-2.2-0.6c-3.5-1-5.3-1.8-8.4-1.3c-0.3-1.1-0.6-2.1-0.8-3.2
	c-0.2-1-0.3-2-0.4-3.1c3.5,0.1,5.6,1.7,9,3.4l1,0.5C92.7,54.2,93.4,55.6,93.9,56.9z M90.4,44.1c-0.4-0.4-0.8-0.8-1.2-1.2
	c-2.3-2.3-3.6-4-6.3-5.1c0.5-2.1,1.2-4.1,2.1-6c2.7,1.8,3.9,4.3,5.7,7.1C90.5,40.6,90.4,42.4,90.4,44.1L90.4,44.1z M93.9,30
	c0-0.1,0-0.2-0.1-0.3c-0.7-2.9-1-5-2.7-7.1c1.5-1.5,3.1-2.9,4.8-4.2c0.9,2.3,1.4,4.8,1.3,7.2C96,27,94.9,28.4,93.9,30z"/>
<path class="st8" d="M88.1,30.2c-1.1,2.1-2.1,4.3-2.8,6.5c-1,3.1-1.4,6.3-1.4,9.6c0.1,3.4,0.7,6.8,1.7,10c0.8,2.6,1.7,4.1,2.3,4.6
	s1,0.1,0.6-1.6c-0.8-2.7-1.5-5.4-2-8.2c-0.5-3.8-0.6-7.6-0.2-11.4c0.3-2.6,1-5.2,1.9-7.7c0.4-1,0.7-2,0.9-3.1
	C89.3,28.6,88.9,28.9,88.1,30.2z"/>
<path class="st8" d="M146.6,52.3c-0.4,2.1-1.1,4.1-1.9,6.1c-1,2.2-2.3,4.3-3.7,6.2c-1.3,1.8-2.8,3.4-4.4,5c-0.9,1-2.1,1.8-3.3,2.4
	c-0.7,0.2-0.8-0.1,0.3-1.4s3.5-3.7,5.5-6.3c1.8-2.3,3.4-4.9,4.8-7.5c1.1-2.2,1.7-3.8,2.1-4.6S146.8,51.1,146.6,52.3z"/>
<path class="st8" d="M91.3,24.8c-0.4,0.5-0.7,1-0.8,1.6c-0.1,0.4,0.1,0.5,0.4,0.3c0.5-0.4,0.9-1,1.3-1.5c0.5-0.6,0.8-1.2,1.2-1.8
	c0.1-0.4-0.1-0.5-0.5-0.1C92.3,23.7,91.8,24.2,91.3,24.8z"/>
<path class="st15" d="M105.9,28.4c-1.4,6.4,0.3,12.3,7.8,15.9c3.4,1.6,1.6,1.3,4-2.6c3.7-6.2,9.4-6.9,15.1-5.4
	c-0.6-1.2-1.4-2.2-2.2-3.3c-6.6-0.3-12.2,2.2-14.3,10.7c-0.5,2.1,0.1,2.1-2.1-0.1c-6.1-6-5.4-12-2-17.4c1.2-0.2,2.5-0.3,3.7-0.3
	c-4.3,4.7-5.9,10.6-1.3,17.4c1.6,2.4,1.6,2.1,2.2,5.1c1.6,8-2.7,12.7-8.6,15.5c-1.1-0.5-2.2-1-3.3-1.7c7.1-1.9,12.1-6.4,11.1-16.1
	c-0.2-2-0.3,0.3-0.7,1.5c-2.4,8.5-8.5,10.7-15.3,10.2c-0.8-1-1.4-2-2-3.1c6.6,1.6,13,0.4,16.9-7.3c1.3-2.6,0.3-2.1,3.3-2.8
	c8.1-2,12.8,2.3,15.6,8.2c-0.5,1.2-1.1,2.3-1.8,3.4c-1.7-6.6-5.7-11.7-14.6-11c-2.4,0.2-1.4,0-3.3,1.9c-6.2,6.2-12.6,5.3-18.2,1.6
	c-0.2-1.2-0.3-2.5-0.2-3.7c4.9,4.6,11,6.5,18.1,1.7c2.9-2,1.8-0.8,1.7-4.6c-0.3-7.9,4.2-11.6,10.1-13.3c-1.1-0.7-2.3-1.2-3.5-1.7
	c-5.9,3.1-9.2,8.3-6.8,16.6c0.6,2,1.1,1.4-1.8,2.2c-8.5,2.3-13.5-1.5-16.5-7.3c0.4-1.1,1-2.2,1.6-3.3c2,6.3,6.4,10.8,14.8,10.1
	c3.6-0.3,2-0.1,4.6-2.5c5.8-5.2,11.6-3.9,16.8-0.5c0.2,1.3,0.3,2.5,0.2,3.8c-4.7-4.8-10.7-6.9-17.9-2c-1.9,1.3-0.9,1.1-3.7,0.4
	c-8.4-2.2-10.9-7.8-10.6-14.3C103.8,29.6,104.8,28.9,105.9,28.4L105.9,28.4z M127.6,61c0.1-1.1,0.1-2.2,0.1-3.3
	c-0.6-7.6-5-10.8-11.9-12.5l0.5,0.7c5.7,7.9,3.4,14.2-1.9,19.4c1.3,0.1,2.5,0,3.8-0.2c3.8-5.5,5.2-12-0.6-18.2c-0.9-1-2.8-2.2-1-1.3
	c8.7,4,9.8,10.6,7.8,17.5C125.6,62.5,126.6,61.8,127.6,61z"/>
<circle class="st4" cx="56.8" cy="80.1" r="33.4"/>
<path class="st5" d="M56.3,46.7c2.7,0,5.4,0.2,8.1,0.9c0.6,1,0.3,2-1.2,2.7c-1.7,0.9-5.1,1.3-8.5,2c-3.6,0.6-7.1,1.8-10.3,3.6
	c-3.9,2.4-7.1,5.7-9.2,9.7c-2.2,4.2-3.2,9-3,13.7c0.2,4.3,1.6,8,2,10.9s0,5.3-1.8,6.3c-1.6,0.7-3.3,0.6-4.8-0.2
	c-9-16.2-3.1-36.5,13-45.5C45.4,48.2,50.8,46.8,56.3,46.7z"/>
<path class="st13" d="M56.3,46.7c1,0,2,0,3,0.1c-0.9,3.3-3.4,5.8-5.5,8.7c-5.6,7.8-7.6,16.6,1.5,23c3,2.2,1.3,1.6,4.3-1.9
	c7.1-8.2,16.4-3.4,23.2,1.9c2.8,2.2,4.2,3.6,7.3,4.2c0.1-1,0.1-2.1,0.1-3.1s-0.1-2.2-0.2-3.3c-3.5,0-5.5-1.6-8.9-3.3
	c-8.9-4.4-18.3-5.5-23.1,5.4c-0.9,1.9-0.2,2.1-2.1-0.4c-7.4-10.4,0-18.1,8.4-23.6c2.5-1.6,4.4-2.7,5.8-4.9c2,0.8,3.8,1.9,5.6,3.1
	c-2.4,2.5-5.7,3.2-9,4.7C58,61.1,51.7,67.6,56.3,77.7c1.2,2.6,1.2,2.3,1.3,5.4c0.3,11.3-9.7,14.4-19,15.1c-4,0.3-5.8,0.1-8.7,1.8
	c-1.3-1.7-2.4-3.5-3.3-5.5c3.2-1.2,5.1-0.6,9-0.1c10.8,1.3,20.6-0.7,21.6-13.7c0.2-2-0.4,0.2-0.9,1.4c-5.3,11.1-15.7,8.9-24.6,4.5
	c-3.3-1.6-4.9-2.7-8.1-2.7c-0.1-1.1-0.2-2.2-0.2-3.3c0-1,0-2.1,0.1-3.1c3.4,0.7,5.2,2.6,8.3,4.9c7.8,5.7,17.3,8.8,24.2-0.6
	c1.7-2.3,0.7-2,3.8-2.2c11.8-0.7,14.6,9.4,15.2,18.8c0.2,4.1,0,5.7,1.8,8.6c-1.7,1.3-3.6,2.4-5.5,3.3c-1.3-3.4-0.7-5-0.1-9.3
	c1.3-9.7-0.2-19.8-12.2-21c-2.4-0.2-1.4-0.2-3.5,1.3c-10.3,7.2-18.3,0-23.9-8.4c-1.8-2.7-2.8-4.6-5.3-6.1c0.9-2,1.9-3.8,3.1-5.6
	c2.5,2.3,3.2,5.2,4.7,8.5c4,8.9,10.7,15.9,21.2,11.2c3.2-1.4,2-0.5,2.5-4.2C59.2,65,69.8,64.3,79,65.6c3.2,0.4,5.3,1,8,0.1
	c-0.9-1.9-2-3.8-3.3-5.5c-3.1,1.6-6.3,1.2-10,1.5c-10,0.8-17.8,5-16.6,16.5c0.2,2.1,0.9,1.6-2.2,1.9C42.1,81.3,39,71,38.3,60.7
	c-0.2-3-0.2-5.1-1.4-7.5c1.7-1.2,3.5-2.3,5.5-3.2c0.9,3.4,0,6.7-0.4,10.3c-0.9,9.6,1.8,18.3,12.9,19.4c3.6,0.3,2,0.2,5-1.7
	c9.4-5.9,16.8,1.3,21.8,8.8c2.1,3.3,2.9,5,5.8,6.7c-0.9,2-1.9,3.8-3.1,5.6c-2.7-2.3-3.1-4.3-4.7-8.1c-3.8-9.1-10-16.8-21-11.8
	c-2.1,0.9-1.1,0.9-3.7-0.3c-11.6-5.3-9.3-15.7-4.7-24.8c1.3-2.6,2.5-4.5,2.6-7.2C54.1,46.8,55.2,46.7,56.3,46.7L56.3,46.7z
	 M60.5,113.3c0-0.2,0-0.4,0-0.6c-0.1-4.2,5.7-11.4,6.4-18.6c0.7-7.6-3.1-11.5-9.5-14.3l0.3,0.7c5.7,11.8-2.3,18.3-12.2,22.5
	c-3.7,1.6-5.4,1.9-7.6,4.6c1.8,1.2,3.6,2.2,5.6,3.1c1.7-3.1,4-4.2,7-6.3c7.8-5.3,14.7-13,8.3-22.7c-0.7-1.1-2.4-2.6-0.7-1.5
	c10.7,7.4,6.8,17,0.4,25.4c-2.5,3.3-3.7,4.3-4.2,7.7c1,0.1,2.1,0.1,3.2,0.1S59.5,113.5,60.5,113.3z"/>
<path class="st14" d="M56.3,46.7c1,0,2,0,3,0.1c-0.6,1.9-1.5,3.6-2.8,5.1l-1.8,0.3c-1.3,0.3-2.6,0.5-3.9,0.9
	c1.2-2.2,2.1-3.9,2.2-6.3C54.1,46.8,55.2,46.7,56.3,46.7z M27.6,96.4c-0.3-0.6-0.7-1.2-1-1.9c2.8-1,4.6-0.7,7.6-0.3
	c-0.2,1-0.9,1.8-1.8,2.3C30.8,97.2,29.1,97.2,27.6,96.4L27.6,96.4z M33.7,87.5c-0.7-0.3-1.4-0.6-2-0.9c-3.3-1.6-4.9-2.7-8.1-2.7
	c-0.1-1.1-0.2-2.2-0.2-3.3c0-1,0-2.1,0.1-3.1c3.4,0.7,5.2,2.6,8.3,4.9l0.9,0.6C33,84.6,33.4,86.1,33.7,87.5z M32.5,74.3
	c-0.3-0.5-0.7-0.9-1-1.4c-1.8-2.7-2.8-4.6-5.3-6.1c0.9-2,1.9-3.8,3.1-5.6c2.3,2.2,3.1,4.9,4.4,8C33.1,70.9,32.7,72.6,32.5,74.3
	L32.5,74.3z M38.3,61c0-0.1,0-0.2,0-0.3c-0.2-3-0.2-5.1-1.4-7.5c1.7-1.2,3.5-2.3,5.4-3.2c0.5,2.4,0.5,4.9,0,7.3
	C40.9,58.4,39.5,59.7,38.3,61z"/>
<path class="st8" d="M32.6,60.2c-1.5,1.9-2.8,3.9-3.9,6c-1.5,2.9-2.5,6-3,9.2c-0.4,3.4-0.4,6.8,0,10.2c0.4,2.8,1,4.3,1.5,4.9
	s0.9,0.2,0.9-1.5c-0.3-2.8-0.5-5.6-0.6-8.4c0.1-3.8,0.7-7.6,1.8-11.3c0.8-2.5,1.9-4.9,3.2-7.2c0.6-0.9,1.1-1.9,1.4-2.9
	C34,58.8,33.6,59,32.6,60.2z"/>
<path class="st8" d="M86.4,92.1c-0.8,2-1.8,3.9-2.9,5.7c-1.4,2-3,3.9-4.8,5.5c-1.6,1.5-3.3,3-5.2,4.2c-1.1,0.8-2.3,1.4-3.6,1.7
	c-0.7,0.1-0.8-0.2,0.6-1.4s4.1-3,6.5-5.2c2.2-2,4.2-4.2,6-6.6c1.5-2,2.3-3.4,2.9-4.2S86.8,90.9,86.4,92.1z"/>
<path class="st8" d="M36.7,55.5c-0.4,0.4-0.8,0.9-1.1,1.4c-0.1,0.4,0,0.5,0.3,0.4c0.6-0.4,1.1-0.8,1.5-1.3c0.5-0.5,1-1,1.5-1.6
	c0.2-0.4,0-0.5-0.5-0.2C37.8,54.5,37.2,55,36.7,55.5z"/>
<path class="st15" d="M50.4,61.5c-2.5,6-1.9,12.2,4.9,17c3,2.2,1.3,1.6,4.3-1.9c4.8-5.5,10.5-5.2,15.8-2.7c-0.4-1.2-0.9-2.4-1.6-3.5
	c-6.5-1.5-12.4,0.1-16,8c-0.9,1.9-0.2,2.1-2.1-0.4c-5-7-3.3-12.8,1-17.5c1.2,0,2.5,0.1,3.7,0.3c-5.1,3.9-7.7,9.4-4.3,16.9
	c1.2,2.6,1.2,2.3,1.3,5.3c0.2,8.1-4.8,12-11.1,13.8c-1.1-0.7-2-1.4-3-2.2c7.3-0.7,13-4.2,13.7-14c0.2-2-0.4,0.2-0.9,1.4
	c-3.8,7.9-10.2,9-16.8,7.5c-0.6-1.1-1.1-2.2-1.5-3.4c6.2,2.8,12.8,2.7,17.9-4.3c1.7-2.3,0.7-2,3.8-2.2C68,79,71.9,84,73.7,90.2
	c-0.7,1.1-1.4,2.1-2.3,3c-0.6-6.7-3.7-12.4-12.5-13.2c-2.4-0.2-1.4-0.2-3.5,1.3c-7.2,5-13.3,3-18.2-1.5c0-1.2,0.2-2.4,0.4-3.7
	c4,5.4,9.8,8.3,17.6,4.8c3.2-1.4,2-0.5,2.5-4.2c1.1-7.8,6.2-10.7,12.2-11.4c-1-0.9-2-1.6-3.2-2.2c-6.3,2.1-10.5,6.6-9.5,15.2
	c0.2,2.1,0.9,1.6-2.2,1.9c-8.8,0.8-13-3.8-15-10.1c0.6-1.1,1.3-2.1,2.2-3c0.9,6.6,4.5,11.7,12.9,12.6c3.6,0.3,2,0.2,5-1.7
	c6.6-4.1,12.1-1.9,16.6,2.4c0,1.3-0.2,2.5-0.4,3.8c-3.8-5.5-9.3-8.7-17.3-5c-2.1,0.9-1.1,0.9-3.7-0.3c-7.9-3.6-9.4-9.6-8-15.9
	C48.1,62.4,49.3,61.9,50.4,61.5L50.4,61.5z M66.2,97.4c0.3-1.1,0.5-2.1,0.6-3.2c0.7-7.6-3-11.6-9.5-14.3l0.3,0.7
	c4.2,8.8,0.9,14.6-5.2,18.8c1.2,0.3,2.5,0.4,3.7,0.5c4.7-4.8,7.2-10.9,2.5-18c-0.7-1.1-2.4-2.6-0.7-1.5c7.9,5.5,7.9,12.1,4.7,18.6
	C63.9,98.5,65.1,98,66.2,97.4z"/>
<circle class="st4" cx="95.4" cy="103.1" r="33.4"/>
<path class="st5" d="M89.2,70.2c2.7-0.5,5.4-0.7,8.1-0.6c0.8,0.8,0.7,1.9-0.7,2.9c-1.6,1.2-4.8,2.2-8,3.4c-3.5,1.2-6.8,3-9.6,5.4
	c-3.4,3-6,6.9-7.4,11.2c-1.4,4.5-1.6,9.4-0.6,14c1,4.2,2.9,7.6,3.9,10.4s0.9,5.2-0.7,6.5c-1.4,0.9-3.2,1.2-4.8,0.7
	c-11.6-14.4-9.4-35.4,5-47C78.7,73.6,83.8,71.2,89.2,70.2L89.2,70.2z"/>
<path class="st6" d="M89.2,70.2c1-0.2,2-0.3,3-0.4c-0.3,3.5-2.4,6.3-3.9,9.5c-4.2,8.7-4.6,17.7,5.4,22.4c3.4,1.6,1.6,1.3,4-2.6
	c5.6-9.3,15.6-6.2,23.2-2.1c3.2,1.7,4.8,2.8,7.9,2.9c-0.1-1-0.2-2.1-0.4-3.1s-0.5-2.2-0.8-3.2c-3.4,0.5-5.7-0.6-9.3-1.7
	c-9.6-2.8-19-2.3-22,9.3c-0.5,2,0.1,2.1-2.1-0.1C85,92.1,91,83.3,98.3,76.3c2.2-2,3.9-3.4,4.9-5.8c2.1,0.5,4.1,1.2,6,2.1
	c-2,2.9-5,4.2-8.1,6.2c-7.9,5.3-13,12.8-6.7,21.9c1.6,2.4,1.6,2.1,2.2,5.1c2.4,11.1-7,15.9-16,18.2c-3.8,1-5.7,1.1-8.3,3.3
	c-1.6-1.5-3-3.1-4.2-4.8c3-1.7,4.9-1.4,8.8-1.7c10.9-0.6,20.2-4.2,19-17.3c-0.2-2-0.3,0.3-0.7,1.6c-3.3,11.8-14,11.4-23.5,8.7
	c-3.5-1-5.3-1.8-8.4-1.2c-0.3-1-0.6-2.1-0.8-3.2s-0.3-2-0.4-3.1c3.5,0.1,5.6,1.7,9,3.4c8.7,4.3,18.5,5.7,23.7-4.7
	c1.3-2.6,0.3-2.1,3.3-2.8c11.5-2.8,16,6.8,18.2,15.9c0.9,4,1,5.6,3.3,8.2c-1.5,1.5-3.1,3-4.8,4.2c-1.9-3.1-1.6-4.9-1.7-9.1
	c-0.4-9.8-3.6-19.5-15.6-18.6c-2.4,0.2-1.4,0.1-3.2,1.9c-8.9,8.9-18,3.2-25-4.1c-2.3-2.3-3.6-4.1-6.3-5.1c0.5-2.1,1.2-4.1,2.1-6
	c2.8,1.9,4,4.6,6.1,7.6c5.4,8.1,13.2,13.8,22.8,7.3c2.9-2,1.8-0.8,1.7-4.6c-0.4-11.7,9.9-14.2,19.2-14.6c3.3-0.1,5.4,0,7.9-1.3
	c-1.2-1.7-2.7-3.4-4.2-4.8c-2.8,2.1-6,2.3-9.6,3.3c-9.7,2.5-16.7,8-13.4,19.1c0.6,2,1.1,1.4-1.8,2.2c-12.4,3.4-17.3-6.2-19.7-16.2
	c-0.7-2.9-1-5-2.7-7.1c1.5-1.6,3.1-3,4.8-4.3c1.5,3.2,1.1,6.6,1.4,10.2c0.8,9.6,4.9,17.7,16.1,16.9c3.6-0.3,2-0.1,4.6-2.5
	c8.3-7.4,16.8-1.6,22.9,4.9c2.7,2.9,3.7,4.5,6.9,5.6c-0.5,2.1-1.2,4.1-2.1,6c-3.1-1.8-3.8-3.7-6-7.2c-5.3-8.3-12.8-14.8-22.7-8
	c-1.9,1.3-0.9,1.1-3.6,0.4c-12.4-3.1-11.9-13.8-9-23.6c0.8-2.8,1.7-4.9,1.3-7.5C87,70.7,88.1,70.4,89.2,70.2z M104.8,135.2
	c-0.1-0.2-0.1-0.4-0.1-0.6c-0.8-4.1,3.6-12.3,3.1-19.4c-0.6-7.6-5-10.8-11.9-12.5l0.5,0.7c7.7,10.6,0.8,18.5-8.2,24.2
	c-3.4,2.2-5,2.8-6.7,5.8c1.9,0.9,3.9,1.6,6,2.1c1.1-3.4,3.2-4.8,5.8-7.4c6.8-6.5,12.2-15.4,4.3-23.8c-0.9-1-2.8-2.2-1-1.3
	c11.9,5.5,9.7,15.6,4.8,25c-1.9,3.7-2.9,4.9-2.8,8.3c1-0.1,2.1-0.2,3.1-0.4S103.8,135.5,104.8,135.2z"/>
<path class="st7" d="M89.2,70.2c1-0.2,2-0.3,3-0.4c-0.3,2-0.9,3.8-1.9,5.6L88.6,76c-1.2,0.5-2.5,1-3.7,1.6c0.7-2.3,1.3-4.2,1-6.6
	C86.9,70.7,88,70.4,89.2,70.2L89.2,70.2z M69.4,124.1c-0.4-0.5-0.9-1.1-1.3-1.7c2.6-1.5,4.4-1.5,7.4-1.6c-0.1,1-0.5,2-1.3,2.6
	C72.8,124.4,71,124.6,69.4,124.1z M73.9,114.3c-0.7-0.2-1.5-0.4-2.2-0.6c-3.5-1-5.3-1.8-8.4-1.2c-0.3-1-0.6-2.1-0.8-3.2
	s-0.3-2-0.4-3.1c3.5,0.1,5.6,1.7,9,3.4c0.3,0.2,0.7,0.3,1,0.5C72.7,111.6,73.3,113,73.9,114.3z M70.4,101.6
	c-0.4-0.4-0.8-0.8-1.2-1.2c-2.3-2.3-3.6-4.1-6.3-5.1c0.5-2.1,1.2-4.1,2.1-6c2.7,1.8,3.9,4.3,5.7,7.1C70.5,98.1,70.4,99.8,70.4,101.6
	L70.4,101.6z M73.9,87.5c0-0.1,0-0.2-0.1-0.3c-0.7-2.9-1-5-2.7-7.1c1.5-1.5,3.1-2.9,4.8-4.2c0.9,2.3,1.4,4.8,1.3,7.2
	C76,84.4,74.9,85.9,73.9,87.5z"/>
<path class="st8" d="M68.1,87.7c-1.1,2.1-2.1,4.3-2.8,6.5c-1,3.1-1.4,6.3-1.4,9.6c0.1,3.4,0.7,6.8,1.7,10c0.8,2.6,1.7,4.1,2.3,4.6
	s1,0.1,0.6-1.6c-0.8-2.7-1.5-5.4-2-8.2c-0.5-3.8-0.6-7.6-0.2-11.4c0.3-2.6,1-5.2,1.9-7.7c0.4-1,0.7-2,0.9-3.1
	C69.2,86,68.9,86.3,68.1,87.7z"/>
<path class="st8" d="M126.6,109.7c-0.4,2.1-1.1,4.1-1.9,6.1c-1,2.2-2.3,4.3-3.8,6.2c-1.3,1.8-2.8,3.5-4.3,5.1c-0.9,1-2,1.8-3.2,2.3
	c-0.7,0.2-0.8-0.1,0.3-1.4s3.5-3.7,5.5-6.3c1.8-2.4,3.5-4.9,4.8-7.6c1.1-2.2,1.7-3.7,2.1-4.6S126.8,108.5,126.6,109.7z"/>
<path class="st8" d="M71.3,82.3c-0.4,0.5-0.7,1-0.8,1.6c-0.1,0.4,0.1,0.5,0.4,0.3c0.5-0.5,0.9-1,1.3-1.5c0.4-0.6,0.8-1.2,1.2-1.8
	c0.2-0.4-0.1-0.5-0.5-0.2C72.2,81.1,71.7,81.7,71.3,82.3z"/>
<path class="st9" d="M85.9,85.8c-1.4,6.4,0.2,12.3,7.8,15.9c3.4,1.6,1.6,1.3,4-2.6c3.8-6.2,9.5-6.9,15.1-5.4
	c-0.6-1.1-1.3-2.2-2.2-3.2c-6.6-0.3-12.2,2.2-14.4,10.7c-0.5,2,0.1,2.1-2.1-0.1c-6.1-6-5.4-12-2-17.4c1.2-0.2,2.5-0.3,3.7-0.3
	c-4.3,4.7-5.9,10.6-1.3,17.4c1.6,2.4,1.6,2.1,2.2,5.1c1.6,7.9-2.7,12.7-8.6,15.5c-1.1-0.5-2.2-1-3.3-1.7c7.1-1.9,12.1-6.4,11.1-16.1
	c-0.2-2-0.3,0.3-0.7,1.6c-2.4,8.4-8.5,10.7-15.3,10.2c-0.8-1-1.4-2-2-3.1c6.6,1.6,13,0.4,16.8-7.3c1.3-2.6,0.3-2.1,3.3-2.8
	c8.1-1.9,12.8,2.3,15.6,8.2c-0.5,1.2-1,2.3-1.7,3.4c-1.7-6.6-5.7-11.7-14.6-11c-2.4,0.2-1.4,0.1-3.2,1.9c-6.2,6.2-12.6,5.3-18.2,1.6
	c-0.2-1.2-0.3-2.4-0.2-3.7c4.9,4.6,11,6.5,18.2,1.7c2.9-2,1.8-0.8,1.7-4.6c-0.3-7.9,4.2-11.6,10.1-13.3c-1.1-0.7-2.3-1.2-3.5-1.7
	c-5.9,3.1-9.2,8.3-6.8,16.6c0.6,2,1.2,1.4-1.8,2.2C85,105.7,80,101.9,77,96.1c0.4-1.1,1-2.2,1.6-3.3c2,6.3,6.4,10.8,14.8,10.1
	c3.6-0.3,2-0.1,4.6-2.5c5.8-5.2,11.7-3.9,16.8-0.5c0.2,1.3,0.3,2.5,0.2,3.8c-4.7-4.8-10.7-6.9-17.9-1.9c-1.9,1.3-0.9,1.1-3.6,0.4
	c-8.4-2.2-10.9-7.8-10.7-14.2C83.8,87.1,84.8,86.4,85.9,85.8L85.9,85.8z M107.6,118.5c0.1-1.1,0.1-2.2,0.1-3.3
	c-0.6-7.6-5-10.8-11.9-12.5l0.5,0.7c5.7,7.9,3.4,14.2-1.9,19.4c1.3,0.1,2.5,0,3.8-0.2c3.8-5.6,5.2-12-0.7-18.2c-0.9-1-2.8-2.2-1-1.3
	c8.7,4,9.8,10.6,7.9,17.5C105.5,120,106.6,119.3,107.6,118.5z"/>
<path class="st16" d="M8.5,19.7c4.5,0.4,8.3-1.8,8.6-5c0.4-5,0.6-7.6,1-12.6c-6.4-0.5-9.6-0.8-16-1.4c-0.5,5-0.7,7.6-1.2,12.6
	C0.6,16.5,4,19.3,8.5,19.7z"/>
<path class="st17" d="M24.7,21c4.4,0.3,8.2-2,8.4-5.1c0.3-5.1,0.5-7.6,0.8-12.6c-6.3-0.4-9.5-0.6-15.8-1.1c-0.4,5.1-0.6,7.6-1,12.6
	C16.8,17.9,20.2,20.7,24.7,21z"/>
<path class="st16" d="M40.9,22c4.5,0.2,8.2-2.1,8.4-5.2l0.6-12.6c-6.4-0.3-9.6-0.5-16-0.9l-0.8,12.6C32.9,19,36.4,21.8,40.9,22z"/>
<path class="st17" d="M57.2,22.8c4.5,0.2,8.2-2.2,8.3-5.4l0.4-12.7c-6.4-0.2-9.6-0.3-16-0.6l-0.6,12.6
	C49.1,19.9,52.7,22.6,57.2,22.8z"/>
<path class="st16" d="M73.3,23.3c4.5,0.1,8.2-2.4,8.2-5.5l0.2-12.7C75.3,5,72.1,5,65.7,4.8l-0.4,12.7C65.2,20.5,68.8,23.2,73.3,23.3
	z"/>
<path class="st17" d="M89.7,23.5c4.6,0,8.3-2.5,8.3-5.6c0-5.1,0-7.6,0-12.7c-6.5,0-9.8,0-16.2-0.1l-0.2,12.7
	C81.4,20.9,85.1,23.5,89.7,23.5z"/>
<path class="st16" d="M105.7,23.5c4.5,0,8.1-2.6,8-5.7c-0.1-5.1-0.1-7.6-0.2-12.7c-6.4,0.1-9.5,0.1-15.9,0.1v12.7
	C97.6,21,101.2,23.6,105.7,23.5z"/>
<path class="st17" d="M122.2,23.3c4.6-0.1,8.3-2.8,8.2-5.9l-0.4-12.7c-6.6,0.2-9.9,0.3-16.4,0.4c0.1,5.1,0.1,7.6,0.2,12.7
	C113.7,20.9,117.5,23.4,122.2,23.3z"/>
<path class="st16" d="M138.1,22.8c4.5-0.2,8-2.9,7.8-6c-0.2-5.1-0.4-7.6-0.6-12.6c-6.3,0.3-9.5,0.4-15.9,0.6
	c0.1,5.1,0.2,7.6,0.4,12.7C130,20.6,133.6,23,138.1,22.8z"/>
<path class="st17" d="M154.6,22c4.7-0.2,8.3-3,8.1-6.1c-0.3-5.1-0.5-7.6-0.8-12.6c-6.6,0.4-10,0.6-16.6,0.9
	c0.2,5.1,0.4,7.6,0.6,12.6C146.1,19.9,150,22.3,154.6,22z"/>
<path class="st16" d="M170.5,21c4.4-0.3,7.8-3.1,7.6-6.2c-0.4-5.1-0.6-7.6-1-12.6c-6.3,0.5-9.5,0.7-15.8,1.1
	c0.3,5.1,0.5,7.6,0.8,12.6C162.3,19,166,21.4,170.5,21z"/>
<path class="st17" d="M187.1,19.8c4.7-0.4,8.3-3.3,8-6.4c-0.5-5-0.7-7.6-1.2-12.6c-6.7,0.6-10.1,0.9-16.8,1.5
	c0.4,5.1,0.6,7.6,1,12.6C178.3,17.9,182.4,20.2,187.1,19.8z"/>
<path class="st18" d="M193.6,7.1C129.8,12.6,65.7,12.6,1.9,7L2,5.8c63.7,5.6,127.8,5.6,191.4,0L193.6,7.1z"/>
<path class="st18" d="M194.1,12.1C130,17.7,65.5,17.6,1.4,12l0.1-1.2c64,5.6,128.4,5.6,192.4,0.1L194.1,12.1z"/>
<g>
	<defs>
		<path id="SVGID_1_" d="M148.9,9.1c-23.6,0-50,1-68.7,0S3.6,1.7,3.6,1.7c-1,8.8,1.1,102.4,3,115.1s1.8,54.5,1.8,54.5
			c0,18.7,37.8,33.9,84.4,33.9s84.5-15.2,84.5-33.9L192.1,3.8C178,7.3,163.5,9.1,148.9,9.1z"/>
	</defs>
	<clipPath id="SVGID_2_">
		<use xlink:href="#SVGID_1_"  style="overflow:visible;"/>
	</clipPath>
	<g class="st19">
		
			<rect x="-14.7" y="86.6" transform="matrix(0.7071 -0.7071 0.7071 0.7071 -41.0644 107.8401)" class="st20" width="248.7" height="33.8"/>
		<polygon class="st20" points="-26.3,100.2 -29.7,90.6 64.1,64.4 161.9,15.7 138.9,41.5 66.1,99.5 		"/>
	</g>
</g>
<g>
	<g>
		<g>
			<g>
				
					<ellipse transform="matrix(0.1479 -0.989 0.989 0.1479 13.8095 155.652)" class="st21" cx="97.2" cy="69.8" rx="12.3" ry="12.8"/>
				
					<ellipse transform="matrix(0.1479 -0.989 0.989 0.1479 25.3707 188.2572)" class="st21" cx="121.9" cy="79.4" rx="12.3" ry="12.8"/>
				
					<ellipse transform="matrix(0.1479 -0.989 0.989 0.1479 10.9634 218.7433)" class="st21" cx="132.4" cy="103" rx="12.3" ry="12.8"/>
				
					<ellipse transform="matrix(0.1479 -0.989 0.989 0.1479 -20.8573 229.0074)" class="st21" cx="122.5" cy="126.6" rx="12.3" ry="12.8"/>
				
					<ellipse transform="matrix(0.1479 -0.989 0.989 0.1479 -51.1958 212.9545)" class="st21" cx="98" cy="136.2" rx="12.3" ry="12.8"/>
				
					<ellipse transform="matrix(0.1479 -0.989 0.989 0.1479 -62.0368 180.117)" class="st21" cx="73.5" cy="126.1" rx="12.3" ry="12.8"/>
				
					<ellipse transform="matrix(0.1479 -0.989 0.989 0.1479 -46.9426 149.9942)" class="st21" cx="63.6" cy="102.2" rx="12.3" ry="12.8"/>
				
					<ellipse transform="matrix(0.1479 -0.989 0.989 0.1479 -14.8765 140.4735)" class="st21" cx="74.1" cy="78.9" rx="12.3" ry="12.8"/>
			</g>
		</g>
		<ellipse transform="matrix(0.1479 -0.989 0.989 0.1479 -18.3927 184.6884)" class="st21" cx="98" cy="103" rx="38.1" ry="39.6"/>
		<ellipse transform="matrix(0.1479 -0.989 0.989 0.1479 -18.3927 184.6884)" class="st22" cx="98" cy="103" rx="31.2" ry="32.5"/>
	</g>
	<g>
		<path class="st2" d="M90.1,89.2l-1,23l-6-0.3l0.8-18.7L78.6,93l0.2-4.3L90.1,89.2z"/>
		<path class="st2" d="M99,111.6c-1.6-1-2.9-2.4-3.8-4.3c-0.9-1.8-1.3-4-1.1-6.4c0.1-2.5,0.7-4.6,1.7-6.3c1-1.7,2.4-3,4.1-3.9
			c1.7-0.9,3.7-1.3,5.8-1.2c2.2,0.1,4.1,0.7,5.7,1.7c1.6,1,2.9,2.4,3.8,4.3c0.9,1.8,1.3,4,1.1,6.4c-0.1,2.5-0.7,4.6-1.7,6.3
			c-1,1.7-2.4,3-4.1,3.9c-1.7,0.9-3.7,1.2-5.8,1.2C102.6,113.2,100.7,112.6,99,111.6z M108.8,107.1c1-1.2,1.5-3,1.6-5.5
			c0.1-2.5-0.3-4.4-1.1-5.6c-0.9-1.2-2.1-1.9-3.7-2c-1.6-0.1-2.8,0.5-3.8,1.6c-1,1.2-1.5,3-1.6,5.5c-0.1,2.5,0.3,4.4,1.1,5.6
			c0.9,1.2,2.1,1.9,3.6,2C106.5,108.8,107.8,108.3,108.8,107.1z"/>
	</g>
</g>
</svg>
