<?xml version="1.0" encoding="utf-8"?>
<!-- Generator: Adobe Illustrator 25.0.1, SVG Export Plug-In . SVG Version: 6.00 Build 0)  -->
<svg version="1.1" id="b4c6a332-643c-4e2d-8f63-5c31c065fc21"
	 xmlns="http://www.w3.org/2000/svg" xmlns:xlink="http://www.w3.org/1999/xlink" x="0px" y="0px" viewBox="0 0 196 206"
	 style="enable-background:new 0 0 196 206;" xml:space="preserve">
<style type="text/css">
	.st0{fill:#9D82C6;}
	.st1{opacity:0.46;}
	.st2{fill:#FFFFFF;}
	.st3{fill:#C09FF2;}
	.st4{fill:#43DBA6;}
	.st5{clip-path:url(#SVGID_2_);}
	.st6{opacity:0.6;fill:#6EC294;enable-background:new    ;}
	.st7{opacity:0.6;fill:#61AB83;enable-background:new    ;}
	.st8{opacity:0.6;fill:#8AF5BB;enable-background:new    ;}
	.st9{opacity:0.6;fill:#90FFC3;enable-background:new    ;}
	.st10{clip-path:url(#SVGID_4_);}
	.st11{opacity:0.6;}
	.st12{fill:#4B8567;}
	.st13{fill:#ECFFFC;}
	.st14{clip-path:url(#SVGID_6_);}
	.st15{clip-path:url(#SVGID_8_);}
	.st16{fill:#FDDF43;}
	.st17{clip-path:url(#SVGID_10_);}
	.st18{fill:#E3C83C;}
	.st19{fill:#CCB536;}
	.st20{opacity:0.6;fill:#F5E07A;enable-background:new    ;}
	.st21{opacity:0.6;fill:#FFEC8A;enable-background:new    ;}
	.st22{clip-path:url(#SVGID_12_);}
	.st23{fill:#857B42;}
	.st24{clip-path:url(#SVGID_14_);}
	.st25{clip-path:url(#SVGID_16_);}
	.st26{clip-path:url(#SVGID_18_);}
	.st27{clip-path:url(#SVGID_20_);}
	.st28{fill:#DB5DCF;}
	.st29{clip-path:url(#SVGID_22_);}
	.st30{opacity:0.6;fill:#C27BB0;enable-background:new    ;}
	.st31{opacity:0.6;fill:#AB6E98;enable-background:new    ;}
	.st32{opacity:0.6;fill:#F5A0DF;enable-background:new    ;}
	.st33{opacity:0.6;fill:#FFA7E6;enable-background:new    ;}
	.st34{clip-path:url(#SVGID_24_);}
	.st35{fill:#85507A;}
	.st36{clip-path:url(#SVGID_26_);}
	.st37{clip-path:url(#SVGID_28_);}
	.st38{clip-path:url(#SVGID_30_);}
	.st39{clip-path:url(#SVGID_32_);}
	.st40{clip-path:url(#SVGID_34_);}
	.st41{clip-path:url(#SVGID_36_);}
	.st42{clip-path:url(#SVGID_38_);}
	.st43{clip-path:url(#SVGID_40_);}
	.st44{fill:#FEF8FC;}
	.st45{fill:#FF4891;}
	.st46{opacity:0.2;fill:#655A78;enable-background:new    ;}
	.st47{clip-path:url(#SVGID_42_);}
	.st48{opacity:0.2;fill:#B1D29E;enable-background:new    ;}
	.st49{fill:#FA5094;}
	.st50{fill:none;stroke:#FFFFFF;stroke-width:0.5;stroke-miterlimit:10;}
</style>
<ellipse class="st0" cx="92.9" cy="171.4" rx="84.4" ry="33.9"/>
<g class="st1">
	<path class="st2" d="M148.9,9.1c-23.5,0-50,1-68.7,0S3.6,1.7,3.6,1.7c-1,8.8,1.1,102.4,3,115.1s1.8,54.5,1.8,54.5
		c0,18.7,37.8,33.9,84.4,33.9s84.4-15.2,84.4-33.9L192.1,3.8C178,7.3,163.4,9.1,148.9,9.1z"/>
	<path class="st3" d="M148.9,9.1c-12.1,0-24.3,0.3-36.4,0.4S88.2,9.8,76.1,9S51.9,6.9,39.8,5.7S15.7,3.3,3.6,2l0.2-0.2L3.7,4.6
		l0,2.8c0,1.9,0,3.8,0,5.7c0,3.8,0,7.6,0.1,11.4C3.8,32.1,4,39.7,4.1,47.2c0.3,15.2,0.8,30.3,1.4,45.5c0.2,3.8,0.3,7.6,0.5,11.4
		s0.4,7.6,0.8,11.3c0.9,7.5,1.4,15.1,1.6,22.7c0.2,7.6,0.4,15.2,0.4,22.8v5.7v2.9c0,0.9,0,1.9,0.1,2.8c0.4,3.7,2,7.2,4.5,9.9
		c2.5,2.8,5.4,5.2,8.6,7.1c3.2,2,6.6,3.7,10.1,5.1c7,2.8,14.3,5,21.8,6.5c14.8,3,30,4.3,45.1,3.8c15.1-0.4,30.3-2.4,44.8-6.7
		c7.3-2.1,14.2-5.1,20.7-9.1c3.2-2,6.1-4.5,8.5-7.3c1.2-1.4,2.2-3,2.9-4.8c0.7-1.7,1.1-3.5,1.1-5.4l0,0l0,0L192,3.8l0.1,0.1
		c-3.5,0.9-7.1,1.6-10.7,2.3s-7.2,1.2-10.8,1.6c-3.6,0.4-7.2,0.8-10.9,1S152.5,9.1,148.9,9.1z M148.9,9.1c3.6,0,7.3-0.1,10.9-0.4
		s7.2-0.6,10.9-1s7.2-1,10.8-1.6s7.1-1.4,10.7-2.3h0.1v0.1l-14.5,167.5l0,0c0,1.9-0.4,3.9-1.2,5.7c-0.8,1.8-1.8,3.4-3,4.9
		c-2.5,2.9-5.4,5.5-8.6,7.5c-6.5,4-13.5,7.1-20.8,9.2c-14.6,4.4-29.8,6.4-45,6.9c-15.2,0.5-30.5-0.7-45.4-3.7
		c-7.5-1.5-14.8-3.7-21.9-6.6c-3.5-1.5-7-3.2-10.2-5.2c-3.3-2-6.3-4.4-8.9-7.3C10,180,8.4,176.3,8,172.4c-0.1-1-0.1-1.9-0.1-2.9
		v-2.9V161c0-7.6-0.1-15.2-0.4-22.7c-0.1-7.6-0.6-15.1-1.5-22.7c-0.4-3.8-0.6-7.6-0.8-11.4s-0.4-7.6-0.5-11.4
		c-0.6-15.2-1-30.4-1.2-45.5c-0.1-7.6-0.3-15.2-0.3-22.8c0-3.8,0-7.6,0-11.4c0-1.9,0-3.8,0-5.7l0.1-2.8l0.2-2.9V1.5h0.2
		c12.1,1.3,24.1,2.6,36.2,3.9C51.9,6.6,64,7.8,76.1,8.7s24.2,0.8,36.4,0.7S136.7,9.1,148.9,9.1z"/>
</g>
<circle class="st4" cx="146.2" cy="162.2" r="29.4"/>
<g>
	<defs>
		<circle id="SVGID_1_" cx="146.2" cy="162.2" r="29.4"/>
	</defs>
	<clipPath id="SVGID_2_">
		<use xlink:href="#SVGID_1_"  style="overflow:visible;"/>
	</clipPath>
	<g class="st5">
		<path class="st6" d="M169.5,131.2c-10.8,31-37,50.8-54.2,43.7c-4.7-2-7.1-7-7.2-6.9s8.4,14.1,22.9,20.3c1.6,0.7,19.7,8,36.9-1.6
			C180,180,184,163.5,180,153.1C178.6,149.3,171.1,126.6,169.5,131.2z"/>
		<path class="st7" d="M180.2,137.8c-10.8,30.9-37,50.8-54.2,43.7c-4.7-2-7.1-6.9-7.2-6.9s8.4,14.1,22.9,20.3
			c1.6,0.7,19.7,8,36.9-1.6c12.1-6.7,16.1-23.2,12.1-33.6C189.2,156,181.8,133.3,180.2,137.8z"/>
		<path class="st8" d="M117.2,184.3c10.8-30.9,37-50.8,54.2-43.7c4.7,2,7.1,6.9,7.2,6.9s-8.4-14.1-22.9-20.3
			c-1.6-0.7-19.6-8-36.9,1.6c-12.1,6.7-16.1,23.2-12.1,33.6C108.1,166.1,115.6,188.8,117.2,184.3z"/>
		<path class="st9" d="M145.5,90.2c-10.8,31-37,50.8-54.2,43.7c-4.7-2-7.1-6.9-7.2-6.9s8.4,14.2,22.9,20.3c1.6,0.7,19.7,8,36.9-1.6
			C156,139,160,122.5,156,112.1C154.6,108.3,147.1,85.7,145.5,90.2z"/>
	</g>
</g>
<g>
	<defs>
		<circle id="SVGID_3_" cx="146.2" cy="162.2" r="29.4"/>
	</defs>
	<clipPath id="SVGID_4_">
		<use xlink:href="#SVGID_3_"  style="overflow:visible;"/>
	</clipPath>
	<g class="st10">
		<g class="st11">
			<circle class="st12" cx="147.2" cy="162.1" r="5"/>
			<circle class="st12" cx="131.3" cy="139.7" r="5"/>
			<circle class="st12" cx="149.1" cy="185.4" r="3.1"/>
			<circle class="st12" cx="130.1" cy="153.6" r="3"/>
			<circle class="st12" cx="147.2" cy="146.7" r="1.9"/>
			<circle class="st12" cx="147.2" cy="173.9" r="1.9"/>
			<circle class="st12" cx="152.2" cy="134.7" r="1.9"/>
			<circle class="st12" cx="119.7" cy="162.8" r="1.9"/>
			<circle class="st12" cx="174.7" cy="164.7" r="1.9"/>
			<circle class="st12" cx="161.2" cy="167.1" r="1.9"/>
			<circle class="st12" cx="165.9" cy="180.2" r="1.9"/>
			<circle class="st12" cx="167" cy="145.9" r="1.9"/>
			<circle class="st12" cx="125.7" cy="174.5" r="1.9"/>
			<circle class="st12" cx="138.3" cy="139.7" r="0.7"/>
			<circle class="st12" cx="140.9" cy="154.2" r="0.7"/>
			<circle class="st12" cx="134.2" cy="162.8" r="0.7"/>
			<circle class="st12" cx="168.9" cy="154.2" r="0.7"/>
			<circle class="st12" cx="155.9" cy="158.8" r="0.7"/>
			<circle class="st12" cx="158.6" cy="139.7" r="0.7"/>
			<circle class="st12" cx="135.6" cy="179.6" r="0.7"/>
		</g>
		<circle class="st13" cx="146.2" cy="162.2" r="5"/>
		<circle class="st13" cx="130.3" cy="139.8" r="5"/>
		<circle class="st13" cx="148.1" cy="185.4" r="3.1"/>
		<circle class="st13" cx="129.2" cy="153.6" r="3"/>
		<circle class="st13" cx="146.2" cy="146.8" r="1.9"/>
		<circle class="st13" cx="146.2" cy="174" r="1.9"/>
		<circle class="st13" cx="151.2" cy="134.8" r="1.9"/>
		<circle class="st13" cx="118.7" cy="162.9" r="1.9"/>
		<circle class="st13" cx="173.8" cy="164.8" r="1.9"/>
		<circle class="st13" cx="160.2" cy="167.2" r="1.9"/>
		<circle class="st13" cx="164.9" cy="180.3" r="1.9"/>
		<circle class="st13" cx="166.1" cy="146" r="1.9"/>
		<circle class="st13" cx="124.8" cy="174.6" r="1.9"/>
		<circle class="st13" cx="137.3" cy="139.8" r="0.7"/>
		<circle class="st13" cx="140" cy="154.3" r="0.7"/>
		<circle class="st13" cx="133.3" cy="162.9" r="0.7"/>
		<circle class="st13" cx="167.9" cy="154.3" r="0.7"/>
		<circle class="st13" cx="154.9" cy="158.9" r="0.7"/>
		<circle class="st13" cx="157.7" cy="139.8" r="0.7"/>
		<circle class="st13" cx="134.6" cy="179.6" r="0.7"/>
	</g>
</g>
<ellipse transform="matrix(5.530040e-02 -0.9985 0.9985 5.530040e-02 -61.3065 155.004)" class="st4" cx="51.3" cy="109.9" rx="29.4" ry="29.4"/>
<g>
	<defs>
		
			<ellipse id="SVGID_5_" transform="matrix(5.530040e-02 -0.9985 0.9985 5.530040e-02 -61.3065 155.004)" cx="51.3" cy="109.9" rx="29.4" ry="29.4"/>
	</defs>
	<clipPath id="SVGID_6_">
		<use xlink:href="#SVGID_5_"  style="overflow:visible;"/>
	</clipPath>
	<g class="st14">
		<path class="st6" d="M74.6,78.9c-10.8,31-37,50.8-54.2,43.7c-4.7-2-7.1-6.9-7.2-6.9s8.4,14.2,22.9,20.3c1.6,0.7,19.6,8,36.9-1.6
			C85,127.7,89,111.2,85,100.8C83.6,97,76.1,74.3,74.6,78.9z"/>
		<path class="st7" d="M85.2,85.5c-10.8,31-37,50.8-54.2,43.7c-4.7-2-7.1-6.9-7.2-6.9s8.4,14.2,22.9,20.3c1.6,0.7,19.7,8,36.9-1.6
			c12.1-6.7,16.1-23.2,12.1-33.6C94.2,103.7,86.8,81,85.2,85.5z"/>
		<path class="st8" d="M22.2,132c10.8-31,37-50.8,54.2-43.7c4.7,2,7.1,6.9,7.2,6.9s-8.4-14.2-22.9-20.3c-1.6-0.7-19.7-8-36.9,1.6
			c-12.1,6.7-16.1,23.2-12.1,33.6C13.1,113.8,20.6,136.5,22.2,132z"/>
		<path class="st9" d="M50.5,37.9c-10.8,31-37,50.8-54.2,43.7c-4.7-2-7.1-6.9-7.2-6.9S-2.5,88.8,12.1,95c1.6,0.7,19.7,8,36.9-1.6
			C61,86.7,65,70.2,61,59.8C59.6,56,52.1,33.4,50.5,37.9z"/>
	</g>
</g>
<g>
	<defs>
		
			<ellipse id="SVGID_7_" transform="matrix(5.530040e-02 -0.9985 0.9985 5.530040e-02 -61.3065 155.004)" cx="51.3" cy="109.9" rx="29.4" ry="29.4"/>
	</defs>
	<clipPath id="SVGID_8_">
		<use xlink:href="#SVGID_7_"  style="overflow:visible;"/>
	</clipPath>
	<g class="st15">
		<g class="st11">
			<circle class="st12" cx="52.2" cy="109.8" r="5"/>
			<circle class="st12" cx="36.3" cy="87.4" r="5"/>
			<circle class="st12" cx="54.1" cy="133.1" r="3.1"/>
			<circle class="st12" cx="35.1" cy="101.3" r="3"/>
			<circle class="st12" cx="52.2" cy="94.4" r="1.9"/>
			<circle class="st12" cx="52.2" cy="121.6" r="1.9"/>
			<circle class="st12" cx="57.2" cy="82.4" r="1.9"/>
			<circle class="st12" cx="24.7" cy="110.5" r="1.9"/>
			<circle class="st12" cx="79.7" cy="112.4" r="1.9"/>
			<circle class="st12" cx="66.2" cy="114.8" r="1.9"/>
			<circle class="st12" cx="70.9" cy="127.9" r="1.9"/>
			<circle class="st12" cx="72" cy="93.6" r="1.9"/>
			<circle class="st12" cx="30.8" cy="122.2" r="1.9"/>
			<circle class="st12" cx="43.3" cy="87.4" r="0.7"/>
			<circle class="st12" cx="46" cy="101.9" r="0.7"/>
			<circle class="st12" cx="39.2" cy="110.5" r="0.7"/>
			<circle class="st12" cx="73.9" cy="101.9" r="0.7"/>
			<circle class="st12" cx="60.9" cy="106.5" r="0.7"/>
			<circle class="st12" cx="63.6" cy="87.4" r="0.7"/>
			<circle class="st12" cx="40.6" cy="127.2" r="0.7"/>
		</g>
		<circle class="st13" cx="51.3" cy="109.9" r="5"/>
		<circle class="st13" cx="35.3" cy="87.5" r="5"/>
		<circle class="st13" cx="53.1" cy="133.1" r="3.1"/>
		<circle class="st13" cx="34.2" cy="101.3" r="3"/>
		<circle class="st13" cx="51.3" cy="94.5" r="1.9"/>
		<circle class="st13" cx="51.3" cy="121.7" r="1.9"/>
		<circle class="st13" cx="56.3" cy="82.5" r="1.9"/>
		<circle class="st13" cx="23.8" cy="110.6" r="1.9"/>
		<circle class="st13" cx="78.8" cy="112.4" r="1.9"/>
		<circle class="st13" cx="65.2" cy="114.9" r="1.9"/>
		<circle class="st13" cx="69.9" cy="128" r="1.9"/>
		<circle class="st13" cx="71.1" cy="93.7" r="1.9"/>
		<circle class="st13" cx="29.8" cy="122.3" r="1.9"/>
		<circle class="st13" cx="42.3" cy="87.5" r="0.7"/>
		<circle class="st13" cx="45" cy="102" r="0.7"/>
		<circle class="st13" cx="38.3" cy="110.6" r="0.7"/>
		<circle class="st13" cx="72.9" cy="102" r="0.7"/>
		<circle class="st13" cx="59.9" cy="106.6" r="0.7"/>
		<circle class="st13" cx="62.7" cy="87.5" r="0.7"/>
		<circle class="st13" cx="39.6" cy="127.3" r="0.7"/>
	</g>
</g>
<circle class="st16" cx="137.9" cy="121.2" r="29.4"/>
<g>
	<defs>
		<circle id="SVGID_9_" cx="137.9" cy="121.2" r="29.4"/>
	</defs>
	<clipPath id="SVGID_10_">
		<use xlink:href="#SVGID_9_"  style="overflow:visible;"/>
	</clipPath>
	<g class="st17">
		<path class="st18" d="M161.2,90.1c-10.8,31-37,50.8-54.2,43.7c-4.7-2-7.1-6.9-7.2-6.9s8.4,14.2,22.9,20.3c1.6,0.7,19.7,8,36.9-1.6
			c12.1-6.7,16.1-23.2,12.1-33.6C170.2,108.3,162.8,85.6,161.2,90.1z"/>
		<path class="st19" d="M171.8,96.8c-10.8,31-37,50.8-54.2,43.7c-4.7-2-7.1-6.9-7.2-6.9s8.4,14.1,22.9,20.3c1.6,0.7,19.7,8,36.9-1.6
			c12.1-6.7,16.1-23.2,12.1-33.6C180.9,114.9,173.4,92.2,171.8,96.8z"/>
		<path class="st20" d="M108.8,143.2c10.8-30.9,37-50.8,54.2-43.7c4.7,2,7.1,6.9,7.2,6.9s-8.4-14.2-22.9-20.3
			c-1.6-0.7-19.7-8-36.9,1.6c-12.1,6.7-16.1,23.2-12.1,33.6C99.8,125.1,107.2,147.8,108.8,143.2z"/>
		<path class="st21" d="M137.2,49.2c-10.8,31-37,50.8-54.2,43.7c-4.7-2-7.1-6.9-7.2-6.9s8.4,14.2,22.9,20.3c1.6,0.7,19.7,8,36.9-1.6
			c12.1-6.7,16.1-23.2,12.1-33.6C146.2,67.3,138.8,44.6,137.2,49.2z"/>
	</g>
</g>
<g>
	<defs>
		<circle id="SVGID_11_" cx="137.9" cy="121.2" r="29.4"/>
	</defs>
	<clipPath id="SVGID_12_">
		<use xlink:href="#SVGID_11_"  style="overflow:visible;"/>
	</clipPath>
	<g class="st22">
		<g class="st11">
			<circle class="st23" cx="138.8" cy="121.1" r="5"/>
			<circle class="st23" cx="122.9" cy="98.6" r="5"/>
			<circle class="st23" cx="140.7" cy="144.3" r="3.1"/>
			<circle class="st23" cx="121.8" cy="112.5" r="3"/>
			<circle class="st23" cx="138.8" cy="105.7" r="1.9"/>
			<circle class="st23" cx="138.8" cy="132.9" r="1.9"/>
			<circle class="st23" cx="143.8" cy="93.6" r="1.9"/>
			<circle class="st23" cx="111.3" cy="121.8" r="1.9"/>
			<circle class="st23" cx="166.4" cy="123.6" r="1.9"/>
			<circle class="st23" cx="152.8" cy="126.1" r="1.9"/>
			<circle class="st23" cx="157.5" cy="139.2" r="1.9"/>
			<circle class="st23" cx="158.6" cy="104.9" r="1.9"/>
			<circle class="st23" cx="117.4" cy="133.5" r="1.9"/>
			<circle class="st23" cx="129.9" cy="98.6" r="0.7"/>
			<circle class="st23" cx="132.6" cy="113.2" r="0.7"/>
			<circle class="st23" cx="125.9" cy="121.8" r="0.7"/>
			<circle class="st23" cx="160.5" cy="113.2" r="0.7"/>
			<circle class="st23" cx="147.5" cy="117.8" r="0.7"/>
			<circle class="st23" cx="150.2" cy="98.6" r="0.7"/>
			<circle class="st23" cx="127.2" cy="138.5" r="0.7"/>
		</g>
		<circle class="st13" cx="137.9" cy="121.2" r="5"/>
		<circle class="st13" cx="121.9" cy="98.7" r="5"/>
		<circle class="st13" cx="139.8" cy="144.4" r="3.1"/>
		<circle class="st13" cx="120.8" cy="112.6" r="3"/>
		<circle class="st13" cx="137.9" cy="105.7" r="1.9"/>
		<circle class="st13" cx="137.9" cy="132.9" r="1.9"/>
		<circle class="st13" cx="142.9" cy="93.7" r="1.9"/>
		<circle class="st13" cx="110.4" cy="121.8" r="1.9"/>
		<circle class="st13" cx="165.4" cy="123.7" r="1.9"/>
		<circle class="st13" cx="151.9" cy="126.2" r="1.9"/>
		<circle class="st13" cx="156.5" cy="139.3" r="1.9"/>
		<circle class="st13" cx="157.7" cy="105" r="1.9"/>
		<circle class="st13" cx="116.4" cy="133.6" r="1.9"/>
		<circle class="st13" cx="129" cy="98.7" r="0.7"/>
		<circle class="st13" cx="131.6" cy="113.3" r="0.7"/>
		<circle class="st13" cx="124.9" cy="121.8" r="0.7"/>
		<circle class="st13" cx="159.6" cy="113.3" r="0.7"/>
		<circle class="st13" cx="146.5" cy="117.9" r="0.7"/>
		<circle class="st13" cx="149.3" cy="98.7" r="0.7"/>
		<circle class="st13" cx="126.3" cy="138.6" r="0.7"/>
	</g>
</g>
<circle class="st16" cx="100.3" cy="74.1" r="29.4"/>
<g>
	<defs>
		<circle id="SVGID_13_" cx="100.3" cy="74.1" r="29.4"/>
	</defs>
	<clipPath id="SVGID_14_">
		<use xlink:href="#SVGID_13_"  style="overflow:visible;"/>
	</clipPath>
	<g class="st24">
		<path class="st18" d="M123.6,43c-10.8,31-37,50.8-54.2,43.7c-4.7-2-7.1-6.9-7.2-6.9s8.4,14.2,22.9,20.3c1.6,0.7,19.7,8,36.9-1.6
			c12.1-6.7,16.1-23.2,12.1-33.6C132.6,61.2,125.2,38.5,123.6,43z"/>
		<path class="st19" d="M134.2,49.7c-10.8,31-37,50.8-54.2,43.7c-4.7-2-7.1-6.9-7.2-6.9s8.4,14.2,22.9,20.3c1.6,0.7,19.7,8,36.9-1.6
			c12.1-6.7,16.1-23.2,12.1-33.6C143.2,67.8,135.8,45.1,134.2,49.7z"/>
		<path class="st20" d="M71.2,96.2c10.8-31,37-50.8,54.2-43.7c4.7,2,7.1,6.9,7.2,6.9s-8.4-14.2-22.9-20.3c-1.6-0.7-19.7-8-36.9,1.6
			c-12.1,6.7-16.1,23.2-12.1,33.6C62.2,78,69.6,100.7,71.2,96.2z"/>
		<path class="st21" d="M99.6,2.1c-10.8,31-37,50.8-54.2,43.7c-4.7-2-7.1-6.9-7.2-6.9S46.6,53,61.1,59.2c1.6,0.7,19.7,8,36.9-1.6
			c12.1-6.7,16.1-23.2,12.1-33.6C108.6,20.2,101.2-2.5,99.6,2.1z"/>
	</g>
</g>
<g>
	<defs>
		<circle id="SVGID_15_" cx="100.3" cy="74.1" r="29.4"/>
	</defs>
	<clipPath id="SVGID_16_">
		<use xlink:href="#SVGID_15_"  style="overflow:visible;"/>
	</clipPath>
	<g class="st25">
		<g class="st11">
			<circle class="st23" cx="101.2" cy="74" r="5"/>
			<circle class="st23" cx="85.3" cy="51.6" r="5"/>
			<circle class="st23" cx="103.1" cy="97.2" r="3.1"/>
			<circle class="st23" cx="84.2" cy="65.4" r="3"/>
			<circle class="st23" cx="101.2" cy="58.6" r="1.9"/>
			<circle class="st23" cx="101.2" cy="85.8" r="1.9"/>
			<circle class="st23" cx="106.2" cy="46.6" r="1.9"/>
			<circle class="st23" cx="73.7" cy="74.7" r="1.9"/>
			<circle class="st23" cx="128.8" cy="76.6" r="1.9"/>
			<circle class="st23" cx="115.2" cy="79" r="1.9"/>
			<circle class="st23" cx="119.9" cy="92.1" r="1.9"/>
			<circle class="st23" cx="121" cy="57.8" r="1.9"/>
			<circle class="st23" cx="79.8" cy="86.4" r="1.9"/>
			<circle class="st23" cx="92.3" cy="51.6" r="0.7"/>
			<circle class="st23" cx="95" cy="66.1" r="0.7"/>
			<circle class="st23" cx="88.3" cy="74.7" r="0.7"/>
			<circle class="st23" cx="122.9" cy="66.1" r="0.7"/>
			<circle class="st23" cx="109.9" cy="70.7" r="0.7"/>
			<circle class="st23" cx="112.7" cy="51.6" r="0.7"/>
			<circle class="st23" cx="89.6" cy="91.4" r="0.7"/>
		</g>
		<circle class="st13" cx="100.3" cy="74.1" r="5"/>
		<circle class="st13" cx="84.3" cy="51.6" r="5"/>
		<circle class="st13" cx="102.2" cy="97.3" r="3.1"/>
		<circle class="st13" cx="83.2" cy="65.5" r="3"/>
		<circle class="st13" cx="100.3" cy="58.7" r="1.9"/>
		<circle class="st13" cx="100.3" cy="85.8" r="1.9"/>
		<circle class="st13" cx="105.3" cy="46.6" r="1.9"/>
		<circle class="st13" cx="72.8" cy="74.8" r="1.9"/>
		<circle class="st13" cx="127.8" cy="76.6" r="1.9"/>
		<circle class="st13" cx="114.2" cy="79.1" r="1.9"/>
		<circle class="st13" cx="118.9" cy="92.2" r="1.9"/>
		<circle class="st13" cx="120.1" cy="57.9" r="1.9"/>
		<circle class="st13" cx="78.8" cy="86.5" r="1.9"/>
		<circle class="st13" cx="91.4" cy="51.6" r="0.7"/>
		<circle class="st13" cx="94" cy="66.2" r="0.7"/>
		<circle class="st13" cx="87.3" cy="74.8" r="0.7"/>
		<circle class="st13" cx="122" cy="66.2" r="0.7"/>
		<circle class="st13" cx="108.9" cy="70.8" r="0.7"/>
		<circle class="st13" cx="111.7" cy="51.6" r="0.7"/>
		<circle class="st13" cx="88.7" cy="91.5" r="0.7"/>
	</g>
</g>
<circle class="st16" cx="87.5" cy="162.2" r="29.4"/>
<g>
	<defs>
		<circle id="SVGID_17_" cx="87.5" cy="162.2" r="29.4"/>
	</defs>
	<clipPath id="SVGID_18_">
		<use xlink:href="#SVGID_17_"  style="overflow:visible;"/>
	</clipPath>
	<g class="st26">
		<path class="st18" d="M110.8,131.2c-10.8,31-37,50.8-54.2,43.7c-4.7-2-7.1-7-7.2-6.9s8.4,14.1,22.9,20.3c1.6,0.7,19.7,8,36.9-1.6
			c12.1-6.7,16.1-23.2,12.1-33.6C119.8,149.3,112.3,126.6,110.8,131.2z"/>
		<path class="st19" d="M121.4,137.8c-10.8,30.9-37,50.8-54.2,43.7c-4.7-2-7.1-6.9-7.2-6.9s8.4,14.1,22.9,20.3
			c1.6,0.7,19.7,8,36.9-1.6c12.1-6.7,16.1-23.2,12.1-33.6C130.4,156,123,133.3,121.4,137.8z"/>
		<path class="st20" d="M58.4,184.3c10.8-30.9,37-50.8,54.2-43.7c4.7,2,7.1,6.9,7.2,6.9s-8.4-14.1-22.9-20.3
			c-1.6-0.7-19.7-8-36.9,1.6c-12.1,6.7-16.1,23.2-12.1,33.6C49.3,166.1,56.8,188.8,58.4,184.3z"/>
		<path class="st21" d="M86.8,90.2c-10.8,31-37,50.8-54.2,43.7c-4.7-2-7.1-6.9-7.2-6.9s8.4,14.2,22.9,20.3c1.6,0.7,19.7,8,36.9-1.6
			c12.1-6.7,16.1-23.2,12.1-33.6C95.8,108.3,88.3,85.7,86.8,90.2z"/>
	</g>
</g>
<g>
	<defs>
		<circle id="SVGID_19_" cx="87.5" cy="162.2" r="29.4"/>
	</defs>
	<clipPath id="SVGID_20_">
		<use xlink:href="#SVGID_19_"  style="overflow:visible;"/>
	</clipPath>
	<g class="st27">
		<g class="st11">
			<circle class="st23" cx="88.4" cy="162.1" r="5"/>
			<circle class="st23" cx="72.5" cy="139.7" r="5"/>
			<circle class="st23" cx="90.3" cy="185.4" r="3.1"/>
			<circle class="st23" cx="71.3" cy="153.6" r="3"/>
			<circle class="st23" cx="88.4" cy="146.7" r="1.9"/>
			<circle class="st23" cx="88.4" cy="173.9" r="1.9"/>
			<circle class="st23" cx="93.4" cy="134.7" r="1.9"/>
			<circle class="st23" cx="60.9" cy="162.8" r="1.9"/>
			<circle class="st23" cx="115.9" cy="164.7" r="1.9"/>
			<circle class="st23" cx="102.4" cy="167.1" r="1.9"/>
			<circle class="st23" cx="107.1" cy="180.2" r="1.9"/>
			<circle class="st23" cx="108.2" cy="145.9" r="1.9"/>
			<circle class="st23" cx="66.9" cy="174.5" r="1.9"/>
			<circle class="st23" cx="79.5" cy="139.7" r="0.7"/>
			<circle class="st23" cx="82.2" cy="154.2" r="0.7"/>
			<circle class="st23" cx="75.4" cy="162.8" r="0.7"/>
			<circle class="st23" cx="110.1" cy="154.2" r="0.7"/>
			<circle class="st23" cx="97.1" cy="158.8" r="0.7"/>
			<circle class="st23" cx="99.8" cy="139.7" r="0.7"/>
			<circle class="st23" cx="76.8" cy="179.6" r="0.7"/>
		</g>
		<circle class="st13" cx="87.5" cy="162.2" r="5"/>
		<circle class="st13" cx="71.5" cy="139.8" r="5"/>
		<circle class="st13" cx="89.3" cy="185.4" r="3.1"/>
		<circle class="st13" cx="70.4" cy="153.6" r="3"/>
		<circle class="st13" cx="87.5" cy="146.8" r="1.9"/>
		<circle class="st13" cx="87.5" cy="174" r="1.9"/>
		<circle class="st13" cx="92.5" cy="134.8" r="1.9"/>
		<circle class="st13" cx="60" cy="162.9" r="1.9"/>
		<circle class="st13" cx="115" cy="164.8" r="1.9"/>
		<circle class="st13" cx="101.4" cy="167.2" r="1.9"/>
		<circle class="st13" cx="106.1" cy="180.3" r="1.9"/>
		<circle class="st13" cx="107.3" cy="146" r="1.9"/>
		<circle class="st13" cx="66" cy="174.6" r="1.9"/>
		<circle class="st13" cx="78.6" cy="139.8" r="0.7"/>
		<circle class="st13" cx="81.2" cy="154.3" r="0.7"/>
		<circle class="st13" cx="74.5" cy="162.9" r="0.7"/>
		<circle class="st13" cx="109.2" cy="154.3" r="0.7"/>
		<circle class="st13" cx="96.1" cy="158.9" r="0.7"/>
		<circle class="st13" cx="98.9" cy="139.8" r="0.7"/>
		<circle class="st13" cx="75.8" cy="179.6" r="0.7"/>
	</g>
</g>
<circle class="st28" cx="96.6" cy="44.8" r="29.4"/>
<g>
	<defs>
		<circle id="SVGID_21_" cx="96.6" cy="44.8" r="29.4"/>
	</defs>
	<clipPath id="SVGID_22_">
		<use xlink:href="#SVGID_21_"  style="overflow:visible;"/>
	</clipPath>
	<g class="st29">
		<path class="st30" d="M119.9,13.8c-10.8,31-37,50.8-54.2,43.7c-4.7-2-7.1-6.9-7.2-6.9s8.4,14.1,22.9,20.3c1.6,0.7,19.7,8,36.9-1.6
			c12.1-6.7,16.1-23.2,12.1-33.6C128.9,31.9,121.5,9.2,119.9,13.8z"/>
		<path class="st31" d="M130.5,20.4c-10.8,31-37,50.8-54.2,43.7c-4.7-2-7.1-6.9-7.2-6.9S77.5,71.3,92,77.5c1.6,0.7,19.7,8,36.9-1.6
			C141,69.2,145,52.7,141,42.3C139.6,38.5,132.1,15.9,130.5,20.4z"/>
		<path class="st32" d="M67.5,66.9c10.8-31,37-50.8,54.2-43.7c4.7,2,7.1,6.9,7.2,6.9S120.5,15.9,106,9.8c-1.6-0.7-19.7-8-36.9,1.6
			C57.1,18.1,53,34.5,57,45C58.5,48.7,65.9,71.4,67.5,66.9z"/>
		<path class="st33" d="M95.9-27.2c-10.8,31-37,50.8-54.2,43.7c-4.7-2-7.1-6.9-7.2-6.9s8.4,14.2,22.9,20.3c1.6,0.7,19.7,8,36.9-1.6
			c12.1-6.7,16.1-23.2,12.1-33.6C104.9-9.1,97.5-31.8,95.9-27.2z"/>
	</g>
</g>
<g>
	<defs>
		<circle id="SVGID_23_" cx="96.6" cy="44.8" r="29.4"/>
	</defs>
	<clipPath id="SVGID_24_">
		<use xlink:href="#SVGID_23_"  style="overflow:visible;"/>
	</clipPath>
	<g class="st34">
		<g class="st11">
			<circle class="st35" cx="97.6" cy="44.7" r="5"/>
			<circle class="st35" cx="81.6" cy="22.3" r="5"/>
			<circle class="st35" cx="99.4" cy="67.9" r="3.1"/>
			<circle class="st35" cx="80.5" cy="36.2" r="3"/>
			<circle class="st35" cx="97.6" cy="29.3" r="1.9"/>
			<circle class="st35" cx="97.6" cy="56.5" r="1.9"/>
			<circle class="st35" cx="102.6" cy="17.3" r="1.9"/>
			<circle class="st35" cx="70" cy="45.4" r="1.9"/>
			<circle class="st35" cx="125.1" cy="47.3" r="1.9"/>
			<circle class="st35" cx="111.5" cy="49.7" r="1.9"/>
			<circle class="st35" cx="116.2" cy="62.8" r="1.9"/>
			<circle class="st35" cx="117.3" cy="28.5" r="1.9"/>
			<circle class="st35" cx="76.1" cy="57.1" r="1.9"/>
			<circle class="st35" cx="88.6" cy="22.3" r="0.7"/>
			<circle class="st35" cx="91.3" cy="36.8" r="0.7"/>
			<circle class="st35" cx="84.6" cy="45.4" r="0.7"/>
			<circle class="st35" cx="119.2" cy="36.8" r="0.7"/>
			<circle class="st35" cx="106.2" cy="41.4" r="0.7"/>
			<circle class="st35" cx="109" cy="22.3" r="0.7"/>
			<circle class="st35" cx="85.9" cy="62.1" r="0.7"/>
		</g>
		<circle class="st13" cx="96.6" cy="44.8" r="5"/>
		<circle class="st13" cx="80.7" cy="22.4" r="5"/>
		<circle class="st13" cx="98.5" cy="68" r="3.1"/>
		<circle class="st13" cx="79.5" cy="36.2" r="3"/>
		<circle class="st13" cx="96.6" cy="29.4" r="1.9"/>
		<circle class="st13" cx="96.6" cy="56.6" r="1.9"/>
		<circle class="st13" cx="101.6" cy="17.4" r="1.9"/>
		<circle class="st13" cx="69.1" cy="45.5" r="1.9"/>
		<circle class="st13" cx="124.1" cy="47.3" r="1.9"/>
		<circle class="st13" cx="110.6" cy="49.8" r="1.9"/>
		<circle class="st13" cx="115.2" cy="62.9" r="1.9"/>
		<circle class="st13" cx="116.4" cy="28.6" r="1.9"/>
		<circle class="st13" cx="75.1" cy="57.2" r="1.9"/>
		<circle class="st13" cx="87.7" cy="22.4" r="0.7"/>
		<circle class="st13" cx="90.3" cy="36.9" r="0.7"/>
		<circle class="st13" cx="83.6" cy="45.5" r="0.7"/>
		<circle class="st13" cx="118.3" cy="36.9" r="0.7"/>
		<circle class="st13" cx="105.2" cy="41.5" r="0.7"/>
		<circle class="st13" cx="108" cy="22.4" r="0.7"/>
		<circle class="st13" cx="85" cy="62.2" r="0.7"/>
	</g>
</g>
<circle class="st28" cx="100.3" cy="132.9" r="29.4"/>
<g>
	<defs>
		<circle id="SVGID_25_" cx="100.3" cy="132.9" r="29.4"/>
	</defs>
	<clipPath id="SVGID_26_">
		<use xlink:href="#SVGID_25_"  style="overflow:visible;"/>
	</clipPath>
	<g class="st36">
		<path class="st30" d="M123.6,101.8c-10.8,30.9-37,50.8-54.2,43.7c-4.7-2-7.1-6.9-7.2-6.9s8.4,14.1,22.9,20.3
			c1.6,0.7,19.7,8,36.9-1.6c12.1-6.7,16.1-23.2,12.1-33.6C132.6,120,125.2,97.3,123.6,101.8z"/>
		<path class="st31" d="M134.2,108.5c-10.8,30.9-37,50.8-54.2,43.7c-4.7-2-7.1-6.9-7.2-6.9s8.4,14.1,22.9,20.3
			c1.6,0.7,19.7,8,36.9-1.6c12.1-6.7,16.1-23.2,12.1-33.6C143.2,126.6,135.8,103.9,134.2,108.5z"/>
		<path class="st32" d="M71.2,154.9c10.8-30.9,37-50.8,54.2-43.7c4.7,2,7.1,6.9,7.2,6.9s-8.4-14.2-22.9-20.3
			c-1.6-0.7-19.7-8-36.9,1.6c-12.1,6.7-16.1,23.2-12.1,33.6C62.2,136.8,69.6,159.5,71.2,154.9z"/>
		<path class="st33" d="M99.6,60.9c-10.8,31-37,50.8-54.2,43.7c-4.7-2-7.1-6.9-7.2-6.9s8.4,14.2,22.9,20.3c1.6,0.7,19.7,8,36.9-1.6
			C110,109.7,114,93.2,110,82.8C108.6,79,101.2,56.3,99.6,60.9z"/>
	</g>
</g>
<g>
	<defs>
		<circle id="SVGID_27_" cx="100.3" cy="132.9" r="29.4"/>
	</defs>
	<clipPath id="SVGID_28_">
		<use xlink:href="#SVGID_27_"  style="overflow:visible;"/>
	</clipPath>
	<g class="st37">
		<g class="st11">
			<circle class="st35" cx="101.2" cy="132.8" r="5"/>
			<circle class="st35" cx="85.3" cy="110.3" r="5"/>
			<circle class="st35" cx="103.1" cy="156" r="3.1"/>
			<circle class="st35" cx="84.2" cy="124.2" r="3"/>
			<circle class="st35" cx="101.2" cy="117.3" r="1.9"/>
			<circle class="st35" cx="101.2" cy="144.6" r="1.9"/>
			<circle class="st35" cx="106.2" cy="105.3" r="1.9"/>
			<circle class="st35" cx="73.7" cy="133.5" r="1.9"/>
			<circle class="st35" cx="128.8" cy="135.3" r="1.9"/>
			<circle class="st35" cx="115.2" cy="137.8" r="1.9"/>
			<circle class="st35" cx="119.9" cy="150.9" r="1.9"/>
			<circle class="st35" cx="121" cy="116.6" r="1.9"/>
			<circle class="st35" cx="79.8" cy="145.2" r="1.9"/>
			<circle class="st35" cx="92.3" cy="110.3" r="0.7"/>
			<circle class="st35" cx="95" cy="124.9" r="0.7"/>
			<circle class="st35" cx="88.3" cy="133.5" r="0.7"/>
			<circle class="st35" cx="122.9" cy="124.9" r="0.7"/>
			<circle class="st35" cx="109.9" cy="129.5" r="0.7"/>
			<circle class="st35" cx="112.7" cy="110.3" r="0.7"/>
			<circle class="st35" cx="89.6" cy="150.2" r="0.7"/>
		</g>
		<circle class="st13" cx="100.3" cy="132.9" r="5"/>
		<circle class="st13" cx="84.3" cy="110.4" r="5"/>
		<circle class="st13" cx="102.2" cy="156.1" r="3.1"/>
		<circle class="st13" cx="83.2" cy="124.3" r="3"/>
		<circle class="st13" cx="100.3" cy="117.4" r="1.9"/>
		<circle class="st13" cx="100.3" cy="144.6" r="1.9"/>
		<circle class="st13" cx="105.3" cy="105.4" r="1.9"/>
		<circle class="st13" cx="72.8" cy="133.5" r="1.9"/>
		<circle class="st13" cx="127.8" cy="135.4" r="1.9"/>
		<circle class="st13" cx="114.2" cy="137.9" r="1.9"/>
		<circle class="st13" cx="118.9" cy="151" r="1.9"/>
		<circle class="st13" cx="120.1" cy="116.7" r="1.9"/>
		<circle class="st13" cx="78.8" cy="145.3" r="1.9"/>
		<circle class="st13" cx="91.4" cy="110.4" r="0.7"/>
		<circle class="st13" cx="94" cy="125" r="0.7"/>
		<circle class="st13" cx="87.3" cy="133.5" r="0.7"/>
		<circle class="st13" cx="122" cy="125" r="0.7"/>
		<circle class="st13" cx="108.9" cy="129.6" r="0.7"/>
		<circle class="st13" cx="111.7" cy="110.4" r="0.7"/>
		<circle class="st13" cx="88.7" cy="150.3" r="0.7"/>
	</g>
</g>
<circle class="st28" cx="146.2" cy="74.1" r="29.4"/>
<g>
	<defs>
		<circle id="SVGID_29_" cx="146.2" cy="74.1" r="29.4"/>
	</defs>
	<clipPath id="SVGID_30_">
		<use xlink:href="#SVGID_29_"  style="overflow:visible;"/>
	</clipPath>
	<g class="st38">
		<path class="st30" d="M169.5,43c-10.8,31-37,50.8-54.2,43.7c-4.7-2-7.1-6.9-7.2-6.9s8.4,14.2,22.9,20.3c1.6,0.7,19.7,8,36.9-1.6
			C180,91.9,184,75.4,180,64.9C178.6,61.2,171.1,38.5,169.5,43z"/>
		<path class="st31" d="M180.2,49.7c-10.8,31-37,50.8-54.2,43.7c-4.7-2-7.1-6.9-7.2-6.9s8.4,14.2,22.9,20.3c1.6,0.7,19.7,8,36.9-1.6
			c12.1-6.7,16.1-23.2,12.1-33.6C189.2,67.8,181.8,45.1,180.2,49.7z"/>
		<path class="st32" d="M117.2,96.2c10.8-31,37-50.8,54.2-43.7c4.7,2,7.1,6.9,7.2,6.9s-8.4-14.2-22.9-20.3c-1.6-0.7-19.6-8-36.9,1.6
			c-12.1,6.7-16.1,23.2-12.1,33.6C108.1,78,115.6,100.7,117.2,96.2z"/>
		<path class="st33" d="M145.5,2.1c-10.8,31-37,50.8-54.2,43.7c-4.7-2-7.1-6.9-7.2-6.9S92.5,53,107,59.2c1.6,0.7,19.7,8,36.9-1.6
			C156,50.9,160,34.4,156,24C154.6,20.2,147.1-2.5,145.5,2.1z"/>
	</g>
</g>
<g>
	<defs>
		<circle id="SVGID_31_" cx="146.2" cy="74.1" r="29.4"/>
	</defs>
	<clipPath id="SVGID_32_">
		<use xlink:href="#SVGID_31_"  style="overflow:visible;"/>
	</clipPath>
	<g class="st39">
		<g class="st11">
			<circle class="st35" cx="147.2" cy="74" r="5"/>
			<circle class="st35" cx="131.3" cy="51.6" r="5"/>
			<circle class="st35" cx="149.1" cy="97.2" r="3.1"/>
			<circle class="st35" cx="130.1" cy="65.4" r="3"/>
			<circle class="st35" cx="147.2" cy="58.6" r="1.9"/>
			<circle class="st35" cx="147.2" cy="85.8" r="1.9"/>
			<circle class="st35" cx="152.2" cy="46.6" r="1.9"/>
			<circle class="st35" cx="119.7" cy="74.7" r="1.9"/>
			<circle class="st35" cx="174.7" cy="76.6" r="1.9"/>
			<circle class="st35" cx="161.2" cy="79" r="1.9"/>
			<circle class="st35" cx="165.9" cy="92.1" r="1.9"/>
			<circle class="st35" cx="167" cy="57.8" r="1.9"/>
			<circle class="st35" cx="125.7" cy="86.4" r="1.9"/>
			<circle class="st35" cx="138.3" cy="51.6" r="0.7"/>
			<circle class="st35" cx="140.9" cy="66.1" r="0.7"/>
			<circle class="st35" cx="134.2" cy="74.7" r="0.7"/>
			<circle class="st35" cx="168.9" cy="66.1" r="0.7"/>
			<circle class="st35" cx="155.9" cy="70.7" r="0.7"/>
			<circle class="st35" cx="158.6" cy="51.6" r="0.7"/>
			<circle class="st35" cx="135.6" cy="91.4" r="0.7"/>
		</g>
		<circle class="st13" cx="146.2" cy="74.1" r="5"/>
		<circle class="st13" cx="130.3" cy="51.6" r="5"/>
		<circle class="st13" cx="148.1" cy="97.3" r="3.1"/>
		<circle class="st13" cx="129.2" cy="65.5" r="3"/>
		<circle class="st13" cx="146.2" cy="58.7" r="1.9"/>
		<circle class="st13" cx="146.2" cy="85.8" r="1.9"/>
		<circle class="st13" cx="151.2" cy="46.6" r="1.9"/>
		<circle class="st13" cx="118.7" cy="74.8" r="1.9"/>
		<circle class="st13" cx="173.8" cy="76.6" r="1.9"/>
		<circle class="st13" cx="160.2" cy="79.1" r="1.9"/>
		<circle class="st13" cx="164.9" cy="92.2" r="1.9"/>
		<circle class="st13" cx="166.1" cy="57.9" r="1.9"/>
		<circle class="st13" cx="124.8" cy="86.5" r="1.9"/>
		<circle class="st13" cx="137.3" cy="51.6" r="0.7"/>
		<circle class="st13" cx="140" cy="66.2" r="0.7"/>
		<circle class="st13" cx="133.3" cy="74.8" r="0.7"/>
		<circle class="st13" cx="167.9" cy="66.2" r="0.7"/>
		<circle class="st13" cx="154.9" cy="70.8" r="0.7"/>
		<circle class="st13" cx="157.7" cy="51.6" r="0.7"/>
		<circle class="st13" cx="134.6" cy="91.5" r="0.7"/>
	</g>
</g>
<circle class="st28" cx="40.1" cy="157" r="29.4"/>
<g>
	<defs>
		<circle id="SVGID_33_" cx="40.1" cy="157" r="29.4"/>
	</defs>
	<clipPath id="SVGID_34_">
		<use xlink:href="#SVGID_33_"  style="overflow:visible;"/>
	</clipPath>
	<g class="st40">
		<path class="st30" d="M63.4,126c-10.8,31-37,50.8-54.2,43.7c-4.7-2-7.1-6.9-7.2-6.9s8.4,14.1,22.9,20.3c1.6,0.7,19.7,8,36.9-1.6
			c12.1-6.7,16.1-23.2,12.1-33.6C72.4,144.1,65,121.5,63.4,126z"/>
		<path class="st31" d="M74,132.6c-10.8,31-37,50.8-54.2,43.7c-4.7-2-7.1-6.9-7.2-6.9s8.4,14.2,23,20.3c1.6,0.7,19.7,8,36.9-1.6
			c12.1-6.7,16.1-23.2,12.1-33.6C83.1,150.8,75.6,128.1,74,132.6z"/>
		<path class="st32" d="M11,179.1c10.8-31,37-50.8,54.2-43.7c4.7,2,7.1,6.9,7.2,6.9S64,128.2,49.5,122c-1.6-0.7-19.6-8-36.9,1.6
			c-12.1,6.7-16.1,23.2-12.1,33.6C2,161,9.4,183.6,11,179.1z"/>
		<path class="st33" d="M39.4,85c-10.8,31-37,50.8-54.2,43.7c-4.7-2-7.1-6.9-7.2-6.9s8.4,14.2,22.9,20.3c1.6,0.7,19.6,8,36.9-1.6
			c12.1-6.7,16.1-23.2,12.1-33.6C48.4,103.2,41,80.5,39.4,85z"/>
	</g>
</g>
<g>
	<defs>
		<circle id="SVGID_35_" cx="40.1" cy="157" r="29.4"/>
	</defs>
	<clipPath id="SVGID_36_">
		<use xlink:href="#SVGID_35_"  style="overflow:visible;"/>
	</clipPath>
	<g class="st41">
		<g class="st11">
			<circle class="st35" cx="41.1" cy="156.9" r="5"/>
			<circle class="st35" cx="25.1" cy="134.5" r="5"/>
			<circle class="st35" cx="42.9" cy="180.2" r="3.1"/>
			<circle class="st35" cx="24" cy="148.4" r="3"/>
			<circle class="st35" cx="41.1" cy="141.5" r="1.9"/>
			<circle class="st35" cx="41.1" cy="168.7" r="1.9"/>
			<circle class="st35" cx="46.1" cy="129.5" r="1.9"/>
			<circle class="st35" cx="13.6" cy="157.6" r="1.9"/>
			<circle class="st35" cx="68.6" cy="159.5" r="1.9"/>
			<circle class="st35" cx="55" cy="161.9" r="1.9"/>
			<circle class="st35" cx="59.7" cy="175.1" r="1.9"/>
			<circle class="st35" cx="60.9" cy="140.8" r="1.9"/>
			<circle class="st35" cx="19.6" cy="169.4" r="1.9"/>
			<circle class="st35" cx="32.2" cy="134.5" r="0.7"/>
			<circle class="st35" cx="34.8" cy="149.1" r="0.7"/>
			<circle class="st35" cx="28.1" cy="157.6" r="0.7"/>
			<circle class="st35" cx="62.7" cy="149.1" r="0.7"/>
			<circle class="st35" cx="49.7" cy="153.7" r="0.7"/>
			<circle class="st35" cx="52.5" cy="134.5" r="0.7"/>
			<circle class="st35" cx="29.4" cy="174.4" r="0.7"/>
		</g>
		<circle class="st13" cx="40.1" cy="157" r="5"/>
		<circle class="st13" cx="24.2" cy="134.6" r="5"/>
		<circle class="st13" cx="42" cy="180.3" r="3.1"/>
		<circle class="st13" cx="23" cy="148.5" r="3"/>
		<circle class="st13" cx="40.1" cy="141.6" r="1.9"/>
		<circle class="st13" cx="40.1" cy="168.8" r="1.9"/>
		<circle class="st13" cx="45.1" cy="129.6" r="1.9"/>
		<circle class="st13" cx="12.6" cy="157.7" r="1.9"/>
		<circle class="st13" cx="67.6" cy="159.6" r="1.9"/>
		<circle class="st13" cx="54.1" cy="162" r="1.9"/>
		<circle class="st13" cx="58.8" cy="175.1" r="1.9"/>
		<circle class="st13" cx="59.9" cy="140.8" r="1.9"/>
		<circle class="st13" cx="18.6" cy="169.4" r="1.9"/>
		<circle class="st13" cx="31.2" cy="134.6" r="0.7"/>
		<circle class="st13" cx="33.9" cy="149.2" r="0.7"/>
		<circle class="st13" cx="27.1" cy="157.7" r="0.7"/>
		<circle class="st13" cx="61.8" cy="149.2" r="0.7"/>
		<circle class="st13" cx="48.8" cy="153.7" r="0.7"/>
		<circle class="st13" cx="51.5" cy="134.6" r="0.7"/>
		<circle class="st13" cx="28.5" cy="174.5" r="0.7"/>
	</g>
</g>
<circle class="st4" cx="51.6" cy="60.9" r="29.4"/>
<g>
	<defs>
		<circle id="SVGID_37_" cx="51.6" cy="60.9" r="29.4"/>
	</defs>
	<clipPath id="SVGID_38_">
		<use xlink:href="#SVGID_37_"  style="overflow:visible;"/>
	</clipPath>
	<g class="st42">
		<path class="st6" d="M74.9,29.8c-10.8,31-37,50.8-54.2,43.7c-4.7-2-7.1-6.9-7.2-6.9s8.4,14.2,22.9,20.3c1.6,0.7,19.7,8,36.9-1.6
			c12.1-6.7,16.1-23.2,12.1-33.6C84,48,76.5,25.3,74.9,29.8z"/>
		<path class="st7" d="M85.6,36.5c-10.8,31-37,50.8-54.2,43.7c-4.7-2-7.1-7-7.2-6.9S32.5,87.4,47,93.6c1.6,0.7,19.7,8,36.9-1.6
			C96,85.3,100,68.8,96,58.4C94.6,54.6,87.1,31.9,85.6,36.5z"/>
		<path class="st8" d="M22.5,83c10.8-31,37-50.8,54.3-43.7c4.7,2,7.1,6.9,7.2,6.9S75.5,32,61,25.9c-1.6-0.7-19.7-8-36.9,1.6
			C12.1,34.1,8,50.6,12,61.1C13.5,64.8,20.9,87.5,22.5,83z"/>
		<path class="st9" d="M50.9-11.1c-10.8,31-37,50.8-54.2,43.7c-4.7-2-7.1-6.9-7.2-6.9S-2.1,39.8,12.4,46c1.6,0.7,19.6,8,36.9-1.6
			c12.1-6.7,16.1-23.2,12.1-33.6C59.9,7,52.5-15.7,50.9-11.1z"/>
	</g>
</g>
<g>
	<defs>
		<circle id="SVGID_39_" cx="51.6" cy="60.9" r="29.4"/>
	</defs>
	<clipPath id="SVGID_40_">
		<use xlink:href="#SVGID_39_"  style="overflow:visible;"/>
	</clipPath>
	<g class="st43">
		<g class="st11">
			<circle class="st12" cx="52.6" cy="60.8" r="5"/>
			<circle class="st12" cx="36.6" cy="38.3" r="5"/>
			<circle class="st12" cx="54.5" cy="84" r="3.1"/>
			<circle class="st12" cx="35.5" cy="52.2" r="3"/>
			<circle class="st12" cx="52.6" cy="45.4" r="1.9"/>
			<circle class="st12" cx="52.6" cy="72.6" r="1.9"/>
			<circle class="st12" cx="57.6" cy="33.3" r="1.9"/>
			<circle class="st12" cx="25.1" cy="61.5" r="1.9"/>
			<circle class="st12" cx="80.1" cy="63.3" r="1.9"/>
			<circle class="st12" cx="66.5" cy="65.8" r="1.9"/>
			<circle class="st12" cx="71.2" cy="78.9" r="1.9"/>
			<circle class="st12" cx="72.4" cy="44.6" r="1.9"/>
			<circle class="st12" cx="31.1" cy="73.2" r="1.9"/>
			<circle class="st12" cx="43.7" cy="38.3" r="0.7"/>
			<circle class="st12" cx="46.3" cy="52.9" r="0.7"/>
			<circle class="st12" cx="39.6" cy="61.5" r="0.7"/>
			<circle class="st12" cx="74.2" cy="52.9" r="0.7"/>
			<circle class="st12" cx="61.2" cy="57.5" r="0.7"/>
			<circle class="st12" cx="64" cy="38.3" r="0.7"/>
			<circle class="st12" cx="41" cy="78.2" r="0.7"/>
		</g>
		<circle class="st13" cx="51.6" cy="60.9" r="5"/>
		<circle class="st13" cx="35.7" cy="38.4" r="5"/>
		<circle class="st13" cx="53.5" cy="84.1" r="3.1"/>
		<circle class="st13" cx="34.5" cy="52.3" r="3"/>
		<circle class="st13" cx="51.6" cy="45.4" r="1.9"/>
		<circle class="st13" cx="51.6" cy="72.6" r="1.9"/>
		<circle class="st13" cx="56.6" cy="33.4" r="1.9"/>
		<circle class="st13" cx="24.1" cy="61.5" r="1.9"/>
		<circle class="st13" cx="79.1" cy="63.4" r="1.9"/>
		<circle class="st13" cx="65.6" cy="65.9" r="1.9"/>
		<circle class="st13" cx="70.3" cy="79" r="1.9"/>
		<circle class="st13" cx="71.4" cy="44.7" r="1.9"/>
		<circle class="st13" cx="30.1" cy="73.3" r="1.9"/>
		<circle class="st13" cx="42.7" cy="38.4" r="0.7"/>
		<circle class="st13" cx="45.4" cy="53" r="0.7"/>
		<circle class="st13" cx="38.7" cy="61.5" r="0.7"/>
		<circle class="st13" cx="73.3" cy="53" r="0.7"/>
		<circle class="st13" cx="60.3" cy="57.6" r="0.7"/>
		<circle class="st13" cx="63" cy="38.4" r="0.7"/>
		<circle class="st13" cx="40" cy="78.3" r="0.7"/>
	</g>
</g>
<path class="st44" d="M8.5,19.7c4.5,0.4,8.3-1.9,8.6-5c0.4-5,0.6-7.6,1-12.6c-6.4-0.5-9.6-0.7-16-1.3C1.6,5.8,1.4,8.3,0.9,13.4
	C0.6,16.5,4,19.3,8.5,19.7z"/>
<path class="st45" d="M24.7,21c4.4,0.3,8.2-2,8.4-5.1c0.3-5.1,0.5-7.6,0.8-12.6c-6.3-0.4-9.5-0.6-15.8-1.1c-0.4,5.1-0.6,7.6-1,12.6
	C16.9,17.9,20.3,20.7,24.7,21z"/>
<path class="st44" d="M40.9,22c4.5,0.2,8.2-2.1,8.4-5.2l0.6-12.6c-6.4-0.3-9.6-0.5-16-0.9l-0.8,12.6C32.9,19,36.4,21.8,40.9,22z"/>
<path class="st45" d="M57.2,22.8c4.5,0.2,8.2-2.2,8.3-5.4l0.4-12.7c-6.4-0.2-9.6-0.3-16-0.6l-0.6,12.6
	C49.1,19.9,52.7,22.6,57.2,22.8z"/>
<path class="st44" d="M73.3,23.3c4.5,0.1,8.2-2.4,8.2-5.5c0.1-5.1,0.1-7.6,0.2-12.7C75.3,5,72.1,5,65.7,4.8
	c-0.2,5.1-0.2,7.6-0.4,12.7C65.2,20.5,68.8,23.2,73.3,23.3z"/>
<path class="st45" d="M89.7,23.6c4.6,0,8.3-2.5,8.3-5.6c0-5.1,0-7.6,0-12.7c-6.5,0-9.8,0-16.2-0.1c-0.1,5.1-0.1,7.6-0.2,12.7
	C81.4,20.9,85.1,23.5,89.7,23.6z"/>
<path class="st44" d="M105.7,23.6c4.5,0,8.1-2.6,8-5.7c-0.1-5.1-0.1-7.6-0.2-12.7c-6.4,0.1-9.5,0.1-15.9,0.1V18
	C97.6,21.1,101.2,23.6,105.7,23.6z"/>
<path class="st45" d="M122.1,23.3c4.6-0.1,8.3-2.8,8.2-5.9c-0.1-5.1-0.2-7.6-0.4-12.7c-6.6,0.2-9.9,0.3-16.4,0.4
	c0.1,5.1,0.1,7.6,0.2,12.7C113.7,21,117.5,23.4,122.1,23.3z"/>
<path class="st44" d="M138.1,22.8c4.4-0.2,7.9-2.9,7.8-6c-0.2-5.1-0.4-7.6-0.6-12.6c-6.3,0.3-9.5,0.4-15.9,0.6
	c0.2,5.1,0.2,7.6,0.4,12.7C129.9,20.6,133.6,23,138.1,22.8z"/>
<path class="st45" d="M154.6,22c4.7-0.3,8.3-3,8.1-6.1c-0.3-5.1-0.5-7.6-0.8-12.6c-6.6,0.4-10,0.6-16.6,0.9
	c0.2,5.1,0.4,7.6,0.6,12.6C146,20,150,22.3,154.6,22z"/>
<path class="st44" d="M170.5,21.1c4.4-0.3,7.8-3.1,7.6-6.2c-0.4-5.1-0.6-7.6-1-12.6c-6.3,0.5-9.5,0.7-15.8,1.1
	c0.3,5,0.5,7.6,0.8,12.6C162.3,19.1,166,21.4,170.5,21.1z"/>
<path class="st45" d="M187.1,19.8c4.7-0.4,8.3-3.3,8-6.4c-0.5-5-0.7-7.6-1.2-12.6c-6.7,0.6-10.1,0.9-16.8,1.5
	c0.4,5.1,0.6,7.6,1,12.6C178.3,17.9,182.3,20.2,187.1,19.8z"/>
<path class="st46" d="M193.6,7.1c-63.8,5.6-127.9,5.6-191.6,0L2,5.8c63.7,5.6,127.7,5.6,191.4,0L193.6,7.1z"/>
<path class="st46" d="M194,12.1C129.9,17.7,65.5,17.6,1.5,12l0.1-1.2c64,5.6,128.4,5.6,192.4,0.1L194,12.1z"/>
<g>
	<defs>
		<path id="SVGID_41_" d="M148.9,9.1c-23.5,0-50,1-68.7,0S3.6,1.7,3.6,1.7c-1,8.8,1.1,102.4,3,115.1s1.8,54.5,1.8,54.5
			c0,18.7,37.8,33.9,84.4,33.9s84.4-15.2,84.4-33.9L192.1,3.8C178,7.3,163.4,9.1,148.9,9.1z"/>
	</defs>
	<clipPath id="SVGID_42_">
		<use xlink:href="#SVGID_41_"  style="overflow:visible;"/>
	</clipPath>
	<g class="st47">
		
			<rect x="-14.7" y="86.6" transform="matrix(0.7071 -0.7071 0.7071 0.7071 -41.0644 107.8401)" class="st48" width="248.7" height="33.8"/>
		<polygon class="st48" points="-26.3,100.2 -29.7,90.6 64.1,64.4 161.9,15.7 138.9,41.5 66.1,99.5 		"/>
	</g>
</g>
<g>
	<g>
		<g>
			<g>
				
					<ellipse transform="matrix(0.1479 -0.989 0.989 0.1479 13.8095 155.652)" class="st49" cx="97.2" cy="69.8" rx="12.3" ry="12.8"/>
				
					<ellipse transform="matrix(0.1479 -0.989 0.989 0.1479 25.3707 188.2572)" class="st49" cx="121.9" cy="79.4" rx="12.3" ry="12.8"/>
				
					<ellipse transform="matrix(0.1479 -0.989 0.989 0.1479 10.9634 218.7433)" class="st49" cx="132.4" cy="103" rx="12.3" ry="12.8"/>
				
					<ellipse transform="matrix(0.1479 -0.989 0.989 0.1479 -20.8573 229.0074)" class="st49" cx="122.5" cy="126.6" rx="12.3" ry="12.8"/>
				
					<ellipse transform="matrix(0.1479 -0.989 0.989 0.1479 -51.1958 212.9545)" class="st49" cx="98" cy="136.2" rx="12.3" ry="12.8"/>
				
					<ellipse transform="matrix(0.1479 -0.989 0.989 0.1479 -62.0368 180.117)" class="st49" cx="73.5" cy="126.1" rx="12.3" ry="12.8"/>
				
					<ellipse transform="matrix(0.1479 -0.989 0.989 0.1479 -46.9426 149.9942)" class="st49" cx="63.6" cy="102.2" rx="12.3" ry="12.8"/>
				
					<ellipse transform="matrix(0.1479 -0.989 0.989 0.1479 -14.8765 140.4735)" class="st49" cx="74.1" cy="78.9" rx="12.3" ry="12.8"/>
			</g>
		</g>
		<ellipse transform="matrix(0.1479 -0.989 0.989 0.1479 -18.3927 184.6884)" class="st49" cx="98" cy="103" rx="38.1" ry="39.6"/>
		<ellipse transform="matrix(0.1479 -0.989 0.989 0.1479 -18.3927 184.6884)" class="st50" cx="98" cy="103" rx="31.2" ry="32.5"/>
	</g>
	<g>
		<path class="st2" d="M90.1,89.2l-1,23l-6-0.3l0.8-18.7L78.6,93l0.2-4.3L90.1,89.2z"/>
		<path class="st2" d="M99,111.6c-1.6-1-2.9-2.4-3.8-4.3c-0.9-1.8-1.3-4-1.1-6.4c0.1-2.5,0.7-4.6,1.7-6.3c1-1.7,2.4-3,4.1-3.9
			c1.7-0.9,3.7-1.3,5.8-1.2c2.2,0.1,4.1,0.7,5.7,1.7c1.6,1,2.9,2.4,3.8,4.3c0.9,1.8,1.3,4,1.1,6.4c-0.1,2.5-0.7,4.6-1.7,6.3
			c-1,1.7-2.4,3-4.1,3.9c-1.7,0.9-3.7,1.2-5.8,1.2C102.6,113.2,100.7,112.6,99,111.6z M108.8,107.1c1-1.2,1.5-3,1.6-5.5
			c0.1-2.5-0.3-4.4-1.1-5.6c-0.9-1.2-2.1-1.9-3.7-2c-1.6-0.1-2.8,0.5-3.8,1.6c-1,1.2-1.5,3-1.6,5.5c-0.1,2.5,0.3,4.4,1.1,5.6
			c0.9,1.2,2.1,1.9,3.6,2C106.5,108.8,107.8,108.3,108.8,107.1z"/>
	</g>
</g>
</svg>
