<svg id="b4fdc77f-d144-4dbf-b853-ee2819ec5f42" data-name="Layer 1" xmlns="http://www.w3.org/2000/svg" xmlns:xlink="http://www.w3.org/1999/xlink" viewBox="0 0 164 228"><defs><clipPath id="ebdc9b5b-2ddd-4d6d-b25f-97e26c4ea7a6"><rect x="20.56" y="0.25" width="3.94" height="182.91" style="fill:none"/></clipPath><clipPath id="aafe1126-ec54-48b0-9945-dfcf1e325d3f"><rect x="139.56" y="0.25" width="3.94" height="182.91" style="fill:none"/></clipPath></defs><path d="M151,215.26l12.59-1.33V201.05l-14.36-1.89s8.41-.36,14.36-.58v-4.14c0-4.38-4.2-7.94-9.37-7.94H9.75c-5.17,0-9.37,3.56-9.37,7.94v3.32l10.41.65L.38,200.05v12.21l3.78.76L.38,214.13V219c0,4.38,4.2,7.94,9.37,7.94h144.5c5.17,0,9.37-3.56,9.37-7.94v-.67Z" style="fill:#42220c"/><path d="M151,212.27l12.59-1.33V198.05l-14.36-1.89s8.41-.35,14.36-.58v-4.13c0-4.39-4.2-7.94-9.37-7.94H9.75c-5.17,0-9.37,3.55-9.37,7.94v3.32l10.41.64L.38,197.05v12.21l3.78.76L.38,211.13V216c0,4.39,4.2,7.94,9.37,7.94h144.5c5.17,0,9.37-3.55,9.37-7.94v-.67Z" style="fill:#774d0b"/><path d="M138.82,196.33h7" style="fill:none;stroke:#44300c;stroke-linecap:round;stroke-miterlimit:10;stroke-width:0.920155465602875px"/><path d="M124.22,196.31H134" style="fill:none;stroke:#44300c;stroke-linecap:round;stroke-miterlimit:10;stroke-width:0.920155465602875px"/><path d="M115.18,196.29h3.47" style="fill:none;stroke:#44300c;stroke-linecap:round;stroke-miterlimit:10;stroke-width:0.920155465602875px"/><path d="M78.32,196.19l4.87,0" style="fill:none;stroke:#44300c;stroke-linecap:round;stroke-miterlimit:10;stroke-width:0.920155465602875px"/><path d="M56.63,196.06q8.46.06,16.92.1" style="fill:none;stroke:#44300c;stroke-linecap:round;stroke-miterlimit:10;stroke-width:0.920155465602875px"/><path d="M45.48,195.69l6.27.23" style="fill:none;stroke:#44300c;stroke-linecap:round;stroke-miterlimit:10;stroke-width:0.920155465602875px"/><path d="M19.09,195.48q6.61,0,13.22,0" style="fill:none;stroke:#44300c;stroke-linecap:round;stroke-miterlimit:10;stroke-width:0.920155465602875px"/><path d="M7.73,195.41l6.75.05" style="fill:none;stroke:#44300c;stroke-linecap:round;stroke-miterlimit:10;stroke-width:0.920155465602875px"/><path d="M138,191.14h9.74" style="fill:none;stroke:#44300c;stroke-linecap:round;stroke-miterlimit:10;stroke-width:0.920155465602875px"/><path d="M151.34,191.09h3.48" style="fill:none;stroke:#44300c;stroke-linecap:round;stroke-miterlimit:10;stroke-width:0.920155465602875px"/><path d="M114.48,191l4.87,0" style="fill:none;stroke:#44300c;stroke-linecap:round;stroke-miterlimit:10;stroke-width:0.920155465602875px"/><path d="M92.79,190.87l16.93.1" style="fill:none;stroke:#44300c;stroke-linecap:round;stroke-miterlimit:10;stroke-width:0.920155465602875px"/><path d="M81.65,190.49l6.27.23" style="fill:none;stroke:#44300c;stroke-linecap:round;stroke-miterlimit:10;stroke-width:0.920155465602875px"/><path d="M55.25,190.29c4.41,0,8.82,0,13.23,0" style="fill:none;stroke:#44300c;stroke-linecap:round;stroke-miterlimit:10;stroke-width:0.920155465602875px"/><path d="M43.9,190.22l6.74,0" style="fill:none;stroke:#44300c;stroke-linecap:round;stroke-miterlimit:10;stroke-width:0.920155465602875px"/><path d="M156.37,206.28h7.14" style="fill:none;stroke:#44300c;stroke-linecap:round;stroke-miterlimit:10;stroke-width:0.787924923599958px"/><path d="M143.77,206.26h4.84" style="fill:none;stroke:#44300c;stroke-linecap:round;stroke-miterlimit:10;stroke-width:1.08639898748452px"/><path d="M121.4,205.6h7" style="fill:none;stroke:#44300c;stroke-linecap:round;stroke-miterlimit:10;stroke-width:0.920155465602875px"/><path d="M106.8,205.58h9.74" style="fill:none;stroke:#44300c;stroke-linecap:round;stroke-miterlimit:10;stroke-width:0.920155465602875px"/><path d="M97.76,205.56h3.48" style="fill:none;stroke:#44300c;stroke-linecap:round;stroke-miterlimit:10;stroke-width:0.920155465602875px"/><path d="M60.9,205.46l4.87,0" style="fill:none;stroke:#44300c;stroke-linecap:round;stroke-miterlimit:10;stroke-width:0.920155465602875px"/><path d="M39.21,205.33q8.46.06,16.92.1" style="fill:none;stroke:#44300c;stroke-linecap:round;stroke-miterlimit:10;stroke-width:0.920155465602875px"/><path d="M28.07,205l6.26.23" style="fill:none;stroke:#44300c;stroke-linecap:round;stroke-miterlimit:10;stroke-width:0.920155465602875px"/><path d="M1.67,204.75q6.62,0,13.22,0" style="fill:none;stroke:#44300c;stroke-linecap:round;stroke-miterlimit:10;stroke-width:0.920155465602875px"/><path d="M151.6,219.22h7" style="fill:none;stroke:#44300c;stroke-linecap:round;stroke-miterlimit:10;stroke-width:0.920155465602875px"/><path d="M137,219.2h9.74" style="fill:none;stroke:#44300c;stroke-linecap:round;stroke-miterlimit:10;stroke-width:0.920155465602875px"/><path d="M128,219.19h3.48" style="fill:none;stroke:#44300c;stroke-linecap:round;stroke-miterlimit:10;stroke-width:0.920155465602875px"/><path d="M91.09,219.08l4.87,0" style="fill:none;stroke:#44300c;stroke-linecap:round;stroke-miterlimit:10;stroke-width:0.920155465602875px"/><path d="M69.4,219l16.92.1" style="fill:none;stroke:#44300c;stroke-linecap:round;stroke-miterlimit:10;stroke-width:0.920155465602875px"/><path d="M58.26,218.59l6.27.22" style="fill:none;stroke:#44300c;stroke-linecap:round;stroke-miterlimit:10;stroke-width:0.920155465602875px"/><path d="M31.86,218.38q6.62,0,13.23,0" style="fill:none;stroke:#44300c;stroke-linecap:round;stroke-miterlimit:10;stroke-width:0.920155465602875px"/><path d="M20.5,218.31l6.75,0" style="fill:none;stroke:#44300c;stroke-linecap:round;stroke-miterlimit:10;stroke-width:0.920155465602875px"/><path d="M66.49,213.88h7" style="fill:none;stroke:#44300c;stroke-linecap:round;stroke-miterlimit:10;stroke-width:0.920155465602875px"/><path d="M51.89,213.86l9.73,0" style="fill:none;stroke:#44300c;stroke-linecap:round;stroke-miterlimit:10;stroke-width:0.920155465602875px"/><path d="M42.85,213.85h3.47" style="fill:none;stroke:#44300c;stroke-linecap:round;stroke-miterlimit:10;stroke-width:0.920155465602875px"/><path d="M152.64,214.73l4.87,0" style="fill:none;stroke:#44300c;stroke-linecap:round;stroke-miterlimit:10;stroke-width:0.920155465602875px"/><path d="M131,214.6l16.92.11" style="fill:none;stroke:#44300c;stroke-linecap:round;stroke-miterlimit:10;stroke-width:0.920155465602875px"/><path d="M119.81,214.23l6.26.23" style="fill:none;stroke:#44300c;stroke-linecap:round;stroke-miterlimit:10;stroke-width:0.920155465602875px"/><path d="M93.41,214q6.61,0,13.23,0" style="fill:none;stroke:#44300c;stroke-linecap:round;stroke-miterlimit:10;stroke-width:0.920155465602875px"/><path d="M82.05,214l6.75.05" style="fill:none;stroke:#44300c;stroke-linecap:round;stroke-miterlimit:10;stroke-width:0.920155465602875px"/><path d="M15.6,214q6.62,0,13.23,0" style="fill:none;stroke:#44300c;stroke-linecap:round;stroke-miterlimit:10;stroke-width:0.920155465602875px"/><path d="M4.25,214,11,214" style="fill:none;stroke:#44300c;stroke-linecap:round;stroke-miterlimit:10;stroke-width:0.920155465602875px"/><path d="M30.33,190.14h7" style="fill:none;stroke:#44300c;stroke-linecap:round;stroke-miterlimit:10;stroke-width:0.920155465602875px"/><path d="M15.72,190.13h9.74" style="fill:none;stroke:#44300c;stroke-linecap:round;stroke-miterlimit:10;stroke-width:0.920155465602875px"/><path d="M6.68,190.11h3.48" style="fill:none;stroke:#44300c;stroke-linecap:round;stroke-miterlimit:10;stroke-width:0.920155465602875px"/><path d="M110.75,219.15l6.75,0" style="fill:none;stroke:#44300c;stroke-linecap:round;stroke-miterlimit:10;stroke-width:0.920155465602875px"/><rect x="20.67" width="3.65" height="183.15" style="fill:#938e80"/><g style="clip-path:url(#ebdc9b5b-2ddd-4d6d-b25f-97e26c4ea7a6)"><path d="M21.11,1.7a.56.56,0,0,1-.39-.17.54.54,0,0,1,0-.78l2.6-2.6a.56.56,0,0,1,.79,0,.56.56,0,0,1,0,.78L21.5,1.53A.56.56,0,0,1,21.11,1.7Z" style="fill:#66442b"/><path d="M21.11,4a.59.59,0,0,1-.39-.16.56.56,0,0,1,0-.79l2.6-2.6a.56.56,0,0,1,.79,0,.56.56,0,0,1,0,.78L21.5,3.8A.59.59,0,0,1,21.11,4Z" style="fill:#66442b"/><path d="M21.11,6.22a.59.59,0,0,1-.39-.16.56.56,0,0,1,0-.79l2.6-2.6a.56.56,0,0,1,.79,0,.56.56,0,0,1,0,.78L21.5,6.06A.59.59,0,0,1,21.11,6.22Z" style="fill:#66442b"/><path d="M21.11,8.48a.59.59,0,0,1-.39-.16.54.54,0,0,1,0-.78l2.6-2.61a.56.56,0,0,1,.79,0,.56.56,0,0,1,0,.78L21.5,8.32A.59.59,0,0,1,21.11,8.48Z" style="fill:#66442b"/><path d="M21.11,10.74a.55.55,0,0,1-.39-.94l2.6-2.61a.56.56,0,0,1,.79,0,.56.56,0,0,1,0,.78L21.5,10.58A.54.54,0,0,1,21.11,10.74Z" style="fill:#66442b"/><path d="M21.11,13a.55.55,0,0,1-.39-.94l2.6-2.61a.56.56,0,0,1,.79,0,.56.56,0,0,1,0,.78L21.5,12.84A.54.54,0,0,1,21.11,13Z" style="fill:#66442b"/><path d="M21.11,15.26a.55.55,0,0,1-.39-.94l2.6-2.61a.57.57,0,0,1,.79,0,.56.56,0,0,1,0,.78L21.5,15.1A.54.54,0,0,1,21.11,15.26Z" style="fill:#66442b"/><path d="M21.11,17.52a.55.55,0,0,1-.39-.94L23.32,14a.57.57,0,0,1,.79,0,.56.56,0,0,1,0,.78L21.5,17.36A.54.54,0,0,1,21.11,17.52Z" style="fill:#66442b"/><path d="M21.11,19.78a.55.55,0,0,1-.39-.94l2.6-2.61a.57.57,0,0,1,.79,0,.56.56,0,0,1,0,.78L21.5,19.62A.54.54,0,0,1,21.11,19.78Z" style="fill:#66442b"/><path d="M21.11,22a.55.55,0,0,1-.39-.94l2.6-2.61a.56.56,0,1,1,.79.79l-2.61,2.6A.54.54,0,0,1,21.11,22Z" style="fill:#66442b"/><path d="M21.11,24.3a.55.55,0,0,1-.39-.94l2.6-2.61a.56.56,0,0,1,.79.79l-2.61,2.6A.54.54,0,0,1,21.11,24.3Z" style="fill:#66442b"/><path d="M21.11,26.57a.56.56,0,0,1-.39-.17.54.54,0,0,1,0-.78l2.6-2.6a.56.56,0,0,1,.79,0,.56.56,0,0,1,0,.78L21.5,26.4A.56.56,0,0,1,21.11,26.57Z" style="fill:#66442b"/><path d="M21.11,28.83a.56.56,0,0,1-.39-.17.54.54,0,0,1,0-.78l2.6-2.6a.56.56,0,0,1,.79,0,.56.56,0,0,1,0,.78l-2.61,2.6A.56.56,0,0,1,21.11,28.83Z" style="fill:#66442b"/><path d="M21.11,31.09a.56.56,0,0,1-.39-.17.54.54,0,0,1,0-.78l2.6-2.6a.56.56,0,0,1,.79,0,.56.56,0,0,1,0,.78l-2.61,2.6A.56.56,0,0,1,21.11,31.09Z" style="fill:#66442b"/><path d="M21.11,33.35a.59.59,0,0,1-.39-.16.56.56,0,0,1,0-.79l2.6-2.6a.56.56,0,0,1,.79,0,.56.56,0,0,1,0,.78L21.5,33.19A.59.59,0,0,1,21.11,33.35Z" style="fill:#66442b"/><path d="M21.11,35.61a.59.59,0,0,1-.39-.16.56.56,0,0,1,0-.79l2.6-2.6a.56.56,0,0,1,.79,0,.56.56,0,0,1,0,.78L21.5,35.45A.59.59,0,0,1,21.11,35.61Z" style="fill:#66442b"/><path d="M21.11,37.87a.55.55,0,0,1-.39-.94l2.6-2.61a.56.56,0,0,1,.79,0,.56.56,0,0,1,0,.78L21.5,37.71A.54.54,0,0,1,21.11,37.87Z" style="fill:#66442b"/><path d="M21.11,40.13a.55.55,0,0,1-.39-.94l2.6-2.61a.56.56,0,0,1,.79,0,.56.56,0,0,1,0,.78L21.5,40A.54.54,0,0,1,21.11,40.13Z" style="fill:#66442b"/><path d="M21.11,42.39a.55.55,0,0,1-.39-.94l2.6-2.61a.57.57,0,0,1,.79,0,.56.56,0,0,1,0,.78L21.5,42.23A.54.54,0,0,1,21.11,42.39Z" style="fill:#66442b"/><path d="M21.11,44.65a.55.55,0,0,1-.39-.94l2.6-2.61a.57.57,0,0,1,.79,0,.56.56,0,0,1,0,.78L21.5,44.49A.54.54,0,0,1,21.11,44.65Z" style="fill:#66442b"/><path d="M21.11,46.91a.55.55,0,0,1-.39-.94l2.6-2.61a.57.57,0,0,1,.79,0,.56.56,0,0,1,0,.78L21.5,46.75A.54.54,0,0,1,21.11,46.91Z" style="fill:#66442b"/><path d="M21.11,49.17a.55.55,0,0,1-.39-.94l2.6-2.61a.57.57,0,0,1,.79,0,.56.56,0,0,1,0,.78L21.5,49A.54.54,0,0,1,21.11,49.17Z" style="fill:#66442b"/><path d="M21.11,51.43a.55.55,0,0,1-.39-.94l2.6-2.61a.56.56,0,0,1,.79.79l-2.61,2.6A.54.54,0,0,1,21.11,51.43Z" style="fill:#66442b"/><path d="M21.11,53.69a.55.55,0,0,1-.39-.94l2.6-2.61a.56.56,0,1,1,.79.79l-2.61,2.6A.54.54,0,0,1,21.11,53.69Z" style="fill:#66442b"/><path d="M21.11,56a.56.56,0,0,1-.39-.17.54.54,0,0,1,0-.78l2.6-2.6a.56.56,0,0,1,.79,0,.56.56,0,0,1,0,.78l-2.61,2.6A.56.56,0,0,1,21.11,56Z" style="fill:#66442b"/><path d="M21.11,58.22a.56.56,0,0,1-.39-.17.54.54,0,0,1,0-.78l2.6-2.6a.56.56,0,0,1,.79,0,.56.56,0,0,1,0,.78l-2.61,2.6A.56.56,0,0,1,21.11,58.22Z" style="fill:#66442b"/><path d="M21.11,60.48a.56.56,0,0,1-.39-.17.54.54,0,0,1,0-.78l2.6-2.6a.56.56,0,0,1,.79,0,.56.56,0,0,1,0,.78l-2.61,2.6A.56.56,0,0,1,21.11,60.48Z" style="fill:#66442b"/><path d="M21.11,62.74a.59.59,0,0,1-.39-.16.56.56,0,0,1,0-.79l2.6-2.6a.56.56,0,0,1,.79,0,.56.56,0,0,1,0,.78L21.5,62.58A.59.59,0,0,1,21.11,62.74Z" style="fill:#66442b"/><path d="M21.11,65a.59.59,0,0,1-.39-.16.56.56,0,0,1,0-.79l2.6-2.6a.56.56,0,0,1,.79,0,.56.56,0,0,1,0,.78L21.5,64.84A.59.59,0,0,1,21.11,65Z" style="fill:#66442b"/><path d="M21.11,67.26a.55.55,0,0,1-.39-.94l2.6-2.61a.56.56,0,0,1,.79,0,.56.56,0,0,1,0,.78L21.5,67.1A.54.54,0,0,1,21.11,67.26Z" style="fill:#66442b"/><path d="M21.11,69.52a.55.55,0,0,1-.39-.94L23.32,66a.56.56,0,0,1,.79,0,.56.56,0,0,1,0,.78L21.5,69.36A.54.54,0,0,1,21.11,69.52Z" style="fill:#66442b"/><path d="M21.11,71.78a.55.55,0,0,1-.39-.94l2.6-2.61a.57.57,0,0,1,.79,0,.56.56,0,0,1,0,.78L21.5,71.62A.54.54,0,0,1,21.11,71.78Z" style="fill:#66442b"/><path d="M21.11,74a.55.55,0,0,1-.39-.94l2.6-2.61a.57.57,0,0,1,.79,0,.56.56,0,0,1,0,.78L21.5,73.88A.54.54,0,0,1,21.11,74Z" style="fill:#66442b"/><path d="M21.11,76.3a.55.55,0,0,1-.39-.94l2.6-2.61a.57.57,0,0,1,.79,0,.56.56,0,0,1,0,.78L21.5,76.14A.54.54,0,0,1,21.11,76.3Z" style="fill:#66442b"/><path d="M21.11,78.56a.55.55,0,0,1-.39-.94L23.32,75a.56.56,0,0,1,.79.79L21.5,78.4A.54.54,0,0,1,21.11,78.56Z" style="fill:#66442b"/><path d="M21.11,80.82a.55.55,0,0,1-.39-.94l2.6-2.61a.56.56,0,1,1,.79.79l-2.61,2.6A.54.54,0,0,1,21.11,80.82Z" style="fill:#66442b"/><path d="M21.11,83.08a.55.55,0,0,1-.39-.94l2.6-2.6a.56.56,0,0,1,.79,0,.56.56,0,0,1,0,.78l-2.61,2.6A.54.54,0,0,1,21.11,83.08Z" style="fill:#66442b"/><path d="M21.11,85.35a.56.56,0,0,1-.39-.17.54.54,0,0,1,0-.78l2.6-2.6a.56.56,0,0,1,.79,0,.56.56,0,0,1,0,.78l-2.61,2.6A.56.56,0,0,1,21.11,85.35Z" style="fill:#66442b"/><path d="M21.11,87.61a.56.56,0,0,1-.39-.17.54.54,0,0,1,0-.78l2.6-2.6a.56.56,0,0,1,.79,0,.56.56,0,0,1,0,.78l-2.61,2.6A.56.56,0,0,1,21.11,87.61Z" style="fill:#66442b"/><path d="M21.11,89.87a.59.59,0,0,1-.39-.16.56.56,0,0,1,0-.79l2.6-2.6a.56.56,0,0,1,.79,0,.56.56,0,0,1,0,.78L21.5,89.71A.59.59,0,0,1,21.11,89.87Z" style="fill:#66442b"/><path d="M21.11,92.13a.59.59,0,0,1-.39-.16.56.56,0,0,1,0-.79l2.6-2.6a.56.56,0,0,1,.79,0,.56.56,0,0,1,0,.78L21.5,92A.59.59,0,0,1,21.11,92.13Z" style="fill:#66442b"/><path d="M21.11,94.39a.59.59,0,0,1-.39-.16.54.54,0,0,1,0-.78l2.6-2.61a.56.56,0,0,1,.79,0,.56.56,0,0,1,0,.78L21.5,94.23A.59.59,0,0,1,21.11,94.39Z" style="fill:#66442b"/><path d="M21.11,96.65a.55.55,0,0,1-.39-.94l2.6-2.61a.56.56,0,0,1,.79,0,.56.56,0,0,1,0,.78L21.5,96.49A.54.54,0,0,1,21.11,96.65Z" style="fill:#66442b"/><path d="M21.11,98.91a.55.55,0,0,1-.39-.94l2.6-2.61a.56.56,0,0,1,.79,0,.56.56,0,0,1,0,.78L21.5,98.75A.54.54,0,0,1,21.11,98.91Z" style="fill:#66442b"/><path d="M21.11,101.17a.55.55,0,0,1-.39-.94l2.6-2.61a.57.57,0,0,1,.79,0,.56.56,0,0,1,0,.78L21.5,101A.54.54,0,0,1,21.11,101.17Z" style="fill:#66442b"/><path d="M21.11,103.43a.55.55,0,0,1-.39-.94l2.6-2.61a.57.57,0,0,1,.79,0,.56.56,0,0,1,0,.78l-2.61,2.61A.54.54,0,0,1,21.11,103.43Z" style="fill:#66442b"/><path d="M21.11,105.69a.55.55,0,0,1-.39-.94l2.6-2.61a.57.57,0,0,1,.79,0,.56.56,0,0,1,0,.78l-2.61,2.61A.54.54,0,0,1,21.11,105.69Z" style="fill:#66442b"/><path d="M21.11,108a.55.55,0,0,1-.39-.94l2.6-2.61a.56.56,0,0,1,.79.79l-2.61,2.6A.54.54,0,0,1,21.11,108Z" style="fill:#66442b"/><path d="M21.11,110.21a.55.55,0,0,1-.39-.94l2.6-2.61a.56.56,0,0,1,.79.79l-2.61,2.6A.54.54,0,0,1,21.11,110.21Z" style="fill:#66442b"/><path d="M21.11,112.47a.55.55,0,0,1-.39-.94l2.6-2.6a.56.56,0,0,1,.79,0,.56.56,0,0,1,0,.78l-2.61,2.6A.54.54,0,0,1,21.11,112.47Z" style="fill:#66442b"/><path d="M21.11,114.74a.56.56,0,0,1-.39-.17.54.54,0,0,1,0-.78l2.6-2.6a.56.56,0,0,1,.79,0,.56.56,0,0,1,0,.78l-2.61,2.6A.56.56,0,0,1,21.11,114.74Z" style="fill:#66442b"/><path d="M21.11,117a.56.56,0,0,1-.39-.17.54.54,0,0,1,0-.78l2.6-2.6a.56.56,0,0,1,.79,0,.56.56,0,0,1,0,.78l-2.61,2.6A.56.56,0,0,1,21.11,117Z" style="fill:#66442b"/><path d="M21.11,119.26a.59.59,0,0,1-.39-.16.56.56,0,0,1,0-.79l2.6-2.6a.56.56,0,0,1,.79,0,.56.56,0,0,1,0,.78L21.5,119.1A.59.59,0,0,1,21.11,119.26Z" style="fill:#66442b"/><path d="M21.11,121.52a.59.59,0,0,1-.39-.16.56.56,0,0,1,0-.79l2.6-2.6a.56.56,0,0,1,.79,0,.56.56,0,0,1,0,.78l-2.61,2.61A.59.59,0,0,1,21.11,121.52Z" style="fill:#66442b"/><path d="M21.11,123.78a.59.59,0,0,1-.39-.16.54.54,0,0,1,0-.78l2.6-2.61a.56.56,0,0,1,.79,0,.56.56,0,0,1,0,.78l-2.61,2.61A.59.59,0,0,1,21.11,123.78Z" style="fill:#66442b"/><path d="M21.11,126a.55.55,0,0,1-.39-.94l2.6-2.61a.56.56,0,0,1,.79,0,.56.56,0,0,1,0,.78l-2.61,2.61A.54.54,0,0,1,21.11,126Z" style="fill:#66442b"/><path d="M21.11,128.3a.55.55,0,0,1-.39-.94l2.6-2.61a.56.56,0,0,1,.79,0,.56.56,0,0,1,0,.78l-2.61,2.61A.54.54,0,0,1,21.11,128.3Z" style="fill:#66442b"/><path d="M21.11,130.56a.55.55,0,0,1-.39-.94l2.6-2.61a.57.57,0,0,1,.79,0,.56.56,0,0,1,0,.78L21.5,130.4A.54.54,0,0,1,21.11,130.56Z" style="fill:#66442b"/><path d="M21.11,132.82a.55.55,0,0,1-.39-.94l2.6-2.61a.57.57,0,0,1,.79,0,.56.56,0,0,1,0,.78l-2.61,2.61A.54.54,0,0,1,21.11,132.82Z" style="fill:#66442b"/><path d="M21.11,135.08a.55.55,0,0,1-.39-.94l2.6-2.61a.57.57,0,0,1,.79,0,.56.56,0,0,1,0,.78l-2.61,2.61A.54.54,0,0,1,21.11,135.08Z" style="fill:#66442b"/><path d="M21.11,137.34a.55.55,0,0,1-.39-.94l2.6-2.61a.56.56,0,0,1,.79.79l-2.61,2.6A.54.54,0,0,1,21.11,137.34Z" style="fill:#66442b"/><path d="M21.11,139.6a.55.55,0,0,1-.39-.94l2.6-2.61a.56.56,0,1,1,.79.79l-2.61,2.6A.54.54,0,0,1,21.11,139.6Z" style="fill:#66442b"/><path d="M21.11,141.87a.56.56,0,0,1-.39-.17.54.54,0,0,1,0-.78l2.6-2.6a.56.56,0,0,1,.79,0,.56.56,0,0,1,0,.78l-2.61,2.6A.56.56,0,0,1,21.11,141.87Z" style="fill:#66442b"/><path d="M21.11,144.13a.56.56,0,0,1-.39-.17.54.54,0,0,1,0-.78l2.6-2.6a.56.56,0,0,1,.79,0,.56.56,0,0,1,0,.78L21.5,144A.56.56,0,0,1,21.11,144.13Z" style="fill:#66442b"/><path d="M21.11,146.39a.56.56,0,0,1-.39-.17.54.54,0,0,1,0-.78l2.6-2.6a.56.56,0,0,1,.79,0,.56.56,0,0,1,0,.78l-2.61,2.6A.56.56,0,0,1,21.11,146.39Z" style="fill:#66442b"/><path d="M21.11,148.65a.59.59,0,0,1-.39-.16.56.56,0,0,1,0-.79l2.6-2.6a.56.56,0,0,1,.79,0,.56.56,0,0,1,0,.78l-2.61,2.61A.59.59,0,0,1,21.11,148.65Z" style="fill:#66442b"/><path d="M21.11,150.91a.59.59,0,0,1-.39-.16.56.56,0,0,1,0-.79l2.6-2.6a.56.56,0,0,1,.79,0,.56.56,0,0,1,0,.78l-2.61,2.61A.59.59,0,0,1,21.11,150.91Z" style="fill:#66442b"/><path d="M21.11,153.17a.55.55,0,0,1-.39-.94l2.6-2.61a.56.56,0,0,1,.79,0,.56.56,0,0,1,0,.78L21.5,153A.54.54,0,0,1,21.11,153.17Z" style="fill:#66442b"/><path d="M21.11,155.43a.55.55,0,0,1-.39-.94l2.6-2.61a.56.56,0,0,1,.79,0,.56.56,0,0,1,0,.78l-2.61,2.61A.54.54,0,0,1,21.11,155.43Z" style="fill:#66442b"/><path d="M21.11,157.69a.55.55,0,0,1-.39-.94l2.6-2.61a.57.57,0,0,1,.79,0,.56.56,0,0,1,0,.78l-2.61,2.61A.54.54,0,0,1,21.11,157.69Z" style="fill:#66442b"/><path d="M21.11,160a.55.55,0,0,1-.39-.94l2.6-2.61a.57.57,0,0,1,.79,0,.56.56,0,0,1,0,.78l-2.61,2.61A.54.54,0,0,1,21.11,160Z" style="fill:#66442b"/><path d="M21.11,162.21a.55.55,0,0,1-.39-.94l2.6-2.61a.57.57,0,0,1,.79,0,.56.56,0,0,1,0,.78l-2.61,2.61A.54.54,0,0,1,21.11,162.21Z" style="fill:#66442b"/><path d="M21.11,164.47a.55.55,0,0,1-.39-.94l2.6-2.61a.56.56,0,0,1,.79.79l-2.61,2.6A.54.54,0,0,1,21.11,164.47Z" style="fill:#66442b"/><path d="M21.11,166.73a.55.55,0,0,1-.39-.94l2.6-2.61a.56.56,0,1,1,.79.79l-2.61,2.6A.54.54,0,0,1,21.11,166.73Z" style="fill:#66442b"/><path d="M21.11,169a.55.55,0,0,1-.39-.94l2.6-2.6a.56.56,0,0,1,.79,0,.56.56,0,0,1,0,.78l-2.61,2.6A.54.54,0,0,1,21.11,169Z" style="fill:#66442b"/><path d="M21.11,171.26a.56.56,0,0,1-.39-.17.54.54,0,0,1,0-.78l2.6-2.6a.56.56,0,0,1,.79,0,.56.56,0,0,1,0,.78l-2.61,2.6A.56.56,0,0,1,21.11,171.26Z" style="fill:#66442b"/><path d="M21.11,173.52a.56.56,0,0,1-.39-.17.54.54,0,0,1,0-.78l2.6-2.6a.56.56,0,0,1,.79,0,.56.56,0,0,1,0,.78l-2.61,2.6A.56.56,0,0,1,21.11,173.52Z" style="fill:#66442b"/><path d="M21.11,175.78a.59.59,0,0,1-.39-.16.56.56,0,0,1,0-.79l2.6-2.6a.56.56,0,0,1,.79,0,.56.56,0,0,1,0,.78l-2.61,2.61A.59.59,0,0,1,21.11,175.78Z" style="fill:#66442b"/><path d="M21.11,178a.59.59,0,0,1-.39-.16.56.56,0,0,1,0-.79l2.6-2.6a.56.56,0,0,1,.79,0,.56.56,0,0,1,0,.78l-2.61,2.61A.59.59,0,0,1,21.11,178Z" style="fill:#66442b"/><path d="M21.11,180.3a.59.59,0,0,1-.39-.16.54.54,0,0,1,0-.78l2.6-2.61a.56.56,0,0,1,.79,0,.56.56,0,0,1,0,.78l-2.61,2.61A.59.59,0,0,1,21.11,180.3Z" style="fill:#66442b"/><path d="M21.11,182.56a.55.55,0,0,1-.39-.94l2.6-2.61a.56.56,0,0,1,.79,0,.56.56,0,0,1,0,.78L21.5,182.4A.54.54,0,0,1,21.11,182.56Z" style="fill:#66442b"/><path d="M21.11,184.82a.55.55,0,0,1-.39-.94l2.6-2.61a.56.56,0,0,1,.79,0,.56.56,0,0,1,0,.78l-2.61,2.61A.54.54,0,0,1,21.11,184.82Z" style="fill:#66442b"/></g><rect x="139.67" width="3.65" height="183.15" style="fill:#938e80"/><g style="clip-path:url(#aafe1126-ec54-48b0-9945-dfcf1e325d3f)"><path d="M140.11,1.7a.56.56,0,0,1-.39-.17.56.56,0,0,1,0-.78l2.61-2.6a.54.54,0,0,1,.78,0,.54.54,0,0,1,0,.78l-2.6,2.6A.56.56,0,0,1,140.11,1.7Z" style="fill:#66442b"/><path d="M140.11,4a.59.59,0,0,1-.39-.16.57.57,0,0,1,0-.79l2.61-2.6a.54.54,0,0,1,.78,0,.54.54,0,0,1,0,.78l-2.6,2.61A.59.59,0,0,1,140.11,4Z" style="fill:#66442b"/><path d="M140.11,6.22a.59.59,0,0,1-.39-.16.57.57,0,0,1,0-.79l2.61-2.6a.55.55,0,1,1,.78.78l-2.6,2.61A.59.59,0,0,1,140.11,6.22Z" style="fill:#66442b"/><path d="M140.11,8.48a.59.59,0,0,1-.39-.16.56.56,0,0,1,0-.78l2.61-2.61a.55.55,0,1,1,.78.78l-2.6,2.61A.59.59,0,0,1,140.11,8.48Z" style="fill:#66442b"/><path d="M140.11,10.74a.54.54,0,0,1-.39-.16.56.56,0,0,1,0-.78l2.61-2.61a.55.55,0,1,1,.78.78l-2.6,2.61A.55.55,0,0,1,140.11,10.74Z" style="fill:#66442b"/><path d="M140.11,13a.54.54,0,0,1-.39-.16.56.56,0,0,1,0-.78l2.61-2.61a.55.55,0,1,1,.78.78l-2.6,2.61A.55.55,0,0,1,140.11,13Z" style="fill:#66442b"/><path d="M140.11,15.26a.54.54,0,0,1-.39-.16.56.56,0,0,1,0-.78l2.61-2.61a.56.56,0,0,1,.78,0,.54.54,0,0,1,0,.78l-2.6,2.61A.55.55,0,0,1,140.11,15.26Z" style="fill:#66442b"/><path d="M140.11,17.52a.54.54,0,0,1-.39-.16.56.56,0,0,1,0-.78L142.33,14a.56.56,0,0,1,.78,0,.54.54,0,0,1,0,.78l-2.6,2.61A.55.55,0,0,1,140.11,17.52Z" style="fill:#66442b"/><path d="M140.11,19.78a.54.54,0,0,1-.39-.16.56.56,0,0,1,0-.78l2.61-2.61a.56.56,0,0,1,.78,0,.54.54,0,0,1,0,.78l-2.6,2.61A.55.55,0,0,1,140.11,19.78Z" style="fill:#66442b"/><path d="M140.11,22a.54.54,0,0,1-.39-.16.56.56,0,0,1,0-.78l2.61-2.61a.56.56,0,0,1,.78,0,.56.56,0,0,1,0,.79l-2.6,2.6A.55.55,0,0,1,140.11,22Z" style="fill:#66442b"/><path d="M140.11,24.3a.54.54,0,0,1-.39-.16.56.56,0,0,1,0-.78l2.61-2.61a.56.56,0,0,1,.78,0,.56.56,0,0,1,0,.79l-2.6,2.6A.55.55,0,0,1,140.11,24.3Z" style="fill:#66442b"/><path d="M140.11,26.57a.56.56,0,0,1-.39-.17.56.56,0,0,1,0-.78l2.61-2.6a.55.55,0,1,1,.78.78l-2.6,2.6A.56.56,0,0,1,140.11,26.57Z" style="fill:#66442b"/><path d="M140.11,28.83a.56.56,0,0,1-.39-.17.56.56,0,0,1,0-.78l2.61-2.6a.55.55,0,1,1,.78.78l-2.6,2.6A.56.56,0,0,1,140.11,28.83Z" style="fill:#66442b"/><path d="M140.11,31.09a.56.56,0,0,1-.39-.17.56.56,0,0,1,0-.78l2.61-2.6a.55.55,0,1,1,.78.78l-2.6,2.6A.56.56,0,0,1,140.11,31.09Z" style="fill:#66442b"/><path d="M140.11,33.35a.59.59,0,0,1-.39-.16.57.57,0,0,1,0-.79l2.61-2.6a.55.55,0,1,1,.78.78l-2.6,2.61A.59.59,0,0,1,140.11,33.35Z" style="fill:#66442b"/><path d="M140.11,35.61a.59.59,0,0,1-.39-.16.57.57,0,0,1,0-.79l2.61-2.6a.55.55,0,1,1,.78.78l-2.6,2.61A.59.59,0,0,1,140.11,35.61Z" style="fill:#66442b"/><path d="M140.11,37.87a.54.54,0,0,1-.39-.16.56.56,0,0,1,0-.78l2.61-2.61a.55.55,0,1,1,.78.78l-2.6,2.61A.55.55,0,0,1,140.11,37.87Z" style="fill:#66442b"/><path d="M140.11,40.13a.54.54,0,0,1-.39-.16.56.56,0,0,1,0-.78l2.61-2.61a.55.55,0,1,1,.78.78L140.51,40A.55.55,0,0,1,140.11,40.13Z" style="fill:#66442b"/><path d="M140.11,42.39a.54.54,0,0,1-.39-.16.56.56,0,0,1,0-.78l2.61-2.61a.56.56,0,0,1,.78,0,.54.54,0,0,1,0,.78l-2.6,2.61A.55.55,0,0,1,140.11,42.39Z" style="fill:#66442b"/><path d="M140.11,44.65a.54.54,0,0,1-.39-.16.56.56,0,0,1,0-.78l2.61-2.61a.56.56,0,0,1,.78,0,.54.54,0,0,1,0,.78l-2.6,2.61A.55.55,0,0,1,140.11,44.65Z" style="fill:#66442b"/><path d="M140.11,46.91a.54.54,0,0,1-.39-.16.56.56,0,0,1,0-.78l2.61-2.61a.56.56,0,0,1,.78,0,.54.54,0,0,1,0,.78l-2.6,2.61A.55.55,0,0,1,140.11,46.91Z" style="fill:#66442b"/><path d="M140.11,49.17a.54.54,0,0,1-.39-.16.56.56,0,0,1,0-.78l2.61-2.61a.56.56,0,0,1,.78,0,.54.54,0,0,1,0,.78L140.51,49A.55.55,0,0,1,140.11,49.17Z" style="fill:#66442b"/><path d="M140.11,51.43a.54.54,0,0,1-.39-.16.56.56,0,0,1,0-.78l2.61-2.61a.56.56,0,0,1,.78,0,.56.56,0,0,1,0,.79l-2.6,2.6A.55.55,0,0,1,140.11,51.43Z" style="fill:#66442b"/><path d="M140.11,53.69a.54.54,0,0,1-.39-.16.56.56,0,0,1,0-.78l2.61-2.61a.56.56,0,0,1,.78,0,.56.56,0,0,1,0,.79l-2.6,2.6A.55.55,0,0,1,140.11,53.69Z" style="fill:#66442b"/><path d="M140.11,56a.56.56,0,0,1-.39-.17.56.56,0,0,1,0-.78l2.61-2.6a.55.55,0,1,1,.78.78l-2.6,2.6A.56.56,0,0,1,140.11,56Z" style="fill:#66442b"/><path d="M140.11,58.22a.56.56,0,0,1-.39-.17.56.56,0,0,1,0-.78l2.61-2.6a.55.55,0,1,1,.78.78l-2.6,2.6A.56.56,0,0,1,140.11,58.22Z" style="fill:#66442b"/><path d="M140.11,60.48a.56.56,0,0,1-.39-.17.56.56,0,0,1,0-.78l2.61-2.6a.55.55,0,1,1,.78.78l-2.6,2.6A.56.56,0,0,1,140.11,60.48Z" style="fill:#66442b"/><path d="M140.11,62.74a.59.59,0,0,1-.39-.16.57.57,0,0,1,0-.79l2.61-2.6a.55.55,0,1,1,.78.78l-2.6,2.61A.59.59,0,0,1,140.11,62.74Z" style="fill:#66442b"/><path d="M140.11,65a.59.59,0,0,1-.39-.16.57.57,0,0,1,0-.79l2.61-2.6a.55.55,0,1,1,.78.78l-2.6,2.61A.59.59,0,0,1,140.11,65Z" style="fill:#66442b"/><path d="M140.11,67.26a.54.54,0,0,1-.39-.16.56.56,0,0,1,0-.78l2.61-2.61a.55.55,0,1,1,.78.78l-2.6,2.61A.55.55,0,0,1,140.11,67.26Z" style="fill:#66442b"/><path d="M140.11,69.52a.54.54,0,0,1-.39-.16.56.56,0,0,1,0-.78L142.33,66a.55.55,0,1,1,.78.78l-2.6,2.61A.55.55,0,0,1,140.11,69.52Z" style="fill:#66442b"/><path d="M140.11,71.78a.54.54,0,0,1-.39-.16.56.56,0,0,1,0-.78l2.61-2.61a.56.56,0,0,1,.78,0,.54.54,0,0,1,0,.78l-2.6,2.61A.55.55,0,0,1,140.11,71.78Z" style="fill:#66442b"/><path d="M140.11,74a.54.54,0,0,1-.39-.16.56.56,0,0,1,0-.78l2.61-2.61a.56.56,0,0,1,.78,0,.54.54,0,0,1,0,.78l-2.6,2.61A.55.55,0,0,1,140.11,74Z" style="fill:#66442b"/><path d="M140.11,76.3a.54.54,0,0,1-.39-.16.56.56,0,0,1,0-.78l2.61-2.61a.56.56,0,0,1,.78,0,.54.54,0,0,1,0,.78l-2.6,2.61A.55.55,0,0,1,140.11,76.3Z" style="fill:#66442b"/><path d="M140.11,78.56a.54.54,0,0,1-.39-.16.56.56,0,0,1,0-.78L142.33,75a.56.56,0,0,1,.78,0,.56.56,0,0,1,0,.79l-2.6,2.6A.55.55,0,0,1,140.11,78.56Z" style="fill:#66442b"/><path d="M140.11,80.82a.54.54,0,0,1-.39-.16.56.56,0,0,1,0-.78l2.61-2.61a.56.56,0,0,1,.78,0,.56.56,0,0,1,0,.79l-2.6,2.6A.55.55,0,0,1,140.11,80.82Z" style="fill:#66442b"/><path d="M140.11,83.08a.54.54,0,0,1-.39-.16.56.56,0,0,1,0-.78l2.61-2.6a.55.55,0,1,1,.78.78l-2.6,2.6A.55.55,0,0,1,140.11,83.08Z" style="fill:#66442b"/><path d="M140.11,85.35a.56.56,0,0,1-.39-.17.56.56,0,0,1,0-.78l2.61-2.6a.55.55,0,1,1,.78.78l-2.6,2.6A.56.56,0,0,1,140.11,85.35Z" style="fill:#66442b"/><path d="M140.11,87.61a.56.56,0,0,1-.39-.17.56.56,0,0,1,0-.78l2.61-2.6a.55.55,0,1,1,.78.78l-2.6,2.6A.56.56,0,0,1,140.11,87.61Z" style="fill:#66442b"/><path d="M140.11,89.87a.59.59,0,0,1-.39-.16.57.57,0,0,1,0-.79l2.61-2.6a.55.55,0,1,1,.78.78l-2.6,2.61A.59.59,0,0,1,140.11,89.87Z" style="fill:#66442b"/><path d="M140.11,92.13a.59.59,0,0,1-.39-.16.57.57,0,0,1,0-.79l2.61-2.6a.55.55,0,1,1,.78.78L140.51,92A.59.59,0,0,1,140.11,92.13Z" style="fill:#66442b"/><path d="M140.11,94.39a.59.59,0,0,1-.39-.16.56.56,0,0,1,0-.78l2.61-2.61a.55.55,0,1,1,.78.78l-2.6,2.61A.59.59,0,0,1,140.11,94.39Z" style="fill:#66442b"/><path d="M140.11,96.65a.54.54,0,0,1-.39-.16.56.56,0,0,1,0-.78l2.61-2.61a.55.55,0,1,1,.78.78l-2.6,2.61A.55.55,0,0,1,140.11,96.65Z" style="fill:#66442b"/><path d="M140.11,98.91a.54.54,0,0,1-.39-.16.56.56,0,0,1,0-.78l2.61-2.61a.55.55,0,1,1,.78.78l-2.6,2.61A.55.55,0,0,1,140.11,98.91Z" style="fill:#66442b"/><path d="M140.11,101.17a.54.54,0,0,1-.39-.16.56.56,0,0,1,0-.78l2.61-2.61a.56.56,0,0,1,.78,0,.54.54,0,0,1,0,.78l-2.6,2.61A.55.55,0,0,1,140.11,101.17Z" style="fill:#66442b"/><path d="M140.11,103.43a.54.54,0,0,1-.39-.16.56.56,0,0,1,0-.78l2.61-2.61a.56.56,0,0,1,.78,0,.54.54,0,0,1,0,.78l-2.6,2.61A.55.55,0,0,1,140.11,103.43Z" style="fill:#66442b"/><path d="M140.11,105.69a.54.54,0,0,1-.39-.16.56.56,0,0,1,0-.78l2.61-2.61a.56.56,0,0,1,.78,0,.54.54,0,0,1,0,.78l-2.6,2.61A.55.55,0,0,1,140.11,105.69Z" style="fill:#66442b"/><path d="M140.11,108a.54.54,0,0,1-.39-.16.56.56,0,0,1,0-.78l2.61-2.61a.56.56,0,0,1,.78,0,.56.56,0,0,1,0,.79l-2.6,2.6A.55.55,0,0,1,140.11,108Z" style="fill:#66442b"/><path d="M140.11,110.21a.54.54,0,0,1-.39-.16.56.56,0,0,1,0-.78l2.61-2.61a.56.56,0,0,1,.78,0,.56.56,0,0,1,0,.79l-2.6,2.6A.55.55,0,0,1,140.11,110.21Z" style="fill:#66442b"/><path d="M140.11,112.47a.54.54,0,0,1-.39-.16.56.56,0,0,1,0-.78l2.61-2.6a.55.55,0,1,1,.78.78l-2.6,2.6A.55.55,0,0,1,140.11,112.47Z" style="fill:#66442b"/><path d="M140.11,114.74a.56.56,0,0,1-.39-.17.56.56,0,0,1,0-.78l2.61-2.6a.55.55,0,1,1,.78.78l-2.6,2.6A.56.56,0,0,1,140.11,114.74Z" style="fill:#66442b"/><path d="M140.11,117a.56.56,0,0,1-.39-.17.56.56,0,0,1,0-.78l2.61-2.6a.55.55,0,1,1,.78.78l-2.6,2.6A.56.56,0,0,1,140.11,117Z" style="fill:#66442b"/><path d="M140.11,119.26a.59.59,0,0,1-.39-.16.57.57,0,0,1,0-.79l2.61-2.6a.55.55,0,1,1,.78.78l-2.6,2.61A.59.59,0,0,1,140.11,119.26Z" style="fill:#66442b"/><path d="M140.11,121.52a.59.59,0,0,1-.39-.16.57.57,0,0,1,0-.79l2.61-2.6a.55.55,0,1,1,.78.78l-2.6,2.61A.59.59,0,0,1,140.11,121.52Z" style="fill:#66442b"/><path d="M140.11,123.78a.59.59,0,0,1-.39-.16.56.56,0,0,1,0-.78l2.61-2.61a.55.55,0,1,1,.78.78l-2.6,2.61A.59.59,0,0,1,140.11,123.78Z" style="fill:#66442b"/><path d="M140.11,126a.54.54,0,0,1-.39-.16.56.56,0,0,1,0-.78l2.61-2.61a.55.55,0,1,1,.78.78l-2.6,2.61A.55.55,0,0,1,140.11,126Z" style="fill:#66442b"/><path d="M140.11,128.3a.54.54,0,0,1-.39-.16.56.56,0,0,1,0-.78l2.61-2.61a.55.55,0,1,1,.78.78l-2.6,2.61A.55.55,0,0,1,140.11,128.3Z" style="fill:#66442b"/><path d="M140.11,130.56a.54.54,0,0,1-.39-.16.56.56,0,0,1,0-.78l2.61-2.61a.56.56,0,0,1,.78,0,.54.54,0,0,1,0,.78l-2.6,2.61A.55.55,0,0,1,140.11,130.56Z" style="fill:#66442b"/><path d="M140.11,132.82a.54.54,0,0,1-.39-.16.56.56,0,0,1,0-.78l2.61-2.61a.56.56,0,0,1,.78,0,.54.54,0,0,1,0,.78l-2.6,2.61A.55.55,0,0,1,140.11,132.82Z" style="fill:#66442b"/><path d="M140.11,135.08a.54.54,0,0,1-.39-.16.56.56,0,0,1,0-.78l2.61-2.61a.56.56,0,0,1,.78,0,.54.54,0,0,1,0,.78l-2.6,2.61A.55.55,0,0,1,140.11,135.08Z" style="fill:#66442b"/><path d="M140.11,137.34a.54.54,0,0,1-.39-.16.56.56,0,0,1,0-.78l2.61-2.61a.56.56,0,0,1,.78,0,.56.56,0,0,1,0,.79l-2.6,2.6A.55.55,0,0,1,140.11,137.34Z" style="fill:#66442b"/><path d="M140.11,139.6a.54.54,0,0,1-.39-.16.56.56,0,0,1,0-.78l2.61-2.61a.56.56,0,0,1,.78,0,.56.56,0,0,1,0,.79l-2.6,2.6A.55.55,0,0,1,140.11,139.6Z" style="fill:#66442b"/><path d="M140.11,141.87a.56.56,0,0,1-.39-.17.56.56,0,0,1,0-.78l2.61-2.6a.55.55,0,1,1,.78.78l-2.6,2.6A.56.56,0,0,1,140.11,141.87Z" style="fill:#66442b"/><path d="M140.11,144.13a.56.56,0,0,1-.39-.17.56.56,0,0,1,0-.78l2.61-2.6a.55.55,0,0,1,.78.78l-2.6,2.6A.56.56,0,0,1,140.11,144.13Z" style="fill:#66442b"/><path d="M140.11,146.39a.56.56,0,0,1-.39-.17.56.56,0,0,1,0-.78l2.61-2.6a.55.55,0,0,1,.78.78l-2.6,2.6A.56.56,0,0,1,140.11,146.39Z" style="fill:#66442b"/><path d="M140.11,148.65a.59.59,0,0,1-.39-.16.57.57,0,0,1,0-.79l2.61-2.6a.55.55,0,0,1,.78.78l-2.6,2.61A.59.59,0,0,1,140.11,148.65Z" style="fill:#66442b"/><path d="M140.11,150.91a.59.59,0,0,1-.39-.16.57.57,0,0,1,0-.79l2.61-2.6a.55.55,0,1,1,.78.78l-2.6,2.61A.59.59,0,0,1,140.11,150.91Z" style="fill:#66442b"/><path d="M140.11,153.17a.54.54,0,0,1-.39-.16.56.56,0,0,1,0-.78l2.61-2.61a.55.55,0,1,1,.78.78l-2.6,2.61A.55.55,0,0,1,140.11,153.17Z" style="fill:#66442b"/><path d="M140.11,155.43a.54.54,0,0,1-.39-.16.56.56,0,0,1,0-.78l2.61-2.61a.55.55,0,1,1,.78.78l-2.6,2.61A.55.55,0,0,1,140.11,155.43Z" style="fill:#66442b"/><path d="M140.11,157.69a.54.54,0,0,1-.39-.16.56.56,0,0,1,0-.78l2.61-2.61a.56.56,0,0,1,.78,0,.54.54,0,0,1,0,.78l-2.6,2.61A.55.55,0,0,1,140.11,157.69Z" style="fill:#66442b"/><path d="M140.11,160a.54.54,0,0,1-.39-.16.56.56,0,0,1,0-.78l2.61-2.61a.56.56,0,0,1,.78,0,.54.54,0,0,1,0,.78l-2.6,2.61A.55.55,0,0,1,140.11,160Z" style="fill:#66442b"/><path d="M140.11,162.21a.54.54,0,0,1-.39-.16.56.56,0,0,1,0-.78l2.61-2.61a.56.56,0,0,1,.78,0,.54.54,0,0,1,0,.78l-2.6,2.61A.55.55,0,0,1,140.11,162.21Z" style="fill:#66442b"/><path d="M140.11,164.47a.54.54,0,0,1-.39-.16.56.56,0,0,1,0-.78l2.61-2.61a.56.56,0,0,1,.78,0,.56.56,0,0,1,0,.79l-2.6,2.6A.55.55,0,0,1,140.11,164.47Z" style="fill:#66442b"/><path d="M140.11,166.73a.54.54,0,0,1-.39-.16.56.56,0,0,1,0-.78l2.61-2.61a.56.56,0,0,1,.78,0,.56.56,0,0,1,0,.79l-2.6,2.6A.55.55,0,0,1,140.11,166.73Z" style="fill:#66442b"/><path d="M140.11,169a.54.54,0,0,1-.39-.16.56.56,0,0,1,0-.78l2.61-2.6a.55.55,0,1,1,.78.78l-2.6,2.6A.55.55,0,0,1,140.11,169Z" style="fill:#66442b"/><path d="M140.11,171.26a.56.56,0,0,1-.39-.17.56.56,0,0,1,0-.78l2.61-2.6a.55.55,0,0,1,.78.78l-2.6,2.6A.56.56,0,0,1,140.11,171.26Z" style="fill:#66442b"/><path d="M140.11,173.52a.56.56,0,0,1-.39-.17.56.56,0,0,1,0-.78l2.61-2.6a.55.55,0,0,1,.78.78l-2.6,2.6A.56.56,0,0,1,140.11,173.52Z" style="fill:#66442b"/><path d="M140.11,175.78a.59.59,0,0,1-.39-.16.57.57,0,0,1,0-.79l2.61-2.6a.55.55,0,0,1,.78.78l-2.6,2.61A.59.59,0,0,1,140.11,175.78Z" style="fill:#66442b"/><path d="M140.11,178a.59.59,0,0,1-.39-.16.57.57,0,0,1,0-.79l2.61-2.6a.55.55,0,1,1,.78.78l-2.6,2.61A.59.59,0,0,1,140.11,178Z" style="fill:#66442b"/><path d="M140.11,180.3a.59.59,0,0,1-.39-.16.56.56,0,0,1,0-.78l2.61-2.61a.55.55,0,1,1,.78.78l-2.6,2.61A.59.59,0,0,1,140.11,180.3Z" style="fill:#66442b"/><path d="M140.11,182.56a.54.54,0,0,1-.39-.16.56.56,0,0,1,0-.78l2.61-2.61a.55.55,0,1,1,.78.78l-2.6,2.61A.55.55,0,0,1,140.11,182.56Z" style="fill:#66442b"/><path d="M140.11,184.82a.54.54,0,0,1-.39-.16.56.56,0,0,1,0-.78l2.61-2.61a.55.55,0,0,1,.78.78l-2.6,2.61A.55.55,0,0,1,140.11,184.82Z" style="fill:#66442b"/></g></svg>