<svg xmlns="http://www.w3.org/2000/svg" viewBox="0 0 42 40"><g style="isolation:isolate"><g id="a4fd98f4-352f-49f1-8cc4-22f56ca22093" data-name="Layer 1"><path d="M20.12,18.23c-4.38,0-11.64,0-19.63.42,1.13,1.57,3.35,3.68,7.48,6.5,0,0-5.48,12.06-2.15,14.1.86.53,4.11,0,4.11,0,4.41-.86,6.25-2,10.23-4.09C23.8,37.3,33.77,42,34.58,37.94c.7-3.5-.89-8.63-1.88-11.36a1.34,1.34,0,0,1-.07-.18,81,81,0,0,0,8.88-7.66C32.83,18.27,24.82,18.21,20.12,18.23Z" style="fill:#1e0518;opacity:0.29;mix-blend-mode:multiply"/><path d="M38.39,16A79.21,79.21,0,0,0,28,13.39c-1.91-5-4.26-9.27-7-10.44-2.43-1-5.44,7.14-6.27,9.54a41.51,41.51,0,0,0-6.7.87A22.24,22.24,0,0,0,2.82,15S-1.1,17.1,9.57,24.9c0,0-4.78,11.28-1.88,13.18a2.46,2.46,0,0,0,1.87.13,59.1,59.1,0,0,0,10.66-4.72c3.18,2,11.88,7.16,12.59,3.37.61-3.28-.78-8.07-1.65-10.63a1,1,0,0,1-.05-.16,63.74,63.74,0,0,0,8.24-7.75C40.62,16.61,38.39,16,38.39,16Z" style="fill:#c67809"/><path d="M31,32.43c-.61,3.27-8.12-1.17-10.86-2.91a51.63,51.63,0,0,1-9.19,4.07,2.15,2.15,0,0,1-1.62-.11C6.78,31.84,10.91,22.1,10.91,22.1c-9.21-6.72-5.83-8.51-5.83-8.51a17.57,17.57,0,0,1,3.33-1.17A12.12,12.12,0,0,1,8,11a22.48,22.48,0,0,0-5.2,1.67S-1.1,14.7,9.57,22.49c0,0-4.78,11.29-1.88,13.19a2.49,2.49,0,0,0,1.87.12,58.38,58.38,0,0,0,10.66-4.71c3.18,2,11.88,7.16,12.59,3.37.61-3.28-.78-8.08-1.65-10.63l-1.43,0C30.47,26.11,31.45,29.82,31,32.43Z" style="fill:#f9bf1e"/><path d="M38.39,13.55A81,81,0,0,0,28,11C26.07,6,23.72,1.72,21,.55c-2.43-1-5.44,7.14-6.27,9.54A42.8,42.8,0,0,0,8,11a12.12,12.12,0,0,0,.39,1.47,34.63,34.63,0,0,1,7-1c.71-2.07,3.31-9.13,5.41-8.23,2.35,1,4.38,4.67,6,9a68.93,68.93,0,0,1,9,2.22s1.92.56.83,2a54.5,54.5,0,0,1-7.12,6.68c.08.22.16.45.24.7l1.43,0a.84.84,0,0,1-.05-.17,63.27,63.27,0,0,0,8.24-7.74C40.62,14.21,38.39,13.55,38.39,13.55Z" style="fill:#f8f252"/><path d="M10.91,22.1S6.78,31.84,9.29,33.48a2.15,2.15,0,0,0,1.62.11,51.63,51.63,0,0,0,9.19-4.07C22.84,31.26,30.35,35.7,31,32.43c.49-2.61-.49-6.32-1.23-8.62-15.41-.36-20-7.33-21.32-11.39a17.57,17.57,0,0,0-3.33,1.17S1.7,15.38,10.91,22.1Z" style="fill:#faae00"/><path d="M29.73,23.81c-.08-.25-.16-.48-.24-.7a54.5,54.5,0,0,0,7.12-6.68c1.09-1.48-.83-2-.83-2a68.93,68.93,0,0,0-9-2.22c-1.64-4.33-3.67-8-6-9-2.1-.9-4.7,6.16-5.41,8.23a34.63,34.63,0,0,0-6.95,1C9.76,16.48,14.32,23.45,29.73,23.81Z" style="fill:#feda48"/><ellipse cx="8.78" cy="34.44" rx="1.24" ry="0.87" transform="translate(-16.05 9.01) rotate(-30)" style="fill:#fff;opacity:0.85"/><ellipse cx="38.17" cy="14.78" rx="0.87" ry="1.24" transform="translate(14.91 48.47) rotate(-76.54)" style="fill:#fff"/><path d="M9.77,10.62s-5.91,1-6.95,2-1.37,3.05,3.09,7C5.91,19.57,1,13.16,9.77,10.62Z" style="fill:#f8f252;opacity:0.5;mix-blend-mode:soft-light"/><path d="M24.05,33.83s5.49,2.43,6.89,2.2,2.82-1.78,1.28-7.5C32.22,28.53,32.72,36.57,24.05,33.83Z" style="fill:#f8f252;opacity:0.5;mix-blend-mode:soft-light"/></g></g></svg>