<svg id="a5cd5335-7158-413b-9f3b-79a3302545b8" data-name="Layer 5" xmlns="http://www.w3.org/2000/svg" viewBox="0 0 84 86"><path d="M43.24.94a5.27,5.27,0,0,0-4,2.15c-3.53.61-6.09,2.38-6,4.29a2,2,0,0,0,.1.35,20.42,20.42,0,0,0-8.52,6.14L57.71,12s-2.17-4-8.92-5.5a1.5,1.5,0,0,0,0-.2c-.12-1.86-2.76-3.23-6.19-3.41C43.2,1.71,43.75,1.19,43.24.94Z" style="fill:#efd5b9"/><path d="M47.64,12.58,57.71,12s-2.17-4-8.92-5.5a1.5,1.5,0,0,0,0-.2c-.12-1.86-2.76-3.23-6.19-3.41.58-1.19,1.13-1.71.62-2a4.68,4.68,0,0,0-.67.11,9.86,9.86,0,0,1-1.67,2.8,3.73,3.73,0,0,1,3.34,4c3.89,1.59,3.4,4.76,3.4,4.76Z" style="fill:#e5c8ac"/><path d="M59.28,79.11c-.56,1.23-18.92,3-20.24,2.36s-4.26-20.92-4.26-20.92H58.32S59.84,77.88,59.28,79.11Z" style="fill:#e29837"/><path d="M52.52,60.55C52.89,65,53.91,78,53.65,80.48c3.05-.44,5.43-.94,5.63-1.37.56-1.23-1-18.56-1-18.56Z" style="fill:#d8852b"/><path d="M60.13,69.33c-.89,1.52-22.24,6-23.8,4.34s-4-18.22-4-18.22l26.3-6.33S61,67.82,60.13,69.33Z" style="fill:#e29837"/><path d="M51.77,50.77c.45,4,1.93,17.59,1.57,20.86,3.62-.87,6.48-1.76,6.79-2.3.89-1.51-1.51-20.21-1.51-20.21Z" style="fill:#d8852b"/><path d="M61.08,54.93C60.7,56,32.68,59,31.7,58.19S28.35,39.5,28.35,39.5L59.73,36S61.47,53.9,61.08,54.93Z" style="fill:#e29837"/><path d="M61.66,40.77c-.69.69-33.43,3.48-34.09,2.86s-3-17.25-3-17.25L60,22.87S62.34,40.09,61.66,40.77Z" style="fill:#e29837"/><path d="M50.86,37c.39,4.55,1.41,16.91,1.33,19.6,4.88-.64,8.75-1.29,8.89-1.67.39-1-1.35-18.92-1.35-18.92Z" style="fill:#d8852b"/><path d="M62.08,28.43c-.4.74-36.94,3.19-37.9,2.25S21.38,15.29,22,14.31s36.76-3.09,37.5-2.21S62.47,27.68,62.08,28.43Z" style="fill:#e29837"/><path d="M60.73,28.73S34,31,25.22,30.85l.45,3a271.8,271.8,0,0,1,35.39-2.37Z" style="fill:#d8852b"/><path d="M60.2,41.09a273.25,273.25,0,0,1-31.26,2.63l.54,3.6s15.73-4,31-2.71Z" style="fill:#d8852b"/><path d="M59.33,55.49a187.37,187.37,0,0,1-26.51,2.83l.57,3.39a67.72,67.72,0,0,1,26.32-2.84Z" style="fill:#d8852b"/><path d="M37,73.93s14.1-.67,22-4l.26,4.51S47.58,72,37.79,77.77Z" style="fill:#d8852b"/><path d="M59.5,12.1c-.28-.33-5.5-.24-12,.05A165.37,165.37,0,0,1,50,29.73c6.63-.49,12-1,12.12-1.3C62.47,27.68,60.23,13,59.5,12.1Z" style="fill:#d8852b"/><path d="M49.26,23.93c.42,3.67,1.6,14.35,1.71,18.5,5.79-.55,10.44-1.41,10.69-1.66.68-.68-1.68-17.9-1.68-17.9Z" style="fill:#d8852b"/><path d="M24.09,16c.64-.9,16.47-2.25,18.43-.9s2.6,11.51,2.11,12.41-17.21,2-18.8.3S24.09,16,24.09,16Z" style="fill:#efa748"/><path d="M28.2,34.55c-.44.43.65,7.48,1.45,7.57S43,41.73,43.47,40.93s.07-7.28-.34-7.77S29.14,33.65,28.2,34.55Z" style="fill:#efa748"/><path d="M31.54,48.06c-.44.48.75,8.25,1.54,8.36S46.39,56,46.89,55.1s0-8-.44-8.58S32.47,47.07,31.54,48.06Z" style="fill:#efa748"/><path d="M35.51,63c-.35.49.79,8.26,1.45,8.35s10.89-.88,11.28-1.78S48,61.5,47.69,61,36.24,62,35.51,63Z" style="fill:#efa748"/><path d="M39.35,77.6c-.25.23.52,3.28,1,3.27s7.67-1.2,8-1.6a7.6,7.6,0,0,0-.35-3.43C47.68,75.64,39.87,77.13,39.35,77.6Z" style="fill:#efa748"/><path d="M43.27,81.53s7.32,3.53,12.57-1.4C55.84,80.13,48.19,80.86,43.27,81.53Z" style="fill:#e5c8ac"/></svg>