<svg xmlns="http://www.w3.org/2000/svg" xmlns:xlink="http://www.w3.org/1999/xlink" viewBox="0 0 1920 900"><defs><clipPath id="a9ce5be5-37b1-40b2-ab6a-ff052dfeaa73"><rect width="1920" height="900" style="fill:none"/></clipPath><linearGradient id="afa01d63-1a77-4e40-99ff-f94c73fe35c5" x1="600.03" y1="194.58" x2="600.03" y2="263.91" gradientTransform="translate(3.11)" gradientUnits="userSpaceOnUse"><stop offset="0" stop-color="#ffd79d"/><stop offset="1" stop-color="#ffb454"/></linearGradient><linearGradient id="e3682041-cef8-40bc-8d59-cc46707be35d" x1="617.23" y1="177.24" x2="615.97" y2="269.76" gradientTransform="translate(3.11)" gradientUnits="userSpaceOnUse"><stop offset="0" stop-color="#ffb8b3"/><stop offset="0.58" stop-color="#ff9a92"/><stop offset="1" stop-color="#f67f73"/></linearGradient><linearGradient id="e6c6c95b-af64-42fc-a083-092e259164ba" x1="619.78" y1="172.53" x2="637.85" y2="266.83" gradientTransform="translate(3.11)" gradientUnits="userSpaceOnUse"><stop offset="0" stop-color="#f9e6c6"/><stop offset="0.5" stop-color="#e8bc8b"/><stop offset="1" stop-color="#f0b563"/></linearGradient><linearGradient id="bb07c80d-7d41-4e13-aa50-028c248a9fc5" x1="631.13" y1="194.58" x2="631.13" y2="263.91" xlink:href="#afa01d63-1a77-4e40-99ff-f94c73fe35c5"/><linearGradient id="b310edc8-219a-4c95-b6f3-c6a624ee0013" x1="771.32" y1="194.58" x2="771.32" y2="263.91" xlink:href="#afa01d63-1a77-4e40-99ff-f94c73fe35c5"/><linearGradient id="e2e99f31-b281-4d17-b5db-ca15711f8cc8" x1="788.52" y1="177.24" x2="787.26" y2="269.76" xlink:href="#e3682041-cef8-40bc-8d59-cc46707be35d"/><linearGradient id="fd0d5085-f90f-4b9f-aac3-b6bb78c9bafa" x1="791.07" y1="172.53" x2="809.14" y2="266.83" xlink:href="#e6c6c95b-af64-42fc-a083-092e259164ba"/><linearGradient id="fd8983df-124e-4861-92d2-a461764e9202" x1="802.42" y1="194.58" x2="802.42" y2="263.91" xlink:href="#afa01d63-1a77-4e40-99ff-f94c73fe35c5"/><linearGradient id="bb1bc41f-02eb-4a3b-9d39-b3dede9b312a" x1="942.61" y1="194.58" x2="942.61" y2="263.91" xlink:href="#afa01d63-1a77-4e40-99ff-f94c73fe35c5"/><linearGradient id="e64556c7-ac4b-423e-a314-1d27a7d0ca7c" x1="959.81" y1="177.24" x2="958.54" y2="269.76" xlink:href="#e3682041-cef8-40bc-8d59-cc46707be35d"/><linearGradient id="bbaa41c5-7c04-4472-9b23-48e4900bc0a9" x1="962.35" y1="172.53" x2="980.42" y2="266.83" xlink:href="#e6c6c95b-af64-42fc-a083-092e259164ba"/><linearGradient id="b30e4b38-c191-422c-b0b6-d5df81347f8c" x1="973.71" y1="194.58" x2="973.71" y2="263.91" xlink:href="#afa01d63-1a77-4e40-99ff-f94c73fe35c5"/><linearGradient id="eb349fbd-5eb4-4776-a036-5de537df167b" x1="1113.89" y1="194.58" x2="1113.89" y2="263.91" xlink:href="#afa01d63-1a77-4e40-99ff-f94c73fe35c5"/><linearGradient id="fc25d5ba-6441-43fe-b42d-78ec8bb602a4" x1="1131.09" y1="177.24" x2="1129.83" y2="269.76" xlink:href="#e3682041-cef8-40bc-8d59-cc46707be35d"/><linearGradient id="b34f87d3-962c-4fb5-a526-4f18b7f93360" x1="1133.64" y1="172.53" x2="1151.71" y2="266.83" xlink:href="#e6c6c95b-af64-42fc-a083-092e259164ba"/><linearGradient id="fd8e6b41-ad01-43d3-bfaa-812161c1bfe5" x1="1144.99" y1="194.58" x2="1144.99" y2="263.91" xlink:href="#afa01d63-1a77-4e40-99ff-f94c73fe35c5"/><linearGradient id="a3d47055-280a-449d-844e-132f09c1d365" x1="1285.18" y1="194.58" x2="1285.18" y2="263.91" xlink:href="#afa01d63-1a77-4e40-99ff-f94c73fe35c5"/><linearGradient id="b838356e-a1c8-4397-8ecd-d60368038047" x1="1302.38" y1="177.24" x2="1301.12" y2="269.76" xlink:href="#e3682041-cef8-40bc-8d59-cc46707be35d"/><linearGradient id="ed550b45-71b2-43c5-8df7-e5b254df6243" x1="1304.93" y1="172.53" x2="1323" y2="266.83" xlink:href="#e6c6c95b-af64-42fc-a083-092e259164ba"/><linearGradient id="ad53c887-645d-4231-b816-7243c95fff7e" x1="1316.28" y1="194.58" x2="1316.28" y2="263.91" xlink:href="#afa01d63-1a77-4e40-99ff-f94c73fe35c5"/><linearGradient id="e981af11-fec5-4712-a5e8-3f2d55761242" x1="600.03" y1="327.74" x2="600.03" y2="397.07" xlink:href="#afa01d63-1a77-4e40-99ff-f94c73fe35c5"/><linearGradient id="fe3be580-313c-432b-89ec-e4bfb7951be4" x1="617.23" y1="310.4" x2="615.97" y2="402.92" xlink:href="#e3682041-cef8-40bc-8d59-cc46707be35d"/><linearGradient id="ba5ca801-29c7-4117-aa7e-961f8c0d0b36" x1="619.78" y1="305.69" x2="637.85" y2="399.98" xlink:href="#e6c6c95b-af64-42fc-a083-092e259164ba"/><linearGradient id="ae6fcf0b-7dff-4d56-808d-193810170ce7" x1="631.13" y1="327.74" x2="631.13" y2="397.07" xlink:href="#afa01d63-1a77-4e40-99ff-f94c73fe35c5"/><linearGradient id="bf4a742f-017a-4283-8ccb-0accb6681af4" x1="771.32" y1="327.74" x2="771.32" y2="397.07" xlink:href="#afa01d63-1a77-4e40-99ff-f94c73fe35c5"/><linearGradient id="aa7d736c-c478-49e6-be85-3fdecc27c2da" x1="788.52" y1="310.4" x2="787.26" y2="402.92" xlink:href="#e3682041-cef8-40bc-8d59-cc46707be35d"/><linearGradient id="a2ec92e4-b33f-4861-a159-48999f8de1bc" x1="791.07" y1="305.69" x2="809.14" y2="399.98" xlink:href="#e6c6c95b-af64-42fc-a083-092e259164ba"/><linearGradient id="b92e2d94-8539-44cf-b2be-792cc58f4586" x1="802.42" y1="327.74" x2="802.42" y2="397.07" xlink:href="#afa01d63-1a77-4e40-99ff-f94c73fe35c5"/><linearGradient id="f09b0e7a-3c13-4761-a93a-297361f3c4a8" x1="942.61" y1="327.74" x2="942.61" y2="397.07" xlink:href="#afa01d63-1a77-4e40-99ff-f94c73fe35c5"/><linearGradient id="a2d519fc-c12d-4dad-90d7-9931a69474eb" x1="959.81" y1="310.4" x2="958.54" y2="402.92" xlink:href="#e3682041-cef8-40bc-8d59-cc46707be35d"/><linearGradient id="abb1a5e6-cac5-4a9e-88fd-26f8d31951f5" x1="962.35" y1="305.69" x2="980.42" y2="399.98" xlink:href="#e6c6c95b-af64-42fc-a083-092e259164ba"/><linearGradient id="f6c28d59-99b1-4e6b-9422-87c897445932" x1="973.71" y1="327.74" x2="973.71" y2="397.07" xlink:href="#afa01d63-1a77-4e40-99ff-f94c73fe35c5"/><linearGradient id="aab0b88a-5f62-4540-8ba9-059088b99bb2" x1="1113.89" y1="327.74" x2="1113.89" y2="397.07" xlink:href="#afa01d63-1a77-4e40-99ff-f94c73fe35c5"/><linearGradient id="bc39a817-2b14-4898-b398-be52124a5295" x1="1131.09" y1="310.4" x2="1129.83" y2="402.92" xlink:href="#e3682041-cef8-40bc-8d59-cc46707be35d"/><linearGradient id="e5e8e294-02c6-4ebc-be47-c2399b80b566" x1="1133.64" y1="305.69" x2="1151.71" y2="399.98" xlink:href="#e6c6c95b-af64-42fc-a083-092e259164ba"/><linearGradient id="b98e3dfc-3add-48c8-984f-cedb32df41ab" x1="1144.99" y1="327.74" x2="1144.99" y2="397.07" xlink:href="#afa01d63-1a77-4e40-99ff-f94c73fe35c5"/><linearGradient id="fe869552-d182-4c9e-b538-3253d6be32f9" x1="1285.18" y1="327.74" x2="1285.18" y2="397.07" xlink:href="#afa01d63-1a77-4e40-99ff-f94c73fe35c5"/><linearGradient id="a6e7d49b-25ea-4513-b675-ffc43425fa42" x1="1302.38" y1="310.4" x2="1301.12" y2="402.92" xlink:href="#e3682041-cef8-40bc-8d59-cc46707be35d"/><linearGradient id="a16cc47b-444a-45ce-a772-8728572d4ec5" x1="1304.93" y1="305.69" x2="1323" y2="399.98" xlink:href="#e6c6c95b-af64-42fc-a083-092e259164ba"/><linearGradient id="a4fbbea3-86bd-4783-af50-38c8fe214597" x1="1316.28" y1="327.74" x2="1316.28" y2="397.07" xlink:href="#afa01d63-1a77-4e40-99ff-f94c73fe35c5"/></defs><g id="b2033b88-9126-464f-b266-12dd94dd601d" data-name="Layer 28"><g style="clip-path:url(#a9ce5be5-37b1-40b2-ab6a-ff052dfeaa73)"><rect y="-3.36" width="1920" height="900" style="fill:#c9dced"/><rect x="95.5" y="-3.36" width="90.38" height="900" style="fill:#67abdc"/><rect x="1748.44" y="-3.36" width="90.38" height="900" style="fill:#67abdc"/><rect x="331.63" y="-3.36" width="90.38" height="900" style="fill:#67abdc"/><rect x="567.77" y="-3.36" width="90.38" height="900" style="fill:#67abdc"/><rect x="803.9" y="-3.36" width="90.38" height="900" style="fill:#67abdc"/><rect x="1040.03" y="-3.36" width="90.38" height="900" style="fill:#67abdc"/><rect x="1276.17" y="-3.36" width="90.38" height="900" style="fill:#67abdc"/><rect x="1512.3" y="-3.36" width="90.38" height="900" style="fill:#67abdc"/><rect x="563.08" y="304.35" width="798.78" height="45.59" style="fill:#633a20;opacity:0.8"/><rect x="563.08" y="436.49" width="798.78" height="45.59" style="fill:#633a20;opacity:0.8"/><rect x="521.4" y="285.6" width="883.41" height="18.75" style="fill:#fff"/><polygon points="565.78 266.85 1360.43 266.85 1404.81 285.6 521.4 285.6 565.78 266.85" style="fill:#d39b6a"/><rect x="521.4" y="285.6" width="883.41" height="18.75" style="fill:#f5e6cb"/><rect x="515.19" y="418.02" width="883.41" height="20" style="fill:#fff"/><polygon points="559.57 398.02 1354.22 398.02 1398.6 418.02 515.19 418.02 559.57 398.02" style="fill:#d39b6a"/><rect x="515.19" y="418.02" width="883.41" height="20" style="fill:#f5e6cb"/><rect x="2.79" y="465.25" width="1925" height="438.11" style="fill:#fedaa6"/><rect x="-14.15" y="828.83" width="1941.94" height="74.53" style="fill:#371e23"/><rect x="-7.79" y="819.83" width="1946.15" height="74.53" style="fill:#7d4928"/><rect x="-7.79" y="468.61" width="1935.57" height="30.93" style="fill:#f1bc75"/><rect x="-7.79" y="524.93" width="1935.57" height="39.55" style="fill:#f1bc75"/><rect x="-7.79" y="592.83" width="1935.57" height="45.02" style="fill:#f1bc75"/><rect x="-7.79" y="671.15" width="1935.57" height="49.64" style="fill:#f1bc75"/><rect x="-7.79" y="751.94" width="1935.57" height="63.1" style="fill:#f1bc75"/><polygon points="556.96 235.09 678.27 233.22 658.8 273.28 573.43 262.8 556.96 235.09" style="fill:#db9092"/><path d="M605.47,180.56c-22.45-.47-36.9,22.52-39.16,43-2.93,26.57,16.74,56.51,38.17,55.9,21.14-.61,38.32-30.79,35.48-56.47C638,204.85,625.22,181,605.47,180.56Z" style="fill:url(#afa01d63-1a77-4e40-99ff-f94c73fe35c5)"/><path d="M612.36,186.6c-2.3,1.14-26.72,6.53-30.63,40.51-2.81,24.45,14.88,52.11,33.49,51.82,16.58-.26,31.45-22.64,32.1-43C648,215.51,634.2,195.68,612.36,186.6Z" style="fill:#b36016;opacity:0.30000000000000004"/><path d="M622.35,179.06c-22.59,1.55-36.35,25.35-37.51,49.26-1.26,25.72,15.65,55.45,34.8,55.43,19.3,0,35.58-30.25,34.8-55.78C653.78,206.41,643.92,177.57,622.35,179.06Z" style="fill:url(#e3682041-cef8-40bc-8d59-cc46707be35d)"/><path d="M620.22,185.79C591.56,196,595.46,237.34,590,238.43c-2,.39-4.22-4.24-5.21-6.55.21,14.9,6.14,30.6,14.8,40.77l33.86,5.88a44.16,44.16,0,0,0,9.65-10.75C643.71,240.45,642.72,177.81,620.22,185.79Z" style="fill:#f65a4a;opacity:0.5"/><path d="M629.57,181.19c-19.7,2.21-30.87,28.75-31.72,48-1,23.5,12.61,51.62,31.18,53.64,20.89,2.29,44.47-28.81,41.39-57.59C668.06,203.17,649.67,178.93,629.57,181.19Z" style="fill:url(#e6c6c95b-af64-42fc-a083-092e259164ba)"/><path d="M629.57,181.19c-19.7,2.21-30.87,28.75-31.72,48-1,23.5,12.61,51.62,31.18,53.64,20.89,2.29,44.47-28.81,41.39-57.59C668.06,203.17,649.67,178.93,629.57,181.19Z" style="fill:url(#bb07c80d-7d41-4e13-aa50-028c248a9fc5)"/><path d="M670.37,225.23c-1.47-13.66-9.08-28.15-19.44-36.68-18.18-.33-34.86,14.11-35.22,41.68-.26,19.51,7.61,37.36,25,50.64C657.7,273.64,672.87,248.67,670.37,225.23Z" style="fill:#d69a58;opacity:0.2"/><path d="M659.3,238.22c-2.82.56-7.52,9.41-7.52,9.41s-6.59-6.21-9.79-5.46-10.92,8.09-10.92,8.09-7.34-8.28-10.91-7.34-10.92,8.28-10.92,8.28-7.15-8.84-10.35-8.65-11.48,6.21-11.48,6.21-6.4-9.41-9.41-9.23c-1.87.12-6.49,2.85-9.73,4.9,3.28,11.47,9.91,21.88,18.08,28.31l65.8.42a62,62,0,0,0,16.46-27.92C667.11,241.53,661.92,237.69,659.3,238.22Z" style="fill:#e25947;opacity:0.30000000000000004"/><path d="M660.76,229.83a2.51,2.51,0,1,0,1.77,4.28,2.5,2.5,0,0,0,.74-1.77A2.55,2.55,0,0,0,660.76,229.83Z" style="fill:#eaa25d"/><path d="M665.7,224.08a1.25,1.25,0,0,0-2.44.33,1.27,1.27,0,0,0,1.24,1.24A1.25,1.25,0,0,0,665.7,224.08Z" style="fill:#eaa25d"/><path d="M659.63,218.32a1.35,1.35,0,1,0,1.35,1.34A1.38,1.38,0,0,0,659.63,218.32Z" style="fill:#eaa25d"/><path d="M645.91,235a1.05,1.05,0,1,0,1.05,1.05A1.05,1.05,0,0,0,645.91,235Z" style="fill:#eaa25d"/><path d="M640.75,233.18a1.27,1.27,0,0,0-1.26,1.26,1.29,1.29,0,0,0,1.26,1.26,1.26,1.26,0,0,0,0-2.52Z" style="fill:#eaa25d"/><path d="M645.56,228.08a1.74,1.74,0,0,0-1.76,1.76,1.79,1.79,0,0,0,1.76,1.76,1.81,1.81,0,0,0,1.24-.52,1.75,1.75,0,0,0,.52-1.24A1.78,1.78,0,0,0,645.56,228.08Z" style="fill:#eaa25d"/><path d="M644.23,193.36a1.21,1.21,0,1,0,1.69.26A1.22,1.22,0,0,0,644.23,193.36Z" style="fill:#eaa25d"/><path d="M642.09,197.15a2,2,0,0,0-1.21-.09c-2.55.59-1.67,4.82,1,4.2a1.85,1.85,0,0,0,1.22-.89A2.32,2.32,0,0,0,642.09,197.15Z" style="fill:#eaa25d"/><path d="M646.73,198.84a.93.93,0,1,0,1.1,1.51.93.93,0,0,0-1.1-1.51Z" style="fill:#eaa25d"/><path d="M678.27,233.22c-1.11-1.4-11.75,15.33-11.75,15.33s-4.13-7.66-7.07-6.78S651.21,253,651.21,253s-6.19-7.36-9.72-7.06-10.6,10-10.6,10-6.74-9.11-10.6-8.84c-4.12.3-10.89,9.43-10.89,9.43s-6.78-9.72-9.72-9.72c-4.43,0-10.9,7.65-10.9,7.65S581.42,243,578.48,243c-3.87,0-8.54,5.89-8.54,5.89s-11.88-15.22-13.35-13.75,20.35,49.53,20.35,49.53l78.48.24S679.77,235.09,678.27,233.22Z" style="fill:#ffe8a4"/><path d="M626.06,250.42c-1.95-1.87-4.12-3.46-5.77-3.35-4.12.3-10.89,9.43-10.89,9.43s-6.78-9.72-9.72-9.72c-4.43,0-10.9,7.65-10.9,7.65S581.42,243,578.48,243c-3.87,0-8.54,5.89-8.54,5.89s7.1-4.92,8.57-4.67S589,256,589,256s8.32-8.07,10.64-7.83,10,10.4,10,10.4,7.46-10.52,10.52-10.64C621.84,247.89,624.21,249.19,626.06,250.42Z" style="fill:#fff5ff"/><path d="M635.44,181.29c-.82-.11-1.64-.2-2.47-.23a20.83,20.83,0,0,0-10.68-2,31.94,31.94,0,0,0-10.47,2.5,24.66,24.66,0,0,0-6.4-1c-13-.27-23.3,7.3-30.12,17.69a46.83,46.83,0,0,0,15.85,4.91C610.19,205.53,627.75,196.24,635.44,181.29Z" style="fill:#f9e6c6;opacity:0.30000000000000004"/><polygon points="728.25 235.09 849.56 233.22 830.09 273.28 744.72 262.8 728.25 235.09" style="fill:#db9092"/><path d="M776.76,180.56c-22.45-.47-36.9,22.52-39.16,43-2.93,26.57,16.74,56.51,38.17,55.9,21.14-.61,38.32-30.79,35.48-56.47C809.24,204.85,796.5,181,776.76,180.56Z" style="fill:url(#b310edc8-219a-4c95-b6f3-c6a624ee0013)"/><path d="M783.65,186.6c-2.3,1.14-26.72,6.53-30.63,40.51-2.82,24.45,14.87,52.11,33.49,51.82,16.57-.26,31.45-22.64,32.09-43C819.25,215.51,805.49,195.68,783.65,186.6Z" style="fill:#b36016;opacity:0.30000000000000004"/><path d="M793.63,179.06c-22.58,1.55-36.34,25.35-37.51,49.26-1.25,25.72,15.66,55.45,34.8,55.43,19.3,0,35.59-30.25,34.81-55.78C825.07,206.41,815.2,177.57,793.63,179.06Z" style="fill:url(#e2e99f31-b281-4d17-b5db-ca15711f8cc8)"/><path d="M791.51,185.79c-28.67,10.16-24.77,51.55-30.23,52.64-2,.39-4.22-4.24-5.22-6.55.22,14.9,6.15,30.6,14.81,40.77l33.85,5.88a44,44,0,0,0,9.66-10.75C815,240.45,814,177.81,791.51,185.79Z" style="fill:#f65a4a;opacity:0.5"/><path d="M800.85,181.19c-19.7,2.21-30.86,28.75-31.71,48-1,23.5,12.6,51.62,31.18,53.64,20.88,2.29,44.47-28.81,41.39-57.59C839.35,203.17,821,178.93,800.85,181.19Z" style="fill:url(#fd0d5085-f90f-4b9f-aac3-b6bb78c9bafa)"/><path d="M800.85,181.19c-19.7,2.21-30.86,28.75-31.71,48-1,23.5,12.6,51.62,31.18,53.64,20.88,2.29,44.47-28.81,41.39-57.59C839.35,203.17,821,178.93,800.85,181.19Z" style="fill:url(#fd8983df-124e-4861-92d2-a461764e9202)"/><path d="M841.65,225.23c-1.46-13.66-9.08-28.15-19.43-36.68-18.18-.33-34.86,14.11-35.23,41.68-.25,19.51,7.62,37.36,25,50.64C829,273.64,844.16,248.67,841.65,225.23Z" style="fill:#d69a58;opacity:0.2"/><path d="M830.59,238.22c-2.82.56-7.53,9.41-7.53,9.41s-6.58-6.21-9.78-5.46-10.92,8.09-10.92,8.09S795,242,791.44,242.92s-10.91,8.28-10.91,8.28-7.16-8.84-10.36-8.65-11.48,6.21-11.48,6.21-6.4-9.41-9.41-9.23c-1.87.12-6.49,2.85-9.72,4.9,3.28,11.47,9.9,21.88,18.07,28.31l65.81.42a62,62,0,0,0,16.46-27.92C838.4,241.53,833.21,237.69,830.59,238.22Z" style="fill:#e25947;opacity:0.30000000000000004"/><path d="M832.05,229.83a2.58,2.58,0,0,0-1.78.74,2.51,2.51,0,1,0,1.78-.74Z" style="fill:#eaa25d"/><path d="M837,224.08a1.21,1.21,0,0,0-1-.88,1.23,1.23,0,0,0-1.4,1.21,1.27,1.27,0,0,0,1.24,1.24A1.24,1.24,0,0,0,837,224.08Z" style="fill:#eaa25d"/><path d="M830.92,218.32a1.35,1.35,0,0,0-1.34,1.34,1.34,1.34,0,1,0,1.34-1.34Z" style="fill:#eaa25d"/><path d="M817.2,235a1.05,1.05,0,1,0,1,1.05A1.06,1.06,0,0,0,817.2,235Z" style="fill:#eaa25d"/><path d="M812,233.18a1.26,1.26,0,1,0,1.26,1.26A1.29,1.29,0,0,0,812,233.18Z" style="fill:#eaa25d"/><path d="M816.84,228.08a1.76,1.76,0,1,0,1.25,3,1.75,1.75,0,0,0,.52-1.24A1.8,1.8,0,0,0,816.84,228.08Z" style="fill:#eaa25d"/><path d="M815.52,193.36a1.21,1.21,0,0,0-.27,1.69,1.21,1.21,0,1,0,.27-1.69Z" style="fill:#eaa25d"/><path d="M813.38,197.15a2,2,0,0,0-1.21-.09c-2.56.59-1.68,4.82,1,4.2a1.87,1.87,0,0,0,1.23-.89A2.33,2.33,0,0,0,813.38,197.15Z" style="fill:#eaa25d"/><path d="M818,198.84a.93.93,0,1,0,1.31.21A.95.95,0,0,0,818,198.84Z" style="fill:#eaa25d"/><path d="M849.56,233.22c-1.12-1.4-11.76,15.33-11.76,15.33s-4.12-7.66-7.06-6.78S822.49,253,822.49,253s-6.18-7.36-9.71-7.06-10.6,10-10.6,10-6.74-9.11-10.6-8.84c-4.13.3-10.9,9.43-10.9,9.43s-6.77-9.72-9.71-9.72c-4.43,0-10.9,7.65-10.9,7.65S752.71,243,749.77,243c-3.88,0-8.54,5.89-8.54,5.89s-11.89-15.22-13.36-13.75,20.36,49.53,20.36,49.53l78.47.24S851.06,235.09,849.56,233.22Z" style="fill:#ffe8a4"/><path d="M797.35,250.42c-2-1.87-4.12-3.46-5.77-3.35-4.13.3-10.9,9.43-10.9,9.43s-6.77-9.72-9.71-9.72c-4.43,0-10.9,7.65-10.9,7.65S752.71,243,749.77,243c-3.88,0-8.54,5.89-8.54,5.89s7.1-4.92,8.56-4.67S760.31,256,760.31,256,768.63,248,771,248.2s10,10.4,10,10.4,7.46-10.52,10.51-10.64C793.13,247.89,795.5,249.19,797.35,250.42Z" style="fill:#fff5ff"/><path d="M806.72,181.29c-.81-.11-1.63-.2-2.46-.23a20.83,20.83,0,0,0-10.68-2,32.06,32.06,0,0,0-10.48,2.5,24.52,24.52,0,0,0-6.4-1c-13-.27-23.29,7.3-30.11,17.69a46.77,46.77,0,0,0,15.84,4.91C781.48,205.53,799,196.24,806.72,181.29Z" style="fill:#f9e6c6;opacity:0.30000000000000004"/><polygon points="899.53 235.09 1020.85 233.22 1001.38 273.28 916.01 262.8 899.53 235.09" style="fill:#db9092"/><path d="M948.05,180.56c-22.46-.47-36.91,22.52-39.16,43-2.94,26.57,16.74,56.51,38.16,55.9,21.14-.61,38.32-30.79,35.48-56.47C980.53,204.85,967.79,181,948.05,180.56Z" style="fill:url(#bb1bc41f-02eb-4a3b-9d39-b3dede9b312a)"/><path d="M954.94,186.6c-2.31,1.14-26.73,6.53-30.64,40.51-2.81,24.45,14.88,52.11,33.49,51.82,16.58-.26,31.46-22.64,32.1-43C990.54,215.51,976.77,195.68,954.94,186.6Z" style="fill:#b36016;opacity:0.30000000000000004"/><path d="M964.92,179.06c-22.59,1.55-36.35,25.35-37.51,49.26-1.26,25.72,15.65,55.45,34.8,55.43S997.79,253.5,997,228C996.35,206.41,986.49,177.57,964.92,179.06Z" style="fill:url(#e64556c7-ac4b-423e-a314-1d27a7d0ca7c)"/><path d="M962.79,185.79C934.13,196,938,237.34,932.57,238.43c-2,.39-4.23-4.24-5.22-6.55.22,14.9,6.15,30.6,14.81,40.77L976,278.53a44.16,44.16,0,0,0,9.65-10.75C986.28,240.45,985.29,177.81,962.79,185.79Z" style="fill:#f65a4a;opacity:0.5"/><path d="M972.14,181.19c-19.7,2.21-30.86,28.75-31.72,48-1,23.5,12.61,51.62,31.18,53.64,20.89,2.29,44.47-28.81,41.4-57.59C1010.64,203.17,992.24,178.93,972.14,181.19Z" style="fill:url(#bbaa41c5-7c04-4472-9b23-48e4900bc0a9)"/><path d="M972.14,181.19c-19.7,2.21-30.86,28.75-31.72,48-1,23.5,12.61,51.62,31.18,53.64,20.89,2.29,44.47-28.81,41.4-57.59C1010.64,203.17,992.24,178.93,972.14,181.19Z" style="fill:url(#b30e4b38-c191-422c-b0b6-d5df81347f8c)"/><path d="M1012.94,225.23c-1.46-13.66-9.08-28.15-19.44-36.68-18.18-.33-34.86,14.11-35.22,41.68-.26,19.51,7.62,37.36,25,50.64C1000.27,273.64,1015.45,248.67,1012.94,225.23Z" style="fill:#d69a58;opacity:0.2"/><path d="M1001.88,238.22c-2.83.56-7.53,9.41-7.53,9.41s-6.59-6.21-9.79-5.46-10.91,8.09-10.91,8.09-7.34-8.28-10.92-7.34-10.92,8.28-10.92,8.28-7.15-8.84-10.35-8.65S930,248.76,930,248.76s-6.4-9.41-9.41-9.23c-1.87.12-6.49,2.85-9.73,4.9,3.29,11.47,9.91,21.88,18.08,28.31l65.8.42a61.86,61.86,0,0,0,16.46-27.92C1009.68,241.53,1004.49,237.69,1001.88,238.22Z" style="fill:#e25947;opacity:0.30000000000000004"/><path d="M1003.33,229.83a2.58,2.58,0,0,0-1.77.74,2.51,2.51,0,0,0,1.77,4.28,2.58,2.58,0,0,0,1.78-.74,2.51,2.51,0,0,0-1.78-4.28Z" style="fill:#eaa25d"/><path d="M1008.27,224.08a1.22,1.22,0,0,0-1-.88,1.23,1.23,0,0,0-1.4,1.21,1.26,1.26,0,0,0,1.24,1.24A1.24,1.24,0,0,0,1008.27,224.08Z" style="fill:#eaa25d"/><path d="M1002.2,218.32a1.35,1.35,0,1,0,1.35,1.34A1.36,1.36,0,0,0,1002.2,218.32Z" style="fill:#eaa25d"/><path d="M988.49,235a1.05,1.05,0,1,0,1,1.05A1.06,1.06,0,0,0,988.49,235Z" style="fill:#eaa25d"/><path d="M983.32,233.18a1.28,1.28,0,0,0-1.26,1.26,1.29,1.29,0,0,0,1.26,1.26,1.26,1.26,0,0,0,0-2.52Z" style="fill:#eaa25d"/><path d="M988.13,228.08a1.76,1.76,0,0,0,0,3.52,1.83,1.83,0,0,0,1.25-.52,1.76,1.76,0,0,0-1.25-3Z" style="fill:#eaa25d"/><path d="M986.8,193.36a1.21,1.21,0,0,0,1.43,2,1.21,1.21,0,0,0-1.43-2Z" style="fill:#eaa25d"/><path d="M984.66,197.15a2,2,0,0,0-1.21-.09c-2.55.59-1.67,4.82,1,4.2a1.89,1.89,0,0,0,1.23-.89A2.33,2.33,0,0,0,984.66,197.15Z" style="fill:#eaa25d"/><path d="M989.3,198.84a.93.93,0,1,0,1.31.21A.95.95,0,0,0,989.3,198.84Z" style="fill:#eaa25d"/><path d="M1020.85,233.22c-1.12-1.4-11.76,15.33-11.76,15.33s-4.12-7.66-7.07-6.78S993.78,253,993.78,253s-6.19-7.36-9.72-7.06-10.6,10-10.6,10-6.73-9.11-10.6-8.84c-4.12.3-10.89,9.43-10.89,9.43s-6.77-9.72-9.72-9.72c-4.42,0-10.89,7.65-10.89,7.65S924,243,921.05,243c-3.87,0-8.54,5.89-8.54,5.89s-11.88-15.22-13.35-13.75,20.36,49.53,20.36,49.53l78.47.24S1022.34,235.09,1020.85,233.22Z" style="fill:#ffe8a4"/><path d="M968.64,250.42c-1.95-1.87-4.13-3.46-5.78-3.35-4.12.3-10.89,9.43-10.89,9.43s-6.77-9.72-9.72-9.72c-4.42,0-10.89,7.65-10.89,7.65S924,243,921.05,243c-3.87,0-8.54,5.89-8.54,5.89s7.1-4.92,8.57-4.67S931.6,256,931.6,256s8.31-8.07,10.64-7.83,10,10.4,10,10.4,7.46-10.52,10.52-10.64C964.41,247.89,966.78,249.19,968.64,250.42Z" style="fill:#fff5ff"/><path d="M978,181.29c-.82-.11-1.64-.2-2.46-.23a20.87,20.87,0,0,0-10.69-2,32,32,0,0,0-10.47,2.5,24.59,24.59,0,0,0-6.4-1c-13-.27-23.29,7.3-30.12,17.69a46.9,46.9,0,0,0,15.85,4.91C952.76,205.53,970.32,196.24,978,181.29Z" style="fill:#f9e6c6;opacity:0.30000000000000004"/><polygon points="1070.82 235.09 1192.13 233.22 1172.66 273.28 1087.29 262.8 1070.82 235.09" style="fill:#db9092"/><path d="M1119.33,180.56c-22.45-.47-36.9,22.52-39.16,43-2.93,26.57,16.74,56.51,38.17,55.9,21.14-.61,38.32-30.79,35.48-56.47C1151.82,204.85,1139.07,181,1119.33,180.56Z" style="fill:url(#eb349fbd-5eb4-4776-a036-5de537df167b)"/><path d="M1126.22,186.6c-2.3,1.14-26.72,6.53-30.63,40.51-2.81,24.45,14.88,52.11,33.49,51.82,16.57-.26,31.45-22.64,32.1-43C1161.83,215.51,1148.06,195.68,1126.22,186.6Z" style="fill:#b36016;opacity:0.30000000000000004"/><path d="M1136.21,179.06c-22.59,1.55-36.35,25.35-37.52,49.26-1.25,25.72,15.66,55.45,34.81,55.43s35.58-30.25,34.8-55.78C1167.64,206.41,1157.78,177.57,1136.21,179.06Z" style="fill:url(#fc25d5ba-6441-43fe-b42d-78ec8bb602a4)"/><path d="M1134.08,185.79c-28.66,10.16-24.77,51.55-30.23,52.64-2,.39-4.22-4.24-5.21-6.55.21,14.9,6.14,30.6,14.8,40.77l33.86,5.88a44.16,44.16,0,0,0,9.65-10.75C1157.57,240.45,1156.58,177.81,1134.08,185.79Z" style="fill:#f65a4a;opacity:0.5"/><path d="M1143.43,181.19c-19.71,2.21-30.87,28.75-31.72,48-1,23.5,12.61,51.62,31.18,53.64,20.89,2.29,44.47-28.81,41.39-57.59C1181.92,203.17,1163.52,178.93,1143.43,181.19Z" style="fill:url(#b34f87d3-962c-4fb5-a526-4f18b7f93360)"/><path d="M1143.43,181.19c-19.71,2.21-30.87,28.75-31.72,48-1,23.5,12.61,51.62,31.18,53.64,20.89,2.29,44.47-28.81,41.39-57.59C1181.92,203.17,1163.52,178.93,1143.43,181.19Z" style="fill:url(#fd8e6b41-ad01-43d3-bfaa-812161c1bfe5)"/><path d="M1184.22,225.23c-1.46-13.66-9.07-28.15-19.43-36.68-18.18-.33-34.86,14.11-35.22,41.68-.26,19.51,7.61,37.36,25,50.64C1171.56,273.64,1186.73,248.67,1184.22,225.23Z" style="fill:#d69a58;opacity:0.2"/><path d="M1173.16,238.22c-2.82.56-7.52,9.41-7.52,9.41s-6.59-6.21-9.79-5.46-10.92,8.09-10.92,8.09-7.34-8.28-10.91-7.34-10.92,8.28-10.92,8.28-7.15-8.84-10.35-8.65-11.48,6.21-11.48,6.21-6.4-9.41-9.41-9.23c-1.87.12-6.49,2.85-9.73,4.9,3.28,11.47,9.9,21.88,18.08,28.31l65.8.42a62,62,0,0,0,16.46-27.92C1181,241.53,1175.78,237.69,1173.16,238.22Z" style="fill:#e25947;opacity:0.30000000000000004"/><path d="M1174.62,229.83a2.56,2.56,0,0,0-1.77.74,2.52,2.52,0,0,0-.74,1.77,2.5,2.5,0,0,0,4.28,1.77,2.5,2.5,0,0,0,.74-1.77A2.55,2.55,0,0,0,1174.62,229.83Z" style="fill:#eaa25d"/><path d="M1179.56,224.08a1.25,1.25,0,0,0-2.44.33,1.27,1.27,0,0,0,1.24,1.24A1.25,1.25,0,0,0,1179.56,224.08Z" style="fill:#eaa25d"/><path d="M1173.49,218.32a1.35,1.35,0,1,0,1.34,1.34A1.36,1.36,0,0,0,1173.49,218.32Z" style="fill:#eaa25d"/><path d="M1159.77,235a1.06,1.06,0,0,0-1,1.05,1.08,1.08,0,0,0,1,1,1.06,1.06,0,0,0,1-1A1.07,1.07,0,0,0,1159.77,235Z" style="fill:#eaa25d"/><path d="M1154.61,233.18a1.26,1.26,0,1,0,1.26,1.26A1.27,1.27,0,0,0,1154.61,233.18Z" style="fill:#eaa25d"/><path d="M1159.42,228.08a1.74,1.74,0,0,0-1.76,1.76,1.79,1.79,0,0,0,1.76,1.76,1.81,1.81,0,0,0,1.24-.52,1.75,1.75,0,0,0,.52-1.24A1.79,1.79,0,0,0,1159.42,228.08Z" style="fill:#eaa25d"/><path d="M1158.09,193.36a1.21,1.21,0,1,0,1.69.26A1.22,1.22,0,0,0,1158.09,193.36Z" style="fill:#eaa25d"/><path d="M1156,197.15a2,2,0,0,0-1.21-.09c-2.55.59-1.68,4.82,1,4.2a1.85,1.85,0,0,0,1.22-.89A2.33,2.33,0,0,0,1156,197.15Z" style="fill:#eaa25d"/><path d="M1160.59,198.84a.93.93,0,1,0,1.1,1.51.93.93,0,0,0-1.1-1.51Z" style="fill:#eaa25d"/><path d="M1192.13,233.22c-1.12-1.4-11.75,15.33-11.75,15.33s-4.13-7.66-7.07-6.78-8.25,11.19-8.25,11.19-6.18-7.36-9.71-7.06-10.6,10-10.6,10-6.74-9.11-10.6-8.84c-4.12.3-10.9,9.43-10.9,9.43s-6.77-9.72-9.71-9.72c-4.43,0-10.9,7.65-10.9,7.65s-7.36-11.48-10.3-11.48c-3.87,0-8.54,5.89-8.54,5.89s-11.88-15.22-13.36-13.75,20.36,49.53,20.36,49.53l78.48.24S1193.63,235.09,1192.13,233.22Z" style="fill:#ffe8a4"/><path d="M1139.92,250.42c-2-1.87-4.12-3.46-5.77-3.35-4.12.3-10.9,9.43-10.9,9.43s-6.77-9.72-9.71-9.72c-4.43,0-10.9,7.65-10.9,7.65s-7.36-11.48-10.3-11.48c-3.87,0-8.54,5.89-8.54,5.89s7.1-4.92,8.57-4.67S1102.88,256,1102.88,256s8.32-8.07,10.64-7.83,10,10.4,10,10.4,7.46-10.52,10.52-10.64C1135.7,247.89,1138.07,249.19,1139.92,250.42Z" style="fill:#fff5ff"/><path d="M1149.3,181.29c-.82-.11-1.64-.2-2.47-.23a20.83,20.83,0,0,0-10.68-2,32.06,32.06,0,0,0-10.48,2.5,24.52,24.52,0,0,0-6.4-1c-13-.27-23.29,7.3-30.11,17.69a46.76,46.76,0,0,0,15.85,4.91C1124.05,205.53,1141.61,196.24,1149.3,181.29Z" style="fill:#f9e6c6;opacity:0.30000000000000004"/><polygon points="1242.11 235.09 1363.42 233.22 1343.95 273.28 1258.58 262.8 1242.11 235.09" style="fill:#db9092"/><path d="M1290.62,180.56c-22.46-.47-36.91,22.52-39.16,43-2.93,26.57,16.74,56.51,38.17,55.9,21.14-.61,38.31-30.79,35.48-56.47C1323.1,204.85,1310.36,181,1290.62,180.56Z" style="fill:url(#a3d47055-280a-449d-844e-132f09c1d365)"/><path d="M1297.51,186.6c-2.3,1.14-26.72,6.53-30.63,40.51-2.82,24.45,14.87,52.11,33.48,51.82,16.58-.26,31.46-22.64,32.1-43C1333.11,215.51,1319.35,195.68,1297.51,186.6Z" style="fill:#b36016;opacity:0.30000000000000004"/><path d="M1307.49,179.06c-22.58,1.55-36.34,25.35-37.51,49.26-1.25,25.72,15.66,55.45,34.8,55.43,19.3,0,35.59-30.25,34.81-55.78C1338.93,206.41,1329.06,177.57,1307.49,179.06Z" style="fill:url(#b838356e-a1c8-4397-8ecd-d60368038047)"/><path d="M1305.37,185.79c-28.67,10.16-24.77,51.55-30.23,52.64-2,.39-4.22-4.24-5.22-6.55.22,14.9,6.15,30.6,14.81,40.77l33.85,5.88a44.19,44.19,0,0,0,9.66-10.75C1328.85,240.45,1327.86,177.81,1305.37,185.79Z" style="fill:#f65a4a;opacity:0.5"/><path d="M1314.71,181.19c-19.7,2.21-30.86,28.75-31.71,48-1,23.5,12.6,51.62,31.18,53.64,20.88,2.29,44.47-28.81,41.39-57.59C1353.21,203.17,1334.81,178.93,1314.71,181.19Z" style="fill:url(#ed550b45-71b2-43c5-8df7-e5b254df6243)"/><path d="M1314.71,181.19c-19.7,2.21-30.86,28.75-31.71,48-1,23.5,12.6,51.62,31.18,53.64,20.88,2.29,44.47-28.81,41.39-57.59C1353.21,203.17,1334.81,178.93,1314.71,181.19Z" style="fill:url(#ad53c887-645d-4231-b816-7243c95fff7e)"/><path d="M1355.51,225.23c-1.46-13.66-9.08-28.15-19.44-36.68-18.17-.33-34.86,14.11-35.22,41.68-.25,19.51,7.62,37.36,25,50.64C1342.84,273.64,1358,248.67,1355.51,225.23Z" style="fill:#d69a58;opacity:0.2"/><path d="M1344.45,238.22c-2.82.56-7.53,9.41-7.53,9.41s-6.59-6.21-9.79-5.46-10.91,8.09-10.91,8.09-7.34-8.28-10.92-7.34-10.91,8.28-10.91,8.28-7.16-8.84-10.36-8.65-11.48,6.21-11.48,6.21-6.4-9.41-9.41-9.23c-1.87.12-6.49,2.85-9.73,4.9,3.29,11.47,9.91,21.88,18.08,28.31l65.8.42a61.88,61.88,0,0,0,16.47-27.92C1352.26,241.53,1347.07,237.69,1344.45,238.22Z" style="fill:#e25947;opacity:0.30000000000000004"/><path d="M1345.91,229.83a2.58,2.58,0,0,0-1.78.74,2.51,2.51,0,0,0,1.78,4.28,2.58,2.58,0,0,0,1.77-.74,2.51,2.51,0,0,0-1.77-4.28Z" style="fill:#eaa25d"/><path d="M1350.84,224.08a1.21,1.21,0,0,0-1-.88,1.23,1.23,0,0,0-1.4,1.21,1.27,1.27,0,0,0,1.24,1.24A1.24,1.24,0,0,0,1350.84,224.08Z" style="fill:#eaa25d"/><path d="M1344.78,218.32a1.36,1.36,0,0,0-1.35,1.34,1.38,1.38,0,0,0,1.35,1.35,1.35,1.35,0,0,0,0-2.69Z" style="fill:#eaa25d"/><path d="M1331.06,235a1.05,1.05,0,1,0,1,1.05A1.06,1.06,0,0,0,1331.06,235Z" style="fill:#eaa25d"/><path d="M1325.9,233.18a1.26,1.26,0,1,0,1.26,1.26A1.29,1.29,0,0,0,1325.9,233.18Z" style="fill:#eaa25d"/><path d="M1330.7,228.08a1.76,1.76,0,0,0,0,3.52,1.83,1.83,0,0,0,1.25-.52,1.76,1.76,0,0,0-1.25-3Z" style="fill:#eaa25d"/><path d="M1329.37,193.36a1.21,1.21,0,0,0,1.43,2,1.21,1.21,0,1,0-1.43-2Z" style="fill:#eaa25d"/><path d="M1327.24,197.15a2,2,0,0,0-1.21-.09c-2.56.59-1.68,4.82,1,4.2a1.87,1.87,0,0,0,1.23-.89A2.33,2.33,0,0,0,1327.24,197.15Z" style="fill:#eaa25d"/><path d="M1331.87,198.84a.93.93,0,1,0,1.31.21A.95.95,0,0,0,1331.87,198.84Z" style="fill:#eaa25d"/><path d="M1363.42,233.22c-1.12-1.4-11.76,15.33-11.76,15.33s-4.12-7.66-7.06-6.78-8.25,11.19-8.25,11.19-6.18-7.36-9.72-7.06-10.6,10-10.6,10-6.73-9.11-10.6-8.84c-4.12.3-10.89,9.43-10.89,9.43s-6.77-9.72-9.72-9.72c-4.42,0-10.89,7.65-10.89,7.65S1266.57,243,1263.62,243c-3.87,0-8.53,5.89-8.53,5.89s-11.89-15.22-13.36-13.75,20.36,49.53,20.36,49.53l78.47.24S1364.92,235.09,1363.42,233.22Z" style="fill:#ffe8a4"/><path d="M1311.21,250.42c-2-1.87-4.13-3.46-5.78-3.35-4.12.3-10.89,9.43-10.89,9.43s-6.77-9.72-9.72-9.72c-4.42,0-10.89,7.65-10.89,7.65S1266.57,243,1263.62,243c-3.87,0-8.53,5.89-8.53,5.89s7.1-4.92,8.56-4.67S1274.17,256,1274.17,256s8.31-8.07,10.64-7.83,10,10.4,10,10.4,7.45-10.52,10.51-10.64C1307,247.89,1309.36,249.19,1311.21,250.42Z" style="fill:#fff5ff"/><path d="M1320.58,181.29c-.81-.11-1.63-.2-2.46-.23a20.85,20.85,0,0,0-10.68-2,32.06,32.06,0,0,0-10.48,2.5,24.59,24.59,0,0,0-6.4-1c-13-.27-23.29,7.3-30.11,17.69a46.77,46.77,0,0,0,15.84,4.91C1295.34,205.53,1312.89,196.24,1320.58,181.29Z" style="fill:#f9e6c6;opacity:0.30000000000000004"/><polygon points="556.96 368.25 678.27 366.38 658.8 406.44 573.43 395.96 556.96 368.25" style="fill:#db9092"/><path d="M605.47,313.72c-22.45-.47-36.9,22.52-39.16,43-2.93,26.57,16.74,56.51,38.17,55.89,21.14-.6,38.32-30.78,35.48-56.46C638,338,625.22,314.14,605.47,313.72Z" style="fill:url(#e981af11-fec5-4712-a5e8-3f2d55761242)"/><path d="M612.36,319.76c-2.3,1.14-26.72,6.53-30.63,40.51-2.81,24.45,14.88,52.11,33.49,51.82,16.58-.26,31.45-22.64,32.1-42.95C648,348.67,634.2,328.84,612.36,319.76Z" style="fill:#b36016;opacity:0.30000000000000004"/><path d="M622.35,312.21c-22.59,1.56-36.35,25.35-37.51,49.27-1.26,25.72,15.65,55.45,34.8,55.43,19.3,0,35.58-30.25,34.8-55.78C653.78,339.57,643.92,310.73,622.35,312.21Z" style="fill:url(#fe3be580-313c-432b-89ec-e4bfb7951be4)"/><path d="M620.22,319c-28.66,10.16-24.76,51.55-30.23,52.64-2,.39-4.22-4.24-5.21-6.55.21,14.9,6.14,30.6,14.8,40.77l33.86,5.88a44.53,44.53,0,0,0,9.65-10.75C643.71,373.61,642.72,311,620.22,319Z" style="fill:#f65a4a;opacity:0.5"/><path d="M629.57,314.35c-19.7,2.21-30.87,28.75-31.72,48-1,23.5,12.61,51.61,31.18,53.64,20.89,2.28,44.47-28.81,41.39-57.59C668.06,336.33,649.67,312.09,629.57,314.35Z" style="fill:url(#ba5ca801-29c7-4117-aa7e-961f8c0d0b36)"/><path d="M629.57,314.35c-19.7,2.21-30.87,28.75-31.72,48-1,23.5,12.61,51.61,31.18,53.64,20.89,2.28,44.47-28.81,41.39-57.59C668.06,336.33,649.67,312.09,629.57,314.35Z" style="fill:url(#ae6fcf0b-7dff-4d56-808d-193810170ce7)"/><path d="M670.37,358.39c-1.47-13.66-9.08-28.15-19.44-36.68-18.18-.33-34.86,14.11-35.22,41.68-.26,19.51,7.61,37.36,25,50.64C657.7,406.8,672.87,381.83,670.37,358.39Z" style="fill:#d69a58;opacity:0.2"/><path d="M659.3,371.38c-2.82.56-7.52,9.41-7.52,9.41s-6.59-6.21-9.79-5.46-10.92,8.09-10.92,8.09-7.34-8.28-10.91-7.34-10.92,8.28-10.92,8.28-7.15-8.84-10.35-8.66-11.48,6.22-11.48,6.22-6.4-9.41-9.41-9.23c-1.87.12-6.49,2.84-9.73,4.9,3.28,11.47,9.91,21.88,18.08,28.31l65.8.42a62,62,0,0,0,16.46-27.92C667.11,374.69,661.92,370.85,659.3,371.38Z" style="fill:#e25947;opacity:0.30000000000000004"/><path d="M660.76,363a2.51,2.51,0,1,0,1.77,4.28,2.52,2.52,0,0,0,.74-1.77A2.55,2.55,0,0,0,660.76,363Z" style="fill:#eaa25d"/><path d="M665.7,357.24a1.25,1.25,0,0,0-2.44.33,1.27,1.27,0,0,0,1.24,1.24A1.25,1.25,0,0,0,665.7,357.24Z" style="fill:#eaa25d"/><path d="M659.63,351.48a1.35,1.35,0,1,0,1.35,1.34A1.38,1.38,0,0,0,659.63,351.48Z" style="fill:#eaa25d"/><path d="M645.91,368.16a1.05,1.05,0,1,0,1.05,1A1.05,1.05,0,0,0,645.91,368.16Z" style="fill:#eaa25d"/><path d="M640.75,366.34a1.27,1.27,0,0,0-1.26,1.26,1.29,1.29,0,0,0,1.26,1.26,1.26,1.26,0,0,0,0-2.52Z" style="fill:#eaa25d"/><path d="M645.56,361.23A1.76,1.76,0,0,0,643.8,363a1.79,1.79,0,0,0,1.76,1.76,1.81,1.81,0,0,0,1.24-.52,1.77,1.77,0,0,0,.52-1.24A1.79,1.79,0,0,0,645.56,361.23Z" style="fill:#eaa25d"/><path d="M644.23,326.51a1.21,1.21,0,1,0,1.42,2,1.21,1.21,0,0,0,.27-1.69A1.24,1.24,0,0,0,644.23,326.51Z" style="fill:#eaa25d"/><path d="M642.09,330.31a2.09,2.09,0,0,0-1.21-.1c-2.55.6-1.67,4.83,1,4.21a1.85,1.85,0,0,0,1.22-.89A2.32,2.32,0,0,0,642.09,330.31Z" style="fill:#eaa25d"/><path d="M646.73,332a.94.94,0,0,0-.21,1.3,1,1,0,0,0,1.31.21.93.93,0,0,0-1.1-1.51Z" style="fill:#eaa25d"/><path d="M678.27,366.38c-1.11-1.4-11.75,15.32-11.75,15.32s-4.13-7.65-7.07-6.77-8.24,11.19-8.24,11.19-6.19-7.36-9.72-7.07-10.6,10-10.6,10-6.74-9.1-10.6-8.83c-4.12.3-10.89,9.42-10.89,9.42s-6.78-9.71-9.72-9.71c-4.43,0-10.9,7.65-10.9,7.65s-7.36-11.48-10.3-11.48c-3.87,0-8.54,5.89-8.54,5.89s-11.88-15.22-13.35-13.75,20.35,49.53,20.35,49.53l78.48.24S679.77,368.25,678.27,366.38Z" style="fill:#ffe8a4"/><path d="M626.06,383.57c-1.95-1.86-4.12-3.46-5.77-3.34-4.12.3-10.89,9.42-10.89,9.42s-6.78-9.71-9.72-9.71c-4.43,0-10.9,7.65-10.9,7.65s-7.36-11.48-10.3-11.48c-3.87,0-8.54,5.89-8.54,5.89s7.1-4.92,8.57-4.67S589,389.19,589,389.19s8.32-8.07,10.64-7.83,10,10.4,10,10.4,7.46-10.52,10.52-10.64C621.84,381.05,624.21,382.35,626.06,383.57Z" style="fill:#fff5ff"/><path d="M635.44,314.45c-.82-.11-1.64-.2-2.47-.23a20.94,20.94,0,0,0-10.68-2,32.2,32.2,0,0,0-10.47,2.51,24.66,24.66,0,0,0-6.4-1c-13-.27-23.3,7.3-30.12,17.69a46.83,46.83,0,0,0,15.85,4.91C610.19,338.69,627.75,329.4,635.44,314.45Z" style="fill:#f9e6c6;opacity:0.30000000000000004"/><polygon points="728.25 368.25 849.56 366.38 830.09 406.44 744.72 395.96 728.25 368.25" style="fill:#db9092"/><path d="M776.76,313.72c-22.45-.47-36.9,22.52-39.16,43-2.93,26.57,16.74,56.51,38.17,55.89,21.14-.6,38.32-30.78,35.48-56.46C809.24,338,796.5,314.14,776.76,313.72Z" style="fill:url(#bf4a742f-017a-4283-8ccb-0accb6681af4)"/><path d="M783.65,319.76c-2.3,1.14-26.72,6.53-30.63,40.51-2.82,24.45,14.87,52.11,33.49,51.82,16.57-.26,31.45-22.64,32.09-42.95C819.25,348.67,805.49,328.84,783.65,319.76Z" style="fill:#b36016;opacity:0.30000000000000004"/><path d="M793.63,312.21c-22.58,1.56-36.34,25.35-37.51,49.27-1.25,25.72,15.66,55.45,34.8,55.43,19.3,0,35.59-30.25,34.81-55.78C825.07,339.57,815.2,310.73,793.63,312.21Z" style="fill:url(#aa7d736c-c478-49e6-be85-3fdecc27c2da)"/><path d="M791.51,319c-28.67,10.16-24.77,51.55-30.23,52.64-2,.39-4.22-4.24-5.22-6.55.22,14.9,6.15,30.6,14.81,40.77l33.85,5.88a44.36,44.36,0,0,0,9.66-10.75C815,373.61,814,311,791.51,319Z" style="fill:#f65a4a;opacity:0.5"/><path d="M800.85,314.35c-19.7,2.21-30.86,28.75-31.71,48-1,23.5,12.6,51.61,31.18,53.64,20.88,2.28,44.47-28.81,41.39-57.59C839.35,336.33,821,312.09,800.85,314.35Z" style="fill:url(#a2ec92e4-b33f-4861-a159-48999f8de1bc)"/><path d="M800.85,314.35c-19.7,2.21-30.86,28.75-31.71,48-1,23.5,12.6,51.61,31.18,53.64,20.88,2.28,44.47-28.81,41.39-57.59C839.35,336.33,821,312.09,800.85,314.35Z" style="fill:url(#b92e2d94-8539-44cf-b2be-792cc58f4586)"/><path d="M841.65,358.39c-1.46-13.66-9.08-28.15-19.43-36.68-18.18-.33-34.86,14.11-35.23,41.68-.25,19.51,7.62,37.36,25,50.64C829,406.8,844.16,381.83,841.65,358.39Z" style="fill:#d69a58;opacity:0.2"/><path d="M830.59,371.38c-2.82.56-7.53,9.41-7.53,9.41s-6.58-6.21-9.78-5.46-10.92,8.09-10.92,8.09-7.34-8.28-10.92-7.34-10.91,8.28-10.91,8.28-7.16-8.84-10.36-8.66-11.48,6.22-11.48,6.22-6.4-9.41-9.41-9.23c-1.87.12-6.49,2.84-9.72,4.9,3.28,11.47,9.9,21.88,18.07,28.31l65.81.42A62,62,0,0,0,839.9,378.4C838.4,374.69,833.21,370.85,830.59,371.38Z" style="fill:#e25947;opacity:0.30000000000000004"/><path d="M832.05,363a2.58,2.58,0,0,0-1.78.74,2.51,2.51,0,0,0,1.78,4.28,2.51,2.51,0,0,0,0-5Z" style="fill:#eaa25d"/><path d="M837,357.24a1.21,1.21,0,0,0-1-.88,1.23,1.23,0,0,0-1.4,1.21,1.27,1.27,0,0,0,1.24,1.24A1.25,1.25,0,0,0,837,357.24Z" style="fill:#eaa25d"/><path d="M830.92,351.48a1.35,1.35,0,0,0-1.34,1.34,1.34,1.34,0,1,0,1.34-1.34Z" style="fill:#eaa25d"/><path d="M817.2,368.16a1.05,1.05,0,1,0,1,1A1.06,1.06,0,0,0,817.2,368.16Z" style="fill:#eaa25d"/><path d="M812,366.34a1.26,1.26,0,1,0,1.26,1.26A1.29,1.29,0,0,0,812,366.34Z" style="fill:#eaa25d"/><path d="M816.84,361.23a1.81,1.81,0,0,0-1.24.52,1.76,1.76,0,0,0,1.24,3,1.81,1.81,0,0,0,1.25-.52,1.77,1.77,0,0,0,.52-1.24A1.81,1.81,0,0,0,816.84,361.23Z" style="fill:#eaa25d"/><path d="M815.52,326.51a1.21,1.21,0,1,0,1.69.27A1.24,1.24,0,0,0,815.52,326.51Z" style="fill:#eaa25d"/><path d="M813.38,330.31a2.09,2.09,0,0,0-1.21-.1c-2.56.6-1.68,4.83,1,4.21a1.87,1.87,0,0,0,1.23-.89A2.33,2.33,0,0,0,813.38,330.31Z" style="fill:#eaa25d"/><path d="M818,332a.93.93,0,1,0,1.31.21A1,1,0,0,0,818,332Z" style="fill:#eaa25d"/><path d="M849.56,366.38c-1.12-1.4-11.76,15.32-11.76,15.32s-4.12-7.65-7.06-6.77-8.25,11.19-8.25,11.19-6.18-7.36-9.71-7.07-10.6,10-10.6,10-6.74-9.1-10.6-8.83c-4.13.3-10.9,9.42-10.9,9.42s-6.77-9.71-9.71-9.71c-4.43,0-10.9,7.65-10.9,7.65s-7.36-11.48-10.3-11.48c-3.88,0-8.54,5.89-8.54,5.89s-11.89-15.22-13.36-13.75,20.36,49.53,20.36,49.53l78.47.24S851.06,368.25,849.56,366.38Z" style="fill:#ffe8a4"/><path d="M797.35,383.57c-2-1.86-4.12-3.46-5.77-3.34-4.13.3-10.9,9.42-10.9,9.42s-6.77-9.71-9.71-9.71c-4.43,0-10.9,7.65-10.9,7.65s-7.36-11.48-10.3-11.48c-3.88,0-8.54,5.89-8.54,5.89s7.1-4.92,8.56-4.67,10.52,11.86,10.52,11.86,8.32-8.07,10.64-7.83,10,10.4,10,10.4,7.46-10.52,10.51-10.64C793.13,381.05,795.5,382.35,797.35,383.57Z" style="fill:#fff5ff"/><path d="M806.72,314.45c-.81-.11-1.63-.2-2.46-.23a20.94,20.94,0,0,0-10.68-2,32.33,32.33,0,0,0-10.48,2.51,24.52,24.52,0,0,0-6.4-1c-13-.27-23.29,7.3-30.11,17.69a46.77,46.77,0,0,0,15.84,4.91C781.48,338.69,799,329.4,806.72,314.45Z" style="fill:#f9e6c6;opacity:0.30000000000000004"/><polygon points="899.53 368.25 1020.85 366.38 1001.38 406.44 916.01 395.96 899.53 368.25" style="fill:#db9092"/><path d="M948.05,313.72c-22.46-.47-36.91,22.52-39.16,43-2.94,26.57,16.74,56.51,38.16,55.89,21.14-.6,38.32-30.78,35.48-56.46C980.53,338,967.79,314.14,948.05,313.72Z" style="fill:url(#f09b0e7a-3c13-4761-a93a-297361f3c4a8)"/><path d="M954.94,319.76c-2.31,1.14-26.73,6.53-30.64,40.51-2.81,24.45,14.88,52.11,33.49,51.82,16.58-.26,31.46-22.64,32.1-42.95C990.54,348.67,976.77,328.84,954.94,319.76Z" style="fill:#b36016;opacity:0.30000000000000004"/><path d="M964.92,312.21c-22.59,1.56-36.35,25.35-37.51,49.27-1.26,25.72,15.65,55.45,34.8,55.43s35.58-30.25,34.8-55.78C996.35,339.57,986.49,310.73,964.92,312.21Z" style="fill:url(#a2d519fc-c12d-4dad-90d7-9931a69474eb)"/><path d="M962.79,319c-28.66,10.16-24.76,51.55-30.22,52.64-2,.39-4.23-4.24-5.22-6.55.22,14.9,6.15,30.6,14.81,40.77L976,411.69a44.53,44.53,0,0,0,9.65-10.75C986.28,373.61,985.29,311,962.79,319Z" style="fill:#f65a4a;opacity:0.5"/><path d="M972.14,314.35c-19.7,2.21-30.86,28.75-31.72,48C939.38,385.84,953,414,971.6,416c20.89,2.28,44.47-28.81,41.4-57.59C1010.64,336.33,992.24,312.09,972.14,314.35Z" style="fill:url(#abb1a5e6-cac5-4a9e-88fd-26f8d31951f5)"/><path d="M972.14,314.35c-19.7,2.21-30.86,28.75-31.72,48C939.38,385.84,953,414,971.6,416c20.89,2.28,44.47-28.81,41.4-57.59C1010.64,336.33,992.24,312.09,972.14,314.35Z" style="fill:url(#f6c28d59-99b1-4e6b-9422-87c897445932)"/><path d="M1012.94,358.39c-1.46-13.66-9.08-28.15-19.44-36.68-18.18-.33-34.86,14.11-35.22,41.68-.26,19.51,7.62,37.36,25,50.64C1000.27,406.8,1015.45,381.83,1012.94,358.39Z" style="fill:#d69a58;opacity:0.2"/><path d="M1001.88,371.38c-2.83.56-7.53,9.41-7.53,9.41s-6.59-6.21-9.79-5.46-10.91,8.09-10.91,8.09-7.34-8.28-10.92-7.34-10.92,8.28-10.92,8.28-7.15-8.84-10.35-8.66S930,381.92,930,381.92s-6.4-9.41-9.41-9.23c-1.87.12-6.49,2.84-9.73,4.9,3.29,11.47,9.91,21.88,18.08,28.31l65.8.42a61.91,61.91,0,0,0,16.46-27.92C1009.68,374.69,1004.49,370.85,1001.88,371.38Z" style="fill:#e25947;opacity:0.30000000000000004"/><path d="M1003.33,363a2.58,2.58,0,0,0-1.77.74,2.51,2.51,0,0,0,1.77,4.28,2.58,2.58,0,0,0,1.78-.74,2.51,2.51,0,0,0-1.78-4.28Z" style="fill:#eaa25d"/><path d="M1008.27,357.24a1.24,1.24,0,0,0-2.43.33,1.24,1.24,0,1,0,2.43-.33Z" style="fill:#eaa25d"/><path d="M1002.2,351.48a1.35,1.35,0,1,0,1.35,1.34A1.36,1.36,0,0,0,1002.2,351.48Z" style="fill:#eaa25d"/><path d="M988.49,368.16a1.05,1.05,0,1,0,1,1A1.06,1.06,0,0,0,988.49,368.16Z" style="fill:#eaa25d"/><path d="M983.32,366.34a1.28,1.28,0,0,0-1.26,1.26,1.29,1.29,0,0,0,1.26,1.26,1.26,1.26,0,0,0,0-2.52Z" style="fill:#eaa25d"/><path d="M988.13,361.23a1.77,1.77,0,0,0,0,3.53,1.83,1.83,0,0,0,1.25-.52,1.77,1.77,0,0,0-1.25-3Z" style="fill:#eaa25d"/><path d="M986.8,326.51a1.21,1.21,0,0,0,1.43,2,1.22,1.22,0,0,0,.26-1.69A1.24,1.24,0,0,0,986.8,326.51Z" style="fill:#eaa25d"/><path d="M984.66,330.31a2.08,2.08,0,0,0-1.21-.1c-2.55.6-1.67,4.83,1,4.21a1.89,1.89,0,0,0,1.23-.89A2.33,2.33,0,0,0,984.66,330.31Z" style="fill:#eaa25d"/><path d="M989.3,332a.93.93,0,0,0,1.1,1.51.93.93,0,1,0-1.1-1.51Z" style="fill:#eaa25d"/><path d="M1020.85,366.38c-1.12-1.4-11.76,15.32-11.76,15.32s-4.12-7.65-7.07-6.77-8.24,11.19-8.24,11.19-6.19-7.36-9.72-7.07-10.6,10-10.6,10-6.73-9.1-10.6-8.83c-4.12.3-10.89,9.42-10.89,9.42s-6.77-9.71-9.72-9.71c-4.42,0-10.89,7.65-10.89,7.65s-7.36-11.48-10.31-11.48c-3.87,0-8.54,5.89-8.54,5.89s-11.88-15.22-13.35-13.75,20.36,49.53,20.36,49.53L998,418S1022.34,368.25,1020.85,366.38Z" style="fill:#ffe8a4"/><path d="M968.64,383.57c-1.95-1.86-4.13-3.46-5.78-3.34-4.12.3-10.89,9.42-10.89,9.42s-6.77-9.71-9.72-9.71c-4.42,0-10.89,7.65-10.89,7.65s-7.36-11.48-10.31-11.48c-3.87,0-8.54,5.89-8.54,5.89s7.1-4.92,8.57-4.67,10.52,11.86,10.52,11.86,8.31-8.07,10.64-7.83,10,10.4,10,10.4,7.46-10.52,10.52-10.64C964.41,381.05,966.78,382.35,968.64,383.57Z" style="fill:#fff5ff"/><path d="M978,314.45c-.82-.11-1.64-.2-2.46-.23a21,21,0,0,0-10.69-2,32.27,32.27,0,0,0-10.47,2.51,24.59,24.59,0,0,0-6.4-1c-13-.27-23.29,7.3-30.12,17.69a46.9,46.9,0,0,0,15.85,4.91C952.76,338.69,970.32,329.4,978,314.45Z" style="fill:#f9e6c6;opacity:0.30000000000000004"/><polygon points="1070.82 368.25 1192.13 366.38 1172.66 406.44 1087.29 395.96 1070.82 368.25" style="fill:#db9092"/><path d="M1119.33,313.72c-22.45-.47-36.9,22.52-39.16,43-2.93,26.57,16.74,56.51,38.17,55.89,21.14-.6,38.32-30.78,35.48-56.46C1151.82,338,1139.07,314.14,1119.33,313.72Z" style="fill:url(#aab0b88a-5f62-4540-8ba9-059088b99bb2)"/><path d="M1126.22,319.76c-2.3,1.14-26.72,6.53-30.63,40.51-2.81,24.45,14.88,52.11,33.49,51.82,16.57-.26,31.45-22.64,32.1-42.95C1161.83,348.67,1148.06,328.84,1126.22,319.76Z" style="fill:#b36016;opacity:0.30000000000000004"/><path d="M1136.21,312.21c-22.59,1.56-36.35,25.35-37.52,49.27-1.25,25.72,15.66,55.45,34.81,55.43s35.58-30.25,34.8-55.78C1167.64,339.57,1157.78,310.73,1136.21,312.21Z" style="fill:url(#bc39a817-2b14-4898-b398-be52124a5295)"/><path d="M1134.08,319c-28.66,10.16-24.77,51.55-30.23,52.64-2,.39-4.22-4.24-5.21-6.55.21,14.9,6.14,30.6,14.8,40.77l33.86,5.88a44.53,44.53,0,0,0,9.65-10.75C1157.57,373.61,1156.58,311,1134.08,319Z" style="fill:#f65a4a;opacity:0.5"/><path d="M1143.43,314.35c-19.71,2.21-30.87,28.75-31.72,48-1,23.5,12.61,51.61,31.18,53.64,20.89,2.28,44.47-28.81,41.39-57.59C1181.92,336.33,1163.52,312.09,1143.43,314.35Z" style="fill:url(#e5e8e294-02c6-4ebc-be47-c2399b80b566)"/><path d="M1143.43,314.35c-19.71,2.21-30.87,28.75-31.72,48-1,23.5,12.61,51.61,31.18,53.64,20.89,2.28,44.47-28.81,41.39-57.59C1181.92,336.33,1163.52,312.09,1143.43,314.35Z" style="fill:url(#b98e3dfc-3add-48c8-984f-cedb32df41ab)"/><path d="M1184.22,358.39c-1.46-13.66-9.07-28.15-19.43-36.68-18.18-.33-34.86,14.11-35.22,41.68-.26,19.51,7.61,37.36,25,50.64C1171.56,406.8,1186.73,381.83,1184.22,358.39Z" style="fill:#d69a58;opacity:0.2"/><path d="M1173.16,371.38c-2.82.56-7.52,9.41-7.52,9.41s-6.59-6.21-9.79-5.46-10.92,8.09-10.92,8.09-7.34-8.28-10.91-7.34-10.92,8.28-10.92,8.28-7.15-8.84-10.35-8.66-11.48,6.22-11.48,6.22-6.4-9.41-9.41-9.23c-1.87.12-6.49,2.84-9.73,4.9,3.28,11.47,9.9,21.88,18.08,28.31l65.8.42a62,62,0,0,0,16.46-27.92C1181,374.69,1175.78,370.85,1173.16,371.38Z" style="fill:#e25947;opacity:0.30000000000000004"/><path d="M1174.62,363a2.56,2.56,0,0,0-1.77.74,2.5,2.5,0,0,0-.74,1.77,2.5,2.5,0,0,0,4.28,1.77,2.52,2.52,0,0,0,.74-1.77A2.55,2.55,0,0,0,1174.62,363Z" style="fill:#eaa25d"/><path d="M1179.56,357.24a1.25,1.25,0,0,0-2.44.33,1.27,1.27,0,0,0,1.24,1.24A1.25,1.25,0,0,0,1179.56,357.24Z" style="fill:#eaa25d"/><path d="M1173.49,351.48a1.35,1.35,0,1,0,1.34,1.34A1.36,1.36,0,0,0,1173.49,351.48Z" style="fill:#eaa25d"/><path d="M1159.77,368.16a1.06,1.06,0,0,0-1,1,1.08,1.08,0,0,0,1,1.05,1,1,0,0,0,0-2.1Z" style="fill:#eaa25d"/><path d="M1154.61,366.34a1.26,1.26,0,1,0,1.26,1.26A1.27,1.27,0,0,0,1154.61,366.34Z" style="fill:#eaa25d"/><path d="M1159.42,361.23a1.76,1.76,0,0,0-1.76,1.77,1.79,1.79,0,0,0,1.76,1.76,1.81,1.81,0,0,0,1.24-.52,1.77,1.77,0,0,0,.52-1.24A1.8,1.8,0,0,0,1159.42,361.23Z" style="fill:#eaa25d"/><path d="M1158.09,326.51a1.21,1.21,0,1,0,1.42,2,1.21,1.21,0,0,0,.27-1.69A1.24,1.24,0,0,0,1158.09,326.51Z" style="fill:#eaa25d"/><path d="M1156,330.31a2.09,2.09,0,0,0-1.21-.1c-2.55.6-1.68,4.83,1,4.21a1.85,1.85,0,0,0,1.22-.89A2.33,2.33,0,0,0,1156,330.31Z" style="fill:#eaa25d"/><path d="M1160.59,332a.94.94,0,0,0-.21,1.3,1,1,0,0,0,1.31.21.93.93,0,0,0-1.1-1.51Z" style="fill:#eaa25d"/><path d="M1192.13,366.38c-1.12-1.4-11.75,15.32-11.75,15.32s-4.13-7.65-7.07-6.77-8.25,11.19-8.25,11.19-6.18-7.36-9.71-7.07-10.6,10-10.6,10-6.74-9.1-10.6-8.83c-4.12.3-10.9,9.42-10.9,9.42s-6.77-9.71-9.71-9.71c-4.43,0-10.9,7.65-10.9,7.65s-7.36-11.48-10.3-11.48c-3.87,0-8.54,5.89-8.54,5.89s-11.88-15.22-13.36-13.75,20.36,49.53,20.36,49.53l78.48.24S1193.63,368.25,1192.13,366.38Z" style="fill:#ffe8a4"/><path d="M1139.92,383.57c-2-1.86-4.12-3.46-5.77-3.34-4.12.3-10.9,9.42-10.9,9.42s-6.77-9.71-9.71-9.71c-4.43,0-10.9,7.65-10.9,7.65s-7.36-11.48-10.3-11.48c-3.87,0-8.54,5.89-8.54,5.89s7.1-4.92,8.57-4.67,10.51,11.86,10.51,11.86,8.32-8.07,10.64-7.83,10,10.4,10,10.4,7.46-10.52,10.52-10.64C1135.7,381.05,1138.07,382.35,1139.92,383.57Z" style="fill:#fff5ff"/><path d="M1149.3,314.45c-.82-.11-1.64-.2-2.47-.23a20.94,20.94,0,0,0-10.68-2,32.33,32.33,0,0,0-10.48,2.51,24.52,24.52,0,0,0-6.4-1c-13-.27-23.29,7.3-30.11,17.69a46.76,46.76,0,0,0,15.85,4.91C1124.05,338.69,1141.61,329.4,1149.3,314.45Z" style="fill:#f9e6c6;opacity:0.30000000000000004"/><polygon points="1242.11 368.25 1363.42 366.38 1343.95 406.44 1258.58 395.96 1242.11 368.25" style="fill:#db9092"/><path d="M1290.62,313.72c-22.46-.47-36.91,22.52-39.16,43-2.93,26.57,16.74,56.51,38.17,55.89,21.14-.6,38.31-30.78,35.48-56.46C1323.1,338,1310.36,314.14,1290.62,313.72Z" style="fill:url(#fe869552-d182-4c9e-b538-3253d6be32f9)"/><path d="M1297.51,319.76c-2.3,1.14-26.72,6.53-30.63,40.51-2.82,24.45,14.87,52.11,33.48,51.82,16.58-.26,31.46-22.64,32.1-42.95C1333.11,348.67,1319.35,328.84,1297.51,319.76Z" style="fill:#b36016;opacity:0.30000000000000004"/><path d="M1307.49,312.21c-22.58,1.56-36.34,25.35-37.51,49.27-1.25,25.72,15.66,55.45,34.8,55.43,19.3,0,35.59-30.25,34.81-55.78C1338.93,339.57,1329.06,310.73,1307.49,312.21Z" style="fill:url(#a6e7d49b-25ea-4513-b675-ffc43425fa42)"/><path d="M1305.37,319c-28.67,10.16-24.77,51.55-30.23,52.64-2,.39-4.22-4.24-5.22-6.55.22,14.9,6.15,30.6,14.81,40.77l33.85,5.88a44.56,44.56,0,0,0,9.66-10.75C1328.85,373.61,1327.86,311,1305.37,319Z" style="fill:#f65a4a;opacity:0.5"/><path d="M1314.71,314.35c-19.7,2.21-30.86,28.75-31.71,48-1,23.5,12.6,51.61,31.18,53.64,20.88,2.28,44.47-28.81,41.39-57.59C1353.21,336.33,1334.81,312.09,1314.71,314.35Z" style="fill:url(#a16cc47b-444a-45ce-a772-8728572d4ec5)"/><path d="M1314.71,314.35c-19.7,2.21-30.86,28.75-31.71,48-1,23.5,12.6,51.61,31.18,53.64,20.88,2.28,44.47-28.81,41.39-57.59C1353.21,336.33,1334.81,312.09,1314.71,314.35Z" style="fill:url(#a4fbbea3-86bd-4783-af50-38c8fe214597)"/><path d="M1355.51,358.39c-1.46-13.66-9.08-28.15-19.44-36.68-18.17-.33-34.86,14.11-35.22,41.68-.25,19.51,7.62,37.36,25,50.64C1342.84,406.8,1358,381.83,1355.51,358.39Z" style="fill:#d69a58;opacity:0.2"/><path d="M1344.45,371.38c-2.82.56-7.53,9.41-7.53,9.41s-6.59-6.21-9.79-5.46-10.91,8.09-10.91,8.09-7.34-8.28-10.92-7.34-10.91,8.28-10.91,8.28-7.16-8.84-10.36-8.66-11.48,6.22-11.48,6.22-6.4-9.41-9.41-9.23c-1.87.12-6.49,2.84-9.73,4.9,3.29,11.47,9.91,21.88,18.08,28.31l65.8.42a61.93,61.93,0,0,0,16.47-27.92C1352.26,374.69,1347.07,370.85,1344.45,371.38Z" style="fill:#e25947;opacity:0.30000000000000004"/><path d="M1345.91,363a2.58,2.58,0,0,0-1.78.74,2.51,2.51,0,0,0,1.78,4.28,2.58,2.58,0,0,0,1.77-.74,2.51,2.51,0,0,0-1.77-4.28Z" style="fill:#eaa25d"/><path d="M1350.84,357.24a1.21,1.21,0,0,0-1-.88,1.23,1.23,0,0,0-1.4,1.21,1.27,1.27,0,0,0,1.24,1.24A1.25,1.25,0,0,0,1350.84,357.24Z" style="fill:#eaa25d"/><path d="M1344.78,351.48a1.36,1.36,0,0,0-1.35,1.34,1.38,1.38,0,0,0,1.35,1.35,1.35,1.35,0,0,0,0-2.69Z" style="fill:#eaa25d"/><path d="M1331.06,368.16a1.05,1.05,0,1,0,1,1A1.06,1.06,0,0,0,1331.06,368.16Z" style="fill:#eaa25d"/><path d="M1325.9,366.34a1.26,1.26,0,1,0,1.26,1.26A1.29,1.29,0,0,0,1325.9,366.34Z" style="fill:#eaa25d"/><path d="M1330.7,361.23a1.81,1.81,0,0,0-1.24.52,1.76,1.76,0,0,0,1.24,3,1.83,1.83,0,0,0,1.25-.52,1.77,1.77,0,0,0-1.25-3Z" style="fill:#eaa25d"/><path d="M1329.37,326.51a1.21,1.21,0,1,0,1.7.27A1.26,1.26,0,0,0,1329.37,326.51Z" style="fill:#eaa25d"/><path d="M1327.24,330.31a2.09,2.09,0,0,0-1.21-.1c-2.56.6-1.68,4.83,1,4.21a1.87,1.87,0,0,0,1.23-.89A2.33,2.33,0,0,0,1327.24,330.31Z" style="fill:#eaa25d"/><path d="M1331.87,332a.93.93,0,1,0,1.31.21A1,1,0,0,0,1331.87,332Z" style="fill:#eaa25d"/><path d="M1363.42,366.38c-1.12-1.4-11.76,15.32-11.76,15.32s-4.12-7.65-7.06-6.77-8.25,11.19-8.25,11.19-6.18-7.36-9.72-7.07-10.6,10-10.6,10-6.73-9.1-10.6-8.83c-4.12.3-10.89,9.42-10.89,9.42s-6.77-9.71-9.72-9.71c-4.42,0-10.89,7.65-10.89,7.65s-7.36-11.48-10.31-11.48c-3.87,0-8.53,5.89-8.53,5.89s-11.89-15.22-13.36-13.75,20.36,49.53,20.36,49.53l78.47.24S1364.92,368.25,1363.42,366.38Z" style="fill:#ffe8a4"/><path d="M1311.21,383.57c-2-1.86-4.13-3.46-5.78-3.34-4.12.3-10.89,9.42-10.89,9.42s-6.77-9.71-9.72-9.71c-4.42,0-10.89,7.65-10.89,7.65s-7.36-11.48-10.31-11.48c-3.87,0-8.53,5.89-8.53,5.89s7.1-4.92,8.56-4.67,10.52,11.86,10.52,11.86,8.31-8.07,10.64-7.83,10,10.4,10,10.4,7.45-10.52,10.51-10.64C1307,381.05,1309.36,382.35,1311.21,383.57Z" style="fill:#fff5ff"/><path d="M1320.58,314.45c-.81-.11-1.63-.2-2.46-.23a21,21,0,0,0-10.68-2,32.33,32.33,0,0,0-10.48,2.51,24.59,24.59,0,0,0-6.4-1c-13-.27-23.29,7.3-30.11,17.69a46.77,46.77,0,0,0,15.84,4.91C1295.34,338.69,1312.89,329.4,1320.58,314.45Z" style="fill:#f9e6c6;opacity:0.30000000000000004"/></g></g></svg>