<svg id="becec9a6-646e-4aa8-8f83-cdc7fa94a027" data-name="Layer 1" xmlns="http://www.w3.org/2000/svg" xmlns:xlink="http://www.w3.org/1999/xlink" viewBox="0 0 56 56"><defs><clipPath id="b694f0f0-f5f5-4f79-8044-232c067e15ef"><circle cx="28" cy="28" r="24" style="fill:none"/></clipPath></defs><circle cx="28" cy="28" r="24" style="fill:#db5dcf"/><g style="clip-path:url(#b694f0f0-f5f5-4f79-8044-232c067e15ef)"><path d="M47,2.67C38.21,28,16.82,44.16,2.73,38.32c-3.87-1.6-5.82-5.67-5.87-5.61S3.74,44.26,15.58,49.29c1.29.55,16,6.54,30.12-1.28,9.85-5.48,13.14-18.95,9.87-27.47C54.4,17.48,48.31-1,47,2.67Z" style="fill:#c27bb0;opacity:0.6000000000000001"/><path d="M55.7,8.09C46.89,33.36,25.5,49.58,11.41,43.74c-3.87-1.61-5.82-5.67-5.87-5.62s6.88,11.56,18.72,16.59c1.29.55,16.05,6.54,30.12-1.29,9.85-5.48,13.14-19,9.88-27.46C63.08,22.9,57,4.37,55.7,8.09Z" style="fill:#ab6e98;opacity:0.6000000000000001"/><path d="M4.24,46C13.05,20.76,34.45,4.54,48.53,10.38,52.4,12,54.35,16.05,54.4,16S47.52,4.44,35.68-.59C34.39-1.14,19.63-7.13,5.56.7c-9.84,5.48-13.14,19-9.87,27.46C-3.14,31.22,3,49.74,4.24,46Z" style="fill:#f5a0df;opacity:0.6000000000000001"/><path d="M27.42-30.79C18.61-5.51-2.79,10.7-16.88,4.86c-3.87-1.6-5.81-5.67-5.87-5.61S-15.86,10.8-4,15.83c1.29.55,16,6.54,30.11-1.28C35.94,9.07,39.24-4.4,36-12.92,34.8-16,28.71-34.5,27.42-30.79Z" style="fill:#ffa7e6;opacity:0.6000000000000001"/></g><g style="clip-path:url(#b694f0f0-f5f5-4f79-8044-232c067e15ef)"><g style="opacity:0.6000000000000001"><circle cx="28.78" cy="27.94" r="4.09" style="fill:#85507a"/><circle cx="15.76" cy="9.62" r="4.09" style="fill:#85507a"/><circle cx="30.31" cy="46.91" r="2.55" style="fill:#85507a"/><circle cx="14.82" cy="20.96" r="2.47" style="fill:#85507a"/><circle cx="28.78" cy="15.34" r="1.53" style="fill:#85507a"/><circle cx="28.78" cy="37.55" r="1.53" style="fill:#85507a"/><circle cx="32.86" cy="5.53" r="1.53" style="fill:#85507a"/><circle cx="6.31" cy="28.49" r="1.53" style="fill:#85507a"/><circle cx="51.25" cy="30.02" r="1.53" style="fill:#85507a"/><circle cx="40.18" cy="32.02" r="1.53" style="fill:#85507a"/><circle cx="44.01" cy="42.72" r="1.53" style="fill:#85507a"/><circle cx="44.95" cy="14.72" r="1.53" style="fill:#85507a"/><circle cx="11.25" cy="38.06" r="1.53" style="fill:#85507a"/><circle cx="21.5" cy="9.62" r="0.55" style="fill:#85507a"/><circle cx="23.67" cy="21.51" r="0.55" style="fill:#85507a"/><circle cx="18.18" cy="28.49" r="0.55" style="fill:#85507a"/><circle cx="46.48" cy="21.51" r="0.55" style="fill:#85507a"/><circle cx="35.84" cy="25.26" r="0.55" style="fill:#85507a"/><circle cx="38.1" cy="9.62" r="0.55" style="fill:#85507a"/><circle cx="19.29" cy="42.17" r="0.55" style="fill:#85507a"/></g><circle cx="28" cy="28" r="4.09" style="fill:#ecfffc"/><circle cx="14.98" cy="9.68" r="4.09" style="fill:#ecfffc"/><circle cx="29.53" cy="46.98" r="2.55" style="fill:#ecfffc"/><circle cx="14.04" cy="21.02" r="2.47" style="fill:#ecfffc"/><circle cx="28" cy="15.4" r="1.53" style="fill:#ecfffc"/><circle cx="28" cy="37.62" r="1.53" style="fill:#ecfffc"/><circle cx="32.09" cy="5.6" r="1.53" style="fill:#ecfffc"/><circle cx="5.53" cy="28.55" r="1.53" style="fill:#ecfffc"/><circle cx="50.47" cy="30.09" r="1.53" style="fill:#ecfffc"/><circle cx="39.4" cy="32.09" r="1.53" style="fill:#ecfffc"/><circle cx="43.23" cy="42.79" r="1.53" style="fill:#ecfffc"/><circle cx="44.17" cy="14.79" r="1.53" style="fill:#ecfffc"/><circle cx="10.47" cy="38.13" r="1.53" style="fill:#ecfffc"/><circle cx="20.72" cy="9.68" r="0.55" style="fill:#ecfffc"/><circle cx="22.89" cy="21.57" r="0.55" style="fill:#ecfffc"/><circle cx="17.4" cy="28.55" r="0.55" style="fill:#ecfffc"/><circle cx="45.7" cy="21.57" r="0.55" style="fill:#ecfffc"/><circle cx="35.06" cy="25.32" r="0.55" style="fill:#ecfffc"/><circle cx="37.32" cy="9.68" r="0.55" style="fill:#ecfffc"/><circle cx="18.51" cy="42.23" r="0.55" style="fill:#ecfffc"/></g></svg>