<?xml version="1.0" encoding="utf-8"?>
<!-- Generator: Adobe Illustrator 25.0.1, SVG Export Plug-In . SVG Version: 6.00 Build 0)  -->
<svg version="1.1" id="ad459f15-c2e1-44d7-8439-52c2ae63004b"
	 xmlns="http://www.w3.org/2000/svg" xmlns:xlink="http://www.w3.org/1999/xlink" x="0px" y="0px" viewBox="0 0 196 206"
	 style="enable-background:new 0 0 196 206;" xml:space="preserve">
<style type="text/css">
	.st0{fill:#9D82C6;}
	.st1{opacity:0.46;}
	.st2{fill:#FFFFFF;}
	.st3{fill:#C09FF2;}
	
		.st4{fill-rule:evenodd;clip-rule:evenodd;fill:#8763DD;stroke:#8763DD;stroke-width:0.5669;stroke-linecap:round;stroke-linejoin:round;}
	
		.st5{fill-rule:evenodd;clip-rule:evenodd;fill:#EFE9D9;stroke:#8763DD;stroke-width:0.5669;stroke-linecap:round;stroke-linejoin:round;}
	
		.st6{fill-rule:evenodd;clip-rule:evenodd;fill:#A98EF4;stroke:#A98EF4;stroke-width:0.5669;stroke-linecap:round;stroke-linejoin:round;}
	
		.st7{fill-rule:evenodd;clip-rule:evenodd;fill:#B39FF7;stroke:#B39FF7;stroke-width:0.5669;stroke-linecap:round;stroke-linejoin:round;}
	
		.st8{fill-rule:evenodd;clip-rule:evenodd;fill:#D3AAFA;stroke:#D3AAFA;stroke-width:0.5669;stroke-linecap:round;stroke-linejoin:round;}
	
		.st9{fill-rule:evenodd;clip-rule:evenodd;fill:#933AF1;stroke:#933AF1;stroke-width:0.5669;stroke-linecap:round;stroke-linejoin:round;}
	
		.st10{fill-rule:evenodd;clip-rule:evenodd;fill:#AD61FA;stroke:#AD61FA;stroke-width:0.5669;stroke-linecap:round;stroke-linejoin:round;}
	
		.st11{fill-rule:evenodd;clip-rule:evenodd;fill:#C282FC;stroke:#C282FC;stroke-width:0.5669;stroke-linecap:round;stroke-linejoin:round;}
	
		.st12{fill-rule:evenodd;clip-rule:evenodd;fill:#FFFFFF;stroke:#FFFFFF;stroke-width:0.5669;stroke-linecap:round;stroke-linejoin:round;}
	
		.st13{fill-rule:evenodd;clip-rule:evenodd;fill:#DD7C4E;stroke:#DD7C4E;stroke-width:0.5669;stroke-linecap:round;stroke-linejoin:round;}
	
		.st14{fill-rule:evenodd;clip-rule:evenodd;fill:#EFE9D9;stroke:#DD7C4E;stroke-width:0.5669;stroke-linecap:round;stroke-linejoin:round;}
	
		.st15{fill-rule:evenodd;clip-rule:evenodd;fill:#F48744;stroke:#F48744;stroke-width:0.5669;stroke-linecap:round;stroke-linejoin:round;}
	
		.st16{fill-rule:evenodd;clip-rule:evenodd;fill:#F7B160;stroke:#F7B160;stroke-width:0.5669;stroke-linecap:round;stroke-linejoin:round;}
	
		.st17{fill-rule:evenodd;clip-rule:evenodd;fill:#FABB84;stroke:#FABB84;stroke-width:0.5669;stroke-linecap:round;stroke-linejoin:round;}
	
		.st18{fill-rule:evenodd;clip-rule:evenodd;fill:#F16A34;stroke:#F16A34;stroke-width:0.5669;stroke-linecap:round;stroke-linejoin:round;}
	
		.st19{fill-rule:evenodd;clip-rule:evenodd;fill:#FA9363;stroke:#FA9363;stroke-width:0.5669;stroke-linecap:round;stroke-linejoin:round;}
	
		.st20{fill-rule:evenodd;clip-rule:evenodd;fill:#FC9863;stroke:#FC9863;stroke-width:0.5669;stroke-linecap:round;stroke-linejoin:round;}
	
		.st21{fill-rule:evenodd;clip-rule:evenodd;fill:#DD4E90;stroke:#DD4E90;stroke-width:0.5669;stroke-linecap:round;stroke-linejoin:round;}
	
		.st22{fill-rule:evenodd;clip-rule:evenodd;fill:#EFE9D9;stroke:#DD4E90;stroke-width:0.5669;stroke-linecap:round;stroke-linejoin:round;}
	
		.st23{fill-rule:evenodd;clip-rule:evenodd;fill:#F46BB1;stroke:#F46BB1;stroke-width:0.5669;stroke-linecap:round;stroke-linejoin:round;}
	
		.st24{fill-rule:evenodd;clip-rule:evenodd;fill:#F774B8;stroke:#F774B8;stroke-width:0.5669;stroke-linecap:round;stroke-linejoin:round;}
	
		.st25{fill-rule:evenodd;clip-rule:evenodd;fill:#FA8CC5;stroke:#FA8CC5;stroke-width:0.5669;stroke-linecap:round;stroke-linejoin:round;}
	
		.st26{fill-rule:evenodd;clip-rule:evenodd;fill:#F138B8;stroke:#F138B8;stroke-width:0.5669;stroke-linecap:round;stroke-linejoin:round;}
	
		.st27{fill-rule:evenodd;clip-rule:evenodd;fill:#FA4DC6;stroke:#FA4DC6;stroke-width:0.5669;stroke-linecap:round;stroke-linejoin:round;}
	
		.st28{fill-rule:evenodd;clip-rule:evenodd;fill:#FC6AD0;stroke:#FC6AD0;stroke-width:0.5669;stroke-linecap:round;stroke-linejoin:round;}
	.st29{fill:#FEF8FC;}
	.st30{fill:#FF4891;}
	.st31{opacity:0.2;fill:#655A78;enable-background:new    ;}
	.st32{clip-path:url(#SVGID_2_);}
	.st33{opacity:0.2;fill:#B1D29E;enable-background:new    ;}
	.st34{fill:#FA5094;}
	.st35{fill:none;stroke:#FFFFFF;stroke-width:0.5;stroke-miterlimit:10;}
</style>
<ellipse class="st0" cx="92.9" cy="171.3" rx="84.4" ry="33.9"/>
<g class="st1">
	<path class="st2" d="M148.9,9.1c-23.5,0-50,1-68.7,0S3.6,1.8,3.6,1.8c-1,8.8,1.1,102.4,3,115.1s1.8,54.5,1.8,54.5
		c0,18.7,37.8,33.9,84.4,33.9s84.4-15.2,84.4-33.9L192.1,3.8C178,7.3,163.4,9.1,148.9,9.1z"/>
	<path class="st3" d="M148.9,9.1c-12.1,0-24.3,0.3-36.4,0.4S88.2,9.8,76.1,9S51.9,6.9,39.8,5.7S15.7,3.3,3.6,2l0.2-0.2L3.7,4.6
		l0,2.8c0,1.9,0,3.8,0,5.7c0,3.8,0,7.6,0.1,11.4C3.8,32.1,4,39.7,4.2,47.3c0.3,15.2,0.8,30.3,1.4,45.5c0.2,3.8,0.3,7.6,0.6,11.4
		s0.4,7.6,0.8,11.3c0.9,7.5,1.4,15.1,1.6,22.7c0.2,7.6,0.4,15.2,0.4,22.8v5.7v2.8c0,0.9,0,1.9,0.1,2.8c0.4,3.7,2,7.2,4.5,9.9
		c2.5,2.8,5.4,5.2,8.6,7.1c3.2,2,6.6,3.7,10.1,5.1c7,2.8,14.3,5,21.8,6.5c14.8,3,30,4.3,45.1,3.8c15.1-0.4,30.3-2.4,44.8-6.7
		c7.3-2.1,14.2-5.1,20.7-9.1c3.2-2,6.1-4.5,8.5-7.3c1.2-1.4,2.2-3,2.9-4.8c0.7-1.7,1.1-3.6,1.1-5.4l0,0l0,0L192,3.8l0.1,0.1
		c-3.5,0.9-7.1,1.7-10.7,2.3s-7.2,1.2-10.8,1.6c-3.6,0.4-7.2,0.8-10.9,1S152.5,9.1,148.9,9.1z M148.9,9.1c3.6,0,7.3-0.1,10.9-0.4
		s7.2-0.6,10.9-1s7.2-1,10.8-1.7s7.1-1.4,10.6-2.3h0.1v0.1l-14.5,167.5l0,0c0,1.9-0.4,3.9-1.1,5.7c-0.8,1.8-1.8,3.5-3,5
		c-2.5,2.9-5.4,5.5-8.6,7.5c-6.5,4-13.5,7.1-20.8,9.2c-14.6,4.4-29.8,6.4-45,6.9c-15.2,0.5-30.5-0.7-45.4-3.7
		c-7.5-1.5-14.8-3.7-21.9-6.6c-3.5-1.5-6.9-3.2-10.2-5.2c-3.3-2-6.3-4.5-8.9-7.3c-2.7-2.9-4.3-6.6-4.7-10.5c-0.1-1-0.1-1.9-0.1-2.9
		v-2.8V161c-0.1-7.6-0.1-15.2-0.4-22.8c-0.1-7.6-0.6-15.1-1.5-22.7c-0.4-3.8-0.6-7.6-0.8-11.4s-0.4-7.6-0.5-11.4
		c-0.6-15.2-1-30.3-1.3-45.5c-0.1-7.6-0.3-15.2-0.3-22.8c0-3.8,0-7.6,0-11.4c0-1.9,0-3.8,0-5.7l0.1-2.8l0.2-2.9V1.5h0.2
		c12.1,1.3,24.1,2.6,36.2,3.9C51.9,6.6,64,7.8,76.1,8.7s24.2,0.8,36.4,0.7S136.7,9.1,148.9,9.1z"/>
</g>
<path class="st4" d="M85.8,32.5c2.3-17.7,18.6-30.1,36.2-27.7c9.8,1.3,18.4,7,23.4,15.5c-0.1,2.7-0.2,5.7-0.2,8.5
	c0,5.3,0.3,10.7,0.8,16c0.2,2,0.4,4,0.7,6c-7.8,16-27,22.7-43.1,15C91.2,59.7,84,46.3,85.8,32.5L85.8,32.5z"/>
<path class="st5" d="M101.2,9.1c0.8-0.5,1.7-0.9,2.6-1.4c-6.3,9.5-10.5,19.5-15.9,27.4c-0.2-0.6-0.5-1.2-0.7-1.8
	C91.9,26.3,95.8,17.6,101.2,9.1z M117.4,4.5H117c-11.4,14.1-14.8,31.8-24.8,43.3l0.5,1.8c11.4-11.9,14-30.7,25.7-45L117.4,4.5
	L117.4,4.5z M141.3,14.7l-0.5-0.6c-14.2,13.7-15.6,38.1-34,52.9l0.4,0.1l0,0c0.3,0.1,0.7,0.2,1,0.3c17.9-14.9,20.1-38.9,33.7-52.2
	l-0.4-0.4l-0.1-0.1l0,0L141.3,14.7L141.3,14.7z M145.4,33.2c0,1,0.1,1.9,0.1,2.8c-6.5,9.6-12,21.9-21.7,32.4
	c-0.6,0.1-1.2,0.2-1.8,0.3h-0.1C133,57.4,138.3,43.6,145.4,33.2L145.4,33.2z M97.7,62c17.8-13.5,18.5-38.8,33.9-54.4
	c-0.4-0.2-0.9-0.4-1.3-0.6c-15.6,15.8-16.1,40.9-33.6,54.1C97,61.4,97.3,61.7,97.7,62z"/>
<path class="st6" d="M149.8,32.6c1.6,12.4-4.1,24.6-14.6,31.3c-16.5,6.6-35.3-1.4-42-17.9c-5.7-14.3-0.6-30.7,12.4-39.1
	c16.5-6.7,35.3,1.2,42.1,17.7C148.7,27.2,149.4,29.9,149.8,32.6L149.8,32.6z"/>
<path class="st7" d="M149.8,32.6c1,7.3-0.6,14.8-4.5,21c-12.3,10.2-30.5,8.6-40.7-3.7S96,19.5,108.2,9.3c2.4-2,5.1-3.6,8-4.7
	C133,3.7,147.6,15.9,149.8,32.6z"/>
<path class="st8" d="M149.8,32.6c0.2,1.2,0.2,2.4,0.3,3.5c-5.8,9.8-18.5,13-28.2,7.2s-13-18.5-7.2-28.2c2.7-4.5,7-7.9,12.1-9.3
	C139.1,9.3,148.1,19.9,149.8,32.6z"/>
<path class="st9" d="M123.8,68.4c-0.6,0.1-1.2,0.2-1.8,0.3h-0.1c12.9-13.2,18-29.6,27.1-40.2c0.2,0.7,0.4,1.5,0.5,2.2
	C141,40.8,135.5,56,123.8,68.4z M85.6,37.7c0-0.9,0-1.8,0-2.8l0.4-0.4c0.6-0.7,1.1-1.4,1.6-2C92.1,25.6,96,17.2,101.2,9
	c0.8-0.5,1.7-1,2.6-1.4C97.7,16.8,92.6,30.2,85.6,37.7L85.6,37.7z M89.6,52.4l0.3-0.2c1.1-0.9,2.2-1.8,3.2-2.8
	c0.9-0.9,1.7-1.9,2.4-2.9c0-0.1,0.1-0.2,0.1-0.3c9.1-11.9,12.2-28.6,22.8-41.7c-0.5,0-0.9,0-1.4,0c-10.4,12.9-14.1,28.8-22.3,40.2
	l-0.5,0.6c-0.5,0.6-1.5,1.8-2.5,2.7c-0.8,0.8-1.6,1.6-2.5,2.2l-0.4,0.3C88.9,51.2,89.2,51.8,89.6,52.4L89.6,52.4z M108.2,67.5
	c17.9-14.9,20.1-38.9,33.7-52.2c-0.4-0.4-0.7-0.8-1.1-1.2c-14.2,13.7-15.6,38.1-34,52.9C107.2,67.2,107.7,67.4,108.2,67.5
	L108.2,67.5z M97.7,62c17.8-13.5,18.5-38.8,33.9-54.4c-0.4-0.2-0.9-0.4-1.3-0.6c-15.6,15.8-16.1,40.9-33.6,54.1
	C97,61.4,97.3,61.7,97.7,62z"/>
<path class="st10" d="M130.6,60.1L130.6,60.1c-0.6,0.1-1.1,0.1-1.6,0.2C137,49,141.7,36.9,149,28.5c0,0,0,0.1,0,0.2l0,0
	c0,0.2,0.1,0.4,0.2,0.7v0.2c0,0.2,0.1,0.3,0.1,0.5s0.1,0.3,0.1,0.4l0.1,0.3C142.8,38.6,137.9,49.7,130.6,60.1L130.6,60.1z
	 M116.7,58.5c10.6-14.3,14.2-32.3,25.2-43.2l-0.2-0.2l-0.2-0.2l-0.3-0.3l-0.2-0.2l-0.2-0.2c-11.6,11.2-14.7,29.5-25.4,43.9
	C115.8,58.2,116.2,58.3,116.7,58.5L116.7,58.5z M106.8,52.3c9.6-13.9,12.6-32.4,24.8-44.8l-0.6-0.3l0,0L130.3,7h-0.1
	c-12.3,12.5-15.2,30.7-24.5,44.3L106.8,52.3L106.8,52.3z M99.3,40.6c6.5-11.2,10-24.9,19-36.1H117c-8.5,10.6-12.6,23.3-18.3,33.8
	C98.9,39.1,99.1,39.8,99.3,40.6z"/>
<path class="st11" d="M140.2,44.6c-0.7,0.3-1.4,0.5-2.1,0.7c3.5-6.2,6.8-12.1,10.9-16.8v0c0,0.1,0.1,0.2,0.1,0.3V29l0.1,0.4v0.1v0.1
	v0.2l0,0v0.2c0,0.1,0.1,0.3,0.1,0.4l0.1,0.3c-3.5,4.4-6.6,9-9.2,13.9L140.2,44.6z M124.8,44.7c5.3-10.8,9.4-21.8,17.1-29.4l-0.2-0.2
	l-0.1-0.1l-0.1-0.1l-0.2-0.3l0,0l-0.1-0.1l0,0l-0.1-0.1l-0.2-0.2c-8.1,7.8-12,19.1-17.3,30.1C123.9,44.4,124.4,44.6,124.8,44.7
	L124.8,44.7z M115,36.7c4.5-10.3,8.6-21.1,16.5-29.1c-0.4-0.2-0.9-0.4-1.3-0.6c-7.8,8-11.8,18.2-16.1,28.1
	C114.4,35.7,114.7,36.2,115,36.7L115,36.7z"/>
<path class="st12" d="M141,17.6c-1.6-2.4-3.8-4.3-6.4-5.5c-2.2-0.9-4-0.5-4.5,0.8s0.3,3.5,1.9,5.7c1.6,2.3,3.6,4.1,6,5.5
	c2,1,3.8,0.9,4.4-0.4S142.6,20,141,17.6z"/>
<path class="st12" d="M146.7,30.3c-0.1-1.4-0.8-2.7-1.8-3.7c-0.9-0.8-2.1-0.7-2.4,0.2s0.1,2.8,0.9,4.1s1.6,2.2,2.3,2.1
	S146.8,31.6,146.7,30.3z"/>
<path class="st13" d="M113.4,164c-1.8-17.7,11.1-33.5,28.8-35.3c9.8-1,19.5,2.5,26.4,9.6c0.5,2.6,1.1,5.6,1.8,8.3
	c1.2,5.2,2.8,10.3,4.6,15.4c0.6,1.9,1.3,3.8,2,5.7c-3.8,17.4-21,28.4-38.4,24.6C125,189.3,114.8,177.9,113.4,164z"/>
<path class="st14" d="M123,137.7c0.7-0.7,1.4-1.3,2.2-1.9c-3.9,10.7-5.7,21.4-9.1,30.3l-1.1-1.6C117.9,156.5,119.7,147.2,123,137.7z
	 M137.7,129.5l-0.4,0.1c-7.8,16.3-6.9,34.4-14.1,47.8c0.3,0.5,0.6,1,0.9,1.6c8.4-14.2,6.5-33.1,14.6-49.8l-0.3,0.1l-0.3,0.1
	L137.7,129.5z M163.3,133.8l-0.6-0.4c-10.6,16.6-6.4,40.7-20.8,59.4l0.4,0.1l0,0c0.4,0,0.7,0.1,1.1,0.1
	c13.9-18.6,10.6-42.5,20.7-58.6l-0.4-0.3l-0.1-0.1l0,0l0,0L163.3,133.8L163.3,133.8z M171.5,151c0.2,0.9,0.5,1.8,0.8,2.7
	c-4.1,10.9-6.6,24.1-13.6,36.5c-0.6,0.2-1.1,0.5-1.7,0.7h-0.1C165,177.3,167,162.7,171.5,151L171.5,151z M131.8,190
	c14.2-17.2,9-42.1,20.4-60.7l-1.4-0.3c-11.5,19-6.2,43.5-20.2,60.4C130.9,189.5,131.3,189.7,131.8,190L131.8,190z"/>
<path class="st15" d="M175.6,149.3c4.4,11.7,1.7,24.9-7,33.9c-14.4,10.5-34.6,7.3-45-7.2c-9.2-12.7-8-30.3,3-41.5
	c14.5-10.4,34.7-7,45,7.5C173.3,144.3,174.6,146.7,175.6,149.3L175.6,149.3z"/>
<path class="st16" d="M175.6,149.3c2.6,6.9,2.8,14.5,0.5,21.5c-9.5,12.8-27.7,15.4-40.5,5.9c-12.8-9.5-15.4-27.7-5.9-40.5
	c1.9-2.5,4.1-4.7,6.7-6.5C152.6,125.1,169.7,133.6,175.6,149.3z"/>
<path class="st17" d="M175.6,149.3c0.4,1.1,0.8,2.2,1.1,3.4c-3.4,10.9-15,16.9-25.8,13.5s-16.9-15-13.5-25.8c1.6-5,5-9.3,9.6-11.8
	C159.9,129.2,171.1,137.3,175.6,149.3z"/>
<path class="st18" d="M158.7,190.2c-0.6,0.2-1.1,0.5-1.7,0.7h-0.1c9.5-15.8,10.7-33,17.1-45.4c0.4,0.7,0.7,1.3,1,2
	C169,159.3,167.1,175.3,158.7,190.2L158.7,190.2z M114.4,169.1c-0.2-0.9-0.4-1.8-0.6-2.7c0.1-0.2,0.2-0.3,0.3-0.5
	c0.4-0.8,0.8-1.6,1.2-2.3c2.8-7.8,4.6-16.8,7.8-26c0.7-0.7,1.4-1.3,2.2-1.9C121.4,146,119.5,160.2,114.4,169.1L114.4,169.1z
	 M121.7,182.5l0.2-0.3c0.9-1.1,1.7-2.3,2.5-3.5c0.7-1.1,1.2-2.2,1.6-3.4c0-0.1,0.1-0.2,0.1-0.3c6.1-13.7,5.2-30.6,12.5-45.8
	c-0.5,0.1-0.9,0.2-1.4,0.3c-7.1,14.9-7,31.3-12.4,44.3l-0.4,0.7c-0.4,0.7-1.1,2.1-1.8,3.2c-0.6,1-1.3,1.9-2,2.8l-0.3,0.4
	C120.8,181.5,121.2,182,121.7,182.5L121.7,182.5z M143.3,192.9c13.9-18.6,10.6-42.5,20.7-58.6c-0.4-0.3-0.9-0.6-1.3-0.9
	c-10.6,16.6-6.4,40.7-20.8,59.4C142.3,192.8,142.8,192.9,143.3,192.9L143.3,192.9z M131.8,189.9c14.2-17.2,9-42.1,20.4-60.7
	l-1.4-0.3c-11.5,19-6.2,43.5-20.2,60.4C130.9,189.5,131.3,189.7,131.8,189.9L131.8,189.9z"/>
<path class="st19" d="M163.3,180.5L163.3,180.5c-0.6,0.2-1.1,0.4-1.6,0.5c5.3-12.8,7.1-25.7,12.2-35.5l0.1,0.1l0,0
	c0.1,0.2,0.2,0.4,0.3,0.6l0.1,0.2l0.2,0.4c0.1,0.1,0.1,0.2,0.2,0.4l0.1,0.2C170.3,156.8,168.1,168.6,163.3,180.5L163.3,180.5z
	 M149.4,182.2c7-16.4,6.3-34.7,14.6-47.9l-0.2-0.2l-0.2-0.1l-0.4-0.2l-0.2-0.1l-0.3-0.2c-8.6,13.6-7.4,32.1-14.5,48.6
	C148.5,182.1,149,182.1,149.4,182.2L149.4,182.2z M138.4,178.5c6.2-15.7,4.8-34.4,13.8-49.3l-0.7-0.1l0,0l-0.7-0.1h-0.1
	c-9.1,15-7.7,33.4-13.6,48.8C137.6,178,138,178.2,138.4,178.5L138.4,178.5z M128.4,168.7c3.7-12.4,4-26.6,10.2-39.5l-0.6,0.1l0,0
	l-0.8,0.2c-5.9,12.3-6.8,25.5-10,37.1C127.6,167.4,128,168.1,128.4,168.7L128.4,168.7z"/>
<path class="st20" d="M169.1,163.2c-0.6,0.4-1.2,0.8-1.9,1.2c2-6.9,3.8-13.4,6.7-18.9v0.1c0.1,0.1,0.1,0.2,0.2,0.3v0.1
	c0.1,0.1,0.1,0.2,0.2,0.4l0.1,0.1v0.1l0.1,0.2l0,0l0.1,0.1c0.1,0.1,0.1,0.2,0.2,0.4l0.1,0.2c-2.4,5-4.3,10.3-5.8,15.6L169.1,163.2z
	 M154.1,166.9c2.7-11.8,4.1-23.4,9.8-32.6l-0.2-0.2l-0.1-0.1l-0.2-0.1l-0.3-0.2l0,0l-0.2-0.1l0,0h-0.1l-0.3-0.2
	c-6.1,9.4-7.3,21.3-9.9,33.2C153.2,166.8,153.7,166.9,154.1,166.9L154.1,166.9z M142.8,161.4c2-11.1,3.5-22.5,9.4-32.2l-1.4-0.3
	c-5.8,9.5-7.3,20.5-9.2,31.1C141.9,160.5,142.3,160.9,142.8,161.4z"/>
<path class="st12" d="M163.7,136.8c-2.1-1.9-4.7-3.3-7.5-3.9c-2.4-0.4-4,0.5-4.2,1.9s1.1,3.3,3.1,5.1c2,1.8,4.5,3.2,7.1,4
	c2.2,0.6,3.9,0,4.2-1.4S165.7,138.7,163.7,136.8z"/>
<path class="st12" d="M172.1,147.8c-0.5-1.3-1.4-2.5-2.6-3.2c-1.1-0.5-2.2-0.2-2.3,0.8s0.8,2.7,1.8,3.8s2.1,1.8,2.7,1.5
	S172.6,149.1,172.1,147.8z"/>
<path class="st13" d="M74.9,70.3C61.3,81.9,41,80.2,29.4,66.7c-6.4-7.5-9-17.5-7.1-27.2c1.9-1.9,3.9-4.1,5.8-6.2
	c3.6-4,7-8.1,10.1-12.5c1.2-1.6,2.4-3.2,3.5-4.9c16.5-6.7,35.3,1.2,42,17.7C89.1,46.5,85.4,61.3,74.9,70.3z"/>
<path class="st14" d="M47.8,77.4c-1-0.2-1.9-0.4-2.8-0.7c11-2.9,20.9-7.5,30.2-9.7c-0.2,0.6-0.5,1.2-0.7,1.8
	C66.2,70.8,57.4,74.7,47.8,77.4L47.8,77.4z M32.7,70l0.3,0.3c17.8-2.8,32.2-13.8,47.4-15.6c0.3-0.5,0.5-1.1,0.8-1.6
	C64.7,54.2,50.2,66.5,32,69.3l0.2,0.2l0.2,0.2L32.7,70L32.7,70z M21.7,46.4v0.8c19.7-0.7,37.1-17.9,60.7-16.6l-0.2-0.4l0,0l-0.5-0.9
	c-23.2-0.9-41,15.4-60,16.3v0.6l0,0L21.7,46.4L21.7,46.4z M31.1,29.9c0.6-0.7,1.2-1.5,1.8-2.2c11.3-2.8,23.6-8.3,37.8-9.5
	c0.5,0.3,1,0.6,1.6,1l0.1,0.1C56.5,20.3,43.3,27,31.1,29.9L31.1,29.9z M85.8,40.5C63.5,38.6,46,57,24.2,58.2
	c0.2,0.5,0.4,0.9,0.6,1.3C47,58.2,64.1,40,86,41.9C85.9,41.4,85.9,41,85.8,40.5z"/>
<path class="st15" d="M27.4,27.5C34.5,17.2,46.9,11.9,59.3,14C76,20.1,84.6,38.7,78.4,55.4C73.1,69.9,58.3,78.6,43,76.1
	c-2.6-0.9-5.1-2.2-7.4-3.8C21,62.2,17.3,42.1,27.4,27.5z"/>
<path class="st16" d="M27.4,27.5c4.2-6.1,10.4-10.5,17.4-12.6c15.9,0.6,28.4,14,27.8,30c-0.6,15.9-14,28.4-30,27.8
	c-3.1-0.1-6.2-0.7-9.1-1.8C20.6,60.1,17.9,41.3,27.4,27.5z"/>
<path class="st17" d="M27.4,27.5c0.7-1,1.4-1.9,2.2-2.8c10.9-3.4,22.4,2.7,25.8,13.6S52.6,60.6,41.8,64c-5,1.6-10.5,1.1-15.2-1.2
	C19.8,51.9,20.1,38,27.4,27.5z"/>
<path class="st18" d="M70.7,18.2c0.5,0.3,1,0.6,1.6,1l0.1,0.1C54,20.4,39.2,29.3,25.3,31c0.3-0.7,0.7-1.3,1.1-2
	C39.5,27.2,53.7,19.6,70.7,18.2L70.7,18.2z M78.5,66.7c-0.6,0.7-1.2,1.4-1.9,2l-0.6,0.1c-0.9,0.1-1.8,0.3-2.5,0.3
	c-8,2.1-16.4,5.7-25.8,8.3c-1-0.2-1.9-0.4-2.8-0.7C55.5,74,68.2,67.4,78.5,66.7z M85.4,53H85c-1.4-0.1-2.8-0.1-4.2,0
	c-1.3,0-2.5,0.2-3.7,0.6c-0.1,0-0.2,0.1-0.3,0.1C62,56.4,48.6,66.8,32,69.3c0.3,0.3,0.7,0.6,1,0.9c16.3-2.6,29.8-12,43.5-14.9
	l0.8-0.1c0.8-0.1,2.3-0.3,3.6-0.4c1.1-0.1,2.3-0.1,3.4,0h0.6C85.1,54.2,85.2,53.6,85.4,53L85.4,53z M81.7,29.3
	c-23.2-0.9-41,15.4-60,16.3c0,0.5,0,1.1,0,1.6c19.7-0.7,37.1-17.9,60.7-16.6C82.2,30.2,81.9,29.7,81.7,29.3L81.7,29.3z M85.8,40.5
	C63.5,38.6,46,57,24.2,58.2c0.2,0.5,0.4,0.9,0.6,1.3C47,58.2,64.1,40,86,41.9C85.9,41.4,85.9,41,85.8,40.5z"/>
<path class="st19" d="M60.1,19.9L60.1,19.9c0.5,0.3,0.9,0.6,1.3,1C47.9,23.8,36.3,29.6,25.3,31l0.1-0.1l0,0l0.3-0.6l0.1-0.1
	c0.1-0.1,0.2-0.3,0.2-0.4l0.2-0.3l0.1-0.2C36.6,27.6,47.6,22.7,60.1,19.9L60.1,19.9z M69.4,30.4c-17.5,3.5-32.2,14.5-47.7,15.2v0.5
	c0,0.2,0,0.3,0,0.5s0,0.2,0,0.3s0,0.2,0,0.3C37.8,46.6,52.4,35.1,70,31.6C69.8,31.1,69.6,30.8,69.4,30.4z M72.6,41.6
	c-16.4,3.8-31.1,15.6-48.4,16.6c0.1,0.2,0.2,0.4,0.3,0.7l0,0c0.1,0.2,0.2,0.4,0.3,0.6v0c17.5-1,31.9-12.6,47.9-16.6
	C72.7,42.5,72.7,42,72.6,41.6L72.6,41.6z M70.3,55.3c-12.3,4-24.2,11.8-38.3,14l0.4,0.4l0,0l0.6,0.5c13.4-2.1,24.9-8.9,36.2-12.8
	C69.6,56.7,69.9,56,70.3,55.3z"/>
<path class="st20" d="M42.6,24.9c0.7,0.2,1.4,0.5,2,0.9C37.8,28,31.5,30.2,25.3,31v0l0.2-0.3v-0.1l0.2-0.4l0.1-0.1l0.1-0.1l0.1-0.2
	l0,0l0.1-0.1l0.2-0.3l0.1-0.2C31.9,28.1,37.3,26.7,42.6,24.9z M54.1,35.2c-11.2,4.5-21.6,9.9-32.4,10.4v0.6c0,0.1,0,0.2,0,0.3l0,0
	v0.2l0,0v0.1c0,0.1,0,0.2,0,0.3c11.2-0.4,21.7-6.1,33-10.7C54.5,36,54.4,35.5,54.1,35.2L54.1,35.2z M56,47.7
	c-10.3,4.6-20.5,9.9-31.8,10.6c0.2,0.5,0.4,0.9,0.6,1.3c11.1-0.7,21-5.6,30.8-10.1C55.8,48.9,55.9,48.3,56,47.7z"/>
<path class="st12" d="M23.9,44.4c-0.4,2.8-0.1,5.7,1,8.4c1,2.2,2.7,3,3.9,2.4s2.1-2.8,2.4-5.5c0.3-2.7,0.1-5.5-0.7-8.1
	c-0.8-2.2-2.2-3.2-3.5-2.6S24.4,41.6,23.9,44.4z"/>
<path class="st12" d="M28.2,31.2c-0.9,1.2-1.3,2.6-1.1,4c0.2,1.2,1.1,1.9,1.9,1.4s1.7-2.2,2.1-3.6s0.3-2.8-0.3-3.1
	S29,30.1,28.2,31.2z"/>
<path class="st21" d="M77.5,198.9c-16.8-5.9-25.6-24.3-19.7-41.1c3.3-9.3,10.6-16.6,20-19.8c2.6,0.6,5.5,1.3,8.3,1.9
	c5.2,1.1,10.5,1.9,15.8,2.5c1.9,0.2,4,0.4,6,0.6c14.1,10.9,16.7,31.1,5.8,45.2C105.2,199.2,90.6,203.5,77.5,198.9L77.5,198.9z"/>
<path class="st22" d="M57.7,179.1c-0.3-0.9-0.6-1.8-0.8-2.8c8,8.1,17,14.3,23.5,21.2l-2,0.3C72.6,191.7,64.9,186.1,57.7,179.1
	L57.7,179.1z M56.6,162.3c0,0.1-0.1,0.3-0.1,0.4c11.4,14,28.1,20.9,37.3,33.1l1.8-0.1c-9.3-13.6-27.2-20-38.8-34.4l-0.1,0.3
	c0,0.1,0,0.2-0.1,0.3S56.6,162.2,56.6,162.3z M71.4,141l-0.7,0.4c10.5,16.7,34.1,23.1,44.8,44.1c0.1-0.1,0.1-0.2,0.2-0.3l0,0
	c0.2-0.3,0.4-0.6,0.5-0.9c-10.9-20.5-33.9-27.6-44.2-43.7l-0.4,0.2l-0.1,0.1l0,0L71.4,141L71.4,141z M90.4,140.8
	c0.9,0.2,1.9,0.3,2.8,0.5c8.1,8.3,19,16.2,27.2,27.9c0,0.6,0,1.2-0.1,1.9c0,0,0,0.1,0,0.1C111.5,157.9,99.1,149.9,90.4,140.8
	L90.4,140.8z M108.8,193.4c-9.6-20.2-34.2-26.1-46.3-44.3c-0.3,0.4-0.6,0.8-0.9,1.2c12.3,18.5,36.7,24.1,46,44
	C108,194,108.4,193.7,108.8,193.4L108.8,193.4z"/>
<path class="st23" d="M90.7,136.4c12.5,1,23.3,9,27.7,20.7c3.2,17.5-8.4,34.3-25.9,37.6c-15.3,2.8-30.5-5.7-36-20.3
	c-3.2-17.5,8.4-34.3,25.9-37.6C85.1,136.3,87.9,136.1,90.7,136.4L90.7,136.4z"/>
<path class="st24" d="M90.7,136.4c7.4,0.6,14.3,3.6,19.7,8.7c7.5,14.1,2.2,31.6-11.9,39.1c-14.1,7.5-31.6,2.2-39.1-11.9
	c-1.5-2.8-2.5-5.8-3-8.8C59,146.9,73.9,135.1,90.7,136.4z"/>
<path class="st25" d="M90.7,136.4c1.2,0.1,2.4,0.2,3.5,0.5c8.4,7.7,8.9,20.7,1.2,29.1s-20.7,8.9-29.1,1.2c-3.9-3.6-6.2-8.5-6.6-13.8
	C65.8,142,77.9,135.4,90.7,136.4z"/>
<path class="st26" d="M120.4,169.1c0,0.6,0,1.2-0.1,1.9c0,0,0,0.1,0,0.1c-10.2-15.3-25.4-23.7-33.8-34.8c0.7,0,1.5-0.1,2.2,0
	C97,146.7,110.6,155.2,120.4,169.1L120.4,169.1z M82.5,200.2c-0.9-0.2-1.8-0.4-2.7-0.6c-0.1-0.2-0.2-0.3-0.3-0.5
	c-0.5-0.7-1.2-1.4-1.6-2c-5.8-5.9-13.2-11.3-20.2-18.1c-0.3-0.9-0.6-1.8-0.8-2.8C64.6,184,76.6,191.8,82.5,200.2L82.5,200.2z
	 M97.7,199.3l-0.2-0.3c-0.6-1.3-1.3-2.5-2.1-3.7c-0.7-1.1-1.5-2.1-2.4-2.9c-0.1-0.1-0.2-0.1-0.2-0.2c-9.8-11.3-25.5-17.8-36.1-30.8
	c-0.1,0.5-0.2,0.9-0.3,1.4c10.5,12.8,25.3,19.7,34.8,30.1l0.5,0.6c0.5,0.6,1.4,1.8,2.2,3c0.6,1,1.2,2,1.7,3c0.1,0.2,0.2,0.3,0.2,0.5
	C96.5,199.8,97.1,199.6,97.7,199.3L97.7,199.3z M116.4,184.2c-10.9-20.5-33.9-27.7-44.2-43.7c-0.5,0.3-0.9,0.6-1.4,0.8
	c10.5,16.7,34.1,23.1,44.8,44.1C115.9,185.1,116.1,184.6,116.4,184.2z M108.8,193.4c-9.6-20.2-34.2-26.1-46.3-44.3
	c-0.3,0.4-0.6,0.8-0.9,1.2c12.3,18.5,36.7,24.1,46,44C108,194,108.4,193.7,108.8,193.4z"/>
<path class="st27" d="M113.7,160.8L113.7,160.8c0,0.6-0.1,1.1-0.2,1.6c-9.3-10.2-20.2-17.3-26.9-26.1h0.2h0.7h1.4
	C95.2,144.4,105,151.5,113.7,160.8L113.7,160.8z M109.3,174.1c-11.8-13.3-28.7-20.5-37.1-33.6l-0.3,0.1l-0.2,0.1l-0.4,0.2l-0.2,0.1
	l-0.3,0.2c8.6,13.6,25.9,20.4,37.8,33.9C108.8,174.9,109.1,174.5,109.3,174.1L109.3,174.1z M101.2,182.5
	c-11.6-12.3-29.1-19-38.7-33.5c-0.1,0.2-0.3,0.4-0.4,0.6l0,0l-0.4,0.6v0.1c9.7,14.6,26.9,21.2,38.3,33.1
	C100.4,183,100.8,182.8,101.2,182.5L101.2,182.5z M88.2,187.4c-9.6-8.6-22.4-14.9-31.4-26.1c0,0.2-0.1,0.4-0.1,0.6l0,0l-0.2,0.8
	c8.6,10.5,20.2,17.1,29.3,24.8C86.6,187.5,87.4,187.5,88.2,187.4L88.2,187.4z"/>
<path class="st28" d="M100.5,148.2c0.1,0.7,0.2,1.5,0.3,2.2c-5.4-4.7-10.5-9.1-14.2-14.1l0,0h0.3h1.8
	C92.3,140.6,96.3,144.6,100.5,148.2L100.5,148.2z M97.5,163.3c-9.5-7.4-19.5-13.7-25.4-22.8l-0.3,0.1l-0.1,0.1l-0.2,0.1l-0.3,0.2
	l0,0l-0.2,0.1l0,0h-0.1l-0.3,0.2c6,9.5,16.2,15.7,25.9,23.1C97,164,97.2,163.6,97.5,163.3L97.5,163.3z M87.6,171.2
	c-9.2-6.6-18.8-12.7-25.1-22.2c-0.3,0.4-0.6,0.8-0.9,1.2c6.1,9.3,15.3,15.3,24.2,21.6C86.4,171.6,87,171.4,87.6,171.2L87.6,171.2z"
	/>
<path class="st12" d="M74.3,141.9c-2.7,1.1-5,2.8-6.7,5.1c-1.3,2-1.3,3.8-0.1,4.6s3.4,0.4,5.9-0.7c2.5-1.1,4.8-2.7,6.6-4.7
	c1.4-1.8,1.6-3.5,0.5-4.4S76.9,140.8,74.3,141.9z"/>
<path class="st12" d="M87.8,138.9c-1.4-0.2-2.8,0.2-4,1c-0.9,0.8-1.1,1.9-0.3,2.4s2.7,0.4,4.2,0s2.5-1.1,2.5-1.8
	S89.2,139.1,87.8,138.9z"/>
<path class="st21" d="M112.8,102.7C96,96.7,87.2,78.3,93.1,61.5c3.3-9.3,10.6-16.6,20-19.8c2.6,0.6,5.5,1.3,8.3,1.9
	c5.2,1.1,10.5,1.9,15.9,2.5c2,0.2,4,0.4,6,0.6c14.1,10.8,16.8,31.1,6,45.2C140.7,103,126,107.4,112.8,102.7L112.8,102.7z"/>
<path class="st22" d="M93.1,82.8c-0.3-0.9-0.6-1.8-0.8-2.8c8,8.1,17,14.3,23.6,21.2l-2,0.3C107.9,95.4,100.2,89.8,93.1,82.8
	L93.1,82.8z M91.9,66c0,0.2-0.1,0.3-0.1,0.4c11.4,14,28.2,20.9,37.3,33.1l1.8-0.1c-9.3-13.7-27.2-20-38.8-34.4c0,0.1,0,0.2-0.1,0.3
	L92,65.6C92,65.8,92,65.9,91.9,66L91.9,66z M106.8,44.7l-0.7,0.4c10.5,16.7,34.1,23.1,44.8,44.1l0.2-0.3l0,0l0.5-0.9
	c-10.9-20.6-33.9-27.7-44.2-43.7l-0.4,0.3H107l0,0L106.8,44.7L106.8,44.7z M125.8,44.5l2.8,0.5c8.1,8.3,19,16.2,27.2,27.9
	c0,0.6,0,1.2-0.1,1.8c0,0,0,0.1,0,0.1C146.9,61.7,134.5,53.6,125.8,44.5L125.8,44.5z M144.1,97.1c-9.6-20.2-34.2-26.1-46.3-44.3
	c-0.3,0.4-0.6,0.8-0.9,1.2c12.3,18.5,36.7,24.1,46,44C143.4,97.7,143.7,97.4,144.1,97.1z"/>
<path class="st23" d="M126,40.1c12.5,1,23.3,9,27.7,20.7c0.5,2.7,0.6,5.5,0.4,8.3c-1.4,17.8-16.9,31-34.6,29.7
	c-12.5-1-23.3-9.1-27.7-20.7c-0.5-2.7-0.6-5.5-0.4-8.3C92.7,52,108.2,38.7,126,40.1z"/>
<path class="st24" d="M126,40.1c7.4,0.6,14.3,3.6,19.7,8.7c7.5,14.1,2.2,31.6-11.9,39.1c-14.1,7.5-31.6,2.2-39.1-11.9
	c-1.5-2.8-2.5-5.8-3-8.8C94.3,50.6,109.2,38.8,126,40.1z"/>
<path class="st25" d="M126,40.1c1.2,0.1,2.4,0.2,3.5,0.5c8.4,7.7,8.9,20.7,1.3,29.1s-20.7,8.9-29.1,1.3c-3.9-3.6-6.3-8.5-6.6-13.8
	C101.1,45.8,113.2,39.1,126,40.1z"/>
<path class="st26" d="M155.8,72.9c0,0.6,0,1.2-0.1,1.8c0,0,0,0.1,0,0.1c-10.2-15.3-25.3-23.7-33.8-34.9c0.7,0,1.5,0,2.2,0
	C132.3,50.4,146,58.9,155.8,72.9L155.8,72.9z M117.8,104c-0.9-0.2-1.8-0.4-2.7-0.6l-0.3-0.5c-0.5-0.7-1.2-1.4-1.6-2
	c-5.8-5.9-13.2-11.3-20.2-18.1c-0.3-0.9-0.6-1.8-0.8-2.8C99.9,87.8,112,95.5,117.8,104L117.8,104z M133.1,103.1
	c0-0.1-0.1-0.2-0.2-0.3c-0.6-1.3-1.3-2.5-2.1-3.8c-0.7-1.1-1.5-2-2.4-2.9l-0.2-0.2c-9.8-11.3-25.5-17.8-36.1-30.8
	c-0.1,0.4-0.2,0.9-0.3,1.4c10.5,12.8,25.3,19.7,34.8,30.1l0.5,0.6c0.5,0.6,1.4,1.8,2.1,3c0.6,0.9,1.2,1.9,1.7,2.9l0.2,0.5
	C131.8,103.4,132.4,103.3,133.1,103.1z M151.7,88c-10.9-20.6-33.9-27.7-44.2-43.7c-0.5,0.3-0.9,0.5-1.4,0.8
	c10.5,16.7,34.1,23.1,44.8,44.1C151.2,88.8,151.5,88.4,151.7,88L151.7,88z M144.1,97.2c-9.6-20.2-34.2-26.2-46.3-44.4
	c-0.3,0.4-0.6,0.8-0.9,1.2c12.3,18.5,36.7,24.1,46,44C143.4,97.7,143.7,97.4,144.1,97.2L144.1,97.2z"/>
<path class="st27" d="M149,64.6L149,64.6c0,0.6-0.1,1.1-0.2,1.6C139.5,56,128.6,48.9,121.9,40h0.2h0.7h1.4
	C130.6,48.1,140.4,55.2,149,64.6L149,64.6z M144.6,77.9c-11.8-13.3-28.7-20.5-37.1-33.6l-0.2,0.2l-0.2,0.1l-0.4,0.2l-0.2,0.2
	l-0.3,0.2c8.6,13.6,25.9,20.4,37.8,33.9C144.1,78.6,144.4,78.3,144.6,77.9L144.6,77.9z M136.5,86.2c-11.6-12.3-29.1-19-38.7-33.5
	l-0.4,0.6l0,0L97,53.9l0,0c9.7,14.6,26.9,21.2,38.4,33.1C135.8,86.7,136.2,86.5,136.5,86.2L136.5,86.2z M123.5,91.1
	c-9.6-8.6-22.4-14.9-31.4-26c0,0.2-0.1,0.4-0.1,0.6l0,0l-0.2,0.8c8.6,10.5,20.1,17,29.3,24.8C121.9,91.3,122.7,91.2,123.5,91.1
	L123.5,91.1z"/>
<path class="st28" d="M135.9,51.9c0.1,0.7,0.2,1.5,0.3,2.2c-5.4-4.7-10.5-9.1-14.2-14.1h2.2C127.7,44.3,131.6,48.3,135.9,51.9
	L135.9,51.9z M132.8,67c-9.5-7.4-19.4-13.7-25.3-22.8l-0.2,0.2l-0.1,0.1l-0.2,0.1l-0.3,0.2l0,0l-0.2,0.1l0,0h-0.1l-0.3,0.2
	c6,9.5,16.2,15.7,25.9,23.1C132.3,67.8,132.6,67.4,132.8,67L132.8,67z M123,75c-9.2-6.6-18.9-12.7-25.1-22.2
	c-0.3,0.4-0.6,0.8-0.9,1.2c6.2,9.3,15.4,15.3,24.2,21.6C121.8,75.4,122.4,75.2,123,75z"/>
<path class="st12" d="M109.6,45.6c-2.7,1.1-5,2.8-6.7,5.1c-1.3,2-1.3,3.8-0.1,4.6s3.4,0.4,5.9-0.7c2.5-1.1,4.8-2.7,6.6-4.7
	c1.4-1.8,1.6-3.5,0.5-4.4S112.2,44.6,109.6,45.6z"/>
<path class="st12" d="M123.1,42.7c-1.4-0.2-2.8,0.2-4,1c-0.9,0.8-1.1,1.9-0.3,2.4s2.7,0.4,4.2,0s2.5-1.1,2.5-1.8
	S124.5,42.8,123.1,42.7z"/>
<path class="st21" d="M34,140.6c-16.8-5.9-25.6-24.3-19.7-41.1c3.3-9.3,10.6-16.6,19.9-19.8c2.6,0.6,5.5,1.3,8.3,1.9
	c5.2,1.1,10.5,1.9,15.9,2.5c2,0.2,4,0.4,6,0.6c14.1,10.9,16.7,31.1,5.8,45.2C61.7,140.9,47.1,145.3,34,140.6z"/>
<path class="st22" d="M14.2,120.8c-0.3-0.9-0.6-1.8-0.8-2.8c8,8.1,17,14.3,23.6,21.2l-2,0.3C29.1,133.4,21.5,127.8,14.2,120.8z
	 M13.1,104l-0.1,0.4c11.4,14,28.1,20.9,37.3,33.1l1.8-0.1c-9.3-13.7-27.2-20-38.8-34.4c0,0.1,0,0.2-0.1,0.3l-0.1,0.3
	C13.1,103.8,13.1,103.9,13.1,104z M28,82.7l-0.7,0.4c10.5,16.7,34.1,23.1,44.8,44.1l0.2-0.3l0,0c0.2-0.3,0.4-0.6,0.5-0.9
	C62,105.4,39,98.3,28.7,82.2l-0.4,0.2h-0.1l0,0L28,82.7L28,82.7z M47,82.5c0.9,0.2,1.9,0.3,2.8,0.5c8.1,8.3,19,16.2,27.2,27.9
	c0,0.6,0,1.2-0.1,1.8c0,0,0,0.1,0,0.1C68,99.6,55.6,91.6,47,82.5z M65.3,135.1C55.7,114.9,31,109,19,90.8c-0.3,0.4-0.6,0.8-0.9,1.2
	c12.3,18.5,36.7,24.1,46,44C64.5,135.7,64.9,135.4,65.3,135.1L65.3,135.1z"/>
<path class="st23" d="M47.2,78.1c12.5,1,23.3,9,27.7,20.7c3.1,17.5-8.6,34.3-26.1,37.4C33.6,139,18.5,130.5,13,116
	c-3.2-17.5,8.4-34.4,26-37.6C41.7,77.9,44.5,77.8,47.2,78.1L47.2,78.1z"/>
<path class="st24" d="M47.2,78.1c7.4,0.6,14.3,3.6,19.7,8.7c7.5,14.1,2.2,31.6-11.9,39.1s-31.6,2.2-39.1-11.9
	c-1.5-2.8-2.5-5.8-3-8.8C15.5,88.6,30.4,76.8,47.2,78.1z"/>
<path class="st25" d="M47.2,78.1c1.2,0.1,2.4,0.2,3.5,0.5c8.4,7.7,8.9,20.7,1.2,29.1s-20.7,8.9-29.1,1.2c-3.9-3.6-6.2-8.5-6.6-13.8
	C22.3,83.7,34.4,77.1,47.2,78.1z"/>
<path class="st26" d="M77,110.9c0,0.6,0,1.2-0.1,1.8c0,0,0,0.1,0,0.1C66.6,97.5,51.5,89.1,43.1,78c0.7,0,1.5,0,2.2,0
	C53.5,88.3,67.2,96.9,77,110.9z M39,142c-0.9-0.2-1.8-0.4-2.7-0.6l-0.3-0.5c-0.5-0.7-1.2-1.4-1.6-2c-5.8-5.9-13.2-11.3-20.2-18.1
	c-0.3-0.9-0.6-1.8-0.8-2.8C21.1,125.7,33.2,133.5,39,142L39,142z M54.2,141l-0.2-0.3c-0.6-1.3-1.3-2.5-2.1-3.7
	c-0.7-1.1-1.5-2.1-2.4-2.9l-0.2-0.2c-9.8-11.3-25.5-17.8-36.1-30.9c-0.1,0.5-0.2,0.9-0.3,1.4c10.5,12.8,25.3,19.7,34.8,30.1l0.5,0.6
	c0.5,0.6,1.4,1.8,2.1,3c0.6,0.9,1.2,1.9,1.7,2.9c0.1,0.2,0.2,0.3,0.2,0.5C53,141.4,53.6,141.2,54.2,141L54.2,141z M72.9,125.9
	C62,105.4,39,98.3,28.7,82.2c-0.5,0.3-0.9,0.5-1.4,0.8c10.5,16.7,34.1,23.1,44.8,44.1C72.4,126.8,72.7,126.4,72.9,125.9L72.9,125.9z
	 M65.3,135C55.7,114.9,31,109,19,90.8c-0.3,0.4-0.6,0.8-0.9,1.2c12.3,18.5,36.7,24.1,46,44C64.5,135.7,64.9,135.4,65.3,135L65.3,135
	z"/>
<path class="st27" d="M70.2,102.5L70.2,102.5c0,0.6-0.1,1.1-0.2,1.6C60.7,93.9,49.8,86.8,43.1,78h0.2H44h1.4
	C51.7,86.1,61.5,93.2,70.2,102.5L70.2,102.5z M65.8,115.8C54,102.5,37.1,95.3,28.7,82.2l-0.2,0.2l-0.2,0.1l-0.4,0.2l-0.2,0.2
	l-0.3,0.2c8.6,13.6,25.9,20.4,37.8,33.9C65.1,116.9,65.8,115.8,65.8,115.8z M57.7,124.2C46.1,112,28.6,105.2,19,90.8l-0.4,0.6l0,0
	l-0.4,0.6l0,0c9.7,14.6,26.9,21.2,38.3,33.1C56.9,124.7,57.3,124.4,57.7,124.2L57.7,124.2z M44.7,129.1c-9.6-8.6-22.4-14.9-31.4-26
	c0,0.2-0.1,0.4-0.1,0.6l0,0c-0.1,0.2-0.1,0.5-0.2,0.8c8.6,10.5,20.2,17.1,29.3,24.8C43.1,129.2,43.9,129.2,44.7,129.1z"/>
<path class="st28" d="M57,89.9c0.1,0.7,0.2,1.5,0.3,2.2C51.9,87.4,46.9,83,43.1,78l0,0h0.3h1.8C48.9,82.3,52.8,86.2,57,89.9z
	 M54,105c-9.5-7.4-19.5-13.7-25.3-22.8l-0.2,0.2l-0.1,0.1l-0.2,0.1l-0.3,0.2l0,0l-0.2,0.1l0,0h-0.1L27.4,83
	c6,9.5,16.2,15.7,25.9,23.1C53.5,105.7,53.8,105.3,54,105L54,105z M44.1,112.9C35,106.4,25.3,100.2,19,90.7
	c-0.3,0.4-0.6,0.8-0.9,1.2c6.2,9.3,15.4,15.3,24.2,21.6C43,113.3,43.5,113.1,44.1,112.9L44.1,112.9z"/>
<path class="st12" d="M30.8,83.6c-2.7,1.1-5,2.8-6.7,5.1c-1.3,2-1.3,3.8-0.1,4.6s3.5,0.4,5.9-0.7c2.5-1.1,4.8-2.7,6.6-4.7
	c1.4-1.8,1.6-3.5,0.5-4.4S33.4,82.5,30.8,83.6z"/>
<path class="st12" d="M44.3,80.6c-1.4-0.1-2.8,0.2-4,1c-0.9,0.8-1.1,1.9-0.2,2.4s2.7,0.4,4.2,0s2.5-1.1,2.5-1.8S45.7,80.8,44.3,80.6
	z"/>
<path class="st4" d="M47.8,192.9c-17.7,1.5-33.3-11.7-34.8-29.4c-0.8-9.8,2.9-19.5,10.1-26.2c2.6-0.5,5.6-1,8.4-1.7
	c5.2-1.2,10.4-2.6,15.5-4.3c1.9-0.6,3.8-1.3,5.7-1.9c17.3,4.1,28,21.5,23.9,38.8C73.3,181.8,61.7,191.7,47.8,192.9z"/>
<path class="st5" d="M21.7,182.9c-0.7-0.7-1.3-1.4-1.9-2.2c10.6,4.1,21.3,6.1,30.2,9.7l-1.7,1.1C40.4,188.3,31.1,186.3,21.7,182.9z
	 M13.7,168.1c0,0.1,0.1,0.3,0.1,0.4c16.2,8.1,34.3,7.5,47.6,14.9l1.6-0.9c-14.1-8.6-33-7.1-49.5-15.4l0.1,0.3l0.1,0.3
	C13.6,167.8,13.7,167.9,13.7,168.1L13.7,168.1z M18.5,142.5l-0.4,0.6c16.4,10.9,40.6,7.1,59,21.9c0-0.1,0-0.3,0-0.4v-0.1
	c0-0.4,0.1-0.7,0.1-1.1C58.9,149.3,35,152.2,19,141.8l-0.3,0.4l0,0.1l0,0l0,0L18.5,142.5L18.5,142.5z M35.7,134.5l2.7-0.7
	c10.8,4.3,24,7,36.3,14.3c0.2,0.6,0.5,1.1,0.7,1.7c0,0,0,0.1,0,0.1C61.9,141.5,47.3,139.2,35.7,134.5L35.7,134.5z M74.1,175
	c-17-14.5-41.9-9.8-60.4-21.4c-0.1,0.5-0.2,0.9-0.3,1.4c18.8,11.8,43.4,6.9,60,21.2C73.6,175.8,73.8,175.4,74.1,175z"/>
<path class="st6" d="M34.2,130.4c11.8-4.2,24.9-1.3,33.8,7.6c10.1,14.7,6.4,34.8-8.3,44.9c-12.8,8.8-30.1,7.2-41.1-3.7
	c-10.1-14.7-6.4-34.8,8.3-44.9C29.2,132.6,31.6,131.4,34.2,130.4L34.2,130.4z"/>
<path class="st7" d="M34.2,130.4c6.9-2.5,14.6-2.6,21.5-0.1c12.6,9.8,14.9,27.9,5.2,40.5c-9.8,12.6-27.9,14.9-40.5,5.2
	c-2.5-1.9-4.6-4.2-6.3-6.8C9.6,153,18.4,136.1,34.2,130.4z"/>
<path class="st8" d="M34.2,130.4c1.1-0.4,2.3-0.7,3.4-1c10.8,3.6,16.6,15.2,13,26c-3.6,10.8-15.2,16.6-26,13
	c-5-1.7-9.2-5.2-11.7-9.9C13.8,145.8,22.1,134.8,34.2,130.4z"/>
<path class="st9" d="M74.8,148.1c0.2,0.6,0.5,1.1,0.7,1.7c0,0,0,0.1,0,0.1c-15.6-9.8-32.8-11.2-45.1-17.9c0.7-0.3,1.3-0.6,2-0.9
	C44,137.2,60,139.4,74.8,148.1L74.8,148.1z M52.9,192c-0.9,0.2-1.8,0.4-2.7,0.6l-0.5-0.3c-0.8-0.4-1.6-0.8-2.2-1.2
	c-7.7-3-16.7-4.9-25.8-8.3c-0.7-0.7-1.3-1.4-1.9-2.2C29.9,184.5,44.1,186.6,52.9,192L52.9,192z M66.4,185l-0.3-0.2
	c-1.1-0.9-2.2-1.7-3.4-2.5c-1.1-0.7-2.2-1.3-3.4-1.7c-0.1,0-0.2-0.1-0.3-0.1c-13.6-6.3-30.5-5.7-45.6-13.3c0.1,0.5,0.2,0.9,0.3,1.4
	c14.8,7.4,31.2,7.6,44.1,13.2l0.7,0.4c0.7,0.4,2,1.1,3.2,1.8c0.9,0.6,1.9,1.3,2.7,2l0.4,0.4C65.4,185.8,65.9,185.4,66.4,185
	L66.4,185z M77.2,163.6C58.9,149.3,35,152.2,19,141.8c-0.3,0.4-0.6,0.9-0.9,1.3c16.4,10.9,40.6,7.1,59,21.9
	C77.2,164.5,77.2,164,77.2,163.6L77.2,163.6z M74.1,175c-17-14.5-41.9-9.8-60.4-21.4c-0.1,0.5-0.2,0.9-0.3,1.4
	c18.8,11.8,43.4,6.9,60,21.2C73.6,175.8,73.8,175.4,74.1,175z"/>
<path class="st10" d="M65.2,143.3L65.2,143.3c0.2,0.6,0.3,1.1,0.5,1.6c-12.7-5.5-25.5-7.5-35.3-12.8l0.1-0.1l0,0l0.6-0.3l0.2-0.1
	l0.5-0.2l0.4-0.2l0.3-0.1C41.5,135.9,53.4,138.3,65.2,143.3L65.2,143.3z M66.7,157.2c-16.3-7.3-34.7-6.9-47.7-15.4l-0.2,0.2
	l-0.1,0.2c-0.1,0.1-0.2,0.2-0.3,0.4s-0.1,0.2-0.2,0.2s-0.1,0.2-0.2,0.3c13.4,8.9,32,8,48.3,15.4C66.5,158.1,66.6,157.7,66.7,157.2
	L66.7,157.2z M62.7,168.2c-15.6-6.4-34.4-5.4-49-14.6c0,0.2-0.1,0.5-0.1,0.7l0,0c0,0.2-0.1,0.4-0.1,0.7v0.1
	c14.8,9.3,33.3,8.3,48.5,14.4C62.2,169,62.5,168.6,62.7,168.2L62.7,168.2z M52.8,178c-12.3-3.9-26.5-4.4-39.3-10.9l0.1,0.6l0,0
	c0,0.3,0.1,0.5,0.2,0.8c12.2,6.1,25.4,7.3,36.9,10.6C51.4,178.8,52.1,178.4,52.8,178z"/>
<path class="st11" d="M48,137.1c0.4,0.6,0.8,1.2,1.2,1.9c-6.8-2.1-13.3-4-18.8-7l0,0l0.3-0.2h0.1l0.4-0.2l0.1-0.1h0.1l0.2-0.1l0,0
	l0.2-0.1l0.4-0.2l0.3-0.1C37.4,133.6,42.6,135.6,48,137.1z M51.4,152.2c-11.7-2.9-23.4-4.5-32.4-10.4l-0.2,0.2l-0.1,0.1l-0.1,0.1
	l-0.2,0.3l0,0l-0.1,0.2l0,0v0.1c-0.1,0.1-0.1,0.2-0.2,0.3c9.3,6.2,21.2,7.6,33,10.4C51.3,153.1,51.4,152.6,51.4,152.2L51.4,152.2z
	 M45.7,163.5c-11.1-2.2-22.4-3.8-32-9.9c-0.1,0.5-0.2,0.9-0.3,1.4c9.4,5.9,20.3,7.7,30.9,9.7C44.8,164.3,45.2,163.9,45.7,163.5
	L45.7,163.5z"/>
<path class="st12" d="M21.5,142.2c-2,2.1-3.4,4.6-4,7.4c-0.4,2.4,0.4,4,1.8,4.2s3.3-1.1,5.1-3.1c1.9-2,3.3-4.4,4.1-7
	c0.6-2.2,0-3.9-1.4-4.2S23.4,140.1,21.5,142.2z"/>
<path class="st12" d="M32.6,133.9c-1.4,0.4-2.5,1.3-3.2,2.6c-0.5,1.1-0.2,2.2,0.8,2.3s2.7-0.7,3.8-1.7s1.9-2.1,1.6-2.7
	S33.9,133.5,32.6,133.9z"/>
<path class="st4" d="M57.6,106C40.8,100.1,32,81.7,37.9,64.9c3.3-9.3,10.6-16.6,20-19.8c2.6,0.7,5.5,1.3,8.3,1.9
	c5.2,1.1,10.5,1.9,15.8,2.5c1.9,0.2,4,0.4,6,0.6c14.2,10.8,16.9,31.1,6,45.2C85.5,106.4,70.8,110.8,57.6,106L57.6,106z"/>
<path class="st5" d="M37.9,86.1c-0.3-0.9-0.6-1.8-0.8-2.8c8,8.1,17,14.3,23.6,21.2l-2,0.3C52.7,98.8,45,93.2,37.9,86.1L37.9,86.1z
	 M36.7,69.3c0,0.1-0.1,0.3-0.1,0.4c11.4,14,28.1,20.9,37.3,33.1l1.8-0.1c-9.3-13.7-27.2-20-38.8-34.4l-0.1,0.3c0,0.1,0,0.2-0.1,0.3
	S36.7,69.2,36.7,69.3z M51.6,48l-0.7,0.4C61.4,65.1,85,71.5,95.8,92.5c0.1-0.1,0.1-0.2,0.2-0.3l0,0c0.2-0.3,0.4-0.6,0.5-0.9
	C85.6,70.8,62.6,63.6,52.3,47.6l-0.4,0.3h-0.1l0,0L51.6,48L51.6,48z M70.6,47.8l2.8,0.5c8.1,8.3,19,16.2,27.2,27.9
	c0,0.6,0,1.2-0.1,1.8c0,0,0,0.1,0,0.1C91.7,65,79.2,56.9,70.6,47.8L70.6,47.8z M88.9,100.4c-9.6-20.2-34.2-26.1-46.3-44.3
	c-0.3,0.4-0.6,0.8-0.9,1.2c12.3,18.5,36.7,24.1,46,44C88.2,101,88.5,100.7,88.9,100.4L88.9,100.4z"/>
<path class="st6" d="M70.8,43.4c12.5,1,23.3,9,27.7,20.7c3.2,17.5-8.4,34.3-25.9,37.6c-15.3,2.8-30.5-5.7-36-20.3
	C33.4,63.9,45,47.1,62.5,43.8C65.3,43.3,68.1,43.2,70.8,43.4L70.8,43.4z"/>
<path class="st7" d="M70.8,43.4c7.4,0.6,14.3,3.6,19.7,8.7c7.5,14.1,2.2,31.6-11.9,39.1C64.6,98.8,47,93.5,39.5,79.4
	c-1.5-2.8-2.5-5.8-3-8.9C39.1,53.9,54.1,42.1,70.8,43.4z"/>
<path class="st8" d="M70.8,43.4c1.2,0.1,2.4,0.2,3.5,0.5c8.4,7.7,8.9,20.7,1.2,29.1s-20.7,8.9-29.1,1.2c-3.9-3.6-6.2-8.5-6.6-13.8
	C45.9,49.1,58.1,42.4,70.8,43.4z"/>
<path class="st9" d="M100.6,76.2c0,0.6,0,1.2-0.1,1.8c0,0,0,0.1,0,0.1C90.2,62.8,75.2,54.5,66.7,43.4c0.7,0,1.5,0,2.2,0
	C77.1,53.7,90.8,62.3,100.6,76.2L100.6,76.2z M62.6,107.3c-0.9-0.2-1.8-0.4-2.7-0.6l-0.3-0.5c-0.5-0.7-1.2-1.4-1.6-2
	c-5.8-5.9-13.2-11.3-20.2-18.1c-0.3-0.9-0.6-1.8-0.8-2.8C44.7,91.1,56.8,98.8,62.6,107.3L62.6,107.3z M77.9,106.4l-0.2-0.3
	c-0.6-1.3-1.3-2.5-2.1-3.7c-0.7-1.1-1.5-2-2.4-2.9c-0.1-0.1-0.2-0.1-0.2-0.2c-9.8-11.3-25.5-17.8-36.1-30.8
	c-0.1,0.5-0.2,0.9-0.3,1.4C47.1,82.6,62,89.5,71.4,99.9c0.1,0.1,0.2,0.3,0.5,0.6c0.5,0.6,1.4,1.8,2.2,3c0.6,1,1.2,2,1.7,3
	c0.1,0.2,0.2,0.3,0.2,0.5C76.6,106.8,77.2,106.7,77.9,106.4L77.9,106.4z M96.5,91.3C85.6,70.8,62.6,63.6,52.3,47.6
	c-0.5,0.3-0.9,0.5-1.4,0.8C61.4,65.1,85,71.5,95.8,92.6C96,92.2,96.3,91.7,96.5,91.3z M88.9,100.4c-9.6-20.2-34.2-26.1-46.3-44.3
	c-0.3,0.4-0.6,0.8-0.9,1.2c12.3,18.5,36.7,24.1,46,44C88.2,101,88.5,100.7,88.9,100.4z"/>
<path class="st10" d="M93.8,67.9V68c0,0.5-0.1,1-0.2,1.6c-9.3-10.3-20.2-17.4-26.9-26.2h0.2h0.7H69C75.4,51.5,85.2,58.5,93.8,67.9
	L93.8,67.9z M89.4,81.2C77.6,67.8,60.7,60.7,52.3,47.6L52,47.8l-0.2,0.1l-0.4,0.2l-0.2,0.2l-0.3,0.2c8.6,13.6,25.9,20.4,37.8,33.9
	C89,81.9,89.2,81.6,89.4,81.2z M81.3,89.6c-11.6-12.3-29.1-19-38.7-33.5c-0.2,0.2-0.3,0.4-0.4,0.6l0,0l-0.4,0.6v0
	c9.7,14.6,26.9,21.2,38.3,33.1C80.6,90.1,81,89.8,81.3,89.6L81.3,89.6z M68.3,94.5c-9.7-8.6-22.4-14.9-31.4-26.1
	c0,0.2-0.1,0.4-0.1,0.6l0,0l-0.2,0.8c8.6,10.5,20.2,17.1,29.3,24.8C66.7,94.6,67.5,94.6,68.3,94.5L68.3,94.5z"/>
<path class="st11" d="M80.7,55.2c0.1,0.7,0.2,1.5,0.3,2.2c-5.4-4.7-10.5-9.1-14.2-14.1l0,0h0.3H69C72.6,47.6,76.5,51.6,80.7,55.2
	L80.7,55.2z M77.7,70.4c-9.6-7.5-19.5-13.7-25.4-22.8L52,47.8l-0.1,0.1l-0.2,0.1l-0.3,0.2l0,0l-0.2,0.1l0,0h-0.1L51,48.4
	c6,9.5,16.2,15.7,25.9,23.1C77.1,71.1,77.4,70.7,77.7,70.4L77.7,70.4z M67.8,78.3c-9.2-6.6-18.8-12.7-25.1-22.2
	c-0.3,0.4-0.6,0.8-0.9,1.2c6.1,9.3,15.3,15.3,24.2,21.6C66.6,78.7,67.2,78.5,67.8,78.3L67.8,78.3z"/>
<path class="st12" d="M54.4,48.9c-2.7,1.1-5,2.8-6.7,5.1c-1.3,2-1.3,3.8-0.1,4.6s3.5,0.4,5.9-0.7c2.5-1.1,4.8-2.7,6.6-4.7
	c1.4-1.8,1.6-3.5,0.5-4.4S57,47.9,54.4,48.9z"/>
<path class="st12" d="M67.9,46c-1.4-0.2-2.8,0.2-4,1c-0.9,0.8-1.1,1.9-0.3,2.4s2.7,0.4,4.2,0s2.5-1.1,2.5-1.8S69.3,46.1,67.9,46z"/>
<path class="st4" d="M145.8,145.7c-17.4,3.9-34.6-7-38.5-24.4c-2.2-9.6,0.2-19.7,6.4-27.3c2.5-0.8,5.4-1.8,8.1-2.8
	c5-1.9,9.9-4,14.7-6.3c1.8-0.9,3.6-1.8,5.4-2.7c17.7,1.7,30.7,17.4,29,35.2C169.5,131.2,159.4,142.7,145.8,145.7L145.8,145.7z"/>
<path class="st5" d="M118.5,139.4c-0.8-0.6-1.5-1.2-2.2-1.9c11.1,2.6,21.9,3.1,31.2,5.4l-1.5,1.3
	C137.8,142.2,128.3,141.5,118.5,139.4L118.5,139.4z M108.6,125.8c0,0.1,0.1,0.3,0.2,0.4c17.1,5.8,35,2.8,49.2,8.3
	c0.5-0.4,1-0.7,1.5-1.1c-15.1-6.6-33.7-2.5-51.1-8.5l0.1,0.3c0,0.1,0.1,0.2,0.1,0.3C108.5,125.6,108.5,125.7,108.6,125.8z
	 M109.9,99.8c-0.1,0.2-0.2,0.5-0.3,0.7c17.8,8.6,41.2,1.5,61.4,13.6c0-0.1,0-0.3,0-0.4l0,0c0-0.3,0-0.7,0-1.1
	c-20.2-11.6-43.5-5.4-60.7-13.5l-0.2,0.4v0.1l0,0l0,0L109.9,99.8L109.9,99.8z M125.9,89.5c0.9-0.3,1.8-0.7,2.6-1.1
	c11.3,2.8,24.7,3.6,37.9,9.2c0.3,0.5,0.6,1.1,0.9,1.6l0.1,0.1C152.8,92.9,138,92.6,125.9,89.5L125.9,89.5z M169.3,124.4
	c-18.8-12-42.9-3.9-62.7-13c0,0.5-0.1,1-0.1,1.5c20.3,9.2,43.9,1,62.4,12.8C169,125.3,169.2,124.9,169.3,124.4L169.3,124.4z"/>
<path class="st6" d="M123.7,85.7c11.1-5.8,24.5-4.7,34.5,2.9c12,13.1,11.2,33.5-1.9,45.6c-11.5,10.6-28.9,11.4-41.3,1.9
	c-1.9-2.1-3.5-4.3-4.8-6.8C101.9,113.5,107.9,94,123.7,85.7z"/>
<path class="st7" d="M123.7,85.7c6.5-3.4,14-4.5,21.3-3.1c13.8,8,18.6,25.6,10.6,39.5s-25.6,18.6-39.5,10.6
	c-2.7-1.5-5.1-3.5-7.2-5.8C102.4,111.4,108.8,93.5,123.7,85.7z"/>
<path class="st8" d="M123.7,85.7c1.1-0.5,2.2-1,3.3-1.5c11.2,2.1,18.6,12.8,16.5,24s-12.8,18.6-24,16.5c-5.2-1-9.8-3.9-12.9-8.2
	C105.6,103.8,112.4,91.7,123.7,85.7z"/>
<path class="st9" d="M166.4,97.7c0.3,0.5,0.6,1.1,0.9,1.6l0.1,0.1c-16.8-7.6-34-6.6-47.1-11.6c0.6-0.4,1.2-0.8,1.9-1.2
	C134.5,91.1,150.6,91.1,166.4,97.7z M150.7,144.2c-0.8,0.3-1.7,0.6-2.6,0.9l-0.5-0.2c-0.8-0.3-1.7-0.6-2.4-0.9
	c-8-1.9-17.2-2.6-26.7-4.6c-0.8-0.6-1.5-1.2-2.2-1.9C126.9,140,141.2,140.1,150.7,144.2L150.7,144.2z M163.1,135.3l-0.3-0.2
	c-1.2-0.7-2.5-1.4-3.7-2c-1.1-0.5-2.3-0.9-3.6-1.2h-0.3c-14.3-4.4-31-1.5-47-6.9c0.2,0.4,0.3,0.9,0.5,1.3c15.7,5.3,31.9,3.2,45.5,7
	l0.7,0.3c0.8,0.3,2.2,0.8,3.4,1.4c1,0.5,2,1,3,1.6l0.5,0.3C162.2,136.4,162.7,135.8,163.1,135.3L163.1,135.3z M170.9,112.6
	c-20.1-11.6-43.4-5.4-60.7-13.5c-0.2,0.5-0.5,1-0.7,1.4c17.8,8.6,41.2,1.5,61.4,13.6C170.9,113.6,170.9,113.1,170.9,112.6
	L170.9,112.6z M169.3,124.4c-18.8-12-42.9-3.9-62.7-13c0,0.5-0.1,1-0.1,1.5c20.3,9.2,43.9,1,62.4,12.8
	C169,125.3,169.2,124.9,169.3,124.4L169.3,124.4z"/>
<path class="st10" d="M156.2,94.2L156.2,94.2c0.2,0.5,0.5,1,0.7,1.5c-13.3-3.7-26.3-3.9-36.7-7.8l0.1-0.1l0,0l0.6-0.4l0.1-0.1
	l0.4-0.3l0.3-0.2l0.2-0.1C131.8,90.1,143.8,90.9,156.2,94.2L156.2,94.2z M159.5,107.8c-17.1-5-35.2-2.1-49.3-8.7l-0.1,0.3l-0.1,0.2
	c-0.1,0.1-0.1,0.3-0.2,0.4l-0.1,0.3l-0.1,0.3c14.5,7,32.8,3.6,50,8.6C159.5,108.7,159.5,108.3,159.5,107.8L159.5,107.8z
	 M157.1,119.2c-16.4-4.2-34.8-0.6-50.6-7.8l-0.1,0.7l0,0c0,0.2,0,0.5,0,0.7l0,0c16,7.2,34.1,3.6,50.1,7.6
	C156.8,120.1,157,119.6,157.1,119.2L157.1,119.2z M148.7,130.3c-12.7-2.2-26.9-0.8-40.4-5.4l0.2,0.6l0,0c0.1,0.2,0.2,0.5,0.3,0.7
	c12.9,4.3,26.2,3.7,38,5.5C147.4,131.3,148.1,130.8,148.7,130.3L148.7,130.3z"/>
<path class="st11" d="M138.3,90.5c0.5,0.5,1,1.1,1.4,1.7c-7.1-1.2-13.7-2.2-19.5-4.4l0,0l0.3-0.2l0.1-0.1l0.3-0.2l0.1-0.1l0.1-0.1
	l0.2-0.1l0,0l0.2-0.1l0.3-0.2l0.2-0.1C127.3,88.4,132.8,89.7,138.3,90.5L138.3,90.5z M143.8,105c-12-1.3-23.8-1.2-33.5-5.8l-0.1,0.3
	l-0.1,0.1l-0.1,0.2c0,0.1-0.1,0.2-0.2,0.3l0,0l-0.1,0.2l0,0v0.1l-0.1,0.3c10.1,4.9,22,4.7,34.2,5.8
	C143.8,105.9,143.8,105.4,143.8,105L143.8,105z M139.6,116.9c-11.3-0.7-22.7-0.7-33.1-5.4c0,0.5-0.1,1-0.1,1.5
	c10.2,4.6,21.2,4.8,32,5.4C138.9,117.8,139.2,117.4,139.6,116.9L139.6,116.9z"/>
<path class="st12" d="M112.7,99.1c-1.7,2.3-2.7,5-3,7.9c-0.1,2.4,1,3.9,2.3,4s3.1-1.5,4.7-3.7c1.6-2.3,2.6-4.8,3.1-7.5
	c0.3-2.3-0.5-3.8-1.9-4S114.4,96.8,112.7,99.1z"/>
<path class="st12" d="M122.6,89.4c-1.3,0.6-2.3,1.7-2.9,3c-0.4,1.1,0,2.2,1,2.2s2.5-1.1,3.6-2.2s1.6-2.3,1.2-2.9
	S123.9,88.8,122.6,89.4z"/>
<path class="st13" d="M78.9,148.2c-16.8-5.9-25.6-24.3-19.7-41.1c3.3-9.3,10.6-16.6,19.9-19.8c2.6,0.6,5.5,1.3,8.3,1.9
	c5.2,1.1,10.5,1.9,15.8,2.5c2,0.2,4,0.4,6,0.6c14.2,10.8,16.9,31.1,6,45.2C106.9,148.6,92.1,153,78.9,148.2L78.9,148.2z"/>
<path class="st14" d="M59.2,128.4c-0.3-0.9-0.6-1.8-0.8-2.8c8,8.1,17,14.3,23.5,21.2l-1.9,0.3C74.1,141,66.4,135.4,59.2,128.4z
	 M58,111.6c0,0.2-0.1,0.3-0.1,0.4c11.4,14,28.1,21,37.3,33.1L97,145c-9.3-13.7-27.2-20-38.8-34.4l-0.1,0.3c0,0.1,0,0.2-0.1,0.3
	S58,111.5,58,111.6L58,111.6z M72.9,90.3l-0.7,0.4c10.5,16.7,34.1,23.1,44.8,44.1l0.2-0.3l0,0c0.2-0.3,0.4-0.6,0.5-0.9
	c-10.9-20.6-33.9-27.7-44.2-43.7l-0.4,0.2h-0.1l0,0L72.9,90.3L72.9,90.3z M91.9,90.1c0.9,0.2,1.9,0.3,2.8,0.5
	c8.1,8.3,19,16.2,27.2,27.9c0,0.6,0,1.2-0.1,1.8c0,0,0,0.1,0,0.1C113,107.2,100.5,99.2,91.9,90.1z M110.2,142.7
	c-9.6-20.2-34.2-26.1-46.3-44.3c-0.3,0.4-0.6,0.8-0.9,1.2c12.3,18.5,36.7,24.1,46,44L110.2,142.7z"/>
<path class="st15" d="M92.1,85.7c12.5,1,23.3,9,27.7,20.7c3.2,17.5-8.4,34.3-25.9,37.6c-15.3,2.8-30.5-5.7-36-20.3
	c-3.2-17.5,8.4-34.3,25.9-37.6C86.5,85.6,89.3,85.4,92.1,85.7L92.1,85.7z"/>
<path class="st16" d="M92.1,85.7c7.4,0.6,14.3,3.6,19.7,8.7c7.5,14.1,2.2,31.6-11.9,39.1c-14.1,7.5-31.6,2.2-39.1-11.9
	c-1.5-2.8-2.5-5.8-3-8.8C60.4,96.2,75.4,84.4,92.1,85.7z"/>
<path class="st17" d="M92.1,85.7c1.2,0.1,2.4,0.2,3.5,0.5c8.4,7.7,8.9,20.7,1.2,29.1s-20.7,8.9-29.1,1.2c-3.9-3.6-6.2-8.5-6.6-13.8
	C67.2,91.4,79.3,84.7,92.1,85.7z"/>
<path class="st18" d="M121.9,118.5c0,0.6,0,1.2-0.1,1.8c0,0,0,0.1,0,0.1C111.5,105.1,96.5,96.7,88,85.6c0.8,0,1.5,0,2.2,0
	C98.4,96,112.1,104.5,121.9,118.5z M83.9,149.6c-0.9-0.2-1.8-0.4-2.7-0.6l-0.3-0.5c-0.5-0.7-1.2-1.4-1.6-2
	c-5.8-5.9-13.2-11.3-20.2-18.1c-0.3-0.9-0.6-1.8-0.8-2.8C66,133.3,78.1,141.1,83.9,149.6L83.9,149.6z M99.1,148.7l-0.2-0.3
	c-0.6-1.3-1.3-2.5-2.1-3.7c-0.7-1.1-1.5-2.1-2.4-2.9l-0.2-0.2c-9.8-11.3-25.5-17.8-36.1-30.8c-0.1,0.5-0.2,0.9-0.3,1.4
	c10.5,12.8,25.3,19.7,34.8,30.1l0.5,0.6c0.5,0.6,1.4,1.8,2.2,3c0.6,1,1.2,2,1.7,3c0.1,0.2,0.2,0.3,0.2,0.5
	C97.9,149.1,98.5,148.9,99.1,148.7L99.1,148.7z M117.8,133.5c-10.9-20.5-33.9-27.7-44.2-43.7c-0.5,0.3-0.9,0.5-1.4,0.8
	c10.5,16.7,34.1,23.1,44.8,44.1C117.3,134.4,117.6,134,117.8,133.5z M110.2,142.7c-9.6-20.2-34.2-26.1-46.3-44.3
	c-0.3,0.4-0.6,0.8-0.9,1.2c12.3,18.5,36.7,24.1,46,44L110.2,142.7z"/>
<path class="st19" d="M115.1,110.1L115.1,110.1c0,0.6-0.1,1.1-0.2,1.6c-9.3-10.2-20.2-17.3-26.9-26.2h0.2h0.7h1.4
	C96.6,93.8,106.4,100.8,115.1,110.1L115.1,110.1z M110.7,123.4C98.9,110.1,82,102.9,73.6,89.9L73.3,90l-0.2,0.1l-0.4,0.2l-0.2,0.2
	l-0.3,0.2c8.6,13.6,25.9,20.4,37.8,33.9C110.2,124.2,110.5,123.8,110.7,123.4z M102.6,131.8c-11.6-12.3-29.1-19-38.7-33.5l-0.4,0.6
	l0,0c-0.1,0.2-0.3,0.4-0.4,0.6l0,0c9.7,14.6,26.9,21.2,38.3,33.1C101.9,132.3,102.3,132.1,102.6,131.8L102.6,131.8z M89.6,136.7
	c-9.6-8.6-22.4-14.9-31.4-26.1c0,0.2-0.1,0.4-0.1,0.6l0,0c-0.1,0.3-0.1,0.5-0.2,0.8c8.6,10.5,20.2,17.1,29.3,24.8
	C88,136.9,88.8,136.8,89.6,136.7z"/>
<path class="st20" d="M101.9,97.5c0.1,0.7,0.2,1.5,0.3,2.2C96.9,95,91.8,90.6,88,85.6l0,0h0.4h1.8C93.8,89.9,97.7,93.9,101.9,97.5z
	 M98.9,112.6c-9.5-7.4-19.4-13.7-25.3-22.8L73.4,90l-0.1,0.1l-0.2,0.1l-0.3,0.2l0,0l-0.2,0.1l0,0l0,0l-0.3,0.2
	c6,9.5,16.2,15.7,25.8,23.1C98.5,113.4,98.8,113,98.9,112.6L98.9,112.6z M89,120.5c-9.2-6.6-18.9-12.7-25.1-22.2
	c-0.3,0.4-0.6,0.8-0.9,1.2c6.2,9.3,15.4,15.3,24.2,21.6C87.8,121,88.4,120.8,89,120.5z"/>
<path class="st12" d="M75.7,91.2c-2.6,1.1-5,2.8-6.7,5.1c-1.3,2-1.3,3.8-0.1,4.6s3.4,0.4,5.9-0.7c2.5-1.1,4.8-2.7,6.6-4.7
	c1.4-1.8,1.6-3.5,0.5-4.4S78.3,90.2,75.7,91.2z"/>
<path class="st12" d="M89.2,88.2c-1.4-0.2-2.8,0.2-4,1c-0.9,0.8-1.1,1.9-0.2,2.4s2.7,0.4,4.2,0s2.5-1.1,2.5-1.8S90.6,88.4,89.2,88.2
	z"/>
<path class="st29" d="M8.5,19.7c4.5,0.4,8.3-1.8,8.6-5c0.4-5,0.6-7.6,1-12.6c-6.4-0.5-9.6-0.8-16-1.4c-0.5,5-0.7,7.6-1.2,12.6
	C0.6,16.5,4,19.3,8.5,19.7z"/>
<path class="st30" d="M24.7,21c4.5,0.3,8.2-2,8.4-5.1l0.8-12.6c-6.3-0.4-9.5-0.6-15.8-1.1c-0.4,5.1-0.6,7.6-1,12.6
	C16.9,17.9,20.3,20.7,24.7,21z"/>
<path class="st29" d="M40.9,22c4.5,0.2,8.2-2.1,8.4-5.2l0.6-12.6c-6.4-0.3-9.6-0.5-16-0.9l-0.8,12.6C32.9,19,36.4,21.8,40.9,22z"/>
<path class="st30" d="M57.2,22.8c4.5,0.2,8.2-2.2,8.3-5.4l0.4-12.6c-6.4-0.2-9.6-0.3-16-0.6l-0.6,12.6
	C49.1,19.9,52.7,22.6,57.2,22.8z"/>
<path class="st29" d="M73.3,23.3c4.5,0.1,8.2-2.4,8.2-5.5c0.1-5.1,0.1-7.6,0.2-12.7C75.3,5.1,72.1,5,65.7,4.8l-0.4,12.7
	C65.2,20.5,68.8,23.2,73.3,23.3z"/>
<path class="st30" d="M89.7,23.6c4.6,0,8.3-2.5,8.3-5.6c0-5.1,0-7.6,0-12.7c-6.5,0-9.8,0-16.2-0.1c-0.1,5.1-0.1,7.6-0.2,12.7
	C81.4,20.9,85.1,23.5,89.7,23.6z"/>
<path class="st29" d="M105.7,23.6c4.5,0,8.1-2.6,8-5.7c-0.1-5.1-0.1-7.6-0.2-12.7c-6.4,0.1-9.6,0.1-15.9,0.1V18
	C97.6,21.1,101.2,23.6,105.7,23.6z"/>
<path class="st30" d="M122.1,23.3c4.6-0.1,8.3-2.8,8.2-5.9c-0.2-5.1-0.2-7.6-0.4-12.7c-6.6,0.2-9.9,0.3-16.4,0.4
	c0.1,5.1,0.1,7.6,0.2,12.7C113.7,21,117.5,23.4,122.1,23.3z"/>
<path class="st29" d="M138.1,22.8c4.4-0.2,7.9-2.9,7.8-6c-0.2-5.1-0.4-7.6-0.6-12.6c-6.3,0.3-9.5,0.4-15.9,0.6
	c0.2,5.1,0.2,7.6,0.4,12.6C129.9,20.6,133.6,23,138.1,22.8z"/>
<path class="st30" d="M154.6,22c4.7-0.2,8.3-3,8.1-6.1l-0.8-12.6c-6.6,0.4-10,0.6-16.6,0.9c0.2,5.1,0.4,7.6,0.6,12.6
	C146,20,149.9,22.3,154.6,22z"/>
<path class="st29" d="M170.5,21.1c4.4-0.3,7.8-3.1,7.6-6.2c-0.4-5.1-0.6-7.6-1-12.6c-6.3,0.5-9.5,0.7-15.8,1.1
	c0.3,5.1,0.5,7.6,0.8,12.6C162.3,19.1,166,21.4,170.5,21.1z"/>
<path class="st30" d="M187.1,19.8c4.7-0.4,8.3-3.3,8-6.4c-0.5-5.1-0.7-7.6-1.2-12.6c-6.7,0.6-10.1,0.9-16.8,1.5
	c0.4,5,0.6,7.6,1,12.6C178.3,18,182.3,20.2,187.1,19.8z"/>
<path class="st31" d="M193.6,7.1c-63.8,5.6-127.9,5.6-191.6,0L2,5.8c63.7,5.6,127.7,5.6,191.4,0.1L193.6,7.1z"/>
<path class="st31" d="M194,12.1C129.9,17.7,65.5,17.6,1.5,12l0.1-1.2c64,5.6,128.3,5.6,192.3,0.1L194,12.1z"/>
<g>
	<defs>
		<path id="SVGID_1_" d="M148.9,9.1c-23.5,0-50,1-68.7,0S3.6,1.8,3.6,1.8c-1,8.8,1.1,102.4,3,115.1s1.8,54.5,1.8,54.5
			c0,18.7,37.8,33.9,84.4,33.9s84.4-15.2,84.4-33.9L192.1,3.8C178,7.3,163.4,9.1,148.9,9.1z"/>
	</defs>
	<clipPath id="SVGID_2_">
		<use xlink:href="#SVGID_1_"  style="overflow:visible;"/>
	</clipPath>
	<g class="st32">
		
			<rect x="-14.7" y="86.6" transform="matrix(0.7071 -0.7071 0.7071 0.7071 -41.0644 107.8401)" class="st33" width="248.6" height="33.8"/>
		<polygon class="st33" points="-26.3,100.2 -29.7,90.6 64.1,64.4 161.9,15.7 138.9,41.5 66.1,99.5 		"/>
	</g>
</g>
<g>
	<g>
		<g>
			<g>
				
					<ellipse transform="matrix(0.1479 -0.989 0.989 0.1479 13.8095 155.652)" class="st34" cx="97.2" cy="69.8" rx="12.3" ry="12.8"/>
				
					<ellipse transform="matrix(0.1479 -0.989 0.989 0.1479 25.3707 188.2572)" class="st34" cx="121.9" cy="79.4" rx="12.3" ry="12.8"/>
				
					<ellipse transform="matrix(0.1479 -0.989 0.989 0.1479 10.9634 218.7433)" class="st34" cx="132.4" cy="103" rx="12.3" ry="12.8"/>
				
					<ellipse transform="matrix(0.1479 -0.989 0.989 0.1479 -20.8573 229.0074)" class="st34" cx="122.5" cy="126.6" rx="12.3" ry="12.8"/>
				
					<ellipse transform="matrix(0.1479 -0.989 0.989 0.1479 -51.1958 212.9545)" class="st34" cx="98" cy="136.2" rx="12.3" ry="12.8"/>
				
					<ellipse transform="matrix(0.1479 -0.989 0.989 0.1479 -62.0368 180.117)" class="st34" cx="73.5" cy="126.1" rx="12.3" ry="12.8"/>
				
					<ellipse transform="matrix(0.1479 -0.989 0.989 0.1479 -46.9426 149.9942)" class="st34" cx="63.6" cy="102.2" rx="12.3" ry="12.8"/>
				
					<ellipse transform="matrix(0.1479 -0.989 0.989 0.1479 -14.8765 140.4735)" class="st34" cx="74.1" cy="78.9" rx="12.3" ry="12.8"/>
			</g>
		</g>
		<ellipse transform="matrix(0.1479 -0.989 0.989 0.1479 -18.3927 184.6884)" class="st34" cx="98" cy="103" rx="38.1" ry="39.6"/>
		<ellipse transform="matrix(0.1479 -0.989 0.989 0.1479 -18.3927 184.6884)" class="st35" cx="98" cy="103" rx="31.2" ry="32.5"/>
	</g>
	<g>
		<path class="st2" d="M90.1,89.2l-1,23l-6-0.3l0.8-18.7L78.6,93l0.2-4.3L90.1,89.2z"/>
		<path class="st2" d="M99,111.6c-1.6-1-2.9-2.4-3.8-4.3c-0.9-1.8-1.3-4-1.1-6.4c0.1-2.5,0.7-4.6,1.7-6.3c1-1.7,2.4-3,4.1-3.9
			c1.7-0.9,3.7-1.3,5.8-1.2c2.2,0.1,4.1,0.7,5.7,1.7c1.6,1,2.9,2.4,3.8,4.3c0.9,1.8,1.3,4,1.1,6.4c-0.1,2.5-0.7,4.6-1.7,6.3
			c-1,1.7-2.4,3-4.1,3.9c-1.7,0.9-3.7,1.2-5.8,1.2C102.6,113.2,100.7,112.6,99,111.6z M108.8,107.1c1-1.2,1.5-3,1.6-5.5
			c0.1-2.5-0.3-4.4-1.1-5.6c-0.9-1.2-2.1-1.9-3.7-2c-1.6-0.1-2.8,0.5-3.8,1.6c-1,1.2-1.5,3-1.6,5.5c-0.1,2.5,0.3,4.4,1.1,5.6
			c0.9,1.2,2.1,1.9,3.6,2C106.5,108.8,107.8,108.3,108.8,107.1z"/>
	</g>
</g>
</svg>
