<?xml version="1.0" encoding="utf-8"?>
<!-- Generator: Adobe Illustrator 25.0.1, SVG Export Plug-In . SVG Version: 6.00 Build 0)  -->
<svg version="1.1" id="Layer_1" xmlns="http://www.w3.org/2000/svg" xmlns:xlink="http://www.w3.org/1999/xlink" x="0px" y="0px"
	 viewBox="0 0 196 206" style="enable-background:new 0 0 196 206;" xml:space="preserve">
<style type="text/css">
	.st0{fill:#9D82C6;}
	.st1{opacity:0.46;}
	.st2{fill:#FFFFFF;}
	.st3{fill:#C09FF2;}
	.st4{fill:#69E6FF;}
	.st5{fill:none;stroke:#FFFFFF;stroke-width:1.4242;stroke-linecap:round;stroke-miterlimit:10;}
	.st6{opacity:0.65;fill:#FFB9B9;enable-background:new    ;}
	.st7{fill:#FFB9B9;}
	.st8{fill:#FEE258;}
	.st9{fill:#FEF8FC;}
	.st10{fill:#FF4891;}
	.st11{opacity:0.2;fill:#655A78;enable-background:new    ;}
	.st12{clip-path:url(#SVGID_2_);}
	.st13{opacity:0.2;fill:#B1D29E;enable-background:new    ;}
	.st14{fill:#FA5094;}
	.st15{fill:none;stroke:#FFFFFF;stroke-width:0.5;stroke-miterlimit:10;}
</style>
<g>
	<g id="aaf2bf41-f07f-4034-ba27-4931e74b9476">
		<ellipse class="st0" cx="92.9" cy="171.4" rx="84.6" ry="33.9"/>
		<g class="st1">
			<path class="st2" d="M148.9,9c-23.6,0-50.1,1-68.7,0S3.5,1.6,3.5,1.6c-1,8.8,1.1,102.5,3,115.3s1.8,54.6,1.8,54.6
				c0,18.7,37.8,33.9,84.6,33.9s84.6-15.2,84.6-33.9L192.2,3.7C178.1,7.2,163.5,9,148.9,9z"/>
			<path class="st3" d="M148.9,9c-12.1,0-24.3,0.3-36.4,0.4S88.2,9.7,76.1,8.9S51.8,6.8,39.7,5.6S15.6,3.1,3.5,1.8l0.3-0.2L3.6,4.5
				v2.8c0,1.9,0,3.8,0,5.7c0,3.8,0,7.6,0.1,11.4C3.7,32,3.9,39.6,4.1,47.2c0.3,15.2,0.8,30.4,1.4,45.6c0.2,3.8,0.3,7.6,0.6,11.4
				s0.4,7.6,0.8,11.3c0.9,7.6,1.4,15.2,1.6,22.8c0.2,7.6,0.4,15.2,0.4,22.8v5.7v2.9c0,0.9,0,1.9,0.1,2.8c0.4,3.7,2,7.2,4.5,9.9
				c2.5,2.8,5.4,5.2,8.7,7.1c3.2,2,6.6,3.7,10.1,5.1c7,2.8,14.3,5,21.7,6.6c14.9,3,30,4.3,45.2,3.8c15.1-0.4,30.3-2.4,44.8-6.7
				c7.3-2.1,14.2-5.1,20.7-9.1c3.2-2,6.1-4.5,8.5-7.4c1.2-1.4,2.2-3,2.9-4.8c0.7-1.7,1.1-3.6,1.1-5.4l0,0l0,0l15-167.8l0.1,0.1
				c-3.5,0.9-7.1,1.6-10.7,2.3s-7.2,1.2-10.8,1.6c-3.6,0.4-7.2,0.8-10.9,1S152.6,9,148.9,9z M148.9,9c3.6,0,7.3-0.1,10.9-0.4
				s7.3-0.6,10.9-1s7.2-1,10.8-1.7s7.2-1.4,10.7-2.3h0.1v0.1l-14.5,167.8l0,0c0,1.9-0.4,3.9-1.2,5.7c-0.8,1.8-1.8,3.5-3,5
				c-2.5,2.9-5.4,5.4-8.6,7.4c-6.5,4-13.5,7.1-20.9,9.2c-14.6,4.4-29.8,6.4-45,6.9c-15.2,0.5-30.5-0.7-45.5-3.7
				c-7.5-1.5-14.8-3.7-21.9-6.6c-3.5-1.5-7-3.2-10.2-5.2c-3.3-2-6.3-4.5-8.9-7.3c-2.7-2.9-4.4-6.6-4.7-10.5c-0.1-1,0-1.9-0.1-2.9
				v-2.9V161c0-7.6-0.1-15.2-0.4-22.8c-0.1-7.6-0.6-15.2-1.5-22.7c-0.4-3.8-0.6-7.6-0.8-11.4s-0.4-7.6-0.5-11.4
				c-0.6-15.2-1-30.4-1.3-45.6C3.2,39.6,3.1,32,3.1,24.4C3,20.6,3,16.8,3,13c0-1.9,0-3.8,0-5.7l0.1-2.9l0.2-2.9V1.4h0.2
				C15.6,2.7,27.7,4,39.8,5.2C51.9,6.5,64,7.7,76.1,8.6s24.3,0.8,36.4,0.7S136.8,9,148.9,9z"/>
		</g>
		<path class="st4" d="M164.2,147.3c-1.5-2.8-3.5-5.4-5.9-7.6c-2.8-2.6-6.2-3.6-9.8-4.6c-6.8-1.8-14.3-2.5-20.8,0.8
			c-0.6,0.3-1.2,0.6-1.7,1c-0.9,0.4-1.8,0.9-2.6,1.4c-3.1,1.7-5.9,3.9-8.3,6.6c-2.2,2.8-3.9,5.9-5.1,9.2c-2.7,6.4-3,13.6-0.7,20.1
			c2.2,6,6.3,11,11.8,14.3c6.2,3.7,13.3,4.4,20.3,3.9c3.5-0.2,7.3-0.4,10.7-1.6c3.1-1.1,5.7-3.2,7.7-5.8c2.1-2.7,3.8-5.7,5.1-8.9
			c1.5-3.3,2.5-6.8,3-10.3C168.6,159.4,167.4,153,164.2,147.3z"/>
		<path class="st5" d="M119.1,160.6c0.8,0.8,1.7,1.6,2.6,2.4"/>
		<path class="st5" d="M125.1,162.2c0.3,0.6,0.6,1.2,0.9,1.8"/>
		<path class="st5" d="M113.8,163.9c-0.4,0.8-0.8,1.6-1.2,2.5"/>
		<path class="st5" d="M116,161l1.1,1.5"/>
		<path class="st5" d="M113.2,179l1.1-1.4"/>
		<path class="st5" d="M116.5,175.6c0.1,0.7,0.2,1.4,0.2,2"/>
		<path class="st5" d="M121.7,181.9l0.3-0.4"/>
		<path class="st5" d="M123.8,171.6l2.3,2.1"/>
		<path class="st5" d="M132.3,158.7c0.5,0.7,1.1,1.3,1.7,1.9"/>
		<path class="st5" d="M135.9,154.6c0,1.4,0.1,2.8,0.1,4.2"/>
		<path class="st5" d="M139.8,155.5c0.9-1.7,1.6-3.5,2.2-5.3"/>
		<path class="st5" d="M144.6,149.1c0,1.6-0.1,3.2-0.4,4.8"/>
		<path class="st5" d="M139.5,157.6l2.7,1.3"/>
		<path class="st5" d="M147.8,157.9l2.5,1.8"/>
		<path class="st5" d="M154.4,160.3c0.6-0.6,1-1.3,1.4-2"/>
		<path class="st5" d="M152.2,164.9c-0.3,1-0.4,2.1-0.2,3.1"/>
		<path class="st5" d="M140.5,171.7c0.7,0.8,1.5,1.6,2.4,2.3"/>
		<path class="st5" d="M149.2,172.8l-0.3-0.5c1,0.6,1.9,1.4,2.6,2.4"/>
		<path class="st5" d="M153.4,175.4c0,0.1,0,0.2,0.1,0.3c0.4-0.7,0.7-1.5,0.8-2.3"/>
		<path class="st5" d="M159,174.5c-1.1,1.3-2.1,2.7-3.1,4.2"/>
		<path class="st5" d="M152.9,181.3l1.2,2.6"/>
		<path class="st5" d="M155,181.1l1.1,1.5"/>
		<path class="st5" d="M147.4,182.3l2.2,2.3"/>
		<path class="st5" d="M152.1,185.3c0,0.5,0.2,1,0.6,1.4"/>
		<path class="st5" d="M139,189c-0.1,0.4-0.2,0.8-0.4,1.2"/>
		<path class="st5" d="M129.5,183.6l1,1.4"/>
		<path class="st5" d="M131.9,182.8l1.2,1.5"/>
		<path class="st5" d="M123.7,185.8l1-1.5"/>
		<path class="st5" d="M129.9,175.7c0.1,1.1,0,2.2-0.3,3.2"/>
		<path class="st5" d="M159.3,167.5c1.2,0.7,2.2,1.6,3,2.7"/>
		<path class="st5" d="M164.7,171.1l0.3-2.1"/>
		<path class="st5" d="M166.9,168.8c-0.1,1-0.3,1.9-0.8,2.8"/>
		<path class="st5" d="M162.1,163.5l1.8-2.5"/>
		<path class="st5" d="M165.3,157.1c0.6,1.1,1.2,2.3,1.8,3.4"/>
		<path class="st5" d="M153.4,140.3c0.6,0.7,1.3,1.4,2.1,1.9"/>
		<path class="st5" d="M159.5,145.5c0.5-0.5,1.1-0.9,1.8-1.1"/>
		<path class="st5" d="M153.6,150.5c-0.1,1-0.2,2-0.4,3"/>
		<path class="st5" d="M139.2,147.4c0.9,0.2,1.9,0.2,2.8-0.1"/>
		<path class="st5" d="M141.1,144.9l1.6,1.1"/>
		<path class="st5" d="M117.3,150.6c1.1,0.7,2.1,1.5,3,2.4"/>
		<path class="st5" d="M119.3,149.4l1.7-1.9"/>
		<path class="st5" d="M124.5,144.6c0.5,1.1,1.2,2.1,2.2,2.8"/>
		<path class="st5" d="M130.4,146.7l3-0.3"/>
		<path class="st5" d="M122.9,156.2c0.2,1.4,0.4,2.7,0.6,4.1"/>
		<path class="st5" d="M127.3,159.6l1.6,0.6"/>
		<path class="st5" d="M111.3,158.4l-0.1-3.3"/>
		<path class="st5" d="M109.8,163.9c0.6-0.6,1.3-1.1,2-1.4"/>
		<path class="st5" d="M137.6,183.1l2.9-2.6"/>
		<path class="st5" d="M144.1,180.4c-0.6,1.6-1.1,3.2-1.7,4.7"/>
		<path class="st5" d="M137.4,164.5c1,0.9,1.8,2,2.6,3.1"/>
		<path class="st5" d="M149.7,169.1c0.8,0.8,1.6,1.5,2.5,2.1"/>
		<path class="st5" d="M135,142.6c0.9,1.3,1.8,2.6,2.8,3.7"/>
		<path class="st5" d="M142.4,142.5c0.7-1.1,1.3-2.2,1.7-3.4"/>
		<path class="st5" d="M140.4,134.6l2.1,3.3"/>
		<path class="st5" d="M147,135.6c0.9,1.5,1.9,2.9,3.1,4.2"/>
		<path class="st5" d="M149,141.3c-0.5,1.6-0.8,3.3-0.9,5"/>
		<path class="st5" d="M138.5,137.7l2,2.1"/>
		<path class="st5" d="M128.8,139.6c0.9,1.5,2.2,2.9,3.6,3.9"/>
		<path class="st5" d="M131.8,138.1c1.5,0.3,3,0.4,4.5,0.4"/>
		<path class="st5" d="M116.6,146.3c0.6-1.4,1.4-2.8,2.4-3.9"/>
		<path class="st5" d="M124.2,142.4l2-1.9"/>
		<path class="st5" d="M127.8,142.4c0.5,0.7,1.1,1.3,1.9,1.7"/>
		<path class="st5" d="M121.2,144.9c1.5,1.2,2.9,2.7,4,4.3"/>
		<path class="st5" d="M126,153.8c0.7-1.2,1.7-2.2,2.9-2.9"/>
		<path class="st5" d="M133.7,149.2l4.1,3"/>
		<path class="st5" d="M149.1,155.1c0.5-1.6,0.8-3.3,1-5"/>
		<path class="st5" d="M145.2,143.2c-0.1,1,0.2,2,0.7,2.9"/>
		<path class="st5" d="M151.1,142.8c0.6,1.4,1.3,2.7,2.3,3.8"/>
		<path class="st5" d="M156.7,153.6c0.9-1.7,2-3.3,3.4-4.6"/>
		<path class="st5" d="M163.2,148.9c-0.1,1.9-0.2,3.9-0.3,5.8"/>
		<path class="st5" d="M156.5,146c1-1.7,2-3.5,2.9-5.2"/>
		<path class="st5" d="M157.4,162.3l3.2-3.8"/>
		<path class="st5" d="M159.2,155.6l3.2,2.1"/>
		<path class="st5" d="M139.5,160.8c0.7,0.5,1.4,0.8,2.2,0.9"/>
		<path class="st5" d="M144.4,159.7c0.5,1.4,0.8,2.9,1,4.4"/>
		<path class="st5" d="M146.3,167.8c0.8-0.8,1.5-1.8,2.1-2.8"/>
		<path class="st5" d="M141.1,164.7l1.7,3.1"/>
		<path class="st5" d="M134.1,164.1c-1.5-0.1-3-0.3-4.4-0.9"/>
		<path class="st5" d="M131.2,168.4c1.3-0.6,2.8-0.9,4.2-0.9"/>
		<path class="st5" d="M134.8,175c0.7-1.1,1.2-2.3,1.6-3.6"/>
		<path class="st5" d="M123.8,166.9c1.8,1.2,3.4,2.7,4.9,4.2"/>
		<path class="st5" d="M127.4,156.4l2.6,0.9"/>
		<path class="st5" d="M130.6,154.9c0.4-1,0.8-2,1.4-2.9"/>
		<path class="st5" d="M116.1,158.4l1.3-2.5"/>
		<path class="st5" d="M114.3,151.3c0.1,2-0.2,4-1,5.9"/>
		<path class="st5" d="M122.4,152.9c0.3-0.6,0.6-1.2,0.8-1.8"/>
		<path class="st5" d="M112.3,168c1.1,0.8,2.3,1.4,3.6,1.8"/>
		<path class="st5" d="M116,166l2.8,2.8"/>
		<path class="st5" d="M120.9,164.6l-0.1,4.9"/>
		<path class="st5" d="M121.6,175.3l0.5-0.5"/>
		<path class="st5" d="M113.4,173.3c1.3-0.3,2.6-0.3,3.9-0.1"/>
		<path class="st5" d="M117.8,182.9l1.7-3.7"/>
		<path class="st5" d="M123.3,177.9c0.7,0.6,1.6,0.9,2.5,1"/>
		<path class="st5" d="M133,191.2l0.7-1.5"/>
		<path class="st5" d="M133,178.4l3,2.6"/>
		<path class="st5" d="M137.9,177.2c1.7,0.7,3.6,0.7,5.2-0.1"/>
		<path class="st5" d="M147.6,179l0.7-1"/>
		<path class="st5" d="M145.6,173c0.4,1.4,1,2.8,1.7,4.1"/>
		<path class="st5" d="M154.9,167.5c0.8,1.1,1.5,2.4,1.9,3.7"/>
		<path class="st5" d="M155.1,164.6l4.3,1.3"/>
		<path class="st5" d="M165.3,164.3c0.7,1.1,1.6,2,2.6,2.6"/>
		<path class="st5" d="M163.1,174.5c-0.6,1.9-1.4,3.8-2.4,5.5"/>
		<path class="st5" d="M147.1,187.8c1.1,0.6,2.1,1.3,3,2.2"/>
		<path class="st6" d="M167.6,163.3c-2.1,2.5-4.1,5.1-6,7.7c-1.8,2.6-3.9,5.1-6.2,7.4c-5,4.6-12.3,6.2-18.9,6.4
			c-3.4,0.1-6.9-0.2-10.2-1.1c-1.4-0.3-2.8-0.8-4.2-1.4c-1-0.6-2-1.3-2.8-2.1c-2.1-1.9-4-4.1-6.1-6c-1.1-1-2.9-2.7-4.7-2.9
			c0.2,1,0.5,1.9,0.8,2.8c2.2,6,6.3,11,11.8,14.3c6.2,3.7,13.3,4.4,20.3,3.9c3.5-0.2,7.3-0.4,10.7-1.6c3.1-1.1,5.7-3.2,7.7-5.8
			c2.1-2.7,3.8-5.7,5.1-8.9c1.5-3.3,2.5-6.8,3-10.3c0.1-1,0.2-2.1,0.2-3.1L167.6,163.3z"/>
		<path class="st4" d="M76.8,47.4c-1.5-2.8-3.5-5.4-5.9-7.6c-2.8-2.5-6.2-3.6-9.8-4.6c-6.8-1.8-14.3-2.5-20.8,0.8
			c-0.6,0.3-1.2,0.6-1.8,1c-0.9,0.4-1.8,0.9-2.6,1.3c-3.1,1.7-5.9,3.9-8.3,6.5c-2.2,2.8-3.9,5.9-5.1,9.2c-2.7,6.4-3,13.6-0.8,20.1
			c2.2,6,6.3,11,11.8,14.3c6.2,3.7,13.3,4.3,20.3,3.9c3.5-0.2,7.3-0.4,10.7-1.6c3.1-1.1,5.7-3.2,7.7-5.8c2.1-2.7,3.8-5.7,5.1-8.9
			c1.5-3.3,2.5-6.8,3-10.3C81.2,59.4,79.9,53,76.8,47.4z"/>
		<path class="st5" d="M31.6,60.6c0.8,0.9,1.7,1.7,2.6,2.4"/>
		<path class="st5" d="M37.6,62.2l0.9,1.8"/>
		<path class="st5" d="M26.4,64c-0.4,0.8-0.8,1.7-1.2,2.5"/>
		<path class="st5" d="M28.5,61c0.4,0.5,0.7,1,1.1,1.5"/>
		<path class="st5" d="M25.8,79l1.1-1.4"/>
		<path class="st5" d="M29.1,75.7c0.1,0.7,0.1,1.4,0.2,2"/>
		<path class="st5" d="M34.2,81.9l0.4-0.4"/>
		<path class="st5" d="M36.3,71.6l2.3,2.1"/>
		<path class="st5" d="M44.8,58.7c0.5,0.7,1.1,1.3,1.7,1.9"/>
		<path class="st5" d="M48.5,54.7l0.1,4.2"/>
		<path class="st5" d="M52.3,55.5c0.9-1.7,1.6-3.5,2.3-5.3"/>
		<path class="st5" d="M57.2,49.1c0,1.6-0.1,3.2-0.4,4.8"/>
		<path class="st5" d="M52,57.6l2.7,1.3"/>
		<path class="st5" d="M60.3,57.9l2.5,1.8"/>
		<path class="st5" d="M66.9,60.4c0.6-0.6,1-1.3,1.4-2"/>
		<path class="st5" d="M64.7,64.9c-0.3,1-0.4,2.1-0.2,3.1"/>
		<path class="st5" d="M53,71.7c0.7,0.8,1.6,1.6,2.5,2.3"/>
		<path class="st5" d="M61.7,72.9l-0.2-0.5c1,0.6,1.9,1.4,2.5,2.4"/>
		<path class="st5" d="M65.9,75.5c0,0.1,0,0.2,0.1,0.3c0.4-0.7,0.7-1.5,0.8-2.3"/>
		<path class="st5" d="M71.5,74.6c-1.1,1.3-2.1,2.7-3,4.2"/>
		<path class="st5" d="M65.4,81.4l1.3,2.6"/>
		<path class="st5" d="M67.5,81.2c0.4,0.5,0.8,1,1.1,1.5"/>
		<path class="st5" d="M59.9,82.4l2.2,2.3"/>
		<path class="st5" d="M64.6,85.3c0,0.5,0.2,1,0.6,1.4"/>
		<path class="st5" d="M51.5,89.1c-0.1,0.4-0.2,0.8-0.3,1.2"/>
		<path class="st5" d="M42,83.6l1,1.4"/>
		<path class="st5" d="M44.4,82.8l1.2,1.5"/>
		<path class="st5" d="M36.2,85.8l1-1.5"/>
		<path class="st5" d="M42.4,75.8c0.1,1.1,0,2.2-0.3,3.2"/>
		<path class="st5" d="M71.8,67.5c1.2,0.7,2.2,1.6,3,2.7"/>
		<path class="st5" d="M77.2,71.1l0.3-2.1"/>
		<path class="st5" d="M79.4,68.8c-0.1,1-0.3,2-0.8,2.8"/>
		<path class="st5" d="M74.6,63.5l1.8-2.5"/>
		<path class="st5" d="M77.8,57.2l1.8,3.4"/>
		<path class="st5" d="M65.9,40.4c0.6,0.7,1.3,1.4,2.1,1.9"/>
		<path class="st5" d="M72.1,45.5c0.5-0.6,1.1-0.9,1.8-1.1"/>
		<path class="st5" d="M66.1,50.5l-0.4,3"/>
		<path class="st5" d="M51.8,47.4c0.9,0.2,1.9,0.2,2.8-0.1"/>
		<path class="st5" d="M53.7,45l1.6,1"/>
		<path class="st5" d="M29.9,50.6c1.1,0.7,2.1,1.5,3,2.4"/>
		<path class="st5" d="M31.9,49.5l1.7-1.9"/>
		<path class="st5" d="M37,44.6c0.5,1.1,1.2,2.1,2.2,2.8"/>
		<path class="st5" d="M43,46.7l3-0.3"/>
		<path class="st5" d="M35.4,56.2c0.2,1.4,0.4,2.7,0.6,4.1"/>
		<path class="st5" d="M39.8,59.6l1.6,0.6"/>
		<path class="st5" d="M23.8,58.4l-0.1-3.3"/>
		<path class="st5" d="M22.4,63.9c0.6-0.6,1.3-1.1,2-1.4"/>
		<path class="st5" d="M50.1,83.2l2.9-2.6"/>
		<path class="st5" d="M56.6,80.4c-0.6,1.6-1.2,3.2-1.7,4.7"/>
		<path class="st5" d="M49.9,64.5c1,0.9,1.8,2,2.6,3.1"/>
		<path class="st5" d="M62.2,69.1c0.8,0.8,1.6,1.5,2.5,2.1"/>
		<path class="st5" d="M47.5,42.6c0.9,1.3,1.8,2.6,2.8,3.7"/>
		<path class="st5" d="M55,42.5c0.7-1.1,1.3-2.2,1.7-3.4"/>
		<path class="st5" d="M53,34.7c0.7,1.1,1.4,2.2,2.1,3.3"/>
		<path class="st5" d="M59.5,35.6c0.9,1.5,1.9,2.9,3.1,4.2"/>
		<path class="st5" d="M61.5,41.3c-0.5,1.6-0.8,3.3-0.9,5"/>
		<path class="st5" d="M51,37.7l2,2.1"/>
		<path class="st5" d="M41.4,39.6c0.9,1.5,2.2,2.9,3.6,3.9"/>
		<path class="st5" d="M44.3,38.1c1.5,0.3,3,0.4,4.5,0.4"/>
		<path class="st5" d="M29.1,46.4c0.6-1.4,1.4-2.8,2.5-3.9"/>
		<path class="st5" d="M36.8,42.4l2-1.9"/>
		<path class="st5" d="M40.3,42.4c0.5,0.7,1.1,1.3,1.9,1.7"/>
		<path class="st5" d="M33.7,44.9c1.5,1.2,2.8,2.7,4,4.3"/>
		<path class="st5" d="M38.5,53.8c0.7-1.2,1.7-2.2,2.9-2.9"/>
		<path class="st5" d="M46.3,49.3l4.1,3"/>
		<path class="st5" d="M61.7,55.1c0.5-1.6,0.8-3.3,1-5"/>
		<path class="st5" d="M57.7,43.3c-0.1,1,0.2,2,0.7,2.9"/>
		<path class="st5" d="M63.7,42.8c0.6,1.4,1.3,2.7,2.3,3.8"/>
		<path class="st5" d="M69.2,53.6c0.9-1.7,2-3.3,3.4-4.6"/>
		<path class="st5" d="M75.8,48.9c-0.1,1.9-0.2,3.9-0.3,5.8"/>
		<path class="st5" d="M69,46.1c1-1.7,2-3.5,2.9-5.2"/>
		<path class="st5" d="M69.9,62.3l3.2-3.8"/>
		<path class="st5" d="M71.8,55.6l3.2,2.1"/>
		<path class="st5" d="M52,60.8c0.7,0.5,1.4,0.8,2.2,1"/>
		<path class="st5" d="M57,59.7c0.4,1.4,0.8,2.9,1,4.4"/>
		<path class="st5" d="M58.8,67.8c0.8-0.8,1.5-1.8,2.1-2.8"/>
		<path class="st5" d="M53.6,64.8l1.7,3.1"/>
		<path class="st5" d="M46.6,64.2c-1.5,0-3-0.3-4.4-0.8"/>
		<path class="st5" d="M43.7,68.4c1.3-0.5,2.8-0.8,4.2-0.9"/>
		<path class="st5" d="M47.3,75c0.7-1.1,1.2-2.3,1.6-3.6"/>
		<path class="st5" d="M36.4,66.9c1.8,1.2,3.4,2.7,4.9,4.2"/>
		<path class="st5" d="M40,56.4l2.6,0.9"/>
		<path class="st5" d="M43.1,54.9c0.3-1,0.8-2,1.4-2.9"/>
		<path class="st5" d="M28.6,58.4l1.3-2.5"/>
		<path class="st5" d="M26.8,51.3c0.1,2-0.2,4-1,5.9"/>
		<path class="st5" d="M35,53l0.8-1.8"/>
		<path class="st5" d="M24.8,68c1.1,0.8,2.3,1.4,3.6,1.8"/>
		<path class="st5" d="M28.5,66.1l2.9,2.8"/>
		<path class="st5" d="M33.4,64.6c0,1.6,0,3.3-0.1,4.9"/>
		<path class="st5" d="M34.1,75.3l0.5-0.5"/>
		<path class="st5" d="M25.9,73.3c1.3-0.3,2.6-0.3,3.9-0.1"/>
		<path class="st5" d="M30.4,82.9l1.7-3.7"/>
		<path class="st5" d="M35.8,78c0.7,0.6,1.5,0.9,2.5,1"/>
		<path class="st5" d="M45.5,91.3l0.7-1.5"/>
		<path class="st5" d="M45.5,78.4l3,2.6"/>
		<path class="st5" d="M50.4,77.2c1.7,0.7,3.6,0.7,5.3-0.1"/>
		<path class="st5" d="M60.2,79.1l0.7-1"/>
		<path class="st5" d="M58.1,73c0.4,1.4,1,2.8,1.7,4.1"/>
		<path class="st5" d="M67.4,67.6c0.8,1.1,1.5,2.4,1.9,3.7"/>
		<path class="st5" d="M67.6,64.6l4.3,1.3"/>
		<path class="st5" d="M77.8,64.4c0.7,1.1,1.6,2,2.6,2.6"/>
		<path class="st5" d="M75.6,74.6c-0.6,1.9-1.4,3.7-2.4,5.4"/>
		<path class="st5" d="M59.6,87.8c1.1,0.6,2.1,1.3,3,2.2"/>
		<path class="st6" d="M80.1,63.3C78,65.8,76,68.4,74,71c-1.8,2.6-3.9,5.1-6.2,7.4c-5,4.6-12.3,6.2-18.9,6.4
			c-3.4,0.1-6.9-0.2-10.2-1c-1.4-0.3-2.8-0.8-4.2-1.4c-1-0.6-2-1.3-2.8-2.1c-2.1-1.9-4-4.1-6.1-6c-1.1-1-2.9-2.7-4.6-2.9
			c0.2,1,0.5,1.9,0.8,2.8c2.2,6,6.4,11,11.8,14.3c6.2,3.7,13.3,4.3,20.3,3.9c3.5-0.2,7.3-0.4,10.7-1.6c3.1-1.1,5.7-3.2,7.7-5.8
			c2.1-2.7,3.8-5.7,5.1-8.9c1.5-3.3,2.5-6.8,3-10.3c0.1-1,0.2-2.1,0.2-3.1L80.1,63.3z"/>
		<path class="st4" d="M120.4,107.2c-1.5-2.8-3.5-5.4-5.9-7.6c-2.8-2.6-6.2-3.6-9.8-4.6c-6.8-1.8-14.3-2.5-20.8,0.8
			c-0.6,0.3-1.2,0.6-1.8,1c-0.9,0.4-1.8,0.9-2.6,1.3c-3.1,1.7-5.9,3.9-8.3,6.6c-2.2,2.8-3.9,5.9-5.1,9.3c-2.7,6.4-3,13.6-0.7,20.1
			c2.2,6,6.3,11,11.8,14.3c6.2,3.7,13.3,4.4,20.3,3.9c3.5-0.2,7.3-0.4,10.7-1.6c3.1-1.1,5.7-3.1,7.7-5.8c2.1-2.7,3.8-5.7,5.1-8.9
			c1.5-3.3,2.5-6.8,3-10.3C124.8,119.3,123.6,112.9,120.4,107.2z"/>
		<path class="st5" d="M75.2,120.5c0.8,0.8,1.7,1.6,2.6,2.4"/>
		<path class="st5" d="M81.3,122.1c0.3,0.6,0.6,1.2,0.9,1.8"/>
		<path class="st5" d="M70,123.8l-1.2,2.5"/>
		<path class="st5" d="M72.2,120.9c0.3,0.5,0.7,1,1.1,1.6"/>
		<path class="st5" d="M69.4,138.9l1.1-1.4"/>
		<path class="st5" d="M72.7,135.6c0.1,0.7,0.2,1.4,0.2,2"/>
		<path class="st5" d="M77.9,141.8l0.4-0.4"/>
		<path class="st5" d="M80,131.5l2.3,2.1"/>
		<path class="st5" d="M88.5,118.6c0.5,0.7,1.1,1.3,1.7,1.9"/>
		<path class="st5" d="M92.1,114.6l0.1,4.2"/>
		<path class="st5" d="M96,115.4c0.9-1.7,1.6-3.5,2.3-5.3"/>
		<path class="st5" d="M100.8,109c0,1.6-0.1,3.2-0.4,4.8"/>
		<path class="st5" d="M95.7,117.5l2.7,1.3"/>
		<path class="st5" d="M104,117.8l2.5,1.8"/>
		<path class="st5" d="M110.6,120.2c0.6-0.6,1-1.3,1.4-2"/>
		<path class="st5" d="M108.4,124.8c-0.3,1-0.4,2.1-0.2,3.1"/>
		<path class="st5" d="M96.7,131.6c0.7,0.8,1.5,1.6,2.4,2.3"/>
		<path class="st5" d="M105.4,132.7c-0.1-0.2-0.2-0.3-0.3-0.5c1,0.6,1.9,1.4,2.6,2.4"/>
		<path class="st5" d="M109.6,135.4c0,0.1,0,0.2,0.1,0.3c0.4-0.7,0.7-1.5,0.8-2.3"/>
		<path class="st5" d="M115.2,134.4c-1.1,1.3-2.1,2.7-3,4.2"/>
		<path class="st5" d="M109.1,141.2l1.3,2.6"/>
		<path class="st5" d="M111.2,141l1.1,1.5"/>
		<path class="st5" d="M103.6,142.2c0.7,0.8,1.5,1.5,2.2,2.3"/>
		<path class="st5" d="M108.3,145.2c0,0.5,0.2,1,0.6,1.4"/>
		<path class="st5" d="M95.2,148.9c-0.1,0.4-0.2,0.8-0.3,1.2"/>
		<path class="st5" d="M85.7,143.5l1,1.4"/>
		<path class="st5" d="M88.1,142.7l1.2,1.5"/>
		<path class="st5" d="M79.9,145.7l1-1.5"/>
		<path class="st5" d="M86.1,135.6c0.1,1.1,0,2.2-0.3,3.2"/>
		<path class="st5" d="M115.5,127.4c1.2,0.7,2.2,1.6,3,2.7"/>
		<path class="st5" d="M120.9,131l0.3-2.1"/>
		<path class="st5" d="M123.1,128.6c-0.1,1-0.4,1.9-0.8,2.8"/>
		<path class="st5" d="M118.3,123.4l1.7-2.5"/>
		<path class="st5" d="M121.5,117l1.8,3.4"/>
		<path class="st5" d="M109.6,100.2c0.6,0.7,1.3,1.4,2.1,1.9"/>
		<path class="st5" d="M115.7,105.4c0.5-0.6,1.1-0.9,1.8-1.1"/>
		<path class="st5" d="M109.8,110.4l-0.4,3"/>
		<path class="st5" d="M95.4,107.3c0.9,0.2,1.9,0.2,2.8-0.1"/>
		<path class="st5" d="M97.3,104.8l1.6,1"/>
		<path class="st5" d="M73.5,110.5c1.1,0.7,2.1,1.5,3,2.4"/>
		<path class="st5" d="M75.5,109.3l1.7-1.9"/>
		<path class="st5" d="M80.7,104.5c0.5,1.1,1.3,2.1,2.3,2.8"/>
		<path class="st5" d="M86.6,106.6l3-0.3"/>
		<path class="st5" d="M79.1,116.1c0.2,1.4,0.4,2.7,0.6,4.1"/>
		<path class="st5" d="M83.5,119.5l1.6,0.6"/>
		<path class="st5" d="M67.4,118.3l-0.1-3.3"/>
		<path class="st5" d="M66.1,123.8c0.6-0.6,1.3-1.1,2-1.4"/>
		<path class="st5" d="M93.8,143l2.9-2.6"/>
		<path class="st5" d="M100.3,140.3c-0.6,1.6-1.2,3.1-1.7,4.7"/>
		<path class="st5" d="M93.6,124.4c1,0.9,1.8,2,2.6,3.1"/>
		<path class="st5" d="M105.9,129c0.8,0.8,1.6,1.5,2.5,2.1"/>
		<path class="st5" d="M91.2,102.5c0.9,1.3,1.8,2.6,2.8,3.7"/>
		<path class="st5" d="M98.6,102.4c0.7-1.1,1.3-2.2,1.7-3.4"/>
		<path class="st5" d="M96.6,94.6c0.7,1.1,1.4,2.2,2.1,3.3"/>
		<path class="st5" d="M103.2,95.5c0.9,1.5,1.9,2.9,3.1,4.2"/>
		<path class="st5" d="M105.2,101.2c-0.5,1.6-0.8,3.3-0.9,5"/>
		<path class="st5" d="M94.7,97.6l2,2.1"/>
		<path class="st5" d="M85,99.5c0.9,1.5,2.2,2.8,3.6,3.9"/>
		<path class="st5" d="M88,98c1.5,0.3,3,0.4,4.5,0.4"/>
		<path class="st5" d="M72.8,106.2c0.6-1.4,1.4-2.8,2.5-3.9"/>
		<path class="st5" d="M80.4,102.3l2-1.9"/>
		<path class="st5" d="M84,102.3c0.5,0.7,1.1,1.3,1.9,1.7"/>
		<path class="st5" d="M77.4,104.8c1.5,1.2,2.8,2.7,3.9,4.3"/>
		<path class="st5" d="M82.2,113.7c0.7-1.2,1.7-2.2,2.9-2.9"/>
		<path class="st5" d="M89.9,109.1l4.1,3"/>
		<path class="st5" d="M105.3,115c0.5-1.6,0.8-3.3,1-5"/>
		<path class="st5" d="M101.4,103.2c-0.1,1,0.2,2,0.7,2.9"/>
		<path class="st5" d="M107.3,102.7c0.6,1.4,1.3,2.7,2.3,3.8"/>
		<path class="st5" d="M112.9,113.5c0.9-1.7,2-3.3,3.4-4.6"/>
		<path class="st5" d="M119.4,108.8c-0.1,2-0.2,3.9-0.3,5.8"/>
		<path class="st5" d="M112.7,105.9l2.9-5.2"/>
		<path class="st5" d="M113.6,122.2l3.2-3.8"/>
		<path class="st5" d="M115.4,115.5l3.2,2.1"/>
		<path class="st5" d="M95.7,120.7c0.7,0.5,1.4,0.9,2.3,1"/>
		<path class="st5" d="M100.6,119.6c0.5,1.4,0.8,2.9,1,4.4"/>
		<path class="st5" d="M102.5,127.7c0.8-0.8,1.5-1.8,2.1-2.8"/>
		<path class="st5" d="M97.3,124.6l1.7,3.1"/>
		<path class="st5" d="M90.3,124c-1.5,0-3-0.3-4.4-0.8"/>
		<path class="st5" d="M87.4,128.3c1.3-0.6,2.8-0.9,4.2-0.9"/>
		<path class="st5" d="M91,134.9c0.6-1.1,1.2-2.3,1.6-3.6"/>
		<path class="st5" d="M80,126.8c1.8,1.3,3.4,2.7,4.9,4.2"/>
		<path class="st5" d="M83.6,116.3l2.6,0.9"/>
		<path class="st5" d="M86.8,114.8c0.3-1,0.8-2,1.4-2.9"/>
		<path class="st5" d="M72.3,118.3c0.4-0.8,0.9-1.6,1.3-2.5"/>
		<path class="st5" d="M70.5,111.2c0.1,2-0.2,4-1,5.9"/>
		<path class="st5" d="M78.7,112.8l0.8-1.8"/>
		<path class="st5" d="M68.5,127.9c1.1,0.8,2.3,1.4,3.6,1.8"/>
		<path class="st5" d="M72.2,125.9l2.8,2.8"/>
		<path class="st5" d="M77.1,124.5c0,1.6,0,3.3-0.1,4.9"/>
		<path class="st5" d="M77.8,135.2l0.5-0.5"/>
		<path class="st5" d="M69.6,133.2c1.3-0.3,2.6-0.3,3.8-0.1"/>
		<path class="st5" d="M74,142.8l1.7-3.7"/>
		<path class="st5" d="M79.5,137.8c0.7,0.6,1.6,0.9,2.5,1"/>
		<path class="st5" d="M89.1,151.1l0.7-1.5"/>
		<path class="st5" d="M89.2,138.3c1,0.9,2,1.8,3,2.6"/>
		<path class="st5" d="M94.1,137.1c1.7,0.7,3.6,0.7,5.3-0.1"/>
		<path class="st5" d="M103.8,138.9l0.7-1"/>
		<path class="st5" d="M101.8,132.9c0.4,1.4,1,2.8,1.7,4.1"/>
		<path class="st5" d="M111.1,127.4c0.8,1.1,1.5,2.4,1.9,3.7"/>
		<path class="st5" d="M111.2,124.5l4.3,1.3"/>
		<path class="st5" d="M121.4,124.2c0.7,1.1,1.6,2,2.6,2.6"/>
		<path class="st5" d="M119.3,134.4c-0.6,1.9-1.4,3.7-2.4,5.5"/>
		<path class="st5" d="M103.3,147.7c1.1,0.6,2.1,1.3,3,2.2"/>
		<path class="st6" d="M123.8,123.2c-2.1,2.5-4.1,5.1-6,7.7c-1.8,2.6-3.9,5.1-6.2,7.4c-5,4.6-12.3,6.2-18.9,6.4
			c-3.4,0.1-6.9-0.2-10.2-1.1c-1.4-0.3-2.8-0.8-4.2-1.4c-1-0.6-2-1.3-2.8-2.1c-2.1-1.9-4-4.1-6.1-6c-1.1-1-2.9-2.7-4.7-2.9
			c0.2,1,0.5,1.9,0.8,2.8c2.2,6,6.3,11,11.8,14.3c6.2,3.7,13.3,4.4,20.3,3.9c3.5-0.2,7.3-0.4,10.7-1.6c3.1-1.1,5.7-3.1,7.7-5.8
			c2.1-2.7,3.8-5.7,5.1-8.9c1.5-3.3,2.5-6.8,3-10.3c0.1-1,0.2-2.1,0.2-3.1L123.8,123.2z"/>
		<path class="st4" d="M158.4,49c-1.5-2.8-3.5-5.4-5.9-7.6c-2.8-2.5-6.1-3.6-9.8-4.6c-6.8-1.8-14.3-2.5-20.8,0.8
			c-0.6,0.3-1.2,0.6-1.8,1c-0.9,0.4-1.8,0.9-2.6,1.4c-3.1,1.7-5.9,3.9-8.3,6.5c-2.2,2.8-3.9,5.9-5.1,9.2c-2.7,6.4-3,13.6-0.8,20.1
			c2.2,6,6.3,11,11.8,14.3c6.2,3.7,13.3,4.3,20.3,3.9c3.5-0.2,7.3-0.4,10.7-1.6c3.1-1.1,5.7-3.2,7.7-5.8c2.1-2.7,3.8-5.7,5.1-8.9
			c1.5-3.3,2.5-6.8,3-10.3C162.8,61.1,161.6,54.6,158.4,49z"/>
		<path class="st5" d="M113.2,62.3c0.8,0.8,1.7,1.6,2.6,2.4"/>
		<path class="st5" d="M119.3,63.9l0.9,1.8"/>
		<path class="st5" d="M108,65.7c-0.4,0.8-0.8,1.7-1.2,2.5"/>
		<path class="st5" d="M110.2,62.7c0.3,0.5,0.7,1,1.1,1.5"/>
		<path class="st5" d="M107.4,80.7l1.1-1.4"/>
		<path class="st5" d="M110.7,77.4c0.1,0.7,0.2,1.4,0.2,2"/>
		<path class="st5" d="M115.9,83.6l0.4-0.4"/>
		<path class="st5" d="M118,73.3l2.3,2.1"/>
		<path class="st5" d="M126.5,60.4c0.5,0.7,1.1,1.3,1.7,1.9"/>
		<path class="st5" d="M130.1,56.4l0.1,4.2"/>
		<path class="st5" d="M134,57.2c0.9-1.7,1.6-3.5,2.3-5.3"/>
		<path class="st5" d="M138.8,50.8c0,1.6-0.1,3.2-0.4,4.8"/>
		<path class="st5" d="M133.7,59.3l2.7,1.3"/>
		<path class="st5" d="M142,59.6l2.5,1.8"/>
		<path class="st5" d="M148.6,62c0.6-0.6,1-1.3,1.4-2"/>
		<path class="st5" d="M146.4,66.6c-0.3,1-0.4,2.1-0.2,3.1"/>
		<path class="st5" d="M134.7,73.4c0.7,0.8,1.5,1.6,2.4,2.3"/>
		<path class="st5" d="M143.4,74.5l-0.2-0.5c1,0.6,1.9,1.4,2.6,2.4"/>
		<path class="st5" d="M147.6,77.2c0,0.1,0,0.2,0.1,0.3c0.4-0.7,0.7-1.5,0.8-2.3"/>
		<path class="st5" d="M153.2,76.2c-1.1,1.3-2.1,2.7-3,4.2"/>
		<path class="st5" d="M147.1,83l1.3,2.6"/>
		<path class="st5" d="M149.2,82.8l1.1,1.5"/>
		<path class="st5" d="M141.6,84.1l2.2,2.3"/>
		<path class="st5" d="M146.3,87c0,0.5,0.2,1,0.6,1.4"/>
		<path class="st5" d="M133.2,90.7c-0.1,0.4-0.2,0.8-0.4,1.2"/>
		<path class="st5" d="M123.7,85.3c0.3,0.5,0.7,1,1,1.4"/>
		<path class="st5" d="M126.1,84.5l1.2,1.5"/>
		<path class="st5" d="M117.9,87.5l1-1.5"/>
		<path class="st5" d="M124.1,77.4c0.1,1.1,0,2.2-0.3,3.2"/>
		<path class="st5" d="M153.5,69.2c1.2,0.7,2.2,1.6,3,2.7"/>
		<path class="st5" d="M158.9,72.8l0.3-2.1"/>
		<path class="st5" d="M161.1,70.4c-0.1,1-0.3,2-0.8,2.8"/>
		<path class="st5" d="M156.3,65.2c0.6-0.8,1.2-1.7,1.8-2.5"/>
		<path class="st5" d="M159.5,58.8l1.8,3.4"/>
		<path class="st5" d="M147.6,42c0.6,0.7,1.3,1.4,2.1,1.9"/>
		<path class="st5" d="M153.7,47.2c0.5-0.6,1.1-0.9,1.8-1.1"/>
		<path class="st5" d="M147.8,52.2c-0.1,1-0.2,2-0.4,3"/>
		<path class="st5" d="M133.4,49.1c0.9,0.2,1.9,0.2,2.8-0.1"/>
		<path class="st5" d="M135.4,46.6l1.6,1"/>
		<path class="st5" d="M111.5,52.3c1.1,0.7,2.1,1.5,3,2.4"/>
		<path class="st5" d="M113.6,51.1l1.7-1.9"/>
		<path class="st5" d="M118.7,46.3c0.5,1.1,1.3,2,2.3,2.7"/>
		<path class="st5" d="M124.6,48.4l3-0.3"/>
		<path class="st5" d="M117.1,57.9c0.2,1.4,0.4,2.7,0.6,4.1"/>
		<path class="st5" d="M121.5,61.3l1.6,0.6"/>
		<path class="st5" d="M105.5,60.1l-0.1-3.3"/>
		<path class="st5" d="M104.1,65.6c0.6-0.6,1.3-1.1,2-1.4"/>
		<path class="st5" d="M131.8,84.8l2.9-2.6"/>
		<path class="st5" d="M138.3,82.1c-0.6,1.6-1.1,3.2-1.7,4.7"/>
		<path class="st5" d="M131.6,66.2c1,0.9,1.8,2,2.6,3.1"/>
		<path class="st5" d="M143.9,70.8c0.8,0.8,1.6,1.5,2.5,2.1"/>
		<path class="st5" d="M129.2,44.3c0.9,1.3,1.8,2.6,2.8,3.7"/>
		<path class="st5" d="M136.6,44.2c0.7-1.1,1.3-2.2,1.7-3.4"/>
		<path class="st5" d="M134.6,36.3l2.1,3.3"/>
		<path class="st5" d="M141.2,37.3c0.9,1.5,1.9,2.9,3.1,4.2"/>
		<path class="st5" d="M143.2,43c-0.5,1.6-0.8,3.3-0.9,5"/>
		<path class="st5" d="M132.7,39.4l2,2.1"/>
		<path class="st5" d="M123.1,41.3c0.9,1.5,2.2,2.9,3.6,3.9"/>
		<path class="st5" d="M126,39.8c1.5,0.3,3,0.4,4.4,0.4"/>
		<path class="st5" d="M110.8,48c0.6-1.4,1.4-2.8,2.5-3.9"/>
		<path class="st5" d="M118.4,44.1l2-1.9"/>
		<path class="st5" d="M122,44.1c0.5,0.7,1.1,1.3,1.9,1.7"/>
		<path class="st5" d="M115.4,46.6c1.5,1.2,2.9,2.7,4,4.3"/>
		<path class="st5" d="M120.2,55.5c0.7-1.2,1.7-2.2,2.9-2.9"/>
		<path class="st5" d="M127.9,50.9l4.1,3"/>
		<path class="st5" d="M143.3,56.8c0.5-1.6,0.8-3.3,1-5"/>
		<path class="st5" d="M139.4,44.9c-0.1,1,0.2,2,0.7,2.9"/>
		<path class="st5" d="M145.4,44.5c0.6,1.4,1.3,2.7,2.3,3.8"/>
		<path class="st5" d="M150.9,55.3c0.9-1.7,2-3.3,3.4-4.6"/>
		<path class="st5" d="M157.4,50.5c-0.1,2-0.2,3.9-0.3,5.8"/>
		<path class="st5" d="M150.7,47.7c1-1.7,2-3.5,2.9-5.2"/>
		<path class="st5" d="M151.6,64l3.2-3.8"/>
		<path class="st5" d="M153.4,57.3l3.2,2.1"/>
		<path class="st5" d="M133.7,62.5c0.6,0.5,1.4,0.9,2.2,1"/>
		<path class="st5" d="M138.6,61.4c0.5,1.4,0.8,2.9,1,4.4"/>
		<path class="st5" d="M140.5,69.5c0.8-0.8,1.5-1.8,2.1-2.8"/>
		<path class="st5" d="M135.3,66.4l1.7,3.1"/>
		<path class="st5" d="M128.3,65.8c-1.5,0-3-0.3-4.4-0.8"/>
		<path class="st5" d="M125.4,70.1c1.3-0.6,2.8-0.9,4.2-0.9"/>
		<path class="st5" d="M129,76.7c0.7-1.1,1.2-2.3,1.6-3.6"/>
		<path class="st5" d="M118,68.6c1.8,1.2,3.4,2.7,4.9,4.2"/>
		<path class="st5" d="M121.7,58.1l2.6,0.9"/>
		<path class="st5" d="M124.8,56.5c0.3-1,0.8-2,1.4-2.9"/>
		<path class="st5" d="M110.3,60.1l1.3-2.5"/>
		<path class="st5" d="M108.5,53c0.1,2-0.2,4-1,5.9"/>
		<path class="st5" d="M116.7,54.6l0.8-1.8"/>
		<path class="st5" d="M106.5,69.7c1.1,0.8,2.3,1.4,3.6,1.8"/>
		<path class="st5" d="M110.2,67.7l2.8,2.8"/>
		<path class="st5" d="M115.1,66.3l-0.1,4.9"/>
		<path class="st5" d="M115.8,77l0.5-0.5"/>
		<path class="st5" d="M107.6,75c1.3-0.3,2.6-0.3,3.9-0.1"/>
		<path class="st5" d="M112.1,84.6l1.7-3.7"/>
		<path class="st5" d="M117.5,79.6c0.7,0.6,1.5,0.9,2.4,1"/>
		<path class="st5" d="M127.2,92.9l0.7-1.5"/>
		<path class="st5" d="M127.2,80.1l3,2.6"/>
		<path class="st5" d="M132.1,78.9c1.7,0.7,3.6,0.7,5.3-0.1"/>
		<path class="st5" d="M141.8,80.7l0.7-1"/>
		<path class="st5" d="M139.8,74.7c0.4,1.4,1,2.8,1.7,4.1"/>
		<path class="st5" d="M149.1,69.2c0.8,1.1,1.5,2.4,1.9,3.8"/>
		<path class="st5" d="M149.3,66.3l4.3,1.3"/>
		<path class="st5" d="M159.5,66.1c0.7,1.1,1.6,2,2.6,2.6"/>
		<path class="st5" d="M157.3,76.2c-0.6,1.9-1.4,3.7-2.4,5.5"/>
		<path class="st5" d="M141.3,89.5c1.1,0.6,2.1,1.3,3,2.2"/>
		<path class="st6" d="M161.8,65c-2.1,2.5-4.1,5.1-6,7.7c-1.8,2.6-3.9,5.1-6.2,7.4c-5,4.6-12.3,6.2-18.9,6.4
			c-3.4,0.1-6.9-0.2-10.2-1.1c-1.4-0.3-2.9-0.8-4.2-1.5c-1-0.5-1.9-1.2-2.8-2c-2.1-1.9-4-4.1-6.1-6c-1.1-1-2.9-2.7-4.7-2.9
			c0.2,1,0.5,1.9,0.8,2.8c2.2,6,6.3,11,11.8,14.3c6.2,3.7,13.3,4.3,20.3,3.9c3.5-0.2,7.3-0.4,10.7-1.6c3.1-1.1,5.7-3.2,7.7-5.8
			c2.1-2.7,3.8-5.7,5.1-8.9c1.5-3.3,2.5-6.8,3-10.3c0.1-1,0.2-2.1,0.2-3.1L161.8,65z"/>
		<path class="st7" d="M116.1,149.9c-1.5-2.8-3.5-5.4-5.9-7.6c-2.8-2.5-6.2-3.6-9.8-4.6c-6.8-1.8-14.3-2.5-20.8,0.8
			c-0.6,0.3-1.2,0.6-1.7,1c-0.9,0.4-1.8,0.9-2.6,1.4c-3.1,1.7-5.9,3.9-8.3,6.6c-2.1,2.8-3.8,5.9-5,9.2c-2.7,6.4-3,13.6-0.7,20.1
			c2.2,6,6.3,11,11.7,14.3c6.2,3.7,13.3,4.4,20.3,3.9c3.5-0.2,7.3-0.4,10.7-1.6c3.1-1.1,5.7-3.1,7.7-5.8c2.1-2.7,3.8-5.7,5.1-8.9
			c1.5-3.3,2.5-6.8,3-10.3C120.5,162,119.2,155.5,116.1,149.9z"/>
		<path class="st5" d="M70.9,163.1c0.8,0.8,1.7,1.6,2.6,2.4"/>
		<path class="st5" d="M77,164.8l0.9,1.8"/>
		<path class="st5" d="M65.7,166.5c-0.4,0.8-0.8,1.6-1.2,2.5"/>
		<path class="st5" d="M67.8,163.6l1.1,1.5"/>
		<path class="st5" d="M65.1,181.5l1.1-1.4"/>
		<path class="st5" d="M68.4,178.2c0.1,0.7,0.2,1.4,0.2,2"/>
		<path class="st5" d="M73.6,184.4l0.3-0.4"/>
		<path class="st5" d="M75.7,174.1l2.3,2.1"/>
		<path class="st5" d="M84.2,161.2c0.5,0.7,1.1,1.3,1.7,1.9"/>
		<path class="st5" d="M87.8,157.2c0,1.4,0.1,2.8,0.1,4.2"/>
		<path class="st5" d="M91.7,158.1c0.9-1.7,1.7-3.5,2.3-5.3"/>
		<path class="st5" d="M96.5,151.6c0,1.6-0.1,3.2-0.4,4.8"/>
		<path class="st5" d="M91.4,160.1l2.7,1.3"/>
		<path class="st5" d="M99.6,160.4l2.5,1.8"/>
		<path class="st5" d="M106.2,162.9c0.6-0.6,1-1.3,1.4-2"/>
		<path class="st5" d="M104.1,167.4c-0.3,1-0.4,2.1-0.2,3.1"/>
		<path class="st5" d="M92.4,174.2c0.7,0.8,1.5,1.6,2.4,2.3"/>
		<path class="st5" d="M101.1,175.4l-0.3-0.5c1,0.6,1.9,1.4,2.6,2.4"/>
		<path class="st5" d="M105.3,178c0,0.1,0,0.2,0.1,0.3c0.4-0.7,0.7-1.5,0.8-2.3"/>
		<path class="st5" d="M110.9,177.1c-1.1,1.3-2.1,2.7-3.1,4.2"/>
		<path class="st5" d="M104.8,183.9l1.2,2.6"/>
		<path class="st5" d="M106.9,183.7l1.1,1.5"/>
		<path class="st5" d="M99.3,184.9l2.2,2.3"/>
		<path class="st5" d="M104,187.9c0,0.5,0.2,1,0.6,1.4"/>
		<path class="st5" d="M90.9,191.6c-0.1,0.4-0.2,0.8-0.3,1.2"/>
		<path class="st5" d="M81.3,186.2l1,1.4"/>
		<path class="st5" d="M83.8,185.3l1.2,1.5"/>
		<path class="st5" d="M75.6,188.4l1-1.5"/>
		<path class="st5" d="M81.8,178.3c0.1,1.1,0,2.2-0.3,3.2"/>
		<path class="st5" d="M111.2,170.1c1.2,0.7,2.2,1.6,3,2.7"/>
		<path class="st5" d="M116.6,173.6l0.3-2.1"/>
		<path class="st5" d="M118.7,171.3c-0.1,1-0.4,2-0.8,2.8"/>
		<path class="st5" d="M114,166l1.7-2.5"/>
		<path class="st5" d="M117.2,159.7c0.6,1.1,1.2,2.2,1.8,3.4"/>
		<path class="st5" d="M105.2,142.9c0.6,0.7,1.2,1.4,2,1.9"/>
		<path class="st5" d="M111.4,148.1c0.5-0.6,1.1-0.9,1.8-1.1"/>
		<path class="st5" d="M105.5,153.1c-0.1,1-0.2,2-0.4,3"/>
		<path class="st5" d="M91.1,149.9c0.9,0.2,1.9,0.2,2.8-0.1"/>
		<path class="st5" d="M93,147.5c0.5,0.4,1,0.7,1.6,1.1"/>
		<path class="st5" d="M69.2,153.1c1.1,0.7,2.1,1.5,3,2.4"/>
		<path class="st5" d="M71.2,152l1.8-1.9"/>
		<path class="st5" d="M76.4,147.1c0.5,1.1,1.2,2.1,2.2,2.8"/>
		<path class="st5" d="M82.3,149.2l3-0.3"/>
		<path class="st5" d="M74.8,158.7c0.2,1.4,0.4,2.7,0.6,4.1"/>
		<path class="st5" d="M79.2,162.1l1.6,0.6"/>
		<path class="st5" d="M63.2,160.9l-0.1-3.3"/>
		<path class="st5" d="M61.8,166.4c0.6-0.6,1.3-1.1,2-1.4"/>
		<path class="st5" d="M89.5,185.7l2.9-2.6"/>
		<path class="st5" d="M96,182.9c-0.6,1.6-1.1,3.1-1.7,4.7"/>
		<path class="st5" d="M89.3,167.1c1,0.9,1.8,2,2.6,3.1"/>
		<path class="st5" d="M101.6,171.6c0.8,0.8,1.6,1.5,2.5,2.1"/>
		<path class="st5" d="M86.9,145.1c0.9,1.3,1.8,2.5,2.8,3.7"/>
		<path class="st5" d="M94.3,145c0.7-1.1,1.3-2.2,1.7-3.4"/>
		<path class="st5" d="M92.3,137.2l2.1,3.3"/>
		<path class="st5" d="M98.9,138.2c0.9,1.5,1.9,2.9,3.1,4.2"/>
		<path class="st5" d="M100.8,143.8c-0.5,1.6-0.8,3.3-0.9,5"/>
		<path class="st5" d="M90.4,140.2l2,2.1"/>
		<path class="st5" d="M80.7,142.1c0.9,1.5,2.2,2.8,3.6,3.9"/>
		<path class="st5" d="M83.7,140.6c1.5,0.3,3,0.4,4.5,0.4"/>
		<path class="st5" d="M68.5,148.9c0.6-1.4,1.4-2.8,2.5-3.9"/>
		<path class="st5" d="M76.1,145l2-1.9"/>
		<path class="st5" d="M79.7,145c0.5,0.7,1.1,1.3,1.9,1.7"/>
		<path class="st5" d="M73.1,147.4c1.5,1.2,2.9,2.7,4,4.3"/>
		<path class="st5" d="M77.9,156.3c0.7-1.2,1.7-2.2,2.8-2.9"/>
		<path class="st5" d="M85.6,151.8l4.1,3"/>
		<path class="st5" d="M101,157.7c0.5-1.6,0.8-3.3,1-5"/>
		<path class="st5" d="M97.1,145.8c-0.1,1,0.2,2,0.7,2.9"/>
		<path class="st5" d="M103,145.3c0.6,1.4,1.4,2.7,2.3,3.8"/>
		<path class="st5" d="M108.6,156.1c0.9-1.7,2-3.3,3.4-4.6"/>
		<path class="st5" d="M115.1,151.4c-0.1,1.9-0.2,3.9-0.3,5.8"/>
		<path class="st5" d="M108.4,148.6c1-1.7,1.9-3.5,2.9-5.2"/>
		<path class="st5" d="M109.3,164.9l3.2-3.8"/>
		<path class="st5" d="M111.1,158.2l3.2,2.1"/>
		<path class="st5" d="M91.3,163.4c0.7,0.5,1.4,0.8,2.2,0.9"/>
		<path class="st5" d="M96.3,162.2c0.5,1.4,0.8,2.9,1,4.4"/>
		<path class="st5" d="M98.2,170.3c0.8-0.8,1.5-1.8,2.1-2.8"/>
		<path class="st5" d="M93,167.3l1.7,3.1"/>
		<path class="st5" d="M86,166.7c-1.5,0-3-0.3-4.4-0.9"/>
		<path class="st5" d="M83.1,171c1.3-0.5,2.8-0.8,4.2-0.9"/>
		<path class="st5" d="M86.7,177.5c0.6-1.1,1.2-2.3,1.7-3.5"/>
		<path class="st5" d="M75.7,169.4c1.8,1.3,3.4,2.7,4.9,4.2"/>
		<path class="st5" d="M79.3,158.9l2.6,0.9"/>
		<path class="st5" d="M82.5,157.4c0.3-1,0.8-2,1.4-2.9"/>
		<path class="st5" d="M68,160.9l1.3-2.4"/>
		<path class="st5" d="M66.2,153.8c0.1,2-0.2,4-1,5.9"/>
		<path class="st5" d="M74.3,155.5l0.8-1.8"/>
		<path class="st5" d="M64.2,170.5c1.1,0.8,2.3,1.4,3.6,1.8"/>
		<path class="st5" d="M67.9,168.6l2.8,2.8"/>
		<path class="st5" d="M72.8,167.1l-0.1,4.9"/>
		<path class="st5" d="M73.5,177.8c0.2-0.2,0.3-0.3,0.5-0.5"/>
		<path class="st5" d="M65.3,175.9c1.3-0.3,2.6-0.3,3.9-0.1"/>
		<path class="st5" d="M69.7,185.4l1.7-3.7"/>
		<path class="st5" d="M75.2,180.5c0.7,0.6,1.6,0.9,2.5,1"/>
		<path class="st5" d="M84.8,193.8l0.7-1.5"/>
		<path class="st5" d="M84.9,180.9l3,2.6"/>
		<path class="st5" d="M89.8,179.8c1.7,0.7,3.6,0.7,5.2-0.1"/>
		<path class="st5" d="M99.5,181.6l0.7-1"/>
		<path class="st5" d="M97.5,175.5c0.4,1.4,1,2.8,1.7,4.1"/>
		<path class="st5" d="M106.8,170.1c0.8,1.1,1.5,2.4,1.9,3.7"/>
		<path class="st5" d="M107,167.1l4.3,1.3"/>
		<path class="st5" d="M117.2,166.9c0.7,1.1,1.6,2,2.6,2.6"/>
		<path class="st5" d="M115,177.1c-0.6,1.9-1.4,3.7-2.4,5.5"/>
		<path class="st5" d="M99,190.3c1.1,0.6,2.1,1.3,3,2.2"/>
		<path class="st6" d="M119.4,165.8c-2.1,2.5-4.1,5.1-6,7.7c-1.9,2.6-3.9,5.1-6.2,7.4c-5,4.6-12.3,6.2-18.9,6.4
			c-3.4,0.1-6.9-0.2-10.2-1.1c-1.4-0.3-2.8-0.8-4.2-1.4c-1-0.6-2-1.3-2.8-2.1c-2.1-1.9-4-4.1-6.1-6c-1.1-1-2.9-2.7-4.7-2.9
			c0.2,1,0.5,1.9,0.8,2.8c2.2,6,6.3,11,11.7,14.3c6.2,3.7,13.3,4.4,20.3,3.9c3.5-0.2,7.3-0.4,10.7-1.6c3.1-1.1,5.7-3.1,7.7-5.8
			c2.1-2.7,3.8-5.7,5.1-8.9c1.5-3.3,2.5-6.8,3-10.3c0.1-1,0.2-2.1,0.2-3.1L119.4,165.8z"/>
		<path class="st7" d="M127.4,58.4c-1.5-2.8-3.5-5.4-5.9-7.6c-2.8-2.5-6.2-3.6-9.8-4.6c-6.8-1.8-14.3-2.5-20.8,0.8
			c-0.6,0.3-1.2,0.6-1.8,1c-0.9,0.4-1.8,0.9-2.6,1.4c-3.1,1.7-5.9,3.9-8.3,6.5c-2.2,2.8-3.9,5.9-5.1,9.2c-2.7,6.4-3,13.6-0.7,20.1
			c2.2,6,6.3,11,11.8,14.3c6.2,3.7,13.3,4.3,20.3,3.9c3.5-0.2,7.3-0.4,10.7-1.6c3.1-1.1,5.8-3.1,7.7-5.8c2.1-2.7,3.8-5.7,5.1-8.9
			c1.5-3.3,2.5-6.8,3-10.3C131.8,70.4,130.5,64,127.4,58.4z"/>
		<path class="st5" d="M82.2,71.6c0.8,0.8,1.7,1.7,2.6,2.4"/>
		<path class="st5" d="M88.3,73.2c0.3,0.6,0.6,1.2,0.9,1.8"/>
		<path class="st5" d="M77,75l-1.2,2.4"/>
		<path class="st5" d="M79.1,72.1l1.1,1.5"/>
		<path class="st5" d="M76.4,90l1.1-1.4"/>
		<path class="st5" d="M79.7,86.7c0.1,0.7,0.2,1.4,0.2,2"/>
		<path class="st5" d="M84.9,92.9c0.1-0.2,0.2-0.3,0.3-0.4"/>
		<path class="st5" d="M87,82.6l2.3,2.1"/>
		<path class="st5" d="M95.4,69.7c0.5,0.7,1.1,1.3,1.7,1.9"/>
		<path class="st5" d="M99.1,65.7l0.1,4.2"/>
		<path class="st5" d="M103,66.5c0.9-1.7,1.6-3.5,2.3-5.3"/>
		<path class="st5" d="M107.8,60.1c0,1.6-0.1,3.2-0.4,4.8"/>
		<path class="st5" d="M102.6,68.6l2.7,1.3"/>
		<path class="st5" d="M110.9,68.9l2.5,1.8"/>
		<path class="st5" d="M117.5,71.3c0.6-0.6,1-1.3,1.4-2"/>
		<path class="st5" d="M115.3,75.9c-0.3,1-0.4,2.1-0.2,3.1"/>
		<path class="st5" d="M103.7,82.7c0.7,0.8,1.5,1.6,2.4,2.3"/>
		<path class="st5" d="M112.3,83.9c-0.1-0.2-0.2-0.3-0.3-0.5c1,0.6,1.9,1.4,2.6,2.4"/>
		<path class="st5" d="M116.6,86.5c0,0.1,0,0.2,0.1,0.3c0.4-0.7,0.7-1.5,0.8-2.3"/>
		<path class="st5" d="M122.1,85.6c-1.1,1.3-2.1,2.7-3.1,4.2"/>
		<path class="st5" d="M116.1,92.4l1.3,2.6"/>
		<path class="st5" d="M118.1,92.2l1.1,1.5"/>
		<path class="st5" d="M110.6,93.4l2.2,2.3"/>
		<path class="st5" d="M115.2,96.3c0,0.5,0.2,1,0.6,1.4"/>
		<path class="st5" d="M102.2,100.1c-0.1,0.4-0.2,0.8-0.3,1.2"/>
		<path class="st5" d="M92.6,94.6l1,1.4"/>
		<path class="st5" d="M95.1,93.8l1.2,1.5"/>
		<path class="st5" d="M86.8,96.8l1-1.5"/>
		<path class="st5" d="M93.1,86.8c0.1,1.1,0,2.2-0.3,3.2"/>
		<path class="st5" d="M122.4,78.5c1.2,0.7,2.2,1.6,3,2.7"/>
		<path class="st5" d="M127.8,82.1l0.3-2.1"/>
		<path class="st5" d="M130,79.8c-0.1,1-0.4,1.9-0.8,2.8"/>
		<path class="st5" d="M125.2,74.5L127,72"/>
		<path class="st5" d="M128.5,68.2l1.8,3.4"/>
		<path class="st5" d="M116.5,51.4c0.6,0.7,1.3,1.4,2.1,1.9"/>
		<path class="st5" d="M122.7,56.5c0.5-0.5,1.1-0.9,1.8-1.1"/>
		<path class="st5" d="M116.7,61.5c-0.1,1-0.2,2-0.4,3"/>
		<path class="st5" d="M102.4,58.4c0.9,0.2,1.9,0.1,2.8-0.1"/>
		<path class="st5" d="M104.3,56l1.5,1"/>
		<path class="st5" d="M80.5,61.6c1.1,0.7,2.1,1.5,3,2.4"/>
		<path class="st5" d="M82.5,60.4c0.6-0.6,1.2-1.2,1.7-1.9"/>
		<path class="st5" d="M87.7,55.6c0.5,1.1,1.3,2.1,2.2,2.8"/>
		<path class="st5" d="M93.6,57.7l3-0.3"/>
		<path class="st5" d="M86.1,67.2c0.2,1.4,0.4,2.7,0.6,4.1"/>
		<path class="st5" d="M90.4,70.6l1.6,0.6"/>
		<path class="st5" d="M74.4,69.4l-0.1-3.3"/>
		<path class="st5" d="M73,74.9c0.6-0.6,1.3-1.1,2-1.4"/>
		<path class="st5" d="M100.7,94.2l2.9-2.6"/>
		<path class="st5" d="M107.3,91.4l-1.7,4.7"/>
		<path class="st5" d="M100.6,75.5c1,0.9,1.8,2,2.6,3.1"/>
		<path class="st5" d="M112.9,80.1c0.8,0.8,1.6,1.5,2.5,2.1"/>
		<path class="st5" d="M98.2,53.6c0.9,1.3,1.8,2.6,2.8,3.7"/>
		<path class="st5" d="M105.6,53.5c0.7-1.1,1.3-2.2,1.7-3.4"/>
		<path class="st5" d="M103.6,45.7l2.1,3.3"/>
		<path class="st5" d="M110.2,46.6c0.9,1.5,1.9,2.9,3.1,4.2"/>
		<path class="st5" d="M112.1,52.3c-0.5,1.6-0.8,3.3-0.9,5"/>
		<path class="st5" d="M101.7,48.7l2,2.1"/>
		<path class="st5" d="M92,50.6c0.9,1.5,2.2,2.9,3.6,3.9"/>
		<path class="st5" d="M94.9,49.1c1.5,0.3,3,0.4,4.5,0.4"/>
		<path class="st5" d="M79.8,57.4c0.6-1.4,1.4-2.8,2.4-3.9"/>
		<path class="st5" d="M87.4,53.4l2-1.9"/>
		<path class="st5" d="M90.9,53.4c0.5,0.7,1.1,1.3,1.9,1.7"/>
		<path class="st5" d="M84.3,55.9c1.5,1.2,2.9,2.7,4,4.3"/>
		<path class="st5" d="M89.2,64.8c0.7-1.2,1.7-2.2,2.8-2.9"/>
		<path class="st5" d="M96.9,60.3l4.1,3"/>
		<path class="st5" d="M112.3,66.1c0.5-1.6,0.8-3.3,1-5"/>
		<path class="st5" d="M108.3,54.3c-0.1,1,0.2,2,0.7,2.9"/>
		<path class="st5" d="M114.3,53.8c0.6,1.4,1.3,2.7,2.3,3.8"/>
		<path class="st5" d="M119.8,64.6c0.9-1.7,2-3.3,3.4-4.6"/>
		<path class="st5" d="M126.4,59.9c-0.1,1.9-0.2,3.9-0.3,5.8"/>
		<path class="st5" d="M119.7,57.1l2.9-5.2"/>
		<path class="st5" d="M120.6,73.3l3.2-3.8"/>
		<path class="st5" d="M122.4,66.6l3.2,2.1"/>
		<path class="st5" d="M102.6,71.8c0.7,0.5,1.4,0.8,2.3,0.9"/>
		<path class="st5" d="M107.6,70.7c0.5,1.4,0.8,2.9,1,4.4"/>
		<path class="st5" d="M109.5,78.8c0.8-0.8,1.5-1.8,2.1-2.8"/>
		<path class="st5" d="M104.2,75.8l1.7,3.1"/>
		<path class="st5" d="M97.3,75.2c-1.5,0-3-0.3-4.4-0.8"/>
		<path class="st5" d="M94.3,79.4c1.3-0.5,2.8-0.9,4.2-0.9"/>
		<path class="st5" d="M97.9,86c0.7-1.1,1.2-2.3,1.6-3.6"/>
		<path class="st5" d="M87,77.9c1.8,1.3,3.4,2.7,4.9,4.2"/>
		<path class="st5" d="M90.6,67.4l2.6,0.9"/>
		<path class="st5" d="M93.8,65.9c0.3-1,0.8-2,1.4-2.9"/>
		<path class="st5" d="M79.3,69.4l1.3-2.4"/>
		<path class="st5" d="M77.4,62.3c0.1,2-0.2,4-1,5.9"/>
		<path class="st5" d="M85.6,64l0.8-1.8"/>
		<path class="st5" d="M75.4,79c1.1,0.8,2.3,1.4,3.6,1.8"/>
		<path class="st5" d="M79.2,77.1l2.8,2.8"/>
		<path class="st5" d="M84,75.6v4.9"/>
		<path class="st5" d="M84.8,86.3l0.5-0.5"/>
		<path class="st5" d="M76.6,84.3c1.3-0.3,2.6-0.3,3.8-0.1"/>
		<path class="st5" d="M81,93.9l1.7-3.7"/>
		<path class="st5" d="M86.4,89c0.7,0.6,1.6,0.9,2.5,1"/>
		<path class="st5" d="M96.1,102.3l0.7-1.5"/>
		<path class="st5" d="M96.1,89.4l3,2.6"/>
		<path class="st5" d="M101,88.2c1.7,0.7,3.6,0.7,5.3-0.1"/>
		<path class="st5" d="M110.8,90.1l0.7-1"/>
		<path class="st5" d="M108.8,84c0.4,1.4,1,2.8,1.7,4.1"/>
		<path class="st5" d="M118.1,78.6c0.8,1.1,1.5,2.4,1.9,3.7"/>
		<path class="st5" d="M118.2,75.6l4.3,1.3"/>
		<path class="st5" d="M128.4,75.4c0.6,1.1,1.5,2,2.6,2.6"/>
		<path class="st5" d="M126.2,85.5c-0.6,1.9-1.4,3.7-2.4,5.5"/>
		<path class="st5" d="M110.2,98.8c1.1,0.6,2.1,1.3,3,2.2"/>
		<path class="st6" d="M130.7,74.3c-2.1,2.5-4.1,5.1-6.1,7.7c-1.8,2.6-3.9,5.1-6.2,7.4c-5,4.6-12.3,6.2-18.9,6.4
			c-3.4,0.1-6.9-0.2-10.2-1c-1.4-0.3-2.8-0.8-4.2-1.4c-1-0.6-1.9-1.3-2.8-2.1c-2.1-1.9-4-4.1-6.1-6c-1.1-1-2.9-2.7-4.7-2.9
			c0.2,1,0.5,1.9,0.8,2.8c2.2,6,6.3,11,11.8,14.2c6.2,3.7,13.3,4.3,20.3,3.9c3.5-0.2,7.3-0.4,10.7-1.6c3.1-1.1,5.8-3.1,7.7-5.8
			c2.1-2.7,3.8-5.7,5.1-8.9c1.5-3.3,2.5-6.8,3-10.3c0.1-1,0.2-2.1,0.2-3.1L130.7,74.3z"/>
		<path class="st7" d="M73.1,89.5c-1.5-2.8-3.5-5.4-5.9-7.6c-2.8-2.6-6.2-3.6-9.8-4.6c-6.8-1.8-14.3-2.5-20.8,0.7
			c-0.6,0.3-1.2,0.6-1.8,1c-0.9,0.4-1.8,0.9-2.6,1.3c-3.1,1.7-5.9,3.9-8.3,6.6c-2.2,2.8-3.9,5.9-5.1,9.2c-2.7,6.4-3,13.6-0.8,20.1
			c2.2,6,6.4,11.1,11.9,14.3c6.2,3.7,13.3,4.4,20.3,3.9c3.5-0.2,7.3-0.4,10.7-1.6c3.1-1.1,5.7-3.2,7.7-5.8c2.1-2.7,3.8-5.7,5.1-8.9
			c1.5-3.3,2.5-6.8,3-10.3C77.5,101.6,76.2,95.1,73.1,89.5z"/>
		<path class="st5" d="M27.9,102.7c0.8,0.8,1.7,1.6,2.6,2.4"/>
		<path class="st5" d="M33.9,104.4l0.9,1.8"/>
		<path class="st5" d="M22.6,106.1l-1.2,2.5"/>
		<path class="st5" d="M24.8,103.2l1.1,1.6"/>
		<path class="st5" d="M22,121.1l1.1-1.4"/>
		<path class="st5" d="M25.3,117.8c0.1,0.7,0.1,1.4,0.2,2"/>
		<path class="st5" d="M30.5,124l0.4-0.4"/>
		<path class="st5" d="M32.6,113.8l2.3,2.1"/>
		<path class="st5" d="M41.1,100.8c0.5,0.7,1.1,1.3,1.7,1.9"/>
		<path class="st5" d="M44.8,96.8l0.1,4.2"/>
		<path class="st5" d="M48.6,97.7c0.9-1.7,1.6-3.5,2.3-5.3"/>
		<path class="st5" d="M53.4,91.3c0,1.6-0.1,3.2-0.4,4.8"/>
		<path class="st5" d="M48.3,99.8l2.7,1.3"/>
		<path class="st5" d="M56.6,100l2.5,1.8"/>
		<path class="st5" d="M63.2,102.5c0.6-0.6,1-1.3,1.4-2"/>
		<path class="st5" d="M61,107c-0.3,1-0.4,2.1-0.2,3.1"/>
		<path class="st5" d="M49.3,113.9c0.7,0.8,1.5,1.6,2.4,2.3"/>
		<path class="st5" d="M58,115l-0.2-0.5c1,0.6,1.9,1.4,2.6,2.4"/>
		<path class="st5" d="M62.2,117.6c0,0.1,0,0.2,0.1,0.3c0.4-0.7,0.7-1.5,0.8-2.3"/>
		<path class="st5" d="M67.8,116.7c-1.1,1.3-2.1,2.7-3,4.2"/>
		<path class="st5" d="M61.7,123.5l1.3,2.6"/>
		<path class="st5" d="M63.8,123.3l1.1,1.5"/>
		<path class="st5" d="M56.2,124.5l2.2,2.3"/>
		<path class="st5" d="M60.9,127.5c0,0.5,0.2,1,0.6,1.4"/>
		<path class="st5" d="M47.8,131.2c-0.1,0.4-0.2,0.8-0.3,1.2"/>
		<path class="st5" d="M38.3,125.8c0.3,0.5,0.7,1,1,1.4"/>
		<path class="st5" d="M40.7,124.9l1.2,1.5"/>
		<path class="st5" d="M32.5,128l1-1.5"/>
		<path class="st5" d="M38.7,117.9c0.1,1.1,0,2.2-0.3,3.2"/>
		<path class="st5" d="M68.1,109.7c1.2,0.7,2.2,1.6,3,2.7"/>
		<path class="st5" d="M73.5,113.2l0.3-2.1"/>
		<path class="st5" d="M75.7,110.9c-0.1,1-0.3,2-0.8,2.8"/>
		<path class="st5" d="M70.9,105.6l1.8-2.5"/>
		<path class="st5" d="M74.1,99.3l1.9,3.4"/>
		<path class="st5" d="M62.2,82.5c0.6,0.7,1.3,1.4,2.1,1.9"/>
		<path class="st5" d="M68.3,87.7c0.5-0.6,1.1-0.9,1.8-1.1"/>
		<path class="st5" d="M62.4,92.7l-0.4,3"/>
		<path class="st5" d="M48,89.5c0.9,0.2,1.9,0.2,2.8-0.1"/>
		<path class="st5" d="M50,87.1l1.5,1.1"/>
		<path class="st5" d="M26.1,92.7c1.1,0.7,2.1,1.5,3,2.4"/>
		<path class="st5" d="M28.2,91.6c0.6-0.6,1.1-1.2,1.7-1.9"/>
		<path class="st5" d="M33.3,86.7c0.5,1.1,1.2,2.1,2.2,2.8"/>
		<path class="st5" d="M39.2,88.9l3-0.3"/>
		<path class="st5" d="M31.7,98.4c0.2,1.4,0.4,2.7,0.6,4.1"/>
		<path class="st5" d="M36.1,101.8l1.6,0.6"/>
		<path class="st5" d="M20.1,100.6L20,97.2"/>
		<path class="st5" d="M18.7,106.1c0.6-0.6,1.3-1.1,2-1.4"/>
		<path class="st5" d="M46.4,125.3l2.9-2.6"/>
		<path class="st5" d="M52.9,122.5c-0.6,1.6-1.2,3.2-1.7,4.7"/>
		<path class="st5" d="M46.2,106.7c1,0.9,1.8,2,2.6,3.1"/>
		<path class="st5" d="M58.5,111.2c0.8,0.8,1.6,1.5,2.5,2.1"/>
		<path class="st5" d="M43.8,84.7c0.9,1.3,1.8,2.6,2.8,3.7"/>
		<path class="st5" d="M51.3,84.6c0.7-1,1.3-2.2,1.7-3.4"/>
		<path class="st5" d="M49.2,76.8l2.1,3.3"/>
		<path class="st5" d="M55.8,77.8c0.9,1.5,1.9,2.9,3.1,4.2"/>
		<path class="st5" d="M57.8,83.4c-0.5,1.6-0.8,3.3-0.9,5"/>
		<path class="st5" d="M47.3,79.9l2,2.1"/>
		<path class="st5" d="M37.7,81.7c0.9,1.5,2.2,2.8,3.6,3.9"/>
		<path class="st5" d="M40.6,80.2c1.5,0.3,3,0.4,4.5,0.4"/>
		<path class="st5" d="M25.4,88.5c0.6-1.5,1.4-2.8,2.5-4"/>
		<path class="st5" d="M33.1,84.6l1.9-1.9"/>
		<path class="st5" d="M36.6,84.6c0.5,0.7,1.1,1.3,1.9,1.7"/>
		<path class="st5" d="M30,87.1c1.5,1.2,2.8,2.7,4,4.3"/>
		<path class="st5" d="M34.8,95.9c0.7-1.2,1.7-2.2,2.9-2.9"/>
		<path class="st5" d="M42.5,91.4l4.1,3"/>
		<path class="st5" d="M58,97.3c0.5-1.6,0.8-3.3,1-5"/>
		<path class="st5" d="M54,85.4c-0.1,1,0.2,2,0.7,2.9"/>
		<path class="st5" d="M60,84.9c0.6,1.4,1.3,2.7,2.3,3.8"/>
		<path class="st5" d="M65.5,95.8c0.9-1.7,2-3.3,3.4-4.6"/>
		<path class="st5" d="M72,91c-0.1,1.9-0.2,3.9-0.3,5.8"/>
		<path class="st5" d="M65.3,88.2c1-1.7,2-3.5,2.9-5.2"/>
		<path class="st5" d="M66.2,104.5l3.2-3.8"/>
		<path class="st5" d="M68.1,97.8l3.2,2.1"/>
		<path class="st5" d="M48.3,103c0.6,0.5,1.4,0.9,2.2,1"/>
		<path class="st5" d="M53.2,101.8c0.4,1.4,0.8,2.9,1,4.4"/>
		<path class="st5" d="M55.1,109.9c0.8-0.8,1.5-1.8,2.1-2.8"/>
		<path class="st5" d="M49.9,106.9l1.7,3.1"/>
		<path class="st5" d="M42.9,106.3c-1.5,0-3-0.3-4.4-0.8"/>
		<path class="st5" d="M40,110.6c1.3-0.6,2.8-0.9,4.2-0.9"/>
		<path class="st5" d="M43.6,117.1c0.6-1.1,1.2-2.3,1.6-3.6"/>
		<path class="st5" d="M32.7,109c1.8,1.2,3.4,2.7,4.9,4.2"/>
		<path class="st5" d="M36.3,98.5l2.6,0.9"/>
		<path class="st5" d="M39.4,97c0.3-1,0.8-2,1.4-2.9"/>
		<path class="st5" d="M24.9,100.5l1.3-2.5"/>
		<path class="st5" d="M23.1,93.4c0.1,2-0.2,4.1-1,5.9"/>
		<path class="st5" d="M31.3,95.1l0.8-1.8"/>
		<path class="st5" d="M21.1,110.1c1.1,0.8,2.3,1.4,3.6,1.8"/>
		<path class="st5" d="M24.8,108.2l2.9,2.8"/>
		<path class="st5" d="M29.7,106.7l-0.1,4.9"/>
		<path class="st5" d="M30.4,117.4c0.2-0.2,0.3-0.3,0.5-0.5"/>
		<path class="st5" d="M22.2,115.5c1.3-0.3,2.6-0.3,3.9-0.1"/>
		<path class="st5" d="M26.7,125.1c0.6-1.2,1.1-2.4,1.7-3.7"/>
		<path class="st5" d="M32.1,120.1c0.7,0.6,1.5,0.9,2.5,1"/>
		<path class="st5" d="M41.8,133.4l0.7-1.5"/>
		<path class="st5" d="M41.8,120.5l3,2.6"/>
		<path class="st5" d="M46.7,119.4c1.7,0.7,3.6,0.7,5.3-0.1"/>
		<path class="st5" d="M56.4,121.2l0.7-1"/>
		<path class="st5" d="M54.4,115.1c0.4,1.4,1,2.8,1.7,4.1"/>
		<path class="st5" d="M63.7,109.7c0.8,1.1,1.5,2.4,1.9,3.7"/>
		<path class="st5" d="M63.9,106.7l4.3,1.3"/>
		<path class="st5" d="M74.1,106.5c0.7,1.1,1.6,2,2.6,2.6"/>
		<path class="st5" d="M71.9,116.7c-0.6,1.9-1.4,3.8-2.4,5.5"/>
		<path class="st5" d="M55.9,129.9c1.1,0.6,2.1,1.3,3,2.2"/>
		<path class="st6" d="M76.4,105.4c-2.1,2.5-4.1,5.1-6.1,7.7c-1.8,2.6-3.9,5.1-6.2,7.4c-5,4.6-12.3,6.2-18.9,6.4
			c-3.4,0.1-6.9-0.2-10.2-1.1c-1.4-0.3-2.8-0.8-4.2-1.4c-1-0.5-2-1.2-2.8-2.1c-2.1-1.9-4-4.1-6.1-6c-1.1-1-2.9-2.7-4.6-2.9
			c0.2,1,0.5,1.9,0.8,2.8c2.2,6,6.4,11.1,11.9,14.3c6.2,3.7,13.3,4.4,20.3,3.9c3.5-0.2,7.3-0.4,10.7-1.6c3.1-1.1,5.7-3.2,7.7-5.8
			c2.1-2.7,3.8-5.7,5.1-8.9c1.5-3.3,2.5-6.8,3-10.3c0.1-1,0.2-2.1,0.2-3.1L76.4,105.4z"/>
		<path class="st8" d="M70.8,138.3c-1.5-2.8-3.5-5.4-5.9-7.6c-2.8-2.5-6.2-3.6-9.8-4.6c-6.8-1.8-14.3-2.5-20.8,0.8
			c-0.6,0.3-1.2,0.6-1.7,1c-0.9,0.4-1.7,0.9-2.6,1.4c-3.1,1.7-5.9,3.9-8.3,6.6c-2.2,2.8-3.9,5.9-5.1,9.2c-2.7,6.4-3,13.6-0.7,20.1
			c2.2,6,6.3,11,11.8,14.3c6.2,3.7,13.3,4.4,20.3,3.9c3.5-0.2,7.3-0.4,10.7-1.6c3.1-1.1,5.8-3.1,7.7-5.8c2.1-2.7,3.8-5.7,5.1-8.9
			c1.5-3.3,2.5-6.8,3-10.3C75.2,150.4,73.9,144,70.8,138.3z"/>
		<path class="st5" d="M25.6,151.6c0.8,0.8,1.7,1.6,2.6,2.4"/>
		<path class="st5" d="M31.7,153.2c0.3,0.6,0.6,1.2,0.9,1.8"/>
		<path class="st5" d="M20.4,154.9c-0.4,0.8-0.8,1.6-1.2,2.5"/>
		<path class="st5" d="M22.5,152l1.1,1.5"/>
		<path class="st5" d="M19.8,170l1.2-1.5"/>
		<path class="st5" d="M23.1,166.6c0.1,0.7,0.1,1.4,0.2,2"/>
		<path class="st5" d="M28.3,172.9l0.4-0.4"/>
		<path class="st5" d="M30.4,162.6l2.3,2.1"/>
		<path class="st5" d="M38.9,149.7c0.5,0.7,1.1,1.3,1.7,1.9"/>
		<path class="st5" d="M42.5,145.6l0.1,4.2"/>
		<path class="st5" d="M46.4,146.5c0.9-1.7,1.6-3.5,2.3-5.3"/>
		<path class="st5" d="M51.2,140.1c0,1.6-0.1,3.2-0.4,4.8"/>
		<path class="st5" d="M46.1,148.6l2.7,1.3"/>
		<path class="st5" d="M54.3,148.9l2.5,1.8"/>
		<path class="st5" d="M61,151.3c0.6-0.6,1-1.3,1.4-2"/>
		<path class="st5" d="M58.8,155.9c-0.3,1-0.4,2.1-0.2,3.1"/>
		<path class="st5" d="M47.1,162.7c0.7,0.8,1.5,1.6,2.4,2.3"/>
		<path class="st5" d="M55.8,163.8c-0.1-0.2-0.2-0.3-0.3-0.5c1,0.6,1.9,1.4,2.6,2.4"/>
		<path class="st5" d="M60,166.4c0,0.1,0,0.2,0.1,0.3c0.4-0.7,0.7-1.5,0.8-2.3"/>
		<path class="st5" d="M65.6,165.5c-1.1,1.3-2.1,2.7-3.1,4.2"/>
		<path class="st5" d="M59.5,172.3l1.3,2.6"/>
		<path class="st5" d="M61.6,172.1l1.1,1.5"/>
		<path class="st5" d="M54,173.3l2.2,2.3"/>
		<path class="st5" d="M58.7,176.3c0,0.5,0.2,1,0.6,1.4"/>
		<path class="st5" d="M45.6,180c-0.1,0.4-0.2,0.8-0.3,1.2"/>
		<path class="st5" d="M36,174.6l1,1.4"/>
		<path class="st5" d="M38.5,173.8l1.2,1.5"/>
		<path class="st5" d="M30.3,176.8l1-1.5"/>
		<path class="st5" d="M36.5,166.7c0.1,1.1,0,2.2-0.3,3.2"/>
		<path class="st5" d="M65.9,158.5c1.2,0.7,2.2,1.6,3,2.7"/>
		<path class="st5" d="M71.3,162.1l0.3-2.1"/>
		<path class="st5" d="M73.4,159.7c-0.1,1-0.4,2-0.8,2.8"/>
		<path class="st5" d="M68.7,154.5c0.6-0.8,1.2-1.6,1.8-2.5"/>
		<path class="st5" d="M71.9,148.1l1.8,3.4"/>
		<path class="st5" d="M60,131.3c0.6,0.7,1.3,1.4,2.1,1.9"/>
		<path class="st5" d="M66.1,136.5c0.5-0.6,1.1-1,1.9-1.1"/>
		<path class="st5" d="M60.2,141.5c-0.1,1-0.2,2-0.4,3"/>
		<path class="st5" d="M45.8,138.4c0.9,0.2,1.9,0.2,2.8-0.1"/>
		<path class="st5" d="M47.7,135.9l1.5,1.1"/>
		<path class="st5" d="M23.9,141.6c1.1,0.7,2.1,1.5,3.1,2.4"/>
		<path class="st5" d="M25.9,140.4l1.7-1.9"/>
		<path class="st5" d="M31.1,135.6c0.5,1.1,1.2,2.1,2.2,2.8"/>
		<path class="st5" d="M37,137.7l3-0.3"/>
		<path class="st5" d="M29.5,147.2c0.2,1.4,0.4,2.7,0.6,4.1"/>
		<path class="st5" d="M33.9,150.6l1.6,0.6"/>
		<path class="st5" d="M17.9,149.4l-0.1-3.3"/>
		<path class="st5" d="M16.5,154.9c0.6-0.6,1.3-1.1,2-1.4"/>
		<path class="st5" d="M44.2,174.1l2.9-2.6"/>
		<path class="st5" d="M50.7,171.4l-1.7,4.7"/>
		<path class="st5" d="M44,155.5c1,0.9,1.8,2,2.5,3.1"/>
		<path class="st5" d="M56.3,160.1c0.8,0.8,1.6,1.5,2.5,2.1"/>
		<path class="st5" d="M41.6,133.6c0.9,1.3,1.8,2.5,2.8,3.7"/>
		<path class="st5" d="M49,133.5c0.7-1.1,1.3-2.2,1.7-3.4"/>
		<path class="st5" d="M47,125.6l2.1,3.3"/>
		<path class="st5" d="M53.6,126.6c0.9,1.5,1.9,2.9,3.1,4.2"/>
		<path class="st5" d="M55.5,132.3c-0.5,1.6-0.8,3.3-0.9,5"/>
		<path class="st5" d="M45.1,128.7l2,2.1"/>
		<path class="st5" d="M35.4,130.6c0.9,1.5,2.2,2.8,3.6,3.9"/>
		<path class="st5" d="M38.4,129.1c1.5,0.3,3,0.4,4.5,0.4"/>
		<path class="st5" d="M23.2,137.3c0.6-1.4,1.4-2.8,2.5-3.9"/>
		<path class="st5" d="M30.8,133.4l2-1.9"/>
		<path class="st5" d="M34.4,133.4c0.5,0.7,1.1,1.3,1.9,1.7"/>
		<path class="st5" d="M27.8,135.9c1.5,1.2,2.8,2.7,4,4.3"/>
		<path class="st5" d="M32.6,144.8c0.7-1.2,1.7-2.2,2.9-2.9"/>
		<path class="st5" d="M40.3,140.2l4.1,3"/>
		<path class="st5" d="M55.7,146.1c0.5-1.6,0.8-3.3,1-5"/>
		<path class="st5" d="M51.8,134.2c-0.1,1,0.2,2,0.7,2.9"/>
		<path class="st5" d="M57.7,133.8c0.6,1.4,1.3,2.7,2.3,3.8"/>
		<path class="st5" d="M63.3,144.6c0.9-1.7,2-3.3,3.4-4.6"/>
		<path class="st5" d="M69.8,139.8c-0.1,1.9-0.2,3.9-0.3,5.8"/>
		<path class="st5" d="M63.1,137l2.9-5.2"/>
		<path class="st5" d="M64,153.3l3.2-3.8"/>
		<path class="st5" d="M65.8,146.6l3.2,2.1"/>
		<path class="st5" d="M46,151.8c0.7,0.5,1.4,0.8,2.2,0.9"/>
		<path class="st5" d="M51,150.7c0.4,1.4,0.8,2.9,1,4.4"/>
		<path class="st5" d="M52.9,158.8c0.8-0.8,1.6-1.8,2.1-2.8"/>
		<path class="st5" d="M47.7,155.7l1.7,3.1"/>
		<path class="st5" d="M40.7,155.1c-1.5,0-3-0.3-4.4-0.9"/>
		<path class="st5" d="M37.8,159.4c1.3-0.5,2.8-0.9,4.2-0.9"/>
		<path class="st5" d="M41.3,166c0.7-1.1,1.2-2.4,1.7-3.6"/>
		<path class="st5" d="M30.4,157.8c1.8,1.3,3.4,2.7,4.9,4.2"/>
		<path class="st5" d="M34,147.4l2.6,0.9"/>
		<path class="st5" d="M37.2,145.8c0.3-1,0.8-2,1.4-2.8"/>
		<path class="st5" d="M22.7,149.3l1.3-2.4"/>
		<path class="st5" d="M20.9,142.3c0.1,2-0.2,4-1,5.9"/>
		<path class="st5" d="M29,143.9c0.3-0.6,0.6-1.2,0.9-1.8"/>
		<path class="st5" d="M18.9,159c1.1,0.8,2.3,1.4,3.6,1.8"/>
		<path class="st5" d="M22.6,157l2.8,2.8"/>
		<path class="st5" d="M27.5,155.6l-0.1,4.9"/>
		<path class="st5" d="M28.2,166.3l0.5-0.5"/>
		<path class="st5" d="M20,164.3c1.3-0.3,2.6-0.3,3.9-0.1"/>
		<path class="st5" d="M24.4,173.9l1.7-3.7"/>
		<path class="st5" d="M29.9,168.9c0.7,0.6,1.6,0.9,2.5,1"/>
		<path class="st5" d="M39.5,182.2l0.7-1.5"/>
		<path class="st5" d="M39.6,169.4l3,2.6"/>
		<path class="st5" d="M44.5,168.2c1.7,0.7,3.6,0.7,5.2-0.1"/>
		<path class="st5" d="M54.2,170l0.7-1"/>
		<path class="st5" d="M52.2,163.9c0.4,1.4,1,2.8,1.7,4.1"/>
		<path class="st5" d="M61.5,158.5c0.8,1.1,1.5,2.4,1.9,3.7"/>
		<path class="st5" d="M61.7,155.6l4.3,1.2"/>
		<path class="st5" d="M71.8,155.3c0.7,1.1,1.6,2,2.6,2.7"/>
		<path class="st5" d="M69.7,165.5c-0.6,1.9-1.4,3.8-2.4,5.5"/>
		<path class="st5" d="M53.7,178.8c1.1,0.6,2.1,1.3,3,2.2"/>
		<path class="st6" d="M74.1,154.3c-2.1,2.5-4.1,5.1-6,7.7c-1.8,2.6-3.9,5.1-6.2,7.4c-5,4.6-12.3,6.2-18.9,6.4
			c-3.4,0.1-6.9-0.2-10.2-1.1c-1.4-0.3-2.8-0.8-4.2-1.4c-1-0.6-2-1.3-2.8-2.1c-2.1-1.9-4-4.1-6.1-6c-1.1-1-2.9-2.7-4.6-2.9
			c0.2,1,0.5,1.9,0.8,2.8c2.2,6,6.3,11,11.8,14.3c6.1,3.7,13.2,4.4,20.2,3.9c3.5-0.2,7.3-0.4,10.7-1.6c3.1-1.1,5.8-3.1,7.7-5.8
			c2.1-2.7,3.8-5.7,5.1-8.9c1.5-3.3,2.5-6.8,3-10.3c0.1-1,0.2-2.1,0.2-3.1L74.1,154.3z"/>
		<path class="st8" d="M110.8,20.3c-1.5-2.8-3.5-5.4-5.9-7.6c-2.8-2.5-6.2-3.6-9.8-4.6c-6.8-1.8-14.3-2.5-20.8,0.8
			c-0.6,0.3-1.2,0.6-1.7,1c-0.9,0.4-1.7,0.9-2.5,1.4c-3.1,1.7-5.9,3.9-8.3,6.5c-2.2,2.8-3.9,5.9-5.1,9.2c-2.7,6.4-3,13.6-0.7,20.1
			c2.2,6,6.3,11,11.8,14.3c6.2,3.7,13.3,4.3,20.3,3.9c3.5-0.2,7.3-0.4,10.7-1.6c3.1-1.1,5.7-3.1,7.7-5.8c2.1-2.7,3.8-5.7,5.1-8.9
			c1.5-3.3,2.5-6.8,3-10.3C115.2,32.4,113.9,25.9,110.8,20.3z"/>
		<path class="st5" d="M65.6,33.5c0.8,0.8,1.7,1.6,2.6,2.4"/>
		<path class="st5" d="M71.7,35.2c0.3,0.6,0.6,1.2,0.9,1.8"/>
		<path class="st5" d="M60.4,36.9c-0.4,0.8-0.8,1.7-1.2,2.5"/>
		<path class="st5" d="M62.5,34l1.1,1.5"/>
		<path class="st5" d="M59.8,51.9l1.1-1.4"/>
		<path class="st5" d="M63.1,48.6c0.1,0.7,0.2,1.4,0.2,2"/>
		<path class="st5" d="M68.2,54.8l0.3-0.4"/>
		<path class="st5" d="M70.4,44.6l2.3,2.1"/>
		<path class="st5" d="M78.8,31.6c0.5,0.7,1.1,1.3,1.7,1.9"/>
		<path class="st5" d="M82.5,27.6l0.1,4.2"/>
		<path class="st5" d="M86.4,28.5c0.9-1.7,1.6-3.5,2.3-5.3"/>
		<path class="st5" d="M91.2,22.1c0,1.6-0.1,3.2-0.4,4.8"/>
		<path class="st5" d="M86,30.6l2.7,1.3"/>
		<path class="st5" d="M94.3,30.8l2.5,1.8"/>
		<path class="st5" d="M100.9,33.3c0.6-0.6,1-1.3,1.4-2"/>
		<path class="st5" d="M98.7,37.8c-0.3,1-0.4,2.1-0.2,3.1"/>
		<path class="st5" d="M87.1,44.7c0.7,0.9,1.5,1.6,2.4,2.3"/>
		<path class="st5" d="M95.7,45.8c-0.1-0.2-0.2-0.3-0.3-0.5c1,0.6,1.9,1.4,2.6,2.4"/>
		<path class="st5" d="M100,48.4c0,0.1,0,0.2,0.1,0.3c0.4-0.7,0.7-1.5,0.8-2.3"/>
		<path class="st5" d="M105.5,47.5c-1.1,1.3-2.1,2.7-3.1,4.2"/>
		<path class="st5" d="M99.5,54.3l1.3,2.6"/>
		<path class="st5" d="M101.5,54.1l1.1,1.5"/>
		<path class="st5" d="M94,55.3l2.2,2.3"/>
		<path class="st5" d="M98.6,58.3c0,0.5,0.2,1,0.6,1.4"/>
		<path class="st5" d="M85.6,62c-0.1,0.4-0.2,0.8-0.3,1.2"/>
		<path class="st5" d="M76,56.6l1,1.4"/>
		<path class="st5" d="M78.5,55.8l1.2,1.5"/>
		<path class="st5" d="M70.2,58.8l1-1.5"/>
		<path class="st5" d="M76.4,48.7c0.1,1.1,0,2.2-0.3,3.2"/>
		<path class="st5" d="M105.8,40.5c1.2,0.7,2.2,1.6,3,2.7"/>
		<path class="st5" d="M111.2,44l0.3-2.1"/>
		<path class="st5" d="M113.4,41.7c-0.1,1-0.4,2-0.8,2.8"/>
		<path class="st5" d="M108.6,36.5c0.6-0.8,1.2-1.7,1.8-2.5"/>
		<path class="st5" d="M111.9,30.1l1.8,3.4"/>
		<path class="st5" d="M99.9,13.3c0.6,0.7,1.3,1.4,2.1,1.9"/>
		<path class="st5" d="M106.1,18.5c0.5-0.6,1.1-0.9,1.8-1.1"/>
		<path class="st5" d="M100.1,23.5c-0.1,1-0.2,2-0.4,3"/>
		<path class="st5" d="M85.8,20.4c0.9,0.2,1.9,0.1,2.8-0.1"/>
		<path class="st5" d="M87.7,17.9l1.6,1.1"/>
		<path class="st5" d="M63.9,23.5c1.1,0.7,2.1,1.5,3,2.4"/>
		<path class="st5" d="M65.9,22.4l1.7-1.9"/>
		<path class="st5" d="M71.1,17.6c0.5,1.1,1.2,2.1,2.2,2.8"/>
		<path class="st5" d="M77,19.7l3-0.3"/>
		<path class="st5" d="M69.5,29.2c0.2,1.4,0.4,2.7,0.6,4.1"/>
		<path class="st5" d="M73.8,32.6l1.6,0.6"/>
		<path class="st5" d="M57.8,31.4l-0.1-3.3"/>
		<path class="st5" d="M56.4,36.9c0.6-0.6,1.3-1.1,2-1.4"/>
		<path class="st5" d="M84.1,56.1l2.9-2.6"/>
		<path class="st5" d="M90.7,53.3l-1.7,4.7"/>
		<path class="st5" d="M84,37.5c1,0.9,1.8,2,2.6,3.1"/>
		<path class="st5" d="M96.3,42c0.8,0.8,1.6,1.5,2.5,2.1"/>
		<path class="st5" d="M81.5,15.5c0.9,1.3,1.8,2.5,2.8,3.7"/>
		<path class="st5" d="M89,15.5c0.7-1.1,1.3-2.2,1.7-3.4"/>
		<path class="st5" d="M87,7.6c0.7,1.1,1.4,2.2,2.1,3.3"/>
		<path class="st5" d="M93.6,8.6c0.9,1.5,1.9,2.9,3.1,4.2"/>
		<path class="st5" d="M95.5,14.2c-0.5,1.6-0.8,3.3-0.9,5"/>
		<path class="st5" d="M85,10.7l2,2.1"/>
		<path class="st5" d="M75.4,12.6c0.9,1.5,2.2,2.9,3.6,3.9"/>
		<path class="st5" d="M78.3,11c1.5,0.3,3,0.4,4.4,0.4"/>
		<path class="st5" d="M63.2,19.3c0.6-1.4,1.4-2.8,2.4-3.9"/>
		<path class="st5" d="M70.8,15.4l2-1.9"/>
		<path class="st5" d="M74.3,15.4c0.5,0.7,1.1,1.3,1.9,1.7"/>
		<path class="st5" d="M67.7,17.9c1.5,1.2,2.9,2.7,4,4.3"/>
		<path class="st5" d="M72.6,26.7c0.7-1.2,1.7-2.2,2.9-2.9"/>
		<path class="st5" d="M80.3,22.2l4.1,3"/>
		<path class="st5" d="M95.7,28.1c0.5-1.6,0.8-3.3,1-5"/>
		<path class="st5" d="M91.7,16.2c-0.1,1,0.2,2,0.7,2.9"/>
		<path class="st5" d="M97.7,15.7c0.5,1.4,1.3,2.7,2.3,3.8"/>
		<path class="st5" d="M103.2,26.6c0.9-1.7,2-3.3,3.4-4.6"/>
		<path class="st5" d="M109.8,21.8c-0.1,1.9-0.2,3.9-0.3,5.8"/>
		<path class="st5" d="M103.1,19l2.9-5.2"/>
		<path class="st5" d="M104,35.3l3.2-3.8"/>
		<path class="st5" d="M105.8,28.6l3.2,2.1"/>
		<path class="st5" d="M86,33.8c0.7,0.5,1.4,0.8,2.2,0.9"/>
		<path class="st5" d="M91,32.7c0.5,1.4,0.8,2.9,1,4.4"/>
		<path class="st5" d="M92.9,40.7c0.8-0.8,1.5-1.8,2.1-2.8"/>
		<path class="st5" d="M87.6,37.7c0.6,1,1.1,2.1,1.7,3.1"/>
		<path class="st5" d="M80.7,37.1c-1.5,0-3-0.3-4.4-0.8"/>
		<path class="st5" d="M77.7,41.4c1.4-0.6,2.8-0.9,4.3-0.9"/>
		<path class="st5" d="M81.3,47.9c0.7-1.1,1.2-2.3,1.7-3.5"/>
		<path class="st5" d="M70.4,39.8c1.8,1.2,3.4,2.7,4.9,4.2"/>
		<path class="st5" d="M74,29.3l2.6,0.9"/>
		<path class="st5" d="M77.2,27.8c0.3-1,0.8-1.9,1.4-2.8"/>
		<path class="st5" d="M62.7,31.3l1.3-2.5"/>
		<path class="st5" d="M60.8,24.2c0.1,2-0.2,4-1,5.9"/>
		<path class="st5" d="M69,25.9c0.3-0.6,0.6-1.2,0.8-1.8"/>
		<path class="st5" d="M58.8,40.9c1.1,0.8,2.3,1.4,3.6,1.8"/>
		<path class="st5" d="M62.6,39l2.8,2.8"/>
		<path class="st5" d="M67.4,37.5l-0.1,4.9"/>
		<path class="st5" d="M68.2,48.3l0.5-0.5"/>
		<path class="st5" d="M60,46.3c1.3-0.3,2.6-0.3,3.9-0.1"/>
		<path class="st5" d="M64.4,55.9l1.7-3.7"/>
		<path class="st5" d="M69.8,50.9c0.7,0.6,1.6,0.9,2.5,1"/>
		<path class="st5" d="M79.5,64.2l0.7-1.5"/>
		<path class="st5" d="M79.5,51.3l3,2.6"/>
		<path class="st5" d="M84.4,50.2c1.7,0.7,3.6,0.7,5.2-0.1"/>
		<path class="st5" d="M94.2,52l0.7-1"/>
		<path class="st5" d="M92.1,45.9c0.4,1.4,1,2.8,1.7,4.1"/>
		<path class="st5" d="M101.5,40.5c0.8,1.1,1.5,2.4,1.9,3.7"/>
		<path class="st5" d="M101.6,37.5l4.3,1.3"/>
		<path class="st5" d="M111.8,37.3c0.6,1.1,1.5,2,2.6,2.7"/>
		<path class="st5" d="M109.6,47.5c-0.6,1.9-1.4,3.8-2.4,5.5"/>
		<path class="st5" d="M93.6,60.7c1.1,0.6,2.1,1.3,3,2.2"/>
		<path class="st6" d="M114.1,36.3c-2.1,2.5-4.1,5.1-6,7.7c-1.8,2.6-3.9,5.1-6.2,7.4c-5,4.6-12.3,6.2-18.9,6.4
			c-3.4,0.1-6.9-0.2-10.2-1c-1.4-0.3-2.8-0.8-4.2-1.4c-1-0.6-2-1.3-2.8-2.1c-2.1-1.9-4-4.1-6.1-6c-1.1-1-2.9-2.7-4.7-2.9
			c0.2,1,0.5,1.9,0.8,2.8c2.2,6,6.3,11,11.8,14.2c6.2,3.7,13.3,4.3,20.3,3.9c3.5-0.2,7.3-0.4,10.7-1.6c3.1-1.1,5.7-3.1,7.7-5.8
			c2.1-2.7,3.8-5.7,5.1-8.9c1.5-3.3,2.5-6.8,3-10.3c0.1-1,0.2-2.1,0.2-3.1L114.1,36.3z"/>
		<path class="st8" d="M163.7,95.6c-1.5-2.8-3.5-5.4-5.9-7.6c-2.8-2.6-6.1-3.6-9.8-4.6c-6.8-1.8-14.3-2.5-20.8,0.8
			c-0.6,0.3-1.2,0.6-1.8,1c-0.9,0.4-1.8,0.9-2.6,1.4c-3.1,1.7-5.9,3.9-8.3,6.6c-2.2,2.8-3.9,5.9-5.1,9.2c-2.7,6.4-3,13.6-0.7,20.1
			c2.2,6,6.3,11,11.8,14.3c6.2,3.7,13.3,4.4,20.3,3.9c3.5-0.2,7.3-0.4,10.7-1.6c3.1-1.1,5.7-3.1,7.7-5.8c2.1-2.7,3.8-5.7,5.1-8.9
			c1.5-3.3,2.5-6.8,3-10.3C168.1,107.7,166.8,101.2,163.7,95.6z"/>
		<path class="st5" d="M118.5,108.8c0.8,0.8,1.7,1.6,2.6,2.4"/>
		<path class="st5" d="M124.6,110.4c0.3,0.6,0.6,1.2,0.9,1.8"/>
		<path class="st5" d="M113.3,112.2c-0.4,0.8-0.8,1.7-1.2,2.5"/>
		<path class="st5" d="M115.4,109.2l1.1,1.5"/>
		<path class="st5" d="M112.7,127.2l1.1-1.4"/>
		<path class="st5" d="M116,123.9c0.1,0.7,0.2,1.4,0.2,2"/>
		<path class="st5" d="M121.2,130.1l0.3-0.4"/>
		<path class="st5" d="M123.3,119.8l2.3,2.1"/>
		<path class="st5" d="M131.7,106.9c0.5,0.7,1.1,1.3,1.7,1.9"/>
		<path class="st5" d="M135.4,102.9l0.1,4.2"/>
		<path class="st5" d="M139.3,103.7c0.9-1.7,1.6-3.5,2.3-5.3"/>
		<path class="st5" d="M144.1,97.3c0,1.6-0.1,3.2-0.4,4.8"/>
		<path class="st5" d="M138.9,105.8l2.7,1.3"/>
		<path class="st5" d="M147.2,106.1l2.5,1.8"/>
		<path class="st5" d="M153.8,108.5c0.6-0.6,1-1.3,1.4-2"/>
		<path class="st5" d="M151.6,113.1c-0.3,1-0.4,2.1-0.2,3.1"/>
		<path class="st5" d="M140,119.9c0.7,0.8,1.5,1.6,2.4,2.3"/>
		<path class="st5" d="M148.6,121.1l-0.2-0.5c1,0.6,1.9,1.4,2.6,2.4"/>
		<path class="st5" d="M152.9,123.7c0,0.1,0,0.2,0.1,0.3c0.4-0.7,0.7-1.5,0.8-2.3"/>
		<path class="st5" d="M158.4,122.7c-1.1,1.3-2.1,2.7-3.1,4.2"/>
		<path class="st5" d="M152.4,129.5l1.3,2.6"/>
		<path class="st5" d="M154.4,129.3l1.1,1.5"/>
		<path class="st5" d="M146.9,130.6l2.2,2.3"/>
		<path class="st5" d="M151.5,133.5c0,0.5,0.2,1,0.6,1.4"/>
		<path class="st5" d="M138.5,137.2c-0.1,0.4-0.2,0.8-0.4,1.2"/>
		<path class="st5" d="M128.9,131.8l1,1.4"/>
		<path class="st5" d="M131.4,131l1.2,1.5"/>
		<path class="st5" d="M123.1,134l1-1.5"/>
		<path class="st5" d="M129.4,123.9c0.1,1.1,0,2.2-0.3,3.2"/>
		<path class="st5" d="M158.8,115.7c1.2,0.7,2.2,1.6,3,2.7"/>
		<path class="st5" d="M164.1,119.3l0.3-2.1"/>
		<path class="st5" d="M166.3,117c-0.1,1-0.4,2-0.8,2.8"/>
		<path class="st5" d="M161.6,111.7c0.6-0.8,1.2-1.7,1.8-2.5"/>
		<path class="st5" d="M164.8,105.3l1.8,3.4"/>
		<path class="st5" d="M152.8,88.6c0.6,0.7,1.3,1.4,2.1,1.9"/>
		<path class="st5" d="M159,93.7c0.5-0.6,1.1-0.9,1.8-1.1"/>
		<path class="st5" d="M153,98.7c-0.1,1-0.2,2-0.4,3"/>
		<path class="st5" d="M138.7,95.6c0.9,0.2,1.9,0.1,2.8-0.1"/>
		<path class="st5" d="M140.6,93.1l1.6,1.1"/>
		<path class="st5" d="M116.8,98.8c1.1,0.7,2.1,1.5,3,2.4"/>
		<path class="st5" d="M118.8,97.6c0.6-0.6,1.1-1.2,1.7-1.9"/>
		<path class="st5" d="M124,92.8c0.5,1.1,1.2,2.1,2.2,2.8"/>
		<path class="st5" d="M129.9,94.9l3-0.3"/>
		<path class="st5" d="M122.4,104.4c0.2,1.4,0.4,2.7,0.6,4.1"/>
		<path class="st5" d="M126.7,107.8l1.6,0.6"/>
		<path class="st5" d="M110.7,106.6l-0.1-3.3"/>
		<path class="st5" d="M109.3,112.1c0.6-0.6,1.3-1.1,2-1.4"/>
		<path class="st5" d="M137,131.4l2.9-2.6"/>
		<path class="st5" d="M143.6,128.6l-1.7,4.7"/>
		<path class="st5" d="M136.9,112.7c1,0.9,1.8,2,2.6,3.1"/>
		<path class="st5" d="M149.2,117.3c0.8,0.8,1.6,1.4,2.5,2.1"/>
		<path class="st5" d="M134.4,90.8c0.9,1.3,1.8,2.6,2.8,3.7"/>
		<path class="st5" d="M141.9,90.7c0.7-1.1,1.3-2.2,1.7-3.4"/>
		<path class="st5" d="M139.9,82.8c0.7,1.1,1.4,2.2,2.1,3.3"/>
		<path class="st5" d="M146.5,83.8c0.9,1.5,1.9,2.9,3.1,4.2"/>
		<path class="st5" d="M148.4,89.5c-0.5,1.6-0.8,3.3-0.9,5"/>
		<path class="st5" d="M138,85.9l2,2.1"/>
		<path class="st5" d="M128.3,87.8c0.9,1.5,2.2,2.9,3.6,3.9"/>
		<path class="st5" d="M131.2,86.3c1.5,0.3,3,0.4,4.4,0.4"/>
		<path class="st5" d="M116.1,94.5c0.6-1.4,1.4-2.8,2.5-3.9"/>
		<path class="st5" d="M123.7,90.6l2-1.9"/>
		<path class="st5" d="M127.2,90.6c0.5,0.7,1.1,1.3,1.9,1.7"/>
		<path class="st5" d="M120.6,93.1c1.5,1.2,2.9,2.7,4,4.3"/>
		<path class="st5" d="M125.5,102c0.7-1.2,1.7-2.2,2.9-2.9"/>
		<path class="st5" d="M133.2,97.4l4.1,3"/>
		<path class="st5" d="M148.6,103.3c0.5-1.6,0.8-3.3,1-5"/>
		<path class="st5" d="M144.6,91.4c-0.1,1,0.2,2,0.7,2.9"/>
		<path class="st5" d="M150.6,91c0.6,1.4,1.3,2.7,2.3,3.8"/>
		<path class="st5" d="M156.1,101.8c0.9-1.7,2-3.3,3.4-4.6"/>
		<path class="st5" d="M162.7,97.1c-0.1,1.9-0.2,3.9-0.3,5.8"/>
		<path class="st5" d="M156,94.2l2.9-5.2"/>
		<path class="st5" d="M156.9,110.5l3.2-3.8"/>
		<path class="st5" d="M158.7,103.8l3.2,2.1"/>
		<path class="st5" d="M138.9,109c0.7,0.5,1.4,0.8,2.2,0.9"/>
		<path class="st5" d="M143.9,107.9c0.5,1.4,0.8,2.9,1,4.4"/>
		<path class="st5" d="M145.8,116c0.8-0.8,1.5-1.8,2.1-2.8"/>
		<path class="st5" d="M140.6,113c0.6,1,1.1,2.1,1.7,3.1"/>
		<path class="st5" d="M133.6,112.3c-1.5,0-3-0.3-4.4-0.9"/>
		<path class="st5" d="M130.6,116.6c1.3-0.5,2.8-0.9,4.2-0.9"/>
		<path class="st5" d="M134.2,123.2c0.7-1.1,1.2-2.3,1.6-3.6"/>
		<path class="st5" d="M123.3,115.1c1.8,1.2,3.4,2.7,4.9,4.2"/>
		<path class="st5" d="M126.9,104.6l2.6,0.9"/>
		<path class="st5" d="M130.1,103.1c0.3-1,0.8-2,1.4-2.9"/>
		<path class="st5" d="M115.6,106.6l1.3-2.5"/>
		<path class="st5" d="M113.8,99.5c0.1,2-0.2,4-1,5.9"/>
		<path class="st5" d="M121.9,101.1c0.3-0.6,0.6-1.2,0.8-1.8"/>
		<path class="st5" d="M111.8,116.2c1.1,0.8,2.3,1.4,3.6,1.8"/>
		<path class="st5" d="M115.5,114.2l2.8,2.8"/>
		<path class="st5" d="M120.3,112.8l-0.1,4.9"/>
		<path class="st5" d="M121.1,123.5l0.5-0.5"/>
		<path class="st5" d="M112.9,121.5c1.3-0.3,2.6-0.3,3.9-0.1"/>
		<path class="st5" d="M117.3,131.1l1.7-3.7"/>
		<path class="st5" d="M122.8,126.1c0.7,0.6,1.5,0.9,2.4,1"/>
		<path class="st5" d="M132.4,139.4l0.7-1.5"/>
		<path class="st5" d="M132.4,126.6l3,2.6"/>
		<path class="st5" d="M137.3,125.4c1.7,0.7,3.6,0.7,5.3-0.1"/>
		<path class="st5" d="M147.1,127.2l0.7-1"/>
		<path class="st5" d="M145.1,121.2c0.4,1.4,1,2.8,1.7,4.1"/>
		<path class="st5" d="M154.4,115.8c0.8,1.1,1.5,2.4,1.9,3.7"/>
		<path class="st5" d="M154.5,112.8l4.3,1.3"/>
		<path class="st5" d="M164.7,112.6c0.7,1.1,1.6,2,2.6,2.6"/>
		<path class="st5" d="M162.6,122.7c-0.6,1.9-1.4,3.8-2.4,5.5"/>
		<path class="st5" d="M146.5,136c1.1,0.6,2.1,1.3,3,2.2"/>
		<path class="st6" d="M167,111.5c-2.1,2.5-4.1,5.1-6,7.7c-1.8,2.6-3.9,5.1-6.2,7.4c-5,4.6-12.3,6.2-18.9,6.4
			c-3.4,0.1-6.9-0.2-10.2-1c-1.4-0.3-2.8-0.8-4.2-1.4c-1-0.6-2-1.3-2.8-2.1c-2.1-1.9-4-4.1-6.1-6c-1.1-1-2.9-2.7-4.7-2.9
			c0.2,1,0.5,1.9,0.8,2.8c2.2,6,6.3,11,11.8,14.3c6.2,3.7,13.3,4.4,20.3,3.9c3.5-0.2,7.3-0.4,10.7-1.6c3.1-1.1,5.7-3.1,7.7-5.8
			c2.1-2.7,3.8-5.7,5.1-8.9c1.5-3.3,2.5-6.8,3-10.3c0.1-1,0.2-2.1,0.2-3.1L167,111.5z"/>
		<path class="st9" d="M8.4,19.6c4.5,0.4,8.4-1.8,8.6-5L18,2C11.6,1.5,8.4,1.2,2,0.6C1.5,5.7,1.3,8.2,0.8,13.2
			C0.5,16.4,3.9,19.2,8.4,19.6z"/>
		<path class="st10" d="M24.6,20.9c4.4,0.3,8.2-2,8.4-5.1l0.8-12.7C27.5,2.7,24.3,2.5,18,2l-1,12.6C16.8,17.8,20.1,20.6,24.6,20.9z"
			/>
		<path class="st9" d="M40.8,21.9c4.5,0.2,8.3-2.1,8.4-5.2L49.8,4c-6.4-0.3-9.6-0.5-16-0.9L33,15.8C32.8,18.9,36.3,21.7,40.8,21.9z"
			/>
		<path class="st10" d="M57.1,22.7c4.5,0.2,8.2-2.2,8.3-5.4l0.4-12.7c-6.4-0.2-9.6-0.3-16-0.6l-0.6,12.7
			C49.1,19.8,52.6,22.5,57.1,22.7z"/>
		<path class="st9" d="M73.2,23.2c4.5,0.1,8.2-2.4,8.2-5.5L81.7,5c-6.4-0.1-9.6-0.2-16-0.4l-0.4,12.7C65.2,20.4,68.8,23.1,73.2,23.2
			z"/>
		<path class="st10" d="M89.6,23.5c4.6,0,8.3-2.5,8.3-5.6c0-5.1,0-7.6,0-12.7c-6.5,0-9.8,0-16.3-0.1l-0.2,12.7
			C81.4,20.8,85.1,23.4,89.6,23.5z"/>
		<path class="st9" d="M105.7,23.5c4.5,0,8.1-2.6,8-5.7c-0.1-5.1-0.1-7.6-0.2-12.7c-6.4,0.1-9.6,0.1-15.9,0.1v12.7
			C97.6,21,101.2,23.5,105.7,23.5z"/>
		<path class="st10" d="M122.2,23.2c4.6-0.1,8.3-2.8,8.2-5.9L130,4.7c-6.6,0.2-9.9,0.3-16.5,0.4c0.1,5.1,0.1,7.6,0.2,12.7
			C113.8,20.8,117.6,23.3,122.2,23.2z"/>
		<path class="st9" d="M138.1,22.7c4.5-0.2,8-2.9,7.8-6c-0.2-5.1-0.4-7.6-0.6-12.7c-6.4,0.3-9.5,0.4-15.9,0.6
			c0.1,5.1,0.2,7.6,0.4,12.7C130,20.5,133.7,22.9,138.1,22.7z"/>
		<path class="st10" d="M154.7,21.9c4.7-0.3,8.3-3,8.1-6.1L162,3.1c-6.7,0.4-10,0.6-16.6,0.9c0.2,5.1,0.4,7.6,0.6,12.7
			C146.1,19.8,150,22.2,154.7,21.9z"/>
		<path class="st9" d="M170.6,21c4.4-0.3,7.9-3.1,7.6-6.2c-0.4-5.1-0.6-7.6-1-12.6c-6.3,0.5-9.5,0.7-15.8,1.1
			c0.3,5.1,0.5,7.6,0.8,12.7C162.4,19,166.1,21.3,170.6,21z"/>
		<path class="st10" d="M187.2,19.6c4.7-0.4,8.3-3.3,8-6.4c-0.5-5.1-0.7-7.6-1.2-12.6c-6.7,0.6-10.1,0.9-16.8,1.5
			c0.4,5.1,0.6,7.6,1,12.6C178.4,17.8,182.4,20.1,187.2,19.6z"/>
		<path class="st11" d="M193.7,7C129.8,12.6,65.6,12.6,1.8,7l0.1-1.2c63.8,5.6,127.9,5.6,191.7,0L193.7,7z"/>
		<path class="st11" d="M194.2,12C130,17.6,65.5,17.6,1.3,11.9l0.1-1.2C65.5,16.3,130,16.3,194,10.7L194.2,12z"/>
		<g>
			<defs>
				<path id="SVGID_1_" d="M148.9,9c-23.6,0-50.1,1-68.7,0S3.5,1.6,3.5,1.6c-1,8.8,1.1,102.5,3,115.3s1.8,54.6,1.8,54.6
					c0,18.7,37.8,33.9,84.6,33.9s84.6-15.2,84.6-33.9L192.2,3.7C178.1,7.2,163.5,9,148.9,9z"/>
			</defs>
			<clipPath id="SVGID_2_">
				<use xlink:href="#SVGID_1_"  style="overflow:visible;"/>
			</clipPath>
			<g class="st12">
				
					<rect x="-14.8" y="86.6" transform="matrix(0.7071 -0.7071 0.7071 0.7071 -41.0609 107.8498)" class="st13" width="249" height="33.8"/>
				<polygon class="st13" points="-26.5,100.2 -29.9,90.6 64,64.3 162,15.6 138.9,41.4 66.1,99.5 				"/>
			</g>
		</g>
	</g>
</g>
<g>
	<g>
		<g>
			<g>
				
					<ellipse transform="matrix(0.1479 -0.989 0.989 0.1479 13.8095 155.652)" class="st14" cx="97.2" cy="69.8" rx="12.3" ry="12.8"/>
				
					<ellipse transform="matrix(0.1479 -0.989 0.989 0.1479 25.3707 188.2572)" class="st14" cx="121.9" cy="79.4" rx="12.3" ry="12.8"/>
				
					<ellipse transform="matrix(0.1479 -0.989 0.989 0.1479 10.9634 218.7433)" class="st14" cx="132.4" cy="103" rx="12.3" ry="12.8"/>
				
					<ellipse transform="matrix(0.1479 -0.989 0.989 0.1479 -20.8573 229.0074)" class="st14" cx="122.5" cy="126.6" rx="12.3" ry="12.8"/>
				
					<ellipse transform="matrix(0.1479 -0.989 0.989 0.1479 -51.1958 212.9545)" class="st14" cx="98" cy="136.2" rx="12.3" ry="12.8"/>
				
					<ellipse transform="matrix(0.1479 -0.989 0.989 0.1479 -62.0368 180.117)" class="st14" cx="73.5" cy="126.1" rx="12.3" ry="12.8"/>
				
					<ellipse transform="matrix(0.1479 -0.989 0.989 0.1479 -46.9426 149.9942)" class="st14" cx="63.6" cy="102.2" rx="12.3" ry="12.8"/>
				
					<ellipse transform="matrix(0.1479 -0.989 0.989 0.1479 -14.8765 140.4735)" class="st14" cx="74.1" cy="78.9" rx="12.3" ry="12.8"/>
			</g>
		</g>
		<ellipse transform="matrix(0.1479 -0.989 0.989 0.1479 -18.3927 184.6884)" class="st14" cx="98" cy="103" rx="38.1" ry="39.6"/>
		<ellipse transform="matrix(0.1479 -0.989 0.989 0.1479 -18.3927 184.6884)" class="st15" cx="98" cy="103" rx="31.2" ry="32.5"/>
	</g>
	<g>
		<path class="st2" d="M90.1,89.2l-1,23l-6-0.3l0.8-18.7L78.6,93l0.2-4.3L90.1,89.2z"/>
		<path class="st2" d="M99,111.6c-1.6-1-2.9-2.4-3.8-4.3c-0.9-1.8-1.3-4-1.1-6.4c0.1-2.5,0.7-4.6,1.7-6.3c1-1.7,2.4-3,4.1-3.9
			c1.7-0.9,3.7-1.3,5.8-1.2c2.2,0.1,4.1,0.7,5.7,1.7c1.6,1,2.9,2.4,3.8,4.3c0.9,1.8,1.3,4,1.1,6.4c-0.1,2.5-0.7,4.6-1.7,6.3
			c-1,1.7-2.4,3-4.1,3.9c-1.7,0.9-3.7,1.2-5.8,1.2C102.6,113.2,100.7,112.6,99,111.6z M108.8,107.1c1-1.2,1.5-3,1.6-5.5
			c0.1-2.5-0.3-4.4-1.1-5.6c-0.9-1.2-2.1-1.9-3.7-2c-1.6-0.1-2.8,0.5-3.8,1.6c-1,1.2-1.5,3-1.6,5.5c-0.1,2.5,0.3,4.4,1.1,5.6
			c0.9,1.2,2.1,1.9,3.6,2C106.5,108.8,107.8,108.3,108.8,107.1z"/>
	</g>
</g>
</svg>
