<svg viewBox="0 0 116 116" xmlns="http://www.w3.org/2000/svg"><path d="m109.94 78.9v-.47c0-.12 0-.25 0-.36s0-.46 0-.69 0-.36 0-.54 0-.36-.05-.55 0-.43-.07-.64 0-.34-.06-.51 0-.32-.06-.48l-.09-.68-.06-.38c0-.17-.05-.34-.08-.51s-.07-.42-.1-.63q-.12-.64-.24-1.26c-.08-.41-.16-.8-.25-1.2-.24-1-.51-2.09-.8-3.12-.05-.17-.1-.34-.16-.51-.31-1-.65-2.06-1-3.07l-.18-.48-.28-.73c-.07-.18-.15-.36-.22-.53l-.24-.57c-.08-.2-.17-.4-.26-.6l-.24-.54a51.61 51.61 0 0 0 -6.09-9.85l-.4-.51c-.52-.68-1.07-1.34-1.63-2s-1-1.1-1.48-1.63l-.07-.07-.74-.79c-.26-.27-.53-.53-.8-.79l-.46-.44a49.34 49.34 0 0 0 -30.58-13.44l-.61-.08-.64-.08-.8-.08-.7-.07h-.6l-.82-.06h-.7-.85-1.3a50.23 50.23 0 0 0 -50.23 50.1v1.47.48c0 .43 0 .85.06 1.28l.09 1.19.06.62c.09.94.21 1.86.36 2.78 0 .15 0 .3.07.46s.05.34.09.51v.25c0-.09 0-.17 0-.25h16.9c.08.23.16.47.25.7l-.25-.7h11.27l.12.22.14.27c-.08-.15-.16-.3-.23-.45h7.55l.16.09a3.06 3.06 0 0 0 1.13.35h.38a2.2 2.2 0 0 0 .88-.24l.09.11a1.14 1.14 0 0 0 .11.11 1.94 1.94 0 0 1 -.2-.21 1.21 1.21 0 0 0 .28-.21h8.77a9.14 9.14 0 0 0 4.33 0h9.88a1.36 1.36 0 0 0 .38.49l.36-.49h18.69s0 0 0 0h21.78a52.84 52.84 0 0 0 .5-7.27c0-.94 0-1.83-.06-2.72z" fill="#a9562d"/><path d="m14.52 85.45h-4.52c-.11-.81-.21-1.63-.28-2.46-.14-1.54-.2-3.11-.2-4.69a52 52 0 0 1 7.82-27.54 52.9 52.9 0 0 1 3.39-4.83 49.79 49.79 0 0 1 39.09-19.11c1.15 0 2.28 0 3.41.11a49.33 49.33 0 0 1 30.6 13.46l.46.44.8.79.78.81c.52.54 1 1.09 1.51 1.66s1.11 1.31 1.63 2c.14.16.27.33.4.51a51.84 51.84 0 0 1 5.91 9.86l.24.55c.09.2.18.39.26.59l.24.58c.07.17.15.34.22.52s.19.49.28.73l.18.49c.38 1 .72 2 1 3.06.06.17.11.34.16.51.29 1 .56 2.07.8 3.13.09.39.17.79.25 1.19l.24 1.26c0 .21.07.42.1.63s.06.34.08.52l.06.38.09.67c0 .16 0 .32.06.49s0 .33.06.5 0 .43.07.65 0 .36.05.55 0 .35 0 .53 0 .46 0 .69 0 .24 0 .36v.48c0 .88.06 1.78.06 2.68a52.69 52.69 0 0 1 -.5 7.26h-21.59-18.73l-.36.5a1.48 1.48 0 0 1 -.38-.5h-9.87a9.14 9.14 0 0 1 -4.33 0h-8.77a1.21 1.21 0 0 1 -.28.21l.09.11-.1-.12a2 2 0 0 1 -.88.24 1.63 1.63 0 0 1 -.38 0 3 3 0 0 1 -1.13-.34l-.16-.1h-7.54a2.4 2.4 0 0 0 .11.23l-.12-.23h-11.23c.08.24.17.47.25.71-.09-.24-.17-.47-.25-.71h-6.15" fill="#f08229"/><path d="m14.52 85.45h-7.75v.25-.25c0-.17-.06-.34-.09-.51s0-.31-.07-.46c-.15-.92-.27-1.84-.36-2.78l-.06-.62-.09-1.19c0-.42 0-.85-.06-1.28 0-.16 0-.32 0-.47 0-.49 0-1 0-1.47a50.22 50.22 0 0 1 50.18-50.22h1.3.85.7.82l.6.05.7.06.8.09.63.07.61.08 1.24.19.57.09.67.13 1.12.23a50 50 0 0 1 7.7 2.32c.62.24 1.25.51 1.87.78l.6.46.61.29.61.29.58.28a6.36 6.36 0 0 1 .58.3l.56.29.68.37 1.11.64 1.14.7.56.36.56.37.55.37.55.38.54.39.54.4.53.4.53.41.52.42c.35.28.68.56 1 .85l.51.43 1.07 1 .07.06.44.42.36.35c.16.15.32.3.47.46l.42.43s0 0 0 0c.16.17.32.33.47.5s.18.19.28.29l.27.29.27.31.42.47c.13.15.27.3.4.46a.36.36 0 0 1 .08.09l.42.5c.12.15.25.3.37.46t0 0l.4.51.42.54.52.68.39.55.47.66s0 0 0 0l.7 1a.05.05 0 0 1 0 0c.12.18.24.36.35.55s.35.53.51.8l.3.5.33.55.43.77c.21.36.41.74.6 1.11.3.57.58 1.14.86 1.71.09.19.17.38.26.58l.27.58c.08.19.17.39.25.59.26.58.5 1.17.73 1.77l.22.6c.07.2.15.4.22.61.22.61.42 1.23.62 1.85.12.39.23.79.35 1.18q.36 1.28.66 2.58l.12.56c0 .17.07.33.1.49s.08.35.11.53l.15.8c0 .17.06.35.08.52s.06.3.08.46l.06.4c.07.46.13.93.19 1.4 0 .22 0 .43.07.65s0 .48.07.72 0 .4 0 .6 0 .41 0 .62c0 .68.08 1.37.1 2.06v.53.83a50.83 50.83 0 0 1 -.76 8.78h-18-18.3l-.36.5a1.48 1.48 0 0 1 -.38-.5h-9.87a9.14 9.14 0 0 1 -4.33 0h-8.77a1.21 1.21 0 0 1 -.28.21l.09.11-.1.09a2 2 0 0 1 -.88.24 1.63 1.63 0 0 1 -.38 0 3 3 0 0 1 -1.13-.34l-.16-.1h-7.54a2.4 2.4 0 0 0 .11.23l-.12-.23h-11.23c.08.24.17.47.25.71-.09-.24-.17-.47-.25-.71h-6.15" fill="#feaa3b"/><g fill="#febb63"><path d="m14.52 85.45h-3.42a46.18 46.18 0 0 1 -.83-8.78 45.93 45.93 0 0 1 39.79-45.54 44.68 44.68 0 0 1 6.16-.41 45.85 45.85 0 0 1 19.52 4.33l.5.24q1.47.72 2.88 1.53a46.1 46.1 0 0 1 21.17 26.82 47.53 47.53 0 0 1 1.25 5.49 45.64 45.64 0 0 1 .62 7.53 46.18 46.18 0 0 1 -.84 8.78h-13.59-18.73l-.36.5a1.48 1.48 0 0 1 -.38-.5h-9.87a9.14 9.14 0 0 1 -4.33 0h-8.77a1.21 1.21 0 0 1 -.28.21l.09.11-.1-.1a2 2 0 0 1 -.88.24 1.63 1.63 0 0 1 -.38 0 3 3 0 0 1 -1.13-.34l-.16-.1h-7.54a2.4 2.4 0 0 0 .11.23l-.12-.23h-11.23c.08.24.17.47.25.71-.09-.24-.17-.47-.25-.71h-6.15" opacity=".25"/><path d="m94.37 76.67a38 38 0 0 1 -1 8.78h-5.64-18.73l-.36.5a1.48 1.48 0 0 1 -.38-.5h-9.87a9.14 9.14 0 0 1 -4.33 0h-8.77a1.21 1.21 0 0 1 -.28.21l.09.11-.1-.11a2 2 0 0 1 -.88.24 1.63 1.63 0 0 1 -.38 0 3 3 0 0 1 -1.13-.34l-.16-.1h-7.54a2.4 2.4 0 0 0 .11.23l-.12-.23h-11.23c.08.24.17.47.25.71-.09-.24-.17-.47-.25-.71h-4.57a38 38 0 0 1 -1-8.78 38.37 38.37 0 0 1 .9-8.15c.07-.32.14-.64.22-1a37.77 37.77 0 0 1 2.71-7.53c.44-.89.9-1.76 1.4-2.61q.51-.86 1.05-1.68a38.23 38.23 0 0 1 38.04-16.71c1 .16 2 .36 2.92.59a38.18 38.18 0 0 1 29.03 37.08z" opacity=".25"/><path d="m85.53 76.67a29.26 29.26 0 0 1 -1.34 8.78h-15.19l-.36.5a1.48 1.48 0 0 1 -.38-.5h-9.87a9.14 9.14 0 0 1 -4.33 0h-8.77a1.21 1.21 0 0 1 -.28.21l.09.11-.1-.11a2 2 0 0 1 -.88.24 1.63 1.63 0 0 1 -.38 0 3 3 0 0 1 -1.13-.34l-.16-.1h-7.54a2.4 2.4 0 0 0 .11.23l-.12-.23h-6.64a29.34 29.34 0 0 1 -1.26-7.38q0-.7 0-1.41a29.31 29.31 0 0 1 58.61 0z" opacity=".25"/><path d="m78.61 76.67a22.33 22.33 0 0 1 -1.79 8.78h-7.82l-.36.5a1.48 1.48 0 0 1 -.38-.5h-9.87a9.14 9.14 0 0 1 -4.33 0h-8.77a1.21 1.21 0 0 1 -.28.21l.09.11-.1-.11a2 2 0 0 1 -.88.24 1.63 1.63 0 0 1 -.38 0 3 3 0 0 1 -1.13-.34l-.16-.1h-6.82a22.15 22.15 0 0 1 -1.79-8.78 22.39 22.39 0 0 1 20.3-22.29c.68-.06 1.37-.1 2.06-.1a22.39 22.39 0 0 1 22.41 22.38z" opacity=".25"/><path d="m71.73 76.67a15.53 15.53 0 0 1 -1.39 6.43 16 16 0 0 1 -1.34 2.35l-.36.5a1.48 1.48 0 0 1 -.38-.5h-9.87a9.14 9.14 0 0 1 -4.33 0h-8.77a1.21 1.21 0 0 1 -.28.21l.09.11-.1-.11a2 2 0 0 1 -.88.24 1.63 1.63 0 0 1 -.38 0c-.11-.14-.21-.29-.31-.44a14.66 14.66 0 0 1 -1.43-2.58 15.31 15.31 0 0 1 -1.3-6.21 16.19 16.19 0 0 1 .13-2 14.87 14.87 0 0 1 .79-3.27 15.39 15.39 0 0 1 2.38-4.28 15.85 15.85 0 0 1 1.45-1.61 7.82 7.82 0 0 1 .6-.55 15.35 15.35 0 0 1 7.22-3.52 16.4 16.4 0 0 1 2.22-.26h.72a15.51 15.51 0 0 1 13.45 7.78 15.56 15.56 0 0 1 1.46 3.46 15.31 15.31 0 0 1 .61 4.25z" opacity=".25"/><path d="m65.27 76.67a9 9 0 0 1 -6.88 8.78 9.14 9.14 0 0 1 -4.33 0 9 9 0 0 1 -5.26-14 9 9 0 0 1 6.59-3.84h.82a9 9 0 0 1 9.06 9.06z" opacity=".25"/><circle cx="56.22" cy="76.67" opacity=".25" r="5.02" transform="matrix(.70710678 -.70710678 .70710678 .70710678 -37.75 62.21)"/><circle cx="56.22" cy="76.67" opacity=".25" r="2.37" transform="matrix(.70710678 -.70710678 .70710678 .70710678 -37.75 62.21)"/></g><path d="m13.43 83.17c.15.76.32 1.52.5 2.28h-3.67c-.19-.82-.35-1.64-.5-2.46a48.48 48.48 0 0 1 -.76-7.81v-.38c0-.41 0-.83 0-1.24v-.81c0-.16 0-.32 0-.47q0-.66.09-1.32c0-.19 0-.38 0-.56 0-.45.09-.9.15-1.34s.11-.83.18-1.24l.06-.35c0-.2.07-.41.11-.61a16.92 16.92 0 0 1 .64-1.86c.53-1.61 1.4-4 2.37-6.43 2.2-5.57 4.95-11.51 5.87-10.81a0 0 0 0 0 0 0s0 0 0 0v.09c-.14.3-.37.94-.66 1.81-.09.3-.2.62-.31 1-.27.84-.57 1.8-.89 2.84-1.54 5-3.44 11.74-3.61 13a48.36 48.36 0 0 0 -.46 7.38v.12 1.1c0 .42 0 .83.07 1.25v.62c0 .41.07.83.11 1.24 0 .21 0 .41.07.62l.07.62.09.66.09.59c.06.4.13.81.2 1.22v.11c.04.37.11.76.19 1.14z" fill="#9b390c"/><path d="m72.75 77.65v.43.25a16.55 16.55 0 0 1 -.75 4.22 17.34 17.34 0 0 1 -1.19 2.9h-1.81l-.36.5a1.48 1.48 0 0 1 -.38-.5h-1.86l.08-.08.21-.23c.07-.07.13-.15.2-.23s.26-.31.39-.47l.18-.24.18-.24.17-.25.19-.29c0-.07.09-.14.13-.22a1.65 1.65 0 0 0 .15-.25l.28-.53c.13-.25.24-.51.35-.77s.09-.23.13-.35 0-.16.08-.24a9.29 9.29 0 0 0 .3-1.12s0-.06 0-.09a7.59 7.59 0 0 0 .14-1.08 9 9 0 0 0 -.24-2.9 12.05 12.05 0 0 0 -2.83-5.11c-4.48-5-8.38-5.11-11.11-3.1a11.47 11.47 0 0 0 -4.07 7.88 10.3 10.3 0 0 0 0 1.75 2.11 2.11 0 0 0 0 .26v.36a.86.86 0 0 0 0 .17 4.34 4.34 0 0 0 .09.52 1.82 1.82 0 0 0 .07.25c0 .17.09.33.14.48s.06.16.09.24a4.73 4.73 0 0 0 .45.9 2.82 2.82 0 0 0 .24.36l.22.27.24.25.1.1.12.11a2.83 2.83 0 0 0 .28.2l.07.06a4.3 4.3 0 0 0 .8.41l.23.08.32.09h.14.11.1.14a3.56 3.56 0 0 0 .47 0h.32a8.27 8.27 0 0 0 2.18-.32l.26-.07.24-.08.25-.1a6 6 0 0 0 .68-.32l.2-.12a5.62 5.62 0 0 0 1.42-1.22l.13-.15.14-.19.13-.2a1.22 1.22 0 0 0 .12-.19 1 1 0 0 0 .08-.14 1.62 1.62 0 0 0 .1-.18 2.83 2.83 0 0 0 .16-.36 1.42 1.42 0 0 0 .08-.18l.06-.19a4.92 4.92 0 0 0 .22-.9 4.6 4.6 0 0 0 -3.5-4.98l-.45-.11h-.19-.21-.2-.46-.13-.05-.11l-.1.05a.7.7 0 0 0 -.31.69 2.57 2.57 0 0 0 .17.75s0 .09 0 .13l.05.14a.36.36 0 0 1 0 .09l.08.17c0 .06 0 .11.07.17l.18.34.09.17c.21.41.44.81.64 1.18l.09.16c.12.22.23.42.32.61 0 .07 0 .13.08.19a.49.49 0 0 1 0 .11 1.42 1.42 0 0 1 .09.3v.07a.44.44 0 0 1 0 .13c-.06.06-.17.07-.34 0h-.08-.06c-2-.54-3-1.48-3.28-2.49a1.3 1.3 0 0 1 -.07-.33c0-.11 0-.22 0-.33a2.59 2.59 0 0 1 .18-.7c0-.13.08-.25.13-.38l.08-.18a1.62 1.62 0 0 1 .1-.18l.23-.37a1.09 1.09 0 0 0 .13-.17l.15-.17.15-.16.1-.09.37-.31.18-.13.21-.13a5.08 5.08 0 0 1 1.9-.68l.27-.05h.35a5.74 5.74 0 0 1 .92 0h.23a4.05 4.05 0 0 1 .47.12l.24.08a2.87 2.87 0 0 1 .37.15l.19.09c.13.07.25.13.37.21s.25.16.37.24a8.58 8.58 0 0 1 1.39 1.25l.24.3c.08.1.15.2.21.29s.2.31.28.46.11.2.15.3.1.21.14.31.08.21.11.31l.09.32c0 .1 0 .21.07.31v.32.31.31a4.87 4.87 0 0 1 0 .66c-.5 4.07-5.41 7.88-9.76 7.29-5.09-.63-7.43-3.89-7.63-7.63a8.51 8.51 0 0 1 0-1c0-.16 0-.3 0-.45v-.26a9.32 9.32 0 0 1 .2-1.1l.06-.31a13.08 13.08 0 0 1 .38-1.36l.09-.27c.09-.25.19-.5.29-.75a.43.43 0 0 1 0 0c.08-.17.16-.35.25-.52a2.56 2.56 0 0 1 .11-.24v-.06c.09-.16.17-.32.26-.47l.14-.25c.1-.17.2-.34.31-.5s.22-.32.33-.47.35-.47.53-.7.25-.3.38-.44l.4-.42.21-.21.38-.35.13-.12.29-.24.17-.13a9.8 9.8 0 0 1 1-.73l.22-.13c.16-.1.33-.19.51-.28l.17-.09a10.69 10.69 0 0 1 1.45-.58l.25-.08.26-.07a9.77 9.77 0 0 1 1.43-.31h.23.29.27.56a12.91 12.91 0 0 1 5.49 1.31l.39.19.26.13.3.16h.07l.45.26c.16.09.31.19.46.29l.43.29.42.31a12.21 12.21 0 0 1 1.15 1l.32.31.07.06.29.33c.08.08.15.17.22.25.2.24.39.47.56.72l.17.24c.11.15.21.3.31.46a12 12 0 0 1 .81 1.5c.06.12.11.24.16.37s0 0 0 0 .12.28.17.43.11.28.15.43.1.29.14.44.09.29.13.44.07.3.11.45c.07.32.13.65.18 1v.38s0 .3.05.46 0 .53 0 .79v.25c.13.07.14.18.14.29z" fill="#9b390c"/><path d="m83.24 77.39a23.93 23.93 0 0 1 -1.24 8.06h-6.36l.12-.34c.08-.23.16-.46.23-.7s.07-.23.1-.34c.09-.28.16-.56.23-.84 0-.13.07-.26.1-.39q.12-.5.21-1c0-.15 0-.3.08-.44s0-.31.07-.46l.06-.46c0-.15 0-.31.05-.46s0-.31 0-.46 0-.23 0-.33v-.31c0-.11 0-.22 0-.33a2.53 2.53 0 0 0 0-.28c.4-11.49-7.47-23.05-21.93-19.3l-.96.29a16.5 16.5 0 0 0 -1.58.58 17 17 0 0 0 -6.47 5c-.16.2-.32.41-.47.62a18.57 18.57 0 0 0 -1.16 1.77 19.48 19.48 0 0 0 -2 5 17.74 17.74 0 0 0 -.47 2.7 16.81 16.81 0 0 0 -.06 2.24s0 .06 0 .08 0 .27 0 .4 0 .32 0 .48l.06.47.06.39a2.56 2.56 0 0 0 .05.27 2.93 2.93 0 0 0 0 .29c0 .15.07.31.1.46a13.26 13.26 0 0 0 1 2.67l.07.16a2.1 2.1 0 0 0 .13.26c.07.15.15.28.23.42s.14.25.22.37v.05l.18.29a1.3 1.3 0 0 1 .1.15l.24.32s0 0 0 0l.26.34v.06l.21.25.1.12.09.09a2 2 0 0 1 -.88.24 1.63 1.63 0 0 1 -.38 0 3 3 0 0 1 -1.13-.34l-.16-.1h-2.63a19.41 19.41 0 0 1 -2.52-9 21.05 21.05 0 0 1 .56-5.52c2.45-10.32 9-15.39 16.41-16.54a24.89 24.89 0 0 1 12.65 1.5c.38.14.74.29 1.11.45.74.32 1.46.67 2.17 1.05a24.09 24.09 0 0 1 2.07 1.24l.51.33a24.87 24.87 0 0 1 2.38 1.85c.31.26.61.53.9.8l.43.42c.24.24.48.49.71.74l.14.15c.47.52.92 1.05 1.34 1.6l.09.12a20.78 20.78 0 0 1 1.21 1.74l.07.1c.38.61.73 1.24 1 1.88v.09c.32.65.61 1.32.87 2v.09c.25.69.47 1.39.66 2.12v.07a20.45 20.45 0 0 1 .53 2.32 22.18 22.18 0 0 1 .19 2.33z" fill="#9b390c"/><path d="m93.28 77.76a34.44 34.44 0 0 1 -.46 5c-.14.91-.33 1.8-.55 2.68h-4.54c0-.19.09-.38.13-.58s.09-.41.13-.61c.05-.2.08-.41.12-.61.07-.42.14-.84.19-1.26a29.77 29.77 0 0 0 .3-3.64v-.14c.4-18.23-14.27-35.92-35.29-31.94a26.35 26.35 0 0 0 -7.67 2.68c-9.24 5-13.78 14.91-13.56 24.52v.14.55s0 .43 0 .65a28 28 0 0 0 1 5.7c.1.37.21.73.33 1.09l.09.25c.11.33.23.65.35 1s.19.47.28.7.15.34.23.52c.16.36.33.71.5 1.06h-5.23a31 31 0 0 1 -2.63-7.44 28 28 0 0 1 -.66-5.43c0-.38 0-.76 0-1.15v-.29c0-.11 0-.22 0-.33 0-.15 0-.31 0-.47v-.48q.06-.72.15-1.44c0-.16 0-.32.07-.48s0-.33.07-.49.05-.32.09-.48v-.25q.25-1.3.63-2.61c0-.12.07-.24.1-.36s.13-.4.19-.6.1-.32.16-.47a32.23 32.23 0 0 1 1.62-3.75l.27-.54.31-.56c.13-.25.27-.5.41-.74l.06-.11c.15-.24.29-.49.44-.74s.43-.7.67-1.05a36.61 36.61 0 0 1 3.65-4.74l.36-.38c.18-.2.38-.39.57-.58l.26-.27c.15-.15.29-.29.44-.42l.45-.43c.46-.42.93-.82 1.41-1.21l.52-.41.47-.36a5.74 5.74 0 0 1 .5-.36l.53-.38.52-.34.47-.3.61-.36.55-.32.54-.29.12-.06 1-.5.56-.25c.76-.34 1.53-.65 2.31-.91l.5-.16.64-.2.57-.16.55-.15.62-.14.59-.13 1.18-.22.59-.09c.59-.08 1.18-.14 1.78-.19.92-.08 1.84-.1 2.76-.09h.59.6.42.19.48l.59.05.62.07.58.07q.64.09 1.29.21l.46.08c.44.08.87.18 1.31.28l.5.12.23.06.43.11.69.19.7.21.25.09c.23.07.46.14.69.23l.81.29.81.31.8.32a37.85 37.85 0 0 1 4.64 2.45c.75.45 1.49.92 2.21 1.42l.72.51c.47.35.94.7 1.4 1.07l.66.54.65.55.66.59.49.46v.05l.34.33c.3.28.58.57.87.87l.46.48c.35.37.69.76 1 1.15a1.07 1.07 0 0 1 .14.16 0 0 0 0 0 0 0c.19.22.38.45.56.68s.56.7.83 1.06l.06.06.21.29a.94.94 0 0 0 .09.12c.14.2.29.4.43.61l.09.13.5.73a2.13 2.13 0 0 1 .16.25c.14.21.28.43.41.65a.36.36 0 0 1 .07.1l.41.68.11.2c.15.25.29.51.43.76s.32.6.48.9l.45.91.42.92c.12.27.24.54.35.82s.34.84.5 1.27l.3.85s0 .09 0 .14l.15.44c.07.24.15.48.22.72s.13.44.19.66l.15.57c.07.26.13.53.19.81a5.23 5.23 0 0 1 .12.54v.2s.07.35.1.53c.08.44.16.88.22 1.33a.06.06 0 0 1 0 0l.09.68c0 .22.06.45.08.67.05.47.09.93.12 1.4v.71.61q.33.82.31 1.58z" fill="#9b390c"/><path d="m103.86 78a46.27 46.27 0 0 1 -.76 7.5h-2.87a45.32 45.32 0 0 0 .68-4.89c0-.24 0-.48 0-.72s0-.46 0-.69v-.08c0-.14 0-.29 0-.44s0-.35 0-.52v-.45a43 43 0 0 0 -.62-8 42.13 42.13 0 0 0 -1.29-5.49 46.12 46.12 0 0 0 -20.39-26.34c-1-.57-2-1.11-3-1.59a37.2 37.2 0 0 0 -25-2.75c-1.07.25-2.15.56-3.23.91s-2 .69-2.93 1.1a36.84 36.84 0 0 0 -20.07 20.11c-.26.61-.49 1.23-.72 1.85s-.48 1.4-.69 2.12a41.59 41.59 0 0 0 -1.69 12.61v.82q0 1.45.21 2.91a38.72 38.72 0 0 0 .59 3.84c.05.28.11.54.17.81s.17.74.26 1.11c.32 1.25.69 2.5 1.13 3.72h-2.88c-.38-1.28-.7-2.57-1-3.88-.16-.78-.3-1.55-.42-2.34a46.78 46.78 0 0 1 -.54-6.69v-1.11q0-.57 0-1.14c0-.16 0-.31 0-.46 0-.43 0-.87.07-1.3a45.53 45.53 0 0 1 1.68-9.41c.11-.38.22-.74.34-1.11a41.6 41.6 0 0 1 3.16-7.4l.32-.57.33-.57c.33-.57.68-1.12 1-1.67l.36-.55c.25-.36.5-.72.76-1.07l.4-.53c.13-.18.27-.35.4-.52s.27-.35.42-.52.27-.34.42-.51.28-.33.42-.49c.29-.34.59-.67.9-1l.46-.48c.43-.45.87-.88 1.33-1.3l.33-.31.41-.36a38.77 38.77 0 0 1 3.19-2.46l.54-.37.65-.44.54-.35.59-.37c.55-.33 1.1-.65 1.65-1l.53-.29.16-.09.54-.28c1.09-.55 2.18-1.05 3.28-1.5l.59-.24.85-.32.78-.27.47-.16.47-.15 1.34-.4h.12l.68-.19.74-.18 1.25-.28.42-.08c.55-.1 1.11-.19 1.67-.27l.45-.06c.59-.08 1.18-.14 1.78-.19l.55-.05h.29.43.16.45.78.75 1.73.19l.86.05.92.08c.3 0 .6.06.89.09l.9.12h.08l.84.13c.3 0 .61.1.91.16l.75.14.48.1h.06q.45.09.9.21l.5.12.88.23.92.27.84.27 1 .35.62.23h.12l.82.32.57.23c.15 0 .29.12.43.18.68.29 1.35.6 2 .92l.58.29 1.07.56.45.24q.72.4 1.44.84l.7.43 1 .64.59.4.63.45.37.26q1.3.95 2.55 2l.3.26.62.54c.17.14.34.29.5.45.33.29.64.58 1 .88l.58.56.58.59.5.52.35.37.36.4.27.3c.17.18.34.37.5.56l.6.71.57.7.06.08c.18.22.36.45.53.68s.29.37.43.56l.2.27.41.57c.77 1.08 1.49 2.18 2.16 3.32.17.27.33.54.49.82l.43.77c.17.31.33.62.49.93l.42.84.06.11.36.76c.13.29.27.58.4.88s.25.58.38.88l.36.89c.24.58.46 1.18.67 1.77a1.55 1.55 0 0 0 .08.23c.18.55.36 1.11.53 1.67.09.29.18.59.26.88v.12l.24.87.12.47c.07.24.12.49.18.74s.11.5.16.75c.11.49.21 1 .3 1.5l.12.71c.07.46.14.92.2 1.38v.43s0 .36.07.55c.14 1.28.22 2.56.26 3.82.19.88.19 1.63.17 2.43z" fill="#9b390c"/><g fill="#5e1100" opacity=".25"><path d="m64.84 65.33c-10.13-4.73-17.51 4.36-17.04 11.67.43-7 7.52-14.77 17-10.33a13.09 13.09 0 0 1 7.89 11.67 13.18 13.18 0 0 0 -7.85-13.01z"/><path d="m57 73.84c-.64.69.64 2.67 1.37 4h.08c1.21.38-.86-2.22-1.45-4z"/><path d="m62.47 72c-3.75-2.71-8.27.63-7.48 3.4a4.08 4.08 0 0 1 1.8-2.28c0-.66.4-1 1.78-.7a4.94 4.94 0 0 1 3.9.91 6 6 0 0 1 2.72 4.13 5.71 5.71 0 0 0 -2.72-5.46z"/><path d="m58.36 83.6a5.52 5.52 0 0 0 4.27-5.95 5.67 5.67 0 0 1 -4.27 4.61c-4.7 1.26-6.83-1.44-7.06-5-.3 4.16 1.78 7.74 7.06 6.34z"/><path d="m13.43 83.17c.15.76.32 1.52.5 2.28h-.3c-.07-.31-.14-.63-.2-.94a50.07 50.07 0 0 1 -1-10.52v1.1c0 .42 0 .83.07 1.25v.62c0 .41.07.83.11 1.24 0 .21 0 .41.07.62s0 .41.07.62l.09.66.09.59c.06.4.13.81.2 1.22v.11c.15.38.22.77.3 1.15z"/><path d="m100.91 81.9c-.1 1.2-.25 2.39-.44 3.55h-.24a45.32 45.32 0 0 0 .68-4.89c0-.24 0-.48 0-.72s0-.46 0-.69v-.08c0-.14 0-.29 0-.44s0-.35 0-.52v-.39c.16 1.38.09 2.78 0 4.18z"/><path d="m37.83 37.5c28.27-17.21 62.34 4.59 65.76 35.71.16 1.5.25 3 .27 4.45a47.05 47.05 0 0 0 -.27-5.78c-3.42-31.12-37.49-52.88-65.76-35.71-13 7.91-19.18 22.23-19 36.47.17-13.79 6.4-27.47 19-35.14z"/><path d="m9.69 68.19c.38-2 5.91-16.82 8.16-18.91a5.14 5.14 0 0 1 .63-1.52c-1.57-1.23-8.36 16.83-8.79 19.1a42 42 0 0 0 -.69 8.33 41.73 41.73 0 0 1 .69-7z"/><path d="m31.54 55.26a30.16 30.16 0 0 0 -5.25 17.39 30.56 30.56 0 0 1 5.25-16.06c19.35-29.54 61.11-9.48 61.74 21.17.58-31.4-42.11-52.47-61.74-22.5z"/><path d="m45 85.66a1.37 1.37 0 0 0 .2.22 2.09 2.09 0 0 1 -.2-.22 2 2 0 0 1 -.88.24l-.31-.45a13.28 13.28 0 0 1 -1.29-2.62 15 15 0 0 1 -.81-5.59s0 .06 0 .08 0 .27 0 .4 0 .32 0 .48l.06.47.06.39a2.56 2.56 0 0 0 .05.27v.29s.07.31.1.46a13.26 13.26 0 0 0 1 2.67l.07.16a2.1 2.1 0 0 0 .13.26c.07.15.15.28.23.42l.22.37v.05l.18.29a1.3 1.3 0 0 1 .1.15l.24.32s0 0 0 0l.26.34v.06l.21.25.1.12z"/><path d="m69.6 79.88a10.28 10.28 0 0 1 -2.08 5.57h-1.12l.08-.08.21-.23c.07-.07.13-.15.2-.23s.26-.31.39-.47l.18-.24.18-.24.17-.25.19-.29c0-.07.09-.14.13-.22l.15-.25.28-.53c.13-.25.24-.51.35-.77s.09-.23.13-.35 0-.16.08-.24a9.29 9.29 0 0 0 .3-1.12s0-.06 0-.09a7.59 7.59 0 0 0 .14-1.08 8.23 8.23 0 0 1 .04 1.11z"/><path d="m23.67 85.45c.08.24.17.47.25.71-.09-.24-.17-.47-.25-.71h-.45c-.36-1.16-.68-2.34-.95-3.53-.16-.74-.3-1.48-.42-2.23a42.35 42.35 0 0 1 -.57-7.45v-.15a42.8 42.8 0 0 0 .83 7.72c.06.27.12.54.17.81s.17.74.27 1.1c.31 1.28.69 2.5 1.12 3.73z"/><path d="m88 85.45h-.28c0-.19.08-.38.13-.58s.09-.41.13-.61l.12-.61c.07-.42.14-.84.19-1.26a29.93 29.93 0 0 0 .3-3.78v.14a31.85 31.85 0 0 1 -.59 6.7z"/><path d="m34.91 85.45c.07.16.15.31.23.46l-.24-.46h-.62a27.5 27.5 0 0 1 -2.2-11.45v-.1a27.65 27.65 0 0 0 2.09 10c.08.17.15.34.23.52.16.32.33.68.51 1.03z"/><path d="m76.08 85.45h-.44l.12-.34c.08-.23.16-.46.23-.7s.07-.23.1-.34c.09-.28.16-.56.23-.84 0-.13.07-.26.1-.39q.12-.5.21-1c0-.15 0-.3.08-.44s0-.31.07-.46l.06-.46c0-.15 0-.31.05-.46s0-.31 0-.46v-.33-.31c0-.11 0-.22 0-.33a2.62 2.62 0 0 0 0-.28.76.76 0 0 0 0-.15 23.18 23.18 0 0 1 -.81 7.29z"/><path d="m37.75 70.92a21.1 21.1 0 0 0 -.56 5.52 22 22 0 0 1 .56-4.19c6.73-28.43 44.77-17 45.49 6.34.76-24.23-38.63-36.59-45.49-7.67z"/></g><g fill="#802a15" opacity=".25"><path d="m14.52 85.45a3.36 3.36 0 0 1 .86-3.86c1.53-1.19 2.45 1.79 2.14 3.86"/><path d="m26 66.72c1.26-.23 2.2 3.45.75 4.08s-2.34-3.8-.75-4.08z"/><path d="m45.29 85.45a1.21 1.21 0 0 1 -.28.21 2 2 0 0 1 -.88.24 1.63 1.63 0 0 1 -.38 0 3 3 0 0 1 -1.13-.34l-.16-.1c-1.64-1-1.6-2.3-.45-2.57a1.7 1.7 0 0 1 .52 0 2.68 2.68 0 0 1 .6.08 4.73 4.73 0 0 1 1 .37c1.58.66 1.71 1.58 1.16 2.11z"/><path d="m45 64.61c3.09.55 3.12 4.27-.25 2.9s.25-2.9.25-2.9z"/><path d="m21.77 57.56c2.75-1 2.57 1.27 1 2.17s-3.56-1.21-1-2.17z"/><path d="m48.78 31.86c3.11-.43 1.7 4.29.06 3.84s-2.84-3.45-.06-3.84z"/><path d="m37.2 48.15c1.54-2.53 4.19.84 3.51 2.09s-5.81 1.68-3.51-2.09z"/><path d="m56.59 48.94c4.83-.74 4.52 3.4.58 3.87s-4.75-3.23-.58-3.87z"/><path d="m64.47 37.31c1.62 0 2 3-.56 2.59s-1.64-2.56.56-2.59z"/><path d="m70.06 70c1.41 2.61-2.32 2.91-2.87.65s1.1-3.97 2.87-.65z"/><path d="m84 54.24c2.81-.51 3.23 2.77 0 2.36s-2.56-1.9 0-2.36z"/><path d="m100.12 63.71c2.69-1 4.13 6.2-.7 6.09s-2.42-4.89.7-6.09z"/><path d="m73.29 85.45h-4.29l-.36.5a1.48 1.48 0 0 1 -.38-.5c-.29-.68.19-1.57 2.07-2.35a13.23 13.23 0 0 1 1.67-.55l.24-.06c2.04-.49 2.31 1.58 1.05 2.96z"/></g><g fill="#ffa08a" opacity=".25"><path d="m21 53.23c2.61 0-.36 5.23-2.34 5.12s-.8-5.17 2.34-5.12z"/><path d="m38.67 48.32c1.12.61-.46 4.07-2 3.66s.54-4.45 2-3.66z"/><path d="m22.18 79.84c2.08 1-.4 3.68-2.69 1.47s.27-2.64 2.69-1.47z"/><path d="m39.78 73.39c1 2.31 4 2.2 2.62-.8s-3.77-1.91-2.62.8z"/><path d="m54.78 58.58c2.06 2.37-.24 5.29-2 2.11s2-2.11 2-2.11z"/><path d="m41.08 38.51c2.8.92 1.2 2.6-.55 2.35s-2.05-3.2.55-2.35z"/><path d="m78.24 35.42c2.68 1.61-1.37 4.41-2.37 3s-.05-4.42 2.37-3z"/><path d="m59 40.85c2.79-1 2.73 3.29 1.42 3.83s-5.57-2.33-1.42-3.83z"/><path d="m73.61 53.63c4.23 2.45 1.39 5.48-2 3.38s-1.61-5.5 2-3.38z"/><path d="m87 49.51c1.27 1-.33 3.57-2.06 1.66s.37-3.02 2.06-1.66z"/><path d="m70.93 78.45c-.54 2.92-3.64.81-2.65-1.29s3.32-2.38 2.65 1.29z"/><path d="m91.61 74.92c2.51 1.36.79 4.18-1.45 1.85s-.8-3.07 1.45-1.85z"/></g><path d="m106.44 76.67a50.83 50.83 0 0 1 -.76 8.78h-2.94a51.35 51.35 0 0 0 1.12-7.5c.09-1.23.14-2.47.14-3.73a50 50 0 0 0 -11.66-32.16c-.6-.72-1.22-1.42-1.85-2.1l.45.43.46.44.84.85s0 0 0 0c.44.46.87.92 1.29 1.39l.42.47.48.55a50.12 50.12 0 0 1 5.68 8.2c.21.36.41.74.6 1.11.3.57.58 1.13.86 1.71.09.19.17.38.26.58l.27.58c.08.19.17.39.25.59.25.58.49 1.17.73 1.77l.22.6c.07.2.15.4.22.61.22.61.42 1.23.62 1.85.12.39.23.79.35 1.18q.36 1.28.66 2.58l.12.56c0 .17.07.33.1.49s.08.35.11.53l.15.8c0 .17.06.35.08.52s.06.3.08.46l.06.4c.07.46.13.93.19 1.4 0 .22 0 .43.07.65s0 .48.07.72 0 .4 0 .6 0 .41 0 .62c0 .68.08 1.37.1 2.06v.53z" fill="#800000" opacity=".25"/><path d="m110 78.19a52.69 52.69 0 0 1 -.5 7.26h-2.45a52.59 52.59 0 0 0 .84-9.37 51.82 51.82 0 0 0 -14.06-35.69l.46.44q1.62 1.56 3.09 3.26c.56.65 1.11 1.31 1.63 2 .14.16.27.33.4.51a51.84 51.84 0 0 1 5.91 9.86l.24.55c.09.2.18.39.26.59l.24.58c.07.17.15.34.22.52s.19.49.28.73l.18.49c.38 1 .72 2 1 3.06.06.17.11.34.16.51.29 1 .56 2.07.8 3.13.09.39.17.79.25 1.19l.24 1.26c0 .21.07.42.1.63s.06.34.08.52l.06.38.09.67c0 .16 0 .32.06.49s0 .33.06.5 0 .43.07.65 0 .36.05.55 0 .35 0 .53 0 .46 0 .69 0 .24 0 .36v.48c.24.87.24 1.77.24 2.67z" fill="#800000" opacity=".25"/><path d="m94.47 44.13q-1-1.07-2.13-2.07a50.22 50.22 0 0 0 -71.57 3.84c-1.09 1.24-2.11 2.52-3.08 3.86-.64.9-1.26 1.82-1.85 2.76a50.71 50.71 0 0 0 -3.21 6 50.37 50.37 0 0 0 -2.4 6.48c-.24.81-.45 1.63-.65 2.46a50.1 50.1 0 0 0 -1.36 11.65 50.9 50.9 0 0 0 .4 6.34h-1.85c0-.17-.06-.34-.09-.51s0-.31-.07-.46c-.15-.92-.27-1.84-.36-2.78l-.06-.62-.09-1.19c0-.42 0-.85-.06-1.28 0-.16 0-.32 0-.47 0-.49 0-1 0-1.47a50.22 50.22 0 0 1 50.18-50.22h1.3.85.7.82l.6.05.7.06.8.09.63.07.61.08 1.24.19.57.09.67.13 1.12.23a50 50 0 0 1 7.7 2.32c.62.24 1.25.51 1.87.78l.6.46.61.29.61.29.58.28a6.36 6.36 0 0 1 .58.3l.56.29.68.37 1.11.64 1.14.7.56.36.56.37.55.37.55.38.54.39.54.4.53.4.53.41.52.42c.35.28.68.56 1 .85l.51.43 1.14 1 .45.43.36.35.1.09.37.37.47.48s0 0 0 0c.44.46.87.92 1.29 1.39l.42.47z" fill="#800000" opacity=".25"/><path d="m59.11 68c-4.45 0-8.11-4.22-8.11-9.35a1.54 1.54 0 0 1 3.08 0c0 3.43 2.24 6.23 5 6.23s5-2.8 5-6.23a1.54 1.54 0 1 1 3.08 0c.03 5.13-3.6 9.35-8.05 9.35z" fill="#4a2d29"/><path d="m45.62 60.49c0 1.24-2.1 2.24-4.7 2.24s-4.7-1-4.7-2.24 2.1-2.25 4.7-2.25 4.7 1 4.7 2.25z" fill="#fff"/><path d="m81.39 60.49c0 1.24-2.11 2.24-4.7 2.24s-4.7-1-4.7-2.24 2.1-2.25 4.7-2.25 4.7 1 4.7 2.25z" fill="#fff"/><path d="m44.8 60.28a2.66 2.66 0 0 1 -2.65-2.66v-5.31a2.66 2.66 0 0 1 2.65-2.66 2.67 2.67 0 0 1 2.66 2.66v5.31a2.66 2.66 0 0 1 -2.66 2.66z" fill="#4a2d29"/><path d="m73.82 60.28a2.66 2.66 0 0 1 -2.65-2.66v-5.31a2.66 2.66 0 0 1 2.65-2.66 2.67 2.67 0 0 1 2.66 2.66v5.31a2.66 2.66 0 0 1 -2.66 2.66z" fill="#4a2d29"/></svg>