<svg viewBox="0 0 116 116" xmlns="http://www.w3.org/2000/svg"><ellipse cx="58" cy="58" fill="#f39c4d" rx="52" ry="33.51"/><path d="m76.17 89.4a78.65 78.65 0 0 1 -15.17 1.46c-28.72 0-52-15-52-33.51 0-14.35 14-26.65 33.79-31.35-21.29 4.14-36.79 16.9-36.79 32 0 18.51 23.28 33.51 52 33.51a77.94 77.94 0 0 0 18.17-2.11z" fill="#a66b35"/><path d="m60.94 87.72c-27.1 0-49.07-14.15-49.07-31.61s22-31.62 49.07-31.62 49.06 14.16 49.06 31.62-22 31.61-49.06 31.61z" fill="#f7ae51"/><path d="m34 70.55c1-4.79-2.19-9.59-8.32-12.37-2.68-1.18-5.26-1.83-6.81-.83-4.15 2.68 2.07 13.8 7 16.66 3.62 2.14 6.85 2.7 8.13-3.46z" fill="#f39c4d" opacity=".32"/><path d="m81.46 78.72s-9.81-6-16.79-4.71-21.16 9.49-12.67 10.05 31-1.49 29.46-5.34z" fill="#f39c4d" opacity=".32"/><path d="m33.15 43.44c-1.5 0-2.72-.78-2.72-1.75s1.22-1.76 2.72-1.76 2.73.79 2.73 1.76-1.22 1.75-2.73 1.75z" fill="#f39c4d"/><path d="m50.12 32.14c-.93 0-1.69-.49-1.69-1.09s.76-1.05 1.69-1.05 1.68.48 1.68 1.08-.75 1.06-1.68 1.06z" fill="#f39c4d"/><path d="m101.25 64.36c-1.43 0-2.59-.75-2.59-1.67s1.16-1.69 2.59-1.69 2.6.75 2.6 1.68-1.16 1.68-2.6 1.68z" fill="#f39c4d"/><path d="m85.82 38.53c-1 0-1.74-.51-1.74-1.13s.78-1.12 1.74-1.12 1.75.5 1.75 1.12-.78 1.13-1.75 1.13z" fill="#f39c4d"/><path d="m83.41 51.84c-1.06 0-1.93-.56-1.93-1.25s.87-1.24 1.93-1.24a20.64 20.64 0 0 1 4.21 1.24 20.52 20.52 0 0 1 -4.21 1.25z" fill="#ffe05f"/><path d="m58.32 41.07a2.31 2.31 0 0 1 2.45-.78c1 .21 1.56.92 1.22 1.57s-3.17 2.14-3.17 2.14-.82-2.28-.5-2.93z" fill="#ffca53"/><path d="m84 62.5c.7.53.6 1.31-.21 1.76a2.69 2.69 0 0 1 -2.72-.14c-.7-.52-1.27-2.87-1.27-2.87a20.88 20.88 0 0 1 4.2 1.25z" fill="#ffe05f"/><path d="m46.21 64a2.74 2.74 0 0 1 -2.73-.09 1 1 0 0 1 .14-1.76 22.55 22.55 0 0 1 4.38-.94s-1 2.28-1.79 2.79z" fill="#ffca53"/><path d="m66.76 70.24c.46.62.07 1.36-.89 1.66a2.49 2.49 0 0 1 -2.59-.57c-.47-.62-.11-3-.11-3s3.12 1.29 3.59 1.91z" fill="#ffe05f"/><path d="m35.15 50.19c-.69-.52-.6-1.3.2-1.75a2.74 2.74 0 0 1 2.73.13c.69.52 1.28 2.86 1.28 2.86a21 21 0 0 1 -4.21-1.24z" fill="#ffe05f"/><g fill="#ffca53"><path d="m72.55 38.55c-1-.18-1.63-.87-1.34-1.53a2.22 2.22 0 0 1 2.38-.87 16 16 0 0 1 3.53 1.93 23.31 23.31 0 0 1 -4.57.47z"/><path d="m43 34.67a2.59 2.59 0 0 1 2.65-.43c.91.35 1.21 1.11.67 1.7s-3.82 1.69-3.82 1.69-.01-2.37.5-2.96z"/><path d="m95.06 53.14a2.62 2.62 0 0 1 2.65-.43c.92.35 1.22 1.12.67 1.71s-3.81 1.69-3.81 1.69-.05-2.38.49-2.97z"/><path d="m60.54 54a2.62 2.62 0 0 1 2.65-.43c.92.36 1.22 1.12.67 1.71s-3.81 1.72-3.81 1.72-.05-2.36.49-3z"/><path d="m44 71.14a2.59 2.59 0 0 1 2.65-.43c.91.35 1.21 1.11.66 1.7s-3.81 1.69-3.81 1.69-.08-2.37.5-2.96z"/><path d="m34.33 57.15a2.62 2.62 0 0 1 2.67-.43c.92.35 1.22 1.12.67 1.71s-3.81 1.69-3.81 1.69-.07-2.38.47-2.97z"/><path d="m19.05 55.68a2.59 2.59 0 0 1 2.65-.43c.92.35 1.22 1.11.67 1.7s-3.82 1.69-3.82 1.69-.05-2.37.5-2.96z"/><path d="m84.28 70.85a2.61 2.61 0 0 1 2.65-.43c.91.35 1.21 1.12.67 1.71s-3.82 1.69-3.82 1.69-.05-2.38.5-2.97z"/></g><path d="m61.5 79.59a2.61 2.61 0 0 1 2.65-.43c.91.35 1.21 1.12.66 1.71s-3.81 1.69-3.81 1.69 0-2.38.5-2.97z" fill="#ffe05f"/><path d="m60.5 71.63c-6.63 0-12-6.22-12-13.86a2.29 2.29 0 1 1 4.58 0c0 5.12 3.34 9.28 7.45 9.28s7.47-4.16 7.47-9.28a2.29 2.29 0 0 1 4.58 0c-.04 7.64-5.44 13.86-12.08 13.86z" fill="#a54760"/><path d="m40.4 60.51c0 1.85-3.13 3.35-7 3.35s-7-1.5-7-3.35 3.14-3.35 7-3.35 7 1.5 7 3.35z" fill="#fff"/><path d="m93.69 60.51c0 1.85-3.13 3.35-7 3.35s-7-1.5-7-3.35 3.13-3.35 7-3.35 7 1.5 7 3.35z" fill="#fff"/><path d="m39.18 60.21a4 4 0 0 1 -4-4v-7.88a4 4 0 0 1 4-4 4 4 0 0 1 4 4v7.92a4 4 0 0 1 -4 3.96z" fill="#a54760"/><path d="m82.43 60.21a4 4 0 0 1 -4-4v-7.88a4 4 0 0 1 4-4 4 4 0 0 1 4 4v7.92a4 4 0 0 1 -4 3.96z" fill="#a54760"/></svg>