<svg viewBox="0 0 116 116" xmlns="http://www.w3.org/2000/svg" xmlns:xlink="http://www.w3.org/1999/xlink"><linearGradient id="a" gradientUnits="userSpaceOnUse" x1="18.87" x2="89.54" y1="116.6" y2="50.37"><stop offset="0" stop-color="#e04f00"/><stop offset="1" stop-color="#ff5100"/></linearGradient><linearGradient id="b" x1="6.78" x2="6.2" xlink:href="#a" y1="81.87" y2="82.34"/><path d="m109.85 82.38a4.85 4.85 0 0 0 -.9-2.92s-.79.16-.82.13l-.25-.26-45.23-45.22-.58-.58a5.57 5.57 0 0 0 -7.87 0l-.58.58-45.49 45.48a.41.41 0 0 0 -.11.12l-1.1-.07c-.82.82-.92 2.8-.92 4.36a1.56 1.56 0 0 0 1.57 1.55h100.75a1.59 1.59 0 0 0 1.6-1.66c-.03-.69-.06-1.39-.07-1.51z" fill="#4d2119"/><path d="m6.29 82.61h103.56a6.26 6.26 0 0 0 -.18-1.49 6.56 6.56 0 0 0 -1.45-2.91.53.53 0 0 0 -.09-.11l-.25-.25-45.23-45.23-.58-.62a5.57 5.57 0 0 0 -7.87 0l-.58.58-45.62 45.64-.29.3a5.78 5.78 0 0 0 -1.71 4.09h.27z" fill="#9b2c0e"/><path d="m6.29 82.61h8.71l40-39.91a6.37 6.37 0 0 1 9 0l16.54 16.55 2.86 2.88 20.5 20.48h6.1a1.43 1.43 0 0 0 0-.29v-.06a5 5 0 0 0 -.06-.54 5.84 5.84 0 0 0 -.18-.83 5.91 5.91 0 0 0 -1.51-2.68.53.53 0 0 0 -.09-.11l-.25-.25-45.26-45.23a6.39 6.39 0 0 0 -9 0l-45.52 45.48-.13.12a6.07 6.07 0 0 0 -1.58 3c-.05.23-.09.46-.12.7a5.19 5.19 0 0 0 -.05.68z" fill="url(#a)" opacity=".1"/><path d="m6.44 81.23a5.88 5.88 0 0 0 .56 1.38h-.71c0-.22 0-.46 0-.68s.1-.47.15-.7z" fill="url(#b)" opacity=".3"/><g fill="#f7b737"><path d="m72.52 58.8c-.12 3.05-1.91 1.25-3.81 2s-5.56-1.11-5.36-2.91 4.37-1.63 5.31-2.37 3.99-.11 3.86 3.28z"/><path d="m71.4 75.82c.76 2.21-2.09 1.37-3.1 2.66s-2.87.24-1.75-2.55 4.06-2.39 4.85-.11z"/><path d="m33.71 62c-.3 1.64-2 2.44-3.21 1.28s-.58-3.67.52-4.47 3.1.99 2.69 3.19z"/><path d="m84.94 60c-.15 3.17-2.74 1.78-3.67 2.48s-2.72-.89-1.6-2.48 5.33-2 5.27 0z"/><path d="m52.29 56.25c.19 3.07-4.27 5-6.59 5s-5.07-.85-3.5-3.87 9.95-3.19 10.09-1.13z"/><path d="m61.14 68.3c-.11 3.45-3.21 5.39-5.22 2.76s-1.64-5 .52-5.65 4.78.59 4.7 2.89z"/><path d="m88.66 80.66c-1.08 2-4.47 1.92-3.5-1.64s1.85-8 3.5-5.72.25 6.89 0 7.36z"/><path d="m31.89 80.05c-1.09 2-4.48 1.93-3.51-1.63s1.85-8 3.51-5.72.24 6.89 0 7.35z"/></g><path d="m58.19 74.92a8 8 0 0 1 -8.07-8 1.46 1.46 0 0 1 1.45-1.46l13.13-.08a1.45 1.45 0 0 1 1.46 1.44 8 8 0 0 1 -7.97 8.1z" fill="#4d2119"/><path d="m42.53 66.61a2.89 2.89 0 0 1 -2.91-2.87v-5a2.91 2.91 0 0 1 2.88-2.92 2.9 2.9 0 0 1 2.92 2.88v5a2.9 2.9 0 0 1 -2.89 2.91z" fill="#4d2119"/><path d="m73.82 66.41a2.91 2.91 0 0 1 -2.92-2.88v-5a2.91 2.91 0 0 1 2.88-2.91 2.91 2.91 0 0 1 2.92 2.87v5a2.91 2.91 0 0 1 -2.88 2.92z" fill="#4d2119"/></svg>