<svg viewBox="0 0 116 116" xmlns="http://www.w3.org/2000/svg"><path d="m89.94 82c-22.66 10.37-55.33 8-72.94-5.29s-13.6-32.41 9.06-42.71 55.33-8 72.94 5.29 13.6 32.41-9.06 42.71z" fill="#ee8f41"/><path d="m109.83 60.41c-2.1 7.23-8.64 14-19.31 18.91-22.66 10.34-55.33 8-73-5.32-8.28-6.25-11.77-13.8-10.78-21.12-2.36 8.12.89 16.8 10.26 23.83 17.61 13.29 50.28 15.66 72.94 5.29 11.99-5.43 18.78-13.37 19.89-21.59z" fill="#b16d45"/><path d="m51.38 83.32c-1 1.25-3.44 1.9-5.74 1.55s-3.86-1.59-3.74-3c.11-1.16-1-2.25-2.75-2.77a8 8 0 0 0 -5.44.38 7.94 7.94 0 0 1 -6.32 0c-1.85-.87-2.41-2.38-1.34-3.62.9-1 .67-2.29-.6-3.18a7.35 7.35 0 0 0 -5.22-1c-2.29.38-4.71-.23-5.81-1.46s-.56-2.75 1.29-3.62c1.54-.74 2.19-1.94 1.66-3.06s-2.15-1.95-4.11-2.11c-2.35-.19-4.15-1.33-4.29-2.72s1.39-2.64 3.69-3c1.91-.3 3.35-1.24 3.64-2.39s-.61-2.3-2.3-2.92c-2-.73-2.86-2.2-2-3.5s3.11-2.08 5.46-1.86a6.8 6.8 0 0 0 5-1.32 2 2 0 0 0 -.08-3.21c-1.33-1.15-1.08-2.69.58-3.68a7.81 7.81 0 0 1 6.27-.41 8.06 8.06 0 0 0 5.48 0c1.66-.65 2.5-1.8 2.16-3-.42-1.37.87-2.72 3.08-3.23a7.18 7.18 0 0 1 6 1.13 6.85 6.85 0 0 0 5 1.29c2-.19 3.54-1.05 4-2.18.57-1.35 2.68-2.27 5.06-2.21s4.34 1.09 4.71 2.46c.31 1.15 1.76 2.08 3.68 2.37a7.25 7.25 0 0 0 5.18-1 7.5 7.5 0 0 1 6.16-.82c2.13.62 3.21 2 2.6 3.37-.51 1.13.16 2.33 1.72 3.05a8 8 0 0 0 5.45.29 7.61 7.61 0 0 1 6.19.72 2.08 2.08 0 0 1 0 3.7c-1.25.91-1.46 2.16-.54 3.19a6.26 6.26 0 0 0 4.84 1.7c2.37-.1 4.53.79 5.16 2.13s-.43 2.76-2.54 3.39c-1.77.53-2.84 1.62-2.71 2.78s1.41 2.17 3.27 2.57c2.23.48 3.58 1.81 3.23 3.18s-2.3 2.42-4.67 2.49c-2 .06-3.72.81-4.41 1.9s-.22 2.32 1.21 3.12c1.71 1 2 2.51.74 3.68a7.15 7.15 0 0 1 -6 1.16 7.67 7.67 0 0 0 -5.34.68c-1.39.83-1.81 2.07-1.07 3.14.86 1.29.13 2.77-1.87 3.53a7.8 7.8 0 0 1 -6.28-.37 7.74 7.74 0 0 0 -5.39-.63c-1.85.42-3.09 1.45-3.16 2.62-.08 1.38-1.82 2.54-4.17 2.77s-4.64-.54-5.49-1.83c-.71-1.09-2.45-1.83-4.44-1.88a6.11 6.11 0 0 0 -4.69 1.64z" fill="#feb94a"/><path d="m77 71c-14.42 6.52-35.15 5-46.35-3.42s-8.65-20.58 5.77-27.14 35.12-5 46.32 3.39 8.61 20.57-5.74 27.17z" fill="#ffbd52"/><g fill="#ffc566"><path d="m38.8 61.5c.14-.64-21.11 4.5-21.8 7.76s21.23-5.07 21.8-7.76z"/><path d="m42.48 68.37s-17.48 7.2-12.58 9 12.58-9 12.58-9z"/><path d="m49 69.83s-8.67 11.64-3.47 12 3.47-12 3.47-12z"/><path d="m58.12 73.24s1.16 8.51 5.72 8.84-5.72-8.84-5.72-8.84z"/><path d="m31 58.13s-17.8-3.93-18.5-.66 18.5.66 18.5.66z"/><path d="m82.79 52.18s16.7-4.7 18.2-3.57 2.91 2.28-2.86 3a147.13 147.13 0 0 1 -15.34.57z"/><path d="m77.67 46.84s9.58-8.08 13.71-7-13.71 7-13.71 7z"/><path d="m83.7 57.3s16.85.43 16.5 2.06-1.37 3.74-16.5-2.06z"/><path d="m40.23 46.89s-9.86-10.1-12.61-9.48 2.23 5.89 12.61 9.48z"/></g><path d="m55.05 83.75a17 17 0 0 1 -9.25-3.53c18.46-.69 26.4-.24 23.41-3.47-3.9-4.23-33.9-3-36.53-5.26 15.93-3.29 53.77 4.6 56.6-3.33 1.32-3.7-50.51-1.3-69.22-7.54 22.57-5.12 51.13 4.1 67.7 1 6.38-1.21 11.82-4.18 1.25-6.85-14.85-3.77-74.79-2.32-67.51-7.77 6.5-4.9 59.59 7.32 62.26-1.56.94-3.12-9.72-4.69-15.07-5.23-16-1.61-26.87 3.53-32-1.36-.87-.83-2.91.11-2 .93 6.67 6.33 18.8-.39 36.93 2.33 2 .3 11.88 1.78 9.11 3.64-8.16 5.48-57-6.2-61.88 1-6.4 9.25 85.3 5.57 72.36 12.04s-49-5.95-74.46 1c-.84.22-1.15 1-.28 1.3 20.64 7.91 46.93 3.6 69.81 7.46-6 5-50.83-2.58-56 2-5.64 5.07 29.94 3.29 36 6.47 4.38 2.28-26 .2-23.89 2.77 2.37 2.86 6.91 4.88 12.27 5.43 1.71.21 2.03-1.3.39-1.47z" fill="#ee8f41"/><path d="m55.17 83.38a17 17 0 0 1 -9.25-3.54c18.46-.68 26.39-.23 23.41-3.47-3.9-4.22-33.9-3-36.53-5.25 15.93-3.3 53.77 4.59 56.6-3.34 1.32-3.69-50.51-1.29-69.22-7.54 22.57-5.12 51.13 4.11 67.7 1 6.38-1.24 11.82-4.24 1.25-6.87-14.85-3.75-74.79-2.29-67.51-7.77 6.5-4.89 59.59 7.32 62.26-1.56.94-3.12-9.72-4.69-15.07-5.22-16-1.61-26.87 3.53-32-1.36-.88-.83-2.91.11-2 .93 6.67 6.32 18.8-.4 36.93 2.32 2 .3 11.88 1.79 9.11 3.65-8.16 5.48-57-6.2-61.88 1-6.33 9.26 85.37 5.6 72.43 12.07s-49-6-74.46 1c-.84.23-1.15 1-.28 1.31 20.64 7.87 46.92 3.58 69.8 7.45-6 5-50.82-2.58-56 2-5.64 5.06 29.94 3.28 36 6.47 4.38 2.28-26 .2-23.89 2.76 2.37 2.87 6.91 4.88 12.27 5.43 1.65.2 1.97-1.3.33-1.47z" fill="#fbf1c1"/><path d="m81.7 60.34a2.3 2.3 0 0 1 -.91-.2l-7.59-3.44a2.2 2.2 0 0 1 -1.28-1.7 2.23 2.23 0 0 1 .79-2l6.61-5.39a2.21 2.21 0 1 1 2.8 3.39l-3.84 3.14 4.34 2a2.21 2.21 0 0 1 -.92 4.23z" fill="#a0563e"/><path d="m34.3 60.34a2.3 2.3 0 0 0 .91-.2l7.59-3.44a2.2 2.2 0 0 0 1.28-1.7 2.23 2.23 0 0 0 -.79-2l-6.61-5.39a2.21 2.21 0 1 0 -2.8 3.39l3.84 3.14-4.34 2a2.21 2.21 0 0 0 .92 4.23z" fill="#a0563e"/><path d="m58 69.17a10.61 10.61 0 0 1 -9.57-6.09 2.21 2.21 0 0 1 4-1.88 6.14 6.14 0 0 0 11.19-.2 2.21 2.21 0 1 1 4.07 1.72 10.53 10.53 0 0 1 -9.69 6.45z" fill="#a0563e"/></svg>