<svg viewBox="0 0 116 116" xmlns="http://www.w3.org/2000/svg"><rect fill="#9b2c0e" height="104" rx="5.98" transform="matrix(0 -1 1 0 0 116)" width="59.36" x="28.32" y="6"/><path d="m103.19 28.91v47.88a5.64 5.64 0 0 1 -5.53 5.74h-91.6a5.58 5.58 0 0 0 5.47 5.15h92.94a5.64 5.64 0 0 0 5.53-5.74v-47.88a5.64 5.64 0 0 0 -5.53-5.74h-1.34a5.9 5.9 0 0 1 .06.59z" fill="#c43812"/><path d="m6 34.06v47.88a5.63 5.63 0 0 0 5.28 5.71 5.88 5.88 0 0 1 -.09-1v-47.83a5.63 5.63 0 0 1 5.53-5.74h92.94.25a5.58 5.58 0 0 0 -5.44-4.79h-92.94a5.64 5.64 0 0 0 -5.53 5.77z" fill="#8a270c"/><g fill="#f7b737"><path d="m41.06 50.47c-.16 4.1-2.56 1.68-5.12 2.65s-7.48-1.49-7.2-3.91 5.86-2.21 7.13-3.21 5.37-.08 5.19 4.47z"/><path d="m73.84 49.76c1 3-2.81 1.84-4.16 3.57s-3.86.33-2.36-3.42 5.47-3.22 6.52-.15z"/><path d="m89.68 66c-.4 2.2-2.66 3.27-4.31 1.71s-.78-4.92.7-6 4.16 1.29 3.61 4.29z"/><path d="m30.24 41.33c-.4 2.2-2.65 3.28-4.31 1.72s-.77-4.93.7-6 4.16 1.27 3.61 4.28z"/><path d="m89.75 41.44c-.2 4.26-3.68 2.39-4.93 3.33s-3.66-1.2-2.16-3.33 7.21-2.6 7.09 0z"/><path d="m82.18 58.6c.11 2.25-2 3.93-3 2.82a3.28 3.28 0 0 1 -.3-4.07c.92-1.09 3.22-.35 3.3 1.25z"/><path d="m36.82 75c.12 2.24-2 3.92-3 2.82a3.27 3.27 0 0 1 -.31-4.07c.94-1.07 3.24-.29 3.31 1.25z"/><path d="m76.5 72.63c-.4 3-5.37.06-8.53 1.15s-5.11 5.46-6.11 1.22 2-8.33 5.61-8.53 9.23 4.66 9.03 6.16z"/><path d="m45.44 60.65c.27 4.12-5.73 6.72-8.84 6.72s-6.83-1.14-4.72-5.2 13.39-4.29 13.56-1.52z"/><path d="m60.06 39.66c-.16 4.63-4.31 7.24-7 3.7s-2.21-6.76.7-7.59 6.4.81 6.3 3.89z"/><path d="m58.05 60.84c0 5-3.11 6.94-4.71 4.09s-3.81-8.23 0-8.09 4.66 2.26 4.71 4z"/><path d="m23.25 73.53c0 5-3.1 6.94-4.71 4.09s-3.8-8.23 0-8.08 4.71 2.25 4.71 3.99z"/><path d="m97.05 56.26c-1.46 2.74-6 2.58-4.72-2.19s2.49-10.7 4.72-7.69.33 9.26 0 9.88z"/><path d="m23.74 56.26c-1.46 2.74-6 2.58-4.71-2.19s2.49-10.7 4.71-7.69.33 9.26 0 9.88z"/></g><path d="m56.58 67.21a9.5 9.5 0 0 1 -9.58-9.42 1.72 1.72 0 0 1 1.71-1.72l15.56-.07a1.71 1.71 0 0 1 1.73 1.67 9.49 9.49 0 0 1 -9.42 9.54z" fill="#4d2119"/><path d="m38.07 57.4a3.43 3.43 0 0 1 -3.44-3.4v-5.93a3.44 3.44 0 0 1 3.37-3.46 3.45 3.45 0 0 1 3.44 3.39v5.94a3.43 3.43 0 0 1 -3.37 3.46z" fill="#4d2119"/><path d="m75.05 57.16a3.43 3.43 0 0 1 -3.44-3.41v-5.93a3.43 3.43 0 0 1 3.39-3.45 3.45 3.45 0 0 1 3.45 3.4v5.94a3.44 3.44 0 0 1 -3.4 3.45z" fill="#4d2119"/></svg>