<svg viewBox="0 0 116 116" xmlns="http://www.w3.org/2000/svg"><path d="m102.43 24.83c-21.72-22.45-42.15 2.33-44.67 5.6-2.53-3.27-23-28-44.68-5.6-23.08 23.84 15.15 76.43 44.41 77.06h.51c29.28-.63 67.51-53.22 44.43-77.06z" fill="#dc8349"/><path d="m102.92 23.39c-21.72-22.45-42.15 2.33-44.68 5.61-2.52-3.27-23-28-44.67-5.6-23.08 23.84 15.15 76.43 44.43 77.06h.53c29.24-.63 67.47-53.22 44.39-77.07z" fill="#4a2d29"/><path d="m99.34 26.49c-20-20.39-38.77 2.12-41.1 5.09-2.32-3-21.11-25.48-41.09-5.09-21.22 21.67 13.94 69.44 40.85 70.01h.49c26.91-.57 62.07-48.34 40.85-70.01z" fill="#694534" opacity=".2"/><path d="m93.68 31.05c-17.23-17.38-33.43 1.8-35.44 4.33-2-2.53-18.2-21.71-35.43-4.33-18.3 18.46 12.02 59.17 35.19 59.65h.42c23.24-.48 53.58-41.19 35.26-59.65z" fill="#5b3d39"/><g fill="#ffebd0"><path d="m15.61 30.42c20-20.4 38.77 2.12 41.09 5.09 2.3-2.97 21.12-25.51 41.1-5.09 7.58 7.74 7.94 18.82 4.07 29.88 5.41-12.32 5.95-25.15-2.53-33.81-20-20.39-38.77 2.12-41.1 5.09-2.32-3-21.11-25.48-41.09-5.09a22.12 22.12 0 0 0 -5.53 9.57 22.15 22.15 0 0 1 3.99-5.64z" opacity=".1"/><path d="m11.65 36v.09c.25-.5.58-1 .87-1.46-.35.42-.59.88-.87 1.37z" opacity=".1"/><path d="m99.34 26.49c-20-20.39-38.77 2.12-41.1 5.09-2.32-3-21.11-25.48-41.09-5.09a21.62 21.62 0 0 0 -3.65 5 21.08 21.08 0 0 1 2.7-3.43c20-20.39 38.76 2.12 41.09 5.09 2.32-3 21.11-25.48 41.09-5.09 7 7.1 7.84 17 5 27.11a45.51 45.51 0 0 1 -1.47 5.13c5.37-12.3 5.91-25.15-2.57-33.81z" opacity=".1"/></g><path d="m90.71 35.39c-16.53-16.33-32.08 1.69-34 4.07-1.92-2.38-17.47-20.4-34-4.07-17.57 17.33 11.52 55.61 33.79 56.02h.4c22.28-.41 51.37-38.69 33.81-56.02zm-33.83 51.71h-.36c-20-.4-46.21-33.38-30.41-48.33 14.89-14.08 28.89 1.46 30.59 3.51 1.73-2.05 15.72-17.59 30.6-3.51 15.79 14.95-10.38 47.93-30.42 48.33z" fill="#d04300" opacity=".2"/><path d="m91.54 34.52c-16.53-16.32-32.08 1.7-34 4.07-1.92-2.37-17.47-20.39-34-4.07-17.54 17.34 11.52 55.57 33.79 56.02h.41c22.26-.45 51.36-38.68 33.8-56.02zm-33.82 51.72h-.37c-20-.4-46.2-33.38-30.41-48.34 14.88-14.08 28.86 1.47 30.59 3.52 1.74-2.05 15.72-17.6 30.6-3.52 15.79 14.96-10.38 47.94-30.41 48.34z" fill="#d04300" opacity=".2"/><path d="m92.25 33.66c-16.53-16.32-32.08 1.7-34 4.07-1.92-2.37-17.47-20.39-34-4.07-17.58 17.34 11.52 55.57 33.75 56.02h.4c22.31-.45 51.41-38.68 33.85-56.02zm-33.83 51.71h-.36c-20.06-.37-46.21-33.37-30.41-48.37 14.88-14 28.86 1.51 30.59 3.55 1.76-2.04 15.76-17.55 30.6-3.55 15.79 15-10.38 48-30.42 48.37z" fill="#f0a36c"/><g fill="#694534" opacity=".2"><path d="m28.1 36.65c-.13.12-.23.25-.35.37 14.87-14 28.84 1.49 30.57 3.53l.35-.4c-1.78-2.15-15.73-17.55-30.57-3.5z"/><path d="m58.67 37.31c.23-.29.67-.81 1.28-1.47-.53.61-.95 1.16-1.28 1.47z"/><path d="m89.28 36.65c-13.57-12.85-26.4-1-29.86 2.69 3.93-4.08 16.36-14.73 29.49-2.3 9.36 8.86 4 24-6.11 35 10.33-10.99 15.95-26.42 6.48-35.39z"/><path d="m58.89 89.29h-.4c-22.16-.45-51.05-38.29-34.06-55.73l-.12.1c-17.56 17.34 11.54 55.57 33.81 56.02h.4c8.48-.17 17.89-5.79 25.38-13.68-7.43 7.68-16.7 13.12-25.01 13.29z"/></g><g fill="#d04300" opacity=".3"><path d="m89.67 35.9c-14.88-14.08-28.86 1.47-30.6 3.51-1.73-2-15.71-17.59-30.59-3.51a16.1 16.1 0 0 0 -2.16 2.57 17.74 17.74 0 0 1 1.33-1.47c14.88-14 28.86 1.51 30.59 3.55 1.76-2.04 15.76-17.55 30.6-3.55 7.89 7.47 5.3 19.44-1.76 29.6 7.67-10.35 10.78-22.94 2.59-30.7z"/><path d="m59.28 88.54h-.41c-21.21-.43-48.57-35.11-36-53.39-14.58 17.93 13.52 54.09 35.13 54.53h.4c10.66-.22 22.87-9.09 30.79-20.18-7.89 10.55-19.62 18.83-29.91 19.04z"/></g><g fill="#ffd8a2" opacity=".1"><path d="m58 40.31.21.24a32 32 0 0 1 3.13-3.13 32.71 32.71 0 0 0 -3.34 2.89z"/><path d="m58.42 85.37h-.36c-20.06-.37-46.21-33.37-30.41-48.37.25-.23.49-.44.74-.65a26.47 26.47 0 0 0 -2.56 2.13c-15.83 15 10.38 47.98 30.42 48.37h.36c6.48-.13 13.6-3.68 19.74-8.92-5.7 4.42-12.07 7.33-17.93 7.44z"/><path d="m92.25 33.66c-12.2-12-23.86-5.39-29.91-.12 6.4-4.86 17-9.33 28.09 1.6 12.17 12 1.94 34-12.9 46.6 15.79-12.23 27.38-35.58 14.72-48.08z"/><path d="m53.55 36.13a33.22 33.22 0 0 1 3.14 2.76c.3-.36.74-.86 1.31-1.46-2.66-3.17-17-18.62-32.42-5 11.9-8.84 22.84-1.19 27.97 3.7z"/></g><path d="m43.7 59.59a2.3 2.3 0 0 1 -2.3-2.29v-2.45a2.3 2.3 0 0 1 2.3-2.29 2.3 2.3 0 0 1 2.3 2.29v2.45a2.3 2.3 0 0 1 -2.3 2.29z" fill="#884332"/><path d="m72.29 60.67a1.42 1.42 0 0 1 -.57-.12l-4.72-2.15a1.35 1.35 0 0 1 -.8-1.07 1.38 1.38 0 0 1 .5-1.25l4.11-3.36a1.38 1.38 0 1 1 1.75 2.13l-2.4 2 2.7 1.15a1.38 1.38 0 0 1 -.57 2.64z" fill="#884332"/><path d="m57.54 65.91c-3.34 0-6-3.12-6-7a1.15 1.15 0 1 1 2.3 0c0 2.57 1.68 4.67 3.75 4.67s3.74-2.1 3.74-4.67a1.15 1.15 0 1 1 2.3 0c-.05 3.88-2.76 7-6.09 7z" fill="#884332"/><circle cx="78.23" cy="64.48" fill="#fff" r="3.36"/><path d="m37.73 42.68a3.67 3.67 0 1 1 -3.67-3.68 3.67 3.67 0 0 1 3.67 3.68z" fill="#f7cc54"/><path d="m41.4 64.48a3.67 3.67 0 1 1 -3.67-3.67 3.67 3.67 0 0 1 3.67 3.67z" fill="#fff"/><circle cx="79.99" cy="46.05" fill="#ed7773" r="3.36"/><path d="m61.42 46.05a2.76 2.76 0 1 1 -2.75-2.76 2.75 2.75 0 0 1 2.75 2.76z" fill="#81cae4"/><path d="m61 76.38a2.76 2.76 0 1 1 -2.76-2.75 2.76 2.76 0 0 1 2.76 2.75z" fill="#81cae4"/></svg>