<svg viewBox="0 0 116 116" xmlns="http://www.w3.org/2000/svg"><path d="m50.73 106.36-32.73-39.58a14.29 14.29 0 0 1 0-17.56l32.73-39.58c4-4.85 10.52-4.85 14.54 0l32.73 39.58a14.29 14.29 0 0 1 0 17.56l-32.73 39.58c-4.02 4.85-10.52 4.85-14.54 0z" fill="#a9562d"/><path d="m96.62 49.53-31.62-38.18a8.76 8.76 0 0 0 -14 0l-31.62 38.18a13.81 13.81 0 0 0 0 16.94l31.62 38.18a8.76 8.76 0 0 0 14 0l31.62-38.18a13.81 13.81 0 0 0 0-16.94zm-32.25 50.87a8 8 0 0 1 -12.74 0l-28.72-34.71a12.52 12.52 0 0 1 0-15.38l28.72-34.71a8 8 0 0 1 12.74 0l28.72 34.71a12.52 12.52 0 0 1 0 15.38z" fill="#bf6337"/><path d="m98 49.22-32.73-39.58c-4-4.85-10.52-4.85-14.54 0l-32.73 39.58a14.29 14.29 0 0 0 0 17.56l32.76 39.58c4 4.85 10.52 4.85 14.54 0l32.7-39.58a14.29 14.29 0 0 0 0-17.56zm-33.4 52.78a8.24 8.24 0 0 1 -13.2 0l-29.78-36a13 13 0 0 1 0-16l29.78-36a8.24 8.24 0 0 1 13.2 0l29.78 36a13 13 0 0 1 0 16z" fill="#9e4b21"/><path d="m35.63 47 16.11-21.62c5.11-6.87 13.43-6.87 18.54 0l16.11 21.62c5.11 6.86 5.11 18 0 24.9l-16.11 21.66c-5.11 6.87-13.43 6.87-18.54 0l-16.11-21.64c-5.11-6.86-5.11-18.04 0-24.92zm30-15.35c-2.53-3.4-6.65-3.4-9.18 0l-16.14 21.66a11 11 0 0 0 0 12.32l16.11 21.64c2.53 3.4 6.65 3.4 9.18 0l16.1-21.64a11 11 0 0 0 0-12.32z" fill="#a34e22"/><path d="m46 79.09a1.83 1.83 0 0 0 3.12 0l26.88-36.09a3.72 3.72 0 0 0 0-4.19 1.83 1.83 0 0 0 -3.12 0l-26.88 36.09a3.69 3.69 0 0 0 0 4.19z" fill="#a34e22"/><path d="m46 38.84a3.69 3.69 0 0 0 0 4.16l26.87 36.09a1.83 1.83 0 0 0 3.12 0 3.72 3.72 0 0 0 0-4.19l-26.84-36.06a1.83 1.83 0 0 0 -3.15 0z" fill="#a34e22"/><g fill="#bf6337"><path d="m33.29 45.72 15.35-20.62c4.87-6.55 12.8-6.55 17.67 0l15.35 20.62c4.87 6.55 4.87 17.19 0 23.74l-15.35 20.62c-4.87 6.55-12.8 6.55-17.67 0l-15.35-20.62c-4.87-6.55-4.87-17.19 0-23.74zm28.56-14.63c-2.42-3.24-6.34-3.24-8.75 0l-15.35 20.62a10.45 10.45 0 0 0 0 11.75l15.35 20.63c2.41 3.24 6.33 3.24 8.75 0l15.35-20.63a10.45 10.45 0 0 0 0-11.75z"/><path d="m43.19 76.29a1.75 1.75 0 0 0 3 0l25.56-34.37a3.54 3.54 0 0 0 0-4 1.74 1.74 0 0 0 -3 0l-25.56 34.38a3.54 3.54 0 0 0 0 3.99z"/><path d="m43.19 37.93a3.54 3.54 0 0 0 0 4l25.59 34.36a1.74 1.74 0 0 0 3 0 3.54 3.54 0 0 0 0-4l-25.61-34.36a1.75 1.75 0 0 0 -2.98 0z"/></g><path d="m98 49.22-32.73-39.58c-4-4.85-10.52-4.85-14.54 0l-32.73 39.58a14.29 14.29 0 0 0 0 17.56l32.76 39.58c4 4.85 10.52 4.85 14.54 0l32.7-39.58a14.29 14.29 0 0 0 0-17.56zm-32.9 56.24c-3.94 4.76-10.32 4.76-14.26 0l-32.13-38.85a14 14 0 0 1 0-17.22l32.16-38.85c3.94-4.76 10.32-4.76 14.26 0l32.16 38.85a14 14 0 0 1 0 17.22z" fill="#944016"/><path d="m43 60a2.89 2.89 0 0 1 -2.88-2.88v-3.05a2.89 2.89 0 0 1 2.88-2.88 2.88 2.88 0 0 1 2.88 2.88v3.07a2.89 2.89 0 0 1 -2.88 2.86z" fill="#ffaa60"/><path d="m78.88 61.36a1.78 1.78 0 0 1 -.71-.15l-5.94-2.69a1.7 1.7 0 0 1 -1-1.35 1.72 1.72 0 0 1 .62-1.57l5.15-4.22a1.73 1.73 0 0 1 2.19 2.68l-3 2.46 3.39 1.54a1.72 1.72 0 0 1 -.71 3.3z" fill="#ffaa60"/><path d="m60.36 68c-4.18 0-7.58-3.92-7.58-8.74a1.45 1.45 0 0 1 2.89 0c0 3.23 2.1 5.85 4.69 5.85s4.7-2.62 4.7-5.85a1.45 1.45 0 0 1 2.89 0c.05 4.74-3.4 8.74-7.59 8.74z" fill="#ffaa60"/></svg>