<svg viewBox="0 0 116 116" xmlns="http://www.w3.org/2000/svg"><path d="m109.66 81.83c0-2.38.42-4.66.14-7a58.27 58.27 0 0 0 -1.63-7.5c-.7-2.75-1.12-6.41-2.7-8.81-1.35-2.06-3.37-3.24-4.48-5.57-1.38-2.89-2.34-5.5-5-7.49s-5.85-3.46-8.46-5.6c-2.45-2-4.32-4.93-7.29-6.3-3.17-1.45-6.92-1.15-10.28-1.91-5.18-1.18-10.64-2.47-16-1.79-3.8.48-7.47 1.94-11.17 2.88a31.51 31.51 0 0 0 -10.37 4.26 69.33 69.33 0 0 0 -9.86 8.58c-2.16 2.16-4.75 3.9-6.76 6.19s-2.49 4.94-3.8 7.49c-1.11 2.2-3.16 3.63-3.85 6.08s-.39 5.22-.87 7.78c-.61 3.18-1.65 6.39-1.2 9.66.21 1.56.95 3 1 4.59a11 11 0 0 1 -.29 2.82h102.74c.18-.84.32-1.7.42-2.56.21-1.92-.29-3.83-.29-5.8z" fill="#fc9b3a"/><path d="m110 83.76c-.1.86-.24 1.72-.42 2.57h-35a1.41 1.41 0 0 1 -.28.45 1.27 1.27 0 0 1 -1.09.43h-.08a.89.89 0 0 1 -.36 0 1.21 1.21 0 0 1 -.37-.07l-.26-.12-.14-.02a2.44 2.44 0 0 1 -.71-.68h-64.42a11.15 11.15 0 0 0 .29-2.83c-.1-1.58-.84-3-1-4.59-.45-3.27.59-6.48 1.2-9.65.48-2.57.16-5.26.87-7.79s2.74-3.88 3.85-6.08c1.28-2.55 1.83-5.29 3.77-7.48s4.6-4 6.76-6.19a69.4 69.4 0 0 1 9.86-8.59 31.28 31.28 0 0 1 10.39-4.25c3.7-.95 7.37-2.41 11.17-2.89 5.34-.67 10.8.61 16 1.79 3.36.76 7.11.46 10.28 1.91 3 1.37 4.84 4.25 7.29 6.3 2.61 2.18 5.77 3.52 8.47 5.56s3.61 4.6 5 7.49c1.11 2.33 3.13 3.51 4.48 5.58 1.58 2.39 2 6.06 2.7 8.8a58.27 58.27 0 0 1 1.63 7.5c.28 2.38-.14 4.66-.14 7-.08 2.02.42 3.94.26 5.85z" fill="#e51652"/><path d="m108.23 83.55a26 26 0 0 1 -.47 2.78h-33.21a1.41 1.41 0 0 1 -.28.45 1.27 1.27 0 0 1 -1.09.43h-.08a.89.89 0 0 1 -.36 0 1.21 1.21 0 0 1 -.37-.07l-.26-.12-.11-.02a2.44 2.44 0 0 1 -.71-.68h-62.78a13.47 13.47 0 0 0 .34-3c-.11-1.53-.82-2.92-1-4.43-.46-3.19.55-6.29 1.15-9.36.47-2.49.16-5.09.85-7.53.52-1.85 1.83-3.1 2.9-4.57a9.59 9.59 0 0 0 .81-1.31c1-2 1.55-4.11 2.71-6a9.46 9.46 0 0 1 .94-1.27c1.95-2.22 4.45-3.9 6.54-6a68.4 68.4 0 0 1 9.53-8.31 30.69 30.69 0 0 1 10.05-4.11c1.07-.27 2.13-.59 3.2-.91a56.92 56.92 0 0 1 6.43-1.69q.59-.11 1.17-.18c5.16-.66 10.44.58 15.45 1.72 3.25.74 6.88.45 10 1.85 2.73 1.26 4.5 3.85 6.71 5.81l.33.28a25.43 25.43 0 0 0 2.78 2c1.81 1.12 3.71 2.12 5.42 3.41 2.55 1.92 3.48 4.45 4.82 7.24 1.07 2.26 3 3.4 4.34 5.39 1.52 2.32 1.93 5.86 2.6 8.52a54.64 54.64 0 0 1 1.57 7.24 22.1 22.1 0 0 1 0 3.9c0 .48-.07 1-.1 1.46s0 1 0 1.46c-.05 1.92.39 3.77.18 5.62z" fill="#ef6291"/><path d="m105.33 83.21a23.72 23.72 0 0 1 -.56 3.12h-30.22a1.41 1.41 0 0 1 -.28.45 1.27 1.27 0 0 1 -1.09.43h-.08a.89.89 0 0 1 -.36 0 1.21 1.21 0 0 1 -.37-.07l-.26-.12-.11-.02a2.44 2.44 0 0 1 -.71-.68h-60a17.4 17.4 0 0 0 .39-3.32c-.1-1.44-.77-2.76-1-4.19-.41-3 .54-5.9 1.09-8.8 0-.15 0-.31.08-.46.33-2.19.11-4.48.72-6.63a10.26 10.26 0 0 1 2.19-3.58 11.87 11.87 0 0 0 1.31-2c.63-1.25 1.07-2.56 1.61-3.81a11.52 11.52 0 0 1 1.82-3c.38-.43.78-.84 1.19-1.23 1.6-1.53 3.41-2.85 5-4.42a63 63 0 0 1 9-7.82 28.67 28.67 0 0 1 9.47-3.88c1.54-.39 3.08-.89 4.63-1.34 1.17-.36 2.35-.69 3.55-.94.66-.15 1.32-.26 2-.35 4.87-.61 9.85.56 14.57 1.64 3.06.69 6.47.41 9.36 1.74 2.71 1.25 4.41 3.87 6.64 5.73.36.3.72.58 1.09.84 1.08.77 2.23 1.45 3.37 2.12a35.13 35.13 0 0 1 3.27 2.12c2.41 1.81 3.28 4.19 4.54 6.82 1 2.12 2.85 3.2 4.09 5.08 1.43 2.18 1.82 5.51 2.45 8a51.66 51.66 0 0 1 1.49 6.83 15.83 15.83 0 0 1 0 2.75c0 .57-.07 1.13-.1 1.7s-.08 1.31-.08 2c.04 1.79.49 3.54.3 5.29z" fill="#dd3a71"/><path d="m36.09 46.33a.41.41 0 0 0 -.35.61c.32.54 1.48 1 1.29 1.71s-1.41.69-2 .47c-.38-.15-.57.37-.36.62.88 1 2.66.48 3.29-.53s-.62-2.99-1.87-2.88z" fill="#672e1e" opacity=".5"/><path d="m37.27 47.62c-.57-.79-1.6-2.52-2.74-2.42a2 2 0 0 0 -1.43 3.24 3 3 0 0 0 3.31 1.29 1.57 1.57 0 0 0 .86-.66 1.45 1.45 0 0 0 0-1.45z" fill="#d8b56a"/><path d="m34.36 45.55a1.62 1.62 0 0 0 -.87.61 1.57 1.57 0 0 0 -.31.49.64.64 0 0 0 0 .24v.26c0 .3.36.34.52.16a3.23 3.23 0 0 0 .52-.46c.19-.19.46-.3.64-.5a.48.48 0 0 0 -.5-.8z" fill="#f2e0b8" opacity=".8"/><path d="m37.27 49.07a1.45 1.45 0 0 0 0-1.45 13 13 0 0 0 -1.33-1.72c.39.85.88 1.69.41 2.61a2.48 2.48 0 0 1 -2.14.94 2.47 2.47 0 0 0 2.2.28 1.57 1.57 0 0 0 .86-.66z" fill="#e4c27a"/><path d="m44.72 80.68a.4.4 0 0 0 -.7 0c-.31.54-.08 1.76-.82 2s-1.32-.85-1.41-1.45c-.06-.4-.61-.3-.71 0-.43 1.28.94 2.53 2.13 2.55s2.24-2.09 1.51-3.1z" fill="#672e1e" opacity=".5"/><path d="m44.21 82.34c.39-.88 1.35-2.66.68-3.59a2 2 0 0 0 -3.51.43 3 3 0 0 0 .57 3.5 1.62 1.62 0 0 0 1 .41 1.44 1.44 0 0 0 1.26-.75z" fill="#d8b56a"/><path d="m44.5 78.79a1.64 1.64 0 0 0 -1-.44 1.41 1.41 0 0 0 -.58 0 .68.68 0 0 0 -.23.07c-.08 0-.14.11-.21.14-.28.13-.11.49.13.53a2.9 2.9 0 0 0 .65.21c.27.07.5.25.77.3a.47.47 0 0 0 .47-.81z" fill="#f2e0b8" opacity=".8"/><path d="m43 83.09a1.44 1.44 0 0 0 1.25-.75 11.79 11.79 0 0 0 .8-2c-.53.77-1 1.62-2 1.69a2.45 2.45 0 0 1 -1.9-1.36 2.45 2.45 0 0 0 .87 2 1.62 1.62 0 0 0 .98.42z" fill="#e4c27a"/><path d="m73.92 38.77a1.25 1.25 0 0 0 -1.43-.87.53.53 0 0 0 -.31.77c.11.25.44.44.53.61a.59.59 0 0 1 -.1.16 1 1 0 0 1 -.55.35c-.21.05-.65.24-.61.53.07.57.68.61 1.13.51a2 2 0 0 0 1.16-.78 1.42 1.42 0 0 0 .18-1.28z" fill="#672e1e" opacity=".5"/><path d="m73.42 39.05a3.28 3.28 0 0 0 -.76-1.18 1.49 1.49 0 0 0 -1.6-.37.82.82 0 0 0 -.2.17.63.63 0 0 0 -.53.6 2 2 0 0 0 .09.72c0 .12.06.24.09.36a.22.22 0 0 0 0 .08 1 1 0 0 0 .91 1.21 4.27 4.27 0 0 0 1.58-.51 1 1 0 0 0 .42-1.08z" fill="#d8b56a"/><path d="m71.8 37.89c-.37-.42-1 .23-.61.6.21.19.51.42.76.16s.05-.56-.15-.76z" fill="#f2e0b8" opacity=".8"/><path d="m73 40.13a1 1 0 0 0 .45-1.08l-.19-.4a4.84 4.84 0 0 1 -1 .62 3.32 3.32 0 0 1 -1.71.25 1 1 0 0 0 .92 1.12 4.27 4.27 0 0 0 1.53-.51z" fill="#e4c27a"/><path d="m74.55 86.33a1.41 1.41 0 0 1 -.28.45 1.27 1.27 0 0 1 -1.09.43.47.47 0 0 1 -.44-.57.39.39 0 0 1 .2-.29s0 0 0 0a.2.2 0 0 1 .09 0l.09-.09a.26.26 0 0 0 0-.09.73.73 0 0 0 0-.09s0-.09 0-.11v-.16a.9.9 0 0 1 .37-.52.4.4 0 0 1 .23-.08.58.58 0 0 1 .51.17 1 1 0 0 1 .32.95z" fill="#672e1e" opacity=".5"/><path d="m74.17 85.89a4.48 4.48 0 0 1 -.19.44 2.47 2.47 0 0 1 -.61.76.76.76 0 0 1 -.19.12h-.08a.89.89 0 0 1 -.36 0 1.21 1.21 0 0 1 -.37-.07l-.26-.12-.11-.02a2.44 2.44 0 0 1 -.71-.68 1.5 1.5 0 0 1 -.2-.4c-.41-1.33 1.11-1.53 2.19-1.18l.16.07a2 2 0 0 1 .33.16h.08a.4.4 0 0 1 .12.1.52.52 0 0 1 .11.1.6.6 0 0 1 .09.72z" fill="#e4c27a"/><path d="m72.41 85.48a1.89 1.89 0 0 0 -.69-.42.46.46 0 0 0 -.51.21.48.48 0 0 0 .16.62 2.83 2.83 0 0 0 .44.36.5.5 0 0 0 .6-.77z" fill="#f2e0b8"/><path d="m74.17 85.89a4.48 4.48 0 0 1 -.19.44 2.47 2.47 0 0 1 -.61.76.76.76 0 0 1 -.19.12h-.08a1.08 1.08 0 0 1 -.73 0 2 2 0 0 1 -.37-.21 1 1 0 0 0 .78-.37 2.11 2.11 0 0 0 .2-.29 5.33 5.33 0 0 0 .46-1.51 2 2 0 0 1 .33.16h.08a.4.4 0 0 1 .12.1.52.52 0 0 1 .11.1.6.6 0 0 1 .09.7z" fill="#e4c27a"/><path d="m24.57 81.64a.59.59 0 0 0 -.72-.09.83.83 0 0 0 -.36.5v.17s0 .08 0 .1a.41.41 0 0 0 -.05.09.35.35 0 0 1 -.05.08l-.08.09c-.08.07 0 0 0 0a.46.46 0 0 0 .13.9 1.25 1.25 0 0 0 1.06-.41 1.12 1.12 0 0 0 .07-1.43z" fill="#672e1e" opacity=".5"/><path d="m23.4 81.11c-1-.35-2.52-.14-2.12 1.14.23.76 1.49 1.76 2.25 1.12a2.6 2.6 0 0 0 .78-1.15c.2-.5-.31-.9-.91-1.11z" fill="#e4c27a"/><path d="m22.6 81.81a1.72 1.72 0 0 0 -.66-.4.42.42 0 0 0 -.49.2.44.44 0 0 0 .15.6 2.31 2.31 0 0 0 .43.35.48.48 0 0 0 .57-.75z" fill="#f2e0b8"/><path d="m23.56 81.17c-.21 1-.49 2.12-1.41 2.12a1.13 1.13 0 0 0 1.38.08 2.6 2.6 0 0 0 .78-1.15c.18-.46-.21-.83-.75-1.05z" fill="#e4c27a"/><path d="m22 70a.87.87 0 0 0 -.89-.1 1 1 0 0 0 -.45.5s0 .12 0 .16a.69.69 0 0 0 0 .1s0 .08-.06.1l-.07.08-.1.09c-.1.08 0 0 0 0-.61.17-.49.87.16.9a1.75 1.75 0 0 0 1.32-.41c.33-.37.56-.97.09-1.42z" fill="#672e1e" opacity=".5"/><path d="m20.56 69.48c-1.3-.34-3.12-.13-2.63 1.14.3.76 1.85 1.77 2.8 1.13a2.84 2.84 0 0 0 1-1.17c.2-.49-.39-.9-1.17-1.1z" fill="#e4c27a"/><path d="m19.57 70.18a2.2 2.2 0 0 0 -.81-.4.63.63 0 0 0 -.62.2c-.16.23 0 .46.19.6a2.56 2.56 0 0 0 .53.35c.6.22 1.14-.33.71-.75z" fill="#f2e0b8"/><path d="m20.76 69.54c-.26 1-.61 2.12-1.74 2.13a1.7 1.7 0 0 0 1.71.08 2.84 2.84 0 0 0 1-1.17c.18-.44-.29-.82-.97-1.04z" fill="#e4c27a"/><path d="m60.73 57.26a.86.86 0 0 0 -.53-.72 1 1 0 0 0 -.68 0l-.14.08h-.1-.11-.24c-.13 0 0 0 0 0-.54-.33-1 .23-.56.72a1.77 1.77 0 0 0 1.2.7c.56.09 1.16-.14 1.16-.78z" fill="#672e1e" opacity=".5"/><path d="m60.14 55.83c-.63-1.19-2-2.39-2.61-1.16-.36.73-.05 2.55 1.06 2.82a2.78 2.78 0 0 0 1.52-.07c.51-.17.42-.88.03-1.59z" fill="#e4c27a"/><path d="m59 55.58a2.13 2.13 0 0 0 -.26-.87.59.59 0 0 0 -.56-.32c-.28 0-.37.28-.31.55a2.64 2.64 0 0 0 .1.62c.2.59 1.03.64 1.03.02z" fill="#f2e0b8"/><path d="m60.24 56c-.93.5-2 1-2.75.15a1.71 1.71 0 0 0 1.1 1.32 2.78 2.78 0 0 0 1.52-.07c.47-.13.42-.74.13-1.4z" fill="#e4c27a"/><path d="m65.63 70c-.64-.63-1.65.37-1 1a1.54 1.54 0 0 1 .44.54l-.07.06c-.43.27-1.14.25-1.38.76a.38.38 0 0 0 0 .44c.53.67 2.29.31 2.79-.15.89-.79-.16-2.06-.78-2.65z" fill="#672e1e" opacity=".5"/><path d="m65.1 69.79a.92.92 0 0 0 -1.42-.19 10 10 0 0 0 -1.16 1.4.85.85 0 0 0 -.06.76 1 1 0 0 0 .25.87c.51.5 1.47.3 2.13.28a.94.94 0 0 0 .94-.94 4.39 4.39 0 0 0 -.68-2.18z" fill="#e4c27a"/><path d="m64.12 70a.43.43 0 0 0 -.4.11 3.17 3.17 0 0 0 -.85 1.23c-.16.38.44.59.64.27a4.1 4.1 0 0 1 .59-.73c.14-.15.32-.25.32-.48a.42.42 0 0 0 -.3-.4z" fill="#f2e0b8"/><path d="m62.87 72.68c.53.39 1.4.22 2 .2a.94.94 0 0 0 .94-.94 4.62 4.62 0 0 0 -.25-1.26 6.26 6.26 0 0 1 -.6 1 2.06 2.06 0 0 1 -2.09 1z" fill="#e4c27a"/><path d="m91.08 55a.61.61 0 0 0 -.72-.1 1 1 0 0 0 -.36.51v.16s0 .09 0 .1v.1l-.06.07a.34.34 0 0 1 -.08.09c-.08.09 0 0 0 0a.46.46 0 0 0 .12.9 1.24 1.24 0 0 0 1.07-.41 1.09 1.09 0 0 0 .03-1.42z" fill="#672e1e" opacity=".5"/><path d="m89.91 54.46c-1-.33-2.52-.13-2.12 1.15.24.75 1.5 1.76 2.26 1.12a2.63 2.63 0 0 0 .78-1.16c.17-.49-.28-.9-.92-1.11z" fill="#e4c27a"/><path d="m89.12 55.16a1.78 1.78 0 0 0 -.66-.39.42.42 0 0 0 -.5.2.46.46 0 0 0 .15.6 2.7 2.7 0 0 0 .43.35.49.49 0 0 0 .58-.76z" fill="#f2e0b8"/><path d="m90.07 54.52c-.2 1-.49 2.12-1.4 2.13a1.15 1.15 0 0 0 1.38.08 2.63 2.63 0 0 0 .78-1.16c.17-.45-.21-.83-.76-1.05z" fill="#e4c27a"/><g opacity=".29"><path d="m62 78.24a10.29 10.29 0 0 1 -10.35-10.24 1.87 1.87 0 0 1 1.85-1.87l16.82-.11a1.86 1.86 0 0 1 1.87 1.85 10.27 10.27 0 0 1 -10.19 10.37z"/><path d="m41.89 67.61a3.73 3.73 0 0 1 -3.74-3.68v-6.43a3.73 3.73 0 0 1 3.69-3.74 3.72 3.72 0 0 1 3.73 3.69v6.43a3.71 3.71 0 0 1 -3.68 3.73z"/><path d="m82 67.35a3.71 3.71 0 0 1 -3.73-3.68v-6.43a3.72 3.72 0 0 1 3.68-3.74 3.72 3.72 0 0 1 3.73 3.69v6.43a3.72 3.72 0 0 1 -3.68 3.73z"/></g><g fill="#fff"><path d="m60.57 76.83a10.28 10.28 0 0 1 -10.33-10.2 1.85 1.85 0 0 1 1.85-1.87l16.81-.11a1.87 1.87 0 0 1 1.88 1.85 10.29 10.29 0 0 1 -10.21 10.33z"/><path d="m40.47 66.2a3.72 3.72 0 0 1 -3.73-3.69v-6.43a3.71 3.71 0 0 1 3.68-3.73 3.72 3.72 0 0 1 3.7 3.65v6.43a3.74 3.74 0 0 1 -3.65 3.77z"/><path d="m80.54 65.94a3.74 3.74 0 0 1 -3.74-3.69v-6.43a3.72 3.72 0 0 1 3.69-3.73 3.71 3.71 0 0 1 3.73 3.68v6.43a3.72 3.72 0 0 1 -3.68 3.74z"/></g></svg>