<svg viewBox="0 0 116 116" xmlns="http://www.w3.org/2000/svg"><ellipse cx="59.04" cy="58.19" fill="#f08229" rx="51.81" ry="29.3" transform="matrix(.00122173 -.99999925 .99999925 .00122173 .77 117.15)"/><ellipse cx="56.96" cy="56.62" fill="#feaa3b" rx="29.3" ry="50.62"/><g fill="#febb63"><ellipse cx="56.96" cy="56.62" opacity=".25" rx="26.81" ry="46.32"/><ellipse cx="56.96" cy="56.62" opacity=".25" rx="22.26" ry="38.45"/><ellipse cx="56.96" cy="56.62" opacity=".25" rx="17.1" ry="29.53"/><ellipse cx="56.96" cy="56.62" opacity=".25" rx="13.06" ry="22.56"/><ellipse cx="56.96" cy="56.62" opacity=".25" rx="9.05" ry="15.63"/><ellipse cx="56.96" cy="56.62" opacity=".25" rx="5.28" ry="9.11"/><ellipse cx="56.96" cy="56.62" opacity=".25" rx="2.93" ry="5.06"/><ellipse cx="56.96" cy="56.62" opacity=".25" rx="1.38" ry="2.39"/></g><path d="m58.24 57.86c-4.49-2-.64-9.72 2.37-6 4 5-.38 13.72-4.11 12.85-8.74-2.03-3.5-26.71 5.5-19.52 7.67 6.18 5 25-2.18 28.62-8.64 4.37-15.59-8.63-13.62-23 4.59-33.54 34.21-12 24.65 19.33-10.59 34.74-41.05-1.44-28.29-35.14 12-31.79 39-6.6 35.76 27.73-2 20.68-14.64 35.77-26.44 30.1-19.71-9.43-22.55-59.26-5.65-77.03 16.5-17.36 36.37 4.62 38.37 36 2.3 36.1-19.77 64.54-39.08 49.11-7.83-6.25-12.8-18.69-15-32.84a81.34 81.34 0 0 1 -.7-21.33c.25-2.29 4.22-20.49 5.13-19.25-.18-.25-3.1 16.88-3.27 18.94a85.18 85.18 0 0 0 .32 16.74c1.54 13.25 5.83 26.15 12.79 32.92 16.21 15.78 36.74-4.02 38.21-35.55 1.48-30.16-15.63-57.84-32.9-45.36-16.51 11.92-18 51.68-3.9 69.44 8.15 10.25 19.25 7 25.57-6.59 10.12-21.69.29-57.14-16.51-51.66-17 5.55-16.63 51.61 1.86 51.75 17.51.13 14.83-47.63-1.47-39-7.6 4-10.48 24.83-2 30.3 6.42 4.12 14.83-8 9.27-18.76-7.92-15.41-12.75 15.34-4.71 11.59 3-1.39 3.55-8.24.39-9.83-3.31-1.66.86 5.98-.36 5.44z" fill="#9b390c"/><g fill="#5e1100" opacity=".25"><path d="m62 45.19c-5.91-4.77-10.22 4.39-9.94 11.75.25-7.06 4.39-14.89 9.94-10.41 3.08 2.49 4.49 7 4.6 11.77.13-5.24-1.24-10.4-4.6-13.11z"/><path d="m57.39 53.77c-.37.69.37 2.69.8 4.06h.05c.76.35-.48-2.27-.85-4.06z"/><path d="m60.61 51.88c-2.19-2.73-4.83.63-4.37 3.43a4.61 4.61 0 0 1 1-2.3c0-.66.24-1 1-.71a2.05 2.05 0 0 1 2.28.92 7.4 7.4 0 0 1 1.58 4.17 7.75 7.75 0 0 0 -1.49-5.51z"/><path d="m58.21 63.6c1.78-.83 2.69-3.57 2.49-6-.16 2-1 4-2.49 4.64-2.74 1.28-4-1.45-4.12-5-.15 4.17 1.04 7.76 4.12 6.36z"/><path d="m32 64.52c1.54 13.24 5.83 26.14 12.79 32.92 16.21 15.77 36.74-4.03 38.21-35.55.06-1.43.09-2.86.08-4.27 0 1 0 2-.08 2.92-1.47 31.53-22 51.33-38.22 35.55-7-6.77-11.25-19.67-12.79-32.92a88.31 88.31 0 0 1 -.59-9.31 88.57 88.57 0 0 0 .6 10.66z"/><path d="m46.23 17.14c16.5-17.35 36.37 4.62 38.37 36 .1 1.51.15 3 .16 4.49 0-1.92 0-3.86-.16-5.83-2-31.37-21.87-53.35-38.37-36-7.59 8-11.19 22.41-11.09 36.75.12-13.89 3.74-27.68 11.09-35.41z"/><path d="m29.81 48.07c.19-2.07 3.45-16.95 4.76-19.07a7 7 0 0 1 .37-1.53c-.91-1.24-4.88 17-5.13 19.25a71.8 71.8 0 0 0 -.41 8.4c.03-2.34.15-4.69.41-7.05z"/><path d="m42.56 35a47.59 47.59 0 0 0 -3.06 17.57 47.37 47.37 0 0 1 3.06-16.19c11.29-29.78 35.66-9.56 36 21.34.36-31.65-24.56-52.89-36-22.72z"/><path d="m53.69 70.77c5.09 3.26 11.41-3.67 11.07-12-.34 7.74-6.26 13.77-11.07 10.68-3.48-2.24-5.06-7.05-5.19-12.22-.13 5.64 1.4 11.1 5.19 13.54z"/><path d="m46.2 86c8.15 10.25 19.25 7 25.57-6.6a48.52 48.52 0 0 0 4.08-20.83 48 48 0 0 1 -4.08 19.43c-6.32 13.58-17.42 16.87-25.57 6.62-6.33-8-9.51-20.32-9.63-32.62-.11 12.74 3.07 25.72 9.63 34z"/><path d="m57.12 79.46c8.4.06 12.15-10.89 12-21.36-.16 10-3.94 20.08-12 20-9.37-.1-14.12-11.91-14.24-24.31-.17 12.88 4.54 25.6 14.24 25.67z"/><path d="m46.19 50.82a35.26 35.26 0 0 0 -.33 5.57 34.21 34.21 0 0 1 .33-4.23c3.92-28.65 26.12-17.16 26.53 6.4.43-24.42-22.53-36.94-26.53-7.74z"/></g><g fill="#802a15" opacity=".25"><path d="m33.13 61.58c1.2-1.61 1.75 4.33.81 5.51s-2.27-3.54-.81-5.51z"/><path d="m39.35 46.59c.74-.24 1.28 3.47.44 4.12s-1.39-3.82-.44-4.12z"/><path d="m43.39 81.76c1.31-.53 1.16 3.13-.69 2.84s-.84-2.23.69-2.84z"/><path d="m51.77 100c-1.46 1.25-.25 3.33 1 1.44s.39-2.61-1-1.44z"/><path d="m44.09 96.94c.93.44 1.84-2 .47-2.66s-2.23 1.84-.47 2.66z"/><path d="m56.78 81.4c1.37-.6 2.68 3.16.47 3.73s-2.5-2.84-.47-3.73z"/><path d="m49 65.57c1.29 1.19 2.64-.84.89-2.29s-2.38.89-.89 2.29z"/><path d="m50.43 44.46c1.81.55 1.82 4.31-.14 2.92s.14-2.92.14-2.92z"/><path d="m36.86 37.36c1.61-1 1.5 1.28.61 2.18s-2.1-1.21-.61-2.18z"/><path d="m52.62 11.45c1.81-.43 1 4.32 0 3.88s-1.62-3.49 0-3.88z"/><path d="m45.86 27.87c.9-2.55 2.45.85 2 2.11s-3.34 1.69-2-2.11z"/><path d="m57.18 28.67c2.82-.75 2.64 3.42.34 3.9s-2.78-3.25-.34-3.9z"/><path d="m61.78 17c.94 0 1.15 3-.33 2.61s-.96-2.61.33-2.61z"/><path d="m65 49.86c.82 2.63-1.36 2.93-1.68.65s.68-3.96 1.68-.65z"/><path d="m73.14 34c1.65-.52 1.89 2.79 0 2.38s-1.46-1.9 0-2.38z"/><path d="m82.58 43.55c1.56-1 2.41 6.25-.41 6.14s-1.44-4.93.41-6.14z"/><path d="m66.3 62.48c1.6-.71 1.34 3.33-.41 4s-3.5-2.26.41-4z"/><path d="m75.66 68.41c2.37-1.16 1.63 3.24-.32 3.48s-1.85-2.42.32-3.48z"/><path d="m71 84.3c2.61.58 1.63 4-.6 2.94s-2.23-3.56.6-2.94z"/><path d="m66.22 96.07c.54 3.63-2.14 3.43-2.7 1s2.48-2.79 2.7-1z"/></g><g fill="#ffa08a" opacity=".25"><path d="m36.43 33c1.52 0-.21 5.27-1.37 5.17s-.48-5.23 1.37-5.17z"/><path d="m46.72 28.05c.65.61-.27 4.09-1.16 3.68s.31-4.48 1.16-3.68z"/><path d="m37.1 59.82c1.21 1-.23 3.71-1.57 1.47s.15-2.65 1.57-1.47z"/><path d="m37 83.13c-1.59-.61-1.41 2.32.25 2.19s1.27-1.62-.25-2.19z"/><path d="m32.13 72.4c.57 1.35 2.15.47 1.34-1.55s-2.41-.99-1.34 1.55z"/><path d="m47.66 74c1.29 1 .94 5.37-1 3.42s-.91-4.88 1-3.42z"/><path d="m47.37 53.31c.57 2.34 2.36 2.21 1.53-.81s-2.2-1.92-1.53.81z"/><path d="m56.12 38.39c1.21 2.39-.14 5.33-1.17 2.12s1.17-2.12 1.17-2.12z"/><path d="m48.12 18.16c1.64.92.71 2.62-.31 2.36s-1.2-3.22.31-2.36z"/><path d="m69.81 15.05c1.57 1.62-.8 4.43-1.38 3.05s-.03-4.51 1.38-3.05z"/><path d="m58.59 20.52c1.62-1 1.59 3.31.82 3.85s-3.25-2.37-.82-3.85z"/><path d="m67.11 33.4c2.46 2.47.81 5.52-1.16 3.4s-.95-5.54 1.16-3.4z"/><path d="m75 29.24c.74 1-.2 3.6-1.21 1.68s.14-3.05 1.21-1.68z"/><path d="m65.54 58.41c-.31 2.94-2.12.82-1.54-1.3s1.94-2.39 1.54 1.3z"/><path d="m77.61 54.85c1.47 1.37.46 4.21-.84 1.87s-.47-3.1.84-1.87z"/><path d="m81.49 72.5c1.6.89-.39 7.48-2.54 4.34s.67-5.4 2.54-4.34z"/><path d="m61.94 69.62c1.51 1.17-.16 4-1.77 2.68s-1.9-5.57 1.77-2.68z"/><path d="m67.08 84.37c2.27 1.66.1 4.29-1.51 2.37s-.57-3.89 1.51-2.37z"/><path d="m57.66 91.67c1.83 3.28-.17 4.88-1.53 1.64s-.42-5.15 1.53-1.64z"/><path d="m49.69 95.7c-.9 3.41-2.91.36-2.46-2.16s2.91.46 2.46 2.16z"/></g><path d="m77 19.62c4.89 9 7.88 21.18 7.88 34.53 0 28-13.12 50.62-29.3 50.62-7.73 0-14.76-5.17-20-13.61 5.35 9.89 13 16.08 21.42 16.08 16.19 0 29.31-22.67 29.31-50.62-.04-14.62-3.63-27.76-9.31-37z" fill="#800000" opacity=".25"/><path d="m78.91 20.05c5.08 9.31 8.21 22 8.2 36 0 28.61-13.14 51.83-29.33 51.85-7.66 0-14.63-5.18-19.84-13.68 5.32 9.78 12.79 15.78 21.06 15.78 16.19 0 29.32-23.24 29.33-51.85.02-15.08-3.62-28.64-9.42-38.1z" fill="#800000" opacity=".25"/><path d="m29 59.08c0-27.95 13.08-50.62 29.26-50.62 8.25 0 15.7 5.9 21 15.37-5.35-10.91-13.35-17.83-22.26-17.83-16.18 0-29.3 22.66-29.3 50.62 0 13.7 3.15 26.13 8.27 35.25-4.39-8.87-6.97-20.28-6.97-32.79z" fill="#800000" opacity=".25"/><path d="m42 60.36a2.67 2.67 0 0 1 -2.66-2.66v-2.84a2.67 2.67 0 0 1 2.66-2.66 2.67 2.67 0 0 1 2.66 2.66v2.84a2.67 2.67 0 0 1 -2.66 2.66z" fill="#401b15"/><path d="m75.11 61.61a1.58 1.58 0 0 1 -.66-.15l-5.45-2.46a1.6 1.6 0 0 1 -.36-2.7l4.78-3.9a1.6 1.6 0 0 1 2 2.48l-2.78 2.27 3.13 1.42a1.6 1.6 0 0 1 -.66 3.06z" fill="#401b15"/><path d="m58 67.69c-3.86 0-7-3.62-7-8.07a1.34 1.34 0 0 1 2.67 0c0 3 2 5.4 4.34 5.4s4.34-2.42 4.34-5.4a1.34 1.34 0 0 1 2.67 0c-.02 4.45-3.16 8.07-7.02 8.07z" fill="#401b15"/></svg>