<svg viewBox="0 0 116 116" xmlns="http://www.w3.org/2000/svg"><path d="m109.87 75.91c-.58-3.4-2.93-6.29-4.18-9.45-1.94-4.89-4-10.07-7.48-14-2.52-2.83-5.76-5-8.6-7.51a31.19 31.19 0 0 0 -9.28-6.1 69.9 69.9 0 0 0 -12.51-3.24c-3-.55-5.84-1.7-8.84-2.06s-5.42.73-8.22 1.11c-2.41.32-4.72-.54-7.1.26s-4.48 2.6-6.85 3.64c-2.93 1.28-6.13 2.23-8.55 4.42-1.15 1.05-1.92 2.46-3.15 3.43s-2.55 1.25-3.76 2c-2.91 1.82-4.44 6.83-6.05 9.78-2.19 4-5.44 7.27-6.81 11.75a54 54 0 0 0 -1.69 5.59 51.86 51.86 0 0 0 -.63 5.84c-.08 1.17-.17 2.38-.17 3.63h4.57c0 .31.66.25.67 0h10.82l.21.06s0 0 0-.06h80.21c.41.24 1.3.35 1.32.11 0 0 2.75-.11 2.75-.11h2.32c.35-3 1.52-6 1-9.09z" fill="#42210b"/><path d="m108.85 82.32h-5.06a.34.34 0 0 0 0 .1l-.06.73a10.47 10.47 0 0 0 -1.26-.83h-80.22v.05l-.21-.05h-10.8v.74a3 3 0 0 0 -.57.16c0-.3-.06-.6-.09-.9h-4.58c0-1.2.09-2.42.17-3.58a52.29 52.29 0 0 1 .63-5.85 53.14 53.14 0 0 1 1.69-5.61c1.37-4.49 4.62-7.73 6.81-11.76 1.61-3 3.14-8 6.05-9.78 1.21-.76 2.63-1.1 3.76-2s2-2.38 3.15-3.43c2.42-2.19 5.62-3.13 8.55-4.42 2.37-1 4.38-2.81 6.85-3.64s4.69.06 7.1-.26c2.8-.38 5.35-1.46 8.22-1.11s5.87 1.51 8.84 2.06a69.09 69.09 0 0 1 12.51 3.25 31 31 0 0 1 9.28 6.1c2.84 2.49 6.08 4.67 8.6 7.5 3.53 4 5.54 9.15 7.48 14 1.25 3.16 3.6 6.05 4.18 9.46.52 3.07-.65 6.07-1.02 9.07z" fill="#42210b"/><path d="m106.54 82.24a.22.22 0 0 1 0 .08h-2.74a.34.34 0 0 0 0 .1l-.06.73a10.47 10.47 0 0 0 -1.26-.83h-80.23v.05l-.21-.05h-10.8v.74a3 3 0 0 0 -.57.16c0-.3-.06-.6-.09-.9a29.07 29.07 0 0 1 .08-5.73c0-.41.09-.81.16-1.24a55.12 55.12 0 0 1 1.18-5.54 53.89 53.89 0 0 1 1.61-5.44 54 54 0 0 1 2.54-5 27.88 27.88 0 0 1 5.27-6.69c1-1.07 2.05-2.13 3-3.31.57-.72 1.15-1.6 1.77-2.52 0 0 0 0 0-.06.25-.35.49-.72.74-1.08 1.37-2 2.9-3.87 4.67-4.61a20.21 20.21 0 0 1 2.26-.68 6.48 6.48 0 0 0 1.49-.58 8 8 0 0 0 .78-.51c.91-.7 1.71-1.58 2.67-2.21a15.76 15.76 0 0 1 5.08-2h.15c1.1-.26 2.21-.48 3.28-.74l.24-.07.18-.05c2.15-.63 4.18-1.83 6.41-2.18s4.22.86 6.45 1c2.59.12 5.09-.47 7.61.35s5 2.42 7.61 3.45c2.21.89 4.41 1.8 6.55 2.86a38.85 38.85 0 0 1 4.15 2.26 21.31 21.31 0 0 1 4 3.33 44.58 44.58 0 0 1 3.33 4c2.11 2.85 4.65 5.47 6.41 8.58 2.36 4.17 3.28 9.13 4.12 13.88l.12.72c.1.54.22 1.08.36 1.61.35 1.34.8 2.67 1.15 4a14.75 14.75 0 0 1 .54 4.12z" fill="#f2e8d3" opacity=".5"/><path d="m104.22 79.6c-.17.9-.35 1.81-.43 2.72a.34.34 0 0 0 0 .1l-.06.73a10.47 10.47 0 0 0 -1.26-.83h-80.22v.05l-.21-.05h-10.8c0-1.24.08-2.49.15-3.7 0-.2 0-.4 0-.6.12-1.64.24-3.33.52-4.93a54.71 54.71 0 0 1 1.53-5.32c1.24-4.25 4.16-7.32 6.13-11.13.59-1.13 1.15-2.57 1.8-4 1-2.12 2.08-4.23 3.64-5.27.34-.21.69-.4 1.05-.58h.07a14.58 14.58 0 0 0 1.67-.85 4.56 4.56 0 0 0 .59-.42c1.1-.92 1.8-2.26 2.84-3.25a12.14 12.14 0 0 1 2.57-1.85 24.85 24.85 0 0 1 2.27-1.09c1-.42 1.92-.82 2.85-1.25 1.71-.79 3.22-2 4.89-2.88l.16-.08a12.17 12.17 0 0 1 1.12-.48 6.48 6.48 0 0 1 2.4-.33h.18a21 21 0 0 0 3.81.08c2.52-.36 4.81-1.38 7.4-1.05s5.27 1.43 7.95 2a59.58 59.58 0 0 1 11.26 3.07 19 19 0 0 1 2.63 1.32 34.17 34.17 0 0 1 5.78 4.37c1.17 1.08 2.44 2.12 3.67 3.17a33.52 33.52 0 0 1 4.06 3.93c3.19 3.77 5 8.67 6.74 13.3.93 2.48 2.53 4.79 3.36 7.33a10.06 10.06 0 0 1 .39 1.62c0 .24.07.47.09.71a20.08 20.08 0 0 1 -.59 5.44z" fill="#f2e8d3"/><path d="m72 44a.8.8 0 0 1 -.8.8.8.8 0 0 1 0-1.6.8.8 0 0 1 .8.8z" fill="#c1272d"/><path d="m39 49.92a.8.8 0 0 1 -1.6 0 .8.8 0 0 1 1.6 0z" fill="#c1272d"/><path d="m75.25 61.13a.8.8 0 1 1 -1.6 0 .8.8 0 0 1 1.6 0z" fill="#c1272d"/><path d="m29.09 74.32a.8.8 0 1 1 -.8-.8.8.8 0 0 1 .8.8z" fill="#c1272d"/><path d="m50.85 74.32a.8.8 0 1 1 -.8-.8.8.8 0 0 1 .8.8z" fill="#c1272d"/><path d="m93.05 73a.79.79 0 0 1 -.79.8.8.8 0 0 1 -.8-.8.79.79 0 0 1 .8-.79.79.79 0 0 1 .79.79z" fill="#c1272d"/><g fill="#f2e8d3"><path d="m68.13 53.22a.8.8 0 1 1 -.8-.8.8.8 0 0 1 .8.8z"/><path d="m58.89 65.09a.79.79 0 0 1 -.79.8.8.8 0 1 1 0-1.6.79.79 0 0 1 .79.8z"/><path d="m58.89 75a.79.79 0 0 1 -.79.8.8.8 0 0 1 0-1.6.79.79 0 0 1 .79.8z"/><path d="m70.76 80.92a.79.79 0 0 1 -.79.79.79.79 0 0 1 -.8-.79.8.8 0 0 1 .8-.8.79.79 0 0 1 .79.8z"/><path d="m52.05 82.32h-1.05a.8.8 0 0 1 1.1 0z"/><path d="m37.13 71.68a.8.8 0 0 1 -.8.8.8.8 0 1 1 .8-.8z"/><path d="m51.64 43.33a.8.8 0 1 1 -.8-.8.8.8 0 0 1 .8.8z"/><path d="m87.91 66.41a.8.8 0 1 1 -.8-.8.8.8 0 0 1 .8.8z"/></g><path d="m78.68 73a.8.8 0 0 1 -1.6 0 .8.8 0 0 1 1.6 0z" fill="#8cc63f"/><path d="m82 51.9a.79.79 0 0 1 -.79.8.8.8 0 0 1 0-1.6.79.79 0 0 1 .79.8z" fill="#8cc63f"/><path d="m57.57 51.9a.79.79 0 0 1 -.79.8.8.8 0 1 1 0-1.6.79.79 0 0 1 .79.8z" fill="#8cc63f"/><path d="m66.81 71a.8.8 0 1 1 -.8-.79.8.8 0 0 1 .8.79z" fill="#8cc63f"/><path d="m45 59.15a.79.79 0 0 1 -.79.8.8.8 0 1 1 0-1.59.79.79 0 0 1 .79.79z" fill="#8cc63f"/><path d="m38.2 82.32h-1.09a.76.76 0 0 1 .54-.22.78.78 0 0 1 .55.22z" fill="#8cc63f"/><path d="m29.22 61.79a.8.8 0 0 1 -1.6 0 .8.8 0 0 1 1.6 0z" fill="#8cc63f"/><path d="m78.22 81.26a37 37 0 0 0 -.14-4.82c-.12-4.16.8-11-3.42-13.67-1.65-1-3.39-.29-5 .27-1 .33-2 .52-3 .79a10.4 10.4 0 0 0 -2.39.54c2.23-2 4.41-4 6.83-5.79a36.47 36.47 0 0 1 4.15-2.53 38.85 38.85 0 0 0 7.2-4.51c1.93-1.7 6.11-6.61 2.32-8.79-2.24-1.28-5-.82-7.51-1a18.8 18.8 0 0 1 -7.53-2 18.36 18.36 0 0 0 -2.51-1.61 29.5 29.5 0 0 0 7.93 1.66c4.41.17 9.65-1.18 13.38 1.92a5 5 0 0 1 1.92 4.9c-.42 1.82-1.84 3-3.06 4.32a60.7 60.7 0 0 1 -4.49 4.3 35.37 35.37 0 0 0 -4.51 3.76c-1 1.13-.67 2.67-.37 4a37.24 37.24 0 0 1 .9 8.32 89.91 89.91 0 0 1 -.7 9.94z" fill="#42210b"/><path d="m43.37 51.58c2.48.93 6.27 1.34 5.19-2-.39-1.19-.87-2.23-.46-3.51.51-1.57-.31-2.87-.49-4.39a30.87 30.87 0 0 1 .25-4.29c0-1.36-.14-2.72-.19-4.08-1.17.36-2.35.63-3.54.88a12.06 12.06 0 0 0 0 7c.53 2.09.67 4.52-1.5 5.69s-5.32-.21-7.65-.46c-1.52-.17-3 .06-4.58 0a27.82 27.82 0 0 1 -4.23-.86c-1.1-.24-1.62-.58-2.41.41a15.49 15.49 0 0 0 4.75 1.39c4.52 1 9.35.71 13.28 3.51a7.42 7.42 0 0 0 1.58.71z" fill="#42210b"/><path d="m19.27 81.62c.93.22 1.86.45 2.79.7h-10.82v.74a3 3 0 0 0 -.57.16c0-.3-.06-.6-.09-.9h-2.13c.37-2.58 1-5.17 1.4-7.46.28.59.53 1.17.8 1.73a13 13 0 0 0 .78 1.41 5.87 5.87 0 0 0 2 1.9c1.74 1.1 3.89 1.28 5.84 1.72z" fill="#42210b"/><path d="m27.64 63.07a12.58 12.58 0 0 1 -1.11 10.41 9.78 9.78 0 0 0 -2 5.38 6.5 6.5 0 0 0 1.22 3.46h-3.5a5.18 5.18 0 0 1 -.4-1.34 6.36 6.36 0 0 1 1.08-4.24c.82-1.3 2.31-2.21 2.84-3.69a9.63 9.63 0 0 0 .61-3.72 22.3 22.3 0 0 1 1.17-6.51z" fill="#42210b"/><path d="m107.22 82.32h-3.43a.34.34 0 0 0 0 .1l-.06.73a10.47 10.47 0 0 0 -1.26-.83 11.21 11.21 0 0 0 -4.47-1.32 68.26 68.26 0 0 1 -8-1.21 31.31 31.31 0 0 1 -3.78-1.32c-.49-.2-3.12-1.68-3.51-1.46 1.38-.79 3.81.55 5.19.89a30.48 30.48 0 0 0 5.26 1 54.22 54.22 0 0 1 7.32.63 7.84 7.84 0 0 0 3.84.13 3.42 3.42 0 0 0 1.5-.94q.12-.22.24-.48a8.16 8.16 0 0 0 .58-1.44c.13 1.79.42 3.66.58 5.52z" fill="#42210b"/><path d="m33.44 59.8a2.54 2.54 0 0 1 -2.53-2.54v-2.7a2.54 2.54 0 0 1 2.53-2.56 2.54 2.54 0 0 1 2.56 2.56v2.7a2.54 2.54 0 0 1 -2.56 2.54z" fill="#9b390c"/><path d="m65.06 61a1.51 1.51 0 0 1 -.62-.14l-5.24-2.38a1.5 1.5 0 0 1 -.88-1.19 1.53 1.53 0 0 1 .55-1.38l4.55-3.72a1.53 1.53 0 1 1 1.93 2.37l-2.65 2.16 3 1.35a1.53 1.53 0 0 1 -.64 2.93z" fill="#9b390c"/><path d="m48.75 66.79c-3.69 0-6.68-3.45-6.68-7.7a1.27 1.27 0 1 1 2.54 0c0 2.84 1.86 5.16 4.14 5.16s4.14-2.32 4.14-5.16a1.27 1.27 0 0 1 2.54 0c0 4.25-3 7.7-6.68 7.7z" fill="#9b390c"/></svg>