<svg viewBox="0 0 116 116" xmlns="http://www.w3.org/2000/svg"><path d="m110 63.07c0-1.92-1.83-5.14-3-6.49a9.34 9.34 0 0 0 2.78-7.6c-.54-4.16-3.81-8-5.5-8.86.8-.89 1-4 1-4.78 0-5.29-7.67-10.93-9.47-8.72 1.8-6.59-5.81-13-12.45-10a8.79 8.79 0 0 0 -15.21-5.29c-3.15-7.56-13.9-7.19-17.15-.33-5.13-5.83-14.89-3-15.95 4.66a9.1 9.1 0 0 0 -13 9.86c-5.25-.54-10.19 3.42-10.39 8.62a18.6 18.6 0 0 0 .34 4.63c-1.89 1.35-4.91 5.55-5 8.36a9.6 9.6 0 0 0 3.14 7.3c-1.25.87-3.88 5.06-4 7.4-.44 5.93 2.07 8.33 6 9.49-1.08 1.42-1.55 4-1.62 5.9a9.13 9.13 0 0 0 10.52 9.3c-2.73 7.63 5.34 14.67 12.63 11.16a9.18 9.18 0 0 0 15.6 5.65c1.24 3.35 3.87 6.92 11 6.92 3.66 0 6.64-3.24 8-6.48a8.79 8.79 0 0 0 15.21-5.29c6.62 3 13.83-3.08 12.13-10.37 5.3.34 10.3-4.91 10.3-9.93a11 11 0 0 0 -1.33-5.73c3.65-1.01 5.49-5.45 5.42-9.38z" fill="#b06636"/><path d="m100.32 54.43a40.18 40.18 0 1 1 -40.18-40.18 40.17 40.17 0 0 1 40.18 40.18z" fill="#ef8f41"/><g fill="#f39c4d"><path d="m104.15 54.43a8.49 8.49 0 0 0 -2.33-15.43 8.5 8.5 0 0 0 -7-13.33 5.06 5.06 0 0 0 -.55 0 8.65 8.65 0 0 0 .24-2 8.51 8.51 0 0 0 -11.91-7.78 8.5 8.5 0 0 0 -14.6-4.89 8.48 8.48 0 0 0 -7.83-5.19c-.25 0-.51 0-.76 0a8.8 8.8 0 0 0 -7.88 4.88 8.94 8.94 0 0 0 -6.31-2.93 8.69 8.69 0 0 0 -9 7.31 8.89 8.89 0 0 0 -3.5-.86 8.65 8.65 0 0 0 -9.13 8.14 8.2 8.2 0 0 0 .16 2 5.09 5.09 0 0 0 -.56 0 8.65 8.65 0 0 0 -9.19 8.07 8.25 8.25 0 0 0 1.38 4.89 8.57 8.57 0 0 0 -6.9 8 8.43 8.43 0 0 0 3.89 7.38 8.43 8.43 0 0 0 -4.47 7.01 8.56 8.56 0 0 0 6.25 8.48 8.22 8.22 0 0 0 -1.75 4.82 8.64 8.64 0 0 0 8.46 8.83 9.1 9.1 0 0 0 1.66-.09 8.05 8.05 0 0 0 -.52 2.46 8.65 8.65 0 0 0 8.49 8.8 9 9 0 0 0 4.19-.84 8.7 8.7 0 0 0 8.44 7.8 8.93 8.93 0 0 0 6.58-2.46c1.19 3.15 3.57 5.6 10.44 5.6a8.48 8.48 0 0 0 7.86-5.19 8.5 8.5 0 0 0 14.65-5 8.47 8.47 0 0 0 11.67-9.75h.55a8.5 8.5 0 0 0 7-13.33 8.49 8.49 0 0 0 2.33-15.44zm-26.57 29.89a8.48 8.48 0 0 0 -11.24 4.48 8.47 8.47 0 0 0 -6.2-2.68c-3.75 0-6.75.87-8.42 2.49a8.8 8.8 0 0 0 -7.93-5.61 9 9 0 0 0 -4.2.84 8.69 8.69 0 0 0 -8.43-7.8 9.21 9.21 0 0 0 -1.67.08 8 8 0 0 0 .49-2.5 8.55 8.55 0 0 0 -6.25-8.48 8.23 8.23 0 0 0 1.76-4.77 8.43 8.43 0 0 0 -3.89-7.37 8.42 8.42 0 0 0 4.45-7 8.25 8.25 0 0 0 -1.37-4.89 8.55 8.55 0 0 0 6.89-8 8.11 8.11 0 0 0 -.16-2h.56a8.69 8.69 0 0 0 9.03-7.25 9.11 9.11 0 0 0 3.51.86 8.82 8.82 0 0 0 8.31-4.88 8.84 8.84 0 0 0 6.3 2.93 8.22 8.22 0 0 0 1.22 0 8.49 8.49 0 0 0 6-2.68 8.48 8.48 0 0 0 11.24 4.48 8.49 8.49 0 0 0 8.42 7.62h.55a8.45 8.45 0 0 0 6.15 10.18 8.48 8.48 0 0 0 2.51 12.06 8.48 8.48 0 0 0 -2.51 12.06 8.45 8.45 0 0 0 -6.12 10.19h-.58a8.49 8.49 0 0 0 -8.42 7.64z"/><ellipse cx="59.26" cy="95.95" opacity=".32" rx="7.29" ry="3.9"/><path d="m80.4 91.5c1.08 1.87-.46 4.77-3.43 6.49s-6.25 1.59-7.33-.27.46-4.77 3.43-6.49 6.25-1.59 7.33.27z" opacity=".32"/><path d="m91.2 82.62c1.42 1.63.47 4.77-2.12 7s-5.83 2.76-7.24 1.14-.47-4.77 2.12-7 5.83-2.76 7.24-1.14z" opacity=".32"/><path d="m47.68 95.55c-.68 2.32-3.83 3.45-6.91 2.45s-5-3.64-4.25-6 3.82-3.42 6.9-2.45 4.99 3.67 4.26 6z" opacity=".32"/><path d="m34.74 88.61c-1.22 2.11-4.47 2.51-7.27.89s-4.08-4.63-2.86-6.74 4.47-2.52 7.27-.9 4.12 4.64 2.86 6.75z" opacity=".32"/><path d="m23.14 78.63c-1.73 1.72-5 1.27-7.26-1s-2.74-5.53-1-7.26 5-1.27 7.26 1 2.72 5.53 1 7.26z" opacity=".32"/><path d="m18.75 37c-2.06-1.3-2.34-4.57-.61-7.31s4.79-3.89 6.86-2.59 2.33 4.57.61 7.31-4.8 3.86-6.86 2.59z" opacity=".32"/><path d="m27.58 26.09c-2.06-1.3-2.34-4.57-.61-7.31s4.79-3.89 6.85-2.59 2.34 4.57.61 7.3-4.79 3.9-6.85 2.6z" opacity=".32"/><path d="m17.34 65.73c-2.11 1.22-5.13-.06-6.75-2.86s-1.21-6 .9-7.27 5.13.06 6.75 2.86 1.21 6.05-.9 7.27z" opacity=".32"/><path d="m15.39 50.59c-2.43.13-4.54-2.39-4.7-5.62s1.68-5.97 4.11-6.06 4.54 2.39 4.71 5.62-1.68 5.94-4.12 6.06z" opacity=".32"/><path d="m99.7 70.19c2.06 1.3 2.33 4.57.61 7.31s-4.8 3.89-6.86 2.59-2.33-4.57-.61-7.3 4.8-3.9 6.86-2.6z" opacity=".32"/><path d="m102.3 56.49c2.3.83 3.27 4 2.18 7s-3.84 4.84-6.13 4-3.27-4-2.18-7 3.83-4.82 6.13-4z" opacity=".32"/><path d="m101.21 41c2.42-.23 4.64 2.19 4.94 5.41s-1.42 6-3.84 6.24-4.65-2.2-5-5.41 1.47-5.99 3.9-6.24z" opacity=".32"/><path d="m93.48 28.41c2.18-1.08 5.12.39 6.55 3.28s.83 6.12-1.35 7.2-5.12-.38-6.56-3.27-.83-6.13 1.36-7.21z" opacity=".32"/><path d="m83.35 18.7c1.73-1.72 5-1.27 7.26 1s2.74 5.53 1 7.26-5 1.26-7.26-1-2.72-5.54-1-7.26z" opacity=".32"/><path d="m69.79 13.32c1.1-2.17 4.33-2.76 7.22-1.31s4.33 4.4 3.24 6.58-4.33 2.76-7.25 1.31-4.3-4.4-3.21-6.58z" opacity=".32"/></g><path d="m82.08 54.43a24.29 24.29 0 1 1 -24.29-24.29 24.29 24.29 0 0 1 24.29 24.29z" fill="#7f2207"/><path d="m33.51 54.43a24.28 24.28 0 0 0 42.58 16c-4.7-1.73-9.37-4.7-10.2-9.73-1.75-10.62-5.09-7-15.11-12.65-5.78-3.26-6.85-9.2-6.72-13.65a24.26 24.26 0 0 0 -10.55 20.03z" fill="#702116"/><path d="m89.69 52.9c-7.66-3-8-2.59-18-9.11q2.23-5.53 4.63-11c.81-1.86-1.93-3.48-2.75-1.6q-2.35 5.4-4.58 10.88a82.21 82.21 0 0 0 -9.11-4.88 94.45 94.45 0 0 1 6.12-9.19c1.24-1.6-1-3.87-2.25-2.25a101.74 101.74 0 0 0 -6.75 10.12 54.83 54.83 0 0 1 -10.62-5.87c-1.63-1.23-3.22 1.53-1.6 2.75a54.24 54.24 0 0 0 10.57 5.86c-2.23 3.91-4.15 7.65-6.12 11.55-2.62-1.85-5.18-3.65-10.42-7.42-1.81-1.28-3.81-3.48-6.13-3.06-2 .37-1.16 3.44.85 3.07.1 0-1.4-.77 14.25 10.28a224.58 224.58 0 0 1 -11.93 21.09c-1.13 1.71 1.63 3.31 2.75 1.6a221.6 221.6 0 0 0 11.8-20.84c5.89 4.14 8.34 5.81 10.83 7.52q-3.23 9.17-6 18.46c-.59 2 2.48 2.8 3.07.84q2.67-8.78 5.69-17.44 9.01 6.21 18.2 12.28c1.72 1.13 3.31-1.62 1.61-2.74q-9.43-6.24-18.8-12.64 2.58-7.21 5.41-14.36c9.94 6.45 11.09 6.2 18.44 9.2 1.9.72 2.72-2.35.84-3.1zm-37.84-.9c2-4.05 4.09-8.07 6.38-12.09a85.33 85.33 0 0 1 9.5 5.13q-2.82 7.08-5.4 14.25c-3.01-2.05-5.28-3.62-10.48-7.29z" fill="#ef8f41"/></svg>