<svg viewBox="0 0 116 116" xmlns="http://www.w3.org/2000/svg"><rect fill="#ffaa60" height="104" rx=".96" transform="matrix(0 -1 1 0 0 116)" width="59.57" x="28.22" y="6"/><rect fill="#f4710f" height="22.93" opacity=".3" rx=".76" transform="matrix(0 -1 1 0 -50.28 91.3)" width="23.8" x="8.61" y="59.32"/><rect fill="#e48e39" height="18.81" rx=".62" transform="matrix(0 -1 1 0 -50.28 91.3)" width="19.52" x="10.75" y="61.38"/><rect fill="#f4710f" height="22.93" opacity=".3" rx=".76" transform="matrix(0 -1 1 0 -24.7 65.72)" width="23.8" x="8.61" y="33.74"/><rect fill="#e48e39" height="18.81" rx=".62" transform="matrix(0 -1 1 0 -24.7 65.72)" width="19.52" x="10.75" y="35.8"/><rect fill="#f4710f" height="22.93" opacity=".3" rx=".76" transform="matrix(0 -1 1 0 -25.29 116.29)" width="23.8" x="33.6" y="59.32"/><rect fill="#e48e39" height="18.81" rx=".62" transform="matrix(0 -1 1 0 -25.29 116.29)" width="19.52" x="35.74" y="61.38"/><rect fill="#f4710f" height="22.93" opacity=".3" rx=".76" transform="matrix(0 -1 1 0 .29 90.71)" width="23.8" x="33.6" y="33.74"/><rect fill="#e48e39" height="18.81" rx=".62" transform="matrix(0 -1 1 0 .29 90.71)" width="19.52" x="35.74" y="35.8"/><rect fill="#f4710f" height="22.93" opacity=".3" rx=".76" transform="matrix(0 -1 1 0 -.29 141.29)" width="23.8" x="58.6" y="59.32"/><rect fill="#e48e39" height="18.81" rx=".62" transform="matrix(0 -1 1 0 -.29 141.29)" width="19.52" x="60.74" y="61.38"/><rect fill="#f4710f" height="22.93" opacity=".3" rx=".76" transform="matrix(0 -1 1 0 25.29 115.71)" width="23.8" x="58.6" y="33.74"/><rect fill="#e48e39" height="18.81" rx=".62" transform="matrix(0 -1 1 0 25.29 115.71)" width="19.52" x="60.74" y="35.8"/><rect fill="#f4710f" height="22.93" opacity=".3" rx=".76" transform="matrix(0 -1 1 0 24.7 166.28)" width="23.8" x="83.59" y="59.32"/><rect fill="#e48e39" height="18.81" rx=".62" transform="matrix(0 -1 1 0 24.7 166.28)" width="19.52" x="85.73" y="61.38"/><rect fill="#f4710f" height="22.93" opacity=".3" rx=".76" transform="matrix(0 -1 1 0 50.28 140.7)" width="23.8" x="83.59" y="33.74"/><rect fill="#e48e39" height="18.81" rx=".62" transform="matrix(0 -1 1 0 50.28 140.7)" width="19.52" x="85.73" y="35.8"/><path d="m106.84 82.23a2.29 2.29 0 0 1 -2.25 2.33h-98.59v.89a2.29 2.29 0 0 0 2.25 2.33h99.5a2.29 2.29 0 0 0 2.25-2.33v-54.9a2.29 2.29 0 0 0 -2.25-2.33h-.91z" fill="#ffaa60"/><path d="m108.77 29.23v54.9a2.3 2.3 0 0 1 -2.25 2.34h-99.52a2.11 2.11 0 0 1 -.94-.23 2.22 2.22 0 0 0 2.09 1.54h99.5a2.28 2.28 0 0 0 2.25-2.33v-54.9a2.33 2.33 0 0 0 -1.31-2.11 2.32 2.32 0 0 1 .18.79z" fill="#e48e39"/><g fill="#753226"><path d="m58.06 68.5a9.46 9.46 0 0 1 -9.51-9.39 1.7 1.7 0 0 1 1.7-1.72l15.48-.11a1.71 1.71 0 0 1 1.72 1.72 9.46 9.46 0 0 1 -9.39 9.5z"/><path d="m39.6 58.71a3.42 3.42 0 0 1 -3.44-3.39v-5.92a3.43 3.43 0 0 1 3.35-3.4 3.42 3.42 0 0 1 3.49 3.35v5.92a3.42 3.42 0 0 1 -3.4 3.44z"/><path d="m76.49 58.47a3.42 3.42 0 0 1 -3.44-3.39v-5.92a3.42 3.42 0 0 1 3.39-3.44 3.42 3.42 0 0 1 3.44 3.39v5.92a3.43 3.43 0 0 1 -3.39 3.44z"/></g></svg>