<svg viewBox="0 0 116 116" xmlns="http://www.w3.org/2000/svg"><path d="m92.09 19.59-8.27 32.1 25.46 18.78c2.81 3.16-3.42 9.54-5.13 9.64l-33.08 2.06-13.3 22.62c-3.73 7.32-7.56 5.22-8.19 3.63l-11.44-29-30.77-8.24c-1.67-.39-2.46-5.18 1.52-8.77l21.65-15.11-2.9-33c-.15-1.7 3.18-8.6 6.18-8.24l25 24.1 30.51-13a2.06 2.06 0 0 1 2.76 2.43z" fill="#db7d31"/><path d="m96 13.59-8.27 32.1 21.76 25a2.06 2.06 0 0 1 -1.43 3.41l-33.06 2.07-17.1 28.42a2.06 2.06 0 0 1 -3.68-.31l-12.22-30.83-32.26-7.45a2.06 2.06 0 0 1 -.85-3.6l25.55-21.1-2.9-33a2.06 2.06 0 0 1 3.16-1.94l28 17.78 30.5-13a2.07 2.07 0 0 1 2.8 2.45z" fill="#fc9b3a"/><path d="m53.49 83.31-6.2-18.31-18.94-3.95a2.77 2.77 0 0 1 -1.2-4.84l16.17-13.33-.65-20.45a2.76 2.76 0 0 1 4.25-2.43l16.38 10.46 18.51-8.27a2.77 2.77 0 0 1 3.77 3.34l-6 19.37 12.42 14.99a2.76 2.76 0 0 1 -1.88 4.51l-20.41 1.84-11.27 17.66a2.77 2.77 0 0 1 -4.95-.59z" fill="#e51652"/><path d="m26.41 54.27s-12.67 4.36-12.41 7.73 22.39 6 22.39 6-11.39-6.39-11.63-9.71 1.65-4.02 1.65-4.02z" fill="#f39c4d" opacity=".32"/><path d="m50.27 82.67s4.06 21 6 18.76 9.18-19.62 9.18-19.62-9.45 15.19-15.18.86z" fill="#f39c4d" opacity=".32"/><g fill="#f9f3d7"><path d="m18.13 62.21v-.21a1.42 1.42 0 0 0 -2.83 0v.25a1.42 1.42 0 1 0 2.83 0z"/><path d="m22.24 56.59a1.42 1.42 0 0 0 0-2.83 1.42 1.42 0 0 0 0 2.83z"/><path d="m29.53 51.06a1.42 1.42 0 0 0 0-2.83 1.42 1.42 0 0 0 0 2.83z"/><path d="m36.57 45.28a1.42 1.42 0 0 0 0-2.83 1.42 1.42 0 0 0 0 2.83z"/><path d="m37.57 36.23a1.42 1.42 0 0 0 0-2.83 1.42 1.42 0 0 0 0 2.83z"/><path d="m36.07 25.43a1.42 1.42 0 0 0 0-2.83 1.42 1.42 0 0 0 0 2.83z"/><path d="m34.31 14.11a1.41 1.41 0 0 0 0-2.82 1.41 1.41 0 0 0 0 2.82z"/><path d="m42.6 17.88a1.41 1.41 0 0 0 0-2.82 1.41 1.41 0 0 0 0 2.82z"/><path d="m52.4 22.41a1.42 1.42 0 0 0 0-2.83 1.42 1.42 0 0 0 0 2.83z"/><path d="m59.69 26.93a1.41 1.41 0 0 0 0-2.82 1.41 1.41 0 0 0 0 2.82z"/><path d="m68.64 26.27v-.27a1.41 1.41 0 1 0 -2.82 0v.25a1.41 1.41 0 1 0 2.82 0z"/><path d="m73.61 21.25v.25a1.42 1.42 0 0 0 1.39 1.41 1.44 1.44 0 0 0 1.42-1.41v-.25a1.42 1.42 0 1 0 -2.83 0z"/><path d="m83.06 19.39a1.41 1.41 0 0 0 0-2.82 1.41 1.41 0 0 0 0 2.82z"/><path d="m90.1 16.38a1.42 1.42 0 0 0 0-2.83 1.42 1.42 0 0 0 0 2.83z"/><path d="m88.34 27.18a1.41 1.41 0 0 0 0-2.82 1.41 1.41 0 0 0 0 2.82z"/><path d="m86.33 36a1.42 1.42 0 0 0 0-2.83 1.42 1.42 0 0 0 0 2.83z"/><path d="m84.07 44.78a1.42 1.42 0 0 0 0-2.83 1.42 1.42 0 0 0 0 2.83z"/><path d="m89.85 53.57a1.41 1.41 0 0 0 0-2.82 1.41 1.41 0 0 0 0 2.82z"/><path d="m94.38 59.86a1.42 1.42 0 0 0 0-2.83 1.42 1.42 0 0 0 0 2.83z"/><path d="m102.07 65.48v-.25a1.42 1.42 0 0 0 -1.41-1.41 1.44 1.44 0 0 0 -1.42 1.41v.25a1.42 1.42 0 0 0 2.83 0z"/><path d="m104.43 71.92a1.42 1.42 0 0 0 0-2.83 1.42 1.42 0 0 0 0 2.83z"/><path d="m94.38 71.67a1.42 1.42 0 0 0 0-2.83 1.42 1.42 0 0 0 0 2.83z"/><path d="m82.56 72.17a1.41 1.41 0 0 0 0-2.82 1.41 1.41 0 0 0 0 2.82z"/><path d="m72.51 71.17a1.42 1.42 0 0 0 0-2.83 1.42 1.42 0 0 0 0 2.83z"/><path d="m67 80.47a1.42 1.42 0 0 0 0-2.83 1.42 1.42 0 0 0 0 2.83z"/><path d="m62.45 89.77a1.42 1.42 0 0 0 0-2.83 1.42 1.42 0 0 0 0 2.83z"/><path d="m56.42 100.57a1.41 1.41 0 0 0 0-2.82 1.41 1.41 0 0 0 0 2.82z"/><path d="m52.56 88.86v-.26a1.42 1.42 0 0 0 -2.83 0v.26a1.42 1.42 0 0 0 2.83 0z"/><path d="m47.88 80a1.41 1.41 0 0 0 0-2.82 1.41 1.41 0 0 0 0 2.82z"/><path d="m43.7 69.25v.25a1.42 1.42 0 1 0 2.83 0v-.25a1.42 1.42 0 0 0 -2.83 0z"/><path d="m36.57 68.91a1.42 1.42 0 0 0 0-2.83 1.42 1.42 0 0 0 0 2.83z"/><path d="m22.74 66.39a1.41 1.41 0 0 0 0-2.82 1.41 1.41 0 0 0 0 2.82z"/></g><path d="m59.38 64c-4.63 0-8.4-4.34-8.4-9.68a1.6 1.6 0 1 1 3.19 0c0 3.58 2.34 6.48 5.21 6.48s5.21-2.9 5.21-6.48a1.6 1.6 0 0 1 3.2 0c0 5.36-3.79 9.68-8.41 9.68z" fill="#fc9b3a"/><path d="m45.34 56.25c0 1.3-2.19 2.34-4.89 2.34s-4.89-1-4.89-2.34 2.19-2.33 4.89-2.33 4.89 1.08 4.89 2.33z" fill="#fff"/><path d="m82.56 56.25c0 1.3-2.19 2.34-4.89 2.34s-4.89-1-4.89-2.34 2.19-2.33 4.89-2.33 4.89 1.08 4.89 2.33z" fill="#fff"/><path d="m44.49 56a2.77 2.77 0 0 1 -2.76-2.76v-5.49a2.77 2.77 0 0 1 2.76-2.75 2.78 2.78 0 0 1 2.77 2.77v5.53a2.77 2.77 0 0 1 -2.77 2.7z" fill="#fc9b3a"/><path d="m74.69 56a2.77 2.77 0 0 1 -2.76-2.76v-5.49a2.77 2.77 0 0 1 2.76-2.75 2.78 2.78 0 0 1 2.77 2.77v5.53a2.77 2.77 0 0 1 -2.77 2.7z" fill="#fc9b3a"/></svg>