<svg viewBox="0 0 116 116" xmlns="http://www.w3.org/2000/svg"><path d="m83.7 105.91-20.92-10.28a7.43 7.43 0 0 0 -6.92.19l-20.32 11.41a7.44 7.44 0 0 1 -11-7.54l3.31-23.07a7.43 7.43 0 0 0 -2.32-6.52l-17.13-15.8a7.43 7.43 0 0 1 3.77-12.79l23-4a7.43 7.43 0 0 0 5.49-4.22l9.73-21.17a7.44 7.44 0 0 1 13.33-.37l10.85 20.62a7.43 7.43 0 0 0 5.71 3.91l23.14 2.72a7.43 7.43 0 0 1 4.47 12.56l-16.23 16.72a7.43 7.43 0 0 0 -2 6.64l4.57 22.85a7.44 7.44 0 0 1 -10.53 8.14z" fill="#efb46f"/><path d="m107.81 51.56a7.43 7.43 0 0 0 -.12-10.49 7.3 7.3 0 0 1 -1.93 6.77l-16.23 16.72a7.43 7.43 0 0 0 -2 6.64l4.57 22.85a7.43 7.43 0 0 1 -10.57 8.13l-20.87-10.27a7.43 7.43 0 0 0 -6.92.19l-20.32 11.41a7.41 7.41 0 0 1 -8.88-1.2 7.45 7.45 0 0 0 10.92 4.92l20.32-11.41a7.43 7.43 0 0 1 6.92-.19l20.92 10.28a7.44 7.44 0 0 0 10.57-8.14l-4.57-22.85a7.43 7.43 0 0 1 2-6.64z" fill="#dd934a"/><g fill="#ce8a46"><path d="m82.54 95.88h.18a4.88 4.88 0 0 0 6.07-4 4.64 4.64 0 0 0 -1-3.6 5 5 0 0 0 -3.79-1.91h-.19a4.76 4.76 0 0 0 -3.43 1.42 5 5 0 0 0 -1.34 2.79 4.82 4.82 0 0 0 3.5 5.3z"/><path d="m32.66 96.08h.19a4.88 4.88 0 0 0 6.07-4.05 4.6 4.6 0 0 0 -1-3.59 5 5 0 0 0 -3.82-1.92h-.1a4.78 4.78 0 0 0 -3.48 1.48 5 5 0 0 0 -1.34 2.78 4.83 4.83 0 0 0 3.48 5.3z"/><path d="m55.29 22.13h.19a4.88 4.88 0 0 0 6.07-4 4.63 4.63 0 0 0 -1-3.6 5 5 0 0 0 -3.82-1.91h-.19a4.75 4.75 0 0 0 -4.76 4.21 4.8 4.8 0 0 0 3.51 5.3z"/><path d="m96.09 50.21h.19a4.88 4.88 0 0 0 6.07-4 4.63 4.63 0 0 0 -1-3.6 5 5 0 0 0 -3.82-1.91h-.19a4.82 4.82 0 0 0 -3.34 1.4 5 5 0 0 0 -1.34 2.79 4.82 4.82 0 0 0 3.43 5.32z"/><path d="m15.7 55.07h.18a4.88 4.88 0 0 0 6.07-4 4.6 4.6 0 0 0 -1-3.59 5 5 0 0 0 -3.81-1.92h-.19a4.83 4.83 0 0 0 -3.4 1.44 5 5 0 0 0 -1.33 2.78 4.84 4.84 0 0 0 3.48 5.29z"/></g><path d="m38 59.94a3.21 3.21 0 0 1 -3.19-3.19v-3.41a3.2 3.2 0 0 1 3.19-3.19 3.2 3.2 0 0 1 3.2 3.19v3.41a3.21 3.21 0 0 1 -3.2 3.19z" fill="#884332"/><path d="m77.83 61.44a2 2 0 0 1 -.79-.17l-6.59-3a1.93 1.93 0 0 1 -1.11-1.5 1.89 1.89 0 0 1 .66-1.72l5.74-4.69a1.92 1.92 0 0 1 2.43 3l-3.34 2.72 3.77 1.7a1.93 1.93 0 0 1 -.8 3.68z" fill="#884332"/><path d="m57.29 68.74c-4.64 0-8.42-4.35-8.42-9.69a1.6 1.6 0 0 1 3.2 0c0 3.58 2.34 6.49 5.22 6.49s5.21-2.91 5.21-6.49a1.6 1.6 0 1 1 3.2 0c0 5.34-3.77 9.69-8.41 9.69z" fill="#884332"/></svg>