<svg viewBox="0 0 116 116" xmlns="http://www.w3.org/2000/svg" xmlns:xlink="http://www.w3.org/1999/xlink"><clipPath id="a"><path d="m98.11 71.51c-10.03 19.55-34.61 26.95-54.9 16.49s-28.6-34.7-18.57-54.25 34.62-26.9 54.91-16.49 28.6 34.74 18.56 54.25z"/></clipPath><path d="m106 45.67c2.6-4.66.45-11.44-4.1-13.67-1.12-.54-1.61.45-2.79.4 2.88-7.2-3.75-14.32-10.9-11.59a8.71 8.71 0 0 0 -4.59-8.61q-.36-.18-.72-.33a9 9 0 0 0 -9.57 1 9 9 0 0 0 -16.12-3 8.89 8.89 0 0 0 -2.78-2.45 9 9 0 0 0 -12.3 3.49 9.56 9.56 0 0 0 -.82 2l-.49-.31a9.08 9.08 0 0 0 -13.41 6.94c-2.09-.43-8.92 3.37-10.21 6.23a11.17 11.17 0 0 0 -.72 7.1c-2 .92-5.66 4-6.85 6.39-1.44 2.92-1 8.58.26 11.49a22.25 22.25 0 0 0 -2.65 3.24c-2.78 4.95-.39 10.82 4 14-.32.51-.59 1-.75 1.26a9.05 9.05 0 0 0 7.62 13.53 9 9 0 0 0 11.05 11.99c-.45 3.55 2.07 8.35 6.77 10.22a9.29 9.29 0 0 0 9.68-1.29c2 7.41 11.6 8.65 15.77 2.11 4.42 5.64 13.53 3.48 15.41-3.84 4.48 2.69 12.15.27 14.46-4.21a12.72 12.72 0 0 0 1.22-6.19c4.1-.79 5.23-1.37 7.5-3.63s2-7.25 1.16-10.72a11.09 11.09 0 0 0 5.9-3c3.59-4.23 2.22-9.1 0-12.11 4.89-4.65 3.18-13.42-1.03-16.44z" fill="#8a2a00"/><path d="m100.08 74.35a8.33 8.33 0 0 0 4.92-14.52 8.33 8.33 0 0 0 -.12-14.76l-.48-.23a8.33 8.33 0 0 0 -5.86-13.74 8.33 8.33 0 0 0 -10.54-10.9 8.31 8.31 0 0 0 -4.51-8c-.22-.12-.45-.22-.68-.32a8.64 8.64 0 0 0 -9.06.73 8.78 8.78 0 0 0 -4.19-5.38 8.52 8.52 0 0 0 -11.18 2.28 9.14 9.14 0 0 0 -2.68-2.32 8.49 8.49 0 0 0 -11.62 3 8.31 8.31 0 0 0 -.74 1.81l-.47-.29a8.49 8.49 0 0 0 -11.62 3 8.13 8.13 0 0 0 -1 4.88 8.39 8.39 0 0 0 -9.58 3.86 8.26 8.26 0 0 0 .08 8.18 8.29 8.29 0 0 0 -7 4.16 8.39 8.39 0 0 0 1.63 10.21 8 8 0 0 0 -3.67 3.38 8.48 8.48 0 0 0 3.43 11.5 9.44 9.44 0 0 0 1.49.67 7.93 7.93 0 0 0 -1.56 2 8.49 8.49 0 0 0 3.43 11.45 8.82 8.82 0 0 0 4 1.15 8.53 8.53 0 0 0 3.87 10.59 8.76 8.76 0 0 0 6.86.77c-.37 3.28 2.1 7.76 6.6 9.57 3.21 1.29 6.67 1.06 9.16-1a8.33 8.33 0 0 0 15 2.22 8.33 8.33 0 0 0 13.88-1.45 8.44 8.44 0 0 0 .73-1.85l.47.26a8.32 8.32 0 0 0 12.06-8.5 8.33 8.33 0 0 0 9-12.44z" fill="#a13f00"/><g clip-path="url(#a)" fill="#5b2f0e"><path d="m79.26 23.39c-.37.74-1.07 1.13-1.56.88s-.57-1-.19-1.78 1.07-1.13 1.56-.88.57 1.05.19 1.78z"/><path d="m75.36 31c-.38.74-1.08 1.13-1.56.88s-.57-1.05-.2-1.78 1.08-1.13 1.56-.88.58 1.04.2 1.78z"/><path d="m71.46 38.61c-.38.73-1.08 1.13-1.57.88s-.57-1.05-.19-1.79 1.08-1.13 1.56-.88.57 1.05.2 1.79z"/><path d="m67.55 46.21c-.37.74-1.07 1.13-1.56.88s-.57-1.05-.2-1.78 1.08-1.13 1.57-.88.57 1.05.19 1.78z"/><path d="m63.65 53.82c-.38.73-1.08 1.13-1.56.88s-.58-1.05-.2-1.78 1.11-1.13 1.56-.92.55 1.08.2 1.82z"/><path d="m59.74 61.42c-.37.74-1.07 1.13-1.56.88s-.57-1-.19-1.78 1.07-1.13 1.56-.88.57 1.05.19 1.78z"/><path d="m55.84 69c-.38.74-1.08 1.13-1.56.88s-.58-1-.2-1.78 1.08-1.13 1.56-.88.58 1.07.2 1.78z"/><path d="m51.93 76.64c-.37.73-1.07 1.13-1.56.88s-.57-1-.19-1.79 1.07-1.13 1.56-.88.57 1.05.19 1.79z"/><path d="m48 84.24c-.38.74-1.08 1.13-1.56.88s-.57-1.05-.2-1.78 1.08-1.13 1.56-.88.61 1.05.2 1.78z"/><path d="m44.13 91.85c-.38.73-1.08 1.13-1.57.88s-.57-1-.19-1.78 1.07-1.13 1.56-.89.57 1.05.2 1.79z"/><path d="m71.56 19.44c-.38.73-1.08 1.13-1.56.88s-.58-1.05-.2-1.78 1.08-1.13 1.56-.88.58 1.04.2 1.78z"/><path d="m67.66 27c-.38.74-1.08 1.13-1.57.88s-.57-1-.19-1.78 1.1-1.1 1.56-.84.54 1.05.2 1.74z"/><path d="m63.75 34.65c-.38.74-1.08 1.13-1.56.88s-.57-1.05-.2-1.78 1.08-1.13 1.57-.88.57 1.05.19 1.78z"/><path d="m59.85 42.26c-.38.73-1.08 1.13-1.57.88s-.57-1-.19-1.79 1.08-1.13 1.56-.88.57 1.05.2 1.79z"/><path d="m55.94 49.86c-.37.74-1.08 1.13-1.56.88s-.57-1-.2-1.78 1.08-1.13 1.57-.88.57 1.05.19 1.78z"/><path d="m52 57.47c-.38.73-1.08 1.13-1.56.88s-.58-1.05-.2-1.78 1.08-1.13 1.56-.88.61 1.04.2 1.78z"/><path d="m48.13 65.07c-.37.74-1.07 1.13-1.56.89s-.57-1-.19-1.79 1.07-1.13 1.56-.88.57 1.05.19 1.78z"/><path d="m44.23 72.68c-.38.74-1.08 1.13-1.56.88s-.58-1-.2-1.78 1.08-1.13 1.56-.88.58 1.04.2 1.78z"/><path d="m40.32 80.29c-.37.73-1.07 1.13-1.56.88s-.57-1-.19-1.79 1.07-1.13 1.56-.88.57 1.05.19 1.79z"/><path d="m36.42 87.89c-.38.74-1.08 1.13-1.56.88s-.57-1-.2-1.78 1.08-1.13 1.56-.88.58 1.05.2 1.78z"/><path d="m85.74 26.72c-.37.74-1.07 1.13-1.56.88s-.57-1.05-.19-1.78 1.07-1.13 1.56-.88.57 1.06.19 1.78z"/><path d="m81.84 34.33c-.38.73-1.08 1.13-1.56.88s-.58-1.05-.2-1.79 1.08-1.13 1.56-.88.58 1.05.2 1.79z"/><path d="m77.93 41.93c-.37.74-1.07 1.13-1.56.88s-.57-1.05-.19-1.78 1.07-1.13 1.56-.88.57 1.05.19 1.78z"/><path d="m74 49.54c-.38.73-1.08 1.13-1.56.88s-.57-1.05-.2-1.78 1.08-1.13 1.56-.89.61 1.05.2 1.79z"/><path d="m70.13 57.14c-.38.74-1.08 1.13-1.56.88s-.58-1-.2-1.78 1.07-1.13 1.56-.88.57 1.05.2 1.78z"/><path d="m66.22 64.75c-.38.73-1.08 1.13-1.56.88s-.57-1-.2-1.78 1.08-1.13 1.54-.85.6 1 .22 1.75z"/><path d="m62.32 72.36c-.38.73-1.08 1.12-1.56.88s-.58-1-.2-1.79 1.08-1.13 1.56-.88.57 1.05.2 1.79z"/><path d="m58.41 80c-.37.74-1.07 1.13-1.56.88s-.57-1-.19-1.78 1.07-1.13 1.56-.88.57 1.01.19 1.78z"/><path d="m54.51 87.57c-.38.73-1.08 1.13-1.56.88s-.57-1-.2-1.78 1.08-1.13 1.56-.89.58 1.05.2 1.79z"/><path d="m50.6 95.17c-.37.74-1.07 1.13-1.56.88s-.57-1-.19-1.78 1.07-1.13 1.56-.88.59 1.05.19 1.78z"/><path d="m93.24 30.57c-.38.73-1.07 1.13-1.56.88s-.57-1.05-.19-1.78 1.07-1.13 1.56-.88.57 1.04.19 1.78z"/><path d="m89.34 38.17c-.38.74-1.08 1.13-1.56.89s-.58-1.05-.2-1.79 1.08-1.13 1.56-.88.58 1.05.2 1.78z"/><path d="m85.43 45.78c-.37.74-1.07 1.13-1.56.88s-.57-1-.19-1.78 1.07-1.13 1.56-.88.57 1.05.19 1.78z"/><path d="m81.53 53.39c-.38.73-1.08 1.13-1.56.88s-.57-1.05-.2-1.79 1.08-1.12 1.56-.88.58 1.05.2 1.79z"/><path d="m77.63 61c-.38.74-1.08 1.13-1.57.88s-.57-1-.19-1.78 1.07-1.13 1.56-.88.57 1.04.2 1.78z"/><path d="m73.72 68.6c-.38.73-1.08 1.13-1.56.88s-.57-1-.2-1.78 1.08-1.13 1.57-.88.57 1.04.19 1.78z"/><path d="m69.82 76.2c-.38.74-1.08 1.13-1.57.89s-.57-1-.19-1.79 1.08-1.13 1.56-.88.57 1.05.2 1.78z"/><path d="m65.91 83.81c-.37.74-1.07 1.13-1.56.88s-.57-1-.2-1.78 1.08-1.13 1.57-.88.57 1.05.19 1.78z"/><path d="m62 91.42c-.38.73-1.08 1.13-1.56.88s-.58-1-.2-1.79 1.08-1.13 1.56-.88.58 1.05.2 1.79z"/><path d="m58.1 99c-.37.74-1.07 1.13-1.56.88s-.57-1-.19-1.78 1.07-1.13 1.56-.88.57 1.07.19 1.78z"/><path d="m65.11 16.13c-.38.73-1.08 1.13-1.56.88s-.55-1.01-.2-1.79 1.08-1.12 1.56-.88.57 1.05.2 1.79z"/><path d="m61.2 23.73c-.37.74-1.07 1.13-1.56.88s-.57-1-.19-1.78 1.07-1.13 1.55-.83.58 1 .2 1.73z"/><path d="m57.3 31.34c-.38.73-1.08 1.13-1.56.88s-.58-1-.2-1.78 1.08-1.13 1.56-.88.58 1.04.2 1.78z"/><path d="m53.39 38.94c-.37.74-1.07 1.13-1.56.89s-.57-1-.19-1.79 1.07-1.13 1.56-.88.57 1.05.19 1.78z"/><path d="m49.49 46.55c-.38.74-1.08 1.13-1.56.88s-.57-1-.2-1.78 1.08-1.13 1.56-.88.58 1.05.2 1.78z"/><path d="m45.59 54.16c-.38.73-1.08 1.13-1.56.88s-.58-1-.2-1.79 1.07-1.12 1.56-.88.61 1.05.2 1.79z"/><path d="m41.68 61.76c-.38.74-1.07 1.13-1.56.88s-.57-1-.19-1.78 1.07-1.13 1.56-.86.57 1 .19 1.76z"/><path d="m37.78 69.37c-.38.73-1.08 1.13-1.56.88s-.58-1-.2-1.78 1.08-1.13 1.56-.88.58 1.04.2 1.78z"/><path d="m33.87 77c-.37.74-1.07 1.13-1.56.89s-.57-1-.19-1.79 1.07-1.13 1.56-.88.57 1.02.19 1.78z"/><path d="m30 84.58c-.38.74-1.08 1.13-1.56.88s-.57-1-.2-1.78 1.08-1.13 1.56-.88.55 1.04.2 1.78z"/><path d="m54.57 20.33c-.37.73-1.07 1.13-1.56.88s-.57-1.05-.19-1.78 1.07-1.13 1.56-.88.62 1.04.19 1.78z"/><path d="m50.67 27.94c-.38.73-1.08 1.12-1.56.88s-.58-1.05-.2-1.79 1.08-1.13 1.56-.88.58 1.05.2 1.79z"/><path d="m46.76 35.54c-.37.74-1.07 1.13-1.56.88s-.57-1.05-.19-1.78 1.07-1.13 1.56-.88.57 1.05.19 1.78z"/><path d="m42.86 43.15c-.38.73-1.08 1.13-1.56.88s-.57-1.05-.2-1.79 1.08-1.12 1.57-.88.57 1.05.19 1.79z"/><path d="m39 50.75c-.38.74-1.08 1.13-1.57.88s-.57-1-.19-1.78 1.08-1.13 1.56-.88.53 1.03.2 1.78z"/><path d="m35.05 58.36c-.38.73-1.08 1.13-1.56.88s-.57-1.05-.2-1.78 1.08-1.13 1.57-.88.57 1.04.19 1.78z"/><path d="m31.15 66c-.38.73-1.08 1.12-1.57.88s-.57-1-.19-1.79 1.08-1.13 1.56-.88.57 1.02.2 1.79z"/><path d="m23.34 81.18c-.38.73-1.08 1.13-1.56.88s-.58-1-.2-1.79 1.08-1.12 1.56-.88.58 1.05.2 1.79z"/><path d="m100.86 34.48c-.38.74-1.08 1.13-1.56.88s-.57-1-.2-1.78 1.08-1.13 1.57-.88.57 1.04.19 1.78z"/><path d="m97 42.09c-.38.73-1.08 1.13-1.56.88s-.58-1-.2-1.79 1.08-1.13 1.56-.88.53 1.05.2 1.79z"/><path d="m93.05 49.69c-.38.74-1.08 1.13-1.56.88s-.57-1-.2-1.78 1.08-1.13 1.57-.88.57 1.09.19 1.78z"/><path d="m89.15 57.3c-.38.73-1.08 1.13-1.56.88s-.58-1-.2-1.78 1.08-1.13 1.56-.89.57 1.05.2 1.79z"/><path d="m85.24 64.9c-.37.74-1.07 1.13-1.56.88s-.57-1-.19-1.78 1.07-1.13 1.56-.88.57 1.05.19 1.78z"/><path d="m81.34 72.51c-.38.74-1.08 1.13-1.56.88s-.58-1-.2-1.78 1.08-1.13 1.56-.88.58 1.04.2 1.78z"/><path d="m77.43 80.12c-.37.73-1.07 1.13-1.56.88s-.57-1-.19-1.79 1.07-1.13 1.56-.88.57 1.05.19 1.79z"/><path d="m73.53 87.72c-.38.74-1.08 1.13-1.56.88s-.57-1-.2-1.78 1.08-1.13 1.56-.88.58 1.06.2 1.78z"/><path d="m69.63 95.33c-.38.73-1.08 1.13-1.57.88s-.57-1-.19-1.78 1.08-1.13 1.56-.89.57 1.05.2 1.79z"/><path d="m65.72 102.93c-.38.74-1.08 1.13-1.56.88s-.57-1-.2-1.78 1.08-1.13 1.57-.88.57 1.05.19 1.78z"/><path d="m99.19 52c-.37.74-1.07 1.13-1.56.88s-.57-1-.19-1.78 1.07-1.1 1.56-.87.57 1.05.19 1.77z"/><path d="m95.29 59.62c-.38.73-1.08 1.13-1.56.88s-.58-1-.2-1.78 1.08-1.13 1.56-.88.58 1.04.2 1.78z"/><path d="m91.38 67.22c-.37.74-1.07 1.13-1.56.88s-.57-1-.19-1.78 1.07-1.13 1.56-.88.57 1.05.19 1.78z"/><path d="m87.48 74.83c-.38.74-1.08 1.13-1.56.88s-.58-1-.2-1.78 1.08-1.13 1.57-.88.57 1.04.19 1.78z"/><path d="m83.58 82.44c-.38.73-1.08 1.13-1.57.88s-.57-1-.19-1.79 1.08-1.13 1.56-.88.62 1.05.2 1.79z"/><path d="m101 62.53c-.38.74-1.08 1.13-1.56.89s-.58-1.05-.2-1.79 1.08-1.13 1.56-.88.55 1.05.2 1.78z"/><path d="m97.06 70.14c-.37.74-1.07 1.13-1.56.88s-.57-1-.19-1.78 1.07-1.13 1.56-.88.57 1.04.19 1.78z"/><path d="m93.16 77.75c-.38.73-1.08 1.13-1.56.88s-.57-1-.2-1.79 1.08-1.13 1.6-.84.54 1 .16 1.75z"/><path d="m33.76 28c-.38.74-1.08 1.13-1.56.88s-.58-1-.2-1.78 1.08-1.13 1.56-.88.58 1.08.2 1.78z"/><path d="m29.85 35.64c-.37.73-1.07 1.13-1.56.88s-.57-1.05-.19-1.78 1.07-1.13 1.56-.88.57 1.04.19 1.78z"/><path d="m26 43.24c-.38.74-1.08 1.13-1.56.89s-.57-1.05-.2-1.79 1.08-1.13 1.57-.88.52 1.05.19 1.78z"/><path d="m52.39 6.48c-.38.73-1.08 1.13-1.56.88s-.57-1.05-.2-1.79 1.08-1.13 1.57-.88.57 1.05.19 1.79z"/><path d="m44.58 21.69c-.38.73-1.08 1.13-1.56.88s-.57-1.05-.19-1.78 1.07-1.13 1.56-.88.61 1.09.19 1.78z"/><path d="m40.68 29.29c-.38.74-1.08 1.13-1.56.88s-.58-1-.2-1.78 1.08-1.13 1.56-.88.58 1.05.2 1.78z"/><path d="m36.77 36.9c-.37.74-1.07 1.13-1.56.88s-.57-1.05-.21-1.78 1.07-1.13 1.56-.88.59 1.04.21 1.78z"/><path d="m32.87 44.51c-.38.73-1.08 1.13-1.56.88s-.58-1-.2-1.79 1.08-1.13 1.56-.88.58 1.05.2 1.79z"/><path d="m29 52.11c-.38.74-1.08 1.13-1.57.88s-.57-1.05-.19-1.78 1.07-1.13 1.56-.88.54 1.05.2 1.78z"/><path d="m25.06 59.72c-.38.73-1.08 1.13-1.56.88s-.57-1.05-.2-1.78 1.08-1.13 1.57-.88.57 1.06.19 1.78z"/><path d="m21.16 67.32c-.38.74-1.08 1.13-1.57.88s-.57-1-.19-1.78 1.08-1.13 1.56-.88.57 1.05.2 1.78z"/><path d="m17.25 74.93c-.38.74-1.07 1.13-1.56.88s-.57-1-.2-1.78 1.08-1.13 1.57-.88.57 1.04.19 1.78z"/></g><g fill="#4d2119"><path d="m62.44 70.12a10.07 10.07 0 0 1 -10.12-10 1.82 1.82 0 0 1 1.81-1.84l16.47-.1a1.82 1.82 0 0 1 1.83 1.82 10.07 10.07 0 0 1 -9.99 10.12z"/><path d="m42.75 59.7a3.64 3.64 0 0 1 -3.66-3.61v-6.3a3.64 3.64 0 0 1 3.61-3.65 3.64 3.64 0 0 1 3.66 3.61v6.3a3.64 3.64 0 0 1 -3.61 3.65z"/><path d="m82 59.45a3.65 3.65 0 0 1 -3.66-3.61v-6.3a3.66 3.66 0 0 1 3.61-3.66 3.64 3.64 0 0 1 3.66 3.61v6.3a3.64 3.64 0 0 1 -3.61 3.66z"/></g></svg>