<svg viewBox="0 0 116 116" xmlns="http://www.w3.org/2000/svg"><path d="m110 97.52a13.13 13.13 0 0 1 -13 13.18h-78a13.13 13.13 0 0 1 -13-13.18v-79a13.13 13.13 0 0 1 13-13.22h78a13.13 13.13 0 0 1 13 13.18z" fill="#8e4330"/><g fill="#ffaa60"><path d="m39.65 5.3h36.69v34.31h-36.69z"/><path d="m39.65 76.79h36.69v33.91h-36.69z"/><path d="m6 39.61h33.65v37.18h-33.65z"/><path d="m76.35 39.61h33.65v37.18h-33.65z"/></g><path d="m39.65 39.61h36.69v37.18h-36.69z" fill="#8e4330"/><path d="m97 5.3h-78a13.13 13.13 0 0 0 -13 13.18v79a13.13 13.13 0 0 0 13 13.22h78a13.13 13.13 0 0 0 13-13.18v-79a13.13 13.13 0 0 0 -13-13.22zm6.3 87.13a11.43 11.43 0 0 1 -11.3 11.47h-68a11.43 11.43 0 0 1 -11.3-11.47v-68.86a11.43 11.43 0 0 1 11.3-11.47h68a11.43 11.43 0 0 1 11.3 11.47z" fill="#806049" opacity=".3"/><path d="m58.09 74.8a13.75 13.75 0 0 1 -13.82-13.64 2.49 2.49 0 0 1 2.47-2.5l22.49-.15a2.49 2.49 0 0 1 2.5 2.49 13.75 13.75 0 0 1 -13.64 13.8z" fill="#4d2119"/><path d="m31.27 60.59a5 5 0 0 1 -5-4.93l-.06-8.6a5 5 0 0 1 4.93-5 5 5 0 0 1 5 4.92l.05 8.6a5 5 0 0 1 -4.92 5.01z" fill="#4d2119"/><path d="m84.85 60.24a5 5 0 0 1 -5-4.93v-8.6a5 5 0 0 1 4.93-5 5 5 0 0 1 5 4.93l.06 8.6a5 5 0 0 1 -4.99 5z" fill="#4d2119"/></svg>