<svg viewBox="0 0 116 116" xmlns="http://www.w3.org/2000/svg"><rect fill="#ad4d00" height="99.41" rx="1.8" width="65.95" x="25.02" y="10.59"/><path d="m86.19 11.63h-56.36a4.13 4.13 0 0 0 -3.18 1.49 4.1 4.1 0 0 1 1.45-.27h56.35a4 4 0 0 1 4.11 4v89.41a3.88 3.88 0 0 1 -.92 2.47 4 4 0 0 0 2.65-3.73v-89.41a4 4 0 0 0 -4.1-3.96z" fill="#ad4d00" opacity=".2"/><rect fill="#ad4d00" height="92.97" opacity=".3" rx="1.62" width="57.49" x="29.25" y="13.81"/><rect fill="#ad4d00" height="91.6" rx="1.58" width="55.49" x="30.26" y="14.5"/><path d="m83.55 104.71h-48.1a3.62 3.62 0 0 1 -3.69-3.56v-84.47a3.44 3.44 0 0 1 .5-1.77 3.54 3.54 0 0 0 -2 3.15v84.47a3.62 3.62 0 0 0 3.74 3.56h48.1a3.7 3.7 0 0 0 3.19-1.79 3.7 3.7 0 0 1 -1.74.41z" fill="#ad4d00" opacity=".3"/><rect fill="#ef8137" height="99.41" rx="1.8" width="65.95" x="25.02" y="6"/><path d="m86.19 7h-56.36a4.13 4.13 0 0 0 -3.18 1.49 4.34 4.34 0 0 1 1.45-.27h56.35a4 4 0 0 1 4.11 4v89.41a3.88 3.88 0 0 1 -.92 2.47 4 4 0 0 0 2.65-3.69v-89.41a4 4 0 0 0 -4.1-4z" fill="#ffc6ab" opacity=".2"/><rect fill="#3d1400" height="92.97" opacity=".3" rx="1.62" width="57.49" x="29.25" y="9.22"/><rect fill="#e26d1e" height="91.6" rx="1.58" width="55.49" x="30.26" y="9.91"/><path d="m83.55 100.12h-48.1a3.62 3.62 0 0 1 -3.69-3.56v-84.47a3.44 3.44 0 0 1 .5-1.77 3.54 3.54 0 0 0 -2 3.15v84.47a3.62 3.62 0 0 0 3.74 3.56h48.1a3.7 3.7 0 0 0 3.19-1.79 3.7 3.7 0 0 1 -1.74.41z" fill="#ffe0b9" opacity=".3"/><g fill="#8e4330"><path d="m45.31 14.05c-.46.13-4.4 1.5-3.65 5.1s4 2.65 4.75 2.83a3.65 3.65 0 0 0 4.11-2.06c1.53-3.28-1.86-6.79-5.21-5.87z"/><path d="m80.6 66.13a3 3 0 0 0 -2.6-.13 2.63 2.63 0 0 0 -2.9 3.15 6.15 6.15 0 0 0 2.29 3.1 3.42 3.42 0 0 0 3.71.41c2.61-1.47 1.9-5.25-.5-6.53z"/><path d="m63.22 92c-1.48-1.47-3.82-.16-4.21 1.62a2.38 2.38 0 0 0 -.23 1 2.24 2.24 0 0 0 3.56 1.76c1.42-1.03 2.28-3.05.88-4.38z"/><path d="m69.19 30.89a2.61 2.61 0 0 0 -3.53.06 1.76 1.76 0 0 0 -.24.29 2.11 2.11 0 0 0 -1.69 2.18c0 2.17 2.73 3.44 4.6 2.89 2.38-.7 2.67-3.93.86-5.42z"/><path d="m60.86 49.62a1.6 1.6 0 0 0 -.19-.71 1.07 1.07 0 0 0 -.36-.4 1.11 1.11 0 0 0 -.48-.25.93.93 0 0 0 -.23 0 .86.86 0 0 0 -.39 0 1.49 1.49 0 0 0 -.55.18l-.31.23a1.69 1.69 0 0 0 -.42.72 1.89 1.89 0 0 0 0 .82 1.48 1.48 0 0 0 .28.56.72.72 0 0 0 .26.26.61.61 0 0 0 .16.12 1 1 0 0 0 .37.16 1.62 1.62 0 0 0 1.14-.15 1.41 1.41 0 0 0 .71-1.23 1 1 0 0 0 .01-.31z"/><path d="m46.7 85.28a3.17 3.17 0 0 0 -4.05-.5c-.62.43-4.15 2.46-1.39 6.34 1.83 2.57 5.39 1 6.27-1.7a4.35 4.35 0 0 0 -.83-4.14z"/><path d="m40.45 69.52a1.58 1.58 0 0 0 -.35-.6 1.42 1.42 0 0 0 -1-.4 1.64 1.64 0 0 0 -.54.08 2.4 2.4 0 0 0 -.4.17 1.53 1.53 0 0 0 -.56.57 2.22 2.22 0 0 0 -.23.52 1.63 1.63 0 0 0 0 .82 1.38 1.38 0 0 0 .19.43 1.46 1.46 0 0 0 1.25.72 1.5 1.5 0 0 0 1.25-.72v-.07a1.4 1.4 0 0 0 .16-.43v.05s0-.05 0-.07a1.22 1.22 0 0 0 .07-.17 1.33 1.33 0 0 0 .16-.9z"/><path d="m59.38 74.23a2 2 0 0 0 -1.86-1.23 1.91 1.91 0 0 0 -1.77 1.37 7.23 7.23 0 0 0 -.13 1.54 1.69 1.69 0 0 0 1.38 1.19 2.2 2.2 0 0 0 2-.69 2 2 0 0 0 .38-2.18z"/></g><path d="m61.78 81.44a2.37 2.37 0 0 0 -2.13-1.28 2.47 2.47 0 0 0 -1.84.62 2.42 2.42 0 0 0 -.75.45 1.82 1.82 0 0 0 -.4 2.21c.93 1.76 3.1 1.18 4.32.15a1.9 1.9 0 0 0 .8-2.15z" fill="#ec9259"/><path d="m63.26 16.07a2.57 2.57 0 0 0 -3.89 1.82 2.18 2.18 0 0 0 3.11 2.11h.11a2.14 2.14 0 0 0 1.67-1.68 2.12 2.12 0 0 0 -1-2.25z" fill="#ec9259"/><path d="m76.13 86.9a2.08 2.08 0 0 0 -2.93.1 2.55 2.55 0 0 0 -.33 3s0 .06 0 .08a2 2 0 0 0 2.21 1.48c2.04-.34 2.39-3.4 1.05-4.66z" fill="#ec9259"/><path d="m40.94 31.47a1.93 1.93 0 0 0 -1.7 1.09 1.59 1.59 0 0 0 -.12.27 2 2 0 0 0 .34 2 1.12 1.12 0 0 0 1.11.3 1.87 1.87 0 1 0 .38-3.67z" fill="#ec9259"/><path d="m61.8 77.48a.84.84 0 0 0 -.93-.38c-.69.19-1.52 1-1 1.73a1.18 1.18 0 0 0 .91.6 1 1 0 0 0 .88-.25 1 1 0 0 0 .19-.29 1.4 1.4 0 0 0 .16-.38 1.53 1.53 0 0 0 -.21-1.03z" fill="#ec9259"/><path d="m76.34 23.1c-.26-1.37-2.13-2.14-3-.84a1.49 1.49 0 0 0 .1 1.81 1.49 1.49 0 0 0 .86.72 1.52 1.52 0 0 0 2.04-1.69z" fill="#ec9259"/><path d="m41.79 58.22c0 1.18-1.65 2.14-3.68 2.14s-3.67-1-3.67-2.14 1.64-2.14 3.67-2.14 3.68.92 3.68 2.14z" fill="#eda2b0"/><path d="m81.64 58c0 1.19-1.65 2.15-3.68 2.15s-3.67-1-3.67-2.15 1.64-2.14 3.67-2.14 3.68.95 3.68 2.14z" fill="#eda2b0"/><path d="m58.06 67.58a9.06 9.06 0 0 1 -9.1-9 1.65 1.65 0 0 1 1.63-1.58l14.8-.09a1.64 1.64 0 0 1 1.61 1.57 9.05 9.05 0 0 1 -8.94 9.1z" fill="#753226"/><path d="m40.41 58.22a3.28 3.28 0 0 1 -3.29-3.22v-5.66a3.26 3.26 0 0 1 3.21-3.34 3.28 3.28 0 0 1 3.29 3.25v5.65a3.28 3.28 0 0 1 -3.21 3.32z" fill="#753226"/><path d="m75.67 58a3.28 3.28 0 0 1 -3.29-3.24v-5.66a3.28 3.28 0 0 1 3.24-3.29 3.28 3.28 0 0 1 3.29 3.25v5.66a3.26 3.26 0 0 1 -3.24 3.28z" fill="#753226"/></svg>