<svg viewBox="0 0 116 116" xmlns="http://www.w3.org/2000/svg"><path d="m89.54 30.07a6.56 6.56 0 0 0 .12-1.26 7.27 7.27 0 0 0 -1.66-4.63 2.2 2.2 0 0 1 0-2.89 7.35 7.35 0 0 0 1.59-3.37 6.56 6.56 0 0 0 .12-1.26 7.13 7.13 0 0 0 -.78-3.23c-1.5-3-5-5.07-9.13-5.07a10.22 10.22 0 0 0 -1.58.11 10.73 10.73 0 0 0 -4.22 1.47 2.86 2.86 0 0 1 -3 0 11.41 11.41 0 0 0 -8.86-1.16 10.4 10.4 0 0 0 -2.68 1.16 2.86 2.86 0 0 1 -3 0 11.33 11.33 0 0 0 -11.46 0 2.86 2.86 0 0 1 -3 0 10.4 10.4 0 0 0 -2.68-1.16 11.14 11.14 0 0 0 -3.09-.42 11.68 11.68 0 0 0 -1.79.15l-.52.1a9 9 0 0 0 -1.19.31 4.68 4.68 0 0 0 -.53.17 9.57 9.57 0 0 0 -1.38.63 5.72 5.72 0 0 0 -.58.37c-.24.15-.47.3-.68.46s-.44.36-.64.55-.26.25-.39.38l-.1.11a7.76 7.76 0 0 0 -.65.79 6.84 6.84 0 0 0 -.52.8c-.07.13-.15.25-.21.39l-.05.13a8.33 8.33 0 0 0 -.43 1.18v.16s0 .12 0 .18a6.91 6.91 0 0 0 -.17 1.44 7 7 0 0 0 .45 2.46 7.64 7.64 0 0 0 1.26 2.17 2.2 2.2 0 0 1 0 2.89 7.27 7.27 0 0 0 -1.71 4.63 7 7 0 0 0 .45 2.46 7.59 7.59 0 0 0 1.26 2.16 2.22 2.22 0 0 1 0 2.9 7.27 7.27 0 0 0 -1.77 4.67 6.56 6.56 0 0 0 .12 1.26 7.36 7.36 0 0 0 1.59 3.36 2.82 2.82 0 0 1 .29.5 2.36 2.36 0 0 1 .25 1 2.29 2.29 0 0 1 -.54 1.45 7.36 7.36 0 0 0 -1.59 3.36 6.56 6.56 0 0 0 -.12 1.26 6.67 6.67 0 0 0 .12 1.27 7.14 7.14 0 0 0 .61 1.79 8.94 8.94 0 0 0 .44.8 8.19 8.19 0 0 0 .54.77 2.2 2.2 0 0 1 0 2.89 7.4 7.4 0 0 0 -1.59 3.29 6.56 6.56 0 0 0 -.12 1.26 6.67 6.67 0 0 0 .12 1.27 7.36 7.36 0 0 0 1.59 3.36 2.2 2.2 0 0 1 0 2.89 7.35 7.35 0 0 0 -1.59 3.37 6.56 6.56 0 0 0 -.12 1.26 6.75 6.75 0 0 0 .12 1.27 7.36 7.36 0 0 0 1.59 3.32 2.2 2.2 0 0 1 0 2.89 7.27 7.27 0 0 0 -1.71 4.63 7.09 7.09 0 0 0 1 3.59 8 8 0 0 0 .72 1 2.2 2.2 0 0 1 0 2.89 7.17 7.17 0 0 0 0 9.27 10.15 10.15 0 0 0 6.22 3.49 11.91 11.91 0 0 0 2 .17 11.53 11.53 0 0 0 3.09-.42 10.4 10.4 0 0 0 2.63-1.09 2.86 2.86 0 0 1 3 0 11.33 11.33 0 0 0 11.54 0 2.86 2.86 0 0 1 3 0 10.4 10.4 0 0 0 2.68 1.16 11.53 11.53 0 0 0 3.09.42 11.06 11.06 0 0 0 5.69-1.58 2.86 2.86 0 0 1 3 0 10.89 10.89 0 0 0 4.19 1.47 11.64 11.64 0 0 0 1.58.11 10.93 10.93 0 0 0 1.42-.09c.13 0 .25 0 .38-.06l.46-.09a4.91 4.91 0 0 0 .5-.1c.26-.06.51-.14.76-.22l.49-.16c.29-.11.56-.23.83-.36l.25-.12c.12-.07.26-.12.38-.18a3.37 3.37 0 0 0 .31-.21l.25-.15a.18.18 0 0 1 .07 0c.23-.15.45-.31.67-.48s.32-.27.48-.42a6.55 6.55 0 0 0 .64-.65c.14-.16.29-.31.42-.48a7.79 7.79 0 0 0 .72-1.11v-.06a6.48 6.48 0 0 0 .53-1.37 1.57 1.57 0 0 0 .09-.23 7.4 7.4 0 0 0 .21-1.7 7.27 7.27 0 0 0 -1.63-4.69 2.2 2.2 0 0 1 0-2.89 8 8 0 0 0 .72-1 7.09 7.09 0 0 0 1-3.59 7.27 7.27 0 0 0 -1.72-4.67 2.2 2.2 0 0 1 0-2.92 7.36 7.36 0 0 0 1.59-3.36 6.75 6.75 0 0 0 .12-1.27 6.56 6.56 0 0 0 -.12-1.26 7.35 7.35 0 0 0 -1.59-3.34 2.2 2.2 0 0 1 0-2.89 7.36 7.36 0 0 0 1.59-3.36 6.67 6.67 0 0 0 .12-1.27 7.27 7.27 0 0 0 -1.71-4.63 2.2 2.2 0 0 1 0-2.89 7.36 7.36 0 0 0 1.59-3.36 6.67 6.67 0 0 0 .12-1.27 7.12 7.12 0 0 0 -1-3.59 7.94 7.94 0 0 0 -.72-1 2.22 2.22 0 0 1 0-2.9 7.94 7.94 0 0 0 .72-1 7.12 7.12 0 0 0 1-3.59 7.27 7.27 0 0 0 -1.71-4.69 2.22 2.22 0 0 1 0-2.9 7.36 7.36 0 0 0 1.54-3.36z" fill="#e48e39"/><path d="m89.54 27.71a6.56 6.56 0 0 0 .12-1.26 7.27 7.27 0 0 0 -1.66-4.63 2.2 2.2 0 0 1 0-2.89 7.35 7.35 0 0 0 1.59-3.37 6.56 6.56 0 0 0 .12-1.26 7.13 7.13 0 0 0 -.78-3.23c-1.5-3-5-5.07-9.13-5.07a11.64 11.64 0 0 0 -1.58.11 10.89 10.89 0 0 0 -4.22 1.47 2.86 2.86 0 0 1 -3 0 11.06 11.06 0 0 0 -5.75-1.58 11.53 11.53 0 0 0 -3.09.42 10.4 10.4 0 0 0 -2.68 1.16 2.86 2.86 0 0 1 -3 0 11.33 11.33 0 0 0 -11.48 0 2.86 2.86 0 0 1 -3 0 10.4 10.4 0 0 0 -2.68-1.16 11.53 11.53 0 0 0 -3.07-.42 11.68 11.68 0 0 0 -1.79.15l-.52.1a10.9 10.9 0 0 0 -1.19.31c-.18.06-.36.1-.53.17a10.79 10.79 0 0 0 -1.38.63c-.21.11-.39.25-.58.37a8.66 8.66 0 0 0 -1.32 1l-.39.38-.1.11a8.82 8.82 0 0 0 -1.17 1.59c-.07.13-.15.26-.21.39l-.06.13a8 8 0 0 0 -.43 1.19v.16s0 .12 0 .17a6.65 6.65 0 0 0 .28 3.9 7.64 7.64 0 0 0 1.26 2.17 2.2 2.2 0 0 1 0 2.89 7.27 7.27 0 0 0 -1.71 4.63 7 7 0 0 0 .45 2.46 7.64 7.64 0 0 0 1.26 2.17 2.2 2.2 0 0 1 0 2.89 7.27 7.27 0 0 0 -1.71 4.63 6.56 6.56 0 0 0 .12 1.26 7.35 7.35 0 0 0 1.59 3.37 2.43 2.43 0 0 1 .29.49 2.36 2.36 0 0 1 .25 1 2.27 2.27 0 0 1 -.54 1.45 7.36 7.36 0 0 0 -1.59 3.36 6.67 6.67 0 0 0 -.12 1.27 6.56 6.56 0 0 0 .05 1.21 7 7 0 0 0 .61 1.79 7.74 7.74 0 0 0 .44.8 8.33 8.33 0 0 0 .54.78 2.2 2.2 0 0 1 0 2.89 7.36 7.36 0 0 0 -1.59 3.36 6.67 6.67 0 0 0 -.12 1.27 6.56 6.56 0 0 0 .12 1.26 7.36 7.36 0 0 0 1.59 3.36 2.22 2.22 0 0 1 0 2.9 7.36 7.36 0 0 0 -1.59 3.36 6.56 6.56 0 0 0 -.12 1.23 6.67 6.67 0 0 0 .12 1.27 7.36 7.36 0 0 0 1.59 3.36 2.29 2.29 0 0 1 .54 1.45 2.25 2.25 0 0 1 -.54 1.44 7.27 7.27 0 0 0 -1.71 4.63 7.09 7.09 0 0 0 1 3.59 7.41 7.41 0 0 0 .72 1 2.2 2.2 0 0 1 0 2.89 7.17 7.17 0 0 0 -.06 9.37 10.15 10.15 0 0 0 6.22 3.49 11.91 11.91 0 0 0 2 .17 11.14 11.14 0 0 0 3.09-.42 10.4 10.4 0 0 0 2.69-1.18 2.86 2.86 0 0 1 3 0 11.33 11.33 0 0 0 11.54 0 2.86 2.86 0 0 1 3 0 10.4 10.4 0 0 0 2.68 1.16 11.41 11.41 0 0 0 8.78-1.16 2.86 2.86 0 0 1 3 0 10.73 10.73 0 0 0 4.19 1.47 10.22 10.22 0 0 0 1.58.11 10.93 10.93 0 0 0 1.42-.09c.13 0 .25 0 .38-.06l.46-.08.5-.1.76-.23.49-.16c.29-.11.56-.23.83-.36l.25-.12c.12-.06.26-.11.38-.18a3.37 3.37 0 0 0 .31-.21l.25-.15h.07c.23-.15.45-.31.67-.47l.46-.43c.23-.21.44-.43.64-.65s.29-.32.42-.49a7.26 7.26 0 0 0 .72-1.11 6.93 6.93 0 0 0 .53-1.37 2.18 2.18 0 0 0 .09-.23 7.41 7.41 0 0 0 .21-1.71 7.27 7.27 0 0 0 -1.61-4.73 2.2 2.2 0 0 1 0-2.89 7.41 7.41 0 0 0 .72-1 7.09 7.09 0 0 0 1-3.59 7.27 7.27 0 0 0 -1.72-4.67 2.25 2.25 0 0 1 -.54-1.44 2.29 2.29 0 0 1 .54-1.45 7.36 7.36 0 0 0 1.59-3.36 6.67 6.67 0 0 0 .07-1.31 6.56 6.56 0 0 0 -.12-1.26 7.36 7.36 0 0 0 -1.54-3.32 2.22 2.22 0 0 1 0-2.9 7.36 7.36 0 0 0 1.59-3.36 6.56 6.56 0 0 0 .12-1.26 7.27 7.27 0 0 0 -1.71-4.63 2.2 2.2 0 0 1 0-2.89 7.4 7.4 0 0 0 1.54-3.38 6.56 6.56 0 0 0 .12-1.26 7.09 7.09 0 0 0 -1-3.59 8 8 0 0 0 -.72-1 2.2 2.2 0 0 1 0-2.89 8 8 0 0 0 .72-1 7.12 7.12 0 0 0 1-3.59 7.27 7.27 0 0 0 -1.66-4.67 2.2 2.2 0 0 1 0-2.89 7.35 7.35 0 0 0 1.54-3.4z" fill="#ffaa60"/><path d="m83.84 33a5 5 0 0 0 .1-1 6 6 0 0 0 -1.4-3.79 1.91 1.91 0 0 1 -.44-1.21 1.88 1.88 0 0 1 .44-1.18 6.12 6.12 0 0 0 1.3-2.82 5.1 5.1 0 0 0 .1-1 5.84 5.84 0 0 0 -.64-2.64 8.28 8.28 0 0 0 -7.48-4.16 9.36 9.36 0 0 0 -1.3.09 9.05 9.05 0 0 0 -3.43 1.21 2.34 2.34 0 0 1 -2.42 0 9.28 9.28 0 0 0 -7.26-1 8.66 8.66 0 0 0 -2.2 1 2.34 2.34 0 0 1 -2.42 0 9.25 9.25 0 0 0 -9.46 0 2.34 2.34 0 0 1 -2.42 0 8.66 8.66 0 0 0 -2.2-1 9.15 9.15 0 0 0 -2.53-.35 8.71 8.71 0 0 0 -1.46.13l-.43.08a10 10 0 0 0 -1 .25l-.43.14a8.31 8.31 0 0 0 -1.13.52c-.17.09-.32.2-.48.3s-.38.25-.55.38-.36.29-.53.45l-.31.31-.09.09c-.19.21-.37.42-.54.65s-.29.43-.42.65-.12.21-.17.32v.11a6.6 6.6 0 0 0 -.35 1 .65.65 0 0 0 0 .13v.15a5.41 5.41 0 0 0 .14 3.19 6.36 6.36 0 0 0 1 1.78 1.81 1.81 0 0 1 0 2.37 6 6 0 0 0 -1.4 3.79 5.74 5.74 0 0 0 .37 2 6.45 6.45 0 0 0 1 1.77 1.81 1.81 0 0 1 0 2.37 6 6 0 0 0 -1.4 3.79 5.16 5.16 0 0 0 .1 1 6 6 0 0 0 1.3 2.75 1.91 1.91 0 0 1 .24.41 1.81 1.81 0 0 1 .2.78 1.88 1.88 0 0 1 -.44 1.18 6.07 6.07 0 0 0 -1.3 2.76 5.41 5.41 0 0 0 0 2.07 5.94 5.94 0 0 0 .5 1.47q.17.33.36.66c.14.21.28.43.44.63a1.81 1.81 0 0 1 0 2.37 6 6 0 0 0 -1.3 2.75 5.16 5.16 0 0 0 -.1 1 5 5 0 0 0 .1 1 6.07 6.07 0 0 0 1.3 2.76 1.81 1.81 0 0 1 0 2.37 6.07 6.07 0 0 0 -1.3 2.76 5 5 0 0 0 -.1 1 5.16 5.16 0 0 0 .1 1 6 6 0 0 0 1.3 2.75 1.91 1.91 0 0 1 .44 1.19 1.88 1.88 0 0 1 -.44 1.18 6 6 0 0 0 -1.4 3.79 5.81 5.81 0 0 0 .81 3 6.81 6.81 0 0 0 .59.85 1.88 1.88 0 0 1 .44 1.18 1.91 1.91 0 0 1 -.44 1.19 5.86 5.86 0 0 0 0 7.59 8.28 8.28 0 0 0 5.09 2.86 9.81 9.81 0 0 0 1.64.14 9.54 9.54 0 0 0 2.53-.34 9.44 9.44 0 0 0 2.2-1 2.29 2.29 0 0 1 2.42 0 9.32 9.32 0 0 0 9.46 0 2.29 2.29 0 0 1 2.42 0 9.44 9.44 0 0 0 2.2 1 9.54 9.54 0 0 0 2.53.34 9.09 9.09 0 0 0 4.73-1.29 2.29 2.29 0 0 1 2.42 0 9 9 0 0 0 3.43 1.2 9.36 9.36 0 0 0 1.3.09 11.14 11.14 0 0 0 1.23.08l.3-.06.38-.06.41-.09c.21-.05.42-.12.62-.18l.4-.13a7 7 0 0 0 .68-.3l.21-.09c.1-.06.21-.1.31-.15s.17-.12.25-.17l.2-.13h.06c.19-.12.37-.25.55-.39l.4-.34c.18-.17.35-.35.52-.53a4.23 4.23 0 0 0 .34-.4 6 6 0 0 0 .6-.91.05.05 0 0 1 0 0 6.45 6.45 0 0 0 .44-1.13c0-.06 0-.12.06-.18a5.49 5.49 0 0 0 .18-1.4 6 6 0 0 0 -1.4-3.79 1.91 1.91 0 0 1 -.44-1.19 1.88 1.88 0 0 1 .44-1.18 6.81 6.81 0 0 0 .59-.85 5.81 5.81 0 0 0 .81-3 6 6 0 0 0 -1.4-3.79 1.88 1.88 0 0 1 -.44-1.18 1.91 1.91 0 0 1 .44-1.19 6 6 0 0 0 1.3-2.75 5.16 5.16 0 0 0 .1-1 5 5 0 0 0 -.1-1 6.07 6.07 0 0 0 -1.27-2.83 1.81 1.81 0 0 1 0-2.37 6.07 6.07 0 0 0 1.3-2.76 5 5 0 0 0 .1-1 6 6 0 0 0 -1.4-3.87 1.81 1.81 0 0 1 0-2.37 6.07 6.07 0 0 0 1.3-2.76 5.1 5.1 0 0 0 .1-1 5.8 5.8 0 0 0 -.81-2.94 6.81 6.81 0 0 0 -.59-.85 1.88 1.88 0 0 1 -.44-1.18 1.91 1.91 0 0 1 .44-1.19 6.14 6.14 0 0 0 .59-.85 5.77 5.77 0 0 0 .81-2.94 6 6 0 0 0 -1.4-3.79 1.82 1.82 0 0 1 0-2.37 6.07 6.07 0 0 0 1.3-2.76z" fill="#e48e39"/><path d="m81.25 89.72-.25.28-2.65-2.3 2.65-2.25.9.77a5.9 5.9 0 0 0 .22-5l-1.12 1-2.62-2.25 2.62-2.29a3.23 3.23 0 0 1 .22-.41 6.21 6.21 0 0 0 1.33-3.81c0-.13 0-.25 0-.38l-1.55 1.34-2.62-2.25 2.62-2.26.86.74a6.73 6.73 0 0 0 -.62-1 1.94 1.94 0 0 1 0-2.39 6.21 6.21 0 0 0 .9-1.61l-1.14 1-2.65-2.25 2.65-2.26 1.57 1.35a6.21 6.21 0 0 0 -1.33-3.81 2 2 0 0 1 -.36-.88l-2.5-2.15 2.62-2.27 1.23 1.06a5.87 5.87 0 0 0 .34-2 6.13 6.13 0 0 0 -.8-3l-.77.66-2.62-2.25 2.62-2.24.44.37a6.22 6.22 0 0 0 1.13-3.52 6.44 6.44 0 0 0 -.16-1.32l-1.41 1.21-2.65-2.25 2.53-2.18a1.87 1.87 0 0 1 .33-1.65 6.35 6.35 0 0 0 1.26-3l-1.47 1.32-2.62-2.26 2.62-2.26 1.45 1.26a6.22 6.22 0 0 0 -1.21-2.68 1.91 1.91 0 0 1 -.28-1.86l-2.58-2.23 2.62-2.25 1.46 1.25a5.78 5.78 0 0 0 .11-1.1 6.29 6.29 0 0 0 -1.23-3.7l-.34.29-2.65-2.25.3-.26a8.35 8.35 0 0 0 -3.79-.92 9 9 0 0 0 -1.48.14l1.2 1-2.58 2.29-2.17-1.87a2.1 2.1 0 0 1 -1.7-.26 8.13 8.13 0 0 0 -3.83-1.25l1.31 1.13-2.61 2.25-2.66-2.25 1-.86a8.38 8.38 0 0 0 -2.17 1 2.13 2.13 0 0 1 -2.3 0c-.12-.08-.27-.15-.4-.22l.11.1-2.58 2.23-2.67-2.25 1.34-1.16h-.29a8.21 8.21 0 0 0 -4.47 1.3 2.17 2.17 0 0 1 -.85.3l-2.12 1.83-2.62-2.27 1-.88a8.21 8.21 0 0 0 -2.19-.3 8.47 8.47 0 0 0 -3.21.64l.62.54-2.62 2.25-.86-.74a6.51 6.51 0 0 0 -1.25 2.18l.22.19-.41.35a6.15 6.15 0 0 0 -.17 1.43 6 6 0 0 0 .28 1.74l2.19-1.89 2.62 2.25-2.62 2.26-1.74-1.5a6.32 6.32 0 0 0 .6.95 1.92 1.92 0 0 1 0 2.38 6.2 6.2 0 0 0 -1.3 3.53l2.44-2.11 2.62 2.26-2.62 2.26-2.47-2.13a6.19 6.19 0 0 0 1.33 3.81 1.92 1.92 0 0 1 0 2.38c-.1.13-.17.27-.26.4l1.4-1.21 2.62 2.26-2.62 2.25-2.14-1.84a5.86 5.86 0 0 0 -.22 3.07l.44.42-.3.26a6.7 6.7 0 0 0 1 2 1.39 1.39 0 0 1 .11.21l1-.88 2.62 2.26-2.62 2.25-1.22-1.1a6.28 6.28 0 0 0 -1 2.39l.47.4-.56.48v.24a6 6 0 0 0 .5 2.49l1.89-1.62 2.62 2.25-2.62 2.26-.77-.66a1.88 1.88 0 0 1 -.37 1.43 6.21 6.21 0 0 0 -1.33 3.81 4.65 4.65 0 0 0 .07.75l2.4-2.08 2.62 2.26-2.62 2.26-2.35-2a6.36 6.36 0 0 0 1.21 2.64 1.94 1.94 0 0 1 0 2.39 6.4 6.4 0 0 0 -1.08 2.15l2.22-1.91 2.62 2.26-2.62 2.25-2.37-2a6.5 6.5 0 0 0 -.1 1.09 6.21 6.21 0 0 0 1.33 3.81 2 2 0 0 1 .39 1l.75-.65 2.62 2.26-2.62 2.25-1.77-1.52a6.18 6.18 0 0 0 -.69 2.66l.57.49-.51.44a6.23 6.23 0 0 0 .9 2.48l1.5-1.29 2.62 2.25-2.58 2.29-.88-.76a2.42 2.42 0 0 1 -.26.47 6.58 6.58 0 0 0 -1 1.74l.21.18-.34.29a6.14 6.14 0 0 0 -.24 1.61 6 6 0 0 0 .25 1.64l2.22-1.92 2.62 2.26-2.62 2.26-1.88-1.62a7.36 7.36 0 0 0 4.34 3.74l-.57-.5 2.61-2.25 2.62 2.25-1 .91a8.18 8.18 0 0 0 3.6-1.3 2.11 2.11 0 0 1 1.84-.21l2-1.71 2.62 2.25-1 .86a8.19 8.19 0 0 0 4.93-.7l-.16-.14 2.62-2.25 2.62 2.25-.46.4a8.52 8.52 0 0 0 3 .57 8.36 8.36 0 0 0 2-.26l-.81-.71 2.62-2.25 1.85 1.59a2.16 2.16 0 0 1 1.08.33 8.12 8.12 0 0 0 4.47 1.3h.17l-1.11-1 2.62-2.25 2.49 2.18a7.71 7.71 0 0 0 1.94-1.59l-2.55-2.19 2.61-2.26 1.46 1.26a6.53 6.53 0 0 0 .11-1 6.25 6.25 0 0 0 -1.32-3.75zm-2.17-5.9-2.61 2.26-2.62-2.26 2.62-2.26zm-20.63-25.56 2.62 2.26-2.62 2.25-2.62-2.25zm0-3.25-2.62-2.26 2.62-2.26 2.62 2.26zm4.55 7.13 2.62 2.26-2.62 2.26-2.66-2.26zm0-3.25-2.61-2.26 2.61-2.25 2.62 2.25zm0-7.77-2.61-2.25 2.61-2.26 2.62 2.26zm-4.5-3.88-2.67-2.24 2.62-2.26 2.62 2.26zm-1.89 1.63-2.61 2.25-2.62-2.25 2.62-2.26zm-2.61 5.51 2.61 2.25-2.61 2.26-2.62-2.26zm0 7.76 2.61 2.26-2.61 2.26-2.67-2.26zm0 7.77 2.61 2.26-2.61 2.25-2.62-2.25zm1.88-1.63 2.57-2.28 2.62 2.25-2.62 2.26zm7.12 1.63 2.62 2.26-2.62 2.25-2.61-2.25zm1.89-1.63 2.57-2.28 2.62 2.25-2.62 2.26zm2.62-5.51-2.62-2.25 2.62-2.26 2.62 2.26zm0-7.76-2.62-2.26 2.62-2.26 2.62 2.26zm0-7.77-2.67-2.24 2.62-2.26 2.62 2.26zm0-7.77-2.62-2.26 2.57-2.21 2.62 2.25zm-1.94 1.63-2.57 2.25-2.66-2.25 2.66-2.26zm-7.12-1.63-2.62-2.26 2.62-2.21 2.62 2.25zm-1.89 1.63-2.56 2.25-2.67-2.25 2.67-2.26zm-7.12-1.63-2.62-2.26 2.62-2.21 2.62 2.25zm0 3.25 2.62 2.28-2.62 2.26-2.62-2.26zm0 7.77 2.62 2.26-2.62 2.25-2.62-2.26zm0 7.77 2.62 2.26-2.62 2.25-2.62-2.25zm0 7.77 2.62 2.25-2.62 2.26-2.62-2.26zm0 7.76 2.62 2.26-2.62 2.26-2.62-2.26zm4.56 3.89 2.61 2.26-2.61 2.25-2.62-2.25zm1.88-1.63 2.62-2.26 2.62 2.26-2.62 2.26zm7.12 1.63 2.62 2.26-2.62 2.25-2.61-2.25zm1.89-1.63 2.62-2.26 2.62 2.26-2.62 2.26zm7.11 1.63 2.62 2.26-2.62 2.25-2.61-2.25zm0-3.26-2.61-2.25 2.61-2.26 2.62 2.26zm0-7.76-2.65-2.26 2.65-2.26 2.62 2.26zm0-7.77-2.61-2.26 2.61-2.25 2.62 2.25zm0-7.77-2.61-2.25 2.61-2.26 2.62 2.26zm0-7.77-2.65-2.25 2.65-2.26 2.62 2.26zm0-7.76-2.61-2.26 2.61-2.26 2.62 2.26zm-4.5-3.89-2.62-2.25 2.62-2.26 2.62 2.26zm-1.89 1.63-2.61 2.26-2.61-2.26 2.61-2.26zm-7.16-1.63-2.62-2.25 2.62-2.26 2.62 2.26zm-1.89 1.63-2.56 2.26-2.62-2.26 2.62-2.26zm-7.12-1.63-2.62-2.25 2.62-2.26 2.62 2.26zm-1.89 1.63-2.61 2.26-2.62-2.26 2.62-2.26zm-2.61 5.51 2.61 2.26-2.61 2.25-2.62-2.25zm0 7.77 2.61 2.26-2.61 2.25-2.62-2.25zm0 7.77 2.61 2.25-2.61 2.26-2.62-2.26zm0 7.76 2.61 2.26-2.61 2.26-2.62-2.26zm0 7.77 2.61 2.26-2.61 2.25-2.62-2.25zm0 7.77 2.61 2.26-2.61 2.25-2.62-2.25zm0 7.77 2.61 2.25-2.61 2.3-2.62-2.3zm1.88-1.63 2.62-2.26 2.62 2.26-2.62 2.26zm7.18 1.63 2.61 2.25-2.61 2.3-2.67-2.3zm1.88-1.63 2.62-2.26 2.62 2.26-2.62 2.26zm7.12 1.63 2.62 2.25-2.62 2.3-2.66-2.3zm1.89-1.63 2.62-2.26 2.62 2.26-2.62 2.26zm7.11 1.63 2.62 2.25-2.62 2.3-2.65-2.3zm7.12-9.4-2.61 2.26-2.62-2.26 2.62-2.26zm0-7.77-2.61 2.26-2.62-2.26 2.58-2.28zm0-7.76-2.61 2.25-2.62-2.25 2.62-2.26zm0-7.77-2.65 2.25-2.62-2.26 2.62-2.26zm0-7.77-2.61 2.26-2.66-2.24 2.62-2.26zm0-7.77-2.61 2.26-2.62-2.26 2.58-2.21zm0-7.76-2.65 2.25-2.62-2.25 2.62-2.26zm-2.61-10 2.61 2.26-2.61 2.26-2.62-2.26zm-4.51 3.86 2.62 2.25-2.62 2.26-2.61-2.26zm-4.5-3.89 2.62 2.26-2.62 2.26-2.62-2.26zm-4.5 3.89 2.62 2.25-2.62 2.26-2.61-2.26zm-4.5-3.89 2.62 2.26-2.62 2.26-2.62-2.26zm-4.5 3.89 2.61 2.25-2.61 2.26-2.62-2.26zm-4.51-3.89 2.62 2.26-2.62 2.26-2.62-2.26zm-4.5 3.89 2.61 2.25-2.61 2.26-2.62-2.26zm-7.12-1.63 2.61-2.26 2.62 2.26-2.62 2.26zm0 7.77 2.61-2.26 2.62 2.26-2.67 2.25zm0 7.76 2.56-2.21 2.62 2.25-2.62 2.26zm0 7.77 2.61-2.26 2.57 2.28-2.62 2.26zm0 7.77 2.61-2.26 2.62 2.26-2.67 2.25zm0 7.77 2.61-2.26 2.62 2.26-2.62 2.25zm0 7.76 2.56-2.28 2.62 2.25-2.62 2.26zm0 7.77 2.61-2.26 2.62 2.26-2.62 2.26zm0 7.77 2.61-2.26 2.62 2.26-2.62 2.26zm2.61 10-2.61-2.25 2.61-2.26 2.62 2.26zm4.51 3.89-2.62-2.26 2.62-2.26 2.61 2.26zm4.5-3.89-2.62-2.25 2.62-2.26 2.62 2.26zm4.51 3.91-2.62-2.26 2.62-2.26 2.61 2.26zm4.5-3.89-2.62-2.25 2.62-2.26 2.62 2.26zm4.5 3.89-2.61-2.26 2.61-2.26 2.62 2.26zm4.51-3.89-2.62-2.25 2.62-2.26 2.62 2.26zm4.49 3.89-2.61-2.26 2.61-2.26 2.62 2.26zm4.51-3.89-2.62-2.25 2.62-2.26 2.61 2.26z" fill="#ffaa60"/><g fill="#eda2b0"><path d="m44.2 76.05h6.75v3.28h-6.75z" transform="matrix(.55469922 -.83205095 .83205095 .55469922 -43.46 74.18)"/><path d="m47.01 44.06h6.75v3.28h-6.75z" transform="matrix(.55469922 -.83205095 .83205095 .55469922 -15.59 62.27)"/><path d="m59.89 22.34h6.75v3.28h-6.75z" transform="matrix(.55469922 -.83205095 .83205095 .55469922 8.22 63.31)"/><path d="m73.42 35.59h8.26v3.28h-8.26z" transform="matrix(.18875266 -.98202466 .98202466 .18875266 26.34 106.35)"/><path d="m69.92 71.58h3.28v7.8h-3.28z" transform="matrix(.99920138 -.0399574 .0399574 .99920138 -2.95 2.91)"/></g><path d="m38.23 88.32h8.18v3.28h-8.18z" fill="#c1687b" transform="matrix(.76199059 -.64758809 .64758809 .76199059 -48.19 48.82)"/><path d="m69.87 88.33h3.28v7.31h-3.28z" fill="#c1687b" transform="matrix(.76828352 -.6401097 .6401097 .76828352 -42.31 67.1)"/><path d="m39.73 26.49h6.63v3.28h-6.63z" fill="#c1687b" transform="matrix(.75264479 -.65842678 .65842678 .75264479 -7.87 35.31)"/><path d="m66.34 31.22h6.72v3.28h-6.72z" fill="#c1687b" transform="matrix(.37136784 -.92848583 .92848583 .37136784 13.3 85.37)"/><path d="m58.29 65.64c-4.21 0-7.64-3.94-7.64-8.8a1.46 1.46 0 0 1 2.91 0c0 3.25 2.12 5.9 4.73 5.9s4.71-2.65 4.71-5.9a1.46 1.46 0 0 1 2.91 0c.02 4.86-3.41 8.8-7.62 8.8z" fill="#a54760"/><path d="m45.53 58.58c0 1.18-2 2.13-4.45 2.13s-4.45-1-4.45-2.13 2-2.12 4.45-2.12 4.45.95 4.45 2.12z" fill="#fff"/><path d="m79.37 58.58c0 1.18-2 2.13-4.45 2.13s-4.45-1-4.45-2.13 2-2.12 4.45-2.12 4.45.95 4.45 2.12z" fill="#fff"/><path d="m44.75 58.39a2.52 2.52 0 0 1 -2.51-2.51v-5a2.53 2.53 0 0 1 2.51-2.52 2.53 2.53 0 0 1 2.52 2.52v5a2.52 2.52 0 0 1 -2.52 2.51z" fill="#a54760"/><path d="m72.21 58.39a2.52 2.52 0 0 1 -2.51-2.51v-5a2.53 2.53 0 0 1 2.51-2.52 2.54 2.54 0 0 1 2.52 2.52v5a2.53 2.53 0 0 1 -2.52 2.51z" fill="#a54760"/></svg>