<svg viewBox="0 0 116 116" xmlns="http://www.w3.org/2000/svg"><path d="m92.09 19.59-8.27 32.1 25.46 18.78c2.81 3.16-3.42 9.54-5.13 9.64l-33.08 2.06-13.3 22.62c-3.73 7.32-7.56 5.22-8.19 3.63l-11.44-29-30.77-8.24c-1.67-.39-2.46-5.18 1.51-8.77l21.66-15.11-2.9-33c-.15-1.7 3.18-8.6 6.18-8.24l25 24.1 30.5-13a2.06 2.06 0 0 1 2.77 2.43z" fill="#db7d31"/><path d="m96 13.59-8.27 32.1 21.76 25a2.06 2.06 0 0 1 -1.43 3.41l-33.06 2.07-17.1 28.42a2.06 2.06 0 0 1 -3.68-.31l-12.22-30.83-32.27-7.45a2.07 2.07 0 0 1 -.85-3.6l25.56-21.1-2.9-33a2.06 2.06 0 0 1 3.16-1.94l28 17.78 30.5-13a2.07 2.07 0 0 1 2.8 2.45z" fill="#fc9b3a"/><path d="m55.43 75.78-4.9-14.46-15-3.11a2.18 2.18 0 0 1 -.94-3.82l12.81-10.53-.51-16.14a2.18 2.18 0 0 1 3.35-1.91l12.94 8.25 14.61-6.54a2.19 2.19 0 0 1 3 2.64l-4.71 15.3 9.76 11.83a2.19 2.19 0 0 1 -1.49 3.57l-16.11 1.45-8.9 14a2.19 2.19 0 0 1 -3.91-.53z" fill="#fef1bc"/><g fill="#fff6d2"><path d="m49.3 42.88-.4-16.75a2.06 2.06 0 0 1 .08-.66 2.18 2.18 0 0 0 -2.09 2.25l.51 16.14z"/><path d="m86.3 58.43a2.21 2.21 0 0 1 -.69.2l-16 1.54-1.36 2.14 16.06-1.45a2.18 2.18 0 0 0 1.99-2.43z"/><path d="m60.48 74.46a2.14 2.14 0 0 1 -3.6-.76l-4.71-14.29-14.75-2.94a2.13 2.13 0 0 1 -1.36-3.25l-1.42 1.17a2.18 2.18 0 0 0 .94 3.82l15 3.11 4.9 14.46a2.19 2.19 0 0 0 3.91.48z"/></g><path d="m75.18 32.55s-8.51 3.15-11.08 5-11-8-10.81-4.86 1.88 10.28.38 12-13.51 5.91-11.24 8.66 14.12-2.17 15.5 1.65-2 7.68.35 9.67 6.58-11.16 9.82-11.4 8.2 2.52 10.46 2.35-10.11-4.87-7.88-9.81 5.75-12.19 4.5-13.26z" fill="#fff7f5" opacity=".78"/><path d="m82.62 54.57a2 2 0 0 1 -.85-.19l-7.09-3.2a2.07 2.07 0 0 1 -.46-3.49l6.17-5a2.07 2.07 0 0 1 2.61 3.16l-3.59 2.94 4 1.83a2.07 2.07 0 0 1 -.85 4z" fill="#a0563e"/><path d="m38.35 54.57a2 2 0 0 0 .85-.19l7.09-3.2a2.07 2.07 0 0 0 .46-3.49l-6.18-5a2.06 2.06 0 0 0 -2.57 3.16l3.59 2.94-4 1.83a2.07 2.07 0 0 0 .85 4z" fill="#a0563e"/><path d="m60.45 62.82a9.91 9.91 0 0 1 -8.93-5.69 2.07 2.07 0 0 1 3.75-1.75 5.73 5.73 0 0 0 10.46-.19 2.07 2.07 0 1 1 3.81 1.61 9.87 9.87 0 0 1 -9.09 6.02z" fill="#a0563e"/></svg>