<svg viewBox="0 0 116 116" xmlns="http://www.w3.org/2000/svg"><path d="m58.47 26.81s9.12-13.28 26.38-12.81c15.39.44 25.6 14.63 25.13 30.81-.53 18.72-15.62 40.46-53.7 58.64-36.98-20.31-50.8-42.87-50.28-61.59.47-16.18 11.47-29.77 26.86-29.33 17.27.47 25.61 14.28 25.61 14.28z" fill="#f39c4d"/><path d="m57.52 25.44a30.51 30.51 0 0 0 -2.16-2.56 24.23 24.23 0 0 1 2 2.73z" fill="#db7d31"/><path d="m101.72 21.62a32.81 32.81 0 0 1 7.19 22c-.53 18.72-15.62 40.46-53.71 58.63-15.42-8.45-26.81-17.32-34.81-26.14 8 9.21 19.76 18.5 35.89 27.37 38.08-18.18 53.17-39.92 53.72-58.64.24-9.05-2.83-17.47-8.28-23.22z" fill="#db7d31"/><path d="m58 27.79a29.1 29.1 0 0 1 23.4-10.68c13.65.39 22.73 12.3 22.35 25.86-.46 15.69-13.82 33.89-47.59 49.08-32.84-17.05-45.16-36.05-44.69-51.72.39-13.56 10.14-24.94 23.8-24.54a29.1 29.1 0 0 1 22.73 12z" fill="#ffb59c"/><path d="m58 28.6s8.1-11.93 23.42-11.49c13.65.39 22.71 13.13 22.29 27.66-.49 16.81-13.89 36.33-47.71 52.66-32.8-18.24-45.06-38.5-44.58-55.31.42-14.52 10.19-26.73 23.85-26.33 15.31.44 22.73 12.81 22.73 12.81z" fill="#ffe2dc"/><path d="m58 27.79a29.1 29.1 0 0 1 23.4-10.68c13.65.39 22.73 12.3 22.35 25.86-.41 14.49-11.83 31.11-40.15 45.53a15.31 15.31 0 0 1 -14.6-.42c-27.45-16-37.9-33.27-37.49-47.75.39-13.56 10.14-24.94 23.8-24.54a29.1 29.1 0 0 1 22.69 12z" fill="#ffb4b2"/><path d="m57.61 41.71a13.79 13.79 0 0 1 11.08-5.05c6.47.18 10.78 5.82 10.59 12.25-.21 7.43-6.54 16-22.54 23.24-15.56-8.09-21.39-17.06-21.17-24.5.18-6.42 4.8-11.81 11.27-11.62a13.79 13.79 0 0 1 10.77 5.68z" fill="#ffe2dc"/><path d="m68.69 42.08a13.78 13.78 0 0 0 -11.08 5.06 13.79 13.79 0 0 0 -10.77-5.69c-5.68-.16-9.93 4-11 9.32 1.3 6.74 7.47 14.39 20.91 21.38 14.34-6.45 20.91-14.05 22.25-20.92-1-5.04-4.9-9-10.31-9.15z" fill="#f24e4d"/><path d="m41.14 27.35c-6.64-3.44-18-5.07-22.29 2.76s1.32 17.75 5.33 24.61c1.65 2.83 5.48 9.51 9.22 9.59 1.06 0-1.62-9.37-1.8-9.93-2.21-6.91-4.87-31.38 9.54-27.03z" fill="#ffd1c5" opacity=".39"/><path d="m43.82 73.82a2.16 2.16 0 1 1 -2.15-2.16 2.15 2.15 0 0 1 2.15 2.16z" fill="#ffd1c5"/><path d="m49 47.88s-9.91-1.88-6.61 5.12 8.74 7 9.88 12.17 7 1.4 12.65-4.23 12.13-12.11 5-13.08-12 4.38-16.64 2.57-4.28-2.55-4.28-2.55z" fill="#ff7e7e" opacity=".63"/><path d="m73.2 24.24s8.8-4.94 15.86 2.14 1.6 26.07-2.17 22.3 4.71-11.77-5.18-16.94-8.51-7.5-8.51-7.5z" fill="#ffd1c5" opacity=".39"/><path d="m58.88 50.64c-6.37 0-11.55-6-11.55-13.3a2.2 2.2 0 0 1 4.4 0c0 4.91 3.2 8.91 7.15 8.91s7.15-4 7.15-8.91a2.2 2.2 0 0 1 4.39 0c0 7.34-5.18 13.3-11.54 13.3z" fill="#a54760"/><path d="m39.6 40c0 1.78-3 3.22-6.72 3.22s-6.71-1.47-6.71-3.22 3-3.21 6.71-3.21 6.72 1.41 6.72 3.21z" fill="#fff"/><path d="m90.71 40c0 1.78-3 3.22-6.72 3.22s-6.71-1.47-6.71-3.22 3-3.21 6.71-3.21 6.72 1.41 6.72 3.21z" fill="#fff"/><g fill="#a54760"><path d="m38.43 39.68a3.8 3.8 0 0 1 -3.79-3.8v-7.59a3.8 3.8 0 0 1 3.79-3.8 3.81 3.81 0 0 1 3.8 3.8v7.59a3.81 3.81 0 0 1 -3.8 3.8z"/><path d="m79.9 39.68a3.81 3.81 0 0 1 -3.79-3.8v-7.59a3.81 3.81 0 0 1 3.79-3.8 3.81 3.81 0 0 1 3.8 3.8v7.59a3.81 3.81 0 0 1 -3.8 3.8z"/></g></svg>