<svg viewBox="0 0 116 116" xmlns="http://www.w3.org/2000/svg"><path d="m96.44 72-25.91 31.3c-7.37 8.91-19.32 8.91-26.69 0l-23.12-27.92c-7.16-8.64-7.16-22.65 0-31.29l28-33.87c4.66-5.63 12.21-5.63 16.87 0l30.85 37.23c5.61 6.79 5.61 17.79 0 24.55z" fill="#f08229"/><path d="m93.57 71.13-24 29c-6.83 8.26-17.9 8.26-24.73 0l-21.46-25.89c-6.64-8-6.64-21 0-29l26-31.4c4.31-5.21 11.32-5.21 15.63 0l28.56 34.51a18.55 18.55 0 0 1 0 22.78z" fill="#feaa3b"/><g fill="#ffb854"><path d="m57.65 50.67a.75.75 0 0 1 -.38-.1c-.22-.11-5.21-2.85-5.21-10.3a19.76 19.76 0 0 1 4.62-12.37.88.88 0 0 1 .73-.29.93.93 0 0 1 .67.48c.18.29 4.33 7.35 4.33 12.49s-4 9.62-4.13 9.8a.88.88 0 0 1 -.63.29zm-.46-20.09a17.34 17.34 0 0 0 -3.19 9.69 9.49 9.49 0 0 0 3.53 7.84c1-1.21 3-4.24 3-7.53s-2.22-7.88-3.34-10z"/><path d="m59.28 102.13a.82.82 0 0 1 -.49-.16 71 71 0 0 1 -11.2-10.32c-5.42-6.55-5.28-15.35.41-24.14a126.27 126.27 0 0 1 11-14 99.43 99.43 0 0 0 6.58-8.09c2.29-3.37 1.86-9-1-13.38a91.9 91.9 0 0 0 -7.58-9.34 89.21 89.21 0 0 0 -6.07 7.71 14.7 14.7 0 0 0 -1.47 15.07 1.26 1.26 0 0 1 -.46 1.52.87.87 0 0 1 -1.27-.49 17.37 17.37 0 0 1 1.71-17.58 68.44 68.44 0 0 1 7.15-8.81.82.82 0 0 1 1 .19 97.19 97.19 0 0 1 8.41 10.3c3.44 5.22 3.87 12 1 16.25a98.91 98.91 0 0 1 -6.74 8.29 126.7 126.7 0 0 0 -10.8 13.76c-5.08 7.9-5.27 15.4-.53 21.12a68.88 68.88 0 0 0 10.25 9.54c1.48-1.59 5.82-6.26 9-10 3-3.5 4.24-9.84 3.09-14-.21-.79 1.76-1.15 2 .28 1 5-.47 11.48-3.81 15.41-3.88 4.55-9.51 10.54-9.57 10.6a.89.89 0 0 1 -.61.27z"/><path d="m59.47 97.26a.8.8 0 0 1 -.53-.2c-.56-.46-13.62-11.41-10.58-22 1.77-6.15 8-13.46 13.45-19.91 3.49-4.1 6.78-8 8-10.55 3.26-6.91.7-12.39-2-15.78-3-3.72-9.23-10.34-11.23-12.44-1.42 1.56-5.13 5.74-9.07 11-4.77 6.41-4.31 11.22-3.1 15.46a1.2 1.2 0 0 1 -.59 1.45.91.91 0 0 1 -1.2-.71c-1.33-4.67-2-10.43 3.48-17.73a149.84 149.84 0 0 1 9.83-11.85.82.82 0 0 1 1.24 0c.34.35 8.36 8.73 12 13.24a16.82 16.82 0 0 1 2.3 18.5c-1.35 2.85-4.58 6.65-8.32 11.06-5.32 6.27-11.36 13.38-13 19-2.23 7.75 6.72 16.53 9.22 18.8a67 67 0 0 0 7-10.1c1.82-3.59 1.57-8.23.31-11.83-.3-.86 2-.48 2.4 1.42a17.43 17.43 0 0 1 -1.1 11.6c-2.47 4.89-7.59 11-7.8 11.23a.91.91 0 0 1 -.71.34z"/><path d="m59.21 88.29a.87.87 0 0 1 -.65-.31c-.48-.54-4.74-5.47-4.74-9.59s4.09-8.74 4.56-9.25a.83.83 0 0 1 1.27 0c.49.54 4.86 5.37 4.86 9.73s-4.51 9-4.7 9.17a.82.82 0 0 1 -.6.25zm-.21-16.72c-1.29 1.61-3.31 4.59-3.31 6.82s2.18 5.49 3.53 7.19c1.32-1.5 3.37-4.36 3.37-6.72s-2.18-5.61-3.59-7.29z"/><path d="m72 63.7c-4.37 0-8-4.78-8.11-5a1.32 1.32 0 0 1 -.16-1.22c.09-.25 2.36-6.29 8.53-6.29 6 0 10.06 5.36 10.24 5.58a1.38 1.38 0 0 1 .24.89 1.2 1.2 0 0 1 -.39.81c-.27.22-6.11 5.23-10.35 5.23zm-6.23-6c1 1.16 3.51 3.67 6.23 3.67s6.52-2.66 8.28-4c-1.36-1.4-4.32-3.91-8-3.91a7.41 7.41 0 0 0 -6.53 4.29z"/><path d="m40.11 77.2a13.32 13.32 0 0 1 -10.07-5c-3.77-4.69-8.72-11.5-8.77-11.56a1.36 1.36 0 0 1 -.1-1.35 82.87 82.87 0 0 1 8.54-13.52c5.42-6.55 12.7-6.38 20 .45a124.47 124.47 0 0 1 11.6 13.32 96.71 96.71 0 0 0 6.7 8c2.79 2.77 7.44 2.24 11.07-1.25a92 92 0 0 0 7.73-9.13 85.36 85.36 0 0 0 -6.39-7.33c-3.1-3.14-6.26-4.15-9.66-3.1a.94.94 0 0 1 -1.15-.82 1.19 1.19 0 0 1 .68-1.39c4-1.24 7.79 0 11.35 3.55a67.45 67.45 0 0 1 7.29 8.64 1.37 1.37 0 0 1 -.15 1.23 100.09 100.09 0 0 1 -8.52 10.14c-4.32 4.16-10 4.67-13.45 1.23a99.92 99.92 0 0 1 -6.87-8.15 121.93 121.93 0 0 0 -11.41-13.09c-6.53-6.14-12.74-6.37-17.48-.64a79.52 79.52 0 0 0 -7.89 12.37c1.31 1.8 5.17 7 8.24 10.84 3.44 4.29 10.2 5.62 13.39 2.64a.83.83 0 0 1 1.32.2 1.31 1.31 0 0 1 -.17 1.61 8.41 8.41 0 0 1 -5.83 2.11z"/><path d="m74 76.78a11.05 11.05 0 0 1 -6.27-2.15c-2.35-1.63-5.51-5.53-9.15-10-5.21-6.48-11.1-13.77-15.77-15.73-6.41-2.7-13.68 8.1-15.56 11.1a61.67 61.67 0 0 0 8.36 8.4c3.68 2.72 8.69 1.61 11.75-.89a.84.84 0 0 1 1.31.3 1.3 1.3 0 0 1 -.25 1.59c-3.45 2.82-9.23 4.33-13.79 1-4.05-3-9.08-9.17-9.3-9.43a1.32 1.32 0 0 1 -.1-1.44c.38-.68 9.45-16.46 18.2-12.78 5.09 2.12 11.14 9.62 16.48 16.25 3.4 4.22 6.61 8.19 8.74 9.66 5.71 3.94 10.26.85 13.06-2.43 3.08-3.63 8.56-11.17 10.29-13.59-1.3-1.72-4.76-6.19-9.14-11-4.73-5.15-8.36-5-10.67-4.45-.52.12-.88-2.12-.37-2.24 4.31-1 8.22.55 12.31 5a149.62 149.62 0 0 1 9.87 11.93 1.34 1.34 0 0 1 0 1.5c-.3.41-7.23 10.1-11 14.47-2.76 3.27-5.85 4.93-9 4.93z"/><path d="m40.3 66.24c-3.69 0-7.44-5.44-7.6-5.67a1.34 1.34 0 0 1 0-1.51c.46-.59 4.54-5.73 7.95-5.73s7.23 5 7.66 5.51a1.34 1.34 0 0 1 0 1.53c-.4.63-4.41 5.87-8.01 5.87zm-5.57-6.36c1.27 1.59 3.61 4.12 5.57 4.12s4.64-2.66 6-4.33c-1.33-1.57-3.8-4-5.64-4s-4.52 2.58-5.93 4.21z"/></g><path d="m93.57 48.35-28.57-34.52c-4.31-5.21-11.32-5.21-15.63 0l-26 31.4c-6.64 8-6.64 21 0 29l21.44 25.9c6.83 8.26 17.9 8.26 24.73 0l24-29a18.55 18.55 0 0 0 .03-22.78zm-1.37 22.35-23.11 27.92c-6.58 7.94-17.23 7.94-23.81 0l-20.63-24.93c-6.38-7.7-6.38-20.2 0-27.91l25-30.21c4.16-5 10.89-5 15 0l27.55 33.21a17.86 17.86 0 0 1 0 21.92z" fill="#800000" opacity=".25"/><path d="m58.98 56.67-3.52 4.15.81.97 3.52-4.29z" fill="#feaa3b"/><g fill="#802a15" opacity=".25"><path d="m36 88.26c.22-2.18 3.9.73 3.68 2.39s-3.98.27-3.68-2.39z"/><path d="m33.57 73.05c.54-.9 3 .71 2.6 2s-3.3-.84-2.6-2z"/><path d="m56 89.47c.91-1.67 2.73.62.9 2.37s-1.9-.44-.9-2.37z"/><path d="m73.37 91.48c-.65 2.25 1.56 2.22 1.67-.17s-1.04-1.96-1.67.17z"/><path d="m64.78 97.63c1.08-.71.62-3-1-2s-1.02 3.37 1 2z"/><path d="m67.94 75.41c.92-1.77 4.11-.93 2.42 1.7s-3.78.89-2.42-1.7z"/><path d="m52.47 74.15c1.8-.63 1.94-3.22-.42-2.26s-1.7 3.01.42 2.26z"/><path d="m42.44 60.34c1.93-1.54 4 .64 1.44 1.87s-1.44-1.87-1.44-1.87z"/><path d="m26.38 70.22c.89-2.27 2-.8 1.72.65s-2.55 1.46-1.72-.65z"/><path d="m26.76 38.76c1.41-2.13 3.21 1.5 2.1 2.23s-3.36-.32-2.1-2.23z"/><path d="m29.44 55.35c-.55-2.42 2.67-2 3-.88s-2.17 4.53-3 .88z"/><path d="m40.09 44.12c2.15-3.35 4.22-.72 2.4 1.94s-4.25.94-2.4-1.94z"/><path d="m38 32.51c.84-1 2.65.57 1.09 1.86s-2.26-.52-1.09-1.86z"/><path d="m58.53 48.4c2.15.69.34 3.12-1.16 2.11s-1.54-2.98 1.16-2.11z"/><path d="m57.38 30.74c1.2-2 3.19-.32 1.29 1.36s-2.37.43-1.29-1.36z"/><path d="m71 26.57c.86-2.22 5.52 1.17 2.91 4s-3.91-1.38-2.91-4z"/><path d="m66.42 54.48c1.07-2.06 3 .57 1.78 2.77s-4.38 2.3-1.78-2.77z"/><path d="m78.05 48.28c1.52-3.14 3.21.21 1.58 2.36s-2.97.5-1.58-2.36z"/><path d="m82.31 62.43c2.67-2.36 3.61.64 1 2.34s-3.86.23-1-2.34z"/><path d="m84.32 74.23c2.43 1.57-.1 4.22-1.92 3.37s.72-4.15 1.92-3.37z"/></g><g fill="#ffa08a" opacity=".25"><path d="m23.65 68.11c1.4-1.55 2.63 3.3 1.53 4.44s-3.18-2.55-1.53-4.44z"/><path d="m30.31 54.58c.92-.32 1.95 2.67.93 3.35s-2.13-2.93-.93-3.35z"/><path d="m38.61 83.13c1.64-.67 1.78 2.4-.63 2.48s-1.28-1.72.63-2.48z"/><path d="m51 96.87c-1.76 1.29 0 2.82 1.4 1s.27-2.23-1.4-1z"/><path d="m40.86 95.63c1.23.2 2.18-1.95.37-2.29s-2.7 1.91-.37 2.29z"/><path d="m55.76 80.53c1.71-.74 3.73 2.17.94 3s-3.46-1.91-.94-3z"/><path d="m44.41 68.7c1.77.77 3.32-1.15 1-2.06s-3.07 1.15-1 2.06z"/><path d="m44.34 50.91c2.36.15 2.72 3.26.07 2.45s-.07-2.45-.07-2.45z"/><path d="m26.29 47.33c2-1.15 2 .81 1 1.71s-2.83-.64-1-1.71z"/><path d="m44.22 23.09c2.28-.67 1.65 3.42.38 3.21s-2.44-2.61-.38-3.21z"/><path d="m37 37.9c.93-2.28 3.21.29 2.81 1.4s-4.19 1.99-2.81-1.4z"/><path d="m51.59 36.62c3.55-1.1 3.69 2.4.78 3.19s-3.84-2.23-.78-3.19z"/><path d="m56.45 26.08a1.12 1.12 0 1 1 -.19 2.23c-1.94-.08-1.46-1.98.19-2.23z"/><path d="m63.56 52.89c1.29 2-1.48 2.67-2.09.83s.47-3.41 2.09-.83z"/><path d="m72.56 38.32c2.06-.71 2.67 2 .24 2s-2.08-1.32-.24-2z"/><path d="m85.51 44.63c1.92-1.12 3.64 4.79 0 5.18s-2.26-3.81 0-5.18z"/><path d="m66.3 63.17c2-.87 2 2.54-.17 3.4s-4.69-1.29.17-3.4z"/><path d="m78.83 66.49c3-1.37 2.39 2.42-.09 3s-2.59-1.74.09-3z"/><path d="m74.23 80.51c3.4 0 2.45 3-.51 2.55s-3.14-2.59.51-2.55z"/><path d="m69.18 91.11c1 2.92-2.44 3.22-3.38 1.28s2.88-2.73 3.38-1.28z"/></g><path d="m82.16 64.84a2.16 2.16 0 0 1 -.89-.19l-7.39-3.35a2.15 2.15 0 0 1 -.48-3.63l6.44-5.26a2.16 2.16 0 1 1 2.73 3.34l-3.74 3.06 4.22 1.91a2.16 2.16 0 0 1 -.89 4.12z" fill="#a0563e"/><path d="m36 64.84a2.16 2.16 0 0 0 .89-.19l7.39-3.35a2.15 2.15 0 0 0 .48-3.63l-6.44-5.26a2.16 2.16 0 1 0 -2.73 3.34l3.74 3.06-4.22 1.91a2.16 2.16 0 0 0 .89 4.12z" fill="#a0563e"/><path d="m59 73.45a10.34 10.34 0 0 1 -9.32-5.94 2.16 2.16 0 0 1 3.91-1.82 6 6 0 0 0 10.92-.2 2.16 2.16 0 1 1 4 1.68 10.27 10.27 0 0 1 -9.51 6.28z" fill="#a0563e"/></svg>