<svg viewBox="0 0 116 116" xmlns="http://www.w3.org/2000/svg"><path d="m109.81 30.07a4.47 4.47 0 0 0 .19-1.26c0-1.72-1-3.31-2.81-4.63a1.86 1.86 0 0 1 -.88-1.45 1.86 1.86 0 0 1 .88-1.44 6.86 6.86 0 0 0 2.62-3.37 4.47 4.47 0 0 0 .19-1.26 5 5 0 0 0 -1.28-3.23c-2.47-3-8.25-5.07-15-5.07-.89 0-1.76 0-2.61.11a25.74 25.74 0 0 0 -6.87 1.47 7.36 7.36 0 0 1 -4.86 0 27.55 27.55 0 0 0 -9.48-1.58 29.31 29.31 0 0 0 -5.07.42 23.84 23.84 0 0 0 -4.41 1.16 7.36 7.36 0 0 1 -4.86 0 27.55 27.55 0 0 0 -9.48-1.58 27.59 27.59 0 0 0 -9.48 1.58 7.36 7.36 0 0 1 -4.86 0 23.94 23.94 0 0 0 -4.4-1.16 29.51 29.51 0 0 0 -5.08-.42c-1 0-2 .06-2.93.15l-.86.1c-.67.08-1.32.18-1.95.31-.29.05-.59.1-.87.17a21.48 21.48 0 0 0 -2.27.63c-.34.11-.64.24-1 .37s-.76.3-1.11.46-.72.36-1.06.55l-.62.38-.17.11c-.39.26-.75.52-1.08.79a9.31 9.31 0 0 0 -.85.8c-.11.13-.24.25-.35.39l-.08.13a6.12 6.12 0 0 0 -.72 1.18c0 .06 0 .11-.07.16a1.21 1.21 0 0 1 -.05.18 4.48 4.48 0 0 0 -.22 1.44 4.65 4.65 0 0 0 .74 2.46 8.11 8.11 0 0 0 2.07 2.17 1.63 1.63 0 0 1 0 2.89c-1.81 1.32-2.81 2.91-2.81 4.63a4.65 4.65 0 0 0 .74 2.46 8.08 8.08 0 0 0 2.07 2.16 1.64 1.64 0 0 1 0 2.9c-1.81 1.32-2.81 2.91-2.81 4.67a4.47 4.47 0 0 0 .19 1.26 6.89 6.89 0 0 0 2.62 3.36 2.72 2.72 0 0 1 .47.5 1.63 1.63 0 0 1 .41 1 1.87 1.87 0 0 1 -.88 1.45 6.89 6.89 0 0 0 -2.62 3.36 4.47 4.47 0 0 0 -.19 1.17 4.54 4.54 0 0 0 .19 1.27 5.65 5.65 0 0 0 1 1.79 9 9 0 0 0 .73.8 9.51 9.51 0 0 0 .88.77 1.63 1.63 0 0 1 0 2.89 6.91 6.91 0 0 0 -2.61 3.38 4.47 4.47 0 0 0 -.19 1.25 4.54 4.54 0 0 0 .19 1.27 6.89 6.89 0 0 0 2.62 3.36 1.63 1.63 0 0 1 0 2.89 6.86 6.86 0 0 0 -2.62 3.37 4.47 4.47 0 0 0 -.19 1.26 4.6 4.6 0 0 0 .19 1.27 6.89 6.89 0 0 0 2.62 3.33 1.63 1.63 0 0 1 0 2.89c-1.81 1.35-2.81 2.94-2.81 4.66a5.23 5.23 0 0 0 1.62 3.59 10.19 10.19 0 0 0 1.19 1 1.63 1.63 0 0 1 0 2.89c-1.81 1.36-2.81 2.97-2.81 4.67a6 6 0 0 0 2.78 4.64 20.93 20.93 0 0 0 10.22 3.49 31.85 31.85 0 0 0 3.28.17 30.54 30.54 0 0 0 5.08-.42 23.94 23.94 0 0 0 4.4-1.16 7.36 7.36 0 0 1 4.86 0 27.59 27.59 0 0 0 9.47 1.58 27.55 27.55 0 0 0 9.48-1.58 7.36 7.36 0 0 1 4.86 0 23.84 23.84 0 0 0 4.41 1.16 30.33 30.33 0 0 0 5.07.42 27.55 27.55 0 0 0 9.48-1.58 7.36 7.36 0 0 1 4.86 0 26.13 26.13 0 0 0 6.87 1.47c.85.07 1.72.11 2.61.11.79 0 1.57 0 2.33-.09.21 0 .41 0 .61-.06l.76-.09c.27 0 .55-.05.82-.1.43-.06.84-.14 1.25-.22l.8-.16c.47-.11.92-.23 1.36-.36l.42-.12c.2-.07.42-.12.62-.18s.34-.14.51-.21l.4-.15h.12c.38-.15.75-.31 1.1-.48s.53-.27.79-.42a9.82 9.82 0 0 0 1-.65c.24-.16.48-.31.69-.48a9.11 9.11 0 0 0 1.19-1.11v-.06a5.45 5.45 0 0 0 .87-1.37 1.76 1.76 0 0 0 .14-.23 4.38 4.38 0 0 0 .35-1.7c0-1.72-1-3.31-2.81-4.63a1.63 1.63 0 0 1 0-2.89 10.19 10.19 0 0 0 1.19-1 5.23 5.23 0 0 0 1.76-3.69c0-1.72-1-3.31-2.81-4.63a1.63 1.63 0 0 1 0-2.89 6.89 6.89 0 0 0 2.62-3.36 4.6 4.6 0 0 0 .19-1.27 4.47 4.47 0 0 0 -.19-1.26 6.86 6.86 0 0 0 -2.62-3.37 1.63 1.63 0 0 1 0-2.89 6.89 6.89 0 0 0 2.62-3.36 4.54 4.54 0 0 0 .19-1.27c0-1.72-1-3.31-2.81-4.63a1.63 1.63 0 0 1 0-2.89 6.89 6.89 0 0 0 2.62-3.36 4.54 4.54 0 0 0 .19-1.27 5.25 5.25 0 0 0 -1.62-3.59 10.13 10.13 0 0 0 -1.19-1 1.63 1.63 0 0 1 0-2.9 10.13 10.13 0 0 0 1.19-1 5.25 5.25 0 0 0 1.62-3.61c0-1.72-1-3.31-2.81-4.63a1.63 1.63 0 0 1 0-2.9 6.89 6.89 0 0 0 2.62-3.4z" fill="#e48e39"/><path d="m109.81 27.71a4.47 4.47 0 0 0 .19-1.26c0-1.72-1-3.31-2.81-4.63a1.86 1.86 0 0 1 -.88-1.45 1.86 1.86 0 0 1 .88-1.44 6.86 6.86 0 0 0 2.62-3.37 4.47 4.47 0 0 0 .19-1.26 5 5 0 0 0 -1.28-3.23c-2.47-3-8.25-5.07-15-5.07-.89 0-1.76 0-2.61.11a26.13 26.13 0 0 0 -6.87 1.47 7.36 7.36 0 0 1 -4.86 0 27.55 27.55 0 0 0 -9.47-1.58 30.33 30.33 0 0 0 -5.07.42 23.84 23.84 0 0 0 -4.41 1.16 7.36 7.36 0 0 1 -4.86 0 27.55 27.55 0 0 0 -9.48-1.58 27.59 27.59 0 0 0 -9.48 1.58 7.36 7.36 0 0 1 -4.86 0 23.94 23.94 0 0 0 -4.4-1.16 30.54 30.54 0 0 0 -5.08-.42c-1 0-2 .06-2.93.15l-.86.1c-.67.08-1.32.19-1.95.31-.29.06-.59.1-.87.17-.79.18-1.55.39-2.27.63-.34.11-.64.25-1 .37s-.76.3-1.11.47-.72.35-1.06.54l-.62.38-.17.11c-.39.26-.75.52-1.08.79a10.93 10.93 0 0 0 -.85.8l-.35.39-.08.13a5.9 5.9 0 0 0 -.72 1.19c0 .05 0 .1-.07.16a1.09 1.09 0 0 1 -.05.17 4.48 4.48 0 0 0 -.23 1.44 4.62 4.62 0 0 0 .74 2.46 8.11 8.11 0 0 0 2.07 2.17 1.63 1.63 0 0 1 0 2.89c-1.81 1.32-2.81 2.91-2.81 4.63a4.62 4.62 0 0 0 .74 2.46 8.11 8.11 0 0 0 2.07 2.17 1.63 1.63 0 0 1 0 2.89c-1.81 1.32-2.81 2.91-2.81 4.63a4.47 4.47 0 0 0 .19 1.26 6.86 6.86 0 0 0 2.62 3.37 2.4 2.4 0 0 1 .47.49 1.63 1.63 0 0 1 .41 1 1.86 1.86 0 0 1 -.88 1.45 6.89 6.89 0 0 0 -2.62 3.36 4.54 4.54 0 0 0 -.19 1.22 4.47 4.47 0 0 0 .19 1.25 5.55 5.55 0 0 0 1 1.79 7.76 7.76 0 0 0 .73.8 9.58 9.58 0 0 0 .88.78 1.63 1.63 0 0 1 0 2.89 6.89 6.89 0 0 0 -2.62 3.36 4.54 4.54 0 0 0 -.18 1.28 4.47 4.47 0 0 0 .19 1.26 6.89 6.89 0 0 0 2.62 3.36 1.64 1.64 0 0 1 0 2.9 6.89 6.89 0 0 0 -2.62 3.36 4.47 4.47 0 0 0 -.19 1.22 4.54 4.54 0 0 0 .19 1.27 6.89 6.89 0 0 0 2.62 3.36 1.87 1.87 0 0 1 .88 1.45 1.84 1.84 0 0 1 -.88 1.44c-1.81 1.36-2.81 2.95-2.81 4.67a5.23 5.23 0 0 0 1.62 3.59 9.33 9.33 0 0 0 1.19 1 1.63 1.63 0 0 1 0 2.89c-1.81 1.33-2.81 2.95-2.81 4.67a6 6 0 0 0 2.78 4.66 20.93 20.93 0 0 0 10.22 3.47 31.85 31.85 0 0 0 3.28.17 29.51 29.51 0 0 0 5.08-.42 23.94 23.94 0 0 0 4.4-1.16 7.36 7.36 0 0 1 4.86 0 27.59 27.59 0 0 0 9.48 1.58 27.55 27.55 0 0 0 9.48-1.58 7.36 7.36 0 0 1 4.86 0 23.84 23.84 0 0 0 4.41 1.16 29.31 29.31 0 0 0 5.07.42 27.55 27.55 0 0 0 9.48-1.58 7.36 7.36 0 0 1 4.86 0 25.74 25.74 0 0 0 6.87 1.47c.85.08 1.72.11 2.61.11.79 0 1.57 0 2.33-.09.21 0 .41 0 .61-.06l.76-.08.82-.1 1.25-.23.8-.16c.47-.11.92-.23 1.36-.36l.42-.12c.2-.06.42-.11.62-.18s.34-.14.51-.21l.4-.15h.12c.38-.15.75-.31 1.1-.47l.79-.42c.38-.21.72-.43 1-.65s.48-.32.69-.49a8.48 8.48 0 0 0 1.19-1.11s0 0 0 0a5.83 5.83 0 0 0 .87-1.37c0-.08.11-.15.14-.23a4.4 4.4 0 0 0 .35-1.71c0-1.72-1-3.31-2.81-4.63a1.63 1.63 0 0 1 0-2.89 9.33 9.33 0 0 0 1.19-1 5.23 5.23 0 0 0 1.75-3.74c0-1.72-1-3.31-2.81-4.63a1.84 1.84 0 0 1 -.88-1.44 1.87 1.87 0 0 1 .88-1.45 6.89 6.89 0 0 0 2.62-3.36 4.54 4.54 0 0 0 .19-1.31 4.47 4.47 0 0 0 -.19-1.26 6.89 6.89 0 0 0 -2.62-3.36 1.64 1.64 0 0 1 0-2.9 6.89 6.89 0 0 0 2.62-3.36 4.47 4.47 0 0 0 .19-1.22c0-1.72-1-3.31-2.81-4.63a1.63 1.63 0 0 1 0-2.89 6.91 6.91 0 0 0 2.62-3.38 4.47 4.47 0 0 0 .19-1.26 5.23 5.23 0 0 0 -1.62-3.59 10.19 10.19 0 0 0 -1.19-1 1.63 1.63 0 0 1 0-2.89 10.19 10.19 0 0 0 1.19-1 5.25 5.25 0 0 0 1.62-3.66c0-1.72-1-3.31-2.81-4.63a1.63 1.63 0 0 1 0-2.89 6.86 6.86 0 0 0 2.62-3.37z" fill="#ffaa60"/><path d="m100.45 33a3.57 3.57 0 0 0 .15-1 4.88 4.88 0 0 0 -2.3-3.79 1.54 1.54 0 0 1 -.72-1.21 1.53 1.53 0 0 1 .72-1.18 5.68 5.68 0 0 0 2.15-2.82 3.63 3.63 0 0 0 .15-1 4.14 4.14 0 0 0 -1-2.64c-2-2.44-6.77-4.16-12.29-4.16q-1.09 0-2.13.09a21.69 21.69 0 0 0 -5.64 1.21 6 6 0 0 1 -4 0 22.55 22.55 0 0 0 -7.76-1.3 24.06 24.06 0 0 0 -4.16.35 19.61 19.61 0 0 0 -3.61 1 6 6 0 0 1 -4 0 23.84 23.84 0 0 0 -15.53 0 6 6 0 0 1 -4 0 19.72 19.72 0 0 0 -3.62-1 23.94 23.94 0 0 0 -4.15-.35 23.48 23.48 0 0 0 -2.4.13l-.71.08c-.55.07-1.08.15-1.6.25l-.71.14c-.65.15-1.27.32-1.86.52-.28.09-.52.2-.78.3s-.62.25-.91.38-.59.29-.87.45l-.51.31-.14.09a7.72 7.72 0 0 0 -.88.65 7.36 7.36 0 0 0 -.7.65c-.1.11-.2.21-.29.32l-.06.11a4.5 4.5 0 0 0 -.59 1l-.06.13v.15a3.62 3.62 0 0 0 -.24 1.14 3.81 3.81 0 0 0 .6 2 6.61 6.61 0 0 0 1.7 1.78 1.34 1.34 0 0 1 0 2.37 4.88 4.88 0 0 0 -2.3 3.79 3.86 3.86 0 0 0 .6 2 6.72 6.72 0 0 0 1.7 1.77 1.34 1.34 0 0 1 0 2.37 4.88 4.88 0 0 0 -2.3 3.79 3.68 3.68 0 0 0 .15 1 5.62 5.62 0 0 0 2.15 2.75 2.06 2.06 0 0 1 .38.41 1.29 1.29 0 0 1 .34.78 1.53 1.53 0 0 1 -.72 1.18 5.64 5.64 0 0 0 -2.15 2.76 3.65 3.65 0 0 0 0 2.07 4.72 4.72 0 0 0 .83 1.47 7.17 7.17 0 0 0 .62.71 7.55 7.55 0 0 0 .72.63 1.34 1.34 0 0 1 0 2.37 5.62 5.62 0 0 0 -2.15 2.75 3.68 3.68 0 0 0 -.15 1 3.57 3.57 0 0 0 .15 1 5.64 5.64 0 0 0 2.15 2.76 1.34 1.34 0 0 1 0 2.37 5.64 5.64 0 0 0 -2.15 2.76 3.57 3.57 0 0 0 -.15 1 3.68 3.68 0 0 0 .15 1 5.62 5.62 0 0 0 2.15 2.75 1.54 1.54 0 0 1 .72 1.19 1.53 1.53 0 0 1 -.72 1.18 4.9 4.9 0 0 0 -2.3 3.79 4.28 4.28 0 0 0 1.33 3 8.19 8.19 0 0 0 1 .85 1.53 1.53 0 0 1 .72 1.18 1.54 1.54 0 0 1 -.72 1.19 4.29 4.29 0 0 0 0 7.59 17.16 17.16 0 0 0 8.25 2.96 26.17 26.17 0 0 0 2.69.14 25 25 0 0 0 4.15-.34 21.46 21.46 0 0 0 3.62-1 5.91 5.91 0 0 1 4 0 24 24 0 0 0 15.53 0 5.91 5.91 0 0 1 4 0 21.34 21.34 0 0 0 3.61 1 25.12 25.12 0 0 0 4.16.34 22.55 22.55 0 0 0 7.76-1.29 5.91 5.91 0 0 1 4 0 21.69 21.69 0 0 0 5.64 1.2q1 .09 2.13.09c.65 0 1.29 0 1.91-.07l.5-.06.63-.06c.22 0 .45 0 .67-.09s.68-.12 1-.18l.66-.13c.39-.09.75-.19 1.11-.3l.34-.09c.17-.06.35-.1.51-.15l.43-.17.35-.16h.1q.47-.18.9-.39c.23-.11.44-.22.65-.34s.59-.35.86-.53.39-.26.57-.4a7.71 7.71 0 0 0 1-.91s0 0 0 0a4.73 4.73 0 0 0 .71-1.13c0-.06.09-.12.12-.18a3.8 3.8 0 0 0 .28-1.4 4.88 4.88 0 0 0 -2.3-3.79 1.54 1.54 0 0 1 -.72-1.19 1.53 1.53 0 0 1 .72-1.18 8.19 8.19 0 0 0 1-.85 4.28 4.28 0 0 0 1.33-3 4.9 4.9 0 0 0 -2.3-3.79 1.53 1.53 0 0 1 -.72-1.18 1.54 1.54 0 0 1 .72-1.19 5.62 5.62 0 0 0 2.15-2.75 3.68 3.68 0 0 0 .15-1 3.57 3.57 0 0 0 -.15-1 5.64 5.64 0 0 0 -2.17-2.8 1.34 1.34 0 0 1 0-2.37 5.64 5.64 0 0 0 2.15-2.76 3.57 3.57 0 0 0 .15-1 4.88 4.88 0 0 0 -2.3-3.87 1.34 1.34 0 0 1 0-2.37 5.64 5.64 0 0 0 2.15-2.76 3.63 3.63 0 0 0 .15-1 4.28 4.28 0 0 0 -1.33-2.94 8.19 8.19 0 0 0 -1-.85 1.53 1.53 0 0 1 -.72-1.18 1.54 1.54 0 0 1 .72-1.19 7.37 7.37 0 0 0 1-.85 4.26 4.26 0 0 0 1.33-2.94 4.88 4.88 0 0 0 -2.3-3.79 1.34 1.34 0 0 1 0-2.37 5.64 5.64 0 0 0 2.15-2.76z" fill="#e48e39"/><g fill="#ffaa60"><path d="m84.15 32.48c-1.69.9-3.08 1.71-4.12 2.35a.62.62 0 0 0 -.15.93c.32.37.7.78 1.13 1.23s.75.75 1.07 1.06a.62.62 0 0 0 1-.15c.76-1.39 1.68-3.17 2.54-4.91a.63.63 0 0 0 -.85-.83z"/><path d="m90 57.93c1.48-.56 3.34-1.32 5.14-2.1a.62.62 0 0 0 -.14-1.18l-.71-.15c-1.83-.39-3.46-.68-4.73-.87a.61.61 0 0 0 -.71.63c0 .47 0 1 .1 1.58s.12 1.13.19 1.6a.62.62 0 0 0 .86.49z"/><path d="m82.38 79.47a.62.62 0 0 0 -.95-.12c-.34.31-.7.67-1.09 1.08s-.78.84-1.09 1.2a.61.61 0 0 0 .18.94c1.08.6 2.5 1.34 4.2 2.17l.58.28a.62.62 0 0 0 .82-.84l-.36-.67c-.84-1.59-1.67-2.97-2.29-4.04z"/><path d="m63.6 89.3a.62.62 0 0 0 -.66-.68c-.47 0-1 .09-1.57.17s-1.17.17-1.65.26a.61.61 0 0 0 -.46.84c.61 1.53 1.45 3.49 2.31 5.39a.62.62 0 0 0 1.17-.15c0-.24.09-.48.13-.73.34-1.99.58-3.75.73-5.1z"/><path d="m33.94 77.62a.62.62 0 0 0 -.95.12c-.72 1.18-1.65 2.75-2.71 4.66l-.28.6a.62.62 0 0 0 .83.85l.62-.32c1.85-1 3.45-1.87 4.63-2.59a.61.61 0 0 0 .15-.93q-.46-.55-1.11-1.23t-1.18-1.16z"/><path d="m27.25 62a.61.61 0 0 0 .71-.62c0-.48 0-1-.06-1.65s-.1-1.19-.16-1.67a.62.62 0 0 0 -.8-.52c-1.68.53-3.89 1.3-6 2.09a.62.62 0 0 0 .06 1.15l.68.14c2.19.48 4.13.82 5.57 1.08z"/><path d="m33.51 30.87c.82 1.87 1.6 3.49 2.23 4.71a.62.62 0 0 0 .93.2c.37-.29.79-.62 1.24-1s.88-.78 1.23-1.12a.62.62 0 0 0 -.08-.95c-1.36-1-3.16-2.15-5-3.28a.62.62 0 0 0 -.9.77z"/><path d="m55.89 27c.62 0 1.18-.08 1.67-.14a.61.61 0 0 0 .52-.8c-.47-1.5-1.12-3.4-1.79-5.24a.62.62 0 0 0 -1.18 0c-.06.24-.13.49-.2.74-.5 1.82-.88 3.44-1.15 4.71a.63.63 0 0 0 .62.75c.45-.02.95-.02 1.51-.02z"/><path d="m72.4 43.93a10.19 10.19 0 0 1 -1-.06 32.51 32.51 0 0 1 -3.94-.74 43.8 43.8 0 0 1 -8.29-2.76c-.65-.33-2.38-1.2-1.87-2.4.6-1.43 6.36-7.28 7-7.94 2-2 6.68-6.65 8.11-7.15a1 1 0 0 1 .83 0 1.34 1.34 0 0 1 .56.87c.43 1.56.64 6.5.69 10.25v5.87c-.12 2.85-.34 3.22-.46 3.42-.3.45-.77.64-1.63.64zm-13.63-5.56c.55.5 2.8 1.58 6.73 2.69a27.4 27.4 0 0 0 7.2 1.35 64.15 64.15 0 0 0 .24-9.1 71.67 71.67 0 0 0 -.53-8.71 65.93 65.93 0 0 0 -7 6.46 76.11 76.11 0 0 0 -6.64 7.31z"/><path d="m43.76 94a.89.89 0 0 1 -.44-.11 1.34 1.34 0 0 1 -.56-.87c-.42-1.56-.64-6.5-.69-10.25 0-2.2 0-4.29 0-5.87.11-2.84.33-3.22.45-3.42.32-.54 1-.7 2.47-.54a29.72 29.72 0 0 1 3.66.72 42.3 42.3 0 0 1 7.87 2.72c.78.39 2.59 1.3 2.07 2.55s-4.46 5.51-6.72 7.9-6.44 6.64-7.77 7.1a1.19 1.19 0 0 1 -.34.07zm.08-19.6a65.92 65.92 0 0 0 -.24 9.1 72 72 0 0 0 .53 8.7 65.38 65.38 0 0 0 6.68-6.41 74 74 0 0 0 6.33-7.27c-.5-.5-2.64-1.59-6.41-2.73a25.68 25.68 0 0 0 -6.89-1.35z"/><path d="m80.54 74.64c-1.4 0-2.69 0-3.75-.06-2.85-.11-3.22-.33-3.42-.45-.55-.32-.7-1-.54-2.48a30.14 30.14 0 0 1 .71-3.65 42.85 42.85 0 0 1 2.73-7.86c.39-.78 1.3-2.59 2.55-2.07s5.51 4.45 7.89 6.72 6.65 6.44 7.11 7.77a1 1 0 0 1 0 .82 1.32 1.32 0 0 1 -.87.56c-1.57.43-6.5.64-10.25.7zm-6.25-1.78a65.74 65.74 0 0 0 9.09.24 73.63 73.63 0 0 0 8.71-.54 67.71 67.71 0 0 0 -6.41-6.68 75.12 75.12 0 0 0 -7.28-6.33c-.5.5-1.58 2.65-2.72 6.42a25.68 25.68 0 0 0 -1.39 6.89z"/><path d="m36.43 58.15a1.15 1.15 0 0 1 -.46-.1c-1.41-.59-6.45-5.73-7-6.31-1.71-1.74-5.72-6-6.22-7.39a1 1 0 0 1 0-.87 1.28 1.28 0 0 1 .86-.56c1.57-.43 6.51-.64 10.26-.7 2.2 0 4.29 0 5.87.05 2.84.11 3.22.33 3.42.45.65.39.85 1.25-.18 4.34a49.89 49.89 0 0 1 -2.6 6.15c-2 4.03-3.15 4.94-3.95 4.94zm-12-13.86a53.59 53.59 0 0 0 5.57 6.31 57.53 57.53 0 0 0 6.46 6c.55-.37 1.92-2.35 3.55-6a25.45 25.45 0 0 0 2.19-6.6 66 66 0 0 0 -9-.24 73 73 0 0 0 -8.8.53z"/><path d="m77.56 57c-.77 0-1.55-.66-2.47-2a29.09 29.09 0 0 1 -2.74-5.43c-.88-2.27-1.21-3.76-1-4.4s.77-.82 2.31-1.21c1-.26 2.46-.53 4.13-.79a98.12 98.12 0 0 1 10.19-1c4.54-.17 5.18.38 5.44 1a1.57 1.57 0 0 1 -.32 1.51c-1.14 1.74-4.86 5-7.7 7.35s-6.52 4.97-7.84 4.97zm-4.77-11.2a21.33 21.33 0 0 0 1.81 5.2c1.61 3.46 2.7 4.41 3 4.48.61-.09 3.38-1.81 7.72-5.42a41.91 41.91 0 0 0 6.55-6.31c-1-.21-4-.27-9.49.33s-8.76 1.38-9.59 1.76z"/><path d="m45.57 44.54a1.49 1.49 0 0 1 -.52-.08c-.42-.15-1.06-.39-2-6.25a87.17 87.17 0 0 1 -1-9.81c-.17-4.26.38-4.87 1-5.13a1.78 1.78 0 0 1 1.66.39c1.83 1.2 5.09 4.66 7.32 7.25 1.38 1.6 2.56 3.09 3.42 4.3 1.39 1.95 1.56 2.65 1.55 3.07 0 .77-.66 1.55-2 2.47a29.52 29.52 0 0 1 -5.44 2.74 12.48 12.48 0 0 1 -3.99 1.05zm-1.94-19.71c-.2 1-.26 3.86.34 9.08a44.32 44.32 0 0 0 1.72 9.09 21 21 0 0 0 5.21-1.81c3.46-1.61 4.41-2.69 4.49-3-.1-.6-1.83-3.23-5.44-7.3a38.36 38.36 0 0 0 -6.32-6.06z"/><path d="m26.92 74.74c-3.07 0-3.58-.48-3.81-1a1.78 1.78 0 0 1 .41-1.69c1.21-1.84 4.6-5.06 7.14-7.26 1.57-1.36 3-2.53 4.22-3.38 1.92-1.37 2.62-1.54 3-1.53.77 0 1.55.66 2.47 2a29.52 29.52 0 0 1 2.74 5.44c.88 2.27 1.21 3.75 1 4.4-.15.42-.39 1.05-6.08 2a88.69 88.69 0 0 1 -9.62 1zm-2.25-1.67c.94.21 3.82.28 9-.3a43.54 43.54 0 0 0 9-1.67 21 21 0 0 0 -1.81-5.21c-1.61-3.46-2.7-4.41-3-4.49-.6.1-3.2 1.82-7.2 5.39-3.51 3.21-5.48 5.4-5.99 6.28z"/><path d="m73.16 93.68a2.54 2.54 0 0 1 -1.3-.52c-1.86-1.25-5.18-4.66-7.43-7.16-1.39-1.57-2.58-3-3.45-4.22-1.4-1.92-1.58-2.62-1.57-3 0-.76.66-1.55 2-2.47a29.73 29.73 0 0 1 5.43-2.73c2.28-.89 3.76-1.21 4.41-1 .43.16 1.07.4 2.12 6.48a85.66 85.66 0 0 1 1.13 10c.13 3.43-.26 4.31-.92 4.62a1.12 1.12 0 0 1 -.42 0zm-12.23-15c.11.6 1.88 3.21 5.55 7.24a39.53 39.53 0 0 0 6.42 6.08c.2-1 .22-3.85-.45-9-.63-4.92-1.42-8.25-1.82-9a20.34 20.34 0 0 0 -5.22 1.81c-3.41 1.55-4.41 2.64-4.48 2.92z"/><path d="m80.3 53.39c-3.18-13.53-18.22-19.88-28.64-16.33-11.37 3.87-18.24 14.51-15.09 26.65a23 23 0 0 0 28.92 16.05c11.01-3.44 17.4-15.3 14.81-26.37z"/></g><path d="m58.25 65.5c-3.65 0-6.62-3.42-6.62-7.63a1.26 1.26 0 1 1 2.52 0c0 2.82 1.84 5.11 4.1 5.11s4.1-2.29 4.1-5.11a1.26 1.26 0 0 1 2.52 0c0 4.21-2.97 7.63-6.62 7.63z" fill="#a54760"/><path d="m47.2 59.38c0 1-1.73 1.84-3.85 1.84s-3.85-.82-3.85-1.84 1.72-1.84 3.85-1.84 3.85.82 3.85 1.84z" fill="#fff"/><path d="m76.5 59.38c0 1-1.72 1.84-3.85 1.84s-3.85-.82-3.85-1.84 1.73-1.84 3.85-1.84 3.85.82 3.85 1.84z" fill="#fff"/><path d="m46.53 59.21a2.18 2.18 0 0 1 -2.18-2.21v-4.32a2.19 2.19 0 0 1 2.18-2.18 2.19 2.19 0 0 1 2.18 2.18v4.32a2.18 2.18 0 0 1 -2.18 2.21z" fill="#a54760"/><path d="m70.31 59.21a2.18 2.18 0 0 1 -2.18-2.21v-4.32a2.19 2.19 0 0 1 2.18-2.18 2.19 2.19 0 0 1 2.18 2.18v4.32a2.18 2.18 0 0 1 -2.18 2.21z" fill="#a54760"/></svg>