<svg viewBox="0 0 116 116" xmlns="http://www.w3.org/2000/svg" xmlns:xlink="http://www.w3.org/1999/xlink"><clipPath id="a"><path d="m84 16.15c-11.07 0-22.25 6.55-26 15.78-3.75-9.23-14.93-15.78-26-15.78-14.36 0-26 11-26 24.6 0 24.52 25.25 48.58 52 59.1 26.75-10.52 52-34.58 52-59.1 0-13.59-11.64-24.6-26-24.6z"/></clipPath><path d="m83.41 19.73c-10.13 0-22 7.58-25.41 16-3.43-8.44-15.82-16-25.95-16-13.13 0-23.77 10.07-23.77 22.5 0 22.41 25.26 44.42 49.72 54 24.46-9.62 49.18-31.63 49.18-54 0-12.43-10.64-22.5-23.77-22.5z" fill="#b37031"/><path d="m9 36.6s45.3 40.68 90.09 28.57c0 0-15.56 27.1-41.12 32 0 0-54-26.39-50.7-53.85z" fill="#af682e"/><path d="m84 16.15c-11.07 0-22.25 6.55-26 15.78-3.75-9.23-14.93-15.78-26-15.78-14.36 0-26 11-26 24.6 0 24.52 25.25 48.58 52 59.1 26.75-10.52 52-34.58 52-59.1 0-13.59-11.64-24.6-26-24.6zm-26 80.12c-24.46-9.62-49.72-31.63-49.72-54 0-12.43 10.64-22.5 23.77-22.5 10.13 0 22.52 7.58 26 16 3.43-8.44 15.28-16 25.41-16 13.13 0 23.77 10.07 23.77 22.5-.05 22.37-24.77 44.38-49.23 54z" fill="#a25e28"/><path d="m53.92 51.27a4.67 4.67 0 1 0 6.5 1.11 4.66 4.66 0 0 0 -6.5-1.11z" fill="#f6e8cb"/><path d="m57.1 51c1.4.15 2.49 1 2.45 1.36s-1.15-.19-2.55-.36-2.57.14-2.53-.25 1.23-.94 2.63-.75z" fill="#fcf3e3"/><path d="m52 55.33a9.93 9.93 0 0 0 9.23-1.18l.3.3s0 3.7-1.86 4.62-5.55 1.55-6.63-.58a7.71 7.71 0 0 1 -1.04-3.16z" fill="#f4e4c6"/><path d="m51.9 55.36a8 8 0 0 0 9 1.66 6.44 6.44 0 0 1 -2 2.49c-1.08.52-5.29.76-6.45-1.48s-.6-2.71-.6-2.71" fill="#f4e1c3"/><path d="m60.89 52.05a5.24 5.24 0 1 0 -1.25 7.31 5.24 5.24 0 0 0 1.25-7.31zm-1.58 6.84a4.67 4.67 0 1 1 1.11-6.51 4.67 4.67 0 0 1 -1.11 6.51z" fill="#f2dcbd"/><path d="m55.81 40.81a5.83 5.83 0 0 0 -1.67 9.75 5.76 5.76 0 0 0 6 1 5.83 5.83 0 0 0 1.67-9.75 5.76 5.76 0 0 0 -6-1z" fill="#cc1933"/><path d="m58.6 41.07c1.75.19 3.11 1.21 3.06 1.69s-1.43-.18-3.18-.37-3.2.17-3.14-.31 1.52-1.2 3.26-1.01z" fill="#ffdee0"/><path d="m52.19 46.52a12.36 12.36 0 0 0 11.5-1.52l.38.38s0 4.61-2.32 5.76-6.92 1.93-8.26-.73a9.5 9.5 0 0 1 -1.3-3.89z" fill="#c6172b"/><path d="m52.12 46.56a10 10 0 0 0 11.28 2.06s-1.19 2.46-2.53 3.11-6.6.94-8-1.85-.76-3.37-.76-3.37" fill="#bc112a"/><path d="m64.06 43.75a6.54 6.54 0 0 0 -11-1.88 6.47 6.47 0 0 0 -1.17 6.79 6.54 6.54 0 0 0 11 1.88 6.47 6.47 0 0 0 1.17-6.79zm-1.7 6.31a5.82 5.82 0 1 1 1-6 5.83 5.83 0 0 1 -1 6z" fill="#b71131"/><g clip-path="url(#a)"><path d="m4.34 42.46a10.93 10.93 0 0 0 11 6.33c1.94-.22 3.93-1 5.76-.3a9.76 9.76 0 0 1 3.41 2.77 22.17 22.17 0 0 0 25 4.26c2.06-1 4.14-2.42 6.42-2.2 3 .28 5 3.2 6.74 5.69a16.07 16.07 0 0 0 4.44 4.63 6.78 6.78 0 0 0 6.16.73c1.78-.78 3.49-2.62 5.31-1.92a4 4 0 0 1 1.42 1.07 17 17 0 0 1 4.38 11.93c-.1 2.75-.72 6 1.26 7.88 1.86-.7 2.55-3 2.75-4.93.44-4.42-.26-9.21 2-13.07a4.55 4.55 0 0 1 1.49-1.68c1.1-.67 2.49-.55 3.79-.63a11.11 11.11 0 0 0 6.59-2.76l9.62-11.83-4.61-34.1-101.27.58-4.53 26.49z" fill="#fff1d2"/></g><g fill="#a0563e"><path d="m81.66 44.2a2.23 2.23 0 0 1 -.91-.2l-7.58-3.43a2.22 2.22 0 0 1 -1.28-1.73 2.18 2.18 0 0 1 .8-2l6.59-5.39a2.21 2.21 0 0 1 2.8 3.42l-3.84 3.13 4.33 2a2.21 2.21 0 0 1 -.91 4.23z"/><path d="m34.34 44.2a2.23 2.23 0 0 0 .91-.2l7.58-3.43a2.22 2.22 0 0 0 1.28-1.73 2.18 2.18 0 0 0 -.8-2l-6.59-5.39a2.21 2.21 0 0 0 -2.8 3.42l3.84 3.13-4.33 2a2.21 2.21 0 0 0 .91 4.23z"/><path d="m58 53a10.57 10.57 0 0 1 -9.55-6.08 2.21 2.21 0 0 1 4-1.87 6.13 6.13 0 0 0 11.19-.2 2.2 2.2 0 1 1 4.06 1.72 10.51 10.51 0 0 1 -9.7 6.43z"/></g></svg>