<svg viewBox="0 0 116 116" xmlns="http://www.w3.org/2000/svg"><path d="m58 6a52 52 0 1 0 52 52 52 52 0 0 0 -52-52zm0 72.9a20.9 20.9 0 1 1 20.9-20.9 20.9 20.9 0 0 1 -20.9 20.9zm21.55-20.9a21.42 21.42 0 1 0 -21.41 21.38 21.4 21.4 0 0 0 21.41-21.38z" fill="#ffaa60"/><path d="m58 104.39a52 52 0 0 1 -51.92-49.19c-.08.92-.08 1.86-.08 2.8a52 52 0 0 0 104 0c0-.94 0-1.88-.08-2.8a52 52 0 0 1 -51.92 49.19z" fill="#e48e39"/><path d="m30.38 71.06h3.58v7.35h-3.58z" fill="#eda2b0" transform="matrix(.55469922 -.83205095 .83205095 .55469922 -47.86 60.05)"/><path d="m81.52 67.51h8.7v3.58h-8.7z" fill="#eda2b0" transform="matrix(.78086672 -.62469766 .62469766 .78086672 -24.48 68.83)"/><path d="m68.79 82.64h3.58v9h-3.58z" fill="#eda2b0" transform="matrix(.18875266 -.98202466 .98202466 .18875266 -28.33 139.99)"/><path d="m20.58 44.23h8.9v3.58h-8.9z" fill="#eda2b0" transform="matrix(.68772131 -.7259748 .7259748 .68772131 -25.59 32.54)"/><path d="m38.62 94.87h8.5v3.58h-8.5z" fill="#eda2b0" transform="matrix(.99920138 -.0399574 .0399574 .99920138 -3.82 1.79)"/><path d="m95.98 42.4h3.58v9.61h-3.58z" fill="#eda2b0" transform="matrix(.70710678 -.70710678 .70710678 .70710678 -4.75 82.96)"/><path d="m10.18 62.24h8.98v3.58h-8.98z" fill="#eda2b0" transform="matrix(.87052753 -.49211972 .49211972 .87052753 -29.61 15.51)"/><g fill="#c1687b"><path d="m83.57 76.74h3.58v8.92h-3.58z" transform="matrix(.76199059 -.64758809 .64758809 .76199059 -32.27 74.61)"/><path d="m29.21 84h7.96v3.58h-7.96z" transform="matrix(.76828352 -.6401097 .6401097 .76828352 -47.22 41.13)"/><path d="m26.05 58.34h6.8v3.58h-6.8z" transform="matrix(.60000143 -.79999893 .79999893 .60000143 -36.32 47.61)"/><path d="m11.69 47.61h3.58v5.66h-3.58z" transform="matrix(.54082767 -.84113342 .84113342 .54082767 -36.24 34.5)"/><path d="m17.98 73.94h3.58v6.35h-3.58z" transform="matrix(.96353711 -.26757473 .26757473 .96353711 -19.92 8.1)"/><path d="m58.93 91.18h3.58v7.23h-3.58z" transform="matrix(.75264479 -.65842678 .65842678 .75264479 -47.4 63.44)"/><path d="m85.1 46.32h3.58v7.23h-3.58z" transform="matrix(.65842678 -.75264479 .75264479 .65842678 -7.9 82.44)"/><path d="m95.85 65.3h8.58v3.58h-8.58z" transform="matrix(.55469922 -.83205095 .83205095 .55469922 -11.23 113.2)"/><path d="m50.43 80.93h3.58v7.32h-3.58z" transform="matrix(.37136784 -.92848583 .92848583 .37136784 -45.72 101.66)"/></g><path d="m58.48 63.13c-3.7 0-6.71-3.47-6.71-7.73a1.28 1.28 0 1 1 2.55 0c0 2.85 1.87 5.18 4.16 5.18s4.16-2.33 4.16-5.18a1.28 1.28 0 1 1 2.56 0c0 4.26-3.01 7.73-6.72 7.73z" fill="#a54760"/><path d="m47.27 56.93c0 1-1.75 1.87-3.91 1.87s-3.91-.84-3.91-1.87 1.75-1.87 3.91-1.87 3.91.84 3.91 1.87z" fill="#fff"/><path d="m77 56.93c0 1-1.75 1.87-3.91 1.87s-3.91-.84-3.91-1.87 1.75-1.87 3.91-1.87 3.91.84 3.91 1.87z" fill="#fff"/><path d="m46.59 56.76a2.22 2.22 0 0 1 -2.21-2.21v-4.42a2.22 2.22 0 0 1 2.21-2.21 2.22 2.22 0 0 1 2.21 2.21v4.42a2.22 2.22 0 0 1 -2.21 2.21z" fill="#a54760"/><path d="m70.72 56.76a2.22 2.22 0 0 1 -2.21-2.21v-4.42a2.22 2.22 0 0 1 2.21-2.21 2.22 2.22 0 0 1 2.21 2.21v4.42a2.22 2.22 0 0 1 -2.21 2.21z" fill="#a54760"/><path d="m79.93 30.61h3.58v7.35h-3.58z" fill="#eda2b0" transform="matrix(.55469922 -.83205095 .83205095 .55469922 7.86 83.26)"/><path d="m41.53 17.38h3.58v9h-3.58z" fill="#eda2b0" transform="matrix(.18875266 -.98202466 .98202466 .18875266 13.65 60.28)"/><path d="m66.76 10.57h8.5v3.58h-8.5z" fill="#eda2b0" transform="matrix(.99920138 -.0399574 .0399574 .99920138 -.44 2.84)"/><path d="m26.74 23.37h3.58v8.92h-3.58z" fill="#c1687b" transform="matrix(.76199059 -.64758809 .64758809 .76199059 -11.23 25.1)"/><path d="m76.72 21.45h7.96v3.58h-7.96z" fill="#c1687b" transform="matrix(.76828352 -.6401097 .6401097 .76828352 3.83 57.05)"/><path d="m92.34 28.73h3.58v6.35h-3.58z" fill="#c1687b" transform="matrix(.96353711 -.26757473 .26757473 .96353711 -5.11 26.35)"/><path d="m51.38 10.62h3.58v7.23h-3.58z" fill="#c1687b" transform="matrix(.75264479 -.65842678 .65842678 .75264479 3.78 38.53)"/><path d="m9.46 40.14h8.58v3.58h-8.58z" fill="#c1687b" transform="matrix(.55469922 -.83205095 .83205095 .55469922 -28.77 30.11)"/><path d="m59.88 20.77h3.58v7.32h-3.58z" fill="#c1687b" transform="matrix(.37136784 -.92848583 .92848583 .37136784 16.08 72.61)"/></svg>