<svg viewBox="0 0 116 116" xmlns="http://www.w3.org/2000/svg" xmlns:xlink="http://www.w3.org/1999/xlink"><clipPath id="a"><path d="m78.32 71.49c-5.08 19.51-17.54 26.92-27.81 16.51s-14.51-34.65-9.41-54.18 17.54-26.92 27.81-16.51 14.49 34.69 9.41 54.18z"/></clipPath><path d="m82.29 45.68c1.31-4.68.23-11.43-2.08-13.68-.57-.54-.81.45-1.41.4 1.46-7.2-1.9-14.31-5.52-11.58.16-3.5-.7-7-2.33-8.6a3.45 3.45 0 0 0 -.36-.32c-1.61-1.6-3.49-1.13-4.85 1a10.7 10.7 0 0 0 -2.18-5.73c-2.06-2.3-4.65-1.06-6 2.72a7.91 7.91 0 0 0 -1.4-2.45c-2.2-2.45-5-.88-6.23 3.49a16 16 0 0 0 -.42 2 2.48 2.48 0 0 0 -.25-.3c-2.19-2.45-5-.89-6.23 3.49a16.17 16.17 0 0 0 -.56 3.43c-1.06-.43-4.52 3.37-5.17 6.22a21.27 21.27 0 0 0 -.37 7.1 16.37 16.37 0 0 0 -3.47 6.38c-.73 2.92-.49 8.57.13 11.48a26.79 26.79 0 0 0 -1.34 3.23c-1.41 4.95-.19 10.81 2 14-.16.51-.3 1-.38 1.26-1.72 6 .44 13.4 3.86 13.52-1.51 7.18 1.92 14.48 5.61 12.07-.23 3.56 1 8.35 3.43 10.22 1.7 1.33 3.55 1 4.9-1.29 1 7.4 5.88 8.63 8 2.1 2.24 5.63 6.86 3.48 7.81-3.83 2.27 2.69 6.15.27 7.32-4.21a23.36 23.36 0 0 0 .62-6.17c2.08-.8 2.65-1.38 3.8-3.64s1-7.24.59-10.7a5.87 5.87 0 0 0 3-3 17 17 0 0 0 0-12.09c2.5-4.74 1.64-13.5-.52-16.52z" fill="#8a2a00"/><path d="m79.32 74.33c1.4-.22 2.72-1.83 3.41-4.49a14.55 14.55 0 0 0 -.94-10 8 8 0 0 0 1.77-3.54c1.06-4.09.25-9.11-1.83-11.21l-.24-.22a12.27 12.27 0 0 0 .51-1.63c1.06-4.09.24-9.11-1.83-11.21a2.9 2.9 0 0 0 -1.67-.9c.79-3.94-.05-8.48-2-10.46a2.43 2.43 0 0 0 -3.35-.43c.13-3.24-.72-6.46-2.28-8a3.25 3.25 0 0 0 -.35-.31c-1.54-1.53-3.32-1.16-4.59.72a10.28 10.28 0 0 0 -2.12-5.37c-2-2.2-4.42-1.14-5.66 2.32a7.56 7.56 0 0 0 -1.36-2.32c-2.1-2.34-4.73-1-5.88 3a14.71 14.71 0 0 0 -.38 1.8 2.17 2.17 0 0 0 -.24-.29c-2.1-2.34-4.74-1-5.88 3a15 15 0 0 0 -.5 4.88c-1.87-1-3.89.48-4.86 3.85a15.51 15.51 0 0 0 0 8.17c-1.45.08-2.83 1.56-3.57 4.16a14.73 14.73 0 0 0 .93 10.15 7.28 7.28 0 0 0 -1.86 3.38c-1.14 4-.37 9.14 1.74 11.48a3.81 3.81 0 0 0 .75.67 9.74 9.74 0 0 0 -.78 2c-1.15 4-.37 9.14 1.73 11.48a3.1 3.1 0 0 0 2 1.15c-.8 3.84 0 8.41 2 10.57a2.61 2.61 0 0 0 3.47.78c-.19 3.27 1.07 7.74 3.35 9.55 1.62 1.29 3.38 1.06 4.64-1a9.37 9.37 0 0 0 2.13 5.11c1.94 2 4.31.66 5.47-2.89a6.59 6.59 0 0 0 1.35 2.15c2.07 2.1 4.62.49 5.68-3.6a14 14 0 0 0 .35-1.83l.24.26c2.08 2.1 4.62.49 5.68-3.6a15.47 15.47 0 0 0 .43-4.89c1.83.8 3.78-.89 4.68-4.33a15.72 15.72 0 0 0 -.14-8.11z" fill="#a13f00"/><g clip-path="url(#a)" fill="#5b2f0e"><path d="m68.77 23.43c-.19.74-.54 1.13-.79.88a2.28 2.28 0 0 1 -.1-1.78c.19-.73.55-1.13.79-.88a2.28 2.28 0 0 1 .1 1.78z"/><path d="m66.79 31c-.19.74-.54 1.13-.79.88a2.33 2.33 0 0 1 -.1-1.78c.19-.74.55-1.13.79-.88a2.24 2.24 0 0 1 .1 1.78z"/><path d="m64.82 38.63c-.2.73-.55 1.13-.79.88a2.24 2.24 0 0 1 -.1-1.78c.19-.74.54-1.13.79-.88a2.32 2.32 0 0 1 .1 1.78z"/><path d="m62.84 46.23c-.19.73-.55 1.12-.79.87a2.27 2.27 0 0 1 -.1-1.78c.19-.73.54-1.12.79-.88a2.3 2.3 0 0 1 .1 1.79z"/><path d="m60.86 53.82c-.19.74-.54 1.13-.79.88a2.28 2.28 0 0 1 -.1-1.78c.19-.73.55-1.13.79-.88a2.28 2.28 0 0 1 .1 1.78z"/><path d="m58.88 61.42c-.19.73-.54 1.13-.79.88a2.33 2.33 0 0 1 -.1-1.78c.19-.74.55-1.13.79-.88a2.28 2.28 0 0 1 .1 1.78z"/><path d="m56.91 69c-.2.73-.55 1.12-.8.88a2.33 2.33 0 0 1 -.1-1.78c.2-.74.55-1.13.8-.88a2.32 2.32 0 0 1 .1 1.78z"/><path d="m54.93 76.61c-.19.74-.55 1.13-.79.88a2.28 2.28 0 0 1 -.1-1.78c.19-.73.54-1.12.79-.88a2.33 2.33 0 0 1 .1 1.78z"/><path d="m53 84.21c-.19.74-.55 1.13-.79.88a2.28 2.28 0 0 1 -.1-1.78c.19-.73.54-1.13.79-.88a2.28 2.28 0 0 1 .1 1.78z"/><path d="m51 91.81c-.19.73-.54 1.13-.79.88a2.28 2.28 0 0 1 -.1-1.78c.19-.74.55-1.13.79-.88a2.28 2.28 0 0 1 .1 1.78z"/><path d="m64.87 19.48c-.19.74-.55 1.13-.79.88a2.28 2.28 0 0 1 -.1-1.78c.19-.73.54-1.13.79-.88a2.28 2.28 0 0 1 .1 1.78z"/><path d="m62.89 27.08c-.19.73-.54 1.13-.79.88a2.28 2.28 0 0 1 -.1-1.78c.19-.74.55-1.13.79-.88a2.28 2.28 0 0 1 .1 1.78z"/><path d="m60.91 34.68c-.19.73-.54 1.13-.79.88a2.33 2.33 0 0 1 -.1-1.78c.19-.74.55-1.13.79-.88a2.28 2.28 0 0 1 .1 1.78z"/><path d="m58.94 42.27c-.2.74-.55 1.13-.8.88a2.32 2.32 0 0 1 -.1-1.78c.2-.73.55-1.13.8-.88a2.33 2.33 0 0 1 .1 1.78z"/><path d="m57 49.87c-.19.74-.55 1.13-.79.88a2.28 2.28 0 0 1 -.1-1.78c.19-.73.54-1.13.79-.88a2.33 2.33 0 0 1 .1 1.78z"/><path d="m55 57.47c-.19.73-.55 1.13-.79.88a2.28 2.28 0 0 1 -.1-1.78c.19-.74.54-1.13.79-.88a2.28 2.28 0 0 1 .1 1.78z"/><path d="m53 65.07c-.19.73-.54 1.12-.79.88a2.35 2.35 0 0 1 -.1-1.79c.19-.73.55-1.12.79-.87a2.27 2.27 0 0 1 .1 1.78z"/><path d="m51 72.66c-.19.74-.54 1.13-.79.88a2.32 2.32 0 0 1 -.1-1.78c.2-.73.55-1.13.8-.88a2.29 2.29 0 0 1 .09 1.78z"/><path d="m49.05 80.26c-.19.73-.55 1.13-.79.88a2.24 2.24 0 0 1 -.1-1.78c.19-.74.54-1.13.79-.88a2.33 2.33 0 0 1 .1 1.78z"/><path d="m47.07 87.86c-.19.73-.55 1.13-.79.88a2.28 2.28 0 0 1 -.1-1.78c.19-.74.54-1.13.79-.88a2.28 2.28 0 0 1 .1 1.78z"/><path d="m72.05 26.76c-.19.73-.54 1.12-.79.88a2.33 2.33 0 0 1 -.1-1.78c.19-.74.55-1.13.79-.88a2.23 2.23 0 0 1 .1 1.78z"/><path d="m70.08 34.35c-.2.74-.55 1.13-.8.88a2.29 2.29 0 0 1 -.09-1.78c.19-.73.54-1.13.79-.88a2.33 2.33 0 0 1 .1 1.78z"/><path d="m68.1 42c-.19.73-.55 1.13-.79.88a2.28 2.28 0 0 1 -.1-1.78c.19-.74.54-1.13.79-.88a2.28 2.28 0 0 1 .1 1.78z"/><path d="m66.12 49.55c-.19.73-.55 1.12-.79.88a2.28 2.28 0 0 1 -.1-1.78c.19-.74.55-1.13.79-.88a2.28 2.28 0 0 1 .1 1.78z"/><path d="m64.14 57.14c-.19.74-.54 1.13-.79.88a2.32 2.32 0 0 1 -.1-1.78c.19-.73.55-1.12.79-.88a2.28 2.28 0 0 1 .1 1.78z"/><path d="m62.16 64.74c-.19.74-.54 1.13-.79.88a2.32 2.32 0 0 1 -.1-1.78c.2-.73.55-1.13.8-.88a2.29 2.29 0 0 1 .09 1.78z"/><path d="m60.19 72.34c-.19.73-.55 1.13-.79.88a2.28 2.28 0 0 1 -.1-1.78c.19-.74.54-1.13.79-.88a2.32 2.32 0 0 1 .1 1.78z"/><path d="m58.21 79.94c-.19.73-.55 1.12-.79.88a2.28 2.28 0 0 1 -.1-1.78c.19-.74.55-1.13.79-.88a2.27 2.27 0 0 1 .1 1.78z"/><path d="m56.23 87.53c-.19.74-.54 1.13-.79.88a2.28 2.28 0 0 1 -.1-1.78c.19-.73.55-1.13.79-.88a2.28 2.28 0 0 1 .1 1.78z"/><path d="m54.25 95.13c-.19.74-.54 1.13-.79.88a2.33 2.33 0 0 1 -.1-1.78c.19-.73.55-1.13.79-.88a2.28 2.28 0 0 1 .1 1.78z"/><path d="m75.85 30.6c-.19.73-.54 1.13-.79.88a2.28 2.28 0 0 1 -.06-1.78c.19-.74.55-1.13.79-.88a2.28 2.28 0 0 1 .06 1.78z"/><path d="m73.87 38.2c-.19.73-.54 1.13-.79.88a2.33 2.33 0 0 1 -.08-1.78c.2-.74.55-1.13.8-.88a2.29 2.29 0 0 1 .07 1.78z"/><path d="m71.9 45.79c-.19.74-.55 1.13-.79.88a2.23 2.23 0 0 1 -.1-1.78c.19-.73.54-1.12.79-.88a2.33 2.33 0 0 1 .1 1.78z"/><path d="m69.92 53.39c-.19.74-.55 1.13-.79.88a2.28 2.28 0 0 1 -.1-1.78c.19-.73.54-1.13.79-.88a2.28 2.28 0 0 1 .1 1.78z"/><path d="m67.94 61c-.19.73-.54 1.13-.79.88a2.28 2.28 0 0 1 -.1-1.78c.19-.74.55-1.13.79-.88a2.28 2.28 0 0 1 .1 1.78z"/><path d="m66 68.59c-.19.73-.54 1.12-.79.88a2.33 2.33 0 0 1 -.1-1.78c.19-.74.55-1.13.79-.88a2.27 2.27 0 0 1 .1 1.78z"/><path d="m64 76.18c-.2.74-.55 1.13-.8.88a2.32 2.32 0 0 1 -.1-1.78c.2-.73.55-1.13.8-.88a2.33 2.33 0 0 1 .1 1.78z"/><path d="m62 83.78c-.19.74-.55 1.13-.79.88a2.28 2.28 0 0 1 -.1-1.78c.19-.73.54-1.13.79-.88a2.33 2.33 0 0 1 .1 1.78z"/><path d="m60 91.38c-.19.73-.55 1.13-.79.88a2.28 2.28 0 0 1 -.1-1.78c.19-.74.54-1.13.79-.88a2.28 2.28 0 0 1 .1 1.78z"/><path d="m58.05 99c-.19.73-.54 1.12-.79.87a2.32 2.32 0 0 1 -.1-1.78c.19-.73.55-1.12.79-.87a2.27 2.27 0 0 1 .1 1.78z"/><path d="m61.6 16.17c-.19.74-.54 1.13-.79.88a2.27 2.27 0 0 1 -.1-1.78c.19-.73.55-1.12.79-.88a2.28 2.28 0 0 1 .1 1.78z"/><path d="m59.62 23.77c-.19.74-.54 1.13-.79.88a2.32 2.32 0 0 1 -.1-1.78c.19-.73.55-1.13.79-.88a2.28 2.28 0 0 1 .1 1.78z"/><path d="m57.65 31.37c-.2.73-.55 1.13-.8.88a2.33 2.33 0 0 1 -.1-1.78c.2-.74.55-1.13.8-.88a2.32 2.32 0 0 1 .1 1.78z"/><path d="m55.67 39c-.19.73-.55 1.12-.79.88a2.28 2.28 0 0 1 -.1-1.78c.19-.74.54-1.13.79-.88a2.32 2.32 0 0 1 .1 1.78z"/><path d="m53.69 46.56c-.19.74-.55 1.13-.79.88a2.28 2.28 0 0 1 -.1-1.78c.19-.73.54-1.13.79-.88a2.28 2.28 0 0 1 .1 1.78z"/><path d="m51.71 54.16c-.19.74-.54 1.13-.79.88a2.28 2.28 0 0 1 -.1-1.78c.19-.74.55-1.13.79-.88a2.28 2.28 0 0 1 .1 1.78z"/><path d="m49.73 61.76c-.19.73-.54 1.13-.79.88a2.33 2.33 0 0 1 -.1-1.78c.19-.74.55-1.13.8-.88a2.33 2.33 0 0 1 .09 1.78z"/><path d="m47.76 69.36c-.19.73-.55 1.12-.79.87a2.23 2.23 0 0 1 -.1-1.78c.19-.73.54-1.12.79-.87a2.32 2.32 0 0 1 .1 1.78z"/><path d="m45.78 77c-.19.74-.55 1.13-.79.88a2.28 2.28 0 0 1 -.1-1.78c.19-.73.54-1.13.79-.88a2.28 2.28 0 0 1 .1 1.78z"/><path d="m43.8 84.55c-.19.73-.54 1.13-.79.88a2.28 2.28 0 0 1 -.1-1.78c.19-.74.55-1.13.79-.88a2.28 2.28 0 0 1 .1 1.78z"/><path d="m56.26 20.37c-.19.74-.54 1.13-.79.88a2.32 2.32 0 0 1 -.1-1.78c.2-.73.55-1.13.79-.88a2.24 2.24 0 0 1 .1 1.78z"/><path d="m54.29 28c-.19.73-.55 1.13-.79.88a2.28 2.28 0 0 1 -.1-1.78c.19-.74.54-1.13.79-.88a2.32 2.32 0 0 1 .1 1.78z"/><path d="m52.31 35.57c-.19.73-.55 1.12-.79.88a2.28 2.28 0 0 1 -.1-1.78c.19-.74.54-1.13.79-.88a2.28 2.28 0 0 1 .1 1.78z"/><path d="m50.33 43.16c-.19.74-.54 1.13-.79.88a2.28 2.28 0 0 1 -.1-1.78c.19-.73.55-1.12.79-.88a2.28 2.28 0 0 1 .1 1.78z"/><path d="m48.35 50.76c-.19.74-.54 1.13-.79.88a2.33 2.33 0 0 1 -.1-1.78c.19-.73.55-1.13.79-.88a2.28 2.28 0 0 1 .1 1.78z"/><path d="m46.38 58.36c-.2.73-.55 1.13-.8.88a2.29 2.29 0 0 1 -.09-1.78c.19-.74.54-1.13.79-.88a2.32 2.32 0 0 1 .1 1.78z"/><path d="m44.4 66c-.19.73-.55 1.12-.79.87a2.27 2.27 0 0 1 -.1-1.78c.19-.73.54-1.12.79-.88a2.35 2.35 0 0 1 .1 1.79z"/><path d="m40.44 81.15c-.19.74-.54 1.13-.79.88a2.28 2.28 0 0 1 -.1-1.78c.19-.74.55-1.13.79-.88a2.28 2.28 0 0 1 .1 1.78z"/><path d="m79.71 34.51c-.19.73-.54 1.13-.79.88a2.28 2.28 0 0 1 -.1-1.78c.19-.74.55-1.13.79-.88a2.27 2.27 0 0 1 .1 1.78z"/><path d="m77.73 42.1c-.19.74-.54 1.13-.79.88a2.32 2.32 0 0 1 -.1-1.78c.19-.73.55-1.13.79-.88a2.28 2.28 0 0 1 .1 1.78z"/><path d="m75.76 49.7c-.2.74-.55 1.13-.8.88a2.29 2.29 0 0 1 -.09-1.78c.19-.73.54-1.13.79-.88a2.33 2.33 0 0 1 .1 1.78z"/><path d="m73.78 57.3c-.19.73-.55 1.13-.79.88a2.28 2.28 0 0 1 -.1-1.78c.19-.74.54-1.13.79-.88a2.32 2.32 0 0 1 .1 1.78z"/><path d="m71.8 64.9c-.19.73-.55 1.12-.79.87a2.27 2.27 0 0 1 -.1-1.78c.19-.73.55-1.12.79-.87a2.27 2.27 0 0 1 .1 1.78z"/><path d="m69.82 72.49c-.19.74-.54 1.13-.79.88a2.32 2.32 0 0 1 -.1-1.78c.19-.73.55-1.13.79-.88a2.28 2.28 0 0 1 .1 1.78z"/><path d="m67.84 80.09c-.19.73-.54 1.13-.79.88a2.33 2.33 0 0 1 -.1-1.78c.2-.74.55-1.13.8-.88a2.29 2.29 0 0 1 .09 1.78z"/><path d="m65.87 87.69c-.19.73-.55 1.13-.79.88a2.28 2.28 0 0 1 -.1-1.78c.19-.74.54-1.13.79-.88a2.32 2.32 0 0 1 .1 1.78z"/><path d="m63.89 95.28c-.19.74-.55 1.13-.79.88a2.28 2.28 0 0 1 -.1-1.78c.19-.73.54-1.12.79-.88a2.28 2.28 0 0 1 .1 1.78z"/><path d="m61.91 102.88c-.19.74-.54 1.13-.79.88a2.28 2.28 0 0 1 -.12-1.76c.19-.73.55-1.13.79-.88a2.28 2.28 0 0 1 .12 1.76z"/><path d="m78.87 52c-.19.73-.55 1.13-.8.88a2.34 2.34 0 0 1 -.07-1.76c.19-.74.54-1.13.79-.88a2.33 2.33 0 0 1 .08 1.76z"/><path d="m76.89 59.62c-.19.73-.55 1.12-.79.88a2.28 2.28 0 0 1 -.1-1.78c.19-.74.54-1.13.79-.88a2.28 2.28 0 0 1 .1 1.78z"/><path d="m74.91 67.21c-.19.74-.54 1.13-.79.88a2.28 2.28 0 0 1 -.1-1.78c.19-.73.55-1.13.79-.88a2.28 2.28 0 0 1 .1 1.78z"/><path d="m72.93 74.81c-.19.74-.54 1.13-.79.88a2.33 2.33 0 0 1 -.1-1.78c.19-.73.55-1.13.79-.88a2.28 2.28 0 0 1 .1 1.78z"/><path d="m71 82.41c-.2.73-.55 1.13-.8.88a2.29 2.29 0 0 1 -.09-1.78c.19-.74.54-1.13.79-.88a2.32 2.32 0 0 1 .1 1.78z"/><path d="m79.77 62.53c-.2.73-.55 1.13-.8.88a2.29 2.29 0 0 1 -.09-1.78c.19-.74.54-1.13.79-.88a2.32 2.32 0 0 1 .1 1.78z"/><path d="m77.79 70.13c-.19.73-.55 1.12-.79.88a2.28 2.28 0 0 1 -.1-1.78c.19-.74.54-1.13.79-.88a2.28 2.28 0 0 1 .1 1.78z"/><path d="m75.81 77.72c-.19.74-.54 1.13-.79.88a2.28 2.28 0 0 1 -.1-1.78c.19-.73.55-1.13.79-.88a2.28 2.28 0 0 1 .1 1.78z"/><path d="m45.72 28.07c-.19.73-.54 1.13-.79.88a2.28 2.28 0 0 1 -.1-1.78c.19-.74.55-1.13.79-.88a2.28 2.28 0 0 1 .1 1.78z"/><path d="m43.74 35.66c-.19.74-.54 1.13-.79.88a2.32 2.32 0 0 1 -.1-1.78c.19-.73.55-1.12.79-.88a2.28 2.28 0 0 1 .1 1.78z"/><path d="m41.76 43.26c-.19.74-.54 1.13-.79.88a2.29 2.29 0 0 1 -.09-1.78c.19-.73.54-1.13.79-.88a2.29 2.29 0 0 1 .09 1.78z"/><path d="m55.16 6.53c-.19.74-.55 1.13-.79.88a2.27 2.27 0 0 1 -.1-1.78c.19-.73.54-1.12.79-.88a2.28 2.28 0 0 1 .1 1.78z"/><path d="m51.2 21.73c-.19.73-.54 1.13-.79.88a2.33 2.33 0 0 1 -.1-1.78c.19-.74.55-1.13.79-.88a2.28 2.28 0 0 1 .1 1.78z"/><path d="m49.23 29.33c-.2.73-.55 1.12-.8.88a2.33 2.33 0 0 1 -.1-1.78c.2-.74.55-1.13.8-.88a2.32 2.32 0 0 1 .1 1.78z"/><path d="m47.25 36.92c-.19.74-.55 1.13-.79.88a2.28 2.28 0 0 1 -.1-1.78c.19-.73.54-1.13.79-.88a2.28 2.28 0 0 1 .1 1.78z"/><path d="m45.27 44.52c-.19.74-.54 1.13-.79.88a2.28 2.28 0 0 1 -.1-1.78c.19-.73.54-1.13.79-.88a2.28 2.28 0 0 1 .1 1.78z"/><path d="m43.29 52.12c-.19.73-.54 1.13-.79.88a2.33 2.33 0 0 1 -.1-1.78c.19-.74.55-1.13.79-.88a2.28 2.28 0 0 1 .1 1.78z"/><path d="m41.31 59.72c-.19.73-.54 1.12-.79.87a2.32 2.32 0 0 1 -.1-1.78c.2-.73.55-1.12.8-.87a2.28 2.28 0 0 1 .09 1.78z"/><path d="m39.34 67.31c-.19.74-.55 1.13-.79.88a2.28 2.28 0 0 1 -.1-1.78c.19-.73.54-1.13.79-.88a2.33 2.33 0 0 1 .1 1.78z"/><path d="m37.36 74.91c-.19.73-.55 1.13-.79.88a2.28 2.28 0 0 1 -.1-1.78c.19-.74.54-1.13.79-.88a2.28 2.28 0 0 1 .1 1.78z"/></g><g fill="#4d2119"><path d="m58.06 61.09a5.55 5.55 0 0 1 -5.58-5.51 1 1 0 0 1 1-1l9.08-.06a1 1 0 0 1 1 1 5.55 5.55 0 0 1 -5.5 5.57z"/><path d="m47.2 55.35a2 2 0 0 1 -2-2v-3.48a2 2 0 0 1 2-2 2 2 0 0 1 2 2v3.47a2 2 0 0 1 -2 2.01z"/><path d="m68.84 55.21a2 2 0 0 1 -2-2v-3.48a2 2 0 0 1 2-2 2 2 0 0 1 2 2v3.47a2 2 0 0 1 -2 2.01z"/></g></svg>