<svg viewBox="0 0 116 116" xmlns="http://www.w3.org/2000/svg" xmlns:xlink="http://www.w3.org/1999/xlink"><clipPath id="a"><ellipse cx="58" cy="56.62" rx="26.53" ry="50.62"/></clipPath><ellipse cx="58.91" cy="58.19" fill="#f08229" rx="51.81" ry="25.62" transform="matrix(0 -1 1 0 .66 117.03)"/><ellipse cx="57.09" cy="56.62" fill="#feaa3b" rx="25.62" ry="50.62"/><ellipse cx="57.09" cy="56.62" fill="#febb63" opacity=".25" rx="23.45" ry="46.32"/><ellipse cx="57.09" cy="56.62" fill="#febb63" opacity=".25" rx="19.46" ry="38.45"/><ellipse cx="57.09" cy="56.62" fill="#febb63" opacity=".25" rx="14.95" ry="29.53"/><ellipse cx="57.09" cy="56.62" fill="#febb63" opacity=".25" rx="11.42" ry="22.56"/><ellipse cx="57.09" cy="56.62" fill="#febb63" opacity=".25" rx="7.91" ry="15.63"/><ellipse cx="57.09" cy="56.62" fill="#febb63" opacity=".25" rx="4.61" ry="9.11"/><ellipse cx="57.09" cy="56.62" fill="#febb63" opacity=".25" rx="2.56" ry="5.06"/><g clip-path="url(#a)"><path d="m33.78 32.45c-.17.13-.34.35-.52.46-.09-.94.28-1.44-.15-2.49-.3-.73-.56-.5-.9-.78.19.84 3.77-2 4.15-2.32 1.73-1.41 3-4 4.64-5.59 2.3-2.23 4.93-3 7.28-5.08 3.58-3.11 7-6.93 10.69-9.38s7.71-4.54 11.69-5c.85-.1 2-.31 2.78.6 1.41 1.64.74 4.56-.34 6.06-2.82 4-6.55 6.24-9.7 9.07a41.11 41.11 0 0 0 -6.25 6.63 43 43 0 0 1 -9.84 9.47 35.87 35.87 0 0 0 -5.94 5.31c-1.69 2-2.74 5.16-4.31 7.43s-3.26 4.53-4.74 7.16c-.73 1.31-2.78 4.57-2.67 6.73a1.09 1.09 0 0 0 -.29-.64c1.5.31 3.1-.78 4.54-1.74a47.76 47.76 0 0 0 6.43-5.3c4.3-4.13 8.19-9.63 12.46-13.88 4.1-4.1 8.55-6.27 12.79-9.74 4.42-3.63 8.84-7.43 13.42-10.13 2.12-1.26 4.46-2.62 6.71-2.44 1.34.1 2.33 1.89 1.3 4.24-1.22 2.79-3.32 4.66-4.94 6.48a58.62 58.62 0 0 0 -5.36 6.63c-2.65 4-5.27 7.4-8.44 9.84-4.52 3.47-9 6-13.25 10.77-4.53 5.18-8.71 11.55-12.89 17.77a75.41 75.41 0 0 0 -6 9.94c-.46 1-2.41 5.06-2 6.93 0-.06-.17-.32-.24-.24.09-.11 1.53 0 1.78-.09a13.3 13.3 0 0 0 3.25-2.13 34.45 34.45 0 0 0 6.59-7.65c3.91-5.88 8.37-10.19 12.72-14.73a177.7 177.7 0 0 0 13.11-15.7c4.24-5.61 8.73-10.79 13.63-14 2.51-1.67 8.79-4.88 9.43 3.22.31 4-1.51 7.12-2.94 9.4a61 61 0 0 1 -5.87 7.7c-2.1 2.39-4.41 3.66-6.66 5.39a32.47 32.47 0 0 0 -6.34 7.2c-2.44 3.51-4.66 7.55-7.07 11.12a37.63 37.63 0 0 1 -6.91 8.05c-1.21 1-2.46 1.9-3.61 3a36.64 36.64 0 0 0 -6.58 9.64c-.67 1.32-3.23 5.94-2.68 8.27a4 4 0 0 0 -.52-1.58c.37.42 2.31-1.79 2.7-2.16 1.28-1.18 2.53-2.45 3.79-3.7a101.32 101.32 0 0 1 7.72-6.85 119.49 119.49 0 0 0 10.88-10.31c4.44-4.65 8.87-9.35 13.41-13.63 2.39-2.26 4.89-4.7 7.51-5.87 1.45-.66 3.43.26 2.46 3.9-.9 3.38-3.08 6.1-4.57 8.43s-3.05 4.63-4.6 6.88c-3.52 5.12-6.61 11.15-10.14 16.17-3.26 4.65-7.31 6.78-10.2 12.43-.67 1.3-1.17 3.76-2.12 4.33-1.1.67-2.23-1.11-2.07-3.32.14-1.89 1.13-2.64 1.88-3.57a45.89 45.89 0 0 0 3.26-4.54c1.91-3 3.43-6.85 5.36-9.84 2.45-3.77 5.27-6.43 8-9.45a112.39 112.39 0 0 0 7.88-10.38c1.91-2.71 4.15-5.49 5.58-9.17-.16.49.21 1.75.52 1.7-1.76-.25-4 2.25-5.6 3.6-2.28 2-4.51 4.2-6.71 6.49-3.36 3.5-6.66 7.2-10 10.92s-6.63 8-9.87 12.34c-3.73 5-7.9 9.58-12.36 11.62-1.68.77-4.2 1.51-5.13-2.11a11.07 11.07 0 0 1 .31-5.58c1.51-5.38 4.77-8.89 7.29-12.45 2.74-3.85 4.89-8.66 7.46-12.84 2.85-4.64 6.32-7.6 9.72-10.47 4.15-3.5 8.15-7.23 11.38-13.46a86.84 86.84 0 0 1 6-9.94c1-1.44 2-2.91 3-4.46a11.23 11.23 0 0 0 1.74-3.25c-.27 1.2.1 4.61 1 4.42-1.76-.7-3.93.83-5.55 1.88a63.73 63.73 0 0 0 -7.15 5.79 113.82 113.82 0 0 0 -13.39 13.2c-4.27 5.19-8.2 11.35-12.47 16.56a42.46 42.46 0 0 1 -6.38 6.18c-2.24 1.81-4.31 4.18-6.47 6.18-1.79 1.7-4.18 4.18-6.26 3.19s-2.6-4.86-2.39-8.43a36.74 36.74 0 0 1 5.41-16.32c7.57-13 17.83-18.18 26.06-29.42a61.33 61.33 0 0 1 6.89-8.21 22.14 22.14 0 0 1 5.74-3.76 26.54 26.54 0 0 0 6-4.35c1.75-1.63 3.86-3.22 5.27-5.88-.09.19 0 1.06.2 1.06-1.5-.94-3.63.26-5.09 1a36 36 0 0 0 -6.4 4.12 71.78 71.78 0 0 0 -11.87 11.1c-3.78 4.58-7.45 9-11.59 12.29-2.19 1.76-4.42 3.3-6.62 5-4.26 3.28-8.32 7.73-12.64 10.45-1.37.85-3.5 2-4.51-.81-1-2.62.07-6.35.83-8.67 2.1-6.36 5.9-12.54 9.65-14.87 4.35-2.69 7.79-9.27 11.63-13.78 3.64-4.28 7.74-5.9 11.53-9.54 1.77-1.7 3.53-3.44 5.26-5.26s3.93-3.68 5.31-6.46c-.47 1 0 2.93.59 3.31-3.58.9-7 2.9-10.42 5.12-4.18 2.72-8.52 4.76-12.63 7.84a51.44 51.44 0 0 0 -5.31 5.28c-1.87 1.92-3.8 2-5.75 3.37a37.83 37.83 0 0 0 -4.24 3.79c-.95.9-2.52 2.33-3.08-.47a9.12 9.12 0 0 1 1.32-5.56c1.92-2.67 3.73 3.61 1.6 5.32z" fill="#5e1100"/></g><ellipse cx="57.09" cy="56.62" fill="#febb63" opacity=".25" rx="1.21" ry="2.39"/><g fill="#802a15" opacity=".25"><path d="m36.25 61.58c1-1.61 1.53 4.33.71 5.51s-1.96-3.54-.71-5.51z"/><path d="m41.69 46.59c.65-.24 1.12 3.47.39 4.12s-1.22-3.82-.39-4.12z"/><path d="m45.22 81.76c1.15-.53 1 3.13-.6 2.84s-.74-2.23.6-2.84z"/><path d="m52.55 100c-1.27 1.25-.22 3.33.87 1.44s.35-2.61-.87-1.44z"/><path d="m45.83 96.94c.82.44 1.61-2 .42-2.66s-1.95 1.84-.42 2.66z"/><path d="m56.93 81.4c1.2-.6 2.35 3.16.41 3.73s-2.18-2.84-.41-3.73z"/><path d="m50.15 65.57c1.14 1.19 2.32-.84.79-2.29s-2.11.89-.79 2.29z"/><path d="m51.38 44.46c1.58.55 1.6 4.31-.13 2.92s.13-2.92.13-2.92z"/><path d="m39.51 37.36c1.41-1 1.31 1.28.54 2.18s-1.84-1.21-.54-2.18z"/><path d="m53.3 11.45c1.58-.43.86 4.32 0 3.88s-1.43-3.49 0-3.88z"/><path d="m47.39 27.87c.78-2.55 2.13.85 1.79 2.11s-2.96 1.69-1.79-2.11z"/><path d="m57.28 28.67c2.47-.75 2.31 3.42.3 3.9s-2.43-3.25-.3-3.9z"/><path d="m61.3 17c.83 0 1 3-.29 2.61s-.83-2.61.29-2.61z"/><path d="m64.15 49.86c.72 2.63-1.18 2.93-1.46.65s.56-3.96 1.46-.65z"/><path d="m71.24 34c1.44-.52 1.65 2.79 0 2.38s-1.24-1.9 0-2.38z"/><path d="m79.49 43.55c1.37-1 2.11 6.25-.36 6.14s-1.25-4.93.36-6.14z"/><path d="m65.26 62.48c1.4-.71 1.17 3.33-.36 4s-3.06-2.26.36-4z"/><path d="m73.44 68.41c2.08-1.16 1.43 3.24-.28 3.48s-1.61-2.42.28-3.48z"/><path d="m69.34 84.3c2.29.58 1.43 4-.52 2.94s-1.93-3.56.52-2.94z"/><path d="m65.19 96.07c.47 3.63-1.87 3.43-2.36 1s2.17-2.79 2.36-1z"/></g><g fill="#ffa08a" opacity=".25"><path d="m39.14 33c1.33 0-.19 5.27-1.2 5.17s-.42-5.23 1.2-5.17z"/><path d="m48.14 28.05c.57.61-.24 4.09-1 3.68s.25-4.48 1-3.68z"/><path d="m39.72 59.82c1.06 1-.2 3.71-1.37 1.47s.14-2.65 1.37-1.47z"/><path d="m39.64 83.13c-1.4-.61-1.23 2.32.21 2.19s1.15-1.62-.21-2.19z"/><path d="m35.38 72.4c.5 1.35 1.88.47 1.17-1.55s-2.11-.99-1.17 1.55z"/><path d="m49 74c1.12 1 .82 5.37-.87 3.42s-.84-4.88.87-3.42z"/><path d="m48.7 53.31c.5 2.34 2.07 2.22 1.34-.81s-1.92-1.92-1.34.81z"/><path d="m56.36 38.39c1 2.39-.13 5.33-1 2.12s1-2.12 1-2.12z"/><path d="m49.36 18.16c1.43.92.62 2.62-.27 2.36s-1.09-3.22.27-2.36z"/><path d="m68.32 15.05c1.38 1.62-.69 4.43-1.2 3.05s-.03-4.51 1.2-3.05z"/><path d="m58.51 20.52c1.42-1 1.39 3.31.73 3.85s-2.85-2.37-.73-3.85z"/><path d="m66 33.4c2.16 2.47.72 5.52-1 3.4s-.9-5.54 1-3.4z"/><path d="m72.82 29.24c.65 1-.17 3.6-1.06 1.68s.17-3.05 1.06-1.68z"/><path d="m64.6 58.41c-.28 2.94-1.86.82-1.35-1.3s1.69-2.39 1.35 1.3z"/><path d="m75.15 54.85c1.28 1.37.4 4.21-.74 1.87s-.41-3.1.74-1.87z"/><path d="m78.54 72.5c1.4.89-.34 7.48-2.22 4.34s.58-5.4 2.22-4.34z"/><path d="m61.45 69.62c1.31 1.17-.15 4-1.55 2.68s-1.67-5.57 1.55-2.68z"/><path d="m65.94 84.37c2 1.66.08 4.29-1.32 2.37s-.49-3.89 1.32-2.37z"/><path d="m57.7 91.67c1.6 3.28-.15 4.88-1.34 1.64s-.36-5.15 1.34-1.64z"/><path d="m50.74 95.7c-.79 3.41-2.55.36-2.16-2.16s2.54.46 2.16 2.16z"/></g><path d="m76.28 20.05c4.45 9.31 7.18 22 7.17 36 0 28.61-11.49 51.83-25.64 51.85-6.7 0-12.79-5.18-17.35-13.68 4.65 9.78 11.19 15.78 18.43 15.78 14.11 0 25.63-23.24 25.64-51.85.01-15.08-3.17-28.64-8.25-38.1z" fill="#800000" opacity=".25"/><g fill="#ffd8ae"><path d="m37 72.85c1.64-3.25 4.9-9.11 7.62-11.13s4.81-7.1 6.7-7.48-1.5 5.76-4.47 8.44-6.66 12.47-8.85 12.67-1.65-1.25-1-2.5z" opacity=".15"/><path d="m61.32 44.55c1.53-1.72 4.47-8 7-9.88s7.48-5.37 8.3-4.42-3.15 7.3-6.07 9.41-13.07 9.21-9.23 4.89z" opacity=".25"/><path d="m47.48 47.33c2.15-1.26 5-6.2 6.31-7.55a32.75 32.75 0 0 1 5.08-3.71c1.62-1 5.64-5.11 6.19-4.66s-2.2 3.71-4.34 5.5a43.28 43.28 0 0 0 -6 5.56c-2.1 2.53-5.66 7.36-8.57 7.53s-.97-1.33 1.33-2.67z" opacity=".25"/><path d="m35.53 42.82c-1.66 1-2.92 3.65-2.92 6.24s.83-.58 2.77-3 2.04-4.39.15-3.24z" opacity=".25"/><path d="m47.38 30.45c1.45-1.8 1.84-4.32 4.13-5.28s3.87-4 5.44-4.32 3.17-4.64 4.35-3.9-2.56 4.67-4.74 6.49-3.4 3.83-5.39 5.18-6.27 4.9-3.79 1.83z" opacity=".25"/><path d="m46.31 81.77a28 28 0 0 1 7.38-9.88c2.92-2.68 4.91-6.52 6.46-7.77s-3 7.2-6.6 10.55-9.02 11.42-7.24 7.1z" opacity=".25"/><path d="m72.39 51a25.67 25.67 0 0 1 7.29-8.54c2.67-2 3.44 1.05 2.08 2.11s-5.05 3.93-6.6 5.37-3.69 2.96-2.77 1.06z" opacity=".25"/><path d="m59 81c1.68-2.79 2.57-4.23 5.44-6.24s3.4-4.8 4.51-4.8-2.47 6.62-6.26 9.5-5.5 4.54-3.69 1.54z" opacity=".25"/><path d="m53.76 102.72c-.22-1.21 2-3.71 5.31-6s6.8-8.12 8.12-7.8-2.33 3.77-6 8.12-6.91 8.56-7.43 5.68z" opacity=".25"/></g><path d="m74.58 19.62c4.27 9 6.89 21.18 6.89 34.53 0 28-11.47 50.62-25.63 50.62-6.75 0-12.9-5.17-17.48-13.61 4.68 9.89 11.34 16.08 18.73 16.08 14.15 0 25.63-22.67 25.63-50.62 0-14.62-3.14-27.76-8.14-37z" fill="#380000" opacity=".25"/><path d="m32.6 59.08c0-27.95 11.47-50.62 25.63-50.62 7.21 0 13.73 5.9 18.38 15.37-4.7-10.91-11.7-17.83-19.52-17.83-14.15 0-25.62 22.66-25.62 50.62 0 13.7 2.76 26.13 7.24 35.25-3.81-8.87-6.11-20.28-6.11-32.79z" fill="#380000" opacity=".25"/></svg>