<svg viewBox="0 0 116 116" xmlns="http://www.w3.org/2000/svg"><path d="m99.91 51.71c1.33 2.49 2 6.79 0 11.77s-12.32 16.18-21.17 26.61c-7.74 9.08-10.11 12.91-12.28 15.71l-1 1.16c-2.54 2.89-4.48 2.56-8 3s-5.8-2.08-7.52-4.85-10.42-12.73-13.54-16.11-8.95-10.9-10.92-13.28c-1.82-2.2-5.29-5.72-7.32-8.13l-.47-.59a13.56 13.56 0 0 1 -2.81-7.49c-.29-3 1.29-7.27 2.11-8.79s12-15.1 18.62-22.58 10.71-12.35 14.65-17.54 6.31-4.76 9.89-4.41 6.59 5.28 8.85 8.31 9.46 11.07 12 13.93 10.49 12.33 12.61 15.49 4.97 5.29 6.3 7.79z" fill="#d99339"/><path d="m93.61 43.92c-2.12-3.16-10-12.64-12.54-15.49s-9.74-10.91-12.07-13.93-5-7.58-8.42-8.25l-.43-.06c-3.58-.35-5.94-.78-9.89 4.41s-8 10-14.65 17.53-17.8 21.07-18.61 22.58-2.4 5.76-2.11 8.79a13.56 13.56 0 0 0 2.8 7.5l.47.56c2 2.41 5.5 5.93 7.32 8.13 1.47 1.78 5.09 6.39 8.13 10 1 1.24 2 2.38 2.79 3.24 3.12 3.45 11.86 13.41 13.6 16.17s4 5.28 7.52 4.85 5.45-.1 8-3l1-1.16c2.11-2.79 4.48-6.62 12.22-15.7 8.85-10.43 19.2-21.64 21.17-26.61s1.33-9.28 0-11.77-4.19-4.63-6.3-7.79zm.53 6.27a12.88 12.88 0 0 1 0 15.82l-29.45 35.59a8.19 8.19 0 0 1 -13.1 0l-29.46-35.6a12.91 12.91 0 0 1 0-15.82l29.46-35.57a8.17 8.17 0 0 1 13.09 0z" fill="#c9681a"/><g fill="#7f2501" opacity=".75"><path d="m43.42 66.62c2.75 2.66 3.08-3.46 3-5.27-1.23.65-5.15 3.17-3 5.27z" opacity=".25"/><path d="m71.92 66.24a15.64 15.64 0 0 0 -1.31-3.46c-.83 1.36-3.22 5.83-.4 6.4 1.79.36 2.1-1.28 1.71-2.94z" opacity=".25"/><path d="m57 82.85c.78-1.25 3.16-5.49.65-6.35-1.33-.45-2.19.41-2.1 2a37 37 0 0 0 1.45 4.35z" opacity=".25"/><path d="m77.76 34.53c-.15-1.86-2.27-3-3.2-1s1.89 4.46 2.75 5.28a13.83 13.83 0 0 0 .45-4.28z" opacity=".25"/><path d="m47.44 46.05c2.71 3.17 3.28-3.2 3.3-5-1.21.57-5.17 2.81-3.3 5z" opacity=".25"/><path d="m33.8 56c2.92 0 .55-5.23-.06-6.44-.96 1.55-3.3 6.44.06 6.44z" opacity=".25"/><path d="m59 57.11c-1.1-.87-4.75-3.43-5.29-.37-.34 1.87.68 2.71 2.06 2.33a9.41 9.41 0 0 0 3.23-2z" opacity=".25"/><path d="m67.66 80.15c-1.47.71-5.68 3.64-2.65 5.53.81.51 1.37.32 1.89-.55s.8-5.01.76-4.98z" opacity=".25"/><path d="m47.15 78.11c-.82 1.28-3.19 5.52-.65 6.36 1.5.5 2.25-.66 2-2.32-.05-.71-1.4-3.96-1.35-4.04z" opacity=".25"/><path d="m67.44 44.67a13 13 0 0 0 -1.44-4.4c-.78 1.28-3.15 5.51-.64 6.36 1.27.44 2.23-.39 2.08-1.96z" opacity=".25"/><path d="m62.14 66.31c-.94-.74-3.35-2.62-4.68-1.59a2.74 2.74 0 0 0 -.55 2.66 1.26 1.26 0 0 0 1.19 1c.9.13 3.97-2.12 4.04-2.07z" opacity=".25"/><path d="m58.27 32.68c1.44-.35 5.51-1.76 3.86-4.4-.57-.93-1.39-1.32-2.18-.58s-1.52 4.94-1.68 4.98z" opacity=".25"/><path d="m41.84 38.11a1.66 1.66 0 0 0 2.78-.48c.54-1.57-.85-4.33-1.41-5.46-.61 1-2.71 4.47-1.37 5.94z" opacity=".25"/><path d="m74.88 52.11a10 10 0 0 0 3.27 0 7.3 7.3 0 0 0 -.8-1.52c-.91-1.62-2.93-3.91-4-1.27-.67 1.68.24 2.52 1.53 2.79z" opacity=".25"/><path d="m86.48 57.23c-1.22-1.36-4.11 1.06-4.91 1.73.93.73 3.79 3 5 1.29a3 3 0 0 0 -.09-3.02z" opacity=".25"/><path d="m36.42 74.58c1 0 2-1.71 1.6-2.84-.6-1.62-3.57-1.88-4.61-2 .39 1.42 1.37 4.89 3.01 4.84z" opacity=".25"/></g><path d="m46.84 61.15s-5.66 2.91-2.71 5.29 2.71-5.29 2.71-5.29z" fill="#ffce8f"/><path d="m46.84 61.15h-.05c0 1.4-.14 7.07-2.72 5a2.17 2.17 0 0 1 -.78-1.06 2 2 0 0 0 .84 1.34c2.94 2.39 2.71-5.28 2.71-5.28z" fill="#f7be7f"/><path d="m46.76 63.45c-.24 2-.87 4.29-2.59 2.9s0-3.35 1.39-4.41c-1.46 1-3.43 2.89-1.43 4.5 1.87 1.49 2.43-.95 2.63-2.99z" fill="#e8a75f"/><path d="m46.46 61.87a6.26 6.26 0 0 0 -2.26 2.13c-.45 1.13.7 2 1.39 1.57s.87-3.7.87-3.7z" fill="#fff" opacity=".25"/><path d="m46.28 62.24a3 3 0 0 0 -1.09 1c-.21.54.34 1 .67.75s.42-1.75.42-1.75z" fill="#fff" opacity=".25"/><path d="m70.19 62.53s-3.71 5.92-.18 6.22.18-6.22.18-6.22z" fill="#ffce8f"/><path d="m70.19 62.53v.06c.58 1.21 2.8 6.21-.31 6a1.66 1.66 0 0 1 -1.11-.46 1.55 1.55 0 0 0 1.28.67c3.49.2.14-6.27.14-6.27z" fill="#f7be7f"/><path d="m71.06 64.57c.61 1.87 1 4.24-1 4.07-2.23-.19-1.41-2.88-.61-4.66-.85 1.77-1.79 4.57.61 4.77 2.15.18 1.67-2.29 1-4.18z" fill="#e8a75f"/><path d="m70.16 63.38a7.91 7.91 0 0 0 -1.08 3.23 1 1 0 0 0 1.85.52c.42-.8-.77-3.75-.77-3.75z" fill="#fff" opacity=".25"/><path d="m70.15 63.81a3.84 3.84 0 0 0 -.52 1.55.47.47 0 0 0 .89.25c.2-.38-.37-1.8-.37-1.8z" fill="#fff" opacity=".25"/><path d="m57 81.94s3.74-5.9.21-6.22-.21 6.22-.21 6.22z" fill="#ffce8f"/><path d="m57 81.94v-.06c-.58-1.22-2.76-6.23.34-5.95a1.71 1.71 0 0 1 1.11.46 1.58 1.58 0 0 0 -1.28-.67c-3.52-.32-.17 6.22-.17 6.22z" fill="#f7be7f"/><path d="m56.11 79.88c-.61-1.86-1-4.24 1.07-4 2.23.2 1.39 2.89.58 4.66.86-1.76 1.82-4.55-.58-4.77-2.18-.25-1.73 2.23-1.07 4.11z" fill="#e8a75f"/><path d="m57 81.08a8 8 0 0 0 1.09-3.22 1 1 0 0 0 -1.85-.53c-.41.8.76 3.75.76 3.75z" fill="#fff" opacity=".25"/><path d="m57 80.66a3.84 3.84 0 0 0 .52-1.55.47.47 0 0 0 -.89-.26c-.18.38.37 1.81.37 1.81z" fill="#fff" opacity=".25"/><path d="m76.66 39.34s1.76-7.11-1.63-5.9 1.63 5.9 1.63 5.9z" fill="#ffce8f"/><path d="m76.66 39.34v-.07c-.9-.89-4.42-4.63-1.44-5.7a1.57 1.57 0 0 1 1.18 0 1.42 1.42 0 0 0 -1.4-.13c-3.37 1.22 1.66 5.9 1.66 5.9z" fill="#f7be7f"/><path d="m75.25 37.8c-1.12-1.49-2.17-3.55-.2-4.26 2.15-.77 2.16 2.11 1.93 4.11.28-2 .35-5-2-4.21-2.07.76-.91 2.88.27 4.36z" fill="#e8a75f"/><path d="m76.44 38.53a8.48 8.48 0 0 0 .07-3.48c-.43-1.14-1.72-.63-1.88.3s1.81 3.18 1.81 3.18z" fill="#fff" opacity=".25"/><path d="m76.33 38.13a4.26 4.26 0 0 0 0-1.68c-.21-.54-.83-.3-.91.15s.91 1.53.91 1.53z" fill="#fff" opacity=".25"/><path d="m51 41.51s-5.73 2.69-2.85 5.18 2.85-5.18 2.85-5.18z" fill="#ffce8f"/><path d="m51 41.51c0 1.4-.33 7.06-2.85 4.87a2.17 2.17 0 0 1 -.75-1.09 2 2 0 0 0 .8 1.37c2.8 2.52 2.8-5.15 2.8-5.15z" fill="#f7be7f"/><path d="m50.83 43.81c-.29 2-1 4.24-2.66 2.79s0-3.34 1.5-4.35c-1.49 1-3.51 2.75-1.55 4.44 1.79 1.56 2.46-.85 2.71-2.88z" fill="#e8a75f"/><path d="m50.57 42.22a6 6 0 0 0 -2.31 2.07c-.48 1.11.64 2 1.35 1.61s.96-3.68.96-3.68z" fill="#fff" opacity=".25"/><path d="m50.38 42.58a2.88 2.88 0 0 0 -1.11 1c-.23.54.31 1 .65.78s.46-1.78.46-1.78z" fill="#fff" opacity=".25"/><path d="m34.55 49.72s-3.71 5.93-.18 6.22.18-6.22.18-6.22z" fill="#ffce8f"/><path d="m34.55 49.72v.06c.58 1.22 2.8 6.21-.31 6a1.71 1.71 0 0 1 -1.11-.46 1.55 1.55 0 0 0 1.28.66c3.49.26.14-6.26.14-6.26z" fill="#f7be7f"/><path d="m35.42 51.77c.62 1.86 1 4.24-1.05 4.07-2.23-.19-1.41-2.89-.61-4.67-.85 1.78-1.79 4.57.61 4.77 2.21.19 1.72-2.29 1.05-4.17z" fill="#e8a75f"/><path d="m34.52 50.58a7.91 7.91 0 0 0 -1.08 3.23 1 1 0 0 0 1.86.52c.41-.8-.78-3.75-.78-3.75z" fill="#fff" opacity=".25"/><path d="m34.51 51a3.91 3.91 0 0 0 -.51 1.56.47.47 0 0 0 .89.25c.2-.39-.38-1.81-.38-1.81z" fill="#fff" opacity=".25"/><path d="m59 57.05s-5.13-4.1-5.15.18 5.15-.18 5.15-.18z" fill="#ffce8f"/><path d="m59 57.05h-.05c-1 .78-5 3.76-4.94 0a2.61 2.61 0 0 1 .31-1.38 2.21 2.21 0 0 0 -.47 1.59c-.06 4.24 5.15-.21 5.15-.21z" fill="#f7be7f"/><path d="m57.32 58.23c-1.5.86-3.43 1.49-3.42-1 0-2.71 2.29-1.89 3.81-1-1.52-.92-3.89-1.87-3.9 1-.01 2.67 2 1.93 3.51 1z" fill="#e8a75f"/><path d="m58.25 57.07s-1.71-1.26-2.74-1.07-1 1.81-.31 2.26 3.05-1.19 3.05-1.19z" fill="#fff" opacity=".25"/><path d="m57.9 57.08s-.82-.6-1.32-.52-.48.87-.15 1.09 1.47-.57 1.47-.57z" fill="#fff" opacity=".25"/><path d="m67.37 79.3s-5.73 2.7-2.85 5.18 2.85-5.18 2.85-5.18z" fill="#ffce8f"/><path d="m67.37 79.3h-.05c0 1.41-.32 7.06-2.85 4.88a2.31 2.31 0 0 1 -.75-1.1 2 2 0 0 0 .8 1.38c2.88 2.54 2.85-5.16 2.85-5.16z" fill="#f7be7f"/><path d="m67.23 81.59c-.29 2-1 4.25-2.66 2.8s.05-3.39 1.51-4.39c-1.5 1-3.51 2.76-1.56 4.45 1.8 1.55 2.48-.83 2.71-2.86z" fill="#e8a75f"/><path d="m67 80a6.09 6.09 0 0 0 -2.32 2.07c-.48 1.11.65 2 1.35 1.62s.97-3.69.97-3.69z" fill="#fff" opacity=".25"/><path d="m66.79 80.36a2.94 2.94 0 0 0 -1.12 1c-.23.53.31 1 .65.78s.47-1.78.47-1.78z" fill="#fff" opacity=".25"/><path d="m47.51 77.35s-3.76 5.88-.23 6.22.23-6.22.23-6.22z" fill="#ffce8f"/><path d="m47.51 77.35v.06c.57 1.22 2.74 6.25-.36 6a1.71 1.71 0 0 1 -1.15-.52 1.56 1.56 0 0 0 1.28.68c3.52.34.23-6.22.23-6.22z" fill="#f7be7f"/><path d="m48.36 79.41c.6 1.87 1 4.25-1.08 4-2.23-.21-1.39-2.89-.57-4.67-.87 1.77-1.83 4.55.57 4.78 2.2.26 1.72-2.22 1.08-4.11z" fill="#e8a75f"/><path d="m47.47 78.21a7.92 7.92 0 0 0 -1.1 3.22 1 1 0 0 0 1.85.54c.42-.8-.75-3.76-.75-3.76z" fill="#fff" opacity=".25"/><path d="m47.46 78.63a3.8 3.8 0 0 0 -.53 1.55.47.47 0 0 0 .89.26c.18-.38-.36-1.81-.36-1.81z" fill="#fff" opacity=".25"/><path d="m65.7 40.78s-3.7 5.92-.17 6.22.17-6.22.17-6.22z" fill="#ffce8f"/><path d="m65.7 40.78v.06c.58 1.21 2.79 6.21-.31 5.95a1.66 1.66 0 0 1 -1.11-.46 1.55 1.55 0 0 0 1.28.67c3.5.29.14-6.22.14-6.22z" fill="#f7be7f"/><path d="m66.58 42.82c.61 1.87 1 4.24-1 4.07-2.23-.19-1.41-2.88-.61-4.66-.85 1.77-1.79 4.57.61 4.77 2.15.18 1.67-2.29 1-4.18z" fill="#e8a75f"/><path d="m65.67 41.63a7.94 7.94 0 0 0 -1.07 3.23 1 1 0 0 0 1.85.52c.42-.8-.78-3.75-.78-3.75z" fill="#fff" opacity=".25"/><path d="m65.67 42.06a3.84 3.84 0 0 0 -.52 1.55.47.47 0 0 0 .89.25c.2-.38-.37-1.8-.37-1.8z" fill="#fff" opacity=".25"/><path d="m62 66s-5.13-4.09-5.15.18 5.15-.18 5.15-.18z" fill="#ffce8f"/><path d="m62 66c-1 .78-5 3.76-4.94 0a2.64 2.64 0 0 1 .31-1.37 2.21 2.21 0 0 0 -.47 1.58c-.07 4.19 5.1-.21 5.1-.21z" fill="#f7be7f"/><path d="m60.37 67.13c-1.5.86-3.44 1.49-3.43-1 0-2.71 2.29-1.89 3.82-1-1.52-.92-3.89-1.87-3.91 1-.01 2.67 2 1.93 3.52 1z" fill="#e8a75f"/><path d="m61.3 66s-1.72-1.25-2.74-1.09-1 1.81-.31 2.26 3.05-1.17 3.05-1.17z" fill="#fff" opacity=".25"/><path d="m60.94 66s-.82-.61-1.31-.53-.49.87-.15 1.09 1.46-.56 1.46-.56z" fill="#fff" opacity=".25"/><path d="m58.25 33.43s6-1.45 3.55-4.5-3.55 4.5-3.55 4.5z" fill="#ffce8f"/><path d="m58.25 33.43h.06c.23-1.38 1.33-6.89 3.5-4.21a2.45 2.45 0 0 1 .59 1.24 2.17 2.17 0 0 0 -.6-1.52c-2.47-3.07-3.55 4.49-3.55 4.49z" fill="#f7be7f"/><path d="m58.72 31.2c.57-1.88 1.58-4 3-2.2 1.57 1.94-.53 3.29-2.1 4 1.61-.65 3.85-2 2.16-4-1.52-2-2.52.26-3.06 2.2z" fill="#e8a75f"/><path d="m58.75 32.82a5.51 5.51 0 0 0 2.57-1.56c.64-1-.34-2.13-1.1-1.87s-1.47 3.43-1.47 3.43z" fill="#fff" opacity=".25"/><path d="m59 32.51a2.7 2.7 0 0 0 1.24-.75c.31-.48-.16-1-.52-.9s-.72 1.65-.72 1.65z" fill="#fff" opacity=".25"/><path d="m43.7 33s-3.71 5.92-.18 6.22.18-6.22.18-6.22z" fill="#ffce8f"/><path d="m43.7 33c.58 1.22 2.8 6.22-.3 6a1.66 1.66 0 0 1 -1.12-.46 1.55 1.55 0 0 0 1.28.67c3.49.25.14-6.21.14-6.21z" fill="#f7be7f"/><path d="m44.57 35c.62 1.87 1 4.24-1 4.07-2.23-.19-1.41-2.88-.61-4.66-.85 1.77-1.79 4.57.61 4.77 2.16.17 1.68-2.3 1-4.18z" fill="#e8a75f"/><path d="m43.67 33.8a7.94 7.94 0 0 0 -1.07 3.2 1 1 0 0 0 1.85.52c.41-.77-.78-3.72-.78-3.72z" fill="#fff" opacity=".25"/><path d="m43.66 34.23a3.84 3.84 0 0 0 -.52 1.55.48.48 0 0 0 .86.22c.24-.35-.34-1.77-.34-1.77z" fill="#fff" opacity=".25"/><path d="m77.47 52.23s-2.92-6.53-4.61-2.77 4.61 2.77 4.61 2.77z" fill="#ffce8f"/><path d="m77.47 52.23v-.06c-1.16.14-5.84.49-4.36-2.81a2.1 2.1 0 0 1 .81-1c-.37.1-.72.44-1 1.13-1.75 3.73 4.55 2.74 4.55 2.74z" fill="#f7be7f"/><path d="m75.56 52.35c-1.65-.1-3.6-.65-2.62-2.84 1.07-2.38 2.75-.36 3.76 1.26-1-1.67-2.7-3.86-3.84-1.31-1.05 2.35 1.01 2.84 2.7 2.89z" fill="#e8a75f"/><path d="m76.84 51.84s-1-2.07-2-2.51-1.59 1-1.16 1.82 3.16.69 3.16.69z" fill="#fff" opacity=".25"/><path d="m76.52 51.66s-.49-1-1-1.21-.76.49-.55.87 1.55.34 1.55.34z" fill="#fff" opacity=".25"/><path d="m80.78 58.84s5.12 4.11 5.14-.16-5.14.16-5.14.16z" fill="#ffce8f"/><path d="m80.78 58.84c1-.77 5-3.75 4.93 0a2.6 2.6 0 0 1 -.3 1.37 2.25 2.25 0 0 0 .46-1.58c.13-4.23-5.09.21-5.09.21z" fill="#f7be7f"/><path d="m82.41 57.66c1.51-.85 3.44-1.47 3.43 1 0 2.71-2.3 1.88-3.82 1 1.52.92 3.89 1.88 3.9-1 .02-2.66-1.99-1.92-3.51-1z" fill="#e8a75f"/><path d="m81.48 58.83s1.71 1.25 2.74 1.09 1-1.81.31-2.26-3.05 1.17-3.05 1.17z" fill="#fff" opacity=".25"/><path d="m81.84 58.81s.82.61 1.31.53.48-.87.15-1.09-1.46.56-1.46.56z" fill="#fff" opacity=".25"/><path d="m34.23 69.29s1.85 7.08 4.09 3.77-4.09-3.77-4.09-3.77z" fill="#ffce8f"/><path d="m34.23 69.29v.07c1.15.13 5.81.84 3.84 3.74a2 2 0 0 1 -1 .84c.37 0 .77-.27 1.18-.88 2.31-3.31-4.02-3.77-4.02-3.77z" fill="#f7be7f"/><path d="m36.11 69.61c1.62.47 3.45 1.46 2.14 3.38-1.42 2.1-2.76-.27-3.5-2.09.71 1.86 2 4.41 3.57 2.16 1.4-2.06-.55-3.06-2.21-3.45z" fill="#e8a75f"/><path d="m34.79 69.81s.67 2.27 1.56 2.93 1.72-.65 1.42-1.53-2.98-1.4-2.98-1.4z" fill="#fff" opacity=".25"/><path d="m35.07 70.07a3.62 3.62 0 0 0 .75 1.4c.43.32.83-.31.68-.73s-1.43-.67-1.43-.67z" fill="#fff" opacity=".25"/><g fill="#ffcfad" opacity=".2"><path d="m42.06 83.9c.07-1.87 3.1.07 3 1.5s-3.06.78-3-1.5z"/><path d="m39.43 71.44c.38-.83 2.41.18 2.14 1.29s-2.63-.22-2.14-1.29z"/><path d="m57.88 82.14c.63-1.53 2.18.15.83 1.87s-1.56-.1-.83-1.87z"/><path d="m71.61 81.44c-.4 2 1.33 1.64 1.29-.38s-.9-1.51-1.29.38z"/><path d="m65.16 87.79c.81-.74.33-2.65-.88-1.58s-.65 2.99.88 1.58z"/><path d="m66.55 68.67c.63-1.62 3.19-1.35 2 1.09s-2.94 1.3-2-1.09z"/><path d="m54.33 69.75c1.39-.78 1.37-3-.43-1.85s-1.19 2.77.43 1.85z"/><path d="m45.78 59.53c1.44-1.57 3.14 0 1.22 1.36s-1.22-1.36-1.22-1.36z"/><path d="m33.65 70.06c.59-2 1.56-1 1.38.3s-1.93 1.64-1.38-.3z"/><path d="m32.41 43.54c1-2 2.59.82 1.76 1.59s-2.66.19-1.76-1.59z"/><path d="m35.33 57.13c-.56-2 2-2.07 2.29-1.15s-1.47 4.07-2.29 1.15z"/><path d="m43.14 46.21c1.53-3.12 3.28-1.19 2 1.3s-3.31 1.39-2-1.3z"/><path d="m40.91 36.73c.61-.95 2.12.11 1 1.42s-1.83-.15-1-1.42z"/><path d="m57.84 47.25c1.72.29.42 2.58-.81 1.94s-1.36-2.29.81-1.94z"/><path d="m56.07 32.56c.85-1.85 2.49-.71 1.08 1s-1.84.66-1.08-1z"/><path d="m66.57 27.17c.57-2 4.39.22 2.49 3s-3.16-.66-2.49-3z"/><path d="m64.34 51.28c.73-1.89 2.38.06 1.53 2.08s-3.33 2.54-1.53-2.08z"/><path d="m73.16 44.46c1-2.86 2.54-.27 1.36 1.76s-2.31.83-1.36-1.76z"/><path d="m77.21 55.77c2-2.36 2.87 0 .92 1.82s-3.05.7-.92-1.82z"/><path d="m79.36 65.41c2 1 .13 3.56-1.34 3.1s.36-3.59 1.34-3.1z"/></g><path d="m27.42 56.26c-3.88 10.67 10.31 25.29 20 22.37s22.1 3.94 22.4-5.44-1.9-8.81 3-23.73-13.97-35.46-19.38-25.6-.9 19-10.3 22.35-13.52 4.01-15.72 10.05z" fill="#ffd8ae" opacity=".1"/><g fill="#753226"><path d="m59.48 73.27a10.24 10.24 0 0 1 -10.31-10.17 1.85 1.85 0 0 1 1.83-1.87l16.78-.11a1.85 1.85 0 0 1 1.87 1.88 10.24 10.24 0 0 1 -10.17 10.27z"/><path d="m39.42 62.67a3.71 3.71 0 0 1 -3.72-3.67v-6.42a3.7 3.7 0 0 1 3.67-3.72 3.72 3.72 0 0 1 3.73 3.68v6.41a3.72 3.72 0 0 1 -3.68 3.72z"/><path d="m79.39 62.41a3.71 3.71 0 0 1 -3.72-3.68v-6.41a3.7 3.7 0 0 1 3.67-3.73 3.72 3.72 0 0 1 3.66 3.68v6.41a3.72 3.72 0 0 1 -3.61 3.73z"/></g></svg>