<svg viewBox="0 0 116 116" xmlns="http://www.w3.org/2000/svg"><path d="m110 58a52 52 0 1 1 -52-52 52 52 0 0 1 52 52z" fill="#efbc62"/><path d="m58 6a51.93 51.93 0 0 0 -43.69 23.82 17.42 17.42 0 0 0 2.13-1.74l3-3 .79-.77.43-.41.28-.2q.57-.42 1.23-1l.67-.57.35-.31.5-.32 2.18-1.44a42.86 42.86 0 0 1 12.38-5.06 42.4 42.4 0 0 1 17.64-.34c.8.17 1.63.28 2.44.48l2.44.73 1.25.36c.41.14.8.33 1.21.49l2.46 1c.83.34 1.59.84 2.4 1.24a18.48 18.48 0 0 1 2.41 1.35 40 40 0 0 1 4.61 3.32l1.13.92.57.46.15.12-.41-.44.08.09.34.34 2.72 2.79a1.66 1.66 0 0 1 .23.28l.16.21.33.44c.22.28.45.56.7.84s.24.27.36.43l.38.59.78 1.18a33.44 33.44 0 0 1 4.42 10.72 33.88 33.88 0 0 1 -3.84 24.3c-.55.94-1.21 1.82-1.79 2.75s-1.4 1.71-2.07 2.6l-.26.33-.13.16-.07.08c-.11.12.74-.69.33-.3l-.79.77-1.58 1.54a3.87 3.87 0 0 1 -.6.5l-.48.37c-.34.25-.57.52-1 .8a27.53 27.53 0 0 1 -11.58 4.71 28.62 28.62 0 0 1 -12.74-1.21c-.51-.18-1-.41-1.5-.61a11.13 11.13 0 0 1 -1.5-.65 25.6 25.6 0 0 1 -2.84-1.61l-1.38-.9c-.44-.34-.84-.71-1.27-1l-.65-.52-.31-.3c.11.13-.38-.38.24.27l-.1-.1-.19-.19-1.53-1.57c-.1-.12-.29-.3-.33-.36l-.18-.24-.36-.46-.39-.45c-.13-.16-.27-.41-.41-.61-.26-.43-.57-.83-.83-1.27l-.71-1.34a21.32 21.32 0 0 1 -.38-17.8 21 21 0 0 1 3.17-5.19l.48-.59.24-.3-.18.17.09-.08.18-.18c.48-.46 1-1 1.43-1.38a7.6 7.6 0 0 0 .83-.67c.3-.24.76-.49 1.12-.75a16.6 16.6 0 0 1 10.56-2.45 17.13 17.13 0 0 1 9.72 4.27l.13.1c.07.06-.36-.38-.14-.15l.08.08.31.32.62.64.3.31.14.18.28.36a6.85 6.85 0 0 1 .64.9 7.09 7.09 0 0 1 .6 1 13.2 13.2 0 0 1 1.39 4.48 13.57 13.57 0 0 1 -1.92 8.74l-.61.91-.69.85-.17.21s0 0 .11-.1l-.11.11-.52.51c-.16.15-.4.4-.48.45l-.29.22-.28.24-.4.26a4.85 4.85 0 0 1 -.81.49 9.25 9.25 0 0 1 -1.72.73 10.55 10.55 0 0 1 -6.9-.15 10.75 10.75 0 0 1 -2.79-1.54 9.56 9.56 0 0 1 -1.94-2 8 8 0 0 1 -1.48-4.29 8.35 8.35 0 0 1 .6-3.44 8.46 8.46 0 0 1 1.58-2.5 3.55 3.55 0 1 0 -5-5l-1 1a15.94 15.94 0 0 0 -2.3 3.41 16.12 16.12 0 0 0 .52 15.28 17.5 17.5 0 0 0 3.44 4.15 19.21 19.21 0 0 0 4.82 3.18 19.83 19.83 0 0 0 12.89 1.29 18.54 18.54 0 0 0 3.44-1.15 12.47 12.47 0 0 0 1.68-.83l.82-.46c.29-.18.59-.4.88-.6l.88-.64c.31-.22.4-.33.62-.5l.56-.47.14-.12.26-.24.08-.09.33-.33 1.3-1.38c.39-.5.78-1 1.18-1.51a24.44 24.44 0 0 0 4.65-15.45 24.71 24.71 0 0 0 -1.94-8.6 16.35 16.35 0 0 0 -1-2.07 18.59 18.59 0 0 0 -1.25-2.08l-.77-1.08-.39-.52-.29-.36-.55-.68-.29-.35-.07-.08c.17.17-.3-.33-.29-.32l-.2-.19a31.13 31.13 0 0 0 -7.35-5.58 29.5 29.5 0 0 0 -9-3.16 30.68 30.68 0 0 0 -19.71 3c-.77.44-1.52.8-2.32 1.33s-1.67 1.14-2.47 1.75l-1.6 1.33-.2.16-.09.09c-.16.14.21-.21-.38.34l-.44.46-.89.92a36.42 36.42 0 0 0 -6.08 8.42 38 38 0 0 0 -4.2 20.89 38.57 38.57 0 0 0 2.58 10.78l1.13 2.59c.41.85.89 1.67 1.34 2.5.25.42.45.82.73 1.25l.9 1.31.9 1.35.48.64c.17.24.25.31.37.47l1.41 1.68.18.21.09.1.44.46.49.47 1 .95c.67.63 1.32 1.28 2 1.88l2.17 1.71a46.83 46.83 0 0 0 4.6 3.1 26.3 26.3 0 0 0 2.43 1.33c.83.41 1.66.84 2.51 1.22a48.79 48.79 0 0 0 22.06 3.78 48.94 48.94 0 0 0 21.63-6.9c.85-.5 1.76-1.17 2.63-1.77l1.3-.94a13.68 13.68 0 0 0 1.13-.87l1.69-1.42.84-.71c-.33.33.58-.54.53-.49l.12-.12.24-.25.48-.49c1.24-1.33 2.57-2.59 3.72-4s2.29-2.86 3.34-4.36a56.11 56.11 0 0 0 6.12-11.4 52 52 0 0 0 -51-62.28z" fill="#e26d1e"/><path d="m58 6a52 52 0 1 0 52 52 52 52 0 0 0 -52-52zm0 98.4a46.4 46.4 0 1 1 46.4-46.4 46.39 46.39 0 0 1 -46.4 46.4z" fill="#efbc62" opacity=".4"/><path d="m96 58a38 38 0 1 1 -38-38 38 38 0 0 1 38 38z" fill="#efbc62" opacity=".2"/><path d="m40.78 56.93c0 1.25-1.74 2.27-3.89 2.27s-3.9-1-3.9-2.27 1.75-2.27 3.9-2.27 3.89 1.01 3.89 2.27z" fill="#eda2b0"/><path d="m83 56.69c0 1.25-1.75 2.27-3.9 2.27s-3.89-1-3.89-2.27 1.74-2.27 3.89-2.27 3.9 1.01 3.9 2.27z" fill="#eda2b0"/><g fill="#753226"><path d="m58 66.84a9.59 9.59 0 0 1 -9.64-9.51 1.73 1.73 0 0 1 1.73-1.74l15.68-.1a1.72 1.72 0 0 1 1.74 1.72 9.57 9.57 0 0 1 -9.51 9.63z"/><path d="m39.32 56.93a3.47 3.47 0 0 1 -3.48-3.44v-6a3.48 3.48 0 0 1 3.4-3.49 3.47 3.47 0 0 1 3.48 3.44v6a3.47 3.47 0 0 1 -3.4 3.49z"/><path d="m76.68 56.69a3.47 3.47 0 0 1 -3.48-3.44v-6a3.47 3.47 0 0 1 3.44-3.48 3.47 3.47 0 0 1 3.48 3.44v6a3.48 3.48 0 0 1 -3.44 3.48z"/></g></svg>