<svg viewBox="0 0 116 116" xmlns="http://www.w3.org/2000/svg"><path d="m109.51 41.36c1.72 5.34-1.64 11.4-1.65 16.72 0 5.52 3.28 11.61 1.6 16.74s-8 8.14-11.18 12.55-4.06 11.25-8.53 14.49c-4.31 3.12-11.09 1.85-16.43 3.57s-10.09 6.72-15.41 6.71c-5.52 0-10.26-5.07-15.39-6.76s-12-.43-16.41-3.64-5.26-10-8.5-14.5c-3.12-4.31-9.39-7.24-11.12-12.6s1.64-11.4 1.65-16.72c0-5.52-3.28-11.61-1.6-16.74s8-8.14 11.18-12.55 4.06-11.25 8.53-14.49c4.31-3.12 11.09-1.85 16.43-3.57s10.09-6.72 15.41-6.71c5.52 0 10.26 5.07 15.39 6.76s12 .43 16.41 3.64 5.26 10 8.5 14.5c3.12 4.31 9.39 7.24 11.12 12.6z" fill="#ec9259"/><path d="m109.46 67.87c-1.7 5.18-8 8.15-11.18 12.56s-4.06 11.25-8.53 14.48c-4.31 3.09-11.09 1.85-16.43 3.58s-10.09 6.72-15.41 6.71c-5.52 0-10.26-5.08-15.39-6.76s-12-.43-16.41-3.64-5.26-10-8.5-14.5c-3.12-4.3-9.39-7.3-11.12-12.6 0-.09 0-.17-.07-.26a14.49 14.49 0 0 0 .07 7.2c1.73 5.34 8 8.29 11.12 12.6 3.24 4.47 4.13 11.32 8.5 14.5s11.23 2 16.41 3.64 9.87 6.76 15.39 6.76c5.32 0 10.08-5 15.41-6.71s12.12-.45 16.43-3.57c4.47-3.24 5.35-10.12 8.53-14.49s9.48-7.37 11.18-12.55a14.36 14.36 0 0 0 .05-7.14c-.02.06-.03.13-.05.19z" fill="#d37039"/><path d="m58 71a8 8 0 0 1 -8-8 1.45 1.45 0 0 1 2.9 0 5.11 5.11 0 0 0 10.22 0 1.45 1.45 0 0 1 2.88 0 8 8 0 0 1 -8 8z" fill="#753226"/><g fill="#8e4330"><path d="m60.57 14.43c-1.17.32-11.31 3.83-9.39 13.09s10.34 6.82 12.23 7.27a9.38 9.38 0 0 0 10.59-5.29c3.88-8.41-4.81-17.44-13.43-15.07z"/><path d="m94.87 32.87a7.62 7.62 0 0 0 -6.6-.29c-4.14-.91-8.51 3.47-7.47 8.08.68 3 3.49 6.2 5.89 8 2.7 2 6.47 2.82 9.53 1 6.63-3.8 4.84-13.51-1.35-16.79z"/><path d="m92.77 65.36c-3.77-3.76-9.77-.36-10.77 4.19a5.65 5.65 0 0 0 -.6 2.47c0 4.8 5.32 7.07 9.14 4.52 3.62-2.44 5.83-7.62 2.23-11.18z"/><path d="m55 81.64c-2.55-2.14-6.67-2.37-9.09.15a6.29 6.29 0 0 0 -.59.75c-2.66.34-4.4 3-4.37 5.61.08 5.57 7 8.83 11.84 7.42 6.13-1.8 6.78-10.09 2.21-13.93z"/><path d="m69 88.1a4.3 4.3 0 0 0 -.49-1.83 2.79 2.79 0 0 0 -.94-1 2.6 2.6 0 0 0 -1.23-.64 2.26 2.26 0 0 0 -.57-.09 2 2 0 0 0 -1 0 3.59 3.59 0 0 0 -1.41.45 5.86 5.86 0 0 0 -.79.6 4 4 0 0 0 -.69.9 5.53 5.53 0 0 0 -.4.94v.12a4.39 4.39 0 0 0 0 2.13 3.52 3.52 0 0 0 .71 1.42 1.85 1.85 0 0 0 .68.68 2 2 0 0 0 .4.31 3.05 3.05 0 0 0 .95.4 4.15 4.15 0 0 0 2.93-.38 3.62 3.62 0 0 0 1.85-3.2 3 3 0 0 0 0-.81z"/><path d="m29 56.84a8.15 8.15 0 0 0 -10.42-1.28c-1.58 1.08-10.58 6.3-3.51 16.28 4.68 6.59 13.84 2.69 16.1-4.37a11.12 11.12 0 0 0 -2.17-10.63z"/><path d="m19.05 47.42a4.14 4.14 0 0 0 -.9-1.54 3.6 3.6 0 0 0 -2.46-1 4.17 4.17 0 0 0 -1.4.2 5.8 5.8 0 0 0 -1 .44 4.25 4.25 0 0 0 -1.46 1.48 5.86 5.86 0 0 0 -.59 1.33 4.23 4.23 0 0 0 0 2.12 3.38 3.38 0 0 0 .48 1.1 3.71 3.71 0 0 0 1.28 1.29 3.63 3.63 0 0 0 1.87.51 3.81 3.81 0 0 0 3.21-1.84l.12-.18a3.62 3.62 0 0 0 .4-1.11v.12a1.09 1.09 0 0 1 .05-.17s0 0 0 0a3 3 0 0 0 .19-.41 3.38 3.38 0 0 0 .21-2.34z"/><path d="m36.42 23.13a5.19 5.19 0 0 0 -4.78-3.25 4.91 4.91 0 0 0 -4.56 3.51 5.09 5.09 0 0 0 -.2 1.32 4.67 4.67 0 0 0 -.14 2.64 4.41 4.41 0 0 0 3.45 3.15 5.71 5.71 0 0 0 5.14-1.77 5.27 5.27 0 0 0 1.09-5.6z"/></g><path d="m42.59 41.65c-.84-2.14-3.33-3.17-5.47-3.3a6.44 6.44 0 0 0 -4.75 1.65 6 6 0 0 0 -1.92 1.15 4.67 4.67 0 0 0 -1 5.67c2.38 4.54 8 3 11.1.39 1.63-1.44 2.89-3.35 2.04-5.56z" fill="#d37039"/><path d="m76.63 38.24c-3.88-2.36-9.64 0-10 4.69-.32 4.29 4.41 7.57 8 5.5a2.4 2.4 0 0 1 .28 0 5.53 5.53 0 0 0 1.72-10.16z" fill="#d37039"/><path d="m36.13 78.15a5.37 5.37 0 0 0 -7.53.26 6.56 6.56 0 0 0 -.86 7.77c0 .07 0 .15.05.22a5.08 5.08 0 0 0 5.67 3.78c5.22-.91 6.11-8.77 2.67-12.03z" fill="#d37039"/><path d="m82.14 83a5 5 0 0 0 -4.37 2.8 6.86 6.86 0 0 0 -.3.69s0 0 0 0a5.26 5.26 0 0 0 .86 5.12 2.94 2.94 0 0 0 2.87.78 4.93 4.93 0 0 0 4.5-1.15c3.15-2.94.59-8.24-3.56-8.24z" fill="#d37039"/><path d="m42.62 31.46a2.13 2.13 0 0 0 -2.37-1c-1.79.5-3.91 2.44-2.71 4.45a3.1 3.1 0 0 0 2.34 1.55 2.57 2.57 0 0 0 2.26-.67 2.1 2.1 0 0 0 .48-.73 3.05 3.05 0 0 0 .43-1 3.83 3.83 0 0 0 -.43-2.6z" fill="#d37039"/><path d="m89.14 23.91c-.65-3.52-5.45-5.51-7.68-2.15a3.8 3.8 0 0 0 .28 4.63 3.84 3.84 0 0 0 2.18 1.86 3.9 3.9 0 0 0 5.22-4.34z" fill="#d37039"/><path d="m45 62.24c0 1.49-2.07 2.7-4.63 2.7s-4.63-1.21-4.63-2.7 2.08-2.7 4.63-2.7 4.63 1.21 4.63 2.7z" fill="#eda2b0"/><path d="m80.5 62.24c0 1.49-2.07 2.7-4.63 2.7s-4.62-1.21-4.62-2.7 2.07-2.7 4.62-2.7 4.63 1.21 4.63 2.7z" fill="#eda2b0"/><path d="m42.38 62.63a2.9 2.9 0 0 1 -2.9-2.89v-5a2.9 2.9 0 0 1 2.9-2.89 2.9 2.9 0 0 1 2.89 2.89v5a2.9 2.9 0 0 1 -2.89 2.89z" fill="#753226"/><path d="m73.62 62.63a2.9 2.9 0 0 1 -2.89-2.89v-5a2.9 2.9 0 0 1 2.89-2.89 2.9 2.9 0 0 1 2.9 2.89v5a2.9 2.9 0 0 1 -2.9 2.89z" fill="#753226"/></svg>