<svg viewBox="0 0 116 116" xmlns="http://www.w3.org/2000/svg"><path d="m101.74 100.67h-87c-6.13 0-11-10.1-7.6-15.18l44.76-61.1c3-4.48 9.64-4.48 14-3.24l43.5 64.34c2.11 8.33-1.53 15.18-7.66 15.18z" fill="#e48e39"/><path d="m101.74 95h-87a7.65 7.65 0 0 1 -6.35-12l43.51-64.3a7.64 7.64 0 0 1 12.67 0l43.5 64.3a7.64 7.64 0 0 1 -6.33 12z" fill="#ffaa60"/><g fill="#c1687b"><path d="m67.56 84.77h7.06v2.83h-7.06z" transform="matrix(.30003991 -.95392665 .95392665 .30003991 -32.46 128.15)"/><path d="m44.61 50.03h2.83v6.3h-2.83z" transform="matrix(.30934896 -.95094859 .95094859 .30934896 -18.78 80.51)"/><path d="m60.22 37.18h2.83v5.38h-2.83z" transform="matrix(.08176456 -.99665167 .99665167 .08176456 16.86 98.04)"/><path d="m59.16 23.68h4.48v2.83h-4.48z" transform="matrix(.00977369 -.99995224 .99995224 .00977369 35.71 86.24)"/><path d="m43.66 39.13h5.02v2.83h-5.02z" transform="matrix(.67301251 -.73963109 .73963109 .67301251 -14.89 47.41)"/><path d="m48.74 74h5.72v2.83h-5.72z" transform="matrix(.28635733 -.95812289 .95812289 .28635733 -35.43 103.26)"/><path d="m89.81 72.62h5.72v2.83h-5.72z" transform="matrix(.15643447 -.98768834 .98768834 .15643447 5.04 153.97)"/><path d="m85.34 86.75h2.83v6.79h-2.83z" transform="matrix(.02635142 -.99965274 .99965274 .02635142 -5.64 174.5)"/><path d="m53.43 62.53h2.83v5.79h-2.83z" transform="matrix(.98363442 -.1801758 .1801758 .98363442 -10.89 10.95)"/></g><path d="m46.03 79.11h6.21v3.02h-6.21z" fill="#eda2b0" transform="matrix(.8982578 -.4394689 .4394689 .8982578 -30.43 29.8)"/><path d="m66.5 35.43h3.02v7.35h-3.02z" fill="#eda2b0" transform="matrix(.98919571 -.14660099 .14660099 .98919571 -5 10.39)"/><path d="m70.72 56.35h7.6v3.02h-7.6z" fill="#eda2b0" transform="matrix(.65763825 -.75333388 .75333388 .65763825 -18.08 75.95)"/><path d="m23.62 69.85h3.02v7.52h-3.02z" fill="#eda2b0" transform="matrix(.95975629 -.28083422 .28083422 .95975629 -19.66 10.02)"/><path d="m66.09 80.62h7.18v3.02h-7.18z" fill="#eda2b0" transform="matrix(.46870087 -.88335695 .88335695 .46870087 -35.53 105.19)"/><path d="m52.88 19.52h8.12v3.02h-8.12z" fill="#eda2b0" transform="matrix(.96700149 -.25477073 .25477073 .96700149 -3.48 15.21)"/><path d="m30.08 87.33h7.59v3.02h-7.59z" fill="#eda2b0" transform="matrix(.01326411 -.99991203 .99991203 .01326411 -55.41 121.53)"/><path d="m59.12 67.89c-4.88 0-8.85-4.57-8.85-10.2a1.69 1.69 0 0 1 3.37 0c0 3.77 2.46 6.83 5.48 6.83s5.49-3.06 5.49-6.83a1.68 1.68 0 1 1 3.36 0c.03 5.63-3.97 10.2-8.85 10.2z" fill="#a54760"/><path d="m43.44 59.49a2.93 2.93 0 0 1 -2.91-2.92v-5.82a2.92 2.92 0 0 1 2.91-2.91 2.92 2.92 0 0 1 2.91 2.91v5.82a2.93 2.93 0 0 1 -2.91 2.92z" fill="#a54760"/><path d="m75.25 59.49a2.93 2.93 0 0 1 -2.91-2.92v-5.82a2.92 2.92 0 0 1 2.91-2.91 2.92 2.92 0 0 1 2.91 2.91v5.82a2.93 2.93 0 0 1 -2.91 2.92z" fill="#a54760"/></svg>