<svg viewBox="0 0 116 116" xmlns="http://www.w3.org/2000/svg"><ellipse cx="58" cy="60.05" fill="#e48e39" rx="52" ry="49.95"/><ellipse cx="58" cy="55.95" fill="#ffaa60" rx="52" ry="49.95"/><ellipse cx="58" cy="55.95" fill="#e48e39" rx="44.78" ry="43.02"/><path d="m96.76 34.45a42.62 42.62 0 0 0 -3.18-4.59l-8.82.05-.06-8.47a44.71 44.71 0 0 0 -4.82-3l.12 11.5-19.73.12-.16-17.06c-.79 0-1.59-.05-2.4-.05s-1.6 0-2.4.08l.12 17.08-19.74.13-.07-11.5a42.2 42.2 0 0 0 -4.78 3.06l.05 8.47-8.82.05a42.61 42.61 0 0 0 -3.07 4.61l12-.07.13 19-17.78.11c0 .77-.06 1.54 0 2.31s0 1.54.08 2.3l17.78-.11.13 19-12 .07a41.65 41.65 0 0 0 3.08 4.46h8.82l.06 8.47a43.19 43.19 0 0 0 4.82 3l-.12-11.47 19.73-.12.12 17.08h2.4s1.6 0 2.4-.08l-.12-17.08 19.74-.13.07 11.51a45.18 45.18 0 0 0 4.78-3.06v-8.48l8.82-.05a42.61 42.61 0 0 0 3.11-4.59l-12 .07-.13-19 17.81-.07c0-.77.06-1.53 0-2.31s0-1.54-.08-2.3l-17.78.11-.13-19zm-41 42.78-19.76.12-.13-19 19.74-.12zm-.16-23.57-19.73.12-.13-19 19.74-.13zm24.7 23.41-19.74.13-.12-19 19.73-.12zm-.16-23.56-19.74.12-.12-19 19.72-.08z" fill="#ffaa60"/><g fill="#753226"><path d="m58.2 68.83a8.17 8.17 0 0 1 -8.37-7.93 1.47 1.47 0 0 1 1.49-1.46l13.62-.08a1.48 1.48 0 0 1 1.52 1.43 8.16 8.16 0 0 1 -8.26 8.04z"/><path d="m41.92 60.56a3 3 0 0 1 -3-2.87v-5a3 3 0 0 1 3-2.9 3 3 0 0 1 3 2.86v5a3 3 0 0 1 -3 2.91z"/><path d="m74.36 60.36a3 3 0 0 1 -3-2.87v-5a2.94 2.94 0 0 1 3-2.9 3 3 0 0 1 3 2.86v5a3 3 0 0 1 -3 2.91z"/></g></svg>