<svg viewBox="0 0 116 116" xmlns="http://www.w3.org/2000/svg"><path d="m83.7 105.75-20.92-10.28a7.49 7.49 0 0 0 -6.92.19l-20.32 11.41a7.44 7.44 0 0 1 -11-7.54l3.31-23.07a7.43 7.43 0 0 0 -2.32-6.52l-17.13-15.8a7.43 7.43 0 0 1 3.77-12.79l23-4a7.47 7.47 0 0 0 5.49-4.22l9.69-21.13a7.43 7.43 0 0 1 13.33-.36l10.89 20.6a7.41 7.41 0 0 0 5.71 3.91l23.14 2.72a7.44 7.44 0 0 1 4.47 12.57l-16.23 16.69a7.4 7.4 0 0 0 -2 6.63l4.57 22.85a7.44 7.44 0 0 1 -10.53 8.14z" fill="#7a3f17"/><path d="m107.81 51.72a7.43 7.43 0 0 0 -4.47-12.56l-23.15-2.72a7.41 7.41 0 0 1 -5.7-3.91l-.35-.65a15.17 15.17 0 0 0 -5 1c-2.45 1.06-4.45 3.89-3.44 6.36a6.82 6.82 0 0 0 3.15 3 41.16 41.16 0 0 0 9.66 4.1c-1 3.91.27 8 .09 12.06s-3 8.68-7 8.11a21.7 21.7 0 0 1 -3-1 8.37 8.37 0 0 0 -8.95 3.06c-2.76 3.84-2.05 9.82-5.78 12.74a6.15 6.15 0 0 1 -9.94-5.13 8.83 8.83 0 0 1 -3.64 1.82 3 3 0 0 1 -3.29-1.7 4 4 0 0 1 0-2c.59-3.45 2.12-7 1.13-10.31s-4.13-5.43-7.2-6.99a50.38 50.38 0 0 0 -19.45-5.35c-1.84-.13-3.78-.17-5.4-1.08a7.36 7.36 0 0 0 2.24 3.89l17.13 15.8a7.46 7.46 0 0 1 2.32 6.52l-3.31 23.07a7.44 7.44 0 0 0 11 7.54l20.32-11.39a7.43 7.43 0 0 1 6.92-.19l20.92 10.27a7.44 7.44 0 0 0 10.57-8.13l-4.57-22.87a7.45 7.45 0 0 1 1.95-6.64z" fill="#6d3916"/><path d="m72.44 28.49a6.91 6.91 0 0 0 .54.86l-9.38-17.74a6.64 6.64 0 0 0 -.55-.89z" fill="#49270f"/><path d="m107.81 51.41a7.44 7.44 0 0 0 -.12-10.5 7.3 7.3 0 0 1 -1.93 6.77l-16.23 16.72a7.43 7.43 0 0 0 -2 6.64l4.57 22.85a7.44 7.44 0 0 1 -10.53 8.11l-20.91-10.25a7.46 7.46 0 0 0 -6.92.19l-20.32 11.41a7.41 7.41 0 0 1 -8.88-1.2 7.44 7.44 0 0 0 10.92 4.92l20.32-11.41a7.49 7.49 0 0 1 6.92-.19l20.92 10.28a7.44 7.44 0 0 0 10.57-8.14l-4.57-22.85a7.4 7.4 0 0 1 2-6.63z" fill="#49270f"/><path d="m25.63 70.12a7.48 7.48 0 0 0 -2.23-3.9l-17.13-15.8-.19-.19a7.31 7.31 0 0 0 2.24 3.91l17.13 15.8z" fill="#49270f"/><path d="m9.57 47c.27 1.53 2.26 2.15 3.74 1.68s2.59-1.68 3.83-2.59c4.69-3.49 11-3.35 16.84-4 .88-.1 2-.6 1.82-1.46-.17-.69-1.08-.82-1.79-.81-3.82.06-25.7 0-24.44 7.18z" fill="#fff" opacity=".24"/><path d="m53.53 12.77a12.74 12.74 0 0 0 -1.53 4.23 49.2 49.2 0 0 1 -5.21 12.67 4.37 4.37 0 0 0 -.69 1.6 1.46 1.46 0 0 0 .64 1.52 1.87 1.87 0 0 0 2-.55 10.72 10.72 0 0 0 2.26-3.51 43.81 43.81 0 0 0 3.24-9.9c.28-1.39.73-3.07 2.1-3.42.85-.22 1.84.18 2.61-.25 2.36-1.32-2.46-6.71-5.42-2.39z" fill="#fff" opacity=".24"/><path d="m27.39 98.89a3.85 3.85 0 0 0 .09 1.62 2.69 2.69 0 0 0 3.24 1.49 5.31 5.31 0 0 0 2.94-2.49 3.11 3.11 0 0 0 .58-1.72c-.06-1.47-1.72-2.25-2.55-3.46-1-1.5-.69-3.51-.31-5.29.31-1.45.61-2.89.92-4.33.1-.47-1.86 1.07-2 1.36a17.85 17.85 0 0 0 -1.14 3.68 49 49 0 0 0 -1.77 9.14z" fill="#fff" opacity=".24"/><g fill="#49270f"><path d="m58.94 52.3a10.31 10.31 0 0 0 -3.41.2 13.6 13.6 0 0 0 -3.39 1.22 11.38 11.38 0 0 0 -5.08 4.77 11.35 11.35 0 0 0 3.13 14.25 21 21 0 0 0 3.38 2.26 17.57 17.57 0 0 0 4 1.57 12.11 12.11 0 0 0 4.24.33 12.71 12.71 0 0 0 2.28-.42 17.43 17.43 0 0 0 2.08-.79 15.59 15.59 0 0 0 3.42-2.2 12.31 12.31 0 0 0 2.53-2.9 9.2 9.2 0 0 0 1-7.7 11.48 11.48 0 0 0 -1.75-3.41 15.72 15.72 0 0 0 -1.37-1.67 16.53 16.53 0 0 0 -1.64-1.37 25.38 25.38 0 0 0 -7.18-3.44l-1.76-.58a1.79 1.79 0 1 0 -1 3.46c1.47.48 2.94 1 4.37 1.56l-.43-.18a19.31 19.31 0 0 1 4.27 2.41l-.36-.28a12.1 12.1 0 0 1 2.12 2.11l-.28-.36a10.31 10.31 0 0 1 1.36 2.31l-.13-.45a8.71 8.71 0 0 1 .66 2.22c0-.16 0-.32-.07-.48a6.93 6.93 0 0 1 0 1.93l.07-.48a7.16 7.16 0 0 1 -.5 1.81l.19-.42a8.85 8.85 0 0 1 -1.14 1.92l.28-.36a11.92 11.92 0 0 1 -2.11 2.09l.36-.28a14.08 14.08 0 0 1 -3 1.73l.42-.18a11.58 11.58 0 0 1 -2.94.82l.48-.06a10.47 10.47 0 0 1 -2.74 0l.47.07a13.53 13.53 0 0 1 -3.46-1l.43.19a18.7 18.7 0 0 1 -4.1-2.39l.36.29a13.27 13.27 0 0 1 -2.24-2.19l.29.36a9.27 9.27 0 0 1 -1.23-2.08l.18.49a9.49 9.49 0 0 1 -.63-2.35l.06.48a9.72 9.72 0 0 1 0-2.64l-.07.47a10 10 0 0 1 .64-2.46l-.18.43a8.26 8.26 0 0 1 1.07-1.84l-.28.36a9.55 9.55 0 0 1 1.72-1.7l-.33.25a12.14 12.14 0 0 1 2.66-1.54l-.43.18a11.49 11.49 0 0 1 2.94-.83l-.48.07a8.4 8.4 0 0 1 2.24 0 1.78 1.78 0 0 0 1.27-.52 1.87 1.87 0 0 0 .53-1.27 1.77 1.77 0 0 0 -.53-1.27l-.36-.28a1.71 1.71 0 0 0 -.91-.25z"/><path d="m21.42 54.67a54.1 54.1 0 0 1 7 .4l-.51-.07a25.78 25.78 0 0 1 6.59 1.7l-.43-.18a18.27 18.27 0 0 1 3 1.62 1.8 1.8 0 0 0 1.38.18 1.87 1.87 0 0 0 1.08-.83 1.83 1.83 0 0 0 -.65-2.45c-4-2.67-8.88-3.58-13.61-3.86-1.29-.08-2.58-.11-3.87-.11a1.8 1.8 0 1 0 0 3.59z"/><path d="m39.58 95.48a84.18 84.18 0 0 1 7.55-13.48q1.26-1.81 2.59-3.55a1.77 1.77 0 0 0 .18-1.39 1.79 1.79 0 0 0 -2.21-1.25l-.42.18a1.84 1.84 0 0 0 -.65.65 83.83 83.83 0 0 0 -8.25 13c-.66 1.31-1.29 2.63-1.89 4a1.94 1.94 0 0 0 -.18 1.38 1.82 1.82 0 0 0 .83 1.07 1.8 1.8 0 0 0 1.38.18 1.68 1.68 0 0 0 1.07-.82z"/><path d="m62.6 47.41q.09-7.12.63-14.24.15-2 .33-4a1.8 1.8 0 0 0 -.56-1.26 1.85 1.85 0 0 0 -1.27-.53 1.77 1.77 0 0 0 -1.27.53 2 2 0 0 0 -.46 1.27c-.43 4.73-.73 9.47-.87 14.23-.05 1.33-.08 2.67-.09 4a1.81 1.81 0 0 0 1.79 1.8 1.84 1.84 0 0 0 1.8-1.8z"/><path d="m76.37 57.86a56 56 0 0 1 6.82-3.47l-.42.18a54.49 54.49 0 0 1 9.51-3c.92-.2 1.85-.38 2.78-.53a1.8 1.8 0 0 0 1.25-2.21 1.81 1.81 0 0 0 -.82-1.07l-.43-.18a1.74 1.74 0 0 0 -1 0 56.37 56.37 0 0 0 -15.58 5c-1.35.66-2.67 1.39-4 2.16a1.78 1.78 0 0 0 -.64 2.46 1.81 1.81 0 0 0 2.45.64z"/><path d="m71.65 78.3a9.61 9.61 0 0 0 3 3l-.37-.3a12.25 12.25 0 0 1 1.72 1.63c.59.67 1.14 1.36 1.71 2.05 1.11 1.32 2.29 2.69 3.35 4.09l-.28-.37a14.94 14.94 0 0 1 1.8 2.9 1.83 1.83 0 0 0 1.08.82 1.79 1.79 0 0 0 2.2-1.25l.07-.48a1.83 1.83 0 0 0 -.25-.91 21.84 21.84 0 0 0 -3.35-4.81c-1.28-1.55-2.52-3.14-3.86-4.64a17.24 17.24 0 0 0 -2.47-2.14l.36.28a8.36 8.36 0 0 1 -1.46-1.37l.28.36a4.25 4.25 0 0 1 -.43-.67 1.82 1.82 0 0 0 -1.07-.83 1.8 1.8 0 0 0 -2 2.64z"/></g><path d="m57 50.38a10.29 10.29 0 0 0 -3.41.2 13.82 13.82 0 0 0 -3.4 1.22 11 11 0 0 0 -6.07 12.59 11.62 11.62 0 0 0 4.13 6.43 21.38 21.38 0 0 0 3.37 2.23 17.3 17.3 0 0 0 4 1.57 12.17 12.17 0 0 0 4.25.34 13.37 13.37 0 0 0 2.27-.43 14.24 14.24 0 0 0 2.09-.79 15.59 15.59 0 0 0 3.42-2.2 12.46 12.46 0 0 0 2.53-2.89 9.22 9.22 0 0 0 1-7.71 11.58 11.58 0 0 0 -1.74-3.41 16.83 16.83 0 0 0 -1.44-1.64 16.53 16.53 0 0 0 -1.64-1.37 25.38 25.38 0 0 0 -7.13-3.43l-1.76-.58a1.82 1.82 0 0 0 -2.21 1.26 1.85 1.85 0 0 0 1.26 2.23c1.48.47 2.95 1 4.38 1.55l-.43-.18a19.31 19.31 0 0 1 4.27 2.41l-.37-.28a11.87 11.87 0 0 1 2.13 2.1c-.09-.13-.19-.25-.28-.37a10.31 10.31 0 0 1 1.36 2.31l-.18-.43a8.83 8.83 0 0 1 .6 2.19c0-.16 0-.31-.07-.47a7.26 7.26 0 0 1 0 1.92c0-.16.05-.32.07-.48a7.68 7.68 0 0 1 -.5 1.82l.18-.43a9.12 9.12 0 0 1 -1.13 1.93c.09-.13.18-.25.28-.37a11.65 11.65 0 0 1 -2.12 2.09l.37-.28a13.9 13.9 0 0 1 -3 1.73l.43-.18a11.58 11.58 0 0 1 -2.94.82l.47-.06a10.84 10.84 0 0 1 -2.73 0l.47.06a13.92 13.92 0 0 1 -3.46-1l.43.18a18.83 18.83 0 0 1 -4.1-2.38l.36.28a12.9 12.9 0 0 1 -2.24-2.19l.28.36a9.23 9.23 0 0 1 -1.15-2.05l.18.43a10 10 0 0 1 -.64-2.35l.07.48a9.73 9.73 0 0 1 0-2.64c0 .16 0 .32-.07.48a10.21 10.21 0 0 1 .66-2.42l-.18.43a8.26 8.26 0 0 1 1.08-1.84l-.29.36a9.94 9.94 0 0 1 1.73-1.7l-.37.28a12.44 12.44 0 0 1 2.67-1.54l-.43.18a11.51 11.51 0 0 1 2.93-.82l-.47.06a8.4 8.4 0 0 1 2.23.01 1.78 1.78 0 0 0 1.27-.52 1.79 1.79 0 0 0 0-2.54l-.36-.28a1.8 1.8 0 0 0 -.91-.25z" fill="#f24462"/><path d="m19.48 52.75a56 56 0 0 1 7 .4l-.48-.06a25.78 25.78 0 0 1 6.59 1.7l-.43-.18a19.5 19.5 0 0 1 3 1.62 1.8 1.8 0 0 0 1.38.18 1.79 1.79 0 0 0 .46-3.28c-4-2.67-8.88-3.58-13.61-3.86-1.29-.08-2.58-.11-3.87-.11a1.8 1.8 0 1 0 0 3.59z" fill="#f24462"/><path d="m37.64 93.56a84.18 84.18 0 0 1 7.55-13.46c.83-1.21 1.7-2.39 2.59-3.55a1.8 1.8 0 0 0 .22-1.38 1.86 1.86 0 0 0 -.82-1.08 1.83 1.83 0 0 0 -1.39-.18l-.43.18a1.81 1.81 0 0 0 -.64.65 83.83 83.83 0 0 0 -8.25 13c-.66 1.31-1.29 2.63-1.89 4a1.94 1.94 0 0 0 -.18 1.38 1.83 1.83 0 0 0 .83 1.08 1.79 1.79 0 0 0 2.45-.65z" fill="#f24462"/><path d="m60.65 45.5q.1-7.14.64-14.25.15-2 .33-4a1.8 1.8 0 0 0 -.53-1.25 1.77 1.77 0 0 0 -2.53 0 2 2 0 0 0 -.56 1.26q-.66 7.09-.88 14.23c0 1.33-.07 2.67-.09 4a1.8 1.8 0 0 0 3.59 0z" fill="#f24462"/><path d="m74.43 55.94a54.56 54.56 0 0 1 6.82-3.46l-.43.18a54.63 54.63 0 0 1 9.52-3c.92-.2 1.85-.37 2.78-.53a1.8 1.8 0 0 0 1.07-.83 1.84 1.84 0 0 0 .18-1.38 1.81 1.81 0 0 0 -.83-1.07l-.42-.18a1.74 1.74 0 0 0 -1 0 56.6 56.6 0 0 0 -15.58 5q-2 1-4 2.16a1.79 1.79 0 0 0 -.54 2.47 1.83 1.83 0 0 0 2.46.64z" fill="#f24462"/><path d="m69.71 76.38a9.51 9.51 0 0 0 3 3l-.36-.28a12.18 12.18 0 0 1 1.71 1.58c.58.67 1.14 1.37 1.71 2.05 1.12 1.36 2.28 2.69 3.36 4.09l-.29-.37a14.81 14.81 0 0 1 1.81 2.9 1.8 1.8 0 0 0 1.07.82 1.82 1.82 0 0 0 1.38-.17 1.77 1.77 0 0 0 .82-1l.07-.48a1.9 1.9 0 0 0 -.25-.9 21.9 21.9 0 0 0 -3.35-4.82c-1.28-1.55-2.53-3.13-3.86-4.64a17.24 17.24 0 0 0 -2.45-2.16l.36.28a8.36 8.36 0 0 1 -1.44-1.4l.28.37a4.86 4.86 0 0 1 -.43-.68 1.77 1.77 0 0 0 -1.07-.82 1.8 1.8 0 0 0 -1.38.18 1.83 1.83 0 0 0 -.65 2.45z" fill="#f24462"/><path d="m18.49 50.81a1.15 1.15 0 0 0 .87.79 3.63 3.63 0 0 0 1.23 0 37.56 37.56 0 0 1 9.93.48.55.55 0 0 0 -.17-.67 1.6 1.6 0 0 0 -.68-.29 46.82 46.82 0 0 0 -6.46-1.08c-.78-.04-5.1-.9-4.72.77z" fill="#fff" opacity=".24"/><path d="m44.65 60.86a12.32 12.32 0 0 0 1.5 6.55 8.4 8.4 0 0 0 2 2.68 4.24 4.24 0 0 0 3.1 1.07.61.61 0 0 0 .33-.1.49.49 0 0 0 -.08-.71 1.8 1.8 0 0 0 -.76-.29c-1.61-.45-2.64-2-3.33-3.53a12.15 12.15 0 0 1 -1.15-4.29 8.74 8.74 0 0 1 9.12-9.24 25.39 25.39 0 0 0 2.61.16.83.83 0 0 0 .44-.12.59.59 0 0 0 0-.82 1.43 1.43 0 0 0 -.78-.43 8.6 8.6 0 0 0 -5.5.4c-3.7 1.47-7.15 4.45-7.5 8.67z" fill="#fff" opacity=".24"/><path d="m35.05 92.27a1.85 1.85 0 0 1 .43-1.34 48 48 0 0 0 4.52-7.8c.17-.42.48-.94.92-.84a2.22 2.22 0 0 1 -.19 1.36c-1 2.57-2.84 4.84-3.21 7.57-.09.7-.21 1.56-1 1.75-.52.11-1.36-.17-1.47-.7z" fill="#fff" opacity=".24"/><path d="m57.56 44.39a1.28 1.28 0 0 0 .22 1c.42.42 1.21 0 1.37-.57a3.5 3.5 0 0 0 -.21-1.77 12.11 12.11 0 0 1 -.28-2.82 48.73 48.73 0 0 1 .81-9.49 5.58 5.58 0 0 0 .12-2.4.38.38 0 0 0 -.18-.27c-.17-.09-.36.09-.45.26-.63 1.09-.45 2.38-.55 3.58s-.26 2.54-.34 3.82z" fill="#fff" opacity=".24"/></svg>